600 0 1 0           
87 GICL ACIS Healer - Source: /gicl/data5/repository/Allied-Signal/part04/part04.sat - 6 0 18 ACIS 6.0.3 Solaris 24 Sun Apr 14 00:15:41 2002 
1 9.999999999999999547e-07 1.000000000000000036e-10 
body $-1 $1 $-1 $-1 #
lump $-1 $-1 $2 $0 #
shell $-1 $-1 $-1 $3 $-1 $1 #
face $-1 $4 $5 $2 $-1 $6 forward single #
face $-1 $7 $8 $2 $-1 $9 forward single #
loop $-1 $-1 $10 $3 #
cone-surface $-1 -0.0153162000000000003 -0.01582420000000000007 -0.0026670000000000001 0 0 -1 0.003251200000000000097 0 0 1 I I 0 1 0.003251200000000000097 forward I I I I #
face $-1 $11 $12 $2 $-1 $13 reversed single #
loop $-1 $-1 $14 $4 #
plane-surface $-1 -0.01367789999999999978 -0.01257300000000000084 -0.0026670000000000001 0 1 0 0 0 1 forward_v I I I I #
coedge $-1 $15 $16 $17 $18 reversed $5 $-1 #
face $-1 $19 $20 $2 $-1 $21 forward single #
loop $-1 $-1 $22 $7 #
cone-surface $-1 -0.01203959999999999926 -0.006223000000000000233 -0.0026670000000000001 0 0 -1 0.006349999999999999742 0 0 1 I I 0 1 0.006349999999999999742 forward I I I I #
coedge $-1 $23 $24 $25 $26 reversed $8 $-1 #
coedge $-1 $25 $10 $27 $28 reversed $5 $-1 #
coedge $-1 $10 $25 $29 $30 forward $5 $-1 #
coedge $-1 $31 $32 $10 $18 forward $33 $-1 #
edge $-1 $34 0 $35 0.00165099999999999969 $10 $36 forward 7 unknown #
face $-1 $37 $33 $2 $-1 $38 forward single #
loop $-1 $-1 $39 $11 #
plane-surface $-1 -0.005689600000000000386 -0.0006223000000000000016 -0.0026670000000000001 -1 0 0 0 0 1 forward_v I I I I #
coedge $-1 $40 $41 $42 $43 reversed $12 $-1 #
coedge $-1 $42 $14 $44 $45 forward $8 $-1 #
coedge $-1 $14 $42 $46 $47 reversed $8 $-1 #
coedge $-1 $16 $15 $14 $26 forward $5 $-1 #
edge $-1 $48 0 $49 0.00165099999999999969 $25 $50 forward 7 unknown #
coedge $-1 $51 $44 $15 $28 forward $52 $-1 #
edge $-1 $48 1.570796326794896558 $34 3.141592653589793116 $15 $53 reversed 7 unknown #
coedge $-1 $46 $54 $16 $30 reversed $55 $-1 #
edge $-1 $49 1.570796326794896558 $35 3.141592653589793116 $16 $56 reversed 7 unknown #
coedge $-1 $57 $17 $54 $58 reversed $33 $-1 #
coedge $-1 $17 $57 $51 $59 forward $33 $-1 #
loop $-1 $-1 $32 $19 #
vertex $-1 $18 $60 #
vertex $-1 $18 $61 #
straight-curve $-1 -0.01856740000000000126 -0.01582420000000000007 -0.0026670000000000001 0 0 -1 I I #
face $-1 $62 $55 $2 $-1 $63 forward single #
plane-surface $-1 -0.01856740000000000126 -0.0259305793468390007 -0.0026670000000000001 -1 0 0 0 0 1 forward_v I I I I #
coedge $-1 $64 $65 $66 $67 reversed $20 $-1 #
coedge $-1 $66 $22 $68 $69 forward $12 $-1 #
coedge $-1 $22 $66 $70 $71 reversed $12 $-1 #
coedge $-1 $24 $23 $22 $43 forward $8 $-1 #
edge $-1 $72 0 $73 0.00165099999999999969 $42 $74 forward 7 unknown #
coedge $-1 $27 $68 $23 $45 reversed $52 $-1 #
edge $-1 $48 -0.002457450000000001647 $72 0.0008191499999999993925 $23 $75 forward 7 unknown #
coedge $-1 $70 $29 $24 $47 forward $55 $-1 #
edge $-1 $49 -0.0008191499999999993925 $73 0.002457450000000001647 $24 $76 forward 7 unknown #
vertex $-1 $28 $77 #
vertex $-1 $26 $78 #
straight-curve $-1 -0.0153162000000000003 -0.01257300000000000084 -0.0026670000000000001 0 0 -1 I I #
coedge $-1 $79 $27 $32 $59 reversed $52 $-1 #
loop $-1 $-1 $80 $62 #
ellipse-curve $-1 -0.0153162000000000003 -0.01582420000000000007 -0.0026670000000000001 -0 -0 -1 0.003251200000000000097 0 0 1 I I #
coedge $-1 $29 $81 $31 $58 forward $55 $-1 #
loop $-1 $-1 $54 $37 #
ellipse-curve $-1 -0.0153162000000000003 -0.01582420000000000007 -0.00431799999999999979 -0 -0 -1 0.003251200000000000097 0 0 1 I I #
coedge $-1 $32 $31 $82 $83 reversed $33 $-1 #
edge $-1 $84 -0.01515956902025863626 $35 0.005053189673419500316 $31 $85 forward 7 unknown #
edge $-1 $86 -0.01996016902025863488 $34 0.0002525896734195016979 $32 $87 forward 7 unknown #
point $-1 -0.01856740000000000126 -0.01582420000000000007 -0.0026670000000000001 #
point $-1 -0.01856740000000000126 -0.01582420000000000007 -0.00431799999999999979 #
face $-1 $88 $89 $2 $-1 $90 forward single #
plane-surface $-1 -0.0153162000000000003 -0.01582420000000000007 -0.00431799999999999979 0 0 1 1 0 0 forward_v I I I I #
coedge $-1 $91 $39 $92 $93 forward $20 $-1 #
coedge $-1 $39 $91 $94 $95 reversed $20 $-1 #
coedge $-1 $41 $40 $39 $67 forward $12 $-1 #
edge $-1 $96 0 $97 0.00165099999999999969 $66 $98 forward 7 unknown #
coedge $-1 $44 $92 $40 $69 reversed $52 $-1 #
edge $-1 $72 -1.570796326794896558 $96 -0 $40 $99 reversed 7 unknown #
coedge $-1 $94 $46 $41 $71 forward $55 $-1 #
edge $-1 $73 -1.570796326794896558 $97 -0 $41 $100 reversed 7 unknown #
vertex $-1 $45 $101 #
vertex $-1 $43 $102 #
straight-curve $-1 -0.01203959999999999926 -0.01257300000000000084 -0.0026670000000000001 0 0 -1 I I #
straight-curve $-1 -0.01285874999999999865 -0.01257300000000000084 -0.0026670000000000001 1 0 0 I I #
straight-curve $-1 -0.01449705000000000091 -0.01257300000000000084 -0.00431799999999999979 1 0 0 I I #
point $-1 -0.0153162000000000003 -0.01257300000000000084 -0.0026670000000000001 #
point $-1 -0.0153162000000000003 -0.01257300000000000084 -0.00431799999999999979 #
coedge $-1 $103 $51 $104 $105 forward $52 $-1 #
coedge $-1 $92 $106 $107 $108 reversed $52 $-1 #
coedge $-1 $54 $109 $110 $111 forward $55 $-1 #
coedge $-1 $110 $104 $57 $83 forward $112 $-1 #
edge $-1 $86 0.00133350000000000005 $84 0.00298449999999999974 $57 $113 forward 7 unknown #
vertex $-1 $58 $114 #
straight-curve $-1 -0.01856740000000000126 -0.02087738967341950039 -0.00431799999999999979 0 1 -0 I I #
vertex $-1 $59 $115 #
straight-curve $-1 -0.01856740000000000126 -0.01607678967341950177 -0.0026670000000000001 0 1 -0 I I #
face $-1 $116 $112 $2 $-1 $117 reversed single #
loop $-1 $118 $119 $62 #
plane-surface $-1 -0.01203959999999999926 -0.006223000000000000233 -0.0026670000000000001 0 0 1 1 0 0 forward_v I I I I #
coedge $-1 $65 $64 $120 $121 reversed $20 $-1 #
coedge $-1 $68 $80 $64 $93 reversed $52 $-1 #
edge $-1 $96 -0.002800350000000000061 $122 0.008401050000000000184 $64 $123 forward 7 unknown #
coedge $-1 $124 $70 $65 $95 forward $55 $-1 #
edge $-1 $97 0.002000249999999999424 $125 0.0132016499999999988 $65 $126 forward 7 unknown #
vertex $-1 $69 $127 #
vertex $-1 $67 $128 #
straight-curve $-1 -0.005689600000000000386 -0.006223000000000000233 -0.0026670000000000001 0 0 -1 I I #
ellipse-curve $-1 -0.01203959999999999926 -0.006223000000000000233 -0.0026670000000000001 -0 -0 -1 0.006349999999999999742 0 0 1 I I #
ellipse-curve $-1 -0.01203959999999999926 -0.006223000000000000233 -0.00431799999999999979 -0 -0 -1 0.006349999999999999742 0 0 1 I I #
point $-1 -0.01203959999999999926 -0.01257300000000000084 -0.0026670000000000001 #
point $-1 -0.01203959999999999926 -0.01257300000000000084 -0.00431799999999999979 #
coedge $-1 $129 $79 $130 $131 reversed $52 $-1 #
coedge $-1 $82 $132 $79 $105 reversed $112 $-1 #
edge $-1 $86 -0.01312517697398316203 $133 -0.01232315865228051158 $79 $134 reversed 7 unknown #
coedge $-1 $80 $135 $136 $137 forward $52 $-1 #
coedge $-1 $138 $120 $80 $108 forward $139 $-1 #
edge $-1 $122 -0.001281280849158000952 $140 0.01806784254747299812 $80 $141 reversed 7 unknown #
coedge $-1 $81 $142 $143 $144 reversed $55 $-1 #
coedge $-1 $145 $82 $81 $111 reversed $112 $-1 #
edge $-1 $146 -0.01076554819153200705 $84 -0.008394625079396735023 $81 $147 reversed 7 unknown #
loop $-1 $-1 $82 $88 #
straight-curve $-1 -0.0185673999999999978 -0.03603695869367813664 -0.00133350000000000005 0 0 -1 I I #
point $-1 -0.0185673999999999978 -0.03603695869367813664 -0.00431799999999999979 #
point $-1 -0.0185673999999999978 -0.03603695869367813664 -0.0026670000000000001 #
face $-1 $148 $149 $2 $-1 $150 forward single #
plane-surface $-1 -0.01907163628003399891 -0.0366378840919249979 0 -0.7660444431189782355 0.6427876096865391409 0 0 0 1 forward_v I I I I #
loop $-1 $151 $152 $62 #
coedge $-1 $119 $119 $153 $154 reversed $89 $-1 #
coedge $-1 $107 $155 $91 $121 forward $139 $-1 #
edge $-1 $125 -0.00298449999999999974 $122 -0.00133350000000000005 $91 $156 reversed 7 unknown #
vertex $-1 $93 $157 #
straight-curve $-1 -0.005689600000000001254 -0.003422650000000000171 -0.0026670000000000001 0 1 -0 I I #
coedge $-1 $158 $94 $155 $159 reversed $55 $-1 #
vertex $-1 $121 $160 #
straight-curve $-1 -0.005689600000000001254 -0.008223249999999999657 -0.00431799999999999979 0 1 -0 I I #
point $-1 -0.005689599999999999519 -0.006223000000000000233 -0.0026670000000000001 #
point $-1 -0.005689599999999999519 -0.006223000000000000233 -0.00431799999999999979 #
coedge $-1 $161 $103 $162 $163 forward $52 $-1 #
coedge $-1 $164 $165 $103 $131 forward $166 $-1 #
edge $-1 $167 0.8726646259971654329 $133 2.443460952792061214 $103 $168 forward 7 unknown #
coedge $-1 $104 $169 $164 $170 reversed $112 $-1 #
vertex $-1 $105 $171 #
straight-curve $-1 -0.01013069886618055832 -0.02598248980780517095 -0.0026670000000000001 -0.6427876096865391409 -0.7660444431189782355 0 I I #
coedge $-1 $106 $172 $173 $174 forward $52 $-1 #
coedge $-1 $175 $176 $106 $137 reversed $177 $-1 #
edge $-1 $178 0.2661823412906219599 $140 1.570796326794896558 $106 $179 forward 7 unknown #
coedge $-1 $180 $107 $176 $181 forward $139 $-1 #
loop $-1 $-1 $155 $182 #
vertex $-1 $108 $183 #
straight-curve $-1 -0.004408319150841999434 0.004978400000000000013 -0.0026670000000000001 -1 0 0 I I #
coedge $-1 $109 $184 $185 $186 forward $55 $-1 #
coedge $-1 $187 $188 $109 $144 forward $149 $-1 #
edge $-1 $146 -0.01652174337659371994 $189 0.00550724779219799801 $109 $190 reversed 7 unknown #
coedge $-1 $169 $110 $188 $191 forward $112 $-1 #
vertex $-1 $144 $192 #
straight-curve $-1 -0.01317143901099989724 -0.0296063027995390575 -0.00431799999999999979 -0.6427876096865391409 -0.7660444431189782355 0 I I #
face $-1 $193 $194 $2 $-1 $195 forward single #
loop $-1 $-1 $188 $116 #
plane-surface $-1 -0.02009139999999999884 -0.02683869558439599956 0 -1 0 0 0 0 1 forward_v I I I I #
loop $-1 $196 $197 $62 #
coedge $-1 $152 $152 $198 $199 reversed $118 $-1 #
coedge $-1 $153 $153 $119 $154 forward $200 $-1 #
edge $-1 $201 0 $201 6.283185307179586232 $119 $202 forward 7 unknown #
coedge $-1 $120 $203 $124 $159 forward $139 $-1 #
straight-curve $-1 -0.005689600000000000386 0.004978400000000000013 -0.00133350000000000005 0 0 -1 I I #
point $-1 -0.005689600000000000386 0.004978400000000000013 -0.0026670000000000001 #
coedge $-1 $204 $124 $205 $206 reversed $55 $-1 #
edge $-1 $207 -0.001166980849157994542 $125 0.0003570191508419987003 $124 $208 reversed 7 unknown #
point $-1 -0.005689600000000001254 0.004978399999999999145 -0.00431799999999999979 #
coedge $-1 $209 $129 $210 $211 forward $52 $-1 #
coedge $-1 $212 $213 $129 $163 reversed $214 $-1 #
edge $-1 $167 0.007662590369177648894 $215 0.01864874554888704128 $129 $216 reversed 7 unknown #
coedge $-1 $217 $130 $132 $170 forward $166 $-1 #
coedge $-1 $130 $217 $212 $218 reversed $166 $-1 #
loop $-1 $-1 $165 $219 #
vertex $-1 $131 $220 #
ellipse-curve $-1 -0.01295400000000000024 -0.03970019999999999799 -0.0026670000000000001 0 0 1 0.006654799999999999778 0 0 1 I I #
coedge $-1 $132 $145 $221 $222 forward $112 $-1 #
edge $-1 $133 0.0026670000000000001 $223 0.005714999999999999594 $132 $224 forward 7 unknown #
point $-1 -0.01805187256006794694 -0.03542257701505820838 -0.0026670000000000001 #
coedge $-1 $135 $225 $226 $227 forward $52 $-1 #
coedge $-1 $228 $229 $135 $174 reversed $230 $-1 #
edge $-1 $231 0.1714765972459575682 $178 0.2661823412906218489 $135 $232 forward 7 unknown #
coedge $-1 $233 $136 $229 $234 forward $177 $-1 #
coedge $-1 $136 $233 $138 $181 reversed $177 $-1 #
loop $-1 $-1 $136 $235 #
vertex $-1 $174 $236 #
ellipse-curve $-1 0.01365952339663100042 0.0005333999999999999549 -0.0026670000000000001 0 0 1 0.004445000000000000166 0 0 1 I I #
coedge $-1 $203 $138 $237 $238 reversed $139 $-1 #
edge $-1 $140 0.0026670000000000001 $239 0.005714999999999999594 $138 $240 forward 7 unknown #
face $-1 $241 $139 $2 $-1 $242 forward single #
point $-1 0.01365952339663100042 0.004978400000000000013 -0.0026670000000000001 #
coedge $-1 $142 $204 $243 $244 reversed $55 $-1 #
coedge $-1 $245 $246 $142 $186 reversed $194 $-1 #
edge $-1 $247 1.570796326794896558 $189 3.141592653589793116 $142 $248 forward 7 unknown #
coedge $-1 $249 $143 $246 $250 forward $149 $-1 #
coedge $-1 $143 $249 $145 $191 reversed $149 $-1 #
vertex $-1 $186 $251 #
straight-curve $-1 -0.02009139999999999884 -0.02133144779219799808 -0.00431799999999999979 0 -1 0 I I #
edge $-1 $146 0.00431799999999999979 $252 0.005714999999999999594 $145 $253 reversed 7 unknown #
point $-1 -0.02009139999999999884 -0.03785319116879171802 -0.00431799999999999979 #
face $-1 $254 $255 $2 $-1 $256 forward single #
loop $-1 $-1 $185 $148 #
cone-surface $-1 -0.0153162000000000003 -0.01582420000000000007 0 0 0 -1 0.004775200000000000278 0 0 1 I I 0 1 0.004775200000000000278 forward I I I I #
loop $-1 $257 $258 $62 #
coedge $-1 $197 $197 $259 $260 reversed $151 $-1 #
coedge $-1 $198 $198 $152 $199 forward $261 $-1 #
edge $-1 $262 0 $262 6.283185307179586232 $152 $263 forward 7 unknown #
loop $-1 $264 $153 $265 #
vertex $-1 $154 $266 #
ellipse-curve $-1 0 0 -0.0026670000000000001 0 0 1 0.001587499999999999935 0 0 1 I I #
coedge $-1 $155 $180 $267 $268 reversed $139 $-1 #
coedge $-1 $184 $158 $269 $270 reversed $55 $-1 #
coedge $-1 $267 $271 $158 $206 forward $272 $-1 #
edge $-1 $273 0.002000249999999998557 $207 0.01320165000000000227 $158 $274 reversed 7 unknown #
vertex $-1 $159 $275 #
straight-curve $-1 -0.006046619150841999954 0.004978399999999999145 -0.00431799999999999979 -1 0 0 I I #
coedge $-1 $276 $161 $277 $278 forward $52 $-1 #
coedge $-1 $279 $280 $161 $211 reversed $281 $-1 #
edge $-1 $215 -2.268928027592627572 $282 -1.570796326794896558 $161 $283 forward 7 unknown #
coedge $-1 $284 $162 $165 $218 forward $214 $-1 #
coedge $-1 $162 $284 $279 $285 reversed $214 $-1 #
loop $-1 $-1 $162 $286 #
vertex $-1 $163 $287 #
straight-curve $-1 -0.0145462617872632767 -0.02967690929252068954 -0.0026670000000000001 -0.7660444431189786796 0.6427876096865386968 0 I I #
coedge $-1 $165 $164 $288 $289 reversed $166 $-1 #
edge $-1 $167 0.0026670000000000001 $290 0.005714999999999999594 $212 $291 forward 7 unknown #
face $-1 $-1 $166 $2 $-1 $292 reversed single #
point $-1 -0.008676377015058023279 -0.03460232743993182231 -0.0026670000000000001 #
coedge $-1 $293 $288 $169 $222 reversed $294 $-1 #
edge $-1 $252 -0.02634349047344289318 $223 -0.0231705490396049707 $169 $295 forward 7 unknown #
vertex $-1 $222 $296 #
straight-curve $-1 -0.01805187256006794694 -0.03542257701505820838 0 0 0 -1 I I #
coedge $-1 $172 $297 $298 $299 reversed $52 $-1 #
coedge $-1 $300 $301 $172 $227 reversed $302 $-1 #
edge $-1 $303 0.0126908113838129985 $231 0.01684236584856089666 $172 $304 reversed 7 unknown #
coedge $-1 $305 $173 $301 $306 reversed $230 $-1 #
coedge $-1 $173 $307 $175 $234 reversed $230 $-1 #
loop $-1 $-1 $228 $308 #
vertex $-1 $227 $309 #
ellipse-curve $-1 -0.05816600000000000242 -0.01905000000000000096 -0.0026670000000000001 0 0 1 0.07889240000000000141 0 0 1 I I #
coedge $-1 $176 $175 $310 $311 forward $177 $-1 #
edge $-1 $178 0.0026670000000000001 $312 0.005714999999999999594 $175 $313 forward 7 unknown #
face $-1 $308 $177 $2 $-1 $314 forward single #
point $-1 0.01794798009892054763 0.001702657932446286632 -0.0026670000000000001 #
coedge $-1 $310 $315 $180 $238 forward $294 $-1 #
edge $-1 $316 -0.0156548425474734923 $239 0.005218280849157500012 $180 $317 forward 7 unknown #
vertex $-1 $181 $318 #
straight-curve $-1 0.01365952339663100042 0.004978400000000000013 0 0 0 -1 I I #
face $-1 $319 $320 $2 $-1 $321 reversed single #
plane-surface $-1 0.003222961698315999959 0.004978400000000000013 0 0 1 0 0 0 1 forward_v I I I I #
coedge $-1 $322 $323 $184 $244 forward $255 $-1 #
edge $-1 $247 -0.0008191499999999993925 $324 0.002457450000000001647 $184 $325 reversed 7 unknown #
coedge $-1 $326 $185 $323 $327 forward $194 $-1 #
coedge $-1 $185 $326 $187 $250 reversed $194 $-1 #
vertex $-1 $244 $328 #
ellipse-curve $-1 -0.0153162000000000003 -0.01582420000000000007 -0.00431799999999999979 0 0 1 0.004775200000000000278 0 0 1 I I #
coedge $-1 $188 $187 $293 $329 reversed $149 $-1 #
edge $-1 $189 0.00431799999999999979 $330 0.005714999999999999594 $187 $331 forward 7 unknown #
point $-1 -0.02009140000000000231 -0.01582420000000000007 -0.00431799999999999979 #
vertex $-1 $191 $332 #
straight-curve $-1 -0.02009139999999999884 -0.03785319116879171802 0 0 0 1 I I #
face $-1 $333 $334 $2 $-1 $335 reversed single #
loop $-1 $-1 $323 $193 #
plane-surface $-1 -0.01367789999999999978 -0.01104899999999999979 0 0 1 0 0 0 1 forward_v I I I I #
loop $-1 $336 $337 $62 #
coedge $-1 $258 $258 $338 $339 reversed $196 $-1 #
coedge $-1 $259 $259 $197 $260 forward $340 $-1 #
edge $-1 $341 0 $341 6.283185307179586232 $197 $342 forward 7 unknown #
loop $-1 $343 $198 $344 #
vertex $-1 $199 $345 #
ellipse-curve $-1 0.00698499999999999989 -0.03810000000000000192 -0.0026670000000000001 0 0 1 0.001587499999999999935 0 0 1 I I #
loop $-1 $-1 $346 $265 #
face $-1 $347 $200 $2 $-1 $348 reversed single #
point $-1 0.001587499999999999935 0 -0.0026670000000000001 #
coedge $-1 $349 $205 $203 $268 forward $272 $-1 #
edge $-1 $207 0.00431799999999999979 $316 0.005714999999999999594 $267 $350 forward 7 unknown #
coedge $-1 $351 $352 $204 $270 forward $334 $-1 #
edge $-1 $324 -1.570796326794896558 $273 -8.986342084421929848e-16 $204 $353 forward 7 unknown #
coedge $-1 $205 $349 $351 $354 reversed $272 $-1 #
loop $-1 $-1 $271 $333 #
vertex $-1 $206 $355 #
straight-curve $-1 -0.007213600000000007506 -0.008223250000000003126 -0.00431799999999999979 -1.000000000000000078e-15 -1 0 I I #
point $-1 -0.007213599999999994496 0.004978399999999999145 -0.00431799999999999979 #
coedge $-1 $356 $209 $357 $358 forward $52 $-1 #
coedge $-1 $359 $360 $209 $278 reversed $361 $-1 #
edge $-1 $282 0.005323883478100499902 $362 0.01535812110505349951 $209 $363 reversed 7 unknown #
coedge $-1 $364 $210 $213 $285 forward $281 $-1 #
coedge $-1 $210 $364 $359 $365 reversed $281 $-1 #
loop $-1 $-1 $210 $366 #
vertex $-1 $211 $367 #
ellipse-curve $-1 0.003625285769677999946 -0.03703320000000000223 -0.0026670000000000001 0 0 1 0.006045199999999999706 0 0 1 I I #
coedge $-1 $213 $212 $368 $369 forward $214 $-1 #
edge $-1 $215 0.0026670000000000001 $370 0.005714999999999999594 $279 $371 forward 7 unknown #
face $-1 $219 $214 $2 $-1 $372 reversed single #
point $-1 -0.0002604938883985731188 -0.04166409186754226751 -0.0026670000000000001 #
coedge $-1 $221 $368 $217 $289 forward $294 $-1 #
edge $-1 $290 0.8726646259971653219 $223 2.443460952792061214 $288 $373 forward 7 unknown #
vertex $-1 $369 $374 #
straight-curve $-1 -0.008676377015057737049 -0.0346023274399314823 0 0 0 -1 I I #
cone-surface $-1 -0.01295400000000000024 -0.03970019999999999799 0 0 0 -1 0.006654799999999999778 0 0 1 I I 0 1 0.006654799999999999778 forward I I I I #
coedge $-1 $375 $221 $249 $329 forward $294 $-1 #
loop $-1 $376 $237 $377 #
straight-curve $-1 -0.003158130727775527655 -0.01767290667925304828 -0.005714999999999999594 0.6427876096865391409 0.7660444431189782355 -0 I I #
point $-1 -0.01805187256006794694 -0.03542257701505820838 -0.005714999999999999594 #
coedge $-1 $225 $378 $379 $380 forward $52 $-1 #
coedge $-1 $381 $382 $225 $299 forward $383 $-1 #
edge $-1 $303 1.570796326794896558 $384 3.141592653589793116 $225 $385 forward 7 unknown #
coedge $-1 $386 $226 $382 $387 reversed $302 $-1 #
coedge $-1 $226 $386 $228 $306 forward $302 $-1 #
loop $-1 $-1 $300 $388 #
vertex $-1 $299 $389 #
straight-curve $-1 0.002726988616187001231 -0.005588000000000000085 -0.0026670000000000001 -1 0 0 I I #
coedge $-1 $390 $228 $391 $392 reversed $230 $-1 #
edge $-1 $393 0 $231 0.0026670000000000001 $301 $394 forward 7 unknown #
coedge $-1 $229 $395 $396 $397 forward $230 $-1 #
face $-1 $398 $230 $2 $-1 $399 forward single #
point $-1 0.01956935446474789703 -0.005587999999999999218 -0.0026670000000000001 #
coedge $-1 $396 $237 $233 $311 reversed $294 $-1 #
edge $-1 $312 0.2661823412906217934 $239 1.570796326794896558 $310 $400 forward 7 unknown #
vertex $-1 $311 $401 #
straight-curve $-1 0.01794798009892046783 0.00170265793244626408 0 0 0 -1 I I #
cone-surface $-1 0.01365952339663100042 0.0005333999999999999549 0 0 0 -1 0.004445000000000000166 0 0 1 I I 0 1 0.004445000000000000166 forward I I I I #
coedge $-1 $237 $402 $349 $403 forward $294 $-1 #
vertex $-1 $268 $404 #
straight-curve $-1 0.008441242547473500404 0.004978400000000000013 -0.005714999999999999594 1 0 0 I I #
point $-1 0.01365952339663100042 0.004978400000000000013 -0.005714999999999999594 #
face $-1 $405 $406 $2 $-1 $407 reversed single #
loop $-1 $-1 $408 $241 #
plane-surface $-1 0.003810000000000000019 -0.03492499999999999771 -0.003174999999999999871 -2.000000000000000155e-15 0 1 1 0 2.000000000000000155e-15 forward_v I I I I #
coedge $-1 $409 $243 $352 $410 forward $255 $-1 #
coedge $-1 $243 $409 $245 $327 reversed $255 $-1 #
vertex $-1 $270 $411 #
straight-curve $-1 -0.01449705000000000091 -0.01104899999999999979 -0.00431799999999999979 -1 0 0 I I #
coedge $-1 $246 $245 $375 $412 forward $194 $-1 #
edge $-1 $247 0.00431799999999999979 $413 0.005714999999999999594 $245 $414 forward 7 unknown #
point $-1 -0.0153162000000000003 -0.01104899999999999979 -0.00431799999999999979 #
edge $-1 $252 -0.0247005433765937199 $330 -0.002671552207802000214 $249 $415 forward 7 unknown #
vertex $-1 $250 $416 #
straight-curve $-1 -0.02009139999999999884 -0.01582420000000000007 0 0 0 -1 I I #
point $-1 -0.02009140000000000231 -0.03785319116879171802 -0.005714999999999999594 #
face $-1 $182 $272 $2 $-1 $417 forward single #
loop $-1 $-1 $352 $254 #
cone-surface $-1 -0.01203959999999999926 -0.006223000000000000233 0 0 0 -1 0.004826000000000000428 0 0 1 I I 0 1 0.004826000000000000428 forward I I I I #
loop $-1 $52 $418 $62 #
coedge $-1 $337 $337 $419 $420 reversed $257 $-1 #
coedge $-1 $338 $338 $258 $339 forward $421 $-1 #
edge $-1 $422 0 $422 6.283185307179586232 $258 $423 forward 7 unknown #
loop $-1 $424 $259 $425 #
vertex $-1 $260 $426 #
ellipse-curve $-1 0.003810000000000000019 -0.005969000000000000347 -0.002666999999999974946 0 0 1 0.004155439999999233081 0 0 1 I I #
loop $-1 $-1 $427 $344 #
face $-1 $265 $261 $2 $-1 $428 reversed single #
point $-1 0.008572500000000000259 -0.03810000000000000192 -0.0026670000000000001 #
coedge $-1 $346 $346 $429 $430 reversed $264 $-1 #
face $-1 $431 $432 $2 $-1 $433 reversed single #
cone-surface $-1 0 0 0 0 0 -1 0.001587499999999999935 0 0 1 I I 0 1 0.001587499999999999935 forward I I I I #
coedge $-1 $271 $267 $315 $403 reversed $272 $-1 #
straight-curve $-1 -0.007213599999999994496 0.004978400000000000013 0 0 0 -1 I I #
coedge $-1 $434 $269 $271 $354 forward $334 $-1 #
coedge $-1 $269 $434 $322 $410 reversed $334 $-1 #
ellipse-curve $-1 -0.01203959999999999926 -0.006223000000000000233 -0.00431799999999999979 0 0 1 0.004826000000000000428 0 0 1 I I #
edge $-1 $273 0.00431799999999999979 $435 0.005714999999999999594 $351 $436 forward 7 unknown #
point $-1 -0.007213600000000004904 -0.00622300000000000457 -0.00431799999999999979 #
coedge $-1 $437 $276 $438 $439 forward $52 $-1 #
coedge $-1 $440 $441 $276 $358 reversed $442 $-1 #
edge $-1 $362 -1.570796326794896558 $443 -0.2661823412906219599 $276 $444 forward 7 unknown #
coedge $-1 $445 $277 $280 $365 forward $361 $-1 #
coedge $-1 $277 $445 $440 $446 reversed $361 $-1 #
loop $-1 $-1 $277 $447 #
vertex $-1 $278 $448 #
straight-curve $-1 -0.001698597708422499956 -0.0430784000000000028 -0.0026670000000000001 -1 0 0 I I #
coedge $-1 $280 $279 $449 $450 forward $281 $-1 #
edge $-1 $282 0.0026670000000000001 $451 0.005714999999999999594 $359 $452 forward 7 unknown #
face $-1 $286 $281 $2 $-1 $453 forward single #
point $-1 0.00362528576967800038 -0.0430784000000000028 -0.0026670000000000001 #
coedge $-1 $288 $449 $284 $369 reversed $294 $-1 #
edge $-1 $290 -9.279863288341197257e-06 $370 0.01097687531642105134 $368 $454 reversed 7 unknown #
vertex $-1 $450 $455 #
straight-curve $-1 -0.0002604938883985731188 -0.04166409186754226751 0 0 0 -1 I I #
plane-surface $-1 -0.00446843545172800026 -0.03813320965373700328 0 0.6427876096865386968 0.7660444431189786796 0 0 0 -1 forward_v I I I I #
ellipse-curve $-1 -0.01295400000000000024 -0.03970019999999999799 -0.005714999999999999594 0 0 1 0.006654799999999999778 0 0 1 I I #
point $-1 -0.008676377015057737049 -0.0346023274399314823 -0.005714999999999999594 #
coedge $-1 $456 $293 $326 $412 reversed $294 $-1 #
loop $-1 $-1 $457 $377 #
face $-1 $458 $459 $2 $-1 $460 reversed single #
coedge $-1 $297 $437 $461 $462 reversed $52 $-1 #
coedge $-1 $463 $464 $297 $380 reversed $465 $-1 #
edge $-1 $466 -0.01873249999999999915 $384 0.005905500000000000159 $297 $467 reversed 7 unknown #
coedge $-1 $468 $298 $464 $469 reversed $383 $-1 #
coedge $-1 $298 $468 $300 $387 forward $383 $-1 #
loop $-1 $-1 $381 $470 #
vertex $-1 $380 $471 #
ellipse-curve $-1 0.0154178000000000006 -0.006731000000000000004 -0.0026670000000000001 0 0 1 0.001142999999999999919 0 0 1 I I #
coedge $-1 $301 $300 $472 $473 forward $302 $-1 #
edge $-1 $474 0 $303 0.0026670000000000001 $382 $475 forward 7 unknown #
face $-1 $235 $302 $2 $-1 $476 forward single #
point $-1 0.0154178000000000006 -0.005588000000000000085 -0.0026670000000000001 #
coedge $-1 $438 $305 $477 $478 forward $230 $-1 #
coedge $-1 $472 $479 $305 $392 forward $480 $-1 #
edge $-1 $481 -0.1714765972459576515 $393 0.1714765972459575682 $391 $482 forward 7 unknown #
vertex $-1 $392 $483 #
straight-curve $-1 0.01956935446474788315 -0.005587999999999999218 0 0 0 -1 I I #
coedge $-1 $307 $438 $441 $484 forward $230 $-1 #
coedge $-1 $485 $310 $307 $397 reversed $294 $-1 #
edge $-1 $486 -0.2661823412906217379 $312 0.2661823412906218489 $396 $487 forward 7 unknown #
face $-1 $447 $442 $2 $-1 $488 forward single #
cone-surface $-1 -0.05816600000000000242 -0.01905000000000000096 0 0 0 -1 0.07889240000000000141 0 0 1 I I 0 1 0.07889240000000000141 forward I I I I #
ellipse-curve $-1 0.01365952339663100042 0.0005333999999999999549 -0.005714999999999999594 0 0 1 0.004445000000000000166 0 0 1 I I #
point $-1 0.0179479800989204713 0.001702657932446264948 -0.005714999999999999594 #
coedge $-1 $315 $456 $434 $489 forward $294 $-1 #
edge $-1 $435 -0.00617855000000001528 $316 0.005022849999999989302 $349 $490 forward 7 unknown #
point $-1 -0.007213599999999993628 0.004978400000000000013 -0.005714999999999999594 #
face $-1 $491 $492 $2 $-1 $493 reversed single #
loop $-1 $494 $495 $319 #
cone-surface $-1 0.003810000000000000019 -0.02889250000000000151 -0.005714999999999999594 -2.000000000000000155e-15 0 1 0.001587499999999999935 0 3.175000000000000054e-18 1 I I 0 1 0.001587499999999999935 forward I I I I #
coedge $-1 $408 $408 $495 $496 forward $320 $-1 #
coedge $-1 $323 $322 $456 $497 reversed $255 $-1 #
edge $-1 $324 0.00431799999999999979 $498 0.005714999999999999594 $322 $499 forward 7 unknown #
point $-1 -0.01203959999999999926 -0.01104899999999999979 -0.00431799999999999979 #
edge $-1 $413 1.570796326794896558 $330 3.141592653589793116 $326 $500 reversed 7 unknown #
vertex $-1 $327 $501 #
straight-curve $-1 -0.0153162000000000003 -0.01104899999999999979 0 0 0 -1 I I #
straight-curve $-1 -0.02009139999999999884 -0.01315264779219799986 -0.005714999999999999594 0 1 -0 I I #
point $-1 -0.02009139999999999884 -0.01582420000000000007 -0.005714999999999999594 #
plane-surface $-1 -0.0072135999999999997 -0.0006223000000000000016 0 -1 1.000000000000000078e-15 0 0 0 1 forward_v I I I I #
coedge $-1 $418 $418 $502 $503 reversed $336 $-1 #
coedge $-1 $419 $419 $337 $420 forward $504 $-1 #
edge $-1 $505 0 $505 6.283185307179586232 $337 $506 forward 7 unknown #
loop $-1 $507 $338 $508 #
vertex $-1 $339 $509 #
ellipse-curve $-1 0.01336039999999999971 -0.000507999999999999988 -0.002666999999999974946 0 0 1 0.004155439999999233081 0 0 1 I I #
loop $-1 $-1 $510 $425 #
face $-1 $344 $340 $2 $-1 $511 reversed single #
point $-1 0.007965440000000000714 -0.005969000000000000347 -0.0026670000000000001 #
coedge $-1 $427 $427 $512 $513 reversed $343 $-1 #
cone-surface $-1 0.00698499999999999989 -0.03810000000000000192 0 0 0 -1 0.001587499999999999935 0 0 1 I I 0 1 0.001587499999999999935 forward I I I I #
coedge $-1 $429 $429 $346 $430 forward $514 $-1 #
edge $-1 $515 -6.283185307179586232 $515 -0 $346 $516 reversed 7 unknown #
face $-1 $517 $518 $2 $-1 $519 reversed single #
loop $-1 $-1 $520 $347 #
cone-surface $-1 0.01630679999999999977 -0.03048000000000000015 0 0 0 -1 0.001270000000000000078 0 0 1 I I 0 1 0.001270000000000000078 forward I I I I #
coedge $-1 $352 $351 $402 $489 reversed $334 $-1 #
vertex $-1 $354 $521 #
straight-curve $-1 -0.007213600000000004904 -0.00622300000000000457 0 0 0 -1 I I #
coedge $-1 $378 $356 $522 $523 reversed $52 $-1 #
coedge $-1 $395 $390 $356 $439 reversed $230 $-1 #
edge $-1 $443 -0.2661823412906217934 $524 -0.171476597245957707 $356 $525 forward 7 unknown #
coedge $-1 $526 $357 $360 $446 forward $442 $-1 #
coedge $-1 $357 $526 $395 $484 reversed $442 $-1 #
loop $-1 $-1 $357 $398 #
vertex $-1 $358 $527 #
ellipse-curve $-1 0.01365952339663100042 -0.0386333999999999983 -0.0026670000000000001 0 0 1 0.004445000000000000166 0 0 1 I I #
coedge $-1 $360 $359 $528 $529 forward $361 $-1 #
edge $-1 $362 0.0026670000000000001 $530 0.005714999999999999594 $440 $531 forward 7 unknown #
face $-1 $366 $361 $2 $-1 $532 reversed single #
point $-1 0.01365952339663100042 -0.0430784000000000028 -0.0026670000000000001 #
coedge $-1 $368 $528 $364 $450 reversed $294 $-1 #
edge $-1 $370 -2.268928027592627572 $451 -1.570796326794896558 $449 $533 forward 7 unknown #
vertex $-1 $529 $534 #
straight-curve $-1 0.003625285769677999946 -0.0430784000000000028 0 0 0 -1 I I #
cone-surface $-1 0.003625285769677999946 -0.03703320000000000223 0 0 0 -1 0.006045199999999999706 0 0 1 I I 0 1 0.006045199999999999706 forward I I I I #
straight-curve $-1 -0.008669268227352800588 -0.03460829242107281434 -0.005714999999999999594 -0.7660444431189786796 0.6427876096865386968 0 I I #
point $-1 -0.0002604938883990636118 -0.04166409186754285038 -0.005714999999999999594 #
coedge $-1 $402 $375 $409 $497 forward $294 $-1 #
coedge $-1 $535 $536 $520 $537 reversed $376 $-1 #
face $-1 $538 $539 $2 $-1 $540 reversed single #
loop $-1 $541 $542 $377 #
plane-surface $-1 0.01365952339663100042 0.0005333999999999999549 -0.005714999999999999594 0 0 1 1 0 0 forward_v I I I I #
coedge $-1 $543 $544 $378 $462 forward $545 $-1 #
edge $-1 $466 -3.141592653589793116 $546 -1.570796326794901221 $378 $547 forward 7 unknown #
coedge $-1 $548 $379 $544 $549 reversed $465 $-1 #
coedge $-1 $379 $548 $381 $469 forward $465 $-1 #
loop $-1 $-1 $463 $550 #
vertex $-1 $462 $551 #
straight-curve $-1 0.01427480000000000068 -0.01263650000000000016 -0.0026670000000000001 0 -1 0 I I #
coedge $-1 $382 $381 $552 $553 reversed $383 $-1 #
edge $-1 $554 0 $384 0.0026670000000000001 $464 $555 forward 7 unknown #
face $-1 $388 $383 $2 $-1 $556 forward single #
point $-1 0.01427480000000000068 -0.006731000000000000004 -0.0026670000000000001 #
coedge $-1 $552 $391 $386 $473 reversed $480 $-1 #
edge $-1 $474 -0.0001587503145025013357 $393 0.00399280415024539509 $472 $557 reversed 7 unknown #
vertex $-1 $473 $558 #
straight-curve $-1 0.0154178000000000006 -0.005588000000000000085 0 0 0 -1 I I #
plane-surface $-1 0.01749357723237400172 -0.005588000000000000085 0 0 1 0 0 0 1 forward_v I I I I #
coedge $-1 $559 $522 $390 $478 reversed $539 $-1 #
edge $-1 $481 0 $524 0.0026670000000000001 $477 $560 forward 7 unknown #
coedge $-1 $391 $561 $559 $562 forward $480 $-1 #
loop $-1 $563 $479 $564 #
vertex $-1 $562 $565 #
ellipse-curve $-1 -0.05816600000000000242 -0.01905000000000000096 0 0 0 1 0.07889240000000000141 0 0 1 I I #
point $-1 0.01956935446474789703 -0.005587999999999999218 0 #
edge $-1 $443 0.0026670000000000001 $486 0.005714999999999999594 $395 $566 forward 7 unknown #
coedge $-1 $528 $396 $526 $567 reversed $294 $-1 #
vertex $-1 $397 $568 #
ellipse-curve $-1 -0.05816600000000000242 -0.01905000000000000096 -0.005714999999999999594 0 0 1 0.07889240000000000141 0 0 1 I I #
cone-surface $-1 0.01365952339663100042 -0.0386333999999999983 0 0 0 -1 0.004445000000000000166 0 0 1 I I 0 1 0.004445000000000000166 forward I I I I #
edge $-1 $498 -1.570796326794897002 $435 -8.986342084421918015e-16 $434 $569 reversed 7 unknown #
straight-curve $-1 -0.007213599999999998832 -4.44499999999895879e-05 -0.005714999999999999594 1.000000000000000078e-15 1 -0 I I #
face $-1 $570 $571 $2 $-1 $572 reversed single #
loop $-1 $-1 $573 $405 #
plane-surface $-1 -0.003810000000000000019 -0.009207500000000000406 -0.003174999999999999871 -2.000000000000000155e-15 0 1 1 0 2.000000000000000155e-15 forward_v I I I I #
loop $-1 $-1 $574 $319 #
coedge $-1 $495 $495 $408 $496 reversed $406 $-1 #
edge $-1 $575 -6.283185307179586232 $575 -0 $408 $576 reversed 7 unknown #
edge $-1 $413 -0.01530701169831550149 $498 -0.01203041169831550045 $409 $577 forward 7 unknown #
vertex $-1 $410 $578 #
straight-curve $-1 -0.01203959999999999926 -0.01104899999999999979 0 0 0 -1 I I #
ellipse-curve $-1 -0.0153162000000000003 -0.01582420000000000007 -0.005714999999999999594 -0 -0 -1 0.004775200000000000278 0 0 1 I I #
point $-1 -0.0153162000000000003 -0.01104899999999999979 -0.005714999999999999594 #
coedge $-1 $502 $502 $418 $503 forward $579 $-1 #
edge $-1 $580 0 $580 6.283185307179586232 $418 $581 forward 7 unknown #
loop $-1 $582 $419 $583 #
vertex $-1 $420 $584 #
ellipse-curve $-1 0.01336039999999999971 -0.03759200000000000041 -0.002666999999999974946 0 0 1 0.004155439999999233081 0 0 1 I I #
loop $-1 $-1 $585 $508 #
face $-1 $586 $421 $2 $-1 $587 reversed single #
point $-1 0.01751584000000000127 -0.000507999999999999988 -0.0026670000000000001 #
coedge $-1 $510 $510 $588 $589 reversed $424 $-1 #
cone-surface $-1 0.003810000000000000019 -0.005969000000000000347 0.9938461718286210056 0 0 1 1.191753592594207989 0 0 1 I I 0.7660444431189775694 0.642787609686539807 1.191753592594207989 forward I I I I #
coedge $-1 $512 $512 $427 $513 forward $590 $-1 #
edge $-1 $591 -6.283185307179586232 $591 -0 $427 $592 reversed 7 unknown #
loop $-1 $294 $429 $377 #
vertex $-1 $430 $593 #
ellipse-curve $-1 0 0 -0.005714999999999999594 -0 -0 -1 0.001587499999999999935 0 0 1 I I #
face $-1 $594 $595 $2 $-1 $596 reversed single #
loop $-1 $-1 $597 $431 #
plane-surface $-1 0.01503679999999999947 -0.01905000000000000096 0 -1 0 0 0 0 1 forward_v I I I I #
coedge $-1 $598 $599 $457 $537 forward $432 $-1 #
point $-1 -0.007213599999999998832 -0.00622300000000000457 -0.005714999999999999594 #
coedge $-1 $477 $600 $437 $523 forward $539 $-1 #
edge $-1 $546 0.01269081138381306095 $524 0.01684236584856096258 $437 $601 reversed 7 unknown #
vertex $-1 $439 $602 #
ellipse-curve $-1 -0.05816600000000000242 -0.01905000000000000096 -0.0026670000000000001 0 0 1 0.07889240000000000141 0 0 1 I I #
coedge $-1 $441 $440 $485 $567 forward $442 $-1 #
point $-1 0.0179479800989204713 -0.03980265793244626427 -0.0026670000000000001 #
coedge $-1 $449 $485 $445 $529 reversed $294 $-1 #
edge $-1 $451 -0.007525678220215000803 $530 0.002508559406737999667 $528 $603 reversed 7 unknown #
vertex $-1 $567 $604 #
straight-curve $-1 0.01365952339663100042 -0.0430784000000000028 0 0 0 -1 I I #
plane-surface $-1 0.008642404583154999348 -0.0430784000000000028 0 0 1 0 0 0 1 forward_v I I I I #
ellipse-curve $-1 0.003625285769677999946 -0.03703320000000000223 -0.005714999999999999594 0 0 1 0.006045199999999999706 0 0 1 I I #
point $-1 0.003625285769677999946 -0.0430784000000000028 -0.005714999999999999594 #
coedge $-1 $605 $457 $606 $607 reversed $376 $-1 #
coedge $-1 $457 $605 $608 $609 forward $376 $-1 #
edge $-1 $610 0 $611 3.141592653589793116 $520 $612 forward 7 unknown #
face $-1 $550 $545 $2 $-1 $613 forward single #
loop $-1 $-1 $477 $458 #
plane-surface $-1 0.01749357723237400172 -0.03251199999999999923 0 4.999999999999999994e-15 1 0 0 0 1 forward_v I I I I #
loop $-1 $614 $615 $377 #
coedge $-1 $542 $542 $574 $616 forward $459 $-1 #
coedge $-1 $617 $461 $600 $618 reversed $545 $-1 #
coedge $-1 $461 $617 $463 $549 forward $545 $-1 #
loop $-1 $-1 $543 $538 #
vertex $-1 $523 $619 #
ellipse-curve $-1 0.0154178000000000006 -0.03136900000000000105 -0.0026670000000000001 0 0 1 0.001142999999999999919 0 0 1 I I #
coedge $-1 $464 $463 $620 $621 forward $465 $-1 #
edge $-1 $622 0 $466 0.0026670000000000001 $544 $623 forward 7 unknown #
face $-1 $470 $465 $2 $-1 $624 forward single #
point $-1 0.01427480000000000068 -0.03136900000000000105 -0.0026670000000000001 #
coedge $-1 $620 $472 $468 $553 forward $480 $-1 #
edge $-1 $474 1.570796326794896558 $554 3.141592653589793116 $552 $625 forward 7 unknown #
vertex $-1 $553 $626 #
straight-curve $-1 0.01427480000000000068 -0.006731000000000000004 0 0 0 -1 I I #
cone-surface $-1 0.0154178000000000006 -0.006731000000000000004 0 0 0 -1 0.001142999999999999919 0 0 1 I I 0 1 0.001142999999999999919 forward I I I I #
straight-curve $-1 0.01557655031450250194 -0.005588000000000000085 0 -1 0 0 I I #
point $-1 0.0154178000000000006 -0.005588000000000000085 0 #
coedge $-1 $600 $477 $479 $562 reversed $539 $-1 #
straight-curve $-1 0.01956935446474788315 -0.03251200000000001311 0 0 0 -1 I I #
coedge $-1 $479 $620 $617 $627 forward $480 $-1 #
edge $-1 $628 -0.0001587503145024232731 $481 0.003992804150245478356 $479 $629 reversed 7 unknown #
loop $-1 $-1 $630 $564 #
face $-1 $377 $480 $2 $-1 $631 forward single #
point $-1 0.01956935446474789703 -0.03251200000000000617 0 #
straight-curve $-1 0.01794798009892047824 -0.03980265793244626427 0 0 0 -1 I I #
edge $-1 $530 -1.570796326794896558 $486 -0.2661823412906204611 $485 $632 forward 7 unknown #
point $-1 0.01794798009892054763 -0.03980265793244627814 -0.005714999999999999594 #
ellipse-curve $-1 -0.01203959999999999926 -0.006223000000000000233 -0.005714999999999999594 -0 -0 -1 0.004826000000000000428 0 0 1 I I #
face $-1 $633 $634 $2 $-1 $635 reversed single #
loop $-1 $636 $637 $491 #
cone-surface $-1 -0.003810000000000000019 -0.009207500000000000406 -0.005714999999999999594 -2.000000000000000155e-15 0 1 0.001587499999999999935 0 3.175000000000000054e-18 1 I I 0 1 0.001587499999999999935 forward I I I I #
coedge $-1 $573 $573 $637 $638 forward $492 $-1 #
coedge $-1 $574 $574 $542 $616 reversed $494 $-1 #
vertex $-1 $496 $639 #
ellipse-curve $-1 0.003809999999999994814 -0.02889250000000000151 -0.003174999999999999871 -2.000000000000000155e-15 0 1 0.001587499999999999935 0 3.175000000000000054e-18 1 I I #
straight-curve $-1 -9.188301684499682043e-06 -0.01104899999999999979 -0.005714999999999999594 1 0 0 I I #
point $-1 -0.012039600000000001 -0.01104899999999999979 -0.005714999999999999594 #
loop $-1 $640 $502 $633 #
vertex $-1 $503 $641 #
ellipse-curve $-1 -0.003810000000000000019 -0.03213099999999999984 -0.002666999999999974946 0 0 1 0.004155439999999455125 0 0 1 I I #
loop $-1 $-1 $642 $583 #
face $-1 $643 $504 $2 $-1 $644 reversed single #
point $-1 0.01751584000000000127 -0.03759200000000000041 -0.0026670000000000001 #
coedge $-1 $585 $585 $645 $646 reversed $507 $-1 #
face $-1 $425 $647 $2 $-1 $648 reversed single #
cone-surface $-1 0.01336039999999999971 -0.000507999999999999988 0.9938461718286210056 0 0 1 1.191753592594207989 0 0 1 I I 0.7660444431189775694 0.642787609686539807 1.191753592594207989 forward I I I I #
coedge $-1 $588 $588 $510 $589 forward $647 $-1 #
edge $-1 $649 0 $649 6.283185307179586232 $588 $650 forward 7 unknown #
loop $-1 $514 $512 $377 #
vertex $-1 $513 $651 #
ellipse-curve $-1 0.00698499999999999989 -0.03810000000000000192 -0.005714999999999999594 -0 -0 -1 0.001587499999999999935 0 0 1 I I #
point $-1 0.001587499999999999935 0 -0.005714999999999999594 #
face $-1 $564 $652 $2 $-1 $653 forward single #
loop $-1 $-1 $654 $517 #
cone-surface $-1 0.01630679999999999977 -0.007620000000000000037 0 0 0 -1 0.001270000000000000078 0 0 1 I I 0 1 0.001270000000000000078 forward I I I I #
coedge $-1 $655 $608 $656 $657 reversed $518 $-1 #
coedge $-1 $658 $520 $659 $660 reversed $432 $-1 #
coedge $-1 $520 $658 $661 $662 forward $432 $-1 #
coedge $-1 $522 $559 $543 $618 forward $539 $-1 #
straight-curve $-1 0.002726988616186935312 -0.03251199999999992291 -0.0026670000000000001 -1 4.999999999999999994e-15 0 I I #
point $-1 0.01956935446474789703 -0.03251200000000001311 -0.0026670000000000001 #
straight-curve $-1 0.01115096398989300075 -0.0430784000000000028 -0.005714999999999999594 -1 0 0 I I #
point $-1 0.01365952339663100042 -0.04307839999999999586 -0.005714999999999999594 #
coedge $-1 $536 $535 $654 $663 reversed $376 $-1 #
coedge $-1 $661 $664 $535 $607 forward $652 $-1 #
edge $-1 $665 -0.00163830000000000052 $610 0.02122169999999999959 $606 $666 reversed 7 unknown #
coedge $-1 $597 $659 $536 $609 reversed $518 $-1 #
edge $-1 $667 -0.00163830000000000052 $611 0.02122169999999999959 $608 $668 reversed 7 unknown #
vertex $-1 $537 $669 #
vertex $-1 $537 $670 #
ellipse-curve $-1 0.01630679999999999977 -0.03048000000000000015 -0.005714999999999999594 -0 -0 -1 0.001270000000000000078 0 0 1 I I #
cone-surface $-1 0.0154178000000000006 -0.03136900000000000105 0 0 0 -1 0.001142999999999999919 0 0 1 I I 0 1 0.001142999999999999919 forward I I I I #
loop $-1 $671 $672 $377 #
coedge $-1 $615 $615 $673 $674 forward $541 $-1 #
edge $-1 $675 -6.283185307179586232 $675 -0 $574 $676 reversed 7 unknown #
coedge $-1 $544 $543 $561 $627 reversed $545 $-1 #
edge $-1 $628 0 $546 0.0026670000000000001 $600 $677 forward 7 unknown #
point $-1 0.0154177999999999954 -0.03251199999999998536 -0.0026670000000000001 #
coedge $-1 $561 $552 $548 $621 reversed $480 $-1 #
edge $-1 $622 -0.02211070000000000049 $554 0.002527300000000000553 $620 $678 reversed 7 unknown #
vertex $-1 $621 $679 #
straight-curve $-1 0.01427480000000000068 -0.03136900000000000105 0 0 0 -1 I I #
plane-surface $-1 0.01427480000000000068 -0.01905000000000000096 0 -1 0 0 0 0 1 forward_v I I I I #
ellipse-curve $-1 0.0154178000000000006 -0.006731000000000000004 0 0 0 1 0.001142999999999999919 0 0 1 I I #
point $-1 0.01427480000000000068 -0.006731000000000000004 0 #
edge $-1 $622 -3.141592653589793116 $628 -1.570796326794901221 $561 $680 forward 7 unknown #
vertex $-1 $562 $681 #
straight-curve $-1 0.01557655031450241867 -0.03251199999999998536 0 -1 4.999999999999999994e-15 0 I I #
coedge $-1 $682 $683 $684 $685 reversed $563 $-1 #
plane-surface $-1 0.01365952339663100042 0.0005333999999999999549 0 0 0 1 1 0 0 forward_v I I I I #
ellipse-curve $-1 0.01365952339663100042 -0.0386333999999999983 -0.005714999999999999594 0 0 1 0.004445000000000000166 0 0 1 I I #
face $-1 $686 $579 $2 $-1 $687 reversed single #
loop $-1 $688 $689 $570 #
cone-surface $-1 -0.003810000000000000019 -0.03213099999999999984 -0.0026670000000000001 0 0 -1 0.002146299999999999857 0 0 1 I I 0 1 0.002146299999999999857 forward I I I I #
loop $-1 $-1 $673 $491 #
coedge $-1 $637 $637 $573 $638 reversed $571 $-1 #
edge $-1 $690 -3.141592653589793116 $690 3.141592653589793116 $573 $691 reversed 7 unknown #
point $-1 0.005397500000000000388 -0.02889250000000000151 -0.003174999999999999871 #
loop $-1 $-1 $692 $633 #
point $-1 0.0003454400000000000266 -0.03213099999999999984 -0.0026670000000000001 #
coedge $-1 $642 $642 $693 $694 reversed $582 $-1 #
face $-1 $508 $695 $2 $-1 $696 reversed single #
cone-surface $-1 0.01336039999999999971 -0.03759200000000000041 0.9938461718286210056 0 0 1 1.191753592594207989 0 0 1 I I 0.7660444431189775694 0.642787609686539807 1.191753592594207989 forward I I I I #
coedge $-1 $645 $645 $585 $646 forward $695 $-1 #
edge $-1 $697 0 $697 6.283185307179586232 $645 $698 forward 7 unknown #
loop $-1 $699 $588 $586 #
cone-surface $-1 0.003810000000000000019 -0.005969000000000000347 -0.0026670000000000001 0 0 -1 0.002146299999999999857 0 0 1 I I 0 1 0.002146299999999999857 forward I I I I #
vertex $-1 $589 $700 #
ellipse-curve $-1 0.003810000000000000019 -0.005969000000000000347 -0.004352868632983999606 0 0 1 0.002146299999999999857 0 0 1 I I #
point $-1 0.008572500000000000259 -0.03810000000000000192 -0.005714999999999999594 #
loop $-1 $-1 $606 $594 #
plane-surface $-1 0.01757680000000000006 -0.01905000000000000096 0 -1 0 0 0 0 1 forward_v I I I I #
coedge $-1 $701 $656 $605 $663 forward $595 $-1 #
coedge $-1 $659 $597 $702 $703 reversed $518 $-1 #
coedge $-1 $654 $704 $597 $657 forward $595 $-1 #
edge $-1 $705 0 $667 0.005714999999999999594 $597 $706 forward 7 unknown #
coedge $-1 $599 $598 $682 $707 reversed $432 $-1 #
coedge $-1 $608 $655 $598 $660 forward $518 $-1 #
edge $-1 $708 0 $611 0.005714999999999999594 $598 $709 forward 7 unknown #
coedge $-1 $684 $606 $599 $662 reversed $652 $-1 #
edge $-1 $710 0 $610 0.005714999999999999594 $599 $711 forward 7 unknown #
edge $-1 $667 -3.141592653589793116 $665 0 $654 $712 forward 7 unknown #
coedge $-1 $606 $684 $701 $713 forward $652 $-1 #
vertex $-1 $663 $714 #
straight-curve $-1 0.01757680000000000006 -0.009258300000000000557 -0.005714999999999999594 0 1 -0 I I #
vertex $-1 $657 $715 #
straight-curve $-1 0.01503679999999999947 -0.009258300000000000557 -0.005714999999999999594 0 1 -0 I I #
point $-1 0.01757680000000000006 -0.03048000000000000015 -0.005714999999999999594 #
point $-1 0.01503679999999999947 -0.03048000000000000015 -0.005714999999999999594 #
loop $-1 $716 $717 $377 #
coedge $-1 $672 $672 $718 $719 forward $614 $-1 #
coedge $-1 $673 $673 $615 $674 reversed $636 $-1 #
edge $-1 $720 -6.283185307179586232 $720 -0 $673 $721 reversed 7 unknown #
vertex $-1 $616 $722 #
ellipse-curve $-1 0.003810000000000000019 -0.02889250000000000151 -0.005715000000000019544 -0 -0 -1 0.001587499999999999935 0 3.175000000000000054e-18 1 I I #
straight-curve $-1 0.0154177999999999954 -0.03251199999999998536 0 0 0 -1 I I #
straight-curve $-1 0.01427480000000000068 -0.009258300000000000557 0 0 -1 0 I I #
point $-1 0.01427480000000000068 -0.03136900000000000105 0 #
ellipse-curve $-1 0.0154178000000000006 -0.03136900000000000105 0 0 0 1 0.001142999999999999919 0 0 1 I I #
point $-1 0.0154177999999999954 -0.03251199999999998536 0 #
coedge $-1 $702 $630 $658 $707 forward $563 $-1 #
coedge $-1 $630 $702 $704 $723 reversed $563 $-1 #
coedge $-1 $664 $661 $630 $685 forward $652 $-1 #
edge $-1 $710 -0.02122169999999999959 $724 0.00163830000000000052 $684 $725 forward 7 unknown #
face $-1 $583 $726 $2 $-1 $727 reversed single #
cone-surface $-1 -0.003810000000000000019 -0.03213099999999999984 0.9938461718286210056 0 0 1 1.191753592594207989 0 0 1 I I 0.7660444431189775694 0.642787609686539918 1.191753592594207989 forward I I I I #
loop $-1 $-1 $718 $570 #
coedge $-1 $689 $689 $692 $728 forward $634 $-1 #
vertex $-1 $638 $729 #
ellipse-curve $-1 -0.003810000000000005223 -0.009207500000000000406 -0.003174999999999999871 -2.000000000000000155e-15 0 1 0.001587499999999999935 0 3.175000000000000054e-18 1 I I #
coedge $-1 $692 $692 $689 $728 reversed $640 $-1 #
coedge $-1 $693 $693 $642 $694 forward $726 $-1 #
edge $-1 $730 0 $730 6.283185307179586232 $693 $731 forward 7 unknown #
loop $-1 $732 $645 $643 #
cone-surface $-1 0.01336039999999999971 -0.000507999999999999988 -0.0026670000000000001 0 0 -1 0.002146299999999999857 0 0 1 I I 0 1 0.002146299999999999857 forward I I I I #
vertex $-1 $646 $733 #
ellipse-curve $-1 0.01336039999999999971 -0.000507999999999999988 -0.004352868632983999606 0 0 1 0.002146299999999999857 0 0 1 I I #
loop $-1 $-1 $734 $586 #
point $-1 0.00595630000000000031 -0.005969000000000000347 -0.004352868632983999606 #
coedge $-1 $704 $654 $664 $713 reversed $595 $-1 #
coedge $-1 $683 $682 $655 $703 forward $563 $-1 #
edge $-1 $708 -0.02122169999999999959 $705 0.00163830000000000052 $655 $735 forward 7 unknown #
coedge $-1 $656 $701 $683 $723 forward $595 $-1 #
vertex $-1 $657 $736 #
straight-curve $-1 0.01503679999999999947 -0.007620000000000000037 0 0 0 -1 I I #
edge $-1 $710 0 $708 3.141592653589793116 $658 $737 forward 7 unknown #
vertex $-1 $660 $738 #
straight-curve $-1 0.01503679999999999947 -0.03048000000000000015 0 0 0 -1 I I #
vertex $-1 $707 $739 #
straight-curve $-1 0.01757680000000000006 -0.03048000000000000015 0 0 0 -1 I I #
ellipse-curve $-1 0.01630679999999999977 -0.007620000000000000037 -0.005714999999999999594 -0 -0 -1 0.001270000000000000078 0 0 1 I I #
edge $-1 $724 0 $665 0.005714999999999999594 $701 $740 forward 7 unknown #
point $-1 0.01757680000000000006 -0.007620000000000000037 -0.005714999999999999594 #
point $-1 0.01503679999999999947 -0.007620000000000000037 -0.005714999999999999594 #
loop $-1 $741 $742 $377 #
coedge $-1 $717 $717 $743 $744 forward $671 $-1 #
coedge $-1 $718 $718 $672 $719 reversed $688 $-1 #
edge $-1 $745 -6.283185307179586232 $745 -0 $718 $746 reversed 7 unknown #
vertex $-1 $674 $747 #
ellipse-curve $-1 -0.003810000000000000019 -0.009207500000000000406 -0.005715000000000034289 -0 -0 -1 0.001587499999999999935 0 3.175000000000000054e-18 1 I I #
point $-1 0.005397500000000000388 -0.02889250000000000151 -0.005714999999999999594 #
edge $-1 $724 -0 $705 3.141592653589793116 $704 $748 reversed 7 unknown #
vertex $-1 $713 $749 #
straight-curve $-1 0.01757680000000000006 -0.009258300000000000557 0 0 1 -0 I I #
loop $-1 $750 $693 $686 #
cone-surface $-1 0.01336039999999999971 -0.03759200000000000041 -0.0026670000000000001 0 0 -1 0.002146299999999999857 0 0 1 I I 0 1 0.002146299999999999857 forward I I I I #
edge $-1 $751 0 $751 6.283185307179586232 $689 $752 forward 7 unknown #
point $-1 -0.005397500000000000388 -0.009207500000000000406 -0.003174999999999999871 #
vertex $-1 $694 $753 #
ellipse-curve $-1 0.01336039999999999971 -0.03759200000000000041 -0.004352868632983999606 0 0 1 0.002146299999999999857 0 0 1 I I #
loop $-1 $-1 $754 $643 #
point $-1 0.0155067 -0.000507999999999999988 -0.004352868632983999606 #
coedge $-1 $734 $734 $755 $756 reversed $699 $-1 #
straight-curve $-1 0.01503679999999999947 -0.009258300000000000557 0 0 1 -0 I I #
point $-1 0.01503679999999999947 -0.007620000000000000037 0 #
ellipse-curve $-1 0.01630679999999999977 -0.03048000000000000015 0 -0 -0 -1 0.001270000000000000078 0 0 1 I I #
point $-1 0.01503679999999999947 -0.03048000000000000015 0 #
point $-1 0.01757680000000000006 -0.03048000000000000015 0 #
straight-curve $-1 0.01757680000000000006 -0.007620000000000000037 0 0 0 -1 I I #
loop $-1 $590 $755 $377 #
coedge $-1 $742 $742 $754 $757 forward $716 $-1 #
coedge $-1 $743 $743 $717 $744 reversed $750 $-1 #
edge $-1 $758 -6.283185307179586232 $758 -0 $743 $759 reversed 7 unknown #
vertex $-1 $719 $760 #
ellipse-curve $-1 -0.003810000000000000019 -0.03213099999999999984 -0.005714999999999999594 -0 -0 -1 0.002146299999999999857 0 0 1 I I #
point $-1 -0.002222500000000000083 -0.009207500000000000406 -0.005714999999999999594 #
ellipse-curve $-1 0.01630679999999999977 -0.007620000000000000037 0 -0 -0 -1 0.001270000000000000078 0 0 1 I I #
point $-1 0.01757680000000000006 -0.007620000000000000037 0 #
loop $-1 $-1 $743 $686 #
vertex $-1 $728 $761 #
ellipse-curve $-1 -0.003810000000000000019 -0.03213099999999999984 -0.004352868632983999606 0 0 1 0.002146299999999999857 0 0 1 I I #
point $-1 0.0155067 -0.03759200000000000041 -0.004352868632983999606 #
coedge $-1 $754 $754 $742 $757 reversed $732 $-1 #
coedge $-1 $755 $755 $734 $756 forward $741 $-1 #
edge $-1 $762 -6.283185307179586232 $762 -0 $734 $763 reversed 7 unknown #
edge $-1 $764 -6.283185307179586232 $764 -0 $754 $765 reversed 7 unknown #
vertex $-1 $744 $766 #
ellipse-curve $-1 0.01336039999999999971 -0.03759200000000000041 -0.005714999999999999594 -0 -0 -1 0.002146299999999999857 0 0 1 I I #
point $-1 -0.001663699999999999945 -0.03213099999999999984 -0.005714999999999999594 #
point $-1 -0.001663699999999999945 -0.03213099999999999984 -0.004352868632983999606 #
vertex $-1 $756 $767 #
ellipse-curve $-1 0.003810000000000000019 -0.005969000000000000347 -0.005714999999999999594 -0 -0 -1 0.002146299999999999857 0 0 1 I I #
vertex $-1 $757 $768 #
ellipse-curve $-1 0.01336039999999999971 -0.000507999999999999988 -0.005714999999999999594 -0 -0 -1 0.002146299999999999857 0 0 1 I I #
point $-1 0.0155067 -0.03759200000000000041 -0.005714999999999999594 #
point $-1 0.00595630000000000031 -0.005969000000000000347 -0.005714999999999999594 #
point $-1 0.0155067 -0.000507999999999999988 -0.005714999999999999594 #
End-of-ACIS-data 