700 0 2 0           
24 FBMach with ACIS - 7.0.3 13 ACIS 7.0.3 NT 24 Tue May 14 12:05:02 2002 
1 9.9999999999999995e-007 1e-010 
body $2 -1 $-1 $3 $-1 $4 #
bdycol-kcp $-1 -1 1 2 $5 $6 #
model_id-kcp-attrib $-1 -1 $-1 $-1 $0 1 1021392302 1021392302 982777857 1 #
lump $-1 -1 $-1 $-1 $7 $0 #
transform $-1 -1 1.0000000000000002 0 0 0 1.0000000000000002 0 0 0 1 0 0 0 1 rotate no_reflect no_shear #
body $8 -1 $-1 $9 $-1 $10 #
body $11 -1 $-1 $12 $-1 $13 #
shell $-1 -1 $-1 $-1 $-1 $14 $-1 $3 #
model_id-kcp-attrib $-1 -1 $-1 $-1 $5 1 1021392302 1021392302 982777858 1 #
lump $-1 -1 $-1 $-1 $15 $5 #
transform $-1 -1 1 0 0 0 1 0 0 0 1 1.0615931240287506 -0.097862093416406448 0 1 no_rotate no_reflect no_shear #
rgb_color-st-attrib $-1 -1 $16 $-1 $6 0.5 1 1 #
lump $-1 -1 $-1 $-1 $17 $6 #
transform $-1 -1 1 0 0 0 1 0 0 0 1 0 0 0 1 no_rotate no_reflect no_shear #
face $18 -1 $-1 $19 $20 $7 $-1 $21 reversed single #
shell $-1 -1 $-1 $-1 $-1 $22 $-1 $9 #
model_id-kcp-attrib $-1 -1 $-1 $11 $6 1 1021392302 1021392302 985399299 1 #
shell $-1 -1 $-1 $-1 $-1 $23 $-1 $12 #
model_id-kcp-attrib $-1 -1 $24 $-1 $14 1 1021392302 1021392302 982777857 2 #
face $25 -1 $-1 $26 $27 $7 $-1 $28 forward single #
loop $29 -1 $-1 $30 $31 $14 #
plane-surface $32 -1 $-1 0 0 -0.3125 0 0 1 1 0 0 forward_v I I I I #
face $33 -1 $-1 $34 $35 $15 $-1 $36 forward single #
face $-1 -1 $-1 $37 $38 $17 $-1 $39 forward single #
face_name-twe-attrib $-1 -1 $-1 $18 $14 1 #
model_id-kcp-attrib $-1 -1 $40 $-1 $19 1 1021392302 1021392302 982777857 3 #
face $41 -1 $-1 $42 $43 $7 $-1 $44 reversed single #
loop $45 -1 $-1 $46 $47 $19 #
plane-surface $48 -1 $-1 0 0 0.3125 0 0 1 1 0 0 forward_v I I I I #
loop_type-twe-attrib $-1 -1 $-1 $-1 $20 1 #
loop $49 -1 $-1 $-1 $50 $14 #
coedge $-1 -1 $-1 $31 $31 $51 $52 forward $20 $-1 #
surf-twe-attrib $-1 -1 $-1 $-1 $21 4 #
model_id-kcp-attrib $-1 -1 $-1 $-1 $22 1 1021392302 1021392302 982777858 3 #
face $53 -1 $-1 $54 $55 $15 $-1 $56 reversed single #
loop $-1 -1 $-1 $-1 $57 $22 #
plane-surface $-1 -1 $-1 0 0 0.3125 0 0 1 1 0 0 forward_v I I I I #
face $-1 -1 $-1 $58 $59 $17 $-1 $60 forward single #
loop $-1 -1 $-1 $61 $62 $23 #
cone-surface $-1 -1 $-1 0 0 0 0 0 1 0.09375 0 0 1 I I 0 1 0.09375 forward I I I I #
face_name-twe-attrib $-1 -1 $-1 $25 $19 2 #
model_id-kcp-attrib $-1 -1 $63 $-1 $26 1 1021392302 1021392302 982777857 4 #
face $64 -1 $-1 $65 $66 $7 $-1 $44 reversed single #
loop $67 -1 $-1 $68 $69 $26 #
cone-surface $70 -1 $-1 0 0 -0.3125 0 0 1 0.09375 0 0 1 I I 0 1 0.09375 forward I I I I #
loop_type-twe-attrib $-1 -1 $-1 $-1 $27 1 #
loop $71 -1 $-1 $-1 $72 $19 #
coedge $-1 -1 $-1 $47 $47 $69 $73 reversed $27 $-1 #
surf-twe-attrib $-1 -1 $-1 $-1 $28 6 #
loop_type-twe-attrib $-1 -1 $-1 $-1 $30 0 #
coedge $-1 -1 $-1 $74 $75 $76 $77 forward $30 $-1 #
coedge $-1 -1 $-1 $51 $51 $31 $52 reversed $78 $-1 #
edge $79 -1 $-1 $80 -3.1415926535897931 $80 3.1415926535897931 $51 $81 forward @7 unknown #
model_id-kcp-attrib $-1 -1 $-1 $-1 $34 1 1021392302 1021392302 982777858 2 #
face $-1 -1 $-1 $82 $83 $15 $-1 $84 reversed single #
loop $-1 -1 $-1 $-1 $85 $34 #
plane-surface $-1 -1 $-1 0 0 -0.3125 0 0 1 1 0 0 forward_v I I I I #
coedge $-1 -1 $-1 $86 $87 $88 $89 forward $35 $-1 #
face $-1 -1 $-1 $-1 $90 $17 $-1 $91 forward single #
loop $-1 -1 $-1 $-1 $92 $37 #
plane-surface $-1 -1 $-1 0 0 -0.3125 0 0 -1 -1 0 0 forward_v I I I I #
loop $-1 -1 $-1 $-1 $93 $23 #
coedge $-1 -1 $-1 $62 $62 $94 $95 reversed $38 $-1 #
face_name-twe-attrib $-1 -1 $-1 $41 $26 3 #
model_id-kcp-attrib $-1 -1 $96 $-1 $42 1 1021392302 1021392302 982777857 5 #
face $97 -1 $-1 $98 $99 $7 $-1 $100 forward single #
loop $101 -1 $-1 $78 $102 $42 #
loop_type-twe-attrib $-1 -1 $-1 $-1 $43 0 #
loop $103 -1 $-1 $-1 $104 $26 #
coedge $-1 -1 $-1 $69 $69 $47 $73 forward $43 $-1 #
surf-twe-attrib $-1 -1 $105 $-1 $44 18 #
loop_type-twe-attrib $-1 -1 $-1 $-1 $46 0 #
coedge $-1 -1 $-1 $106 $107 $108 $109 reversed $46 $-1 #
edge $110 -1 $-1 $111 0 $111 6.2831853071795862 $69 $112 forward @7 unknown #
coedge $-1 -1 $-1 $113 $50 $114 $115 reversed $30 $-1 #
coedge $-1 -1 $-1 $50 $116 $117 $118 forward $30 $-1 #
coedge $-1 -1 $-1 $119 $120 $50 $77 reversed $121 $-1 #
edge $122 -1 $-1 $123 -2.4198862215619092 $124 -5.6861772742016686e-017 $76 $125 forward @7 unknown #
loop $126 -1 $-1 $-1 $51 $42 #
attrib_edge_convexity-kcp-attrib $-1 -1 $127 $-1 $52 1 #
vertex $-1 -1 $-1 $52 $128 #
ellipse-curve $129 -1 $-1 0 0 -0.3125 0 0 1 -0.09375 0 0 1 I I #
face $-1 -1 $-1 $130 $131 $15 $-1 $132 reversed single #
loop $-1 -1 $-1 $-1 $133 $54 #
plane-surface $-1 -1 $-1 0 -0.34786209341640645 0 0 1 0 0 0 1 forward_v I I I I #
coedge $-1 -1 $-1 $134 $135 $136 $137 forward $55 $-1 #
coedge $-1 -1 $-1 $138 $57 $139 $140 forward $35 $-1 #
coedge $-1 -1 $-1 $57 $138 $141 $142 forward $35 $-1 #
coedge $-1 -1 $-1 $143 $144 $57 $89 reversed $145 $-1 #
edge $-1 -1 $-1 $146 -0.34786209341640645 $147 0.34786209341640645 $88 $148 forward @7 unknown #
loop $-1 -1 $-1 $-1 $94 $58 #
plane-surface $-1 -1 $-1 0 0 0.3125 0 0 1 1 0 0 forward_v I I I I #
coedge $-1 -1 $-1 $92 $92 $93 $149 forward $59 $-1 #
coedge $-1 -1 $-1 $93 $93 $92 $149 reversed $61 $-1 #
coedge $-1 -1 $-1 $94 $94 $62 $95 forward $90 $-1 #
edge $-1 -1 $-1 $150 0 $150 6.2831853071795862 $94 $151 forward @7 unknown #
face_name-twe-attrib $-1 -1 $152 $64 $42 4 #
model_id-kcp-attrib $-1 -1 $153 $-1 $65 1 1021392302 1021392302 982777857 6 #
face $154 -1 $-1 $155 $156 $7 $-1 $157 forward single #
loop $158 -1 $-1 $-1 $159 $65 #
plane-surface $160 -1 $-1 0.33750000000000002 0.25 -0.3125 0 1 0 0 0 1 forward_v I I I I #
loop_type-twe-attrib $-1 -1 $-1 $-1 $66 0 #
coedge $-1 -1 $-1 $102 $102 $161 $162 reversed $66 $-1 #
loop_type-twe-attrib $-1 -1 $-1 $-1 $68 1 #
coedge $-1 -1 $-1 $104 $104 $163 $164 forward $68 $-1 #
surf-twe-attrib $-1 -1 $-1 $70 $44 10 #
coedge $-1 -1 $-1 $165 $72 $166 $167 forward $46 $-1 #
coedge $-1 -1 $-1 $72 $168 $169 $170 reversed $46 $-1 #
coedge $-1 -1 $-1 $171 $172 $72 $109 forward $173 $-1 #
edge $174 -1 $-1 $175 -0.086929102425968019 $176 0 $108 $177 forward @7 unknown #
attrib_edge_convexity-kcp-attrib $-1 -1 $178 $-1 $73 1 #
vertex $-1 -1 $-1 $73 $179 #
ellipse-curve $180 -1 $-1 0 0 0.3125 0 0 1 0.09375 0 0 1 I I #
coedge $-1 -1 $-1 $181 $74 $182 $183 reversed $30 $-1 #
coedge $-1 -1 $-1 $184 $185 $74 $115 forward $186 $-1 #
edge $187 -1 $-1 $188 -0.25021872411520574 $124 0 $114 $189 forward @7 unknown #
coedge $-1 -1 $-1 $75 $181 $190 $191 forward $30 $-1 #
coedge $-1 -1 $-1 $192 $193 $75 $118 reversed $194 $-1 #
edge $195 -1 $-1 $196 -0.80727460888191538 $123 8.3724501097490355e-015 $117 $197 forward @7 unknown #
coedge $-1 -1 $-1 $198 $76 $193 $199 reversed $121 $-1 #
coedge $-1 -1 $-1 $76 $198 $184 $200 forward $121 $-1 #
loop $201 -1 $-1 $-1 $198 $98 #
attrib_edge_convexity-kcp-attrib $-1 -1 $202 $-1 $77 1 #
vertex $-1 -1 $-1 $118 $203 #
vertex $-1 -1 $-1 $200 $204 #
ellipse-curve $205 -1 $-1 0.019825430278784001 -0.01788500461153 -0.3125 0 0 -1 -0.42746519443554898 0.0178850046115284 0 1 I I #
loop_type-twe-attrib $-1 -1 $-1 $-1 $78 1 #
convexity-sys-attrib $-1 -1 $206 $79 $52 #
point $-1 -1 $-1 0.09375 0 -0.3125 #
cur-twe-attrib $-1 -1 $-1 $-1 $81 28 #
face $207 -1 $-1 $208 $209 $15 $-1 $210 reversed single #
loop $-1 -1 $-1 $-1 $211 $82 #
plane-surface $-1 -1 $-1 -1.4696068759712495 0 0 1 0 0 0 0 -1 forward_v I I I I #
coedge $-1 -1 $-1 $212 $141 $213 $214 forward $83 $-1 #
coedge $-1 -1 $-1 $215 $85 $212 $216 forward $55 $-1 #
coedge $-1 -1 $-1 $85 $215 $217 $218 forward $55 $-1 #
coedge $-1 -1 $-1 $144 $143 $85 $137 reversed $145 $-1 #
edge $-1 -1 $-1 $219 -0.34786209341640645 $220 0.34786209341640645 $136 $221 forward @7 unknown #
coedge $-1 -1 $-1 $87 $86 $222 $223 forward $35 $-1 #
coedge $-1 -1 $-1 $224 $225 $86 $140 reversed $209 $-1 #
edge $-1 -1 $-1 $147 -1.4696068759712495 $226 1.4696068759712495 $139 $227 forward @7 unknown #
coedge $-1 -1 $-1 $133 $228 $87 $142 reversed $83 $-1 #
edge $-1 -1 $-1 $229 -1.4696068759712495 $146 1.4696068759712495 $141 $230 forward @7 unknown #
coedge $-1 -1 $-1 $136 $88 $228 $231 forward $145 $-1 #
coedge $-1 -1 $-1 $88 $136 $224 $232 reversed $145 $-1 #
loop $-1 -1 $-1 $-1 $143 $208 #
vertex $-1 -1 $-1 $89 $233 #
vertex $-1 -1 $-1 $89 $234 #
straight-curve $-1 -1 $-1 1.4696068759712495 0 0.3125 0 1 0 I I #
edge $-1 -1 $-1 $235 0 $235 6.2831853071795862 $92 $236 forward @7 unknown #
vertex $-1 -1 $-1 $95 $237 #
ellipse-curve $-1 -1 $-1 0 0 0.3125 0 0 1 0.09375 0 0 1 I I #
colour-tsl-attrib $-1 -1 $238 $96 $42 1 #
face_name-twe-attrib $-1 -1 $-1 $97 $65 5 #
model_id-kcp-attrib $-1 -1 $239 $-1 $98 1 1021392302 1021392302 982777857 7 #
face $240 -1 $-1 $241 $242 $7 $-1 $243 reversed single #
loop $244 -1 $-1 $121 $245 $98 #
cone-surface $246 -1 $-1 0.019825430278784001 -0.01788500461153 0.3125 0 0 1 0.42783918222128298 0 0 1 I I 0 1 0.42783918222128298 forward I I I I #
loop_type-twe-attrib $-1 -1 $-1 $-1 $99 0 #
coedge $-1 -1 $-1 $182 $247 $248 $249 forward $99 $-1 #
surf-twe-attrib $-1 -1 $-1 $-1 $100 30 #
coedge $-1 -1 $-1 $161 $161 $102 $162 forward $250 $-1 #
edge $251 -1 $-1 $252 -3.1415926535897931 $252 3.1415926535897931 $161 $253 forward @7 unknown #
coedge $-1 -1 $-1 $163 $163 $104 $164 reversed $254 $-1 #
edge $255 -1 $-1 $256 -3.1415926535897931 $256 3.1415926535897931 $163 $257 forward @7 unknown #
coedge $-1 -1 $-1 $258 $106 $259 $260 forward $46 $-1 #
coedge $-1 -1 $-1 $261 $262 $106 $167 reversed $263 $-1 #
edge $264 -1 $-1 $175 -0.55446698868627398 $265 0 $166 $266 forward @7 unknown #
coedge $-1 -1 $-1 $107 $267 $245 $268 reversed $46 $-1 #
coedge $-1 -1 $-1 $269 $270 $107 $170 forward $271 $-1 #
edge $272 -1 $-1 $176 -0.80727460888191538 $273 8.3724501097490355e-015 $169 $274 forward @7 unknown #
coedge $-1 -1 $-1 $275 $108 $270 $276 forward $173 $-1 #
coedge $-1 -1 $-1 $108 $190 $261 $277 forward $173 $-1 #
loop $278 -1 $-1 $-1 $279 $280 #
edge_name-twe-attrib $-1 -1 $-1 $-1 $109 18 8704 #
vertex $-1 -1 $-1 $109 $281 #
vertex $-1 -1 $-1 $276 $282 #
straight-curve $283 -1 $-1 0.35057089757403198 -0.30446698868627398 0.3125 -1 0 0 I I #
convexity-sys-attrib $-1 -1 $284 $110 $73 #
point $-1 -1 $-1 0.09375 0 0.3125 #
cur-twe-attrib $-1 -1 $-1 $-1 $112 38 #
coedge $-1 -1 $-1 $116 $113 $285 $286 forward $30 $-1 #
coedge $-1 -1 $-1 $287 $159 $113 $183 forward $99 $-1 #
edge $288 -1 $-1 $289 -0.83467984552225194 $188 0 $182 $290 forward @7 unknown #
coedge $-1 -1 $-1 $291 $114 $120 $200 reversed $186 $-1 #
coedge $-1 -1 $-1 $114 $291 $287 $292 forward $186 $-1 #
loop $293 -1 $-1 $-1 $291 $241 #
attrib_edge_convexity-kcp-attrib $-1 -1 $294 $-1 $115 1 #
vertex $-1 -1 $-1 $183 $295 #
straight-curve $296 -1 $-1 -0.40763976415676501 -1.6237011735142901e-015 -0.3125 -0.041803101152802301 -0.99912586831390204 0 I I #
coedge $-1 -1 $-1 $172 $297 $116 $191 reversed $173 $-1 #
edge $298 -1 $-1 $299 -0.086929102425968019 $196 0 $190 $300 forward @7 unknown #
coedge $-1 -1 $-1 $301 $117 $297 $302 reversed $194 $-1 #
coedge $-1 -1 $-1 $117 $301 $119 $199 forward $194 $-1 #
loop $303 -1 $-1 $-1 $193 $304 #
attrib_edge_convexity-kcp-attrib $-1 -1 $305 $-1 $118 1 #
vertex $-1 -1 $-1 $118 $306 #
ellipse-curve $307 -1 $-1 0.35057089757403198 -0.334466988686274 -0.3125 0 0 1 -0.021672160016356499 0.020744095068848899 0 1 I I #
coedge $-1 -1 $-1 $120 $119 $308 $309 reversed $121 $-1 #
edge $310 -1 $-1 $311 -0.1875 $123 0 $193 $312 forward @7 unknown #
edge $313 -1 $-1 $314 -0.1875 $124 0 $184 $315 forward @7 unknown #
loop_type-twe-attrib $-1 -1 $-1 $-1 $121 1 #
convexity-sys-attrib $-1 -1 $316 $122 $77 #
point $-1 -1 $-1 0.32889873755767501 -0.313722893617425 -0.3125 #
point $-1 -1 $-1 -0.40763976415676501 -1.6237011735142901e-015 -0.3125 #
cur-twe-attrib $-1 -1 $-1 $-1 $125 42 #
edge_name-twe-attrib $-1 -1 $-1 $127 $52 2 8704 #
model_id-kcp-attrib $-1 -1 $-1 $-1 $130 1 1021392302 1021392302 982777858 4 #
face $317 -1 $-1 $-1 $145 $15 $-1 $318 reversed single #
loop $-1 -1 $-1 $-1 $224 $130 #
plane-surface $-1 -1 $-1 0 0.34786209341640645 0 0 -1 0 0 0 -1 forward_v I I I I #
coedge $-1 -1 $-1 $319 $222 $225 $320 forward $131 $-1 #
coedge $-1 -1 $-1 $228 $133 $134 $216 reversed $83 $-1 #
coedge $-1 -1 $-1 $222 $319 $133 $214 reversed $131 $-1 #
edge $-1 -1 $-1 $229 -0.3125 $321 0.3125 $213 $322 forward @7 unknown #
coedge $-1 -1 $-1 $135 $134 $319 $323 forward $55 $-1 #
edge $-1 -1 $-1 $220 -1.4696068759712495 $321 1.4696068759712495 $212 $324 forward @7 unknown #
coedge $-1 -1 $-1 $225 $224 $135 $218 reversed $209 $-1 #
edge $-1 -1 $-1 $325 -1.4696068759712495 $219 1.4696068759712495 $217 $326 forward @7 unknown #
vertex $-1 -1 $-1 $137 $327 #
vertex $-1 -1 $-1 $231 $328 #
straight-curve $-1 -1 $-1 1.4696068759712495 0 -0.3125 0 -1 0 I I #
coedge $-1 -1 $-1 $211 $213 $138 $223 reversed $131 $-1 #
edge $-1 -1 $-1 $226 -0.34786209341640645 $229 0.34786209341640645 $222 $329 forward @7 unknown #
coedge $-1 -1 $-1 $217 $139 $144 $232 forward $209 $-1 #
coedge $-1 -1 $-1 $139 $217 $211 $320 reversed $209 $-1 #
vertex $-1 -1 $-1 $140 $330 #
straight-curve $-1 -1 $-1 0 0.34786209341640645 0.3125 -1 0 0 I I #
coedge $-1 -1 $-1 $141 $212 $143 $231 reversed $83 $-1 #
vertex $-1 -1 $-1 $223 $331 #
straight-curve $-1 -1 $-1 0 -0.34786209341640645 0.3125 1 0 0 I I #
edge $-1 -1 $-1 $146 -0.3125 $220 0.3125 $143 $332 forward @7 unknown #
edge $-1 -1 $-1 $147 -0.3125 $219 0.3125 $144 $333 forward @7 unknown #
point $-1 -1 $-1 1.4696068759712495 -0.34786209341640645 0.3125 #
point $-1 -1 $-1 1.4696068759712495 0.34786209341640645 0.3125 #
vertex $-1 -1 $-1 $149 $334 #
ellipse-curve $-1 -1 $-1 0 0 -0.3125 0 0 -1 0.09375 0 0 1 I I #
point $-1 -1 $-1 0.09375 0 0.3125 #
colour-tsl-attrib $-1 -1 $-1 $152 $42 1 #
face_name-twe-attrib $-1 -1 $-1 $154 $98 6 #
model_id-kcp-attrib $-1 -1 $335 $-1 $155 1 1021392302 1021392302 982777857 8 #
face $336 -1 $-1 $337 $186 $7 $-1 $243 reversed single #
loop $338 -1 $-1 $-1 $339 $155 #
plane-surface $340 -1 $-1 -0.40763976415676501 -1.0000000000000001e-015 -0.3125 0.99912586831390204 -0.041803101152802002 0 0 0 -1 forward_v I I I I #
loop_type-twe-attrib $-1 -1 $-1 $-1 $156 0 #
coedge $-1 -1 $-1 $341 $342 $168 $268 forward $156 $-1 #
surf-twe-attrib $-1 -1 $-1 $-1 $157 49 #
coedge $-1 -1 $-1 $159 $259 $262 $343 forward $99 $-1 #
coedge $-1 -1 $-1 $344 $285 $159 $249 reversed $263 $-1 #
edge $345 -1 $-1 $346 -0.3125 $289 0 $248 $347 forward @7 unknown #
loop $348 -1 $-1 $349 $161 $350 #
attrib_edge_convexity-kcp-attrib $-1 -1 $351 $-1 $162 1 #
vertex $-1 -1 $-1 $162 $352 #
ellipse-curve $353 -1 $-1 0 0 -0.125 0 0 -1 0.09375 0 0 1 I I #
loop $354 -1 $-1 $355 $163 $356 #
attrib_edge_convexity-kcp-attrib $-1 -1 $357 $-1 $164 1 #
vertex $-1 -1 $-1 $164 $358 #
ellipse-curve $359 -1 $-1 0 0 0.125 0 0 -1 0.09375 0 0 1 I I #
coedge $-1 -1 $-1 $267 $165 $360 $361 forward $46 $-1 #
coedge $-1 -1 $-1 $247 $362 $165 $260 reversed $99 $-1 #
edge $363 -1 $-1 $265 -0.83467984552225194 $364 0 $259 $365 forward @7 unknown #
coedge $-1 -1 $-1 $285 $166 $172 $277 reversed $263 $-1 #
coedge $-1 -1 $-1 $166 $344 $247 $343 reversed $263 $-1 #
loop $366 -1 $-1 $-1 $344 $337 #
edge_name-twe-attrib $-1 -1 $-1 $-1 $167 13 8704 #
vertex $-1 -1 $-1 $343 $367 #
straight-curve $368 -1 $-1 0.4375 0.25 0.3125 0 1 0 I I #
coedge $-1 -1 $-1 $168 $258 $369 $370 forward $46 $-1 #
edge $371 -1 $-1 $273 -2.336255649791712 $372 -9.4769621236694466e-018 $245 $373 forward @7 unknown #
coedge $-1 -1 $-1 $374 $169 $342 $375 forward $271 $-1 #
coedge $-1 -1 $-1 $169 $374 $171 $276 reversed $271 $-1 #
loop $376 -1 $-1 $-1 $269 $377 #
edge_name-twe-attrib $-1 -1 $-1 $-1 $170 44 8704 #
vertex $-1 -1 $-1 $170 $378 #
ellipse-curve $379 -1 $-1 0.35057089757403198 -0.334466988686274 0.3125 0 0 1 -0.021672160016356499 0.020744095068848899 0 1 I I #
coedge $-1 -1 $-1 $279 $171 $380 $381 forward $173 $-1 #
edge $382 -1 $-1 $176 -0.1875 $383 0 $270 $384 forward @7 unknown #
edge $385 -1 $-1 $299 -0.625 $175 0 $172 $386 forward @7 unknown #
loop_type-twe-attrib $-1 -1 $-1 $-1 $173 0 #
coedge $-1 -1 $-1 $387 $275 $388 $389 forward $173 $-1 #
face $390 -1 $-1 $350 $173 $7 $-1 $391 forward single #
point $-1 -1 $-1 0.4375 -0.30446698868627398 0.3125 #
point $-1 -1 $-1 0.35057089757403198 -0.30446698868627398 0.3125 #
cur-twe-attrib $-1 -1 $-1 $-1 $177 60 #
edge_name-twe-attrib $-1 -1 $-1 $178 $73 1 8704 #
coedge $-1 -1 $-1 $248 $261 $181 $286 reversed $263 $-1 #
edge $392 -1 $-1 $289 -0.55446698868627398 $299 0 $285 $393 forward @7 unknown #
coedge $-1 -1 $-1 $394 $182 $185 $292 reversed $99 $-1 #
attrib_edge_convexity-kcp-attrib $-1 -1 $395 $-1 $183 1 #
vertex $-1 -1 $-1 $286 $396 #
straight-curve $397 -1 $-1 -0.397179845522252 0.25 -0.3125 -1 0 0 I I #
coedge $-1 -1 $-1 $185 $184 $398 $399 reversed $186 $-1 #
edge $400 -1 $-1 $401 -0.1875 $188 0 $185 $402 forward @7 unknown #
loop_type-twe-attrib $-1 -1 $-1 $-1 $186 0 #
convexity-sys-attrib $-1 -1 $403 $187 $115 #
point $-1 -1 $-1 -0.397179845522252 0.25 -0.3125 #
cur-twe-attrib $-1 -1 $-1 $-1 $189 66 #
coedge $-1 -1 $-1 $190 $387 $192 $302 forward $173 $-1 #
attrib_edge_convexity-kcp-attrib $-1 -1 $404 $-1 $191 1 #
vertex $-1 -1 $-1 $277 $405 #
straight-curve $406 -1 $-1 0.35057089757403198 -0.30446698868627398 -0.3125 -1 0 0 I I #
coedge $-1 -1 $-1 $193 $192 $407 $408 forward $194 $-1 #
edge $409 -1 $-1 $410 -0.1875 $196 0 $192 $411 forward @7 unknown #
loop_type-twe-attrib $-1 -1 $-1 $-1 $194 0 #
face $412 -1 $-1 $377 $194 $7 $-1 $413 reversed single #
convexity-sys-attrib $-1 -1 $414 $195 $118 #
point $-1 -1 $-1 0.35057089757403198 -0.30446698868627398 -0.3125 #
cur-twe-attrib $-1 -1 $-1 $-1 $197 69 #
coedge $-1 -1 $-1 $407 $398 $198 $309 forward $349 $-1 #
edge $415 -1 $-1 $314 -2.4198862215619106 $311 1.5163139397871122e-016 $308 $416 forward @7 unknown #
edge_name-twe-attrib $-1 -1 $-1 $-1 $199 37 24576 #
vertex $-1 -1 $-1 $408 $417 #
straight-curve $418 -1 $-1 0.32889873755767501 -0.313722893617425 -0.3125 -1.7763568394002501e-015 -8.8817841970012504e-016 -1 I I #
edge_name-twe-attrib $-1 -1 $-1 $-1 $200 11 24576 #
vertex $-1 -1 $-1 $309 $419 #
straight-curve $420 -1 $-1 -0.40763976415676501 -1.6237011735142901e-015 -0.3125 -2.9605947323337501e-016 -3.32640625874289e-015 -1 I I #
edge_name-twe-attrib $-1 -1 $-1 $202 $77 6 8704 #
model_id-kcp-attrib $-1 -1 $-1 $-1 $208 1 1021392302 1021392302 982777858 5 #
plane-surface $-1 -1 $-1 1.4696068759712495 0 0 -1 0 0 0 0 1 forward_v I I I I #
coedge $-1 -1 $-1 $213 $211 $215 $323 reversed $131 $-1 #
edge $-1 -1 $-1 $226 -0.3125 $325 0.3125 $225 $421 forward @7 unknown #
vertex $-1 -1 $-1 $323 $422 #
straight-curve $-1 -1 $-1 -1.4696068759712495 -0.34786209341640645 0 0 0 -1 I I #
edge $-1 -1 $-1 $321 -0.34786209341640645 $325 0.34786209341640645 $319 $423 forward @7 unknown #
straight-curve $-1 -1 $-1 0 -0.34786209341640645 -0.3125 -1 0 0 I I #
vertex $-1 -1 $-1 $218 $424 #
straight-curve $-1 -1 $-1 0 0.34786209341640645 -0.3125 1 0 0 I I #
point $-1 -1 $-1 1.4696068759712495 0.34786209341640645 -0.3125 #
point $-1 -1 $-1 1.4696068759712495 -0.34786209341640645 -0.3125 #
straight-curve $-1 -1 $-1 -1.4696068759712495 0 0.3125 0 -1 0 I I #
point $-1 -1 $-1 -1.4696068759712495 0.34786209341640645 0.3125 #
point $-1 -1 $-1 -1.4696068759712495 -0.34786209341640645 0.3125 #
straight-curve $-1 -1 $-1 1.4696068759712495 -0.34786209341640645 0 0 0 -1 I I #
straight-curve $-1 -1 $-1 1.4696068759712495 0.34786209341640645 0 0 0 -1 I I #
point $-1 -1 $-1 0.09375 0 -0.3125 #
face_name-twe-attrib $-1 -1 $-1 $240 $155 7 #
model_id-kcp-attrib $-1 -1 $425 $-1 $241 1 1021392302 1021392302 982777857 9 #
face $426 -1 $-1 $280 $263 $7 $-1 $427 forward single #
loop_type-twe-attrib $-1 -1 $-1 $-1 $242 0 #
coedge $-1 -1 $-1 $360 $428 $429 $430 reversed $242 $-1 #
surf-twe-attrib $-1 -1 $431 $-1 $243 132 #
coedge $-1 -1 $-1 $432 $245 $433 $434 forward $156 $-1 #
coedge $-1 -1 $-1 $245 $432 $269 $375 reversed $156 $-1 #
edge $435 -1 $-1 $265 -0.3125 $346 0 $262 $436 forward @7 unknown #
coedge $-1 -1 $-1 $262 $248 $437 $438 forward $263 $-1 #
attrib_edge_convexity-kcp-attrib $-1 -1 $439 $-1 $249 1 #
vertex $-1 -1 $-1 $438 $440 #
straight-curve $441 -1 $-1 0.4375 0.25 -0.3125 0 8.8817841970012504e-017 -1 I I #
loop_type-twe-attrib $-1 -1 $-1 $-1 $250 1 #
loop $442 -1 $-1 $-1 $308 $350 #
face $443 -1 $-1 $444 $250 $7 $-1 $445 reversed single #
convexity-sys-attrib $-1 -1 $446 $251 $162 #
point $-1 -1 $-1 -0.09375 0 -0.125 #
cur-twe-attrib $-1 -1 $-1 $-1 $253 89 #
loop_type-twe-attrib $-1 -1 $-1 $-1 $254 1 #
loop $447 -1 $-1 $-1 $448 $356 #
face $449 -1 $-1 $450 $254 $7 $-1 $451 reversed single #
convexity-sys-attrib $-1 -1 $452 $255 $164 #
point $-1 -1 $-1 -0.09375 0 0.125 #
cur-twe-attrib $-1 -1 $-1 $-1 $257 91 #
coedge $-1 -1 $-1 $453 $339 $258 $361 reversed $242 $-1 #
edge $454 -1 $-1 $364 -0.25021872411520413 $455 0 $360 $456 forward @7 unknown #
coedge $-1 -1 $-1 $259 $457 $453 $458 reversed $99 $-1 #
attrib_edge_convexity-kcp-attrib $-1 -1 $459 $-1 $260 1 #
vertex $-1 -1 $-1 $458 $460 #
straight-curve $461 -1 $-1 -0.397179845522252 0.25 0.3125 -1 0 0 I I #
loop_type-twe-attrib $-1 -1 $-1 $-1 $263 0 #
point $-1 -1 $-1 0.4375 0.25 0.3125 #
cur-twe-attrib $-1 -1 $-1 $-1 $266 94 #
coedge $-1 -1 $-1 $429 $433 $267 $370 reversed $462 $-1 #
edge $463 -1 $-1 $455 -0.035770009223059201 $372 0 $369 $464 forward @7 unknown #
edge_name-twe-attrib $-1 -1 $-1 $-1 $268 5 8704 #
vertex $-1 -1 $-1 $434 $465 #
ellipse-curve $466 -1 $-1 0.019825430278784001 -0.01788500461153 0.3125 0 0 -1 -0.42746519443554898 -0.017885004611529198 0 1 I I #
coedge $-1 -1 $-1 $270 $269 $467 $468 reversed $271 $-1 #
edge $469 -1 $-1 $273 -0.1875 $470 0 $269 $471 forward @7 unknown #
loop_type-twe-attrib $-1 -1 $-1 $-1 $271 0 #
face $472 -1 $-1 $473 $271 $7 $-1 $474 reversed single #
point $-1 -1 $-1 0.32889873755767501 -0.313722893617425 0.3125 #
cur-twe-attrib $-1 -1 $-1 $-1 $274 97 #
coedge $-1 -1 $-1 $467 $475 $275 $381 reversed $355 $-1 #
edge $476 -1 $-1 $383 -0.013070897574031959 $477 0 $380 $478 forward @7 unknown #
edge_name-twe-attrib $-1 -1 $-1 $-1 $276 43 20480 #
vertex $-1 -1 $-1 $468 $479 #
straight-curve $480 -1 $-1 0.35057089757403198 -0.30446698868627398 0.125 0 0 -1 I I #
edge_name-twe-attrib $-1 -1 $-1 $-1 $277 17 8704 #
straight-curve $481 -1 $-1 0.4375 -0.30446698868627398 0.3125 0 0 1 I I #
coedge $-1 -1 $-1 $297 $279 $482 $483 reversed $173 $-1 #
coedge $-1 -1 $-1 $484 $485 $279 $389 reversed $486 $-1 #
edge $487 -1 $-1 $477 -0.25 $488 0 $388 $489 forward @7 unknown #
model_id-kcp-attrib $-1 -1 $490 $-1 $280 1 1021392302 1021392302 982777857 11 #
plane-surface $491 -1 $-1 0.33750000000000002 -0.30446698868627398 0.3125 0 -1 0 0 0 -1 forward_v I I I I #
attrib_edge_convexity-kcp-attrib $-1 -1 $492 $-1 $286 1 #
straight-curve $493 -1 $-1 0.4375 -0.30446698868627398 -0.3125 0 -1 0 I I #
coedge $-1 -1 $-1 $494 $287 $495 $496 reversed $99 $-1 #
convexity-sys-attrib $-1 -1 $497 $288 $183 #
point $-1 -1 $-1 0.4375 0.25 -0.3125 #
cur-twe-attrib $-1 -1 $-1 $-1 $290 109 #
coedge $-1 -1 $-1 $308 $495 $291 $399 forward $349 $-1 #
edge $498 -1 $-1 $401 -0.25021872411520513 $314 0 $398 $499 forward @7 unknown #
attrib_edge_convexity-kcp-attrib $-1 -1 $500 $-1 $292 1 #
vertex $-1 -1 $-1 $399 $501 #
straight-curve $502 -1 $-1 -0.397179845522252 0.25 -0.3125 0 0 -1 I I #
edge_name-twe-attrib $-1 -1 $-1 $294 $115 10 8704 #
convexity-sys-attrib $-1 -1 $503 $298 $191 #
point $-1 -1 $-1 0.4375 -0.30446698868627398 -0.3125 #
cur-twe-attrib $-1 -1 $-1 $-1 $300 117 #
coedge $-1 -1 $-1 $482 $308 $301 $408 reversed $349 $-1 #
edge $504 -1 $-1 $410 -0.80727460888191538 $311 8.3724501097490355e-015 $301 $505 forward @7 unknown #
edge_name-twe-attrib $-1 -1 $-1 $-1 $302 39 20480 #
vertex $-1 -1 $-1 $302 $506 #
straight-curve $507 -1 $-1 0.35057089757403198 -0.30446698868627398 -0.3125 0 0 -1 I I #
model_id-kcp-attrib $-1 -1 $508 $-1 $304 1 1021392302 1021392302 982777857 16 #
cone-surface $509 -1 $-1 0.35057089757403198 -0.334466988686274 -0.3125 0 0 -1 -0.021672160016356499 0.020744095068848899 0 1 I I 0 1 0.030000000000000044 forward I I I I #
edge_name-twe-attrib $-1 -1 $-1 $305 $118 38 8704 #
edge_name-twe-attrib $-1 -1 $-1 $-1 $309 20 8704 #
ellipse-curve $510 -1 $-1 0.019825430278784001 -0.01788500461153 -0.125 0 0 1 0.30907330727889099 -0.29583788900589503 0 1 I I #
point $-1 -1 $-1 0.32889873755767501 -0.313722893617425 -0.125 #
cur-twe-attrib $-1 -1 $511 $-1 $312 241 #
point $-1 -1 $-1 -0.40763976415676501 -1.0000000000000001e-015 -0.125 #
cur-twe-attrib $-1 -1 $512 $-1 $315 288 #
straight-curve $-1 -1 $-1 -1.4696068759712495 0.34786209341640645 0 0 0 -1 I I #
point $-1 -1 $-1 -1.4696068759712495 -0.34786209341640645 -0.3125 #
straight-curve $-1 -1 $-1 -1.4696068759712495 0 -0.3125 0 1 0 I I #
point $-1 -1 $-1 -1.4696068759712495 0.34786209341640645 -0.3125 #
face_name-twe-attrib $-1 -1 $513 $336 $241 8 #
model_id-kcp-attrib $-1 -1 $514 $-1 $337 1 1021392302 1021392302 982777857 10 #
plane-surface $515 -1 $-1 0.4375 -1.5 -0.3125 1 0 0 0 0 -1 forward_v I I I I #
coedge $-1 -1 $-1 $339 $453 $516 $517 forward $242 $-1 #
coedge $-1 -1 $-1 $518 $369 $339 $430 forward $462 $-1 #
edge $519 -1 $-1 $455 -0.1875 $520 0 $429 $521 forward @7 unknown #
surf-twe-attrib $-1 -1 $-1 $340 $243 82 #
coedge $-1 -1 $-1 $342 $341 $522 $523 forward $156 $-1 #
coedge $-1 -1 $-1 $369 $518 $341 $434 reversed $462 $-1 #
edge $524 -1 $-1 $372 -0.1875 $525 0 $433 $526 forward @7 unknown #
attrib_edge_convexity-kcp-attrib $-1 -1 $527 $-1 $343 1 #
straight-curve $528 -1 $-1 0.4375 0.25 0 0 -8.8817841970012504e-017 -1 I I #
coedge $-1 -1 $-1 $437 $437 $344 $438 reversed $529 $-1 #
edge $530 -1 $-1 $346 -3.1415926535897931 $346 3.1415926535897931 $437 $531 forward @7 unknown #
convexity-sys-attrib $-1 -1 $532 $345 $249 #
point $-1 -1 $-1 0.4375 0.25 0 #
cur-twe-attrib $-1 -1 $533 $-1 $347 140 #
loop_type-twe-attrib $-1 -1 $-1 $-1 $349 0 #
model_id-kcp-attrib $-1 -1 $534 $-1 $350 1 1021392302 1021392302 982777857 12 #
face $535 -1 $-1 $356 $462 $7 $-1 $536 reversed single #
plane-surface $537 -1 $-1 -0.40763976415676501 -0.44581116464466902 -0.125 0 0 -1 -1 0 0 forward_v I I I I #
edge_name-twe-attrib $-1 -1 $-1 $351 $162 19 8704 #
loop_type-twe-attrib $-1 -1 $-1 $-1 $355 0 #
coedge $-1 -1 $-1 $475 $516 $457 $538 reversed $355 $-1 #
model_id-kcp-attrib $-1 -1 $539 $-1 $356 1 1021392302 1021392302 982777857 14 #
face $540 -1 $-1 $304 $486 $7 $-1 $541 reversed single #
plane-surface $542 -1 $-1 -0.40763976415676501 -0.44581116464466902 0.125 0 0 1 1 0 0 forward_v I I I I #
edge_name-twe-attrib $-1 -1 $-1 $357 $164 27 8704 #
coedge $-1 -1 $-1 $428 $360 $362 $458 forward $242 $-1 #
attrib_edge_convexity-kcp-attrib $-1 -1 $543 $-1 $361 1 #
vertex $-1 -1 $-1 $370 $544 #
straight-curve $545 -1 $-1 -0.40763976415676501 0 0.3125 -0.041803101152802301 -0.99912586831390204 0 I I #
coedge $-1 -1 $-1 $362 $494 $448 $538 forward $99 $-1 #
edge $546 -1 $-1 $364 -0.1875 $547 0 $453 $548 forward @7 unknown #
convexity-sys-attrib $-1 -1 $549 $363 $260 #
point $-1 -1 $-1 -0.397179845522252 0.25 0.3125 #
cur-twe-attrib $-1 -1 $-1 $-1 $365 151 #
loop $550 -1 $-1 $-1 $429 $444 #
edge_name-twe-attrib $-1 -1 $-1 $-1 $370 26 8704 #
straight-curve $551 -1 $-1 -0.40763976415676501 -0.035770009223059201 0.3125 -1.55189088392721e-015 -1 0 I I #
point $-1 -1 $-1 -0.40763976415676501 -0.035770009223059201 0.3125 #
cur-twe-attrib $-1 -1 $-1 $-1 $373 159 #
coedge $-1 -1 $-1 $522 $380 $374 $468 forward $355 $-1 #
edge $552 -1 $-1 $383 -0.80727460888191538 $470 8.3724501097490355e-015 $374 $553 forward @7 unknown #
edge_name-twe-attrib $-1 -1 $-1 $-1 $375 41 24576 #
vertex $-1 -1 $-1 $468 $554 #
straight-curve $555 -1 $-1 0.32889873755767501 -0.313722893617425 0.125 5.9211894646675002e-016 5.9211894646675002e-016 -1 I I #
model_id-kcp-attrib $-1 -1 $556 $-1 $377 1 1021392302 1021392302 982777857 17 #
face $557 -1 $-1 $558 $559 $7 $-1 $560 forward single #
cone-surface $561 -1 $-1 0.35057089757403198 -0.334466988686274 0.125 0 0 -1 -0.021672160016356499 0.020744095068848899 0 1 I I 0 1 0.030000000000000044 forward I I I I #
coedge $-1 -1 $-1 $380 $448 $484 $562 forward $355 $-1 #
edge_name-twe-attrib $-1 -1 $-1 $-1 $381 29 4608 #
vertex $-1 -1 $-1 $389 $563 #
straight-curve $564 -1 $-1 0.33750000000000002 -0.30446698868627398 0.125 -1 0 0 I I #
point $-1 -1 $-1 0.35057089757403198 -0.30446698868627398 0.125 #
cur-twe-attrib $-1 -1 $565 $-1 $384 167 #
cur-twe-attrib $-1 -1 $-1 $-1 $386 168 #
coedge $-1 -1 $-1 $566 $407 $387 $483 forward $349 $-1 #
edge $567 -1 $-1 $410 -0.013070897574031959 $488 0 $482 $568 forward @7 unknown #
coedge $-1 -1 $-1 $569 $388 $475 $562 reversed $486 $-1 #
coedge $-1 -1 $-1 $388 $569 $566 $570 forward $486 $-1 #
loop $571 -1 $-1 $-1 $569 $450 #
edge_name-twe-attrib $-1 -1 $-1 $-1 $389 35 8704 #
vertex $-1 -1 $-1 $389 $572 #
straight-curve $573 -1 $-1 0.33750000000000002 -0.30446698868627398 -0.125 0 0 -1 I I #
face_name-twe-attrib $-1 -1 $-1 $390 $280 10 #
surf-twe-attrib $-1 -1 $-1 $-1 $391 171 #
convexity-sys-attrib $-1 -1 $574 $392 $286 #
cur-twe-attrib $-1 -1 $-1 $-1 $393 176 #
coedge $-1 -1 $-1 $457 $394 $569 $575 forward $99 $-1 #
coedge $-1 -1 $-1 $398 $566 $394 $496 forward $349 $-1 #
edge $576 -1 $-1 $577 -0.73467984552225207 $401 0 $495 $578 forward @7 unknown #
edge_name-twe-attrib $-1 -1 $-1 $395 $183 3 8704 #
edge_name-twe-attrib $-1 -1 $-1 $-1 $399 23 8704 #
straight-curve $579 -1 $-1 -0.40763976415676501 -1.0000000000000001e-015 -0.125 -0.0418031011528021 -0.99912586831390204 0 I I #
convexity-sys-attrib $-1 -1 $580 $400 $292 #
point $-1 -1 $-1 -0.397179845522252 0.25 -0.125 #
cur-twe-attrib $-1 -1 $581 $-1 $402 182 #
edge_name-twe-attrib $-1 -1 $-1 $404 $191 16 8704 #
edge_name-twe-attrib $-1 -1 $-1 $-1 $408 40 8704 #
ellipse-curve $582 -1 $-1 0.35057089757403198 -0.334466988686274 -0.125 0 0 1 -0.021672160016356499 0.020744095068848899 0 1 I I #
point $-1 -1 $-1 0.35057089757403198 -0.30446698868627398 -0.125 #
cur-twe-attrib $-1 -1 $583 $-1 $411 167 #
face_name-twe-attrib $-1 -1 $-1 $412 $304 15 #
surf-twe-attrib $-1 -1 $584 $-1 $413 243 #
cur-twe-attrib $-1 -1 $-1 $-1 $416 197 #
cur-twe-attrib $-1 -1 $-1 $418 $312 125 #
cur-twe-attrib $-1 -1 $-1 $420 $315 126 #
colour-tsl-attrib $-1 -1 $585 $425 $241 1 #
face_name-twe-attrib $-1 -1 $-1 $426 $337 9 #
surf-twe-attrib $-1 -1 $-1 $-1 $427 205 #
coedge $-1 -1 $-1 $448 $586 $428 $517 reversed $355 $-1 #
edge $587 -1 $-1 $547 -0.25021872411520613 $520 0 $516 $588 forward @7 unknown #
coedge $-1 -1 $-1 $433 $429 $586 $589 forward $462 $-1 #
attrib_edge_convexity-kcp-attrib $-1 -1 $590 $-1 $430 1 #
vertex $-1 -1 $-1 $589 $591 #
straight-curve $592 -1 $-1 -0.40763976415676501 -2.0000000000000002e-015 0.125 0 -1.0666666666666701e-014 -1 I I #
coedge $-1 -1 $-1 $586 $467 $432 $523 reversed $355 $-1 #
edge $593 -1 $-1 $525 -2.3362556497917155 $470 1.5163139397871122e-016 $522 $594 forward @7 unknown #
edge_name-twe-attrib $-1 -1 $-1 $-1 $434 25 8448 #
vertex $-1 -1 $-1 $589 $595 #
straight-curve $596 -1 $-1 -0.40763976415676501 -0.035770009223057703 0.125 -1.1842378929335e-015 8.3266726846886693e-015 -1 I I #
convexity-sys-attrib $-1 -1 $597 $435 $343 #
cur-twe-attrib $-1 -1 $598 $-1 $436 140 #
loop $599 -1 $-1 $-1 $437 $600 #
edge_name-twe-attrib $-1 -1 $-1 $-1 $438 46 4608 #
ellipse-curve $601 -1 $-1 0.4375 0 0 -1 0 0 0 -0.25 0 1 I I #
edge_name-twe-attrib $-1 -1 $-1 $439 $249 15 8704 #
cur-twe-attrib $-1 -1 $-1 $441 $347 211 #
face_name-twe-attrib $-1 -1 $-1 $443 $350 11 #
model_id-kcp-attrib $-1 -1 $602 $-1 $444 1 1021392302 1021392302 982777857 13 #
plane-surface $603 -1 $-1 -0.40763976415676501 -0.44581116464466902 0.3125 1 0 0 0 0 -1 forward_v I I I I #
surf-twe-attrib $-1 -1 $-1 $-1 $445 218 #
edge $604 -1 $-1 $605 -0.73467984552225207 $547 0 $448 $606 forward @7 unknown #
face_name-twe-attrib $-1 -1 $-1 $449 $356 13 #
model_id-kcp-attrib $-1 -1 $607 $-1 $450 1 1021392302 1021392302 982777857 15 #
plane-surface $608 -1 $-1 0.33750000000000002 -0.44581116464466902 0.125 1 0 0 0 0 -1 forward_v I I I I #
surf-twe-attrib $-1 -1 $-1 $-1 $451 223 #
convexity-sys-attrib $-1 -1 $609 $454 $361 #
point $-1 -1 $-1 -0.40763976415676501 0 0.3125 #
cur-twe-attrib $-1 -1 $-1 $-1 $456 227 #
attrib_edge_convexity-kcp-attrib $-1 -1 $610 $-1 $458 1 #
vertex $-1 -1 $-1 $517 $611 #
straight-curve $612 -1 $-1 -0.397179845522252 0.25 0.125 0 0 -1 I I #
edge_name-twe-attrib $-1 -1 $-1 $459 $260 4 8704 #
loop_type-twe-attrib $-1 -1 $-1 $-1 $462 0 #
cur-twe-attrib $-1 -1 $-1 $-1 $464 236 #
edge_name-twe-attrib $-1 -1 $-1 $-1 $468 42 8704 #
ellipse-curve $613 -1 $-1 0.35057089757403198 -0.334466988686274 0.125 0 0 1 -0.021672160016356499 0.020744095068848899 0 1 I I #
point $-1 -1 $-1 0.32889873755767501 -0.313722893617425 0.125 #
cur-twe-attrib $-1 -1 $614 $-1 $471 241 #
face_name-twe-attrib $-1 -1 $-1 $472 $377 16 #
model_id-kcp-attrib $-1 -1 $615 $-1 $473 1 1021392302 1021392302 982777857 18 #
face $616 -1 $-1 $617 $618 $7 $-1 $619 forward single #
loop $620 -1 $-1 $-1 $621 $473 #
plane-surface $622 -1 $-1 2.5312000000000001 0 0 1 0 0 0 0 -1 forward_v I I I I #
surf-twe-attrib $-1 -1 $-1 $-1 $474 243 #
edge $623 -1 $-1 $605 -0.55446698868627398 $477 0 $484 $624 forward @7 unknown #
point $-1 -1 $-1 0.33750000000000002 -0.30446698868627398 0.125 #
cur-twe-attrib $-1 -1 $-1 $-1 $478 247 #
cur-twe-attrib $-1 -1 $-1 $480 $384 191 #
coedge $-1 -1 $-1 $495 $482 $485 $570 reversed $349 $-1 #
edge_name-twe-attrib $-1 -1 $-1 $-1 $483 21 4608 #
straight-curve $625 -1 $-1 0.33750000000000002 -0.30446698868627398 -0.125 -1 0 0 I I #
coedge $-1 -1 $-1 $485 $484 $494 $575 reversed $486 $-1 #
edge $626 -1 $-1 $577 -0.55446698868627398 $488 0 $485 $627 forward @7 unknown #
loop_type-twe-attrib $-1 -1 $-1 $-1 $486 0 #
point $-1 -1 $-1 0.33750000000000002 -0.30446698868627398 -0.125 #
cur-twe-attrib $-1 -1 $-1 $-1 $489 255 #
edge_name-twe-attrib $-1 -1 $-1 $492 $286 14 8704 #
edge $628 -1 $-1 $577 -0.25 $605 0 $569 $629 forward @7 unknown #
attrib_edge_convexity-kcp-attrib $-1 -1 $630 $-1 $496 1 #
vertex $-1 -1 $-1 $570 $631 #
straight-curve $632 -1 $-1 -0.397179845522252 0.25 -0.125 -1 0 0 I I #
cur-twe-attrib $-1 -1 $-1 $-1 $499 264 #
edge_name-twe-attrib $-1 -1 $-1 $500 $292 9 8448 #
cur-twe-attrib $-1 -1 $-1 $502 $402 313 #
cur-twe-attrib $-1 -1 $-1 $-1 $505 271 #
cur-twe-attrib $-1 -1 $-1 $507 $411 191 #
surf-twe-attrib $-1 -1 $-1 $509 $413 193 #
colour-tsl-attrib $-1 -1 $-1 $513 $241 1 #
coedge $-1 -1 $-1 $516 $522 $518 $589 reversed $355 $-1 #
attrib_edge_convexity-kcp-attrib $-1 -1 $633 $-1 $517 1 #
straight-curve $634 -1 $-1 -0.40763976415676501 -2.0000000000000002e-015 0.125 -0.041803101152802002 -0.99912586831390204 0 I I #
edge $635 -1 $-1 $520 -0.035770009223055704 $525 0 $586 $636 forward @7 unknown #
convexity-sys-attrib $-1 -1 $637 $519 $430 #
point $-1 -1 $-1 -0.40763976415676501 -2.0000000000000002e-015 0.125 #
cur-twe-attrib $-1 -1 $638 $-1 $521 288 #
edge_name-twe-attrib $-1 -1 $-1 $-1 $523 30 8704 #
ellipse-curve $639 -1 $-1 0.019825430278784001 -0.01788500461153 0.125 0 0 1 0.30907330727889099 -0.29583788900589503 0 1 I I #
point $-1 -1 $-1 -0.40763976415676501 -0.035770009223057703 0.125 #
cur-twe-attrib $-1 -1 $-1 $-1 $526 292 #
edge_name-twe-attrib $-1 -1 $-1 $527 $343 12 8704 #
cur-twe-attrib $-1 -1 $-1 $528 $436 211 #
loop_type-twe-attrib $-1 -1 $-1 $-1 $529 1 #
face $640 -1 $-1 $641 $642 $7 $-1 $643 forward single #
cur-twe-attrib $-1 -1 $-1 $-1 $531 296 #
face_name-twe-attrib $-1 -1 $-1 $535 $444 12 #
surf-twe-attrib $-1 -1 $-1 $-1 $536 301 #
attrib_edge_convexity-kcp-attrib $-1 -1 $644 $-1 $538 1 #
vertex $-1 -1 $-1 $562 $645 #
straight-curve $646 -1 $-1 -0.397179845522252 0.25 0.125 -1 0 0 I I #
face_name-twe-attrib $-1 -1 $-1 $540 $450 14 #
surf-twe-attrib $-1 -1 $-1 $-1 $541 306 #
edge_name-twe-attrib $-1 -1 $-1 $543 $361 7 8704 #
convexity-sys-attrib $-1 -1 $647 $546 $458 #
point $-1 -1 $-1 -0.397179845522252 0.25 0.125 #
cur-twe-attrib $-1 -1 $648 $-1 $548 182 #
cur-twe-attrib $-1 -1 $-1 $-1 $553 322 #
cur-twe-attrib $-1 -1 $-1 $555 $471 125 #
face_name-twe-attrib $-1 -1 $-1 $557 $473 17 #
model_id-kcp-attrib $-1 -1 $649 $-1 $558 1 1021392302 1021392302 982777857 19 #
face $650 -1 $-1 $600 $651 $7 $-1 $652 forward single #
loop $653 -1 $-1 $654 $655 $558 #
cone-surface $656 -1 $-1 2.4785281659979299 0 0 1 0 0 0 0.24718136490597301 0 1 I I 0.053436680041494398 0.99857123993540997 0.24718136490597301 forward I I I I #
loop_type-twe-attrib $-1 -1 $-1 $-1 $559 0 #
coedge $-1 -1 $-1 $621 $621 $657 $658 forward $559 $-1 #
surf-twe-attrib $-1 -1 $-1 $-1 $560 327 #
edge_name-twe-attrib $-1 -1 $-1 $-1 $562 36 4608 #
straight-curve $659 -1 $-1 0.33750000000000002 -0.30446698868627398 0.125 0 -1 0 I I #
cur-twe-attrib $-1 -1 $-1 $-1 $568 337 #
edge_name-twe-attrib $-1 -1 $-1 $-1 $570 34 4608 #
straight-curve $660 -1 $-1 0.33750000000000002 -0.30446698868627398 -0.125 0 -1 0 I I #
attrib_edge_convexity-kcp-attrib $-1 -1 $661 $-1 $575 1 #
straight-curve $662 -1 $-1 0.33750000000000002 0.25 0.125 0 0 1 I I #
convexity-sys-attrib $-1 -1 $663 $576 $496 #
point $-1 -1 $-1 0.33750000000000002 0.25 -0.125 #
cur-twe-attrib $-1 -1 $-1 $-1 $578 348 #
convexity-sys-attrib $-1 -1 $664 $587 $517 #
cur-twe-attrib $-1 -1 $-1 $-1 $588 364 #
edge_name-twe-attrib $-1 -1 $-1 $-1 $589 31 8704 #
straight-curve $665 -1 $-1 -0.40763976415676501 -0.035770009223057703 0.125 -7.7594544196368198e-015 -1 0 I I #
edge_name-twe-attrib $-1 -1 $-1 $590 $430 24 8448 #
cur-twe-attrib $-1 -1 $-1 $592 $521 126 #
cur-twe-attrib $-1 -1 $-1 $-1 $594 370 #
model_id-kcp-attrib $-1 -1 $666 $-1 $600 1 1021392302 1021392302 982777857 21 #
face $667 -1 $-1 $668 $669 $7 $-1 $670 reversed single #
loop $671 -1 $-1 $529 $672 $600 #
cone-surface $673 -1 $-1 0.33281500000000003 0 0 1 0 0 0 -0.25 0 1 I I 0 1 0.25 forward I I I I #
convexity-sys-attrib $-1 -1 $674 $604 $538 #
point $-1 -1 $-1 0.33750000000000002 0.25 0.125 #
cur-twe-attrib $-1 -1 $-1 $-1 $606 382 #
edge_name-twe-attrib $-1 -1 $-1 $610 $458 8 8448 #
cur-twe-attrib $-1 -1 $-1 $612 $548 313 #
face_name-twe-attrib $-1 -1 $-1 $616 $558 18 #
model_id-kcp-attrib $-1 -1 $675 $-1 $617 1 1021392302 1021392302 982777857 20 #
loop $676 -1 $-1 $677 $678 $617 #
cone-surface $679 -1 $-1 0.58750000000000002 0 0 -1 0 0 0 0.25 0 1 I I 0.80000000000000004 0.59999999999999998 0.25 forward I I I I #
loop_type-twe-attrib $-1 -1 $-1 $-1 $618 0 #
loop $680 -1 $-1 $-1 $681 $558 #
coedge $-1 -1 $-1 $655 $655 $682 $683 forward $618 $-1 #
surf-twe-attrib $-1 -1 $-1 $-1 $619 398 #
coedge $-1 -1 $-1 $657 $657 $621 $658 reversed $684 $-1 #
edge $685 -1 $-1 $686 0 $686 6.2831853071795862 $657 $687 forward @7 unknown #
cur-twe-attrib $-1 -1 $-1 $-1 $624 402 #
cur-twe-attrib $-1 -1 $-1 $-1 $627 410 #
convexity-sys-attrib $-1 -1 $688 $628 $575 #
cur-twe-attrib $-1 -1 $-1 $-1 $629 414 #
edge_name-twe-attrib $-1 -1 $-1 $630 $496 22 8704 #
edge_name-twe-attrib $-1 -1 $-1 $633 $517 32 8704 #
cur-twe-attrib $-1 -1 $-1 $-1 $636 426 #
face_name-twe-attrib $-1 -1 $-1 $640 $600 20 #
model_id-kcp-attrib $-1 -1 $689 $-1 $641 1 1021392302 1021392302 982777857 22 #
face $690 -1 $-1 $-1 $691 $7 $-1 $692 forward single #
loop $693 -1 $-1 $694 $695 $641 #
torus-surface $696 -1 $-1 0.68648376014679202 0 0 1 0 0 0.20135498647094299 0.050000000000000003 0 0 -1 forward_v I I I I #
loop_type-twe-attrib $-1 -1 $-1 $-1 $642 0 #
coedge $-1 -1 $-1 $672 $672 $697 $698 reversed $642 $-1 #
surf-twe-attrib $-1 -1 $-1 $-1 $643 435 #
edge_name-twe-attrib $-1 -1 $-1 $644 $538 28 8704 #
face_name-twe-attrib $-1 -1 $-1 $650 $617 19 #
loop_type-twe-attrib $-1 -1 $-1 $-1 $651 0 #
loop $699 -1 $-1 $-1 $697 $617 #
coedge $-1 -1 $-1 $678 $678 $695 $700 forward $651 $-1 #
surf-twe-attrib $-1 -1 $-1 $-1 $652 447 #
loop_type-twe-attrib $-1 -1 $-1 $-1 $654 1 #
coedge $-1 -1 $-1 $681 $681 $701 $702 forward $654 $-1 #
coedge $-1 -1 $-1 $682 $682 $655 $683 reversed $691 $-1 #
edge $703 -1 $-1 $704 -3.1415926535897931 $704 3.1415926535897931 $682 $705 forward @7 unknown #
loop $706 -1 $-1 $-1 $657 $668 #
attrib_edge_convexity-kcp-attrib $-1 -1 $707 $-1 $658 3 #
vertex $-1 -1 $-1 $658 $708 #
ellipse-curve $709 -1 $-1 2.5312000000000001 0 0 1 0 0 0 0.197252802909203 0 1 I I #
edge_name-twe-attrib $-1 -1 $-1 $661 $575 33 8704 #
face_name-twe-attrib $-1 -1 $-1 $667 $641 21 #
model_id-kcp-attrib $-1 -1 $710 $-1 $668 1 1021392302 1021392302 982777857 23 #
loop $711 -1 $-1 $684 $682 $668 #
torus-surface $712 -1 $-1 2.4811999999999999 0 0 1 0 0 0.197252802909203 0.050000000000000003 0 0 -1 forward_v I I I I #
loop_type-twe-attrib $-1 -1 $-1 $-1 $669 0 #
loop $713 -1 $-1 $-1 $701 $641 #
coedge $-1 -1 $-1 $695 $695 $678 $700 reversed $669 $-1 #
surf-twe-attrib $-1 -1 $-1 $-1 $670 468 #
coedge $-1 -1 $-1 $697 $697 $672 $698 forward $677 $-1 #
edge $714 -1 $-1 $715 -3.1415926535897931 $715 3.1415926535897931 $672 $716 forward @7 unknown #
loop_type-twe-attrib $-1 -1 $-1 $-1 $677 1 #
edge $717 -1 $-1 $718 -3.1415926535897931 $718 3.1415926535897931 $695 $719 forward @7 unknown #
coedge $-1 -1 $-1 $701 $701 $681 $702 reversed $694 $-1 #
edge $720 -1 $-1 $721 -3.1415926535897931 $721 3.1415926535897931 $701 $722 forward @7 unknown #
edge_name-twe-attrib $-1 -1 $-1 $-1 $683 49 24576 #
vertex $-1 -1 $-1 $683 $723 #
ellipse-curve $724 -1 $-1 2.4785281659979299 0 0 -1 0 0 0 0.24718136490597301 0 1 I I #
loop_type-twe-attrib $-1 -1 $-1 $-1 $684 1 #
convexity-sys-attrib $-1 -1 $725 $685 $658 #
point $-1 -1 $-1 2.5312000000000001 0.197252802909203 0 #
cur-twe-attrib $-1 -1 $-1 $-1 $687 482 #
face_name-twe-attrib $-1 -1 $-1 $690 $668 22 #
loop_type-twe-attrib $-1 -1 $-1 $-1 $691 0 #
surf-twe-attrib $-1 -1 $-1 $-1 $692 488 #
loop_type-twe-attrib $-1 -1 $-1 $-1 $694 1 #
edge_name-twe-attrib $-1 -1 $-1 $-1 $698 45 8448 #
vertex $-1 -1 $-1 $698 $726 #
ellipse-curve $727 -1 $-1 0.58750000000000002 0 0 1 0 0 0 0.25 0 1 I I #
edge_name-twe-attrib $-1 -1 $-1 $-1 $700 47 24576 #
vertex $-1 -1 $-1 $700 $728 #
ellipse-curve $729 -1 $-1 0.64648376014679199 0 0 -1 0 0 0 0.17135498647094299 0 1 I I #
edge_name-twe-attrib $-1 -1 $-1 $-1 $702 48 24576 #
vertex $-1 -1 $-1 $702 $730 #
ellipse-curve $731 -1 $-1 0.68915559414886696 0 0 1 0 0 0 0.15142642447417301 0 1 I I #
point $-1 -1 $-1 2.4785281659979299 -0.24718136490597301 0 #
cur-twe-attrib $-1 -1 $-1 $-1 $705 501 #
edge_name-twe-attrib $-1 -1 $-1 $707 $658 50 24576 #
point $-1 -1 $-1 0.58750000000000002 -0.25 3.0616164697184302e-017 #
cur-twe-attrib $-1 -1 $-1 $-1 $716 514 #
point $-1 -1 $-1 0.64648376014679199 -0.17135498647094299 0 #
cur-twe-attrib $-1 -1 $-1 $-1 $719 516 #
point $-1 -1 $-1 0.68915559414886696 -0.15142642447417301 0 #
cur-twe-attrib $-1 -1 $-1 $-1 $722 518 #
End-of-ACIS-data 