104 545 0 0                             
body $-1 $1 $-1 $2 #
lump $-1 $-1 $3 $0 #
transform $-1 1 0 0 0 1 0 0 0 1 0 0 0 1 0 0 0 #
shell $-1 $-1 $-1 $4 $1 #
face $5 $6 $7 $3 $-1 $8 1 #
face_name-twe-attrib $-1 $-1 $-1 $4 1 #
face $9 $10 $11 $3 $-1 $12 0 #
loop $13 $14 $15 $4 #
plane-surface $16 0 0 -0.3125 0 0 1 1 0 0 0 #
face_name-twe-attrib $-1 $-1 $-1 $6 2 #
face $17 $18 $19 $3 $-1 $20 1 #
loop $21 $22 $23 $6 #
plane-surface $24 0 0 0.3125 0 0 1 1 0 0 0 #
loop_type-twe-attrib $-1 $-1 $-1 $7 1 #
loop $25 $-1 $26 $4 #
coedge $-1 $15 $15 $27 $28 0 $7 $-1 #
surf-twe-attrib $-1 $-1 $-1 $8 4 #
face_name-twe-attrib $-1 $-1 $-1 $10 3 #
face $29 $30 $31 $3 $-1 $20 1 #
loop $32 $33 $34 $10 #
cone-surface $35 0 0 -0.3125 0 0 1 0.09375 0 0 1 0 1 0 #
loop_type-twe-attrib $-1 $-1 $-1 $11 1 #
loop $36 $-1 $37 $6 #
coedge $-1 $23 $23 $34 $38 1 $11 $-1 #
surf-twe-attrib $-1 $-1 $-1 $12 6 #
loop_type-twe-attrib $-1 $-1 $-1 $14 0 #
coedge $-1 $39 $40 $41 $42 0 $14 $-1 #
coedge $-1 $27 $27 $15 $28 1 $43 $-1 #
edge $44 $45 $45 $27 $46 0 #
face_name-twe-attrib $-1 $47 $-1 $18 4 #
face $48 $49 $50 $3 $-1 $51 0 #
loop $52 $43 $53 $18 #
loop_type-twe-attrib $-1 $-1 $-1 $19 0 #
loop $54 $-1 $55 $10 #
coedge $-1 $34 $34 $23 $38 0 $19 $-1 #
surf-twe-attrib $-1 $56 $-1 $20 18 #
loop_type-twe-attrib $-1 $-1 $-1 $22 0 #
coedge $-1 $57 $58 $59 $60 1 $22 $-1 #
edge $61 $62 $62 $34 $63 0 #
coedge $-1 $64 $26 $65 $66 1 $14 $-1 #
coedge $-1 $26 $67 $68 $69 0 $14 $-1 #
coedge $-1 $70 $71 $26 $42 1 $72 $-1 #
edge $73 $74 $75 $41 $76 0 #
loop $77 $-1 $27 $18 #
edge_name-twe-attrib $-1 $-1 $-1 $28 2 8704 #
vertex $-1 $28 $78 #
ellipse-curve $79 0 0 -0.3125 0 0 1 -0.09375 0 0 1 #
colour-tsl-attrib $-1 $80 $29 $18 1 #
face_name-twe-attrib $-1 $-1 $-1 $30 5 #
face $81 $82 $83 $3 $-1 $84 0 #
loop $85 $-1 $86 $30 #
plane-surface $87 0.3375 0.25 -0.3125 0 1 0 0 0 1 0 #
loop_type-twe-attrib $-1 $-1 $-1 $31 0 #
coedge $-1 $53 $53 $88 $89 1 $31 $-1 #
loop_type-twe-attrib $-1 $-1 $-1 $33 1 #
coedge $-1 $55 $55 $90 $91 0 $33 $-1 #
surf-twe-attrib $-1 $-1 $35 $20 10 #
coedge $-1 $92 $37 $93 $94 0 $22 $-1 #
coedge $-1 $37 $95 $96 $97 1 $22 $-1 #
coedge $-1 $98 $99 $37 $60 0 $100 $-1 #
edge $101 $102 $103 $59 $104 0 #
edge_name-twe-attrib $-1 $-1 $-1 $38 1 8704 #
vertex $-1 $38 $105 #
ellipse-curve $106 0 0 0.3125 0 0 1 0.09375 0 0 1 #
coedge $-1 $107 $39 $108 $109 1 $14 $-1 #
coedge $-1 $110 $111 $39 $66 0 $112 $-1 #
edge $113 $114 $75 $65 $115 0 #
coedge $-1 $40 $107 $116 $117 0 $14 $-1 #
coedge $-1 $118 $119 $40 $69 1 $120 $-1 #
edge $121 $122 $74 $68 $123 0 #
coedge $-1 $124 $41 $119 $125 1 $72 $-1 #
coedge $-1 $41 $124 $110 $126 0 $72 $-1 #
loop $127 $-1 $124 $49 #
edge_name-twe-attrib $-1 $-1 $-1 $42 6 8704 #
vertex $-1 $69 $128 #
vertex $-1 $126 $129 #
ellipse-curve $130 0.019825430278784 -0.01788500461153 -0.3125 0 0 -1 -0.427465194435549 0.0178850046115284 0 1 #
loop_type-twe-attrib $-1 $-1 $-1 $43 1 #
point $-1 0.09375 0 -0.3125 #
cur-twe-attrib $-1 $-1 $-1 $46 28 #
colour-tsl-attrib $-1 $-1 $47 $18 1 #
face_name-twe-attrib $-1 $-1 $-1 $49 6 #
face $131 $132 $133 $3 $-1 $134 1 #
loop $135 $72 $136 $49 #
cone-surface $137 0.019825430278784 -0.01788500461153 0.3125 0 0 1 0.427839182221283 0 0 1 0 1 0 #
loop_type-twe-attrib $-1 $-1 $-1 $50 0 #
coedge $-1 $108 $138 $139 $140 0 $50 $-1 #
surf-twe-attrib $-1 $-1 $-1 $51 30 #
coedge $-1 $88 $88 $53 $89 0 $141 $-1 #
edge $142 $143 $143 $88 $144 0 #
coedge $-1 $90 $90 $55 $91 1 $145 $-1 #
edge $146 $147 $147 $90 $148 0 #
coedge $-1 $149 $57 $150 $151 0 $22 $-1 #
coedge $-1 $152 $153 $57 $94 1 $154 $-1 #
edge $155 $102 $156 $93 $157 0 #
coedge $-1 $58 $158 $136 $159 1 $22 $-1 #
coedge $-1 $160 $161 $58 $97 0 $162 $-1 #
edge $163 $103 $164 $96 $165 0 #
coedge $-1 $166 $59 $161 $167 0 $100 $-1 #
coedge $-1 $59 $116 $152 $168 0 $100 $-1 #
loop $169 $-1 $170 $171 #
edge_name-twe-attrib $-1 $-1 $-1 $60 18 8704 #
vertex $-1 $60 $172 #
vertex $-1 $167 $173 #
straight-curve $174 0.350570897574032 -0.304466988686274 0.3125 -1 0 0 #
point $-1 0.09375 0 0.3125 #
cur-twe-attrib $-1 $-1 $-1 $63 38 #
coedge $-1 $67 $64 $175 $176 0 $14 $-1 #
coedge $-1 $177 $86 $64 $109 0 $50 $-1 #
edge $178 $179 $114 $108 $180 0 #
coedge $-1 $181 $65 $71 $126 1 $112 $-1 #
coedge $-1 $65 $181 $177 $182 0 $112 $-1 #
loop $183 $-1 $181 $132 #
edge_name-twe-attrib $-1 $-1 $-1 $66 10 8704 #
vertex $-1 $109 $184 #
straight-curve $185 -0.407639764156765 -1.62370117351429e-15 -0.3125 -0.0418031011528023 -0.999125868313902 0 #
coedge $-1 $99 $186 $67 $117 1 $100 $-1 #
edge $187 $188 $122 $116 $189 0 #
coedge $-1 $190 $68 $186 $191 1 $120 $-1 #
coedge $-1 $68 $190 $70 $125 0 $120 $-1 #
loop $192 $-1 $119 $193 #
edge_name-twe-attrib $-1 $-1 $-1 $69 38 8704 #
vertex $-1 $69 $194 #
ellipse-curve $195 0.350570897574032 -0.334466988686274 -0.3125 0 0 1 -0.0216721600163565 0.0207440950688489 0 1 #
coedge $-1 $71 $70 $196 $197 1 $72 $-1 #
edge $198 $199 $74 $119 $200 0 #
edge $201 $202 $75 $110 $203 0 #
loop_type-twe-attrib $-1 $-1 $-1 $72 1 #
point $-1 0.328898737557675 -0.313722893617425 -0.3125 #
point $-1 -0.407639764156765 -1.62370117351429e-15 -0.3125 #
cur-twe-attrib $-1 $-1 $-1 $76 42 #
face_name-twe-attrib $-1 $-1 $-1 $82 7 #
face $204 $205 $112 $3 $-1 $134 1 #
loop $206 $-1 $207 $82 #
plane-surface $208 -0.407639764156765 -1e-15 -0.3125 0.999125868313902 -0.041803101152802 0 0 0 -1 0 #
loop_type-twe-attrib $-1 $-1 $-1 $83 0 #
coedge $-1 $209 $210 $95 $159 0 $83 $-1 #
surf-twe-attrib $-1 $-1 $-1 $84 49 #
coedge $-1 $86 $150 $153 $211 0 $50 $-1 #
coedge $-1 $212 $175 $86 $140 1 $154 $-1 #
edge $213 $214 $179 $139 $215 0 #
loop $216 $217 $88 $218 #
edge_name-twe-attrib $-1 $-1 $-1 $89 19 8704 #
vertex $-1 $89 $219 #
ellipse-curve $220 0 0 -0.125 0 0 -1 0.09375 0 0 1 #
loop $221 $222 $90 $223 #
edge_name-twe-attrib $-1 $-1 $-1 $91 27 8704 #
vertex $-1 $91 $224 #
ellipse-curve $225 0 0 0.125 0 0 -1 0.09375 0 0 1 #
coedge $-1 $158 $92 $226 $227 0 $22 $-1 #
coedge $-1 $138 $228 $92 $151 1 $50 $-1 #
edge $229 $156 $230 $150 $231 0 #
coedge $-1 $175 $93 $99 $168 1 $154 $-1 #
coedge $-1 $93 $212 $138 $211 1 $154 $-1 #
loop $232 $-1 $212 $205 #
edge_name-twe-attrib $-1 $-1 $-1 $94 13 8704 #
vertex $-1 $211 $233 #
straight-curve $234 0.4375 0.25 0.3125 0 1 0 #
coedge $-1 $95 $149 $235 $236 0 $22 $-1 #
edge $237 $164 $238 $136 $239 0 #
coedge $-1 $240 $96 $210 $241 0 $162 $-1 #
coedge $-1 $96 $240 $98 $167 1 $162 $-1 #
loop $242 $-1 $160 $243 #
edge_name-twe-attrib $-1 $-1 $-1 $97 44 8704 #
vertex $-1 $97 $244 #
ellipse-curve $245 0.350570897574032 -0.334466988686274 0.3125 0 0 1 -0.0216721600163565 0.0207440950688489 0 1 #
coedge $-1 $170 $98 $246 $247 0 $100 $-1 #
edge $248 $103 $249 $161 $250 0 #
edge $251 $188 $102 $99 $252 0 #
loop_type-twe-attrib $-1 $-1 $-1 $100 0 #
coedge $-1 $253 $166 $254 $255 0 $100 $-1 #
face $256 $218 $100 $3 $-1 $257 0 #
point $-1 0.4375 -0.304466988686274 0.3125 #
point $-1 0.350570897574032 -0.304466988686274 0.3125 #
cur-twe-attrib $-1 $-1 $-1 $104 60 #
coedge $-1 $139 $152 $107 $176 1 $154 $-1 #
edge $258 $179 $188 $175 $259 0 #
coedge $-1 $260 $108 $111 $182 1 $50 $-1 #
edge_name-twe-attrib $-1 $-1 $-1 $109 3 8704 #
vertex $-1 $176 $261 #
straight-curve $262 -0.397179845522252 0.25 -0.3125 -1 0 0 #
coedge $-1 $111 $110 $263 $264 1 $112 $-1 #
edge $265 $266 $114 $111 $267 0 #
loop_type-twe-attrib $-1 $-1 $-1 $112 0 #
point $-1 -0.397179845522252 0.25 -0.3125 #
cur-twe-attrib $-1 $-1 $-1 $115 66 #
coedge $-1 $116 $253 $118 $191 0 $100 $-1 #
edge_name-twe-attrib $-1 $-1 $-1 $117 16 8704 #
vertex $-1 $168 $268 #
straight-curve $269 0.350570897574032 -0.304466988686274 -0.3125 -1 0 0 #
coedge $-1 $119 $118 $270 $271 0 $120 $-1 #
edge $272 $273 $122 $118 $274 0 #
loop_type-twe-attrib $-1 $-1 $-1 $120 0 #
face $275 $243 $120 $3 $-1 $276 1 #
point $-1 0.350570897574032 -0.304466988686274 -0.3125 #
cur-twe-attrib $-1 $-1 $-1 $123 69 #
coedge $-1 $270 $263 $124 $197 0 $217 $-1 #
edge $277 $202 $199 $196 $278 0 #
edge_name-twe-attrib $-1 $-1 $-1 $125 37 24576 #
vertex $-1 $271 $279 #
straight-curve $280 0.328898737557675 -0.313722893617425 -0.3125 -1.77635683940025e-15 -8.88178419700125e-16 -1 #
edge_name-twe-attrib $-1 $-1 $-1 $126 11 24576 #
vertex $-1 $197 $281 #
straight-curve $282 -0.407639764156765 -1.62370117351429e-15 -0.3125 -2.96059473233375e-16 -3.32640625874289e-15 -1 #
face_name-twe-attrib $-1 $283 $-1 $132 8 #
face $284 $171 $154 $3 $-1 $285 0 #
loop_type-twe-attrib $-1 $-1 $-1 $133 0 #
coedge $-1 $226 $286 $287 $288 1 $133 $-1 #
surf-twe-attrib $-1 $289 $-1 $134 132 #
coedge $-1 $290 $136 $291 $292 0 $83 $-1 #
coedge $-1 $136 $290 $160 $241 1 $83 $-1 #
edge $293 $156 $214 $153 $294 0 #
coedge $-1 $153 $139 $295 $296 0 $154 $-1 #
edge_name-twe-attrib $-1 $-1 $-1 $140 15 8704 #
vertex $-1 $296 $297 #
straight-curve $298 0.4375 0.25 -0.3125 0 8.88178419700125e-17 -1 #
loop_type-twe-attrib $-1 $-1 $-1 $141 1 #
loop $299 $-1 $196 $218 #
face $300 $301 $141 $3 $-1 $302 1 #
point $-1 -0.09375 0 -0.125 #
cur-twe-attrib $-1 $-1 $-1 $144 89 #
loop_type-twe-attrib $-1 $-1 $-1 $145 1 #
loop $303 $-1 $304 $223 #
face $305 $306 $145 $3 $-1 $307 1 #
point $-1 -0.09375 0 0.125 #
cur-twe-attrib $-1 $-1 $-1 $148 91 #
coedge $-1 $308 $207 $149 $227 1 $133 $-1 #
edge $309 $230 $310 $226 $311 0 #
coedge $-1 $150 $312 $308 $313 1 $50 $-1 #
edge_name-twe-attrib $-1 $-1 $-1 $151 4 8704 #
vertex $-1 $313 $314 #
straight-curve $315 -0.397179845522252 0.25 0.3125 -1 0 0 #
loop_type-twe-attrib $-1 $-1 $-1 $154 0 #
point $-1 0.4375 0.25 0.3125 #
cur-twe-attrib $-1 $-1 $-1 $157 94 #
coedge $-1 $287 $291 $158 $236 1 $316 $-1 #
edge $317 $310 $238 $235 $318 0 #
edge_name-twe-attrib $-1 $-1 $-1 $159 5 8704 #
vertex $-1 $292 $319 #
ellipse-curve $320 0.019825430278784 -0.01788500461153 0.3125 0 0 -1 -0.427465194435549 -0.0178850046115292 0 1 #
coedge $-1 $161 $160 $321 $322 1 $162 $-1 #
edge $323 $164 $324 $160 $325 0 #
loop_type-twe-attrib $-1 $-1 $-1 $162 0 #
face $326 $327 $162 $3 $-1 $328 1 #
point $-1 0.328898737557675 -0.313722893617425 0.3125 #
cur-twe-attrib $-1 $-1 $-1 $165 97 #
coedge $-1 $321 $329 $166 $247 1 $222 $-1 #
edge $330 $249 $331 $246 $332 0 #
edge_name-twe-attrib $-1 $-1 $-1 $167 43 20480 #
vertex $-1 $322 $333 #
straight-curve $334 0.350570897574032 -0.304466988686274 0.125 0 0 -1 #
edge_name-twe-attrib $-1 $-1 $-1 $168 17 8704 #
straight-curve $335 0.4375 -0.304466988686274 0.3125 0 0 1 #
coedge $-1 $186 $170 $336 $337 1 $100 $-1 #
coedge $-1 $338 $339 $170 $255 1 $340 $-1 #
edge $341 $331 $342 $254 $343 0 #
face_name-twe-attrib $-1 $-1 $-1 $171 10 #
plane-surface $344 0.3375 -0.304466988686274 0.3125 0 -1 0 0 0 -1 0 #
edge_name-twe-attrib $-1 $-1 $-1 $176 14 8704 #
straight-curve $345 0.4375 -0.304466988686274 -0.3125 0 -1 0 #
coedge $-1 $346 $177 $347 $348 1 $50 $-1 #
point $-1 0.4375 0.25 -0.3125 #
cur-twe-attrib $-1 $-1 $-1 $180 109 #
coedge $-1 $196 $347 $181 $264 0 $217 $-1 #
edge $349 $266 $202 $263 $350 0 #
edge_name-twe-attrib $-1 $-1 $-1 $182 9 8448 #
vertex $-1 $264 $351 #
straight-curve $352 -0.397179845522252 0.25 -0.3125 0 0 -1 #
point $-1 0.4375 -0.304466988686274 -0.3125 #
cur-twe-attrib $-1 $-1 $-1 $189 117 #
coedge $-1 $336 $196 $190 $271 1 $217 $-1 #
edge $353 $273 $199 $190 $354 0 #
edge_name-twe-attrib $-1 $-1 $-1 $191 39 20480 #
vertex $-1 $191 $355 #
straight-curve $356 0.350570897574032 -0.304466988686274 -0.3125 0 0 -1 #
face_name-twe-attrib $-1 $-1 $-1 $193 15 #
cone-surface $357 0.350570897574032 -0.334466988686274 -0.3125 0 0 -1 -0.0216721600163565 0.0207440950688489 0 1 0 1 0 #
edge_name-twe-attrib $-1 $-1 $-1 $197 20 8704 #
ellipse-curve $358 0.019825430278784 -0.01788500461153 -0.125 0 0 1 0.309073307278891 -0.295837889005895 0 1 #
point $-1 0.328898737557675 -0.313722893617425 -0.125 #
cur-twe-attrib $-1 $359 $-1 $200 241 #
point $-1 -0.407639764156765 -1e-15 -0.125 #
cur-twe-attrib $-1 $360 $-1 $203 288 #
colour-tsl-attrib $-1 $361 $204 $132 1 #
face_name-twe-attrib $-1 $-1 $-1 $205 9 #
plane-surface $362 0.4375 -1.5 -0.3125 1 0 0 0 0 -1 0 #
coedge $-1 $207 $308 $363 $364 0 $133 $-1 #
coedge $-1 $365 $235 $207 $288 0 $316 $-1 #
edge $366 $310 $367 $287 $368 0 #
surf-twe-attrib $-1 $-1 $208 $134 82 #
coedge $-1 $210 $209 $369 $370 0 $83 $-1 #
coedge $-1 $235 $365 $209 $292 1 $316 $-1 #
edge $371 $238 $372 $291 $373 0 #
edge_name-twe-attrib $-1 $-1 $-1 $211 12 8704 #
straight-curve $374 0.4375 0.25 0 0 -8.88178419700125e-17 -1 #
coedge $-1 $295 $295 $212 $296 1 $375 $-1 #
edge $376 $214 $214 $295 $377 0 #
point $-1 0.4375 0.25 0 #
cur-twe-attrib $-1 $378 $-1 $215 140 #
loop_type-twe-attrib $-1 $-1 $-1 $217 0 #
face_name-twe-attrib $-1 $-1 $-1 $218 11 #
face $379 $223 $316 $3 $-1 $380 1 #
plane-surface $381 -0.407639764156765 -0.445811164644669 -0.125 0 0 -1 -1 0 0 0 #
loop_type-twe-attrib $-1 $-1 $-1 $222 0 #
coedge $-1 $329 $363 $312 $382 1 $222 $-1 #
face_name-twe-attrib $-1 $-1 $-1 $223 13 #
face $383 $193 $340 $3 $-1 $384 1 #
plane-surface $385 -0.407639764156765 -0.445811164644669 0.125 0 0 1 1 0 0 0 #
coedge $-1 $286 $226 $228 $313 0 $133 $-1 #
edge_name-twe-attrib $-1 $-1 $-1 $227 7 8704 #
vertex $-1 $236 $386 #
straight-curve $387 -0.407639764156765 0 0.3125 -0.0418031011528023 -0.999125868313902 0 #
coedge $-1 $228 $346 $304 $382 0 $50 $-1 #
edge $388 $230 $389 $308 $390 0 #
point $-1 -0.397179845522252 0.25 0.3125 #
cur-twe-attrib $-1 $-1 $-1 $231 151 #
loop $391 $-1 $287 $301 #
edge_name-twe-attrib $-1 $-1 $-1 $236 26 8704 #
straight-curve $392 -0.407639764156765 -0.0357700092230592 0.3125 -1.55189088392721e-15 -1 0 #
point $-1 -0.407639764156765 -0.0357700092230592 0.3125 #
cur-twe-attrib $-1 $-1 $-1 $239 159 #
coedge $-1 $369 $246 $240 $322 0 $222 $-1 #
edge $393 $249 $324 $240 $394 0 #
edge_name-twe-attrib $-1 $-1 $-1 $241 41 24576 #
vertex $-1 $322 $395 #
straight-curve $396 0.328898737557675 -0.313722893617425 0.125 5.9211894646675e-16 5.9211894646675e-16 -1 #
face_name-twe-attrib $-1 $-1 $-1 $243 16 #
face $397 $398 $399 $3 $-1 $400 0 #
cone-surface $401 0.350570897574032 -0.334466988686274 0.125 0 0 -1 -0.0216721600163565 0.0207440950688489 0 1 0 1 0 #
coedge $-1 $246 $304 $338 $402 0 $222 $-1 #
edge_name-twe-attrib $-1 $-1 $-1 $247 29 4608 #
vertex $-1 $255 $403 #
straight-curve $404 0.3375 -0.304466988686274 0.125 -1 0 0 #
point $-1 0.350570897574032 -0.304466988686274 0.125 #
cur-twe-attrib $-1 $405 $-1 $250 167 #
cur-twe-attrib $-1 $-1 $-1 $252 168 #
coedge $-1 $406 $270 $253 $337 0 $217 $-1 #
edge $407 $273 $342 $336 $408 0 #
coedge $-1 $409 $254 $329 $402 1 $340 $-1 #
coedge $-1 $254 $409 $406 $410 0 $340 $-1 #
loop $411 $-1 $409 $306 #
edge_name-twe-attrib $-1 $-1 $-1 $255 35 8704 #
vertex $-1 $255 $412 #
straight-curve $413 0.3375 -0.304466988686274 -0.125 0 0 -1 #
surf-twe-attrib $-1 $-1 $-1 $257 171 #
cur-twe-attrib $-1 $-1 $-1 $259 176 #
coedge $-1 $312 $260 $409 $414 0 $50 $-1 #
coedge $-1 $263 $406 $260 $348 0 $217 $-1 #
edge $415 $416 $266 $347 $417 0 #
edge_name-twe-attrib $-1 $-1 $-1 $264 23 8704 #
straight-curve $418 -0.407639764156765 -1e-15 -0.125 -0.0418031011528021 -0.999125868313902 0 #
point $-1 -0.397179845522252 0.25 -0.125 #
cur-twe-attrib $-1 $419 $-1 $267 182 #
edge_name-twe-attrib $-1 $-1 $-1 $271 40 8704 #
ellipse-curve $420 0.350570897574032 -0.334466988686274 -0.125 0 0 1 -0.0216721600163565 0.0207440950688489 0 1 #
point $-1 0.350570897574032 -0.304466988686274 -0.125 #
cur-twe-attrib $-1 $421 $-1 $274 167 #
surf-twe-attrib $-1 $422 $-1 $276 243 #
cur-twe-attrib $-1 $-1 $-1 $278 197 #
cur-twe-attrib $-1 $-1 $280 $200 125 #
cur-twe-attrib $-1 $-1 $282 $203 126 #
colour-tsl-attrib $-1 $-1 $283 $132 1 #
surf-twe-attrib $-1 $-1 $-1 $285 205 #
coedge $-1 $304 $423 $286 $364 1 $222 $-1 #
edge $424 $389 $367 $363 $425 0 #
coedge $-1 $291 $287 $423 $426 0 $316 $-1 #
edge_name-twe-attrib $-1 $-1 $-1 $288 24 8448 #
vertex $-1 $426 $427 #
straight-curve $428 -0.407639764156765 -2e-15 0.125 0 -1.06666666666667e-14 -1 #
coedge $-1 $423 $321 $290 $370 1 $222 $-1 #
edge $429 $372 $324 $369 $430 0 #
edge_name-twe-attrib $-1 $-1 $-1 $292 25 8448 #
vertex $-1 $426 $431 #
straight-curve $432 -0.407639764156765 -0.0357700092230577 0.125 -1.1842378929335e-15 8.32667268468867e-15 -1 #
cur-twe-attrib $-1 $433 $-1 $294 140 #
loop $434 $-1 $295 $435 #
edge_name-twe-attrib $-1 $-1 $-1 $296 46 4608 #
ellipse-curve $436 0.4375 0 0 -1 0 0 0 -0.25 0 1 #
cur-twe-attrib $-1 $-1 $298 $215 211 #
face_name-twe-attrib $-1 $-1 $-1 $301 12 #
plane-surface $437 -0.407639764156765 -0.445811164644669 0.3125 1 0 0 0 0 -1 0 #
surf-twe-attrib $-1 $-1 $-1 $302 218 #
edge $438 $439 $389 $304 $440 0 #
face_name-twe-attrib $-1 $-1 $-1 $306 14 #
plane-surface $441 0.3375 -0.445811164644669 0.125 1 0 0 0 0 -1 0 #
surf-twe-attrib $-1 $-1 $-1 $307 223 #
point $-1 -0.407639764156765 0 0.3125 #
cur-twe-attrib $-1 $-1 $-1 $311 227 #
edge_name-twe-attrib $-1 $-1 $-1 $313 8 8448 #
vertex $-1 $364 $442 #
straight-curve $443 -0.397179845522252 0.25 0.125 0 0 -1 #
loop_type-twe-attrib $-1 $-1 $-1 $316 0 #
cur-twe-attrib $-1 $-1 $-1 $318 236 #
edge_name-twe-attrib $-1 $-1 $-1 $322 42 8704 #
ellipse-curve $444 0.350570897574032 -0.334466988686274 0.125 0 0 1 -0.0216721600163565 0.0207440950688489 0 1 #
point $-1 0.328898737557675 -0.313722893617425 0.125 #
cur-twe-attrib $-1 $445 $-1 $325 241 #
face_name-twe-attrib $-1 $-1 $-1 $327 17 #
face $446 $447 $448 $3 $-1 $449 0 #
loop $450 $-1 $451 $327 #
plane-surface $452 2.5312 0 0 1 0 0 0 0 -1 0 #
surf-twe-attrib $-1 $-1 $-1 $328 243 #
edge $453 $439 $331 $338 $454 0 #
point $-1 0.3375 -0.304466988686274 0.125 #
cur-twe-attrib $-1 $-1 $-1 $332 247 #
cur-twe-attrib $-1 $-1 $334 $250 191 #
coedge $-1 $347 $336 $339 $410 1 $217 $-1 #
edge_name-twe-attrib $-1 $-1 $-1 $337 21 4608 #
straight-curve $455 0.3375 -0.304466988686274 -0.125 -1 0 0 #
coedge $-1 $339 $338 $346 $414 1 $340 $-1 #
edge $456 $416 $342 $339 $457 0 #
loop_type-twe-attrib $-1 $-1 $-1 $340 0 #
point $-1 0.3375 -0.304466988686274 -0.125 #
cur-twe-attrib $-1 $-1 $-1 $343 255 #
edge $458 $416 $439 $409 $459 0 #
edge_name-twe-attrib $-1 $-1 $-1 $348 22 8704 #
vertex $-1 $410 $460 #
straight-curve $461 -0.397179845522252 0.25 -0.125 -1 0 0 #
cur-twe-attrib $-1 $-1 $-1 $350 264 #
cur-twe-attrib $-1 $-1 $352 $267 313 #
cur-twe-attrib $-1 $-1 $-1 $354 271 #
cur-twe-attrib $-1 $-1 $356 $274 191 #
surf-twe-attrib $-1 $-1 $357 $276 193 #
coedge $-1 $363 $369 $365 $426 1 $222 $-1 #
edge_name-twe-attrib $-1 $-1 $-1 $364 32 8704 #
straight-curve $462 -0.407639764156765 -2e-15 0.125 -0.041803101152802 -0.999125868313902 0 #
edge $463 $367 $372 $423 $464 0 #
point $-1 -0.407639764156765 -2e-15 0.125 #
cur-twe-attrib $-1 $465 $-1 $368 288 #
edge_name-twe-attrib $-1 $-1 $-1 $370 30 8704 #
ellipse-curve $466 0.019825430278784 -0.01788500461153 0.125 0 0 1 0.309073307278891 -0.295837889005895 0 1 #
point $-1 -0.407639764156765 -0.0357700092230577 0.125 #
cur-twe-attrib $-1 $-1 $-1 $373 292 #
cur-twe-attrib $-1 $-1 $374 $294 211 #
loop_type-twe-attrib $-1 $-1 $-1 $375 1 #
face $467 $468 $469 $3 $-1 $470 0 #
cur-twe-attrib $-1 $-1 $-1 $377 296 #
surf-twe-attrib $-1 $-1 $-1 $380 301 #
edge_name-twe-attrib $-1 $-1 $-1 $382 28 8704 #
vertex $-1 $402 $471 #
straight-curve $472 -0.397179845522252 0.25 0.125 -1 0 0 #
surf-twe-attrib $-1 $-1 $-1 $384 306 #
point $-1 -0.397179845522252 0.25 0.125 #
cur-twe-attrib $-1 $473 $-1 $390 182 #
cur-twe-attrib $-1 $-1 $-1 $394 322 #
cur-twe-attrib $-1 $-1 $396 $325 125 #
face_name-twe-attrib $-1 $-1 $-1 $398 18 #
face $474 $435 $475 $3 $-1 $476 0 #
loop $477 $478 $479 $398 #
cone-surface $480 2.47852816599793 0 0 1 0 0 0 0.247181364905973 0 1 0.0534366800414944 0.99857123993541 0 #
loop_type-twe-attrib $-1 $-1 $-1 $399 0 #
coedge $-1 $451 $451 $481 $482 0 $399 $-1 #
surf-twe-attrib $-1 $-1 $-1 $400 327 #
edge_name-twe-attrib $-1 $-1 $-1 $402 36 4608 #
straight-curve $483 0.3375 -0.304466988686274 0.125 0 -1 0 #
cur-twe-attrib $-1 $-1 $-1 $408 337 #
edge_name-twe-attrib $-1 $-1 $-1 $410 34 4608 #
straight-curve $484 0.3375 -0.304466988686274 -0.125 0 -1 0 #
edge_name-twe-attrib $-1 $-1 $-1 $414 33 8704 #
straight-curve $485 0.3375 0.25 0.125 0 0 1 #
point $-1 0.3375 0.25 -0.125 #
cur-twe-attrib $-1 $-1 $-1 $417 348 #
cur-twe-attrib $-1 $-1 $-1 $425 364 #
edge_name-twe-attrib $-1 $-1 $-1 $426 31 8704 #
straight-curve $486 -0.407639764156765 -0.0357700092230577 0.125 -7.75945441963682e-15 -1 0 #
cur-twe-attrib $-1 $-1 $428 $368 126 #
cur-twe-attrib $-1 $-1 $-1 $430 370 #
face_name-twe-attrib $-1 $-1 $-1 $435 20 #
face $487 $488 $489 $3 $-1 $490 1 #
loop $491 $375 $492 $435 #
cone-surface $493 0.332815 0 0 1 0 0 0 -0.25 0 1 0 1 0 #
point $-1 0.3375 0.25 0.125 #
cur-twe-attrib $-1 $-1 $-1 $440 382 #
cur-twe-attrib $-1 $-1 $443 $390 313 #
face_name-twe-attrib $-1 $-1 $-1 $447 19 #
loop $494 $495 $496 $447 #
cone-surface $497 0.5875 0 0 -1 0 0 0 0.25 0 1 0.8 0.6 0 #
loop_type-twe-attrib $-1 $-1 $-1 $448 0 #
loop $498 $-1 $499 $398 #
coedge $-1 $479 $479 $500 $501 0 $448 $-1 #
surf-twe-attrib $-1 $-1 $-1 $449 398 #
coedge $-1 $481 $481 $451 $482 1 $502 $-1 #
edge $503 $504 $504 $481 $505 0 #
cur-twe-attrib $-1 $-1 $-1 $454 402 #
cur-twe-attrib $-1 $-1 $-1 $457 410 #
cur-twe-attrib $-1 $-1 $-1 $459 414 #
cur-twe-attrib $-1 $-1 $-1 $464 426 #
face_name-twe-attrib $-1 $-1 $-1 $468 21 #
face $506 $-1 $507 $3 $-1 $508 0 #
loop $509 $510 $511 $468 #
torus-surface $512 0.686483760146792 0 0 1 0 0 0.201354986470943 0.05 0 0 -1 0 #
loop_type-twe-attrib $-1 $-1 $-1 $469 0 #
coedge $-1 $492 $492 $513 $514 1 $469 $-1 #
surf-twe-attrib $-1 $-1 $-1 $470 435 #
loop_type-twe-attrib $-1 $-1 $-1 $475 0 #
loop $515 $-1 $513 $447 #
coedge $-1 $496 $496 $511 $516 0 $475 $-1 #
surf-twe-attrib $-1 $-1 $-1 $476 447 #
loop_type-twe-attrib $-1 $-1 $-1 $478 1 #
coedge $-1 $499 $499 $517 $518 0 $478 $-1 #
coedge $-1 $500 $500 $479 $501 1 $507 $-1 #
edge $519 $520 $520 $500 $521 0 #
loop $522 $-1 $481 $488 #
edge_name-twe-attrib $-1 $-1 $-1 $482 50 24576 #
vertex $-1 $482 $523 #
ellipse-curve $524 2.5312 0 0 1 0 0 0 0.197252802909203 0 1 #
face_name-twe-attrib $-1 $-1 $-1 $488 22 #
loop $525 $502 $500 $488 #
torus-surface $526 2.4812 0 0 1 0 0 0.197252802909203 0.05 0 0 -1 0 #
loop_type-twe-attrib $-1 $-1 $-1 $489 0 #
loop $527 $-1 $517 $468 #
coedge $-1 $511 $511 $496 $516 1 $489 $-1 #
surf-twe-attrib $-1 $-1 $-1 $490 468 #
coedge $-1 $513 $513 $492 $514 0 $495 $-1 #
edge $528 $529 $529 $492 $530 0 #
loop_type-twe-attrib $-1 $-1 $-1 $495 1 #
edge $531 $532 $532 $511 $533 0 #
coedge $-1 $517 $517 $499 $518 1 $510 $-1 #
edge $534 $535 $535 $517 $536 0 #
edge_name-twe-attrib $-1 $-1 $-1 $501 49 24576 #
vertex $-1 $501 $537 #
ellipse-curve $538 2.47852816599793 0 0 -1 0 0 0 0.247181364905973 0 1 #
loop_type-twe-attrib $-1 $-1 $-1 $502 1 #
point $-1 2.5312 0.197252802909203 0 #
cur-twe-attrib $-1 $-1 $-1 $505 482 #
loop_type-twe-attrib $-1 $-1 $-1 $507 0 #
surf-twe-attrib $-1 $-1 $-1 $508 488 #
loop_type-twe-attrib $-1 $-1 $-1 $510 1 #
edge_name-twe-attrib $-1 $-1 $-1 $514 45 8448 #
vertex $-1 $514 $539 #
ellipse-curve $540 0.5875 0 0 1 0 0 0 0.25 0 1 #
edge_name-twe-attrib $-1 $-1 $-1 $516 47 24576 #
vertex $-1 $516 $541 #
ellipse-curve $542 0.646483760146792 0 0 -1 0 0 0 0.171354986470943 0 1 #
edge_name-twe-attrib $-1 $-1 $-1 $518 48 24576 #
vertex $-1 $518 $543 #
ellipse-curve $544 0.689155594148867 0 0 1 0 0 0 0.151426424474173 0 1 #
point $-1 2.47852816599793 -0.247181364905973 0 #
cur-twe-attrib $-1 $-1 $-1 $521 501 #
point $-1 0.5875 -0.25 3.06161646971843e-17 #
cur-twe-attrib $-1 $-1 $-1 $530 514 #
point $-1 0.646483760146792 -0.171354986470943 0 #
cur-twe-attrib $-1 $-1 $-1 $533 516 #
point $-1 0.689155594148867 -0.151426424474173 0 #
cur-twe-attrib $-1 $-1 $-1 $536 518 #
