600 0 1 0           
92 GICL ACIS Healer - Source: /gicl/data5/repository/UIUC/pocketIslands/pocketIslands.sat - 6 0 18 ACIS 6.0.3 Solaris 24 Sun Apr 14 00:06:27 2002 
1 9.999999999999999547e-07 1.000000000000000036e-10 
body $1 $2 $-1 $-1 #
named_string_attribute-named_attribute-st-attrib $-1 $3 $-1 $0 4 name 13 pocketIslands #
lump $-1 $-1 $4 $0 #
rgb_color-st-attrib $-1 $-1 $1 $0 0 1 0 #
shell $-1 $-1 $-1 $5 $-1 $2 #
face $-1 $6 $7 $4 $-1 $8 reversed single #
face $-1 $9 $10 $4 $-1 $11 reversed single #
loop $-1 $12 $13 $5 #
cone-surface $-1 17.25 10 3 0 0 -1 2.5 0 0 1 I I 0 1 2.5 forward I I I I #
face $-1 $14 $15 $4 $-1 $16 forward single #
loop $-1 $-1 $17 $6 #
plane-surface $-1 19.75 10 2 0 0 -1 -1 0 0 forward_v I I I I #
loop $-1 $-1 $18 $5 #
coedge $-1 $13 $13 $19 $20 reversed $7 $-1 #
face $-1 $21 $22 $4 $-1 $23 forward single #
loop $-1 $24 $25 $9 #
plane-surface $-1 15 15 15 0 0 1 1 0 0 forward_v I I I I #
coedge $-1 $17 $17 $18 $26 forward $10 $-1 #
coedge $-1 $18 $18 $17 $26 reversed $12 $-1 #
coedge $-1 $19 $19 $13 $20 forward $27 $-1 #
edge $-1 $28 0 $28 6.283185307179586232 $19 $29 forward 7 unknown #
face $-1 $30 $31 $4 $-1 $32 forward single #
loop $-1 $-1 $33 $14 #
cone-surface $-1 7 7 12.5 -0 -0 -1 -1.414213562373094923 -1.414213562373094923 0 1 I I 0 -1 1.999999999999999778 forward I I I I #
loop $-1 $-1 $34 $9 #
coedge $-1 $35 $36 $37 $38 reversed $15 $-1 #
edge $-1 $39 0 $39 6.283185307179586232 $18 $40 forward 7 unknown #
loop $-1 $41 $19 $42 #
vertex $-1 $20 $43 #
ellipse-curve $-1 17.25 10 5 -0 -0 -1 2.5 0 0 1 I I #
face $-1 $44 $45 $4 $-1 $46 forward single #
loop $-1 $-1 $47 $21 #
plane-surface $-1 15 5 12.5 0 1 0 0 0 1 forward_v I I I I #
coedge $-1 $48 $49 $50 $51 forward $22 $-1 #
coedge $-1 $52 $53 $54 $55 reversed $24 $-1 #
coedge $-1 $56 $25 $57 $58 reversed $15 $-1 #
coedge $-1 $25 $59 $60 $61 reversed $15 $-1 #
coedge $-1 $62 $63 $25 $38 forward $64 $-1 #
edge $-1 $65 -0.785398163397448279 $66 0.785398163397448279 $37 $67 forward 7 unknown #
vertex $-1 $26 $68 #
ellipse-curve $-1 17.25 10 2 0 0 1 2.5 0 0 1 I I #
loop $-1 $69 $70 $42 #
face $-1 $71 $27 $4 $-1 $72 forward single #
point $-1 19.75 10 5 #
face $-1 $73 $74 $4 $-1 $75 forward single #
loop $-1 $-1 $76 $30 #
cone-surface $-1 23 7 12.5 0 0 -1 1.414213562373094923 -1.414213562373094923 0 1 I I 0 -1 1.999999999999999778 forward I I I I #
coedge $-1 $77 $78 $79 $80 forward $31 $-1 #
coedge $-1 $81 $33 $78 $82 forward $22 $-1 #
coedge $-1 $33 $81 $83 $84 forward $22 $-1 #
coedge $-1 $85 $79 $33 $51 reversed $15 $-1 #
edge $-1 $86 -0.785398163397448279 $87 0.785398163397448279 $33 $88 forward 7 unknown #
coedge $-1 $89 $34 $90 $91 reversed $24 $-1 #
coedge $-1 $34 $89 $92 $93 reversed $24 $-1 #
coedge $-1 $94 $95 $34 $55 forward $96 $-1 #
edge $-1 $97 -15 $98 15 $54 $99 forward 7 unknown #
coedge $-1 $79 $35 $76 $100 reversed $15 $-1 #
coedge $-1 $101 $102 $35 $58 forward $74 $-1 #
edge $-1 $103 -8 $65 8 $57 $104 forward 7 unknown #
coedge $-1 $36 $85 $105 $106 reversed $15 $-1 #
coedge $-1 $107 $108 $36 $61 forward $109 $-1 #
edge $-1 $66 -8 $110 8 $60 $111 forward 7 unknown #
coedge $-1 $112 $37 $108 $113 forward $64 $-1 #
coedge $-1 $37 $112 $101 $114 forward $64 $-1 #
loop $-1 $-1 $37 $115 #
vertex $-1 $38 $116 #
vertex $-1 $113 $117 #
ellipse-curve $-1 23 23 15 0 0 1 1.414213562373094923 1.414213562373094923 0 1 I I #
point $-1 19.75 10 2 #
loop $-1 $118 $119 $42 #
coedge $-1 $120 $121 $122 $123 forward $41 $-1 #
face $-1 $115 $124 $4 $-1 $125 forward single #
plane-surface $-1 15 15 5 0 0 1 1 0 0 forward_v I I I I #
face $-1 $126 $127 $4 $-1 $128 reversed single #
loop $-1 $-1 $57 $44 #
plane-surface $-1 25 15 12.5 -1 0 0 0 0 1 forward_v I I I I #
coedge $-1 $129 $130 $56 $100 forward $45 $-1 #
coedge $-1 $131 $47 $130 $132 reversed $31 $-1 #
coedge $-1 $47 $131 $48 $82 reversed $31 $-1 #
coedge $-1 $50 $56 $47 $80 reversed $15 $-1 #
edge $-1 $87 -8 $133 8 $47 $134 forward 7 unknown #
coedge $-1 $49 $48 $135 $136 reversed $22 $-1 #
edge $-1 $87 -2.5 $137 7.5 $78 $138 forward 7 unknown #
coedge $-1 $139 $140 $49 $84 reversed $124 $-1 #
edge $-1 $141 -7.5 $86 2.5 $83 $142 forward 7 unknown #
coedge $-1 $59 $50 $140 $143 reversed $15 $-1 #
vertex $-1 $143 $144 #
vertex $-1 $82 $145 #
ellipse-curve $-1 7 7 15 0 0 1 -1.414213562373094923 -1.414213562373094923 0 1 I I #
coedge $-1 $53 $52 $146 $147 reversed $24 $-1 #
coedge $-1 $148 $149 $52 $91 forward $127 $-1 #
edge $-1 $150 -15 $97 15 $90 $151 forward 7 unknown #
coedge $-1 $152 $153 $53 $93 forward $154 $-1 #
edge $-1 $98 -15 $155 15 $92 $156 forward 7 unknown #
coedge $-1 $157 $54 $153 $158 forward $96 $-1 #
coedge $-1 $54 $157 $148 $159 reversed $96 $-1 #
loop $-1 $-1 $54 $126 #
vertex $-1 $159 $160 #
vertex $-1 $158 $161 #
straight-curve $-1 30 15 15 0 -1 0 I I #
edge $-1 $133 -0.785398163397448279 $103 0.785398163397448279 $76 $162 forward 7 unknown #
coedge $-1 $163 $57 $63 $114 reversed $74 $-1 #
coedge $-1 $57 $163 $129 $164 reversed $74 $-1 #
vertex $-1 $164 $165 #
straight-curve $-1 25 15 15 0 1 0 I I #
coedge $-1 $166 $167 $59 $106 forward $168 $-1 #
edge $-1 $110 -0.785398163397448279 $169 0.785398163397448279 $105 $170 forward 7 unknown #
coedge $-1 $171 $60 $167 $172 reversed $109 $-1 #
coedge $-1 $60 $171 $62 $113 reversed $109 $-1 #
loop $-1 $-1 $60 $173 #
vertex $-1 $61 $174 #
straight-curve $-1 15 25 15 -1 0 0 I I #
coedge $-1 $63 $62 $175 $176 reversed $64 $-1 #
edge $-1 $66 -2.5 $177 7.5 $108 $178 forward 7 unknown #
edge $-1 $179 -7.5 $65 2.5 $101 $180 forward 7 unknown #
face $-1 $181 $64 $4 $-1 $182 forward single #
point $-1 25 23 15 #
point $-1 23 25 15 #
loop $-1 $183 $184 $42 #
coedge $-1 $185 $186 $187 $188 forward $69 $-1 #
coedge $-1 $175 $70 $163 $189 reversed $41 $-1 #
coedge $-1 $70 $135 $131 $190 reversed $41 $-1 #
coedge $-1 $130 $129 $70 $123 reversed $45 $-1 #
edge $-1 $191 -0.785398163397448279 $192 0.785398163397448279 $70 $193 forward 7 unknown #
loop $-1 $-1 $140 $71 #
plane-surface $-1 5 15 12.5 1 0 0 0 0 -1 forward_v I I I I #
face $-1 $194 $96 $4 $-1 $195 reversed single #
loop $-1 $-1 $90 $73 #
plane-surface $-1 15 30 10 0 -1 0 0 0 -1 forward_v I I I I #
coedge $-1 $122 $76 $102 $164 forward $45 $-1 #
coedge $-1 $76 $122 $77 $132 forward $45 $-1 #
coedge $-1 $78 $77 $121 $190 forward $31 $-1 #
edge $-1 $191 -7.5 $133 2.5 $77 $196 forward 7 unknown #
vertex $-1 $100 $197 #
straight-curve $-1 15 5 15 1 0 0 I I #
coedge $-1 $121 $198 $81 $136 forward $41 $-1 #
edge $-1 $141 -0.785398163397448279 $137 0.785398163397448279 $135 $199 forward 7 unknown #
vertex $-1 $136 $200 #
straight-curve $-1 7 5 12.5 0 0 -1 F -13.69999999999999929 F 13.69999999999999929 #
coedge $-1 $201 $83 $198 $202 forward $124 $-1 #
coedge $-1 $83 $201 $85 $143 forward $124 $-1 #
vertex $-1 $202 $203 #
straight-curve $-1 5 7 12.5 0 0 1 F -13.69999999999999929 F 13.69999999999999929 #
edge $-1 $169 -8 $86 8 $140 $204 forward 7 unknown #
point $-1 5 7 15 #
point $-1 7 5 15 #
coedge $-1 $205 $206 $89 $147 forward $207 $-1 #
edge $-1 $155 -15 $150 15 $146 $208 forward 7 unknown #
coedge $-1 $209 $90 $95 $159 forward $127 $-1 #
coedge $-1 $90 $209 $205 $210 reversed $127 $-1 #
vertex $-1 $210 $211 #
straight-curve $-1 15 30 15 1 0 0 I I #
coedge $-1 $212 $92 $206 $213 forward $154 $-1 #
coedge $-1 $92 $212 $94 $158 reversed $154 $-1 #
loop $-1 $-1 $92 $194 #
vertex $-1 $213 $214 #
straight-curve $-1 15 0 15 -1 0 0 I I #
coedge $-1 $95 $94 $215 $216 reversed $96 $-1 #
edge $-1 $98 -5 $217 10 $94 $218 forward 7 unknown #
edge $-1 $97 -5 $219 10 $95 $220 forward 7 unknown #
point $-1 30 30 15 #
point $-1 30 0 15 #
ellipse-curve $-1 23 7 15 0 0 1 1.414213562373094923 -1.414213562373094923 0 1 I I #
coedge $-1 $102 $101 $120 $189 forward $74 $-1 #
edge $-1 $103 -2.5 $192 7.5 $102 $221 forward 7 unknown #
point $-1 25 7 15 #
coedge $-1 $222 $105 $201 $223 forward $168 $-1 #
coedge $-1 $105 $222 $107 $172 forward $168 $-1 #
loop $-1 $-1 $105 $224 #
vertex $-1 $223 $225 #
ellipse-curve $-1 7 23 15 0 0 1 -1.414213562373094923 1.414213562373094923 0 1 I I #
coedge $-1 $108 $107 $226 $227 forward $109 $-1 #
edge $-1 $228 -7.5 $110 2.5 $107 $229 forward 7 unknown #
face $-1 $230 $109 $4 $-1 $231 forward single #
point $-1 7 25 15 #
coedge $-1 $226 $120 $112 $176 forward $41 $-1 #
edge $-1 $179 -0.785398163397448279 $177 0.785398163397448279 $175 $232 forward 7 unknown #
vertex $-1 $176 $233 #
straight-curve $-1 23 25 12.5 0 0 -1 F -13.69999999999999929 F 13.69999999999999929 #
vertex $-1 $189 $234 #
straight-curve $-1 25 23 12.5 0 0 1 F -13.69999999999999929 F 13.69999999999999929 #
face $-1 $235 $236 $4 $-1 $237 forward single #
cone-surface $-1 23 23 12.5 -0 -0 -1 1.414213562373094923 1.414213562373094923 0 1 I I 0 -1 1.999999999999999778 forward I I I I #
loop $-1 $-1 $238 $42 #
coedge $-1 $184 $184 $239 $240 forward $118 $-1 #
coedge $-1 $241 $119 $242 $243 forward $69 $-1 #
coedge $-1 $119 $241 $244 $245 forward $69 $-1 #
coedge $-1 $246 $247 $119 $188 reversed $248 $-1 #
edge $-1 $249 0.25 $250 5.25 $119 $251 forward 7 unknown #
edge $-1 $179 -8 $192 8 $163 $252 forward 7 unknown #
edge $-1 $191 -8 $137 8 $131 $253 forward 7 unknown #
vertex $-1 $190 $254 #
vertex $-1 $123 $255 #
ellipse-curve $-1 23 7 5 0 0 1 1.414213562373094923 -1.414213562373094923 0 1 I I #
face $-1 $224 $154 $4 $-1 $256 reversed single #
plane-surface $-1 30 15 10 -1 0 0 0 0 1 forward_v I I I I #
straight-curve $-1 23 5 12.5 0 0 1 F -13.69999999999999929 F 13.69999999999999929 #
point $-1 23 5 15 #
coedge $-1 $135 $257 $139 $202 reversed $41 $-1 #
ellipse-curve $-1 7 7 5 0 0 1 -1.414213562373094923 -1.414213562373094923 0 1 I I #
point $-1 7 5 5 #
coedge $-1 $140 $139 $166 $223 reversed $124 $-1 #
edge $-1 $141 -8 $258 8 $139 $259 forward 7 unknown #
point $-1 5 7 5 #
straight-curve $-1 5 15 15 0 -1 0 I I #
coedge $-1 $260 $146 $149 $210 forward $207 $-1 #
coedge $-1 $146 $260 $152 $213 reversed $207 $-1 #
loop $-1 $-1 $146 $261 #
straight-curve $-1 0 15 15 0 1 0 I I #
coedge $-1 $149 $148 $262 $263 reversed $127 $-1 #
edge $-1 $150 -5 $264 10 $149 $265 forward 7 unknown #
point $-1 0 30 15 #
coedge $-1 $153 $152 $266 $267 reversed $154 $-1 #
edge $-1 $155 -5 $268 10 $206 $269 forward 7 unknown #
point $-1 0 0 15 #
coedge $-1 $266 $262 $157 $216 forward $270 $-1 #
edge $-1 $219 -15 $217 15 $157 $271 forward 7 unknown #
vertex $-1 $158 $272 #
straight-curve $-1 30 0 10 0 0 -1 I I #
vertex $-1 $216 $273 #
straight-curve $-1 30 30 10 0 0 -1 I I #
straight-curve $-1 25 7 12.5 0 0 -1 F -13.69999999999999929 F 13.69999999999999929 #
coedge $-1 $167 $166 $257 $274 reversed $168 $-1 #
edge $-1 $169 -2.5 $258 7.5 $201 $275 forward 7 unknown #
face $-1 $42 $168 $4 $-1 $276 forward single #
point $-1 5 23 15 #
coedge $-1 $257 $175 $171 $227 reversed $41 $-1 #
edge $-1 $228 -8 $177 8 $171 $277 forward 7 unknown #
vertex $-1 $227 $278 #
straight-curve $-1 7 25 12.5 0 0 1 F -13.69999999999999929 F 13.69999999999999929 #
face $-1 $261 $270 $4 $-1 $279 reversed single #
plane-surface $-1 15 25 12.5 0 -1 0 0 0 -1 forward_v I I I I #
ellipse-curve $-1 23 23 5 0 0 1 1.414213562373094923 1.414213562373094923 0 1 I I #
point $-1 23 25 5 #
point $-1 25 23 5 #
face $-1 $280 $281 $4 $-1 $282 reversed single #
loop $-1 $-1 $283 $181 #
cone-surface $-1 21 17 8 0 0 -1 -1.414213562373095145 -1.414213562373094923 0 1 I I 0 1 2 forward I I I I #
coedge $-1 $284 $285 $286 $287 forward $183 $-1 #
coedge $-1 $239 $239 $184 $240 reversed $288 $-1 #
edge $-1 $289 0 $289 6.283185307179586232 $184 $290 forward 7 unknown #
coedge $-1 $186 $185 $291 $292 forward $69 $-1 #
coedge $-1 $293 $294 $185 $243 reversed $295 $-1 #
edge $-1 $250 -5.75 $296 1.25 $185 $297 forward 7 unknown #
coedge $-1 $298 $299 $186 $245 reversed $300 $-1 #
edge $-1 $301 -1.25 $249 5.75 $186 $302 forward 7 unknown #
coedge $-1 $303 $187 $299 $304 reversed $248 $-1 #
coedge $-1 $187 $303 $293 $305 forward $248 $-1 #
loop $-1 $-1 $247 $306 #
vertex $-1 $188 $307 #
vertex $-1 $188 $308 #
straight-curve $-1 12.25 7 5 -1 0 0 I I #
straight-curve $-1 25 15 5 0 -1 0 I I #
straight-curve $-1 15 5 5 -1 0 0 I I #
point $-1 23 5 5 #
point $-1 25 7 5 #
plane-surface $-1 15 0 10 0 1 0 0 0 1 forward_v I I I I #
coedge $-1 $198 $226 $222 $274 forward $41 $-1 #
vertex $-1 $223 $309 #
straight-curve $-1 5 15 5 0 1 0 I I #
coedge $-1 $206 $205 $310 $311 reversed $207 $-1 #
face $-1 $-1 $207 $4 $-1 $312 reversed single #
coedge $-1 $215 $310 $209 $263 forward $270 $-1 #
edge $-1 $264 -15 $219 15 $209 $313 forward 7 unknown #
vertex $-1 $263 $314 #
straight-curve $-1 0 30 10 0 0 -1 I I #
coedge $-1 $310 $215 $212 $267 forward $270 $-1 #
edge $-1 $217 -15 $268 15 $212 $315 forward 7 unknown #
vertex $-1 $311 $316 #
straight-curve $-1 0 0 10 0 0 -1 I I #
loop $-1 $-1 $215 $230 #
straight-curve $-1 30 15 0 0 -1 0 I I #
point $-1 30 0 0 #
point $-1 30 30 0 #
edge $-1 $228 -0.785398163397448279 $258 0.785398163397448279 $257 $317 forward 7 unknown #
straight-curve $-1 5 23 12.5 0 0 -1 F -13.69999999999999929 F 13.69999999999999929 #
cone-surface $-1 7 23 12.5 0 0 -1 -1.414213562373094923 1.414213562373094923 0 1 I I 0 -1 1.999999999999999778 forward I I I I #
straight-curve $-1 15 25 5 1 0 0 I I #
point $-1 7 25 5 #
plane-surface $-1 15 15 0 0 0 1 1 0 0 forward_v I I I I #
face $-1 $318 $319 $4 $-1 $320 forward single #
loop $-1 $-1 $321 $235 #
plane-surface $-1 19 18.5 8 1 -1.224646799147353207e-16 0 0 0 1 forward_v I I I I #
coedge $-1 $322 $323 $324 $325 forward $236 $-1 #
coedge $-1 $326 $238 $327 $328 forward $183 $-1 #
coedge $-1 $238 $329 $330 $331 forward $183 $-1 #
coedge $-1 $332 $333 $238 $287 reversed $334 $-1 #
edge $-1 $335 -0.785398163397448279 $336 0.785398163397448279 $238 $337 forward 7 unknown #
loop $-1 $338 $239 $339 #
vertex $-1 $240 $340 #
ellipse-curve $-1 15 15 5 -0 -0 -1 2 0 0 1 I I #
coedge $-1 $341 $342 $241 $292 reversed $343 $-1 #
edge $-1 $296 -5.25 $301 -0.25 $241 $344 forward 7 unknown #
coedge $-1 $345 $242 $247 $305 reversed $295 $-1 #
coedge $-1 $242 $345 $341 $346 forward $295 $-1 #
loop $-1 $-1 $294 $347 #
vertex $-1 $243 $348 #
straight-curve $-1 7 12.75 5 0 1 0 I I #
coedge $-1 $349 $244 $342 $350 reversed $300 $-1 #
coedge $-1 $244 $349 $246 $304 forward $300 $-1 #
loop $-1 $-1 $299 $351 #
vertex $-1 $292 $352 #
straight-curve $-1 12 12.75 5 0 -1 0 I I #
coedge $-1 $247 $246 $353 $354 reversed $248 $-1 #
edge $-1 $355 -2 $249 2 $299 $356 forward 7 unknown #
edge $-1 $357 -2 $250 2 $293 $358 forward 7 unknown #
face $-1 $347 $248 $4 $-1 $359 reversed single #
point $-1 12 7 5 #
point $-1 7 7 5 #
point $-1 5 23 5 #
coedge $-1 $262 $266 $260 $311 forward $270 $-1 #
edge $-1 $268 -15 $264 15 $260 $360 forward 7 unknown #
plane-surface $-1 0 15 10 1 0 0 0 0 -1 forward_v I I I I #
straight-curve $-1 15 30 0 1 0 0 I I #
point $-1 0 30 0 #
straight-curve $-1 15 0 0 -1 0 0 I I #
point $-1 0 0 0 #
ellipse-curve $-1 7 23 5 0 0 1 -1.414213562373094923 1.414213562373094923 0 1 I I #
face $-1 $361 $362 $4 $-1 $363 forward single #
loop $-1 $-1 $364 $280 #
plane-surface $-1 17 21 11 0 0 1 -1 1.224646799147353207e-16 0 forward_v I I I I #
coedge $-1 $365 $330 $366 $367 reversed $281 $-1 #
coedge $-1 $366 $283 $364 $368 forward $236 $-1 #
coedge $-1 $283 $366 $329 $369 reversed $236 $-1 #
coedge $-1 $370 $371 $283 $325 reversed $372 $-1 #
edge $-1 $373 -3 $374 3 $324 $375 forward 7 unknown #
coedge $-1 $376 $284 $377 $378 forward $183 $-1 #
coedge $-1 $379 $380 $284 $328 reversed $381 $-1 #
edge $-1 $336 -1 $382 2 $284 $383 forward 7 unknown #
coedge $-1 $285 $384 $323 $369 forward $183 $-1 #
coedge $-1 $321 $385 $285 $331 reversed $281 $-1 #
edge $-1 $386 0.25 $335 1.25 $285 $387 forward 7 unknown #
coedge $-1 $388 $286 $385 $389 forward $334 $-1 #
coedge $-1 $286 $388 $379 $390 forward $334 $-1 #
loop $-1 $-1 $333 $391 #
vertex $-1 $389 $392 #
vertex $-1 $328 $393 #
ellipse-curve $-1 17 18 5 0 0 1 1.414213562373094923 1.414213562373094923 0 1 I I #
loop $-1 $-1 $394 $339 #
face $-1 $395 $288 $4 $-1 $396 forward single #
point $-1 17 15 5 #
coedge $-1 $397 $291 $294 $346 reversed $343 $-1 #
coedge $-1 $291 $397 $298 $350 forward $343 $-1 #
loop $-1 $-1 $342 $398 #
straight-curve $-1 12.25 14 5 1 0 0 I I #
coedge $-1 $294 $293 $399 $400 reversed $295 $-1 #
edge $-1 $401 -2 $296 2 $341 $402 forward 7 unknown #
face $-1 $398 $295 $4 $-1 $403 reversed single #
point $-1 7 14 5 #
coedge $-1 $299 $298 $404 $405 reversed $300 $-1 #
edge $-1 $406 -2 $301 2 $298 $407 forward 7 unknown #
face $-1 $173 $300 $4 $-1 $408 reversed single #
point $-1 12 14 5 #
coedge $-1 $404 $399 $303 $354 forward $409 $-1 #
edge $-1 $357 -2.5 $355 2.5 $303 $410 forward 7 unknown #
vertex $-1 $405 $411 #
straight-curve $-1 12 7 7 0 0 -1 I I #
vertex $-1 $400 $412 #
straight-curve $-1 7 7 7 0 0 -1 I I #
plane-surface $-1 9.5 7 7 0 1 0 0 0 1 forward_v I I I I #
straight-curve $-1 0 15 0 0 1 0 I I #
face $-1 $391 $381 $4 $-1 $413 reversed single #
loop $-1 $-1 $414 $318 #
cone-surface $-1 14 22 8 0 0 -1 -1.414213562373095368 -1.414213562373094701 0 1 I I 0 1 2 forward I I I I #
coedge $-1 $415 $416 $322 $368 reversed $319 $-1 #
coedge $-1 $385 $321 $416 $417 reversed $281 $-1 #
coedge $-1 $323 $322 $321 $367 forward $236 $-1 #
edge $-1 $418 -3 $386 3 $321 $419 forward 7 unknown #
edge $-1 $374 -0.78539816339744839 $418 0.785398163397448279 $364 $420 forward 7 unknown #
edge $-1 $373 -0.78539816339744839 $386 0.785398163397448279 $329 $421 forward 7 unknown #
coedge $-1 $422 $324 $384 $423 reversed $372 $-1 #
coedge $-1 $324 $422 $415 $424 reversed $372 $-1 #
loop $-1 $-1 $324 $425 #
vertex $-1 $369 $426 #
vertex $-1 $424 $427 #
straight-curve $-1 21 15 8 0 0 1 F -9.199999999999999289 F 9.199999999999999289 #
coedge $-1 $428 $326 $429 $430 forward $183 $-1 #
coedge $-1 $414 $431 $326 $378 reversed $362 $-1 #
edge $-1 $382 -0.785398163397448501 $432 0.785398163397448057 $326 $433 forward 7 unknown #
coedge $-1 $434 $327 $333 $390 reversed $381 $-1 #
coedge $-1 $327 $434 $414 $435 reversed $381 $-1 #
loop $-1 $-1 $380 $361 #
vertex $-1 $378 $436 #
straight-curve $-1 16 20 5 -1 1.224646799147353207e-16 0 I I #
coedge $-1 $329 $428 $370 $423 forward $183 $-1 #
coedge $-1 $330 $365 $332 $389 reversed $281 $-1 #
vertex $-1 $331 $437 #
straight-curve $-1 19 16.75 5 1.224646799147353207e-16 1 0 I I #
coedge $-1 $333 $332 $438 $439 reversed $334 $-1 #
edge $-1 $335 -3 $440 3 $385 $441 forward 7 unknown #
edge $-1 $442 -3 $336 3 $379 $443 forward 7 unknown #
face $-1 $425 $334 $4 $-1 $444 forward single #
point $-1 19 18 5 #
point $-1 17 20 5 #
coedge $-1 $394 $394 $445 $446 reversed $338 $-1 #
face $-1 $447 $448 $4 $-1 $449 forward single #
cone-surface $-1 15 15 7.5 0 0 1 2 0 0 1 I I 0 1 2 forward I I I I #
coedge $-1 $342 $341 $450 $451 reversed $343 $-1 #
face $-1 $351 $343 $4 $-1 $452 reversed single #
coedge $-1 $353 $450 $345 $400 forward $409 $-1 #
edge $-1 $401 -3.5 $357 3.5 $345 $453 forward 7 unknown #
vertex $-1 $451 $454 #
straight-curve $-1 7 14 7 0 0 -1 I I #
plane-surface $-1 7 10.5 7 1 0 0 0 0 -1 forward_v I I I I #
coedge $-1 $450 $353 $349 $405 forward $409 $-1 #
edge $-1 $355 -3.5 $406 3.5 $349 $455 forward 7 unknown #
vertex $-1 $405 $456 #
straight-curve $-1 12 14 7 0 0 -1 I I #
plane-surface $-1 12 10.5 7 -1 0 0 0 0 1 forward_v I I I I #
loop $-1 $-1 $404 $447 #
straight-curve $-1 9.5 7 9 1 0 0 I I #
point $-1 12 7 9 #
point $-1 7 7 9 #
plane-surface $-1 17 20 8 1.224646799147353207e-16 1 0 0 0 -1 forward_v I I I I #
coedge $-1 $457 $377 $380 $435 forward $362 $-1 #
coedge $-1 $458 $364 $371 $424 forward $319 $-1 #
coedge $-1 $364 $438 $365 $417 forward $319 $-1 #
edge $-1 $440 0.5 $418 1.5 $365 $459 forward 7 unknown #
vertex $-1 $368 $460 #
straight-curve $-1 19 17 8 0 0 -1 F -9.199999999999999289 F 9.199999999999999289 #
ellipse-curve $-1 21 17 11 -0 -0 -1 -1.414213562373095145 -1.414213562373094923 0 1 I I #
ellipse-curve $-1 21 17 5 -0 -0 -1 -1.414213562373095145 -1.414213562373094923 0 1 I I #
coedge $-1 $371 $370 $461 $462 reversed $372 $-1 #
edge $-1 $463 -4.25 $373 -3.25 $384 $464 forward 7 unknown #
edge $-1 $374 0.5 $465 1.5 $371 $466 forward 7 unknown #
face $-1 $467 $372 $4 $-1 $468 reversed single #
point $-1 21 15 5 #
point $-1 21 15 11 #
coedge $-1 $384 $376 $469 $470 forward $183 $-1 #
coedge $-1 $471 $472 $376 $430 reversed $473 $-1 #
edge $-1 $432 -4 $474 6 $376 $475 forward 7 unknown #
coedge $-1 $377 $457 $471 $476 forward $362 $-1 #
vertex $-1 $430 $477 #
ellipse-curve $-1 14 22 5 -0 -0 -1 -1.414213562373095368 -1.414213562373094701 0 1 I I #
coedge $-1 $380 $379 $478 $479 reversed $381 $-1 #
edge $-1 $382 -3 $480 3 $380 $481 forward 7 unknown #
point $-1 14 20 5 #
point $-1 19 17 5 #
coedge $-1 $416 $478 $388 $439 forward $319 $-1 #
edge $-1 $442 -0.785398163397448279 $440 0.785398163397448279 $438 $482 forward 7 unknown #
vertex $-1 $417 $483 #
straight-curve $-1 19 18 8 0 0 1 F -9.199999999999999289 F 9.199999999999999289 #
vertex $-1 $439 $484 #
straight-curve $-1 17 20 8 -0 -0 -1 F -9.199999999999999289 F 9.199999999999999289 #
cone-surface $-1 17 18 8 0 0 1 1.414213562373094923 1.414213562373094923 0 1 I I 0 -1 1.999999999999999778 forward I I I I #
coedge $-1 $445 $445 $394 $446 forward $448 $-1 #
edge $-1 $485 0 $485 6.283185307179586232 $445 $486 forward 7 unknown #
face $-1 $306 $409 $4 $-1 $487 forward single #
loop $-1 $-1 $445 $395 #
plane-surface $-1 15 15 10 0 0 1 1 0 0 forward_v I I I I #
coedge $-1 $399 $404 $397 $451 forward $409 $-1 #
edge $-1 $406 -2.5 $401 2.5 $397 $488 forward 7 unknown #
plane-surface $-1 9.5 14 7 0 -1 0 0 0 -1 forward_v I I I I #
straight-curve $-1 7 10.5 9 0 -1 0 I I #
point $-1 7 14 9 #
straight-curve $-1 12 10.5 9 0 1 0 I I #
point $-1 12 14 9 #
coedge $-1 $431 $414 $489 $490 forward $362 $-1 #
coedge $-1 $491 $415 $492 $493 forward $319 $-1 #
straight-curve $-1 19 18.5 11 -1.224646799147353207e-16 -1 0 I I #
point $-1 19 17 11 #
coedge $-1 $469 $492 $422 $462 forward $494 $-1 #
edge $-1 $465 -3 $463 3 $422 $495 forward 7 unknown #
vertex $-1 $423 $496 #
straight-curve $-1 17.75 15 5 -1 1.224646799147353207e-16 0 I I #
vertex $-1 $424 $497 #
straight-curve $-1 20.5 15 11 1 -1.224646799147353207e-16 0 I I #
face $-1 $498 $473 $4 $-1 $499 reversed single #
plane-surface $-1 20.5 15 8 1.224646799147353207e-16 1 0 0 0 -1 forward_v I I I I #
coedge $-1 $500 $461 $428 $470 reversed $494 $-1 #
edge $-1 $474 -4 $463 3 $428 $501 forward 7 unknown #
coedge $-1 $502 $429 $431 $476 reversed $473 $-1 #
coedge $-1 $429 $502 $500 $503 forward $473 $-1 #
loop $-1 $-1 $429 $467 #
vertex $-1 $430 $504 #
straight-curve $-1 16 22 5 1 -1.224646799147353207e-16 0 I I #
edge $-1 $505 -3 $432 3 $471 $506 forward 7 unknown #
point $-1 12 22 5 #
coedge $-1 $438 $489 $434 $479 forward $319 $-1 #
edge $-1 $480 -3 $442 0 $434 $507 forward 7 unknown #
vertex $-1 $479 $508 #
straight-curve $-1 14 20 8 0 0 1 F -9.199999999999999289 F 9.199999999999999289 #
ellipse-curve $-1 17 18 11 -0 -0 -1 1.414213562373094923 1.414213562373094923 0 1 I I #
point $-1 19 18 11 #
point $-1 17 20 11 #
vertex $-1 $446 $509 #
ellipse-curve $-1 15 15 10 0 0 1 2 0 0 1 I I #
plane-surface $-1 9.5 10.5 9 0 0 1 1 0 0 forward_v I I I I #
straight-curve $-1 9.5 14 9 -1 0 0 I I #
coedge $-1 $478 $491 $457 $490 reversed $319 $-1 #
edge $-1 $480 -0.785398163397448501 $505 0.785398163397448057 $489 $510 forward 7 unknown #
coedge $-1 $489 $458 $502 $511 forward $319 $-1 #
coedge $-1 $461 $500 $458 $493 reversed $494 $-1 #
edge $-1 $465 -6 $512 1 $492 $513 forward 7 unknown #
loop $-1 $-1 $469 $498 #
straight-curve $-1 22 15 8 0 0 -1 I I #
point $-1 22 15 5 #
point $-1 22 15 11 #
face $-1 $339 $494 $4 $-1 $514 reversed single #
plane-surface $-1 17 22 8 -1.224646799147353207e-16 -1 0 0 0 1 forward_v I I I I #
coedge $-1 $492 $469 $472 $503 reversed $494 $-1 #
straight-curve $-1 22 18 5 -1.224646799147353207e-16 -1 0 I I #
coedge $-1 $472 $471 $491 $511 reversed $473 $-1 #
edge $-1 $512 -3 $474 3 $500 $515 forward 7 unknown #
point $-1 22 22 5 #
vertex $-1 $490 $516 #
straight-curve $-1 12 22 8 0 0 -1 I I #
straight-curve $-1 17 20 11 1 -1.224646799147353207e-16 0 I I #
point $-1 14 20 11 #
point $-1 17 15 10 #
ellipse-curve $-1 14 22 11 -0 -0 -1 -1.414213562373095368 -1.414213562373094701 0 1 I I #
edge $-1 $512 -5 $505 5 $502 $517 forward 7 unknown #
vertex $-1 $493 $518 #
straight-curve $-1 22 21 11 1.224646799147353207e-16 1 0 I I #
plane-surface $-1 22 21 8 -1 1.224646799147353207e-16 0 0 0 -1 forward_v I I I I #
straight-curve $-1 22 22 8 0 0 -1 I I #
point $-1 12 22 11 #
straight-curve $-1 17 22 11 -1 1.224646799147353207e-16 0 I I #
point $-1 22 22 11 #
End-of-ACIS-data 