107 0 1 0           
body $1 $2 $-1 $3 #
display_attribute-st-attrib $-1 $4 $-1 $0 1 #
lump $-1 $-1 $5 $0 #
transform $-1 1 0 0 0 1 0 0 0 1 15 15 10 1 1 0 0 #
named_string_attribute-named_attribute-st-attrib $-1 $6 $1 $0 4 name13 pocketIslands#
shell $-1 $-1 $-1 $7 $-1 $2 #
rgb_color-st-attrib $-1 $8 $4 $0 0 1 0 #
face $-1 $9 $10 $5 $-1 $11 reversed single #
id_attribute-st-attrib $-1 $-1 $6 $0 1 #
face $12 $13 $14 $5 $-1 $15 reversed single #
loop $-1 $16 $17 $7 #
cone-surface $-1 2.25 -5 -7 0 0 -1 2.5 0 0 1 I I 0 1 0 I I I I #
id_attribute-st-attrib $-1 $-1 $-1 $9 0 #
face $18 $19 $20 $5 $-1 $21 forward single #
loop $-1 $-1 $22 $9 #
plane-surface $-1 4.75 -5 -8 0 0 -1 -1 0 0 0 I I I I #
loop $-1 $-1 $23 $7 #
coedge $-1 $17 $17 $24 $25 1 $10 $-1 #
id_attribute-st-attrib $-1 $-1 $-1 $13 0 #
face $26 $27 $28 $5 $-1 $29 forward single #
loop $-1 $30 $31 $13 #
plane-surface $-1 0 0 5 0 0 1 1 0 0 0 I I I I #
coedge $-1 $22 $22 $23 $32 0 $14 $-1 #
coedge $-1 $23 $23 $22 $32 1 $16 $-1 #
coedge $-1 $24 $24 $17 $25 0 $33 $-1 #
edge $-1 $34 $34 $24 $35 0 #
id_attribute-st-attrib $-1 $-1 $-1 $19 0 #
face $36 $37 $38 $5 $-1 $39 forward single #
loop $-1 $-1 $40 $19 #
cone-surface $-1 -8 -8 2.5 -0 -0 -1 -1.414213562373094923 -1.414213562373094923 0 1 I I 0 -1 0 I I I I #
loop $-1 $-1 $41 $13 #
coedge $-1 $42 $43 $44 $45 1 $20 $-1 #
edge $-1 $46 $46 $23 $47 0 #
loop $-1 $48 $24 $49 #
vertex $-1 $25 $50 #
ellipse-curve $-1 2.25 -5 -5 -0 -0 -1 2.5 0 0 1 I I #
id_attribute-st-attrib $-1 $-1 $-1 $27 0 #
face $51 $52 $53 $5 $-1 $54 forward single #
loop $-1 $-1 $55 $27 #
plane-surface $-1 0 -10 2.5 0 1 0 0 0 1 0 I I I I #
coedge $-1 $56 $57 $58 $59 0 $28 $-1 #
coedge $-1 $60 $61 $62 $63 1 $30 $-1 #
coedge $-1 $64 $31 $65 $66 1 $20 $-1 #
coedge $-1 $31 $67 $68 $69 1 $20 $-1 #
coedge $-1 $70 $71 $31 $45 0 $72 $-1 #
edge $73 $74 $75 $44 $76 0 #
vertex $-1 $32 $77 #
ellipse-curve $-1 2.25 -5 -8 0 0 1 2.5 0 0 1 I I #
loop $-1 $78 $79 $49 #
face $80 $81 $33 $5 $-1 $82 forward single #
point $-1 4.75 -5 -5 #
id_attribute-st-attrib $-1 $-1 $-1 $37 0 #
face $83 $84 $85 $5 $-1 $86 forward single #
loop $-1 $-1 $87 $37 #
cone-surface $-1 8 -8 2.5 0 0 -1 1.414213562373094923 -1.414213562373094923 0 1 I I 0 -1 0 I I I I #
coedge $-1 $88 $89 $90 $91 0 $38 $-1 #
coedge $-1 $92 $40 $89 $93 0 $28 $-1 #
coedge $-1 $40 $92 $94 $95 0 $28 $-1 #
coedge $-1 $96 $90 $40 $59 1 $20 $-1 #
edge $97 $98 $99 $40 $100 0 #
coedge $-1 $101 $41 $102 $103 1 $30 $-1 #
coedge $-1 $41 $101 $104 $105 1 $30 $-1 #
coedge $-1 $106 $107 $41 $63 0 $108 $-1 #
edge $-1 $109 $110 $62 $111 0 #
coedge $-1 $90 $42 $87 $112 1 $20 $-1 #
coedge $-1 $113 $114 $42 $66 0 $85 $-1 #
edge $115 $116 $74 $65 $117 0 #
coedge $-1 $43 $96 $118 $119 1 $20 $-1 #
coedge $-1 $120 $121 $43 $69 0 $122 $-1 #
edge $123 $75 $124 $68 $125 0 #
coedge $-1 $126 $44 $121 $127 0 $72 $-1 #
coedge $-1 $44 $126 $113 $128 0 $72 $-1 #
loop $-1 $-1 $44 $129 #
id_attribute-st-attrib $-1 $-1 $-1 $45 0 #
vertex $-1 $45 $130 #
vertex $-1 $127 $131 #
ellipse-curve $-1 8 8 5 0 0 1 1.414213562373094923 1.414213562373094923 0 1 I I #
point $-1 4.75 -5 -8 #
loop $-1 $132 $133 $49 #
coedge $-1 $134 $135 $136 $137 0 $48 $-1 #
id_attribute-st-attrib $-1 $-1 $-1 $49 0 #
face $138 $129 $139 $5 $-1 $140 forward single #
plane-surface $-1 0 0 -5 0 0 1 1 0 0 0 I I I I #
id_attribute-st-attrib $-1 $-1 $-1 $52 0 #
face $141 $142 $143 $5 $-1 $144 reversed single #
loop $-1 $-1 $65 $52 #
plane-surface $-1 10 0 2.5 -1 0 0 0 0 1 0 I I I I #
coedge $-1 $145 $146 $64 $112 0 $53 $-1 #
coedge $-1 $147 $55 $146 $148 1 $38 $-1 #
coedge $-1 $55 $147 $56 $93 1 $38 $-1 #
coedge $-1 $58 $64 $55 $91 1 $20 $-1 #
edge $149 $99 $150 $55 $151 0 #
coedge $-1 $57 $56 $152 $153 1 $28 $-1 #
edge $154 $99 $155 $89 $156 0 #
coedge $-1 $157 $158 $57 $95 1 $139 $-1 #
edge $159 $160 $98 $94 $161 0 #
coedge $-1 $67 $58 $158 $162 1 $20 $-1 #
id_attribute-st-attrib $-1 $-1 $-1 $59 0 #
vertex $-1 $162 $163 #
vertex $-1 $93 $164 #
ellipse-curve $-1 -8 -8 5 0 0 1 -1.414213562373094923 -1.414213562373094923 0 1 I I #
coedge $-1 $61 $60 $165 $166 1 $30 $-1 #
coedge $-1 $167 $168 $60 $103 0 $143 $-1 #
edge $-1 $169 $109 $102 $170 0 #
coedge $-1 $171 $172 $61 $105 0 $173 $-1 #
edge $174 $110 $175 $104 $176 0 #
coedge $-1 $177 $62 $172 $178 0 $108 $-1 #
coedge $-1 $62 $177 $167 $179 1 $108 $-1 #
loop $-1 $-1 $62 $142 #
vertex $-1 $179 $180 #
vertex $-1 $178 $181 #
straight-curve $-1 15 0 5 0 -1 0 I I #
edge $182 $150 $116 $87 $183 0 #
coedge $-1 $184 $65 $71 $128 1 $85 $-1 #
coedge $-1 $65 $184 $145 $185 1 $85 $-1 #
id_attribute-st-attrib $-1 $-1 $-1 $66 0 #
vertex $-1 $185 $186 #
straight-curve $-1 10 0 5 0 1 -0 I I #
coedge $-1 $187 $188 $67 $119 0 $189 $-1 #
edge $190 $124 $191 $118 $192 0 #
coedge $-1 $193 $68 $188 $194 1 $122 $-1 #
coedge $-1 $68 $193 $70 $127 1 $122 $-1 #
loop $-1 $-1 $68 $195 #
id_attribute-st-attrib $-1 $-1 $-1 $69 0 #
vertex $-1 $69 $196 #
straight-curve $-1 0 10 5 -1 0 0 I I #
coedge $-1 $71 $70 $197 $198 1 $72 $-1 #
edge $199 $75 $200 $121 $201 0 #
edge $202 $203 $74 $113 $204 0 #
face $205 $206 $72 $5 $-1 $207 forward single #
point $-1 10 8 5 #
point $-1 8 10 5 #
loop $-1 $208 $209 $49 #
coedge $-1 $210 $211 $212 $213 0 $78 $-1 #
coedge $-1 $197 $79 $184 $214 1 $48 $-1 #
coedge $-1 $79 $152 $147 $215 1 $48 $-1 #
coedge $-1 $146 $145 $79 $137 1 $53 $-1 #
edge $216 $217 $218 $79 $219 0 #
id_attribute-st-attrib $-1 $-1 $-1 $81 0 #
loop $-1 $-1 $158 $81 #
plane-surface $-1 -10 0 2.5 1 0 0 0 0 -1 0 I I I I #
id_attribute-st-attrib $-1 $-1 $-1 $84 0 #
face $220 $221 $108 $5 $-1 $222 reversed single #
loop $-1 $-1 $102 $84 #
plane-surface $-1 0 15 0 0 -1 0 0 0 -1 0 I I I I #
coedge $-1 $136 $87 $114 $185 0 $53 $-1 #
coedge $-1 $87 $136 $88 $148 0 $53 $-1 #
coedge $-1 $89 $88 $135 $215 0 $38 $-1 #
edge $223 $217 $150 $88 $224 0 #
id_attribute-st-attrib $-1 $-1 $-1 $91 0 #
vertex $225 $112 $226 #
straight-curve $-1 0 -10 5 1 0 0 I I #
coedge $-1 $135 $227 $92 $153 0 $48 $-1 #
edge $228 $160 $155 $152 $229 0 #
id_attribute-st-attrib $-1 $-1 $-1 $93 0 #
vertex $230 $153 $231 #
straight-curve $-1 -8 -10 2.5 0 0 -1 F -13.69999999999999929 F 13.69999999999999929 #
coedge $-1 $232 $94 $227 $233 0 $139 $-1 #
coedge $-1 $94 $232 $96 $162 0 $139 $-1 #
id_attribute-st-attrib $-1 $-1 $-1 $95 0 #
vertex $-1 $233 $234 #
straight-curve $-1 -10 -8 2.5 -0 -0 1 F -13.69999999999999929 F 13.69999999999999929 #
edge $235 $191 $98 $158 $236 0 #
point $-1 -10 -8 5 #
point $-1 -8 -10 5 #
coedge $-1 $237 $238 $101 $166 0 $239 $-1 #
edge $-1 $175 $169 $165 $240 0 #
coedge $-1 $241 $102 $107 $179 0 $143 $-1 #
coedge $-1 $102 $241 $237 $242 1 $143 $-1 #
vertex $-1 $242 $243 #
straight-curve $-1 0 15 5 1 0 -0 I I #
coedge $-1 $244 $104 $238 $245 0 $173 $-1 #
coedge $-1 $104 $244 $106 $178 1 $173 $-1 #
loop $-1 $-1 $104 $221 #
id_attribute-st-attrib $-1 $-1 $-1 $105 0 #
vertex $-1 $245 $246 #
straight-curve $-1 0 -15 5 -1 0 0 I I #
coedge $-1 $107 $106 $247 $248 1 $108 $-1 #
edge $249 $110 $250 $106 $251 0 #
edge $-1 $109 $252 $107 $253 0 #
point $-1 15 15 5 #
point $-1 15 -15 5 #
id_attribute-st-attrib $-1 $-1 $-1 $112 0 #
ellipse-curve $-1 8 -8 5 0 0 1 1.414213562373094923 -1.414213562373094923 0 1 I I #
coedge $-1 $114 $113 $134 $214 0 $85 $-1 #
edge $254 $116 $218 $114 $255 0 #
point $-1 10 -8 5 #
coedge $-1 $256 $118 $232 $257 0 $189 $-1 #
coedge $-1 $118 $256 $120 $194 0 $189 $-1 #
loop $-1 $-1 $118 $258 #
id_attribute-st-attrib $-1 $-1 $-1 $119 0 #
vertex $-1 $257 $259 #
ellipse-curve $-1 -8 8 5 0 0 1 -1.414213562373094923 1.414213562373094923 0 1 I I #
coedge $-1 $121 $120 $260 $261 0 $122 $-1 #
edge $262 $263 $124 $120 $264 0 #
face $265 $266 $122 $5 $-1 $267 forward single #
point $-1 -8 10 5 #
coedge $-1 $260 $134 $126 $198 0 $48 $-1 #
edge $268 $203 $200 $197 $269 0 #
id_attribute-st-attrib $-1 $-1 $-1 $127 0 #
vertex $-1 $198 $270 #
straight-curve $-1 8 10 2.5 -0 0 -1 F -13.69999999999999929 F 13.69999999999999929 #
id_attribute-st-attrib $-1 $-1 $-1 $128 0 #
vertex $271 $214 $272 #
straight-curve $-1 10 8 2.5 -0 0 1 F -13.69999999999999929 F 13.69999999999999929 #
id_attribute-st-attrib $-1 $-1 $-1 $129 0 #
face $273 $274 $275 $5 $-1 $276 forward single #
cone-surface $-1 8 8 2.5 -0 -0 -1 1.414213562373094923 1.414213562373094923 0 1 I I 0 -1 0 I I I I #
loop $-1 $-1 $277 $49 #
coedge $-1 $209 $209 $278 $279 0 $132 $-1 #
coedge $-1 $280 $133 $281 $282 0 $78 $-1 #
coedge $-1 $133 $280 $283 $284 0 $78 $-1 #
coedge $-1 $285 $286 $133 $213 1 $287 $-1 #
edge $288 $289 $290 $133 $291 0 #
edge $292 $203 $218 $184 $293 0 #
edge $294 $217 $155 $147 $295 0 #
id_attribute-st-attrib $-1 $-1 $-1 $137 0 #
vertex $296 $215 $297 #
vertex $-1 $137 $298 #
ellipse-curve $-1 8 -8 -5 0 0 1 1.414213562373094923 -1.414213562373094923 0 1 I I #
id_attribute-st-attrib $-1 $-1 $-1 $142 0 #
face $299 $258 $173 $5 $-1 $300 reversed single #
plane-surface $-1 15 0 0 -1 0 0 0 -0 1 0 I I I I #
id_attribute-st-attrib $-1 $-1 $-1 $148 0 #
straight-curve $-1 8 -10 2.5 0 -0 1 F -13.69999999999999929 F 13.69999999999999929 #
id_attribute-st-attrib $-1 $-1 $-1 $150 0 #
point $-1 8 -10 5 #
coedge $-1 $152 $301 $157 $233 1 $48 $-1 #
id_attribute-st-attrib $-1 $-1 $-1 $153 0 #
ellipse-curve $-1 -8 -8 -5 0 0 1 -1.414213562373094923 -1.414213562373094923 0 1 I I #
id_attribute-st-attrib $-1 $-1 $-1 $155 0 #
point $-1 -8 -10 -5 #
coedge $-1 $158 $157 $187 $257 1 $139 $-1 #
edge $302 $160 $303 $157 $304 0 #
point $-1 -10 -8 -5 #
id_attribute-st-attrib $-1 $-1 $-1 $162 0 #
straight-curve $-1 -10 0 5 0 -1 0 I I #
coedge $-1 $305 $165 $168 $242 0 $239 $-1 #
coedge $-1 $165 $305 $171 $245 1 $239 $-1 #
loop $-1 $-1 $165 $306 #
straight-curve $-1 -15 0 5 0 1 0 I I #
coedge $-1 $168 $167 $307 $308 1 $143 $-1 #
edge $-1 $169 $309 $168 $310 0 #
point $-1 -15 15 5 #
coedge $-1 $172 $171 $311 $312 1 $173 $-1 #
edge $313 $175 $314 $238 $315 0 #
point $-1 -15 -15 5 #
coedge $-1 $311 $307 $177 $248 0 $316 $-1 #
edge $-1 $252 $250 $177 $317 0 #
id_attribute-st-attrib $-1 $-1 $-1 $178 0 #
vertex $-1 $178 $318 #
straight-curve $-1 15 -15 0 0 0 -1 I I #
vertex $319 $248 $320 #
straight-curve $-1 15 15 0 0 0 -1 I I #
id_attribute-st-attrib $-1 $-1 $-1 $185 0 #
straight-curve $-1 10 -8 2.5 0 0 -1 F -13.69999999999999929 F 13.69999999999999929 #
coedge $-1 $188 $187 $301 $321 1 $189 $-1 #
edge $322 $191 $303 $232 $323 0 #
face $324 $49 $189 $5 $-1 $325 forward single #
point $-1 -10 8 5 #
coedge $-1 $301 $197 $193 $261 1 $48 $-1 #
edge $326 $263 $200 $193 $327 0 #
id_attribute-st-attrib $-1 $-1 $-1 $194 0 #
vertex $-1 $261 $328 #
straight-curve $-1 -8 10 2.5 -0 -0 1 F -13.69999999999999929 F 13.69999999999999929 #
id_attribute-st-attrib $-1 $-1 $-1 $195 0 #
face $329 $306 $316 $5 $-1 $330 reversed single #
plane-surface $-1 0 10 2.5 0 -1 0 0 0 -1 0 I I I I #
id_attribute-st-attrib $-1 $-1 $-1 $198 0 #
ellipse-curve $-1 8 8 -5 0 0 1 1.414213562373094923 1.414213562373094923 0 1 I I #
point $-1 8 10 -5 #
id_attribute-st-attrib $-1 $-1 $-1 $203 0 #
point $-1 10 8 -5 #
id_attribute-st-attrib $-1 $-1 $-1 $206 0 #
face $331 $332 $333 $5 $-1 $334 reversed single #
loop $-1 $-1 $335 $206 #
cone-surface $-1 6 2 -2 0 0 -1 -1.414213562373095145 -1.414213562373094923 0 1 I I 0 1 0 I I I I #
coedge $-1 $336 $337 $338 $339 0 $208 $-1 #
coedge $-1 $278 $278 $209 $279 1 $340 $-1 #
edge $341 $342 $342 $209 $343 0 #
coedge $-1 $211 $210 $344 $345 0 $78 $-1 #
coedge $-1 $346 $347 $210 $282 1 $348 $-1 #
edge $349 $290 $350 $210 $351 0 #
coedge $-1 $352 $353 $211 $284 1 $354 $-1 #
edge $355 $356 $289 $211 $357 0 #
coedge $-1 $358 $212 $353 $359 1 $287 $-1 #
coedge $-1 $212 $358 $346 $360 0 $287 $-1 #
loop $-1 $-1 $286 $361 #
id_attribute-st-attrib $-1 $-1 $-1 $213 0 #
vertex $-1 $213 $362 #
vertex $-1 $213 $363 #
straight-curve $-1 -2.75 -8 -5 -1 0 0 I I #
id_attribute-st-attrib $-1 $-1 $-1 $214 0 #
straight-curve $-1 10 0 -5 0 -1 0 I I #
id_attribute-st-attrib $-1 $-1 $-1 $215 0 #
straight-curve $-1 0 -10 -5 -1 0 0 I I #
id_attribute-st-attrib $-1 $-1 $-1 $217 0 #
point $-1 8 -10 -5 #
point $-1 10 -8 -5 #
id_attribute-st-attrib $-1 $-1 $-1 $221 0 #
plane-surface $-1 0 -15 0 0 1 -0 -0 0 1 0 I I I I #
coedge $-1 $227 $260 $256 $321 0 $48 $-1 #
id_attribute-st-attrib $-1 $-1 $-1 $233 0 #
vertex $-1 $257 $364 #
straight-curve $-1 -10 0 -5 0 1 0 I I #
coedge $-1 $238 $237 $365 $366 1 $239 $-1 #
face $367 $-1 $239 $5 $-1 $368 reversed single #
coedge $-1 $247 $365 $241 $308 0 $316 $-1 #
edge $-1 $309 $252 $241 $369 0 #
vertex $-1 $308 $370 #
straight-curve $-1 -15 15 0 0 0 -1 I I #
coedge $-1 $365 $247 $244 $312 0 $316 $-1 #
edge $371 $250 $314 $244 $372 0 #
id_attribute-st-attrib $-1 $-1 $-1 $245 0 #
vertex $-1 $366 $373 #
straight-curve $-1 -15 -15 0 0 0 -1 I I #
loop $-1 $-1 $247 $266 #
straight-curve $-1 15 0 -10 0 -1 0 I I #
point $-1 15 -15 -10 #
id_attribute-st-attrib $-1 $-1 $-1 $252 0 #
point $-1 15 15 -10 #
edge $374 $263 $303 $301 $375 0 #
id_attribute-st-attrib $-1 $-1 $-1 $257 0 #
straight-curve $-1 -10 8 2.5 0 -0 -1 F -13.69999999999999929 F 13.69999999999999929 #
id_attribute-st-attrib $-1 $-1 $-1 $258 0 #
cone-surface $-1 -8 8 2.5 0 0 -1 -1.414213562373094923 1.414213562373094923 0 1 I I 0 -1 0 I I I I #
id_attribute-st-attrib $-1 $-1 $-1 $261 0 #
straight-curve $-1 0 10 -5 1 0 0 I I #
point $-1 -8 10 -5 #
id_attribute-st-attrib $-1 $-1 $-1 $266 0 #
plane-surface $-1 0 0 -10 0 0 1 1 0 0 0 I I I I #
id_attribute-st-attrib $-1 $-1 $-1 $274 0 #
face $376 $377 $378 $5 $-1 $379 forward single #
loop $-1 $-1 $380 $274 #
plane-surface $-1 4 3.499999999999999556 -2 1 -1.224646799147353207e-16 0 0 0 1 0 I I I I #
coedge $-1 $381 $382 $383 $384 0 $275 $-1 #
coedge $-1 $385 $277 $386 $387 0 $208 $-1 #
coedge $-1 $277 $388 $389 $390 0 $208 $-1 #
coedge $-1 $391 $392 $277 $339 1 $393 $-1 #
edge $394 $395 $396 $277 $397 0 #
loop $-1 $398 $278 $399 #
id_attribute-st-attrib $-1 $-1 $-1 $279 0 #
vertex $-1 $279 $400 #
ellipse-curve $-1 0 0 -5 -0 -0 -1 2 0 0 1 I I #
coedge $-1 $401 $402 $280 $345 1 $403 $-1 #
edge $404 $350 $356 $280 $405 0 #
coedge $-1 $406 $281 $286 $360 1 $348 $-1 #
coedge $-1 $281 $406 $401 $407 0 $348 $-1 #
loop $-1 $-1 $347 $408 #
id_attribute-st-attrib $-1 $-1 $-1 $282 0 #
vertex $-1 $282 $409 #
straight-curve $-1 -8 -2.25 -5 0 1 0 I I #
coedge $-1 $410 $283 $402 $411 1 $354 $-1 #
coedge $-1 $283 $410 $285 $359 0 $354 $-1 #
loop $-1 $-1 $353 $412 #
id_attribute-st-attrib $-1 $-1 $-1 $284 0 #
vertex $-1 $345 $413 #
straight-curve $-1 -3 -2.25 -5 0 -1 0 I I #
coedge $-1 $286 $285 $414 $415 1 $287 $-1 #
edge $416 $417 $289 $353 $418 0 #
edge $419 $420 $290 $346 $421 0 #
face $422 $408 $287 $5 $-1 $423 reversed single #
point $-1 -3 -8 -5 #
point $-1 -8 -8 -5 #
point $-1 -10 8 -5 #
coedge $-1 $307 $311 $305 $366 0 $316 $-1 #
edge $-1 $314 $309 $305 $424 0 #
id_attribute-st-attrib $-1 $-1 $-1 $306 0 #
plane-surface $-1 -15 0 0 1 0 0 0 0 -1 0 I I I I #
straight-curve $-1 0 15 -10 1 0 0 I I #
point $-1 -15 15 -10 #
id_attribute-st-attrib $-1 $-1 $-1 $312 0 #
straight-curve $-1 0 -15 -10 -1 0 0 I I #
point $-1 -15 -15 -10 #
id_attribute-st-attrib $-1 $-1 $-1 $321 0 #
ellipse-curve $-1 -8 8 -5 0 0 1 -1.414213562373094923 1.414213562373094923 0 1 I I #
id_attribute-st-attrib $-1 $-1 $-1 $332 0 #
face $425 $426 $427 $5 $-1 $428 forward single #
loop $-1 $-1 $429 $332 #
plane-surface $-1 2 6 1 0 0 1 -1 1.224646799147353207e-16 0 0 I I I I #
coedge $-1 $430 $389 $431 $432 1 $333 $-1 #
coedge $-1 $431 $335 $429 $433 0 $275 $-1 #
coedge $-1 $335 $431 $388 $434 1 $275 $-1 #
coedge $-1 $435 $436 $335 $384 1 $437 $-1 #
edge $438 $439 $440 $383 $441 0 #
coedge $-1 $442 $336 $443 $444 0 $208 $-1 #
coedge $-1 $445 $446 $336 $387 1 $447 $-1 #
edge $448 $396 $449 $336 $450 0 #
coedge $-1 $337 $451 $382 $434 0 $208 $-1 #
coedge $-1 $380 $452 $337 $390 1 $333 $-1 #
edge $453 $454 $395 $337 $455 0 #
coedge $-1 $456 $338 $452 $457 0 $393 $-1 #
coedge $-1 $338 $456 $445 $458 0 $393 $-1 #
loop $-1 $-1 $392 $459 #
id_attribute-st-attrib $-1 $-1 $-1 $339 0 #
vertex $-1 $457 $460 #
vertex $-1 $387 $461 #
ellipse-curve $-1 2 3 -5 0 0 1 1.414213562373094923 1.414213562373094923 0 1 I I #
loop $-1 $-1 $462 $399 #
face $463 $464 $340 $5 $-1 $465 forward single #
point $-1 2 0 -5 #
coedge $-1 $466 $344 $347 $407 1 $403 $-1 #
coedge $-1 $344 $466 $352 $411 0 $403 $-1 #
loop $-1 $-1 $402 $467 #
id_attribute-st-attrib $-1 $-1 $-1 $345 0 #
straight-curve $-1 -2.75 -1 -5 1 0 -0 I I #
coedge $-1 $347 $346 $468 $469 1 $348 $-1 #
edge $470 $471 $350 $401 $472 0 #
face $473 $467 $348 $5 $-1 $474 reversed single #
point $-1 -8 -1 -5 #
coedge $-1 $353 $352 $475 $476 1 $354 $-1 #
edge $477 $478 $356 $352 $479 0 #
face $480 $195 $354 $5 $-1 $481 reversed single #
point $-1 -3 -1 -5 #
coedge $-1 $475 $468 $358 $415 0 $482 $-1 #
edge $483 $420 $417 $358 $484 0 #
id_attribute-st-attrib $-1 $-1 $-1 $359 0 #
vertex $-1 $476 $485 #
straight-curve $-1 -3 -8 -3 0 0 -1 I I #
id_attribute-st-attrib $-1 $-1 $-1 $360 0 #
vertex $-1 $469 $486 #
straight-curve $-1 -8 -8 -3 0 0 -1 I I #
id_attribute-st-attrib $-1 $-1 $-1 $361 0 #
plane-surface $-1 -5.5 -8 -3 0 1 0 0 0 1 0 I I I I #
straight-curve $-1 -15 0 -10 0 1 0 I I #
id_attribute-st-attrib $-1 $-1 $-1 $377 0 #
face $487 $459 $447 $5 $-1 $488 reversed single #
loop $-1 $-1 $489 $377 #
cone-surface $-1 -0.9999999999999996669 7 -2 0 0 -1 -1.414213562373095368 -1.414213562373094701 0 1 I I 0 1 0 I I I I #
coedge $-1 $490 $491 $381 $433 1 $378 $-1 #
coedge $-1 $452 $380 $491 $492 1 $333 $-1 #
coedge $-1 $382 $381 $380 $432 0 $275 $-1 #
edge $493 $494 $454 $380 $495 0 #
edge $496 $440 $494 $429 $497 0 #
edge $498 $439 $454 $388 $499 0 #
coedge $-1 $500 $383 $451 $501 1 $437 $-1 #
coedge $-1 $383 $500 $490 $502 1 $437 $-1 #
loop $-1 $-1 $383 $503 #
id_attribute-st-attrib $-1 $-1 $-1 $384 0 #
vertex $-1 $434 $504 #
vertex $-1 $502 $505 #
straight-curve $-1 6 0 -2 -0 -0 1 F -9.199999999999999289 F 9.199999999999999289 #
coedge $-1 $506 $385 $507 $508 0 $208 $-1 #
coedge $-1 $489 $509 $385 $444 1 $427 $-1 #
edge $510 $449 $511 $385 $512 0 #
coedge $-1 $513 $386 $392 $458 1 $447 $-1 #
coedge $-1 $386 $513 $489 $514 1 $447 $-1 #
loop $-1 $-1 $446 $426 #
id_attribute-st-attrib $-1 $-1 $-1 $387 0 #
vertex $-1 $444 $515 #
straight-curve $-1 1.000000000000000222 5 -5 -1 1.224646799147353207e-16 0 I I #
coedge $-1 $388 $506 $435 $501 0 $208 $-1 #
coedge $-1 $389 $430 $391 $457 1 $333 $-1 #
id_attribute-st-attrib $-1 $-1 $-1 $390 0 #
vertex $-1 $390 $516 #
straight-curve $-1 4 1.749999999999999556 -5 1.224646799147353207e-16 1 -0 I I #
coedge $-1 $392 $391 $517 $518 1 $393 $-1 #
edge $519 $395 $520 $452 $521 0 #
edge $522 $523 $396 $445 $524 0 #
face $525 $503 $393 $5 $-1 $526 forward single #
point $-1 4 2.999999999999999556 -5 #
point $-1 2.000000000000000444 5 -5 #
coedge $-1 $462 $462 $527 $528 1 $398 $-1 #
id_attribute-st-attrib $-1 $-1 $-1 $399 0 #
face $529 $530 $531 $5 $-1 $532 forward single #
cone-surface $-1 0 0 -2.5 0 0 1 2 0 0 1 I I 0 1 0 I I I I #
coedge $-1 $402 $401 $533 $534 1 $403 $-1 #
face $535 $412 $403 $5 $-1 $536 reversed single #
coedge $-1 $414 $533 $406 $469 0 $482 $-1 #
edge $537 $471 $420 $406 $538 0 #
id_attribute-st-attrib $-1 $-1 $-1 $407 0 #
vertex $-1 $534 $539 #
straight-curve $-1 -8 -1 -3 0 0 -1 I I #
id_attribute-st-attrib $-1 $-1 $-1 $408 0 #
plane-surface $-1 -8 -4.5 -3 1 0 0 0 0 -1 0 I I I I #
coedge $-1 $533 $414 $410 $476 0 $482 $-1 #
edge $540 $417 $478 $410 $541 0 #
id_attribute-st-attrib $-1 $-1 $-1 $411 0 #
vertex $-1 $476 $542 #
straight-curve $-1 -3 -1 -3 0 0 -1 I I #
id_attribute-st-attrib $-1 $-1 $-1 $412 0 #
plane-surface $-1 -3 -4.5 -3 -1 0 0 0 0 1 0 I I I I #
loop $-1 $-1 $475 $530 #
id_attribute-st-attrib $-1 $-1 $-1 $415 0 #
straight-curve $-1 -5.5 -8 -1 1 0 0 I I #
point $-1 -3 -8 -1 #
point $-1 -8 -8 -1 #
id_attribute-st-attrib $-1 $-1 $-1 $426 0 #
plane-surface $-1 1.999999999999999778 5 -2 1.224646799147353207e-16 1 0 -0 0 -1 0 I I I I #
coedge $-1 $543 $443 $446 $514 0 $427 $-1 #
coedge $-1 $544 $429 $436 $502 0 $378 $-1 #
coedge $-1 $429 $517 $430 $492 0 $378 $-1 #
edge $545 $520 $494 $430 $546 0 #
id_attribute-st-attrib $-1 $-1 $-1 $432 0 #
vertex $-1 $433 $547 #
straight-curve $-1 4 2.000000000000000444 -2 0 0 -1 F -9.199999999999999289 F 9.199999999999999289 #
id_attribute-st-attrib $-1 $-1 $-1 $433 0 #
ellipse-curve $-1 6 2 1 -0 -0 -1 -1.414213562373095145 -1.414213562373094923 0 1 I I #
id_attribute-st-attrib $-1 $-1 $-1 $434 0 #
ellipse-curve $-1 6 2 -5 -0 -0 -1 -1.414213562373095145 -1.414213562373094923 0 1 I I #
coedge $-1 $436 $435 $548 $549 1 $437 $-1 #
edge $550 $551 $439 $451 $552 0 #
edge $553 $440 $554 $436 $555 0 #
face $556 $557 $437 $5 $-1 $558 reversed single #
point $-1 6 -6.123233995736772199e-17 -5 #
point $-1 6 -6.123233995736777129e-17 1 #
coedge $-1 $451 $442 $559 $560 0 $208 $-1 #
coedge $-1 $561 $562 $442 $508 1 $563 $-1 #
edge $564 $511 $565 $442 $566 0 #
coedge $-1 $443 $543 $561 $567 0 $427 $-1 #
id_attribute-st-attrib $-1 $-1 $-1 $444 0 #
vertex $-1 $508 $568 #
ellipse-curve $-1 -0.9999999999999996669 7 -5 -0 -0 -1 -1.414213562373095368 -1.414213562373094701 0 1 I I #
coedge $-1 $446 $445 $569 $570 1 $447 $-1 #
edge $571 $449 $572 $446 $573 0 #
point $-1 -0.999999999999999778 5 -5 #
point $-1 4 2.000000000000000444 -5 #
coedge $-1 $491 $569 $456 $518 0 $378 $-1 #
edge $574 $523 $520 $517 $575 0 #
id_attribute-st-attrib $-1 $-1 $-1 $457 0 #
vertex $-1 $492 $576 #
straight-curve $-1 4 2.999999999999999556 -2 0 -0 1 F -9.199999999999999289 F 9.199999999999999289 #
id_attribute-st-attrib $-1 $-1 $-1 $458 0 #
vertex $-1 $518 $577 #
straight-curve $-1 2.000000000000000444 5 -2 -0 -0 -1 F -9.199999999999999289 F 9.199999999999999289 #
id_attribute-st-attrib $-1 $-1 $-1 $459 0 #
cone-surface $-1 2 3 -2 0 0 1 1.414213562373094923 1.414213562373094923 0 1 I I 0 -1 0 I I I I #
coedge $-1 $527 $527 $462 $528 0 $531 $-1 #
edge $578 $579 $579 $527 $580 0 #
id_attribute-st-attrib $-1 $-1 $-1 $464 0 #
face $581 $361 $482 $5 $-1 $582 forward single #
loop $-1 $-1 $527 $464 #
plane-surface $-1 0 0 0 0 0 1 1 0 0 0 I I I I #
coedge $-1 $468 $475 $466 $534 0 $482 $-1 #
edge $583 $478 $471 $466 $584 0 #
id_attribute-st-attrib $-1 $-1 $-1 $467 0 #
plane-surface $-1 -5.5 -1 -3 0 -1 0 0 0 -1 0 I I I I #
id_attribute-st-attrib $-1 $-1 $-1 $469 0 #
straight-curve $-1 -8 -4.5 -1 0 -1 0 I I #
point $-1 -8 -1 -1 #
id_attribute-st-attrib $-1 $-1 $-1 $476 0 #
straight-curve $-1 -3 -4.5 -1 0 1 0 I I #
point $-1 -3 -1 -1 #
coedge $-1 $509 $489 $585 $586 0 $427 $-1 #
coedge $-1 $587 $490 $588 $589 0 $378 $-1 #
id_attribute-st-attrib $-1 $-1 $-1 $492 0 #
straight-curve $-1 4 3.499999999999999556 1 -1.224646799147353207e-16 -1 0 I I #
point $-1 4 2.000000000000000444 1 #
coedge $-1 $559 $588 $500 $549 0 $590 $-1 #
edge $591 $554 $551 $500 $592 0 #
id_attribute-st-attrib $-1 $-1 $-1 $501 0 #
vertex $-1 $501 $593 #
straight-curve $-1 2.749999999999999556 3.367778697655221012e-16 -5 -1 1.224646799147353207e-16 0 I I #
id_attribute-st-attrib $-1 $-1 $-1 $502 0 #
vertex $-1 $502 $594 #
straight-curve $-1 5.499999999999999112 0 1 1 -1.224646799147353207e-16 0 I I #
id_attribute-st-attrib $-1 $-1 $-1 $503 0 #
face $595 $596 $563 $5 $-1 $597 reversed single #
plane-surface $-1 5.499999999999999112 0 -2 1.224646799147353207e-16 1 0 -0 0 -1 0 I I I I #
coedge $-1 $598 $548 $506 $560 1 $590 $-1 #
edge $599 $565 $551 $506 $600 0 #
coedge $-1 $601 $507 $509 $567 1 $563 $-1 #
coedge $-1 $507 $601 $598 $602 0 $563 $-1 #
loop $-1 $-1 $507 $557 #
id_attribute-st-attrib $-1 $-1 $-1 $508 0 #
vertex $-1 $508 $603 #
straight-curve $-1 1.000000000000000444 7 -5 1 -1.224646799147353207e-16 0 I I #
edge $604 $605 $511 $561 $606 0 #
point $-1 -3 7.000000000000000888 -5 #
coedge $-1 $517 $585 $513 $570 0 $378 $-1 #
edge $607 $572 $523 $513 $608 0 #
id_attribute-st-attrib $-1 $-1 $-1 $514 0 #
vertex $-1 $570 $609 #
straight-curve $-1 -0.999999999999999889 5 -2 -0 -0 1 F -9.199999999999999289 F 9.199999999999999289 #
id_attribute-st-attrib $-1 $-1 $-1 $518 0 #
ellipse-curve $-1 2 3 1 -0 -0 -1 1.414213562373094923 1.414213562373094923 0 1 I I #
point $-1 4 2.999999999999999556 1 #
point $-1 2.000000000000000444 5 1 #
id_attribute-st-attrib $-1 $-1 $-1 $528 0 #
vertex $-1 $528 $610 #
ellipse-curve $-1 0 0 0 0 0 1 2 0 0 1 I I #
id_attribute-st-attrib $-1 $-1 $-1 $530 0 #
plane-surface $-1 -5.5 -4.5 -1 0 0 1 1 0 0 0 I I I I #
id_attribute-st-attrib $-1 $-1 $-1 $534 0 #
straight-curve $-1 -5.5 -1 -1 -1 0 0 I I #
coedge $-1 $569 $587 $543 $586 1 $378 $-1 #
edge $611 $572 $605 $585 $612 0 #
coedge $-1 $585 $544 $601 $613 0 $378 $-1 #
coedge $-1 $548 $598 $544 $589 1 $590 $-1 #
edge $614 $554 $615 $588 $616 0 #
loop $-1 $-1 $559 $596 #
id_attribute-st-attrib $-1 $-1 $-1 $549 0 #
straight-curve $-1 6.999999999999999112 -8.881784197001252323e-16 -2 -0 0 -1 I I #
point $-1 6.999999999999999112 -8.881784197001252323e-16 -5 #
point $-1 6.999999999999999112 -8.881784197001252323e-16 1 #
id_attribute-st-attrib $-1 $-1 $-1 $557 0 #
face $617 $399 $590 $5 $-1 $618 reversed single #
plane-surface $-1 2 7 -2 -1.224646799147353207e-16 -1 0 0 0 1 0 I I I I #
coedge $-1 $588 $559 $562 $602 1 $590 $-1 #
id_attribute-st-attrib $-1 $-1 $-1 $560 0 #
straight-curve $-1 7 2.999999999999999112 -5 -1.224646799147353207e-16 -1 0 I I #
coedge $-1 $562 $561 $587 $613 1 $563 $-1 #
edge $619 $615 $565 $598 $620 0 #
point $-1 7 6.999999999999999112 -5 #
id_attribute-st-attrib $-1 $-1 $-1 $567 0 #
vertex $-1 $586 $621 #
straight-curve $-1 -3 7.000000000000000888 -2 -0 0 -1 I I #
id_attribute-st-attrib $-1 $-1 $-1 $570 0 #
straight-curve $-1 1.999999999999999778 5 1 1 -1.224646799147353207e-16 0 I I #
point $-1 -0.999999999999999778 5 1 #
point $-1 2 0 0 #
id_attribute-st-attrib $-1 $-1 $-1 $586 0 #
ellipse-curve $-1 -0.9999999999999996669 7 1 -0 -0 -1 -1.414213562373095368 -1.414213562373094701 0 1 I I #
edge $622 $615 $605 $601 $623 0 #
id_attribute-st-attrib $-1 $-1 $-1 $589 0 #
vertex $-1 $589 $624 #
straight-curve $-1 7 5.999999999999999112 1 1.224646799147353207e-16 1 0 I I #
id_attribute-st-attrib $-1 $-1 $-1 $596 0 #
plane-surface $-1 7 5.999999999999999112 -2 -1 1.224646799147353207e-16 0 -0 0 -1 0 I I I I #
id_attribute-st-attrib $-1 $-1 $-1 $602 0 #
straight-curve $-1 7 6.999999999999999112 -2 -0 0 -1 I I #
point $-1 -3 7.000000000000000888 1 #
id_attribute-st-attrib $-1 $-1 $-1 $613 0 #
straight-curve $-1 2 7 1 -1 1.224646799147353207e-16 0 I I #
point $-1 7 6.999999999999999112 1 #
End-of-ACIS-data 