600 0 1 0           
89 GICL ACIS Healer - Source: /gicl/data5/repository/UMD/socket1-Part/socket1-Part.sat - 6 0 18 ACIS 6.0.3 Solaris 24 Sun Apr 14 00:35:54 2002 
1 9.999999999999999547e-07 1.000000000000000036e-10 
body $-1 $1 $-1 $-1 #
lump $-1 $-1 $2 $0 #
shell $-1 $-1 $-1 $3 $-1 $1 #
face $-1 $4 $5 $2 $-1 $6 reversed single #
face $-1 $7 $8 $2 $-1 $9 reversed single #
loop $-1 $10 $11 $3 #
cone-surface $-1 -75 0 0 0 0 1 10 0 0 1 I I 0 1 10 forward I I I I #
face $-1 $12 $13 $2 $-1 $14 forward single #
loop $-1 $15 $16 $4 #
cone-surface $-1 75 0 0 0 0 1 10 0 0 1 I I 0 1 10 forward I I I I #
loop $-1 $-1 $17 $3 #
coedge $-1 $11 $11 $18 $19 reversed $5 $-1 #
face $-1 $20 $21 $2 $-1 $22 forward single #
loop $-1 $-1 $23 $7 #
plane-surface $-1 0 -45 62.5 0 1 0 0 0 1 forward_v I I I I #
loop $-1 $-1 $24 $4 #
coedge $-1 $16 $16 $25 $26 reversed $8 $-1 #
coedge $-1 $17 $17 $27 $28 reversed $10 $-1 #
coedge $-1 $18 $18 $11 $19 forward $29 $-1 #
edge $-1 $30 -3.141592653589799777 $30 3.141592653589786455 $18 $31 forward 7 unknown #
face $-1 $32 $33 $2 $-1 $34 forward single #
loop $-1 $-1 $35 $12 #
plane-surface $-1 27.5 0 62.5 -1 0 0 0 0 1 forward_v I I I I #
coedge $-1 $36 $37 $38 $39 reversed $13 $-1 #
coedge $-1 $24 $24 $40 $41 reversed $15 $-1 #
coedge $-1 $25 $25 $16 $26 forward $42 $-1 #
edge $-1 $43 -3.141592653589799777 $43 3.141592653589786455 $25 $44 forward 7 unknown #
coedge $-1 $27 $27 $17 $28 forward $45 $-1 #
edge $-1 $46 -3.141592653589799777 $46 3.141592653589786455 $27 $47 forward 7 unknown #
loop $-1 $48 $18 $49 #
vertex $-1 $19 $50 #
ellipse-curve $-1 -75 0 25 -0 -0 -1 10 0 0 1 I I #
face $-1 $51 $52 $2 $-1 $53 forward single #
loop $-1 $-1 $54 $20 #
plane-surface $-1 0 45 62.5 0 -1 0 0 0 -1 forward_v I I I I #
coedge $-1 $55 $56 $57 $58 reversed $21 $-1 #
coedge $-1 $59 $23 $60 $61 reversed $13 $-1 #
coedge $-1 $23 $59 $62 $63 forward $13 $-1 #
coedge $-1 $64 $65 $23 $39 forward $66 $-1 #
edge $-1 $67 -25 $68 0 $38 $69 forward 7 unknown #
coedge $-1 $40 $40 $24 $41 forward $70 $-1 #
edge $-1 $71 -3.141592653589799777 $71 3.141592653589786455 $40 $72 forward 7 unknown #
loop $-1 $73 $25 $74 #
vertex $-1 $26 $75 #
ellipse-curve $-1 75 0 -25 0 0 1 10 0 0 1 I I #
loop $-1 $76 $27 $77 #
vertex $-1 $28 $78 #
ellipse-curve $-1 -75 0 -25 0 0 1 10 0 0 1 I I #
loop $-1 $-1 $79 $49 #
face $-1 $80 $29 $2 $-1 $81 forward single #
point $-1 -85 -6.982962677686270497e-14 25 #
face $-1 $82 $83 $2 $-1 $53 forward single #
loop $-1 $-1 $84 $32 #
plane-surface $-1 -27.5 0 62.5 1 0 0 0 0 -1 forward_v I I I I #
coedge $-1 $85 $86 $87 $88 reversed $33 $-1 #
coedge $-1 $89 $35 $90 $91 reversed $21 $-1 #
coedge $-1 $35 $89 $92 $93 forward $21 $-1 #
coedge $-1 $94 $95 $35 $58 forward $96 $-1 #
edge $-1 $97 -75 $98 -50 $57 $99 forward 7 unknown #
coedge $-1 $37 $36 $100 $101 forward $13 $-1 #
coedge $-1 $102 $103 $36 $61 forward $104 $-1 #
edge $-1 $105 -27.5 $67 -20 $60 $106 forward 7 unknown #
coedge $-1 $107 $108 $37 $63 reversed $109 $-1 #
edge $-1 $110 -27.5 $68 -20 $37 $111 forward 7 unknown #
coedge $-1 $112 $38 $108 $113 forward $66 $-1 #
coedge $-1 $38 $114 $102 $115 reversed $66 $-1 #
loop $-1 $116 $38 $117 #
vertex $-1 $39 $118 #
vertex $-1 $113 $119 #
straight-curve $-1 20 -45 50 0 0 -1 I I #
loop $-1 $120 $40 $121 #
vertex $-1 $41 $122 #
ellipse-curve $-1 75 0 25 -0 -0 -1 10 0 0 1 I I #
loop $-1 $-1 $123 $74 #
face $-1 $124 $42 $2 $-1 $125 reversed single #
point $-1 65 6.982962677686270497e-14 -25 #
loop $-1 $-1 $126 $77 #
face $-1 $127 $45 $2 $-1 $128 reversed single #
point $-1 -85 6.982962677686270497e-14 -25 #
coedge $-1 $129 $130 $131 $132 reversed $48 $-1 #
face $-1 $77 $133 $2 $-1 $134 forward single #
plane-surface $-1 -75 0 25 0 0 1 1 0 0 forward_v I I I I #
face $-1 $135 $136 $2 $-1 $137 forward single #
loop $-1 $-1 $138 $51 #
coedge $-1 $139 $140 $141 $142 reversed $52 $-1 #
coedge $-1 $143 $54 $144 $145 reversed $33 $-1 #
coedge $-1 $54 $143 $146 $147 forward $33 $-1 #
coedge $-1 $148 $149 $54 $88 forward $150 $-1 #
edge $-1 $151 -25 $152 0 $87 $153 forward 7 unknown #
coedge $-1 $56 $55 $154 $155 forward $21 $-1 #
coedge $-1 $156 $157 $55 $91 forward $104 $-1 #
edge $-1 $158 -45 $97 -25.49509756796389937 $90 $159 forward 7 unknown #
coedge $-1 $160 $161 $56 $93 reversed $162 $-1 #
edge $-1 $163 -45 $98 -25.49509756796389937 $56 $164 forward 7 unknown #
coedge $-1 $165 $57 $161 $166 forward $96 $-1 #
coedge $-1 $57 $167 $156 $168 reversed $96 $-1 #
loop $-1 $-1 $169 $170 #
vertex $-1 $58 $171 #
vertex $-1 $166 $172 #
straight-curve $-1 27.5 25.49509756796389937 0 -0 -0 -1 I I #
coedge $-1 $173 $174 $59 $101 reversed $175 $-1 #
edge $-1 $105 -12.5 $110 12.5 $100 $176 forward 7 unknown #
coedge $-1 $177 $60 $65 $115 forward $104 $-1 #
coedge $-1 $60 $156 $173 $178 forward $104 $-1 #
loop $-1 $-1 $60 $179 #
vertex $-1 $61 $180 #
straight-curve $-1 0 -45 75 -1 0 0 I I #
coedge $-1 $181 $62 $174 $182 reversed $109 $-1 #
coedge $-1 $62 $181 $64 $113 reversed $109 $-1 #
loop $-1 $-1 $108 $135 #
vertex $-1 $101 $183 #
straight-curve $-1 0 -45 50 -1 0 0 I I #
coedge $-1 $184 $64 $185 $186 forward $66 $-1 #
edge $-1 $68 -45 $187 -31.72144385112380149 $64 $188 forward 7 unknown #
coedge $-1 $65 $184 $189 $190 reversed $66 $-1 #
edge $-1 $67 45 $191 97.97958971132709394 $102 $192 forward 7 unknown #
loop $-1 $-1 $193 $117 #
face $-1 $194 $66 $2 $-1 $195 forward single #
point $-1 20 -45 75 #
point $-1 20 -45 50 #
loop $-1 $-1 $196 $121 #
face $-1 $197 $70 $2 $-1 $198 forward single #
point $-1 65 -6.982962677686270497e-14 25 #
coedge $-1 $199 $200 $201 $202 reversed $73 $-1 #
face $-1 $121 $203 $2 $-1 $204 forward single #
plane-surface $-1 75 0 -25 0 0 1 1 0 0 forward_v I I I I #
coedge $-1 $205 $206 $207 $208 reversed $76 $-1 #
face $-1 $74 $209 $2 $-1 $210 forward single #
plane-surface $-1 -75 0 -25 0 0 1 1 0 0 forward_v I I I I #
coedge $-1 $130 $79 $211 $212 reversed $48 $-1 #
coedge $-1 $79 $129 $213 $214 reversed $48 $-1 #
coedge $-1 $215 $211 $79 $132 forward $216 $-1 #
edge $-1 $217 -3.141592653589793116 $218 -2.094395102393195707 $131 $219 forward 7 unknown #
loop $-1 $220 $221 $80 #
plane-surface $-1 -50 0 50 -1 0 0 0 0 1 forward_v I I I I #
face $-1 $222 $109 $2 $-1 $137 forward single #
loop $-1 $-1 $223 $82 #
plane-surface $-1 0 0 50 0 0 1 1 0 0 forward_v I I I I #
coedge $-1 $224 $225 $169 $226 reversed $83 $-1 #
coedge $-1 $227 $84 $228 $229 forward $52 $-1 #
coedge $-1 $84 $227 $230 $231 reversed $52 $-1 #
coedge $-1 $232 $233 $84 $142 forward $96 $-1 #
edge $-1 $234 50 $235 75 $141 $236 forward 7 unknown #
coedge $-1 $86 $85 $227 $237 forward $33 $-1 #
coedge $-1 $238 $230 $85 $145 forward $239 $-1 #
edge $-1 $240 -27.5 $151 -20 $144 $241 forward 7 unknown #
coedge $-1 $228 $223 $86 $147 reversed $136 $-1 #
edge $-1 $242 -27.5 $152 -20 $86 $243 forward 7 unknown #
coedge $-1 $244 $87 $223 $245 forward $150 $-1 #
coedge $-1 $87 $246 $238 $247 reversed $150 $-1 #
loop $-1 $248 $87 $194 #
vertex $-1 $88 $249 #
vertex $-1 $245 $250 #
straight-curve $-1 -20 45 50 0 0 -1 I I #
coedge $-1 $251 $252 $89 $155 reversed $253 $-1 #
edge $-1 $158 -12.5 $163 12.5 $89 $254 forward 7 unknown #
coedge $-1 $103 $90 $95 $168 forward $104 $-1 #
coedge $-1 $90 $255 $251 $256 forward $104 $-1 #
vertex $-1 $256 $257 #
straight-curve $-1 27.5 0 75 0 -1 0 I I #
coedge $-1 $258 $92 $252 $259 reversed $162 $-1 #
coedge $-1 $92 $258 $94 $166 reversed $162 $-1 #
loop $-1 $-1 $258 $222 #
vertex $-1 $93 $260 #
straight-curve $-1 27.5 0 50 0 -1 0 I I #
coedge $-1 $261 $94 $262 $263 reversed $96 $-1 #
edge $-1 $98 0.7475843496690203205 $264 1.008260082251041023 $94 $265 forward 7 unknown #
coedge $-1 $95 $266 $267 $268 forward $96 $-1 #
edge $-1 $97 -0.7475843496690203205 $269 0.7475843496690203205 $156 $270 forward 7 unknown #
coedge $-1 $271 $232 $138 $226 forward $96 $-1 #
face $-1 $272 $273 $2 $-1 $274 reversed single #
point $-1 27.5 25.49509756796389937 75 #
point $-1 27.5 25.49509756796389937 50 #
coedge $-1 $267 $100 $103 $178 reversed $175 $-1 #
coedge $-1 $100 $267 $107 $182 forward $175 $-1 #
loop $-1 $-1 $267 $275 #
straight-curve $-1 27.5 -45 62.5 0 0 -1 I I #
coedge $-1 $276 $102 $277 $278 forward $104 $-1 #
edge $-1 $269 25.49509756796389937 $105 45 $103 $159 forward 7 unknown #
face $-1 $279 $104 $2 $-1 $280 forward single #
point $-1 27.5 -45 75 #
coedge $-1 $108 $107 $266 $281 reversed $109 $-1 #
edge $-1 $282 25.49509756796389937 $110 45 $174 $164 forward 7 unknown #
point $-1 27.5 -45 50 #
coedge $-1 $114 $112 $283 $284 forward $66 $-1 #
coedge $-1 $266 $285 $112 $186 reversed $96 $-1 #
edge $-1 $187 -50 $286 -0 $112 $287 forward 7 unknown #
vertex $-1 $281 $288 #
straight-curve $-1 20 0 50 0 1 -0 I I #
coedge $-1 $289 $277 $114 $190 forward $216 $-1 #
edge $-1 $191 -75 $290 -0 $189 $291 forward 7 unknown #
vertex $-1 $190 $292 #
straight-curve $-1 20 0 75 0 -1 0 I I #
coedge $-1 $193 $193 $293 $294 forward $116 $-1 #
face $-1 $295 $150 $2 $-1 $296 forward single #
plane-surface $-1 20 0 37.5 -1 0 0 0 0 1 forward_v I I I I #
coedge $-1 $297 $298 $299 $300 reversed $120 $-1 #
face $-1 $301 $302 $2 $-1 $303 forward single #
plane-surface $-1 75 0 25 0 0 1 1 0 0 forward_v I I I I #
coedge $-1 $200 $123 $304 $305 reversed $73 $-1 #
coedge $-1 $123 $199 $306 $307 reversed $73 $-1 #
coedge $-1 $306 $308 $123 $202 forward $309 $-1 #
edge $-1 $310 -1.047197551196597853 $311 0 $201 $312 forward 7 unknown #
loop $-1 $-1 $313 $124 #
plane-surface $-1 50 0 -50 1 0 0 0 0 -1 forward_v I I I I #
coedge $-1 $206 $126 $314 $315 reversed $76 $-1 #
coedge $-1 $126 $205 $316 $317 reversed $76 $-1 #
coedge $-1 $316 $318 $126 $208 forward $309 $-1 #
edge $-1 $319 2.094395102393195707 $320 3.141592653589793116 $207 $321 forward 7 unknown #
loop $-1 $-1 $322 $127 #
plane-surface $-1 -50 0 -50 -1 0 0 0 0 1 forward_v I I I I #
coedge $-1 $131 $323 $129 $212 forward $216 $-1 #
edge $-1 $324 2.094395102393195707 $217 3.141592653589793116 $211 $219 forward 7 unknown #
coedge $-1 $325 $326 $130 $214 forward $327 $-1 #
edge $-1 $218 -86.60254037844390496 $324 86.60254037844390496 $213 $328 forward 7 unknown #
coedge $-1 $329 $131 $326 $330 forward $216 $-1 #
loop $-1 $-1 $331 $332 #
vertex $-1 $212 $333 #
vertex $-1 $132 $334 #
ellipse-curve $-1 0 0 25 -0 -0 -1 100 0 0 1 I I #
loop $-1 $327 $335 $80 #
coedge $-1 $221 $221 $336 $337 forward $133 $-1 #
face $-1 $338 $162 $2 $-1 $137 forward single #
coedge $-1 $146 $339 $148 $245 reversed $136 $-1 #
coedge $-1 $340 $138 $341 $342 reversed $83 $-1 #
coedge $-1 $138 $340 $343 $344 forward $83 $-1 #
edge $-1 $345 -75 $346 -50 $169 $347 forward 7 unknown #
coedge $-1 $140 $139 $143 $237 reversed $52 $-1 #
coedge $-1 $339 $146 $139 $229 reversed $136 $-1 #
edge $-1 $234 25.49509756796389937 $242 45 $139 $348 forward 7 unknown #
coedge $-1 $144 $349 $140 $231 forward $239 $-1 #
edge $-1 $235 25.49509756796389937 $240 45 $230 $350 forward 7 unknown #
coedge $-1 $169 $141 $349 $351 reversed $96 $-1 #
coedge $-1 $141 $352 $339 $353 forward $96 $-1 #
vertex $-1 $353 $354 #
vertex $-1 $351 $355 #
straight-curve $-1 -27.5 25.49509756796389937 0 -0 0 1 I I #
edge $-1 $240 -12.5 $242 12.5 $143 $356 forward 7 unknown #
coedge $-1 $357 $144 $149 $247 forward $239 $-1 #
loop $-1 $-1 $358 $295 #
vertex $-1 $231 $359 #
straight-curve $-1 0 45 75 1 0 -0 I I #
vertex $-1 $147 $360 #
straight-curve $-1 0 45 50 1 0 0 I I #
coedge $-1 $361 $148 $352 $362 forward $150 $-1 #
edge $-1 $152 -45 $363 -31.72144385112380149 $148 $364 forward 7 unknown #
coedge $-1 $149 $361 $331 $365 reversed $150 $-1 #
edge $-1 $151 45 $366 97.97958971132709394 $238 $367 forward 7 unknown #
loop $-1 $-1 $368 $194 #
point $-1 -20 45 75 #
point $-1 -20 45 50 #
coedge $-1 $369 $154 $157 $256 reversed $253 $-1 #
coedge $-1 $154 $369 $160 $259 forward $253 $-1 #
loop $-1 $-1 $369 $370 #
straight-curve $-1 27.5 45 62.5 0 0 -1 I I #
coedge $-1 $157 $371 $372 $373 forward $104 $-1 #
edge $-1 $374 20 $158 27.5 $157 $375 forward 7 unknown #
point $-1 27.5 45 75 #
coedge $-1 $161 $160 $376 $377 reversed $162 $-1 #
edge $-1 $378 20 $163 27.5 $252 $243 forward 7 unknown #
point $-1 27.5 45 50 #
coedge $-1 $352 $165 $379 $380 reversed $96 $-1 #
coedge $-1 $376 $381 $165 $263 forward $382 $-1 #
edge $-1 $383 0 $264 50 $262 $384 forward 7 unknown #
vertex $-1 $263 $385 #
ellipse-curve $-1 0 0 50 0 0 1 37.5 0 0 1 I I #
coedge $-1 $167 $185 $181 $281 forward $96 $-1 #
coedge $-1 $174 $173 $167 $268 reversed $175 $-1 #
edge $-1 $282 50 $269 75 $167 $386 forward 7 unknown #
vertex $-1 $168 $387 #
ellipse-curve $-1 0 0 75 -0 -0 -1 37.5 0 0 1 I I #
coedge $-1 $388 $169 $389 $390 forward $96 $-1 #
face $-1 $391 $392 $2 $-1 $393 reversed single #
loop $-1 $96 $394 $170 #
cone-surface $-1 0 0 0 0 0 1 37.5 0 0 1 I I 0 1 37.5 forward I I I I #
face $-1 $117 $175 $2 $-1 $22 forward single #
coedge $-1 $371 $177 $395 $396 forward $104 $-1 #
coedge $-1 $189 $397 $177 $278 reversed $216 $-1 #
edge $-1 $191 -1.369438406004565678 $398 -1.047197551196597853 $177 $399 forward 7 unknown #
face $-1 $332 $382 $2 $-1 $195 forward single #
plane-surface $-1 0 0 75 0 0 1 1 0 0 forward_v I I I I #
edge $-1 $187 -1.008260082251041023 $282 -0.7475843496690203205 $266 $400 forward 7 unknown #
vertex $-1 $281 $401 #
coedge $-1 $402 $403 $184 $284 reversed $404 $-1 #
edge $-1 $286 31.72144385112380149 $290 97.97958971132709394 $184 $405 forward 7 unknown #
coedge $-1 $185 $388 $402 $406 reversed $96 $-1 #
vertex $-1 $186 $407 #
straight-curve $-1 20 -31.72144385112380149 0 -0 -0 -1 I I #
point $-1 20 -31.72144385112380149 50 #
coedge $-1 $408 $189 $403 $409 forward $216 $-1 #
vertex $-1 $409 $410 #
straight-curve $-1 20 -97.97958971132709394 0 -0 -0 -1 I I #
point $-1 20 -97.97958971132709394 75 #
coedge $-1 $293 $293 $193 $294 reversed $411 $-1 #
edge $-1 $412 -3.141592653589802886 $412 3.141592653589783346 $193 $413 forward 7 unknown #
face $-1 $170 $239 $2 $-1 $280 forward single #
plane-surface $-1 -20 0 37.5 1 0 0 0 0 -1 forward_v I I I I #
coedge $-1 $298 $196 $414 $415 reversed $120 $-1 #
coedge $-1 $196 $297 $416 $417 reversed $120 $-1 #
coedge $-1 $397 $414 $196 $300 forward $216 $-1 #
edge $-1 $418 0 $419 1.047197551196597853 $299 $420 forward 7 unknown #
face $-1 $-1 $421 $2 $-1 $422 forward single #
loop $-1 $423 $424 $197 #
plane-surface $-1 50 0 50 1 0 0 0 0 -1 forward_v I I I I #
coedge $-1 $313 $425 $199 $305 forward $203 $-1 #
edge $-1 $426 -86.60254037844390496 $310 86.60254037844390496 $304 $427 forward 7 unknown #
coedge $-1 $428 $201 $200 $307 forward $309 $-1 #
edge $-1 $311 0 $426 1.047197551196597853 $306 $312 forward 7 unknown #
coedge $-1 $201 $429 $313 $430 forward $309 $-1 #
loop $-1 $216 $318 $332 #
vertex $-1 $202 $431 #
vertex $-1 $202 $432 #
ellipse-curve $-1 0 0 -25 0 0 1 100 0 0 1 I I #
coedge $-1 $433 $304 $308 $430 reversed $203 $-1 #
coedge $-1 $322 $434 $205 $315 forward $209 $-1 #
edge $-1 $435 -86.60254037844390496 $319 86.60254037844390496 $314 $436 forward 7 unknown #
coedge $-1 $437 $207 $206 $317 forward $309 $-1 #
edge $-1 $320 -3.141592653589793116 $435 -2.094395102393195707 $316 $321 forward 7 unknown #
coedge $-1 $207 $438 $322 $439 forward $309 $-1 #
vertex $-1 $208 $440 #
vertex $-1 $208 $441 #
ellipse-curve $-1 0 0 -25 0 0 1 100 0 0 1 I I #
coedge $-1 $442 $314 $318 $439 reversed $209 $-1 #
coedge $-1 $211 $443 $325 $444 forward $216 $-1 #
vertex $-1 $212 $445 #
coedge $-1 $446 $213 $323 $444 reversed $327 $-1 #
coedge $-1 $213 $446 $215 $330 reversed $327 $-1 #
loop $-1 $-1 $326 $80 #
straight-curve $-1 -50 0 25 0 -1 0 I I #
coedge $-1 $331 $215 $357 $447 reversed $216 $-1 #
edge $-1 $218 25 $448 75 $215 $449 forward 7 unknown #
coedge $-1 $450 $329 $246 $365 forward $216 $-1 #
face $-1 $49 $309 $2 $-1 $451 forward single #
point $-1 -100 0 25 #
point $-1 -50 86.60254037844390496 25 #
coedge $-1 $335 $335 $452 $453 forward $220 $-1 #
coedge $-1 $336 $336 $221 $337 reversed $454 $-1 #
edge $-1 $455 -3.141592653589793116 $455 3.141592653589793116 $221 $456 forward 7 unknown #
face $-1 $457 $458 $2 $-1 $137 forward single #
coedge $-1 $223 $228 $233 $353 reversed $136 $-1 #
coedge $-1 $225 $224 $459 $460 forward $83 $-1 #
coedge $-1 $349 $358 $224 $342 forward $239 $-1 #
edge $-1 $461 -45 $345 -25.49509756796389937 $341 $350 forward 7 unknown #
coedge $-1 $462 $389 $225 $344 reversed $458 $-1 #
edge $-1 $463 -45 $346 -25.49509756796389937 $225 $348 forward 7 unknown #
vertex $-1 $226 $464 #
vertex $-1 $390 $465 #
straight-curve $-1 -27.5 -25.49509756796389937 0 0 0 -1 I I #
straight-curve $-1 -27.5 0 50 0 1 0 I I #
coedge $-1 $230 $341 $232 $351 forward $239 $-1 #
straight-curve $-1 -27.5 0 75 0 1 0 I I #
edge $-1 $345 2.394008303920772907 $235 3.889177003258813325 $349 $466 forward 7 unknown #
coedge $-1 $233 $261 $244 $362 reversed $96 $-1 #
edge $-1 $363 2.133332571338752537 $234 2.394008303920772907 $233 $265 forward 7 unknown #
point $-1 -27.5 25.49509756796389937 50 #
point $-1 -27.5 25.49509756796389937 75 #
straight-curve $-1 -27.5 45 62.5 0 0 -1 I I #
coedge $-1 $467 $238 $329 $447 forward $239 $-1 #
coedge $-1 $341 $468 $469 $470 forward $239 $-1 #
point $-1 -27.5 45 75 #
point $-1 -27.5 45 50 #
coedge $-1 $246 $244 $471 $472 forward $150 $-1 #
edge $-1 $363 -50 $473 -0 $244 $474 forward 7 unknown #
vertex $-1 $353 $475 #
straight-curve $-1 -20 0 50 0 -1 0 I I #
edge $-1 $366 -75 $476 -0 $331 $477 forward 7 unknown #
vertex $-1 $247 $478 #
straight-curve $-1 -20 0 75 0 1 0 I I #
coedge $-1 $368 $368 $479 $480 forward $248 $-1 #
coedge $-1 $252 $251 $481 $482 reversed $253 $-1 #
face $-1 $275 $253 $2 $-1 $34 forward single #
coedge $-1 $255 $276 $483 $484 forward $104 $-1 #
coedge $-1 $485 $481 $255 $373 reversed $382 $-1 #
edge $-1 $486 -97.97958971132709394 $374 -45 $255 $192 forward 7 unknown #
vertex $-1 $373 $487 #
straight-curve $-1 0 45 75 1 0 -0 I I #
coedge $-1 $481 $262 $258 $377 forward $382 $-1 #
edge $-1 $264 31.72144385112380149 $378 45 $376 $488 forward 7 unknown #
vertex $-1 $377 $489 #
coedge $-1 $490 $471 $261 $380 forward $491 $-1 #
edge $-1 $473 -2.133332571338752537 $383 -1.008260082251041023 $379 $492 forward 7 unknown #
coedge $-1 $262 $485 $490 $493 forward $382 $-1 #
loop $-1 $494 $481 $279 #
vertex $-1 $493 $495 #
straight-curve $-1 20 31.72144385112380149 0 0 0 1 I I #
point $-1 20 31.72144385112380149 50 #
straight-curve $-1 27.5 -25.49509756796389937 0 0 -0 1 I I #
point $-1 27.5 -25.49509756796389937 75 #
coedge $-1 $285 $271 $496 $497 reversed $96 $-1 #
coedge $-1 $343 $498 $271 $390 reversed $458 $-1 #
edge $-1 $346 -2.394008303920772907 $499 -2.133332571338752537 $271 $400 forward 7 unknown #
face $-1 $500 $501 $2 $-1 $502 reversed single #
loop $-1 $454 $503 $272 #
cone-surface $-1 -100 -60 50 1 0 -3.491481338843129805e-15 -1.745740669421570149e-14 0 -5 1 I I 0 1 5 forward I I I I #
coedge $-1 $394 $394 $504 $505 reversed $273 $-1 #
coedge $-1 $506 $507 $276 $396 reversed $508 $-1 #
edge $-1 $398 -86.60254037844390496 $509 86.60254037844390496 $276 $510 forward 7 unknown #
coedge $-1 $277 $299 $506 $511 forward $216 $-1 #
vertex $-1 $278 $512 #
ellipse-curve $-1 0 0 75 0 0 1 100 0 0 1 I I #
ellipse-curve $-1 0 0 50 0 0 1 37.5 0 0 1 I I #
point $-1 27.5 -25.49509756796389937 50 #
coedge $-1 $513 $283 $285 $406 forward $404 $-1 #
coedge $-1 $283 $514 $289 $409 reversed $404 $-1 #
loop $-1 $-1 $402 $515 #
straight-curve $-1 20 0 0 0 -1 0 I I #
edge $-1 $286 1.008260082251041023 $516 2.133332571338752537 $402 $517 forward 7 unknown #
point $-1 20 -31.72144385112380149 0 #
coedge $-1 $518 $289 $514 $519 forward $216 $-1 #
edge $-1 $290 1.369438406004565678 $520 1.570796326794896558 $289 $521 forward 7 unknown #
point $-1 20 -97.97958971132709394 0 #
loop $-1 $522 $293 $523 #
vertex $-1 $294 $524 #
ellipse-curve $-1 20 -60 50.00000000000029843 1 -0 -0 -3.4914813388431302e-14 0 -10 1 I I #
coedge $-1 $299 $525 $297 $415 forward $216 $-1 #
edge $-1 $526 -1.047197551196597853 $418 0 $414 $420 forward 7 unknown #
coedge $-1 $507 $506 $298 $417 forward $508 $-1 #
edge $-1 $419 -86.60254037844390496 $526 86.60254037844390496 $416 $527 forward 7 unknown #
vertex $-1 $415 $528 #
vertex $-1 $300 $529 #
ellipse-curve $-1 0 0 25 -0 -0 -1 100 0 0 1 I I #
loop $-1 $530 $504 $301 #
plane-surface $-1 0 0 -75 0 0 -1 -1 0 0 forward_v I I I I #
loop $-1 $508 $531 $197 #
coedge $-1 $424 $424 $532 $533 forward $302 $-1 #
coedge $-1 $304 $433 $428 $534 reversed $203 $-1 #
vertex $-1 $307 $535 #
straight-curve $-1 50 0 -25 0 -1 0 I I #
coedge $-1 $438 $306 $425 $534 forward $309 $-1 #
coedge $-1 $308 $437 $536 $537 reversed $309 $-1 #
edge $-1 $538 -75 $310 -25 $308 $539 forward 7 unknown #
point $-1 50 -86.60254037844390496 -25 #
point $-1 100 0 -25 #
coedge $-1 $425 $313 $540 $541 reversed $203 $-1 #
coedge $-1 $314 $442 $437 $542 reversed $209 $-1 #
vertex $-1 $317 $543 #
straight-curve $-1 -50 0 -25 0 1 0 I I #
coedge $-1 $429 $316 $434 $542 forward $309 $-1 #
coedge $-1 $318 $428 $544 $545 reversed $309 $-1 #
edge $-1 $546 -75 $319 -25 $318 $547 forward 7 unknown #
point $-1 -50 86.60254037844390496 -25 #
point $-1 -100 0 -25 #
coedge $-1 $434 $322 $548 $549 reversed $209 $-1 #
coedge $-1 $323 $518 $550 $551 reversed $216 $-1 #
edge $-1 $552 -75 $324 -25 $323 $553 forward 7 unknown #
point $-1 -50 -86.60254037844390496 25 #
coedge $-1 $326 $325 $467 $554 reversed $327 $-1 #
edge $-1 $366 1.77215424758522766 $448 2.094395102393195707 $357 $399 forward 7 unknown #
vertex $-1 $447 $555 #
straight-curve $-1 -50 86.60254037844390496 0 0 0 1 I I #
coedge $-1 $556 $331 $557 $558 forward $216 $-1 #
cone-surface $-1 0 0 0 0 0 1 100 0 0 1 I I 0 1 100 forward I I I I #
coedge $-1 $452 $452 $335 $453 reversed $559 $-1 #
edge $-1 $560 -3.141592653589793116 $560 3.141592653589793116 $335 $561 forward 7 unknown #
loop $-1 $-1 $336 $272 #
vertex $-1 $337 $562 #
ellipse-curve $-1 -50 -60 49.99999999999980105 1 -0 -0 -1.745740669421570149e-14 0 -5 1 I I #
face $-1 $370 $563 $2 $-1 $14 forward single #
loop $-1 $-1 $498 $338 #
coedge $-1 $469 $564 $340 $460 reversed $563 $-1 #
edge $-1 $461 -12.5 $463 12.5 $340 $565 forward 7 unknown #
vertex $-1 $470 $566 #
coedge $-1 $498 $343 $564 $567 reversed $458 $-1 #
vertex $-1 $344 $568 #
point $-1 -27.5 -25.49509756796389937 75 #
point $-1 -27.5 -25.49509756796389937 50 #
ellipse-curve $-1 0 0 75 -0 -0 -1 37.5 0 0 1 I I #
coedge $-1 $550 $357 $446 $554 forward $239 $-1 #
coedge $-1 $358 $550 $569 $570 forward $239 $-1 #
coedge $-1 $571 $459 $358 $470 reversed $563 $-1 #
edge $-1 $572 20 $461 27.5 $358 $573 forward 7 unknown #
coedge $-1 $379 $557 $361 $472 reversed $491 $-1 #
edge $-1 $473 31.72144385112380149 $476 97.97958971132709394 $361 $574 forward 7 unknown #
vertex $-1 $380 $575 #
straight-curve $-1 -20 31.72144385112380149 0 -0 -0 -1 I I #
point $-1 -20 31.72144385112380149 50 #
vertex $-1 $558 $576 #
straight-curve $-1 -20 97.97958971132709394 0 -0 -0 -1 I I #
point $-1 -20 97.97958971132709394 75 #
coedge $-1 $479 $479 $368 $480 reversed $501 $-1 #
edge $-1 $577 -3.141592653589793116 $577 3.141592653589793116 $368 $578 forward 7 unknown #
coedge $-1 $372 $376 $369 $482 forward $382 $-1 #
edge $-1 $378 0 $374 25 $481 $579 forward 7 unknown #
coedge $-1 $525 $580 $371 $484 reversed $216 $-1 #
edge $-1 $509 1.047197551196597853 $486 1.369438406004565678 $371 $399 forward 7 unknown #
coedge $-1 $381 $372 $580 $581 reversed $382 $-1 #
vertex $-1 $484 $582 #
point $-1 20 45 75 #
straight-curve $-1 20 0 50 0 1 -0 I I #
point $-1 20 45 50 #
coedge $-1 $583 $379 $381 $493 reversed $491 $-1 #
loop $-1 $-1 $379 $584 #
ellipse-curve $-1 0 0 0 -0 -0 -1 37.5 0 0 1 I I #
edge $-1 $585 -97.97958971132709394 $383 -31.72144385112380149 $381 $405 forward 7 unknown #
loop $-1 $-1 $586 $279 #
point $-1 20 31.72144385112380149 0 #
coedge $-1 $587 $588 $388 $497 forward $589 $-1 #
edge $-1 $516 0 $499 50 $496 $590 forward 7 unknown #
coedge $-1 $389 $462 $587 $591 reversed $458 $-1 #
vertex $-1 $497 $592 #
face $-1 $523 $593 $2 $-1 $594 reversed single #
loop $-1 $559 $479 $391 #
cone-surface $-1 -100 60 50 1 0 -3.491481338843129805e-15 -1.745740669421570149e-14 0 -5 1 I I 0 1 5 forward I I I I #
coedge $-1 $503 $503 $595 $596 reversed $392 $-1 #
coedge $-1 $504 $504 $394 $505 forward $421 $-1 #
edge $-1 $597 -3.141592653589799777 $597 3.141592653589786455 $504 $598 forward 7 unknown #
coedge $-1 $416 $395 $397 $511 reversed $508 $-1 #
coedge $-1 $395 $416 $525 $599 reversed $508 $-1 #
loop $-1 $-1 $506 $197 #
vertex $-1 $599 $600 #
straight-curve $-1 50 0 75 0 1 0 I I #
edge $-1 $419 25 $398 75 $397 $601 forward 7 unknown #
point $-1 50 -86.60254037844390496 75 #
coedge $-1 $514 $402 $588 $602 reversed $404 $-1 #
coedge $-1 $403 $513 $408 $519 reversed $404 $-1 #
face $-1 $584 $404 $2 $-1 $603 forward single #
vertex $-1 $602 $604 #
ellipse-curve $-1 0 0 0 -0 -0 -1 37.5 0 0 1 I I #
coedge $-1 $443 $408 $605 $606 forward $216 $-1 #
edge $-1 $520 1.570796326794896558 $607 1.77215424758522766 $408 $521 forward 7 unknown #
vertex $-1 $409 $608 #
ellipse-curve $-1 0 0 0 -0 -0 -1 100 0 0 1 I I #
loop $-1 $-1 $609 $523 #
face $-1 $610 $411 $2 $-1 $611 reversed single #
point $-1 20.00000000000009948 -59.99999999999990052 60.00000000000029843 #
coedge $-1 $414 $483 $507 $599 forward $216 $-1 #
vertex $-1 $415 $612 #
straight-curve $-1 50 0 25 0 1 0 I I #
point $-1 100 0 25 #
point $-1 50 -86.60254037844390496 25 #
loop $-1 $-1 $548 $301 #
coedge $-1 $531 $531 $609 $613 forward $423 $-1 #
coedge $-1 $532 $532 $424 $533 reversed $614 $-1 #
edge $-1 $615 -3.141592653589802886 $615 3.141592653589783346 $424 $616 forward 7 unknown #
edge $-1 $426 25 $617 75 $428 $618 forward 7 unknown #
point $-1 50 86.60254037844390496 -25 #
coedge $-1 $548 $540 $429 $537 forward $530 $-1 #
edge $-1 $538 1.047197551196597853 $619 2.094395102393195707 $536 $620 forward 7 unknown #
vertex $-1 $541 $621 #
straight-curve $-1 50 -86.60254037844390496 0 0 0 1 I I #
coedge $-1 $536 $544 $433 $541 forward $530 $-1 #
edge $-1 $617 -86.60254037844390496 $538 86.60254037844390496 $540 $622 forward 7 unknown #
edge $-1 $435 25 $619 75 $437 $623 forward 7 unknown #
point $-1 -50 -86.60254037844390496 -25 #
coedge $-1 $540 $548 $438 $545 forward $530 $-1 #
edge $-1 $546 -2.094395102393195707 $617 -1.047197551196597853 $544 $620 forward 7 unknown #
vertex $-1 $549 $624 #
straight-curve $-1 -50 86.60254037844390496 0 0 0 1 I I #
coedge $-1 $544 $536 $442 $549 forward $530 $-1 #
edge $-1 $619 -86.60254037844390496 $546 86.60254037844390496 $548 $625 forward 7 unknown #
coedge $-1 $468 $467 $443 $551 forward $239 $-1 #
edge $-1 $552 -2.094395102393195707 $626 -1.77215424758522766 $550 $399 forward 7 unknown #
vertex $-1 $444 $627 #
straight-curve $-1 -50 -86.60254037844390496 0 -0 -0 -1 I I #
edge $-1 $448 -86.60254037844390496 $552 86.60254037844390496 $467 $628 forward 7 unknown #
point $-1 -50 86.60254037844390496 75 #
coedge $-1 $580 $450 $583 $629 forward $216 $-1 #
coedge $-1 $471 $583 $450 $558 reversed $491 $-1 #
edge $-1 $476 -1.77215424758522766 $630 -1.570796326794896558 $450 $631 forward 7 unknown #
loop $-1 $-1 $452 $391 #
vertex $-1 $453 $632 #
ellipse-curve $-1 -50 60 49.99999999999980105 1 -0 -0 -1.745740669421570149e-14 0 -5 1 I I #
point $-1 -50 -60 54.99999999999980105 #
loop $-1 $-1 $571 $457 #
coedge $-1 $459 $571 $462 $567 forward $563 $-1 #
straight-curve $-1 -27.5 -45 62.5 0 0 -1 I I #
point $-1 -27.5 -45 75 #
edge $-1 $633 20 $463 27.5 $564 $111 forward 7 unknown #
point $-1 -27.5 -45 50 #
coedge $-1 $605 $634 $468 $570 reversed $589 $-1 #
edge $-1 $626 -97.97958971132709394 $572 -45 $468 $367 forward 7 unknown #
coedge $-1 $564 $469 $634 $635 reversed $563 $-1 #
vertex $-1 $570 $636 #
straight-curve $-1 0 -45 75 -1 0 0 I I #
straight-curve $-1 -20 0 0 0 1 0 I I #
point $-1 -20 31.72144385112380149 0 #
point $-1 -20 97.97958971132709394 0 #
vertex $-1 $480 $637 #
ellipse-curve $-1 -20 60 49.99999999999970157 -1 -0 -0 -1.745740669421570149e-14 0 -5 1 I I #
straight-curve $-1 20 45 50 0 0 1 I I #
coedge $-1 $483 $556 $485 $581 forward $216 $-1 #
edge $-1 $585 0 $486 75 $580 $638 forward 7 unknown #
point $-1 20 97.97958971132709394 75 #
coedge $-1 $557 $490 $556 $629 reversed $491 $-1 #
face $-1 $179 $491 $2 $-1 $603 forward single #
vertex $-1 $629 $639 #
coedge $-1 $586 $586 $640 $641 forward $494 $-1 #
coedge $-1 $634 $496 $498 $591 forward $589 $-1 #
coedge $-1 $496 $605 $513 $602 forward $589 $-1 #
loop $-1 $642 $634 $610 #
straight-curve $-1 -20 -31.72144385112380149 0 0 0 1 I I #
edge $-1 $499 31.72144385112380149 $633 45 $587 $643 forward 7 unknown #
point $-1 -20 -31.72144385112380149 50 #
loop $-1 $614 $640 $500 #
cone-surface $-1 100 60 50 1 0 -3.491481338843129805e-15 -3.4914813388431302e-14 0 -10 1 I I 0 1 10 forward I I I I #
coedge $-1 $595 $595 $503 $596 forward $642 $-1 #
edge $-1 $644 -3.141592653589793116 $644 3.141592653589793116 $595 $645 forward 7 unknown #
vertex $-1 $505 $646 #
ellipse-curve $-1 0 0 -75 -0 -0 1 37.5 0 0 1 I I #
edge $-1 $509 -75 $526 -25 $525 $647 forward 7 unknown #
point $-1 50 86.60254037844390496 75 #
straight-curve $-1 50 -86.60254037844390496 0 0 0 1 I I #
edge $-1 $607 -97.97958971132709394 $516 -31.72144385112380149 $588 $574 forward 7 unknown #
plane-surface $-1 0 0 0 0 0 1 1 0 0 forward_v I I I I #
point $-1 -20 -31.72144385112380149 0 #
coedge $-1 $588 $569 $518 $606 reversed $589 $-1 #
edge $-1 $607 0 $626 75 $518 $648 forward 7 unknown #
vertex $-1 $519 $649 #
point $-1 0 -100 0 #
coedge $-1 $609 $609 $531 $613 reversed $522 $-1 #
face $-1 $515 $589 $2 $-1 $296 forward single #
cone-surface $-1 100 -60 50 1 0 -3.491481338843129805e-15 -3.4914813388431302e-14 0 -10 1 I I 0 1 10 forward I I I I #
point $-1 50 86.60254037844390496 25 #
edge $-1 $650 -3.141592653589802886 $650 3.141592653589783346 $531 $651 forward 7 unknown #
loop $-1 $-1 $532 $500 #
vertex $-1 $533 $652 #
ellipse-curve $-1 50 60 50.00000000000019895 -1 -0 -0 -3.4914813388431302e-14 0 -10 1 I I #
vertex $-1 $545 $653 #
straight-curve $-1 50 86.60254037844390496 0 -0 -0 -1 I I #
vertex $-1 $537 $654 #
ellipse-curve $-1 0 0 -75 0 0 -1 100 0 0 1 I I #
point $-1 50 -86.60254037844390496 -75 #
straight-curve $-1 50 0 -75 0 -1 0 I I #
straight-curve $-1 -50 -86.60254037844390496 0 -0 -0 -1 I I #
point $-1 -50 86.60254037844390496 -75 #
straight-curve $-1 -50 0 -75 0 1 0 I I #
vertex $-1 $551 $655 #
point $-1 -50 -86.60254037844390496 75 #
straight-curve $-1 -50 0 75 0 -1 0 I I #
edge $-1 $630 -1.570796326794896558 $585 -1.369438406004565678 $556 $631 forward 7 unknown #
vertex $-1 $558 $656 #
ellipse-curve $-1 0 0 0 -0 -0 -1 100 0 0 1 I I #
point $-1 -50 60 54.99999999999980105 #
vertex $-1 $591 $657 #
coedge $-1 $569 $587 $571 $635 forward $589 $-1 #
edge $-1 $633 0 $572 25 $634 $658 forward 7 unknown #
point $-1 -20 -45 75 #
point $-1 -19.99999999999990052 60 54.99999999999970157 #
straight-curve $-1 20 97.97958971132709394 0 0 0 1 I I #
point $-1 20 97.97958971132709394 0 #
coedge $-1 $640 $640 $586 $641 reversed $593 $-1 #
edge $-1 $659 -3.141592653589802886 $659 3.141592653589783346 $586 $660 forward 7 unknown #
loop $-1 $-1 $595 $610 #
straight-curve $-1 -20 0 50 0 -1 0 I I #
vertex $-1 $596 $661 #
ellipse-curve $-1 -20 -60 49.99999999999970157 -1 -0 -0 -1.745740669421570149e-14 0 -5 1 I I #
point $-1 -37.5 2.618611004132350143e-13 -75 #
straight-curve $-1 50 86.60254037844390496 0 -0 -0 -1 I I #
straight-curve $-1 -20 -97.97958971132709394 0 0 0 1 I I #
point $-1 -20 -97.97958971132709394 0 #
vertex $-1 $613 $662 #
ellipse-curve $-1 50 -60 50.00000000000019895 -1 -0 -0 -3.4914813388431302e-14 0 -10 1 I I #
point $-1 50 59.99999999999990052 60.00000000000019895 #
point $-1 50 86.60254037844390496 -75 #
point $-1 -50 -86.60254037844390496 -75 #
point $-1 -20 -97.97958971132709394 75 #
point $-1 0 100 0 #
point $-1 -20 -45 50 #
straight-curve $-1 -20 -45 50 0 0 1 I I #
vertex $-1 $641 $663 #
ellipse-curve $-1 20 60 50.00000000000029843 1 -0 -0 -3.4914813388431302e-14 0 -10 1 I I #
point $-1 -19.99999999999990052 -60 54.99999999999970157 #
point $-1 50 -60.00000000000009948 60.00000000000019895 #
point $-1 20.00000000000009948 60.00000000000009948 60.00000000000029843 #
End-of-ACIS-data 