105 664 1 0                             
body $-1 $1 $-1 $-1 #
lump $-1 $-1 $2 $0 #
shell $-1 $-1 $-1 $3 $1 #
face $-1 $4 $5 $2 $-1 $6 reversed single #
face $-1 $7 $8 $2 $-1 $9 reversed single #
loop $-1 $10 $11 $3 #
cone-surface $-1 -75 0 0 0 0 1 10 0 0 1 0 1 0 #
face $-1 $12 $13 $2 $-1 $14 forward single #
loop $-1 $15 $16 $4 #
cone-surface $-1 75 0 0 0 0 1 10 0 0 1 0 1 0 #
loop $-1 $-1 $17 $3 #
coedge $-1 $11 $11 $18 $19 1 $5 $-1 #
face $-1 $20 $21 $2 $-1 $22 forward single #
loop $-1 $-1 $23 $7 #
plane-surface $-1 0 -45 62.5 0 1 0 0 0 1 0 #
loop $-1 $-1 $24 $4 #
coedge $-1 $16 $16 $25 $26 1 $8 $-1 #
coedge $-1 $17 $17 $27 $28 1 $10 $-1 #
coedge $-1 $18 $18 $11 $19 0 $29 $-1 #
edge $-1 $30 $30 $18 $31 0 #
face $-1 $32 $33 $2 $-1 $34 forward single #
loop $-1 $-1 $35 $12 #
plane-surface $-1 27.5 0 62.5 -1 0 0 0 0 1 0 #
coedge $-1 $36 $37 $38 $39 1 $13 $-1 #
coedge $-1 $24 $24 $40 $41 1 $15 $-1 #
coedge $-1 $25 $25 $16 $26 0 $42 $-1 #
edge $-1 $43 $43 $25 $44 0 #
coedge $-1 $27 $27 $17 $28 0 $45 $-1 #
edge $-1 $46 $46 $27 $47 0 #
loop $-1 $48 $18 $49 #
vertex $-1 $19 $50 #
ellipse-curve $-1 -75 0 25 -0 -0 -1 10 0 0 1 #
face $-1 $51 $52 $2 $-1 $53 forward single #
loop $-1 $-1 $54 $20 #
plane-surface $-1 0 45 62.5 0 -1 0 0 0 -1 0 #
coedge $-1 $55 $56 $57 $58 1 $21 $-1 #
coedge $-1 $59 $23 $60 $61 1 $13 $-1 #
coedge $-1 $23 $59 $62 $63 0 $13 $-1 #
coedge $-1 $64 $65 $23 $39 0 $66 $-1 #
edge $-1 $67 $68 $38 $69 0 #
coedge $-1 $40 $40 $24 $41 0 $70 $-1 #
edge $-1 $71 $71 $40 $72 0 #
loop $-1 $73 $25 $74 #
vertex $-1 $26 $75 #
ellipse-curve $-1 75 0 -25 0 0 1 10 0 0 1 #
loop $-1 $76 $27 $77 #
vertex $-1 $28 $78 #
ellipse-curve $-1 -75 0 -25 0 0 1 10 0 0 1 #
loop $-1 $-1 $79 $49 #
face $-1 $80 $29 $2 $-1 $81 forward single #
point $-1 -85 -6.98296267768627e-14 25 #
face $-1 $82 $83 $2 $-1 $53 forward single #
loop $-1 $-1 $84 $32 #
plane-surface $-1 -27.5 0 62.5 1 0 0 0 0 -1 0 #
coedge $-1 $85 $86 $87 $88 1 $33 $-1 #
coedge $-1 $89 $35 $90 $91 1 $21 $-1 #
coedge $-1 $35 $89 $92 $93 0 $21 $-1 #
coedge $-1 $94 $95 $35 $58 0 $96 $-1 #
edge $-1 $97 $98 $57 $99 0 #
coedge $-1 $37 $36 $100 $101 0 $13 $-1 #
coedge $-1 $102 $103 $36 $61 0 $104 $-1 #
edge $-1 $105 $67 $60 $106 0 #
coedge $-1 $107 $108 $37 $63 1 $109 $-1 #
edge $-1 $110 $68 $37 $111 0 #
coedge $-1 $112 $38 $108 $113 0 $66 $-1 #
coedge $-1 $38 $114 $102 $115 1 $66 $-1 #
loop $-1 $116 $38 $117 #
vertex $-1 $39 $118 #
vertex $-1 $113 $119 #
straight-curve $-1 20 -45 50 0 0 -1 #
loop $-1 $120 $40 $121 #
vertex $-1 $41 $122 #
ellipse-curve $-1 75 0 25 -0 -0 -1 10 0 0 1 #
loop $-1 $-1 $123 $74 #
face $-1 $124 $42 $2 $-1 $125 reversed single #
point $-1 65 6.98296267768627e-14 -25 #
loop $-1 $-1 $126 $77 #
face $-1 $127 $45 $2 $-1 $128 reversed single #
point $-1 -85 6.98296267768627e-14 -25 #
coedge $-1 $129 $130 $131 $132 1 $48 $-1 #
face $-1 $77 $133 $2 $-1 $134 forward single #
plane-surface $-1 -75 0 25 0 0 1 1 0 0 0 #
face $-1 $135 $136 $2 $-1 $137 forward single #
loop $-1 $-1 $138 $51 #
coedge $-1 $139 $140 $141 $142 1 $52 $-1 #
coedge $-1 $143 $54 $144 $145 1 $33 $-1 #
coedge $-1 $54 $143 $146 $147 0 $33 $-1 #
coedge $-1 $148 $149 $54 $88 0 $150 $-1 #
edge $-1 $151 $152 $87 $153 0 #
coedge $-1 $56 $55 $154 $155 0 $21 $-1 #
coedge $-1 $156 $157 $55 $91 0 $104 $-1 #
edge $-1 $158 $97 $90 $159 0 #
coedge $-1 $160 $161 $56 $93 1 $162 $-1 #
edge $-1 $163 $98 $56 $164 0 #
coedge $-1 $165 $57 $161 $166 0 $96 $-1 #
coedge $-1 $57 $167 $156 $168 1 $96 $-1 #
loop $-1 $-1 $169 $170 #
vertex $-1 $58 $171 #
vertex $-1 $166 $172 #
straight-curve $-1 27.5 25.4950975679639 0 -0 -0 -1 #
coedge $-1 $173 $174 $59 $101 1 $175 $-1 #
edge $-1 $105 $110 $100 $176 0 #
coedge $-1 $177 $60 $65 $115 0 $104 $-1 #
coedge $-1 $60 $156 $173 $178 0 $104 $-1 #
loop $-1 $-1 $60 $179 #
vertex $-1 $61 $180 #
straight-curve $-1 0 -45 75 -1 0 0 #
coedge $-1 $181 $62 $174 $182 1 $109 $-1 #
coedge $-1 $62 $181 $64 $113 1 $109 $-1 #
loop $-1 $-1 $108 $135 #
vertex $-1 $101 $183 #
straight-curve $-1 0 -45 50 -1 0 0 #
coedge $-1 $184 $64 $185 $186 0 $66 $-1 #
edge $-1 $68 $187 $64 $188 0 #
coedge $-1 $65 $184 $189 $190 1 $66 $-1 #
edge $-1 $67 $191 $102 $192 0 #
loop $-1 $-1 $193 $117 #
face $-1 $194 $66 $2 $-1 $195 forward single #
point $-1 20 -45 75 #
point $-1 20 -45 50 #
loop $-1 $-1 $196 $121 #
face $-1 $197 $70 $2 $-1 $198 forward single #
point $-1 65 -6.98296267768627e-14 25 #
coedge $-1 $199 $200 $201 $202 1 $73 $-1 #
face $-1 $121 $203 $2 $-1 $204 forward single #
plane-surface $-1 75 0 -25 0 0 1 1 0 0 0 #
coedge $-1 $205 $206 $207 $208 1 $76 $-1 #
face $-1 $74 $209 $2 $-1 $210 forward single #
plane-surface $-1 -75 0 -25 0 0 1 1 0 0 0 #
coedge $-1 $130 $79 $211 $212 1 $48 $-1 #
coedge $-1 $79 $129 $213 $214 1 $48 $-1 #
coedge $-1 $215 $211 $79 $132 0 $216 $-1 #
edge $-1 $217 $218 $131 $219 0 #
loop $-1 $220 $221 $80 #
plane-surface $-1 -50 0 50 -1 0 0 0 0 1 0 #
face $-1 $222 $109 $2 $-1 $137 forward single #
loop $-1 $-1 $223 $82 #
plane-surface $-1 0 0 50 0 0 1 1 0 0 0 #
coedge $-1 $224 $225 $169 $226 1 $83 $-1 #
coedge $-1 $227 $84 $228 $229 0 $52 $-1 #
coedge $-1 $84 $227 $230 $231 1 $52 $-1 #
coedge $-1 $232 $233 $84 $142 0 $96 $-1 #
edge $-1 $234 $235 $141 $236 0 #
coedge $-1 $86 $85 $227 $237 0 $33 $-1 #
coedge $-1 $238 $230 $85 $145 0 $239 $-1 #
edge $-1 $240 $151 $144 $241 0 #
coedge $-1 $228 $223 $86 $147 1 $136 $-1 #
edge $-1 $242 $152 $86 $243 0 #
coedge $-1 $244 $87 $223 $245 0 $150 $-1 #
coedge $-1 $87 $246 $238 $247 1 $150 $-1 #
loop $-1 $248 $87 $194 #
vertex $-1 $88 $249 #
vertex $-1 $245 $250 #
straight-curve $-1 -20 45 50 0 0 -1 #
coedge $-1 $251 $252 $89 $155 1 $253 $-1 #
edge $-1 $158 $163 $89 $254 0 #
coedge $-1 $103 $90 $95 $168 0 $104 $-1 #
coedge $-1 $90 $255 $251 $256 0 $104 $-1 #
vertex $-1 $256 $257 #
straight-curve $-1 27.5 0 75 0 -1 0 #
coedge $-1 $258 $92 $252 $259 1 $162 $-1 #
coedge $-1 $92 $258 $94 $166 1 $162 $-1 #
loop $-1 $-1 $258 $222 #
vertex $-1 $93 $260 #
straight-curve $-1 27.5 0 50 0 -1 0 #
coedge $-1 $261 $94 $262 $263 1 $96 $-1 #
edge $-1 $98 $264 $94 $265 0 #
coedge $-1 $95 $266 $267 $268 0 $96 $-1 #
edge $-1 $97 $269 $156 $270 0 #
coedge $-1 $271 $232 $138 $226 0 $96 $-1 #
face $-1 $272 $273 $2 $-1 $274 reversed single #
point $-1 27.5 25.4950975679639 75 #
point $-1 27.5 25.4950975679639 50 #
coedge $-1 $267 $100 $103 $178 1 $175 $-1 #
coedge $-1 $100 $267 $107 $182 0 $175 $-1 #
loop $-1 $-1 $267 $275 #
straight-curve $-1 27.5 -45 62.5 0 0 -1 #
coedge $-1 $276 $102 $277 $278 0 $104 $-1 #
edge $-1 $269 $105 $103 $159 0 #
face $-1 $279 $104 $2 $-1 $280 forward single #
point $-1 27.5 -45 75 #
coedge $-1 $108 $107 $266 $281 1 $109 $-1 #
edge $-1 $282 $110 $174 $164 0 #
point $-1 27.5 -45 50 #
coedge $-1 $114 $112 $283 $284 0 $66 $-1 #
coedge $-1 $266 $285 $112 $186 1 $96 $-1 #
edge $-1 $187 $286 $112 $287 0 #
vertex $-1 $281 $288 #
straight-curve $-1 20 0 50 0 1 -0 #
coedge $-1 $289 $277 $114 $190 0 $216 $-1 #
edge $-1 $191 $290 $189 $291 0 #
vertex $-1 $190 $292 #
straight-curve $-1 20 0 75 0 -1 0 #
coedge $-1 $193 $193 $293 $294 0 $116 $-1 #
face $-1 $295 $150 $2 $-1 $296 forward single #
plane-surface $-1 20 0 37.5 -1 0 0 0 0 1 0 #
coedge $-1 $297 $298 $299 $300 1 $120 $-1 #
face $-1 $301 $302 $2 $-1 $303 forward single #
plane-surface $-1 75 0 25 0 0 1 1 0 0 0 #
coedge $-1 $200 $123 $304 $305 1 $73 $-1 #
coedge $-1 $123 $199 $306 $307 1 $73 $-1 #
coedge $-1 $306 $308 $123 $202 0 $309 $-1 #
edge $-1 $310 $311 $201 $312 0 #
loop $-1 $-1 $313 $124 #
plane-surface $-1 50 0 -50 1 0 0 0 0 -1 0 #
coedge $-1 $206 $126 $314 $315 1 $76 $-1 #
coedge $-1 $126 $205 $316 $317 1 $76 $-1 #
coedge $-1 $316 $318 $126 $208 0 $309 $-1 #
edge $-1 $319 $320 $207 $321 0 #
loop $-1 $-1 $322 $127 #
plane-surface $-1 -50 0 -50 -1 0 0 0 0 1 0 #
coedge $-1 $131 $323 $129 $212 0 $216 $-1 #
edge $-1 $324 $217 $211 $219 0 #
coedge $-1 $325 $326 $130 $214 0 $327 $-1 #
edge $-1 $218 $324 $213 $328 0 #
coedge $-1 $329 $131 $326 $330 0 $216 $-1 #
loop $-1 $-1 $331 $332 #
vertex $-1 $212 $333 #
vertex $-1 $132 $334 #
ellipse-curve $-1 0 0 25 -0 -0 -1 100 0 0 1 #
loop $-1 $327 $335 $80 #
coedge $-1 $221 $221 $336 $337 0 $133 $-1 #
face $-1 $338 $162 $2 $-1 $137 forward single #
coedge $-1 $146 $339 $148 $245 1 $136 $-1 #
coedge $-1 $340 $138 $341 $342 1 $83 $-1 #
coedge $-1 $138 $340 $343 $344 0 $83 $-1 #
edge $-1 $345 $346 $169 $347 0 #
coedge $-1 $140 $139 $143 $237 1 $52 $-1 #
coedge $-1 $339 $146 $139 $229 1 $136 $-1 #
edge $-1 $234 $242 $139 $348 0 #
coedge $-1 $144 $349 $140 $231 0 $239 $-1 #
edge $-1 $235 $240 $230 $350 0 #
coedge $-1 $169 $141 $349 $351 1 $96 $-1 #
coedge $-1 $141 $352 $339 $353 0 $96 $-1 #
vertex $-1 $353 $354 #
vertex $-1 $351 $355 #
straight-curve $-1 -27.5 25.4950975679639 0 -0 0 1 #
edge $-1 $240 $242 $143 $356 0 #
coedge $-1 $357 $144 $149 $247 0 $239 $-1 #
loop $-1 $-1 $358 $295 #
vertex $-1 $231 $359 #
straight-curve $-1 0 45 75 1 0 -0 #
vertex $-1 $147 $360 #
straight-curve $-1 0 45 50 1 0 0 #
coedge $-1 $361 $148 $352 $362 0 $150 $-1 #
edge $-1 $152 $363 $148 $364 0 #
coedge $-1 $149 $361 $331 $365 1 $150 $-1 #
edge $-1 $151 $366 $238 $367 0 #
loop $-1 $-1 $368 $194 #
point $-1 -20 45 75 #
point $-1 -20 45 50 #
coedge $-1 $369 $154 $157 $256 1 $253 $-1 #
coedge $-1 $154 $369 $160 $259 0 $253 $-1 #
loop $-1 $-1 $369 $370 #
straight-curve $-1 27.5 45 62.5 0 0 -1 #
coedge $-1 $157 $371 $372 $373 0 $104 $-1 #
edge $-1 $374 $158 $157 $375 0 #
point $-1 27.5 45 75 #
coedge $-1 $161 $160 $376 $377 1 $162 $-1 #
edge $-1 $378 $163 $252 $243 0 #
point $-1 27.5 45 50 #
coedge $-1 $352 $165 $379 $380 1 $96 $-1 #
coedge $-1 $376 $381 $165 $263 0 $382 $-1 #
edge $-1 $383 $264 $262 $384 0 #
vertex $-1 $263 $385 #
ellipse-curve $-1 0 0 50 0 0 1 37.5 0 0 1 #
coedge $-1 $167 $185 $181 $281 0 $96 $-1 #
coedge $-1 $174 $173 $167 $268 1 $175 $-1 #
edge $-1 $282 $269 $167 $386 0 #
vertex $-1 $168 $387 #
ellipse-curve $-1 0 0 75 -0 -0 -1 37.5 0 0 1 #
coedge $-1 $388 $169 $389 $390 0 $96 $-1 #
face $-1 $391 $392 $2 $-1 $393 reversed single #
loop $-1 $96 $394 $170 #
cone-surface $-1 0 0 0 0 0 1 37.5 0 0 1 0 1 0 #
face $-1 $117 $175 $2 $-1 $22 forward single #
coedge $-1 $371 $177 $395 $396 0 $104 $-1 #
coedge $-1 $189 $397 $177 $278 1 $216 $-1 #
edge $-1 $191 $398 $177 $399 0 #
face $-1 $332 $382 $2 $-1 $195 forward single #
plane-surface $-1 0 0 75 0 0 1 1 0 0 0 #
edge $-1 $187 $282 $266 $400 0 #
vertex $-1 $281 $401 #
coedge $-1 $402 $403 $184 $284 1 $404 $-1 #
edge $-1 $286 $290 $184 $405 0 #
coedge $-1 $185 $388 $402 $406 1 $96 $-1 #
vertex $-1 $186 $407 #
straight-curve $-1 20 -31.7214438511238 0 -0 -0 -1 #
point $-1 20 -31.7214438511238 50 #
coedge $-1 $408 $189 $403 $409 0 $216 $-1 #
vertex $-1 $409 $410 #
straight-curve $-1 20 -97.9795897113271 0 -0 -0 -1 #
point $-1 20 -97.9795897113271 75 #
coedge $-1 $293 $293 $193 $294 1 $411 $-1 #
edge $-1 $412 $412 $193 $413 0 #
face $-1 $170 $239 $2 $-1 $280 forward single #
plane-surface $-1 -20 0 37.5 1 0 0 0 0 -1 0 #
coedge $-1 $298 $196 $414 $415 1 $120 $-1 #
coedge $-1 $196 $297 $416 $417 1 $120 $-1 #
coedge $-1 $397 $414 $196 $300 0 $216 $-1 #
edge $-1 $418 $419 $299 $420 0 #
face $-1 $-1 $421 $2 $-1 $422 forward single #
loop $-1 $423 $424 $197 #
plane-surface $-1 50 0 50 1 0 0 0 0 -1 0 #
coedge $-1 $313 $425 $199 $305 0 $203 $-1 #
edge $-1 $426 $310 $304 $427 0 #
coedge $-1 $428 $201 $200 $307 0 $309 $-1 #
edge $-1 $311 $426 $306 $312 0 #
coedge $-1 $201 $429 $313 $430 0 $309 $-1 #
loop $-1 $216 $318 $332 #
vertex $-1 $202 $431 #
vertex $-1 $202 $432 #
ellipse-curve $-1 0 0 -25 0 0 1 100 0 0 1 #
coedge $-1 $433 $304 $308 $430 1 $203 $-1 #
coedge $-1 $322 $434 $205 $315 0 $209 $-1 #
edge $-1 $435 $319 $314 $436 0 #
coedge $-1 $437 $207 $206 $317 0 $309 $-1 #
edge $-1 $320 $435 $316 $321 0 #
coedge $-1 $207 $438 $322 $439 0 $309 $-1 #
vertex $-1 $208 $440 #
vertex $-1 $208 $441 #
ellipse-curve $-1 0 0 -25 0 0 1 100 0 0 1 #
coedge $-1 $442 $314 $318 $439 1 $209 $-1 #
coedge $-1 $211 $443 $325 $444 0 $216 $-1 #
vertex $-1 $212 $445 #
coedge $-1 $446 $213 $323 $444 1 $327 $-1 #
coedge $-1 $213 $446 $215 $330 1 $327 $-1 #
loop $-1 $-1 $326 $80 #
straight-curve $-1 -50 0 25 0 -1 0 #
coedge $-1 $331 $215 $357 $447 1 $216 $-1 #
edge $-1 $218 $448 $215 $449 0 #
coedge $-1 $450 $329 $246 $365 0 $216 $-1 #
face $-1 $49 $309 $2 $-1 $451 forward single #
point $-1 -100 0 25 #
point $-1 -50 86.6025403784439 25 #
coedge $-1 $335 $335 $452 $453 0 $220 $-1 #
coedge $-1 $336 $336 $221 $337 1 $454 $-1 #
edge $-1 $455 $455 $221 $456 0 #
face $-1 $457 $458 $2 $-1 $137 forward single #
coedge $-1 $223 $228 $233 $353 1 $136 $-1 #
coedge $-1 $225 $224 $459 $460 0 $83 $-1 #
coedge $-1 $349 $358 $224 $342 0 $239 $-1 #
edge $-1 $461 $345 $341 $350 0 #
coedge $-1 $462 $389 $225 $344 1 $458 $-1 #
edge $-1 $463 $346 $225 $348 0 #
vertex $-1 $226 $464 #
vertex $-1 $390 $465 #
straight-curve $-1 -27.5 -25.4950975679639 0 0 0 -1 #
straight-curve $-1 -27.5 0 50 0 1 0 #
coedge $-1 $230 $341 $232 $351 0 $239 $-1 #
straight-curve $-1 -27.5 0 75 0 1 0 #
edge $-1 $345 $235 $349 $466 0 #
coedge $-1 $233 $261 $244 $362 1 $96 $-1 #
edge $-1 $363 $234 $233 $265 0 #
point $-1 -27.5 25.4950975679639 50 #
point $-1 -27.5 25.4950975679639 75 #
straight-curve $-1 -27.5 45 62.5 0 0 -1 #
coedge $-1 $467 $238 $329 $447 0 $239 $-1 #
coedge $-1 $341 $468 $469 $470 0 $239 $-1 #
point $-1 -27.5 45 75 #
point $-1 -27.5 45 50 #
coedge $-1 $246 $244 $471 $472 0 $150 $-1 #
edge $-1 $363 $473 $244 $474 0 #
vertex $-1 $353 $475 #
straight-curve $-1 -20 0 50 0 -1 0 #
edge $-1 $366 $476 $331 $477 0 #
vertex $-1 $247 $478 #
straight-curve $-1 -20 0 75 0 1 0 #
coedge $-1 $368 $368 $479 $480 0 $248 $-1 #
coedge $-1 $252 $251 $481 $482 1 $253 $-1 #
face $-1 $275 $253 $2 $-1 $34 forward single #
coedge $-1 $255 $276 $483 $484 0 $104 $-1 #
coedge $-1 $485 $481 $255 $373 1 $382 $-1 #
edge $-1 $486 $374 $255 $192 0 #
vertex $-1 $373 $487 #
straight-curve $-1 0 45 75 1 0 -0 #
coedge $-1 $481 $262 $258 $377 0 $382 $-1 #
edge $-1 $264 $378 $376 $488 0 #
vertex $-1 $377 $489 #
coedge $-1 $490 $471 $261 $380 0 $491 $-1 #
edge $-1 $473 $383 $379 $492 0 #
coedge $-1 $262 $485 $490 $493 0 $382 $-1 #
loop $-1 $494 $481 $279 #
vertex $-1 $493 $495 #
straight-curve $-1 20 31.7214438511238 0 0 0 1 #
point $-1 20 31.7214438511238 50 #
straight-curve $-1 27.5 -25.4950975679639 0 0 -0 1 #
point $-1 27.5 -25.4950975679639 75 #
coedge $-1 $285 $271 $496 $497 1 $96 $-1 #
coedge $-1 $343 $498 $271 $390 1 $458 $-1 #
edge $-1 $346 $499 $271 $400 0 #
face $-1 $500 $501 $2 $-1 $502 reversed single #
loop $-1 $454 $503 $272 #
cone-surface $-1 -100 -60 50 1 0 -3.49148133884313e-15 -1.74574066942157e-14 0 -5 1 0 1 0 #
coedge $-1 $394 $394 $504 $505 1 $273 $-1 #
coedge $-1 $506 $507 $276 $396 1 $508 $-1 #
edge $-1 $398 $509 $276 $510 0 #
coedge $-1 $277 $299 $506 $511 0 $216 $-1 #
vertex $-1 $278 $512 #
ellipse-curve $-1 0 0 75 0 0 1 100 0 0 1 #
ellipse-curve $-1 0 0 50 0 0 1 37.5 0 0 1 #
point $-1 27.5 -25.4950975679639 50 #
coedge $-1 $513 $283 $285 $406 0 $404 $-1 #
coedge $-1 $283 $514 $289 $409 1 $404 $-1 #
loop $-1 $-1 $402 $515 #
straight-curve $-1 20 0 0 0 -1 0 #
edge $-1 $286 $516 $402 $517 0 #
point $-1 20 -31.7214438511238 0 #
coedge $-1 $518 $289 $514 $519 0 $216 $-1 #
edge $-1 $290 $520 $289 $521 0 #
point $-1 20 -97.9795897113271 0 #
loop $-1 $522 $293 $523 #
vertex $-1 $294 $524 #
ellipse-curve $-1 20 -60 50.0000000000003 1 -0 -0 -3.49148133884313e-14 0 -10 1 #
coedge $-1 $299 $525 $297 $415 0 $216 $-1 #
edge $-1 $526 $418 $414 $420 0 #
coedge $-1 $507 $506 $298 $417 0 $508 $-1 #
edge $-1 $419 $526 $416 $527 0 #
vertex $-1 $415 $528 #
vertex $-1 $300 $529 #
ellipse-curve $-1 0 0 25 -0 -0 -1 100 0 0 1 #
loop $-1 $530 $504 $301 #
plane-surface $-1 0 0 -75 0 0 -1 -1 0 0 0 #
loop $-1 $508 $531 $197 #
coedge $-1 $424 $424 $532 $533 0 $302 $-1 #
coedge $-1 $304 $433 $428 $534 1 $203 $-1 #
vertex $-1 $307 $535 #
straight-curve $-1 50 0 -25 0 -1 0 #
coedge $-1 $438 $306 $425 $534 0 $309 $-1 #
coedge $-1 $308 $437 $536 $537 1 $309 $-1 #
edge $-1 $538 $310 $308 $539 0 #
point $-1 50 -86.6025403784439 -25 #
point $-1 100 0 -25 #
coedge $-1 $425 $313 $540 $541 1 $203 $-1 #
coedge $-1 $314 $442 $437 $542 1 $209 $-1 #
vertex $-1 $317 $543 #
straight-curve $-1 -50 0 -25 0 1 0 #
coedge $-1 $429 $316 $434 $542 0 $309 $-1 #
coedge $-1 $318 $428 $544 $545 1 $309 $-1 #
edge $-1 $546 $319 $318 $547 0 #
point $-1 -50 86.6025403784439 -25 #
point $-1 -100 0 -25 #
coedge $-1 $434 $322 $548 $549 1 $209 $-1 #
coedge $-1 $323 $518 $550 $551 1 $216 $-1 #
edge $-1 $552 $324 $323 $553 0 #
point $-1 -50 -86.6025403784439 25 #
coedge $-1 $326 $325 $467 $554 1 $327 $-1 #
edge $-1 $366 $448 $357 $399 0 #
vertex $-1 $447 $555 #
straight-curve $-1 -50 86.6025403784439 0 0 0 1 #
coedge $-1 $556 $331 $557 $558 0 $216 $-1 #
cone-surface $-1 0 0 0 0 0 1 100 0 0 1 0 1 0 #
coedge $-1 $452 $452 $335 $453 1 $559 $-1 #
edge $-1 $560 $560 $335 $561 0 #
loop $-1 $-1 $336 $272 #
vertex $-1 $337 $562 #
ellipse-curve $-1 -50 -60 49.9999999999998 1 -0 -0 -1.74574066942157e-14 0 -5 1 #
face $-1 $370 $563 $2 $-1 $14 forward single #
loop $-1 $-1 $498 $338 #
coedge $-1 $469 $564 $340 $460 1 $563 $-1 #
edge $-1 $461 $463 $340 $565 0 #
vertex $-1 $470 $566 #
coedge $-1 $498 $343 $564 $567 1 $458 $-1 #
vertex $-1 $344 $568 #
point $-1 -27.5 -25.4950975679639 75 #
point $-1 -27.5 -25.4950975679639 50 #
ellipse-curve $-1 0 0 75 -0 -0 -1 37.5 0 0 1 #
coedge $-1 $550 $357 $446 $554 0 $239 $-1 #
coedge $-1 $358 $550 $569 $570 0 $239 $-1 #
coedge $-1 $571 $459 $358 $470 1 $563 $-1 #
edge $-1 $572 $461 $358 $573 0 #
coedge $-1 $379 $557 $361 $472 1 $491 $-1 #
edge $-1 $473 $476 $361 $574 0 #
vertex $-1 $380 $575 #
straight-curve $-1 -20 31.7214438511238 0 -0 -0 -1 #
point $-1 -20 31.7214438511238 50 #
vertex $-1 $558 $576 #
straight-curve $-1 -20 97.9795897113271 0 -0 -0 -1 #
point $-1 -20 97.9795897113271 75 #
coedge $-1 $479 $479 $368 $480 1 $501 $-1 #
edge $-1 $577 $577 $368 $578 0 #
coedge $-1 $372 $376 $369 $482 0 $382 $-1 #
edge $-1 $378 $374 $481 $579 0 #
coedge $-1 $525 $580 $371 $484 1 $216 $-1 #
edge $-1 $509 $486 $371 $399 0 #
coedge $-1 $381 $372 $580 $581 1 $382 $-1 #
vertex $-1 $484 $582 #
point $-1 20 45 75 #
straight-curve $-1 20 0 50 0 1 -0 #
point $-1 20 45 50 #
coedge $-1 $583 $379 $381 $493 1 $491 $-1 #
loop $-1 $-1 $379 $584 #
ellipse-curve $-1 0 0 0 -0 -0 -1 37.5 0 0 1 #
edge $-1 $585 $383 $381 $405 0 #
loop $-1 $-1 $586 $279 #
point $-1 20 31.7214438511238 0 #
coedge $-1 $587 $588 $388 $497 0 $589 $-1 #
edge $-1 $516 $499 $496 $590 0 #
coedge $-1 $389 $462 $587 $591 1 $458 $-1 #
vertex $-1 $497 $592 #
face $-1 $523 $593 $2 $-1 $594 reversed single #
loop $-1 $559 $479 $391 #
cone-surface $-1 -100 60 50 1 0 -3.49148133884313e-15 -1.74574066942157e-14 0 -5 1 0 1 0 #
coedge $-1 $503 $503 $595 $596 1 $392 $-1 #
coedge $-1 $504 $504 $394 $505 0 $421 $-1 #
edge $-1 $597 $597 $504 $598 0 #
coedge $-1 $416 $395 $397 $511 1 $508 $-1 #
coedge $-1 $395 $416 $525 $599 1 $508 $-1 #
loop $-1 $-1 $506 $197 #
vertex $-1 $599 $600 #
straight-curve $-1 50 0 75 0 1 0 #
edge $-1 $419 $398 $397 $601 0 #
point $-1 50 -86.6025403784439 75 #
coedge $-1 $514 $402 $588 $602 1 $404 $-1 #
coedge $-1 $403 $513 $408 $519 1 $404 $-1 #
face $-1 $584 $404 $2 $-1 $603 forward single #
vertex $-1 $602 $604 #
ellipse-curve $-1 0 0 0 -0 -0 -1 37.5 0 0 1 #
coedge $-1 $443 $408 $605 $606 0 $216 $-1 #
edge $-1 $520 $607 $408 $521 0 #
vertex $-1 $409 $608 #
ellipse-curve $-1 0 0 0 -0 -0 -1 100 0 0 1 #
loop $-1 $-1 $609 $523 #
face $-1 $610 $411 $2 $-1 $611 reversed single #
point $-1 20.0000000000001 -59.9999999999999 60.0000000000003 #
coedge $-1 $414 $483 $507 $599 0 $216 $-1 #
vertex $-1 $415 $612 #
straight-curve $-1 50 0 25 0 1 0 #
point $-1 100 0 25 #
point $-1 50 -86.6025403784439 25 #
loop $-1 $-1 $548 $301 #
coedge $-1 $531 $531 $609 $613 0 $423 $-1 #
coedge $-1 $532 $532 $424 $533 1 $614 $-1 #
edge $-1 $615 $615 $424 $616 0 #
edge $-1 $426 $617 $428 $618 0 #
point $-1 50 86.6025403784439 -25 #
coedge $-1 $548 $540 $429 $537 0 $530 $-1 #
edge $-1 $538 $619 $536 $620 0 #
vertex $-1 $541 $621 #
straight-curve $-1 50 -86.6025403784439 0 0 0 1 #
coedge $-1 $536 $544 $433 $541 0 $530 $-1 #
edge $-1 $617 $538 $540 $622 0 #
edge $-1 $435 $619 $437 $623 0 #
point $-1 -50 -86.6025403784439 -25 #
coedge $-1 $540 $548 $438 $545 0 $530 $-1 #
edge $-1 $546 $617 $544 $620 0 #
vertex $-1 $549 $624 #
straight-curve $-1 -50 86.6025403784439 0 0 0 1 #
coedge $-1 $544 $536 $442 $549 0 $530 $-1 #
edge $-1 $619 $546 $548 $625 0 #
coedge $-1 $468 $467 $443 $551 0 $239 $-1 #
edge $-1 $552 $626 $550 $399 0 #
vertex $-1 $444 $627 #
straight-curve $-1 -50 -86.6025403784439 0 -0 -0 -1 #
edge $-1 $448 $552 $467 $628 0 #
point $-1 -50 86.6025403784439 75 #
coedge $-1 $580 $450 $583 $629 0 $216 $-1 #
coedge $-1 $471 $583 $450 $558 1 $491 $-1 #
edge $-1 $476 $630 $450 $631 0 #
loop $-1 $-1 $452 $391 #
vertex $-1 $453 $632 #
ellipse-curve $-1 -50 60 49.9999999999998 1 -0 -0 -1.74574066942157e-14 0 -5 1 #
point $-1 -50 -60 54.9999999999998 #
loop $-1 $-1 $571 $457 #
coedge $-1 $459 $571 $462 $567 0 $563 $-1 #
straight-curve $-1 -27.5 -45 62.5 0 0 -1 #
point $-1 -27.5 -45 75 #
edge $-1 $633 $463 $564 $111 0 #
point $-1 -27.5 -45 50 #
coedge $-1 $605 $634 $468 $570 1 $589 $-1 #
edge $-1 $626 $572 $468 $367 0 #
coedge $-1 $564 $469 $634 $635 1 $563 $-1 #
vertex $-1 $570 $636 #
straight-curve $-1 0 -45 75 -1 0 0 #
straight-curve $-1 -20 0 0 0 1 0 #
point $-1 -20 31.7214438511238 0 #
point $-1 -20 97.9795897113271 0 #
vertex $-1 $480 $637 #
ellipse-curve $-1 -20 60 49.9999999999997 -1 -0 -0 -1.74574066942157e-14 0 -5 1 #
straight-curve $-1 20 45 50 0 0 1 #
coedge $-1 $483 $556 $485 $581 0 $216 $-1 #
edge $-1 $585 $486 $580 $638 0 #
point $-1 20 97.9795897113271 75 #
coedge $-1 $557 $490 $556 $629 1 $491 $-1 #
face $-1 $179 $491 $2 $-1 $603 forward single #
vertex $-1 $629 $639 #
coedge $-1 $586 $586 $640 $641 0 $494 $-1 #
coedge $-1 $634 $496 $498 $591 0 $589 $-1 #
coedge $-1 $496 $605 $513 $602 0 $589 $-1 #
loop $-1 $642 $634 $610 #
straight-curve $-1 -20 -31.7214438511238 0 0 0 1 #
edge $-1 $499 $633 $587 $643 0 #
point $-1 -20 -31.7214438511238 50 #
loop $-1 $614 $640 $500 #
cone-surface $-1 100 60 50 1 0 -3.49148133884313e-15 -3.49148133884313e-14 0 -10 1 0 1 0 #
coedge $-1 $595 $595 $503 $596 0 $642 $-1 #
edge $-1 $644 $644 $595 $645 0 #
vertex $-1 $505 $646 #
ellipse-curve $-1 0 0 -75 -0 -0 1 37.5 0 0 1 #
edge $-1 $509 $526 $525 $647 0 #
point $-1 50 86.6025403784439 75 #
straight-curve $-1 50 -86.6025403784439 0 0 0 1 #
edge $-1 $607 $516 $588 $574 0 #
plane-surface $-1 0 0 0 0 0 1 1 0 0 0 #
point $-1 -20 -31.7214438511238 0 #
coedge $-1 $588 $569 $518 $606 1 $589 $-1 #
edge $-1 $607 $626 $518 $648 0 #
vertex $-1 $519 $649 #
point $-1 0 -100 0 #
coedge $-1 $609 $609 $531 $613 1 $522 $-1 #
face $-1 $515 $589 $2 $-1 $296 forward single #
cone-surface $-1 100 -60 50 1 0 -3.49148133884313e-15 -3.49148133884313e-14 0 -10 1 0 1 0 #
point $-1 50 86.6025403784439 25 #
edge $-1 $650 $650 $531 $651 0 #
loop $-1 $-1 $532 $500 #
vertex $-1 $533 $652 #
ellipse-curve $-1 50 60 50.0000000000002 -1 -0 -0 -3.49148133884313e-14 0 -10 1 #
vertex $-1 $545 $653 #
straight-curve $-1 50 86.6025403784439 0 -0 -0 -1 #
vertex $-1 $537 $654 #
ellipse-curve $-1 0 0 -75 0 0 -1 100 0 0 1 #
point $-1 50 -86.6025403784439 -75 #
straight-curve $-1 50 0 -75 0 -1 0 #
straight-curve $-1 -50 -86.6025403784439 0 -0 -0 -1 #
point $-1 -50 86.6025403784439 -75 #
straight-curve $-1 -50 0 -75 0 1 0 #
vertex $-1 $551 $655 #
point $-1 -50 -86.6025403784439 75 #
straight-curve $-1 -50 0 75 0 -1 0 #
edge $-1 $630 $585 $556 $631 0 #
vertex $-1 $558 $656 #
ellipse-curve $-1 0 0 0 -0 -0 -1 100 0 0 1 #
point $-1 -50 60 54.9999999999998 #
vertex $-1 $591 $657 #
coedge $-1 $569 $587 $571 $635 0 $589 $-1 #
edge $-1 $633 $572 $634 $658 0 #
point $-1 -20 -45 75 #
point $-1 -19.9999999999999 60 54.9999999999997 #
straight-curve $-1 20 97.9795897113271 0 0 0 1 #
point $-1 20 97.9795897113271 0 #
coedge $-1 $640 $640 $586 $641 1 $593 $-1 #
edge $-1 $659 $659 $586 $660 0 #
loop $-1 $-1 $595 $610 #
straight-curve $-1 -20 0 50 0 -1 0 #
vertex $-1 $596 $661 #
ellipse-curve $-1 -20 -60 49.9999999999997 -1 -0 -0 -1.74574066942157e-14 0 -5 1 #
point $-1 -37.5 2.61861100413235e-13 -75 #
straight-curve $-1 50 86.6025403784439 0 -0 -0 -1 #
straight-curve $-1 -20 -97.9795897113271 0 0 0 1 #
point $-1 -20 -97.9795897113271 0 #
vertex $-1 $613 $662 #
ellipse-curve $-1 50 -60 50.0000000000002 -1 -0 -0 -3.49148133884313e-14 0 -10 1 #
point $-1 50 59.9999999999999 60.0000000000002 #
point $-1 50 86.6025403784439 -75 #
point $-1 -50 -86.6025403784439 -75 #
point $-1 -20 -97.9795897113271 75 #
point $-1 0 100 0 #
point $-1 -20 -45 50 #
straight-curve $-1 -20 -45 50 0 0 1 #
vertex $-1 $641 $663 #
ellipse-curve $-1 20 60 50.0000000000003 1 -0 -0 -3.49148133884313e-14 0 -10 1 #
point $-1 -19.9999999999999 -60 54.9999999999997 #
point $-1 50 -60.0000000000001 60.0000000000002 #
point $-1 20.0000000000001 60.0000000000001 60.0000000000003 #
