  0
SECTION
  2
HEADER
  9
$ACADVER
  1
AC1009
  9
$INSBASE
 10
0.0
 20
0.0
 30
0.0
  9
$EXTMIN
 10
0.0
 20
0.0
 30
0.0
  9
$EXTMAX
 10
3.0
 20
3.0
 30
3.0
  9
$LIMMIN
 10
0.0
 20
0.0
  9
$LIMMAX
 10
12.0
 20
9.0
  9
$ORTHOMODE
 70
     0
  9
$REGENMODE
 70
     1
  9
$FILLMODE
 70
     1
  9
$QTEXTMODE
 70
     0
  9
$MIRRTEXT
 70
     1
  9
$DRAGMODE
 70
     2
  9
$LTSCALE
 40
1.0
  9
$OSMODE
 70
     0
  9
$ATTMODE
 70
     1
  9
$TEXTSIZE
 40
0.2
  9
$TRACEWID
 40
0.05
  9
$TEXTSTYLE
  7
STANDARD
  9
$CLAYER
  8
0
  9
$CELTYPE
  6
BYLAYER
  9
$CECOLOR
 62
   256
  9
$DIMSCALE
 40
1.0
  9
$DIMASZ
 40
0.18
  9
$DIMEXO
 40
0.0625
  9
$DIMDLI
 40
0.38
  9
$DIMRND
 40
0.0
  9
$DIMDLE
 40
0.0
  9
$DIMEXE
 40
0.18
  9
$DIMTP
 40
0.0
  9
$DIMTM
 40
0.0
  9
$DIMTXT
 40
0.18
  9
$DIMCEN
 40
0.09
  9
$DIMTSZ
 40
0.0
  9
$DIMTOL
 70
     0
  9
$DIMLIM
 70
     0
  9
$DIMTIH
 70
     1
  9
$DIMTOH
 70
     1
  9
$DIMSE1
 70
     0
  9
$DIMSE2
 70
     0
  9
$DIMTAD
 70
     0
  9
$DIMZIN
 70
     0
  9
$DIMBLK
  1

  9
$DIMASO
 70
     1
  9
$DIMSHO
 70
     1
  9
$DIMPOST
  1

  9
$DIMAPOST
  1

  9
$DIMALT
 70
     0
  9
$DIMALTD
 70
     2
  9
$DIMALTF
 40
25.4
  9
$DIMLFAC
 40
1.0
  9
$DIMTOFL
 70
     0
  9
$DIMTVP
 40
0.0
  9
$DIMTIX
 70
     0
  9
$DIMSOXD
 70
     0
  9
$DIMSAH
 70
     0
  9
$DIMBLK1
  1

  9
$DIMBLK2
  1

  9
$DIMSTYLE
  2
*UNNAMED
  9
$DIMCLRD
 70
     0
  9
$DIMCLRE
 70
     0
  9
$DIMCLRT
 70
     0
  9
$DIMTFAC
 40
1.0
  9
$DIMGAP
 40
0.09
  9
$LUNITS
 70
     2
  9
$LUPREC
 70
     4
  9
$SKETCHINC
 40
0.1
  9
$FILLETRAD
 40
0.0
  9
$AUNITS
 70
     0
  9
$AUPREC
 70
     0
  9
$MENU
  1
acad
  9
$ELEVATION
 40
0.0
  9
$PELEVATION
 40
0.0
  9
$THICKNESS
 40
0.0
  9
$LIMCHECK
 70
     0
  9
$BLIPMODE
 70
     1
  9
$CHAMFERA
 40
0.0
  9
$CHAMFERB
 40
0.0
  9
$SKPOLY
 70
     0
  9
$TDCREATE
 40
2448820.900314710
  9
$TDUPDATE
 40
2448820.905306805
  9
$TDINDWG
 40
0.0049920949
  9
$TDUSRTIMER
 40
0.0049920949
  9
$USRTIMER
 70
     1
  9
$ANGBASE
 50
0.0
  9
$ANGDIR
 70
     0
  9
$PDMODE
 70
     0
  9
$PDSIZE
 40
0.0
  9
$PLINEWID
 40
0.0
  9
$COORDS
 70
     0
  9
$SPLFRAME
 70
     0
  9
$SPLINETYPE
 70
     6
  9
$SPLINESEGS
 70
     8
  9
$ATTDIA
 70
     0
  9
$ATTREQ
 70
     1
  9
$HANDLING
 70
     1
  9
$HANDSEED
  5
F7
  9
$SURFTAB1
 70
     6
  9
$SURFTAB2
 70
     6
  9
$SURFTYPE
 70
     6
  9
$SURFU
 70
     6
  9
$SURFV
 70
     6
  9
$UCSNAME
  2

  9
$UCSORG
 10
0.0
 20
0.0
 30
0.0
  9
$UCSXDIR
 10
1.0
 20
0.0
 30
0.0
  9
$UCSYDIR
 10
0.0
 20
1.0
 30
0.0
  9
$PUCSNAME
  2

  9
$PUCSORG
 10
0.0
 20
0.0
 30
0.0
  9
$PUCSXDIR
 10
1.0
 20
0.0
 30
0.0
  9
$PUCSYDIR
 10
0.0
 20
1.0
 30
0.0
  9
$USERI1
 70
     0
  9
$USERI2
 70
     0
  9
$USERI3
 70
     0
  9
$USERI4
 70
     0
  9
$USERI5
 70
     0
  9
$USERR1
 40
0.0
  9
$USERR2
 40
0.0
  9
$USERR3
 40
0.0
  9
$USERR4
 40
0.0
  9
$USERR5
 40
0.0
  9
$WORLDVIEW
 70
     1
  9
$SHADEDGE
 70
     3
  9
$SHADEDIF
 70
    70
  9
$TILEMODE
 70
     1
  9
$MAXACTVP
 70
    16
  9
$PINSBASE
 10
0.0
 20
0.0
 30
0.0
  9
$PLIMCHECK
 70
     0
  9
$PEXTMIN
 10
1.000000E+20
 20
1.000000E+20
 30
1.000000E+20
  9
$PEXTMAX
 10
-1.000000E+20
 20
-1.000000E+20
 30
-1.000000E+20
  9
$PLIMMIN
 10
0.0
 20
0.0
  9
$PLIMMAX
 10
12.0
 20
9.0
  9
$UNITMODE
 70
     0
  9
$VISRETAIN
 70
     0
  9
$PLINEGEN
 70
     0
  9
$PSLTSCALE
 70
     0
  9
$TREEDEPTH
 70
  3020
  9
$DWGCODEPAGE
  3
undefined
  0
ENDSEC
  0
SECTION
  2
TABLES
  0
TABLE
  2
VPORT
 70
     2
  0
VPORT
  2
*ACTIVE
 70
     0
 10
0.0
 20
0.0
 11
1.0
 21
1.0
 12
1.665973
 22
-1.943091
 13
0.0
 23
0.0
 14
1.0
 24
1.0
 15
0.0
 25
0.0
 16
-7.211321
 26
-8.5
 36
-104.440678
 17
0.0
 27
0.0
 37
0.0
 40
4.522941
 41
1.594883
 42
50.0
 43
0.0
 44
0.0
 50
0.0
 51
0.0
 71
     0
 72
   100
 73
     1
 74
     1
 75
     0
 76
     0
 77
     0
 78
     0
  0
ENDTAB
  0
TABLE
  2
LTYPE
 70
     1
  0
LTYPE
  2
CONTINUOUS
 70
    64
  3
Solid line
 72
    65
 73
     0
 40
0.0
  0
ENDTAB
  0
TABLE
  2
LAYER
 70
     2
  0
LAYER
  2
0
 70
    64
 62
     7
  6
CONTINUOUS
  0
LAYER
  2
AME_FRZ
 70
    65
 62
     7
  6
CONTINUOUS
  0
ENDTAB
  0
TABLE
  2
STYLE
 70
     1
  0
STYLE
  2
STANDARD
 70
     0
 40
0.0
 41
1.0
 50
0.0
 71
     0
 42
0.2
  3
txt
  4

  0
ENDTAB
  0
TABLE
  2
VIEW
 70
     0
  0
ENDTAB
  0
TABLE
  2
UCS
 70
     0
  0
ENDTAB
  0
TABLE
  2
APPID
 70
     2
  0
APPID
  2
ACAD
 70
    64
  0
APPID
  2
AME_SOL
 70
    64
  0
ENDTAB
  0
TABLE
  2
DIMSTYLE
 70
     0
  0
ENDTAB
  0
ENDSEC
  0
SECTION
  2
BLOCKS
  0
BLOCK
  8
0
  5
1
  2
AME_NIL
 70
    64
 10
0.0
 20
0.0
 30
0.0
  1
AME_NIL
  3
AME_NIL
  0
ENDBLK
  8
0
  5
2
  0
BLOCK
  8
0
  5
4
  2
AME_SOL
 70
    64
 10
0.0
 20
0.0
 30
0.0
  1
AME_SOL
  3
AME_SOL
  0
ENDBLK
  8
0
  5
5
  0
BLOCK
  8
0
  5
7
  2
*U2
 70
    65
 10
0.0
 20
0.0
 30
0.0
  1
*U
  3
*U
  0
LINE
  8
0
 62
     0
  5
8
 10
3.0
 20
3.0
 30
0.0
 11
3.0
 21
3.0
 31
3.0
1001
AME_SOL
1070
     1
1071
       18
  0
LINE
  8
0
 62
     0
  5
9
 10
3.0
 20
3.0
 30
3.0
 11
3.0
 21
0.0
 31
3.0
1001
AME_SOL
1070
     1
1071
       17
  0
LINE
  8
0
 62
     0
  5
A
 10
0.0
 20
3.0
 30
3.0
 11
3.0
 21
3.0
 31
3.0
1001
AME_SOL
1070
     1
1071
       16
  0
LINE
  8
0
 62
     0
  5
B
 10
0.0
 20
3.0
 30
0.0
 11
0.0
 21
3.0
 31
3.0
1001
AME_SOL
1070
     1
1071
       15
  0
LINE
  8
0
 62
     0
  5
C
 10
0.0
 20
3.0
 30
3.0
 11
0.0
 21
0.0
 31
3.0
1001
AME_SOL
1070
     1
1071
       14
  0
LINE
  8
0
 62
     0
  5
D
 10
0.0
 20
0.0
 30
0.0
 11
0.0
 21
0.0
 31
3.0
1001
AME_SOL
1070
     1
1071
       13
  0
LINE
  8
0
 62
     0
  5
E
 10
3.0
 20
0.0
 30
3.0
 11
3.0
 21
0.0
 31
0.0
1001
AME_SOL
1070
     1
1071
       12
  0
LINE
  8
0
 62
     0
  5
F
 10
0.0
 20
0.0
 30
3.0
 11
3.0
 21
0.0
 31
3.0
1001
AME_SOL
1070
     1
1071
       11
  0
LINE
  8
0
 62
     0
  5
10
 10
0.0
 20
0.0
 30
0.0
 11
3.0
 21
0.0
 31
0.0
1001
AME_SOL
1070
     1
1071
       10
  0
LINE
  8
0
 62
     0
  5
11
 10
0.0
 20
3.0
 30
0.0
 11
0.0
 21
0.0
 31
0.0
1001
AME_SOL
1070
     1
1071
        9
  0
LINE
  8
0
 62
     0
  5
12
 10
3.0
 20
0.0
 30
0.0
 11
3.0
 21
3.0
 31
0.0
1001
AME_SOL
1070
     1
1071
        8
  0
LINE
  8
0
 62
     0
  5
13
 10
3.0
 20
3.0
 30
0.0
 11
0.0
 21
3.0
 31
0.0
1001
AME_SOL
1070
     1
1071
        7
  0
ENDBLK
  8
0
  5
14
  0
BLOCK
  8
0
  5
18
  2
*U3
 70
    65
 10
0.0
 20
0.0
 30
0.0
  1
*U
  3
*U
  0
LINE
  8
0
 62
     0
  5
19
 10
1.0
 20
2.0
 30
0.0
 11
1.0
 21
2.0
 31
3.0
1001
AME_SOL
1070
     1
1071
       18
  0
LINE
  8
0
 62
     0
  5
1A
 10
1.0
 20
2.0
 30
3.0
 11
1.0
 21
0.0
 31
3.0
1001
AME_SOL
1070
     1
1071
       17
  0
LINE
  8
0
 62
     0
  5
1B
 10
0.0
 20
2.0
 30
3.0
 11
1.0
 21
2.0
 31
3.0
1001
AME_SOL
1070
     1
1071
       16
  0
LINE
  8
0
 62
     0
  5
1C
 10
0.0
 20
2.0
 30
0.0
 11
0.0
 21
2.0
 31
3.0
1001
AME_SOL
1070
     1
1071
       15
  0
LINE
  8
0
 62
     0
  5
1D
 10
0.0
 20
2.0
 30
3.0
 11
0.0
 21
0.0
 31
3.0
1001
AME_SOL
1070
     1
1071
       14
  0
LINE
  8
0
 62
     0
  5
1E
 10
0.0
 20
0.0
 30
0.0
 11
0.0
 21
0.0
 31
3.0
1001
AME_SOL
1070
     1
1071
       13
  0
LINE
  8
0
 62
     0
  5
1F
 10
1.0
 20
0.0
 30
3.0
 11
1.0
 21
0.0
 31
0.0
1001
AME_SOL
1070
     1
1071
       12
  0
LINE
  8
0
 62
     0
  5
20
 10
0.0
 20
0.0
 30
3.0
 11
1.0
 21
0.0
 31
3.0
1001
AME_SOL
1070
     1
1071
       11
  0
LINE
  8
0
 62
     0
  5
21
 10
0.0
 20
0.0
 30
0.0
 11
1.0
 21
0.0
 31
0.0
1001
AME_SOL
1070
     1
1071
       10
  0
LINE
  8
0
 62
     0
  5
22
 10
0.0
 20
2.0
 30
0.0
 11
0.0
 21
0.0
 31
0.0
1001
AME_SOL
1070
     1
1071
        9
  0
LINE
  8
0
 62
     0
  5
23
 10
1.0
 20
0.0
 30
0.0
 11
1.0
 21
2.0
 31
0.0
1001
AME_SOL
1070
     1
1071
        8
  0
LINE
  8
0
 62
     0
  5
24
 10
1.0
 20
2.0
 30
0.0
 11
0.0
 21
2.0
 31
0.0
1001
AME_SOL
1070
     1
1071
        7
  0
ENDBLK
  8
0
  5
25
  0
BLOCK
  8
0
  5
29
  2
*U4
 70
    65
 10
0.0
 20
0.0
 30
0.0
  1
*U
  3
*U
  0
LINE
  8
0
 62
     0
  5
2A
 10
1.0
 20
1.0
 30
0.0
 11
1.0
 21
1.0
 31
1.0
1001
AME_SOL
1070
     1
1071
       18
  0
LINE
  8
0
 62
     0
  5
2B
 10
1.0
 20
1.0
 30
1.0
 11
1.0
 21
0.0
 31
1.0
1001
AME_SOL
1070
     1
1071
       17
  0
LINE
  8
0
 62
     0
  5
2C
 10
0.0
 20
1.0
 30
1.0
 11
1.0
 21
1.0
 31
1.0
1001
AME_SOL
1070
     1
1071
       16
  0
LINE
  8
0
 62
     0
  5
2D
 10
0.0
 20
1.0
 30
0.0
 11
0.0
 21
1.0
 31
1.0
1001
AME_SOL
1070
     1
1071
       15
  0
LINE
  8
0
 62
     0
  5
2E
 10
0.0
 20
1.0
 30
1.0
 11
0.0
 21
0.0
 31
1.0
1001
AME_SOL
1070
     1
1071
       14
  0
LINE
  8
0
 62
     0
  5
2F
 10
0.0
 20
0.0
 30
0.0
 11
0.0
 21
0.0
 31
1.0
1001
AME_SOL
1070
     1
1071
       13
  0
LINE
  8
0
 62
     0
  5
30
 10
1.0
 20
0.0
 30
1.0
 11
1.0
 21
0.0
 31
0.0
1001
AME_SOL
1070
     1
1071
       12
  0
LINE
  8
0
 62
     0
  5
31
 10
0.0
 20
0.0
 30
1.0
 11
1.0
 21
0.0
 31
1.0
1001
AME_SOL
1070
     1
1071
       11
  0
LINE
  8
0
 62
     0
  5
32
 10
0.0
 20
0.0
 30
0.0
 11
1.0
 21
0.0
 31
0.0
1001
AME_SOL
1070
     1
1071
       10
  0
LINE
  8
0
 62
     0
  5
33
 10
0.0
 20
1.0
 30
0.0
 11
0.0
 21
0.0
 31
0.0
1001
AME_SOL
1070
     1
1071
        9
  0
LINE
  8
0
 62
     0
  5
34
 10
1.0
 20
0.0
 30
0.0
 11
1.0
 21
1.0
 31
0.0
1001
AME_SOL
1070
     1
1071
        8
  0
LINE
  8
0
 62
     0
  5
35
 10
1.0
 20
1.0
 30
0.0
 11
0.0
 21
1.0
 31
0.0
1001
AME_SOL
1070
     1
1071
        7
  0
ENDBLK
  8
0
  5
36
  0
BLOCK
  8
0
  5
3C
  2
*U5
 70
    65
 10
0.0
 20
0.0
 30
0.0
  1
*U
  3
*U
  0
LINE
  8
0
 62
     7
  5
3D
 10
3.0
 20
3.0
 30
0.0
 11
3.0
 21
3.0
 31
3.0
1001
AME_SOL
1070
     1
1071
       48
  0
LINE
  8
0
 62
     7
  5
3E
 10
3.0
 20
3.0
 30
3.0
 11
3.0
 21
0.0
 31
3.0
1001
AME_SOL
1070
     1
1071
       47
  0
LINE
  8
0
 62
     7
  5
3F
 10
2.0
 20
3.0
 30
3.0
 11
3.0
 21
3.0
 31
3.0
1001
AME_SOL
1070
     1
1071
       46
  0
LINE
  8
0
 62
     7
  5
40
 10
0.0
 20
3.0
 30
3.0
 11
1.0
 21
3.0
 31
3.0
1001
AME_SOL
1070
     1
1071
       45
  0
LINE
  8
0
 62
     7
  5
41
 10
0.0
 20
3.0
 30
2.0
 11
0.0
 21
3.0
 31
3.0
1001
AME_SOL
1070
     1
1071
       44
  0
LINE
  8
0
 62
     7
  5
42
 10
0.0
 20
3.0
 30
0.0
 11
0.0
 21
3.0
 31
1.0
1001
AME_SOL
1070
     1
1071
       43
  0
LINE
  8
0
 62
     7
  5
43
 10
0.0
 20
3.0
 30
3.0
 11
0.0
 21
0.0
 31
3.0
1001
AME_SOL
1070
     1
1071
       42
  0
LINE
  8
0
 62
     7
  5
44
 10
0.0
 20
0.0
 30
0.0
 11
0.0
 21
0.0
 31
3.0
1001
AME_SOL
1070
     1
1071
       41
  0
LINE
  8
0
 62
     7
  5
45
 10
3.0
 20
0.0
 30
3.0
 11
3.0
 21
0.0
 31
0.0
1001
AME_SOL
1070
     1
1071
       40
  0
LINE
  8
0
 62
     7
  5
46
 10
0.0
 20
0.0
 30
3.0
 11
3.0
 21
0.0
 31
3.0
1001
AME_SOL
1070
     1
1071
       39
  0
LINE
  8
0
 62
     7
  5
47
 10
0.0
 20
0.0
 30
0.0
 11
3.0
 21
0.0
 31
0.0
1001
AME_SOL
1070
     1
1071
       38
  0
LINE
  8
0
 62
     7
  5
48
 10
0.0
 20
3.0
 30
0.0
 11
0.0
 21
0.0
 31
0.0
1001
AME_SOL
1070
     1
1071
       37
  0
LINE
  8
0
 62
     7
  5
49
 10
3.0
 20
0.0
 30
0.0
 11
3.0
 21
3.0
 31
0.0
1001
AME_SOL
1070
     1
1071
       36
  0
LINE
  8
0
 62
     7
  5
4A
 10
1.0
 20
3.0
 30
0.0
 11
0.0
 21
3.0
 31
0.0
1001
AME_SOL
1070
     1
1071
       35
  0
LINE
  8
0
 62
     7
  5
4B
 10
3.0
 20
3.0
 30
0.0
 11
2.0
 21
3.0
 31
0.0
1001
AME_SOL
1070
     1
1071
       34
  0
LINE
  8
0
 62
     7
  5
4C
 10
2.0
 20
3.0
 30
0.0
 11
2.0
 21
1.0
 31
0.0
1001
AME_SOL
1070
     1
1071
       33
  0
LINE
  8
0
 62
     7
  5
4D
 10
2.0
 20
3.0
 30
3.0
 11
2.0
 21
3.0
 31
0.0
1001
AME_SOL
1070
     1
1071
       32
  0
LINE
  8
0
 62
     7
  5
4E
 10
2.0
 20
1.0
 30
3.0
 11
2.0
 21
3.0
 31
3.0
1001
AME_SOL
1070
     1
1071
       31
  0
LINE
  8
0
 62
     7
  5
4F
 10
1.0
 20
1.0
 30
0.0
 11
1.0
 21
3.0
 31
0.0
1001
AME_SOL
1070
     1
1071
       30
  0
LINE
  8
0
 62
     7
  5
50
 10
1.0
 20
3.0
 30
2.0
 11
1.0
 21
3.0
 31
3.0
1001
AME_SOL
1070
     1
1071
       29
  0
LINE
  8
0
 62
     7
  5
51
 10
1.0
 20
3.0
 30
0.0
 11
1.0
 21
3.0
 31
1.0
1001
AME_SOL
1070
     1
1071
       28
  0
LINE
  8
0
 62
     7
  5
52
 10
1.0
 20
3.0
 30
3.0
 11
1.0
 21
1.0
 31
3.0
1001
AME_SOL
1070
     1
1071
       27
  0
LINE
  8
0
 62
     7
  5
53
 10
2.0
 20
1.0
 30
0.0
 11
1.0
 21
1.0
 31
0.0
1001
AME_SOL
1070
     1
1071
       26
  0
LINE
  8
0
 62
     7
  5
54
 10
1.0
 20
1.0
 30
0.0
 11
1.0
 21
1.0
 31
3.0
1001
AME_SOL
1070
     1
1071
       25
  0
LINE
  8
0
 62
     7
  5
55
 10
1.0
 20
1.0
 30
3.0
 11
2.0
 21
1.0
 31
3.0
1001
AME_SOL
1070
     1
1071
       24
  0
LINE
  8
0
 62
     7
  5
56
 10
2.0
 20
1.0
 30
3.0
 11
2.0
 21
1.0
 31
0.0
1001
AME_SOL
1070
     1
1071
       23
  0
LINE
  8
0
 62
     7
  5
57
 10
0.0
 20
3.0
 30
2.0
 11
1.0
 21
3.0
 31
2.0
1001
AME_SOL
1070
     1
1071
       22
  0
LINE
  8
0
 62
     7
  5
58
 10
0.0
 20
2.0
 30
2.0
 11
0.0
 21
3.0
 31
2.0
1001
AME_SOL
1070
     1
1071
       21
  0
LINE
  8
0
 62
     7
  5
59
 10
1.0
 20
2.0
 30
2.0
 11
1.0
 21
3.0
 31
2.0
1001
AME_SOL
1070
     1
1071
       20
  0
LINE
  8
0
 62
     7
  5
5A
 10
0.0
 20
2.0
 30
1.0
 11
0.0
 21
2.0
 31
2.0
1001
AME_SOL
1070
     1
1071
       19
  0
LINE
  8
0
 62
     7
  5
5B
 10
1.0
 20
2.0
 30
1.0
 11
1.0
 21
2.0
 31
2.0
1001
AME_SOL
1070
     1
1071
       18
  0
LINE
  8
0
 62
     7
  5
5C
 10
0.0
 20
2.0
 30
2.0
 11
1.0
 21
2.0
 31
2.0
1001
AME_SOL
1070
     1
1071
       17
  0
LINE
  8
0
 62
     7
  5
5D
 10
1.0
 20
3.0
 30
1.0
 11
0.0
 21
3.0
 31
1.0
1001
AME_SOL
1070
     1
1071
       16
  0
LINE
  8
0
 62
     7
  5
5E
 10
0.0
 20
3.0
 30
1.0
 11
0.0
 21
2.0
 31
1.0
1001
AME_SOL
1070
     1
1071
       15
  0
LINE
  8
0
 62
     7
  5
5F
 10
1.0
 20
3.0
 30
1.0
 11
1.0
 21
2.0
 31
1.0
1001
AME_SOL
1070
     1
1071
       14
  0
LINE
  8
0
 62
     7
  5
60
 10
0.0
 20
2.0
 30
1.0
 11
1.0
 21
2.0
 31
1.0
1001
AME_SOL
1070
     1
1071
       13
  0
ENDBLK
  8
0
  5
61
  0
BLOCK
  8
0
  5
65
  2
*U6
 70
    65
 10
0.0
 20
0.0
 30
0.0
  1
*U
  3
*U
  0
POLYLINE
  8
0
 62
     7
  5
66
 66
     1
 10
0.0
 20
0.0
 30
0.0
 70
    64
  0
VERTEX
  8
0
  5
67
 10
3.0
 20
3.0
 30
0.0
 70
   192
  0
VERTEX
  8
0
  5
68
 10
3.0
 20
0.0
 30
3.0
 70
   192
  0
VERTEX
  8
0
  5
69
 10
3.0
 20
0.0
 30
0.0
 70
   192
  0
VERTEX
  8
0
  5
6A
 10
3.0
 20
3.0
 30
3.0
 70
   192
  0
VERTEX
  8
0
 62
     7
  5
6B
 10
0.0
 20
0.0
 30
0.0
 70
   128
 71
    -1
 72
     2
 73
     3
  0
VERTEX
  8
0
 62
     7
  5
6C
 10
0.0
 20
0.0
 30
0.0
 70
   128
 71
     1
 72
     4
 73
    -2
  0
SEQEND
  8
0
 62
     7
  5
6D
  0
POLYLINE
  8
0
 62
     7
  5
6E
 66
     1
 10
0.0
 20
0.0
 30
0.0
 70
    64
  0
VERTEX
  8
0
  5
6F
 10
1.0
 20
3.0
 30
0.0
 70
   192
  0
VERTEX
  8
0
  5
70
 10
0.0
 20
3.0
 30
0.0
 70
   192
  0
VERTEX
  8
0
  5
71
 10
0.0
 20
3.0
 30
1.0
 70
   192
  0
VERTEX
  8
0
  5
72
 10
1.0
 20
3.0
 30
1.0
 70
   192
  0
VERTEX
  8
0
  5
73
 10
2.0
 20
3.0
 30
3.0
 70
   192
  0
VERTEX
  8
0
  5
74
 10
3.0
 20
3.0
 30
3.0
 70
   192
  0
VERTEX
  8
0
  5
75
 10
3.0
 20
3.0
 30
0.0
 70
   192
  0
VERTEX
  8
0
  5
76
 10
2.0
 20
3.0
 30
0.0
 70
   192
  0
VERTEX
  8
0
  5
77
 10
0.0
 20
3.0
 30
2.0
 70
   192
  0
VERTEX
  8
0
  5
78
 10
0.0
 20
3.0
 30
3.0
 70
   192
  0
VERTEX
  8
0
  5
79
 10
1.0
 20
3.0
 30
2.0
 70
   192
  0
VERTEX
  8
0
  5
7A
 10
1.0
 20
3.0
 30
3.0
 70
   192
  0
VERTEX
  8
0
 62
     7
  5
7B
 10
0.0
 20
0.0
 30
0.0
 70
   128
 71
     1
 72
     2
 73
    -3
  0
VERTEX
  8
0
 62
     7
  5
7C
 10
0.0
 20
0.0
 30
0.0
 70
   128
 71
     3
 72
     4
 73
    -1
  0
VERTEX
  8
0
 62
     7
  5
7D
 10
0.0
 20
0.0
 30
0.0
 70
   128
 71
     5
 72
     6
 73
    -7
  0
VERTEX
  8
0
 62
     7
  5
7E
 10
0.0
 20
0.0
 30
0.0
 70
   128
 71
     7
 72
     8
 73
    -5
  0
VERTEX
  8
0
 62
     7
  5
7F
 10
0.0
 20
0.0
 30
0.0
 70
   128
 71
     9
 72
   -10
 73
    11
  0
VERTEX
  8
0
 62
     7
  5
80
 10
0.0
 20
0.0
 30
0.0
 70
   128
 71
    10
 72
    12
 73
   -11
  0
SEQEND
  8
0
 62
     7
  5
81
  0
POLYLINE
  8
0
 62
     7
  5
82
 66
     1
 10
0.0
 20
0.0
 30
0.0
 70
    64
  0
VERTEX
  8
0
  5
83
 10
1.0
 20
1.0
 30
3.0
 70
   192
  0
VERTEX
  8
0
  5
84
 10
3.0
 20
0.0
 30
3.0
 70
   192
  0
VERTEX
  8
0
  5
85
 10
2.0
 20
1.0
 30
3.0
 70
   192
  0
VERTEX
  8
0
  5
86
 10
0.0
 20
0.0
 30
3.0
 70
   192
  0
VERTEX
  8
0
  5
87
 10
1.0
 20
3.0
 30
3.0
 70
   192
  0
VERTEX
  8
0
  5
88
 10
2.0
 20
3.0
 30
3.0
 70
   192
  0
VERTEX
  8
0
  5
89
 10
3.0
 20
3.0
 30
3.0
 70
   192
  0
VERTEX
  8
0
  5
8A
 10
0.0
 20
3.0
 30
3.0
 70
   192
  0
VERTEX
  8
0
 62
     7
  5
8B
 10
0.0
 20
0.0
 30
0.0
 70
   128
 71
    -1
 72
    -2
 73
     3
  0
VERTEX
  8
0
 62
     7
  5
8C
 10
0.0
 20
0.0
 30
0.0
 70
   128
 71
    -1
 72
     4
 73
    -2
  0
VERTEX
  8
0
 62
     7
  5
8D
 10
0.0
 20
0.0
 30
0.0
 70
   128
 71
     1
 72
    -5
 73
    -4
  0
VERTEX
  8
0
 62
     7
  5
8E
 10
0.0
 20
0.0
 30
0.0
 70
   128
 71
    -2
 72
     6
 73
    -3
  0
VERTEX
  8
0
 62
     7
  5
8F
 10
0.0
 20
0.0
 30
0.0
 70
   128
 71
     2
 72
     7
 73
    -6
  0
VERTEX
  8
0
 62
     7
  5
90
 10
0.0
 20
0.0
 30
0.0
 70
   128
 71
     5
 72
     8
 73
    -4
  0
SEQEND
  8
0
 62
     7
  5
91
  0
POLYLINE
  8
0
 62
     7
  5
92
 66
     1
 10
0.0
 20
0.0
 30
0.0
 70
    64
  0
VERTEX
  8
0
  5
93
 10
0.0
 20
0.0
 30
0.0
 70
   192
  0
VERTEX
  8
0
  5
94
 10
0.0
 20
2.0
 30
2.0
 70
   192
  0
VERTEX
  8
0
  5
95
 10
0.0
 20
2.0
 30
1.0
 70
   192
  0
VERTEX
  8
0
  5
96
 10
0.0
 20
0.0
 30
3.0
 70
   192
  0
VERTEX
  8
0
  5
97
 10
0.0
 20
3.0
 30
0.0
 70
   192
  0
VERTEX
  8
0
  5
98
 10
0.0
 20
3.0
 30
1.0
 70
   192
  0
VERTEX
  8
0
  5
99
 10
0.0
 20
3.0
 30
2.0
 70
   192
  0
VERTEX
  8
0
  5
9A
 10
0.0
 20
3.0
 30
3.0
 70
   192
  0
VERTEX
  8
0
 62
     7
  5
9B
 10
0.0
 20
0.0
 30
0.0
 70
   128
 71
    -1
 72
     2
 73
    -3
  0
VERTEX
  8
0
 62
     7
  5
9C
 10
0.0
 20
0.0
 30
0.0
 70
   128
 71
     1
 72
    -4
 73
    -2
  0
VERTEX
  8
0
 62
     7
  5
9D
 10
0.0
 20
0.0
 30
0.0
 70
   128
 71
    -3
 72
     5
 73
    -1
  0
VERTEX
  8
0
 62
     7
  5
9E
 10
0.0
 20
0.0
 30
0.0
 70
   128
 71
     3
 72
     6
 73
    -5
  0
VERTEX
  8
0
 62
     7
  5
9F
 10
0.0
 20
0.0
 30
0.0
 70
   128
 71
    -4
 72
     7
 73
    -2
  0
VERTEX
  8
0
 62
     7
  5
A0
 10
0.0
 20
0.0
 30
0.0
 70
   128
 71
     4
 72
     8
 73
    -7
  0
SEQEND
  8
0
 62
     7
  5
A1
  0
POLYLINE
  8
0
 62
     7
  5
A2
 66
     1
 10
0.0
 20
0.0
 30
0.0
 70
    64
  0
VERTEX
  8
0
  5
A3
 10
3.0
 20
0.0
 30
0.0
 70
   192
  0
VERTEX
  8
0
  5
A4
 10
3.0
 20
0.0
 30
3.0
 70
   192
  0
VERTEX
  8
0
  5
A5
 10
0.0
 20
0.0
 30
0.0
 70
   192
  0
VERTEX
  8
0
  5
A6
 10
0.0
 20
0.0
 30
3.0
 70
   192
  0
VERTEX
  8
0
 62
     7
  5
A7
 10
0.0
 20
0.0
 30
0.0
 70
   128
 71
     1
 72
    -2
 73
     3
  0
VERTEX
  8
0
 62
     7
  5
A8
 10
0.0
 20
0.0
 30
0.0
 70
   128
 71
     2
 72
     4
 73
    -3
  0
SEQEND
  8
0
 62
     7
  5
A9
  0
POLYLINE
  8
0
 62
     7
  5
AA
 66
     1
 10
0.0
 20
0.0
 30
0.0
 70
    64
  0
VERTEX
  8
0
  5
AB
 10
2.0
 20
1.0
 30
0.0
 70
   192
  0
VERTEX
  8
0
  5
AC
 10
3.0
 20
0.0
 30
0.0
 70
   192
  0
VERTEX
  8
0
  5
AD
 10
0.0
 20
0.0
 30
0.0
 70
   192
  0
VERTEX
  8
0
  5
AE
 10
3.0
 20
3.0
 30
0.0
 70
   192
  0
VERTEX
  8
0
  5
AF
 10
2.0
 20
3.0
 30
0.0
 70
   192
  0
VERTEX
  8
0
  5
B0
 10
1.0
 20
1.0
 30
0.0
 70
   192
  0
VERTEX
  8
0
  5
B1
 10
1.0
 20
3.0
 30
0.0
 70
   192
  0
VERTEX
  8
0
  5
B2
 10
0.0
 20
3.0
 30
0.0
 70
   192
  0
VERTEX
  8
0
 62
     7
  5
B3
 10
0.0
 20
0.0
 30
0.0
 70
   128
 71
    -1
 72
     2
 73
    -3
  0
VERTEX
  8
0
 62
     7
  5
B4
 10
0.0
 20
0.0
 30
0.0
 70
   128
 71
    -1
 72
     4
 73
    -2
  0
VERTEX
  8
0
 62
     7
  5
B5
 10
0.0
 20
0.0
 30
0.0
 70
   128
 71
     1
 72
     5
 73
    -4
  0
VERTEX
  8
0
 62
     7
  5
B6
 10
0.0
 20
0.0
 30
0.0
 70
   128
 71
    -3
 72
     6
 73
    -1
  0
VERTEX
  8
0
 62
     7
  5
B7
 10
0.0
 20
0.0
 30
0.0
 70
   128
 71
    -3
 72
     7
 73
    -6
  0
VERTEX
  8
0
 62
     7
  5
B8
 10
0.0
 20
0.0
 30
0.0
 70
   128
 71
     3
 72
     8
 73
    -7
  0
SEQEND
  8
0
 62
     7
  5
B9
  0
POLYLINE
  8
0
 62
     7
  5
BA
 66
     1
 10
0.0
 20
0.0
 30
0.0
 70
    64
  0
VERTEX
  8
0
  5
BB
 10
2.0
 20
1.0
 30
0.0
 70
   192
  0
VERTEX
  8
0
  5
BC
 10
2.0
 20
3.0
 30
0.0
 70
   192
  0
VERTEX
  8
0
  5
BD
 10
2.0
 20
1.0
 30
3.0
 70
   192
  0
VERTEX
  8
0
  5
BE
 10
2.0
 20
3.0
 30
3.0
 70
   192
  0
VERTEX
  8
0
 62
     7
  5
BF
 10
0.0
 20
0.0
 30
0.0
 70
   128
 71
     1
 72
    -3
 73
     2
  0
VERTEX
  8
0
 62
     7
  5
C0
 10
0.0
 20
0.0
 30
0.0
 70
   128
 71
    -2
 72
     3
 73
     4
  0
SEQEND
  8
0
 62
     7
  5
C1
  0
POLYLINE
  8
0
 62
     7
  5
C2
 66
     1
 10
0.0
 20
0.0
 30
0.0
 70
    64
  0
VERTEX
  8
0
  5
C3
 10
1.0
 20
3.0
 30
0.0
 70
   192
  0
VERTEX
  8
0
  5
C4
 10
1.0
 20
1.0
 30
0.0
 70
   192
  0
VERTEX
  8
0
  5
C5
 10
1.0
 20
2.0
 30
1.0
 70
   192
  0
VERTEX
  8
0
  5
C6
 10
1.0
 20
1.0
 30
3.0
 70
   192
  0
VERTEX
  8
0
  5
C7
 10
1.0
 20
3.0
 30
1.0
 70
   192
  0
VERTEX
  8
0
  5
C8
 10
1.0
 20
2.0
 30
2.0
 70
   192
  0
VERTEX
  8
0
  5
C9
 10
1.0
 20
3.0
 30
2.0
 70
   192
  0
VERTEX
  8
0
  5
CA
 10
1.0
 20
3.0
 30
3.0
 70
   192
  0
VERTEX
  8
0
 62
     7
  5
CB
 10
0.0
 20
0.0
 30
0.0
 70
   128
 71
    -1
 72
    -3
 73
     2
  0
VERTEX
  8
0
 62
     7
  5
CC
 10
0.0
 20
0.0
 30
0.0
 70
   128
 71
    -2
 72
    -3
 73
     4
  0
VERTEX
  8
0
 62
     7
  5
CD
 10
0.0
 20
0.0
 30
0.0
 70
   128
 71
    -3
 72
     1
 73
     5
  0
VERTEX
  8
0
 62
     7
  5
CE
 10
0.0
 20
0.0
 30
0.0
 70
   128
 71
    -4
 72
     3
 73
    -6
  0
VERTEX
  8
0
 62
     7
  5
CF
 10
0.0
 20
0.0
 30
0.0
 70
   128
 71
    -4
 72
     6
 73
    -7
  0
VERTEX
  8
0
 62
     7
  5
D0
 10
0.0
 20
0.0
 30
0.0
 70
   128
 71
    -4
 72
     7
 73
     8
  0
SEQEND
  8
0
 62
     7
  5
D1
  0
POLYLINE
  8
0
 62
     7
  5
D2
 66
     1
 10
0.0
 20
0.0
 30
0.0
 70
    64
  0
VERTEX
  8
0
  5
D3
 10
2.0
 20
1.0
 30
3.0
 70
   192
  0
VERTEX
  8
0
  5
D4
 10
1.0
 20
1.0
 30
0.0
 70
   192
  0
VERTEX
  8
0
  5
D5
 10
2.0
 20
1.0
 30
0.0
 70
   192
  0
VERTEX
  8
0
  5
D6
 10
1.0
 20
1.0
 30
3.0
 70
   192
  0
VERTEX
  8
0
 62
     7
  5
D7
 10
0.0
 20
0.0
 30
0.0
 70
   128
 71
     1
 72
     3
 73
    -2
  0
VERTEX
  8
0
 62
     7
  5
D8
 10
0.0
 20
0.0
 30
0.0
 70
   128
 71
    -1
 72
     2
 73
     4
  0
SEQEND
  8
0
 62
     7
  5
D9
  0
POLYLINE
  8
0
 62
     7
  5
DA
 66
     1
 10
0.0
 20
0.0
 30
0.0
 70
    64
  0
VERTEX
  8
0
  5
DB
 10
1.0
 20
3.0
 30
2.0
 70
   192
  0
VERTEX
  8
0
  5
DC
 10
0.0
 20
3.0
 30
2.0
 70
   192
  0
VERTEX
  8
0
  5
DD
 10
0.0
 20
2.0
 30
2.0
 70
   192
  0
VERTEX
  8
0
  5
DE
 10
1.0
 20
2.0
 30
2.0
 70
   192
  0
VERTEX
  8
0
 62
     7
  5
DF
 10
0.0
 20
0.0
 30
0.0
 70
   128
 71
    -1
 72
     3
 73
     2
  0
VERTEX
  8
0
 62
     7
  5
E0
 10
0.0
 20
0.0
 30
0.0
 70
   128
 71
    -3
 72
     1
 73
     4
  0
SEQEND
  8
0
 62
     7
  5
E1
  0
POLYLINE
  8
0
 62
     7
  5
E2
 66
     1
 10
0.0
 20
0.0
 30
0.0
 70
    64
  0
VERTEX
  8
0
  5
E3
 10
0.0
 20
2.0
 30
2.0
 70
   192
  0
VERTEX
  8
0
  5
E4
 10
0.0
 20
2.0
 30
1.0
 70
   192
  0
VERTEX
  8
0
  5
E5
 10
1.0
 20
2.0
 30
1.0
 70
   192
  0
VERTEX
  8
0
  5
E6
 10
1.0
 20
2.0
 30
2.0
 70
   192
  0
VERTEX
  8
0
 62
     7
  5
E7
 10
0.0
 20
0.0
 30
0.0
 70
   128
 71
    -1
 72
     3
 73
     2
  0
VERTEX
  8
0
 62
     7
  5
E8
 10
0.0
 20
0.0
 30
0.0
 70
   128
 71
    -3
 72
     1
 73
     4
  0
SEQEND
  8
0
 62
     7
  5
E9
  0
POLYLINE
  8
0
 62
     7
  5
EA
 66
     1
 10
0.0
 20
0.0
 30
0.0
 70
    64
  0
VERTEX
  8
0
  5
EB
 10
0.0
 20
2.0
 30
1.0
 70
   192
  0
VERTEX
  8
0
  5
EC
 10
0.0
 20
3.0
 30
1.0
 70
   192
  0
VERTEX
  8
0
  5
ED
 10
1.0
 20
2.0
 30
1.0
 70
   192
  0
VERTEX
  8
0
  5
EE
 10
1.0
 20
3.0
 30
1.0
 70
   192
  0
VERTEX
  8
0
 62
     7
  5
EF
 10
0.0
 20
0.0
 30
0.0
 70
   128
 71
     1
 72
    -3
 73
     2
  0
VERTEX
  8
0
 62
     7
  5
F0
 10
0.0
 20
0.0
 30
0.0
 70
   128
 71
    -2
 72
     3
 73
     4
  0
SEQEND
  8
0
 62
     7
  5
F1
  0
ENDBLK
  8
0
  5
F2
  0
BLOCK
  8
0
  5
F4
  2
AME_MAT
 70
    64
 10
0.0
 20
0.0
 30
0.0
  1
AME_MAT
  3
AME_MAT
  0
ENDBLK
  8
0
  5
F5
  0
ENDSEC
  0
SECTION
  2
ENTITIES
  0
INSERT
  8
AME_FRZ
  5
3
  2
AME_NIL
 10
0.0
 20
0.0
 30
0.0
  0
INSERT
  8
AME_FRZ
  5
6
  2
AME_SOL
 10
0.0
 20
0.0
 30
0.0
1001
AME_SOL
1000
1.0
1000
sq cm
1070
     3
1070
     0
1070
     3
1000
wire
1040
0.0
1000
NONE
1040
1.0
1000
cm
1000
gm
1000
MILD_STEEL
1070
    25
1000
CSG
1070
     3
1070
     2
1070
     3
1000
cu cm
1070
     4
1070
     0
1005
3
  0
INSERT
  8
AME_FRZ
  5
15
  2
*U2
 10
0.0
 20
0.0
 30
0.0
1001
AME_SOL
1002
{
1070
     0
1071
  2000920
1070
  1536
1010
3.0
1020
3.0
1030
3.0
1005
0
1005
0
1005
62
1040
0.0
1040
1.0
1000
MILD_STEEL
1000
0
1010
0.0
1020
0.0
1030
0.0
1010
0.0
1020
0.0
1030
1.0
1040
0.0
1002
}
  0
INSERT
  8
AME_FRZ
  5
26
  2
*U3
 10
1.0
 20
1.0
 30
0.0
1001
AME_SOL
1002
{
1070
     0
1071
  1924120
1070
  1536
1010
1.0
1020
2.0
1030
3.0
1005
0
1005
0
1005
3A
1040
0.0
1040
1.0
1000
MILD_STEEL
1000
0
1010
1.0
1020
1.0
1030
0.0
1010
0.0
1020
0.0
1030
1.0
1040
0.0
1002
}
  0
INSERT
  8
AME_FRZ
  5
37
  2
*U4
 10
0.0
 20
2.0
 30
1.0
1001
AME_SOL
1002
{
1070
     0
1071
  2010360
1070
  1536
1010
1.0
1020
1.0
1030
1.0
1005
0
1005
0
1005
3A
1040
0.0
1040
1.0
1000
MILD_STEEL
1000
0
1010
0.0
1020
2.0
1030
1.0
1010
0.0
1020
0.0
1030
1.0
1040
0.0
1002
}
  0
INSERT
  8
AME_FRZ
  5
3A
  2
AME_NIL
 10
0.0
 20
0.0
 30
0.0
1001
AME_SOL
1002
{
1070
     0
1071
  1992856
1070
   775
1070
     2
1005
26
1005
37
1005
0
1005
0
1005
62
1040
0.0
1040
1.0
1000
MILD_STEEL
1000
0
1010
0.0
1020
0.0
1030
0.0
1010
0.0
1020
0.0
1030
1.0
1040
0.0
1002
}
  0
INSERT
  8
0
  5
62
  2
*U6
 10
0.0
 20
0.0
 30
0.0
1001
AME_SOL
1002
{
1070
     0
1071
  1933896
1070
  9223
1070
     0
1005
15
1005
3A
1005
F3
1005
63
1005
0
1040
62.0
1040
1.0
1000
MILD_STEEL
1000
0
1002
}
  0
INSERT
  8
AME_FRZ
  5
63
  2
AME_NIL
 10
1.0
 20
1.0
 30
1.0
1001
AME_SOL
1004
E903A9FB0100F0FFFFFF000052F70C0001000000E14626BAE14626BAE14626BA650A4040650A4040650A404001000000FBF204000000C0B900F4FF3F00E87F3F000C803F00064040000C803F0100844E70661E00FFFF0000010032010000844E0000000000000000803F000000000000803F000000000000
1004
000000000000000000400000803F05000000000000000000000000000000000000000000844E0000000000000000803F000000000000803F000000000000000000000000000000400000803F050000000000000000000000000000000000FFFFFFFFFBF204000000C0B900F4FF3F00E87F3F000C803F0006
1004
0040000600400100844E98BD1E00FFFF0000010031010000844E00000000803F000000000000000000000000000000000000803F00000000000000400000803F05000000000000000000000000000000000000000000844E00000000803F000000000000000000000000000000000000803F000000000000
1004
00400000803F050000000000000000000000000000000000FFFFFFFFFBF204000000C0B900F4FF3F00F4FF3F000C803F00064040000600400100844E68C01E00FFFF000001002F010000844E0000000080BF000000800000008000000080000080BF000000800000803F0000404000000040050000000000
1004
00000000000000000000000000000000844E0000000080BF000000800000008000000080000080BF000000800000803F0000404000000040050000000000000000000000000000000000FFFFFFFFFBF2040011E27F3F11E27F3F5077EFB97C070040F80E803F7B0740400100844E88C61E00FFFF00000100
1004
95010000844E00000000803F000000000000000000000000000000000000803F0000803F0000803F0000000005000000000000000000000000000000000000000000844E00000000803F000000000000000000000000000000000000803F0000803F0000803F000000000500000000000000000000000000
1004
00000000FFFFFFFFFBF2080011E27F3F11E27F3F5077EFB9F80E803F7B0740407B0740400100844EA8C71E00FFFF0000010094010000844E000000000000000000000000803F000000000000803F000000000000803F0000803F0000000005000000000000000000000000000000000000000000844E0000
1004
00000000000000000000803F000000000000803F000000000000803F0000803F00000000050000000000000000000000000000000000FFFFFFFFFBF2040008F1FF3F11E27F3F5077EFB97C0700407B0740407B0740400100844E18C71E00FFFF0000010091010000844E000000000080000080BF00000080
1004
0000008000000080000080BF00000040000040400000404005000000000000000000000000000000000000000000844E000000000080000080BF000000800000008000000080000080BF000000400000404000004040050000000000000000000000000000000000FFFFFFFFFBF20800E14626BAE14626BA
1004
E14626BA650A4040650A4040E146263A0100844EF8C01E00010000000100FA010000844E0000000000000000803F000000000000803F000000000000000000000000000000000000000005000000000000000000000000000000000000000000844E0000000000000000803F000000000000803F00000000
1004
0000000000000000000000000000000005000000000000000000000000000000000001000000FBF20400E14626BAE14626BAE14626BA650A4040E146263A650A40400100844ED8BF1E00010000000100F9010000844E00000000803F000000000000000000000000000000000000803F0000000000000000
1004
0000000005000000000000000000000000000000000000000000844E00000000803F000000000000000000000000000000000000803F00000000000000000000000005000000000000000000000000000000000001000000FBF20800E14626BAE14626BAE14626BAE146263A650A4040650A40400100844E
1004
28BE1E00010000000100F8010000844E000000000000000000000000803F000000000000803F0000000000000000000000000000000005000000000000000000000000000000000000000000844E000000000000000000000000803F000000000000803F0000000000000000000000000000000005000000
1004
000000000000000000000000000001000000FBF20800E14626BAE14626BA9BF53F40650A4040650A4040650A40400100844E50CB1E00010000000100F7010000844E0000000080BF000000800000008000000080000080BF0000008000004040000040400000404005000000000000000000000000000000
1004
000000000000844E0000000080BF000000800000008000000080000080BF0000008000004040000040400000404005000000000000000000000000000000000001000000FBF20C00E14626BA9BF53F40E14626BA650A4040650A4040650A40400100844E70CC1E00010000000100F6010000844E00000000
1004
008000000080000080BF000080BF000000800000008000004040000040400000404005000000000000000000000000000000000000000000844E00000000008000000080000080BF000080BF000000800000008000004040000040400000404005000000000000000000000000000000000001000000FBF2
1004
04009BF53F40E14626BAE14626BA650A4040650A4040650A40400100844E90CD1E00010000000100F5010000844E000000000080000080BF000000800000008000000080000080BF00004040000040400000404005000000000000000000000000000000000000000000844E000000000080000080BF0000
1004
00800000008000000080000080BF00004040000040400000404005000000000000000000000000000000000001000000A4EE0000C0B900F4FF3F00E87F3F000C803F00060040000C803F000000000000803F02009675B0CE1E0000000100FFFF70661E0098BD1E000000020098BD1E0070661E00FFFFFFFF
1004
FFFFFFFF9675000000000000000080BF000000000000000000000000000080BF00000000000000400000803F0200000000000000803FA4EE11E27F3F00F4FF3F00E87F3F000C803F00064040000C803F0000C0BF010000BF02009675F0D01E000000FFFF010070661E00A8C71E000000020070661E00A8C7
1004
1E00FFFFFFFFFFFFFFFF96750000000080BF00000000000000000000000000000000000080BF0000803F0000C03F0000803F02000000C0BF010000BFA4EE0000C0B900F4FF3F00E87F3FE146263A00064040000C803FFFFFFFBF000080BF02009675E09C1E0000000100FFFF70661E0028BE1E0000000200
1004
28BE1E0070661E0001000000FFFFFFFF96750000000080BF00000000000000000000000000000000000080BF000000000000803F0000803F0200FFFFFFBF000080BFA4EE0000C0B99BF53F4000E87F3F000C803F00064040000C803FFFFFFF3E0000C03F0200967540B71D0000000100FFFF70661E0070CC
1004
1E000000020070CC1E0070661E0001000000FFFFFFFF96750000000000000000803F000000000000000000000000000080BF0000C03F000040400000803F0200FFFFFF3E0000C03FA4EE0000C0B900F4FF3F00F4FF3F000C803F0006004000060040000000BF0000003F0200967540C21D0000000100FFFF
1004
98BD1E0068C01E000000020068C01E0098BD1E00FFFFFFFFFFFFFFFF9675000000000000000000000000803F00000000000080BF000000000000003F00000040000000400200000000BF0000003FA4EE11E27F3F00F4FF3F00E87F3F000C803F00060040000600400000003F0000C03F02009675C8DF1D00
1004
0000FFFF010098BD1E00A8C71E000000020098BD1E00A8C71E00FFFFFFFFFFFFFFFF96750000000080BF000000000000000000000000000080BF000000000000803F000000400000003F02000000003F0000C03FA4EE0000C0B900F4FF3F00E87F3FE146263A00060040000600400000003F0000C03F0200
1004
967588A11D0000000100FFFF98BD1E0028BE1E000000020028BE1E0098BD1E0001000000FFFFFFFF96750000000080BF000000000000000000000000000080BF0000000000000000000000400000003F02000000003F0000C03FA4EE11E27F3F00F4FF3F00F4FF3F000C803F000640400006004000000000
1004
FFFF7F3F02009675D0651C000000FFFF010068C01E00A8C71E000000020068C01E00A8C71E00FFFFFFFFFFFFFFFF96750000000080BF000000000000000000000000000000000000803F0000803F0000004000000040020000000000FFFF7F3FA4EE0000C0B900F4FF3F00F4FF3FE146263A000640400006
1004
00400100003F0000C03F02009675D85E1C0000000100FFFF68C01E0028BE1E000000020028BE1E0068C01E0001000000FFFFFFFF96750000000080BF000000000000000000000000000000000000803F000000000000C03F0000004002000100003F0000C03FA4EE0000C0B99BF53F4000F4FF3F000C803F
1004
0006404000060040FFFFFFBFFDFF7FBF0200967500631C0000000100FFFF68C01E0070CC1E000000020070CC1E0068C01E0001000000FFFFFFFF96750000000000000000803F0000000000000000000000000000803FFFFFFF3F00004040000000400200FFFFFFBFFDFF7FBFA4EE08F1FF3F11E27F3F5077
1004
EFB97C070040F80E803F7B0740400000C0BF0000C03F02009675C0601C0000000100FFFF88C61E0018C71E000000020018C71E0088C61E00FFFFFFFFFFFFFFFF967500000000803F000000000000000000000000000080BF00000000000000400000803F0000C03F02000000C0BF0000C03FA4EE11E27F3F
1004
11E27F3F9BF53F407C070040F80E803F7B074040000080BF0000008002009675E0601C0000000100FFFF88C61E0050CB1E000000020050CB1E0088C61E0001000000FFFFFFFF9675000000000000000000000000803F00000000000080BF00000000000000400100803F000040400200000080BF00000080
1004
A4EE11E27F3F11E27F3F5077EFB9F80E803FF80E803F7B074040000000000000404002009675904A1D0000000100FFFF88C61E00A8C71E0000000200A8C71E0088C61E00FFFFFFFFFFFFFFFF96750000000080BF000000000000000000000000000080BF000000000000803F0000803F0000000002000000
1004
000000004040A4EE11E27F3F11E27F3F5077EFB97C070040F80E803FE146263A0000C0BF000000BF0200967540401D0000000100FFFF88C61E00F8C01E0000000200F8C01E0088C61E0001000000FFFFFFFF967500000000000000000000000080BF00000000000080BF000000000000003F0000803F0000
1004
000002000000C0BF000000BFA4EE11E27F3F11E27F3F9BF53F40F80E803F7B0740407B074040FFFF7FBF0000803F02009675F0411D0000000100FFFFA8C71E0050CB1E000000020050CB1E00A8C71E0001000000FFFFFFFF9675000000000000000000000000803F000080BF00000000000000000100803F
1004
00000040000040400200FFFF7FBF0000803FA4EE11E27F3F9BF53F405077EFB9F80E803F7B0740407B0740400000C0BFFFFFFFBE02009675A0431D0000000100FFFFA8C71E0070CC1E000000020070CC1E00A8C71E0001000000FFFFFFFF96750000000000000000803F00000000000080BF000000000000
1004
00000100803F000040400000C03F02000000C0BFFFFFFFBEA4EE11E27F3F9BF53F405077EFB9F80E803F7B0740407B0740400100003F0000C03F0200967520461D0000000100FFFFA8C71E0070CC1E000000020070CC1E00A8C71E0001000000FFFFFFFF96750000000000000000803F00000000000080BF
1004
00000000000000000100803F000040400000C03F02000100003F0000C03FA4EE11E27F3F11E27F3F5077EFB9F80E803F7B074040E146263A0000003FFFFF1F400200967530471D0000000100FFFFA8C71E00F8C01E0000000200F8C01E00A8C71E0001000000FFFFFFFF9675000000000000000000000000
1004
80BF000080BF00000000000000000000803F0000003F0000000002000000003FFFFF1F40A4EE08F1FF3F11E27F3F9BF53F407C0700407B0740407B074040FFFFFFBF0000008002009675404B1D0000000100FFFF18C71E0050CB1E000000020050CB1E0018C71E0001000000FFFFFFFF9675000000000000
1004
000000000000803F0000803F00000000000000000000004000004040000040400200FFFFFFBF00000080A4EE08F1FF3F9BF53F405077EFB97C0700407B0740407B074040000000000000404002009675604B1D0000000100FFFF18C71E0070CC1E000000020070CC1E0018C71E0001000000FFFFFFFF9675
1004
0000000000000000803F000000000000803F000000800000000000000040000040400000404002000000000000004040A4EE08F1FF3F11E27F3F5077EFB97C0700407B074040E146263A0000C0BFFFFFFF3E02009675F85A1C0000000100FFFF18C71E00F8C01E0000000200F8C01E0018C71E0001000000
1004
FFFFFFFF967500000000000000000000000080BF0000803F0000000000000000000000400000C03F0000000002000000C0BFFFFFFF3EA4EEE14626BA9BF53F40E14626BA650A4040650A4040E146263A0000C0BF010000BF02009675C85B1C000000FFFF0100F8C01E0070CC1E0000000200F8C01E0070CC
1004
1E00010000000100000096750000000000000000803F000000000000000000000000000080BF0000C03F000040400000000002000000C0BF010000BFA4EEE14626BA9BF53F40E14626BA650A4040650A4040E146263AFFFFFF3E0000C03F02009675B85C1C000000FFFF0100F8C01E0070CC1E0000000200
1004
F8C01E0070CC1E00010000000100000096750000000000000000803F000000000000000000000000000080BF0000C03F00004040000000000200FFFFFF3E0000C03FA4EE9BF53F40E14626BAE14626BA650A4040650A4040E146263A0000C0BF0000C03F02009675A85D1C000000FFFF0100F8C01E0090CD
1004
1E0000000200F8C01E0090CD1E000100000001000000967500000000803F00000000000000000000000000000000000080BF000040400000C03F0000000002000000C0BF0000C03FA4EEE14626BAE14626BAE14626BAE146263A650A4040E146263A000040C0000000800200967538601D000000FFFF0100
1004
F8C01E0028BE1E0000000200F8C01E0028BE1E00010000000100000096750000000080BF00000000000000000000000000000000000080BF0000000000000000000000000200000040C000000080A4EEE14626BAE14626BAE14626BA650A4040E146263AE146263A00000000000040400200967508611D00
1004
0000FFFF0100F8C01E00D8BF1E0000000200F8C01E00D8BF1E0001000000010000009675000000000000000080BF000000000000000000000000000080BF00000000000000000000000002000000000000004040A4EEE14626BAE14626BA9BF53F40650A4040E146263A650A40400000C0BF0000C03F0200
1004
9675F8611D000000FFFF0100D8BF1E0050CB1E0000000200D8BF1E0050CB1E0001000000010000009675000000000000000000000000803F00000000000080BF000000000000C03F000000000000404002000000C0BF0000C03FA4EE9BF53F40E14626BAE14626BA650A4040E146263A650A40400000C0BF
1004
0000C03F02009675E8621D000000FFFF0100D8BF1E0090CD1E0000000200D8BF1E0090CD1E000100000001000000967500000000803F000000000000000000000000000080BF0000000000004040000000000000C03F02000000C0BF0000C03FA4EEE14626BAE14626BAE14626BAE146263AE146263A650A
1004
4040000000000000404002009675D8631D000000FFFF0100D8BF1E0028BE1E0000000200D8BF1E0028BE1E00010000000100000096750000000080BF000000000000000000000000000080BF0000000000000000000000000000000002000000000000004040A4EEE14626BAE14626BA9BF53F40E146263A
1004
650A4040650A40400000C0BF0000C03F02009675C8641D000000FFFF010028BE1E0050CB1E000000020028BE1E0050CB1E0001000000010000009675000000000000000000000000803F000080BF0000000000000000000000000000C03F0000404002000000C0BF0000C03FA4EEE14626BA9BF53F40E146
1004
26BAE146263A650A4040650A40400000C0BFFFFFFFBE02009675B8651D000000FFFF010028BE1E0070CC1E000000020028BE1E0070CC1E00010000000100000096750000000000000000803F00000000000080BF000000000000000000000000000040400000C03F02000000C0BFFFFFFFBEA4EEE14626BA
1004
9BF53F40E14626BAE146263A650A4040650A40400100003F0000C03F02009675A8661D000000FFFF010028BE1E0070CC1E000000020028BE1E0070CC1E00010000000100000096750000000000000000803F00000000000080BF000000000000000000000000000040400000C03F02000100003F0000C03F
1004
A4EEE14626BA9BF53F409BF53F40650A4040650A4040650A4040000040C0FFFFFFBF0200967598671D000000FFFF010050CB1E0070CC1E000000020050CB1E0070CC1E00010000000100000096750000000000000000803F0000000000000000000000000000803F00004040000040400000404002000000
1004
40C0FFFFFFBFA4EEE14626BA9BF53F409BF53F40650A4040650A4040650A4040FFFF7FBF000000800200967588681D000000FFFF010050CB1E0070CC1E000000020050CB1E0070CC1E00010000000100000096750000000000000000803F0000000000000000000000000000803F00004040000040400000
1004
40400200FFFF7FBF00000080A4EE9BF53F40E14626BA9BF53F40650A4040650A4040650A404000000000000040400200967578691D000000FFFF010050CB1E0090CD1E000000020050CB1E0090CD1E000100000001000000967500000000803F000000000000000000000080000000000000803F00004040
1004
000040400000404002000000000000004040A4EE9BF53F409BF53F40E14626BA650A4040650A4040650A4040000040C00000008002009675686A1D000000FFFF010070CC1E0090CD1E000000020070CC1E0090CD1E000100000001000000967500000000803F0000000000000000000000000000803F0000
1004
00000000404000004040000040400200000040C00000008019FC
1005
64
  0
INSERT
  8
AME_FRZ
  5
64
  2
AME_NIL
 10
1.0
 20
1.0
 30
1.0
1001
AME_SOL
1004

1005
0
  0
INSERT
  8
AME_FRZ
  5
F3
  2
*U5
 10
0.0
 20
0.0
 30
0.0
  0
INSERT
  8
AME_FRZ
  5
F6
  2
AME_MAT
 10
0.0
 20
0.0
 30
0.0
1001
AME_SOL
1000
MILD_STEEL
1040
7860.0
1040
220.0
1040
0.275
1040
207.0
1040
345.0
1040
56.0
1040
12.0
1040
0.46
  0
ENDSEC
  0
EOF
