600 0 1 0           
100 GICL ACIS Healer - Source: /gicl/data5/repository/ASME97/WISC/student2/cie_liu/demo1/demo1.sat - 6 0 18 ACIS 6.0.3 Solaris 24 Sat Apr 13 23:05:13 2002 
1 9.999999999999999547e-07 1.000000000000000036e-10 
body $-1 $1 $-1 $-1 #
lump $-1 $-1 $2 $0 #
shell $-1 $-1 $-1 $3 $-1 $1 #
face $-1 $4 $5 $2 $-1 $6 reversed single #
face $-1 $7 $8 $2 $-1 $9 reversed single #
loop $-1 $-1 $10 $3 #
plane-surface $-1 15.46718517561808426 -8.467185175618155313 -8 0.7071067811865512365 -0.707106781186543909 0 0 0 -1 forward_v I I I I #
face $-1 $11 $12 $2 $-1 $13 forward single #
loop $-1 $-1 $14 $4 #
plane-surface $-1 12.76120467488713572 -15.00000000000006573 -8 1 7.194858382172169348e-15 0 0 0 -1 forward_v I I I I #
coedge $-1 $15 $16 $17 $18 reversed $5 $-1 #
face $-1 $19 $20 $2 $-1 $21 reversed single #
loop $-1 $-1 $22 $7 #
plane-surface $-1 22 -15 -5.5 0 0 1 1 0 0 forward_v I I I I #
coedge $-1 $23 $24 $25 $26 reversed $8 $-1 #
coedge $-1 $27 $10 $24 $28 reversed $5 $-1 #
coedge $-1 $10 $27 $29 $30 forward $5 $-1 #
coedge $-1 $31 $25 $10 $18 forward $32 $-1 #
edge $-1 $33 -1.351960589498059306 $34 6.301708057803754315 $17 $35 forward 7 unknown #
face $-1 $36 $37 $2 $-1 $38 reversed single #
loop $-1 $-1 $39 $11 #
plane-surface $-1 15.46718517561818018 -21.53281482438193706 -8 0.7071067811865411334 0.707106781186554012 0 0 0 -1 forward_v I I I I #
coedge $-1 $40 $41 $42 $43 reversed $12 $-1 #
coedge $-1 $44 $14 $45 $46 reversed $8 $-1 #
coedge $-1 $14 $44 $15 $28 forward $8 $-1 #
coedge $-1 $17 $47 $14 $26 forward $32 $-1 #
edge $-1 $48 -11.32683432365098497 $33 -3.673165676349174014 $25 $49 forward 7 unknown #
coedge $-1 $16 $15 $50 $51 reversed $5 $-1 #
edge $-1 $52 -2.5 $33 2 $15 $53 forward 7 unknown #
coedge $-1 $54 $55 $16 $30 reversed $56 $-1 #
edge $-1 $57 -2.5 $34 2 $29 $58 forward 7 unknown #
coedge $-1 $59 $17 $55 $60 forward $32 $-1 #
loop $-1 $61 $31 $62 #
vertex $-1 $26 $63 #
vertex $-1 $18 $64 #
straight-curve $-1 13.71718517561814288 -10.21718517561811623 -10 0.707106781186543909 0.7071067811865512365 0 I I #
face $-1 $65 $56 $2 $-1 $66 reversed single #
loop $-1 $-1 $67 $19 #
plane-surface $-1 22.00000000000009948 -24.23879532511286783 -8 -1.067624147032000285e-14 1 0 0 0 1 forward_v I I I I #
coedge $-1 $68 $45 $47 $69 reversed $20 $-1 #
coedge $-1 $50 $22 $54 $70 forward $12 $-1 #
coedge $-1 $22 $71 $72 $73 forward $12 $-1 #
coedge $-1 $74 $75 $22 $43 forward $76 $-1 #
edge $-1 $77 -1.738795325112874934 $78 16.73879532511283585 $42 $79 forward 7 unknown #
coedge $-1 $24 $23 $80 $81 reversed $8 $-1 #
coedge $-1 $39 $82 $23 $46 forward $20 $-1 #
edge $-1 $83 -2.5 $48 2 $23 $84 forward 7 unknown #
coedge $-1 $25 $85 $39 $69 forward $32 $-1 #
vertex $-1 $69 $86 #
straight-curve $-1 12.76120467488708243 -7.499999999999986677 -10 -7.194858382172169348e-15 1 0 I I #
coedge $-1 $80 $40 $27 $51 forward $12 $-1 #
edge $-1 $57 -3.826834323650907255 $52 3.826834323650907255 $27 $87 forward 7 unknown #
vertex $-1 $51 $88 #
straight-curve $-1 12.7612046748871073 -11.17316567634916069 -8 0 0 -1 I I #
coedge $-1 $89 $29 $40 $70 reversed $56 $-1 #
coedge $-1 $29 $89 $31 $60 reversed $56 $-1 #
loop $-1 $-1 $55 $36 #
vertex $-1 $70 $90 #
straight-curve $-1 18.17316567634906121 -5.761204674887149935 -8 0 0 -1 I I #
coedge $-1 $91 $31 $92 $93 reversed $32 $-1 #
edge $-1 $34 7.173165676349066544 $94 14.00000000000000533 $31 $95 forward 7 unknown #
loop $-1 $-1 $96 $62 #
face $-1 $97 $32 $2 $-1 $98 forward single #
point $-1 12.7612046748871073 -11.17316567634916069 -10 #
point $-1 18.17316567634906121 -5.761204674887149935 -10 #
face $-1 $99 $76 $2 $-1 $100 forward single #
plane-surface $-1 21.99999999999996803 -5.761204674887135724 -8 3.481383088147823242e-15 -1 0 0 0 -1 forward_v I I I I #
coedge $-1 $72 $101 $74 $102 reversed $37 $-1 #
coedge $-1 $82 $39 $103 $104 reversed $20 $-1 #
edge $-1 $105 -16.90830977560205994 $48 -9.254641128300242769 $47 $106 forward 7 unknown #
edge $-1 $77 -3.000000000000031974 $57 3.826834323650906811 $54 $107 forward 7 unknown #
coedge $-1 $41 $80 $82 $108 forward $12 $-1 #
coedge $-1 $103 $67 $41 $73 reversed $37 $-1 #
edge $-1 $109 -3.826834323650903258 $78 2.999999999999900524 $72 $110 forward 7 unknown #
coedge $-1 $111 $42 $67 $102 forward $76 $-1 #
coedge $-1 $42 $92 $89 $112 forward $76 $-1 #
loop $-1 $-1 $75 $65 #
vertex $-1 $43 $113 #
vertex $-1 $43 $114 #
straight-curve $-1 25 -7.5 -5.5 0 -1 0 I I #
coedge $-1 $71 $50 $44 $81 forward $12 $-1 #
edge $-1 $52 -3.826834323650905034 $83 3.826834323650905034 $44 $115 forward 7 unknown #
coedge $-1 $45 $68 $71 $108 reversed $20 $-1 #
vertex $-1 $81 $116 #
straight-curve $-1 12.76120467488716237 -18.82683432365097076 -8 0 0 -1 I I #
coedge $-1 $47 $117 $101 $118 forward $32 $-1 #
point $-1 12.76120467488716237 -18.82683432365097076 -10 #
straight-curve $-1 15.46718517561808426 -8.467185175618155313 -5.5 -0.707106781186543798 -0.7071067811865511255 0 I I #
point $-1 12.7612046748871073 -11.17316567634916069 -5.5 #
coedge $-1 $55 $54 $75 $112 reversed $56 $-1 #
point $-1 18.17316567634906121 -5.761204674887149935 -5.5 #
coedge $-1 $119 $59 $120 $121 forward $32 $-1 #
coedge $-1 $75 $122 $59 $93 forward $76 $-1 #
edge $-1 $123 -15 $94 5.761204674887125066 $92 $124 forward 7 unknown #
vertex $-1 $93 $125 #
straight-curve $-1 10.99999999999999467 -5.761204674887173915 -10 1 3.481383088147823242e-15 0 I I #
coedge $-1 $96 $96 $126 $127 forward $61 $-1 #
face $-1 $128 $129 $2 $-1 $130 reversed single #
plane-surface $-1 0 0 -10 0 0 1 1 0 0 forward_v I I I I #
face $-1 $131 $132 $2 $-1 $133 forward single #
plane-surface $-1 25 0 10 -1 0 0 0 0 1 forward_v I I I I #
coedge $-1 $67 $103 $85 $118 reversed $37 $-1 #
edge $-1 $78 6.5 $134 11 $74 $135 forward 7 unknown #
coedge $-1 $101 $72 $68 $104 forward $37 $-1 #
edge $-1 $109 -2.5 $105 2 $68 $136 forward 7 unknown #
vertex $-1 $118 $137 #
straight-curve $-1 6.217185175618080706 -12.28281482438200634 -10 -0.707106781186554012 0.7071067811865411334 0 I I #
straight-curve $-1 21.99999999999996803 -5.761204674887135724 -5.5 -1 -3.481383088147823636e-15 0 I I #
edge $-1 $83 -3.826834323650907699 $109 3.826834323650909475 $82 $138 forward 7 unknown #
vertex $-1 $108 $139 #
straight-curve $-1 22.00000000000009948 -24.23879532511286783 -5.5 1 1.067624147032000285e-14 0 I I #
coedge $-1 $140 $74 $117 $141 forward $76 $-1 #
edge $-1 $94 -11 $77 -6.5 $75 $142 forward 7 unknown #
point $-1 25 -5.761204674887125066 -5.5 #
point $-1 25 -24.23879532511283585 -5.5 #
straight-curve $-1 12.76120467488713572 -15.00000000000006573 -5.5 7.194858382172169348e-15 -1 0 I I #
point $-1 12.76120467488716237 -18.82683432365097076 -5.5 #
coedge $-1 $85 $143 $111 $141 reversed $32 $-1 #
edge $-1 $134 -13.99999999999982059 $105 -7.173165676349016806 $85 $144 forward 7 unknown #
coedge $-1 $145 $91 $146 $147 reversed $32 $-1 #
coedge $-1 $148 $149 $91 $121 reversed $150 $-1 #
edge $-1 $123 -25 $151 25 $91 $152 forward 7 unknown #
coedge $-1 $92 $153 $148 $154 forward $76 $-1 #
vertex $-1 $154 $155 #
straight-curve $-1 25 0 -10 0 -1 0 I I #
point $-1 25 -5.761204674887125066 -10 #
coedge $-1 $126 $126 $96 $127 reversed $156 $-1 #
edge $-1 $157 0 $157 6.283185307179586232 $96 $158 forward 7 unknown #
face $-1 $159 $160 $2 $-1 $161 forward single #
loop $-1 $-1 $162 $97 #
plane-surface $-1 0 30 0 0 -1 0 0 0 -1 forward_v I I I I #
face $-1 $163 $164 $2 $-1 $165 forward single #
loop $-1 $166 $167 $99 #
plane-surface $-1 0 0 45 0 0 -1 -1 0 0 forward_v I I I I #
vertex $-1 $118 $168 #
straight-curve $-1 25 -24.23879532511283585 1 0 0 -1 I I #
straight-curve $-1 18.17316567634919622 -24.23879532511290691 -8 0 0 -1 I I #
point $-1 18.17316567634919622 -24.23879532511290691 -10 #
straight-curve $-1 15.46718517561818018 -21.53281482438193706 -5.5 0.707106781186554012 -0.7071067811865411334 0 I I #
point $-1 18.17316567634919622 -24.23879532511290691 -5.5 #
coedge $-1 $169 $111 $170 $171 reversed $76 $-1 #
edge $-1 $134 24.23879532511283585 $172 30 $111 $124 forward 7 unknown #
straight-curve $-1 25 -5.761204674887125066 1 0 0 1 I I #
coedge $-1 $117 $173 $174 $175 reversed $32 $-1 #
straight-curve $-1 11.00000000000017941 -24.23879532511298507 -10 -1 -1.067624147032000285e-14 0 I I #
coedge $-1 $176 $119 $177 $178 forward $32 $-1 #
coedge $-1 $179 $180 $119 $147 forward $181 $-1 #
edge $-1 $182 2.500000000000017764 $151 15 $146 $183 forward 7 unknown #
coedge $-1 $184 $120 $122 $154 reversed $150 $-1 #
coedge $-1 $120 $184 $179 $185 reversed $150 $-1 #
loop $-1 $-1 $149 $186 #
vertex $-1 $147 $187 #
straight-curve $-1 0 15 -10 -1 0 0 I I #
coedge $-1 $122 $188 $189 $190 forward $76 $-1 #
edge $-1 $191 -10 $123 15 $122 $192 forward 7 unknown #
point $-1 25 15 -10 #
loop $-1 $-1 $126 $193 #
vertex $-1 $127 $194 #
ellipse-curve $-1 0 0 -10 0 0 -1 5 0 0 1 I I #
face $-1 $195 $196 $2 $-1 $161 forward single #
loop $-1 $-1 $197 $128 #
plane-surface $-1 0 0 20 0 0 1 1 0 0 forward_v I I I I #
coedge $-1 $198 $199 $200 $201 forward $129 $-1 #
face $-1 $193 $202 $2 $-1 $203 forward single #
loop $-1 $204 $205 $131 #
cone-surface $-1 0 0 50 0 0 1 10 0 0 1 I I 0 1 10 forward I I I I #
loop $-1 $-1 $206 $99 #
coedge $-1 $167 $167 $205 $207 forward $132 $-1 #
point $-1 25 -24.23879532511283585 -10 #
coedge $-1 $208 $140 $197 $209 reversed $76 $-1 #
coedge $-1 $174 $210 $140 $171 forward $211 $-1 #
edge $-1 $212 -15 $172 15 $170 $213 forward 7 unknown #
vertex $-1 $175 $214 #
coedge $-1 $143 $215 $216 $217 reversed $32 $-1 #
coedge $-1 $218 $170 $143 $175 forward $211 $-1 #
edge $-1 $172 -25 $219 25 $174 $220 forward 7 unknown #
coedge $-1 $215 $145 $221 $222 forward $32 $-1 #
coedge $-1 $223 $224 $145 $178 reversed $225 $-1 #
edge $-1 $182 -15 $226 -1.339745962155618031 $145 $227 forward 7 unknown #
coedge $-1 $228 $146 $149 $185 forward $181 $-1 #
coedge $-1 $146 $229 $223 $230 forward $181 $-1 #
loop $-1 $-1 $231 $232 #
vertex $-1 $178 $233 #
straight-curve $-1 -25 0 -10 0 1 0 I I #
coedge $-1 $149 $148 $234 $235 reversed $150 $-1 #
edge $-1 $151 -15 $236 10 $179 $237 forward 7 unknown #
face $-1 $238 $150 $2 $-1 $239 reversed single #
point $-1 -25 15 -10 #
coedge $-1 $153 $240 $241 $242 forward $76 $-1 #
coedge $-1 $243 $234 $153 $190 reversed $244 $-1 #
edge $-1 $245 -15 $191 -5 $153 $246 forward 7 unknown #
vertex $-1 $190 $247 #
straight-curve $-1 25 15 5 0 0 -1 I I #
face $-1 $248 $249 $2 $-1 $250 forward single #
point $-1 5 0 -10 #
face $-1 $251 $252 $2 $-1 $253 reversed single #
loop $-1 $-1 $254 $159 #
coedge $-1 $255 $256 $169 $209 forward $160 $-1 #
coedge $-1 $257 $162 $258 $259 forward $129 $-1 #
coedge $-1 $162 $260 $261 $262 reversed $129 $-1 #
coedge $-1 $263 $264 $162 $201 reversed $181 $-1 #
edge $-1 $265 -15 $266 15 $162 $267 forward 7 unknown #
loop $-1 $-1 $268 $163 #
plane-surface $-1 0 0 55 0 0 1 1 0 0 forward_v I I I I #
loop $-1 $-1 $269 $131 #
coedge $-1 $205 $205 $167 $207 reversed $164 $-1 #
coedge $-1 $206 $206 $270 $271 reversed $166 $-1 #
edge $-1 $272 0 $272 6.283185307179586232 $167 $273 forward 7 unknown #
coedge $-1 $240 $169 $257 $274 reversed $76 $-1 #
edge $-1 $275 -30 $212 30 $197 $276 forward 7 unknown #
coedge $-1 $170 $277 $255 $278 reversed $211 $-1 #
loop $-1 $-1 $218 $251 #
vertex $-1 $209 $279 #
straight-curve $-1 25 -30 5 0 0 -1 I I #
point $-1 25 -30 -10 #
coedge $-1 $173 $176 $280 $281 forward $32 $-1 #
coedge $-1 $231 $282 $173 $217 forward $181 $-1 #
edge $-1 $219 -30 $283 -2.499999999999982236 $216 $183 forward 7 unknown #
coedge $-1 $284 $174 $282 $285 forward $211 $-1 #
vertex $-1 $175 $286 #
straight-curve $-1 0 -30 -10 -1 0 0 I I #
coedge $-1 $287 $288 $176 $222 reversed $289 $-1 #
edge $-1 $226 -2.5 $290 2.5 $176 $291 forward 7 unknown #
coedge $-1 $224 $177 $180 $230 reversed $225 $-1 #
coedge $-1 $177 $223 $287 $292 forward $225 $-1 #
loop $-1 $-1 $223 $293 #
vertex $-1 $222 $294 #
straight-curve $-1 -10 2.500000000000017764 -10 1 0 0 I I #
coedge $-1 $295 $179 $296 $297 forward $181 $-1 #
coedge $-1 $180 $231 $298 $299 forward $181 $-1 #
edge $-1 $300 -1.160254037844387298 $182 12.50000000000000888 $180 $301 forward 7 unknown #
coedge $-1 $229 $216 $302 $303 forward $181 $-1 #
face $-1 $186 $181 $2 $-1 $304 forward single #
point $-1 -25 2.500000000000017764 -10 #
coedge $-1 $189 $296 $184 $235 forward $244 $-1 #
edge $-1 $236 -25 $191 25 $184 $305 forward 7 unknown #
vertex $-1 $297 $306 #
straight-curve $-1 -25 15 5 0 0 1 I I #
face $-1 $307 $244 $2 $-1 $308 forward single #
plane-surface $-1 0 15 0 0 1 0 0 0 1 forward_v I I I I #
coedge $-1 $188 $208 $309 $310 forward $76 $-1 #
coedge $-1 $311 $312 $188 $242 reversed $313 $-1 #
edge $-1 $314 -15 $245 10 $188 $315 forward 7 unknown #
coedge $-1 $296 $189 $312 $316 forward $244 $-1 #
loop $-1 $-1 $296 $238 #
vertex $-1 $190 $317 #
straight-curve $-1 25 10 15 0 -1 0 I I #
point $-1 25 15 15 #
face $-1 $318 $319 $2 $-1 $320 forward single #
loop $-1 $156 $270 $193 #
cone-surface $-1 0 0 20 0 0 1 5 0 0 1 I I 0 1 5 forward I I I I #
face $-1 $321 $211 $2 $-1 $322 reversed single #
loop $-1 $-1 $323 $195 #
plane-surface $-1 0 0 -20 0 0 1 1 0 0 forward_v I I I I #
coedge $-1 $261 $324 $263 $325 forward $196 $-1 #
coedge $-1 $326 $197 $210 $278 forward $160 $-1 #
coedge $-1 $197 $326 $327 $328 forward $160 $-1 #
coedge $-1 $327 $198 $208 $274 forward $129 $-1 #
coedge $-1 $329 $309 $198 $259 reversed $330 $-1 #
edge $-1 $266 -25 $331 25 $198 $332 forward 7 unknown #
coedge $-1 $199 $333 $334 $335 reversed $129 $-1 #
coedge $-1 $336 $254 $199 $262 forward $196 $-1 #
edge $-1 $265 25 $337 30 $199 $338 forward 7 unknown #
coedge $-1 $282 $200 $254 $325 reversed $181 $-1 #
coedge $-1 $200 $295 $329 $339 forward $181 $-1 #
vertex $-1 $201 $340 #
vertex $-1 $259 $341 #
straight-curve $-1 -25 30 5 0 0 -1 I I #
coedge $-1 $268 $268 $269 $342 forward $202 $-1 #
coedge $-1 $269 $269 $268 $342 reversed $204 $-1 #
coedge $-1 $270 $270 $206 $271 forward $249 $-1 #
edge $-1 $343 -3.141592653589800221 $343 3.141592653589786011 $270 $344 forward 7 unknown #
vertex $-1 $207 $345 #
ellipse-curve $-1 0 0 45 0 0 -1 10 0 0 1 I I #
edge $-1 $331 -15 $275 15 $257 $346 forward 7 unknown #
vertex $-1 $328 $347 #
straight-curve $-1 25 0 20 0 -1 0 I I #
coedge $-1 $210 $348 $349 $350 forward $211 $-1 #
edge $-1 $212 25 $351 30 $210 $352 forward 7 unknown #
point $-1 25 -30 20 #
coedge $-1 $353 $302 $215 $281 reversed $319 $-1 #
edge $-1 $290 1.339745962155609149 $283 15 $215 $354 forward 7 unknown #
coedge $-1 $216 $263 $218 $285 reversed $181 $-1 #
vertex $-1 $217 $355 #
coedge $-1 $356 $218 $324 $357 reversed $211 $-1 #
edge $-1 $219 -15 $358 15 $218 $359 forward 7 unknown #
point $-1 -25 -30 -10 #
coedge $-1 $298 $221 $224 $292 reversed $289 $-1 #
coedge $-1 $221 $298 $353 $360 reversed $289 $-1 #
loop $-1 $-1 $298 $318 #
vertex $-1 $222 $361 #
straight-curve $-1 -11.3397459621556127 1.776356839400250465e-14 -10 0 -1 -3.552713678800500929e-15 I I #
edge $-1 $300 -2.094395102393195707 $226 0.5235987755982998149 $224 $362 forward 7 unknown #
face $-1 $232 $225 $2 $-1 $363 forward single #
point $-1 -11.33974596215561803 2.500000000000017764 -10 #
coedge $-1 $264 $228 $364 $365 forward $181 $-1 #
coedge $-1 $234 $243 $228 $297 reversed $244 $-1 #
edge $-1 $236 5 $366 15 $228 $367 forward 7 unknown #
coedge $-1 $288 $287 $229 $299 reversed $289 $-1 #
edge $-1 $368 -2.5 $300 2.5 $229 $369 forward 7 unknown #
vertex $-1 $299 $370 #
straight-curve $-1 -25 2.499999999999973355 2.500000000000008882 0 3.552713678800500929e-15 -1 I I #
coedge $-1 $280 $353 $231 $303 reversed $319 $-1 #
edge $-1 $283 -12.49999999999999112 $368 1.160254037844387298 $231 $371 forward 7 unknown #
plane-surface $-1 -25 0 10 1 0 0 0 0 -1 forward_v I I I I #
straight-curve $-1 0 15 15 1 0 0 I I #
point $-1 -25 15 15 #
face $-1 $372 $313 $2 $-1 $373 reversed single #
plane-surface $-1 0 20 15 0 0 1 1 0 0 forward_v I I I I #
coedge $-1 $258 $374 $240 $310 reversed $330 $-1 #
edge $-1 $331 -30 $314 -25 $240 $124 forward 7 unknown #
coedge $-1 $364 $241 $374 $375 reversed $313 $-1 #
coedge $-1 $241 $364 $243 $316 reversed $313 $-1 #
loop $-1 $-1 $364 $307 #
vertex $-1 $310 $376 #
straight-curve $-1 25 25 5 0 0 1 I I #
edge $-1 $245 -25 $366 25 $312 $377 forward 7 unknown #
point $-1 25 25 15 #
face $-1 $293 $289 $2 $-1 $378 forward single #
loop $-1 $-1 $302 $248 #
plane-surface $-1 -20 -2.5 -5.000000000000008882 0 -1 -3.552713678800500929e-15 1 0 0 forward_v I I I I #
face $-1 $379 $380 $2 $-1 $381 reversed single #
plane-surface $-1 0 -30 0 0 1 0 0 0 1 forward_v I I I I #
coedge $-1 $382 $383 $384 $385 forward $252 $-1 #
coedge $-1 $254 $336 $284 $357 forward $196 $-1 #
edge $-1 $358 -30 $265 30 $254 $386 forward 7 unknown #
coedge $-1 $256 $255 $387 $388 forward $160 $-1 #
coedge $-1 $389 $257 $256 $328 reversed $129 $-1 #
edge $-1 $390 -30 $275 -25 $327 $338 forward 7 unknown #
coedge $-1 $374 $258 $264 $339 reversed $330 $-1 #
loop $-1 $-1 $374 $372 #
vertex $-1 $259 $391 #
straight-curve $-1 0 30 -10 1 0 0 I I #
coedge $-1 $260 $389 $383 $392 reversed $129 $-1 #
coedge $-1 $393 $394 $260 $335 forward $380 $-1 #
edge $-1 $337 -20 $395 20 $260 $396 forward 7 unknown #
coedge $-1 $324 $261 $394 $397 forward $196 $-1 #
vertex $-1 $262 $398 #
straight-curve $-1 0 30 20 -1 0 0 I I #
edge $-1 $399 25 $266 30 $264 $183 forward 7 unknown #
point $-1 -25 30 20 #
point $-1 -25 30 -10 #
edge $-1 $400 0 $400 6.283185307179586232 $268 $401 forward 7 unknown #
vertex $-1 $271 $402 #
ellipse-curve $-1 0 0 45 0 0 -1 5 0 0 1 I I #
point $-1 10 0 45 #
straight-curve $-1 25 30 5 0 0 1 I I #
point $-1 25 30 20 #
coedge $-1 $277 $356 $382 $403 reversed $211 $-1 #
coedge $-1 $384 $387 $277 $350 reversed $404 $-1 #
edge $-1 $405 -20 $351 20 $349 $406 reversed 7 unknown #
vertex $-1 $388 $407 #
straight-curve $-1 0 -30 20 1 0 0 I I #
coedge $-1 $302 $280 $288 $360 forward $319 $-1 #
straight-curve $-1 -10 -2.499999999999982236 -10 -1 0 0 I I #
point $-1 -25 -2.499999999999982236 -10 #
coedge $-1 $348 $284 $408 $409 forward $211 $-1 #
edge $-1 $410 -30 $358 -25 $284 $352 forward 7 unknown #
vertex $-1 $357 $411 #
straight-curve $-1 -25 -30 5 0 0 1 I I #
edge $-1 $290 -0.5235987755982979275 $368 2.094395102393195707 $353 $412 forward 7 unknown #
point $-1 -11.33974596215560915 -2.499999999999982236 -10 #
ellipse-curve $-1 -20 2.5 -4.999999999999991118 0 1 3.552713678800500929e-15 10 0 0 1 I I #
plane-surface $-1 -20 2.5 -4.999999999999991118 0 1 3.552713678800500929e-15 -1 0 0 forward_v I I I I #
coedge $-1 $312 $311 $295 $365 reversed $313 $-1 #
edge $-1 $366 -10 $399 15 $295 $413 forward 7 unknown #
vertex $-1 $297 $414 #
straight-curve $-1 -25 10 15 0 1 0 I I #
vertex $-1 $299 $415 #
straight-curve $-1 -25 -3.07674029821370258e-14 3.660254037844387298 0 1 3.552713678800500929e-15 I I #
point $-1 -25 2.499999999999969358 3.66025403784439618 #
straight-curve $-1 -25 -2.500000000000026645 2.499999999999991118 0 -3.552713678800500929e-15 1 I I #
face $-1 $62 $330 $2 $-1 $98 forward single #
plane-surface $-1 0 25 0 0 -1 0 0 0 -1 forward_v I I I I #
coedge $-1 $309 $329 $311 $375 forward $330 $-1 #
edge $-1 $399 -25 $314 25 $374 $416 forward 7 unknown #
point $-1 25 25 -10 #
straight-curve $-1 0 25 15 -1 0 0 I I #
cone-surface $-1 -20 0 -5 0 -1 -3.552713678800500929e-15 10 0 0 1 I I 0 1 10 forward I I I I #
face $-1 $-1 $404 $2 $-1 $417 reversed single #
loop $-1 $-1 $334 $321 #
plane-surface $-1 -30 0 0 1 0 0 0 0 -1 forward_v I I I I #
coedge $-1 $418 $323 $348 $403 forward $252 $-1 #
coedge $-1 $323 $418 $333 $392 forward $252 $-1 #
coedge $-1 $419 $349 $323 $385 reversed $404 $-1 #
edge $-1 $420 -30 $405 30 $384 $421 forward 7 unknown #
straight-curve $-1 -25 0 20 0 1 0 I I #
coedge $-1 $349 $419 $326 $388 reversed $404 $-1 #
edge $-1 $351 -30 $390 30 $387 $422 forward 7 unknown #
coedge $-1 $333 $327 $419 $423 forward $129 $-1 #
vertex $-1 $388 $424 #
point $-1 25 30 -10 #
edge $-1 $395 -30 $420 30 $333 $425 forward 7 unknown #
coedge $-1 $408 $334 $418 $426 reversed $380 $-1 #
coedge $-1 $334 $408 $336 $397 reversed $380 $-1 #
vertex $-1 $392 $427 #
straight-curve $-1 -30 30 0 0 0 -1 I I #
edge $-1 $337 -30 $410 30 $394 $428 forward 7 unknown #
point $-1 -30 30 20 #
vertex $-1 $375 $429 #
vertex $-1 $342 $430 #
ellipse-curve $-1 0 0 55 0 0 1 10 0 0 1 I I #
point $-1 -5 -3.552713678800500929e-14 45 #
edge $-1 $405 -30 $431 30 $348 $432 forward 7 unknown #
loop $-1 $-1 $349 $379 #
vertex $-1 $350 $433 #
straight-curve $-1 30 -30 0 0 0 -1 I I #
point $-1 30 -30 20 #
coedge $-1 $394 $393 $356 $409 reversed $380 $-1 #
edge $-1 $410 -20 $431 20 $408 $434 forward 7 unknown #
vertex $-1 $397 $435 #
point $-1 -25 -30 20 #
ellipse-curve $-1 -20 -2.5 -5.000000000000008882 0 -1 -3.552713678800500929e-15 10 0 0 1 I I #
straight-curve $-1 -25 25 5 0 0 -1 I I #
point $-1 -25 25 15 #
point $-1 -25 -2.500000000000030642 3.660254037844378416 #
straight-curve $-1 0 25 -10 1 0 0 I I #
plane-surface $-1 30 0 0 -1 0 0 0 0 1 forward_v I I I I #
coedge $-1 $383 $382 $393 $426 forward $252 $-1 #
coedge $-1 $387 $384 $389 $423 reversed $404 $-1 #
vertex $-1 $385 $436 #
straight-curve $-1 30 0 -20 0 -1 0 I I #
straight-curve $-1 30 0 20 0 1 0 I I #
edge $-1 $390 -20 $420 20 $419 $437 forward 7 unknown #
point $-1 30 30 20 #
straight-curve $-1 0 30 -20 1 0 0 I I #
edge $-1 $431 -30 $395 30 $393 $438 forward 7 unknown #
point $-1 -30 30 -20 #
straight-curve $-1 -30 0 20 0 -1 0 I I #
point $-1 -25 25 -10 #
point $-1 10 0 55 #
vertex $-1 $426 $439 #
straight-curve $-1 0 -30 -20 -1 0 0 I I #
point $-1 30 -30 -20 #
straight-curve $-1 -30 -30 0 0 0 -1 I I #
point $-1 -30 -30 20 #
point $-1 30 30 -20 #
straight-curve $-1 30 30 0 0 0 -1 I I #
straight-curve $-1 -30 0 -20 0 1 0 I I #
point $-1 -30 -30 -20 #
End-of-ACIS-data 