106 0 1 0           
body $-1 $1 $-1 $-1 #
lump $-1 $-1 $2 $0 #
shell $-1 $-1 $-1 $3 $1 #
face $-1 $4 $5 $2 $-1 $6 reversed single #
face $-1 $7 $8 $2 $-1 $9 reversed single #
loop $-1 $-1 $10 $3 #
plane-surface $-1 15.467185175618084 -8.4671851756181553 -8 0.70710678118655124 -0.70710678118654391 0 0 0 -1 0 I I I I #
face $-1 $11 $12 $2 $-1 $13 forward single #
loop $-1 $-1 $14 $4 #
plane-surface $-1 12.761204674887136 -15.000000000000066 -8 1 7.1948583821721693e-15 0 0 0 -1 0 I I I I #
coedge $-1 $15 $16 $17 $18 1 $5 $-1 #
face $-1 $19 $20 $2 $-1 $21 reversed single #
loop $-1 $-1 $22 $7 #
plane-surface $-1 22 -15 -5.5 0 0 1 1 0 0 0 I I I I #
coedge $-1 $23 $24 $25 $26 1 $8 $-1 #
coedge $-1 $27 $10 $24 $28 1 $5 $-1 #
coedge $-1 $10 $27 $29 $30 0 $5 $-1 #
coedge $-1 $31 $25 $10 $18 0 $32 $-1 #
edge $-1 $33 $34 $17 $35 0 #
face $-1 $36 $37 $2 $-1 $38 reversed single #
loop $-1 $-1 $39 $11 #
plane-surface $-1 15.46718517561818 -21.532814824381937 -8 0.70710678118654102 0.7071067811865539 0 0 0 -1 0 I I I I #
coedge $-1 $40 $41 $42 $43 1 $12 $-1 #
coedge $-1 $44 $14 $45 $46 1 $8 $-1 #
coedge $-1 $14 $44 $15 $28 0 $8 $-1 #
coedge $-1 $17 $47 $14 $26 0 $32 $-1 #
edge $-1 $48 $33 $25 $49 0 #
coedge $-1 $16 $15 $50 $51 1 $5 $-1 #
edge $-1 $52 $33 $15 $53 0 #
coedge $-1 $54 $55 $16 $30 1 $56 $-1 #
edge $-1 $57 $34 $29 $58 0 #
coedge $-1 $59 $17 $55 $60 0 $32 $-1 #
loop $-1 $61 $31 $62 #
vertex $-1 $26 $63 #
vertex $-1 $18 $64 #
straight-curve $-1 13.717185175618143 -10.217185175618116 -10 0.70710678118654391 0.70710678118655124 0 I I #
face $-1 $65 $56 $2 $-1 $66 reversed single #
loop $-1 $-1 $67 $19 #
plane-surface $-1 22.000000000000099 -24.238795325112868 -8 -1.0676241470320003e-14 1 0 0 0 1 0 I I I I #
coedge $-1 $68 $45 $47 $69 1 $20 $-1 #
coedge $-1 $50 $22 $54 $70 0 $12 $-1 #
coedge $-1 $22 $71 $72 $73 0 $12 $-1 #
coedge $-1 $74 $75 $22 $43 0 $76 $-1 #
edge $-1 $77 $78 $42 $79 0 #
coedge $-1 $24 $23 $80 $81 1 $8 $-1 #
coedge $-1 $39 $82 $23 $46 0 $20 $-1 #
edge $-1 $83 $48 $23 $84 0 #
coedge $-1 $25 $85 $39 $69 0 $32 $-1 #
vertex $-1 $69 $86 #
straight-curve $-1 12.761204674887082 -7.4999999999999867 -10 -7.1948583821721693e-15 1 0 I I #
coedge $-1 $80 $40 $27 $51 0 $12 $-1 #
edge $-1 $57 $52 $27 $87 0 #
vertex $-1 $51 $88 #
straight-curve $-1 12.761204674887107 -11.173165676349161 -8 0 0 -1 I I #
coedge $-1 $89 $29 $40 $70 1 $56 $-1 #
coedge $-1 $29 $89 $31 $60 1 $56 $-1 #
loop $-1 $-1 $55 $36 #
vertex $-1 $70 $90 #
straight-curve $-1 18.173165676349061 -5.7612046748871499 -8 0 0 -1 I I #
coedge $-1 $91 $31 $92 $93 1 $32 $-1 #
edge $-1 $34 $94 $31 $95 0 #
loop $-1 $-1 $96 $62 #
face $-1 $97 $32 $2 $-1 $98 forward single #
point $-1 12.761204674887107 -11.173165676349161 -10 #
point $-1 18.173165676349061 -5.7612046748871499 -10 #
face $-1 $99 $76 $2 $-1 $100 forward single #
plane-surface $-1 21.999999999999968 -5.7612046748871357 -8 3.4813830881478232e-15 -1 0 0 0 -1 0 I I I I #
coedge $-1 $72 $101 $74 $102 1 $37 $-1 #
coedge $-1 $82 $39 $103 $104 1 $20 $-1 #
edge $-1 $105 $48 $47 $106 0 #
edge $-1 $77 $57 $54 $107 0 #
coedge $-1 $41 $80 $82 $108 0 $12 $-1 #
coedge $-1 $103 $67 $41 $73 1 $37 $-1 #
edge $-1 $109 $78 $72 $110 0 #
coedge $-1 $111 $42 $67 $102 0 $76 $-1 #
coedge $-1 $42 $92 $89 $112 0 $76 $-1 #
loop $-1 $-1 $75 $65 #
vertex $-1 $43 $113 #
vertex $-1 $43 $114 #
straight-curve $-1 25 -7.5 -5.5 0 -1 0 I I #
coedge $-1 $71 $50 $44 $81 0 $12 $-1 #
edge $-1 $52 $83 $44 $115 0 #
coedge $-1 $45 $68 $71 $108 1 $20 $-1 #
vertex $-1 $81 $116 #
straight-curve $-1 12.761204674887162 -18.826834323650971 -8 0 0 -1 I I #
coedge $-1 $47 $117 $101 $118 0 $32 $-1 #
point $-1 12.761204674887162 -18.826834323650971 -10 #
straight-curve $-1 15.467185175618084 -8.4671851756181553 -5.5 -0.7071067811865438 -0.70710678118655113 0 I I #
point $-1 12.761204674887107 -11.173165676349161 -5.5 #
coedge $-1 $55 $54 $75 $112 1 $56 $-1 #
point $-1 18.173165676349061 -5.7612046748871499 -5.5 #
coedge $-1 $119 $59 $120 $121 0 $32 $-1 #
coedge $-1 $75 $122 $59 $93 0 $76 $-1 #
edge $-1 $123 $94 $92 $124 0 #
vertex $-1 $93 $125 #
straight-curve $-1 10.999999999999995 -5.7612046748871739 -10 1 3.4813830881478232e-15 0 I I #
coedge $-1 $96 $96 $126 $127 0 $61 $-1 #
face $-1 $128 $129 $2 $-1 $130 reversed single #
plane-surface $-1 0 0 -10 0 0 1 1 0 0 0 I I I I #
face $-1 $131 $132 $2 $-1 $133 forward single #
plane-surface $-1 25 0 10 -1 0 0 0 0 1 0 I I I I #
coedge $-1 $67 $103 $85 $118 1 $37 $-1 #
edge $-1 $78 $134 $74 $135 0 #
coedge $-1 $101 $72 $68 $104 0 $37 $-1 #
edge $-1 $109 $105 $68 $136 0 #
vertex $-1 $118 $137 #
straight-curve $-1 6.2171851756180807 -12.282814824382006 -10 -0.70710678118655401 0.70710678118654113 0 I I #
straight-curve $-1 21.999999999999968 -5.7612046748871357 -5.5 -1 -3.4813830881478236e-15 0 I I #
edge $-1 $83 $109 $82 $138 0 #
vertex $-1 $108 $139 #
straight-curve $-1 22.000000000000099 -24.238795325112868 -5.5 1 1.0676241470320003e-14 0 I I #
coedge $-1 $140 $74 $117 $141 0 $76 $-1 #
edge $-1 $94 $77 $75 $142 0 #
point $-1 25 -5.7612046748871251 -5.5 #
point $-1 25 -24.238795325112836 -5.5 #
straight-curve $-1 12.761204674887136 -15.000000000000066 -5.5 7.1948583821721693e-15 -1 0 I I #
point $-1 12.761204674887162 -18.826834323650971 -5.5 #
coedge $-1 $85 $143 $111 $141 1 $32 $-1 #
edge $-1 $134 $105 $85 $144 0 #
coedge $-1 $145 $91 $146 $147 1 $32 $-1 #
coedge $-1 $148 $149 $91 $121 1 $150 $-1 #
edge $-1 $123 $151 $91 $152 0 #
coedge $-1 $92 $153 $148 $154 0 $76 $-1 #
vertex $-1 $154 $155 #
straight-curve $-1 25 0 -10 0 -1 0 I I #
point $-1 25 -5.7612046748871251 -10 #
coedge $-1 $126 $126 $96 $127 1 $156 $-1 #
edge $-1 $157 $157 $96 $158 0 #
face $-1 $159 $160 $2 $-1 $161 forward single #
loop $-1 $-1 $162 $97 #
plane-surface $-1 0 30 0 0 -1 0 0 0 -1 0 I I I I #
face $-1 $163 $164 $2 $-1 $165 forward single #
loop $-1 $166 $167 $99 #
plane-surface $-1 0 0 45 0 0 -1 -1 0 0 0 I I I I #
vertex $-1 $118 $168 #
straight-curve $-1 25 -24.238795325112836 1 0 0 -1 I I #
straight-curve $-1 18.173165676349196 -24.238795325112907 -8 0 0 -1 I I #
point $-1 18.173165676349196 -24.238795325112907 -10 #
straight-curve $-1 15.46718517561818 -21.532814824381937 -5.5 0.70710678118655401 -0.70710678118654113 0 I I #
point $-1 18.173165676349196 -24.238795325112907 -5.5 #
coedge $-1 $169 $111 $170 $171 1 $76 $-1 #
edge $-1 $134 $172 $111 $124 0 #
straight-curve $-1 25 -5.7612046748871251 1 0 0 1 I I #
coedge $-1 $117 $173 $174 $175 1 $32 $-1 #
straight-curve $-1 11.000000000000179 -24.238795325112985 -10 -1 -1.0676241470320003e-14 0 I I #
coedge $-1 $176 $119 $177 $178 0 $32 $-1 #
coedge $-1 $179 $180 $119 $147 0 $181 $-1 #
edge $-1 $182 $151 $146 $183 0 #
coedge $-1 $184 $120 $122 $154 1 $150 $-1 #
coedge $-1 $120 $184 $179 $185 1 $150 $-1 #
loop $-1 $-1 $149 $186 #
vertex $-1 $147 $187 #
straight-curve $-1 0 15 -10 -1 0 0 I I #
coedge $-1 $122 $188 $189 $190 0 $76 $-1 #
edge $-1 $191 $123 $122 $192 0 #
point $-1 25 15 -10 #
loop $-1 $-1 $126 $193 #
vertex $-1 $127 $194 #
ellipse-curve $-1 0 0 -10 0 0 -1 5 0 0 1 I I #
face $-1 $195 $196 $2 $-1 $161 forward single #
loop $-1 $-1 $197 $128 #
plane-surface $-1 0 0 20 0 0 1 1 0 0 0 I I I I #
coedge $-1 $198 $199 $200 $201 0 $129 $-1 #
face $-1 $193 $202 $2 $-1 $203 forward single #
loop $-1 $204 $205 $131 #
cone-surface $-1 0 0 50 0 0 1 10 0 0 1 I I 0 1 0 I I I I #
loop $-1 $-1 $206 $99 #
coedge $-1 $167 $167 $205 $207 0 $132 $-1 #
point $-1 25 -24.238795325112836 -10 #
coedge $-1 $208 $140 $197 $209 1 $76 $-1 #
coedge $-1 $174 $210 $140 $171 0 $211 $-1 #
edge $-1 $212 $172 $170 $213 0 #
vertex $-1 $175 $214 #
coedge $-1 $143 $215 $216 $217 1 $32 $-1 #
coedge $-1 $218 $170 $143 $175 0 $211 $-1 #
edge $-1 $172 $219 $174 $220 0 #
coedge $-1 $215 $145 $221 $222 0 $32 $-1 #
coedge $-1 $223 $224 $145 $178 1 $225 $-1 #
edge $-1 $182 $226 $145 $227 0 #
coedge $-1 $228 $146 $149 $185 0 $181 $-1 #
coedge $-1 $146 $229 $223 $230 0 $181 $-1 #
loop $-1 $-1 $231 $232 #
vertex $-1 $178 $233 #
straight-curve $-1 -25 0 -10 0 1 0 I I #
coedge $-1 $149 $148 $234 $235 1 $150 $-1 #
edge $-1 $151 $236 $179 $237 0 #
face $-1 $238 $150 $2 $-1 $239 reversed single #
point $-1 -25 15 -10 #
coedge $-1 $153 $240 $241 $242 0 $76 $-1 #
coedge $-1 $243 $234 $153 $190 1 $244 $-1 #
edge $-1 $245 $191 $153 $246 0 #
vertex $-1 $190 $247 #
straight-curve $-1 25 15 5 0 0 -1 I I #
face $-1 $248 $249 $2 $-1 $250 forward single #
point $-1 5 0 -10 #
face $-1 $251 $252 $2 $-1 $253 reversed single #
loop $-1 $-1 $254 $159 #
coedge $-1 $255 $256 $169 $209 0 $160 $-1 #
coedge $-1 $257 $162 $258 $259 0 $129 $-1 #
coedge $-1 $162 $260 $261 $262 1 $129 $-1 #
coedge $-1 $263 $264 $162 $201 1 $181 $-1 #
edge $-1 $265 $266 $162 $267 0 #
loop $-1 $-1 $268 $163 #
plane-surface $-1 0 0 55 0 0 1 1 0 0 0 I I I I #
loop $-1 $-1 $269 $131 #
coedge $-1 $205 $205 $167 $207 1 $164 $-1 #
coedge $-1 $206 $206 $270 $271 1 $166 $-1 #
edge $-1 $272 $272 $167 $273 0 #
coedge $-1 $240 $169 $257 $274 1 $76 $-1 #
edge $-1 $275 $212 $197 $276 0 #
coedge $-1 $170 $277 $255 $278 1 $211 $-1 #
loop $-1 $-1 $218 $251 #
vertex $-1 $209 $279 #
straight-curve $-1 25 -30 5 0 0 -1 I I #
point $-1 25 -30 -10 #
coedge $-1 $173 $176 $280 $281 0 $32 $-1 #
coedge $-1 $231 $282 $173 $217 0 $181 $-1 #
edge $-1 $219 $283 $216 $183 0 #
coedge $-1 $284 $174 $282 $285 0 $211 $-1 #
vertex $-1 $175 $286 #
straight-curve $-1 0 -30 -10 -1 0 0 I I #
coedge $-1 $287 $288 $176 $222 1 $289 $-1 #
edge $-1 $226 $290 $176 $291 0 #
coedge $-1 $224 $177 $180 $230 1 $225 $-1 #
coedge $-1 $177 $223 $287 $292 0 $225 $-1 #
loop $-1 $-1 $223 $293 #
vertex $-1 $222 $294 #
straight-curve $-1 -10 2.5000000000000178 -10 1 0 0 I I #
coedge $-1 $295 $179 $296 $297 0 $181 $-1 #
coedge $-1 $180 $231 $298 $299 0 $181 $-1 #
edge $-1 $300 $182 $180 $301 0 #
coedge $-1 $229 $216 $302 $303 0 $181 $-1 #
face $-1 $186 $181 $2 $-1 $304 forward single #
point $-1 -25 2.5000000000000178 -10 #
coedge $-1 $189 $296 $184 $235 0 $244 $-1 #
edge $-1 $236 $191 $184 $305 0 #
vertex $-1 $297 $306 #
straight-curve $-1 -25 15 5 0 0 1 I I #
face $-1 $307 $244 $2 $-1 $308 forward single #
plane-surface $-1 0 15 0 0 1 0 0 0 1 0 I I I I #
coedge $-1 $188 $208 $309 $310 0 $76 $-1 #
coedge $-1 $311 $312 $188 $242 1 $313 $-1 #
edge $-1 $314 $245 $188 $315 0 #
coedge $-1 $296 $189 $312 $316 0 $244 $-1 #
loop $-1 $-1 $296 $238 #
vertex $-1 $190 $317 #
straight-curve $-1 25 10 15 0 -1 0 I I #
point $-1 25 15 15 #
face $-1 $318 $319 $2 $-1 $320 forward single #
loop $-1 $156 $270 $193 #
cone-surface $-1 0 0 20 0 0 1 5 0 0 1 I I 0 1 0 I I I I #
face $-1 $321 $211 $2 $-1 $322 reversed single #
loop $-1 $-1 $323 $195 #
plane-surface $-1 0 0 -20 0 0 1 1 0 0 0 I I I I #
coedge $-1 $261 $324 $263 $325 0 $196 $-1 #
coedge $-1 $326 $197 $210 $278 0 $160 $-1 #
coedge $-1 $197 $326 $327 $328 0 $160 $-1 #
coedge $-1 $327 $198 $208 $274 0 $129 $-1 #
coedge $-1 $329 $309 $198 $259 1 $330 $-1 #
edge $-1 $266 $331 $198 $332 0 #
coedge $-1 $199 $333 $334 $335 1 $129 $-1 #
coedge $-1 $336 $254 $199 $262 0 $196 $-1 #
edge $-1 $265 $337 $199 $338 0 #
coedge $-1 $282 $200 $254 $325 1 $181 $-1 #
coedge $-1 $200 $295 $329 $339 0 $181 $-1 #
vertex $-1 $201 $340 #
vertex $-1 $259 $341 #
straight-curve $-1 -25 30 5 0 0 -1 I I #
coedge $-1 $268 $268 $269 $342 0 $202 $-1 #
coedge $-1 $269 $269 $268 $342 1 $204 $-1 #
coedge $-1 $270 $270 $206 $271 0 $249 $-1 #
edge $-1 $343 $343 $270 $344 0 #
vertex $-1 $207 $345 #
ellipse-curve $-1 0 0 45 0 0 -1 10 0 0 1 I I #
edge $-1 $331 $275 $257 $346 0 #
vertex $-1 $328 $347 #
straight-curve $-1 25 0 20 0 -1 0 I I #
coedge $-1 $210 $348 $349 $350 0 $211 $-1 #
edge $-1 $212 $351 $210 $352 0 #
point $-1 25 -30 20 #
coedge $-1 $353 $302 $215 $281 1 $319 $-1 #
edge $-1 $290 $283 $215 $354 0 #
coedge $-1 $216 $263 $218 $285 1 $181 $-1 #
vertex $-1 $217 $355 #
coedge $-1 $356 $218 $324 $357 1 $211 $-1 #
edge $-1 $219 $358 $218 $359 0 #
point $-1 -25 -30 -10 #
coedge $-1 $298 $221 $224 $292 1 $289 $-1 #
coedge $-1 $221 $298 $353 $360 1 $289 $-1 #
loop $-1 $-1 $298 $318 #
vertex $-1 $222 $361 #
straight-curve $-1 -11.339745962155613 1.7763568394002505e-14 -10 0 -1 -3.5527136788005009e-15 I I #
edge $-1 $300 $226 $224 $362 0 #
face $-1 $232 $225 $2 $-1 $363 forward single #
point $-1 -11.339745962155618 2.5000000000000178 -10 #
coedge $-1 $264 $228 $364 $365 0 $181 $-1 #
coedge $-1 $234 $243 $228 $297 1 $244 $-1 #
edge $-1 $236 $366 $228 $367 0 #
coedge $-1 $288 $287 $229 $299 1 $289 $-1 #
edge $-1 $368 $300 $229 $369 0 #
vertex $-1 $299 $370 #
straight-curve $-1 -25 2.4999999999999734 2.5000000000000089 0 3.5527136788005009e-15 -1 I I #
coedge $-1 $280 $353 $231 $303 1 $319 $-1 #
edge $-1 $283 $368 $231 $371 0 #
plane-surface $-1 -25 0 10 1 0 0 0 0 -1 0 I I I I #
straight-curve $-1 0 15 15 1 0 0 I I #
point $-1 -25 15 15 #
face $-1 $372 $313 $2 $-1 $373 reversed single #
plane-surface $-1 0 20 15 0 0 1 1 0 0 0 I I I I #
coedge $-1 $258 $374 $240 $310 1 $330 $-1 #
edge $-1 $331 $314 $240 $124 0 #
coedge $-1 $364 $241 $374 $375 1 $313 $-1 #
coedge $-1 $241 $364 $243 $316 1 $313 $-1 #
loop $-1 $-1 $364 $307 #
vertex $-1 $310 $376 #
straight-curve $-1 25 25 5 0 0 1 I I #
edge $-1 $245 $366 $312 $377 0 #
point $-1 25 25 15 #
face $-1 $293 $289 $2 $-1 $378 forward single #
loop $-1 $-1 $302 $248 #
plane-surface $-1 -20 -2.5 -5.0000000000000089 0 -1 -3.5527136788005009e-15 1 0 0 0 I I I I #
face $-1 $379 $380 $2 $-1 $381 reversed single #
plane-surface $-1 0 -30 0 0 1 0 0 0 1 0 I I I I #
coedge $-1 $382 $383 $384 $385 0 $252 $-1 #
coedge $-1 $254 $336 $284 $357 0 $196 $-1 #
edge $-1 $358 $265 $254 $386 0 #
coedge $-1 $256 $255 $387 $388 0 $160 $-1 #
coedge $-1 $389 $257 $256 $328 1 $129 $-1 #
edge $-1 $390 $275 $327 $338 0 #
coedge $-1 $374 $258 $264 $339 1 $330 $-1 #
loop $-1 $-1 $374 $372 #
vertex $-1 $259 $391 #
straight-curve $-1 0 30 -10 1 0 0 I I #
coedge $-1 $260 $389 $383 $392 1 $129 $-1 #
coedge $-1 $393 $394 $260 $335 0 $380 $-1 #
edge $-1 $337 $395 $260 $396 0 #
coedge $-1 $324 $261 $394 $397 0 $196 $-1 #
vertex $-1 $262 $398 #
straight-curve $-1 0 30 20 -1 0 0 I I #
edge $-1 $399 $266 $264 $183 0 #
point $-1 -25 30 20 #
point $-1 -25 30 -10 #
edge $-1 $400 $400 $268 $401 0 #
vertex $-1 $271 $402 #
ellipse-curve $-1 0 0 45 0 0 -1 5 0 0 1 I I #
point $-1 10 0 45 #
straight-curve $-1 25 30 5 0 0 1 I I #
point $-1 25 30 20 #
coedge $-1 $277 $356 $382 $403 1 $211 $-1 #
coedge $-1 $384 $387 $277 $350 1 $404 $-1 #
edge $-1 $405 $351 $349 $406 1 #
vertex $-1 $388 $407 #
straight-curve $-1 0 -30 20 1 0 0 I I #
coedge $-1 $302 $280 $288 $360 0 $319 $-1 #
straight-curve $-1 -10 -2.4999999999999822 -10 -1 0 0 I I #
point $-1 -25 -2.4999999999999822 -10 #
coedge $-1 $348 $284 $408 $409 0 $211 $-1 #
edge $-1 $410 $358 $284 $352 0 #
vertex $-1 $357 $411 #
straight-curve $-1 -25 -30 5 0 0 1 I I #
edge $-1 $290 $368 $353 $412 0 #
point $-1 -11.339745962155609 -2.4999999999999822 -10 #
ellipse-curve $-1 -20 2.5 -4.9999999999999911 0 1 3.5527136788005009e-15 10 0 0 1 I I #
plane-surface $-1 -20 2.5 -4.9999999999999911 0 1 3.5527136788005009e-15 -1 0 0 0 I I I I #
coedge $-1 $312 $311 $295 $365 1 $313 $-1 #
edge $-1 $366 $399 $295 $413 0 #
vertex $-1 $297 $414 #
straight-curve $-1 -25 10 15 0 1 0 I I #
vertex $-1 $299 $415 #
straight-curve $-1 -25 -3.0767402982137026e-14 3.6602540378443873 0 1 3.5527136788005009e-15 I I #
point $-1 -25 2.4999999999999694 3.6602540378443962 #
straight-curve $-1 -25 -2.5000000000000266 2.4999999999999911 0 -3.5527136788005009e-15 1 I I #
face $-1 $62 $330 $2 $-1 $98 forward single #
plane-surface $-1 0 25 0 0 -1 0 0 0 -1 0 I I I I #
coedge $-1 $309 $329 $311 $375 0 $330 $-1 #
edge $-1 $399 $314 $374 $416 0 #
point $-1 25 25 -10 #
straight-curve $-1 0 25 15 -1 0 0 I I #
cone-surface $-1 -20 0 -5 0 -1 -3.5527136788005009e-15 10 0 0 1 I I 0 1 0 I I I I #
face $-1 $-1 $404 $2 $-1 $417 reversed single #
loop $-1 $-1 $334 $321 #
plane-surface $-1 -30 0 0 1 0 0 0 0 -1 0 I I I I #
coedge $-1 $418 $323 $348 $403 0 $252 $-1 #
coedge $-1 $323 $418 $333 $392 0 $252 $-1 #
coedge $-1 $419 $349 $323 $385 1 $404 $-1 #
edge $-1 $420 $405 $384 $421 0 #
straight-curve $-1 -25 0 20 0 1 0 I I #
coedge $-1 $349 $419 $326 $388 1 $404 $-1 #
edge $-1 $351 $390 $387 $422 0 #
coedge $-1 $333 $327 $419 $423 0 $129 $-1 #
vertex $-1 $388 $424 #
point $-1 25 30 -10 #
edge $-1 $395 $420 $333 $425 0 #
coedge $-1 $408 $334 $418 $426 1 $380 $-1 #
coedge $-1 $334 $408 $336 $397 1 $380 $-1 #
vertex $-1 $392 $427 #
straight-curve $-1 -30 30 0 0 0 -1 I I #
edge $-1 $337 $410 $394 $428 0 #
point $-1 -30 30 20 #
vertex $-1 $375 $429 #
vertex $-1 $342 $430 #
ellipse-curve $-1 0 0 55 0 0 1 10 0 0 1 I I #
point $-1 -5 -3.5527136788005009e-14 45 #
edge $-1 $405 $431 $348 $432 0 #
loop $-1 $-1 $349 $379 #
vertex $-1 $350 $433 #
straight-curve $-1 30 -30 0 0 0 -1 I I #
point $-1 30 -30 20 #
coedge $-1 $394 $393 $356 $409 1 $380 $-1 #
edge $-1 $410 $431 $408 $434 0 #
vertex $-1 $397 $435 #
point $-1 -25 -30 20 #
ellipse-curve $-1 -20 -2.5 -5.0000000000000089 0 -1 -3.5527136788005009e-15 10 0 0 1 I I #
straight-curve $-1 -25 25 5 0 0 -1 I I #
point $-1 -25 25 15 #
point $-1 -25 -2.5000000000000306 3.6602540378443784 #
straight-curve $-1 0 25 -10 1 0 0 I I #
plane-surface $-1 30 0 0 -1 0 0 0 0 1 0 I I I I #
coedge $-1 $383 $382 $393 $426 0 $252 $-1 #
coedge $-1 $387 $384 $389 $423 1 $404 $-1 #
vertex $-1 $385 $436 #
straight-curve $-1 30 0 -20 0 -1 0 I I #
straight-curve $-1 30 0 20 0 1 0 I I #
edge $-1 $390 $420 $419 $437 0 #
point $-1 30 30 20 #
straight-curve $-1 0 30 -20 1 0 0 I I #
edge $-1 $431 $395 $393 $438 0 #
point $-1 -30 30 -20 #
straight-curve $-1 -30 0 20 0 -1 0 I I #
point $-1 -25 25 -10 #
point $-1 10 0 55 #
vertex $-1 $426 $439 #
straight-curve $-1 0 -30 -20 -1 0 0 I I #
point $-1 30 -30 -20 #
straight-curve $-1 -30 -30 0 0 0 -1 I I #
point $-1 -30 -30 20 #
point $-1 30 30 -20 #
straight-curve $-1 30 30 0 0 0 -1 I I #
straight-curve $-1 -30 0 -20 0 1 0 I I #
point $-1 -30 -30 -20 #
End-of-ACIS-data 