  0
SECTION
  2
HEADER
  9
$ACADVER
  1
AC1009
  9
$INSBASE
 10
0.0
 20
0.0
 30
0.0
  9
$EXTMIN
 10
0.0
 20
0.0
 30
0.0
  9
$EXTMAX
 10
4.0
 20
3.0
 30
4.0
  9
$LIMMIN
 10
0.0
 20
0.0
  9
$LIMMAX
 10
12.0
 20
9.0
  9
$ORTHOMODE
 70
     0
  9
$REGENMODE
 70
     1
  9
$FILLMODE
 70
     1
  9
$QTEXTMODE
 70
     0
  9
$MIRRTEXT
 70
     1
  9
$DRAGMODE
 70
     2
  9
$LTSCALE
 40
1.0
  9
$OSMODE
 70
     0
  9
$ATTMODE
 70
     1
  9
$TEXTSIZE
 40
0.2
  9
$TRACEWID
 40
0.05
  9
$TEXTSTYLE
  7
STANDARD
  9
$CLAYER
  8
0
  9
$CELTYPE
  6
BYLAYER
  9
$CECOLOR
 62
   256
  9
$DIMSCALE
 40
1.0
  9
$DIMASZ
 40
0.18
  9
$DIMEXO
 40
0.0625
  9
$DIMDLI
 40
0.38
  9
$DIMRND
 40
0.0
  9
$DIMDLE
 40
0.0
  9
$DIMEXE
 40
0.18
  9
$DIMTP
 40
0.0
  9
$DIMTM
 40
0.0
  9
$DIMTXT
 40
0.18
  9
$DIMCEN
 40
0.09
  9
$DIMTSZ
 40
0.0
  9
$DIMTOL
 70
     0
  9
$DIMLIM
 70
     0
  9
$DIMTIH
 70
     1
  9
$DIMTOH
 70
     1
  9
$DIMSE1
 70
     0
  9
$DIMSE2
 70
     0
  9
$DIMTAD
 70
     0
  9
$DIMZIN
 70
     0
  9
$DIMBLK
  1

  9
$DIMASO
 70
     1
  9
$DIMSHO
 70
     1
  9
$DIMPOST
  1

  9
$DIMAPOST
  1

  9
$DIMALT
 70
     0
  9
$DIMALTD
 70
     2
  9
$DIMALTF
 40
25.4
  9
$DIMLFAC
 40
1.0
  9
$DIMTOFL
 70
     0
  9
$DIMTVP
 40
0.0
  9
$DIMTIX
 70
     0
  9
$DIMSOXD
 70
     0
  9
$DIMSAH
 70
     0
  9
$DIMBLK1
  1

  9
$DIMBLK2
  1

  9
$DIMSTYLE
  2
*UNNAMED
  9
$DIMCLRD
 70
     0
  9
$DIMCLRE
 70
     0
  9
$DIMCLRT
 70
     0
  9
$DIMTFAC
 40
1.0
  9
$DIMGAP
 40
0.09
  9
$LUNITS
 70
     2
  9
$LUPREC
 70
     4
  9
$SKETCHINC
 40
0.1
  9
$FILLETRAD
 40
0.0
  9
$AUNITS
 70
     0
  9
$AUPREC
 70
     0
  9
$MENU
  1
acad
  9
$ELEVATION
 40
0.0
  9
$PELEVATION
 40
0.0
  9
$THICKNESS
 40
0.0
  9
$LIMCHECK
 70
     0
  9
$BLIPMODE
 70
     1
  9
$CHAMFERA
 40
0.0
  9
$CHAMFERB
 40
0.0
  9
$SKPOLY
 70
     0
  9
$TDCREATE
 40
2449373.087398785
  9
$TDUPDATE
 40
2449373.087398785
  9
$TDINDWG
 40
0.0000000000
  9
$TDUSRTIMER
 40
0.0000000000
  9
$USRTIMER
 70
     1
  9
$ANGBASE
 50
0.0
  9
$ANGDIR
 70
     0
  9
$PDMODE
 70
     0
  9
$PDSIZE
 40
0.0
  9
$PLINEWID
 40
0.0
  9
$COORDS
 70
     1
  9
$SPLFRAME
 70
     0
  9
$SPLINETYPE
 70
     6
  9
$SPLINESEGS
 70
     8
  9
$ATTDIA
 70
     0
  9
$ATTREQ
 70
     1
  9
$HANDLING
 70
     1
  9
$HANDSEED
  5
42
  9
$SURFTAB1
 70
     6
  9
$SURFTAB2
 70
     6
  9
$SURFTYPE
 70
     6
  9
$SURFU
 70
     6
  9
$SURFV
 70
     6
  9
$UCSNAME
  2

  9
$UCSORG
 10
0.0
 20
0.0
 30
0.0
  9
$UCSXDIR
 10
1.0
 20
0.0
 30
0.0
  9
$UCSYDIR
 10
0.0
 20
1.0
 30
0.0
  9
$PUCSNAME
  2

  9
$PUCSORG
 10
0.0
 20
0.0
 30
0.0
  9
$PUCSXDIR
 10
1.0
 20
0.0
 30
0.0
  9
$PUCSYDIR
 10
0.0
 20
1.0
 30
0.0
  9
$USERI1
 70
     0
  9
$USERI2
 70
     0
  9
$USERI3
 70
     0
  9
$USERI4
 70
     0
  9
$USERI5
 70
     0
  9
$USERR1
 40
0.0
  9
$USERR2
 40
0.0
  9
$USERR3
 40
0.0
  9
$USERR4
 40
0.0
  9
$USERR5
 40
0.0
  9
$WORLDVIEW
 70
     1
  9
$SHADEDGE
 70
     3
  9
$SHADEDIF
 70
    70
  9
$TILEMODE
 70
     1
  9
$MAXACTVP
 70
    16
  9
$PINSBASE
 10
0.0
 20
0.0
 30
0.0
  9
$PLIMCHECK
 70
     0
  9
$PEXTMIN
 10
1.000000E+20
 20
1.000000E+20
 30
1.000000E+20
  9
$PEXTMAX
 10
-1.000000E+20
 20
-1.000000E+20
 30
-1.000000E+20
  9
$PLIMMIN
 10
0.0
 20
0.0
  9
$PLIMMAX
 10
12.0
 20
9.0
  9
$UNITMODE
 70
     0
  9
$VISRETAIN
 70
     0
  9
$PLINEGEN
 70
     0
  9
$PSLTSCALE
 70
     1
  9
$TREEDEPTH
 70
  3020
  9
$DWGCODEPAGE
  3
ascii
  0
ENDSEC
  0
SECTION
  2
TABLES
  0
TABLE
  2
VPORT
 70
     2
  0
VPORT
  2
*ACTIVE
 70
     0
 10
0.0
 20
0.0
 11
1.0
 21
1.0
 12
7.896686
 22
4.951264
 13
0.0
 23
0.0
 14
1.0
 24
1.0
 15
0.0
 25
0.0
 16
0.0
 26
0.0
 36
1.0
 17
0.0
 27
0.0
 37
0.0
 40
9.902529
 41
1.594883
 42
50.0
 43
0.0
 44
0.0
 50
0.0
 51
0.0
 71
     0
 72
   100
 73
     1
 74
     1
 75
     0
 76
     0
 77
     0
 78
     0
  0
ENDTAB
  0
TABLE
  2
LTYPE
 70
     1
  0
LTYPE
  2
CONTINUOUS
 70
    64
  3
Solid line
 72
    65
 73
     0
 40
0.0
  0
ENDTAB
  0
TABLE
  2
LAYER
 70
     2
  0
LAYER
  2
0
 70
    64
 62
     7
  6
CONTINUOUS
  0
LAYER
  2
AME_FRZ
 70
    65
 62
     7
  6
CONTINUOUS
  0
ENDTAB
  0
TABLE
  2
STYLE
 70
     1
  0
STYLE
  2
STANDARD
 70
     0
 40
0.0
 41
1.0
 50
0.0
 71
     0
 42
0.2
  3
txt
  4

  0
ENDTAB
  0
TABLE
  2
VIEW
 70
     0
  0
ENDTAB
  0
TABLE
  2
UCS
 70
     0
  0
ENDTAB
  0
TABLE
  2
APPID
 70
     3
  0
APPID
  2
ACAD
 70
    64
  0
APPID
  2
AME_SOL
 70
    64
  0
APPID
  2
AVE_INVOKE
 70
    64
  0
ENDTAB
  0
TABLE
  2
DIMSTYLE
 70
     0
  0
ENDTAB
  0
ENDSEC
  0
SECTION
  2
BLOCKS
  0
BLOCK
  8
0
  5
1
  2
AME_NIL
 70
    64
 10
0.0
 20
0.0
 30
0.0
  1
AME_NIL
  3
AME_NIL
  0
ENDBLK
  8
0
  5
2
  0
BLOCK
  8
0
  5
4
  2
AME_SOL
 70
    64
 10
0.0
 20
0.0
 30
0.0
  1
AME_SOL
  3
AME_SOL
  0
ENDBLK
  8
0
  5
5
  0
BLOCK
  8
0
  5
25
  2
*U4
 70
    65
 10
0.0
 20
0.0
 30
0.0
  1
*U
  3
*U
  0
LINE
  8
0
 62
     7
  5
26
 10
4.0
 20
2.0
 30
0.0
 11
4.0
 21
2.0
 31
4.0
1001
AME_SOL
1070
     1
1071
       25
  0
LINE
  8
0
 62
     7
  5
27
 10
4.0
 20
2.0
 30
4.0
 11
4.0
 21
0.0
 31
4.0
1001
AME_SOL
1070
     1
1071
       24
  0
LINE
  8
0
 62
     7
  5
28
 10
3.0
 20
2.0
 30
4.0
 11
4.0
 21
2.0
 31
4.0
1001
AME_SOL
1070
     1
1071
       23
  0
LINE
  8
0
 62
     7
  5
29
 10
0.0
 20
2.0
 30
4.0
 11
1.0
 21
2.0
 31
4.0
1001
AME_SOL
1070
     1
1071
       22
  0
LINE
  8
0
 62
     7
  5
2A
 10
0.0
 20
2.0
 30
0.0
 11
0.0
 21
2.0
 31
4.0
1001
AME_SOL
1070
     1
1071
       21
  0
LINE
  8
0
 62
     7
  5
2B
 10
0.0
 20
2.0
 30
4.0
 11
0.0
 21
0.0
 31
4.0
1001
AME_SOL
1070
     1
1071
       20
  0
LINE
  8
0
 62
     7
  5
2C
 10
0.0
 20
0.0
 30
0.0
 11
0.0
 21
0.0
 31
4.0
1001
AME_SOL
1070
     1
1071
       19
  0
LINE
  8
0
 62
     7
  5
2D
 10
4.0
 20
0.0
 30
4.0
 11
4.0
 21
0.0
 31
0.0
1001
AME_SOL
1070
     1
1071
       18
  0
LINE
  8
0
 62
     7
  5
2E
 10
0.0
 20
0.0
 30
4.0
 11
4.0
 21
0.0
 31
4.0
1001
AME_SOL
1070
     1
1071
       17
  0
LINE
  8
0
 62
     7
  5
2F
 10
0.0
 20
0.0
 30
0.0
 11
4.0
 21
0.0
 31
0.0
1001
AME_SOL
1070
     1
1071
       16
  0
LINE
  8
0
 62
     7
  5
30
 10
0.0
 20
2.0
 30
0.0
 11
0.0
 21
0.0
 31
0.0
1001
AME_SOL
1070
     1
1071
       15
  0
LINE
  8
0
 62
     7
  5
31
 10
4.0
 20
0.0
 30
0.0
 11
4.0
 21
2.0
 31
0.0
1001
AME_SOL
1070
     1
1071
       14
  0
LINE
  8
0
 62
     7
  5
32
 10
1.0
 20
2.0
 30
0.0
 11
0.0
 21
2.0
 31
0.0
1001
AME_SOL
1070
     1
1071
       13
  0
LINE
  8
0
 62
     7
  5
33
 10
4.0
 20
2.0
 30
0.0
 11
3.0
 21
2.0
 31
0.0
1001
AME_SOL
1070
     1
1071
       12
  0
ARC
  8
0
 62
     7
  5
34
 10
2.0
 20
2.0
 30
0.0
 40
1.0
 50
180.0
 51
0.0
1001
AME_SOL
1070
     1
1071
       11
  0
LINE
  8
0
 62
     7
  5
35
 10
3.0
 20
2.0
 30
0.0
 11
3.0
 21
2.0
 31
4.0
1001
AME_SOL
1070
     1
1071
       10
  0
LINE
  8
0
 62
     7
  5
36
 10
1.0
 20
2.0
 30
0.0
 11
1.0
 21
2.0
 31
4.0
1001
AME_SOL
1070
     1
1071
        9
  0
ARC
  8
0
 62
     7
  5
37
 10
2.0
 20
2.0
 30
4.0
 40
1.0
 50
180.0
 51
0.0
1001
AME_SOL
1070
     1
1071
        8
  0
LINE
  8
0
 62
     7
  5
38
 10
3.0
 20
2.0
 30
0.0
 11
3.0
 21
2.0
 31
4.0
1001
AME_SOL
1070
     0
1071
        1
  0
LINE
  8
0
 62
     7
  5
39
 10
2.0
 20
1.0
 30
0.0
 11
2.0
 21
1.0
 31
4.0
1001
AME_SOL
1070
     0
1071
        1
  0
LINE
  8
0
 62
     7
  5
3A
 10
1.0
 20
2.0
 30
0.0
 11
1.0
 21
2.0
 31
4.0
1001
AME_SOL
1070
     0
1071
        1
  0
ENDBLK
  8
0
  5
3B
  0
BLOCK
  8
0
  5
3F
  2
AME_JNK
 70
     0
 10
0.0
 20
0.0
 30
0.0
  1
AME_JNK
  3
AME_JNK
  0
ENDBLK
  8
0
  5
40
  0
ENDSEC
  0
SECTION
  2
ENTITIES
  0
INSERT
  8
AME_FRZ
  5
3
  2
AME_NIL
 10
0.0
 20
0.0
 30
0.0
  0
INSERT
  8
AME_FRZ
  5
6
  2
AME_SOL
 10
0.0
 20
0.0
 30
0.0
1001
AME_SOL
1000
R2.1
1000
AME2
1000
sq cm
1070
     3
1070
     0
1070
     3
1000
wire
1040
45.0
1000
U
1040
1.0
1000
cm
1000
gm
1000
MILD_STEEL
1070
    25
1000
CSG
1070
     1
1070
     3
1070
     3
1070
     3
1070
     0
1000
cu cm
1070
     1
1070
     0
1005
3
  0
INSERT
  8
AME_FRZ
  5
15
  2
AME_NIL
 10
0.0
 20
0.0
 30
0.0
1001
AME_SOL
1002
{
1070
     1
1071
  2435624
1070
  1536
1070
     1
1010
4.0
1020
2.0
1030
4.0
1005
0
1005
0
1005
3C
1040
0.0
1040
1.0
1070
     0
1000
MILD_STEEL
1000
0
1010
0.0
1020
0.0
1030
0.0
1010
0.0
1020
0.0
1030
1.0
1040
0.0
1002
}
1001
AVE_INVOKE
1000
SOLAVEMESH
  0
INSERT
  8
AME_FRZ
  5
21
  2
AME_NIL
 10
2.0
 20
2.0
 30
0.0
1001
AME_SOL
1002
{
1070
     1
1071
  2447024
1070
  1538
1070
     1
1010
1.0
1020
1.0
1030
4.0
1005
0
1005
0
1005
3C
1040
0.0
1040
1.0
1070
     0
1000
MILD_STEEL
1000
0
1010
2.0
1020
2.0
1030
0.0
1010
0.0
1020
0.0
1030
1.0
1040
0.0
1002
}
1001
AVE_INVOKE
1000
SOLAVEMESH
  0
INSERT
  8
0
  5
3C
  2
*U4
 10
0.0
 20
0.0
 30
0.0
1001
AME_SOL
1002
{
1070
     1
1071
  2418104
1070
  1543
1070
     1
1070
     0
1005
15
1005
21
1005
0
1005
3D
1005
0
1040
0.0
1040
1.0
1070
     0
1000
MILD_STEEL
1000
0
1002
}
1001
AVE_INVOKE
1000
SOLAVEMESH
  0
INSERT
  8
AME_FRZ
  5
3D
  2
AME_NIL
 10
1.0
 20
1.0
 30
1.0
1001
AME_SOL
1004
C7CF0100D100680167016501610159014D0141012E011D011401F8002E00150068002F017000B80042013001E4005C00310182001E01F200DF004E0180000A005A014F0143013201BC00080033015F001F01D700CE0044013401200115010900210016014D003500210117014400540018010D01C8000101
1004
070000010E0102016F00120003011900F7003501220119010F010401760023000501EC002F001001060131005E000701320038001A0111010801D800CB000901BD00580012010A01BB00BA000B01A900B900B3005001A000FE0062015B01510174004501A800960002005C013F005201240046013601A400
1004
840037012301B00011002401EF00EA00660163015D0153012800470138012501D000E9002601E700D900060040005E01540148013901EE001400750049013A01C00027014800EB003B012801E80030004E0055011000180064015F015601BF004A013C0129011B012D0013010C01AA00520003000F007900
1004
3D0125002A01FB00F50057014B0105003E012B01F300AF002C011C010400FC00B2000100600158014C013F0150007F0040010C002D010E00ED00F000FF0000003FB233FB2316E67376B5EF7EC8A2BE2B56F9501877AE43054061DEB90C1501877AE4301927991B459201707B8B9062290C93CC8DA2C96FB3
1004
81CD64F8C1627131F8C7C60B13898FC62A030EF5C86002E0F71720C45201707B8B9062290C93CC8DA2C96E7F57441F59AF7EDC5A79FD5FFDD37FFFFFFEE9BFFFA7FA7FDA7F74DFBA6FFFFFF3FABFFBA6FFFFFFFDD37FFF4FF4FFB4FEE9BF74DFFFFFBAC0A47F647C9A9FF74DFFFFFFFBA6FFFDD32DFA7FCB
1004
051004650602010782880232830100897F978288023283010083FFFF5920A2008CA0C040224DFFFFD649600B78A6F7BDBFFFFAC9148FE5E4D4FFBA6FFFFFFFDD37FBAF7BDEF79BF74DFE58288023283010083C144011941808044BFCBC144011941808041FFFFAC905100465060201126FFFFEB24B14DEF7
1004
8A6F7BDBFFFFAC9148FEDF26A7FDD37FFFFFFEE9BFDBF88A7FA7FCB051004650602010782880232830100897F978288023283010083FFFF5920A2008CA0C040224DFFFFD649629BDEF005BDBFFFFAC9148FFE4D4FFBA6FFFFFFFDD37FBAF7BDEF799BF88A7FCB0510046506020107828802328301008937F
1004
D9C0E472A030EF5C860A80C3BD72182A030EF5C860324F32368B2545C1EE2E41D254061DEB9066E7AAE06E666B7DB8B3379EABFFFFBA6FFFDD37FFFFFFFFFB4FFFFFFFFFF9EABFFFFBA6FFFDD37FFFFFFFFFB4FFFFFFFFFEE999C0E6B254061DEB90C1501877AE43054061DEB90C0649E646D1649501877A
1004
E418324F32368B25B9EABAB55875BEDC591BCF55FFDD37FFFFFFFFEE9BFFFFFDA7FFFFFFFFFCF55FFDD37FFFFFFFFEE9BFFFFFDA7FFFFFFFFF74CCE073592A030EF5C860A80C3BD72182A030EF5C860A80C3BD720CA2E0F71720E90C93CC8DA2C96E7AAEAA449D6FB756B79EABFFFFFFBA6FFFDD37FFFFFF
1004
FB4FFFFFFFFFF9EABFFFFFFBA6FFFDD37FFFFFFFB4FFFFFFFFFEE999C0E472A030EF5C860A80C3BD721873B5613519EC948649E646D164A8B83DC5C83A4324F32368B25B9EABDAE75BEDC58DBCF55FFDD63F85FC2FE17EEB1FC2FD64FF4FEB25A7FFFFFFFFFCF55FFDD63F85FC2FE17EEB1FC2FD64FF4FEB
1004
25A7FFFFFFFFF74CCE0708CA80C3BD7218458937452ADE62A030EF5C860324F32368B2545C1EE2E41D21927991B4592DCF55D7173ADF6E00B79EABFFC2FE17EEB1FBAC7F0BF85FAC9FE9FD64B4FFFFFFFFFF9EABFFC2FE17EEB1FBAC7F0BF85FAC9FE9FD64B4FFFFFFFFFEE999C0E6B2E76AC26A33D9292A
1004
030EF5C860A80C3BD72180C93CC8DA2C951707B8B90748649E646D164B73D570994EB7DBB20DE7AAFFF0BF758FE17F0BF85FBAC7EB27FA7F592D3FFFFFFFFFE7AAFFF0BF758FE17F0BF85FBAC7EB27FA7F592D3FFFFFFFFFBA63C503E30589C4C7E31F182C4E263F19CED584D467B25201707B8B90622951
1004
707B8B90748649E646D164A0C80A82AB385114153F845B5AA40015C3BB77BD107D66DAE772ED73A883EB35BEF7BDED6A9FF74DFFFFFFFBA6FFFE9FE9FD64B59FDD37EE990640541559C288A0A9FC23C503E30589C4C7E322C49BA2956F31501877AE43001707B8B90622951707B8B90748649E646D164FFF
1004
EB24B26A4F82CA2C3DBBDE883EB357173B96B8B9D441F59ADF7BDEF26A7FDD37FFFFFFEE9BFFF74DFD3FE5FFFEB24F140F8C1627131F8C8B126E8A55BCC54061DEB90C005C1EE2E4188A545C1EE2E41D21927991B4593FFFAC92C9A9031603BBDEDD107D66AE2E772D107D66AE2E75EF7BDBE4D4FFBA6FFF
1004
FFFFDD37FB7F114FF4FF97FFFAC93C503E30589C4C7E31F182C4E263F18A80C3BD721800B83DC5C83114A8B83DC5C83A4A80C3BD720C83202A0AACE1445054FE116D6A94023BBDEDD107D6681B999B96883EB340DCCCD7BDEF6FB5AA7FDD37FFFFFFEE9BFFFA7FA7FDACFEE9BF74C83202A0AACE1445054F
1004
E11E281501877AE4308B126E8A55BCC54061DEB90C0649E646D164A8B83DC5C83A4A80C3BD720DFD53F7582C9A9116443BBDEDC0DCCCD5C5CEE581B999AB8B9D6FB7C9A9FFFF74DFFFFFFFBAC7F4FF4FF97FD53F7583C502A030EF5C8611624DD14AB798A80C3BD72180C93CC8DA2C951707B8B907495018
1004
77AE41BF74DFD2593522B05BCEEF7B703733357173B9606E666AE2E75BEDF26A7FFFDD37FFFFFFEEB1FD3FD3FE5FEE9BFA4F141CED584D467B25254061DEB90C1501877AE4301927991B4592A2E0F71720E92A030EF5C837EEB1FBA62C9A91582DA777BDB81B999A1329DCB03733342653ADF6F9353FEE9B
1004
FFFFFFFFF758FD64FEE9BFCBFDD63F74C78A054061DEB90C1501877AE43054061DEB90C1501877AE41945C1EE2E41D254061DEB906FEA9FC22C9A916816C3BBDEDC0DCCCD55224EE581B999AAA449D6FB7C9A9FF758FFFFFFFFFDD63FFFFFCBFEA9FC23C502A030EF5C860A80C3BD72182A030EF5C860324
1004
F32368B24A80C3BD720C54061DEB906FFFD64964D4AB040EEF7B703733355AAC3B9606E666AB55875BEDF26A7FFFDD63FFFFFFF758FFFFFF2FFFF59278A054061DEB90C1501877AE430E76AC26A33D9290C93CC8DA2C92A030EF5C830649E646D164FF54FE92C9A90005A8EEF7B756AB0EDAE772D5AAC3B6
1004
B9D6FB7C9A9FFFFFF74DFFFBAC7FFF4FFFEB24BFEA9FD278A0E76AC26A33D9292A030EF5C860A80C3BD72180C93CC8DA2C92A030EF5C830649E646D164FF54FE92C9A94156777BDBAB558742653B96AD561D0994EB7DBE4D4FFBA6FFFFFFFDD63FFF593FFFD25FF54FE93C502A030EF5C860A80C3BD72182
1004
A030EF5C860A80C3BD720C54061DEB9060C93CC8DA2C9FFFD64964D4AE2C4777BDBAB5587554893B96AD561D55224EB7DBE4D4FFBAC7FFFFFFEEB1FFFFFFFE5FFFEB24F140A80C3BD72182A030EF5C861CED584D467B25254061DEB90651707B8B90748649E646D164FEEB1FBA62C9A941CE777BDBAA9127
1004
6D73B96AA449DB5CEB7DBE4D4FFFFFFBA6FDD63FFFFFFF74DFAC92FF758FDD31E281501877AE4308B126E8A55BCC54061DEB90C1501877AE41945C1EE2E41D21927991B4593FD53FA4B26A459D40EEF7B755224EAE2E772D54893AB8B9D6FB7C9A9FFFF74DFFFBAC7FFFFFFF4FF497FD53FA4F140A80C3BD
1004
7218458937452ADE673B5613519EC948649E646D164A8B83DC5C83A4324F32368B27F5953F11542C9A9551F8EEF7B7B5CEAE2E772ED73AB8B9D6FB7C9A9FFFF74DFFFFFFFBA6FD64FF4FEB24BFD654FC4550F140A80C3BD7218458937452ADE673B5613519EC948649E646D164A8B83DC5C83A4324F32368
1004
B24BF758FE1164D48B5BA777BDBDAE757173B976B9D5C5CEB7DBE4D4FFFFBA6FFFFFFFDD37EB27FA7F592597EEB1FC23C5073B5613519EC949501877AE430E76AC26A33D9290C93CC8DA2C951707B8B90748649E646D164FFFF4964D48002BACDDEF6F6B9D0994EE5DAE742653ADF6F9353FEE9BFFFFF85F
1004
FFBA6FD64FF4FEB24BFFFE93C5073B5613519EC94A2C49BA2956F31501877AE4301927991B4592A2E0F71720E90C93CC8DA2C9FD654FE1164D488A8B377BDBAE2E742653B96B8B9D0994EB7DBE4D4FFBA6FFFFFFFDD37FFEB27FA7F5925FEB2A7F08579AD15B0C
1005
3E
  0
INSERT
  8
AME_FRZ
  5
3E
  2
AME_NIL
 10
1.0
 20
1.0
 30
1.0
1001
AME_SOL
1004

1005
0
  0
ENDSEC
  0
EOF
