105 863 1 0                             
body $-1 $1 $-1 $-1 #
lump $-1 $-1 $2 $0 #
shell $-1 $-1 $-1 $3 $1 #
face $-1 $4 $5 $2 $-1 $6 forward single #
face $-1 $7 $8 $2 $-1 $9 forward single #
loop $-1 $-1 $10 $3 #
cone-surface $-1 45 0 -10 0 1 0 -3.53553390593274 0 -3.53553390593274 1 0 -1 0 #
face $-1 $11 $12 $2 $-1 $13 forward single #
loop $-1 $-1 $14 $4 #
plane-surface $-1 50 0 -15 0 0 1 1 0 0 0 #
coedge $-1 $15 $16 $17 $18 0 $5 $-1 #
face $-1 $19 $20 $2 $-1 $21 reversed single #
loop $-1 $-1 $22 $7 #
cone-surface $-1 45 0 10 -0 -1 0 -3.53553390593274 0 3.53553390593274 1 0 -1 0 #
coedge $-1 $23 $24 $25 $26 1 $8 $-1 #
coedge $-1 $25 $10 $27 $28 1 $5 $-1 #
coedge $-1 $10 $25 $29 $30 1 $5 $-1 #
coedge $-1 $31 $32 $10 $18 1 $33 $-1 #
edge $-1 $34 $35 $17 $36 0 #
face $-1 $37 $38 $2 $-1 $39 forward single #
loop $-1 $-1 $40 $11 #
plane-surface $-1 50 0 15 0 0 1 1 0 0 0 #
coedge $-1 $41 $42 $43 $44 0 $12 $-1 #
coedge $-1 $45 $14 $46 $47 1 $8 $-1 #
coedge $-1 $14 $45 $48 $49 1 $8 $-1 #
coedge $-1 $16 $15 $14 $26 0 $5 $-1 #
edge $-1 $50 $51 $14 $52 0 #
coedge $-1 $53 $46 $15 $28 0 $54 $-1 #
edge $-1 $50 $35 $27 $55 0 #
coedge $-1 $48 $56 $16 $30 0 $57 $-1 #
edge $-1 $34 $51 $29 $58 0 #
coedge $-1 $43 $17 $56 $59 1 $33 $-1 #
coedge $-1 $17 $43 $53 $60 1 $33 $-1 #
loop $-1 $-1 $17 $61 #
vertex $-1 $59 $62 #
vertex $-1 $60 $63 #
straight-curve $-1 40 0 -10 -0 -1 -0 #
face $-1 $64 $65 $2 $-1 $66 forward single #
loop $-1 $-1 $67 $19 #
cone-surface $-1 -45 0 -10 0 -1 -0 3.53553390593274 0 -3.53553390593274 1 0 -1 0 #
coedge $-1 $68 $69 $70 $71 1 $20 $-1 #
coedge $-1 $70 $22 $72 $73 1 $12 $-1 #
coedge $-1 $22 $70 $74 $75 1 $12 $-1 #
coedge $-1 $32 $31 $22 $44 1 $33 $-1 #
edge $-1 $76 $77 $43 $78 0 #
coedge $-1 $24 $23 $79 $80 1 $8 $-1 #
coedge $-1 $27 $81 $23 $47 0 $54 $-1 #
edge $-1 $82 $50 $46 $83 0 #
coedge $-1 $84 $29 $24 $49 0 $57 $-1 #
edge $-1 $51 $85 $48 $86 0 #
vertex $-1 $47 $87 #
vertex $-1 $49 $88 #
straight-curve $-1 45 0 -15 0 1 0 #
coedge $-1 $74 $27 $32 $60 0 $54 $-1 #
loop $-1 $-1 $89 $90 #
ellipse-curve $-1 45 -25 -10 0 1 -0 -3.53553390593274 0 -3.53553390593274 1 #
coedge $-1 $29 $72 $31 $59 0 $57 $-1 #
loop $-1 $-1 $91 $92 #
ellipse-curve $-1 45 25 -10 0 -1 0 -3.53553390593274 0 -3.53553390593274 1 #
edge $-1 $77 $34 $56 $93 0 #
edge $-1 $35 $76 $53 $94 0 #
face $-1 $92 $33 $2 $-1 $95 forward single #
point $-1 40 25 -10 #
point $-1 40 -25 -10 #
face $-1 $96 $97 $2 $-1 $98 forward single #
loop $-1 $-1 $99 $37 #
plane-surface $-1 -50 0 -15 0 0 1 1 0 0 0 #
coedge $-1 $100 $101 $102 $103 0 $38 $-1 #
coedge $-1 $104 $40 $105 $106 1 $20 $-1 #
coedge $-1 $40 $104 $107 $108 1 $20 $-1 #
coedge $-1 $42 $41 $40 $71 0 $12 $-1 #
edge $-1 $109 $110 $40 $111 0 #
coedge $-1 $56 $105 $41 $73 0 $57 $-1 #
edge $-1 $109 $77 $72 $112 0 #
coedge $-1 $107 $53 $42 $75 0 $54 $-1 #
edge $-1 $76 $110 $74 $113 0 #
vertex $-1 $60 $114 #
vertex $-1 $59 $115 #
straight-curve $-1 40 0 10 0 1 0 #
coedge $-1 $116 $117 $45 $80 0 $118 $-1 #
edge $-1 $85 $82 $79 $119 0 #
coedge $-1 $46 $120 $116 $121 1 $54 $-1 #
vertex $-1 $47 $122 #
straight-curve $-1 25 -25 -15 -1 0 0 #
coedge $-1 $123 $48 $117 $124 0 $57 $-1 #
vertex $-1 $80 $125 #
straight-curve $-1 25 25 -15 1 0 -0 #
point $-1 45 -25 -15 #
point $-1 45 25 -15 #
coedge $-1 $126 $127 $128 $129 0 $54 $-1 #
face $-1 $61 $54 $2 $-1 $130 reversed single #
coedge $-1 $131 $132 $133 $134 0 $57 $-1 #
face $-1 $135 $57 $2 $-1 $136 reversed single #
straight-curve $-1 40 25 0 0 0 -1 #
straight-curve $-1 40 -25 0 -0 0 1 #
plane-surface $-1 40 0 0 1 0 0 0 0 -1 0 #
face $-1 $137 $138 $2 $-1 $139 reversed single #
loop $-1 $-1 $140 $64 #
cone-surface $-1 -45 0 10 -0 1 -0 3.53553390593274 0 3.53553390593274 1 0 -1 0 #
coedge $-1 $141 $142 $143 $144 1 $65 $-1 #
coedge $-1 $143 $67 $145 $146 1 $38 $-1 #
coedge $-1 $67 $143 $147 $148 1 $38 $-1 #
coedge $-1 $149 $150 $67 $103 1 $151 $-1 #
edge $-1 $152 $153 $102 $154 0 #
coedge $-1 $69 $68 $155 $156 1 $20 $-1 #
coedge $-1 $72 $157 $68 $106 0 $57 $-1 #
edge $-1 $158 $109 $105 $159 0 #
coedge $-1 $160 $74 $69 $108 0 $54 $-1 #
edge $-1 $110 $161 $107 $162 0 #
vertex $-1 $106 $163 #
vertex $-1 $108 $164 #
straight-curve $-1 45 0 15 0 -1 0 #
ellipse-curve $-1 45 25 10 0 -1 0 -3.53553390593274 0 3.53553390593274 1 #
ellipse-curve $-1 45 -25 10 0 1 -0 -3.53553390593274 0 3.53553390593274 1 #
point $-1 40 -25 10 #
point $-1 40 25 10 #
coedge $-1 $165 $79 $81 $121 0 $118 $-1 #
coedge $-1 $79 $165 $84 $124 1 $118 $-1 #
loop $-1 $-1 $79 $135 #
straight-curve $-1 60 0 -15 0 -1 0 #
coedge $-1 $81 $166 $167 $168 0 $54 $-1 #
edge $-1 $82 $169 $116 $170 0 #
point $-1 60 -25 -15 #
coedge $-1 $171 $84 $172 $173 0 $57 $-1 #
edge $-1 $85 $174 $117 $175 0 #
point $-1 60 25 -15 #
coedge $-1 $176 $89 $177 $178 0 $54 $-1 #
coedge $-1 $89 $179 $180 $181 0 $54 $-1 #
coedge $-1 $182 $183 $89 $129 1 $138 $-1 #
edge $-1 $184 $185 $89 $186 0 #
plane-surface $-1 0 -25 0 0 1 -0 -0 0 1 0 #
coedge $-1 $187 $91 $188 $189 1 $57 $-1 #
coedge $-1 $91 $190 $191 $192 0 $57 $-1 #
coedge $-1 $183 $182 $91 $134 1 $138 $-1 #
edge $-1 $193 $194 $91 $195 0 #
face $-1 $196 $118 $2 $-1 $197 reversed single #
plane-surface $-1 0 25 0 0 -1 0 0 0 -1 0 #
face $-1 $198 $199 $2 $-1 $200 forward single #
loop $-1 $-1 $183 $96 #
plane-surface $-1 -50 0 15 0 0 1 1 0 0 0 #
coedge $-1 $177 $191 $201 $202 0 $97 $-1 #
coedge $-1 $203 $99 $204 $205 1 $65 $-1 #
coedge $-1 $99 $203 $206 $207 1 $65 $-1 #
coedge $-1 $101 $100 $99 $144 0 $38 $-1 #
edge $-1 $208 $209 $99 $210 0 #
coedge $-1 $190 $204 $100 $146 0 $57 $-1 #
edge $-1 $208 $153 $145 $211 0 #
coedge $-1 $206 $176 $101 $148 0 $54 $-1 #
edge $-1 $152 $209 $147 $212 0 #
coedge $-1 $201 $102 $176 $213 1 $151 $-1 #
coedge $-1 $102 $201 $190 $214 1 $151 $-1 #
loop $-1 $-1 $102 $215 #
vertex $-1 $213 $216 #
vertex $-1 $214 $217 #
straight-curve $-1 -40 0 -10 0 1 0 #
coedge $-1 $218 $219 $104 $156 0 $220 $-1 #
edge $-1 $161 $158 $155 $221 0 #
coedge $-1 $105 $222 $218 $223 0 $57 $-1 #
vertex $-1 $223 $224 #
straight-curve $-1 25 25 15 -1 0 0 #
coedge $-1 $225 $107 $219 $226 1 $54 $-1 #
vertex $-1 $226 $227 #
straight-curve $-1 25 -25 15 1 -0 0 #
point $-1 45 25 15 #
point $-1 45 -25 15 #
coedge $-1 $117 $116 $228 $229 0 $118 $-1 #
coedge $-1 $120 $230 $231 $232 0 $54 $-1 #
coedge $-1 $233 $228 $120 $168 1 $234 $-1 #
edge $-1 $235 $169 $120 $236 0 #
vertex $-1 $121 $237 #
straight-curve $-1 60 -25 0 0 0 -1 #
coedge $-1 $238 $123 $239 $240 0 $57 $-1 #
coedge $-1 $228 $233 $123 $173 1 $234 $-1 #
edge $-1 $174 $241 $123 $242 0 #
vertex $-1 $124 $243 #
straight-curve $-1 60 25 0 0 0 -1 #
coedge $-1 $147 $126 $149 $213 0 $54 $-1 #
coedge $-1 $244 $140 $126 $178 1 $97 $-1 #
edge $-1 $185 $245 $126 $246 0 #
coedge $-1 $127 $247 $248 $249 0 $54 $-1 #
coedge $-1 $250 $251 $127 $181 1 $252 $-1 #
edge $-1 $253 $184 $180 $254 0 #
coedge $-1 $133 $128 $251 $255 1 $138 $-1 #
coedge $-1 $128 $133 $244 $256 1 $138 $-1 #
vertex $-1 $181 $257 #
vertex $-1 $129 $258 #
straight-curve $-1 -25 -25 15 1 -0 0 #
coedge $-1 $259 $131 $260 $261 0 $57 $-1 #
coedge $-1 $251 $250 $131 $189 0 $252 $-1 #
edge $-1 $262 $194 $131 $263 0 #
coedge $-1 $132 $145 $150 $214 0 $57 $-1 #
coedge $-1 $140 $244 $132 $192 1 $97 $-1 #
edge $-1 $264 $193 $132 $265 0 #
vertex $-1 $134 $266 #
vertex $-1 $189 $267 #
straight-curve $-1 -25 25 15 -1 0 0 #
face $-1 $268 $269 $2 $-1 $270 reversed single #
plane-surface $-1 60 0 0 -1 0 0 0 -0 1 0 #
face $-1 $271 $272 $2 $-1 $273 reversed single #
loop $-1 $-1 $274 $137 #
cone-surface $-1 15 0 -35 -0 1 -0 3.53553390593274 0 3.53553390593274 1 0 -1 0 #
coedge $-1 $150 $149 $140 $202 1 $151 $-1 #
edge $-1 $264 $245 $201 $275 0 #
coedge $-1 $142 $141 $276 $277 1 $65 $-1 #
coedge $-1 $145 $278 $141 $205 0 $57 $-1 #
edge $-1 $279 $208 $204 $280 0 #
coedge $-1 $281 $147 $142 $207 0 $54 $-1 #
edge $-1 $209 $282 $206 $283 0 #
vertex $-1 $205 $284 #
vertex $-1 $207 $285 #
straight-curve $-1 -45 0 -15 0 -1 0 #
ellipse-curve $-1 -45 25 -10 0 -1 0 3.53553390593274 0 -3.53553390593274 1 #
ellipse-curve $-1 -45 -25 -10 0 1 -0 3.53553390593274 0 -3.53553390593274 1 #
edge $-1 $245 $152 $176 $286 0 #
edge $-1 $153 $264 $190 $287 0 #
face $-1 $288 $151 $2 $-1 $289 forward single #
point $-1 -40 -25 -10 #
point $-1 -40 25 -10 #
coedge $-1 $290 $155 $157 $223 1 $220 $-1 #
coedge $-1 $155 $290 $160 $226 0 $220 $-1 #
loop $-1 $-1 $155 $291 #
straight-curve $-1 60 0 15 0 1 -0 #
coedge $-1 $157 $292 $293 $294 0 $57 $-1 #
edge $-1 $295 $158 $218 $175 0 #
point $-1 60 25 15 #
coedge $-1 $296 $160 $297 $298 0 $54 $-1 #
edge $-1 $299 $161 $219 $170 0 #
point $-1 60 -25 15 #
coedge $-1 $167 $172 $165 $229 1 $234 $-1 #
edge $-1 $169 $174 $165 $300 0 #
coedge $-1 $166 $301 $302 $303 0 $54 $-1 #
coedge $-1 $304 $305 $166 $232 1 $306 $-1 #
edge $-1 $307 $235 $166 $308 0 #
coedge $-1 $172 $167 $305 $309 0 $234 $-1 #
loop $-1 $-1 $172 $310 #
vertex $-1 $232 $311 #
straight-curve $-1 30 -25 -30 1 -0 0 #
point $-1 60 -25 -30 #
coedge $-1 $312 $171 $313 $314 0 $57 $-1 #
coedge $-1 $305 $304 $171 $240 1 $306 $-1 #
edge $-1 $241 $315 $171 $316 0 #
vertex $-1 $240 $317 #
straight-curve $-1 30 25 -30 -1 0 0 #
point $-1 60 25 -30 #
coedge $-1 $191 $177 $183 $256 0 $97 $-1 #
vertex $-1 $213 $318 #
ellipse-curve $-1 -45 -25 10 0 1 -0 3.53553390593274 0 3.53553390593274 1 #
coedge $-1 $179 $319 $320 $321 0 $54 $-1 #
coedge $-1 $322 $323 $179 $249 1 $324 $-1 #
edge $-1 $325 $253 $179 $326 0 #
coedge $-1 $188 $180 $323 $327 0 $252 $-1 #
coedge $-1 $180 $188 $182 $255 0 $252 $-1 #
loop $-1 $-1 $251 $328 #
vertex $-1 $249 $329 #
straight-curve $-1 -60 -25 0 0 0 -1 #
edge $-1 $194 $184 $251 $330 0 #
edge $-1 $185 $193 $183 $331 0 #
point $-1 -60 -25 15 #
point $-1 -45 -25 15 #
coedge $-1 $332 $187 $333 $334 0 $57 $-1 #
coedge $-1 $323 $322 $187 $261 1 $324 $-1 #
edge $-1 $262 $335 $187 $336 0 #
vertex $-1 $327 $337 #
straight-curve $-1 -60 25 0 0 0 -1 #
vertex $-1 $214 $338 #
ellipse-curve $-1 -45 25 10 0 -1 0 3.53553390593274 0 3.53553390593274 1 #
point $-1 -45 25 15 #
point $-1 -60 25 15 #
face $-1 $339 $340 $2 $-1 $341 reversed single #
loop $-1 $342 $343 $196 #
cone-surface $-1 0 0 0 0 0 1 5 0 0 1 0 1 0 #
face $-1 $344 $345 $2 $-1 $346 forward single #
loop $-1 $347 $348 $198 #
plane-surface $-1 0 0 -30 0 0 1 1 0 0 0 #
coedge $-1 $349 $350 $351 $352 0 $199 $-1 #
straight-curve $-1 -40 0 10 -0 -1 -0 #
coedge $-1 $353 $354 $203 $277 0 $355 $-1 #
edge $-1 $282 $279 $276 $356 0 #
coedge $-1 $204 $357 $353 $358 1 $57 $-1 #
vertex $-1 $277 $359 #
straight-curve $-1 -25 25 -15 1 0 -0 #
coedge $-1 $360 $206 $354 $361 0 $54 $-1 #
vertex $-1 $207 $362 #
straight-curve $-1 -25 -25 -15 -1 0 0 #
point $-1 -45 25 -15 #
point $-1 -45 -25 -15 #
straight-curve $-1 -40 -25 0 -0 0 -1 #
straight-curve $-1 -40 25 0 0 0 1 #
face $-1 $328 $355 $2 $-1 $363 reversed single #
plane-surface $-1 -40 0 0 -1 0 0 0 0 1 0 #
coedge $-1 $219 $218 $364 $365 0 $220 $-1 #
face $-1 $-1 $220 $2 $-1 $197 reversed single #
coedge $-1 $222 $366 $367 $368 0 $57 $-1 #
coedge $-1 $369 $364 $222 $294 1 $370 $-1 #
edge $-1 $371 $295 $222 $372 0 #
vertex $-1 $294 $373 #
coedge $-1 $374 $225 $375 $376 0 $54 $-1 #
coedge $-1 $364 $369 $225 $298 1 $370 $-1 #
edge $-1 $299 $377 $225 $378 0 #
vertex $-1 $298 $379 #
straight-curve $-1 60 0 -30 0 1 -0 #
coedge $-1 $230 $380 $381 $382 1 $54 $-1 #
coedge $-1 $383 $384 $230 $303 1 $385 $-1 #
edge $-1 $386 $307 $230 $387 0 #
coedge $-1 $239 $231 $384 $388 1 $306 $-1 #
coedge $-1 $231 $239 $233 $309 1 $306 $-1 #
loop $-1 $-1 $239 $389 #
vertex $-1 $232 $390 #
ellipse-curve $-1 42.5 -25 -32.5 0 1 -0 -1.76776695296637 0 1.76776695296637 1 #
edge $-1 $235 $241 $233 $391 0 #
face $-1 $392 $234 $2 $-1 $393 reversed single #
point $-1 42.5 -25 -30 #
coedge $-1 $394 $238 $395 $396 1 $57 $-1 #
coedge $-1 $384 $383 $238 $314 1 $385 $-1 #
edge $-1 $315 $397 $238 $398 0 #
vertex $-1 $240 $399 #
ellipse-curve $-1 42.5 25 -32.5 0 -1 0 -1.76776695296637 0 1.76776695296637 1 #
point $-1 42.5 25 -30 #
point $-1 -40 -25 10 #
coedge $-1 $247 $400 $401 $402 0 $54 $-1 #
coedge $-1 $403 $404 $247 $321 1 $405 $-1 #
edge $-1 $406 $325 $247 $407 0 #
coedge $-1 $260 $248 $404 $408 0 $324 $-1 #
coedge $-1 $248 $260 $250 $327 1 $324 $-1 #
loop $-1 $-1 $260 $409 #
vertex $-1 $249 $410 #
straight-curve $-1 -30 -25 30 -1 0 0 #
edge $-1 $253 $262 $250 $411 0 #
face $-1 $90 $252 $2 $-1 $363 reversed single #
point $-1 -60 -25 30 #
straight-curve $-1 -60 0 15 0 -1 0 #
straight-curve $-1 -45 0 15 0 1 0 #
coedge $-1 $412 $259 $413 $414 0 $57 $-1 #
coedge $-1 $404 $403 $259 $334 1 $405 $-1 #
edge $-1 $335 $415 $259 $416 0 #
vertex $-1 $261 $417 #
straight-curve $-1 -30 25 30 1 0 -0 #
point $-1 -60 25 30 #
point $-1 -40 25 10 #
face $-1 $418 $419 $2 $-1 $341 reversed single #
loop $-1 $420 $421 $268 #
cone-surface $-1 0 0 -40 1 0 -3.49148133884313e-15 -1.74574066942157e-14 0 -5 1 0 1 0 #
loop $-1 $-1 $422 $196 #
coedge $-1 $343 $343 $348 $423 1 $269 $-1 #
face $-1 $424 $425 $2 $-1 $426 forward single #
loop $-1 $-1 $427 $271 #
cone-surface $-1 -15 0 -35 -0 -1 0 -3.53553390593274 0 3.53553390593274 1 0 -1 0 #
loop $-1 $-1 $428 $198 #
coedge $-1 $348 $348 $343 $423 0 $272 $-1 #
coedge $-1 $429 $274 $430 $431 0 $199 $-1 #
coedge $-1 $274 $432 $433 $434 1 $199 $-1 #
coedge $-1 $435 $436 $274 $352 1 $437 $-1 #
edge $-1 $438 $439 $351 $440 0 #
coedge $-1 $441 $276 $278 $358 0 $355 $-1 #
coedge $-1 $276 $441 $281 $361 1 $355 $-1 #
loop $-1 $-1 $276 $288 #
straight-curve $-1 -60 0 -15 0 1 0 #
coedge $-1 $278 $442 $443 $444 0 $57 $-1 #
edge $-1 $279 $445 $278 $263 0 #
point $-1 -60 25 -15 #
coedge $-1 $446 $281 $447 $448 0 $54 $-1 #
edge $-1 $282 $449 $354 $254 0 #
point $-1 -60 -25 -15 #
plane-surface $-1 -60 0 0 1 0 0 0 0 -1 0 #
coedge $-1 $293 $297 $290 $365 1 $370 $-1 #
edge $-1 $295 $299 $290 $450 0 #
coedge $-1 $292 $451 $452 $453 0 $57 $-1 #
coedge $-1 $454 $455 $292 $368 1 $456 $-1 #
edge $-1 $457 $371 $292 $458 0 #
coedge $-1 $297 $293 $455 $459 0 $370 $-1 #
loop $-1 $-1 $293 $460 #
vertex $-1 $368 $461 #
straight-curve $-1 30 25 30 1 0 -0 #
point $-1 60 25 30 #
coedge $-1 $462 $296 $463 $464 0 $54 $-1 #
coedge $-1 $455 $454 $296 $376 1 $456 $-1 #
edge $-1 $377 $465 $296 $466 0 #
vertex $-1 $376 $467 #
straight-curve $-1 30 -25 30 -1 0 0 #
point $-1 60 -25 30 #
coedge $-1 $301 $468 $469 $470 0 $54 $-1 #
coedge $-1 $471 $472 $301 $382 0 $473 $-1 #
edge $-1 $386 $474 $301 $475 0 #
coedge $-1 $313 $302 $472 $476 1 $385 $-1 #
coedge $-1 $302 $313 $304 $388 0 $385 $-1 #
loop $-1 $-1 $313 $477 #
vertex $-1 $303 $478 #
straight-curve $-1 40 -25 -25 -0 0 1 #
edge $-1 $315 $307 $384 $479 0 #
face $-1 $310 $306 $2 $-1 $480 reversed single #
point $-1 40 -25 -32.5 #
straight-curve $-1 42.5 0 -30 0 1 0 #
face $-1 $460 $473 $2 $-1 $481 reversed single #
plane-surface $-1 60 0 -30 0 0 1 1 0 0 0 #
coedge $-1 $433 $312 $435 $482 0 $57 $-1 #
coedge $-1 $472 $471 $312 $396 0 $473 $-1 #
edge $-1 $483 $397 $312 $484 0 #
vertex $-1 $396 $485 #
straight-curve $-1 40 25 -25 0 0 -1 #
point $-1 40 25 -32.5 #
coedge $-1 $319 $486 $487 $488 1 $54 $-1 #
coedge $-1 $489 $490 $319 $402 1 $491 $-1 #
edge $-1 $492 $406 $319 $493 0 #
coedge $-1 $333 $320 $490 $494 1 $405 $-1 #
coedge $-1 $320 $333 $322 $408 1 $405 $-1 #
loop $-1 $-1 $333 $495 #
vertex $-1 $321 $496 #
ellipse-curve $-1 -42.5 -25 32.5 0 1 -0 1.76776695296637 0 -1.76776695296637 1 #
edge $-1 $325 $335 $322 $497 0 #
face $-1 $495 $324 $2 $-1 $498 forward single #
point $-1 -42.5 -25 30 #
straight-curve $-1 -60 0 30 0 1 0 #
coedge $-1 $499 $332 $500 $501 1 $57 $-1 #
coedge $-1 $490 $489 $332 $414 1 $491 $-1 #
edge $-1 $415 $502 $332 $503 0 #
vertex $-1 $334 $504 #
ellipse-curve $-1 -42.5 25 32.5 0 -1 0 1.76776695296637 0 -1.76776695296637 1 #
point $-1 -42.5 25 30 #
face $-1 $505 $506 $2 $-1 $507 reversed single #
loop $-1 $508 $509 $339 #
loop $-1 $-1 $510 $268 #
coedge $-1 $421 $421 $511 $512 1 $340 $-1 #
coedge $-1 $422 $422 $513 $514 1 $342 $-1 #
edge $-1 $515 $515 $348 $516 0 #
face $-1 $517 $518 $2 $-1 $519 forward single #
loop $-1 $-1 $520 $344 #
cone-surface $-1 -15 0 35 0 1 0 -3.53553390593274 0 -3.53553390593274 1 0 -1 0 #
coedge $-1 $521 $522 $523 $524 0 $345 $-1 #
coedge $-1 $525 $526 $432 $527 1 $347 $-1 #
coedge $-1 $432 $349 $468 $528 1 $199 $-1 #
coedge $-1 $436 $469 $349 $431 1 $437 $-1 #
edge $-1 $439 $529 $430 $440 0 #
coedge $-1 $350 $429 $428 $527 0 $199 $-1 #
coedge $-1 $530 $394 $350 $434 0 $57 $-1 #
edge $-1 $438 $531 $433 $532 0 #
coedge $-1 $533 $351 $394 $482 1 $437 $-1 #
coedge $-1 $351 $430 $510 $534 0 $437 $-1 #
loop $-1 $-1 $351 $535 #
vertex $-1 $482 $536 #
vertex $-1 $534 $537 #
straight-curve $-1 20 0 -35 -0 -1 -0 #
coedge $-1 $354 $353 $538 $539 0 $355 $-1 #
coedge $-1 $357 $540 $541 $542 0 $57 $-1 #
coedge $-1 $543 $538 $357 $444 1 $544 $-1 #
edge $-1 $545 $445 $357 $546 0 #
vertex $-1 $358 $547 #
coedge $-1 $548 $360 $549 $550 0 $54 $-1 #
coedge $-1 $538 $543 $360 $448 1 $544 $-1 #
edge $-1 $449 $551 $360 $552 0 #
vertex $-1 $361 $553 #
straight-curve $-1 60 0 30 0 -1 0 #
coedge $-1 $366 $554 $555 $556 1 $57 $-1 #
coedge $-1 $557 $558 $366 $453 1 $559 $-1 #
edge $-1 $560 $457 $366 $561 0 #
coedge $-1 $375 $367 $558 $562 1 $456 $-1 #
coedge $-1 $367 $375 $369 $459 1 $456 $-1 #
loop $-1 $-1 $367 $563 #
vertex $-1 $368 $564 #
ellipse-curve $-1 42.5 25 32.5 0 -1 0 -1.76776695296637 0 -1.76776695296637 1 #
edge $-1 $371 $377 $369 $565 0 #
face $-1 $563 $370 $2 $-1 $566 forward single #
point $-1 42.5 25 30 #
coedge $-1 $567 $374 $568 $569 1 $54 $-1 #
coedge $-1 $558 $557 $374 $464 1 $559 $-1 #
edge $-1 $465 $570 $374 $571 0 #
vertex $-1 $376 $572 #
ellipse-curve $-1 42.5 -25 32.5 0 1 -0 -1.76776695296637 0 -1.76776695296637 1 #
point $-1 42.5 -25 30 #
coedge $-1 $380 $573 $429 $528 0 $54 $-1 #
coedge $-1 $430 $533 $380 $470 1 $437 $-1 #
edge $-1 $529 $474 $380 $574 0 #
coedge $-1 $395 $381 $533 $575 0 $473 $-1 #
coedge $-1 $381 $395 $383 $476 0 $473 $-1 #
loop $-1 $-1 $471 $392 #
vertex $-1 $382 $576 #
straight-curve $-1 0 -25 -50 -1 0 0 #
edge $-1 $397 $386 $472 $577 0 #
face $-1 $389 $578 $2 $-1 $579 forward single #
point $-1 40 -25 -50 #
straight-curve $-1 40 0 -32.5 0 -1 0 #
cone-surface $-1 42.5 0 -32.5 0 -1 0 -1.76776695296637 0 1.76776695296637 1 0 1 0 #
plane-surface $-1 0 0 -50 0 0 1 1 0 0 0 #
edge $-1 $483 $438 $394 $580 0 #
vertex $-1 $575 $581 #
straight-curve $-1 0 25 -50 1 0 0 #
point $-1 40 25 -50 #
coedge $-1 $400 $582 $583 $584 0 $54 $-1 #
coedge $-1 $585 $586 $400 $488 0 $587 $-1 #
edge $-1 $492 $588 $400 $589 0 #
coedge $-1 $413 $401 $586 $590 1 $491 $-1 #
coedge $-1 $401 $413 $403 $494 0 $491 $-1 #
loop $-1 $-1 $413 $591 #
vertex $-1 $402 $592 #
straight-curve $-1 -40 -25 25 -0 0 -1 #
edge $-1 $415 $406 $490 $593 0 #
face $-1 $594 $405 $2 $-1 $595 reversed single #
point $-1 -40 -25 32.5 #
straight-curve $-1 -42.5 0 30 0 1 0 #
plane-surface $-1 -60 0 30 0 0 1 1 0 0 0 #
coedge $-1 $596 $412 $597 $598 0 $57 $-1 #
coedge $-1 $586 $585 $412 $501 0 $587 $-1 #
edge $-1 $599 $502 $412 $600 0 #
vertex $-1 $501 $601 #
straight-curve $-1 -40 25 25 0 0 1 #
point $-1 -40 25 32.5 #
face $-1 $602 $603 $2 $-1 $507 reversed single #
loop $-1 $604 $605 $418 #
cone-surface $-1 0 0 40 1 0 -3.49148133884313e-15 -1.74574066942157e-14 0 -5 1 0 1 0 #
loop $-1 $-1 $606 $339 #
coedge $-1 $509 $509 $607 $608 1 $419 $-1 #
coedge $-1 $510 $510 $436 $534 1 $420 $-1 #
coedge $-1 $511 $511 $421 $512 0 $578 $-1 #
edge $-1 $609 $609 $511 $610 0 #
coedge $-1 $513 $513 $422 $514 0 $518 $-1 #
edge $-1 $611 $611 $513 $612 0 #
vertex $-1 $423 $613 #
ellipse-curve $-1 0 0 -30 0 0 1 5 0 0 1 #
face $-1 $215 $614 $2 $-1 $615 forward single #
loop $-1 $616 $513 $424 #
plane-surface $-1 0 0 30 0 0 1 1 0 0 0 #
coedge $-1 $617 $618 $619 $620 0 $425 $-1 #
coedge $-1 $621 $427 $622 $623 0 $345 $-1 #
coedge $-1 $427 $624 $625 $626 1 $345 $-1 #
coedge $-1 $627 $607 $427 $524 1 $628 $-1 #
edge $-1 $629 $630 $523 $631 0 #
coedge $-1 $632 $428 $573 $633 1 $347 $-1 #
coedge $-1 $428 $632 $530 $634 1 $347 $-1 #
edge $-1 $635 $531 $428 $636 0 #
edge $-1 $635 $529 $468 $637 0 #
vertex $-1 $470 $638 #
coedge $-1 $639 $433 $526 $634 0 $57 $-1 #
vertex $-1 $634 $640 #
ellipse-curve $-1 15 25 -35 0 -1 0 3.53553390593274 0 3.53553390593274 1 #
coedge $-1 $469 $435 $471 $575 1 $437 $-1 #
edge $-1 $439 $439 $436 $641 0 #
face $-1 $642 $437 $2 $-1 $643 forward single #
point $-1 20 25 -35 #
point $-1 20 3.49148133884313e-14 -35.0000000000001 #
coedge $-1 $443 $447 $441 $539 1 $544 $-1 #
edge $-1 $445 $449 $441 $644 0 #
coedge $-1 $442 $645 $646 $647 0 $57 $-1 #
coedge $-1 $648 $649 $442 $542 1 $650 $-1 #
edge $-1 $651 $545 $442 $652 0 #
coedge $-1 $447 $443 $649 $653 0 $544 $-1 #
loop $-1 $-1 $443 $654 #
vertex $-1 $444 $655 #
straight-curve $-1 -30 25 -30 -1 0 0 #
point $-1 -60 25 -30 #
coedge $-1 $656 $446 $657 $658 0 $54 $-1 #
coedge $-1 $649 $648 $446 $550 1 $650 $-1 #
edge $-1 $551 $659 $446 $660 0 #
vertex $-1 $448 $661 #
straight-curve $-1 -30 -25 -30 1 -0 0 #
point $-1 -60 -25 -30 #
coedge $-1 $451 $662 $663 $664 0 $57 $-1 #
coedge $-1 $665 $666 $451 $556 0 $667 $-1 #
edge $-1 $560 $668 $451 $600 0 #
coedge $-1 $463 $452 $666 $669 1 $559 $-1 #
coedge $-1 $452 $463 $454 $562 0 $559 $-1 #
loop $-1 $-1 $452 $670 #
vertex $-1 $669 $671 #
straight-curve $-1 40 25 25 0 0 -1 #
edge $-1 $465 $457 $558 $672 0 #
face $-1 $670 $456 $2 $-1 $673 reversed single #
point $-1 40 25 32.5 #
straight-curve $-1 42.5 0 30 -0 -1 -0 #
plane-surface $-1 60 0 30 0 0 1 1 0 0 0 #
coedge $-1 $674 $462 $675 $676 0 $54 $-1 #
coedge $-1 $666 $665 $462 $569 0 $667 $-1 #
edge $-1 $677 $570 $462 $589 0 #
vertex $-1 $569 $678 #
straight-curve $-1 40 -25 25 -0 0 1 #
point $-1 40 -25 32.5 #
coedge $-1 $468 $625 $525 $633 0 $54 $-1 #
straight-curve $-1 20 -25 -20 -0 0 -1 #
edge $-1 $474 $483 $471 $679 0 #
point $-1 20 -25 -50 #
straight-curve $-1 40 0 -50 0 -1 0 #
loop $-1 $385 $511 $477 #
plane-surface $-1 40 0 -50 1 0 0 0 0 -1 0 #
straight-curve $-1 20 25 -20 0 0 1 #
point $-1 20 25 -50 #
coedge $-1 $486 $680 $681 $682 0 $54 $-1 #
coedge $-1 $683 $684 $486 $584 1 $685 $-1 #
edge $-1 $686 $588 $486 $687 0 #
coedge $-1 $500 $487 $684 $688 0 $587 $-1 #
coedge $-1 $487 $500 $489 $590 0 $587 $-1 #
loop $-1 $-1 $585 $594 #
vertex $-1 $488 $689 #
straight-curve $-1 0 -25 50 1 0 0 #
edge $-1 $502 $492 $586 $690 0 #
face $-1 $409 $691 $2 $-1 $692 forward single #
point $-1 -40 -25 50 #
straight-curve $-1 -40 0 32.5 0 -1 0 #
face $-1 $477 $587 $2 $-1 $693 forward single #
cone-surface $-1 -42.5 0 32.5 0 -1 0 1.76776695296637 0 -1.76776695296637 1 0 1 0 #
coedge $-1 $694 $499 $618 $695 0 $57 $-1 #
coedge $-1 $684 $619 $499 $598 1 $685 $-1 #
edge $-1 $599 $696 $499 $697 0 #
vertex $-1 $688 $698 #
straight-curve $-1 0 25 50 -1 0 0 #
point $-1 -40 25 50 #
face $-1 $535 $628 $2 $-1 $699 forward single #
loop $-1 $700 $701 $505 #
loop $-1 $-1 $702 $418 #
coedge $-1 $605 $605 $703 $704 1 $506 $-1 #
coedge $-1 $606 $606 $705 $706 1 $508 $-1 #
coedge $-1 $523 $622 $509 $608 0 $628 $-1 #
edge $-1 $630 $630 $607 $707 0 #
vertex $-1 $512 $708 #
ellipse-curve $-1 40 0 -40.0000000000001 -1 -0 -0 -1.74574066942157e-14 0 -5 1 #
vertex $-1 $514 $709 #
ellipse-curve $-1 0 0 30 -0 -0 -1 5 0 0 1 #
point $-1 -5 3.49148133884313e-14 -30 #
loop $-1 $-1 $710 $517 #
cone-surface $-1 15 0 35 0 -1 -0 3.53553390593274 0 -3.53553390593274 1 0 -1 0 #
loop $-1 $-1 $711 $424 #
coedge $-1 $681 $520 $683 $712 0 $425 $-1 #
coedge $-1 $520 $713 $596 $695 1 $425 $-1 #
coedge $-1 $597 $714 $520 $620 1 $685 $-1 #
edge $-1 $696 $715 $619 $716 0 #
coedge $-1 $624 $521 $639 $717 1 $345 $-1 #
coedge $-1 $607 $718 $521 $623 1 $628 $-1 #
edge $-1 $630 $719 $622 $631 0 #
coedge $-1 $522 $621 $632 $720 0 $345 $-1 #
coedge $-1 $573 $721 $522 $626 0 $54 $-1 #
edge $-1 $629 $722 $625 $723 0 #
coedge $-1 $724 $523 $721 $725 1 $628 $-1 #
loop $-1 $-1 $523 $602 #
vertex $-1 $725 $726 #
vertex $-1 $608 $727 #
straight-curve $-1 -20 0 -35 0 1 0 #
coedge $-1 $526 $525 $624 $720 1 $347 $-1 #
edge $-1 $722 $635 $573 $728 0 #
edge $-1 $531 $729 $530 $730 0 #
vertex $-1 $633 $731 #
straight-curve $-1 15 0 -30 0 1 0 #
ellipse-curve $-1 15 -25 -35 0 1 -0 3.53553390593274 0 3.53553390593274 1 #
point $-1 20 -25 -35 #
coedge $-1 $732 $530 $621 $717 0 $57 $-1 #
point $-1 15 25 -30 #
ellipse-curve $-1 20 0 -40.0000000000001 1 -0 -0 -1.74574066942157e-14 0 -5 1 #
face $-1 $733 $734 $2 $-1 $481 reversed single #
plane-surface $-1 20 0 -40 -1 0 0 0 0 1 0 #
straight-curve $-1 -60 0 -30 0 -1 0 #
coedge $-1 $540 $732 $735 $736 1 $57 $-1 #
coedge $-1 $737 $738 $540 $647 1 $739 $-1 #
edge $-1 $740 $651 $540 $741 0 #
coedge $-1 $549 $541 $738 $742 1 $650 $-1 #
coedge $-1 $541 $549 $543 $653 1 $650 $-1 #
loop $-1 $-1 $541 $743 #
vertex $-1 $542 $744 #
ellipse-curve $-1 -42.5 25 -32.5 0 -1 0 1.76776695296637 0 1.76776695296637 1 #
edge $-1 $545 $551 $543 $745 0 #
face $-1 $743 $544 $2 $-1 $746 reversed single #
point $-1 -42.5 25 -30 #
coedge $-1 $721 $548 $747 $748 1 $54 $-1 #
coedge $-1 $738 $737 $548 $658 1 $739 $-1 #
edge $-1 $659 $749 $548 $750 0 #
vertex $-1 $550 $751 #
ellipse-curve $-1 -42.5 -25 -32.5 0 1 -0 1.76776695296637 0 1.76776695296637 1 #
point $-1 -42.5 -25 -30 #
coedge $-1 $554 $694 $752 $753 0 $57 $-1 #
coedge $-1 $754 $755 $554 $664 1 $756 $-1 #
edge $-1 $757 $668 $554 $758 0 #
coedge $-1 $568 $555 $755 $759 0 $667 $-1 #
coedge $-1 $555 $568 $557 $669 0 $667 $-1 #
loop $-1 $-1 $665 $760 #
vertex $-1 $556 $761 #
edge $-1 $570 $560 $666 $762 0 #
face $-1 $291 $763 $2 $-1 $764 forward single #
point $-1 40 25 50 #
straight-curve $-1 40 0 32.5 0 1 0 #
cone-surface $-1 42.5 0 32.5 0 1 0 -1.76776695296637 0 -1.76776695296637 1 0 1 0 #
coedge $-1 $680 $567 $765 $766 0 $54 $-1 #
coedge $-1 $755 $767 $567 $676 1 $756 $-1 #
edge $-1 $677 $768 $567 $769 0 #
vertex $-1 $676 $770 #
point $-1 40 -25 50 #
straight-curve $-1 20 0 -50 0 1 -0 #
coedge $-1 $582 $674 $771 $772 0 $54 $-1 #
coedge $-1 $713 $617 $582 $682 1 $425 $-1 #
edge $-1 $773 $686 $582 $774 0 #
coedge $-1 $775 $583 $617 $712 1 $685 $-1 #
coedge $-1 $583 $597 $585 $688 1 $685 $-1 #
loop $-1 $-1 $619 $733 #
vertex $-1 $584 $776 #
straight-curve $-1 -20 -25 20 -0 0 1 #
edge $-1 $588 $599 $585 $777 0 #
point $-1 -20 -25 50 #
straight-curve $-1 -40 0 50 0 -1 0 #
loop $-1 $491 $778 $591 #
plane-surface $-1 -40 0 50 -1 0 0 0 0 1 0 #
plane-surface $-1 0 0 50 0 0 1 1 0 0 0 #
coedge $-1 $662 $596 $779 $780 0 $57 $-1 #
edge $-1 $696 $781 $596 $782 0 #
vertex $-1 $598 $783 #
straight-curve $-1 -20 25 20 0 0 -1 #
point $-1 -20 25 50 #
plane-surface $-1 -20 0 -40 1 0 0 0 0 -1 0 #
loop $-1 $-1 $784 $505 #
coedge $-1 $785 $785 $714 $786 1 $603 $-1 #
coedge $-1 $787 $787 $788 $789 1 $604 $-1 #
coedge $-1 $703 $703 $605 $704 0 $763 $-1 #
edge $-1 $790 $790 $703 $791 0 #
coedge $-1 $705 $705 $606 $706 0 $792 $-1 #
edge $-1 $793 $793 $705 $794 0 #
ellipse-curve $-1 -20 0 -39.9999999999999 -1 -0 -0 -1.74574066942157e-14 0 -5 1 #
point $-1 40 -3.49148133884313e-14 -35.0000000000001 #
point $-1 -5 -3.49148133884313e-14 30 #
coedge $-1 $795 $765 $767 $796 0 $614 $-1 #
coedge $-1 $771 $779 $713 $797 1 $616 $-1 #
edge $-1 $715 $686 $683 $716 0 #
coedge $-1 $618 $681 $711 $797 0 $425 $-1 #
coedge $-1 $619 $775 $701 $786 0 $685 $-1 #
vertex $-1 $786 $798 #
straight-curve $-1 -20 0 35 -0 -1 -0 #
edge $-1 $729 $719 $639 $799 0 #
coedge $-1 $622 $724 $732 $800 1 $628 $-1 #
vertex $-1 $800 $801 #
edge $-1 $729 $722 $632 $802 0 #
coedge $-1 $625 $656 $627 $725 0 $54 $-1 #
vertex $-1 $633 $803 #
ellipse-curve $-1 -15 -25 -35 0 1 -0 -3.53553390593274 0 3.53553390593274 1 #
coedge $-1 $718 $627 $804 $805 1 $628 $-1 #
edge $-1 $806 $629 $721 $807 0 #
point $-1 -20 -25 -35 #
point $-1 -20 -3.49148133884313e-14 -34.9999999999999 #
straight-curve $-1 0 -25 -30 1 -0 0 #
vertex $-1 $634 $808 #
straight-curve $-1 0 25 -30 -1 0 0 #
point $-1 15 -25 -30 #
coedge $-1 $645 $639 $718 $800 0 $57 $-1 #
face $-1 $809 $685 $2 $-1 $810 forward single #
loop $-1 $-1 $804 $642 #
coedge $-1 $804 $811 $645 $736 0 $734 $-1 #
edge $-1 $740 $812 $645 $484 0 #
coedge $-1 $657 $646 $811 $813 1 $739 $-1 #
coedge $-1 $646 $657 $648 $742 0 $739 $-1 #
loop $-1 $-1 $646 $814 #
vertex $-1 $813 $815 #
straight-curve $-1 -40 25 -25 0 0 1 #
edge $-1 $659 $651 $738 $816 0 #
face $-1 $814 $650 $2 $-1 $817 reversed single #
point $-1 -40 25 -32.5 #
straight-curve $-1 -42.5 0 -30 -0 -1 -0 #
plane-surface $-1 -60 0 -30 0 0 1 1 0 0 0 #
coedge $-1 $811 $804 $656 $748 0 $734 $-1 #
edge $-1 $806 $749 $656 $475 0 #
vertex $-1 $748 $818 #
straight-curve $-1 -40 -25 -25 -0 0 -1 #
point $-1 -40 -25 -32.5 #
coedge $-1 $819 $795 $662 $753 1 $614 $-1 #
edge $-1 $820 $757 $662 $821 0 #
coedge $-1 $822 $663 $795 $823 1 $756 $-1 #
coedge $-1 $663 $675 $665 $759 1 $756 $-1 #
loop $-1 $-1 $767 $809 #
vertex $-1 $664 $824 #
straight-curve $-1 20 25 20 0 0 1 #
edge $-1 $668 $677 $665 $825 0 #
face $-1 $654 $667 $2 $-1 $693 forward single #
point $-1 20 25 50 #
straight-curve $-1 40 0 50 0 1 0 #
loop $-1 $559 $703 $670 #
plane-surface $-1 40 0 50 1 0 0 0 0 -1 0 #
coedge $-1 $710 $819 $674 $766 1 $614 $-1 #
edge $-1 $768 $826 $674 $827 0 #
coedge $-1 $675 $788 $710 $796 1 $756 $-1 #
vertex $-1 $676 $828 #
straight-curve $-1 20 -25 20 -0 0 -1 #
point $-1 20 -25 50 #
coedge $-1 $829 $711 $680 $772 1 $616 $-1 #
edge $-1 $826 $773 $680 $830 0 #
vertex $-1 $772 $831 #
ellipse-curve $-1 -15 -25 35 0 1 -0 -3.53553390593274 0 -3.53553390593274 1 #
coedge $-1 $714 $683 $785 $832 0 $685 $-1 #
point $-1 -20 -25 35 #
straight-curve $-1 -20 0 50 0 1 0 #
coedge $-1 $778 $778 $784 $833 0 $691 $-1 #
coedge $-1 $711 $829 $694 $780 1 $616 $-1 #
edge $-1 $781 $820 $694 $834 0 #
vertex $-1 $780 $835 #
ellipse-curve $-1 -15 25 35 0 -1 0 -3.53553390593274 0 -3.53553390593274 1 #
point $-1 -20 25 35 #
coedge $-1 $784 $784 $778 $833 1 $700 $-1 #
coedge $-1 $701 $701 $775 $832 1 $603 $-1 #
edge $-1 $836 $715 $714 $837 0 #
coedge $-1 $702 $702 $822 $838 1 $604 $-1 #
coedge $-1 $767 $822 $702 $789 0 $756 $-1 #
edge $-1 $839 $840 $788 $841 0 #
vertex $-1 $704 $842 #
ellipse-curve $-1 40 0 39.9999999999999 -1 -0 -0 -1.74574066942157e-14 0 -5 1 #
loop $-1 $739 $705 $814 #
vertex $-1 $706 $843 #
ellipse-curve $-1 -40 0 -39.9999999999999 1 -0 -0 -1.74574066942157e-14 0 -5 1 #
coedge $-1 $752 $710 $754 $823 0 $614 $-1 #
edge $-1 $768 $840 $767 $844 0 #
edge $-1 $773 $781 $711 $845 0 #
point $-1 -20 0 35 #
ellipse-curve $-1 -15 25 -35 0 -1 0 -3.53553390593274 0 3.53553390593274 1 #
edge $-1 $719 $812 $732 $846 0 #
point $-1 -20 25 -35 #
straight-curve $-1 -15 0 -30 0 -1 0 #
point $-1 -15 -25 -30 #
coedge $-1 $747 $735 $724 $805 0 $734 $-1 #
edge $-1 $812 $806 $804 $847 0 #
vertex $-1 $805 $848 #
straight-curve $-1 -20 -25 -20 -0 0 1 #
point $-1 -15 25 -30 #
face $-1 $760 $756 $2 $-1 $849 forward single #
plane-surface $-1 -20 0 40 1 0 0 0 0 -1 0 #
coedge $-1 $735 $747 $737 $813 0 $734 $-1 #
vertex $-1 $736 $850 #
edge $-1 $749 $740 $811 $851 0 #
face $-1 $591 $792 $2 $-1 $852 forward single #
point $-1 -40 25 -50 #
straight-curve $-1 -40 0 -32.5 0 1 0 #
cone-surface $-1 -42.5 0 -32.5 0 1 0 1.76776695296637 0 1.76776695296637 1 0 1 0 #
point $-1 -40 -25 -50 #
coedge $-1 $765 $752 $829 $853 0 $614 $-1 #
vertex $-1 $780 $854 #
ellipse-curve $-1 15 25 35 0 -1 0 3.53553390593274 0 -3.53553390593274 1 #
coedge $-1 $788 $754 $787 $838 0 $756 $-1 #
edge $-1 $840 $757 $754 $844 0 #
point $-1 20 25 35 #
straight-curve $-1 20 0 50 0 -1 0 #
vertex $-1 $772 $855 #
ellipse-curve $-1 15 -25 35 0 1 -0 3.53553390593274 0 -3.53553390593274 1 #
point $-1 20 -25 35 #
coedge $-1 $779 $771 $819 $853 1 $616 $-1 #
straight-curve $-1 0 -25 30 -1 0 0 #
point $-1 -15 -25 30 #
edge $-1 $715 $836 $775 $837 0 #
edge $-1 $856 $856 $778 $857 0 #
straight-curve $-1 0 25 30 1 0 -0 #
point $-1 -15 25 30 #
vertex $-1 $832 $858 #
ellipse-curve $-1 -20 0 40.0000000000001 -1 -0 -0 -1.74574066942157e-14 0 -5 1 #
edge $-1 $840 $839 $822 $841 0 #
vertex $-1 $838 $859 #
vertex $-1 $789 $860 #
ellipse-curve $-1 20 0 39.9999999999999 1 -0 -0 -1.74574066942157e-14 0 -5 1 #
point $-1 40 -3.49148133884313e-14 44.9999999999999 #
point $-1 -40 3.49148133884313e-14 -34.9999999999999 #
straight-curve $-1 20 0 35 0 1 0 #
straight-curve $-1 -15 0 30 0 1 0 #
straight-curve $-1 -20 25 -20 0 0 -1 #
straight-curve $-1 -20 0 -50 0 -1 0 #
point $-1 -20 -25 -50 #
plane-surface $-1 20 0 40 -1 0 0 0 0 1 0 #
point $-1 -20 25 -50 #
straight-curve $-1 -40 0 -50 0 1 -0 #
plane-surface $-1 -40 0 -50 -1 0 0 0 0 1 0 #
edge $-1 $820 $826 $829 $861 0 #
point $-1 15 25 30 #
point $-1 15 -25 30 #
vertex $-1 $833 $862 #
ellipse-curve $-1 -40 0 40.0000000000001 1 -0 -0 -1.74574066942157e-14 0 -5 1 #
point $-1 -20 -3.49148133884313e-14 45.0000000000001 #
point $-1 20 3.49148133884313e-14 44.9999999999999 #
point $-1 20 0 35 #
straight-curve $-1 15 0 30 0 -1 0 #
point $-1 -40 3.49148133884313e-14 45.0000000000001 #
