600 0 1 0           
83 GICL ACIS Healer - Source: /gicl/data5/repository/UMD/goodpart2/goodpart2.sat - 6 0 18 ACIS 6.0.3 Solaris 24 Sun Apr 14 00:34:39 2002 
1 9.999999999999999547e-07 1.000000000000000036e-10 
body $-1 $1 $-1 $-1 #
lump $-1 $-1 $2 $0 #
shell $-1 $-1 $-1 $3 $-1 $1 #
face $-1 $4 $5 $2 $-1 $6 forward single #
face $-1 $7 $8 $2 $-1 $9 forward single #
loop $-1 $-1 $10 $3 #
cone-surface $-1 45 0 -10 0 1 0 -3.535533905932739973 0 -3.535533905932739973 1 I I 0 -1 5.000000000000003553 forward I I I I #
face $-1 $11 $12 $2 $-1 $13 forward single #
loop $-1 $-1 $14 $4 #
plane-surface $-1 50 0 -15 0 0 1 1 0 0 forward_v I I I I #
coedge $-1 $15 $16 $17 $18 forward $5 $-1 #
face $-1 $19 $20 $2 $-1 $21 reversed single #
loop $-1 $-1 $22 $7 #
cone-surface $-1 45 0 10 -0 -1 0 -3.535533905932739973 0 3.535533905932739973 1 I I 0 -1 5.000000000000003553 forward I I I I #
coedge $-1 $23 $24 $25 $26 reversed $8 $-1 #
coedge $-1 $25 $10 $27 $28 reversed $5 $-1 #
coedge $-1 $10 $25 $29 $30 reversed $5 $-1 #
coedge $-1 $31 $32 $10 $18 reversed $33 $-1 #
edge $-1 $34 -25 $35 25 $17 $36 forward 7 unknown #
face $-1 $37 $38 $2 $-1 $39 forward single #
loop $-1 $-1 $40 $11 #
plane-surface $-1 50 0 15 0 0 1 1 0 0 forward_v I I I I #
coedge $-1 $41 $42 $43 $44 forward $12 $-1 #
coedge $-1 $45 $14 $46 $47 reversed $8 $-1 #
coedge $-1 $14 $45 $48 $49 reversed $8 $-1 #
coedge $-1 $16 $15 $14 $26 forward $5 $-1 #
edge $-1 $50 -25 $51 25 $14 $52 forward 7 unknown #
coedge $-1 $53 $46 $15 $28 forward $54 $-1 #
edge $-1 $50 -0.785398163397448279 $35 0.785398163397448279 $27 $55 forward 7 unknown #
coedge $-1 $48 $56 $16 $30 forward $57 $-1 #
edge $-1 $34 -0.785398163397448279 $51 0.785398163397448279 $29 $58 forward 7 unknown #
coedge $-1 $43 $17 $56 $59 reversed $33 $-1 #
coedge $-1 $17 $43 $53 $60 reversed $33 $-1 #
loop $-1 $-1 $17 $61 #
vertex $-1 $59 $62 #
vertex $-1 $60 $63 #
straight-curve $-1 40 0 -10 -0 -1 -0 I I #
face $-1 $64 $65 $2 $-1 $66 forward single #
loop $-1 $-1 $67 $19 #
cone-surface $-1 -45 0 -10 0 -1 -0 3.535533905932739973 0 -3.535533905932739973 1 I I 0 -1 5.000000000000003553 forward I I I I #
coedge $-1 $68 $69 $70 $71 reversed $20 $-1 #
coedge $-1 $70 $22 $72 $73 reversed $12 $-1 #
coedge $-1 $22 $70 $74 $75 reversed $12 $-1 #
coedge $-1 $32 $31 $22 $44 reversed $33 $-1 #
edge $-1 $76 -25 $77 25 $43 $78 forward 7 unknown #
coedge $-1 $24 $23 $79 $80 reversed $8 $-1 #
coedge $-1 $27 $81 $23 $47 forward $54 $-1 #
edge $-1 $82 -35 $50 -20 $46 $83 forward 7 unknown #
coedge $-1 $84 $29 $24 $49 forward $57 $-1 #
edge $-1 $51 20 $85 35 $48 $86 forward 7 unknown #
vertex $-1 $47 $87 #
vertex $-1 $49 $88 #
straight-curve $-1 45 0 -15 0 1 0 I I #
coedge $-1 $74 $27 $32 $60 forward $54 $-1 #
loop $-1 $-1 $89 $90 #
ellipse-curve $-1 45 -25 -10 0 1 -0 -3.535533905932739973 0 -3.535533905932739973 1 I I #
coedge $-1 $29 $72 $31 $59 forward $57 $-1 #
loop $-1 $-1 $91 $92 #
ellipse-curve $-1 45 25 -10 0 -1 0 -3.535533905932739973 0 -3.535533905932739973 1 I I #
edge $-1 $77 -10 $34 10 $56 $93 forward 7 unknown #
edge $-1 $35 -10 $76 10 $53 $94 forward 7 unknown #
face $-1 $92 $33 $2 $-1 $95 forward single #
point $-1 40 25 -10 #
point $-1 40 -25 -10 #
face $-1 $96 $97 $2 $-1 $98 forward single #
loop $-1 $-1 $99 $37 #
plane-surface $-1 -50 0 -15 0 0 1 1 0 0 forward_v I I I I #
coedge $-1 $100 $101 $102 $103 forward $38 $-1 #
coedge $-1 $104 $40 $105 $106 reversed $20 $-1 #
coedge $-1 $40 $104 $107 $108 reversed $20 $-1 #
coedge $-1 $42 $41 $40 $71 forward $12 $-1 #
edge $-1 $109 -25 $110 25 $40 $111 forward 7 unknown #
coedge $-1 $56 $105 $41 $73 forward $57 $-1 #
edge $-1 $109 -0.785398163397448279 $77 0.785398163397448279 $72 $112 forward 7 unknown #
coedge $-1 $107 $53 $42 $75 forward $54 $-1 #
edge $-1 $76 -0.785398163397448279 $110 0.785398163397448279 $74 $113 forward 7 unknown #
vertex $-1 $60 $114 #
vertex $-1 $59 $115 #
straight-curve $-1 40 0 10 0 1 0 I I #
coedge $-1 $116 $117 $45 $80 forward $118 $-1 #
edge $-1 $85 -25 $82 25 $79 $119 forward 7 unknown #
coedge $-1 $46 $120 $116 $121 reversed $54 $-1 #
vertex $-1 $47 $122 #
straight-curve $-1 25 -25 -15 -1 0 0 I I #
coedge $-1 $123 $48 $117 $124 forward $57 $-1 #
vertex $-1 $80 $125 #
straight-curve $-1 25 25 -15 1 0 -0 I I #
point $-1 45 -25 -15 #
point $-1 45 25 -15 #
coedge $-1 $126 $127 $128 $129 forward $54 $-1 #
face $-1 $61 $54 $2 $-1 $130 reversed single #
coedge $-1 $131 $132 $133 $134 forward $57 $-1 #
face $-1 $135 $57 $2 $-1 $136 reversed single #
straight-curve $-1 40 25 0 0 0 -1 I I #
straight-curve $-1 40 -25 0 -0 0 1 I I #
plane-surface $-1 40 0 0 1 0 0 0 0 -1 forward_v I I I I #
face $-1 $137 $138 $2 $-1 $139 reversed single #
loop $-1 $-1 $140 $64 #
cone-surface $-1 -45 0 10 -0 1 -0 3.535533905932739973 0 3.535533905932739973 1 I I 0 -1 5.000000000000003553 forward I I I I #
coedge $-1 $141 $142 $143 $144 reversed $65 $-1 #
coedge $-1 $143 $67 $145 $146 reversed $38 $-1 #
coedge $-1 $67 $143 $147 $148 reversed $38 $-1 #
coedge $-1 $149 $150 $67 $103 reversed $151 $-1 #
edge $-1 $152 -25 $153 25 $102 $154 forward 7 unknown #
coedge $-1 $69 $68 $155 $156 reversed $20 $-1 #
coedge $-1 $72 $157 $68 $106 forward $57 $-1 #
edge $-1 $158 -35 $109 -20 $105 $159 forward 7 unknown #
coedge $-1 $160 $74 $69 $108 forward $54 $-1 #
edge $-1 $110 20 $161 35 $107 $162 forward 7 unknown #
vertex $-1 $106 $163 #
vertex $-1 $108 $164 #
straight-curve $-1 45 0 15 0 -1 0 I I #
ellipse-curve $-1 45 25 10 0 -1 0 -3.535533905932739973 0 3.535533905932739973 1 I I #
ellipse-curve $-1 45 -25 10 0 1 -0 -3.535533905932739973 0 3.535533905932739973 1 I I #
point $-1 40 -25 10 #
point $-1 40 25 10 #
coedge $-1 $165 $79 $81 $121 forward $118 $-1 #
coedge $-1 $79 $165 $84 $124 reversed $118 $-1 #
loop $-1 $-1 $79 $135 #
straight-curve $-1 60 0 -15 0 -1 0 I I #
coedge $-1 $81 $166 $167 $168 forward $54 $-1 #
edge $-1 $82 15 $169 30 $116 $170 forward 7 unknown #
point $-1 60 -25 -15 #
coedge $-1 $171 $84 $172 $173 forward $57 $-1 #
edge $-1 $85 15 $174 30 $117 $175 forward 7 unknown #
point $-1 60 25 -15 #
coedge $-1 $176 $89 $177 $178 forward $54 $-1 #
coedge $-1 $89 $179 $180 $181 forward $54 $-1 #
coedge $-1 $182 $183 $89 $129 reversed $138 $-1 #
edge $-1 $184 -35 $185 -20 $89 $186 forward 7 unknown #
plane-surface $-1 0 -25 0 0 1 -0 -0 0 1 forward_v I I I I #
coedge $-1 $187 $91 $188 $189 reversed $57 $-1 #
coedge $-1 $91 $190 $191 $192 forward $57 $-1 #
coedge $-1 $183 $182 $91 $134 reversed $138 $-1 #
edge $-1 $193 20 $194 35 $91 $195 forward 7 unknown #
face $-1 $196 $118 $2 $-1 $197 reversed single #
plane-surface $-1 0 25 0 0 -1 0 0 0 -1 forward_v I I I I #
face $-1 $198 $199 $2 $-1 $200 forward single #
loop $-1 $-1 $183 $96 #
plane-surface $-1 -50 0 15 0 0 1 1 0 0 forward_v I I I I #
coedge $-1 $177 $191 $201 $202 forward $97 $-1 #
coedge $-1 $203 $99 $204 $205 reversed $65 $-1 #
coedge $-1 $99 $203 $206 $207 reversed $65 $-1 #
coedge $-1 $101 $100 $99 $144 forward $38 $-1 #
edge $-1 $208 -25 $209 25 $99 $210 forward 7 unknown #
coedge $-1 $190 $204 $100 $146 forward $57 $-1 #
edge $-1 $208 -0.785398163397448279 $153 0.785398163397448279 $145 $211 forward 7 unknown #
coedge $-1 $206 $176 $101 $148 forward $54 $-1 #
edge $-1 $152 -0.785398163397448279 $209 0.785398163397448279 $147 $212 forward 7 unknown #
coedge $-1 $201 $102 $176 $213 reversed $151 $-1 #
coedge $-1 $102 $201 $190 $214 reversed $151 $-1 #
loop $-1 $-1 $102 $215 #
vertex $-1 $213 $216 #
vertex $-1 $214 $217 #
straight-curve $-1 -40 0 -10 0 1 0 I I #
coedge $-1 $218 $219 $104 $156 forward $220 $-1 #
edge $-1 $161 -25 $158 25 $155 $221 forward 7 unknown #
coedge $-1 $105 $222 $218 $223 forward $57 $-1 #
vertex $-1 $223 $224 #
straight-curve $-1 25 25 15 -1 0 0 I I #
coedge $-1 $225 $107 $219 $226 reversed $54 $-1 #
vertex $-1 $226 $227 #
straight-curve $-1 25 -25 15 1 -0 0 I I #
point $-1 45 25 15 #
point $-1 45 -25 15 #
coedge $-1 $117 $116 $228 $229 forward $118 $-1 #
coedge $-1 $120 $230 $231 $232 forward $54 $-1 #
coedge $-1 $233 $228 $120 $168 reversed $234 $-1 #
edge $-1 $235 12.5 $169 30 $120 $236 forward 7 unknown #
vertex $-1 $121 $237 #
straight-curve $-1 60 -25 0 0 0 -1 I I #
coedge $-1 $238 $123 $239 $240 forward $57 $-1 #
coedge $-1 $228 $233 $123 $173 reversed $234 $-1 #
edge $-1 $174 -30 $241 -12.5 $123 $242 forward 7 unknown #
vertex $-1 $124 $243 #
straight-curve $-1 60 25 0 0 0 -1 I I #
coedge $-1 $147 $126 $149 $213 forward $54 $-1 #
coedge $-1 $244 $140 $126 $178 reversed $97 $-1 #
edge $-1 $185 -0.785398163397448279 $245 0.785398163397448279 $126 $246 forward 7 unknown #
coedge $-1 $127 $247 $248 $249 forward $54 $-1 #
coedge $-1 $250 $251 $127 $181 reversed $252 $-1 #
edge $-1 $253 -30 $184 -15 $180 $254 forward 7 unknown #
coedge $-1 $133 $128 $251 $255 reversed $138 $-1 #
coedge $-1 $128 $133 $244 $256 reversed $138 $-1 #
vertex $-1 $181 $257 #
vertex $-1 $129 $258 #
straight-curve $-1 -25 -25 15 1 -0 0 I I #
coedge $-1 $259 $131 $260 $261 forward $57 $-1 #
coedge $-1 $251 $250 $131 $189 forward $252 $-1 #
edge $-1 $262 -30 $194 -15 $131 $263 forward 7 unknown #
coedge $-1 $132 $145 $150 $214 forward $57 $-1 #
coedge $-1 $140 $244 $132 $192 reversed $97 $-1 #
edge $-1 $264 -0.785398163397448279 $193 0.785398163397448279 $132 $265 forward 7 unknown #
vertex $-1 $134 $266 #
vertex $-1 $189 $267 #
straight-curve $-1 -25 25 15 -1 0 0 I I #
face $-1 $268 $269 $2 $-1 $270 reversed single #
plane-surface $-1 60 0 0 -1 0 0 0 -0 1 forward_v I I I I #
face $-1 $271 $272 $2 $-1 $273 reversed single #
loop $-1 $-1 $274 $137 #
cone-surface $-1 15 0 -35 -0 1 -0 3.535533905932739973 0 3.535533905932739973 1 I I 0 -1 5.000000000000003553 forward I I I I #
coedge $-1 $150 $149 $140 $202 reversed $151 $-1 #
edge $-1 $264 -25 $245 25 $201 $275 forward 7 unknown #
coedge $-1 $142 $141 $276 $277 reversed $65 $-1 #
coedge $-1 $145 $278 $141 $205 forward $57 $-1 #
edge $-1 $279 -35 $208 -20 $204 $280 forward 7 unknown #
coedge $-1 $281 $147 $142 $207 forward $54 $-1 #
edge $-1 $209 20 $282 35 $206 $283 forward 7 unknown #
vertex $-1 $205 $284 #
vertex $-1 $207 $285 #
straight-curve $-1 -45 0 -15 0 -1 0 I I #
ellipse-curve $-1 -45 25 -10 0 -1 0 3.535533905932739973 0 -3.535533905932739973 1 I I #
ellipse-curve $-1 -45 -25 -10 0 1 -0 3.535533905932739973 0 -3.535533905932739973 1 I I #
edge $-1 $245 -10 $152 10 $176 $286 forward 7 unknown #
edge $-1 $153 -10 $264 10 $190 $287 forward 7 unknown #
face $-1 $288 $151 $2 $-1 $289 forward single #
point $-1 -40 -25 -10 #
point $-1 -40 25 -10 #
coedge $-1 $290 $155 $157 $223 reversed $220 $-1 #
coedge $-1 $155 $290 $160 $226 forward $220 $-1 #
loop $-1 $-1 $155 $291 #
straight-curve $-1 60 0 15 0 1 -0 I I #
coedge $-1 $157 $292 $293 $294 forward $57 $-1 #
edge $-1 $295 -30 $158 -15 $218 $175 forward 7 unknown #
point $-1 60 25 15 #
coedge $-1 $296 $160 $297 $298 forward $54 $-1 #
edge $-1 $299 -30 $161 -15 $219 $170 forward 7 unknown #
point $-1 60 -25 15 #
coedge $-1 $167 $172 $165 $229 reversed $234 $-1 #
edge $-1 $169 -25 $174 25 $165 $300 forward 7 unknown #
coedge $-1 $166 $301 $302 $303 forward $54 $-1 #
coedge $-1 $304 $305 $166 $232 reversed $306 $-1 #
edge $-1 $307 -0.785398163397448279 $235 0.785398163397448279 $166 $308 forward 7 unknown #
coedge $-1 $172 $167 $305 $309 forward $234 $-1 #
loop $-1 $-1 $172 $310 #
vertex $-1 $232 $311 #
straight-curve $-1 30 -25 -30 1 -0 0 I I #
point $-1 60 -25 -30 #
coedge $-1 $312 $171 $313 $314 forward $57 $-1 #
coedge $-1 $305 $304 $171 $240 reversed $306 $-1 #
edge $-1 $241 -0.785398163397448279 $315 0.785398163397448279 $171 $316 forward 7 unknown #
vertex $-1 $240 $317 #
straight-curve $-1 30 25 -30 -1 0 0 I I #
point $-1 60 25 -30 #
coedge $-1 $191 $177 $183 $256 forward $97 $-1 #
vertex $-1 $213 $318 #
ellipse-curve $-1 -45 -25 10 0 1 -0 3.535533905932739973 0 3.535533905932739973 1 I I #
coedge $-1 $179 $319 $320 $321 forward $54 $-1 #
coedge $-1 $322 $323 $179 $249 reversed $324 $-1 #
edge $-1 $325 12.5 $253 30 $179 $326 forward 7 unknown #
coedge $-1 $188 $180 $323 $327 forward $252 $-1 #
coedge $-1 $180 $188 $182 $255 forward $252 $-1 #
loop $-1 $-1 $251 $328 #
vertex $-1 $249 $329 #
straight-curve $-1 -60 -25 0 0 0 -1 I I #
edge $-1 $194 -25 $184 25 $251 $330 forward 7 unknown #
edge $-1 $185 -25 $193 25 $183 $331 forward 7 unknown #
point $-1 -60 -25 15 #
point $-1 -45 -25 15 #
coedge $-1 $332 $187 $333 $334 forward $57 $-1 #
coedge $-1 $323 $322 $187 $261 reversed $324 $-1 #
edge $-1 $262 -30 $335 -12.5 $187 $336 forward 7 unknown #
vertex $-1 $327 $337 #
straight-curve $-1 -60 25 0 0 0 -1 I I #
vertex $-1 $214 $338 #
ellipse-curve $-1 -45 25 10 0 -1 0 3.535533905932739973 0 3.535533905932739973 1 I I #
point $-1 -45 25 15 #
point $-1 -60 25 15 #
face $-1 $339 $340 $2 $-1 $341 reversed single #
loop $-1 $342 $343 $196 #
cone-surface $-1 0 0 0 0 0 1 5 0 0 1 I I 0 1 5 forward I I I I #
face $-1 $344 $345 $2 $-1 $346 forward single #
loop $-1 $347 $348 $198 #
plane-surface $-1 0 0 -30 0 0 1 1 0 0 forward_v I I I I #
coedge $-1 $349 $350 $351 $352 forward $199 $-1 #
straight-curve $-1 -40 0 10 -0 -1 -0 I I #
coedge $-1 $353 $354 $203 $277 forward $355 $-1 #
edge $-1 $282 -25 $279 25 $276 $356 forward 7 unknown #
coedge $-1 $204 $357 $353 $358 reversed $57 $-1 #
vertex $-1 $277 $359 #
straight-curve $-1 -25 25 -15 1 0 -0 I I #
coedge $-1 $360 $206 $354 $361 forward $54 $-1 #
vertex $-1 $207 $362 #
straight-curve $-1 -25 -25 -15 -1 0 0 I I #
point $-1 -45 25 -15 #
point $-1 -45 -25 -15 #
straight-curve $-1 -40 -25 0 -0 0 -1 I I #
straight-curve $-1 -40 25 0 0 0 1 I I #
face $-1 $328 $355 $2 $-1 $363 reversed single #
plane-surface $-1 -40 0 0 -1 0 0 0 0 1 forward_v I I I I #
coedge $-1 $219 $218 $364 $365 forward $220 $-1 #
face $-1 $-1 $220 $2 $-1 $197 reversed single #
coedge $-1 $222 $366 $367 $368 forward $57 $-1 #
coedge $-1 $369 $364 $222 $294 reversed $370 $-1 #
edge $-1 $371 12.5 $295 30 $222 $372 forward 7 unknown #
vertex $-1 $294 $373 #
coedge $-1 $374 $225 $375 $376 forward $54 $-1 #
coedge $-1 $364 $369 $225 $298 reversed $370 $-1 #
edge $-1 $299 -30 $377 -12.5 $225 $378 forward 7 unknown #
vertex $-1 $298 $379 #
straight-curve $-1 60 0 -30 0 1 -0 I I #
coedge $-1 $230 $380 $381 $382 reversed $54 $-1 #
coedge $-1 $383 $384 $230 $303 reversed $385 $-1 #
edge $-1 $386 -25 $307 -7.5 $230 $387 forward 7 unknown #
coedge $-1 $239 $231 $384 $388 reversed $306 $-1 #
coedge $-1 $231 $239 $233 $309 reversed $306 $-1 #
loop $-1 $-1 $239 $389 #
vertex $-1 $232 $390 #
ellipse-curve $-1 42.5 -25 -32.5 0 1 -0 -1.767766952966369987 0 1.767766952966369987 1 I I #
edge $-1 $235 -25 $241 25 $233 $391 forward 7 unknown #
face $-1 $392 $234 $2 $-1 $393 reversed single #
point $-1 42.5 -25 -30 #
coedge $-1 $394 $238 $395 $396 reversed $57 $-1 #
coedge $-1 $384 $383 $238 $314 reversed $385 $-1 #
edge $-1 $315 7.5 $397 25 $238 $398 forward 7 unknown #
vertex $-1 $240 $399 #
ellipse-curve $-1 42.5 25 -32.5 0 -1 0 -1.767766952966369987 0 1.767766952966369987 1 I I #
point $-1 42.5 25 -30 #
point $-1 -40 -25 10 #
coedge $-1 $247 $400 $401 $402 forward $54 $-1 #
coedge $-1 $403 $404 $247 $321 reversed $405 $-1 #
edge $-1 $406 -0.785398163397448279 $325 0.785398163397448279 $247 $407 forward 7 unknown #
coedge $-1 $260 $248 $404 $408 forward $324 $-1 #
coedge $-1 $248 $260 $250 $327 reversed $324 $-1 #
loop $-1 $-1 $260 $409 #
vertex $-1 $249 $410 #
straight-curve $-1 -30 -25 30 -1 0 0 I I #
edge $-1 $253 -25 $262 25 $250 $411 forward 7 unknown #
face $-1 $90 $252 $2 $-1 $363 reversed single #
point $-1 -60 -25 30 #
straight-curve $-1 -60 0 15 0 -1 0 I I #
straight-curve $-1 -45 0 15 0 1 0 I I #
coedge $-1 $412 $259 $413 $414 forward $57 $-1 #
coedge $-1 $404 $403 $259 $334 reversed $405 $-1 #
edge $-1 $335 -0.785398163397448279 $415 0.785398163397448279 $259 $416 forward 7 unknown #
vertex $-1 $261 $417 #
straight-curve $-1 -30 25 30 1 0 -0 I I #
point $-1 -60 25 30 #
point $-1 -40 25 10 #
face $-1 $418 $419 $2 $-1 $341 reversed single #
loop $-1 $420 $421 $268 #
cone-surface $-1 0 0 -40 1 0 -3.491481338843129805e-15 -1.745740669421570149e-14 0 -5 1 I I 0 1 5 forward I I I I #
loop $-1 $-1 $422 $196 #
coedge $-1 $343 $343 $348 $423 reversed $269 $-1 #
face $-1 $424 $425 $2 $-1 $426 forward single #
loop $-1 $-1 $427 $271 #
cone-surface $-1 -15 0 -35 -0 -1 0 -3.535533905932739973 0 3.535533905932739973 1 I I 0 -1 5.000000000000003553 forward I I I I #
loop $-1 $-1 $428 $198 #
coedge $-1 $348 $348 $343 $423 forward $272 $-1 #
coedge $-1 $429 $274 $430 $431 forward $199 $-1 #
coedge $-1 $274 $432 $433 $434 reversed $199 $-1 #
coedge $-1 $435 $436 $274 $352 reversed $437 $-1 #
edge $-1 $438 -25 $439 -3.4914813388431302e-14 $351 $440 forward 7 unknown #
coedge $-1 $441 $276 $278 $358 forward $355 $-1 #
coedge $-1 $276 $441 $281 $361 reversed $355 $-1 #
loop $-1 $-1 $276 $288 #
straight-curve $-1 -60 0 -15 0 1 0 I I #
coedge $-1 $278 $442 $443 $444 forward $57 $-1 #
edge $-1 $279 15 $445 30 $278 $263 forward 7 unknown #
point $-1 -60 25 -15 #
coedge $-1 $446 $281 $447 $448 forward $54 $-1 #
edge $-1 $282 15 $449 30 $354 $254 forward 7 unknown #
point $-1 -60 -25 -15 #
plane-surface $-1 -60 0 0 1 0 0 0 0 -1 forward_v I I I I #
coedge $-1 $293 $297 $290 $365 reversed $370 $-1 #
edge $-1 $295 -25 $299 25 $290 $450 forward 7 unknown #
coedge $-1 $292 $451 $452 $453 forward $57 $-1 #
coedge $-1 $454 $455 $292 $368 reversed $456 $-1 #
edge $-1 $457 -0.785398163397448279 $371 0.785398163397448279 $292 $458 forward 7 unknown #
coedge $-1 $297 $293 $455 $459 forward $370 $-1 #
loop $-1 $-1 $293 $460 #
vertex $-1 $368 $461 #
straight-curve $-1 30 25 30 1 0 -0 I I #
point $-1 60 25 30 #
coedge $-1 $462 $296 $463 $464 forward $54 $-1 #
coedge $-1 $455 $454 $296 $376 reversed $456 $-1 #
edge $-1 $377 -0.785398163397448279 $465 0.785398163397448279 $296 $466 forward 7 unknown #
vertex $-1 $376 $467 #
straight-curve $-1 30 -25 30 -1 0 0 I I #
point $-1 60 -25 30 #
coedge $-1 $301 $468 $469 $470 forward $54 $-1 #
coedge $-1 $471 $472 $301 $382 forward $473 $-1 #
edge $-1 $386 -40 $474 -20 $301 $475 forward 7 unknown #
coedge $-1 $313 $302 $472 $476 reversed $385 $-1 #
coedge $-1 $302 $313 $304 $388 forward $385 $-1 #
loop $-1 $-1 $313 $477 #
vertex $-1 $303 $478 #
straight-curve $-1 40 -25 -25 -0 0 1 I I #
edge $-1 $315 -25 $307 25 $384 $479 forward 7 unknown #
face $-1 $310 $306 $2 $-1 $480 reversed single #
point $-1 40 -25 -32.5 #
straight-curve $-1 42.5 0 -30 0 1 0 I I #
face $-1 $460 $473 $2 $-1 $481 reversed single #
plane-surface $-1 60 0 -30 0 0 1 1 0 0 forward_v I I I I #
coedge $-1 $433 $312 $435 $482 forward $57 $-1 #
coedge $-1 $472 $471 $312 $396 forward $473 $-1 #
edge $-1 $483 20 $397 40 $312 $484 forward 7 unknown #
vertex $-1 $396 $485 #
straight-curve $-1 40 25 -25 0 0 -1 I I #
point $-1 40 25 -32.5 #
coedge $-1 $319 $486 $487 $488 reversed $54 $-1 #
coedge $-1 $489 $490 $319 $402 reversed $491 $-1 #
edge $-1 $492 -25 $406 -7.5 $319 $493 forward 7 unknown #
coedge $-1 $333 $320 $490 $494 reversed $405 $-1 #
coedge $-1 $320 $333 $322 $408 reversed $405 $-1 #
loop $-1 $-1 $333 $495 #
vertex $-1 $321 $496 #
ellipse-curve $-1 -42.5 -25 32.5 0 1 -0 1.767766952966369987 0 -1.767766952966369987 1 I I #
edge $-1 $325 -25 $335 25 $322 $497 forward 7 unknown #
face $-1 $495 $324 $2 $-1 $498 forward single #
point $-1 -42.5 -25 30 #
straight-curve $-1 -60 0 30 0 1 0 I I #
coedge $-1 $499 $332 $500 $501 reversed $57 $-1 #
coedge $-1 $490 $489 $332 $414 reversed $491 $-1 #
edge $-1 $415 7.5 $502 25 $332 $503 forward 7 unknown #
vertex $-1 $334 $504 #
ellipse-curve $-1 -42.5 25 32.5 0 -1 0 1.767766952966369987 0 -1.767766952966369987 1 I I #
point $-1 -42.5 25 30 #
face $-1 $505 $506 $2 $-1 $507 reversed single #
loop $-1 $508 $509 $339 #
loop $-1 $-1 $510 $268 #
coedge $-1 $421 $421 $511 $512 reversed $340 $-1 #
coedge $-1 $422 $422 $513 $514 reversed $342 $-1 #
edge $-1 $515 -3.141592653589799777 $515 3.141592653589786455 $348 $516 forward 7 unknown #
face $-1 $517 $518 $2 $-1 $519 forward single #
loop $-1 $-1 $520 $344 #
cone-surface $-1 -15 0 35 0 1 0 -3.535533905932739973 0 -3.535533905932739973 1 I I 0 -1 5.000000000000003553 forward I I I I #
coedge $-1 $521 $522 $523 $524 forward $345 $-1 #
coedge $-1 $525 $526 $432 $527 reversed $347 $-1 #
coedge $-1 $432 $349 $468 $528 reversed $199 $-1 #
coedge $-1 $436 $469 $349 $431 reversed $437 $-1 #
edge $-1 $439 -3.4914813388431302e-14 $529 25 $430 $440 forward 7 unknown #
coedge $-1 $350 $429 $428 $527 forward $199 $-1 #
coedge $-1 $530 $394 $350 $434 forward $57 $-1 #
edge $-1 $438 -0.785398163397448279 $531 0.785398163397448279 $433 $532 forward 7 unknown #
coedge $-1 $533 $351 $394 $482 reversed $437 $-1 #
coedge $-1 $351 $430 $510 $534 forward $437 $-1 #
loop $-1 $-1 $351 $535 #
vertex $-1 $482 $536 #
vertex $-1 $534 $537 #
straight-curve $-1 20 0 -35 -0 -1 -0 I I #
coedge $-1 $354 $353 $538 $539 forward $355 $-1 #
coedge $-1 $357 $540 $541 $542 forward $57 $-1 #
coedge $-1 $543 $538 $357 $444 reversed $544 $-1 #
edge $-1 $545 12.5 $445 30 $357 $546 forward 7 unknown #
vertex $-1 $358 $547 #
coedge $-1 $548 $360 $549 $550 forward $54 $-1 #
coedge $-1 $538 $543 $360 $448 reversed $544 $-1 #
edge $-1 $449 -30 $551 -12.5 $360 $552 forward 7 unknown #
vertex $-1 $361 $553 #
straight-curve $-1 60 0 30 0 -1 0 I I #
coedge $-1 $366 $554 $555 $556 reversed $57 $-1 #
coedge $-1 $557 $558 $366 $453 reversed $559 $-1 #
edge $-1 $560 -25 $457 -7.5 $366 $561 forward 7 unknown #
coedge $-1 $375 $367 $558 $562 reversed $456 $-1 #
coedge $-1 $367 $375 $369 $459 reversed $456 $-1 #
loop $-1 $-1 $367 $563 #
vertex $-1 $368 $564 #
ellipse-curve $-1 42.5 25 32.5 0 -1 0 -1.767766952966369987 0 -1.767766952966369987 1 I I #
edge $-1 $371 -25 $377 25 $369 $565 forward 7 unknown #
face $-1 $563 $370 $2 $-1 $566 forward single #
point $-1 42.5 25 30 #
coedge $-1 $567 $374 $568 $569 reversed $54 $-1 #
coedge $-1 $558 $557 $374 $464 reversed $559 $-1 #
edge $-1 $465 7.5 $570 25 $374 $571 forward 7 unknown #
vertex $-1 $376 $572 #
ellipse-curve $-1 42.5 -25 32.5 0 1 -0 -1.767766952966369987 0 -1.767766952966369987 1 I I #
point $-1 42.5 -25 30 #
coedge $-1 $380 $573 $429 $528 forward $54 $-1 #
coedge $-1 $430 $533 $380 $470 reversed $437 $-1 #
edge $-1 $529 15 $474 30 $380 $574 forward 7 unknown #
coedge $-1 $395 $381 $533 $575 forward $473 $-1 #
coedge $-1 $381 $395 $383 $476 forward $473 $-1 #
loop $-1 $-1 $471 $392 #
vertex $-1 $382 $576 #
straight-curve $-1 0 -25 -50 -1 0 0 I I #
edge $-1 $397 -25 $386 25 $472 $577 forward 7 unknown #
face $-1 $389 $578 $2 $-1 $579 forward single #
point $-1 40 -25 -50 #
straight-curve $-1 40 0 -32.5 0 -1 0 I I #
cone-surface $-1 42.5 0 -32.5 0 -1 0 -1.767766952966369987 0 1.767766952966369987 1 I I 0 1 2.500000000000001776 forward I I I I #
plane-surface $-1 0 0 -50 0 0 1 1 0 0 forward_v I I I I #
edge $-1 $483 -30 $438 -15 $394 $580 forward 7 unknown #
vertex $-1 $575 $581 #
straight-curve $-1 0 25 -50 1 0 0 I I #
point $-1 40 25 -50 #
coedge $-1 $400 $582 $583 $584 forward $54 $-1 #
coedge $-1 $585 $586 $400 $488 forward $587 $-1 #
edge $-1 $492 -40 $588 -20 $400 $589 forward 7 unknown #
coedge $-1 $413 $401 $586 $590 reversed $491 $-1 #
coedge $-1 $401 $413 $403 $494 forward $491 $-1 #
loop $-1 $-1 $413 $591 #
vertex $-1 $402 $592 #
straight-curve $-1 -40 -25 25 -0 0 -1 I I #
edge $-1 $415 -25 $406 25 $490 $593 forward 7 unknown #
face $-1 $594 $405 $2 $-1 $595 reversed single #
point $-1 -40 -25 32.5 #
straight-curve $-1 -42.5 0 30 0 1 0 I I #
plane-surface $-1 -60 0 30 0 0 1 1 0 0 forward_v I I I I #
coedge $-1 $596 $412 $597 $598 forward $57 $-1 #
coedge $-1 $586 $585 $412 $501 forward $587 $-1 #
edge $-1 $599 20 $502 40 $412 $600 forward 7 unknown #
vertex $-1 $501 $601 #
straight-curve $-1 -40 25 25 0 0 1 I I #
point $-1 -40 25 32.5 #
face $-1 $602 $603 $2 $-1 $507 reversed single #
loop $-1 $604 $605 $418 #
cone-surface $-1 0 0 40 1 0 -3.491481338843129805e-15 -1.745740669421570149e-14 0 -5 1 I I 0 1 5 forward I I I I #
loop $-1 $-1 $606 $339 #
coedge $-1 $509 $509 $607 $608 reversed $419 $-1 #
coedge $-1 $510 $510 $436 $534 reversed $420 $-1 #
coedge $-1 $511 $511 $421 $512 forward $578 $-1 #
edge $-1 $609 -3.141592653589799777 $609 3.141592653589786455 $511 $610 forward 7 unknown #
coedge $-1 $513 $513 $422 $514 forward $518 $-1 #
edge $-1 $611 -3.141592653589799777 $611 3.141592653589786455 $513 $612 forward 7 unknown #
vertex $-1 $423 $613 #
ellipse-curve $-1 0 0 -30 0 0 1 5 0 0 1 I I #
face $-1 $215 $614 $2 $-1 $615 forward single #
loop $-1 $616 $513 $424 #
plane-surface $-1 0 0 30 0 0 1 1 0 0 forward_v I I I I #
coedge $-1 $617 $618 $619 $620 forward $425 $-1 #
coedge $-1 $621 $427 $622 $623 forward $345 $-1 #
coedge $-1 $427 $624 $625 $626 reversed $345 $-1 #
coedge $-1 $627 $607 $427 $524 reversed $628 $-1 #
edge $-1 $629 -25 $630 -3.4914813388431302e-14 $523 $631 forward 7 unknown #
coedge $-1 $632 $428 $573 $633 reversed $347 $-1 #
coedge $-1 $428 $632 $530 $634 reversed $347 $-1 #
edge $-1 $635 -25 $531 25 $428 $636 forward 7 unknown #
edge $-1 $635 -0.785398163397448279 $529 0.785398163397448279 $468 $637 forward 7 unknown #
vertex $-1 $470 $638 #
coedge $-1 $639 $433 $526 $634 forward $57 $-1 #
vertex $-1 $634 $640 #
ellipse-curve $-1 15 25 -35 0 -1 0 3.535533905932739973 0 3.535533905932739973 1 I I #
coedge $-1 $469 $435 $471 $575 reversed $437 $-1 #
edge $-1 $439 -3.141592653589799777 $439 3.141592653589786455 $436 $641 forward 7 unknown #
face $-1 $642 $437 $2 $-1 $643 forward single #
point $-1 20 25 -35 #
point $-1 20 3.4914813388431302e-14 -35.00000000000009948 #
coedge $-1 $443 $447 $441 $539 reversed $544 $-1 #
edge $-1 $445 -25 $449 25 $441 $644 forward 7 unknown #
coedge $-1 $442 $645 $646 $647 forward $57 $-1 #
coedge $-1 $648 $649 $442 $542 reversed $650 $-1 #
edge $-1 $651 -0.785398163397448279 $545 0.785398163397448279 $442 $652 forward 7 unknown #
coedge $-1 $447 $443 $649 $653 forward $544 $-1 #
loop $-1 $-1 $443 $654 #
vertex $-1 $444 $655 #
straight-curve $-1 -30 25 -30 -1 0 0 I I #
point $-1 -60 25 -30 #
coedge $-1 $656 $446 $657 $658 forward $54 $-1 #
coedge $-1 $649 $648 $446 $550 reversed $650 $-1 #
edge $-1 $551 -0.785398163397448279 $659 0.785398163397448279 $446 $660 forward 7 unknown #
vertex $-1 $448 $661 #
straight-curve $-1 -30 -25 -30 1 -0 0 I I #
point $-1 -60 -25 -30 #
coedge $-1 $451 $662 $663 $664 forward $57 $-1 #
coedge $-1 $665 $666 $451 $556 forward $667 $-1 #
edge $-1 $560 -40 $668 -20 $451 $600 forward 7 unknown #
coedge $-1 $463 $452 $666 $669 reversed $559 $-1 #
coedge $-1 $452 $463 $454 $562 forward $559 $-1 #
loop $-1 $-1 $452 $670 #
vertex $-1 $669 $671 #
straight-curve $-1 40 25 25 0 0 -1 I I #
edge $-1 $465 -25 $457 25 $558 $672 forward 7 unknown #
face $-1 $670 $456 $2 $-1 $673 reversed single #
point $-1 40 25 32.5 #
straight-curve $-1 42.5 0 30 -0 -1 -0 I I #
plane-surface $-1 60 0 30 0 0 1 1 0 0 forward_v I I I I #
coedge $-1 $674 $462 $675 $676 forward $54 $-1 #
coedge $-1 $666 $665 $462 $569 forward $667 $-1 #
edge $-1 $677 20 $570 40 $462 $589 forward 7 unknown #
vertex $-1 $569 $678 #
straight-curve $-1 40 -25 25 -0 0 1 I I #
point $-1 40 -25 32.5 #
coedge $-1 $468 $625 $525 $633 forward $54 $-1 #
straight-curve $-1 20 -25 -20 -0 0 -1 I I #
edge $-1 $474 -25 $483 25 $471 $679 forward 7 unknown #
point $-1 20 -25 -50 #
straight-curve $-1 40 0 -50 0 -1 0 I I #
loop $-1 $385 $511 $477 #
plane-surface $-1 40 0 -50 1 0 0 0 0 -1 forward_v I I I I #
straight-curve $-1 20 25 -20 0 0 1 I I #
point $-1 20 25 -50 #
coedge $-1 $486 $680 $681 $682 forward $54 $-1 #
coedge $-1 $683 $684 $486 $584 reversed $685 $-1 #
edge $-1 $686 15 $588 30 $486 $687 forward 7 unknown #
coedge $-1 $500 $487 $684 $688 forward $587 $-1 #
coedge $-1 $487 $500 $489 $590 forward $587 $-1 #
loop $-1 $-1 $585 $594 #
vertex $-1 $488 $689 #
straight-curve $-1 0 -25 50 1 0 0 I I #
edge $-1 $502 -25 $492 25 $586 $690 forward 7 unknown #
face $-1 $409 $691 $2 $-1 $692 forward single #
point $-1 -40 -25 50 #
straight-curve $-1 -40 0 32.5 0 -1 0 I I #
face $-1 $477 $587 $2 $-1 $693 forward single #
cone-surface $-1 -42.5 0 32.5 0 -1 0 1.767766952966369987 0 -1.767766952966369987 1 I I 0 1 2.500000000000001776 forward I I I I #
coedge $-1 $694 $499 $618 $695 forward $57 $-1 #
coedge $-1 $684 $619 $499 $598 reversed $685 $-1 #
edge $-1 $599 -30 $696 -15 $499 $697 forward 7 unknown #
vertex $-1 $688 $698 #
straight-curve $-1 0 25 50 -1 0 0 I I #
point $-1 -40 25 50 #
face $-1 $535 $628 $2 $-1 $699 forward single #
loop $-1 $700 $701 $505 #
loop $-1 $-1 $702 $418 #
coedge $-1 $605 $605 $703 $704 reversed $506 $-1 #
coedge $-1 $606 $606 $705 $706 reversed $508 $-1 #
coedge $-1 $523 $622 $509 $608 forward $628 $-1 #
edge $-1 $630 -3.141592653589799777 $630 3.141592653589786455 $607 $707 forward 7 unknown #
vertex $-1 $512 $708 #
ellipse-curve $-1 40 0 -40.00000000000009948 -1 -0 -0 -1.745740669421570149e-14 0 -5 1 I I #
vertex $-1 $514 $709 #
ellipse-curve $-1 0 0 30 -0 -0 -1 5 0 0 1 I I #
point $-1 -5 3.4914813388431302e-14 -30 #
loop $-1 $-1 $710 $517 #
cone-surface $-1 15 0 35 0 -1 -0 3.535533905932739973 0 -3.535533905932739973 1 I I 0 -1 5.000000000000003553 forward I I I I #
loop $-1 $-1 $711 $424 #
coedge $-1 $681 $520 $683 $712 forward $425 $-1 #
coedge $-1 $520 $713 $596 $695 reversed $425 $-1 #
coedge $-1 $597 $714 $520 $620 reversed $685 $-1 #
edge $-1 $696 -25 $715 -0 $619 $716 forward 7 unknown #
coedge $-1 $624 $521 $639 $717 reversed $345 $-1 #
coedge $-1 $607 $718 $521 $623 reversed $628 $-1 #
edge $-1 $630 -3.4914813388431302e-14 $719 25 $622 $631 forward 7 unknown #
coedge $-1 $522 $621 $632 $720 forward $345 $-1 #
coedge $-1 $573 $721 $522 $626 forward $54 $-1 #
edge $-1 $629 -0.785398163397448279 $722 0.785398163397448279 $625 $723 forward 7 unknown #
coedge $-1 $724 $523 $721 $725 reversed $628 $-1 #
loop $-1 $-1 $523 $602 #
vertex $-1 $725 $726 #
vertex $-1 $608 $727 #
straight-curve $-1 -20 0 -35 0 1 0 I I #
coedge $-1 $526 $525 $624 $720 reversed $347 $-1 #
edge $-1 $722 -15 $635 15 $573 $728 forward 7 unknown #
edge $-1 $531 -15 $729 15 $530 $730 forward 7 unknown #
vertex $-1 $633 $731 #
straight-curve $-1 15 0 -30 0 1 0 I I #
ellipse-curve $-1 15 -25 -35 0 1 -0 3.535533905932739973 0 3.535533905932739973 1 I I #
point $-1 20 -25 -35 #
coedge $-1 $732 $530 $621 $717 forward $57 $-1 #
point $-1 15 25 -30 #
ellipse-curve $-1 20 0 -40.00000000000009948 1 -0 -0 -1.745740669421570149e-14 0 -5 1 I I #
face $-1 $733 $734 $2 $-1 $481 reversed single #
plane-surface $-1 20 0 -40 -1 0 0 0 0 1 forward_v I I I I #
straight-curve $-1 -60 0 -30 0 -1 0 I I #
coedge $-1 $540 $732 $735 $736 reversed $57 $-1 #
coedge $-1 $737 $738 $540 $647 reversed $739 $-1 #
edge $-1 $740 -25 $651 -7.5 $540 $741 forward 7 unknown #
coedge $-1 $549 $541 $738 $742 reversed $650 $-1 #
coedge $-1 $541 $549 $543 $653 reversed $650 $-1 #
loop $-1 $-1 $541 $743 #
vertex $-1 $542 $744 #
ellipse-curve $-1 -42.5 25 -32.5 0 -1 0 1.767766952966369987 0 1.767766952966369987 1 I I #
edge $-1 $545 -25 $551 25 $543 $745 forward 7 unknown #
face $-1 $743 $544 $2 $-1 $746 reversed single #
point $-1 -42.5 25 -30 #
coedge $-1 $721 $548 $747 $748 reversed $54 $-1 #
coedge $-1 $738 $737 $548 $658 reversed $739 $-1 #
edge $-1 $659 7.5 $749 25 $548 $750 forward 7 unknown #
vertex $-1 $550 $751 #
ellipse-curve $-1 -42.5 -25 -32.5 0 1 -0 1.767766952966369987 0 1.767766952966369987 1 I I #
point $-1 -42.5 -25 -30 #
coedge $-1 $554 $694 $752 $753 forward $57 $-1 #
coedge $-1 $754 $755 $554 $664 reversed $756 $-1 #
edge $-1 $757 15 $668 30 $554 $758 forward 7 unknown #
coedge $-1 $568 $555 $755 $759 forward $667 $-1 #
coedge $-1 $555 $568 $557 $669 forward $667 $-1 #
loop $-1 $-1 $665 $760 #
vertex $-1 $556 $761 #
edge $-1 $570 -25 $560 25 $666 $762 forward 7 unknown #
face $-1 $291 $763 $2 $-1 $764 forward single #
point $-1 40 25 50 #
straight-curve $-1 40 0 32.5 0 1 0 I I #
cone-surface $-1 42.5 0 32.5 0 1 0 -1.767766952966369987 0 -1.767766952966369987 1 I I 0 1 2.500000000000001776 forward I I I I #
coedge $-1 $680 $567 $765 $766 forward $54 $-1 #
coedge $-1 $755 $767 $567 $676 reversed $756 $-1 #
edge $-1 $677 -30 $768 -15 $567 $769 forward 7 unknown #
vertex $-1 $676 $770 #
point $-1 40 -25 50 #
straight-curve $-1 20 0 -50 0 1 -0 I I #
coedge $-1 $582 $674 $771 $772 forward $54 $-1 #
coedge $-1 $713 $617 $582 $682 reversed $425 $-1 #
edge $-1 $773 -0.785398163397448279 $686 0.785398163397448279 $582 $774 forward 7 unknown #
coedge $-1 $775 $583 $617 $712 reversed $685 $-1 #
coedge $-1 $583 $597 $585 $688 reversed $685 $-1 #
loop $-1 $-1 $619 $733 #
vertex $-1 $584 $776 #
straight-curve $-1 -20 -25 20 -0 0 1 I I #
edge $-1 $588 -25 $599 25 $585 $777 forward 7 unknown #
point $-1 -20 -25 50 #
straight-curve $-1 -40 0 50 0 -1 0 I I #
loop $-1 $491 $778 $591 #
plane-surface $-1 -40 0 50 -1 0 0 0 0 1 forward_v I I I I #
plane-surface $-1 0 0 50 0 0 1 1 0 0 forward_v I I I I #
coedge $-1 $662 $596 $779 $780 forward $57 $-1 #
edge $-1 $696 -0.785398163397448279 $781 0.785398163397448279 $596 $782 forward 7 unknown #
vertex $-1 $598 $783 #
straight-curve $-1 -20 25 20 0 0 -1 I I #
point $-1 -20 25 50 #
plane-surface $-1 -20 0 -40 1 0 0 0 0 -1 forward_v I I I I #
loop $-1 $-1 $784 $505 #
coedge $-1 $785 $785 $714 $786 reversed $603 $-1 #
coedge $-1 $787 $787 $788 $789 reversed $604 $-1 #
coedge $-1 $703 $703 $605 $704 forward $763 $-1 #
edge $-1 $790 -3.141592653589799777 $790 3.141592653589786455 $703 $791 forward 7 unknown #
coedge $-1 $705 $705 $606 $706 forward $792 $-1 #
edge $-1 $793 -3.141592653589799777 $793 3.141592653589786455 $705 $794 forward 7 unknown #
ellipse-curve $-1 -20 0 -39.99999999999990052 -1 -0 -0 -1.745740669421570149e-14 0 -5 1 I I #
point $-1 40 -3.4914813388431302e-14 -35.00000000000009948 #
point $-1 -5 -3.4914813388431302e-14 30 #
coedge $-1 $795 $765 $767 $796 forward $614 $-1 #
coedge $-1 $771 $779 $713 $797 reversed $616 $-1 #
edge $-1 $715 -0 $686 25 $683 $716 forward 7 unknown #
coedge $-1 $618 $681 $711 $797 forward $425 $-1 #
coedge $-1 $619 $775 $701 $786 forward $685 $-1 #
vertex $-1 $786 $798 #
straight-curve $-1 -20 0 35 -0 -1 -0 I I #
edge $-1 $729 -0.785398163397448279 $719 0.785398163397448279 $639 $799 forward 7 unknown #
coedge $-1 $622 $724 $732 $800 reversed $628 $-1 #
vertex $-1 $800 $801 #
edge $-1 $729 -25 $722 25 $632 $802 forward 7 unknown #
coedge $-1 $625 $656 $627 $725 forward $54 $-1 #
vertex $-1 $633 $803 #
ellipse-curve $-1 -15 -25 -35 0 1 -0 -3.535533905932739973 0 3.535533905932739973 1 I I #
coedge $-1 $718 $627 $804 $805 reversed $628 $-1 #
edge $-1 $806 -30 $629 -15 $721 $807 forward 7 unknown #
point $-1 -20 -25 -35 #
point $-1 -20 -3.4914813388431302e-14 -34.99999999999990052 #
straight-curve $-1 0 -25 -30 1 -0 0 I I #
vertex $-1 $634 $808 #
straight-curve $-1 0 25 -30 -1 0 0 I I #
point $-1 15 -25 -30 #
coedge $-1 $645 $639 $718 $800 forward $57 $-1 #
face $-1 $809 $685 $2 $-1 $810 forward single #
loop $-1 $-1 $804 $642 #
coedge $-1 $804 $811 $645 $736 forward $734 $-1 #
edge $-1 $740 -40 $812 -20 $645 $484 forward 7 unknown #
coedge $-1 $657 $646 $811 $813 reversed $739 $-1 #
coedge $-1 $646 $657 $648 $742 forward $739 $-1 #
loop $-1 $-1 $646 $814 #
vertex $-1 $813 $815 #
straight-curve $-1 -40 25 -25 0 0 1 I I #
edge $-1 $659 -25 $651 25 $738 $816 forward 7 unknown #
face $-1 $814 $650 $2 $-1 $817 reversed single #
point $-1 -40 25 -32.5 #
straight-curve $-1 -42.5 0 -30 -0 -1 -0 I I #
plane-surface $-1 -60 0 -30 0 0 1 1 0 0 forward_v I I I I #
coedge $-1 $811 $804 $656 $748 forward $734 $-1 #
edge $-1 $806 20 $749 40 $656 $475 forward 7 unknown #
vertex $-1 $748 $818 #
straight-curve $-1 -40 -25 -25 -0 0 -1 I I #
point $-1 -40 -25 -32.5 #
coedge $-1 $819 $795 $662 $753 reversed $614 $-1 #
edge $-1 $820 -0.785398163397448279 $757 0.785398163397448279 $662 $821 forward 7 unknown #
coedge $-1 $822 $663 $795 $823 reversed $756 $-1 #
coedge $-1 $663 $675 $665 $759 reversed $756 $-1 #
loop $-1 $-1 $767 $809 #
vertex $-1 $664 $824 #
straight-curve $-1 20 25 20 0 0 1 I I #
edge $-1 $668 -25 $677 25 $665 $825 forward 7 unknown #
face $-1 $654 $667 $2 $-1 $693 forward single #
point $-1 20 25 50 #
straight-curve $-1 40 0 50 0 1 0 I I #
loop $-1 $559 $703 $670 #
plane-surface $-1 40 0 50 1 0 0 0 0 -1 forward_v I I I I #
coedge $-1 $710 $819 $674 $766 reversed $614 $-1 #
edge $-1 $768 -0.785398163397448279 $826 0.785398163397448279 $674 $827 forward 7 unknown #
coedge $-1 $675 $788 $710 $796 reversed $756 $-1 #
vertex $-1 $676 $828 #
straight-curve $-1 20 -25 20 -0 0 -1 I I #
point $-1 20 -25 50 #
coedge $-1 $829 $711 $680 $772 reversed $616 $-1 #
edge $-1 $826 -15 $773 15 $680 $830 forward 7 unknown #
vertex $-1 $772 $831 #
ellipse-curve $-1 -15 -25 35 0 1 -0 -3.535533905932739973 0 -3.535533905932739973 1 I I #
coedge $-1 $714 $683 $785 $832 forward $685 $-1 #
point $-1 -20 -25 35 #
straight-curve $-1 -20 0 50 0 1 0 I I #
coedge $-1 $778 $778 $784 $833 forward $691 $-1 #
coedge $-1 $711 $829 $694 $780 reversed $616 $-1 #
edge $-1 $781 -15 $820 15 $694 $834 forward 7 unknown #
vertex $-1 $780 $835 #
ellipse-curve $-1 -15 25 35 0 -1 0 -3.535533905932739973 0 -3.535533905932739973 1 I I #
point $-1 -20 25 35 #
coedge $-1 $784 $784 $778 $833 reversed $700 $-1 #
coedge $-1 $701 $701 $775 $832 reversed $603 $-1 #
edge $-1 $836 -3.141592653589799777 $715 0 $714 $837 forward 7 unknown #
coedge $-1 $702 $702 $822 $838 reversed $604 $-1 #
coedge $-1 $767 $822 $702 $789 forward $756 $-1 #
edge $-1 $839 -3.141592653589799777 $840 0 $788 $841 forward 7 unknown #
vertex $-1 $704 $842 #
ellipse-curve $-1 40 0 39.99999999999990052 -1 -0 -0 -1.745740669421570149e-14 0 -5 1 I I #
loop $-1 $739 $705 $814 #
vertex $-1 $706 $843 #
ellipse-curve $-1 -40 0 -39.99999999999990052 1 -0 -0 -1.745740669421570149e-14 0 -5 1 I I #
coedge $-1 $752 $710 $754 $823 forward $614 $-1 #
edge $-1 $768 -25 $840 0 $767 $844 forward 7 unknown #
edge $-1 $773 -25 $781 25 $711 $845 forward 7 unknown #
point $-1 -20 0 35 #
ellipse-curve $-1 -15 25 -35 0 -1 0 -3.535533905932739973 0 3.535533905932739973 1 I I #
edge $-1 $719 15 $812 30 $732 $846 forward 7 unknown #
point $-1 -20 25 -35 #
straight-curve $-1 -15 0 -30 0 -1 0 I I #
point $-1 -15 -25 -30 #
coedge $-1 $747 $735 $724 $805 forward $734 $-1 #
edge $-1 $812 -25 $806 25 $804 $847 forward 7 unknown #
vertex $-1 $805 $848 #
straight-curve $-1 -20 -25 -20 -0 0 1 I I #
point $-1 -15 25 -30 #
face $-1 $760 $756 $2 $-1 $849 forward single #
plane-surface $-1 -20 0 40 1 0 0 0 0 -1 forward_v I I I I #
coedge $-1 $735 $747 $737 $813 forward $734 $-1 #
vertex $-1 $736 $850 #
edge $-1 $749 -25 $740 25 $811 $851 forward 7 unknown #
face $-1 $591 $792 $2 $-1 $852 forward single #
point $-1 -40 25 -50 #
straight-curve $-1 -40 0 -32.5 0 1 0 I I #
cone-surface $-1 -42.5 0 -32.5 0 1 0 1.767766952966369987 0 1.767766952966369987 1 I I 0 1 2.500000000000001776 forward I I I I #
point $-1 -40 -25 -50 #
coedge $-1 $765 $752 $829 $853 forward $614 $-1 #
vertex $-1 $780 $854 #
ellipse-curve $-1 15 25 35 0 -1 0 3.535533905932739973 0 -3.535533905932739973 1 I I #
coedge $-1 $788 $754 $787 $838 forward $756 $-1 #
edge $-1 $840 0 $757 25 $754 $844 forward 7 unknown #
point $-1 20 25 35 #
straight-curve $-1 20 0 50 0 -1 0 I I #
vertex $-1 $772 $855 #
ellipse-curve $-1 15 -25 35 0 1 -0 3.535533905932739973 0 -3.535533905932739973 1 I I #
point $-1 20 -25 35 #
coedge $-1 $779 $771 $819 $853 reversed $616 $-1 #
straight-curve $-1 0 -25 30 -1 0 0 I I #
point $-1 -15 -25 30 #
edge $-1 $715 0 $836 3.141592653589786455 $775 $837 forward 7 unknown #
edge $-1 $856 -3.141592653589799777 $856 3.141592653589786455 $778 $857 forward 7 unknown #
straight-curve $-1 0 25 30 1 0 -0 I I #
point $-1 -15 25 30 #
vertex $-1 $832 $858 #
ellipse-curve $-1 -20 0 40.00000000000009948 -1 -0 -0 -1.745740669421570149e-14 0 -5 1 I I #
edge $-1 $840 0 $839 3.141592653589786455 $822 $841 forward 7 unknown #
vertex $-1 $838 $859 #
vertex $-1 $789 $860 #
ellipse-curve $-1 20 0 39.99999999999990052 1 -0 -0 -1.745740669421570149e-14 0 -5 1 I I #
point $-1 40 -3.4914813388431302e-14 44.99999999999990052 #
point $-1 -40 3.4914813388431302e-14 -34.99999999999990052 #
straight-curve $-1 20 0 35 0 1 0 I I #
straight-curve $-1 -15 0 30 0 1 0 I I #
straight-curve $-1 -20 25 -20 0 0 -1 I I #
straight-curve $-1 -20 0 -50 0 -1 0 I I #
point $-1 -20 -25 -50 #
plane-surface $-1 20 0 40 -1 0 0 0 0 1 forward_v I I I I #
point $-1 -20 25 -50 #
straight-curve $-1 -40 0 -50 0 1 -0 I I #
plane-surface $-1 -40 0 -50 -1 0 0 0 0 1 forward_v I I I I #
edge $-1 $820 -25 $826 25 $829 $861 forward 7 unknown #
point $-1 15 25 30 #
point $-1 15 -25 30 #
vertex $-1 $833 $862 #
ellipse-curve $-1 -40 0 40.00000000000009948 1 -0 -0 -1.745740669421570149e-14 0 -5 1 I I #
point $-1 -20 -3.4914813388431302e-14 45.00000000000009948 #
point $-1 20 3.4914813388431302e-14 44.99999999999990052 #
point $-1 20 0 35 #
straight-curve $-1 15 0 30 0 -1 0 I I #
point $-1 -40 3.4914813388431302e-14 45.00000000000009948 #
End-of-ACIS-data 