  0
SECTION
  2
HEADER
  9
$ACADVER
  1
AC1009
  9
$INSBASE
 10
0.0
 20
0.0
 30
0.0
  9
$EXTMIN
 10
0.0
 20
0.0
 30
0.0
  9
$EXTMAX
 10
4.0
 20
3.0
 30
4.0
  9
$LIMMIN
 10
0.0
 20
0.0
  9
$LIMMAX
 10
12.0
 20
9.0
  9
$ORTHOMODE
 70
     0
  9
$REGENMODE
 70
     1
  9
$FILLMODE
 70
     1
  9
$QTEXTMODE
 70
     0
  9
$MIRRTEXT
 70
     1
  9
$DRAGMODE
 70
     2
  9
$LTSCALE
 40
1.0
  9
$OSMODE
 70
     0
  9
$ATTMODE
 70
     1
  9
$TEXTSIZE
 40
0.2
  9
$TRACEWID
 40
0.05
  9
$TEXTSTYLE
  7
STANDARD
  9
$CLAYER
  8
0
  9
$CELTYPE
  6
BYLAYER
  9
$CECOLOR
 62
   256
  9
$DIMSCALE
 40
1.0
  9
$DIMASZ
 40
0.18
  9
$DIMEXO
 40
0.0625
  9
$DIMDLI
 40
0.38
  9
$DIMRND
 40
0.0
  9
$DIMDLE
 40
0.0
  9
$DIMEXE
 40
0.18
  9
$DIMTP
 40
0.0
  9
$DIMTM
 40
0.0
  9
$DIMTXT
 40
0.18
  9
$DIMCEN
 40
0.09
  9
$DIMTSZ
 40
0.0
  9
$DIMTOL
 70
     0
  9
$DIMLIM
 70
     0
  9
$DIMTIH
 70
     1
  9
$DIMTOH
 70
     1
  9
$DIMSE1
 70
     0
  9
$DIMSE2
 70
     0
  9
$DIMTAD
 70
     0
  9
$DIMZIN
 70
     0
  9
$DIMBLK
  1

  9
$DIMASO
 70
     1
  9
$DIMSHO
 70
     1
  9
$DIMPOST
  1

  9
$DIMAPOST
  1

  9
$DIMALT
 70
     0
  9
$DIMALTD
 70
     2
  9
$DIMALTF
 40
25.4
  9
$DIMLFAC
 40
1.0
  9
$DIMTOFL
 70
     0
  9
$DIMTVP
 40
0.0
  9
$DIMTIX
 70
     0
  9
$DIMSOXD
 70
     0
  9
$DIMSAH
 70
     0
  9
$DIMBLK1
  1

  9
$DIMBLK2
  1

  9
$DIMSTYLE
  2
*UNNAMED
  9
$DIMCLRD
 70
     0
  9
$DIMCLRE
 70
     0
  9
$DIMCLRT
 70
     0
  9
$DIMTFAC
 40
1.0
  9
$DIMGAP
 40
0.09
  9
$LUNITS
 70
     2
  9
$LUPREC
 70
     4
  9
$SKETCHINC
 40
0.1
  9
$FILLETRAD
 40
0.0
  9
$AUNITS
 70
     0
  9
$AUPREC
 70
     0
  9
$MENU
  1
acad
  9
$ELEVATION
 40
0.0
  9
$PELEVATION
 40
0.0
  9
$THICKNESS
 40
0.0
  9
$LIMCHECK
 70
     0
  9
$BLIPMODE
 70
     1
  9
$CHAMFERA
 40
0.0
  9
$CHAMFERB
 40
0.0
  9
$SKPOLY
 70
     0
  9
$TDCREATE
 40
2449314.396656678
  9
$TDUPDATE
 40
2449314.398653460
  9
$TDINDWG
 40
0.0019967824
  9
$TDUSRTIMER
 40
0.0019967824
  9
$USRTIMER
 70
     1
  9
$ANGBASE
 50
0.0
  9
$ANGDIR
 70
     0
  9
$PDMODE
 70
     0
  9
$PDSIZE
 40
0.0
  9
$PLINEWID
 40
0.0
  9
$COORDS
 70
     0
  9
$SPLFRAME
 70
     0
  9
$SPLINETYPE
 70
     6
  9
$SPLINESEGS
 70
     8
  9
$ATTDIA
 70
     0
  9
$ATTREQ
 70
     1
  9
$HANDLING
 70
     1
  9
$HANDSEED
  5
62
  9
$SURFTAB1
 70
     6
  9
$SURFTAB2
 70
     6
  9
$SURFTYPE
 70
     6
  9
$SURFU
 70
     6
  9
$SURFV
 70
     6
  9
$UCSNAME
  2

  9
$UCSORG
 10
0.0
 20
0.0
 30
0.0
  9
$UCSXDIR
 10
1.0
 20
0.0
 30
0.0
  9
$UCSYDIR
 10
0.0
 20
1.0
 30
0.0
  9
$PUCSNAME
  2

  9
$PUCSORG
 10
0.0
 20
0.0
 30
0.0
  9
$PUCSXDIR
 10
1.0
 20
0.0
 30
0.0
  9
$PUCSYDIR
 10
0.0
 20
1.0
 30
0.0
  9
$USERI1
 70
     0
  9
$USERI2
 70
     0
  9
$USERI3
 70
     0
  9
$USERI4
 70
     0
  9
$USERI5
 70
     0
  9
$USERR1
 40
0.0
  9
$USERR2
 40
0.0
  9
$USERR3
 40
0.0
  9
$USERR4
 40
0.0
  9
$USERR5
 40
0.0
  9
$WORLDVIEW
 70
     1
  9
$SHADEDGE
 70
     3
  9
$SHADEDIF
 70
    70
  9
$TILEMODE
 70
     1
  9
$MAXACTVP
 70
    16
  9
$PINSBASE
 10
0.0
 20
0.0
 30
0.0
  9
$PLIMCHECK
 70
     0
  9
$PEXTMIN
 10
1.000000E+20
 20
1.000000E+20
 30
1.000000E+20
  9
$PEXTMAX
 10
-1.000000E+20
 20
-1.000000E+20
 30
-1.000000E+20
  9
$PLIMMIN
 10
0.0
 20
0.0
  9
$PLIMMAX
 10
12.0
 20
9.0
  9
$UNITMODE
 70
     0
  9
$VISRETAIN
 70
     0
  9
$PLINEGEN
 70
     0
  9
$PSLTSCALE
 70
     0
  9
$TREEDEPTH
 70
  3020
  9
$DWGCODEPAGE
  3
undefined
  0
ENDSEC
  0
SECTION
  2
TABLES
  0
TABLE
  2
VPORT
 70
     2
  0
VPORT
  2
*ACTIVE
 70
     0
 10
0.0
 20
0.0
 11
1.0
 21
1.0
 12
7.176972
 22
4.5
 13
0.0
 23
0.0
 14
1.0
 24
1.0
 15
0.0
 25
0.0
 16
0.0
 26
0.0
 36
1.0
 17
0.0
 27
0.0
 37
0.0
 40
9.0
 41
1.594883
 42
50.0
 43
0.0
 44
0.0
 50
0.0
 51
0.0
 71
     0
 72
   100
 73
     1
 74
     1
 75
     0
 76
     0
 77
     0
 78
     0
  0
ENDTAB
  0
TABLE
  2
LTYPE
 70
     1
  0
LTYPE
  2
CONTINUOUS
 70
    64
  3
Solid line
 72
    65
 73
     0
 40
0.0
  0
ENDTAB
  0
TABLE
  2
LAYER
 70
     2
  0
LAYER
  2
0
 70
    64
 62
     7
  6
CONTINUOUS
  0
LAYER
  2
AME_FRZ
 70
    65
 62
     7
  6
CONTINUOUS
  0
ENDTAB
  0
TABLE
  2
STYLE
 70
     1
  0
STYLE
  2
STANDARD
 70
     0
 40
0.0
 41
1.0
 50
0.0
 71
     0
 42
0.2
  3
txt
  4

  0
ENDTAB
  0
TABLE
  2
VIEW
 70
     0
  0
ENDTAB
  0
TABLE
  2
UCS
 70
     0
  0
ENDTAB
  0
TABLE
  2
APPID
 70
     2
  0
APPID
  2
ACAD
 70
    64
  0
APPID
  2
AME_SOL
 70
    64
  0
ENDTAB
  0
TABLE
  2
DIMSTYLE
 70
     0
  0
ENDTAB
  0
ENDSEC
  0
SECTION
  2
BLOCKS
  0
BLOCK
  8
0
  5
1
  2
AME_NIL
 70
    64
 10
0.0
 20
0.0
 30
0.0
  1
AME_NIL
  3
AME_NIL
  0
ENDBLK
  8
0
  5
2
  0
BLOCK
  8
0
  5
4
  2
AME_SOL
 70
    64
 10
0.0
 20
0.0
 30
0.0
  1
AME_SOL
  3
AME_SOL
  0
ENDBLK
  8
0
  5
5
  0
BLOCK
  8
0
  5
7
  2
*U2
 70
    65
 10
0.0
 20
0.0
 30
0.0
  1
*U
  3
*U
  0
LINE
  8
0
 62
     0
  5
8
 10
4.0
 20
3.0
 30
0.0
 11
4.0
 21
3.0
 31
4.0
1001
AME_SOL
1070
     1
1071
       18
  0
LINE
  8
0
 62
     0
  5
9
 10
4.0
 20
3.0
 30
4.0
 11
4.0
 21
0.0
 31
4.0
1001
AME_SOL
1070
     1
1071
       17
  0
LINE
  8
0
 62
     0
  5
A
 10
0.0
 20
3.0
 30
4.0
 11
4.0
 21
3.0
 31
4.0
1001
AME_SOL
1070
     1
1071
       16
  0
LINE
  8
0
 62
     0
  5
B
 10
0.0
 20
3.0
 30
0.0
 11
0.0
 21
3.0
 31
4.0
1001
AME_SOL
1070
     1
1071
       15
  0
LINE
  8
0
 62
     0
  5
C
 10
0.0
 20
3.0
 30
4.0
 11
0.0
 21
0.0
 31
4.0
1001
AME_SOL
1070
     1
1071
       14
  0
LINE
  8
0
 62
     0
  5
D
 10
0.0
 20
0.0
 30
0.0
 11
0.0
 21
0.0
 31
4.0
1001
AME_SOL
1070
     1
1071
       13
  0
LINE
  8
0
 62
     0
  5
E
 10
4.0
 20
0.0
 30
4.0
 11
4.0
 21
0.0
 31
0.0
1001
AME_SOL
1070
     1
1071
       12
  0
LINE
  8
0
 62
     0
  5
F
 10
0.0
 20
0.0
 30
4.0
 11
4.0
 21
0.0
 31
4.0
1001
AME_SOL
1070
     1
1071
       11
  0
LINE
  8
0
 62
     0
  5
10
 10
0.0
 20
0.0
 30
0.0
 11
4.0
 21
0.0
 31
0.0
1001
AME_SOL
1070
     1
1071
       10
  0
LINE
  8
0
 62
     0
  5
11
 10
0.0
 20
3.0
 30
0.0
 11
0.0
 21
0.0
 31
0.0
1001
AME_SOL
1070
     1
1071
        9
  0
LINE
  8
0
 62
     0
  5
12
 10
4.0
 20
0.0
 30
0.0
 11
4.0
 21
3.0
 31
0.0
1001
AME_SOL
1070
     1
1071
        8
  0
LINE
  8
0
 62
     0
  5
13
 10
4.0
 20
3.0
 30
0.0
 11
0.0
 21
3.0
 31
0.0
1001
AME_SOL
1070
     1
1071
        7
  0
ENDBLK
  8
0
  5
14
  0
BLOCK
  8
0
  5
18
  2
*U3
 70
    65
 10
0.0
 20
0.0
 30
0.0
  1
*U
  3
*U
  0
LINE
  8
0
 62
     0
  5
19
 10
2.0
 20
1.0
 30
0.0
 11
2.0
 21
1.0
 31
4.0
1001
AME_SOL
1070
     1
1071
       18
  0
LINE
  8
0
 62
     0
  5
1A
 10
2.0
 20
1.0
 30
4.0
 11
2.0
 21
0.0
 31
4.0
1001
AME_SOL
1070
     1
1071
       17
  0
LINE
  8
0
 62
     0
  5
1B
 10
0.0
 20
1.0
 30
4.0
 11
2.0
 21
1.0
 31
4.0
1001
AME_SOL
1070
     1
1071
       16
  0
LINE
  8
0
 62
     0
  5
1C
 10
0.0
 20
1.0
 30
0.0
 11
0.0
 21
1.0
 31
4.0
1001
AME_SOL
1070
     1
1071
       15
  0
LINE
  8
0
 62
     0
  5
1D
 10
0.0
 20
1.0
 30
4.0
 11
0.0
 21
0.0
 31
4.0
1001
AME_SOL
1070
     1
1071
       14
  0
LINE
  8
0
 62
     0
  5
1E
 10
0.0
 20
0.0
 30
0.0
 11
0.0
 21
0.0
 31
4.0
1001
AME_SOL
1070
     1
1071
       13
  0
LINE
  8
0
 62
     0
  5
1F
 10
2.0
 20
0.0
 30
4.0
 11
2.0
 21
0.0
 31
0.0
1001
AME_SOL
1070
     1
1071
       12
  0
LINE
  8
0
 62
     0
  5
20
 10
0.0
 20
0.0
 30
4.0
 11
2.0
 21
0.0
 31
4.0
1001
AME_SOL
1070
     1
1071
       11
  0
LINE
  8
0
 62
     0
  5
21
 10
0.0
 20
0.0
 30
0.0
 11
2.0
 21
0.0
 31
0.0
1001
AME_SOL
1070
     1
1071
       10
  0
LINE
  8
0
 62
     0
  5
22
 10
0.0
 20
1.0
 30
0.0
 11
0.0
 21
0.0
 31
0.0
1001
AME_SOL
1070
     1
1071
        9
  0
LINE
  8
0
 62
     0
  5
23
 10
2.0
 20
0.0
 30
0.0
 11
2.0
 21
1.0
 31
0.0
1001
AME_SOL
1070
     1
1071
        8
  0
LINE
  8
0
 62
     0
  5
24
 10
2.0
 20
1.0
 30
0.0
 11
0.0
 21
1.0
 31
0.0
1001
AME_SOL
1070
     1
1071
        7
  0
ENDBLK
  8
0
  5
25
  0
BLOCK
  8
0
  5
29
  2
*U4
 70
    65
 10
0.0
 20
0.0
 30
0.0
  1
*U
  3
*U
  0
LINE
  8
0
 62
     0
  5
2A
 10
1.0
 20
1.0
 30
0.0
 11
1.0
 21
1.0
 31
4.0
1001
AME_SOL
1070
     1
1071
       18
  0
LINE
  8
0
 62
     0
  5
2B
 10
1.0
 20
1.0
 30
4.0
 11
1.0
 21
0.0
 31
4.0
1001
AME_SOL
1070
     1
1071
       17
  0
LINE
  8
0
 62
     0
  5
2C
 10
0.0
 20
1.0
 30
4.0
 11
1.0
 21
1.0
 31
4.0
1001
AME_SOL
1070
     1
1071
       16
  0
LINE
  8
0
 62
     0
  5
2D
 10
0.0
 20
1.0
 30
0.0
 11
0.0
 21
1.0
 31
4.0
1001
AME_SOL
1070
     1
1071
       15
  0
LINE
  8
0
 62
     0
  5
2E
 10
0.0
 20
1.0
 30
4.0
 11
0.0
 21
0.0
 31
4.0
1001
AME_SOL
1070
     1
1071
       14
  0
LINE
  8
0
 62
     0
  5
2F
 10
0.0
 20
0.0
 30
0.0
 11
0.0
 21
0.0
 31
4.0
1001
AME_SOL
1070
     1
1071
       13
  0
LINE
  8
0
 62
     0
  5
30
 10
1.0
 20
0.0
 30
4.0
 11
1.0
 21
0.0
 31
0.0
1001
AME_SOL
1070
     1
1071
       12
  0
LINE
  8
0
 62
     0
  5
31
 10
0.0
 20
0.0
 30
4.0
 11
1.0
 21
0.0
 31
4.0
1001
AME_SOL
1070
     1
1071
       11
  0
LINE
  8
0
 62
     0
  5
32
 10
0.0
 20
0.0
 30
0.0
 11
1.0
 21
0.0
 31
0.0
1001
AME_SOL
1070
     1
1071
       10
  0
LINE
  8
0
 62
     0
  5
33
 10
0.0
 20
1.0
 30
0.0
 11
0.0
 21
0.0
 31
0.0
1001
AME_SOL
1070
     1
1071
        9
  0
LINE
  8
0
 62
     0
  5
34
 10
1.0
 20
0.0
 30
0.0
 11
1.0
 21
1.0
 31
0.0
1001
AME_SOL
1070
     1
1071
        8
  0
LINE
  8
0
 62
     0
  5
35
 10
1.0
 20
1.0
 30
0.0
 11
0.0
 21
1.0
 31
0.0
1001
AME_SOL
1070
     1
1071
        7
  0
ENDBLK
  8
0
  5
36
  0
BLOCK
  8
0
  5
3C
  2
*U5
 70
    65
 10
0.0
 20
0.0
 30
0.0
  1
*U
  3
*U
  0
LINE
  8
0
 62
     7
  5
3D
 10
4.0
 20
3.0
 30
0.0
 11
4.0
 21
3.0
 31
4.0
1001
AME_SOL
1070
     1
1071
       41
  0
LINE
  8
0
 62
     7
  5
3E
 10
4.0
 20
3.0
 30
4.0
 11
4.0
 21
0.0
 31
4.0
1001
AME_SOL
1070
     1
1071
       40
  0
LINE
  8
0
 62
     7
  5
3F
 10
3.0
 20
3.0
 30
4.0
 11
4.0
 21
3.0
 31
4.0
1001
AME_SOL
1070
     1
1071
       39
  0
LINE
  8
0
 62
     7
  5
40
 10
0.0
 20
3.0
 30
4.0
 11
1.0
 21
3.0
 31
4.0
1001
AME_SOL
1070
     1
1071
       38
  0
LINE
  8
0
 62
     7
  5
41
 10
0.0
 20
3.0
 30
0.0
 11
0.0
 21
3.0
 31
4.0
1001
AME_SOL
1070
     1
1071
       37
  0
LINE
  8
0
 62
     7
  5
42
 10
0.0
 20
3.0
 30
4.0
 11
0.0
 21
0.0
 31
4.0
1001
AME_SOL
1070
     1
1071
       36
  0
LINE
  8
0
 62
     7
  5
43
 10
0.0
 20
0.0
 30
0.0
 11
0.0
 21
0.0
 31
4.0
1001
AME_SOL
1070
     1
1071
       35
  0
LINE
  8
0
 62
     7
  5
44
 10
4.0
 20
0.0
 30
4.0
 11
4.0
 21
0.0
 31
0.0
1001
AME_SOL
1070
     1
1071
       34
  0
LINE
  8
0
 62
     7
  5
45
 10
0.0
 20
0.0
 30
4.0
 11
4.0
 21
0.0
 31
4.0
1001
AME_SOL
1070
     1
1071
       33
  0
LINE
  8
0
 62
     7
  5
46
 10
0.0
 20
0.0
 30
0.0
 11
4.0
 21
0.0
 31
0.0
1001
AME_SOL
1070
     1
1071
       32
  0
LINE
  8
0
 62
     7
  5
47
 10
0.0
 20
3.0
 30
0.0
 11
0.0
 21
0.0
 31
0.0
1001
AME_SOL
1070
     1
1071
       31
  0
LINE
  8
0
 62
     7
  5
48
 10
4.0
 20
0.0
 30
0.0
 11
4.0
 21
3.0
 31
0.0
1001
AME_SOL
1070
     1
1071
       30
  0
LINE
  8
0
 62
     7
  5
49
 10
1.0
 20
3.0
 30
0.0
 11
0.0
 21
3.0
 31
0.0
1001
AME_SOL
1070
     1
1071
       29
  0
LINE
  8
0
 62
     7
  5
4A
 10
4.0
 20
3.0
 30
0.0
 11
3.0
 21
3.0
 31
0.0
1001
AME_SOL
1070
     1
1071
       28
  0
LINE
  8
0
 62
     7
  5
4B
 10
3.0
 20
3.0
 30
0.0
 11
3.0
 21
1.0
 31
0.0
1001
AME_SOL
1070
     1
1071
       27
  0
LINE
  8
0
 62
     7
  5
4C
 10
3.0
 20
3.0
 30
4.0
 11
3.0
 21
3.0
 31
0.0
1001
AME_SOL
1070
     1
1071
       26
  0
LINE
  8
0
 62
     7
  5
4D
 10
3.0
 20
1.0
 30
4.0
 11
3.0
 21
3.0
 31
4.0
1001
AME_SOL
1070
     1
1071
       25
  0
LINE
  8
0
 62
     7
  5
4E
 10
1.0
 20
2.0
 30
0.0
 11
1.0
 21
3.0
 31
0.0
1001
AME_SOL
1070
     1
1071
       24
  0
LINE
  8
0
 62
     7
  5
4F
 10
1.0
 20
3.0
 30
0.0
 11
1.0
 21
3.0
 31
4.0
1001
AME_SOL
1070
     1
1071
       23
  0
LINE
  8
0
 62
     7
  5
50
 10
1.0
 20
3.0
 30
4.0
 11
1.0
 21
2.0
 31
4.0
1001
AME_SOL
1070
     1
1071
       22
  0
LINE
  8
0
 62
     7
  5
51
 10
2.0
 20
2.0
 30
0.0
 11
1.0
 21
2.0
 31
0.0
1001
AME_SOL
1070
     1
1071
       21
  0
LINE
  8
0
 62
     7
  5
52
 10
1.0
 20
2.0
 30
0.0
 11
1.0
 21
2.0
 31
4.0
1001
AME_SOL
1070
     1
1071
       20
  0
LINE
  8
0
 62
     7
  5
53
 10
1.0
 20
2.0
 30
4.0
 11
2.0
 21
2.0
 31
4.0
1001
AME_SOL
1070
     1
1071
       19
  0
LINE
  8
0
 62
     7
  5
54
 10
2.0
 20
1.0
 30
0.0
 11
2.0
 21
2.0
 31
0.0
1001
AME_SOL
1070
     1
1071
       18
  0
LINE
  8
0
 62
     7
  5
55
 10
2.0
 20
2.0
 30
4.0
 11
2.0
 21
1.0
 31
4.0
1001
AME_SOL
1070
     1
1071
       17
  0
LINE
  8
0
 62
     7
  5
56
 10
2.0
 20
2.0
 30
4.0
 11
2.0
 21
2.0
 31
0.0
1001
AME_SOL
1070
     1
1071
       16
  0
LINE
  8
0
 62
     7
  5
57
 10
3.0
 20
1.0
 30
0.0
 11
2.0
 21
1.0
 31
0.0
1001
AME_SOL
1070
     1
1071
       15
  0
LINE
  8
0
 62
     7
  5
58
 10
2.0
 20
1.0
 30
4.0
 11
3.0
 21
1.0
 31
4.0
1001
AME_SOL
1070
     1
1071
       14
  0
LINE
  8
0
 62
     7
  5
59
 10
3.0
 20
1.0
 30
4.0
 11
3.0
 21
1.0
 31
0.0
1001
AME_SOL
1070
     1
1071
       13
  0
LINE
  8
0
 62
     7
  5
5A
 10
2.0
 20
1.0
 30
0.0
 11
2.0
 21
1.0
 31
4.0
1001
AME_SOL
1070
     1
1071
       12
  0
ENDBLK
  8
0
  5
5B
  0
BLOCK
  8
0
  5
5F
  2
AME_MAT
 70
    64
 10
0.0
 20
0.0
 30
0.0
  1
AME_MAT
  3
AME_MAT
  0
ENDBLK
  8
0
  5
60
  0
ENDSEC
  0
SECTION
  2
ENTITIES
  0
INSERT
  8
AME_FRZ
  5
3
  2
AME_NIL
 10
0.0
 20
0.0
 30
0.0
  0
INSERT
  8
AME_FRZ
  5
6
  2
AME_SOL
 10
0.0
 20
0.0
 30
0.0
1001
AME_SOL
1000
1.0
1000
sq cm
1070
     3
1070
     0
1070
     3
1000
wire
1040
0.0
1000
NONE
1040
1.0
1000
cm
1000
gm
1000
MILD_STEEL
1070
    25
1000
CSG
1070
     3
1070
     2
1070
     3
1000
cu cm
1070
     4
1070
     0
1005
3
  0
INSERT
  8
AME_FRZ
  5
15
  2
*U2
 10
0.0
 20
0.0
 30
0.0
1001
AME_SOL
1002
{
1070
     0
1071
  1858888
1070
  1536
1010
4.0
1020
3.0
1030
4.0
1005
0
1005
0
1005
5C
1040
0.0
1040
1.0
1000
MILD_STEEL
1000
0
1010
0.0
1020
0.0
1030
0.0
1010
0.0
1020
0.0
1030
1.0
1040
0.0
1002
}
  0
INSERT
  8
AME_FRZ
  5
26
  2
*U3
 10
1.0
 20
2.0
 30
0.0
1001
AME_SOL
1002
{
1070
     0
1071
  1923032
1070
  1536
1010
2.0
1020
1.0
1030
4.0
1005
0
1005
0
1005
3A
1040
0.0
1040
1.0
1000
MILD_STEEL
1000
0
1010
1.0
1020
2.0
1030
0.0
1010
0.0
1020
0.0
1030
1.0
1040
0.0
1002
}
  0
INSERT
  8
AME_FRZ
  5
37
  2
*U4
 10
2.0
 20
1.0
 30
0.0
1001
AME_SOL
1002
{
1070
     0
1071
  1928872
1070
  1536
1010
1.0
1020
1.0
1030
4.0
1005
0
1005
0
1005
3A
1040
0.0
1040
1.0
1000
MILD_STEEL
1000
0
1010
2.0
1020
1.0
1030
0.0
1010
0.0
1020
0.0
1030
1.0
1040
0.0
1002
}
  0
INSERT
  8
AME_FRZ
  5
3A
  2
AME_NIL
 10
0.0
 20
0.0
 30
0.0
1001
AME_SOL
1002
{
1070
     0
1071
  1957232
1070
   775
1070
     2
1005
26
1005
37
1005
0
1005
0
1005
5C
1040
0.0
1040
1.0
1000
MILD_STEEL
1000
0
1010
0.0
1020
0.0
1030
0.0
1010
0.0
1020
0.0
1030
1.0
1040
0.0
1002
}
  0
INSERT
  8
0
  5
5C
  2
*U5
 10
0.0
 20
0.0
 30
0.0
1001
AME_SOL
1002
{
1070
     0
1071
  1977088
1070
  1543
1070
     0
1005
15
1005
3A
1005
0
1005
5D
1005
0
1040
0.0
1040
1.0
1000
MILD_STEEL
1000
0
1002
}
  0
INSERT
  8
AME_FRZ
  5
5D
  2
AME_NIL
 10
1.0
 20
1.0
 30
1.0
1001
AME_SOL
1004
E903A9FB0100F0FFFFFF000052F70B000100000065E64CBA65E64CBA65E64CBA67068040CE0C40406706804001000000FBF2040008EFFF3F0FDE7F3FB6C307BA7C084040F810803F3E0480400100844E80851E00FFFF0000010031010000844E00000000803F000000000000000000000000000000000000
1004
803F000000400000803F0000000005000000000000000000000000000000000000000000844E00000000803F000000000000000000000000000000000000803F000000400000803F00000000050000000000000000000000000000000000FFFFFFFFFBF2040008EFFF3F0FDE7F3FB6C307BA7C0800407C08
1004
00403E0480400100844E908A1E00FFFF0000010030010000844E000000000000000000000000803F000000000000803F00000000000000400000803F0000000005000000000000000000000000000000000000000000844E000000000000000000000000803F000000000000803F00000000000000400000
1004
803F00000000050000000000000000000000000000000000FFFFFFFFFBF2040057DB7F3FABEDFF3F76A412BA2A0940402A090040950480400100844EE8711E00FFFF0000010095010000844E00000000803F000000000000000000000000000000000000803F0000803F0000004000000000050000000000
1004
00000000000000000000000000000000844E00000000803F000000000000000000000000000000000000803F0000803F0000004000000000050000000000000000000000000000000000FFFFFFFFFBF2040057DB7F3FABEDFF3F76A412BA5512803F2A094040950480400100844ED8721E00FFFF00000100
1004
94010000844E000000000000000000000000803F000000000000803F000000000000803F000000400000000005000000000000000000000000000000000000000000844E000000000000000000000000803F000000000000803F000000000000803F00000040000000000500000000000000000000000000
1004
00000000FFFFFFFFFBF2040084F73F400FDE7F3FB6C307BA7C0840407C0800403E0480400100844ED8731E00FFFF000002002D010000844E000000000080000080BF000000800000008000000080000080BF0000404000000040000080400500000000000000000000000000000000000000000091010000
1004
844E000000000080000080BF000000800000008000000080000080BF00004040000040400000804005000000000000000000000000000000000000000000844E000000000080000080BF000000800000008000000080000080BF000040400000404000008040050000000000000000000000000000000000
1004
FFFFFFFFFBF20A0065E64CBA65E64CBA65E64CBA67068040CE0C404065E64C3A0100844EC8741E00010000000100FA010000844E0000000000000000803F000000000000803F000000000000000000000000000000000000000005000000000000000000000000000000000000000000844E000000000000
1004
0000803F000000000000803F000000000000000000000000000000000000000005000000000000000000000000000000000001000000FBF2040065E64CBA65E64CBA65E64CBA6706804065E64C3A670680400100844EB8751E00010000000100F9010000844E00000000803F000000000000000000000000
1004
000000000000803F00000000000000000000000005000000000000000000000000000000000000000000844E00000000803F000000000000000000000000000000000000803F00000000000000000000000005000000000000000000000000000000000001000000FBF2040065E64CBA65E64CBA65E64CBA
1004
65E64C3ACE0C4040670680400100844EA8761E00010000000100F8010000844E000000000000000000000000803F000000000000803F0000000000000000000000000000000005000000000000000000000000000000000000000000844E000000000000000000000000803F000000000000803F00000000
1004
00000000000000000000000005000000000000000000000000000000000001000000FBF20A0065E64CBA65E64CBA32F37F4067068040CE0C4040670680400100844E78CA1D00010000000100F7010000844E0000000080BF000000800000008000000080000080BF00000080000080400000404000008040
1004
05000000000000000000000000000000000000000000844E0000000080BF000000800000008000000080000080BF0000008000008040000040400000804005000000000000000000000000000000000001000000FBF2080065E64CBA32F33F4065E64CBA67068040CE0C4040670680400100844E68D21D00
1004
010000000100F6010000844E00000000008000000080000080BF000080BF000000800000008000008040000040400000804005000000000000000000000000000000000000000000844E00000000008000000080000080BF000080BF00000080000000800000804000004040000080400500000000000000
1004
0000000000000000000001000000FBF2040032F37F4065E64CBA65E64CBA67068040CE0C4040670680400100844ED8DB1D00010000000100F5010000844E000000000080000080BF000000800000008000000080000080BF0000804000004040000080400500000000000000000000000000000000000000
1004
0000844E000000000080000080BF000000800000008000000080000080BF00008040000040400000804005000000000000000000000000000000000001000000A4EE08EFFF3F0FDE7F3FB6C307BA7C080040F810803F3E048040000000000000804002009675D0D41D0000000100FFFF80851E00908A1E00
1004
00000200908A1E0080851E00FFFFFFFFFFFFFFFF96750000000080BF000000000000000000000000000080BF00000000000000400000803F0000000002000000000000008040A4EE84F73F400FDE7F3FB6C307BA7C084040F810803F3E048040000000C0000000400200967580D61D0000000100FFFF8085
1004
1E00D8731E0000000200D8731E0080851E00FFFFFFFFFFFFFFFF967500000000803F000000000000000000000000000080BF00000000000040400000803F000000400200000000C000000040A4EE08EFFF3F0FDE7F3F32F37F407C084040F810803F3E048040000080BF000000800200967530D81D000000
1004
0100FFFF80851E0078CA1D000000020078CA1D0080851E0001000000FFFFFFFF9675000000000000000000000000803F00000000000080BF00000000000040400000803F000080400200000080BF00000080A4EE08EFFF3F0FDE7F3FB6C307BA7C084040F810803F65E64C3A000000C0000080BF02009675
1004
E0D91D0000000100FFFF80851E00C8741E0000000200C8741E0080851E0001000000FFFFFFFF967500000000000000000000000080BF00000000000080BF000000000000803F0000803F000000000200000000C0000080BFA4EE08EFFF3FABEDFF3FB6C307BA7C0800407C0800403E048040000080C00000
1004
00800200967500DB1D000000FFFF0100908A1E00E8711E0000000200908A1E00E8711E00FFFFFFFFFFFFFFFF9675000000000000000080BF00000000000080BF00000000000000000000004000000040000000000200000080C000000080A4EE08EFFF3F0FDE7F3F32F37F407C0800407C0800403E048040
1004
000000000000803F02009675C0E21D0000000100FFFF908A1E0078CA1D000000020078CA1D00908A1E0001000000FFFFFFFF9675000000000000000000000000803F000080BF00000000000000000000004000000040000080400200000000000000803FA4EE08EFFF3F0FDE7F3FB6C307BA7C0800407C08
1004
004065E64C3A0000003F0000C03F02009675D8E51D0000000100FFFF908A1E00C8741E0000000200C8741E00908A1E0001000000FFFFFFFF967500000000000000000000000080BF000080BF0000000000000000000000400000003F0000000002000000003F0000C03FA4EE57DB7F3FABEDFF3F32F37F40
1004
2A0940402A090040950480400000C0BF000000BF0200967528E41D0000000100FFFFE8711E0078CA1D000000020078CA1D00E8711E0001000000FFFFFFFF9675000000000000000000000000803F00000000000080BF0000000000002040000000400000804002000000C0BF000000BFA4EE57DB7F3FABED
1004
FF3F76A412BA5512803F2A09004095048040000000000000804002009675E8E11D0000000100FFFFE8711E00D8721E0000000200D8721E00E8711E00FFFFFFFFFFFFFFFF96750000000080BF000000000000000000000000000080BF000000000000803F000000400000000002000000000000008040A4EE
1004
57DB7F3FABEDFF3F76A412BA2A0940402A09004065E64C3A0000C0BF000000BF0200967528DC1D0000000100FFFFE8711E00C8741E0000000200C8741E00E8711E0001000000FFFFFFFF967500000000000000000000000080BF00000000000080BF000000000000003F000000400000000002000000C0BF
1004
000000BFA4EE57DB7F3FABEDFF3F32F37F405512803F2A09404095048040000000BF0000003F0200967570DA1D0000000100FFFFD8721E0078CA1D000000020078CA1D00D8721E0001000000FFFFFFFF9675000000000000000000000000803F000080BF00000000000000000000803F0000204000008040
1004
0200000000BF0000003FA4EE57DB7F3F32F33F4076A412BA5512803F2A09404095048040000000C00000004002009675A0D71D0000000100FFFFD8721E0068D21D000000020068D21D00D8721E0001000000FFFFFFFF96750000000000000000803F00000000000080BF00000000000000000000803F0000
1004
4040000000400200000000C000000040A4EE57DB7F3FABEDFF3F76A412BA5512803F2A09404065E64C3A0000803F000000400200967540D41D0000000100FFFFD8721E00C8741E0000000200C8741E00D8721E0001000000FFFFFFFF967500000000000000000000000080BF000080BF0000000000000000
1004
0000803F0000803F0000000002000000803F00000040A4EED6F63F400FDE7F3F32F37F402A0940402A09404095048040000000C00000008002009675C8CC1D0000000100FFFFD8731E0078CA1D000000020078CA1D00D8731E0001000000FFFFFFFF9675000000000000000000000000803F0000803F0000
1004
0000000000000000404000004040000080400200000000C000000080A4EED6F63F4032F33F4076A412BA2A0940402A09404095048040000000000000804002009675D0ED1D0000000100FFFFD8731E0068D21D000000020068D21D00D8731E0001000000FFFFFFFF96750000000000000000803F00000000
1004
0000803F000000800000000000004040000040400000804002000000000000008040A4EED6F63F400FDE7F3F76A412BA2A0940402A09404065E64C3A0000C0BF0000003F0200967510F21D0000000100FFFFD8731E00C8741E0000000200C8741E00D8731E0001000000FFFFFFFF96750000000000000000
1004
0000000080BF0000803F0000000000000000000040400000C03F0000000002000000C0BF0000003FA4EE65E64CBA32F33F4065E64CBA67068040CE0C404065E64C3A000000C0000080BF0200967570F51D000000FFFF0100C8741E0068D21D0000000200C8741E0068D21D00010000000100000096750000
1004
000000000000803F000000000000000000000000000080BF0000004000004040000000000200000000C0000080BFA4EE65E64CBA32F33F4065E64CBA67068040CE0C404065E64C3A0000803F0000004002009675F8F71D000000FFFF0100C8741E0068D21D0000000200C8741E0068D21D00010000000100
1004
000096750000000000000000803F000000000000000000000000000080BF00000040000040400000000002000000803F00000040A4EE32F37F4065E64CBA65E64CBA67068040CE0C404065E64C3A0000C0BF0000C03F0200967538F91D000000FFFF0100C8741E00D8DB1D0000000200C8741E00D8DB1D00
1004
0100000001000000967500000000803F00000000000000000000000000000000000080BF000080400000C03F0000000002000000C0BF0000C03FA4EE65E64CBA65E64CBA65E64CBA65E64C3ACE0C404065E64C3A000040C0000000800200967538F11D000000FFFF0100C8741E00A8761E0000000200C874
1004
1E00A8761E00010000000100000096750000000080BF00000000000000000000000000000000000080BF0000000000000000000000000200000040C000000080A4EE65E64CBA65E64CBA65E64CBA6706804065E64C3A65E64C3A00000000000080400200967518EE1D000000FFFF0100C8741E00B8751E00
1004
00000200C8741E00B8751E0001000000010000009675000000000000000080BF000000000000000000000000000080BF00000000000000000000000002000000000000008040A4EE65E64CBA65E64CBA32F37F406706804065E64C3A67068040000000C00000004002009675D8711D000000FFFF0100B875
1004
1E0078CA1D0000000200B8751E0078CA1D0001000000010000009675000000000000000000000000803F00000000000080BF000000000000004000000000000080400200000000C000000040A4EE32F37F4065E64CBA65E64CBA6706804065E64C3A67068040000000C00000004002009675C86C1D000000
1004
FFFF0100B8751E00D8DB1D0000000200B8751E00D8DB1D000100000001000000967500000000803F000000000000000000000000000080BF000000000000804000000000000000400200000000C000000040A4EE65E64CBA65E64CBA65E64CBA65E64C3A65E64C3A67068040000000000000804002009675
1004
88731D000000FFFF0100B8751E00A8761E0000000200B8751E00A8761E00010000000100000096750000000080BF000000000000000000000000000080BF0000000000000000000000000000000002000000000000008040A4EE65E64CBA65E64CBA32F37F4065E64C3ACE0C4040670680400000C0BF0000
1004
C03F0200967520741D000000FFFF0100A8761E0078CA1D0000000200A8761E0078CA1D0001000000010000009675000000000000000000000000803F000080BF0000000000000000000000000000C03F0000804002000000C0BF0000C03FA4EE65E64CBA32F33F4065E64CBA65E64C3ACE0C404067068040
1004
000000C00000004002009675487D1D000000FFFF0100A8761E0068D21D0000000200A8761E0068D21D00010000000100000096750000000000000000803F00000000000080BF00000000000000000000000000004040000000400200000000C000000040A4EE65E64CBA32F33F4032F37F4067068040CE0C
1004
404067068040000080C0000040C00200967510821D000000FFFF010078CA1D0068D21D000000020078CA1D0068D21D00010000000100000096750000000000000000803F0000000000000000000000000000803F0000804000004040000080400200000080C0000040C0A4EE65E64CBA32F33F4032F37F40
1004
67068040CE0C404067068040000080BF0000008002009675207E1D000000FFFF010078CA1D0068D21D000000020078CA1D0068D21D00010000000100000096750000000000000000803F0000000000000000000000000000803F0000804000004040000080400200000080BF00000080A4EE32F37F4065E6
1004
4CBA32F37F4067068040CE0C404067068040000000000000404002009675D8861D000000FFFF010078CA1D00D8DB1D000000020078CA1D00D8DB1D000100000001000000967500000000803F000000000000000000000080000000000000803F00008040000040400000804002000000000000004040A4EE
1004
32F37F4032F33F4065E64CBA67068040CE0C404067068040000080C0000000800200967540881D000000FFFF010068D21D00D8DB1D000000020068D21D00D8DB1D000100000001000000967500000000803F0000000000000000000000000000803F000000000000804000004040000080400200000080C0
1004
0000008019FC
1005
5E
  0
INSERT
  8
AME_FRZ
  5
5E
  2
AME_NIL
 10
1.0
 20
1.0
 30
1.0
1001
AME_SOL
1004

1005
0
  0
INSERT
  8
AME_FRZ
  5
61
  2
AME_MAT
 10
0.0
 20
0.0
 30
0.0
1001
AME_SOL
1000
MILD_STEEL
1040
7860.0
1040
220.0
1040
0.275
1040
207.0
1040
345.0
1040
56.0
1040
12.0
1040
0.46
  0
ENDSEC
  0
EOF
