104 120 0 0                             
body $-1 $1 $-1 $2 #
lump $-1 $-1 $3 $0 #
transform $-1 1 0 0 0 1 0 0 0 1 0 0 0 1 0 0 0 #
shell $-1 $-1 $-1 $4 $1 #
face $5 $6 $7 $3 $-1 $8 1 #
face_name-twe-attrib $-1 $-1 $-1 $4 1 #
face $9 $10 $11 $3 $-1 $12 0 #
loop $13 $-1 $14 $4 #
plane-surface $15 0.09425 0.27 0 0 -1 0 0 0 -1 0 #
face_name-twe-attrib $-1 $-1 $-1 $6 2 #
face $16 $17 $18 $3 $-1 $19 0 #
loop $20 $21 $22 $6 #
plane-surface $23 0.09425 0.02 0 0 -1 0 0 0 -1 0 #
loop_type-twe-attrib $-1 $-1 $-1 $7 0 #
coedge $-1 $14 $14 $24 $25 1 $7 $-1 #
surf-twe-attrib $-1 $-1 $-1 $8 4 #
face_name-twe-attrib $-1 $-1 $-1 $10 3 #
face $26 $27 $28 $3 $-1 $29 0 #
loop $30 $-1 $31 $10 #
plane-surface $32 0.09425 -0.23 0 0 -1 0 0 0 -1 0 #
loop_type-twe-attrib $-1 $-1 $-1 $11 1 #
loop $33 $-1 $34 $6 #
coedge $-1 $22 $22 $35 $36 1 $11 $-1 #
surf-twe-attrib $-1 $-1 $-1 $12 6 #
coedge $-1 $24 $24 $14 $25 0 $28 $-1 #
edge $37 $38 $38 $24 $39 0 #
face_name-twe-attrib $-1 $-1 $-1 $17 4 #
face $40 $41 $42 $3 $-1 $43 0 #
loop $44 $45 $24 $17 #
cone-surface $46 0.09425 0.24 0 0 -1 0 -0.1875 0 0 1 0.707106781186547 0.707106781186548 0 #
loop_type-twe-attrib $-1 $-1 $-1 $18 0 #
coedge $-1 $31 $31 $47 $48 0 $18 $-1 #
surf-twe-attrib $-1 $-1 $-1 $19 10 #
loop_type-twe-attrib $-1 $-1 $-1 $21 0 #
coedge $-1 $34 $34 $49 $50 0 $21 $-1 #
coedge $-1 $35 $35 $22 $36 0 $51 $-1 #
edge $52 $53 $53 $35 $54 0 #
edge_name-twe-attrib $-1 $-1 $-1 $25 1 8448 #
vertex $-1 $25 $55 #
ellipse-curve $56 0.09425 0.27 0 0 -1 0 -0.1575 0 0 1 #
face_name-twe-attrib $-1 $-1 $-1 $27 5 #
face $57 $58 $51 $3 $-1 $59 1 #
loop $60 $61 $62 $27 #
cone-surface $63 0.09425 0.295 0 0 -1 0 -0.1875 0 0 1 0 1 0 #
loop_type-twe-attrib $-1 $-1 $-1 $28 0 #
loop $64 $-1 $65 $17 #
surf-twe-attrib $-1 $-1 $-1 $29 17 #
coedge $-1 $47 $47 $31 $48 1 $66 $-1 #
edge $67 $68 $68 $47 $69 0 #
coedge $-1 $49 $49 $34 $50 1 $61 $-1 #
edge $70 $71 $71 $49 $72 0 #
loop $73 $74 $35 $41 #
edge_name-twe-attrib $-1 $-1 $-1 $36 4 20480 #
vertex $-1 $36 $75 #
ellipse-curve $76 0.09425 0.02 0 0 -1 0 -0.09425 0 0 1 #
point $-1 -0.06325 0.27 0 #
cur-twe-attrib $-1 $-1 $-1 $39 25 #
face_name-twe-attrib $-1 $-1 $-1 $41 6 #
face $77 $78 $79 $3 $-1 $80 0 #
torus-surface $81 0.09425 0 0 0 -1 0 0.09425 0.02 0 0 -1 0 #
loop_type-twe-attrib $-1 $-1 $-1 $42 0 #
loop $82 $-1 $49 $27 #
coedge $-1 $62 $62 $65 $83 0 $42 $-1 #
surf-twe-attrib $-1 $-1 $-1 $43 27 #
loop_type-twe-attrib $-1 $-1 $-1 $45 1 #
coedge $-1 $65 $65 $62 $83 1 $45 $-1 #
loop $84 $-1 $47 $78 #
edge_name-twe-attrib $-1 $-1 $-1 $48 7 8448 #
vertex $-1 $48 $85 #
ellipse-curve $86 0.09425 -0.23 0 0 -1 0 -0.06425 0 0 1 #
edge_name-twe-attrib $-1 $-1 $-1 $50 3 8704 #
vertex $-1 $50 $87 #
ellipse-curve $88 0.09425 0.02 0 0 -1 0 -0.1875 0 0 1 #
loop_type-twe-attrib $-1 $-1 $-1 $51 0 #
loop $89 $-1 $90 $41 #
point $-1 1.38777878078145e-17 0.02 0 #
cur-twe-attrib $-1 $-1 $-1 $54 36 #
face_name-twe-attrib $-1 $-1 $-1 $58 7 #
face $91 $-1 $92 $3 $-1 $93 0 #
loop $94 $95 $96 $58 #
cone-surface $97 0.09425 0.295 0 0 -1 0 -0.09425 0 0 1 0 1 0 #
surf-twe-attrib $-1 $-1 $-1 $59 41 #
loop_type-twe-attrib $-1 $-1 $-1 $61 1 #
edge $98 $99 $99 $62 $100 0 #
loop_type-twe-attrib $-1 $-1 $-1 $66 1 #
point $-1 0.1585 -0.23 7.86835432717636e-18 #
cur-twe-attrib $-1 $-1 $-1 $69 48 #
point $-1 0.28175 0.02 2.29621235228882e-17 #
cur-twe-attrib $-1 $-1 $-1 $72 50 #
loop_type-twe-attrib $-1 $-1 $-1 $74 1 #
coedge $-1 $90 $90 $96 $101 1 $74 $-1 #
face_name-twe-attrib $-1 $-1 $-1 $78 8 #
loop $102 $66 $103 $78 #
cone-surface $104 0.09425 -0.2 0 0 1 0 -0.09425 0 0 1 0.707106781186548 0.707106781186547 0 #
loop_type-twe-attrib $-1 $-1 $-1 $79 0 #
loop $105 $-1 $106 $58 #
coedge $-1 $96 $96 $90 $101 0 $79 $-1 #
surf-twe-attrib $-1 $-1 $-1 $80 58 #
edge_name-twe-attrib $-1 $-1 $-1 $83 2 8448 #
vertex $-1 $83 $107 #
ellipse-curve $108 0.09425 0.24 0 0 -1 0 -0.1875 0 0 1 #
edge $109 $110 $110 $96 $111 0 #
loop_type-twe-attrib $-1 $-1 $-1 $92 0 #
coedge $-1 $103 $103 $106 $112 0 $92 $-1 #
surf-twe-attrib $-1 $-1 $-1 $93 78 #
loop_type-twe-attrib $-1 $-1 $-1 $95 1 #
coedge $-1 $106 $106 $103 $112 1 $95 $-1 #
point $-1 0.28175 0.24 -2.29621235228882e-17 #
cur-twe-attrib $-1 $-1 $-1 $100 83 #
edge_name-twe-attrib $-1 $-1 $-1 $101 5 8704 #
vertex $-1 $101 $113 #
ellipse-curve $114 0.09425 -0.02 0 0 -1 0 -0.09425 0 0 1 #
edge $115 $116 $116 $103 $117 0 #
point $-1 0.1885 -0.02 -1.15422940908385e-17 #
cur-twe-attrib $-1 $-1 $-1 $111 101 #
edge_name-twe-attrib $-1 $-1 $-1 $112 6 8448 #
vertex $-1 $112 $118 #
ellipse-curve $119 0.09425 -0.2 0 0 -1 0 -0.09425 0 0 1 #
point $-1 0.1885 -0.2 -1.15422940908385e-17 #
cur-twe-attrib $-1 $-1 $-1 $117 112 #
