700 0 2 0           
24 FBMach with ACIS - 7.0.3 13 ACIS 7.0.3 NT 24 Tue May 14 10:17:11 2002 
1 9.9999999999999995e-007 1e-010 
body $2 -1 $-1 $3 $-1 $4 #
bdycol-kcp $-1 -1 1 5 $5 $6 $7 $8 $9 #
model_id-kcp-attrib $-1 -1 $-1 $-1 $0 1 1021385831 1021385831 -1613692927 1 #
lump $-1 -1 $-1 $-1 $10 $0 #
transform $-1 -1 1 0 0 0 1 0 0 0 1 0 0 0 1 rotate no_reflect no_shear #
body $11 -1 $-1 $12 $-1 $13 #
body $14 -1 $-1 $15 $-1 $16 #
body $17 -1 $-1 $18 $-1 $19 #
body $20 -1 $-1 $21 $-1 $22 #
body $23 -1 $-1 $24 $-1 $25 #
shell $-1 -1 $-1 $-1 $-1 $26 $-1 $3 #
rgb_color-st-attrib $-1 -1 $27 $-1 $5 0.5 1 1 #
lump $-1 -1 $-1 $-1 $28 $5 #
transform $-1 -1 1 0 0 0 1 0 0 0 1 0.09425 0.020000000000000004 0 1 no_rotate no_reflect no_shear #
model_id-kcp-attrib $-1 -1 $-1 $-1 $6 1 1021385831 1021385831 -1613037566 1 #
lump $-1 -1 $-1 $-1 $29 $6 #
transform $-1 -1 1 0 0 0 1 0 0 0 1 0.09425 0.020000000000000004 0 1 no_rotate no_reflect no_shear #
rgb_color-st-attrib $-1 -1 $30 $-1 $7 1 0.5 1 #
lump $-1 -1 $-1 $-1 $31 $7 #
transform $-1 -1 1 0 0 0 1 0 0 0 1 0.09425 0.020000000000000004 0 1 no_rotate no_reflect no_shear #
rgb_color-st-attrib $-1 -1 $32 $-1 $8 1 1 0.5 #
lump $-1 -1 $-1 $-1 $33 $8 #
transform $-1 -1 -1 0 0 0 0 1 0 1 0 0.09425 0.255 0 1 rotate no_reflect no_shear #
rgb_color-st-attrib $-1 -1 $34 $-1 $9 1 1 0.5 #
lump $-1 -1 $-1 $-1 $35 $9 #
transform $-1 -1 1 0 0 0 0 1 0 -1 0 0.09425 -0.21500000000000002 0 1 rotate no_reflect no_shear #
face $36 -1 $-1 $37 $38 $10 $-1 $39 reversed single #
model_id-kcp-attrib $-1 -1 $-1 $11 $5 1 1021385831 1021385831 -1621950459 1 #
shell $-1 -1 $-1 $-1 $-1 $40 $-1 $12 #
shell $-1 -1 $-1 $-1 $-1 $41 $-1 $15 #
model_id-kcp-attrib $-1 -1 $-1 $17 $7 1 1021385831 1021385831 -1612120058 1 #
shell $-1 -1 $-1 $-1 $-1 $42 $-1 $18 #
model_id-kcp-attrib $-1 -1 $-1 $20 $8 1 1021385831 1021385831 -1611726845 1 #
shell $-1 -1 $-1 $-1 $-1 $43 $-1 $21 #
model_id-kcp-attrib $-1 -1 $-1 $23 $9 1 1021385831 1021385831 -1611726844 1 #
shell $-1 -1 $-1 $-1 $-1 $44 $-1 $24 #
model_id-kcp-attrib $-1 -1 $45 $-1 $26 1 1021385831 1021385831 -1613692927 2 #
face $46 -1 $-1 $47 $48 $10 $-1 $49 forward single #
loop $50 -1 $-1 $-1 $51 $26 #
plane-surface $52 -1 $-1 0.09425 0.27000000000000002 0 0 -1 0 0 0 -1 forward_v I I I I #
face $-1 -1 $-1 $53 $54 $28 $-1 $55 reversed single #
face $-1 -1 $-1 $56 $57 $29 $-1 $58 forward single #
face $59 -1 $-1 $60 $61 $31 $-1 $62 forward single #
face $-1 -1 $-1 $63 $64 $33 $-1 $65 reversed single #
face $-1 -1 $-1 $66 $67 $35 $-1 $68 reversed single #
face_name-twe-attrib $-1 -1 $-1 $36 $26 1 #
model_id-kcp-attrib $-1 -1 $69 $-1 $37 1 1021385831 1021385831 -1613692927 3 #
face $70 -1 $-1 $71 $72 $10 $-1 $73 forward single #
loop $74 -1 $-1 $75 $76 $37 #
plane-surface $77 -1 $-1 0.09425 0.02 0 0 -1 0 0 0 -1 forward_v I I I I #
loop_type-twe-attrib $-1 -1 $-1 $-1 $38 0 #
coedge $-1 -1 $-1 $51 $51 $78 $79 reversed $38 $-1 #
surf-twe-attrib $-1 -1 $-1 $-1 $39 4 #
face $-1 -1 $-1 $80 $81 $28 $-1 $55 reversed single #
loop $-1 -1 $-1 $-1 $82 $40 #
cone-surface $-1 -1 $-1 1.3877787807814457e-017 0.25 -1.5407439555097887e-033 0 1 0 -0.1875 0 1.5407439555097887e-033 1 I I 0 1 0.1875 forward I I I I #
face $-1 -1 $-1 $83 $84 $29 $-1 $85 reversed single #
loop $-1 -1 $-1 $-1 $86 $41 #
plane-surface $-1 -1 $-1 0 0 0.1875 0 0 1 1 0 0 forward_v I I I I #
face_name-twe-attrib $-1 -1 $-1 $-1 $42 6 #
face $87 -1 $-1 $88 $89 $31 $-1 $90 reversed single #
loop $91 -1 $-1 $92 $93 $42 #
torus-surface $94 -1 $-1 0 -0.020000000000000004 0 0 -1 0 0.09425 0.02 0 0 -1 forward_v I I I I #
face $-1 -1 $-1 $95 $96 $33 $-1 $97 forward single #
loop $-1 -1 $-1 $98 $99 $43 #
cone-surface $-1 -1 $-1 0 0 0.078750000000000098 0 0 1 0.09375 0 0 1 I I -0.70710678118654713 0.70710678118654802 0.09375 forward I I I I #
face $-1 -1 $-1 $100 $101 $35 $-1 $102 forward single #
loop $-1 -1 $-1 $103 $104 $44 #
cone-surface $-1 -1 $-1 0 0 0.032124999999999931 0 0 1 0.047125 0 0 1 I I -0.70710678118654791 0.70710678118654702 0.047125 forward I I I I #
face_name-twe-attrib $-1 -1 $-1 $46 $37 2 #
model_id-kcp-attrib $-1 -1 $105 $-1 $47 1 1021385831 1021385831 -1613692927 4 #
face $106 -1 $-1 $107 $108 $10 $-1 $109 forward single #
loop $110 -1 $-1 $-1 $111 $47 #
plane-surface $112 -1 $-1 0.09425 -0.23000000000000001 0 0 -1 0 0 0 -1 forward_v I I I I #
loop_type-twe-attrib $-1 -1 $-1 $-1 $48 1 #
loop $113 -1 $-1 $-1 $114 $37 #
coedge $-1 -1 $-1 $76 $76 $115 $116 reversed $48 $-1 #
surf-twe-attrib $-1 -1 $-1 $-1 $49 6 #
coedge $-1 -1 $-1 $78 $78 $51 $79 forward $108 $-1 #
edge $117 -1 $-1 $118 0 $118 6.2831853071795862 $78 $119 forward @7 unknown #
face $-1 -1 $-1 $120 $121 $28 $-1 $55 reversed single #
loop $-1 -1 $-1 $-1 $122 $53 #
coedge $-1 -1 $-1 $123 $124 $125 $126 reversed $54 $-1 #
face $127 -1 $-1 $128 $129 $29 $-1 $130 reversed single #
loop $-1 -1 $-1 $-1 $131 $56 #
plane-surface $-1 -1 $-1 0 0 -0.1875 0 0 1 1 0 0 forward_v I I I I #
coedge $-1 -1 $-1 $132 $133 $134 $135 forward $57 $-1 #
face_name-twe-attrib $-1 -1 $-1 $-1 $60 7 #
face $-1 -1 $-1 $136 $137 $31 $-1 $138 reversed single #
loop $139 -1 $-1 $140 $141 $60 #
cone-surface $142 -1 $-1 0 0.27499999999999997 0 0 -1 0 -0.09425 0 0 1 I I 0 1 0.09425 forward I I I I #
loop_type-twe-attrib $-1 -1 $-1 $-1 $61 1 #
loop $143 -1 $-1 $-1 $144 $42 #
coedge $-1 -1 $-1 $93 $93 $141 $145 forward $61 $-1 #
surf-twe-attrib $-1 -1 $-1 $-1 $62 41 #
face $-1 -1 $-1 $-1 $146 $33 $-1 $147 forward single #
loop $-1 -1 $-1 $148 $149 $63 #
cone-surface $-1 -1 $-1 0 0 0 0 0 1 0.1875 0 0 1 I I 0 1 0.1875 forward I I I I #
loop $-1 -1 $-1 $-1 $150 $43 #
coedge $-1 -1 $-1 $99 $99 $151 $152 reversed $64 $-1 #
face $-1 -1 $-1 $-1 $153 $35 $-1 $154 forward single #
loop $-1 -1 $-1 $155 $156 $66 #
cone-surface $-1 -1 $-1 0 0 0 0 0 1 0.09425 0 0 1 I I 0 1 0.09425 forward I I I I #
loop $-1 -1 $-1 $-1 $157 $44 #
coedge $-1 -1 $-1 $104 $104 $158 $159 reversed $67 $-1 #
face_name-twe-attrib $-1 -1 $-1 $70 $47 3 #
model_id-kcp-attrib $-1 -1 $160 $-1 $71 1 1021385831 1021385831 -1613692927 5 #
face $161 -1 $-1 $162 $163 $10 $-1 $164 forward single #
loop $165 -1 $-1 $166 $78 $71 #
cone-surface $167 -1 $-1 0.09425 0.23999999999999999 0 0 -1 0 -0.1875 0 0 1 I I 0.70710678118654702 0.70710678118654802 0.1875 forward I I I I #
loop_type-twe-attrib $-1 -1 $-1 $-1 $72 0 #
coedge $-1 -1 $-1 $111 $111 $168 $169 forward $72 $-1 #
surf-twe-attrib $-1 -1 $-1 $-1 $73 10 #
loop_type-twe-attrib $-1 -1 $-1 $-1 $75 0 #
coedge $-1 -1 $-1 $114 $114 $170 $171 forward $75 $-1 #
coedge $-1 -1 $-1 $115 $115 $76 $116 forward $172 $-1 #
edge $173 -1 $-1 $174 0 $174 6.2831853071795862 $115 $175 forward @7 unknown #
attrib_edge_convexity-kcp-attrib $-1 -1 $176 $-1 $79 1 #
vertex $-1 -1 $-1 $79 $177 #
ellipse-curve $178 -1 $-1 0.09425 0.27000000000000002 0 0 -1 0 -0.1575 0 0 1 I I #
face $-1 -1 $-1 $179 $180 $28 $-1 $55 reversed single #
loop $-1 -1 $-1 $-1 $181 $80 #
coedge $-1 -1 $-1 $182 $183 $184 $185 reversed $81 $-1 #
coedge $-1 -1 $-1 $186 $82 $187 $188 forward $54 $-1 #
coedge $-1 -1 $-1 $82 $186 $189 $190 reversed $54 $-1 #
coedge $-1 -1 $-1 $191 $192 $82 $126 forward $193 $-1 #
edge $-1 -1 $-1 $194 -8.2173010960522059e-033 $195 1.5707963267948966 $125 $196 forward @7 unknown #
model_id-kcp-attrib $-1 -1 $-1 $-1 $83 1 1021385831 1021385831 -1613037566 3 #
face $-1 -1 $-1 $197 $198 $29 $-1 $199 reversed single #
loop $-1 -1 $-1 $-1 $200 $83 #
plane-surface $-1 -1 $-1 0 -0.25 0 0 1 0 0 0 1 forward_v I I I I #
coedge $-1 -1 $-1 $201 $202 $203 $204 forward $84 $-1 #
coedge $-1 -1 $-1 $205 $86 $206 $207 forward $57 $-1 #
coedge $-1 -1 $-1 $86 $205 $208 $209 forward $57 $-1 #
coedge $-1 -1 $-1 $210 $211 $86 $135 reversed $212 $-1 #
edge $-1 -1 $-1 $213 -0.25 $214 0.25 $134 $215 forward @7 unknown #
face $-1 -1 $-1 $216 $217 $31 $-1 $218 forward single #
loop $-1 -1 $-1 $219 $220 $88 #
plane-surface $-1 -1 $-1 0 0 0 0 -1 0 1 0 0 forward_v I I I I #
loop_type-twe-attrib $-1 -1 $-1 $-1 $89 0 #
loop $-1 -1 $-1 $-1 $221 $60 #
coedge $-1 -1 $-1 $141 $141 $93 $145 reversed $89 $-1 #
surf-twe-attrib $-1 -1 $-1 $-1 $90 58 #
loop_type-twe-attrib $-1 -1 $-1 $-1 $92 0 #
coedge $-1 -1 $-1 $144 $144 $222 $223 forward $92 $-1 #
edge $224 -1 $-1 $225 -3.1415926535897931 $225 3.1415926535897931 $141 $226 forward @7 unknown #
loop $-1 -1 $-1 $227 $151 $95 #
plane-surface $-1 -1 $-1 0 0 0.015000000000000013 0 0 1 1 0 0 forward_v I I I I #
loop $-1 -1 $-1 $-1 $228 $63 #
coedge $-1 -1 $-1 $149 $149 $150 $229 reversed $96 $-1 #
coedge $-1 -1 $-1 $150 $150 $149 $229 forward $98 $-1 #
coedge $-1 -1 $-1 $151 $151 $99 $152 forward $146 $-1 #
edge $-1 -1 $-1 $230 -3.1415926535897931 $230 3.1415926535897931 $151 $231 forward @7 unknown #
loop $-1 -1 $-1 $232 $158 $100 #
plane-surface $-1 -1 $-1 0 0 0.014999999999999999 0 0 1 1 0 0 forward_v I I I I #
loop $-1 -1 $-1 $-1 $233 $66 #
coedge $-1 -1 $-1 $156 $156 $157 $234 reversed $101 $-1 #
coedge $-1 -1 $-1 $157 $157 $156 $234 forward $103 $-1 #
coedge $-1 -1 $-1 $158 $158 $104 $159 forward $153 $-1 #
edge $-1 -1 $-1 $235 -3.1415926535897931 $235 3.1415926535897931 $158 $236 forward @7 unknown #
face_name-twe-attrib $-1 -1 $-1 $106 $71 4 #
model_id-kcp-attrib $-1 -1 $237 $-1 $107 1 1021385831 1021385831 -1613692927 6 #
face $238 -1 $-1 $239 $172 $10 $-1 $240 reversed single #
loop $241 -1 $-1 $242 $243 $107 #
cone-surface $244 -1 $-1 0.09425 0.29499999999999998 0 0 -1 0 -0.1875 0 0 1 I I 0 1 0.1875 forward I I I I #
loop_type-twe-attrib $-1 -1 $-1 $-1 $108 0 #
loop $245 -1 $-1 $-1 $246 $71 #
surf-twe-attrib $-1 -1 $-1 $-1 $109 17 #
coedge $-1 -1 $-1 $168 $168 $111 $169 reversed $247 $-1 #
edge $248 -1 $-1 $249 -3.1415926535897931 $249 3.1415926535897931 $168 $250 forward @7 unknown #
coedge $-1 -1 $-1 $170 $170 $114 $171 reversed $242 $-1 #
edge $251 -1 $-1 $252 -3.1415926535897931 $252 3.1415926535897931 $170 $253 forward @7 unknown #
loop $254 -1 $-1 $255 $115 $162 #
attrib_edge_convexity-kcp-attrib $-1 -1 $256 $-1 $116 4 #
vertex $-1 -1 $-1 $116 $257 #
ellipse-curve $258 -1 $-1 0.09425 0.02 0 0 -1 0 -0.09425 0 0 1 I I #
convexity-sys-attrib $-1 -1 $259 $117 $79 #
point $-1 -1 $-1 -0.063250000000000001 0.27000000000000002 0 #
cur-twe-attrib $-1 -1 $-1 $-1 $119 25 #
face $-1 -1 $-1 $260 $261 $28 $-1 $262 forward single #
loop $-1 -1 $-1 $-1 $263 $120 #
coedge $-1 -1 $-1 $264 $265 $263 $266 forward $121 $-1 #
coedge $-1 -1 $-1 $267 $122 $268 $269 reversed $81 $-1 #
coedge $-1 -1 $-1 $122 $267 $124 $190 forward $81 $-1 #
coedge $-1 -1 $-1 $270 $271 $122 $185 forward $272 $-1 #
edge $-1 -1 $-1 $273 -3.1415926535897931 $274 -1.5707963267948966 $184 $275 forward @7 unknown #
coedge $-1 -1 $-1 $124 $123 $276 $277 reversed $54 $-1 #
coedge $-1 -1 $-1 $265 $264 $278 $188 reversed $121 $-1 #
edge $-1 -1 $-1 $194 -0.5 $279 0 $278 $280 forward @7 unknown #
coedge $-1 -1 $-1 $281 $282 $283 $190 forward $284 $-1 #
edge $-1 -1 $-1 $195 -0.5 $274 0 $189 $285 forward @7 unknown #
coedge $-1 -1 $-1 $192 $125 $282 $286 reversed $193 $-1 #
coedge $-1 -1 $-1 $125 $191 $287 $288 forward $193 $-1 #
loop $-1 -1 $-1 $-1 $125 $289 #
vertex $-1 -1 $-1 $290 $291 #
vertex $-1 -1 $-1 $292 $293 #
ellipse-curve $-1 -1 $-1 1.3877787807814457e-017 -0.25 -1.5407439555097887e-033 0 1 0 -0.1875 0 1.5407439555097887e-033 1 I I #
face $294 -1 $-1 $295 $296 $29 $-1 $297 reversed single #
loop $-1 -1 $-1 $-1 $298 $128 #
plane-surface $-1 -1 $-1 -0.1875 0 0 1 0 0 0 0 -1 forward_v I I I I #
coedge $-1 -1 $-1 $299 $208 $300 $301 forward $129 $-1 #
coedge $-1 -1 $-1 $302 $131 $299 $303 forward $84 $-1 #
coedge $-1 -1 $-1 $131 $302 $304 $305 forward $84 $-1 #
coedge $-1 -1 $-1 $211 $210 $131 $204 reversed $212 $-1 #
edge $-1 -1 $-1 $306 -0.25 $307 0.25 $203 $308 forward @7 unknown #
coedge $-1 -1 $-1 $133 $132 $309 $310 forward $57 $-1 #
coedge $-1 -1 $-1 $311 $312 $132 $207 reversed $296 $-1 #
edge $-1 -1 $-1 $214 -0.1875 $313 0.1875 $206 $314 forward @7 unknown #
coedge $-1 -1 $-1 $200 $315 $133 $209 reversed $129 $-1 #
edge $-1 -1 $-1 $316 -0.1875 $213 0.1875 $208 $317 forward @7 unknown #
coedge $-1 -1 $-1 $203 $134 $315 $318 forward $212 $-1 #
coedge $-1 -1 $-1 $134 $203 $311 $319 reversed $212 $-1 #
loop $-1 -1 $-1 $-1 $210 $295 #
vertex $-1 -1 $-1 $135 $320 #
vertex $-1 -1 $-1 $135 $321 #
straight-curve $-1 -1 $-1 0.1875 0 0.1875 0 1 0 I I #
face $-1 -1 $-1 $-1 $322 $31 $-1 $323 reversed single #
loop $-1 -1 $-1 $324 $325 $136 #
cone-surface $-1 -1 $-1 1.3877787807814457e-017 0.25 -1.5407439555097887e-033 0 1 0 -0.1875 0 1.5407439555097887e-033 1 I I 0 1 0.1875 forward I I I I #
loop $-1 -1 $-1 $-1 $222 $88 #
coedge $-1 -1 $-1 $220 $220 $326 $327 forward $137 $-1 #
coedge $-1 -1 $-1 $221 $221 $328 $329 reversed $140 $-1 #
coedge $-1 -1 $-1 $222 $222 $144 $223 reversed $219 $-1 #
edge $330 -1 $-1 $331 1.5707963267948966 $331 7.8539816339744828 $222 $332 forward @7 unknown #
convexity-sys-attrib $-1 -1 $333 $-1 $145 #
vertex $-1 -1 $-1 $145 $334 #
ellipse-curve $335 -1 $-1 0 -0.040000000000000008 0 0 -1 0 -0.09425 0 0 1 I I #
loop $-1 -1 $-1 $-1 $336 $95 #
coedge $-1 -1 $-1 $228 $228 $336 $337 reversed $148 $-1 #
edge $-1 -1 $-1 $338 0 $338 6.2831853071795862 $149 $339 forward @7 unknown #
vertex $-1 -1 $-1 $152 $340 #
ellipse-curve $-1 -1 $-1 0 0 0.015000000000000013 0 0 -1 0.1575 0 0 1 I I #
loop $-1 -1 $-1 $-1 $341 $100 #
coedge $-1 -1 $-1 $233 $233 $341 $342 reversed $155 $-1 #
edge $-1 -1 $-1 $343 0 $343 6.2831853071795862 $156 $344 forward @7 unknown #
vertex $-1 -1 $-1 $159 $345 #
ellipse-curve $-1 -1 $-1 0 0 0.014999999999999999 0 0 -1 0.064249999999999946 0 0 1 I I #
face_name-twe-attrib $-1 -1 $-1 $161 $107 5 #
model_id-kcp-attrib $-1 -1 $346 $-1 $162 1 1021385831 1021385831 -1613692927 7 #
face $347 -1 $-1 $348 $349 $10 $-1 $350 forward single #
torus-surface $351 -1 $-1 0.09425 0 0 0 -1 0 0.09425 0.02 0 0 -1 forward_v I I I I #
loop_type-twe-attrib $-1 -1 $-1 $-1 $163 0 #
loop $352 -1 $-1 $-1 $170 $107 #
coedge $-1 -1 $-1 $243 $243 $246 $353 forward $163 $-1 #
surf-twe-attrib $-1 -1 $-1 $-1 $164 27 #
loop_type-twe-attrib $-1 -1 $-1 $-1 $166 1 #
coedge $-1 -1 $-1 $246 $246 $243 $353 reversed $166 $-1 #
loop $354 -1 $-1 $-1 $168 $348 #
attrib_edge_convexity-kcp-attrib $-1 -1 $355 $-1 $169 1 #
vertex $-1 -1 $-1 $169 $356 #
ellipse-curve $357 -1 $-1 0.09425 -0.23000000000000001 0 0 -1 0 -0.064250000000000002 0 0 1 I I #
attrib_edge_convexity-kcp-attrib $-1 -1 $358 $-1 $171 1 #
vertex $-1 -1 $-1 $171 $359 #
ellipse-curve $360 -1 $-1 0.09425 0.02 0 0 -1 0 -0.1875 0 0 1 I I #
loop_type-twe-attrib $-1 -1 $-1 $-1 $172 0 #
loop $361 -1 $-1 $-1 $362 $162 #
convexity-sys-attrib $-1 -1 $363 $173 $116 #
point $-1 -1 $-1 1.38777878078145e-017 0.02 0 #
cur-twe-attrib $-1 -1 $-1 $-1 $175 36 #
edge_name-twe-attrib $-1 -1 $-1 $176 $79 1 8448 #
face $-1 -1 $-1 $364 $365 $28 $-1 $366 reversed single #
loop $-1 -1 $-1 $-1 $283 $179 #
plane-surface $-1 -1 $-1 0 0 0.1875 0 0 1 1 0 0 forward_v I I I I #
coedge $-1 -1 $-1 $367 $368 $369 $266 reversed $180 $-1 #
coedge $-1 -1 $-1 $187 $181 $370 $371 reversed $121 $-1 #
coedge $-1 -1 $-1 $181 $187 $372 $373 reversed $121 $-1 #
edge $-1 -1 $-1 $374 -0.5 $375 0 $369 $376 forward @7 unknown #
coedge $-1 -1 $-1 $183 $182 $377 $378 reversed $81 $-1 #
coedge $-1 -1 $-1 $379 $380 $381 $269 forward $382 $-1 #
edge $-1 -1 $-1 $383 -0.5 $273 0 $268 $384 forward @7 unknown #
coedge $-1 -1 $-1 $271 $184 $385 $386 reversed $272 $-1 #
coedge $-1 -1 $-1 $184 $270 $379 $387 forward $272 $-1 #
loop $-1 -1 $-1 $-1 $184 $388 #
vertex $-1 -1 $-1 $389 $390 #
vertex $-1 -1 $-1 $391 $392 #
ellipse-curve $-1 -1 $-1 1.3877787807814457e-017 0.25 -1.5407439555097887e-033 0 -1 0 -0.1875 0 1.5407439555097887e-033 1 I I #
coedge $-1 -1 $-1 $393 $394 $186 $277 forward $395 $-1 #
edge $-1 -1 $-1 $274 -1.5707963267948966 $279 8.2173010960522059e-033 $276 $275 forward @7 unknown #
coedge $-1 -1 $-1 $396 $397 $398 $188 forward $365 $-1 #
vertex $-1 -1 $-1 $399 $400 #
straight-curve $-1 -1 $-1 -0.1875 0.25 -1.5407439555097887e-033 0 1 0 I I #
coedge $-1 -1 $-1 $401 $189 $394 $391 forward $284 $-1 #
coedge $-1 -1 $-1 $189 $401 $191 $286 forward $284 $-1 #
coedge $-1 -1 $-1 $402 $385 $183 $190 reversed $261 $-1 #
loop $-1 -1 $-1 $-1 $189 $403 #
straight-curve $-1 -1 $-1 1.3877787807814457e-017 0.25 0.1875 0 1 0 I I #
edge $-1 -1 $-1 $404 -0.1875 $195 1.3877787807814457e-017 $191 $405 forward @7 unknown #
coedge $-1 -1 $-1 $406 $398 $192 $288 reversed $407 $-1 #
edge $-1 -1 $-1 $404 -0.1875 $194 1.5407439555097887e-033 $287 $408 forward @7 unknown #
face $-1 -1 $-1 $409 $193 $28 $-1 $410 reversed single #
edge $-1 -1 $-1 $194 1.5407439555097887e-033 $411 0.1875 $397 $408 forward @7 unknown #
point $-1 -1 $-1 -0.1875 -0.25 -1.5407439555097887e-033 #
edge $-1 -1 $-1 $195 1.3877787807814457e-017 $412 0.1875 $413 $405 forward @7 unknown #
point $-1 -1 $-1 1.3877787807814457e-017 -0.25 0.1875 #
model_id-kcp-attrib $-1 -1 $-1 $-1 $197 1 1021385831 1021385831 -1613037566 2 #
face $-1 -1 $-1 $-1 $212 $29 $-1 $414 reversed single #
loop $-1 -1 $-1 $-1 $311 $197 #
plane-surface $-1 -1 $-1 0 0.25 0 0 -1 0 0 0 -1 forward_v I I I I #
coedge $-1 -1 $-1 $415 $309 $312 $416 forward $198 $-1 #
coedge $-1 -1 $-1 $315 $200 $201 $303 reversed $129 $-1 #
coedge $-1 -1 $-1 $309 $415 $200 $301 reversed $198 $-1 #
edge $-1 -1 $-1 $316 -0.1875 $417 0.1875 $300 $418 forward @7 unknown #
coedge $-1 -1 $-1 $202 $201 $415 $419 forward $84 $-1 #
edge $-1 -1 $-1 $307 -0.1875 $417 0.1875 $299 $420 forward @7 unknown #
coedge $-1 -1 $-1 $312 $311 $202 $305 reversed $296 $-1 #
edge $-1 -1 $-1 $421 -0.1875 $306 0.1875 $304 $422 forward @7 unknown #
vertex $-1 -1 $-1 $204 $423 #
vertex $-1 -1 $-1 $318 $424 #
straight-curve $-1 -1 $-1 0.1875 0 -0.1875 0 -1 0 I I #
coedge $-1 -1 $-1 $298 $300 $205 $310 reversed $198 $-1 #
edge $-1 -1 $-1 $313 -0.25 $316 0.25 $309 $425 forward @7 unknown #
coedge $-1 -1 $-1 $304 $206 $211 $319 forward $296 $-1 #
coedge $-1 -1 $-1 $206 $304 $298 $416 reversed $296 $-1 #
vertex $-1 -1 $-1 $207 $426 #
straight-curve $-1 -1 $-1 0 0.25 0.1875 -1 0 0 I I #
coedge $-1 -1 $-1 $208 $299 $210 $318 reversed $129 $-1 #
vertex $-1 -1 $-1 $310 $427 #
straight-curve $-1 -1 $-1 0 -0.25 0.1875 1 0 0 I I #
edge $-1 -1 $-1 $213 -0.1875 $307 0.1875 $210 $428 forward @7 unknown #
edge $-1 -1 $-1 $214 -0.1875 $306 0.1875 $211 $429 forward @7 unknown #
point $-1 -1 $-1 0.1875 -0.25 0.1875 #
point $-1 -1 $-1 0.1875 0.25 0.1875 #
loop $-1 -1 $-1 $430 $328 $216 #
plane-surface $-1 -1 $-1 0 -0.25 0 0 1 0 0 0 1 forward_v I I I I #
loop $-1 -1 $-1 $-1 $326 $136 #
coedge $-1 -1 $-1 $325 $325 $431 $432 reversed $217 $-1 #
coedge $-1 -1 $-1 $326 $326 $220 $327 reversed $324 $-1 #
edge $433 -1 $-1 $434 -3.1415926535897931 $434 3.1415926535897931 $326 $435 forward @7 unknown #
coedge $-1 -1 $-1 $328 $328 $221 $329 forward $322 $-1 #
edge $-1 -1 $-1 $436 -3.1415926535897931 $436 3.1415926535897931 $328 $437 forward @7 unknown #
convexity-sys-attrib $-1 -1 $-1 $-1 $223 #
vertex $-1 -1 $-1 $223 $438 #
ellipse-curve $-1 -1 $-1 0 0 0 0 1 0 0 0 -0.09425 1 I I #
edge_name-twe-attrib $-1 -1 $-1 $224 $145 5 8704 #
point $-1 -1 $-1 0.09425 -0.040000000000000008 -1.15422940908385e-017 #
cur-twe-attrib $-1 -1 $-1 $-1 $226 101 #
coedge $-1 -1 $-1 $336 $336 $228 $337 forward $227 $-1 #
edge $-1 -1 $-1 $439 0 $439 6.2831853071795862 $336 $440 forward @7 unknown #
vertex $-1 -1 $-1 $229 $441 #
ellipse-curve $-1 -1 $-1 0 0 -0.015000000000000013 0 0 -1 0.1875 0 0 1 I I #
point $-1 -1 $-1 -0.1575 1.9287550072702443e-017 0.015000000000000013 #
coedge $-1 -1 $-1 $341 $341 $233 $342 forward $232 $-1 #
edge $-1 -1 $-1 $442 0 $442 6.2831853071795862 $341 $443 forward @7 unknown #
vertex $-1 -1 $-1 $234 $444 #
ellipse-curve $-1 -1 $-1 0 0 -0.014999999999999999 0 0 -1 0.09425 0 0 1 I I #
point $-1 -1 $-1 -0.064249999999999946 7.8680958233087676e-018 0.014999999999999999 #
face_name-twe-attrib $-1 -1 $-1 $238 $162 6 #
model_id-kcp-attrib $-1 -1 $445 $-1 $239 1 1021385831 1021385831 -1613692927 8 #
face $446 -1 $-1 $-1 $447 $10 $-1 $448 forward single #
loop $449 -1 $-1 $450 $451 $239 #
cone-surface $452 -1 $-1 0.09425 0.29499999999999998 0 0 -1 0 -0.09425 0 0 1 I I 0 1 0.09425 forward I I I I #
surf-twe-attrib $-1 -1 $-1 $-1 $240 41 #
loop_type-twe-attrib $-1 -1 $-1 $-1 $242 1 #
edge $453 -1 $-1 $454 -3.1415926535897931 $454 3.1415926535897931 $243 $455 forward @7 unknown #
loop_type-twe-attrib $-1 -1 $-1 $-1 $247 1 #
convexity-sys-attrib $-1 -1 $456 $248 $169 #
point $-1 -1 $-1 0.1585 -0.23000000000000001 7.8683543271763594e-018 #
cur-twe-attrib $-1 -1 $-1 $-1 $250 48 #
convexity-sys-attrib $-1 -1 $457 $251 $171 #
point $-1 -1 $-1 0.28175 0.02 2.29621235228882e-017 #
cur-twe-attrib $-1 -1 $-1 $-1 $253 50 #
loop_type-twe-attrib $-1 -1 $-1 $-1 $255 1 #
coedge $-1 -1 $-1 $362 $362 $451 $458 reversed $255 $-1 #
edge_name-twe-attrib $-1 -1 $-1 $256 $116 4 20480 #
face $-1 -1 $-1 $459 $460 $28 $-1 $461 reversed single #
loop $-1 -1 $-1 $-1 $278 $260 #
plane-surface $-1 -1 $-1 -0.1875 0 0 1 0 0 0 0 -1 forward_v I I I I #
coedge $-1 -1 $-1 $462 $263 $463 $464 reversed $180 $-1 #
coedge $-1 -1 $-1 $263 $462 $465 $466 reversed $180 $-1 #
coedge $-1 -1 $-1 $467 $468 $469 $266 forward $470 $-1 #
coedge $-1 -1 $-1 $471 $472 $264 $371 forward $473 $-1 #
edge $-1 -1 $-1 $279 8.2173010960522059e-033 $375 1.5707963267948966 $370 $275 forward @7 unknown #
coedge $-1 -1 $-1 $474 $475 $265 $373 forward $476 $-1 #
edge $-1 -1 $-1 $374 -1.5707963267948966 $194 -8.2173010960522059e-033 $372 $196 forward @7 unknown #
vertex $-1 -1 $-1 $477 $478 #
vertex $-1 -1 $-1 $479 $480 #
straight-curve $-1 -1 $-1 1.3877787807814457e-017 0.25 -0.1875 0 1 0 I I #
coedge $-1 -1 $-1 $481 $413 $267 $378 forward $482 $-1 #
edge $-1 -1 $-1 $195 1.5707963267948966 $383 3.1415926535897931 $377 $196 forward @7 unknown #
coedge $-1 -1 $-1 $483 $268 $271 $387 reversed $382 $-1 #
coedge $-1 -1 $-1 $268 $483 $481 $484 forward $382 $-1 #
coedge $-1 -1 $-1 $485 $486 $462 $269 reversed $460 $-1 #
loop $-1 -1 $-1 $-1 $268 $487 #
vertex $-1 -1 $-1 $488 $489 #
straight-curve $-1 -1 $-1 0.1875 0.25 -1.5407439555097887e-033 0 1 0 I I #
coedge $-1 -1 $-1 $283 $490 $270 $386 forward $261 $-1 #
edge $-1 -1 $-1 $491 -0.1875 $274 -1.3877787807814457e-017 $270 $492 forward @7 unknown #
edge $-1 -1 $-1 $491 -0.1875 $273 1.5407439555097887e-033 $379 $493 forward @7 unknown #
face $-1 -1 $-1 $494 $272 $28 $-1 $495 reversed single #
edge $-1 -1 $-1 $273 1.5407439555097887e-033 $496 0.1875 $486 $493 forward @7 unknown #
point $-1 -1 $-1 0.1875 0.25 -1.5407439555097887e-033 #
edge $-1 -1 $-1 $274 -1.3877787807814457e-017 $497 0.1875 $394 $492 forward @7 unknown #
point $-1 -1 $-1 1.3877787807814457e-017 0.25 0.1875 #
coedge $-1 -1 $-1 $394 $276 $498 $499 reversed $395 $-1 #
coedge $-1 -1 $-1 $276 $393 $281 $391 reversed $395 $-1 #
loop $-1 -1 $-1 $-1 $276 $494 #
coedge $-1 -1 $-1 $500 $278 $472 $399 forward $365 $-1 #
coedge $-1 -1 $-1 $278 $500 $474 $290 reversed $365 $-1 #
coedge $-1 -1 $-1 $287 $498 $123 $188 reversed $407 $-1 #
edge $-1 -1 $-1 $279 1.5407439555097887e-033 $501 0.1875 $472 $502 forward @7 unknown #
point $-1 -1 $-1 -0.1875 0.25 -1.5407439555097887e-033 #
coedge $-1 -1 $-1 $282 $281 $406 $503 forward $284 $-1 #
coedge $-1 -1 $-1 $490 $283 $413 $292 forward $261 $-1 #
face $-1 -1 $-1 $504 $284 $28 $-1 $262 forward single #
vertex $-1 -1 $-1 $503 $505 #
straight-curve $-1 -1 $-1 0 -0.25 0.1875 1 0 0 I I #
coedge $-1 -1 $-1 $498 $287 $401 $503 reversed $407 $-1 #
loop $-1 -1 $-1 $-1 $398 $506 #
straight-curve $-1 -1 $-1 -0.1875 -0.25 0 0 0 -1 I I #
face $-1 -1 $-1 $507 $482 $28 $-1 $410 reversed single #
plane-surface $-1 -1 $-1 0 -0.25 0 0 1 0 0 0 1 forward_v I I I I #
vertex $-1 -1 $-1 $508 $509 #
vertex $-1 -1 $-1 $510 $511 #
coedge $-1 -1 $-1 $377 $481 $402 $292 reversed $482 $-1 #
plane-surface $-1 -1 $-1 0.1875 0 0 -1 0 0 0 0 1 forward_v I I I I #
coedge $-1 -1 $-1 $300 $298 $302 $419 reversed $198 $-1 #
edge $-1 -1 $-1 $313 -0.1875 $421 0.1875 $312 $512 forward @7 unknown #
vertex $-1 -1 $-1 $419 $513 #
straight-curve $-1 -1 $-1 -0.1875 -0.25 0 0 0 -1 I I #
edge $-1 -1 $-1 $417 -0.25 $421 0.25 $415 $514 forward @7 unknown #
straight-curve $-1 -1 $-1 0 -0.25 -0.1875 -1 0 0 I I #
vertex $-1 -1 $-1 $305 $515 #
straight-curve $-1 -1 $-1 0 0.25 -0.1875 1 0 0 I I #
point $-1 -1 $-1 0.1875 0.25 -0.1875 #
point $-1 -1 $-1 0.1875 -0.25 -0.1875 #
straight-curve $-1 -1 $-1 -0.1875 0 0.1875 0 -1 0 I I #
point $-1 -1 $-1 -0.1875 0.25 0.1875 #
point $-1 -1 $-1 -0.1875 -0.25 0.1875 #
straight-curve $-1 -1 $-1 0.1875 -0.25 0 0 0 -1 I I #
straight-curve $-1 -1 $-1 0.1875 0.25 0 0 0 -1 I I #
loop $-1 -1 $-1 $-1 $431 $216 #
coedge $-1 -1 $-1 $431 $431 $325 $432 forward $430 $-1 #
edge $-1 -1 $-1 $516 -1.5707963267948966 $516 4.7123889803846897 $431 $517 forward @7 unknown #
convexity-sys-attrib $-1 -1 $-1 $-1 $327 #
vertex $-1 -1 $-1 $327 $518 #
ellipse-curve $-1 -1 $-1 1.3877787807814457e-017 0 -1.5407439555097887e-033 0 1 0 -0.1875 0 1.5407439555097887e-033 1 I I #
vertex $-1 -1 $-1 $329 $519 #
ellipse-curve $-1 -1 $-1 0 -0.24999999999999994 0 0 1 0 -0.09425 0 0 1 I I #
point $-1 -1 $-1 -0.094249999999999987 -3.4694469519536142e-018 0 #
vertex $-1 -1 $-1 $337 $520 #
ellipse-curve $-1 -1 $-1 0 0 0.015000000000000013 0 0 1 0.1875 0 0 1 I I #
point $-1 -1 $-1 0.1875 0 -0.015000000000000013 #
vertex $-1 -1 $-1 $342 $521 #
ellipse-curve $-1 -1 $-1 0 0 0.014999999999999999 0 0 1 0.09425 0 0 1 I I #
point $-1 -1 $-1 0.09425 0 -0.014999999999999999 #
face_name-twe-attrib $-1 -1 $-1 $347 $239 7 #
model_id-kcp-attrib $-1 -1 $522 $-1 $348 1 1021385831 1021385831 -1613692927 9 #
loop $523 -1 $-1 $247 $524 $348 #
cone-surface $525 -1 $-1 0.09425 -0.20000000000000001 0 0 1 0 -0.09425 0 0 1 I I 0.70710678118654802 0.70710678118654702 0.09425 forward I I I I #
loop_type-twe-attrib $-1 -1 $-1 $-1 $349 0 #
loop $526 -1 $-1 $-1 $527 $239 #
coedge $-1 -1 $-1 $451 $451 $362 $458 forward $349 $-1 #
surf-twe-attrib $-1 -1 $-1 $-1 $350 58 #
attrib_edge_convexity-kcp-attrib $-1 -1 $528 $-1 $353 1 #
vertex $-1 -1 $-1 $353 $529 #
ellipse-curve $530 -1 $-1 0.09425 0.23999999999999999 0 0 -1 0 -0.1875 0 0 1 I I #
edge_name-twe-attrib $-1 -1 $-1 $355 $169 7 8448 #
edge_name-twe-attrib $-1 -1 $-1 $358 $171 3 8704 #
edge $531 -1 $-1 $532 -3.1415926535897931 $532 3.1415926535897931 $451 $533 forward @7 unknown #
face $-1 -1 $-1 $388 $534 $28 $-1 $495 reversed single #
loop $-1 -1 $-1 $-1 $381 $364 #
plane-surface $-1 -1 $-1 0.1875 0 0 -1 0 0 0 0 1 forward_v I I I I #
coedge $-1 -1 $-1 $368 $367 $182 $269 forward $180 $-1 #
coedge $-1 -1 $-1 $535 $536 $367 $464 forward $537 $-1 #
edge $-1 -1 $-1 $383 -3.1415926535897931 $374 -1.5707963267948966 $463 $196 forward @7 unknown #
coedge $-1 -1 $-1 $538 $539 $368 $466 forward $534 $-1 #
edge $-1 -1 $-1 $375 1.5707963267948966 $273 3.1415926535897931 $465 $275 forward @7 unknown #
coedge $-1 -1 $-1 $540 $369 $539 $479 forward $470 $-1 #
coedge $-1 -1 $-1 $369 $540 $535 $541 forward $470 $-1 #
coedge $-1 -1 $-1 $542 $543 $181 $266 reversed $544 $-1 #
loop $-1 -1 $-1 $-1 $369 $504 #
coedge $-1 -1 $-1 $472 $370 $543 $545 reversed $473 $-1 #
coedge $-1 -1 $-1 $370 $471 $396 $399 reversed $473 $-1 #
loop $-1 -1 $-1 $-1 $370 $546 #
coedge $-1 -1 $-1 $475 $372 $397 $290 forward $476 $-1 #
coedge $-1 -1 $-1 $372 $474 $542 $477 reversed $476 $-1 #
loop $-1 -1 $-1 $-1 $372 $547 #
edge $-1 -1 $-1 $374 -1.3877787807814457e-017 $411 0.1875 $475 $548 forward @7 unknown #
point $-1 -1 $-1 1.3877787807814457e-017 -0.25 -0.1875 #
edge $-1 -1 $-1 $375 1.3877787807814457e-017 $496 0.1875 $539 $549 forward @7 unknown #
point $-1 -1 $-1 1.3877787807814457e-017 0.25 -0.1875 #
coedge $-1 -1 $-1 $413 $377 $380 $484 reversed $482 $-1 #
loop $-1 -1 $-1 $-1 $377 $409 #
coedge $-1 -1 $-1 $380 $379 $490 $510 reversed $382 $-1 #
edge $-1 -1 $-1 $412 -0.1875 $383 1.5407439555097887e-033 $380 $550 forward @7 unknown #
coedge $-1 -1 $-1 $551 $381 $536 $488 forward $460 $-1 #
coedge $-1 -1 $-1 $381 $551 $538 $389 reversed $460 $-1 #
face $-1 -1 $-1 $-1 $382 $28 $-1 $461 reversed single #
edge $-1 -1 $-1 $383 1.5407439555097887e-033 $552 0.1875 $485 $550 forward @7 unknown #
point $-1 -1 $-1 0.1875 -0.25 -1.5407439555097887e-033 #
coedge $-1 -1 $-1 $385 $402 $483 $510 forward $261 $-1 #
vertex $-1 -1 $-1 $510 $553 #
straight-curve $-1 -1 $-1 0 0.25 0.1875 -1 0 0 I I #
straight-curve $-1 -1 $-1 0.1875 0.25 0 0 0 -1 I I #
face $-1 -1 $-1 $546 $395 $28 $-1 $495 reversed single #
plane-surface $-1 -1 $-1 0 0.25 0 0 -1 0 0 0 -1 forward_v I I I I #
vertex $-1 -1 $-1 $554 $555 #
vertex $-1 -1 $-1 $391 $556 #
coedge $-1 -1 $-1 $398 $406 $393 $499 forward $407 $-1 #
edge $-1 -1 $-1 $497 -0.1875 $279 1.5407439555097887e-033 $393 $502 forward @7 unknown #
coedge $-1 -1 $-1 $397 $396 $557 $508 reversed $365 $-1 #
vertex $-1 -1 $-1 $545 $558 #
straight-curve $-1 -1 $-1 -0.1875 0.25 0 0 0 -1 I I #
edge $-1 -1 $-1 $497 -0.25 $404 0.25 $406 $559 forward @7 unknown #
face $-1 -1 $-1 $506 $470 $28 $-1 $560 reversed single #
point $-1 -1 $-1 -0.1875 -0.25 0.1875 #
face $-1 -1 $-1 $487 $407 $28 $-1 $366 reversed single #
face $-1 -1 $-1 $561 $537 $28 $-1 $410 reversed single #
edge $-1 -1 $-1 $411 -0.25 $501 0.25 $500 $562 forward @7 unknown #
point $-1 -1 $-1 -0.1875 -0.25 -0.1875 #
edge $-1 -1 $-1 $412 -0.25 $491 0.25 $483 $563 forward @7 unknown #
point $-1 -1 $-1 0.1875 -0.25 0.1875 #
straight-curve $-1 -1 $-1 -0.1875 0.25 0 0 0 -1 I I #
point $-1 -1 $-1 -0.1875 -0.25 -0.1875 #
straight-curve $-1 -1 $-1 -0.1875 0 -0.1875 0 1 0 I I #
point $-1 -1 $-1 -0.1875 0.25 -0.1875 #
vertex $-1 -1 $-1 $432 $564 #
ellipse-curve $-1 -1 $-1 1.3877787807814457e-017 -0.25 -1.5407439555097887e-033 0 -1 0 -0.1875 0 1.5407439555097887e-033 1 I I #
point $-1 -1 $-1 0.1875 0 -2.2961369134169577e-017 #
point $-1 -1 $-1 0.09425 -0.25000000000000006 0 #
point $-1 -1 $-1 0.1875 0 0.015000000000000013 #
point $-1 -1 $-1 0.09425 0 0.014999999999999999 #
face_name-twe-attrib $-1 -1 $-1 $446 $348 8 #
loop_type-twe-attrib $-1 -1 $-1 $-1 $447 0 #
coedge $-1 -1 $-1 $524 $524 $527 $565 forward $447 $-1 #
surf-twe-attrib $-1 -1 $-1 $-1 $448 78 #
loop_type-twe-attrib $-1 -1 $-1 $-1 $450 1 #
coedge $-1 -1 $-1 $527 $527 $524 $565 reversed $450 $-1 #
convexity-sys-attrib $-1 -1 $566 $453 $353 #
point $-1 -1 $-1 0.28175 0.23999999999999999 -2.29621235228882e-017 #
cur-twe-attrib $-1 -1 $-1 $-1 $455 83 #
attrib_edge_convexity-kcp-attrib $-1 -1 $567 $-1 $458 1 #
vertex $-1 -1 $-1 $458 $568 #
ellipse-curve $569 -1 $-1 0.09425 -0.02 0 0 -1 0 -0.09425 0 0 1 I I #
loop $-1 -1 $-1 $-1 $465 $459 #
coedge $-1 -1 $-1 $536 $463 $468 $541 reversed $537 $-1 #
coedge $-1 -1 $-1 $463 $535 $485 $488 reversed $537 $-1 #
loop $-1 -1 $-1 $-1 $463 $507 #
coedge $-1 -1 $-1 $539 $465 $486 $389 forward $534 $-1 #
coedge $-1 -1 $-1 $465 $538 $467 $479 reversed $534 $-1 #
coedge $-1 -1 $-1 $468 $467 $551 $554 forward $470 $-1 #
edge $-1 -1 $-1 $552 -0.1875 $374 -1.3877787807814457e-017 $535 $548 forward @7 unknown #
coedge $-1 -1 $-1 $557 $469 $475 $477 forward $544 $-1 #
coedge $-1 -1 $-1 $469 $557 $471 $545 forward $544 $-1 #
loop $-1 -1 $-1 $-1 $469 $561 #
edge $-1 -1 $-1 $501 -0.1875 $375 1.3877787807814457e-017 $471 $549 forward @7 unknown #
face $-1 -1 $-1 $547 $473 $28 $-1 $495 reversed single #
face $-1 -1 $-1 $289 $476 $28 $-1 $410 reversed single #
straight-curve $-1 -1 $-1 0 -0.25 -0.1875 -1 0 0 I I #
straight-curve $-1 -1 $-1 0 0.25 -0.1875 1 0 0 I I #
straight-curve $-1 -1 $-1 0.1875 -0.25 0 0 0 -1 I I #
coedge $-1 -1 $-1 $486 $485 $540 $554 reversed $460 $-1 #
vertex $-1 -1 $-1 $488 $570 #
point $-1 -1 $-1 0.1875 0.25 0.1875 #
edge $-1 -1 $-1 $496 -0.25 $552 0.25 $551 $571 forward @7 unknown #
point $-1 -1 $-1 0.1875 0.25 -0.1875 #
point $-1 -1 $-1 -0.1875 0.25 0.1875 #
coedge $-1 -1 $-1 $543 $542 $500 $508 forward $544 $-1 #
point $-1 -1 $-1 -0.1875 0.25 -0.1875 #
straight-curve $-1 -1 $-1 -0.1875 0 0.1875 0 -1 0 I I #
plane-surface $-1 -1 $-1 0 0 -0.1875 0 0 1 1 0 0 forward_v I I I I #
face $-1 -1 $-1 $403 $544 $28 $-1 $560 reversed single #
straight-curve $-1 -1 $-1 -0.1875 0 -0.1875 0 1 0 I I #
straight-curve $-1 -1 $-1 0.1875 0 0.1875 0 1 0 I I #
point $-1 -1 $-1 1.3877787807814457e-017 -0.25 0.1875 #
edge $572 -1 $-1 $573 -3.1415926535897931 $573 3.1415926535897931 $524 $574 forward @7 unknown #
edge_name-twe-attrib $-1 -1 $-1 $528 $353 2 8448 #
convexity-sys-attrib $-1 -1 $575 $531 $458 #
point $-1 -1 $-1 0.1885 -0.02 -1.15422940908385e-017 #
cur-twe-attrib $-1 -1 $-1 $-1 $533 101 #
point $-1 -1 $-1 0.1875 -0.25 -0.1875 #
straight-curve $-1 -1 $-1 0.1875 0 -0.1875 0 -1 0 I I #
attrib_edge_convexity-kcp-attrib $-1 -1 $576 $-1 $565 1 #
vertex $-1 -1 $-1 $565 $577 #
ellipse-curve $578 -1 $-1 0.09425 -0.20000000000000001 0 0 -1 0 -0.09425 0 0 1 I I #
edge_name-twe-attrib $-1 -1 $-1 $567 $458 5 8704 #
convexity-sys-attrib $-1 -1 $579 $572 $565 #
point $-1 -1 $-1 0.1885 -0.20000000000000001 -1.15422940908385e-017 #
cur-twe-attrib $-1 -1 $-1 $-1 $574 112 #
edge_name-twe-attrib $-1 -1 $-1 $576 $565 6 8448 #
End-of-ACIS-data 