600 0 2 0           
24 FBMach with ACIS - 6.0.3 13 ACIS 6.0.3 NT 24 Wed May 23 20:25:33 2001 
1 9.9999999999999995e-007 1e-010 
body $2 $3 $-1 $4 #
bdycol-kcp $-1 1 1 $5 #
model_id-kcp-attrib $-1 $6 $-1 $0 1 990663933 60 -415498239 1 #
lump $7 $-1 $8 $0 #
transform $-1 1 0 0 0 1 0 0 0 1 60 50 0 1 no_rotate no_reflect no_shear #
body $9 $10 $-1 $11 #
f_body-rbase-attrib $-1 $12 $2 $0 #
ref_vt-eye-attrib $-1 $-1 $-1 $3 $13 $-1 #
shell $14 $-1 $-1 $15 $-1 $3 #
model_id-kcp-attrib $-1 $-1 $-1 $5 1 990663933 60 -415498238 1 #
lump $-1 $-1 $16 $5 #
transform $-1 1 0 0 0 1 0 0 0 1 1 2.25 -1.5891945000000645 1 no_rotate no_reflect no_shear #
ref_vt-eye-attrib $-1 $-1 $6 $0 $13 $-1 #
eye_refinement $-1 5 grid  1 3 tri 1 4 surf 0 3 adj 0 4 grad 0 9 postcheck 0 4 stol 3.499126672744751 4 ntol 25 4 dsil 0 8 flatness 0 7 pixarea 0 4 hmax 0 6 gridar 0 5 mgrid 10000 5 ugrid 0 5 vgrid 0 10 end_fields #
ref_vt-eye-attrib $-1 $-1 $-1 $8 $13 $-1 #
face $17 $18 $19 $8 $-1 $20 forward single #
shell $-1 $-1 $-1 $21 $-1 $10 #
model_id-kcp-attrib $-1 $-1 $-1 $15 1 990663933 60 -415498239 2 #
face $22 $23 $24 $8 $-1 $25 forward single #
loop $-1 $-1 $26 $15 #
plane-surface $-1 -86 -50 0 -1 0 0 0 0 1 forward_v I I I I #
face $27 $28 $29 $16 $-1 $30 forward single #
model_id-kcp-attrib $-1 $-1 $-1 $18 1 990663933 60 -415498239 3 #
face $31 $32 $33 $8 $-1 $34 forward single #
loop $-1 $-1 $35 $18 #
plane-surface $-1 -50 -32.5 0 0 1 0 0 0 1 forward_v I I I I #
coedge $-1 $36 $37 $38 $39 reversed $19 $-1 #
model_id-kcp-attrib $-1 $-1 $-1 $21 1 990663933 60 -415498238 4 #
face $40 $41 $42 $16 $-1 $43 reversed single #
loop $-1 $-1 $44 $21 #
plane-surface $-1 0 0 11.703194500000144 0 0 1 1 0 0 forward_v I I I I #
model_id-kcp-attrib $-1 $45 $-1 $23 1 990663933 60 -415498239 4 #
face $46 $47 $48 $8 $-1 $49 forward single #
loop $-1 $50 $51 $23 #
plane-surface $-1 20 240.03499999999997 10.114000000000051 0 0 1 1 0 0 forward_v I I I I #
coedge $-1 $52 $53 $54 $55 forward $24 $-1 #
coedge $-1 $54 $26 $56 $57 reversed $19 $-1 #
coedge $-1 $26 $54 $58 $59 reversed $19 $-1 #
coedge $-1 $60 $61 $26 $39 forward $48 $-1 #
edge $-1 $62 -10.114000000000051 $63 13.292389000000208 $38 $64 forward 7 unknown #
model_id-kcp-attrib $-1 $-1 $-1 $28 1 990663933 60 -415498238 7 #
face $65 $66 $67 $16 $-1 $68 reversed single #
loop $-1 $-1 $69 $28 #
plane-surface $-1 0 0 -11.703194500000144 0 0 1 1 0 0 forward_v I I I I #
coedge $-1 $70 $71 $72 $73 forward $29 $-1 #
ref_vt-eye-attrib $-1 $-1 $31 $23 $13 $-1 #
model_id-kcp-attrib $-1 $-1 $-1 $32 1 990663933 60 -415498239 5 #
face $74 $75 $76 $8 $-1 $77 forward single #
loop $-1 $-1 $38 $32 #
plane-surface $-1 -45 -63 0 0 -1 0 0 0 -1 forward_v I I I I #
loop $-1 $-1 $56 $23 #
coedge $-1 $78 $79 $80 $81 forward $33 $-1 #
coedge $-1 $82 $35 $83 $84 reversed $24 $-1 #
coedge $-1 $35 $82 $85 $86 reversed $24 $-1 #
coedge $-1 $37 $36 $35 $55 reversed $19 $-1 #
edge $-1 $87 -13.292389000000208 $88 10.114000000000051 $35 $89 forward 7 unknown #
coedge $-1 $90 $83 $36 $57 forward $50 $-1 #
edge $-1 $88 127.51749999999998 $62 158.01749999999998 $56 $91 forward 7 unknown #
coedge $-1 $85 $92 $37 $59 forward $93 $-1 #
edge $-1 $63 -37.102392448041456 $87 -6.6023924480414564 $58 $94 forward 7 unknown #
coedge $-1 $95 $38 $92 $96 reversed $48 $-1 #
coedge $-1 $38 $97 $90 $98 reversed $48 $-1 #
vertex $-1 $39 $99 #
vertex $-1 $96 $100 #
straight-curve $-1 -86 -63 0 0 0 -1 I I #
model_id-kcp-attrib $-1 $-1 $-1 $41 1 990663933 60 -415498238 5 #
face $101 $102 $103 $16 $-1 $104 reversed single #
loop $-1 $-1 $105 $41 #
plane-surface $-1 0 -15.25 0 0 1 0 0 0 1 forward_v I I I I #
coedge $-1 $106 $107 $108 $109 forward $42 $-1 #
coedge $-1 $110 $44 $111 $112 forward $29 $-1 #
coedge $-1 $44 $110 $113 $114 forward $29 $-1 #
coedge $-1 $115 $116 $44 $73 reversed $117 $-1 #
edge $-1 $118 -15.25 $119 15.25 $72 $120 forward 7 unknown #
model_id-kcp-attrib $-1 $121 $-1 $47 1 990663933 60 -415498239 6 #
face $122 $123 $124 $8 $-1 $125 forward single #
loop $-1 $-1 $126 $47 #
cone-surface $-1 -33.537999999999982 -61.217000000000098 10.11400000000004 0 2e-016 1 0 2 -3.9999999999999999e-016 1 I I 0 1 2 forward I I I I #
coedge $-1 $127 $51 $128 $129 forward $33 $-1 #
coedge $-1 $51 $130 $131 $132 forward $33 $-1 #
coedge $-1 $133 $134 $51 $81 reversed $135 $-1 #
edge $-1 $136 305.21142661962028 $137 322.42299999999989 $80 $138 forward 7 unknown #
coedge $-1 $53 $52 $139 $140 forward $24 $-1 #
coedge $-1 $56 $141 $52 $84 forward $50 $-1 #
edge $-1 $142 17 $88 71 $83 $143 forward 7 unknown #
coedge $-1 $144 $58 $53 $86 forward $93 $-1 #
edge $-1 $87 -59.622253098140675 $145 -5.6222530981406749 $85 $146 forward 7 unknown #
vertex $-1 $59 $147 #
vertex $-1 $84 $148 #
straight-curve $-1 -86 -32.5 0 0 0 1 I I #
coedge $-1 $149 $56 $61 $98 forward $50 $-1 #
straight-curve $-1 -86 95.017499999999984 10.114000000000051 0 -1 0 I I #
coedge $-1 $58 $144 $60 $96 forward $93 $-1 #
loop $-1 $-1 $58 $150 #
straight-curve $-1 -86 -25.897607551958544 -13.292389000000208 0 1 0 I I #
coedge $-1 $151 $60 $152 $153 reversed $48 $-1 #
edge $-1 $154 8.1222530981406749 $63 62.122253098140675 $92 $155 forward 7 unknown #
coedge $-1 $61 $151 $126 $156 reversed $48 $-1 #
edge $-1 $62 -73.5 $157 -20.131958610216742 $90 $158 forward 7 unknown #
point $-1 -86 -63 10.114000000000051 #
point $-1 -86 -63 -13.292389000000208 #
model_id-kcp-attrib $-1 $-1 $-1 $66 1 990663933 60 -415498238 2 #
face $159 $160 $161 $16 $-1 $162 reversed single #
loop $-1 $-1 $163 $66 #
plane-surface $-1 -27 0 0 1 0 0 0 0 -1 forward_v I I I I #
coedge $-1 $164 $113 $165 $166 forward $67 $-1 #
coedge $-1 $167 $69 $164 $168 forward $42 $-1 #
coedge $-1 $69 $167 $169 $170 forward $42 $-1 #
coedge $-1 $116 $115 $69 $109 reversed $117 $-1 #
edge $-1 $171 -15.25 $172 15.25 $108 $173 forward 7 unknown #
coedge $-1 $71 $70 $174 $175 forward $29 $-1 #
coedge $-1 $176 $177 $70 $112 reversed $161 $-1 #
edge $-1 $119 -27 $178 27 $111 $179 forward 7 unknown #
coedge $-1 $105 $180 $71 $114 reversed $67 $-1 #
edge $-1 $181 -27 $118 27 $113 $182 forward 7 unknown #
coedge $-1 $108 $72 $180 $183 forward $117 $-1 #
coedge $-1 $72 $108 $176 $184 reversed $117 $-1 #
loop $-1 $-1 $115 $160 #
vertex $-1 $73 $185 #
vertex $-1 $73 $186 #
straight-curve $-1 27 0 11.703194500000144 0 1 0 I I #
ref_vt-eye-attrib $-1 $-1 $74 $47 $13 $-1 #
model_id-kcp-attrib $-1 $187 $-1 $75 1 990663933 60 -415498239 7 #
face $188 $150 $189 $8 $-1 $190 forward single #
loop $-1 $-1 $191 $75 #
plane-surface $-1 -2.7554938037186503 -1.7952151039170872 5.1140000000001127 0 0 1 1 0 0 forward_v I I I I #
coedge $-1 $192 $193 $97 $156 forward $76 $-1 #
coedge $-1 $194 $78 $195 $196 forward $33 $-1 #
coedge $-1 $197 $198 $78 $129 reversed $199 $-1 #
edge $-1 $137 -1.5707963267948966 $200 0 $128 $201 forward 7 unknown #
coedge $-1 $79 $202 $203 $204 forward $33 $-1 #
coedge $-1 $205 $206 $79 $132 reversed $207 $-1 #
edge $-1 $208 2.7172029449962705 $136 4.7123889803846897 $131 $209 forward 7 unknown #
coedge $-1 $210 $80 $206 $211 forward $135 $-1 #
coedge $-1 $80 $210 $197 $212 reversed $135 $-1 #
loop $-1 $-1 $210 $213 #
vertex $-1 $81 $214 #
vertex $-1 $81 $215 #
straight-curve $-1 -33.061999999999983 262 10.114000000000061 0 -1 -9.9999999999999998e-017 I I #
coedge $-1 $216 $217 $82 $140 reversed $189 $-1 #
edge $-1 $142 -10.114000000000051 $145 13.292389000000208 $82 $218 forward 7 unknown #
coedge $-1 $83 $149 $216 $219 forward $50 $-1 #
vertex $-1 $140 $220 #
straight-curve $-1 -15 -32.5 10.114000000000051 -1 0 0 I I #
coedge $-1 $92 $85 $217 $221 forward $93 $-1 #
vertex $-1 $86 $222 #
straight-curve $-1 -26.377746901859325 -32.5 -13.292389000000208 1 0 0 I I #
point $-1 -86 -32.5 -13.292389000000208 #
point $-1 -86 -32.5 10.114000000000051 #
coedge $-1 $141 $90 $193 $223 reversed $50 $-1 #
face $224 $225 $93 $8 $-1 $226 reversed single #
coedge $-1 $97 $95 $191 $227 reversed $48 $-1 #
coedge $-1 $217 $228 $95 $153 forward $189 $-1 #
edge $-1 $229 -5.1140000000001127 $154 13.292389000000208 $152 $230 forward 7 unknown #
vertex $-1 $221 $231 #
straight-curve $-1 -23.877746901859325 -63 -13.292389000000208 -1 0 0 I I #
edge $-1 $157 -3.730349362740526e-014 $232 4.9999999999999147 $126 $233 forward 7 unknown #
vertex $-1 $223 $234 #
straight-curve $-1 -12.5 -63 10.114000000000051 1 0 0 I I #
model_id-kcp-attrib $-1 $-1 $-1 $102 1 990663933 60 -415498238 3 #
face $235 $-1 $117 $16 $-1 $236 reversed single #
loop $-1 $-1 $176 $102 #
plane-surface $-1 0 15.25 0 0 -1 0 0 0 -1 forward_v I I I I #
coedge $-1 $237 $174 $177 $238 forward $103 $-1 #
coedge $-1 $180 $105 $106 $168 reversed $67 $-1 #
coedge $-1 $174 $237 $105 $166 reversed $103 $-1 #
edge $-1 $181 -11.703194500000144 $239 11.703194500000144 $165 $240 forward 7 unknown #
coedge $-1 $107 $106 $237 $241 forward $42 $-1 #
edge $-1 $172 -27 $239 27 $164 $242 forward 7 unknown #
coedge $-1 $177 $176 $107 $170 reversed $161 $-1 #
edge $-1 $243 -27 $171 27 $169 $244 forward 7 unknown #
vertex $-1 $109 $245 #
vertex $-1 $183 $246 #
straight-curve $-1 27 0 -11.703194500000144 0 -1 0 I I #
coedge $-1 $163 $165 $110 $175 reversed $103 $-1 #
edge $-1 $178 -15.25 $181 15.25 $174 $247 forward 7 unknown #
coedge $-1 $169 $111 $116 $184 forward $161 $-1 #
coedge $-1 $111 $169 $163 $238 reversed $161 $-1 #
vertex $-1 $112 $248 #
straight-curve $-1 0 15.25 11.703194500000144 -1 0 0 I I #
coedge $-1 $113 $164 $115 $183 reversed $67 $-1 #
vertex $-1 $175 $249 #
straight-curve $-1 0 -15.25 11.703194500000144 1 0 0 I I #
edge $-1 $118 -11.703194500000144 $172 11.703194500000144 $115 $250 forward 7 unknown #
edge $-1 $119 -11.703194500000144 $171 11.703194500000144 $116 $251 forward 7 unknown #
point $-1 27 -15.25 11.703194500000144 #
point $-1 27 15.25 11.703194500000144 #
ref_vt-eye-attrib $-1 $-1 $122 $75 $13 $-1 #
model_id-kcp-attrib $-1 $-1 $-1 $123 1 990663933 60 -415498239 8 #
loop $-1 $-1 $152 $123 #
plane-surface $-1 -32 -57.5 0 1 0 0 0 0 -1 forward_v I I I I #
coedge $-1 $252 $253 $151 $227 forward $124 $-1 #
coedge $-1 $254 $126 $253 $255 reversed $76 $-1 #
coedge $-1 $126 $254 $149 $223 forward $76 $-1 #
coedge $-1 $256 $127 $257 $258 forward $33 $-1 #
coedge $-1 $259 $260 $127 $196 reversed $261 $-1 #
edge $-1 $200 54.332000000000001 $262 104.24299999999999 $195 $263 forward 7 unknown #
coedge $-1 $264 $128 $134 $212 forward $199 $-1 #
coedge $-1 $128 $264 $259 $265 reversed $199 $-1 #
loop $-1 $-1 $264 $266 #
vertex $-1 $129 $267 #
ellipse-curve $-1 -34.332000000000001 -60.422999999999888 10.114000000000068 -2e-016 0 -1 0 -1.27 0 1 I I #
coedge $-1 $130 $268 $269 $270 forward $33 $-1 #
coedge $-1 $271 $272 $130 $204 reversed $273 $-1 #
edge $-1 $274 1.1464066182018537 $208 3.5659823621829108 $203 $275 forward 7 unknown #
coedge $-1 $276 $131 $272 $277 forward $207 $-1 #
coedge $-1 $131 $276 $133 $211 reversed $207 $-1 #
loop $-1 $-1 $276 $278 #
vertex $-1 $277 $279 #
ellipse-curve $-1 -34.332000000000001 -43.211426619620283 10.114000000000068 -2e-016 0 -1 0 -1.27 0 1 I I #
coedge $-1 $134 $133 $280 $281 reversed $135 $-1 #
edge $-1 $136 16.885999999999989 $282 21.885999999999946 $206 $283 forward 7 unknown #
edge $-1 $137 16.885999999999992 $284 21.885999999999946 $197 $285 forward 7 unknown #
face $286 $287 $135 $8 $-1 $288 reversed single #
point $-1 -33.061999999999983 -43.211426619620283 10.114000000000068 #
point $-1 -33.061999999999983 -60.422999999999888 10.114000000000068 #
coedge $-1 $289 $139 $141 $219 reversed $189 $-1 #
coedge $-1 $139 $152 $144 $221 reversed $189 $-1 #
straight-curve $-1 -32 -32.5 0 0 0 -1 I I #
edge $-1 $290 -153.76299755572714 $142 -123.76749999999998 $141 $291 forward 7 unknown #
point $-1 -32 -32.5 10.114000000000051 #
edge $-1 $145 2.8523924480414564 $154 33.352392448041456 $144 $292 forward 7 unknown #
point $-1 -32 -32.5 -13.292389000000208 #
edge $-1 $290 -0.87727534012942299 $157 -0.47015076204673423 $193 $293 forward 7 unknown #
model_id-kcp-attrib $-1 $294 $-1 $150 1 990663933 60 -415498239 9 #
face $295 $296 $297 $8 $-1 $298 reversed single #
plane-surface $-1 -2.7554938037186503 -1.7952151039170872 -13.292389000000208 0 0 1 1 0 0 forward_v I I I I #
edge $-1 $232 -8.7542117083574169 $229 -8.1222530981406749 $191 $299 forward 7 unknown #
coedge $-1 $152 $289 $252 $300 reversed $189 $-1 #
vertex $-1 $153 $301 #
straight-curve $-1 -32 -63 0 0 0 -1 I I #
point $-1 -32 -63 -13.292389000000208 #
vertex $-1 $255 $302 #
straight-curve $-1 -32.631958610216742 -63 10.11400000000004 0 -2e-016 -1 I I #
point $-1 -32.631958610216742 -63 10.114000000000077 #
model_id-kcp-attrib $-1 $-1 $-1 $160 1 990663933 60 -415498238 6 #
plane-surface $-1 27 0 0 -1 0 0 0 0 1 forward_v I I I I #
coedge $-1 $165 $163 $167 $241 reversed $103 $-1 #
edge $-1 $178 -11.703194500000144 $243 11.703194500000144 $177 $303 forward 7 unknown #
vertex $-1 $241 $304 #
straight-curve $-1 -27 -15.25 0 0 0 -1 I I #
edge $-1 $239 -15.25 $243 15.25 $237 $305 forward 7 unknown #
straight-curve $-1 0 -15.25 -11.703194500000144 -1 0 0 I I #
vertex $-1 $170 $306 #
straight-curve $-1 0 15.25 -11.703194500000144 1 0 0 I I #
point $-1 27 15.25 -11.703194500000144 #
point $-1 27 -15.25 -11.703194500000144 #
straight-curve $-1 -27 0 11.703194500000144 0 -1 0 I I #
point $-1 -27 15.25 11.703194500000144 #
point $-1 -27 -15.25 11.703194500000144 #
straight-curve $-1 27 -15.25 0 0 0 -1 I I #
straight-curve $-1 27 15.25 0 0 0 -1 I I #
coedge $-1 $253 $191 $228 $300 forward $124 $-1 #
coedge $-1 $191 $252 $192 $255 forward $124 $-1 #
coedge $-1 $193 $192 $289 $307 forward $76 $-1 #
edge $-1 $308 2.2643173134603702 $232 2.6714418915430591 $253 $309 forward 7 unknown #
coedge $-1 $310 $194 $311 $312 forward $33 $-1 #
coedge $-1 $313 $314 $194 $258 reversed $297 $-1 #
edge $-1 $262 0 $315 1.5707963267948966 $257 $316 forward 7 unknown #
coedge $-1 $317 $195 $198 $265 forward $261 $-1 #
coedge $-1 $195 $318 $313 $319 reversed $261 $-1 #
loop $-1 $-1 $318 $320 #
vertex $-1 $319 $321 #
straight-curve $-1 20 -61.692999999999813 10.114000000000029 -1 0 2e-016 I I #
coedge $-1 $198 $197 $322 $323 reversed $199 $-1 #
edge $-1 $200 16.885999999999992 $324 21.885999999999946 $198 $325 forward 7 unknown #
face $326 $320 $199 $8 $-1 $327 reversed single #
point $-1 -34.332000000000001 -61.692999999999813 10.114000000000068 #
coedge $-1 $202 $310 $328 $329 forward $33 $-1 #
coedge $-1 $330 $331 $202 $270 reversed $332 $-1 #
edge $-1 $333 -3.1415926535897931 $274 -1.1464066182016761 $269 $334 forward 7 unknown #
coedge $-1 $335 $203 $331 $336 forward $273 $-1 #
coedge $-1 $203 $335 $205 $277 reversed $273 $-1 #
loop $-1 $-1 $335 $287 #
vertex $-1 $336 $337 #
ellipse-curve $-1 -36.999000000000017 -37.30900000000031 10.114000000000068 2e-016 0 1 0 5.2070000000000176 0 1 I I #
coedge $-1 $206 $205 $338 $339 reversed $207 $-1 #
edge $-1 $208 16.885999999999989 $340 21.885999999999946 $205 $341 forward 7 unknown #
face $342 $343 $207 $8 $-1 $344 reversed single #
point $-1 -34.854941176470597 -42.054088066754616 10.114000000000068 #
coedge $-1 $338 $322 $210 $281 forward $345 $-1 #
edge $-1 $284 -190.52539244804134 $282 -173.31381906766174 $280 $346 forward 7 unknown #
vertex $-1 $339 $347 #
straight-curve $-1 -33.061999999999983 -43.211426619620283 27.000000000000057 0 -2e-016 -1 I I #
vertex $-1 $323 $348 #
straight-curve $-1 -33.061999999999983 -60.422999999999888 27.00000000000006 0 -2e-016 -1 I I #
model_id-kcp-attrib $-1 $349 $-1 $213 1 990663933 60 -415498239 25 #
face $350 $351 $273 $8 $-1 $352 forward single #
plane-surface $-1 -33.061999999999983 262 10.114000000000061 1 0 -2e-016 -2e-016 0 -1 forward_v I I I I #
coedge $-1 $228 $216 $254 $307 reversed $189 $-1 #
vertex $-1 $219 $353 #
straight-curve $-1 -32 91.267499999999984 10.114000000000051 0 1 0 I I #
straight-curve $-1 -32 -29.647607551958544 -13.292389000000208 0 -1 0 I I #
ellipse-curve $-1 -33.537999999999982 -61.217000000000098 10.114000000000079 -2e-016 0 -1 0 -2 0 1 I I #
ref_vt-eye-attrib $-1 $-1 $224 $150 $13 $-1 #
model_id-kcp-attrib $-1 $354 $-1 $225 1 990663933 60 -415498239 10 #
face $355 $356 $357 $8 $-1 $358 reversed single #
loop $-1 $-1 $359 $225 #
cone-surface $-1 -84.242999999999995 -60.422999999999888 2.4940000000000495 2e-016 0 1 0 -1.27 0 1 I I 0 1 1.27 forward I I I I #
straight-curve $-1 -23.877746901859325 -63 5.1140000000001127 1 0 0 I I #
edge $-1 $229 -33.352392448041456 $308 -32.847890003768612 $252 $360 forward 7 unknown #
point $-1 -32 -63 5.1140000000001127 #
point $-1 -32.631958610216742 -63 5.1140000000001251 #
straight-curve $-1 -27 15.25 0 0 0 -1 I I #
point $-1 -27 -15.25 -11.703194500000144 #
straight-curve $-1 -27 0 -11.703194500000144 0 1 0 I I #
point $-1 -27 15.25 -11.703194500000144 #
edge $-1 $308 -4.9999999999999147 $290 3.907985046680551e-014 $254 $361 forward 7 unknown #
vertex $-1 $307 $362 #
ellipse-curve $-1 -33.537999999999982 -61.217000000000098 5.1140000000001251 0 0 -1 0 2 -3.9999999999999999e-016 1 I I #
coedge $-1 $268 $256 $363 $364 forward $33 $-1 #
coedge $-1 $365 $366 $256 $312 reversed $357 $-1 #
edge $-1 $315 -322.42299999999989 $367 -296.64200000000108 $311 $368 forward 7 unknown #
coedge $-1 $359 $257 $260 $319 forward $297 $-1 #
coedge $-1 $257 $359 $365 $369 reversed $297 $-1 #
vertex $-1 $258 $370 #
ellipse-curve $-1 -84.242999999999995 -60.422999999999888 10.114000000000079 -2e-016 0 -1 0 -1.27 0 1 I I #
coedge $-1 $371 $259 $372 $373 reversed $261 $-1 #
coedge $-1 $260 $374 $375 $376 reversed $261 $-1 #
edge $-1 $262 16.885999999999981 $377 21.885999999999946 $313 $378 forward 7 unknown #
face $379 $380 $261 $8 $-1 $381 reversed single #
point $-1 -84.242999999999995 -61.692999999999813 10.114000000000079 #
coedge $-1 $280 $372 $264 $323 forward $345 $-1 #
edge $-1 $324 0 $284 1.570796326794891 $322 $382 forward 7 unknown #
vertex $-1 $323 $383 #
straight-curve $-1 -34.332000000000001 -61.692999999999813 27.00000000000006 0 -2e-016 -1 I I #
model_id-kcp-attrib $-1 $384 $-1 $266 1 990663933 60 -415498239 13 #
cone-surface $-1 -34.332000000000001 -60.422999999999888 2.4940000000000389 2e-016 0 1 0 -1.27 0 1 I I 0 1 1.27 forward I I I I #
coedge $-1 $385 $386 $268 $329 reversed $387 $-1 #
edge $-1 $388 -104.24299999999999 $333 -62.901426619620139 $328 $389 forward 7 unknown #
coedge $-1 $390 $269 $386 $391 forward $332 $-1 #
coedge $-1 $269 $390 $271 $336 reversed $332 $-1 #
loop $-1 $-1 $390 $343 #
vertex $-1 $391 $392 #
ellipse-curve $-1 -42.901426619620139 -34.642000000001076 10.114000000000068 -2e-016 0 -1 0 -1.27 0 1 I I #
coedge $-1 $272 $271 $393 $394 reversed $273 $-1 #
edge $-1 $274 16.885999999999985 $395 21.885999999999939 $331 $396 forward 7 unknown #
point $-1 -41.744088066753477 -35.1649411764717 10.114000000000068 #
coedge $-1 $393 $280 $276 $339 forward $345 $-1 #
edge $-1 $282 1.570796326794891 $340 3.565982362183318 $338 $397 forward 7 unknown #
vertex $-1 $339 $398 #
straight-curve $-1 -34.854941176470597 -42.054088066754616 27.000000000000057 0 -2e-016 -1 I I #
model_id-kcp-attrib $-1 $399 $-1 $278 1 990663933 60 -415498239 20 #
face $400 $401 $332 $8 $-1 $402 reversed single #
cone-surface $-1 -34.332000000000001 -43.211426619620283 2.4940000000000317 2e-016 0 1 0 -1.27 0 1 I I 0 1 1.27 forward I I I I #
loop $-1 $-1 $403 $351 #
straight-curve $-1 -33.061999999999983 130.10239244804146 5.1140000000001127 0 1 0 I I #
point $-1 -33.061999999999983 -43.211426619620291 5.1140000000001109 #
point $-1 -33.061999999999983 -60.422999999999895 5.1140000000001145 #
ref_vt-eye-attrib $-1 $-1 $286 $213 $13 $-1 #
model_id-kcp-attrib $-1 $404 $-1 $287 1 990663933 60 -415498239 26 #
face $405 $406 $345 $8 $-1 $125 forward single #
cone-surface $-1 -36.999000000000017 -37.30900000000031 2.4939999999999607 0 0 1 0 5.2070000000007797 0 1 I I 0 1 5.2070000000007797 forward I I I I #
point $-1 -32 -62.495497555727155 10.114000000000079 #
ref_vt-eye-attrib $-1 $-1 $295 $225 $13 $-1 #
model_id-kcp-attrib $-1 $407 $-1 $296 1 990663933 60 -415498239 11 #
face $408 $266 $409 $8 $-1 $410 reversed single #
loop $-1 $-1 $411 $296 #
plane-surface $-1 -85.513000000000005 262 10.114000000000068 -1 0 2e-016 2e-016 0 1 forward_v I I I I #
coedge $-1 $314 $313 $412 $413 reversed $297 $-1 #
straight-curve $-1 -32 -29.647607551958544 5.1140000000001127 0 1 0 I I #
straight-curve $-1 -32 -62.495497555727155 10.11400000000004 0 2e-016 1 I I #
point $-1 -32 -62.495497555727155 5.1140000000001251 #
coedge $-1 $414 $415 $310 $364 reversed $409 $-1 #
edge $-1 $367 1.5707963267948966 $388 3.1415926535897931 $363 $416 forward 7 unknown #
coedge $-1 $411 $311 $314 $369 forward $357 $-1 #
coedge $-1 $311 $411 $414 $417 reversed $357 $-1 #
vertex $-1 $364 $418 #
straight-curve $-1 -85.513000000000005 262 10.114000000000068 0 1 9.9999999999999998e-017 I I #
edge $-1 $315 16.885999999999981 $419 21.885999999999946 $314 $420 forward 7 unknown #
point $-1 -85.513000000000005 -60.422999999999888 10.114000000000079 #
coedge $-1 $421 $317 $422 $423 reversed $261 $-1 #
coedge $-1 $322 $424 $317 $373 forward $345 $-1 #
edge $-1 $425 -59.84525309814066 $324 -42.954253098140676 $372 $426 forward 7 unknown #
coedge $-1 $318 $421 $427 $428 forward $261 $-1 #
coedge $-1 $429 $412 $318 $376 forward $430 $-1 #
edge $-1 $377 -92.86525309814067 $431 -63.909253098140638 $375 $426 forward 7 unknown #
vertex $-1 $413 $432 #
straight-curve $-1 -84.242999999999995 -61.692999999999813 27.00000000000006 0 -2e-016 -1 I I #
model_id-kcp-attrib $-1 $433 $-1 $320 1 990663933 60 -415498239 14 #
face $434 $435 $436 $8 $-1 $437 reversed single #
plane-surface $-1 20 -61.692999999999813 2.4939999999999714 0 -1 0 0 0 -1 forward_v I I I I #
ellipse-curve $-1 -34.332000000000001 -60.422999999999888 5.114000000000118 0 0 1 0 -1.27 0 1 I I #
point $-1 -34.332000000000001 -61.69299999999982 5.1140000000001145 #
ref_vt-eye-attrib $-1 $-1 $326 $266 $13 $-1 #
coedge $-1 $438 $328 $415 $439 forward $387 $-1 #
coedge $-1 $328 $440 $330 $391 reversed $387 $-1 #
loop $-1 $-1 $438 $441 #
vertex $-1 $364 $442 #
straight-curve $-1 20 -33.372000000000014 10.114000000000019 1 0 -2e-016 I I #
coedge $-1 $331 $330 $443 $444 reversed $332 $-1 #
edge $-1 $333 16.885999999999985 $445 21.885999999999939 $330 $446 forward 7 unknown #
point $-1 -42.901426619620139 -33.372000000000014 10.114000000000068 #
coedge $-1 $443 $338 $335 $394 forward $345 $-1 #
edge $-1 $340 2.7172029449966764 $395 5.1367786889777314 $393 $447 forward 7 unknown #
vertex $-1 $444 $448 #
straight-curve $-1 -41.744088066753477 -35.1649411764717 27.000000000000053 0 -2e-016 -1 I I #
ellipse-curve $-1 -34.332000000000001 -43.211426619620283 5.114000000000118 0 0 1 0 -1.27 0 1 I I #
point $-1 -34.854941176470597 -42.054088066754623 5.1140000000001109 #
ref_vt-eye-attrib $-1 $-1 $342 $278 $13 $-1 #
model_id-kcp-attrib $-1 $449 $-1 $343 1 990663933 60 -415498239 21 #
face $450 $451 $452 $8 $-1 $453 forward single #
cone-surface $-1 -42.901426619620139 -34.642000000001076 2.4940000000000389 2e-016 0 1 0 -1.27 0 1 I I 0 1 1.27 forward I I I I #
coedge $-1 $454 $455 $456 $457 forward $345 $-1 #
ref_vt-eye-attrib $-1 $-1 $350 $287 $13 $-1 #
model_id-kcp-attrib $-1 $458 $-1 $351 1 990663933 60 -415498239 27 #
face $459 $-1 $430 $8 $-1 $125 forward single #
ref_vt-eye-attrib $-1 $-1 $355 $296 $13 $-1 #
model_id-kcp-attrib $-1 $460 $-1 $356 1 990663933 60 -415498239 12 #
loop $-1 $-1 $461 $356 #
cone-surface $-1 -84.242999999999995 -34.642000000001076 2.4940000000000389 2e-016 0 1 0 -1.27 0 1 I I 0 1 1.27 forward I I I I #
coedge $-1 $366 $365 $462 $463 reversed $357 $-1 #
coedge $-1 $375 $462 $359 $413 forward $430 $-1 #
edge $-1 $419 -1.570796326794891 $377 0 $412 $464 forward 7 unknown #
coedge $-1 $461 $363 $366 $417 forward $409 $-1 #
coedge $-1 $363 $461 $385 $439 reversed $409 $-1 #
ellipse-curve $-1 -84.242999999999995 -34.642000000001076 10.114000000000068 -2e-016 0 -1 0 -1.27 0 1 I I #
edge $-1 $367 16.885999999999985 $465 21.885999999999939 $414 $466 forward 7 unknown #
point $-1 -85.513000000000005 -34.642000000001076 10.114000000000068 #
vertex $-1 $413 $467 #
straight-curve $-1 -85.513000000000005 -60.422999999999888 27.00000000000006 0 -2e-016 -1 I I #
coedge $-1 $374 $371 $468 $469 reversed $261 $-1 #
coedge $-1 $470 $471 $371 $423 forward $436 $-1 #
edge $-1 $472 17.135999999999981 $425 21.885999999999946 $422 $473 forward 7 unknown #
coedge $-1 $372 $454 $470 $474 forward $345 $-1 #
vertex $-1 $474 $475 #
straight-curve $-1 8.6222530981406749 -61.692999999999813 5.1140000000001127 1 0 0 I I #
coedge $-1 $476 $477 $374 $428 reversed $478 $-1 #
edge $-1 $479 17.135999999999981 $431 21.885999999999946 $427 $480 forward 7 unknown #
coedge $-1 $481 $375 $477 $482 forward $430 $-1 #
loop $-1 $-1 $483 $406 #
vertex $-1 $482 $484 #
point $-1 -84.242999999999995 -61.69299999999982 5.1140000000001145 #
ref_vt-eye-attrib $-1 $-1 $379 $320 $13 $-1 #
model_id-kcp-attrib $-1 $485 $-1 $380 1 990663933 60 -415498239 15 #
face $486 $487 $488 $8 $-1 $489 reversed single #
loop $-1 $-1 $470 $380 #
cone-surface $-1 -51.222999999999985 -60.422999999999888 2.4940000000000389 2e-016 0 1 0 -1.27 0 1 I I 0 1 1.27 forward I I I I #
coedge $-1 $490 $385 $491 $492 reversed $387 $-1 #
edge $-1 $388 16.885999999999985 $493 21.885999999999939 $415 $494 forward 7 unknown #
coedge $-1 $386 $495 $455 $496 reversed $387 $-1 #
face $497 $213 $387 $8 $-1 $498 reversed single #
point $-1 -84.242999999999995 -33.372000000000014 10.114000000000068 #
coedge $-1 $455 $393 $390 $444 forward $345 $-1 #
edge $-1 $395 1.146406618201671 $445 3.1415926535897931 $443 $499 forward 7 unknown #
vertex $-1 $444 $500 #
straight-curve $-1 -42.901426619620139 -33.372000000000014 27.000000000000053 0 -2e-016 -1 I I #
ellipse-curve $-1 -36.999000000000017 -37.30900000000031 5.1140000000001127 0 0 -1 0 5.2070000000007797 0 1 I I #
point $-1 -41.744088066753477 -35.164941176471707 5.1140000000001145 #
ref_vt-eye-attrib $-1 $-1 $400 $343 $13 $-1 #
model_id-kcp-attrib $-1 $501 $-1 $401 1 990663933 60 -415498239 22 #
face $502 $441 $503 $8 $-1 $504 reversed single #
loop $-1 $-1 $505 $401 #
plane-surface $-1 152.79000000000011 165.78999960039638 9.8640000000000398 2e-016 0 1 1 0 -2e-016 forward_v I I I I #
coedge $-1 $424 $403 $506 $507 forward $345 $-1 #
coedge $-1 $403 $443 $440 $496 forward $345 $-1 #
coedge $-1 $508 $509 $403 $457 reversed $510 $-1 #
edge $-1 $511 -3.1415926535897931 $512 -1.570796326794891 $403 $513 forward 7 unknown #
ref_vt-eye-attrib $-1 $514 $405 $351 $13 $-1 #
model_id-kcp-attrib $-1 $515 $-1 $406 1 990663933 60 -415498239 28 #
ref_vt-eye-attrib $-1 $-1 $408 $356 $13 $-1 #
coedge $-1 $415 $414 $483 $516 reversed $409 $-1 #
coedge $-1 $412 $483 $411 $463 forward $430 $-1 #
edge $-1 $465 164.74439244804253 $419 190.52539244804134 $462 $517 forward 7 unknown #
ellipse-curve $-1 -84.242999999999995 -60.422999999999888 5.1140000000001287 0 0 1 0 -1.27 0 1 I I #
vertex $-1 $516 $518 #
straight-curve $-1 -85.513000000000005 -34.642000000001076 27.000000000000053 0 -2e-016 -1 I I #
point $-1 -85.513000000000005 -60.422999999999895 5.1140000000001145 #
coedge $-1 $519 $520 $421 $469 forward $452 $-1 #
edge $-1 $479 -75.286999999999964 $472 -71.222999999999985 $468 $521 forward 7 unknown #
coedge $-1 $522 $422 $424 $474 reversed $436 $-1 #
coedge $-1 $422 $522 $519 $523 forward $436 $-1 #
vertex $-1 $423 $524 #
straight-curve $-1 -51.222999999999985 -61.692999999999813 27.00000000000006 0 -2e-016 -1 I I #
edge $-1 $525 -1.570796326794891 $425 0 $424 $526 forward 7 unknown #
point $-1 -51.222999999999985 -61.69299999999982 5.1140000000001145 #
coedge $-1 $527 $427 $520 $528 forward $478 $-1 #
coedge $-1 $427 $527 $429 $482 reversed $478 $-1 #
loop $-1 $-1 $477 $529 #
vertex $-1 $528 $530 #
straight-curve $-1 -55.286999999999964 -61.692999999999813 27.00000000000006 0 -2e-016 -1 I I #
coedge $-1 $531 $429 $532 $533 forward $430 $-1 #
edge $-1 $431 0 $534 1.570796326794891 $429 $535 forward 7 unknown #
coedge $-1 $462 $491 $461 $516 forward $430 $-1 #
point $-1 -55.286999999999964 -61.69299999999982 5.1140000000001145 #
ref_vt-eye-attrib $-1 $-1 $434 $380 $13 $-1 #
model_id-kcp-attrib $-1 $536 $-1 $435 1 990663933 60 -415498239 16 #
face $537 $529 $510 $8 $-1 $538 reversed single #
loop $-1 $-1 $506 $435 #
plane-surface $-1 -52.493000000000023 262 10.114000000000061 -1 0 2e-016 2e-016 0 1 forward_v I I I I #
coedge $-1 $539 $438 $540 $541 reversed $387 $-1 #
coedge $-1 $483 $531 $438 $492 forward $430 $-1 #
edge $-1 $542 63.909253098140638 $493 92.86525309814067 $491 $543 forward 7 unknown #
vertex $-1 $516 $544 #
straight-curve $-1 -84.242999999999995 -33.372000000000014 27.000000000000053 0 -2e-016 -1 I I #
coedge $-1 $440 $539 $508 $545 forward $387 $-1 #
edge $-1 $445 51.523679717760814 $511 59.84525309814066 $455 $543 forward 7 unknown #
model_id-kcp-attrib $-1 $546 $-1 $441 1 990663933 60 -415498239 24 #
plane-surface $-1 20 -33.372000000000014 10.114000000000019 0 1 0 0 0 1 forward_v I I I I #
ellipse-curve $-1 -42.901426619620139 -34.642000000001076 5.1140000000001216 0 0 1 0 -1.27 0 1 I I #
point $-1 -42.901426619620139 -33.372000000000014 5.1140000000001145 #
ref_vt-eye-attrib $-1 $-1 $450 $401 $13 $-1 #
model_id-kcp-attrib $-1 $547 $-1 $451 1 990663933 60 -415498239 23 #
loop $-1 $-1 $532 $451 #
plane-surface $-1 -54.017000000000024 262 10.114000000000061 1 0 -2e-016 -2e-016 0 -1 forward_v I I I I #
coedge $-1 $548 $519 $549 $550 reversed $452 $-1 #
coedge $-1 $551 $552 $454 $507 reversed $488 $-1 #
edge $-1 $512 164.74439244804253 $525 190.52539244804134 $454 $553 forward 7 unknown #
coedge $-1 $554 $456 $495 $545 reversed $510 $-1 #
coedge $-1 $456 $554 $551 $555 forward $510 $-1 #
loop $-1 $-1 $456 $487 #
vertex $-1 $457 $556 #
vertex $-1 $457 $557 #
ellipse-curve $-1 -51.222999999999985 -34.642000000001076 5.1140000000001216 0 0 1 0 -1.27 0 1 I I #
face-st-attrib $-1 $-1 $458 $351 558 1 31 nc.free_edge_condition_distance #
ref_vt-eye-attrib $-1 $559 $459 $406 $13 $-1 #
edge $-1 $493 -3.1415926535897931 $465 -1.570796326794891 $483 $560 forward 7 unknown #
straight-curve $-1 -85.513000000000005 130.10239244804146 5.1140000000001127 0 -1 0 I I #
point $-1 -85.513000000000005 -34.642000000001083 5.1140000000001145 #
coedge $-1 $505 $468 $471 $523 reversed $452 $-1 #
coedge $-1 $468 $561 $476 $528 reversed $452 $-1 #
straight-curve $-1 20 -61.692999999999813 9.8640000000000612 1 0 -2e-016 I I #
coedge $-1 $471 $470 $552 $562 reversed $436 $-1 #
edge $-1 $563 1.5707963267948966 $472 3.1415926535897931 $471 $564 forward 7 unknown #
point $-1 -51.222999999999985 -61.692999999999813 9.8640000000000789 #
vertex $-1 $474 $565 #
ellipse-curve $-1 -51.222999999999985 -60.422999999999888 5.1140000000001216 0 0 1 0 -1.27 0 1 I I #
coedge $-1 $477 $476 $566 $567 forward $478 $-1 #
edge $-1 $479 -3.1415926535897931 $568 -1.5707963267948966 $476 $569 forward 7 unknown #
face $570 $571 $478 $8 $-1 $572 reversed single #
point $-1 -55.286999999999964 -61.692999999999813 9.8640000000000789 #
coedge $-1 $491 $481 $573 $574 forward $430 $-1 #
coedge $-1 $566 $575 $481 $533 reversed $503 $-1 #
edge $-1 $534 -190.52539244804134 $576 -164.74439244804253 $481 $577 forward 7 unknown #
vertex $-1 $482 $578 #
ellipse-curve $-1 -55.286999999999964 -60.422999999999888 5.1140000000001233 0 0 1 0 -1.27 0 1 I I #
ref_vt-eye-attrib $-1 $-1 $486 $435 $13 $-1 #
model_id-kcp-attrib $-1 $579 $-1 $487 1 990663933 60 -415498239 17 #
cone-surface $-1 -51.222999999999985 -34.642000000001076 2.4940000000000389 2e-016 0 1 0 -1.27 0 1 I I 0 1 1.27 forward I I I I #
coedge $-1 $495 $490 $580 $581 reversed $387 $-1 #
coedge $-1 $573 $582 $490 $541 forward $583 $-1 #
edge $-1 $584 17.135999999999985 $542 21.885999999999939 $540 $585 forward 7 unknown #
vertex $-1 $574 $586 #
straight-curve $-1 8.6222530981406749 -33.372000000000014 5.1140000000001127 -1 0 0 I I #
point $-1 -84.242999999999995 -33.372000000000014 5.1140000000001145 #
edge $-1 $587 17.135999999999985 $511 21.885999999999939 $508 $588 forward 7 unknown #
ref_vt-eye-attrib $-1 $-1 $497 $441 $13 $-1 #
ref_vt-eye-attrib $-1 $-1 $502 $451 $13 $-1 #
coedge $-1 $580 $505 $554 $589 reversed $452 $-1 #
coedge $-1 $552 $551 $505 $550 forward $488 $-1 #
edge $-1 $590 296.64200000000108 $563 322.42299999999989 $505 $591 forward 7 unknown #
coedge $-1 $549 $506 $509 $555 reversed $488 $-1 #
coedge $-1 $506 $549 $522 $562 forward $488 $-1 #
straight-curve $-1 -52.493000000000023 130.10239244804146 5.1140000000001127 0 -1 0 I I #
coedge $-1 $509 $508 $548 $589 forward $510 $-1 #
edge $-1 $590 17.135999999999985 $512 21.885999999999939 $509 $592 forward 7 unknown #
point $-1 -51.222999999999985 -33.372000000000014 5.1140000000001145 #
point $-1 -52.493000000000023 -34.642000000001083 5.1140000000001145 #
