600 0 2 0           
24 FBMach with ACIS - 6.0.3 13 ACIS 6.0.3 NT 24 Wed May 23 21:06:14 2001 
1 9.9999999999999995e-007 1e-010 
body $2 $3 $-1 $4 #
bdycol-kcp $-1 1 11 $5 $6 $7 $8 $9 $10 $11 $12 $13 $14 $15 #
model_id-kcp-attrib $-1 $-1 $-1 $0 1 990666373 70 726007809 1 #
lump $-1 $-1 $16 $0 #
transform $-1 1 0 0 0 1 0 0 0 1 0 0 0 1 no_rotate no_reflect no_shear #
body $17 $18 $-1 $19 #
body $20 $21 $-1 $22 #
body $23 $24 $-1 $25 #
body $26 $27 $-1 $28 #
body $29 $30 $-1 $31 #
body $32 $33 $-1 $34 #
body $35 $36 $-1 $37 #
body $38 $39 $-1 $40 #
body $41 $42 $-1 $43 #
body $44 $45 $-1 $46 #
body $47 $48 $-1 $49 #
shell $-1 $-1 $-1 $50 $-1 $3 #
model_id-kcp-attrib $-1 $-1 $-1 $5 1 990666373 80 726663170 1 #
lump $-1 $-1 $51 $5 #
transform $-1 1 0 0 0 1 0 0 0 1 1.7763568394002505e-014 -7.1054273576010019e-015 0 1 no_rotate no_reflect no_shear #
rgb_color-st-attrib $-1 $52 $-1 $6 0.5 1 1 #
lump $-1 $-1 $53 $6 #
transform $-1 1 0 0 0 1 0 0 0 1 0 -15 0 1 no_rotate no_reflect no_shear #
rgb_color-st-attrib $-1 $54 $-1 $7 0.5 1 1 #
lump $-1 $-1 $55 $7 #
transform $-1 1 0 0 0 1 0 0 0 1 15 0 0 1 no_rotate no_reflect no_shear #
rgb_color-st-attrib $-1 $56 $-1 $8 0.5 1 1 #
lump $-1 $-1 $57 $8 #
transform $-1 1 0 0 0 1 0 0 0 1 0 0 0 1 no_rotate no_reflect no_shear #
rgb_color-st-attrib $-1 $58 $-1 $9 0.5 1 1 #
lump $-1 $-1 $59 $9 #
transform $-1 1 0 0 0 1 0 0 0 1 15 15 0 1 no_rotate no_reflect no_shear #
rgb_color-st-attrib $-1 $60 $-1 $10 0.5 1 1 #
lump $-1 $-1 $61 $10 #
transform $-1 1 0 0 0 1 0 0 0 1 -15 -15 0 1 no_rotate no_reflect no_shear #
rgb_color-st-attrib $-1 $62 $-1 $11 0.5 1 1 #
lump $-1 $-1 $63 $11 #
transform $-1 1 0 0 0 1 0 0 0 1 -15 15 0 1 no_rotate no_reflect no_shear #
rgb_color-st-attrib $-1 $64 $-1 $12 0.5 1 1 #
lump $-1 $-1 $65 $12 #
transform $-1 1 0 0 0 1 0 0 0 1 15 -15 0 1 no_rotate no_reflect no_shear #
rgb_color-st-attrib $-1 $66 $-1 $13 0.5 1 1 #
lump $-1 $-1 $67 $13 #
transform $-1 1 0 0 0 1 0 0 0 1 1.7763568394002505e-014 -7.1054273576010019e-015 0 1 no_rotate no_reflect no_shear #
rgb_color-st-attrib $-1 $68 $-1 $14 1 0.5 1 #
lump $-1 $-1 $69 $14 #
transform $-1 1 0 0 0 1 0 0 0 1 1.7763568394002505e-014 -7.1054273576010019e-015 0 1 no_rotate no_reflect no_shear #
rgb_color-st-attrib $-1 $70 $-1 $15 1 0.5 1 #
lump $-1 $-1 $71 $15 #
transform $-1 1 0 0 0 1 0 0 0 1 1.7763568394002505e-014 -7.1054273576010019e-015 0 1 no_rotate no_reflect no_shear #
face $72 $73 $74 $16 $-1 $75 reversed single #
shell $-1 $-1 $-1 $76 $-1 $18 #
model_id-kcp-attrib $-1 $-1 $20 $6 1 990666373 190 733872131 1 #
shell $-1 $-1 $-1 $77 $-1 $21 #
model_id-kcp-attrib $-1 $-1 $23 $7 1 990666373 190 733872132 1 #
shell $-1 $-1 $-1 $78 $-1 $24 #
model_id-kcp-attrib $-1 $-1 $26 $8 1 990666373 190 733872133 1 #
shell $-1 $-1 $-1 $79 $-1 $27 #
model_id-kcp-attrib $-1 $-1 $29 $9 1 990666373 200 734527494 1 #
shell $-1 $-1 $-1 $80 $-1 $30 #
model_id-kcp-attrib $-1 $-1 $32 $10 1 990666373 200 734527495 1 #
shell $-1 $-1 $-1 $81 $-1 $33 #
model_id-kcp-attrib $-1 $-1 $35 $11 1 990666373 200 734527496 1 #
shell $-1 $-1 $-1 $82 $-1 $36 #
model_id-kcp-attrib $-1 $-1 $38 $12 1 990666373 200 734527497 1 #
shell $-1 $-1 $-1 $83 $-1 $39 #
model_id-kcp-attrib $-1 $-1 $41 $13 1 990666373 430 732823562 1 #
shell $-1 $-1 $-1 $84 $-1 $42 #
model_id-kcp-attrib $-1 $-1 $44 $14 1 990666373 590 726532107 1 #
shell $-1 $-1 $-1 $85 $-1 $45 #
model_id-kcp-attrib $-1 $-1 $47 $15 1 990666373 660 731119628 1 #
shell $-1 $-1 $-1 $86 $-1 $48 #
model_id-kcp-attrib $-1 $87 $-1 $50 1 990666373 70 726007809 2 #
face $88 $89 $90 $16 $-1 $91 reversed single #
loop $92 $93 $94 $50 #
cone-surface $95 0 -15 0 0 0 1 5 0 0 1 I I 0 1 5 forward I I I I #
face $96 $97 $98 $51 $-1 $99 forward single #
face $-1 $100 $101 $53 $-1 $102 forward single #
face $-1 $103 $104 $55 $-1 $105 forward single #
face $-1 $106 $107 $57 $-1 $108 forward single #
face $-1 $109 $110 $59 $-1 $111 forward single #
face $-1 $112 $113 $61 $-1 $114 forward single #
face $-1 $115 $116 $63 $-1 $117 forward single #
face $-1 $118 $119 $65 $-1 $120 forward single #
face $-1 $121 $122 $67 $-1 $123 reversed single #
face $-1 $124 $125 $69 $-1 $126 forward single #
face $-1 $127 $128 $71 $-1 $129 forward single #
face_name-twe-attrib $-1 $-1 $72 $50 1 #
model_id-kcp-attrib $-1 $130 $-1 $73 1 990666373 70 726007809 3 #
face $131 $132 $133 $16 $-1 $134 reversed single #
loop $135 $136 $137 $73 #
cone-surface $138 15 0 0 0 0 1 5 0 0 1 I I 0 1 5 forward I I I I #
model_id-kcp-attrib $-1 $139 $-1 $74 1 990666373 70 726007809 26 #
loop $140 $-1 $141 $50 #
coedge $-1 $94 $94 $142 $143 reversed $74 $-1 #
surf-twe-attrib $-1 $-1 $-1 $75 4 #
model_id-kcp-attrib $-1 $-1 $-1 $76 1 990666373 80 726663170 2 #
face $144 $145 $146 $51 $-1 $147 reversed single #
loop $-1 $-1 $148 $76 #
plane-surface $-1 0 0 10 0 0 1 1 0 0 forward_v I I I I #
face $-1 $149 $150 $53 $-1 $151 forward single #
loop $-1 $152 $153 $77 #
cone-surface $-1 0 0 0 0 0 1 5 0 0 1 I I 0 1 5 forward I I I I #
face $-1 $154 $155 $55 $-1 $156 forward single #
loop $-1 $157 $158 $78 #
cone-surface $-1 0 0 0 0 0 1 5 0 0 1 I I 0 1 5 forward I I I I #
face $-1 $159 $160 $57 $-1 $161 forward single #
loop $-1 $162 $163 $79 #
cone-surface $-1 0 0 0 0 0 1 5 0 0 1 I I 0 1 5 forward I I I I #
face $-1 $164 $165 $59 $-1 $166 forward single #
loop $-1 $167 $168 $80 #
cone-surface $-1 0 0 0 0 0 1 6 0 0 1 I I 0 1 6 forward I I I I #
face $-1 $169 $170 $61 $-1 $171 forward single #
loop $-1 $172 $173 $81 #
cone-surface $-1 0 0 0 0 0 1 6 0 0 1 I I 0 1 6 forward I I I I #
face $-1 $174 $175 $63 $-1 $176 forward single #
loop $-1 $177 $178 $82 #
cone-surface $-1 0 0 0 0 0 1 5.0049999999999999 0 0 1 I I 0 1 5.0049999999999999 forward I I I I #
face $-1 $179 $180 $65 $-1 $181 forward single #
loop $-1 $182 $183 $83 #
cone-surface $-1 0 0 0 0 0 1 5.0049999999999999 0 0 1 I I 0 1 5.0049999999999999 forward I I I I #
face $-1 $184 $185 $67 $-1 $186 forward single #
loop $-1 $-1 $187 $84 #
plane-surface $-1 30.000000000000014 -14.999593128807124 10 0.70710678118654924 -0.7071067811865458 0 0 0 -1 forward_v I I I I #
face $-1 $188 $189 $69 $-1 $190 reversed single #
loop $-1 $-1 $191 $85 #
plane-surface $-1 30.000000000000014 -14.999593128807124 10 0.70710678118654924 -0.7071067811865458 0 0 0 -1 forward_v I I I I #
face $-1 $192 $193 $71 $-1 $194 forward single #
loop $-1 $-1 $195 $86 #
plane-surface $-1 30.000000000000014 -14.999593128807124 10 0.70710678118654924 -0.7071067811865458 0 0 0 -1 forward_v I I I I #
face_name-twe-attrib $-1 $-1 $88 $73 2 #
model_id-kcp-attrib $-1 $196 $-1 $89 1 990666373 70 726007809 4 #
face $197 $198 $199 $16 $-1 $200 reversed single #
loop $201 $202 $203 $89 #
cone-surface $204 0 0 0 0 0 1 5 0 0 1 I I 0 1 5 forward I I I I #
model_id-kcp-attrib $-1 $205 $-1 $90 1 990666373 70 726007809 33 #
loop $206 $-1 $207 $73 #
coedge $-1 $137 $137 $208 $209 reversed $90 $-1 #
surf-twe-attrib $-1 $-1 $-1 $91 6 #
loop_type-twe-attrib $-1 $-1 $92 $74 0 #
model_id-kcp-attrib $-1 $210 $-1 $93 1 990666373 70 726007809 27 #
coedge $-1 $141 $141 $211 $212 reversed $93 $-1 #
coedge $-1 $142 $142 $94 $143 forward $213 $-1 #
edge $214 $215 -3.1415926535897931 $215 3.1415926535897931 $142 $216 forward 7 unknown #
model_id-kcp-attrib $-1 $-1 $-1 $97 1 990666373 80 726663170 5 #
face $217 $218 $219 $51 $-1 $220 reversed single #
loop $-1 $-1 $221 $97 #
plane-surface $-1 0 0 -10 0 0 1 1 0 0 forward_v I I I I #
coedge $-1 $222 $223 $224 $225 forward $98 $-1 #
face $-1 $-1 $226 $53 $-1 $227 forward single #
loop $-1 $-1 $228 $100 #
plane-surface $-1 0 0 -10 0 0 -1 -1 0 0 forward_v I I I I #
loop $-1 $-1 $229 $77 #
coedge $-1 $153 $153 $228 $230 reversed $101 $-1 #
face $-1 $-1 $231 $55 $-1 $232 forward single #
loop $-1 $-1 $233 $103 #
plane-surface $-1 0 0 -10 0 0 -1 -1 0 0 forward_v I I I I #
loop $-1 $-1 $234 $78 #
coedge $-1 $158 $158 $233 $235 reversed $104 $-1 #
face $-1 $-1 $236 $57 $-1 $237 forward single #
loop $-1 $-1 $238 $106 #
plane-surface $-1 0 0 -10 0 0 -1 -1 0 0 forward_v I I I I #
loop $-1 $-1 $239 $79 #
coedge $-1 $163 $163 $238 $240 reversed $107 $-1 #
face $-1 $-1 $241 $59 $-1 $242 forward single #
loop $-1 $-1 $243 $109 #
plane-surface $-1 0 0 -10 0 0 -1 -1 0 0 forward_v I I I I #
loop $-1 $-1 $244 $80 #
coedge $-1 $168 $168 $243 $245 reversed $110 $-1 #
face $-1 $-1 $246 $61 $-1 $247 forward single #
loop $-1 $-1 $248 $112 #
plane-surface $-1 0 0 -10 0 0 -1 -1 0 0 forward_v I I I I #
loop $-1 $-1 $249 $81 #
coedge $-1 $173 $173 $248 $250 reversed $113 $-1 #
face $-1 $-1 $251 $63 $-1 $252 forward single #
loop $-1 $-1 $253 $115 #
plane-surface $-1 0 0 -10 0 0 -1 -1 0 0 forward_v I I I I #
loop $-1 $-1 $254 $82 #
coedge $-1 $178 $178 $253 $255 reversed $116 $-1 #
face $-1 $-1 $256 $65 $-1 $257 forward single #
loop $-1 $-1 $258 $118 #
plane-surface $-1 0 0 -10 0 0 -1 -1 0 0 forward_v I I I I #
loop $-1 $-1 $259 $83 #
coedge $-1 $183 $183 $258 $260 reversed $119 $-1 #
face $-1 $261 $262 $67 $-1 $263 reversed single #
loop $-1 $-1 $264 $121 #
plane-surface $-1 0 0 10 0 0 1 1 0 0 forward_v I I I I #
coedge $-1 $265 $266 $264 $267 reversed $122 $-1 #
face $-1 $268 $269 $69 $-1 $270 forward single #
loop $-1 $-1 $271 $124 #
plane-surface $-1 -5.0002034355964131 -29.999999999999993 7.5000000000000009 -2.4113633248479781e-032 1 2.7618609391775787e-047 0 -2.7618609391775787e-047 1 forward_v I I I I #
coedge $-1 $272 $273 $274 $275 forward $125 $-1 #
face $-1 $276 $277 $71 $-1 $278 forward single #
loop $-1 $-1 $279 $127 #
plane-surface $-1 30.000000000000071 5.0002034355964691 7.5 1 3.4838087775449721e-015 2.1210230918212271e-016 2.1210230918212271e-016 0 -1 forward_v I I I I #
coedge $-1 $280 $281 $282 $283 forward $128 $-1 #
face_name-twe-attrib $-1 $-1 $131 $89 3 #
model_id-kcp-attrib $-1 $284 $-1 $132 1 990666373 70 726007809 5 #
face $285 $286 $287 $16 $-1 $288 reversed single #
loop $289 $290 $291 $132 #
cone-surface $292 15 15 0 0 0 1 6 0 0 1 I I 0 1 6 forward I I I I #
model_id-kcp-attrib $-1 $293 $-1 $133 1 990666373 70 726007809 40 #
loop $294 $-1 $295 $89 #
coedge $-1 $203 $203 $296 $297 reversed $133 $-1 #
surf-twe-attrib $-1 $-1 $-1 $134 10 #
loop_type-twe-attrib $-1 $-1 $135 $90 0 #
model_id-kcp-attrib $-1 $298 $-1 $136 1 990666373 70 726007809 34 #
coedge $-1 $207 $207 $299 $300 reversed $136 $-1 #
coedge $-1 $208 $208 $137 $209 forward $301 $-1 #
edge $302 $303 -3.1415926535897998 $303 3.1415926535897865 $208 $304 forward 7 unknown #
loop_type-twe-attrib $-1 $-1 $140 $93 1 #
coedge $-1 $211 $211 $141 $212 forward $305 $-1 #
edge $306 $307 -3.1415926535897931 $307 3.1415926535897931 $211 $308 forward 7 unknown #
loop $309 $301 $142 $310 #
attrib_edge_convexity-kcp-attrib $-1 $311 $-1 $143 1 #
vertex $312 $143 $313 #
ellipse-curve $314 0 -15 10 0 0 -1 5 0 0 1 I I #
model_id-kcp-attrib $-1 $-1 $-1 $145 1 990666373 80 726663170 6 #
face $315 $316 $317 $51 $-1 $318 reversed single #
loop $-1 $-1 $319 $145 #
plane-surface $-1 0 -30.000000000000007 0 0 1 0 0 0 1 forward_v I I I I #
coedge $-1 $320 $321 $322 $323 forward $146 $-1 #
coedge $-1 $324 $148 $325 $326 forward $98 $-1 #
coedge $-1 $148 $324 $327 $328 forward $98 $-1 #
coedge $-1 $329 $330 $148 $225 reversed $331 $-1 #
edge $-1 $332 -30.000000000000007 $333 30.000000000000007 $224 $334 forward 7 unknown #
loop $-1 $-1 $335 $149 #
plane-surface $-1 0 0 10 0 0 1 1 0 0 forward_v I I I I #
coedge $-1 $228 $228 $153 $230 forward $150 $-1 #
coedge $-1 $229 $229 $335 $336 reversed $152 $-1 #
edge $-1 $337 0 $337 6.2831853071795862 $228 $338 forward 7 unknown #
loop $-1 $-1 $339 $154 #
plane-surface $-1 0 0 10 0 0 1 1 0 0 forward_v I I I I #
coedge $-1 $233 $233 $158 $235 forward $155 $-1 #
coedge $-1 $234 $234 $339 $340 reversed $157 $-1 #
edge $-1 $341 0 $341 6.2831853071795862 $233 $342 forward 7 unknown #
loop $-1 $-1 $343 $159 #
plane-surface $-1 0 0 10 0 0 1 1 0 0 forward_v I I I I #
coedge $-1 $238 $238 $163 $240 forward $160 $-1 #
coedge $-1 $239 $239 $343 $344 reversed $162 $-1 #
edge $-1 $345 0 $345 6.2831853071795862 $238 $346 forward 7 unknown #
loop $-1 $-1 $347 $164 #
plane-surface $-1 0 0 10 0 0 1 1 0 0 forward_v I I I I #
coedge $-1 $243 $243 $168 $245 forward $165 $-1 #
coedge $-1 $244 $244 $347 $348 reversed $167 $-1 #
edge $-1 $349 0 $349 6.2831853071795862 $243 $350 forward 7 unknown #
loop $-1 $-1 $351 $169 #
plane-surface $-1 0 0 10 0 0 1 1 0 0 forward_v I I I I #
coedge $-1 $248 $248 $173 $250 forward $170 $-1 #
coedge $-1 $249 $249 $351 $352 reversed $172 $-1 #
edge $-1 $353 0 $353 6.2831853071795862 $248 $354 forward 7 unknown #
loop $-1 $-1 $355 $174 #
plane-surface $-1 0 0 10 0 0 1 1 0 0 forward_v I I I I #
coedge $-1 $253 $253 $178 $255 forward $175 $-1 #
coedge $-1 $254 $254 $355 $356 reversed $177 $-1 #
edge $-1 $357 0 $357 6.2831853071795862 $253 $358 forward 7 unknown #
loop $-1 $-1 $359 $179 #
plane-surface $-1 0 0 10 0 0 1 1 0 0 forward_v I I I I #
coedge $-1 $258 $258 $183 $260 forward $180 $-1 #
coedge $-1 $259 $259 $359 $360 reversed $182 $-1 #
edge $-1 $361 0 $361 6.2831853071795862 $258 $362 forward 7 unknown #
face $-1 $363 $364 $67 $-1 $365 reversed single #
loop $-1 $-1 $366 $184 #
plane-surface $-1 0 -30.000000000000007 0 0 1 0 0 0 1 forward_v I I I I #
coedge $-1 $367 $368 $187 $267 forward $185 $-1 #
coedge $-1 $369 $187 $370 $371 reversed $122 $-1 #
coedge $-1 $187 $369 $366 $372 reversed $122 $-1 #
edge $-1 $373 -5.3034447095888506 $374 15.910334128766644 $264 $375 forward 7 unknown #
face $-1 $376 $377 $69 $-1 $378 forward single #
loop $-1 $-1 $379 $188 #
plane-surface $-1 -30.000000000000018 -24.999999999999986 10 0 0 1 1 0 0 forward_v I I I I #
coedge $-1 $380 $381 $273 $382 reversed $189 $-1 #
coedge $-1 $383 $191 $384 $385 reversed $125 $-1 #
coedge $-1 $191 $383 $271 $382 forward $125 $-1 #
coedge $-1 $386 $387 $191 $275 reversed $388 $-1 #
edge $-1 $389 -14.142423325110482 $390 -7.071355513245007 $274 $391 forward 7 unknown #
face $-1 $392 $393 $71 $-1 $394 forward single #
loop $-1 $-1 $282 $192 #
plane-surface $-1 24.999999999999883 30.000000000000007 5 0 0 -1 -1 0 0 forward_v I I I I #
coedge $-1 $395 $396 $280 $397 reversed $193 $-1 #
coedge $-1 $398 $195 $279 $397 forward $128 $-1 #
coedge $-1 $195 $398 $399 $400 reversed $128 $-1 #
coedge $-1 $401 $402 $195 $283 reversed $277 $-1 #
edge $-1 $403 -21.213059584906578 $404 -14.141991773041171 $282 $405 forward 7 unknown #
face_name-twe-attrib $-1 $-1 $197 $132 4 #
model_id-kcp-attrib $-1 $406 $-1 $198 1 990666373 70 726007809 6 #
face $407 $408 $409 $16 $-1 $410 reversed single #
loop $411 $412 $413 $198 #
cone-surface $414 -15 -15 0 0 0 1 6 0 0 1 I I 0 1 6 forward I I I I #
model_id-kcp-attrib $-1 $415 $-1 $199 1 990666373 70 726007809 47 #
loop $416 $-1 $417 $132 #
coedge $-1 $291 $291 $418 $419 reversed $199 $-1 #
surf-twe-attrib $-1 $-1 $-1 $200 18 #
loop_type-twe-attrib $-1 $-1 $201 $133 0 #
model_id-kcp-attrib $-1 $420 $-1 $202 1 990666373 70 726007809 41 #
coedge $-1 $295 $295 $421 $422 reversed $202 $-1 #
coedge $-1 $296 $296 $203 $297 forward $423 $-1 #
edge $424 $425 -3.1415926535897998 $425 3.1415926535897865 $296 $426 forward 7 unknown #
loop_type-twe-attrib $-1 $-1 $206 $136 1 #
coedge $-1 $299 $299 $207 $300 forward $427 $-1 #
edge $428 $429 -3.1415926535897998 $429 3.1415926535897865 $299 $430 forward 7 unknown #
loop $431 $423 $208 $310 #
attrib_edge_convexity-kcp-attrib $-1 $432 $-1 $209 1 #
vertex $433 $209 $434 #
ellipse-curve $435 15 0 10 0 0 -1 5 0 0 1 I I #
loop $436 $427 $211 $437 #
attrib_edge_convexity-kcp-attrib $-1 $438 $-1 $212 1 #
vertex $439 $212 $440 #
ellipse-curve $441 0 -15 -10 0 0 1 5 0 0 1 I I #
model_id-kcp-attrib $-1 $442 $-1 $213 1 990666373 70 726007809 28 #
face $443 $444 $213 $16 $-1 $445 forward single #
convexity-sys-attrib $-1 $446 $214 $143 #
model_id-kcp-attrib $-1 $-1 $-1 $215 1 990666373 70 726007809 30 #
point $-1 -5 -15 10 #
cur-twe-attrib $-1 $-1 $-1 $216 28 #
model_id-kcp-attrib $-1 $-1 $-1 $218 1 990666373 80 726663170 7 #
face $447 $448 $449 $51 $-1 $450 reversed single #
loop $-1 $-1 $451 $218 #
plane-surface $-1 -30.000000000000018 0 0 1 0 0 0 0 -1 forward_v I I I I #
coedge $-1 $452 $327 $453 $454 forward $219 $-1 #
coedge $-1 $455 $221 $452 $456 forward $146 $-1 #
coedge $-1 $221 $455 $457 $458 forward $146 $-1 #
coedge $-1 $330 $329 $221 $323 reversed $331 $-1 #
edge $-1 $459 -30.000000000000007 $460 30.000000000000007 $322 $461 forward 7 unknown #
coedge $-1 $223 $222 $462 $463 forward $98 $-1 #
coedge $-1 $464 $465 $222 $326 reversed $449 $-1 #
edge $-1 $333 -30.000000000000018 $466 30.000000000000018 $325 $467 forward 7 unknown #
coedge $-1 $319 $468 $223 $328 reversed $219 $-1 #
edge $-1 $469 -30.000000000000018 $332 30.000000000000018 $327 $470 forward 7 unknown #
coedge $-1 $322 $224 $468 $471 forward $331 $-1 #
coedge $-1 $224 $322 $464 $472 reversed $331 $-1 #
loop $-1 $-1 $329 $448 #
vertex $-1 $225 $473 #
vertex $-1 $225 $474 #
straight-curve $-1 30.000000000000018 0 10 0 1 0 I I #
coedge $-1 $335 $335 $229 $336 forward $226 $-1 #
edge $-1 $475 0 $475 6.2831853071795862 $335 $476 forward 7 unknown #
vertex $-1 $230 $477 #
ellipse-curve $-1 0 0 -10 0 0 -1 5 0 0 1 I I #
coedge $-1 $339 $339 $234 $340 forward $231 $-1 #
edge $-1 $478 0 $478 6.2831853071795862 $339 $479 forward 7 unknown #
vertex $-1 $235 $480 #
ellipse-curve $-1 0 0 -10 0 0 -1 5 0 0 1 I I #
coedge $-1 $343 $343 $239 $344 forward $236 $-1 #
edge $-1 $481 0 $481 6.2831853071795862 $343 $482 forward 7 unknown #
vertex $-1 $240 $483 #
ellipse-curve $-1 0 0 -10 0 0 -1 5 0 0 1 I I #
coedge $-1 $347 $347 $244 $348 forward $241 $-1 #
edge $-1 $484 0 $484 6.2831853071795862 $347 $485 forward 7 unknown #
vertex $-1 $245 $486 #
ellipse-curve $-1 0 0 -10 0 0 -1 6 0 0 1 I I #
coedge $-1 $351 $351 $249 $352 forward $246 $-1 #
edge $-1 $487 0 $487 6.2831853071795862 $351 $488 forward 7 unknown #
vertex $-1 $250 $489 #
ellipse-curve $-1 0 0 -10 0 0 -1 6 0 0 1 I I #
coedge $-1 $355 $355 $254 $356 forward $251 $-1 #
edge $-1 $490 0 $490 6.2831853071795862 $355 $491 forward 7 unknown #
vertex $-1 $255 $492 #
ellipse-curve $-1 0 0 -10 0 0 -1 5.0049999999999999 0 0 1 I I #
coedge $-1 $359 $359 $259 $360 forward $256 $-1 #
edge $-1 $493 0 $493 6.2831853071795862 $359 $494 forward 7 unknown #
vertex $-1 $260 $495 #
ellipse-curve $-1 0 0 -10 0 0 -1 5.0049999999999999 0 0 1 I I #
face $-1 $-1 $496 $67 $-1 $497 reversed single #
loop $-1 $-1 $498 $261 #
plane-surface $-1 0 0 -10 0 0 1 1 0 0 forward_v I I I I #
coedge $-1 $499 $500 $266 $372 forward $262 $-1 #
coedge $-1 $368 $264 $500 $501 forward $185 $-1 #
coedge $-1 $264 $367 $502 $503 forward $185 $-1 #
coedge $-1 $266 $265 $498 $504 reversed $122 $-1 #
coedge $-1 $502 $505 $265 $371 forward $496 $-1 #
edge $-1 $506 -15 $373 5 $370 $507 forward 7 unknown #
edge $-1 $374 -5 $508 15 $366 $509 forward 7 unknown #
vertex $-1 $267 $510 #
vertex $-1 $501 $511 #
straight-curve $-1 26.249898282201826 -18.74969484660533 10 -0.7071067811865458 -0.70710678118654924 0 I I #
face $-1 $512 $388 $69 $-1 $513 forward single #
loop $-1 $-1 $514 $268 #
plane-surface $-1 -30.000000000000018 -24.999999999999993 5 -1 0 0 0 0 1 forward_v I I I I #
coedge $-1 $515 $516 $383 $517 reversed $269 $-1 #
coedge $-1 $518 $271 $516 $519 reversed $189 $-1 #
coedge $-1 $271 $518 $386 $520 reversed $189 $-1 #
edge $-1 $521 -1.25 $389 3.75 $271 $522 forward 7 unknown #
coedge $-1 $273 $272 $379 $517 forward $125 $-1 #
coedge $-1 $523 $524 $272 $385 forward $525 $-1 #
edge $526 $527 -1.25 $390 3.75 $384 $528 forward 7 unknown #
coedge $-1 $529 $274 $381 $520 forward $388 $-1 #
coedge $-1 $274 $529 $523 $530 reversed $388 $-1 #
loop $-1 $-1 $274 $376 #
vertex $-1 $520 $531 #
vertex $-1 $530 $532 #
straight-curve $-1 24.999796564403599 -19.999796564403564 5 0.7071067811865458 0.70710678118654924 0 I I #
face $-1 $533 $534 $71 $-1 $535 forward single #
loop $-1 $-1 $536 $276 #
plane-surface $-1 25.00000000000006 -19.999593128807099 10 0 0 1 1 0 0 forward_v I I I I #
coedge $-1 $537 $279 $402 $538 reversed $193 $-1 #
coedge $-1 $279 $537 $539 $540 reversed $193 $-1 #
edge $-1 $404 -3.7499999999999982 $541 1.2500000000000018 $279 $542 forward 7 unknown #
coedge $-1 $281 $280 $536 $543 forward $128 $-1 #
coedge $-1 $544 $545 $281 $400 forward $546 $-1 #
edge $547 $403 -3.75 $548 1.25 $399 $549 forward 7 unknown #
coedge $-1 $550 $282 $545 $551 reversed $277 $-1 #
coedge $-1 $282 $550 $395 $538 forward $277 $-1 #
vertex $-1 $551 $552 #
vertex $-1 $283 $553 #
straight-curve $-1 39.999898282201769 -4.9996948466053208 5 0.7071067811865458 0.70710678118654924 0 I I #
face_name-twe-attrib $-1 $-1 $285 $198 5 #
model_id-kcp-attrib $-1 $554 $-1 $286 1 990666373 70 726007809 7 #
face $555 $556 $557 $16 $-1 $558 reversed single #
loop $559 $560 $561 $286 #
cone-surface $562 -15 15 0 0 0 1 5.0049999999999999 0 0 1 I I 0 1 5.0049999999999999 forward I I I I #
model_id-kcp-attrib $-1 $563 $-1 $287 1 990666373 70 726007809 54 #
loop $564 $-1 $565 $198 #
coedge $-1 $413 $413 $566 $567 reversed $287 $-1 #
surf-twe-attrib $-1 $-1 $-1 $288 30 #
loop_type-twe-attrib $-1 $-1 $289 $199 0 #
model_id-kcp-attrib $-1 $568 $-1 $290 1 990666373 70 726007809 48 #
coedge $-1 $417 $417 $569 $570 reversed $290 $-1 #
coedge $-1 $418 $418 $291 $419 forward $571 $-1 #
edge $572 $573 -3.1415926535897931 $573 3.1415926535897931 $418 $574 forward 7 unknown #
loop_type-twe-attrib $-1 $-1 $294 $202 1 #
coedge $-1 $421 $421 $295 $422 forward $575 $-1 #
edge $576 $577 -3.1415926535897998 $577 3.1415926535897865 $421 $578 forward 7 unknown #
loop $579 $571 $296 $310 #
attrib_edge_convexity-kcp-attrib $-1 $580 $-1 $297 1 #
vertex $581 $297 $582 #
ellipse-curve $583 0 0 10 0 0 -1 5 0 0 1 I I #
loop $584 $575 $299 $437 #
attrib_edge_convexity-kcp-attrib $-1 $585 $-1 $300 1 #
vertex $586 $300 $587 #
ellipse-curve $588 15 0 -10 0 0 1 5 0 0 1 I I #
model_id-kcp-attrib $-1 $589 $-1 $301 1 990666373 70 726007809 35 #
convexity-sys-attrib $-1 $590 $302 $209 #
model_id-kcp-attrib $-1 $-1 $-1 $303 1 990666373 70 726007809 37 #
point $-1 10 -3.4914813494061298e-014 10 #
cur-twe-attrib $-1 $-1 $-1 $304 40 #
model_id-kcp-attrib $-1 $591 $-1 $305 1 990666373 70 726007809 29 #
face $592 $593 $305 $16 $-1 $594 reversed single #
convexity-sys-attrib $-1 $595 $306 $212 #
model_id-kcp-attrib $-1 $-1 $-1 $307 1 990666373 70 726007809 31 #
point $-1 -5 -15 -10 #
cur-twe-attrib $-1 $-1 $-1 $308 42 #
loop_type-twe-attrib $-1 $-1 $309 $213 1 #
model_id-kcp-attrib $-1 $596 $-1 $310 1 990666373 70 726007809 20 #
face $597 $598 $599 $16 $-1 $600 forward single #
plane-surface $601 0 0 10 0 0 1 1 0 0 forward_v I I I I #
edge_name-twe-attrib $-1 $-1 $311 $143 2 8704 #
model_id-kcp-attrib $-1 $-1 $-1 $316 1 990666373 80 726663170 3 #
face $602 $-1 $331 $51 $-1 $603 reversed single #
loop $-1 $-1 $464 $316 #
plane-surface $-1 0 30.000000000000007 0 0 -1 0 0 0 -1 forward_v I I I I #
coedge $-1 $604 $462 $465 $605 forward $317 $-1 #
coedge $-1 $468 $319 $320 $456 reversed $219 $-1 #
coedge $-1 $462 $604 $319 $454 reversed $317 $-1 #
edge $-1 $469 -10 $606 10 $453 $607 forward 7 unknown #
coedge $-1 $321 $320 $604 $608 forward $146 $-1 #
edge $-1 $460 -30.000000000000018 $606 30.000000000000018 $452 $609 forward 7 unknown #
coedge $-1 $465 $464 $321 $458 reversed $449 $-1 #
edge $-1 $610 -30.000000000000018 $459 30.000000000000018 $457 $611 forward 7 unknown #
vertex $-1 $323 $612 #
vertex $-1 $471 $613 #
straight-curve $-1 30.000000000000018 0 -10 0 -1 0 I I #
coedge $-1 $451 $453 $324 $463 reversed $317 $-1 #
edge $-1 $466 -30.000000000000007 $469 30.000000000000007 $462 $614 forward 7 unknown #
coedge $-1 $457 $325 $330 $472 forward $449 $-1 #
coedge $-1 $325 $457 $451 $605 reversed $449 $-1 #
vertex $-1 $326 $615 #
straight-curve $-1 0 30.000000000000007 10 -1 0 0 I I #
coedge $-1 $327 $452 $329 $471 reversed $219 $-1 #
vertex $-1 $463 $616 #
straight-curve $-1 0 -30.000000000000007 10 1 0 0 I I #
edge $-1 $332 -10 $460 10 $329 $617 forward 7 unknown #
edge $-1 $333 -10 $459 10 $330 $618 forward 7 unknown #
point $-1 30.000000000000018 -30.000000000000007 10 #
point $-1 30.000000000000018 30.000000000000007 10 #
vertex $-1 $336 $619 #
ellipse-curve $-1 0 0 10 0 0 1 5 0 0 1 I I #
point $-1 5 0 -10 #
vertex $-1 $340 $620 #
ellipse-curve $-1 0 0 10 0 0 1 5 0 0 1 I I #
point $-1 5 0 -10 #
vertex $-1 $344 $621 #
ellipse-curve $-1 0 0 10 0 0 1 5 0 0 1 I I #
point $-1 5 0 -10 #
vertex $-1 $348 $622 #
ellipse-curve $-1 0 0 10 0 0 1 6 0 0 1 I I #
point $-1 6 0 -10 #
vertex $-1 $352 $623 #
ellipse-curve $-1 0 0 10 0 0 1 6 0 0 1 I I #
point $-1 6 0 -10 #
vertex $-1 $356 $624 #
ellipse-curve $-1 0 0 10 0 0 1 5.0049999999999999 0 0 1 I I #
point $-1 5.0049999999999999 0 -10 #
vertex $-1 $360 $625 #
ellipse-curve $-1 0 0 10 0 0 1 5.0049999999999999 0 0 1 I I #
point $-1 5.0049999999999999 0 -10 #
loop $-1 $-1 $370 $363 #
plane-surface $-1 30.000000000000018 0 0 -1 0 0 0 0 1 forward_v I I I I #
coedge $-1 $626 $627 $369 $504 forward $364 $-1 #
coedge $-1 $628 $366 $627 $629 reversed $262 $-1 #
coedge $-1 $366 $628 $367 $501 reversed $262 $-1 #
edge $-1 $374 14.999593128807199 $630 30.000000000000018 $500 $631 forward 7 unknown #
coedge $-1 $632 $370 $368 $503 reversed $496 $-1 #
edge $-1 $630 -30.000000000000007 $373 -14.999593128807124 $502 $633 forward 7 unknown #
edge $-1 $508 -15.910334128766644 $506 5.3034447095888506 $498 $634 forward 7 unknown #
coedge $-1 $370 $632 $626 $635 reversed $496 $-1 #
vertex $-1 $635 $636 #
straight-curve $-1 30.000000000000018 -14.999593128807122 5 0 0 1 I I #
vertex $-1 $372 $637 #
straight-curve $-1 14.999593128807206 -30.000000000000007 5 0 0 -1 I I #
point $-1 30.000000000000014 -14.999593128807124 10 #
point $-1 14.999593128807199 -30.000000000000011 10 #
face $-1 $-1 $525 $69 $-1 $638 forward single #
plane-surface $-1 19.999593128807181 -24.999999999999993 5 0 0 -1 -1 0 0 forward_v I I I I #
coedge $-1 $639 $640 $518 $641 forward $377 $-1 #
coedge $-1 $642 $379 $524 $643 reversed $269 $-1 #
coedge $-1 $379 $642 $380 $519 forward $269 $-1 #
edge $-1 $527 -10.606170165728901 $521 -3.5351023538634081 $379 $644 forward 7 unknown #
coedge $-1 $381 $380 $514 $641 reversed $189 $-1 #
edge $-1 $645 -27.499898282201809 $521 17.499694846605408 $516 $646 forward 7 unknown #
edge $-1 $389 -17.999694846605401 $647 26.999898282201798 $386 $648 forward 7 unknown #
vertex $-1 $517 $649 #
straight-curve $-1 14.999593128807218 -29.999999999999993 8.75 2.7618609391775656e-047 2.7618609391775787e-047 -1 I I #
coedge $-1 $650 $384 $387 $530 forward $525 $-1 #
coedge $-1 $384 $650 $515 $643 forward $525 $-1 #
loop $-1 $-1 $523 $512 #
convexity-sys-attrib $-1 $-1 $-1 $385 #
vertex $-1 $643 $651 #
straight-curve $-1 19.999593128807202 -24.999999999999986 8.75 0 0 -1 I I #
coedge $-1 $387 $386 $640 $652 reversed $388 $-1 #
edge $653 $390 -22.999694846605401 $654 26.999898282201798 $387 $655 forward 7 unknown #
point $-1 14.999593128807183 -29.999999999999993 5 #
point $-1 19.999593128807181 -24.999999999999993 5 #
face $-1 $-1 $546 $71 $-1 $656 reversed single #
loop $-1 $-1 $657 $392 #
plane-surface $-1 24.999999999999883 30.000000000000007 10 -3.5527136788004303e-015 1 0 0 0 1 forward_v I I I I #
coedge $-1 $539 $658 $398 $543 reversed $393 $-1 #
coedge $-1 $396 $395 $657 $659 reversed $193 $-1 #
edge $-1 $660 -26.999898282201784 $404 17.999694846605333 $402 $661 forward 7 unknown #
coedge $-1 $662 $536 $396 $540 forward $393 $-1 #
edge $-1 $541 -17.499694846605415 $663 27.499898282201734 $539 $664 forward 7 unknown #
vertex $-1 $540 $665 #
straight-curve $-1 30.000000000000142 -14.999593128806996 8.7499999999999982 -2.1210230918212197e-016 -2.1210230918212303e-016 1 I I #
edge $-1 $541 -3.5355339059327147 $548 3.5355339059327124 $536 $666 forward 7 unknown #
coedge $-1 $667 $399 $658 $668 forward $546 $-1 #
coedge $-1 $399 $667 $401 $551 forward $546 $-1 #
loop $-1 $-1 $545 $533 #
convexity-sys-attrib $-1 $-1 $-1 $400 #
vertex $-1 $400 $669 #
straight-curve $-1 25.00000000000006 -19.999593128807106 8.75 0 0 1 I I #
coedge $-1 $402 $401 $670 $671 forward $277 $-1 #
edge $672 $673 -26.999898282201784 $403 22.999694846605315 $401 $674 forward 7 unknown #
point $-1 25.000000000000082 -19.999593128807092 5 #
point $-1 29.999999999999982 -14.999593128807092 5 #
face_name-twe-attrib $-1 $-1 $407 $286 6 #
model_id-kcp-attrib $-1 $675 $-1 $408 1 990666373 70 726007809 8 #
face $676 $677 $678 $16 $-1 $679 forward single #
loop $680 $681 $682 $408 #
cone-surface $683 15 -15 0 0 0 1 5.0049999999999999 0 0 1 I I 0 1 5.0049999999999999 forward I I I I #
model_id-kcp-attrib $-1 $684 $-1 $409 1 990666373 70 726007809 61 #
loop $685 $-1 $686 $286 #
coedge $-1 $561 $561 $687 $688 reversed $409 $-1 #
surf-twe-attrib $-1 $-1 $-1 $410 48 #
loop_type-twe-attrib $-1 $-1 $411 $287 0 #
model_id-kcp-attrib $-1 $689 $-1 $412 1 990666373 70 726007809 55 #
coedge $-1 $565 $565 $690 $691 reversed $412 $-1 #
coedge $-1 $566 $566 $413 $567 forward $692 $-1 #
edge $693 $694 -3.1415926535897931 $694 3.1415926535897931 $566 $695 forward 7 unknown #
loop_type-twe-attrib $-1 $-1 $416 $290 1 #
coedge $-1 $569 $569 $417 $570 forward $696 $-1 #
edge $697 $698 -3.1415926535897931 $698 3.1415926535897931 $569 $699 forward 7 unknown #
loop $700 $692 $418 $310 #
attrib_edge_convexity-kcp-attrib $-1 $701 $-1 $419 1 #
vertex $702 $419 $703 #
ellipse-curve $704 15 15 10 0 0 -1 6 0 0 1 I I #
loop $705 $696 $421 $437 #
attrib_edge_convexity-kcp-attrib $-1 $706 $-1 $422 1 #
vertex $707 $422 $708 #
ellipse-curve $709 0 0 -10 0 0 1 5 0 0 1 I I #
model_id-kcp-attrib $-1 $710 $-1 $423 1 990666373 70 726007809 42 #
convexity-sys-attrib $-1 $711 $424 $297 #
model_id-kcp-attrib $-1 $-1 $-1 $425 1 990666373 70 726007809 44 #
point $-1 -5 -3.4914813494061298e-014 10 #
cur-twe-attrib $-1 $-1 $-1 $426 58 #
model_id-kcp-attrib $-1 $712 $-1 $427 1 990666373 70 726007809 36 #
convexity-sys-attrib $-1 $713 $428 $300 #
model_id-kcp-attrib $-1 $-1 $-1 $429 1 990666373 70 726007809 38 #
point $-1 10 3.4914813494061298e-014 -10 #
cur-twe-attrib $-1 $-1 $-1 $430 60 #
loop_type-twe-attrib $-1 $-1 $431 $301 1 #
edge_name-twe-attrib $-1 $-1 $432 $209 3 8704 #
loop_type-twe-attrib $-1 $-1 $436 $305 1 #
model_id-kcp-attrib $-1 $714 $-1 $437 1 990666373 70 726007809 67 #
face $715 $716 $717 $16 $-1 $718 reversed single #
plane-surface $719 0 0 -10 0 0 1 1 0 0 forward_v I I I I #
edge_name-twe-attrib $-1 $-1 $438 $212 26 8704 #
model_id-kcp-attrib $-1 $720 $443 $310 1 990666373 70 726007809 11 #
model_id-kcp-attrib $-1 $721 $-1 $444 1 990666373 70 726007809 12 #
face $722 $723 $724 $16 $-1 $725 forward single #
loop $726 $-1 $727 $444 #
plane-surface $728 22.4997965644035 -22.499796564403599 0 0.70710678118654902 -0.70710678118654602 0 0 0 -1 forward_v I I I I #
surf-twe-attrib $-1 $-1 $-1 $445 70 #
model_id-kcp-attrib $-1 $-1 $-1 $448 1 990666373 80 726663170 4 #
plane-surface $-1 30.000000000000018 0 0 -1 0 0 0 0 1 forward_v I I I I #
coedge $-1 $453 $451 $455 $608 reversed $317 $-1 #
edge $-1 $466 -10 $610 10 $465 $729 forward 7 unknown #
vertex $-1 $608 $730 #
straight-curve $-1 -30.000000000000018 -30.000000000000007 0 0 0 -1 I I #
edge $-1 $606 -30.000000000000007 $610 30.000000000000007 $604 $731 forward 7 unknown #
straight-curve $-1 0 -30.000000000000007 -10 -1 0 0 I I #
vertex $-1 $458 $732 #
straight-curve $-1 0 30.000000000000007 -10 1 0 0 I I #
point $-1 30.000000000000018 30.000000000000007 -10 #
point $-1 30.000000000000018 -30.000000000000007 -10 #
straight-curve $-1 -30.000000000000018 0 10 0 -1 0 I I #
point $-1 -30.000000000000018 30.000000000000007 10 #
point $-1 -30.000000000000018 -30.000000000000007 10 #
straight-curve $-1 30.000000000000018 -30.000000000000007 0 0 0 -1 I I #
straight-curve $-1 30.000000000000018 30.000000000000007 0 0 0 -1 I I #
point $-1 5 0 10 #
point $-1 5 0 10 #
point $-1 5 0 10 #
point $-1 6 0 10 #
point $-1 6 0 10 #
point $-1 5.0049999999999999 0 10 #
point $-1 5.0049999999999999 0 10 #
coedge $-1 $627 $498 $505 $635 forward $364 $-1 #
coedge $-1 $498 $626 $499 $629 forward $364 $-1 #
coedge $-1 $500 $499 $632 $733 reversed $262 $-1 #
edge $-1 $734 -30.000000000000018 $508 -14.999593128807199 $499 $735 forward 7 unknown #
vertex $-1 $503 $736 #
straight-curve $-1 0 -30.000000000000007 10 1 0 0 I I #
coedge $-1 $505 $502 $628 $733 forward $496 $-1 #
straight-curve $-1 30.000000000000018 0 10 0 1 0 I I #
straight-curve $-1 26.249898282201826 -18.74969484660533 -10 0.7071067811865458 0.70710678118654924 0 I I #
edge $-1 $506 14.999593128807124 $734 30.000000000000007 $505 $737 forward 7 unknown #
point $-1 30.000000000000014 -14.999593128807124 -10 #
point $-1 14.999593128807199 -30.000000000000011 -10 #
plane-surface $-1 -5.0002034355964131 -24.999999999999993 7.5000000000000009 -2.4113633248479781e-032 1 2.7618609391775787e-047 0 -2.7618609391775787e-047 1 forward_v I I I I #
coedge $-1 $738 $514 $642 $739 reversed $377 $-1 #
coedge $-1 $514 $738 $529 $652 forward $377 $-1 #
edge $-1 $647 1.25 $645 6.25 $514 $740 forward 7 unknown #
coedge $-1 $516 $515 $639 $739 forward $269 $-1 #
edge $741 $742 -27.499898282201809 $527 22.499694846605408 $515 $743 forward 7 unknown #
straight-curve $-1 12.499898282201862 -32.499694846605358 10 -0.7071067811865458 -0.70710678118654924 0 I I #
vertex $-1 $739 $744 #
straight-curve $-1 -2.5001017177982092 -29.999999999999986 10 1 0 0 I I #
vertex $-1 $652 $745 #
straight-curve $-1 -3.0001017177982181 -29.999999999999986 5 -1 0 0 I I #
point $-1 14.999593128807199 -30.000000000000011 10 #
coedge $-1 $524 $523 $738 $746 forward $525 $-1 #
point $-1 19.999593128807199 -24.999999999999986 10 #
edge $-1 $654 0 $647 5 $640 $747 forward 7 unknown #
convexity-sys-attrib $-1 $-1 $-1 $530 #
vertex $-1 $530 $748 #
straight-curve $-1 -3.0001017177982181 -24.999999999999986 5 -1 0 0 I I #
plane-surface $-1 24.999999999999972 5.0002034355964513 7.5 1 3.4838087775449721e-015 2.1210230918212271e-016 2.1210230918212271e-016 0 -1 forward_v I I I I #
coedge $-1 $670 $749 $537 $659 forward $534 $-1 #
coedge $-1 $536 $662 $544 $668 reversed $393 $-1 #
edge $-1 $663 -6.25 $660 -1.25 $657 $750 forward 7 unknown #
vertex $-1 $671 $751 #
straight-curve $-1 30.000000000000078 3.0001017177982412 5 3.49148134940613e-015 -1 0 I I #
coedge $-1 $658 $539 $749 $752 reversed $393 $-1 #
vertex $-1 $752 $753 #
straight-curve $-1 30.000000000000078 2.50010171779829 10 -3.49148134940613e-015 1 0 I I #
point $-1 30.000000000000014 -14.999593128807124 10 #
straight-curve $-1 27.500000000000036 -17.499593128807113 10 -0.7071067811865458 -0.70710678118654924 0 I I #
coedge $-1 $545 $544 $754 $755 forward $546 $-1 #
edge $756 $548 -22.499694846605376 $757 27.499898282201734 $658 $758 forward 7 unknown #
point $-1 25.00000000000006 -19.999593128807103 10 #
coedge $-1 $754 $657 $550 $671 reversed $534 $-1 #
edge $-1 $673 0 $660 5.0000000000000995 $550 $759 forward 7 unknown #
convexity-sys-attrib $-1 $-1 $-1 $551 #
vertex $-1 $551 $760 #
straight-curve $-1 24.999999999999979 3.0001017177982234 5 3.49148134940613e-015 -1 0 I I #
face_name-twe-attrib $-1 $-1 $555 $408 7 #
model_id-kcp-attrib $-1 $761 $-1 $556 1 990666373 70 726007809 9 #
face $762 $310 $763 $16 $-1 $764 forward single #
loop $765 $-1 $766 $556 #
plane-surface $767 -1 -25 10 0 -1 0 0 0 -1 forward_v I I I I #
model_id-kcp-attrib $-1 $768 $-1 $557 1 990666373 70 726007809 68 #
loop $769 $-1 $770 $408 #
coedge $-1 $682 $682 $771 $772 reversed $557 $-1 #
surf-twe-attrib $-1 $-1 $-1 $558 74 #
loop_type-twe-attrib $-1 $-1 $559 $409 0 #
model_id-kcp-attrib $-1 $773 $-1 $560 1 990666373 70 726007809 62 #
coedge $-1 $686 $686 $774 $775 reversed $560 $-1 #
coedge $-1 $687 $687 $561 $688 forward $776 $-1 #
edge $777 $778 -3.1415926535897931 $778 3.1415926535897931 $687 $779 forward 7 unknown #
loop_type-twe-attrib $-1 $-1 $564 $412 1 #
coedge $-1 $690 $690 $565 $691 forward $780 $-1 #
edge $781 $782 -3.1415926535897931 $782 3.1415926535897931 $690 $783 forward 7 unknown #
loop $784 $776 $566 $310 #
attrib_edge_convexity-kcp-attrib $-1 $785 $-1 $567 1 #
vertex $786 $567 $787 #
ellipse-curve $788 -15 -15 10 0 0 -1 6 0 0 1 I I #
loop $789 $780 $569 $437 #
attrib_edge_convexity-kcp-attrib $-1 $790 $-1 $570 1 #
vertex $791 $570 $792 #
ellipse-curve $793 15 15 -10 0 0 1 6 0 0 1 I I #
model_id-kcp-attrib $-1 $794 $-1 $571 1 990666373 70 726007809 49 #
convexity-sys-attrib $-1 $795 $572 $419 #
model_id-kcp-attrib $-1 $-1 $-1 $573 1 990666373 70 726007809 51 #
point $-1 9 15 10 #
cur-twe-attrib $-1 $-1 $-1 $574 84 #
model_id-kcp-attrib $-1 $796 $-1 $575 1 990666373 70 726007809 43 #
convexity-sys-attrib $-1 $797 $576 $422 #
model_id-kcp-attrib $-1 $-1 $-1 $577 1 990666373 70 726007809 45 #
point $-1 -5 3.4914813494061298e-014 -10 #
cur-twe-attrib $-1 $-1 $-1 $578 86 #
loop_type-twe-attrib $-1 $-1 $579 $423 1 #
edge_name-twe-attrib $-1 $-1 $580 $297 4 8704 #
loop_type-twe-attrib $-1 $-1 $584 $427 1 #
edge_name-twe-attrib $-1 $-1 $585 $300 27 8704 #
model_id-kcp-attrib $-1 $798 $592 $437 1 990666373 70 726007809 60 #
model_id-kcp-attrib $-1 $799 $-1 $593 1 990666373 70 726007809 18 #
face $800 $-1 $801 $16 $-1 $802 reversed single #
loop $803 $-1 $804 $593 #
plane-surface $805 0 -30 0 0 1 0 0 0 1 forward_v I I I I #
surf-twe-attrib $-1 $-1 $-1 $594 99 #
face_name-twe-attrib $-1 $-1 $596 $310 10 #
face_name-twe-attrib $-1 $-1 $597 $444 11 #
model_id-kcp-attrib $-1 $806 $-1 $598 1 990666373 70 726007809 13 #
face $807 $808 $809 $16 $-1 $810 forward single #
loop $811 $-1 $812 $598 #
plane-surface $813 30 1 5 0 0 1 -3.49148134940613e-015 1 0 forward_v I I I I #
loop_type-twe-attrib $-1 $-1 $-1 $599 0 #
coedge $-1 $814 $815 $816 $817 forward $599 $-1 #
surf-twe-attrib $-1 $-1 $-1 $600 103 #
straight-curve $-1 -30.000000000000018 30.000000000000007 0 0 0 -1 I I #
point $-1 -30.000000000000018 -30.000000000000007 -10 #
straight-curve $-1 -30.000000000000018 0 -10 0 1 0 I I #
point $-1 -30.000000000000018 30.000000000000007 -10 #
edge $-1 $630 -10 $734 10 $632 $818 forward 7 unknown #
vertex $-1 $733 $819 #
straight-curve $-1 0 -30.000000000000007 -10 -1 0 0 I I #
point $-1 30.000000000000018 -30.000000000000007 10 #
straight-curve $-1 30.000000000000018 0 -10 0 -1 0 I I #
coedge $-1 $640 $639 $650 $746 reversed $377 $-1 #
edge $-1 $742 0 $645 5 $642 $820 forward 7 unknown #
straight-curve $-1 -30.000000000000018 -29.999999999999986 3.75 0 0 1 I I #
convexity-sys-attrib $-1 $-1 $-1 $643 #
vertex $-1 $746 $821 #
straight-curve $-1 -2.5001017177982092 -24.999999999999986 10 1 0 0 I I #
point $-1 -30.000000000000018 -29.999999999999986 10 #
point $-1 -30.000000000000018 -29.999999999999993 5 #
edge $822 $654 1.25 $742 6.25 $738 $823 forward 7 unknown #
straight-curve $-1 -30.000000000000018 -24.999999999999993 5 0 -1 0 I I #
point $-1 -30.000000000000018 -24.999999999999993 5 #
coedge $-1 $657 $754 $662 $752 forward $534 $-1 #
straight-curve $-1 29.999999999999986 30.000000000000025 3.75 0 0 -1 I I #
point $-1 29.999999999999982 30.000000000000025 5 #
edge $-1 $757 0 $663 5.0000000000000995 $749 $824 forward 7 unknown #
point $-1 29.999999999999982 30.000000000000025 10 #
coedge $-1 $749 $670 $667 $755 reversed $534 $-1 #
edge $825 $757 -6.25 $673 -1.25 $754 $826 forward 7 unknown #
convexity-sys-attrib $-1 $-1 $-1 $668 #
vertex $-1 $668 $827 #
straight-curve $-1 24.999999999999979 2.5001017177982723 10 -3.49148134940613e-015 1 0 I I #
straight-curve $-1 24.999999999999883 30.000000000000007 5 1 3.5527136788004303e-015 0 I I #
point $-1 24.999999999999883 30.000000000000007 5 #
face_name-twe-attrib $-1 $-1 $676 $556 8 #
model_id-kcp-attrib $-1 $828 $-1 $677 1 990666373 70 726007809 10 #
loop $829 $-1 $830 $677 #
plane-surface $831 -1 -30 5 0 0 1 1 0 0 forward_v I I I I #
loop_type-twe-attrib $-1 $-1 $-1 $678 0 #
coedge $-1 $832 $833 $834 $835 reversed $678 $-1 #
surf-twe-attrib $-1 $-1 $-1 $679 106 #
loop_type-twe-attrib $-1 $-1 $680 $557 0 #
model_id-kcp-attrib $-1 $836 $-1 $681 1 990666373 70 726007809 69 #
coedge $-1 $770 $770 $837 $838 reversed $681 $-1 #
coedge $-1 $771 $771 $682 $772 forward $839 $-1 #
edge $840 $841 -3.1415926535897931 $841 3.1415926535897931 $771 $842 forward 7 unknown #
loop_type-twe-attrib $-1 $-1 $685 $560 1 #
coedge $-1 $774 $774 $686 $775 forward $843 $-1 #
edge $844 $845 -3.1415926535897931 $845 3.1415926535897931 $774 $846 forward 7 unknown #
loop $847 $839 $687 $310 #
attrib_edge_convexity-kcp-attrib $-1 $848 $-1 $688 1 #
vertex $849 $688 $850 #
ellipse-curve $851 -15 15 10 0 0 -1 5.0049999999999999 0 0 1 I I #
loop $852 $843 $690 $437 #
attrib_edge_convexity-kcp-attrib $-1 $853 $-1 $691 1 #
vertex $854 $691 $855 #
ellipse-curve $856 -15 -15 -10 0 0 1 6 0 0 1 I I #
model_id-kcp-attrib $-1 $857 $-1 $692 1 990666373 70 726007809 56 #
convexity-sys-attrib $-1 $858 $693 $567 #
model_id-kcp-attrib $-1 $-1 $-1 $694 1 990666373 70 726007809 58 #
point $-1 -21 -15 10 #
cur-twe-attrib $-1 $-1 $-1 $695 116 #
model_id-kcp-attrib $-1 $859 $-1 $696 1 990666373 70 726007809 50 #
convexity-sys-attrib $-1 $860 $697 $570 #
model_id-kcp-attrib $-1 $-1 $-1 $698 1 990666373 70 726007809 52 #
point $-1 9 15 -10 #
cur-twe-attrib $-1 $-1 $-1 $699 118 #
loop_type-twe-attrib $-1 $-1 $700 $571 1 #
edge_name-twe-attrib $-1 $-1 $701 $419 5 8704 #
loop_type-twe-attrib $-1 $-1 $705 $575 1 #
edge_name-twe-attrib $-1 $-1 $706 $422 28 8704 #
model_id-kcp-attrib $-1 $861 $714 $437 1 990666373 70 726007809 53 #
face_name-twe-attrib $-1 $-1 $715 $593 17 #
model_id-kcp-attrib $-1 $862 $-1 $716 1 990666373 70 726007809 19 #
loop $863 $-1 $834 $716 #
plane-surface $864 -30 0 0 1 0 0 0 0 -1 forward_v I I I I #
loop_type-twe-attrib $-1 $-1 $-1 $717 0 #
coedge $-1 $865 $866 $867 $868 forward $717 $-1 #
surf-twe-attrib $-1 $-1 $-1 $718 134 #
face_name-twe-attrib $-1 $-1 $722 $598 12 #
model_id-kcp-attrib $-1 $869 $-1 $723 1 990666373 70 726007809 14 #
face $870 $871 $872 $16 $-1 $873 reversed single #
loop $874 $-1 $875 $723 #
plane-surface $876 25 0.99999999999998301 10 1 3.49148134940613e-015 0 0 0 -1 forward_v I I I I #
loop_type-twe-attrib $-1 $-1 $-1 $724 0 #
coedge $-1 $877 $878 $879 $880 reversed $724 $-1 #
surf-twe-attrib $-1 $881 $-1 $725 137 #
coedge $-1 $882 $727 $883 $884 forward $599 $-1 #
coedge $-1 $727 $885 $886 $887 reversed $599 $-1 #
coedge $-1 $833 $832 $727 $817 reversed $678 $-1 #
edge $888 $889 -5 $890 0 $727 $891 forward 7 unknown #
straight-curve $-1 30.000000000000018 -30.000000000000007 0 0 0 -1 I I #
point $-1 30.000000000000018 -30.000000000000007 -10 #
straight-curve $-1 -30.000000000000018 -24.999999999999986 10 0 -1 0 I I #
point $-1 -30.000000000000018 -24.999999999999986 10 #
convexity-sys-attrib $-1 $-1 $-1 $746 #
straight-curve $-1 -30.000000000000018 -24.999999999999986 3.75 0 0 1 I I #
straight-curve $-1 24.999999999999883 30.000000000000007 10 1 3.5527136788004303e-015 0 I I #
convexity-sys-attrib $-1 $-1 $-1 $755 #
straight-curve $-1 24.999999999999886 30.000000000000007 3.75 0 0 -1 I I #
point $-1 24.999999999999883 30.000000000000007 10 #
face_name-twe-attrib $-1 $-1 $762 $677 9 #
loop_type-twe-attrib $-1 $-1 $-1 $763 0 #
coedge $-1 $867 $892 $893 $894 reversed $763 $-1 #
surf-twe-attrib $-1 $895 $-1 $764 137 #
coedge $-1 $816 $766 $892 $896 forward $678 $-1 #
coedge $-1 $766 $816 $897 $898 reversed $678 $-1 #
coedge $-1 $899 $893 $766 $835 forward $801 $-1 #
edge $900 $901 0 $902 5 $834 $903 forward 7 unknown #
loop_type-twe-attrib $-1 $-1 $769 $681 1 #
coedge $-1 $837 $837 $770 $838 forward $904 $-1 #
edge $905 $906 -3.1415926535897931 $906 3.1415926535897931 $837 $907 forward 7 unknown #
loop $908 $909 $771 $310 #
attrib_edge_convexity-kcp-attrib $-1 $910 $-1 $772 1 #
vertex $911 $772 $912 #
ellipse-curve $913 15 -15 10 0 0 -1 5.0049999999999999 0 0 1 I I #
loop $914 $904 $774 $437 #
attrib_edge_convexity-kcp-attrib $-1 $915 $-1 $775 1 #
vertex $916 $775 $917 #
ellipse-curve $918 -15 15 -10 0 0 1 5.0049999999999999 0 0 1 I I #
model_id-kcp-attrib $-1 $919 $-1 $776 1 990666373 70 726007809 63 #
convexity-sys-attrib $-1 $920 $777 $688 #
model_id-kcp-attrib $-1 $-1 $-1 $778 1 990666373 70 726007809 65 #
point $-1 -20.004999999999999 15 10 #
cur-twe-attrib $-1 $-1 $-1 $779 152 #
model_id-kcp-attrib $-1 $921 $-1 $780 1 990666373 70 726007809 57 #
convexity-sys-attrib $-1 $922 $781 $691 #
model_id-kcp-attrib $-1 $-1 $-1 $782 1 990666373 70 726007809 59 #
point $-1 -21 -15 -10 #
cur-twe-attrib $-1 $-1 $-1 $783 154 #
loop_type-twe-attrib $-1 $-1 $784 $692 1 #
edge_name-twe-attrib $-1 $-1 $785 $567 6 8704 #
loop_type-twe-attrib $-1 $-1 $789 $696 1 #
edge_name-twe-attrib $-1 $-1 $790 $570 29 8704 #
model_id-kcp-attrib $-1 $923 $798 $437 1 990666373 70 726007809 46 #
face_name-twe-attrib $-1 $-1 $800 $716 18 #
loop_type-twe-attrib $-1 $-1 $-1 $801 0 #
surf-twe-attrib $-1 $-1 $-1 $802 170 #
coedge $-1 $924 $804 $925 $926 forward $717 $-1 #
coedge $-1 $804 $924 $882 $927 forward $717 $-1 #
coedge $-1 $883 $830 $804 $868 reversed $763 $-1 #
edge $928 $929 -15.4995931288072 $930 29.5 $804 $931 forward 7 unknown #
face_name-twe-attrib $-1 $-1 $807 $723 13 #
model_id-kcp-attrib $-1 $932 $-1 $808 1 990666373 70 726007809 15 #
face $933 $437 $934 $16 $-1 $935 reversed single #
loop $936 $-1 $937 $808 #
plane-surface $938 0 30 0 0 -1 0 0 0 -1 forward_v I I I I #
loop_type-twe-attrib $-1 $-1 $-1 $809 0 #
coedge $-1 $939 $940 $937 $941 reversed $809 $-1 #
surf-twe-attrib $-1 $-1 $-1 $810 175 #
coedge $-1 $942 $812 $940 $943 reversed $724 $-1 #
coedge $-1 $812 $942 $944 $945 reversed $724 $-1 #
coedge $-1 $946 $937 $812 $880 forward $872 $-1 #
edge $947 $948 9.9999999999999005 $949 15 $879 $950 forward 7 unknown #
surf-twe-attrib $-1 $-1 $813 $725 142 #
coedge $-1 $951 $814 $866 $927 reversed $599 $-1 #
coedge $-1 $892 $867 $814 $884 reversed $763 $-1 #
edge $952 $890 -7.4243335010792499 $929 -0.35326568921377571 $814 $953 forward 7 unknown #
coedge $-1 $815 $954 $955 $956 forward $599 $-1 #
coedge $-1 $957 $897 $815 $887 forward $909 $-1 #
edge $958 $889 -3.5358216073122368 $959 3.5358216073123776 $886 $960 forward 7 unknown #
attrib_edge_convexity-kcp-attrib $-1 $961 $-1 $817 1 #
vertex $-1 $817 $962 #
vertex $-1 $884 $963 #
straight-curve $964 19.999593128807199 -25 5 0 0 -1 I I #
coedge $-1 $830 $883 $832 $896 reversed $763 $-1 #
coedge $-1 $834 $925 $830 $894 forward $801 $-1 #
edge $965 $930 -15 $901 -10 $893 $966 forward 7 unknown #
surf-twe-attrib $-1 $-1 $831 $764 142 #
edge $967 $901 -29 $890 20.999593128807199 $832 $968 forward 7 unknown #
coedge $-1 $886 $969 $833 $898 forward $909 $-1 #
edge $970 $902 -29.5 $889 20.499593128807199 $897 $971 forward 7 unknown #
coedge $-1 $972 $834 $969 $973 reversed $801 $-1 #
edge_name-twe-attrib $-1 $-1 $-1 $835 37 8704 #
vertex $-1 $894 $974 #
vertex $-1 $973 $975 #
straight-curve $976 -30 -25 5 0 0 1 I I #
loop $977 $978 $837 $437 #
attrib_edge_convexity-kcp-attrib $-1 $979 $-1 $838 1 #
vertex $980 $838 $981 #
ellipse-curve $982 15 -15 -10 0 0 1 5.0049999999999999 0 0 1 I I #
model_id-kcp-attrib $-1 $983 $-1 $839 1 990666373 70 726007809 70 #
loop $984 $-1 $897 $310 #
convexity-sys-attrib $-1 $985 $840 $772 #
model_id-kcp-attrib $-1 $-1 $-1 $841 1 990666373 70 726007809 72 #
point $-1 9.9949999999999992 -15 10 #
cur-twe-attrib $-1 $-1 $-1 $842 190 #
model_id-kcp-attrib $-1 $986 $-1 $843 1 990666373 70 726007809 64 #
convexity-sys-attrib $-1 $987 $844 $775 #
model_id-kcp-attrib $-1 $-1 $-1 $845 1 990666373 70 726007809 66 #
point $-1 -20.004999999999999 15 -10 #
cur-twe-attrib $-1 $-1 $-1 $846 192 #
loop_type-twe-attrib $-1 $-1 $847 $776 1 #
edge_name-twe-attrib $-1 $-1 $848 $688 7 8704 #
loop_type-twe-attrib $-1 $-1 $852 $780 1 #
edge_name-twe-attrib $-1 $-1 $853 $691 30 8704 #
model_id-kcp-attrib $-1 $988 $861 $437 1 990666373 70 726007809 39 #
coedge $-1 $866 $865 $989 $990 reversed $717 $-1 #
coedge $-1 $893 $991 $865 $926 reversed $801 $-1 #
edge $992 $930 -5 $993 10 $925 $994 forward 7 unknown #
edge $995 $996 -10 $929 5 $866 $997 forward 7 unknown #
edge_name-twe-attrib $-1 $-1 $-1 $868 34 8704 #
vertex $-1 $927 $998 #
vertex $-1 $868 $999 #
straight-curve $1000 -0.5 -30 5 -1 0 0 I I #
face_name-twe-attrib $-1 $-1 $870 $808 14 #
model_id-kcp-attrib $-1 $1001 $-1 $871 1 990666373 70 726007809 16 #
loop $1002 $-1 $944 $871 #
plane-surface $1003 30 0 0 -1 0 0 0 0 1 forward_v I I I I #
loop_type-twe-attrib $-1 $-1 $-1 $872 0 #
coedge $-1 $879 $1004 $875 $941 forward $872 $-1 #
surf-twe-attrib $-1 $-1 $-1 $873 214 #
coedge $-1 $955 $875 $957 $1005 reversed $809 $-1 #
coedge $-1 $875 $955 $877 $943 forward $809 $-1 #
edge $1006 $1007 -5 $948 0 $937 $1008 forward 7 unknown #
coedge $-1 $878 $877 $954 $1009 reversed $724 $-1 #
edge $1010 $1011 -20.999593128807081 $948 29.000000000000018 $940 $1012 forward 7 unknown #
coedge $-1 $1013 $1014 $878 $945 forward $934 $-1 #
edge $1015 $949 -29.5 $1016 15.499593128807099 $944 $1017 forward 7 unknown #
coedge $-1 $1018 $879 $1014 $1019 forward $872 $-1 #
attrib_edge_convexity-kcp-attrib $-1 $1020 $-1 $880 1 #
vertex $-1 $880 $1021 #
vertex $-1 $945 $1022 #
straight-curve $1023 15 30 5 1 0 0 I I #
coedge $-1 $1024 $882 $1025 $1026 reversed $599 $-1 #
attrib_edge_convexity-kcp-attrib $-1 $1027 $-1 $884 1 #
straight-curve $1028 14.749796564403599 -30.249796564403599 5 -0.70710678118654602 -0.70710678118654902 0 I I #
coedge $-1 $885 $1024 $942 $1009 forward $599 $-1 #
coedge $-1 $940 $939 $885 $956 reversed $809 $-1 #
edge $1029 $1011 0 $959 5 $885 $1030 forward 7 unknown #
coedge $-1 $1031 $886 $939 $1005 forward $909 $-1 #
attrib_edge_convexity-kcp-attrib $-1 $1032 $-1 $887 1 #
vertex $-1 $887 $1033 #
straight-curve $1034 22.499796564403599 -22.499796564403599 10 0.70710678118654602 0.70710678118654902 0 I I #
convexity-sys-attrib $-1 $1035 $888 $817 #
point $-1 19.999593128807199 -25 10 #
point $-1 19.999593128807199 -25 5 #
cur-twe-attrib $-1 $-1 $-1 $891 223 #
edge_name-twe-attrib $-1 $-1 $-1 $894 41 8704 #
straight-curve $1036 -30 -15 5 0 1 0 I I #
edge_name-twe-attrib $-1 $-1 $-1 $896 1 4608 #
straight-curve $1037 -1 -25 5 1 0 0 I I #
coedge $-1 $897 $1031 $899 $973 forward $909 $-1 #
attrib_edge_convexity-kcp-attrib $-1 $1038 $-1 $898 1 #
straight-curve $1039 -0.5 -25 10 1 0 0 I I #
coedge $-1 $991 $899 $1040 $1041 forward $801 $-1 #
edge $1042 $1043 -30 $902 25 $899 $1044 forward 7 unknown #
point $-1 -30 -25 5 #
point $-1 -30 -25 10 #
cur-twe-attrib $-1 $-1 $-1 $903 230 #
model_id-kcp-attrib $-1 $1045 $-1 $904 1 990666373 70 726007809 71 #
loop $1046 $-1 $1025 $437 #
convexity-sys-attrib $-1 $1047 $905 $838 #
model_id-kcp-attrib $-1 $-1 $-1 $906 1 990666373 70 726007809 73 #
point $-1 9.9949999999999992 -15 -10 #
cur-twe-attrib $-1 $-1 $-1 $907 232 #
loop_type-twe-attrib $-1 $-1 $908 $839 1 #
loop_type-twe-attrib $-1 $-1 $-1 $909 0 #
edge_name-twe-attrib $-1 $-1 $910 $772 8 8704 #
loop_type-twe-attrib $-1 $-1 $914 $843 1 #
edge_name-twe-attrib $-1 $-1 $915 $775 31 8704 #
model_id-kcp-attrib $-1 $1048 $923 $437 1 990666373 70 726007809 32 #
coedge $-1 $1049 $1025 $924 $990 forward $978 $-1 #
edge $1050 $996 -14.9995931288072 $993 30 $924 $1051 forward 7 unknown #
coedge $-1 $925 $972 $1049 $1052 reversed $801 $-1 #
edge_name-twe-attrib $-1 $-1 $-1 $926 40 8704 #
vertex $-1 $1052 $1053 #
straight-curve $1054 -30 -30 0 0 0 -1 I I #
attrib_edge_convexity-kcp-attrib $-1 $1055 $-1 $927 1 #
vertex $-1 $927 $1056 #
straight-curve $1057 14.9995931288072 -30 0 0 0 1 I I #
point $-1 14.9995931288072 -30 5 #
point $-1 -30 -30 5 #
cur-twe-attrib $-1 $-1 $-1 $931 252 #
face_name-twe-attrib $-1 $-1 $933 $871 15 #
loop_type-twe-attrib $-1 $-1 $-1 $934 0 #
surf-twe-attrib $-1 $-1 $-1 $935 254 #
coedge $-1 $937 $1040 $1031 $1058 reversed $872 $-1 #
edge $1059 $959 -20.499593128807135 $1007 29.499999999999964 $957 $1060 forward 7 unknown #
attrib_edge_convexity-kcp-attrib $-1 $1061 $-1 $941 1 #
vertex $-1 $1005 $1062 #
straight-curve $1063 24.999999999999901 30 5 0 0 -1 I I #
edge $1064 $1016 0.35326568921363377 $1011 7.4243335010790386 $954 $1065 forward 7 unknown #
edge_name-twe-attrib $-1 $-1 $-1 $943 16 4608 #
vertex $-1 $1009 $1066 #
straight-curve $1067 25 0.99999999999998301 5 -3.49148134940613e-015 1 0 I I #
coedge $-1 $1068 $944 $1024 $1069 forward $934 $-1 #
coedge $-1 $944 $1068 $946 $1019 reversed $934 $-1 #
attrib_edge_convexity-kcp-attrib $-1 $1070 $-1 $945 1 #
vertex $-1 $1009 $1071 #
straight-curve $1072 30 0.5 5 0 -1 0 I I #
coedge $-1 $1040 $946 $1073 $1074 reversed $872 $-1 #
edge $1075 $949 -5 $1076 10 $1014 $1077 forward 7 unknown #
convexity-sys-attrib $-1 $1078 $947 $880 #
point $-1 24.999999999999901 30 5 #
point $-1 30 30 5 #
cur-twe-attrib $-1 $-1 $-1 $950 263 #
coedge $-1 $954 $951 $1013 $1069 reversed $599 $-1 #
coedge $-1 $989 $1079 $951 $1026 forward $978 $-1 #
edge $1080 $1081 -10.606889419177783 $996 10.606889419177712 $1025 $1082 forward 7 unknown #
convexity-sys-attrib $-1 $1083 $952 $884 #
cur-twe-attrib $-1 $1084 $-1 $953 373 #
attrib_edge_convexity-kcp-attrib $-1 $1085 $-1 $956 1 #
straight-curve $1086 25.000000000000099 -19.999593128807099 5 0 0 1 I I #
coedge $-1 $969 $957 $1004 $1058 forward $909 $-1 #
convexity-sys-attrib $-1 $1087 $958 $887 #
point $-1 25.000000000000099 -19.999593128807099 10 #
cur-twe-attrib $-1 $-1 $-1 $960 270 #
edge_name-twe-attrib $-1 $-1 $961 $817 12 8448 #
cur-twe-attrib $-1 $-1 $-1 $966 277 #
cur-twe-attrib $-1 $-1 $-1 $968 279 #
convexity-sys-attrib $-1 $1088 $970 $898 #
cur-twe-attrib $-1 $-1 $-1 $971 281 #
coedge $-1 $1004 $1018 $972 $1041 reversed $872 $-1 #
edge $1089 $1043 -10 $1090 10 $1040 $1091 forward 7 unknown #
attrib_edge_convexity-kcp-attrib $-1 $1092 $-1 $973 1 #
vertex $-1 $1058 $1093 #
straight-curve $1094 -30 0 10 0 -1 0 I I #
loop_type-twe-attrib $-1 $-1 $977 $904 1 #
loop_type-twe-attrib $-1 $-1 $-1 $978 0 #
edge_name-twe-attrib $-1 $-1 $979 $838 32 8704 #
model_id-kcp-attrib $-1 $1095 $988 $437 1 990666373 70 726007809 25 #
coedge $-1 $1073 $989 $991 $1052 forward $978 $-1 #
model_id-kcp-attrib $-1 $1096 $-1 $990 1 990666373 70 726007809 24 #
straight-curve $1097 0 -30 -10 -1 0 0 I I #
edge $1098 $993 -30 $1090 30 $991 $1099 forward 7 unknown #
point $-1 -30 -30 -10 #
cur-twe-attrib $-1 $-1 $-1 $994 300 #
convexity-sys-attrib $-1 $1100 $995 $927 #
point $-1 14.9995931288072 -30 -10 #
cur-twe-attrib $-1 $-1 $-1 $997 301 #
edge $1101 $1007 -24.999999999999901 $1043 30 $1004 $1102 forward 7 unknown #
attrib_edge_convexity-kcp-attrib $-1 $1103 $-1 $1005 1 #
straight-curve $1104 25 0.50000000000003497 10 -3.49148134940613e-015 1 0 I I #
convexity-sys-attrib $-1 $1105 $1006 $941 #
point $-1 24.999999999999901 30 10 #
cur-twe-attrib $-1 $-1 $-1 $1008 314 #
attrib_edge_convexity-kcp-attrib $-1 $1106 $-1 $1009 1 #
straight-curve $1107 30.2497965644035 -14.749796564403599 5 -0.70710678118654602 -0.70710678118654902 0 I I #
point $-1 25.000000000000099 -19.999593128807099 5 #
cur-twe-attrib $-1 $-1 $-1 $1012 316 #
coedge $-1 $1014 $1013 $1079 $1108 reversed $934 $-1 #
edge $1109 $1016 -5 $1081 10 $1013 $1110 forward 7 unknown #
convexity-sys-attrib $-1 $1111 $1015 $945 #
point $-1 30 -14.999593128807099 5 #
cur-twe-attrib $-1 $-1 $-1 $1017 318 #
coedge $-1 $1079 $1049 $1018 $1074 forward $978 $-1 #
edge $1112 $1090 -30 $1076 30 $1018 $1113 forward 7 unknown #
attrib_edge_convexity-kcp-attrib $-1 $1114 $-1 $1019 1 #
vertex $-1 $1108 $1115 #
straight-curve $1116 30 30 0 0 0 -1 I I #
edge_name-twe-attrib $-1 $-1 $1020 $880 18 8704 #
coedge $-1 $1025 $1073 $1068 $1108 forward $978 $-1 #
attrib_edge_convexity-kcp-attrib $-1 $1117 $-1 $1026 1 #
vertex $-1 $1108 $1118 #
straight-curve $1119 22.499796564403599 -22.499796564403599 -10 -0.70710678118654602 -0.70710678118654902 0 I I #
edge_name-twe-attrib $-1 $-1 $1027 $884 13 8704 #
cur-twe-attrib $-1 $-1 $1028 $953 267 #
convexity-sys-attrib $-1 $1120 $1029 $956 #
cur-twe-attrib $-1 $-1 $-1 $1030 329 #
edge_name-twe-attrib $-1 $-1 $1032 $887 10 8704 #
edge_name-twe-attrib $-1 $-1 $1038 $898 9 8704 #
attrib_edge_convexity-kcp-attrib $-1 $1121 $-1 $1041 1 #
vertex $-1 $1074 $1122 #
straight-curve $1123 -30 30 0 0 0 -1 I I #
convexity-sys-attrib $-1 $1124 $1042 $973 #
point $-1 -30 30 10 #
cur-twe-attrib $-1 $-1 $-1 $1044 345 #
model_id-kcp-attrib $-1 $1125 $1048 $437 1 990666373 70 726007809 17 #
edge_name-twe-attrib $-1 $-1 $1050 $990 35 8704 #
cur-twe-attrib $-1 $-1 $-1 $1051 355 #
model_id-kcp-attrib $-1 $1126 $-1 $1052 1 990666373 70 726007809 23 #
straight-curve $1127 -30 0 -10 0 1 0 I I #
edge_name-twe-attrib $-1 $-1 $1055 $927 36 8448 #
attrib_edge_convexity-kcp-attrib $-1 $1128 $-1 $1058 1 #
straight-curve $1129 0 30 10 -1 0 0 I I #
convexity-sys-attrib $-1 $1130 $1059 $1005 #
cur-twe-attrib $-1 $-1 $-1 $1060 369 #
edge_name-twe-attrib $-1 $-1 $1061 $941 17 8704 #
convexity-sys-attrib $-1 $1131 $1064 $1009 #
cur-twe-attrib $-1 $1132 $-1 $1065 373 #
edge $1133 $1076 -30 $1081 14.999593128807099 $1068 $1134 forward 7 unknown #
attrib_edge_convexity-kcp-attrib $-1 $1135 $-1 $1069 1 #
straight-curve $1136 30 -14.999593128807099 0 0 0 -1 I I #
edge_name-twe-attrib $-1 $-1 $1070 $945 22 8704 #
model_id-kcp-attrib $-1 $1137 $-1 $1074 1 990666373 70 726007809 22 #
straight-curve $1138 0 30 -10 1 0 0 I I #
convexity-sys-attrib $-1 $1139 $1075 $1019 #
point $-1 30 30 -10 #
cur-twe-attrib $-1 $-1 $-1 $1077 383 #
convexity-sys-attrib $-1 $1140 $1080 $1026 #
point $-1 30 -14.999593128807099 -10 #
cur-twe-attrib $-1 $-1 $-1 $1082 389 #
edge_name-twe-attrib $-1 $-1 $1085 $956 15 8448 #
convexity-sys-attrib $-1 $1141 $1089 $1041 #
point $-1 -30 30 -10 #
cur-twe-attrib $-1 $-1 $-1 $1091 400 #
edge_name-twe-attrib $-1 $-1 $1092 $973 38 8704 #
face_name-twe-attrib $-1 $-1 $1095 $437 16 #
edge_name-twe-attrib $-1 $-1 $1098 $1052 39 8704 #
cur-twe-attrib $-1 $-1 $-1 $1099 408 #
convexity-sys-attrib $-1 $1142 $1101 $1058 #
cur-twe-attrib $-1 $-1 $-1 $1102 413 #
edge_name-twe-attrib $-1 $-1 $1103 $1005 11 8704 #
edge_name-twe-attrib $-1 $-1 $1106 $1009 14 8704 #
cur-twe-attrib $-1 $-1 $1107 $1065 267 #
model_id-kcp-attrib $-1 $1143 $-1 $1108 1 990666373 70 726007809 21 #
straight-curve $1144 30 0 -10 0 -1 0 I I #
convexity-sys-attrib $-1 $1145 $1109 $1069 #
cur-twe-attrib $-1 $-1 $-1 $1110 423 #
attrib_edge_convexity-kcp-attrib $-1 $1146 $1112 $1074 1 #
cur-twe-attrib $-1 $-1 $-1 $1113 427 #
edge_name-twe-attrib $-1 $-1 $1114 $1019 25 8704 #
edge_name-twe-attrib $-1 $-1 $1117 $1026 33 8704 #
edge_name-twe-attrib $-1 $-1 $1121 $1041 20 8704 #
edge_name-twe-attrib $-1 $-1 $1128 $1058 21 8704 #
attrib_edge_convexity-kcp-attrib $-1 $1147 $1133 $1108 1 #
cur-twe-attrib $-1 $-1 $-1 $1134 449 #
edge_name-twe-attrib $-1 $-1 $1135 $1069 23 8448 #
convexity-sys-attrib $-1 $1148 $1137 $1074 #
convexity-sys-attrib $-1 $1149 $1143 $1108 #
edge_name-twe-attrib $-1 $-1 $1146 $1074 19 8704 #
edge_name-twe-attrib $-1 $-1 $1147 $1108 24 8704 #
End-of-ACIS-data 