104 468 0 0                             
body $-1 $1 $-1 $2 #
lump $-1 $-1 $3 $0 #
transform $-1 1 0 0 0 1 0 0 0 1 0 0 0 1 0 0 0 #
shell $-1 $-1 $-1 $4 $1 #
face $5 $6 $7 $3 $-1 $8 1 #
face_name-twe-attrib $-1 $-1 $-1 $4 1 #
face $9 $10 $11 $3 $-1 $12 1 #
loop $13 $14 $15 $4 #
cone-surface $16 0 -15 0 0 0 1 5 0 0 1 0 1 0 #
face_name-twe-attrib $-1 $-1 $-1 $6 2 #
face $17 $18 $19 $3 $-1 $20 1 #
loop $21 $22 $23 $6 #
cone-surface $24 15 0 0 0 0 1 5 0 0 1 0 1 0 #
loop_type-twe-attrib $-1 $-1 $-1 $7 0 #
loop $25 $-1 $26 $4 #
coedge $-1 $15 $15 $27 $28 1 $7 $-1 #
surf-twe-attrib $-1 $-1 $-1 $8 4 #
face_name-twe-attrib $-1 $-1 $-1 $10 3 #
face $29 $30 $31 $3 $-1 $32 1 #
loop $33 $34 $35 $10 #
cone-surface $36 0 0 0 0 0 1 5 0 0 1 0 1 0 #
loop_type-twe-attrib $-1 $-1 $-1 $11 0 #
loop $37 $-1 $38 $6 #
coedge $-1 $23 $23 $39 $40 1 $11 $-1 #
surf-twe-attrib $-1 $-1 $-1 $12 6 #
loop_type-twe-attrib $-1 $-1 $-1 $14 1 #
coedge $-1 $26 $26 $41 $42 1 $14 $-1 #
coedge $-1 $27 $27 $15 $28 0 $43 $-1 #
edge $44 $45 $45 $27 $46 0 #
face_name-twe-attrib $-1 $-1 $-1 $18 4 #
face $47 $48 $49 $3 $-1 $50 1 #
loop $51 $52 $53 $18 #
cone-surface $54 15 15 0 0 0 1 6 0 0 1 0 1 0 #
loop_type-twe-attrib $-1 $-1 $-1 $19 0 #
loop $55 $-1 $56 $10 #
coedge $-1 $35 $35 $57 $58 1 $19 $-1 #
surf-twe-attrib $-1 $-1 $-1 $20 10 #
loop_type-twe-attrib $-1 $-1 $-1 $22 1 #
coedge $-1 $38 $38 $59 $60 1 $22 $-1 #
coedge $-1 $39 $39 $23 $40 0 $61 $-1 #
edge $62 $63 $63 $39 $64 0 #
coedge $-1 $41 $41 $26 $42 0 $65 $-1 #
edge $66 $67 $67 $41 $68 0 #
loop $69 $61 $27 $70 #
edge_name-twe-attrib $-1 $-1 $-1 $28 2 8704 #
vertex $-1 $28 $71 #
ellipse-curve $72 0 -15 10 0 0 -1 5 0 0 1 #
face_name-twe-attrib $-1 $-1 $-1 $30 5 #
face $73 $74 $75 $3 $-1 $76 1 #
loop $77 $78 $79 $30 #
cone-surface $80 -15 -15 0 0 0 1 6 0 0 1 0 1 0 #
loop_type-twe-attrib $-1 $-1 $-1 $31 0 #
loop $81 $-1 $82 $18 #
coedge $-1 $53 $53 $83 $84 1 $31 $-1 #
surf-twe-attrib $-1 $-1 $-1 $32 18 #
loop_type-twe-attrib $-1 $-1 $-1 $34 1 #
coedge $-1 $56 $56 $85 $86 1 $34 $-1 #
coedge $-1 $57 $57 $35 $58 0 $87 $-1 #
edge $88 $89 $89 $57 $90 0 #
coedge $-1 $59 $59 $38 $60 0 $91 $-1 #
edge $92 $93 $93 $59 $94 0 #
loop $95 $87 $39 $70 #
edge_name-twe-attrib $-1 $-1 $-1 $40 3 8704 #
vertex $-1 $40 $96 #
ellipse-curve $97 15 0 10 0 0 -1 5 0 0 1 #
loop $98 $91 $41 $99 #
edge_name-twe-attrib $-1 $-1 $-1 $42 26 8704 #
vertex $-1 $42 $100 #
ellipse-curve $101 0 -15 -10 0 0 1 5 0 0 1 #
loop_type-twe-attrib $-1 $-1 $-1 $43 1 #
face $102 $103 $43 $3 $-1 $104 0 #
point $-1 -5 -15 10 #
cur-twe-attrib $-1 $-1 $-1 $46 28 #
face_name-twe-attrib $-1 $-1 $-1 $48 6 #
face $105 $106 $107 $3 $-1 $108 1 #
loop $109 $110 $111 $48 #
cone-surface $112 -15 15 0 0 0 1 5.005 0 0 1 0 1 0 #
loop_type-twe-attrib $-1 $-1 $-1 $49 0 #
loop $113 $-1 $114 $30 #
coedge $-1 $79 $79 $115 $116 1 $49 $-1 #
surf-twe-attrib $-1 $-1 $-1 $50 30 #
loop_type-twe-attrib $-1 $-1 $-1 $52 1 #
coedge $-1 $82 $82 $117 $118 1 $52 $-1 #
coedge $-1 $83 $83 $53 $84 0 $119 $-1 #
edge $120 $121 $121 $83 $122 0 #
coedge $-1 $85 $85 $56 $86 0 $123 $-1 #
edge $124 $125 $125 $85 $126 0 #
loop $127 $119 $57 $70 #
edge_name-twe-attrib $-1 $-1 $-1 $58 4 8704 #
vertex $-1 $58 $128 #
ellipse-curve $129 0 0 10 0 0 -1 5 0 0 1 #
loop $130 $123 $59 $99 #
edge_name-twe-attrib $-1 $-1 $-1 $60 27 8704 #
vertex $-1 $60 $131 #
ellipse-curve $132 15 0 -10 0 0 1 5 0 0 1 #
loop_type-twe-attrib $-1 $-1 $-1 $61 1 #
point $-1 10 -3.49148134940613e-14 10 #
cur-twe-attrib $-1 $-1 $-1 $64 40 #
loop_type-twe-attrib $-1 $-1 $-1 $65 1 #
face $133 $134 $65 $3 $-1 $135 1 #
point $-1 -5 -15 -10 #
cur-twe-attrib $-1 $-1 $-1 $68 42 #
face_name-twe-attrib $-1 $-1 $-1 $70 10 #
face $136 $137 $138 $3 $-1 $139 0 #
plane-surface $140 0 0 10 0 0 1 1 0 0 0 #
face_name-twe-attrib $-1 $-1 $-1 $74 7 #
face $141 $142 $143 $3 $-1 $144 0 #
loop $145 $146 $147 $74 #
cone-surface $148 15 -15 0 0 0 1 5.005 0 0 1 0 1 0 #
loop_type-twe-attrib $-1 $-1 $-1 $75 0 #
loop $149 $-1 $150 $48 #
coedge $-1 $111 $111 $151 $152 1 $75 $-1 #
surf-twe-attrib $-1 $-1 $-1 $76 48 #
loop_type-twe-attrib $-1 $-1 $-1 $78 1 #
coedge $-1 $114 $114 $153 $154 1 $78 $-1 #
coedge $-1 $115 $115 $79 $116 0 $155 $-1 #
edge $156 $157 $157 $115 $158 0 #
coedge $-1 $117 $117 $82 $118 0 $159 $-1 #
edge $160 $161 $161 $117 $162 0 #
loop $163 $155 $83 $70 #
edge_name-twe-attrib $-1 $-1 $-1 $84 5 8704 #
vertex $-1 $84 $164 #
ellipse-curve $165 15 15 10 0 0 -1 6 0 0 1 #
loop $166 $159 $85 $99 #
edge_name-twe-attrib $-1 $-1 $-1 $86 28 8704 #
vertex $-1 $86 $167 #
ellipse-curve $168 0 0 -10 0 0 1 5 0 0 1 #
loop_type-twe-attrib $-1 $-1 $-1 $87 1 #
point $-1 -5 -3.49148134940613e-14 10 #
cur-twe-attrib $-1 $-1 $-1 $90 58 #
loop_type-twe-attrib $-1 $-1 $-1 $91 1 #
point $-1 10 3.49148134940613e-14 -10 #
cur-twe-attrib $-1 $-1 $-1 $94 60 #
face_name-twe-attrib $-1 $-1 $-1 $99 16 #
face $169 $170 $171 $3 $-1 $172 1 #
plane-surface $173 0 0 -10 0 0 1 1 0 0 0 #
face_name-twe-attrib $-1 $-1 $-1 $103 11 #
face $174 $175 $176 $3 $-1 $177 0 #
loop $178 $-1 $179 $103 #
plane-surface $180 22.4997965644035 -22.4997965644036 0 0.707106781186549 -0.707106781186546 0 0 0 -1 0 #
surf-twe-attrib $-1 $-1 $-1 $104 70 #
face_name-twe-attrib $-1 $-1 $-1 $106 8 #
face $181 $70 $182 $3 $-1 $183 0 #
loop $184 $-1 $185 $106 #
plane-surface $186 -1 -25 10 0 -1 0 0 0 -1 0 #
loop_type-twe-attrib $-1 $-1 $-1 $107 0 #
loop $187 $-1 $188 $74 #
coedge $-1 $147 $147 $189 $190 1 $107 $-1 #
surf-twe-attrib $-1 $-1 $-1 $108 74 #
loop_type-twe-attrib $-1 $-1 $-1 $110 1 #
coedge $-1 $150 $150 $191 $192 1 $110 $-1 #
coedge $-1 $151 $151 $111 $152 0 $193 $-1 #
edge $194 $195 $195 $151 $196 0 #
coedge $-1 $153 $153 $114 $154 0 $197 $-1 #
edge $198 $199 $199 $153 $200 0 #
loop $201 $193 $115 $70 #
edge_name-twe-attrib $-1 $-1 $-1 $116 6 8704 #
vertex $-1 $116 $202 #
ellipse-curve $203 -15 -15 10 0 0 -1 6 0 0 1 #
loop $204 $197 $117 $99 #
edge_name-twe-attrib $-1 $-1 $-1 $118 29 8704 #
vertex $-1 $118 $205 #
ellipse-curve $206 15 15 -10 0 0 1 6 0 0 1 #
loop_type-twe-attrib $-1 $-1 $-1 $119 1 #
point $-1 9 15 10 #
cur-twe-attrib $-1 $-1 $-1 $122 84 #
loop_type-twe-attrib $-1 $-1 $-1 $123 1 #
point $-1 -5 3.49148134940613e-14 -10 #
cur-twe-attrib $-1 $-1 $-1 $126 86 #
face_name-twe-attrib $-1 $-1 $-1 $134 17 #
face $207 $-1 $208 $3 $-1 $209 1 #
loop $210 $-1 $211 $134 #
plane-surface $212 0 -30 0 0 1 0 0 0 1 0 #
surf-twe-attrib $-1 $-1 $-1 $135 99 #
face_name-twe-attrib $-1 $-1 $-1 $137 12 #
face $213 $214 $215 $3 $-1 $216 0 #
loop $217 $-1 $218 $137 #
plane-surface $219 30 1 5 0 0 1 -3.49148134940613e-15 1 0 0 #
loop_type-twe-attrib $-1 $-1 $-1 $138 0 #
coedge $-1 $220 $221 $222 $223 0 $138 $-1 #
surf-twe-attrib $-1 $-1 $-1 $139 103 #
face_name-twe-attrib $-1 $-1 $-1 $142 9 #
loop $224 $-1 $225 $142 #
plane-surface $226 -1 -30 5 0 0 1 1 0 0 0 #
loop_type-twe-attrib $-1 $-1 $-1 $143 0 #
coedge $-1 $227 $228 $229 $230 1 $143 $-1 #
surf-twe-attrib $-1 $-1 $-1 $144 106 #
loop_type-twe-attrib $-1 $-1 $-1 $146 1 #
coedge $-1 $188 $188 $231 $232 1 $146 $-1 #
coedge $-1 $189 $189 $147 $190 0 $233 $-1 #
edge $234 $235 $235 $189 $236 0 #
coedge $-1 $191 $191 $150 $192 0 $237 $-1 #
edge $238 $239 $239 $191 $240 0 #
loop $241 $233 $151 $70 #
edge_name-twe-attrib $-1 $-1 $-1 $152 7 8704 #
vertex $-1 $152 $242 #
ellipse-curve $243 -15 15 10 0 0 -1 5.005 0 0 1 #
loop $244 $237 $153 $99 #
edge_name-twe-attrib $-1 $-1 $-1 $154 30 8704 #
vertex $-1 $154 $245 #
ellipse-curve $246 -15 -15 -10 0 0 1 6 0 0 1 #
loop_type-twe-attrib $-1 $-1 $-1 $155 1 #
point $-1 -21 -15 10 #
cur-twe-attrib $-1 $-1 $-1 $158 116 #
loop_type-twe-attrib $-1 $-1 $-1 $159 1 #
point $-1 9 15 -10 #
cur-twe-attrib $-1 $-1 $-1 $162 118 #
face_name-twe-attrib $-1 $-1 $-1 $170 18 #
loop $247 $-1 $229 $170 #
plane-surface $248 -30 0 0 1 0 0 0 0 -1 0 #
loop_type-twe-attrib $-1 $-1 $-1 $171 0 #
coedge $-1 $249 $250 $251 $252 0 $171 $-1 #
surf-twe-attrib $-1 $-1 $-1 $172 134 #
face_name-twe-attrib $-1 $-1 $-1 $175 13 #
face $253 $254 $255 $3 $-1 $256 1 #
loop $257 $-1 $258 $175 #
plane-surface $259 25 0.999999999999983 10 1 3.49148134940613e-15 0 0 0 -1 0 #
loop_type-twe-attrib $-1 $-1 $-1 $176 0 #
coedge $-1 $260 $261 $262 $263 1 $176 $-1 #
surf-twe-attrib $-1 $264 $-1 $177 137 #
coedge $-1 $265 $179 $266 $267 0 $138 $-1 #
coedge $-1 $179 $268 $269 $270 1 $138 $-1 #
coedge $-1 $228 $227 $179 $223 1 $143 $-1 #
edge $271 $272 $273 $179 $274 0 #
loop_type-twe-attrib $-1 $-1 $-1 $182 0 #
coedge $-1 $251 $275 $276 $277 1 $182 $-1 #
surf-twe-attrib $-1 $278 $-1 $183 137 #
coedge $-1 $222 $185 $275 $279 0 $143 $-1 #
coedge $-1 $185 $222 $280 $281 1 $143 $-1 #
coedge $-1 $282 $276 $185 $230 0 $208 $-1 #
edge $283 $284 $285 $229 $286 0 #
coedge $-1 $231 $231 $188 $232 0 $287 $-1 #
edge $288 $289 $289 $231 $290 0 #
loop $291 $292 $189 $70 #
edge_name-twe-attrib $-1 $-1 $-1 $190 8 8704 #
vertex $-1 $190 $293 #
ellipse-curve $294 15 -15 10 0 0 -1 5.005 0 0 1 #
loop $295 $287 $191 $99 #
edge_name-twe-attrib $-1 $-1 $-1 $192 31 8704 #
vertex $-1 $192 $296 #
ellipse-curve $297 -15 15 -10 0 0 1 5.005 0 0 1 #
loop_type-twe-attrib $-1 $-1 $-1 $193 1 #
point $-1 -20.005 15 10 #
cur-twe-attrib $-1 $-1 $-1 $196 152 #
loop_type-twe-attrib $-1 $-1 $-1 $197 1 #
point $-1 -21 -15 -10 #
cur-twe-attrib $-1 $-1 $-1 $200 154 #
loop_type-twe-attrib $-1 $-1 $-1 $208 0 #
surf-twe-attrib $-1 $-1 $-1 $209 170 #
coedge $-1 $298 $211 $299 $300 0 $171 $-1 #
coedge $-1 $211 $298 $265 $301 0 $171 $-1 #
coedge $-1 $266 $225 $211 $252 1 $182 $-1 #
edge $302 $303 $304 $211 $305 0 #
face_name-twe-attrib $-1 $-1 $-1 $214 14 #
face $306 $99 $307 $3 $-1 $308 1 #
loop $309 $-1 $310 $214 #
plane-surface $311 0 30 0 0 -1 0 0 0 -1 0 #
loop_type-twe-attrib $-1 $-1 $-1 $215 0 #
coedge $-1 $312 $313 $310 $314 1 $215 $-1 #
surf-twe-attrib $-1 $-1 $-1 $216 175 #
coedge $-1 $315 $218 $313 $316 1 $176 $-1 #
coedge $-1 $218 $315 $317 $318 1 $176 $-1 #
coedge $-1 $319 $310 $218 $263 0 $255 $-1 #
edge $320 $321 $322 $262 $323 0 #
surf-twe-attrib $-1 $-1 $219 $177 142 #
coedge $-1 $324 $220 $250 $301 1 $138 $-1 #
coedge $-1 $275 $251 $220 $267 1 $182 $-1 #
edge $325 $273 $303 $220 $326 0 #
coedge $-1 $221 $327 $328 $329 0 $138 $-1 #
coedge $-1 $330 $280 $221 $270 0 $292 $-1 #
edge $331 $272 $332 $269 $333 0 #
edge_name-twe-attrib $-1 $-1 $-1 $223 12 8448 #
vertex $-1 $223 $334 #
vertex $-1 $267 $335 #
straight-curve $336 19.9995931288072 -25 5 0 0 -1 #
coedge $-1 $225 $266 $227 $279 1 $182 $-1 #
coedge $-1 $229 $299 $225 $277 0 $208 $-1 #
edge $337 $304 $284 $276 $338 0 #
surf-twe-attrib $-1 $-1 $226 $183 142 #
edge $339 $284 $273 $227 $340 0 #
coedge $-1 $269 $341 $228 $281 0 $292 $-1 #
edge $342 $285 $272 $280 $343 0 #
coedge $-1 $344 $229 $341 $345 1 $208 $-1 #
edge_name-twe-attrib $-1 $-1 $-1 $230 37 8704 #
vertex $-1 $277 $346 #
vertex $-1 $345 $347 #
straight-curve $348 -30 -25 5 0 0 1 #
loop $349 $350 $231 $99 #
edge_name-twe-attrib $-1 $-1 $-1 $232 32 8704 #
vertex $-1 $232 $351 #
ellipse-curve $352 15 -15 -10 0 0 1 5.005 0 0 1 #
loop_type-twe-attrib $-1 $-1 $-1 $233 1 #
loop $353 $-1 $280 $70 #
point $-1 9.995 -15 10 #
cur-twe-attrib $-1 $-1 $-1 $236 190 #
loop_type-twe-attrib $-1 $-1 $-1 $237 1 #
point $-1 -20.005 15 -10 #
cur-twe-attrib $-1 $-1 $-1 $240 192 #
coedge $-1 $250 $249 $354 $355 1 $171 $-1 #
coedge $-1 $276 $356 $249 $300 1 $208 $-1 #
edge $357 $304 $358 $299 $359 0 #
edge $360 $361 $303 $250 $362 0 #
edge_name-twe-attrib $-1 $-1 $-1 $252 34 8704 #
vertex $-1 $301 $363 #
vertex $-1 $252 $364 #
straight-curve $365 -0.5 -30 5 -1 0 0 #
face_name-twe-attrib $-1 $-1 $-1 $254 15 #
loop $366 $-1 $317 $254 #
plane-surface $367 30 0 0 -1 0 0 0 0 1 0 #
loop_type-twe-attrib $-1 $-1 $-1 $255 0 #
coedge $-1 $262 $368 $258 $314 0 $255 $-1 #
surf-twe-attrib $-1 $-1 $-1 $256 214 #
coedge $-1 $328 $258 $330 $369 1 $215 $-1 #
coedge $-1 $258 $328 $260 $316 0 $215 $-1 #
edge $370 $371 $321 $310 $372 0 #
coedge $-1 $261 $260 $327 $373 1 $176 $-1 #
edge $374 $375 $321 $313 $376 0 #
coedge $-1 $377 $378 $261 $318 0 $307 $-1 #
edge $379 $322 $380 $317 $381 0 #
coedge $-1 $382 $262 $378 $383 0 $255 $-1 #
edge_name-twe-attrib $-1 $-1 $-1 $263 18 8704 #
vertex $-1 $263 $384 #
vertex $-1 $318 $385 #
straight-curve $386 15 30 5 1 0 0 #
coedge $-1 $387 $265 $388 $389 1 $138 $-1 #
edge_name-twe-attrib $-1 $-1 $-1 $267 13 8704 #
straight-curve $390 14.7497965644036 -30.2497965644036 5 -0.707106781186546 -0.707106781186549 0 #
coedge $-1 $268 $387 $315 $373 0 $138 $-1 #
coedge $-1 $313 $312 $268 $329 1 $215 $-1 #
edge $391 $375 $332 $268 $392 0 #
coedge $-1 $393 $269 $312 $369 0 $292 $-1 #
edge_name-twe-attrib $-1 $-1 $-1 $270 10 8704 #
vertex $-1 $270 $394 #
straight-curve $395 22.4997965644036 -22.4997965644036 10 0.707106781186546 0.707106781186549 0 #
point $-1 19.9995931288072 -25 10 #
point $-1 19.9995931288072 -25 5 #
cur-twe-attrib $-1 $-1 $-1 $274 223 #
edge_name-twe-attrib $-1 $-1 $-1 $277 41 8704 #
straight-curve $396 -30 -15 5 0 1 0 #
edge_name-twe-attrib $-1 $-1 $-1 $279 1 4608 #
straight-curve $397 -1 -25 5 1 0 0 #
coedge $-1 $280 $393 $282 $345 0 $292 $-1 #
edge_name-twe-attrib $-1 $-1 $-1 $281 9 8704 #
straight-curve $398 -0.5 -25 10 1 0 0 #
coedge $-1 $356 $282 $399 $400 0 $208 $-1 #
edge $401 $402 $285 $282 $403 0 #
point $-1 -30 -25 5 #
point $-1 -30 -25 10 #
cur-twe-attrib $-1 $-1 $-1 $286 230 #
loop_type-twe-attrib $-1 $-1 $-1 $287 1 #
loop $404 $-1 $388 $99 #
point $-1 9.995 -15 -10 #
cur-twe-attrib $-1 $-1 $-1 $290 232 #
loop_type-twe-attrib $-1 $-1 $-1 $292 0 #
coedge $-1 $405 $388 $298 $355 0 $350 $-1 #
edge $406 $361 $358 $298 $407 0 #
coedge $-1 $299 $344 $405 $408 1 $208 $-1 #
edge_name-twe-attrib $-1 $-1 $-1 $300 40 8704 #
vertex $-1 $408 $409 #
straight-curve $410 -30 -30 0 0 0 -1 #
edge_name-twe-attrib $-1 $-1 $-1 $301 36 8448 #
vertex $-1 $301 $411 #
straight-curve $412 14.9995931288072 -30 0 0 0 1 #
point $-1 14.9995931288072 -30 5 #
point $-1 -30 -30 5 #
cur-twe-attrib $-1 $-1 $-1 $305 252 #
loop_type-twe-attrib $-1 $-1 $-1 $307 0 #
surf-twe-attrib $-1 $-1 $-1 $308 254 #
coedge $-1 $310 $399 $393 $413 1 $255 $-1 #
edge $414 $332 $371 $330 $415 0 #
edge_name-twe-attrib $-1 $-1 $-1 $314 17 8704 #
vertex $-1 $369 $416 #
straight-curve $417 24.9999999999999 30 5 0 0 -1 #
edge $418 $380 $375 $327 $419 0 #
edge_name-twe-attrib $-1 $-1 $-1 $316 16 4608 #
vertex $-1 $373 $420 #
straight-curve $421 25 0.999999999999983 5 -3.49148134940613e-15 1 0 #
coedge $-1 $422 $317 $387 $423 0 $307 $-1 #
coedge $-1 $317 $422 $319 $383 1 $307 $-1 #
edge_name-twe-attrib $-1 $-1 $-1 $318 22 8704 #
vertex $-1 $373 $424 #
straight-curve $425 30 0.5 5 0 -1 0 #
coedge $-1 $399 $319 $426 $427 1 $255 $-1 #
edge $428 $322 $429 $378 $430 0 #
point $-1 24.9999999999999 30 5 #
point $-1 30 30 5 #
cur-twe-attrib $-1 $-1 $-1 $323 263 #
coedge $-1 $327 $324 $377 $423 1 $138 $-1 #
coedge $-1 $354 $431 $324 $389 0 $350 $-1 #
edge $432 $433 $361 $388 $434 0 #
cur-twe-attrib $-1 $435 $-1 $326 373 #
edge_name-twe-attrib $-1 $-1 $-1 $329 15 8448 #
straight-curve $436 25.0000000000001 -19.9995931288071 5 0 0 1 #
coedge $-1 $341 $330 $368 $413 0 $292 $-1 #
point $-1 25.0000000000001 -19.9995931288071 10 #
cur-twe-attrib $-1 $-1 $-1 $333 270 #
cur-twe-attrib $-1 $-1 $-1 $338 277 #
cur-twe-attrib $-1 $-1 $-1 $340 279 #
cur-twe-attrib $-1 $-1 $-1 $343 281 #
coedge $-1 $368 $382 $344 $400 1 $255 $-1 #
edge $437 $402 $438 $399 $439 0 #
edge_name-twe-attrib $-1 $-1 $-1 $345 38 8704 #
vertex $-1 $413 $440 #
straight-curve $441 -30 0 10 0 -1 0 #
loop_type-twe-attrib $-1 $-1 $-1 $350 0 #
coedge $-1 $426 $354 $356 $408 0 $350 $-1 #
edge_name-twe-attrib $-1 $-1 $-1 $355 35 8704 #
straight-curve $442 0 -30 -10 -1 0 0 #
edge $443 $358 $438 $356 $444 0 #
point $-1 -30 -30 -10 #
cur-twe-attrib $-1 $-1 $-1 $359 300 #
point $-1 14.9995931288072 -30 -10 #
cur-twe-attrib $-1 $-1 $-1 $362 301 #
edge $445 $371 $402 $368 $446 0 #
edge_name-twe-attrib $-1 $-1 $-1 $369 11 8704 #
straight-curve $447 25 0.500000000000035 10 -3.49148134940613e-15 1 0 #
point $-1 24.9999999999999 30 10 #
cur-twe-attrib $-1 $-1 $-1 $372 314 #
edge_name-twe-attrib $-1 $-1 $-1 $373 14 8704 #
straight-curve $448 30.2497965644035 -14.7497965644036 5 -0.707106781186546 -0.707106781186549 0 #
point $-1 25.0000000000001 -19.9995931288071 5 #
cur-twe-attrib $-1 $-1 $-1 $376 316 #
coedge $-1 $378 $377 $431 $449 1 $307 $-1 #
edge $450 $380 $433 $377 $451 0 #
point $-1 30 -14.9995931288071 5 #
cur-twe-attrib $-1 $-1 $-1 $381 318 #
coedge $-1 $431 $405 $382 $427 0 $350 $-1 #
edge $452 $438 $429 $382 $453 0 #
edge_name-twe-attrib $-1 $-1 $-1 $383 25 8704 #
vertex $-1 $449 $454 #
straight-curve $455 30 30 0 0 0 -1 #
coedge $-1 $388 $426 $422 $449 0 $350 $-1 #
edge_name-twe-attrib $-1 $-1 $-1 $389 33 8704 #
vertex $-1 $449 $456 #
straight-curve $457 22.4997965644036 -22.4997965644036 -10 -0.707106781186546 -0.707106781186549 0 #
cur-twe-attrib $-1 $-1 $390 $326 267 #
cur-twe-attrib $-1 $-1 $-1 $392 329 #
edge_name-twe-attrib $-1 $-1 $-1 $400 20 8704 #
vertex $-1 $427 $458 #
straight-curve $459 -30 30 0 0 0 -1 #
point $-1 -30 30 10 #
cur-twe-attrib $-1 $-1 $-1 $403 345 #
cur-twe-attrib $-1 $-1 $-1 $407 355 #
edge_name-twe-attrib $-1 $-1 $-1 $408 39 8704 #
straight-curve $460 -30 0 -10 0 1 0 #
edge_name-twe-attrib $-1 $-1 $-1 $413 21 8704 #
straight-curve $461 0 30 10 -1 0 0 #
cur-twe-attrib $-1 $-1 $-1 $415 369 #
cur-twe-attrib $-1 $462 $-1 $419 373 #
edge $463 $429 $433 $422 $464 0 #
edge_name-twe-attrib $-1 $-1 $-1 $423 23 8448 #
straight-curve $465 30 -14.9995931288071 0 0 0 -1 #
edge_name-twe-attrib $-1 $-1 $-1 $427 19 8704 #
straight-curve $466 0 30 -10 1 0 0 #
point $-1 30 30 -10 #
cur-twe-attrib $-1 $-1 $-1 $430 383 #
point $-1 30 -14.9995931288071 -10 #
cur-twe-attrib $-1 $-1 $-1 $434 389 #
point $-1 -30 30 -10 #
cur-twe-attrib $-1 $-1 $-1 $439 400 #
cur-twe-attrib $-1 $-1 $-1 $444 408 #
cur-twe-attrib $-1 $-1 $-1 $446 413 #
cur-twe-attrib $-1 $-1 $448 $419 267 #
edge_name-twe-attrib $-1 $-1 $-1 $449 24 8704 #
straight-curve $467 30 0 -10 0 -1 0 #
cur-twe-attrib $-1 $-1 $-1 $451 423 #
cur-twe-attrib $-1 $-1 $-1 $453 427 #
cur-twe-attrib $-1 $-1 $-1 $464 449 #
