**ABCDEFGHIJKLMNOPQRSTUVWXYZabcdefghijklmnopqrstuvwxyz**************************
**PARASOLID !"#$%&'()*+,-./:;<=>?@[\]^_`{|}~0123456789**************************
**PART1;MC=sun;MC_MODEL=sun3;MC_ID=cosmos;OS=SunOS;OS_RELEASE=4.1;FRU=sdl_paraso
lid_test_sun;APPL=unknown;SITE=sdl-cambridge-u.k.;USER=kramer;FORMAT=text;GUISE=
transmit;KEY=cylinder_cutoff3;FILE=cylinder_cutoff3.xmt_txt;DATE=4-dec-1991;
**PART2;SCH=SCH_301017_3000;USFLD_SIZE=0;
**PART3;
**END_OF_HEADER*****************************************************************
T50 : TRANSMIT FILE created by modeller version 30101715 SCH_301017_30000 12 1 3
25 0 0 0 0 0 1e3 1e-8 2 2 0 0 3 1 4 102 16 2 cylinder_cutoff313 4 322 0 1 0 5 6
 7 8 9 10 14 5 250 0 11 0 12 4 8 -16 6 257 0 13 0 14 9 18 7 272 0 13 0 15 10 50
 8 289 0 5 16 0 0 +1 0 0 -.707106781186548 0 -.707106781186548 -.707106781186548
 0 .707106781186548 32 9 293 0 6 17 0 0 -0 0 1 -.707106781186548 0 -.70710678118
6548 -.707106781186548 0 .707106781186548 2.82842712474619 2 29 10 308 0 7 18 0
 1 -1.732050807568875 0 29 18 102 0 15 0 10 1 1.732050807568875 0 18 15 101 0 19
 7 0 18 17 19 20 21 21 15 13 6 15 20 221 0 19 11 0 17 21 20 19 19 7 22 14 17 13
 12 23 23 7 19 6 15 12 251 0 23 5 0 17 23 12 13 13 15 24 25 17 24 26 22 22 7 23
 25 16 25 114 0 23 14 0 27 16 14 3 0 21 6 25 17 30 27 116 0 25 0 17 0 +1 0 0 0 1
 0 31 17 7 0 14 27 9 0 +0 0 0 0 0 1 1 0 0 2 15 26 115 0 24 28 0 17 22 26 24 24 1
5 21 14 14 28 6 0 0 11 26 4 16 +14 11 1 0 28 5 20 4 29 +50 16 8 0 28 29 8 0 +0 0
 0 0 0 -1 -1 0 0 51 29 15 0 11 0 16 0 +0 0 0 0 0 1 2 1 0 0 1 0 
