  0
SECTION
  2
HEADER
  9
$ACADVER
  1
AC1009
  9
$INSBASE
 10
0.0
 20
0.0
 30
0.0
  9
$EXTMIN
 10
0.0
 20
0.0
 30
0.0
  9
$EXTMAX
 10
20.0
 20
18.0
 30
16.0
  9
$LIMMIN
 10
0.0
 20
0.0
  9
$LIMMAX
 10
12.0
 20
9.0
  9
$ORTHOMODE
 70
     0
  9
$REGENMODE
 70
     1
  9
$FILLMODE
 70
     1
  9
$QTEXTMODE
 70
     0
  9
$MIRRTEXT
 70
     1
  9
$DRAGMODE
 70
     2
  9
$LTSCALE
 40
1.0
  9
$OSMODE
 70
     0
  9
$ATTMODE
 70
     1
  9
$TEXTSIZE
 40
0.2
  9
$TRACEWID
 40
0.05
  9
$TEXTSTYLE
  7
STANDARD
  9
$CLAYER
  8
0
  9
$CELTYPE
  6
BYLAYER
  9
$CECOLOR
 62
   256
  9
$DIMSCALE
 40
1.0
  9
$DIMASZ
 40
0.18
  9
$DIMEXO
 40
0.0625
  9
$DIMDLI
 40
0.38
  9
$DIMRND
 40
0.0
  9
$DIMDLE
 40
0.0
  9
$DIMEXE
 40
0.18
  9
$DIMTP
 40
0.0
  9
$DIMTM
 40
0.0
  9
$DIMTXT
 40
0.18
  9
$DIMCEN
 40
0.09
  9
$DIMTSZ
 40
0.0
  9
$DIMTOL
 70
     0
  9
$DIMLIM
 70
     0
  9
$DIMTIH
 70
     1
  9
$DIMTOH
 70
     1
  9
$DIMSE1
 70
     0
  9
$DIMSE2
 70
     0
  9
$DIMTAD
 70
     0
  9
$DIMZIN
 70
     0
  9
$DIMBLK
  1

  9
$DIMASO
 70
     1
  9
$DIMSHO
 70
     1
  9
$DIMPOST
  1

  9
$DIMAPOST
  1

  9
$DIMALT
 70
     0
  9
$DIMALTD
 70
     2
  9
$DIMALTF
 40
25.4
  9
$DIMLFAC
 40
1.0
  9
$DIMTOFL
 70
     0
  9
$DIMTVP
 40
0.0
  9
$DIMTIX
 70
     0
  9
$DIMSOXD
 70
     0
  9
$DIMSAH
 70
     0
  9
$DIMBLK1
  1

  9
$DIMBLK2
  1

  9
$DIMSTYLE
  2
*UNNAMED
  9
$DIMCLRD
 70
     0
  9
$DIMCLRE
 70
     0
  9
$DIMCLRT
 70
     0
  9
$DIMTFAC
 40
1.0
  9
$DIMGAP
 40
0.09
  9
$LUNITS
 70
     2
  9
$LUPREC
 70
     4
  9
$SKETCHINC
 40
0.1
  9
$FILLETRAD
 40
0.0
  9
$AUNITS
 70
     0
  9
$AUPREC
 70
     0
  9
$MENU
  1
acad
  9
$ELEVATION
 40
0.0
  9
$PELEVATION
 40
0.0
  9
$THICKNESS
 40
0.0
  9
$LIMCHECK
 70
     0
  9
$BLIPMODE
 70
     1
  9
$CHAMFERA
 40
0.0
  9
$CHAMFERB
 40
0.0
  9
$SKPOLY
 70
     0
  9
$TDCREATE
 40
2449378.549798518
  9
$TDUPDATE
 40
2449378.562642604
  9
$TDINDWG
 40
0.0128440856
  9
$TDUSRTIMER
 40
0.0128440856
  9
$USRTIMER
 70
     1
  9
$ANGBASE
 50
0.0
  9
$ANGDIR
 70
     0
  9
$PDMODE
 70
     0
  9
$PDSIZE
 40
0.0
  9
$PLINEWID
 40
0.0
  9
$COORDS
 70
     1
  9
$SPLFRAME
 70
     0
  9
$SPLINETYPE
 70
     6
  9
$SPLINESEGS
 70
     8
  9
$ATTDIA
 70
     0
  9
$ATTREQ
 70
     1
  9
$HANDLING
 70
     1
  9
$HANDSEED
  5
193
  9
$SURFTAB1
 70
     6
  9
$SURFTAB2
 70
     6
  9
$SURFTYPE
 70
     6
  9
$SURFU
 70
     6
  9
$SURFV
 70
     6
  9
$UCSNAME
  2

  9
$UCSORG
 10
0.0
 20
0.0
 30
0.0
  9
$UCSXDIR
 10
1.0
 20
0.0
 30
0.0
  9
$UCSYDIR
 10
0.0
 20
1.0
 30
0.0
  9
$PUCSNAME
  2

  9
$PUCSORG
 10
0.0
 20
0.0
 30
0.0
  9
$PUCSXDIR
 10
1.0
 20
0.0
 30
0.0
  9
$PUCSYDIR
 10
0.0
 20
1.0
 30
0.0
  9
$USERI1
 70
     0
  9
$USERI2
 70
     0
  9
$USERI3
 70
     0
  9
$USERI4
 70
     0
  9
$USERI5
 70
     0
  9
$USERR1
 40
0.0
  9
$USERR2
 40
0.0
  9
$USERR3
 40
0.0
  9
$USERR4
 40
0.0
  9
$USERR5
 40
0.0
  9
$WORLDVIEW
 70
     1
  9
$SHADEDGE
 70
     3
  9
$SHADEDIF
 70
    70
  9
$TILEMODE
 70
     1
  9
$MAXACTVP
 70
    16
  9
$PINSBASE
 10
0.0
 20
0.0
 30
0.0
  9
$PLIMCHECK
 70
     0
  9
$PEXTMIN
 10
1.000000E+20
 20
1.000000E+20
 30
1.000000E+20
  9
$PEXTMAX
 10
-1.000000E+20
 20
-1.000000E+20
 30
-1.000000E+20
  9
$PLIMMIN
 10
0.0
 20
0.0
  9
$PLIMMAX
 10
12.0
 20
9.0
  9
$UNITMODE
 70
     0
  9
$VISRETAIN
 70
     0
  9
$PLINEGEN
 70
     0
  9
$PSLTSCALE
 70
     1
  9
$TREEDEPTH
 70
  3020
  9
$DWGCODEPAGE
  3
ascii
  0
ENDSEC
  0
SECTION
  2
TABLES
  0
TABLE
  2
VPORT
 70
     2
  0
VPORT
  2
*ACTIVE
 70
     0
 10
0.0
 20
0.0
 11
1.0
 21
1.0
 12
10.719626
 22
-6.350853
 13
0.0
 23
0.0
 14
1.0
 24
1.0
 15
0.0
 25
0.0
 16
1.0
 26
1.0
 36
2.0
 17
0.0
 27
0.0
 37
0.0
 40
31.176915
 41
1.594883
 42
50.0
 43
0.0
 44
0.0
 50
0.0
 51
0.0
 71
     0
 72
   100
 73
     1
 74
     1
 75
     0
 76
     0
 77
     0
 78
     0
  0
ENDTAB
  0
TABLE
  2
LTYPE
 70
     1
  0
LTYPE
  2
CONTINUOUS
 70
    64
  3
Solid line
 72
    65
 73
     0
 40
0.0
  0
ENDTAB
  0
TABLE
  2
LAYER
 70
     2
  0
LAYER
  2
0
 70
    64
 62
     7
  6
CONTINUOUS
  0
LAYER
  2
AME_FRZ
 70
    65
 62
     7
  6
CONTINUOUS
  0
ENDTAB
  0
TABLE
  2
STYLE
 70
     1
  0
STYLE
  2
STANDARD
 70
     0
 40
0.0
 41
1.0
 50
0.0
 71
     0
 42
0.2
  3
txt
  4

  0
ENDTAB
  0
TABLE
  2
VIEW
 70
     0
  0
ENDTAB
  0
TABLE
  2
UCS
 70
     0
  0
ENDTAB
  0
TABLE
  2
APPID
 70
     3
  0
APPID
  2
ACAD
 70
    64
  0
APPID
  2
AME_SOL
 70
    64
  0
APPID
  2
AVE_INVOKE
 70
    64
  0
ENDTAB
  0
TABLE
  2
DIMSTYLE
 70
     0
  0
ENDTAB
  0
ENDSEC
  0
SECTION
  2
BLOCKS
  0
BLOCK
  8
0
  5
1
  2
AME_NIL
 70
    64
 10
0.0
 20
0.0
 30
0.0
  1
AME_NIL
  3
AME_NIL
  0
ENDBLK
  8
0
  5
2
  0
BLOCK
  8
0
  5
4
  2
AME_SOL
 70
    64
 10
0.0
 20
0.0
 30
0.0
  1
AME_SOL
  3
AME_SOL
  0
ENDBLK
  8
0
  5
5
  0
BLOCK
  8
0
  5
BB
  2
AME_JNK
 70
     0
 10
0.0
 20
0.0
 30
0.0
  1
AME_JNK
  3
AME_JNK
  0
ENDBLK
  8
0
  5
BC
  0
BLOCK
  8
0
  5
145
  2
*U14
 70
    65
 10
0.0
 20
0.0
 30
0.0
  1
*U
  3
*U
  0
LINE
  8
0
 62
     7
  5
146
 10
13.0
 20
6.0
 30
5.0
 11
13.0
 21
6.0
 31
6.0
1001
AME_SOL
1070
     1
1071
       79
  0
LINE
  8
0
 62
     7
  5
147
 10
7.0
 20
6.0
 30
6.0
 11
13.0
 21
6.0
 31
6.0
1001
AME_SOL
1070
     1
1071
       78
  0
LINE
  8
0
 62
     7
  5
148
 10
13.0
 20
6.0
 30
6.0
 11
13.0
 21
0.0
 31
6.0
1001
AME_SOL
1070
     1
1071
       77
  0
LINE
  8
0
 62
     7
  5
149
 10
7.0
 20
6.0
 30
5.0
 11
7.0
 21
6.0
 31
6.0
1001
AME_SOL
1070
     1
1071
       76
  0
LINE
  8
0
 62
     7
  5
14A
 10
7.0
 20
6.0
 30
6.0
 11
7.0
 21
0.0
 31
6.0
1001
AME_SOL
1070
     1
1071
       75
  0
LINE
  8
0
 62
     7
  5
14B
 10
13.0
 20
0.0
 30
6.0
 11
13.0
 21
0.0
 31
4.0
1001
AME_SOL
1070
     1
1071
       74
  0
LINE
  8
0
 62
     7
  5
14C
 10
7.0
 20
0.0
 30
4.0
 11
7.0
 21
0.0
 31
6.0
1001
AME_SOL
1070
     1
1071
       73
  0
LINE
  8
0
 62
     7
  5
14D
 10
7.0
 20
0.0
 30
6.0
 11
13.0
 21
0.0
 31
6.0
1001
AME_SOL
1070
     1
1071
       72
  0
LINE
  8
0
 62
     7
  5
14E
 10
7.0
 20
0.0
 30
4.0
 11
13.0
 21
0.0
 31
4.0
1001
AME_SOL
1070
     1
1071
       71
  0
LINE
  8
0
 62
     7
  5
14F
 10
13.0
 20
0.0
 30
4.0
 11
13.0
 21
12.0
 31
4.0
1001
AME_SOL
1070
     1
1071
       70
  0
LINE
  8
0
 62
     7
  5
150
 10
7.0
 20
12.0
 30
4.0
 11
7.0
 21
0.0
 31
4.0
1001
AME_SOL
1070
     1
1071
       69
  0
LINE
  8
0
 62
     7
  5
151
 10
7.0
 20
6.0
 30
5.0
 11
13.0
 21
6.0
 31
5.0
1001
AME_SOL
1070
     1
1071
       68
  0
LINE
  8
0
 62
     7
  5
152
 10
13.0
 20
12.0
 30
5.0
 11
13.0
 21
6.0
 31
5.0
1001
AME_SOL
1070
     1
1071
       67
  0
LINE
  8
0
 62
     7
  5
153
 10
7.0
 20
6.0
 30
5.0
 11
7.0
 21
12.0
 31
5.0
1001
AME_SOL
1070
     1
1071
       66
  0
LINE
  8
0
 62
     7
  5
154
 10
6.0
 20
12.0
 30
6.0
 11
6.0
 21
18.0
 31
6.0
1001
AME_SOL
1070
     1
1071
       65
  0
LINE
  8
0
 62
     7
  5
155
 10
6.0
 20
12.0
 30
5.0
 11
6.0
 21
18.0
 31
5.0
1001
AME_SOL
1070
     1
1071
       64
  0
LINE
  8
0
 62
     7
  5
156
 10
6.0
 20
18.0
 30
5.0
 11
6.0
 21
18.0
 31
6.0
1001
AME_SOL
1070
     1
1071
       63
  0
LINE
  8
0
 62
     7
  5
157
 10
6.0
 20
18.0
 30
6.0
 11
0.0
 21
18.0
 31
6.0
1001
AME_SOL
1070
     1
1071
       62
  0
LINE
  8
0
 62
     7
  5
158
 10
20.0
 20
18.0
 30
6.0
 11
14.0
 21
18.0
 31
6.0
1001
AME_SOL
1070
     1
1071
       61
  0
LINE
  8
0
 62
     7
  5
159
 10
14.0
 20
18.0
 30
5.0
 11
6.0
 21
18.0
 31
5.0
1001
AME_SOL
1070
     1
1071
       60
  0
LINE
  8
0
 62
     7
  5
15A
 10
12.0
 20
18.0
 30
4.0
 11
20.0
 21
18.0
 31
4.0
1001
AME_SOL
1070
     1
1071
       59
  0
LINE
  8
0
 62
     7
  5
15B
 10
0.0
 20
18.0
 30
4.0
 11
8.0
 21
18.0
 31
4.0
1001
AME_SOL
1070
     1
1071
       58
  0
LINE
  8
0
 62
     7
  5
15C
 10
0.0
 20
18.0
 30
6.0
 11
0.0
 21
12.0
 31
6.0
1001
AME_SOL
1070
     1
1071
       57
  0
LINE
  8
0
 62
     7
  5
15D
 10
0.0
 20
12.0
 30
4.0
 11
0.0
 21
18.0
 31
4.0
1001
AME_SOL
1070
     1
1071
       56
  0
LINE
  8
0
 62
     7
  5
15E
 10
0.0
 20
18.0
 30
4.0
 11
0.0
 21
18.0
 31
6.0
1001
AME_SOL
1070
     1
1071
       55
  0
LINE
  8
0
 62
     7
  5
15F
 10
6.0
 20
12.0
 30
6.0
 11
6.0
 21
12.0
 31
5.0
1001
AME_SOL
1070
     1
1071
       54
  0
LINE
  8
0
 62
     7
  5
160
 10
0.0
 20
12.0
 30
4.0
 11
0.0
 21
12.0
 31
6.0
1001
AME_SOL
1070
     1
1071
       53
  0
LINE
  8
0
 62
     7
  5
161
 10
13.0
 20
12.0
 30
5.0
 11
13.0
 21
12.0
 31
4.0
1001
AME_SOL
1070
     1
1071
       52
  0
LINE
  8
0
 62
     7
  5
162
 10
7.0
 20
12.0
 30
4.0
 11
7.0
 21
12.0
 31
5.0
1001
AME_SOL
1070
     1
1071
       51
  0
LINE
  8
0
 62
     7
  5
163
 10
14.0
 20
12.0
 30
6.0
 11
20.0
 21
12.0
 31
6.0
1001
AME_SOL
1070
     1
1071
       50
  0
LINE
  8
0
 62
     7
  5
164
 10
0.0
 20
12.0
 30
6.0
 11
6.0
 21
12.0
 31
6.0
1001
AME_SOL
1070
     1
1071
       49
  0
LINE
  8
0
 62
     7
  5
165
 10
13.0
 20
12.0
 30
5.0
 11
14.0
 21
12.0
 31
5.0
1001
AME_SOL
1070
     1
1071
       48
  0
LINE
  8
0
 62
     7
  5
166
 10
6.0
 20
12.0
 30
5.0
 11
7.0
 21
12.0
 31
5.0
1001
AME_SOL
1070
     1
1071
       47
  0
LINE
  8
0
 62
     7
  5
167
 10
7.0
 20
12.0
 30
4.0
 11
0.0
 21
12.0
 31
4.0
1001
AME_SOL
1070
     1
1071
       46
  0
LINE
  8
0
 62
     7
  5
168
 10
12.0
 20
12.0
 30
4.0
 11
8.0
 21
12.0
 31
4.0
1001
AME_SOL
1070
     1
1071
       45
  0
LINE
  8
0
 62
     7
  5
169
 10
20.0
 20
12.0
 30
4.0
 11
13.0
 21
12.0
 31
4.0
1001
AME_SOL
1070
     1
1071
       44
  0
LINE
  8
0
 62
     7
  5
16A
 10
20.0
 20
12.0
 30
6.0
 11
20.0
 21
18.0
 31
6.0
1001
AME_SOL
1070
     1
1071
       43
  0
LINE
  8
0
 62
     7
  5
16B
 10
20.0
 20
18.0
 30
4.0
 11
20.0
 21
12.0
 31
4.0
1001
AME_SOL
1070
     1
1071
       42
  0
LINE
  8
0
 62
     7
  5
16C
 10
20.0
 20
18.0
 30
6.0
 11
20.0
 21
18.0
 31
4.0
1001
AME_SOL
1070
     1
1071
       41
  0
LINE
  8
0
 62
     7
  5
16D
 10
20.0
 20
12.0
 30
4.0
 11
20.0
 21
12.0
 31
6.0
1001
AME_SOL
1070
     1
1071
       40
  0
LINE
  8
0
 62
     7
  5
16E
 10
14.0
 20
18.0
 30
6.0
 11
14.0
 21
12.0
 31
6.0
1001
AME_SOL
1070
     1
1071
       39
  0
LINE
  8
0
 62
     7
  5
16F
 10
14.0
 20
18.0
 30
5.0
 11
14.0
 21
12.0
 31
5.0
1001
AME_SOL
1070
     1
1071
       38
  0
LINE
  8
0
 62
     7
  5
170
 10
14.0
 20
18.0
 30
5.0
 11
14.0
 21
18.0
 31
6.0
1001
AME_SOL
1070
     1
1071
       37
  0
LINE
  8
0
 62
     7
  5
171
 10
14.0
 20
12.0
 30
6.0
 11
14.0
 21
12.0
 31
5.0
1001
AME_SOL
1070
     1
1071
       36
  0
LINE
  8
0
 62
     7
  5
172
 10
12.0
 20
18.0
 30
4.0
 11
12.0
 21
12.0
 31
4.0
1001
AME_SOL
1070
     1
1071
       35
  0
LINE
  8
0
 62
     7
  5
173
 10
12.0
 20
18.0
 30
4.0
 11
12.0
 21
18.0
 31
0.0
1001
AME_SOL
1070
     1
1071
       34
  0
LINE
  8
0
 62
     7
  5
174
 10
12.0
 20
12.0
 30
0.0
 11
12.0
 21
12.0
 31
4.0
1001
AME_SOL
1070
     1
1071
       33
  0
LINE
  8
0
 62
     7
  5
175
 10
8.0
 20
12.0
 30
4.0
 11
8.0
 21
18.0
 31
4.0
1001
AME_SOL
1070
     1
1071
       32
  0
LINE
  8
0
 62
     7
  5
176
 10
8.0
 20
18.0
 30
0.0
 11
8.0
 21
18.0
 31
4.0
1001
AME_SOL
1070
     1
1071
       31
  0
LINE
  8
0
 62
     7
  5
177
 10
8.0
 20
12.0
 30
4.0
 11
8.0
 21
12.0
 31
0.0
1001
AME_SOL
1070
     1
1071
       30
  0
LINE
  8
0
 62
     7
  5
178
 10
12.0
 20
12.0
 30
0.0
 11
12.0
 21
18.0
 31
0.0
1001
AME_SOL
1070
     1
1071
       29
  0
LINE
  8
0
 62
     7
  5
179
 10
12.0
 20
18.0
 30
0.0
 11
8.0
 21
18.0
 31
0.0
1001
AME_SOL
1070
     1
1071
       28
  0
LINE
  8
0
 62
     7
  5
17A
 10
8.0
 20
18.0
 30
0.0
 11
8.0
 21
12.0
 31
0.0
1001
AME_SOL
1070
     1
1071
       27
  0
LINE
  8
0
 62
     7
  5
17B
 10
8.0
 20
12.0
 30
0.0
 11
12.0
 21
12.0
 31
0.0
1001
AME_SOL
1070
     1
1071
       26
  0
CIRCLE
  8
0
 62
     7
  5
17C
 10
10.0
 20
3.0
 30
6.0
 40
1.0
1001
AME_SOL
1070
     1
1071
       25
  0
CIRCLE
  8
0
 62
     7
  5
17D
 10
10.0
 20
3.0
 30
4.0
 40
1.0
1001
AME_SOL
1070
     1
1071
       24
  0
CIRCLE
  8
0
 62
     7
  5
17E
 10
17.0
 20
15.0
 30
6.0
 40
1.0
1001
AME_SOL
1070
     1
1071
       23
  0
CIRCLE
  8
0
 62
     7
  5
17F
 10
17.0
 20
15.0
 30
4.0
 40
1.0
1001
AME_SOL
1070
     1
1071
       22
  0
CIRCLE
  8
0
 62
     7
  5
180
 10
3.0
 20
15.0
 30
6.0
 40
1.0
1001
AME_SOL
1070
     1
1071
       21
  0
CIRCLE
  8
0
 62
     7
  5
181
 10
3.0
 20
15.0
 30
4.0
 40
1.0
1001
AME_SOL
1070
     1
1071
       20
  0
LINE
  8
0
 62
     7
  5
182
 10
9.0
 20
3.0
 30
4.0
 11
9.0
 21
3.0
 31
6.0
1001
AME_SOL
1070
     0
1071
        3
  0
LINE
  8
0
 62
     7
  5
183
 10
10.0
 20
2.0
 30
4.0
 11
10.0
 21
2.0
 31
6.0
1001
AME_SOL
1070
     0
1071
        3
  0
LINE
  8
0
 62
     7
  5
184
 10
11.0
 20
3.0
 30
4.0
 11
11.0
 21
3.0
 31
6.0
1001
AME_SOL
1070
     0
1071
        3
  0
LINE
  8
0
 62
     7
  5
185
 10
10.0
 20
4.0
 30
4.0
 11
10.0
 21
4.0
 31
6.0
1001
AME_SOL
1070
     0
1071
        3
  0
LINE
  8
0
 62
     7
  5
186
 10
16.0
 20
15.0
 30
4.0
 11
16.0
 21
15.0
 31
6.0
1001
AME_SOL
1070
     0
1071
        2
  0
LINE
  8
0
 62
     7
  5
187
 10
17.0
 20
14.0
 30
4.0
 11
17.0
 21
14.0
 31
6.0
1001
AME_SOL
1070
     0
1071
        2
  0
LINE
  8
0
 62
     7
  5
188
 10
18.0
 20
15.0
 30
4.0
 11
18.0
 21
15.0
 31
6.0
1001
AME_SOL
1070
     0
1071
        2
  0
LINE
  8
0
 62
     7
  5
189
 10
17.0
 20
16.0
 30
4.0
 11
17.0
 21
16.0
 31
6.0
1001
AME_SOL
1070
     0
1071
        2
  0
LINE
  8
0
 62
     7
  5
18A
 10
2.0
 20
15.0
 30
4.0
 11
2.0
 21
15.0
 31
6.0
1001
AME_SOL
1070
     0
1071
        1
  0
LINE
  8
0
 62
     7
  5
18B
 10
3.0
 20
14.0
 30
4.0
 11
3.0
 21
14.0
 31
6.0
1001
AME_SOL
1070
     0
1071
        1
  0
LINE
  8
0
 62
     7
  5
18C
 10
4.0
 20
15.0
 30
4.0
 11
4.0
 21
15.0
 31
6.0
1001
AME_SOL
1070
     0
1071
        1
  0
LINE
  8
0
 62
     7
  5
18D
 10
3.0
 20
16.0
 30
4.0
 11
3.0
 21
16.0
 31
6.0
1001
AME_SOL
1070
     0
1071
        1
  0
ENDBLK
  8
0
  5
18E
  0
ENDSEC
  0
SECTION
  2
ENTITIES
  0
INSERT
  8
AME_FRZ
  5
3
  2
AME_NIL
 10
0.0
 20
0.0
 30
0.0
  0
INSERT
  8
AME_FRZ
  5
6
  2
AME_SOL
 10
0.0
 20
0.0
 30
0.0
1001
AME_SOL
1000
R2.1
1000
AME2
1000
sq cm
1070
     3
1070
     0
1070
     3
1000
wire
1040
45.0
1000
U
1040
1.0
1000
cm
1000
gm
1000
MILD_STEEL
1070
    25
1000
CSG
1070
     1
1070
     3
1070
     3
1070
     3
1070
     0
1000
cu cm
1070
     1
1070
     0
1005
3
  0
INSERT
  8
AME_FRZ
  5
59
  2
AME_NIL
 10
8.0
 20
12.0
 30
0.0
1001
AME_SOL
1002
{
1070
     1
1071
  2392432
1070
  1536
1070
     1
1010
4.0
1020
6.0
1030
4.0
1005
0
1005
0
1005
90
1040
0.0
1040
1.0
1070
     0
1000
MILD_STEEL
1000
0
1010
8.0
1020
12.0
1030
0.0
1010
0.0
1020
0.0
1030
1.0
1040
0.0
1002
}
1001
AVE_INVOKE
1000
SOLAVEMESH
  0
INSERT
  8
AME_FRZ
  5
6A
  2
AME_NIL
 10
0.0
 20
12.0
 30
4.0
1001
AME_SOL
1002
{
1070
     1
1071
  2433584
1070
  1536
1070
     1
1010
20.0
1020
6.0
1030
1.0
1005
0
1005
0
1005
90
1040
0.0
1040
1.0
1070
     0
1000
MILD_STEEL
1000
0
1010
0.0
1020
12.0
1030
4.0
1010
0.0
1020
0.0
1030
1.0
1040
0.0
1002
}
1001
AVE_INVOKE
1000
SOLAVEMESH
  0
INSERT
  8
AME_FRZ
  5
7B
  2
AME_NIL
 10
0.0
 20
12.0
 30
4.0
1001
AME_SOL
1002
{
1070
     1
1071
  2412112
1070
  1536
1070
     1
1010
6.0
1020
6.0
1030
2.0
1005
0
1005
0
1005
8F
1040
0.0
1040
1.0
1070
     0
1000
MILD_STEEL
1000
0
1010
0.0
1020
12.0
1030
4.0
1010
0.0
1020
0.0
1030
1.0
1040
0.0
1002
}
1001
AVE_INVOKE
1000
SOLAVEMESH
  0
INSERT
  8
AME_FRZ
  5
8C
  2
AME_NIL
 10
14.0
 20
12.0
 30
4.0
1001
AME_SOL
1002
{
1070
     1
1071
  2418032
1070
  1536
1070
     1
1010
6.0
1020
6.0
1030
2.0
1005
0
1005
0
1005
8F
1040
0.0
1040
1.0
1070
     0
1000
MILD_STEEL
1000
0
1010
14.0
1020
12.0
1030
4.0
1010
0.0
1020
0.0
1030
1.0
1040
0.0
1002
}
1001
AVE_INVOKE
1000
SOLAVEMESH
  0
INSERT
  8
AME_FRZ
  5
8F
  2
AME_NIL
 10
0.0
 20
0.0
 30
0.0
1001
AME_SOL
1002
{
1070
     1
1071
  2505400
1070
   775
1070
     0
1070
     2
1005
7B
1005
8C
1005
0
1005
0
1005
B8
1040
0.0
1040
1.0
1070
     0
1000
MILD_STEEL
1000
0
1010
0.0
1020
0.0
1030
0.0
1010
0.0
1020
0.0
1030
1.0
1040
0.0
1002
}
  0
INSERT
  8
AME_FRZ
  5
90
  2
AME_NIL
 10
0.0
 20
0.0
 30
0.0
1001
AME_SOL
1002
{
1070
     1
1071
  2507976
1070
   775
1070
     0
1070
     2
1005
6A
1005
59
1005
0
1005
0
1005
B8
1040
0.0
1040
1.0
1070
     0
1000
MILD_STEEL
1000
0
1010
0.0
1020
0.0
1030
0.0
1010
0.0
1020
0.0
1030
1.0
1040
0.0
1002
}
  0
INSERT
  8
AME_FRZ
  5
B8
  2
AME_NIL
 10
0.0
 20
0.0
 30
0.0
1001
AME_SOL
1002
{
1070
     1
1071
  2510640
1070
  1543
1070
     1
1070
     2
1005
8F
1005
90
1005
0
1005
0
1005
11A
1040
0.0
1040
1.0
1070
     0
1000
MILD_STEEL
1000
0
1010
0.0
1020
0.0
1030
0.0
1010
0.0
1020
0.0
1030
1.0
1040
0.0
1002
}
1001
AVE_INVOKE
1000
SOLAVEMESH
  0
INSERT
  8
AME_FRZ
  5
CC
  2
AME_NIL
 10
7.0
 20
0.0
 30
4.0
1001
AME_SOL
1002
{
1070
     1
1071
  2432968
1070
  1536
1070
     1
1010
6.0
1020
6.0
1030
2.0
1005
0
1005
0
1005
E0
1040
0.0
1040
1.0
1070
     0
1000
MILD_STEEL
1000
0
1010
7.0
1020
0.0
1030
4.0
1010
0.0
1020
0.0
1030
1.0
1040
0.0
1002
}
1001
AVE_INVOKE
1000
SOLAVEMESH
  0
INSERT
  8
AME_FRZ
  5
DD
  2
AME_NIL
 10
7.0
 20
0.0
 30
4.0
1001
AME_SOL
1002
{
1070
     1
1071
  2420688
1070
  1536
1070
     1
1010
6.0
1020
12.0
1030
1.0
1005
0
1005
0
1005
E0
1040
0.0
1040
1.0
1070
     0
1000
MILD_STEEL
1000
0
1010
7.0
1020
0.0
1030
4.0
1010
0.0
1020
0.0
1030
1.0
1040
0.0
1002
}
1001
AVE_INVOKE
1000
SOLAVEMESH
  0
INSERT
  8
AME_FRZ
  5
E0
  2
AME_NIL
 10
0.0
 20
0.0
 30
0.0
1001
AME_SOL
1002
{
1070
     1
1071
  2549640
1070
   775
1070
     0
1070
     2
1005
CC
1005
DD
1005
0
1005
0
1005
11A
1040
0.0
1040
1.0
1070
     0
1000
MILD_STEEL
1000
0
1010
0.0
1020
0.0
1030
0.0
1010
0.0
1020
0.0
1030
1.0
1040
0.0
1002
}
  0
INSERT
  8
AME_FRZ
  5
11A
  2
AME_NIL
 10
0.0
 20
0.0
 30
0.0
1001
AME_SOL
1002
{
1070
     1
1071
  2552224
1070
  1543
1070
     1
1070
     2
1005
E0
1005
B8
1005
0
1005
0
1005
18F
1040
0.0
1040
1.0
1070
     0
1000
MILD_STEEL
1000
0
1010
0.0
1020
0.0
1030
0.0
1010
0.0
1020
0.0
1030
1.0
1040
0.0
1002
}
1001
AVE_INVOKE
1000
SOLAVEMESH
  0
INSERT
  8
AME_FRZ
  5
127
  2
AME_NIL
 10
3.0
 20
15.0
 30
4.0
1001
AME_SOL
1002
{
1070
     1
1071
  2455192
1070
  1538
1070
     1
1010
1.0
1020
1.0
1030
2.0
1005
0
1005
0
1005
143
1040
0.0
1040
1.0
1070
     0
1000
MILD_STEEL
1000
0
1010
3.0
1020
15.0
1030
4.0
1010
0.0
1020
0.0
1030
1.0
1040
0.0
1002
}
1001
AVE_INVOKE
1000
SOLAVEMESH
  0
INSERT
  8
AME_FRZ
  5
133
  2
AME_NIL
 10
17.0
 20
15.0
 30
4.0
1001
AME_SOL
1002
{
1070
     1
1071
  2418456
1070
  1538
1070
     1
1010
1.0
1020
1.0
1030
4.0
1005
0
1005
0
1005
142
1040
0.0
1040
1.0
1070
     0
1000
MILD_STEEL
1000
0
1010
17.0
1020
15.0
1030
4.0
1010
0.0
1020
0.0
1030
1.0
1040
0.0
1002
}
1001
AVE_INVOKE
1000
SOLAVEMESH
  0
INSERT
  8
AME_FRZ
  5
13F
  2
AME_NIL
 10
10.0
 20
3.0
 30
4.0
1001
AME_SOL
1002
{
1070
     1
1071
  2443656
1070
  1538
1070
     1
1010
1.0
1020
1.0
1030
2.0
1005
0
1005
0
1005
142
1040
0.0
1040
1.0
1070
     0
1000
MILD_STEEL
1000
0
1010
10.0
1020
3.0
1030
4.0
1010
0.0
1020
0.0
1030
1.0
1040
0.0
1002
}
1001
AVE_INVOKE
1000
SOLAVEMESH
  0
INSERT
  8
AME_FRZ
  5
142
  2
AME_NIL
 10
0.0
 20
0.0
 30
0.0
1001
AME_SOL
1002
{
1070
     1
1071
  2552944
1070
   775
1070
     0
1070
     2
1005
13F
1005
133
1005
0
1005
0
1005
143
1040
0.0
1040
1.0
1070
     0
1000
MILD_STEEL
1000
0
1010
0.0
1020
0.0
1030
0.0
1010
0.0
1020
0.0
1030
1.0
1040
0.0
1002
}
  0
INSERT
  8
AME_FRZ
  5
143
  2
AME_NIL
 10
0.0
 20
0.0
 30
0.0
1001
AME_SOL
1002
{
1070
     1
1071
  2547792
1070
   775
1070
     0
1070
     2
1005
142
1005
127
1005
0
1005
0
1005
18F
1040
0.0
1040
1.0
1070
     0
1000
MILD_STEEL
1000
0
1010
0.0
1020
0.0
1030
0.0
1010
0.0
1020
0.0
1030
1.0
1040
0.0
1002
}
  0
INSERT
  8
0
  5
18F
  2
*U14
 10
0.0
 20
0.0
 30
0.0
1001
AME_SOL
1002
{
1070
     1
1071
  2544296
1070
  1543
1070
     1
1070
     0
1005
11A
1005
143
1005
0
1005
190
1005
0
1040
0.0
1040
1.0
1070
     0
1000
MILD_STEEL
1000
0
1002
}
1001
AVE_INVOKE
1000
SOLAVEMESH
  0
INSERT
  8
AME_FRZ
  5
190
  2
AME_NIL
 10
1.0
 20
1.0
 30
1.0
1001
AME_SOL
1004
C7CF01006901B401B301B101AD014000A6019A0188016F0155014201B0003201C6009B002D002000700156014400B60057014301330183002501070015001B0044014D00BB0018009B018901710103005801170021000C003200AE01A7013F009C018A017201590145013401260190001501C70016002300
1004
2C0030005A014601350126003600A0001C0096008B0173010800A40074018F009F00A8019D018C0175015B0147012E0036015200FD000400EE0010008D0176015C01B900BD00990019009E018E0177015D010900480122003701290027015000160125003800E60078015E014901380128011701F700ED00
1004
1801EC00E90029011901A900A8001A019800D00039012A011B010101000135000201390041001C01030143004500040146004F002B011D01050151005B000601E500AA001E010701E400E2000801A700A600340092008F017500790147008400B201AF01A9019F0190017A015F01B3004A013A012C011F01
1004
0901E100DE000A01DC00680020010B01DA00D9000C01D600D5002D0121010D01D400D3000E01D200780022010F0179007A0010017B007C002B00B7007B01050060014B01F8003B012E0123011101C200C3001201C5007D00240113017E00CC001401CB00C900B400DF009101C0007C01DB007000A0010200
1004
92017D0161014C016D00F9004D01EF003C01D100BE0062014E013D01D700B2003E01B100BA002A007E01240063014F013F016100A500F200FC00AA01A101F00093017F014E0064011400B8008001600065015001D80031006F00A201940148008101F3002700950182016601CE009C0067015800C1008301
1004
6801CD00510140012F0112001A0030012F008800E8000600B001AB01A30196011F0080009701840169010F00FB00CF00FE00A4010100980185016A01E700520141013101F400330013000D00E000BF00AC01A501990186016B0171008C006C01A3005D0087016D018E005301EA00C8006E0154015F005400
1004
EB002800FF00000072861CA183A2325AA7DEF7E608E80D96D748758CC8C0D5BA43AC664606ADD21D633230356ED99DBD94F97CEA034EDECA7CBE381B4E797970D1106BB253D4A5250EBF13020DE43946AB23AD2060B9578C315DAF19003AC664606CC80D3B7B29F2F9440758CC8C0D8A0D5CA5455AE16EF7
1004
ED57A9ADCA54FF509FFFFFFFA84FFFCB03F3003F32085FD427EA13FFFFFDCA54FF509FFFFFFFA84FFFCB03F3003F32085FD427EA13FFFFF51B89CE57953DFEA13FFFFFFF509FE863DEF7BC4C83F2887E6412B81CEE315C4E17221DC0E7718AE270B91CCFF4BB81CEE315C4E17221FFDEF7BDEF791C0E7718
1004
AE270B91CC6BFFBDEF7BDEF2254CCCDEF4CCCDEF6BFFBDEF7BDEF209CE535CA9EFF509FFFFFFFA84FFFCC87E6007E6412B81CEE315C4E17221DC0E7718AE270B91CCFF4BB81CEE315C4E17221FFDEF7BDEF791C0E7718AE270B91CC6BFFBDEF7BDEF2254CCCDEF4CCCDEF6BFFBDEF7BDEF209CE525CA9EFF
1004
509FFFFFFFA84FF431EF7BDE2640F7BDEF7A061F9904AE073B8C571385C8877039DC62B89C2E4733FD2EE073B8C571385C887FF7BDEF7BDE47039DC62B89C2E4731AFFEF7BDEF7BC89533337BD33337BDAFFEF7BDEF7BC82739431CA9EFF509FFFFFFFA84FF7BDEF7BDE430FCC00FCC8257039DC62B89C2E
1004
443B81CEE315C4E172399FE977039DC62B89C2E443FFBDEF7BDEF2381CEE315C4E172398D7FF7BDEF7BDE44A9999BDE9999BDED7FF7BDEF7BDE464A7A957B46AB23AD2F501CA35591D690305CABC618AED78C806CCEDECA7CBE380D3B7B29F2F9440DA73CBCB8688835729505304EDEFDA9D01ADCA54FF50
1004
9FFFFFFFA84FFFD5D0FCC00FCC8217F509FA84FFFFFF72953FD427FFFFFFEA13FFF5743F3003F32085FD427EA13FFFFF51B89CE57953DFEA13FFFFFFF509FFFABA1F9443F32095C0E7718AE270B910EE073B8C571385C8E67FA5DC0E7718AE270B910FFEF7BDEF7BC8E073B8C571385C8E635FFDEF7BDEF7
1004
9129C19BDE7066F7B5FFDEF7BDEF7904E729AE54F7FA84FFFFFFFD427FB5F1C3F3003F32095C0E7718AE270B910EE073B8C571385C8E67FA5DC0E7718AE270B910FFEF7BDEF7BC8E073B8C571385C8E635FFDEF7BDEF79129C19BDE7066F7B5FFDEF7BDEF7904E7292E54F7FA84FFFFFFFD427FFEAE83DEF
1004
7BDE8187E6412B81CEE315C4E17221DC0E7718AE270B91CCFF4BB81CEE315C4E17221FFDEF7BDEF791C0E7718AE270B91CC6BFFBDEF7BDEF22538337BCE0CDEF6BFFBDEF7BDEF209CE50C72A7BFD427FFFFFFEA13FFF288187E6007E6412B81CEE315C4E17221DC0E7718AE270B91CCFF4BB81CEE315C4E1
1004
7221FFDEF7BDEF791C0E7718AE270B91CC6BFFBDEF7BDEF22538337BCE0CDEF6BFFBDEF7BDEF23253D4ABDA35591D686605250EBF13020DE45CABC618AED78C80369CF2F2E1A5200758CC8C0D9901D633230362835729517AC412DDEFDA9D3296E52A7FA84FFFFFFFD427FFE9C1F9607E6410BFA84FD427F
1004
FFFFB94A9FEA13FFFFFFF509FFFA707E581F99042FEA13F509FFFFFA8DC4E72BCA9EFF509FFFFFFFA84FF66F7BDEF2821F990FCC8257039DC62B89C2E443B81CEE315C4E172399FE977039DC62B89C2E443FFBDEF7BDEF2381CEE315C4E172398D7FF7BDEF7BDE44A9E4C1BDE9E4C1BDED7FF7BDEF7BDE41
1004
39CA6B953DFEA13FFFFFFF509FFF9480FCB03F32095C0E7718AE270B910EE073B8C571385C8E67FA5DC0E7718AE270B910FFEF7BDEF7BC8E073B8C571385C8E635FFDEF7BDEF7912A79306F7A79306F7B5FFDEF7BDEF7904E7292E54F7FA84FFFFFFFD427FB37BDEF794107BDEF7BDE4FCC8257039DC62B8
1004
9C2E443B81CEE315C4E172399FE977039DC62B89C2E443FFBDEF7BDEF2381CEE315C4E172398D7FF7BDEF7BDE44A9E4C1BDE9E4C1BDED7FF7BDEF7BDE4139CA18E54F7FA84FFFFFFFD427FB5F388191F2C0FCC8257039DC62B89C2E443B81CEE315C4E172399FE977039DC62B89C2E443FFBDEF7BDEF2381
1004
CEE315C4E172398D7FF7BDEF7BDE44A9E4C1BDE9E4C1BDED7FF7BDEF7BDE464A7A61B2A0B489B4E5803611AAC8EB4B6090EB199181AB71539E5E5C35D01A76F653E5F1C121D633230352353F542C4F0B76BB53118CFD53FFFD427FFEA13FFFFF110FDD0FF42FFFFFFFFFF9FAA7FFFA84FFFD427FFFFE221F
1004
BA1FE85FFFFFFFFFD423253D30D9505A44DA72C01B08D56475A5B048758CC8C0D5B9B4E797970D1101A76F653E5F1C0758CC8C0D9906A7EA8AE2685BB5DA9D08633F54FFFFFF509FFFA84FFFC443F743FD0BFFFFFFFFFE7EA9FFFFFEA13FFF509FFF8887EE87FA17FFFFFFFFF508C94F4C36C235591D696C
1004
1B08D56475A5B048758CC8C0D5B8A9CF2F2E1AE80D3B7B29F2F8E03AC664606CC8353F54565716ED76A74318CFD53FEC7F51BFF63FD8FF63FA8DFF743F1C3F32085FFFFFFFFFF3F54FFB1FD46FFD8FF63FD8FEA37FDD0FC70FCC8217FFFFFFFFF508C94F4C35ED1AAC8EB48183611AAC8EB4B60B9578C315
1004
DAF19006D39E5E5C34A101A76F653E5F1C0758CC8C0D8A0D4FD50404D4EDAED4542CFD53FFFFFD427FFEA13FDAF9421FBA1F99042FFFFFFFFFF9FAA7FFFFFA84FFFD427FB5F2843F743F32085FFFFFFFFFD423253D30DB21309455698B6483611AAC8EB4B60B9578C315DAF1900D99DBD94F97CEA034EDEC
1004
A7CBE380EB199181B550353F5472D34BB6BA5138C39FAA7FD8FEA37FEC7FB1FEC7F51BFE750FC70FD54085FFFFFFFFFF13342CFD53FEC7F51BFF63FD8FF63FA8DFF3A87E387E28217FFFFFFFFFCFD53FEC7F51BFF63FD8FF63FA8DFF3A87E387E28217FFFFFFFFF508C94F4CD9505A44DA72C01B08D56475
1004
A5B048758CC8C0D5B8A9CF2F2E1AE80A9CF2F2E1AE80EB199181B320D4FD51B500EDAE619D04633F54FF509FFFFFFFFFA84FC443F743FD0BFFFFFFFFFE74C1873F54FF509FFFFFFFFFA84FFFDD0FCC8217FFFFFFFFFCDA167EA9FEA13FFFFFFFFF508D7CA10FDD0FCC8217FFFFFFFFFD0D342CFD53FD427F
1004
FFFFFFFEA13FFF743F32085FFFFFFFFFF3F54FFFFFF509FA8DFFB1FEC7F4D87EE87EAA042FFFFFFFFFEA11929E98690EB199181AB76C235591D696C172AF1862BB5E320121D6332303520D3B7B29F2F8E03AC664606D540D4FD510C436EDAE94E38C39FAA7FFFFFA84FFFD427FFFFEE87E6410BFFFFFFFFF
1004
E817A167EA9FFFFFEA13FFF509FFFFFBA1F99042FFFFFFFFFF9FAA7FFFFFA84FFFD427FFFFEE87E6410BFFFFFFFFFA8464A7A36CA82D226D39600B4984A2AB4C55D048758CC8C0D5B8A9CF2F2E1AE80D3B7B29F2F8E03AC664606CC8353F54322576D730DCA18CFD53FEC7FB1FD46FFA8DFFB1FEC7F743F1
1004
C3F32085FFFFFFFFFF5430E7EA9FF63FD8FEA37FD46FFD8FF63F9D43F1C3F550217FFFFFFFFFCA06859FAA7FD8FF63FA8DFF51BFF63FD8FE750FC70FC5042FFFFFFFFFFA05A859FAA7FD8FF63FA8DFF51BFF63FD8FE287E387E28217FFFFFFFFFCFD53FEC7FB1FD46FFA8DFFB1FEC7F143F1C3F1410BFFFF
1004
FFFFFA8464A7A61AE105A44DA723206C235591D696C172AF1862BB5E3200758CC8C0D8A034EDECA7CBE380EB199181B141A9FAA3A82EDAED502C42CFD53FEC7F51BFF63FD8FF63FA8DFF143F1C3F1410BFFFFFFFFFE7EA9FF63FA8DFFB1FEC7FB1FD46FF8A1F8E1F8A085FFFFFFFFFD423253D2CA43AC664
1004
606ADDB08D56475A5B05C20B489B4E5B2836676F653E5F3A80D3B7B29F2F8E03AC664606D540D4FD50156EDAE94E9730E7EA9FEA37FEC7FB1FEC7F51BFF63F9D43F1C3F550217FFFFFFFFFCE945FCFD53FD46FFD8FF63FD8FEA37FEC7F4D87EE87EAA042FFFFFFFFFF9FAA7FA8DFFB1FEC7FB1FD46FFD8FE
1004
9B0FDD0FD54085FFFFFFFFFD423253D64521D633230356ED846AB23AD2D82E55E30C576BC64036676F653E5F3A80D3B7B29F2F8E03AC664606CC8353F545D1A1DB5D0A608C39FAA7FFFA84FFFD427FFFFFFEE87E6410BFFFFFFFFFEBD2859FAA7FFFA84FFFD427FFFB5F2843F743F32085FFFFFFFFFF4351
1004
0B3F54FFFF509FFFA84FFFFFFFDD0FCC8217FFFFFFFFFCE965FCFD53FFFD427FFEA13FFFDAF94C3FFF32085FFFFFFFFFF3A6D7F3F54FFFF509FFFA84FFFF6BE530FFFCC8217FFFFFFFFFCFD53FFFD427FFEA13FFFDAF94C3FFF32085FFFFFFFFFD423253D30D9505A44DA72268243AC664606ADD72AF1862
1004
BB5E3200DA73CBCB86A6C121D6332303520EB199181B550353F54629ADDB5D29D2ABF9FAA7FA84FFFFFFFFFD4235F2987FFE6410BFFFFFFFFFE7445FCFD53FD427FFFFFFFFEA11AF94C3FFF32085FFFFFFFFFF3F54FF509FFFFFFFFFA846BE530FFFCC8217FFFFFFFFF508C94F57ECA82D226D39134121D6
1004
33230356EB9578C315DAF19003AC664606CA602A73CBCB86BA03AC664606D540D4FD51CB13DDB5D28917F3F54FFFFFF509FFFA84FF6BE530FFFCC8217FFFFFFFFFCE8ABF9FAA7FFFFFA84FFFD427FB5F2987FFE6410BFFFFFFFFFE7EA9FFFFFEA13FFF509FED7CA61FFF99042FFFFFFFFFEA11929EB22BDA
1004
35591D690306C235591D696C17082D226D3919036676F653E5F3A80D3B7B29F2F8E03AC664606C506A7EA8226976D7188C90B3F54FF51BFF63FD8FF63FA8DFFB1FCEA1F8E1F8A085FFFFFFFFFF40B90B3F54FF51BFF63FD8FF63FA8DFFB1FC50FC70FC5042FFFFFFFFFF9D3CBF9FAA7FA8DFFB1FEC7FB1FD
1004
46FFD8FE9B0FC50FC5042FFFFFFFFFF9FAA7FA8DFFB1FEC7FB1FD46FFD8FE9B0FC50FC5042FFFFFFFFFEA11929E986CA82D226D3913417082D226D391902E55E30C576BC6401B4E797970D4D80EB199181B140758CC8C0D8A0D4FD517499DDB5DA9D3EBF9FAA7FD8FF63FA8DFF51BFF63FD8FE9B0FC50FC5
1004
042FFFFFFFFFF9FAA7FD8FF63FA8DFF51BFF63FD8FE9B0FC50FC5042FFFFFFFFFEA11929EAFD7B46AB23AD1C6048758CC8C0D5BAE55E30C576BC6401B4E797970D4D80A9CF2F2E1AE80EB199181B550353F54295BBB6BA53A4D7F3F54FFB1FD46FFD8FF63FD8FEA37FD361FBA1FAA810BFFFFFFFFFE9E57F
1004
3F54FFB1FD46FFD8FF63FD8FEA37FD361F8A1F8A085FFFFFFFFFF3F54FFB1FD46FFD8FF63FD8FEA37FD361F8A1F8A085FFFFFFFFFD42169894943AFC4C083790E51AAC8EB48182E55E30C576BC6400EB199181B32034EDECA7CBE5101D63323036641D10891CD648CCE089D10891CD648CCE00953E798AF9
1004
48EF7B555AE16EBA343BD2AAD70B75D1A1DBDEF7B5D3E7BFD427FFFFFFEA13FFF2C0FCC00FCC8187FA84FD423A211239AC9199C113A211239AC9199C00B4C4A4A1D7E26041BC8728D56475A40C17082D226D391900EB199181B32034EDECA7CBE5101D63323036283A211239AC9199C113A211239AC9199C
1004
012A7CF31132291DABDEAB5C2DC44D2EF4A226976AB5C2DDAEF7BDE9F3DFEA13FFFFFFF509FFF9607E6007E28187FA84FD423A211239AC9199C113A211239AC9199C00B4C57B46AB23AD2F501CA35591D690305CABC618AED78C806CCEDECA7CBE380D3B7B29F2F9440758CC8C0D99074422473592333822
1004
7442247359233380254F9E43139DEF7B514C13B5D1A1DE945304ED746876F7BDED74F9EFF509FFFFFFFA84FFFD5D0FCC00FCC8187FA84FD423A211239AC9199C113A211239AC9199C00B4C57B46AB23AD2F501CA35591D690305C20B489B4E4640D99DBD94F97C701A76F653E5F2880EB199181B141D1089
1004
1CD648CCE089D10891CD648CCE00953E79614877B57BC5304EC44D2EF4A226976298276D77BDEF4F9EFF509FFFFFFFA84FFFD5D0FCC00FC5030FF509FA847442247359233382274422473592333801698AF68D56475A19814943AFC4C08379172AF1862BB5E3200DA73CBCB8694801D63323036640758CC8
1004
C0D990744224735923338227442247359233380254F9E3A32DBBDEF6ABD62096EBA343BD2AF58825BAE8D0EDEF7BDAE9F3DFEA13FFFFFFF509FFFA707E581F99030FF509FA847442247359233382274422473592333801698AF68D56475A19814943AFC4C0837917082D226D391901B4E797970D29003AC6
1004
64606CC80EB199181B141D10891CD648CCE089D10891CD648CCE00953E797B75DED5EF5EB104B71134BBD2889A5DAF58825BB5DEF7BD3E7BFD427FFFFFFEA13FFF4E0FCB03F140C3FD427EA11D10891CD648CCE089D10891CD648CCE005A62CA82D226D39600D846AB23AD2D8243AC664606ADC54E797970
1004
D74054E797970D74121D6332303527E641EF7BDEF60094A9E5ECE33BDEF6A589E16EDA8077A52C4F0B76D403B6BB5CA9EFFFF51BFFFFFFFEA37FCC87EE87FA5FCC83DEF7BDEC00B4C59505A44DA72C01B08D56475A5B048758CC8C0D5B9B4E797970D1101A76F653E5F1C121D6332303527E2A2FEC52953C
1004
2A06EF7BDA962785BAB89A16FA52C4F0B7571342DDAED72A7BFD46FFFFFFFFFFA8DFF110FDD0FF4BF8A8BFB12D316541691369CB005A4C25155A62AE8243AC664606ADC54E797970D74069DBD94F97C7048758CC8C0D48F7BDEF7B65449F7BDEF7A64DD2953CB0A177BDED4B13C2DCC895DE94B13C2DCC89
1004
5DB5DAE54F7FFFA84FFFFFFFD46ED7CA61F8E1FE95EF7BDEF6CA893EF7BDEF4C9B9698B611AAC8EB4B60D846AB23AD2D8243AC664606ADC54E797970D74069DBD94F97C7048758CC8C0D49F9622FCB012953C815885DEF7B52C4F0B7565716FA52C4F0B7565716ED76B953DFEA13FFFFFFFFF51BFEE87E60
1004
07FA5FCB117E5805A62CA82D226D39600D846AB23AD2D8243AC664606ADCDA73CBCB868880A9CF2F2E1AE80EB199181B321FD17F04A54F1D14C077BDED55C4D0B76D403BD2AB89A16EDA8076D76B953DFFFEA37FFFD46FFFFFF8887EE87F04BFD17F02D316541691369CB005A4C25155A62AE8243AC66460
1004
6ADCDA73CBCB868880D3B7B29F2F8E03AC664606CC87E5889AFA844A54F2B8BD4EF7BDAAB89A16E644AEF4AAE2685B9912BB6BB5CA9EFFFF509FFFA8DFFFFFF110FC70FCB012FE5889AFA842D316541691369CB006C235591D696C172AF1862BB5E3200DA73CBCB868880D3B7B29F2F8E03AC664606CC87E
1004
287EE8252A78B15D77B57BD5C4D0B75D1A1DE95746876AE2685BB5DAE54F7FFFFFA8DFF51BFFFFFE221F8A1F9904BF8A1FBA05A62D846AB23AD2D83611AAC8EB4B6090EB199181AB71539E5E5C35D01539E5E5C35D01D63323036643F328BFD2953C71F1DDEF7B5565716EDA8077A5565716EDA8076D76B9
1004
53DFFFEA37FFFD427FFFFEE87EE87E6412FE6517F9698B611AAC8EB4B60B4984A2AB4C55D048758CC8C0D5B8A9CF2F2E1AE80D3B7B29F2F8E03AC664606CC835F509FAA812953C811B64BBDEF6AACAE2DCC895DE95595C5B9912BB6BB5CA9EFFFF509FFFA84FFFFFDD0FC70FD54095AFA84FD5405A62D846
1004
AB23AD2D83611AAC8EB4B60B9578C315DAF19002A73CBCB86BA034EDECA7CBE380EB199181B321F9C48BF2C4494A9E3A31D5DED5EF565716EBA343BD2AE8D0ED595C5BB5DAE54F7FFFFFA8DFF509FFFFFBA1F9C41F9904BF9C48BF2C445A62BDA35591D690306C235591D696C172AF1862BB5E3200DA73CB
1004
CB8694202A73CBCB86BA03AC664606C507BDEF7BDEDDAFA8DD2953CE59D22EF7BDA8809A9DB6A01DE94404D4EDB500EDAED72A7BFFFD46FFFFA8DFFFFDAF9421FBA1F9904AF7BDEF7BDBB5F51B9698AF68D56475A40C169309455698ABA0B9578C315DAF19006D39E5E5C34A101A76F653E5F1C0758CC8C0
1004
D8A1FD8A7DEF7BDE99112953C8614977BDED4404D4ECC895DE94404D4ECC895DB5DAE54F7FFFA84FFFD46FFFFED7CA10FC70FD54097FB14FBDEF7BD3221698AF68D56475A40C1B08D56475A5B05C20B489B4E5B281B4E797970D284069DBD94F97C701D63323036AA0FC545FD8A52A79D38FBBDABDE2026A
1004
760AB77A5055BB101353B6BB5CA9EFFFFFF509FA8DFFFFDAF9421FBA1FAA812FE2A2FEC4B4C57B46AB23AD2060D846AB23AD2D82E105A44DA72320369CF2F2E1A5080D3B7B29F2F8E03AC664606C50FCE245F96224A54F2E8E9277BDED4404D4EC44D2EF4A2026A76226976D76B953DFFFFFEA13F51BFFFF
1004
B5F2843F3883F1412FE7122FCB111698B6426128AAD316C906C235591D696C172AF1862BB5E3201B33B7B29F2F9D4054E797970D740758CC8C0D8A0D7D46E9F7BDEF7A6444A54F2B2277BDED5CB4D2EDB500EF4AE5A6976DA8076D76B953DFFFEA37FFFD427FFFFE750FDD0FD54095AFA8DD3EF7BDEF4C88
1004
5A62D90984A2AB4C5B24169309455698ABA0B9578C315DAF1900D99DBD94F97CEA034EDECA7CBE380EB199181B143FDEF7BDEF7912953C500BB77BDED5CB4D2ECC895DE95CB4D2ECC895DB5DAE54F7FFFA84FFFD427FFFFE750FC70FC504BFEF7BDEF7BC85A62D90984A2AB4C5B241B08D56475A5B05CABC
1004
618AED78C806CCEDECA7CBE7501A76F653E5F1C0758CC8C0D990FCE245F96224A54F224341DEF7B572D34BB5D1A1DE95CB4D2ED746876D76B953DFFFFFEA37FD427FFFFE750FCE20FCC825FCE245F96222D316C84C25155A62D920D846AB23AD2D82E105A44DA723206CCEDECA7CBE7501A76F653E5F1C07
1004
58CC8C0D8A1FFF8A094A9E510D177BDED5CB4D2EC44D2EF4AE5A6976226976D76B953DFFFFFEA13F509FFFFF9D43F743F1412FFFE281698A43AC664606ADDB08D56475A5B05CABC618AED78C806CCEDECA7CBE7501539E5E5C35D01D63323036643F4E45F96224A54F08A1A4EF7BDAB6A01DAE8D0EF4ADA8
1004
076BA343B6BB5CA9EFFFFFF51BFFFEA37FFFD383F743F32097F4E45F96222D3148758CC8C0D5BB611AAC8EB4B60B9578C315DAF1900D99DBD94F97CEA02A73CBCB86BA03AC664606CC827DEF7BDEF6ED7E094A9E38E104EF6AF7B6A01DAE8D0EF4ABA343B6D403B6BB5CA9EFFFFFF51BFFFEA37FFFD383F7
1004
43F320953EF7BDEF7B76BF02D3148758CC8C0D5BB611AAC8EB4B60B9578C315DAF1900D99DBD94F97CEA02A73CBCB86BA03AC664606CC87E581FA70252A7989409DEF7B56D403B5D1A1DE95B500ED746876D76B953DFFFFFEA37FFFD46FFFFA707EE87E6412FE581FA701698A43AC664606ADDB08D56475A
1004
5B05C20B489B4E5B2836676F653E5F3A80A9CF2F2E1AE80EB199181B55035F29A2FC54494A9E101CB77BDED5B500EC156EF4ADA80760AB76D76B953DFFFFFEA13FFF51BFFFE9B0FDD0FD54095AF94D17E2A22D3148758CC8C0D5BB611AAC8EB4B60B841691369CB6506CCEDECA7CBE7501539E5E5C35D01D
1004
63323036AA0FEC4C3F50894A9E6D435DDEF7B56D403B055BBD2B6A01D82ADDB5DAE54F7FFFFFA84FFFD46FFFFA6C3F743F55025FEC4C3F5085A6290EB199181AB76C235591D696C17082D226D3919036676F653E5F3A80A9CF2F2E1AE80EB199181B143F4DA26BE534494A9E3286B3BDEF6ADA8076226977
1004
A56D403B1134BB6BB5CA9EFFFFFF509FFFA8DFFFF4D87EE87E2825FD3689AF94D11698A43AC664606ADDB08D56475A5B05C20B489B4E4640D99DBD94F97CEA02A73CBCB86BA03AC664606C5030FD4235F298252A7810D577BDED5B500EC44D2EF4ADA8076226976D76B953DFFFFFEA13FFF51BFFFE9B0FDD
1004
0FC504A61FA846BE5302D316541691369C89A0D846AB23AD2D82E55E30C576BC6400EB199181B2980A9CF2F2E1AE80EB199181B55027DEF7BDE876E61FB6912953C8EBC77B57BDB500EDCB13DDE95CB13DDB6A01DB5DAE54F7FA8DFFFFFFFF51BFFB5F2987EE87EBD00953EF7BDEF43B730FDB485A62BDA3
1004
5591D68E303611AAC8EB4B60B9578C315DAF19006D39E5E5C353602A73CBCB86BA03AC664606D5409F7BDEF7A1C9FA1844A54F14AB877B57BDB500ECA56EEF4A52B776DA8076D76B953DFEA13FFFFFFF51BFFFE9B0FDD0FCA060953EF7BDEF4393F43085A6290EB199181AB76C235591D696C172AF1862BB
1004
5E320121D6332303520A9CF2F2E1AE80EB199181B143FDEF7BDEF7912953C7476577BDED5B500ED0C436EF4ADA80768621B76D76B953DFEA37FFFFFFFD46FFFFFFBA1F9904BFEF7BDEF7BC85A62B841691369C8C81B08D56475A5B05CABC618AED78C801D63323036280A9CF2F2E1AE80EB199181B1413EF
1004
7BDEF4C9BFFA52A7A999DEF7B56D403B7505DE95B500EDD4176D76B953DFEA13FFFFFFF51BFFFE287EE87EAA04A9F7BDEF7A64DFFCB4C521D633230356EB4984A2AB4C55D05CABC618AED78C8048758CC8C0D4834EDECA7CBE380EB199181B141AFA8DD3EF7BDEF4C8894A9E28A054EF7BDAA1886DD9912B
1004
BD2A1886DD9912BB6BB5CA9EFFFF509FFFA8DFFFFFFFF1C3F550256BEA374FBDEF7BD3221698A43AC664606ADDB08D56475A5B05CABC618AED78C8048758CC8C0D4834EDECA7CBE380EB199181B321F8A1FBA094A9E5640A5DEF7B54310DBB5D1A1DE950C436ED746876D76B953DFFFFFEA37FD46FFFFFFF
1004
F8A1F9904BF8A1FBA05A6290EB199181AB76C235591D696C17082D226D39190243AC664606A41A76F653E5F1C0758CC8C0D8A1F9C48BF2C4494A9E28040A1DEF7B54310DBB1134BBD2A1886DD889A5DB5DAE54F7FFFFFA84FD46FFFFFFFF9C41F8A097F38917E5888B4C521D633230356EB4984A2AB4C55D
1004
05CABC618AED78C806CCEDECA7CBE7501A76F653E5F1C0758CC8C0D990FD7A517E86112953C8902777BDED4C895DAE8D0EF4A644AED746876D76B953DFFFFFEA37FFFD427FFEBD21F8E1F9904BFAF4A2FD0C21698A43AC664606ADD69309455698ABA0B9578C315DAF1900D99DBD94F97CEA034EDECA7CBE
1004
380EB199181B320F7BDEF789987E818252A7944099DEF7B5322576BA343BD29912BB5D1A1DB5DAE54F7FFFFFA8DFFFF509FFFAF487E387E6412BDEF7BDE2661FA0605A6290EB199181AB75A4C25155A62AE82E105A44DA72D941B33B7B29F2F9D4069DBD94F97C701D63323036AA06BEBD089AF8D04A54F0
1004
8AB8EF7BDA9912BB055BBD29912BB055BB6BB5CA9EFFFFFF509FFFA84FFFCA087E387EAA04AD7D7A1135F1A05A6290EB199181AB75A4C25155A62AE82E105A44DA723206CCEDECA7CBE7501A76F653E5F1C0758CC8C0D8A0D7CE3C89AFAF4224A54F1C7204AEF7BDA9912BB1134BBD29912BB1134BB6BB5C
1004
A9EFFFFFF509FFFA84FFFCA087E387E28256BE71E44D7D7A111698A43AC664606ADD69309455698ABA0B841691369C8C81B33B7B29F2F9D4069DBD94F97C701D633230362835F1A1F94104A54F314091DEF7B5322576226977A5322576226976D76B953DFFFFFEA13FFF509FFF9410FC70FC504AD7C687E5
1004
040B4C57082D226D391902D26128AAD31574172AF1862BB5E3200758CC8C0D8A034EDECA7CBE380EB199181B1413EF7BDEF4C9BFF6294A9E10119DEF7B5322576EA0BBD29912BB7505DB5DAE54F7FA84FFFFFFFD427FFE287E387E28254FBDEF7BD326FFD89698AE105A44DA723206C235591D696C17082D
1004
226D396CA03AC664606C501A76F653E5F1C0758CC8C0DAA83F2C45F960252A79B502277B57BDD41760AB77A5055BB7505DB5DAE54F7FFFFFA84FD427FFFFE287E6007EAA04BF9622FCB00B4C57082D226D391903611AAC8EB4B60B841691369C8C80758CC8C0D8A034EDECA7CBE380EB199181B143FFF141
1004
2953C6502177BDED5D4176226977A57505D889A5DB5DAE54F7FFFFFA84FD427FFFFE287EE87E2825FFFC502D316541691369C89A090EB199181AB75C20B489B4E5B280EB199181B2980A9CF2F2E1AE80EB199181B5507F63F8A094A9E043BBDEF6A0AB76E589EEF4A0AB76E589EEDAED72A7BFD46FFFFFFF
1004
FFFA846BE530FC50FD54097FB1FC502D315ED1AAC8EB4718121D633230356EB841691369CB650369CF2F2E1A9B01539E5E5C35D01D63323036AA0FCB117E58094A9E476D77BDED4156ECA56EEF4A0AB7652B776D76B953DFEA13FFFFFFFFF509FA6C3F3883F55025FCB117E5805A62CA82D226D391341708
1004
2D226D391902E105A44DA72D940DA73CBCB86A6C0758CC8C0D8A03AC664606D541F8A8BFB14A54F14A8103BDABDE0AB76BA4CEEF4ABA4CEEC156EDAED72A7BFFFD427FFFFFFEA13F4D87E287EAA04BF8A8BFB12D316541691369C89A090EB199181AB75CABC618AED78C801D633230365301539E5E5C35D0
1004
1D63323036643F7517F6294A9E3A39D3AEF7BDAAE8D0EDCB13DDE95746876E589EEDAED72A7BFD46FFFFFFFFFFA8DDAF94C3FFF32097F7517F625A62BDA35591D68E30243AC664606ADD72AF1862BB5E3200DA73CBCB86A6C054E797970D740758CC8C0D990FCB117E710252A7A74E3BDEF6ABA343B295BB
1004
BD2AE8D0ECA56EEDAED72A7BFD427FFFFFFFFEA37FD361F9607E6412FE588BF3880B4C59505A44DA72268243AC664606ADD72AF1862BB5E3200DA73CBCB86A6C121D6332303520EB199181B321FFF8A094A9E289D34EF7BDAAE8D0ED8A6B77A55D1A1DB14D6EDAED72A7BFFFD46FFFFFFFFA8DDAF94C3FFF
1004
32097FFF140B4C59505A44DA72268243AC664606ADD7082D226D391901B4E797970D4D8243AC664606A41D63323036287E588BF2C04A54F2B1CBBDEF6AC535BB1134BBD2B14D6EC44D2EDAED72A7BFFFFFD427FFEA37FFFD383FFF1412FE588BF2C02D316541691369C89A090EB199181AB75CABC618AED7
1004
8C801D6332303653048758CC8C0D483AC664606C50FF7BDEF7BDE44A54F140361DEF7B5629ADDB9627BBD2B14D6EDCB13DDB5DAE54F7FA8DFFFFFFFF51BFFB5F2987FFE6412FFBDEF7BDEF21698AF68D56475A38C090EB199181AB75CABC618AED78C80369CF2F2E1A9B048758CC8C0D483AC664606C504F
1004
BDEF7BD326ED7D42252A7912F6EF7BDAB14D6ECA56EEF4AC535BB295BBB6BB5CA9EFF509FFFFFFFA8DFFFF4D87FFEAA04A9F7BDEF7A64DDAFA842D316541691369C89A090EB199181AB75C20B489B4E46403AC664606CA603AC664606C501D63323036287E588BF2C04A54F2874377BDED5CB13DD889A5DE
1004
95CB13DD889A5DB5DAE54F7FFFFFA84FD46FFFFED7CA61F9607E2825FCB117E5805A62CA82D226D3913417082D226D391902E55E30C576BC6400EB199181B2980EB199181B140758CC8C0D8A1FD8A7DEF7BDE99112953C22E777BDED5CB13DDAE933BBD2B9627BB5D26776D76B953DFFFEA13FFF51BFFFFB
1004
5F2987E287EAA04BFD8A7DEF7BDE9910B4C57B46AB23AD1C6048758CC8C0D5BAE105A44DA72320369CF2F2E1A9B01D63323036280EB199181B143FFF1412953C71C74277BDED444D2ECA56EEF4A22697652B776D76B953DFEA13FFFFFFFFF509FA6C3F143F1412FFFE281698B2A0B489B4E44D05C20B489B
1004
4E4640B841691369C8C80DA73CBCB86A6C0758CC8C0D8A03AC664606C50FC545FD8A52A7989D05DEF7B51134BB5D26777A51134BB5D26776D76B953DFFFEA13FFFFFFF509FA6C3F143F1412FE2A2FEC4B4C57B46AB23AD1C605C20B489B4E4640B9578C315DAF19006D39E5E5C353603AC664606C501D633
1004
230362827DEF7BDE9937FEC52953C2018BBDEF6ABA4CEECA56EEF4ABA4CEECA56EEDAED72A7BFD427FFFFFFEA13FFF4D87E287E28254FBDEF7BD326FFD89B4F9D20F
1005
191
  0
INSERT
  8
AME_FRZ
  5
191
  2
AME_NIL
 10
1.0
 20
1.0
 30
1.0
1001
AME_SOL
1004

1005
0
  0
ENDSEC
  0
EOF
