600 0 2 0           
24 FBMach with ACIS - 6.0.3 13 ACIS 6.0.3 NT 24 Tue May 22 12:25:10 2001 
1 9.9999999999999995e-007 1e-010 
body $2 $3 $-1 $4 #
bdycol-kcp $-1 1 5 $5 $6 $7 $8 $9 #
model_id-kcp-attrib $-1 $-1 $-1 $0 1 990548709 110 1986920449 1 #
lump $-1 $-1 $10 $0 #
transform $-1 1 0 0 0 1 0 0 0 1 0 0 -10.000000000000007 1 rotate no_reflect no_shear #
body $11 $12 $-1 $13 #
body $14 $15 $-1 $16 #
body $17 $18 $-1 $19 #
body $20 $21 $-1 $22 #
body $23 $24 $-1 $25 #
shell $-1 $-1 $-1 $26 $-1 $3 #
model_id-kcp-attrib $-1 $-1 $-1 $5 1 990548709 110 1986920450 1 #
lump $-1 $-1 $27 $5 #
transform $-1 1 0 0 0 1 0 0 0 1 3.5527136788005009e-015 0 -17.745190528383297 1 no_rotate no_reflect no_shear #
rgb_color-st-attrib $-1 $28 $-1 $6 0.5 1 1 #
lump $-1 $29 $30 $6 #
transform $-1 1 0 0 0 1 0 0 0 1 3.5527136788005009e-015 0 -17.745190528383297 1 no_rotate no_reflect no_shear #
rgb_color-st-attrib $-1 $31 $-1 $7 0.5 0.5 1 #
lump $-1 $-1 $32 $7 #
transform $-1 1 0 0 0 1 0 0 0 1 3.5527136788005009e-015 0 -17.745190528383297 1 no_rotate no_reflect no_shear #
rgb_color-st-attrib $-1 $33 $-1 $8 0.5 0.5 1 #
lump $-1 $-1 $34 $8 #
transform $-1 1 0 0 0 1 0 0 0 1 3.5527136788005009e-015 0 -17.745190528383297 1 no_rotate no_reflect no_shear #
rgb_color-st-attrib $-1 $35 $-1 $9 0.5 0.5 1 #
lump $-1 $-1 $36 $9 #
transform $-1 1 0 0 0 1 0 0 0 1 3.5527136788005009e-015 0 -17.745190528383297 1 no_rotate no_reflect no_shear #
face $37 $38 $39 $10 $-1 $40 forward single #
shell $-1 $-1 $-1 $41 $-1 $12 #
model_id-kcp-attrib $-1 $-1 $14 $6 1 990548709 390 1988493315 1 #
lump $-1 $-1 $42 $6 #
shell $-1 $-1 $-1 $43 $-1 $15 #
model_id-kcp-attrib $-1 $-1 $17 $7 1 990548709 450 1992425476 1 #
shell $-1 $-1 $-1 $44 $-1 $18 #
model_id-kcp-attrib $-1 $-1 $20 $8 1 990548709 480 1994391557 1 #
shell $-1 $-1 $-1 $45 $-1 $21 #
model_id-kcp-attrib $-1 $-1 $23 $9 1 990548709 490 1995046918 1 #
shell $-1 $-1 $-1 $46 $-1 $24 #
model_id-kcp-attrib $-1 $-1 $-1 $26 1 990548709 110 1986920449 2 #
face $47 $48 $49 $10 $-1 $50 reversed single #
loop $-1 $-1 $51 $26 #
cone-surface $-1 37.810889132455301 0 -20.490381056766601 0 -1 0 1.2940952255125999 0 -4.8296291314453397 1 I I 0 1 4.9999999999999973 forward I I I I #
face $52 $53 $54 $27 $-1 $55 forward single #
shell $-1 $-1 $-1 $56 $-1 $29 #
face $-1 $57 $58 $30 $-1 $59 reversed single #
face $-1 $60 $61 $32 $-1 $62 reversed single #
face $-1 $63 $64 $34 $-1 $65 reversed single #
face $-1 $66 $67 $36 $-1 $68 reversed single #
model_id-kcp-attrib $-1 $69 $-1 $38 1 990548709 110 1986920449 28 #
face $70 $71 $72 $10 $-1 $73 reversed single #
loop $-1 $-1 $74 $38 #
plane-surface $-1 0 -75 0 0 1 0 0 0 1 forward_v I I I I #
coedge $-1 $75 $76 $77 $78 forward $39 $-1 #
model_id-kcp-attrib $-1 $-1 $-1 $41 1 990548709 110 1986920450 3 #
face $-1 $79 $80 $27 $-1 $81 reversed single #
loop $-1 $-1 $82 $41 #
plane-surface $-1 0 0 17.745190528383297 0 0 1 1 0 0 forward_v I I I I #
face $-1 $83 $84 $42 $-1 $85 reversed single #
face $-1 $86 $87 $30 $-1 $88 reversed single #
loop $-1 $-1 $89 $43 #
plane-surface $-1 20.735571585149749 75 -52.320508075688785 -0.500000000000001 0 -0.86602540378443804 0.86602540378443804 0 -0.500000000000001 forward_v I I I I #
face $-1 $90 $91 $32 $-1 $92 reversed single #
loop $-1 $-1 $93 $44 #
plane-surface $-1 44.641016151377499 0 -10.915063509461106 0.86602540378443804 0 -0.500000000000001 0 1 0 forward_v I I I I #
face $-1 $94 $95 $34 $-1 $96 reversed single #
loop $-1 $-1 $97 $45 #
plane-surface $-1 -44.641016151377499 0 -10.915063509461106 -0.86602540378443804 0 -0.500000000000001 0 -1 0 forward_v I I I I #
face $-1 $98 $99 $36 $-1 $100 reversed single #
loop $-1 $-1 $101 $46 #
plane-surface $-1 -30.735571585149842 0 8.6602540378443962 -0.500000000000001 0 0.86602540378443804 0 -1 0 forward_v I I I I #
model_id-kcp-attrib $-1 $-1 $47 $38 1 990548709 110 1986920449 3 #
model_id-kcp-attrib $-1 $-1 $-1 $48 1 990548709 110 1986920449 4 #
face $102 $103 $104 $10 $-1 $105 forward single #
loop $-1 $-1 $106 $48 #
plane-surface $-1 44.641016151377499 0 -18.6602540378444 -0.86602540378443804 0 0.500000000000001 0.500000000000001 0 0.86602540378443804 forward_v I I I I #
coedge $-1 $107 $108 $76 $109 reversed $49 $-1 #
coedge $-1 $110 $51 $111 $112 forward $39 $-1 #
coedge $-1 $51 $110 $74 $109 forward $39 $-1 #
coedge $-1 $113 $114 $51 $78 reversed $115 $-1 #
edge $116 $117 -75 $118 75 $77 $119 forward 7 unknown #
face $120 $121 $122 $27 $-1 $123 reversed single #
loop $-1 $-1 $124 $53 #
plane-surface $-1 0 0 -17.745190528383297 0 0 1 1 0 0 forward_v I I I I #
coedge $-1 $125 $126 $127 $128 forward $54 $-1 #
face $-1 $129 $130 $42 $-1 $131 forward single #
loop $-1 $-1 $132 $56 #
plane-surface $-1 0 75 0 0 -1 0 0 0 -1 forward_v I I I I #
face $-1 $133 $134 $30 $-1 $135 reversed single #
loop $-1 $-1 $136 $57 #
plane-surface $-1 0 -75 0 0 1 0 0 0 1 forward_v I I I I #
coedge $-1 $137 $138 $139 $140 reversed $58 $-1 #
face $-1 $141 $142 $32 $-1 $143 reversed single #
loop $-1 $-1 $144 $60 #
plane-surface $-1 0 75 0 0 -1 0 0 0 -1 forward_v I I I I #
coedge $-1 $145 $146 $147 $148 forward $61 $-1 #
face $-1 $149 $150 $34 $-1 $151 reversed single #
loop $-1 $-1 $152 $63 #
plane-surface $-1 0 -75 0 0 1 0 0 0 1 forward_v I I I I #
coedge $-1 $153 $154 $155 $156 forward $64 $-1 #
face $-1 $157 $158 $36 $-1 $159 reversed single #
loop $-1 $-1 $160 $66 #
plane-surface $-1 0 75 0 0 -1 0 0 0 -1 forward_v I I I I #
coedge $-1 $161 $162 $163 $164 forward $67 $-1 #
model_id-kcp-attrib $-1 $-1 $-1 $71 1 990548709 110 1986920449 5 #
face $165 $166 $167 $10 $-1 $168 forward single #
loop $-1 $-1 $169 $71 #
cone-surface $-1 42.810889132455301 0 -11.8301270189222 0 1 0 4.8296291314453397 0 1.2940952255125999 1 I I 0 1 4.9999999999999973 forward I I I I #
coedge $-1 $170 $171 $110 $172 reversed $72 $-1 #
coedge $-1 $173 $74 $171 $174 reversed $49 $-1 #
coedge $-1 $74 $175 $113 $176 reversed $49 $-1 #
edge $177 $178 -0.78539816339744928 $117 0.78539816339744728 $74 $179 forward 7 unknown #
coedge $-1 $76 $75 $106 $172 forward $39 $-1 #
coedge $-1 $180 $181 $75 $112 reversed $182 $-1 #
edge $-1 $118 -0.78539816339744728 $183 0.78539816339744928 $111 $184 forward 7 unknown #
coedge $-1 $185 $77 $108 $176 forward $115 $-1 #
coedge $-1 $77 $185 $180 $186 forward $115 $-1 #
loop $-1 $-1 $77 $187 #
attrib_edge_convexity-kcp-attrib $-1 $188 $-1 $78 3 #
vertex $-1 $109 $189 #
vertex $-1 $186 $190 #
straight-curve $-1 35.310889132455301 0 -24.820508075688799 0 1 0 I I #
model_id-kcp-attrib $-1 $-1 $-1 $79 1 990548709 110 1986920450 2 #
face $-1 $191 $192 $27 $-1 $193 reversed single #
loop $-1 $-1 $194 $79 #
plane-surface $-1 0 -75 0 0 1 0 0 0 1 forward_v I I I I #
coedge $-1 $195 $196 $197 $198 forward $80 $-1 #
coedge $-1 $199 $82 $200 $201 forward $54 $-1 #
coedge $-1 $82 $199 $202 $203 forward $54 $-1 #
coedge $-1 $204 $205 $82 $128 reversed $206 $-1 #
edge $-1 $207 -75 $208 75 $127 $209 forward 7 unknown #
face $-1 $210 $211 $42 $-1 $212 reversed single #
loop $-1 $-1 $213 $83 #
plane-surface $-1 0 0 17.745190528383297 0 0 1 1 0 0 forward_v I I I I #
coedge $-1 $214 $215 $216 $217 forward $84 $-1 #
face $-1 $218 $219 $30 $-1 $85 reversed single #
loop $-1 $-1 $139 $86 #
plane-surface $-1 -47.810889132455301 0 0 1 0 0 0 0 -1 forward_v I I I I #
coedge $-1 $220 $221 $137 $222 forward $87 $-1 #
coedge $-1 $223 $89 $136 $222 reversed $58 $-1 #
coedge $-1 $89 $223 $224 $225 reversed $58 $-1 #
coedge $-1 $226 $227 $89 $140 forward $134 $-1 #
edge $-1 $228 -112.5 $229 37.5 $139 $230 forward 7 unknown #
face $-1 $231 $232 $32 $-1 $233 reversed single #
loop $-1 $-1 $147 $90 #
plane-surface $-1 47.810889132455301 0 0 -1 0 0 0 0 1 forward_v I I I I #
coedge $-1 $234 $235 $145 $236 reversed $91 $-1 #
coedge $-1 $237 $93 $144 $236 forward $61 $-1 #
coedge $-1 $93 $237 $238 $239 forward $61 $-1 #
coedge $-1 $240 $241 $93 $148 reversed $142 $-1 #
edge $242 $243 -75 $244 75 $147 $245 forward 7 unknown #
face $-1 $246 $247 $34 $-1 $248 forward single #
loop $-1 $-1 $155 $94 #
plane-surface $-1 -47.810889132455301 0 0 1 0 0 0 0 -1 forward_v I I I I #
coedge $-1 $249 $250 $153 $251 reversed $95 $-1 #
coedge $-1 $252 $97 $152 $251 forward $64 $-1 #
coedge $-1 $97 $252 $253 $254 forward $64 $-1 #
coedge $-1 $255 $256 $97 $156 reversed $150 $-1 #
edge $257 $258 -75 $259 75 $155 $260 forward 7 unknown #
face $-1 $261 $262 $36 $-1 $263 reversed single #
loop $-1 $-1 $163 $98 #
plane-surface $-1 -47.810889132455301 0 0 1 0 0 0 0 -1 forward_v I I I I #
coedge $-1 $264 $265 $161 $266 reversed $99 $-1 #
coedge $-1 $267 $101 $160 $266 forward $67 $-1 #
coedge $-1 $101 $267 $268 $269 forward $67 $-1 #
coedge $-1 $270 $271 $101 $164 reversed $158 $-1 #
edge $272 $273 -75 $274 75 $163 $275 forward 7 unknown #
model_id-kcp-attrib $-1 $-1 $-1 $103 1 990548709 110 1986920449 6 #
face $276 $277 $278 $10 $-1 $279 forward single #
loop $-1 $-1 $280 $103 #
cone-surface $-1 -13.6602540378444 0 5 0 1 0 -1.2940952255126099 0 4.8296291314453397 1 I I 0 1 5 forward I I I I #
coedge $-1 $281 $282 $283 $284 forward $104 $-1 #
coedge $-1 $285 $106 $181 $286 reversed $72 $-1 #
coedge $-1 $106 $285 $107 $174 forward $72 $-1 #
edge $287 $183 -75 $178 75 $106 $288 forward 7 unknown #
coedge $-1 $289 $107 $281 $290 reversed $49 $-1 #
edge $291 $292 -5.0000000000000053 $178 5.0000000000000071 $171 $293 forward 7 unknown #
coedge $-1 $108 $294 $295 $296 reversed $49 $-1 #
edge $297 $117 -15.000000000000018 $298 14.641016151377499 $108 $299 forward 7 unknown #
attrib_edge_convexity-kcp-attrib $-1 $300 $-1 $109 1 #
vertex $-1 $174 $301 #
ellipse-curve $-1 37.810889132455301 -75 -20.490381056766601 0 1 0 1.2940952255125999 0 -4.8296291314453397 1 I I #
coedge $-1 $302 $111 $114 $186 reversed $182 $-1 #
coedge $-1 $111 $303 $170 $286 forward $182 $-1 #
loop $-1 $-1 $111 $304 #
vertex $-1 $286 $305 #
ellipse-curve $-1 37.810889132455301 75 -20.490381056766601 0 -1 0 1.2940952255125999 0 -4.8296291314453397 1 I I #
coedge $-1 $114 $113 $306 $307 reversed $115 $-1 #
edge $308 $309 -14.641016151377499 $118 15.000000000000018 $180 $310 forward 7 unknown #
face $311 $304 $115 $10 $-1 $312 reversed single #
convexity-sys-attrib $-1 $-1 $116 $78 #
point $-1 35.310889132455301 -75 -24.820508075688799 #
point $-1 35.310889132455301 75 -24.820508075688799 #
face $313 $314 $315 $27 $-1 $316 reversed single #
loop $-1 $-1 $317 $121 #
plane-surface $-1 -47.810889132455301 0 0 1 0 0 0 0 -1 forward_v I I I I #
coedge $-1 $318 $202 $319 $320 forward $122 $-1 #
coedge $-1 $321 $124 $318 $322 forward $80 $-1 #
coedge $-1 $124 $321 $323 $324 forward $80 $-1 #
coedge $-1 $205 $204 $124 $198 reversed $206 $-1 #
edge $-1 $325 -75 $326 75 $197 $327 forward 7 unknown #
coedge $-1 $126 $125 $328 $329 forward $54 $-1 #
coedge $-1 $330 $331 $125 $201 reversed $315 $-1 #
edge $-1 $208 -47.810889132455301 $332 47.810889132455301 $200 $333 forward 7 unknown #
coedge $-1 $194 $334 $126 $203 reversed $122 $-1 #
edge $-1 $335 -47.810889132455301 $207 47.810889132455301 $202 $336 forward 7 unknown #
coedge $-1 $197 $127 $334 $337 forward $206 $-1 #
coedge $-1 $127 $197 $330 $338 reversed $206 $-1 #
loop $-1 $-1 $204 $314 #
vertex $-1 $128 $339 #
vertex $-1 $128 $340 #
straight-curve $-1 47.810889132455301 0 17.745190528383297 0 1 0 I I #
face $-1 $341 $342 $42 $-1 $88 reversed single #
loop $-1 $-1 $343 $129 #
plane-surface $-1 47.810889132455301 0 0 -1 0 0 0 0 1 forward_v I I I I #
coedge $-1 $344 $345 $346 $347 forward $130 $-1 #
coedge $-1 $215 $132 $345 $348 reversed $84 $-1 #
coedge $-1 $132 $214 $349 $350 forward $84 $-1 #
coedge $-1 $351 $346 $132 $217 reversed $352 $-1 #
edge $-1 $353 -19.945644242235559 $354 17.94110710371254 $132 $355 forward 7 unknown #
face $-1 $-1 $356 $30 $-1 $357 reversed single #
loop $-1 $-1 $224 $133 #
coedge $-1 $221 $136 $227 $358 forward $87 $-1 #
coedge $-1 $136 $220 $359 $360 reversed $87 $-1 #
edge $-1 $361 47.091742198323395 $228 57.091742198323367 $136 $362 forward 7 unknown #
coedge $-1 $138 $137 $363 $364 reversed $58 $-1 #
coedge $-1 $365 $366 $138 $225 forward $219 $-1 #
edge $-1 $229 -57.091742198323367 $367 -47.091742198323395 $224 $368 forward 7 unknown #
coedge $-1 $369 $139 $366 $370 forward $134 $-1 #
coedge $-1 $139 $369 $220 $358 reversed $134 $-1 #
vertex $-1 $358 $371 #
vertex $-1 $370 $372 #
straight-curve $-1 -47.810889132455301 37.5 -12.745190528383294 0 1 0 I I #
face $-1 $-1 $373 $32 $-1 $374 reversed single #
loop $-1 $-1 $238 $141 #
plane-surface $-1 0 -75 0 0 1 0 0 0 1 forward_v I I I I #
coedge $-1 $235 $144 $241 $375 forward $91 $-1 #
coedge $-1 $144 $234 $376 $377 reversed $91 $-1 #
edge $378 $244 -12.773638858443064 $379 1.4528584496606551 $144 $380 forward 7 unknown #
coedge $-1 $146 $145 $381 $382 forward $61 $-1 #
coedge $-1 $383 $384 $146 $239 reversed $232 $-1 #
edge $385 $386 -1.4528584496606551 $243 12.773638858443064 $238 $387 forward 7 unknown #
coedge $-1 $388 $147 $384 $389 forward $142 $-1 #
coedge $-1 $147 $388 $234 $375 reversed $142 $-1 #
convexity-sys-attrib $-1 $-1 $-1 $148 #
vertex $-1 $389 $390 #
vertex $-1 $375 $391 #
straight-curve $-1 47.810889132455301 0 -5.4246824526945492 0 1 0 I I #
face $-1 $-1 $392 $34 $-1 $393 reversed single #
loop $-1 $-1 $394 $149 #
plane-surface $-1 20.735571585149749 75 -52.320508075688785 -0.500000000000001 0 -0.86602540378443804 0.86602540378443804 0 -0.500000000000001 forward_v I I I I #
coedge $-1 $250 $152 $256 $395 forward $95 $-1 #
coedge $-1 $152 $249 $396 $397 forward $95 $-1 #
edge $398 $259 -12.773638858443064 $399 -0.094146934131850157 $152 $400 forward 7 unknown #
coedge $-1 $154 $153 $394 $401 forward $64 $-1 #
coedge $-1 $402 $403 $154 $254 reversed $392 $-1 #
edge $404 $405 0.094146934131850157 $258 12.773638858443064 $253 $406 forward 7 unknown #
coedge $-1 $407 $155 $403 $408 forward $150 $-1 #
coedge $-1 $155 $407 $249 $395 reversed $150 $-1 #
convexity-sys-attrib $-1 $-1 $-1 $156 #
vertex $-1 $408 $409 #
vertex $-1 $395 $410 #
straight-curve $-1 -47.810889132455301 0 -5.4246824526945492 0 -1 0 I I #
face $-1 $-1 $411 $36 $-1 $412 forward single #
loop $-1 $-1 $268 $157 #
plane-surface $-1 0 -75 0 0 1 0 0 0 1 forward_v I I I I #
coedge $-1 $265 $160 $271 $413 reversed $99 $-1 #
coedge $-1 $160 $264 $414 $415 reversed $99 $-1 #
edge $416 $274 -30.860707751696651 $417 7.0260435942514237 $160 $418 forward 7 unknown #
coedge $-1 $162 $161 $419 $420 forward $67 $-1 #
coedge $-1 $421 $422 $162 $269 reversed $262 $-1 #
edge $423 $424 -7.0260435942514237 $273 30.860707751696651 $268 $425 forward 7 unknown #
coedge $-1 $426 $163 $422 $427 reversed $158 $-1 #
coedge $-1 $163 $426 $264 $413 forward $158 $-1 #
convexity-sys-attrib $-1 $-1 $-1 $164 #
vertex $-1 $164 $428 #
vertex $-1 $164 $429 #
straight-curve $-1 -47.810889132455301 0 -1.1981851445907763 0 1 0 I I #
model_id-kcp-attrib $-1 $-1 $-1 $166 1 990548709 110 1986920449 7 #
face $430 $431 $432 $10 $-1 $433 forward single #
loop $-1 $-1 $434 $166 #
plane-surface $-1 0 0 10 0 0 1 1 0 0 forward_v I I I I #
coedge $-1 $435 $436 $437 $438 forward $167 $-1 #
coedge $-1 $439 $169 $173 $290 forward $104 $-1 #
coedge $-1 $169 $439 $303 $440 forward $104 $-1 #
coedge $-1 $441 $442 $169 $284 reversed $443 $-1 #
edge $444 $445 -75 $446 75 $283 $447 forward 7 unknown #
coedge $-1 $171 $170 $439 $448 reversed $72 $-1 #
edge $449 $450 -5.0000000000000053 $183 5.0000000000000071 $170 $451 forward 7 unknown #
attrib_edge_convexity-kcp-attrib $-1 $452 $-1 $172 3 #
straight-curve $-1 42.141016151377499 0 -22.990381056766601 0 -1 0 I I #
coedge $-1 $453 $173 $442 $454 reversed $49 $-1 #
edge $455 $446 -0.78539816339744972 $292 0.78539816339744728 $173 $456 forward 7 unknown #
attrib_edge_convexity-kcp-attrib $-1 $457 $-1 $174 1 #
vertex $-1 $290 $458 #
straight-curve $-1 44.641016151377499 -75 -18.6602540378444 -0.500000000000001 0 -0.86602540378443804 I I #
coedge $-1 $175 $459 $460 $461 reversed $49 $-1 #
coedge $-1 $462 $306 $175 $296 forward $463 $-1 #
edge $464 $298 -9.6410161513775403 $465 9.6410161513775403 $175 $466 forward 7 unknown #
attrib_edge_convexity-kcp-attrib $-1 $467 $-1 $176 1 #
vertex $-1 $176 $468 #
straight-curve $-1 22.3205080756887 -75 -17.320508075688799 -0.86602540378443804 0 0.500000000000001 I I #
convexity-sys-attrib $-1 $-1 $177 $109 #
point $-1 42.141016151377499 -75 -22.990381056766601 #
coedge $-1 $469 $180 $470 $471 reversed $182 $-1 #
coedge $-1 $181 $472 $282 $440 reversed $182 $-1 #
face $473 $-1 $182 $10 $-1 $474 reversed single #
point $-1 42.141016151377499 75 -22.990381056766601 #
coedge $-1 $295 $470 $185 $307 forward $463 $-1 #
edge $475 $309 -75 $298 75 $306 $476 forward 7 unknown #
attrib_edge_convexity-kcp-attrib $-1 $477 $-1 $186 1 #
vertex $-1 $471 $478 #
straight-curve $-1 22.3205080756887 75 -17.320508075688799 0.86602540378443804 0 -0.500000000000001 I I #
model_id-kcp-attrib $-1 $-1 $-1 $187 1 990548709 110 1986920449 16 #
plane-surface $-1 22.3205080756887 0 -17.320508075688799 0.500000000000001 0 0.86602540378443804 0.86602540378443804 0 -0.500000000000001 forward_v I I I I #
model_id-kcp-attrib $-1 $-1 $-1 $191 1 990548709 110 1986920450 4 #
face $-1 $-1 $206 $27 $-1 $479 reversed single #
loop $-1 $-1 $330 $191 #
plane-surface $-1 0 75 0 0 -1 0 0 0 -1 forward_v I I I I #
coedge $-1 $480 $328 $331 $481 forward $192 $-1 #
coedge $-1 $334 $194 $195 $322 reversed $122 $-1 #
coedge $-1 $328 $480 $194 $320 reversed $192 $-1 #
edge $-1 $335 -17.745190528383297 $482 17.745190528383297 $319 $483 forward 7 unknown #
coedge $-1 $196 $195 $480 $484 forward $80 $-1 #
edge $-1 $326 -47.810889132455301 $482 47.810889132455301 $318 $485 forward 7 unknown #
coedge $-1 $331 $330 $196 $324 reversed $315 $-1 #
edge $-1 $486 -47.810889132455301 $325 47.810889132455301 $323 $487 forward 7 unknown #
vertex $-1 $198 $488 #
vertex $-1 $337 $489 #
straight-curve $-1 47.810889132455301 0 -17.745190528383297 0 -1 0 I I #
coedge $-1 $317 $319 $199 $329 reversed $192 $-1 #
edge $-1 $332 -75 $335 75 $328 $490 forward 7 unknown #
coedge $-1 $323 $200 $205 $338 forward $315 $-1 #
coedge $-1 $200 $323 $317 $481 reversed $315 $-1 #
vertex $-1 $201 $491 #
straight-curve $-1 0 75 17.745190528383297 -1 0 0 I I #
coedge $-1 $202 $318 $204 $337 reversed $122 $-1 #
vertex $-1 $329 $492 #
straight-curve $-1 0 -75 17.745190528383297 1 0 0 I I #
edge $-1 $207 -17.745190528383297 $326 17.745190528383297 $204 $493 forward 7 unknown #
edge $-1 $208 -17.745190528383297 $325 17.745190528383297 $205 $494 forward 7 unknown #
point $-1 47.810889132455301 -75 17.745190528383297 #
point $-1 47.810889132455301 75 17.745190528383297 #
face $-1 $-1 $352 $42 $-1 $495 reversed single #
loop $-1 $-1 $496 $210 #
coedge $-1 $349 $497 $351 $498 forward $211 $-1 #
coedge $-1 $499 $213 $500 $501 forward $130 $-1 #
coedge $-1 $213 $499 $214 $348 forward $130 $-1 #
coedge $-1 $216 $502 $213 $347 reversed $352 $-1 #
edge $-1 $354 -112.5 $503 37.5 $213 $504 forward 7 unknown #
edge $-1 $505 -47.810889132455301 $354 -14.999999999999993 $214 $506 forward 7 unknown #
coedge $-1 $507 $343 $215 $350 reversed $211 $-1 #
edge $-1 $505 -17.745190528383297 $353 1.198185144590783 $349 $508 forward 7 unknown #
coedge $-1 $502 $216 $343 $498 reversed $352 $-1 #
loop $-1 $-1 $346 $341 #
vertex $-1 $498 $509 #
vertex $-1 $217 $510 #
straight-curve $-1 30.537454523832498 75 8.7746369765270167 -0.86602540378443804 0 0.500000000000001 I I #
loop $-1 $-1 $363 $218 #
plane-surface $-1 0 0 -17.745190528383297 0 0 1 1 0 0 forward_v I I I I #
edge $-1 $228 12.745190528383297 $511 17.745190528383297 $227 $512 forward 7 unknown #
coedge $-1 $513 $363 $221 $360 forward $356 $-1 #
edge $-1 $361 39.150635094610934 $511 47.810889132455301 $221 $514 forward 7 unknown #
vertex $-1 $360 $515 #
straight-curve $-1 1.6320099576047475 -75 -41.291061627545041 -0.86602540378443804 0 0.500000000000001 I I #
coedge $-1 $359 $516 $223 $364 forward $356 $-1 #
edge $-1 $367 -37.5 $361 112.5 $363 $517 forward 7 unknown #
coedge $-1 $366 $224 $516 $518 reversed $219 $-1 #
coedge $-1 $224 $365 $226 $370 reversed $219 $-1 #
vertex $-1 $225 $519 #
straight-curve $-1 1.6320099576047475 75 -41.291061627545041 0.86602540378443804 0 -0.500000000000001 I I #
coedge $-1 $227 $226 $513 $520 reversed $134 $-1 #
edge $-1 $229 12.745190528383297 $521 17.745190528383297 $366 $522 forward 7 unknown #
point $-1 -47.810889132455294 -75 -12.745190528383297 #
point $-1 -47.810889132455294 75 -12.745190528383297 #
loop $-1 $-1 $381 $231 #
plane-surface $-1 0 0 -17.745190528383297 0 0 1 1 0 0 forward_v I I I I #
edge $-1 $244 5.4246824526945492 $523 17.745190528383297 $241 $524 forward 7 unknown #
coedge $-1 $525 $381 $235 $377 forward $373 $-1 #
edge $-1 $379 40.697640478403429 $523 47.810889132455301 $235 $526 forward 7 unknown #
convexity-sys-attrib $-1 $-1 $-1 $236 #
vertex $-1 $377 $527 #
straight-curve $-1 41.424069703233755 75 -16.486978202874294 -0.500000000000001 0 -0.86602540378443804 I I #
coedge $-1 $376 $528 $237 $382 reversed $373 $-1 #
edge $529 $379 -75 $386 75 $381 $530 forward 7 unknown #
coedge $-1 $384 $238 $528 $531 reversed $232 $-1 #
coedge $-1 $238 $383 $240 $389 reversed $232 $-1 #
convexity-sys-attrib $-1 $-1 $-1 $239 #
vertex $-1 $239 $532 #
straight-curve $-1 41.424069703233755 -75 -16.486978202874294 0.500000000000001 0 0.86602540378443804 I I #
coedge $-1 $241 $240 $525 $533 reversed $142 $-1 #
edge $-1 $243 5.4246824526945492 $534 17.745190528383297 $240 $535 forward 7 unknown #
point $-1 47.810889132455301 -75 -5.4246824526945492 #
point $-1 47.810889132455301 75 -5.4246824526945492 #
loop $-1 $-1 $253 $246 #
plane-surface $-1 0 75 0 0 -1 0 0 0 -1 forward_v I I I I #
coedge $-1 $396 $536 $252 $401 reversed $247 $-1 #
edge $-1 $259 5.4246824526945492 $537 12.745190528383297 $256 $538 forward 7 unknown #
coedge $-1 $539 $394 $250 $397 reversed $247 $-1 #
edge $-1 $537 -57.091742198323367 $399 -49.771234122634596 $250 $540 forward 7 unknown #
convexity-sys-attrib $-1 $-1 $-1 $251 #
vertex $-1 $251 $541 #
straight-curve $-1 -41.424069703233755 -75 -16.486978202874294 0.500000000000001 0 -0.86602540378443804 I I #
edge $542 $399 -112.5 $405 37.5 $394 $543 forward 7 unknown #
coedge $-1 $403 $253 $536 $544 forward $392 $-1 #
coedge $-1 $253 $402 $255 $408 reversed $392 $-1 #
convexity-sys-attrib $-1 $-1 $-1 $254 #
vertex $-1 $544 $545 #
straight-curve $-1 -41.424069703233755 75 -16.486978202874294 -0.500000000000001 0 0.86602540378443804 I I #
coedge $-1 $256 $255 $539 $546 forward $150 $-1 #
edge $-1 $258 5.4246824526945492 $547 12.745190528383297 $403 $548 forward 7 unknown #
point $-1 -47.810889132455301 75 -5.4246824526945492 #
point $-1 -47.810889132455301 -75 -5.4246824526945492 #
loop $-1 $-1 $419 $261 #
plane-surface $-1 0 0 17.745190528383297 0 0 1 1 0 0 forward_v I I I I #
edge $-1 $549 -17.745190528383297 $274 1.1981851445907783 $264 $550 forward 7 unknown #
coedge $-1 $551 $419 $265 $415 forward $411 $-1 #
edge $-1 $417 15.000000000000018 $549 47.810889132455301 $265 $552 forward 7 unknown #
convexity-sys-attrib $-1 $-1 $-1 $266 #
vertex $-1 $415 $553 #
straight-curve $-1 -21.084732240718672 75 14.232168731257579 0.86602540378443804 0 0.500000000000001 I I #
coedge $-1 $414 $554 $267 $420 reversed $411 $-1 #
edge $555 $417 -75 $424 75 $419 $556 forward 7 unknown #
coedge $-1 $422 $268 $554 $557 reversed $262 $-1 #
coedge $-1 $268 $421 $270 $427 forward $262 $-1 #
convexity-sys-attrib $-1 $-1 $-1 $269 #
vertex $-1 $269 $558 #
straight-curve $-1 -21.084732240718672 -75 14.232168731257579 -0.86602540378443804 0 -0.500000000000001 I I #
coedge $-1 $271 $270 $551 $559 reversed $158 $-1 #
edge $-1 $560 -17.745190528383297 $273 1.1981851445907783 $270 $561 forward 7 unknown #
point $-1 -47.810889132455301 -75 -1.1981851445907783 #
point $-1 -47.810889132455301 75 -1.1981851445907783 #
model_id-kcp-attrib $-1 $-1 $-1 $277 1 990548709 110 1986920449 8 #
face $562 $563 $564 $10 $-1 $565 reversed single #
loop $-1 $-1 $566 $277 #
cone-surface $-1 -42.810889132455301 0 -11.8301270189222 0 -1 0 -4.8296291314453397 0 1.2940952255125999 1 I I 0 1 4.9999999999999973 forward I I I I #
coedge $-1 $567 $568 $569 $570 reversed $278 $-1 #
coedge $-1 $569 $280 $571 $572 forward $167 $-1 #
coedge $-1 $280 $569 $573 $574 forward $167 $-1 #
coedge $-1 $575 $576 $280 $438 reversed $577 $-1 #
edge $578 $579 -75 $580 75 $437 $581 forward 7 unknown #
coedge $-1 $282 $281 $285 $448 forward $104 $-1 #
edge $-1 $450 -0.78539816339744728 $445 0.78539816339744972 $303 $582 forward 7 unknown #
coedge $-1 $583 $283 $472 $584 forward $443 $-1 #
coedge $-1 $283 $583 $289 $454 forward $443 $-1 #
loop $-1 $-1 $283 $585 #
attrib_edge_convexity-kcp-attrib $-1 $586 $-1 $284 3 #
vertex $-1 $284 $587 #
vertex $-1 $454 $588 #
straight-curve $-1 45.310889132455301 0 -7.4999999999999902 0 -1 0 I I #
edge $589 $292 -75 $450 75 $285 $590 forward 7 unknown #
attrib_edge_convexity-kcp-attrib $-1 $591 $-1 $286 1 #
vertex $-1 $448 $592 #
straight-curve $-1 44.641016151377499 75 -18.6602540378444 -0.500000000000001 0 -0.86602540378443804 I I #
convexity-sys-attrib $-1 $-1 $287 $172 #
coedge $-1 $593 $289 $594 $595 reversed $49 $-1 #
edge $596 $597 -18.660254037844417 $446 14.999999999999924 $289 $598 forward 7 unknown #
attrib_edge_convexity-kcp-attrib $-1 $599 $-1 $290 1 #
ellipse-curve $-1 42.810889132455301 -75 -11.8301270189222 0 1 0 4.8296291314453397 0 1.2940952255125999 1 I I #
convexity-sys-attrib $-1 $-1 $291 $174 #
point $-1 47.141016151377499 -75 -14.3301270189222 #
coedge $-1 $294 $600 $601 $602 reversed $49 $-1 #
coedge $-1 $603 $604 $294 $461 forward $605 $-1 #
edge $606 $465 -14.641016151377499 $607 15.000000000000018 $294 $608 forward 7 unknown #
coedge $-1 $470 $295 $604 $609 forward $463 $-1 #
loop $-1 $-1 $462 $610 #
attrib_edge_convexity-kcp-attrib $-1 $611 $-1 $296 1 #
vertex $-1 $296 $612 #
straight-curve $-1 0 -75 -10 -1 0 0 I I #
convexity-sys-attrib $-1 $-1 $297 $176 #
point $-1 9.6410161513775403 -75 -10 #
coedge $-1 $613 $302 $614 $615 reversed $182 $-1 #
coedge $-1 $306 $462 $302 $471 forward $463 $-1 #
edge $616 $617 -9.6410161513775403 $309 9.6410161513775403 $302 $618 forward 7 unknown #
coedge $-1 $303 $619 $441 $584 reversed $182 $-1 #
model_id-kcp-attrib $-1 $620 $-1 $304 1 990548709 110 1986920449 23 #
plane-surface $-1 0 75 0 0 -1 0 0 0 -1 forward_v I I I I #
attrib_edge_convexity-kcp-attrib $-1 $621 $-1 $307 2 #
straight-curve $-1 9.6410161513775403 0 -10 0 -1 0 I I #
convexity-sys-attrib $-1 $-1 $308 $186 #
point $-1 9.6410161513775403 75 -10 #
plane-surface $-1 47.810889132455301 0 0 -1 0 0 0 0 1 forward_v I I I I #
coedge $-1 $319 $317 $321 $484 reversed $192 $-1 #
edge $-1 $332 -17.745190528383297 $486 17.745190528383297 $331 $622 forward 7 unknown #
vertex $-1 $484 $623 #
straight-curve $-1 -47.810889132455301 -75 0 0 0 -1 I I #
edge $-1 $482 -75 $486 75 $480 $624 forward 7 unknown #
straight-curve $-1 0 -75 -17.745190528383297 -1 0 0 I I #
vertex $-1 $324 $625 #
straight-curve $-1 0 75 -17.745190528383297 1 0 0 I I #
point $-1 47.810889132455301 75 -17.745190528383297 #
point $-1 47.810889132455301 -75 -17.745190528383297 #
straight-curve $-1 -47.810889132455301 0 17.745190528383297 0 -1 0 I I #
point $-1 -47.810889132455301 75 17.745190528383297 #
point $-1 -47.810889132455301 -75 17.745190528383297 #
straight-curve $-1 47.810889132455301 -75 0 0 0 -1 I I #
straight-curve $-1 47.810889132455301 75 0 0 0 -1 I I #
plane-surface $-1 49.641016151377499 -75 -2.2548094716167242 0.500000000000001 0 0.86602540378443804 -0.86602540378443804 0 0.500000000000001 forward_v I I I I #
coedge $-1 $626 $500 $502 $627 forward $342 $-1 #
coedge $-1 $343 $507 $626 $628 forward $211 $-1 #
edge $-1 $629 -37.5 $353 112.5 $343 $630 forward 7 unknown #
coedge $-1 $345 $344 $507 $631 forward $130 $-1 #
coedge $-1 $496 $626 $344 $501 reversed $342 $-1 #
edge $-1 $503 15.000000000000007 $632 47.810889132455301 $500 $633 forward 7 unknown #
coedge $-1 $346 $351 $496 $627 reversed $352 $-1 #
vertex $-1 $501 $634 #
straight-curve $-1 15.000000000000012 -37.5 17.745190528383297 0 -1 0 I I #
vertex $-1 $631 $635 #
straight-curve $-1 0 75 17.745190528383297 -1 0 0 I I #
coedge $-1 $497 $349 $499 $631 reversed $211 $-1 #
straight-curve $-1 47.810889132455301 75 0 0 0 -1 I I #
point $-1 47.810889132455301 75 -1.198185144590783 #
point $-1 14.999999999999993 75 17.745190528383297 #
vertex $-1 $520 $636 #
straight-curve $-1 -47.810889132455301 -75 0 0 0 -1 I I #
coedge $-1 $516 $359 $369 $520 forward $356 $-1 #
straight-curve $-1 0 -75 -17.745190528383297 -1 0 0 I I #
point $-1 -39.150635094610934 -75 -17.745190528383297 #
coedge $-1 $363 $513 $365 $518 forward $356 $-1 #
straight-curve $-1 -39.150635094610927 37.5 -17.745190528383301 0 -1 0 I I #
edge $-1 $521 -47.810889132455301 $367 -39.150635094610934 $365 $637 forward 7 unknown #
point $-1 -39.150635094610934 75 -17.745190528383297 #
edge $-1 $511 -75 $521 75 $369 $638 forward 7 unknown #
vertex $-1 $518 $639 #
straight-curve $-1 -47.810889132455301 75 0 0 0 -1 I I #
vertex $-1 $533 $640 #
straight-curve $-1 47.810889132455301 75 0 0 0 -1 I I #
coedge $-1 $528 $376 $388 $533 forward $373 $-1 #
straight-curve $-1 0 75 -17.745190528383297 1 0 0 I I #
point $-1 40.697640478403429 75 -17.745190528383297 #
coedge $-1 $381 $525 $383 $531 forward $373 $-1 #
convexity-sys-attrib $-1 $-1 $-1 $382 #
straight-curve $-1 40.697640478403422 0 -17.745190528383297 0 -1 0 I I #
edge $-1 $534 -47.810889132455301 $386 -40.697640478403429 $383 $641 forward 7 unknown #
point $-1 40.697640478403429 -75 -17.745190528383297 #
edge $-1 $523 -75 $534 75 $388 $642 forward 7 unknown #
vertex $-1 $389 $643 #
straight-curve $-1 47.810889132455301 -75 0 0 0 -1 I I #
coedge $-1 $394 $539 $402 $544 reversed $247 $-1 #
vertex $-1 $397 $644 #
straight-curve $-1 -47.810889132455301 -75 0 0 0 -1 I I #
coedge $-1 $536 $396 $407 $546 reversed $247 $-1 #
straight-curve $-1 1.6320099576047475 -75 -41.291061627545041 0.86602540378443804 0 -0.500000000000001 I I #
point $-1 -41.471143170299683 -75 -16.405444566227693 #
convexity-sys-attrib $-1 $-1 $-1 $401 #
straight-curve $-1 -41.471143170299683 37.5 -16.405444566227697 0 1 0 I I #
edge $-1 $405 49.771234122634596 $547 57.091742198323367 $402 $645 forward 7 unknown #
point $-1 -41.471143170299683 75 -16.405444566227693 #
edge $-1 $547 -37.5 $537 112.5 $407 $646 forward 7 unknown #
vertex $-1 $544 $647 #
straight-curve $-1 -47.810889132455301 75 0 0 0 -1 I I #
vertex $-1 $415 $648 #
straight-curve $-1 -47.810889132455301 75 0 0 0 -1 I I #
coedge $-1 $554 $414 $426 $559 forward $411 $-1 #
straight-curve $-1 0 75 17.745190528383297 -1 0 0 I I #
point $-1 -15.000000000000018 75 17.745190528383297 #
coedge $-1 $419 $551 $421 $557 forward $411 $-1 #
convexity-sys-attrib $-1 $-1 $-1 $420 #
straight-curve $-1 -15.000000000000018 0 17.745190528383297 0 -1 0 I I #
edge $-1 $560 -47.810889132455301 $424 -15.000000000000018 $421 $649 forward 7 unknown #
point $-1 -15.000000000000018 -75 17.745190528383297 #
edge $-1 $549 -75 $560 75 $426 $650 forward 7 unknown #
vertex $-1 $559 $651 #
straight-curve $-1 -47.810889132455301 -75 0 0 0 -1 I I #
model_id-kcp-attrib $-1 $-1 $-1 $431 1 990548709 110 1986920449 9 #
face $652 $653 $654 $10 $-1 $655 forward single #
loop $-1 $-1 $656 $431 #
plane-surface $-1 -44.641016151377499 0 -18.6602540378444 0.86602540378443804 0 0.500000000000001 0.500000000000001 0 -0.86602540378443804 forward_v I I I I #
coedge $-1 $657 $658 $659 $660 forward $432 $-1 #
coedge $-1 $661 $434 $593 $662 forward $278 $-1 #
coedge $-1 $434 $661 $663 $664 forward $278 $-1 #
coedge $-1 $436 $435 $434 $570 forward $167 $-1 #
edge $665 $666 -75 $667 75 $434 $668 forward 7 unknown #
coedge $-1 $669 $593 $435 $572 reversed $49 $-1 #
edge $670 $580 -0.26179938779914647 $666 0.26179938779915068 $571 $671 forward 7 unknown #
coedge $-1 $663 $672 $436 $574 reversed $182 $-1 #
edge $673 $667 -0.26179938779915068 $579 0.26179938779914647 $573 $674 forward 7 unknown #
coedge $-1 $659 $437 $672 $675 forward $577 $-1 #
coedge $-1 $437 $659 $669 $676 forward $577 $-1 #
loop $-1 $-1 $437 $677 #
attrib_edge_convexity-kcp-attrib $-1 $678 $-1 $438 3 #
vertex $-1 $438 $679 #
vertex $-1 $676 $680 #
straight-curve $-1 -16.1602540378444 0 9.3301270189221892 0 -1 0 I I #
ellipse-curve $-1 42.810889132455301 75 -11.8301270189222 0 -1 0 4.8296291314453397 0 1.2940952255125999 1 I I #
coedge $-1 $442 $441 $681 $682 reversed $443 $-1 #
edge $683 $445 -14.999999999999924 $684 18.660254037844417 $472 $685 forward 7 unknown #
face $686 $677 $443 $10 $-1 $687 forward single #
convexity-sys-attrib $-1 $-1 $444 $284 #
point $-1 45.310889132455301 75 -7.5 #
point $-1 45.310889132455301 -75 -7.5 #
attrib_edge_convexity-kcp-attrib $-1 $688 $-1 $448 3 #
straight-curve $-1 47.141016151377499 0 -14.3301270189222 0 1 0 I I #
convexity-sys-attrib $-1 $-1 $449 $286 #
point $-1 47.141016151377499 75 -14.3301270189222 #
coedge $-1 $571 $453 $567 $662 reversed $49 $-1 #
coedge $-1 $681 $689 $453 $595 forward $690 $-1 #
edge $691 $692 -0.26179938779915068 $597 0.26179938779914647 $453 $693 forward 7 unknown #
attrib_edge_convexity-kcp-attrib $-1 $694 $-1 $454 1 #
vertex $-1 $595 $695 #
straight-curve $-1 32.320508075688799 -75 -1.9539925233402799e-014 0.86602540378443804 0 -0.500000000000001 I I #
convexity-sys-attrib $-1 $-1 $455 $290 #
coedge $-1 $459 $696 $697 $698 forward $49 $-1 #
coedge $-1 $699 $700 $459 $602 forward $654 $-1 #
edge $701 $607 -0.78539816339744728 $702 0.78539816339744928 $459 $703 forward 7 unknown #
coedge $-1 $614 $460 $700 $704 reversed $605 $-1 #
coedge $-1 $460 $614 $462 $609 reversed $605 $-1 #
loop $-1 $-1 $603 $705 #
attrib_edge_convexity-kcp-attrib $-1 $706 $-1 $461 1 #
vertex $-1 $461 $707 #
straight-curve $-1 -22.3205080756887 -75 -17.320508075688799 -0.86602540378443804 0 -0.500000000000001 I I #
edge $708 $465 -75 $617 75 $462 $709 forward 7 unknown #
face $710 $187 $463 $10 $-1 $711 reversed single #
convexity-sys-attrib $-1 $-1 $464 $296 #
point $-1 -9.6410161513775403 -75 -10 #
coedge $-1 $712 $469 $713 $714 reversed $182 $-1 #
coedge $-1 $604 $603 $469 $615 forward $605 $-1 #
edge $715 $716 -15.000000000000018 $617 14.641016151377499 $469 $717 forward 7 unknown #
attrib_edge_convexity-kcp-attrib $-1 $718 $-1 $471 1 #
vertex $-1 $615 $719 #
straight-curve $-1 0 75 -10 1 0 0 I I #
coedge $-1 $472 $663 $720 $721 reversed $182 $-1 #
model_id-kcp-attrib $-1 $-1 $473 $304 1 990548709 110 1986920449 17 #
convexity-sys-attrib $-1 $-1 $475 $307 #
straight-curve $-1 -47.810889132455301 75 0 0 0 -1 I I #
point $-1 -47.810889132455301 -75 -17.745190528383297 #
straight-curve $-1 -47.810889132455301 0 -17.745190528383297 0 1 0 I I #
point $-1 -47.810889132455301 75 -17.745190528383297 #
coedge $-1 $500 $496 $497 $628 reversed $342 $-1 #
edge $-1 $503 -17.941107103712525 $629 19.945644242235559 $496 $722 forward 7 unknown #
edge $-1 $632 -17.745190528383297 $629 1.1981851445907827 $497 $723 forward 7 unknown #
vertex $-1 $498 $724 #
straight-curve $-1 47.810889132455301 -37.5 -1.1981851445907812 0 1 0 I I #
edge $-1 $632 -75 $505 75 $507 $725 forward 7 unknown #
vertex $-1 $631 $726 #
straight-curve $-1 0 -75 17.745190528383297 1 0 0 I I #
point $-1 15.000000000000007 -75 17.745190528383297 #
point $-1 47.810889132455301 75 17.745190528383297 #
point $-1 -47.810889132455301 -75 -17.745190528383297 #
straight-curve $-1 0 75 -17.745190528383297 1 0 0 I I #
straight-curve $-1 -47.810889132455301 0 -17.745190528383297 0 1 0 I I #
point $-1 -47.810889132455301 75 -17.745190528383297 #
point $-1 47.810889132455301 75 -17.745190528383297 #
straight-curve $-1 0 -75 -17.745190528383297 -1 0 0 I I #
straight-curve $-1 47.810889132455301 0 -17.745190528383297 0 -1 0 I I #
point $-1 47.810889132455301 -75 -17.745190528383297 #
point $-1 -47.810889132455294 -75 -12.745190528383297 #
straight-curve $-1 1.6320099576047475 75 -41.291061627545041 -0.86602540378443804 0 0.500000000000001 I I #
straight-curve $-1 -47.810889132455301 37.5 -12.745190528383294 0 -1 0 I I #
point $-1 -47.810889132455294 75 -12.745190528383297 #
point $-1 -47.810889132455301 75 17.745190528383297 #
straight-curve $-1 0 -75 17.745190528383297 1 0 0 I I #
straight-curve $-1 -47.810889132455301 0 17.745190528383297 0 -1 0 I I #
point $-1 -47.810889132455301 -75 17.745190528383297 #
model_id-kcp-attrib $-1 $-1 $-1 $563 1 990548709 110 1986920449 10 #
face $727 $585 $690 $10 $-1 $728 forward single #
loop $-1 $-1 $700 $563 #
cone-surface $-1 -37.810889132455301 0 -20.490381056766601 0 1 0 -1.2940952255125999 0 -4.8296291314453397 1 I I 0 1 4.9999999999999973 forward I I I I #
coedge $-1 $729 $697 $730 $731 reversed $564 $-1 #
coedge $-1 $730 $566 $732 $733 forward $432 $-1 #
coedge $-1 $566 $730 $696 $734 forward $432 $-1 #
coedge $-1 $576 $575 $566 $660 reversed $577 $-1 #
edge $735 $736 -75 $737 75 $659 $738 forward 7 unknown #
coedge $-1 $568 $567 $689 $739 reversed $278 $-1 #
edge $740 $666 -13.6602540378444 $692 13.6602540378444 $593 $741 forward 7 unknown #
coedge $-1 $619 $573 $568 $664 reversed $182 $-1 #
edge $742 $743 -13.6602540378444 $667 13.6602540378444 $663 $744 forward 7 unknown #
attrib_edge_convexity-kcp-attrib $-1 $745 $-1 $570 3 #
vertex $-1 $572 $746 #
vertex $-1 $664 $747 #
straight-curve $-1 -13.6602540378444 0 10 0 1 0 I I #
coedge $-1 $696 $571 $576 $676 reversed $49 $-1 #
model_id-kcp-attrib $-1 $748 $-1 $572 1 990548709 110 1986920449 29 #
ellipse-curve $-1 -13.6602540378444 -75 5 0 1 0 -1.2940952255126099 0 4.8296291314453397 1 I I #
coedge $-1 $573 $732 $575 $675 reversed $182 $-1 #
model_id-kcp-attrib $-1 $-1 $-1 $574 1 990548709 110 1986920449 22 #
ellipse-curve $-1 -13.6602540378444 75 5 0 -1 0 -1.2940952255126099 0 4.8296291314453397 1 I I #
edge $749 $579 -18.660254037844417 $737 14.999999999999924 $672 $750 forward 7 unknown #
edge $751 $736 -14.999999999999924 $580 18.660254037844417 $669 $752 forward 7 unknown #
face $753 $705 $577 $10 $-1 $754 forward single #
convexity-sys-attrib $-1 $-1 $578 $438 #
point $-1 -16.1602540378444 75 9.3301270189222105 #
point $-1 -16.1602540378444 -75 9.3301270189222105 #
coedge $-1 $720 $594 $583 $682 forward $690 $-1 #
edge $755 $597 -75 $684 75 $583 $756 forward 7 unknown #
attrib_edge_convexity-kcp-attrib $-1 $757 $-1 $584 1 #
vertex $-1 $584 $758 #
straight-curve $-1 32.320508075688799 75 -1.9539925233402799e-014 -0.86602540378443804 0 0.500000000000001 I I #
model_id-kcp-attrib $-1 $-1 $-1 $585 1 990548709 110 1986920449 12 #
plane-surface $-1 32.320508075688799 0 -1.9539925233402799e-014 0.500000000000001 0 0.86602540378443804 0.86602540378443804 0 -0.500000000000001 forward_v I I I I #
convexity-sys-attrib $-1 $-1 $589 $448 #
coedge $-1 $594 $720 $661 $739 forward $690 $-1 #
loop $-1 $-1 $681 $653 #
model_id-kcp-attrib $-1 $759 $-1 $595 1 990548709 110 1986920449 26 #
vertex $-1 $662 $760 #
ellipse-curve $-1 13.6602540378444 -75 5 0 1 0 1.2940952255126099 0 4.8296291314453397 1 I I #
convexity-sys-attrib $-1 $-1 $596 $454 #
point $-1 16.1602540378444 -75 9.3301270189222105 #
coedge $-1 $600 $669 $658 $734 reversed $49 $-1 #
coedge $-1 $656 $761 $600 $698 reversed $564 $-1 #
edge $762 $763 -5.0000000000000053 $702 5.0000000000000071 $697 $764 forward 7 unknown #
coedge $-1 $713 $601 $761 $765 forward $654 $-1 #
coedge $-1 $601 $713 $603 $704 forward $654 $-1 #
model_id-kcp-attrib $-1 $766 $-1 $602 1 990548709 110 1986920449 33 #
vertex $-1 $698 $767 #
ellipse-curve $-1 -37.810889132455301 -75 -20.490381056766601 0 1 0 -1.2940952255125999 0 -4.8296291314453397 1 I I #
edge $768 $716 -75 $607 75 $603 $769 forward 7 unknown #
face $770 $610 $605 $10 $-1 $771 reversed single #
convexity-sys-attrib $-1 $-1 $606 $461 #
point $-1 -35.310889132455301 -75 -24.820508075688799 #
attrib_edge_convexity-kcp-attrib $-1 $772 $-1 $609 2 #
straight-curve $-1 -9.6410161513775403 0 -10 0 1 0 I I #
model_id-kcp-attrib $-1 $-1 $-1 $610 1 990548709 110 1986920449 15 #
plane-surface $-1 0 0 -10 0 0 1 1 0 0 forward_v I I I I #
coedge $-1 $732 $613 $729 $773 reversed $182 $-1 #
coedge $-1 $700 $699 $613 $714 forward $654 $-1 #
edge $774 $775 -0.78539816339744928 $716 0.78539816339744728 $613 $776 forward 7 unknown #
attrib_edge_convexity-kcp-attrib $-1 $777 $-1 $615 1 #
vertex $-1 $704 $778 #
straight-curve $-1 -22.3205080756887 75 -17.320508075688799 0.86602540378443804 0 0.500000000000001 I I #
convexity-sys-attrib $-1 $-1 $616 $471 #
point $-1 -9.6410161513775403 75 -10 #
coedge $-1 $689 $681 $619 $721 forward $690 $-1 #
edge $779 $684 -0.26179938779914647 $743 0.26179938779915068 $619 $780 forward 7 unknown #
straight-curve $-1 30.537454523832498 -75 8.7746369765270167 0.86602540378443804 0 -0.500000000000001 I I #
straight-curve $-1 47.810889132455301 -75 0 0 0 -1 I I #
point $-1 47.810889132455301 -75 -1.1981851445907827 #
straight-curve $-1 47.810889132455301 0 17.745190528383297 0 1 0 I I #
point $-1 47.810889132455301 -75 17.745190528383297 #
model_id-kcp-attrib $-1 $-1 $-1 $653 1 990548709 110 1986920449 11 #
cone-surface $-1 13.6602540378444 0 5 0 -1 0 1.2940952255126099 0 4.8296291314453397 1 I I 0 1 5 forward I I I I #
coedge $-1 $761 $656 $712 $773 forward $564 $-1 #
coedge $-1 $658 $657 $656 $731 forward $432 $-1 #
edge $781 $782 -75 $763 75 $656 $783 forward 7 unknown #
coedge $-1 $672 $712 $657 $733 reversed $182 $-1 #
edge $784 $737 -0.78539816339744972 $782 0.78539816339744728 $732 $785 forward 7 unknown #
edge $786 $763 -0.78539816339744728 $736 0.78539816339744972 $696 $787 forward 7 unknown #
attrib_edge_convexity-kcp-attrib $-1 $788 $-1 $660 3 #
vertex $-1 $734 $789 #
vertex $-1 $675 $790 #
straight-curve $-1 -45.310889132455301 0 -7.4999999999999902 0 1 0 I I #
edge $791 $743 -75 $692 75 $661 $792 forward 7 unknown #
model_id-kcp-attrib $-1 $793 $-1 $662 1 990548709 110 1986920449 27 #
straight-curve $-1 0 -75 10 1 0 0 I I #
model_id-kcp-attrib $-1 $794 $-1 $664 1 990548709 110 1986920449 24 #
vertex $-1 $739 $795 #
straight-curve $-1 0 75 10 -1 0 0 I I #
convexity-sys-attrib $-1 $-1 $665 $570 #
point $-1 -13.6602540378444 -75 10 #
point $-1 -13.6602540378444 75 10 #
attrib_edge_convexity-kcp-attrib $-1 $796 $670 $572 1 #
model_id-kcp-attrib $-1 $797 $-1 $675 1 990548709 110 1986920449 21 #
straight-curve $-1 -32.320508075688799 75 -1.9539925233402799e-014 -0.86602540378443804 0 -0.500000000000001 I I #
model_id-kcp-attrib $-1 $798 $-1 $676 1 990548709 110 1986920449 30 #
straight-curve $-1 -32.320508075688799 -75 -1.9539925233402799e-014 0.86602540378443804 0 0.500000000000001 I I #
model_id-kcp-attrib $-1 $-1 $-1 $677 1 990548709 110 1986920449 13 #
plane-surface $-1 -32.320508075688799 0 -1.9539925233402799e-014 -0.500000000000001 0 0.86602540378443804 0.86602540378443804 0 0.500000000000001 forward_v I I I I #
attrib_edge_convexity-kcp-attrib $-1 $799 $-1 $682 3 #
straight-curve $-1 16.1602540378444 0 9.3301270189221892 0 1 0 I I #
convexity-sys-attrib $-1 $-1 $683 $584 #
point $-1 16.1602540378444 75 9.3301270189222105 #
attrib_edge_convexity-kcp-attrib $-1 $800 $691 $595 1 #
point $-1 13.6602540378444 -75 10 #
coedge $-1 $697 $729 $699 $765 reversed $564 $-1 #
model_id-kcp-attrib $-1 $801 $-1 $698 1 990548709 110 1986920449 32 #
vertex $-1 $731 $802 #
straight-curve $-1 -44.641016151377499 -75 -18.6602540378444 0.500000000000001 0 -0.86602540378443804 I I #
edge $803 $702 -75 $775 75 $761 $804 forward 7 unknown #
attrib_edge_convexity-kcp-attrib $-1 $805 $701 $602 1 #
point $-1 -42.141016151377499 -75 -22.990381056766601 #
attrib_edge_convexity-kcp-attrib $-1 $806 $-1 $704 3 #
straight-curve $-1 -35.310889132455301 0 -24.820508075688799 0 -1 0 I I #
model_id-kcp-attrib $-1 $-1 $-1 $705 1 990548709 110 1986920449 14 #
plane-surface $-1 -22.3205080756887 0 -17.320508075688799 -0.500000000000001 0 0.86602540378443804 0.86602540378443804 0 0.500000000000001 forward_v I I I I #
convexity-sys-attrib $-1 $-1 $708 $609 #
edge $807 $782 -5.0000000000000053 $775 5.0000000000000071 $712 $808 forward 7 unknown #
model_id-kcp-attrib $-1 $-1 $-1 $714 1 990548709 110 1986920449 18 #
vertex $-1 $773 $809 #
ellipse-curve $-1 -37.810889132455301 75 -20.490381056766601 0 -1 0 -1.2940952255125999 0 -4.8296291314453397 1 I I #
convexity-sys-attrib $-1 $-1 $715 $615 #
point $-1 -35.310889132455301 75 -24.820508075688799 #
model_id-kcp-attrib $-1 $-1 $-1 $721 1 990548709 110 1986920449 25 #
ellipse-curve $-1 13.6602540378444 75 5 0 -1 0 1.2940952255126099 0 4.8296291314453397 1 I I #
attrib_edge_convexity-kcp-attrib $-1 $810 $-1 $731 3 #
vertex $-1 $731 $811 #
straight-curve $-1 -47.141016151377499 0 -14.3301270189222 0 -1 0 I I #
model_id-kcp-attrib $-1 $-1 $-1 $733 1 990548709 110 1986920449 20 #
ellipse-curve $-1 -42.810889132455301 75 -11.8301270189222 0 -1 0 -4.8296291314453397 0 1.2940952255125999 1 I I #
model_id-kcp-attrib $-1 $812 $-1 $734 1 990548709 110 1986920449 31 #
ellipse-curve $-1 -42.810889132455301 -75 -11.8301270189222 0 1 0 -4.8296291314453397 0 1.2940952255125999 1 I I #
convexity-sys-attrib $-1 $-1 $735 $660 #
point $-1 -45.310889132455301 -75 -7.5 #
point $-1 -45.310889132455301 75 -7.5 #
attrib_edge_convexity-kcp-attrib $-1 $813 $-1 $739 3 #
straight-curve $-1 13.6602540378444 0 10 0 -1 0 I I #
attrib_edge_convexity-kcp-attrib $-1 $814 $740 $662 1 #
attrib_edge_convexity-kcp-attrib $-1 $815 $742 $664 1 #
point $-1 13.6602540378444 75 10 #
convexity-sys-attrib $-1 $-1 $748 $572 #
attrib_edge_convexity-kcp-attrib $-1 $816 $749 $675 1 #
attrib_edge_convexity-kcp-attrib $-1 $817 $751 $676 1 #
convexity-sys-attrib $-1 $-1 $755 $682 #
convexity-sys-attrib $-1 $-1 $759 $595 #
attrib_edge_convexity-kcp-attrib $-1 $818 $762 $698 1 #
point $-1 -47.141016151377499 -75 -14.3301270189222 #
attrib_edge_convexity-kcp-attrib $-1 $819 $-1 $765 3 #
straight-curve $-1 -42.141016151377499 0 -22.990381056766601 0 1 0 I I #
convexity-sys-attrib $-1 $-1 $766 $602 #
convexity-sys-attrib $-1 $-1 $768 $704 #
model_id-kcp-attrib $-1 $820 $-1 $773 1 990548709 110 1986920449 19 #
straight-curve $-1 -44.641016151377499 75 -18.6602540378444 0.500000000000001 0 -0.86602540378443804 I I #
point $-1 -42.141016151377499 75 -22.990381056766601 #
convexity-sys-attrib $-1 $-1 $781 $731 #
point $-1 -47.141016151377499 75 -14.3301270189222 #
attrib_edge_convexity-kcp-attrib $-1 $821 $786 $734 1 #
convexity-sys-attrib $-1 $-1 $791 $739 #
convexity-sys-attrib $-1 $-1 $793 $662 #
convexity-sys-attrib $-1 $-1 $794 $664 #
convexity-sys-attrib $-1 $-1 $797 $675 #
convexity-sys-attrib $-1 $-1 $798 $676 #
convexity-sys-attrib $-1 $-1 $801 $698 #
convexity-sys-attrib $-1 $-1 $803 $765 #
attrib_edge_convexity-kcp-attrib $-1 $822 $807 $773 1 #
convexity-sys-attrib $-1 $-1 $812 $734 #
convexity-sys-attrib $-1 $-1 $820 $773 #
End-of-ACIS-data 