600 0 1 0           
93 GICL ACIS Healer - Source: /gicl/data5/repository/UMD/tmp/cool_pocket1/cool_pocket1.sat - 6 0 18 ACIS 6.0.3 Solaris 24 Sun Apr 14 00:34:12 2002 
1 9.999999999999999547e-07 1.000000000000000036e-10 
body $-1 $1 $-1 $-1 #
lump $-1 $-1 $2 $0 #
shell $-1 $-1 $-1 $3 $-1 $1 #
face $-1 $4 $5 $2 $-1 $6 forward single #
face $-1 $7 $8 $2 $-1 $9 reversed single #
loop $-1 $-1 $10 $3 #
cone-surface $-1 37.81088913245530136 0 -30.49038105676660138 0 -1 0 1.294095225512599923 0 -4.829629131445339674 1 I I 0 1 4.999999999999997335 forward I I I I #
face $-1 $11 $12 $2 $-1 $13 reversed single #
loop $-1 $-1 $14 $4 #
plane-surface $-1 0 -75 -10 0 1 0 0 0 1 forward_v I I I I #
coedge $-1 $15 $16 $17 $18 forward $5 $-1 #
face $-1 $19 $20 $2 $-1 $21 forward single #
loop $-1 $-1 $22 $7 #
plane-surface $-1 44.64101615137749945 0 -28.66025403784439973 -0.8660254037844380415 0 0.5000000000000009992 0.5000000000000009992 0 0.8660254037844380415 forward_v I I I I #
coedge $-1 $23 $24 $16 $25 reversed $8 $-1 #
coedge $-1 $26 $10 $27 $28 forward $5 $-1 #
coedge $-1 $10 $26 $14 $25 forward $5 $-1 #
coedge $-1 $29 $30 $10 $18 reversed $31 $-1 #
edge $-1 $32 -75 $33 75 $17 $34 forward 7 unknown #
face $-1 $35 $36 $2 $-1 $37 forward single #
loop $-1 $-1 $38 $11 #
cone-surface $-1 42.81088913245530136 0 -21.83012701892219809 0 1 0 4.829629131445339674 0 1.294095225512599923 1 I I 0 1 4.999999999999997335 forward I I I I #
coedge $-1 $39 $40 $26 $41 reversed $12 $-1 #
coedge $-1 $42 $14 $40 $43 reversed $8 $-1 #
coedge $-1 $14 $44 $29 $45 reversed $8 $-1 #
edge $-1 $46 -0.7853981633974492782 $32 0.7853981633974472798 $14 $47 forward 7 unknown #
coedge $-1 $16 $15 $22 $41 forward $5 $-1 #
coedge $-1 $48 $49 $15 $28 reversed $50 $-1 #
edge $-1 $33 -0.7853981633974472798 $51 0.7853981633974492782 $27 $52 forward 7 unknown #
coedge $-1 $53 $17 $24 $45 forward $31 $-1 #
coedge $-1 $17 $53 $48 $54 forward $31 $-1 #
loop $-1 $-1 $17 $55 #
vertex $-1 $25 $56 #
vertex $-1 $54 $57 #
straight-curve $-1 35.31088913245530136 0 -34.82050807568879947 0 1 0 I I #
face $-1 $58 $59 $2 $-1 $60 forward single #
loop $-1 $-1 $61 $19 #
cone-surface $-1 -13.66025403784439973 0 -5 0 1 0 -1.294095225512609915 0 4.829629131445339674 1 I I 0 1 5 forward I I I I #
coedge $-1 $62 $63 $64 $65 forward $20 $-1 #
coedge $-1 $66 $22 $49 $67 reversed $12 $-1 #
coedge $-1 $22 $66 $23 $43 forward $12 $-1 #
edge $-1 $51 -75 $46 75 $22 $68 forward 7 unknown #
coedge $-1 $69 $23 $62 $70 reversed $8 $-1 #
edge $-1 $71 -5.000000000000007105 $46 5.000000000000007105 $40 $72 forward 7 unknown #
coedge $-1 $24 $73 $74 $75 reversed $8 $-1 #
edge $-1 $32 -15.00000000000001776 $76 14.64101615137749945 $24 $77 forward 7 unknown #
vertex $-1 $43 $78 #
ellipse-curve $-1 37.81088913245530136 -75 -30.49038105676660138 0 1 0 1.294095225512599923 0 -4.829629131445339674 1 I I #
coedge $-1 $79 $27 $30 $54 reversed $50 $-1 #
coedge $-1 $27 $80 $39 $67 forward $50 $-1 #
loop $-1 $-1 $27 $81 #
vertex $-1 $67 $82 #
ellipse-curve $-1 37.81088913245530136 75 -30.49038105676660138 0 -1 0 1.294095225512599923 0 -4.829629131445339674 1 I I #
coedge $-1 $30 $29 $83 $84 reversed $31 $-1 #
edge $-1 $85 -14.64101615137749945 $33 15.00000000000001776 $48 $86 forward 7 unknown #
face $-1 $81 $31 $2 $-1 $87 reversed single #
point $-1 35.31088913245530136 -75 -34.82050807568879947 #
point $-1 35.31088913245530136 75 -34.82050807568879947 #
face $-1 $88 $89 $2 $-1 $90 forward single #
loop $-1 $-1 $91 $35 #
plane-surface $-1 0 0 0 0 0 1 1 0 0 forward_v I I I I #
coedge $-1 $92 $93 $94 $95 forward $36 $-1 #
coedge $-1 $96 $38 $42 $70 forward $20 $-1 #
coedge $-1 $38 $96 $80 $97 forward $20 $-1 #
coedge $-1 $98 $99 $38 $65 reversed $100 $-1 #
edge $-1 $101 -75 $102 75 $64 $103 forward 7 unknown #
coedge $-1 $40 $39 $96 $104 reversed $12 $-1 #
edge $-1 $105 -5.000000000000007105 $51 5.000000000000007105 $39 $106 forward 7 unknown #
straight-curve $-1 42.14101615137749945 0 -32.99038105676660138 0 -1 0 I I #
coedge $-1 $107 $42 $99 $108 reversed $8 $-1 #
edge $-1 $102 -0.7853981633974492782 $71 0.7853981633974472798 $42 $109 forward 7 unknown #
vertex $-1 $70 $110 #
straight-curve $-1 44.64101615137749945 -75 -28.66025403784439973 -0.5000000000000009992 0 -0.8660254037844380415 I I #
coedge $-1 $44 $111 $112 $113 reversed $8 $-1 #
coedge $-1 $114 $83 $44 $75 forward $115 $-1 #
edge $-1 $76 -9.641016151377540311 $116 9.641016151377540311 $44 $117 forward 7 unknown #
vertex $-1 $45 $118 #
straight-curve $-1 22.32050807568869999 -75 -27.32050807568879947 -0.8660254037844380415 0 0.5000000000000009992 I I #
point $-1 42.14101615137749945 -75 -32.99038105676660138 #
coedge $-1 $119 $48 $120 $121 reversed $50 $-1 #
coedge $-1 $49 $122 $63 $97 reversed $50 $-1 #
face $-1 $-1 $50 $2 $-1 $123 reversed single #
point $-1 42.14101615137749945 75 -32.99038105676660138 #
coedge $-1 $74 $120 $53 $84 forward $115 $-1 #
edge $-1 $85 -75 $76 75 $83 $124 forward 7 unknown #
vertex $-1 $121 $125 #
straight-curve $-1 22.32050807568869999 75 -27.32050807568879947 0.8660254037844380415 0 -0.5000000000000009992 I I #
plane-surface $-1 22.32050807568869999 0 -27.32050807568879947 0.5000000000000009992 0 0.8660254037844380415 0.8660254037844380415 0 -0.5000000000000009992 forward_v I I I I #
face $-1 $126 $127 $2 $-1 $128 reversed single #
loop $-1 $-1 $129 $58 #
cone-surface $-1 -42.81088913245530136 0 -21.83012701892219809 0 -1 0 -4.829629131445339674 0 1.294095225512599923 1 I I 0 1 4.999999999999997335 forward I I I I #
coedge $-1 $130 $131 $132 $133 reversed $59 $-1 #
coedge $-1 $132 $61 $134 $135 forward $36 $-1 #
coedge $-1 $61 $132 $136 $137 forward $36 $-1 #
coedge $-1 $138 $139 $61 $95 reversed $140 $-1 #
edge $-1 $141 -75 $142 75 $94 $143 forward 7 unknown #
coedge $-1 $63 $62 $66 $104 forward $20 $-1 #
edge $-1 $105 -0.7853981633974472798 $101 0.7853981633974492782 $80 $144 forward 7 unknown #
coedge $-1 $145 $64 $122 $146 forward $100 $-1 #
coedge $-1 $64 $145 $69 $108 forward $100 $-1 #
loop $-1 $-1 $64 $147 #
vertex $-1 $65 $148 #
vertex $-1 $108 $149 #
straight-curve $-1 45.31088913245530136 0 -17.49999999999998934 -0 -1 -0 I I #
edge $-1 $71 -75 $105 75 $66 $150 forward 7 unknown #
vertex $-1 $104 $151 #
straight-curve $-1 44.64101615137749945 75 -28.66025403784439973 -0.5000000000000009992 0 -0.8660254037844380415 I I #
coedge $-1 $152 $69 $153 $154 reversed $8 $-1 #
edge $-1 $155 -18.6602540378444175 $102 14.99999999999992362 $69 $156 forward 7 unknown #
ellipse-curve $-1 42.81088913245530136 -75 -21.83012701892219809 0 1 0 4.829629131445339674 0 1.294095225512599923 1 I I #
point $-1 47.14101615137749945 -75 -24.33012701892219809 #
coedge $-1 $73 $157 $158 $159 reversed $8 $-1 #
coedge $-1 $160 $161 $73 $113 forward $162 $-1 #
edge $-1 $116 -14.64101615137749945 $163 15.00000000000001776 $73 $164 forward 7 unknown #
coedge $-1 $120 $74 $161 $165 forward $115 $-1 #
loop $-1 $-1 $114 $166 #
vertex $-1 $75 $167 #
straight-curve $-1 0 -75 -20 -1 0 0 I I #
point $-1 9.641016151377540311 -75 -20 #
coedge $-1 $168 $79 $169 $170 reversed $50 $-1 #
coedge $-1 $83 $114 $79 $121 forward $115 $-1 #
edge $-1 $171 -9.641016151377540311 $85 9.641016151377540311 $79 $172 forward 7 unknown #
coedge $-1 $80 $173 $98 $146 reversed $50 $-1 #
plane-surface $-1 0 75 -10 0 -1 0 0 0 -1 forward_v I I I I #
straight-curve $-1 9.641016151377540311 0 -20 0 -1 0 I I #
point $-1 9.641016151377540311 75 -20 #
face $-1 $174 $175 $2 $-1 $176 forward single #
loop $-1 $-1 $177 $88 #
plane-surface $-1 -44.64101615137749945 0 -28.66025403784439973 0.8660254037844380415 0 0.5000000000000009992 0.5000000000000009992 0 -0.8660254037844380415 forward_v I I I I #
coedge $-1 $178 $179 $180 $181 forward $89 $-1 #
coedge $-1 $182 $91 $152 $183 forward $59 $-1 #
coedge $-1 $91 $182 $184 $185 forward $59 $-1 #
coedge $-1 $93 $92 $91 $133 forward $36 $-1 #
edge $-1 $186 -75 $187 75 $91 $188 forward 7 unknown #
coedge $-1 $189 $152 $92 $135 reversed $8 $-1 #
edge $-1 $142 -0.2617993877991464102 $186 0.2617993877991507401 $134 $190 forward 7 unknown #
coedge $-1 $184 $191 $93 $137 reversed $50 $-1 #
edge $-1 $187 -0.2617993877991507401 $141 0.2617993877991464102 $136 $192 forward 7 unknown #
coedge $-1 $180 $94 $191 $193 forward $140 $-1 #
coedge $-1 $94 $180 $189 $194 forward $140 $-1 #
loop $-1 $-1 $94 $195 #
vertex $-1 $95 $196 #
vertex $-1 $194 $197 #
straight-curve $-1 -16.16025403784439973 0 -0.6698729810778107918 0 -1 0 I I #
ellipse-curve $-1 42.81088913245530136 75 -21.83012701892219809 0 -1 0 4.829629131445339674 0 1.294095225512599923 1 I I #
coedge $-1 $99 $98 $198 $199 reversed $100 $-1 #
edge $-1 $101 -14.99999999999992362 $200 18.6602540378444175 $122 $201 forward 7 unknown #
face $-1 $195 $100 $2 $-1 $202 forward single #
point $-1 45.31088913245530136 75 -17.5 #
point $-1 45.31088913245530136 -75 -17.5 #
straight-curve $-1 47.14101615137749945 0 -24.33012701892219809 0 1 0 I I #
point $-1 47.14101615137749945 75 -24.33012701892219809 #
coedge $-1 $134 $107 $130 $183 reversed $8 $-1 #
coedge $-1 $198 $203 $107 $154 forward $204 $-1 #
edge $-1 $205 -0.2617993877991507401 $155 0.2617993877991464102 $107 $206 forward 7 unknown #
vertex $-1 $154 $207 #
straight-curve $-1 32.32050807568879947 -75 -10.00000000000001954 0.8660254037844380415 0 -0.5000000000000009992 I I #
coedge $-1 $111 $208 $209 $210 forward $8 $-1 #
coedge $-1 $211 $212 $111 $159 forward $175 $-1 #
edge $-1 $163 -0.7853981633974472798 $213 0.7853981633974492782 $111 $214 forward 7 unknown #
coedge $-1 $169 $112 $212 $215 reversed $162 $-1 #
coedge $-1 $112 $169 $114 $165 reversed $162 $-1 #
loop $-1 $-1 $160 $216 #
vertex $-1 $113 $217 #
straight-curve $-1 -22.32050807568869999 -75 -27.32050807568879947 -0.8660254037844380415 0 -0.5000000000000009992 I I #
edge $-1 $116 -75 $171 75 $114 $218 forward 7 unknown #
face $-1 $55 $115 $2 $-1 $219 reversed single #
point $-1 -9.641016151377540311 -75 -20 #
coedge $-1 $220 $119 $221 $222 reversed $50 $-1 #
coedge $-1 $161 $160 $119 $170 forward $162 $-1 #
edge $-1 $223 -15.00000000000001776 $171 14.64101615137749945 $119 $224 forward 7 unknown #
vertex $-1 $170 $225 #
straight-curve $-1 0 75 -20 1 0 0 I I #
coedge $-1 $122 $184 $226 $227 reversed $50 $-1 #
face $-1 $147 $204 $2 $-1 $228 forward single #
loop $-1 $-1 $212 $126 #
cone-surface $-1 -37.81088913245530136 0 -30.49038105676660138 0 1 0 -1.294095225512599923 0 -4.829629131445339674 1 I I 0 1 4.999999999999997335 forward I I I I #
coedge $-1 $229 $209 $230 $231 reversed $127 $-1 #
coedge $-1 $230 $129 $232 $233 forward $89 $-1 #
coedge $-1 $129 $230 $208 $234 forward $89 $-1 #
coedge $-1 $139 $138 $129 $181 reversed $140 $-1 #
edge $-1 $235 -75 $236 75 $180 $237 forward 7 unknown #
coedge $-1 $131 $130 $203 $238 reversed $59 $-1 #
edge $-1 $186 -13.66025403784439973 $205 13.66025403784439973 $152 $239 forward 7 unknown #
coedge $-1 $173 $136 $131 $185 reversed $50 $-1 #
edge $-1 $240 -13.66025403784439973 $187 13.66025403784439973 $184 $241 forward 7 unknown #
vertex $-1 $135 $242 #
vertex $-1 $185 $243 #
straight-curve $-1 -13.66025403784439973 0 0 0 1 0 I I #
coedge $-1 $208 $134 $139 $194 reversed $8 $-1 #
ellipse-curve $-1 -13.66025403784439973 -75 -5 0 1 0 -1.294095225512609915 0 4.829629131445339674 1 I I #
coedge $-1 $136 $232 $138 $193 reversed $50 $-1 #
ellipse-curve $-1 -13.66025403784439973 75 -5 0 -1 0 -1.294095225512609915 0 4.829629131445339674 1 I I #
edge $-1 $141 -18.6602540378444175 $236 14.99999999999992362 $191 $244 forward 7 unknown #
edge $-1 $235 -14.99999999999992362 $142 18.6602540378444175 $189 $245 forward 7 unknown #
face $-1 $216 $140 $2 $-1 $246 forward single #
point $-1 -16.16025403784439973 75 -0.6698729810777894755 #
point $-1 -16.16025403784439973 -75 -0.6698729810777894755 #
coedge $-1 $226 $153 $145 $199 forward $204 $-1 #
edge $-1 $155 -75 $200 75 $145 $247 forward 7 unknown #
vertex $-1 $146 $248 #
straight-curve $-1 32.32050807568879947 75 -10.00000000000001954 -0.8660254037844380415 0 0.5000000000000009992 I I #
plane-surface $-1 32.32050807568879947 0 -10.00000000000001954 0.5000000000000009992 0 0.8660254037844380415 0.8660254037844380415 0 -0.5000000000000009992 forward_v I I I I #
coedge $-1 $153 $226 $182 $238 forward $204 $-1 #
loop $-1 $-1 $198 $174 #
vertex $-1 $183 $249 #
ellipse-curve $-1 13.66025403784439973 -75 -5 0 1 0 1.294095225512609915 0 4.829629131445339674 1 I I #
point $-1 16.16025403784439973 -75 -0.6698729810777894755 #
coedge $-1 $157 $189 $179 $234 reversed $8 $-1 #
coedge $-1 $177 $250 $157 $210 reversed $127 $-1 #
edge $-1 $251 -5.000000000000007105 $213 5.000000000000007105 $209 $252 forward 7 unknown #
coedge $-1 $221 $158 $250 $253 forward $175 $-1 #
coedge $-1 $158 $221 $160 $215 forward $175 $-1 #
vertex $-1 $210 $254 #
ellipse-curve $-1 -37.81088913245530136 -75 -30.49038105676660138 0 1 0 -1.294095225512599923 0 -4.829629131445339674 1 I I #
edge $-1 $223 -75 $163 75 $160 $255 forward 7 unknown #
face $-1 $166 $162 $2 $-1 $256 reversed single #
point $-1 -35.31088913245530136 -75 -34.82050807568879947 #
straight-curve $-1 -9.641016151377540311 0 -20 0 1 0 I I #
plane-surface $-1 0 0 -20 0 0 1 1 0 0 forward_v I I I I #
coedge $-1 $232 $168 $229 $257 reversed $50 $-1 #
coedge $-1 $212 $211 $168 $222 forward $175 $-1 #
edge $-1 $258 -0.7853981633974492782 $223 0.7853981633974472798 $168 $259 forward 7 unknown #
vertex $-1 $215 $260 #
straight-curve $-1 -22.32050807568869999 75 -27.32050807568879947 0.8660254037844380415 0 0.5000000000000009992 I I #
point $-1 -9.641016151377540311 75 -20 #
coedge $-1 $203 $198 $173 $227 forward $204 $-1 #
edge $-1 $200 -0.2617993877991464102 $240 0.2617993877991507401 $173 $261 forward 7 unknown #
cone-surface $-1 13.66025403784439973 0 -5 0 -1 0 1.294095225512609915 0 4.829629131445339674 1 I I 0 1 5 forward I I I I #
coedge $-1 $250 $177 $220 $257 forward $127 $-1 #
coedge $-1 $179 $178 $177 $231 forward $89 $-1 #
edge $-1 $262 -75 $251 75 $177 $263 forward 7 unknown #
coedge $-1 $191 $220 $178 $233 reversed $50 $-1 #
edge $-1 $236 -0.7853981633974492782 $262 0.7853981633974472798 $232 $264 forward 7 unknown #
edge $-1 $251 -0.7853981633974472798 $235 0.7853981633974492782 $208 $265 forward 7 unknown #
vertex $-1 $234 $266 #
vertex $-1 $193 $267 #
straight-curve $-1 -45.31088913245530136 0 -17.49999999999998934 0 1 0 I I #
edge $-1 $240 -75 $205 75 $182 $268 forward 7 unknown #
straight-curve $-1 0 -75 0 1 0 0 I I #
vertex $-1 $238 $269 #
straight-curve $-1 0 75 0 -1 0 0 I I #
point $-1 -13.66025403784439973 -75 0 #
point $-1 -13.66025403784439973 75 0 #
straight-curve $-1 -32.32050807568879947 75 -10.00000000000001954 -0.8660254037844380415 0 -0.5000000000000009992 I I #
straight-curve $-1 -32.32050807568879947 -75 -10.00000000000001954 0.8660254037844380415 0 0.5000000000000009992 I I #
plane-surface $-1 -32.32050807568879947 0 -10.00000000000001954 -0.5000000000000009992 0 0.8660254037844380415 0.8660254037844380415 0 0.5000000000000009992 forward_v I I I I #
straight-curve $-1 16.16025403784439973 0 -0.6698729810778107918 0 1 0 I I #
point $-1 16.16025403784439973 75 -0.6698729810777894755 #
point $-1 13.66025403784439973 -75 0 #
coedge $-1 $209 $229 $211 $253 reversed $127 $-1 #
vertex $-1 $231 $270 #
straight-curve $-1 -44.64101615137749945 -75 -28.66025403784439973 0.5000000000000009992 0 -0.8660254037844380415 I I #
edge $-1 $213 -75 $258 75 $250 $271 forward 7 unknown #
point $-1 -42.14101615137749945 -75 -32.99038105676660138 #
straight-curve $-1 -35.31088913245530136 0 -34.82050807568879947 -0 -1 -0 I I #
plane-surface $-1 -22.32050807568869999 0 -27.32050807568879947 -0.5000000000000009992 0 0.8660254037844380415 0.8660254037844380415 0 0.5000000000000009992 forward_v I I I I #
edge $-1 $262 -5.000000000000007105 $258 5.000000000000007105 $220 $272 forward 7 unknown #
vertex $-1 $257 $273 #
ellipse-curve $-1 -37.81088913245530136 75 -30.49038105676660138 0 -1 0 -1.294095225512599923 0 -4.829629131445339674 1 I I #
point $-1 -35.31088913245530136 75 -34.82050807568879947 #
ellipse-curve $-1 13.66025403784439973 75 -5 0 -1 0 1.294095225512609915 0 4.829629131445339674 1 I I #
vertex $-1 $231 $274 #
straight-curve $-1 -47.14101615137749945 0 -24.33012701892219809 0 -1 0 I I #
ellipse-curve $-1 -42.81088913245530136 75 -21.83012701892219809 0 -1 0 -4.829629131445339674 0 1.294095225512599923 1 I I #
ellipse-curve $-1 -42.81088913245530136 -75 -21.83012701892219809 0 1 0 -4.829629131445339674 0 1.294095225512599923 1 I I #
point $-1 -45.31088913245530136 -75 -17.5 #
point $-1 -45.31088913245530136 75 -17.5 #
straight-curve $-1 13.66025403784439973 0 0 -0 -1 -0 I I #
point $-1 13.66025403784439973 75 0 #
point $-1 -47.14101615137749945 -75 -24.33012701892219809 #
straight-curve $-1 -42.14101615137749945 0 -32.99038105676660138 0 1 0 I I #
straight-curve $-1 -44.64101615137749945 75 -28.66025403784439973 0.5000000000000009992 0 -0.8660254037844380415 I I #
point $-1 -42.14101615137749945 75 -32.99038105676660138 #
point $-1 -47.14101615137749945 75 -24.33012701892219809 #
End-of-ACIS-data 