**ABCDEFGHIJKLMNOPQRSTUVWXYZabcdefghijklmnopqrstuvwxyz**************************
**PARASOLID !"#$%&'()*+,-./:;<=>?@[\]^_`{|}~0123456789**************************
**PART1;MC=sparc;MC_MODEL=sun4c;MC_ID=chaos;OS=SunOS;OS_RELEASE=4.1.2;FRU=sdl_pa
rasolid_test_sparc;APPL=unknown;SITE=sdl-cambridge-u.k.;USER=brown;FORMAT=text;G
UISE=transmit;KEY=upper_carriage;FILE=upper_carriage.xmt_txt;DATE=14-feb-1992;
**PART2;SCH=SCH_401021_4039;USFLD_SIZE=0;
**PART3;
**END_OF_HEADER*****************************************************************
T50 : TRANSMIT FILE created by modeller version 40102115 SCH_401021_40390 12 1 1
934 0 0 0 0 0 1e3 1e-8 2 2 0 3 0 1 4 1e-8 0 0 102 14 2 upper_carriage13 4 2 0 1
 0 5 6 7 8 9 10 14 5 1663 0 11 0 12 4 8 -16 6 1724 0 13 0 14 9 18 7 1781 0 15 0
 16 10 51 8 1807 0 5 17 0 0 +-4 .195 .325 1 0 0 .195 0 0 -1 31 9 1838 0 6 18 0 0
 +1e-8 -3.45 .195 .325 -1 0 0 0 0 1 .195 29 10 1895 0 7 19 0 -2.856 -.195 .13 29
 19 1896 0 16 20 10 -3.45 -.195 .13 18 16 1782 0 21 7 22 19 29 20 1897 0 22 23 1
9 -3.45 .195 .13 18 22 1783 0 24 16 25 20 29 23 1898 0 25 26 20 -2.856 .195 .13
 18 25 1784 0 27 22 28 23 29 26 1903 0 28 29 23 -2.856 -.195 .52 18 28 1789 0 30
 25 31 26 29 29 1908 0 31 32 26 -3.45 .195 .52 18 31 1794 0 33 28 34 29 29 32 19
06 0 35 36 29 2.856 .195 .52 18 35 1792 0 37 38 39 32 29 36 1901 0 38 40 32 3.45
 -.195 .52 18 38 1787 0 41 42 35 36 29 40 1900 0 43 44 36 3.45 .195 .13 18 43 17
86 0 45 39 46 40 29 44 1899 0 39 47 40 2.856 .195 .13 18 39 1785 0 48 35 43 44 2
9 47 1894 0 42 49 44 2.856 -.195 .13 18 42 1780 0 50 34 38 47 29 49 1893 0 34 51
 47 3.45 -.195 .13 18 34 1779 0 52 31 42 49 29 51 1640 0 46 53 49 3.45 .195 .52
 18 46 1638 0 54 43 55 51 29 53 1620 0 55 56 51 -3.45 -.195 .52 18 55 1618 0 57
 46 58 53 29 56 1603 0 58 59 53 -2.856 .195 .52 18 58 1601 0 60 55 61 56 29 59 1
583 0 61 62 56 2.856 -.195 .52 18 61 1581 0 63 58 64 59 29 62 1565 0 64 65 59 3.
48178947368421 1 .85 18 64 1523 0 66 61 67 62 29 65 1569 0 67 68 62 3.841 1 1.37
86 18 67 1527 0 69 64 70 65 29 68 1570 0 70 71 65 3.841 -1 1.3786 18 70 1528 0 7
2 67 73 68 29 71 1573 0 73 74 68 3.841 1 .85 18 73 1529 0 75 70 76 71 29 74 1574
 0 76 77 71 3.841 -1 .85 18 76 1532 0 78 73 79 74 29 77 1468 0 79 80 74 3.481789
47368421 -1 .85 18 79 1466 0 81 76 82 77 29 80 1451 0 82 83 77 3.83986278637771
 -1 1.3786 18 82 1449 0 84 79 85 80 29 83 1447 0 85 86 80 3.83986278637771 1 1.3
786 18 85 1445 0 87 82 88 83 29 86 1433 0 88 89 83 -3.48178947368421 -1 .85 18 8
8 1391 0 90 85 91 86 29 89 1434 0 91 92 86 -3.841 -1 1.3786 18 91 1392 0 93 88 9
4 89 29 92 1435 0 94 95 89 -3.841 1 1.3786 18 94 1393 0 96 91 97 92 29 95 1438 0
 98 99 92 -3.841 -1 .85 18 98 1398 0 100 97 101 95 29 99 1439 0 97 102 95 -3.841
 1 .85 18 97 1397 0 103 94 98 99 29 102 1321 0 101 104 99 -3.48178947368421 1 .8
5 18 101 1319 0 105 98 106 102 29 104 1317 0 106 107 102 -3.83986278637771 1 1.3
786 18 106 1315 0 108 101 109 104 29 107 1313 0 109 110 104 -3.83986278637771 -1
 1.3786 18 109 1311 0 111 106 112 107 29 110 1300 0 112 113 107 3.45 -1.625 .803
071297989031 18 112 1264 0 114 109 115 110 29 113 1301 0 115 116 110 3.45 1.625
 .803071297989031 18 115 1265 0 117 112 118 113 29 116 1307 0 119 120 113 2.906
 1.625 0 18 119 1271 0 121 118 122 116 29 120 1308 0 118 123 116 3.45 1.625 0 18
 118 1270 0 124 115 119 120 29 123 1309 0 122 125 120 3.45 -1.625 0 18 122 1273
 0 126 119 127 123 29 125 1208 0 127 128 123 2.906 -1.625 0 18 127 1206 0 129 12
2 130 125 29 128 1195 0 130 131 125 -3.45 -1.625 .803071297989031 18 130 1159 0
 132 127 133 128 29 131 1196 0 133 134 128 -3.45 1.625 .803071297989031 18 133 1
160 0 135 130 136 131 29 134 1201 0 137 138 131 -3.45 -1.625 0 18 137 1167 0 139
 136 140 134 29 138 1202 0 136 141 134 -3.45 1.625 0 18 136 1166 0 142 133 137 1
38 29 141 1204 0 140 143 138 -2.906 -1.625 0 18 140 1168 0 144 137 145 141 29 14
3 1104 0 145 146 141 -2.906 1.625 0 18 145 1102 0 147 140 148 143 29 146 1076 0
 148 149 143 -.5 1.8 1.6626 18 148 1010 0 150 145 151 146 29 149 1079 0 151 152
 146 -.5 1.8 .804 18 151 1013 0 153 148 154 149 29 152 1080 0 154 155 149 -.5 2.
549 2.4116 18 154 1014 0 156 151 157 152 29 155 1085 0 157 158 152 .5 2.549 2.41
16 18 157 1019 0 159 154 160 155 29 158 1086 0 160 161 155 .5 1.8 .804 18 160 10
20 0 162 157 163 158 29 161 1093 0 164 165 158 -.5 2.549 .804 18 164 1027 0 166
 163 167 161 29 165 1094 0 163 168 161 .5 2.549 .804 18 163 1026 0 169 160 164 1
65 29 168 1095 0 170 171 165 .5 -2.549 .804 18 170 1029 0 172 173 174 168 29 171
 1092 0 173 175 168 -.5 -2.549 .804 18 173 1028 0 176 177 170 171 29 175 1087 0
 174 178 171 .5 -1.8 .804 18 174 1021 0 179 170 180 175 29 178 1083 0 181 182 17
5 .5 -1.8 1.6626 18 181 1017 0 183 167 177 178 29 182 1081 0 177 184 178 -.5 -2.
549 2.4116 18 177 1015 0 185 181 173 182 29 184 1078 0 180 186 182 -.5 -1.8 .804
 18 180 1012 0 187 174 188 184 29 186 1077 0 167 189 184 -.5 -1.8 1.6626 18 167
 1011 0 190 164 181 186 29 189 908 0 188 191 186 .5 1.8 1.6626 18 188 906 0 192
 180 193 189 29 191 891 0 193 194 189 .5 -2.549 2.4116 18 193 889 0 195 188 196
 191 29 194 854 0 196 197 191 -1.8 1.516 1.3786 18 196 788 0 198 193 199 194 29
 197 855 0 199 200 194 -1.8 -1.516 1.3786 18 199 789 0 201 196 202 197 29 200 85
6 0 202 203 197 -1.8 1.8 1.6626 18 202 790 0 204 199 205 200 29 203 857 0 205 20
6 200 -1.8 1.8 .65 18 205 791 0 207 202 208 203 29 206 858 0 208 209 203 -1.8 -1
.8 1.6626 18 208 792 0 210 205 211 206 29 209 859 0 211 212 206 -1.8 -1.8 .65 18
 211 793 0 213 208 214 209 29 212 860 0 214 215 209 1.8 1.516 1.3786 18 214 794
 0 216 211 217 212 29 215 861 0 217 218 212 1.8 -1.516 1.3786 18 217 795 0 219 2
14 220 215 29 218 863 0 220 221 215 1.8 -1.8 .65 18 220 797 0 222 217 223 218 29
 221 864 0 223 224 218 1.8 1.8 1.6626 18 223 798 0 225 220 226 221 29 224 712 0
 226 227 221 1.8 1.8 .65 18 226 710 0 228 223 229 224 29 227 665 0 229 230 224 1
.8 -1.8 1.6626 18 229 663 0 231 226 232 227 29 230 646 0 232 233 227 -2.856 -1.9
485 .65 18 232 620 0 234 229 235 230 29 233 647 0 235 236 230 -2.856 1.9485 .65
 18 235 621 0 237 232 238 233 29 236 648 0 238 239 233 2.856 1.9485 .65 18 238 6
22 0 240 235 241 236 29 239 649 0 241 242 236 2.856 -1.9485 .65 18 241 623 0 243
 238 244 239 29 242 650 0 245 246 239 -2.856 -1.9485 0 18 245 626 0 247 244 248
 242 29 246 651 0 244 249 242 -2.856 1.9485 0 18 244 625 0 250 241 245 246 29 24
9 653 0 248 251 246 2.856 -1.9485 0 18 248 627 0 252 245 253 249 29 251 580 0 25
3 254 249 2.856 1.9485 0 18 253 578 0 255 248 256 251 29 254 535 0 256 257 251 -
4 -3.615 1.615 18 256 413 0 258 253 259 254 29 257 544 0 260 261 254 3.839862786
37771 1.516 1.3786 18 260 422 0 262 263 264 257 29 261 545 0 263 265 257 3.83986
278637771 -1.516 1.3786 18 263 423 0 266 267 260 261 29 265 547 0 264 268 261 4
 1.7524 1.615 18 264 425 0 269 260 270 265 29 268 548 0 267 271 265 4 -1.7524 1.
615 18 267 426 0 272 273 263 268 29 271 549 0 273 274 268 4 -3.615 1.615 18 273
 427 0 275 259 267 271 29 274 550 0 270 276 271 2.906 2 0 18 270 428 0 277 264 2
78 274 29 276 551 0 259 279 274 2.906 -2 -1110223024625156e-31 18 259 429 0 280
 256 273 276 29 279 267 0 278 281 276 -2.906 2 77715611723761e-29 18 278 265 0 2
82 270 283 279 29 281 239 0 283 284 279 -3.83986278637771 1.516 1.3786 18 283 23
7 0 285 278 286 281 29 284 221 0 286 287 281 -3.83986278637771 -1.516 1.3786 18
 286 219 0 288 283 289 284 29 287 207 0 289 290 284 -4 3.615 1.615 18 289 205 0
 291 286 292 287 29 290 203 0 292 293 287 -4 1.7524 1.615 18 292 201 0 294 289 2
95 290 29 293 199 0 295 296 290 -4 -1.7524 1.615 18 295 197 0 297 292 298 293 29
 296 181 0 298 299 293 -2.906 -2 0 18 298 179 0 300 295 301 296 29 299 155 0 301
 302 296 4 3.615 1.615 18 301 153 0 303 298 304 299 29 302 104 0 304 305 299 -4
 3.8144 1.8144 18 304 87 0 306 301 307 302 29 305 105 0 307 308 302 -4 2.8831 2.
7457 18 307 88 0 309 304 310 305 29 308 108 0 310 311 305 -4 -2.8831 2.7457 18 3
10 91 0 312 307 313 308 29 311 109 0 313 314 308 -4 -3.8144 1.8144 18 313 92 0 3
15 310 316 311 29 314 50 0 316 317 311 4 3.8144 1.8144 18 316 48 0 318 313 319 3
14 29 317 42 0 319 320 314 4 2.8831 2.7457 18 319 40 0 321 316 322 317 29 320 18
 0 322 323 317 4 -2.8831 2.7457 18 322 16 0 324 319 325 320 29 323 11 0 325 0 32
0 4 -3.8144 1.8144 18 325 9 0 326 322 0 323 17 326 327 328 275 325 329 330 0 15
 327 193 0 331 332 0 17 328 327 333 326 313 334 335 0 17 275 327 326 336 273 337
 338 0 17 329 339 272 340 273 326 330 0 16 330 150 0 326 341 342 343 16 341 158
 0 321 344 330 345 16 342 124 0 346 330 347 348 30 343 152 0 330 348 345 0 +1e-8
 4 -2 0 0 -.707106781186548 .707106781186548 30 348 138 0 342 349 343 0 +1e-8 -4
 3.8144 1.8144 1 0 0 30 345 160 0 341 343 350 0 +1e-8 4 1.516 1.3786 0 .70710678
1186548 .707106781186547 30 350 178 0 344 345 351 0 +1e-8 -4 -2 0 0 -.7071067811
86548 .707106781186548 16 344 176 0 315 352 341 350 30 351 182 0 352 350 353 0 +
1e-8 -4 -2 0 1 0 0 16 352 180 0 336 354 344 351 30 353 194 0 354 351 355 0 +1e-8
 -3.61001330113767 -3.039288374165755 1.039288374165754 -.4319933069442615 -.637
723209063055 .637723209063055 16 354 192 0 258 356 352 353 30 355 204 0 356 353
 357 0 +1e-8 -4 1.516 1.3786 0 .707106781186548 .707106781186547 16 356 202 0 30
9 358 354 355 30 357 211 0 358 355 359 0 +1e-8 -4 888178419700125e-30 1.615 0 1
 0 16 358 209 0 291 360 356 357 30 359 222 0 360 357 361 0 +1e-8 -4 -1.516 1.378
6 1 0 0 16 360 220 0 362 363 358 359 30 361 234 0 363 359 364 0 +1e-8 -4.2463726
3689784 -2.11610366415906 1.97870366415906 .431993306944261 .637723209063055 -.6
37723209063055 16 363 232 0 288 365 360 361 30 364 240 0 365 361 366 0 +1e-8 -4
 1.516 1.3786 1 0 0 16 365 238 0 367 368 363 364 30 366 252 0 368 364 369 0 +1e-
8 -3.83986278637771 0 1.3786 0 1 0 16 368 250 0 111 370 365 366 30 369 262 0 370
 366 371 0 +1e-8 -4.24637263689784 2.11610366415906 1.97870366415906 -.431993306
944261 .637723209063055 .637723209063055 16 370 260 0 294 372 368 369 30 371 268
 0 372 369 373 0 +1e-8 -4 2 0 1 0 0 16 372 266 0 374 375 370 371 30 373 275 0 37
5 371 376 0 +1e-8 2.11706756318056 .835351110179711 -1.16464888982029 .431993306
9442615 .637723209063055 .637723209063055 16 375 273 0 377 378 372 373 30 376 28
0 0 378 373 379 0 +1e-8 -3.61001330113767 3.039288374165755 1.039288374165754 .4
319933069442615 -.637723209063055 -.637723209063055 16 378 278 0 282 380 375 376
 30 379 290 0 380 376 381 0 +1e-8 -2.906 0 0 0 -1 0 16 380 288 0 382 383 378 379
 30 381 509 0 383 379 384 0 +1e-8 2.906 -4 0 0 1 0 16 383 387 0 385 386 380 381
 30 384 507 0 387 381 388 0 +1e-8 4 -4 1.615 0 1 0 16 387 385 0 272 338 389 384
 30 388 505 0 386 384 390 0 +1e-8 4 -4 1.615 0 1 0 16 386 383 0 303 391 383 388
 30 390 503 0 338 388 392 0 +1e-8 2.11706756318056 -.835351110179711 -1.16464888
982029 -.4319933069442615 .637723209063055 -.637723209063055 16 338 381 0 337 39
3 387 390 30 392 502 0 389 390 394 0 +1e-8 2.75342689894073 .0878335998269839 -.
2252335998269835 .431993306944261 -.637723209063055 .637723209063055 16 389 380
 0 395 387 396 392 30 394 501 0 396 392 397 0 +1e-8 3.83986278637771 0 1.3786 0
 -1 0 16 396 379 0 87 389 391 394 30 397 500 0 391 394 398 0 +1e-8 2.75342689894
073 -.0878335998269839 -.2252335998269835 -.431993306944261 -.637723209063055 -.
637723209063055 16 391 378 0 399 396 386 397 30 398 482 0 393 397 400 0 +1e-8 -4
 -4 1.615 0 1 0 16 393 360 0 401 402 338 398 30 400 585 0 402 398 403 0 +1e-8 -4
 1.9485 0 -1 0 0 16 402 583 0 250 404 393 400 30 403 645 0 405 400 406 0 +1e-8 0
 -1.9485 0 1 0 0 16 405 618 0 252 407 404 403 30 406 644 0 404 403 408 0 +1e-8 2
.856 0 0 0 1 0 16 404 619 0 255 405 402 406 30 408 642 0 407 406 409 0 +1e-8 -2.
856 0 0 0 -1 0 16 407 617 0 247 410 405 408 30 409 641 0 410 408 411 0 +1e-8 2.8
56 -1.9485 0 0 0 1 16 410 615 0 243 412 407 409 30 411 640 0 412 409 413 0 +1e-8
 2.856 1.9485 0 0 0 1 16 412 614 0 240 414 410 411 30 413 639 0 414 411 415 0 +1
e-8 -2.856 1.9485 0 0 0 1 16 414 613 0 237 416 412 413 30 415 638 0 416 413 417
 0 +1e-8 -2.856 -1.9485 0 0 0 1 16 416 612 0 234 418 414 415 30 417 637 0 418 41
5 419 0 +1e-8 2.856 0 .65 0 -1 0 16 418 611 0 420 421 416 417 30 419 636 0 421 4
17 422 0 +1e-8 0 1.9485 .65 1 0 0 16 421 610 0 423 424 418 419 30 422 635 0 424
 419 425 0 +1e-8 -2.856 0 .65 0 1 0 16 424 609 0 426 427 421 422 30 425 634 0 42
7 422 428 0 +1e-8 0 -1.9485 .65 -1 0 0 16 427 608 0 429 430 424 425 30 428 662 0
 430 425 431 0 +1e-8 -4 -1.516 1.3786 1 0 0 16 430 660 0 432 433 427 428 30 431
 670 0 433 428 434 0 +1e-8 -4 -1.8 1.6626 -1 0 0 16 433 668 0 435 436 430 431 30
 434 683 0 436 431 437 0 +1e-8 -4 1.516 1.3786 1 0 0 16 436 681 0 438 439 433 43
4 30 437 717 0 439 434 440 0 +1e-8 0 1.8 .65 -1 0 0 16 439 715 0 441 442 436 437
 30 440 841 0 442 437 443 0 +1e-8 1.8 1.8 0 0 0 1 16 442 775 0 444 445 439 440 3
0 443 839 0 445 440 446 0 +1e-8 1.8 -1.8 0 0 0 1 16 445 773 0 447 448 442 443 30
 446 837 0 448 443 449 0 +1e-8 1.8 -2.19955 2.06215 0 -.707106781186548 .7071067
81186548 16 448 771 0 231 450 445 446 30 449 836 0 450 446 451 0 +1e-8 1.8 0 1.3
786 0 -1 0 16 450 770 0 219 452 448 449 30 451 835 0 452 449 453 0 +1e-8 1.8 2.1
9955 2.06215 0 -.707106781186548 -.707106781186548 16 452 769 0 216 454 450 451
 30 453 834 0 454 451 455 0 +1e-8 1.8 0 .65 0 1 0 16 454 768 0 228 456 452 453 3
0 455 833 0 456 453 457 0 +1e-8 -1.8 -1.8 0 0 0 1 16 456 767 0 210 458 454 455 3
0 457 831 0 458 455 459 0 +1e-8 -1.8 1.8 0 0 0 1 16 458 765 0 460 461 456 457 30
 459 829 0 461 457 462 0 +1e-8 -1.8 -2.19955 2.06215 0 .707106781186548 -.707106
781186548 16 461 763 0 201 463 458 459 30 462 828 0 463 459 464 0 +1e-8 -1.8 0 1
.3786 0 1 0 16 463 762 0 198 465 461 462 30 464 827 0 465 462 466 0 +1e-8 -1.8 2
.19955 2.06215 0 .707106781186548 .707106781186548 16 465 761 0 204 467 463 464
 30 466 826 0 467 464 468 0 +1e-8 -1.8 0 .65 0 -1 0 16 467 760 0 213 469 465 466
 30 468 824 0 469 466 470 0 +1e-8 0 -1.8 .65 1 0 0 16 469 758 0 222 471 467 468
 30 470 823 0 471 468 472 0 +1e-8 -4 1.8 1.6626 1 0 0 16 471 757 0 473 474 469 4
70 30 472 888 0 474 470 475 0 +1e-8 -4 -1.8 1.6626 -1 0 0 16 474 886 0 476 477 4
71 472 30 475 896 0 477 472 478 0 +1e-8 -4 -2.549 2.4116 -1 0 0 16 477 894 0 479
 480 474 475 30 478 909 0 480 475 481 0 +1e-8 -4 1.8 1.6626 1 0 0 16 480 907 0 2
25 482 477 478 30 481 939 0 482 478 483 0 +1e-8 .5 1.8 0 0 0 -1 16 482 937 0 484
 485 480 481 30 483 1045 0 486 481 487 0 +1e-8 0 -1.8 .804 1 0 0 16 486 979 0 17
9 488 485 483 30 487 1050 0 489 483 490 0 +1e-8 -.5 -1.8 0 0 0 -1 16 489 984 0 1
87 491 492 487 30 490 1051 0 492 487 493 0 +1e-8 -.5 -2.19955 2.06215 0 .7071067
81186548 -.707106781186548 16 492 985 0 190 489 494 490 30 493 1052 0 485 490 49
5 0 +1e-8 -.5 0 .804 0 -1 0 16 485 986 0 176 486 482 493 30 495 1058 0 496 493 4
97 0 +1e-8 .5 -1.8 0 0 0 1 16 496 992 0 183 494 498 495 30 497 1059 0 494 495 49
9 0 +1e-8 .5 -2.19955 2.06215 0 -.707106781186548 .707106781186548 16 494 993 0
 195 492 496 497 30 499 1068 0 498 497 500 0 +1e-8 -.5 -2.549 .804 0 0 1 16 498
 1002 0 185 496 501 499 30 500 1071 0 501 499 502 0 +1e-8 .5 -2.549 .804 0 0 1 1
6 501 1005 0 503 498 504 500 30 502 1074 0 488 500 505 0 +1e-8 .5 0 .804 0 1 0 1
6 488 1009 0 506 504 486 502 30 505 1075 0 504 502 507 0 +1e-8 0 -2.549 .804 1 0
 0 16 504 1008 0 172 501 488 505 30 507 1073 0 508 505 509 0 +1e-8 0 2.549 .804
 -1 0 0 16 508 1006 0 166 510 491 507 30 509 1072 0 491 507 511 0 +1e-8 -.5 0 .8
04 0 -1 0 16 491 1007 0 512 508 489 509 30 511 1070 0 510 509 513 0 +1e-8 .5 2.5
49 .804 0 0 1 16 510 1004 0 514 515 508 511 30 513 1069 0 515 511 516 0 +1e-8 -.
5 2.549 .804 0 0 1 16 515 1003 0 517 518 510 513 30 516 1062 0 518 513 519 0 +1e
-8 .5 0 .804 0 1 0 16 518 996 0 169 520 515 516 30 519 1057 0 520 516 521 0 +1e-
8 .5 2.19955 2.06215 0 -.707106781186548 -.707106781186548 16 520 991 0 192 522
 518 519 30 521 1049 0 522 519 523 0 +1e-8 -.5 2.19955 2.06215 0 .70710678118654
8 .707106781186548 16 522 983 0 156 524 520 521 30 523 1048 0 524 521 525 0 +1e-
8 -.5 1.8 0 0 0 1 16 524 982 0 150 526 522 523 30 525 1046 0 526 523 527 0 +1e-8
 -4 2.549 2.4116 1 0 0 16 526 980 0 159 528 524 525 30 527 1044 0 528 525 529 0
 +1e-8 0 1.8 .804 -1 0 0 16 528 978 0 153 530 526 527 30 529 1109 0 530 527 531
 0 +1e-8 -2.906 0 0 0 -1 0 16 530 1107 0 300 532 528 529 30 531 1113 0 532 529 5
33 0 +1e-8 -3.453 1.625 .8075 .560836809820869 0 -.827926369159692 16 532 1111 0
 534 535 530 531 30 533 1194 0 535 531 536 0 +1e-8 -3.178 -1.625 0 1 0 0 16 535
 1157 0 537 538 532 533 30 536 1192 0 539 533 540 0 +1e-8 -3.178 1.625 0 -1 0 0
 16 539 1155 0 142 541 538 536 30 540 1191 0 538 536 542 0 +1e-8 -3.45 0 0 0 -1
 0 16 538 1156 0 139 539 535 540 30 542 1188 0 541 540 543 0 +1e-8 -3.45 1.625 0
 0 0 1 16 541 1152 0 135 544 539 542 30 543 1187 0 544 542 545 0 +1e-8 -3.45 -1.
625 0 0 0 1 16 544 1151 0 546 547 541 543 30 545 1179 0 547 543 548 0 +1e-8 -3.4
53 -1.625 .8075 -.560836809820869 0 .827926369159692 16 547 1143 0 549 550 544 5
45 30 548 1178 0 550 545 551 0 +1e-8 -3.45 -4 .803071297989031 0 1 0 16 550 1142
 0 552 553 547 548 30 551 1213 0 553 548 554 0 +1e-8 2.906 -4 0 0 1 0 16 553 121
1 0 277 555 550 551 30 554 1225 0 555 551 556 0 +1e-8 3.453 -1.625 .8075 -.56083
6809820869 0 -.827926369159692 16 555 1223 0 557 558 553 554 30 556 1299 0 559 5
54 560 0 +1e-8 3.178 -1.625 0 1 0 0 16 559 1262 0 126 561 558 556 30 560 1298 0
 558 556 562 0 +1e-8 3.45 0 0 0 1 0 16 558 1263 0 124 559 555 560 30 562 1297 0
 561 560 563 0 +1e-8 3.178 1.625 0 -1 0 0 16 561 1260 0 564 565 559 562 30 563 1
295 0 565 562 566 0 +1e-8 3.45 -1.625 0 0 0 1 16 565 1259 0 114 567 561 563 30 5
66 1294 0 567 563 568 0 +1e-8 3.45 1.625 0 0 0 1 16 567 1258 0 569 570 565 566 3
0 568 1286 0 570 566 571 0 +1e-8 3.453 1.625 .8075 .560836809820869 0 .827926369
159692 16 570 1250 0 572 573 567 568 30 571 1283 0 573 568 574 0 +1e-8 3.45 -4 .
803071297989031 0 -1 0 16 573 1247 0 575 576 570 571 30 574 1318 0 576 571 577 0
 +1e-8 -3.83986278637771 0 1.3786 0 1 0 16 576 1316 0 285 578 573 574 30 577 132
5 0 578 574 579 0 +1e-8 -3.48178947368421 -4 .85 0 -1 0 16 578 1323 0 90 580 576
 577 30 579 1327 0 580 577 581 0 +1e-8 -3.453 1 .8075 .560836809820869 0 -.82792
6369159692 16 580 1326 0 105 582 578 579 30 581 1429 0 582 579 583 0 +1e-8 -3.64
55 -1 .85 1 0 0 16 582 1386 0 584 585 580 581 30 583 1426 0 585 581 586 0 +1e-8
 -3.841 0 .85 0 -1 0 16 585 1385 0 100 587 582 583 30 586 1423 0 587 583 588 0 +
1e-8 -3.841 1 .85 0 0 1 16 587 1381 0 96 589 585 586 30 588 1422 0 589 586 590 0
 +1e-8 -3.841 -1 .85 0 0 1 16 589 1380 0 93 591 587 588 30 590 1420 0 591 588 59
2 0 +1e-8 -3.6455 1 1.3786 1 0 0 16 591 1378 0 593 594 589 590 30 592 1419 0 594
 590 595 0 +1e-8 -3.841 0 1.3786 0 1 0 16 594 1377 0 596 597 591 592 30 595 1416
 0 597 592 598 0 +1e-8 -3.6455 1 .85 -1 0 0 16 597 1374 0 103 599 594 595 30 598
 1412 0 599 595 600 0 +1e-8 -3.6455 -1 1.3786 -1 0 0 16 599 1370 0 601 602 597 5
98 30 600 1411 0 602 598 603 0 +1e-8 -3.453 -1 .8075 -.560836809820869 0 .827926
369159692 16 602 1369 0 604 605 599 600 30 603 1452 0 605 600 606 0 +1e-8 3.8398
6278637771 0 1.3786 0 -1 0 16 605 1450 0 607 608 602 603 30 606 1472 0 608 603 6
09 0 +1e-8 3.48178947368421 -4 .85 0 1 0 16 608 1470 0 66 610 605 606 30 609 147
7 0 610 606 611 0 +1e-8 3.453 -1 .8075 -.560836809820869 0 -.827926369159692 16
 610 1475 0 81 612 608 609 30 611 1561 0 612 609 613 0 +1e-8 3.841 0 .85 0 1 0 1
6 612 1520 0 75 614 610 611 30 613 1560 0 614 611 615 0 +1e-8 3.6455 1 .85 -1 0
 0 16 614 1517 0 616 617 612 613 30 615 1558 0 617 613 618 0 +1e-8 3.841 -1 .85
 0 0 1 16 617 1516 0 72 619 614 615 30 618 1557 0 619 615 620 0 +1e-8 3.841 1 .8
5 0 0 1 16 619 1515 0 69 621 617 618 30 620 1554 0 621 618 622 0 +1e-8 3.841 0 1
.3786 0 -1 0 16 621 1512 0 623 624 619 620 30 622 1551 0 624 620 625 0 +1e-8 3.6
455 -1 1.3786 -1 0 0 16 624 1509 0 626 627 621 622 30 625 1550 0 627 622 628 0 +
1e-8 3.6455 1 1.3786 1 0 0 16 627 1508 0 629 630 624 625 30 628 1548 0 630 625 6
31 0 +1e-8 3.453 1 .8075 .560836809820869 0 .827926369159692 16 630 1506 0 632 6
33 627 628 30 631 1546 0 633 628 634 0 +1e-8 3.6455 -1 .85 1 0 0 16 633 1504 0 7
8 635 630 631 31 634 1588 0 635 631 636 0 +1e-8 2.856 -.195 .325 1 0 0 0 0 -1 .1
95 16 635 1586 0 637 638 633 634 31 636 1612 0 638 634 639 0 +1e-8 -2.856 .195 .
325 -1 0 0 0 0 1 .195 16 638 1610 0 640 641 635 636 31 639 1628 0 641 636 642 0
 +1e-8 -3.45 -.195 .325 -1 0 0 0 0 1 .195 16 641 1626 0 643 644 638 639 31 642 1
652 0 644 639 645 0 +1e-8 3.45 .195 .325 1 0 0 0 0 -1 .195 16 644 1650 0 646 647
 641 642 31 645 1840 0 648 642 649 0 +1e-8 2.856 .195 .325 1 0 0 0 0 -1 .195 16
 648 1726 0 37 650 647 645 31 649 1841 0 651 645 652 0 +1e-8 3.45 -.195 .325 1 0
 0 0 0 -1 .195 16 651 1727 0 653 654 650 649 30 652 1845 0 655 649 656 0 +1e-8 3
.45 0 .13 0 1 0 16 655 1731 0 45 657 658 652 30 656 1848 0 657 652 659 0 +1e-8 2
.856 0 .13 0 1 0 16 657 1734 0 48 660 655 656 30 659 1850 0 661 656 662 0 +1e-8
 -4 -.195 .13 1 0 0 16 661 1736 0 663 664 654 659 30 662 1856 0 647 659 665 0 +1
e-8 0 .195 .13 -1 0 0 16 647 1742 0 666 648 644 662 30 665 1857 0 664 662 667 0
 +1e-8 3.45 0 .52 0 -1 0 16 664 1743 0 668 658 661 665 30 667 1860 0 658 665 669
 0 +1e-8 2.856 0 .52 0 -1 0 16 658 1746 0 63 655 664 667 30 669 1862 0 654 667 6
70 0 +1e-8 -4 -.195 .52 1 0 0 16 654 1748 0 671 661 651 669 30 670 1866 0 650 66
9 672 0 +1e-8 0 .195 .52 1 0 0 16 650 1752 0 673 651 648 670 30 672 1868 0 660 6
70 674 0 +1e-8 0 .195 .52 1 0 0 16 660 1754 0 675 676 657 672 30 674 1864 0 676
 672 677 0 +1e-8 -4 -.195 .52 1 0 0 16 676 1750 0 678 679 660 674 30 677 1859 0
 679 674 680 0 +1e-8 -2.856 0 .52 0 1 0 16 679 1745 0 60 681 676 677 30 680 1858
 0 681 677 682 0 +1e-8 -3.45 0 .52 0 1 0 16 681 1744 0 683 684 679 680 30 682 18
54 0 684 680 685 0 +1e-8 0 .195 .13 -1 0 0 16 684 1740 0 686 687 681 682 30 685
 1852 0 687 682 688 0 +1e-8 -4 -.195 .13 1 0 0 16 687 1738 0 689 690 684 685 30
 688 1847 0 690 685 691 0 +1e-8 -2.856 0 .13 0 -1 0 16 690 1733 0 15 692 687 688
 30 691 1846 0 692 688 18 0 +1e-8 -3.45 0 .13 0 -1 0 16 692 1732 0 21 14 690 691
 31 18 1843 0 14 691 9 0 +1e-8 -2.856 -.195 .325 -1 0 0 0 0 1 .195 16 14 1729 0
 30 6 692 18 17 30 693 60 15 28 694 14 0 15 693 1599 0 640 695 696 17 60 693 640
 30 58 697 679 0 17 15 693 30 640 7 27 690 0 17 694 698 699 678 7 30 14 0 15 698
 1672 0 643 11 0 17 699 698 643 694 16 689 687 0 17 678 698 694 643 28 700 676 0
 17 643 698 678 699 55 701 641 0 17 700 702 683 697 55 678 676 0 15 702 1688 0 6
83 703 0 17 683 702 675 700 31 57 681 0 17 697 702 700 675 28 60 679 0 17 675 70
2 697 683 58 704 660 0 17 704 12 13 705 31 675 660 0 15 12 1664 0 13 5 0 17 13 1
2 706 704 22 33 6 0 17 705 12 704 706 58 640 638 0 17 706 12 705 13 25 686 684 0
 17 640 693 15 60 25 705 638 0 17 686 707 21 27 22 706 684 0 15 707 1680 0 21 70
8 0 17 21 707 689 686 16 24 692 0 17 27 707 686 689 25 15 690 0 17 689 707 27 21
 7 699 687 0 17 24 709 33 701 22 21 692 0 15 709 1634 0 24 710 711 17 33 709 57
 24 31 13 6 0 17 701 709 24 57 16 643 641 0 17 57 709 701 33 55 683 681 0 14 710
 1124 0 712 713 709 4 714 +15 711 1125 0 546 710 0 17 546 711 552 139 130 715 54
4 0 17 552 711 716 546 133 132 550 0 17 139 711 546 716 137 717 538 0 17 715 718
 537 549 137 546 544 0 15 718 1127 0 537 712 0 17 537 718 549 715 140 719 535 0
 17 549 718 715 537 130 144 547 0 17 144 720 300 132 140 549 547 0 15 720 1329 0
 721 722 0 17 300 720 258 144 298 723 530 0 17 132 720 144 724 130 552 550 0 17
 724 720 132 382 133 534 532 0 17 382 720 724 282 145 725 380 0 17 534 726 142 1
35 145 724 532 0 15 726 1129 0 135 727 0 17 142 726 135 534 136 147 539 0 17 135
 726 534 142 133 716 541 0 17 716 711 139 552 136 135 541 0 17 147 728 725 717 1
45 142 539 0 15 728 289 0 725 729 0 17 725 728 374 147 278 382 380 0 17 717 728
 147 719 136 139 538 0 17 719 728 717 723 137 537 535 0 17 723 728 719 730 140 3
00 530 0 17 730 728 723 280 298 336 352 0 17 280 728 730 129 259 385 383 0 17 33
6 327 275 331 259 730 352 0 17 331 327 336 333 298 258 354 0 17 333 327 331 328
 256 315 344 0 17 258 720 401 300 256 331 354 0 17 401 720 288 258 295 731 393 0
 17 288 720 111 401 286 732 363 0 17 731 733 315 297 256 401 393 0 15 733 215 0
 731 734 0 17 315 733 312 731 313 333 344 0 17 297 733 731 312 295 735 736 0 17
 312 733 297 315 310 737 738 0 17 735 739 740 732 310 297 736 0 16 736 83 0 297
 741 738 742 16 741 80 0 306 743 736 744 16 738 84 0 312 736 745 746 30 742 100
 0 736 746 744 0 +1e-8 -4 -2.8831 2.7457 0 .707106781186548 -.707106781186547 30
 746 101 0 738 747 742 0 +1e-8 -4 -3.8144 1.8144 0 .707106781186548 .70710678118
6548 30 744 97 0 741 742 748 0 +1e-8 -4 2.8831 2.7457 0 .707106781186548 -.70710
6781186548 30 748 96 0 743 744 749 0 +1e-8 -4 3.8144 1.8144 0 -.707106781186548
 -.707106781186548 16 743 79 0 750 335 741 748 30 749 133 0 335 748 751 0 +1e-8
 -4 -3.8144 1.8144 1 0 0 16 335 111 0 334 752 743 749 30 751 134 0 752 749 349 0
 +1e-8 -4 -2.8831 2.7457 1 0 0 16 752 112 0 740 347 335 751 30 349 137 0 347 751
 348 0 +1e-8 -4 2.8831 2.7457 1 0 0 16 347 121 0 753 342 752 349 17 753 754 318
 755 319 756 347 0 15 754 125 0 757 758 0 17 318 754 757 753 316 759 760 0 17 75
5 754 753 757 307 306 741 0 17 756 761 762 321 307 753 347 0 15 761 261 0 473 76
3 0 17 762 761 764 756 292 309 356 0 17 321 761 756 269 319 765 341 0 17 269 761
 321 438 264 399 391 0 17 765 766 303 759 264 321 341 0 15 766 7 0 765 767 0 17
 303 766 768 765 301 769 386 0 17 759 766 765 768 319 318 760 0 17 768 766 759 3
03 316 770 745 0 16 760 49 0 318 745 771 772 16 745 57 0 770 738 760 747 16 771
 25 0 773 760 774 775 30 772 51 0 760 775 747 0 +1e-8 4 2.8831 2.7457 0 .7071067
81186548 -.707106781186548 30 775 27 0 771 776 772 0 +1e-8 4 -2.8831 2.7457 0 .7
07106781186548 -.707106781186547 30 747 59 0 745 772 746 0 +1e-8 4 3.8144 1.8144
 0 -.707106781186548 -.707106781186548 30 776 19 0 774 0 775 0 +1e-8 4 -3.8144 1
.8144 0 .707106781186548 .707106781186548 16 774 17 0 324 771 0 776 17 324 777 7
78 334 322 340 774 0 15 777 113 0 778 779 0 17 778 777 737 324 310 740 752 0 17
 334 777 324 737 325 328 335 0 17 340 339 329 780 325 324 774 0 15 339 166 0 329
 781 0 17 780 339 340 272 322 773 771 0 17 272 339 780 329 267 782 387 0 17 773
 739 266 740 267 780 771 0 15 739 233 0 479 783 0 17 266 739 784 773 263 395 389
 0 17 740 739 773 735 322 778 752 0 17 784 739 231 266 217 432 430 0 17 395 785
 782 607 267 266 389 0 15 785 1476 0 786 787 0 17 782 785 337 395 273 272 387 0
 17 607 785 395 786 263 84 605 0 17 786 785 607 788 82 81 610 0 17 84 789 790 43
2 82 607 605 0 15 789 1482 0 791 792 0 17 790 789 793 84 70 626 624 0 17 432 789
 84 219 263 784 430 0 17 219 789 432 794 217 795 450 0 17 794 789 219 262 214 43
8 436 0 17 795 796 797 798 214 219 450 0 15 796 741 0 447 799 0 17 797 796 800 7
95 223 216 452 0 17 798 796 795 447 217 231 448 0 17 447 796 798 801 229 802 445
 0 17 231 739 435 784 229 798 448 0 17 435 739 195 231 181 803 433 0 17 195 739
 479 435 193 804 494 0 17 803 805 802 183 229 435 433 0 15 805 733 0 806 807 0 1
7 802 805 808 803 220 447 445 0 17 183 805 803 179 181 809 496 0 17 179 805 183
 187 174 810 486 0 17 809 811 812 804 174 183 496 0 15 811 965 0 812 813 0 17 81
2 811 503 809 170 506 488 0 17 804 811 809 503 181 195 494 0 17 503 811 804 812
 193 814 501 0 17 814 815 816 817 170 503 501 0 15 815 957 0 814 818 0 17 816 81
5 185 814 173 172 504 0 17 817 815 814 185 193 479 477 0 17 185 815 817 816 177
 819 498 0 17 479 739 190 195 177 817 477 0 17 190 739 476 479 167 820 492 0 17
 476 739 201 190 208 806 474 0 17 820 821 819 822 177 190 492 0 15 821 961 0 820
 823 0 17 819 821 824 820 173 185 498 0 17 822 821 820 824 167 187 489 0 17 824
 821 822 819 180 176 485 0 17 187 805 179 806 180 822 489 0 17 806 805 187 210 1
67 476 474 0 17 210 805 806 808 208 825 456 0 17 808 805 210 802 211 222 469 0 1
7 825 826 207 827 211 210 456 0 15 826 737 0 460 828 0 17 207 826 460 825 205 21
3 467 0 17 827 826 825 829 208 201 461 0 17 829 826 827 830 199 198 463 0 17 201
 739 831 476 199 827 461 0 17 831 739 732 201 286 362 360 0 17 732 739 735 831 2
95 288 363 0 17 362 832 198 833 199 831 360 0 15 832 1349 0 834 835 0 17 198 832
 836 362 196 829 463 0 17 833 832 362 834 286 111 368 0 17 834 832 833 837 109 6
01 599 0 17 111 720 721 288 109 833 368 0 17 721 720 838 111 88 604 602 0 17 838
 720 839 721 101 90 578 0 17 604 840 601 584 109 721 602 0 15 840 1351 0 584 841
 0 17 601 840 842 604 91 834 599 0 17 584 840 604 842 88 843 582 0 17 842 840 58
4 601 98 93 589 0 17 843 844 845 90 98 584 582 0 15 844 1355 0 846 847 0 17 845
 844 846 843 97 100 585 0 17 90 844 843 846 88 838 578 0 17 846 844 90 845 101 1
03 597 0 17 103 848 96 105 97 846 597 0 15 848 1353 0 593 849 0 17 96 848 593 10
3 94 850 587 0 17 105 848 103 593 101 839 580 0 17 593 848 105 96 106 851 591 0
 17 839 720 285 838 106 105 580 0 17 285 720 294 839 283 108 576 0 17 294 720 29
1 285 292 764 370 0 17 108 832 851 836 106 285 576 0 17 851 832 837 108 94 593 5
91 0 17 836 832 108 198 283 367 365 0 17 367 761 204 764 196 836 365 0 17 204 76
1 473 367 202 830 465 0 17 764 761 367 762 283 294 370 0 17 473 761 156 204 148
 852 471 0 17 830 826 829 460 196 204 465 0 17 460 826 830 207 202 853 458 0 17
 853 854 855 852 205 460 458 0 15 854 729 0 153 856 0 17 855 854 444 853 226 441
 439 0 17 852 854 853 150 202 473 471 0 17 150 854 852 153 148 857 524 0 17 153
 854 150 484 151 162 528 0 17 857 858 859 860 151 150 524 0 15 858 959 0 859 861
 0 17 859 858 517 857 164 512 491 0 17 860 858 857 517 148 156 522 0 17 517 858
 860 859 154 862 515 0 17 156 761 159 473 154 860 522 0 17 159 761 192 156 157 8
63 526 0 17 192 761 225 159 188 864 520 0 17 863 865 862 514 154 159 526 0 15 86
5 955 0 862 866 0 17 862 865 867 863 164 517 515 0 17 514 865 863 867 157 868 51
0 0 17 867 865 514 862 163 166 508 0 17 868 869 870 864 163 514 510 0 15 869 963
 0 864 871 0 17 870 869 872 868 160 169 518 0 17 864 869 868 872 157 192 520 0 1
7 872 869 864 870 188 484 482 0 17 484 854 153 873 160 872 482 0 17 873 854 484
 444 188 225 480 0 17 444 854 873 855 223 800 442 0 17 225 761 216 192 223 873 4
80 0 17 216 761 438 225 214 797 452 0 17 438 761 269 216 260 794 436 0 17 800 79
6 801 797 226 444 442 0 17 801 796 447 800 220 228 454 0 17 228 874 441 222 226
 801 454 0 15 874 708 0 213 875 876 17 441 874 213 228 205 855 439 0 17 222 874
 228 213 220 808 469 0 17 213 874 222 441 211 207 467 0 14 875 596 0 877 799 874
 4 878 -15 876 597 0 429 875 0 17 429 876 426 420 232 879 427 0 17 426 876 423 4
29 235 880 424 0 17 420 876 429 423 241 881 418 0 17 879 882 883 234 241 429 427
 0 15 882 599 0 883 877 0 17 883 882 884 879 248 243 410 0 17 234 882 879 884 23
2 885 416 0 17 884 882 234 883 245 252 405 0 17 885 696 886 880 245 234 416 0 15
 696 601 0 885 695 0 17 886 696 237 885 244 247 407 0 17 880 696 885 237 232 426
 424 0 17 237 696 880 886 235 887 414 0 17 887 888 889 890 244 237 414 0 15 888
 603 0 887 891 0 17 889 888 240 887 253 250 402 0 17 890 888 887 240 235 423 421
 0 17 240 888 890 889 238 892 412 0 17 423 876 420 426 238 890 421 0 17 892 893
 894 881 253 240 412 0 15 893 607 0 894 895 0 17 894 893 243 892 248 255 404 0 1
7 881 893 892 243 238 420 418 0 17 243 893 881 894 241 883 410 0 17 255 896 250
 252 253 894 404 0 15 896 576 0 247 729 728 17 250 896 247 255 244 889 402 0 17
 252 896 255 247 248 884 405 0 17 247 896 252 250 245 886 407 0 14 729 291 0 897
 787 896 4 898 -14 897 281 0 763 729 899 4 900 -14 787 324 0 729 722 785 4 901 +
50 898 292 0 729 900 901 0 +-4 0 0 0 0 1 1 0 0 50 900 282 0 897 902 898 0 +-4 2.
9072 .9072 0 -.707106781186548 .707106781186548 0 -.707106781186548 -.7071067811
86548 50 901 457 0 787 898 903 0 +3.453 -4 .8075 .827926369159692 0 -.5608368098
20869 -.560836809820869 0 -.827926369159692 50 903 446 0 722 901 904 0 +-3.453 -
4 .8075 -.827926369159692 0 -.560836809820869 -.560836809820869 0 .8279263691596
92 14 722 302 0 787 895 720 4 903 +50 904 632 0 895 903 905 0 +2.856 0 0 1 0 0 0
 0 -1 14 895 606 0 722 891 906 4 904 -50 905 631 0 891 904 907 0 +0 1.9485 0 0 1
 0 0 0 1 14 891 602 0 895 695 888 4 905 -50 907 630 0 695 905 908 0 +-2.856 0 0
 -1 0 0 0 0 1 14 695 600 0 891 877 693 4 907 -50 908 629 0 877 907 878 0 +0 -1.9
485 0 0 -1 0 0 0 -1 14 877 598 0 695 875 882 4 908 -50 878 628 0 875 908 909 0 +
0 0 .65 0 0 1 1 0 0 50 909 814 0 799 878 910 0 +1.8 0 0 1 0 0 0 0 -1 14 799 740
 0 875 828 796 4 909 -50 910 812 0 828 909 911 0 +-1.8 0 0 -1 0 0 0 0 1 14 828 7
36 0 799 807 826 4 910 -50 911 810 0 807 910 912 0 +0 -1.8 0 0 -1 0 0 0 -1 14 80
7 732 0 828 856 805 4 911 -50 912 808 0 856 911 913 0 +0 1.8 0 0 1 0 0 0 1 14 85
6 728 0 807 914 854 4 912 -50 913 1031 0 914 912 915 0 +0 0 .804 0 0 -1 -1 0 0 1
4 914 952 0 856 818 916 4 913 -50 915 1033 0 818 913 917 0 +0 -2.549 .804 0 -1 0
 0 0 -1 14 818 956 0 914 813 815 4 915 -50 917 1035 0 823 915 918 0 +-.5 0 .804
 -1 0 0 0 0 1 14 823 960 0 813 871 821 4 917 -50 918 1037 0 813 917 919 0 +.5 0
 .804 1 0 0 0 0 -1 14 813 964 0 818 823 811 4 918 -50 919 1036 0 871 918 920 0 +
.5 0 .804 1 0 0 0 0 -1 14 871 962 0 823 861 869 4 919 -50 920 1034 0 861 919 921
 0 +-.5 0 .804 -1 0 0 0 0 1 14 861 958 0 871 866 858 4 920 -50 921 1032 0 866 92
0 922 0 +0 2.549 .804 0 1 0 0 0 1 14 866 954 0 861 923 865 4 921 -50 922 1030 0
 923 921 924 0 +0 0 .804 0 0 -1 -1 0 0 14 923 950 0 866 727 925 4 922 -50 924 11
71 0 727 922 926 0 +-3.178 1.625 0 0 1 0 0 0 1 14 727 1128 0 923 712 726 4 924 +
50 926 1170 0 712 924 714 0 +-3.178 -1.625 0 0 -1 0 0 0 -1 14 712 1126 0 727 710
 718 4 926 +50 714 1169 0 710 926 927 0 +-3.45 0 0 -1 0 0 0 0 1 50 927 1276 0 71
3 714 928 0 +3.178 1.625 0 0 1 0 0 0 1 14 713 1233 0 710 929 930 4 927 +50 928 1
275 0 929 927 931 0 +3.178 -1.625 0 0 -1 0 0 0 -1 14 929 1231 0 713 932 933 4 92
8 +50 931 1274 0 932 928 934 0 +3.45 0 0 1 0 0 0 0 -1 14 932 1229 0 929 935 936
 4 931 +50 934 1406 0 935 931 937 0 +-3.841 0 .85 -1 0 0 0 0 1 14 935 1360 0 932
 847 938 4 934 +50 937 1403 0 847 934 939 0 +-3.6455 0 .85 0 0 -1 -1 0 0 14 847
 1354 0 935 849 844 4 937 +50 939 1402 0 849 937 940 0 +-3.6455 1 .85 0 1 0 0 0
 1 14 849 1352 0 847 841 848 4 939 +50 940 1401 0 841 939 941 0 +-3.6455 -1 .85
 0 -1 0 0 0 -1 14 841 1350 0 849 835 840 4 940 +50 941 1400 0 835 940 942 0 +-3.
6455 0 1.3786 0 0 1 1 0 0 14 835 1348 0 841 943 832 4 941 +50 942 1541 0 943 941
 944 0 +3.841 0 .85 1 0 0 0 0 -1 14 943 1499 0 835 945 946 4 942 +50 944 1536 0
 945 942 947 0 +3.6455 1 .85 0 1 0 0 0 1 14 945 1487 0 943 948 949 4 944 +50 947
 1535 0 948 944 950 0 +3.6455 -1 .85 0 -1 0 0 0 -1 14 948 1485 0 945 951 952 4 9
47 +50 950 1534 0 951 947 953 0 +3.6455 0 .85 0 0 -1 -1 0 0 14 951 1483 0 948 79
2 954 4 950 +50 953 1533 0 792 950 955 0 +3.6455 0 1.3786 0 0 1 1 0 0 14 792 148
1 0 951 956 789 4 953 +51 955 1808 0 956 953 957 0 +-4 .195 .325 1 0 0 .195 0 0
 -1 14 956 1665 0 792 958 959 4 955 -51 957 1812 0 958 955 960 0 +-4 -.195 .325
 1 0 0 .195 0 0 -1 14 958 1673 0 956 961 962 4 957 -50 960 1816 0 963 957 964 0
 +0 0 .13 0 0 -1 -1 0 0 14 963 1681 0 961 703 965 4 960 -50 964 1820 0 961 960 9
66 0 +0 0 .52 0 0 1 1 0 0 14 961 1689 0 958 963 967 4 964 -50 966 1819 0 703 964
 968 0 +0 0 .52 0 0 1 1 0 0 14 703 1687 0 963 708 702 4 966 -50 968 1815 0 708 9
66 17 0 +0 0 .13 0 0 -1 -1 0 0 14 708 1679 0 703 11 707 4 968 -51 17 1811 0 11 9
68 8 0 +-4 -.195 .325 1 0 0 .195 0 0 -1 14 11 1671 0 708 5 698 4 17 -15 967 1690
 0 668 961 0 17 668 967 969 673 38 54 664 0 17 969 967 970 668 61 671 654 0 17 6
73 967 668 970 46 971 650 0 17 54 936 972 41 46 668 664 0 15 936 1654 0 52 932 9
73 17 972 936 52 54 43 646 644 0 17 41 936 54 52 38 653 651 0 17 52 936 41 972 3
4 45 655 0 17 653 962 974 671 34 41 651 0 15 962 1674 0 653 958 0 17 974 962 975
 653 42 663 661 0 17 671 962 653 975 38 969 654 0 17 975 962 671 974 61 637 635
 0 17 637 906 48 63 42 975 635 0 15 906 1579 0 637 895 893 17 48 906 37 637 39 5
0 657 0 17 63 906 637 37 61 970 658 0 17 37 906 63 48 35 976 648 0 17 970 967 67
3 969 35 63 658 0 17 976 959 977 971 39 37 648 0 15 959 1666 0 646 956 0 17 977
 959 646 976 43 666 647 0 17 971 959 976 646 35 673 650 0 17 646 959 971 977 46
 972 644 0 17 666 965 50 45 39 977 647 0 15 965 1682 0 45 963 0 17 50 965 663 66
6 42 48 657 0 17 45 965 666 663 43 52 655 0 17 663 965 45 50 34 974 661 0 15 973
 1230 0 569 932 0 17 569 973 575 124 115 978 567 0 17 575 973 979 569 112 117 57
3 0 17 124 973 569 979 118 980 558 0 17 978 930 564 572 118 569 567 0 15 930 123
4 0 564 713 0 17 564 930 572 978 119 981 561 0 17 572 930 978 564 115 121 570 0
 17 121 785 277 117 119 572 570 0 17 277 785 377 121 270 982 553 0 17 117 785 12
1 983 115 575 573 0 17 983 785 117 385 112 557 555 0 17 385 785 983 337 127 280
 383 0 17 557 933 126 114 127 983 555 0 15 933 1232 0 114 929 0 17 126 933 114 5
57 122 129 559 0 17 114 933 557 126 112 979 565 0 17 979 973 124 575 122 114 565
 0 17 129 728 280 980 127 126 559 0 17 980 728 129 981 122 124 558 0 17 981 728
 980 982 118 564 561 0 17 982 728 981 374 119 277 553 0 17 374 728 982 725 270 9
84 372 0 17 984 899 985 986 278 374 372 0 15 899 279 0 985 897 0 17 985 899 987
 984 289 282 378 0 17 986 899 984 770 270 377 375 0 17 770 899 986 346 301 768 7
45 0 17 377 785 769 277 301 986 375 0 17 769 785 399 377 264 303 386 0 17 399 78
5 87 769 260 269 391 0 17 87 785 988 399 85 262 396 0 17 988 785 788 87 64 632 6
30 0 17 262 789 794 791 260 87 396 0 17 791 789 262 793 85 629 627 0 17 793 789
 791 790 67 623 621 0 17 629 949 989 632 67 791 627 0 15 949 1488 0 616 945 0 17
 989 949 616 629 73 69 619 0 17 632 949 629 616 85 988 630 0 17 616 949 632 989
 64 990 614 0 17 990 954 991 66 73 616 614 0 15 954 1484 0 992 951 0 17 991 954
 992 990 76 75 612 0 17 66 954 990 992 64 788 608 0 17 992 954 66 991 79 78 633
 0 17 788 785 786 988 79 66 608 0 17 78 952 72 81 76 992 633 0 15 952 1486 0 626
 948 0 17 72 952 626 78 70 993 617 0 17 81 952 78 626 79 786 610 0 17 626 952 81
 72 82 790 624 0 17 993 946 75 623 76 72 617 0 15 946 1500 0 75 943 0 17 75 946
 69 993 73 991 612 0 17 623 946 993 69 70 793 621 0 17 69 946 623 75 67 989 619
 0 17 346 899 770 987 316 757 342 0 17 987 899 346 985 304 750 743 0 17 757 754
 755 318 304 346 342 0 17 750 994 995 306 289 987 743 0 15 994 210 0 995 996 0 1
7 995 994 309 750 292 291 358 0 17 306 994 750 309 304 755 741 0 17 309 994 306
 995 307 762 356 0 17 291 720 282 294 289 995 358 0 17 282 720 382 291 278 985 3
78 0 14 996 212 0 332 734 994 4 997 -14 332 195 0 781 996 327 4 998 -14 734 217
 0 996 783 733 4 999 -50 997 213 0 996 998 999 0 +-4 888178419700125e-30 -2 1 0
 0 0 0 -1 50 998 196 0 332 1000 997 0 +-4 -2.9072 .9072 0 .707106781186548 .7071
06781186548 0 -.707106781186548 .707106781186548 50 999 218 0 734 997 1001 0 +-4
 888178419700125e-30 -2 1 0 0 0 0 -1 50 1001 236 0 783 999 902 0 +-4 -2.19955 2.
06215 0 -.707106781186548 -.707106781186548 0 .707106781186548 -.707106781186548
 14 783 235 0 734 763 739 4 1001 -50 902 264 0 763 1001 900 0 +-4 2.19955 2.0621
5 0 .707106781186548 -.707106781186548 0 .707106781186548 .707106781186548 14 76
3 263 0 783 897 761 4 902 -50 1000 174 0 781 1002 998 0 +4 888178419700125e-30 -
2 1 0 0 0 0 -1 14 781 173 0 767 332 339 4 1000 +50 1002 169 0 767 1003 1000 0 +4
 888178419700125e-30 -2 1 0 0 0 0 -1 14 767 168 0 758 781 766 4 1002 +50 1003 14
6 0 758 1004 1002 0 +-4 3.34875 2.28005 0 -.707106781186548 -.707106781186548 0
 .707106781186548 -.707106781186548 14 758 126 0 779 767 754 4 1003 -50 1004 142
 0 779 0 1003 0 +-4 -3.34875 2.28005 0 .707106781186548 -.707106781186548 0 .707
106781186548 .707106781186548 14 779 114 0 0 758 777 4 1004 -17 337 785 385 782
 259 275 338 0 15 938 1361 0 93 935 0 17 93 938 596 100 91 842 589 0 17 596 938
 850 93 94 837 594 0 17 100 938 93 850 98 845 585 0 17 850 938 100 596 97 96 587
 0 17 837 832 834 851 91 596 594 0 15 925 951 0 169 923 0 17 169 925 166 162 163
 870 518 0 17 166 925 512 169 164 867 508 0 17 162 925 169 512 160 153 528 0 17
 512 925 162 166 151 859 491 0 15 916 953 0 176 914 0 17 176 916 172 810 173 824
 485 0 17 172 916 506 176 170 816 504 0 17 810 916 176 506 180 179 486 0 17 506
 916 810 172 174 812 488 0 17 737 777 334 778 313 312 738 0 1 0 
