105 1003 1 0                            
body $-1 $1 $-1 $-1 #
lump $-1 $-1 $2 $0 #
shell $-1 $-1 $-1 $3 $1 #
face $-1 $4 $5 $2 $-1 $6 reversed single #
face $-1 $7 $8 $2 $-1 $9 reversed single #
loop $-1 $-1 $10 $3 #
cone-surface $-1 -157.48031496063 7.67716535433071 12.7952755905512 1 0 0 0 0 -7.67716535433071 1 0 1 0 #
face $-1 $11 $12 $2 $-1 $13 reversed single #
loop $-1 $-1 $14 $4 #
cone-surface $-1 -157.48031496063 -7.67716535433071 12.7952755905512 1 0 0 0 0 -7.67716535433071 1 0 1 0 #
coedge $-1 $15 $16 $17 $18 0 $5 $-1 #
face $-1 $19 $20 $2 $-1 $21 reversed single #
loop $-1 $-1 $22 $7 #
plane-surface $-1 0 0 5.11811023622047 0 0 -1 -1 0 0 0 #
coedge $-1 $23 $24 $25 $26 0 $8 $-1 #
coedge $-1 $27 $10 $28 $29 1 $5 $-1 #
coedge $-1 $10 $27 $30 $31 1 $5 $-1 #
coedge $-1 $32 $33 $10 $18 1 $34 $-1 #
edge $-1 $35 $36 $10 $37 0 #
face $-1 $38 $39 $2 $-1 $40 reversed single #
loop $-1 $-1 $41 $11 #
plane-surface $-1 0 0 20.4724409448819 0 0 1 1 0 0 0 #
coedge $-1 $42 $28 $33 $43 0 $12 $-1 #
coedge $-1 $44 $14 $45 $46 0 $8 $-1 #
coedge $-1 $14 $44 $42 $47 1 $8 $-1 #
coedge $-1 $33 $32 $14 $26 1 $34 $-1 #
edge $-1 $48 $49 $14 $50 0 #
coedge $-1 $16 $15 $51 $52 1 $5 $-1 #
coedge $-1 $22 $53 $15 $29 0 $12 $-1 #
edge $-1 $54 $36 $15 $55 0 #
coedge $-1 $56 $41 $16 $31 0 $20 $-1 #
edge $-1 $35 $57 $16 $58 0 #
coedge $-1 $25 $17 $41 $59 1 $34 $-1 #
coedge $-1 $17 $25 $22 $43 1 $34 $-1 #
loop $-1 $60 $33 $61 #
vertex $-1 $18 $62 #
vertex $-1 $18 $63 #
ellipse-curve $-1 -135.826771653543 7.67716535433071 12.7952755905512 -1 0 0 0 7.67716535433071 4.70090798885303e-16 1 #
face $-1 $64 $65 $2 $-1 $66 reversed single #
loop $-1 $-1 $67 $19 #
plane-surface $-1 0 0 5.11811023622047 0 0 -1 -1 0 0 0 #
coedge $-1 $30 $45 $32 $59 0 $20 $-1 #
coedge $-1 $53 $22 $24 $47 0 $12 $-1 #
edge $-1 $36 $48 $22 $68 0 #
coedge $-1 $24 $23 $69 $70 1 $8 $-1 #
coedge $-1 $41 $56 $23 $46 1 $20 $-1 #
edge $-1 $49 $71 $23 $72 0 #
edge $-1 $48 $73 $24 $74 0 #
vertex $-1 $26 $75 #
vertex $-1 $26 $76 #
ellipse-curve $-1 -135.826771653543 -7.67716535433071 12.7952755905512 -1 0 0 0 -7.67716535433071 -1.41027239665591e-15 1 #
coedge $-1 $77 $78 $27 $52 0 $79 $-1 #
edge $-1 $57 $54 $27 $80 0 #
coedge $-1 $28 $42 $77 $81 1 $12 $-1 #
vertex $-1 $29 $82 #
straight-curve $-1 0 7.67716535433071 5.11811023622047 -1 0 0 #
coedge $-1 $45 $30 $78 $83 1 $20 $-1 #
vertex $-1 $52 $84 #
straight-curve $-1 0 7.67716535433071 20.4724409448819 1 0 0 #
edge $-1 $49 $35 $41 $85 0 #
loop $-1 $-1 $86 $61 #
face $-1 $87 $34 $2 $-1 $88 forward single #
point $-1 -135.826771653543 7.67716535433071 20.4724409448819 #
point $-1 -135.826771653543 7.67716535433071 5.11811023622047 #
face $-1 $89 $90 $2 $-1 $91 reversed single #
loop $-1 $-1 $92 $38 #
plane-surface $-1 0 0 20.4724409448819 0 0 1 1 0 0 0 #
coedge $-1 $93 $94 $95 $96 0 $39 $-1 #
straight-curve $-1 -135.826771653543 0 5.11811023622047 0 -1 0 #
coedge $-1 $78 $77 $44 $70 0 $79 $-1 #
edge $-1 $73 $71 $44 $97 0 #
vertex $-1 $46 $98 #
straight-curve $-1 -157.48031496063 -7.67716535433071 20.4724409448819 1 0 0 #
vertex $-1 $70 $99 #
straight-curve $-1 -157.48031496063 -7.67716535433071 5.11811023622047 1 0 0 #
point $-1 -135.826771653543 -7.67716535433071 5.11811023622047 #
point $-1 -135.826771653543 -7.67716535433071 20.4724409448819 #
coedge $-1 $69 $51 $53 $81 0 $79 $-1 #
coedge $-1 $51 $69 $56 $83 0 $79 $-1 #
loop $-1 $100 $51 $101 #
ellipse-curve $-1 -112.44094488189 7.67716535433071 12.7952755905512 -1 0 0 0 7.67716535433071 4.70090798885303e-16 1 #
edge $-1 $54 $73 $53 $102 0 #
point $-1 -112.44094488189 7.67716535433071 5.11811023622047 #
edge $-1 $71 $57 $56 $103 0 #
point $-1 -112.44094488189 7.67716535433071 20.4724409448819 #
straight-curve $-1 -135.826771653543 0 20.4724409448819 0 1 0 #
coedge $-1 $104 $105 $106 $107 0 $60 $-1 #
face $-1 $108 $109 $2 $-1 $110 forward single #
plane-surface $-1 -135.826771653543 0 0 -1 0 0 0 -0 1 0 #
face $-1 $111 $112 $2 $-1 $113 reversed single #
loop $-1 $-1 $114 $64 #
cone-surface $-1 -157.48031496063 -7.67716535433071 12.7952755905512 1 0 0 0 0 -7.67716535433071 1 0 1 0 #
coedge $-1 $115 $116 $117 $118 0 $65 $-1 #
coedge $-1 $119 $67 $120 $121 0 $39 $-1 #
coedge $-1 $67 $119 $122 $123 0 $39 $-1 #
coedge $-1 $124 $125 $67 $96 1 $126 $-1 #
edge $-1 $127 $128 $67 $129 0 #
ellipse-curve $-1 -112.44094488189 -7.67716535433071 12.7952755905512 -1 0 0 0 -7.67716535433071 -1.41027239665591e-15 1 #
point $-1 -112.44094488189 -7.67716535433071 20.4724409448819 #
point $-1 -112.44094488189 -7.67716535433071 5.11811023622047 #
loop $-1 $-1 $130 $101 #
face $-1 $131 $79 $2 $-1 $132 reversed single #
straight-curve $-1 -112.44094488189 0 5.11811023622047 0 -1 0 #
straight-curve $-1 -112.44094488189 0 20.4724409448819 0 1 0 #
coedge $-1 $133 $86 $134 $135 0 $60 $-1 #
coedge $-1 $86 $133 $136 $137 0 $60 $-1 #
coedge $-1 $138 $139 $86 $107 1 $109 $-1 #
edge $-1 $140 $141 $86 $142 0 #
face $-1 $143 $144 $2 $-1 $145 forward single #
loop $-1 $-1 $138 $87 #
plane-surface $-1 -125.11811023622 -63.9763779527559 0 0 -1 0 0 0 -1 0 #
face $-1 $146 $147 $2 $-1 $148 forward single #
loop $-1 $-1 $149 $89 #
cone-surface $-1 -157.48031496063 7.67716535433071 12.7952755905512 1 0 0 0 0 -7.67716535433071 1 0 1 0 #
coedge $-1 $122 $150 $124 $151 0 $90 $-1 #
coedge $-1 $152 $92 $150 $153 1 $65 $-1 #
coedge $-1 $92 $152 $154 $155 0 $65 $-1 #
coedge $-1 $125 $124 $92 $118 1 $126 $-1 #
edge $-1 $156 $157 $92 $158 0 #
coedge $-1 $94 $93 $159 $160 1 $39 $-1 #
coedge $-1 $149 $161 $93 $121 1 $112 $-1 #
edge $-1 $128 $162 $93 $163 0 #
coedge $-1 $164 $114 $94 $123 1 $90 $-1 #
edge $-1 $165 $127 $94 $166 0 #
coedge $-1 $117 $95 $114 $151 1 $126 $-1 #
coedge $-1 $95 $117 $149 $167 1 $126 $-1 #
loop $-1 $168 $95 $169 #
vertex $-1 $96 $170 #
vertex $-1 $96 $171 #
straight-curve $-1 135.826771653543 0 5.11811023622047 0 1 0 #
coedge $-1 $172 $173 $174 $175 1 $100 $-1 #
face $-1 $176 $177 $2 $-1 $178 reversed single #
plane-surface $-1 -112.44094488189 0 0 -1 0 0 0 -0 1 0 #
coedge $-1 $105 $104 $179 $180 1 $60 $-1 #
coedge $-1 $181 $182 $104 $135 1 $183 $-1 #
edge $-1 $141 $184 $104 $185 0 #
coedge $-1 $186 $187 $105 $137 1 $188 $-1 #
edge $-1 $189 $140 $105 $190 0 #
coedge $-1 $139 $106 $187 $191 0 $109 $-1 #
coedge $-1 $106 $138 $181 $192 0 $109 $-1 #
vertex $-1 $107 $193 #
vertex $-1 $107 $194 #
straight-curve $-1 -135.826771653543 -63.9763779527559 0 0 0 1 #
face $-1 $195 $196 $2 $-1 $197 reversed single #
loop $-1 $-1 $179 $108 #
plane-surface $-1 -125.11811023622 63.9763779527559 0 0 1 0 0 0 1 0 #
face $-1 $198 $199 $2 $-1 $200 forward single #
loop $-1 $-1 $201 $111 #
plane-surface $-1 143.523622047244 0 54.2755905511811 0 0 1 1 0 0 0 #
coedge $-1 $154 $120 $125 $167 0 $112 $-1 #
coedge $-1 $114 $164 $115 $153 0 $90 $-1 #
edge $-1 $157 $127 $114 $202 0 #
coedge $-1 $116 $115 $203 $204 1 $65 $-1 #
edge $-1 $205 $157 $115 $206 0 #
coedge $-1 $161 $149 $116 $155 1 $112 $-1 #
edge $-1 $207 $156 $116 $208 0 #
vertex $-1 $118 $209 #
vertex $-1 $118 $210 #
straight-curve $-1 135.826771653543 0 20.4724409448819 0 -1 0 #
coedge $-1 $211 $212 $119 $160 0 $213 $-1 #
edge $-1 $165 $162 $119 $214 0 #
coedge $-1 $120 $154 $211 $215 1 $112 $-1 #
vertex $-1 $121 $216 #
straight-curve $-1 0 7.67716535433071 5.11811023622047 -1 0 0 #
coedge $-1 $150 $122 $212 $217 1 $90 $-1 #
vertex $-1 $160 $218 #
straight-curve $-1 -157.48031496063 -7.67716535433071 5.11811023622047 1 0 0 #
edge $-1 $128 $156 $149 $219 0 #
loop $-1 $-1 $220 $169 #
face $-1 $221 $126 $2 $-1 $222 forward single #
point $-1 135.826771653543 -7.67716535433071 5.11811023622047 #
point $-1 135.826771653543 7.67716535433071 5.11811023622047 #
coedge $-1 $223 $130 $224 $225 1 $100 $-1 #
coedge $-1 $130 $223 $226 $227 1 $100 $-1 #
coedge $-1 $228 $229 $130 $175 0 $230 $-1 #
edge $-1 $231 $232 $174 $233 0 #
face $-1 $234 $213 $2 $-1 $235 reversed single #
loop $-1 $-1 $236 $131 #
plane-surface $-1 0 76.7125984251968 0 0 1 0 0 0 1 0 #
coedge $-1 $237 $238 $133 $180 0 $144 $-1 #
edge $-1 $189 $184 $133 $239 0 #
coedge $-1 $240 $134 $139 $192 1 $183 $-1 #
coedge $-1 $134 $241 $237 $242 1 $183 $-1 #
loop $-1 $-1 $243 $234 #
vertex $-1 $135 $244 #
straight-curve $-1 -135.826771653543 -157.48031496063 31.6169802357886 0 1 0 #
coedge $-1 $245 $136 $238 $246 1 $188 $-1 #
coedge $-1 $136 $247 $138 $191 1 $188 $-1 #
loop $-1 $-1 $245 $248 #
vertex $-1 $180 $249 #
straight-curve $-1 -135.826771653543 0 0 0 -1 0 #
edge $-1 $140 $250 $138 $251 0 #
edge $-1 $250 $141 $139 $252 0 #
point $-1 -135.826771653543 -63.9763779527559 0 #
point $-1 -135.826771653543 -63.9763779527559 31.6169802357886 #
face $-1 $253 $254 $2 $-1 $255 reversed single #
loop $-1 $-1 $256 $143 #
plane-surface $-1 0 0 31.6535433070866 0 0 -1 -1 0 0 0 #
face $-1 $257 $258 $2 $-1 $259 forward single #
loop $-1 $-1 $260 $146 #
plane-surface $-1 143.523622047244 0 33.4645669291339 0 0 -1 -1 0 0 0 #
coedge $-1 $261 $262 $263 $264 1 $147 $-1 #
ellipse-curve $-1 135.826771653543 -7.67716535433071 12.7952755905512 1 0 0 0 -7.67716535433071 1.41027239665591e-15 1 #
coedge $-1 $212 $211 $152 $204 0 $213 $-1 #
edge $-1 $207 $205 $152 $265 0 #
vertex $-1 $153 $266 #
straight-curve $-1 -157.48031496063 -7.67716535433071 20.4724409448819 1 0 0 #
vertex $-1 $204 $267 #
straight-curve $-1 0 7.67716535433071 20.4724409448819 1 0 0 #
point $-1 135.826771653543 7.67716535433071 20.4724409448819 #
point $-1 135.826771653543 -7.67716535433071 20.4724409448819 #
coedge $-1 $203 $159 $161 $215 0 $213 $-1 #
coedge $-1 $159 $203 $164 $217 0 $213 $-1 #
loop $-1 $268 $212 $176 #
straight-curve $-1 112.44094488189 0 5.11811023622047 0 1 0 #
edge $-1 $162 $207 $161 $269 0 #
point $-1 112.44094488189 7.67716535433071 5.11811023622047 #
edge $-1 $205 $165 $164 $270 0 #
point $-1 112.44094488189 -7.67716535433071 5.11811023622047 #
ellipse-curve $-1 135.826771653543 7.67716535433071 12.7952755905512 1 0 0 0 7.67716535433071 -4.70090798885303e-16 1 #
coedge $-1 $271 $272 $273 $274 0 $168 $-1 #
face $-1 $275 $276 $2 $-1 $277 forward single #
plane-surface $-1 135.826771653543 0 0 1 0 0 0 0 -1 0 #
coedge $-1 $173 $172 $236 $278 0 $100 $-1 #
coedge $-1 $279 $280 $172 $225 0 $281 $-1 #
edge $-1 $282 $231 $172 $283 0 #
coedge $-1 $284 $285 $173 $227 0 $286 $-1 #
edge $-1 $232 $287 $226 $288 0 #
coedge $-1 $289 $174 $285 $290 1 $230 $-1 #
coedge $-1 $174 $289 $279 $291 1 $230 $-1 #
loop $-1 $-1 $289 $292 #
vertex $-1 $291 $293 #
vertex $-1 $290 $294 #
straight-curve $-1 -112.44094488189 -76.7125984251968 0 0 0 1 #
face $-1 $295 $183 $2 $-1 $296 forward single #
plane-surface $-1 112.44094488189 0 0 1 0 0 0 0 -1 0 #
coedge $-1 $297 $298 $223 $278 1 $177 $-1 #
coedge $-1 $238 $179 $182 $242 0 $144 $-1 #
coedge $-1 $179 $237 $186 $246 0 $144 $-1 #
straight-curve $-1 -135.826771653543 63.9763779527559 0 0 0 1 #
coedge $-1 $299 $181 $247 $300 0 $183 $-1 #
coedge $-1 $182 $301 $245 $302 0 $183 $-1 #
edge $-1 $184 $303 $237 $304 0 #
coedge $-1 $305 $306 $307 $308 1 $183 $-1 #
point $-1 -135.826771653543 63.9763779527559 31.6169802357886 #
coedge $-1 $309 $186 $241 $302 1 $188 $-1 #
edge $-1 $303 $189 $238 $310 0 #
coedge $-1 $187 $311 $240 $300 1 $188 $-1 #
face $-1 $312 $281 $2 $-1 $313 reversed single #
point $-1 -135.826771653543 63.9763779527559 0 #
vertex $-1 $191 $314 #
straight-curve $-1 -125.11811023622 -63.9763779527559 0 1 0 0 #
straight-curve $-1 -135.944881889764 -63.9763779527559 31.7913385826772 -0.560836809820869 0 0.827926369159692 #
face $-1 $315 $316 $2 $-1 $317 reversed single #
loop $-1 $-1 $318 $195 #
plane-surface $-1 0 100.354330708661 31.6535433070866 0 1 0 0 0 1 0 #
coedge $-1 $319 $320 $321 $322 0 $196 $-1 #
face $-1 $323 $324 $2 $-1 $325 forward single #
loop $-1 $-1 $326 $198 #
plane-surface $-1 143.523622047244 -39.3700787401575 33.4645669291339 0 -1 0 0 0 -1 0 #
coedge $-1 $327 $328 $329 $330 1 $199 $-1 #
coedge $-1 $331 $201 $332 $333 1 $147 $-1 #
coedge $-1 $201 $334 $335 $336 1 $147 $-1 #
coedge $-1 $337 $338 $201 $264 0 $324 $-1 #
edge $-1 $339 $340 $201 $341 0 #
straight-curve $-1 112.44094488189 0 20.4724409448819 0 -1 0 #
point $-1 112.44094488189 -7.67716535433071 20.4724409448819 #
point $-1 112.44094488189 7.67716535433071 20.4724409448819 #
loop $-1 $-1 $342 $176 #
ellipse-curve $-1 112.44094488189 7.67716535433071 12.7952755905512 1 0 0 0 7.67716535433071 -4.70090798885303e-16 1 #
ellipse-curve $-1 112.44094488189 -7.67716535433071 12.7952755905512 1 0 0 0 -7.67716535433071 1.41027239665591e-15 1 #
coedge $-1 $343 $220 $344 $345 0 $168 $-1 #
coedge $-1 $220 $343 $346 $347 0 $168 $-1 #
coedge $-1 $348 $349 $220 $274 1 $350 $-1 #
edge $-1 $351 $352 $220 $353 0 #
face $-1 $61 $350 $2 $-1 $354 forward single #
loop $-1 $-1 $355 $221 #
plane-surface $-1 125.11811023622 -63.9763779527559 0 0 -1 0 0 0 -1 0 #
edge $-1 $282 $287 $223 $356 0 #
coedge $-1 $357 $224 $229 $291 0 $281 $-1 #
coedge $-1 $224 $357 $297 $358 0 $281 $-1 #
loop $-1 $188 $224 $248 #
vertex $-1 $225 $359 #
straight-curve $-1 -112.44094488189 0 0 0 -1 0 #
coedge $-1 $360 $226 $298 $361 0 $286 $-1 #
coedge $-1 $226 $360 $228 $290 0 $286 $-1 #
loop $-1 $-1 $285 $362 #
vertex $-1 $227 $363 #
straight-curve $-1 -112.44094488189 0 25.5905511811024 0 1 0 #
coedge $-1 $229 $228 $364 $365 1 $230 $-1 #
edge $-1 $366 $232 $285 $367 0 #
edge $-1 $231 $368 $229 $369 0 #
face $-1 $101 $230 $2 $-1 $370 reversed single #
point $-1 -112.44094488189 -76.7125984251968 0 #
point $-1 -112.44094488189 -76.7125984251968 25.5905511811024 #
face $-1 $248 $371 $2 $-1 $372 forward single #
plane-surface $-1 -135.944881889764 -157.48031496063 31.7913385826772 -0.827926369159692 0 -0.560836809820869 -0.560836809820869 0 0.827926369159692 0 #
coedge $-1 $373 $236 $280 $358 1 $177 $-1 #
coedge $-1 $236 $373 $284 $361 1 $177 $-1 #
coedge $-1 $374 $240 $375 $376 0 $183 $-1 #
edge $-1 $250 $377 $240 $378 0 #
coedge $-1 $241 $379 $380 $381 0 $183 $-1 #
edge $-1 $382 $303 $241 $383 0 #
vertex $-1 $242 $384 #
straight-curve $-1 -135.944881889764 63.9763779527559 31.7913385826772 0.560836809820869 0 -0.827926369159692 #
coedge $-1 $385 $243 $386 $387 1 $183 $-1 #
coedge $-1 $243 $388 $389 $390 0 $183 $-1 #
coedge $-1 $391 $392 $243 $308 0 $393 $-1 #
edge $-1 $394 $395 $307 $396 0 #
coedge $-1 $397 $245 $398 $399 0 $188 $-1 #
straight-curve $-1 -125.11811023622 63.9763779527559 0 -1 0 0 #
coedge $-1 $247 $400 $401 $402 1 $188 $-1 #
face $-1 $403 $404 $2 $-1 $405 reversed single #
plane-surface $-1 -157.48031496063 0 0 0 0 1 1 0 0 0 #
point $-1 -114.409448818898 -63.9763779527559 0 #
face $-1 $406 $407 $2 $-1 $408 reversed single #
loop $-1 $-1 $409 $253 #
plane-surface $-1 -19.6850393700787 0 31.6535433070866 -1 0 0 0 -0 1 0 #
coedge $-1 $410 $411 $412 $413 1 $254 $-1 #
coedge $-1 $414 $256 $410 $415 0 $196 $-1 #
coedge $-1 $256 $414 $416 $417 1 $196 $-1 #
coedge $-1 $418 $419 $256 $322 1 $407 $-1 #
edge $-1 $420 $421 $256 $422 0 #
face $-1 $423 $424 $2 $-1 $425 forward single #
loop $-1 $-1 $426 $257 #
plane-surface $-1 143.523622047244 39.3700787401575 33.4645669291339 0 1 0 0 0 1 0 #
coedge $-1 $427 $428 $334 $429 0 $258 $-1 #
coedge $-1 $430 $260 $431 $432 0 $199 $-1 #
coedge $-1 $260 $430 $433 $434 1 $199 $-1 #
coedge $-1 $428 $427 $260 $330 0 $258 $-1 #
edge $-1 $435 $436 $260 $437 0 #
coedge $-1 $438 $261 $439 $440 1 $147 $-1 #
coedge $-1 $441 $442 $261 $333 0 $371 $-1 #
edge $-1 $443 $339 $261 $444 0 #
coedge $-1 $262 $445 $326 $429 1 $147 $-1 #
coedge $-1 $446 $447 $262 $336 0 $424 $-1 #
edge $-1 $340 $448 $262 $449 0 #
coedge $-1 $426 $263 $447 $450 1 $324 $-1 #
coedge $-1 $263 $426 $441 $451 0 $324 $-1 #
vertex $-1 $264 $452 #
vertex $-1 $264 $453 #
straight-curve $-1 143.523622047244 39.3700787401575 54.2755905511811 1 0 0 #
coedge $-1 $364 $454 $357 $455 1 $268 $-1 #
coedge $-1 $272 $271 $355 $456 1 $168 $-1 #
coedge $-1 $457 $458 $271 $345 1 $371 $-1 #
edge $-1 $352 $459 $271 $460 0 #
coedge $-1 $461 $462 $272 $347 1 $188 $-1 #
edge $-1 $463 $351 $272 $464 0 #
coedge $-1 $349 $273 $462 $465 0 $350 $-1 #
coedge $-1 $273 $348 $457 $466 0 $350 $-1 #
loop $-1 $-1 $348 $275 #
vertex $-1 $274 $467 #
vertex $-1 $274 $468 #
straight-curve $-1 135.826771653543 63.9763779527559 0 0 0 1 #
plane-surface $-1 125.11811023622 63.9763779527559 0 0 1 0 0 0 1 0 #
coedge $-1 $469 $470 $343 $456 0 $276 $-1 #
straight-curve $-1 -112.44094488189 76.7125984251968 0 0 0 1 #
coedge $-1 $280 $279 $342 $455 0 $281 $-1 #
edge $-1 $471 $282 $297 $472 0 #
point $-1 -112.44094488189 76.7125984251968 0 #
coedge $-1 $285 $284 $473 $474 0 $286 $-1 #
edge $-1 $287 $475 $284 $476 0 #
face $-1 $292 $477 $2 $-1 $478 reversed single #
point $-1 -112.44094488189 76.7125984251968 25.5905511811024 #
coedge $-1 $473 $342 $289 $365 0 $268 $-1 #
edge $-1 $368 $366 $289 $479 0 #
vertex $-1 $290 $480 #
straight-curve $-1 0 -76.7125984251968 25.5905511811024 -1 0 0 #
vertex $-1 $365 $481 #
straight-curve $-1 0 -76.7125984251968 0 1 0 0 #
plane-surface $-1 0 -76.7125984251968 0 0 -1 0 0 0 -1 0 #
loop $-1 $-1 $482 $295 #
plane-surface $-1 135.944881889764 -157.48031496063 31.7913385826772 0.827926369159692 0 -0.560836809820869 -0.560836809820869 0 -0.827926369159692 0 #
coedge $-1 $298 $297 $454 $483 0 $177 $-1 #
coedge $-1 $388 $299 $484 $485 0 $183 $-1 #
coedge $-1 $401 $486 $299 $376 1 $487 $-1 #
edge $-1 $377 $488 $299 $489 0 #
vertex $-1 $300 $490 #
straight-curve $-1 -114.409448818898 0 0 0 -1 0 #
coedge $-1 $301 $491 $492 $493 0 $183 $-1 #
coedge $-1 $494 $398 $301 $381 1 $404 $-1 #
edge $-1 $495 $382 $301 $496 0 #
vertex $-1 $381 $497 #
straight-curve $-1 -114.409448818898 0 0 0 -1 0 #
point $-1 -114.409448818898 63.9763779527559 0 #
coedge $-1 $498 $305 $499 $500 1 $183 $-1 #
coedge $-1 $501 $502 $305 $387 0 $503 $-1 #
edge $-1 $504 $394 $386 $505 0 #
coedge $-1 $306 $374 $506 $507 0 $183 $-1 #
coedge $-1 $508 $509 $306 $390 1 $510 $-1 #
edge $-1 $511 $395 $389 $512 0 #
coedge $-1 $513 $307 $509 $514 0 $393 $-1 #
coedge $-1 $307 $513 $501 $515 0 $393 $-1 #
loop $-1 $-1 $392 $516 #
vertex $-1 $515 $517 #
vertex $-1 $514 $518 #
straight-curve $-1 -135.944881889764 -39.3700787401575 31.7913385826772 -0.560836809820869 0 0.827926369159692 #
coedge $-1 $462 $309 $519 $520 1 $188 $-1 #
coedge $-1 $380 $521 $309 $399 1 $404 $-1 #
edge $-1 $382 $522 $309 $523 0 #
coedge $-1 $311 $461 $524 $525 1 $188 $-1 #
coedge $-1 $526 $375 $311 $402 0 $487 $-1 #
edge $-1 $377 $527 $311 $528 0 #
face $-1 $529 $530 $2 $-1 $531 reversed single #
loop $-1 $-1 $380 $312 #
plane-surface $-1 -157.48031496063 114.456692913386 35.7165354330709 0 -0.707106781186548 0.707106781186548 1 0 -0 0 #
face $-1 $532 $533 $2 $-1 $534 reversed single #
loop $-1 $-1 $535 $315 #
plane-surface $-1 19.6850393700787 0 31.6535433070866 1 0 0 0 0 -1 0 #
coedge $-1 $412 $536 $414 $537 1 $316 $-1 #
coedge $-1 $538 $318 $319 $415 1 $254 $-1 #
coedge $-1 $318 $538 $539 $540 1 $254 $-1 #
coedge $-1 $541 $409 $318 $413 0 $316 $-1 #
edge $-1 $542 $543 $318 $544 0 #
coedge $-1 $320 $319 $409 $537 0 $196 $-1 #
edge $-1 $421 $542 $319 $545 0 #
coedge $-1 $546 $547 $320 $417 0 $548 $-1 #
edge $-1 $420 $549 $320 $550 0 #
coedge $-1 $535 $321 $547 $551 1 $407 $-1 #
coedge $-1 $321 $535 $538 $552 1 $407 $-1 #
vertex $-1 $322 $553 #
vertex $-1 $322 $554 #
straight-curve $-1 19.6850393700787 0 31.6535433070866 0 1 0 #
face $-1 $516 $510 $2 $-1 $555 forward single #
loop $-1 $-1 $433 $323 #
plane-surface $-1 151.220472440945 0 33.4645669291339 1 0 0 0 0 -1 0 #
coedge $-1 $338 $337 $430 $556 0 $324 $-1 #
coedge $-1 $329 $326 $482 $557 0 $258 $-1 #
coedge $-1 $326 $329 $446 $558 0 $258 $-1 #
edge $-1 $448 $559 $334 $560 0 #
coedge $-1 $328 $327 $426 $556 1 $199 $-1 #
coedge $-1 $482 $441 $327 $432 1 $371 $-1 #
edge $-1 $435 $561 $327 $562 0 #
coedge $-1 $447 $446 $328 $434 0 $424 $-1 #
edge $-1 $436 $563 $328 $564 0 #
vertex $-1 $330 $565 #
vertex $-1 $330 $566 #
straight-curve $-1 143.523622047244 -39.3700787401575 33.4645669291339 1 0 0 #
coedge $-1 $567 $331 $568 $569 0 $147 $-1 #
coedge $-1 $570 $571 $331 $440 0 $530 $-1 #
edge $-1 $572 $443 $331 $573 0 #
coedge $-1 $431 $332 $338 $451 1 $371 $-1 #
coedge $-1 $332 $574 $570 $575 0 $371 $-1 #
vertex $-1 $333 $576 #
straight-curve $-1 151.175700251091 0 54.2755905511811 0 -1 0 #
coedge $-1 $334 $567 $577 $578 1 $147 $-1 #
coedge $-1 $433 $335 $428 $558 1 $424 $-1 #
coedge $-1 $335 $433 $337 $450 0 $424 $-1 #
vertex $-1 $429 $579 #
straight-curve $-1 151.220472440945 0 54.2755905511811 0 -1 0 #
edge $-1 $563 $340 $337 $580 0 #
edge $-1 $561 $339 $338 $581 0 #
point $-1 151.175700251091 39.3700787401575 54.2755905511811 #
point $-1 151.220472440945 39.3700787401575 54.2755905511811 #
coedge $-1 $342 $473 $373 $483 1 $268 $-1 #
edge $-1 $368 $471 $342 $582 0 #
edge $-1 $463 $459 $343 $583 0 #
coedge $-1 $519 $344 $349 $466 1 $371 $-1 #
coedge $-1 $344 $524 $469 $584 1 $371 $-1 #
vertex $-1 $345 $585 #
straight-curve $-1 135.826771653543 -157.48031496063 31.6169802357886 0 -1 0 #
coedge $-1 $400 $346 $470 $586 1 $188 $-1 #
coedge $-1 $346 $397 $348 $465 1 $188 $-1 #
vertex $-1 $456 $587 #
straight-curve $-1 135.826771653543 0 0 0 1 0 #
edge $-1 $351 $588 $348 $589 0 #
edge $-1 $588 $352 $349 $590 0 #
point $-1 135.826771653543 63.9763779527559 0 #
point $-1 135.826771653543 63.9763779527559 31.6169802357886 #
coedge $-1 $470 $355 $458 $584 0 $276 $-1 #
coedge $-1 $355 $469 $461 $586 0 $276 $-1 #
vertex $-1 $358 $591 #
straight-curve $-1 -157.48031496063 76.7125984251968 0 -1 0 0 #
coedge $-1 $454 $364 $360 $474 1 $268 $-1 #
edge $-1 $475 $366 $360 $592 0 #
vertex $-1 $361 $593 #
straight-curve $-1 0 76.7125984251968 25.5905511811024 1 0 0 #
loop $-1 $286 $594 $362 #
plane-surface $-1 0 0 25.5905511811024 0 0 1 1 0 0 0 #
straight-curve $-1 112.44094488189 -76.7125984251968 0 0 0 1 #
point $-1 112.44094488189 -76.7125984251968 25.5905511811024 #
point $-1 112.44094488189 -76.7125984251968 0 #
coedge $-1 $577 $431 $427 $557 1 $371 $-1 #
edge $-1 $471 $475 $373 $595 0 #
coedge $-1 $596 $597 $374 $485 1 $598 $-1 #
edge $-1 $488 $599 $374 $600 0 #
coedge $-1 $375 $601 $596 $602 1 $487 $-1 #
loop $-1 $-1 $375 $603 #
vertex $-1 $376 $604 #
straight-curve $-1 -142.126507918806 -119.657022604951 40.916865124636 -0.431993306944262 -0.637723209063055 0.637723209063055 #
point $-1 -114.409448818898 -78.740157480315 0 #
coedge $-1 $379 $498 $605 $606 0 $183 $-1 #
coedge $-1 $607 $608 $379 $493 1 $609 $-1 #
edge $-1 $610 $495 $379 $611 0 #
coedge $-1 $612 $380 $608 $613 1 $404 $-1 #
vertex $-1 $493 $614 #
straight-curve $-1 -142.126507918806 119.657022604951 40.916865124636 0.431993306944262 -0.637723209063055 -0.637723209063055 #
point $-1 -114.409448818898 78.740157480315 3.05966975290398e-14 #
coedge $-1 $491 $385 $615 $616 0 $183 $-1 #
coedge $-1 $617 $618 $385 $500 0 $619 $-1 #
edge $-1 $620 $504 $499 $621 0 #
coedge $-1 $622 $386 $392 $515 1 $503 $-1 #
coedge $-1 $386 $622 $617 $623 1 $503 $-1 #
loop $-1 $-1 $502 $624 #
vertex $-1 $500 $625 #
straight-curve $-1 -137.078325735599 -157.48031496063 33.4645669291339 0 -1 0 #
coedge $-1 $626 $627 $388 $507 1 $628 $-1 #
edge $-1 $599 $511 $388 $629 0 #
coedge $-1 $630 $389 $627 $631 0 $510 $-1 #
coedge $-1 $389 $632 $391 $514 1 $510 $-1 #
loop $-1 $-1 $509 $423 #
vertex $-1 $390 $633 #
straight-curve $-1 -151.175700251091 0 54.2755905511811 0 1 0 #
coedge $-1 $392 $391 $634 $635 1 $393 $-1 #
edge $-1 $395 $636 $509 $637 0 #
edge $-1 $638 $394 $392 $639 0 #
face $-1 $640 $393 $2 $-1 $641 forward single #
point $-1 -137.078325735599 -39.3700787401575 33.4645669291339 #
point $-1 -151.175700251091 -39.3700787401575 54.2755905511811 #
coedge $-1 $642 $457 $397 $520 0 $371 $-1 #
edge $-1 $588 $522 $519 $643 0 #
coedge $-1 $398 $644 $642 $645 1 $404 $-1 #
vertex $-1 $520 $646 #
straight-curve $-1 -157.48031496063 78.740157480315 0 1 0 0 #
coedge $-1 $458 $647 $400 $525 0 $371 $-1 #
edge $-1 $527 $648 $524 $649 0 #
coedge $-1 $650 $401 $647 $651 1 $487 $-1 #
vertex $-1 $651 $652 #
straight-curve $-1 -157.48031496063 -78.740157480315 0 1 0 0 #
face $-1 $653 $628 $2 $-1 $654 reversed single #
loop $-1 $-1 $655 $403 #
plane-surface $-1 -157.48031496063 86.5964566929134 81.1870078740157 0 0.707106781186548 -0.707106781186548 -1 0 0 0 #
face $-1 $656 $657 $2 $-1 $658 reversed single #
loop $-1 $-1 $659 $406 #
plane-surface $-1 -19.6850393700787 0 31.6535433070866 -1 0 0 0 -0 1 0 #
coedge $-1 $419 $418 $660 $661 1 $407 $-1 #
coedge $-1 $409 $541 $546 $662 1 $316 $-1 #
edge $-1 $542 $549 $414 $663 0 #
coedge $-1 $411 $410 $419 $552 0 $254 $-1 #
coedge $-1 $660 $664 $411 $540 0 $530 $-1 #
edge $-1 $543 $665 $411 $666 0 #
coedge $-1 $536 $412 $664 $667 1 $316 $-1 #
vertex $-1 $415 $668 #
vertex $-1 $413 $669 #
straight-curve $-1 -19.6850393700787 100.354330708661 31.6535433070866 0 0 1 #
straight-curve $-1 0 100.354330708661 31.6535433070866 -1 0 0 #
coedge $-1 $670 $416 $536 $662 0 $548 $-1 #
coedge $-1 $416 $671 $418 $551 0 $548 $-1 #
loop $-1 $-1 $416 $672 #
vertex $-1 $537 $673 #
straight-curve $-1 0 70.8661417322835 31.6535433070866 -1 0 0 #
edge $-1 $674 $420 $418 $675 0 #
edge $-1 $421 $665 $538 $676 0 #
point $-1 19.6850393700787 70.8661417322835 31.6535433070866 #
point $-1 19.6850393700787 100.354330708661 31.6535433070866 #
plane-surface $-1 -143.523622047244 0 54.2755905511811 0 0 1 1 0 0 0 #
edge $-1 $563 $561 $430 $677 0 #
edge $-1 $559 $435 $427 $678 0 #
edge $-1 $436 $448 $428 $679 0 #
vertex $-1 $578 $680 #
straight-curve $-1 143.523622047244 -39.3700787401575 54.2755905511811 -1 0 0 #
vertex $-1 $432 $681 #
straight-curve $-1 137.078325735599 -157.48031496063 33.4645669291339 0 1 0 #
vertex $-1 $556 $682 #
straight-curve $-1 151.220472440945 0 33.4645669291339 0 1 0 #
point $-1 137.078325735599 -39.3700787401575 33.4645669291339 #
point $-1 151.220472440945 -39.3700787401575 33.4645669291339 #
coedge $-1 $445 $438 $683 $684 0 $147 $-1 #
coedge $-1 $685 $686 $438 $569 1 $687 $-1 #
edge $-1 $572 $688 $438 $689 0 #
coedge $-1 $690 $439 $442 $575 1 $530 $-1 #
coedge $-1 $439 $691 $685 $692 0 $530 $-1 #
vertex $-1 $440 $693 #
straight-curve $-1 -157.48031496063 59.6850393700787 54.2755905511811 1 0 0 #
coedge $-1 $442 $642 $694 $695 1 $371 $-1 #
edge $-1 $696 $443 $442 $697 0 #
point $-1 151.175700251091 59.6850393700787 54.2755905511811 #
coedge $-1 $698 $482 $445 $578 0 $371 $-1 #
edge $-1 $559 $699 $445 $700 0 #
point $-1 151.220472440945 -39.3700787401575 54.2755905511811 #
straight-curve $-1 151.220472440945 39.3700787401575 33.4645669291339 0 0 1 #
straight-curve $-1 135.944881889764 39.3700787401575 31.7913385826772 0.560836809820869 0 0.827926369159692 #
straight-curve $-1 112.44094488189 0 0 0 1 0 #
straight-curve $-1 135.826771653543 -63.9763779527559 0 0 0 1 #
edge $-1 $459 $648 $469 $701 0 #
point $-1 135.826771653543 -63.9763779527559 31.6169802357886 #
edge $-1 $648 $463 $470 $702 0 #
point $-1 135.826771653543 -63.9763779527559 0 #
vertex $-1 $465 $703 #
straight-curve $-1 125.11811023622 63.9763779527559 0 -1 0 0 #
straight-curve $-1 135.944881889764 63.9763779527559 31.7913385826772 0.560836809820869 0 0.827926369159692 #
point $-1 112.44094488189 76.7125984251968 0 #
straight-curve $-1 112.44094488189 0 25.5905511811024 0 -1 0 #
point $-1 112.44094488189 76.7125984251968 25.5905511811024 #
coedge $-1 $704 $705 $706 $707 0 $477 $-1 #
straight-curve $-1 112.44094488189 76.7125984251968 0 0 0 1 #
coedge $-1 $708 $484 $486 $602 0 $598 $-1 #
coedge $-1 $484 $708 $626 $709 0 $598 $-1 #
loop $-1 $-1 $484 $653 #
vertex $-1 $485 $710 #
straight-curve $-1 -157.48031496063 -157.48031496063 63.5826771653543 0 1 0 #
coedge $-1 $486 $650 $711 $712 1 $487 $-1 #
edge $-1 $488 $713 $596 $714 0 #
face $-1 $715 $487 $2 $-1 $716 reversed single #
point $-1 -157.48031496063 -142.322834645669 63.5826771653543 #
coedge $-1 $717 $718 $491 $606 1 $530 $-1 #
edge $-1 $719 $610 $491 $720 0 #
coedge $-1 $721 $492 $718 $722 0 $609 $-1 #
coedge $-1 $492 $721 $494 $613 0 $609 $-1 #
loop $-1 $-1 $492 $723 #
vertex $-1 $606 $724 #
straight-curve $-1 -157.48031496063 3.49676543189026e-14 63.5826771653543 0 1 0 #
coedge $-1 $644 $494 $725 $726 0 $404 $-1 #
edge $-1 $727 $495 $494 $728 0 #
point $-1 -157.48031496063 142.322834645669 63.5826771653543 #
coedge $-1 $729 $730 $498 $616 1 $510 $-1 #
edge $-1 $620 $719 $615 $731 0 #
coedge $-1 $732 $499 $502 $623 0 $619 $-1 #
coedge $-1 $499 $732 $729 $733 0 $619 $-1 #
loop $-1 $-1 $618 $640 #
vertex $-1 $616 $734 #
straight-curve $-1 -135.944881889764 39.3700787401575 31.7913385826772 0.560836809820869 0 -0.827926369159692 #
coedge $-1 $502 $501 $735 $736 1 $503 $-1 #
edge $-1 $504 $737 $617 $738 0 #
face $-1 $739 $503 $2 $-1 $740 forward single #
point $-1 -137.078325735599 39.3700787401575 33.4645669291339 #
coedge $-1 $741 $506 $597 $709 1 $628 $-1 #
coedge $-1 $506 $742 $508 $631 1 $628 $-1 #
loop $-1 $-1 $743 $529 #
straight-curve $-1 -167.180025074718 -83.311167880278 77.9017190613803 0.431993306944261 0.637723209063055 -0.637723209063055 #
coedge $-1 $730 $508 $744 $745 0 $510 $-1 #
edge $-1 $511 $746 $508 $747 0 #
coedge $-1 $509 $729 $748 $749 1 $510 $-1 #
point $-1 -151.175700251091 -59.6850393700787 54.2755905511811 #
coedge $-1 $748 $735 $513 $635 0 $750 $-1 #
edge $-1 $638 $636 $513 $751 0 #
vertex $-1 $514 $752 #
straight-curve $-1 -143.523622047244 -39.3700787401575 54.2755905511811 -1 0 0 #
vertex $-1 $515 $753 #
straight-curve $-1 -143.523622047244 -39.3700787401575 33.4645669291339 1 0 0 #
face $-1 $624 $619 $2 $-1 $754 forward single #
plane-surface $-1 -143.523622047244 -39.3700787401575 33.4645669291339 0 -1 0 0 0 -1 0 #
coedge $-1 $574 $519 $521 $645 0 $371 $-1 #
straight-curve $-1 114.409448818898 -157.48031496063 0 0 1 0 #
coedge $-1 $521 $612 $755 $756 0 $404 $-1 #
edge $-1 $522 $757 $642 $758 0 #
point $-1 114.409448818898 78.740157480315 0 #
coedge $-1 $524 $759 $526 $651 0 $371 $-1 #
vertex $-1 $584 $760 #
straight-curve $-1 114.409448818898 -157.48031496063 0 0 1 0 #
coedge $-1 $601 $526 $761 $762 0 $487 $-1 #
edge $-1 $763 $527 $647 $764 0 #
point $-1 114.409448818898 -78.740157480315 -4.37095678986282e-15 #
face $-1 $723 $598 $2 $-1 $765 reversed single #
plane-surface $-1 -157.48031496063 -86.5964566929134 81.1870078740157 0 -0.707106781186548 -0.707106781186548 -1 0 -0 0 #
coedge $-1 $664 $766 $670 $767 0 $530 $-1 #
face $-1 $768 $769 $2 $-1 $770 reversed single #
loop $-1 $-1 $771 $532 #
plane-surface $-1 19.6850393700787 0 31.6535433070866 1 0 0 0 0 -1 0 #
coedge $-1 $772 $773 $774 $775 1 $533 $-1 #
coedge $-1 $691 $539 $535 $661 0 $530 $-1 #
edge $-1 $665 $674 $535 $776 0 #
edge $-1 $549 $777 $536 $778 0 #
straight-curve $-1 -19.6850393700787 0 31.6535433070866 0 -1 0 #
coedge $-1 $539 $655 $541 $667 0 $530 $-1 #
vertex $-1 $552 $779 #
straight-curve $-1 -157.48031496063 100.354330708661 94.9448818897638 1 0 0 #
edge $-1 $777 $543 $541 $780 0 #
point $-1 -19.6850393700787 100.354330708661 31.6535433070866 #
point $-1 -19.6850393700787 100.354330708661 94.9448818897638 #
coedge $-1 $781 $546 $655 $767 1 $548 $-1 #
coedge $-1 $547 $782 $691 $783 1 $548 $-1 #
face $-1 $784 $548 $2 $-1 $785 reversed single #
point $-1 -19.6850393700787 70.8661417322835 31.6535433070866 #
vertex $-1 $661 $786 #
straight-curve $-1 19.6850393700787 70.8661417322835 0 0 0 -1 #
straight-curve $-1 19.6850393700787 100.354330708661 31.6535433070866 0 0 1 #
straight-curve $-1 143.523622047244 39.3700787401575 33.4645669291339 -1 0 0 #
straight-curve $-1 135.944881889764 -39.3700787401575 31.7913385826772 -0.560836809820869 0 -0.827926369159692 #
straight-curve $-1 151.220472440945 -39.3700787401575 33.4645669291339 0 0 1 #
point $-1 151.175700251091 -39.3700787401575 54.2755905511811 #
point $-1 137.078325735599 39.3700787401575 33.4645669291339 #
point $-1 151.220472440945 39.3700787401575 33.4645669291339 #
coedge $-1 $787 $788 $567 $684 1 $628 $-1 #
edge $-1 $688 $699 $567 $789 0 #
coedge $-1 $790 $568 $571 $692 1 $687 $-1 #
coedge $-1 $568 $791 $787 $792 1 $687 $-1 #
loop $-1 $-1 $791 $793 #
vertex $-1 $569 $794 #
straight-curve $-1 70.8661417322835 0 54.2755905511811 0 -1 0 #
coedge $-1 $795 $570 $796 $797 0 $530 $-1 #
coedge $-1 $571 $660 $671 $783 0 $530 $-1 #
edge $-1 $798 $572 $685 $799 0 #
point $-1 70.8661417322835 59.6850393700787 54.2755905511811 #
coedge $-1 $755 $796 $574 $695 0 $800 $-1 #
edge $-1 $696 $757 $574 $801 0 #
vertex $-1 $695 $802 #
straight-curve $-1 108.402633816564 -3.45801574121984 -8.86746456011746 -0.431993306944261 -0.637723209063055 -0.637723209063055 #
coedge $-1 $759 $577 $788 $803 0 $371 $-1 #
vertex $-1 $684 $804 #
straight-curve $-1 151.175700251091 0 54.2755905511811 0 -1 0 #
straight-curve $-1 135.944881889764 -63.9763779527559 31.7913385826772 -0.560836809820869 0 -0.827926369159692 #
straight-curve $-1 125.11811023622 -63.9763779527559 0 1 0 0 #
point $-1 114.409448818898 63.9763779527559 0 #
coedge $-1 $805 $594 $806 $807 0 $477 $-1 #
coedge $-1 $594 $805 $808 $809 0 $477 $-1 #
coedge $-1 $810 $811 $594 $707 1 $812 $-1 #
edge $-1 $813 $814 $706 $815 0 #
coedge $-1 $597 $596 $816 $817 0 $598 $-1 #
edge $-1 $818 $599 $626 $819 0 #
point $-1 -157.48031496063 -68.992125984252 63.5826771653543 #
coedge $-1 $820 $816 $601 $712 0 $821 $-1 #
edge $-1 $713 $822 $601 $823 0 #
vertex $-1 $602 $824 #
straight-curve $-1 -157.48031496063 -78.740157480315 0 0 -0.707106781186548 0.707106781186548 #
face $-1 $825 $826 $2 $-1 $827 forward single #
plane-surface $-1 -157.48031496063 -114.456692913386 35.7165354330709 0 0.707106781186548 0.707106781186548 1 0 0 0 #
coedge $-1 $766 $605 $730 $828 0 $530 $-1 #
coedge $-1 $605 $795 $607 $722 1 $530 $-1 #
vertex $-1 $828 $829 #
straight-curve $-1 -167.180025074718 83.311167880278 77.9017190613803 -0.431993306944261 0.637723209063055 0.637723209063055 #
coedge $-1 $608 $607 $830 $831 0 $609 $-1 #
edge $-1 $610 $832 $718 $833 0 #
face $-1 $603 $609 $2 $-1 $834 reversed single #
point $-1 -157.48031496063 68.992125984252 63.5826771653543 #
coedge $-1 $830 $835 $612 $726 1 $836 $-1 #
edge $-1 $727 $837 $612 $838 0 #
vertex $-1 $613 $839 #
straight-curve $-1 -157.48031496063 150.173228346457 71.4330708661417 0 -0.707106781186548 -0.707106781186548 #
coedge $-1 $632 $615 $618 $733 1 $510 $-1 #
coedge $-1 $615 $630 $717 $828 1 $510 $-1 #
straight-curve $-1 -151.175700251091 0 54.2755905511811 0 1 0 #
coedge $-1 $618 $617 $840 $841 0 $619 $-1 #
edge $-1 $842 $620 $729 $843 0 #
point $-1 -151.175700251091 39.3700787401575 54.2755905511811 #
coedge $-1 $634 $840 $622 $736 0 $750 $-1 #
edge $-1 $737 $638 $622 $844 0 #
vertex $-1 $623 $845 #
straight-curve $-1 -143.523622047244 39.3700787401575 33.4645669291339 -1 0 0 #
face $-1 $169 $750 $2 $-1 $846 forward single #
plane-surface $-1 -143.523622047244 0 33.4645669291339 0 0 -1 -1 0 0 0 #
coedge $-1 $847 $626 $848 $849 0 $628 $-1 #
coedge $-1 $627 $850 $851 $852 0 $628 $-1 #
coedge $-1 $774 $853 $854 $855 0 $628 $-1 #
coedge $-1 $851 $856 $630 $745 1 $812 $-1 #
edge $-1 $746 $857 $630 $858 0 #
vertex $-1 $631 $859 #
straight-curve $-1 -157.48031496063 -59.6850393700787 54.2755905511811 1 0 0 #
coedge $-1 $840 $634 $632 $749 0 $750 $-1 #
edge $-1 $636 $842 $632 $860 0 #
loop $-1 $-1 $634 $739 #
straight-curve $-1 -151.220472440945 -39.3700787401575 33.4645669291339 0 0 1 #
point $-1 -151.220472440945 -39.3700787401575 54.2755905511811 #
point $-1 -151.220472440945 -39.3700787401575 33.4645669291339 #
plane-surface $-1 -143.523622047244 39.3700787401575 33.4645669291339 0 1 0 0 0 1 0 #
coedge $-1 $861 $694 $644 $756 1 $800 $-1 #
edge $-1 $837 $757 $644 $862 0 #
vertex $-1 $645 $863 #
straight-curve $-1 83.349116660652 32.8878389834532 -45.8523184968618 0.431993306944262 0.637723209063055 0.637723209063055 #
coedge $-1 $647 $698 $864 $865 1 $371 $-1 #
point $-1 114.409448818898 -63.9763779527559 0 #
coedge $-1 $864 $866 $650 $762 1 $826 $-1 #
edge $-1 $763 $822 $650 $867 0 #
vertex $-1 $865 $868 #
straight-curve $-1 83.349116660652 -32.8878389834532 -45.8523184968618 -0.431993306944262 0.637723209063055 -0.637723209063055 #
plane-surface $-1 -157.48031496063 3.49676543189026e-14 -78.740157480315 1 0 0 0 0 -1 0 #
coedge $-1 $655 $717 $856 $869 0 $530 $-1 #
edge $-1 $870 $777 $670 $871 0 #
face $-1 $672 $872 $2 $-1 $873 reversed single #
loop $-1 $-1 $874 $656 #
plane-surface $-1 0 -100.354330708661 31.6535433070866 0 -1 0 0 0 -1 0 #
coedge $-1 $875 $876 $877 $878 1 $657 $-1 #
coedge $-1 $879 $659 $880 $881 1 $533 $-1 #
coedge $-1 $659 $879 $882 $883 1 $533 $-1 #
coedge $-1 $850 $743 $659 $775 0 $628 $-1 #
edge $-1 $884 $885 $659 $886 0 #
straight-curve $-1 19.6850393700787 86.5964566929134 81.1870078740157 0 -0.707106781186548 -0.707106781186548 #
vertex $-1 $667 $887 #
straight-curve $-1 -19.6850393700787 70.8661417322835 0 0 0 1 #
point $-1 19.6850393700787 100.354330708661 94.9448818897638 #
straight-curve $-1 -19.6850393700787 86.5964566929134 81.1870078740157 0 0.707106781186548 0.707106781186548 #
coedge $-1 $808 $670 $810 $888 1 $548 $-1 #
coedge $-1 $671 $808 $790 $889 0 $548 $-1 #
edge $-1 $674 $798 $671 $890 0 #
face $-1 $891 $892 $2 $-1 $893 reversed single #
plane-surface $-1 0 70.8661417322835 0 0 1 0 0 0 1 0 #
point $-1 19.6850393700787 70.8661417322835 65.4566929133858 #
coedge $-1 $894 $683 $686 $792 0 $628 $-1 #
coedge $-1 $683 $847 $698 $803 1 $628 $-1 #
straight-curve $-1 -157.48031496063 -59.6850393700787 54.2755905511811 1 0 0 #
coedge $-1 $895 $685 $782 $889 1 $687 $-1 #
coedge $-1 $686 $895 $896 $897 0 $687 $-1 #
edge $-1 $688 $898 $686 $899 0 #
face $-1 $362 $687 $2 $-1 $900 reversed single #
point $-1 70.8661417322835 -59.6850393700787 54.2755905511811 #
coedge $-1 $718 $690 $901 $902 1 $530 $-1 #
coedge $-1 $694 $861 $690 $797 1 $800 $-1 #
edge $-1 $696 $903 $690 $904 0 #
vertex $-1 $889 $905 #
straight-curve $-1 70.8661417322835 86.5964566929134 81.1870078740157 0 -0.707106781186548 -0.707106781186548 #
loop $-1 $-1 $796 $825 #
straight-curve $-1 157.48031496063 -157.48031496063 63.5826771653543 0 1 0 #
point $-1 157.48031496063 68.992125984252 63.5826771653543 #
edge $-1 $699 $906 $698 $907 0 #
point $-1 151.175700251091 -59.6850393700787 54.2755905511811 #
coedge $-1 $705 $704 $895 $908 0 $477 $-1 #
coedge $-1 $909 $896 $704 $807 1 $892 $-1 #
edge $-1 $814 $910 $806 $911 0 #
coedge $-1 $782 $781 $705 $809 1 $548 $-1 #
edge $-1 $912 $813 $808 $913 0 #
coedge $-1 $856 $706 $781 $888 0 $812 $-1 #
coedge $-1 $706 $851 $909 $914 1 $812 $-1 #
loop $-1 $-1 $810 $891 #
vertex $-1 $888 $915 #
vertex $-1 $807 $916 #
straight-curve $-1 -70.8661417322835 0 25.5905511811024 0 -1 0 #
coedge $-1 $711 $848 $708 $817 1 $821 $-1 #
edge $-1 $713 $818 $708 $917 0 #
vertex $-1 $709 $918 #
straight-curve $-1 -157.48031496063 -113.507874015748 108.09842519685 0 0.707106781186548 -0.707106781186547 #
coedge $-1 $848 $711 $866 $919 0 $821 $-1 #
loop $-1 $-1 $848 $920 #
vertex $-1 $762 $921 #
straight-curve $-1 -157.48031496063 -150.173228346457 71.4330708661417 1 0 0 #
point $-1 -157.48031496063 -150.173228346457 71.4330708661417 #
face $-1 $922 $800 $2 $-1 $923 forward single #
loop $-1 $-1 $761 $715 #
plane-surface $-1 157.48031496063 3.49676543189026e-14 -78.740157480315 1 0 0 0 0 -1 0 #
edge $-1 $719 $857 $730 $924 0 #
point $-1 -151.175700251091 59.6850393700787 54.2755905511811 #
coedge $-1 $901 $725 $721 $831 1 $836 $-1 #
edge $-1 $832 $727 $721 $925 0 #
vertex $-1 $902 $926 #
straight-curve $-1 -157.48031496063 59.6850393700787 54.2755905511811 0 0.707106781186548 0.707106781186547 #
plane-surface $-1 -157.48031496063 3.49676543189026e-14 -78.740157480315 1 0 0 0 0 -1 0 #
coedge $-1 $725 $901 $861 $927 0 $836 $-1 #
loop $-1 $-1 $725 $922 #
vertex $-1 $726 $928 #
straight-curve $-1 -157.48031496063 150.173228346457 71.4330708661417 1 0 0 #
point $-1 -157.48031496063 150.173228346457 71.4330708661417 #
coedge $-1 $735 $748 $732 $841 1 $750 $-1 #
edge $-1 $737 $842 $732 $929 0 #
vertex $-1 $733 $930 #
straight-curve $-1 -143.523622047244 39.3700787401575 54.2755905511811 1 0 0 #
straight-curve $-1 -151.220472440945 0 33.4645669291339 0 -1 0 #
point $-1 -151.220472440945 39.3700787401575 33.4645669291339 #
plane-surface $-1 -151.220472440945 0 33.4645669291339 -1 0 0 0 -0 1 0 #
coedge $-1 $788 $741 $931 $932 0 $628 $-1 #
coedge $-1 $816 $820 $741 $849 1 $821 $-1 #
edge $-1 $818 $933 $741 $934 0 #
coedge $-1 $742 $774 $935 $936 0 $628 $-1 #
coedge $-1 $811 $744 $742 $852 1 $812 $-1 #
edge $-1 $937 $746 $851 $938 0 #
coedge $-1 $743 $894 $939 $940 0 $628 $-1 #
coedge $-1 $874 $880 $743 $855 1 $769 $-1 #
edge $-1 $941 $884 $854 $942 0 #
coedge $-1 $744 $810 $766 $869 1 $812 $-1 #
vertex $-1 $745 $943 #
straight-curve $-1 -70.8661417322835 0 54.2755905511811 0 1 0 #
point $-1 -70.8661417322835 -59.6850393700787 54.2755905511811 #
straight-curve $-1 -151.220472440945 0 54.2755905511811 0 1 0 #
coedge $-1 $796 $755 $835 $927 1 $800 $-1 #
straight-curve $-1 157.48031496063 150.173228346457 71.4330708661417 0 -0.707106781186548 -0.707106781186548 #
point $-1 157.48031496063 142.322834645669 63.5826771653543 #
coedge $-1 $931 $761 $759 $865 0 $826 $-1 #
edge $-1 $763 $906 $759 $944 0 #
coedge $-1 $761 $931 $820 $919 1 $826 $-1 #
straight-curve $-1 157.48031496063 -78.740157480315 0 0 -0.707106781186548 0.707106781186548 #
point $-1 157.48031496063 -142.322834645669 63.5826771653543 #
edge $-1 $857 $870 $856 $945 0 #
vertex $-1 $767 $946 #
straight-curve $-1 -157.48031496063 70.8661417322835 65.4566929133858 1 0 0 #
loop $-1 $-1 $947 $768 #
plane-surface $-1 0 0 31.6535433070866 0 0 -1 -1 0 0 0 #
coedge $-1 $948 $854 $875 $949 1 $769 $-1 #
coedge $-1 $939 $771 $874 $949 0 $657 $-1 #
coedge $-1 $771 $939 $950 $951 1 $657 $-1 #
coedge $-1 $952 $953 $771 $878 0 $872 $-1 #
edge $-1 $954 $955 $771 $956 0 #
coedge $-1 $773 $772 $947 $957 1 $533 $-1 #
coedge $-1 $854 $948 $772 $881 0 $769 $-1 #
edge $-1 $958 $884 $772 $959 0 #
coedge $-1 $960 $935 $773 $883 0 $892 $-1 #
edge $-1 $885 $961 $773 $962 0 #
vertex $-1 $775 $963 #
vertex $-1 $775 $964 #
straight-curve $-1 -19.6850393700787 -86.5964566929134 81.1870078740157 0 0.707106781186548 -0.707106781186548 #
point $-1 -19.6850393700787 70.8661417322835 65.4566929133858 #
edge $-1 $813 $870 $781 $965 0 #
edge $-1 $912 $798 $782 $966 0 #
straight-curve $-1 -157.48031496063 70.8661417322835 65.4566929133858 1 0 0 #
face $-1 $793 $812 $2 $-1 $967 reversed single #
loop $-1 $-1 $935 $784 #
plane-surface $-1 0 -70.8661417322835 0 0 -1 0 0 0 -1 0 #
coedge $-1 $853 $787 $968 $969 0 $628 $-1 #
coedge $-1 $791 $790 $805 $908 1 $687 $-1 #
coedge $-1 $806 $968 $791 $897 1 $892 $-1 #
edge $-1 $910 $898 $896 $970 0 #
vertex $-1 $969 $971 #
straight-curve $-1 70.8661417322835 -86.5964566929134 81.1870078740157 0 -0.707106781186548 0.707106781186548 #
plane-surface $-1 70.8661417322835 0 0 1 0 0 0 0 -1 0 #
coedge $-1 $835 $830 $795 $902 0 $836 $-1 #
edge $-1 $832 $903 $795 $972 0 #
vertex $-1 $797 $973 #
straight-curve $-1 157.48031496063 59.6850393700787 54.2755905511811 0 0.707106781186548 0.707106781186547 #
point $-1 70.8661417322835 70.8661417322835 65.4566929133858 #
vertex $-1 $803 $974 #
straight-curve $-1 108.402633816564 3.45801574121984 -8.86746456011746 0.431993306944261 -0.637723209063055 0.637723209063055 #
edge $-1 $910 $912 $895 $975 0 #
coedge $-1 $935 $806 $811 $914 0 $892 $-1 #
vertex $-1 $897 $976 #
straight-curve $-1 0 -70.8661417322835 25.5905511811024 1 0 0 #
vertex $-1 $809 $977 #
straight-curve $-1 0 70.8661417322835 25.5905511811024 -1 0 0 #
edge $-1 $814 $937 $909 $978 0 #
point $-1 -70.8661417322835 70.8661417322835 25.5905511811024 #
point $-1 -70.8661417322835 -70.8661417322835 25.5905511811024 #
straight-curve $-1 -157.48031496063 -150.173228346457 71.4330708661417 0 0.707106781186548 0.707106781186548 #
point $-1 -157.48031496063 -113.507874015748 108.09842519685 #
edge $-1 $822 $933 $866 $979 0 #
face $-1 $-1 $821 $2 $-1 $980 reversed single #
point $-1 157.48031496063 -150.173228346457 71.4330708661417 #
face $-1 $920 $836 $2 $-1 $981 reversed single #
plane-surface $-1 157.48031496063 3.49676543189026e-14 -78.740157480315 1 0 0 0 0 -1 0 #
straight-curve $-1 -157.48031496063 59.6850393700787 54.2755905511811 1 0 0 #
straight-curve $-1 -157.48031496063 113.507874015748 108.09842519685 0 0.707106781186548 -0.707106781186548 #
point $-1 -157.48031496063 113.507874015748 108.09842519685 #
edge $-1 $903 $837 $861 $982 0 #
point $-1 157.48031496063 150.173228346457 71.4330708661417 #
straight-curve $-1 -151.220472440945 39.3700787401575 33.4645669291339 0 0 1 #
point $-1 -151.220472440945 39.3700787401575 54.2755905511811 #
coedge $-1 $866 $864 $847 $932 1 $826 $-1 #
edge $-1 $933 $906 $847 $983 0 #
vertex $-1 $849 $984 #
straight-curve $-1 -157.48031496063 -113.507874015748 108.09842519685 1 0 0 #
coedge $-1 $882 $909 $850 $936 1 $892 $-1 #
edge $-1 $885 $937 $935 $985 0 #
vertex $-1 $936 $986 #
straight-curve $-1 -70.8661417322835 -86.5964566929134 81.1870078740157 0 0.707106781186548 -0.707106781186548 #
coedge $-1 $876 $875 $853 $940 1 $657 $-1 #
edge $-1 $987 $941 $939 $988 0 #
vertex $-1 $949 $989 #
straight-curve $-1 -157.48031496063 -100.354330708661 94.9448818897638 -1 0 0 #
point $-1 -70.8661417322835 59.6850393700787 54.2755905511811 #
straight-curve $-1 157.48031496063 -157.48031496063 63.5826771653543 0 1 0 #
straight-curve $-1 -70.8661417322835 86.5964566929134 81.1870078740157 0 0.707106781186548 0.707106781186548 #
point $-1 -70.8661417322835 70.8661417322835 65.4566929133858 #
coedge $-1 $953 $952 $879 $957 0 $872 $-1 #
coedge $-1 $880 $874 $953 $990 1 $769 $-1 #
edge $-1 $954 $941 $875 $991 0 #
coedge $-1 $968 $960 $876 $951 0 $892 $-1 #
edge $-1 $955 $987 $876 $992 0 #
coedge $-1 $947 $877 $960 $993 1 $872 $-1 #
coedge $-1 $877 $947 $948 $990 0 $872 $-1 #
vertex $-1 $878 $994 #
vertex $-1 $878 $995 #
straight-curve $-1 19.6850393700787 0 31.6535433070866 0 1 0 #
edge $-1 $961 $958 $879 $996 0 #
vertex $-1 $881 $997 #
straight-curve $-1 -19.6850393700787 -100.354330708661 31.6535433070866 0 0 1 #
coedge $-1 $950 $882 $952 $993 0 $892 $-1 #
vertex $-1 $957 $998 #
straight-curve $-1 -19.6850393700787 -70.8661417322835 0 0 0 -1 #
point $-1 -19.6850393700787 -100.354330708661 94.9448818897638 #
point $-1 -19.6850393700787 -70.8661417322835 65.4566929133858 #
straight-curve $-1 -70.8661417322835 70.8661417322835 0 0 0 1 #
straight-curve $-1 70.8661417322835 70.8661417322835 0 0 0 1 #
plane-surface $-1 -70.8661417322835 0 0 -1 0 0 0 -0 1 0 #
coedge $-1 $896 $950 $894 $969 1 $892 $-1 #
edge $-1 $898 $987 $968 $999 0 #
straight-curve $-1 70.8661417322835 -70.8661417322835 0 0 0 1 #
point $-1 70.8661417322835 -70.8661417322835 65.4566929133858 #
straight-curve $-1 -157.48031496063 113.507874015748 108.09842519685 1 0 0 #
point $-1 157.48031496063 113.507874015748 108.09842519685 #
point $-1 157.48031496063 -68.992125984252 63.5826771653543 #
straight-curve $-1 70.8661417322835 0 25.5905511811024 0 1 0 #
point $-1 70.8661417322835 -70.8661417322835 25.5905511811024 #
point $-1 70.8661417322835 70.8661417322835 25.5905511811024 #
straight-curve $-1 -70.8661417322835 -70.8661417322835 0 0 0 1 #
straight-curve $-1 157.48031496063 -150.173228346457 71.4330708661417 0 0.707106781186548 0.707106781186548 #
plane-surface $-1 -157.48031496063 -131.840551181102 89.7657480314961 0 0.707106781186548 -0.707106781186548 -1 0 0 0 #
plane-surface $-1 -157.48031496063 131.840551181102 89.7657480314961 0 -0.707106781186548 -0.707106781186548 -1 0 -0 0 #
straight-curve $-1 157.48031496063 113.507874015748 108.09842519685 0 0.707106781186548 -0.707106781186548 #
straight-curve $-1 157.48031496063 -113.507874015748 108.09842519685 0 0.707106781186548 -0.707106781186547 #
point $-1 157.48031496063 -113.507874015748 108.09842519685 #
straight-curve $-1 -157.48031496063 -70.8661417322835 65.4566929133858 -1 0 0 #
point $-1 -70.8661417322835 -70.8661417322835 65.4566929133858 #
vertex $-1 $940 $1000 #
straight-curve $-1 19.6850393700787 -86.5964566929134 81.1870078740157 0 -0.707106781186548 0.707106781186548 #
point $-1 19.6850393700787 -100.354330708661 94.9448818897638 #
edge $-1 $958 $954 $948 $1001 0 #
straight-curve $-1 19.6850393700787 -100.354330708661 31.6535433070866 0 0 1 #
straight-curve $-1 19.6850393700787 -70.8661417322835 0 0 0 1 #
edge $-1 $961 $955 $952 $1002 0 #
point $-1 19.6850393700787 -100.354330708661 31.6535433070866 #
point $-1 19.6850393700787 -70.8661417322835 31.6535433070866 #
straight-curve $-1 -19.6850393700787 0 31.6535433070866 0 -1 0 #
point $-1 -19.6850393700787 -100.354330708661 31.6535433070866 #
point $-1 -19.6850393700787 -70.8661417322835 31.6535433070866 #
straight-curve $-1 -157.48031496063 -70.8661417322835 65.4566929133858 -1 0 0 #
point $-1 19.6850393700787 -70.8661417322835 65.4566929133858 #
straight-curve $-1 0 -100.354330708661 31.6535433070866 1 0 0 #
straight-curve $-1 0 -70.8661417322835 31.6535433070866 1 0 0 #
