**ABCDEFGHIJKLMNOPQRSTUVWXYZabcdefghijklmnopqrstuvwxyz**************************
**PARASOLID !"#$%&'()*+,-./:;<=>?@[\]^_`{|}~0123456789**************************
**PART1;MC=sparc;MC_MODEL=sun4c;MC_ID=chaos;OS=SunOS;OS_RELEASE=4.1.2;FRU=sdl_pa
rasolid_test_sparc;APPL=unknown;SITE=sdl-cambridge-u.k.;USER=brown;FORMAT=text;G
UISE=transmit;KEY=ss1_insert;FILE=ss1_insert.xmt_txt;DATE=14-feb-1992;
**PART2;SCH=SCH_401021_4039;USFLD_SIZE=0;
**PART3;
**END_OF_HEADER*****************************************************************
T50 : TRANSMIT FILE created by modeller version 40102115 SCH_401021_40390 12 1 3
52 2 3 0 0 0 1e3 1e-8 4 2 0 5 6 1 7 1e-8 0 0 81 2 2 352 8 1 0 0 0 0 9 10 70 3 0
 1 0 0 4 1 20 4 11 11 1 102 10 4 ss1_insert13 7 2 0 1 0 12 13 14 15 16 17 14 12
 324 0 18 0 19 7 15 -16 13 339 0 20 0 21 16 18 14 163 0 22 0 23 17 50 15 341 0 1
2 24 0 0 +-4.33 -.4 -9.19 0 0 1 1 0 0 31 16 348 0 13 25 0 0 +1e-8 -4.33 -.4 -9.1
9 0 0 -1 -1 0 0 .11 29 17 201 0 14 26 0 -3.33 -.195 -9.32 29 26 202 0 23 27 17 -
3.33 -.065 -9.19 18 23 164 0 28 14 29 26 29 27 203 0 29 30 26 -3.33 -.065 -9.16
 18 29 165 0 31 23 32 27 29 30 204 0 32 33 27 -3.33 .065 -9.16 18 32 166 0 34 29
 35 30 29 33 205 0 35 36 30 -3.33 .065 -9.19 18 35 167 0 37 32 38 33 29 36 207 0
 38 39 33 -5.33 -.195 -9.32 18 38 169 0 40 35 41 36 29 39 208 0 41 42 36 -5.33 -
.065 -9.19 18 41 170 0 43 38 44 39 29 42 209 0 44 45 39 -5.33 -.065 -9.16 18 44
 171 0 46 41 47 42 29 45 210 0 47 48 42 -5.33 .065 -9.16 18 47 172 0 49 44 50 45
 29 48 211 0 50 51 45 -5.33 .065 -9.19 18 50 173 0 52 47 53 48 29 51 212 0 53 54
 48 -5.33 .195 -9.32 18 53 174 0 55 50 56 51 29 54 66 0 56 57 51 -3.33 .195 -9.3
2 18 56 64 0 58 53 59 54 29 57 55 0 59 60 54 -5.33 -.61 -9.07 18 59 20 0 61 56 6
2 57 29 60 54 0 62 63 57 -5.33 .61 -9.07 18 62 18 0 64 59 65 60 29 63 53 0 65 66
 60 -3.33 .61 -9.07 18 65 16 0 67 62 68 63 29 66 52 0 68 69 63 -3.33 -.61 -9.07
 18 68 14 0 70 65 71 66 29 69 38 0 72 73 66 -5.33 -.61 -9.32 18 72 8 0 74 75 76
 69 29 73 37 0 75 77 69 -5.33 .61 -9.32 18 75 10 0 78 71 72 73 29 77 36 0 71 79
 73 -3.33 .61 -9.32 18 71 12 0 80 68 75 77 29 79 35 0 76 0 77 -3.33 -.61 -9.32 1
8 76 7 0 81 72 0 79 17 81 82 70 83 76 84 85 0 15 82 29 0 70 86 0 17 70 82 87 81
 68 88 89 0 17 83 82 81 87 72 61 90 0 17 84 91 92 93 72 81 85 0 16 85 9 0 81 94
 95 96 16 94 11 0 97 98 85 99 16 95 3 0 100 85 0 101 30 96 39 0 85 0 101 0 +1e-8
 -4.33 -.61 -9.32 1 0 0 30 101 40 0 95 96 102 0 +1e-8 -3.33 0 -9.32 0 1 0 30 102
 41 0 98 101 99 0 +1e-8 -4.33 .61 -9.32 -1 0 0 16 98 13 0 78 89 94 102 30 99 42
 0 94 102 103 0 +1e-8 -5.33 0 -9.32 0 -1 0 30 103 47 0 89 99 104 0 +1e-8 -3.33 -
.61 -9.32 0 0 1 16 89 15 0 70 105 98 103 30 104 48 0 105 103 106 0 +1e-8 -3.33 .
61 -9.32 0 0 1 16 105 17 0 67 107 89 104 30 106 49 0 107 104 108 0 +1e-8 -5.33 .
61 -9.32 0 0 1 16 107 19 0 64 90 105 106 30 108 50 0 90 106 109 0 +1e-8 -5.33 -.
61 -9.32 0 0 1 16 90 21 0 61 110 107 108 30 109 56 0 110 108 111 0 +1e-8 -3.33 0
 -9.07 0 -1 0 16 110 22 0 112 113 90 109 30 111 57 0 113 109 114 0 +1e-8 -4.33 .
61 -9.07 1 0 0 16 113 25 0 115 116 110 111 30 114 58 0 116 111 117 0 +1e-8 -5.33
 0 -9.07 0 1 0 16 116 28 0 118 119 113 114 30 117 59 0 119 114 120 0 +1e-8 -4.33
 -.61 -9.07 -1 0 0 16 119 31 0 87 121 116 117 30 120 67 0 121 117 122 0 +1e-8 -3
.33 0 -9.32 0 1 0 16 121 65 0 80 123 119 120 30 122 96 0 123 120 124 0 +1e-8 -5.
33 0 -9.32 0 -1 0 16 123 94 0 74 125 121 122 30 124 99 0 125 122 126 0 +1e-8 -4.
33 .195 -9.32 -1 0 0 16 125 97 0 127 128 123 124 30 126 200 0 128 124 129 0 +1e-
8 -5.33 .195 -9.32 0 -.707106781186546 .70710678118655 16 128 162 0 52 130 125 1
26 30 129 199 0 130 126 131 0 +1e-8 -5.33 .065 -9.19 0 0 1 16 130 161 0 49 132 1
28 129 30 131 198 0 132 129 133 0 +1e-8 -5.33 .065 -9.16 0 -1 0 16 132 160 0 46
 134 130 131 30 133 197 0 134 131 135 0 +1e-8 -5.33 -.065 -9.16 0 0 -1 16 134 15
9 0 43 136 132 133 30 135 196 0 136 133 137 0 +1e-8 -5.33 -.065 -9.19 0 -.707106
781186546 -.70710678118655 16 136 158 0 40 138 134 135 30 137 194 0 138 135 139
 0 +1e-8 -3.33 .195 -9.32 0 -.707106781186546 .70710678118655 16 138 156 0 140 1
41 136 137 30 139 193 0 141 137 142 0 +1e-8 -3.33 .065 -9.19 0 0 1 16 141 155 0
 143 144 138 139 30 142 192 0 144 139 145 0 +1e-8 -3.33 .065 -9.16 0 -1 0 16 144
 154 0 146 147 141 142 30 145 191 0 147 142 148 0 +1e-8 -3.33 -.065 -9.16 0 0 -1
 16 147 153 0 149 150 144 145 30 148 190 0 150 145 151 0 +1e-8 -3.33 -.065 -9.19
 0 -.707106781186546 -.70710678118655 16 150 152 0 152 153 147 148 30 151 188 0
 153 148 154 0 +1e-8 -3.33 .065 -9.19 -1 0 0 16 153 150 0 155 156 150 151 30 154
 187 0 156 151 157 0 +1e-8 -3.33 .065 -9.16 -1 0 0 16 156 149 0 158 159 153 154
 30 157 186 0 159 154 160 0 +1e-8 -3.33 -.065 -9.16 -1 0 0 16 159 148 0 161 162
 156 157 30 160 185 0 162 157 163 0 +1e-8 -3.33 -.065 -9.19 -1 0 0 16 162 147 0
 164 165 159 160 30 163 184 0 165 160 166 0 +1e-8 -3.33 -.195 -9.32 -1 0 0 16 16
5 146 0 167 168 162 163 31 166 217 0 168 163 169 0 +1e-8 -4.33 .4 -9.07 0 0 1 1
 0 0 .07 16 168 214 0 170 171 165 166 31 169 245 0 171 166 172 0 +1e-8 -4.33 -.4
 -9.07 0 0 1 1 0 0 .07 16 171 242 0 173 174 168 169 31 172 273 0 174 169 175 0 +
1e-8 -4.33 .4 -9.32 0 0 -1 -1 0 0 .11 16 174 270 0 176 177 171 172 31 175 279 0
 177 172 178 0 -1e-8 -4.33 .4 -9.19 0 0 1 1 0 0 .07 16 177 276 0 179 180 174 175
 31 178 307 0 180 175 181 0 +1e-8 -4.33 .4 -9.19 0 0 -1 -1 0 0 .11 16 180 298 0
 182 183 177 178 31 181 314 0 183 178 25 0 +1e-8 -4.33 -.4 -9.32 0 0 -1 -1 0 0 .
11 16 183 311 0 184 21 180 181 31 25 320 0 21 181 16 0 -1e-8 -4.33 -.4 -9.19 0 0
 1 1 0 0 .07 16 21 317 0 185 13 183 25 17 185 186 185 185 0 187 21 0 15 186 318
 0 185 188 189 17 187 190 187 187 0 185 21 0 15 190 326 0 187 12 0 14 188 259 0
 191 192 186 7 193 -15 189 260 0 173 188 0 17 173 189 173 173 0 194 171 0 17 194
 195 194 194 0 173 171 0 15 195 244 0 194 196 197 14 196 33 0 86 198 195 7 199 +
15 197 216 0 200 196 201 17 200 197 200 200 0 170 168 0 15 201 32 0 202 196 0 17
 202 201 203 204 68 87 119 0 17 203 201 205 202 65 112 110 0 17 204 201 202 205
 59 118 116 0 17 87 82 83 70 59 202 119 0 17 205 201 204 203 62 115 113 0 17 118
 206 207 61 62 204 116 0 15 206 26 0 43 208 0 17 207 206 97 118 75 64 107 0 17 6
1 206 118 74 59 83 90 0 17 74 206 61 40 72 92 123 0 17 40 206 74 43 38 209 136 0
 17 92 91 22 84 38 74 123 0 15 91 98 0 92 210 0 17 22 91 93 92 14 167 165 0 17 9
3 91 84 22 76 100 95 0 17 167 211 209 152 38 22 165 0 15 211 132 0 167 212 0 17
 209 211 213 167 41 40 136 0 17 152 211 167 213 14 28 150 0 17 213 211 152 209 2
3 164 162 0 17 28 214 31 100 23 152 150 0 15 214 4 0 100 198 0 17 31 214 34 28 2
9 149 147 0 17 100 214 28 88 14 93 95 0 17 88 214 100 112 76 70 89 0 17 112 214
 88 67 68 203 110 0 17 67 214 112 80 65 215 105 0 17 80 214 67 58 71 216 121 0 1
7 215 217 78 115 71 67 105 0 15 217 23 0 64 218 0 17 78 217 64 215 75 219 98 0 1
7 115 217 215 64 65 205 113 0 17 64 217 115 78 62 207 107 0 17 219 220 216 221 7
1 78 98 0 15 220 5 0 216 222 0 17 216 220 127 219 56 80 121 0 17 221 220 219 127
 75 97 94 0 17 127 220 221 216 53 223 125 0 17 97 206 52 207 53 221 94 0 17 52 2
06 49 97 50 55 128 0 17 49 206 46 52 47 224 130 0 17 55 225 223 155 53 52 128 0
 15 225 142 0 140 226 0 17 223 225 140 55 56 127 125 0 17 155 225 55 140 50 227
 153 0 17 140 225 155 223 35 58 138 0 17 227 228 143 224 35 155 153 0 15 228 138
 0 158 229 0 17 143 228 158 227 32 37 141 0 17 224 228 227 158 50 49 130 0 17 15
8 228 224 143 47 230 156 0 17 230 231 146 232 32 158 156 0 15 231 136 0 161 233
 0 17 146 231 161 230 29 34 144 0 17 232 231 230 161 47 46 132 0 17 161 231 232
 146 44 234 159 0 17 46 206 43 49 44 232 132 0 17 43 206 40 46 41 235 134 0 17 2
35 236 234 164 44 43 134 0 15 236 134 0 164 237 0 17 234 236 149 235 29 161 159
 0 17 164 236 235 149 41 213 162 0 17 149 236 164 234 23 31 147 0 14 237 133 0 2
33 212 236 7 238 +14 233 135 0 229 237 231 7 239 +14 212 131 0 237 191 211 7 240
 +50 238 177 0 237 239 240 0 +-3.33 -.065 -9.175 0 1 0 0 0 1 50 239 178 0 233 24
1 238 0 +-3.33 0 -9.16 0 0 -1 -1 0 0 50 240 176 0 212 238 242 0 +-3.33 -.13 -9.2
55 0 .70710678118655 -.707106781186545 0 .707106781186546 .70710678118655 51 242
 236 0 191 240 193 0 +-4.33 .4 -9.32 0 0 1 .07 1 0 0 14 191 231 0 212 188 243 7
 242 -51 193 264 0 188 242 244 0 +-4.33 -.4 -9.32 0 0 1 .07 1 0 0 51 244 302 0 1
92 193 245 0 +-4.33 .4 -9.32 0 0 1 .11 1 0 0 14 192 293 0 188 246 247 7 244 -50
 245 300 0 246 244 24 0 +-4.33 .4 -9.19 0 0 1 1 0 0 14 246 283 0 192 18 248 7 24
5 -51 24 343 0 18 245 15 0 +-4.33 -.4 -9.32 0 0 1 .11 1 0 0 14 18 334 0 246 12 2
49 7 24 -15 249 335 0 250 18 251 17 250 249 250 250 0 20 13 0 15 251 336 0 184 1
8 0 17 184 251 184 184 0 252 183 0 17 252 253 252 252 0 184 183 0 15 253 313 0 2
52 210 91 14 210 105 0 222 208 253 7 254 +14 222 100 0 198 210 255 7 256 +14 208
 126 0 210 226 206 7 257 +50 254 106 0 210 256 257 0 +-4.33 0 -9.32 0 0 -1 -1 0
 0 50 256 101 0 222 258 254 0 +-4.33 0 -9.32 0 0 -1 -1 0 0 50 257 127 0 208 254
 259 0 +-5.33 0 -9.32 -1 0 0 0 0 1 50 259 180 0 226 257 241 0 +-3.33 .13 -9.255
 0 -.70710678118655 -.707106781186545 0 .707106781186546 -.70710678118655 14 226
 141 0 208 229 225 7 259 +50 241 179 0 229 259 239 0 +-3.33 .065 -9.175 0 -1 0 0
 0 -1 14 229 137 0 226 233 228 7 241 +50 258 88 0 198 199 256 0 +-3.33 0 -9.32 1
 0 0 0 0 -1 14 198 87 0 196 222 214 7 258 +50 199 51 0 196 260 258 0 +-4.33 0 -9
.07 0 0 1 1 0 0 50 260 46 0 86 261 199 0 +-4.33 -.61 -9.32 0 -1 0 0 0 -1 14 86 3
0 0 218 196 82 7 260 +50 261 44 0 218 0 260 0 +-4.33 .61 -9.32 0 1 0 0 0 1 14 21
8 24 0 0 86 217 7 261 +15 255 272 0 262 222 220 17 262 255 262 262 0 176 174 0 1
7 176 263 176 176 0 262 174 0 15 263 295 0 176 192 0 17 20 19 20 20 0 250 13 0 1
5 19 325 0 20 12 190 15 248 284 0 182 246 264 17 182 248 182 182 0 265 180 0 15
 264 285 0 266 246 0 17 266 264 266 266 0 179 177 0 17 179 243 179 179 0 266 177
 0 15 243 277 0 179 191 267 15 267 232 0 170 191 0 17 170 267 170 170 0 200 168
 0 17 265 247 265 265 0 182 180 0 15 247 294 0 265 192 263 17 34 214 37 31 32 14
6 144 0 17 37 214 58 34 35 143 141 0 17 58 214 80 37 56 140 138 0 74 20 11 1 0 2
 0 0 0 0 0 0 0 0 0 0 0 0 0 0 0 0 0 0 0 80 2 8 268 8004 269 0 0 0 0 3 5 0 0 FFTFF
FFFFFFF2 3 83 1 9 .28 84 7 10 density79 16 269 SDL/TYSA_DENSITY1 0 
