600 0 2 0           
34 FBMach with ACIS3D/Toolkit - 6.0.3 13 ACIS 6.0.3 NT 24 Mon Apr 16 12:26:36 2001 
1 9.9999999999999995e-007 1e-010 
body $2 $3 $-1 $4 #
bdycol-kcp $-1 1 8 $5 $6 $7 $8 $9 $10 $11 $12 #
model_id-kcp-attrib $-1 $-1 $-1 $0 1 987438390 156 -1717829631 1 #
lump $-1 $-1 $13 $0 #
transform $-1 1 0 0 0 1 0 0 0 1 0 0 0 1 no_rotate no_reflect no_shear #
body $14 $15 $-1 $16 #
body $17 $18 $-1 $19 #
body $20 $21 $-1 $22 #
body $23 $24 $-1 $25 #
body $26 $27 $-1 $28 #
body $29 $30 $-1 $-1 #
body $31 $32 $-1 $-1 #
body $33 $34 $-1 $35 #
shell $-1 $-1 $-1 $36 $-1 $3 #
model_id-kcp-attrib $-1 $-1 $-1 $5 1 987438390 171 -1716846590 1 #
lump $-1 $-1 $37 $5 #
transform $-1 1 0 0 0 1 0 0 0 1 -170.4724409448815 0 -362.00787401574803 1 no_rotate no_reflect no_shear #
rgb_color-st-attrib $-1 $38 $-1 $6 0.5 1 1 #
lump $-1 $-1 $39 $6 #
transform $-1 1 0 0 0 1 0 0 0 1 -170.47244094488201 -15.748031496063 -364.37007874015751 1 no_rotate no_reflect no_shear #
rgb_color-st-attrib $-1 $40 $-1 $7 0.5 1 1 #
lump $-1 $-1 $41 $7 #
transform $-1 1 0 0 0 1 0 0 0 1 -170.47244094488201 15.748031496063 -364.37007874015751 1 no_rotate no_reflect no_shear #
rgb_color-st-attrib $-1 $42 $-1 $8 0.5 1 1 #
lump $-1 $-1 $43 $8 #
transform $-1 1 0 0 0 1 0 0 0 1 -170.47244094488201 -15.748031496063 -359.44881889763747 1 no_rotate no_reflect no_shear #
rgb_color-st-attrib $-1 $44 $-1 $9 0.5 1 1 #
lump $-1 $-1 $45 $9 #
transform $-1 1 0 0 0 1 0 0 0 1 -170.47244094488201 15.748031496063 -359.44881889763747 1 no_rotate no_reflect no_shear #
rgb_color-st-attrib $-1 $46 $-1 $10 0.5 1 1 #
lump $-1 $-1 $47 $10 #
rgb_color-st-attrib $-1 $48 $-1 $11 0.5 1 1 #
lump $-1 $-1 $49 $11 #
rgb_color-st-attrib $-1 $50 $-1 $12 1 0 0 #
lump $-1 $-1 $51 $12 #
transform $-1 -1 0 -1.2246063538223773e-016 0 1 0 1.2246063538223773e-016 0 -1 -170.4724409448815 0 -453.3871970274314 1 rotate no_reflect no_shear #
face $52 $53 $54 $13 $-1 $55 reversed single #
shell $-1 $-1 $-1 $56 $-1 $15 #
model_id-kcp-attrib $-1 $-1 $17 $6 1 987438390 1109 -1722482685 1 #
shell $-1 $-1 $-1 $57 $-1 $18 #
model_id-kcp-attrib $-1 $-1 $20 $7 1 987438390 1140 -1720451068 1 #
shell $-1 $-1 $-1 $58 $-1 $21 #
model_id-kcp-attrib $-1 $-1 $23 $8 1 987438390 1156 -1719402491 1 #
shell $-1 $-1 $-1 $59 $-1 $24 #
model_id-kcp-attrib $-1 $-1 $26 $9 1 987438390 1171 -1718419450 1 #
shell $-1 $-1 $-1 $60 $-1 $27 #
model_id-kcp-attrib $-1 $-1 $29 $10 1 987438390 3765 -1716191225 1 #
shell $-1 $-1 $-1 $61 $-1 $30 #
model_id-kcp-attrib $-1 $-1 $31 $11 1 987438390 3953 -1720647672 1 #
shell $-1 $-1 $-1 $62 $-1 $32 #
model_id-kcp-attrib $-1 $-1 $33 $12 1 987438390 5015 -1718157303 1 #
shell $-1 $-1 $-1 $63 $-1 $34 #
model_id-kcp-attrib $-1 $-1 $-1 $36 1 987438390 156 -1717829631 2 #
face $64 $65 $66 $13 $-1 $67 reversed single #
loop $-1 $68 $69 $36 #
plane-surface $-1 -170.47244094488201 -15.748031496063 -361.811023622047 0 0 1 1 0 0 forward_v I I I I #
face $70 $71 $72 $37 $-1 $73 forward single #
face $-1 $74 $75 $39 $-1 $76 forward single #
face $-1 $77 $78 $41 $-1 $79 forward single #
face $-1 $80 $81 $43 $-1 $82 forward single #
face $-1 $83 $84 $45 $-1 $85 forward single #
face $-1 $86 $87 $47 $-1 $88 forward single #
face $-1 $89 $90 $49 $-1 $91 forward single #
face $-1 $92 $93 $51 $-1 $94 reversed single #
model_id-kcp-attrib $-1 $-1 $-1 $53 1 987438390 156 -1717829631 3 #
face $95 $96 $97 $13 $-1 $98 reversed single #
loop $-1 $99 $100 $53 #
cone-surface $-1 -170.47244094488201 -15.748031496063 -366.92913385826802 0 0 1 4.3307086614173196 0 0 1 I I 0 1 4.3307086614173196 forward I I I I #
loop $101 $-1 $102 $36 #
coedge $-1 $69 $69 $100 $103 forward $54 $-1 #
model_id-kcp-attrib $-1 $-1 $-1 $56 1 987438390 171 -1716846590 6 #
face $104 $105 $106 $37 $-1 $107 reversed single #
loop $-1 $-1 $108 $56 #
plane-surface $-1 0 0 4.9212598425200156 0 0 1 1 0 0 forward_v I I I I #
face $-1 $109 $110 $39 $-1 $111 forward single #
loop $-1 $112 $113 $57 #
cone-surface $-1 0 0 0 0 0 1 4.3307086614173196 0 0 1 I I 0 1 4.3307086614173196 forward I I I I #
face $-1 $114 $115 $41 $-1 $116 forward single #
loop $-1 $117 $118 $58 #
cone-surface $-1 0 0 0 0 0 1 4.3307086614173196 0 0 1 I I 0 1 4.3307086614173196 forward I I I I #
face $-1 $119 $120 $43 $-1 $121 forward single #
loop $-1 $122 $123 $59 #
cone-surface $-1 0 0 0 0 0 1 2.7559055118110201 0 0 1 I I 0 1 2.7559055118110201 forward I I I I #
face $-1 $124 $125 $45 $-1 $126 forward single #
loop $-1 $127 $128 $60 #
cone-surface $-1 0 0 0 0 0 1 2.7559055118110201 0 0 1 I I 0 1 2.7559055118110201 forward I I I I #
face $-1 $129 $130 $47 $-1 $131 forward single #
loop $-1 $-1 $132 $61 #
plane-surface $-1 -131.10236220472399 -7.677165354330711 -366.92913385826802 0 0 -1 -1 0 0 forward_v I I I I #
face $-1 $133 $134 $49 $-1 $135 forward single #
loop $-1 $-1 $136 $62 #
plane-surface $-1 -131.10236220472399 2.5590551181102397 -361.811023622047 0 -1 0 0 0 -1 forward_v I I I I #
face $-1 $137 $138 $51 $-1 $139 reversed single #
loop $-1 $-1 $140 $63 #
plane-surface $-1 39.37007874015751 0 -91.379323011683368 -1 0 1.2246063538223773e-016 1.2246063538223773e-016 0 1 forward_v I I I I #
model_id-kcp-attrib $-1 $-1 $-1 $65 1 987438390 156 -1717829631 4 #
face $141 $142 $143 $13 $-1 $144 reversed single #
loop $-1 $145 $146 $65 #
plane-surface $-1 -170.47244094488201 15.748031496063 -361.811023622047 0 0 1 1 0 0 forward_v I I I I #
loop $-1 $-1 $147 $53 #
coedge $-1 $100 $100 $69 $103 reversed $66 $-1 #
model_id-kcp-attrib $-1 $-1 $-1 $68 1 987438390 156 -1717829631 25 #
coedge $-1 $102 $102 $148 $149 reversed $68 $-1 #
edge $150 $151 0 $151 6.2831853071795862 $69 $152 forward 7 unknown #
model_id-kcp-attrib $-1 $153 $-1 $71 1 987438390 171 -1716846590 4 #
face $154 $155 $156 $37 $-1 $157 reversed single #
loop $-1 $-1 $158 $71 #
plane-surface $-1 0 0 -4.9212598425200156 0 0 1 1 0 0 forward_v I I I I #
coedge $-1 $159 $160 $161 $162 forward $72 $-1 #
face $-1 $-1 $163 $39 $-1 $164 forward single #
loop $-1 $-1 $165 $74 #
plane-surface $-1 0 0 -2.559055118110507 0 0 -1 -1 0 0 forward_v I I I I #
loop $-1 $-1 $166 $57 #
coedge $-1 $113 $113 $165 $167 reversed $75 $-1 #
face $-1 $-1 $168 $41 $-1 $169 forward single #
loop $-1 $-1 $170 $77 #
plane-surface $-1 0 0 -2.559055118110507 0 0 -1 -1 0 0 forward_v I I I I #
loop $-1 $-1 $171 $58 #
coedge $-1 $118 $118 $170 $172 reversed $78 $-1 #
face $-1 $-1 $173 $43 $-1 $174 forward single #
loop $-1 $-1 $175 $80 #
plane-surface $-1 0 0 -2.3622047244095086 0 0 -1 -1 0 0 forward_v I I I I #
loop $-1 $-1 $176 $59 #
coedge $-1 $123 $123 $175 $177 reversed $81 $-1 #
face $-1 $-1 $178 $45 $-1 $179 forward single #
loop $-1 $-1 $180 $83 #
plane-surface $-1 0 0 -2.3622047244095086 0 0 -1 -1 0 0 forward_v I I I I #
loop $-1 $-1 $181 $60 #
coedge $-1 $128 $128 $180 $182 reversed $84 $-1 #
face $-1 $183 $184 $47 $-1 $185 forward single #
loop $-1 $-1 $186 $86 #
plane-surface $-1 -131.10236220472399 -2.5590551181102401 -366.92913385826802 0 1 0 0 0 1 forward_v I I I I #
coedge $-1 $187 $188 $189 $190 forward $87 $-1 #
face $-1 $191 $192 $49 $-1 $193 forward single #
loop $-1 $-1 $194 $89 #
plane-surface $-1 -131.10236220472399 2.5590551181102397 -366.92913385826802 0 0 -1 -1 0 0 forward_v I I I I #
coedge $-1 $195 $196 $197 $198 forward $90 $-1 #
face $-1 $199 $200 $51 $-1 $201 reversed single #
loop $-1 $-1 $202 $92 #
plane-surface $-1 -39.37007874015751 0 -91.379323011683368 1 0 -1.2246063538223773e-016 -1.2246063538223773e-016 0 -1 forward_v I I I I #
coedge $-1 $203 $204 $205 $206 forward $93 $-1 #
model_id-kcp-attrib $-1 $-1 $-1 $96 1 987438390 156 -1717829631 5 #
face $207 $208 $209 $13 $-1 $210 reversed single #
loop $-1 $211 $212 $96 #
cone-surface $-1 -170.47244094488201 15.748031496063 -366.92913385826802 0 0 1 4.3307086614173196 0 0 1 I I 0 1 4.3307086614173196 forward I I I I #
loop $213 $-1 $214 $65 #
coedge $-1 $146 $146 $212 $215 forward $97 $-1 #
coedge $-1 $147 $147 $216 $217 forward $99 $-1 #
coedge $-1 $148 $148 $102 $149 forward $209 $-1 #
edge $218 $219 0 $219 6.2831853071795862 $102 $220 forward 7 unknown #
attrib_edge_convexity-kcp-attrib $-1 $221 $-1 $103 2 #
vertex $-1 $103 $222 #
ellipse-curve $-1 -170.47244094488201 -15.748031496063 -361.811023622047 0 0 -1 -4.3307086614173196 0 0 1 I I #
model_id-kcp-attrib $-1 $-1 $104 $71 1 987438390 171 -1716846590 3 #
model_id-kcp-attrib $-1 $-1 $-1 $105 1 987438390 171 -1716846590 7 #
face $223 $224 $225 $37 $-1 $226 reversed single #
loop $-1 $-1 $227 $105 #
plane-surface $-1 0 -24.015748031496098 0 0 1 0 0 0 1 forward_v I I I I #
coedge $-1 $228 $229 $230 $231 forward $106 $-1 #
coedge $-1 $232 $108 $233 $234 forward $72 $-1 #
coedge $-1 $108 $232 $235 $236 forward $72 $-1 #
coedge $-1 $237 $238 $108 $162 reversed $239 $-1 #
edge $-1 $240 -24.015748031496098 $241 24.015748031496098 $161 $242 forward 7 unknown #
loop $-1 $-1 $243 $109 #
plane-surface $-1 0 0 2.559055118110507 0 0 1 1 0 0 forward_v I I I I #
coedge $-1 $165 $165 $113 $167 forward $110 $-1 #
coedge $-1 $166 $166 $243 $244 reversed $112 $-1 #
edge $-1 $245 0 $245 6.2831853071795862 $165 $246 forward 7 unknown #
loop $-1 $-1 $247 $114 #
plane-surface $-1 0 0 2.559055118110507 0 0 1 1 0 0 forward_v I I I I #
coedge $-1 $170 $170 $118 $172 forward $115 $-1 #
coedge $-1 $171 $171 $247 $248 reversed $117 $-1 #
edge $-1 $249 0 $249 6.2831853071795862 $170 $250 forward 7 unknown #
loop $-1 $-1 $251 $119 #
plane-surface $-1 0 0 2.3622047244095086 0 0 1 1 0 0 forward_v I I I I #
coedge $-1 $175 $175 $123 $177 forward $120 $-1 #
coedge $-1 $176 $176 $251 $252 reversed $122 $-1 #
edge $-1 $253 0 $253 6.2831853071795862 $175 $254 forward 7 unknown #
loop $-1 $-1 $255 $124 #
plane-surface $-1 0 0 2.3622047244095086 0 0 1 1 0 0 forward_v I I I I #
coedge $-1 $180 $180 $128 $182 forward $125 $-1 #
coedge $-1 $181 $181 $255 $256 reversed $127 $-1 #
edge $-1 $257 0 $257 6.2831853071795862 $180 $258 forward 7 unknown #
face $-1 $259 $260 $47 $-1 $261 reversed single #
loop $-1 $-1 $262 $129 #
plane-surface $-1 -131.10236220472399 -2.5590551181102401 -361.811023622047 0 -0.70710678118654957 0.70710678118654557 1 0 0 forward_v I I I I #
coedge $-1 $263 $264 $265 $266 forward $130 $-1 #
coedge $-1 $267 $132 $264 $268 reversed $87 $-1 #
coedge $-1 $132 $267 $269 $270 forward $87 $-1 #
coedge $-1 $271 $265 $132 $190 reversed $260 $-1 #
edge $-1 $272 -8.8817841970012523e-016 $273 5.1181102362204705 $132 $274 forward 7 unknown #
face $-1 $275 $276 $49 $-1 $277 reversed single #
loop $-1 $-1 $278 $133 #
plane-surface $-1 -131.10236220472399 7.6771653543307101 -366.92913385826802 0 0.70710678118654957 0.70710678118654557 1 0 0 forward_v I I I I #
coedge $-1 $279 $280 $281 $282 forward $134 $-1 #
coedge $-1 $283 $136 $280 $284 reversed $90 $-1 #
coedge $-1 $136 $283 $285 $286 forward $90 $-1 #
coedge $-1 $287 $281 $136 $198 reversed $276 $-1 #
edge $-1 $288 0 $289 5.118110236221014 $136 $290 forward 7 unknown #
face $-1 $291 $292 $51 $-1 $293 reversed single #
loop $-1 $-1 $294 $137 #
plane-surface $-1 6.0266060719609233e-016 0 -86.458063169163353 -1.2246063538223773e-016 0 -1 -1 0 1.2246063538223773e-016 forward_v I I I I #
coedge $-1 $295 $296 $297 $298 forward $138 $-1 #
coedge $-1 $299 $140 $300 $301 forward $93 $-1 #
coedge $-1 $140 $299 $302 $303 reversed $93 $-1 #
coedge $-1 $304 $305 $140 $206 reversed $306 $-1 #
edge $-1 $307 40.768401663321697 $308 47.067614261746712 $205 $309 forward 7 unknown #
model_id-kcp-attrib $-1 $-1 $-1 $142 1 987438390 156 -1717829631 6 #
face $310 $311 $312 $13 $-1 $313 reversed single #
loop $314 $315 $148 $142 #
cone-surface $-1 -170.47244094488201 -15.748031496063 -366.92913385826802 0 0 1 2.7559055118110201 0 0 1 I I 0 1 2.7559055118110201 forward I I I I #
loop $-1 $-1 $316 $96 #
coedge $-1 $212 $212 $146 $215 reversed $143 $-1 #
model_id-kcp-attrib $-1 $-1 $-1 $145 1 987438390 156 -1717829631 32 #
coedge $-1 $214 $214 $317 $318 reversed $145 $-1 #
edge $319 $320 0 $320 6.2831853071795862 $146 $321 forward 7 unknown #
coedge $-1 $216 $216 $147 $217 reversed $322 $-1 #
edge $323 $324 0 $324 6.2831853071795862 $147 $325 forward 7 unknown #
attrib_edge_convexity-kcp-attrib $-1 $326 $-1 $149 1 #
vertex $327 $149 $328 #
ellipse-curve $-1 -170.47244094488201 -15.748031496063 -361.811023622047 0 0 -1 2.7559055118110201 0 0 1 I I #
convexity-sys-attrib $-1 $-1 $150 $103 #
point $-1 -174.803149606299 -15.748031496063 -361.811023622047 #
model_id-kcp-attrib $-1 $-1 $-1 $155 1 987438390 171 -1716846590 2 #
face $329 $330 $331 $37 $-1 $332 reversed single #
loop $-1 $-1 $333 $155 #
plane-surface $-1 -39.37007874015751 0 0 1 0 0 0 0 -1 forward_v I I I I #
coedge $-1 $334 $235 $335 $336 forward $156 $-1 #
coedge $-1 $337 $158 $334 $338 forward $106 $-1 #
coedge $-1 $158 $337 $339 $340 forward $106 $-1 #
coedge $-1 $238 $237 $158 $231 reversed $239 $-1 #
edge $-1 $341 -24.015748031496098 $342 24.015748031496098 $230 $343 forward 7 unknown #
coedge $-1 $160 $159 $344 $345 forward $72 $-1 #
coedge $-1 $346 $347 $159 $234 reversed $331 $-1 #
edge $-1 $241 -39.37007874015751 $348 39.37007874015751 $233 $349 forward 7 unknown #
coedge $-1 $227 $350 $160 $236 reversed $156 $-1 #
edge $-1 $351 -39.37007874015751 $240 39.37007874015751 $235 $352 forward 7 unknown #
coedge $-1 $230 $161 $350 $353 forward $239 $-1 #
coedge $-1 $161 $230 $346 $354 reversed $239 $-1 #
loop $-1 $-1 $237 $330 #
vertex $-1 $162 $355 #
vertex $-1 $162 $356 #
straight-curve $-1 39.37007874015751 0 4.9212598425200156 0 1 0 I I #
coedge $-1 $243 $243 $166 $244 forward $163 $-1 #
edge $-1 $357 0 $357 6.2831853071795862 $243 $358 forward 7 unknown #
vertex $-1 $167 $359 #
ellipse-curve $-1 0 0 -2.559055118110507 0 0 -1 4.3307086614173196 0 0 1 I I #
coedge $-1 $247 $247 $171 $248 forward $168 $-1 #
edge $-1 $360 0 $360 6.2831853071795862 $247 $361 forward 7 unknown #
vertex $-1 $172 $362 #
ellipse-curve $-1 0 0 -2.559055118110507 0 0 -1 4.3307086614173196 0 0 1 I I #
coedge $-1 $251 $251 $176 $252 forward $173 $-1 #
edge $-1 $363 0 $363 6.2831853071795862 $251 $364 forward 7 unknown #
vertex $-1 $177 $365 #
ellipse-curve $-1 0 0 -2.3622047244095086 0 0 -1 2.7559055118110201 0 0 1 I I #
coedge $-1 $255 $255 $181 $256 forward $178 $-1 #
edge $-1 $366 0 $366 6.2831853071795862 $255 $367 forward 7 unknown #
vertex $-1 $182 $368 #
ellipse-curve $-1 0 0 -2.3622047244095086 0 0 -1 2.7559055118110201 0 0 1 I I #
face $-1 $-1 $369 $47 $-1 $370 forward single #
loop $-1 $-1 $189 $183 #
plane-surface $-1 -209.84251968503895 -4.3685803455561416 -365.11960863082174 1 -1.0304656567882625e-028 2.347171773795586e-028 2.347171773795586e-028 0 -1 forward_v I I I I #
coedge $-1 $269 $371 $271 $372 forward $184 $-1 #
coedge $-1 $373 $186 $371 $374 reversed $130 $-1 #
coedge $-1 $186 $373 $187 $268 forward $130 $-1 #
coedge $-1 $189 $271 $186 $266 reversed $260 $-1 #
edge $-1 $273 0 $375 5.118110236221014 $186 $376 forward 7 unknown #
coedge $-1 $188 $187 $377 $378 reversed $87 $-1 #
edge $-1 $379 0 $273 78.74015748031502 $264 $380 forward 7 unknown #
coedge $-1 $381 $262 $188 $270 reversed $184 $-1 #
edge $-1 $382 0 $272 78.74015748031502 $188 $383 forward 7 unknown #
coedge $-1 $265 $189 $262 $372 reversed $260 $-1 #
vertex $-1 $270 $384 #
vertex $-1 $268 $385 #
straight-curve $-1 -209.84251968503901 -7.6771653543307101 -366.92913385826802 0 1 0 I I #
face $-1 $-1 $386 $49 $-1 $387 forward single #
loop $-1 $-1 $197 $191 #
plane-surface $-1 -209.84251968503895 4.368580345556035 -365.11960863082192 1 -1.4312023010953197e-028 -2.5475400959493007e-028 -2.5475400959493007e-028 0 -1 forward_v I I I I #
coedge $-1 $285 $388 $287 $389 forward $192 $-1 #
coedge $-1 $390 $194 $388 $391 reversed $134 $-1 #
coedge $-1 $194 $390 $195 $284 forward $134 $-1 #
coedge $-1 $197 $287 $194 $282 reversed $276 $-1 #
edge $-1 $289 -4.4408920985006262e-016 $392 5.1181102362204705 $194 $393 forward 7 unknown #
coedge $-1 $196 $195 $394 $395 reversed $90 $-1 #
edge $-1 $396 0 $289 78.74015748031502 $280 $397 forward 7 unknown #
coedge $-1 $398 $278 $196 $286 reversed $192 $-1 #
edge $-1 $399 0 $288 78.74015748031502 $196 $400 forward 7 unknown #
coedge $-1 $281 $197 $278 $389 reversed $276 $-1 #
vertex $-1 $286 $401 #
vertex $-1 $284 $402 #
straight-curve $-1 -209.84251968503901 2.5590551181102401 -361.811023622047 0 0 -1 I I #
face $-1 $403 $404 $51 $-1 $405 reversed single #
loop $-1 $-1 $406 $199 #
plane-surface $-1 0 0 -92.757275767588425 0 0 1 1 0 0 forward_v I I I I #
coedge $-1 $302 $407 $304 $408 forward $200 $-1 #
coedge $-1 $409 $202 $407 $410 reversed $138 $-1 #
coedge $-1 $202 $409 $406 $411 forward $138 $-1 #
coedge $-1 $305 $304 $202 $298 reversed $306 $-1 #
edge $-1 $412 -47.067614261746712 $413 -40.768401663321697 $297 $414 forward 7 unknown #
coedge $-1 $204 $203 $415 $416 forward $93 $-1 #
coedge $-1 $417 $418 $203 $301 reversed $292 $-1 #
edge $419 $308 -2.5590551181102401 $420 2.5590551181102401 $300 $421 forward 7 unknown #
coedge $-1 $422 $294 $204 $303 forward $200 $-1 #
edge $-1 $307 -2.5590551181102401 $423 2.5590551181102397 $204 $424 forward 7 unknown #
coedge $-1 $297 $205 $294 $408 reversed $306 $-1 #
coedge $-1 $205 $297 $417 $425 reversed $306 $-1 #
loop $-1 $-1 $297 $403 #
vertex $-1 $206 $426 #
vertex $-1 $425 $427 #
straight-curve $-1 39.370078740157517 -2.5590551181102401 -45.689661505841684 -1.2246063538223773e-016 0 -1 I I #
model_id-kcp-attrib $-1 $-1 $-1 $208 1 987438390 156 -1717829631 7 #
face $428 $429 $430 $13 $-1 $431 forward single #
loop $432 $433 $317 $208 #
cone-surface $-1 -170.47244094488201 15.748031496063 -366.92913385826802 0 0 1 2.7559055118110201 0 0 1 I I 0 1 2.7559055118110201 forward I I I I #
model_id-kcp-attrib $-1 $-1 $-1 $209 1 987438390 156 -1717829631 23 #
loop $434 $-1 $435 $142 #
coedge $-1 $316 $316 $436 $437 forward $211 $-1 #
coedge $-1 $317 $317 $214 $318 forward $312 $-1 #
edge $438 $439 0 $439 6.2831853071795862 $214 $440 forward 7 unknown #
attrib_edge_convexity-kcp-attrib $-1 $441 $-1 $215 2 #
vertex $-1 $215 $442 #
ellipse-curve $-1 -170.47244094488201 15.748031496063 -361.811023622047 0 0 -1 -4.3307086614173196 0 0 1 I I #
loop $-1 $443 $216 $444 #
attrib_edge_convexity-kcp-attrib $-1 $445 $-1 $217 1 #
vertex $-1 $217 $446 #
ellipse-curve $-1 -170.47244094488201 -15.748031496063 -366.92913385826802 0 0 -1 -4.3307086614173196 0 0 1 I I #
convexity-sys-attrib $-1 $-1 $218 $149 #
model_id-kcp-attrib $-1 $-1 $-1 $219 1 987438390 156 -1717829631 27 #
point $-1 -167.71653543307099 -15.748031496063 -361.811023622047 #
model_id-kcp-attrib $-1 $-1 $-1 $224 1 987438390 171 -1716846590 8 #
face $447 $-1 $239 $37 $-1 $448 reversed single #
loop $-1 $-1 $346 $224 #
plane-surface $-1 0 24.015748031496098 0 0 -1 0 0 0 -1 forward_v I I I I #
coedge $-1 $449 $344 $347 $450 forward $225 $-1 #
coedge $-1 $350 $227 $228 $338 reversed $156 $-1 #
coedge $-1 $344 $449 $227 $336 reversed $225 $-1 #
edge $-1 $351 -4.9212598425200156 $451 4.9212598425200156 $335 $452 forward 7 unknown #
coedge $-1 $229 $228 $449 $453 forward $106 $-1 #
edge $-1 $342 -39.37007874015751 $451 39.37007874015751 $334 $454 forward 7 unknown #
coedge $-1 $347 $346 $229 $340 reversed $331 $-1 #
edge $-1 $455 -39.37007874015751 $341 39.37007874015751 $339 $456 forward 7 unknown #
vertex $-1 $231 $457 #
vertex $-1 $353 $458 #
straight-curve $-1 39.37007874015751 0 -4.9212598425200156 0 -1 0 I I #
coedge $-1 $333 $335 $232 $345 reversed $225 $-1 #
edge $-1 $348 -24.015748031496098 $351 24.015748031496098 $344 $459 forward 7 unknown #
coedge $-1 $339 $233 $238 $354 forward $331 $-1 #
coedge $-1 $233 $339 $333 $450 reversed $331 $-1 #
vertex $-1 $234 $460 #
straight-curve $-1 0 24.015748031496098 4.9212598425200156 -1 0 0 I I #
coedge $-1 $235 $334 $237 $353 reversed $156 $-1 #
vertex $-1 $345 $461 #
straight-curve $-1 0 -24.015748031496098 4.9212598425200156 1 0 0 I I #
edge $-1 $240 -4.9212598425200156 $342 4.9212598425200156 $237 $462 forward 7 unknown #
edge $-1 $241 -4.9212598425200156 $341 4.9212598425200156 $238 $463 forward 7 unknown #
point $-1 39.37007874015751 -24.015748031496098 4.9212598425200156 #
point $-1 39.37007874015751 24.015748031496098 4.9212598425200156 #
vertex $-1 $244 $464 #
ellipse-curve $-1 0 0 2.559055118110507 0 0 1 4.3307086614173196 0 0 1 I I #
point $-1 4.3307086614173196 0 -2.559055118110507 #
vertex $-1 $248 $465 #
ellipse-curve $-1 0 0 2.559055118110507 0 0 1 4.3307086614173196 0 0 1 I I #
point $-1 4.3307086614173196 0 -2.559055118110507 #
vertex $-1 $252 $466 #
ellipse-curve $-1 0 0 2.3622047244095086 0 0 1 2.7559055118110201 0 0 1 I I #
point $-1 2.7559055118110201 0 -2.3622047244095086 #
vertex $-1 $256 $467 #
ellipse-curve $-1 0 0 2.3622047244095086 0 0 1 2.7559055118110201 0 0 1 I I #
point $-1 2.7559055118110201 0 -2.3622047244095086 #
loop $-1 $-1 $468 $259 #
plane-surface $-1 -131.10236220472393 -4.3685803455561416 -365.11960863082174 1 -1.0304656567882625e-028 2.347171773795586e-028 2.347171773795586e-028 0 -1 forward_v I I I I #
coedge $-1 $262 $381 $263 $374 forward $184 $-1 #
edge $-1 $375 0 $272 7.2381009097839355 $262 $469 forward 7 unknown #
coedge $-1 $264 $263 $470 $471 reversed $130 $-1 #
edge $-1 $472 0 $375 78.74015748031502 $371 $473 forward 7 unknown #
vertex $-1 $374 $474 #
straight-curve $-1 -209.84251968503901 -2.5590551181102401 -366.92913385826802 0 0 1 I I #
coedge $-1 $470 $468 $267 $378 forward $369 $-1 #
edge $-1 $382 0 $379 5.1181102362204705 $267 $475 forward 7 unknown #
vertex $-1 $378 $476 #
straight-curve $-1 -131.10236220472399 -2.5590551181102401 -366.92913385826802 -1 0 0 I I #
coedge $-1 $371 $269 $468 $477 reversed $184 $-1 #
vertex $-1 $477 $478 #
straight-curve $-1 -131.10236220472399 -7.677165354330711 -366.92913385826802 -1 0 0 I I #
point $-1 -209.84251968503901 -7.677165354330711 -366.92913385826802 #
point $-1 -209.84251968503901 -2.5590551181102401 -366.92913385826802 #
loop $-1 $-1 $479 $275 #
plane-surface $-1 -131.10236220472393 4.368580345556035 -365.11960863082192 1 -1.4312023010953197e-028 -2.5475400959493007e-028 -2.5475400959493007e-028 0 -1 forward_v I I I I #
coedge $-1 $278 $398 $279 $391 forward $192 $-1 #
edge $-1 $392 0 $288 7.2381009097839355 $278 $480 forward 7 unknown #
coedge $-1 $280 $279 $481 $482 reversed $134 $-1 #
edge $-1 $483 0 $392 78.74015748031502 $388 $484 forward 7 unknown #
vertex $-1 $391 $485 #
straight-curve $-1 -209.84251968503901 2.5590551181102401 -366.92913385826802 0 1 0 I I #
coedge $-1 $481 $479 $283 $395 forward $386 $-1 #
edge $-1 $399 0 $396 5.118110236221014 $283 $486 forward 7 unknown #
vertex $-1 $395 $487 #
straight-curve $-1 -131.10236220472399 2.5590551181102397 -366.92913385826802 -1 0 0 I I #
coedge $-1 $388 $285 $479 $488 reversed $192 $-1 #
vertex $-1 $488 $489 #
straight-curve $-1 -131.10236220472399 2.5590551181102397 -361.811023622047 -1 0 0 I I #
point $-1 -209.84251968503901 2.5590551181102397 -361.811023622047 #
point $-1 -209.84251968503901 2.5590551181102397 -366.92913385826802 #
face $-1 $-1 $306 $51 $-1 $490 reversed single #
loop $-1 $-1 $491 $291 #
plane-surface $-1 0 2.5590551181102401 0 0 -1 0 0 0 -1 forward_v I I I I #
coedge $-1 $418 $417 $296 $411 reversed $292 $-1 #
coedge $-1 $294 $422 $295 $410 forward $200 $-1 #
edge $-1 $413 -39.370078740157503 $307 39.370078740157517 $304 $492 forward 7 unknown #
coedge $-1 $296 $295 $491 $493 forward $138 $-1 #
edge $-1 $494 -2.5590551181102401 $413 2.5590551181102401 $295 $495 forward 7 unknown #
edge $496 $497 -2.5590551181102401 $412 2.5590551181102401 $406 $498 forward 7 unknown #
vertex $-1 $411 $499 #
vertex $-1 $298 $500 #
straight-curve $-1 -39.370078740157503 -2.5590551181102401 -45.689661505841684 1.2246063538223773e-016 0 1 I I #
coedge $-1 $501 $502 $299 $416 reversed $404 $-1 #
edge $-1 $420 -47.067614261746712 $423 -40.768401663321697 $415 $503 forward 7 unknown #
coedge $-1 $406 $300 $305 $425 forward $292 $-1 #
coedge $-1 $300 $406 $501 $504 forward $292 $-1 #
convexity-sys-attrib $-1 $-1 $-1 $301 #
vertex $-1 $301 $505 #
straight-curve $-1 39.37007874015751 0 -92.757275767588425 0 1 0 I I #
coedge $-1 $407 $302 $502 $506 forward $200 $-1 #
vertex $-1 $416 $507 #
straight-curve $-1 39.37007874015751 0 -86.458063169163353 0 1 0 I I #
edge $508 $308 -39.37007874015751 $412 39.37007874015751 $305 $509 forward 7 unknown #
point $-1 39.37007874015751 -2.5590551181102401 -86.458063169163381 #
point $-1 39.37007874015751 -2.5590551181102401 -92.757275767588396 #
model_id-kcp-attrib $-1 $-1 $-1 $311 1 987438390 156 -1717829631 8 #
face $510 $511 $512 $13 $-1 $513 forward single #
loop $-1 $-1 $514 $311 #
plane-surface $-1 -131.10236220472399 -5.1181102362204696 -364.37007874015802 0 0.70710678118655002 -0.70710678118654502 -1 0 0 forward_v I I I I #
model_id-kcp-attrib $-1 $-1 $-1 $312 1 987438390 156 -1717829631 30 #
loop $515 $-1 $516 $208 #
model_id-kcp-attrib $-1 $-1 $-1 $315 1 987438390 156 -1717829631 24 #
coedge $-1 $435 $435 $517 $518 forward $315 $-1 #
coedge $-1 $436 $436 $316 $437 reversed $519 $-1 #
edge $520 $521 0 $521 6.2831853071795862 $316 $522 forward 7 unknown #
attrib_edge_convexity-kcp-attrib $-1 $523 $-1 $318 1 #
vertex $524 $318 $525 #
ellipse-curve $-1 -170.47244094488201 15.748031496063 -361.811023622047 0 0 -1 2.7559055118110201 0 0 1 I I #
convexity-sys-attrib $-1 $-1 $319 $215 #
point $-1 -174.803149606299 15.748031496063 -361.811023622047 #
loop $-1 $-1 $526 $444 #
face $527 $528 $322 $13 $-1 $529 forward single #
convexity-sys-attrib $-1 $-1 $323 $217 #
point $-1 -174.803149606299 -15.748031496063 -366.92913385826802 #
model_id-kcp-attrib $-1 $-1 $-1 $330 1 987438390 171 -1716846590 5 #
plane-surface $-1 39.37007874015751 0 0 -1 0 0 0 0 1 forward_v I I I I #
coedge $-1 $335 $333 $337 $453 reversed $225 $-1 #
edge $-1 $348 -4.9212598425200156 $455 4.9212598425200156 $347 $530 forward 7 unknown #
vertex $-1 $453 $531 #
straight-curve $-1 -39.37007874015751 -24.015748031496098 0 0 0 -1 I I #
edge $-1 $451 -24.015748031496098 $455 24.015748031496098 $449 $532 forward 7 unknown #
straight-curve $-1 0 -24.015748031496098 -4.9212598425200156 -1 0 0 I I #
vertex $-1 $340 $533 #
straight-curve $-1 0 24.015748031496098 -4.9212598425200156 1 0 0 I I #
point $-1 39.37007874015751 24.015748031496098 -4.9212598425200156 #
point $-1 39.37007874015751 -24.015748031496098 -4.9212598425200156 #
straight-curve $-1 -39.37007874015751 0 4.9212598425200156 0 -1 0 I I #
point $-1 -39.37007874015751 24.015748031496098 4.9212598425200156 #
point $-1 -39.37007874015751 -24.015748031496098 4.9212598425200156 #
straight-curve $-1 39.37007874015751 -24.015748031496098 0 0 0 -1 I I #
straight-curve $-1 39.37007874015751 24.015748031496098 0 0 0 -1 I I #
point $-1 4.3307086614173196 0 2.559055118110507 #
point $-1 4.3307086614173196 0 2.559055118110507 #
point $-1 2.7559055118110201 0 2.3622047244095086 #
point $-1 2.7559055118110201 0 2.3622047244095086 #
coedge $-1 $377 $470 $381 $477 forward $369 $-1 #
straight-curve $-1 -209.84251968503901 -2.5590551181102401 -361.811023622047 0 -0.70710678118654602 -0.70710678118655002 I I #
coedge $-1 $468 $377 $373 $471 forward $369 $-1 #
edge $-1 $379 0 $472 5.118110236221014 $373 $534 forward 7 unknown #
vertex $-1 $477 $535 #
straight-curve $-1 -131.10236220472399 -2.5590551181102401 -361.811023622047 -1 0 0 I I #
point $-1 -209.84251968503901 -2.5590551181102401 -361.811023622047 #
straight-curve $-1 -131.10236220472399 -7.6771653543307101 -366.92913385826802 0 1 0 I I #
point $-1 -131.10236220472399 -2.5590551181102401 -366.92913385826802 #
edge $-1 $472 0 $382 7.2381009097839355 $381 $536 forward 7 unknown #
point $-1 -131.10236220472399 -7.6771653543307101 -366.92913385826802 #
coedge $-1 $394 $481 $398 $488 forward $386 $-1 #
straight-curve $-1 -209.84251968503901 7.6771653543307101 -366.92913385826802 0 -0.70710678118654602 0.70710678118655002 I I #
coedge $-1 $479 $394 $390 $482 forward $386 $-1 #
edge $-1 $396 0 $483 5.1181102362204705 $390 $537 forward 7 unknown #
vertex $-1 $488 $538 #
straight-curve $-1 -131.10236220472399 7.6771653543307101 -366.92913385826802 -1 0 0 I I #
point $-1 -209.84251968503901 7.6771653543307101 -366.92913385826802 #
straight-curve $-1 -131.10236220472399 2.5590551181102401 -361.811023622047 0 0 -1 I I #
point $-1 -131.10236220472399 2.5590551181102401 -366.92913385826802 #
edge $-1 $483 0 $399 7.2381009097839355 $398 $539 forward 7 unknown #
point $-1 -131.10236220472399 2.5590551181102401 -361.811023622047 #
plane-surface $-1 0 -2.5590551181102401 0 0 1 0 0 0 1 forward_v I I I I #
coedge $-1 $502 $501 $409 $493 reversed $404 $-1 #
straight-curve $-1 -4.9925243712086486e-015 -2.5590551181102401 -86.458063169163353 1 0 -1.2246063538223773e-016 I I #
edge $-1 $494 40.768401663321697 $497 47.067614261746712 $491 $540 forward 7 unknown #
vertex $-1 $493 $541 #
straight-curve $-1 -39.37007874015751 0 -86.458063169163353 0 -1 0 I I #
convexity-sys-attrib $-1 $-1 $-1 $411 #
vertex $-1 $504 $542 #
straight-curve $-1 -39.37007874015751 0 -92.757275767588425 0 -1 0 I I #
point $-1 -39.37007874015751 -2.5590551181102401 -92.757275767588396 #
point $-1 -39.37007874015751 -2.5590551181102401 -86.458063169163381 #
coedge $-1 $491 $415 $418 $504 reversed $404 $-1 #
coedge $-1 $415 $491 $422 $506 reversed $404 $-1 #
straight-curve $-1 39.370078740157517 2.5590551181102401 -45.689661505841684 1.2246063538223773e-016 0 1 I I #
edge $543 $497 -39.37007874015751 $420 39.37007874015751 $501 $544 forward 7 unknown #
point $-1 39.37007874015751 2.5590551181102401 -92.757275767588396 #
edge $-1 $423 -39.370078740157517 $494 39.370078740157503 $502 $545 forward 7 unknown #
point $-1 39.37007874015751 2.5590551181102397 -86.458063169163381 #
convexity-sys-attrib $-1 $-1 $-1 $425 #
straight-curve $-1 0 -2.5590551181102401 -92.757275767588425 -1 0 0 I I #
model_id-kcp-attrib $-1 $-1 $-1 $429 1 987438390 156 -1717829631 9 #
face $546 $547 $548 $13 $-1 $549 forward single #
loop $-1 $-1 $550 $429 #
plane-surface $-1 -131.10236220472399 -2.5590551181102401 -361.220472440945 0 1 0 0 0 1 forward_v I I I I #
coedge $-1 $551 $552 $553 $554 forward $430 $-1 #
model_id-kcp-attrib $-1 $-1 $-1 $433 1 987438390 156 -1717829631 31 #
coedge $-1 $516 $516 $555 $556 forward $433 $-1 #
coedge $-1 $517 $517 $435 $518 reversed $557 $-1 #
edge $558 $559 0 $559 6.2831853071795862 $435 $560 forward 7 unknown #
loop $-1 $561 $436 $528 #
attrib_edge_convexity-kcp-attrib $-1 $562 $-1 $437 1 #
vertex $-1 $437 $563 #
ellipse-curve $-1 -170.47244094488201 15.748031496063 -366.92913385826802 0 0 -1 -4.3307086614173196 0 0 1 I I #
convexity-sys-attrib $-1 $-1 $438 $318 #
model_id-kcp-attrib $-1 $-1 $-1 $439 1 987438390 156 -1717829631 34 #
point $-1 -167.71653543307099 15.748031496063 -361.811023622047 #
coedge $-1 $553 $564 $565 $566 reversed $443 $-1 #
model_id-kcp-attrib $-1 $567 $-1 $444 1 987438390 156 -1717829631 20 #
face $568 $569 $519 $13 $-1 $570 forward single #
plane-surface $-1 -170.47244094488201 0 -366.92913385826802 0 0 -1 -1 0 0 forward_v I I I I #
straight-curve $-1 -39.37007874015751 24.015748031496098 0 0 0 -1 I I #
point $-1 -39.37007874015751 -24.015748031496098 -4.9212598425200156 #
straight-curve $-1 -39.37007874015751 0 -4.9212598425200156 0 1 0 I I #
point $-1 -39.37007874015751 24.015748031496098 -4.9212598425200156 #
straight-curve $-1 -131.10236220472399 -2.5590551181102401 -366.92913385826802 0 0 1 I I #
point $-1 -131.10236220472399 -2.5590551181102401 -361.811023622047 #
straight-curve $-1 -131.10236220472399 -2.5590551181102401 -361.811023622047 0 -0.70710678118654602 -0.70710678118655002 I I #
straight-curve $-1 -131.10236220472399 2.5590551181102401 -366.92913385826802 0 1 0 I I #
point $-1 -131.10236220472399 7.6771653543307101 -366.92913385826802 #
straight-curve $-1 -131.10236220472399 7.6771653543307101 -366.92913385826802 0 -0.70710678118654602 0.70710678118655002 I I #
straight-curve $-1 -39.370078740157503 2.5590551181102401 -45.689661505841684 -1.2246063538223773e-016 0 -1 I I #
point $-1 -39.37007874015751 2.5590551181102401 -86.458063169163381 #
point $-1 -39.37007874015751 2.5590551181102401 -92.757275767588396 #
convexity-sys-attrib $-1 $-1 $-1 $504 #
straight-curve $-1 0 2.5590551181102401 -92.757275767588425 1 0 0 I I #
straight-curve $-1 -4.9925243712086486e-015 2.5590551181102401 -86.458063169163353 -1 0 1.2246063538223773e-016 I I #
model_id-kcp-attrib $-1 $-1 $-1 $511 1 987438390 156 -1717829631 10 #
face $571 $572 $573 $13 $-1 $574 forward single #
loop $-1 $-1 $575 $511 #
plane-surface $-1 -131.10236220472399 0 -360.629921259843 0 0 -1 -1 0 0 forward_v I I I I #
coedge $-1 $576 $577 $578 $579 forward $512 $-1 #
coedge $-1 $578 $514 $580 $581 reversed $430 $-1 #
coedge $-1 $514 $578 $582 $583 forward $430 $-1 #
coedge $-1 $584 $526 $514 $554 reversed $443 $-1 #
edge $585 $586 0 $587 78.74015748031502 $514 $588 forward 7 unknown #
coedge $-1 $555 $555 $516 $556 reversed $589 $-1 #
edge $590 $591 0 $591 6.2831853071795862 $516 $592 forward 7 unknown #
loop $593 $589 $517 $594 #
attrib_edge_convexity-kcp-attrib $-1 $595 $-1 $518 1 #
vertex $596 $518 $597 #
ellipse-curve $-1 -170.47244094488201 -15.748031496063 -357.08661417322799 0 0 1 2.7559055118110201 0 0 1 I I #
loop $-1 $-1 $598 $528 #
convexity-sys-attrib $-1 $-1 $520 $437 #
point $-1 -174.803149606299 15.748031496063 -366.92913385826802 #
coedge $-1 $526 $584 $599 $600 reversed $443 $-1 #
coedge $-1 $601 $580 $526 $566 forward $602 $-1 #
edge $603 $587 7.6771653543307101 $604 24.015748031496098 $565 $605 forward 7 unknown #
model_id-kcp-attrib $-1 $-1 $527 $444 1 987438390 156 -1717829631 14 #
model_id-kcp-attrib $-1 $606 $-1 $528 1 987438390 156 -1717829631 21 #
face $607 $594 $608 $13 $-1 $609 forward single #
plane-surface $-1 -170.47244094488201 0 -366.92913385826802 0 0 -1 -1 0 0 forward_v I I I I #
model_id-kcp-attrib $-1 $-1 $-1 $547 1 987438390 156 -1717829631 11 #
face $610 $611 $612 $13 $-1 $613 forward single #
loop $-1 $-1 $614 $547 #
plane-surface $-1 -131.10236220472399 2.5590551181102401 -361.220472440945 0 -1 0 0 0 -1 forward_v I I I I #
coedge $-1 $615 $616 $617 $618 forward $548 $-1 #
coedge $-1 $617 $550 $619 $620 reversed $512 $-1 #
coedge $-1 $550 $617 $621 $622 forward $512 $-1 #
coedge $-1 $552 $551 $550 $579 reversed $430 $-1 #
edge $-1 $623 0 $624 78.74015748031502 $578 $625 forward 7 unknown #
coedge $-1 $565 $619 $551 $581 forward $602 $-1 #
edge $626 $624 0 $587 7.2381009097839355 $551 $627 forward 7 unknown #
coedge $-1 $621 $628 $552 $583 reversed $608 $-1 #
edge $-1 $623 0 $586 7.2381009097839355 $552 $629 forward 7 unknown #
coedge $-1 $564 $553 $628 $630 reversed $443 $-1 #
attrib_edge_convexity-kcp-attrib $-1 $631 $-1 $554 1 #
vertex $-1 $554 $632 #
vertex $-1 $554 $633 #
straight-curve $-1 -131.10236220472399 -7.6771653543307101 -366.92913385826802 -1 0 0 I I #
loop $634 $635 $555 $594 #
attrib_edge_convexity-kcp-attrib $-1 $636 $-1 $556 1 #
vertex $637 $556 $638 #
ellipse-curve $-1 -170.47244094488201 15.748031496063 -357.08661417322799 0 0 1 2.7559055118110201 0 0 1 I I #
model_id-kcp-attrib $-1 $-1 $-1 $557 1 987438390 156 -1717829631 26 #
face $639 $640 $557 $13 $-1 $641 forward single #
convexity-sys-attrib $-1 $-1 $558 $518 #
model_id-kcp-attrib $-1 $-1 $-1 $559 1 987438390 156 -1717829631 28 #
point $-1 -167.71653543307099 -15.748031496063 -357.08661417322799 #
coedge $-1 $642 $643 $644 $645 reversed $561 $-1 #
coedge $-1 $646 $647 $564 $600 forward $648 $-1 #
edge $649 $604 -39.370078740156998 $650 39.370078740158021 $564 $651 forward 7 unknown #
coedge $-1 $652 $565 $647 $653 forward $602 $-1 #
loop $-1 $-1 $619 $611 #
attrib_edge_convexity-kcp-attrib $-1 $654 $-1 $566 1 #
vertex $-1 $566 $655 #
straight-curve $-1 -209.84251968503901 0 -366.92913385826802 0 -1 0 I I #
model_id-kcp-attrib $-1 $-1 $568 $528 1 987438390 156 -1717829631 15 #
model_id-kcp-attrib $-1 $-1 $-1 $569 1 987438390 156 -1717829631 16 #
loop $-1 $-1 $628 $569 #
plane-surface $-1 -131.10236220472399 0 -366.92913385826802 1 0 0 0 0 -1 forward_v I I I I #
model_id-kcp-attrib $-1 $-1 $-1 $572 1 987438390 156 -1717829631 12 #
face $656 $444 $602 $13 $-1 $657 forward single #
loop $-1 $-1 $658 $572 #
plane-surface $-1 -131.10236220472399 5.1181102362204696 -364.37007874015802 0 -0.70710678118655002 -0.70710678118654502 -1 0 0 forward_v I I I I #
coedge $-1 $659 $660 $661 $662 forward $573 $-1 #
coedge $-1 $661 $575 $663 $664 reversed $548 $-1 #
coedge $-1 $575 $661 $665 $666 forward $548 $-1 #
coedge $-1 $577 $576 $575 $618 reversed $512 $-1 #
edge $-1 $667 0 $668 78.74015748031502 $617 $669 forward 7 unknown #
coedge $-1 $580 $663 $576 $620 forward $602 $-1 #
edge $670 $668 0 $624 1.1811023622040011 $576 $671 forward 7 unknown #
coedge $-1 $665 $582 $577 $622 reversed $608 $-1 #
edge $-1 $667 0 $623 1.1811023622040011 $577 $672 forward 7 unknown #
vertex $-1 $579 $673 #
vertex $-1 $581 $674 #
straight-curve $-1 -131.10236220472399 -2.5590551181102401 -361.811023622047 -1 0 0 I I #
attrib_edge_convexity-kcp-attrib $-1 $675 $-1 $581 1 #
straight-curve $-1 -209.84251968503901 -2.5590551181102401 -361.811023622047 0 -0.70710678118654602 -0.70710678118655002 I I #
coedge $-1 $582 $676 $584 $630 forward $608 $-1 #
straight-curve $-1 -131.10236220472399 -2.5590551181102401 -361.811023622047 0 -0.70710678118654602 -0.70710678118655002 I I #
edge $677 $650 -24.015748031496098 $586 -7.6771653543307101 $584 $678 forward 7 unknown #
convexity-sys-attrib $-1 $-1 $585 $554 #
point $-1 -131.10236220472399 -7.6771653543307101 -366.92913385826802 #
point $-1 -209.84251968503901 -7.6771653543307101 -366.92913385826802 #
model_id-kcp-attrib $-1 $-1 $-1 $589 1 987438390 156 -1717829631 33 #
loop $-1 $-1 $679 $594 #
convexity-sys-attrib $-1 $-1 $590 $556 #
model_id-kcp-attrib $-1 $-1 $-1 $591 1 987438390 156 -1717829631 35 #
point $-1 -167.71653543307099 15.748031496063 -357.08661417322799 #
model_id-kcp-attrib $-1 $680 $-1 $594 1 987438390 156 -1717829631 29 #
face $681 $682 $648 $13 $-1 $683 forward single #
plane-surface $-1 -170.47244094488201 0 -357.08661417322799 0 0 1 1 0 0 forward_v I I I I #
coedge $-1 $684 $598 $685 $686 forward $561 $-1 #
coedge $-1 $598 $684 $687 $688 reversed $561 $-1 #
coedge $-1 $689 $690 $598 $645 forward $608 $-1 #
edge $-1 $691 7.6771653543307101 $692 24.015748031496098 $598 $693 forward 7 unknown #
coedge $-1 $694 $599 $676 $695 forward $648 $-1 #
coedge $-1 $599 $694 $601 $653 reversed $648 $-1 #
loop $-1 $-1 $646 $640 #
attrib_edge_convexity-kcp-attrib $-1 $696 $-1 $600 1 #
vertex $-1 $630 $697 #
straight-curve $-1 -170.47244094488201 -24.015748031496098 -366.92913385826802 1 0 0 I I #
coedge $-1 $698 $601 $699 $700 forward $602 $-1 #
edge $701 $604 0 $702 9.8425196850400312 $601 $703 forward 7 unknown #
convexity-sys-attrib $-1 $-1 $603 $566 #
point $-1 -209.84251968503901 -24.015748031496098 -366.92913385826802 #
model_id-kcp-attrib $-1 $-1 $-1 $611 1 987438390 156 -1717829631 13 #
plane-surface $-1 -209.84251968503901 0 -366.92913385826802 -1 0 0 0 0 1 forward_v I I I I #
coedge $-1 $704 $685 $690 $705 forward $612 $-1 #
coedge $-1 $706 $614 $707 $708 reversed $573 $-1 #
coedge $-1 $614 $706 $709 $710 forward $573 $-1 #
coedge $-1 $616 $615 $614 $662 reversed $548 $-1 #
edge $-1 $711 0 $712 78.74015748031502 $661 $713 forward 7 unknown #
coedge $-1 $619 $707 $615 $664 forward $602 $-1 #
edge $714 $712 0 $668 5.1181102362204802 $615 $715 forward 7 unknown #
coedge $-1 $709 $621 $616 $666 reversed $608 $-1 #
edge $-1 $711 0 $667 5.1181102362204802 $616 $716 forward 7 unknown #
vertex $-1 $618 $717 #
vertex $-1 $620 $718 #
straight-curve $-1 -131.10236220472399 -2.5590551181102401 -360.629921259843 -1 0 0 I I #
attrib_edge_convexity-kcp-attrib $-1 $719 $-1 $620 1 #
straight-curve $-1 -209.84251968503901 -2.5590551181102401 -360.629921259843 0 0 -1 I I #
straight-curve $-1 -131.10236220472399 -2.5590551181102401 -360.629921259843 0 0 -1 I I #
point $-1 -131.10236220472399 -2.5590551181102401 -361.811023622047 #
point $-1 -209.84251968503901 -2.5590551181102401 -361.811023622047 #
convexity-sys-attrib $-1 $-1 $626 $581 #
coedge $-1 $628 $720 $646 $695 reversed $608 $-1 #
attrib_edge_convexity-kcp-attrib $-1 $721 $-1 $630 1 #
straight-curve $-1 -131.10236220472399 0 -366.92913385826802 0 1 0 I I #
coedge $-1 $722 $699 $694 $723 reversed $635 $-1 #
model_id-kcp-attrib $-1 $724 $639 $594 1 987438390 156 -1717829631 22 #
model_id-kcp-attrib $-1 $-1 $-1 $640 1 987438390 156 -1717829631 18 #
face $725 $-1 $726 $13 $-1 $727 forward single #
plane-surface $-1 -170.47244094488201 -24.015748031496098 -366.92913385826802 0 -1 0 0 0 -1 forward_v I I I I #
coedge $-1 $643 $642 $728 $729 reversed $561 $-1 #
coedge $-1 $658 $730 $642 $686 reversed $612 $-1 #
edge $-1 $691 -39.370078740158021 $731 39.370078740156998 $685 $732 forward 7 unknown #
coedge $-1 $733 $734 $643 $688 forward $726 $-1 #
edge $-1 $692 -39.370078740158021 $735 39.370078740156998 $643 $736 forward 7 unknown #
coedge $-1 $720 $644 $734 $737 forward $608 $-1 #
coedge $-1 $644 $709 $658 $705 reversed $608 $-1 #
vertex $-1 $705 $738 #
vertex $-1 $645 $739 #
straight-curve $-1 -131.10236220472399 0 -366.92913385826802 0 1 0 I I #
coedge $-1 $647 $646 $679 $723 forward $648 $-1 #
edge $740 $650 0 $741 9.8425196850400312 $676 $742 forward 7 unknown #
convexity-sys-attrib $-1 $-1 $649 $600 #
point $-1 -131.10236220472399 -24.015748031496098 -366.92913385826802 #
coedge $-1 $728 $652 $733 $743 reversed $602 $-1 #
coedge $-1 $679 $744 $652 $700 reversed $635 $-1 #
edge $745 $702 -24.015748031496098 $746 24.015748031496098 $652 $747 forward 7 unknown #
attrib_edge_convexity-kcp-attrib $-1 $748 $-1 $653 1 #
vertex $-1 $653 $749 #
straight-curve $-1 -209.84251968503901 -24.015748031496098 -366.92913385826802 0 0 1 I I #
coedge $-1 $730 $658 $706 $750 forward $612 $-1 #
edge $-1 $691 0 $751 7.2381009097839355 $658 $752 forward 7 unknown #
coedge $-1 $660 $659 $704 $750 reversed $573 $-1 #
coedge $-1 $663 $753 $659 $708 forward $602 $-1 #
edge $754 $755 0 $712 1.1811023622040011 $659 $756 forward 7 unknown #
coedge $-1 $690 $665 $660 $710 reversed $608 $-1 #
edge $-1 $751 0 $711 1.1811023622040011 $660 $757 forward 7 unknown #
vertex $-1 $662 $758 #
vertex $-1 $664 $759 #
straight-curve $-1 -131.10236220472399 2.5590551181102401 -360.629921259843 -1 0 0 I I #
attrib_edge_convexity-kcp-attrib $-1 $760 $-1 $664 1 #
straight-curve $-1 -209.84251968503901 2.5590551181102401 -360.629921259843 0 -1 0 I I #
straight-curve $-1 -131.10236220472399 2.5590551181102401 -360.629921259843 0 -1 0 I I #
point $-1 -131.10236220472399 -2.5590551181102401 -360.629921259843 #
point $-1 -209.84251968503901 -2.5590551181102401 -360.629921259843 #
convexity-sys-attrib $-1 $-1 $670 $620 #
coedge $-1 $676 $689 $722 $761 forward $608 $-1 #
convexity-sys-attrib $-1 $-1 $677 $630 #
coedge $-1 $744 $679 $720 $761 reversed $635 $-1 #
edge $762 $741 -39.370078740158021 $702 39.370078740156998 $679 $763 forward 7 unknown #
model_id-kcp-attrib $-1 $-1 $680 $594 1 987438390 156 -1717829631 17 #
model_id-kcp-attrib $-1 $-1 $-1 $682 1 987438390 156 -1717829631 19 #
loop $-1 $-1 $733 $682 #
plane-surface $-1 -170.47244094488201 24.015748031496098 -366.92913385826802 0 1 0 0 0 1 forward_v I I I I #
coedge $-1 $753 $698 $684 $729 forward $602 $-1 #
edge $764 $735 -24.015748031496098 $731 -7.6771653543307101 $728 $765 forward 7 unknown #
coedge $-1 $685 $704 $753 $766 reversed $612 $-1 #
vertex $-1 $766 $767 #
straight-curve $-1 -170.47244094488201 7.6771653543307101 -366.92913385826802 -1 0 0 I I #
coedge $-1 $768 $687 $698 $743 forward $726 $-1 #
coedge $-1 $687 $768 $689 $737 reversed $726 $-1 #
vertex $-1 $743 $769 #
straight-curve $-1 -170.47244094488201 24.015748031496098 -366.92913385826802 -1 0 0 I I #
edge $-1 $692 0 $770 9.8425196850400312 $689 $771 forward 7 unknown #
point $-1 -131.10236220472399 7.6771653543307101 -366.92913385826802 #
point $-1 -131.10236220472399 24.015748031496098 -366.92913385826802 #
attrib_edge_convexity-kcp-attrib $-1 $772 $-1 $695 1 #
vertex $-1 $761 $773 #
straight-curve $-1 -131.10236220472399 -24.015748031496098 -366.92913385826802 0 0 1 I I #
edge $774 $735 0 $746 9.8425196850400312 $698 $775 forward 7 unknown #
coedge $-1 $699 $722 $768 $776 reversed $635 $-1 #
attrib_edge_convexity-kcp-attrib $-1 $777 $-1 $700 1 #
vertex $-1 $700 $778 #
straight-curve $-1 -209.84251968503901 0 -357.08661417322799 0 1 0 I I #
convexity-sys-attrib $-1 $-1 $701 $653 #
point $-1 -209.84251968503901 -24.015748031496098 -357.08661417322799 #
edge $-1 $751 0 $755 78.74015748031502 $706 $779 forward 7 unknown #
vertex $-1 $750 $780 #
straight-curve $-1 -131.10236220472399 7.6771653543307101 -366.92913385826802 0 -0.70710678118654602 0.70710678118655002 I I #
coedge $-1 $707 $728 $730 $766 forward $602 $-1 #
attrib_edge_convexity-kcp-attrib $-1 $781 $-1 $708 1 #
vertex $-1 $708 $782 #
straight-curve $-1 -209.84251968503901 2.5590551181102401 -361.811023622047 0 0 1 I I #
straight-curve $-1 -131.10236220472399 2.5590551181102401 -361.811023622047 0 0 1 I I #
point $-1 -131.10236220472399 2.5590551181102401 -360.629921259843 #
point $-1 -209.84251968503901 2.5590551181102401 -360.629921259843 #
convexity-sys-attrib $-1 $-1 $714 $664 #
edge $-1 $770 -24.015748031496098 $741 24.015748031496098 $720 $783 forward 7 unknown #
attrib_edge_convexity-kcp-attrib $-1 $784 $-1 $723 1 #
straight-curve $-1 -170.47244094488201 -24.015748031496098 -357.08661417322799 -1 0 0 I I #
attrib_edge_convexity-kcp-attrib $-1 $785 $-1 $729 1 #
straight-curve $-1 -209.84251968503901 0 -366.92913385826802 0 -1 0 I I #
edge $786 $731 0 $755 7.2381009097839355 $730 $787 forward 7 unknown #
point $-1 -209.84251968503901 7.6771653543307101 -366.92913385826802 #
coedge $-1 $734 $733 $744 $776 forward $726 $-1 #
point $-1 -209.84251968503901 24.015748031496098 -366.92913385826802 #
vertex $-1 $737 $788 #
straight-curve $-1 -131.10236220472399 24.015748031496098 -366.92913385826802 0 0 1 I I #
convexity-sys-attrib $-1 $-1 $740 $695 #
point $-1 -131.10236220472399 -24.015748031496098 -357.08661417322799 #
attrib_edge_convexity-kcp-attrib $-1 $789 $-1 $743 1 #
straight-curve $-1 -209.84251968503901 24.015748031496098 -366.92913385826802 0 0 1 I I #
edge $-1 $746 -39.370078740156998 $770 39.370078740158021 $744 $790 forward 7 unknown #
convexity-sys-attrib $-1 $-1 $745 $700 #
point $-1 -209.84251968503901 24.015748031496098 -357.08661417322799 #
straight-curve $-1 -131.10236220472399 2.5590551181102401 -361.811023622047 -1 0 0 I I #
point $-1 -131.10236220472399 2.5590551181102401 -361.811023622047 #
convexity-sys-attrib $-1 $-1 $754 $708 #
point $-1 -209.84251968503901 2.5590551181102401 -361.811023622047 #
straight-curve $-1 -131.10236220472399 0 -357.08661417322799 0 -1 0 I I #
convexity-sys-attrib $-1 $-1 $762 $723 #
convexity-sys-attrib $-1 $-1 $764 $729 #
attrib_edge_convexity-kcp-attrib $-1 $791 $-1 $766 1 #
straight-curve $-1 -209.84251968503901 7.6771653543307101 -366.92913385826802 0 -0.70710678118654602 0.70710678118655002 I I #
point $-1 -131.10236220472399 24.015748031496098 -357.08661417322799 #
convexity-sys-attrib $-1 $-1 $774 $743 #
straight-curve $-1 -170.47244094488201 24.015748031496098 -357.08661417322799 1 0 0 I I #
convexity-sys-attrib $-1 $-1 $786 $766 #
End-of-ACIS-data 