105 275 1 0                             
body $-1 $1 $-1 $-1 #
lump $-1 $-1 $2 $0 #
shell $-1 $-1 $-1 $3 $1 #
face $-1 $4 $5 $2 $-1 $6 reversed single #
face $-1 $7 $8 $2 $-1 $9 reversed single #
loop $-1 $10 $11 $3 #
plane-surface $-1 -170.472440944882 -15.748031496063 -361.811023622047 0 0 1 1 0 0 0 #
face $-1 $12 $13 $2 $-1 $14 reversed single #
loop $-1 $15 $16 $4 #
cone-surface $-1 -170.472440944882 -15.748031496063 -366.929133858268 0 0 1 4.33070866141732 0 0 1 0 1 0 #
loop $-1 $-1 $17 $3 #
coedge $-1 $11 $11 $16 $18 0 $5 $-1 #
face $-1 $19 $20 $2 $-1 $21 reversed single #
loop $-1 $22 $23 $7 #
plane-surface $-1 -170.472440944882 15.748031496063 -361.811023622047 0 0 1 1 0 0 0 #
loop $-1 $-1 $24 $4 #
coedge $-1 $16 $16 $11 $18 1 $8 $-1 #
coedge $-1 $17 $17 $25 $26 1 $10 $-1 #
edge $-1 $27 $27 $11 $28 0 #
face $-1 $29 $30 $2 $-1 $31 reversed single #
loop $-1 $32 $33 $12 #
cone-surface $-1 -170.472440944882 15.748031496063 -366.929133858268 0 0 1 4.33070866141732 0 0 1 0 1 0 #
loop $-1 $-1 $34 $7 #
coedge $-1 $23 $23 $33 $35 0 $13 $-1 #
coedge $-1 $24 $24 $36 $37 0 $15 $-1 #
coedge $-1 $25 $25 $17 $26 0 $30 $-1 #
edge $-1 $38 $38 $17 $39 0 #
vertex $-1 $18 $40 #
ellipse-curve $-1 -170.472440944882 -15.748031496063 -361.811023622047 0 0 -1 -4.33070866141732 0 0 1 #
face $-1 $41 $42 $2 $-1 $43 reversed single #
loop $-1 $44 $25 $19 #
cone-surface $-1 -170.472440944882 -15.748031496063 -366.929133858268 0 0 1 2.75590551181102 0 0 1 0 1 0 #
loop $-1 $-1 $45 $12 #
coedge $-1 $33 $33 $23 $35 1 $20 $-1 #
coedge $-1 $34 $34 $46 $47 1 $22 $-1 #
edge $-1 $48 $48 $23 $49 0 #
coedge $-1 $36 $36 $24 $37 1 $50 $-1 #
edge $-1 $51 $51 $24 $52 0 #
vertex $-1 $26 $53 #
ellipse-curve $-1 -170.472440944882 -15.748031496063 -361.811023622047 0 0 -1 2.75590551181102 0 0 1 #
point $-1 -174.803149606299 -15.748031496063 -361.811023622047 #
face $-1 $54 $55 $2 $-1 $56 forward single #
loop $-1 $57 $46 $29 #
cone-surface $-1 -170.472440944882 15.748031496063 -366.929133858268 0 0 1 2.75590551181102 0 0 1 0 1 0 #
loop $-1 $-1 $58 $19 #
coedge $-1 $45 $45 $59 $60 0 $32 $-1 #
coedge $-1 $46 $46 $34 $47 0 $42 $-1 #
edge $-1 $61 $61 $34 $62 0 #
vertex $-1 $35 $63 #
ellipse-curve $-1 -170.472440944882 15.748031496063 -361.811023622047 0 0 -1 -4.33070866141732 0 0 1 #
loop $-1 $64 $36 $65 #
vertex $-1 $37 $66 #
ellipse-curve $-1 -170.472440944882 -15.748031496063 -366.929133858268 0 0 -1 -4.33070866141732 0 0 1 #
point $-1 -167.716535433071 -15.748031496063 -361.811023622047 #
face $-1 $67 $68 $2 $-1 $69 forward single #
loop $-1 $-1 $70 $41 #
plane-surface $-1 -131.102362204724 -5.11811023622047 -364.370078740158 0 0.70710678118655 -0.707106781186545 -1 0 0 0 #
loop $-1 $-1 $71 $29 #
coedge $-1 $58 $58 $72 $73 0 $44 $-1 #
coedge $-1 $59 $59 $45 $60 1 $74 $-1 #
edge $-1 $75 $75 $45 $76 0 #
vertex $-1 $47 $77 #
ellipse-curve $-1 -170.472440944882 15.748031496063 -361.811023622047 0 0 -1 2.75590551181102 0 0 1 #
point $-1 -174.803149606299 15.748031496063 -361.811023622047 #
loop $-1 $-1 $78 $65 #
face $-1 $79 $50 $2 $-1 $80 forward single #
point $-1 -174.803149606299 -15.748031496063 -366.929133858268 #
face $-1 $81 $82 $2 $-1 $83 forward single #
loop $-1 $-1 $84 $54 #
plane-surface $-1 -131.102362204724 -2.55905511811024 -361.220472440945 0 1 0 0 0 1 0 #
coedge $-1 $85 $86 $87 $88 0 $55 $-1 #
coedge $-1 $71 $71 $89 $90 0 $57 $-1 #
coedge $-1 $72 $72 $58 $73 1 $91 $-1 #
edge $-1 $92 $92 $58 $93 0 #
loop $-1 $94 $59 $79 #
vertex $-1 $60 $95 #
ellipse-curve $-1 -170.472440944882 15.748031496063 -366.929133858268 0 0 -1 -4.33070866141732 0 0 1 #
point $-1 -167.716535433071 15.748031496063 -361.811023622047 #
coedge $-1 $87 $96 $97 $98 1 $64 $-1 #
face $-1 $99 $74 $2 $-1 $100 forward single #
plane-surface $-1 -170.472440944882 0 -366.929133858268 0 0 -1 -1 0 0 0 #
face $-1 $101 $102 $2 $-1 $103 forward single #
loop $-1 $-1 $104 $67 #
plane-surface $-1 -131.102362204724 0 -360.629921259843 0 0 -1 -1 0 0 0 #
coedge $-1 $105 $106 $107 $108 0 $68 $-1 #
coedge $-1 $107 $70 $109 $110 1 $55 $-1 #
coedge $-1 $70 $107 $111 $112 0 $55 $-1 #
coedge $-1 $113 $78 $70 $88 1 $64 $-1 #
edge $-1 $114 $115 $70 $116 0 #
coedge $-1 $89 $89 $71 $90 1 $117 $-1 #
edge $-1 $118 $118 $71 $119 0 #
loop $-1 $117 $72 $120 #
vertex $-1 $73 $121 #
ellipse-curve $-1 -170.472440944882 -15.748031496063 -357.086614173228 0 0 1 2.75590551181102 0 0 1 #
loop $-1 $-1 $122 $79 #
point $-1 -174.803149606299 15.748031496063 -366.929133858268 #
coedge $-1 $78 $113 $123 $124 1 $64 $-1 #
coedge $-1 $125 $109 $78 $98 0 $126 $-1 #
edge $-1 $115 $127 $97 $128 0 #
face $-1 $120 $129 $2 $-1 $130 forward single #
plane-surface $-1 -170.472440944882 0 -366.929133858268 0 0 -1 -1 0 0 0 #
face $-1 $131 $132 $2 $-1 $133 forward single #
loop $-1 $-1 $134 $81 #
plane-surface $-1 -131.102362204724 2.55905511811024 -361.220472440945 0 -1 0 0 0 -1 0 #
coedge $-1 $135 $136 $137 $138 0 $82 $-1 #
coedge $-1 $137 $84 $139 $140 1 $68 $-1 #
coedge $-1 $84 $137 $141 $142 0 $68 $-1 #
coedge $-1 $86 $85 $84 $108 1 $55 $-1 #
edge $-1 $143 $144 $107 $145 0 #
coedge $-1 $97 $139 $85 $110 0 $126 $-1 #
edge $-1 $144 $115 $85 $146 0 #
coedge $-1 $141 $147 $86 $112 1 $129 $-1 #
edge $-1 $143 $114 $86 $148 0 #
coedge $-1 $96 $87 $147 $149 1 $64 $-1 #
vertex $-1 $88 $150 #
vertex $-1 $88 $151 #
straight-curve $-1 -131.102362204724 -7.67716535433071 -366.929133858268 -1 0 0 #
loop $-1 $152 $89 $120 #
vertex $-1 $90 $153 #
ellipse-curve $-1 -170.472440944882 15.748031496063 -357.086614173228 0 0 1 2.75590551181102 0 0 1 #
face $-1 $154 $91 $2 $-1 $155 forward single #
point $-1 -167.716535433071 -15.748031496063 -357.086614173228 #
coedge $-1 $156 $157 $158 $159 1 $94 $-1 #
coedge $-1 $160 $161 $96 $124 0 $162 $-1 #
edge $-1 $127 $163 $96 $164 0 #
coedge $-1 $165 $97 $161 $166 0 $126 $-1 #
loop $-1 $-1 $139 $131 #
vertex $-1 $98 $167 #
straight-curve $-1 -209.842519685039 0 -366.929133858268 0 -1 0 #
loop $-1 $-1 $147 $99 #
plane-surface $-1 -131.102362204724 0 -366.929133858268 1 0 0 0 0 -1 0 #
face $-1 $65 $126 $2 $-1 $168 forward single #
loop $-1 $-1 $169 $101 #
plane-surface $-1 -131.102362204724 5.11811023622047 -364.370078740158 0 -0.70710678118655 -0.707106781186545 -1 0 -0 0 #
coedge $-1 $170 $171 $172 $173 0 $102 $-1 #
coedge $-1 $172 $104 $174 $175 1 $82 $-1 #
coedge $-1 $104 $172 $176 $177 0 $82 $-1 #
coedge $-1 $106 $105 $104 $138 1 $68 $-1 #
edge $-1 $178 $179 $137 $180 0 #
coedge $-1 $109 $174 $105 $140 0 $126 $-1 #
edge $-1 $179 $144 $105 $181 0 #
coedge $-1 $176 $111 $106 $142 1 $129 $-1 #
edge $-1 $178 $143 $106 $182 0 #
vertex $-1 $108 $183 #
vertex $-1 $110 $184 #
straight-curve $-1 -131.102362204724 -2.55905511811024 -361.811023622047 -1 0 0 #
straight-curve $-1 -209.842519685039 -2.55905511811024 -361.811023622047 0 -0.707106781186546 -0.70710678118655 #
coedge $-1 $111 $185 $113 $149 0 $129 $-1 #
straight-curve $-1 -131.102362204724 -2.55905511811024 -361.811023622047 0 -0.707106781186546 -0.70710678118655 #
edge $-1 $163 $114 $113 $186 0 #
point $-1 -131.102362204724 -7.67716535433071 -366.929133858268 #
point $-1 -209.842519685039 -7.67716535433071 -366.929133858268 #
loop $-1 $-1 $187 $120 #
point $-1 -167.716535433071 15.748031496063 -357.086614173228 #
face $-1 $188 $162 $2 $-1 $189 forward single #
plane-surface $-1 -170.472440944882 0 -357.086614173228 0 0 1 1 0 0 0 #
coedge $-1 $190 $122 $191 $192 0 $94 $-1 #
coedge $-1 $122 $190 $193 $194 1 $94 $-1 #
coedge $-1 $195 $196 $122 $159 0 $129 $-1 #
edge $-1 $197 $198 $122 $199 0 #
coedge $-1 $200 $123 $185 $201 0 $162 $-1 #
coedge $-1 $123 $200 $125 $166 1 $162 $-1 #
loop $-1 $-1 $160 $154 #
vertex $-1 $149 $202 #
straight-curve $-1 -170.472440944882 -24.0157480314961 -366.929133858268 1 0 0 #
coedge $-1 $203 $125 $204 $205 0 $126 $-1 #
edge $-1 $127 $206 $125 $207 0 #
point $-1 -209.842519685039 -24.0157480314961 -366.929133858268 #
plane-surface $-1 -209.842519685039 0 -366.929133858268 -1 0 0 0 -0 1 0 #
coedge $-1 $208 $191 $196 $209 0 $132 $-1 #
coedge $-1 $210 $134 $211 $212 1 $102 $-1 #
coedge $-1 $134 $210 $213 $214 0 $102 $-1 #
coedge $-1 $136 $135 $134 $173 1 $82 $-1 #
edge $-1 $215 $216 $172 $217 0 #
coedge $-1 $139 $211 $135 $175 0 $126 $-1 #
edge $-1 $216 $179 $135 $218 0 #
coedge $-1 $213 $141 $136 $177 1 $129 $-1 #
edge $-1 $215 $178 $136 $219 0 #
vertex $-1 $138 $220 #
vertex $-1 $140 $221 #
straight-curve $-1 -131.102362204724 -2.55905511811024 -360.629921259843 -1 0 0 #
straight-curve $-1 -209.842519685039 -2.55905511811024 -360.629921259843 0 0 -1 #
straight-curve $-1 -131.102362204724 -2.55905511811024 -360.629921259843 0 0 -1 #
point $-1 -131.102362204724 -2.55905511811024 -361.811023622047 #
point $-1 -209.842519685039 -2.55905511811024 -361.811023622047 #
coedge $-1 $147 $222 $160 $201 1 $129 $-1 #
straight-curve $-1 -131.102362204724 0 -366.929133858268 0 1 0 #
coedge $-1 $223 $204 $200 $224 1 $152 $-1 #
face $-1 $-1 $225 $2 $-1 $226 forward single #
plane-surface $-1 -170.472440944882 -24.0157480314961 -366.929133858268 0 -1 0 0 0 -1 0 #
coedge $-1 $157 $156 $227 $228 1 $94 $-1 #
coedge $-1 $169 $229 $156 $192 1 $132 $-1 #
edge $-1 $197 $230 $191 $231 0 #
coedge $-1 $232 $233 $157 $194 0 $225 $-1 #
edge $-1 $198 $234 $157 $235 0 #
coedge $-1 $222 $158 $233 $236 0 $129 $-1 #
coedge $-1 $158 $213 $169 $209 1 $129 $-1 #
vertex $-1 $209 $237 #
vertex $-1 $159 $238 #
straight-curve $-1 -131.102362204724 0 -366.929133858268 0 1 0 #
coedge $-1 $161 $160 $187 $224 0 $162 $-1 #
edge $-1 $163 $239 $185 $240 0 #
point $-1 -131.102362204724 -24.0157480314961 -366.929133858268 #
coedge $-1 $227 $165 $232 $241 1 $126 $-1 #
coedge $-1 $187 $242 $165 $205 1 $152 $-1 #
edge $-1 $206 $243 $165 $244 0 #
vertex $-1 $166 $245 #
straight-curve $-1 -209.842519685039 -24.0157480314961 -366.929133858268 0 0 1 #
coedge $-1 $229 $169 $210 $246 0 $132 $-1 #
edge $-1 $197 $247 $169 $248 0 #
coedge $-1 $171 $170 $208 $246 1 $102 $-1 #
coedge $-1 $174 $249 $170 $212 0 $126 $-1 #
edge $-1 $250 $216 $170 $251 0 #
coedge $-1 $196 $176 $171 $214 1 $129 $-1 #
edge $-1 $247 $215 $171 $252 0 #
vertex $-1 $173 $253 #
vertex $-1 $175 $254 #
straight-curve $-1 -131.102362204724 2.55905511811024 -360.629921259843 -1 0 0 #
straight-curve $-1 -209.842519685039 2.55905511811024 -360.629921259843 0 -1 0 #
straight-curve $-1 -131.102362204724 2.55905511811024 -360.629921259843 0 -1 0 #
point $-1 -131.102362204724 -2.55905511811024 -360.629921259843 #
point $-1 -209.842519685039 -2.55905511811024 -360.629921259843 #
coedge $-1 $185 $195 $223 $255 0 $129 $-1 #
coedge $-1 $242 $187 $222 $255 1 $152 $-1 #
edge $-1 $239 $206 $187 $256 0 #
loop $-1 $-1 $232 $188 #
plane-surface $-1 -170.472440944882 24.0157480314961 -366.929133858268 0 1 0 0 0 1 0 #
coedge $-1 $249 $203 $190 $228 0 $126 $-1 #
edge $-1 $234 $230 $227 $257 0 #
coedge $-1 $191 $208 $249 $258 1 $132 $-1 #
vertex $-1 $258 $259 #
straight-curve $-1 -170.472440944882 7.67716535433071 -366.929133858268 -1 0 0 #
coedge $-1 $260 $193 $203 $241 0 $225 $-1 #
coedge $-1 $193 $260 $195 $236 1 $225 $-1 #
vertex $-1 $241 $261 #
straight-curve $-1 -170.472440944882 24.0157480314961 -366.929133858268 -1 0 0 #
edge $-1 $198 $262 $195 $263 0 #
point $-1 -131.102362204724 7.67716535433071 -366.929133858268 #
point $-1 -131.102362204724 24.0157480314961 -366.929133858268 #
vertex $-1 $255 $264 #
straight-curve $-1 -131.102362204724 -24.0157480314961 -366.929133858268 0 0 1 #
edge $-1 $234 $243 $203 $265 0 #
coedge $-1 $204 $223 $260 $266 1 $152 $-1 #
vertex $-1 $205 $267 #
straight-curve $-1 -209.842519685039 0 -357.086614173228 0 1 0 #
point $-1 -209.842519685039 -24.0157480314961 -357.086614173228 #
edge $-1 $247 $250 $210 $268 0 #
vertex $-1 $246 $269 #
straight-curve $-1 -131.102362204724 7.67716535433071 -366.929133858268 0 -0.707106781186546 0.70710678118655 #
coedge $-1 $211 $227 $229 $258 0 $126 $-1 #
vertex $-1 $212 $270 #
straight-curve $-1 -209.842519685039 2.55905511811024 -361.811023622047 0 0 1 #
straight-curve $-1 -131.102362204724 2.55905511811024 -361.811023622047 0 0 1 #
point $-1 -131.102362204724 2.55905511811024 -360.629921259843 #
point $-1 -209.842519685039 2.55905511811024 -360.629921259843 #
edge $-1 $262 $239 $222 $271 0 #
straight-curve $-1 -170.472440944882 -24.0157480314961 -357.086614173228 -1 0 0 #
straight-curve $-1 -209.842519685039 0 -366.929133858268 0 -1 0 #
edge $-1 $230 $250 $229 $272 0 #
point $-1 -209.842519685039 7.67716535433071 -366.929133858268 #
coedge $-1 $233 $232 $242 $266 0 $225 $-1 #
point $-1 -209.842519685039 24.0157480314961 -366.929133858268 #
vertex $-1 $236 $273 #
straight-curve $-1 -131.102362204724 24.0157480314961 -366.929133858268 0 0 1 #
point $-1 -131.102362204724 -24.0157480314961 -357.086614173228 #
straight-curve $-1 -209.842519685039 24.0157480314961 -366.929133858268 0 0 1 #
edge $-1 $243 $262 $242 $274 0 #
point $-1 -209.842519685039 24.0157480314961 -357.086614173228 #
straight-curve $-1 -131.102362204724 2.55905511811024 -361.811023622047 -1 0 0 #
point $-1 -131.102362204724 2.55905511811024 -361.811023622047 #
point $-1 -209.842519685039 2.55905511811024 -361.811023622047 #
straight-curve $-1 -131.102362204724 0 -357.086614173228 0 -1 0 #
straight-curve $-1 -209.842519685039 7.67716535433071 -366.929133858268 0 -0.707106781186546 0.70710678118655 #
point $-1 -131.102362204724 24.0157480314961 -357.086614173228 #
straight-curve $-1 -170.472440944882 24.0157480314961 -357.086614173228 1 0 0 #
