600 0 1 0           
114 GICL ACIS STEP Translator - Source: f:/data5/repository/Parasolid/NIST/Pete_Brown/ss1_insert/ss1_insert.step - 6 0 13 ACIS 6.0.3 NT 24 Mon Apr 08 10:54:54 2002 
1 9.9999999999999995e-007 1e-010 
body $-1 $1 $-1 $-1 #
lump $-1 $-1 $2 $0 #
shell $-1 $-1 $-1 $3 $-1 $1 #
face $-1 $4 $5 $2 $-1 $6 reversed single #
face $-1 $7 $8 $2 $-1 $9 reversed single #
loop $-1 $10 $11 $3 #
plane-surface $-1 -4330.0000000000027 -400.00000000000017 -9189.9999999999927 0 0 1 25.399999999999999 0 0 forward_v I I I I #
face $-1 $12 $13 $2 $-1 $14 reversed single #
loop $-1 $15 $16 $4 #
cone-surface $-1 -4330.0000000000027 -400.00000000000017 -9320.0000000000073 0 0 1 109.99999999999991 0 0 1 I I 0 1 109.99999999999991 forward I I I I #
loop $-1 $-1 $17 $3 #
coedge $-1 $11 $11 $16 $18 forward $5 $-1 #
face $-1 $19 $20 $2 $-1 $21 reversed single #
loop $-1 $22 $23 $7 #
plane-surface $-1 -4330.0000000000027 400.00000000000017 -9189.9999999999927 0 0 1 25.399999999999999 0 0 forward_v I I I I #
loop $-1 $-1 $24 $4 #
coedge $-1 $16 $16 $11 $18 reversed $8 $-1 #
coedge $-1 $17 $17 $25 $26 reversed $10 $-1 #
edge $-1 $27 0 $27 6.2831853071795862 $11 $28 forward 7 unknown #
face $-1 $29 $30 $2 $-1 $31 reversed single #
loop $-1 $32 $33 $12 #
cone-surface $-1 -4330.0000000000027 400.00000000000017 -9320.0000000000073 0 0 1 109.99999999999991 0 0 1 I I 0 1 109.99999999999991 forward I I I I #
loop $-1 $-1 $34 $7 #
coedge $-1 $23 $23 $33 $35 forward $13 $-1 #
coedge $-1 $24 $24 $36 $37 forward $15 $-1 #
coedge $-1 $25 $25 $17 $26 forward $30 $-1 #
edge $-1 $38 0 $38 6.2831853071795862 $17 $39 forward 7 unknown #
vertex $-1 $18 $40 #
ellipse-curve $-1 -4330.0000000000027 -400.00000000000017 -9189.9999999999927 0 0 -1 -109.99999999999991 0 0 1 I I #
face $-1 $41 $42 $2 $-1 $43 reversed single #
loop $-1 $44 $25 $19 #
cone-surface $-1 -4330.0000000000027 -400.00000000000017 -9320.0000000000073 0 0 1 69.999999999999901 0 0 1 I I 0 1 69.999999999999901 forward I I I I #
loop $-1 $-1 $45 $12 #
coedge $-1 $33 $33 $23 $35 reversed $20 $-1 #
coedge $-1 $34 $34 $46 $47 reversed $22 $-1 #
edge $-1 $48 0 $48 6.2831853071795862 $23 $49 forward 7 unknown #
coedge $-1 $36 $36 $24 $37 reversed $50 $-1 #
edge $-1 $51 0 $51 6.2831853071795862 $24 $52 forward 7 unknown #
vertex $-1 $26 $53 #
ellipse-curve $-1 -4330.0000000000027 -400.00000000000017 -9189.9999999999927 0 0 -1 69.999999999999901 0 0 1 I I #
point $-1 -4439.9999999999945 -400.00000000000017 -9189.9999999999927 #
face $-1 $54 $55 $2 $-1 $56 forward single #
loop $-1 $57 $46 $29 #
cone-surface $-1 -4330.0000000000027 400.00000000000017 -9320.0000000000073 0 0 1 69.999999999999901 0 0 1 I I 0 1 69.999999999999901 forward I I I I #
loop $-1 $-1 $58 $19 #
coedge $-1 $45 $45 $59 $60 forward $32 $-1 #
coedge $-1 $46 $46 $34 $47 forward $42 $-1 #
edge $-1 $61 0 $61 6.2831853071795862 $34 $62 forward 7 unknown #
vertex $-1 $35 $63 #
ellipse-curve $-1 -4330.0000000000027 400.00000000000017 -9189.9999999999927 0 0 -1 -109.99999999999991 0 0 1 I I #
loop $-1 $64 $36 $65 #
vertex $-1 $37 $66 #
ellipse-curve $-1 -4330.0000000000027 -400.00000000000017 -9320.0000000000073 0 0 -1 -109.99999999999991 0 0 1 I I #
point $-1 -4260.0000000000027 -400.00000000000017 -9189.9999999999927 #
face $-1 $67 $68 $2 $-1 $69 forward single #
loop $-1 $-1 $70 $41 #
plane-surface $-1 -3329.9999999999891 -129.99999999999991 -9255.0000000000127 0 0.70710678118655002 -0.70710678118654513 -25.399999999999999 0 0 forward_v I I I I #
loop $-1 $-1 $71 $29 #
coedge $-1 $58 $58 $72 $73 forward $44 $-1 #
coedge $-1 $59 $59 $45 $60 reversed $74 $-1 #
edge $-1 $75 0 $75 6.2831853071795862 $45 $76 forward 7 unknown #
vertex $-1 $47 $77 #
ellipse-curve $-1 -4330.0000000000027 400.00000000000017 -9189.9999999999927 0 0 -1 69.999999999999901 0 0 1 I I #
point $-1 -4439.9999999999945 400.00000000000017 -9189.9999999999927 #
loop $-1 $-1 $78 $65 #
face $-1 $79 $50 $2 $-1 $80 forward single #
point $-1 -4439.9999999999945 -400.00000000000017 -9320.0000000000073 #
face $-1 $81 $82 $2 $-1 $83 forward single #
loop $-1 $-1 $84 $54 #
plane-surface $-1 -3329.9999999999891 -65.000000000000099 -9175.0000000000018 0 1 0 0 0 25.399999999999999 forward_v I I I I #
coedge $-1 $85 $86 $87 $88 forward $55 $-1 #
coedge $-1 $71 $71 $89 $90 forward $57 $-1 #
coedge $-1 $72 $72 $58 $73 reversed $91 $-1 #
edge $-1 $92 0 $92 6.2831853071795862 $58 $93 forward 7 unknown #
loop $-1 $94 $59 $79 #
vertex $-1 $60 $95 #
ellipse-curve $-1 -4330.0000000000027 400.00000000000017 -9320.0000000000073 0 0 -1 -109.99999999999991 0 0 1 I I #
point $-1 -4260.0000000000027 400.00000000000017 -9189.9999999999927 #
coedge $-1 $87 $96 $97 $98 reversed $64 $-1 #
face $-1 $99 $74 $2 $-1 $100 forward single #
plane-surface $-1 -4330.0000000000027 0 -9320.0000000000073 0 0 -1 -25.399999999999999 0 0 forward_v I I I I #
face $-1 $101 $102 $2 $-1 $103 forward single #
loop $-1 $-1 $104 $67 #
plane-surface $-1 -3329.9999999999891 0 -9160.0000000000109 0 0 -1 -25.399999999999999 0 0 forward_v I I I I #
coedge $-1 $105 $106 $107 $108 forward $68 $-1 #
coedge $-1 $107 $70 $109 $110 reversed $55 $-1 #
coedge $-1 $70 $107 $111 $112 forward $55 $-1 #
coedge $-1 $113 $78 $70 $88 reversed $64 $-1 #
edge $-1 $114 0 $115 78.74015748031502 $70 $116 forward 7 unknown #
coedge $-1 $89 $89 $71 $90 reversed $117 $-1 #
edge $-1 $118 0 $118 6.2831853071795862 $71 $119 forward 7 unknown #
loop $-1 $117 $72 $120 #
vertex $-1 $73 $121 #
ellipse-curve $-1 -4330.0000000000027 -400.00000000000017 -9069.9999999999909 0 0 1 69.999999999999901 0 0 1 I I #
loop $-1 $-1 $122 $79 #
point $-1 -4439.9999999999945 400.00000000000017 -9320.0000000000073 #
coedge $-1 $78 $113 $123 $124 reversed $64 $-1 #
coedge $-1 $125 $109 $78 $98 forward $126 $-1 #
edge $-1 $115 7.6771653543307101 $127 24.015748031496098 $97 $128 forward 7 unknown #
face $-1 $120 $129 $2 $-1 $130 forward single #
plane-surface $-1 -4330.0000000000027 0 -9320.0000000000073 0 0 -1 -25.399999999999999 0 0 forward_v I I I I #
face $-1 $131 $132 $2 $-1 $133 forward single #
loop $-1 $-1 $134 $81 #
plane-surface $-1 -3329.9999999999891 65.000000000000099 -9175.0000000000018 0 -1 0 0 0 -25.399999999999999 forward_v I I I I #
coedge $-1 $135 $136 $137 $138 forward $82 $-1 #
coedge $-1 $137 $84 $139 $140 reversed $68 $-1 #
coedge $-1 $84 $137 $141 $142 forward $68 $-1 #
coedge $-1 $86 $85 $84 $108 reversed $55 $-1 #
edge $-1 $143 0 $144 78.74015748031502 $107 $145 forward 7 unknown #
coedge $-1 $97 $139 $85 $110 forward $126 $-1 #
edge $-1 $144 0 $115 7.2381009097839355 $85 $146 forward 7 unknown #
coedge $-1 $141 $147 $86 $112 reversed $129 $-1 #
edge $-1 $143 0 $114 7.2381009097839355 $86 $148 forward 7 unknown #
coedge $-1 $96 $87 $147 $149 reversed $64 $-1 #
vertex $-1 $88 $150 #
vertex $-1 $88 $151 #
straight-curve $-1 -3329.9999999999891 -195.00000000000003 -9320.0000000000073 -25.399999999999999 0 0 I I #
loop $-1 $152 $89 $120 #
vertex $-1 $90 $153 #
ellipse-curve $-1 -4330.0000000000027 400.00000000000017 -9069.9999999999909 0 0 1 69.999999999999901 0 0 1 I I #
face $-1 $154 $91 $2 $-1 $155 forward single #
point $-1 -4260.0000000000027 -400.00000000000017 -9069.9999999999909 #
coedge $-1 $156 $157 $158 $159 reversed $94 $-1 #
coedge $-1 $160 $161 $96 $124 forward $162 $-1 #
edge $-1 $127 -39.370078740156998 $163 39.370078740158021 $96 $164 forward 7 unknown #
coedge $-1 $165 $97 $161 $166 forward $126 $-1 #
loop $-1 $-1 $139 $131 #
vertex $-1 $98 $167 #
straight-curve $-1 -5329.9999999999909 0 -9320.0000000000073 0 -25.399999999999999 0 I I #
loop $-1 $-1 $147 $99 #
plane-surface $-1 -3329.9999999999891 0 -9320.0000000000073 1 0 0 0 0 -25.399999999999999 forward_v I I I I #
face $-1 $65 $126 $2 $-1 $168 forward single #
loop $-1 $-1 $169 $101 #
plane-surface $-1 -3329.9999999999891 129.99999999999991 -9255.0000000000127 0 -0.70710678118655002 -0.70710678118654513 -25.399999999999999 0 0 forward_v I I I I #
coedge $-1 $170 $171 $172 $173 forward $102 $-1 #
coedge $-1 $172 $104 $174 $175 reversed $82 $-1 #
coedge $-1 $104 $172 $176 $177 forward $82 $-1 #
coedge $-1 $106 $105 $104 $138 reversed $68 $-1 #
edge $-1 $178 0 $179 78.74015748031502 $137 $180 forward 7 unknown #
coedge $-1 $109 $174 $105 $140 forward $126 $-1 #
edge $-1 $179 0 $144 1.1811023622040011 $105 $181 forward 7 unknown #
coedge $-1 $176 $111 $106 $142 reversed $129 $-1 #
edge $-1 $178 0 $143 1.1811023622040011 $106 $182 forward 7 unknown #
vertex $-1 $108 $183 #
vertex $-1 $110 $184 #
straight-curve $-1 -3329.9999999999891 -65.000000000000099 -9189.9999999999927 -25.399999999999999 0 0 I I #
straight-curve $-1 -5329.9999999999909 -65.000000000000099 -9189.9999999999927 0 -17.960512242138268 -17.960512242138368 I I #
coedge $-1 $111 $185 $113 $149 forward $129 $-1 #
straight-curve $-1 -3329.9999999999891 -65.000000000000099 -9189.9999999999927 0 -17.960512242138268 -17.960512242138368 I I #
edge $-1 $163 -24.015748031496098 $114 -7.6771653543307101 $113 $186 forward 7 unknown #
point $-1 -3329.9999999999891 -195.00000000000003 -9320.0000000000073 #
point $-1 -5329.9999999999909 -195.00000000000003 -9320.0000000000073 #
loop $-1 $-1 $187 $120 #
point $-1 -4260.0000000000027 400.00000000000017 -9069.9999999999909 #
face $-1 $188 $162 $2 $-1 $189 forward single #
plane-surface $-1 -4330.0000000000027 0 -9069.9999999999909 0 0 1 25.399999999999999 0 0 forward_v I I I I #
coedge $-1 $190 $122 $191 $192 forward $94 $-1 #
coedge $-1 $122 $190 $193 $194 reversed $94 $-1 #
coedge $-1 $195 $196 $122 $159 forward $129 $-1 #
edge $-1 $197 7.6771653543307101 $198 24.015748031496098 $122 $199 forward 7 unknown #
coedge $-1 $200 $123 $185 $201 forward $162 $-1 #
coedge $-1 $123 $200 $125 $166 reversed $162 $-1 #
loop $-1 $-1 $160 $154 #
vertex $-1 $149 $202 #
straight-curve $-1 -4330.0000000000027 -610.00000000000091 -9320.0000000000073 25.399999999999999 0 0 I I #
coedge $-1 $203 $125 $204 $205 forward $126 $-1 #
edge $-1 $127 0 $206 9.8425196850400312 $125 $207 forward 7 unknown #
point $-1 -5329.9999999999909 -610.00000000000091 -9320.0000000000073 #
plane-surface $-1 -5329.9999999999909 0 -9320.0000000000073 -1 0 0 0 0 25.399999999999999 forward_v I I I I #
coedge $-1 $208 $191 $196 $209 forward $132 $-1 #
coedge $-1 $210 $134 $211 $212 reversed $102 $-1 #
coedge $-1 $134 $210 $213 $214 forward $102 $-1 #
coedge $-1 $136 $135 $134 $173 reversed $82 $-1 #
edge $-1 $215 0 $216 78.74015748031502 $172 $217 forward 7 unknown #
coedge $-1 $139 $211 $135 $175 forward $126 $-1 #
edge $-1 $216 0 $179 5.1181102362204802 $135 $218 forward 7 unknown #
coedge $-1 $213 $141 $136 $177 reversed $129 $-1 #
edge $-1 $215 0 $178 5.1181102362204802 $136 $219 forward 7 unknown #
vertex $-1 $138 $220 #
vertex $-1 $140 $221 #
straight-curve $-1 -3329.9999999999891 -65.000000000000099 -9160.0000000000109 -25.399999999999999 0 0 I I #
straight-curve $-1 -5329.9999999999909 -65.000000000000099 -9160.0000000000109 0 0 -25.399999999999999 I I #
straight-curve $-1 -3329.9999999999891 -65.000000000000099 -9160.0000000000109 0 0 -25.399999999999999 I I #
point $-1 -3329.9999999999891 -65.000000000000099 -9189.9999999999927 #
point $-1 -5329.9999999999909 -65.000000000000099 -9189.9999999999927 #
coedge $-1 $147 $222 $160 $201 reversed $129 $-1 #
straight-curve $-1 -3329.9999999999891 0 -9320.0000000000073 0 25.399999999999999 0 I I #
coedge $-1 $223 $204 $200 $224 reversed $152 $-1 #
face $-1 $-1 $225 $2 $-1 $226 forward single #
plane-surface $-1 -4330.0000000000027 -610.00000000000091 -9320.0000000000073 0 -1 0 0 0 -25.399999999999999 forward_v I I I I #
coedge $-1 $157 $156 $227 $228 reversed $94 $-1 #
coedge $-1 $169 $229 $156 $192 reversed $132 $-1 #
edge $-1 $197 -39.370078740158021 $230 39.370078740156998 $191 $231 forward 7 unknown #
coedge $-1 $232 $233 $157 $194 forward $225 $-1 #
edge $-1 $198 -39.370078740158021 $234 39.370078740156998 $157 $235 forward 7 unknown #
coedge $-1 $222 $158 $233 $236 forward $129 $-1 #
coedge $-1 $158 $213 $169 $209 reversed $129 $-1 #
vertex $-1 $209 $237 #
vertex $-1 $159 $238 #
straight-curve $-1 -3329.9999999999891 0 -9320.0000000000073 0 25.399999999999999 0 I I #
coedge $-1 $161 $160 $187 $224 forward $162 $-1 #
edge $-1 $163 0 $239 9.8425196850400312 $185 $240 forward 7 unknown #
point $-1 -3329.9999999999891 -610.00000000000091 -9320.0000000000073 #
coedge $-1 $227 $165 $232 $241 reversed $126 $-1 #
coedge $-1 $187 $242 $165 $205 reversed $152 $-1 #
edge $-1 $206 -24.015748031496098 $243 24.015748031496098 $165 $244 forward 7 unknown #
vertex $-1 $166 $245 #
straight-curve $-1 -5329.9999999999909 -610.00000000000091 -9320.0000000000073 0 0 25.399999999999999 I I #
coedge $-1 $229 $169 $210 $246 forward $132 $-1 #
edge $-1 $197 0 $247 7.2381009097839355 $169 $248 forward 7 unknown #
coedge $-1 $171 $170 $208 $246 reversed $102 $-1 #
coedge $-1 $174 $249 $170 $212 forward $126 $-1 #
edge $-1 $250 0 $216 1.1811023622040011 $170 $251 forward 7 unknown #
coedge $-1 $196 $176 $171 $214 reversed $129 $-1 #
edge $-1 $247 0 $215 1.1811023622040011 $171 $252 forward 7 unknown #
vertex $-1 $173 $253 #
vertex $-1 $175 $254 #
straight-curve $-1 -3329.9999999999891 65.000000000000099 -9160.0000000000109 -25.399999999999999 0 0 I I #
straight-curve $-1 -5329.9999999999909 65.000000000000099 -9160.0000000000109 0 -25.399999999999999 0 I I #
straight-curve $-1 -3329.9999999999891 65.000000000000099 -9160.0000000000109 0 -25.399999999999999 0 I I #
point $-1 -3329.9999999999891 -65.000000000000099 -9160.0000000000109 #
point $-1 -5329.9999999999909 -65.000000000000099 -9160.0000000000109 #
coedge $-1 $185 $195 $223 $255 forward $129 $-1 #
coedge $-1 $242 $187 $222 $255 reversed $152 $-1 #
edge $-1 $239 -39.370078740158021 $206 39.370078740156998 $187 $256 forward 7 unknown #
loop $-1 $-1 $232 $188 #
plane-surface $-1 -4330.0000000000027 610.00000000000091 -9320.0000000000073 0 1 0 0 0 25.399999999999999 forward_v I I I I #
coedge $-1 $249 $203 $190 $228 forward $126 $-1 #
edge $-1 $234 -24.015748031496098 $230 -7.6771653543307101 $227 $257 forward 7 unknown #
coedge $-1 $191 $208 $249 $258 reversed $132 $-1 #
vertex $-1 $258 $259 #
straight-curve $-1 -4330.0000000000027 195.00000000000003 -9320.0000000000073 -25.399999999999999 0 0 I I #
coedge $-1 $260 $193 $203 $241 forward $225 $-1 #
coedge $-1 $193 $260 $195 $236 reversed $225 $-1 #
vertex $-1 $241 $261 #
straight-curve $-1 -4330.0000000000027 610.00000000000091 -9320.0000000000073 -25.399999999999999 0 0 I I #
edge $-1 $198 0 $262 9.8425196850400312 $195 $263 forward 7 unknown #
point $-1 -3329.9999999999891 195.00000000000003 -9320.0000000000073 #
point $-1 -3329.9999999999891 610.00000000000091 -9320.0000000000073 #
vertex $-1 $255 $264 #
straight-curve $-1 -3329.9999999999891 -610.00000000000091 -9320.0000000000073 0 0 25.399999999999999 I I #
edge $-1 $234 0 $243 9.8425196850400312 $203 $265 forward 7 unknown #
coedge $-1 $204 $223 $260 $266 reversed $152 $-1 #
vertex $-1 $205 $267 #
straight-curve $-1 -5329.9999999999909 0 -9069.9999999999909 0 25.399999999999999 0 I I #
point $-1 -5329.9999999999909 -610.00000000000091 -9069.9999999999909 #
edge $-1 $247 0 $250 78.74015748031502 $210 $268 forward 7 unknown #
vertex $-1 $246 $269 #
straight-curve $-1 -3329.9999999999891 195.00000000000003 -9320.0000000000073 0 -17.960512242138268 17.960512242138368 I I #
coedge $-1 $211 $227 $229 $258 forward $126 $-1 #
vertex $-1 $212 $270 #
straight-curve $-1 -5329.9999999999909 65.000000000000099 -9189.9999999999927 0 0 25.399999999999999 I I #
straight-curve $-1 -3329.9999999999891 65.000000000000099 -9189.9999999999927 0 0 25.399999999999999 I I #
point $-1 -3329.9999999999891 65.000000000000099 -9160.0000000000109 #
point $-1 -5329.9999999999909 65.000000000000099 -9160.0000000000109 #
edge $-1 $262 -24.015748031496098 $239 24.015748031496098 $222 $271 forward 7 unknown #
straight-curve $-1 -4330.0000000000027 -610.00000000000091 -9069.9999999999909 -25.399999999999999 0 0 I I #
straight-curve $-1 -5329.9999999999909 0 -9320.0000000000073 0 -25.399999999999999 0 I I #
edge $-1 $230 0 $250 7.2381009097839355 $229 $272 forward 7 unknown #
point $-1 -5329.9999999999909 195.00000000000003 -9320.0000000000073 #
coedge $-1 $233 $232 $242 $266 forward $225 $-1 #
point $-1 -5329.9999999999909 610.00000000000091 -9320.0000000000073 #
vertex $-1 $236 $273 #
straight-curve $-1 -3329.9999999999891 610.00000000000091 -9320.0000000000073 0 0 25.399999999999999 I I #
point $-1 -3329.9999999999891 -610.00000000000091 -9069.9999999999909 #
straight-curve $-1 -5329.9999999999909 610.00000000000091 -9320.0000000000073 0 0 25.399999999999999 I I #
edge $-1 $243 -39.370078740156998 $262 39.370078740158021 $242 $274 forward 7 unknown #
point $-1 -5329.9999999999909 610.00000000000091 -9069.9999999999909 #
straight-curve $-1 -3329.9999999999891 65.000000000000099 -9189.9999999999927 -25.399999999999999 0 0 I I #
point $-1 -3329.9999999999891 65.000000000000099 -9189.9999999999927 #
point $-1 -5329.9999999999909 65.000000000000099 -9189.9999999999927 #
straight-curve $-1 -3329.9999999999891 0 -9069.9999999999909 0 -25.399999999999999 0 I I #
straight-curve $-1 -5329.9999999999909 195.00000000000003 -9320.0000000000073 0 -17.960512242138268 17.960512242138368 I I #
point $-1 -3329.9999999999891 610.00000000000091 -9069.9999999999909 #
straight-curve $-1 -4330.0000000000027 610.00000000000091 -9069.9999999999909 25.399999999999999 0 0 I I #
End-of-ACIS-data 