600 0 1 0           
107 GICL ACIS Healer - Source: /gicl/data5/repository/Parasolid/NIST/Pete_Brown/ss1_insert/ss1_insert.sat - 6 0 18 ACIS 6.0.3 Solaris 24 Sun Apr 14 00:31:48 2002 
1 9.999999999999999547e-07 1.000000000000000036e-10 
body $-1 $1 $-1 $-1 #
lump $-1 $-1 $2 $0 #
shell $-1 $-1 $-1 $3 $-1 $1 #
face $-1 $4 $5 $2 $-1 $6 reversed single #
face $-1 $7 $8 $2 $-1 $9 reversed single #
loop $-1 $10 $11 $3 #
plane-surface $-1 -170.4724409448820097 -15.74803149606299968 -361.8110236220470028 0 0 1 1 0 0 forward_v I I I I #
face $-1 $12 $13 $2 $-1 $14 reversed single #
loop $-1 $15 $16 $4 #
cone-surface $-1 -170.4724409448820097 -15.74803149606299968 -366.9291338582680169 0 0 1 4.330708661417319583 0 0 1 I I 0 1 4.330708661417319583 forward I I I I #
loop $-1 $-1 $17 $3 #
coedge $-1 $11 $11 $16 $18 forward $5 $-1 #
face $-1 $19 $20 $2 $-1 $21 reversed single #
loop $-1 $22 $23 $7 #
plane-surface $-1 -170.4724409448820097 15.74803149606299968 -361.8110236220470028 0 0 1 1 0 0 forward_v I I I I #
loop $-1 $-1 $24 $4 #
coedge $-1 $16 $16 $11 $18 reversed $8 $-1 #
coedge $-1 $17 $17 $25 $26 reversed $10 $-1 #
edge $-1 $27 0 $27 6.283185307179586232 $11 $28 forward 7 unknown #
face $-1 $29 $30 $2 $-1 $31 reversed single #
loop $-1 $32 $33 $12 #
cone-surface $-1 -170.4724409448820097 15.74803149606299968 -366.9291338582680169 0 0 1 4.330708661417319583 0 0 1 I I 0 1 4.330708661417319583 forward I I I I #
loop $-1 $-1 $34 $7 #
coedge $-1 $23 $23 $33 $35 forward $13 $-1 #
coedge $-1 $24 $24 $36 $37 forward $15 $-1 #
coedge $-1 $25 $25 $17 $26 forward $30 $-1 #
edge $-1 $38 0 $38 6.283185307179586232 $17 $39 forward 7 unknown #
vertex $-1 $18 $40 #
ellipse-curve $-1 -170.4724409448820097 -15.74803149606299968 -361.8110236220470028 0 0 -1 -4.330708661417319583 0 0 1 I I #
face $-1 $41 $42 $2 $-1 $43 reversed single #
loop $-1 $44 $25 $19 #
cone-surface $-1 -170.4724409448820097 -15.74803149606299968 -366.9291338582680169 0 0 1 2.755905511811020059 0 0 1 I I 0 1 2.755905511811020059 forward I I I I #
loop $-1 $-1 $45 $12 #
coedge $-1 $33 $33 $23 $35 reversed $20 $-1 #
coedge $-1 $34 $34 $46 $47 reversed $22 $-1 #
edge $-1 $48 0 $48 6.283185307179586232 $23 $49 forward 7 unknown #
coedge $-1 $36 $36 $24 $37 reversed $50 $-1 #
edge $-1 $51 0 $51 6.283185307179586232 $24 $52 forward 7 unknown #
vertex $-1 $26 $53 #
ellipse-curve $-1 -170.4724409448820097 -15.74803149606299968 -361.8110236220470028 0 0 -1 2.755905511811020059 0 0 1 I I #
point $-1 -174.8031496062990016 -15.74803149606299968 -361.8110236220470028 #
face $-1 $54 $55 $2 $-1 $56 forward single #
loop $-1 $57 $46 $29 #
cone-surface $-1 -170.4724409448820097 15.74803149606299968 -366.9291338582680169 0 0 1 2.755905511811020059 0 0 1 I I 0 1 2.755905511811020059 forward I I I I #
loop $-1 $-1 $58 $19 #
coedge $-1 $45 $45 $59 $60 forward $32 $-1 #
coedge $-1 $46 $46 $34 $47 forward $42 $-1 #
edge $-1 $61 0 $61 6.283185307179586232 $34 $62 forward 7 unknown #
vertex $-1 $35 $63 #
ellipse-curve $-1 -170.4724409448820097 15.74803149606299968 -361.8110236220470028 0 0 -1 -4.330708661417319583 0 0 1 I I #
loop $-1 $64 $36 $65 #
vertex $-1 $37 $66 #
ellipse-curve $-1 -170.4724409448820097 -15.74803149606299968 -366.9291338582680169 0 0 -1 -4.330708661417319583 0 0 1 I I #
point $-1 -167.7165354330709874 -15.74803149606299968 -361.8110236220470028 #
face $-1 $67 $68 $2 $-1 $69 forward single #
loop $-1 $-1 $70 $41 #
plane-surface $-1 -131.1023622047239883 -5.118110236220469567 -364.3700787401580214 0 0.7071067811865500152 -0.7071067811865450192 -1 0 0 forward_v I I I I #
loop $-1 $-1 $71 $29 #
coedge $-1 $58 $58 $72 $73 forward $44 $-1 #
coedge $-1 $59 $59 $45 $60 reversed $74 $-1 #
edge $-1 $75 0 $75 6.283185307179586232 $45 $76 forward 7 unknown #
vertex $-1 $47 $77 #
ellipse-curve $-1 -170.4724409448820097 15.74803149606299968 -361.8110236220470028 0 0 -1 2.755905511811020059 0 0 1 I I #
point $-1 -174.8031496062990016 15.74803149606299968 -361.8110236220470028 #
loop $-1 $-1 $78 $65 #
face $-1 $79 $50 $2 $-1 $80 forward single #
point $-1 -174.8031496062990016 -15.74803149606299968 -366.9291338582680169 #
face $-1 $81 $82 $2 $-1 $83 forward single #
loop $-1 $-1 $84 $54 #
plane-surface $-1 -131.1023622047239883 -2.559055118110240112 -361.2204724409450023 0 1 0 0 0 1 forward_v I I I I #
coedge $-1 $85 $86 $87 $88 forward $55 $-1 #
coedge $-1 $71 $71 $89 $90 forward $57 $-1 #
coedge $-1 $72 $72 $58 $73 reversed $91 $-1 #
edge $-1 $92 0 $92 6.283185307179586232 $58 $93 forward 7 unknown #
loop $-1 $94 $59 $79 #
vertex $-1 $60 $95 #
ellipse-curve $-1 -170.4724409448820097 15.74803149606299968 -366.9291338582680169 0 0 -1 -4.330708661417319583 0 0 1 I I #
point $-1 -167.7165354330709874 15.74803149606299968 -361.8110236220470028 #
coedge $-1 $87 $96 $97 $98 reversed $64 $-1 #
face $-1 $99 $74 $2 $-1 $100 forward single #
plane-surface $-1 -170.4724409448820097 0 -366.9291338582680169 0 0 -1 -1 0 0 forward_v I I I I #
face $-1 $101 $102 $2 $-1 $103 forward single #
loop $-1 $-1 $104 $67 #
plane-surface $-1 -131.1023622047239883 0 -360.6299212598430017 0 0 -1 -1 0 0 forward_v I I I I #
coedge $-1 $105 $106 $107 $108 forward $68 $-1 #
coedge $-1 $107 $70 $109 $110 reversed $55 $-1 #
coedge $-1 $70 $107 $111 $112 forward $55 $-1 #
coedge $-1 $113 $78 $70 $88 reversed $64 $-1 #
edge $-1 $114 0 $115 78.74015748031501971 $70 $116 forward 7 unknown #
coedge $-1 $89 $89 $71 $90 reversed $117 $-1 #
edge $-1 $118 0 $118 6.283185307179586232 $71 $119 forward 7 unknown #
loop $-1 $117 $72 $120 #
vertex $-1 $73 $121 #
ellipse-curve $-1 -170.4724409448820097 -15.74803149606299968 -357.0866141732279857 0 0 1 2.755905511811020059 0 0 1 I I #
loop $-1 $-1 $122 $79 #
point $-1 -174.8031496062990016 15.74803149606299968 -366.9291338582680169 #
coedge $-1 $78 $113 $123 $124 reversed $64 $-1 #
coedge $-1 $125 $109 $78 $98 forward $126 $-1 #
edge $-1 $115 7.677165354330710123 $127 24.01574803149609849 $97 $128 forward 7 unknown #
face $-1 $120 $129 $2 $-1 $130 forward single #
plane-surface $-1 -170.4724409448820097 0 -366.9291338582680169 0 0 -1 -1 0 0 forward_v I I I I #
face $-1 $131 $132 $2 $-1 $133 forward single #
loop $-1 $-1 $134 $81 #
plane-surface $-1 -131.1023622047239883 2.559055118110240112 -361.2204724409450023 0 -1 0 0 0 -1 forward_v I I I I #
coedge $-1 $135 $136 $137 $138 forward $82 $-1 #
coedge $-1 $137 $84 $139 $140 reversed $68 $-1 #
coedge $-1 $84 $137 $141 $142 forward $68 $-1 #
coedge $-1 $86 $85 $84 $108 reversed $55 $-1 #
edge $-1 $143 0 $144 78.74015748031501971 $107 $145 forward 7 unknown #
coedge $-1 $97 $139 $85 $110 forward $126 $-1 #
edge $-1 $144 0 $115 7.238100909783935499 $85 $146 forward 7 unknown #
coedge $-1 $141 $147 $86 $112 reversed $129 $-1 #
edge $-1 $143 0 $114 7.238100909783935499 $86 $148 forward 7 unknown #
coedge $-1 $96 $87 $147 $149 reversed $64 $-1 #
vertex $-1 $88 $150 #
vertex $-1 $88 $151 #
straight-curve $-1 -131.1023622047239883 -7.677165354330710123 -366.9291338582680169 -1 0 0 I I #
loop $-1 $152 $89 $120 #
vertex $-1 $90 $153 #
ellipse-curve $-1 -170.4724409448820097 15.74803149606299968 -357.0866141732279857 0 0 1 2.755905511811020059 0 0 1 I I #
face $-1 $154 $91 $2 $-1 $155 forward single #
point $-1 -167.7165354330709874 -15.74803149606299968 -357.0866141732279857 #
coedge $-1 $156 $157 $158 $159 reversed $94 $-1 #
coedge $-1 $160 $161 $96 $124 forward $162 $-1 #
edge $-1 $127 -39.37007874015699826 $163 39.37007874015802145 $96 $164 forward 7 unknown #
coedge $-1 $165 $97 $161 $166 forward $126 $-1 #
loop $-1 $-1 $139 $131 #
vertex $-1 $98 $167 #
straight-curve $-1 -209.842519685039008 0 -366.9291338582680169 0 -1 0 I I #
loop $-1 $-1 $147 $99 #
plane-surface $-1 -131.1023622047239883 0 -366.9291338582680169 1 0 0 0 0 -1 forward_v I I I I #
face $-1 $65 $126 $2 $-1 $168 forward single #
loop $-1 $-1 $169 $101 #
plane-surface $-1 -131.1023622047239883 5.118110236220469567 -364.3700787401580214 0 -0.7071067811865500152 -0.7071067811865450192 -1 0 -0 forward_v I I I I #
coedge $-1 $170 $171 $172 $173 forward $102 $-1 #
coedge $-1 $172 $104 $174 $175 reversed $82 $-1 #
coedge $-1 $104 $172 $176 $177 forward $82 $-1 #
coedge $-1 $106 $105 $104 $138 reversed $68 $-1 #
edge $-1 $178 0 $179 78.74015748031501971 $137 $180 forward 7 unknown #
coedge $-1 $109 $174 $105 $140 forward $126 $-1 #
edge $-1 $179 0 $144 1.181102362204001111 $105 $181 forward 7 unknown #
coedge $-1 $176 $111 $106 $142 reversed $129 $-1 #
edge $-1 $178 0 $143 1.181102362204001111 $106 $182 forward 7 unknown #
vertex $-1 $108 $183 #
vertex $-1 $110 $184 #
straight-curve $-1 -131.1023622047239883 -2.559055118110240112 -361.8110236220470028 -1 0 0 I I #
straight-curve $-1 -209.842519685039008 -2.559055118110240112 -361.8110236220470028 0 -0.7071067811865460184 -0.7071067811865500152 I I #
coedge $-1 $111 $185 $113 $149 forward $129 $-1 #
straight-curve $-1 -131.1023622047239883 -2.559055118110240112 -361.8110236220470028 0 -0.7071067811865460184 -0.7071067811865500152 I I #
edge $-1 $163 -24.01574803149609849 $114 -7.677165354330710123 $113 $186 forward 7 unknown #
point $-1 -131.1023622047239883 -7.677165354330710123 -366.9291338582680169 #
point $-1 -209.842519685039008 -7.677165354330710123 -366.9291338582680169 #
loop $-1 $-1 $187 $120 #
point $-1 -167.7165354330709874 15.74803149606299968 -357.0866141732279857 #
face $-1 $188 $162 $2 $-1 $189 forward single #
plane-surface $-1 -170.4724409448820097 0 -357.0866141732279857 0 0 1 1 0 0 forward_v I I I I #
coedge $-1 $190 $122 $191 $192 forward $94 $-1 #
coedge $-1 $122 $190 $193 $194 reversed $94 $-1 #
coedge $-1 $195 $196 $122 $159 forward $129 $-1 #
edge $-1 $197 7.677165354330710123 $198 24.01574803149609849 $122 $199 forward 7 unknown #
coedge $-1 $200 $123 $185 $201 forward $162 $-1 #
coedge $-1 $123 $200 $125 $166 reversed $162 $-1 #
loop $-1 $-1 $160 $154 #
vertex $-1 $149 $202 #
straight-curve $-1 -170.4724409448820097 -24.01574803149609849 -366.9291338582680169 1 0 0 I I #
coedge $-1 $203 $125 $204 $205 forward $126 $-1 #
edge $-1 $127 0 $206 9.842519685040031163 $125 $207 forward 7 unknown #
point $-1 -209.842519685039008 -24.01574803149609849 -366.9291338582680169 #
plane-surface $-1 -209.842519685039008 0 -366.9291338582680169 -1 0 0 0 -0 1 forward_v I I I I #
coedge $-1 $208 $191 $196 $209 forward $132 $-1 #
coedge $-1 $210 $134 $211 $212 reversed $102 $-1 #
coedge $-1 $134 $210 $213 $214 forward $102 $-1 #
coedge $-1 $136 $135 $134 $173 reversed $82 $-1 #
edge $-1 $215 0 $216 78.74015748031501971 $172 $217 forward 7 unknown #
coedge $-1 $139 $211 $135 $175 forward $126 $-1 #
edge $-1 $216 0 $179 5.118110236220480225 $135 $218 forward 7 unknown #
coedge $-1 $213 $141 $136 $177 reversed $129 $-1 #
edge $-1 $215 0 $178 5.118110236220480225 $136 $219 forward 7 unknown #
vertex $-1 $138 $220 #
vertex $-1 $140 $221 #
straight-curve $-1 -131.1023622047239883 -2.559055118110240112 -360.6299212598430017 -1 0 0 I I #
straight-curve $-1 -209.842519685039008 -2.559055118110240112 -360.6299212598430017 0 0 -1 I I #
straight-curve $-1 -131.1023622047239883 -2.559055118110240112 -360.6299212598430017 0 0 -1 I I #
point $-1 -131.1023622047239883 -2.559055118110240112 -361.8110236220470028 #
point $-1 -209.842519685039008 -2.559055118110240112 -361.8110236220470028 #
coedge $-1 $147 $222 $160 $201 reversed $129 $-1 #
straight-curve $-1 -131.1023622047239883 0 -366.9291338582680169 0 1 0 I I #
coedge $-1 $223 $204 $200 $224 reversed $152 $-1 #
face $-1 $-1 $225 $2 $-1 $226 forward single #
plane-surface $-1 -170.4724409448820097 -24.01574803149609849 -366.9291338582680169 0 -1 0 0 0 -1 forward_v I I I I #
coedge $-1 $157 $156 $227 $228 reversed $94 $-1 #
coedge $-1 $169 $229 $156 $192 reversed $132 $-1 #
edge $-1 $197 -39.37007874015802145 $230 39.37007874015699826 $191 $231 forward 7 unknown #
coedge $-1 $232 $233 $157 $194 forward $225 $-1 #
edge $-1 $198 -39.37007874015802145 $234 39.37007874015699826 $157 $235 forward 7 unknown #
coedge $-1 $222 $158 $233 $236 forward $129 $-1 #
coedge $-1 $158 $213 $169 $209 reversed $129 $-1 #
vertex $-1 $209 $237 #
vertex $-1 $159 $238 #
straight-curve $-1 -131.1023622047239883 0 -366.9291338582680169 0 1 0 I I #
coedge $-1 $161 $160 $187 $224 forward $162 $-1 #
edge $-1 $163 0 $239 9.842519685040031163 $185 $240 forward 7 unknown #
point $-1 -131.1023622047239883 -24.01574803149609849 -366.9291338582680169 #
coedge $-1 $227 $165 $232 $241 reversed $126 $-1 #
coedge $-1 $187 $242 $165 $205 reversed $152 $-1 #
edge $-1 $206 -24.01574803149609849 $243 24.01574803149609849 $165 $244 forward 7 unknown #
vertex $-1 $166 $245 #
straight-curve $-1 -209.842519685039008 -24.01574803149609849 -366.9291338582680169 0 0 1 I I #
coedge $-1 $229 $169 $210 $246 forward $132 $-1 #
edge $-1 $197 0 $247 7.238100909783935499 $169 $248 forward 7 unknown #
coedge $-1 $171 $170 $208 $246 reversed $102 $-1 #
coedge $-1 $174 $249 $170 $212 forward $126 $-1 #
edge $-1 $250 0 $216 1.181102362204001111 $170 $251 forward 7 unknown #
coedge $-1 $196 $176 $171 $214 reversed $129 $-1 #
edge $-1 $247 0 $215 1.181102362204001111 $171 $252 forward 7 unknown #
vertex $-1 $173 $253 #
vertex $-1 $175 $254 #
straight-curve $-1 -131.1023622047239883 2.559055118110240112 -360.6299212598430017 -1 0 0 I I #
straight-curve $-1 -209.842519685039008 2.559055118110240112 -360.6299212598430017 0 -1 0 I I #
straight-curve $-1 -131.1023622047239883 2.559055118110240112 -360.6299212598430017 0 -1 0 I I #
point $-1 -131.1023622047239883 -2.559055118110240112 -360.6299212598430017 #
point $-1 -209.842519685039008 -2.559055118110240112 -360.6299212598430017 #
coedge $-1 $185 $195 $223 $255 forward $129 $-1 #
coedge $-1 $242 $187 $222 $255 reversed $152 $-1 #
edge $-1 $239 -39.37007874015802145 $206 39.37007874015699826 $187 $256 forward 7 unknown #
loop $-1 $-1 $232 $188 #
plane-surface $-1 -170.4724409448820097 24.01574803149609849 -366.9291338582680169 0 1 0 0 0 1 forward_v I I I I #
coedge $-1 $249 $203 $190 $228 forward $126 $-1 #
edge $-1 $234 -24.01574803149609849 $230 -7.677165354330710123 $227 $257 forward 7 unknown #
coedge $-1 $191 $208 $249 $258 reversed $132 $-1 #
vertex $-1 $258 $259 #
straight-curve $-1 -170.4724409448820097 7.677165354330710123 -366.9291338582680169 -1 0 0 I I #
coedge $-1 $260 $193 $203 $241 forward $225 $-1 #
coedge $-1 $193 $260 $195 $236 reversed $225 $-1 #
vertex $-1 $241 $261 #
straight-curve $-1 -170.4724409448820097 24.01574803149609849 -366.9291338582680169 -1 0 0 I I #
edge $-1 $198 0 $262 9.842519685040031163 $195 $263 forward 7 unknown #
point $-1 -131.1023622047239883 7.677165354330710123 -366.9291338582680169 #
point $-1 -131.1023622047239883 24.01574803149609849 -366.9291338582680169 #
vertex $-1 $255 $264 #
straight-curve $-1 -131.1023622047239883 -24.01574803149609849 -366.9291338582680169 0 0 1 I I #
edge $-1 $234 0 $243 9.842519685040031163 $203 $265 forward 7 unknown #
coedge $-1 $204 $223 $260 $266 reversed $152 $-1 #
vertex $-1 $205 $267 #
straight-curve $-1 -209.842519685039008 0 -357.0866141732279857 0 1 0 I I #
point $-1 -209.842519685039008 -24.01574803149609849 -357.0866141732279857 #
edge $-1 $247 0 $250 78.74015748031501971 $210 $268 forward 7 unknown #
vertex $-1 $246 $269 #
straight-curve $-1 -131.1023622047239883 7.677165354330710123 -366.9291338582680169 0 -0.7071067811865460184 0.7071067811865500152 I I #
coedge $-1 $211 $227 $229 $258 forward $126 $-1 #
vertex $-1 $212 $270 #
straight-curve $-1 -209.842519685039008 2.559055118110240112 -361.8110236220470028 0 0 1 I I #
straight-curve $-1 -131.1023622047239883 2.559055118110240112 -361.8110236220470028 0 0 1 I I #
point $-1 -131.1023622047239883 2.559055118110240112 -360.6299212598430017 #
point $-1 -209.842519685039008 2.559055118110240112 -360.6299212598430017 #
edge $-1 $262 -24.01574803149609849 $239 24.01574803149609849 $222 $271 forward 7 unknown #
straight-curve $-1 -170.4724409448820097 -24.01574803149609849 -357.0866141732279857 -1 0 0 I I #
straight-curve $-1 -209.842519685039008 0 -366.9291338582680169 0 -1 0 I I #
edge $-1 $230 0 $250 7.238100909783935499 $229 $272 forward 7 unknown #
point $-1 -209.842519685039008 7.677165354330710123 -366.9291338582680169 #
coedge $-1 $233 $232 $242 $266 forward $225 $-1 #
point $-1 -209.842519685039008 24.01574803149609849 -366.9291338582680169 #
vertex $-1 $236 $273 #
straight-curve $-1 -131.1023622047239883 24.01574803149609849 -366.9291338582680169 0 0 1 I I #
point $-1 -131.1023622047239883 -24.01574803149609849 -357.0866141732279857 #
straight-curve $-1 -209.842519685039008 24.01574803149609849 -366.9291338582680169 0 0 1 I I #
edge $-1 $243 -39.37007874015699826 $262 39.37007874015802145 $242 $274 forward 7 unknown #
point $-1 -209.842519685039008 24.01574803149609849 -357.0866141732279857 #
straight-curve $-1 -131.1023622047239883 2.559055118110240112 -361.8110236220470028 -1 0 0 I I #
point $-1 -131.1023622047239883 2.559055118110240112 -361.8110236220470028 #
point $-1 -209.842519685039008 2.559055118110240112 -361.8110236220470028 #
straight-curve $-1 -131.1023622047239883 0 -357.0866141732279857 0 -1 0 I I #
straight-curve $-1 -209.842519685039008 7.677165354330710123 -366.9291338582680169 0 -0.7071067811865460184 0.7071067811865500152 I I #
point $-1 -131.1023622047239883 24.01574803149609849 -357.0866141732279857 #
straight-curve $-1 -170.4724409448820097 24.01574803149609849 -357.0866141732279857 1 0 0 I I #
End-of-ACIS-data 