**ABCDEFGHIJKLMNOPQRSTUVWXYZabcdefghijklmnopqrstuvwxyz**************************
**PARASOLID !"#$%&'()*+,-./:;<=>?@[\]^_`{|}~0123456789**************************
**PART1;
MC=unknown;
MC_MODEL=unknown;
MC_ID=unknown;
OS=unknown;
OS_RELEASE=unknown;
FRU=sdl_parasolid_customer_support;
APPL=parasolid_acceptance_tests;
SITE=unknown;
USER=unknown;
FORMAT=text;
GUISE=transmit;
KEY=part;
FILE=part.xmt_txt;
DATE=unknown;
**PART2;
SCH=SCH_504068_5059;
USFLD_SIZE=0;
**PART3;
**END_OF_HEADER*****************************************************************
T50 : TRANSMIT FILE created by modeller version 50406815 SCH_504068_50590 12 1 1
956 0 0 0 0 0 1e3 1e-8 2 2 0 3 4 1 5 6 7 8 102 4 2 part13 5 109 0 1 0 9 10 11 51
 6 1918 0 9 12 0 0 +12 5 6.5 1 0 612303176911189e-31 1 612303176911189e-31 0 -1
 31 7 1921 0 10 13 0 0 +18 5 6.5 1 0 0 0 0 -1 1 29 8 1926 0 11 14 0 14 5 5.5 18
 11 1951 0 15 0 16 8 ?29 14 1927 0 16 17 8 16 5 5.5 18 16 1952 0 18 11 19 14 ?29
 17 1929 0 19 20 14 16 5 7.5 18 19 1954 0 21 16 22 17 ?29 20 1895 0 22 23 17 14
 5 7.5 18 22 1893 0 24 19 25 20 ?29 23 1857 0 25 26 20 4 4 9 18 25 1882 0 27 22
 28 23 ?29 26 1858 0 28 29 23 4 4 4 18 28 1883 0 30 25 31 26 ?29 29 1860 0 31 32
 26 5 3 3 18 31 1885 0 33 28 34 29 ?29 32 1700 0 34 35 29 8 6 13 18 34 1793 0 36
 31 37 32 ?29 35 1701 0 37 38 32 8 6 11 18 37 1794 0 39 34 40 35 ?29 38 1702 0 4
1 42 35 8 6 2 18 41 1795 0 43 44 45 38 ?29 42 1703 0 40 46 38 8 8 13 18 40 1796
 0 47 37 48 42 ?29 46 1704 0 48 49 42 8 8 11 18 48 1797 0 50 40 51 46 ?29 49 170
5 0 52 53 46 8 8 2 18 52 1798 0 54 55 56 49 ?29 53 1706 0 51 57 49 10 6 13 18 51
 1799 0 58 48 59 53 ?29 57 1707 0 59 60 53 10 6 11 18 59 1800 0 61 51 62 57 ?29
 60 1709 0 62 63 57 10 8 13 18 62 1802 0 64 59 55 60 ?29 63 1711 0 65 66 60 10 8
 2 18 65 1804 0 67 56 68 63 ?29 66 1716 0 44 69 63 8 6 0 18 44 1811 0 70 68 41 6
6 ?29 69 1717 0 55 71 66 8 8 0 18 55 1810 0 72 62 52 69 ?29 71 1718 0 56 73 69 1
0 8 0 18 56 1809 0 74 52 65 71 ?29 73 1719 0 68 75 71 10 6 0 18 68 1812 0 76 65
 44 73 ?29 75 1618 0 45 77 73 10 8 11 18 45 1616 0 78 41 79 75 ?29 77 1603 0 79
 80 75 10 6 2 18 79 1601 0 81 45 82 77 ?29 80 1561 0 82 83 77 11 -61230317691118
9e-31 8 18 82 1590 0 84 79 85 80 ?29 83 1563 0 85 86 80 11 3 8 18 85 1592 0 87 8
2 88 83 ?29 86 1564 0 88 89 83 12 3 7 18 88 1593 0 90 85 91 86 ?29 89 1498 0 91
 92 86 12 0 6 18 91 1534 0 93 88 94 89 ?29 92 1500 0 94 95 89 12 3 6 18 94 1536
 0 96 91 97 92 ?29 95 1501 0 97 98 92 11 3 5 18 97 1537 0 99 94 100 95 ?29 98 14
41 0 100 101 95 6 0 7 18 100 1470 0 102 97 103 98 ?29 101 1442 0 103 104 98 7 3
 8 18 103 1471 0 105 100 106 101 ?29 104 1443 0 106 107 101 6 3 7 18 106 1472 0
 108 103 109 104 ?29 107 1377 0 109 110 104 7 612303176911189e-31 5 18 109 1413
 0 111 106 112 107 ?29 110 1379 0 112 113 107 7 3 5 18 112 1415 0 114 109 115 11
0 ?29 113 1380 0 115 116 110 6 3 6 18 115 1416 0 117 112 118 113 ?29 116 1269 0
 118 119 113 12 0 7 18 118 1342 0 120 115 121 116 ?29 119 1177 0 121 122 116 6 0
 6 18 121 1175 0 123 118 124 119 ?29 122 1106 0 124 125 119 7 0 8 18 124 1139 0
 126 121 127 122 ?29 125 1052 0 127 128 122 11 0 5 18 127 1050 0 129 124 130 125
 ?29 128 1015 0 130 131 125 13 3 10 18 130 1044 0 132 127 133 128 ?29 131 1016 0
 133 134 128 14 3 9 18 133 1045 0 135 130 136 131 ?29 134 1018 0 136 137 131 14
 5 9 18 136 1047 0 138 133 139 134 ?29 137 959 0 139 140 134 13 3 3 18 139 988 0
 141 136 142 137 ?29 140 960 0 142 143 137 14 3 4 18 142 989 0 144 139 145 140 ?
29 143 962 0 145 146 140 13 5 3 18 145 991 0 147 142 148 143 ?29 146 903 0 148 1
49 143 5 3 10 18 148 932 0 150 145 151 146 ?29 149 905 0 151 152 146 5 5 10 18 1
51 934 0 153 148 154 149 ?29 152 850 0 154 155 149 4 5 4 18 154 879 0 156 151 15
7 152 ?29 155 740 0 157 158 152 4 5 9 18 157 813 0 159 154 160 155 ?29 158 745 0
 160 161 155 14 5 4 18 160 816 0 162 157 163 158 ?29 161 601 0 163 164 158 5 5 3
 18 163 634 0 165 160 166 161 ?29 164 564 0 166 167 161 13 5 10 18 166 562 0 168
 163 169 164 ?29 167 528 0 169 170 164 16 8 10 18 169 553 0 171 166 172 167 ?29
 170 529 0 172 173 167 15 8 11 18 172 554 0 174 169 175 170 ?29 173 531 0 175 17
6 170 16 5 10 18 175 556 0 177 172 178 173 ?29 176 479 0 178 179 173 16 8 3 18 1
78 504 0 180 175 181 176 ?29 179 481 0 181 182 176 15 5 2 18 181 506 0 183 178 1
84 179 ?29 182 482 0 184 185 179 16 5 3 18 184 507 0 186 181 187 182 ?29 185 430
 0 187 188 182 2 8 10 18 187 455 0 189 184 190 185 ?29 188 432 0 190 191 185 3 5
 11 18 190 457 0 192 187 193 188 ?29 191 433 0 193 194 188 2 5 10 18 193 458 0 1
95 190 196 191 ?29 194 381 0 196 197 191 2 8 3 18 196 406 0 198 193 199 194 ?29
 197 382 0 199 200 194 3 8 2 18 199 407 0 201 196 202 197 ?29 200 383 0 202 203
 197 2 5 3 18 202 408 0 204 199 205 200 ?29 203 97 0 206 207 200 3 8 11 18 206 1
50 0 208 209 210 203 ?29 207 100 0 210 211 203 15 8 2 18 210 153 0 212 206 213 2
07 ?29 211 104 0 213 214 207 15 5 11 18 213 157 0 215 210 216 211 ?29 214 105 0
 216 217 211 3 5 2 18 216 160 0 218 213 0 214 ?29 217 55 0 205 219 214 0 0 13 18
 205 20 0 220 202 221 217 ?29 219 54 0 221 222 217 0 8 13 18 221 18 0 223 205 22
4 219 ?29 222 53 0 224 225 219 18 8 13 18 224 16 0 226 221 227 222 ?29 225 52 0
 227 228 222 18 0 13 18 227 14 0 229 224 230 225 ?29 228 38 0 231 232 225 0 0 0
 18 231 8 0 233 234 209 228 ?29 232 37 0 234 235 228 0 8 0 18 234 10 0 236 230 2
31 232 ?29 235 36 0 230 237 232 18 8 0 18 230 12 0 238 227 234 235 ?29 237 35 0
 209 0 235 18 0 0 18 209 7 0 239 231 206 237 ?17 239 240 229 241 209 242 243 0 1
5 240 29 0 229 244 0 17 229 240 245 239 227 246 247 0 17 241 240 239 245 231 220
 248 0 17 242 249 250 251 231 239 243 0 16 243 9 0 239 252 253 254 ?0 0 16 252 1
1 0 233 255 243 256 ?0 0 16 253 3 0 238 243 257 258 ?0 0 30 254 39 0 243 0 258 0
 +9 0 0 1 0 0 30 258 40 0 253 254 259 0 +18 4 0 0 1 0 30 259 41 0 255 258 256 0
 +9 8 0 -1 0 0 16 255 13 0 260 247 252 259 ?261 261 30 256 42 0 252 259 262 0 +0
 4 0 0 -1 0 30 262 47 0 247 256 263 0 +18 0 0 0 0 1 16 247 15 0 229 264 255 262
 ?0 0 30 263 48 0 264 262 265 0 +18 8 0 0 0 1 16 264 17 0 226 266 247 263 ?0 0 3
0 265 49 0 266 263 267 0 +0 8 0 0 0 1 16 266 19 0 223 248 264 265 ?0 0 30 267 50
 0 248 265 268 0 +0 0 0 0 0 1 16 248 21 0 220 269 266 267 ?0 0 30 268 56 0 269 2
67 270 0 +18 4 13 0 -1 0 16 269 22 0 271 272 248 268 ?0 0 30 270 57 0 272 268 27
3 0 +9 8 13 1 0 0 16 272 25 0 274 275 269 270 ?276 276 30 273 58 0 275 270 277 0
 +0 4 13 0 1 0 16 275 28 0 278 279 272 273 ?0 0 30 277 59 0 279 273 280 0 +9 0 1
3 -1 0 0 16 279 31 0 245 281 275 277 ?0 0 30 280 70 0 281 277 282 0 +9 8 2 -1 0
 0 16 281 68 0 283 284 279 280 ?285 285 30 282 77 0 284 280 286 0 +9 8 11 1 0 0
 16 284 75 0 287 288 281 282 ?289 289 30 286 96 0 290 282 291 0 +9 5 2 1 0 0 16
 290 148 0 292 293 294 286 ?0 0 30 291 95 0 294 286 295 0 +15 7 2 0 1 0 16 294 1
49 0 212 290 0 291 ?0 0 30 295 93 0 293 291 296 0 +3 7 2 0 -1 0 16 293 147 0 218
 297 290 295 ?0 0 30 296 88 0 297 295 298 0 +15 7 11 0 -1 0 16 297 141 0 215 299
 293 296 ?0 0 30 298 86 0 299 296 300 0 +3 7 11 0 1 0 16 299 139 0 208 257 297 2
98 ?0 0 30 300 85 0 257 298 301 0 +9 5 11 -1 0 0 16 257 138 0 302 253 299 300 ?0
 0 30 301 216 0 288 300 303 0 +16 8 0 0 0 -1 16 288 214 0 304 305 284 301 ?0 0 3
0 303 227 0 305 301 306 0 +2 8 0 0 0 1 16 305 225 0 307 308 288 303 ?0 0 30 306
 253 0 309 303 310 0 +16 7 3 0 1 0 16 309 335 0 311 312 313 306 ?0 0 30 310 251
 0 312 306 314 0 +2 7 3 0 -1 0 16 312 333 0 315 316 309 310 ?0 0 30 314 250 0 31
3 310 317 0 +16 5 3 0 0 1 16 313 331 0 318 309 308 314 ?319 319 30 317 247 0 316
 314 320 0 +2 5 3 0 0 1 16 316 328 0 321 322 312 317 ?0 0 30 320 246 0 308 317 3
23 0 +16 7 10 0 -1 0 16 308 327 0 324 313 305 320 ?0 0 30 323 244 0 322 320 325
 0 +2 7 10 0 1 0 16 322 325 0 326 327 316 323 ?0 0 31 325 379 0 327 323 328 0 +3
 5 3 0 1 612303176911189e-31 1 0 0 1 16 327 404 0 204 329 322 325 ?0 0 31 328 37
6 0 329 325 330 0 +3 8 3 0 1 0 0 0 1 1 16 329 400 0 331 332 327 328 ?0 0 31 330
 428 0 332 328 333 0 +3 5 10 0 1 612303176911189e-31 1 0 0 1 16 332 453 0 192 33
4 329 330 ?0 0 31 333 425 0 334 330 335 0 +3 8 10 0 1 0 0 0 1 1 16 334 449 0 336
 337 332 333 ?0 0 31 335 477 0 337 333 338 0 +15 5 3 0 1 612303176911189e-31 1 0
 0 1 16 337 502 0 183 339 334 335 ?0 0 31 338 474 0 339 335 340 0 +15 8 3 0 1 0
 0 0 1 1 16 339 498 0 341 342 337 338 ?0 0 31 340 526 0 342 338 343 0 +15 5 10 0
 1 612303176911189e-31 1 0 0 1 16 342 551 0 177 344 339 340 ?0 0 31 343 523 0 34
4 340 345 0 +15 8 10 0 1 0 0 0 1 1 16 344 547 0 346 347 342 343 ?0 0 30 345 595
 0 348 343 349 0 +9 3 3 1 0 0 16 348 627 0 350 351 347 345 ?0 0 30 349 594 0 347
 345 352 0 +13 4 3 0 1 0 16 347 628 0 147 348 344 349 ?0 0 30 352 593 0 353 349
 354 0 +9 5 3 -1 0 0 16 353 625 0 355 356 351 352 ?0 0 30 354 592 0 351 352 357
 0 +5 4 3 0 -1 0 16 351 626 0 358 353 348 354 ?0 0 30 357 587 0 356 354 359 0 +1
3 4 10 0 -1 0 16 356 620 0 360 361 353 357 ?0 0 30 359 586 0 361 357 362 0 +9 5
 10 1 0 0 16 361 619 0 363 364 356 359 ?0 0 30 362 585 0 364 359 365 0 +5 4 10 0
 1 0 16 364 618 0 153 366 361 362 ?0 0 30 365 584 0 366 362 367 0 +9 3 10 -1 0 0
 16 366 617 0 368 369 364 365 ?0 0 30 367 729 0 370 365 371 0 +14 4 4 0 1 0 16 3
70 803 0 372 373 374 367 ?0 0 30 371 727 0 375 367 376 0 +4 4 4 0 -1 0 16 375 80
1 0 377 378 373 371 ?0 0 30 376 726 0 369 371 379 0 +14 3 4 0 0 1 16 369 799 0 3
80 374 366 376 ?0 0 30 379 725 0 373 376 381 0 +14 5 4 0 0 1 16 373 798 0 382 37
5 370 379 ?383 383 30 381 724 0 378 379 384 0 +4 5 4 0 0 1 16 378 797 0 385 386
 375 381 ?0 0 30 384 722 0 374 381 387 0 +14 4 9 0 -1 0 16 374 795 0 388 370 369
 384 ?0 0 30 387 720 0 386 384 389 0 +4 4 9 0 1 0 16 386 793 0 390 391 378 387 ?
0 0 31 389 843 0 391 387 392 0 +5 5 4 0 -1 -612303176911189e-31 -1 0 0 1 16 391
 872 0 165 393 386 389 ?0 0 31 392 899 0 393 389 394 0 +5 5 9 0 -1 -612303176911
189e-31 -1 0 0 1 16 393 928 0 159 395 391 392 ?0 0 31 394 956 0 396 392 397 0 +1
3 3 4 0 1 612303176911189e-31 1 0 0 1 16 396 985 0 141 398 395 394 ?0 0 31 397 9
55 0 395 394 399 0 +13 5 4 0 -1 -612303176911189e-31 -1 0 0 1 16 395 984 0 162 3
96 393 397 ?0 0 31 399 1012 0 400 397 401 0 +13 3 9 0 1 612303176911189e-31 1 0
 0 1 16 400 1041 0 135 402 398 399 ?0 0 31 401 1011 0 398 399 403 0 +13 5 9 0 -1
 -612303176911189e-31 -1 0 0 1 16 398 1040 0 168 400 396 401 ?0 0 30 403 1105 0
 404 401 405 0 +9 0 5 1 0 0 16 404 1137 0 406 407 402 403 ?0 0 30 405 1104 0 402
 403 408 0 +11 1.5 5 0 1 0 16 402 1138 0 409 404 400 405 ?0 0 30 408 1103 0 410
 405 411 0 +9 3 5 -1 0 0 16 410 1135 0 412 413 407 408 ?0 0 30 411 1102 0 407 40
8 414 0 +7 1.5 5 0 -1 0 16 407 1136 0 111 410 404 411 ?0 0 30 414 1097 0 413 411
 415 0 +11 1.5 8 0 -1 0 16 413 1130 0 84 416 410 414 ?0 0 30 415 1096 0 416 414
 417 0 +9 3 8 1 0 0 16 416 1129 0 418 419 413 415 ?0 0 30 417 1095 0 419 415 420
 0 +7 1.5 8 0 1 0 16 419 1128 0 421 422 416 417 ?0 0 30 420 1094 0 422 417 423 0
 +9 0 8 -1 0 0 16 422 1127 0 424 425 419 420 ?0 0 30 423 1256 0 426 420 427 0 +1
2 1.5 6 0 1 0 16 426 1330 0 428 429 425 423 ?0 0 30 427 1254 0 430 423 431 0 +6
 1.5 6 0 -1 0 16 430 1328 0 432 433 434 427 ?0 0 30 431 1253 0 434 427 435 0 +12
 0 6 0 0 1 16 434 1326 0 436 430 429 431 ?0 0 30 435 1252 0 429 431 437 0 +12 3
 6 0 0 1 16 429 1325 0 438 434 426 435 ?0 0 30 437 1251 0 433 435 439 0 +6 3 6 0
 0 1 16 433 1324 0 440 441 430 437 ?0 0 30 439 1250 0 441 437 442 0 +6 0 6 0 0 1
 16 441 1323 0 443 444 433 439 ?0 0 30 442 1249 0 425 439 445 0 +12 1.5 7 0 -1 0
 16 425 1322 0 446 426 422 442 ?0 0 30 445 1247 0 444 442 447 0 +6 1.5 7 0 1 0 1
6 444 1320 0 448 449 441 445 ?0 0 31 447 1372 0 450 445 451 0 +7 0 6 0 1 6123031
76911189e-31 1 0 0 1 16 450 1408 0 123 452 449 447 ?0 0 31 451 1371 0 449 447 45
3 0 +7 3 6 0 -1 -612303176911189e-31 -1 0 0 1 16 449 1407 0 114 450 444 451 ?0 0
 31 453 1437 0 454 451 455 0 +7 0 7 0 1 612303176911189e-31 1 0 0 1 16 454 1466
 0 126 456 452 453 ?0 0 31 455 1436 0 452 453 457 0 +7 3 7 0 -1 -612303176911189
e-31 -1 0 0 1 16 452 1465 0 108 454 450 455 ?0 0 31 457 1493 0 458 455 459 0 +11
 0 6 0 1 612303176911189e-31 1 0 0 1 16 458 1529 0 129 460 456 457 ?0 0 31 459 1
492 0 456 457 461 0 +11 3 6 0 -1 -612303176911189e-31 -1 0 0 1 16 456 1528 0 96
 458 454 459 ?0 0 31 461 1558 0 460 459 462 0 +11 0 7 0 1 612303176911189e-31 1
 0 0 1 16 460 1587 0 120 463 458 461 ?0 0 31 462 1557 0 463 461 464 0 +11 3 7 0
 -1 -612303176911189e-31 -1 0 0 1 16 463 1586 0 87 285 460 462 ?0 0 30 464 1604
 0 465 462 466 0 +10 7 2 0 -1 0 16 465 1602 0 81 467 285 464 ?0 0 30 466 1608 0
 467 464 468 0 +9 6 2 -1 0 0 16 467 1606 0 469 470 465 466 ?0 0 30 468 1611 0 47
0 466 471 0 +8 7 2 0 1 0 16 470 1609 0 54 289 467 468 ?0 0 30 471 1699 0 472 468
 473 0 +9 6 0 1 0 0 16 472 1791 0 76 474 475 471 ?0 0 30 473 1698 0 476 471 477
 0 +10 7 0 0 1 0 16 476 1792 0 74 478 474 473 ?0 0 30 477 1696 0 479 473 480 0 +
8 7 0 0 -1 0 16 479 1790 0 70 481 478 477 ?0 0 30 480 1695 0 482 477 483 0 +10 6
 0 0 0 1 16 482 1776 0 484 485 481 480 ?486 486 30 483 1694 0 481 480 487 0 +10
 8 0 0 0 1 16 481 1778 0 488 482 479 483 ?474 474 30 487 1693 0 489 483 490 0 +8
 8 0 0 0 1 16 489 1770 0 491 492 493 487 ?478 478 30 490 1692 0 492 487 494 0 +8
 6 0 0 0 1 16 492 1764 0 495 496 489 490 ?475 475 30 494 1687 0 485 490 497 0 +1
0 7 11 0 1 0 16 485 1773 0 78 493 482 494 ?0 0 30 497 1686 0 493 494 498 0 +10 4
 13 0 1 0 16 493 1772 0 64 489 485 497 ?0 0 30 498 1682 0 496 497 499 0 +8 7 11
 0 -1 0 16 496 1761 0 39 500 492 498 ?0 0 30 499 1681 0 500 498 501 0 +8 4 13 0
 -1 0 16 500 1760 0 502 503 496 499 ?0 0 30 501 1680 0 503 499 504 0 +9 6 11 1 0
 0 16 503 1758 0 61 505 500 501 ?0 0 30 504 1679 0 505 501 506 0 +9 6 13 1 0 0 1
6 505 1757 0 507 508 503 504 ?0 0 31 506 1856 0 508 504 509 0 +4 3 0 0 0 1 1 0 0
 1 16 508 1881 0 510 511 505 506 ?0 0 31 509 1854 0 511 506 512 0 +4 3 13 0 0 1
 1 0 0 1 16 511 1879 0 513 514 508 509 ?0 0 30 512 1853 0 514 509 515 0 +5 3 0 0
 0 1 16 514 1878 0 150 516 511 512 ?0 0 38 515 1852 0 516 512 517 0 +518 12 519
 520 521 16 516 1877 0 33 522 514 515 ?0 0 38 517 1851 0 522 515 523 0 +524 12 5
25 526 527 51 518 834 0 528 529 524 530 +5 3 4 0 1 612303176911189e-31 1 1 0 0 5
1 12 1847 0 531 532 6 533 +4 3 0 0 0 1 1 1 0 0 40 8 519 0 8 .0636838569116153 .3
922713850093225 ??4 4 4.0000002 4.055370288310995 3.99846588883765 3.67186175505
688 4.21512397049201 3.976586748486665 3.38034717921745 4.4420708522368 3.896980
134452615 3.170111413455865 4.65369403196734 3.756758952751985 3.061878378617695
 4.82450130507448 3.565860051541445 3.01552033638097 4.95091985739372 3.30943727
121068 3.0012051564001 4.9999613210563 2.991204751774995 3.00000000074803 41 1 5
20 L4 4 4.0000002 41 1 521 L4.9999613210563 2.991204751774995 3.00000000074803 1
4 531 1873 0 534 9 535 5 12 -?0 0 50 532 1674 0 534 536 12 0 +9 6 0 0 -1 0 0 0 -
1 141 533 515 537 537 12 141 537 517 533 533 12 14 534 1723 0 538 531 539 5 532
 -?540 540 50 536 1675 0 538 541 532 0 +8 7 0 -1 0 0 0 0 1 14 538 1729 0 542 534
 543 5 536 -?544 544 50 541 1677 0 542 545 536 0 +10 7 0 1 0 0 0 0 -1 14 542 174
1 0 544 538 546 5 541 -?547 547 51 545 1548 0 548 549 541 0 +11 0 7 0 1 61230317
6911189e-31 1 1 0 0 14 548 1576 0 550 551 552 5 545 -?0 0 51 549 1482 0 550 553
 545 0 +11 0 6 0 1 612303176911189e-31 1 1 0 0 14 550 1515 0 554 548 555 5 549 -
?0 0 51 553 1427 0 554 556 549 0 +7 0 7 0 1 612303176911189e-31 1 1 0 0 14 554 1
455 0 557 550 558 5 553 -?0 0 51 556 1361 0 557 559 553 0 +7 0 6 0 1 61230317691
1189e-31 1 1 0 0 14 557 1394 0 560 554 561 5 556 -?0 0 50 559 1234 0 560 562 556
 0 +6 1.5 6 -1 0 0 0 0 1 14 560 1295 0 563 557 564 5 559 -?0 0 50 562 1236 0 563
 565 559 0 +12 1.5 6 1 0 0 0 0 -1 14 563 1301 0 566 560 567 5 562 -?0 0 50 565 1
088 0 566 568 562 0 +9 1.5 8 0 0 1 1 0 0 14 566 1115 0 569 563 570 5 565 -?0 0 5
0 568 1093 0 569 571 565 0 +9 1.5 5 0 0 -1 -1 0 0 14 569 1123 0 572 566 573 5 56
8 -?0 0 51 571 1002 0 572 574 568 0 +13 3 9 0 1 612303176911189e-31 1 1 0 0 14 5
72 1030 0 575 569 576 5 571 -?0 0 51 574 946 0 575 524 571 0 +13 3 4 0 1 6123031
76911189e-31 1 1 0 0 14 575 974 0 577 572 578 5 574 -?0 0 51 524 890 0 577 518 5
74 579 +5 3 9 0 1 612303176911189e-31 1 1 0 0 14 577 918 0 528 575 580 5 524 -?0
 0 141 579 517 579 579 524 14 528 862 0 581 577 582 5 518 -?0 0 15 580 919 0 583
 577 0 17 583 580 27 584 148 153 364 0 17 27 580 390 583 25 585 522 0 17 584 580
 583 390 151 159 393 0 17 153 586 363 368 151 583 364 0 15 586 606 0 368 587 0 1
7 363 586 360 153 166 588 361 0 17 368 586 153 360 148 132 366 0 17 360 586 368
 363 130 589 356 0 17 132 590 135 150 130 368 366 0 15 590 1049 0 591 592 0 17 1
35 590 593 132 133 594 400 0 17 150 590 132 591 148 595 514 0 17 591 590 150 141
 31 350 348 0 17 595 596 597 585 31 150 514 0 15 596 1865 0 585 531 0 17 597 596
 598 595 28 33 516 0 17 585 596 595 598 148 27 522 0 17 598 596 585 597 25 30 59
9 0 16 522 1876 0 27 599 516 517 ?0 0 16 599 1875 0 30 383 522 523 ?0 0 17 30 60
0 156 601 28 598 599 0 16 383 1891 0 602 319 599 379 ?373 373 30 523 1850 0 599
 517 603 0 -4 4 0 0 0 1 30 603 1903 0 604 523 605 0 -12 5 7.5 1 0 61230317691118
9e-31 16 604 1902 0 24 606 319 603 ?0 0 30 605 1906 0 606 603 607 0 +12 5 5.5 1
 0 612303176911189e-31 16 606 1904 0 18 608 604 605 ?0 0 31 607 1923 0 608 605 1
3 0 +16 5 6.5 1 0 0 0 0 -1 1 16 608 1947 0 21 609 606 607 ?0 0 31 13 1922 0 609
 607 7 0 +14 5 6.5 1 0 0 0 0 -1 1 16 609 1946 0 15 10 608 13 ?0 0 17 15 610 611
 612 11 613 609 0 16 10 1944 0 614 0 609 7 ?0 0 17 614 615 614 614 0 616 10 0 15
 615 1935 0 614 9 617 17 616 618 616 616 0 614 10 0 15 618 1910 0 616 619 620 14
 619 1 0 621 622 618 5 623 +?0 0 15 620 4 0 238 619 0 17 238 620 226 246 230 251
 253 0 17 226 620 271 238 224 624 264 0 17 246 620 238 271 209 229 247 0 17 251
 249 242 625 209 238 253 0 15 249 1643 0 70 622 0 17 625 249 251 74 230 260 255
 0 17 74 249 625 76 56 626 476 0 17 260 627 67 624 56 625 255 0 15 627 1655 0 48
8 628 0 17 67 627 629 260 65 630 474 0 17 624 627 260 631 230 226 264 0 17 631 6
27 624 488 224 632 276 0 17 488 627 631 633 62 634 481 0 17 632 635 58 636 62 63
1 276 0 16 276 1647 0 631 486 261 270 ?272 272 16 486 1788 0 637 475 276 480 ?48
2 482 16 261 1629 0 236 276 289 259 ?255 255 17 236 638 223 72 234 639 261 0 16
 289 1614 0 640 261 470 282 ?284 284 17 640 641 215 78 172 633 289 0 15 641 119
 0 287 621 0 17 215 641 302 640 213 642 297 0 17 78 641 640 61 45 643 485 0 17 6
33 627 488 174 45 640 289 0 17 174 627 633 644 172 346 344 0 17 644 627 174 180
 169 304 288 0 17 346 645 324 642 169 174 344 0 15 645 536 0 646 647 0 17 324 64
5 646 346 175 171 308 0 17 642 645 346 646 172 215 297 0 17 646 645 642 324 213
 177 342 0 17 177 648 649 650 175 646 342 0 15 648 558 0 382 651 0 17 649 648 24
 177 19 652 319 0 17 650 648 177 192 213 302 257 0 17 192 648 650 321 190 653 33
2 0 17 302 641 208 215 190 650 257 0 17 208 641 287 302 206 654 299 0 17 287 641
 39 208 48 655 284 0 17 654 656 653 336 190 208 299 0 15 656 445 0 326 657 0 17
 653 656 326 654 193 192 332 0 17 336 656 654 326 206 189 334 0 17 326 656 336 6
53 187 195 322 0 17 189 638 658 655 187 336 334 0 15 638 1662 0 72 551 0 17 658
 638 201 189 196 307 305 0 17 655 638 189 50 206 287 284 0 17 50 638 655 274 48
 491 489 0 17 274 638 50 223 40 659 272 0 17 491 543 502 660 40 50 489 0 15 543
 1730 0 502 538 0 17 502 543 661 491 34 47 500 0 17 660 543 491 661 48 39 496 0
 17 661 543 660 502 37 495 492 0 17 39 641 61 287 37 660 496 0 17 61 641 78 39 5
9 662 503 0 17 662 539 495 663 37 61 503 0 15 539 1724 0 507 534 0 17 495 539 50
7 662 34 661 492 0 17 663 539 662 507 59 484 482 0 17 507 539 663 495 51 36 505
 0 17 484 546 64 643 51 663 482 0 15 546 1742 0 64 542 0 17 64 546 634 484 62 58
 493 0 17 643 546 484 634 59 78 485 0 17 634 546 643 64 45 488 481 0 17 58 635 3
6 632 51 64 493 0 15 635 1671 0 47 664 0 17 36 635 47 58 34 507 505 0 17 47 635
 659 36 40 502 500 0 17 659 635 665 47 221 274 272 0 17 665 635 666 659 205 278
 275 0 17 666 635 636 665 227 245 279 0 17 278 667 668 220 221 665 275 0 15 667
 26 0 220 669 0 17 668 667 233 278 234 223 266 0 17 220 667 278 233 205 241 248
 0 17 233 667 220 668 231 250 252 0 17 250 249 639 242 234 233 252 0 17 639 249
 70 250 55 236 261 0 17 70 249 76 639 44 670 479 0 17 76 249 74 70 68 671 472 0
 17 670 672 673 674 55 70 479 0 15 672 1732 0 674 544 0 17 673 672 43 670 52 72
 478 0 17 674 672 670 43 44 675 475 0 17 43 672 674 673 41 54 470 0 17 675 676 6
77 671 41 674 475 0 16 475 1785 0 675 472 486 490 ?492 492 15 676 1726 0 678 540
 0 17 677 676 678 675 79 469 467 0 17 671 676 675 678 44 76 472 0 17 678 676 671
 677 68 637 486 0 17 637 679 680 626 79 678 486 0 15 679 1744 0 630 547 0 17 680
 679 630 637 65 81 465 0 17 626 679 637 630 68 74 476 0 17 630 679 626 680 56 67
 474 0 16 474 1787 0 67 476 472 483 ?481 481 17 81 681 469 283 79 680 465 0 15 6
81 127 0 469 682 0 17 469 681 54 81 41 677 467 0 17 283 681 81 212 65 629 281 0
 17 212 681 283 292 210 683 294 0 17 629 627 180 67 210 283 281 0 17 180 627 644
 629 178 341 339 0 17 341 684 683 311 210 180 339 0 15 684 494 0 311 685 0 17 68
3 684 686 341 181 212 294 0 17 311 684 341 686 178 186 309 0 17 686 684 311 683
 184 183 337 0 17 186 687 318 304 184 311 309 0 15 687 303 0 318 688 0 17 318 68
7 21 186 16 689 313 0 17 304 687 186 171 178 644 288 0 17 171 687 304 652 169 32
4 308 0 17 652 687 171 21 175 649 319 0 17 21 687 652 318 19 690 608 0 16 319 18
97 0 652 604 383 314 ?313 313 17 690 617 691 692 16 21 608 0 15 617 1936 0 613 9
 0 17 691 617 613 690 11 18 606 0 17 692 617 690 613 19 24 604 0 17 613 617 692
 691 22 15 609 0 17 24 648 602 649 22 692 604 0 17 602 648 168 24 136 612 383 0
 17 168 648 588 602 166 693 398 0 17 612 610 15 138 22 602 383 0 15 610 775 0 61
2 694 0 17 138 610 612 380 136 388 374 0 17 380 610 138 695 133 593 369 0 17 388
 576 594 693 133 138 374 0 15 576 1025 0 594 572 0 17 594 576 589 388 130 135 40
0 0 17 693 576 388 589 136 168 398 0 17 589 576 693 594 166 360 356 0 17 695 610
 380 611 142 372 370 0 17 593 590 141 135 142 380 369 0 17 141 590 591 593 139 1
44 396 0 17 144 578 372 696 142 141 396 0 15 578 969 0 697 575 0 17 372 578 697
 144 160 695 370 0 17 696 578 144 697 139 147 347 0 17 697 578 696 372 145 162 3
95 0 17 147 698 355 350 145 696 347 0 15 698 614 0 147 699 0 17 355 698 358 147
 163 700 353 0 17 350 698 147 358 139 591 348 0 17 358 698 350 355 31 701 351 0
 17 701 582 702 33 163 358 351 0 15 582 857 0 377 528 0 17 702 582 377 701 154 1
65 391 0 17 33 582 701 377 31 597 516 0 17 377 582 33 702 28 156 375 0 17 156 60
0 385 30 154 377 375 0 15 600 769 0 601 581 0 17 385 600 601 156 157 703 378 0 1
7 601 600 30 385 25 390 386 0 17 703 648 165 159 154 385 378 0 17 165 648 700 70
3 163 702 391 0 17 159 648 703 588 157 584 393 0 17 588 648 159 168 151 363 361
 0 17 700 648 162 165 145 355 353 0 17 162 648 382 700 160 697 395 0 17 382 648
 18 162 11 611 373 0 17 18 648 689 382 16 691 606 0 17 611 610 695 15 160 382 37
3 0 17 689 648 183 18 184 318 313 0 17 183 648 704 689 181 686 337 0 17 704 648
 204 183 216 292 290 0 17 204 648 321 704 202 705 327 0 17 292 681 212 218 181 7
04 290 0 17 218 681 292 706 216 707 293 0 17 706 681 218 54 199 708 285 0 17 707
 709 331 705 199 218 293 0 15 709 389 0 705 710 0 17 331 709 315 707 196 201 329
 0 17 705 709 707 315 216 204 327 0 17 315 709 705 331 202 198 312 0 17 198 711
 307 712 196 315 312 0 15 711 297 0 307 713 0 17 307 711 195 198 187 658 305 0 1
7 712 711 198 195 202 321 316 0 17 195 711 712 307 193 326 322 0 17 321 648 192
 204 193 712 316 0 14 713 296 0 688 710 711 5 714 -?0 0 14 688 302 0 664 713 687
 5 715 -?0 0 14 710 394 0 713 657 709 5 716 -?0 0 50 714 233 0 713 715 716 0 +2
 7 3 -1 0 0 0 0 1 50 715 235 0 688 717 714 0 +16 7 3 1 0 0 0 0 -1 51 716 370 0 7
10 714 718 0 +3 5 3 0 1 612303176911189e-31 1 1 0 0 51 718 419 0 657 716 719 0 +
3 5 10 0 1 612303176911189e-31 1 1 0 0 14 657 444 0 710 685 656 5 718 -?0 0 51 7
19 468 0 685 718 720 0 +15 5 3 0 1 612303176911189e-31 1 1 0 0 14 685 493 0 657
 647 684 5 719 -?0 0 51 720 517 0 647 719 721 0 +15 5 10 0 1 612303176911189e-31
 1 1 0 0 14 647 541 0 685 699 645 5 720 -?0 0 50 721 583 0 699 720 722 0 +9 4 3
 0 0 -1 -1 0 0 14 699 613 0 647 592 698 5 721 -?0 0 50 722 579 0 592 721 723 0 +
9 3 3 0 -1 0 0 0 -1 14 592 607 0 699 587 724 5 722 -?0 0 50 723 578 0 587 722 72
5 0 +9 4 10 0 0 1 1 0 0 14 587 605 0 592 694 586 5 723 -?0 0 50 725 709 0 694 72
3 529 0 +14 4 4 1 0 0 0 0 -1 14 694 774 0 587 581 610 5 725 -?0 0 50 529 707 0 5
81 725 518 0 +4 4 4 -1 0 0 0 0 1 14 581 768 0 694 528 600 5 529 -?0 0 15 724 107
0 0 438 592 590 17 438 724 87 96 88 726 429 0 17 87 724 727 438 85 90 463 0 17 9
6 724 438 728 94 99 456 0 17 726 567 93 729 94 438 429 0 15 567 1302 0 93 563 0
 17 93 567 436 726 91 428 426 0 17 729 567 726 436 88 446 425 0 17 436 567 729 9
3 118 730 434 0 17 446 552 731 90 118 729 425 0 15 552 1571 0 731 548 0 17 731 5
52 732 446 82 120 460 0 17 90 552 446 732 88 87 463 0 17 732 552 90 731 85 84 41
3 0 17 84 570 424 418 82 732 413 0 15 570 1116 0 424 566 0 17 424 570 421 84 124
 733 422 0 17 418 570 84 421 85 727 416 0 17 421 570 418 424 103 734 419 0 17 72
7 724 108 87 103 418 416 0 17 108 724 735 727 106 105 452 0 17 735 724 114 108 1
15 440 433 0 17 105 558 734 448 103 108 452 0 15 558 1456 0 448 554 0 17 734 558
 736 105 124 421 419 0 17 448 558 105 736 106 102 444 0 17 736 558 448 734 100 1
26 454 0 17 102 564 737 440 100 448 444 0 15 564 1296 0 737 560 0 17 737 564 738
 102 121 443 441 0 17 440 564 102 738 106 735 433 0 17 738 564 440 737 115 432 4
30 0 17 432 561 739 117 121 738 430 0 15 561 1387 0 739 557 0 17 739 561 740 432
 109 123 450 0 17 117 561 432 740 115 114 449 0 17 740 561 117 739 112 111 407 0
 17 114 724 728 735 112 117 449 0 17 728 724 96 114 97 412 410 0 17 412 573 111
 409 112 728 410 0 15 573 1124 0 409 569 0 17 111 573 406 412 109 740 407 0 17 4
09 573 412 406 97 741 402 0 17 406 573 409 111 127 742 404 0 17 741 555 743 99 1
27 409 402 0 15 555 1508 0 99 550 0 17 743 555 428 741 91 129 458 0 17 99 555 74
1 428 97 96 456 0 17 428 555 99 743 94 93 426 0 17 129 744 742 730 127 743 458 0
 15 744 1541 0 120 244 240 17 742 744 123 129 109 406 404 0 17 730 744 129 120 9
1 436 434 0 17 120 744 730 733 118 731 460 0 17 733 744 120 126 82 424 422 0 17
 126 744 733 443 124 736 454 0 17 443 744 126 123 100 737 441 0 17 123 744 443 7
42 121 739 450 0 14 244 30 0 669 664 744 5 745 +?0 0 14 669 27 0 628 244 667 5 7
46 +?0 0 14 664 33 0 244 688 747 5 748 +?0 0 50 745 46 0 244 746 748 0 +9 0 0 0
 -1 0 0 0 -1 50 746 45 0 669 749 745 0 +0 4 0 -1 0 0 0 0 1 50 748 51 0 664 745 7
50 0 +9 4 13 0 0 1 1 0 0 50 750 84 0 682 748 751 0 +9 7 2 0 0 -1 -1 0 0 14 682 1
26 0 0 651 681 5 750 -?0 0 50 751 80 0 651 750 717 0 +9 5 2 0 -1 0 0 0 -1 14 651
 120 0 682 621 648 5 751 -?0 0 50 717 79 0 621 751 715 0 +9 7 11 0 0 1 1 0 0 14
 621 118 0 651 619 641 5 717 -?0 0 50 749 44 0 628 623 746 0 +9 8 0 0 1 0 0 0 1
 14 628 24 0 622 669 627 5 749 +?551 551 50 623 43 0 619 752 749 0 +18 4 0 1 0 0
 0 0 -1 50 752 34 0 622 0 623 0 +9 4 0 0 0 -1 -1 0 0 14 622 6 0 619 628 753 5 75
2 +?0 0 15 753 1822 0 510 622 249 17 510 753 510 510 0 754 508 0 17 754 535 754
 754 0 510 508 0 15 535 1863 0 754 531 755 15 755 1864 0 513 531 596 17 513 755
 513 513 0 756 511 0 17 756 747 756 756 0 513 511 0 15 747 1827 0 756 664 635 14
 551 1656 0 548 540 638 5 749 +?628 628 14 540 1747 0 551 547 676 5 532 -?534 53
4 14 547 1755 0 540 544 679 5 541 -?542 542 14 544 1749 0 547 542 672 5 536 -?53
8 538 17 201 638 708 658 199 331 329 0 17 708 638 72 201 52 706 285 0 17 72 638
 236 708 55 673 478 0 16 285 1599 0 706 465 463 280 ?281 281 16 478 1786 0 673 4
79 476 487 ?489 489 17 54 681 706 469 52 43 470 0 17 390 580 584 27 157 601 386
 0 14 9 1941 0 531 0 615 5 6 -?0 0 17 223 638 274 236 221 668 266 0 17 636 635 6
32 666 224 271 269 0 17 245 240 241 229 205 666 279 0 17 271 620 246 226 227 636
 269 0 141 530 515 530 530 518 40 8 525 0 8 .0636838569116162 .392271385009324 ?
?5 2.9999998 10 4.944629711689 3.32813824494312 9.99846588883765 4.7848760295079
9 3.61965282078255 9.97658674848666 4.5579291477632 3.82988858654414 9.896980134
45261 4.346305968032655 3.938121621382305 9.75675895275198 4.175498694925525 3.9
8447966361903 9.56586005154144 4.04908014260628 3.9987948435999 9.30943727121068
 4.0000386789437 3.99999999925197 8.99120475177499 41 1 526 L5 2.9999998 10 41 1
 527 L4.0000386789437 3.99999999925197 8.99120475177499 1 0 





