600 0 1 0           
69 GICL ACIS Healer - Source: nut_244_link_short_link_43_outer.sat - 6 0 18 ACIS 6.0.3 Solaris 24 Fri Mar 29 22:11:38 2002 
1 9.999999999999999547e-07 1.000000000000000036e-10 
body $1 $2 $-1 $-1 #
aggregate_advspl_attribute-aggregate_geombuild_base_attribute-aggregate_body_attribute-attrib_HH-attrib $-1 $3 $-1 $0 F #
lump $-1 $-1 $4 $0 #
aggregate_secndry_attribute-aggregate_geombuild_base_attribute-aggregate_body_attribute-attrib_HH-attrib $-1 $5 $1 $0 F #
shell $-1 $-1 $-1 $6 $-1 $2 #
aggregate_sharped_attribute-aggregate_geombuild_base_attribute-aggregate_body_attribute-attrib_HH-attrib $-1 $7 $3 $0 F #
face $8 $9 $10 $4 $-1 $11 reversed single #
aggregate_reblend_attribute-aggregate_geombuild_base_attribute-aggregate_body_attribute-attrib_HH-attrib $-1 $12 $5 $0 F #
attrib_hh_face_geombuild-attrib_entity_geombuild-individual_entity_attribute-attrib_HH-attrib $-1 $-1 $-1 $6 F #
face $13 $14 $15 $4 $-1 $16 forward single #
loop $-1 $17 $18 $6 #
plane-surface $-1 -3.005199999999999871 -5.216999999999999638 4.130200000000000315 0 -1 0 0.7071067811865473507 0 -0.7071067811865473507 forward_v I I I I #
aggregate_isospline_attribute-aggregate_geombuild_base_attribute-aggregate_body_attribute-attrib_HH-attrib $-1 $19 $7 $0 F #
attrib_hh_face_geombuild-attrib_entity_geombuild-individual_entity_attribute-attrib_HH-attrib $-1 $-1 $-1 $9 F #
face $20 $21 $22 $4 $-1 $23 forward single #
loop $-1 $24 $25 $9 #
plane-surface $-1 -3.005199999999999871 -5.403999999999999915 4.130200000000000315 0 -1 0 0.7071067811865473507 0 -0.7071067811865473507 forward_v I I I I #
loop $-1 $-1 $26 $6 #
coedge $27 $28 $29 $30 $31 forward $10 $-1 #
aggregate_analytic_solver_attribute-aggregate_geombuild_base_attribute-aggregate_body_attribute-attrib_HH-attrib $-1 $32 $12 $0 F #
attrib_hh_face_geombuild-attrib_entity_geombuild-individual_entity_attribute-attrib_HH-attrib $-1 $-1 $-1 $14 F #
face $33 $34 $35 $4 $-1 $36 forward single #
loop $-1 $-1 $30 $14 #
plane-surface $-1 -3.250579148639815674 -5.216999999999999638 4.193826514738705491 -0.961612840141369718 -0 -0.274409813372715361 0.2744098133727153055 0 -0.961612840141369607 forward_v I I I I #
loop $-1 $-1 $37 $9 #
coedge $38 $39 $40 $41 $42 reversed $15 $-1 #
coedge $43 $26 $26 $44 $45 forward $17 $-1 #
attrib_hh_coedge_geombuild-attrib_entity_geombuild-individual_entity_attribute-attrib_HH-attrib $-1 $-1 $-1 $18 F #
coedge $46 $47 $18 $48 $49 forward $10 $-1 #
coedge $50 $18 $51 $52 $53 forward $10 $-1 #
coedge $54 $55 $56 $18 $31 reversed $22 $-1 #
edge $57 $58 -0.2499999999999997502 $59 0 $30 $60 forward 7 unknown #
aggregate_geombuild_attribute-aggregate_geombuild_base_attribute-aggregate_body_attribute-attrib_HH-attrib $-1 $61 $19 $0 #
attrib_hh_face_geombuild-attrib_entity_geombuild-individual_entity_attribute-attrib_HH-attrib $-1 $-1 $-1 $21 F #
face $62 $63 $64 $4 $-1 $65 forward single #
loop $-1 $-1 $52 $21 #
plane-surface $-1 -3.181976695296636848 -5.216999999999999638 3.953423304703363339 -0.274409813372715361 0 -0.961612840141369718 0.961612840141369607 0 -0.2744098133727153055 forward_v I I I I #
coedge $66 $37 $37 $67 $68 reversed $24 $-1 #
attrib_hh_coedge_geombuild-attrib_entity_geombuild-individual_entity_attribute-attrib_HH-attrib $-1 $-1 $-1 $25 F #
coedge $69 $70 $25 $71 $72 reversed $15 $-1 #
coedge $73 $25 $74 $75 $76 reversed $15 $-1 #
coedge $77 $56 $55 $25 $42 forward $22 $-1 #
edge $78 $79 -0.2499999999999997502 $80 0 $41 $81 forward 7 unknown #
attrib_hh_coedge_geombuild-attrib_entity_geombuild-individual_entity_attribute-attrib_HH-attrib $-1 $-1 $-1 $26 F #
coedge $82 $44 $44 $26 $45 reversed $83 $-1 #
edge $84 $85 -3.141592653589793116 $85 3.141592653589793116 $44 $86 forward 7 unknown #
attrib_hh_coedge_geombuild-attrib_entity_geombuild-individual_entity_attribute-attrib_HH-attrib $-1 $-1 $-1 $28 F #
coedge $87 $88 $28 $89 $90 forward $10 $-1 #
coedge $91 $92 $93 $28 $49 reversed $94 $-1 #
edge $95 $59 -0.2570370398599823303 $96 0 $48 $97 forward 7 unknown #
attrib_hh_coedge_geombuild-attrib_entity_geombuild-individual_entity_attribute-attrib_HH-attrib $-1 $-1 $-1 $29 F #
coedge $98 $29 $88 $99 $100 forward $10 $-1 #
coedge $101 $102 $103 $29 $53 reversed $35 $-1 #
edge $104 $105 -0.2500000000000001665 $58 0 $52 $106 forward 7 unknown #
attrib_hh_coedge_geombuild-attrib_entity_geombuild-individual_entity_attribute-attrib_HH-attrib $-1 $-1 $-1 $30 F #
coedge $107 $41 $30 $103 $108 reversed $22 $-1 #
coedge $109 $30 $41 $92 $110 forward $22 $-1 #
attrib_hh_edge_geombuild-attrib_entity_geombuild-individual_entity_attribute-attrib_HH-attrib $-1 $-1 $-1 $31 F #
vertex $111 $108 $112 #
vertex $113 $110 $114 #
straight-curve $-1 -3.250579148639815674 -5.216999999999999638 4.193826514738705491 -0.2744098133727153055 0 0.961612840141369607 I I #
aggregate_stitch_attribute-aggregate_stitch_base_attribute-aggregate_body_attribute-attrib_HH-attrib $-1 $115 $32 $0 F #
attrib_hh_face_geombuild-attrib_entity_geombuild-individual_entity_attribute-attrib_HH-attrib $-1 $-1 $-1 $34 F #
face $116 $117 $118 $4 $-1 $119 forward single #
loop $-1 $-1 $99 $34 #
plane-surface $-1 -2.941573485261294252 -5.216999999999999638 3.884820851360184513 0.7071067811865474617 0 -0.7071067811865474617 0.7071067811865473507 0 0.7071067811865473507 forward_v I I I I #
attrib_hh_coedge_geombuild-attrib_entity_geombuild-individual_entity_attribute-attrib_HH-attrib $-1 $-1 $-1 $37 F #
coedge $120 $67 $67 $37 $68 forward $121 $-1 #
edge $122 $123 0 $123 6.283185307179586232 $67 $124 forward 7 unknown #
attrib_hh_coedge_geombuild-attrib_entity_geombuild-individual_entity_attribute-attrib_HH-attrib $-1 $-1 $-1 $39 F #
coedge $125 $126 $39 $127 $128 reversed $15 $-1 #
coedge $129 $103 $102 $39 $72 forward $35 $-1 #
edge $130 $131 -0.2500000000000001665 $79 0 $71 $132 forward 7 unknown #
attrib_hh_coedge_geombuild-attrib_entity_geombuild-individual_entity_attribute-attrib_HH-attrib $-1 $-1 $-1 $40 F #
coedge $133 $40 $126 $134 $135 reversed $15 $-1 #
coedge $136 $93 $92 $40 $76 forward $94 $-1 #
edge $137 $80 -0.2570370398599823303 $138 0 $75 $139 forward 7 unknown #
attrib_hh_coedge_geombuild-attrib_entity_geombuild-individual_entity_attribute-attrib_HH-attrib $-1 $-1 $-1 $41 F #
attrib_hh_edge_geombuild-attrib_entity_geombuild-individual_entity_attribute-attrib_HH-attrib $-1 $-1 $-1 $42 F #
vertex $140 $108 $141 #
vertex $142 $110 $143 #
straight-curve $-1 -3.250579148639815674 -5.403999999999999915 4.193826514738705491 -0.2744098133727153055 0 0.961612840141369607 I I #
attrib_hh_coedge_geombuild-attrib_entity_geombuild-individual_entity_attribute-attrib_HH-attrib $-1 $-1 $-1 $44 F #
loop $-1 $-1 $44 $144 #
attrib_hh_edge_geombuild-attrib_entity_geombuild-individual_entity_attribute-attrib_HH-attrib $-1 $-1 $-1 $45 F #
vertex $145 $45 $146 #
ellipse-curve $-1 -3.005199999999999871 -5.216999999999999638 4.130200000000000315 0 -1 0 -0.08838834764831841884 0 -0.08838834764831841884 1 I I #
attrib_hh_coedge_geombuild-attrib_entity_geombuild-individual_entity_attribute-attrib_HH-attrib $-1 $-1 $-1 $47 F #
coedge $147 $51 $47 $148 $149 forward $10 $-1 #
coedge $150 $151 $152 $47 $90 reversed $153 $-1 #
edge $154 $96 -0.2500000000000003331 $155 0 $89 $156 forward 7 unknown #
attrib_hh_coedge_geombuild-attrib_entity_geombuild-individual_entity_attribute-attrib_HH-attrib $-1 $-1 $-1 $48 F #
coedge $157 $75 $48 $56 $110 reversed $94 $-1 #
coedge $158 $48 $75 $151 $159 forward $94 $-1 #
loop $-1 $-1 $48 $160 #
attrib_hh_edge_geombuild-attrib_entity_geombuild-individual_entity_attribute-attrib_HH-attrib $-1 $-1 $-1 $49 F #
vertex $161 $159 $162 #
straight-curve $-1 -3.068826514738705491 -5.216999999999999638 4.375579148639816118 0.7071067811865473507 0 0.7071067811865473507 I I #
attrib_hh_coedge_geombuild-attrib_entity_geombuild-individual_entity_attribute-attrib_HH-attrib $-1 $-1 $-1 $51 F #
coedge $163 $164 $165 $51 $100 reversed $64 $-1 #
edge $166 $167 -0.2570370398599823303 $105 0 $99 $168 forward 7 unknown #
attrib_hh_coedge_geombuild-attrib_entity_geombuild-individual_entity_attribute-attrib_HH-attrib $-1 $-1 $-1 $52 F #
coedge $169 $71 $52 $165 $170 reversed $35 $-1 #
coedge $171 $52 $71 $55 $108 forward $35 $-1 #
attrib_hh_edge_geombuild-attrib_entity_geombuild-individual_entity_attribute-attrib_HH-attrib $-1 $-1 $-1 $53 F #
vertex $172 $170 $173 #
straight-curve $-1 -3.181976695296636848 -5.216999999999999638 3.953423304703363339 -0.961612840141369607 -0 0.2744098133727153055 I I #
attrib_hh_coedge_geombuild-attrib_entity_geombuild-individual_entity_attribute-attrib_HH-attrib $-1 $-1 $-1 $55 F #
edge $174 $79 -0.1870000000000003049 $58 0 $103 $175 forward 7 unknown #
attrib_hh_coedge_geombuild-attrib_entity_geombuild-individual_entity_attribute-attrib_HH-attrib $-1 $-1 $-1 $56 F #
edge $176 $80 -0.1870000000000003049 $59 0 $92 $177 forward 7 unknown #
attrib_hh_vertex_geombuild-attrib_entity_geombuild-individual_entity_attribute-attrib_HH-attrib $-1 $-1 $-1 $58 F #
point $-1 -3.181976695296636848 -5.216999999999999638 3.953423304703363339 #
attrib_hh_vertex_geombuild-attrib_entity_geombuild-individual_entity_attribute-attrib_HH-attrib $-1 $-1 $-1 $59 F #
point $-1 -3.250579148639815674 -5.216999999999999638 4.193826514738705491 #
aggregate_simgeom_attribute-aggregate_simgeom_base_attribute-aggregate_body_attribute-attrib_HH-attrib $-1 $-1 $61 $0 F #
attrib_hh_face_geombuild-attrib_entity_geombuild-individual_entity_attribute-attrib_HH-attrib $-1 $-1 $-1 $63 F #
face $178 $160 $153 $4 $-1 $179 forward single #
loop $-1 $-1 $148 $63 #
plane-surface $-1 -2.759820851360184069 -5.216999999999999638 4.06657348526129514 0.961612840141369718 0 0.274409813372715361 -0.2744098133727153055 0 0.961612840141369607 forward_v I I I I #
attrib_hh_coedge_geombuild-attrib_entity_geombuild-individual_entity_attribute-attrib_HH-attrib $-1 $-1 $-1 $67 F #
loop $-1 $83 $67 $144 #
attrib_hh_edge_geombuild-attrib_entity_geombuild-individual_entity_attribute-attrib_HH-attrib $-1 $-1 $-1 $68 F #
vertex $180 $68 $181 #
ellipse-curve $-1 -3.005199999999999871 -5.403999999999999915 4.130200000000000315 0 -1 0 0.08838834764831841884 0 0.08838834764831841884 1 I I #
attrib_hh_coedge_geombuild-attrib_entity_geombuild-individual_entity_attribute-attrib_HH-attrib $-1 $-1 $-1 $70 F #
coedge $182 $74 $70 $183 $184 reversed $15 $-1 #
coedge $185 $165 $164 $70 $128 forward $64 $-1 #
edge $186 $187 -0.2570370398599823303 $131 0 $127 $188 forward 7 unknown #
attrib_hh_coedge_geombuild-attrib_entity_geombuild-individual_entity_attribute-attrib_HH-attrib $-1 $-1 $-1 $71 F #
attrib_hh_edge_geombuild-attrib_entity_geombuild-individual_entity_attribute-attrib_HH-attrib $-1 $-1 $-1 $72 F #
vertex $189 $170 $190 #
straight-curve $-1 -3.181976695296636848 -5.403999999999999915 3.953423304703363339 -0.961612840141369607 -0 0.2744098133727153055 I I #
attrib_hh_coedge_geombuild-attrib_entity_geombuild-individual_entity_attribute-attrib_HH-attrib $-1 $-1 $-1 $74 F #
coedge $191 $152 $151 $74 $135 forward $153 $-1 #
edge $192 $138 -0.2500000000000003331 $193 0 $134 $194 forward 7 unknown #
attrib_hh_coedge_geombuild-attrib_entity_geombuild-individual_entity_attribute-attrib_HH-attrib $-1 $-1 $-1 $75 F #
attrib_hh_edge_geombuild-attrib_entity_geombuild-individual_entity_attribute-attrib_HH-attrib $-1 $-1 $-1 $76 F #
vertex $195 $159 $196 #
straight-curve $-1 -3.068826514738705491 -5.403999999999999915 4.375579148639816118 0.7071067811865473507 0 0.7071067811865473507 I I #
attrib_hh_vertex_geombuild-attrib_entity_geombuild-individual_entity_attribute-attrib_HH-attrib $-1 $-1 $-1 $79 F #
point $-1 -3.181976695296636848 -5.403999999999999915 3.953423304703363339 #
attrib_hh_vertex_geombuild-attrib_entity_geombuild-individual_entity_attribute-attrib_HH-attrib $-1 $-1 $-1 $80 F #
point $-1 -3.250579148639815674 -5.403999999999999915 4.193826514738705491 #
face $197 $-1 $121 $4 $-1 $198 reversed single #
attrib_hh_vertex_geombuild-attrib_entity_geombuild-individual_entity_attribute-attrib_HH-attrib $-1 $-1 $-1 $85 F #
point $-1 -2.916811652351681605 -5.216999999999999638 4.218588347648318582 #
attrib_hh_coedge_geombuild-attrib_entity_geombuild-individual_entity_attribute-attrib_HH-attrib $-1 $-1 $-1 $88 F #
coedge $199 $200 $201 $88 $149 reversed $118 $-1 #
edge $202 $155 -0.2499999999999993061 $167 0 $148 $203 forward 7 unknown #
attrib_hh_coedge_geombuild-attrib_entity_geombuild-individual_entity_attribute-attrib_HH-attrib $-1 $-1 $-1 $89 F #
coedge $204 $134 $89 $93 $159 reversed $153 $-1 #
coedge $205 $89 $134 $200 $206 forward $153 $-1 #
loop $-1 $-1 $89 $117 #
attrib_hh_edge_geombuild-attrib_entity_geombuild-individual_entity_attribute-attrib_HH-attrib $-1 $-1 $-1 $90 F #
vertex $207 $206 $208 #
straight-curve $-1 -2.828423304703362895 -5.216999999999999638 4.306976695296636848 0.961612840141369607 0 -0.2744098133727153055 I I #
attrib_hh_coedge_geombuild-attrib_entity_geombuild-individual_entity_attribute-attrib_HH-attrib $-1 $-1 $-1 $92 F #
attrib_hh_coedge_geombuild-attrib_entity_geombuild-individual_entity_attribute-attrib_HH-attrib $-1 $-1 $-1 $93 F #
edge $209 $138 -0.1870000000000003049 $96 0 $93 $210 forward 7 unknown #
face $211 $144 $94 $4 $-1 $212 forward single #
attrib_hh_vertex_geombuild-attrib_entity_geombuild-individual_entity_attribute-attrib_HH-attrib $-1 $-1 $-1 $96 F #
point $-1 -3.068826514738705491 -5.216999999999999638 4.375579148639816118 #
attrib_hh_coedge_geombuild-attrib_entity_geombuild-individual_entity_attribute-attrib_HH-attrib $-1 $-1 $-1 $99 F #
coedge $213 $127 $99 $201 $214 reversed $64 $-1 #
coedge $215 $99 $127 $102 $170 forward $64 $-1 #
attrib_hh_edge_geombuild-attrib_entity_geombuild-individual_entity_attribute-attrib_HH-attrib $-1 $-1 $-1 $100 F #
vertex $216 $214 $217 #
straight-curve $-1 -2.941573485261294252 -5.216999999999999638 3.884820851360184513 -0.7071067811865473507 0 -0.7071067811865473507 I I #
attrib_hh_coedge_geombuild-attrib_entity_geombuild-individual_entity_attribute-attrib_HH-attrib $-1 $-1 $-1 $102 F #
edge $218 $131 -0.1870000000000003049 $105 0 $165 $219 forward 7 unknown #
attrib_hh_coedge_geombuild-attrib_entity_geombuild-individual_entity_attribute-attrib_HH-attrib $-1 $-1 $-1 $103 F #
attrib_hh_vertex_geombuild-attrib_entity_geombuild-individual_entity_attribute-attrib_HH-attrib $-1 $-1 $-1 $105 F #
point $-1 -2.941573485261294252 -5.216999999999999638 3.884820851360184513 #
attrib_hh_edge_geombuild-attrib_entity_geombuild-individual_entity_attribute-attrib_HH-attrib $-1 $-1 $-1 $108 F #
straight-curve $-1 -3.181976695296636848 -5.216999999999999638 3.953423304703363339 0 0.999999999999999889 0 I I #
attrib_hh_edge_geombuild-attrib_entity_geombuild-individual_entity_attribute-attrib_HH-attrib $-1 $-1 $-1 $110 F #
straight-curve $-1 -3.250579148639815674 -5.216999999999999638 4.193826514738705491 0 0.999999999999999889 0 I I #
attrib_hh_face_geombuild-attrib_entity_geombuild-individual_entity_attribute-attrib_HH-attrib $-1 $-1 $-1 $117 F #
plane-surface $-1 -2.828423304703362895 -5.216999999999999638 4.306976695296636848 0.274409813372715361 0 0.961612840141369718 -0.961612840141369607 -0 0.2744098133727153055 forward_v I I I I #
attrib_hh_vertex_geombuild-attrib_entity_geombuild-individual_entity_attribute-attrib_HH-attrib $-1 $-1 $-1 $123 F #
point $-1 -2.916811652351681605 -5.403999999999999915 4.218588347648318582 #
attrib_hh_coedge_geombuild-attrib_entity_geombuild-individual_entity_attribute-attrib_HH-attrib $-1 $-1 $-1 $126 F #
coedge $220 $201 $200 $126 $184 forward $118 $-1 #
edge $221 $193 -0.2499999999999993061 $187 0 $183 $222 forward 7 unknown #
attrib_hh_coedge_geombuild-attrib_entity_geombuild-individual_entity_attribute-attrib_HH-attrib $-1 $-1 $-1 $127 F #
attrib_hh_edge_geombuild-attrib_entity_geombuild-individual_entity_attribute-attrib_HH-attrib $-1 $-1 $-1 $128 F #
vertex $223 $214 $224 #
straight-curve $-1 -2.941573485261294252 -5.403999999999999915 3.884820851360184513 -0.7071067811865473507 0 -0.7071067811865473507 I I #
attrib_hh_vertex_geombuild-attrib_entity_geombuild-individual_entity_attribute-attrib_HH-attrib $-1 $-1 $-1 $131 F #
point $-1 -2.941573485261294252 -5.403999999999999915 3.884820851360184513 #
attrib_hh_coedge_geombuild-attrib_entity_geombuild-individual_entity_attribute-attrib_HH-attrib $-1 $-1 $-1 $134 F #
attrib_hh_edge_geombuild-attrib_entity_geombuild-individual_entity_attribute-attrib_HH-attrib $-1 $-1 $-1 $135 F #
vertex $225 $206 $226 #
straight-curve $-1 -2.828423304703362895 -5.403999999999999915 4.306976695296636848 0.961612840141369607 0 -0.2744098133727153055 I I #
attrib_hh_vertex_geombuild-attrib_entity_geombuild-individual_entity_attribute-attrib_HH-attrib $-1 $-1 $-1 $138 F #
point $-1 -3.068826514738705491 -5.403999999999999915 4.375579148639816118 #
attrib_hh_face_geombuild-attrib_entity_geombuild-individual_entity_attribute-attrib_HH-attrib $-1 $-1 $-1 $144 F #
cone-surface $-1 -3.005199999999999871 -5.403999999999999915 4.130200000000000315 0 1 0 0.08838834764831841884 0 0.08838834764831841884 1 I I 0 1 0.1249999999999999861 forward I I I I #
attrib_hh_coedge_geombuild-attrib_entity_geombuild-individual_entity_attribute-attrib_HH-attrib $-1 $-1 $-1 $148 F #
coedge $227 $183 $148 $152 $206 reversed $118 $-1 #
coedge $228 $148 $183 $164 $214 forward $118 $-1 #
attrib_hh_edge_geombuild-attrib_entity_geombuild-individual_entity_attribute-attrib_HH-attrib $-1 $-1 $-1 $149 F #
straight-curve $-1 -2.759820851360184069 -5.216999999999999638 4.06657348526129514 0.2744098133727153055 0 -0.961612840141369607 I I #
attrib_hh_coedge_geombuild-attrib_entity_geombuild-individual_entity_attribute-attrib_HH-attrib $-1 $-1 $-1 $151 F #
attrib_hh_coedge_geombuild-attrib_entity_geombuild-individual_entity_attribute-attrib_HH-attrib $-1 $-1 $-1 $152 F #
edge $229 $193 -0.1870000000000003049 $155 0 $152 $230 forward 7 unknown #
attrib_hh_vertex_geombuild-attrib_entity_geombuild-individual_entity_attribute-attrib_HH-attrib $-1 $-1 $-1 $155 F #
point $-1 -2.828423304703362895 -5.216999999999999638 4.306976695296636848 #
attrib_hh_edge_geombuild-attrib_entity_geombuild-individual_entity_attribute-attrib_HH-attrib $-1 $-1 $-1 $159 F #
straight-curve $-1 -3.068826514738705491 -5.216999999999999638 4.375579148639816118 0 0.999999999999999889 0 I I #
attrib_hh_face_geombuild-attrib_entity_geombuild-individual_entity_attribute-attrib_HH-attrib $-1 $-1 $-1 $160 F #
plane-surface $-1 -3.068826514738705491 -5.216999999999999638 4.375579148639816118 -0.7071067811865474617 0 0.7071067811865474617 -0.7071067811865473507 0 -0.7071067811865473507 forward_v I I I I #
attrib_hh_coedge_geombuild-attrib_entity_geombuild-individual_entity_attribute-attrib_HH-attrib $-1 $-1 $-1 $164 F #
edge $231 $187 -0.1870000000000003049 $167 0 $201 $232 forward 7 unknown #
attrib_hh_coedge_geombuild-attrib_entity_geombuild-individual_entity_attribute-attrib_HH-attrib $-1 $-1 $-1 $165 F #
attrib_hh_vertex_geombuild-attrib_entity_geombuild-individual_entity_attribute-attrib_HH-attrib $-1 $-1 $-1 $167 F #
point $-1 -2.759820851360184069 -5.216999999999999638 4.06657348526129514 #
attrib_hh_edge_geombuild-attrib_entity_geombuild-individual_entity_attribute-attrib_HH-attrib $-1 $-1 $-1 $170 F #
straight-curve $-1 -2.941573485261294252 -5.216999999999999638 3.884820851360184513 0 0.999999999999999889 0 I I #
attrib_hh_coedge_geombuild-attrib_entity_geombuild-individual_entity_attribute-attrib_HH-attrib $-1 $-1 $-1 $183 F #
attrib_hh_edge_geombuild-attrib_entity_geombuild-individual_entity_attribute-attrib_HH-attrib $-1 $-1 $-1 $184 F #
straight-curve $-1 -2.759820851360184069 -5.403999999999999915 4.06657348526129514 0.2744098133727153055 0 -0.961612840141369607 I I #
attrib_hh_vertex_geombuild-attrib_entity_geombuild-individual_entity_attribute-attrib_HH-attrib $-1 $-1 $-1 $187 F #
point $-1 -2.759820851360184069 -5.403999999999999915 4.06657348526129514 #
attrib_hh_vertex_geombuild-attrib_entity_geombuild-individual_entity_attribute-attrib_HH-attrib $-1 $-1 $-1 $193 F #
point $-1 -2.828423304703362895 -5.403999999999999915 4.306976695296636848 #
attrib_hh_coedge_geombuild-attrib_entity_geombuild-individual_entity_attribute-attrib_HH-attrib $-1 $-1 $-1 $200 F #
attrib_hh_coedge_geombuild-attrib_entity_geombuild-individual_entity_attribute-attrib_HH-attrib $-1 $-1 $-1 $201 F #
attrib_hh_edge_geombuild-attrib_entity_geombuild-individual_entity_attribute-attrib_HH-attrib $-1 $-1 $-1 $206 F #
straight-curve $-1 -2.828423304703362895 -5.216999999999999638 4.306976695296636848 0 0.999999999999999889 0 I I #
attrib_hh_edge_geombuild-attrib_entity_geombuild-individual_entity_attribute-attrib_HH-attrib $-1 $-1 $-1 $214 F #
straight-curve $-1 -2.759820851360184069 -5.216999999999999638 4.06657348526129514 0 0.999999999999999889 0 I I #
End-of-ACIS-data 