600 0 1 0           
74 GICL ACIS Healer - Source: screw_spacer66_to_flange202_back_left.sat - 6 0 18 ACIS 6.0.3 Solaris 24 Fri Mar 29 22:10:52 2002 
1 9.999999999999999547e-07 1.000000000000000036e-10 
body $1 $2 $-1 $-1 #
aggregate_advspl_attribute-aggregate_geombuild_base_attribute-aggregate_body_attribute-attrib_HH-attrib $-1 $3 $-1 $0 F #
lump $-1 $-1 $4 $0 #
aggregate_secndry_attribute-aggregate_geombuild_base_attribute-aggregate_body_attribute-attrib_HH-attrib $-1 $5 $1 $0 F #
shell $-1 $-1 $-1 $6 $-1 $2 #
aggregate_sharped_attribute-aggregate_geombuild_base_attribute-aggregate_body_attribute-attrib_HH-attrib $-1 $7 $3 $0 F #
face $8 $9 $10 $4 $-1 $11 reversed single #
aggregate_reblend_attribute-aggregate_geombuild_base_attribute-aggregate_body_attribute-attrib_HH-attrib $-1 $12 $5 $0 F #
attrib_hh_face_geombuild-attrib_entity_geombuild-individual_entity_attribute-attrib_HH-attrib $-1 $-1 $-1 $6 F #
face $13 $14 $15 $4 $-1 $16 reversed single #
loop $-1 $-1 $17 $6 #
plane-surface $-1 -5.245390000000000441 2.912510000000000598 5.59903000000000084 -0.8660217547228608037 0 -0.5000063203067910411 0 0.999999999999999889 0 forward_v I I I I #
aggregate_isospline_attribute-aggregate_geombuild_base_attribute-aggregate_body_attribute-attrib_HH-attrib $-1 $18 $7 $0 F #
attrib_hh_face_geombuild-attrib_entity_geombuild-individual_entity_attribute-attrib_HH-attrib $-1 $-1 $-1 $9 F #
face $19 $20 $21 $4 $-1 $22 reversed single #
loop $-1 $-1 $23 $9 #
plane-surface $-1 -5.10105000000000075 2.912510000000000598 5.59903000000000084 0 0 -1 0 0.999999999999999889 0 forward_v I I I I #
coedge $24 $25 $26 $27 $28 reversed $10 $-1 #
aggregate_analytic_solver_attribute-aggregate_geombuild_base_attribute-aggregate_body_attribute-attrib_HH-attrib $-1 $29 $12 $0 F #
attrib_hh_face_geombuild-attrib_entity_geombuild-individual_entity_attribute-attrib_HH-attrib $-1 $-1 $-1 $14 F #
face $30 $31 $32 $4 $-1 $33 reversed single #
loop $-1 $-1 $34 $14 #
plane-surface $-1 -5.028880000000000905 2.912510000000000598 5.72403000000000084 0.8660217547228608037 0 -0.5000063203067910411 0 -0.999999999999999889 0 forward_v I I I I #
coedge $35 $36 $37 $38 $39 reversed $15 $-1 #
attrib_hh_coedge_geombuild-attrib_entity_geombuild-individual_entity_attribute-attrib_HH-attrib $-1 $-1 $-1 $17 F #
coedge $40 $41 $17 $42 $43 forward $10 $-1 #
coedge $44 $17 $41 $36 $45 reversed $10 $-1 #
coedge $46 $38 $47 $17 $28 forward $48 $-1 #
edge $49 $50 -0.1082545438749901584 $51 0.03608363160190849322 $27 $52 forward 7 unknown #
aggregate_geombuild_attribute-aggregate_geombuild_base_attribute-aggregate_body_attribute-attrib_HH-attrib $-1 $53 $18 $0 #
attrib_hh_face_geombuild-attrib_entity_geombuild-individual_entity_attribute-attrib_HH-attrib $-1 $-1 $-1 $20 F #
face $54 $55 $56 $4 $-1 $57 reversed single #
loop $-1 $-1 $58 $20 #
plane-surface $-1 -5.10105000000000075 2.912510000000000598 5.84903000000000084 0.8660217547228608037 0 0.5000063203067910411 0 -0.999999999999999889 0 forward_v I I I I #
coedge $59 $60 $61 $62 $63 reversed $21 $-1 #
attrib_hh_coedge_geombuild-attrib_entity_geombuild-individual_entity_attribute-attrib_HH-attrib $-1 $-1 $-1 $23 F #
coedge $64 $65 $23 $26 $45 forward $15 $-1 #
coedge $66 $23 $65 $60 $67 reversed $15 $-1 #
coedge $68 $62 $27 $23 $39 forward $48 $-1 #
edge $69 $51 -0.108254999999999782 $70 0.03608499999999992963 $38 $71 forward 7 unknown #
attrib_hh_coedge_geombuild-attrib_entity_geombuild-individual_entity_attribute-attrib_HH-attrib $-1 $-1 $-1 $25 F #
coedge $72 $26 $25 $73 $74 reversed $10 $-1 #
coedge $75 $76 $77 $25 $43 reversed $56 $-1 #
edge $78 $50 0.1000100000000001682 $79 0.1937099999999998545 $42 $80 forward 7 unknown #
attrib_hh_coedge_geombuild-attrib_entity_geombuild-individual_entity_attribute-attrib_HH-attrib $-1 $-1 $-1 $26 F #
edge $81 $51 0.1000100000000001682 $82 0.1937099999999998545 $26 $83 forward 7 unknown #
attrib_hh_coedge_geombuild-attrib_entity_geombuild-individual_entity_attribute-attrib_HH-attrib $-1 $-1 $-1 $27 F #
coedge $84 $27 $85 $76 $86 forward $48 $-1 #
loop $-1 $87 $88 $89 #
attrib_hh_edge_geombuild-attrib_entity_geombuild-individual_entity_attribute-attrib_HH-attrib $-1 $-1 $-1 $28 F #
vertex $90 $28 $91 #
vertex $92 $39 $93 #
straight-curve $-1 -5.263432043860576393 2.812500000000000444 5.630279209956658981 0.5000063203067909301 0 -0.8660217547228606927 I I #
aggregate_stitch_attribute-aggregate_stitch_base_attribute-aggregate_body_attribute-attrib_HH-attrib $-1 $94 $29 $0 F #
attrib_hh_face_geombuild-attrib_entity_geombuild-individual_entity_attribute-attrib_HH-attrib $-1 $-1 $-1 $31 F #
face $95 $96 $97 $4 $-1 $98 reversed single #
loop $-1 $-1 $76 $31 #
plane-surface $-1 -5.317560000000000286 2.912510000000000598 5.72403000000000084 -0.8660217547228608037 0 0.5000063203067910411 0 0.999999999999999889 0 forward_v I I I I #
coedge $99 $100 $101 $88 $102 reversed $32 $-1 #
attrib_hh_coedge_geombuild-attrib_entity_geombuild-individual_entity_attribute-attrib_HH-attrib $-1 $-1 $-1 $34 F #
coedge $103 $104 $34 $37 $67 forward $21 $-1 #
coedge $105 $34 $104 $100 $106 reversed $21 $-1 #
coedge $107 $88 $38 $34 $63 forward $48 $-1 #
edge $108 $70 -0.1082527193403578225 $109 0.03608545613654083606 $62 $110 forward 7 unknown #
attrib_hh_coedge_geombuild-attrib_entity_geombuild-individual_entity_attribute-attrib_HH-attrib $-1 $-1 $-1 $36 F #
coedge $111 $37 $36 $112 $113 reversed $15 $-1 #
attrib_hh_coedge_geombuild-attrib_entity_geombuild-individual_entity_attribute-attrib_HH-attrib $-1 $-1 $-1 $37 F #
edge $114 $70 0.1000100000000001682 $115 0.1937099999999998545 $37 $116 forward 7 unknown #
attrib_hh_coedge_geombuild-attrib_entity_geombuild-individual_entity_attribute-attrib_HH-attrib $-1 $-1 $-1 $38 F #
attrib_hh_edge_geombuild-attrib_entity_geombuild-individual_entity_attribute-attrib_HH-attrib $-1 $-1 $-1 $39 F #
vertex $117 $63 $118 #
straight-curve $-1 -5.137135000000000673 2.812500000000000444 5.59903000000000084 0.999999999999999889 0 0 I I #
attrib_hh_coedge_geombuild-attrib_entity_geombuild-individual_entity_attribute-attrib_HH-attrib $-1 $-1 $-1 $41 F #
coedge $119 $120 $112 $41 $74 forward $121 $-1 #
edge $122 $82 0 $79 0.1443381754768986447 $41 $123 forward 7 unknown #
attrib_hh_coedge_geombuild-attrib_entity_geombuild-individual_entity_attribute-attrib_HH-attrib $-1 $-1 $-1 $42 F #
coedge $124 $125 $42 $47 $86 reversed $56 $-1 #
coedge $126 $42 $125 $120 $127 reversed $56 $-1 #
attrib_hh_edge_geombuild-attrib_entity_geombuild-individual_entity_attribute-attrib_HH-attrib $-1 $-1 $-1 $43 F #
vertex $128 $43 $129 #
straight-curve $-1 -5.317560000000000286 2.912510000000000598 5.72403000000000084 0 -0.999999999999999889 0 I I #
attrib_hh_edge_geombuild-attrib_entity_geombuild-individual_entity_attribute-attrib_HH-attrib $-1 $-1 $-1 $45 F #
vertex $130 $45 $131 #
straight-curve $-1 -5.245390000000000441 2.912510000000000598 5.59903000000000084 0 -0.999999999999999889 0 I I #
attrib_hh_coedge_geombuild-attrib_entity_geombuild-individual_entity_attribute-attrib_HH-attrib $-1 $-1 $-1 $47 F #
coedge $132 $47 $88 $133 $134 forward $48 $-1 #
edge $135 $136 -0.1082527193403578225 $50 0.03608545613654083606 $47 $137 forward 7 unknown #
loop $-1 $-1 $138 $89 #
coedge $139 $85 $62 $58 $102 forward $48 $-1 #
face $140 $141 $48 $4 $-1 $142 forward single #
attrib_hh_vertex_geombuild-attrib_entity_geombuild-individual_entity_attribute-attrib_HH-attrib $-1 $-1 $-1 $50 F #
point $-1 -5.317560000000000286 2.812500000000000444 5.72403000000000084 #
attrib_hh_vertex_geombuild-attrib_entity_geombuild-individual_entity_attribute-attrib_HH-attrib $-1 $-1 $-1 $51 F #
point $-1 -5.245390000000000441 2.812500000000000444 5.59903000000000084 #
aggregate_simgeom_attribute-aggregate_simgeom_base_attribute-aggregate_body_attribute-attrib_HH-attrib $-1 $-1 $53 $0 F #
attrib_hh_face_geombuild-attrib_entity_geombuild-individual_entity_attribute-attrib_HH-attrib $-1 $-1 $-1 $55 F #
face $143 $144 $121 $4 $-1 $145 reversed single #
loop $-1 $-1 $133 $55 #
plane-surface $-1 -5.245390000000000441 2.912510000000000598 5.84903000000000084 0 0 1 0 -0.999999999999999889 0 forward_v I I I I #
attrib_hh_coedge_geombuild-attrib_entity_geombuild-individual_entity_attribute-attrib_HH-attrib $-1 $-1 $-1 $58 F #
coedge $146 $147 $58 $61 $106 forward $32 $-1 #
coedge $148 $58 $147 $149 $150 reversed $32 $-1 #
edge $151 $109 -0.1082545438749901584 $152 0.03608363160190849322 $88 $153 forward 7 unknown #
attrib_hh_coedge_geombuild-attrib_entity_geombuild-individual_entity_attribute-attrib_HH-attrib $-1 $-1 $-1 $60 F #
coedge $154 $61 $60 $155 $156 reversed $21 $-1 #
attrib_hh_coedge_geombuild-attrib_entity_geombuild-individual_entity_attribute-attrib_HH-attrib $-1 $-1 $-1 $61 F #
edge $157 $109 0.1000100000000001682 $158 0.1937099999999998545 $61 $159 forward 7 unknown #
attrib_hh_coedge_geombuild-attrib_entity_geombuild-individual_entity_attribute-attrib_HH-attrib $-1 $-1 $-1 $62 F #
attrib_hh_edge_geombuild-attrib_entity_geombuild-individual_entity_attribute-attrib_HH-attrib $-1 $-1 $-1 $63 F #
vertex $160 $102 $161 #
straight-curve $-1 -5.046922956139424876 2.812500000000000444 5.692779209956658981 0.5000063203067909301 0 0.8660217547228606927 I I #
attrib_hh_coedge_geombuild-attrib_entity_geombuild-individual_entity_attribute-attrib_HH-attrib $-1 $-1 $-1 $65 F #
coedge $162 $73 $155 $65 $113 forward $121 $-1 #
edge $163 $115 0 $82 0.1443399999999997185 $65 $164 forward 7 unknown #
attrib_hh_edge_geombuild-attrib_entity_geombuild-individual_entity_attribute-attrib_HH-attrib $-1 $-1 $-1 $67 F #
vertex $165 $67 $166 #
straight-curve $-1 -5.10105000000000075 2.912510000000000598 5.59903000000000084 0 -0.999999999999999889 0 I I #
attrib_hh_vertex_geombuild-attrib_entity_geombuild-individual_entity_attribute-attrib_HH-attrib $-1 $-1 $-1 $70 F #
point $-1 -5.10105000000000075 2.812500000000000444 5.59903000000000084 #
attrib_hh_coedge_geombuild-attrib_entity_geombuild-individual_entity_attribute-attrib_HH-attrib $-1 $-1 $-1 $73 F #
coedge $167 $168 $73 $77 $127 forward $121 $-1 #
loop $-1 $-1 $169 $96 #
attrib_hh_edge_geombuild-attrib_entity_geombuild-individual_entity_attribute-attrib_HH-attrib $-1 $-1 $-1 $74 F #
straight-curve $-1 -5.245390000000000441 2.718800000000000772 5.59903000000000084 -0.5000063203067908191 0 0.8660217547228605817 I I #
attrib_hh_coedge_geombuild-attrib_entity_geombuild-individual_entity_attribute-attrib_HH-attrib $-1 $-1 $-1 $76 F #
coedge $170 $77 $76 $171 $172 forward $56 $-1 #
attrib_hh_coedge_geombuild-attrib_entity_geombuild-individual_entity_attribute-attrib_HH-attrib $-1 $-1 $-1 $77 F #
edge $173 $79 0 $174 0.1443381754768986447 $77 $175 forward 7 unknown #
attrib_hh_vertex_geombuild-attrib_entity_geombuild-individual_entity_attribute-attrib_HH-attrib $-1 $-1 $-1 $79 F #
point $-1 -5.317560000000000286 2.718800000000000772 5.72403000000000084 #
attrib_hh_vertex_geombuild-attrib_entity_geombuild-individual_entity_attribute-attrib_HH-attrib $-1 $-1 $-1 $82 F #
point $-1 -5.245390000000000441 2.718800000000000772 5.59903000000000084 #
attrib_hh_coedge_geombuild-attrib_entity_geombuild-individual_entity_attribute-attrib_HH-attrib $-1 $-1 $-1 $85 F #
coedge $176 $149 $171 $85 $134 reversed $97 $-1 #
edge $177 $152 -0.108254999999999782 $136 0.03608499999999992963 $85 $178 forward 7 unknown #
attrib_hh_edge_geombuild-attrib_entity_geombuild-individual_entity_attribute-attrib_HH-attrib $-1 $-1 $-1 $86 F #
vertex $179 $86 $180 #
straight-curve $-1 -5.299517043860576315 2.812500000000000444 5.755280790043342698 -0.5000063203067909301 0 -0.8660217547228606927 I I #
coedge $181 $138 $138 $182 $183 forward $87 $-1 #
attrib_hh_coedge_geombuild-attrib_entity_geombuild-individual_entity_attribute-attrib_HH-attrib $-1 $-1 $-1 $88 F #
attrib_hh_face_geombuild-attrib_entity_geombuild-individual_entity_attribute-attrib_HH-attrib $-1 $-1 $-1 $89 F #
face $184 $185 $186 $4 $-1 $187 forward single #
plane-surface $-1 -5.173220000000000596 2.812500000000000444 5.72403000000000084 0 1 0 0.999999999999999889 0 0 forward_v I I I I #
attrib_hh_face_geombuild-attrib_entity_geombuild-individual_entity_attribute-attrib_HH-attrib $-1 $-1 $-1 $96 F #
face $188 $189 $190 $4 $-1 $191 forward single #
plane-surface $-1 -5.10105000000000075 2.718800000000000772 5.84903000000000084 0 -1 0 -0.999999999999999889 0 0 forward_v I I I I #
attrib_hh_coedge_geombuild-attrib_entity_geombuild-individual_entity_attribute-attrib_HH-attrib $-1 $-1 $-1 $100 F #
coedge $192 $101 $100 $169 $193 reversed $32 $-1 #
attrib_hh_coedge_geombuild-attrib_entity_geombuild-individual_entity_attribute-attrib_HH-attrib $-1 $-1 $-1 $101 F #
coedge $194 $195 $133 $101 $150 forward $97 $-1 #
edge $196 $152 0.1000100000000001682 $197 0.1937099999999998545 $101 $198 forward 7 unknown #
attrib_hh_edge_geombuild-attrib_entity_geombuild-individual_entity_attribute-attrib_HH-attrib $-1 $-1 $-1 $102 F #
vertex $199 $102 $200 #
straight-curve $-1 -5.083007956139424799 2.812500000000000444 5.817780790043342698 -0.5000063203067909301 0 0.8660217547228606927 I I #
attrib_hh_coedge_geombuild-attrib_entity_geombuild-individual_entity_attribute-attrib_HH-attrib $-1 $-1 $-1 $104 F #
coedge $201 $112 $169 $104 $156 forward $121 $-1 #
edge $202 $158 0 $115 0.1443381754768986447 $104 $203 forward 7 unknown #
attrib_hh_edge_geombuild-attrib_entity_geombuild-individual_entity_attribute-attrib_HH-attrib $-1 $-1 $-1 $106 F #
vertex $204 $106 $205 #
straight-curve $-1 -5.028880000000000905 2.912510000000000598 5.72403000000000084 0 -0.999999999999999889 0 I I #
attrib_hh_vertex_geombuild-attrib_entity_geombuild-individual_entity_attribute-attrib_HH-attrib $-1 $-1 $-1 $109 F #
point $-1 -5.028880000000000905 2.812500000000000444 5.72403000000000084 #
attrib_hh_coedge_geombuild-attrib_entity_geombuild-individual_entity_attribute-attrib_HH-attrib $-1 $-1 $-1 $112 F #
attrib_hh_edge_geombuild-attrib_entity_geombuild-individual_entity_attribute-attrib_HH-attrib $-1 $-1 $-1 $113 F #
straight-curve $-1 -5.10105000000000075 2.718800000000000772 5.59903000000000084 -0.999999999999999889 0 0 I I #
attrib_hh_vertex_geombuild-attrib_entity_geombuild-individual_entity_attribute-attrib_HH-attrib $-1 $-1 $-1 $115 F #
point $-1 -5.10105000000000075 2.718800000000000772 5.59903000000000084 #
attrib_hh_coedge_geombuild-attrib_entity_geombuild-individual_entity_attribute-attrib_HH-attrib $-1 $-1 $-1 $120 F #
coedge $206 $169 $120 $195 $207 forward $121 $-1 #
coedge $208 $155 $168 $147 $193 forward $121 $-1 #
attrib_hh_coedge_geombuild-attrib_entity_geombuild-individual_entity_attribute-attrib_HH-attrib $-1 $-1 $-1 $125 F #
coedge $209 $133 $195 $125 $172 reversed $97 $-1 #
edge $210 $136 0.1000100000000001682 $174 0.1937099999999998545 $171 $211 forward 7 unknown #
attrib_hh_edge_geombuild-attrib_entity_geombuild-individual_entity_attribute-attrib_HH-attrib $-1 $-1 $-1 $127 F #
vertex $212 $172 $213 #
straight-curve $-1 -5.317560000000000286 2.718800000000000772 5.72403000000000084 0.5000063203067908191 0 0.8660217547228605817 I I #
attrib_hh_coedge_geombuild-attrib_entity_geombuild-individual_entity_attribute-attrib_HH-attrib $-1 $-1 $-1 $133 F #
attrib_hh_edge_geombuild-attrib_entity_geombuild-individual_entity_attribute-attrib_HH-attrib $-1 $-1 $-1 $134 F #
straight-curve $-1 -5.209305000000000518 2.812500000000000444 5.84903000000000084 -0.999999999999999889 0 0 I I #
attrib_hh_vertex_geombuild-attrib_entity_geombuild-individual_entity_attribute-attrib_HH-attrib $-1 $-1 $-1 $136 F #
point $-1 -5.245390000000000441 2.812500000000000444 5.84903000000000084 #
attrib_hh_coedge_geombuild-attrib_entity_geombuild-individual_entity_attribute-attrib_HH-attrib $-1 $-1 $-1 $138 F #
coedge $214 $182 $182 $138 $183 reversed $215 $-1 #
edge $216 $217 0 $217 6.283185307179586232 $138 $218 forward 7 unknown #
attrib_hh_face_geombuild-attrib_entity_geombuild-individual_entity_attribute-attrib_HH-attrib $-1 $-1 $-1 $141 F #
face $219 $-1 $220 $4 $-1 $221 forward single #
loop $-1 $222 $223 $141 #
cone-surface $-1 -5.173220000000000596 2.125000000000000444 5.72403000000000084 0 1 0 0.09499999999999998723 0 0 1 I I 0 1 0.09499999999999998723 forward I I I I #
attrib_hh_face_geombuild-attrib_entity_geombuild-individual_entity_attribute-attrib_HH-attrib $-1 $-1 $-1 $144 F #
face $224 $89 $225 $4 $-1 $226 forward single #
loop $-1 $227 $228 $144 #
plane-surface $-1 -5.173220000000000596 2.625000000000000444 5.72403000000000084 0 -1 0 -0.999999999999999889 0 0 forward_v I I I I #
attrib_hh_coedge_geombuild-attrib_entity_geombuild-individual_entity_attribute-attrib_HH-attrib $-1 $-1 $-1 $147 F #
edge $229 $197 0 $158 0.1443381754768986447 $147 $230 forward 7 unknown #
attrib_hh_coedge_geombuild-attrib_entity_geombuild-individual_entity_attribute-attrib_HH-attrib $-1 $-1 $-1 $149 F #
coedge $231 $171 $149 $168 $207 reversed $97 $-1 #
attrib_hh_edge_geombuild-attrib_entity_geombuild-individual_entity_attribute-attrib_HH-attrib $-1 $-1 $-1 $150 F #
vertex $232 $150 $233 #
straight-curve $-1 -5.10105000000000075 2.912510000000000598 5.84903000000000084 0 -0.999999999999999889 0 I I #
attrib_hh_vertex_geombuild-attrib_entity_geombuild-individual_entity_attribute-attrib_HH-attrib $-1 $-1 $-1 $152 F #
point $-1 -5.10105000000000075 2.812500000000000444 5.84903000000000084 #
attrib_hh_coedge_geombuild-attrib_entity_geombuild-individual_entity_attribute-attrib_HH-attrib $-1 $-1 $-1 $155 F #
attrib_hh_edge_geombuild-attrib_entity_geombuild-individual_entity_attribute-attrib_HH-attrib $-1 $-1 $-1 $156 F #
straight-curve $-1 -5.028880000000000905 2.718800000000000772 5.72403000000000084 -0.5000063203067908191 0 -0.8660217547228605817 I I #
attrib_hh_vertex_geombuild-attrib_entity_geombuild-individual_entity_attribute-attrib_HH-attrib $-1 $-1 $-1 $158 F #
point $-1 -5.028880000000000905 2.718800000000000772 5.72403000000000084 #
attrib_hh_coedge_geombuild-attrib_entity_geombuild-individual_entity_attribute-attrib_HH-attrib $-1 $-1 $-1 $168 F #
edge $234 $174 0 $197 0.1443399999999997185 $195 $235 forward 7 unknown #
attrib_hh_coedge_geombuild-attrib_entity_geombuild-individual_entity_attribute-attrib_HH-attrib $-1 $-1 $-1 $169 F #
attrib_hh_coedge_geombuild-attrib_entity_geombuild-individual_entity_attribute-attrib_HH-attrib $-1 $-1 $-1 $171 F #
attrib_hh_edge_geombuild-attrib_entity_geombuild-individual_entity_attribute-attrib_HH-attrib $-1 $-1 $-1 $172 F #
straight-curve $-1 -5.245390000000000441 2.912510000000000598 5.84903000000000084 0 -0.999999999999999889 0 I I #
attrib_hh_vertex_geombuild-attrib_entity_geombuild-individual_entity_attribute-attrib_HH-attrib $-1 $-1 $-1 $174 F #
point $-1 -5.245390000000000441 2.718800000000000772 5.84903000000000084 #
attrib_hh_coedge_geombuild-attrib_entity_geombuild-individual_entity_attribute-attrib_HH-attrib $-1 $-1 $-1 $182 F #
loop $-1 $-1 $182 $189 #
attrib_hh_edge_geombuild-attrib_entity_geombuild-individual_entity_attribute-attrib_HH-attrib $-1 $-1 $-1 $183 F #
vertex $236 $183 $237 #
ellipse-curve $-1 -5.173220000000000596 2.812500000000000444 5.72403000000000084 0 1 0 0.1875 0 0 1 I I #
attrib_hh_face_geombuild-attrib_entity_geombuild-individual_entity_attribute-attrib_HH-attrib $-1 $-1 $-1 $185 F #
loop $-1 $-1 $238 $185 #
plane-surface $-1 -5.173220000000000596 1.625000000000000666 5.72403000000000084 0 -1 0 -0.999999999999999889 0 0 forward_v I I I I #
loop $-1 $-1 $239 $141 #
coedge $240 $223 $223 $238 $241 reversed $186 $-1 #
attrib_hh_face_geombuild-attrib_entity_geombuild-individual_entity_attribute-attrib_HH-attrib $-1 $-1 $-1 $189 F #
loop $-1 $215 $242 $189 #
cone-surface $-1 -5.173220000000000596 2.718750000000000444 5.72403000000000084 0 1 0 0.1875 0 0 1 I I 0 1 0.1875 forward I I I I #
loop $-1 $-1 $243 $144 #
coedge $244 $228 $228 $242 $245 forward $190 $-1 #
attrib_hh_edge_geombuild-attrib_entity_geombuild-individual_entity_attribute-attrib_HH-attrib $-1 $-1 $-1 $193 F #
straight-curve $-1 -5.10105000000000075 2.718800000000000772 5.84903000000000084 0.5000063203067908191 0 -0.8660217547228605817 I I #
attrib_hh_coedge_geombuild-attrib_entity_geombuild-individual_entity_attribute-attrib_HH-attrib $-1 $-1 $-1 $195 F #
attrib_hh_vertex_geombuild-attrib_entity_geombuild-individual_entity_attribute-attrib_HH-attrib $-1 $-1 $-1 $197 F #
point $-1 -5.10105000000000075 2.718800000000000772 5.84903000000000084 #
attrib_hh_edge_geombuild-attrib_entity_geombuild-individual_entity_attribute-attrib_HH-attrib $-1 $-1 $-1 $207 F #
straight-curve $-1 -5.245390000000000441 2.718800000000000772 5.84903000000000084 0.999999999999999889 0 0 I I #
attrib_hh_vertex_geombuild-attrib_entity_geombuild-individual_entity_attribute-attrib_HH-attrib $-1 $-1 $-1 $217 F #
point $-1 -4.985720000000000596 2.812500000000000444 5.72403000000000084 #
coedge $246 $238 $238 $223 $241 forward $220 $-1 #
coedge $247 $239 $239 $243 $248 forward $222 $-1 #
attrib_hh_coedge_geombuild-attrib_entity_geombuild-individual_entity_attribute-attrib_HH-attrib $-1 $-1 $-1 $223 F #
edge $249 $250 0 $250 6.283185307179586232 $238 $251 forward 7 unknown #
coedge $252 $242 $242 $228 $245 reversed $225 $-1 #
coedge $253 $243 $243 $239 $248 reversed $227 $-1 #
attrib_hh_coedge_geombuild-attrib_entity_geombuild-individual_entity_attribute-attrib_HH-attrib $-1 $-1 $-1 $228 F #
edge $254 $255 0 $255 6.283185307179586232 $228 $256 forward 7 unknown #
attrib_hh_coedge_geombuild-attrib_entity_geombuild-individual_entity_attribute-attrib_HH-attrib $-1 $-1 $-1 $238 F #
attrib_hh_coedge_geombuild-attrib_entity_geombuild-individual_entity_attribute-attrib_HH-attrib $-1 $-1 $-1 $239 F #
edge $257 $258 -6.283185307179586232 $258 -0 $239 $259 reversed 7 unknown #
attrib_hh_edge_geombuild-attrib_entity_geombuild-individual_entity_attribute-attrib_HH-attrib $-1 $-1 $-1 $241 F #
vertex $260 $241 $261 #
ellipse-curve $-1 -5.173220000000000596 1.625000000000000666 5.72403000000000084 0 -1 0 0.09499999999999998723 0 0 1 I I #
attrib_hh_coedge_geombuild-attrib_entity_geombuild-individual_entity_attribute-attrib_HH-attrib $-1 $-1 $-1 $242 F #
attrib_hh_coedge_geombuild-attrib_entity_geombuild-individual_entity_attribute-attrib_HH-attrib $-1 $-1 $-1 $243 F #
attrib_hh_edge_geombuild-attrib_entity_geombuild-individual_entity_attribute-attrib_HH-attrib $-1 $-1 $-1 $245 F #
vertex $262 $245 $263 #
ellipse-curve $-1 -5.173220000000000596 2.625000000000000444 5.72403000000000084 0 -1 0 0.1875 0 0 1 I I #
attrib_hh_edge_geombuild-attrib_entity_geombuild-individual_entity_attribute-attrib_HH-attrib $-1 $-1 $-1 $248 F #
vertex $264 $248 $265 #
ellipse-curve $-1 -5.173220000000000596 2.625000000000000444 5.72403000000000084 0 1 0 0.09499999999999998723 0 0 1 I I #
attrib_hh_vertex_geombuild-attrib_entity_geombuild-individual_entity_attribute-attrib_HH-attrib $-1 $-1 $-1 $250 F #
point $-1 -5.078220000000000844 1.625000000000000666 5.72403000000000084 #
attrib_hh_vertex_geombuild-attrib_entity_geombuild-individual_entity_attribute-attrib_HH-attrib $-1 $-1 $-1 $255 F #
point $-1 -4.985720000000000596 2.625000000000000444 5.72403000000000084 #
attrib_hh_vertex_geombuild-attrib_entity_geombuild-individual_entity_attribute-attrib_HH-attrib $-1 $-1 $-1 $258 F #
point $-1 -5.078220000000000844 2.625000000000000444 5.72403000000000084 #
End-of-ACIS-data 