104 952 0 0                             
body $-1 $1 $-1 $2 #
lump $-1 $-1 $3 $0 #
transform $-1 1 0 0 0 1 0 0 0 1 0 0 0 1 0 0 0 #
shell $-1 $-1 $-1 $4 $1 #
face $5 $6 $7 $3 $-1 $8 1 #
face_name-twe-attrib $-1 $-1 $-1 $4 1 #
face $9 $10 $11 $3 $-1 $12 0 #
loop $13 $14 $15 $4 #
plane-surface $16 0 0 0 0 0 1 1 0 0 0 #
face_name-twe-attrib $-1 $-1 $-1 $6 2 #
face $17 $18 $19 $3 $-1 $20 0 #
loop $21 $22 $23 $6 #
plane-surface $24 0 0 25 0 0 1 1 0 0 0 #
loop_type-twe-attrib $-1 $-1 $-1 $7 0 #
loop $25 $-1 $26 $4 #
coedge $-1 $27 $28 $29 $30 0 $7 $-1 #
surf-twe-attrib $-1 $-1 $-1 $8 4 #
face_name-twe-attrib $-1 $-1 $-1 $10 3 #
face $31 $32 $33 $3 $-1 $34 0 #
loop $35 $-1 $29 $10 #
plane-surface $36 50 -36 0 1 0 0 0 0 -1 0 #
loop_type-twe-attrib $-1 $-1 $-1 $11 0 #
loop $37 $-1 $38 $6 #
coedge $-1 $39 $40 $41 $42 1 $11 $-1 #
surf-twe-attrib $-1 $-1 $-1 $12 6 #
loop_type-twe-attrib $-1 $-1 $-1 $14 1 #
coedge $-1 $26 $26 $43 $44 0 $14 $-1 #
coedge $-1 $45 $15 $46 $47 0 $7 $-1 #
coedge $-1 $15 $48 $49 $50 0 $7 $-1 #
coedge $-1 $51 $52 $15 $30 1 $19 $-1 #
edge $53 $54 $55 $29 $56 0 #
face_name-twe-attrib $-1 $-1 $-1 $18 4 #
face $57 $58 $59 $3 $-1 $60 1 #
loop $61 $-1 $49 $18 #
plane-surface $62 50 -28 0 0.342020143325668 0.939692620785909 0 0 0 1 0 #
loop_type-twe-attrib $-1 $-1 $-1 $19 0 #
surf-twe-attrib $-1 $63 $-1 $20 64 #
loop_type-twe-attrib $-1 $-1 $-1 $22 1 #
coedge $-1 $38 $38 $65 $66 1 $22 $-1 #
coedge $-1 $67 $23 $68 $69 1 $11 $-1 #
coedge $-1 $23 $70 $71 $72 1 $11 $-1 #
coedge $-1 $52 $51 $23 $42 0 $19 $-1 #
edge $73 $74 $75 $41 $76 0 #
coedge $-1 $43 $43 $26 $44 1 $77 $-1 #
edge $78 $79 $79 $43 $80 0 #
coedge $-1 $81 $27 $82 $83 0 $7 $-1 #
coedge $-1 $84 $85 $27 $47 1 $86 $-1 #
edge $87 $55 $88 $46 $89 0 #
coedge $-1 $28 $90 $91 $92 0 $7 $-1 #
coedge $-1 $93 $94 $28 $50 1 $33 $-1 #
edge $95 $96 $54 $49 $97 0 #
coedge $-1 $41 $29 $94 $98 1 $19 $-1 #
coedge $-1 $29 $41 $84 $99 0 $19 $-1 #
edge_name-twe-attrib $-1 $-1 $-1 $30 1 8704 #
vertex $-1 $98 $100 #
vertex $-1 $99 $101 #
straight-curve $102 50 -36 0 0 -1 0 #
face_name-twe-attrib $-1 $-1 $-1 $32 5 #
face $103 $104 $105 $3 $-1 $106 0 #
loop $107 $-1 $91 $32 #
cone-surface $108 37.311089140396 -16.9965475069915 0 0 0 1 -6 0 0 1 0 1 0 #
loop_type-twe-attrib $-1 $-1 $-1 $33 0 #
surf-twe-attrib $-1 $-1 $-1 $34 18 #
surf-twe-attrib $-1 $-1 $36 $20 10 #
face $109 $110 $111 $3 $-1 $112 0 #
coedge $-1 $65 $65 $38 $66 0 $113 $-1 #
edge $114 $115 $115 $65 $116 0 #
coedge $-1 $117 $39 $118 $119 1 $11 $-1 #
coedge $-1 $94 $93 $39 $69 0 $33 $-1 #
edge $120 $121 $74 $68 $122 0 #
coedge $-1 $40 $123 $124 $125 1 $11 $-1 #
coedge $-1 $85 $84 $40 $72 0 $86 $-1 #
edge $126 $75 $127 $71 $128 0 #
edge_name-twe-attrib $-1 $-1 $-1 $42 2 8704 #
vertex $-1 $98 $129 #
vertex $-1 $99 $130 #
straight-curve $131 50 -36 25 0 -1 0 #
loop $132 $133 $43 $134 #
edge_name-twe-attrib $-1 $-1 $-1 $44 49 4608 #
vertex $-1 $44 $135 #
ellipse-curve $136 0 0 0 0 0 1 -28 0 0 1 #
coedge $-1 $137 $45 $138 $139 0 $7 $-1 #
coedge $-1 $140 $141 $45 $83 1 $142 $-1 #
edge $143 $88 $144 $82 $145 0 #
coedge $-1 $71 $46 $52 $99 1 $86 $-1 #
coedge $-1 $46 $71 $140 $146 0 $86 $-1 #
loop $147 $-1 $46 $148 #
edge_name-twe-attrib $-1 $-1 $-1 $47 45 8704 #
vertex $-1 $146 $149 #
straight-curve $150 -50 -36 0 -1 0 0 #
coedge $-1 $48 $151 $152 $153 0 $7 $-1 #
coedge $-1 $154 $155 $48 $92 1 $59 $-1 #
edge $156 $157 $96 $91 $158 0 #
coedge $-1 $68 $49 $155 $159 1 $33 $-1 #
coedge $-1 $49 $68 $51 $98 0 $33 $-1 #
edge_name-twe-attrib $-1 $-1 $-1 $50 3 8704 #
vertex $-1 $159 $160 #
straight-curve $161 50 -28 0 0.939692620785908 -0.342020143325668 0 #
edge $162 $74 $54 $94 $163 0 #
edge $164 $75 $55 $84 $165 0 #
point $-1 50 -28 0 #
point $-1 50 -36 0 #
cur-twe-attrib $-1 $166 $-1 $56 167 #
face_name-twe-attrib $-1 $-1 $-1 $58 6 #
face $168 $169 $170 $3 $-1 $171 1 #
loop $172 $-1 $152 $58 #
cone-surface $173 0 0 0 0 0 1 -35 0 0 1 0 1 0 #
loop_type-twe-attrib $-1 $-1 $-1 $59 0 #
surf-twe-attrib $-1 $-1 $-1 $60 32 #
face_name-twe-attrib $-1 $-1 $-1 $64 9 #
face $174 $175 $176 $3 $-1 $177 0 #
loop $178 $-1 $179 $64 #
plane-surface $180 50 28 0 1 0 0 0 0 -1 0 #
loop $181 $182 $65 $183 #
edge_name-twe-attrib $-1 $-1 $-1 $66 80 8704 #
vertex $-1 $66 $184 #
ellipse-curve $185 0 0 25 0 0 1 -21.5 0 0 1 #
coedge $-1 $186 $67 $187 $188 1 $11 $-1 #
coedge $-1 $155 $154 $67 $119 0 $59 $-1 #
edge $189 $190 $121 $118 $191 0 #
edge_name-twe-attrib $-1 $-1 $-1 $69 4 8704 #
vertex $-1 $159 $192 #
straight-curve $193 50 -28 25 0.939692620785909 -0.342020143325668 0 #
coedge $-1 $70 $194 $195 $196 1 $11 $-1 #
coedge $-1 $141 $140 $70 $125 0 $142 $-1 #
edge $197 $127 $198 $124 $199 0 #
edge_name-twe-attrib $-1 $-1 $-1 $72 47 8704 #
vertex $-1 $146 $200 #
straight-curve $201 -50 -36 25 -1 0 0 #
point $-1 50 -28 25 #
point $-1 50 -36 25 #
cur-twe-attrib $-1 $202 $-1 $76 203 #
loop_type-twe-attrib $-1 $-1 $-1 $77 0 #
loop $204 $-1 $205 $134 #
face $206 $207 $77 $3 $-1 $208 0 #
point $-1 28 0 0 #
cur-twe-attrib $-1 $-1 $-1 $80 44 #
coedge $-1 $209 $81 $210 $211 0 $7 $-1 #
coedge $-1 $212 $213 $81 $139 1 $214 $-1 #
edge $215 $144 $216 $138 $217 0 #
coedge $-1 $124 $82 $85 $146 1 $142 $-1 #
coedge $-1 $82 $124 $212 $218 0 $142 $-1 #
loop $219 $-1 $82 $220 #
edge_name-twe-attrib $-1 $-1 $-1 $83 42 8704 #
vertex $-1 $218 $221 #
straight-curve $222 -50 -28 0 0 1 0 #
edge $223 $127 $88 $85 $224 0 #
loop_type-twe-attrib $-1 $-1 $-1 $86 0 #
face $225 $134 $86 $3 $-1 $226 0 #
point $-1 -50 -36 0 #
cur-twe-attrib $-1 $-1 $-1 $89 47 #
coedge $-1 $90 $227 $228 $229 0 $7 $-1 #
coedge $-1 $230 $231 $90 $153 1 $105 $-1 #
edge $232 $233 $157 $152 $234 0 #
coedge $-1 $118 $91 $231 $235 1 $59 $-1 #
coedge $-1 $91 $118 $93 $159 0 $59 $-1 #
edge_name-twe-attrib $-1 $-1 $-1 $92 6 8704 #
vertex $-1 $235 $236 #
ellipse-curve $237 37.311089140396 -16.9965475069915 0 0 0 1 -2.05212085995404 -5.63815572471544 0 1 #
edge $238 $121 $96 $155 $239 0 #
point $-1 35.258968280442 -22.634703231707 0 #
cur-twe-attrib $-1 $-1 $-1 $97 50 #
edge_name-twe-attrib $-1 $-1 $-1 $98 5 8448 #
straight-curve $240 50 -28 0 0 0 -1 #
edge_name-twe-attrib $-1 $-1 $-1 $99 46 8704 #
straight-curve $241 50 -36 0 0 0 -1 #
cur-twe-attrib $-1 $-1 $102 $56 30 #
edge $242 $243 $244 $179 $245 0 #
face_name-twe-attrib $-1 $-1 $-1 $104 7 #
face $246 $64 $247 $3 $-1 $248 0 #
loop $249 $-1 $228 $104 #
cone-surface $250 37.3110891403961 16.9965475069915 0 0 0 1 -6 0 0 1 0 1 0 #
loop_type-twe-attrib $-1 $-1 $-1 $105 0 #
surf-twe-attrib $-1 $251 $-1 $106 252 #
face_name-twe-attrib $-1 $-1 $-1 $110 10 #
face $253 $254 $255 $3 $-1 $256 0 #
loop $257 $-1 $258 $110 #
plane-surface $259 50 36 0 0 1 0 0 0 1 0 #
loop_type-twe-attrib $-1 $-1 $-1 $111 0 #
coedge $-1 $260 $261 $262 $167 1 $111 $-1 #
surf-twe-attrib $-1 $263 $-1 $112 64 #
loop_type-twe-attrib $-1 $-1 $-1 $113 0 #
loop $264 $265 $266 $183 #
face $267 $268 $113 $3 $-1 $269 1 #
point $-1 -21.5 0 25 #
cur-twe-attrib $-1 $-1 $-1 $116 66 #
coedge $-1 $270 $117 $271 $272 1 $11 $-1 #
coedge $-1 $231 $230 $117 $188 0 $105 $-1 #
edge $273 $274 $190 $187 $275 0 #
edge_name-twe-attrib $-1 $-1 $-1 $119 7 8704 #
vertex $-1 $235 $276 #
ellipse-curve $277 37.311089140396 -16.9965475069915 25 0 0 1 -2.05212085995404 -5.63815572471544 0 1 #
point $-1 35.258968280442 -22.634703231707 25 #
cur-twe-attrib $-1 $-1 $-1 $122 69 #
coedge $-1 $123 $278 $279 $280 1 $11 $-1 #
coedge $-1 $213 $212 $123 $196 0 $214 $-1 #
edge $281 $198 $282 $195 $283 0 #
edge_name-twe-attrib $-1 $-1 $-1 $125 43 8704 #
vertex $-1 $218 $284 #
straight-curve $285 -50 -28 25 0 1 0 #
point $-1 -50 -36 25 #
cur-twe-attrib $-1 $-1 $-1 $128 72 #
cur-twe-attrib $-1 $-1 $131 $76 42 #
edge $286 $287 $288 $289 $290 0 #
loop_type-twe-attrib $-1 $-1 $-1 $133 1 #
coedge $-1 $291 $292 $293 $294 0 $133 $-1 #
face_name-twe-attrib $-1 $-1 $-1 $134 19 #
face $295 $296 $297 $3 $-1 $298 1 #
cone-surface $299 0 0 0 0 0 -1 28 0 0 1 0 1 0 #
coedge $-1 $300 $137 $301 $302 0 $7 $-1 #
coedge $-1 $303 $304 $137 $211 1 $305 $-1 #
edge $306 $216 $307 $210 $308 0 #
coedge $-1 $195 $138 $141 $218 1 $214 $-1 #
coedge $-1 $138 $195 $303 $309 0 $214 $-1 #
loop $310 $-1 $138 $311 #
edge_name-twe-attrib $-1 $-1 $-1 $139 39 8704 #
vertex $-1 $309 $312 #
straight-curve $313 -35.258968280442 -22.634703231707 0 0.939692620785908 0.342020143325669 0 #
edge $314 $198 $144 $141 $315 0 #
loop_type-twe-attrib $-1 $-1 $-1 $142 0 #
face $316 $148 $142 $3 $-1 $317 0 #
point $-1 -50 -28 0 #
cur-twe-attrib $-1 $318 $-1 $145 83 #
edge_name-twe-attrib $-1 $-1 $-1 $146 48 8704 #
straight-curve $319 -50 -36 0 0 0 -1 #
face_name-twe-attrib $-1 $-1 $-1 $148 18 #
plane-surface $320 -50 -36 0 0 -1 0 0 0 -1 0 #
coedge $-1 $151 $262 $321 $322 0 $7 $-1 #
coedge $-1 $323 $324 $151 $229 1 $170 $-1 #
edge $325 $326 $233 $228 $327 0 #
coedge $-1 $187 $152 $324 $328 1 $105 $-1 #
coedge $-1 $152 $187 $154 $235 0 $105 $-1 #
edge_name-twe-attrib $-1 $-1 $-1 $153 9 8704 #
vertex $-1 $328 $329 #
ellipse-curve $330 0 0 0 0 0 -1 31.8509297539966 -14.5092478718221 0 1 #
edge $331 $190 $157 $231 $332 0 #
point $-1 31.8509297539966 -14.5092478718221 0 #
cur-twe-attrib $-1 $-1 $-1 $158 92 #
edge_name-twe-attrib $-1 $-1 $-1 $159 8 20480 #
straight-curve $333 35.258968280442 -22.634703231707 0 0 1.4210854715202e-16 -1 #
cur-twe-attrib $-1 $-1 $-1 $163 98 #
cur-twe-attrib $-1 $-1 $-1 $165 99 #
edge_name-twe-attrib $-1 $-1 $-1 $167 18 8704 #
vertex $-1 $334 $335 #
vertex $-1 $336 $337 #
straight-curve $338 50 28 0 0 -1 0 #
face_name-twe-attrib $-1 $-1 $-1 $169 8 #
loop $339 $-1 $321 $169 #
plane-surface $340 35.258968280442 22.634703231707 0 0.342020143325669 -0.939692620785908 0 0 0 -1 0 #
loop_type-twe-attrib $-1 $-1 $-1 $170 0 #
surf-twe-attrib $-1 $-1 $-1 $171 104 #
surf-twe-attrib $-1 $-1 $173 $106 58 #
face $341 $342 $343 $3 $-1 $344 0 #
face_name-twe-attrib $-1 $-1 $-1 $175 11 #
face $345 $346 $347 $3 $-1 $348 0 #
loop $349 $-1 $350 $175 #
plane-surface $351 -50 36 0 -1 0 0 0 0 1 0 #
loop_type-twe-attrib $-1 $-1 $-1 $176 0 #
coedge $-1 $352 $353 $354 $355 1 $176 $-1 #
surf-twe-attrib $-1 $-1 $-1 $177 110 #
coedge $-1 $289 $179 $353 $334 1 $111 $-1 #
coedge $-1 $179 $289 $356 $336 0 $111 $-1 #
coedge $-1 $227 $354 $179 $167 0 $7 $-1 #
surf-twe-attrib $-1 $-1 $180 $112 10 #
loop_type-twe-attrib $-1 $-1 $-1 $182 1 #
loop $357 $-1 $358 $183 #
coedge $-1 $266 $266 $359 $360 1 $182 $-1 #
face_name-twe-attrib $-1 $-1 $-1 $183 32 #
face $361 $362 $363 $3 $-1 $364 1 #
cone-surface $365 0 0 25 0 0 -1 -21.5 0 0 1 0 1 0 #
coedge $-1 $366 $186 $367 $368 1 $11 $-1 #
coedge $-1 $324 $323 $186 $272 0 $170 $-1 #
edge $369 $370 $274 $271 $371 0 #
edge_name-twe-attrib $-1 $-1 $-1 $188 10 8704 #
vertex $-1 $328 $372 #
ellipse-curve $373 0 0 25 0 0 -1 31.8509297539966 -14.5092478718221 0 1 #
point $-1 31.8509297539966 -14.5092478718221 25 #
cur-twe-attrib $-1 $-1 $-1 $191 119 #
coedge $-1 $194 $374 $375 $376 1 $11 $-1 #
coedge $-1 $304 $303 $194 $280 0 $305 $-1 #
edge $377 $282 $378 $279 $379 0 #
edge_name-twe-attrib $-1 $-1 $-1 $196 40 8704 #
vertex $-1 $309 $380 #
straight-curve $381 -35.258968280442 -22.634703231707 25 0.939692620785908 0.342020143325669 0 #
point $-1 -50 -28 25 #
cur-twe-attrib $-1 $382 $-1 $199 125 #
edge_name-twe-attrib $-1 $-1 $-1 $203 19 8704 #
vertex $-1 $334 $383 #
vertex $-1 $336 $384 #
coedge $-1 $261 $260 $366 $203 0 $111 $-1 #
straight-curve $385 50 28 25 0 -1 0 #
coedge $-1 $292 $205 $386 $387 1 $133 $-1 #
coedge $-1 $205 $291 $388 $389 1 $133 $-1 #
coedge $-1 $390 $391 $205 $294 1 $392 $-1 #
edge $393 $394 $395 $293 $396 0 #
face_name-twe-attrib $-1 $-1 $-1 $207 20 #
face $397 $398 $399 $3 $-1 $400 0 #
loop $401 $402 $403 $207 #
plane-surface $404 0 0 -38 0 0 -1 -1 0 0 0 #
surf-twe-attrib $-1 $-1 $-1 $208 134 #
coedge $-1 $405 $209 $406 $407 0 $7 $-1 #
coedge $-1 $408 $409 $209 $302 1 $343 $-1 #
edge $410 $307 $411 $301 $412 0 #
coedge $-1 $279 $210 $213 $309 1 $305 $-1 #
coedge $-1 $210 $279 $408 $413 0 $305 $-1 #
loop $414 $-1 $210 $342 #
edge_name-twe-attrib $-1 $-1 $-1 $211 36 8704 #
vertex $-1 $413 $415 #
ellipse-curve $416 -37.3110891403961 -16.9965475069915 0 0 0 1 5.46015938639938 2.48729963516958 0 1 #
edge $417 $282 $216 $213 $418 0 #
loop_type-twe-attrib $-1 $-1 $-1 $214 0 #
face $419 $220 $214 $3 $-1 $420 0 #
point $-1 -35.258968280442 -22.634703231707 0 #
cur-twe-attrib $-1 $-1 $-1 $217 139 #
edge_name-twe-attrib $-1 $-1 $-1 $218 44 8448 #
straight-curve $421 -50 -28 0 0 0 -1 #
face_name-twe-attrib $-1 $-1 $-1 $220 17 #
plane-surface $422 -50 -28 0 -1 0 0 0 0 1 0 #
cur-twe-attrib $-1 $-1 $222 $145 423 #
cur-twe-attrib $-1 $-1 $-1 $224 146 #
surf-twe-attrib $-1 $-1 $-1 $226 148 #
coedge $-1 $356 $424 $227 $322 1 $247 $-1 #
edge $425 $244 $326 $321 $426 0 #
coedge $-1 $271 $228 $424 $427 1 $170 $-1 #
coedge $-1 $228 $271 $230 $328 0 $170 $-1 #
edge_name-twe-attrib $-1 $-1 $-1 $229 12 8704 #
vertex $-1 $427 $428 #
ellipse-curve $429 37.3110891403961 16.9965475069915 0 0 0 1 -5.46015938639945 -2.48729963516944 0 1 #
edge $430 $274 $233 $324 $431 0 #
point $-1 31.8509297539966 14.5092478718221 0 #
cur-twe-attrib $-1 $-1 $-1 $234 153 #
edge_name-twe-attrib $-1 $-1 $-1 $235 11 24576 #
straight-curve $432 31.8509297539966 -14.5092478718221 0 -5.6843418860808e-16 6.3948846218409e-16 -1 #
cur-twe-attrib $-1 $-1 $-1 $239 159 #
edge $433 $287 $243 $353 $434 0 #
point $-1 50 36 0 #
edge $435 $288 $244 $261 $436 0 #
point $-1 50 28 0 #
cur-twe-attrib $-1 $437 $-1 $245 167 #
loop_type-twe-attrib $-1 $-1 $-1 $247 0 #
surf-twe-attrib $-1 $-1 $-1 $248 169 #
face_name-twe-attrib $-1 $-1 $-1 $252 14 #
face $438 $311 $305 $3 $-1 $439 1 #
loop $440 $-1 $301 $252 #
cone-surface $441 0 0 0 0 0 1 -35 0 0 1 0 1 0 #
face_name-twe-attrib $-1 $-1 $-1 $254 12 #
face $442 $252 $443 $3 $-1 $444 1 #
loop $445 $-1 $446 $254 #
plane-surface $447 -50 28 0 -0.342020143325669 -0.939692620785908 0 0 0 -1 0 #
loop_type-twe-attrib $-1 $-1 $-1 $255 0 #
coedge $-1 $448 $449 $450 $423 1 $255 $-1 #
surf-twe-attrib $-1 $451 $-1 $256 220 #
coedge $-1 $452 $258 $449 $453 1 $176 $-1 #
coedge $-1 $258 $452 $260 $334 0 $176 $-1 #
coedge $-1 $262 $450 $258 $355 0 $7 $-1 #
edge $454 $455 $243 $258 $456 0 #
coedge $-1 $367 $321 $261 $336 1 $247 $-1 #
loop_type-twe-attrib $-1 $-1 $-1 $265 1 #
coedge $-1 $457 $457 $458 $459 0 $265 $-1 #
coedge $-1 $359 $359 $266 $360 0 $460 $-1 #
edge $461 $462 $462 $266 $463 0 #
face_name-twe-attrib $-1 $-1 $-1 $268 33 #
face $464 $465 $466 $3 $-1 $467 0 #
loop $468 $469 $470 $268 #
plane-surface $471 0 -50 0 0 1 0 0 0 1 0 #
surf-twe-attrib $-1 $-1 $-1 $269 183 #
coedge $-1 $472 $270 $289 $203 1 $11 $-1 #
coedge $-1 $424 $356 $270 $368 0 $247 $-1 #
edge $473 $288 $370 $367 $474 0 #
edge_name-twe-attrib $-1 $-1 $-1 $272 13 8704 #
vertex $-1 $427 $475 #
ellipse-curve $476 37.3110891403961 16.9965475069915 25 0 0 1 -5.46015938639945 -2.48729963516944 0 1 #
point $-1 31.8509297539966 14.5092478718221 25 #
cur-twe-attrib $-1 $-1 $-1 $275 188 #
coedge $-1 $278 $477 $478 $479 1 $11 $-1 #
coedge $-1 $409 $408 $278 $376 0 $343 $-1 #
edge $480 $378 $481 $375 $482 0 #
edge_name-twe-attrib $-1 $-1 $-1 $280 37 8704 #
vertex $-1 $413 $483 #
ellipse-curve $484 -37.3110891403961 -16.9965475069915 25 0 0 1 5.46015938639938 2.48729963516958 0 1 #
point $-1 -35.258968280442 -22.634703231707 25 #
cur-twe-attrib $-1 $-1 $-1 $283 196 #
cur-twe-attrib $-1 $-1 $285 $199 485 #
point $-1 50 36 25 #
point $-1 50 28 25 #
cur-twe-attrib $-1 $486 $-1 $290 203 #
coedge $-1 $487 $388 $291 $387 0 $488 $-1 #
edge $489 $490 $395 $386 $491 0 #
coedge $-1 $386 $492 $292 $389 0 $488 $-1 #
edge $493 $394 $490 $388 $494 0 #
coedge $-1 $495 $293 $492 $496 0 $392 $-1 #
coedge $-1 $293 $497 $487 $498 1 $392 $-1 #
loop $499 $-1 $391 $207 #
edge_name-twe-attrib $-1 $-1 $-1 $294 50 4608 #
vertex $-1 $294 $500 #
vertex $-1 $294 $501 #
ellipse-curve $502 0 0 -38 0 0 1 -8.24621125123533 -26.7581763205193 0 1 #
face_name-twe-attrib $-1 $-1 $-1 $296 21 #
face $503 $504 $505 $3 $-1 $506 1 #
loop $507 $508 $509 $296 #
plane-surface $510 0 0 -56 0 0 -1 -1 0 0 0 #
loop_type-twe-attrib $-1 $-1 $-1 $297 1 #
loop $511 $392 $512 $207 #
coedge $-1 $403 $403 $513 $514 0 $297 $-1 #
surf-twe-attrib $-1 $-1 $-1 $298 207 #
coedge $-1 $450 $300 $446 $515 0 $7 $-1 #
coedge $-1 $516 $517 $300 $407 1 $443 $-1 #
edge $518 $411 $519 $406 $520 0 #
coedge $-1 $375 $301 $304 $413 1 $343 $-1 #
coedge $-1 $301 $375 $516 $521 0 $343 $-1 #
edge_name-twe-attrib $-1 $-1 $-1 $302 33 8704 #
vertex $-1 $521 $522 #
ellipse-curve $523 0 0 0 0 0 -1 -31.8509297539966 14.509247871822 0 1 #
edge $524 $378 $307 $304 $525 0 #
loop_type-twe-attrib $-1 $-1 $-1 $305 0 #
point $-1 -31.8509297539967 -14.509247871822 0 #
cur-twe-attrib $-1 $-1 $-1 $308 211 #
edge_name-twe-attrib $-1 $-1 $-1 $309 41 20480 #
straight-curve $526 -35.258968280442 -22.634703231707 0 0 0 -1 #
face_name-twe-attrib $-1 $-1 $-1 $311 16 #
plane-surface $527 -35.258968280442 -22.634703231707 0 -0.342020143325669 0.939692620785908 0 0 0 1 0 #
cur-twe-attrib $-1 $-1 $-1 $315 218 #
surf-twe-attrib $-1 $528 $-1 $317 220 #
edge $529 $530 $455 $350 $531 0 #
coedge $-1 $321 $367 $323 $427 0 $247 $-1 #
edge_name-twe-attrib $-1 $-1 $-1 $322 15 8704 #
straight-curve $532 35.258968280442 22.634703231707 0 -0.939692620785908 -0.342020143325669 0 #
edge $533 $370 $326 $424 $534 0 #
point $-1 35.258968280442 22.634703231707 0 #
cur-twe-attrib $-1 $-1 $-1 $327 229 #
edge_name-twe-attrib $-1 $-1 $-1 $328 14 24576 #
straight-curve $535 31.8509297539966 14.5092478718221 0 5.6843418860808e-16 3.5527136788005e-16 -1 #
cur-twe-attrib $-1 $-1 $-1 $332 235 #
edge_name-twe-attrib $-1 $-1 $-1 $334 23 8704 #
straight-curve $536 50 36 0 0 0 -1 #
edge_name-twe-attrib $-1 $-1 $-1 $336 20 8448 #
straight-curve $537 50 28 0 0 0 -1 #
cur-twe-attrib $-1 $-1 $338 $245 30 #
face_name-twe-attrib $-1 $-1 $-1 $342 15 #
cone-surface $538 -37.3110891403961 -16.9965475069915 0 0 0 1 -6 0 0 1 0 1 0 #
loop_type-twe-attrib $-1 $-1 $-1 $343 0 #
surf-twe-attrib $-1 $539 $-1 $344 252 #
face_name-twe-attrib $-1 $-1 $-1 $346 13 #
loop $540 $-1 $406 $346 #
cone-surface $541 -37.3110891403961 16.9965475069915 0 0 0 1 -6 0 0 1 0 1 0 #
loop_type-twe-attrib $-1 $-1 $-1 $347 0 #
coedge $-1 $542 $543 $405 $515 1 $347 $-1 #
surf-twe-attrib $-1 $-1 $-1 $348 254 #
coedge $-1 $544 $350 $543 $545 1 $255 $-1 #
coedge $-1 $350 $544 $352 $453 0 $255 $-1 #
coedge $-1 $354 $405 $350 $423 0 $7 $-1 #
surf-twe-attrib $-1 $-1 $351 $256 175 #
coedge $-1 $353 $352 $472 $546 0 $176 $-1 #
edge $547 $548 $455 $449 $549 0 #
edge_name-twe-attrib $-1 $-1 $-1 $355 21 8704 #
vertex $-1 $453 $550 #
straight-curve $551 50 36 0 1 0 0 #
coedge $-1 $358 $358 $552 $553 0 $265 $-1 #
coedge $-1 $552 $552 $358 $459 1 $554 $-1 #
edge $555 $556 $557 $458 $558 0 #
loop $559 $-1 $359 $296 #
edge_name-twe-attrib $-1 $-1 $-1 $360 81 8704 #
vertex $-1 $360 $560 #
ellipse-curve $561 0 0 -56 0 0 1 21.5 0 0 1 #
face_name-twe-attrib $-1 $-1 $-1 $362 34 #
face $562 $-1 $563 $3 $-1 $564 1 #
loop $565 $488 $566 $362 #
cone-surface $567 0 -50 -22 0 1 0 0 0 -18 1 0 1 0 #
loop_type-twe-attrib $-1 $-1 $-1 $363 0 #
loop $568 $-1 $569 $268 #
coedge $-1 $470 $470 $566 $570 0 $363 $-1 #
surf-twe-attrib $-1 $-1 $-1 $364 268 #
coedge $-1 $571 $366 $452 $546 1 $11 $-1 #
edge_name-twe-attrib $-1 $-1 $-1 $368 16 8704 #
straight-curve $572 35.258968280442 22.634703231707 25 -0.939692620785908 -0.342020143325669 0 #
point $-1 35.258968280442 22.634703231707 25 #
cur-twe-attrib $-1 $-1 $-1 $371 272 #
coedge $-1 $374 $571 $573 $574 1 $11 $-1 #
coedge $-1 $517 $516 $374 $479 0 $443 $-1 #
edge $575 $481 $576 $478 $577 0 #
edge_name-twe-attrib $-1 $-1 $-1 $376 34 8704 #
vertex $-1 $521 $578 #
ellipse-curve $579 0 0 25 0 0 -1 -31.8509297539966 14.509247871822 0 1 #
point $-1 -31.8509297539967 -14.5092478718219 25 #
cur-twe-attrib $-1 $-1 $-1 $379 280 #
edge $580 $581 $548 $544 $582 0 #
cur-twe-attrib $-1 $-1 $385 $290 42 #
coedge $-1 $583 $386 $391 $498 0 $488 $-1 #
loop $584 $-1 $386 $362 #
edge_name-twe-attrib $-1 $-1 $-1 $387 83 4352 #
vertex $-1 $387 $585 #
intcurve-curve $586 0 { exactcur nubs 3 open 17 
	0 3 2.72655759793919 1 5.79935678577672 1 9.02468809171415 1 12.2539626269044 1 
	15.4858202195632 1 18.6808690347483 1 21.7875379437676 1 24.7958467087312 1 27.8205806172054 1 
	30.8566701050212 1 33.8667535475944 1 36.873178341311 1 39.9832535741401 1 43.1828310927371 1 
	46.4277981194427 1 49.6287638528903 3 
	0 -28 -4 
	-0.908852532646396 -28 -4 
	-2.8461423601319 -27.9048928297209 -4.14747560399914 
	-5.75580575367095 -27.4572255363413 -4.85111443000685 
	-8.60251867955789 -26.6977529253723 -6.0866696891628 
	-11.1850568533825 -25.7138100173495 -7.78649725147091 
	-13.4067495692605 -24.6179480885827 -9.86303548573363 
	-15.2255790863245 -23.524525135003 -12.2458652845238 
	-16.6122911464803 -22.5548137285628 -14.8639523713471 
	-17.5588325719167 -21.8163900853769 -17.6823286778413 
	-18.0363527555287 -21.4171808497873 -20.663601058459 
	-18.0038865527402 -21.444939148313 -23.7122918651909 
	-17.4673858255261 -21.8906484509661 -26.670287527838 
	-16.4701522786641 -22.6599980056694 -29.4573027494467 
	-15.0355307310361 -23.6477400132121 -32.0446255770132 
	-13.168039052654 -24.7477896767848 -34.3962000411755 
	-10.9067720305802 -25.8340914522895 -36.4281929715365 
	-9.16094563727079 -26.4762777002373 -37.5285566883739 
	-8.24621125123532 -26.7581763205193 -38 
	0 
	null_surface 
	null_surface 
	nullbs 
	nullbs 
	} #
coedge $-1 $388 $587 $390 $496 1 $488 $-1 #
edge_name-twe-attrib $-1 $-1 $-1 $389 88 4352 #
intcurve-curve $588 0 { exactcur nubs 3 open 17 
	0 3 3.20063529035026 1 6.44653162553443 1 9.64864380758524 1 12.76136345074 1 
	15.7713089068925 1 18.7865883489453 1 21.82405220946 1 24.846438200087 1 27.853335732479 1 
	30.9597358488553 1 34.154470830648 1 37.3873895511372 1 40.6211826577833 1 43.849113061748 1 
	46.9168448754612 1 49.6287586401424 3 
	8.24621125123532 -26.7581763205193 -38 
	9.16085120712408 -26.476306801284 -37.5286053565575 
	10.9068490527331 -25.8340690125085 -36.4281555326579 
	13.1688392959623 -24.7474033802906 -34.3954828981785 
	15.037309759253 -23.6466434237218 -32.0422080886459 
	16.4727090561985 -22.6581544859343 -29.4520585944994 
	17.4701301563896 -21.8884526730495 -26.6609779444718 
	18.0053430633805 -21.4436962677896 -23.6990198532549 
	18.0352151632368 -21.4181565953074 -20.6488381175367 
	17.5554378871384 -21.8191512812216 -17.669052254213 
	16.6074669728331 -22.5583965088873 -14.8528793552301 
	15.219494262845 -23.528497060193 -12.2364160368785 
	13.3991582323216 -24.6221252039749 -9.85462465893657 
	11.1748753983355 -25.7183500611628 -7.77828869806227 
	8.58857861851532 -26.7024022031618 -6.07889273106279 
	5.73965002818957 -27.4606053756251 -4.84574709761271 
	2.83462528131467 -27.9057385442885 -4.14617021409111 
	0.903971254893747 -28 -4 
	0 -28 -4 
	0 
	null_surface 
	null_surface 
	nullbs 
	nullbs 
	} #
coedge $-1 $589 $390 $590 $591 0 $392 $-1 #
edge $592 $394 $593 $492 $594 0 #
coedge $-1 $391 $595 $596 $597 0 $392 $-1 #
edge $598 $395 $599 $487 $600 0 #
loop_type-twe-attrib $-1 $-1 $-1 $392 0 #
point $-1 8.24621125123532 -26.7581763205193 -38 #
point $-1 -8.24621125123532 -26.7581763205193 -38 #
cur-twe-attrib $-1 $-1 $-1 $396 294 #
face_name-twe-attrib $-1 $-1 $-1 $398 22 #
face $601 $602 $603 $3 $-1 $604 1 #
loop $605 $606 $513 $398 #
cone-surface $607 34 0 -38 0 0 -1 2 0 0 1 0 1 0 #
loop_type-twe-attrib $-1 $-1 $-1 $399 1 #
loop $608 $609 $610 $296 #
coedge $-1 $509 $509 $611 $612 1 $399 $-1 #
surf-twe-attrib $-1 $-1 $-1 $400 296 #
loop_type-twe-attrib $-1 $-1 $-1 $402 1 #
coedge $-1 $512 $512 $613 $614 0 $402 $-1 #
coedge $-1 $513 $513 $403 $514 1 $505 $-1 #
edge $615 $616 $616 $513 $617 0 #
edge $618 $519 $530 $446 $619 0 #
coedge $-1 $478 $406 $409 $521 1 $443 $-1 #
coedge $-1 $406 $478 $542 $620 0 $443 $-1 #
edge_name-twe-attrib $-1 $-1 $-1 $407 30 8704 #
vertex $-1 $620 $621 #
ellipse-curve $622 -37.3110891403961 16.9965475069915 0 0 0 1 2.05212085995398 5.63815572471546 0 1 #
edge $623 $481 $411 $409 $624 0 #
point $-1 -31.8509297539966 14.509247871822 0 #
cur-twe-attrib $-1 $-1 $-1 $412 302 #
edge_name-twe-attrib $-1 $-1 $-1 $413 38 24576 #
straight-curve $625 -31.8509297539967 -14.509247871822 0 5.6843418860808e-16 -4.2632564145606e-16 -1 #
cur-twe-attrib $-1 $-1 $-1 $418 309 #
surf-twe-attrib $-1 $-1 $-1 $420 311 #
surf-twe-attrib $-1 $-1 $422 $317 175 #
edge_name-twe-attrib $-1 $-1 $-1 $423 24 8704 #
vertex $-1 $545 $626 #
straight-curve $627 -50 36 0 0 1 0 #
cur-twe-attrib $-1 $-1 $-1 $426 322 #
edge_name-twe-attrib $-1 $-1 $-1 $427 17 20480 #
straight-curve $628 35.258968280442 22.634703231707 0 0 1.4210854715202e-16 -1 #
cur-twe-attrib $-1 $-1 $-1 $431 328 #
cur-twe-attrib $-1 $-1 $-1 $434 334 #
cur-twe-attrib $-1 $-1 $-1 $436 336 #
surf-twe-attrib $-1 $-1 $-1 $439 342 #
surf-twe-attrib $-1 $-1 $441 $344 58 #
loop_type-twe-attrib $-1 $-1 $-1 $443 0 #
surf-twe-attrib $-1 $-1 $-1 $444 346 #
coedge $-1 $573 $446 $517 $620 1 $347 $-1 #
coedge $-1 $446 $573 $448 $545 0 $347 $-1 #
coedge $-1 $449 $448 $571 $485 0 $255 $-1 #
edge $629 $581 $530 $543 $630 0 #
edge $631 $548 $287 $452 $632 0 #
edge_name-twe-attrib $-1 $-1 $-1 $453 26 8704 #
vertex $-1 $453 $633 #
straight-curve $634 -50 36 0 0 0 -1 #
point $-1 -50 36 0 #
cur-twe-attrib $-1 $-1 $-1 $456 355 #
coedge $-1 $458 $458 $457 $553 1 $554 $-1 #
edge $635 $557 $556 $552 $636 0 #
loop $637 $-1 $458 $465 #
edge_name-twe-attrib $-1 $-1 $-1 $459 90 8704 #
vertex $-1 $553 $638 #
vertex $-1 $459 $639 #
intcurve-curve $640 0 { exactcur nubs 3 open 18 
	0 3 2.12558323498126 1 4.41940720921078 1 6.81962469175838 1 9.32225106318987 1 
	11.8586107704547 1 14.3268807991987 1 16.6991454654909 1 18.9830108397228 1 21.2108134812073 1 
	23.4977552635954 1 25.8729840222752 1 28.3408218953216 1 30.8772545259086 1 33.3806801453172 1 
	35.7820790338594 1 38.0753974789168 1 40.1949462897182 3 
	12.5 -17.4928556845359 -22.0000000000002 
	12.5 -17.4928556845359 -21.2914722550064 
	12.3733829180365 -17.5843123163319 -19.814094288985 
	11.7892392729661 -17.9876851888888 -17.6380739760647 
	10.7848334769993 -18.6168186836161 -15.5354723182016 
	9.37872233420232 -19.3738981018391 -13.6204836826643 
	7.61837413836575 -20.1398827820983 -11.9931103392515 
	5.59122070259285 -20.79907194632 -10.7371391502146 
	3.40233064498622 -21.2692281636544 -9.89791946719047 
	1.14128624687078 -21.5094778784179 -9.48358731231338 
	-1.14118651814759 -21.5095396381111 -9.48348248817048 
	-3.40424208401853 -21.2690249193 -9.8982647109022 
	-5.59460309931678 -20.7981882370364 -10.7387393788574 
	-7.62194199689843 -20.1385124344702 -11.9958464204051 
	-9.38181185967035 -19.3723949870522 -13.6239025871978 
	-10.7876120706759 -18.6152029280692 -15.5399852919164 
	-11.7913114306585 -17.9863066639678 -17.6435894864846 
	-12.3739391165417 -17.5839042233604 -19.8183188486408 
	-12.5 -17.4928556845359 -21.2934837297331 
	-12.5 -17.4928556845359 -22.0000000000002 
	0 
	null_surface 
	null_surface 
	nullbs 
	nullbs 
	} #
loop_type-twe-attrib $-1 $-1 $-1 $460 1 #
point $-1 -21.5 0 -56 #
cur-twe-attrib $-1 $-1 $-1 $463 360 #
face_name-twe-attrib $-1 $-1 $-1 $465 35 #
loop $641 $554 $642 $465 #
cone-surface $643 0 -50 -22 0 1 0 -12.5 0 0 1 0 1 0 #
loop_type-twe-attrib $-1 $-1 $-1 $466 0 #
coedge $-1 $566 $566 $470 $570 1 $466 $-1 #
surf-twe-attrib $-1 $-1 $-1 $467 362 #
loop_type-twe-attrib $-1 $-1 $-1 $469 1 #
coedge $-1 $569 $569 $642 $644 1 $469 $-1 #
edge $645 $646 $646 $566 $647 0 #
coedge $-1 $477 $472 $544 $485 1 $11 $-1 #
cur-twe-attrib $-1 $-1 $-1 $474 368 #
coedge $-1 $543 $542 $477 $574 0 $347 $-1 #
edge $648 $576 $581 $573 $649 0 #
edge_name-twe-attrib $-1 $-1 $-1 $479 31 8704 #
vertex $-1 $620 $650 #
ellipse-curve $651 -37.3110891403961 16.9965475069915 25 0 0 1 2.05212085995398 5.63815572471546 0 1 #
point $-1 -31.8509297539966 14.509247871822 25 #
cur-twe-attrib $-1 $-1 $-1 $482 376 #
edge_name-twe-attrib $-1 $-1 $-1 $485 25 8704 #
vertex $-1 $545 $652 #
straight-curve $653 -50 36 25 0 1 0 #
coedge $-1 $587 $487 $654 $655 0 $488 $-1 #
loop_type-twe-attrib $-1 $-1 $-1 $488 1 #
point $-1 0 -28 -4 #
cur-twe-attrib $-1 $-1 $-1 $491 387 #
coedge $-1 $492 $583 $656 $657 0 $488 $-1 #
cur-twe-attrib $-1 $-1 $-1 $494 389 #
coedge $-1 $658 $495 $659 $660 0 $392 $-1 #
coedge $-1 $656 $661 $495 $591 1 $662 $-1 #
edge $663 $593 $664 $590 $665 0 #
edge_name-twe-attrib $-1 $-1 $-1 $496 87 5120 #
vertex $-1 $496 $666 #
straight-curve $667 8.24621125123532 -31.9530906173409 -38 -1.02582453024513e-15 -1 0 #
coedge $-1 $497 $668 $669 $670 0 $392 $-1 #
coedge $-1 $671 $654 $497 $597 1 $662 $-1 #
edge $672 $673 $599 $596 $674 0 #
edge_name-twe-attrib $-1 $-1 $-1 $498 84 5120 #
vertex $-1 $597 $675 #
straight-curve $676 -8.24621125123532 -31.9530906173409 -38 6.83883020163422e-16 -1 0 #
face_name-twe-attrib $-1 $-1 $-1 $504 23 #
face $677 $678 $679 $3 $-1 $680 0 #
loop $681 $682 $613 $504 #
cone-surface $683 -34 0 -38 0 0 -1 2 0 0 1 0 1 0 #
loop_type-twe-attrib $-1 $-1 $-1 $505 0 #
loop $684 $-1 $611 $398 #
surf-twe-attrib $-1 $-1 $-1 $506 398 #
loop_type-twe-attrib $-1 $-1 $-1 $508 1 #
loop $685 $460 $686 $296 #
coedge $-1 $610 $610 $687 $688 1 $508 $-1 #
coedge $-1 $611 $611 $509 $612 0 $606 $-1 #
edge $689 $690 $690 $611 $691 0 #
coedge $-1 $613 $613 $512 $614 1 $603 $-1 #
edge $692 $693 $693 $613 $694 0 #
edge_name-twe-attrib $-1 $-1 $-1 $514 51 8704 #
vertex $-1 $514 $695 #
ellipse-curve $696 34 0 -38 0 0 -1 -2 0 0 1 #
edge_name-twe-attrib $-1 $-1 $-1 $515 27 8704 #
straight-curve $697 -50 28 0 -0.939692620785908 0.342020143325669 0 #
edge $698 $576 $519 $517 $699 0 #
point $-1 -35.2589682804421 22.634703231707 0 #
cur-twe-attrib $-1 $-1 $-1 $520 407 #
edge_name-twe-attrib $-1 $-1 $-1 $521 35 24576 #
straight-curve $700 -31.8509297539966 14.509247871822 0 -4.2632564145606e-16 7.8159700933611e-16 -1 #
cur-twe-attrib $-1 $-1 $-1 $525 413 #
point $-1 -50 28 0 #
cur-twe-attrib $-1 $701 $-1 $531 83 #
cur-twe-attrib $-1 $-1 $-1 $534 427 #
edge_name-twe-attrib $-1 $-1 $-1 $545 29 8448 #
straight-curve $702 -50 28 0 0 0 -1 #
edge_name-twe-attrib $-1 $-1 $-1 $546 22 8704 #
straight-curve $703 50 36 25 1 0 0 #
point $-1 -50 36 25 #
cur-twe-attrib $-1 $-1 $-1 $549 453 #
edge_name-twe-attrib $-1 $-1 $-1 $553 91 8704 #
intcurve-curve $704 0 { exactcur nubs 3 open 18 
	0 3 2.12543786230877 1 4.41942731191352 1 6.81982554932655 1 9.32238109798968 1 
	11.858364252048 1 14.3264052098136 1 16.698106810929 1 18.9816374422615 1 21.2094431611772 1 
	23.4967268223096 1 25.8725234817139 1 28.3406193989247 1 30.8774091076095 1 33.3808806715453 1 
	35.7820862554911 1 38.0752413450351 1 40.1949462675673 3 
	-12.5 -17.4928556845359 -22.0000000000002 
	-12.5 -17.4928556845359 -22.7084792874364 
	-12.3733913021364 -17.5843060861504 -24.1858631880426 
	-11.7892400082433 -17.9876859477495 -26.3619541990026 
	-10.7847774516762 -18.6168528607996 -28.4646271076876 
	-9.37869348327209 -19.3739078119229 -30.3795280116009 
	-7.61851393576275 -20.1398204740977 -32.0067595547911 
	-5.5917226935748 -20.7989230256183 -33.2625838270699 
	-3.40324823278006 -21.2690637309773 -34.1017925847148 
	-1.1425560654798 -21.5094036628408 -34.5162860964018 
	1.13992013579279 -21.5096138327751 -34.5166440673607 
	3.40333376688882 -21.269188131822 -34.1020211268925 
	5.59412200589297 -20.7983321410165 -33.2615286018008 
	7.62182398556392 -20.1385664786307 -32.0042674826827 
	9.38185425188193 -19.3723781246731 -30.3760685007357 
	10.7876690015532 -18.6151679547715 -28.4599114648699 
	11.7913076388456 -17.9863079254391 -26.3563895924571 
	12.3739297233454 -17.5839111924301 -24.181731595178 
	12.5 -17.4928556845359 -22.7065683075109 
	12.5 -17.4928556845359 -22.0000000000002 
	0 
	null_surface 
	null_surface 
	nullbs 
	nullbs 
	} #
loop_type-twe-attrib $-1 $-1 $-1 $554 1 #
point $-1 12.5 -17.4928556845359 -22.0000000000002 #
point $-1 -12.5 -17.4928556845359 -22.0000000000002 #
cur-twe-attrib $-1 $-1 $-1 $558 459 #
loop_type-twe-attrib $-1 $-1 $-1 $563 0 #
coedge $-1 $642 $642 $569 $644 0 $563 $-1 #
surf-twe-attrib $-1 $-1 $-1 $564 465 #
edge $705 $706 $706 $642 $707 0 #
edge_name-twe-attrib $-1 $-1 $-1 $570 82 8704 #
vertex $-1 $570 $708 #
ellipse-curve $709 0 -50 -22 0 -1 0 0 0 18 1 #
edge_name-twe-attrib $-1 $-1 $-1 $574 28 8704 #
straight-curve $710 -50 28 25 -0.939692620785908 0.342020143325669 0 #
point $-1 -35.2589682804421 22.634703231707 25 #
cur-twe-attrib $-1 $-1 $-1 $577 479 #
point $-1 -50 28 25 #
cur-twe-attrib $-1 $711 $-1 $582 125 #
coedge $-1 $596 $656 $583 $655 1 $662 $-1 #
edge $712 $599 $713 $583 $714 0 #
coedge $-1 $654 $590 $587 $657 1 $662 $-1 #
edge $715 $713 $593 $587 $716 0 #
coedge $-1 $717 $589 $718 $719 0 $392 $-1 #
coedge $-1 $720 $721 $589 $660 1 $722 $-1 #
edge $723 $664 $724 $659 $725 0 #
coedge $-1 $590 $726 $720 $727 0 $662 $-1 #
loop $728 $-1 $654 $729 #
edge_name-twe-attrib $-1 $-1 $-1 $591 63 8704 #
vertex $-1 $727 $730 #
ellipse-curve $731 0 0 -38 0 0 1 32.0156211871642 -7.99999999999999 0 1 #
point $-1 8.24621125123532 -31.9530906173409 -38 #
cur-twe-attrib $-1 $-1 $-1 $594 496 #
coedge $-1 $595 $732 $733 $734 0 $392 $-1 #
coedge $-1 $735 $736 $595 $670 1 $737 $-1 #
edge $738 $739 $673 $669 $740 0 #
coedge $-1 $726 $596 $736 $741 1 $662 $-1 #
edge_name-twe-attrib $-1 $-1 $-1 $597 60 8704 #
vertex $-1 $741 $742 #
ellipse-curve $743 0 0 -38 0 0 1 -8.24621125123531 -31.9530906173409 0 1 #
point $-1 -8.24621125123532 -31.9530906173409 -38 #
cur-twe-attrib $-1 $-1 $-1 $600 498 #
face_name-twe-attrib $-1 $-1 $-1 $602 24 #
face $744 $729 $722 $3 $-1 $745 0 #
loop $746 $-1 $718 $602 #
cone-surface $747 34 0 -38 0 0 -1 8 0 0 1 0 1 0 #
loop_type-twe-attrib $-1 $-1 $-1 $603 0 #
loop $748 $-1 $687 $504 #
surf-twe-attrib $-1 $-1 $-1 $604 504 #
loop_type-twe-attrib $-1 $-1 $-1 $606 1 #
loop_type-twe-attrib $-1 $-1 $-1 $609 0 #
coedge $-1 $749 $750 $751 $752 1 $609 $-1 #
coedge $-1 $687 $687 $610 $688 0 $682 $-1 #
edge $753 $754 $754 $687 $755 0 #
edge_name-twe-attrib $-1 $-1 $-1 $612 52 8704 #
vertex $-1 $612 $756 #
ellipse-curve $757 34 0 -56 0 0 -1 2 0 0 1 #
edge_name-twe-attrib $-1 $-1 $-1 $614 53 8704 #
vertex $-1 $614 $758 #
ellipse-curve $759 -34 0 -38 0 0 -1 -2 0 0 1 #
point $-1 36 0 -38 #
cur-twe-attrib $-1 $-1 $-1 $617 514 #
cur-twe-attrib $-1 $-1 $-1 $619 515 #
edge_name-twe-attrib $-1 $-1 $-1 $620 32 20480 #
straight-curve $760 -35.2589682804421 22.634703231707 0 0 2.8421709430404e-16 -1 #
cur-twe-attrib $-1 $-1 $-1 $624 521 #
cur-twe-attrib $-1 $-1 $627 $531 423 #
cur-twe-attrib $-1 $-1 $-1 $630 545 #
cur-twe-attrib $-1 $-1 $-1 $632 546 #
cur-twe-attrib $-1 $-1 $-1 $636 553 #
edge_name-twe-attrib $-1 $-1 $-1 $644 89 8704 #
vertex $-1 $644 $761 #
ellipse-curve $762 0 -50 -22 0 -1 0 -12.5 0 0 1 #
point $-1 0 -50 -40 #
cur-twe-attrib $-1 $-1 $-1 $647 570 #
cur-twe-attrib $-1 $-1 $-1 $649 574 #
cur-twe-attrib $-1 $-1 $653 $582 485 #
edge_name-twe-attrib $-1 $-1 $-1 $655 85 4352 #
vertex $-1 $657 $763 #
intcurve-curve $764 0 { exactcur nubs 3 open 5 
	0 3 2.23393437885224 1 4.41946882200743 1 6.55715777744209 1 8.64233729352313 3 
	-8.24621125123532 -31.9530906173409 -38 
	-7.60106207974845 -32.1195858218378 -38.33250227229 
	-6.27722838123534 -32.4198096829098 -38.9168658690569 
	-4.20439795636021 -32.7537281430931 -39.5460338387456 
	-2.1043986207004 -32.9552549093227 -39.9181591514276 
	-0.695059838693704 -33 -40 
	-2.2e-14 -33 -40 
	0 
	null_surface 
	null_surface 
	nullbs 
	nullbs 
	} #
edge_name-twe-attrib $-1 $-1 $-1 $657 86 4352 #
intcurve-curve $765 0 { exactcur nubs 3 open 5 
	0 3 2.08576251555291 1 4.2239652104956 1 6.40931729175161 1 8.64233728911202 3 
	-2.2e-14 -33 -40 
	0.695254171850949 -33 -40 
	2.10495993596883 -32.9552306220265 -39.9181148333154 
	4.20523951219516 -32.7536228779024 -39.5458385188039 
	6.2778415638076 -32.419678879309 -38.9166144859236 
	7.60132614858926 -32.1195176729544 -38.3323661743246 
	8.24621125123532 -31.9530906173409 -38 
	0 
	null_surface 
	null_surface 
	nullbs 
	nullbs 
	} #
coedge $-1 $766 $658 $767 $768 0 $392 $-1 #
coedge $-1 $769 $770 $658 $719 1 $679 $-1 #
edge $771 $724 $772 $718 $773 0 #
coedge $-1 $774 $659 $661 $727 1 $722 $-1 #
coedge $-1 $659 $774 $769 $775 0 $722 $-1 #
loop $776 $-1 $659 $678 #
edge_name-twe-attrib $-1 $-1 $-1 $660 57 8704 #
vertex $-1 $775 $777 #
straight-curve $778 34 -8 -38 1 4.47585115278913e-16 0 #
coedge $-1 $661 $671 $779 $780 0 $662 $-1 #
edge $781 $782 $664 $661 $783 0 #
loop_type-twe-attrib $-1 $-1 $-1 $662 0 #
face $784 $785 $662 $3 $-1 $786 0 #
point $-1 32.0156211871642 -8 -38 #
cur-twe-attrib $-1 $787 $-1 $665 788 #
coedge $-1 $668 $766 $789 $790 0 $392 $-1 #
coedge $-1 $791 $792 $668 $734 1 $793 $-1 #
edge $794 $795 $739 $733 $796 0 #
coedge $-1 $797 $669 $792 $798 1 $737 $-1 #
coedge $-1 $669 $797 $671 $741 0 $737 $-1 #
loop $799 $-1 $669 $785 #
edge_name-twe-attrib $-1 $-1 $-1 $670 64 8704 #
vertex $-1 $798 $800 #
straight-curve $801 -32.0156211871642 -7.99999999999999 -38 1 3.13309580695239e-15 0 #
edge $802 $803 $673 $736 $804 0 #
point $-1 -32.0156211871642 -7.99999999999999 -38 #
cur-twe-attrib $-1 $-1 $-1 $674 597 #
face_name-twe-attrib $-1 $-1 $-1 $678 25 #
plane-surface $805 34 -8 -38 0 -1 0 0 0 -1 0 #
loop_type-twe-attrib $-1 $-1 $-1 $679 0 #
surf-twe-attrib $-1 $-1 $-1 $680 602 #
loop_type-twe-attrib $-1 $-1 $-1 $682 1 #
coedge $-1 $779 $686 $774 $806 1 $609 $-1 #
coedge $-1 $686 $807 $808 $809 1 $609 $-1 #
coedge $-1 $770 $769 $686 $752 0 $679 $-1 #
edge $810 $811 $812 $751 $813 0 #
edge_name-twe-attrib $-1 $-1 $-1 $688 54 8704 #
vertex $-1 $688 $814 #
ellipse-curve $815 -34 0 -56 0 0 -1 2 0 0 1 #
point $-1 36 0 -56 #
cur-twe-attrib $-1 $-1 $-1 $691 612 #
point $-1 -32 0 -38 #
cur-twe-attrib $-1 $-1 $-1 $694 614 #
cur-twe-attrib $-1 $-1 $-1 $699 620 #
point $-1 -12.5 -50 -22 #
cur-twe-attrib $-1 $-1 $-1 $707 644 #
point $-1 -2.2e-14 -33 -40 #
cur-twe-attrib $-1 $-1 $-1 $714 655 #
cur-twe-attrib $-1 $-1 $-1 $716 657 #
coedge $-1 $732 $717 $816 $788 0 $392 $-1 #
coedge $-1 $817 $818 $717 $768 1 $819 $-1 #
edge $820 $772 $821 $767 $822 0 #
coedge $-1 $751 $718 $721 $775 1 $679 $-1 #
coedge $-1 $718 $751 $817 $823 0 $679 $-1 #
edge_name-twe-attrib $-1 $-1 $-1 $719 55 8704 #
vertex $-1 $823 $824 #
ellipse-curve $825 34 0 -38 0 0 1 0 8 0 1 #
coedge $-1 $721 $720 $749 $806 0 $722 $-1 #
edge $826 $811 $724 $721 $827 0 #
loop_type-twe-attrib $-1 $-1 $-1 $722 0 #
point $-1 34 -8 -38 #
cur-twe-attrib $-1 $828 $-1 $725 670 #
coedge $-1 $829 $749 $726 $780 1 $609 $-1 #
edge $830 $803 $782 $726 $831 0 #
edge_name-twe-attrib $-1 $-1 $-1 $727 62 4352 #
vertex $-1 $727 $832 #
straight-curve $833 32.0156211871642 -8 -38 3.94745964311167e-16 -8.38835174161229e-16 1 #
face_name-twe-attrib $-1 $-1 $-1 $729 26 #
face $834 $835 $737 $3 $-1 $836 0 #
cone-surface $837 0 0 -38 0 0 -1 33 0 0 1 0 1 0 #
cur-twe-attrib $-1 $-1 $731 $665 591 #
edge $838 $821 $839 $816 $840 0 #
coedge $-1 $841 $842 $732 $790 1 $843 $-1 #
edge $844 $839 $795 $789 $845 0 #
coedge $-1 $846 $733 $842 $847 1 $793 $-1 #
coedge $-1 $733 $846 $735 $798 0 $793 $-1 #
loop $848 $-1 $733 $835 #
edge_name-twe-attrib $-1 $-1 $-1 $734 67 8704 #
vertex $-1 $847 $849 #
ellipse-curve $850 -34 0 -38 0 0 1 0 -8 0 1 #
coedge $-1 $736 $735 $829 $851 0 $737 $-1 #
edge $852 $853 $739 $792 $854 0 #
loop_type-twe-attrib $-1 $-1 $-1 $737 0 #
point $-1 -34 -8 -38 #
cur-twe-attrib $-1 $855 $-1 $740 670 #
edge_name-twe-attrib $-1 $-1 $-1 $741 66 4352 #
vertex $-1 $741 $856 #
straight-curve $857 -32.0156211871642 -7.99999999999999 -38 0 3.45402718772271e-16 1 #
surf-twe-attrib $-1 $858 $-1 $745 785 #
edge $859 $782 $811 $774 $860 0 #
coedge $-1 $750 $861 $862 $863 1 $609 $-1 #
coedge $-1 $818 $817 $750 $809 0 $819 $-1 #
edge $864 $812 $865 $808 $866 0 #
edge_name-twe-attrib $-1 $-1 $-1 $752 56 8704 #
vertex $-1 $775 $867 #
vertex $-1 $823 $868 #
ellipse-curve $869 34 0 -56 0 0 1 0 8 0 1 #
point $-1 -32 0 -56 #
cur-twe-attrib $-1 $-1 $-1 $755 688 #
coedge $-1 $870 $871 $766 $788 1 $872 $-1 #
coedge $-1 $808 $767 $770 $823 1 $819 $-1 #
coedge $-1 $767 $808 $870 $873 0 $819 $-1 #
loop $874 $-1 $767 $875 #
edge_name-twe-attrib $-1 $-1 $-1 $768 76 8704 #
vertex $-1 $873 $876 #
straight-curve $877 32.0156211871642 8.00000000000003 -38 -1 1.61130641500408e-14 0 #
edge $878 $812 $772 $817 $879 0 #
point $-1 34 8 -38 #
cur-twe-attrib $-1 $-1 $-1 $773 719 #
edge_name-twe-attrib $-1 $-1 $-1 $775 59 24576 #
straight-curve $880 34 -8 -38 0 0 1 #
cur-twe-attrib $-1 $-1 $778 $725 660 #
coedge $-1 $881 $779 $797 $851 1 $609 $-1 #
edge_name-twe-attrib $-1 $-1 $-1 $780 61 8704 #
ellipse-curve $882 0 0 -56 0 0 1 32.0156211871642 -7.99999999999999 0 1 #
point $-1 32.0156211871642 -7.99999999999998 -56 #
cur-twe-attrib $-1 $-1 $-1 $783 727 #
face_name-twe-attrib $-1 $-1 $-1 $785 27 #
face $883 $884 $793 $3 $-1 $885 0 #
plane-surface $886 -32.0156211871642 -8 -38 0 -1 0 0 0 -1 0 #
surf-twe-attrib $-1 $887 $-1 $786 888 #
edge_name-twe-attrib $-1 $-1 $-1 $788 73 8704 #
vertex $-1 $889 $890 #
ellipse-curve $891 0 0 -38 0 0 1 -32.0156211871642 7.99999999999999 0 1 #
coedge $-1 $892 $789 $871 $889 1 $843 $-1 #
coedge $-1 $789 $892 $791 $847 0 $843 $-1 #
loop $893 $-1 $789 $884 #
edge_name-twe-attrib $-1 $-1 $-1 $790 70 8704 #
straight-curve $894 -34 8 -38 -1 -4.47585115278913e-16 0 #
coedge $-1 $792 $791 $881 $895 0 $793 $-1 #
edge $896 $897 $795 $842 $898 0 #
loop_type-twe-attrib $-1 $-1 $-1 $793 0 #
point $-1 -34 8 -38 #
cur-twe-attrib $-1 $-1 $-1 $796 734 #
edge $899 $853 $803 $797 $900 0 #
edge_name-twe-attrib $-1 $-1 $-1 $798 69 24576 #
vertex $-1 $798 $901 #
straight-curve $902 -34 -8 -38 0 -9.86864910777917e-17 1 #
cur-twe-attrib $-1 $-1 $801 $740 660 #
point $-1 -32.0156211871642 -8 -56 #
cur-twe-attrib $-1 $-1 $-1 $804 741 #
surf-twe-attrib $-1 $-1 $805 $745 678 #
edge_name-twe-attrib $-1 $-1 $-1 $806 58 8704 #
straight-curve $903 34 -8 -56 1 -7.16136184446259e-15 0 #
coedge $-1 $807 $881 $892 $904 1 $609 $-1 #
coedge $-1 $871 $870 $807 $863 0 $872 $-1 #
edge $905 $865 $906 $862 $907 0 #
edge_name-twe-attrib $-1 $-1 $-1 $809 78 8704 #
vertex $-1 $873 $908 #
straight-curve $909 32.0156211871642 8 -56 -1 8.95170230557826e-16 0 #
point $-1 34 -8 -56 #
point $-1 34 8 -56 #
cur-twe-attrib $-1 $-1 $-1 $813 752 #
coedge $-1 $862 $816 $818 $873 1 $872 $-1 #
coedge $-1 $816 $862 $841 $889 0 $872 $-1 #
loop $910 $-1 $816 $888 #
edge $911 $865 $821 $818 $912 0 #
loop_type-twe-attrib $-1 $-1 $-1 $819 0 #
face $913 $183 $819 $3 $-1 $914 0 #
point $-1 32.0156211871642 8.00000000000003 -38 #
cur-twe-attrib $-1 $915 $-1 $822 768 #
edge_name-twe-attrib $-1 $-1 $-1 $823 77 24576 #
straight-curve $916 34 8 -38 0 9.86864910777917e-17 1 #
cur-twe-attrib $-1 $-1 $-1 $827 775 #
coedge $-1 $861 $829 $846 $895 1 $609 $-1 #
cur-twe-attrib $-1 $917 $-1 $831 863 #
face_name-twe-attrib $-1 $-1 $-1 $835 28 #
face $918 $888 $843 $3 $-1 $919 0 #
cone-surface $920 -34 0 -38 0 0 -1 8 0 0 1 0 1 0 #
surf-twe-attrib $-1 $921 $-1 $836 785 #
surf-twe-attrib $-1 $-1 $837 $786 729 #
face $922 $875 $872 $3 $-1 $923 0 #
edge $924 $906 $839 $871 $925 0 #
point $-1 -32.0156211871642 8 -38 #
cur-twe-attrib $-1 $926 $-1 $840 788 #
coedge $-1 $842 $841 $861 $904 0 $843 $-1 #
loop_type-twe-attrib $-1 $-1 $-1 $843 0 #
cur-twe-attrib $-1 $927 $-1 $845 768 #
edge $928 $897 $853 $846 $929 0 #
edge_name-twe-attrib $-1 $-1 $-1 $847 72 24576 #
vertex $-1 $847 $930 #
straight-curve $931 -34 8 -38 0 -4.93432455388958e-17 1 #
edge_name-twe-attrib $-1 $-1 $-1 $851 65 8704 #
straight-curve $932 -32.0156211871642 -8 -56 1 -8.95170230557826e-16 0 #
point $-1 -34 -8 -56 #
cur-twe-attrib $-1 $-1 $-1 $854 798 #
cur-twe-attrib $-1 $933 $-1 $860 851 #
edge $934 $906 $897 $892 $935 0 #
edge_name-twe-attrib $-1 $-1 $-1 $863 74 8704 #
vertex $-1 $889 $936 #
ellipse-curve $937 0 0 -56 0 0 1 -32.0156211871642 7.99999999999999 0 1 #
point $-1 32.0156211871642 8 -56 #
cur-twe-attrib $-1 $938 $-1 $866 809 #
loop_type-twe-attrib $-1 $-1 $-1 $872 0 #
edge_name-twe-attrib $-1 $-1 $-1 $873 79 4352 #
straight-curve $939 32.0156211871642 8.00000000000003 -38 -7.89491928622333e-16 1.77635683940025e-15 1 #
face_name-twe-attrib $-1 $-1 $-1 $875 31 #
plane-surface $940 32.0156211871642 8 -38 0 1 0 0 0 1 0 #
cur-twe-attrib $-1 $-1 $877 $822 790 #
cur-twe-attrib $-1 $-1 $-1 $879 823 #
cur-twe-attrib $-1 $-1 $882 $831 780 #
face_name-twe-attrib $-1 $-1 $-1 $884 29 #
plane-surface $941 -34 8 -38 0 1 0 0 0 1 0 #
surf-twe-attrib $-1 $-1 $-1 $885 835 #
surf-twe-attrib $-1 $-1 $886 $836 678 #
face_name-twe-attrib $-1 $-1 $-1 $888 30 #
cone-surface $942 0 0 -38 0 0 -1 33 0 0 1 0 1 0 #
edge_name-twe-attrib $-1 $-1 $-1 $889 75 4352 #
straight-curve $943 -32.0156211871642 8 -38 -3.94745964311167e-16 8.38835174161229e-16 1 #
cur-twe-attrib $-1 $-1 $891 $840 591 #
cur-twe-attrib $-1 $-1 $894 $845 790 #
edge_name-twe-attrib $-1 $-1 $-1 $895 68 8704 #
ellipse-curve $944 -34 0 -56 0 0 1 0 -8 0 1 #
point $-1 -34 8 -56 #
cur-twe-attrib $-1 $-1 $-1 $898 847 #
cur-twe-attrib $-1 $945 $-1 $900 851 #
cur-twe-attrib $-1 $-1 $903 $860 806 #
edge_name-twe-attrib $-1 $-1 $-1 $904 71 8704 #
straight-curve $946 -34 8 -56 -1 7.6089469597415e-15 0 #
point $-1 -32.0156211871642 7.99999999999998 -56 #
cur-twe-attrib $-1 $947 $-1 $907 863 #
cur-twe-attrib $-1 $-1 $909 $866 904 #
cur-twe-attrib $-1 $-1 $-1 $912 873 #
surf-twe-attrib $-1 $948 $-1 $914 875 #
surf-twe-attrib $-1 $949 $-1 $919 875 #
surf-twe-attrib $-1 $950 $-1 $923 888 #
cur-twe-attrib $-1 $-1 $-1 $925 889 #
cur-twe-attrib $-1 $-1 $-1 $929 895 #
cur-twe-attrib $-1 $-1 $932 $900 806 #
cur-twe-attrib $-1 $951 $-1 $935 809 #
cur-twe-attrib $-1 $-1 $937 $907 780 #
surf-twe-attrib $-1 $-1 $940 $914 884 #
surf-twe-attrib $-1 $-1 $941 $919 884 #
surf-twe-attrib $-1 $-1 $942 $923 729 #
cur-twe-attrib $-1 $-1 $946 $935 904 #
