600 0 1 0           
88 GICL ACIS Healer - Source: /gicl/data5/repository/ICEM-CDC/demos/DEMO10/DEMO10.sat - 6 0 18 ACIS 6.0.3 Solaris 24 Sat Apr 13 23:08:28 2002 
1 9.999999999999999547e-07 1.000000000000000036e-10 
body $-1 $1 $-1 $2 #
lump $-1 $-1 $3 $0 #
transform $-1 1 0 0 0 1 0 0 0 1 0 0 0 1 no_rotate no_reflect no_shear #
shell $-1 $-1 $-1 $4 $-1 $1 #
face $5 $6 $7 $3 $-1 $8 reversed single #
face_name-twe-attrib $-1 $-1 $-1 $4 1 #
face $9 $10 $11 $3 $-1 $12 forward single #
loop $13 $14 $15 $4 #
plane-surface $16 0 0 0 0 0 1 1 0 0 forward_v I I I I #
face_name-twe-attrib $-1 $-1 $-1 $6 2 #
face $17 $18 $19 $3 $-1 $20 forward single #
loop $21 $22 $23 $6 #
plane-surface $24 0 0 25 0 0 1 1 0 0 forward_v I I I I #
loop_type-twe-attrib $-1 $-1 $-1 $7 0 #
loop $25 $-1 $26 $4 #
coedge $-1 $27 $28 $29 $30 forward $7 $-1 #
surf-twe-attrib $-1 $-1 $-1 $8 4 #
face_name-twe-attrib $-1 $-1 $-1 $10 3 #
face $31 $32 $33 $3 $-1 $34 forward single #
loop $35 $-1 $29 $10 #
plane-surface $36 50 -36 0 1 0 0 0 0 -1 forward_v I I I I #
loop_type-twe-attrib $-1 $-1 $-1 $11 0 #
loop $37 $-1 $38 $6 #
coedge $-1 $39 $40 $41 $42 reversed $11 $-1 #
surf-twe-attrib $-1 $-1 $-1 $12 6 #
loop_type-twe-attrib $-1 $-1 $-1 $14 1 #
coedge $-1 $26 $26 $43 $44 forward $14 $-1 #
coedge $-1 $45 $15 $46 $47 forward $7 $-1 #
coedge $-1 $15 $48 $49 $50 forward $7 $-1 #
coedge $-1 $51 $52 $15 $30 reversed $19 $-1 #
edge $53 $54 10 $55 18 $29 $56 forward 7 unknown #
face_name-twe-attrib $-1 $-1 $-1 $18 4 #
face $57 $58 $59 $3 $-1 $60 reversed single #
loop $61 $-1 $49 $18 #
plane-surface $62 50 -28 0 0.3420201433256679358 0.939692620785908761 0 0 0 1 forward_v I I I I #
loop_type-twe-attrib $-1 $-1 $-1 $19 0 #
surf-twe-attrib $-1 $63 $-1 $20 64 #
loop_type-twe-attrib $-1 $-1 $-1 $22 1 #
coedge $-1 $38 $38 $64 $65 reversed $22 $-1 #
coedge $-1 $66 $23 $67 $68 reversed $11 $-1 #
coedge $-1 $23 $69 $70 $71 reversed $11 $-1 #
coedge $-1 $52 $51 $23 $42 forward $19 $-1 #
edge $72 $73 10 $74 18 $41 $75 forward 7 unknown #
coedge $-1 $43 $43 $26 $44 reversed $76 $-1 #
edge $77 $78 -6.283185307179586232 $78 -0 $43 $79 reversed 7 unknown #
coedge $-1 $80 $27 $81 $82 forward $7 $-1 #
coedge $-1 $83 $84 $27 $47 reversed $85 $-1 #
edge $86 $55 -75 $87 25 $46 $88 forward 7 unknown #
coedge $-1 $28 $89 $90 $91 forward $7 $-1 #
coedge $-1 $92 $93 $28 $50 reversed $33 $-1 #
edge $94 $95 12.59351922689106118 $54 28.28059752620706746 $49 $96 forward 7 unknown #
coedge $-1 $41 $29 $93 $97 reversed $19 $-1 #
coedge $-1 $29 $41 $83 $98 forward $19 $-1 #
edge_name-twe-attrib $-1 $-1 $-1 $30 1 8704 #
vertex $-1 $97 $99 #
vertex $-1 $98 $100 #
straight-curve $-1 50 -18 0 0 -1 0 I I #
face_name-twe-attrib $-1 $-1 $-1 $32 5 #
face $101 $102 $103 $3 $-1 $104 forward single #
loop $105 $-1 $90 $32 #
cone-surface $106 37.31108914039599966 -16.99654750699150085 0 0 0 1 -6 0 0 1 I I 0 1 6 forward I I I I #
loop_type-twe-attrib $-1 $-1 $-1 $33 0 #
surf-twe-attrib $-1 $-1 $-1 $34 18 #
surf-twe-attrib $-1 $-1 $36 $20 10 #
coedge $-1 $64 $64 $38 $65 forward $107 $-1 #
edge $108 $109 -6.283185307179586232 $109 -0 $64 $110 reversed 7 unknown #
coedge $-1 $111 $39 $112 $113 reversed $11 $-1 #
coedge $-1 $93 $92 $39 $68 forward $33 $-1 #
edge $114 $115 12.59351922689106118 $73 28.28059752620706746 $67 $116 forward 7 unknown #
coedge $-1 $40 $117 $118 $119 reversed $11 $-1 #
coedge $-1 $84 $83 $40 $71 forward $85 $-1 #
edge $120 $74 -75 $121 25 $70 $122 forward 7 unknown #
edge_name-twe-attrib $-1 $-1 $-1 $42 2 8704 #
vertex $-1 $97 $123 #
vertex $-1 $98 $124 #
straight-curve $-1 50 -18 25 0 -1 0 I I #
loop $125 $126 $43 $127 #
edge_name-twe-attrib $-1 $-1 $-1 $44 49 4608 #
vertex $-1 $44 $128 #
ellipse-curve $-1 0 0 0 -0 -0 -1 28 0 0 1 I I #
coedge $-1 $129 $45 $130 $131 forward $7 $-1 #
coedge $-1 $132 $133 $45 $82 reversed $134 $-1 #
edge $135 $87 -22 $136 -14.00000000000005329 $81 $137 forward 7 unknown #
coedge $-1 $70 $46 $52 $98 reversed $85 $-1 #
coedge $-1 $46 $70 $132 $138 forward $85 $-1 #
loop $139 $-1 $46 $140 #
edge_name-twe-attrib $-1 $-1 $-1 $47 45 8704 #
vertex $-1 $138 $141 #
straight-curve $-1 -25 -36 0 -1 0 0 I I #
coedge $-1 $48 $142 $143 $144 forward $7 $-1 #
coedge $-1 $145 $146 $48 $91 reversed $59 $-1 #
edge $147 $148 -0.4274481893552456446 $95 1.221730476396031273 $90 $149 reversed 7 unknown #
coedge $-1 $67 $49 $146 $150 reversed $33 $-1 #
coedge $-1 $49 $67 $51 $97 forward $33 $-1 #
edge_name-twe-attrib $-1 $-1 $-1 $50 3 8704 #
vertex $-1 $150 $151 #
straight-curve $-1 23.42493119320699435 -18.32746598075113198 0 0.939692620785908761 -0.3420201433256679358 0 I I #
edge $152 $73 -25 $54 0 $93 $153 forward 7 unknown #
edge $154 $74 -25 $55 -0 $83 $155 reversed 7 unknown #
point $-1 50 -28 0 #
point $-1 50 -36 0 #
face_name-twe-attrib $-1 $-1 $-1 $58 6 #
face $156 $157 $158 $3 $-1 $159 reversed single #
loop $160 $-1 $143 $58 #
cone-surface $161 0 0 0 0 0 1 -35 0 0 1 I I 0 1 35 forward I I I I #
loop_type-twe-attrib $-1 $-1 $-1 $59 0 #
surf-twe-attrib $-1 $-1 $-1 $60 32 #
loop $162 $163 $64 $164 #
edge_name-twe-attrib $-1 $-1 $-1 $65 80 8704 #
vertex $-1 $65 $165 #
ellipse-curve $-1 0 0 25 -0 -0 -1 -21.5 0 0 1 I I #
coedge $-1 $166 $66 $167 $168 reversed $11 $-1 #
coedge $-1 $146 $145 $66 $113 forward $59 $-1 #
edge $169 $170 -0.4274481893552456446 $115 1.221730476396031273 $112 $171 reversed 7 unknown #
edge_name-twe-attrib $-1 $-1 $-1 $68 4 8704 #
vertex $-1 $150 $172 #
straight-curve $-1 23.42493119320699435 -18.32746598075113198 25 0.939692620785908761 -0.3420201433256679358 0 I I #
coedge $-1 $69 $173 $174 $175 reversed $11 $-1 #
coedge $-1 $133 $132 $69 $119 forward $134 $-1 #
edge $176 $121 -22 $177 -14.00000000000005329 $118 $178 forward 7 unknown #
edge_name-twe-attrib $-1 $-1 $-1 $71 47 8704 #
vertex $-1 $138 $179 #
straight-curve $-1 -25 -36 25 -1 0 0 I I #
point $-1 50 -28 25 #
point $-1 50 -36 25 #
loop_type-twe-attrib $-1 $-1 $-1 $76 0 #
loop $180 $-1 $181 $127 #
face $182 $183 $76 $3 $-1 $184 forward single #
point $-1 28 0 0 #
coedge $-1 $185 $80 $186 $187 forward $7 $-1 #
coedge $-1 $188 $189 $80 $131 reversed $190 $-1 #
edge $191 $136 -36.12413667586508126 $192 -20.43705837654914603 $130 $193 forward 7 unknown #
coedge $-1 $118 $81 $84 $138 reversed $134 $-1 #
coedge $-1 $81 $118 $188 $194 forward $134 $-1 #
loop $195 $-1 $81 $196 #
edge_name-twe-attrib $-1 $-1 $-1 $82 42 8704 #
vertex $-1 $194 $197 #
straight-curve $-1 -50 -14 0 0 1 -0 I I #
edge $198 $121 -25 $87 -0 $84 $199 forward 7 unknown #
loop_type-twe-attrib $-1 $-1 $-1 $85 0 #
face $200 $127 $85 $3 $-1 $201 forward single #
point $-1 -50 -36 0 #
coedge $-1 $89 $202 $203 $204 forward $7 $-1 #
coedge $-1 $205 $206 $89 $144 reversed $103 $-1 #
edge $207 $208 2.714144464234548693 $148 3.569040842945038872 $143 $209 forward 7 unknown #
coedge $-1 $112 $90 $206 $210 reversed $59 $-1 #
coedge $-1 $90 $112 $92 $150 forward $59 $-1 #
edge_name-twe-attrib $-1 $-1 $-1 $91 6 8704 #
vertex $-1 $210 $211 #
ellipse-curve $-1 37.31108914039599966 -16.99654750699150085 0 -0 -0 -1 -6 0 0 1 I I #
edge $212 $115 -25 $95 -0 $146 $213 reversed 7 unknown #
point $-1 35.25896828044199083 -22.63470323170695053 0 #
edge_name-twe-attrib $-1 $-1 $-1 $97 5 8448 #
straight-curve $-1 50 -28 0 0 0 -1 I I #
edge_name-twe-attrib $-1 $-1 $-1 $98 46 8704 #
straight-curve $-1 50 -36 0 -0 0 1 I I #
face_name-twe-attrib $-1 $-1 $-1 $102 7 #
face $214 $215 $216 $3 $-1 $217 forward single #
loop $218 $-1 $203 $102 #
cone-surface $219 37.31108914039609914 16.99654750699150085 0 0 0 1 -6 0 0 1 I I 0 1 6 forward I I I I #
loop_type-twe-attrib $-1 $-1 $-1 $103 0 #
surf-twe-attrib $-1 $220 $-1 $104 252 #
loop_type-twe-attrib $-1 $-1 $-1 $107 0 #
loop $221 $222 $223 $164 #
face $224 $225 $107 $3 $-1 $226 reversed single #
point $-1 -21.5 0 25 #
coedge $-1 $227 $111 $228 $229 reversed $11 $-1 #
coedge $-1 $206 $205 $111 $168 forward $103 $-1 #
edge $230 $231 2.714144464234548693 $170 3.569040842945038872 $167 $232 forward 7 unknown #
edge_name-twe-attrib $-1 $-1 $-1 $113 7 8704 #
vertex $-1 $210 $233 #
ellipse-curve $-1 37.31108914039599966 -16.99654750699150085 25 -0 -0 -1 -6 0 0 1 I I #
point $-1 35.25896828044199083 -22.63470323170695053 25 #
coedge $-1 $117 $234 $235 $236 reversed $11 $-1 #
coedge $-1 $189 $188 $117 $175 forward $190 $-1 #
edge $237 $177 -36.12413667586508126 $238 -20.43705837654914603 $174 $239 forward 7 unknown #
edge_name-twe-attrib $-1 $-1 $-1 $119 43 8704 #
vertex $-1 $194 $240 #
straight-curve $-1 -50 -14 25 0 1 -0 I I #
point $-1 -50 -36 25 #
loop_type-twe-attrib $-1 $-1 $-1 $126 1 #
coedge $-1 $241 $242 $243 $244 forward $126 $-1 #
face_name-twe-attrib $-1 $-1 $-1 $127 19 #
face $245 $246 $247 $3 $-1 $248 reversed single #
cone-surface $249 0 0 0 0 0 -1 28 0 0 1 I I 0 1 28 forward I I I I #
coedge $-1 $250 $129 $251 $252 forward $7 $-1 #
coedge $-1 $253 $254 $129 $187 reversed $255 $-1 #
edge $256 $192 -4.363323129985824167 $257 -2.714144464234548249 $186 $258 reversed 7 unknown #
coedge $-1 $174 $130 $133 $194 reversed $190 $-1 #
coedge $-1 $130 $174 $253 $259 forward $190 $-1 #
loop $260 $-1 $130 $261 #
edge_name-twe-attrib $-1 $-1 $-1 $131 39 8704 #
vertex $-1 $259 $262 #
straight-curve $-1 -16.05441533342799332 -15.6448175966046179 0 0.9396926207859083169 0.3420201433256691015 -0 I I #
edge $263 $177 -25 $136 0 $133 $264 forward 7 unknown #
loop_type-twe-attrib $-1 $-1 $-1 $134 0 #
face $265 $140 $134 $3 $-1 $266 forward single #
point $-1 -50 -28.00000000000005329 0 #
edge_name-twe-attrib $-1 $-1 $-1 $138 48 8704 #
straight-curve $-1 -50 -36 0 -0 -0 -1 I I #
face_name-twe-attrib $-1 $-1 $-1 $140 18 #
plane-surface $267 -50 -36 0 0 -1 0 0 0 -1 forward_v I I I I #
coedge $-1 $142 $268 $269 $270 forward $7 $-1 #
coedge $-1 $271 $272 $142 $204 reversed $158 $-1 #
edge $273 $274 -1.221730476396030829 $208 0.4274481893552449785 $203 $275 reversed 7 unknown #
coedge $-1 $167 $143 $272 $276 reversed $103 $-1 #
coedge $-1 $143 $167 $145 $210 forward $103 $-1 #
edge_name-twe-attrib $-1 $-1 $-1 $144 9 8704 #
vertex $-1 $276 $277 #
ellipse-curve $-1 0 0 0 -0 -0 -1 -35 0 0 1 I I #
edge $278 $170 -25 $148 -0 $206 $279 reversed 7 unknown #
point $-1 31.85092975399663118 -14.50924787182203524 0 #
edge_name-twe-attrib $-1 $-1 $-1 $150 8 20480 #
straight-curve $-1 35.25896828044198372 -22.63470323170696474 0 0 0 1 I I #
face_name-twe-attrib $-1 $-1 $-1 $157 8 #
face $280 $281 $282 $3 $-1 $283 forward single #
loop $284 $-1 $269 $157 #
plane-surface $285 35.25896828044199793 22.63470323170700027 0 0.3420201433256691015 -0.9396926207859083169 0 0 0 -1 forward_v I I I I #
loop_type-twe-attrib $-1 $-1 $-1 $158 0 #
surf-twe-attrib $-1 $-1 $-1 $159 104 #
surf-twe-attrib $-1 $-1 $161 $104 58 #
loop_type-twe-attrib $-1 $-1 $-1 $163 1 #
loop $286 $-1 $287 $164 #
coedge $-1 $223 $223 $288 $289 reversed $163 $-1 #
face_name-twe-attrib $-1 $-1 $-1 $164 32 #
face $290 $291 $292 $3 $-1 $293 reversed single #
cone-surface $294 0 0 25 0 0 -1 -21.5 0 0 1 I I 0 1 21.5 forward I I I I #
coedge $-1 $295 $166 $296 $297 reversed $11 $-1 #
coedge $-1 $272 $271 $166 $229 forward $158 $-1 #
edge $298 $299 -1.221730476396030829 $231 0.4274481893552449785 $228 $300 reversed 7 unknown #
edge_name-twe-attrib $-1 $-1 $-1 $168 10 8704 #
vertex $-1 $276 $301 #
ellipse-curve $-1 0 0 25 -0 -0 -1 -35 0 0 1 I I #
point $-1 31.85092975399663118 -14.50924787182203524 25 #
coedge $-1 $173 $302 $303 $304 reversed $11 $-1 #
coedge $-1 $254 $253 $173 $236 forward $255 $-1 #
edge $305 $238 -4.363323129985824167 $306 -2.714144464234548249 $235 $307 reversed 7 unknown #
edge_name-twe-attrib $-1 $-1 $-1 $175 40 8704 #
vertex $-1 $259 $308 #
straight-curve $-1 -16.05441533342799332 -15.6448175966046179 25 0.9396926207859083169 0.3420201433256691015 -0 I I #
point $-1 -50 -28.00000000000005329 25 #
coedge $-1 $242 $181 $309 $310 reversed $126 $-1 #
coedge $-1 $181 $241 $311 $312 reversed $126 $-1 #
coedge $-1 $313 $314 $181 $244 reversed $315 $-1 #
edge $316 $317 -7.555041465986362503 $318 -1.869736494783016623 $243 $319 reversed 7 unknown #
face_name-twe-attrib $-1 $-1 $-1 $183 20 #
face $320 $321 $322 $3 $-1 $323 forward single #
loop $324 $325 $326 $183 #
plane-surface $327 0 0 -38 0 0 -1 -1 0 0 forward_v I I I I #
surf-twe-attrib $-1 $-1 $-1 $184 134 #
coedge $-1 $328 $185 $329 $330 forward $7 $-1 #
coedge $-1 $331 $332 $185 $252 reversed $333 $-1 #
edge $334 $257 -0.4274481893552447564 $335 0.427448189355244812 $251 $336 forward 7 unknown #
coedge $-1 $235 $186 $189 $259 reversed $255 $-1 #
coedge $-1 $186 $235 $331 $337 forward $255 $-1 #
loop $338 $-1 $186 $339 #
edge_name-twe-attrib $-1 $-1 $-1 $187 36 8704 #
vertex $-1 $337 $340 #
ellipse-curve $-1 -37.31108914039609914 -16.99654750699150085 0 -0 -0 -1 -6 0 0 1 I I #
edge $341 $238 -25 $192 -0 $189 $342 reversed 7 unknown #
loop_type-twe-attrib $-1 $-1 $-1 $190 0 #
face $343 $196 $190 $3 $-1 $344 forward single #
point $-1 -35.25896828044206188 -22.63470323170702159 0 #
edge_name-twe-attrib $-1 $-1 $-1 $194 44 8448 #
straight-curve $-1 -50 -28.00000000000005329 0 0 0 -1 I I #
face_name-twe-attrib $-1 $-1 $-1 $196 17 #
plane-surface $345 -50 -28 0 -1 0 0 0 0 1 forward_v I I I I #
surf-twe-attrib $-1 $-1 $-1 $201 148 #
coedge $-1 $202 $346 $347 $348 forward $7 $-1 #
coedge $-1 $349 $350 $202 $270 reversed $216 $-1 #
edge $351 $352 -36.12413667586508126 $274 -20.43705837654914603 $269 $353 forward 7 unknown #
coedge $-1 $228 $203 $350 $354 reversed $158 $-1 #
coedge $-1 $203 $228 $205 $276 forward $158 $-1 #
edge_name-twe-attrib $-1 $-1 $-1 $204 12 8704 #
vertex $-1 $354 $355 #
ellipse-curve $-1 37.31108914039609914 16.99654750699150085 0 -0 -0 -1 -6 0 0 1 I I #
edge $356 $231 -25 $208 -0 $272 $357 reversed 7 unknown #
point $-1 31.85092975399667381 14.50924787182201392 0 #
edge_name-twe-attrib $-1 $-1 $-1 $210 11 24576 #
straight-curve $-1 31.85092975399658499 -14.50924787182201214 0 0 0 1 I I #
face_name-twe-attrib $-1 $-1 $-1 $215 9 #
face $358 $359 $360 $3 $-1 $361 forward single #
loop $362 $-1 $347 $215 #
plane-surface $363 50 28 0 1 0 0 0 0 -1 forward_v I I I I #
loop_type-twe-attrib $-1 $-1 $-1 $216 0 #
surf-twe-attrib $-1 $-1 $-1 $217 169 #
loop_type-twe-attrib $-1 $-1 $-1 $222 1 #
coedge $-1 $364 $364 $365 $366 forward $222 $-1 #
coedge $-1 $288 $288 $223 $289 forward $367 $-1 #
edge $368 $369 0 $369 6.283185307179586232 $223 $370 forward 7 unknown #
face_name-twe-attrib $-1 $-1 $-1 $225 33 #
face $371 $372 $373 $3 $-1 $374 forward single #
loop $375 $376 $377 $225 #
plane-surface $378 0 -50 0 0 1 0 0 0 1 forward_v I I I I #
surf-twe-attrib $-1 $-1 $-1 $226 183 #
coedge $-1 $379 $227 $380 $381 reversed $11 $-1 #
coedge $-1 $350 $349 $227 $297 forward $216 $-1 #
edge $382 $383 -36.12413667586508126 $299 -20.43705837654914603 $296 $384 forward 7 unknown #
edge_name-twe-attrib $-1 $-1 $-1 $229 13 8704 #
vertex $-1 $354 $385 #
ellipse-curve $-1 37.31108914039609914 16.99654750699150085 25 -0 -0 -1 -6 0 0 1 I I #
point $-1 31.85092975399667381 14.50924787182201392 25 #
coedge $-1 $234 $386 $387 $388 reversed $11 $-1 #
coedge $-1 $332 $331 $234 $304 forward $333 $-1 #
edge $389 $306 -0.4274481893552447564 $390 0.427448189355244812 $303 $391 forward 7 unknown #
edge_name-twe-attrib $-1 $-1 $-1 $236 37 8704 #
vertex $-1 $337 $392 #
ellipse-curve $-1 -37.31108914039609914 -16.99654750699150085 25 -0 -0 -1 -6 0 0 1 I I #
point $-1 -35.25896828044206188 -22.63470323170702159 25 #
coedge $-1 $393 $311 $241 $310 forward $394 $-1 #
edge $395 $396 28.14567705987614943 $318 76.07530395553705205 $309 $397 reversed 7 unknown #
coedge $-1 $309 $398 $242 $312 forward $394 $-1 #
edge $399 $317 -19.78394983578474609 $396 28.14567705987614943 $311 $400 reversed 7 unknown #
coedge $-1 $401 $243 $398 $402 forward $315 $-1 #
coedge $-1 $243 $403 $393 $404 reversed $315 $-1 #
loop $405 $-1 $314 $183 #
edge_name-twe-attrib $-1 $-1 $-1 $244 50 4608 #
vertex $-1 $244 $406 #
vertex $-1 $244 $407 #
ellipse-curve $-1 0 0 -38 0 0 -1 28 0 0 1 I I #
face_name-twe-attrib $-1 $-1 $-1 $246 21 #
face $408 $409 $410 $3 $-1 $411 reversed single #
loop $412 $413 $414 $246 #
plane-surface $415 0 0 -56 0 0 -1 -1 0 0 forward_v I I I I #
loop_type-twe-attrib $-1 $-1 $-1 $247 1 #
loop $416 $315 $417 $183 #
coedge $-1 $326 $326 $418 $419 forward $247 $-1 #
surf-twe-attrib $-1 $-1 $-1 $248 207 #
coedge $-1 $420 $250 $421 $422 forward $7 $-1 #
coedge $-1 $423 $424 $250 $330 reversed $425 $-1 #
edge $426 $335 -3.569040842945037983 $427 -1.919862177193763175 $329 $428 reversed 7 unknown #
coedge $-1 $303 $251 $254 $337 reversed $333 $-1 #
coedge $-1 $251 $303 $423 $429 forward $333 $-1 #
loop $430 $-1 $251 $431 #
edge_name-twe-attrib $-1 $-1 $-1 $252 33 8704 #
vertex $-1 $429 $432 #
ellipse-curve $-1 0 0 0 -0 -0 -1 -35 0 0 1 I I #
edge $433 $306 -25 $257 -0 $254 $434 reversed 7 unknown #
loop_type-twe-attrib $-1 $-1 $-1 $255 0 #
face $435 $261 $255 $3 $-1 $436 reversed single #
point $-1 -31.85092975399667381 -14.50924787182201392 0 #
edge_name-twe-attrib $-1 $-1 $-1 $259 41 20480 #
straight-curve $-1 -35.25896828044206188 -22.63470323170702159 0 0 0 1 I I #
face_name-twe-attrib $-1 $-1 $-1 $261 16 #
plane-surface $437 -35.25896828044199793 -22.63470323170700027 0 -0.3420201433256691015 0.9396926207859083169 0 0 0 1 forward_v I I I I #
surf-twe-attrib $-1 $438 $-1 $266 220 #
coedge $-1 $268 $420 $439 $440 forward $7 $-1 #
coedge $-1 $441 $442 $268 $348 reversed $282 $-1 #
edge $443 $444 -22 $352 -14.00000000000005329 $347 $445 forward 7 unknown #
coedge $-1 $296 $269 $442 $446 reversed $216 $-1 #
coedge $-1 $269 $296 $271 $354 forward $216 $-1 #
edge_name-twe-attrib $-1 $-1 $-1 $270 15 8704 #
vertex $-1 $446 $447 #
straight-curve $-1 16.05441533342799332 15.6448175966046179 0 -0.9396926207859083169 -0.3420201433256691015 0 I I #
edge $448 $299 -25 $274 -0 $350 $449 reversed 7 unknown #
point $-1 35.25896828044206188 22.63470323170702159 0 #
edge_name-twe-attrib $-1 $-1 $-1 $276 14 24576 #
straight-curve $-1 31.85092975399667026 14.50924787182201214 0 0 0 1 I I #
face_name-twe-attrib $-1 $-1 $-1 $281 10 #
face $450 $451 $452 $3 $-1 $453 forward single #
loop $454 $-1 $439 $281 #
plane-surface $455 50 36 0 0 1 0 0 0 1 forward_v I I I I #
loop_type-twe-attrib $-1 $-1 $-1 $282 0 #
surf-twe-attrib $-1 $456 $-1 $283 64 #
coedge $-1 $287 $287 $457 $458 forward $222 $-1 #
coedge $-1 $457 $457 $287 $366 reversed $459 $-1 #
edge $460 $461 -77.54242697321016919 $462 -38.7712134866050846 $365 $463 reversed 7 unknown #
loop $464 $-1 $288 $246 #
edge_name-twe-attrib $-1 $-1 $-1 $289 81 8704 #
vertex $-1 $289 $465 #
ellipse-curve $-1 0 0 -56 -0 -0 1 -21.5 0 0 1 I I #
face_name-twe-attrib $-1 $-1 $-1 $291 34 #
face $466 $-1 $467 $3 $-1 $468 reversed single #
loop $469 $394 $470 $291 #
cone-surface $471 0 -50 -22 0 1 0 0 0 -18 1 I I 0 1 18 forward I I I I #
loop_type-twe-attrib $-1 $-1 $-1 $292 0 #
loop $472 $-1 $473 $225 #
coedge $-1 $377 $377 $470 $474 forward $292 $-1 #
surf-twe-attrib $-1 $-1 $-1 $293 268 #
coedge $-1 $475 $295 $476 $477 reversed $11 $-1 #
coedge $-1 $442 $441 $295 $381 forward $282 $-1 #
edge $478 $479 -22 $383 -14.00000000000005329 $380 $480 forward 7 unknown #
edge_name-twe-attrib $-1 $-1 $-1 $297 16 8704 #
vertex $-1 $446 $481 #
straight-curve $-1 16.05441533342799332 15.6448175966046179 25 -0.9396926207859083169 -0.3420201433256691015 0 I I #
point $-1 35.25896828044206188 22.63470323170702159 25 #
coedge $-1 $302 $475 $482 $483 reversed $11 $-1 #
coedge $-1 $424 $423 $302 $388 forward $425 $-1 #
edge $484 $390 -3.569040842945037983 $485 -1.919862177193763175 $387 $486 reversed 7 unknown #
edge_name-twe-attrib $-1 $-1 $-1 $304 34 8704 #
vertex $-1 $429 $487 #
ellipse-curve $-1 0 0 25 -0 -0 -1 -35 0 0 1 I I #
point $-1 -31.85092975399667381 -14.50924787182201392 25 #
coedge $-1 $488 $309 $314 $404 forward $394 $-1 #
loop $489 $-1 $309 $291 #
edge_name-twe-attrib $-1 $-1 $-1 $310 83 4352 #
vertex $-1 $310 $490 #
intcurve-curve $-1 forward { surfintcur full nubs 3 open 19 
	-76.07530395553705205 3 -73.93072496011714634 2 -70.42862288694671236 2 -66.89430569514810543 2 -63.35998850334950561 2 
	-59.82567131155090578 2 -58.05851271565160232 2 -56.29135411975229886 2 -54.52419552385299539 2 -52.75703692795369193 2 
	-49.22271973615509211 2 -45.68840254435649229 2 -42.15408535255788536 2 -38.65198327938745138 2 -35.14988120621701739 2 
	-33.39883016963180751 2 -31.64777913304658341 2 -29.89672809646135931 2 -28.14567705987614943 3 
	-8.246064228566504895 -26.75802760248615897 -37.99980375308886238 
	-8.89360977173509859 -26.55839841911544852 -37.66596199198917105 
	-9.516193051121131674 -26.34090586775598908 -37.29548051725921454 
	-11.07160795548907828 -25.73887166743750043 -36.24003478146768487 
	-11.9514781704195201 -25.33618067061585322 -35.5043659522961903 
	-13.51150830038659123 -24.54002993411093314 -33.94433582232912272 
	-14.248443480425518 -24.11591632865075141 -33.0606804525643625 
	-15.55515298878466979 -23.29447955137203863 -31.13203203240116679 
	-16.12524379280754161 -22.89774871537138878 -30.08700117754714398 
	-17.05141988236821504 -22.21665017665968733 -27.88829801016614951 
	-17.40827761434226062 -21.93274287227731989 -26.73229568080203933 
	-17.76409767581469623 -21.6439406979200939 -24.96606159666519886 
	-17.85302254094582608 -21.57024510828905761 -24.37196110862391762 
	-17.97097773718705227 -21.47207132649793948 -23.1834578642026834 
	-18 -21.44761058952721555 -22.58905286529976664 
	-18 -21.44761058952721555 -21.41094713470023336 
	-17.97097773718705227 -21.47207132649793948 -20.81654213579731305 
	-17.85302254094582608 -21.57024510828905761 -19.62803889137607527 
	-17.76409767581469623 -21.6439406979200939 -19.03393840333479403 
	-17.40827761434226417 -21.93274287227731989 -17.26770431919796067 
	-17.05141988236821859 -22.21665017665968733 -16.11170198983385049 
	-16.12524379280754161 -22.89774871537138523 -13.91299882245285957 
	-15.55515298878466623 -23.29447955137203863 -12.86796796759884032 
	-14.24844348042551623 -24.11591632865075141 -10.93931954743564638 
	-13.51150830038659123 -24.54002993411092959 -10.05566417767088083 
	-11.9514781704195201 -25.33618067061585677 -8.495634047703809699 
	-11.07160795548907117 -25.73887166743750754 -7.759965218532305364 
	-9.14225451935210387 -26.48564138771895671 -6.450778935639523759 
	-8.092656620036342119 -26.82927448413265381 -5.877176336331369377 
	-6.435837192880400792 -27.2562885694989383 -5.17920521003616674 
	-5.86938105178537306 -27.38419834671876885 -4.973155759634847684 
	-4.717582813483690352 -27.60594800801906246 -4.618760944205122065 
	-4.132237549161517975 -27.69977973280830952 -4.470420767130401707 
	-2.953203425844333374 -27.85016649749606543 -4.233736330486491006 
	-2.359417684669146809 -27.90672795489782132 -4.145379402404084423 
	-1.174658143060045123 -27.98164568438300748 -4.028508499799702491 
	-0.583683678861738886 -28 -4 
	-2.220446049250313081e-15 -28 -4 
	0.0004878049109065123764 
	cone 0 -50 -22 0 1 0 0 0 -18 1 I I 0 1 18 forward I I I I 
	cone 0 0 0 0 0 -1 28 0 0 1 I I 0 1 28 forward I I I I 
	nullbs 
	nullbs 
	I I 
	0 
	0 
	0 
	} I I #
coedge $-1 $311 $491 $313 $402 reversed $394 $-1 #
edge_name-twe-attrib $-1 $-1 $-1 $312 88 4352 #
intcurve-curve $-1 forward { surfintcur full nubs 3 open 19 
	-28.14567705987614943 3 -26.39462602329093954 2 -24.64357498670571545 2 -22.89252395012049135 2 -21.14147291353528146 2 
	-17.63937084036484748 2 -14.1372687671944135 2 -10.60295157539580657 2 -7.068634383597199644 2 -3.534317191798592717 2 
	-1.767158595899289253 2 0 3 1.767158595899301687 2 3.534317191798603375 2 7.06863438359720675 2 
	10.60295157539581012 2 14.1372687671944135 2 17.63937084036484748 2 19.78394983578474609 3 
	-2.220446049250313081e-15 -28 -4 
	0.5836836788617344451 -28 -4 
	1.174658143060041127 -27.98164568438300748 -4.028508499799702491 
	2.3594176846691437 -27.90672795489782132 -4.145379402404083535 
	2.95320342584433071 -27.85016649749606188 -4.233736330486491006 
	4.132237549161516199 -27.69977973280831307 -4.470420767130401707 
	4.717582813483688575 -27.60594800801906601 -4.618760944205121177 
	5.869381051785371284 -27.3841983467187724 -4.973155759634846795 
	6.435837192880399016 -27.25628856949894185 -5.179205210036167628 
	8.092656620036340342 -26.82927448413265381 -5.877176336331369377 
	9.14225451935210387 -26.48564138771895671 -6.450778935639523759 
	11.07160795548907295 -25.73887166743750754 -7.759965218532306253 
	11.9514781704195201 -25.33618067061585677 -8.495634047703806147 
	13.51150830038659123 -24.54002993411092959 -10.05566417767087728 
	14.24844348042551623 -24.11591632865075496 -10.93931954743564461 
	15.55515298878466801 -23.29447955137204218 -12.86796796759883676 
	16.12524379280754161 -22.89774871537138878 -13.91299882245285602 
	17.05141988236822215 -22.21665017665968378 -16.11170198983385404 
	17.40827761434226417 -21.93274287227731278 -17.26770431919796778 
	17.76409767581469623 -21.64394069792008679 -19.03393840333480824 
	17.85302254094582963 -21.57024510828905406 -19.62803889137608948 
	17.97097773718705582 -21.47207132649793593 -20.8165421357973166 
	18 -21.44761058952721555 -21.41094713470023692 
	18 -21.44761058952721555 -22 
	18 -21.44761058952721555 -22.58905286529976664 
	17.97097773718705582 -21.47207132649794303 -23.1834578642026905 
	17.85302254094582963 -21.57024510828906116 -24.37196110862392473 
	17.76409767581469978 -21.6439406979200939 -24.96606159666520242 
	17.40827761434226417 -21.93274287227732344 -26.73229568080203933 
	17.05141988236821859 -22.21665017665968733 -27.88829801016615306 
	16.12524379280754161 -22.89774871537138878 -30.08700117754714398 
	15.55515298878466268 -23.29447955137203863 -31.13203203240115968 
	14.2484434804255109 -24.11591632865075496 -33.06068045256435539 
	13.51150830038659123 -24.54002993411093314 -33.94433582232912272 
	11.9514781704195201 -25.33618067061585677 -35.50436595229619741 
	11.07160795548907828 -25.73887166743750399 -36.24003478146768487 
	9.516193051121135227 -26.34090586775598908 -37.29548051725921454 
	8.893609771735103919 -26.55839841911544852 -37.66596199198917105 
	8.246064228566513776 -26.75802760248615897 -37.99980375308886238 
	0.0004878049109065123764 
	cone 0 -50 -22 0 1 0 0 0 -18 1 I I 0 1 18 forward I I I I 
	cone 0 0 0 0 0 -1 28 0 0 1 I I 0 1 28 forward I I I I 
	nullbs 
	nullbs 
	I I 
	0 
	0 
	0 
	} I I #
coedge $-1 $492 $313 $493 $494 forward $315 $-1 #
edge $495 $317 -23.24182367948069583 $496 -18.04690938265908429 $398 $497 reversed 7 unknown #
coedge $-1 $314 $498 $499 $500 forward $315 $-1 #
edge $501 $318 -23.24182367948069583 $502 -18.04690938265908073 $393 $503 forward 7 unknown #
loop_type-twe-attrib $-1 $-1 $-1 $315 0 #
point $-1 8.246211251235322948 -26.75817632051930417 -38 #
point $-1 -8.246211251235317619 -26.75817632051930417 -38 #
face_name-twe-attrib $-1 $-1 $-1 $321 22 #
face $504 $505 $506 $3 $-1 $507 reversed single #
loop $508 $509 $418 $321 #
cone-surface $510 34 0 -38 0 0 -1 2 0 0 1 I I 0 1 2 forward I I I I #
loop_type-twe-attrib $-1 $-1 $-1 $322 1 #
loop $511 $512 $513 $246 #
coedge $-1 $414 $414 $514 $515 reversed $322 $-1 #
surf-twe-attrib $-1 $-1 $-1 $323 296 #
loop_type-twe-attrib $-1 $-1 $-1 $325 1 #
coedge $-1 $417 $417 $516 $517 forward $325 $-1 #
coedge $-1 $418 $418 $326 $419 reversed $410 $-1 #
edge $518 $519 -6.283185307179586232 $519 -0 $418 $520 reversed 7 unknown #
coedge $-1 $346 $328 $521 $522 forward $7 $-1 #
coedge $-1 $523 $524 $328 $422 reversed $525 $-1 #
edge $526 $427 12.59351922689115355 $527 28.28059752620707457 $421 $528 forward 7 unknown #
coedge $-1 $387 $329 $332 $429 reversed $425 $-1 #
coedge $-1 $329 $387 $523 $529 forward $425 $-1 #
loop $530 $-1 $329 $531 #
edge_name-twe-attrib $-1 $-1 $-1 $330 30 8704 #
vertex $-1 $529 $532 #
ellipse-curve $-1 -37.31108914039609914 16.99654750699150085 0 -0 -0 -1 -6 0 0 1 I I #
edge $533 $390 -25 $335 -0 $332 $534 reversed 7 unknown #
loop_type-twe-attrib $-1 $-1 $-1 $333 0 #
face $535 $339 $333 $3 $-1 $536 forward single #
point $-1 -31.85092975399664539 14.50924787182200149 0 #
edge_name-twe-attrib $-1 $-1 $-1 $337 38 24576 #
straight-curve $-1 -31.85092975399667026 -14.50924787182201214 0 0 0 1 I I #
face_name-twe-attrib $-1 $-1 $-1 $339 15 #
cone-surface $537 -37.31108914039609914 -16.99654750699150085 0 0 0 1 -6 0 0 1 I I 0 1 6 forward I I I I #
surf-twe-attrib $-1 $-1 $-1 $344 311 #
surf-twe-attrib $-1 $-1 $345 $266 175 #
coedge $-1 $538 $539 $346 $440 reversed $360 $-1 #
edge $540 $541 -75 $444 25 $439 $542 forward 7 unknown #
coedge $-1 $380 $347 $539 $543 reversed $282 $-1 #
coedge $-1 $347 $380 $349 $446 forward $282 $-1 #
edge_name-twe-attrib $-1 $-1 $-1 $348 18 8704 #
vertex $-1 $543 $544 #
straight-curve $-1 50 14 0 0 -1 0 I I #
edge $545 $383 -25 $352 0 $442 $546 forward 7 unknown #
point $-1 50 28.00000000000005329 0 #
edge_name-twe-attrib $-1 $-1 $-1 $354 17 20480 #
straight-curve $-1 35.25896828044206188 22.63470323170702159 0 0 0 1 I I #
face_name-twe-attrib $-1 $-1 $-1 $359 11 #
face $547 $531 $525 $3 $-1 $548 forward single #
loop $549 $-1 $521 $359 #
plane-surface $550 -50 36 0 -1 0 0 0 0 1 forward_v I I I I #
loop_type-twe-attrib $-1 $-1 $-1 $360 0 #
surf-twe-attrib $-1 $-1 $-1 $361 110 #
surf-twe-attrib $-1 $-1 $363 $283 10 #
coedge $-1 $365 $365 $364 $458 reversed $459 $-1 #
edge $551 $462 -38.7712134866050846 $461 -0 $457 $552 reversed 7 unknown #
loop $553 $-1 $365 $372 #
edge_name-twe-attrib $-1 $-1 $-1 $366 90 8704 #
vertex $-1 $458 $554 #
vertex $-1 $366 $555 #
intcurve-curve $-1 forward { surfintcur full nubs 3 open 17 
	38.7712134866050846 3 41.20113739351650395 2 43.63106130042791619 2 46.06098520733932844 2 48.49090911425074779 2 
	50.90738689316496846 2 53.32386467207918201 2 55.74034245099339557 2 58.15682022990761624 2 60.5732980088218369 2 
	62.98977578773605046 2 65.40625356665026402 2 67.82273134556447758 2 70.25265525247590404 2 72.68257915938733049 2 
	75.11250306629875695 2 77.54242697321016919 3 
	-12.5 -17.49285568453590045 -22 
	-12.5 -17.49285568453590045 -21.19002536436286022 
	-12.4200854304789523 -17.5508122085858389 -20.36177676255423563 
	-12.09338163200295035 -17.77750409118446129 -18.73007362923139141 
	-11.84675647929961073 -17.94573053817646624 -17.92651558851043347 
	-11.20414908189325409 -18.35379773439434814 -16.39589417374525482 
	-10.80764640103397412 -18.59338969781882867 -15.66725862656909563 
	-9.897909092828880873 -19.09321232054527684 -14.32274595264058803 
	-9.384500008820424455 -19.35302219128391954 -13.70683047915673392 
	-8.296188991820702796 -19.84383032819918924 -12.61851946215701048 
	-7.681822043524442201 -20.09342251977626859 -12.10559420024324773 
	-6.336852650935702158 -20.5572448770931544 -11.19472561355815365 
	-5.606187474135571946 -20.77116227330505538 -10.79671568241926138 
	-4.071141009433361546 -21.12572679284288313 -10.15226886443608834 
	-3.265216676173942734 -21.26649086743672967 -9.905312136570532999 
	-1.632411055567521974 -21.4536828517942908 -9.57911643216813502 
	-0.8054925929714107369 -21.5 -9.5 
	0.8054925929714027433 -21.5 -9.5 
	1.632411055567513536 -21.4536828517942908 -9.579116432168131468 
	3.26521667617393252 -21.26649086743672967 -9.905312136570529447 
	4.071141009433350888 -21.12572679284288668 -10.15226886443608656 
	5.606187474135561288 -20.77116227330505538 -10.79671568241925961 
	6.336852650935694165 -20.55724487709315795 -11.19472561355815188 
	7.681822043524432431 -20.09342251977627214 -12.1055942002432424 
	8.296188991820690362 -19.84383032819919279 -12.61851946215699982 
	9.384500008820413797 -19.35302219128392309 -13.7068304791567197 
	9.897909092828871991 -19.09321232054528394 -14.32274595264057382 
	10.80764640103397056 -18.59338969781883577 -15.66725862656908674 
	11.20414908189325232 -18.35379773439435169 -16.39589417374524771 
	11.84675647929961428 -17.94573053817646269 -17.92651558851043347 
	12.09338163200295213 -17.77750409118445774 -18.73007362923139851 
	12.42008543047895408 -17.5508122085858389 -20.36177676255424274 
	12.5 -17.49285568453590045 -21.19002536436286022 
	12.5 -17.49285568453590045 -22 
	0.0004958886471363795241 
	cone 0 -50 -22 0 1 0 -12.5 0 0 1 I I 0 1 12.5 forward I I I I 
	cone 0 0 25 0 0 -1 -21.5 0 0 1 I I 0 1 21.5 forward I I I I 
	nullbs 
	nullbs 
	I I 
	0 
	0 
	0 
	} I I #
loop_type-twe-attrib $-1 $-1 $-1 $367 1 #
point $-1 -21.5 0 -56 #
face_name-twe-attrib $-1 $-1 $-1 $372 35 #
loop $556 $459 $557 $372 #
cone-surface $558 0 -50 -22 0 1 0 -12.5 0 0 1 I I 0 1 12.5 forward I I I I #
loop_type-twe-attrib $-1 $-1 $-1 $373 0 #
coedge $-1 $470 $470 $377 $474 reversed $373 $-1 #
surf-twe-attrib $-1 $-1 $-1 $374 362 #
loop_type-twe-attrib $-1 $-1 $-1 $376 1 #
coedge $-1 $473 $473 $557 $559 reversed $376 $-1 #
edge $560 $561 0 $561 6.283185307179586232 $470 $562 forward 7 unknown #
coedge $-1 $386 $379 $563 $564 reversed $11 $-1 #
coedge $-1 $539 $538 $379 $477 forward $360 $-1 #
edge $565 $566 -75 $479 25 $476 $567 forward 7 unknown #
edge_name-twe-attrib $-1 $-1 $-1 $381 19 8704 #
vertex $-1 $543 $568 #
straight-curve $-1 50 14 25 0 -1 0 I I #
point $-1 50 28.00000000000005329 25 #
coedge $-1 $524 $523 $386 $483 forward $525 $-1 #
edge $569 $485 12.59351922689115355 $570 28.28059752620707457 $482 $571 forward 7 unknown #
edge_name-twe-attrib $-1 $-1 $-1 $388 31 8704 #
vertex $-1 $529 $572 #
ellipse-curve $-1 -37.31108914039609914 16.99654750699150085 25 -0 -0 -1 -6 0 0 1 I I #
point $-1 -31.85092975399664539 14.50924787182200149 25 #
coedge $-1 $491 $393 $573 $574 forward $394 $-1 #
loop_type-twe-attrib $-1 $-1 $-1 $394 1 #
point $-1 0 -28 -4 #
coedge $-1 $398 $488 $575 $576 forward $394 $-1 #
coedge $-1 $577 $401 $578 $579 forward $315 $-1 #
coedge $-1 $575 $580 $401 $494 reversed $581 $-1 #
edge $582 $496 -1.318234645683385997 $583 -0.2448638542056213452 $493 $584 forward 7 unknown #
edge_name-twe-attrib $-1 $-1 $-1 $402 87 5120 #
vertex $-1 $402 $585 #
straight-curve $-1 8.246211251235321171 -50 -38 0 1 0 I I #
coedge $-1 $403 $586 $587 $588 forward $315 $-1 #
coedge $-1 $589 $573 $403 $500 reversed $581 $-1 #
edge $590 $591 -2.896728799384171715 $502 -1.823358007906406675 $499 $592 forward 7 unknown #
edge_name-twe-attrib $-1 $-1 $-1 $404 84 5120 #
vertex $-1 $500 $593 #
straight-curve $-1 -8.246211251235321171 -50 -38 -0 -1 -0 I I #
face_name-twe-attrib $-1 $-1 $-1 $409 23 #
face $594 $595 $596 $3 $-1 $597 forward single #
loop $598 $599 $516 $409 #
cone-surface $600 -34 0 -38 0 0 -1 2 0 0 1 I I 0 1 2 forward I I I I #
loop_type-twe-attrib $-1 $-1 $-1 $410 0 #
loop $601 $-1 $514 $321 #
surf-twe-attrib $-1 $-1 $-1 $411 398 #
loop_type-twe-attrib $-1 $-1 $-1 $413 1 #
loop $602 $367 $603 $246 #
coedge $-1 $513 $513 $604 $605 reversed $413 $-1 #
coedge $-1 $514 $514 $414 $515 forward $509 $-1 #
edge $606 $607 -6.283185307179586232 $607 -0 $514 $608 reversed 7 unknown #
coedge $-1 $516 $516 $417 $517 reversed $506 $-1 #
edge $609 $610 -6.283185307179586232 $610 -0 $516 $611 reversed 7 unknown #
edge_name-twe-attrib $-1 $-1 $-1 $419 51 8704 #
vertex $-1 $419 $612 #
ellipse-curve $-1 34 0 -38 -0 -0 1 2 0 0 1 I I #
coedge $-1 $613 $614 $420 $522 reversed $452 $-1 #
edge $615 $527 10 $541 18 $521 $616 forward 7 unknown #
coedge $-1 $482 $421 $424 $529 reversed $525 $-1 #
coedge $-1 $421 $482 $613 $617 forward $525 $-1 #
loop $618 $-1 $421 $451 #
edge_name-twe-attrib $-1 $-1 $-1 $422 27 8704 #
vertex $-1 $617 $619 #
straight-curve $-1 -23.42493119320700146 18.32746598075109645 0 -0.9396926207859083169 0.3420201433256691015 0 I I #
edge $620 $485 -25 $427 -0 $424 $621 reversed 7 unknown #
loop_type-twe-attrib $-1 $-1 $-1 $425 0 #
face $622 $431 $425 $3 $-1 $623 reversed single #
point $-1 -35.2589682804420832 22.63470323170695053 0 #
edge_name-twe-attrib $-1 $-1 $-1 $429 35 24576 #
straight-curve $-1 -31.85092975399667026 14.50924787182201214 0 0 0 1 I I #
face_name-twe-attrib $-1 $-1 $-1 $431 14 #
cone-surface $624 0 0 0 0 0 1 -35 0 0 1 I I 0 1 35 forward I I I I #
surf-twe-attrib $-1 $-1 $-1 $436 342 #
coedge $-1 $476 $439 $614 $625 reversed $360 $-1 #
coedge $-1 $439 $476 $441 $543 forward $360 $-1 #
edge_name-twe-attrib $-1 $-1 $-1 $440 21 8704 #
vertex $-1 $625 $626 #
straight-curve $-1 25 36 0 1 0 0 I I #
edge $627 $479 -25 $444 0 $539 $628 forward 7 unknown #
point $-1 50 36 0 #
edge_name-twe-attrib $-1 $-1 $-1 $446 20 8448 #
straight-curve $-1 50 28.00000000000005329 0 0 0 -1 I I #
face_name-twe-attrib $-1 $-1 $-1 $451 12 #
plane-surface $629 -50 28 0 -0.3420201433256691015 -0.9396926207859083169 0 0 0 -1 forward_v I I I I #
loop_type-twe-attrib $-1 $-1 $-1 $452 0 #
surf-twe-attrib $-1 $630 $-1 $453 220 #
edge_name-twe-attrib $-1 $-1 $-1 $458 91 8704 #
intcurve-curve $-1 forward { surfintcur full nubs 3 open 17 
	0 3 2.429923906911418463 2 4.859847813822836926 2 7.289771720734255389 2 9.719695627645673852 2 
	12.13617340655989096 2 14.55265118547410808 2 16.96912896438832519 2 19.3856067433025423 2 21.80208452221675941 2 
	24.21856230113097652 2 26.63504008004519363 2 29.05151785895941075 2 31.48144176587082654 2 33.91136567278224589 2 
	36.34128957969366525 2 38.7712134866050846 3 
	12.5 -17.49285568453590045 -22 
	12.5 -17.49285568453590045 -22.80997463563713978 
	12.4200854304789523 -17.55081220858583535 -23.63822323744576082 
	12.09338163200294858 -17.77750409118445774 -25.26992637076860504 
	11.84675647929961428 -17.94573053817646269 -26.07348441148956653 
	11.20414908189325232 -18.35379773439434814 -27.60410582625474518 
	10.80764640103397412 -18.59338969781883222 -28.3327413734309097 
	9.89790909282887732 -19.09321232054528039 -29.67725404735941908 
	9.384500008820424455 -19.35302219128391954 -30.29316952084327141 
	8.296188991820702796 -19.84383032819918924 -31.38148053784299663 
	7.681822043524443089 -20.09342251977626859 -31.8944057997567505 
	6.336852650935705711 -20.5572448770931544 -32.80527438644184457 
	5.606187474135568394 -20.77116227330505538 -33.20328431758073862 
	4.071141009433355329 -21.12572679284288668 -33.84773113556390456 
	3.265216676173937849 -21.26649086743673323 -34.09468786342947766 
	1.632411055567519531 -21.45368285179429435 -34.42088356783187209 
	0.8054925929714079613 -21.5 -34.5 
	-0.8054925929714035204 -21.5 -34.5 
	-1.632411055567513314 -21.45368285179429435 -34.42088356783187209 
	-3.26521667617393252 -21.26649086743673323 -34.09468786342947766 
	-4.071141009433352664 -21.12572679284288668 -33.84773113556391877 
	-5.606187474135566617 -20.77116227330505538 -33.20328431758073862 
	-6.336852650935699494 -20.5572448770931544 -32.80527438644185168 
	-7.681822043524438648 -20.09342251977626859 -31.8944057997567576 
	-8.296188991820699243 -19.84383032819918924 -31.38148053784299663 
	-9.384500008820420902 -19.35302219128392309 -30.29316952084327852 
	-9.897909092828871991 -19.09321232054528039 -29.67725404735942973 
	-10.80764640103397234 -18.59338969781883222 -28.33274137343091681 
	-11.20414908189325232 -18.35379773439434814 -27.60410582625475229 
	-11.84675647929961428 -17.94573053817646269 -26.07348441148957363 
	-12.09338163200295213 -17.77750409118446129 -25.26992637076860859 
	-12.42008543047895408 -17.5508122085858389 -23.63822323744576082 
	-12.5 -17.49285568453590045 -22.80997463563713978 
	-12.5 -17.49285568453590045 -22 
	0.0004958886471363795241 
	cone 0 -50 -22 0 1 0 -12.5 0 0 1 I I 0 1 12.5 forward I I I I 
	cone 0 0 25 0 0 -1 -21.5 0 0 1 I I 0 1 21.5 forward I I I I 
	nullbs 
	nullbs 
	I I 
	0 
	0 
	0 
	} I I #
loop_type-twe-attrib $-1 $-1 $-1 $459 1 #
point $-1 12.5 -17.49285568453590045 -22.00000000000019895 #
point $-1 -12.5 -17.49285568453590045 -22.00000000000019895 #
loop_type-twe-attrib $-1 $-1 $-1 $467 0 #
coedge $-1 $557 $557 $473 $559 forward $467 $-1 #
surf-twe-attrib $-1 $-1 $-1 $468 465 #
edge $631 $632 0 $632 6.283185307179586232 $557 $633 forward 7 unknown #
edge_name-twe-attrib $-1 $-1 $-1 $474 82 8704 #
vertex $-1 $474 $634 #
ellipse-curve $-1 0 -50 -22 -0 -1 -0 0 0 -18 1 I I #
coedge $-1 $614 $613 $475 $564 forward $452 $-1 #
edge $635 $570 10 $566 18 $563 $636 forward 7 unknown #
edge_name-twe-attrib $-1 $-1 $-1 $477 22 8704 #
vertex $-1 $625 $637 #
straight-curve $-1 25 36 25 1 0 0 I I #
point $-1 50 36 25 #
edge_name-twe-attrib $-1 $-1 $-1 $483 28 8704 #
vertex $-1 $617 $638 #
straight-curve $-1 -23.42493119320700146 18.32746598075109645 25 -0.9396926207859083169 0.3420201433256691015 0 I I #
point $-1 -35.2589682804420832 22.63470323170695053 25 #
coedge $-1 $499 $575 $488 $574 reversed $581 $-1 #
edge $639 $502 -25.03381224633984914 $640 -16.60404222123460372 $488 $641 reversed 7 unknown #
coedge $-1 $573 $493 $491 $576 reversed $581 $-1 #
edge $642 $640 -16.60404222123460372 $496 -8.174272196131891377 $491 $643 reversed 7 unknown #
coedge $-1 $644 $492 $645 $646 forward $315 $-1 #
coedge $-1 $647 $648 $492 $579 reversed $649 $-1 #
edge $650 $583 15.01562118716424266 $651 17 $578 $652 forward 7 unknown #
coedge $-1 $493 $653 $647 $654 forward $581 $-1 #
loop $655 $-1 $573 $656 #
edge_name-twe-attrib $-1 $-1 $-1 $494 63 8704 #
vertex $-1 $654 $657 #
ellipse-curve $-1 0 0 -38 -0 -0 1 33 0 0 1 I I #
point $-1 8.246211251235319395 -31.95309061734091571 -38 #
coedge $-1 $498 $658 $659 $660 forward $315 $-1 #
coedge $-1 $661 $662 $498 $588 reversed $663 $-1 #
edge $664 $665 -17.99218940641789999 $591 -16.00781059358214264 $587 $666 forward 7 unknown #
coedge $-1 $653 $499 $662 $667 reversed $581 $-1 #
edge_name-twe-attrib $-1 $-1 $-1 $500 60 8704 #
vertex $-1 $667 $668 #
ellipse-curve $-1 0 0 -38 -0 -0 1 33 0 0 1 I I #
point $-1 -8.246211251235298079 -31.95309061734091927 -38.00000000000000711 #
face_name-twe-attrib $-1 $-1 $-1 $505 24 #
face $669 $656 $649 $3 $-1 $670 forward single #
loop $671 $-1 $645 $505 #
cone-surface $672 34 0 -38 0 0 -1 8 0 0 1 I I 0 1 8 forward I I I I #
loop_type-twe-attrib $-1 $-1 $-1 $506 0 #
loop $673 $-1 $604 $409 #
surf-twe-attrib $-1 $-1 $-1 $507 504 #
loop_type-twe-attrib $-1 $-1 $-1 $509 1 #
loop_type-twe-attrib $-1 $-1 $-1 $512 0 #
coedge $-1 $674 $675 $676 $677 reversed $512 $-1 #
coedge $-1 $604 $604 $513 $605 forward $599 $-1 #
edge $678 $679 -6.283185307179586232 $679 -0 $604 $680 reversed 7 unknown #
edge_name-twe-attrib $-1 $-1 $-1 $515 52 8704 #
vertex $-1 $515 $681 #
ellipse-curve $-1 34 0 -56 -0 -0 1 2 0 0 1 I I #
edge_name-twe-attrib $-1 $-1 $-1 $517 53 8704 #
vertex $-1 $517 $682 #
ellipse-curve $-1 -34 0 -38 -0 -0 1 2 0 0 1 I I #
point $-1 36 0 -38 #
coedge $-1 $563 $521 $524 $617 reversed $452 $-1 #
coedge $-1 $521 $563 $538 $625 forward $452 $-1 #
edge_name-twe-attrib $-1 $-1 $-1 $522 24 8704 #
straight-curve $-1 -50 18 0 0 1 -0 I I #
edge $683 $570 -25 $527 0 $524 $684 forward 7 unknown #
loop_type-twe-attrib $-1 $-1 $-1 $525 0 #
point $-1 -50 28 0 #
edge_name-twe-attrib $-1 $-1 $-1 $529 32 20480 #
straight-curve $-1 -35.25896828044207609 22.63470323170697185 0 0 0 1 I I #
face_name-twe-attrib $-1 $-1 $-1 $531 13 #
cone-surface $685 -37.31108914039609914 16.99654750699150085 0 0 0 1 -6 0 0 1 I I 0 1 6 forward I I I I #
surf-twe-attrib $-1 $686 $-1 $536 252 #
edge $687 $566 -25 $541 0 $614 $688 forward 7 unknown #
point $-1 -50 36 0 #
edge_name-twe-attrib $-1 $-1 $-1 $543 23 8704 #
straight-curve $-1 50 36 0 0 0 -1 I I #
surf-twe-attrib $-1 $-1 $-1 $548 254 #
surf-twe-attrib $-1 $-1 $550 $453 175 #
edge_name-twe-attrib $-1 $-1 $-1 $559 89 8704 #
vertex $-1 $559 $689 #
ellipse-curve $-1 0 -50 -22 -0 -1 -0 -12.5 0 0 1 I I #
point $-1 0 -50 -40 #
edge_name-twe-attrib $-1 $-1 $-1 $564 25 8704 #
straight-curve $-1 -50 18 25 0 1 -0 I I #
point $-1 -50 36 25 #
point $-1 -50 28 25 #
edge_name-twe-attrib $-1 $-1 $-1 $574 85 4352 #
vertex $-1 $576 $690 #
intcurve-curve $-1 forward { surfintcur full nubs 3 open 6 
	16.60404222123460372 3 18.67954749888892962 2 20.75505277654325198 2 22.83055805419757789 2 24.9060633318519038 2 
	25.03381224633984914 3 
	-5.551115123125782702e-17 -33 -40 
	-0.6918350925514420435 -33 -40 
	-1.389681960315413134 -32.97811038684226759 -39.95996721049647959 
	-2.782570381480293342 -32.88988115985953442 -39.79744195734424039 
	-3.477613258879409308 -32.82354551969655176 -39.67495868373902113 
	-4.850651422888248021 -32.64889148543120712 -39.34846215704153849 
	-5.52877678920835347 -32.54056614631322475 -39.14442828603838365 
	-6.855080091948436483 -32.28720636475662786 -38.6585314770803663 
	-7.503262844677018428 -32.14218467092374709 -38.37667503836356531 
	-8.169213889433533993 -31.97288744634895608 -38.03950801257028047 
	-8.20775020458657778 -31.96301511356322322 -38.01982057924885794 
	-8.246208632170162645 -31.95308781295641509 -37.99999632343509148 
	0.0004741594135968694112 
	cone 0 -50 -22 0 1 0 0 0 -18 1 I I 0 1 18 forward I I I I 
	cone 0 0 -38 0 0 -1 33 0 0 1 I I 0 1 33 forward I I I I 
	nullbs 
	nullbs 
	I I 
	0 
	0 
	0 
	} I I #
edge_name-twe-attrib $-1 $-1 $-1 $576 86 4352 #
intcurve-curve $-1 forward { surfintcur full nubs 3 open 6 
	8.174272196131891377 3 8.302021110617301858 2 10.37752638827162599 2 12.4530316659259519 2 14.52853694358027781 2 
	16.60404222123460372 3 
	8.246208632167872921 -31.9530878129570084 -37.99999632343627809 
	8.207750204585048337 -31.96301511356361402 -38.01982057924964664 
	8.169213889432768383 -31.97288744634915503 -38.03950801257067127 
	7.503262844677019316 -32.14218467092374709 -38.37667503836356531 
	6.855080091948436483 -32.28720636475662786 -38.6585314770803663 
	5.52877678920835347 -32.54056614631322475 -39.14442828603838365 
	4.850651422888250686 -32.64889148543120712 -39.34846215704153849 
	3.477613258879411084 -32.82354551969655176 -39.67495868373902113 
	2.78257038148029423 -32.88988115985953442 -39.79744195734424039 
	1.389681960315413134 -32.97811038684226759 -39.95996721049647959 
	0.6918350925514419325 -33 -40 
	-5.551115123125782702e-17 -33 -40 
	0.0004741594135968694112 
	cone 0 -50 -22 0 1 0 0 0 -18 1 I I 0 1 18 forward I I I I 
	cone 0 0 -38 0 0 -1 33 0 0 1 I I 0 1 33 forward I I I I 
	nullbs 
	nullbs 
	I I 
	0 
	0 
	0 
	} I I #
coedge $-1 $691 $577 $692 $693 forward $315 $-1 #
coedge $-1 $694 $695 $577 $646 reversed $596 $-1 #
edge $696 $651 -1.570796326794896558 $697 1.570796326794896558 $645 $698 forward 7 unknown #
coedge $-1 $699 $578 $580 $654 reversed $649 $-1 #
coedge $-1 $578 $699 $694 $700 forward $649 $-1 #
loop $701 $-1 $578 $595 #
edge_name-twe-attrib $-1 $-1 $-1 $579 57 8704 #
vertex $-1 $700 $702 #
straight-curve $-1 17 -8 -38 1 0 0 I I #
coedge $-1 $580 $589 $703 $704 forward $581 $-1 #
edge $705 $706 -18 $583 -0 $580 $707 reversed 7 unknown #
loop_type-twe-attrib $-1 $-1 $-1 $581 0 #
face $708 $709 $581 $3 $-1 $710 forward single #
point $-1 32.01562118716424266 -8 -38 #
coedge $-1 $586 $691 $711 $712 forward $315 $-1 #
coedge $-1 $713 $714 $586 $660 reversed $715 $-1 #
edge $716 $717 1.570796326794896558 $665 4.712388980384689674 $659 $718 forward 7 unknown #
coedge $-1 $719 $587 $714 $720 reversed $663 $-1 #
coedge $-1 $587 $719 $589 $667 forward $663 $-1 #
loop $721 $-1 $587 $709 #
edge_name-twe-attrib $-1 $-1 $-1 $588 64 8704 #
vertex $-1 $720 $722 #
straight-curve $-1 -16.00781059358210001 -8 -38 1 0 0 I I #
edge $723 $724 -18 $591 -0 $662 $725 reversed 7 unknown #
point $-1 -32.01562118716424266 -8 -38 #
face_name-twe-attrib $-1 $-1 $-1 $595 25 #
plane-surface $726 34 -8 -38 0 -1 0 0 0 -1 forward_v I I I I #
loop_type-twe-attrib $-1 $-1 $-1 $596 0 #
surf-twe-attrib $-1 $-1 $-1 $597 602 #
loop_type-twe-attrib $-1 $-1 $-1 $599 1 #
coedge $-1 $703 $603 $699 $727 reversed $512 $-1 #
coedge $-1 $603 $728 $729 $730 reversed $512 $-1 #
coedge $-1 $695 $694 $603 $677 forward $596 $-1 #
edge $731 $732 -1.570796326794896558 $733 1.570796326794896558 $676 $734 forward 7 unknown #
edge_name-twe-attrib $-1 $-1 $-1 $605 54 8704 #
vertex $-1 $605 $735 #
ellipse-curve $-1 -34 0 -56 -0 -0 1 2 0 0 1 I I #
point $-1 36 0 -56 #
point $-1 -32 0 -38 #
edge_name-twe-attrib $-1 $-1 $-1 $617 29 8448 #
straight-curve $-1 -50 28 0 -0 0 -1 I I #
surf-twe-attrib $-1 $-1 $-1 $623 346 #
surf-twe-attrib $-1 $-1 $624 $536 58 #
edge_name-twe-attrib $-1 $-1 $-1 $625 26 8704 #
straight-curve $-1 -50 36 0 0 0 -1 I I #
point $-1 -12.5 -50 -22 #
point $-1 -2.200000000000000092e-14 -33 -40 #
coedge $-1 $658 $644 $736 $737 forward $315 $-1 #
coedge $-1 $738 $739 $644 $693 reversed $740 $-1 #
edge $741 $697 -17.99218940641789999 $742 -16.00781059358214264 $692 $743 forward 7 unknown #
coedge $-1 $676 $645 $648 $700 reversed $596 $-1 #
coedge $-1 $645 $676 $738 $744 forward $596 $-1 #
edge_name-twe-attrib $-1 $-1 $-1 $646 55 8704 #
vertex $-1 $744 $745 #
ellipse-curve $-1 34 0 -38 -0 -0 1 8 0 0 1 I I #
coedge $-1 $648 $647 $674 $727 forward $649 $-1 #
edge $746 $732 -18 $651 -0 $648 $747 reversed 7 unknown #
loop_type-twe-attrib $-1 $-1 $-1 $649 0 #
point $-1 34 -8 -38 #
coedge $-1 $748 $674 $653 $704 reversed $512 $-1 #
edge $749 $724 -2.896728799384171715 $706 -0.2448638542056213452 $653 $750 forward 7 unknown #
edge_name-twe-attrib $-1 $-1 $-1 $654 62 4352 #
vertex $-1 $654 $751 #
straight-curve $-1 32.01562118716424266 -8 -38 0 0 -1 I I #
face_name-twe-attrib $-1 $-1 $-1 $656 26 #
face $752 $753 $663 $3 $-1 $754 forward single #
cone-surface $755 0 0 -38 0 0 -1 33 0 0 1 I I 0 1 33 forward I I I I #
coedge $-1 $756 $757 $658 $712 reversed $758 $-1 #
edge $759 $760 15.01562118716424266 $717 17 $711 $761 forward 7 unknown #
coedge $-1 $762 $659 $757 $763 reversed $715 $-1 #
coedge $-1 $659 $762 $661 $720 forward $715 $-1 #
loop $764 $-1 $659 $753 #
edge_name-twe-attrib $-1 $-1 $-1 $660 67 8704 #
vertex $-1 $763 $765 #
ellipse-curve $-1 -34 0 -38 -0 -0 1 8 0 0 1 I I #
coedge $-1 $662 $661 $748 $766 forward $663 $-1 #
edge $767 $768 -18 $665 -0 $714 $769 reversed 7 unknown #
loop_type-twe-attrib $-1 $-1 $-1 $663 0 #
point $-1 -34 -8 -38 #
edge_name-twe-attrib $-1 $-1 $-1 $667 66 4352 #
vertex $-1 $667 $770 #
straight-curve $-1 -32.01562118716424266 -8 -38 0 0 -1 I I #
surf-twe-attrib $-1 $771 $-1 $670 785 #
edge $772 $706 15.01562118716424266 $732 17 $699 $773 forward 7 unknown #
coedge $-1 $675 $774 $775 $776 reversed $512 $-1 #
coedge $-1 $739 $738 $675 $730 forward $740 $-1 #
edge $777 $733 -17.99218940641789999 $778 -16.00781059358214264 $729 $779 forward 7 unknown #
edge_name-twe-attrib $-1 $-1 $-1 $677 56 8704 #
vertex $-1 $700 $780 #
vertex $-1 $744 $781 #
ellipse-curve $-1 34 0 -56 -0 -0 1 8 0 0 1 I I #
point $-1 -32 0 -56 #
coedge $-1 $782 $783 $691 $737 reversed $784 $-1 #
edge $785 $742 0.2448638542056213452 $760 2.896728799384171715 $736 $786 forward 7 unknown #
coedge $-1 $729 $692 $695 $744 reversed $740 $-1 #
coedge $-1 $692 $729 $782 $787 forward $740 $-1 #
loop $788 $-1 $692 $789 #
edge_name-twe-attrib $-1 $-1 $-1 $693 76 8704 #
vertex $-1 $787 $790 #
straight-curve $-1 16.00781059358210001 8 -38 -1 0 0 I I #
edge $791 $733 -18 $697 -0 $738 $792 reversed 7 unknown #
point $-1 34 8 -38 #
edge_name-twe-attrib $-1 $-1 $-1 $700 59 24576 #
straight-curve $-1 34 -8 -38 0 0 -1 I I #
coedge $-1 $793 $703 $719 $766 reversed $512 $-1 #
edge_name-twe-attrib $-1 $-1 $-1 $704 61 8704 #
ellipse-curve $-1 0 0 -56 -0 -0 1 33 0 0 1 I I #
point $-1 32.01562118716424266 -8 -56 #
face_name-twe-attrib $-1 $-1 $-1 $709 27 #
face $794 $795 $715 $3 $-1 $796 forward single #
plane-surface $797 -32.01562118716420002 -8 -38 0 -1 0 0 0 -1 forward_v I I I I #
surf-twe-attrib $-1 $798 $-1 $710 888 #
coedge $-1 $799 $711 $783 $800 reversed $758 $-1 #
coedge $-1 $711 $799 $713 $763 forward $758 $-1 #
loop $801 $-1 $711 $795 #
edge_name-twe-attrib $-1 $-1 $-1 $712 70 8704 #
vertex $-1 $800 $802 #
straight-curve $-1 -17 8 -38 -1 0 0 I I #
coedge $-1 $714 $713 $793 $803 forward $715 $-1 #
edge $804 $805 -18 $717 -0 $757 $806 reversed 7 unknown #
loop_type-twe-attrib $-1 $-1 $-1 $715 0 #
point $-1 -34 8 -38 #
edge $807 $768 -17.99218940641789999 $724 -16.00781059358214264 $719 $808 forward 7 unknown #
edge_name-twe-attrib $-1 $-1 $-1 $720 69 24576 #
vertex $-1 $720 $809 #
straight-curve $-1 -34 -8 -38 0 0 -1 I I #
point $-1 -32.01562118716424266 -8 -56 #
surf-twe-attrib $-1 $-1 $726 $670 678 #
edge_name-twe-attrib $-1 $-1 $-1 $727 58 8704 #
straight-curve $-1 17 -8 -56 1 0 0 I I #
coedge $-1 $728 $793 $799 $810 reversed $512 $-1 #
coedge $-1 $783 $782 $728 $776 forward $784 $-1 #
edge $811 $778 0.2448638542056213452 $812 2.896728799384171715 $775 $813 forward 7 unknown #
edge_name-twe-attrib $-1 $-1 $-1 $730 78 8704 #
vertex $-1 $787 $814 #
straight-curve $-1 16.00781059358210001 8 -56 -1 0 0 I I #
point $-1 34 -8 -56 #
point $-1 34 8 -56 #
coedge $-1 $775 $736 $739 $787 reversed $784 $-1 #
coedge $-1 $736 $775 $756 $800 forward $784 $-1 #
loop $815 $-1 $736 $816 #
edge_name-twe-attrib $-1 $-1 $-1 $737 73 8704 #
ellipse-curve $-1 0 0 -38 -0 -0 1 33 0 0 1 I I #
edge $817 $778 -18 $742 -0 $739 $818 reversed 7 unknown #
loop_type-twe-attrib $-1 $-1 $-1 $740 0 #
face $819 $164 $740 $3 $-1 $820 forward single #
point $-1 32.01562118716424266 8 -38 #
edge_name-twe-attrib $-1 $-1 $-1 $744 77 24576 #
straight-curve $-1 34 8 -38 0 0 -1 I I #
coedge $-1 $774 $748 $762 $803 reversed $512 $-1 #
face_name-twe-attrib $-1 $-1 $-1 $753 28 #
face $821 $816 $758 $3 $-1 $822 forward single #
cone-surface $823 -34 0 -38 0 0 -1 8 0 0 1 I I 0 1 8 forward I I I I #
surf-twe-attrib $-1 $824 $-1 $754 785 #
surf-twe-attrib $-1 $-1 $755 $710 729 #
coedge $-1 $757 $756 $774 $810 forward $758 $-1 #
edge $825 $812 -18 $760 -0 $783 $826 reversed 7 unknown #
loop_type-twe-attrib $-1 $-1 $-1 $758 0 #
point $-1 -32.01562118716424266 8.000000000000005329 -38 #
edge $827 $805 1.570796326794896558 $768 4.712388980384689674 $762 $828 forward 7 unknown #
edge_name-twe-attrib $-1 $-1 $-1 $763 72 24576 #
vertex $-1 $763 $829 #
straight-curve $-1 -34 8 -38 0 0 -1 I I #
edge_name-twe-attrib $-1 $-1 $-1 $766 65 8704 #
straight-curve $-1 -16.00781059358210001 -8 -56 1 0 0 I I #
point $-1 -34 -8 -56 #
edge $830 $812 15.01562118716424266 $805 17 $799 $831 forward 7 unknown #
edge_name-twe-attrib $-1 $-1 $-1 $776 74 8704 #
vertex $-1 $800 $832 #
ellipse-curve $-1 0 0 -56 -0 -0 1 33 0 0 1 I I #
point $-1 32.01562118716424266 8 -56 #
loop_type-twe-attrib $-1 $-1 $-1 $784 0 #
face $833 $789 $784 $3 $-1 $834 forward single #
edge_name-twe-attrib $-1 $-1 $-1 $787 79 4352 #
straight-curve $-1 32.01562118716424266 8 -38 0 0 -1 I I #
face_name-twe-attrib $-1 $-1 $-1 $789 31 #
plane-surface $835 32.01562118716420002 8 -38 0 1 0 0 0 1 forward_v I I I I #
face_name-twe-attrib $-1 $-1 $-1 $795 29 #
plane-surface $836 -34 8 -38 0 1 0 0 0 1 forward_v I I I I #
surf-twe-attrib $-1 $-1 $-1 $796 835 #
surf-twe-attrib $-1 $-1 $797 $754 678 #
edge_name-twe-attrib $-1 $-1 $-1 $800 75 4352 #
straight-curve $-1 -32.01562118716424266 8 -38 0 0 -1 I I #
edge_name-twe-attrib $-1 $-1 $-1 $803 68 8704 #
ellipse-curve $-1 -34 0 -56 -0 -0 1 8 0 0 1 I I #
point $-1 -34 8 -56 #
edge_name-twe-attrib $-1 $-1 $-1 $810 71 8704 #
straight-curve $-1 -17 8 -56 -1 0 0 I I #
point $-1 -32.01562118716424266 8.000000000000005329 -56 #
face_name-twe-attrib $-1 $-1 $-1 $816 30 #
cone-surface $837 0 0 -38 0 0 -1 33 0 0 1 I I 0 1 33 forward I I I I #
surf-twe-attrib $-1 $838 $-1 $820 875 #
surf-twe-attrib $-1 $839 $-1 $822 875 #
surf-twe-attrib $-1 $840 $-1 $834 888 #
surf-twe-attrib $-1 $-1 $835 $820 884 #
surf-twe-attrib $-1 $-1 $836 $822 884 #
surf-twe-attrib $-1 $-1 $837 $834 729 #
End-of-ACIS-data 