**ABCDEFGHIJKLMNOPQRSTUVWXYZabcdefghijklmnopqrstuvwxyz**************************
**PARASOLID !"#$%&'()*+,-./:;<=>?@[\]^_`{|}~0123456789**************************
**PART1;MC=sun;MC_MODEL=Sun-3;MC_ID=unknown;OS=SunOS;OS_RELEASE=unknown;FRU=sdl_
parasolid_test_sun;APPL=unknown;SITE=sdl-cambridge-u.k.;USER=kramer;FORMAT=text;
GUISE=transmit;KEY=removed_5;FILE=removed_5.xmt_txt;DATE=16-oct-1990;
**PART2;SCH=SCH_210_1012;USFLD_SIZE=0;
**PART3;
**END_OF_HEADER*****************************************************************
T47 : TRANSMIT FILE created by modeller version 22012 SCH_210_10120 12 1 777 0 0
 0 0 0 1e3 1e-8 2 2 0 3 0 1 4 102 9 2 removed_513 4 2 0 1 0 5 6 7 8 9 10 14 5 37
1 0 11 0 12 4 8 -16 6 427 0 13 0 14 9 18 7 514 0 15 0 16 10 50 8 580 0 5 17 0 0
 +3.06 2.495 .4 -1 0 0 31 9 611 0 6 18 0 0 +3.26 3.45 .48 0 0 -1 .5 29 10 698 0
 7 19 0 2.918276427503165 3.815 .48 29 19 703 0 20 21 10 0 4.99 .48 18 20 519 0
 22 16 23 19 29 21 704 0 24 25 19 0 3.815 1.5 18 24 520 0 26 23 27 21 29 25 714
 0 16 28 21 3.06 3.908257569495585 .5 18 16 530 0 29 7 20 25 29 28 750 0 23 30 2
5 0 4.99 1.5 18 23 566 0 31 20 24 28 29 30 335 0 27 32 28 3.06 3.908257569495585
 .48 18 27 333 0 13 24 33 30 29 32 322 0 33 34 30 3.06 4.99 .48 18 33 320 0 35 2
7 36 32 29 34 308 0 36 37 32 3.06 4.99 1.5 18 36 306 0 38 33 39 34 29 37 295 0 3
9 40 34 3.06 3.815 .5 18 39 293 0 41 36 42 37 29 40 291 0 42 43 37 2.91827642750
3165 3.815 .5 18 42 289 0 44 39 45 40 29 43 278 0 45 46 40 3.06 3.815 1.5 18 45
 276 0 47 42 48 43 29 46 270 0 48 0 43 0 3.815 .48 18 48 268 0 49 45 0 46 17 49
 50 51 52 48 53 54 15 50 298 0 55 56 0 17 51 50 57 49 7 58 59 17 52 50 49 55 24
 60 61 17 53 62 63 64 24 49 54 16 54 434 0 49 65 66 67 16 65 436 0 63 68 54 69 1
6 66 347 0 38 54 70 71 30 67 618 0 54 72 18 0 +0 3.815 .48 0 0 -1 30 72 619 0 68
 69 67 0 +0 4.99 0 0 0 1 30 18 614 0 14 67 9 0 +3.06 3.908257569495585 0 0 0 1 1
6 14 430 0 29 6 73 18 17 29 74 75 13 16 76 14 16 73 452 0 77 14 78 79 17 77 80 4
4 81 39 82 73 16 78 469 0 75 73 68 83 30 79 636 0 73 83 69 0 +3.06 2.495 .5 0 -1
 0 31 83 653 0 78 71 79 0 +3.26 3.45 .5 0 0 1 .5 30 69 620 0 65 79 72 0 +0 2.495
 1.5 0 1 0 30 71 349 0 66 84 83 0 +3.06 4.99 .48 0 0 1 30 84 339 0 70 85 71 0 +3
.06 4.4025 .48 0 1 0 16 70 337 0 35 66 86 84 30 85 330 0 86 87 84 0 +0 4.4025 .4
8 0 1 0 16 86 328 0 22 70 88 85 30 87 323 0 88 89 85 0 +1.53 4.99 .48 -1 0 0 16
 88 321 0 90 86 91 87 30 89 317 0 91 92 87 0 +3.06 4.4025 1.5 0 -1 0 16 91 315 0
 47 88 93 89 30 92 305 0 93 94 89 0 +1.53 4.99 1.5 1 0 0 16 93 303 0 95 91 96 92
 30 94 299 0 96 97 92 0 +3.06 3.815 .48 0 0 -1 16 96 297 0 41 93 98 94 30 97 296
 0 98 99 94 0 +1.53 3.815 .5 -1 0 0 16 98 294 0 44 96 100 97 30 99 292 0 100 101
 97 0 -2.918276427503165 3.815 0 0 0 1 16 100 290 0 15 98 61 99 30 101 279 0 61
 102 99 0 +1.53 3.815 1.5 -1 0 0 16 61 277 0 52 100 59 101 30 102 271 0 59 0 101
 0 +1.53 3.815 .48 1 0 0 16 59 269 0 51 61 0 102 17 15 74 13 75 7 57 100 15 74 4
02 0 15 103 0 17 13 74 29 15 27 104 6 17 75 74 15 29 42 81 78 17 57 50 105 51 42
 15 100 17 105 50 55 57 39 44 98 17 55 50 52 105 45 41 96 17 44 80 81 77 42 105
 98 15 80 380 0 77 11 0 17 81 80 77 44 16 75 78 14 11 379 0 103 5 80 4 17 -14 10
3 401 0 106 11 74 4 107 -50 17 584 0 11 107 8 0 +4.51 2.495 .5 0 0 1 51 107 595
 0 103 108 17 0 +3.26 3.45 0 0 0 1 .5 50 108 601 0 106 109 107 0 +0 2.495 0 -1 0
 0 14 106 413 0 110 103 62 4 108 +50 109 346 0 110 111 108 0 +1.53 4.99 .48 0 1
 0 14 110 345 0 112 106 113 4 109 +50 111 332 0 112 114 109 0 +1.53 4.4025 .48 0
 0 -1 14 112 331 0 115 110 116 4 111 +50 114 314 0 115 117 111 0 +1.53 4.4025 1.
5 0 0 1 14 115 313 0 56 112 118 4 114 +50 117 288 0 56 0 114 0 +1.53 3.815 .48 0
 -1 0 14 56 287 0 0 115 50 4 117 +15 118 316 0 119 115 0 17 119 118 120 60 36 47
 91 17 120 118 26 119 23 95 93 17 60 118 119 26 45 52 61 17 47 12 41 38 45 119 9
1 15 12 372 0 76 5 0 17 41 12 82 47 39 55 96 17 38 12 47 35 36 121 66 17 35 12 3
8 76 33 122 70 17 121 113 90 95 33 38 66 15 113 348 0 121 110 0 17 90 113 31 121
 20 123 88 17 95 113 121 31 36 120 93 17 31 113 95 90 23 124 68 17 124 62 64 63
 20 31 68 16 68 435 0 31 78 65 72 15 62 414 0 64 106 0 17 64 62 53 124 48 22 86
 17 63 62 124 53 23 26 65 17 26 118 60 120 24 63 65 17 22 116 123 58 20 64 86 15
 116 338 0 122 112 0 17 123 116 122 22 33 90 88 17 58 116 22 104 48 51 59 17 104
 116 58 122 7 13 6 17 122 116 104 123 27 35 70 17 76 12 35 82 27 29 14 17 82 12
 76 41 16 77 73 1 0 
