600 0 2 0           
24 FBMach with ACIS - 6.0.3 13 ACIS 6.0.3 NT 24 Mon Apr 01 00:08:28 2002 
1 9.9999999999999995e-007 1e-010 
body $2 $3 $-1 $4 #
bdycol-kcp $-1 1 3 $5 $6 $7 #
model_id-kcp-attrib $-1 $8 $-1 $0 1 1017637708 80 1984954369 1 #
lump $-1 $-1 $9 $0 #
transform $-1 1 0 0 0 1.0000000000000002 0 0 0 1 0 0 0 1 rotate no_reflect no_shear #
body $10 $11 $-1 $12 #
body $13 $14 $-1 $15 #
body $16 $17 $-1 $18 #
aggregate_advspl_attribute-aggregate_geombuild_base_attribute-aggregate_body_attribute-attrib_HH-attrib $-1 $19 $2 $0 F #
shell $-1 $-1 $-1 $20 $-1 $3 #
model_id-kcp-attrib $-1 $-1 $-1 $5 1 1017637708 80 1984954370 1 #
lump $-1 $-1 $21 $5 #
transform $-1 1 0 0 0 1 0 0 0 1 -7.1054273576010019e-015 -1.7763568394002505e-014 2.3092638912203256e-014 1 no_rotate no_reflect no_shear #
rgb_color-st-attrib $-1 $22 $-1 $6 0.5 1 1 #
lump $-1 $-1 $23 $6 #
transform $-1 1 0 0 0 1 0 0 0 1 -7.1054273576010019e-015 -1.7763568394002505e-014 2.3092638912203256e-014 1 no_rotate no_reflect no_shear #
rgb_color-st-attrib $-1 $24 $-1 $7 0.5 0.5 1 #
lump $-1 $-1 $25 $7 #
transform $-1 1 0 0 0 1 0 0 0 1 -7.1054273576010019e-015 -1.7763568394002505e-014 2.3092638912203256e-014 1 no_rotate no_reflect no_shear #
aggregate_secndry_attribute-aggregate_geombuild_base_attribute-aggregate_body_attribute-attrib_HH-attrib $-1 $26 $8 $0 F #
face $27 $28 $29 $9 $-1 $30 reversed single #
shell $-1 $-1 $-1 $31 $-1 $11 #
model_id-kcp-attrib $-1 $-1 $13 $6 1 1017637708 290 1981939715 1 #
shell $-1 $-1 $-1 $32 $-1 $14 #
model_id-kcp-attrib $-1 $-1 $16 $7 1 1017637708 350 1985871876 1 #
shell $-1 $-1 $-1 $33 $-1 $17 #
aggregate_sharped_attribute-aggregate_geombuild_base_attribute-aggregate_body_attribute-attrib_HH-attrib $-1 $34 $19 $0 F #
model_id-kcp-attrib $-1 $35 $-1 $20 1 1017637708 80 1984954369 15 #
face $36 $37 $38 $9 $-1 $39 reversed single #
loop $-1 $-1 $40 $20 #
plane-surface $-1 0 50 0 0 -1 0 0 0 -1 forward_v I I I I #
face $41 $42 $43 $21 $-1 $44 forward single #
face $-1 $45 $46 $23 $-1 $47 reversed single #
face $-1 $48 $49 $25 $-1 $50 reversed single #
aggregate_reblend_attribute-aggregate_geombuild_base_attribute-aggregate_body_attribute-attrib_HH-attrib $-1 $51 $26 $0 F #
model_id-kcp-attrib $-1 $52 $27 $20 1 1017637708 80 1984954369 2 #
model_id-kcp-attrib $-1 $53 $-1 $28 1 1017637708 80 1984954369 3 #
face $54 $55 $56 $9 $-1 $57 reversed single #
loop $-1 $-1 $58 $28 #
plane-surface $-1 50 0 0 -1 0 0 0 0 1 forward_v I I I I #
coedge $59 $60 $61 $62 $63 reversed $29 $-1 #
model_id-kcp-attrib $-1 $-1 $-1 $31 1 1017637708 80 1984954370 5 #
face $64 $65 $66 $21 $-1 $67 reversed single #
loop $-1 $-1 $68 $31 #
plane-surface $-1 0 0 25.000000000000021 0 0 1 1 0 0 forward_v I I I I #
face $-1 $69 $70 $23 $-1 $71 forward single #
loop $-1 $-1 $72 $32 #
plane-surface $-1 -44.999999999999979 50.000000000000014 24.999999999999979 -0.70710678118654757 0 0.70710678118654757 0 -1 0 forward_v I I I I #
face $-1 $73 $74 $25 $-1 $75 forward single #
loop $-1 $-1 $76 $33 #
plane-surface $-1 7.1054273576010019e-015 -47.5 22.499999999999943 0 -0.70710678118654757 0.70710678118654757 1 0 0 forward_v I I I I #
aggregate_isospline_attribute-aggregate_geombuild_base_attribute-aggregate_body_attribute-attrib_HH-attrib $-1 $77 $34 $0 F #
attrib_hh_face_geombuild-attrib_entity_geombuild-individual_entity_attribute-attrib_HH-attrib $-1 $-1 $35 $20 F #
attrib_hh_face_geombuild-attrib_entity_geombuild-individual_entity_attribute-attrib_HH-attrib $-1 $-1 $36 $28 F #
model_id-kcp-attrib $-1 $78 $-1 $37 1 1017637708 80 1984954369 4 #
face $79 $80 $81 $9 $-1 $82 forward single #
loop $-1 $-1 $83 $37 #
cone-surface $-1 50 20 25 0 0 -1 -5 0 0 1 I I -0.70710678118654702 0.70710678118654702 5 forward I I I I #
coedge $84 $85 $86 $87 $88 reversed $38 $-1 #
attrib_hh_coedge_geombuild-attrib_entity_geombuild-individual_entity_attribute-attrib_HH-attrib $-1 $-1 $-1 $40 F #
coedge $89 $90 $40 $86 $91 forward $29 $-1 #
coedge $92 $40 $93 $94 $95 reversed $29 $-1 #
coedge $96 $97 $87 $40 $63 forward $98 $-1 #
edge $99 $100 -50 $101 37.928932188134503 $40 $102 forward 7 unknown #
model_id-kcp-attrib $-1 $-1 $-1 $42 1 1017637708 80 1984954370 7 #
face $103 $104 $105 $21 $-1 $106 reversed single #
loop $-1 $-1 $107 $42 #
plane-surface $-1 0 0 -25.000000000000021 0 0 1 1 0 0 forward_v I I I I #
coedge $-1 $108 $109 $110 $111 forward $43 $-1 #
face $-1 $112 $113 $23 $-1 $114 reversed single #
loop $-1 $-1 $115 $45 #
plane-surface $-1 0 0 25.000000000000021 0 0 1 1 0 0 forward_v I I I I #
coedge $-1 $116 $117 $118 $119 reversed $46 $-1 #
face $-1 $120 $121 $25 $-1 $122 forward single #
loop $-1 $-1 $123 $48 #
plane-surface $-1 0 0 25.000000000000021 0 0 1 1 0 0 forward_v I I I I #
coedge $-1 $124 $125 $126 $127 forward $49 $-1 #
aggregate_analytic_solver_attribute-aggregate_geombuild_base_attribute-aggregate_body_attribute-attrib_HH-attrib $-1 $128 $51 $0 F #
attrib_hh_face_geombuild-attrib_entity_geombuild-individual_entity_attribute-attrib_HH-attrib $-1 $-1 $54 $37 F #
model_id-kcp-attrib $-1 $129 $-1 $55 1 1017637708 80 1984954369 5 #
face $130 $131 $132 $9 $-1 $133 reversed single #
loop $-1 $-1 $134 $55 #
cone-surface $-1 45.142977396044799 -45.142977396044799 17.785954792089701 0.57735026918962584 -0.57735026918962584 -0.57735026918962584 2.0412414523193201 -2.0412414523193201 4.0824829046386304 1 I I 0 1 5.0000000000000044 forward I I I I #
coedge $135 $136 $137 $138 $139 reversed $56 $-1 #
attrib_hh_coedge_geombuild-attrib_entity_geombuild-individual_entity_attribute-attrib_HH-attrib $-1 $-1 $-1 $58 F #
coedge $140 $141 $58 $137 $142 forward $38 $-1 #
coedge $143 $58 $144 $60 $91 reversed $38 $-1 #
coedge $145 $62 $138 $58 $88 forward $98 $-1 #
edge $146 $147 25 $100 50 $58 $148 forward 7 unknown #
attrib_hh_coedge_geombuild-attrib_entity_geombuild-individual_entity_attribute-attrib_HH-attrib $-1 $-1 $-1 $60 F #
coedge $149 $93 $60 $150 $151 reversed $29 $-1 #
edge $152 $100 -25 $153 25 $86 $154 forward 7 unknown #
attrib_hh_coedge_geombuild-attrib_entity_geombuild-individual_entity_attribute-attrib_HH-attrib $-1 $-1 $-1 $61 F #
coedge $155 $61 $90 $156 $157 reversed $29 $-1 #
coedge $158 $159 $160 $61 $95 forward $161 $-1 #
edge $162 $101 0.30330085889909347 $163 17.374368670764593 $61 $164 forward 7 unknown #
attrib_hh_coedge_geombuild-attrib_entity_geombuild-individual_entity_attribute-attrib_HH-attrib $-1 $-1 $-1 $62 F #
coedge $165 $166 $62 $160 $167 forward $98 $-1 #
loop $-1 $-1 $62 $168 #
attrib_edge_convexity-kcp-attrib $-1 $169 $-1 $63 1 #
vertex $170 $88 $171 #
vertex $172 $63 $173 #
straight-curve $-1 0 50 25 -1 0 0 I I #
model_id-kcp-attrib $-1 $-1 $-1 $65 1 1017637708 80 1984954370 4 #
face $174 $175 $176 $21 $-1 $177 reversed single #
loop $-1 $-1 $178 $65 #
plane-surface $-1 0 -50.000000000000014 0 0 1 0 0 0 1 forward_v I I I I #
coedge $-1 $179 $180 $181 $182 forward $66 $-1 #
coedge $-1 $183 $68 $184 $185 forward $43 $-1 #
coedge $-1 $68 $183 $186 $187 forward $43 $-1 #
coedge $-1 $188 $189 $68 $111 reversed $190 $-1 #
edge $-1 $191 -50.000000000000014 $192 50.000000000000014 $110 $193 forward 7 unknown #
face $-1 $194 $195 $23 $-1 $196 reversed single #
loop $-1 $-1 $197 $69 #
plane-surface $-1 0 50.000000000000014 0 0 -1 0 0 0 -1 forward_v I I I I #
coedge $-1 $198 $199 $117 $200 forward $70 $-1 #
coedge $-1 $201 $72 $202 $203 reversed $46 $-1 #
coedge $-1 $72 $201 $115 $200 reversed $46 $-1 #
coedge $-1 $204 $205 $72 $119 forward $195 $-1 #
edge $-1 $206 -14.142135623731015 $207 -7.0710678118654737 $118 $208 forward 7 unknown #
face $-1 $209 $210 $25 $-1 $211 reversed single #
loop $-1 $-1 $126 $73 #
plane-surface $-1 -44.999999999999979 50.000000000000014 24.999999999999979 -0.70710678118654757 0 0.70710678118654757 0 -1 0 forward_v I I I I #
coedge $-1 $212 $213 $124 $214 reversed $74 $-1 #
coedge $-1 $215 $76 $123 $214 forward $49 $-1 #
coedge $-1 $76 $215 $216 $217 forward $49 $-1 #
coedge $-1 $218 $219 $76 $127 reversed $121 $-1 #
edge $220 $221 -47.631397208144179 $222 -38.971143170299626 $126 $223 forward 7 unknown #
aggregate_geombuild_attribute-aggregate_geombuild_base_attribute-aggregate_body_attribute-attrib_HH-attrib $-1 $224 $77 $0 #
attrib_hh_face_geombuild-attrib_entity_geombuild-individual_entity_attribute-attrib_HH-attrib $-1 $-1 $79 $55 F #
model_id-kcp-attrib $-1 $225 $-1 $80 1 1017637708 80 1984954369 6 #
face $226 $227 $228 $9 $-1 $229 forward single #
loop $-1 $-1 $230 $80 #
plane-surface $-1 0 -50 0 0 1 0 0 0 1 forward_v I I I I #
coedge $231 $232 $233 $234 $235 forward $81 $-1 #
attrib_hh_coedge_geombuild-attrib_entity_geombuild-individual_entity_attribute-attrib_HH-attrib $-1 $-1 $-1 $83 F #
coedge $236 $137 $83 $237 $238 reversed $56 $-1 #
coedge $239 $83 $136 $85 $142 reversed $56 $-1 #
coedge $240 $87 $241 $83 $139 forward $98 $-1 #
edge $242 $243 0 $147 1.5707963267948966 $83 $244 forward 7 unknown #
attrib_hh_coedge_geombuild-attrib_entity_geombuild-individual_entity_attribute-attrib_HH-attrib $-1 $-1 $-1 $85 F #
coedge $245 $246 $85 $247 $248 forward $38 $-1 #
edge $249 $147 0 $250 7.0710678118654808 $85 $251 reversed 7 unknown #
attrib_hh_coedge_geombuild-attrib_entity_geombuild-individual_entity_attribute-attrib_HH-attrib $-1 $-1 $-1 $86 F #
coedge $252 $86 $253 $254 $255 reversed $38 $-1 #
attrib_hh_coedge_geombuild-attrib_entity_geombuild-individual_entity_attribute-attrib_HH-attrib $-1 $-1 $-1 $87 F #
attrib_edge_convexity-kcp-attrib $-1 $256 $-1 $88 1 #
vertex $257 $142 $258 #
straight-curve $-1 50 0 25 0 1 0 I I #
attrib_hh_coedge_geombuild-attrib_entity_geombuild-individual_entity_attribute-attrib_HH-attrib $-1 $-1 $-1 $90 F #
coedge $259 $254 $260 $90 $151 forward $261 $-1 #
edge $262 $263 -50 $153 50 $90 $264 forward 7 unknown #
attrib_edge_convexity-kcp-attrib $-1 $265 $-1 $91 1 #
vertex $266 $255 $267 #
straight-curve $-1 50 50 0 0 0 -1 I I #
attrib_hh_coedge_geombuild-attrib_entity_geombuild-individual_entity_attribute-attrib_HH-attrib $-1 $-1 $-1 $93 F #
coedge $268 $269 $270 $93 $157 forward $271 $-1 #
edge $272 $163 -12.9289321881345 $263 25 $93 $273 forward 7 unknown #
attrib_hh_coedge_geombuild-attrib_entity_geombuild-individual_entity_attribute-attrib_HH-attrib $-1 $-1 $-1 $94 F #
coedge $274 $275 $94 $270 $276 reversed $161 $-1 #
coedge $277 $94 $275 $97 $167 reversed $161 $-1 #
loop $-1 $-1 $275 $278 #
attrib_edge_convexity-kcp-attrib $-1 $279 $-1 $95 3 #
vertex $280 $276 $281 #
straight-curve $-1 -37.714466094067298 50 25.214466094067301 -0.70710678118654802 0 -0.70710678118654802 I I #
attrib_hh_coedge_geombuild-attrib_entity_geombuild-individual_entity_attribute-attrib_HH-attrib $-1 $-1 $-1 $97 F #
coedge $282 $283 $97 $284 $285 forward $98 $-1 #
edge $286 $101 -1.5707963267948966 $287 0 $97 $288 reversed 7 unknown #
face $289 $278 $98 $9 $-1 $290 forward single #
convexity-sys-attrib $-1 $291 $99 $63 #
attrib_hh_vertex_geombuild-attrib_entity_geombuild-individual_entity_attribute-attrib_HH-attrib $-1 $-1 $-1 $100 F #
point $-1 50 50 25 #
attrib_hh_vertex_geombuild-attrib_entity_geombuild-individual_entity_attribute-attrib_HH-attrib $-1 $-1 $-1 $101 F #
point $-1 -37.928932188134503 50 25 #
model_id-kcp-attrib $-1 $-1 $-1 $104 1 1017637708 80 1984954370 6 #
face $292 $293 $294 $21 $-1 $295 reversed single #
loop $-1 $-1 $296 $104 #
plane-surface $-1 -50.000000000000043 0 0 1 0 0 0 0 -1 forward_v I I I I #
coedge $-1 $297 $186 $298 $299 forward $105 $-1 #
coedge $-1 $300 $107 $297 $301 forward $66 $-1 #
coedge $-1 $107 $300 $302 $303 forward $66 $-1 #
coedge $-1 $189 $188 $107 $182 reversed $190 $-1 #
edge $-1 $304 -50.000000000000014 $305 50.000000000000014 $181 $306 forward 7 unknown #
coedge $-1 $109 $108 $307 $308 forward $43 $-1 #
coedge $-1 $309 $310 $108 $185 reversed $294 $-1 #
edge $-1 $192 -50.000000000000043 $311 50.000000000000043 $184 $312 forward 7 unknown #
coedge $-1 $178 $313 $109 $187 reversed $105 $-1 #
edge $-1 $314 -50.000000000000043 $191 50.000000000000043 $186 $315 forward 7 unknown #
coedge $-1 $181 $110 $313 $316 forward $190 $-1 #
coedge $-1 $110 $181 $309 $317 reversed $190 $-1 #
loop $-1 $-1 $188 $293 #
vertex $-1 $111 $318 #
vertex $-1 $111 $319 #
straight-curve $-1 50.000000000000043 0 25.000000000000021 0 1 0 I I #
face $-1 $-1 $320 $23 $-1 $321 reversed single #
loop $-1 $-1 $118 $112 #
plane-surface $-1 0 -50.000000000000014 0 0 1 0 0 0 1 forward_v I I I I #
coedge $-1 $322 $323 $201 $324 forward $113 $-1 #
coedge $-1 $325 $115 $323 $326 forward $70 $-1 #
coedge $-1 $115 $325 $204 $327 forward $70 $-1 #
edge $-1 $207 -75.000000000000028 $328 25.000000000000007 $115 $329 forward 7 unknown #
coedge $-1 $117 $116 $197 $324 reversed $46 $-1 #
coedge $-1 $330 $331 $116 $203 forward $320 $-1 #
edge $-1 $332 -25.000000000000007 $206 75.000000000000028 $202 $333 forward 7 unknown #
coedge $-1 $205 $118 $199 $327 reversed $195 $-1 #
coedge $-1 $118 $204 $330 $334 forward $195 $-1 #
vertex $-1 $203 $335 #
vertex $-1 $119 $336 #
straight-curve $-1 -39.999999999999986 -50.000000000000014 29.999999999999982 0.70710678118654757 0 0.70710678118654757 I I #
face $-1 $-1 $337 $25 $-1 $338 reversed single #
loop $-1 $-1 $216 $120 #
plane-surface $-1 0 -50.000000000000014 0 0 1 0 0 0 1 forward_v I I I I #
coedge $-1 $339 $123 $219 $340 forward $74 $-1 #
coedge $-1 $123 $339 $341 $342 forward $74 $-1 #
edge $343 $222 -44.999999999999943 $344 50.000000000000043 $123 $345 forward 7 unknown #
coedge $-1 $125 $124 $346 $347 forward $49 $-1 #
coedge $-1 $348 $349 $125 $217 reversed $210 $-1 #
edge $350 $351 -50.000000000000043 $221 50.000000000000043 $216 $352 forward 7 unknown #
coedge $-1 $219 $126 $349 $353 reversed $121 $-1 #
coedge $-1 $126 $218 $212 $340 reversed $121 $-1 #
convexity-sys-attrib $-1 $-1 $-1 $127 #
vertex $-1 $127 $354 #
vertex $-1 $340 $355 #
straight-curve $-1 -22.499999999999993 -22.499999999999986 47.499999999999964 0.57735026918962573 0.57735026918962573 0.57735026918962573 I I #
aggregate_stitch_attribute-aggregate_stitch_base_attribute-aggregate_body_attribute-attrib_HH-attrib $-1 $356 $128 $0 F #
attrib_hh_face_geombuild-attrib_entity_geombuild-individual_entity_attribute-attrib_HH-attrib $-1 $-1 $130 $80 F #
model_id-kcp-attrib $-1 $357 $-1 $131 1 1017637708 80 1984954369 7 #
face $358 $168 $359 $9 $-1 $360 forward single #
loop $-1 $-1 $361 $131 #
plane-surface $-1 0 -47.5 22.5 0 -0.70710678118654757 0.70710678118654757 1 0 0 forward_v I I I I #
coedge $362 $363 $364 $365 $366 forward $132 $-1 #
attrib_hh_coedge_geombuild-attrib_entity_geombuild-individual_entity_attribute-attrib_HH-attrib $-1 $-1 $-1 $134 F #
coedge $367 $368 $134 $369 $370 reversed $81 $-1 #
coedge $371 $134 $365 $246 $372 reversed $81 $-1 #
coedge $373 $247 $374 $134 $235 reversed $359 $-1 #
edge $375 $376 -30.434711189597149 $377 -21.774457151752767 $234 $378 forward 7 unknown #
attrib_hh_coedge_geombuild-attrib_entity_geombuild-individual_entity_attribute-attrib_HH-attrib $-1 $-1 $-1 $136 F #
coedge $379 $374 $247 $136 $238 forward $359 $-1 #
edge $380 $250 -7.0710678118654808 $243 0 $237 $381 forward 7 unknown #
attrib_hh_coedge_geombuild-attrib_entity_geombuild-individual_entity_attribute-attrib_HH-attrib $-1 $-1 $-1 $137 F #
attrib_hh_coedge_geombuild-attrib_entity_geombuild-individual_entity_attribute-attrib_HH-attrib $-1 $-1 $-1 $138 F #
coedge $382 $138 $369 $374 $383 forward $98 $-1 #
model_id-kcp-attrib $-1 $384 $-1 $139 1 1017637708 80 1984954369 21 #
vertex $385 $238 $386 #
ellipse-curve $-1 50 20 25 0 0 -1 -5 0 0 1 I I #
attrib_hh_coedge_geombuild-attrib_entity_geombuild-individual_entity_attribute-attrib_HH-attrib $-1 $-1 $-1 $141 F #
coedge $387 $253 $141 $233 $372 forward $38 $-1 #
coedge $388 $237 $234 $141 $248 reversed $359 $-1 #
edge $389 $250 -20 $376 46.464466094067298 $141 $390 reversed 7 unknown #
model_id-kcp-attrib $-1 $391 $-1 $142 1 1017637708 80 1984954369 22 #
vertex $392 $248 $393 #
straight-curve $-1 50 25 25 0 0.70710678118654702 0.70710678118654702 I I #
attrib_hh_coedge_geombuild-attrib_entity_geombuild-individual_entity_attribute-attrib_HH-attrib $-1 $-1 $-1 $144 F #
coedge $394 $144 $246 $364 $395 reversed $38 $-1 #
coedge $396 $397 $150 $144 $255 forward $261 $-1 #
edge $398 $153 -50 $399 50 $144 $400 forward 7 unknown #
convexity-sys-attrib $-1 $401 $146 $88 #
attrib_hh_vertex_geombuild-attrib_entity_geombuild-individual_entity_attribute-attrib_HH-attrib $-1 $-1 $-1 $147 F #
point $-1 50 25 25 #
attrib_hh_coedge_geombuild-attrib_entity_geombuild-individual_entity_attribute-attrib_HH-attrib $-1 $-1 $-1 $150 F #
coedge $402 $150 $397 $269 $403 forward $261 $-1 #
loop $-1 $-1 $254 $404 #
attrib_edge_convexity-kcp-attrib $-1 $405 $-1 $151 1 #
vertex $406 $151 $407 #
straight-curve $-1 0 50 -25 1 0 0 I I #
convexity-sys-attrib $-1 $408 $152 $91 #
attrib_hh_vertex_geombuild-attrib_entity_geombuild-individual_entity_attribute-attrib_HH-attrib $-1 $-1 $-1 $153 F #
point $-1 50 50 -25 #
attrib_hh_coedge_geombuild-attrib_entity_geombuild-individual_entity_attribute-attrib_HH-attrib $-1 $-1 $-1 $156 F #
coedge $409 $410 $156 $260 $403 reversed $271 $-1 #
coedge $411 $156 $412 $159 $276 forward $271 $-1 #
loop $-1 $-1 $270 $413 #
attrib_edge_convexity-kcp-attrib $-1 $414 $-1 $157 1 #
straight-curve $-1 -50 50 0 0 0 -1 I I #
attrib_hh_coedge_geombuild-attrib_entity_geombuild-individual_entity_attribute-attrib_HH-attrib $-1 $-1 $-1 $159 F #
coedge $415 $160 $159 $416 $417 forward $161 $-1 #
edge $418 $419 0 $163 1.5707963267948966 $270 $420 reversed 7 unknown #
attrib_hh_coedge_geombuild-attrib_entity_geombuild-individual_entity_attribute-attrib_HH-attrib $-1 $-1 $-1 $160 F #
face $421 $422 $161 $9 $-1 $423 forward single #
convexity-sys-attrib $-1 $424 $162 $95 #
attrib_hh_vertex_geombuild-attrib_entity_geombuild-individual_entity_attribute-attrib_HH-attrib $-1 $-1 $-1 $163 F #
point $-1 -50 50 12.9289321881345 #
attrib_hh_coedge_geombuild-attrib_entity_geombuild-individual_entity_attribute-attrib_HH-attrib $-1 $-1 $-1 $166 F #
coedge $425 $426 $166 $427 $428 forward $98 $-1 #
coedge $429 $416 $430 $166 $285 reversed $431 $-1 #
edge $432 $287 -45 $433 41.464466094067298 $166 $434 reversed 7 unknown #
attrib_edge_convexity-kcp-attrib $-1 $435 $-1 $167 1 #
vertex $436 $285 $437 #
ellipse-curve $-1 -37.928932188134503 45 25 0 0 -1 -7.0710678118654799 0 0 0.70710678118654702 I I #
model_id-kcp-attrib $-1 $438 $-1 $168 1 1017637708 80 1984954369 9 #
plane-surface $-1 0 0 25 0 0 1 1 0 0 forward_v I I I I #
attrib_hh_edge_geombuild-attrib_entity_geombuild-individual_entity_attribute-attrib_HH-attrib $-1 $-1 $169 $63 F #
model_id-kcp-attrib $-1 $-1 $-1 $175 1 1017637708 80 1984954370 2 #
face $439 $-1 $190 $21 $-1 $440 reversed single #
loop $-1 $-1 $309 $175 #
plane-surface $-1 0 50.000000000000014 0 0 -1 0 0 0 -1 forward_v I I I I #
coedge $-1 $441 $307 $310 $442 forward $176 $-1 #
coedge $-1 $313 $178 $179 $301 reversed $105 $-1 #
coedge $-1 $307 $441 $178 $299 reversed $176 $-1 #
edge $-1 $314 -25.000000000000021 $443 25.000000000000021 $298 $444 forward 7 unknown #
coedge $-1 $180 $179 $441 $445 forward $66 $-1 #
edge $-1 $305 -50.000000000000043 $443 50.000000000000043 $297 $446 forward 7 unknown #
coedge $-1 $310 $309 $180 $303 reversed $294 $-1 #
edge $-1 $447 -50.000000000000043 $304 50.000000000000043 $302 $448 forward 7 unknown #
vertex $-1 $182 $449 #
vertex $-1 $316 $450 #
straight-curve $-1 50.000000000000043 0 -25.000000000000021 0 -1 0 I I #
coedge $-1 $296 $298 $183 $308 reversed $176 $-1 #
edge $-1 $311 -50.000000000000014 $314 50.000000000000014 $307 $451 forward 7 unknown #
coedge $-1 $302 $184 $189 $317 forward $294 $-1 #
coedge $-1 $184 $302 $296 $442 reversed $294 $-1 #
vertex $-1 $185 $452 #
straight-curve $-1 0 50.000000000000014 25.000000000000021 -1 0 0 I I #
coedge $-1 $186 $297 $188 $316 reversed $105 $-1 #
vertex $-1 $308 $453 #
straight-curve $-1 0 -50.000000000000014 25.000000000000021 1 0 0 I I #
edge $-1 $191 -25.000000000000021 $305 25.000000000000021 $188 $454 forward 7 unknown #
edge $-1 $192 -25.000000000000021 $304 25.000000000000021 $189 $455 forward 7 unknown #
point $-1 50.000000000000043 -50.000000000000014 25.000000000000021 #
point $-1 50.000000000000043 50.000000000000014 25.000000000000021 #
loop $-1 $-1 $202 $194 #
plane-surface $-1 -50.000000000000043 0 0 1 0 0 0 0 -1 forward_v I I I I #
coedge $-1 $323 $197 $331 $456 reversed $113 $-1 #
coedge $-1 $197 $322 $198 $326 reversed $113 $-1 #
edge $-1 $328 7.0710678118654737 $332 14.14213562373104 $197 $457 forward 7 unknown #
coedge $-1 $199 $198 $458 $459 forward $70 $-1 #
edge $-1 $328 44.999999999999979 $460 50.000000000000043 $323 $461 forward 7 unknown #
edge $-1 $462 -50.000000000000043 $207 -44.999999999999979 $204 $463 forward 7 unknown #
vertex $-1 $326 $464 #
straight-curve $-1 -44.999999999999936 25.000000000000007 25.000000000000021 0 1 0 I I #
coedge $-1 $458 $202 $205 $334 reversed $320 $-1 #
coedge $-1 $202 $458 $322 $456 forward $320 $-1 #
vertex $-1 $324 $465 #
straight-curve $-1 -50.000000000000043 25.000000000000007 19.999999999999918 0 -1 0 I I #
edge $-1 $462 -25.000000000000021 $206 -19.999999999999943 $330 $466 forward 7 unknown #
point $-1 -50.000000000000036 -50.000000000000014 19.999999999999943 #
point $-1 -44.999999999999979 -50.000000000000014 24.999999999999979 #
loop $-1 $-1 $346 $209 #
plane-surface $-1 50.000000000000043 0 0 -1 0 0 0 0 1 forward_v I I I I #
coedge $-1 $213 $212 $467 $468 forward $74 $-1 #
edge $-1 $222 69.999999999999915 $469 75.000000000000028 $212 $470 forward 7 unknown #
coedge $-1 $471 $346 $213 $342 reversed $337 $-1 #
edge $-1 $472 -50.000000000000014 $344 -44.999999999999915 $341 $473 forward 7 unknown #
convexity-sys-attrib $-1 $-1 $-1 $214 #
vertex $-1 $214 $474 #
straight-curve $-1 3.5527136788005009e-015 -44.999999999999922 25.000000000000021 1 0 0 I I #
coedge $-1 $341 $471 $215 $347 reversed $337 $-1 #
edge $475 $344 5.3033008588990107 $351 12.374368670764623 $346 $476 forward 7 unknown #
coedge $-1 $467 $216 $471 $477 reversed $210 $-1 #
coedge $-1 $216 $467 $218 $353 forward $210 $-1 #
convexity-sys-attrib $-1 $-1 $-1 $217 #
vertex $-1 $217 $478 #
straight-curve $-1 3.5527136788005009e-015 -50.000000000000014 19.999999999999932 -1 0 0 I I #
edge $-1 $469 7.0710678118654737 $221 14.142135623731015 $349 $479 forward 7 unknown #
point $-1 -50.000000000000036 -50.000000000000014 19.999999999999943 #
point $-1 -44.999999999999936 -44.999999999999908 25.000000000000021 #
aggregate_simgeom_attribute-aggregate_simgeom_base_attribute-aggregate_body_attribute-attrib_HH-attrib $-1 $-1 $224 $0 F #
attrib_hh_face_geombuild-attrib_entity_geombuild-individual_entity_attribute-attrib_HH-attrib $-1 $-1 $226 $131 F #
model_id-kcp-attrib $-1 $480 $-1 $227 1 1017637708 80 1984954369 8 #
loop $-1 $-1 $237 $227 #
plane-surface $-1 47.5 2.5 22.5 0.70710678118654757 0 0.70710678118654757 0.70710678118654802 0 -0.70710678118654802 forward_v I I I I #
coedge $481 $482 $483 $368 $484 reversed $228 $-1 #
attrib_hh_coedge_geombuild-attrib_entity_geombuild-individual_entity_attribute-attrib_HH-attrib $-1 $-1 $-1 $230 F #
coedge $485 $486 $230 $483 $487 forward $132 $-1 #
coedge $488 $230 $489 $253 $395 forward $132 $-1 #
coedge $490 $233 $368 $230 $366 reversed $81 $-1 #
edge $491 $492 -1.0471975511965976 $493 -0.5235987755983067 $230 $494 reversed 7 unknown #
attrib_hh_coedge_geombuild-attrib_entity_geombuild-individual_entity_attribute-attrib_HH-attrib $-1 $-1 $-1 $232 F #
coedge $495 $365 $232 $361 $484 forward $81 $-1 #
coedge $496 $241 $426 $232 $370 forward $98 $-1 #
edge $497 $498 -0.52359877559829116 $377 0.52359877559829116 $369 $499 reversed 7 unknown #
attrib_hh_coedge_geombuild-attrib_entity_geombuild-individual_entity_attribute-attrib_HH-attrib $-1 $-1 $-1 $233 F #
edge $500 $376 0.5235987755983067 $492 1.0471975511965976 $246 $501 reversed 7 unknown #
attrib_hh_coedge_geombuild-attrib_entity_geombuild-individual_entity_attribute-attrib_HH-attrib $-1 $-1 $-1 $234 F #
coedge $502 $234 $237 $241 $383 reversed $359 $-1 #
attrib_edge_convexity-kcp-attrib $-1 $503 $-1 $235 3 #
vertex $504 $235 $505 #
vertex $506 $383 $507 #
straight-curve $-1 32.428511301977601 -28.892977396044799 37.571488698022399 -0.57735026918962595 0.57735026918962595 0.57735026918962595 I I #
attrib_hh_coedge_geombuild-attrib_entity_geombuild-individual_entity_attribute-attrib_HH-attrib $-1 $-1 $-1 $237 F #
attrib_edge_convexity-kcp-attrib $-1 $508 $-1 $238 4 #
straight-curve $-1 45 20 25 -0.70710678118654702 0 0.70710678118654702 I I #
attrib_hh_coedge_geombuild-attrib_entity_geombuild-individual_entity_attribute-attrib_HH-attrib $-1 $-1 $-1 $241 F #
edge $509 $377 -41.464466094067298 $243 20 $241 $510 reversed 7 unknown #
attrib_edge_convexity-kcp-attrib $-1 $511 $242 $139 1 #
attrib_hh_vertex_geombuild-attrib_entity_geombuild-individual_entity_attribute-attrib_HH-attrib $-1 $-1 $-1 $243 F #
point $-1 45 20 25 #
attrib_hh_coedge_geombuild-attrib_entity_geombuild-individual_entity_attribute-attrib_HH-attrib $-1 $-1 $-1 $246 F #
attrib_hh_coedge_geombuild-attrib_entity_geombuild-individual_entity_attribute-attrib_HH-attrib $-1 $-1 $-1 $247 F #
attrib_edge_convexity-kcp-attrib $-1 $512 $-1 $248 1 #
straight-curve $-1 50 0 20 0 1 0 I I #
attrib_edge_convexity-kcp-attrib $-1 $513 $249 $142 1 #
attrib_hh_vertex_geombuild-attrib_entity_geombuild-individual_entity_attribute-attrib_HH-attrib $-1 $-1 $-1 $250 F #
point $-1 50 20 20 #
attrib_hh_coedge_geombuild-attrib_entity_geombuild-individual_entity_attribute-attrib_HH-attrib $-1 $-1 $-1 $253 F #
edge $514 $399 -25 $492 19.0526565450925 $253 $515 reversed 7 unknown #
attrib_hh_coedge_geombuild-attrib_entity_geombuild-individual_entity_attribute-attrib_HH-attrib $-1 $-1 $-1 $254 F #
coedge $516 $260 $254 $489 $517 forward $261 $-1 #
attrib_edge_convexity-kcp-attrib $-1 $518 $-1 $255 1 #
vertex $519 $395 $520 #
straight-curve $-1 50 0 -25 0 -1 0 I I #
attrib_hh_edge_geombuild-attrib_entity_geombuild-individual_entity_attribute-attrib_HH-attrib $-1 $-1 $256 $88 F #
attrib_hh_coedge_geombuild-attrib_entity_geombuild-individual_entity_attribute-attrib_HH-attrib $-1 $-1 $-1 $260 F #
edge $521 $522 -50 $263 50 $269 $523 forward 7 unknown #
face $524 $-1 $261 $9 $-1 $525 reversed single #
convexity-sys-attrib $-1 $526 $262 $151 #
attrib_hh_vertex_geombuild-attrib_entity_geombuild-individual_entity_attribute-attrib_HH-attrib $-1 $-1 $-1 $263 F #
point $-1 -50 50 -25 #
attrib_hh_edge_geombuild-attrib_entity_geombuild-individual_entity_attribute-attrib_HH-attrib $-1 $-1 $265 $91 F #
attrib_hh_coedge_geombuild-attrib_entity_geombuild-individual_entity_attribute-attrib_HH-attrib $-1 $-1 $-1 $269 F #
coedge $527 $528 $269 $529 $530 reversed $271 $-1 #
attrib_hh_coedge_geombuild-attrib_entity_geombuild-individual_entity_attribute-attrib_HH-attrib $-1 $-1 $-1 $270 F #
coedge $531 $270 $528 $532 $533 forward $271 $-1 #
face $534 $535 $271 $9 $-1 $536 reversed single #
convexity-sys-attrib $-1 $537 $272 $157 #
attrib_hh_coedge_geombuild-attrib_entity_geombuild-individual_entity_attribute-attrib_HH-attrib $-1 $-1 $-1 $275 F #
coedge $538 $532 $284 $275 $417 reversed $431 $-1 #
edge $539 $419 -12.374368670764573 $287 -5.3033008588991031 $416 $540 forward 7 unknown #
attrib_hh_edge_geombuild-attrib_entity_geombuild-individual_entity_attribute-attrib_HH-attrib $-1 $-1 $-1 $276 F #
vertex $541 $276 $542 #
ellipse-curve $-1 -50 45 12.9289321881345 1 0 0 0 0 7.0710678118654799 0.70710678118654702 I I #
model_id-kcp-attrib $-1 $543 $-1 $278 1 1017637708 80 1984954369 10 #
face $544 $413 $431 $9 $-1 $545 forward single #
cone-surface $-1 -43.964466094067298 45 18.964466094067301 -0.70710678118654757 0 -0.70710678118654757 -2.5 3.53553390593274 2.5 1 I I 0 1 5.0000000000000018 forward I I I I #
attrib_hh_edge_geombuild-attrib_entity_geombuild-individual_entity_attribute-attrib_HH-attrib $-1 $-1 $279 $95 F #
attrib_hh_coedge_geombuild-attrib_entity_geombuild-individual_entity_attribute-attrib_HH-attrib $-1 $-1 $-1 $283 F #
coedge $546 $369 $283 $482 $547 forward $98 $-1 #
coedge $548 $549 $550 $283 $428 reversed $551 $-1 #
edge $552 $433 -0.52359877559829116 $553 0.52359877559829116 $283 $554 reversed 7 unknown #
attrib_hh_coedge_geombuild-attrib_entity_geombuild-individual_entity_attribute-attrib_HH-attrib $-1 $-1 $-1 $284 F #
coedge $555 $284 $532 $549 $556 reversed $431 $-1 #
loop $-1 $-1 $416 $422 #
attrib_edge_convexity-kcp-attrib $-1 $557 $-1 $285 1 #
vertex $558 $556 $559 #
straight-curve $-1 -45 0 25 0 1 0 I I #
convexity-sys-attrib $-1 $560 $286 $167 #
attrib_hh_vertex_geombuild-attrib_entity_geombuild-individual_entity_attribute-attrib_HH-attrib $-1 $-1 $-1 $287 F #
point $-1 -45 45 25 #
attrib_hh_face_geombuild-attrib_entity_geombuild-individual_entity_attribute-attrib_HH-attrib $-1 $-1 $289 $168 F #
model_id-kcp-attrib $-1 $-1 $-1 $293 1 1017637708 80 1984954370 3 #
plane-surface $-1 50.000000000000043 0 0 -1 0 0 0 0 1 forward_v I I I I #
coedge $-1 $298 $296 $300 $445 reversed $176 $-1 #
edge $-1 $311 -25.000000000000021 $447 25.000000000000021 $310 $561 forward 7 unknown #
vertex $-1 $445 $562 #
straight-curve $-1 -50.000000000000043 -50.000000000000014 0 0 0 -1 I I #
edge $-1 $443 -50.000000000000014 $447 50.000000000000014 $441 $563 forward 7 unknown #
straight-curve $-1 0 -50.000000000000014 -25.000000000000021 -1 0 0 I I #
vertex $-1 $303 $564 #
straight-curve $-1 0 50.000000000000014 -25.000000000000021 1 0 0 I I #
point $-1 50.000000000000043 50.000000000000014 -25.000000000000021 #
point $-1 50.000000000000043 -50.000000000000014 -25.000000000000021 #
straight-curve $-1 -50.000000000000043 0 25.000000000000021 0 -1 0 I I #
point $-1 -50.000000000000043 50.000000000000014 25.000000000000021 #
point $-1 -50.000000000000043 -50.000000000000014 25.000000000000021 #
straight-curve $-1 50.000000000000043 -50.000000000000014 0 0 0 -1 I I #
straight-curve $-1 50.000000000000043 50.000000000000014 0 0 0 -1 I I #
edge $-1 $460 -25.000000000000021 $332 -19.999999999999915 $322 $565 forward 7 unknown #
straight-curve $-1 -39.999999999999986 50.000000000000014 29.999999999999982 -0.70710678118654757 0 -0.70710678118654757 I I #
coedge $-1 $331 $330 $325 $459 reversed $320 $-1 #
edge $-1 $460 -50.000000000000014 $462 50.000000000000014 $458 $566 forward 7 unknown #
vertex $-1 $326 $567 #
straight-curve $-1 0 50.000000000000014 25.000000000000021 -1 0 0 I I #
vertex $-1 $459 $568 #
straight-curve $-1 0 -50.000000000000014 25.000000000000021 1 0 0 I I #
point $-1 -44.999999999999979 50.000000000000014 24.999999999999979 #
point $-1 -50.000000000000043 50.000000000000014 19.999999999999915 #
straight-curve $-1 -50.000000000000043 -50.000000000000014 0 0 0 -1 I I #
coedge $-1 $349 $348 $339 $468 reversed $210 $-1 #
edge $-1 $469 -44.999999999999979 $472 50.000000000000043 $467 $569 forward 7 unknown #
vertex $-1 $468 $570 #
straight-curve $-1 -44.999999999999936 25.000000000000007 25.000000000000021 0 -1 0 I I #
coedge $-1 $346 $341 $348 $477 forward $337 $-1 #
vertex $-1 $342 $571 #
straight-curve $-1 50.000000000000043 0 25.000000000000021 0 1 0 I I #
point $-1 50.000000000000043 -44.999999999999915 25.000000000000021 #
convexity-sys-attrib $-1 $-1 $-1 $347 #
straight-curve $-1 50.000000000000043 -41.249999999999986 28.749999999999957 0 -0.70710678118654757 -0.70710678118654757 I I #
edge $-1 $472 -25.000000000000021 $351 -19.999999999999929 $471 $572 forward 7 unknown #
point $-1 50.000000000000043 -50.000000000000014 19.999999999999929 #
straight-curve $-1 -39.999999999999986 -50.000000000000014 29.999999999999982 -0.70710678118654757 0 -0.70710678118654757 I I #
attrib_hh_face_geombuild-attrib_entity_geombuild-individual_entity_attribute-attrib_HH-attrib $-1 $-1 $358 $227 F #
attrib_hh_coedge_geombuild-attrib_entity_geombuild-individual_entity_attribute-attrib_HH-attrib $-1 $-1 $-1 $361 F #
coedge $573 $574 $361 $426 $547 reversed $228 $-1 #
coedge $575 $361 $574 $363 $487 reversed $228 $-1 #
edge $576 $498 21.774457151752767 $493 30.434711189597149 $361 $577 forward 7 unknown #
attrib_hh_coedge_geombuild-attrib_entity_geombuild-individual_entity_attribute-attrib_HH-attrib $-1 $-1 $-1 $363 F #
coedge $578 $529 $363 $579 $580 forward $132 $-1 #
edge $581 $493 -46.464466094067298 $582 46.464466094067298 $363 $583 reversed 7 unknown #
attrib_hh_coedge_geombuild-attrib_entity_geombuild-individual_entity_attribute-attrib_HH-attrib $-1 $-1 $-1 $364 F #
coedge $584 $364 $529 $397 $517 reversed $132 $-1 #
attrib_hh_coedge_geombuild-attrib_entity_geombuild-individual_entity_attribute-attrib_HH-attrib $-1 $-1 $-1 $365 F #
attrib_hh_edge_geombuild-attrib_entity_geombuild-individual_entity_attribute-attrib_HH-attrib $-1 $-1 $-1 $366 F #
vertex $585 $366 $586 #
vertex $587 $487 $588 #
ellipse-curve $-1 50 -50 12.9289321881345 0 1 0 -6.1237243569579496 0 6.1237243569579496 0.57735026918962595 I I #
attrib_hh_coedge_geombuild-attrib_entity_geombuild-individual_entity_attribute-attrib_HH-attrib $-1 $-1 $-1 $368 F #
attrib_hh_coedge_geombuild-attrib_entity_geombuild-individual_entity_attribute-attrib_HH-attrib $-1 $-1 $-1 $369 F #
model_id-kcp-attrib $-1 $589 $-1 $370 1 1017637708 80 1984954369 20 #
vertex $590 $484 $591 #
ellipse-curve $-1 37.928932188134503 -37.928932188134503 25 0 0 -1 6.1237243569579496 -6.1237243569579496 0 0.57735026918962595 I I #
model_id-kcp-attrib $-1 $592 $-1 $372 1 1017637708 80 1984954369 23 #
ellipse-curve $-1 50 -50 12.9289321881345 -1 0 0 0 6.1237243569579496 6.1237243569579496 0.57735026918962595 I I #
attrib_hh_coedge_geombuild-attrib_entity_geombuild-individual_entity_attribute-attrib_HH-attrib $-1 $-1 $-1 $374 F #
convexity-sys-attrib $-1 $593 $375 $235 #
attrib_hh_vertex_geombuild-attrib_entity_geombuild-individual_entity_attribute-attrib_HH-attrib $-1 $-1 $-1 $376 F #
point $-1 50 -46.464466094067298 20 #
attrib_hh_vertex_geombuild-attrib_entity_geombuild-individual_entity_attribute-attrib_HH-attrib $-1 $-1 $-1 $377 F #
point $-1 45 -41.464466094067298 25 #
convexity-sys-attrib $-1 $594 $380 $238 #
attrib_edge_convexity-kcp-attrib $-1 $595 $-1 $383 1 #
straight-curve $-1 45 0 25 0 -1 0 I I #
convexity-sys-attrib $-1 $596 $384 $139 #
convexity-sys-attrib $-1 $597 $389 $248 #
convexity-sys-attrib $-1 $598 $391 $142 #
model_id-kcp-attrib $-1 $599 $-1 $395 1 1017637708 80 1984954369 24 #
straight-curve $-1 50 -50 0 0 0 -1 I I #
attrib_hh_coedge_geombuild-attrib_entity_geombuild-individual_entity_attribute-attrib_HH-attrib $-1 $-1 $-1 $397 F #
edge $600 $399 -50 $522 50 $489 $601 forward 7 unknown #
convexity-sys-attrib $-1 $602 $398 $255 #
attrib_hh_vertex_geombuild-attrib_entity_geombuild-individual_entity_attribute-attrib_HH-attrib $-1 $-1 $-1 $399 F #
point $-1 50 -50 -25 #
attrib_hh_edge_geombuild-attrib_entity_geombuild-individual_entity_attribute-attrib_HH-attrib $-1 $-1 $-1 $403 F #
vertex $603 $403 $604 #
straight-curve $-1 -50 0 -25 0 1 0 I I #
model_id-kcp-attrib $-1 $605 $-1 $404 1 1017637708 80 1984954369 14 #
plane-surface $-1 0 0 -25 0 0 1 1 0 0 forward_v I I I I #
attrib_hh_edge_geombuild-attrib_entity_geombuild-individual_entity_attribute-attrib_HH-attrib $-1 $-1 $405 $151 F #
attrib_hh_coedge_geombuild-attrib_entity_geombuild-individual_entity_attribute-attrib_HH-attrib $-1 $-1 $-1 $410 F #
coedge $606 $412 $410 $607 $608 forward $271 $-1 #
coedge $609 $489 $486 $410 $530 forward $132 $-1 #
edge $610 $611 -19.0526565450925 $522 25 $410 $612 forward 7 unknown #
attrib_hh_coedge_geombuild-attrib_entity_geombuild-individual_entity_attribute-attrib_HH-attrib $-1 $-1 $-1 $412 F #
coedge $613 $430 $416 $412 $533 reversed $431 $-1 #
edge $614 $615 -46.464466094067298 $419 45 $412 $616 reversed 7 unknown #
model_id-kcp-attrib $-1 $617 $-1 $413 1 1017637708 80 1984954369 12 #
face $618 $404 $551 $9 $-1 $619 forward single #
plane-surface $-1 -50 0 0 1 0 0 0 0 -1 forward_v I I I I #
attrib_hh_edge_geombuild-attrib_entity_geombuild-individual_entity_attribute-attrib_HH-attrib $-1 $-1 $414 $157 F #
attrib_hh_coedge_geombuild-attrib_entity_geombuild-individual_entity_attribute-attrib_HH-attrib $-1 $-1 $-1 $416 F #
attrib_edge_convexity-kcp-attrib $-1 $620 $-1 $417 3 #
straight-curve $-1 -41.25 45 28.75 0.70710678118654802 0 0.70710678118654802 I I #
attrib_hh_vertex_geombuild-attrib_entity_geombuild-individual_entity_attribute-attrib_HH-attrib $-1 $-1 $-1 $419 F #
point $-1 -50 45 20 #
attrib_hh_face_geombuild-attrib_entity_geombuild-individual_entity_attribute-attrib_HH-attrib $-1 $-1 $421 $278 F #
model_id-kcp-attrib $-1 $621 $-1 $422 1 1017637708 80 1984954369 11 #
plane-surface $-1 -47.5 2.5 22.5 -0.70710678118654757 0 0.70710678118654757 0.70710678118654802 0 0.70710678118654802 forward_v I I I I #
attrib_hh_coedge_geombuild-attrib_entity_geombuild-individual_entity_attribute-attrib_HH-attrib $-1 $-1 $-1 $426 F #
edge $622 $553 -41.464466094067298 $498 41.464466094067298 $426 $623 reversed 7 unknown #
attrib_hh_coedge_geombuild-attrib_entity_geombuild-individual_entity_attribute-attrib_HH-attrib $-1 $-1 $-1 $427 F #
coedge $624 $607 $427 $430 $556 forward $551 $-1 #
coedge $625 $427 $579 $574 $626 forward $551 $-1 #
loop $-1 $-1 $549 $535 #
model_id-kcp-attrib $-1 $627 $-1 $428 1 1017637708 80 1984954369 18 #
vertex $628 $547 $629 #
ellipse-curve $-1 -37.928932188134503 -37.928932188134503 25 0 0 -1 -6.1237243569579496 -6.1237243569579496 0 0.57735026918962595 I I #
attrib_hh_coedge_geombuild-attrib_entity_geombuild-individual_entity_attribute-attrib_HH-attrib $-1 $-1 $-1 $430 F #
edge $630 $433 21.774457151752767 $615 30.434711189597149 $430 $631 forward 7 unknown #
convexity-sys-attrib $-1 $632 $432 $285 #
attrib_hh_vertex_geombuild-attrib_entity_geombuild-individual_entity_attribute-attrib_HH-attrib $-1 $-1 $-1 $433 F #
point $-1 -45 -41.464466094067298 25 #
attrib_hh_edge_geombuild-attrib_entity_geombuild-individual_entity_attribute-attrib_HH-attrib $-1 $-1 $435 $167 F #
straight-curve $-1 -50.000000000000043 50.000000000000014 0 0 0 -1 I I #
point $-1 -50.000000000000043 -50.000000000000014 -25.000000000000021 #
straight-curve $-1 -50.000000000000043 0 -25.000000000000021 0 1 0 I I #
point $-1 -50.000000000000043 50.000000000000014 -25.000000000000021 #
straight-curve $-1 -50.000000000000043 50.000000000000014 0 0 0 -1 I I #
straight-curve $-1 -50.000000000000043 0 25.000000000000021 0 -1 0 I I #
point $-1 -50.000000000000043 50.000000000000014 25.000000000000021 #
point $-1 -50.000000000000043 -50.000000000000014 25.000000000000021 #
straight-curve $-1 0 -50.000000000000014 25.000000000000021 1 0 0 I I #
point $-1 -44.999999999999979 -50.000000000000014 24.999999999999979 #
point $-1 50.000000000000043 -50.000000000000014 25.000000000000021 #
straight-curve $-1 50.000000000000043 -50.000000000000014 0 0 0 -1 I I #
attrib_hh_coedge_geombuild-attrib_entity_geombuild-individual_entity_attribute-attrib_HH-attrib $-1 $-1 $-1 $482 F #
coedge $633 $483 $482 $550 $626 reversed $228 $-1 #
attrib_hh_coedge_geombuild-attrib_entity_geombuild-individual_entity_attribute-attrib_HH-attrib $-1 $-1 $-1 $483 F #
attrib_edge_convexity-kcp-attrib $-1 $634 $-1 $484 3 #
straight-curve $-1 28.892977396044799 -32.428511301977601 37.571488698022399 0.57735026918962595 -0.57735026918962595 -0.57735026918962595 I I #
attrib_hh_coedge_geombuild-attrib_entity_geombuild-individual_entity_attribute-attrib_HH-attrib $-1 $-1 $-1 $486 F #
coedge $635 $550 $607 $486 $580 reversed $551 $-1 #
edge $636 $582 0.5235987755983067 $611 1.0471975511965976 $486 $637 reversed 7 unknown #
attrib_edge_convexity-kcp-attrib $-1 $638 $-1 $487 1 #
vertex $639 $626 $640 #
straight-curve $-1 0 -50 20 1 0 0 I I #
attrib_hh_coedge_geombuild-attrib_entity_geombuild-individual_entity_attribute-attrib_HH-attrib $-1 $-1 $-1 $489 F #
attrib_hh_vertex_geombuild-attrib_entity_geombuild-individual_entity_attribute-attrib_HH-attrib $-1 $-1 $-1 $492 F #
point $-1 50 -50 19.0526565450925 #
attrib_hh_vertex_geombuild-attrib_entity_geombuild-individual_entity_attribute-attrib_HH-attrib $-1 $-1 $-1 $493 F #
point $-1 46.464466094067298 -50 20 #
attrib_edge_convexity-kcp-attrib $-1 $641 $497 $370 1 #
attrib_hh_vertex_geombuild-attrib_entity_geombuild-individual_entity_attribute-attrib_HH-attrib $-1 $-1 $-1 $498 F #
point $-1 41.464466094067298 -45 25 #
attrib_edge_convexity-kcp-attrib $-1 $642 $500 $372 1 #
attrib_hh_edge_geombuild-attrib_entity_geombuild-individual_entity_attribute-attrib_HH-attrib $-1 $-1 $503 $235 F #
attrib_hh_edge_geombuild-attrib_entity_geombuild-individual_entity_attribute-attrib_HH-attrib $-1 $-1 $508 $238 F #
convexity-sys-attrib $-1 $643 $509 $383 #
attrib_hh_edge_geombuild-attrib_entity_geombuild-individual_entity_attribute-attrib_HH-attrib $-1 $-1 $511 $139 F #
attrib_hh_edge_geombuild-attrib_entity_geombuild-individual_entity_attribute-attrib_HH-attrib $-1 $-1 $512 $248 F #
attrib_hh_edge_geombuild-attrib_entity_geombuild-individual_entity_attribute-attrib_HH-attrib $-1 $-1 $513 $142 F #
attrib_edge_convexity-kcp-attrib $-1 $644 $514 $395 1 #
model_id-kcp-attrib $-1 $645 $-1 $517 1 1017637708 80 1984954369 25 #
straight-curve $-1 0 -50 -25 -1 0 0 I I #
attrib_hh_edge_geombuild-attrib_entity_geombuild-individual_entity_attribute-attrib_HH-attrib $-1 $-1 $518 $255 F #
attrib_hh_vertex_geombuild-attrib_entity_geombuild-individual_entity_attribute-attrib_HH-attrib $-1 $-1 $-1 $522 F #
point $-1 -50 -50 -25 #
attrib_hh_face_geombuild-attrib_entity_geombuild-individual_entity_attribute-attrib_HH-attrib $-1 $-1 $524 $404 F #
attrib_hh_coedge_geombuild-attrib_entity_geombuild-individual_entity_attribute-attrib_HH-attrib $-1 $-1 $-1 $528 F #
coedge $646 $579 $549 $528 $608 reversed $551 $-1 #
edge $647 $611 -1.0471975511965976 $615 -0.5235987755983067 $528 $648 reversed 7 unknown #
attrib_hh_coedge_geombuild-attrib_entity_geombuild-individual_entity_attribute-attrib_HH-attrib $-1 $-1 $-1 $529 F #
model_id-kcp-attrib $-1 $649 $-1 $530 1 1017637708 80 1984954369 16 #
vertex $650 $608 $651 #
straight-curve $-1 -50 -50 0 0 0 -1 I I #
attrib_hh_coedge_geombuild-attrib_entity_geombuild-individual_entity_attribute-attrib_HH-attrib $-1 $-1 $-1 $532 F #
attrib_edge_convexity-kcp-attrib $-1 $652 $-1 $533 1 #
vertex $653 $533 $654 #
straight-curve $-1 -50 0 20 0 -1 0 I I #
attrib_hh_face_geombuild-attrib_entity_geombuild-individual_entity_attribute-attrib_HH-attrib $-1 $-1 $534 $413 F #
model_id-kcp-attrib $-1 $655 $-1 $535 1 1017637708 80 1984954369 13 #
cone-surface $-1 -45.142977396044799 -45.142977396044799 17.785954792089701 0.57735026918962584 0.57735026918962584 0.57735026918962584 -2.0412414523193201 -2.0412414523193201 4.0824829046386304 1 I I 0 1 5.0000000000000044 forward I I I I #
convexity-sys-attrib $-1 $656 $539 $417 #
attrib_hh_face_geombuild-attrib_entity_geombuild-individual_entity_attribute-attrib_HH-attrib $-1 $-1 $544 $422 F #
model_id-kcp-attrib $-1 $657 $-1 $547 1 1017637708 80 1984954369 19 #
straight-curve $-1 0 -45 25 -1 0 0 I I #
attrib_hh_coedge_geombuild-attrib_entity_geombuild-individual_entity_attribute-attrib_HH-attrib $-1 $-1 $-1 $549 F #
attrib_hh_coedge_geombuild-attrib_entity_geombuild-individual_entity_attribute-attrib_HH-attrib $-1 $-1 $-1 $550 F #
edge $658 $582 -30.434711189597149 $553 -21.774457151752767 $574 $659 forward 7 unknown #
attrib_edge_convexity-kcp-attrib $-1 $660 $552 $428 1 #
attrib_hh_vertex_geombuild-attrib_entity_geombuild-individual_entity_attribute-attrib_HH-attrib $-1 $-1 $-1 $553 F #
point $-1 -41.464466094067298 -45 25 #
attrib_edge_convexity-kcp-attrib $-1 $661 $-1 $556 3 #
straight-curve $-1 -32.428511301977601 -28.892977396044799 37.571488698022399 -0.57735026918962595 -0.57735026918962595 -0.57735026918962595 I I #
attrib_hh_edge_geombuild-attrib_entity_geombuild-individual_entity_attribute-attrib_HH-attrib $-1 $-1 $557 $285 F #
attrib_hh_coedge_geombuild-attrib_entity_geombuild-individual_entity_attribute-attrib_HH-attrib $-1 $-1 $-1 $574 F #
convexity-sys-attrib $-1 $662 $576 $484 #
attrib_hh_coedge_geombuild-attrib_entity_geombuild-individual_entity_attribute-attrib_HH-attrib $-1 $-1 $-1 $579 F #
attrib_hh_edge_geombuild-attrib_entity_geombuild-individual_entity_attribute-attrib_HH-attrib $-1 $-1 $-1 $580 F #
ellipse-curve $-1 -50 -50 12.9289321881345 0 1 0 6.1237243569579496 0 6.1237243569579496 0.57735026918962595 I I #
convexity-sys-attrib $-1 $663 $581 $487 #
attrib_hh_vertex_geombuild-attrib_entity_geombuild-individual_entity_attribute-attrib_HH-attrib $-1 $-1 $-1 $582 F #
point $-1 -46.464466094067298 -50 20 #
convexity-sys-attrib $-1 $664 $589 $370 #
convexity-sys-attrib $-1 $665 $592 $372 #
attrib_hh_edge_geombuild-attrib_entity_geombuild-individual_entity_attribute-attrib_HH-attrib $-1 $-1 $595 $383 F #
convexity-sys-attrib $-1 $666 $599 $395 #
attrib_hh_edge_geombuild-attrib_entity_geombuild-individual_entity_attribute-attrib_HH-attrib $-1 $-1 $600 $517 F #
attrib_hh_coedge_geombuild-attrib_entity_geombuild-individual_entity_attribute-attrib_HH-attrib $-1 $-1 $-1 $607 F #
model_id-kcp-attrib $-1 $667 $-1 $608 1 1017637708 80 1984954369 17 #
ellipse-curve $-1 -50 -50 12.9289321881345 1 0 0 0 6.1237243569579496 6.1237243569579496 0.57735026918962595 I I #
attrib_hh_edge_geombuild-attrib_entity_geombuild-individual_entity_attribute-attrib_HH-attrib $-1 $-1 $610 $530 F #
attrib_hh_vertex_geombuild-attrib_entity_geombuild-individual_entity_attribute-attrib_HH-attrib $-1 $-1 $-1 $611 F #
point $-1 -50 -50 19.0526565450925 #
convexity-sys-attrib $-1 $668 $614 $533 #
attrib_hh_vertex_geombuild-attrib_entity_geombuild-individual_entity_attribute-attrib_HH-attrib $-1 $-1 $-1 $615 F #
point $-1 -50 -46.464466094067298 20 #
attrib_hh_face_geombuild-attrib_entity_geombuild-individual_entity_attribute-attrib_HH-attrib $-1 $-1 $618 $535 F #
attrib_hh_edge_geombuild-attrib_entity_geombuild-individual_entity_attribute-attrib_HH-attrib $-1 $-1 $620 $417 F #
attrib_edge_convexity-kcp-attrib $-1 $669 $622 $547 1 #
attrib_edge_convexity-kcp-attrib $-1 $670 $-1 $626 3 #
straight-curve $-1 -28.892977396044799 -32.428511301977601 37.571488698022399 0.57735026918962595 0.57735026918962595 0.57735026918962595 I I #
convexity-sys-attrib $-1 $671 $627 $428 #
convexity-sys-attrib $-1 $672 $630 $556 #
attrib_hh_edge_geombuild-attrib_entity_geombuild-individual_entity_attribute-attrib_HH-attrib $-1 $-1 $634 $484 F #
attrib_hh_edge_geombuild-attrib_entity_geombuild-individual_entity_attribute-attrib_HH-attrib $-1 $-1 $638 $487 F #
attrib_hh_edge_geombuild-attrib_entity_geombuild-individual_entity_attribute-attrib_HH-attrib $-1 $-1 $641 $370 F #
attrib_hh_edge_geombuild-attrib_entity_geombuild-individual_entity_attribute-attrib_HH-attrib $-1 $-1 $642 $372 F #
attrib_hh_edge_geombuild-attrib_entity_geombuild-individual_entity_attribute-attrib_HH-attrib $-1 $-1 $644 $395 F #
attrib_hh_edge_geombuild-attrib_entity_geombuild-individual_entity_attribute-attrib_HH-attrib $-1 $-1 $647 $608 F #
attrib_hh_edge_geombuild-attrib_entity_geombuild-individual_entity_attribute-attrib_HH-attrib $-1 $-1 $652 $533 F #
convexity-sys-attrib $-1 $673 $657 $547 #
convexity-sys-attrib $-1 $674 $658 $626 #
attrib_hh_edge_geombuild-attrib_entity_geombuild-individual_entity_attribute-attrib_HH-attrib $-1 $-1 $660 $428 F #
attrib_hh_edge_geombuild-attrib_entity_geombuild-individual_entity_attribute-attrib_HH-attrib $-1 $-1 $661 $556 F #
attrib_hh_edge_geombuild-attrib_entity_geombuild-individual_entity_attribute-attrib_HH-attrib $-1 $-1 $669 $547 F #
attrib_hh_edge_geombuild-attrib_entity_geombuild-individual_entity_attribute-attrib_HH-attrib $-1 $-1 $670 $626 F #
End-of-ACIS-data 