600 0 1 0           
95 GICL ACIS Healer - Source: /gicl/data5/repository/UMD/mrsev_edge-flat/mrsev_edge-flat.sat - 6 0 18 ACIS 6.0.3 Solaris 24 Sun Apr 14 00:35:24 2002 
1 9.999999999999999547e-07 1.000000000000000036e-10 
body $-1 $1 $-1 $-1 #
lump $-1 $-1 $2 $0 #
shell $-1 $-1 $-1 $3 $-1 $1 #
face $-1 $4 $5 $2 $-1 $6 reversed single #
face $-1 $7 $8 $2 $-1 $9 reversed single #
loop $-1 $-1 $10 $3 #
plane-surface $-1 0 50 0 0 -1 0 0 0 -1 forward_v I I I I #
face $-1 $11 $12 $2 $-1 $13 reversed single #
loop $-1 $-1 $14 $4 #
plane-surface $-1 50 0 0 -1 0 0 0 -0 1 forward_v I I I I #
coedge $-1 $15 $16 $17 $18 reversed $5 $-1 #
face $-1 $19 $20 $2 $-1 $21 forward single #
loop $-1 $-1 $22 $7 #
cone-surface $-1 50 20 25 -0 -0 -1 -5 0 0 1 I I -0.7071067811865470176 0.7071067811865470176 5 forward I I I I #
coedge $-1 $23 $24 $25 $26 reversed $8 $-1 #
coedge $-1 $27 $10 $24 $28 forward $5 $-1 #
coedge $-1 $10 $29 $30 $31 reversed $5 $-1 #
coedge $-1 $32 $25 $10 $18 forward $33 $-1 #
edge $-1 $34 -50 $35 37.92893218813450318 $10 $36 forward 7 unknown #
face $-1 $37 $38 $2 $-1 $39 reversed single #
loop $-1 $-1 $40 $11 #
cone-surface $-1 45.14297739604479887 -45.14297739604479887 17.78595479208970076 0.5773502691896258421 -0.5773502691896258421 -0.5773502691896258421 2.041241452319320082 -2.041241452319320082 4.082482904638630394 1 I I 0 1 5.000000000000004441 forward I I I I #
coedge $-1 $41 $42 $43 $44 reversed $12 $-1 #
coedge $-1 $45 $14 $42 $46 forward $8 $-1 #
coedge $-1 $14 $47 $15 $28 reversed $8 $-1 #
coedge $-1 $17 $43 $14 $26 forward $33 $-1 #
edge $-1 $48 25 $34 50 $14 $49 forward 7 unknown #
coedge $-1 $29 $15 $50 $51 reversed $5 $-1 #
edge $-1 $34 -25 $52 25 $24 $53 forward 7 unknown #
coedge $-1 $16 $27 $54 $55 reversed $5 $-1 #
coedge $-1 $56 $57 $16 $31 forward $58 $-1 #
edge $-1 $35 0.3033008588990934729 $59 17.37436867076459279 $16 $60 forward 7 unknown #
coedge $-1 $61 $17 $57 $62 forward $33 $-1 #
loop $-1 $-1 $17 $63 #
vertex $-1 $26 $64 #
vertex $-1 $18 $65 #
straight-curve $-1 0 50 25 -1 0 0 I I #
face $-1 $66 $67 $2 $-1 $68 forward single #
loop $-1 $-1 $69 $19 #
plane-surface $-1 0 -50 0 0 1 -0 -0 0 1 forward_v I I I I #
coedge $-1 $70 $71 $72 $73 forward $20 $-1 #
coedge $-1 $42 $22 $74 $75 reversed $12 $-1 #
coedge $-1 $22 $41 $23 $46 reversed $12 $-1 #
coedge $-1 $25 $76 $22 $44 forward $33 $-1 #
edge $-1 $77 0 $48 1.570796326794896558 $22 $78 forward 7 unknown #
coedge $-1 $79 $23 $80 $81 forward $8 $-1 #
edge $-1 $48 -0 $82 7.071067811865480834 $23 $83 reversed 7 unknown #
coedge $-1 $24 $84 $85 $86 reversed $8 $-1 #
vertex $-1 $46 $87 #
straight-curve $-1 50 0 25 0 1 -0 I I #
coedge $-1 $85 $88 $27 $51 forward $89 $-1 #
edge $-1 $90 -50 $52 50 $27 $91 forward 7 unknown #
vertex $-1 $86 $92 #
straight-curve $-1 50 50 0 0 0 -1 I I #
coedge $-1 $93 $94 $29 $55 forward $95 $-1 #
edge $-1 $59 -12.92893218813449963 $90 25 $29 $96 forward 7 unknown #
coedge $-1 $97 $30 $94 $98 reversed $58 $-1 #
coedge $-1 $30 $97 $32 $62 reversed $58 $-1 #
loop $-1 $-1 $97 $99 #
vertex $-1 $98 $100 #
straight-curve $-1 -37.71446609406729777 50 25.21446609406730133 -0.7071067811865480168 -0 -0.7071067811865480168 I I #
coedge $-1 $101 $32 $102 $103 forward $33 $-1 #
edge $-1 $35 -1.570796326794896558 $104 -0 $32 $105 reversed 7 unknown #
face $-1 $99 $33 $2 $-1 $106 forward single #
point $-1 50 50 25 #
point $-1 -37.92893218813450318 50 25 #
face $-1 $63 $107 $2 $-1 $108 forward single #
loop $-1 $-1 $109 $37 #
plane-surface $-1 0 -47.5 22.5 0 -0.7071067811865475727 0.7071067811865475727 1 0 -0 forward_v I I I I #
coedge $-1 $110 $111 $112 $113 forward $38 $-1 #
coedge $-1 $114 $40 $115 $116 reversed $20 $-1 #
coedge $-1 $40 $112 $79 $117 reversed $20 $-1 #
coedge $-1 $80 $118 $40 $73 reversed $107 $-1 #
edge $-1 $119 -30.43471118959714872 $120 -21.77445715175276675 $72 $121 forward 7 unknown #
coedge $-1 $118 $80 $41 $75 forward $107 $-1 #
edge $-1 $82 -7.071067811865480834 $77 0 $74 $122 forward 7 unknown #
coedge $-1 $43 $115 $118 $123 forward $33 $-1 #
vertex $-1 $75 $124 #
ellipse-curve $-1 50 20 25 -0 -0 -1 -5 0 0 1 I I #
coedge $-1 $84 $45 $71 $117 forward $8 $-1 #
coedge $-1 $74 $72 $45 $81 reversed $107 $-1 #
edge $-1 $82 -20 $119 46.46446609406729777 $45 $125 reversed 7 unknown #
vertex $-1 $81 $126 #
straight-curve $-1 50 25 25 0 0.7071067811865470176 0.7071067811865470176 I I #
coedge $-1 $47 $79 $111 $127 reversed $8 $-1 #
coedge $-1 $128 $50 $47 $86 forward $89 $-1 #
edge $-1 $52 -50 $129 50 $47 $130 forward 7 unknown #
point $-1 50 25 25 #
coedge $-1 $50 $128 $93 $131 forward $89 $-1 #
loop $-1 $-1 $85 $132 #
vertex $-1 $51 $133 #
straight-curve $-1 0 50 -25 1 0 0 I I #
point $-1 50 50 -25 #
coedge $-1 $134 $54 $88 $131 reversed $95 $-1 #
coedge $-1 $54 $135 $56 $98 forward $95 $-1 #
loop $-1 $-1 $94 $136 #
straight-curve $-1 -50 50 0 0 0 -1 I I #
coedge $-1 $57 $56 $137 $138 forward $58 $-1 #
edge $-1 $139 -0 $59 1.570796326794896558 $94 $140 reversed 7 unknown #
face $-1 $141 $58 $2 $-1 $142 forward single #
point $-1 -50 50 12.92893218813449963 #
coedge $-1 $143 $61 $144 $145 forward $33 $-1 #
coedge $-1 $137 $146 $61 $103 reversed $147 $-1 #
edge $-1 $104 -45 $148 41.46446609406729777 $61 $149 reversed 7 unknown #
vertex $-1 $103 $150 #
ellipse-curve $-1 -37.92893218813450318 45 25 -0 -0 -1 -7.071067811865479946 0 0 0.7071067811865470176 I I #
plane-surface $-1 0 0 25 0 0 1 1 0 0 forward_v I I I I #
loop $-1 $-1 $74 $66 #
plane-surface $-1 47.5 2.5 22.5 0.7071067811865475727 -0 0.7071067811865475727 0.7071067811865480168 0 -0.7071067811865480168 forward_v I I I I #
coedge $-1 $151 $152 $114 $153 reversed $67 $-1 #
coedge $-1 $154 $69 $152 $155 forward $38 $-1 #
coedge $-1 $69 $156 $84 $127 forward $38 $-1 #
coedge $-1 $71 $114 $69 $113 reversed $20 $-1 #
edge $-1 $157 -1.047197551196597631 $158 -0.5235987755983066982 $69 $159 reversed 7 unknown #
coedge $-1 $112 $70 $109 $153 forward $20 $-1 #
coedge $-1 $76 $143 $70 $116 forward $33 $-1 #
edge $-1 $160 -0.5235987755982911551 $120 0.5235987755982911551 $115 $161 reversed 7 unknown #
edge $-1 $119 0.5235987755983066982 $157 1.047197551196597631 $79 $162 reversed 7 unknown #
coedge $-1 $72 $74 $76 $123 reversed $107 $-1 #
vertex $-1 $73 $163 #
vertex $-1 $123 $164 #
straight-curve $-1 32.42851130197760057 -28.89297739604479887 37.57148869802239943 -0.5773502691896259531 0.5773502691896259531 0.5773502691896259531 I I #
straight-curve $-1 45 20 25 -0.7071067811865470176 0 0.7071067811865470176 I I #
edge $-1 $120 -41.46446609406729777 $77 20 $76 $165 reversed 7 unknown #
point $-1 45 20 25 #
straight-curve $-1 50 0 20 0 1 0 I I #
point $-1 50 20 20 #
edge $-1 $129 -25 $157 19.05265654509249984 $84 $166 reversed 7 unknown #
coedge $-1 $88 $85 $156 $167 forward $89 $-1 #
vertex $-1 $127 $168 #
straight-curve $-1 50 0 -25 0 -1 0 I I #
edge $-1 $169 -50 $90 50 $93 $170 forward 7 unknown #
face $-1 $-1 $89 $2 $-1 $171 reversed single #
point $-1 -50 50 -25 #
coedge $-1 $172 $93 $173 $174 reversed $95 $-1 #
coedge $-1 $94 $172 $175 $176 forward $95 $-1 #
face $-1 $177 $95 $2 $-1 $178 reversed single #
coedge $-1 $175 $102 $97 $138 reversed $147 $-1 #
edge $-1 $139 -12.37436867076457325 $104 -5.303300858899103076 $137 $179 forward 7 unknown #
vertex $-1 $98 $180 #
ellipse-curve $-1 -50 45 12.92893218813449963 1 0 0 0 0 7.071067811865479946 0.7071067811865470176 I I #
face $-1 $136 $147 $2 $-1 $181 forward single #
cone-surface $-1 -43.96446609406729777 45 18.96446609406730133 -0.7071067811865475727 0 -0.7071067811865475727 -2.5 3.535533905932739973 2.5 1 I I 0 1 5.000000000000001776 forward I I I I #
coedge $-1 $115 $101 $151 $182 forward $33 $-1 #
coedge $-1 $183 $184 $101 $145 reversed $185 $-1 #
edge $-1 $148 -0.5235987755982911551 $186 0.5235987755982911551 $101 $187 reversed 7 unknown #
coedge $-1 $102 $175 $183 $188 reversed $147 $-1 #
loop $-1 $-1 $137 $141 #
vertex $-1 $188 $189 #
straight-curve $-1 -45 0 25 0 1 0 I I #
point $-1 -45 45 25 #
coedge $-1 $190 $109 $143 $182 reversed $67 $-1 #
coedge $-1 $109 $190 $110 $155 reversed $67 $-1 #
edge $-1 $160 21.77445715175276675 $158 30.43471118959714872 $109 $191 forward 7 unknown #
coedge $-1 $173 $110 $192 $193 forward $38 $-1 #
edge $-1 $158 -46.46446609406729777 $194 46.46446609406729777 $110 $195 reversed 7 unknown #
coedge $-1 $111 $173 $128 $167 reversed $38 $-1 #
vertex $-1 $113 $196 #
vertex $-1 $155 $197 #
ellipse-curve $-1 50 -50 12.92893218813449963 0 1 -0 -6.123724356957949588 0 6.123724356957949588 0.5773502691896259531 I I #
vertex $-1 $153 $198 #
ellipse-curve $-1 37.92893218813450318 -37.92893218813450318 25 -0 -0 -1 6.123724356957949588 -6.123724356957949588 0 0.5773502691896259531 I I #
ellipse-curve $-1 50 -50 12.92893218813449963 -1 0 0 0 6.123724356957949588 6.123724356957949588 0.5773502691896259531 I I #
point $-1 50 -46.46446609406729777 20 #
point $-1 45 -41.46446609406729777 25 #
straight-curve $-1 45 0 25 -0 -1 -0 I I #
straight-curve $-1 50 -50 0 0 0 -1 I I #
edge $-1 $129 -50 $169 50 $156 $199 forward 7 unknown #
point $-1 50 -50 -25 #
vertex $-1 $131 $200 #
straight-curve $-1 -50 0 -25 0 1 0 I I #
plane-surface $-1 0 0 -25 0 0 1 1 0 0 forward_v I I I I #
coedge $-1 $135 $134 $201 $202 forward $95 $-1 #
coedge $-1 $156 $154 $134 $174 forward $38 $-1 #
edge $-1 $203 -19.05265654509249984 $169 25 $134 $204 forward 7 unknown #
coedge $-1 $146 $137 $135 $176 reversed $147 $-1 #
edge $-1 $205 -46.46446609406729777 $139 45 $135 $206 reversed 7 unknown #
face $-1 $132 $185 $2 $-1 $207 forward single #
plane-surface $-1 -50 0 0 1 0 0 0 0 -1 forward_v I I I I #
straight-curve $-1 -41.25 45 28.75 0.7071067811865480168 0 0.7071067811865480168 I I #
point $-1 -50 45 20 #
plane-surface $-1 -47.5 2.5 22.5 -0.7071067811865475727 0 0.7071067811865475727 0.7071067811865480168 -0 0.7071067811865480168 forward_v I I I I #
edge $-1 $186 -41.46446609406729777 $160 41.46446609406729777 $143 $208 reversed 7 unknown #
coedge $-1 $201 $144 $146 $188 forward $185 $-1 #
coedge $-1 $144 $192 $190 $209 forward $185 $-1 #
loop $-1 $-1 $183 $177 #
vertex $-1 $182 $210 #
ellipse-curve $-1 -37.92893218813450318 -37.92893218813450318 25 -0 -0 -1 -6.123724356957949588 -6.123724356957949588 0 0.5773502691896259531 I I #
edge $-1 $148 21.77445715175276675 $205 30.43471118959714872 $146 $211 forward 7 unknown #
point $-1 -45 -41.46446609406729777 25 #
coedge $-1 $152 $151 $184 $209 reversed $67 $-1 #
straight-curve $-1 28.89297739604479887 -32.42851130197760057 37.57148869802239943 0.5773502691896259531 -0.5773502691896259531 -0.5773502691896259531 I I #
coedge $-1 $184 $201 $154 $193 reversed $185 $-1 #
edge $-1 $194 0.5235987755983066982 $203 1.047197551196597631 $154 $212 reversed 7 unknown #
vertex $-1 $209 $213 #
straight-curve $-1 0 -50 20 1 0 0 I I #
point $-1 50 -50 19.05265654509249984 #
point $-1 46.46446609406729777 -50 20 #
point $-1 41.46446609406729777 -45 25 #
straight-curve $-1 0 -50 -25 -1 0 0 I I #
point $-1 -50 -50 -25 #
coedge $-1 $192 $183 $172 $202 reversed $185 $-1 #
edge $-1 $203 -1.047197551196597631 $205 -0.5235987755983066982 $172 $214 reversed 7 unknown #
vertex $-1 $202 $215 #
straight-curve $-1 -50 -50 0 0 0 -1 I I #
vertex $-1 $176 $216 #
straight-curve $-1 -50 0 20 0 -1 0 I I #
cone-surface $-1 -45.14297739604479887 -45.14297739604479887 17.78595479208970076 0.5773502691896258421 0.5773502691896258421 0.5773502691896258421 -2.041241452319320082 -2.041241452319320082 4.082482904638630394 1 I I 0 1 5.000000000000004441 forward I I I I #
straight-curve $-1 0 -45 25 -1 -0 -0 I I #
edge $-1 $194 -30.43471118959714872 $186 -21.77445715175276675 $190 $217 forward 7 unknown #
point $-1 -41.46446609406729777 -45 25 #
straight-curve $-1 -32.42851130197760057 -28.89297739604479887 37.57148869802239943 -0.5773502691896259531 -0.5773502691896259531 -0.5773502691896259531 I I #
ellipse-curve $-1 -50 -50 12.92893218813449963 0 1 -0 6.123724356957949588 0 6.123724356957949588 0.5773502691896259531 I I #
point $-1 -46.46446609406729777 -50 20 #
ellipse-curve $-1 -50 -50 12.92893218813449963 1 0 0 0 6.123724356957949588 6.123724356957949588 0.5773502691896259531 I I #
point $-1 -50 -50 19.05265654509249984 #
point $-1 -50 -46.46446609406729777 20 #
straight-curve $-1 -28.89297739604479887 -32.42851130197760057 37.57148869802239943 0.5773502691896259531 0.5773502691896259531 0.5773502691896259531 I I #
End-of-ACIS-data 