105 218 1 0                             
body $-1 $1 $-1 $-1 #
lump $-1 $-1 $2 $0 #
shell $-1 $-1 $-1 $3 $1 #
face $-1 $4 $5 $2 $-1 $6 reversed single #
face $-1 $7 $8 $2 $-1 $9 reversed single #
loop $-1 $-1 $10 $3 #
plane-surface $-1 0 50 0 0 -1 0 0 0 -1 0 #
face $-1 $11 $12 $2 $-1 $13 reversed single #
loop $-1 $-1 $14 $4 #
plane-surface $-1 50 0 0 -1 0 0 0 -0 1 0 #
coedge $-1 $15 $16 $17 $18 1 $5 $-1 #
face $-1 $19 $20 $2 $-1 $21 forward single #
loop $-1 $-1 $22 $7 #
cone-surface $-1 50 20 25 -0 -0 -1 -5 0 0 1 -0.707106781186547 0.707106781186547 0 #
coedge $-1 $23 $24 $25 $26 1 $8 $-1 #
coedge $-1 $27 $10 $24 $28 0 $5 $-1 #
coedge $-1 $10 $29 $30 $31 1 $5 $-1 #
coedge $-1 $32 $25 $10 $18 0 $33 $-1 #
edge $-1 $34 $35 $10 $36 0 #
face $-1 $37 $38 $2 $-1 $39 reversed single #
loop $-1 $-1 $40 $11 #
cone-surface $-1 45.1429773960448 -45.1429773960448 17.7859547920897 0.577350269189626 -0.577350269189626 -0.577350269189626 2.04124145231932 -2.04124145231932 4.08248290463863 1 0 1 0 #
coedge $-1 $41 $42 $43 $44 1 $12 $-1 #
coedge $-1 $45 $14 $42 $46 0 $8 $-1 #
coedge $-1 $14 $47 $15 $28 1 $8 $-1 #
coedge $-1 $17 $43 $14 $26 0 $33 $-1 #
edge $-1 $48 $34 $14 $49 0 #
coedge $-1 $29 $15 $50 $51 1 $5 $-1 #
edge $-1 $34 $52 $24 $53 0 #
coedge $-1 $16 $27 $54 $55 1 $5 $-1 #
coedge $-1 $56 $57 $16 $31 0 $58 $-1 #
edge $-1 $35 $59 $16 $60 0 #
coedge $-1 $61 $17 $57 $62 0 $33 $-1 #
loop $-1 $-1 $17 $63 #
vertex $-1 $26 $64 #
vertex $-1 $18 $65 #
straight-curve $-1 0 50 25 -1 0 0 #
face $-1 $66 $67 $2 $-1 $68 forward single #
loop $-1 $-1 $69 $19 #
plane-surface $-1 0 -50 0 0 1 -0 -0 0 1 0 #
coedge $-1 $70 $71 $72 $73 0 $20 $-1 #
coedge $-1 $42 $22 $74 $75 1 $12 $-1 #
coedge $-1 $22 $41 $23 $46 1 $12 $-1 #
coedge $-1 $25 $76 $22 $44 0 $33 $-1 #
edge $-1 $77 $48 $22 $78 0 #
coedge $-1 $79 $23 $80 $81 0 $8 $-1 #
edge $-1 $48 $82 $23 $83 1 #
coedge $-1 $24 $84 $85 $86 1 $8 $-1 #
vertex $-1 $46 $87 #
straight-curve $-1 50 0 25 0 1 -0 #
coedge $-1 $85 $88 $27 $51 0 $89 $-1 #
edge $-1 $90 $52 $27 $91 0 #
vertex $-1 $86 $92 #
straight-curve $-1 50 50 0 0 0 -1 #
coedge $-1 $93 $94 $29 $55 0 $95 $-1 #
edge $-1 $59 $90 $29 $96 0 #
coedge $-1 $97 $30 $94 $98 1 $58 $-1 #
coedge $-1 $30 $97 $32 $62 1 $58 $-1 #
loop $-1 $-1 $97 $99 #
vertex $-1 $98 $100 #
straight-curve $-1 -37.7144660940673 50 25.2144660940673 -0.707106781186548 -0 -0.707106781186548 #
coedge $-1 $101 $32 $102 $103 0 $33 $-1 #
edge $-1 $35 $104 $32 $105 1 #
face $-1 $99 $33 $2 $-1 $106 forward single #
point $-1 50 50 25 #
point $-1 -37.9289321881345 50 25 #
face $-1 $63 $107 $2 $-1 $108 forward single #
loop $-1 $-1 $109 $37 #
plane-surface $-1 0 -47.5 22.5 0 -0.707106781186547 0.707106781186547 1 0 -0 0 #
coedge $-1 $110 $111 $112 $113 0 $38 $-1 #
coedge $-1 $114 $40 $115 $116 1 $20 $-1 #
coedge $-1 $40 $112 $79 $117 1 $20 $-1 #
coedge $-1 $80 $118 $40 $73 1 $107 $-1 #
edge $-1 $119 $120 $72 $121 0 #
coedge $-1 $118 $80 $41 $75 0 $107 $-1 #
edge $-1 $82 $77 $74 $122 0 #
coedge $-1 $43 $115 $118 $123 0 $33 $-1 #
vertex $-1 $75 $124 #
ellipse-curve $-1 50 20 25 -0 -0 -1 -5 0 0 1 #
coedge $-1 $84 $45 $71 $117 0 $8 $-1 #
coedge $-1 $74 $72 $45 $81 1 $107 $-1 #
edge $-1 $82 $119 $45 $125 1 #
vertex $-1 $81 $126 #
straight-curve $-1 50 25 25 0 0.707106781186547 0.707106781186547 #
coedge $-1 $47 $79 $111 $127 1 $8 $-1 #
coedge $-1 $128 $50 $47 $86 0 $89 $-1 #
edge $-1 $52 $129 $47 $130 0 #
point $-1 50 25 25 #
coedge $-1 $50 $128 $93 $131 0 $89 $-1 #
loop $-1 $-1 $85 $132 #
vertex $-1 $51 $133 #
straight-curve $-1 0 50 -25 1 0 0 #
point $-1 50 50 -25 #
coedge $-1 $134 $54 $88 $131 1 $95 $-1 #
coedge $-1 $54 $135 $56 $98 0 $95 $-1 #
loop $-1 $-1 $94 $136 #
straight-curve $-1 -50 50 0 0 0 -1 #
coedge $-1 $57 $56 $137 $138 0 $58 $-1 #
edge $-1 $139 $59 $94 $140 1 #
face $-1 $141 $58 $2 $-1 $142 forward single #
point $-1 -50 50 12.9289321881345 #
coedge $-1 $143 $61 $144 $145 0 $33 $-1 #
coedge $-1 $137 $146 $61 $103 1 $147 $-1 #
edge $-1 $104 $148 $61 $149 1 #
vertex $-1 $103 $150 #
ellipse-curve $-1 -37.9289321881345 45 25 -0 -0 -1 -7.07106781186548 0 0 0.707106781186547 #
plane-surface $-1 0 0 25 0 0 1 1 0 0 0 #
loop $-1 $-1 $74 $66 #
plane-surface $-1 47.5 2.5 22.5 0.707106781186547 -0 0.707106781186547 0.707106781186548 0 -0.707106781186548 0 #
coedge $-1 $151 $152 $114 $153 1 $67 $-1 #
coedge $-1 $154 $69 $152 $155 0 $38 $-1 #
coedge $-1 $69 $156 $84 $127 0 $38 $-1 #
coedge $-1 $71 $114 $69 $113 1 $20 $-1 #
edge $-1 $157 $158 $69 $159 1 #
coedge $-1 $112 $70 $109 $153 0 $20 $-1 #
coedge $-1 $76 $143 $70 $116 0 $33 $-1 #
edge $-1 $160 $120 $115 $161 1 #
edge $-1 $119 $157 $79 $162 1 #
coedge $-1 $72 $74 $76 $123 1 $107 $-1 #
vertex $-1 $73 $163 #
vertex $-1 $123 $164 #
straight-curve $-1 32.4285113019776 -28.8929773960448 37.5714886980224 -0.577350269189626 0.577350269189626 0.577350269189626 #
straight-curve $-1 45 20 25 -0.707106781186547 0 0.707106781186547 #
edge $-1 $120 $77 $76 $165 1 #
point $-1 45 20 25 #
straight-curve $-1 50 0 20 0 1 0 #
point $-1 50 20 20 #
edge $-1 $129 $157 $84 $166 1 #
coedge $-1 $88 $85 $156 $167 0 $89 $-1 #
vertex $-1 $127 $168 #
straight-curve $-1 50 0 -25 0 -1 0 #
edge $-1 $169 $90 $93 $170 0 #
face $-1 $-1 $89 $2 $-1 $171 reversed single #
point $-1 -50 50 -25 #
coedge $-1 $172 $93 $173 $174 1 $95 $-1 #
coedge $-1 $94 $172 $175 $176 0 $95 $-1 #
face $-1 $177 $95 $2 $-1 $178 reversed single #
coedge $-1 $175 $102 $97 $138 1 $147 $-1 #
edge $-1 $139 $104 $137 $179 0 #
vertex $-1 $98 $180 #
ellipse-curve $-1 -50 45 12.9289321881345 1 0 0 0 0 7.07106781186548 0.707106781186547 #
face $-1 $136 $147 $2 $-1 $181 forward single #
cone-surface $-1 -43.9644660940673 45 18.9644660940673 -0.707106781186548 0 -0.707106781186548 -2.5 3.53553390593274 2.5 1 0 1 0 #
coedge $-1 $115 $101 $151 $182 0 $33 $-1 #
coedge $-1 $183 $184 $101 $145 1 $185 $-1 #
edge $-1 $148 $186 $101 $187 1 #
coedge $-1 $102 $175 $183 $188 1 $147 $-1 #
loop $-1 $-1 $137 $141 #
vertex $-1 $188 $189 #
straight-curve $-1 -45 0 25 0 1 0 #
point $-1 -45 45 25 #
coedge $-1 $190 $109 $143 $182 1 $67 $-1 #
coedge $-1 $109 $190 $110 $155 1 $67 $-1 #
edge $-1 $160 $158 $109 $191 0 #
coedge $-1 $173 $110 $192 $193 0 $38 $-1 #
edge $-1 $158 $194 $110 $195 1 #
coedge $-1 $111 $173 $128 $167 1 $38 $-1 #
vertex $-1 $113 $196 #
vertex $-1 $155 $197 #
ellipse-curve $-1 50 -50 12.9289321881345 0 1 -0 -6.12372435695795 0 6.12372435695795 0.577350269189626 #
vertex $-1 $153 $198 #
ellipse-curve $-1 37.9289321881345 -37.9289321881345 25 -0 -0 -1 6.12372435695795 -6.12372435695795 0 0.577350269189626 #
ellipse-curve $-1 50 -50 12.9289321881345 -1 0 0 0 6.12372435695795 6.12372435695795 0.577350269189626 #
point $-1 50 -46.4644660940673 20 #
point $-1 45 -41.4644660940673 25 #
straight-curve $-1 45 0 25 -0 -1 -0 #
straight-curve $-1 50 -50 0 0 0 -1 #
edge $-1 $129 $169 $156 $199 0 #
point $-1 50 -50 -25 #
vertex $-1 $131 $200 #
straight-curve $-1 -50 0 -25 0 1 0 #
plane-surface $-1 0 0 -25 0 0 1 1 0 0 0 #
coedge $-1 $135 $134 $201 $202 0 $95 $-1 #
coedge $-1 $156 $154 $134 $174 0 $38 $-1 #
edge $-1 $203 $169 $134 $204 0 #
coedge $-1 $146 $137 $135 $176 1 $147 $-1 #
edge $-1 $205 $139 $135 $206 1 #
face $-1 $132 $185 $2 $-1 $207 forward single #
plane-surface $-1 -50 0 0 1 0 0 0 0 -1 0 #
straight-curve $-1 -41.25 45 28.75 0.707106781186548 0 0.707106781186548 #
point $-1 -50 45 20 #
plane-surface $-1 -47.5 2.5 22.5 -0.707106781186547 0 0.707106781186547 0.707106781186548 -0 0.707106781186548 0 #
edge $-1 $186 $160 $143 $208 1 #
coedge $-1 $201 $144 $146 $188 0 $185 $-1 #
coedge $-1 $144 $192 $190 $209 0 $185 $-1 #
loop $-1 $-1 $183 $177 #
vertex $-1 $182 $210 #
ellipse-curve $-1 -37.9289321881345 -37.9289321881345 25 -0 -0 -1 -6.12372435695795 -6.12372435695795 0 0.577350269189626 #
edge $-1 $148 $205 $146 $211 0 #
point $-1 -45 -41.4644660940673 25 #
coedge $-1 $152 $151 $184 $209 1 $67 $-1 #
straight-curve $-1 28.8929773960448 -32.4285113019776 37.5714886980224 0.577350269189626 -0.577350269189626 -0.577350269189626 #
coedge $-1 $184 $201 $154 $193 1 $185 $-1 #
edge $-1 $194 $203 $154 $212 1 #
vertex $-1 $209 $213 #
straight-curve $-1 0 -50 20 1 0 0 #
point $-1 50 -50 19.0526565450925 #
point $-1 46.4644660940673 -50 20 #
point $-1 41.4644660940673 -45 25 #
straight-curve $-1 0 -50 -25 -1 0 0 #
point $-1 -50 -50 -25 #
coedge $-1 $192 $183 $172 $202 1 $185 $-1 #
edge $-1 $203 $205 $172 $214 1 #
vertex $-1 $202 $215 #
straight-curve $-1 -50 -50 0 0 0 -1 #
vertex $-1 $176 $216 #
straight-curve $-1 -50 0 20 0 -1 0 #
cone-surface $-1 -45.1429773960448 -45.1429773960448 17.7859547920897 0.577350269189626 0.577350269189626 0.577350269189626 -2.04124145231932 -2.04124145231932 4.08248290463863 1 0 1 0 #
straight-curve $-1 0 -45 25 -1 -0 -0 #
edge $-1 $194 $186 $190 $217 0 #
point $-1 -41.4644660940673 -45 25 #
straight-curve $-1 -32.4285113019776 -28.8929773960448 37.5714886980224 -0.577350269189626 -0.577350269189626 -0.577350269189626 #
ellipse-curve $-1 -50 -50 12.9289321881345 0 1 -0 6.12372435695795 0 6.12372435695795 0.577350269189626 #
point $-1 -46.4644660940673 -50 20 #
ellipse-curve $-1 -50 -50 12.9289321881345 1 0 0 0 6.12372435695795 6.12372435695795 0.577350269189626 #
point $-1 -50 -50 19.0526565450925 #
point $-1 -50 -46.4644660940673 20 #
straight-curve $-1 -28.8929773960448 -32.4285113019776 37.5714886980224 0.577350269189626 0.577350269189626 0.577350269189626 #
