600 0 2 0           
24 FBMach with ACIS - 6.0.3 13 ACIS 6.0.3 NT 24 Tue May 22 12:36:31 2001 
1 9.9999999999999995e-007 1e-010 
body $2 $3 $-1 $4 #
bdycol-kcp $-1 1 3 $5 $6 $7 #
model_id-kcp-attrib $-1 $-1 $-1 $0 1 990549390 50 1613889537 1 #
lump $-1 $-1 $8 $0 #
transform $-1 1 0 0 0 1.0000000000000002 0 0 0 1 7.1054273576010019e-015 7.1054273576010019e-015 -7.1054273576010019e-015 1 rotate no_reflect no_shear #
body $9 $10 $-1 $11 #
body $12 $13 $-1 $14 #
body $15 $16 $-1 $17 #
shell $-1 $-1 $-1 $18 $-1 $3 #
model_id-kcp-attrib $-1 $-1 $-1 $5 1 990549390 50 1613889538 1 #
lump $-1 $-1 $19 $5 #
transform $-1 1 0 0 0 1 0 0 0 1 -7.1054273576010019e-015 -2.1316282072803006e-014 2.3092638912203256e-014 1 no_rotate no_reflect no_shear #
rgb_color-st-attrib $-1 $20 $-1 $6 0.5 1 1 #
lump $-1 $-1 $21 $6 #
transform $-1 1 0 0 0 1 0 0 0 1 -7.1054273576010019e-015 -2.1316282072803006e-014 2.3092638912203256e-014 1 no_rotate no_reflect no_shear #
rgb_color-st-attrib $-1 $22 $-1 $7 0.5 0.5 1 #
lump $-1 $-1 $23 $7 #
transform $-1 1 0 0 0 1 0 0 0 1 -7.1054273576010019e-015 -2.1316282072803006e-014 2.3092638912203256e-014 1 no_rotate no_reflect no_shear #
face $24 $25 $26 $8 $-1 $27 reversed single #
shell $-1 $-1 $-1 $28 $-1 $10 #
model_id-kcp-attrib $-1 $-1 $12 $6 1 990549390 280 1612185603 1 #
shell $-1 $-1 $-1 $29 $-1 $13 #
model_id-kcp-attrib $-1 $-1 $15 $7 1 990549390 330 1615462404 1 #
shell $-1 $-1 $-1 $30 $-1 $16 #
model_id-kcp-attrib $-1 $31 $-1 $18 1 990549390 50 1613889537 15 #
face $32 $33 $34 $8 $-1 $35 reversed single #
loop $-1 $-1 $36 $18 #
plane-surface $-1 0 50 0 0 -1 0 0 0 -1 forward_v I I I I #
face $37 $38 $39 $19 $-1 $40 forward single #
face $-1 $41 $42 $21 $-1 $43 reversed single #
face $-1 $44 $45 $23 $-1 $46 reversed single #
model_id-kcp-attrib $-1 $-1 $24 $18 1 990549390 50 1613889537 2 #
model_id-kcp-attrib $-1 $-1 $-1 $25 1 990549390 50 1613889537 3 #
face $47 $48 $49 $8 $-1 $50 reversed single #
loop $-1 $-1 $51 $25 #
plane-surface $-1 50 0 0 -1 0 0 0 0 1 forward_v I I I I #
coedge $-1 $52 $53 $54 $55 reversed $26 $-1 #
model_id-kcp-attrib $-1 $-1 $-1 $28 1 990549390 50 1613889538 5 #
face $56 $57 $58 $19 $-1 $59 reversed single #
loop $-1 $-1 $60 $28 #
plane-surface $-1 0 0 25.000000000000021 0 0 1 1 0 0 forward_v I I I I #
face $-1 $61 $62 $21 $-1 $63 forward single #
loop $-1 $-1 $64 $29 #
plane-surface $-1 -44.999999999999979 50.000000000000021 24.999999999999979 -0.70710678118654757 0 0.70710678118654757 0 -1 0 forward_v I I I I #
face $-1 $65 $66 $23 $-1 $67 forward single #
loop $-1 $-1 $68 $30 #
plane-surface $-1 7.1054273576010019e-015 -47.5 22.499999999999943 0 -0.70710678118654757 0.70710678118654757 1 0 0 forward_v I I I I #
model_id-kcp-attrib $-1 $-1 $-1 $33 1 990549390 50 1613889537 4 #
face $69 $70 $71 $8 $-1 $72 forward single #
loop $-1 $-1 $73 $33 #
cone-surface $-1 50 20 25 0 0 -1 -5 0 0 1 I I -0.70710678118654702 0.70710678118654702 5 forward I I I I #
coedge $-1 $74 $75 $76 $77 reversed $34 $-1 #
coedge $-1 $78 $36 $75 $79 forward $26 $-1 #
coedge $-1 $36 $80 $81 $82 reversed $26 $-1 #
coedge $-1 $83 $76 $36 $55 forward $84 $-1 #
edge $85 $86 -50 $87 37.928932188134503 $36 $88 forward 7 unknown #
model_id-kcp-attrib $-1 $-1 $-1 $38 1 990549390 50 1613889538 7 #
face $89 $90 $91 $19 $-1 $92 reversed single #
loop $-1 $-1 $93 $38 #
plane-surface $-1 0 0 -25.000000000000021 0 0 1 1 0 0 forward_v I I I I #
coedge $-1 $94 $95 $96 $97 forward $39 $-1 #
face $-1 $98 $99 $21 $-1 $100 reversed single #
loop $-1 $-1 $101 $41 #
plane-surface $-1 0 0 25.000000000000021 0 0 1 1 0 0 forward_v I I I I #
coedge $-1 $102 $103 $104 $105 reversed $42 $-1 #
face $-1 $106 $107 $23 $-1 $108 forward single #
loop $-1 $-1 $109 $44 #
plane-surface $-1 0 0 25.000000000000021 0 0 1 1 0 0 forward_v I I I I #
coedge $-1 $110 $111 $112 $113 forward $45 $-1 #
model_id-kcp-attrib $-1 $-1 $-1 $48 1 990549390 50 1613889537 5 #
face $114 $115 $116 $8 $-1 $117 reversed single #
loop $-1 $-1 $118 $48 #
cone-surface $-1 45.142977396044799 -45.142977396044799 17.785954792089701 0.57735026918962584 -0.57735026918962584 -0.57735026918962584 2.0412414523193201 -2.0412414523193201 4.0824829046386304 1 I I 0 1 5.0000000000000044 forward I I I I #
coedge $-1 $119 $120 $121 $122 reversed $49 $-1 #
coedge $-1 $123 $51 $120 $124 forward $34 $-1 #
coedge $-1 $51 $125 $52 $79 reversed $34 $-1 #
coedge $-1 $54 $121 $51 $77 forward $84 $-1 #
edge $126 $127 25 $86 50 $51 $128 forward 7 unknown #
coedge $-1 $80 $52 $129 $130 reversed $26 $-1 #
edge $131 $86 -25 $132 25 $75 $133 forward 7 unknown #
coedge $-1 $53 $78 $134 $135 reversed $26 $-1 #
coedge $-1 $136 $137 $53 $82 forward $138 $-1 #
edge $139 $87 0.30330085889909347 $140 17.374368670764593 $53 $141 forward 7 unknown #
coedge $-1 $142 $54 $137 $143 forward $84 $-1 #
loop $-1 $-1 $54 $144 #
attrib_edge_convexity-kcp-attrib $-1 $145 $-1 $55 1 #
vertex $-1 $77 $146 #
vertex $-1 $55 $147 #
straight-curve $-1 0 50 25 -1 0 0 I I #
model_id-kcp-attrib $-1 $-1 $-1 $57 1 990549390 50 1613889538 4 #
face $148 $149 $150 $19 $-1 $151 reversed single #
loop $-1 $-1 $152 $57 #
plane-surface $-1 0 -50.000000000000021 0 0 1 0 0 0 1 forward_v I I I I #
coedge $-1 $153 $154 $155 $156 forward $58 $-1 #
coedge $-1 $157 $60 $158 $159 forward $39 $-1 #
coedge $-1 $60 $157 $160 $161 forward $39 $-1 #
coedge $-1 $162 $163 $60 $97 reversed $164 $-1 #
edge $-1 $165 -50.000000000000021 $166 50.000000000000021 $96 $167 forward 7 unknown #
face $-1 $168 $169 $21 $-1 $170 reversed single #
loop $-1 $-1 $171 $61 #
plane-surface $-1 0 50.000000000000021 0 0 -1 0 0 0 -1 forward_v I I I I #
coedge $-1 $172 $173 $103 $174 forward $62 $-1 #
coedge $-1 $175 $64 $176 $177 reversed $42 $-1 #
coedge $-1 $64 $175 $101 $174 reversed $42 $-1 #
coedge $-1 $178 $179 $64 $105 forward $169 $-1 #
edge $-1 $180 -14.142135623731015 $181 -7.0710678118654737 $104 $182 forward 7 unknown #
face $-1 $183 $184 $23 $-1 $185 reversed single #
loop $-1 $-1 $112 $65 #
plane-surface $-1 -44.999999999999979 50.000000000000021 24.999999999999979 -0.70710678118654757 0 0.70710678118654757 0 -1 0 forward_v I I I I #
coedge $-1 $186 $187 $110 $188 reversed $66 $-1 #
coedge $-1 $189 $68 $109 $188 forward $45 $-1 #
coedge $-1 $68 $189 $190 $191 forward $45 $-1 #
coedge $-1 $192 $193 $68 $113 reversed $107 $-1 #
edge $194 $195 -47.631397208144179 $196 -38.971143170299641 $112 $197 forward 7 unknown #
model_id-kcp-attrib $-1 $-1 $-1 $70 1 990549390 50 1613889537 6 #
face $198 $199 $200 $8 $-1 $201 forward single #
loop $-1 $-1 $202 $70 #
plane-surface $-1 0 -50 0 0 1 0 0 0 1 forward_v I I I I #
coedge $-1 $203 $204 $205 $206 forward $71 $-1 #
coedge $-1 $120 $73 $207 $208 reversed $49 $-1 #
coedge $-1 $73 $119 $74 $124 reversed $49 $-1 #
coedge $-1 $76 $209 $73 $122 forward $84 $-1 #
edge $210 $211 0 $127 1.5707963267948966 $73 $212 forward 7 unknown #
coedge $-1 $213 $74 $214 $215 forward $34 $-1 #
edge $216 $127 0 $217 7.0710678118654808 $74 $218 reversed 7 unknown #
coedge $-1 $75 $219 $220 $221 reversed $34 $-1 #
attrib_edge_convexity-kcp-attrib $-1 $222 $-1 $77 1 #
vertex $-1 $124 $223 #
straight-curve $-1 50 0 25 0 1 0 I I #
coedge $-1 $220 $224 $78 $130 forward $225 $-1 #
edge $226 $227 -50 $132 50 $78 $228 forward 7 unknown #
attrib_edge_convexity-kcp-attrib $-1 $229 $-1 $79 1 #
vertex $-1 $221 $230 #
straight-curve $-1 50 50 0 0 0 -1 I I #
coedge $-1 $231 $232 $80 $135 forward $233 $-1 #
edge $234 $140 -12.9289321881345 $227 25 $80 $235 forward 7 unknown #
coedge $-1 $236 $81 $232 $237 reversed $138 $-1 #
coedge $-1 $81 $236 $83 $143 reversed $138 $-1 #
loop $-1 $-1 $236 $238 #
attrib_edge_convexity-kcp-attrib $-1 $239 $-1 $82 3 #
vertex $-1 $237 $240 #
straight-curve $-1 -37.714466094067298 50 25.214466094067301 -0.70710678118654802 0 -0.70710678118654802 I I #
coedge $-1 $241 $83 $242 $243 forward $84 $-1 #
edge $244 $87 -1.5707963267948966 $245 0 $83 $246 reversed 7 unknown #
face $247 $238 $84 $8 $-1 $248 forward single #
convexity-sys-attrib $-1 $-1 $85 $55 #
point $-1 50 50 25 #
point $-1 -37.928932188134503 50 25 #
model_id-kcp-attrib $-1 $-1 $-1 $90 1 990549390 50 1613889538 6 #
face $249 $250 $251 $19 $-1 $252 reversed single #
loop $-1 $-1 $253 $90 #
plane-surface $-1 -50.000000000000043 0 0 1 0 0 0 0 -1 forward_v I I I I #
coedge $-1 $254 $160 $255 $256 forward $91 $-1 #
coedge $-1 $257 $93 $254 $258 forward $58 $-1 #
coedge $-1 $93 $257 $259 $260 forward $58 $-1 #
coedge $-1 $163 $162 $93 $156 reversed $164 $-1 #
edge $-1 $261 -50.000000000000021 $262 50.000000000000021 $155 $263 forward 7 unknown #
coedge $-1 $95 $94 $264 $265 forward $39 $-1 #
coedge $-1 $266 $267 $94 $159 reversed $251 $-1 #
edge $-1 $166 -50.000000000000043 $268 50.000000000000043 $158 $269 forward 7 unknown #
coedge $-1 $152 $270 $95 $161 reversed $91 $-1 #
edge $-1 $271 -50.000000000000043 $165 50.000000000000043 $160 $272 forward 7 unknown #
coedge $-1 $155 $96 $270 $273 forward $164 $-1 #
coedge $-1 $96 $155 $266 $274 reversed $164 $-1 #
loop $-1 $-1 $162 $250 #
vertex $-1 $97 $275 #
vertex $-1 $97 $276 #
straight-curve $-1 50.000000000000043 0 25.000000000000021 0 1 0 I I #
face $-1 $-1 $277 $21 $-1 $278 reversed single #
loop $-1 $-1 $104 $98 #
plane-surface $-1 0 -50.000000000000021 0 0 1 0 0 0 1 forward_v I I I I #
coedge $-1 $279 $280 $175 $281 forward $99 $-1 #
coedge $-1 $282 $101 $280 $283 forward $62 $-1 #
coedge $-1 $101 $282 $178 $284 forward $62 $-1 #
edge $-1 $181 -75.000000000000028 $285 25.000000000000011 $101 $286 forward 7 unknown #
coedge $-1 $103 $102 $171 $281 reversed $42 $-1 #
coedge $-1 $287 $288 $102 $177 forward $277 $-1 #
edge $-1 $289 -25.000000000000011 $180 75.000000000000028 $176 $290 forward 7 unknown #
coedge $-1 $179 $104 $173 $284 reversed $169 $-1 #
coedge $-1 $104 $178 $287 $291 forward $169 $-1 #
vertex $-1 $177 $292 #
vertex $-1 $105 $293 #
straight-curve $-1 -39.999999999999986 -50.000000000000014 29.999999999999982 0.70710678118654757 0 0.70710678118654757 I I #
face $-1 $-1 $294 $23 $-1 $295 reversed single #
loop $-1 $-1 $190 $106 #
plane-surface $-1 0 -50.000000000000021 0 0 1 0 0 0 1 forward_v I I I I #
coedge $-1 $296 $109 $193 $297 forward $66 $-1 #
coedge $-1 $109 $296 $298 $299 forward $66 $-1 #
edge $300 $196 -44.999999999999943 $301 50.000000000000043 $109 $302 forward 7 unknown #
coedge $-1 $111 $110 $303 $304 forward $45 $-1 #
coedge $-1 $305 $306 $111 $191 reversed $184 $-1 #
edge $307 $308 -50.000000000000043 $195 50.000000000000043 $190 $309 forward 7 unknown #
coedge $-1 $193 $112 $306 $310 reversed $107 $-1 #
coedge $-1 $112 $192 $186 $297 reversed $107 $-1 #
convexity-sys-attrib $-1 $-1 $-1 $113 #
vertex $-1 $113 $311 #
vertex $-1 $297 $312 #
straight-curve $-1 -22.499999999999989 -22.499999999999993 47.499999999999964 0.57735026918962573 0.57735026918962573 0.57735026918962573 I I #
model_id-kcp-attrib $-1 $-1 $-1 $115 1 990549390 50 1613889537 7 #
face $313 $144 $314 $8 $-1 $315 forward single #
loop $-1 $-1 $316 $115 #
plane-surface $-1 0 -47.5 22.5 0 -0.70710678118654757 0.70710678118654757 1 0 0 forward_v I I I I #
coedge $-1 $317 $318 $319 $320 forward $116 $-1 #
coedge $-1 $321 $118 $322 $323 reversed $71 $-1 #
coedge $-1 $118 $319 $213 $324 reversed $71 $-1 #
coedge $-1 $214 $325 $118 $206 reversed $314 $-1 #
edge $326 $327 -30.434711189597149 $328 -21.774457151752767 $205 $329 forward 7 unknown #
coedge $-1 $325 $214 $119 $208 forward $314 $-1 #
edge $330 $217 -7.0710678118654808 $211 0 $207 $331 forward 7 unknown #
coedge $-1 $121 $322 $325 $332 forward $84 $-1 #
model_id-kcp-attrib $-1 $333 $-1 $122 1 990549390 50 1613889537 21 #
vertex $-1 $208 $334 #
ellipse-curve $-1 50 20 25 0 0 -1 -5 0 0 1 I I #
coedge $-1 $219 $123 $204 $324 forward $34 $-1 #
coedge $-1 $207 $205 $123 $215 reversed $314 $-1 #
edge $335 $217 -20 $327 46.464466094067298 $123 $336 reversed 7 unknown #
model_id-kcp-attrib $-1 $337 $-1 $124 1 990549390 50 1613889537 22 #
vertex $-1 $215 $338 #
straight-curve $-1 50 25 25 0 0.70710678118654702 0.70710678118654702 I I #
coedge $-1 $125 $213 $318 $339 reversed $34 $-1 #
coedge $-1 $340 $129 $125 $221 forward $225 $-1 #
edge $341 $132 -50 $342 50 $125 $343 forward 7 unknown #
convexity-sys-attrib $-1 $-1 $126 $77 #
point $-1 50 25 25 #
coedge $-1 $129 $340 $231 $344 forward $225 $-1 #
loop $-1 $-1 $220 $345 #
attrib_edge_convexity-kcp-attrib $-1 $346 $-1 $130 1 #
vertex $-1 $130 $347 #
straight-curve $-1 0 50 -25 1 0 0 I I #
convexity-sys-attrib $-1 $-1 $131 $79 #
point $-1 50 50 -25 #
coedge $-1 $348 $134 $224 $344 reversed $233 $-1 #
coedge $-1 $134 $349 $136 $237 forward $233 $-1 #
loop $-1 $-1 $232 $350 #
attrib_edge_convexity-kcp-attrib $-1 $351 $-1 $135 1 #
straight-curve $-1 -50 50 0 0 0 -1 I I #
coedge $-1 $137 $136 $352 $353 forward $138 $-1 #
edge $-1 $354 0 $140 1.5707963267948966 $232 $355 reversed 7 unknown #
face $356 $357 $138 $8 $-1 $358 forward single #
convexity-sys-attrib $-1 $-1 $139 $82 #
point $-1 -50 50 12.9289321881345 #
coedge $-1 $359 $142 $360 $361 forward $84 $-1 #
coedge $-1 $352 $362 $142 $243 reversed $363 $-1 #
edge $364 $245 -45 $365 41.464466094067298 $142 $366 reversed 7 unknown #
attrib_edge_convexity-kcp-attrib $-1 $367 $-1 $143 1 #
vertex $-1 $243 $368 #
ellipse-curve $-1 -37.928932188134503 45 25 0 0 -1 -7.0710678118654799 0 0 0.70710678118654702 I I #
model_id-kcp-attrib $-1 $-1 $-1 $144 1 990549390 50 1613889537 9 #
plane-surface $-1 0 0 25 0 0 1 1 0 0 forward_v I I I I #
model_id-kcp-attrib $-1 $-1 $-1 $149 1 990549390 50 1613889538 2 #
face $369 $-1 $164 $19 $-1 $370 reversed single #
loop $-1 $-1 $266 $149 #
plane-surface $-1 0 50.000000000000021 0 0 -1 0 0 0 -1 forward_v I I I I #
coedge $-1 $371 $264 $267 $372 forward $150 $-1 #
coedge $-1 $270 $152 $153 $258 reversed $91 $-1 #
coedge $-1 $264 $371 $152 $256 reversed $150 $-1 #
edge $-1 $271 -25.000000000000021 $373 25.000000000000021 $255 $374 forward 7 unknown #
coedge $-1 $154 $153 $371 $375 forward $58 $-1 #
edge $-1 $262 -50.000000000000043 $373 50.000000000000043 $254 $376 forward 7 unknown #
coedge $-1 $267 $266 $154 $260 reversed $251 $-1 #
edge $-1 $377 -50.000000000000043 $261 50.000000000000043 $259 $378 forward 7 unknown #
vertex $-1 $156 $379 #
vertex $-1 $273 $380 #
straight-curve $-1 50.000000000000043 0 -25.000000000000021 0 -1 0 I I #
coedge $-1 $253 $255 $157 $265 reversed $150 $-1 #
edge $-1 $268 -50.000000000000021 $271 50.000000000000021 $264 $381 forward 7 unknown #
coedge $-1 $259 $158 $163 $274 forward $251 $-1 #
coedge $-1 $158 $259 $253 $372 reversed $251 $-1 #
vertex $-1 $159 $382 #
straight-curve $-1 0 50.000000000000021 25.000000000000021 -1 0 0 I I #
coedge $-1 $160 $254 $162 $273 reversed $91 $-1 #
vertex $-1 $265 $383 #
straight-curve $-1 0 -50.000000000000021 25.000000000000021 1 0 0 I I #
edge $-1 $165 -25.000000000000021 $262 25.000000000000021 $162 $384 forward 7 unknown #
edge $-1 $166 -25.000000000000021 $261 25.000000000000021 $163 $385 forward 7 unknown #
point $-1 50.000000000000043 -50.000000000000021 25.000000000000021 #
point $-1 50.000000000000043 50.000000000000021 25.000000000000021 #
loop $-1 $-1 $176 $168 #
plane-surface $-1 -50.000000000000043 0 0 1 0 0 0 0 -1 forward_v I I I I #
coedge $-1 $280 $171 $288 $386 reversed $99 $-1 #
coedge $-1 $171 $279 $172 $283 reversed $99 $-1 #
edge $-1 $285 7.0710678118654737 $289 14.14213562373104 $171 $387 forward 7 unknown #
coedge $-1 $173 $172 $388 $389 forward $62 $-1 #
edge $-1 $285 44.999999999999979 $390 50.000000000000043 $280 $391 forward 7 unknown #
edge $-1 $392 -50.000000000000043 $181 -44.999999999999979 $178 $393 forward 7 unknown #
vertex $-1 $283 $394 #
straight-curve $-1 -44.999999999999936 25.000000000000011 25.000000000000021 0 1 0 I I #
coedge $-1 $388 $176 $179 $291 reversed $277 $-1 #
coedge $-1 $176 $388 $279 $386 forward $277 $-1 #
vertex $-1 $281 $395 #
straight-curve $-1 -50.000000000000043 25.000000000000011 19.999999999999918 0 -1 0 I I #
edge $-1 $392 -25.000000000000021 $180 -19.999999999999943 $287 $396 forward 7 unknown #
point $-1 -50.000000000000036 -50.000000000000021 19.999999999999943 #
point $-1 -44.999999999999979 -50.000000000000021 24.999999999999979 #
loop $-1 $-1 $303 $183 #
plane-surface $-1 50.000000000000043 0 0 -1 0 0 0 0 1 forward_v I I I I #
coedge $-1 $187 $186 $397 $398 forward $66 $-1 #
edge $-1 $196 69.999999999999943 $399 75.000000000000028 $186 $400 forward 7 unknown #
coedge $-1 $401 $303 $187 $299 reversed $294 $-1 #
edge $-1 $402 -50.000000000000021 $301 -44.999999999999915 $298 $403 forward 7 unknown #
convexity-sys-attrib $-1 $-1 $-1 $188 #
vertex $-1 $188 $404 #
straight-curve $-1 3.5527136788005009e-015 -44.999999999999922 25.000000000000021 1 0 0 I I #
coedge $-1 $298 $401 $189 $304 reversed $294 $-1 #
edge $405 $301 5.3033008588990107 $308 12.374368670764632 $303 $406 forward 7 unknown #
coedge $-1 $397 $190 $401 $407 reversed $184 $-1 #
coedge $-1 $190 $397 $192 $310 forward $184 $-1 #
convexity-sys-attrib $-1 $-1 $-1 $191 #
vertex $-1 $191 $408 #
straight-curve $-1 3.5527136788005009e-015 -50.000000000000021 19.999999999999925 -1 0 0 I I #
edge $-1 $399 7.0710678118654737 $195 14.142135623731015 $306 $409 forward 7 unknown #
point $-1 -50.000000000000036 -50.000000000000021 19.999999999999943 #
point $-1 -44.999999999999936 -44.999999999999929 25.000000000000021 #
model_id-kcp-attrib $-1 $-1 $-1 $199 1 990549390 50 1613889537 8 #
loop $-1 $-1 $207 $199 #
plane-surface $-1 47.5 2.5 22.5 0.70710678118654757 0 0.70710678118654757 0.70710678118654802 0 -0.70710678118654802 forward_v I I I I #
coedge $-1 $410 $411 $321 $412 reversed $200 $-1 #
coedge $-1 $413 $202 $411 $414 forward $116 $-1 #
coedge $-1 $202 $415 $219 $339 forward $116 $-1 #
coedge $-1 $204 $321 $202 $320 reversed $71 $-1 #
edge $-1 $416 -1.0471975511965976 $417 -0.5235987755983067 $202 $418 reversed 7 unknown #
coedge $-1 $319 $203 $316 $412 forward $71 $-1 #
coedge $-1 $209 $359 $203 $323 forward $84 $-1 #
edge $419 $420 -0.52359877559829116 $328 0.52359877559829116 $322 $421 reversed 7 unknown #
edge $422 $327 0.5235987755983067 $416 1.0471975511965976 $213 $423 reversed 7 unknown #
coedge $-1 $205 $207 $209 $332 reversed $314 $-1 #
attrib_edge_convexity-kcp-attrib $-1 $424 $-1 $206 3 #
vertex $-1 $206 $425 #
vertex $-1 $332 $426 #
straight-curve $-1 32.428511301977601 -28.892977396044799 37.571488698022399 -0.57735026918962595 0.57735026918962595 0.57735026918962595 I I #
attrib_edge_convexity-kcp-attrib $-1 $427 $-1 $208 4 #
straight-curve $-1 45 20 25 -0.70710678118654702 0 0.70710678118654702 I I #
edge $428 $328 -41.464466094067298 $211 20 $209 $429 reversed 7 unknown #
attrib_edge_convexity-kcp-attrib $-1 $430 $210 $122 1 #
point $-1 45 20 25 #
attrib_edge_convexity-kcp-attrib $-1 $431 $-1 $215 1 #
straight-curve $-1 50 0 20 0 1 0 I I #
attrib_edge_convexity-kcp-attrib $-1 $432 $216 $124 1 #
point $-1 50 20 20 #
edge $433 $342 -25 $416 19.0526565450925 $219 $434 reversed 7 unknown #
coedge $-1 $224 $220 $415 $435 forward $225 $-1 #
attrib_edge_convexity-kcp-attrib $-1 $436 $-1 $221 1 #
vertex $-1 $339 $437 #
straight-curve $-1 50 0 -25 0 -1 0 I I #
edge $-1 $438 -50 $227 50 $231 $439 forward 7 unknown #
face $440 $-1 $225 $8 $-1 $441 reversed single #
convexity-sys-attrib $-1 $-1 $226 $130 #
point $-1 -50 50 -25 #
coedge $-1 $442 $231 $443 $444 reversed $233 $-1 #
coedge $-1 $232 $442 $445 $446 forward $233 $-1 #
face $447 $448 $233 $8 $-1 $449 reversed single #
convexity-sys-attrib $-1 $-1 $234 $135 #
coedge $-1 $445 $242 $236 $353 reversed $363 $-1 #
edge $450 $354 -12.374368670764573 $245 -5.3033008588991031 $352 $451 forward 7 unknown #
vertex $-1 $237 $452 #
ellipse-curve $-1 -50 45 12.9289321881345 1 0 0 0 0 7.0710678118654799 0.70710678118654702 I I #
model_id-kcp-attrib $-1 $-1 $-1 $238 1 990549390 50 1613889537 10 #
face $453 $350 $363 $8 $-1 $454 forward single #
cone-surface $-1 -43.964466094067298 45 18.964466094067301 -0.70710678118654757 0 -0.70710678118654757 -2.5 3.53553390593274 2.5 1 I I 0 1 5.0000000000000018 forward I I I I #
coedge $-1 $322 $241 $410 $455 forward $84 $-1 #
coedge $-1 $456 $457 $241 $361 reversed $458 $-1 #
edge $459 $365 -0.52359877559829116 $460 0.52359877559829116 $241 $461 reversed 7 unknown #
coedge $-1 $242 $445 $456 $462 reversed $363 $-1 #
loop $-1 $-1 $352 $357 #
attrib_edge_convexity-kcp-attrib $-1 $463 $-1 $243 1 #
vertex $-1 $462 $464 #
straight-curve $-1 -45 0 25 0 1 0 I I #
convexity-sys-attrib $-1 $-1 $244 $143 #
point $-1 -45 45 25 #
model_id-kcp-attrib $-1 $-1 $-1 $250 1 990549390 50 1613889538 3 #
plane-surface $-1 50.000000000000043 0 0 -1 0 0 0 0 1 forward_v I I I I #
coedge $-1 $255 $253 $257 $375 reversed $150 $-1 #
edge $-1 $268 -25.000000000000021 $377 25.000000000000021 $267 $465 forward 7 unknown #
vertex $-1 $375 $466 #
straight-curve $-1 -50.000000000000043 -50.000000000000021 0 0 0 -1 I I #
edge $-1 $373 -50.000000000000021 $377 50.000000000000021 $371 $467 forward 7 unknown #
straight-curve $-1 0 -50.000000000000021 -25.000000000000021 -1 0 0 I I #
vertex $-1 $260 $468 #
straight-curve $-1 0 50.000000000000021 -25.000000000000021 1 0 0 I I #
point $-1 50.000000000000043 50.000000000000021 -25.000000000000021 #
point $-1 50.000000000000043 -50.000000000000021 -25.000000000000021 #
straight-curve $-1 -50.000000000000043 0 25.000000000000021 0 -1 0 I I #
point $-1 -50.000000000000043 50.000000000000021 25.000000000000021 #
point $-1 -50.000000000000043 -50.000000000000021 25.000000000000021 #
straight-curve $-1 50.000000000000043 -50.000000000000021 0 0 0 -1 I I #
straight-curve $-1 50.000000000000043 50.000000000000021 0 0 0 -1 I I #
edge $-1 $390 -25.000000000000021 $289 -19.999999999999915 $279 $469 forward 7 unknown #
straight-curve $-1 -39.999999999999986 50.000000000000021 29.999999999999982 -0.70710678118654757 0 -0.70710678118654757 I I #
coedge $-1 $288 $287 $282 $389 reversed $277 $-1 #
edge $-1 $390 -50.000000000000021 $392 50.000000000000021 $388 $470 forward 7 unknown #
vertex $-1 $283 $471 #
straight-curve $-1 0 50.000000000000021 25.000000000000021 -1 0 0 I I #
vertex $-1 $389 $472 #
straight-curve $-1 0 -50.000000000000021 25.000000000000021 1 0 0 I I #
point $-1 -44.999999999999979 50.000000000000021 24.999999999999979 #
point $-1 -50.000000000000043 50.000000000000021 19.999999999999915 #
straight-curve $-1 -50.000000000000043 -50.000000000000021 0 0 0 -1 I I #
coedge $-1 $306 $305 $296 $398 reversed $184 $-1 #
edge $-1 $399 -44.999999999999979 $402 50.000000000000043 $397 $473 forward 7 unknown #
vertex $-1 $398 $474 #
straight-curve $-1 -44.999999999999936 25.000000000000011 25.000000000000021 0 -1 0 I I #
coedge $-1 $303 $298 $305 $407 forward $294 $-1 #
vertex $-1 $299 $475 #
straight-curve $-1 50.000000000000043 0 25.000000000000021 0 1 0 I I #
point $-1 50.000000000000043 -44.999999999999915 25.000000000000021 #
convexity-sys-attrib $-1 $-1 $-1 $304 #
straight-curve $-1 50.000000000000043 -41.249999999999986 28.749999999999957 0 -0.70710678118654757 -0.70710678118654757 I I #
edge $-1 $402 -25.000000000000021 $308 -19.999999999999925 $401 $476 forward 7 unknown #
point $-1 50.000000000000043 -50.000000000000021 19.999999999999925 #
straight-curve $-1 -39.999999999999986 -50.000000000000014 29.999999999999982 -0.70710678118654757 0 -0.70710678118654757 I I #
coedge $-1 $477 $316 $359 $455 reversed $200 $-1 #
coedge $-1 $316 $477 $317 $414 reversed $200 $-1 #
edge $478 $420 21.774457151752767 $417 30.434711189597152 $316 $479 forward 7 unknown #
coedge $-1 $443 $317 $480 $481 forward $116 $-1 #
edge $482 $417 -46.464466094067298 $483 46.464466094067298 $317 $484 reversed 7 unknown #
coedge $-1 $318 $443 $340 $435 reversed $116 $-1 #
vertex $-1 $320 $485 #
vertex $-1 $414 $486 #
ellipse-curve $-1 50 -50 12.9289321881345 0 1 0 -6.1237243569579496 0 6.1237243569579496 0.57735026918962595 I I #
model_id-kcp-attrib $-1 $487 $-1 $323 1 990549390 50 1613889537 20 #
vertex $-1 $412 $488 #
ellipse-curve $-1 37.928932188134503 -37.928932188134503 25 0 0 -1 6.1237243569579496 -6.1237243569579496 0 0.57735026918962595 I I #
model_id-kcp-attrib $-1 $489 $-1 $324 1 990549390 50 1613889537 23 #
ellipse-curve $-1 50 -50 12.9289321881345 -1 0 0 0 6.1237243569579496 6.1237243569579496 0.57735026918962595 I I #
convexity-sys-attrib $-1 $-1 $326 $206 #
point $-1 50 -46.464466094067298 20 #
point $-1 45 -41.464466094067298 25 #
convexity-sys-attrib $-1 $-1 $330 $208 #
attrib_edge_convexity-kcp-attrib $-1 $490 $-1 $332 1 #
straight-curve $-1 45 0 25 0 -1 0 I I #
convexity-sys-attrib $-1 $-1 $333 $122 #
convexity-sys-attrib $-1 $-1 $335 $215 #
convexity-sys-attrib $-1 $-1 $337 $124 #
model_id-kcp-attrib $-1 $491 $-1 $339 1 990549390 50 1613889537 24 #
straight-curve $-1 50 -50 0 0 0 -1 I I #
edge $492 $342 -50 $438 50 $415 $493 forward 7 unknown #
convexity-sys-attrib $-1 $-1 $341 $221 #
point $-1 50 -50 -25 #
vertex $-1 $344 $494 #
straight-curve $-1 -50 0 -25 0 1 0 I I #
model_id-kcp-attrib $-1 $-1 $-1 $345 1 990549390 50 1613889537 14 #
plane-surface $-1 0 0 -25 0 0 1 1 0 0 forward_v I I I I #
coedge $-1 $349 $348 $495 $496 forward $233 $-1 #
coedge $-1 $415 $413 $348 $444 forward $116 $-1 #
edge $497 $498 -19.0526565450925 $438 25 $348 $499 forward 7 unknown #
coedge $-1 $362 $352 $349 $446 reversed $363 $-1 #
edge $500 $501 -46.464466094067298 $354 45 $349 $502 reversed 7 unknown #
model_id-kcp-attrib $-1 $-1 $-1 $350 1 990549390 50 1613889537 12 #
face $503 $345 $458 $8 $-1 $504 forward single #
plane-surface $-1 -50 0 0 1 0 0 0 0 -1 forward_v I I I I #
attrib_edge_convexity-kcp-attrib $-1 $505 $-1 $353 3 #
straight-curve $-1 -41.25 45 28.75 0.70710678118654802 0 0.70710678118654802 I I #
point $-1 -50 45 20 #
model_id-kcp-attrib $-1 $-1 $-1 $357 1 990549390 50 1613889537 11 #
plane-surface $-1 -47.5 2.5 22.5 -0.70710678118654757 0 0.70710678118654757 0.70710678118654802 0 0.70710678118654802 forward_v I I I I #
edge $506 $460 -41.464466094067298 $420 41.464466094067298 $359 $507 reversed 7 unknown #
coedge $-1 $495 $360 $362 $462 forward $458 $-1 #
coedge $-1 $360 $480 $477 $508 forward $458 $-1 #
loop $-1 $-1 $456 $448 #
model_id-kcp-attrib $-1 $509 $-1 $361 1 990549390 50 1613889537 18 #
vertex $-1 $455 $510 #
ellipse-curve $-1 -37.928932188134503 -37.928932188134503 25 0 0 -1 -6.1237243569579496 -6.1237243569579496 0 0.57735026918962595 I I #
edge $511 $365 21.774457151752767 $501 30.434711189597149 $362 $512 forward 7 unknown #
convexity-sys-attrib $-1 $-1 $364 $243 #
point $-1 -45 -41.464466094067298 25 #
straight-curve $-1 -50.000000000000043 50.000000000000021 0 0 0 -1 I I #
point $-1 -50.000000000000043 -50.000000000000021 -25.000000000000021 #
straight-curve $-1 -50.000000000000043 0 -25.000000000000021 0 1 0 I I #
point $-1 -50.000000000000043 50.000000000000021 -25.000000000000021 #
straight-curve $-1 -50.000000000000043 50.000000000000021 0 0 0 -1 I I #
straight-curve $-1 -50.000000000000043 0 25.000000000000021 0 -1 0 I I #
point $-1 -50.000000000000043 50.000000000000021 25.000000000000021 #
point $-1 -50.000000000000043 -50.000000000000021 25.000000000000021 #
straight-curve $-1 0 -50.000000000000021 25.000000000000021 1 0 0 I I #
point $-1 -44.999999999999979 -50.000000000000021 24.999999999999979 #
point $-1 50.000000000000043 -50.000000000000021 25.000000000000021 #
straight-curve $-1 50.000000000000043 -50.000000000000021 0 0 0 -1 I I #
coedge $-1 $411 $410 $457 $508 reversed $200 $-1 #
attrib_edge_convexity-kcp-attrib $-1 $513 $-1 $412 3 #
straight-curve $-1 28.892977396044799 -32.428511301977601 37.571488698022399 0.57735026918962595 -0.57735026918962595 -0.57735026918962595 I I #
coedge $-1 $457 $495 $413 $481 reversed $458 $-1 #
edge $-1 $483 0.5235987755983067 $498 1.0471975511965976 $413 $514 reversed 7 unknown #
attrib_edge_convexity-kcp-attrib $-1 $515 $-1 $414 1 #
vertex $-1 $508 $516 #
straight-curve $-1 0 -50 20 1 0 0 I I #
point $-1 50 -50 19.0526565450925 #
point $-1 46.464466094067298 -50 20 #
attrib_edge_convexity-kcp-attrib $-1 $517 $419 $323 1 #
point $-1 41.464466094067298 -45 25 #
attrib_edge_convexity-kcp-attrib $-1 $518 $422 $324 1 #
convexity-sys-attrib $-1 $-1 $428 $332 #
attrib_edge_convexity-kcp-attrib $-1 $519 $433 $339 1 #
model_id-kcp-attrib $-1 $-1 $-1 $435 1 990549390 50 1613889537 25 #
straight-curve $-1 0 -50 -25 -1 0 0 I I #
point $-1 -50 -50 -25 #
coedge $-1 $480 $456 $442 $496 reversed $458 $-1 #
edge $520 $498 -1.0471975511965976 $501 -0.5235987755983067 $442 $521 reversed 7 unknown #
model_id-kcp-attrib $-1 $-1 $-1 $444 1 990549390 50 1613889537 16 #
vertex $-1 $496 $522 #
straight-curve $-1 -50 -50 0 0 0 -1 I I #
attrib_edge_convexity-kcp-attrib $-1 $523 $-1 $446 1 #
vertex $-1 $446 $524 #
straight-curve $-1 -50 0 20 0 -1 0 I I #
model_id-kcp-attrib $-1 $-1 $-1 $448 1 990549390 50 1613889537 13 #
cone-surface $-1 -45.142977396044799 -45.142977396044799 17.785954792089701 0.57735026918962584 0.57735026918962584 0.57735026918962584 -2.0412414523193201 -2.0412414523193201 4.0824829046386304 1 I I 0 1 5.0000000000000044 forward I I I I #
convexity-sys-attrib $-1 $-1 $450 $353 #
model_id-kcp-attrib $-1 $525 $-1 $455 1 990549390 50 1613889537 19 #
straight-curve $-1 0 -45 25 -1 0 0 I I #
edge $526 $483 -30.434711189597152 $460 -21.774457151752767 $477 $527 forward 7 unknown #
attrib_edge_convexity-kcp-attrib $-1 $528 $459 $361 1 #
point $-1 -41.464466094067298 -45 25 #
attrib_edge_convexity-kcp-attrib $-1 $529 $-1 $462 3 #
straight-curve $-1 -32.428511301977601 -28.892977396044799 37.571488698022399 -0.57735026918962595 -0.57735026918962595 -0.57735026918962595 I I #
convexity-sys-attrib $-1 $-1 $478 $412 #
ellipse-curve $-1 -50 -50 12.9289321881345 0 1 0 6.1237243569579496 0 6.1237243569579496 0.57735026918962595 I I #
convexity-sys-attrib $-1 $-1 $482 $414 #
point $-1 -46.464466094067298 -50 20 #
convexity-sys-attrib $-1 $-1 $487 $323 #
convexity-sys-attrib $-1 $-1 $489 $324 #
convexity-sys-attrib $-1 $-1 $491 $339 #
model_id-kcp-attrib $-1 $-1 $-1 $496 1 990549390 50 1613889537 17 #
ellipse-curve $-1 -50 -50 12.9289321881345 1 0 0 0 6.1237243569579496 6.1237243569579496 0.57735026918962595 I I #
point $-1 -50 -50 19.0526565450925 #
convexity-sys-attrib $-1 $-1 $500 $446 #
point $-1 -50 -46.464466094067298 20 #
attrib_edge_convexity-kcp-attrib $-1 $530 $506 $455 1 #
attrib_edge_convexity-kcp-attrib $-1 $531 $-1 $508 3 #
straight-curve $-1 -28.892977396044799 -32.428511301977601 37.571488698022399 0.57735026918962595 0.57735026918962595 0.57735026918962595 I I #
convexity-sys-attrib $-1 $-1 $509 $361 #
convexity-sys-attrib $-1 $-1 $511 $462 #
convexity-sys-attrib $-1 $-1 $525 $455 #
convexity-sys-attrib $-1 $-1 $526 $508 #
End-of-ACIS-data 