600 0 1 0           
111 GICL ACIS Healer - Source: /gicl/data5/repository/ICEM-CDC/Fixture_Models/EdgeSupportS1/EdgeSupportS1.sat - 6 0 18 ACIS 6.0.3 Solaris 24 Sat Apr 13 23:07:25 2002 
1 9.999999999999999547e-07 1.000000000000000036e-10 
body $-1 $1 $-1 $2 #
lump $-1 $-1 $3 $0 #
transform $-1 1 0 0 0 1 0 0 0 1 0 0 0 1 no_rotate no_reflect no_shear #
shell $-1 $-1 $-1 $4 $-1 $1 #
face $5 $6 $7 $3 $-1 $8 reversed single #
face_name-twe-attrib $-1 $-1 $-1 $4 1 #
face $9 $10 $11 $3 $-1 $12 forward single #
loop $13 $-1 $14 $4 #
plane-surface $15 0 0 -1.6875 0 0 1 1 0 0 forward_v I I I I #
face_name-twe-attrib $-1 $-1 $-1 $6 2 #
face $16 $17 $18 $3 $-1 $19 forward single #
loop $20 $-1 $21 $6 #
plane-surface $22 0 0 1.6875 0 0 1 1 0 0 forward_v I I I I #
loop_type-twe-attrib $-1 $-1 $-1 $7 0 #
coedge $-1 $23 $24 $25 $26 forward $7 $-1 #
surf-twe-attrib $-1 $-1 $-1 $8 4 #
face_name-twe-attrib $-1 $-1 $-1 $10 3 #
face $27 $28 $29 $3 $-1 $30 forward single #
loop $31 $32 $25 $10 #
plane-surface $33 0 1 -1.6875 0 1 0 0 0 1 forward_v I I I I #
loop_type-twe-attrib $-1 $-1 $-1 $11 0 #
coedge $-1 $34 $35 $36 $37 reversed $11 $-1 #
surf-twe-attrib $-1 $-1 $-1 $12 6 #
coedge $-1 $38 $14 $39 $40 forward $7 $-1 #
coedge $-1 $14 $41 $42 $43 forward $7 $-1 #
coedge $-1 $44 $45 $14 $26 reversed $18 $-1 #
edge $46 $47 -1.9375 $48 0 $25 $49 forward 7 unknown #
face_name-twe-attrib $-1 $-1 $-1 $17 4 #
face $50 $51 $52 $3 $-1 $53 forward single #
loop $54 $-1 $42 $17 #
plane-surface $55 -1.9375 1 -1.6875 -1 0 0 0 0 1 forward_v I I I I #
loop_type-twe-attrib $-1 $-1 $-1 $18 0 #
loop $56 $57 $58 $10 #
surf-twe-attrib $-1 $-1 $-1 $19 10 #
coedge $-1 $59 $21 $60 $61 reversed $11 $-1 #
coedge $-1 $21 $62 $63 $64 reversed $11 $-1 #
coedge $-1 $45 $44 $21 $37 forward $18 $-1 #
edge $65 $66 -1.9375 $67 0 $36 $68 forward 7 unknown #
coedge $-1 $69 $23 $70 $71 forward $7 $-1 #
coedge $-1 $72 $73 $23 $40 reversed $74 $-1 #
edge $75 $48 -0.929289321881344943 $76 0 $39 $77 forward 7 unknown #
coedge $-1 $24 $78 $79 $80 forward $7 $-1 #
coedge $-1 $81 $82 $24 $43 reversed $29 $-1 #
edge $83 $84 -1.75 $47 0 $42 $85 forward 7 unknown #
coedge $-1 $36 $25 $82 $86 reversed $18 $-1 #
coedge $-1 $25 $36 $72 $87 forward $18 $-1 #
edge_name-twe-attrib $-1 $-1 $-1 $26 1 8704 #
vertex $-1 $86 $88 #
vertex $-1 $87 $89 #
straight-curve $90 0 1 -1.6875 1 0 0 I I #
face_name-twe-attrib $-1 $-1 $-1 $28 5 #
face $91 $92 $93 $3 $-1 $94 forward single #
loop $95 $96 $79 $28 #
plane-surface $97 -1.9375 -0.75 -1.6875 0 -1 0 0 0 -1 forward_v I I I I #
loop_type-twe-attrib $-1 $-1 $-1 $29 0 #
surf-twe-attrib $-1 $-1 $-1 $30 17 #
loop_type-twe-attrib $-1 $-1 $-1 $32 1 #
loop $98 $99 $100 $10 #
coedge $-1 $58 $58 $101 $102 reversed $32 $-1 #
coedge $-1 $103 $34 $104 $105 reversed $11 $-1 #
coedge $-1 $82 $81 $34 $61 forward $29 $-1 #
edge $106 $107 -1.75 $66 0 $60 $108 forward 7 unknown #
coedge $-1 $35 $109 $110 $111 reversed $11 $-1 #
coedge $-1 $73 $72 $35 $64 forward $74 $-1 #
edge $112 $67 -0.929289321881344943 $113 0 $63 $114 forward 7 unknown #
edge_name-twe-attrib $-1 $-1 $-1 $37 2 8704 #
vertex $-1 $86 $115 #
vertex $-1 $87 $116 #
straight-curve $117 0 1 1.6875 1 0 0 I I #
coedge $-1 $118 $38 $119 $120 forward $7 $-1 #
coedge $-1 $121 $122 $38 $71 reversed $123 $-1 #
edge $124 $76 -0.05999999999997786271 $125 0 $70 $126 forward 7 unknown #
coedge $-1 $63 $39 $45 $87 reversed $74 $-1 #
coedge $-1 $39 $63 $121 $127 forward $74 $-1 #
loop $128 $-1 $39 $129 #
edge_name-twe-attrib $-1 $-1 $-1 $40 30 8704 #
vertex $-1 $127 $130 #
straight-curve $131 0 0.07071067811865500152 -1.6875 0 -1 0 I I #
coedge $-1 $41 $132 $133 $134 forward $7 $-1 #
coedge $-1 $135 $136 $41 $80 reversed $52 $-1 #
edge $137 $138 -3.375 $84 0 $79 $139 forward 7 unknown #
coedge $-1 $60 $42 $136 $140 reversed $29 $-1 #
coedge $-1 $42 $60 $44 $86 forward $29 $-1 #
edge_name-twe-attrib $-1 $-1 $-1 $43 3 8704 #
vertex $-1 $140 $141 #
straight-curve $142 -1.9375 1 -1.6875 0 1 0 I I #
edge $143 $66 -3.375 $47 0 $82 $144 forward 7 unknown #
edge $145 $67 -3.375 $48 0 $72 $146 forward 7 unknown #
point $-1 -1.9375 1 -1.6875 #
point $-1 0 1 -1.6875 #
cur-twe-attrib $-1 $-1 $-1 $49 26 #
face_name-twe-attrib $-1 $-1 $-1 $51 6 #
face $147 $148 $149 $3 $-1 $150 forward single #
loop $151 $-1 $133 $51 #
plane-surface $152 1.4375 -0.75 -1.6875 1 0 0 0 0 -1 forward_v I I I I #
loop_type-twe-attrib $-1 $-1 $-1 $52 0 #
loop $153 $154 $155 $28 #
surf-twe-attrib $-1 $-1 $-1 $53 28 #
loop_type-twe-attrib $-1 $-1 $-1 $57 1 #
loop $156 $-1 $157 $10 #
coedge $-1 $100 $100 $158 $159 reversed $57 $-1 #
coedge $-1 $101 $101 $58 $102 forward $160 $-1 #
edge $161 $162 0 $162 6.283185307179586232 $101 $163 forward 7 unknown #
coedge $-1 $164 $59 $165 $166 reversed $11 $-1 #
coedge $-1 $136 $135 $59 $105 forward $52 $-1 #
edge $167 $168 -3.375 $107 0 $104 $169 forward 7 unknown #
edge_name-twe-attrib $-1 $-1 $-1 $61 4 8704 #
vertex $-1 $140 $170 #
straight-curve $171 -1.9375 1 1.6875 0 1 0 I I #
coedge $-1 $62 $172 $173 $174 reversed $11 $-1 #
coedge $-1 $122 $121 $62 $111 forward $123 $-1 #
edge $175 $113 -0.05999999999997754352 $176 0 $110 $177 forward 7 unknown #
edge_name-twe-attrib $-1 $-1 $-1 $64 32 8704 #
vertex $-1 $127 $178 #
straight-curve $179 0 0.07071067811865500152 1.6875 0 -1 0 I I #
point $-1 -1.9375 1 1.6875 #
point $-1 0 1 1.6875 #
cur-twe-attrib $-1 $-1 $-1 $68 37 #
coedge $-1 $180 $69 $181 $182 forward $7 $-1 #
coedge $-1 $183 $184 $69 $120 reversed $185 $-1 #
edge $186 $125 -1.570796326794939191 $187 -1.423015351387219836e-14 $119 $188 forward 7 unknown #
coedge $-1 $110 $70 $73 $127 reversed $123 $-1 #
coedge $-1 $70 $110 $183 $189 forward $123 $-1 #
loop $190 $-1 $70 $191 #
edge_name-twe-attrib $-1 $-1 $-1 $71 27 8704 #
vertex $-1 $189 $192 #
straight-curve $193 -0.04242640687116210063 0.02828427124746269936 -1.6875 -0.7071067811862959962 -0.7071067811867990383 0 I I #
edge $194 $113 -3.375 $76 0 $73 $195 forward 7 unknown #
loop_type-twe-attrib $-1 $-1 $-1 $74 0 #
face $196 $197 $74 $3 $-1 $198 forward single #
point $-1 0 0.07071067811865500152 -1.6875 #
cur-twe-attrib $-1 $-1 $-1 $77 40 #
coedge $-1 $78 $199 $200 $201 forward $7 $-1 #
coedge $-1 $202 $203 $78 $134 reversed $93 $-1 #
edge $204 $205 -0.75 $138 0 $133 $206 forward 7 unknown #
coedge $-1 $104 $79 $203 $207 reversed $52 $-1 #
coedge $-1 $79 $104 $81 $140 forward $52 $-1 #
edge_name-twe-attrib $-1 $-1 $-1 $80 6 8704 #
vertex $-1 $207 $208 #
straight-curve $209 -1.9375 -0.75 -1.6875 -1 0 0 I I #
edge $210 $107 -3.375 $84 0 $136 $211 forward 7 unknown #
point $-1 -1.9375 -0.75 -1.6875 #
cur-twe-attrib $-1 $-1 $-1 $85 43 #
edge_name-twe-attrib $-1 $-1 $-1 $86 5 8704 #
straight-curve $212 -1.9375 1 -1.6875 0 0 -1 I I #
edge_name-twe-attrib $-1 $-1 $-1 $87 31 8704 #
straight-curve $213 0 1 -1.6875 0 0 -1 I I #
face_name-twe-attrib $-1 $-1 $-1 $92 7 #
face $214 $215 $216 $3 $-1 $217 forward single #
loop $218 $219 $200 $92 #
plane-surface $220 1.4375 0 -1.6875 0 1 0 0 0 1 forward_v I I I I #
loop_type-twe-attrib $-1 $-1 $-1 $93 0 #
surf-twe-attrib $-1 $-1 $-1 $94 51 #
loop_type-twe-attrib $-1 $-1 $-1 $96 1 #
loop $221 $222 $223 $28 #
coedge $-1 $155 $155 $224 $225 forward $96 $-1 #
loop_type-twe-attrib $-1 $-1 $-1 $99 1 #
coedge $-1 $157 $157 $226 $227 forward $99 $-1 #
coedge $-1 $158 $158 $100 $159 forward $228 $-1 #
edge $229 $230 0 $230 6.283185307179586232 $158 $231 forward 7 unknown #
loop $232 $233 $101 $234 #
edge_name-twe-attrib $-1 $-1 $-1 $102 45 8704 #
vertex $-1 $102 $235 #
ellipse-curve $236 -0.75 1 0 0 1 0 -0.25 0 0 1 I I #
coedge $-1 $237 $103 $238 $239 reversed $11 $-1 #
coedge $-1 $203 $202 $103 $166 forward $93 $-1 #
edge $240 $241 -0.75 $168 0 $165 $242 forward 7 unknown #
edge_name-twe-attrib $-1 $-1 $-1 $105 7 8704 #
vertex $-1 $207 $243 #
straight-curve $244 -1.9375 -0.75 1.6875 -1 0 0 I I #
point $-1 -1.9375 -0.75 1.6875 #
cur-twe-attrib $-1 $-1 $-1 $108 61 #
coedge $-1 $109 $245 $246 $247 reversed $11 $-1 #
coedge $-1 $184 $183 $109 $174 forward $185 $-1 #
edge $248 $176 -1.570796326794946296 $249 -6.776263578034402713e-17 $173 $250 forward 7 unknown #
edge_name-twe-attrib $-1 $-1 $-1 $111 28 8704 #
vertex $-1 $189 $251 #
straight-curve $252 -0.04242640687116199655 0.0282842712474630012 1.6875 -0.7071067811862979946 -0.7071067811867980391 0 I I #
point $-1 0 0.07071067811865500152 1.6875 #
cur-twe-attrib $-1 $-1 $-1 $114 64 #
coedge $-1 $199 $118 $253 $254 forward $7 $-1 #
coedge $-1 $255 $256 $118 $182 reversed $257 $-1 #
edge $258 $187 -0.01999999999995806868 $259 0 $181 $260 forward 7 unknown #
coedge $-1 $173 $119 $122 $189 reversed $185 $-1 #
coedge $-1 $119 $173 $255 $261 forward $185 $-1 #
loop $262 $-1 $119 $263 #
edge_name-twe-attrib $-1 $-1 $-1 $120 24 8704 #
vertex $-1 $261 $264 #
ellipse-curve $265 -0.01414213562370100069 0 -1.6875 0 0 1 -0.02828427124746149893 -0.02828427124746230037 0 1 I I #
edge $266 $176 -3.375 $125 -0 $122 $267 forward 7 unknown #
loop_type-twe-attrib $-1 $-1 $-1 $123 0 #
face $268 $129 $123 $3 $-1 $269 forward single #
point $-1 -0.04242640687116210063 0.02828427124746269936 -1.6875 #
cur-twe-attrib $-1 $-1 $-1 $126 71 #
edge_name-twe-attrib $-1 $-1 $-1 $127 33 8448 #
straight-curve $270 0 0.07071067811865500152 -1.6875 0 0 -1 I I #
face_name-twe-attrib $-1 $-1 $-1 $129 13 #
face $271 $272 $273 $3 $-1 $274 reversed single #
plane-surface $275 0 0.07071067811865500152 -1.6875 1 0 0 0 0 -1 forward_v I I I I #
coedge $-1 $132 $180 $276 $277 forward $7 $-1 #
coedge $-1 $278 $279 $132 $201 reversed $149 $-1 #
edge $280 $281 -1.366789321881344943 $205 0 $200 $282 forward 7 unknown #
coedge $-1 $165 $133 $279 $283 reversed $93 $-1 #
coedge $-1 $133 $165 $135 $207 forward $93 $-1 #
edge_name-twe-attrib $-1 $-1 $-1 $134 9 8704 #
vertex $-1 $283 $284 #
straight-curve $285 1.4375 -0.75 -1.6875 0 -1 0 I I #
edge $286 $168 -3.375 $138 0 $203 $287 forward 7 unknown #
point $-1 1.4375 -0.75 -1.6875 #
cur-twe-attrib $-1 $-1 $-1 $139 80 #
edge_name-twe-attrib $-1 $-1 $-1 $140 8 8704 #
straight-curve $288 -1.9375 -0.75 -1.6875 0 0 -1 I I #
cur-twe-attrib $-1 $-1 $-1 $144 86 #
cur-twe-attrib $-1 $-1 $-1 $146 87 #
face_name-twe-attrib $-1 $-1 $-1 $148 8 #
face $289 $290 $291 $3 $-1 $292 reversed single #
loop $293 $-1 $276 $148 #
plane-surface $294 0.07071067811865500152 0 -1.6875 -0.7071067811863019914 0.707106781186793043 0 0 0 1 forward_v I I I I #
loop_type-twe-attrib $-1 $-1 $-1 $149 0 #
loop $295 $296 $297 $92 #
surf-twe-attrib $-1 $-1 $-1 $150 92 #
loop_type-twe-attrib $-1 $-1 $-1 $154 1 #
loop $298 $299 $300 $28 #
coedge $-1 $223 $223 $301 $302 reversed $154 $-1 #
coedge $-1 $224 $224 $155 $225 reversed $303 $-1 #
edge $304 $305 -3.141592653589793116 $305 3.141592653589793116 $224 $306 forward 7 unknown #
coedge $-1 $226 $226 $157 $227 reversed $307 $-1 #
edge $308 $309 -3.141592653589793116 $309 3.141592653589793116 $226 $310 forward 7 unknown #
loop $311 $312 $158 $313 #
edge_name-twe-attrib $-1 $-1 $-1 $159 50 8704 #
vertex $-1 $159 $314 #
ellipse-curve $315 -1.25 1 -1 0 1 0 -0.4000000000000000222 0 0 1 I I #
loop_type-twe-attrib $-1 $-1 $-1 $160 0 #
loop $316 $-1 $317 $234 #
face $318 $319 $160 $3 $-1 $320 reversed single #
point $-1 -1 1 0 #
cur-twe-attrib $-1 $-1 $-1 $163 102 #
coedge $-1 $245 $164 $321 $322 reversed $11 $-1 #
coedge $-1 $279 $278 $164 $239 forward $149 $-1 #
edge $323 $324 -1.366789321881344943 $241 0 $238 $325 forward 7 unknown #
edge_name-twe-attrib $-1 $-1 $-1 $166 10 8704 #
vertex $-1 $283 $326 #
straight-curve $327 1.4375 -0.75 1.6875 0 -1 0 I I #
point $-1 1.4375 -0.75 1.6875 #
cur-twe-attrib $-1 $-1 $-1 $169 105 #
coedge $-1 $172 $237 $328 $329 reversed $11 $-1 #
coedge $-1 $256 $255 $172 $247 forward $257 $-1 #
edge $330 $249 -0.01999999999995708336 $331 0 $246 $332 forward 7 unknown #
edge_name-twe-attrib $-1 $-1 $-1 $174 25 8704 #
vertex $-1 $261 $333 #
ellipse-curve $334 -0.01414213562370100069 0 1.6875 0 0 1 -0.02828427124746149893 -0.02828427124746230037 0 1 I I #
point $-1 -0.04242640687116199655 0.0282842712474630012 1.6875 #
cur-twe-attrib $-1 $-1 $-1 $177 111 #
coedge $-1 $335 $336 $180 $254 reversed $291 $-1 #
edge $337 $259 -1.570796326794903885 $338 0 $253 $339 forward 7 unknown #
coedge $-1 $246 $181 $184 $261 reversed $257 $-1 #
coedge $-1 $181 $246 $335 $340 forward $257 $-1 #
loop $341 $-1 $181 $290 #
edge_name-twe-attrib $-1 $-1 $-1 $182 21 8704 #
vertex $-1 $340 $342 #
straight-curve $343 -0.02828427124746159954 -0.04242640687116319698 -1.6875 0.7071067811865520136 -0.7071067811865430208 0 I I #
edge $344 $249 -3.375 $187 0 $184 $345 forward 7 unknown #
loop_type-twe-attrib $-1 $-1 $-1 $185 0 #
face $346 $191 $185 $3 $-1 $347 reversed single #
point $-1 -0.04242640687116300269 -0.02828427124746199853 -1.6875 #
cur-twe-attrib $-1 $-1 $-1 $188 120 #
edge_name-twe-attrib $-1 $-1 $-1 $189 29 20480 #
straight-curve $348 -0.04242640687116210063 0.02828427124746269936 -1.6875 -4.317533984653389696e-17 -1.007424596419119989e-16 -1 I I #
face_name-twe-attrib $-1 $-1 $-1 $191 12 #
plane-surface $349 -0.04242640687116300269 0.02828427124746199853 -1.6875 0.7071067811867940422 -0.7071067811863009922 0 0 0 -1 forward_v I I I I #
cur-twe-attrib $-1 $-1 $-1 $195 127 #
face_name-twe-attrib $-1 $-1 $-1 $197 14 #
face $350 $351 $352 $3 $-1 $353 reversed single #
loop $354 $355 $356 $197 #
plane-surface $357 0.75 -0.3119999999999999996 1 0 -1 0 0 0 -1 forward_v I I I I #
surf-twe-attrib $-1 $-1 $-1 $198 129 #
coedge $-1 $358 $359 $199 $277 reversed $216 $-1 #
edge $360 $338 -0.05999999999997829292 $281 0 $276 $361 forward 7 unknown #
coedge $-1 $238 $200 $359 $362 reversed $149 $-1 #
coedge $-1 $200 $238 $202 $283 forward $149 $-1 #
edge_name-twe-attrib $-1 $-1 $-1 $201 12 8704 #
vertex $-1 $362 $363 #
straight-curve $364 1.4375 0 -1.6875 1 0 0 I I #
edge $365 $241 -3.375 $205 0 $279 $366 forward 7 unknown #
point $-1 1.4375 0 -1.6875 #
cur-twe-attrib $-1 $-1 $-1 $206 134 #
edge_name-twe-attrib $-1 $-1 $-1 $207 11 8704 #
straight-curve $367 1.4375 -0.75 -1.6875 0 0 -1 I I #
cur-twe-attrib $-1 $-1 $-1 $211 140 #
face_name-twe-attrib $-1 $-1 $-1 $215 9 #
face $368 $263 $257 $3 $-1 $369 forward single #
loop $370 $-1 $253 $215 #
cone-surface $371 0 -0.01414213562370100069 -1.6875 0 0 1 0.04000000000000000083 0 0 1 I I 0 1 0.04000000000000000083 forward I I I I #
loop_type-twe-attrib $-1 $-1 $-1 $216 0 #
surf-twe-attrib $-1 $-1 $-1 $217 148 #
loop_type-twe-attrib $-1 $-1 $-1 $219 1 #
loop $372 $-1 $373 $92 #
coedge $-1 $297 $297 $374 $375 reversed $219 $-1 #
loop_type-twe-attrib $-1 $-1 $-1 $222 1 #
loop $376 $-1 $377 $28 #
coedge $-1 $300 $300 $378 $379 forward $222 $-1 #
coedge $-1 $301 $301 $223 $302 forward $380 $-1 #
edge $381 $382 0 $382 6.283185307179586232 $301 $383 forward 7 unknown #
loop $384 $-1 $224 $385 #
edge_name-twe-attrib $-1 $-1 $-1 $225 38 8704 #
vertex $-1 $225 $386 #
ellipse-curve $387 0.75 -0.75 1 0 1 0 0.2655000000000000138 0 0 1 I I #
loop $388 $389 $226 $390 #
edge_name-twe-attrib $-1 $-1 $-1 $227 54 8704 #
vertex $-1 $227 $391 #
ellipse-curve $392 -1.25 1 1 0 -1 0 0.4000000000000000222 0 0 1 I I #
loop_type-twe-attrib $-1 $-1 $-1 $228 0 #
loop $393 $-1 $394 $313 #
face $395 $396 $228 $3 $-1 $397 reversed single #
point $-1 -1.649999999999999911 1 -1 #
cur-twe-attrib $-1 $-1 $-1 $231 159 #
loop_type-twe-attrib $-1 $-1 $-1 $233 1 #
coedge $-1 $317 $317 $398 $399 reversed $233 $-1 #
face_name-twe-attrib $-1 $-1 $-1 $234 23 #
face $400 $401 $402 $3 $-1 $403 reversed single #
cone-surface $404 -0.75 1.082500000000000018 0 0 -1 0 -0.25 0 0 1 I I 0 1 0.25 forward I I I I #
coedge $-1 $359 $358 $237 $322 forward $216 $-1 #
edge $405 $406 -0.05999999999997829292 $324 0 $321 $407 forward 7 unknown #
edge_name-twe-attrib $-1 $-1 $-1 $239 13 8704 #
vertex $-1 $362 $408 #
straight-curve $409 1.4375 0 1.6875 1 0 0 I I #
point $-1 1.4375 0 1.6875 #
cur-twe-attrib $-1 $-1 $-1 $242 166 #
coedge $-1 $336 $335 $245 $329 forward $291 $-1 #
edge $410 $331 -1.570796326794914322 $406 0 $328 $411 forward 7 unknown #
edge_name-twe-attrib $-1 $-1 $-1 $247 22 8704 #
vertex $-1 $340 $412 #
straight-curve $413 -0.02828427124746199853 -0.04242640687116300269 1.6875 0.7071067811865420216 -0.7071067811865530128 0 I I #
point $-1 -0.04242640687116250309 -0.02828427124746230037 1.6875 #
cur-twe-attrib $-1 $-1 $-1 $250 174 #
coedge $-1 $328 $253 $256 $340 reversed $291 $-1 #
coedge $-1 $253 $328 $358 $414 forward $291 $-1 #
edge_name-twe-attrib $-1 $-1 $-1 $254 18 8704 #
vertex $-1 $414 $415 #
ellipse-curve $416 0 -0.01414213562370100069 -1.6875 0 0 1 0.02828427124746240098 -0.02828427124746139831 0 1 I I #
edge $417 $331 -3.375 $259 0 $256 $418 forward 7 unknown #
loop_type-twe-attrib $-1 $-1 $-1 $257 0 #
point $-1 -0.02828427124746159954 -0.04242640687116319698 -1.6875 #
cur-twe-attrib $-1 $-1 $-1 $260 182 #
edge_name-twe-attrib $-1 $-1 $-1 $261 26 20480 #
straight-curve $419 -0.04242640687116300269 -0.02828427124746199853 -1.6875 -1.439177994884459945e-16 8.223874256482640584e-17 -1 I I #
face_name-twe-attrib $-1 $-1 $-1 $263 11 #
cone-surface $420 -0.01414213562370100069 0 -1.6875 0 0 1 0.04000000000000000083 0 0 1 I I 0 1 0.04000000000000000083 forward I I I I #
cur-twe-attrib $-1 $-1 $-1 $267 189 #
surf-twe-attrib $-1 $-1 $-1 $269 191 #
face_name-twe-attrib $-1 $-1 $-1 $272 15 #
face $421 $385 $422 $3 $-1 $423 reversed single #
loop $424 $425 $374 $272 #
cone-surface $426 0.75 0.04250000000000000305 1 0 -1 0 -0.40625 0 0 1 I I 0 1 0.40625 forward I I I I #
loop_type-twe-attrib $-1 $-1 $-1 $273 1 #
loop $427 $-1 $428 $197 #
coedge $-1 $356 $356 $429 $430 forward $273 $-1 #
surf-twe-attrib $-1 $431 $-1 $274 432 #
coedge $-1 $321 $276 $336 $414 reversed $216 $-1 #
coedge $-1 $276 $321 $278 $362 forward $216 $-1 #
edge_name-twe-attrib $-1 $-1 $-1 $277 15 8704 #
straight-curve $432 0.07071067811865500152 0 -1.6875 0.7071067811867890462 0.7071067811863059882 0 I I #
edge $433 $324 -3.375 $281 0 $359 $434 forward 7 unknown #
point $-1 0.07071067811865500152 0 -1.6875 #
cur-twe-attrib $-1 $-1 $-1 $282 201 #
edge_name-twe-attrib $-1 $-1 $-1 $283 14 8704 #
straight-curve $435 1.4375 0 -1.6875 0 0 -1 I I #
cur-twe-attrib $-1 $-1 $-1 $287 207 #
face_name-twe-attrib $-1 $-1 $-1 $290 10 #
plane-surface $436 -0.02828427124746199853 -0.04242640687116300269 -1.6875 0.7071067811865480168 0.7071067811865470176 0 0 0 -1 forward_v I I I I #
loop_type-twe-attrib $-1 $-1 $-1 $291 0 #
surf-twe-attrib $-1 $-1 $-1 $292 215 #
loop_type-twe-attrib $-1 $-1 $-1 $296 1 #
coedge $-1 $373 $373 $437 $438 forward $296 $-1 #
coedge $-1 $374 $374 $297 $375 forward $352 $-1 #
edge $439 $440 0 $440 6.283185307179586232 $374 $441 forward 7 unknown #
loop_type-twe-attrib $-1 $-1 $-1 $299 1 #
coedge $-1 $377 $377 $442 $443 reversed $299 $-1 #
coedge $-1 $378 $378 $300 $379 reversed $444 $-1 #
edge $445 $446 -3.141592653589793116 $446 3.141592653589793116 $378 $447 forward 7 unknown #
loop $448 $-1 $301 $449 #
edge_name-twe-attrib $-1 $-1 $-1 $302 43 8704 #
vertex $-1 $302 $450 #
ellipse-curve $451 0.75 -0.75 -1 0 -1 0 -0.2655000000000000138 0 0 1 I I #
loop_type-twe-attrib $-1 $-1 $-1 $303 1 #
face $452 $453 $454 $3 $-1 $455 reversed single #
point $-1 0.4844999999999999862 -0.75 1 #
cur-twe-attrib $-1 $-1 $-1 $306 225 #
loop_type-twe-attrib $-1 $-1 $-1 $307 0 #
loop $456 $-1 $457 $390 #
face $458 $459 $307 $3 $-1 $460 reversed single #
point $-1 -1.649999999999999911 1 1 #
cur-twe-attrib $-1 $-1 $-1 $310 227 #
loop_type-twe-attrib $-1 $-1 $-1 $312 1 #
coedge $-1 $394 $394 $461 $462 reversed $312 $-1 #
face_name-twe-attrib $-1 $-1 $-1 $313 27 #
face $463 $464 $465 $3 $-1 $466 reversed single #
cone-surface $467 -1.25 1.087499999999999911 -1 0 -1 0 -0.4000000000000000222 0 0 1 I I 0 1 0.4000000000000000222 forward I I I I #
coedge $-1 $398 $398 $317 $399 forward $468 $-1 #
edge $469 $470 -3.141592653589793116 $470 3.141592653589793116 $398 $471 forward 7 unknown #
face_name-twe-attrib $-1 $-1 $-1 $319 24 #
face $472 $473 $474 $3 $-1 $475 reversed single #
loop $476 $477 $478 $319 #
cone-surface $479 -0.75 1.082500000000000018 0 0 -1 0 -0.2250000000000000056 0 0 1 I I 0 1 0.2250000000000000056 forward I I I I #
surf-twe-attrib $-1 $-1 $-1 $320 234 #
edge_name-twe-attrib $-1 $-1 $-1 $322 16 8704 #
vertex $-1 $414 $480 #
straight-curve $481 0.07071067811865500152 0 1.6875 0.7071067811867990383 0.7071067811862959962 0 I I #
point $-1 0.07071067811865500152 0 1.6875 #
cur-twe-attrib $-1 $-1 $-1 $325 239 #
edge_name-twe-attrib $-1 $-1 $-1 $329 19 8704 #
ellipse-curve $482 0 -0.01414213562370100069 1.6875 0 0 1 0.02828427124746240098 -0.02828427124746139831 0 1 I I #
point $-1 -0.02828427124746199853 -0.04242640687116300269 1.6875 #
cur-twe-attrib $-1 $-1 $-1 $332 247 #
edge $483 $406 -3.375 $338 0 $336 $484 forward 7 unknown #
point $-1 0.0282842712474630012 -0.04242640687116300269 -1.6875 #
cur-twe-attrib $-1 $-1 $-1 $339 254 #
edge_name-twe-attrib $-1 $-1 $-1 $340 23 20480 #
straight-curve $485 -0.02828427124746159954 -0.04242640687116319698 -1.6875 1.099943181804549989e-16 -5.139921410301650057e-17 -1 I I #
cur-twe-attrib $-1 $-1 $-1 $345 261 #
surf-twe-attrib $-1 $-1 $-1 $347 263 #
face_name-twe-attrib $-1 $-1 $-1 $351 16 #
loop $486 $487 $429 $351 #
cone-surface $488 0.75 -0.3119999999999999996 1 0 1 0 -0.2760000000000000231 0 0 1 I I 0.5 0.8660254037844390407 0.2760000000000000231 forward I I I I #
loop_type-twe-attrib $-1 $-1 $-1 $352 0 #
loop $489 $-1 $490 $272 #
surf-twe-attrib $-1 $-1 $-1 $353 272 #
loop_type-twe-attrib $-1 $-1 $-1 $355 0 #
coedge $-1 $428 $428 $490 $491 forward $355 $-1 #
coedge $-1 $429 $429 $356 $430 reversed $422 $-1 #
edge $492 $493 0 $493 6.283185307179586232 $429 $494 forward 7 unknown #
surf-twe-attrib $-1 $-1 $357 $274 197 #
cur-twe-attrib $-1 $-1 $-1 $361 277 #
edge_name-twe-attrib $-1 $-1 $-1 $362 17 8448 #
straight-curve $495 0.07071067811865500152 0 -1.6875 0 0 -1 I I #
cur-twe-attrib $-1 $-1 $-1 $366 283 #
surf-twe-attrib $-1 $-1 $-1 $369 290 #
coedge $-1 $437 $437 $373 $438 reversed $496 $-1 #
edge $497 $498 -3.141592653589793116 $498 3.141592653589793116 $437 $499 forward 7 unknown #
edge_name-twe-attrib $-1 $-1 $-1 $375 35 8704 #
vertex $-1 $375 $500 #
ellipse-curve $501 0.75 0 1 0 1 0 -0.40625 0 0 1 I I #
coedge $-1 $442 $442 $377 $443 forward $502 $-1 #
edge $503 $504 0 $504 6.283185307179586232 $442 $505 forward 7 unknown #
loop $506 $-1 $378 $396 #
edge_name-twe-attrib $-1 $-1 $-1 $379 52 8704 #
vertex $-1 $379 $507 #
ellipse-curve $508 -1.25 -0.75 -1 0 1 0 0.25 0 0 1 I I #
loop_type-twe-attrib $-1 $-1 $-1 $380 1 #
face $509 $510 $511 $3 $-1 $512 reversed single #
point $-1 0.4844999999999999862 -0.75 -1 #
cur-twe-attrib $-1 $-1 $-1 $383 302 #
face_name-twe-attrib $-1 $-1 $-1 $385 17 #
face $513 $514 $515 $3 $-1 $516 forward single #
loop $517 $303 $518 $385 #
cone-surface $519 0.75 0.04250000000000000305 1 0 -1 0 -0.2655000000000000138 0 0 1 I I 0 1 0.2655000000000000138 forward I I I I #
loop_type-twe-attrib $-1 $-1 $-1 $389 1 #
coedge $-1 $457 $457 $520 $521 forward $389 $-1 #
face_name-twe-attrib $-1 $-1 $-1 $390 30 #
face $522 $-1 $523 $3 $-1 $524 reversed single #
cone-surface $525 -1.25 1.087499999999999911 1 0 1 0 -0.4000000000000000222 0 0 1 I I 0 1 0.4000000000000000222 forward I I I I #
coedge $-1 $461 $461 $394 $462 forward $526 $-1 #
edge $527 $528 -3.141592653589793116 $528 3.141592653589793116 $461 $529 forward 7 unknown #
face_name-twe-attrib $-1 $-1 $-1 $396 28 #
face $530 $390 $531 $3 $-1 $532 forward single #
loop $533 $444 $534 $396 #
cone-surface $535 -1.25 1.087499999999999911 -1 0 -1 0 -0.25 0 0 1 I I 0 1 0.25 forward I I I I #
surf-twe-attrib $-1 $-1 $-1 $397 313 #
loop $536 $-1 $398 $510 #
edge_name-twe-attrib $-1 $-1 $-1 $399 44 4608 #
vertex $-1 $399 $537 #
ellipse-curve $538 -0.75 -0.3200000000000000067 0 0 1 0 -0.25 0 0 1 I I #
face_name-twe-attrib $-1 $-1 $-1 $401 25 #
face $539 $313 $540 $3 $-1 $541 reversed single #
loop $542 $543 $544 $401 #
cone-surface $545 -0.75 -0.5148063607187990387 0 0 1 0 -0.2250000000000000056 0 0 1 I I 0.8571673007021120005 0.5150380749100540445 0.2250000000000000056 forward I I I I #
loop_type-twe-attrib $-1 $-1 $-1 $402 0 #
loop $546 $-1 $547 $319 #
coedge $-1 $478 $478 $548 $549 reversed $402 $-1 #
surf-twe-attrib $-1 $-1 $-1 $403 319 #
point $-1 0.02828427124746240098 -0.042426406871162399 1.6875 #
cur-twe-attrib $-1 $-1 $-1 $407 322 #
cur-twe-attrib $-1 $-1 $-1 $411 329 #
edge_name-twe-attrib $-1 $-1 $-1 $414 20 20480 #
straight-curve $550 0.0282842712474630012 -0.04242640687116300269 -1.6875 1.675614379758339883e-16 -1.912050764632209961e-16 -1 I I #
cur-twe-attrib $-1 $-1 $-1 $418 340 #
loop_type-twe-attrib $-1 $-1 $-1 $422 0 #
loop $551 $-1 $552 $351 #
surf-twe-attrib $-1 $-1 $-1 $423 351 #
loop_type-twe-attrib $-1 $-1 $-1 $425 1 #
coedge $-1 $490 $490 $428 $491 reversed $425 $-1 #
edge $553 $554 -3.141592653589793116 $554 3.141592653589793116 $428 $555 forward 7 unknown #
edge_name-twe-attrib $-1 $-1 $-1 $430 36 8448 #
vertex $-1 $430 $556 #
ellipse-curve $557 0.75 -0.3119999999999999996 1 0 -1 0 -0.2760000000000000231 0 0 1 I I #
cur-twe-attrib $-1 $-1 $-1 $434 362 #
loop $558 $559 $437 $514 #
edge_name-twe-attrib $-1 $-1 $-1 $438 40 8704 #
vertex $-1 $438 $560 #
ellipse-curve $561 0.75 0 -1 0 -1 0 0.40625 0 0 1 I I #
point $-1 0.34375 0 1 #
cur-twe-attrib $-1 $-1 $-1 $441 375 #
loop $562 $-1 $442 $459 #
edge_name-twe-attrib $-1 $-1 $-1 $443 56 8704 #
vertex $-1 $443 $563 #
ellipse-curve $564 -1.25 -0.75 1 0 -1 0 -0.25 0 0 1 I I #
loop_type-twe-attrib $-1 $-1 $-1 $444 1 #
point $-1 -1.5 -0.75 -1 #
cur-twe-attrib $-1 $-1 $-1 $447 379 #
face_name-twe-attrib $-1 $-1 $-1 $449 21 #
face $565 $234 $566 $3 $-1 $567 reversed single #
loop $568 $380 $569 $449 #
cone-surface $570 0.75 0.04250000000000000305 -1 0 1 0 -0.2655000000000000138 0 0 1 I I 0 1 0.2655000000000000138 forward I I I I #
face_name-twe-attrib $-1 $-1 $-1 $453 18 #
face $571 $572 $496 $3 $-1 $573 reversed single #
loop $574 $575 $576 $453 #
plane-surface $577 0.75 -0.3119999999999999996 -1 0 1 0 0 0 1 forward_v I I I I #
loop_type-twe-attrib $-1 $-1 $-1 $454 0 #
coedge $-1 $518 $518 $552 $578 reversed $454 $-1 #
surf-twe-attrib $-1 $-1 $-1 $455 385 #
coedge $-1 $520 $520 $457 $521 reversed $579 $-1 #
edge $580 $581 0 $581 6.283185307179586232 $520 $582 forward 7 unknown #
face_name-twe-attrib $-1 $-1 $-1 $459 31 #
loop $583 $502 $584 $459 #
cone-surface $585 -1.25 1.087499999999999911 1 0 1 0 -0.25 0 0 1 I I 0 1 0.25 forward I I I I #
surf-twe-attrib $-1 $-1 $-1 $460 390 #
loop $586 $-1 $461 $473 #
edge_name-twe-attrib $-1 $-1 $-1 $462 49 4608 #
vertex $-1 $462 $587 #
ellipse-curve $588 -1.25 0.1875 -1 0 1 0 -0.4000000000000000222 0 0 1 I I #
face_name-twe-attrib $-1 $-1 $-1 $464 29 #
loop $589 $579 $590 $464 #
plane-surface $591 -1.25 0.1875 1 0 1 0 0 0 1 forward_v I I I I #
loop_type-twe-attrib $-1 $-1 $-1 $465 0 #
coedge $-1 $534 $534 $592 $593 reversed $465 $-1 #
surf-twe-attrib $-1 $-1 $-1 $466 396 #
loop_type-twe-attrib $-1 $-1 $-1 $468 0 #
point $-1 -0.5 -0.3200000000000000067 3.06161646971843021e-17 #
cur-twe-attrib $-1 $-1 $-1 $471 399 #
face_name-twe-attrib $-1 $-1 $-1 $473 26 #
loop $594 $526 $592 $473 #
plane-surface $595 -1.25 0.1875 -1 0 -1 0 0 0 -1 forward_v I I I I #
loop_type-twe-attrib $-1 $-1 $-1 $474 0 #
loop $596 $-1 $597 $401 #
coedge $-1 $544 $544 $-1 $598 forward $474 $-1 #
surf-twe-attrib $-1 $-1 $-1 $475 401 #
loop_type-twe-attrib $-1 $-1 $-1 $477 1 #
coedge $-1 $547 $547 $597 $599 forward $477 $-1 #
coedge $-1 $548 $548 $478 $549 forward $566 $-1 #
edge $600 $601 0 $601 6.283185307179586232 $478 $602 forward 7 unknown #
cur-twe-attrib $-1 $-1 $-1 $484 414 #
loop_type-twe-attrib $-1 $-1 $-1 $487 1 #
coedge $-1 $552 $552 $518 $578 forward $487 $-1 #
edge_name-twe-attrib $-1 $-1 $-1 $491 34 4608 #
vertex $-1 $491 $603 #
ellipse-curve $604 0.75 -0.3119999999999999996 1 0 1 0 -0.40625 0 0 1 I I #
point $-1 0.4739999999999999769 -0.3119999999999999996 1 #
cur-twe-attrib $-1 $-1 $-1 $494 430 #
loop_type-twe-attrib $-1 $-1 $-1 $496 0 #
loop $605 $-1 $606 $514 #
point $-1 0.34375 0 -1 #
cur-twe-attrib $-1 $-1 $-1 $499 439 #
loop_type-twe-attrib $-1 $-1 $-1 $502 1 #
point $-1 -1.5 -0.75 1 #
cur-twe-attrib $-1 $-1 $-1 $505 444 #
face_name-twe-attrib $-1 $-1 $-1 $510 22 #
loop $607 $468 $548 $510 #
plane-surface $608 -0.75 -0.3200000000000000067 0 0 -1 0 0 0 -1 forward_v I I I I #
loop_type-twe-attrib $-1 $-1 $-1 $511 0 #
coedge $-1 $569 $569 $609 $610 forward $511 $-1 #
surf-twe-attrib $-1 $-1 $-1 $512 450 #
face_name-twe-attrib $-1 $-1 $-1 $514 19 #
face $611 $449 $612 $3 $-1 $613 reversed single #
cone-surface $614 0.75 0.04250000000000000305 -1 0 1 0 -0.40625 0 0 1 I I 0 1 0.40625 forward I I I I #
loop_type-twe-attrib $-1 $-1 $-1 $515 1 #
loop $615 $-1 $616 $453 #
coedge $-1 $576 $576 $617 $618 reversed $515 $-1 #
surf-twe-attrib $-1 $619 $-1 $516 432 #
edge $620 $621 -3.141592653589793116 $621 3.141592653589793116 $518 $622 forward 7 unknown #
loop $623 $-1 $520 $464 #
edge_name-twe-attrib $-1 $-1 $-1 $521 53 4608 #
vertex $-1 $521 $624 #
ellipse-curve $625 -1.25 0.1875 1 0 -1 0 -0.4000000000000000222 0 0 1 I I #
loop_type-twe-attrib $-1 $-1 $-1 $523 0 #
coedge $-1 $584 $584 $590 $626 forward $523 $-1 #
surf-twe-attrib $-1 $-1 $-1 $524 459 #
loop_type-twe-attrib $-1 $-1 $-1 $526 0 #
point $-1 -0.8499999999999999778 0.1875 -1 #
cur-twe-attrib $-1 $-1 $-1 $529 462 #
loop_type-twe-attrib $-1 $-1 $-1 $531 1 #
coedge $-1 $590 $590 $584 $626 reversed $531 $-1 #
surf-twe-attrib $-1 $627 $-1 $532 464 #
coedge $-1 $592 $592 $534 $593 forward $540 $-1 #
edge $628 $629 0 $629 6.283185307179586232 $534 $630 forward 7 unknown #
loop_type-twe-attrib $-1 $-1 $-1 $540 1 #
surf-twe-attrib $-1 $631 $-1 $541 464 #
loop_type-twe-attrib $-1 $-1 $-1 $543 1 #
coedge $-1 $597 $597 $547 $599 reversed $543 $-1 #
edge $632 $633 1 $633 0 $544 $-1 forward 7 unknown #
edge $634 $635 -3.141592653589793116 $635 3.141592653589793116 $597 $636 forward 7 unknown #
edge_name-twe-attrib $-1 $-1 $-1 $549 46 8704 #
vertex $-1 $549 $637 #
ellipse-curve $638 -0.75 -0.3200000000000000067 0 0 -1 0 -0.2250000000000000056 0 0 1 I I #
point $-1 1.15625 -0.3119999999999999996 1 #
cur-twe-attrib $-1 $-1 $-1 $555 491 #
loop_type-twe-attrib $-1 $-1 $-1 $559 1 #
coedge $-1 $606 $606 $616 $639 forward $559 $-1 #
loop_type-twe-attrib $-1 $-1 $-1 $566 1 #
surf-twe-attrib $-1 $-1 $-1 $567 514 #
coedge $-1 $609 $609 $569 $610 reversed $640 $-1 #
edge $641 $642 -3.141592653589793116 $642 3.141592653589793116 $569 $643 forward 7 unknown #
face_name-twe-attrib $-1 $-1 $-1 $572 20 #
loop $644 $640 $617 $572 #
cone-surface $645 0.75 -0.3119999999999999996 -1 0 1 0 -0.2760000000000000231 0 0 1 I I 0.4999999999999990008 0.8660254037844390407 0.2760000000000000231 forward I I I I #
surf-twe-attrib $-1 $-1 $-1 $573 496 #
loop_type-twe-attrib $-1 $-1 $-1 $575 0 #
coedge $-1 $616 $616 $606 $639 reversed $575 $-1 #
coedge $-1 $617 $617 $576 $618 forward $612 $-1 #
edge $646 $647 0 $647 6.283185307179586232 $617 $648 forward 7 unknown #
surf-twe-attrib $-1 $-1 $577 $516 197 #
edge_name-twe-attrib $-1 $-1 $-1 $578 37 8448 #
vertex $-1 $578 $649 #
ellipse-curve $650 0.75 -0.3301865334794730211 1 0 -1 0 -0.2655000000000000138 0 0 1 I I #
loop_type-twe-attrib $-1 $-1 $-1 $579 0 #
point $-1 -1.649999999999999911 0.1875 1 #
cur-twe-attrib $-1 $-1 $-1 $582 521 #
edge $651 $652 0 $652 6.283185307179586232 $584 $653 forward 7 unknown #
surf-twe-attrib $-1 $-1 $591 $532 473 #
edge_name-twe-attrib $-1 $-1 $-1 $593 51 8704 #
vertex $-1 $593 $654 #
ellipse-curve $655 -1.25 0.1875 -1 -1.000000000000000078e-15 -1 0 -0.25 2.500000000000000194e-16 0 1 I I #
surf-twe-attrib $-1 $-1 $595 $541 473 #
edge_name-twe-attrib $-1 $-1 $-1 $598 47 128 #
vertex $-1 $598 $656 #
edge_name-twe-attrib $-1 $-1 $-1 $599 48 4352 #
vertex $-1 $599 $657 #
ellipse-curve $658 -0.75 -0.5148063607187990387 0 0 -1 0 -0.2250000000000000056 0 0 1 I I #
point $-1 -0.9749999999999999778 -0.3200000000000000067 0 #
cur-twe-attrib $-1 $-1 $-1 $602 549 #
edge $659 $660 0 $660 6.283185307179586232 $616 $661 forward 7 unknown #
loop $662 $-1 $609 $572 #
edge_name-twe-attrib $-1 $-1 $-1 $610 42 8448 #
vertex $-1 $610 $663 #
ellipse-curve $664 0.75 -0.3301865334794730211 -1 0 1 0 -0.2655000000000000138 0 0 1 I I #
loop_type-twe-attrib $-1 $-1 $-1 $612 0 #
surf-twe-attrib $-1 $-1 $-1 $613 559 #
edge_name-twe-attrib $-1 $-1 $-1 $618 41 8448 #
vertex $-1 $618 $665 #
ellipse-curve $666 0.75 -0.3119999999999999996 -1 0 1 0 -0.2760000000000000231 0 0 1 I I #
point $-1 1.015500000000000069 -0.3301865334794730211 1 #
cur-twe-attrib $-1 $-1 $-1 $622 578 #
edge_name-twe-attrib $-1 $-1 $-1 $626 55 8704 #
vertex $-1 $626 $667 #
ellipse-curve $668 -1.25 0.1875 1 1.000000000000000078e-15 1 0 -0.25 2.500000000000000194e-16 0 1 I I #
point $-1 -1.5 0.1875 -1 #
cur-twe-attrib $-1 $-1 $-1 $630 593 #
point $-1 -0.75 -0.6500000000000000222 0 #
point $-1 -0.5250000000000000222 -0.5148063607187990387 -2.755454822746590086e-17 #
cur-twe-attrib $-1 $-1 $-1 $636 599 #
edge_name-twe-attrib $-1 $-1 $-1 $639 39 4608 #
vertex $-1 $639 $669 #
ellipse-curve $670 0.75 -0.3119999999999999996 -1 0 -1 0 -0.40625 0 0 1 I I #
loop_type-twe-attrib $-1 $-1 $-1 $640 1 #
point $-1 1.015500000000000069 -0.3301865334794730211 -1 #
cur-twe-attrib $-1 $-1 $-1 $643 619 #
point $-1 0.4739999999999999769 -0.3119999999999999996 -1 #
cur-twe-attrib $-1 $-1 $-1 $648 612 #
point $-1 -1.5 0.1875 1 #
cur-twe-attrib $-1 $-1 $-1 $653 626 #
point $-1 0.34375 -0.3119999999999999996 -1 #
cur-twe-attrib $-1 $-1 $-1 $661 642 #
End-of-ACIS-data 