104 671 0 0                             
body $-1 $1 $-1 $2 #
lump $-1 $-1 $3 $0 #
transform $-1 1 0 0 0 1 0 0 0 1 0 0 0 1 0 0 0 #
shell $-1 $-1 $-1 $4 $1 #
face $5 $6 $7 $3 $-1 $8 1 #
face_name-twe-attrib $-1 $-1 $-1 $4 1 #
face $9 $10 $11 $3 $-1 $12 0 #
loop $13 $-1 $14 $4 #
plane-surface $15 0 0 -1.6875 0 0 1 1 0 0 0 #
face_name-twe-attrib $-1 $-1 $-1 $6 2 #
face $16 $17 $18 $3 $-1 $19 0 #
loop $20 $-1 $21 $6 #
plane-surface $22 0 0 1.6875 0 0 1 1 0 0 0 #
loop_type-twe-attrib $-1 $-1 $-1 $7 0 #
coedge $-1 $23 $24 $25 $26 0 $7 $-1 #
surf-twe-attrib $-1 $-1 $-1 $8 4 #
face_name-twe-attrib $-1 $-1 $-1 $10 3 #
face $27 $28 $29 $3 $-1 $30 0 #
loop $31 $32 $25 $10 #
plane-surface $33 0 1 -1.6875 0 1 0 0 0 1 0 #
loop_type-twe-attrib $-1 $-1 $-1 $11 0 #
coedge $-1 $34 $35 $36 $37 1 $11 $-1 #
surf-twe-attrib $-1 $-1 $-1 $12 6 #
coedge $-1 $38 $14 $39 $40 0 $7 $-1 #
coedge $-1 $14 $41 $42 $43 0 $7 $-1 #
coedge $-1 $44 $45 $14 $26 1 $18 $-1 #
edge $46 $47 $48 $25 $49 0 #
face_name-twe-attrib $-1 $-1 $-1 $17 4 #
face $50 $51 $52 $3 $-1 $53 0 #
loop $54 $-1 $42 $17 #
plane-surface $55 -1.9375 1 -1.6875 -1 0 0 0 0 1 0 #
loop_type-twe-attrib $-1 $-1 $-1 $18 0 #
loop $56 $57 $58 $10 #
surf-twe-attrib $-1 $-1 $-1 $19 10 #
coedge $-1 $59 $21 $60 $61 1 $11 $-1 #
coedge $-1 $21 $62 $63 $64 1 $11 $-1 #
coedge $-1 $45 $44 $21 $37 0 $18 $-1 #
edge $65 $66 $67 $36 $68 0 #
coedge $-1 $69 $23 $70 $71 0 $7 $-1 #
coedge $-1 $72 $73 $23 $40 1 $74 $-1 #
edge $75 $48 $76 $39 $77 0 #
coedge $-1 $24 $78 $79 $80 0 $7 $-1 #
coedge $-1 $81 $82 $24 $43 1 $29 $-1 #
edge $83 $84 $47 $42 $85 0 #
coedge $-1 $36 $25 $82 $86 1 $18 $-1 #
coedge $-1 $25 $36 $72 $87 0 $18 $-1 #
edge_name-twe-attrib $-1 $-1 $-1 $26 1 8704 #
vertex $-1 $86 $88 #
vertex $-1 $87 $89 #
straight-curve $90 0 1 -1.6875 1 0 0 #
face_name-twe-attrib $-1 $-1 $-1 $28 5 #
face $91 $92 $93 $3 $-1 $94 0 #
loop $95 $96 $79 $28 #
plane-surface $97 -1.9375 -0.75 -1.6875 0 -1 0 0 0 -1 0 #
loop_type-twe-attrib $-1 $-1 $-1 $29 0 #
surf-twe-attrib $-1 $-1 $-1 $30 17 #
loop_type-twe-attrib $-1 $-1 $-1 $32 1 #
loop $98 $99 $100 $10 #
coedge $-1 $58 $58 $101 $102 1 $32 $-1 #
coedge $-1 $103 $34 $104 $105 1 $11 $-1 #
coedge $-1 $82 $81 $34 $61 0 $29 $-1 #
edge $106 $107 $66 $60 $108 0 #
coedge $-1 $35 $109 $110 $111 1 $11 $-1 #
coedge $-1 $73 $72 $35 $64 0 $74 $-1 #
edge $112 $67 $113 $63 $114 0 #
edge_name-twe-attrib $-1 $-1 $-1 $37 2 8704 #
vertex $-1 $86 $115 #
vertex $-1 $87 $116 #
straight-curve $117 0 1 1.6875 1 0 0 #
coedge $-1 $118 $38 $119 $120 0 $7 $-1 #
coedge $-1 $121 $122 $38 $71 1 $123 $-1 #
edge $124 $76 $125 $70 $126 0 #
coedge $-1 $63 $39 $45 $87 1 $74 $-1 #
coedge $-1 $39 $63 $121 $127 0 $74 $-1 #
loop $128 $-1 $39 $129 #
edge_name-twe-attrib $-1 $-1 $-1 $40 30 8704 #
vertex $-1 $127 $130 #
straight-curve $131 0 0.070710678118655 -1.6875 0 -1 0 #
coedge $-1 $41 $132 $133 $134 0 $7 $-1 #
coedge $-1 $135 $136 $41 $80 1 $52 $-1 #
edge $137 $138 $84 $79 $139 0 #
coedge $-1 $60 $42 $136 $140 1 $29 $-1 #
coedge $-1 $42 $60 $44 $86 0 $29 $-1 #
edge_name-twe-attrib $-1 $-1 $-1 $43 3 8704 #
vertex $-1 $140 $141 #
straight-curve $142 -1.9375 1 -1.6875 0 1 0 #
edge $143 $66 $47 $82 $144 0 #
edge $145 $67 $48 $72 $146 0 #
point $-1 -1.9375 1 -1.6875 #
point $-1 0 1 -1.6875 #
cur-twe-attrib $-1 $-1 $-1 $49 26 #
face_name-twe-attrib $-1 $-1 $-1 $51 6 #
face $147 $148 $149 $3 $-1 $150 0 #
loop $151 $-1 $133 $51 #
plane-surface $152 1.4375 -0.75 -1.6875 1 0 0 0 0 -1 0 #
loop_type-twe-attrib $-1 $-1 $-1 $52 0 #
loop $153 $154 $155 $28 #
surf-twe-attrib $-1 $-1 $-1 $53 28 #
loop_type-twe-attrib $-1 $-1 $-1 $57 1 #
loop $156 $-1 $157 $10 #
coedge $-1 $100 $100 $158 $159 1 $57 $-1 #
coedge $-1 $101 $101 $58 $102 0 $160 $-1 #
edge $161 $162 $162 $101 $163 0 #
coedge $-1 $164 $59 $165 $166 1 $11 $-1 #
coedge $-1 $136 $135 $59 $105 0 $52 $-1 #
edge $167 $168 $107 $104 $169 0 #
edge_name-twe-attrib $-1 $-1 $-1 $61 4 8704 #
vertex $-1 $140 $170 #
straight-curve $171 -1.9375 1 1.6875 0 1 0 #
coedge $-1 $62 $172 $173 $174 1 $11 $-1 #
coedge $-1 $122 $121 $62 $111 0 $123 $-1 #
edge $175 $113 $176 $110 $177 0 #
edge_name-twe-attrib $-1 $-1 $-1 $64 32 8704 #
vertex $-1 $127 $178 #
straight-curve $179 0 0.070710678118655 1.6875 0 -1 0 #
point $-1 -1.9375 1 1.6875 #
point $-1 0 1 1.6875 #
cur-twe-attrib $-1 $-1 $-1 $68 37 #
coedge $-1 $180 $69 $181 $182 0 $7 $-1 #
coedge $-1 $183 $184 $69 $120 1 $185 $-1 #
edge $186 $125 $187 $119 $188 0 #
coedge $-1 $110 $70 $73 $127 1 $123 $-1 #
coedge $-1 $70 $110 $183 $189 0 $123 $-1 #
loop $190 $-1 $70 $191 #
edge_name-twe-attrib $-1 $-1 $-1 $71 27 8704 #
vertex $-1 $189 $192 #
straight-curve $193 -0.0424264068711621 0.0282842712474627 -1.6875 -0.707106781186296 -0.707106781186799 0 #
edge $194 $113 $76 $73 $195 0 #
loop_type-twe-attrib $-1 $-1 $-1 $74 0 #
face $196 $197 $74 $3 $-1 $198 0 #
point $-1 0 0.070710678118655 -1.6875 #
cur-twe-attrib $-1 $-1 $-1 $77 40 #
coedge $-1 $78 $199 $200 $201 0 $7 $-1 #
coedge $-1 $202 $203 $78 $134 1 $93 $-1 #
edge $204 $205 $138 $133 $206 0 #
coedge $-1 $104 $79 $203 $207 1 $52 $-1 #
coedge $-1 $79 $104 $81 $140 0 $52 $-1 #
edge_name-twe-attrib $-1 $-1 $-1 $80 6 8704 #
vertex $-1 $207 $208 #
straight-curve $209 -1.9375 -0.75 -1.6875 -1 0 0 #
edge $210 $107 $84 $136 $211 0 #
point $-1 -1.9375 -0.75 -1.6875 #
cur-twe-attrib $-1 $-1 $-1 $85 43 #
edge_name-twe-attrib $-1 $-1 $-1 $86 5 8704 #
straight-curve $212 -1.9375 1 -1.6875 0 0 -1 #
edge_name-twe-attrib $-1 $-1 $-1 $87 31 8704 #
straight-curve $213 0 1 -1.6875 0 0 -1 #
face_name-twe-attrib $-1 $-1 $-1 $92 7 #
face $214 $215 $216 $3 $-1 $217 0 #
loop $218 $219 $200 $92 #
plane-surface $220 1.4375 0 -1.6875 0 1 0 0 0 1 0 #
loop_type-twe-attrib $-1 $-1 $-1 $93 0 #
surf-twe-attrib $-1 $-1 $-1 $94 51 #
loop_type-twe-attrib $-1 $-1 $-1 $96 1 #
loop $221 $222 $223 $28 #
coedge $-1 $155 $155 $224 $225 0 $96 $-1 #
loop_type-twe-attrib $-1 $-1 $-1 $99 1 #
coedge $-1 $157 $157 $226 $227 0 $99 $-1 #
coedge $-1 $158 $158 $100 $159 0 $228 $-1 #
edge $229 $230 $230 $158 $231 0 #
loop $232 $233 $101 $234 #
edge_name-twe-attrib $-1 $-1 $-1 $102 45 8704 #
vertex $-1 $102 $235 #
ellipse-curve $236 -0.75 1 0 0 1 0 -0.25 0 0 1 #
coedge $-1 $237 $103 $238 $239 1 $11 $-1 #
coedge $-1 $203 $202 $103 $166 0 $93 $-1 #
edge $240 $241 $168 $165 $242 0 #
edge_name-twe-attrib $-1 $-1 $-1 $105 7 8704 #
vertex $-1 $207 $243 #
straight-curve $244 -1.9375 -0.75 1.6875 -1 0 0 #
point $-1 -1.9375 -0.75 1.6875 #
cur-twe-attrib $-1 $-1 $-1 $108 61 #
coedge $-1 $109 $245 $246 $247 1 $11 $-1 #
coedge $-1 $184 $183 $109 $174 0 $185 $-1 #
edge $248 $176 $249 $173 $250 0 #
edge_name-twe-attrib $-1 $-1 $-1 $111 28 8704 #
vertex $-1 $189 $251 #
straight-curve $252 -0.042426406871162 0.028284271247463 1.6875 -0.707106781186298 -0.707106781186798 0 #
point $-1 0 0.070710678118655 1.6875 #
cur-twe-attrib $-1 $-1 $-1 $114 64 #
coedge $-1 $199 $118 $253 $254 0 $7 $-1 #
coedge $-1 $255 $256 $118 $182 1 $257 $-1 #
edge $258 $187 $259 $181 $260 0 #
coedge $-1 $173 $119 $122 $189 1 $185 $-1 #
coedge $-1 $119 $173 $255 $261 0 $185 $-1 #
loop $262 $-1 $119 $263 #
edge_name-twe-attrib $-1 $-1 $-1 $120 24 8704 #
vertex $-1 $261 $264 #
ellipse-curve $265 -0.014142135623701 0 -1.6875 0 0 1 -0.0282842712474615 -0.0282842712474623 0 1 #
edge $266 $176 $125 $122 $267 0 #
loop_type-twe-attrib $-1 $-1 $-1 $123 0 #
face $268 $129 $123 $3 $-1 $269 0 #
point $-1 -0.0424264068711621 0.0282842712474627 -1.6875 #
cur-twe-attrib $-1 $-1 $-1 $126 71 #
edge_name-twe-attrib $-1 $-1 $-1 $127 33 8448 #
straight-curve $270 0 0.070710678118655 -1.6875 0 0 -1 #
face_name-twe-attrib $-1 $-1 $-1 $129 13 #
face $271 $272 $273 $3 $-1 $274 1 #
plane-surface $275 0 0.070710678118655 -1.6875 1 0 0 0 0 -1 0 #
coedge $-1 $132 $180 $276 $277 0 $7 $-1 #
coedge $-1 $278 $279 $132 $201 1 $149 $-1 #
edge $280 $281 $205 $200 $282 0 #
coedge $-1 $165 $133 $279 $283 1 $93 $-1 #
coedge $-1 $133 $165 $135 $207 0 $93 $-1 #
edge_name-twe-attrib $-1 $-1 $-1 $134 9 8704 #
vertex $-1 $283 $284 #
straight-curve $285 1.4375 -0.75 -1.6875 0 -1 0 #
edge $286 $168 $138 $203 $287 0 #
point $-1 1.4375 -0.75 -1.6875 #
cur-twe-attrib $-1 $-1 $-1 $139 80 #
edge_name-twe-attrib $-1 $-1 $-1 $140 8 8704 #
straight-curve $288 -1.9375 -0.75 -1.6875 0 0 -1 #
cur-twe-attrib $-1 $-1 $-1 $144 86 #
cur-twe-attrib $-1 $-1 $-1 $146 87 #
face_name-twe-attrib $-1 $-1 $-1 $148 8 #
face $289 $290 $291 $3 $-1 $292 1 #
loop $293 $-1 $276 $148 #
plane-surface $294 0.070710678118655 0 -1.6875 -0.707106781186302 0.707106781186793 0 0 0 1 0 #
loop_type-twe-attrib $-1 $-1 $-1 $149 0 #
loop $295 $296 $297 $92 #
surf-twe-attrib $-1 $-1 $-1 $150 92 #
loop_type-twe-attrib $-1 $-1 $-1 $154 1 #
loop $298 $299 $300 $28 #
coedge $-1 $223 $223 $301 $302 1 $154 $-1 #
coedge $-1 $224 $224 $155 $225 1 $303 $-1 #
edge $304 $305 $305 $224 $306 0 #
coedge $-1 $226 $226 $157 $227 1 $307 $-1 #
edge $308 $309 $309 $226 $310 0 #
loop $311 $312 $158 $313 #
edge_name-twe-attrib $-1 $-1 $-1 $159 50 8704 #
vertex $-1 $159 $314 #
ellipse-curve $315 -1.25 1 -1 0 1 0 -0.4 0 0 1 #
loop_type-twe-attrib $-1 $-1 $-1 $160 0 #
loop $316 $-1 $317 $234 #
face $318 $319 $160 $3 $-1 $320 1 #
point $-1 -1 1 0 #
cur-twe-attrib $-1 $-1 $-1 $163 102 #
coedge $-1 $245 $164 $321 $322 1 $11 $-1 #
coedge $-1 $279 $278 $164 $239 0 $149 $-1 #
edge $323 $324 $241 $238 $325 0 #
edge_name-twe-attrib $-1 $-1 $-1 $166 10 8704 #
vertex $-1 $283 $326 #
straight-curve $327 1.4375 -0.75 1.6875 0 -1 0 #
point $-1 1.4375 -0.75 1.6875 #
cur-twe-attrib $-1 $-1 $-1 $169 105 #
coedge $-1 $172 $237 $328 $329 1 $11 $-1 #
coedge $-1 $256 $255 $172 $247 0 $257 $-1 #
edge $330 $249 $331 $246 $332 0 #
edge_name-twe-attrib $-1 $-1 $-1 $174 25 8704 #
vertex $-1 $261 $333 #
ellipse-curve $334 -0.014142135623701 0 1.6875 0 0 1 -0.0282842712474615 -0.0282842712474623 0 1 #
point $-1 -0.042426406871162 0.028284271247463 1.6875 #
cur-twe-attrib $-1 $-1 $-1 $177 111 #
coedge $-1 $335 $336 $180 $254 1 $291 $-1 #
edge $337 $259 $338 $253 $339 0 #
coedge $-1 $246 $181 $184 $261 1 $257 $-1 #
coedge $-1 $181 $246 $335 $340 0 $257 $-1 #
loop $341 $-1 $181 $290 #
edge_name-twe-attrib $-1 $-1 $-1 $182 21 8704 #
vertex $-1 $340 $342 #
straight-curve $343 -0.0282842712474616 -0.0424264068711632 -1.6875 0.707106781186552 -0.707106781186543 0 #
edge $344 $249 $187 $184 $345 0 #
loop_type-twe-attrib $-1 $-1 $-1 $185 0 #
face $346 $191 $185 $3 $-1 $347 1 #
point $-1 -0.042426406871163 -0.028284271247462 -1.6875 #
cur-twe-attrib $-1 $-1 $-1 $188 120 #
edge_name-twe-attrib $-1 $-1 $-1 $189 29 20480 #
straight-curve $348 -0.0424264068711621 0.0282842712474627 -1.6875 -4.31753398465339e-17 -1.00742459641912e-16 -1 #
face_name-twe-attrib $-1 $-1 $-1 $191 12 #
plane-surface $349 -0.042426406871163 0.028284271247462 -1.6875 0.707106781186794 -0.707106781186301 0 0 0 -1 0 #
cur-twe-attrib $-1 $-1 $-1 $195 127 #
face_name-twe-attrib $-1 $-1 $-1 $197 14 #
face $350 $351 $352 $3 $-1 $353 1 #
loop $354 $355 $356 $197 #
plane-surface $357 0.75 -0.312 1 0 -1 0 0 0 -1 0 #
surf-twe-attrib $-1 $-1 $-1 $198 129 #
coedge $-1 $358 $359 $199 $277 1 $216 $-1 #
edge $360 $338 $281 $276 $361 0 #
coedge $-1 $238 $200 $359 $362 1 $149 $-1 #
coedge $-1 $200 $238 $202 $283 0 $149 $-1 #
edge_name-twe-attrib $-1 $-1 $-1 $201 12 8704 #
vertex $-1 $362 $363 #
straight-curve $364 1.4375 0 -1.6875 1 0 0 #
edge $365 $241 $205 $279 $366 0 #
point $-1 1.4375 0 -1.6875 #
cur-twe-attrib $-1 $-1 $-1 $206 134 #
edge_name-twe-attrib $-1 $-1 $-1 $207 11 8704 #
straight-curve $367 1.4375 -0.75 -1.6875 0 0 -1 #
cur-twe-attrib $-1 $-1 $-1 $211 140 #
face_name-twe-attrib $-1 $-1 $-1 $215 9 #
face $368 $263 $257 $3 $-1 $369 0 #
loop $370 $-1 $253 $215 #
cone-surface $371 0 -0.014142135623701 -1.6875 0 0 1 0.04 0 0 1 0 1 0 #
loop_type-twe-attrib $-1 $-1 $-1 $216 0 #
surf-twe-attrib $-1 $-1 $-1 $217 148 #
loop_type-twe-attrib $-1 $-1 $-1 $219 1 #
loop $372 $-1 $373 $92 #
coedge $-1 $297 $297 $374 $375 1 $219 $-1 #
loop_type-twe-attrib $-1 $-1 $-1 $222 1 #
loop $376 $-1 $377 $28 #
coedge $-1 $300 $300 $378 $379 0 $222 $-1 #
coedge $-1 $301 $301 $223 $302 0 $380 $-1 #
edge $381 $382 $382 $301 $383 0 #
loop $384 $-1 $224 $385 #
edge_name-twe-attrib $-1 $-1 $-1 $225 38 8704 #
vertex $-1 $225 $386 #
ellipse-curve $387 0.75 -0.75 1 0 1 0 0.2655 0 0 1 #
loop $388 $389 $226 $390 #
edge_name-twe-attrib $-1 $-1 $-1 $227 54 8704 #
vertex $-1 $227 $391 #
ellipse-curve $392 -1.25 1 1 0 -1 0 0.4 0 0 1 #
loop_type-twe-attrib $-1 $-1 $-1 $228 0 #
loop $393 $-1 $394 $313 #
face $395 $396 $228 $3 $-1 $397 1 #
point $-1 -1.65 1 -1 #
cur-twe-attrib $-1 $-1 $-1 $231 159 #
loop_type-twe-attrib $-1 $-1 $-1 $233 1 #
coedge $-1 $317 $317 $398 $399 1 $233 $-1 #
face_name-twe-attrib $-1 $-1 $-1 $234 23 #
face $400 $401 $402 $3 $-1 $403 1 #
cone-surface $404 -0.75 1.0825 0 0 -1 0 -0.25 0 0 1 0 1 0 #
coedge $-1 $359 $358 $237 $322 0 $216 $-1 #
edge $405 $406 $324 $321 $407 0 #
edge_name-twe-attrib $-1 $-1 $-1 $239 13 8704 #
vertex $-1 $362 $408 #
straight-curve $409 1.4375 0 1.6875 1 0 0 #
point $-1 1.4375 0 1.6875 #
cur-twe-attrib $-1 $-1 $-1 $242 166 #
coedge $-1 $336 $335 $245 $329 0 $291 $-1 #
edge $410 $331 $406 $328 $411 0 #
edge_name-twe-attrib $-1 $-1 $-1 $247 22 8704 #
vertex $-1 $340 $412 #
straight-curve $413 -0.028284271247462 -0.042426406871163 1.6875 0.707106781186542 -0.707106781186553 0 #
point $-1 -0.0424264068711625 -0.0282842712474623 1.6875 #
cur-twe-attrib $-1 $-1 $-1 $250 174 #
coedge $-1 $328 $253 $256 $340 1 $291 $-1 #
coedge $-1 $253 $328 $358 $414 0 $291 $-1 #
edge_name-twe-attrib $-1 $-1 $-1 $254 18 8704 #
vertex $-1 $414 $415 #
ellipse-curve $416 0 -0.014142135623701 -1.6875 0 0 1 0.0282842712474624 -0.0282842712474614 0 1 #
edge $417 $331 $259 $256 $418 0 #
loop_type-twe-attrib $-1 $-1 $-1 $257 0 #
point $-1 -0.0282842712474616 -0.0424264068711632 -1.6875 #
cur-twe-attrib $-1 $-1 $-1 $260 182 #
edge_name-twe-attrib $-1 $-1 $-1 $261 26 20480 #
straight-curve $419 -0.042426406871163 -0.028284271247462 -1.6875 -1.43917799488446e-16 8.22387425648264e-17 -1 #
face_name-twe-attrib $-1 $-1 $-1 $263 11 #
cone-surface $420 -0.014142135623701 0 -1.6875 0 0 1 0.04 0 0 1 0 1 0 #
cur-twe-attrib $-1 $-1 $-1 $267 189 #
surf-twe-attrib $-1 $-1 $-1 $269 191 #
face_name-twe-attrib $-1 $-1 $-1 $272 15 #
face $421 $385 $422 $3 $-1 $423 1 #
loop $424 $425 $374 $272 #
cone-surface $426 0.75 0.0425 1 0 -1 0 -0.40625 0 0 1 0 1 0 #
loop_type-twe-attrib $-1 $-1 $-1 $273 1 #
loop $427 $-1 $428 $197 #
coedge $-1 $356 $356 $429 $430 0 $273 $-1 #
surf-twe-attrib $-1 $431 $-1 $274 432 #
coedge $-1 $321 $276 $336 $414 1 $216 $-1 #
coedge $-1 $276 $321 $278 $362 0 $216 $-1 #
edge_name-twe-attrib $-1 $-1 $-1 $277 15 8704 #
straight-curve $433 0.070710678118655 0 -1.6875 0.707106781186789 0.707106781186306 0 #
edge $434 $324 $281 $359 $435 0 #
point $-1 0.070710678118655 0 -1.6875 #
cur-twe-attrib $-1 $-1 $-1 $282 201 #
edge_name-twe-attrib $-1 $-1 $-1 $283 14 8704 #
straight-curve $436 1.4375 0 -1.6875 0 0 -1 #
cur-twe-attrib $-1 $-1 $-1 $287 207 #
face_name-twe-attrib $-1 $-1 $-1 $290 10 #
plane-surface $437 -0.028284271247462 -0.042426406871163 -1.6875 0.707106781186548 0.707106781186547 0 0 0 -1 0 #
loop_type-twe-attrib $-1 $-1 $-1 $291 0 #
surf-twe-attrib $-1 $-1 $-1 $292 215 #
loop_type-twe-attrib $-1 $-1 $-1 $296 1 #
coedge $-1 $373 $373 $438 $439 0 $296 $-1 #
coedge $-1 $374 $374 $297 $375 0 $352 $-1 #
edge $440 $441 $441 $374 $442 0 #
loop_type-twe-attrib $-1 $-1 $-1 $299 1 #
coedge $-1 $377 $377 $443 $444 1 $299 $-1 #
coedge $-1 $378 $378 $300 $379 1 $445 $-1 #
edge $446 $447 $447 $378 $448 0 #
loop $449 $-1 $301 $450 #
edge_name-twe-attrib $-1 $-1 $-1 $302 43 8704 #
vertex $-1 $302 $451 #
ellipse-curve $452 0.75 -0.75 -1 0 -1 0 -0.2655 0 0 1 #
loop_type-twe-attrib $-1 $-1 $-1 $303 1 #
face $453 $432 $454 $3 $-1 $455 1 #
point $-1 0.4845 -0.75 1 #
cur-twe-attrib $-1 $-1 $-1 $306 225 #
loop_type-twe-attrib $-1 $-1 $-1 $307 0 #
loop $456 $-1 $457 $390 #
face $458 $459 $307 $3 $-1 $460 1 #
point $-1 -1.65 1 1 #
cur-twe-attrib $-1 $-1 $-1 $310 227 #
loop_type-twe-attrib $-1 $-1 $-1 $312 1 #
coedge $-1 $394 $394 $461 $462 1 $312 $-1 #
face_name-twe-attrib $-1 $-1 $-1 $313 27 #
face $463 $464 $465 $3 $-1 $466 1 #
cone-surface $467 -1.25 1.0875 -1 0 -1 0 -0.4 0 0 1 0 1 0 #
coedge $-1 $398 $398 $317 $399 0 $468 $-1 #
edge $469 $470 $470 $398 $471 0 #
face_name-twe-attrib $-1 $-1 $-1 $319 24 #
face $472 $473 $474 $3 $-1 $475 1 #
loop $476 $477 $478 $319 #
cone-surface $479 -0.75 1.0825 0 0 -1 0 -0.225 0 0 1 0 1 0 #
surf-twe-attrib $-1 $-1 $-1 $320 234 #
edge_name-twe-attrib $-1 $-1 $-1 $322 16 8704 #
vertex $-1 $414 $480 #
straight-curve $481 0.070710678118655 0 1.6875 0.707106781186799 0.707106781186296 0 #
point $-1 0.070710678118655 0 1.6875 #
cur-twe-attrib $-1 $-1 $-1 $325 239 #
edge_name-twe-attrib $-1 $-1 $-1 $329 19 8704 #
ellipse-curve $482 0 -0.014142135623701 1.6875 0 0 1 0.0282842712474624 -0.0282842712474614 0 1 #
point $-1 -0.028284271247462 -0.042426406871163 1.6875 #
cur-twe-attrib $-1 $-1 $-1 $332 247 #
edge $483 $406 $338 $336 $484 0 #
point $-1 0.028284271247463 -0.042426406871163 -1.6875 #
cur-twe-attrib $-1 $-1 $-1 $339 254 #
edge_name-twe-attrib $-1 $-1 $-1 $340 23 20480 #
straight-curve $485 -0.0282842712474616 -0.0424264068711632 -1.6875 1.09994318180455e-16 -5.13992141030165e-17 -1 #
cur-twe-attrib $-1 $-1 $-1 $345 261 #
surf-twe-attrib $-1 $-1 $-1 $347 263 #
face_name-twe-attrib $-1 $-1 $-1 $351 16 #
loop $486 $487 $429 $351 #
cone-surface $488 0.75 -0.312 1 0 1 0 -0.276 0 0 1 0.5 0.866025403784439 0 #
loop_type-twe-attrib $-1 $-1 $-1 $352 0 #
loop $489 $-1 $490 $272 #
surf-twe-attrib $-1 $-1 $-1 $353 272 #
loop_type-twe-attrib $-1 $-1 $-1 $355 0 #
coedge $-1 $428 $428 $490 $491 0 $355 $-1 #
coedge $-1 $429 $429 $356 $430 1 $422 $-1 #
edge $492 $493 $493 $429 $494 0 #
surf-twe-attrib $-1 $-1 $357 $274 197 #
face $495 $496 $497 $3 $-1 $498 0 #
cur-twe-attrib $-1 $-1 $-1 $361 277 #
edge_name-twe-attrib $-1 $-1 $-1 $362 17 8448 #
straight-curve $499 0.070710678118655 0 -1.6875 0 0 -1 #
cur-twe-attrib $-1 $-1 $-1 $366 283 #
surf-twe-attrib $-1 $-1 $-1 $369 290 #
coedge $-1 $438 $438 $373 $439 1 $500 $-1 #
edge $501 $502 $502 $438 $503 0 #
edge_name-twe-attrib $-1 $-1 $-1 $375 35 8704 #
vertex $-1 $375 $504 #
ellipse-curve $505 0.75 0 1 0 1 0 -0.40625 0 0 1 #
coedge $-1 $443 $443 $377 $444 0 $506 $-1 #
edge $507 $508 $508 $443 $509 0 #
loop $510 $-1 $378 $396 #
edge_name-twe-attrib $-1 $-1 $-1 $379 52 8704 #
vertex $-1 $379 $511 #
ellipse-curve $512 -1.25 -0.75 -1 0 1 0 0.25 0 0 1 #
loop_type-twe-attrib $-1 $-1 $-1 $380 1 #
face $513 $514 $515 $3 $-1 $516 1 #
point $-1 0.4845 -0.75 -1 #
cur-twe-attrib $-1 $-1 $-1 $383 302 #
face_name-twe-attrib $-1 $-1 $-1 $385 17 #
loop $517 $303 $518 $385 #
cone-surface $519 0.75 0.0425 1 0 -1 0 -0.2655 0 0 1 0 1 0 #
loop_type-twe-attrib $-1 $-1 $-1 $389 1 #
coedge $-1 $457 $457 $520 $521 0 $389 $-1 #
face_name-twe-attrib $-1 $-1 $-1 $390 30 #
face $522 $-1 $523 $3 $-1 $524 1 #
cone-surface $525 -1.25 1.0875 1 0 1 0 -0.4 0 0 1 0 1 0 #
coedge $-1 $461 $461 $394 $462 0 $526 $-1 #
edge $527 $528 $528 $461 $529 0 #
face_name-twe-attrib $-1 $-1 $-1 $396 28 #
face $530 $390 $531 $3 $-1 $532 0 #
loop $533 $445 $534 $396 #
cone-surface $535 -1.25 1.0875 -1 0 -1 0 -0.25 0 0 1 0 1 0 #
surf-twe-attrib $-1 $-1 $-1 $397 313 #
loop $536 $-1 $398 $514 #
edge_name-twe-attrib $-1 $-1 $-1 $399 44 4608 #
vertex $-1 $399 $537 #
ellipse-curve $538 -0.75 -0.32 0 0 1 0 -0.25 0 0 1 #
face_name-twe-attrib $-1 $-1 $-1 $401 25 #
face $539 $313 $540 $3 $-1 $541 1 #
loop $542 $543 $544 $401 #
cone-surface $545 -0.75 -0.514806360718799 0 0 1 0 -0.225 0 0 1 0.857167300702112 0.515038074910054 0 #
loop_type-twe-attrib $-1 $-1 $-1 $402 0 #
loop $546 $-1 $547 $319 #
coedge $-1 $478 $478 $548 $549 1 $402 $-1 #
surf-twe-attrib $-1 $-1 $-1 $403 319 #
point $-1 0.0282842712474624 -0.0424264068711624 1.6875 #
cur-twe-attrib $-1 $-1 $-1 $407 322 #
cur-twe-attrib $-1 $-1 $-1 $411 329 #
edge_name-twe-attrib $-1 $-1 $-1 $414 20 20480 #
straight-curve $550 0.028284271247463 -0.042426406871163 -1.6875 1.67561437975834e-16 -1.91205076463221e-16 -1 #
cur-twe-attrib $-1 $-1 $-1 $418 340 #
loop_type-twe-attrib $-1 $-1 $-1 $422 0 #
loop $551 $-1 $552 $351 #
surf-twe-attrib $-1 $-1 $-1 $423 351 #
loop_type-twe-attrib $-1 $-1 $-1 $425 1 #
coedge $-1 $490 $490 $428 $491 1 $425 $-1 #
edge $553 $554 $554 $428 $555 0 #
edge_name-twe-attrib $-1 $-1 $-1 $430 36 8448 #
vertex $-1 $430 $556 #
ellipse-curve $557 0.75 -0.312 1 0 -1 0 -0.276 0 0 1 #
face_name-twe-attrib $-1 $-1 $-1 $432 18 #
face $558 $559 $500 $3 $-1 $560 1 #
loop $561 $562 $563 $432 #
plane-surface $564 0.75 -0.312 -1 0 1 0 0 0 1 0 #
cur-twe-attrib $-1 $-1 $-1 $435 362 #
loop $565 $566 $438 $496 #
edge_name-twe-attrib $-1 $-1 $-1 $439 40 8704 #
vertex $-1 $439 $567 #
ellipse-curve $568 0.75 0 -1 0 -1 0 0.40625 0 0 1 #
point $-1 0.34375 0 1 #
cur-twe-attrib $-1 $-1 $-1 $442 375 #
loop $569 $-1 $443 $459 #
edge_name-twe-attrib $-1 $-1 $-1 $444 56 8704 #
vertex $-1 $444 $570 #
ellipse-curve $571 -1.25 -0.75 1 0 -1 0 -0.25 0 0 1 #
loop_type-twe-attrib $-1 $-1 $-1 $445 1 #
point $-1 -1.5 -0.75 -1 #
cur-twe-attrib $-1 $-1 $-1 $448 379 #
face_name-twe-attrib $-1 $-1 $-1 $450 21 #
face $572 $234 $573 $3 $-1 $574 1 #
loop $575 $380 $576 $450 #
cone-surface $577 0.75 0.0425 -1 0 1 0 -0.2655 0 0 1 0 1 0 #
loop_type-twe-attrib $-1 $-1 $-1 $454 0 #
coedge $-1 $518 $518 $552 $578 1 $454 $-1 #
surf-twe-attrib $-1 $-1 $-1 $455 385 #
coedge $-1 $520 $520 $457 $521 1 $579 $-1 #
edge $580 $581 $581 $520 $582 0 #
face_name-twe-attrib $-1 $-1 $-1 $459 31 #
loop $583 $506 $584 $459 #
cone-surface $585 -1.25 1.0875 1 0 1 0 -0.25 0 0 1 0 1 0 #
surf-twe-attrib $-1 $-1 $-1 $460 390 #
loop $586 $-1 $461 $473 #
edge_name-twe-attrib $-1 $-1 $-1 $462 49 4608 #
vertex $-1 $462 $587 #
ellipse-curve $588 -1.25 0.1875 -1 0 1 0 -0.4 0 0 1 #
face_name-twe-attrib $-1 $-1 $-1 $464 29 #
loop $589 $579 $590 $464 #
plane-surface $591 -1.25 0.1875 1 0 1 0 0 0 1 0 #
loop_type-twe-attrib $-1 $-1 $-1 $465 0 #
coedge $-1 $534 $534 $592 $593 1 $465 $-1 #
surf-twe-attrib $-1 $-1 $-1 $466 396 #
loop_type-twe-attrib $-1 $-1 $-1 $468 0 #
point $-1 -0.5 -0.32 3.06161646971843e-17 #
cur-twe-attrib $-1 $-1 $-1 $471 399 #
face_name-twe-attrib $-1 $-1 $-1 $473 26 #
loop $594 $526 $592 $473 #
plane-surface $595 -1.25 0.1875 -1 0 -1 0 0 0 -1 0 #
loop_type-twe-attrib $-1 $-1 $-1 $474 0 #
loop $596 $-1 $597 $401 #
coedge $-1 $544 $544 $-1 $598 0 $474 $-1 #
surf-twe-attrib $-1 $-1 $-1 $475 401 #
loop_type-twe-attrib $-1 $-1 $-1 $477 1 #
coedge $-1 $547 $547 $597 $599 0 $477 $-1 #
coedge $-1 $548 $548 $478 $549 0 $573 $-1 #
edge $600 $601 $601 $478 $602 0 #
cur-twe-attrib $-1 $-1 $-1 $484 414 #
loop_type-twe-attrib $-1 $-1 $-1 $487 1 #
coedge $-1 $552 $552 $518 $578 0 $487 $-1 #
edge_name-twe-attrib $-1 $-1 $-1 $491 34 4608 #
vertex $-1 $491 $603 #
ellipse-curve $604 0.75 -0.312 1 0 1 0 -0.40625 0 0 1 #
point $-1 0.474 -0.312 1 #
cur-twe-attrib $-1 $-1 $-1 $494 430 #
face_name-twe-attrib $-1 $-1 $-1 $496 19 #
face $605 $450 $606 $3 $-1 $607 1 #
cone-surface $608 0.75 0.0425 -1 0 1 0 -0.40625 0 0 1 0 1 0 #
loop_type-twe-attrib $-1 $-1 $-1 $497 1 #
loop $609 $-1 $610 $432 #
coedge $-1 $563 $563 $611 $612 1 $497 $-1 #
surf-twe-attrib $-1 $613 $-1 $498 432 #
loop_type-twe-attrib $-1 $-1 $-1 $500 0 #
loop $614 $-1 $615 $496 #
point $-1 0.34375 0 -1 #
cur-twe-attrib $-1 $-1 $-1 $503 439 #
loop_type-twe-attrib $-1 $-1 $-1 $506 1 #
point $-1 -1.5 -0.75 1 #
cur-twe-attrib $-1 $-1 $-1 $509 444 #
face_name-twe-attrib $-1 $-1 $-1 $514 22 #
loop $616 $468 $548 $514 #
plane-surface $617 -0.75 -0.32 0 0 -1 0 0 0 -1 0 #
loop_type-twe-attrib $-1 $-1 $-1 $515 0 #
coedge $-1 $576 $576 $618 $619 0 $515 $-1 #
surf-twe-attrib $-1 $-1 $-1 $516 450 #
edge $620 $621 $621 $518 $622 0 #
loop $623 $-1 $520 $464 #
edge_name-twe-attrib $-1 $-1 $-1 $521 53 4608 #
vertex $-1 $521 $624 #
ellipse-curve $625 -1.25 0.1875 1 0 -1 0 -0.4 0 0 1 #
loop_type-twe-attrib $-1 $-1 $-1 $523 0 #
coedge $-1 $584 $584 $590 $626 0 $523 $-1 #
surf-twe-attrib $-1 $-1 $-1 $524 459 #
loop_type-twe-attrib $-1 $-1 $-1 $526 0 #
point $-1 -0.85 0.1875 -1 #
cur-twe-attrib $-1 $-1 $-1 $529 462 #
loop_type-twe-attrib $-1 $-1 $-1 $531 1 #
coedge $-1 $590 $590 $584 $626 1 $531 $-1 #
surf-twe-attrib $-1 $627 $-1 $532 464 #
coedge $-1 $592 $592 $534 $593 0 $540 $-1 #
edge $628 $629 $629 $534 $630 0 #
loop_type-twe-attrib $-1 $-1 $-1 $540 1 #
surf-twe-attrib $-1 $631 $-1 $541 464 #
loop_type-twe-attrib $-1 $-1 $-1 $543 1 #
coedge $-1 $597 $597 $547 $599 1 $543 $-1 #
edge $632 $633 $633 $544 $-1 0 #
edge $634 $635 $635 $597 $636 0 #
edge_name-twe-attrib $-1 $-1 $-1 $549 46 8704 #
vertex $-1 $549 $637 #
ellipse-curve $638 -0.75 -0.32 0 0 -1 0 -0.225 0 0 1 #
point $-1 1.15625 -0.312 1 #
cur-twe-attrib $-1 $-1 $-1 $555 491 #
face_name-twe-attrib $-1 $-1 $-1 $559 20 #
loop $639 $640 $611 $559 #
cone-surface $641 0.75 -0.312 -1 0 1 0 -0.276 0 0 1 0.499999999999999 0.866025403784439 0 #
surf-twe-attrib $-1 $-1 $-1 $560 496 #
loop_type-twe-attrib $-1 $-1 $-1 $562 0 #
coedge $-1 $610 $610 $615 $642 1 $562 $-1 #
coedge $-1 $611 $611 $563 $612 0 $606 $-1 #
edge $643 $644 $644 $611 $645 0 #
surf-twe-attrib $-1 $-1 $564 $498 197 #
loop_type-twe-attrib $-1 $-1 $-1 $566 1 #
coedge $-1 $615 $615 $610 $642 0 $566 $-1 #
loop_type-twe-attrib $-1 $-1 $-1 $573 1 #
surf-twe-attrib $-1 $-1 $-1 $574 514 #
coedge $-1 $618 $618 $576 $619 1 $640 $-1 #
edge $646 $647 $647 $576 $648 0 #
edge_name-twe-attrib $-1 $-1 $-1 $578 37 8448 #
vertex $-1 $578 $649 #
ellipse-curve $650 0.75 -0.330186533479473 1 0 -1 0 -0.2655 0 0 1 #
loop_type-twe-attrib $-1 $-1 $-1 $579 0 #
point $-1 -1.65 0.1875 1 #
cur-twe-attrib $-1 $-1 $-1 $582 521 #
edge $651 $652 $652 $584 $653 0 #
surf-twe-attrib $-1 $-1 $591 $532 473 #
edge_name-twe-attrib $-1 $-1 $-1 $593 51 8704 #
vertex $-1 $593 $654 #
ellipse-curve $655 -1.25 0.1875 -1 -1e-15 -1 0 -0.25 2.5e-16 0 1 #
surf-twe-attrib $-1 $-1 $595 $541 473 #
edge_name-twe-attrib $-1 $-1 $-1 $598 47 128 #
vertex $-1 $598 $656 #
edge_name-twe-attrib $-1 $-1 $-1 $599 48 4352 #
vertex $-1 $599 $657 #
ellipse-curve $658 -0.75 -0.514806360718799 0 0 -1 0 -0.225 0 0 1 #
point $-1 -0.975 -0.32 0 #
cur-twe-attrib $-1 $-1 $-1 $602 549 #
loop_type-twe-attrib $-1 $-1 $-1 $606 0 #
loop $659 $-1 $618 $559 #
surf-twe-attrib $-1 $-1 $-1 $607 559 #
edge $660 $661 $661 $610 $662 0 #
edge_name-twe-attrib $-1 $-1 $-1 $612 41 8448 #
vertex $-1 $612 $663 #
ellipse-curve $664 0.75 -0.312 -1 0 1 0 -0.276 0 0 1 #
edge_name-twe-attrib $-1 $-1 $-1 $619 42 8448 #
vertex $-1 $619 $665 #
ellipse-curve $666 0.75 -0.330186533479473 -1 0 1 0 -0.2655 0 0 1 #
point $-1 1.0155 -0.330186533479473 1 #
cur-twe-attrib $-1 $-1 $-1 $622 578 #
edge_name-twe-attrib $-1 $-1 $-1 $626 55 8704 #
vertex $-1 $626 $667 #
ellipse-curve $668 -1.25 0.1875 1 1e-15 1 0 -0.25 2.5e-16 0 1 #
point $-1 -1.5 0.1875 -1 #
cur-twe-attrib $-1 $-1 $-1 $630 593 #
point $-1 -0.75 -0.65 0 #
point $-1 -0.525 -0.514806360718799 -2.75545482274659e-17 #
cur-twe-attrib $-1 $-1 $-1 $636 599 #
loop_type-twe-attrib $-1 $-1 $-1 $640 1 #
edge_name-twe-attrib $-1 $-1 $-1 $642 39 4608 #
vertex $-1 $642 $669 #
ellipse-curve $670 0.75 -0.312 -1 0 -1 0 -0.40625 0 0 1 #
point $-1 0.474 -0.312 -1 #
cur-twe-attrib $-1 $-1 $-1 $645 612 #
point $-1 1.0155 -0.330186533479473 -1 #
cur-twe-attrib $-1 $-1 $-1 $648 619 #
point $-1 -1.5 0.1875 1 #
cur-twe-attrib $-1 $-1 $-1 $653 626 #
point $-1 0.34375 -0.312 -1 #
cur-twe-attrib $-1 $-1 $-1 $662 642 #
