600 0 2 0           
24 FBMach with ACIS - 6.0.3 13 ACIS 6.0.3 NT 24 Mon Apr 01 16:23:01 2002 
1 9.9999999999999995e-007 1e-010 
body $2 $3 $-1 $4 #
bdycol-kcp $-1 1 3 $5 $6 $7 #
model_id-kcp-attrib $-1 $8 $-1 $0 1 1017696181 90 1415184385 1 #
lump $-1 $-1 $9 $0 #
transform $-1 1.0000000000000002 -3.5437110976725151e-032 0 -3.5437110976725145e-032 1 0 0 0 1.0000000000000002 -2.2204460492503131e-015 0 -6.6613381477509392e-016 1 rotate no_reflect no_shear #
body $10 $11 $-1 $12 #
body $13 $14 $-1 $15 #
body $16 $17 $-1 $18 #
aggregate_advspl_attribute-aggregate_geombuild_base_attribute-aggregate_body_attribute-attrib_HH-attrib $-1 $19 $2 $0 F #
shell $-1 $-1 $-1 $20 $-1 $3 #
model_id-kcp-attrib $-1 $-1 $-1 $5 1 1017696181 90 1415184386 1 #
lump $-1 $-1 $21 $5 #
transform $-1 1 0 0 0 1 0 0 0 1 3.0000000000000018 5 1.9999999999999996 1 no_rotate no_reflect no_shear #
rgb_color-st-attrib $-1 $22 $-1 $6 0.5 1 1 #
lump $-1 $23 $24 $6 #
transform $-1 1 0 0 0 1 0 0 0 1 3.0000000000000018 5 1.9999999999999996 1 no_rotate no_reflect no_shear #
model_id-kcp-attrib $-1 $25 $-1 $7 1 1017696181 751 1424949252 1 #
lump $-1 $-1 $26 $7 #
transform $-1 1 0 0 0 1 0 0 0 1 3.0000000000000018 5 1.9999999999999996 1 no_rotate no_reflect no_shear #
aggregate_secndry_attribute-aggregate_geombuild_base_attribute-aggregate_body_attribute-attrib_HH-attrib $-1 $27 $8 $0 F #
face $28 $29 $30 $9 $-1 $31 forward single #
shell $-1 $-1 $-1 $32 $-1 $11 #
model_id-kcp-attrib $-1 $-1 $13 $6 1 1017696181 500 1425276931 1 #
lump $-1 $-1 $33 $6 #
shell $-1 $-1 $-1 $34 $-1 $14 #
rgb_color-st-attrib $-1 $-1 $16 $7 1 0 0 #
shell $-1 $-1 $-1 $35 $-1 $17 #
aggregate_sharped_attribute-aggregate_geombuild_base_attribute-aggregate_body_attribute-attrib_HH-attrib $-1 $36 $19 $0 F #
model_id-kcp-attrib $-1 $37 $-1 $20 1 1017696181 90 1415184385 2 #
face $38 $39 $40 $9 $-1 $41 reversed single #
loop $-1 $-1 $42 $20 #
cone-surface $-1 3 6 1 -1 0 0 0 0.70710678118654746 0.70710678118654746 1 I I 0 -1 0.99999999999999989 forward I I I I #
face $43 $44 $45 $21 $-1 $46 forward single #
shell $-1 $-1 $-1 $47 $-1 $23 #
face $-1 $48 $49 $24 $-1 $50 reversed single #
face $-1 $51 $52 $26 $-1 $53 forward single #
aggregate_reblend_attribute-aggregate_geombuild_base_attribute-aggregate_body_attribute-attrib_HH-attrib $-1 $54 $27 $0 F #
attrib_hh_face_geombuild-attrib_entity_geombuild-individual_entity_attribute-attrib_HH-attrib $-1 $-1 $28 $20 F #
model_id-kcp-attrib $-1 $55 $-1 $29 1 1017696181 90 1415184385 3 #
face $56 $57 $58 $9 $-1 $59 forward single #
loop $-1 $-1 $60 $29 #
plane-surface $-1 3 5 2 0 0 1 1 0 0 forward_v I I I I #
coedge $61 $62 $63 $64 $65 forward $30 $-1 #
model_id-kcp-attrib $-1 $-1 $-1 $32 1 1017696181 90 1415184386 6 #
face $66 $67 $68 $21 $-1 $69 reversed single #
loop $-1 $-1 $70 $32 #
plane-surface $-1 0 0 2.0000000000000004 0 0 1 1 0 0 forward_v I I I I #
face $-1 $71 $72 $33 $-1 $73 reversed single #
face $-1 $74 $75 $24 $-1 $76 reversed single #
loop $-1 $-1 $77 $34 #
plane-surface $-1 1.7581988897471597 -5 -1.0000000000000002 0.96824583655185437 3.4311835162640137e-032 -0.24999999999999983 -3.5437110976725145e-032 1 0 forward_v I I I I #
face $-1 $78 $79 $26 $-1 $80 forward single #
loop $-1 $-1 $81 $35 #
plane-surface $-1 -1.7581988897471632 2 -0.99999999999999956 -1 -3.5437110976725145e-032 0 0 0 1 forward_v I I I I #
aggregate_isospline_attribute-aggregate_geombuild_base_attribute-aggregate_body_attribute-attrib_HH-attrib $-1 $82 $36 $0 F #
attrib_hh_face_geombuild-attrib_entity_geombuild-individual_entity_attribute-attrib_HH-attrib $-1 $-1 $38 $29 F #
model_id-kcp-attrib $-1 $83 $-1 $39 1 1017696181 90 1415184385 4 #
face $84 $85 $86 $9 $-1 $87 forward single #
loop $-1 $-1 $88 $39 #
cone-surface $-1 3 4 1 1 0 0 0 -0.70710678118654746 0.70710678118654746 1 I I 0 -1 0.99999999999999989 forward I I I I #
coedge $89 $90 $91 $92 $93 reversed $40 $-1 #
attrib_hh_coedge_geombuild-attrib_entity_geombuild-individual_entity_attribute-attrib_HH-attrib $-1 $-1 $-1 $42 F #
coedge $94 $92 $42 $95 $96 reversed $30 $-1 #
coedge $97 $42 $92 $98 $99 reversed $30 $-1 #
coedge $100 $101 $102 $42 $65 reversed $86 $-1 #
edge $103 $104 -1.7581988897471612 $105 1.7581988897471632 $64 $106 forward 7 unknown #
model_id-kcp-attrib $-1 $107 $-1 $44 1 1017696181 90 1415184386 3 #
face $108 $109 $110 $21 $-1 $111 reversed single #
loop $-1 $-1 $112 $44 #
plane-surface $-1 0 0 -2.0000000000000004 0 0 1 1 0 0 forward_v I I I I #
coedge $-1 $113 $114 $115 $116 forward $45 $-1 #
face $-1 $117 $118 $33 $-1 $119 reversed single #
loop $-1 $-1 $120 $47 #
plane-surface $-1 -2.5327955589886466 0 0 1 0 0 0 0 -1 forward_v I I I I #
face $-1 $121 $122 $24 $-1 $123 reversed single #
loop $-1 $-1 $124 $48 #
plane-surface $-1 0 5 0 0 -1 0 0 0 -1 forward_v I I I I #
coedge $-1 $125 $126 $124 $127 reversed $49 $-1 #
face $-1 $128 $129 $26 $-1 $130 reversed single #
loop $-1 $-1 $131 $51 #
plane-surface $-1 1.7581988897471614 -2 -0.99999999999999956 1 3.5437110976725145e-032 0 0 0 -1 forward_v I I I I #
coedge $-1 $132 $133 $134 $135 forward $52 $-1 #
aggregate_analytic_solver_attribute-aggregate_geombuild_base_attribute-aggregate_body_attribute-attrib_HH-attrib $-1 $136 $54 $0 F #
attrib_hh_face_geombuild-attrib_entity_geombuild-individual_entity_attribute-attrib_HH-attrib $-1 $-1 $56 $39 F #
model_id-kcp-attrib $-1 $137 $-1 $57 1 1017696181 90 1415184385 5 #
face $138 $139 $140 $9 $-1 $141 forward single #
loop $-1 $-1 $64 $57 #
plane-surface $-1 3 7 1 0 -1 0 0 0 -1 forward_v I I I I #
coedge $142 $143 $144 $145 $146 forward $58 $-1 #
attrib_hh_coedge_geombuild-attrib_entity_geombuild-individual_entity_attribute-attrib_HH-attrib $-1 $-1 $-1 $60 F #
coedge $147 $148 $60 $149 $150 reversed $40 $-1 #
coedge $151 $60 $148 $152 $153 reversed $40 $-1 #
coedge $154 $63 $62 $60 $93 forward $30 $-1 #
edge $155 $156 -2.0163977794943246 $157 2.016397779494322 $60 $158 forward 7 unknown #
attrib_hh_coedge_geombuild-attrib_entity_geombuild-individual_entity_attribute-attrib_HH-attrib $-1 $-1 $-1 $62 F #
coedge $159 $160 $149 $62 $96 forward $161 $-1 #
edge $162 $156 -1.1102230246251565e-016 $105 1.5707963267948966 $95 $163 forward 7 unknown #
attrib_hh_coedge_geombuild-attrib_entity_geombuild-individual_entity_attribute-attrib_HH-attrib $-1 $-1 $-1 $63 F #
coedge $164 $152 $165 $63 $99 forward $166 $-1 #
edge $167 $104 -1.5707963267948966 $157 1.1102230246251565e-016 $98 $168 forward 7 unknown #
attrib_hh_coedge_geombuild-attrib_entity_geombuild-individual_entity_attribute-attrib_HH-attrib $-1 $-1 $-1 $64 F #
coedge $169 $170 $64 $165 $171 reversed $86 $-1 #
coedge $172 $64 $170 $160 $173 reversed $86 $-1 #
attrib_hh_edge_geombuild-attrib_entity_geombuild-individual_entity_attribute-attrib_HH-attrib $-1 $-1 $-1 $65 F #
vertex $174 $99 $175 #
vertex $176 $173 $177 #
straight-curve $-1 3 7 1 1 0 0 F -5.1163977794943225 F 5.1163977794943243 #
model_id-kcp-attrib $-1 $-1 $66 $44 1 1017696181 90 1415184386 2 #
model_id-kcp-attrib $-1 $-1 $-1 $67 1 1017696181 90 1415184386 4 #
face $-1 $178 $179 $21 $-1 $180 reversed single #
loop $-1 $-1 $181 $67 #
plane-surface $-1 0 -5 0 0 1 0 0 0 1 forward_v I I I I #
coedge $-1 $182 $183 $184 $185 forward $68 $-1 #
coedge $-1 $186 $70 $187 $188 forward $45 $-1 #
coedge $-1 $70 $186 $189 $190 forward $45 $-1 #
coedge $-1 $191 $192 $70 $116 reversed $193 $-1 #
edge $-1 $194 -5 $195 5 $115 $196 forward 7 unknown #
face $-1 $197 $198 $33 $-1 $76 reversed single #
loop $-1 $-1 $199 $71 #
plane-surface $-1 0 -5 0 0 1 0 0 0 1 forward_v I I I I #
coedge $-1 $200 $201 $202 $203 forward $72 $-1 #
face $-1 $204 $205 $24 $-1 $119 reversed single #
loop $-1 $-1 $206 $74 #
plane-surface $-1 0 0 -2.0000000000000004 0 0 1 1 0 0 forward_v I I I I #
coedge $-1 $207 $208 $77 $127 forward $75 $-1 #
coedge $-1 $209 $77 $206 $210 reversed $49 $-1 #
coedge $-1 $77 $209 $211 $212 forward $49 $-1 #
edge $-1 $213 -1.2971436160461773 $214 2.8340386199084029 $124 $215 forward 7 unknown #
face $-1 $216 $217 $26 $-1 $218 forward single #
loop $-1 $-1 $219 $78 #
plane-surface $-1 -4.4408920985006262e-016 0 0 0 0 -1 1 0 0 forward_v I I I I #
coedge $-1 $220 $221 $222 $223 forward $79 $-1 #
coedge $-1 $224 $81 $225 $226 forward $52 $-1 #
coedge $-1 $81 $224 $219 $227 forward $52 $-1 #
coedge $-1 $228 $229 $81 $135 reversed $230 $-1 #
edge $-1 $231 -0.78539816339744828 $232 0.78539816339744828 $134 $233 forward 7 unknown #
aggregate_geombuild_attribute-aggregate_geombuild_base_attribute-aggregate_body_attribute-attrib_HH-attrib $-1 $234 $82 $0 #
attrib_hh_face_geombuild-attrib_entity_geombuild-individual_entity_attribute-attrib_HH-attrib $-1 $-1 $84 $57 F #
model_id-kcp-attrib $-1 $235 $-1 $85 1 1017696181 90 1415184385 6 #
face $236 $237 $161 $9 $-1 $238 forward single #
loop $-1 $-1 $145 $85 #
plane-surface $-1 3 3 1 0 1 0 0 0 1 forward_v I I I I #
attrib_hh_coedge_geombuild-attrib_entity_geombuild-individual_entity_attribute-attrib_HH-attrib $-1 $-1 $-1 $88 F #
coedge $239 $240 $88 $241 $242 reversed $58 $-1 #
coedge $243 $88 $240 $244 $245 reversed $58 $-1 #
coedge $246 $247 $248 $88 $146 reversed $140 $-1 #
edge $249 $250 -1.7581988897471632 $251 1.7581988897471612 $145 $252 forward 7 unknown #
attrib_hh_coedge_geombuild-attrib_entity_geombuild-individual_entity_attribute-attrib_HH-attrib $-1 $-1 $-1 $90 F #
coedge $253 $91 $90 $240 $254 reversed $40 $-1 #
coedge $255 $95 $244 $90 $150 forward $161 $-1 #
edge $256 $257 -1 $156 1 $149 $258 forward 7 unknown #
attrib_hh_coedge_geombuild-attrib_entity_geombuild-individual_entity_attribute-attrib_HH-attrib $-1 $-1 $-1 $91 F #
coedge $259 $241 $98 $91 $153 forward $166 $-1 #
edge $260 $157 -1 $261 1 $152 $262 forward 7 unknown #
attrib_hh_coedge_geombuild-attrib_entity_geombuild-individual_entity_attribute-attrib_HH-attrib $-1 $-1 $-1 $92 F #
attrib_hh_edge_geombuild-attrib_entity_geombuild-individual_entity_attribute-attrib_HH-attrib $-1 $-1 $-1 $93 F #
vertex $263 $96 $264 #
vertex $265 $153 $266 #
straight-curve $-1 3 6 2 -1 0 0 F -5.1163977794943243 F 5.1163977794943225 #
attrib_hh_coedge_geombuild-attrib_entity_geombuild-individual_entity_attribute-attrib_HH-attrib $-1 $-1 $-1 $95 F #
coedge $267 $268 $95 $102 $173 forward $161 $-1 #
loop $-1 $-1 $269 $139 #
attrib_edge_convexity-kcp-attrib $-1 $270 $-1 $96 1 #
ellipse-curve $-1 4.7581988897471632 6 1 -0.96824583655185426 1.1857591645209797e-016 0.25000000000000039 0.25819888974716154 1.1102230246251565e-016 0.99999999999999989 0.96824583655185426 I I #
attrib_hh_coedge_geombuild-attrib_entity_geombuild-individual_entity_attribute-attrib_HH-attrib $-1 $-1 $-1 $98 F #
coedge $271 $98 $272 $101 $171 forward $166 $-1 #
loop $-1 $-1 $165 $273 #
attrib_edge_convexity-kcp-attrib $-1 $274 $-1 $99 1 #
ellipse-curve $-1 1.2418011102528388 6 1 0.96824583655185426 0 0.24999999999999994 -0.2581988897471611 1.1102230246251565e-016 0.99999999999999989 0.96824583655185426 I I #
attrib_hh_coedge_geombuild-attrib_entity_geombuild-individual_entity_attribute-attrib_HH-attrib $-1 $-1 $-1 $101 F #
coedge $275 $102 $101 $276 $277 reversed $86 $-1 #
edge $278 $279 -1.7966229182759272 $104 -0.76382735928728285 $165 $280 forward 7 unknown #
attrib_hh_coedge_geombuild-attrib_entity_geombuild-individual_entity_attribute-attrib_HH-attrib $-1 $-1 $-1 $102 F #
edge $281 $105 0.7638273592872824 $282 1.796622918275927 $160 $283 forward 7 unknown #
attrib_hh_vertex_geombuild-attrib_entity_geombuild-individual_entity_attribute-attrib_HH-attrib $-1 $-1 $-1 $104 F #
point $-1 1.2418011102528388 7 1 #
attrib_hh_vertex_geombuild-attrib_entity_geombuild-individual_entity_attribute-attrib_HH-attrib $-1 $-1 $-1 $105 F #
point $-1 4.7581988897471632 7 1 #
face $284 $285 $286 $21 $-1 $287 reversed single #
loop $-1 $-1 $288 $109 #
plane-surface $-1 -2.5327955589886466 0 0 1 0 0 0 0 -1 forward_v I I I I #
coedge $-1 $289 $189 $290 $291 forward $110 $-1 #
coedge $-1 $292 $112 $289 $293 forward $68 $-1 #
coedge $-1 $112 $292 $294 $295 forward $68 $-1 #
coedge $-1 $192 $191 $112 $185 reversed $193 $-1 #
edge $-1 $296 -5 $297 5 $184 $298 forward 7 unknown #
coedge $-1 $114 $113 $299 $300 forward $45 $-1 #
coedge $-1 $301 $302 $113 $188 reversed $286 $-1 #
edge $-1 $195 -2.5327955589886466 $303 2.5327955589886466 $187 $304 forward 7 unknown #
coedge $-1 $181 $305 $114 $190 reversed $110 $-1 #
edge $-1 $306 -2.5327955589886466 $194 2.5327955589886466 $189 $307 forward 7 unknown #
coedge $-1 $184 $115 $305 $308 forward $193 $-1 #
coedge $-1 $115 $184 $301 $309 reversed $193 $-1 #
loop $-1 $-1 $191 $285 #
vertex $-1 $116 $310 #
vertex $-1 $116 $311 #
straight-curve $-1 2.5327955589886466 0 2.0000000000000004 0 1 0 I I #
face $-1 $312 $313 $33 $-1 $123 reversed single #
loop $-1 $-1 $314 $117 #
coedge $-1 $315 $316 $317 $318 forward $118 $-1 #
coedge $-1 $319 $120 $320 $321 reversed $72 $-1 #
coedge $-1 $120 $319 $322 $323 reversed $72 $-1 #
coedge $-1 $314 $324 $120 $203 reversed $198 $-1 #
edge $-1 $325 -2.0000000000000004 $326 2.0000000000000004 $202 $327 forward 7 unknown #
face $-1 $-1 $328 $24 $-1 $329 reversed single #
loop $-1 $-1 $330 $121 #
coedge $-1 $331 $332 $125 $210 forward $122 $-1 #
coedge $-1 $208 $124 $333 $334 forward $75 $-1 #
coedge $-1 $124 $207 $331 $335 reversed $75 $-1 #
coedge $-1 $126 $125 $330 $336 reversed $49 $-1 #
edge $-1 $337 -2.5 $213 7.5 $206 $338 forward 7 unknown #
coedge $-1 $339 $333 $126 $212 reversed $328 $-1 #
edge $-1 $340 -5 $214 5 $211 $341 forward 7 unknown #
vertex $-1 $335 $342 #
vertex $-1 $212 $343 #
straight-curve $-1 1.8242859040115431 5.0000000000000009 -0.74404609435347246 0.24999999999999983 0 0.96824583655185437 I I #
face $-1 $344 $345 $26 $-1 $346 reversed single #
loop $-1 $-1 $347 $128 #
plane-surface $-1 1.7581988897471597 -5 -1.0000000000000002 0.96824583655185437 3.4311835162640137e-032 -0.24999999999999983 -3.5437110976725145e-032 1 0 forward_v I I I I #
coedge $-1 $348 $349 $133 $227 reversed $129 $-1 #
coedge $-1 $350 $131 $351 $352 forward $79 $-1 #
coedge $-1 $131 $350 $347 $353 forward $79 $-1 #
coedge $-1 $229 $228 $131 $223 reversed $230 $-1 #
edge $-1 $354 -0.78539816339744828 $355 0.78539816339744828 $222 $356 forward 7 unknown #
coedge $-1 $133 $132 $357 $358 forward $52 $-1 #
coedge $-1 $359 $360 $132 $226 reversed $361 $-1 #
edge $-1 $232 -3.5 $362 0.5 $225 $363 forward 7 unknown #
edge $364 $365 -2 $231 7.8686193065114252e-048 $219 $366 forward 7 unknown #
coedge $-1 $222 $134 $349 $367 forward $230 $-1 #
coedge $368 $134 $222 $369 $370 reversed $230 $-1 #
loop $-1 $-1 $134 $344 #
vertex $-1 $367 $371 #
vertex $-1 $226 $372 #
ellipse-curve $-1 -1.7581988897471632 1 -0.99999999999999956 -1 -3.5437110976725145e-032 0 0 0.70710678118654746 0.70710678118654746 1 I I #
aggregate_stitch_attribute-aggregate_stitch_base_attribute-aggregate_body_attribute-attrib_HH-attrib $-1 $373 $136 $0 F #
attrib_hh_face_geombuild-attrib_entity_geombuild-individual_entity_attribute-attrib_HH-attrib $-1 $-1 $138 $85 F #
model_id-kcp-attrib $-1 $374 $-1 $139 1 1017696181 90 1415184385 7 #
face $375 $273 $376 $9 $-1 $377 reversed single #
plane-surface $-1 5.2500000000000027 5 2.904737509655563 0.96824583655185426 -1.1857591645209797e-016 -0.25000000000000039 0.25000000000000039 -3.0616169978683879e-017 0.96824583655185426 forward_v I I I I #
attrib_hh_coedge_geombuild-attrib_entity_geombuild-individual_entity_attribute-attrib_HH-attrib $-1 $-1 $-1 $143 F #
coedge $378 $144 $143 $148 $254 forward $58 $-1 #
coedge $379 $380 $152 $143 $242 forward $166 $-1 #
edge $381 $261 -1.1102230246251565e-016 $251 1.5707963267948966 $241 $382 forward 7 unknown #
attrib_hh_coedge_geombuild-attrib_entity_geombuild-individual_entity_attribute-attrib_HH-attrib $-1 $-1 $-1 $144 F #
coedge $383 $149 $269 $144 $245 forward $161 $-1 #
edge $384 $250 -1.5707963267948966 $257 1.1102230246251563e-016 $244 $385 forward 7 unknown #
attrib_hh_coedge_geombuild-attrib_entity_geombuild-individual_entity_attribute-attrib_HH-attrib $-1 $-1 $-1 $145 F #
coedge $386 $387 $145 $269 $388 reversed $140 $-1 #
coedge $389 $145 $387 $380 $390 reversed $140 $-1 #
attrib_hh_edge_geombuild-attrib_entity_geombuild-individual_entity_attribute-attrib_HH-attrib $-1 $-1 $-1 $146 F #
vertex $391 $245 $392 #
vertex $393 $390 $394 #
straight-curve $-1 3 3 1 -1 0 0 F -5.1163977794943243 F 5.1163977794943225 #
attrib_hh_coedge_geombuild-attrib_entity_geombuild-individual_entity_attribute-attrib_HH-attrib $-1 $-1 $-1 $148 F #
edge $395 $261 -2.016397779494322 $257 2.0163977794943246 $148 $396 forward 7 unknown #
attrib_hh_coedge_geombuild-attrib_entity_geombuild-individual_entity_attribute-attrib_HH-attrib $-1 $-1 $-1 $149 F #
attrib_edge_convexity-kcp-attrib $-1 $397 $-1 $150 1 #
vertex $398 $150 $399 #
straight-curve $-1 5.0163977794943246 5 2 1.2246467991473532e-016 1 0 I I #
attrib_hh_coedge_geombuild-attrib_entity_geombuild-individual_entity_attribute-attrib_HH-attrib $-1 $-1 $-1 $152 F #
attrib_edge_convexity-kcp-attrib $-1 $400 $-1 $153 1 #
vertex $401 $242 $402 #
straight-curve $-1 0.98360222050567803 5 2 0 -1 0 I I #
attrib_hh_vertex_geombuild-attrib_entity_geombuild-individual_entity_attribute-attrib_HH-attrib $-1 $-1 $-1 $156 F #
point $-1 5.0163977794943246 6 2 #
attrib_hh_vertex_geombuild-attrib_entity_geombuild-individual_entity_attribute-attrib_HH-attrib $-1 $-1 $-1 $157 F #
point $-1 0.98360222050567803 6 2 #
attrib_hh_coedge_geombuild-attrib_entity_geombuild-individual_entity_attribute-attrib_HH-attrib $-1 $-1 $-1 $160 F #
coedge $403 $404 $160 $405 $406 reversed $161 $-1 #
coedge $407 $244 $408 $247 $388 forward $161 $-1 #
convexity-sys-attrib $-1 $409 $162 $96 #
attrib_hh_coedge_geombuild-attrib_entity_geombuild-individual_entity_attribute-attrib_HH-attrib $-1 $-1 $-1 $165 F #
coedge $410 $165 $411 $412 $413 reversed $166 $-1 #
face $414 $415 $166 $9 $-1 $416 forward single #
convexity-sys-attrib $-1 $417 $167 $99 #
attrib_hh_coedge_geombuild-attrib_entity_geombuild-individual_entity_attribute-attrib_HH-attrib $-1 $-1 $-1 $170 F #
coedge $418 $412 $405 $170 $277 forward $376 $-1 #
edge $419 $282 -1.5000000000000018 $279 1.5000000000000002 $276 $420 forward 7 unknown #
attrib_edge_convexity-kcp-attrib $-1 $421 $-1 $171 1 #
vertex $422 $413 $423 #
straight-curve $-1 1.0508442704310181 7 1.7395726604743089 -0.24999999999999994 0 0.96824583655185426 I I #
attrib_edge_convexity-kcp-attrib $-1 $424 $-1 $173 1 #
vertex $425 $277 $426 #
straight-curve $-1 4.9491557295689841 7 1.7395726604743083 -0.25000000000000039 0 -0.96824583655185426 I I #
model_id-kcp-attrib $-1 $-1 $-1 $178 1 1017696181 90 1415184386 5 #
face $-1 $-1 $193 $21 $-1 $427 reversed single #
loop $-1 $-1 $301 $178 #
plane-surface $-1 0 5 0 0 -1 0 0 0 -1 forward_v I I I I #
coedge $-1 $428 $299 $302 $429 forward $179 $-1 #
coedge $-1 $305 $181 $182 $293 reversed $110 $-1 #
coedge $-1 $299 $428 $181 $291 reversed $179 $-1 #
edge $-1 $306 -2.0000000000000004 $430 2.0000000000000004 $290 $431 forward 7 unknown #
coedge $-1 $183 $182 $428 $432 forward $68 $-1 #
edge $-1 $297 -2.5327955589886466 $430 2.5327955589886466 $289 $433 forward 7 unknown #
coedge $-1 $302 $301 $183 $295 reversed $286 $-1 #
edge $-1 $434 -2.5327955589886466 $296 2.5327955589886466 $294 $435 forward 7 unknown #
vertex $-1 $185 $436 #
vertex $-1 $308 $437 #
straight-curve $-1 2.5327955589886466 0 -2.0000000000000004 0 -1 0 I I #
coedge $-1 $288 $290 $186 $300 reversed $179 $-1 #
edge $-1 $303 -5 $306 5 $299 $438 forward 7 unknown #
coedge $-1 $294 $187 $192 $309 forward $286 $-1 #
coedge $-1 $187 $294 $288 $429 reversed $286 $-1 #
vertex $-1 $188 $439 #
straight-curve $-1 0 5 2.0000000000000004 -1 0 0 I I #
coedge $-1 $189 $289 $191 $308 reversed $110 $-1 #
vertex $-1 $300 $440 #
straight-curve $-1 0 -5 2.0000000000000004 1 0 0 I I #
edge $-1 $194 -2.0000000000000004 $297 2.0000000000000004 $191 $441 forward 7 unknown #
edge $-1 $195 -2.0000000000000004 $296 2.0000000000000004 $192 $442 forward 7 unknown #
point $-1 2.5327955589886466 -5 2.0000000000000004 #
point $-1 2.5327955589886466 5 2.0000000000000004 #
face $-1 $-1 $443 $33 $-1 $444 reversed single #
loop $-1 $-1 $445 $197 #
coedge $-1 $324 $202 $446 $447 forward $198 $-1 #
coedge $-1 $316 $199 $319 $448 forward $118 $-1 #
coedge $-1 $199 $315 $449 $450 reversed $118 $-1 #
coedge $-1 $451 $322 $199 $318 reversed $443 $-1 #
edge $-1 $452 -1.813541395540498 $453 2.3176408404140805 $199 $454 forward 7 unknown #
coedge $-1 $201 $200 $315 $448 reversed $72 $-1 #
coedge $-1 $455 $449 $200 $321 forward $313 $-1 #
edge $-1 $456 -5 $326 5 $200 $457 forward 7 unknown #
coedge $-1 $317 $446 $201 $323 forward $443 $-1 #
edge $-1 $325 -5 $453 5 $201 $458 forward 7 unknown #
coedge $-1 $202 $314 $455 $459 reversed $198 $-1 #
vertex $-1 $447 $460 #
vertex $-1 $459 $461 #
straight-curve $-1 -2.5327955589886466 5 0 0 0 -1 I I #
loop $-1 $-1 $339 $204 #
plane-surface $-1 2.5327955589886466 0 0 -1 0 0 0 0 1 forward_v I I I I #
coedge $-1 $462 $463 $209 $336 forward $205 $-1 #
coedge $-1 $464 $206 $208 $335 forward $122 $-1 #
coedge $-1 $206 $464 $462 $465 forward $122 $-1 #
coedge $-1 $211 $466 $207 $334 reversed $328 $-1 #
edge $-1 $214 -2.0000000000000004 $467 2.0000000000000004 $333 $468 forward 7 unknown #
edge $-1 $213 1.4999999999999987 $467 2.5327955589886466 $208 $469 forward 7 unknown #
edge $-1 $340 -2.8340386199084029 $337 1.2971436160461773 $330 $470 forward 7 unknown #
vertex $-1 $336 $471 #
straight-curve $-1 1.4999999999999989 -2.5 -2.0000000000000004 -3.5437110976725145e-032 1 0 I I #
coedge $-1 $466 $211 $463 $472 forward $328 $-1 #
vertex $-1 $212 $473 #
straight-curve $-1 2.5327955589886466 0 2.0000000000000004 0 1 0 I I #
point $-1 1.4999999999999987 5 -2.0000000000000004 #
point $-1 2.5327955589886466 5 2.0000000000000004 #
face $474 $475 $230 $26 $-1 $476 reversed single #
loop $-1 $-1 $357 $216 #
cone-surface $-1 -1.7763568394002505e-015 -1 -0.99999999999999956 1 0 0 0 -0.70710678118654746 0.70710678118654746 1 I I 0 -1 0.99999999999999989 forward I I I I #
coedge $-1 $477 $478 $221 $353 reversed $217 $-1 #
coedge $-1 $351 $219 $479 $480 reversed $129 $-1 #
coedge $-1 $219 $351 $228 $367 reversed $129 $-1 #
coedge $-1 $221 $220 $481 $482 forward $79 $-1 #
coedge $-1 $349 $348 $220 $352 reversed $129 $-1 #
edge $483 $355 -2 $484 -6.2948954452091402e-047 $351 $485 forward 7 unknown #
edge $-1 $486 1.5 $354 5.5 $347 $487 forward 7 unknown #
vertex $-1 $353 $488 #
vertex $-1 $352 $489 #
ellipse-curve $-1 1.7581988897471614 1 -0.99999999999999956 1 3.5437110976725145e-032 0 0 0.70710678118654746 0.70710678118654746 1 I I #
coedge $-1 $490 $479 $224 $358 reversed $345 $-1 #
edge $-1 $362 -0.78539816339744828 $365 0.78539816339744828 $357 $491 forward 7 unknown #
coedge $-1 $492 $225 $493 $494 forward $361 $-1 #
coedge $-1 $225 $492 $495 $496 forward $361 $-1 #
loop $-1 $-1 $225 $497 #
vertex $-1 $496 $498 #
straight-curve $-1 -1.7581988897471632 -1.5 -1.0000000000000009 3.5437110976725145e-032 -1 0 I I #
convexity-sys-attrib $-1 $-1 $-1 $227 #
vertex $-1 $358 $499 #
straight-curve $-1 -1.7581988897471632 1 0 -3.5437110976725145e-032 1 0 I I #
edge $500 $231 -1.7581988897471617 $355 1.7581988897471614 $349 $501 forward 7 unknown #
attrib_hh_coedge_geombuild-attrib_entity_geombuild-individual_entity_attribute-attrib_HH-attrib $-1 $-1 $-1 $229 F #
coedge $502 $503 $493 $229 $370 forward $504 $-1 #
edge $505 $232 -1.7581988897471612 $354 1.7581988897471632 $369 $506 forward 7 unknown #
point $-1 -1.7581988897471634 1 0 #
point $-1 -1.758198889747163 2 -0.99999999999999956 #
aggregate_simgeom_attribute-aggregate_simgeom_base_attribute-aggregate_body_attribute-attrib_HH-attrib $-1 $507 $234 $0 F #
attrib_hh_face_geombuild-attrib_entity_geombuild-individual_entity_attribute-attrib_HH-attrib $-1 $-1 $236 $139 F #
model_id-kcp-attrib $-1 $508 $-1 $237 1 1017696181 90 1415184385 8 #
loop $-1 $-1 $276 $237 #
plane-surface $-1 3 5 0 0 0 1 1 0 0 forward_v I I I I #
attrib_hh_coedge_geombuild-attrib_entity_geombuild-individual_entity_attribute-attrib_HH-attrib $-1 $-1 $-1 $240 F #
attrib_hh_coedge_geombuild-attrib_entity_geombuild-individual_entity_attribute-attrib_HH-attrib $-1 $-1 $-1 $241 F #
coedge $509 $510 $241 $248 $390 forward $166 $-1 #
attrib_edge_convexity-kcp-attrib $-1 $511 $-1 $242 1 #
ellipse-curve $-1 1.2418011102528388 4 1 0.96824583655185426 0 0.24999999999999994 -0.2581988897471611 -1.1102230246251565e-016 0.99999999999999989 0.96824583655185426 I I #
attrib_hh_coedge_geombuild-attrib_entity_geombuild-individual_entity_attribute-attrib_HH-attrib $-1 $-1 $-1 $244 F #
attrib_edge_convexity-kcp-attrib $-1 $512 $-1 $245 1 #
ellipse-curve $-1 4.7581988897471632 4 1 -0.96824583655185426 1.1857591645209797e-016 0.25000000000000039 0.25819888974716149 -1.1102230246251565e-016 0.99999999999999989 0.96824583655185426 I I #
attrib_hh_coedge_geombuild-attrib_entity_geombuild-individual_entity_attribute-attrib_HH-attrib $-1 $-1 $-1 $247 F #
coedge $513 $248 $247 $514 $515 reversed $140 $-1 #
edge $516 $517 -1.7966229182759275 $250 -0.76382735928728263 $269 $518 forward 7 unknown #
attrib_hh_coedge_geombuild-attrib_entity_geombuild-individual_entity_attribute-attrib_HH-attrib $-1 $-1 $-1 $248 F #
edge $519 $251 0.76382735928728285 $520 1.7966229182759272 $380 $521 forward 7 unknown #
attrib_hh_vertex_geombuild-attrib_entity_geombuild-individual_entity_attribute-attrib_HH-attrib $-1 $-1 $-1 $250 F #
point $-1 4.7581988897471632 3 1 #
attrib_hh_vertex_geombuild-attrib_entity_geombuild-individual_entity_attribute-attrib_HH-attrib $-1 $-1 $-1 $251 F #
point $-1 1.2418011102528388 3 1 #
attrib_hh_edge_geombuild-attrib_entity_geombuild-individual_entity_attribute-attrib_HH-attrib $-1 $-1 $-1 $254 F #
straight-curve $-1 3 4 2 1 0 0 F -5.1163977794943225 F 5.1163977794943243 #
convexity-sys-attrib $-1 $522 $256 $150 #
attrib_hh_vertex_geombuild-attrib_entity_geombuild-individual_entity_attribute-attrib_HH-attrib $-1 $-1 $-1 $257 F #
point $-1 5.0163977794943246 4 2 #
convexity-sys-attrib $-1 $523 $260 $153 #
attrib_hh_vertex_geombuild-attrib_entity_geombuild-individual_entity_attribute-attrib_HH-attrib $-1 $-1 $-1 $261 F #
point $-1 0.98360222050567803 4 2 #
attrib_hh_coedge_geombuild-attrib_entity_geombuild-individual_entity_attribute-attrib_HH-attrib $-1 $-1 $-1 $268 F #
coedge $524 $525 $268 $526 $527 reversed $161 $-1 #
coedge $528 $276 $529 $268 $406 forward $376 $-1 #
edge $530 $531 -5 $282 -2 $405 $532 forward 7 unknown #
attrib_hh_coedge_geombuild-attrib_entity_geombuild-individual_entity_attribute-attrib_HH-attrib $-1 $-1 $-1 $269 F #
coedge $533 $269 $534 $535 $536 reversed $161 $-1 #
attrib_hh_edge_geombuild-attrib_entity_geombuild-individual_entity_attribute-attrib_HH-attrib $-1 $-1 $270 $96 F #
attrib_hh_coedge_geombuild-attrib_entity_geombuild-individual_entity_attribute-attrib_HH-attrib $-1 $-1 $-1 $272 F #
coedge $537 $272 $538 $539 $540 reversed $166 $-1 #
coedge $541 $529 $276 $272 $413 forward $376 $-1 #
edge $542 $279 2 $543 5 $412 $544 forward 7 unknown #
model_id-kcp-attrib $-1 $545 $-1 $273 1 1017696181 90 1415184385 9 #
face $546 $547 $548 $9 $-1 $377 reversed single #
plane-surface $-1 0.75 5 2.904737509655563 -0.96824583655185426 0 -0.24999999999999994 -0.24999999999999994 0 0.96824583655185426 forward_v I I I I #
attrib_hh_edge_geombuild-attrib_entity_geombuild-individual_entity_attribute-attrib_HH-attrib $-1 $-1 $274 $99 F #
attrib_hh_coedge_geombuild-attrib_entity_geombuild-individual_entity_attribute-attrib_HH-attrib $-1 $-1 $-1 $276 F #
attrib_edge_convexity-kcp-attrib $-1 $549 $-1 $277 1 #
straight-curve $-1 3 7 0 -1 0 0 I I #
convexity-sys-attrib $-1 $550 $278 $171 #
attrib_hh_vertex_geombuild-attrib_entity_geombuild-individual_entity_attribute-attrib_HH-attrib $-1 $-1 $-1 $279 F #
point $-1 1.4999999999999998 7 0 #
convexity-sys-attrib $-1 $551 $281 $173 #
attrib_hh_vertex_geombuild-attrib_entity_geombuild-individual_entity_attribute-attrib_HH-attrib $-1 $-1 $-1 $282 F #
point $-1 4.5000000000000018 7 0 #
plane-surface $-1 2.5327955589886466 0 0 -1 0 0 0 0 1 forward_v I I I I #
coedge $-1 $290 $288 $292 $432 reversed $179 $-1 #
edge $-1 $303 -2.0000000000000004 $434 2.0000000000000004 $302 $552 forward 7 unknown #
vertex $-1 $432 $553 #
straight-curve $-1 -2.5327955589886466 -5 0 0 0 -1 I I #
edge $-1 $430 -5 $434 5 $428 $554 forward 7 unknown #
straight-curve $-1 0 -5 -2.0000000000000004 -1 0 0 I I #
vertex $-1 $295 $555 #
straight-curve $-1 0 5 -2.0000000000000004 1 0 0 I I #
point $-1 2.5327955589886466 5 -2.0000000000000004 #
point $-1 2.5327955589886466 -5 -2.0000000000000004 #
straight-curve $-1 -2.5327955589886466 0 2.0000000000000004 0 -1 0 I I #
point $-1 -2.5327955589886466 5 2.0000000000000004 #
point $-1 -2.5327955589886466 -5 2.0000000000000004 #
straight-curve $-1 2.5327955589886466 -5 0 0 0 -1 I I #
straight-curve $-1 2.5327955589886466 5 0 0 0 -1 I I #
loop $-1 $-1 $446 $312 #
plane-surface $-1 -2.0163977794943251 -5 2.2204460492503131e-016 -0.96824583655185414 -3.4311835162640132e-032 -0.25000000000000044 3.5437110976725145e-032 -1 0 forward_v I I I I #
coedge $-1 $449 $455 $451 $556 forward $313 $-1 #
coedge $-1 $322 $451 $314 $447 reversed $443 $-1 #
edge $-1 $325 -2.3176408404140805 $557 1.813541395540498 $314 $558 forward 7 unknown #
edge $-1 $453 -2.0000000000000004 $456 2.0000000000000004 $319 $559 forward 7 unknown #
coedge $-1 $320 $445 $316 $450 forward $313 $-1 #
edge $-1 $452 1.500000000000004 $456 2.5327955589886466 $316 $560 forward 7 unknown #
coedge $-1 $446 $317 $445 $556 reversed $443 $-1 #
vertex $-1 $450 $561 #
vertex $-1 $323 $562 #
straight-curve $-1 -1.9533853488851274 -5 -0.24404609435347333 -0.25000000000000044 0 0.96824583655185414 I I #
coedge $-1 $445 $320 $324 $459 forward $313 $-1 #
vertex $-1 $321 $563 #
straight-curve $-1 -2.5327955589886466 0 -2.0000000000000004 0 1 0 I I #
straight-curve $-1 -2.5327955589886466 0 2.0000000000000004 0 -1 0 I I #
edge $-1 $326 -2.5327955589886466 $557 -1.500000000000004 $324 $469 forward 7 unknown #
point $-1 -2.5327955589886466 5 2.0000000000000004 #
point $-1 -2.5327955589886466 5 -2.0000000000000004 #
coedge $-1 $463 $330 $332 $465 reversed $205 $-1 #
coedge $-1 $330 $462 $339 $472 reversed $205 $-1 #
coedge $-1 $332 $331 $466 $564 forward $122 $-1 #
edge $-1 $565 -2.5327955589886466 $337 -1.4999999999999987 $462 $560 forward 7 unknown #
coedge $-1 $333 $339 $464 $564 reversed $328 $-1 #
vertex $-1 $564 $566 #
straight-curve $-1 2.5327955589886466 5 0 0 0 -1 I I #
straight-curve $-1 0 5 -2.0000000000000004 1 0 0 I I #
straight-curve $-1 1.8242859040115431 -5 -0.74404609435347246 -0.24999999999999983 0 -0.96824583655185437 I I #
point $-1 1.4999999999999987 -5 -2.0000000000000004 #
edge $-1 $340 -2.0000000000000004 $565 2.0000000000000004 $339 $567 forward 7 unknown #
point $-1 2.5327955589886466 -5 2.0000000000000004 #
attrib_hh_face_geombuild-attrib_entity_geombuild-individual_entity_attribute-attrib_HH-attrib $-1 $-1 $-1 $344 F #
face $568 $569 $504 $26 $-1 $570 reversed single #
cone-surface $-1 -1.7763568394002505e-015 1 -0.99999999999999956 -1 0 0 0 0.70710678118654746 0.70710678118654746 1 I I 0 -1 0.99999999999999989 forward I I I I #
coedge $-1 $571 $347 $572 $573 forward $217 $-1 #
coedge $-1 $347 $571 $503 $574 forward $217 $-1 #
coedge $-1 $357 $481 $348 $480 forward $345 $-1 #
edge $575 $484 -1.7581988897471614 $365 1.7581988897471617 $348 $576 forward 7 unknown #
coedge $-1 $479 $490 $350 $482 reversed $345 $-1 #
edge $-1 $484 -0.78539816339744828 $486 0.78539816339744828 $481 $577 forward 7 unknown #
convexity-sys-attrib $-1 $-1 $-1 $352 #
vertex $-1 $480 $578 #
straight-curve $-1 1.7581988897471614 -1 0 3.5437110976725145e-032 -1 0 I I #
vertex $-1 $573 $579 #
straight-curve $-1 1.7581988897471614 -3.5 -0.99999999999999334 -3.5437110976725145e-032 1 0 I I #
point $-1 1.7581988897471614 2 -0.99999999999999956 #
point $-1 1.7581988897471597 1 1.1102230246251565e-016 #
coedge $580 $481 $357 $581 $582 reversed $345 $-1 #
ellipse-curve $-1 -1.7581988897471632 -1 -0.99999999999999956 -1 -3.5437110976725145e-032 0 0 -0.70710678118654746 0.70710678118654746 1 I I #
coedge $-1 $360 $359 $583 $584 reversed $361 $-1 #
coedge $585 $369 $586 $359 $494 reversed $504 $-1 #
edge $-1 $232 0.29662291827592674 $587 1.3294184772645712 $359 $588 forward 7 unknown #
coedge $589 $590 $581 $360 $496 reversed $591 $-1 #
edge $-1 $592 -1.3294184772645712 $362 -0.29662291827592674 $360 $593 forward 7 unknown #
face $-1 $-1 $361 $26 $-1 $594 forward single #
point $-1 -1.758198889747163 -2 -0.99999999999999956 #
point $-1 -1.7581988897471634 -1 0 #
convexity-sys-attrib $-1 $-1 $-1 $367 #
straight-curve $-1 -1.7763568394002505e-015 1 0 1 0 0 I I #
attrib_hh_coedge_geombuild-attrib_entity_geombuild-individual_entity_attribute-attrib_HH-attrib $-1 $-1 $-1 $369 F #
coedge $595 $586 $369 $478 $574 reversed $504 $-1 #
loop $-1 $-1 $369 $475 #
convexity-sys-attrib $-1 $596 $-1 $370 #
straight-curve $-1 -1.7763568394002505e-015 2 -0.99999999999999956 1 0 0 F -5.1163977794943225 F 5.1163977794943243 #
named_string_attribute-named_attribute-st-attrib $-1 $597 $373 $0 4 name 8 sigman96 #
attrib_hh_face_geombuild-attrib_entity_geombuild-individual_entity_attribute-attrib_HH-attrib $-1 $-1 $375 $237 F #
attrib_hh_coedge_geombuild-attrib_entity_geombuild-individual_entity_attribute-attrib_HH-attrib $-1 $-1 $-1 $380 F #
coedge $598 $599 $380 $600 $601 reversed $166 $-1 #
convexity-sys-attrib $-1 $602 $381 $242 #
convexity-sys-attrib $-1 $603 $384 $245 #
attrib_hh_coedge_geombuild-attrib_entity_geombuild-individual_entity_attribute-attrib_HH-attrib $-1 $-1 $-1 $387 F #
coedge $604 $535 $600 $387 $515 forward $548 $-1 #
edge $605 $520 -1.5000000000000002 $517 1.5000000000000009 $514 $606 forward 7 unknown #
attrib_edge_convexity-kcp-attrib $-1 $607 $-1 $388 1 #
vertex $608 $536 $609 #
straight-curve $-1 4.9491557295689841 3 1.7395726604743085 0.25000000000000039 0 0.96824583655185426 I I #
attrib_edge_convexity-kcp-attrib $-1 $610 $-1 $390 1 #
vertex $611 $390 $612 #
straight-curve $-1 1.0508442704310181 3 1.7395726604743089 0.24999999999999994 0 -0.96824583655185426 I I #
attrib_hh_edge_geombuild-attrib_entity_geombuild-individual_entity_attribute-attrib_HH-attrib $-1 $-1 $397 $150 F #
attrib_hh_edge_geombuild-attrib_entity_geombuild-individual_entity_attribute-attrib_HH-attrib $-1 $-1 $400 $153 F #
attrib_hh_coedge_geombuild-attrib_entity_geombuild-individual_entity_attribute-attrib_HH-attrib $-1 $-1 $-1 $404 F #
coedge $613 $534 $404 $614 $615 reversed $161 $-1 #
coedge $616 $617 $618 $404 $527 forward $619 $-1 #
edge $620 $621 -1.8504363994027246 $531 2.280745836551854 $526 $622 forward 7 unknown #
attrib_hh_coedge_geombuild-attrib_entity_geombuild-individual_entity_attribute-attrib_HH-attrib $-1 $-1 $-1 $405 F #
coedge $623 $405 $412 $617 $624 forward $376 $-1 #
attrib_edge_convexity-kcp-attrib $-1 $625 $-1 $406 1 #
vertex $626 $406 $627 #
straight-curve $-1 4.5000000000000027 5 0 -1.2246467991473532e-016 -1 0 I I #
attrib_hh_coedge_geombuild-attrib_entity_geombuild-individual_entity_attribute-attrib_HH-attrib $-1 $-1 $-1 $408 F #
coedge $628 $408 $525 $629 $630 reversed $161 $-1 #
coedge $631 $632 $514 $408 $536 forward $548 $-1 #
edge $633 $517 2 $634 5 $535 $532 forward 7 unknown #
attrib_hh_coedge_geombuild-attrib_entity_geombuild-individual_entity_attribute-attrib_HH-attrib $-1 $-1 $-1 $411 F #
coedge $635 $411 $599 $636 $637 reversed $166 $-1 #
coedge $638 $618 $617 $411 $540 forward $619 $-1 #
edge $639 $543 -2.2807458365518545 $640 1.8504363994027235 $539 $641 forward 7 unknown #
attrib_hh_coedge_geombuild-attrib_entity_geombuild-individual_entity_attribute-attrib_HH-attrib $-1 $-1 $-1 $412 F #
attrib_edge_convexity-kcp-attrib $-1 $642 $-1 $413 1 #
vertex $643 $624 $644 #
straight-curve $-1 1.5000000000000004 5 0 0 1 0 I I #
attrib_hh_face_geombuild-attrib_entity_geombuild-individual_entity_attribute-attrib_HH-attrib $-1 $-1 $414 $273 F #
model_id-kcp-attrib $-1 $645 $-1 $415 1 1017696181 90 1415184385 10 #
face $646 $647 $648 $9 $-1 $649 reversed single #
loop $-1 $-1 $514 $415 #
convexity-sys-attrib $-1 $650 $419 $277 #
attrib_hh_edge_geombuild-attrib_entity_geombuild-individual_entity_attribute-attrib_HH-attrib $-1 $-1 $421 $171 F #
attrib_hh_edge_geombuild-attrib_entity_geombuild-individual_entity_attribute-attrib_HH-attrib $-1 $-1 $424 $173 F #
straight-curve $-1 -2.5327955589886466 5 0 0 0 -1 I I #
point $-1 -2.5327955589886466 -5 -2.0000000000000004 #
straight-curve $-1 -2.5327955589886466 0 -2.0000000000000004 0 1 0 I I #
point $-1 -2.5327955589886466 5 -2.0000000000000004 #
edge $-1 $557 -7.5 $452 2.5 $445 $651 forward 7 unknown #
vertex $-1 $447 $652 #
straight-curve $-1 -1.9533853488851274 5.0000000000000009 -0.24404609435347333 0.25000000000000044 0 -0.96824583655185414 I I #
straight-curve $-1 -2.5327955589886466 -5 0 0 0 -1 I I #
straight-curve $-1 0 -5 -2.0000000000000004 -1 0 0 I I #
point $-1 -1.500000000000004 -5 -2 #
point $-1 -2.5327955589886466 -5 2.0000000000000004 #
point $-1 -2.5327955589886466 -5 -2.0000000000000004 #
edge $-1 $467 -5 $565 5 $466 $653 forward 7 unknown #
vertex $-1 $472 $654 #
point $-1 2.5327955589886466 5 -2.0000000000000004 #
straight-curve $-1 2.5327955589886466 -5 0 0 0 -1 I I #
attrib_hh_face_geombuild-attrib_entity_geombuild-individual_entity_attribute-attrib_HH-attrib $-1 $-1 $-1 $475 F #
face $655 $656 $591 $26 $-1 $657 reversed single #
plane-surface $-1 -1.7763568394002505e-015 2 -0.99999999999999956 0 -1 0 0 0 -1 forward_v I I I I #
coedge $-1 $478 $477 $658 $659 reversed $217 $-1 #
coedge $660 $581 $590 $477 $573 reversed $591 $-1 #
edge $-1 $486 -0.21977486121839593 $661 0.81302069777024899 $477 $662 forward 7 unknown #
edge $-1 $663 -0.81302069777024877 $354 0.21977486121839593 $478 $664 forward 7 unknown #
convexity-sys-attrib $-1 $-1 $-1 $480 #
straight-curve $-1 -1.7763568394002505e-015 -1 0 -1 0 0 I I #
ellipse-curve $-1 1.7581988897471614 -1 -0.99999999999999956 1 3.5437110976725145e-032 0 0 -0.70710678118654746 0.70710678118654746 1 I I #
point $-1 1.7581988897471597 -1 1.1102230246251565e-016 #
point $-1 1.7581988897471614 -2 -0.99999999999999956 #
attrib_hh_coedge_geombuild-attrib_entity_geombuild-individual_entity_attribute-attrib_HH-attrib $-1 $-1 $-1 $490 F #
coedge $665 $495 $572 $490 $582 forward $591 $-1 #
edge $666 $486 -1.7581988897471632 $362 1.7581988897471612 $581 $667 forward 7 unknown #
coedge $-1 $668 $669 $492 $584 forward $670 $-1 #
edge $-1 $592 0.5 $587 4.5 $583 $671 forward 7 unknown #
attrib_hh_coedge_geombuild-attrib_entity_geombuild-individual_entity_attribute-attrib_HH-attrib $-1 $-1 $-1 $493 F #
coedge $672 $493 $503 $668 $673 reversed $504 $-1 #
vertex $-1 $673 $674 #
straight-curve $-1 -1.8323546193161453 2 -0.7127960943534728 0.25000000000000044 0 -0.96824583655185414 I I #
attrib_hh_coedge_geombuild-attrib_entity_geombuild-individual_entity_attribute-attrib_HH-attrib $-1 $-1 $-1 $495 F #
coedge $675 $572 $495 $669 $676 reversed $591 $-1 #
loop $-1 $-1 $581 $569 #
vertex $-1 $584 $677 #
straight-curve $-1 -1.8323546193161453 -2 -0.7127960943534728 -0.25000000000000044 0 0.96824583655185414 I I #
plane-surface $-1 -2.0163977794943251 -5 2.2204460492503131e-016 -0.96824583655185414 -3.4311835162640132e-032 -0.25000000000000044 3.5437110976725145e-032 -1 0 forward_v I I I I #
attrib_hh_coedge_geombuild-attrib_entity_geombuild-individual_entity_attribute-attrib_HH-attrib $-1 $-1 $-1 $503 F #
attrib_hh_edge_geombuild-attrib_entity_geombuild-individual_entity_attribute-attrib_HH-attrib $-1 $-1 $505 $370 F #
rgb_color-st-attrib $-1 $-1 $507 $0 0 1 0 #
attrib_hh_coedge_geombuild-attrib_entity_geombuild-individual_entity_attribute-attrib_HH-attrib $-1 $-1 $-1 $510 F #
coedge $678 $538 $510 $679 $680 reversed $166 $-1 #
coedge $681 $514 $632 $510 $601 forward $548 $-1 #
edge $682 $683 -5 $520 -2 $600 $544 forward 7 unknown #
attrib_hh_edge_geombuild-attrib_entity_geombuild-individual_entity_attribute-attrib_HH-attrib $-1 $-1 $511 $242 F #
attrib_hh_edge_geombuild-attrib_entity_geombuild-individual_entity_attribute-attrib_HH-attrib $-1 $-1 $512 $245 F #
attrib_hh_coedge_geombuild-attrib_entity_geombuild-individual_entity_attribute-attrib_HH-attrib $-1 $-1 $-1 $514 F #
attrib_hh_edge_geombuild-attrib_entity_geombuild-individual_entity_attribute-attrib_HH-attrib $-1 $-1 $-1 $515 F #
straight-curve $-1 3 3 0 1 0 0 I I #
convexity-sys-attrib $-1 $684 $516 $388 #
attrib_hh_vertex_geombuild-attrib_entity_geombuild-individual_entity_attribute-attrib_HH-attrib $-1 $-1 $-1 $517 F #
point $-1 4.5000000000000009 3 0 #
convexity-sys-attrib $-1 $685 $519 $390 #
attrib_hh_vertex_geombuild-attrib_entity_geombuild-individual_entity_attribute-attrib_HH-attrib $-1 $-1 $-1 $520 F #
point $-1 1.4999999999999998 3 0 #
attrib_hh_coedge_geombuild-attrib_entity_geombuild-individual_entity_attribute-attrib_HH-attrib $-1 $-1 $-1 $525 F #
coedge $686 $687 $688 $525 $615 forward $689 $-1 #
edge $690 $691 -5 $621 5 $614 $692 forward 7 unknown #
attrib_hh_coedge_geombuild-attrib_entity_geombuild-individual_entity_attribute-attrib_HH-attrib $-1 $-1 $-1 $526 F #
coedge $693 $539 $526 $529 $624 reversed $619 $-1 #
coedge $694 $526 $539 $687 $695 reversed $619 $-1 #
loop $-1 $-1 $526 $647 #
attrib_edge_convexity-kcp-attrib $-1 $696 $-1 $527 1 #
vertex $697 $695 $698 #
straight-curve $-1 5.0701864591379664 10 2.208322660474308 -0.25000000000000039 0 -0.96824583655185426 I I #
attrib_hh_coedge_geombuild-attrib_entity_geombuild-individual_entity_attribute-attrib_HH-attrib $-1 $-1 $-1 $529 F #
edge $699 $543 -1.5 $531 1.5000000000000018 $617 $700 forward 7 unknown #
convexity-sys-attrib $-1 $701 $530 $406 #
attrib_hh_vertex_geombuild-attrib_entity_geombuild-individual_entity_attribute-attrib_HH-attrib $-1 $-1 $-1 $531 F #
point $-1 4.5000000000000018 10 0 #
attrib_hh_coedge_geombuild-attrib_entity_geombuild-individual_entity_attribute-attrib_HH-attrib $-1 $-1 $-1 $534 F #
coedge $702 $703 $704 $534 $630 forward $648 $-1 #
edge $705 $634 -2.2807458365518545 $691 1.8504363994027244 $629 $706 forward 7 unknown #
attrib_hh_coedge_geombuild-attrib_entity_geombuild-individual_entity_attribute-attrib_HH-attrib $-1 $-1 $-1 $535 F #
coedge $707 $600 $535 $704 $708 forward $548 $-1 #
attrib_edge_convexity-kcp-attrib $-1 $709 $-1 $536 1 #
vertex $710 $708 $711 #
attrib_hh_coedge_geombuild-attrib_entity_geombuild-individual_entity_attribute-attrib_HH-attrib $-1 $-1 $-1 $538 F #
coedge $712 $688 $687 $538 $637 forward $689 $-1 #
edge $713 $640 -5 $714 5 $636 $715 forward 7 unknown #
attrib_hh_coedge_geombuild-attrib_entity_geombuild-individual_entity_attribute-attrib_HH-attrib $-1 $-1 $-1 $539 F #
attrib_edge_convexity-kcp-attrib $-1 $716 $-1 $540 1 #
vertex $717 $540 $718 #
straight-curve $-1 0.92981354086203627 10 2.2083226604743089 -0.24999999999999994 0 0.96824583655185426 I I #
convexity-sys-attrib $-1 $719 $542 $413 #
attrib_hh_vertex_geombuild-attrib_entity_geombuild-individual_entity_attribute-attrib_HH-attrib $-1 $-1 $-1 $543 F #
point $-1 1.5 10 0 #
attrib_hh_face_geombuild-attrib_entity_geombuild-individual_entity_attribute-attrib_HH-attrib $-1 $-1 $546 $415 F #
model_id-kcp-attrib $-1 $720 $-1 $547 1 1017696181 90 1415184385 14 #
face $721 $722 $619 $9 $-1 $723 reversed single #
loop $-1 $-1 $629 $547 #
plane-surface $-1 3 0 2 0 1 0 0 0 1 forward_v I I I I #
attrib_hh_edge_geombuild-attrib_entity_geombuild-individual_entity_attribute-attrib_HH-attrib $-1 $-1 $549 $277 F #
straight-curve $-1 -1.5000000000000018 -2.5 -2.0000000000000004 3.5437110976725145e-032 -1 0 I I #
point $-1 -1.500000000000004 5 -2 #
straight-curve $-1 2.5327955589886466 0 -2.0000000000000004 0 -1 0 I I #
point $-1 2.5327955589886466 -5 -2.0000000000000004 #
attrib_hh_face_geombuild-attrib_entity_geombuild-individual_entity_attribute-attrib_HH-attrib $-1 $-1 $-1 $569 F #
face $-1 $497 $670 $26 $-1 $724 reversed single #
plane-surface $-1 -1.7763568394002505e-015 -2 -0.99999999999999956 0 1 0 0 0 1 forward_v I I I I #
coedge $-1 $669 $668 $571 $659 forward $670 $-1 #
edge $-1 $663 -4.5 $661 -0.5 $658 $725 forward 7 unknown #
attrib_hh_coedge_geombuild-attrib_entity_geombuild-individual_entity_attribute-attrib_HH-attrib $-1 $-1 $-1 $572 F #
vertex $-1 $573 $726 #
straight-curve $-1 1.703255174442561 -2 -1.2127960943534726 -0.24999999999999983 0 -0.96824583655185437 I I #
vertex $-1 $659 $727 #
straight-curve $-1 1.703255174442561 2 -1.2127960943534726 0.24999999999999983 0 0.96824583655185437 I I #
attrib_hh_coedge_geombuild-attrib_entity_geombuild-individual_entity_attribute-attrib_HH-attrib $-1 $-1 $-1 $581 F #
convexity-sys-attrib $-1 $728 $-1 $582 #
straight-curve $-1 -1.7763568394002505e-015 -2 -0.99999999999999956 -1 0 0 F -5.1163977794943243 F 5.1163977794943225 #
coedge $-1 $658 $583 $586 $673 forward $670 $-1 #
coedge $-1 $583 $658 $590 $676 forward $670 $-1 #
loop $-1 $-1 $668 $656 #
straight-curve $-1 -1.5000000000000018 -2.5 -2.0000000000000004 -3.5437110976725145e-032 1 0 I I #
attrib_hh_coedge_geombuild-attrib_entity_geombuild-individual_entity_attribute-attrib_HH-attrib $-1 $-1 $-1 $586 F #
edge $-1 $587 -1.5000000000000011 $663 1.5000000000000009 $668 $729 forward 7 unknown #
point $-1 -1.500000000000002 2 -1.9999999999999996 #
attrib_hh_coedge_geombuild-attrib_entity_geombuild-individual_entity_attribute-attrib_HH-attrib $-1 $-1 $-1 $590 F #
edge $-1 $661 -1.5 $592 1.5000000000000011 $669 $730 forward 7 unknown #
point $-1 -1.500000000000002 -2 -1.9999999999999996 #
attrib_hh_coedge_geombuild-attrib_entity_geombuild-individual_entity_attribute-attrib_HH-attrib $-1 $-1 $-1 $599 F #
coedge $731 $704 $703 $599 $680 forward $648 $-1 #
edge $732 $714 -1.8504363994027235 $683 2.2807458365518545 $679 $733 forward 7 unknown #
attrib_hh_coedge_geombuild-attrib_entity_geombuild-individual_entity_attribute-attrib_HH-attrib $-1 $-1 $-1 $600 F #
attrib_edge_convexity-kcp-attrib $-1 $734 $-1 $601 1 #
vertex $735 $601 $736 #
attrib_hh_edge_geombuild-attrib_entity_geombuild-individual_entity_attribute-attrib_HH-attrib $-1 $-1 $607 $388 F #
attrib_hh_edge_geombuild-attrib_entity_geombuild-individual_entity_attribute-attrib_HH-attrib $-1 $-1 $610 $390 F #
attrib_hh_coedge_geombuild-attrib_entity_geombuild-individual_entity_attribute-attrib_HH-attrib $-1 $-1 $-1 $614 F #
coedge $737 $636 $614 $618 $695 forward $689 $-1 #
coedge $738 $614 $636 $703 $739 forward $689 $-1 #
loop $-1 $-1 $614 $722 #
attrib_edge_convexity-kcp-attrib $-1 $740 $-1 $615 1 #
vertex $741 $630 $742 #
straight-curve $-1 5.5327955589886475 5 4 1.2246467991473532e-016 1 0 I I #
attrib_hh_coedge_geombuild-attrib_entity_geombuild-individual_entity_attribute-attrib_HH-attrib $-1 $-1 $-1 $617 F #
attrib_hh_coedge_geombuild-attrib_entity_geombuild-individual_entity_attribute-attrib_HH-attrib $-1 $-1 $-1 $618 F #
edge $743 $621 -2.5327955589886475 $640 2.5327955589886444 $618 $744 forward 7 unknown #
convexity-sys-attrib $-1 $745 $620 $527 #
attrib_hh_vertex_geombuild-attrib_entity_geombuild-individual_entity_attribute-attrib_HH-attrib $-1 $-1 $-1 $621 F #
point $-1 5.5327955589886475 10 4 #
model_id-kcp-attrib $-1 $746 $-1 $624 1 1017696181 90 1415184385 16 #
straight-curve $-1 3 10 0 1 0 0 I I #
attrib_hh_edge_geombuild-attrib_entity_geombuild-individual_entity_attribute-attrib_HH-attrib $-1 $-1 $625 $406 F #
attrib_hh_coedge_geombuild-attrib_entity_geombuild-individual_entity_attribute-attrib_HH-attrib $-1 $-1 $-1 $629 F #
coedge $747 $679 $629 $688 $739 reversed $648 $-1 #
coedge $748 $629 $679 $632 $708 reversed $648 $-1 #
attrib_edge_convexity-kcp-attrib $-1 $749 $-1 $630 1 #
straight-curve $-1 5.0701864591379646 0 2.2083226604743085 0.25000000000000039 0 0.96824583655185426 I I #
attrib_hh_coedge_geombuild-attrib_entity_geombuild-individual_entity_attribute-attrib_HH-attrib $-1 $-1 $-1 $632 F #
edge $750 $634 -1.5000000000000009 $683 1.5 $704 $751 forward 7 unknown #
convexity-sys-attrib $-1 $752 $633 $536 #
attrib_hh_vertex_geombuild-attrib_entity_geombuild-individual_entity_attribute-attrib_HH-attrib $-1 $-1 $-1 $634 F #
point $-1 4.5000000000000009 0 0 #
attrib_hh_coedge_geombuild-attrib_entity_geombuild-individual_entity_attribute-attrib_HH-attrib $-1 $-1 $-1 $636 F #
attrib_edge_convexity-kcp-attrib $-1 $753 $-1 $637 1 #
vertex $754 $739 $755 #
straight-curve $-1 0.46720444101135516 5 4 0 -1 0 I I #
convexity-sys-attrib $-1 $756 $639 $540 #
attrib_hh_vertex_geombuild-attrib_entity_geombuild-individual_entity_attribute-attrib_HH-attrib $-1 $-1 $-1 $640 F #
point $-1 0.46720444101135561 10 4 #
attrib_hh_edge_geombuild-attrib_entity_geombuild-individual_entity_attribute-attrib_HH-attrib $-1 $-1 $642 $413 F #
model_id-kcp-attrib $-1 $757 $646 $547 1 1017696181 90 1415184385 11 #
model_id-kcp-attrib $-1 $758 $-1 $647 1 1017696181 90 1415184385 12 #
face $759 $-1 $689 $9 $-1 $760 forward single #
plane-surface $-1 3 10 2 0 -1 0 0 0 -1 forward_v I I I I #
plane-surface $-1 0 0 -2.0000000000000004 0 0 1 1 0 0 forward_v I I I I #
straight-curve $-1 1.4999999999999989 -2.5 -2.0000000000000004 3.5437110976725145e-032 -1 0 I I #
point $-1 1.4999999999999991 -2 -1.9999999999999996 #
point $-1 1.5 2 -1.9999999999999996 #
attrib_hh_edge_geombuild-attrib_entity_geombuild-individual_entity_attribute-attrib_HH-attrib $-1 $-1 $666 $582 F #
straight-curve $-1 -8.8817841970012523e-016 2 -2.0000000000000004 1 0 0 I I #
straight-curve $-1 -8.8817841970012523e-016 -2 -2.0000000000000004 -1 0 0 I I #
attrib_hh_coedge_geombuild-attrib_entity_geombuild-individual_entity_attribute-attrib_HH-attrib $-1 $-1 $-1 $679 F #
attrib_edge_convexity-kcp-attrib $-1 $761 $-1 $680 1 #
straight-curve $-1 0.92981354086203627 0 2.2083226604743089 0.24999999999999994 0 -0.96824583655185426 I I #
convexity-sys-attrib $-1 $762 $682 $601 #
attrib_hh_vertex_geombuild-attrib_entity_geombuild-individual_entity_attribute-attrib_HH-attrib $-1 $-1 $-1 $683 F #
point $-1 1.5 0 0 #
attrib_hh_coedge_geombuild-attrib_entity_geombuild-individual_entity_attribute-attrib_HH-attrib $-1 $-1 $-1 $687 F #
attrib_hh_coedge_geombuild-attrib_entity_geombuild-individual_entity_attribute-attrib_HH-attrib $-1 $-1 $-1 $688 F #
edge $763 $714 -2.5327955589886444 $691 2.5327955589886466 $703 $764 forward 7 unknown #
convexity-sys-attrib $-1 $765 $690 $615 #
attrib_hh_vertex_geombuild-attrib_entity_geombuild-individual_entity_attribute-attrib_HH-attrib $-1 $-1 $-1 $691 F #
point $-1 5.5327955589886466 0 4 #
model_id-kcp-attrib $-1 $766 $-1 $695 1 1017696181 90 1415184385 15 #
straight-curve $-1 3 10 4 -1 0 0 I I #
attrib_hh_edge_geombuild-attrib_entity_geombuild-individual_entity_attribute-attrib_HH-attrib $-1 $-1 $696 $527 F #
attrib_edge_convexity-kcp-attrib $-1 $767 $699 $624 1 #
attrib_hh_coedge_geombuild-attrib_entity_geombuild-individual_entity_attribute-attrib_HH-attrib $-1 $-1 $-1 $703 F #
attrib_hh_coedge_geombuild-attrib_entity_geombuild-individual_entity_attribute-attrib_HH-attrib $-1 $-1 $-1 $704 F #
convexity-sys-attrib $-1 $768 $705 $630 #
attrib_edge_convexity-kcp-attrib $-1 $769 $-1 $708 1 #
straight-curve $-1 3 0 0 -1 0 0 I I #
attrib_hh_edge_geombuild-attrib_entity_geombuild-individual_entity_attribute-attrib_HH-attrib $-1 $-1 $709 $536 F #
convexity-sys-attrib $-1 $770 $713 $637 #
attrib_hh_vertex_geombuild-attrib_entity_geombuild-individual_entity_attribute-attrib_HH-attrib $-1 $-1 $-1 $714 F #
point $-1 0.46720444101135561 0 4 #
attrib_hh_edge_geombuild-attrib_entity_geombuild-individual_entity_attribute-attrib_HH-attrib $-1 $-1 $716 $540 F #
attrib_hh_face_geombuild-attrib_entity_geombuild-individual_entity_attribute-attrib_HH-attrib $-1 $-1 $720 $547 F #
attrib_hh_face_geombuild-attrib_entity_geombuild-individual_entity_attribute-attrib_HH-attrib $-1 $-1 $721 $647 F #
model_id-kcp-attrib $-1 $771 $-1 $722 1 1017696181 90 1415184385 13 #
plane-surface $-1 3 5 4 0 0 1 1 0 0 forward_v I I I I #
convexity-sys-attrib $-1 $772 $732 $680 #
attrib_hh_edge_geombuild-attrib_entity_geombuild-individual_entity_attribute-attrib_HH-attrib $-1 $-1 $734 $601 F #
attrib_edge_convexity-kcp-attrib $-1 $773 $-1 $739 1 #
straight-curve $-1 3 0 4 1 0 0 I I #
attrib_hh_edge_geombuild-attrib_entity_geombuild-individual_entity_attribute-attrib_HH-attrib $-1 $-1 $740 $615 F #
attrib_hh_edge_geombuild-attrib_entity_geombuild-individual_entity_attribute-attrib_HH-attrib $-1 $-1 $743 $695 F #
convexity-sys-attrib $-1 $774 $746 $624 #
attrib_hh_edge_geombuild-attrib_entity_geombuild-individual_entity_attribute-attrib_HH-attrib $-1 $-1 $749 $630 F #
convexity-sys-attrib $-1 $775 $750 $708 #
attrib_hh_edge_geombuild-attrib_entity_geombuild-individual_entity_attribute-attrib_HH-attrib $-1 $-1 $753 $637 F #
attrib_hh_face_geombuild-attrib_entity_geombuild-individual_entity_attribute-attrib_HH-attrib $-1 $-1 $759 $722 F #
attrib_hh_edge_geombuild-attrib_entity_geombuild-individual_entity_attribute-attrib_HH-attrib $-1 $-1 $761 $680 F #
convexity-sys-attrib $-1 $776 $763 $739 #
attrib_hh_edge_geombuild-attrib_entity_geombuild-individual_entity_attribute-attrib_HH-attrib $-1 $-1 $767 $624 F #
attrib_hh_edge_geombuild-attrib_entity_geombuild-individual_entity_attribute-attrib_HH-attrib $-1 $-1 $769 $708 F #
attrib_hh_edge_geombuild-attrib_entity_geombuild-individual_entity_attribute-attrib_HH-attrib $-1 $-1 $773 $739 F #
End-of-ACIS-data 