600 0 1 0           
117 GICL Pro/E ACIS Translator - Source: f:/data5/repository/PTC/V20/prod_appl/assoc_demo/mold/back_up_plate1.prt.3 - 6 0 13 ACIS 6.0.3 NT 24 Thu Apr 04 13:16:42 2002 
1 9.9999999999999995e-007 1e-010 
body $-1 $1 $-1 $2 #
lump $-1 $-1 $3 $0 #
transform $-1 1 0 0 0 1 0 0 0 1 0 0 0 25.399999999999999 no_rotate no_reflect no_shear #
shell $-1 $-1 $-1 $4 $-1 $1 #
face $-1 $5 $6 $3 $-1 $7 reversed single #
face $-1 $8 $9 $3 $-1 $10 reversed single #
loop $-1 $11 $12 $4 #
plane-surface $-1 0 0 0 0 -1 0 -1 0 0 forward_v I I I I #
face $-1 $13 $14 $3 $-1 $15 reversed single #
loop $-1 $-1 $16 $5 #
cone-surface $-1 -2.75 0 8.5 0 -1 0 0.26550000000000001 0 0 1 I I 0 1 0.26550000000000001 forward I I I I #
loop $-1 $17 $18 $4 #
coedge $-1 $19 $19 $20 $21 forward $6 $-1 #
face $-1 $22 $23 $3 $-1 $24 forward single #
loop $-1 $-1 $25 $8 #
cone-surface $-1 -2.75 0 8.5 0 -1 0 0.26550000000000001 0 0 1 I I 0 1 0.26550000000000001 forward I I I I #
coedge $-1 $26 $20 $27 $28 forward $9 $-1 #
loop $-1 $29 $30 $4 #
coedge $-1 $31 $31 $32 $33 forward $11 $-1 #
coedge $-1 $12 $12 $34 $35 forward $6 $-1 #
coedge $-1 $16 $36 $12 $21 reversed $9 $-1 #
edge $-1 $37 0 $38 3.1415926535897931 $12 $39 forward 7 unknown #
face $-1 $40 $41 $3 $-1 $42 reversed single #
loop $-1 $43 $44 $13 #
plane-surface $-1 0 -2.375 0 0 -1 0 -1 0 0 forward_v I I I I #
coedge $-1 $45 $34 $36 $46 forward $14 $-1 #
coedge $-1 $36 $16 $44 $47 forward $9 $-1 #
coedge $-1 $34 $45 $16 $28 reversed $14 $-1 #
edge $-1 $37 0 $48 2.375 $27 $49 forward 7 unknown #
loop $-1 $50 $51 $4 #
coedge $-1 $52 $52 $53 $54 forward $17 $-1 #
coedge $-1 $18 $18 $55 $56 forward $11 $-1 #
coedge $-1 $57 $58 $18 $33 reversed $41 $-1 #
edge $-1 $59 0 $60 3.1415926535897931 $18 $61 forward 7 unknown #
coedge $-1 $25 $27 $19 $35 reversed $14 $-1 #
edge $-1 $38 0 $37 3.1415926535897931 $19 $62 forward 7 unknown #
coedge $-1 $20 $26 $25 $46 reversed $9 $-1 #
vertex $-1 $35 $63 #
vertex $-1 $35 $64 #
ellipse-curve $-1 -2.75 0 8.5 0 -1 0 -0.26549999999999985 0 0 1 I I #
face $-1 $65 $66 $3 $-1 $67 reversed single #
loop $-1 $-1 $57 $22 #
cone-surface $-1 2.75 0 8.5 0 -1 0 0.26550000000000001 0 0 1 I I 0 1 0.26550000000000001 forward I I I I #
loop $-1 $68 $69 $13 #
coedge $-1 $70 $70 $26 $47 reversed $23 $-1 #
coedge $-1 $27 $25 $70 $71 forward $14 $-1 #
edge $-1 $38 0 $72 2.375 $25 $73 forward 7 unknown #
edge $-1 $48 0 $72 3.1415926535897931 $44 $74 forward 7 unknown #
vertex $-1 $71 $75 #
straight-curve $-1 -3.0154999999999998 0 8.5 0 -1 0 I I #
loop $-1 $76 $77 $4 #
coedge $-1 $78 $78 $79 $80 forward $29 $-1 #
coedge $-1 $30 $30 $81 $82 forward $17 $-1 #
coedge $-1 $83 $84 $30 $54 reversed $85 $-1 #
edge $-1 $86 0 $87 3.1415926535897931 $30 $88 forward 7 unknown #
coedge $-1 $89 $90 $31 $56 reversed $66 $-1 #
edge $-1 $60 0 $59 3.1415926535897931 $31 $91 forward 7 unknown #
coedge $-1 $92 $32 $90 $93 forward $41 $-1 #
coedge $-1 $32 $92 $89 $94 reversed $41 $-1 #
vertex $-1 $56 $95 #
vertex $-1 $56 $96 #
ellipse-curve $-1 2.75 0 8.5 0 -1 0 -0.26549999999999985 0 0 1 I I #
ellipse-curve $-1 -2.75 0 8.5 0 -1 0 0.26549999999999985 0 0 1 I I #
point $-1 -3.0154999999999998 0 8.5 #
point $-1 -2.4845000000000002 0 8.5 #
face $-1 $97 $85 $3 $-1 $98 reversed single #
loop $-1 $-1 $89 $40 #
cone-surface $-1 2.75 0 8.5 0 -1 0 0.26550000000000001 0 0 1 I I 0 1 0.26550000000000001 forward I I I I #
loop $-1 $99 $100 $13 #
coedge $-1 $101 $101 $92 $102 reversed $43 $-1 #
coedge $-1 $44 $44 $45 $71 reversed $23 $-1 #
edge $-1 $72 0 $48 3.1415926535897931 $70 $103 forward 7 unknown #
vertex $-1 $71 $104 #
straight-curve $-1 -2.4845000000000002 0 8.5 0 -1 0 I I #
ellipse-curve $-1 -2.75 -2.375 8.5 0 -1 0 -0.26549999999999985 0 0 1 I I #
point $-1 -3.0154999999999998 -2.375 8.5 #
loop $-1 $105 $106 $4 #
coedge $-1 $107 $107 $108 $109 forward $50 $-1 #
coedge $-1 $51 $51 $110 $111 forward $29 $-1 #
coedge $-1 $112 $113 $51 $80 reversed $114 $-1 #
edge $-1 $115 0 $116 3.1415926535897931 $51 $117 forward 7 unknown #
coedge $-1 $118 $119 $52 $82 reversed $120 $-1 #
edge $-1 $87 0 $86 3.1415926535897931 $52 $121 forward 7 unknown #
coedge $-1 $122 $53 $119 $123 forward $85 $-1 #
coedge $-1 $53 $122 $118 $124 reversed $85 $-1 #
loop $-1 $-1 $83 $65 #
vertex $-1 $82 $125 #
vertex $-1 $82 $126 #
ellipse-curve $-1 -2.75 0 -8.5 0 -1 0 -0.26549999999999985 0 0 1 I I #
coedge $-1 $127 $55 $58 $94 forward $66 $-1 #
coedge $-1 $55 $127 $57 $93 reversed $66 $-1 #
ellipse-curve $-1 2.75 0 8.5 0 -1 0 0.26549999999999985 0 0 1 I I #
coedge $-1 $58 $57 $69 $102 forward $41 $-1 #
edge $-1 $59 0 $128 2.375 $90 $129 forward 7 unknown #
edge $-1 $60 0 $130 2.375 $89 $131 forward 7 unknown #
point $-1 2.4845000000000002 0 8.5 #
point $-1 3.0154999999999998 0 8.5 #
face $-1 $132 $120 $3 $-1 $133 reversed single #
cone-surface $-1 -2.75 0 -8.5 0 -1 0 0.26550000000000001 0 0 1 I I 0 1 0.26550000000000001 forward I I I I #
loop $-1 $134 $135 $13 #
coedge $-1 $136 $136 $122 $137 reversed $68 $-1 #
coedge $-1 $69 $69 $127 $138 reversed $43 $-1 #
edge $-1 $128 0 $130 3.1415926535897931 $69 $139 forward 7 unknown #
ellipse-curve $-1 -2.75 -2.375 8.5 0 -1 0 0.26549999999999985 0 0 1 I I #
point $-1 -2.4845000000000002 -2.375 8.5 #
loop $-1 $140 $141 $4 #
coedge $-1 $142 $142 $143 $144 forward $76 $-1 #
coedge $-1 $77 $77 $145 $146 forward $50 $-1 #
coedge $-1 $147 $148 $77 $109 reversed $149 $-1 #
edge $-1 $150 0 $151 3.1415926535897931 $77 $152 forward 7 unknown #
coedge $-1 $153 $154 $78 $111 reversed $155 $-1 #
edge $-1 $116 0 $115 3.1415926535897931 $78 $156 forward 7 unknown #
coedge $-1 $157 $79 $154 $158 forward $114 $-1 #
coedge $-1 $79 $157 $153 $159 reversed $114 $-1 #
loop $-1 $-1 $112 $132 #
vertex $-1 $111 $160 #
vertex $-1 $111 $161 #
ellipse-curve $-1 -11 0 6.5 0 -1 0 -0.38250000000000028 0 0 1 I I #
coedge $-1 $162 $81 $84 $124 forward $120 $-1 #
coedge $-1 $81 $162 $83 $123 reversed $120 $-1 #
loop $-1 $-1 $118 $97 #
ellipse-curve $-1 -2.75 0 -8.5 0 -1 0 0.26549999999999985 0 0 1 I I #
coedge $-1 $84 $83 $100 $137 forward $85 $-1 #
edge $-1 $86 0 $163 2.375 $119 $164 forward 7 unknown #
edge $-1 $87 0 $165 2.375 $118 $166 forward 7 unknown #
point $-1 -3.0154999999999998 0 -8.5 #
point $-1 -2.4845000000000002 0 -8.5 #
coedge $-1 $90 $89 $101 $138 forward $66 $-1 #
vertex $-1 $138 $167 #
straight-curve $-1 2.4845000000000002 0 8.5 0 -1 0 I I #
vertex $-1 $138 $168 #
straight-curve $-1 3.0154999999999998 0 8.5 0 -1 0 I I #
face $-1 $169 $114 $3 $-1 $170 reversed single #
cone-surface $-1 -2.75 0 -8.5 0 -1 0 0.26550000000000001 0 0 1 I I 0 1 0.26550000000000001 forward I I I I #
loop $-1 $171 $172 $13 #
coedge $-1 $173 $173 $157 $174 reversed $99 $-1 #
coedge $-1 $100 $100 $162 $175 reversed $68 $-1 #
edge $-1 $163 0 $165 3.1415926535897931 $100 $176 forward 7 unknown #
edge $-1 $130 0 $128 3.1415926535897931 $101 $177 forward 7 unknown #
ellipse-curve $-1 2.75 -2.375 8.5 0 -1 0 -0.26549999999999985 0 0 1 I I #
loop $-1 $178 $179 $4 #
coedge $-1 $180 $180 $181 $182 forward $105 $-1 #
coedge $-1 $106 $106 $183 $184 forward $76 $-1 #
coedge $-1 $185 $186 $106 $144 reversed $187 $-1 #
edge $-1 $188 0 $189 3.1415926535897931 $106 $190 forward 7 unknown #
coedge $-1 $191 $192 $107 $146 reversed $193 $-1 #
edge $-1 $151 0 $150 3.1415926535897931 $107 $194 forward 7 unknown #
coedge $-1 $195 $108 $192 $196 forward $149 $-1 #
coedge $-1 $108 $195 $191 $197 reversed $149 $-1 #
loop $-1 $-1 $147 $198 #
vertex $-1 $146 $199 #
vertex $-1 $146 $200 #
ellipse-curve $-1 -11 0 -6.5 0 -1 0 -0.38250000000000028 0 0 1 I I #
coedge $-1 $201 $110 $113 $159 forward $155 $-1 #
coedge $-1 $110 $201 $112 $158 reversed $155 $-1 #
loop $-1 $-1 $153 $169 #
ellipse-curve $-1 -11 0 6.5 0 -1 0 0.38250000000000028 0 0 1 I I #
coedge $-1 $113 $112 $135 $174 forward $114 $-1 #
edge $-1 $115 0 $202 2.375 $154 $203 forward 7 unknown #
edge $-1 $116 0 $204 2.375 $153 $205 forward 7 unknown #
point $-1 -11.3825 0 6.5 #
point $-1 -10.6175 0 6.5 #
coedge $-1 $119 $118 $136 $175 forward $120 $-1 #
vertex $-1 $175 $206 #
straight-curve $-1 -3.0154999999999998 0 -8.5 0 -1 0 I I #
vertex $-1 $175 $207 #
straight-curve $-1 -2.4845000000000002 0 -8.5 0 -1 0 I I #
point $-1 2.4845000000000002 -2.375 8.5 #
point $-1 3.0154999999999998 -2.375 8.5 #
face $-1 $198 $155 $3 $-1 $208 reversed single #
cone-surface $-1 -11 0 6.5 0 -1 0 0.38250000000000001 0 0 1 I I 0 1 0.38250000000000001 forward I I I I #
loop $-1 $209 $210 $13 #
coedge $-1 $211 $211 $195 $212 reversed $134 $-1 #
coedge $-1 $135 $135 $201 $213 reversed $99 $-1 #
edge $-1 $202 0 $204 3.1415926535897931 $135 $214 forward 7 unknown #
edge $-1 $165 0 $163 3.1415926535897931 $136 $215 forward 7 unknown #
ellipse-curve $-1 -2.75 -2.375 -8.5 0 -1 0 -0.26549999999999985 0 0 1 I I #
ellipse-curve $-1 2.75 -2.375 8.5 0 -1 0 0.26549999999999985 0 0 1 I I #
loop $-1 $216 $217 $4 #
coedge $-1 $218 $218 $219 $220 forward $140 $-1 #
coedge $-1 $141 $141 $221 $222 forward $105 $-1 #
coedge $-1 $223 $224 $141 $182 reversed $225 $-1 #
edge $-1 $226 0 $227 3.1415926535897931 $141 $228 forward 7 unknown #
coedge $-1 $229 $230 $142 $184 reversed $231 $-1 #
edge $-1 $189 0 $188 3.1415926535897931 $142 $232 forward 7 unknown #
coedge $-1 $233 $143 $230 $234 forward $187 $-1 #
coedge $-1 $143 $233 $229 $235 reversed $187 $-1 #
loop $-1 $-1 $185 $236 #
vertex $-1 $184 $237 #
vertex $-1 $184 $238 #
ellipse-curve $-1 11 0 6.5 0 -1 0 -0.38250000000000028 0 0 1 I I #
coedge $-1 $239 $145 $148 $197 forward $193 $-1 #
coedge $-1 $145 $239 $147 $196 reversed $193 $-1 #
loop $-1 $-1 $191 $240 #
ellipse-curve $-1 -11 0 -6.5 0 -1 0 0.38250000000000028 0 0 1 I I #
coedge $-1 $148 $147 $172 $212 forward $149 $-1 #
edge $-1 $150 0 $241 2.375 $192 $242 forward 7 unknown #
edge $-1 $151 0 $243 2.375 $191 $244 forward 7 unknown #
face $-1 $240 $149 $3 $-1 $245 reversed single #
point $-1 -11.3825 0 -6.5 #
point $-1 -10.6175 0 -6.5 #
coedge $-1 $154 $153 $173 $213 forward $155 $-1 #
vertex $-1 $213 $246 #
straight-curve $-1 -11.3825 0 6.5 0 -1 0 I I #
vertex $-1 $213 $247 #
straight-curve $-1 -10.6175 0 6.5 0 -1 0 I I #
point $-1 -3.0154999999999998 -2.375 -8.5 #
point $-1 -2.4845000000000002 -2.375 -8.5 #
cone-surface $-1 -11 0 6.5 0 -1 0 0.38250000000000001 0 0 1 I I 0 1 0.38250000000000001 forward I I I I #
loop $-1 $248 $249 $13 #
coedge $-1 $250 $250 $233 $251 reversed $171 $-1 #
coedge $-1 $172 $172 $239 $252 reversed $134 $-1 #
edge $-1 $241 0 $243 3.1415926535897931 $172 $253 forward 7 unknown #
edge $-1 $204 0 $202 3.1415926535897931 $173 $254 forward 7 unknown #
ellipse-curve $-1 -11 -2.375 6.5 0 -1 0 -0.38250000000000028 0 0 1 I I #
ellipse-curve $-1 -2.75 -2.375 -8.5 0 -1 0 0.26549999999999985 0 0 1 I I #
loop $-1 $255 $256 $4 #
coedge $-1 $257 $257 $258 $259 forward $178 $-1 #
coedge $-1 $179 $179 $260 $261 forward $140 $-1 #
coedge $-1 $262 $263 $179 $220 reversed $264 $-1 #
edge $-1 $265 0 $266 3.1415926535897931 $179 $267 forward 7 unknown #
coedge $-1 $268 $269 $180 $222 reversed $270 $-1 #
edge $-1 $227 0 $226 3.1415926535897931 $180 $271 forward 7 unknown #
coedge $-1 $272 $181 $269 $273 forward $225 $-1 #
coedge $-1 $181 $272 $268 $274 reversed $225 $-1 #
loop $-1 $-1 $223 $275 #
vertex $-1 $222 $276 #
vertex $-1 $222 $277 #
ellipse-curve $-1 -7.75 0 8.5 0 -1 0 -0.2654999999999994 0 0 1 I I #
coedge $-1 $278 $183 $186 $235 forward $231 $-1 #
coedge $-1 $183 $278 $185 $234 reversed $231 $-1 #
loop $-1 $-1 $229 $279 #
ellipse-curve $-1 11 0 6.5 0 -1 0 0.38250000000000028 0 0 1 I I #
coedge $-1 $186 $185 $210 $251 forward $187 $-1 #
edge $-1 $188 0 $280 2.375 $230 $281 forward 7 unknown #
edge $-1 $189 0 $282 2.375 $229 $283 forward 7 unknown #
face $-1 $279 $187 $3 $-1 $284 reversed single #
point $-1 10.6175 0 6.5 #
point $-1 11.3825 0 6.5 #
coedge $-1 $192 $191 $211 $252 forward $193 $-1 #
face $-1 $236 $193 $3 $-1 $285 reversed single #
vertex $-1 $252 $286 #
straight-curve $-1 -11.3825 0 -6.5 0 -1 0 I I #
vertex $-1 $252 $287 #
straight-curve $-1 -10.6175 0 -6.5 0 -1 0 I I #
cone-surface $-1 -11 0 -6.5 0 -1 0 0.38250000000000001 0 0 1 I I 0 1 0.38250000000000001 forward I I I I #
point $-1 -11.3825 -2.375 6.5 #
point $-1 -10.6175 -2.375 6.5 #
loop $-1 $288 $289 $13 #
coedge $-1 $290 $290 $272 $291 reversed $209 $-1 #
coedge $-1 $210 $210 $278 $292 reversed $171 $-1 #
edge $-1 $280 0 $282 3.1415926535897931 $210 $293 forward 7 unknown #
edge $-1 $243 0 $241 3.1415926535897931 $211 $294 forward 7 unknown #
ellipse-curve $-1 -11 -2.375 -6.5 0 -1 0 -0.38250000000000028 0 0 1 I I #
ellipse-curve $-1 -11 -2.375 6.5 0 -1 0 0.38250000000000028 0 0 1 I I #
loop $-1 $295 $296 $4 #
coedge $-1 $297 $297 $298 $299 forward $216 $-1 #
coedge $-1 $217 $217 $300 $301 forward $178 $-1 #
coedge $-1 $302 $303 $217 $259 reversed $304 $-1 #
edge $-1 $305 0 $306 3.1415926535897931 $217 $307 forward 7 unknown #
coedge $-1 $308 $309 $218 $261 reversed $310 $-1 #
edge $-1 $266 0 $265 3.1415926535897931 $218 $311 forward 7 unknown #
coedge $-1 $312 $219 $309 $313 forward $264 $-1 #
coedge $-1 $219 $312 $308 $314 reversed $264 $-1 #
loop $-1 $-1 $262 $315 #
vertex $-1 $261 $316 #
vertex $-1 $261 $317 #
ellipse-curve $-1 7.75 0 8.5 0 -1 0 -0.26550000000000029 0 0 1 I I #
coedge $-1 $318 $221 $224 $274 forward $270 $-1 #
coedge $-1 $221 $318 $223 $273 reversed $270 $-1 #
loop $-1 $-1 $268 $319 #
ellipse-curve $-1 -7.75 0 8.5 0 -1 0 0.2654999999999994 0 0 1 I I #
coedge $-1 $224 $223 $249 $291 forward $225 $-1 #
edge $-1 $226 0 $320 2.375 $269 $321 forward 7 unknown #
edge $-1 $227 0 $322 2.375 $268 $323 forward 7 unknown #
face $-1 $319 $225 $3 $-1 $324 reversed single #
point $-1 -8.0154999999999994 0 8.5 #
point $-1 -7.4845000000000006 0 8.5 #
coedge $-1 $230 $229 $250 $292 forward $231 $-1 #
face $-1 $275 $231 $3 $-1 $325 reversed single #
vertex $-1 $292 $326 #
straight-curve $-1 10.6175 0 6.5 0 -1 0 I I #
vertex $-1 $292 $327 #
straight-curve $-1 11.3825 0 6.5 0 -1 0 I I #
cone-surface $-1 11 0 6.5 0 -1 0 0.38250000000000001 0 0 1 I I 0 1 0.38250000000000001 forward I I I I #
cone-surface $-1 -11 0 -6.5 0 -1 0 0.38250000000000001 0 0 1 I I 0 1 0.38250000000000001 forward I I I I #
point $-1 -11.3825 -2.375 -6.5 #
point $-1 -10.6175 -2.375 -6.5 #
loop $-1 $328 $329 $13 #
coedge $-1 $330 $330 $312 $331 reversed $248 $-1 #
coedge $-1 $249 $249 $318 $332 reversed $209 $-1 #
edge $-1 $320 0 $322 3.1415926535898064 $249 $333 forward 7 unknown #
edge $-1 $282 0 $280 3.1415926535897931 $250 $334 forward 7 unknown #
ellipse-curve $-1 11 -2.375 6.5 0 -1 0 -0.38250000000000028 0 0 1 I I #
ellipse-curve $-1 -11 -2.375 -6.5 0 -1 0 0.38250000000000028 0 0 1 I I #
loop $-1 $335 $336 $4 #
coedge $-1 $337 $337 $338 $339 forward $255 $-1 #
coedge $-1 $256 $256 $340 $341 forward $216 $-1 #
coedge $-1 $342 $343 $256 $299 reversed $344 $-1 #
edge $-1 $345 0 $346 3.1415926535897931 $256 $347 forward 7 unknown #
coedge $-1 $348 $349 $257 $301 reversed $350 $-1 #
edge $-1 $306 0 $305 3.1415926535897931 $257 $351 forward 7 unknown #
coedge $-1 $352 $258 $349 $353 forward $304 $-1 #
coedge $-1 $258 $352 $348 $354 reversed $304 $-1 #
loop $-1 $-1 $302 $355 #
vertex $-1 $301 $356 #
vertex $-1 $301 $357 #
ellipse-curve $-1 -7.75 0 -8.5 0 -1 0 -0.2654999999999994 0 0 1 I I #
coedge $-1 $358 $260 $263 $314 forward $310 $-1 #
coedge $-1 $260 $358 $262 $313 reversed $310 $-1 #
loop $-1 $-1 $308 $359 #
ellipse-curve $-1 7.75 0 8.5 0 -1 0 0.2654999999999994 0 0 1 I I #
coedge $-1 $263 $262 $289 $331 forward $264 $-1 #
edge $-1 $265 0 $360 2.375 $309 $361 forward 7 unknown #
edge $-1 $266 0 $362 2.375 $308 $363 forward 7 unknown #
face $-1 $359 $264 $3 $-1 $364 reversed single #
point $-1 7.4844999999999997 0 8.5 #
point $-1 8.0154999999999994 0 8.5 #
coedge $-1 $269 $268 $290 $332 forward $270 $-1 #
face $-1 $315 $270 $3 $-1 $365 reversed single #
vertex $-1 $332 $366 #
straight-curve $-1 -8.0154999999999994 0 8.5 0 -1 0 I I #
vertex $-1 $332 $367 #
straight-curve $-1 -7.4844999999999997 0 8.5 0 -1 0 I I #
cone-surface $-1 -7.75 0 8.5 0 -1 0 0.26550000000000001 0 0 1 I I 0 1 0.26550000000000001 forward I I I I #
cone-surface $-1 11 0 6.5 0 -1 0 0.38250000000000001 0 0 1 I I 0 1 0.38250000000000001 forward I I I I #
point $-1 10.6175 -2.375 6.5 #
point $-1 11.3825 -2.375 6.5 #
loop $-1 $368 $369 $13 #
coedge $-1 $370 $370 $352 $371 reversed $288 $-1 #
coedge $-1 $289 $289 $358 $372 reversed $248 $-1 #
edge $-1 $360 0 $362 3.1415926535897931 $289 $373 forward 7 unknown #
edge $-1 $322 0 $320 3.1415926535898064 $290 $374 forward 7 unknown #
ellipse-curve $-1 -7.75 -2.375 8.4999999999999982 0 -1 0 -0.2654999999999994 0 1.7763568394002505e-015 1 I I #
ellipse-curve $-1 11 -2.375 6.5 0 -1 0 0.38250000000000028 0 0 1 I I #
loop $-1 $375 $376 $4 #
coedge $-1 $377 $377 $378 $379 forward $295 $-1 #
coedge $-1 $296 $296 $380 $381 forward $255 $-1 #
coedge $-1 $382 $383 $296 $339 reversed $384 $-1 #
edge $-1 $385 0 $386 3.1415926535897931 $296 $387 forward 7 unknown #
coedge $-1 $388 $389 $297 $341 reversed $390 $-1 #
edge $-1 $346 0 $345 3.1415926535897931 $297 $391 forward 7 unknown #
coedge $-1 $392 $298 $389 $393 forward $344 $-1 #
coedge $-1 $298 $392 $388 $394 reversed $344 $-1 #
loop $-1 $-1 $342 $395 #
vertex $-1 $341 $396 #
vertex $-1 $341 $397 #
ellipse-curve $-1 -10.625 0 8.5 0 -1 0 -0.75 0 0 1 I I #
coedge $-1 $398 $300 $303 $354 forward $350 $-1 #
coedge $-1 $300 $398 $302 $353 reversed $350 $-1 #
loop $-1 $-1 $348 $399 #
ellipse-curve $-1 -7.75 0 -8.5 0 -1 0 0.2654999999999994 0 0 1 I I #
coedge $-1 $303 $302 $329 $371 forward $304 $-1 #
edge $-1 $305 0 $400 2.375 $349 $401 forward 7 unknown #
edge $-1 $306 0 $402 2.375 $348 $403 forward 7 unknown #
face $-1 $399 $304 $3 $-1 $404 reversed single #
point $-1 -8.0154999999999994 0 -8.5 #
point $-1 -7.4845000000000006 0 -8.5 #
coedge $-1 $309 $308 $330 $372 forward $310 $-1 #
face $-1 $355 $310 $3 $-1 $405 reversed single #
vertex $-1 $372 $406 #
straight-curve $-1 7.4844999999999997 0 8.5 0 -1 0 I I #
vertex $-1 $372 $407 #
straight-curve $-1 8.0154999999999994 0 8.5 0 -1 0 I I #
cone-surface $-1 7.75 0 8.5 0 -1 0 0.26550000000000001 0 0 1 I I 0 1 0.26550000000000001 forward I I I I #
cone-surface $-1 -7.75 0 8.5 0 -1 0 0.26550000000000001 0 0 1 I I 0 1 0.26550000000000001 forward I I I I #
point $-1 -8.0154999999999994 -2.375 8.5 #
point $-1 -7.4845000000000006 -2.375 8.5 #
loop $-1 $408 $409 $13 #
coedge $-1 $410 $410 $392 $411 reversed $328 $-1 #
coedge $-1 $329 $329 $398 $412 reversed $288 $-1 #
edge $-1 $400 0 $402 3.1415926535898064 $329 $413 forward 7 unknown #
edge $-1 $362 0 $360 3.1415926535898064 $330 $414 forward 7 unknown #
ellipse-curve $-1 7.75 -2.375 8.5 0 -1 0 -0.26550000000000029 0 0 1 I I #
ellipse-curve $-1 -7.75 -2.375 8.5000000000000018 0 -1 0 0.2654999999999994 0 -1.7763568394002505e-015 1 I I #
loop $-1 $415 $416 $4 #
coedge $-1 $417 $418 $419 $420 reversed $335 $-1 #
coedge $-1 $336 $336 $421 $422 forward $295 $-1 #
coedge $-1 $423 $424 $336 $379 reversed $425 $-1 #
edge $-1 $426 0 $427 3.1415926535897931 $336 $428 forward 7 unknown #
coedge $-1 $429 $430 $337 $381 reversed $431 $-1 #
edge $-1 $386 0 $385 3.1415926535897931 $337 $432 forward 7 unknown #
coedge $-1 $433 $338 $430 $434 forward $384 $-1 #
coedge $-1 $338 $433 $429 $435 reversed $384 $-1 #
loop $-1 $-1 $382 $436 #
vertex $-1 $381 $437 #
vertex $-1 $381 $438 #
ellipse-curve $-1 10.625 0 8.5 0 -1 0 -0.75 0 0 1 I I #
coedge $-1 $439 $340 $343 $394 forward $390 $-1 #
coedge $-1 $340 $439 $342 $393 reversed $390 $-1 #
loop $-1 $-1 $388 $440 #
ellipse-curve $-1 -10.625 0 8.5 0 -1 0 0.75 0 0 1 I I #
coedge $-1 $343 $342 $369 $411 forward $344 $-1 #
edge $-1 $345 0 $441 2.375 $389 $442 forward 7 unknown #
edge $-1 $346 0 $443 2.375 $388 $444 forward 7 unknown #
face $-1 $440 $344 $3 $-1 $445 reversed single #
point $-1 -11.375 0 8.5 #
point $-1 -9.875 0 8.5 #
coedge $-1 $349 $348 $370 $412 forward $350 $-1 #
face $-1 $395 $350 $3 $-1 $446 reversed single #
vertex $-1 $412 $447 #
straight-curve $-1 -8.0154999999999994 0 -8.5 0 -1 0 I I #
vertex $-1 $412 $448 #
straight-curve $-1 -7.4844999999999997 0 -8.5 0 -1 0 I I #
cone-surface $-1 -7.75 0 -8.5 0 -1 0 0.26550000000000001 0 0 1 I I 0 1 0.26550000000000001 forward I I I I #
cone-surface $-1 7.75 0 8.5 0 -1 0 0.26550000000000001 0 0 1 I I 0 1 0.26550000000000001 forward I I I I #
point $-1 7.4844999999999997 -2.375 8.5 #
point $-1 8.0154999999999994 -2.375 8.5 #
loop $-1 $449 $450 $13 #
coedge $-1 $451 $451 $433 $452 reversed $368 $-1 #
coedge $-1 $369 $369 $439 $453 reversed $328 $-1 #
edge $-1 $441 0 $443 3.1415926535897931 $369 $454 forward 7 unknown #
edge $-1 $402 0 $400 3.1415926535898064 $370 $455 forward 7 unknown #
ellipse-curve $-1 -7.75 -2.375 -8.5000000000000018 0 -1 0 -0.2654999999999994 0 1.7763568394002505e-015 1 I I #
ellipse-curve $-1 7.7499999999999991 -2.375 8.5000000000000018 0 -1 0 0.26550000000000029 0 -1.7763568394002505e-015 1 I I #
loop $-1 $456 $457 $4 #
coedge $-1 $458 $458 $459 $460 forward $375 $-1 #
coedge $-1 $461 $376 $462 $463 reversed $335 $-1 #
coedge $-1 $376 $461 $464 $465 reversed $335 $-1 #
coedge $-1 $466 $467 $376 $420 forward $468 $-1 #
edge $-1 $469 0 $470 19.5 $376 $471 forward 7 unknown #
coedge $-1 $472 $473 $377 $422 reversed $474 $-1 #
edge $-1 $427 0 $426 3.1415926535897931 $377 $475 forward 7 unknown #
coedge $-1 $476 $378 $473 $477 forward $425 $-1 #
coedge $-1 $378 $476 $472 $478 reversed $425 $-1 #
loop $-1 $-1 $423 $479 #
vertex $-1 $422 $480 #
vertex $-1 $422 $481 #
ellipse-curve $-1 -10.625 0 -8.5 0 -1 0 -0.75 0 0 1 I I #
coedge $-1 $482 $380 $383 $435 forward $431 $-1 #
coedge $-1 $380 $482 $382 $434 reversed $431 $-1 #
loop $-1 $-1 $429 $483 #
ellipse-curve $-1 10.625 0 8.5 0 -1 0 0.75 0 0 1 I I #
coedge $-1 $383 $382 $409 $452 forward $384 $-1 #
edge $-1 $385 0 $484 2.375 $430 $485 forward 7 unknown #
edge $-1 $386 0 $486 2.375 $429 $487 forward 7 unknown #
face $-1 $483 $384 $3 $-1 $488 reversed single #
point $-1 9.875 0 8.5 #
point $-1 11.375 0 8.5 #
coedge $-1 $389 $388 $410 $453 forward $390 $-1 #
face $-1 $436 $390 $3 $-1 $489 reversed single #
vertex $-1 $453 $490 #
straight-curve $-1 -11.375 0 8.5 0 -1 0 I I #
vertex $-1 $453 $491 #
straight-curve $-1 -9.875 0 8.5 0 -1 0 I I #
cone-surface $-1 -10.625 0 8.5 0 -1 0 0.75 0 0 1 I I 0 1 0.75 forward I I I I #
cone-surface $-1 -7.75 0 -8.5 0 -1 0 0.26550000000000001 0 0 1 I I 0 1 0.26550000000000001 forward I I I I #
point $-1 -8.0154999999999994 -2.375 -8.5 #
point $-1 -7.4845000000000006 -2.375 -8.5 #
loop $-1 $492 $493 $13 #
coedge $-1 $494 $494 $476 $495 reversed $408 $-1 #
coedge $-1 $409 $409 $482 $496 reversed $368 $-1 #
edge $-1 $484 0 $486 3.1415926535897931 $409 $497 forward 7 unknown #
edge $-1 $443 0 $441 3.1415926535897931 $410 $498 forward 7 unknown #
ellipse-curve $-1 -10.625 -2.375 8.5 0 -1 0 -0.75 0 0 1 I I #
ellipse-curve $-1 -7.75 -2.375 -8.4999999999999982 0 -1 0 0.2654999999999994 0 -1.7763568394002505e-015 1 I I #
loop $-1 $499 $500 $4 #
coedge $-1 $501 $501 $502 $503 forward $415 $-1 #
coedge $-1 $416 $416 $504 $505 forward $375 $-1 #
coedge $-1 $506 $507 $416 $460 reversed $508 $-1 #
edge $-1 $509 0 $510 3.1415926535897931 $416 $511 forward 7 unknown #
coedge $-1 $418 $417 $512 $513 reversed $335 $-1 #
coedge $-1 $514 $515 $417 $463 forward $516 $-1 #
edge $-1 $517 0 $469 23.75 $417 $518 forward 7 unknown #
coedge $-1 $519 $520 $418 $465 forward $521 $-1 #
edge $-1 $470 0 $522 23.75 $418 $523 forward 7 unknown #
coedge $-1 $524 $419 $520 $525 forward $468 $-1 #
coedge $-1 $419 $524 $514 $526 reversed $468 $-1 #
loop $-1 $-1 $466 $527 #
vertex $-1 $463 $528 #
vertex $-1 $465 $529 #
straight-curve $-1 -11.875 0 9.75 0 0 -1 I I #
coedge $-1 $530 $421 $424 $478 forward $474 $-1 #
coedge $-1 $421 $530 $423 $477 reversed $474 $-1 #
loop $-1 $-1 $472 $531 #
ellipse-curve $-1 -10.625 0 -8.5 0 -1 0 0.75 0 0 1 I I #
coedge $-1 $424 $423 $450 $495 forward $425 $-1 #
edge $-1 $426 0 $532 2.375 $473 $533 forward 7 unknown #
edge $-1 $427 0 $534 2.375 $472 $535 forward 7 unknown #
face $-1 $531 $425 $3 $-1 $536 reversed single #
point $-1 -11.375 0 -8.5 #
point $-1 -9.875 0 -8.5 #
coedge $-1 $430 $429 $451 $496 forward $431 $-1 #
face $-1 $479 $431 $3 $-1 $537 reversed single #
vertex $-1 $496 $538 #
straight-curve $-1 9.875 0 8.5 0 -1 0 I I #
vertex $-1 $496 $539 #
straight-curve $-1 11.375 0 8.5 0 -1 0 I I #
cone-surface $-1 10.625 0 8.5 0 -1 0 0.75 0 0 1 I I 0 1 0.75 forward I I I I #
cone-surface $-1 -10.625 0 8.5 0 -1 0 0.75 0 0 1 I I 0 1 0.75 forward I I I I #
point $-1 -11.375 -2.375 8.5 #
point $-1 -9.875 -2.375 8.5 #
loop $-1 $540 $541 $13 #
coedge $-1 $542 $543 $544 $545 forward $449 $-1 #
coedge $-1 $450 $450 $530 $546 reversed $408 $-1 #
edge $-1 $532 0 $534 3.1415926535897931 $450 $547 forward 7 unknown #
edge $-1 $486 0 $484 3.1415926535897931 $451 $548 forward 7 unknown #
ellipse-curve $-1 10.625 -2.375 8.5 0 -1 0 -0.75 0 0 1 I I #
ellipse-curve $-1 -10.625 -2.375 8.5 0 -1 0 0.75 0 0 1 I I #
loop $-1 $549 $550 $4 #
coedge $-1 $551 $551 $552 $553 forward $456 $-1 #
coedge $-1 $457 $457 $554 $555 forward $415 $-1 #
coedge $-1 $556 $557 $457 $503 reversed $558 $-1 #
edge $-1 $559 0 $560 3.1415926535897931 $457 $561 forward 7 unknown #
coedge $-1 $562 $563 $458 $505 reversed $564 $-1 #
edge $-1 $510 0 $509 3.1415926535897931 $458 $565 forward 7 unknown #
coedge $-1 $566 $459 $563 $567 forward $508 $-1 #
coedge $-1 $459 $566 $562 $568 reversed $508 $-1 #
loop $-1 $-1 $506 $569 #
vertex $-1 $505 $570 #
vertex $-1 $505 $571 #
ellipse-curve $-1 10.625 0 -8.5 0 -1 0 -0.75 0 0 1 I I #
coedge $-1 $572 $573 $461 $513 forward $574 $-1 #
edge $-1 $522 0 $517 19.5 $461 $575 forward 7 unknown #
coedge $-1 $576 $462 $467 $526 forward $516 $-1 #
coedge $-1 $462 $576 $572 $577 reversed $516 $-1 #
loop $-1 $-1 $514 $578 #
vertex $-1 $513 $579 #
straight-curve $-1 11.875 0 9.75 -1 0 0 I I #
coedge $-1 $580 $464 $573 $581 forward $521 $-1 #
coedge $-1 $464 $580 $466 $525 reversed $521 $-1 #
loop $-1 $-1 $519 $582 #
vertex $-1 $465 $583 #
straight-curve $-1 -11.875 0 -9.75 1 0 0 I I #
coedge $-1 $467 $466 $584 $585 reversed $468 $-1 #
edge $-1 $470 0 $586 2.375 $520 $587 forward 7 unknown #
edge $-1 $469 0 $588 2.375 $514 $589 forward 7 unknown #
face $-1 $582 $468 $3 $-1 $590 forward single #
point $-1 -11.875 0 9.75 #
point $-1 -11.875 0 -9.75 #
coedge $-1 $473 $472 $494 $546 forward $474 $-1 #
face $-1 $591 $474 $3 $-1 $592 reversed single #
vertex $-1 $546 $593 #
straight-curve $-1 -11.375 0 -8.5 0 -1 0 I I #
vertex $-1 $546 $594 #
straight-curve $-1 -9.875 0 -8.5 0 -1 0 I I #
cone-surface $-1 -10.625 0 -8.5 0 -1 0 0.75 0 0 1 I I 0 1 0.75 forward I I I I #
cone-surface $-1 10.625 0 8.5 0 -1 0 0.75 0 0 1 I I 0 1 0.75 forward I I I I #
point $-1 9.875 -2.375 8.5 #
point $-1 11.375 -2.375 8.5 #
loop $-1 $595 $596 $13 #
coedge $-1 $597 $597 $566 $598 reversed $492 $-1 #
coedge $-1 $584 $493 $576 $599 forward $449 $-1 #
coedge $-1 $493 $584 $580 $600 forward $449 $-1 #
coedge $-1 $573 $572 $493 $545 reversed $574 $-1 #
edge $-1 $601 0 $602 19.5 $493 $603 forward 7 unknown #
edge $-1 $534 0 $532 3.1415926535897931 $494 $604 forward 7 unknown #
ellipse-curve $-1 -10.625 -2.375 -8.5 0 -1 0 -0.75 0 0 1 I I #
ellipse-curve $-1 10.625 -2.375 8.5 0 -1 0 0.75 0 0 1 I I #
loop $-1 $605 $606 $4 #
coedge $-1 $607 $607 $608 $609 forward $499 $-1 #
coedge $-1 $500 $500 $610 $611 forward $456 $-1 #
coedge $-1 $612 $613 $500 $553 reversed $614 $-1 #
edge $-1 $615 0 $616 3.1415926535897931 $500 $617 forward 7 unknown #
coedge $-1 $618 $619 $501 $555 reversed $620 $-1 #
edge $-1 $560 0 $559 3.1415926535897931 $501 $621 forward 7 unknown #
coedge $-1 $622 $502 $619 $623 forward $558 $-1 #
coedge $-1 $502 $622 $618 $624 reversed $558 $-1 #
loop $-1 $-1 $556 $625 #
vertex $-1 $555 $626 #
vertex $-1 $555 $627 #
ellipse-curve $-1 7.75 0 -8.5 0 -1 0 -0.26550000000000029 0 0 1 I I #
coedge $-1 $628 $504 $507 $568 forward $564 $-1 #
coedge $-1 $504 $628 $506 $567 reversed $564 $-1 #
loop $-1 $-1 $562 $629 #
ellipse-curve $-1 10.625 0 -8.5 0 -1 0 0.75 0 0 1 I I #
coedge $-1 $507 $506 $541 $598 forward $508 $-1 #
edge $-1 $509 0 $630 2.375 $563 $631 forward 7 unknown #
edge $-1 $510 0 $632 2.375 $562 $633 forward 7 unknown #
face $-1 $629 $508 $3 $-1 $634 reversed single #
point $-1 9.875 0 -8.5 #
point $-1 11.375 0 -8.5 #
coedge $-1 $544 $512 $515 $577 forward $574 $-1 #
coedge $-1 $512 $544 $519 $581 reversed $574 $-1 #
loop $-1 $-1 $572 $591 #
straight-curve $-1 11.875 0 -9.75 0 0 1 I I #
coedge $-1 $515 $514 $542 $599 reversed $516 $-1 #
edge $-1 $517 0 $602 2.375 $572 $635 forward 7 unknown #
face $-1 $527 $516 $3 $-1 $636 forward single #
point $-1 11.875 0 9.75 #
coedge $-1 $520 $519 $543 $600 reversed $521 $-1 #
edge $-1 $522 0 $601 2.375 $519 $637 forward 7 unknown #
face $-1 $569 $521 $3 $-1 $638 forward single #
point $-1 11.875 0 -9.75 #
coedge $-1 $543 $542 $524 $585 forward $449 $-1 #
edge $-1 $588 0 $586 19.5 $584 $639 forward 7 unknown #
vertex $-1 $600 $640 #
straight-curve $-1 -11.875 0 -9.75 0 -1 0 I I #
vertex $-1 $585 $641 #
straight-curve $-1 -11.875 0 9.75 0 -1 0 I I #
plane-surface $-1 -11.875 0 9.75 -1 0 0 0 0 -1 forward_v I I I I #
face $-1 $578 $574 $3 $-1 $642 forward single #
cone-surface $-1 -10.625 0 -8.5 0 -1 0 0.75 0 0 1 I I 0 1 0.75 forward I I I I #
point $-1 -11.375 -2.375 -8.5 #
point $-1 -9.875 -2.375 -8.5 #
loop $-1 $643 $644 $13 #
coedge $-1 $645 $645 $622 $646 reversed $540 $-1 #
coedge $-1 $541 $541 $628 $647 reversed $492 $-1 #
edge $-1 $630 0 $632 3.1415926535897931 $541 $648 forward 7 unknown #
edge $-1 $602 0 $588 23.75 $542 $649 forward 7 unknown #
edge $-1 $586 0 $601 23.75 $543 $650 forward 7 unknown #
vertex $-1 $600 $651 #
vertex $-1 $599 $652 #
straight-curve $-1 11.875 -2.375 -9.75 0 0 1 I I #
ellipse-curve $-1 -10.625 -2.375 -8.5 0 -1 0 0.75 0 0 1 I I #
loop $-1 $-1 $653 $4 #
coedge $-1 $654 $654 $655 $656 forward $549 $-1 #
coedge $-1 $550 $550 $657 $658 forward $499 $-1 #
coedge $-1 $659 $660 $550 $609 reversed $661 $-1 #
edge $-1 $662 0 $663 3.1415926535897931 $550 $664 forward 7 unknown #
coedge $-1 $665 $666 $551 $611 reversed $667 $-1 #
edge $-1 $616 0 $615 3.1415926535897931 $551 $668 forward 7 unknown #
coedge $-1 $669 $552 $666 $670 forward $614 $-1 #
coedge $-1 $552 $669 $665 $671 reversed $614 $-1 #
loop $-1 $-1 $612 $672 #
vertex $-1 $611 $673 #
vertex $-1 $611 $674 #
ellipse-curve $-1 11 0 -6.5 0 -1 0 -0.38250000000000028 0 0 1 I I #
coedge $-1 $675 $554 $557 $624 forward $620 $-1 #
coedge $-1 $554 $675 $556 $623 reversed $620 $-1 #
loop $-1 $-1 $618 $676 #
ellipse-curve $-1 7.75 0 -8.5 0 -1 0 0.2654999999999994 0 0 1 I I #
coedge $-1 $557 $556 $596 $646 forward $558 $-1 #
edge $-1 $559 0 $677 2.375 $619 $678 forward 7 unknown #
edge $-1 $560 0 $679 2.375 $618 $680 forward 7 unknown #
face $-1 $676 $558 $3 $-1 $681 reversed single #
point $-1 7.4844999999999997 0 -8.5 #
point $-1 8.0154999999999994 0 -8.5 #
coedge $-1 $563 $562 $597 $647 forward $564 $-1 #
face $-1 $625 $564 $3 $-1 $682 reversed single #
vertex $-1 $647 $683 #
straight-curve $-1 9.875 0 -8.5 0 -1 0 I I #
vertex $-1 $647 $684 #
straight-curve $-1 11.375 0 -8.5 0 -1 0 I I #
cone-surface $-1 10.625 0 -8.5 0 -1 0 0.75 0 0 1 I I 0 1 0.75 forward I I I I #
straight-curve $-1 11.875 0 9.75 0 -1 0 I I #
plane-surface $-1 11.875 0 9.75 0 0 1 -1 0 0 forward_v I I I I #
straight-curve $-1 11.875 0 -9.75 0 -1 0 I I #
plane-surface $-1 -11.875 0 -9.75 0 0 -1 1 0 0 forward_v I I I I #
straight-curve $-1 -11.875 -2.375 9.75 0 0 -1 I I #
point $-1 -11.875 -2.375 -9.75 #
point $-1 -11.875 -2.375 9.75 #
plane-surface $-1 11.875 0 -9.75 1 0 0 0 0 1 forward_v I I I I #
loop $-1 $685 $686 $13 #
coedge $-1 $687 $687 $669 $688 reversed $595 $-1 #
coedge $-1 $596 $596 $675 $689 reversed $540 $-1 #
edge $-1 $677 0 $679 3.1415926535897931 $596 $690 forward 7 unknown #
edge $-1 $632 0 $630 3.1415926535897931 $597 $691 forward 7 unknown #
ellipse-curve $-1 10.625 -2.375 -8.5 0 -1 0 -0.75 0 0 1 I I #
straight-curve $-1 11.875 -2.375 9.75 -1 0 0 I I #
straight-curve $-1 -11.875 -2.375 -9.75 1 0 0 I I #
point $-1 11.875 -2.375 -9.75 #
point $-1 11.875 -2.375 9.75 #
coedge $-1 $692 $692 $693 $694 forward $605 $-1 #
coedge $-1 $606 $606 $695 $696 forward $549 $-1 #
coedge $-1 $697 $698 $606 $656 reversed $699 $-1 #
edge $-1 $700 0 $701 3.1415926535897931 $606 $702 forward 7 unknown #
coedge $-1 $703 $704 $607 $658 reversed $705 $-1 #
edge $-1 $663 0 $662 3.1415926535897931 $607 $706 forward 7 unknown #
coedge $-1 $707 $608 $704 $708 forward $661 $-1 #
coedge $-1 $608 $707 $703 $709 reversed $661 $-1 #
loop $-1 $-1 $659 $710 #
vertex $-1 $658 $711 #
vertex $-1 $658 $712 #
ellipse-curve $-1 2.75 0 -8.5 0 -1 0 -0.26549999999999985 0 0 1 I I #
coedge $-1 $713 $610 $613 $671 forward $667 $-1 #
coedge $-1 $610 $713 $612 $670 reversed $667 $-1 #
loop $-1 $-1 $665 $714 #
ellipse-curve $-1 11 0 -6.5 0 -1 0 0.38250000000000028 0 0 1 I I #
coedge $-1 $613 $612 $644 $688 forward $614 $-1 #
edge $-1 $615 0 $715 2.375 $666 $716 forward 7 unknown #
edge $-1 $616 0 $717 2.375 $665 $718 forward 7 unknown #
face $-1 $714 $614 $3 $-1 $719 reversed single #
point $-1 10.6175 0 -6.5 #
point $-1 11.3825 0 -6.5 #
coedge $-1 $619 $618 $645 $689 forward $620 $-1 #
face $-1 $672 $620 $3 $-1 $720 reversed single #
vertex $-1 $689 $721 #
straight-curve $-1 7.4844999999999997 0 -8.5 0 -1 0 I I #
vertex $-1 $689 $722 #
straight-curve $-1 8.0154999999999994 0 -8.5 0 -1 0 I I #
cone-surface $-1 7.75 0 -8.5 0 -1 0 0.26550000000000001 0 0 1 I I 0 1 0.26550000000000001 forward I I I I #
cone-surface $-1 10.625 0 -8.5 0 -1 0 0.75 0 0 1 I I 0 1 0.75 forward I I I I #
point $-1 9.875 -2.375 -8.5 #
point $-1 11.375 -2.375 -8.5 #
loop $-1 $723 $724 $13 #
coedge $-1 $725 $725 $707 $726 reversed $643 $-1 #
coedge $-1 $644 $644 $713 $727 reversed $595 $-1 #
edge $-1 $715 0 $717 3.1415926535897931 $644 $728 forward 7 unknown #
edge $-1 $679 0 $677 3.1415926535898064 $645 $729 forward 7 unknown #
ellipse-curve $-1 7.75 -2.375 -8.5 0 -1 0 -0.26550000000000029 0 0 1 I I #
ellipse-curve $-1 10.625 -2.375 -8.5 0 -1 0 0.75 0 0 1 I I #
coedge $-1 $653 $653 $730 $731 forward $605 $-1 #
coedge $-1 $732 $733 $653 $694 reversed $734 $-1 #
edge $-1 $735 0 $736 3.1415926535897931 $653 $737 forward 7 unknown #
coedge $-1 $738 $739 $654 $696 reversed $740 $-1 #
edge $-1 $701 0 $700 3.1415926535897931 $654 $741 forward 7 unknown #
coedge $-1 $742 $655 $739 $743 reversed $699 $-1 #
coedge $-1 $655 $742 $738 $744 forward $699 $-1 #
loop $-1 $-1 $697 $745 #
vertex $-1 $696 $746 #
vertex $-1 $696 $747 #
ellipse-curve $-1 4.7999999999999998 0 -0.50000000000000044 0 -1 0 0 0 -0.12999999999999901 1 I I #
coedge $-1 $748 $657 $660 $709 forward $705 $-1 #
coedge $-1 $657 $748 $659 $708 reversed $705 $-1 #
loop $-1 $-1 $703 $749 #
ellipse-curve $-1 2.75 0 -8.5 0 -1 0 0.26549999999999985 0 0 1 I I #
coedge $-1 $660 $659 $686 $726 forward $661 $-1 #
edge $-1 $662 0 $750 2.375 $704 $751 forward 7 unknown #
edge $-1 $663 0 $752 2.375 $703 $753 forward 7 unknown #
face $-1 $749 $661 $3 $-1 $754 reversed single #
point $-1 2.4845000000000002 0 -8.5 #
point $-1 3.0154999999999998 0 -8.5 #
coedge $-1 $666 $665 $687 $727 forward $667 $-1 #
face $-1 $710 $667 $3 $-1 $755 reversed single #
vertex $-1 $727 $756 #
straight-curve $-1 10.6175 0 -6.5 0 -1 0 I I #
vertex $-1 $727 $757 #
straight-curve $-1 11.3825 0 -6.5 0 -1 0 I I #
cone-surface $-1 11 0 -6.5 0 -1 0 0.38250000000000001 0 0 1 I I 0 1 0.38250000000000001 forward I I I I #
cone-surface $-1 7.75 0 -8.5 0 -1 0 0.26550000000000001 0 0 1 I I 0 1 0.26550000000000001 forward I I I I #
point $-1 7.4844999999999997 -2.375 -8.5 #
point $-1 8.0154999999999994 -2.375 -8.5 #
loop $-1 $-1 $758 $13 #
coedge $-1 $759 $759 $742 $760 reversed $685 $-1 #
coedge $-1 $686 $686 $748 $761 reversed $643 $-1 #
edge $-1 $750 0 $752 3.1415926535897931 $686 $762 forward 7 unknown #
edge $-1 $717 0 $715 3.1415926535897931 $687 $763 forward 7 unknown #
ellipse-curve $-1 11 -2.375 -6.5 0 -1 0 -0.38250000000000028 0 0 1 I I #
ellipse-curve $-1 7.7499999999999991 -2.375 -8.4999999999999982 0 -1 0 0.26550000000000029 0 -1.7763568394002505e-015 1 I I #
coedge $-1 $764 $765 $692 $731 reversed $766 $-1 #
edge $-1 $736 0 $735 3.1415926535897931 $692 $767 forward 7 unknown #
coedge $-1 $768 $693 $765 $769 forward $734 $-1 #
coedge $-1 $693 $768 $764 $770 reversed $734 $-1 #
loop $-1 $-1 $732 $771 #
vertex $-1 $731 $772 #
vertex $-1 $731 $773 #
ellipse-curve $-1 -5 0 -4.2327252813834093e-016 0 -1 0 0 0 0.12999999999999989 1 I I #
coedge $-1 $774 $695 $698 $744 reversed $740 $-1 #
coedge $-1 $695 $774 $697 $743 forward $740 $-1 #
loop $-1 $-1 $738 $775 #
ellipse-curve $-1 4.7999999999999998 0 -0.50000000000000044 0 -1 0 0 0 0.12999999999999901 1 I I #
coedge $-1 $698 $697 $724 $760 forward $699 $-1 #
edge $-1 $776 0 $700 2.375 $739 $777 forward 7 unknown #
edge $-1 $778 0 $701 2.375 $738 $779 forward 7 unknown #
face $-1 $775 $699 $3 $-1 $780 reversed single #
point $-1 4.7999999999999998 0 -0.62999999999999945 #
point $-1 4.7999999999999998 0 -0.37000000000000144 #
coedge $-1 $704 $703 $725 $761 forward $705 $-1 #
face $-1 $745 $705 $3 $-1 $781 reversed single #
vertex $-1 $761 $782 #
straight-curve $-1 2.4845000000000002 0 -8.5 0 -1 0 I I #
vertex $-1 $761 $783 #
straight-curve $-1 3.0154999999999998 0 -8.5 0 -1 0 I I #
cone-surface $-1 2.75 0 -8.5 0 -1 0 0.26550000000000001 0 0 1 I I 0 1 0.26550000000000001 forward I I I I #
cone-surface $-1 11 0 -6.5 0 -1 0 0.38250000000000001 0 0 1 I I 0 1 0.38250000000000001 forward I I I I #
point $-1 10.6175 -2.375 -6.5 #
point $-1 11.3825 -2.375 -6.5 #
coedge $-1 $784 $784 $768 $785 reversed $723 $-1 #
coedge $-1 $724 $724 $774 $786 reversed $685 $-1 #
edge $-1 $776 0 $778 3.1415926535897931 $724 $787 forward 7 unknown #
edge $-1 $752 0 $750 3.1415926535897931 $725 $788 forward 7 unknown #
ellipse-curve $-1 2.75 -2.375 -8.5 0 -1 0 -0.26549999999999985 0 0 1 I I #
ellipse-curve $-1 11 -2.375 -6.5 0 -1 0 0.38250000000000028 0 0 1 I I #
coedge $-1 $789 $730 $733 $770 forward $766 $-1 #
coedge $-1 $730 $789 $732 $769 reversed $766 $-1 #
loop $-1 $-1 $764 $790 #
ellipse-curve $-1 -5 0 -4.2327252813834093e-016 0 -1 0 0 0 -0.12999999999999989 1 I I #
coedge $-1 $733 $732 $758 $785 forward $734 $-1 #
edge $-1 $735 0 $791 2.375 $765 $792 forward 7 unknown #
edge $-1 $736 0 $793 2.375 $764 $794 forward 7 unknown #
face $-1 $790 $734 $3 $-1 $795 reversed single #
point $-1 -5 0 0.12999999999999948 #
point $-1 -5 0 -0.13000000000000031 #
coedge $-1 $739 $738 $759 $786 forward $740 $-1 #
face $-1 $771 $740 $3 $-1 $796 reversed single #
vertex $-1 $786 $797 #
straight-curve $-1 4.7999999999999998 -2.375 -0.62999999999999901 0 1 0 I I #
vertex $-1 $786 $798 #
straight-curve $-1 4.7999999999999998 -2.375 -0.37000000000000099 0 1 0 I I #
cone-surface $-1 4.7999999999999998 -6.6661431191798144 -0.5 0 1 0 0 0 -0.12999999999999901 1 I I 0 1 0.12999999999999901 forward I I I I #
cone-surface $-1 2.75 0 -8.5 0 -1 0 0.26550000000000001 0 0 1 I I 0 1 0.26550000000000001 forward I I I I #
point $-1 2.4845000000000002 -2.375 -8.5 #
point $-1 3.0154999999999998 -2.375 -8.5 #
coedge $-1 $758 $758 $789 $799 reversed $723 $-1 #
edge $-1 $791 0 $793 3.1415926535897931 $758 $800 forward 7 unknown #
edge $-1 $778 0 $776 3.1415926535897931 $759 $801 forward 7 unknown #
ellipse-curve $-1 4.7999999999999998 -2.375 -0.50000000000000022 0 -1 0 0 0 -0.12999999999999901 1 I I #
ellipse-curve $-1 2.75 -2.375 -8.5 0 -1 0 0.26549999999999985 0 0 1 I I #
coedge $-1 $765 $764 $784 $799 forward $766 $-1 #
face $-1 $-1 $766 $3 $-1 $802 reversed single #
vertex $-1 $799 $803 #
straight-curve $-1 -5 0 0.12999999999999989 0 -1 0 I I #
vertex $-1 $799 $804 #
straight-curve $-1 -5 0 -0.12999999999999989 0 -1 0 I I #
cone-surface $-1 -5 7.8905783374217915 0 0 -1 0 0 0 -0.12999999999999989 1 I I 0 1 0.12999999999999989 forward I I I I #
cone-surface $-1 4.7999999999999998 -6.6661431191798144 -0.5 0 1 0 0 0 -0.12999999999999901 1 I I 0 1 0.12999999999999901 forward I I I I #
point $-1 4.7999999999999998 -2.375 -0.62999999999999923 #
point $-1 4.7999999999999998 -2.375 -0.37000000000000122 #
edge $-1 $793 0 $791 3.1415926535897931 $784 $805 forward 7 unknown #
ellipse-curve $-1 -5 -2.375 -2.4980018054066022e-016 0 -1 0 0 0 0.12999999999999989 1 I I #
ellipse-curve $-1 4.7999999999999998 -2.375 -0.50000000000000022 0 -1 0 0 0 0.12999999999999901 1 I I #
cone-surface $-1 -5 7.8905783374217915 0 0 -1 0 0 0 -0.12999999999999989 1 I I 0 1 0.12999999999999989 forward I I I I #
point $-1 -5 -2.375 0.12999999999999964 #
point $-1 -5 -2.375 -0.13000000000000014 #
ellipse-curve $-1 -5 -2.375 -2.4980018054066022e-016 0 -1 0 0 0 -0.12999999999999989 1 I I #
End-of-ACIS-data 