600 0 1 0           
115 GICL Pro/E ACIS Translator - Source: f:/data5/repository/PTC/V20/prod_appl/assoc_demo/mold/cav_ins1_new.prt.2 - 6 0 13 ACIS 6.0.3 NT 24 Thu Apr 04 13:16:16 2002 
1 9.9999999999999995e-007 1e-010 
body $-1 $1 $-1 $2 #
lump $-1 $-1 $3 $0 #
transform $-1 1 0 0 0 1 0 0 0 1 0 0 0 25.399999999999999 no_rotate no_reflect no_shear #
shell $-1 $-1 $-1 $4 $-1 $1 #
face $-1 $5 $6 $3 $-1 $7 forward single #
face $-1 $8 $9 $3 $-1 $10 reversed single #
loop $-1 $11 $12 $4 #
plane-surface $-1 0 -2.4803149606299209 0 0 1 0 0 0 1 forward_v I I I I #
face $-1 $13 $14 $3 $-1 $15 reversed single #
loop $-1 $-1 $16 $5 #
cone-surface $-1 3.1496062992125982 -6.7111165898963385 -5.4035433070866139 0 -1 0 0 0 -0.0087268677907587893 1 I I -0.0087265354983739347 0.99996192306417131 0.0087268677907587893 forward I I I I #
loop $-1 $17 $18 $4 #
coedge $-1 $19 $19 $20 $21 forward $6 $-1 #
face $-1 $22 $23 $3 $-1 $24 reversed single #
loop $-1 $-1 $25 $8 #
cone-surface $-1 3.1496062992125982 -6.7111165898963385 -5.4035433070866139 0 -1 0 0 0 -0.0087268677907587893 1 I I -0.0087265354983739347 0.99996192306417131 0.0087268677907587893 forward I I I I #
coedge $-1 $26 $20 $27 $28 forward $9 $-1 #
loop $-1 $-1 $29 $4 #
coedge $-1 $30 $31 $32 $33 forward $11 $-1 #
coedge $-1 $12 $12 $34 $35 forward $6 $-1 #
coedge $-1 $16 $36 $12 $21 reversed $9 $-1 #
edge $-1 $37 0 $38 3.1415926535897931 $12 $39 forward 7 unknown #
face $-1 $40 $41 $3 $-1 $42 forward single #
loop $-1 $-1 $43 $13 #
plane-surface $-1 0 -2.9527559055118107 -0.39370078740157499 0 -1 0 0 0 -1 forward_v I I I I #
coedge $-1 $44 $34 $36 $45 forward $14 $-1 #
coedge $-1 $36 $16 $43 $46 forward $9 $-1 #
coedge $-1 $34 $44 $16 $28 reversed $14 $-1 #
edge $-1 $37 4.3632157978531453e-016 $47 0.47245893467042743 $27 $48 forward 7 unknown #
coedge $-1 $49 $49 $50 $51 forward $17 $-1 #
coedge $-1 $52 $18 $53 $54 forward $11 $-1 #
coedge $-1 $18 $52 $55 $56 forward $11 $-1 #
coedge $-1 $57 $58 $18 $33 reversed $41 $-1 #
edge $-1 $59 0 $60 0.60481160217345531 $18 $61 forward 7 unknown #
coedge $-1 $25 $27 $19 $35 reversed $14 $-1 #
edge $-1 $38 0 $37 3.1415926535897931 $19 $62 forward 7 unknown #
coedge $-1 $20 $26 $25 $45 reversed $9 $-1 #
vertex $-1 $35 $63 #
vertex $-1 $35 $64 #
ellipse-curve $-1 3.1496062992125982 -2.4803149606299209 -5.4035433070866139 0 -1 0 0 0 0.045648514258293638 1 I I #
face $-1 $65 $66 $3 $-1 $67 forward single #
loop $-1 $-1 $58 $22 #
plane-surface $-1 1.6438683062387562 -0.94407032241742561 -4.7637795275590546 0 0.017452406437283512 0.99984769515639127 1 0 0 forward_v I I I I #
coedge $-1 $68 $68 $26 $46 reversed $23 $-1 #
coedge $-1 $27 $25 $68 $69 forward $14 $-1 #
edge $-1 $38 4.3632157978531453e-016 $70 0.47245893467042743 $25 $71 forward 7 unknown #
edge $-1 $47 0 $70 3.1415926535897718 $43 $72 forward 7 unknown #
vertex $-1 $69 $73 #
straight-curve $-1 3.1496062992125982 -2.4803149606299204 -5.3578947928283212 0 -0.9999619230641712 -0.0087265354983735426 I I #
coedge $-1 $29 $29 $74 $75 forward $17 $-1 #
coedge $-1 $76 $77 $29 $51 reversed $78 $-1 #
edge $-1 $79 0 $80 3.1415926535898127 $29 $81 forward 7 unknown #
coedge $-1 $31 $30 $82 $83 forward $11 $-1 #
coedge $-1 $84 $85 $30 $54 reversed $66 $-1 #
edge $-1 $60 0 $86 0.89295698218908992 $30 $87 forward 7 unknown #
coedge $-1 $88 $89 $31 $56 reversed $90 $-1 #
edge $-1 $91 0 $59 0.89295698218908992 $31 $92 forward 7 unknown #
coedge $-1 $93 $32 $89 $94 forward $41 $-1 #
coedge $-1 $32 $93 $84 $95 reversed $41 $-1 #
vertex $-1 $56 $96 #
vertex $-1 $54 $97 #
straight-curve $-1 2.8472004981258707 -2.4803149606299209 -4.7369642776534295 1 0 0 I I #
ellipse-curve $-1 3.1496062992125982 -2.4803149606299209 -5.4035433070866139 0 -1 0 0 0 -0.045648514258293638 1 I I #
point $-1 3.1496062992125982 -2.4803149606299209 -5.3578947928283203 #
point $-1 3.1496062992125982 -2.4803149606299209 -5.4491918213449075 #
face $-1 $98 $99 $3 $-1 $100 forward single #
loop $-1 $-1 $85 $40 #
plane-surface $-1 3.4251968503937009 -0.94407032241742561 -3.5336320857663148 0.99984769515639127 0.017452406437283512 0 0 0 -1 forward_v I I I I #
coedge $-1 $43 $43 $44 $69 reversed $23 $-1 #
edge $-1 $70 0 $47 3.1415926535897931 $68 $101 forward 7 unknown #
vertex $-1 $69 $102 #
straight-curve $-1 3.1496062992125982 -2.4803149606299204 -5.4491918213449066 0 -0.9999619230641712 0.0087265354983735426 I I #
ellipse-curve $-1 3.1496062992125986 -2.9527559055118107 -5.4035433070866139 0 -1 0 -4.4408920985006262e-016 0 0.041525584593368414 1 I I #
point $-1 3.1496062992125982 -2.9527559055118107 -5.3620177224932455 #
coedge $-1 $103 $104 $49 $75 reversed $105 $-1 #
edge $-1 $80 0 $79 3.1415926535898127 $49 $106 forward 7 unknown #
coedge $-1 $107 $50 $104 $108 forward $78 $-1 #
coedge $-1 $50 $107 $103 $109 reversed $78 $-1 #
loop $-1 $-1 $76 $110 #
vertex $-1 $75 $111 #
vertex $-1 $75 $112 #
ellipse-curve $-1 3.1496062992125977 -2.4803149606299209 -5.0098425196850389 0 -1 0 4.4408920985006262e-016 0 0.045648514258293638 1 I I #
coedge $-1 $113 $114 $52 $83 reversed $99 $-1 #
edge $-1 $86 0 $91 3.1415926535897931 $52 $115 forward 7 unknown #
coedge $-1 $116 $53 $58 $95 forward $66 $-1 #
coedge $-1 $53 $116 $113 $117 reversed $66 $-1 #
vertex $-1 $83 $118 #
straight-curve $-1 3.452012100299326 -2.4803149606299209 -4.7369642776534295 0 0 -1 I I #
coedge $-1 $119 $55 $114 $120 forward $90 $-1 #
coedge $-1 $55 $119 $57 $94 reversed $90 $-1 #
loop $-1 $-1 $89 $98 #
vertex $-1 $56 $121 #
straight-curve $-1 2.8472004981258707 -2.4803149606299209 -5.6299212598425195 0 0 1 I I #
coedge $-1 $58 $57 $122 $123 forward $41 $-1 #
edge $-1 $59 -4.4395396686964242e-016 $124 1.1615205190575522 $89 $125 forward 7 unknown #
edge $-1 $60 -4.4395396686964242e-016 $126 1.1493139960116316 $58 $127 forward 7 unknown #
point $-1 2.8472004981258707 -2.4803149606299209 -4.7369642776534295 #
point $-1 3.452012100299326 -2.4803149606299209 -4.7369642776534295 #
face $-1 $128 $90 $3 $-1 $129 forward single #
loop $-1 $-1 $114 $65 #
cone-surface $-1 3.1496062992125982 13.844501780547782 -5.6299212598425195 0 1 0 0 0 0.017455064928217585 1 I I -0.017452406437283512 0.99984769515639127 0.017455064928217585 forward I I I I #
ellipse-curve $-1 3.1496062992125982 -2.9527559055118107 -5.4035433070866139 0 -1 0 0 0 -0.041525584593368414 1 I I #
point $-1 3.1496062992125982 -2.9527559055118107 -5.4450688916799823 #
coedge $-1 $130 $74 $77 $109 forward $105 $-1 #
coedge $-1 $74 $130 $76 $108 reversed $105 $-1 #
loop $-1 $-1 $103 $131 #
ellipse-curve $-1 3.1496062992125986 -2.4803149606299209 -5.0098425196850389 0 -1 0 -4.4408920985006262e-016 0 -0.045648514258293638 1 I I #
coedge $-1 $77 $76 $132 $133 forward $78 $-1 #
edge $-1 $79 4.3632157978531453e-016 $134 0.47245893467042743 $104 $135 forward 7 unknown #
edge $-1 $80 4.3632157978531453e-016 $136 0.47245893467042743 $103 $137 forward 7 unknown #
face $-1 $131 $78 $3 $-1 $138 reversed single #
point $-1 3.1496062992125982 -2.4803149606299209 -4.9641940054267453 #
point $-1 3.1496062992125982 -2.4803149606299209 -5.0554910339433325 #
coedge $-1 $139 $82 $85 $117 forward $99 $-1 #
coedge $-1 $82 $139 $88 $120 reversed $99 $-1 #
ellipse-curve $-1 3.1496062992125982 -2.4803149606299209 -5.6299212598425195 0 1 0 0.30240580108672788 0 0 1 I I #
coedge $-1 $85 $84 $140 $141 forward $66 $-1 #
edge $-1 $86 -3.108151010386857e-015 $142 1.087140629095537 $85 $143 forward 7 unknown #
point $-1 3.452012100299326 -2.4803149606299209 -5.6299212598425195 #
coedge $-1 $89 $88 $144 $145 forward $90 $-1 #
edge $-1 $91 -4.4402157291240808e-016 $146 1.0975139170870714 $88 $147 forward 7 unknown #
point $-1 2.8472004981258707 -2.4803149606299209 -5.6299212598425195 #
coedge $-1 $148 $149 $93 $123 reversed $150 $-1 #
edge $-1 $124 0 $126 1 $93 $151 forward 7 unknown #
vertex $-1 $145 $152 #
straight-curve $-1 2.8472004981258707 -2.4803149606299213 -4.7369642776534295 -0.017449749160682808 -0.99969545988188757 0.017449749160682808 I I #
vertex $-1 $123 $153 #
straight-curve $-1 3.452012100299326 -2.4803149606299213 -4.7369642776534295 0.017449749160682801 -0.99969545988188757 0.017449749160682801 I I #
face $-1 $154 $155 $3 $-1 $156 forward single #
plane-surface $-1 2.8740157480314958 -0.94407032241742561 -6.8600687016352593 -0.99984769515639127 0.017452406437283512 0 0 0 1 forward_v I I I I #
coedge $-1 $104 $103 $157 $158 forward $105 $-1 #
face $-1 $159 $105 $3 $-1 $160 reversed single #
coedge $-1 $157 $157 $107 $133 reversed $161 $-1 #
edge $-1 $134 0 $136 3.1415926535897931 $132 $162 forward 7 unknown #
vertex $-1 $158 $163 #
straight-curve $-1 3.1496062992125982 -2.4803149606299204 -4.9641940054267462 0 -0.9999619230641712 -0.0087265354983735426 I I #
vertex $-1 $158 $164 #
straight-curve $-1 3.1496062992125982 -2.4803149606299204 -5.0554910339433317 0 -0.9999619230641712 0.0087265354983735426 I I #
cone-surface $-1 3.1496062992125982 -6.7111165898963385 -5.0098425196850389 0 -1 0 0 0 -0.0087268677907587893 1 I I -0.0087265354983739347 0.99996192306417131 0.0087268677907587893 forward I I I I #
tcoedge-coedge $-1 $114 $113 $165 $166 forward $99 $167 0 0.99999999999999989 #
coedge $-1 $168 $169 $116 $141 reversed $170 $-1 #
edge $-1 $126 0 $142 1 $116 $171 forward 7 unknown #
tvertex-vertex $-1 $141 $172 4.1895292266754161e-015 #
straight-curve $-1 3.452012100299326 -2.480314960629924 -5.6299212598425195 0.017452406437283838 -0.99984769515639116 0 I I #
coedge $-1 $173 $174 $119 $145 reversed $155 $-1 #
edge $-1 $146 0 $124 1 $119 $175 forward 7 unknown #
tvertex-vertex $-1 $145 $176 1.3245414421271451e-011 #
straight-curve $-1 2.8472004981258707 -2.4803149606299213 -5.6299212598425195 -0.017452406437283598 -0.99984769515639127 0 I I #
coedge $-1 $177 $122 $174 $178 forward $150 $-1 #
coedge $-1 $122 $177 $168 $179 reversed $150 $-1 #
loop $-1 $-1 $149 $154 #
intcurve-curve $-1 forward { exactcur full nurbs 3 open 4 
	0 3 0.33357939299032546 1 0.66691292736045804 1 1 3 
	2.8269322564233308 -3.6414817500914096 -4.7166960359508892 1 
	2.8989049233366169 -3.6401203786692595 -4.7167197987774534 1 
	3.0426384507821944 -3.6374016421674575 -4.716767254499616 1.0000000000000002 
	3.2576845349645276 -3.6333340203048423 -4.7168382551033314 0.99999999999999978 
	3.4006769648028485 -3.6306293017510289 -4.716885466141302 0.99999999999999989 
	3.472067341236591 -3.629278944421459 -4.7169090367161646 1 
	0 
	null_surface 
	null_surface 
	nullbs 
	nullbs 
	I I 
	0 
	0 
	0 
	F 1 F 0 } I I #
point $-1 2.8269322564233303 -3.6414817500914096 -4.7166960359508892 #
point $-1 3.472067341236591 -3.629278944421459 -4.7169090367161646 #
face $-1 $180 $150 $3 $-1 $181 forward single #
loop $-1 $-1 $174 $128 #
plane-surface $-1 2.828046239174292 -5.3190703224174261 -5.6299212598425195 -0.9999992560039066 0 -0.0012198326250951403 0 -1 0 forward_v I I I I #
coedge $-1 $132 $132 $130 $158 reversed $161 $-1 #
edge $-1 $136 0 $134 3.1415926535897931 $157 $182 forward 7 unknown #
face $-1 $-1 $161 $3 $-1 $183 reversed single #
cone-surface $-1 3.1496062992125982 -6.7111165898963385 -5.0098425196850389 0 -1 0 0 0 -0.0087268677907587893 1 I I -0.0087265354983739347 0.99996192306417131 0.0087268677907587893 forward I I I I #
loop $-1 $-1 $132 $159 #
ellipse-curve $-1 3.1496062992125982 -2.9527559055118107 -5.0098425196850389 0 -1 0 0 0 0.041525584593368414 1 I I #
point $-1 3.1496062992125982 -2.9527559055118107 -4.9683169350916705 #
point $-1 3.1496062992125982 -2.9527559055118107 -5.0513681042784073 #
tcoedge-coedge $-1 $184 $185 $139 $166 reversed $186 $187 -0.99999999999999989 0 #
tedge-edge $-1 $142 0 $146 0.99999999999999989 $139 $188 forward 7 unknown 0.00010159151944102533 #
pcurve $-1 0 forward { exppc nubs 2 open 10 
	0 2 0.16666666666666663 2 0.24999999999999994 2 0.33333333333333326 2 0.41666666666666663 2 
	0.49999999999999994 2 0.58333333333333326 2 0.66666666666666652 2 0.83333333333333326 2 0.99999999999999989 2 
	-997.67283417678175 1.5707963267948966 
	-997.2802204509951 1.8765301593537407 
	-997.06694400807487 2.094549866002227 
	-996.93383091594785 2.2306233905755324 
	-996.84400934928954 2.3556300158796328 
	-996.74824131364858 2.4889124712282715 
	-996.69502328698002 2.6186340113121331 
	-996.64050063935088 2.7515356287276127 
	-996.63158548892545 2.8796219277088988 
	-996.62256749188589 3.0091858509086693 
	-996.65960600433687 3.142000676201421 
	-996.69609382597298 3.2728408027406433 
	-996.77659329164624 3.4043479786167485 
	-996.85352964369326 3.5300343082748888 
	-996.97609282835356 3.6652390518787756 
	-997.18243952187095 3.8928690034654458 
	-997.56556767339146 4.1889945098921997 
	-997.9095401713854 4.4456160594607752 
	-998.26711944780084 4.7123889803846897 
	0.001 
	cone 3.1496062992125982 13.844501780547782 -5.6299212598425195 0 1 0 0 0 0.017455064928217585 1 I I -0.017452406437283512 0.99984769515639127 0.017455064928217585 forward I I I I 
	} 0 0 #
coedge $-1 $189 $140 $149 $179 forward $170 $-1 #
coedge $-1 $140 $189 $184 $190 reversed $170 $-1 #
loop $-1 $-1 $169 $180 #
intcurve-curve $-1 forward { exactcur full nurbs 3 open 4 
	0 3 0.33264471433860032 1 0.66598801241441186 1 1 3 
	3.472067341236591 -3.629278944421459 -4.7169090367161646 1 
	3.4719484877007516 -3.6224698299135754 -4.8171979855006537 0.99999999999999989 
	3.4717097825283014 -3.608794419742781 -5.0186180833178522 1 
	3.4713490433665672 -3.5881276870082948 -5.3230108055076482 1 
	3.4711068861591277 -3.5742545098855176 -5.5273437401847865 0.99999999999999989 
	3.4709853204127854 -3.5672900129419656 -5.6299212598425195 1 
	0 
	null_surface 
	null_surface 
	nullbs 
	nullbs 
	I I 
	0 
	0 
	0 
	F 1 F 0 } I I #
point $-1 3.4709853204127854 -3.5672900129419656 -5.6299212598425195 #
coedge $-1 $191 $144 $185 $192 forward $155 $-1 #
coedge $-1 $144 $191 $148 $178 reversed $155 $-1 #
intcurve-curve $-1 forward { exactcur full nurbs 3 open 4 
	0 3 0.33402091072283102 1 0.66736435832143792 1 1 3 
	2.828046239174292 -3.5776617210314923 -5.6299212598425195 1 
	2.8279210643345642 -3.5848329827966539 -5.5273049303368431 1 
	2.8276717309357733 -3.5991172836466161 -5.3229054019443272 0.99999999999999978 
	2.8273003348007508 -3.6203945539718565 -5.0184407966660274 1 
	2.8270546021850818 -3.6344725660949919 -4.8169931326258872 1 
	2.8269322564233303 -3.6414817500914096 -4.7166960359508892 1 
	0 
	null_surface 
	null_surface 
	nullbs 
	nullbs 
	I I 
	0 
	0 
	0 
	F 1 F 0 } I I #
point $-1 2.828046239174292 -3.5776617210314923 -5.6299212598425195 #
coedge $-1 $149 $148 $193 $194 forward $150 $-1 #
edge $-1 $124 0 $195 1.6775885723260164 $174 $196 forward 7 unknown #
edge $-1 $126 0 $197 1.689791377995967 $149 $198 forward 7 unknown #
face $-1 $199 $170 $3 $-1 $200 forward single #
plane-surface $-1 2.8269322564233308 -5.3190703224174261 -4.7166960359508892 0.00033016457898520438 0 0.99999994549567395 0 -1 0 forward_v I I I I #
ellipse-curve $-1 3.1496062992125982 -2.9527559055118107 -5.0098425196850389 0 -1 0 0 0 -0.041525584593368414 1 I I #
plane-surface $-1 0 -2.9527559055118107 0 0 -1 0 0 0 -1 forward_v I I I I #
coedge $-1 $201 $165 $169 $190 forward $186 $202 #
coedge $-1 $165 $201 $173 $192 reversed $186 $203 #
loop $-1 $-1 $185 $199 #
pcurve $-1 0 forward { exppc nurbs 3 open 12 
	-0.99999999999999989 3 -0.90908224866262688 1 -0.81815329904729717 1 -0.72726523951442279 1 -0.63631658464886764 1 
	-0.54546613047723036 1 -0.45450675865574064 1 -0.36366029559276369 1 -0.27271804608834671 1 -0.18183758770452274 1 
	-0.09091512922627154 1 0 3 
	0.99999999998682965 -1.7414086013869077 1 
	0.96972620257160047 -1.7436660058553366 1 
	0.90919788130198853 -1.7481090159669079 1.0000000000000004 
	0.81788266146323452 -1.7548558492851196 0.99999999999999967 
	0.72783293315126929 -1.7607885160560375 1 
	0.63565754551208509 -1.7656504583173138 1 
	0.54638134568832541 -1.768824474572027 0.99999999999999978 
	0.45367854813909131 -1.7702531873520646 1 
	0.36439762953991001 -1.7697433243763105 1 
	0.27220073171766884 -1.7673537221985787 0.99999999999999978 
	0.18213562604849812 -1.7633834260719938 1.0000000000000002 
	0.090810946876190984 -1.7580191118297697 1 
	0.030276778405826939 -1.7539645990071768 1.0000000000000002 
	0 -1.7517803094754605 1 
	0.001 
	spline forward { sweepsur angled 
	intcurve forward { exactcur full nurbs 3 open 12 
	0 3 0.090897877046982531 2 0.18193818194951905 2 0.27253964962501359 2 0.36393917393948616 2 
	0.45421630613879238 2 0.54584088830276323 2 0.6361119861775324 2 0.72749449198368166 2 0.81808167500110918 2 
	0.90911252735925041 2 0.99999999998682965 3 
	3.4709853204127854 -3.5488171350653612 -5.6299212598425195 1 
	3.4709482114263333 -3.5488171350653612 -5.6603934764812571 1 
	3.466519186937064 -3.5488171350653612 -5.6910376132946698 1 
	3.4492207106864248 -3.5488171350653612 -5.7497948825084935 1 
	3.4363380444961908 -3.5488171350653612 -5.7779039738421609 1 
	3.4032477255918945 -3.5488171350653612 -5.82924933364942 1 
	3.3830756804865723 -3.5488171350653612 -5.8525084372479794 1 
	3.3368092921820529 -3.5488171350653612 -5.8926028381304993 1 
	3.3106643479550337 -3.5488171350653612 -5.9093797471322036 1 
	3.2550457007913738 -3.5488171350653612 -5.9346935142863044 1 
	3.2256168178862303 -3.5488171350653612 -5.9433290308422553 1 
	3.1650618224204328 -3.5488171350653612 -5.9520903740771223 1 
	3.1339169335780523 -3.5488171350653612 -5.9520872638319009 1 
	3.0733656927554591 -3.5488171350653612 -5.9433142566780157 1 
	3.0439404552434559 -3.5488171350653612 -5.9346738639910459 1 
	2.988333242437919 -3.5488171350653612 -5.9093538631876523 1 
	2.9621956581916868 -3.5488171350653612 -5.8925765868596365 1 
	2.9159414405761868 -3.5488171350653612 -5.8524843704897203 1 
	2.8957743853204252 -3.5488171350653612 -5.8292276000406726 1 
	2.8626906537826344 -3.5488171350653612 -5.7778875696206162 1 
	2.8498099714788965 -3.5488171350653612 -5.7497812287977501 1 
	2.8325135087513682 -3.5488171350653612 -5.6910304038574022 1 
	2.828084427492437 -3.5488171350653612 -5.6603899872136365 1 
	2.8280462391742915 -3.5488171350653612 -5.6299212598425195 1 
	0 
	null_surface 
	null_surface 
	nullbs 
	nullbs 
	I I 
	0 
	0 
	10 0.090897877046982531 0.18193818194951905 0.27253964962501359 0.36393917393948616 0.45421630613879238 0.54584088830276323 0.6361119861775324 0.72749449198368166 0.81808167500110918 0.90911252735925041 
	F 1 F 0 } I I 
	straight 0 0 0 0 -1 0 I I 
	angled 
	4.9566761368904869e-030 -1 2.0384911615175204e-029 
	0 1.7702531873520646 0 
	0 0 -1 
	1 0 0 
	0 -1 0 
	-1.7702531873520646 0 
	0 0 11 VEC(0,0,-1) 
	0 
	1 0 
	0 
	55 VEC(0.57735026918963,0.57735026918963,0.57735026918963) 
	0 
	full nubs 3 3 open open none none 7 2 
	0 3 0.12499999999835371 1 0.24999999999670741 1 0.49999999999341482 1 0.74999999999012223 1 
	0.87499999998847589 1 0.99999999998682965 3 
	-1.7702531873520646 3 0 3 
	3.4709853204127854 -3.5488171350653612 -5.6299212598425195 
	3.4709276449493069 -3.5488171350653612 -5.6718259860232312 
	3.4541126831961413 -3.5488171350653612 -5.7561233958823621 
	3.3588869213269219 -3.5488171350655464 -5.8987795459968053 
	3.1495271515488614 -3.5488171350653595 -5.9855547158818183 
	2.9401635476480155 -3.5488171350651765 -5.898777884523045 
	2.8449186264079387 -3.5488171350653612 -5.7561272497077365 
	2.8281054048877303 -3.5488171350653612 -5.6718259838986338 
	2.8280462391742915 -3.5488171350653612 -5.6299212598425195 
	3.4709853204127854 -4.138901530849318 -5.6299212598425195 
	3.4709276449493069 -4.138901530849318 -5.6718259860232312 
	3.4541126831961413 -4.138901530849318 -5.7561233958823621 
	3.3588869202350464 -4.1389015308495036 -5.8987795416293034 
	3.1495271515488614 -4.1389015308493153 -5.9855547158818183 
	2.9401635476480155 -4.1389015308491333 -5.898777884523045 
	2.8449186264079387 -4.138901530849318 -5.7561272497077365 
	2.8281054048877303 -4.138901530849318 -5.6718259838986338 
	2.8280462391742915 -4.138901530849318 -5.6299212598425195 
	3.4709853204127854 -4.7289859266334693 -5.6299212598425195 
	3.4709276449493069 -4.7289859266334693 -5.6718259860232312 
	3.4541126831961413 -4.7289859266334693 -5.7561233958823621 
	3.3588869202350464 -4.7289859266336549 -5.8987795416293034 
	3.1495271515488614 -4.7289859266334675 -5.9855547158818183 
	2.9401635476480155 -4.7289859266332845 -5.898777884523045 
	2.8449186264079387 -4.7289859266334693 -5.7561272497077365 
	2.8281054048877303 -4.7289859266334693 -5.6718259838986338 
	2.8280462391742915 -4.7289859266334693 -5.6299212598425195 
	3.4709853204127854 -5.3190703224174261 -5.6299212598425195 
	3.4709276449493069 -5.3190703224174261 -5.6718259860232312 
	3.4541126831961413 -5.3190703224174261 -5.7561233958823621 
	3.3588869213269219 -5.3190703224176108 -5.8987795459968053 
	3.1495271515488614 -5.3190703224174243 -5.9855547158818183 
	2.9401635476480155 -5.3190703224172413 -5.898777884523045 
	2.8449186264079387 -5.3190703224174261 -5.7561272497077365 
	2.8281054048877303 -5.3190703224174261 -5.6718259838986338 
	2.8280462391742915 -5.3190703224174261 -5.6299212598425195 
	0.001 
	0 
	0 
	0 
	0 
	0 
	0 
	} I I I I 
	} 0 0 #
intcurve-curve $-1 forward { exactcur full nurbs 3 open 12 
	0 3 0.090915050507783798 1 0.18183748148483858 1 0.27271797367253853 1 0.3636603102289761 1 
	0.4545068858172075 1 0.5454663631401272 1 0.63631687905335876 1 0.72726553260756277 1 0.81815352671537933 1 
	0.90908236672400566 1 0.99999999999999989 3 
	3.4709853204127832 -3.5672900129419691 -5.6299212598425195 1 
	3.470784302937735 -3.5651057229578655 -5.6612840937579252 0.99999999999999989 
	3.4622300825066739 -3.561051208917291 -5.7211974205280969 1 
	3.4232798342300796 -3.5556868947119895 -5.8062446552350515 1 
	3.3632066772724629 -3.5517165992968041 -5.8755909549137817 0.99999999999999978 
	3.2840835367670493 -3.5493269979031581 -5.9262647248344944 1 
	3.1967090067593849 -3.5488171351345357 -5.9519673601962539 0.99999999999999989 
	3.102267014196074 -3.5502458473457152 -5.951957561644269 1.0000000000000002 
	3.0149028357926309 -3.5534198626787963 -5.9262378408702583 0.99999999999999978 
	2.9358062421326436 -3.5582818043888897 -5.8755643374183766 1 
	2.8757478789329545 -3.5642144714741808 -5.8062268007834676 0.99999999999999989 
	2.836802881113448 -3.5709613062688028 -5.7211882183685692 1.0000000000000002 
	2.8282486205238637 -3.57540431646107 -5.6612806591743174 0.99999999999999989 
	2.8280462391742938 -3.5776617210314914 -5.6299212598425195 1 
	0 
	null_surface 
	null_surface 
	nullbs 
	nullbs 
	I I 
	0 
	0 
	10 0.090915050507783798 0.18183748148483858 0.27271797367253853 0.3636603102289761 0.4545068858172075 0.5454663631401272 0.63631687905335876 0.72726553260756277 0.81815352671537933 0.90908236672400566 
	F 1 F 0 } I I #
coedge $-1 $169 $168 $204 $205 forward $170 $-1 #
edge $-1 $142 0 $206 1.7517803094754605 $169 $207 forward 7 unknown #
coedge $-1 $174 $173 $208 $209 forward $155 $-1 #
edge $-1 $146 9.2548191332753049e-013 $210 1.7414086013868593 $173 $211 forward 7 unknown #
coedge $-1 $208 $204 $177 $194 reversed $212 $-1 #
edge $-1 $195 0 $197 1 $177 $213 forward 7 unknown #
vertex $-1 $209 $214 #
straight-curve $-1 2.8269322564233303 -3.6414817500914096 -4.7166960359508892 0 -1 0 I I #
vertex $-1 $194 $215 #
straight-curve $-1 3.472067341236591 -3.629278944421459 -4.7169090367161646 0 -1 0 I I #
face $-1 $216 $186 $3 $-1 $217 reversed single #
plane-surface $-1 3.472067341236591 -5.3190703224174261 -4.7169090367161646 0.99999929775670504 0 -0.0011851101623356725 0 -1 0 forward_v I I I I #
tcoedge-coedge $-1 $185 $184 $218 $219 forward $186 $220 0 0.99999999999999989 #
pcurve $-1 0 forward { exppc nurbs 3 open 2 
	0 3 1.7517803094754605 3 
	0 -1.7517803094754605 1 
	0 -1.1678535396503069 1 
	0 -0.58392676982515346 1 
	0 0 1 
	0.001 
	spline forward { ref 5 } I I I I 
	} 0 0 #
pcurve $-1 0 forward { exppc nurbs 3 open 2 
	-1.7414086013868593 3 -9.2548191332753049e-013 3 
	0.99999999998682965 0 1 
	0.99999999998682965 -0.58046953379563582 1 
	0.99999999998682965 -1.1609390675912716 1 
	0.99999999998682965 -1.7414086013869077 1 
	0.001 
	spline forward { ref 5 } I I I I 
	} 0 0 #
coedge $-1 $193 $218 $189 $205 reversed $212 $-1 #
edge $-1 $197 0 $206 1 $189 $221 forward 7 unknown #
tvertex-vertex $-1 $205 $222 0 #
straight-curve $-1 3.4709853204127854 -3.5672900129419656 -5.6299212598425195 0 -1 0 I I #
coedge $-1 $218 $193 $191 $209 reversed $212 $-1 #
edge $-1 $210 0 $195 1 $191 $223 forward 7 unknown #
tvertex-vertex $-1 $209 $224 1.3242749887953654e-011 #
straight-curve $-1 2.828046239174308 -3.5776617210305668 -5.6299212598557649 0 -1 0 I I #
loop $-1 $-1 $218 $216 #
intcurve-curve $-1 forward { surfintcur full nurbs 3 open 4 
	0 3 0.33352207079031082 1 0.66668305985106335 1 1 3 
	2.8269322564233303 -5.3190703224174261 -4.7166960359508892 1 
	2.8988928773341569 -5.3190703224174261 -4.7167197948002917 0.99999999999999989 
	3.0425698716636762 -5.3190703224174269 -4.7167672318572178 1 
	3.2569811267282618 -5.3190703224174252 -4.7168380228628362 1.0000000000000002 
	3.4003494236784757 -5.3190703224174269 -4.7168853579988177 0.99999999999999989 
	3.472067341236591 -5.3190703224174261 -4.7169090367161646 1 
	0.001 
	plane 2.8269322564233308 -5.3190703224174261 -4.7166960359508892 0.00033016457898520438 0 0.99999994549567395 0 -1 0 forward_v I I I I 
	plane 0 -5.3190703224174261 0 0 -1 0 0 0 -1 forward_v I I I I 
	nullbs 
	nullbs 
	I I 
	0 
	0 
	0 
	} I I #
point $-1 2.8269322564233303 -5.3190703224174261 -4.7166960359508892 #
point $-1 3.472067341236591 -5.3190703224174261 -4.7169090367161646 #
face $-1 $110 $212 $3 $-1 $225 forward single #
spline-surface $-1 forward { ref 5 } I I I I #
tcoedge-coedge $-1 $204 $208 $201 $219 reversed $212 $226 -0.99999999999999989 0 #
tedge-edge $-1 $206 0 $210 0.99999999999999989 $201 $227 forward 7 unknown 8.3242027115789567e-005 #
pcurve $-1 0 forward { exppc nurbs 3 open 12 
	0 3 0.090902637991047183 1 0.18182186220778757 1 0.27276169070855499 1 0.36364501786120856 1 
	0.45456384509255232 1 0.54543374390893906 1 0.63635241632830231 1 0.72723621516064874 1 0.81817696186391564 1 
	0.90909681231961947 1 0.99999999999999989 3 
	0 0 1 
	0.03024681671270929 0 1.0000000000000002 
	0.090830912610800243 0 0.99999999999999978 
	0.18175431553007998 0 1 
	0.27336071638216036 0 0.99999999999999978 
	0.3635314075988495 0 1.0000000000000002 
	0.45500260513551732 0 0.99999999999999989 
	0.54496907488096435 0 1 
	0.63643639693444387 0 1 
	0.72661320293652076 0 0.99999999999999989 
	0.81823258730882986 0 1.0000000000000002 
	0.90916232781607342 0 0.99999999999999967 
	0.96975112460612256 0 1 
	0.99999999998682965 0 1 
	0.001 
	spline forward { ref 5 } I I I I 
	} 0 0 #
intcurve-curve $-1 forward { surfintcur full nurbs 3 open 4 
	0 3 0.33286347730650556 1 0.66583908289967819 1 1 3 
	3.472067341236591 -5.3190703224174261 -4.7169090367161646 1 
	3.4719478552768015 -5.3190703224174261 -4.8177316266137691 1 
	3.4717084907285343 -5.3190703224174252 -5.0197081076046572 1 
	3.4713500202543655 -5.3190703224174261 -5.3221865048277817 1 
	3.4711073819946288 -5.3190703224174261 -5.5269253527903501 1 
	3.4709853204127854 -5.3190703224174261 -5.6299212598425195 1 
	0.001 
	plane 3.472067341236591 -5.3190703224174261 -4.7169090367161646 0.99999929775670504 0 -0.0011851101623356725 0 -1 0 forward_v I I I I 
	plane 0 -5.3190703224174261 0 0 -1 0 0 0 -1 forward_v I I I I 
	nullbs 
	nullbs 
	I I 
	0 
	0 
	0 
	} I I #
point $-1 3.4709853204127854 -5.3190703224174261 -5.6299212598425195 #
intcurve-curve $-1 forward { surfintcur full nurbs 3 open 4 
	0 3 0.33416412034709886 1 0.66713729280261935 1 1 3 
	2.828046239174292 -5.3190703224174261 -5.6299212598425221 1 
	2.8279205640858578 -5.3190703224174269 -5.526894834456729 1 
	2.8276707494877158 -5.3190703224174252 -5.3221008265401286 1 
	2.8273017055502794 -5.3190703224174269 -5.019564515182803 0.99999999999999978 
	2.8270552716741557 -5.3190703224174261 -4.8175419690499108 1 
	2.8269322564233303 -5.3190703224174261 -4.7166960359508892 1 
	0.001 
	plane 2.828046239174292 -5.3190703224174261 -5.6299212598425195 -0.9999992560039066 0 -0.0012198326250951403 0 -1 0 forward_v I I I I 
	plane 0 -5.3190703224174261 0 0 -1 0 0 0 -1 forward_v I I I I 
	nullbs 
	nullbs 
	I I 
	0 
	0 
	0 
	} I I #
point $-1 2.828046239174292 -5.3190703224174261 -5.6299212598425221 #
plane-surface $-1 0 -5.3190703224174261 0 0 -1 0 0 0 -1 forward_v I I I I #
pcurve $-1 0 forward { exppc nurbs 3 open 12 
	-0.99999999999999989 3 -0.90909678903663249 1 -0.81817693957926496 1 -0.72723659130318974 1 -0.63635235260145573 1 
	-0.5454341063078082 1 -0.45456353171221681 1 -0.36364512847251662 1 -0.27276134806436042 1 -0.18182190441517204 1 
	-0.090902669659595634 1 0 3 
	5.6299212598425221 2.8280462391742915 1 
	5.6612561755211814 2.8280855131391811 1 
	5.72118730043168 2.8368633532413017 0.99999999999999978 
	5.8060118701702086 2.8754717336288262 1.0000000000000002 
	5.8763054538492163 2.9367660467124566 0.99999999999999956 
	5.9259625455282521 3.0142053150575498 1.0000000000000002 
	5.9521168993920321 3.1036510366532948 0.99999999999999989 
	5.9521141249628426 3.1954143550154237 1 
	5.9259512056561929 3.284861872877463 1 
	5.8762896293519731 3.3622910254057881 0.99999999999999989 
	5.8060016433441231 3.4235716305329191 1 
	5.7211810027264027 3.462172817357954 1 
	5.6612539715997352 3.4709471635176081 1 
	5.6299212598425195 3.4709853204127854 1 
	0 
	plane 0 -5.3190703224174261 0 0 -1 0 0 0 -1 forward_v I I I I 
	} 0 0 #
intcurve-curve $-1 forward { exactcur full nurbs 3 open 12 
	0 3 0.090902669659595634 1 0.18182190441517204 1 0.27276134806436042 1 0.36364512847251662 1 
	0.45456353171221681 1 0.5454341063078082 1 0.63635235260145573 1 0.72723659130318974 1 0.81817693957926496 1 
	0.90909678903663249 1 0.99999999999999989 3 
	3.4709853204127854 -5.3190703224174261 -5.6299212598425195 1 
	3.4709471635176081 -5.3190703224174261 -5.6612539715997352 1 
	3.462172817357954 -5.3190703224174269 -5.7211810027264027 1 
	3.4235716305329191 -5.3190703224174252 -5.8060016433441231 1 
	3.3622910254057881 -5.3190703224174269 -5.8762896293519731 0.99999999999999989 
	3.284861872877463 -5.3190703224174261 -5.9259512056561929 1 
	3.1954143550154237 -5.3190703224174278 -5.9521141249628426 1 
	3.1036510366532948 -5.3190703224174269 -5.9521168993920321 0.99999999999999989 
	3.0142053150575498 -5.3190703224174252 -5.9259625455282521 1.0000000000000002 
	2.9367660467124566 -5.3190703224174269 -5.8763054538492163 0.99999999999999956 
	2.8754717336288262 -5.3190703224174261 -5.8060118701702086 1.0000000000000002 
	2.8368633532413017 -5.3190703224174261 -5.72118730043168 0.99999999999999978 
	2.8280855131391811 -5.3190703224174261 -5.6612561755211814 1 
	2.8280462391742915 -5.3190703224174261 -5.6299212598425221 1 
	0 
	null_surface 
	null_surface 
	nullbs 
	nullbs 
	I I 
	0 
	0 
	10 0.090902669659595634 0.18182190441517204 0.27276134806436042 0.36364512847251662 0.45456353171221681 0.5454341063078082 0.63635235260145573 0.72723659130318974 0.81817693957926496 0.90909678903663249 
	F 1 F 0 } I I #
End-of-ACIS-data 