600 0 1 0           
116 GICL Pro/E ACIS Translator - Source: f:/data5/repository/PTC/V20/prod_appl/assoc_demo/mold/core_ins1_new.prt.2 - 6 0 13 ACIS 6.0.3 NT 24 Thu Apr 04 13:16:17 2002 
1 9.9999999999999995e-007 1e-010 
body $-1 $1 $-1 $2 #
lump $-1 $-1 $3 $0 #
transform $-1 1 0 0 0 1 0 0 0 1 0 0 0 25.399999999999999 no_rotate no_reflect no_shear #
shell $-1 $-1 $-1 $4 $-1 $1 #
face $-1 $5 $6 $3 $-1 $7 forward single #
face $-1 $8 $9 $3 $-1 $10 forward single #
loop $-1 $-1 $11 $4 #
cone-surface $-1 1.8110236220472438 3.4309296775825739 -6.1417322834645667 0 1 0 0 0 -0.061559975464352761 1 I I 0 1 0.061559975464352761 forward I I I I #
face $-1 $12 $13 $3 $-1 $14 forward single #
loop $-1 $-1 $15 $5 #
plane-surface $-1 1.8725835975115965 3.4309296775825739 -6.1417322834645667 1 0 0 0 1 0 forward_v I I I I #
coedge $-1 $16 $17 $18 $19 reversed $6 $-1 #
face $-1 $20 $21 $3 $-1 $22 forward single #
loop $-1 $-1 $23 $8 #
cone-surface $-1 1.8110236220472438 3.4309296775825739 -4.8818897637795269 0 1 0 0.061559975464352761 0 0 1 I I 0 1 0.061559975464352761 forward I I I I #
coedge $-1 $24 $25 $26 $27 reversed $9 $-1 #
coedge $-1 $28 $11 $29 $30 reversed $6 $-1 #
coedge $-1 $11 $28 $31 $32 forward $6 $-1 #
coedge $-1 $25 $24 $11 $19 forward $9 $-1 #
edge $-1 $33 4.4408920985006262e-016 $34 5.359251968503937 $11 $35 forward 7 unknown #
face $-1 $36 $37 $3 $-1 $38 forward single #
loop $-1 $-1 $39 $12 #
plane-surface $-1 1.8110236220472438 3.4309296775825739 -4.8203297883151741 0 0 1 0 1 0 forward_v I I I I #
coedge $-1 $40 $41 $42 $43 reversed $13 $-1 #
coedge $-1 $18 $15 $44 $45 reversed $9 $-1 #
coedge $-1 $15 $18 $46 $47 forward $9 $-1 #
coedge $-1 $41 $40 $15 $27 forward $13 $-1 #
edge $-1 $48 4.4408920985006262e-016 $49 5.359251968503937 $15 $50 forward 7 unknown #
coedge $-1 $17 $16 $51 $52 forward $6 $-1 #
coedge $-1 $53 $54 $16 $30 forward $55 $-1 #
edge $-1 $56 0 $33 1.5707963267949039 $16 $57 forward 7 unknown #
coedge $-1 $58 $46 $17 $32 reversed $59 $-1 #
edge $-1 $60 0 $34 1.5707963267948966 $17 $61 forward 7 unknown #
vertex $-1 $30 $62 #
vertex $-1 $32 $63 #
straight-curve $-1 1.8725835975115965 -1.9283222909213631 -6.1417322834645667 0 1 0 I I #
face $-1 $64 $65 $3 $-1 $66 forward single #
loop $-1 $-1 $67 $20 #
cone-surface $-1 1.4566929133858268 3.4309296775825739 -4.8818897637795269 0 1 0 0 0 0.061559975464352761 1 I I 0 1 0.061559975464352761 forward I I I I #
coedge $-1 $68 $69 $70 $71 reversed $21 $-1 #
coedge $-1 $26 $23 $72 $73 reversed $13 $-1 #
coedge $-1 $23 $26 $74 $75 forward $13 $-1 #
coedge $-1 $69 $68 $23 $43 forward $21 $-1 #
edge $-1 $76 4.4408920985006262e-016 $77 5.359251968503937 $23 $78 forward 7 unknown #
coedge $-1 $79 $80 $24 $45 forward $81 $-1 #
edge $-1 $33 0 $48 1.2598425196850398 $24 $82 forward 7 unknown #
coedge $-1 $31 $74 $25 $47 reversed $59 $-1 #
edge $-1 $34 0 $49 1.2598425196850398 $25 $83 forward 7 unknown #
vertex $-1 $45 $84 #
vertex $-1 $47 $85 #
straight-curve $-1 1.8725835975115965 -1.9283222909213631 -4.8818897637795269 0 1 0 I I #
coedge $-1 $86 $87 $28 $52 reversed $88 $-1 #
edge $-1 $56 4.4408920985006262e-016 $60 5.359251968503937 $28 $89 forward 7 unknown #
coedge $-1 $90 $29 $80 $91 reversed $55 $-1 #
coedge $-1 $29 $90 $92 $93 forward $55 $-1 #
loop $-1 $-1 $90 $94 #
vertex $-1 $52 $95 #
ellipse-curve $-1 1.8110236220472442 -1.9283222909213626 -6.1417322834645667 0 -1 0 -4.4408920985006262e-016 0 -0.061559975464352767 1 I I #
coedge $-1 $96 $31 $87 $97 reversed $59 $-1 #
loop $-1 $-1 $58 $98 #
vertex $-1 $32 $99 #
ellipse-curve $-1 1.8110236220472438 3.4309296775825739 -6.1417322834645667 0 -1 0 0 0 -0.061559975464352767 1 I I #
point $-1 1.872583597511597 -1.9283222909213626 -6.1417322834645667 #
point $-1 1.8725835975115965 3.4309296775825739 -6.1417322834645667 #
face $-1 $100 $101 $3 $-1 $102 forward single #
loop $-1 $-1 $103 $36 #
plane-surface $-1 1.3951329379214741 3.4309296775825739 -4.8818897637795269 -1 0 0 0 1 0 forward_v I I I I #
coedge $-1 $104 $105 $106 $107 reversed $37 $-1 #
coedge $-1 $42 $39 $108 $109 reversed $21 $-1 #
coedge $-1 $39 $42 $110 $111 forward $21 $-1 #
coedge $-1 $105 $104 $39 $71 forward $37 $-1 #
edge $-1 $112 4.4408920985006262e-016 $113 5.359251968503937 $39 $114 forward 7 unknown #
coedge $-1 $115 $116 $40 $73 forward $117 $-1 #
edge $-1 $48 0 $76 1.570796326794911 $40 $118 forward 7 unknown #
coedge $-1 $46 $110 $41 $75 reversed $59 $-1 #
edge $-1 $49 0 $77 1.5707963267948966 $41 $119 forward 7 unknown #
vertex $-1 $73 $120 #
vertex $-1 $75 $121 #
straight-curve $-1 1.8110236220472438 -1.9283222909213631 -4.8203297883151741 0 1 0 I I #
coedge $-1 $122 $44 $116 $123 reversed $81 $-1 #
coedge $-1 $44 $122 $53 $91 forward $81 $-1 #
loop $-1 $-1 $122 $124 #
straight-curve $-1 1.8725835975115965 -1.9283222909213631 -6.1417322834645667 0 0 1 I I #
straight-curve $-1 1.8725835975115965 3.4309296775825739 -6.1417322834645667 0 0 1 I I #
point $-1 1.872583597511597 -1.9283222909213626 -4.8818897637795269 #
point $-1 1.8725835975115965 3.4309296775825739 -4.8818897637795269 #
coedge $-1 $125 $51 $126 $127 reversed $88 $-1 #
coedge $-1 $51 $125 $58 $97 forward $88 $-1 #
loop $-1 $-1 $51 $100 #
straight-curve $-1 1.8110236220472438 -1.9283222909213631 -6.2032922589289194 0 1 0 I I #
coedge $-1 $54 $53 $128 $129 forward $55 $-1 #
edge $-1 $130 4.4789678560476584e-016 $33 1.0547035100122029 $80 $131 forward 7 unknown #
coedge $-1 $132 $126 $54 $93 reversed $133 $-1 #
edge $-1 $134 4.4402157291240808e-016 $56 0.99150922074533676 $92 $135 forward 7 unknown #
face $-1 $136 $55 $3 $-1 $137 forward single #
point $-1 1.8110236220472438 -1.9283222909213626 -6.2032922589289194 #
coedge $-1 $138 $58 $139 $140 reversed $59 $-1 #
edge $-1 $141 0 $60 0.35433070866141692 $87 $142 forward 7 unknown #
face $-1 $-1 $59 $3 $-1 $143 forward single #
point $-1 1.8110236220472438 3.4309296775825739 -6.2032922589289194 #
face $-1 $144 $88 $3 $-1 $145 forward single #
loop $-1 $-1 $146 $64 #
cone-surface $-1 1.4566929133858268 3.4309296775825739 -6.1417322834645667 0 1 0 -0.061559975464352761 0 0 1 I I 0 1 0.061559975464352761 forward I I I I #
coedge $-1 $147 $148 $149 $150 reversed $65 $-1 #
coedge $-1 $70 $67 $151 $152 reversed $37 $-1 #
coedge $-1 $67 $70 $153 $154 forward $37 $-1 #
coedge $-1 $148 $147 $67 $107 forward $65 $-1 #
edge $-1 $155 4.4408920985006262e-016 $156 5.359251968503937 $67 $157 forward 7 unknown #
coedge $-1 $158 $159 $68 $109 forward $160 $-1 #
edge $-1 $76 0 $112 0.35433070866141692 $68 $161 forward 7 unknown #
coedge $-1 $74 $153 $69 $111 reversed $59 $-1 #
edge $-1 $77 0 $113 0.35433070866141692 $69 $162 forward 7 unknown #
vertex $-1 $109 $163 #
vertex $-1 $111 $164 #
straight-curve $-1 1.4566929133858268 -1.9283222909213631 -4.8203297883151741 0 1 0 I I #
coedge $-1 $165 $72 $159 $166 reversed $117 $-1 #
coedge $-1 $72 $165 $79 $123 forward $117 $-1 #
loop $-1 $-1 $165 $167 #
ellipse-curve $-1 1.8110236220472447 -1.9283222909213626 -4.8818897637795269 0 -1 0 0.061559975464352323 0 0 1 I I #
ellipse-curve $-1 1.8110236220472438 3.4309296775825739 -4.8818897637795269 0 -1 0 0.061559975464352767 0 0 1 I I #
point $-1 1.8110236220472438 -1.9283222909213626 -4.8203297883151741 #
point $-1 1.8110236220472438 3.4309296775825739 -4.8203297883151741 #
coedge $-1 $80 $79 $168 $169 forward $81 $-1 #
edge $-1 $170 4.4789678560476575e-016 $48 1.3953691021495827 $79 $171 forward 7 unknown #
face $-1 $172 $81 $3 $-1 $173 reversed single #
coedge $-1 $87 $86 $146 $174 forward $88 $-1 #
coedge $-1 $92 $175 $86 $127 forward $133 $-1 #
edge $-1 $176 0 $56 0.35433070866141692 $86 $177 forward 7 unknown #
coedge $-1 $168 $178 $90 $129 reversed $179 $180 #
edge $-1 $130 0 $134 0.99999999999999989 $90 $181 forward 7 unknown #
vertex $-1 $91 $182 #
straight-curve $-1 1.8541764831840342 -2.9828651644804194 -6.1417322834645667 0.017452406437283401 0.99984769515639116 0 I I #
coedge $-1 $175 $92 $178 $183 forward $133 $-1 #
loop $-1 $-1 $126 $144 #
vertex $-1 $183 $184 #
straight-curve $-1 1.8110236220472438 -2.9196805000098971 -6.1859880370221578 0 0.99984769515639127 -0.017452406437283255 I I #
face $-1 $185 $179 $3 $-1 $186 reversed single #
cone-surface $-1 1.8110236220472438 -4.4550909232646241 -6.1417322834645667 0 -1 0 0 0 -0.017455064928217585 1 I I -0.017452406437283512 0.99984769515639127 0.017455064928217585 forward I I I I #
coedge $-1 $153 $96 $148 $187 reversed $59 $-1 #
coedge $-1 $146 $149 $96 $140 forward $101 $-1 #
edge $-1 $188 0 $141 1.5707963267948966 $139 $189 forward 7 unknown #
vertex $-1 $140 $190 #
straight-curve $-1 1.4566929133858268 3.4309296775825739 -6.2032922589289194 1 0 0 I I #
plane-surface $-1 0 3.4309296775825739 0 0 1 0 0 0 1 forward_v I I I I #
face $-1 $94 $133 $3 $-1 $191 reversed single #
plane-surface $-1 1.4566929133858268 3.4309296775825739 -6.2032922589289194 0 0 -1 0 1 0 forward_v I I I I #
coedge $-1 $192 $139 $125 $174 reversed $101 $-1 #
coedge $-1 $106 $103 $193 $194 reversed $65 $-1 #
coedge $-1 $103 $106 $138 $187 forward $65 $-1 #
coedge $-1 $139 $192 $103 $150 forward $101 $-1 #
edge $-1 $195 4.4408920985006262e-016 $188 5.359251968503937 $103 $196 forward 7 unknown #
coedge $-1 $197 $198 $104 $152 forward $199 $-1 #
edge $-1 $112 0 $155 1.570796326794911 $104 $200 forward 7 unknown #
coedge $-1 $110 $138 $105 $154 reversed $59 $-1 #
edge $-1 $113 0 $156 1.5707963267948966 $105 $201 forward 7 unknown #
vertex $-1 $152 $202 #
vertex $-1 $154 $203 #
straight-curve $-1 1.3951329379214741 -1.9283222909213631 -4.8818897637795269 0 1 0 I I #
coedge $-1 $204 $108 $198 $205 reversed $160 $-1 #
coedge $-1 $108 $204 $115 $166 forward $160 $-1 #
loop $-1 $-1 $108 $206 #
straight-curve $-1 1.8110236220472438 -1.9283222909213631 -4.8203297883151741 -1 0 0 I I #
straight-curve $-1 1.8110236220472438 3.4309296775825739 -4.8203297883151741 -1 0 0 I I #
point $-1 1.4566929133858268 -1.9283222909213626 -4.8203297883151741 #
point $-1 1.4566929133858268 3.4309296775825739 -4.8203297883151741 #
coedge $-1 $116 $115 $207 $208 forward $117 $-1 #
edge $-1 $209 0 $76 1.3628136222335281 $159 $210 forward 7 unknown #
face $-1 $124 $117 $3 $-1 $211 forward single #
coedge $-1 $207 $128 $122 $169 reversed $179 $212 #
edge $-1 $170 0 $130 1 $122 $213 forward 7 unknown #
vertex $-1 $123 $214 #
straight-curve $-1 1.8482310488108546 -3.3234788715980659 -4.8818897637795269 0.017452406437283505 0.99984769515639127 0 I I #
face $-1 $215 $216 $3 $-1 $217 reversed single #
plane-surface $-1 1.8897637795275588 -0.94407032241742561 -7.4506198827376213 -0.99984769515639127 0.017452406437283512 0 0 0 1 forward_v I I I I #
edge $-1 $176 4.4408920985006262e-016 $141 5.359251968503937 $146 $218 forward 7 unknown #
coedge $-1 $126 $132 $219 $220 forward $133 $-1 #
vertex $-1 $221 $222 #
straight-curve $-1 1.4566929133858268 -1.9283222909213631 -6.2032922589289194 1 0 0 I I #
coedge $-1 $128 $223 $132 $183 reversed $179 $224 #
loop $-1 $-1 $225 $136 #
pcurve $-1 0 forward { exppc nurbs 3 open 6 
	-0.99999999999999989 3 -0.78779006704845511 1 -0.57994312671581238 1 -0.37831307508085354 1 -0.18378543589269725 1 
	0 3 
	0.22626753277320572 0.33063097071976677 1 
	0.22633254189934976 0.32762729334816276 1 
	0.22636587854325441 0.32192871474956458 1 
	0.22611416349359895 0.31400997154548299 1 
	0.22564666275730688 0.30740087469256699 0.99999999999999978 
	0.22493925107154572 0.30193749752591881 1 
	0.22437294618200712 0.29982393116239991 0.99999999999999989 
	0.22406858604234284 0.29906726300917558 1 
	0.001 
	spline forward { exactsur full nurbs 3 3 both open open none none 19 2 
	0 3 0.056585999999999997 2 0.113853 2 0.17021800000000001 2 0.22658200000000001 2 
	0.23055600000000001 2 0.29663400000000001 2 0.36271100000000001 2 0.41804599999999997 2 0.47338000000000002 2 
	0.47367700000000001 2 0.560199 2 0.64672099999999999 2 0.72949199999999992 2 0.79614999999999991 2 
	0.86280799999999991 2 0.87366899999999992 2 0.93089299999999997 2 1 3 
	0 3 1 3 
	1.9111025069883556 -3.8545719552870952 0 1 
	1.9111025150886594 -3.8545719550802087 -0.89687259825624532 1 
	1.9247455948118737 -3.828271531951589 -1.6715676710680665 1 
	1.9749199282695951 -3.7665764181761769 -3.0218903161097521 1.0000000000000002 
	2.0117246601104428 -3.7310760892759096 -3.5950099513189033 1 
	2.1034295730591221 -3.6667362206530836 -4.5578306952507655 1 
	2.1580356059209573 -3.6378005754702523 -4.9502786054967132 1 
	2.2816942156765148 -3.5888973665283261 -5.5975457091976253 1 
	2.3507465362495976 -3.5689296436710665 -5.8523673442698039 1 
	2.4305143474427866 -3.5517947685569284 -6.0678970790427931 1 
	2.4357951907930819 -3.5506859185668196 -6.0818264751164088 1 
	2.5293513198721298 -3.5314791029260295 -6.3227752846079603 1.0000000000000007 
	2.624934754506187 -3.5186870982062257 -6.4780215410347983 1 
	2.8255743312074002 -3.5004243493329161 -6.6902813168780115 0.99999999999999978 
	2.9306303298962217 -3.4949534943850953 -6.7472963228767231 1 
	3.1280067581780031 -3.4886297076795123 -6.8004247080875482 0.99999999999999978 
	3.2196211284386012 -3.4871706353257061 -6.8049319264881536 1 
	3.403591667444172 -3.4854253789394547 -6.7973630750526981 1 
	3.4959478227536325 -3.4851391737113468 -6.7852873049041182 1 
	3.5879687241341833 -3.4846874831184094 -6.7755278106112469 1.0000000000000002 
	3.5884599769078114 -3.4846850669572649 -6.7754757753420431 1 
	3.7320558459026167 -3.4839775790959044 -6.760283553543692 1.0000000000000138 
	3.8731062660974014 -3.4829252962173514 -6.7505784705235428 1 
	4.1434868370078668 -3.4850885731060237 -6.6714165324878856 1 
	4.2728169877234743 -3.4883041328732425 -6.6019596774722462 1 
	4.5077574014926949 -3.5028775054847725 -6.3458254539823091 1 
	4.6141529207630985 -3.5138762825007177 -6.1643605060930966 1 
	4.7861602591401349 -3.5431881963961227 -5.690567743149324 0.99999999999999978 
	4.8556794332907307 -3.5596606369727617 -5.426698405272961 1 
	4.9777866738726706 -3.5996093743259365 -4.7706593084878763 1 
	5.0303747403040155 -3.6230856711024728 -4.3784895495791538 1 
	5.0804030658369319 -3.6524127994086673 -3.8356159562319228 0.99999999999999978 
	5.0871583717074413 -3.6565679963093705 -3.7575736067063397 1 
	5.1278869149282826 -3.6827947900010187 -3.2556610869421649 0.99999999999999956 
	5.1549496852738175 -3.7056299077160348 -2.7776469165218662 1 
	5.197592196606009 -3.7497267477333973 -1.5853096771214328 1 
	5.2096204065892948 -3.7696770536187936 -0.84252804195568387 1 
	5.2096203957273781 -3.769677053853318 0 1 
	1.2311407536820207 -3.1075470521809949 0 1 
	1.2311407534080248 -3.1075470520730777 -0.76677866515845516 1 
	1.2422400605879291 -3.0892261172766005 -1.4656206001904812 1 
	1.2852352769088815 -3.045175438991329 -2.7443933573058188 1.0000000000000002 
	1.3173798609786456 -3.0193591856570059 -3.3227918930304114 1 
	1.4008295304827214 -2.9711042413548703 -4.3487953500678476 1 
	1.4518248483908585 -2.9486187558202928 -4.7983168797890041 1 
	1.5722035667610141 -2.9087988684744088 -5.5826535222392408 1 
	1.6415866409746998 -2.891464375282196 -5.9174706698914461 1 
	1.7254352374992776 -2.8754220154367776 -6.2153465673979236 1 
	1.7310021564788669 -2.8743771042883015 -6.2346841964137472 1 
	1.8299465601665064 -2.8561593463717267 -6.5706634903231302 1.0000000000000007 
	1.9360308000681379 -2.842135397101897 -6.81078792686555 1 
	2.1919688063695548 -2.8185807382673178 -7.1695066840718384 0.99999999999999978 
	2.3418219103532318 -2.8090499607067558 -7.2881028438725046 1 
	2.6764098892303183 -2.7940274096289621 -7.4216556082267884 0.99999999999999978 
	2.851513740674402 -2.7881309061532438 -7.4503263809801243 1 
	3.2200126259687898 -2.7773530764756864 -7.4749437890422454 1 
	3.4134073292083267 -2.7724717319297456 -7.470891015723927 1 
	3.6025112158290837 -2.7676877918801277 -7.4664492879594526 1.0000000000000002 
	3.6035206415002468 -2.7676622551622159 -7.4664255641632034 1 
	3.8985500231213424 -2.7601985240359714 -7.4594881188626943 1.0000000000000138 
	4.1792748900517038 -2.7530967565284139 -7.4518461660245574 1 
	4.6963498440042217 -2.7428774466800951 -7.3501789024363759 1 
	4.9326999310262707 -2.7397599043393894 -7.2561535916863775 1 
	5.3337196786363732 -2.7402984995613489 -6.9044891639904504 1 
	5.5010526918153966 -2.7436668362637975 -6.6541199386156258 1 
	5.7390547145961417 -2.7569975170051988 -6.0440349181861457 0.99999999999999978 
	5.822199973844989 -2.7655485606906973 -5.7150936380046131 1 
	5.9351905734382688 -2.7880010772931403 -4.9370023543848136 1 
	5.9650359137827031 -2.8019025502100847 -4.4878523509465449 1 
	5.9645215448877247 -2.8198164754490431 -3.8931174815585492 0.99999999999999978 
	5.9636453955401052 -2.8223662429531275 -3.8081377766250037 1 
	5.9529876355486602 -2.8385261887866653 -3.2650281343095036 0.99999999999999956 
	5.921156214967966 -2.8528879499300657 -2.7625360257593505 1 
	5.8488562414416787 -2.8809401502167886 -1.546180513953882 1 
	5.8079667467334755 -2.8938718808195083 -0.81009255818450321 1 
	5.8079667496414329 -2.8938718809568584 0 1 
	0.93658933367901809 -2.7855579211231642 0 1 
	0.93658932816339446 -2.7855579210842087 -0.63668474623265336 1 
	0.9431300716850205 -2.7703460336213426 -1.2596449585354135 1 
	0.9710110284117649 -2.7264838887249732 -2.4667661571771426 1.0000000000000002 
	0.99252840262816722 -2.6976741067072894 -3.0503699764040499 1 
	1.0521386496892451 -2.6348057766982258 -4.1393791540489069 1 
	1.0899651072946734 -2.6008370482081826 -4.6458714147428628 1 
	1.1844615166864285 -2.5309272594570889 -5.5670547818935603 1 
	1.2411311341488789 -2.4949862341988687 -5.9817475168816294 1 
	1.3133213247974824 -2.45665607120119 -6.3618391150007882 1 
	1.318129456059046 -2.4541322311256502 -6.3865763747568094 1 
	1.4038989269136812 -2.4096603744820921 -6.8174343873284711 1.0000000000000007 
	1.5007028175618964 -2.3679832516982993 -7.1422918126342436 1 
	1.7681083046253061 -2.2882396750787768 -7.6471962878722115 0.99999999999999978 
	1.9387087841911621 -2.2501731666100593 -7.8272455292366274 1 
	2.362647584256965 -2.1863824323557224 -8.0410225386887166 0.99999999999999978 
	2.5980267014563245 -2.1596577815409894 -8.0937790832234064 1 
	3.1019841043317524 -2.1128010961330879 -8.1504664912192482 1 
	3.3705617899640505 -2.0926689424085705 -8.1543982370284258 1 
	3.62950696602545 -2.0767239636355024 -8.1552616029520753 1.0000000000000002 
	3.6308890922481187 -2.0766389604613265 -8.1552661237170145 1 
	4.034817085075594 -2.0518269375674323 -8.1565641134427889 1.0000000000000138 
	4.4097946307106142 -2.0375785874224728 -8.1510293539862086 1 
	5.0809407004647635 -2.0260507897225577 -8.0270309613764805 1 
	5.3771092245837959 -2.0287713421675018 -7.9085673282229108 1 
	5.8543026216074212 -2.0465438947555641 -7.4616717990547787 1 
	6.0397626857656892 -2.0610561747112515 -7.1425653373469702 1 
	6.2719283746140011 -2.0941293283442421 -6.3964950900027793 0.99999999999999978 
	6.3386170310312249 -2.1113521025685666 -6.0026207928497612 1 
	6.3882051139230001 -2.1482260986750448 -5.1027405319102179 1 
	6.3711045403975488 -2.1678773205571993 -4.5967345681236891 1 
	6.2964588023117081 -2.1899598661204718 -3.9502636469124139 0.99999999999999978 
	6.2847503002017895 -2.1930362072216711 -3.8583636906055463 1 
	6.2033194398978999 -2.2121387826143284 -3.2741611316200676 0.99999999999999956 
	6.0993058220606446 -2.2273869586812105 -2.7472653156089519 1 
	5.8907330127662565 -2.2547779032667732 -1.5070129627849327 1 
	5.7905457717399802 -2.2656182831087492 -0.7776570732021244 1 
	5.7905457875378348 -2.2656182831679241 0 1 
	0.69819423288592208 -0.98425196850393704 0 1 
	0.69819422526134456 -0.98425196850393704 -0.50659081313542664 1 
	0.69915833760305923 -0.98425196850393715 -1.0506094782700783 1 
	0.70832801963547665 -0.98425196850393692 -2.1751983941874058 1.0000000000000002 
	0.71662059902635478 -0.98425196850393715 -2.7561297417875763 1 
	0.74618381834134262 -0.98425196850393692 -3.8892054107700251 1 
	0.76724798638854064 -0.98425196850393681 -4.441659028727833 1 
	0.82813774678454799 -0.98425196850393726 -5.4758477406793959 1 
	0.86796300627080036 -0.98425196850393759 -5.9575840891523937 1 
	0.92404770521492352 -0.98425196850393704 -6.405932102137843 1 
	0.92780403764435782 -0.98425196850393704 -6.4351485682472331 1 
	0.99523297485830742 -0.98425196850393637 -6.9446465721131689 1.0000000000000007 
	1.0778757350792032 -0.98425196850393692 -7.3387018734869782 1 
	1.3477618174535144 -0.98425196850393704 -7.9605538085981804 0.99999999999999978 
	1.5350035566018061 -0.98425196850393659 -8.1883529583424668 1 
	2.0421868111950232 -0.98425196850393759 -8.460940945411215 0.99999999999999978 
	2.3356071151284841 -0.98425196850393781 -8.5294610370354125 1 
	2.972117399301005 -0.98425196850393615 -8.6057796530631041 1 
	3.3152064818265243 -0.98425196850393382 -8.6135792747888953 1 
	3.6443366795321079 -0.98425196850393704 -8.6183921539173642 1.0000000000000002 
	3.6460933706040359 -0.98425196850393704 -8.618417761890278 1 
	4.1594734914020703 -0.98425196850392793 -8.6258822933093562 1.0000000000000138 
	4.6317362954694774 -0.98425196850393848 -8.62716998499236 1 
	5.4663193660964078 -0.98425196850393559 -8.4994802424271541 1 
	5.8286396326559213 -0.9842519685039367 -8.3705028081791344 1 
	6.3960027198153417 -0.98425196850393737 -7.8603804853581405 1 
	6.6071830319592939 -0.98425196850393704 -7.4904102589923989 1 
	6.8472622252395983 -0.98425196850393692 -6.6412070660799971 0.99999999999999978 
	6.9036428201339692 -0.98425196850393704 -6.1972647265891618 1 
	6.9013957458101398 -0.98425196850393704 -5.2037587771875691 1 
	6.8427680765919394 -0.98425196850393704 -4.6541951672768107 1 
	6.6994267041199169 -0.98425196850393715 -3.9693870580159212 0.99999999999999978 
	6.6776276672565462 -0.98425196850393704 -3.8723969637416955 1 
	6.5299397550743192 -0.98425196850393692 -3.258251400257969 0.99999999999999956 
	6.356945172791618 -0.98425196850393715 -2.714894449231136 1 
	6.0173240117893645 -0.98425196850393692 -1.4637381661406528 1 
	5.8594796162713543 -0.98425196850393704 -0.74522158943128813 1 
	5.8594796440791255 -0.98425196850393704 0 1 
	0 
	0 
	0 
	17 0.056585999999999997 0.113853 0.17021800000000001 0.22658200000000001 0.23055600000000001 0.29663400000000001 0.36271100000000001 0.41804599999999997 0.47338000000000002 0.47367700000000001 0.560199 0.64672099999999999 0.72949199999999992 0.79614999999999991 0.86280799999999991 0.87366899999999992 0.93089299999999997 
	0 
	0 
	0 
	F 1 F 0 F 1 F 0 } I I I I 
	} 0 0 #
intcurve-curve $-1 forward { surfintcur full nurbs 3 open 6 
	0 3 0.19348188281277953 1 0.39091489663949197 1 0.59075603789849673 1 0.79388884715097541 1 
	0.99999999999999989 3 
	1.8541764831840344 -2.9828651644804189 -6.1417322834645667 1 
	1.8541559461309363 -2.9811819872798986 -6.1463919983149848 0.99999999999999989 
	1.8528866579411774 -2.97663739688721 -6.1552636091956785 1.0000000000000002 
	1.8466721471215393 -2.9654263158848697 -6.1677787703870885 0.99999999999999989 
	1.8376038211780072 -2.952164453593038 -6.1772192601247067 1 
	1.8255911634222988 -2.9365418959038472 -6.1840468574956384 1 
	1.8161633194103122 -2.925475232032674 -6.1857661635407943 0.99999999999999989 
	1.8110236220472438 -2.9196805000098971 -6.1859880370221569 1 
	0.001 
	spline forward { ref 1 } I I I I 
	cone 1.8110236220472438 -4.4550909232646241 -6.1417322834645667 0 -1 0 0 0 -0.017455064928217585 1 I I -0.017452406437283512 0.99984769515639127 0.017455064928217585 forward I I I I 
	nurbs 3 open 6 
	0 3 0.18378543589269725 1 0.37831307508085354 1 0.57994312671581238 1 0.78779006704845511 1 
	0.99999999999999989 3 
	0.22406858604234284 0.29906726300917558 1 
	0.22437294618200712 0.29982393116239991 0.99999999999999989 
	0.22493925107154572 0.30193749752591881 1 
	0.22564666275730688 0.30740087469256699 0.99999999999999978 
	0.22611416349359895 0.31400997154548299 1 
	0.22636587854325441 0.32192871474956458 1 
	0.22633254189934976 0.32762729334816276 1 
	0.22626753277320572 0.33063097071976677 1 
	
	nullbs 
	I I 
	0 
	0 
	0 
	} I I #
point $-1 1.8541764831840344 -2.9828651644804189 -6.1417322834645667 #
edge $-1 $134 0 $226 1 $132 $227 forward 7 unknown #
point $-1 1.8110236220472438 -2.9196805000098967 -6.1859880370221578 #
face $-1 $206 $199 $3 $-1 $228 forward single #
spline-surface $-1 forward { ref 1 } I I I I #
edge $-1 $156 0 $188 1.2598425196850398 $148 $229 forward 7 unknown #
vertex $-1 $187 $230 #
ellipse-curve $-1 1.4566929133858268 3.4309296775825739 -6.1417322834645667 0 -1 0 -0.061559975464352767 0 0 1 I I #
point $-1 1.4566929133858268 3.4309296775825739 -6.2032922589289194 #
plane-surface $-1 0.1478053141127722 -0.94407032241742561 -6.2204724409448815 0 0.017452406437283512 0.99984769515639127 1 0 0 forward_v I I I I #
coedge $-1 $149 $146 $231 $221 reversed $101 $-1 #
coedge $-1 $232 $233 $147 $194 forward $216 $-1 #
edge $-1 $155 0 $195 1.2598425196850398 $147 $234 forward 7 unknown #
vertex $-1 $194 $235 #
straight-curve $-1 1.3951329379214741 -1.9283222909213631 -6.1417322834645667 0 1 0 I I #
coedge $-1 $236 $151 $233 $237 reversed $199 $-1 #
coedge $-1 $151 $236 $158 $205 forward $199 $-1 #
loop $-1 $-1 $236 $185 #
ellipse-curve $-1 1.456692913385826 -1.9283222909213671 -4.8818897637795269 1.0408150461375975e-027 -1 7.2139276616056999e-014 8.8817841970012523e-016 4.4408920985006262e-015 0.061559975464352767 1 I I #
ellipse-curve $-1 1.4566929133858268 3.4309296775825739 -4.8818897637795269 0 -1 0 0 0 0.061559975464352767 1 I I #
point $-1 1.3951329379214736 -1.9283222909213626 -4.8818897637795269 #
point $-1 1.3951329379214741 3.4309296775825739 -4.8818897637795269 #
coedge $-1 $159 $158 $238 $239 forward $160 $-1 #
edge $-1 $240 -4.4402157291240813e-016 $112 0.91983923177046245 $158 $241 forward 7 unknown #
face $-1 $167 $160 $3 $-1 $242 reversed single #
coedge $-1 $238 $168 $165 $208 reversed $179 $243 #
edge $-1 $209 0 $170 1.0000000000000002 $165 $244 forward 7 unknown #
vertex $-1 $166 $245 #
straight-curve $-1 1.8110236220472438 -3.2909283500392883 -4.8441141655486604 0 0.99984769515639116 0.017452406437283637 I I #
cone-surface $-1 1.8110236220472438 -4.4550909232646241 -4.8818897637795269 0 -1 0 0.017455064928217585 0 0 1 I I -0.017452406437283512 0.99984769515639127 0.017455064928217585 forward I I I I #
pcurve $-1 0 forward { exppc nurbs 3 open 4 
	-1 3 -0.64805004587319937 1 -0.31638484935134992 1 0 3 
	0.22406858604234284 0.29906726300917558 1 
	0.21492630539298091 0.27823563506720844 0.99999999999999978 
	0.19769387064922203 0.24097267107526207 1.0000000000000002 
	0.17387888060743578 0.19620745134367171 0.99999999999999978 
	0.15948828814268631 0.17195649842284927 1 
	0.15269608595309611 0.16135024265693962 1 
	0.001 
	spline forward { ref 1 } I I I I 
	} 0 0 #
intcurve-curve $-1 forward { surfintcur full nurbs 3 open 4 
	0 3 0.33060971868350575 1 0.66352097160228707 1 1 3 
	1.8482310488108546 -3.3234788715980659 -4.8818897637795269 1 
	1.8487230227744897 -3.2952937020980793 -5.0179256621232868 0.99999999999999989 
	1.849817718516616 -3.2325786250342969 -5.2927864434334655 1 
	1.8517201703685766 -3.1235872314310966 -5.7113053683133792 1.0000000000000002 
	1.8533097793989279 -3.0325185910743859 -5.9969678152443286 1 
	1.8541764831840342 -2.9828651644804189 -6.1417322834645667 1 
	0.001 
	plane 1.8897637795275588 -0.94407032241742561 -7.4506198827376213 -0.99984769515639127 0.017452406437283512 0 0 0 1 forward_v I I I I 
	spline forward { ref 1 } I I I I 
	nullbs 
	nurbs 3 open 4 
	0 3 0.31638484935134992 1 0.64805004587319937 1 1 3 
	0.15269608595309611 0.16135024265693962 1 
	0.15948828814268631 0.17195649842284927 1 
	0.17387888060743578 0.19620745134367171 0.99999999999999978 
	0.19769387064922203 0.24097267107526207 1.0000000000000002 
	0.21492630539298091 0.27823563506720844 0.99999999999999978 
	0.22406858604234284 0.29906726300917558 1 
	
	I I 
	0 
	0 
	1 0.27709991714253523 
	} I I #
point $-1 1.8482310488108549 -3.3234788715980654 -4.8818897637795269 #
face $-1 $98 $246 $3 $-1 $247 forward single #
loop $-1 $-1 $193 $172 #
plane-surface $-1 1.3779527559055118 -0.94407032241742561 -3.5730021645064722 0.99984769515639127 0.017452406437283512 0 0 0 -1 forward_v I I I I #
straight-curve $-1 1.4566929133858268 -1.9283222909213631 -6.2032922589289194 0 1 0 I I #
coedge $-1 $248 $231 $175 $220 reversed $246 $-1 #
edge $-1 $226 0 $176 0.51190326075383652 $175 $249 forward 7 unknown #
edge $-1 $195 0 $176 1.5707963267949039 $192 $250 forward 7 unknown #
point $-1 1.4566929133858268 -1.9283222909213626 -6.2032922589289194 #
coedge $-1 $178 $251 $248 $252 reversed $179 $253 #
pcurve $-1 0 forward { exppc nurbs 3 open 4 
	-1 3 -0.66997102232566741 1 -0.33732740580078979 1 0 3 
	0.22213915921490981 0.55745601023497904 1 
	0.2224491972510724 0.53354640116208607 1 
	0.22316652355684713 0.48485752909595742 0.99999999999999978 
	0.22448562300309094 0.41011564464108818 1 
	0.22563222052555387 0.35757494491002528 1 
	0.22626753277320572 0.33063097071976677 1 
	0.001 
	spline forward { ref 1 } I I I I 
	} 0 0 #
coedge $-1 $251 $238 $236 $254 reversed $179 $255 #
vertex $-1 $220 $256 #
intcurve-curve $-1 forward { surfintcur full nurbs 3 open 4 
	0 3 0.33550373545198675 1 0.66766218020085699 1 1 3 
	1.8110236220472438 -2.9196805000098967 -6.1859880370221578 1 
	1.7649523009572026 -2.868085195434122 -6.1868886364135172 1 
	1.6775962744622315 -2.7640836723179549 -6.1887039897521445 1 
	1.5616346020128005 -2.6069799944047736 -6.1914462446505816 1.0000000000000002 
	1.4904772514466214 -2.496494527528125 -6.1933747756485378 1 
	1.4566929133858268 -2.4401475863291271 -6.1943583151656725 1 
	0.001 
	plane 0.1478053141127722 -0.94407032241742561 -6.2204724409448815 0 0.017452406437283512 0.99984769515639127 1 0 0 forward_v I I I I 
	spline forward { ref 1 } I I I I 
	nullbs 
	nurbs 3 open 4 
	0 3 0.33732740580078979 1 0.66997102232566741 1 1 3 
	0.22626753277320572 0.33063097071976677 1 
	0.22563222052555387 0.35757494491002528 1 
	0.22448562300309094 0.41011564464108818 1 
	0.22316652355684713 0.48485752909595742 0.99999999999999978 
	0.2224491972510724 0.53354640116208607 1 
	0.22213915921490981 0.55745601023497904 1 
	
	I I 
	0 
	0 
	0 
	} I I #
cone-surface $-1 1.4566929133858268 -4.4550909232646241 -4.8818897637795269 0 -1 0 0 0 0.017455064928217585 1 I I -0.017452406437283512 0.99984769515639127 0.017455064928217585 forward I I I I #
straight-curve $-1 1.3951329379214741 3.4309296775825739 -4.8818897637795269 0 0 -1 I I #
point $-1 1.3951329379214741 3.4309296775825739 -6.1417322834645667 #
coedge $-1 $219 $257 $192 $221 forward $246 $-1 #
coedge $-1 $258 $193 $257 $259 reversed $216 $-1 #
coedge $-1 $193 $258 $197 $237 forward $216 $-1 #
straight-curve $-1 1.3951329379214741 -1.9283222909213631 -4.8818897637795269 0 0 -1 I I #
point $-1 1.3951329379214736 -1.9283222909213626 -6.1417322834645667 #
coedge $-1 $198 $197 $225 $254 forward $199 $-1 #
edge $-1 $260 3.8752126923576736e-018 $155 0.83676877075178169 $233 $261 forward 7 unknown #
coedge $-1 $225 $207 $204 $239 reversed $179 $262 #
edge $-1 $240 0 $209 1 $204 $263 forward 7 unknown #
vertex $-1 $239 $264 #
straight-curve $-1 1.4566929133858268 -2.8480214267214849 -4.8363831964449906 0 0.99984769515639116 0.017452406437283234 I I #
plane-surface $-1 3.1199112213202982 -0.94407032241742561 -4.8031496062992121 0 0.017452406437283512 -0.99984769515639127 -1 0 0 forward_v I I I I #
pcurve $-1 0 forward { exppc nurbs 3 open 5 
	-1.0000000000000002 3 -0.79077536567356455 1 -0.54749185246823795 1 -0.2814680138547655 1 0 3 
	0.15269608595309611 0.16135024265693962 1 
	0.15243451504349381 0.16108007334767729 1 
	0.15194810819673726 0.16136967532658497 1.0000000000000002 
	0.15143356586148374 0.16591047998078134 0.99999999999999978 
	0.15123826626659712 0.17213792479679782 1 
	0.15125072892566449 0.17710596480243518 1 
	0.15130726727607161 0.17985595348916028 1 
	0.001 
	spline forward { ref 1 } I I I I 
	} 0 0 #
intcurve-curve $-1 forward { surfintcur full nurbs 3 open 5 
	0 3 0.25717186939968589 1 0.50886049536286171 1 0.75740551508076748 1 1.0000000000000002 3 
	1.8110236220472438 -3.2909283500392883 -4.8441141655486604 1 
	1.8158152989075096 -3.2961766001323425 -4.8442045203189448 0.99999999999999989 
	1.8247473088395938 -3.3055630482577563 -4.8461394258628419 1 
	1.8367958326594378 -3.3171518595732521 -4.8534338000989399 1 
	1.8463294832558155 -3.3245968943097308 -4.8670510595243481 1 
	1.8481678365993399 -3.3245292971962428 -4.8766850267191826 1 
	1.8482310488108549 -3.3234788715980654 -4.8818897637795269 1 
	0.001 
	spline forward { ref 1 } I I I I 
	cone 1.8110236220472438 -4.4550909232646241 -4.8818897637795269 0 -1 0 0.017455064928217585 0 0 1 I I -0.017452406437283512 0.99984769515639127 0.017455064928217585 forward I I I I 
	nurbs 3 open 5 
	0 3 0.2814680138547655 1 0.54749185246823795 1 0.79077536567356455 1 1.0000000000000002 3 
	0.15130726727607161 0.17985595348916028 1 
	0.15125072892566449 0.17710596480243518 1 
	0.15123826626659712 0.17213792479679782 1 
	0.15143356586148374 0.16591047998078134 0.99999999999999978 
	0.15194810819673726 0.16136967532658497 1.0000000000000002 
	0.15243451504349381 0.16108007334767729 1 
	0.15269608595309611 0.16135024265693962 1 
	
	nullbs 
	I I 
	0 
	0 
	0 
	} I I #
point $-1 1.8110236220472438 -3.2909283500392883 -4.8441141655486604 #
loop $-1 $-1 $248 $215 #
cone-surface $-1 1.4566929133858268 -4.4550909232646241 -6.1417322834645667 0 -1 0 -0.017455064928217585 0 0 1 I I -0.017452406437283512 0.99984769515639127 0.017455064928217585 forward I I I I #
coedge $-1 $257 $219 $223 $252 forward $246 $-1 #
straight-curve $-1 1.4566929133858268 -2.4401475863291271 -6.1943583151656725 0 0.99984769515639116 -0.017452406437284081 I I #
ellipse-curve $-1 1.4566929133858264 -1.9283222909213626 -6.1417322834645667 0 -1 0 -0.061559975464352767 0 0 1 I I #
coedge $-1 $223 $225 $258 $265 reversed $179 $266 #
edge $-1 $226 0 $267 1 $248 $268 forward 7 unknown #
pcurve $-1 0 forward { exppc nurbs 3 open 7 
	-1 3 -0.85296874850609816 1 -0.69654376122577721 1 -0.53056794009544306 1 -0.35806819635788711 1 
	-0.18110496202831117 1 0 3 
	0.21883336781245086 0.58842345947485508 1 
	0.21910704744585166 0.58912639322969607 1 
	0.21964982359844723 0.58956778106090046 1 
	0.22054209096515376 0.58612965728005495 1 
	0.2211364168176157 0.58084704315931934 1 
	0.22162805050114551 0.57402083514325419 1 
	0.22196601942112304 0.56624541980814147 1 
	0.22209841422700272 0.56049464349813394 1 
	0.22213915921490981 0.55745601023497904 1 
	0.001 
	spline forward { ref 1 } I I I I 
	} 0 0 #
edge $-1 $260 0 $240 1 $236 $269 forward 7 unknown #
pcurve $-1 0 forward { exppc nurbs 3 open 7 
	-1 3 -0.82220249175507343 1 -0.64823294090233641 1 -0.47829815742146198 1 -0.31286829192306842 1 
	-0.15247638908493677 1 0 3 
	0.15547691329604008 0.40924005250135415 1 
	0.15553712581957768 0.4125167178009248 1.0000000000000002 
	0.15569315415175908 0.41871255378118727 0.99999999999999978 
	0.1560429324671945 0.42709079298416958 1.0000000000000002 
	0.1564682662734824 0.43440647791306713 1.0000000000000002 
	0.15694871538375851 0.44043360220173439 0.99999999999999978 
	0.1575142064390781 0.44534663737581281 1.0000000000000002 
	0.15792223429769098 0.44701541569058567 0.99999999999999978 
	0.15813222800514898 0.44754051186275878 1 
	0.001 
	spline forward { ref 1 } I I I I 
	} 0 0 #
point $-1 1.4566929133858268 -2.4401475863291271 -6.1943583151656725 #
coedge $-1 $231 $248 $232 $259 forward $246 $-1 #
coedge $-1 $233 $232 $251 $265 forward $216 $-1 #
edge $-1 $267 4.4789678560476584e-016 $195 0.44014586334675315 $232 $270 forward 7 unknown #
vertex $-1 $237 $271 #
straight-curve $-1 1.4097365666026602 -2.7649636177363783 -4.8818897637795269 -0.017452406437283435 0.99984769515639127 0 I I #
pcurve $-1 0 forward { exppc nurbs 3 open 4 
	-1 3 -0.6636582543252012 1 -0.32971858126470233 1 0 3 
	0.15130726727607161 0.17985595348916028 1 
	0.15182356461098603 0.20653859409210504 0.99999999999999989 
	0.15281982373421768 0.2590747021515708 1 
	0.15421617060406731 0.33634919800443647 0.99999999999999989 
	0.15506973786791864 0.38533816886069172 1 
	0.15547691329604008 0.40924005250135415 1 
	0.001 
	spline forward { ref 1 } I I I I 
	} 0 0 #
intcurve-curve $-1 forward { surfintcur full nurbs 3 open 4 
	0 3 0.3293190611735376 1 0.66258540955369338 1 1 3 
	1.4566929133858268 -2.8480214267214854 -4.8363831964449906 1 
	1.4896429787922554 -2.8969547947850343 -4.8372373315616963 1.0000000000000002 
	1.5598878271220644 -2.9951959220479836 -4.8389521368166921 1.0000000000000002 
	1.6786227526489743 -3.1425350369362355 -4.8415239506335332 0.99999999999999978 
	1.7654198871488662 -3.2413014243675184 -4.843247924338872 1 
	1.8110236220472438 -3.2909283500392887 -4.8441141655486604 1 
	0.001 
	plane 3.1199112213202982 -0.94407032241742561 -4.8031496062992121 0 0.017452406437283512 -0.99984769515639127 -1 0 0 forward_v I I I I 
	spline forward { ref 1 } I I I I 
	nullbs 
	nurbs 3 open 4 
	0 3 0.32971858126470233 1 0.6636582543252012 1 1 3 
	0.15547691329604008 0.40924005250135415 1 
	0.15506973786791864 0.38533816886069172 1 
	0.15421617060406731 0.33634919800443647 0.99999999999999989 
	0.15281982373421768 0.2590747021515708 1 
	0.15182356461098603 0.20653859409210504 0.99999999999999989 
	0.15130726727607161 0.17985595348916028 1 
	
	I I 
	0 
	0 
	0 
	} I I #
point $-1 1.4566929133858268 -2.8480214267214854 -4.8363831964449906 #
edge $-1 $267 0 $260 1 $258 $272 forward 7 unknown #
pcurve $-1 0 forward { exppc nurbs 3 open 4 
	-1 3 -0.67998200337704373 1 -0.3467067356119331 1 0 3 
	0.15813222800514898 0.44754051186275878 1 
	0.16419277342538771 0.4594248830846388 1.0000000000000002 
	0.17684142952449103 0.48574569595672157 0.99999999999999978 
	0.19739090814917581 0.53280458696234312 1.0000000000000002 
	0.21152604960563834 0.56889698949288126 0.99999999999999989 
	0.21883336781245086 0.58842345947485508 1 
	0.001 
	spline forward { ref 1 } I I I I 
	} 0 0 #
vertex $-1 $265 $273 #
intcurve-curve $-1 forward { surfintcur full nurbs 3 open 7 
	0 3 0.17215800925300301 1 0.34189657226518139 1 0.50956168204961871 1 0.67473788498702336 1 
	0.83856344997900756 1 1 3 
	1.4566929133858268 -2.4401475863291271 -6.1943583151656725 1 
	1.4523413345703813 -2.4328955618114514 -6.1944671312966513 1 
	1.4439273186701815 -2.4191654438591743 -6.193667263684695 1 
	1.4320691351935249 -2.4006249364440819 -6.1896080694455478 1 
	1.4210160514503218 -2.3844043512597493 -6.1824029847431978 1 
	1.4116201693250059 -2.3718678894442036 -6.1725488696625588 1 
	1.4040352702566734 -2.3646430105226282 -6.1568289359069306 0.99999999999999978 
	1.4027483798137732 -2.3662659057918143 -6.1469017869642153 1.0000000000000002 
	1.4028145424202902 -2.3684011179212336 -6.1417322834645667 1 
	0.001 
	spline forward { ref 1 } I I I I 
	cone 1.4566929133858268 -4.4550909232646241 -6.1417322834645667 0 -1 0 -0.017455064928217585 0 0 1 I I -0.017452406437283512 0.99984769515639127 0.017455064928217585 forward I I I I 
	nurbs 3 open 7 
	0 3 0.18110496202831117 1 0.35806819635788711 1 0.53056794009544306 1 0.69654376122577721 1 
	0.85296874850609816 1 1 3 
	0.22213915921490981 0.55745601023497904 1 
	0.22209841422700272 0.56049464349813394 1 
	0.22196601942112304 0.56624541980814147 1 
	0.22162805050114551 0.57402083514325419 1 
	0.2211364168176157 0.58084704315931934 1 
	0.22054209096515376 0.58612965728005495 1 
	0.21964982359844723 0.58956778106090046 1 
	0.21910704744585166 0.58912639322969607 1 
	0.21883336781245086 0.58842345947485508 1 
	
	nullbs 
	I I 
	0 
	0 
	0 
	} I I #
intcurve-curve $-1 forward { surfintcur full nurbs 3 open 7 
	0 3 0.16119483586047356 1 0.32466454316676763 1 0.48982745165690483 1 0.65734862885610879 1 
	0.82732538620516816 1 1 3 
	1.40973656660266 -2.7649636177363783 -4.8818897637795269 1 
	1.4098702583356635 -2.7662791859931604 -4.8772724090712769 1.0000000000000002 
	1.411093693211787 -2.7702661561554516 -4.8686459821810555 1 
	1.4164234984723045 -2.7813825098618001 -4.857361316402744 1 
	1.4236046229127348 -2.7946960476147984 -4.8486730374855762 1.0000000000000002 
	1.4327673942216157 -2.8105040721140084 -4.841865608241795 0.99999999999999967 
	1.4437038787996874 -2.8283043140988595 -4.8373141356250811 1 
	1.4521534470077415 -2.8412372627565303 -4.8363669900792789 1 
	1.4566929133858268 -2.8480214267214849 -4.8363831964449915 1 
	0.001 
	spline forward { ref 1 } I I I I 
	cone 1.4566929133858268 -4.4550909232646241 -4.8818897637795269 0 -1 0 0 0 0.017455064928217585 1 I I -0.017452406437283512 0.99984769515639127 0.017455064928217585 forward I I I I 
	nurbs 3 open 7 
	0 3 0.15247638908493677 1 0.31286829192306842 1 0.47829815742146198 1 0.64823294090233641 1 
	0.82220249175507343 1 1 3 
	0.15813222800514898 0.44754051186275878 1 
	0.15792223429769098 0.44701541569058567 0.99999999999999978 
	0.1575142064390781 0.44534663737581281 1.0000000000000002 
	0.15694871538375851 0.44043360220173439 0.99999999999999978 
	0.1564682662734824 0.43440647791306713 1.0000000000000002 
	0.1560429324671945 0.42709079298416958 1.0000000000000002 
	0.15569315415175908 0.41871255378118727 0.99999999999999978 
	0.15553712581957768 0.4125167178009248 1.0000000000000002 
	0.15547691329604008 0.40924005250135415 1 
	
	nullbs 
	I I 
	0 
	0 
	0 
	} I I #
straight-curve $-1 1.4028145424202907 -2.3684011179212336 -6.1417322834645667 -0.017452406437283567 0.99984769515639116 0 I I #
point $-1 1.40973656660266 -2.7649636177363783 -4.8818897637795269 #
intcurve-curve $-1 forward { surfintcur full nurbs 3 open 4 
	0 3 0.33637021052547345 1 0.67024346617169228 1 1 3 
	1.4028145424202905 -2.3684011179212332 -6.1417322834645667 1 
	1.4038102330071434 -2.4254441934381337 -5.9986547106388208 1 
	1.405646676638403 -2.5306539786100637 -5.7147213328923883 1.0000000000000002 
	1.4079126578761441 -2.6604719567762545 -5.2889784285609807 1 
	1.4091748243753512 -2.7327814270874544 -5.0160465030916104 0.99999999999999978 
	1.4097365666026602 -2.7649636177363788 -4.8818897637795269 1 
	0.001 
	plane 1.3779527559055118 -0.94407032241742561 -3.5730021645064722 0.99984769515639127 0.017452406437283512 0 0 0 -1 forward_v I I I I 
	spline forward { ref 1 } I I I I 
	nullbs 
	nurbs 3 open 4 
	0 3 0.3467067356119331 1 0.67998200337704373 1 1 3 
	0.21883336781245086 0.58842345947485508 1 
	0.21152604960563834 0.56889698949288126 0.99999999999999989 
	0.19739090814917581 0.53280458696234312 1.0000000000000002 
	0.17684142952449103 0.48574569595672157 0.99999999999999978 
	0.16419277342538771 0.4594248830846388 1.0000000000000002 
	0.15813222800514898 0.44754051186275878 1 
	
	I I 
	0 
	0 
	1 0.78313081419317576 
	} I I #
point $-1 1.4028145424202905 -2.3684011179212332 -6.1417322834645667 #
End-of-ACIS-data 