600 0 1 0           
116 GICL Pro/E ACIS Translator - Source: f:/data5/repository/PTC/V20/prod_appl/assoc_demo/mold/core_pin1_new.prt.2 - 6 0 13 ACIS 6.0.3 NT 24 Thu Apr 04 13:16:17 2002 
1 9.9999999999999995e-007 1e-010 
body $-1 $1 $-1 $2 #
lump $-1 $-1 $3 $0 #
transform $-1 1 0 0 0 1 0 0 0 1 0 0 0 25.399999999999999 no_rotate no_reflect no_shear #
shell $-1 $-1 $-1 $4 $-1 $1 #
face $-1 $5 $6 $3 $-1 $7 forward single #
face $-1 $8 $9 $3 $-1 $10 forward single #
loop $-1 $-1 $11 $4 #
plane-surface $-1 0 3.4309296775825739 0 0 1 0 0 0 1 forward_v I I I I #
face $-1 $12 $13 $3 $-1 $14 forward single #
loop $-1 $-1 $15 $5 #
cone-surface $-1 4.3307086614173222 3.7047977878187948 -7.4015748031496065 0 -1 0 0.29527559055118108 0 0 1 I I 0 1 0.29527559055118108 forward I I I I #
coedge $-1 $16 $16 $17 $18 reversed $6 $-1 #
face $-1 $19 $20 $3 $-1 $21 forward single #
loop $-1 $-1 $22 $8 #
cone-surface $-1 4.3307086614173222 3.7047977878187948 -7.4015748031496065 0 -1 0 0.29527559055118108 0 0 1 I I 0 1 0.29527559055118108 forward I I I I #
coedge $-1 $23 $17 $24 $25 forward $9 $-1 #
coedge $-1 $11 $11 $26 $27 reversed $6 $-1 #
coedge $-1 $15 $28 $11 $18 forward $9 $-1 #
edge $-1 $29 0 $30 3.1415926535897931 $11 $31 forward 7 unknown #
face $-1 $32 $33 $3 $-1 $34 forward single #
loop $-1 $35 $36 $12 #
plane-surface $-1 4.3307086614173222 3.1553391264014716 -7.4015748031496065 0 -1 0 1 0 0 forward_v I I I I #
coedge $-1 $37 $26 $28 $38 forward $13 $-1 #
coedge $-1 $28 $15 $39 $40 forward $9 $-1 #
coedge $-1 $26 $37 $15 $25 reversed $13 $-1 #
edge $-1 $30 0 $41 0.27559055118110232 $24 $42 forward 7 unknown #
coedge $-1 $22 $24 $16 $27 forward $13 $-1 #
edge $-1 $30 0 $29 3.1415926535897931 $16 $43 forward 7 unknown #
coedge $-1 $17 $23 $22 $38 reversed $9 $-1 #
vertex $-1 $27 $44 #
vertex $-1 $27 $45 #
ellipse-curve $-1 4.3307086614173222 3.4309296775825739 -7.4015748031496065 0 -1 0 -0.29527559055118147 0 0 1 I I #
face $-1 $46 $47 $3 $-1 $48 forward single #
loop $-1 $-1 $49 $19 #
cone-surface $-1 4.3307086614173222 3.7047977878187948 -7.4015748031496065 0 -1 0 0.15610590039935257 0 0 1 I I 0 1 0.15610590039935257 forward I I I I #
loop $-1 $-1 $50 $12 #
coedge $-1 $51 $51 $52 $53 forward $20 $-1 #
coedge $-1 $24 $22 $50 $54 reversed $13 $-1 #
edge $-1 $29 0 $55 0.27559055118110232 $22 $56 forward 7 unknown #
coedge $-1 $50 $50 $23 $40 reversed $35 $-1 #
edge $-1 $41 0 $55 3.1415926535897931 $39 $57 forward 7 unknown #
vertex $-1 $25 $58 #
straight-curve $-1 4.6259842519685037 3.4309296775825739 -7.4015748031496065 0 -1 0 I I #
ellipse-curve $-1 4.3307086614173222 3.4309296775825739 -7.4015748031496065 0 -1 0 0.29527559055118147 0 0 1 I I #
point $-1 4.0354330708661408 3.4309296775825739 -7.4015748031496065 #
point $-1 4.6259842519685037 3.4309296775825739 -7.4015748031496065 #
face $-1 $59 $60 $3 $-1 $61 forward single #
loop $-1 $-1 $62 $32 #
cone-surface $-1 4.3307086614173222 3.7047977878187948 -7.4015748031496065 0 -1 0 0.15610590039935257 0 0 1 I I 0 1 0.15610590039935257 forward I I I I #
coedge $-1 $52 $63 $64 $65 reversed $33 $-1 #
coedge $-1 $39 $39 $37 $54 forward $35 $-1 #
coedge $-1 $36 $36 $66 $67 reversed $20 $-1 #
coedge $-1 $68 $49 $36 $53 reversed $33 $-1 #
edge $-1 $69 0 $70 3.141592653589782 $36 $71 forward 7 unknown #
edge $-1 $41 0 $55 3.1415926535897931 $37 $72 forward 7 unknown #
vertex $-1 $54 $73 #
straight-curve $-1 4.0354330708661408 3.4309296775825739 -7.4015748031496065 0 -1 0 I I #
ellipse-curve $-1 4.3307086614173222 3.1553391264014716 -7.4015748031496065 0 1 0 0.29527559055118147 0 0 1 I I #
point $-1 4.6259842519685037 3.1553391264014716 -7.4015748031496065 #
face $-1 $74 $75 $3 $-1 $76 forward single #
loop $-1 $-1 $77 $46 #
cone-surface $-1 4.3307086614173222 -8.9661115241118239 -7.4015748031496065 0 -1 0 0.017455064928217585 0 0 1 I I -0.017452406437283512 0.99984769515639127 0.017455064928217585 forward I I I I #
coedge $-1 $66 $78 $68 $79 reversed $47 $-1 #
coedge $-1 $49 $68 $80 $81 reversed $33 $-1 #
coedge $-1 $78 $66 $49 $65 forward $47 $-1 #
edge $-1 $70 0 $82 4.1781496062992112 $64 $83 forward 7 unknown #
coedge $-1 $64 $62 $51 $67 forward $47 $-1 #
edge $-1 $69 0 $70 3.141592653589782 $51 $84 forward 7 unknown #
coedge $-1 $63 $52 $62 $79 forward $33 $-1 #
vertex $-1 $67 $85 #
vertex $-1 $67 $86 #
ellipse-curve $-1 4.3307086614173222 3.1553391264014716 -7.4015748031496056 5.6895890381335563e-015 1 -3.2371423422849534e-029 0.15610590039935257 -8.8817841970012523e-016 -8.8817841970012523e-016 1 I I #
ellipse-curve $-1 4.3307086614173222 3.1553391264014716 -7.4015748031496065 0 -1 0 0.29527559055118147 0 0 1 I I #
point $-1 4.0354330708661408 3.1553391264014716 -7.4015748031496065 #
face $-1 $-1 $87 $3 $-1 $88 forward single #
loop $-1 $-1 $89 $59 #
cone-surface $-1 4.3307086614173222 -8.9661115241118239 -7.4015748031496065 0 -1 0 0.017455064928217585 0 0 1 I I -0.017452406437283512 0.99984769515639127 0.017455064928217585 forward I I I I #
coedge $-1 $90 $91 $92 $93 forward $60 $-1 #
coedge $-1 $62 $64 $91 $94 reversed $47 $-1 #
edge $-1 $69 0 $95 4.1781496062992112 $62 $96 forward 7 unknown #
coedge $-1 $89 $92 $63 $81 forward $75 $-1 #
edge $-1 $82 0 $95 3.1415926535897705 $80 $97 forward 7 unknown #
vertex $-1 $94 $98 #
straight-curve $-1 4.1746027610179697 3.1553391264014707 -7.4015748031496065 0 -1 0 I I #
ellipse-curve $-1 4.3307086614173222 3.1553391264014716 -7.4015748031496074 -5.6895890381335563e-015 -1 -3.2371423422849534e-029 0.15610590039935257 -8.8817841970012523e-016 8.8817841970012523e-016 1 I I #
point $-1 4.4868145618166748 3.1553391264014707 -7.4015748031496065 #
point $-1 4.1746027610179697 3.1553391264014707 -7.4015748031496065 #
loop $-1 $-1 $99 $74 #
plane-surface $-1 4.3307086614173222 -2.0464325271418353 -7.4015748031496065 0 -1 0 1 0 0 forward_v I I I I #
coedge $-1 $100 $80 $101 $102 forward $75 $-1 #
coedge $-1 $101 $77 $103 $104 reversed $60 $-1 #
coedge $-1 $77 $101 $78 $94 forward $60 $-1 #
coedge $-1 $80 $100 $77 $93 reversed $75 $-1 #
edge $-1 $82 0 $105 1.0237779735882531 $77 $106 forward 7 unknown #
edge $-1 $95 0 $82 3.1415926535897705 $91 $107 forward 7 unknown #
vertex $-1 $94 $108 #
straight-curve $-1 4.4868145618166748 3.1553391264014707 -7.4015748031496065 0 -1 0 I I #
ellipse-curve $-1 4.3307086614173222 -1.02281047989774 -7.4015748031496047 0 -1 0 -0.15610590039935168 0 -1.7763568394002505e-015 1 I I #
point $-1 4.1746027610179706 -1.02281047989774 -7.4015748031496065 #
coedge $-1 $103 $103 $100 $109 forward $87 $-1 #
coedge $-1 $92 $89 $99 $109 reversed $75 $-1 #
coedge $-1 $91 $90 $89 $102 reversed $60 $-1 #
edge $-1 $95 0 $110 1.0237779735882531 $101 $111 forward 7 unknown #
coedge $-1 $99 $99 $90 $104 forward $87 $-1 #
edge $-1 $110 0 $105 3.1415926535897931 $103 $112 forward 7 unknown #
vertex $-1 $104 $113 #
straight-curve $-1 4.1746027610179706 -1.02281047989774 -7.4015748031496065 0.017452406437282991 -0.99984769515639116 0 I I #
ellipse-curve $-1 4.3307086614173222 -1.02281047989774 -7.4015748031496083 0 -1 0 0.15610590039935168 0 1.7763568394002505e-015 1 I I #
point $-1 4.4868145618166739 -1.02281047989774 -7.4015748031496065 #
edge $-1 $105 0 $110 3.1415926535897931 $99 $114 forward 7 unknown #
vertex $-1 $104 $115 #
straight-curve $-1 4.4868145618166739 -1.02281047989774 -7.4015748031496065 -0.017452406437282991 -0.99984769515639116 0 I I #
ellipse-curve $-1 4.3307086614173222 -2.0464325271418353 -7.4015748031496065 0 -1 0 0.13823851110275243 0 0 1 I I #
point $-1 4.1924701503145698 -2.0464325271418353 -7.4015748031496065 #
ellipse-curve $-1 4.3307086614173222 -2.0464325271418353 -7.4015748031496065 0 -1 0 -0.13823851110275243 0 0 1 I I #
point $-1 4.4689471725200747 -2.0464325271418353 -7.4015748031496065 #
End-of-ACIS-data 