600 0 1 0           
116 GICL Pro/E ACIS Translator - Source: f:/data5/repository/PTC/V20/prod_appl/assoc_demo/mold/core_ins2_new.prt.2 - 6 0 13 ACIS 6.0.3 NT 24 Thu Apr 04 13:16:40 2002 
1 9.9999999999999995e-007 1e-010 
body $-1 $1 $-1 $2 #
lump $-1 $-1 $3 $0 #
transform $-1 1 0 0 0 1 0 0 0 1 0 0 0 25.399999999999999 no_rotate no_reflect no_shear #
shell $-1 $-1 $-1 $4 $-1 $1 #
face $-1 $5 $6 $3 $-1 $7 forward single #
face $-1 $8 $9 $3 $-1 $10 forward single #
loop $-1 $-1 $11 $4 #
plane-surface $-1 3.1199112213202982 -0.94407032241742561 4.8031496062992121 0 -0.017452406437283512 -0.99984769515639127 -1 0 0 forward_v I I I I #
face $-1 $12 $13 $3 $-1 $14 forward single #
loop $-1 $-1 $15 $5 #
spline-surface $-1 forward { exactsur full nurbs 3 3 both open open none none 19 2 
	0 3 0.056585999999999997 2 0.113853 2 0.17021800000000001 2 0.22658200000000001 2 
	0.23055600000000001 2 0.29663400000000001 2 0.36271100000000001 2 0.41804599999999997 2 0.47338000000000002 2 
	0.47367700000000001 2 0.560199 2 0.64672099999999999 2 0.72949199999999992 2 0.79614999999999991 2 
	0.86280799999999991 2 0.87366899999999992 2 0.93089299999999997 2 1 3 
	0 3 1 3 
	1.9111025069883556 -3.8545719552870952 0 1 
	1.9111025150886594 -3.8545719550802087 0.89687259825624532 1 
	1.9247455948118737 -3.828271531951589 1.6715676710680665 1 
	1.9749199282695951 -3.7665764181761769 3.0218903161097521 1.0000000000000002 
	2.0117246601104428 -3.7310760892759096 3.5950099513189033 1 
	2.1034295730591221 -3.6667362206530836 4.5578306952507655 1 
	2.1580356059209573 -3.6378005754702523 4.9502786054967132 1 
	2.2816942156765148 -3.5888973665283261 5.5975457091976253 1 
	2.3507465362495976 -3.5689296436710665 5.8523673442698039 1 
	2.4305143474427866 -3.5517947685569284 6.0678970790427931 1 
	2.4357951907930819 -3.5506859185668196 6.0818264751164088 1 
	2.5293513198721298 -3.5314791029260295 6.3227752846079603 1.0000000000000007 
	2.624934754506187 -3.5186870982062257 6.4780215410347983 1 
	2.8255743312074002 -3.5004243493329161 6.6902813168780115 0.99999999999999978 
	2.9306303298962217 -3.4949534943850953 6.7472963228767231 1 
	3.1280067581780031 -3.4886297076795123 6.8004247080875482 0.99999999999999978 
	3.2196211284386012 -3.4871706353257061 6.8049319264881536 1 
	3.403591667444172 -3.4854253789394547 6.7973630750526981 1 
	3.4959478227536325 -3.4851391737113468 6.7852873049041182 1 
	3.5879687241341833 -3.4846874831184094 6.7755278106112469 1.0000000000000002 
	3.5884599769078114 -3.4846850669572649 6.7754757753420431 1 
	3.7320558459026167 -3.4839775790959044 6.760283553543692 1.0000000000000138 
	3.8731062660974014 -3.4829252962173514 6.7505784705235428 1 
	4.1434868370078668 -3.4850885731060237 6.6714165324878856 1 
	4.2728169877234743 -3.4883041328732425 6.6019596774722462 1 
	4.5077574014926949 -3.5028775054847725 6.3458254539823091 1 
	4.6141529207630985 -3.5138762825007177 6.1643605060930966 1 
	4.7861602591401349 -3.5431881963961227 5.690567743149324 0.99999999999999978 
	4.8556794332907307 -3.5596606369727617 5.426698405272961 1 
	4.9777866738726706 -3.5996093743259365 4.7706593084878763 1 
	5.0303747403040155 -3.6230856711024728 4.3784895495791538 1 
	5.0804030658369319 -3.6524127994086673 3.8356159562319228 0.99999999999999978 
	5.0871583717074413 -3.6565679963093705 3.7575736067063397 1 
	5.1278869149282826 -3.6827947900010187 3.2556610869421649 0.99999999999999956 
	5.1549496852738175 -3.7056299077160348 2.7776469165218662 1 
	5.197592196606009 -3.7497267477333973 1.5853096771214328 1 
	5.2096204065892948 -3.7696770536187936 0.84252804195568387 1 
	5.2096203957273781 -3.769677053853318 0 1 
	1.2311407536820207 -3.1075470521809949 0 1 
	1.2311407534080248 -3.1075470520730777 0.76677866515845516 1 
	1.2422400605879291 -3.0892261172766005 1.4656206001904812 1 
	1.2852352769088815 -3.045175438991329 2.7443933573058188 1.0000000000000002 
	1.3173798609786456 -3.0193591856570059 3.3227918930304114 1 
	1.4008295304827214 -2.9711042413548703 4.3487953500678476 1 
	1.4518248483908585 -2.9486187558202928 4.7983168797890041 1 
	1.5722035667610141 -2.9087988684744088 5.5826535222392408 1 
	1.6415866409746998 -2.891464375282196 5.9174706698914461 1 
	1.7254352374992776 -2.8754220154367776 6.2153465673979236 1 
	1.7310021564788669 -2.8743771042883015 6.2346841964137472 1 
	1.8299465601665064 -2.8561593463717267 6.5706634903231302 1.0000000000000007 
	1.9360308000681379 -2.842135397101897 6.81078792686555 1 
	2.1919688063695548 -2.8185807382673178 7.1695066840718384 0.99999999999999978 
	2.3418219103532318 -2.8090499607067558 7.2881028438725046 1 
	2.6764098892303183 -2.7940274096289621 7.4216556082267884 0.99999999999999978 
	2.851513740674402 -2.7881309061532438 7.4503263809801243 1 
	3.2200126259687898 -2.7773530764756864 7.4749437890422454 1 
	3.4134073292083267 -2.7724717319297456 7.470891015723927 1 
	3.6025112158290837 -2.7676877918801277 7.4664492879594526 1.0000000000000002 
	3.6035206415002468 -2.7676622551622159 7.4664255641632034 1 
	3.8985500231213424 -2.7601985240359714 7.4594881188626943 1.0000000000000138 
	4.1792748900517038 -2.7530967565284139 7.4518461660245574 1 
	4.6963498440042217 -2.7428774466800951 7.3501789024363759 1 
	4.9326999310262707 -2.7397599043393894 7.2561535916863775 1 
	5.3337196786363732 -2.7402984995613489 6.9044891639904504 1 
	5.5010526918153966 -2.7436668362637975 6.6541199386156258 1 
	5.7390547145961417 -2.7569975170051988 6.0440349181861457 0.99999999999999978 
	5.822199973844989 -2.7655485606906973 5.7150936380046131 1 
	5.9351905734382688 -2.7880010772931403 4.9370023543848136 1 
	5.9650359137827031 -2.8019025502100847 4.4878523509465449 1 
	5.9645215448877247 -2.8198164754490431 3.8931174815585492 0.99999999999999978 
	5.9636453955401052 -2.8223662429531275 3.8081377766250037 1 
	5.9529876355486602 -2.8385261887866653 3.2650281343095036 0.99999999999999956 
	5.921156214967966 -2.8528879499300657 2.7625360257593505 1 
	5.8488562414416787 -2.8809401502167886 1.546180513953882 1 
	5.8079667467334755 -2.8938718808195083 0.81009255818450321 1 
	5.8079667496414329 -2.8938718809568584 0 1 
	0.93658933367901809 -2.7855579211231642 0 1 
	0.93658932816339446 -2.7855579210842087 0.63668474623265336 1 
	0.9431300716850205 -2.7703460336213426 1.2596449585354135 1 
	0.9710110284117649 -2.7264838887249732 2.4667661571771426 1.0000000000000002 
	0.99252840262816722 -2.6976741067072894 3.0503699764040499 1 
	1.0521386496892451 -2.6348057766982258 4.1393791540489069 1 
	1.0899651072946734 -2.6008370482081826 4.6458714147428628 1 
	1.1844615166864285 -2.5309272594570889 5.5670547818935603 1 
	1.2411311341488789 -2.4949862341988687 5.9817475168816294 1 
	1.3133213247974824 -2.45665607120119 6.3618391150007882 1 
	1.318129456059046 -2.4541322311256502 6.3865763747568094 1 
	1.4038989269136812 -2.4096603744820921 6.8174343873284711 1.0000000000000007 
	1.5007028175618964 -2.3679832516982993 7.1422918126342436 1 
	1.7681083046253061 -2.2882396750787768 7.6471962878722115 0.99999999999999978 
	1.9387087841911621 -2.2501731666100593 7.8272455292366274 1 
	2.362647584256965 -2.1863824323557224 8.0410225386887166 0.99999999999999978 
	2.5980267014563245 -2.1596577815409894 8.0937790832234064 1 
	3.1019841043317524 -2.1128010961330879 8.1504664912192482 1 
	3.3705617899640505 -2.0926689424085705 8.1543982370284258 1 
	3.62950696602545 -2.0767239636355024 8.1552616029520753 1.0000000000000002 
	3.6308890922481187 -2.0766389604613265 8.1552661237170145 1 
	4.034817085075594 -2.0518269375674323 8.1565641134427889 1.0000000000000138 
	4.4097946307106142 -2.0375785874224728 8.1510293539862086 1 
	5.0809407004647635 -2.0260507897225577 8.0270309613764805 1 
	5.3771092245837959 -2.0287713421675018 7.9085673282229108 1 
	5.8543026216074212 -2.0465438947555641 7.4616717990547787 1 
	6.0397626857656892 -2.0610561747112515 7.1425653373469702 1 
	6.2719283746140011 -2.0941293283442421 6.3964950900027793 0.99999999999999978 
	6.3386170310312249 -2.1113521025685666 6.0026207928497612 1 
	6.3882051139230001 -2.1482260986750448 5.1027405319102179 1 
	6.3711045403975488 -2.1678773205571993 4.5967345681236891 1 
	6.2964588023117081 -2.1899598661204718 3.9502636469124139 0.99999999999999978 
	6.2847503002017895 -2.1930362072216711 3.8583636906055463 1 
	6.2033194398978999 -2.2121387826143284 3.2741611316200676 0.99999999999999956 
	6.0993058220606446 -2.2273869586812105 2.7472653156089519 1 
	5.8907330127662565 -2.2547779032667732 1.5070129627849327 1 
	5.7905457717399802 -2.2656182831087492 0.7776570732021244 1 
	5.7905457875378348 -2.2656182831679241 0 1 
	0.69819423288592208 -0.98425196850393704 0 1 
	0.69819422526134456 -0.98425196850393704 0.50659081313542664 1 
	0.69915833760305923 -0.98425196850393715 1.0506094782700783 1 
	0.70832801963547665 -0.98425196850393692 2.1751983941874058 1.0000000000000002 
	0.71662059902635478 -0.98425196850393715 2.7561297417875763 1 
	0.74618381834134262 -0.98425196850393692 3.8892054107700251 1 
	0.76724798638854064 -0.98425196850393681 4.441659028727833 1 
	0.82813774678454799 -0.98425196850393726 5.4758477406793959 1 
	0.86796300627080036 -0.98425196850393759 5.9575840891523937 1 
	0.92404770521492352 -0.98425196850393704 6.405932102137843 1 
	0.92780403764435782 -0.98425196850393704 6.4351485682472331 1 
	0.99523297485830742 -0.98425196850393637 6.9446465721131689 1.0000000000000007 
	1.0778757350792032 -0.98425196850393692 7.3387018734869782 1 
	1.3477618174535144 -0.98425196850393704 7.9605538085981804 0.99999999999999978 
	1.5350035566018061 -0.98425196850393659 8.1883529583424668 1 
	2.0421868111950232 -0.98425196850393759 8.460940945411215 0.99999999999999978 
	2.3356071151284841 -0.98425196850393781 8.5294610370354125 1 
	2.972117399301005 -0.98425196850393615 8.6057796530631041 1 
	3.3152064818265243 -0.98425196850393382 8.6135792747888953 1 
	3.6443366795321079 -0.98425196850393704 8.6183921539173642 1.0000000000000002 
	3.6460933706040359 -0.98425196850393704 8.618417761890278 1 
	4.1594734914020703 -0.98425196850392793 8.6258822933093562 1.0000000000000138 
	4.6317362954694774 -0.98425196850393848 8.62716998499236 1 
	5.4663193660964078 -0.98425196850393559 8.4994802424271541 1 
	5.8286396326559213 -0.9842519685039367 8.3705028081791344 1 
	6.3960027198153417 -0.98425196850393737 7.8603804853581405 1 
	6.6071830319592939 -0.98425196850393704 7.4904102589923989 1 
	6.8472622252395983 -0.98425196850393692 6.6412070660799971 0.99999999999999978 
	6.9036428201339692 -0.98425196850393704 6.1972647265891618 1 
	6.9013957458101398 -0.98425196850393704 5.2037587771875691 1 
	6.8427680765919394 -0.98425196850393704 4.6541951672768107 1 
	6.6994267041199169 -0.98425196850393715 3.9693870580159212 0.99999999999999978 
	6.6776276672565462 -0.98425196850393704 3.8723969637416955 1 
	6.5299397550743192 -0.98425196850393692 3.258251400257969 0.99999999999999956 
	6.356945172791618 -0.98425196850393715 2.714894449231136 1 
	6.0173240117893645 -0.98425196850393692 1.4637381661406528 1 
	5.8594796162713543 -0.98425196850393704 0.74522158943128813 1 
	5.8594796440791255 -0.98425196850393704 0 1 
	0 
	0 
	0 
	17 0.056585999999999997 0.113853 0.17021800000000001 0.22658200000000001 0.23055600000000001 0.29663400000000001 0.36271100000000001 0.41804599999999997 0.47338000000000002 0.47367700000000001 0.560199 0.64672099999999999 0.72949199999999992 0.79614999999999991 0.86280799999999991 0.87366899999999992 0.93089299999999997 
	0 
	0 
	0 
	F 1 F 0 F 1 F 0 } I I I I #
coedge $-1 $16 $17 $18 $19 forward $6 $-1 #
face $-1 $20 $21 $3 $-1 $22 forward single #
loop $-1 $-1 $23 $8 #
cone-surface $-1 1.8110236220472438 -4.4550909232646241 4.8818897637795269 0 -1 0 0.017455064928217585 0 0 1 I I -0.017452406437283512 0.99984769515639127 0.017455064928217585 forward I I I I #
coedge $-1 $24 $18 $25 $26 reversed $9 $27 #
coedge $-1 $28 $11 $29 $30 reversed $6 $-1 #
coedge $-1 $11 $28 $31 $32 forward $6 $-1 #
coedge $-1 $15 $33 $11 $19 reversed $9 $34 #
edge $-1 $35 0 $36 1 $11 $37 forward 7 unknown #
face $-1 $38 $39 $3 $-1 $40 reversed single #
loop $-1 $-1 $41 $12 #
cone-surface $-1 1.8110236220472438 3.4309296775825739 4.8818897637795269 0 1 0 0 0 -0.061559975464352761 1 I I 0 1 0.061559975464352761 forward I I I I #
coedge $-1 $42 $31 $43 $44 forward $13 $-1 #
coedge $-1 $45 $15 $46 $47 reversed $9 $48 #
coedge $-1 $31 $42 $15 $26 forward $13 $-1 #
edge $-1 $49 0 $35 0.99999999999999989 $25 $50 forward 7 unknown #
pcurve $-1 0 forward { exppc nurbs 3 open 5 
	-0.99999999999999989 3 -0.71853428266071928 1 -0.45250976892140904 1 -0.20922600234372224 1 0 3 
	0.15130726727607166 0.17985595348916208 1 
	0.15125072958873848 0.17710607885666824 1.0000000000000002 
	0.15123826118954373 0.17213817967147613 0.99999999999999978 
	0.15143356592678822 0.16591062880018437 1 
	0.15194805074582746 0.16136986377524715 1 
	0.15243449141381737 0.16108014045284591 1 
	0.15269608595309625 0.16135024265693934 1 
	0.001 
	spline forward { ref 0 } I I I I 
	} 0 0 #
coedge $-1 $17 $16 $51 $52 reversed $6 $-1 #
coedge $-1 $53 $54 $16 $30 forward $55 $-1 #
edge $-1 $56 0 $36 0.9198392317704629 $16 $57 forward 7 unknown #
coedge $-1 $23 $25 $17 $32 reversed $13 $-1 #
edge $-1 $58 0 $35 1.3628136222335281 $17 $59 forward 7 unknown #
coedge $-1 $18 $60 $53 $61 reversed $9 $62 #
pcurve $-1 0 forward { exppc nurbs 3 open 4 
	-1 3 -0.67032986223485236 1 -0.33639331310592457 1 0 3 
	0.15547691329603996 0.40924005250135098 1 
	0.15507008440815021 0.38535811167672812 1 
	0.15421697645080604 0.33639526420229637 1 
	0.1528207514488891 0.25912422584894418 1 
	0.15182398081062995 0.20656067472185077 1 
	0.15130726727607166 0.17985595348916208 1 
	0.001 
	spline forward { ref 0 } I I I I 
	} 0 0 #
vertex $-1 $32 $63 #
vertex $-1 $30 $64 #
intcurve-curve $-1 forward { surfintcur full nurbs 3 open 4 
	0 3 0.3374660540563208 1 0.67072887229268341 1 1 3 
	1.8110236220472438 -3.2909283500392887 4.8441141655486604 1 
	1.7653836298387489 -3.2412603003640545 4.8432472065167218 0.99999999999999989 
	1.6785424228683923 -3.1424426506864407 4.841522338025543 1 
	1.5598210267130446 -2.995104927400678 4.8389505484992164 1.0000000000000002 
	1.4896144154803941 -2.8969152167794538 4.8372366407250391 1 
	1.4566929133858268 -2.8480214267214854 4.8363831964449906 1 
	0.001 
	plane 3.1199112213202982 -0.94407032241742561 4.8031496062992121 0 -0.017452406437283512 -0.99984769515639127 -1 0 0 forward_v I I I I 
	spline forward { ref 0 } I I I I 
	nullbs 
	nurbs 3 open 4 
	0 3 0.33639331310592457 1 0.67032986223485236 1 1 3 
	0.15130726727607166 0.17985595348916208 1 
	0.15182398081062995 0.20656067472185077 1 
	0.1528207514488891 0.25912422584894418 1 
	0.15421697645080604 0.33639526420229637 1 
	0.15507008440815021 0.38535811167672812 1 
	0.15547691329603996 0.40924005250135098 1 
	
	I I 
	0 
	0 
	0 
	} I I #
face $-1 $65 $66 $3 $-1 $67 forward single #
loop $-1 $-1 $68 $20 #
plane-surface $-1 1.8725835975115965 3.4309296775825739 6.1417322834645667 -1 0 0 0 1 0 forward_v I I I I #
coedge $-1 $43 $69 $70 $71 reversed $21 $-1 #
coedge $-1 $25 $23 $72 $73 forward $13 $-1 #
coedge $-1 $74 $41 $23 $44 reversed $21 $-1 #
edge $-1 $58 0 $75 1.570796326794911 $23 $76 forward 7 unknown #
coedge $-1 $77 $24 $78 $79 reversed $9 $80 #
coedge $-1 $72 $81 $24 $47 forward $82 $-1 #
edge $-1 $83 0 $49 1 $46 $84 forward 7 unknown #
pcurve $-1 0 forward { exppc nurbs 3 open 4 
	-1 3 -0.6836151506486472 1 -0.35194995412679653 1 0 3 
	0.15269608595309625 0.16135024265693934 1 
	0.15948828814268648 0.17195649842284969 1.0000000000000002 
	0.17387888060743609 0.19620745134367326 0.99999999999999989 
	0.19769387064922325 0.24097267107526421 1.0000000000000004 
	0.21492630539298138 0.27823563506720927 1 
	0.2240685860423427 0.2990672630091753 1 
	0.001 
	spline forward { ref 0 } I I I I 
	} 0 0 #
vertex $-1 $73 $85 #
intcurve-curve $-1 forward { surfintcur full nurbs 3 open 5 
	0 3 0.24259735881462577 1 0.49114109574256859 1 0.74282987001871292 1 0.99999999999999989 3 
	1.8482310488108549 -3.3234788715980654 4.8818897637795269 1 
	1.8481676641230613 -3.3245292244444742 4.8766844931764828 1.0000000000000002 
	1.8463290249881703 -3.3245966530265441 4.8670498633520562 0.99999999999999978 
	1.8367955330837915 -3.3171515655661912 4.8534336494670614 1.0000000000000002 
	1.824746819690614 -3.3055625573358518 4.8461392174161269 0.99999999999999967 
	1.8158150912756719 -3.2961763822309642 4.8442044751760998 1.0000000000000002 
	1.8110236220472438 -3.2909283500392883 4.8441141655486604 1 
	0.001 
	cone 1.8110236220472438 -4.4550909232646241 4.8818897637795269 0 -1 0 0.017455064928217585 0 0 1 I I -0.017452406437283512 0.99984769515639127 0.017455064928217585 forward I I I I 
	spline forward { ref 0 } I I I I 
	nullbs 
	nurbs 3 open 5 
	0 3 0.20922600234372224 1 0.45250976892140904 1 0.71853428266071928 1 0.99999999999999989 3 
	0.15269608595309625 0.16135024265693934 1 
	0.15243449141381737 0.16108014045284591 1 
	0.15194805074582746 0.16136986377524715 1 
	0.15143356592678822 0.16591062880018437 1 
	0.15123826118954373 0.17213817967147613 0.99999999999999978 
	0.15125072958873848 0.17710607885666824 1.0000000000000002 
	0.15130726727607166 0.17985595348916208 1 
	
	I I 
	0 
	0 
	0 
	} I I #
coedge $-1 $86 $87 $28 $52 forward $88 $-1 #
edge $-1 $58 0 $56 0.35433070866141692 $28 $89 forward 7 unknown #
coedge $-1 $90 $29 $33 $61 forward $55 $-1 #
coedge $-1 $29 $90 $91 $92 forward $55 $-1 #
loop $-1 $-1 $54 $93 #
vertex $-1 $52 $94 #
straight-curve $-1 1.4566929133858268 -1.9283222909213626 4.8203297883151741 0 -0.99984769515639116 0.017452406437283217 I I #
vertex $-1 $32 $95 #
straight-curve $-1 1.8110236220472438 -1.9283222909213626 4.8203297883151741 0 -0.99984769515639116 0.017452406437283637 I I #
coedge $-1 $33 $96 $97 $98 reversed $9 $99 #
edge $-1 $36 0 $100 1 $53 $101 forward 7 unknown #
pcurve $-1 0 forward { exppc nurbs 3 open 7 
	-1 3 -0.84752361091560613 1 -0.68713170807812829 1 -0.52170184258017294 1 -0.35176705909930472 1 
	-0.17779750824606555 1 0 3 
	0.15813222800514895 0.44754051186275873 1 
	0.15792223429770091 0.44701541569063052 1 
	0.15751420643910419 0.44534663737595304 0.99999999999999978 
	0.15694871538379015 0.44043360220206546 0.99999999999999978 
	0.15646826627351312 0.43440647791351794 0.99999999999999989 
	0.15604293246721615 0.42709079298461894 1 
	0.15569315415176824 0.41871255378150263 1 
	0.15553712581958054 0.41251671780104782 1 
	0.15547691329603996 0.40924005250135098 1 
	0.001 
	spline forward { ref 0 } I I I I 
	} 0 0 #
point $-1 1.8110236220472438 -3.2909283500392883 4.8441141655486604 #
point $-1 1.4566929133858268 -2.8480214267214854 4.8363831964449906 #
face $-1 $102 $103 $3 $-1 $104 reversed single #
loop $-1 $-1 $105 $38 #
cone-surface $-1 1.8110236220472438 3.4309296775825739 6.1417322834645667 0 1 0 0.061559975464352761 0 0 1 I I 0 1 0.061559975464352761 forward I I I I #
coedge $-1 $106 $107 $108 $109 reversed $39 $-1 #
coedge $-1 $41 $74 $110 $111 forward $21 $-1 #
coedge $-1 $107 $106 $41 $71 forward $39 $-1 #
edge $-1 $75 4.4408920985006262e-016 $112 5.359251968503937 $41 $113 forward 7 unknown #
coedge $-1 $114 $46 $42 $73 reversed $82 $-1 #
edge $-1 $75 -7.750425384715378e-018 $49 1.3953691021495822 $72 $115 forward 7 unknown #
coedge $-1 $69 $43 $87 $116 forward $21 $-1 #
vertex $-1 $73 $117 #
ellipse-curve $-1 1.8110236220472447 -1.9283222909213626 4.8818897637795269 0 -1 0 -8.8817841970012523e-016 0 -0.061559975464352767 1 I I #
coedge $-1 $96 $45 $118 $119 reversed $9 $120 #
coedge $-1 $121 $122 $45 $79 forward $123 $-1 #
edge $-1 $124 0 $83 0.99999999999999989 $78 $125 forward 7 unknown #
pcurve $-1 0 forward { exppc nurbs 3 open 6 
	-0.99999999999999989 3 -0.81621456410808035 1 -0.62168692492062028 1 -0.42005687328577346 1 -0.21220993295264168 1 
	0 3 
	0.2240685860423427 0.2990672630091753 1 
	0.22437294618199388 0.29982393116234801 1 
	0.22493925107151352 0.30193749752577154 1 
	0.22564666275727852 0.30740087469226873 1 
	0.22611416349358412 0.31400997154517046 0.99999999999999989 
	0.22636587854325382 0.32192871474934354 0.99999999999999978 
	0.2263325418993507 0.32762729334806978 1.0000000000000002 
	0.22626753277320583 0.33063097071975833 1 
	0.001 
	spline forward { ref 0 } I I I I 
	} 0 0 #
coedge $-1 $46 $114 $121 $126 forward $82 $-1 #
loop $-1 $-1 $114 $127 #
vertex $-1 $47 $128 #
intcurve-curve $-1 forward { surfintcur full nurbs 3 open 4 
	0 3 0.33647902839770949 1 0.66939028131649225 1 1 3 
	1.8541764831840342 -2.9828651644804194 6.1417322834645667 1 
	1.8533097793989279 -3.0325185910743828 5.9969678152443375 1 
	1.8517201703685771 -3.1235872314310904 5.7113053683133979 1 
	1.8498177185166167 -3.2325786250342952 5.2927864434334753 1 
	1.84872302277449 -3.2952937020980788 5.0179256621232895 1 
	1.8482310488108546 -3.3234788715980663 4.8818897637795269 1 
	0.001 
	plane 1.8897637795275588 -0.94407032241742561 7.4506198827376213 0.99984769515639127 -0.017452406437283512 0 0 0 -1 forward_v I I I I 
	spline forward { ref 0 } I I I I 
	nullbs 
	nurbs 3 open 4 
	0 3 0.35194995412679653 1 0.6836151506486472 1 1 3 
	0.2240685860423427 0.2990672630091753 1 
	0.21492630539298138 0.27823563506720927 1 
	0.19769387064922325 0.24097267107526421 1.0000000000000004 
	0.17387888060743609 0.19620745134367326 0.99999999999999989 
	0.15948828814268648 0.17195649842284969 1.0000000000000002 
	0.15269608595309625 0.16135024265693934 1 
	
	I I 
	0 
	0 
	1 0.72290008285746898 
	} I I #
point $-1 1.8482310488108549 -3.3234788715980654 4.8818897637795269 #
coedge $-1 $129 $51 $130 $131 forward $88 $-1 #
coedge $-1 $51 $129 $74 $116 reversed $88 $-1 #
loop $-1 $-1 $87 $132 #
straight-curve $-1 1.8110236220472438 -1.9283222909213631 4.8203297883151741 -1 0 0 I I #
coedge $-1 $54 $53 $133 $134 reversed $55 $-1 #
coedge $-1 $135 $130 $54 $92 reversed $136 $-1 #
edge $-1 $137 0 $56 1.570796326794911 $54 $138 forward 7 unknown #
face $-1 $139 $55 $3 $-1 $140 forward single #
point $-1 1.4566929133858268 -1.9283222909213626 4.8203297883151741 #
point $-1 1.8110236220472438 -1.9283222909213626 4.8203297883151741 #
coedge $-1 $60 $77 $141 $142 reversed $9 $143 #
coedge $-1 $144 $133 $60 $98 forward $145 $-1 #
edge $-1 $100 0 $146 1 $97 $147 forward 7 unknown #
pcurve $-1 0 forward { exppc nurbs 3 open 4 
	-1 3 -0.65329326439360591 1 -0.32001799660836194 1 0 3 
	0.2188333678124508 0.58842345947485553 1 
	0.21152604960690974 0.56889698949586753 1 
	0.19739090815157578 0.53280458696784216 0.99999999999999978 
	0.17684142951960649 0.48574569594597378 1.0000000000000002 
	0.16419277342309266 0.45942488307965756 1 
	0.15813222800514895 0.44754051186275873 1 
	0.001 
	spline forward { ref 0 } I I I I 
	} 0 0 #
vertex $-1 $134 $148 #
intcurve-curve $-1 forward { surfintcur full nurbs 3 open 7 
	0 3 0.17267461379579857 1 0.34265137114533556 1 0.51017254834462356 1 0.67533545683448137 1 
	0.83880516414026651 1 1 3 
	1.4566929133858268 -2.8480214267214858 4.8363831964449915 1 
	1.4521534470075701 -2.8412372627562705 4.8363669900792932 1 
	1.4437038787992575 -2.8283043140981943 4.8373141356251583 0.99999999999999978 
	1.4327673942210357 -2.8105040721130421 4.8418656082421068 1.0000000000000002 
	1.4236046229121821 -2.7946960476138121 4.8486730374861029 0.99999999999999989 
	1.4164234984719299 -2.7813825098610661 4.8573613164033462 1.0000000000000004 
	1.4110936932116684 -2.7702661561551363 4.8686459821815831 1 
	1.4098702583356317 -2.7662791859930591 4.877272409071491 0.99999999999999989 
	1.40973656660266 -2.7649636177363779 4.8818897637795269 1 
	0.001 
	cone 1.4566929133858268 -4.4550909232646241 4.8818897637795269 0 -1 0 0 0 -0.017455064928217585 1 I I -0.017452406437283512 0.99984769515639127 0.017455064928217585 forward I I I I 
	spline forward { ref 0 } I I I I 
	nullbs 
	nurbs 3 open 7 
	0 3 0.17779750824606555 1 0.35176705909930472 1 0.52170184258017294 1 0.68713170807812829 1 
	0.84752361091560613 1 1 3 
	0.15547691329603996 0.40924005250135098 1 
	0.15553712581958054 0.41251671780104782 1 
	0.15569315415176824 0.41871255378150263 1 
	0.15604293246721615 0.42709079298461894 1 
	0.15646826627351312 0.43440647791351794 0.99999999999999989 
	0.15694871538379015 0.44043360220206546 0.99999999999999978 
	0.15751420643910419 0.44534663737595304 0.99999999999999978 
	0.15792223429770091 0.44701541569063052 1 
	0.15813222800514895 0.44754051186275873 1 
	
	I I 
	0 
	0 
	0 
	} I I #
face $-1 $149 $150 $3 $-1 $151 forward single #
loop $-1 $-1 $152 $65 #
plane-surface $-1 1.4566929133858268 3.4309296775825739 6.2032922589289194 0 0 -1 0 1 0 forward_v I I I I #
coedge $-1 $153 $154 $155 $156 reversed $66 $-1 #
coedge $-1 $70 $68 $114 $157 forward $39 $-1 #
coedge $-1 $68 $70 $158 $159 reversed $39 $-1 #
coedge $-1 $154 $153 $68 $109 forward $66 $-1 #
edge $-1 $160 4.4408920985006262e-016 $161 5.359251968503937 $68 $162 forward 7 unknown #
coedge $-1 $163 $158 $69 $111 reversed $164 $-1 #
edge $-1 $165 0 $112 1.5707963267948966 $69 $166 forward 7 unknown #
vertex $-1 $111 $167 #
straight-curve $-1 1.8725835975115965 -1.9283222909213631 4.8818897637795269 0 1 0 I I #
coedge $-1 $81 $72 $106 $157 reversed $82 $-1 #
straight-curve $-1 1.8725835975115965 -1.9283222909213626 4.8818897637795269 -0.017452406437283505 -0.99984769515639127 0 I I #
edge $-1 $58 4.4408920985006262e-016 $165 5.359251968503937 $87 $168 forward 7 unknown #
point $-1 1.872583597511597 -1.9283222909213626 4.8818897637795269 #
coedge $-1 $169 $170 $77 $119 forward $171 $-1 #
edge $-1 $172 0 $124 1 $118 $173 forward 7 unknown #
pcurve $-1 0 forward { exppc nurbs 3 open 4 
	-1 3 -0.66267259419821589 1 -0.33002897767298345 1 0 3 
	0.22626753277320583 0.33063097071975833 1 
	0.22563222052554563 0.35757494491039188 1.0000000000000002 
	0.22448562300307232 0.41011564464195394 0.99999999999999989 
	0.2231665235568264 0.48485752909730173 1 
	0.22244919725106341 0.53354640116268792 1.0000000000000002 
	0.22213915921490973 0.55745601023498237 1 
	0.001 
	spline forward { ref 0 } I I I I 
	} 0 0 #
coedge $-1 $174 $78 $81 $126 reversed $123 $-1 #
coedge $-1 $78 $174 $169 $175 forward $123 $-1 #
loop $-1 $-1 $174 $176 #
vertex $-1 $175 $177 #
intcurve-curve $-1 forward { surfintcur full nurbs 3 open 6 
	0 3 0.20611115285000337 1 0.40924396210295755 1 0.60908510336199229 1 0.80651811718820232 1 
	0.99999999999999989 3 
	1.8110236220472438 -2.9196805000098962 6.1859880370221569 1 
	1.8161633194104607 -2.9254752320328468 6.1857661635407712 1 
	1.8255911634226625 -2.9365418959042855 6.1840468574955416 1.0000000000000002 
	1.8376038211784658 -2.9521644535936624 6.1772192601243647 0.99999999999999989 
	1.8466721471219185 -2.9654263158854723 6.1677787703865565 1 
	1.8528866579412884 -2.9766373968875102 6.1552636091951758 0.99999999999999978 
	1.8541559461309665 -2.9811819872800056 6.1463919983147761 1 
	1.8541764831840344 -2.9828651644804198 6.1417322834645667 1 
	0.001 
	cone 1.8110236220472438 -4.4550909232646241 6.1417322834645667 0 -1 0 0 0 0.017455064928217585 1 I I -0.017452406437283512 0.99984769515639127 0.017455064928217585 forward I I I I 
	spline forward { ref 0 } I I I I 
	nullbs 
	nurbs 3 open 6 
	0 3 0.21220993295264168 1 0.42005687328577346 1 0.62168692492062028 1 0.81621456410808035 1 
	0.99999999999999989 3 
	0.22626753277320583 0.33063097071975833 1 
	0.2263325418993507 0.32762729334806978 1.0000000000000002 
	0.22636587854325382 0.32192871474934354 0.99999999999999978 
	0.22611416349358412 0.31400997154517046 0.99999999999999989 
	0.22564666275727852 0.30740087469226873 1 
	0.22493925107151352 0.30193749752577154 1 
	0.22437294618199388 0.29982393116234801 1 
	0.2240685860423427 0.2990672630091753 1 
	
	I I 
	0 
	0 
	0 
	} I I #
edge $-1 $160 -7.7504253847153271e-018 $83 1.0547035100122033 $81 $178 forward 7 unknown #
face $-1 $-1 $82 $3 $-1 $179 forward single #
point $-1 1.8541764831840344 -2.9828651644804198 6.1417322834645667 #
coedge $-1 $87 $86 $163 $180 reversed $88 $-1 #
coedge $-1 $91 $181 $86 $131 reversed $136 $-1 #
edge $-1 $56 4.4408920985006262e-016 $182 5.359251968503937 $86 $183 forward 7 unknown #
face $-1 $184 $88 $3 $-1 $185 reversed single #
coedge $-1 $97 $186 $90 $134 forward $145 $-1 #
edge $-1 $137 -7.7504253847153518e-018 $100 0.83676877075178124 $133 $187 forward 7 unknown #
coedge $-1 $181 $91 $188 $189 forward $136 $-1 #
loop $-1 $-1 $130 $190 #
vertex $-1 $134 $191 #
ellipse-curve $-1 1.456692913385826 -1.9283222909213626 4.8818897637795269 0 -1 0 -0.061559975464352323 0 0 1 I I #
face $-1 $192 $145 $3 $-1 $193 forward single #
cone-surface $-1 1.4566929133858268 -4.4550909232646241 4.8818897637795269 0 -1 0 0 0 -0.017455064928217585 1 I I -0.017452406437283512 0.99984769515639127 0.017455064928217585 forward I I I I #
coedge $-1 $194 $195 $96 $142 forward $196 $-1 #
edge $-1 $146 0 $172 0.99999999999999989 $141 $197 forward 7 unknown #
pcurve $-1 0 forward { exppc nurbs 3 open 7 
	-0.99999999999999989 3 -0.81889823963630082 1 -0.64193629350939529 1 -0.46943628269361315 1 -0.30345866306991143 1 
	-0.14703131066014241 1 0 3 
	0.22213915921490973 0.55745601023498237 1 
	0.22209841990525042 0.56049432769607266 1 
	0.22196604096272729 0.5662446254953738 1 
	0.22162810983968623 0.57401971892972947 1 
	0.22113651579644594 0.58084594888346763 1 
	0.22054220457121615 0.58612892880968703 1.0000000000000002 
	0.21964993627484494 0.58956773848487076 1 
	0.21910709050903282 0.5891264020857927 1 
	0.2188333678124508 0.58842345947485553 1 
	0.001 
	spline forward { ref 0 } I I I I 
	} 0 0 #
coedge $-1 $186 $97 $195 $198 reversed $145 $-1 #
loop $-1 $-1 $97 $139 #
vertex $-1 $198 $199 #
intcurve-curve $-1 forward { surfintcur full nurbs 3 open 4 
	0 3 0.3297565338126629 1 0.66362978947978091 1 1 3 
	1.4097365666026602 -2.7649636177363783 4.8818897637795269 1 
	1.4091748243755933 -2.7327814271013344 5.0160465030422987 1 
	1.4079126578766632 -2.6604719568060022 5.2889784284576509 1 
	1.4056466766381457 -2.5306539785953035 5.7147213329404334 1.0000000000000002 
	1.4038102330070006 -2.4254441934299491 5.9986547106642876 0.99999999999999989 
	1.4028145424202905 -2.3684011179212323 6.1417322834645667 1 
	0.001 
	plane 1.3779527559055118 -0.94407032241742561 3.5730021645064722 -0.99984769515639127 -0.017452406437283512 0 0 0 1 forward_v I I I I 
	spline forward { ref 0 } I I I I 
	nullbs 
	nurbs 3 open 4 
	0 3 0.32001799660836194 1 0.65329326439360591 1 1 3 
	0.15813222800514895 0.44754051186275873 1 
	0.16419277342309266 0.45942488307965756 1 
	0.17684142951960649 0.48574569594597378 1.0000000000000002 
	0.19739090815157578 0.53280458696784216 0.99999999999999978 
	0.21152604960690974 0.56889698949586753 1 
	0.2188333678124508 0.58842345947485553 1 
	
	I I 
	0 
	0 
	1 0.21686918585406842 
	} I I #
point $-1 1.40973656660266 -2.7649636177363779 4.8818897637795269 #
face $-1 $190 $200 $3 $-1 $201 reversed single #
loop $-1 $-1 $202 $102 #
cone-surface $-1 1.4566929133858268 3.4309296775825739 6.1417322834645667 0 1 0 0 0 0.061559975464352761 1 I I 0 1 0.061559975464352761 forward I I I I #
coedge $-1 $203 $204 $205 $206 reversed $103 $-1 #
coedge $-1 $108 $105 $174 $207 reversed $66 $-1 #
coedge $-1 $105 $108 $208 $209 forward $66 $-1 #
coedge $-1 $204 $203 $105 $156 forward $103 $-1 #
edge $-1 $210 4.4408920985006262e-016 $211 5.359251968503937 $105 $212 forward 7 unknown #
edge $-1 $160 0 $75 1.2598425196850398 $114 $213 forward 7 unknown #
coedge $-1 $110 $208 $107 $159 forward $164 $-1 #
edge $-1 $161 0 $112 1.2598425196850398 $107 $214 forward 7 unknown #
vertex $-1 $126 $215 #
vertex $-1 $159 $216 #
straight-curve $-1 1.8725835975115965 -1.9283222909213631 6.1417322834645667 0 1 0 I I #
coedge $-1 $217 $110 $129 $180 forward $164 $-1 #
loop $-1 $-1 $217 $184 #
vertex $-1 $180 $218 #
ellipse-curve $-1 1.8110236220472438 3.4309296775825739 4.8818897637795269 0 -1 0 0 0 -0.061559975464352767 1 I I #
point $-1 1.8725835975115965 3.4309296775825739 4.8818897637795269 #
straight-curve $-1 1.8110236220472438 -1.9283222909213631 4.8203297883151741 0 1 0 I I #
coedge $-1 $219 $118 $122 $175 reversed $171 $-1 #
coedge $-1 $118 $219 $194 $220 forward $171 $-1 #
loop $-1 $-1 $118 $221 #
vertex $-1 $220 $222 #
intcurve-curve $-1 forward { surfintcur full nurbs 3 open 4 
	0 3 0.33233781979778354 1 0.66449626454704058 1 1 3 
	1.4566929133858268 -2.4401475863291271 6.1943583151656725 1 
	1.4904772514457385 -2.496494527526782 6.1933747756485626 0.99999999999999989 
	1.5616346020108107 -2.6069799944018062 6.1914462446506313 1 
	1.6775962744607948 -2.7640836723162407 6.1887039897521756 1 
	1.7649523009565824 -2.8680851954333986 6.1868886364135296 1.0000000000000002 
	1.8110236220472438 -2.9196805000098967 6.1859880370221578 1 
	0.001 
	plane 0.1478053141127722 -0.94407032241742561 6.2204724409448815 0 -0.017452406437283512 0.99984769515639127 1 0 0 forward_v I I I I 
	spline forward { ref 0 } I I I I 
	nullbs 
	nurbs 3 open 4 
	0 3 0.33002897767298345 1 0.66267259419821589 1 1 3 
	0.22213915921490973 0.55745601023498237 1 
	0.22244919725106341 0.53354640116268792 1.0000000000000002 
	0.2231665235568264 0.48485752909730173 1 
	0.22448562300307232 0.41011564464195394 0.99999999999999989 
	0.22563222052554563 0.35757494491039188 1.0000000000000002 
	0.22626753277320583 0.33063097071975833 1 
	
	I I 
	0 
	0 
	0 
	} I I #
coedge $-1 $122 $121 $153 $207 forward $123 $-1 #
edge $-1 $210 0 $124 0.99150922074533632 $169 $223 forward 7 unknown #
face $-1 $127 $123 $3 $-1 $224 forward single #
point $-1 1.8110236220472438 -2.9196805000098967 6.1859880370221578 #
straight-curve $-1 1.8725835975115965 -1.9283222909213626 6.1417322834645667 -0.01745240643728339 -0.99984769515639138 0 I I #
plane-surface $-1 1.8897637795275588 -0.94407032241742561 7.4506198827376213 0.99984769515639127 -0.017452406437283512 0 0 0 -1 forward_v I I I I #
edge $-1 $165 0 $182 0.35433070866141692 $129 $225 forward 7 unknown #
coedge $-1 $130 $135 $217 $226 forward $136 $-1 #
vertex $-1 $180 $227 #
straight-curve $-1 1.4566929133858268 -1.9283222909213631 4.8203297883151741 0 1 0 I I #
face $-1 $93 $164 $3 $-1 $228 forward single #
plane-surface $-1 1.8110236220472438 3.4309296775825739 4.8203297883151741 0 0 1 0 1 0 forward_v I I I I #
coedge $-1 $133 $144 $229 $230 reversed $145 $-1 #
straight-curve $-1 1.3951329379214741 -1.9283222909213626 4.8818897637795269 0.017452406437283446 -0.99984769515639127 0 I I #
coedge $-1 $229 $231 $135 $189 reversed $200 $-1 #
edge $-1 $137 4.4408920985006262e-016 $232 5.359251968503937 $188 $233 forward 7 unknown #
face $-1 $132 $136 $3 $-1 $234 forward single #
point $-1 1.3951329379214736 -1.9283222909213626 4.8818897637795269 #
face $-1 $221 $196 $3 $-1 $235 forward single #
plane-surface $-1 1.3779527559055118 -0.94407032241742561 3.5730021645064722 -0.99984769515639127 -0.017452406437283512 0 0 0 1 forward_v I I I I #
coedge $-1 $236 $141 $170 $220 reversed $196 $-1 #
coedge $-1 $141 $236 $144 $198 forward $196 $-1 #
loop $-1 $-1 $236 $192 #
intcurve-curve $-1 forward { surfintcur full nurbs 3 open 7 
	0 3 0.16143854130300364 1 0.32526535065985451 1 0.49044237053872997 1 0.65810726189661373 1 
	0.82784457771752373 1 0.99999999999999989 3 
	1.4028145424202902 -2.3684011179212319 6.1417322834645667 1 
	1.4027484823057959 -2.3662657893900279 6.1469025531571688 0.99999999999999989 
	1.4040356577512432 -2.3646429579535266 6.1568308216613197 1.0000000000000002 
	1.4116215356236657 -2.3718695236258136 6.1725508302083556 1 
	1.4210179028447449 -2.3844069587894907 6.1824045264566303 1 
	1.4320708860195399 -2.4006276167336873 6.1896088641749669 1.0000000000000002 
	1.4439285074661481 -2.4191673678317165 6.1936674367122979 1 
	1.4523417955368285 -2.4328963228823692 6.1944671489507375 1 
	1.4566929133858268 -2.4401475863291271 6.1943583151656725 1 
	0.001 
	cone 1.4566929133858268 -4.4550909232646241 6.1417322834645667 0 -1 0 -0.017455064928217585 0 0 1 I I -0.017452406437283512 0.99984769515639127 0.017455064928217585 forward I I I I 
	spline forward { ref 0 } I I I I 
	nullbs 
	nurbs 3 open 7 
	0 3 0.14703131066014241 1 0.30345866306991143 1 0.46943628269361315 1 0.64193629350939529 1 
	0.81889823963630082 1 0.99999999999999989 3 
	0.2188333678124508 0.58842345947485553 1 
	0.21910709050903282 0.5891264020857927 1 
	0.21964993627484494 0.58956773848487076 1 
	0.22054220457121615 0.58612892880968703 1.0000000000000002 
	0.22113651579644594 0.58084594888346763 1 
	0.22162810983968623 0.57401971892972947 1 
	0.22196604096272729 0.5662446254953738 1 
	0.22209841990525042 0.56049432769607266 1 
	0.22213915921490973 0.55745601023498237 1 
	
	I I 
	0 
	0 
	0 
	} I I #
edge $-1 $237 -7.7504253847152147e-018 $146 0.44014586334675176 $144 $238 forward 7 unknown #
point $-1 1.4028145424202905 -2.3684011179212323 6.1417322834645667 #
loop $-1 $-1 $188 $149 #
plane-surface $-1 1.3951329379214741 3.4309296775825739 4.8818897637795269 1 0 0 0 1 0 forward_v I I I I #
coedge $-1 $239 $240 $241 $242 reversed $150 $-1 #
coedge $-1 $155 $152 $219 $243 forward $103 $-1 #
coedge $-1 $152 $155 $244 $245 reversed $103 $-1 #
coedge $-1 $240 $239 $152 $206 forward $150 $-1 #
edge $-1 $246 4.4408920985006262e-016 $247 5.359251968503937 $152 $248 forward 7 unknown #
edge $-1 $160 0 $210 1.5707963267949039 $174 $249 forward 7 unknown #
coedge $-1 $158 $244 $154 $209 reversed $164 $-1 #
edge $-1 $161 0 $211 1.5707963267948966 $154 $250 forward 7 unknown #
vertex $-1 $243 $251 #
vertex $-1 $209 $252 #
straight-curve $-1 1.8110236220472438 -1.9283222909213631 6.2032922589289194 0 1 0 I I #
straight-curve $-1 1.8725835975115965 -1.9283222909213631 6.1417322834645667 0 0 -1 I I #
straight-curve $-1 1.8725835975115965 3.4309296775825739 6.1417322834645667 0 0 -1 I I #
point $-1 1.872583597511597 -1.9283222909213626 6.1417322834645667 #
point $-1 1.8725835975115965 3.4309296775825739 6.1417322834645667 #
coedge $-1 $253 $163 $181 $226 reversed $164 $-1 #
point $-1 1.8110236220472438 3.4309296775825739 4.8203297883151741 #
coedge $-1 $170 $169 $203 $243 reversed $171 $-1 #
edge $-1 $246 0 $172 0.51190326075383652 $170 $254 forward 7 unknown #
face $-1 $176 $171 $3 $-1 $255 forward single #
point $-1 1.4566929133858268 -2.4401475863291271 6.1943583151656725 #
straight-curve $-1 1.8110236220472438 -1.9283222909213626 6.2032922589289194 0 -0.99984769515639127 -0.017452406437283272 I I #
cone-surface $-1 1.8110236220472438 -4.4550909232646241 6.1417322834645667 0 -1 0 0 0 0.017455064928217585 1 I I -0.017452406437283512 0.99984769515639127 0.017455064928217585 forward I I I I #
straight-curve $-1 1.8110236220472438 3.4309296775825739 4.8203297883151741 -1 0 0 I I #
edge $-1 $232 0 $182 1.5707963267948966 $181 $256 forward 7 unknown #
point $-1 1.4566929133858268 3.4309296775825739 4.8203297883151741 #
plane-surface $-1 0 3.4309296775825739 0 0 1 0 0 0 1 forward_v I I I I #
coedge $-1 $241 $188 $186 $230 forward $200 $-1 #
edge $-1 $137 0 $237 1.2598425196850398 $186 $257 forward 7 unknown #
coedge $-1 $188 $241 $253 $258 reversed $200 $-1 #
vertex $-1 $258 $259 #
straight-curve $-1 1.3951329379214741 -1.9283222909213631 4.8818897637795269 0 1 0 I I #
cone-surface $-1 1.4566929133858268 3.4309296775825739 4.8818897637795269 0 1 0 -0.061559975464352761 0 0 1 I I 0 1 0.061559975464352761 forward I I I I #
cone-surface $-1 1.4566929133858268 -4.4550909232646241 6.1417322834645667 0 -1 0 -0.017455064928217585 0 0 1 I I -0.017452406437283512 0.99984769515639127 0.017455064928217585 forward I I I I #
coedge $-1 $195 $194 $239 $260 forward $196 $-1 #
vertex $-1 $230 $261 #
straight-curve $-1 1.3951329379214741 -1.9283222909213626 6.1417322834645667 0.017452406437283137 -0.99984769515639127 0 I I #
coedge $-1 $205 $202 $236 $260 reversed $150 $-1 #
coedge $-1 $202 $205 $262 $263 forward $150 $-1 #
coedge $-1 $231 $229 $202 $242 forward $200 $-1 #
edge $-1 $237 4.4408920985006262e-016 $264 5.359251968503937 $202 $265 forward 7 unknown #
edge $-1 $246 0 $210 0.35433070866141692 $219 $266 forward 7 unknown #
coedge $-1 $208 $262 $204 $245 forward $164 $-1 #
edge $-1 $247 0 $211 0.35433070866141692 $204 $267 forward 7 unknown #
vertex $-1 $220 $268 #
vertex $-1 $245 $269 #
straight-curve $-1 1.4566929133858268 -1.9283222909213631 6.2032922589289194 0 1 0 I I #
ellipse-curve $-1 1.8110236220472442 -1.9283222909213626 6.1417322834645667 0 -1 0 0.061559975464352767 0 0 1 I I #
ellipse-curve $-1 1.8110236220472438 3.4309296775825739 6.1417322834645667 0 -1 0 0.061559975464352767 0 0 1 I I #
point $-1 1.8110236220472438 -1.9283222909213626 6.2032922589289194 #
point $-1 1.8110236220472438 3.4309296775825739 6.2032922589289194 #
coedge $-1 $262 $217 $231 $258 forward $164 $-1 #
straight-curve $-1 1.4566929133858268 -1.9283222909213626 6.2032922589289194 0 -0.99984769515639116 -0.017452406437284081 I I #
plane-surface $-1 0.1478053141127722 -0.94407032241742561 6.2204724409448815 0 -0.017452406437283512 0.99984769515639127 1 0 0 forward_v I I I I #
ellipse-curve $-1 1.4566929133858268 3.4309296775825739 4.8818897637795269 0 -1 0 -0.061559975464352767 0 0 1 I I #
straight-curve $-1 1.3951329379214741 -1.9283222909213631 4.8818897637795269 0 0 1 I I #
edge $-1 $232 0 $264 1.2598425196850398 $231 $270 forward 7 unknown #
point $-1 1.3951329379214741 3.4309296775825739 4.8818897637795269 #
edge $-1 $246 0 $237 1.5707963267949039 $236 $271 forward 7 unknown #
point $-1 1.3951329379214736 -1.9283222909213626 6.1417322834645667 #
coedge $-1 $244 $253 $240 $263 reversed $164 $-1 #
edge $-1 $247 0 $264 1.5707963267948966 $240 $272 forward 7 unknown #
vertex $-1 $263 $273 #
straight-curve $-1 1.3951329379214741 -1.9283222909213631 6.1417322834645667 0 1 0 I I #
straight-curve $-1 1.4566929133858268 -1.9283222909213631 6.2032922589289194 1 0 0 I I #
straight-curve $-1 1.4566929133858268 3.4309296775825739 6.2032922589289194 1 0 0 I I #
point $-1 1.4566929133858268 -1.9283222909213626 6.2032922589289194 #
point $-1 1.4566929133858268 3.4309296775825739 6.2032922589289194 #
straight-curve $-1 1.3951329379214741 3.4309296775825739 4.8818897637795269 0 0 1 I I #
ellipse-curve $-1 1.4566929133858264 -1.9283222909213626 6.1417322834645667 0 -1 0 4.4408920985006262e-016 0 0.061559975464352767 1 I I #
ellipse-curve $-1 1.4566929133858268 3.4309296775825739 6.1417322834645667 0 -1 0 0 0 0.061559975464352767 1 I I #
point $-1 1.3951329379214741 3.4309296775825739 6.1417322834645667 #
End-of-ACIS-data 