600 0 1 0           
115 GICL Pro/E ACIS Translator - Source: f:/data5/repository/PTC/V20/prod_appl/assoc_demo/mold/ejector_pin1.prt.2 - 6 0 13 ACIS 6.0.3 NT 24 Thu Apr 04 13:16:34 2002 
1 9.9999999999999995e-007 1e-010 
body $-1 $1 $-1 $2 #
lump $-1 $-1 $3 $0 #
transform $-1 1 0 0 0 1 0 0 0 1 0 0 0 25.399999999999999 no_rotate no_reflect no_shear #
shell $-1 $-1 $-1 $4 $-1 $1 #
face $-1 $5 $6 $3 $-1 $7 forward single #
face $-1 $8 $9 $3 $-1 $10 forward single #
loop $-1 $-1 $11 $4 #
cone-surface $-1 -0.69999999999999996 0 0 1 0 0 0 -0.125 0 1 I I 0 1 0.125 forward I I I I #
face $-1 $12 $13 $3 $-1 $14 reversed single #
loop $-1 $-1 $15 $5 #
cone-surface $-1 -0.69999999999999996 0 0 1 0 0 0 -0.125 0 1 I I 0 1 0.125 forward I I I I #
coedge $-1 $16 $17 $18 $19 forward $6 $-1 #
face $-1 $20 $21 $3 $-1 $22 reversed single #
loop $-1 $-1 $23 $8 #
torus-surface $-1 0.21929999999999994 0 0 1 0 0 0.15629999999999999 0.031300000000000001 0 -1 0 forward_v I I I I #
coedge $-1 $24 $25 $26 $27 forward $9 $-1 #
coedge $-1 $26 $11 $28 $29 forward $6 $-1 #
coedge $-1 $11 $26 $30 $31 forward $6 $-1 #
coedge $-1 $25 $24 $11 $19 reversed $9 $-1 #
edge $-1 $32 0 $33 12.707815608111845 $11 $34 forward 7 unknown #
face $-1 $35 $36 $3 $-1 $37 forward single #
loop $-1 $-1 $38 $12 #
torus-surface $-1 0.21929999999999994 0 0 1 0 0 0.15629999999999999 0.031300000000000001 0 -1 0 forward_v I I I I #
coedge $-1 $39 $40 $24 $41 forward $13 $-1 #
coedge $-1 $18 $15 $23 $41 reversed $9 $-1 #
coedge $-1 $15 $18 $42 $43 forward $9 $-1 #
coedge $-1 $17 $16 $15 $27 reversed $6 $-1 #
edge $-1 $44 -3.5527136788005009e-015 $45 12.712360117140264 $26 $46 forward 7 unknown #
coedge $-1 $47 $48 $16 $29 reversed $21 $-1 #
edge $-1 $33 0 $45 3.1415926535897931 $16 $49 forward 7 unknown #
coedge $-1 $42 $42 $17 $31 reversed $50 $51 #
edge $-1 $44 0 $32 1.0000000000000002 $17 $52 forward 7 unknown #
vertex $-1 $31 $53 #
vertex $-1 $29 $54 #
straight-curve $-1 12.927115608111846 0.125 1.5307579422779716e-017 -1 0 0 I I #
face $-1 $55 $56 $3 $-1 $57 forward single #
loop $-1 $58 $59 $20 #
plane-surface $-1 0.18800000000000006 0 0 1 0 0 0 -1 0 forward_v I I I I #
coedge $-1 $48 $47 $60 $61 forward $21 $-1 #
coedge $-1 $62 $23 $48 $63 forward $13 $-1 #
coedge $-1 $23 $62 $47 $64 reversed $13 $-1 #
edge $-1 $33 0 $45 3.1415926535897931 $24 $65 forward 7 unknown #
coedge $-1 $30 $30 $25 $43 reversed $50 $66 #
edge $-1 $32 0 $44 1 $25 $67 forward 7 unknown #
vertex $-1 $31 $68 #
vertex $-1 $27 $69 #
straight-curve $-1 12.931660117140265 -0.125 -3.0615158845559431e-017 -1 0 0 I I #
coedge $-1 $38 $28 $40 $64 forward $21 $-1 #
coedge $-1 $28 $38 $39 $63 reversed $21 $-1 #
ellipse-curve $-1 0.21929999999999994 0 0 1 0 0 0 0.125 1.5307579422779716e-017 1 I I #
loop $-1 $-1 $42 $70 #
pcurve $-1 0 forward { exppc nurbs 3 open 11 
	-1.0000000000000002 3 -0.90102966757115011 1 -0.80164654811745595 1 -0.70159459242135247 1 -0.60101628738789015 1 
	-0.50003736250465824 1 -0.39905205426593671 1 -0.29845640536715357 1 -0.19837725553454577 1 -0.098979717046775884 1 
	0 3 
	0.48845513479158054 0.49510117559434735 1 
	0.48708076797477307 0.49511351112538232 1 
	0.48447659229753842 0.49562289362187439 1 
	0.48085306850804582 0.49793664072931365 1 
	0.47798869148465895 0.5015662732133559 0.99999999999999978 
	0.47617472251040366 0.50607062977298989 1 
	0.4755377154094842 0.51110891108788603 0.99999999999999989 
	0.47617591062840309 0.51615054631380697 1 
	0.477990475028227 0.52066289232561869 1.0000000000000002 
	0.48086046022393325 0.52430846752395122 1 
	0.48448251503368589 0.52663374623567627 0.99999999999999989 
	0.48708839973296081 0.52715316879790375 1 
	0.48846365989044582 0.52717070415025669 1 
	0.001 
	spline forward { exactsur full nurbs 3 3 both open open none none 2 3 
	0 3 1 3 
	0 3 0.75881500000000002 2 1 3 
	13.050576007387393 3.9927672529112441 4.7999999999999998 1 
	13.050576007387393 3.9927672529112441 1.5266266558154307 1 
	12.739778919362882 3.9924801941604366 -1.7523654753835531 1 
	12.584049902465438 3.9923345565417496 -5.0369260930498543 1 
	13.050576004254379 2.0076239458180707 4.7999999999999998 1 
	13.050576004254378 2.0076239458180871 1.526510928201066 1 
	12.744594536768751 2.0160230352723612 -1.7525100183782381 1 
	12.591278749985344 2.0202266996900011 -5.037013052386019 1 
	13.116994848580033 0.034965327524086431 4.7999999999999998 1 
	13.116994848580033 0.034965327524087542 1.5274506774464507 1 
	12.771623810043353 0.043736878100808729 -1.7513355780658677 1 
	12.59854618526691 0.04811913851649896 -5.0363058057932042 1 
	13.183262056919348 -2.5578199593497133 4.7999999999999998 1 
	13.183262056919348 -2.5578199593497133 1.5283601033271255 1 
	12.800156378109891 -2.5531429322337109 -1.7502097455230334 1 
	12.608116233460208 -2.550811643379121 -5.0356279378917543 1 
	13.197614746969382 -3.1826341091770765 4.7999999999999998 1 
	13.19761474696938 -3.1826341091770756 1.5285542209837006 1 
	12.806494659590893 -3.1792961307603624 -1.749970553909219 1 
	12.61042382594 -3.1776347741222688 -5.035483931036258 1 
	13.213947180512568 -3.8071134999626204 4.7999999999999998 1 
	13.213947180512568 -3.8071134999626204 1.5287791266682218 1 
	12.813493378245422 -3.8053367971829624 -1.7496924296395537 1 
	12.612733018377766 -3.804457914568085 -5.0353164337356047 1 
	0 
	0 
	0 
	0 
	0 
	0 
	1 0.75881500000000002 
	F 1 F 0 F 1 F 0 } I I I I 
	} 0 0 #
intcurve-curve $-1 forward { surfintcur full nurbs 3 open 11 
	0 3 0.10000425480352891 1 0.19999869267549553 1 0.30003198400880898 1 0.39998951165711394 1 
	0.49998916282696737 1 0.59999143625968077 1 0.69995533366733698 1 0.79999134741051647 1 0.89999614377466386 1 
	1.0000000000000002 3 
	12.931660117140268 -0.125 0 1 
	12.932541409465045 -0.1248990918930699 0.013503258017749761 1 
	12.93413706641271 -0.12088362020910191 0.03907766425870441 0.99999999999999978 
	12.936118537591152 -0.10287327012424907 0.074665481451285765 0.99999999999999978 
	12.93742260190507 -0.074513622838269497 0.10292606743223016 1.0000000000000002 
	12.937922972154535 -0.039333860790008758 0.12081188047441115 0.99999999999999989 
	12.937596422447223 2.863204563863511e-005 0.12709833769186632 1.0000000000000002 
	12.93646282356198 0.039382869526070979 0.12079644013226186 1.0000000000000002 
	12.934665292713351 0.074551442852040101 0.10289334265079371 1 
	12.93233324282544 0.10286784454176681 0.074670391399021471 1.0000000000000002 
	12.929713274751167 0.12089125047497915 0.039058301244483139 0.99999999999999978 
	12.927989610575366 0.12490106257514069 0.013495506051442306 0.99999999999999978 
	12.927115608111846 0.125 1.5307579422779716e-017 1 
	0.001 
	spline forward { ref 1 } I I I I 
	cone -0.69999999999999996 0 0 1 0 0 0 -0.125 0 1 I I 0 1 0.125 forward I I I I 
	nurbs 3 open 11 
	0 3 0.098979717046775884 1 0.19837725553454577 1 0.29845640536715357 1 0.39905205426593671 1 
	0.50003736250465824 1 0.60101628738789015 1 0.70159459242135247 1 0.80164654811745595 1 0.90102966757115011 1 
	1.0000000000000002 3 
	0.48846365989044582 0.52717070415025669 1 
	0.48708839973296081 0.52715316879790375 1 
	0.48448251503368589 0.52663374623567627 0.99999999999999989 
	0.48086046022393325 0.52430846752395122 1 
	0.477990475028227 0.52066289232561869 1.0000000000000002 
	0.47617591062840309 0.51615054631380697 1 
	0.4755377154094842 0.51110891108788603 0.99999999999999989 
	0.47617472251040366 0.50607062977298989 1 
	0.47798869148465895 0.5015662732133559 0.99999999999999978 
	0.48085306850804582 0.49793664072931365 1 
	0.48447659229753842 0.49562289362187439 1 
	0.48708076797477307 0.49511351112538232 1 
	0.48845513479158054 0.49510117559434735 1 
	
	nullbs 
	I I 
	0 
	0 
	0 
	} I I #
point $-1 12.927115608111846 0.125 1.5307579422779716e-017 #
point $-1 0.21929999999999994 0.125 1.5307579422779716e-017 #
face $-1 $71 $72 $3 $-1 $73 reversed single #
loop $-1 $-1 $74 $35 #
cone-surface $-1 -0.69999999999999996 0 0 1 0 0 0 -0.219 0 1 I I 0 1 0.219 forward I I I I #
loop $-1 $-1 $75 $20 #
coedge $-1 $60 $60 $62 $76 forward $36 $-1 #
coedge $-1 $59 $59 $38 $61 reversed $36 $-1 #
edge $-1 $77 1.2246063538223773e-016 $78 3.1415926535897931 $38 $79 forward 7 unknown #
coedge $-1 $40 $39 $59 $76 reversed $13 $-1 #
edge $-1 $45 0 $78 1.5707963267948974 $48 $80 forward 7 unknown #
edge $-1 $33 0 $77 1.5707963267948974 $47 $81 forward 7 unknown #
ellipse-curve $-1 0.21929999999999994 0 0 -1 0 0 0 0.125 1.5307579422779716e-017 1 I I #
pcurve $-1 0 forward { exppc nurbs 3 open 11 
	-1 3 -0.90102997158252518 1 -0.80164691516969766 1 -0.7015947412334842 1 -0.60101617759528181 1 
	-0.50003719507223887 1 -0.39905234763517872 1 -0.29845729377347419 1 -0.19837856228017881 1 -0.098980783498995861 1 
	0 3 
	0.48846365989044582 0.52717070415025669 1 
	0.48983794478908416 0.52715835511503073 1 
	0.49244195962969234 0.52664892047649292 1.0000000000000002 
	0.49606522903386208 0.5243349761986148 1 
	0.498929386031919 0.52070513238251503 1.0000000000000002 
	0.50074326536223057 0.51620071734028194 0.99999999999999989 
	0.50138038742788393 0.51116249741290287 1 
	0.50074253063267282 0.50612120412706818 1 
	0.49892841348491179 0.50160910188411423 0.99999999999999978 
	0.49605880967797705 0.49796365151723548 0.99999999999999978 
	0.49243678129064128 0.4956382384311111 1.0000000000000004 
	0.4898306111594174 0.49511875019464446 0.99999999999999989 
	0.48845513479158054 0.49510117559434735 1 
	0.001 
	spline forward { ref 1 } I I I I 
	} 0 0 #
intcurve-curve $-1 forward { surfintcur full nurbs 3 open 11 
	0 3 0.10000509056570958 1 0.20000015107155278 1 0.30003371336628015 1 0.39999110422858919 1 
	0.49999019006860485 1 0.59999191528592277 1 0.69995542036022962 1 0.79999137568931578 1 0.8999962747840009 1 
	1 3 
	12.927115608111846 0.125 1.5307579422779716e-017 1 
	12.926243930672081 0.12489880536527272 -0.013505565803671774 1 
	12.924658783050759 0.12088234350028761 -0.03908341691054714 1 
	12.922666181663887 0.10286812554822287 -0.074672832073618536 1 
	12.921326290198168 0.074505849159598153 -0.10293172164516336 0.99999999999999989 
	12.920780353108549 0.039324943174945642 -0.12081465486488706 0.99999999999999978 
	12.921067891185375 -3.6319321506798319e-005 -0.12709819338725264 1 
	12.922184647243313 -0.039389328341259404 -0.12079421911047582 1.0000000000000002 
	12.923993611676261 -0.074555673310529397 -0.10289007611481775 1 
	12.926361131507299 -0.10287004356874759 -0.074667117188128754 0.99999999999999989 
	12.929028066339749 -0.12089174333834565 -0.039056063002552731 1.0000000000000004 
	12.930775109574585 -0.12490113475403306 -0.013494633971017118 0.99999999999999989 
	12.931660117140265 -0.125 -3.0615158845559431e-017 1 
	0.001 
	spline forward { ref 1 } I I I I 
	cone -0.69999999999999996 0 0 1 0 0 0 -0.125 0 1 I I 0 1 0.125 forward I I I I 
	nurbs 3 open 11 
	0 3 0.098980783498995861 1 0.19837856228017881 1 0.29845729377347419 1 0.39905234763517872 1 
	0.50003719507223887 1 0.60101617759528181 1 0.7015947412334842 1 0.80164691516969766 1 0.90102997158252518 1 
	1 3 
	0.48845513479158054 0.49510117559434735 1 
	0.4898306111594174 0.49511875019464446 0.99999999999999989 
	0.49243678129064128 0.4956382384311111 1.0000000000000004 
	0.49605880967797705 0.49796365151723548 0.99999999999999978 
	0.49892841348491179 0.50160910188411423 0.99999999999999978 
	0.50074253063267282 0.50612120412706818 1 
	0.50138038742788393 0.51116249741290287 1 
	0.50074326536223057 0.51620071734028194 0.99999999999999989 
	0.498929386031919 0.52070513238251503 1.0000000000000002 
	0.49606522903386208 0.5243349761986148 1 
	0.49244195962969234 0.52664892047649292 1.0000000000000002 
	0.48983794478908416 0.52715835511503073 1 
	0.48846365989044582 0.52717070415025669 1 
	
	nullbs 
	I I 
	0 
	0 
	0 
	} I I #
point $-1 12.931660117140268 -0.125 0 #
point $-1 0.21929999999999994 -0.125 0 #
face $-1 $-1 $50 $3 $-1 $82 reversed single #
face $-1 $70 $83 $3 $-1 $84 forward single #
loop $-1 $-1 $85 $55 #
plane-surface $-1 0 0 0 1 0 0 0 -1 0 forward_v I I I I #
coedge $-1 $86 $87 $85 $88 forward $56 $-1 #
coedge $-1 $89 $89 $90 $91 forward $58 $-1 #
edge $-1 $77 -1.2246063538223773e-016 $78 3.1415926535897931 $59 $92 forward 7 unknown #
vertex $-1 $64 $93 #
vertex $-1 $63 $94 #
ellipse-curve $-1 0.18800000000000006 0 0 1 0 0 0 0.15629999999999999 0 1 I I #
ellipse-curve $-1 0.21929999999999991 -0.15629999999999999 -3.8281194620487514e-017 1.3427049525574989e-031 -2.4492127076447555e-016 1 2.7755575615628914e-017 0.031299999999999994 7.6660357749280829e-018 1 I I #
ellipse-curve $-1 0.21929999999999991 0.15629999999999999 1.9140597310243757e-017 6.7135247627874945e-032 1.2246063538223778e-016 -1 2.7755575615628914e-017 -0.031299999999999994 -3.8330178874640415e-018 1 I I #
spline-surface $-1 forward { ref 1 } I I I I #
loop $-1 $-1 $95 $71 #
cone-surface $-1 -0.69999999999999996 0 0 1 0 0 0 -0.219 0 1 I I 0 1 0.219 forward I I I I #
coedge $-1 $96 $96 $74 $88 reversed $72 $-1 #
coedge $-1 $90 $74 $97 $98 reversed $56 $-1 #
coedge $-1 $74 $90 $99 $100 forward $56 $-1 #
edge $-1 $101 1.2246063538223775e-016 $102 3.1415926535897931 $74 $103 forward 7 unknown #
coedge $-1 $75 $75 $95 $104 reversed $58 $-1 #
coedge $-1 $87 $86 $75 $91 reversed $56 $-1 #
edge $-1 $105 0 $106 3.1415926535897931 $75 $107 forward 7 unknown #
ellipse-curve $-1 0.18800000000000006 0 0 -1 0 0 0 0.15629999999999999 0 1 I I #
point $-1 0.18799999999999994 0.15629999999999999 1.9140597310243757e-017 #
point $-1 0.18800000000000006 -0.15629999999999999 0 #
coedge $-1 $97 $99 $89 $104 forward $83 $-1 #
coedge $-1 $85 $85 $108 $109 forward $72 $-1 #
coedge $-1 $108 $95 $86 $98 forward $83 $-1 #
edge $-1 $106 0 $102 0.18800000000000017 $86 $110 forward 7 unknown #
coedge $-1 $95 $108 $87 $100 reversed $83 $-1 #
edge $-1 $105 0 $101 0.18800000000000017 $87 $111 forward 7 unknown #
vertex $-1 $100 $112 #
vertex $-1 $98 $113 #
ellipse-curve $-1 0 0 0 1 0 0 0 0.219 0 1 I I #
edge $-1 $105 0 $106 3.1415926535897931 $89 $114 forward 7 unknown #
vertex $-1 $104 $115 #
vertex $-1 $104 $116 #
ellipse-curve $-1 0.18800000000000006 0 -2.0816681711721685e-017 1 -5.0695115279687515e-016 -1.1026896115215333e-031 1.1102230246251565e-016 0.219 4.7635560860431747e-017 1 I I #
coedge $-1 $99 $97 $96 $109 reversed $83 $-1 #
edge $-1 $101 -1.2246063538223775e-016 $102 3.1415926535897931 $96 $117 forward 7 unknown #
straight-curve $-1 0.18800000000000017 -0.219 -5.3637758297420124e-017 -1 0 0 I I #
straight-curve $-1 0.18800000000000017 0.219 2.6818879148710062e-017 -1 0 0 I I #
point $-1 0 0.219 2.6818879148710062e-017 #
point $-1 0 -0.219 0 #
ellipse-curve $-1 0.18800000000000006 6.9388939039072284e-018 -1.3877787807814457e-017 -1 5.0695115279687515e-016 9.4206494194523298e-032 1.1102230246251565e-016 0.219 4.0696666956524519e-017 1 I I #
point $-1 0.18800000000000017 0.219 2.6818879148710062e-017 #
point $-1 0.18800000000000017 -0.219 -5.3637758297420124e-017 #
ellipse-curve $-1 0 0 0 -1 0 0 0 0.219 0 1 I I #
End-of-ACIS-data 