600 0 1 0           
120 GICL Pro/E ACIS Translator - Source: f:/data5/repository/PTC/V20/prod_appl/assoc_demo/mold/ejector_retainer1.prt.2 - 6 0 13 ACIS 6.0.3 NT 24 Thu Apr 04 13:16:28 2002 
1 9.9999999999999995e-007 1e-010 
body $-1 $1 $-1 $2 #
lump $-1 $-1 $3 $0 #
transform $-1 1 0 0 0 1 0 0 0 1 0 0 0 25.399999999999999 no_rotate no_reflect no_shear #
shell $-1 $-1 $-1 $4 $-1 $1 #
face $-1 $5 $6 $3 $-1 $7 reversed single #
face $-1 $8 $9 $3 $-1 $10 reversed single #
loop $-1 $11 $12 $4 #
plane-surface $-1 0 0 0 0 -1 0 -1 0 0 forward_v I I I I #
face $-1 $13 $14 $3 $-1 $15 reversed single #
loop $-1 $-1 $16 $5 #
cone-surface $-1 -11 0.03125 6.5 0 -1 0 -0.51549999999999996 0 0 1 I I 0 1 0.51549999999999996 forward I I I I #
loop $-1 $17 $18 $4 #
coedge $-1 $19 $19 $20 $21 forward $6 $-1 #
face $-1 $22 $23 $3 $-1 $24 reversed single #
loop $-1 $-1 $25 $8 #
cone-surface $-1 -11 0.03125 6.5 0 -1 0 -0.51549999999999996 0 0 1 I I 0 1 0.51549999999999996 forward I I I I #
coedge $-1 $26 $20 $27 $28 forward $9 $-1 #
loop $-1 $29 $30 $4 #
coedge $-1 $31 $31 $32 $33 forward $11 $-1 #
coedge $-1 $12 $12 $34 $35 forward $6 $-1 #
coedge $-1 $16 $36 $12 $21 reversed $9 $-1 #
edge $-1 $37 0 $38 3.1415926535897962 $12 $39 forward 7 unknown #
face $-1 $40 $41 $3 $-1 $42 reversed single #
loop $-1 $43 $44 $13 #
plane-surface $-1 -11 -0.25 6.5 0 -1 0 -1 0 0 forward_v I I I I #
coedge $-1 $45 $34 $36 $46 forward $14 $-1 #
coedge $-1 $36 $16 $47 $48 reversed $9 $-1 #
coedge $-1 $34 $45 $16 $28 reversed $14 $-1 #
edge $-1 $37 0 $49 0.25 $27 $50 forward 7 unknown #
loop $-1 $51 $52 $4 #
coedge $-1 $53 $53 $54 $55 forward $17 $-1 #
coedge $-1 $18 $18 $56 $57 forward $11 $-1 #
coedge $-1 $58 $59 $18 $33 reversed $60 $-1 #
edge $-1 $61 0 $62 3.1415926535897962 $18 $63 forward 7 unknown #
coedge $-1 $25 $27 $19 $35 reversed $14 $-1 #
edge $-1 $38 0 $37 3.1415926535897962 $19 $64 forward 7 unknown #
coedge $-1 $20 $26 $25 $46 reversed $9 $-1 #
vertex $-1 $35 $65 #
vertex $-1 $35 $66 #
ellipse-curve $-1 -11 0 6.5000000000000009 0 -1 0 0.5154999999999994 0 -8.8817841970012523e-016 1 I I #
face $-1 $67 $68 $3 $-1 $69 reversed single #
loop $-1 $-1 $70 $22 #
cone-surface $-1 -11 0.03125 6.5 0 -1 0 -0.375 0 0 1 I I 0 1 0.375 forward I I I I #
loop $-1 $-1 $71 $13 #
coedge $-1 $72 $72 $73 $74 reversed $23 $-1 #
coedge $-1 $27 $25 $71 $75 forward $14 $-1 #
edge $-1 $38 0 $76 0.25 $25 $77 forward 7 unknown #
coedge $-1 $71 $71 $26 $48 forward $43 $-1 #
edge $-1 $76 0 $49 3.1415926535897931 $47 $78 forward 7 unknown #
vertex $-1 $28 $79 #
straight-curve $-1 -10.484500000000001 0 6.5 0 -1 0 I I #
loop $-1 $80 $81 $4 #
coedge $-1 $82 $82 $83 $84 forward $29 $-1 #
coedge $-1 $30 $30 $85 $86 forward $17 $-1 #
coedge $-1 $87 $88 $30 $55 reversed $89 $-1 #
edge $-1 $90 0 $91 3.1415926535897962 $30 $92 forward 7 unknown #
coedge $-1 $93 $94 $31 $57 reversed $95 $-1 #
edge $-1 $62 0 $61 3.1415926535897962 $31 $96 forward 7 unknown #
coedge $-1 $97 $32 $94 $98 forward $60 $-1 #
coedge $-1 $32 $97 $93 $99 reversed $60 $-1 #
loop $-1 $-1 $58 $100 #
vertex $-1 $57 $101 #
vertex $-1 $57 $102 #
ellipse-curve $-1 -11 0 -6.4999999999999991 0 -1 0 0.5154999999999994 0 -8.8817841970012523e-016 1 I I #
ellipse-curve $-1 -11 0 6.4999999999999991 0 -1 0 -0.5154999999999994 0 8.8817841970012523e-016 1 I I #
point $-1 -10.484500000000001 0 6.5 #
point $-1 -11.515499999999999 0 6.5 #
face $-1 $103 $104 $3 $-1 $105 forward single #
loop $-1 $-1 $106 $40 #
cone-surface $-1 -11 0.03125 6.5 0 -1 0 -0.375 0 0 1 I I 0 1 0.375 forward I I I I #
coedge $-1 $73 $107 $108 $109 reversed $41 $-1 #
coedge $-1 $47 $47 $45 $75 reversed $43 $-1 #
coedge $-1 $44 $44 $110 $111 forward $23 $-1 #
coedge $-1 $112 $70 $44 $74 forward $41 $-1 #
edge $-1 $113 0 $114 3.1415926535897931 $44 $115 forward 7 unknown #
edge $-1 $76 0 $49 3.1415926535897931 $45 $116 forward 7 unknown #
vertex $-1 $75 $117 #
straight-curve $-1 -11.515499999999999 0 6.5 0 -1 0 I I #
ellipse-curve $-1 -11 -0.25 6.5 0 1 0 -0.5154999999999994 0 0 1 I I #
point $-1 -10.484500000000001 -0.25 6.5 #
loop $-1 $118 $119 $4 #
coedge $-1 $120 $120 $121 $122 forward $51 $-1 #
coedge $-1 $52 $52 $123 $124 forward $29 $-1 #
coedge $-1 $125 $126 $52 $84 reversed $127 $-1 #
edge $-1 $128 0 $129 3.1415926535897931 $52 $130 forward 7 unknown #
coedge $-1 $131 $132 $53 $86 reversed $133 $-1 #
edge $-1 $91 0 $90 3.1415926535897962 $53 $134 forward 7 unknown #
coedge $-1 $135 $54 $132 $136 forward $89 $-1 #
coedge $-1 $54 $135 $131 $137 reversed $89 $-1 #
loop $-1 $-1 $87 $138 #
vertex $-1 $86 $139 #
vertex $-1 $86 $140 #
ellipse-curve $-1 11 0 6.5000000000000009 0 -1 0 0.5154999999999994 0 -8.8817841970012523e-016 1 I I #
coedge $-1 $141 $56 $59 $99 forward $95 $-1 #
coedge $-1 $56 $141 $58 $98 reversed $95 $-1 #
loop $-1 $-1 $93 $142 #
ellipse-curve $-1 -11 0 -6.5000000000000009 0 -1 0 -0.5154999999999994 0 8.8817841970012523e-016 1 I I #
coedge $-1 $59 $58 $143 $144 reversed $60 $-1 #
edge $-1 $61 0 $145 0.25 $94 $146 forward 7 unknown #
edge $-1 $62 0 $147 0.25 $93 $148 forward 7 unknown #
face $-1 $149 $60 $3 $-1 $150 reversed single #
point $-1 -10.484500000000001 0 -6.5 #
point $-1 -11.515499999999999 0 -6.5 #
face $-1 $151 $152 $3 $-1 $153 reversed single #
loop $-1 $154 $155 $67 #
plane-surface $-1 0 -0.625 0 0 -1 0 -1 0 0 forward_v I I I I #
coedge $-1 $110 $156 $112 $157 reversed $68 $-1 #
coedge $-1 $70 $112 $155 $158 forward $41 $-1 #
coedge $-1 $156 $110 $70 $109 forward $68 $-1 #
edge $-1 $113 0 $159 0.375 $108 $160 forward 7 unknown #
coedge $-1 $108 $106 $72 $111 reversed $68 $-1 #
edge $-1 $113 0 $114 3.1415926535897931 $72 $161 forward 7 unknown #
coedge $-1 $107 $73 $106 $157 forward $41 $-1 #
vertex $-1 $111 $162 #
vertex $-1 $111 $163 #
ellipse-curve $-1 -11 -0.25 6.5 0 1 0 -0.375 0 0 1 I I #
ellipse-curve $-1 -11 -0.25 6.5 0 -1 0 -0.5154999999999994 0 0 1 I I #
point $-1 -11.515499999999999 -0.25 6.5 #
loop $-1 $164 $165 $4 #
coedge $-1 $166 $166 $167 $168 forward $80 $-1 #
coedge $-1 $81 $81 $169 $170 forward $51 $-1 #
coedge $-1 $171 $172 $81 $122 reversed $173 $-1 #
edge $-1 $174 0 $175 3.1415926535897931 $81 $176 forward 7 unknown #
coedge $-1 $177 $178 $82 $124 reversed $179 $-1 #
edge $-1 $129 0 $128 3.1415926535897931 $82 $180 forward 7 unknown #
coedge $-1 $181 $83 $178 $182 forward $127 $-1 #
coedge $-1 $83 $181 $177 $183 reversed $127 $-1 #
loop $-1 $-1 $125 $184 #
vertex $-1 $124 $185 #
vertex $-1 $124 $186 #
ellipse-curve $-1 -10.125 0 7.0625 0 -1 0 -0.1875 0 0 1 I I #
coedge $-1 $187 $85 $88 $137 forward $133 $-1 #
coedge $-1 $85 $187 $87 $136 reversed $133 $-1 #
loop $-1 $-1 $131 $188 #
ellipse-curve $-1 11 0 6.4999999999999991 0 -1 0 -0.5154999999999994 0 8.8817841970012523e-016 1 I I #
coedge $-1 $88 $87 $189 $190 reversed $89 $-1 #
edge $-1 $90 0 $191 0.25 $132 $192 forward 7 unknown #
edge $-1 $91 0 $193 0.25 $131 $194 forward 7 unknown #
face $-1 $184 $89 $3 $-1 $195 reversed single #
point $-1 11.515499999999999 0 6.5 #
point $-1 10.484500000000001 0 6.5 #
coedge $-1 $94 $93 $196 $197 forward $95 $-1 #
face $-1 $100 $95 $3 $-1 $198 reversed single #
coedge $-1 $196 $196 $97 $144 forward $199 $-1 #
edge $-1 $147 0 $145 3.1415926535897931 $143 $200 forward 7 unknown #
vertex $-1 $98 $201 #
straight-curve $-1 -10.484500000000001 0 -6.5 0 -1 0 I I #
vertex $-1 $197 $202 #
straight-curve $-1 -11.515499999999999 0 -6.5 0 -1 0 I I #
face $-1 $203 $204 $3 $-1 $205 reversed single #
cone-surface $-1 -11 0.03125 -6.5 0 -1 0 -0.51549999999999996 0 0 1 I I 0 1 0.51549999999999996 forward I I I I #
face $-1 $206 $207 $3 $-1 $208 reversed single #
loop $-1 $-1 $209 $103 #
cone-surface $-1 -11 0.03125 -6.5 0 -1 0 -0.375 0 0 1 I I 0 1 0.375 forward I I I I #
loop $-1 $210 $211 $67 #
coedge $-1 $212 $212 $107 $158 reversed $104 $-1 #
coedge $-1 $106 $108 $212 $213 forward $68 $-1 #
edge $-1 $114 0 $214 0.375 $106 $215 forward 7 unknown #
edge $-1 $214 0 $159 3.1415926535897931 $155 $216 forward 7 unknown #
vertex $-1 $213 $217 #
straight-curve $-1 -11.375 -0.25 6.5 0 -1 0 I I #
ellipse-curve $-1 -11 -0.25 6.5 0 -1 0 -0.375 0 0 1 I I #
point $-1 -11.375 -0.25 6.5 #
point $-1 -10.625 -0.25 6.5 #
loop $-1 $218 $219 $4 #
coedge $-1 $220 $220 $221 $222 forward $118 $-1 #
coedge $-1 $119 $119 $223 $224 forward $80 $-1 #
coedge $-1 $225 $226 $119 $168 reversed $227 $-1 #
edge $-1 $228 0 $229 3.1415926535897931 $119 $230 forward 7 unknown #
coedge $-1 $231 $232 $120 $170 reversed $233 $-1 #
edge $-1 $175 0 $174 3.1415926535897931 $120 $234 forward 7 unknown #
coedge $-1 $235 $121 $232 $236 forward $173 $-1 #
coedge $-1 $121 $235 $231 $237 reversed $173 $-1 #
loop $-1 $-1 $171 $238 #
vertex $-1 $170 $239 #
vertex $-1 $170 $240 #
ellipse-curve $-1 -10.125 0 -7.0625 0 -1 0 -0.1875 0 0 1 I I #
coedge $-1 $241 $123 $126 $183 forward $179 $-1 #
coedge $-1 $123 $241 $125 $182 reversed $179 $-1 #
loop $-1 $-1 $177 $242 #
ellipse-curve $-1 -10.125 0 7.0625 0 -1 0 0.1875 0 0 1 I I #
coedge $-1 $126 $125 $243 $244 forward $127 $-1 #
edge $-1 $128 0 $245 0.625 $178 $246 forward 7 unknown #
edge $-1 $129 0 $247 0.625 $177 $248 forward 7 unknown #
face $-1 $242 $127 $3 $-1 $249 reversed single #
point $-1 -10.3125 0 7.0625 #
point $-1 -9.9375 0 7.0625 #
coedge $-1 $132 $131 $250 $251 forward $133 $-1 #
face $-1 $138 $133 $3 $-1 $252 reversed single #
coedge $-1 $250 $250 $135 $190 forward $253 $-1 #
edge $-1 $193 0 $191 3.1415926535897931 $189 $254 forward 7 unknown #
vertex $-1 $136 $255 #
straight-curve $-1 11.515499999999999 0 6.5 0 -1 0 I I #
vertex $-1 $251 $256 #
straight-curve $-1 10.484500000000001 0 6.5 0 -1 0 I I #
cone-surface $-1 11 0.03125 6.5 0 -1 0 -0.51549999999999996 0 0 1 I I 0 1 0.51549999999999996 forward I I I I #
coedge $-1 $143 $143 $141 $197 reversed $199 $-1 #
edge $-1 $147 0 $145 3.1415926535897931 $141 $257 forward 7 unknown #
cone-surface $-1 -11 0.03125 -6.5 0 -1 0 -0.51549999999999996 0 0 1 I I 0 1 0.51549999999999996 forward I I I I #
loop $-1 $-1 $196 $206 #
ellipse-curve $-1 -11 -0.25 -6.5 0 1 0 -0.5154999999999994 0 0 1 I I #
point $-1 -10.484500000000001 -0.25 -6.5 #
point $-1 -11.515499999999999 -0.25 -6.5 #
face $-1 $258 $259 $3 $-1 $260 reversed single #
loop $-1 $-1 $261 $149 #
cone-surface $-1 11 0.03125 6.5 0 -1 0 -0.375 0 0 1 I I 0 1 0.375 forward I I I I #
face $-1 $142 $262 $3 $-1 $263 reversed single #
loop $-1 $-1 $264 $151 #
cone-surface $-1 -11 0.03125 -6.5 0 -1 0 -0.375 0 0 1 I I 0 1 0.375 forward I I I I #
coedge $-1 $265 $266 $267 $268 reversed $152 $-1 #
loop $-1 $269 $270 $67 #
coedge $-1 $271 $271 $266 $272 reversed $154 $-1 #
coedge $-1 $155 $155 $156 $213 reversed $104 $-1 #
edge $-1 $159 0 $214 3.1415926535897931 $212 $273 forward 7 unknown #
vertex $-1 $213 $274 #
straight-curve $-1 -10.625 -0.25 6.5 0 -1 0 I I #
ellipse-curve $-1 -11 -0.625 6.5 0 -1 0 0.375 0 0 1 I I #
point $-1 -11.375 -0.625 6.5 #
loop $-1 $275 $276 $4 #
coedge $-1 $277 $277 $278 $279 forward $164 $-1 #
coedge $-1 $165 $165 $280 $281 forward $118 $-1 #
coedge $-1 $282 $283 $165 $222 reversed $284 $-1 #
edge $-1 $285 0 $286 3.1415926535897931 $165 $287 forward 7 unknown #
coedge $-1 $288 $289 $166 $224 reversed $290 $-1 #
edge $-1 $229 0 $228 3.1415926535897931 $166 $291 forward 7 unknown #
coedge $-1 $292 $167 $289 $293 forward $227 $-1 #
coedge $-1 $167 $292 $288 $294 reversed $227 $-1 #
loop $-1 $-1 $225 $295 #
vertex $-1 $224 $296 #
vertex $-1 $224 $297 #
ellipse-curve $-1 0 0 7.0625 0 -1 0 -0.1875 0 0 1 I I #
coedge $-1 $298 $169 $172 $237 forward $233 $-1 #
coedge $-1 $169 $298 $171 $236 reversed $233 $-1 #
loop $-1 $-1 $231 $299 #
ellipse-curve $-1 -10.125 0 -7.0625 0 -1 0 0.1875 0 0 1 I I #
coedge $-1 $172 $171 $300 $301 forward $173 $-1 #
edge $-1 $174 0 $302 0.625 $232 $303 forward 7 unknown #
edge $-1 $175 0 $304 0.625 $231 $305 forward 7 unknown #
face $-1 $299 $173 $3 $-1 $306 reversed single #
point $-1 -10.3125 0 -7.0625 #
point $-1 -9.9375 0 -7.0625 #
coedge $-1 $178 $177 $307 $308 forward $179 $-1 #
face $-1 $238 $179 $3 $-1 $309 reversed single #
coedge $-1 $307 $307 $181 $244 reversed $269 $-1 #
edge $-1 $245 0 $247 3.1415926535897931 $243 $310 forward 7 unknown #
vertex $-1 $308 $311 #
straight-curve $-1 -10.3125 0 7.0625 0 -1 0 I I #
vertex $-1 $308 $312 #
straight-curve $-1 -9.9375 0 7.0625 0 -1 0 I I #
cone-surface $-1 -10.125 0 7.0625 0 -1 0 0.1875 0 0 1 I I 0 1 0.1875 forward I I I I #
coedge $-1 $189 $189 $187 $251 reversed $253 $-1 #
edge $-1 $193 0 $191 3.1415926535897931 $187 $313 forward 7 unknown #
cone-surface $-1 11 0.03125 6.5 0 -1 0 -0.51549999999999996 0 0 1 I I 0 1 0.51549999999999996 forward I I I I #
loop $-1 $-1 $250 $258 #
ellipse-curve $-1 11 -0.25 6.5 0 1 0 -0.5154999999999994 0 0 1 I I #
point $-1 11.515499999999999 -0.25 6.5 #
point $-1 10.484500000000001 -0.25 6.5 #
ellipse-curve $-1 -11 -0.25 -6.5 0 -1 0 -0.5154999999999994 0 0 1 I I #
face $-1 $188 $314 $3 $-1 $315 reversed single #
loop $-1 $-1 $316 $203 #
cone-surface $-1 11 0.03125 6.5 0 -1 0 -0.375 0 0 1 I I 0 1 0.375 forward I I I I #
coedge $-1 $317 $318 $319 $320 reversed $204 $-1 #
loop $-1 $199 $321 $206 #
plane-surface $-1 -11 -0.25 -6.5 0 -1 0 -1 0 0 forward_v I I I I #
coedge $-1 $322 $323 $324 $325 reversed $207 $-1 #
coedge $-1 $324 $209 $321 $326 forward $152 $-1 #
coedge $-1 $209 $324 $211 $272 forward $152 $-1 #
coedge $-1 $323 $322 $209 $268 forward $207 $-1 #
edge $-1 $327 0 $328 0.375 $267 $329 forward 7 unknown #
loop $-1 $330 $243 $67 #
coedge $-1 $331 $331 $318 $332 reversed $210 $-1 #
coedge $-1 $211 $211 $323 $333 reversed $154 $-1 #
edge $-1 $334 0 $328 3.1415926535897931 $211 $335 forward 7 unknown #
ellipse-curve $-1 -11 -0.625 6.5 0 -1 0 -0.375 0 0 1 I I #
point $-1 -10.625 -0.625 6.5 #
loop $-1 $336 $337 $4 #
coedge $-1 $338 $339 $340 $341 reversed $218 $-1 #
coedge $-1 $219 $219 $342 $343 forward $164 $-1 #
coedge $-1 $344 $345 $219 $279 reversed $346 $-1 #
edge $-1 $347 0 $348 3.1415926535897931 $219 $349 forward 7 unknown #
coedge $-1 $350 $351 $220 $281 reversed $352 $-1 #
edge $-1 $286 0 $285 3.1415926535897931 $220 $353 forward 7 unknown #
coedge $-1 $354 $221 $351 $355 forward $284 $-1 #
coedge $-1 $221 $354 $350 $356 reversed $284 $-1 #
loop $-1 $-1 $282 $357 #
vertex $-1 $281 $358 #
vertex $-1 $281 $359 #
ellipse-curve $-1 10.125 0 7.0625 0 -1 0 -0.1875 0 0 1 I I #
coedge $-1 $360 $223 $226 $294 forward $290 $-1 #
coedge $-1 $223 $360 $225 $293 reversed $290 $-1 #
loop $-1 $-1 $288 $361 #
ellipse-curve $-1 0 0 7.0625 0 -1 0 0.1875 0 0 1 I I #
coedge $-1 $226 $225 $362 $363 forward $227 $-1 #
edge $-1 $228 0 $364 0.625 $289 $365 forward 7 unknown #
edge $-1 $229 0 $366 0.625 $288 $367 forward 7 unknown #
face $-1 $361 $227 $3 $-1 $368 reversed single #
point $-1 -0.1875 0 7.0625 #
point $-1 0.1875 0 7.0625 #
coedge $-1 $232 $231 $369 $370 forward $233 $-1 #
face $-1 $295 $233 $3 $-1 $371 reversed single #
coedge $-1 $369 $369 $235 $301 reversed $330 $-1 #
edge $-1 $302 0 $304 3.1415926535897931 $300 $372 forward 7 unknown #
vertex $-1 $370 $373 #
straight-curve $-1 -10.3125 0 -7.0625 0 -1 0 I I #
vertex $-1 $370 $374 #
straight-curve $-1 -9.9375 0 -7.0625 0 -1 0 I I #
cone-surface $-1 -10.125 0 -7.0625 0 -1 0 0.1875 0 0 1 I I 0 1 0.1875 forward I I I I #
coedge $-1 $243 $243 $241 $308 reversed $269 $-1 #
edge $-1 $247 0 $245 3.1415926535897931 $307 $375 forward 7 unknown #
cone-surface $-1 -10.125 0 7.0625 0 -1 0 0.1875 0 0 1 I I 0 1 0.1875 forward I I I I #
ellipse-curve $-1 -10.125 -0.625 7.0625 0 -1 0 -0.1875 0 0 1 I I #
point $-1 -10.3125 -0.625 7.0625 #
point $-1 -9.9375 -0.625 7.0625 #
ellipse-curve $-1 11 -0.25 6.5 0 -1 0 -0.5154999999999994 0 0 1 I I #
loop $-1 $253 $376 $258 #
plane-surface $-1 11 -0.25 6.5 0 -1 0 -1 0 0 forward_v I I I I #
coedge $-1 $377 $378 $379 $380 reversed $259 $-1 #
coedge $-1 $379 $261 $376 $381 forward $204 $-1 #
coedge $-1 $261 $379 $270 $332 forward $204 $-1 #
coedge $-1 $378 $377 $261 $320 forward $259 $-1 #
edge $-1 $382 0 $383 0.375 $319 $384 forward 7 unknown #
coedge $-1 $385 $385 $265 $326 reversed $262 $-1 #
coedge $-1 $267 $264 $385 $386 reversed $207 $-1 #
coedge $-1 $264 $267 $271 $333 forward $207 $-1 #
coedge $-1 $266 $265 $264 $325 forward $152 $-1 #
edge $-1 $387 0 $334 0.375 $264 $388 forward 7 unknown #
edge $-1 $327 0 $387 3.1415926535897931 $321 $389 forward 7 unknown #
vertex $-1 $386 $390 #
vertex $-1 $333 $391 #
straight-curve $-1 -11.375 -0.25 -6.5 0 -1 0 I I #
loop $-1 $392 $300 $67 #
coedge $-1 $270 $270 $378 $393 reversed $210 $-1 #
edge $-1 $394 0 $383 3.1415926535897931 $270 $395 forward 7 unknown #
edge $-1 $328 0 $334 3.1415926535897931 $271 $396 forward 7 unknown #
vertex $-1 $333 $397 #
ellipse-curve $-1 -11 -0.625 -6.5 0 -1 0 0.375 0 0 1 I I #
loop $-1 $398 $399 $4 #
coedge $-1 $400 $400 $401 $402 forward $275 $-1 #
coedge $-1 $403 $276 $404 $405 reversed $218 $-1 #
coedge $-1 $276 $403 $406 $407 reversed $218 $-1 #
coedge $-1 $408 $409 $276 $341 forward $410 $-1 #
edge $-1 $411 0 $412 15.125 $276 $413 forward 7 unknown #
coedge $-1 $414 $415 $277 $343 reversed $416 $-1 #
edge $-1 $348 0 $347 3.1415926535897931 $277 $417 forward 7 unknown #
coedge $-1 $418 $278 $415 $419 forward $346 $-1 #
coedge $-1 $278 $418 $414 $420 reversed $346 $-1 #
loop $-1 $-1 $344 $421 #
vertex $-1 $343 $422 #
vertex $-1 $343 $423 #
ellipse-curve $-1 0 0 -7.0625 0 -1 0 -0.1875 0 0 1 I I #
coedge $-1 $424 $280 $283 $356 forward $352 $-1 #
coedge $-1 $280 $424 $282 $355 reversed $352 $-1 #
loop $-1 $-1 $350 $425 #
ellipse-curve $-1 10.125 0 7.0625 0 -1 0 0.1875 0 0 1 I I #
coedge $-1 $283 $282 $426 $427 forward $284 $-1 #
edge $-1 $285 0 $428 0.625 $351 $429 forward 7 unknown #
edge $-1 $286 0 $430 0.625 $350 $431 forward 7 unknown #
face $-1 $425 $284 $3 $-1 $432 reversed single #
point $-1 9.9375 0 7.0625 #
point $-1 10.3125 0 7.0625 #
coedge $-1 $289 $288 $433 $434 forward $290 $-1 #
face $-1 $357 $290 $3 $-1 $435 reversed single #
coedge $-1 $433 $433 $292 $363 reversed $392 $-1 #
edge $-1 $364 0 $366 3.1415926535897931 $362 $436 forward 7 unknown #
vertex $-1 $434 $437 #
straight-curve $-1 -0.1875 0 7.0625 0 -1 0 I I #
vertex $-1 $434 $438 #
straight-curve $-1 0.1875 0 7.0625 0 -1 0 I I #
cone-surface $-1 0 0 7.0625 0 -1 0 0.1875 0 0 1 I I 0 1 0.1875 forward I I I I #
coedge $-1 $300 $300 $298 $370 reversed $330 $-1 #
edge $-1 $304 0 $302 3.1415926535897931 $369 $439 forward 7 unknown #
cone-surface $-1 -10.125 0 -7.0625 0 -1 0 0.1875 0 0 1 I I 0 1 0.1875 forward I I I I #
ellipse-curve $-1 -10.125 -0.625 -7.0625 0 -1 0 -0.1875 0 0 1 I I #
point $-1 -10.3125 -0.625 -7.0625 #
point $-1 -9.9375 -0.625 -7.0625 #
ellipse-curve $-1 -10.125 -0.625 7.0625 0 -1 0 0.1875 0 0 1 I I #
coedge $-1 $440 $440 $317 $381 reversed $314 $-1 #
coedge $-1 $319 $316 $440 $441 reversed $259 $-1 #
coedge $-1 $316 $319 $331 $393 forward $259 $-1 #
coedge $-1 $318 $317 $316 $380 forward $204 $-1 #
edge $-1 $442 0 $394 0.375 $316 $443 forward 7 unknown #
edge $-1 $382 0 $442 3.1415926535897931 $376 $444 forward 7 unknown #
vertex $-1 $441 $445 #
vertex $-1 $393 $446 #
straight-curve $-1 10.625 -0.25 6.5 0 -1 0 I I #
coedge $-1 $321 $321 $322 $386 forward $262 $-1 #
edge $-1 $327 0 $387 3.1415926535897931 $385 $447 forward 7 unknown #
vertex $-1 $386 $448 #
straight-curve $-1 -10.625 -0.25 -6.5 0 -1 0 I I #
ellipse-curve $-1 -11 -0.25 -6.5 0 1 0 -0.375 0 0 1 I I #
point $-1 -11.375 -0.25 -6.5 #
point $-1 -11.375 -0.625 -6.5 #
loop $-1 $449 $362 $67 #
edge $-1 $383 0 $394 3.1415926535897931 $331 $450 forward 7 unknown #
vertex $-1 $393 $451 #
ellipse-curve $-1 11 -0.625 6.5 0 -1 0 0.375 0 0 1 I I #
ellipse-curve $-1 -11 -0.625 -6.5 0 -1 0 -0.375 0 0 1 I I #
point $-1 -10.625 -0.625 -6.5 #
loop $-1 $452 $453 $4 #
coedge $-1 $454 $454 $455 $456 forward $336 $-1 #
coedge $-1 $337 $337 $457 $458 forward $275 $-1 #
coedge $-1 $459 $460 $337 $402 reversed $461 $-1 #
edge $-1 $462 0 $463 3.1415926535897931 $337 $464 forward 7 unknown #
coedge $-1 $339 $338 $465 $466 reversed $218 $-1 #
coedge $-1 $467 $468 $338 $405 forward $469 $-1 #
edge $-1 $470 0 $411 23.75 $338 $471 forward 7 unknown #
coedge $-1 $472 $473 $339 $407 forward $474 $-1 #
edge $-1 $412 0 $475 23.75 $339 $476 forward 7 unknown #
coedge $-1 $477 $340 $473 $478 forward $410 $-1 #
coedge $-1 $340 $477 $467 $479 reversed $410 $-1 #
loop $-1 $-1 $408 $480 #
vertex $-1 $405 $481 #
vertex $-1 $407 $482 #
straight-curve $-1 -11.875 0 7.5625 0 0 -1 I I #
coedge $-1 $483 $342 $345 $420 forward $416 $-1 #
coedge $-1 $342 $483 $344 $419 reversed $416 $-1 #
loop $-1 $-1 $414 $484 #
ellipse-curve $-1 0 0 -7.0625 0 -1 0 0.1875 0 0 1 I I #
coedge $-1 $345 $344 $485 $486 forward $346 $-1 #
edge $-1 $347 0 $487 0.625 $415 $488 forward 7 unknown #
edge $-1 $348 0 $489 0.625 $414 $490 forward 7 unknown #
face $-1 $484 $346 $3 $-1 $491 reversed single #
point $-1 -0.1875 0 -7.0625 #
point $-1 0.1875 0 -7.0625 #
coedge $-1 $351 $350 $492 $493 forward $352 $-1 #
face $-1 $421 $352 $3 $-1 $494 reversed single #
coedge $-1 $492 $492 $354 $427 reversed $449 $-1 #
edge $-1 $428 0 $430 3.1415926535897931 $426 $495 forward 7 unknown #
vertex $-1 $493 $496 #
straight-curve $-1 9.9375 0 7.0625 0 -1 0 I I #
vertex $-1 $493 $497 #
straight-curve $-1 10.3125 0 7.0625 0 -1 0 I I #
cone-surface $-1 10.125 0 7.0625 0 -1 0 0.1875 0 0 1 I I 0 1 0.1875 forward I I I I #
coedge $-1 $362 $362 $360 $434 reversed $392 $-1 #
edge $-1 $366 0 $364 3.1415926535897931 $433 $498 forward 7 unknown #
cone-surface $-1 0 0 7.0625 0 -1 0 0.1875 0 0 1 I I 0 1 0.1875 forward I I I I #
ellipse-curve $-1 0 -0.625 7.0625 0 -1 0 -0.1875 0 0 1 I I #
point $-1 -0.1875 -0.625 7.0625 #
point $-1 0.1875 -0.625 7.0625 #
ellipse-curve $-1 -10.125 -0.625 -7.0625 0 -1 0 0.1875 0 0 1 I I #
coedge $-1 $376 $376 $377 $441 forward $314 $-1 #
edge $-1 $382 0 $442 3.1415926535897931 $440 $499 forward 7 unknown #
vertex $-1 $441 $500 #
straight-curve $-1 11.375 -0.25 6.5 0 -1 0 I I #
ellipse-curve $-1 11 -0.25 6.5 0 1 0 -0.375 0 0 1 I I #
point $-1 10.625 -0.25 6.5 #
point $-1 10.625 -0.625 6.5 #
ellipse-curve $-1 -11 -0.25 -6.5 0 -1 0 -0.375 0 0 1 I I #
point $-1 -10.625 -0.25 -6.5 #
loop $-1 $501 $426 $67 #
ellipse-curve $-1 11 -0.625 6.5 0 -1 0 -0.375 0 0 1 I I #
point $-1 11.375 -0.625 6.5 #
loop $-1 $-1 $502 $4 #
coedge $-1 $503 $503 $504 $505 reversed $398 $-1 #
coedge $-1 $399 $399 $506 $507 forward $336 $-1 #
coedge $-1 $508 $509 $399 $456 reversed $510 $-1 #
edge $-1 $511 0 $512 3.1415926535897962 $399 $513 forward 7 unknown #
coedge $-1 $514 $515 $400 $458 reversed $516 $-1 #
edge $-1 $463 0 $462 3.1415926535897931 $400 $517 forward 7 unknown #
coedge $-1 $518 $401 $515 $519 forward $461 $-1 #
coedge $-1 $401 $518 $514 $520 reversed $461 $-1 #
loop $-1 $-1 $459 $521 #
vertex $-1 $458 $522 #
vertex $-1 $458 $523 #
ellipse-curve $-1 10.125 0 -7.0625 0 -1 0 -0.1875 0 0 1 I I #
coedge $-1 $524 $525 $403 $466 forward $526 $-1 #
edge $-1 $475 0 $470 15.125 $403 $527 forward 7 unknown #
coedge $-1 $528 $404 $409 $479 forward $469 $-1 #
coedge $-1 $404 $528 $524 $529 reversed $469 $-1 #
loop $-1 $-1 $467 $530 #
vertex $-1 $466 $531 #
straight-curve $-1 11.875 0 7.5625 -1 0 0 I I #
coedge $-1 $532 $406 $525 $533 forward $474 $-1 #
coedge $-1 $406 $532 $408 $478 reversed $474 $-1 #
loop $-1 $-1 $472 $534 #
vertex $-1 $407 $535 #
straight-curve $-1 -11.875 0 -7.5625 1 0 0 I I #
coedge $-1 $409 $408 $536 $537 reversed $410 $-1 #
edge $-1 $412 0 $538 0.625 $473 $539 forward 7 unknown #
edge $-1 $411 0 $540 0.625 $467 $541 forward 7 unknown #
face $-1 $534 $410 $3 $-1 $542 forward single #
point $-1 -11.875 0 7.5625 #
point $-1 -11.875 0 -7.5625 #
coedge $-1 $415 $414 $543 $544 forward $416 $-1 #
face $-1 $545 $416 $3 $-1 $546 reversed single #
coedge $-1 $543 $543 $418 $486 reversed $501 $-1 #
edge $-1 $487 0 $489 3.1415926535897931 $485 $547 forward 7 unknown #
vertex $-1 $544 $548 #
straight-curve $-1 -0.1875 0 -7.0625 0 -1 0 I I #
vertex $-1 $544 $549 #
straight-curve $-1 0.1875 0 -7.0625 0 -1 0 I I #
cone-surface $-1 0 0 -7.0625 0 -1 0 0.1875 0 0 1 I I 0 1 0.1875 forward I I I I #
coedge $-1 $426 $426 $424 $493 reversed $449 $-1 #
edge $-1 $430 0 $428 3.1415926535897931 $492 $550 forward 7 unknown #
cone-surface $-1 10.125 0 7.0625 0 -1 0 0.1875 0 0 1 I I 0 1 0.1875 forward I I I I #
ellipse-curve $-1 10.125 -0.625 7.0625 0 -1 0 -0.1875 0 0 1 I I #
point $-1 9.9375 -0.625 7.0625 #
point $-1 10.3125 -0.625 7.0625 #
ellipse-curve $-1 0 -0.625 7.0625 0 -1 0 0.1875 0 0 1 I I #
ellipse-curve $-1 11 -0.25 6.5 0 -1 0 -0.375 0 0 1 I I #
point $-1 11.375 -0.25 6.5 #
loop $-1 $551 $485 $67 #
coedge $-1 $552 $552 $553 $554 reversed $452 $-1 #
coedge $-1 $453 $453 $555 $556 reversed $398 $-1 #
coedge $-1 $557 $558 $453 $505 forward $559 $-1 #
edge $-1 $560 0 $561 3.1415926535897931 $453 $562 forward 7 unknown #
coedge $-1 $563 $564 $454 $507 reversed $565 $-1 #
edge $-1 $512 0 $511 3.1415926535897962 $454 $566 forward 7 unknown #
coedge $-1 $567 $455 $564 $568 forward $510 $-1 #
coedge $-1 $455 $567 $563 $569 reversed $510 $-1 #
loop $-1 $-1 $508 $570 #
vertex $-1 $507 $571 #
vertex $-1 $507 $572 #
ellipse-curve $-1 11 0 -6.4999999999999991 0 -1 0 0.5154999999999994 0 -8.8817841970012523e-016 1 I I #
coedge $-1 $573 $457 $460 $520 forward $516 $-1 #
coedge $-1 $457 $573 $459 $519 reversed $516 $-1 #
loop $-1 $-1 $514 $574 #
ellipse-curve $-1 10.125 0 -7.0625 0 -1 0 0.1875 0 0 1 I I #
coedge $-1 $460 $459 $575 $576 forward $461 $-1 #
edge $-1 $462 0 $577 0.625 $515 $578 forward 7 unknown #
edge $-1 $463 0 $579 0.625 $514 $580 forward 7 unknown #
face $-1 $574 $461 $3 $-1 $581 reversed single #
point $-1 9.9375 0 -7.0625 #
point $-1 10.3125 0 -7.0625 #
coedge $-1 $582 $465 $468 $529 forward $526 $-1 #
coedge $-1 $465 $582 $472 $533 reversed $526 $-1 #
loop $-1 $-1 $524 $545 #
straight-curve $-1 11.875 0 -7.5625 0 0 1 I I #
coedge $-1 $468 $467 $583 $584 reversed $469 $-1 #
edge $-1 $470 0 $585 0.625 $524 $586 forward 7 unknown #
face $-1 $480 $469 $3 $-1 $587 forward single #
point $-1 11.875 0 7.5625 #
coedge $-1 $473 $472 $588 $589 reversed $474 $-1 #
edge $-1 $475 0 $590 0.625 $472 $591 forward 7 unknown #
face $-1 $521 $474 $3 $-1 $592 forward single #
point $-1 11.875 0 -7.5625 #
coedge $-1 $588 $583 $477 $537 forward $551 $-1 #
edge $-1 $540 0 $538 15.125 $536 $593 forward 7 unknown #
vertex $-1 $589 $594 #
straight-curve $-1 -11.875 0 -7.5625 0 -1 0 I I #
vertex $-1 $537 $595 #
straight-curve $-1 -11.875 0 7.5625 0 -1 0 I I #
plane-surface $-1 -11.875 0 7.5625 -1 0 0 0 0 -1 forward_v I I I I #
coedge $-1 $485 $485 $483 $544 reversed $501 $-1 #
edge $-1 $489 0 $487 3.1415926535897931 $543 $596 forward 7 unknown #
face $-1 $530 $526 $3 $-1 $597 forward single #
cone-surface $-1 0 0 -7.0625 0 -1 0 0.1875 0 0 1 I I 0 1 0.1875 forward I I I I #
ellipse-curve $-1 0 -0.625 -7.0625 0 -1 0 -0.1875 0 0 1 I I #
point $-1 -0.1875 -0.625 -7.0625 #
point $-1 0.1875 -0.625 -7.0625 #
ellipse-curve $-1 10.125 -0.625 7.0625 0 -1 0 0.1875 0 0 1 I I #
loop $-1 $598 $599 $67 #
coedge $-1 $502 $502 $600 $601 reversed $452 $-1 #
coedge $-1 $602 $603 $502 $554 forward $604 $-1 #
edge $-1 $605 0 $606 3.1415926535898011 $502 $607 forward 7 unknown #
coedge $-1 $608 $609 $503 $556 forward $610 $-1 #
edge $-1 $561 0 $560 3.1415926535897931 $503 $611 forward 7 unknown #
coedge $-1 $612 $504 $609 $613 forward $559 $-1 #
coedge $-1 $504 $612 $608 $614 reversed $559 $-1 #
loop $-1 $-1 $557 $615 #
vertex $-1 $556 $616 #
vertex $-1 $556 $617 #
ellipse-curve $-1 -4.7999999999999998 0 -0.5 0 1 0 0 0 -0.21999999999999975 1 I I #
coedge $-1 $618 $506 $509 $569 forward $565 $-1 #
coedge $-1 $506 $618 $508 $568 reversed $565 $-1 #
loop $-1 $-1 $563 $619 #
ellipse-curve $-1 11 0 -6.5000000000000009 0 -1 0 -0.5154999999999994 0 8.8817841970012523e-016 1 I I #
coedge $-1 $509 $508 $620 $621 reversed $510 $-1 #
edge $-1 $511 0 $622 0.25 $564 $623 forward 7 unknown #
edge $-1 $512 0 $624 0.25 $563 $625 forward 7 unknown #
face $-1 $626 $510 $3 $-1 $627 reversed single #
point $-1 11.515499999999999 0 -6.5 #
point $-1 10.484500000000001 0 -6.5 #
coedge $-1 $515 $514 $628 $629 forward $516 $-1 #
face $-1 $630 $516 $3 $-1 $631 reversed single #
coedge $-1 $628 $628 $518 $576 reversed $598 $-1 #
edge $-1 $577 0 $579 3.1415926535897931 $575 $632 forward 7 unknown #
vertex $-1 $629 $633 #
straight-curve $-1 9.9375 0 -7.0625 0 -1 0 I I #
vertex $-1 $629 $634 #
straight-curve $-1 10.3125 0 -7.0625 0 -1 0 I I #
cone-surface $-1 10.125 0 -7.0625 0 -1 0 0.1875 0 0 1 I I 0 1 0.1875 forward I I I I #
coedge $-1 $525 $524 $599 $635 reversed $526 $-1 #
coedge $-1 $536 $599 $528 $584 forward $551 $-1 #
edge $-1 $585 0 $540 23.75 $583 $636 forward 7 unknown #
vertex $-1 $584 $637 #
straight-curve $-1 11.875 0 7.5625 0 -1 0 I I #
plane-surface $-1 11.875 0 7.5625 0 0 1 -1 0 0 forward_v I I I I #
coedge $-1 $599 $536 $532 $589 forward $551 $-1 #
edge $-1 $538 0 $590 23.75 $588 $638 forward 7 unknown #
vertex $-1 $589 $639 #
straight-curve $-1 11.875 0 -7.5625 0 -1 0 I I #
plane-surface $-1 -11.875 0 -7.5625 0 0 -1 1 0 0 forward_v I I I I #
straight-curve $-1 -11.875 -0.625 7.5625 0 0 -1 I I #
point $-1 -11.875 -0.625 -7.5625 #
point $-1 -11.875 -0.625 7.5625 #
ellipse-curve $-1 0 -0.625 -7.0625 0 -1 0 0.1875 0 0 1 I I #
plane-surface $-1 11.875 0 -7.5625 1 0 0 0 0 1 forward_v I I I I #
loop $-1 $640 $575 $67 #
coedge $-1 $583 $588 $582 $635 forward $551 $-1 #
coedge $-1 $641 $642 $552 $601 forward $643 $-1 #
edge $-1 $606 0 $605 3.1415926535898011 $552 $644 forward 7 unknown #
coedge $-1 $645 $553 $642 $646 reversed $604 $-1 #
coedge $-1 $553 $645 $641 $647 forward $604 $-1 #
loop $-1 $-1 $602 $648 #
vertex $-1 $601 $649 #
vertex $-1 $601 $650 #
ellipse-curve $-1 5.0000000000000009 0 -2.7755575615628914e-017 0 1 0 -8.8817841970012523e-016 0 0.2200000000000002 1 I I #
coedge $-1 $651 $555 $558 $614 forward $610 $-1 #
coedge $-1 $555 $651 $557 $613 reversed $610 $-1 #
loop $-1 $-1 $608 $652 #
ellipse-curve $-1 -4.7999999999999998 0 -0.5 0 1 0 0 0 0.21999999999999975 1 I I #
coedge $-1 $558 $557 $653 $654 reversed $559 $-1 #
edge $-1 $561 1.1102230246251565e-016 $655 0.18800000000000072 $609 $656 forward 7 unknown #
edge $-1 $560 1.1102230246251565e-016 $657 0.18800000000000072 $608 $658 forward 7 unknown #
face $-1 $659 $559 $3 $-1 $660 reversed single #
point $-1 -4.7999999999999998 0 -0.71999999999999975 #
point $-1 -4.7999999999999998 0 -0.28000000000000025 #
coedge $-1 $564 $563 $661 $662 forward $565 $-1 #
face $-1 $570 $565 $3 $-1 $663 reversed single #
coedge $-1 $661 $661 $567 $621 forward $664 $-1 #
edge $-1 $624 0 $622 3.1415926535897931 $620 $665 forward 7 unknown #
vertex $-1 $568 $666 #
straight-curve $-1 11.515499999999999 0 -6.5 0 -1 0 I I #
vertex $-1 $662 $667 #
straight-curve $-1 10.484500000000001 0 -6.5 0 -1 0 I I #
face $-1 $668 $669 $3 $-1 $670 reversed single #
cone-surface $-1 11 0.03125 -6.5 0 -1 0 -0.51549999999999996 0 0 1 I I 0 1 0.51549999999999996 forward I I I I #
coedge $-1 $575 $575 $573 $629 reversed $598 $-1 #
edge $-1 $579 0 $577 3.1415926535897931 $628 $671 forward 7 unknown #
face $-1 $672 $673 $3 $-1 $674 reversed single #
cone-surface $-1 10.125 0 -7.0625 0 -1 0 0.1875 0 0 1 I I 0 1 0.1875 forward I I I I #
ellipse-curve $-1 10.125 -0.625 -7.0625 0 -1 0 -0.1875 0 0 1 I I #
point $-1 9.9375 -0.625 -7.0625 #
point $-1 10.3125 -0.625 -7.0625 #
edge $-1 $590 0 $585 15.125 $599 $675 forward 7 unknown #
straight-curve $-1 11.875 -0.625 7.5625 -1 0 0 I I #
point $-1 11.875 -0.625 7.5625 #
straight-curve $-1 -11.875 -0.625 -7.5625 1 0 0 I I #
point $-1 11.875 -0.625 -7.5625 #
loop $-1 $676 $677 $67 #
coedge $-1 $678 $600 $603 $647 reversed $643 $-1 #
coedge $-1 $600 $678 $602 $646 forward $643 $-1 #
loop $-1 $-1 $641 $679 #
ellipse-curve $-1 4.9999999999999991 0 -2.7755575615628914e-017 0 1 0 8.8817841970012523e-016 0 -0.2200000000000002 1 I I #
coedge $-1 $603 $602 $680 $681 forward $604 $-1 #
edge $-1 $682 0 $606 0.1899999999999995 $642 $683 forward 7 unknown #
edge $-1 $684 0 $605 0.1899999999999995 $641 $685 forward 7 unknown #
face $-1 $679 $604 $3 $-1 $686 reversed single #
point $-1 5 0 0.22000000000000017 #
point $-1 5 0 -0.22000000000000022 #
coedge $-1 $609 $608 $687 $688 forward $610 $-1 #
face $-1 $615 $610 $3 $-1 $689 reversed single #
coedge $-1 $687 $687 $612 $654 forward $690 $-1 #
edge $-1 $657 0 $655 3.1415926535898011 $653 $691 forward 7 unknown #
vertex $-1 $613 $692 #
straight-curve $-1 -4.7999999999999998 1.1102230246251565e-016 -0.28000000000000025 0 -1 0 I I #
vertex $-1 $688 $693 #
straight-curve $-1 -4.7999999999999998 1.1102230246251565e-016 -0.71999999999999975 0 -1 0 I I #
face $-1 $694 $695 $3 $-1 $696 reversed single #
cone-surface $-1 -4.7999999999999998 0.66614311917981439 -0.5 0 -1 0 0 0 -0.21999999999999975 1 I I 0 1 0.21999999999999975 forward I I I I #
coedge $-1 $620 $620 $618 $662 reversed $664 $-1 #
edge $-1 $624 0 $622 3.1415926535897931 $618 $697 forward 7 unknown #
cone-surface $-1 11 0.03125 -6.5 0 -1 0 -0.51549999999999996 0 0 1 I I 0 1 0.51549999999999996 forward I I I I #
loop $-1 $-1 $661 $698 #
ellipse-curve $-1 11 -0.25 -6.5 0 1 0 -0.5154999999999994 0 0 1 I I #
point $-1 11.515499999999999 -0.25 -6.5 #
point $-1 10.484500000000001 -0.25 -6.5 #
face $-1 $699 $700 $3 $-1 $701 reversed single #
loop $-1 $-1 $702 $626 #
cone-surface $-1 -4.7999999999999998 0.66614311917981439 -0.5 0 -1 0 0 0 -0.12999999999999901 1 I I 0 1 0.12999999999999901 forward I I I I #
ellipse-curve $-1 10.125 -0.625 -7.0625 0 -1 0 0.1875 0 0 1 I I #
face $-1 $698 $703 $3 $-1 $704 reversed single #
loop $-1 $-1 $705 $630 #
cone-surface $-1 11 0.03125 -6.5 0 -1 0 -0.375 0 0 1 I I 0 1 0.375 forward I I I I #
straight-curve $-1 11.875 -0.625 -7.5625 0 0 1 I I #
loop $-1 $706 $707 $67 #
coedge $-1 $708 $708 $709 $710 reversed $640 $-1 #
coedge $-1 $642 $641 $711 $712 reversed $643 $-1 #
face $-1 $-1 $643 $3 $-1 $713 reversed single #
coedge $-1 $711 $711 $645 $681 reversed $714 $-1 #
edge $-1 $682 0 $684 3.1415926535897931 $680 $715 forward 7 unknown #
vertex $-1 $712 $716 #
straight-curve $-1 5 -0.1899999999999995 -0.2200000000000002 0 1 0 I I #
vertex $-1 $712 $717 #
straight-curve $-1 5 -0.1899999999999995 0.2200000000000002 0 1 0 I I #
cone-surface $-1 5 -13.890578337421791 0 0 1 0 0 0 -0.2200000000000002 1 I I 0 1 0.2200000000000002 forward I I I I #
coedge $-1 $653 $653 $651 $688 reversed $690 $-1 #
edge $-1 $657 0 $655 3.1415926535898011 $651 $718 forward 7 unknown #
cone-surface $-1 -4.7999999999999998 0.66614311917981439 -0.5 0 -1 0 0 0 -0.21999999999999975 1 I I 0 1 0.21999999999999975 forward I I I I #
loop $-1 $-1 $687 $699 #
ellipse-curve $-1 -4.8000000000000007 -0.18800000000000061 -0.5 0 1 0 8.8817841970012523e-016 0 -0.21999999999999975 1 I I #
point $-1 -4.7999999999999998 -0.18800000000000061 -0.28000000000000025 #
point $-1 -4.7999999999999998 -0.18800000000000061 -0.71999999999999975 #
face $-1 $719 $720 $3 $-1 $721 reversed single #
loop $-1 $-1 $722 $659 #
cone-surface $-1 5 -13.890578337421791 0 0 1 0 0 0 -0.12999999999999989 1 I I 0 1 0.12999999999999989 forward I I I I #
ellipse-curve $-1 11 -0.25 -6.5 0 -1 0 -0.5154999999999994 0 0 1 I I #
face $-1 $619 $723 $3 $-1 $724 reversed single #
face $-1 $652 $725 $3 $-1 $726 reversed single #
loop $-1 $-1 $727 $668 #
cone-surface $-1 -4.7999999999999998 0.66614311917981439 -0.5 0 -1 0 0 0 -0.12999999999999901 1 I I 0 1 0.12999999999999901 forward I I I I #
coedge $-1 $728 $729 $730 $731 reversed $669 $-1 #
loop $-1 $-1 $732 $672 #
cone-surface $-1 11 0.03125 -6.5 0 -1 0 -0.375 0 0 1 I I 0 1 0.375 forward I I I I #
coedge $-1 $733 $709 $734 $735 reversed $673 $-1 #
loop $-1 $-1 $736 $67 #
coedge $-1 $737 $737 $729 $738 forward $676 $-1 #
coedge $-1 $677 $677 $739 $740 reversed $640 $-1 #
coedge $-1 $705 $741 $677 $710 forward $673 $-1 #
edge $-1 $742 0 $743 3.1415926535897931 $677 $744 forward 7 unknown #
coedge $-1 $680 $680 $678 $712 forward $714 $-1 #
edge $-1 $682 0 $684 3.1415926535897931 $711 $745 forward 7 unknown #
cone-surface $-1 5 -13.890578337421791 0 0 1 0 0 0 -0.2200000000000002 1 I I 0 1 0.2200000000000002 forward I I I I #
loop $-1 $746 $680 $719 #
ellipse-curve $-1 5 -0.1899999999999995 -6.9388939039072284e-018 0 -1 0 0 0 -0.2200000000000002 1 I I #
point $-1 5 -0.1899999999999995 -0.2200000000000002 #
point $-1 5 -0.1899999999999995 0.2200000000000002 #
ellipse-curve $-1 -4.7999999999999989 -0.18800000000000061 -0.5 0 -1 0 -8.8817841970012523e-016 0 -0.21999999999999975 1 I I #
face $-1 $648 $714 $3 $-1 $747 forward single #
loop $-1 $-1 $748 $694 #
cone-surface $-1 5 -13.890578337421791 0 0 1 0 0 0 -0.12999999999999989 1 I I 0 1 0.12999999999999989 forward I I I I #
coedge $-1 $749 $750 $751 $752 forward $695 $-1 #
loop $-1 $664 $753 $698 #
plane-surface $-1 11 -0.25 -6.5 0 -1 0 -1 0 0 forward_v I I I I #
loop $-1 $690 $754 $699 #
plane-surface $-1 -4.7999999999999998 -0.18800000000000061 -0.5 0 -1 0 0 0 -1 forward_v I I I I #
coedge $-1 $755 $756 $757 $758 reversed $700 $-1 #
coedge $-1 $757 $702 $754 $759 forward $669 $-1 #
coedge $-1 $702 $757 $707 $738 reversed $669 $-1 #
coedge $-1 $756 $755 $702 $731 forward $700 $-1 #
edge $-1 $760 0 $761 0.43699999999999939 $730 $762 forward 7 unknown #
coedge $-1 $763 $739 $741 $764 reversed $703 $-1 #
coedge $-1 $741 $705 $753 $765 forward $673 $-1 #
coedge $-1 $739 $763 $705 $735 forward $703 $-1 #
edge $-1 $766 0 $743 0.375 $734 $767 forward 7 unknown #
coedge $-1 $768 $768 $750 $769 forward $706 $-1 #
coedge $-1 $707 $707 $756 $770 forward $676 $-1 #
edge $-1 $761 0 $771 3.1415926535897931 $707 $772 forward 7 unknown #
coedge $-1 $732 $734 $708 $740 forward $703 $-1 #
edge $-1 $743 0 $742 3.1415926535897931 $708 $773 forward 7 unknown #
coedge $-1 $709 $733 $732 $764 forward $673 $-1 #
vertex $-1 $740 $774 #
vertex $-1 $740 $775 #
ellipse-curve $-1 11 -0.625 -6.5 0 -1 0 0.375 0 0 1 I I #
ellipse-curve $-1 5 -0.1899999999999995 -6.9388939039072284e-018 0 1 0 0 0 -0.2200000000000002 1 I I #
loop $-1 $-1 $776 $719 #
plane-surface $-1 5 -0.1899999999999995 0 0 1 0 0 0 -1 forward_v I I I I #
coedge $-1 $777 $778 $779 $780 forward $720 $-1 #
coedge $-1 $779 $722 $781 $782 reversed $695 $-1 #
coedge $-1 $722 $779 $736 $769 reversed $695 $-1 #
coedge $-1 $778 $777 $722 $752 reversed $720 $-1 #
edge $-1 $783 0 $784 0.4350000000000005 $751 $785 forward 7 unknown #
coedge $-1 $786 $786 $733 $765 reversed $723 $-1 #
coedge $-1 $787 $787 $728 $759 reversed $725 $-1 #
coedge $-1 $730 $727 $787 $788 reversed $700 $-1 #
coedge $-1 $727 $730 $737 $770 reversed $700 $-1 #
coedge $-1 $729 $728 $727 $758 forward $669 $-1 #
edge $-1 $789 0 $771 0.43699999999999939 $727 $790 forward 7 unknown #
edge $-1 $760 0 $789 3.1415926535897798 $754 $791 forward 7 unknown #
vertex $-1 $788 $792 #
vertex $-1 $770 $793 #
straight-curve $-1 -4.7999999999999998 -0.18800000000000061 -0.62999999999999901 0 -1 0 I I #
coedge $-1 $734 $732 $786 $794 reversed $703 $-1 #
edge $-1 $795 0 $742 0.375 $732 $796 forward 7 unknown #
edge $-1 $766 0 $795 3.1415926535897931 $753 $797 forward 7 unknown #
vertex $-1 $794 $798 #
straight-curve $-1 10.625 -0.25 -6.5 0 -1 0 I I #
coedge $-1 $736 $736 $778 $799 forward $706 $-1 #
edge $-1 $783 0 $800 3.1415926535897931 $736 $801 forward 7 unknown #
edge $-1 $771 0 $761 3.1415926535897931 $737 $802 forward 7 unknown #
vertex $-1 $770 $803 #
ellipse-curve $-1 -4.7999999999999998 -0.625 -0.50000000000000011 0 1 0 0 0 -0.12999999999999901 1 I I #
ellipse-curve $-1 11 -0.625 -6.5 0 -1 0 -0.375 0 0 1 I I #
point $-1 11.375 -0.625 -6.5 #
point $-1 10.625 -0.625 -6.5 #
coedge $-1 $781 $781 $777 $804 reversed $746 $-1 #
coedge $-1 $751 $748 $776 $804 forward $720 $-1 #
coedge $-1 $748 $751 $768 $799 reversed $720 $-1 #
coedge $-1 $750 $749 $748 $780 reversed $695 $-1 #
edge $-1 $800 0 $805 0.4350000000000005 $748 $806 forward 7 unknown #
coedge $-1 $776 $776 $749 $782 forward $746 $-1 #
edge $-1 $805 0 $784 3.1415926535897931 $781 $807 forward 7 unknown #
vertex $-1 $799 $808 #
vertex $-1 $752 $809 #
straight-curve $-1 5 -0.625 0.12999999999999989 0 1 0 I I #
coedge $-1 $753 $753 $763 $794 forward $723 $-1 #
coedge $-1 $754 $754 $755 $788 forward $725 $-1 #
edge $-1 $760 0 $789 3.1415926535897798 $787 $810 forward 7 unknown #
vertex $-1 $788 $811 #
straight-curve $-1 -4.7999999999999998 -0.18800000000000061 -0.37000000000000099 0 -1 0 I I #
ellipse-curve $-1 -4.7999999999999989 -0.18800000000000061 -0.5 0 1 0 -8.8817841970012523e-016 0 -0.12999999999999901 1 I I #
point $-1 -4.7999999999999998 -0.18800000000000061 -0.62999999999999901 #
point $-1 -4.7999999999999998 -0.625 -0.62999999999999912 #
edge $-1 $766 0 $795 3.1415926535897931 $786 $812 forward 7 unknown #
vertex $-1 $794 $813 #
straight-curve $-1 11.375 -0.25 -6.5 0 -1 0 I I #
ellipse-curve $-1 11 -0.25 -6.5 0 1 0 -0.375 0 0 1 I I #
point $-1 10.625 -0.25 -6.5 #
edge $-1 $800 0 $783 3.1415926535897931 $768 $814 forward 7 unknown #
vertex $-1 $799 $815 #
ellipse-curve $-1 5 -0.625 -9.0205620750793969e-017 0 1 0 0 0 0.12999999999999989 1 I I #
ellipse-curve $-1 -4.7999999999999998 -0.625 -0.50000000000000011 0 1 0 0 0 0.12999999999999901 1 I I #
point $-1 -4.7999999999999998 -0.625 -0.37000000000000111 #
edge $-1 $805 0 $784 3.1415926535897931 $777 $816 forward 7 unknown #
vertex $-1 $804 $817 #
straight-curve $-1 5 -0.625 -0.12999999999999989 0 1 0 I I #
ellipse-curve $-1 5 -0.1899999999999995 1.0408340855860843e-017 0 -1 0 0 0 -0.13000000000000167 1 I I #
point $-1 5 -0.625 0.12999999999999981 #
point $-1 5 -0.1899999999999995 0.13000000000000167 #
ellipse-curve $-1 -4.8000000000000007 -0.18800000000000061 -0.5 0 -1 0 8.8817841970012523e-016 0 -0.12999999999999901 1 I I #
point $-1 -4.7999999999999998 -0.18800000000000061 -0.37000000000000099 #
ellipse-curve $-1 11 -0.25 -6.5 0 -1 0 -0.375 0 0 1 I I #
point $-1 11.375 -0.25 -6.5 #
ellipse-curve $-1 5 -0.625 -9.0205620750793969e-017 0 1 0 0 0 -0.12999999999999989 1 I I #
point $-1 5 -0.625 -0.12999999999999998 #
ellipse-curve $-1 5 -0.1899999999999995 1.0408340855860843e-017 0 1 0 0 0 -0.13000000000000167 1 I I #
point $-1 5 -0.1899999999999995 -0.13000000000000167 #
End-of-ACIS-data 