600 0 1 0           
116 GICL Pro/E ACIS Translator - Source: f:/data5/repository/PTC/V20/prod_appl/assoc_demo/mold/ejector_plate.prt.6 - 6 0 13 ACIS 6.0.3 NT 24 Thu Apr 04 13:16:16 2002 
1 9.9999999999999995e-007 1e-010 
body $-1 $1 $-1 $2 #
lump $-1 $-1 $3 $0 #
transform $-1 1 0 0 0 1 0 0 0 1 0 0 0 25.399999999999999 no_rotate no_reflect no_shear #
shell $-1 $-1 $-1 $4 $-1 $1 #
face $-1 $5 $6 $3 $-1 $7 reversed single #
face $-1 $8 $9 $3 $-1 $10 reversed single #
loop $-1 $11 $12 $4 #
plane-surface $-1 0 0 0 0 -1 0 -1 0 0 forward_v I I I I #
face $-1 $13 $14 $3 $-1 $15 reversed single #
loop $-1 $-1 $16 $5 #
cone-surface $-1 -10.125 0.0625 7.0625 0 -1 0 -0.3125 0 0 1 I I 0 1 0.3125 forward I I I I #
loop $-1 $17 $18 $4 #
coedge $-1 $19 $19 $20 $21 forward $6 $-1 #
face $-1 $22 $23 $3 $-1 $24 reversed single #
loop $-1 $-1 $25 $8 #
cone-surface $-1 -10.125 0.0625 7.0625 0 -1 0 -0.3125 0 0 1 I I 0 1 0.3125 forward I I I I #
coedge $-1 $26 $20 $27 $28 forward $9 $-1 #
loop $-1 $29 $30 $4 #
coedge $-1 $31 $31 $32 $33 forward $11 $-1 #
coedge $-1 $12 $12 $34 $35 forward $6 $-1 #
coedge $-1 $16 $36 $12 $21 reversed $9 $-1 #
edge $-1 $37 0 $38 3.1415926535897931 $12 $39 forward 7 unknown #
face $-1 $40 $41 $3 $-1 $42 reversed single #
loop $-1 $43 $44 $13 #
plane-surface $-1 -10.125 -0.40999999999999998 7.0625 0 -1 0 -1 0 0 forward_v I I I I #
coedge $-1 $45 $34 $36 $46 forward $14 $-1 #
coedge $-1 $36 $16 $47 $48 reversed $9 $-1 #
coedge $-1 $34 $45 $16 $28 reversed $14 $-1 #
edge $-1 $37 0 $49 0.40999999999999998 $27 $50 forward 7 unknown #
loop $-1 $51 $52 $4 #
coedge $-1 $53 $53 $54 $55 forward $17 $-1 #
coedge $-1 $18 $18 $56 $57 forward $11 $-1 #
coedge $-1 $58 $59 $18 $33 reversed $60 $-1 #
edge $-1 $61 0 $62 3.1415926535897931 $18 $63 forward 7 unknown #
coedge $-1 $25 $27 $19 $35 reversed $14 $-1 #
edge $-1 $38 0 $37 3.1415926535897931 $19 $64 forward 7 unknown #
coedge $-1 $20 $26 $25 $46 reversed $9 $-1 #
vertex $-1 $35 $65 #
vertex $-1 $35 $66 #
ellipse-curve $-1 -10.125 0 7.0625 0 -1 0 0.3125 0 0 1 I I #
face $-1 $67 $68 $3 $-1 $69 reversed single #
loop $-1 $-1 $70 $22 #
cone-surface $-1 -10.125 0.0625 7.0625 0 -1 0 -0.20300000000000001 0 0 1 I I 0 1 0.20300000000000001 forward I I I I #
loop $-1 $-1 $71 $13 #
coedge $-1 $72 $72 $73 $74 reversed $23 $-1 #
coedge $-1 $27 $25 $71 $75 forward $14 $-1 #
edge $-1 $38 0 $76 0.40999999999999998 $25 $77 forward 7 unknown #
coedge $-1 $71 $71 $26 $48 forward $43 $-1 #
edge $-1 $76 0 $49 3.1415926535897873 $47 $78 forward 7 unknown #
vertex $-1 $28 $79 #
straight-curve $-1 -9.8125 0 7.0625 0 -1 0 I I #
loop $-1 $80 $81 $4 #
coedge $-1 $82 $82 $83 $84 forward $29 $-1 #
coedge $-1 $30 $30 $85 $86 forward $17 $-1 #
coedge $-1 $87 $88 $30 $55 reversed $89 $-1 #
edge $-1 $90 0 $91 3.1415926535897931 $30 $92 forward 7 unknown #
coedge $-1 $93 $94 $31 $57 reversed $95 $-1 #
edge $-1 $62 0 $61 3.1415926535897931 $31 $96 forward 7 unknown #
coedge $-1 $97 $32 $94 $98 forward $60 $-1 #
coedge $-1 $32 $97 $93 $99 reversed $60 $-1 #
loop $-1 $-1 $58 $100 #
vertex $-1 $57 $101 #
vertex $-1 $57 $102 #
ellipse-curve $-1 -10.125 0 -7.0625 0 -1 0 0.3125 0 0 1 I I #
ellipse-curve $-1 -10.125 0 7.0625 0 -1 0 -0.3125 0 0 1 I I #
point $-1 -9.8125 0 7.0625 #
point $-1 -10.4375 0 7.0625 #
face $-1 $103 $104 $3 $-1 $105 forward single #
loop $-1 $-1 $106 $40 #
cone-surface $-1 -10.125 0.0625 7.0625 0 -1 0 -0.20300000000000001 0 0 1 I I 0 1 0.20300000000000001 forward I I I I #
coedge $-1 $73 $107 $108 $109 reversed $41 $-1 #
coedge $-1 $47 $47 $45 $75 reversed $43 $-1 #
coedge $-1 $44 $44 $110 $111 forward $23 $-1 #
coedge $-1 $112 $70 $44 $74 forward $41 $-1 #
edge $-1 $113 0 $114 3.1415926535897931 $44 $115 forward 7 unknown #
edge $-1 $76 0 $49 3.1415926535897873 $45 $116 forward 7 unknown #
vertex $-1 $75 $117 #
straight-curve $-1 -10.4375 0 7.0625 0 -1 0 I I #
ellipse-curve $-1 -10.125 -0.40999999999999998 7.0624999999999991 0 1 0 -0.3125 0 8.8817841970012523e-016 1 I I #
point $-1 -9.8125 -0.40999999999999998 7.0625 #
loop $-1 $118 $119 $4 #
coedge $-1 $120 $120 $121 $122 forward $51 $-1 #
coedge $-1 $52 $52 $123 $124 forward $29 $-1 #
coedge $-1 $125 $126 $52 $84 reversed $127 $-1 #
edge $-1 $128 0 $129 3.1415926535897931 $52 $130 forward 7 unknown #
coedge $-1 $131 $132 $53 $86 reversed $133 $-1 #
edge $-1 $91 0 $90 3.1415926535897931 $53 $134 forward 7 unknown #
coedge $-1 $135 $54 $132 $136 forward $89 $-1 #
coedge $-1 $54 $135 $131 $137 reversed $89 $-1 #
loop $-1 $-1 $87 $138 #
vertex $-1 $86 $139 #
vertex $-1 $86 $140 #
ellipse-curve $-1 0 0 7.0625 0 -1 0 0.3125 0 0 1 I I #
coedge $-1 $141 $56 $59 $99 forward $95 $-1 #
coedge $-1 $56 $141 $58 $98 reversed $95 $-1 #
loop $-1 $-1 $93 $142 #
ellipse-curve $-1 -10.125 0 -7.0625 0 -1 0 -0.3125 0 0 1 I I #
coedge $-1 $59 $58 $143 $144 reversed $60 $-1 #
edge $-1 $61 0 $145 0.40999999999999998 $94 $146 forward 7 unknown #
edge $-1 $62 0 $147 0.40999999999999998 $93 $148 forward 7 unknown #
face $-1 $149 $60 $3 $-1 $150 reversed single #
point $-1 -9.8125 0 -7.0625 #
point $-1 -10.4375 0 -7.0625 #
face $-1 $151 $152 $3 $-1 $153 reversed single #
loop $-1 $154 $155 $67 #
plane-surface $-1 0 -1.25 0 0 -1 0 -1 0 0 forward_v I I I I #
coedge $-1 $110 $156 $112 $157 reversed $68 $-1 #
coedge $-1 $70 $112 $155 $158 forward $41 $-1 #
coedge $-1 $156 $110 $70 $109 forward $68 $-1 #
edge $-1 $113 0 $159 0.84000000000000008 $108 $160 forward 7 unknown #
coedge $-1 $108 $106 $72 $111 reversed $68 $-1 #
edge $-1 $113 0 $114 3.1415926535897931 $72 $161 forward 7 unknown #
coedge $-1 $107 $73 $106 $157 forward $41 $-1 #
vertex $-1 $111 $162 #
vertex $-1 $111 $163 #
ellipse-curve $-1 -10.125 -0.40999999999999998 7.0625 2.734539469520098e-016 1 0 -0.2029999999999994 5.5511151231257827e-017 0 1 I I #
ellipse-curve $-1 -10.125 -0.40999999999999998 7.0625000000000009 0 -1 0 -0.3125 0 -8.8817841970012523e-016 1 I I #
point $-1 -10.4375 -0.40999999999999998 7.0625 #
loop $-1 $-1 $164 $4 #
coedge $-1 $165 $166 $167 $168 reversed $80 $-1 #
coedge $-1 $81 $81 $169 $170 forward $51 $-1 #
coedge $-1 $171 $172 $81 $122 reversed $173 $-1 #
edge $-1 $174 0 $175 3.1415926535897931 $81 $176 forward 7 unknown #
coedge $-1 $177 $178 $82 $124 reversed $179 $-1 #
edge $-1 $129 0 $128 3.1415926535897931 $82 $180 forward 7 unknown #
coedge $-1 $181 $83 $178 $182 forward $127 $-1 #
coedge $-1 $83 $181 $177 $183 reversed $127 $-1 #
loop $-1 $-1 $125 $184 #
vertex $-1 $124 $185 #
vertex $-1 $124 $186 #
ellipse-curve $-1 0 0 -7.0625 0 -1 0 0.3125 0 0 1 I I #
coedge $-1 $187 $85 $88 $137 forward $133 $-1 #
coedge $-1 $85 $187 $87 $136 reversed $133 $-1 #
loop $-1 $-1 $131 $188 #
ellipse-curve $-1 0 0 7.0625 0 -1 0 -0.3125 0 0 1 I I #
coedge $-1 $88 $87 $189 $190 reversed $89 $-1 #
edge $-1 $90 0 $191 0.40999999999999998 $132 $192 forward 7 unknown #
edge $-1 $91 0 $193 0.40999999999999998 $131 $194 forward 7 unknown #
face $-1 $195 $89 $3 $-1 $196 reversed single #
point $-1 0.3125 0 7.0625 #
point $-1 -0.3125 0 7.0625 #
coedge $-1 $94 $93 $197 $198 forward $95 $-1 #
face $-1 $100 $95 $3 $-1 $199 reversed single #
coedge $-1 $197 $197 $97 $144 forward $200 $-1 #
edge $-1 $147 0 $145 3.1415926535897873 $143 $201 forward 7 unknown #
vertex $-1 $98 $202 #
straight-curve $-1 -9.8125 0 -7.0625 0 -1 0 I I #
vertex $-1 $198 $203 #
straight-curve $-1 -10.4375 0 -7.0625 0 -1 0 I I #
face $-1 $204 $205 $3 $-1 $206 reversed single #
cone-surface $-1 -10.125 0.0625 -7.0625 0 -1 0 -0.3125 0 0 1 I I 0 1 0.3125 forward I I I I #
face $-1 $207 $208 $3 $-1 $209 reversed single #
loop $-1 $-1 $210 $103 #
cone-surface $-1 -10.125 0.0625 -7.0625 0 -1 0 -0.20300000000000001 0 0 1 I I 0 1 0.20300000000000001 forward I I I I #
loop $-1 $211 $212 $67 #
coedge $-1 $213 $213 $107 $158 reversed $104 $-1 #
coedge $-1 $106 $108 $213 $214 forward $68 $-1 #
edge $-1 $114 0 $215 0.84000000000000008 $106 $216 forward 7 unknown #
edge $-1 $215 0 $159 3.1415926535898016 $155 $217 forward 7 unknown #
vertex $-1 $214 $218 #
straight-curve $-1 -10.327999999999999 -0.40999999999999992 7.0625 0 -1 0 I I #
ellipse-curve $-1 -10.125 -0.40999999999999998 7.0625 -2.734539469520098e-016 -1 0 -0.2029999999999994 5.5511151231257827e-017 0 1 I I #
point $-1 -10.327999999999999 -0.40999999999999992 7.0625 #
point $-1 -9.9220000000000006 -0.40999999999999992 7.0625 #
coedge $-1 $219 $219 $220 $221 forward $118 $-1 #
coedge $-1 $222 $119 $223 $224 reversed $80 $-1 #
coedge $-1 $119 $222 $225 $226 reversed $80 $-1 #
coedge $-1 $227 $228 $119 $168 forward $229 $-1 #
edge $-1 $230 0 $231 15.125 $119 $232 forward 7 unknown #
coedge $-1 $233 $234 $120 $170 reversed $235 $-1 #
edge $-1 $175 0 $174 3.1415926535897931 $120 $236 forward 7 unknown #
coedge $-1 $237 $121 $234 $238 forward $173 $-1 #
coedge $-1 $121 $237 $233 $239 reversed $173 $-1 #
loop $-1 $-1 $171 $240 #
vertex $-1 $170 $241 #
vertex $-1 $170 $242 #
ellipse-curve $-1 10.125 0 7.0625 0 -1 0 0.3125 0 0 1 I I #
coedge $-1 $243 $123 $126 $183 forward $179 $-1 #
coedge $-1 $123 $243 $125 $182 reversed $179 $-1 #
loop $-1 $-1 $177 $244 #
ellipse-curve $-1 0 0 -7.0625 0 -1 0 -0.3125 0 0 1 I I #
coedge $-1 $126 $125 $245 $246 reversed $127 $-1 #
edge $-1 $128 0 $247 0.40999999999999998 $178 $248 forward 7 unknown #
edge $-1 $129 0 $249 0.40999999999999998 $177 $250 forward 7 unknown #
face $-1 $251 $127 $3 $-1 $252 reversed single #
point $-1 0.3125 0 -7.0625 #
point $-1 -0.3125 0 -7.0625 #
coedge $-1 $132 $131 $253 $254 forward $133 $-1 #
face $-1 $138 $133 $3 $-1 $255 reversed single #
coedge $-1 $253 $253 $135 $190 forward $256 $-1 #
edge $-1 $193 0 $191 3.1415926535897931 $189 $257 forward 7 unknown #
vertex $-1 $136 $258 #
straight-curve $-1 0.3125 0 7.0625 0 -1 0 I I #
vertex $-1 $254 $259 #
straight-curve $-1 -0.3125 0 7.0625 0 -1 0 I I #
face $-1 $260 $261 $3 $-1 $262 reversed single #
cone-surface $-1 0 0.0625 7.0625 0 -1 0 -0.3125 0 0 1 I I 0 1 0.3125 forward I I I I #
coedge $-1 $143 $143 $141 $198 reversed $200 $-1 #
edge $-1 $147 0 $145 3.1415926535897873 $141 $263 forward 7 unknown #
cone-surface $-1 -10.125 0.0625 -7.0625 0 -1 0 -0.3125 0 0 1 I I 0 1 0.3125 forward I I I I #
loop $-1 $-1 $197 $207 #
ellipse-curve $-1 -10.125 -0.40999999999999998 -7.0625000000000009 0 1 0 -0.3125 0 8.8817841970012523e-016 1 I I #
point $-1 -9.8125 -0.40999999999999998 -7.0625 #
point $-1 -10.4375 -0.40999999999999998 -7.0625 #
face $-1 $264 $265 $3 $-1 $266 reversed single #
loop $-1 $-1 $267 $149 #
cone-surface $-1 0 0.0625 7.0625 0 -1 0 -0.20300000000000001 0 0 1 I I 0 1 0.20300000000000001 forward I I I I #
face $-1 $142 $268 $3 $-1 $269 reversed single #
loop $-1 $-1 $270 $151 #
cone-surface $-1 -10.125 0.0625 -7.0625 0 -1 0 -0.20300000000000001 0 0 1 I I 0 1 0.20300000000000001 forward I I I I #
coedge $-1 $271 $272 $273 $274 reversed $152 $-1 #
loop $-1 $275 $276 $67 #
coedge $-1 $277 $277 $272 $278 reversed $154 $-1 #
coedge $-1 $155 $155 $156 $214 reversed $104 $-1 #
edge $-1 $159 0 $215 3.1415926535898016 $213 $279 forward 7 unknown #
vertex $-1 $214 $280 #
straight-curve $-1 -9.9220000000000006 -0.40999999999999992 7.0625 0 -1 0 I I #
ellipse-curve $-1 -10.125 -1.25 7.0625000000000009 0 -1 0 0.2029999999999994 0 -8.8817841970012523e-016 1 I I #
point $-1 -10.327999999999999 -1.25 7.0625 #
coedge $-1 $164 $164 $281 $282 forward $118 $-1 #
coedge $-1 $283 $284 $164 $221 reversed $285 $-1 #
edge $-1 $286 0 $287 3.1415926535897931 $164 $288 forward 7 unknown #
coedge $-1 $166 $165 $289 $290 reversed $80 $-1 #
coedge $-1 $291 $292 $165 $224 forward $293 $-1 #
edge $-1 $294 0 $230 23.75 $165 $295 forward 7 unknown #
coedge $-1 $296 $297 $166 $226 forward $298 $-1 #
edge $-1 $231 0 $299 23.75 $166 $300 forward 7 unknown #
coedge $-1 $301 $167 $297 $302 forward $229 $-1 #
coedge $-1 $167 $301 $291 $303 reversed $229 $-1 #
loop $-1 $-1 $227 $304 #
vertex $-1 $224 $305 #
vertex $-1 $226 $306 #
straight-curve $-1 -11.875 0 7.5625 0 0 -1 I I #
coedge $-1 $307 $169 $172 $239 forward $235 $-1 #
coedge $-1 $169 $307 $171 $238 reversed $235 $-1 #
loop $-1 $-1 $233 $308 #
ellipse-curve $-1 10.125 0 7.0625 0 -1 0 -0.3125 0 0 1 I I #
coedge $-1 $172 $171 $309 $310 reversed $173 $-1 #
edge $-1 $174 0 $311 0.40999999999999998 $234 $312 forward 7 unknown #
edge $-1 $175 0 $313 0.40999999999999998 $233 $314 forward 7 unknown #
face $-1 $315 $173 $3 $-1 $316 reversed single #
point $-1 10.4375 0 7.0625 #
point $-1 9.8125 0 7.0625 #
coedge $-1 $178 $177 $317 $318 forward $179 $-1 #
face $-1 $184 $179 $3 $-1 $319 reversed single #
coedge $-1 $317 $317 $181 $246 forward $320 $-1 #
edge $-1 $249 0 $247 3.1415926535897931 $245 $321 forward 7 unknown #
vertex $-1 $182 $322 #
straight-curve $-1 0.3125 0 -7.0625 0 -1 0 I I #
vertex $-1 $318 $323 #
straight-curve $-1 -0.3125 0 -7.0625 0 -1 0 I I #
face $-1 $324 $325 $3 $-1 $326 reversed single #
cone-surface $-1 0 0.0625 -7.0625 0 -1 0 -0.3125 0 0 1 I I 0 1 0.3125 forward I I I I #
coedge $-1 $189 $189 $187 $254 reversed $256 $-1 #
edge $-1 $193 0 $191 3.1415926535897931 $187 $327 forward 7 unknown #
cone-surface $-1 0 0.0625 7.0625 0 -1 0 -0.3125 0 0 1 I I 0 1 0.3125 forward I I I I #
loop $-1 $-1 $253 $264 #
ellipse-curve $-1 -1.3877787807814457e-017 -0.40999999999999998 7.0625 0 1 0 -0.3125 0 0 1 I I #
point $-1 0.3125 -0.40999999999999998 7.0625 #
point $-1 -0.3125 -0.40999999999999998 7.0625 #
face $-1 $328 $329 $3 $-1 $330 reversed single #
loop $-1 $-1 $331 $195 #
cone-surface $-1 0 0.0625 -7.0625 0 -1 0 -0.20300000000000001 0 0 1 I I 0 1 0.20300000000000001 forward I I I I #
ellipse-curve $-1 -10.125 -0.40999999999999998 -7.0624999999999991 0 -1 0 -0.3125 0 -8.8817841970012523e-016 1 I I #
face $-1 $188 $332 $3 $-1 $333 reversed single #
loop $-1 $-1 $334 $204 #
cone-surface $-1 0 0.0625 7.0625 0 -1 0 -0.20300000000000001 0 0 1 I I 0 1 0.20300000000000001 forward I I I I #
coedge $-1 $335 $336 $337 $338 reversed $205 $-1 #
loop $-1 $200 $339 $207 #
plane-surface $-1 -10.125 -0.40999999999999998 -7.0625 0 -1 0 -1 0 0 forward_v I I I I #
coedge $-1 $340 $341 $342 $343 reversed $208 $-1 #
coedge $-1 $342 $210 $339 $344 forward $152 $-1 #
coedge $-1 $210 $342 $212 $278 forward $152 $-1 #
coedge $-1 $341 $340 $210 $274 forward $208 $-1 #
edge $-1 $345 0 $346 0.84000000000000008 $273 $347 forward 7 unknown #
loop $-1 $348 $349 $67 #
coedge $-1 $350 $350 $336 $351 reversed $211 $-1 #
coedge $-1 $212 $212 $341 $352 reversed $154 $-1 #
edge $-1 $353 0 $346 3.1415926535898016 $212 $354 forward 7 unknown #
ellipse-curve $-1 -10.125 -1.25 7.0624999999999991 0 -1 0 -0.2029999999999994 0 8.8817841970012523e-016 1 I I #
point $-1 -9.9220000000000006 -1.25 7.0625 #
coedge $-1 $355 $356 $219 $282 reversed $357 $-1 #
edge $-1 $287 0 $286 3.1415926535897931 $219 $358 forward 7 unknown #
coedge $-1 $359 $220 $356 $360 forward $285 $-1 #
coedge $-1 $220 $359 $355 $361 reversed $285 $-1 #
loop $-1 $-1 $283 $362 #
vertex $-1 $282 $363 #
vertex $-1 $282 $364 #
ellipse-curve $-1 10.125 0 -7.0625 0 -1 0 0.3125 0 0 1 I I #
coedge $-1 $365 $366 $222 $290 forward $367 $-1 #
edge $-1 $299 0 $294 15.125 $222 $368 forward 7 unknown #
coedge $-1 $369 $223 $228 $303 forward $293 $-1 #
coedge $-1 $223 $369 $365 $370 reversed $293 $-1 #
loop $-1 $-1 $291 $371 #
vertex $-1 $290 $372 #
straight-curve $-1 11.875 0 7.5625 -1 0 0 I I #
coedge $-1 $373 $225 $366 $374 forward $298 $-1 #
coedge $-1 $225 $373 $227 $302 reversed $298 $-1 #
loop $-1 $-1 $296 $375 #
vertex $-1 $226 $376 #
straight-curve $-1 -11.875 0 -7.5625 1 0 0 I I #
coedge $-1 $228 $227 $377 $378 reversed $229 $-1 #
edge $-1 $231 0 $379 1.25 $297 $380 forward 7 unknown #
edge $-1 $230 0 $381 1.25 $291 $382 forward 7 unknown #
face $-1 $375 $229 $3 $-1 $383 forward single #
point $-1 -11.875 0 7.5625 #
point $-1 -11.875 0 -7.5625 #
coedge $-1 $234 $233 $384 $385 forward $235 $-1 #
face $-1 $240 $235 $3 $-1 $386 reversed single #
coedge $-1 $384 $384 $237 $310 forward $387 $-1 #
edge $-1 $313 0 $311 3.1415926535897873 $309 $388 forward 7 unknown #
vertex $-1 $238 $389 #
straight-curve $-1 10.4375 0 7.0625 0 -1 0 I I #
vertex $-1 $385 $390 #
straight-curve $-1 9.8125 0 7.0625 0 -1 0 I I #
face $-1 $371 $367 $3 $-1 $391 forward single #
cone-surface $-1 10.125 0.0625 7.0625 0 -1 0 -0.3125 0 0 1 I I 0 1 0.3125 forward I I I I #
coedge $-1 $245 $245 $243 $318 reversed $320 $-1 #
edge $-1 $249 0 $247 3.1415926535897931 $243 $392 forward 7 unknown #
cone-surface $-1 0 0.0625 -7.0625 0 -1 0 -0.3125 0 0 1 I I 0 1 0.3125 forward I I I I #
loop $-1 $-1 $317 $328 #
ellipse-curve $-1 -1.3877787807814457e-017 -0.40999999999999998 -7.0625 0 1 0 -0.3125 0 0 1 I I #
point $-1 0.3125 -0.40999999999999998 -7.0625 #
point $-1 -0.3125 -0.40999999999999998 -7.0625 #
face $-1 $393 $394 $3 $-1 $395 reversed single #
loop $-1 $-1 $396 $251 #
cone-surface $-1 10.125 0.0625 7.0625 0 -1 0 -0.20300000000000001 0 0 1 I I 0 1 0.20300000000000001 forward I I I I #
ellipse-curve $-1 -1.3877787807814457e-017 -0.40999999999999998 7.0625 0 -1 0 -0.3125 0 0 1 I I #
face $-1 $244 $397 $3 $-1 $398 reversed single #
loop $-1 $-1 $399 $260 #
cone-surface $-1 0 0.0625 -7.0625 0 -1 0 -0.20300000000000001 0 0 1 I I 0 1 0.20300000000000001 forward I I I I #
coedge $-1 $400 $401 $402 $403 reversed $261 $-1 #
loop $-1 $256 $404 $264 #
plane-surface $-1 0 -0.40999999999999998 7.0625 0 -1 0 -1 0 0 forward_v I I I I #
coedge $-1 $405 $406 $407 $408 reversed $265 $-1 #
coedge $-1 $407 $267 $404 $409 forward $205 $-1 #
coedge $-1 $267 $407 $276 $351 forward $205 $-1 #
coedge $-1 $406 $405 $267 $338 forward $265 $-1 #
edge $-1 $410 0 $411 0.84000000000000008 $337 $412 forward 7 unknown #
coedge $-1 $413 $413 $271 $344 reversed $268 $-1 #
coedge $-1 $273 $270 $413 $414 reversed $208 $-1 #
coedge $-1 $270 $273 $277 $352 forward $208 $-1 #
coedge $-1 $272 $271 $270 $343 forward $152 $-1 #
edge $-1 $415 0 $353 0.84000000000000008 $270 $416 forward 7 unknown #
edge $-1 $345 0 $415 3.1415926535897931 $339 $417 forward 7 unknown #
vertex $-1 $414 $418 #
vertex $-1 $352 $419 #
straight-curve $-1 -10.327999999999999 -0.40999999999999992 -7.0625 0 -1 0 I I #
loop $-1 $420 $421 $67 #
coedge $-1 $422 $422 $401 $423 reversed $275 $-1 #
coedge $-1 $276 $276 $406 $424 reversed $211 $-1 #
edge $-1 $425 0 $411 3.1415926535898016 $276 $426 forward 7 unknown #
edge $-1 $346 0 $353 3.1415926535898016 $277 $427 forward 7 unknown #
vertex $-1 $352 $428 #
ellipse-curve $-1 -10.125 -1.25 -7.0624999999999991 0 -1 0 0.2029999999999994 0 -8.8817841970012523e-016 1 I I #
coedge $-1 $429 $281 $284 $361 forward $357 $-1 #
coedge $-1 $281 $429 $283 $360 reversed $357 $-1 #
loop $-1 $-1 $355 $430 #
ellipse-curve $-1 10.125 0 -7.0625 0 -1 0 -0.3125 0 0 1 I I #
coedge $-1 $284 $283 $431 $432 reversed $285 $-1 #
edge $-1 $286 0 $433 0.40999999999999998 $356 $434 forward 7 unknown #
edge $-1 $287 0 $435 0.40999999999999998 $355 $436 forward 7 unknown #
face $-1 $-1 $285 $3 $-1 $437 reversed single #
point $-1 10.4375 0 -7.0625 #
point $-1 9.8125 0 -7.0625 #
coedge $-1 $438 $289 $292 $370 forward $367 $-1 #
coedge $-1 $289 $438 $296 $374 reversed $367 $-1 #
loop $-1 $-1 $365 $315 #
straight-curve $-1 11.875 0 -7.5625 0 0 1 I I #
coedge $-1 $292 $291 $439 $440 reversed $293 $-1 #
edge $-1 $294 0 $441 1.25 $365 $442 forward 7 unknown #
face $-1 $304 $293 $3 $-1 $443 forward single #
point $-1 11.875 0 7.5625 #
coedge $-1 $297 $296 $444 $445 reversed $298 $-1 #
edge $-1 $299 0 $446 1.25 $296 $447 forward 7 unknown #
face $-1 $448 $298 $3 $-1 $449 forward single #
point $-1 11.875 0 -7.5625 #
coedge $-1 $444 $439 $301 $378 forward $420 $-1 #
edge $-1 $381 0 $379 15.125 $377 $450 forward 7 unknown #
vertex $-1 $445 $451 #
straight-curve $-1 -11.875 0 -7.5625 0 -1 0 I I #
vertex $-1 $378 $452 #
straight-curve $-1 -11.875 0 7.5625 0 -1 0 I I #
plane-surface $-1 -11.875 0 7.5625 -1 0 0 0 0 -1 forward_v I I I I #
coedge $-1 $309 $309 $307 $385 reversed $387 $-1 #
edge $-1 $313 0 $311 3.1415926535897873 $307 $453 forward 7 unknown #
cone-surface $-1 10.125 0.0625 7.0625 0 -1 0 -0.3125 0 0 1 I I 0 1 0.3125 forward I I I I #
loop $-1 $-1 $384 $393 #
ellipse-curve $-1 10.125 -0.40999999999999998 7.0624999999999991 0 1 0 -0.3125 0 8.8817841970012523e-016 1 I I #
point $-1 10.4375 -0.40999999999999998 7.0625 #
point $-1 9.8125 -0.40999999999999998 7.0625 #
plane-surface $-1 11.875 0 -7.5625 1 0 0 0 0 1 forward_v I I I I #
ellipse-curve $-1 -1.3877787807814457e-017 -0.40999999999999998 -7.0625 0 -1 0 -0.3125 0 0 1 I I #
face $-1 $308 $454 $3 $-1 $455 reversed single #
loop $-1 $-1 $456 $324 #
cone-surface $-1 10.125 0.0625 7.0625 0 -1 0 -0.20300000000000001 0 0 1 I I 0 1 0.20300000000000001 forward I I I I #
coedge $-1 $457 $458 $459 $460 reversed $325 $-1 #
loop $-1 $320 $461 $328 #
plane-surface $-1 0 -0.40999999999999998 -7.0625 0 -1 0 -1 0 0 forward_v I I I I #
coedge $-1 $462 $463 $464 $465 reversed $329 $-1 #
coedge $-1 $464 $331 $461 $466 forward $261 $-1 #
coedge $-1 $331 $464 $349 $423 forward $261 $-1 #
coedge $-1 $463 $462 $331 $403 forward $329 $-1 #
edge $-1 $467 0 $468 0.84000000000000008 $402 $469 forward 7 unknown #
coedge $-1 $470 $470 $335 $409 reversed $332 $-1 #
coedge $-1 $337 $334 $470 $471 reversed $265 $-1 #
coedge $-1 $334 $337 $350 $424 forward $265 $-1 #
coedge $-1 $336 $335 $334 $408 forward $205 $-1 #
edge $-1 $472 0 $425 0.84000000000000008 $334 $473 forward 7 unknown #
edge $-1 $410 0 $472 3.1415926535897931 $404 $474 forward 7 unknown #
vertex $-1 $471 $475 #
vertex $-1 $424 $476 #
straight-curve $-1 -0.20300000000000001 -0.40999999999999992 7.0625 0 -1 0 I I #
coedge $-1 $339 $339 $340 $414 forward $268 $-1 #
edge $-1 $345 0 $415 3.1415926535897931 $413 $477 forward 7 unknown #
vertex $-1 $414 $478 #
straight-curve $-1 -9.9220000000000006 -0.40999999999999992 -7.0625 0 -1 0 I I #
ellipse-curve $-1 -10.125 -0.40999999999999998 -7.0625 2.734539469520098e-016 1 0 -0.2029999999999994 5.5511151231257827e-017 0 1 I I #
point $-1 -10.327999999999999 -0.40999999999999992 -7.0625 #
point $-1 -10.327999999999999 -1.25 -7.0625 #
loop $-1 $479 $480 $67 #
coedge $-1 $481 $481 $458 $482 reversed $348 $-1 #
coedge $-1 $349 $349 $463 $483 reversed $275 $-1 #
edge $-1 $484 0 $468 3.1415926535898016 $349 $485 forward 7 unknown #
edge $-1 $411 0 $425 3.1415926535898016 $350 $486 forward 7 unknown #
vertex $-1 $424 $487 #
ellipse-curve $-1 0 -1.25 7.0625000000000009 0 -1 0 0.2029999999999994 0 -8.8817841970012523e-016 1 I I #
ellipse-curve $-1 -10.125 -1.25 -7.0625000000000009 0 -1 0 -0.2029999999999994 0 8.8817841970012523e-016 1 I I #
point $-1 -9.9220000000000006 -1.25 -7.0625 #
coedge $-1 $356 $355 $488 $489 forward $357 $-1 #
face $-1 $362 $357 $3 $-1 $490 reversed single #
coedge $-1 $488 $488 $359 $432 forward $491 $-1 #
edge $-1 $435 0 $433 3.1415926535897873 $431 $492 forward 7 unknown #
vertex $-1 $360 $493 #
straight-curve $-1 10.4375 0 -7.0625 0 -1 0 I I #
vertex $-1 $489 $494 #
straight-curve $-1 9.8125 0 -7.0625 0 -1 0 I I #
cone-surface $-1 10.125 0.0625 -7.0625 0 -1 0 -0.3125 0 0 1 I I 0 1 0.3125 forward I I I I #
coedge $-1 $366 $365 $480 $495 reversed $367 $-1 #
coedge $-1 $377 $480 $369 $440 forward $420 $-1 #
edge $-1 $441 0 $381 23.75 $439 $496 forward 7 unknown #
vertex $-1 $440 $497 #
straight-curve $-1 11.875 0 7.5625 0 -1 0 I I #
plane-surface $-1 11.875 0 7.5625 0 0 1 -1 0 0 forward_v I I I I #
coedge $-1 $480 $377 $373 $445 forward $420 $-1 #
edge $-1 $379 0 $446 23.75 $444 $498 forward 7 unknown #
vertex $-1 $445 $499 #
straight-curve $-1 11.875 0 -7.5625 0 -1 0 I I #
face $-1 $500 $501 $3 $-1 $502 reversed single #
plane-surface $-1 -11.875 0 -7.5625 0 0 -1 1 0 0 forward_v I I I I #
straight-curve $-1 -11.875 -1.25 7.5625 0 0 -1 I I #
point $-1 -11.875 -1.25 -7.5625 #
point $-1 -11.875 -1.25 7.5625 #
ellipse-curve $-1 10.125 -0.40999999999999998 7.0625000000000009 0 -1 0 -0.3125 0 -8.8817841970012523e-016 1 I I #
loop $-1 $387 $503 $393 #
plane-surface $-1 10.125 -0.40999999999999998 7.0625 0 -1 0 -1 0 0 forward_v I I I I #
coedge $-1 $504 $505 $506 $507 reversed $394 $-1 #
coedge $-1 $506 $396 $503 $508 forward $325 $-1 #
coedge $-1 $396 $506 $421 $482 forward $325 $-1 #
coedge $-1 $505 $504 $396 $460 forward $394 $-1 #
edge $-1 $509 0 $510 0.84000000000000008 $459 $511 forward 7 unknown #
coedge $-1 $512 $512 $400 $466 reversed $397 $-1 #
coedge $-1 $402 $399 $512 $513 reversed $329 $-1 #
coedge $-1 $399 $402 $422 $483 forward $329 $-1 #
coedge $-1 $401 $400 $399 $465 forward $261 $-1 #
edge $-1 $514 0 $484 0.84000000000000008 $399 $515 forward 7 unknown #
edge $-1 $467 0 $514 3.1415926535897931 $461 $516 forward 7 unknown #
vertex $-1 $513 $517 #
vertex $-1 $483 $518 #
straight-curve $-1 -0.20300000000000001 -0.40999999999999992 -7.0625 0 -1 0 I I #
coedge $-1 $404 $404 $405 $471 forward $332 $-1 #
edge $-1 $410 0 $472 3.1415926535897931 $470 $519 forward 7 unknown #
vertex $-1 $471 $520 #
straight-curve $-1 0.20300000000000001 -0.40999999999999992 7.0625 0 -1 0 I I #
ellipse-curve $-1 -6.9388939039072284e-018 -0.40999999999999998 7.0625 2.7345394695200901e-016 1 0 -0.20300000000000001 5.5511151231257827e-017 0 1 I I #
point $-1 -0.20300000000000001 -0.40999999999999992 7.0625 #
point $-1 -0.2029999999999994 -1.25 7.0625 #
ellipse-curve $-1 -10.125 -0.40999999999999998 -7.0625 -2.734539469520098e-016 -1 0 -0.2029999999999994 5.5511151231257827e-017 0 1 I I #
point $-1 -9.9220000000000006 -0.40999999999999992 -7.0625 #
loop $-1 $-1 $521 $67 #
coedge $-1 $439 $444 $438 $495 forward $420 $-1 #
coedge $-1 $421 $421 $505 $522 reversed $348 $-1 #
edge $-1 $523 0 $510 3.1415926535898016 $421 $524 forward 7 unknown #
edge $-1 $468 0 $484 3.1415926535898016 $422 $525 forward 7 unknown #
vertex $-1 $483 $526 #
ellipse-curve $-1 0 -1.25 -7.0624999999999991 0 -1 0 0.2029999999999994 0 -8.8817841970012523e-016 1 I I #
ellipse-curve $-1 0 -1.25 7.0624999999999991 0 -1 0 -0.2029999999999994 0 8.8817841970012523e-016 1 I I #
point $-1 0.2029999999999994 -1.25 7.0625 #
coedge $-1 $431 $431 $429 $489 reversed $491 $-1 #
edge $-1 $435 0 $433 3.1415926535897873 $429 $527 forward 7 unknown #
cone-surface $-1 10.125 0.0625 -7.0625 0 -1 0 -0.3125 0 0 1 I I 0 1 0.3125 forward I I I I #
loop $-1 $-1 $488 $528 #
ellipse-curve $-1 10.125 -0.40999999999999998 -7.0625000000000009 0 1 0 -0.3125 0 8.8817841970012523e-016 1 I I #
point $-1 10.4375 -0.40999999999999998 -7.0625 #
point $-1 9.8125 -0.40999999999999998 -7.0625 #
edge $-1 $446 0 $441 15.125 $480 $529 forward 7 unknown #
straight-curve $-1 11.875 -1.25 7.5625 -1 0 0 I I #
point $-1 11.875 -1.25 7.5625 #
straight-curve $-1 -11.875 -1.25 -7.5625 1 0 0 I I #
point $-1 11.875 -1.25 -7.5625 #
face $-1 $528 $530 $3 $-1 $531 reversed single #
loop $-1 $-1 $532 $448 #
cone-surface $-1 10.125 0.0625 -7.0625 0 -1 0 -0.20300000000000001 0 0 1 I I 0 1 0.20300000000000001 forward I I I I #
coedge $-1 $533 $533 $457 $508 reversed $454 $-1 #
coedge $-1 $459 $456 $533 $534 reversed $394 $-1 #
coedge $-1 $456 $459 $481 $522 forward $394 $-1 #
coedge $-1 $458 $457 $456 $507 forward $325 $-1 #
edge $-1 $535 0 $523 0.84000000000000008 $456 $536 forward 7 unknown #
edge $-1 $509 0 $535 3.1415926535897931 $503 $537 forward 7 unknown #
vertex $-1 $534 $538 #
vertex $-1 $522 $539 #
straight-curve $-1 9.9220000000000006 -0.40999999999999992 7.0625 0 -1 0 I I #
coedge $-1 $461 $461 $462 $513 forward $397 $-1 #
edge $-1 $467 0 $514 3.1415926535897931 $512 $540 forward 7 unknown #
vertex $-1 $513 $541 #
straight-curve $-1 0.20300000000000001 -0.40999999999999992 -7.0625 0 -1 0 I I #
ellipse-curve $-1 -6.9388939039072284e-018 -0.40999999999999998 -7.0625 2.7345394695200901e-016 1 0 -0.20300000000000001 5.5511151231257827e-017 0 1 I I #
point $-1 -0.20300000000000001 -0.40999999999999992 -7.0625 #
point $-1 -0.2029999999999994 -1.25 -7.0625 #
ellipse-curve $-1 -6.9388939039072284e-018 -0.40999999999999998 7.0625 -2.7345394695200901e-016 -1 0 -0.20300000000000001 5.5511151231257827e-017 0 1 I I #
point $-1 0.20300000000000001 -0.40999999999999992 7.0625 #
coedge $-1 $542 $542 $543 $544 reversed $479 $-1 #
edge $-1 $510 0 $523 3.1415926535898016 $481 $545 forward 7 unknown #
vertex $-1 $522 $546 #
ellipse-curve $-1 10.125 -1.25 7.0625000000000009 0 -1 0 0.2029999999999994 0 -8.8817841970012523e-016 1 I I #
ellipse-curve $-1 0 -1.25 -7.0625000000000009 0 -1 0 -0.2029999999999994 0 8.8817841970012523e-016 1 I I #
point $-1 0.2029999999999994 -1.25 -7.0625 #
ellipse-curve $-1 10.125 -0.40999999999999998 -7.0624999999999991 0 -1 0 -0.3125 0 -8.8817841970012523e-016 1 I I #
face $-1 $430 $547 $3 $-1 $548 reversed single #
straight-curve $-1 11.875 -1.25 -7.5625 0 0 1 I I #
loop $-1 $-1 $549 $500 #
cone-surface $-1 10.125 0.0625 -7.0625 0 -1 0 -0.20300000000000001 0 0 1 I I 0 1 0.20300000000000001 forward I I I I #
coedge $-1 $550 $543 $551 $552 reversed $501 $-1 #
coedge $-1 $503 $503 $504 $534 forward $454 $-1 #
edge $-1 $509 0 $535 3.1415926535897931 $533 $553 forward 7 unknown #
vertex $-1 $534 $554 #
straight-curve $-1 10.327999999999999 -0.40999999999999992 7.0625 0 -1 0 I I #
ellipse-curve $-1 10.125 -0.40999999999999998 7.0625 2.734539469520098e-016 1 0 -0.2029999999999994 5.5511151231257827e-017 0 1 I I #
point $-1 9.9220000000000006 -0.40999999999999992 7.0625 #
point $-1 9.9220000000000006 -1.25 7.0625 #
ellipse-curve $-1 -6.9388939039072284e-018 -0.40999999999999998 -7.0625 -2.7345394695200901e-016 -1 0 -0.20300000000000001 5.5511151231257827e-017 0 1 I I #
point $-1 0.20300000000000001 -0.40999999999999992 -7.0625 #
coedge $-1 $521 $521 $555 $556 reversed $479 $-1 #
coedge $-1 $532 $557 $521 $544 forward $501 $-1 #
edge $-1 $558 0 $559 3.1415926535898016 $521 $560 forward 7 unknown #
ellipse-curve $-1 10.125 -1.25 7.0624999999999991 0 -1 0 -0.2029999999999994 0 8.8817841970012523e-016 1 I I #
point $-1 10.327999999999999 -1.25 7.0625 #
loop $-1 $491 $561 $528 #
plane-surface $-1 10.125 -0.40999999999999998 -7.0625 0 -1 0 -1 0 0 forward_v I I I I #
coedge $-1 $562 $555 $557 $563 reversed $530 $-1 #
coedge $-1 $557 $532 $561 $564 forward $501 $-1 #
coedge $-1 $555 $562 $532 $552 forward $530 $-1 #
edge $-1 $565 0 $559 0.84000000000000008 $551 $566 forward 7 unknown #
ellipse-curve $-1 10.125 -0.40999999999999998 7.0625 -2.734539469520098e-016 -1 0 -0.2029999999999994 5.5511151231257827e-017 0 1 I I #
point $-1 10.327999999999999 -0.40999999999999992 7.0625 #
coedge $-1 $549 $551 $542 $556 forward $530 $-1 #
edge $-1 $559 0 $558 3.1415926535898016 $542 $567 forward 7 unknown #
coedge $-1 $543 $550 $549 $563 forward $501 $-1 #
vertex $-1 $556 $568 #
vertex $-1 $556 $569 #
ellipse-curve $-1 10.125 -1.25 -7.0624999999999991 0 -1 0 0.2029999999999994 0 -8.8817841970012523e-016 1 I I #
coedge $-1 $570 $570 $550 $564 reversed $547 $-1 #
coedge $-1 $551 $549 $570 $571 reversed $530 $-1 #
edge $-1 $572 0 $558 0.84000000000000008 $549 $573 forward 7 unknown #
edge $-1 $565 0 $572 3.1415926535897931 $561 $574 forward 7 unknown #
vertex $-1 $571 $575 #
straight-curve $-1 9.9220000000000006 -0.40999999999999992 -7.0625 0 -1 0 I I #
ellipse-curve $-1 10.125 -1.25 -7.0625000000000009 0 -1 0 -0.2029999999999994 0 8.8817841970012523e-016 1 I I #
point $-1 10.327999999999999 -1.25 -7.0625 #
point $-1 9.9220000000000006 -1.25 -7.0625 #
coedge $-1 $561 $561 $562 $571 forward $547 $-1 #
edge $-1 $565 0 $572 3.1415926535897931 $570 $576 forward 7 unknown #
vertex $-1 $571 $577 #
straight-curve $-1 10.327999999999999 -0.40999999999999992 -7.0625 0 -1 0 I I #
ellipse-curve $-1 10.125 -0.40999999999999998 -7.0625 2.734539469520098e-016 1 0 -0.2029999999999994 5.5511151231257827e-017 0 1 I I #
point $-1 9.9220000000000006 -0.40999999999999992 -7.0625 #
ellipse-curve $-1 10.125 -0.40999999999999998 -7.0625 -2.734539469520098e-016 -1 0 -0.2029999999999994 5.5511151231257827e-017 0 1 I I #
point $-1 10.327999999999999 -0.40999999999999992 -7.0625 #
End-of-ACIS-data 