600 0 1 0           
118 GICL Pro/E ACIS Translator - Source: f:/data5/repository/PTC/V20/prod_appl/assoc_demo/mold/housing_mold_wp.prt.1 - 6 0 13 ACIS 6.0.3 NT 24 Thu Apr 04 13:16:21 2002 
1 9.9999999999999995e-007 1e-010 
body $-1 $1 $-1 $2 #
lump $-1 $-1 $3 $0 #
transform $-1 1 0 0 0 1 0 0 0 1 0 0 0 25.399999999999999 no_rotate no_reflect no_shear #
shell $-1 $-1 $-1 $4 $-1 $1 #
face $-1 $5 $6 $3 $-1 $7 reversed single #
face $-1 $8 $9 $3 $-1 $10 forward single #
loop $-1 $-1 $11 $4 #
plane-surface $-1 0 -5.3190703224174261 0 0 1 0 0 0 1 forward_v I I I I #
face $-1 $12 $13 $3 $-1 $14 forward single #
loop $-1 $-1 $15 $5 #
plane-surface $-1 6.8214566929133849 -5.3190703224174261 9.5 1 0 0 0 0 -1 forward_v I I I I #
coedge $-1 $16 $17 $18 $19 reversed $6 $-1 #
face $-1 $20 $21 $3 $-1 $22 forward single #
loop $-1 $-1 $23 $8 #
cone-surface $-1 5.9464566929133849 -5.3190703224174261 -9.5 0 1 0 0 0 -0.875 1 I I 0 1 0.875 forward I I I I #
coedge $-1 $24 $18 $25 $26 forward $9 $-1 #
coedge $-1 $27 $11 $28 $29 reversed $6 $-1 #
coedge $-1 $11 $30 $31 $32 reversed $6 $-1 #
coedge $-1 $15 $33 $11 $19 forward $9 $-1 #
edge $-1 $34 0 $35 19 $11 $36 forward 7 unknown #
face $-1 $37 $38 $3 $-1 $39 forward single #
loop $-1 $-1 $40 $12 #
plane-surface $-1 5.9464566929133849 -5.3190703224174261 -10.375 0 0 -1 -1 0 0 forward_v I I I I #
coedge $-1 $41 $31 $42 $43 forward $13 $-1 #
coedge $-1 $33 $15 $44 $45 reversed $9 $-1 #
coedge $-1 $31 $41 $15 $26 reversed $13 $-1 #
edge $-1 $35 0 $46 0.5 $25 $47 forward 7 unknown #
coedge $-1 $48 $16 $49 $50 reversed $6 $-1 #
coedge $-1 $51 $52 $16 $29 forward $53 $-1 #
edge $-1 $54 0 $34 1.5707963267948966 $16 $55 forward 7 unknown #
coedge $-1 $17 $56 $57 $58 reversed $6 $-1 #
coedge $-1 $23 $25 $17 $32 forward $13 $-1 #
edge $-1 $35 0 $59 1.5707963267948966 $17 $60 forward 7 unknown #
coedge $-1 $18 $24 $51 $61 reversed $9 $-1 #
vertex $-1 $29 $62 #
vertex $-1 $32 $63 #
straight-curve $-1 6.8214566929133849 -5.3190703224174261 9.5 0 0 -1 I I #
face $-1 $64 $65 $3 $-1 $66 forward single #
loop $-1 $-1 $67 $20 #
cone-surface $-1 -0.053543307086603896 -5.3190703224174261 -9.5 0 1 0 0 0 -0.875 1 I I 0 1 0.875 forward I I I I #
coedge $-1 $68 $57 $69 $70 forward $21 $-1 #
coedge $-1 $25 $23 $71 $72 reversed $13 $-1 #
coedge $-1 $57 $68 $23 $43 reversed $21 $-1 #
edge $-1 $59 0 $73 0.5 $23 $74 forward 7 unknown #
coedge $-1 $71 $75 $24 $45 forward $76 $-1 #
edge $-1 $77 0 $46 19 $44 $78 forward 7 unknown #
vertex $-1 $72 $79 #
straight-curve $-1 6.8214566929133849 -5.3190703224174261 -9.5 0 1 0 I I #
coedge $-1 $80 $27 $81 $82 reversed $6 $-1 #
coedge $-1 $83 $84 $27 $50 forward $85 $-1 #
edge $-1 $86 0 $54 5.9999999999999885 $27 $87 forward 7 unknown #
coedge $-1 $88 $28 $33 $61 forward $53 $-1 #
coedge $-1 $28 $88 $83 $89 reversed $53 $-1 #
loop $-1 $-1 $51 $90 #
vertex $-1 $50 $91 #
ellipse-curve $-1 5.9464566929133849 -5.3190703224174261 9.5 0 1 0 0 0 0.875 1 I I #
coedge $-1 $30 $80 $92 $93 reversed $6 $-1 #
coedge $-1 $40 $42 $30 $58 forward $21 $-1 #
edge $-1 $59 0 $94 5.9999999999999893 $30 $95 forward 7 unknown #
vertex $-1 $32 $96 #
ellipse-curve $-1 5.9464566929133849 -5.3190703224174261 -9.5 0 1 0 0.875 0 0 1 I I #
edge $-1 $34 0 $77 0.5 $51 $97 forward 7 unknown #
point $-1 6.8214566929133849 -5.3190703224174261 9.5 #
point $-1 6.8214566929133849 -5.3190703224174261 -9.5 #
face $-1 $98 $99 $3 $-1 $100 forward single #
loop $-1 $-1 $101 $37 #
plane-surface $-1 -0.92854330708660382 -5.3190703224174261 -9.5 -1 0 0 0 0 1 forward_v I I I I #
coedge $-1 $102 $92 $103 $104 forward $38 $-1 #
coedge $-1 $42 $40 $105 $106 reversed $21 $-1 #
coedge $-1 $92 $102 $40 $70 reversed $38 $-1 #
edge $-1 $94 0 $107 0.5 $40 $108 forward 7 unknown #
coedge $-1 $105 $44 $41 $72 forward $76 $-1 #
edge $-1 $46 0 $73 1.5707963267948937 $71 $109 forward 7 unknown #
vertex $-1 $72 $110 #
straight-curve $-1 5.9464566929133849 -5.3190703224174261 -10.375 0 1 0 I I #
coedge $-1 $44 $111 $88 $112 forward $76 $-1 #
loop $-1 $113 $105 $114 #
vertex $-1 $45 $115 #
straight-curve $-1 6.8214566929133849 -4.8190703224174261 9.5 0 0 -1 I I #
point $-1 6.8214566929133849 -4.8190703224174261 -9.5 #
coedge $-1 $56 $48 $116 $117 reversed $6 $-1 #
coedge $-1 $118 $119 $48 $82 forward $99 $-1 #
edge $-1 $120 0 $86 1.5707963267948966 $48 $121 forward 7 unknown #
coedge $-1 $122 $49 $52 $89 forward $85 $-1 #
coedge $-1 $49 $122 $118 $123 reversed $85 $-1 #
loop $-1 $-1 $83 $98 #
vertex $-1 $82 $124 #
straight-curve $-1 -0.053543307086603993 -5.3190703224174261 10.375 1 0 0 I I #
coedge $-1 $52 $51 $75 $112 reversed $53 $-1 #
edge $-1 $54 0 $125 0.5 $83 $126 forward 7 unknown #
face $-1 $114 $53 $3 $-1 $127 forward single #
point $-1 5.9464566929133849 -5.3190703224174261 10.375 #
coedge $-1 $67 $69 $56 $93 forward $38 $-1 #
edge $-1 $94 0 $128 1.5707963267948963 $56 $129 forward 7 unknown #
vertex $-1 $58 $130 #
straight-curve $-1 5.9464566929133849 -5.3190703224174261 -10.375 -1 0 0 I I #
point $-1 5.9464566929133849 -5.3190703224174261 -10.375 #
straight-curve $-1 6.8214566929133849 -5.3190703224174261 9.5 0 1 0 I I #
face $-1 $90 $85 $3 $-1 $131 forward single #
loop $-1 $-1 $118 $64 #
cone-surface $-1 -0.053543307086603889 -5.3190703224174261 9.5 0 1 0 0 0 -0.875 1 I I 0 1 0.875 forward I I I I #
coedge $-1 $132 $116 $119 $133 forward $65 $-1 #
coedge $-1 $69 $67 $134 $135 reversed $38 $-1 #
coedge $-1 $116 $132 $67 $104 reversed $65 $-1 #
edge $-1 $128 2.4651903288156619e-032 $136 0.5 $67 $137 forward 7 unknown #
coedge $-1 $134 $71 $68 $106 forward $76 $-1 #
edge $-1 $73 0 $107 5.9999999999999885 $105 $138 forward 7 unknown #
vertex $-1 $135 $139 #
straight-curve $-1 -0.053543307086603598 -5.3190703224174261 -10.375 0 1 0 I I #
ellipse-curve $-1 5.946456692913384 -4.8190703224174261 -9.4999999999999982 0 1 0 0.87500000000000089 0 -1.7763568394002505e-015 1 I I #
point $-1 5.9464566929133849 -4.8190703224174261 -10.375 #
coedge $-1 $75 $140 $122 $141 forward $76 $-1 #
edge $-1 $125 0 $77 1.5707963267948937 $75 $142 forward 7 unknown #
loop $-1 $-1 $143 $114 #
face $-1 $144 $76 $3 $-1 $145 forward single #
point $-1 6.8214566929133849 -4.8190703224174261 9.5 #
coedge $-1 $101 $103 $80 $117 forward $65 $-1 #
edge $-1 $128 0 $120 19 $80 $146 forward 7 unknown #
coedge $-1 $147 $81 $84 $123 forward $99 $-1 #
coedge $-1 $81 $147 $101 $133 reversed $99 $-1 #
vertex $-1 $117 $148 #
ellipse-curve $-1 -0.053543307086603889 -5.3190703224174261 9.5 0 1 0 -0.87499999999999989 0 0 1 I I #
coedge $-1 $84 $83 $111 $141 reversed $85 $-1 #
edge $-1 $86 0 $149 0.5 $118 $150 forward 7 unknown #
point $-1 -0.053543307086603993 -5.3190703224174261 10.375 #
vertex $-1 $112 $151 #
straight-curve $-1 5.9464566929133849 -5.3190703224174261 10.375 0 1 0 I I #
cone-surface $-1 5.9464566929133849 -5.3190703224174261 9.5 0 1 0 0 0 -0.875 1 I I 0 1 0.875 forward I I I I #
vertex $-1 $93 $152 #
ellipse-curve $-1 -0.053543307086603896 -5.3190703224174261 -9.5 0 1 0 -2.1510571102112408e-016 0 -0.875 1 I I #
point $-1 -0.053543307086604111 -5.3190703224174261 -10.375 #
plane-surface $-1 -0.053543307086603598 -5.3190703224174261 10.375 0 0 1 1 0 0 forward_v I I I I #
coedge $-1 $103 $101 $153 $154 reversed $65 $-1 #
edge $-1 $120 0 $155 0.5 $101 $156 forward 7 unknown #
coedge $-1 $153 $105 $102 $135 forward $76 $-1 #
edge $-1 $107 -2.4583509830985561e-016 $136 1.5707963267948939 $134 $157 forward 7 unknown #
vertex $-1 $154 $158 #
straight-curve $-1 -0.92854330708660393 -5.3190703224174261 -9.5 2.2204460492503131e-016 1 0 I I #
straight-curve $-1 5.9464566929133849 -4.8190703224174261 -10.375 -1 0 0 I I #
point $-1 -0.053543307086603896 -4.8190703224174261 -10.375 #
coedge $-1 $111 $153 $147 $159 forward $76 $-1 #
edge $-1 $149 3.9551695252271202e-016 $125 5.9999999999999885 $111 $160 forward 7 unknown #
ellipse-curve $-1 5.946456692913384 -4.8190703224174261 9.4999999999999982 0 1 0 8.8817841970012523e-016 0 0.87500000000000178 1 I I #
coedge $-1 $161 $162 $163 $164 reversed $113 $-1 #
face $-1 $165 $166 $3 $-1 $167 forward single #
plane-surface $-1 0 -4.8190703224174261 0 0 1 0 0 0 -1 forward_v I I I I #
straight-curve $-1 -0.92854330708660382 -5.3190703224174261 -9.5 0 0 1 I I #
coedge $-1 $119 $118 $140 $159 reversed $99 $-1 #
point $-1 -0.92854330708660382 -5.3190703224174261 9.5 #
vertex $-1 $141 $168 #
straight-curve $-1 -0.053543307086603993 -5.3190703224174261 10.375 7.9103390504542404e-016 1 0 I I #
point $-1 5.9464566929133849 -4.8190703224174261 10.375 #
point $-1 -0.92854330708660382 -5.3190703224174261 -9.5 #
coedge $-1 $140 $134 $132 $154 forward $76 $-1 #
edge $-1 $136 0 $155 19 $153 $169 forward 7 unknown #
vertex $-1 $159 $170 #
straight-curve $-1 -0.92854330708660382 -5.3190703224174261 9.5 0 1 0 I I #
ellipse-curve $-1 -0.053543307086603459 -4.8190703224174261 -9.4999999999999982 0 1 0 -6.5225602696727947e-016 0 -0.87500000000000178 1 I I #
point $-1 -0.92854330708660382 -4.8190703224174261 -9.5 #
edge $-1 $155 -2.5758723435788125e-031 $149 1.5707963267948946 $140 $171 forward 7 unknown #
straight-curve $-1 -0.053543307086603993 -4.8190703224174261 10.375 1 0 0 I I #
coedge $-1 $172 $143 $173 $174 reversed $113 $-1 #
coedge $-1 $143 $175 $176 $177 reversed $113 $-1 #
coedge $-1 $178 $179 $143 $164 forward $166 $-1 #
edge $-1 $180 0 $181 1.5707963267948948 $163 $182 forward 7 unknown #
face $-1 $183 $184 $3 $-1 $185 forward single #
loop $-1 $-1 $178 $144 #
cone-surface $-1 5.9464566929133849 -5.3190703224174261 -9.5 0 1 0 0 0 0.5 1 I I 0 1 0.5 forward I I I I #
point $-1 -0.053543307086603598 -4.8190703224174261 10.375 #
straight-curve $-1 -0.92854330708660382 -4.8190703224174261 -9.5 0 0 1 I I #
point $-1 -0.92854330708660393 -4.8190703224174261 9.5 #
ellipse-curve $-1 -0.053543307086603598 -4.8190703224174261 9.4999999999999982 0 1 0 -0.87500000000000022 0 1.7763568394002505e-015 1 I I #
coedge $-1 $186 $161 $187 $188 reversed $113 $-1 #
coedge $-1 $189 $190 $161 $174 forward $191 $-1 #
edge $-1 $192 0 $180 19 $173 $193 forward 7 unknown #
coedge $-1 $162 $194 $195 $196 reversed $113 $-1 #
coedge $-1 $197 $198 $162 $177 forward $184 $-1 #
edge $-1 $181 0 $199 6 $176 $200 forward 7 unknown #
coedge $-1 $201 $163 $198 $202 forward $166 $-1 #
coedge $-1 $163 $201 $189 $203 reversed $166 $-1 #
vertex $-1 $174 $204 #
vertex $-1 $177 $205 #
ellipse-curve $-1 5.946456692913384 -4.8190703224174261 -9.5 0 1 0 0.50000000000000089 0 0 1 I I #
face $-1 $206 $207 $3 $-1 $208 forward single #
loop $-1 $-1 $197 $165 #
plane-surface $-1 5.9464566929133849 -5.3190703224174261 -10 0 0 -1 -1 0 0 forward_v I I I I #
coedge $-1 $209 $172 $210 $211 reversed $113 $-1 #
coedge $-1 $212 $213 $172 $188 forward $214 $-1 #
edge $-1 $215 2.3092638912203256e-014 $192 1.5707963267948948 $187 $216 forward 7 unknown #
coedge $-1 $217 $173 $179 $203 forward $191 $-1 #
coedge $-1 $173 $217 $212 $218 reversed $191 $-1 #
loop $-1 $-1 $189 $219 #
vertex $-1 $188 $220 #
straight-curve $-1 6.4464566929133849 -4.8190703224174261 9.5 0 0 -1 I I #
coedge $-1 $175 $209 $221 $222 reversed $113 $-1 #
coedge $-1 $223 $224 $175 $196 forward $207 $-1 #
edge $-1 $199 2.2620794126737486e-014 $225 1.570796326794891 $195 $226 forward 7 unknown #
coedge $-1 $227 $176 $224 $228 forward $184 $-1 #
coedge $-1 $176 $227 $178 $202 reversed $184 $-1 #
vertex $-1 $177 $229 #
straight-curve $-1 5.9464566929133849 -4.8190703224174261 -10 -1 0 0 I I #
coedge $-1 $179 $178 $230 $231 reversed $166 $-1 #
edge $-1 $181 0 $232 7.75 $198 $233 forward 7 unknown #
edge $-1 $180 0 $234 7.75 $189 $235 forward 7 unknown #
point $-1 6.4464566929133849 -4.8190703224174261 -9.5 #
point $-1 5.9464566929133849 -4.8190703224174261 -10 #
face $-1 $236 $237 $3 $-1 $238 forward single #
loop $-1 $-1 $223 $183 #
cone-surface $-1 -0.053543307086603896 -5.3190703224174261 -9.5 0 1 0 0 0 0.5 1 I I 0 1 0.5 forward I I I I #
coedge $-1 $194 $186 $239 $240 reversed $113 $-1 #
coedge $-1 $241 $242 $186 $211 forward $243 $-1 #
edge $-1 $244 0 $215 6 $210 $245 forward 7 unknown #
coedge $-1 $246 $187 $190 $218 forward $214 $-1 #
coedge $-1 $187 $246 $241 $247 reversed $214 $-1 #
loop $-1 $-1 $212 $248 #
vertex $-1 $211 $249 #
ellipse-curve $-1 5.946456692913384 -4.8190703224174261 9.5 0 1 0 8.8817841970012523e-016 0 0.5 1 I I #
coedge $-1 $190 $189 $250 $251 reversed $191 $-1 #
edge $-1 $192 0 $252 7.75 $212 $253 forward 7 unknown #
face $-1 $254 $191 $3 $-1 $255 forward single #
point $-1 6.4464566929133849 -4.8190703224174261 9.5 #
coedge $-1 $256 $257 $194 $222 forward $237 $-1 #
edge $-1 $225 0 $258 19 $221 $259 forward 7 unknown #
coedge $-1 $260 $195 $257 $261 forward $207 $-1 #
coedge $-1 $195 $260 $197 $228 reversed $207 $-1 #
vertex $-1 $196 $262 #
ellipse-curve $-1 -0.053543307086602848 -4.8190703224174261 -9.4999999999999982 0 1 0 -9.8532293435482643e-016 0 -0.50000000000000178 1 I I #
coedge $-1 $198 $197 $263 $264 reversed $184 $-1 #
edge $-1 $199 0 $265 7.75 $197 $266 forward 7 unknown #
point $-1 -0.053543307086615144 -4.8190703224174261 -10 #
coedge $-1 $263 $250 $201 $231 forward $267 $-1 #
edge $-1 $234 0 $232 1.5707963267948948 $201 $268 forward 7 unknown #
vertex $-1 $202 $269 #
straight-curve $-1 5.9464566929133849 -4.8190703224174261 -10 0 1 0 I I #
vertex $-1 $251 $270 #
straight-curve $-1 6.4464566929133849 -4.8190703224174261 -9.5 0 1 0 I I #
face $-1 $271 $272 $3 $-1 $273 forward single #
loop $-1 $-1 $256 $206 #
plane-surface $-1 -0.55354330708660382 -5.3190703224174261 -9.5 -1 0 0 0 0 1 forward_v I I I I #
coedge $-1 $274 $275 $209 $240 forward $272 $-1 #
edge $-1 $258 0 $244 1.570796326794891 $239 $276 forward 7 unknown #
coedge $-1 $277 $210 $213 $247 forward $243 $-1 #
coedge $-1 $210 $277 $274 $278 reversed $243 $-1 #
loop $-1 $-1 $241 $271 #
vertex $-1 $240 $279 #
straight-curve $-1 -0.053543307086603889 -4.8190703224174261 10 1 0 0 I I #
coedge $-1 $213 $212 $280 $281 reversed $214 $-1 #
edge $-1 $215 0 $282 7.75 $241 $283 forward 7 unknown #
face $-1 $219 $214 $3 $-1 $284 forward single #
point $-1 5.9464566929133964 -4.8190703224174261 10 #
coedge $-1 $230 $280 $217 $251 forward $267 $-1 #
edge $-1 $252 0 $234 19 $217 $285 forward 7 unknown #
vertex $-1 $281 $286 #
straight-curve $-1 6.4464566929133849 -4.8190703224174261 9.5 0 1 0 I I #
face $-1 $287 $288 $3 $-1 $289 forward single #
plane-surface $-1 6.4464566929133849 -5.3190703224174261 9.5 1 0 0 0 0 -1 forward_v I I I I #
coedge $-1 $290 $221 $275 $291 forward $237 $-1 #
coedge $-1 $221 $290 $223 $261 reversed $237 $-1 #
vertex $-1 $222 $292 #
straight-curve $-1 -0.55354330708660382 -4.8190703224174261 -9.5 0 0 1 I I #
coedge $-1 $224 $223 $293 $294 reversed $207 $-1 #
edge $-1 $225 0 $295 7.75 $223 $296 forward 7 unknown #
point $-1 -0.55354330708660382 -4.8190703224174261 -9.5 #
coedge $-1 $293 $230 $227 $264 forward $267 $-1 #
edge $-1 $232 0 $265 6 $227 $297 forward 7 unknown #
vertex $-1 $264 $298 #
straight-curve $-1 -0.053543307086603598 -4.8190703224174261 -10 0 1 0 I I #
loop $-1 $-1 $293 $254 #
ellipse-curve $-1 5.946456692913384 2.9309296775825739 -9.5 0 1 0 0.50000000000000089 0 0 1 I I #
point $-1 5.9464566929133849 2.9309296775825739 -10 #
point $-1 6.4464566929133849 2.9309296775825739 -9.5 #
face $-1 $248 $243 $3 $-1 $299 forward single #
loop $-1 $-1 $274 $236 #
cone-surface $-1 -0.053543307086603889 -5.3190703224174261 9.5 0 1 0 0 0 0.5 1 I I 0 1 0.5 forward I I I I #
coedge $-1 $300 $239 $242 $278 forward $272 $-1 #
coedge $-1 $239 $300 $256 $291 reversed $272 $-1 #
ellipse-curve $-1 -0.053543307086602807 -4.8190703224174261 9.4999999999999982 0 1 0 -0.500000000000001 0 1.7763568394002505e-015 1 I I #
coedge $-1 $242 $241 $301 $302 reversed $243 $-1 #
edge $-1 $244 0 $303 7.75 $274 $304 forward 7 unknown #
point $-1 -0.053543307086603889 -4.8190703224174261 10 #
coedge $-1 $250 $301 $246 $281 forward $267 $-1 #
edge $-1 $282 2.3092638912203256e-014 $252 1.5707963267948948 $246 $305 forward 7 unknown #
vertex $-1 $302 $306 #
straight-curve $-1 5.9464566929133849 -4.8190703224174261 10 0 1 0 I I #
cone-surface $-1 5.9464566929133849 -5.3190703224174261 9.5 0 1 0 0 0 0.5 1 I I 0 1 0.5 forward I I I I #
straight-curve $-1 6.4464566929133849 2.9309296775825739 9.5 0 0 -1 I I #
point $-1 6.4464566929133849 2.9309296775825739 9.5 #
face $-1 $307 $308 $3 $-1 $309 forward single #
loop $-1 $267 $310 $254 #
plane-surface $-1 0 2.9309296775825739 0 0 -1 0 0 0 -1 forward_v I I I I #
coedge $-1 $257 $256 $311 $312 reversed $237 $-1 #
edge $-1 $258 0 $313 7.75 $256 $314 forward 7 unknown #
point $-1 -0.55354330708660382 -4.8190703224174261 9.5 #
coedge $-1 $311 $263 $260 $294 forward $267 $-1 #
edge $-1 $265 2.2620794126737486e-014 $295 1.5707963267948908 $260 $315 forward 7 unknown #
vertex $-1 $294 $316 #
straight-curve $-1 -0.55354330708660382 -4.8190703224174261 -9.5 0 1 0 I I #
straight-curve $-1 5.9464566929133849 2.9309296775825739 -10 -1 0 0 I I #
point $-1 -0.053543307086615144 2.9309296775825739 -10 #
plane-surface $-1 -0.053543307086603889 -5.3190703224174261 10 0 0 1 1 0 0 forward_v I I I I #
coedge $-1 $275 $274 $317 $318 reversed $272 $-1 #
coedge $-1 $280 $317 $277 $302 forward $267 $-1 #
edge $-1 $303 0 $282 6 $277 $319 forward 7 unknown #
vertex $-1 $318 $320 #
straight-curve $-1 -0.053543307086603889 -4.8190703224174261 10 0 1 0 I I #
ellipse-curve $-1 5.946456692913384 2.9309296775825739 9.5 0 1 0 8.8817841970012523e-016 0 0.5 1 I I #
point $-1 5.9464566929133964 2.9309296775825739 10 #
face $-1 $321 $322 $3 $-1 $323 forward single #
loop $-1 $-1 $324 $287 #
plane-surface $-1 6.8214566929133849 3.4309296775825739 -9.5 1 0 0 0 0 1 forward_v I I I I #
coedge $-1 $325 $326 $327 $328 forward $288 $-1 #
coedge $-1 $317 $293 $290 $312 forward $267 $-1 #
edge $-1 $295 0 $313 19 $290 $329 forward 7 unknown #
vertex $-1 $312 $330 #
straight-curve $-1 -0.55354330708660382 -4.8190703224174261 9.5 0 1 0 I I #
ellipse-curve $-1 -0.053543307086602709 2.9309296775825739 -9.4999999999999982 0 1 0 -1.124100812432971e-015 0 -0.50000000000000178 1 I I #
point $-1 -0.55354330708660382 2.9309296775825739 -9.5 #
coedge $-1 $301 $311 $300 $318 forward $267 $-1 #
edge $-1 $313 0 $303 1.570796326794891 $300 $331 forward 7 unknown #
straight-curve $-1 -0.053543307086603889 2.9309296775825739 10 1 0 0 I I #
point $-1 -0.053543307086603889 2.9309296775825739 10 #
face $-1 $332 $333 $3 $-1 $334 forward single #
loop $-1 $-1 $335 $307 #
cone-surface $-1 5.9464566929133849 3.4309296775825739 9.5 0 -1 0 0 0 -0.875 1 I I 0 1 0.875 forward I I I I #
coedge $-1 $327 $336 $337 $338 forward $308 $-1 #
coedge $-1 $339 $310 $340 $341 forward $288 $-1 #
coedge $-1 $310 $342 $343 $344 forward $288 $-1 #
coedge $-1 $345 $324 $310 $328 reversed $308 $-1 #
edge $-1 $346 0 $347 19 $310 $348 forward 7 unknown #
straight-curve $-1 -0.55354330708660382 2.9309296775825739 -9.5 0 0 1 I I #
point $-1 -0.55354330708660382 2.9309296775825739 9.5 #
ellipse-curve $-1 -0.053543307086602807 2.9309296775825739 9.4999999999999982 0 1 0 -0.500000000000001 0 1.7763568394002505e-015 1 I I #
face $-1 $349 $350 $3 $-1 $351 forward single #
loop $-1 $-1 $352 $321 #
plane-surface $-1 5.9464566929133849 3.4309296775825739 10.375 0 0 1 -1 0 0 forward_v I I I I #
coedge $-1 $340 $353 $354 $355 forward $322 $-1 #
coedge $-1 $324 $345 $356 $357 forward $308 $-1 #
coedge $-1 $353 $340 $324 $338 reversed $322 $-1 #
edge $-1 $358 0 $347 0.5 $324 $359 forward 7 unknown #
coedge $-1 $360 $325 $361 $362 forward $288 $-1 #
coedge $-1 $337 $335 $325 $341 reversed $322 $-1 #
edge $-1 $347 0 $363 1.5707963267948937 $325 $364 forward 7 unknown #
coedge $-1 $326 $365 $366 $367 forward $288 $-1 #
coedge $-1 $368 $369 $326 $344 reversed $370 $-1 #
edge $-1 $371 0 $346 1.5707963267948937 $326 $372 forward 7 unknown #
coedge $-1 $336 $327 $369 $373 reversed $308 $-1 #
vertex $-1 $344 $374 #
vertex $-1 $341 $375 #
straight-curve $-1 6.8214566929133849 2.9309296775825739 -9.5 0 0 1 I I #
face $-1 $376 $377 $3 $-1 $378 forward single #
loop $-1 $-1 $379 $332 #
cone-surface $-1 -0.053543307086603889 3.4309296775825739 9.5 0 -1 0 0 0 -0.875 1 I I 0 1 0.875 forward I I I I #
coedge $-1 $361 $380 $381 $382 forward $333 $-1 #
coedge $-1 $335 $337 $383 $384 forward $322 $-1 #
coedge $-1 $380 $361 $335 $355 reversed $333 $-1 #
edge $-1 $385 0 $363 0.5 $335 $386 forward 7 unknown #
coedge $-1 $387 $383 $336 $357 reversed $388 $-1 #
edge $-1 $389 0 $358 19 $356 $390 forward 7 unknown #
vertex $-1 $357 $391 #
straight-curve $-1 6.8214566929133849 3.4309296775825739 9.5 0 -1 0 I I #
coedge $-1 $392 $339 $393 $394 forward $288 $-1 #
coedge $-1 $354 $352 $339 $362 reversed $333 $-1 #
edge $-1 $363 0 $395 5.9999999999999885 $339 $396 forward 7 unknown #
vertex $-1 $362 $397 #
ellipse-curve $-1 5.946456692913384 2.9309296775825739 9.4999999999999982 0 -1 0 0.87500000000000089 0 1.7763568394002505e-015 1 I I #
coedge $-1 $342 $392 $398 $399 forward $288 $-1 #
coedge $-1 $400 $401 $342 $367 reversed $402 $-1 #
edge $-1 $403 5.134781488891349e-016 $371 5.9999999999999893 $342 $404 forward 7 unknown #
coedge $-1 $405 $343 $401 $406 reversed $370 $-1 #
coedge $-1 $343 $405 $345 $373 forward $370 $-1 #
loop $-1 $-1 $369 $407 #
vertex $-1 $344 $408 #
ellipse-curve $-1 5.946456692913384 2.9309296775825739 -9.4999999999999982 0 -1 0 8.8817841970012523e-016 0 -0.87500000000000178 1 I I #
edge $-1 $389 0 $346 0.5 $369 $409 forward 7 unknown #
point $-1 6.8214566929133849 2.9309296775825739 -9.5 #
point $-1 6.8214566929133849 2.9309296775825739 9.5 #
face $-1 $410 $411 $3 $-1 $412 forward single #
loop $-1 $-1 $413 $349 #
plane-surface $-1 -0.92854330708660382 3.4309296775825739 9.5 -1 0 0 0 0 -1 forward_v I I I I #
coedge $-1 $393 $414 $415 $416 forward $350 $-1 #
coedge $-1 $352 $354 $417 $418 forward $333 $-1 #
coedge $-1 $414 $393 $352 $382 reversed $350 $-1 #
edge $-1 $419 0 $395 0.5 $352 $420 forward 7 unknown #
coedge $-1 $356 $417 $353 $384 reversed $388 $-1 #
edge $-1 $358 0 $385 1.5707963267948966 $383 $421 forward 7 unknown #
vertex $-1 $384 $422 #
straight-curve $-1 5.9464566929133849 3.4309296775825739 10.375 0 -1 0 I I #
coedge $-1 $423 $356 $405 $424 reversed $388 $-1 #
loop $-1 $-1 $423 $425 #
vertex $-1 $424 $426 #
straight-curve $-1 6.8214566929133849 3.4309296775825739 -9.5 0 0 1 I I #
point $-1 6.8214566929133849 3.4309296775825739 9.5 #
coedge $-1 $365 $360 $427 $428 forward $288 $-1 #
coedge $-1 $381 $379 $360 $394 reversed $350 $-1 #
edge $-1 $395 0 $429 1.5707963267948939 $360 $430 forward 7 unknown #
vertex $-1 $394 $431 #
straight-curve $-1 5.9464566929133849 2.9309296775825739 10.375 -1 0 0 I I #
point $-1 5.9464566929133849 2.9309296775825739 10.375 #
coedge $-1 $432 $433 $365 $399 reversed $411 $-1 #
edge $-1 $434 -2.5758723435788125e-031 $403 1.5707963267948946 $365 $435 forward 7 unknown #
coedge $-1 $436 $366 $433 $437 reversed $402 $-1 #
coedge $-1 $366 $436 $368 $406 forward $402 $-1 #
loop $-1 $-1 $401 $410 #
vertex $-1 $367 $438 #
straight-curve $-1 -0.053543307086604111 2.9309296775825739 -10.375 1 0 0 I I #
coedge $-1 $369 $368 $387 $424 forward $370 $-1 #
edge $-1 $439 0 $371 0.5 $368 $440 forward 7 unknown #
face $-1 $425 $370 $3 $-1 $441 forward single #
point $-1 5.9464566929133849 2.9309296775825739 -10.375 #
straight-curve $-1 6.8214566929133849 3.4309296775825739 -9.5 0 -1 0 I I #
face $-1 $407 $402 $3 $-1 $442 forward single #
loop $-1 $-1 $433 $376 #
cone-surface $-1 -0.053543307086603896 3.4309296775825739 -9.5 0 -1 0 0 0 -0.875 1 I I 0 1 0.875 forward I I I I #
coedge $-1 $427 $443 $432 $444 forward $377 $-1 #
coedge $-1 $379 $381 $445 $446 forward $350 $-1 #
coedge $-1 $443 $427 $379 $416 reversed $377 $-1 #
edge $-1 $447 2.4651903288156619e-032 $429 0.5 $379 $448 forward 7 unknown #
coedge $-1 $383 $445 $380 $418 reversed $388 $-1 #
edge $-1 $385 0 $419 5.9999999999999885 $417 $449 forward 7 unknown #
vertex $-1 $418 $450 #
straight-curve $-1 -0.053543307086603598 3.4309296775825739 10.375 0 -1 0 I I #
ellipse-curve $-1 5.9464566929133849 3.4309296775825739 9.5 0 -1 0 0.875 0 0 1 I I #
point $-1 5.9464566929133849 3.4309296775825739 10.375 #
coedge $-1 $451 $387 $436 $452 reversed $388 $-1 #
edge $-1 $439 0 $389 1.5707963267948966 $387 $453 forward 7 unknown #
face $-1 $-1 $388 $3 $-1 $454 forward single #
point $-1 6.8214566929133849 3.4309296775825739 -9.5 #
coedge $-1 $415 $413 $392 $428 reversed $377 $-1 #
edge $-1 $429 0 $434 19 $392 $455 forward 7 unknown #
vertex $-1 $428 $456 #
ellipse-curve $-1 -0.053543307086603098 2.9309296775825739 9.4999999999999982 0 -1 0 -6.8695049648681561e-016 0 0.87500000000000178 1 I I #
point $-1 -0.053543307086603785 2.9309296775825739 10.375 #
coedge $-1 $457 $398 $413 $444 reversed $411 $-1 #
coedge $-1 $398 $457 $400 $437 forward $411 $-1 #
vertex $-1 $399 $458 #
ellipse-curve $-1 -0.053543307086603625 2.9309296775825739 -9.4999999999999982 0 -1 0 -0.87500000000000022 0 -1.7763568394002505e-015 1 I I #
coedge $-1 $401 $400 $423 $452 forward $402 $-1 #
edge $-1 $459 -1.2836323079340927e-031 $403 0.5 $433 $460 forward 7 unknown #
point $-1 -0.053543307086603598 2.9309296775825739 -10.375 #
vertex $-1 $424 $461 #
straight-curve $-1 5.9464566929133849 3.4309296775825739 -10.375 0 -1 0 I I #
cone-surface $-1 5.9464566929133849 3.4309296775825739 -9.5 0 -1 0 0 0 -0.875 1 I I 0 1 0.875 forward I I I I #
plane-surface $-1 -0.053543307086603598 3.4309296775825739 -10.375 0 0 -1 1 0 0 forward_v I I I I #
coedge $-1 $413 $415 $462 $463 forward $377 $-1 #
edge $-1 $464 0 $434 0.5 $413 $465 forward 7 unknown #
coedge $-1 $417 $462 $414 $446 reversed $388 $-1 #
edge $-1 $419 0 $447 1.5707963267948968 $445 $466 forward 7 unknown #
vertex $-1 $446 $467 #
straight-curve $-1 -0.92854330708660393 3.4309296775825739 9.5 2.2204460492503131e-016 -1 0 I I #
straight-curve $-1 5.9464566929133849 3.4309296775825739 10.375 -1 0 0 I I #
point $-1 -0.053543307086603785 3.4309296775825739 10.375 #
coedge $-1 $462 $423 $457 $468 reversed $388 $-1 #
edge $-1 $459 0 $439 5.9999999999999893 $423 $469 forward 7 unknown #
ellipse-curve $-1 5.9464566929133849 3.4309296775825739 -9.5 0 -1 0 0 0 -0.875 1 I I #
plane-surface $-1 0 3.4309296775825739 0 0 1 0 0 0 1 forward_v I I I I #
straight-curve $-1 -0.92854330708660382 2.9309296775825739 9.5 0 0 -1 I I #
point $-1 -0.92854330708660382 2.9309296775825739 9.5 #
coedge $-1 $433 $432 $451 $468 forward $411 $-1 #
point $-1 -0.92854330708660393 2.9309296775825739 -9.5 #
vertex $-1 $468 $470 #
straight-curve $-1 -0.053543307086603896 3.4309296775825739 -10.375 5.9674487573602164e-016 -1 0 I I #
point $-1 5.9464566929133849 3.4309296775825739 -10.375 #
coedge $-1 $445 $451 $443 $463 reversed $388 $-1 #
edge $-1 $447 0 $464 19 $462 $471 forward 7 unknown #
vertex $-1 $463 $472 #
straight-curve $-1 -0.92854330708660382 3.4309296775825739 -9.5 0 -1 0 I I #
ellipse-curve $-1 -0.053543307086603889 3.4309296775825739 9.5 0 -1 0 1.0408340855860843e-016 0 0.875 1 I I #
point $-1 -0.92854330708660382 3.4309296775825739 9.5 #
edge $-1 $464 0 $459 1.5707963267948963 $451 $473 forward 7 unknown #
straight-curve $-1 -0.053543307086604111 3.4309296775825739 -10.375 1 0 0 I I #
point $-1 -0.053543307086604111 3.4309296775825739 -10.375 #
straight-curve $-1 -0.92854330708660382 3.4309296775825739 9.5 0 0 -1 I I #
point $-1 -0.92854330708660382 3.4309296775825739 -9.5 #
ellipse-curve $-1 -0.053543307086603896 3.4309296775825739 -9.5 0 -1 0 -0.87499999999999989 0 0 1 I I #
End-of-ACIS-data 