600 0 1 0           
108 GICL Pro/E ACIS Translator - Source: f:/data5/repository/PTC/V20/prod_appl/assoc_demo/mold/ki110.prt.3 - 6 0 13 ACIS 6.0.3 NT 24 Thu Apr 04 13:16:22 2002 
1 9.9999999999999995e-007 1e-010 
body $-1 $1 $-1 $2 #
lump $-1 $-1 $3 $0 #
transform $-1 1 0 0 0 1 0 0 0 1 0 0 0 25.399999999999999 no_rotate no_reflect no_shear #
shell $-1 $-1 $-1 $4 $-1 $1 #
face $-1 $5 $6 $3 $-1 $7 reversed single #
face $-1 $8 $9 $3 $-1 $10 forward single #
loop $-1 $-1 $11 $4 #
cone-surface $-1 -0.021874999999999999 0 0 1 0 0 0 -1 0 1 I I 0 1 1 forward I I I I #
face $-1 $12 $13 $3 $-1 $14 reversed single #
loop $-1 $15 $16 $5 #
plane-surface $-1 0.4375 0 0 1 0 0 0 -1 0 forward_v I I I I #
coedge $-1 $17 $18 $16 $19 forward $6 $-1 #
face $-1 $20 $21 $3 $-1 $22 reversed single #
loop $-1 $-1 $23 $8 #
cone-surface $-1 -0.021874999999999999 0 0 1 0 0 0 -1 0 1 I I 0 1 1 forward I I I I #
loop $-1 $24 $25 $5 #
coedge $-1 $26 $26 $11 $19 reversed $9 $-1 #
coedge $-1 $27 $11 $28 $29 reversed $6 $-1 #
coedge $-1 $11 $27 $30 $31 forward $6 $-1 #
edge $-1 $32 1.2246063538223773e-016 $33 3.1415926535897931 $11 $34 forward 7 unknown #
face $-1 $35 $36 $3 $-1 $37 forward single #
loop $-1 $38 $39 $12 #
plane-surface $-1 0 0 0 1 0 0 0 -1 0 forward_v I I I I #
coedge $-1 $28 $30 $39 $40 forward $13 $-1 #
loop $-1 $41 $42 $5 #
coedge $-1 $43 $43 $44 $45 forward $15 $-1 #
coedge $-1 $16 $16 $46 $47 forward $9 $-1 #
coedge $-1 $18 $17 $48 $49 reversed $6 $-1 #
coedge $-1 $46 $23 $17 $29 forward $13 $-1 #
edge $-1 $50 0 $33 0.4375 $17 $51 forward 7 unknown #
coedge $-1 $23 $46 $18 $31 reversed $13 $-1 #
edge $-1 $52 0 $32 0.4375 $18 $53 forward 7 unknown #
vertex $-1 $31 $54 #
vertex $-1 $29 $55 #
ellipse-curve $-1 0.4375 0 0 1 0 0 0 1 0 1 I I #
face $-1 $56 $57 $3 $-1 $58 forward single #
loop $-1 $-1 $59 $20 #
cone-surface $-1 -0.021874999999999999 0 0 1 0 0 0 -2 0 1 I I 0 1 2 forward I I I I #
loop $-1 $60 $61 $12 #
coedge $-1 $48 $48 $23 $40 reversed $21 $-1 #
edge $-1 $52 0 $50 3.1415926535897931 $39 $62 forward 7 unknown #
loop $-1 $-1 $63 $5 #
coedge $-1 $64 $64 $65 $66 reversed $24 $-1 #
coedge $-1 $25 $25 $67 $68 forward $15 $-1 #
coedge $-1 $69 $70 $25 $45 reversed $71 $-1 #
edge $-1 $72 0 $73 3.1415926535897931 $25 $74 forward 7 unknown #
coedge $-1 $30 $28 $26 $47 reversed $13 $-1 #
edge $-1 $32 -1.2246063538223773e-016 $33 3.1415926535897931 $26 $75 forward 7 unknown #
coedge $-1 $39 $39 $27 $49 forward $21 $-1 #
edge $-1 $52 0 $50 3.1415926535897931 $27 $76 forward 7 unknown #
vertex $-1 $49 $77 #
straight-curve $-1 0 -1 -2.4492127076447545e-016 1 0 0 I I #
vertex $-1 $31 $78 #
straight-curve $-1 0 1 1.2246063538223773e-016 1 0 0 I I #
point $-1 0.4375 1 1.2246063538223773e-016 #
point $-1 0.4375 -1 0 #
face $-1 $79 $80 $3 $-1 $81 forward single #
loop $-1 $-1 $82 $35 #
cone-surface $-1 -0.021874999999999999 0 0 1 0 0 0 -2 0 1 I I 0 1 2 forward I I I I #
coedge $-1 $83 $84 $61 $85 forward $36 $-1 #
loop $-1 $86 $87 $12 #
coedge $-1 $88 $88 $59 $85 reversed $38 $-1 #
ellipse-curve $-1 0 -2.7755575615628914e-017 8.3266726846886741e-017 -1 0 0 0 1 3.9193908535350985e-017 1 I I #
coedge $-1 $89 $90 $91 $92 forward $41 $-1 #
coedge $-1 $42 $42 $93 $94 reversed $24 $-1 #
coedge $-1 $95 $96 $42 $66 forward $97 $-1 #
edge $-1 $98 0 $99 3.1415926535897931 $42 $100 forward 7 unknown #
coedge $-1 $101 $102 $43 $68 reversed $103 $-1 #
edge $-1 $73 0 $72 3.1415926535897931 $43 $104 forward 7 unknown #
coedge $-1 $105 $44 $102 $106 forward $71 $-1 #
coedge $-1 $44 $105 $101 $107 reversed $71 $-1 #
loop $-1 $-1 $69 $108 #
vertex $-1 $68 $109 #
vertex $-1 $68 $110 #
ellipse-curve $-1 0.4375 1.6559999999999999 0 -1 0 0 0 0.15625 0 1 I I #
ellipse-curve $-1 0.4375 0 0 -1 0 0 0 1 0 1 I I #
ellipse-curve $-1 0 0 0 1 0 0 0 1 1.2246063538223773e-016 1 I I #
point $-1 0 -1 0 #
point $-1 0 1 1.2246063538223773e-016 #
face $-1 $111 $112 $3 $-1 $113 forward single #
loop $-1 $-1 $114 $56 #
cone-surface $-1 1.3974999999999973 0 0 1 0 0 0 -1.0000000000000013 0 1 I I -0.70710678118654802 0.70710678118654713 1.0000000000000013 forward I I I I #
coedge $-1 $115 $116 $117 $118 forward $57 $-1 #
coedge $-1 $119 $59 $115 $120 reversed $36 $-1 #
coedge $-1 $59 $119 $116 $121 forward $36 $-1 #
edge $-1 $122 1.2246063538223773e-016 $123 3.1415926535897931 $59 $124 forward 7 unknown #
loop $-1 $125 $126 $12 #
coedge $-1 $127 $127 $105 $128 reversed $60 $-1 #
coedge $-1 $61 $61 $129 $130 forward $38 $-1 #
coedge $-1 $131 $63 $132 $133 reversed $41 $-1 #
coedge $-1 $63 $134 $135 $136 forward $41 $-1 #
coedge $-1 $137 $138 $63 $92 reversed $139 $-1 #
edge $-1 $140 0 $141 2.6072464911391759 $63 $142 forward 7 unknown #
coedge $-1 $143 $144 $64 $94 forward $145 $-1 #
edge $-1 $99 0 $98 3.1415926535897931 $64 $146 forward 7 unknown #
coedge $-1 $147 $65 $144 $148 forward $97 $-1 #
coedge $-1 $65 $147 $143 $149 reversed $97 $-1 #
loop $-1 $-1 $95 $150 #
vertex $-1 $94 $151 #
vertex $-1 $94 $152 #
ellipse-curve $-1 0.4375 -1.6559999999999999 0 1 0 0 0 -0.15625 0 1 I I #
coedge $-1 $153 $67 $70 $107 forward $103 $-1 #
coedge $-1 $67 $153 $69 $106 reversed $103 $-1 #
loop $-1 $-1 $101 $154 #
ellipse-curve $-1 0.4375 1.6559999999999999 0 -1 0 0 0 -0.15625 0 1 I I #
coedge $-1 $70 $69 $87 $128 forward $71 $-1 #
edge $-1 $72 0 $155 0.4375 $102 $156 forward 7 unknown #
edge $-1 $73 0 $157 0.4375 $101 $158 forward 7 unknown #
face $-1 $154 $71 $3 $-1 $159 reversed single #
point $-1 0.4375 1.8122499999999999 0 #
point $-1 0.4375 1.4997499999999999 0 #
face $-1 $160 $161 $3 $-1 $162 reversed single #
loop $-1 $-1 $163 $79 #
cone-surface $-1 1.3974999999999973 0 0 1 0 0 0 -1.0000000000000013 0 1 I I -0.70710678118654802 0.70710678118654713 1.0000000000000013 forward I I I I #
coedge $-1 $164 $165 $134 $166 forward $80 $-1 #
coedge $-1 $129 $82 $83 $120 forward $57 $-1 #
coedge $-1 $82 $129 $84 $121 reversed $57 $-1 #
coedge $-1 $167 $164 $82 $118 reversed $80 $-1 #
edge $-1 $168 0 $169 3.1415926535897931 $117 $170 forward 7 unknown #
coedge $-1 $84 $83 $171 $172 reversed $36 $-1 #
edge $-1 $169 0 $123 0.39750000000000002 $83 $173 forward 7 unknown #
edge $-1 $168 0 $122 0.39750000000000002 $84 $174 forward 7 unknown #
vertex $-1 $121 $175 #
vertex $-1 $120 $176 #
ellipse-curve $-1 0 -5.5511151231257827e-017 -5.5511151231257827e-017 1 0 0 0 2 5.5511151231257827e-017 1 I I #
loop $-1 $177 $178 $12 #
coedge $-1 $179 $179 $147 $180 forward $86 $-1 #
coedge $-1 $87 $87 $153 $181 reversed $60 $-1 #
edge $-1 $155 0 $157 3.1415926535897931 $87 $182 forward 7 unknown #
coedge $-1 $116 $115 $88 $130 reversed $57 $-1 #
edge $-1 $122 -1.2246063538223773e-016 $123 3.1415926535897931 $88 $183 forward 7 unknown #
coedge $-1 $184 $89 $185 $186 forward $41 $-1 #
coedge $-1 $187 $167 $89 $133 forward $80 $-1 #
edge $-1 $188 0 $141 1.4812623249989825 $89 $189 forward 7 unknown #
coedge $-1 $90 $190 $114 $166 reversed $41 $-1 #
coedge $-1 $191 $192 $90 $136 reversed $193 $-1 #
edge $-1 $194 0 $140 2.6072464911391751 $90 $195 forward 7 unknown #
coedge $-1 $196 $91 $192 $197 reversed $139 $-1 #
coedge $-1 $91 $198 $187 $199 reversed $139 $-1 #
loop $-1 $-1 $137 $200 #
vertex $-1 $136 $201 #
vertex $-1 $133 $202 #
ellipse-curve $-1 0.4375 5.5511151231257827e-017 -1.6559999999999999 -1 0 0 0 -5.5511151231257827e-017 0.34411877408761282 1 I I #
coedge $-1 $203 $93 $96 $149 forward $145 $-1 #
coedge $-1 $93 $203 $95 $148 reversed $145 $-1 #
loop $-1 $-1 $143 $204 #
ellipse-curve $-1 0.4375 -1.6559999999999999 0 1 0 0 0 0.15625 0 1 I I #
coedge $-1 $96 $95 $126 $180 reversed $97 $-1 #
edge $-1 $99 0 $205 0.4375 $144 $206 forward 7 unknown #
edge $-1 $98 0 $207 0.4375 $143 $208 forward 7 unknown #
face $-1 $204 $97 $3 $-1 $209 reversed single #
point $-1 0.4375 -1.8122499999999999 0 #
point $-1 0.4375 -1.4997499999999999 0 #
coedge $-1 $102 $101 $127 $181 forward $103 $-1 #
face $-1 $150 $103 $3 $-1 $210 reversed single #
vertex $-1 $181 $211 #
straight-curve $-1 0.4375 1.8122499999999999 1.9134474278474645e-017 -1 0 0 I I #
vertex $-1 $181 $212 #
straight-curve $-1 0.4375 1.4997499999999999 0 -1 0 0 I I #
cone-surface $-1 0.4375 1.6559999999999999 0 -1 0 0 0 -0.15625 0 1 I I 0 1 0.15625 forward I I I I #
face $-1 $213 $214 $3 $-1 $215 reversed single #
loop $-1 $-1 $216 $111 #
cone-surface $-1 1.0416366339579863 0 1.6559999999999999 -1 0 0 0 0 0.86928673781622667 1 I I -0.65605902899050728 0.75470958022277201 0.86928673781622667 forward I I I I #
coedge $-1 $185 $217 $216 $218 forward $112 $-1 #
coedge $-1 $117 $114 $219 $220 forward $80 $-1 #
coedge $-1 $114 $187 $191 $221 forward $80 $-1 #
edge $-1 $194 7.225004064876337e-017 $222 1.4812623249989834 $134 $223 forward 7 unknown #
coedge $-1 $132 $117 $224 $225 reversed $80 $-1 #
vertex $-1 $172 $226 #
vertex $-1 $220 $227 #
ellipse-curve $-1 0.39750000000000002 -5.5511151231257827e-017 5.5511151231257827e-017 -1 0 0 0 2 1.8941011953321762e-016 1 I I #
coedge $-1 $219 $224 $119 $172 forward $112 $-1 #
edge $-1 $168 0 $169 3.1415926535897931 $171 $228 forward 7 unknown #
straight-curve $-1 0.39750000000000002 -2 -4.898425415289509e-016 -1 0 0 I I #
straight-curve $-1 0.39750000000000002 2 2.4492127076447545e-016 -1 0 0 I I #
point $-1 0 2 2.4492127076447545e-016 #
point $-1 0 -2 0 #
loop $-1 $-1 $229 $12 #
coedge $-1 $230 $230 $231 $232 forward $125 $-1 #
coedge $-1 $126 $126 $203 $233 forward $86 $-1 #
edge $-1 $207 0 $205 3.1415926535897931 $126 $234 forward 7 unknown #
edge $-1 $157 0 $155 3.1415926535897931 $127 $235 forward 7 unknown #
ellipse-curve $-1 0 1.6559999999999997 0 -1 0 0 0 0.15625000000000022 0 1 I I #
ellipse-curve $-1 0 -5.5511151231257827e-017 5.5511151231257827e-017 -1 0 0 0 2 -5.5511151231257827e-017 1 I I #
coedge $-1 $236 $131 $237 $238 reversed $41 $-1 #
coedge $-1 $224 $163 $131 $186 reversed $112 $-1 #
edge $-1 $188 0 $239 1.481262324998982 $131 $240 forward 7 unknown #
coedge $-1 $165 $132 $138 $199 forward $80 $-1 #
vertex $-1 $186 $241 #
ellipse-curve $-1 0.4375 -1.1102230246251565e-016 1.1102230246251565e-016 -1 0 0 0 1.96 1.2900054288667031e-016 1 I I #
coedge $-1 $134 $236 $242 $243 forward $41 $-1 #
coedge $-1 $244 $135 $165 $221 reversed $193 $-1 #
coedge $-1 $135 $245 $137 $197 forward $193 $-1 #
loop $-1 $-1 $191 $246 #
vertex $-1 $136 $247 #
ellipse-curve $-1 0.4375 1.5265566588595902e-016 -1.6559999999999999 -1 0 0 0 -0.17525227745138067 -0.29614923590592945 1 I I #
coedge $-1 $198 $137 $248 $249 reversed $139 $-1 #
edge $-1 $250 -3.3844988919899913e-033 $140 0.26235257268306472 $192 $251 forward 7 unknown #
coedge $-1 $138 $196 $244 $252 forward $139 $-1 #
edge $-1 $141 0 $253 1 $187 $254 forward 7 unknown #
face $-1 $246 $139 $3 $-1 $255 reversed single #
point $-1 0.4375 0 -1.3118812259123871 #
point $-1 0.4375 0.17525227745138064 -1.9521492359059294 #
coedge $-1 $144 $143 $179 $233 reversed $145 $-1 #
face $-1 $-1 $145 $3 $-1 $256 reversed single #
vertex $-1 $233 $257 #
straight-curve $-1 0.4375 -1.4997499999999999 0 -1 0 0 I I #
vertex $-1 $233 $258 #
straight-curve $-1 0.4375 -1.8122499999999999 1.9134474278474645e-017 -1 0 0 I I #
cone-surface $-1 0.4375 -1.6559999999999999 0 1 0 0 0 0.15625 0 1 I I 0 1 0.15625 forward I I I I #
cone-surface $-1 0.4375 1.6559999999999999 0 -1 0 0 0 -0.15625 0 1 I I 0 1 0.15625 forward I I I I #
point $-1 0 1.8122499999999999 0 #
point $-1 0 1.4997499999999999 0 #
face $-1 $259 $260 $3 $-1 $261 reversed single #
loop $-1 $-1 $262 $160 #
cone-surface $-1 1.0416366339579863 0 1.6559999999999999 -1 0 0 0 0 0.86928673781622667 1 I I -0.65605902899050728 0.75470958022277201 0.86928673781622667 forward I I I I #
coedge $-1 $263 $237 $163 $218 reversed $161 $-1 #
coedge $-1 $163 $242 $264 $265 forward $112 $-1 #
edge $-1 $266 0 $239 1 $163 $267 forward 7 unknown #
coedge $-1 $242 $171 $164 $220 reversed $112 $-1 #
edge $-1 $222 0 $169 0.056568542494923817 $219 $268 forward 7 unknown #
edge $-1 $253 0 $194 1 $165 $269 forward 7 unknown #
vertex $-1 $166 $270 #
ellipse-curve $-1 0.4375 -9.9920072216264089e-016 -7.2164496600635175e-016 -1 0 0 0 -0.17525227745137936 -1.9521492359059287 1 I I #
coedge $-1 $171 $185 $167 $225 forward $112 $-1 #
edge $-1 $188 0 $168 0.056568542494923817 $224 $271 forward 7 unknown #
point $-1 0.39750000000000002 2 2.4492127076447545e-016 #
point $-1 0.39750000000000002 -2 -4.898425415289509e-016 #
ellipse-curve $-1 0.39750000000000002 0 5.5511151231257827e-017 1 0 0 0 2 1.8941011953321762e-016 1 I I #
coedge $-1 $272 $272 $273 $274 reversed $177 $-1 #
coedge $-1 $178 $178 $275 $276 forward $125 $-1 #
coedge $-1 $277 $278 $178 $232 reversed $279 $-1 #
edge $-1 $280 0 $281 3.1415926535897918 $178 $282 forward 7 unknown #
edge $-1 $205 0 $207 3.1415926535897931 $179 $283 forward 7 unknown #
ellipse-curve $-1 0 -1.6559999999999997 0 1 0 0 0 -0.15625000000000022 0 1 I I #
ellipse-curve $-1 0 1.6560000000000001 0 -1 0 0 0 -0.15625000000000022 0 1 I I #
coedge $-1 $190 $184 $284 $285 reversed $41 $-1 #
coedge $-1 $216 $286 $184 $238 forward $161 $-1 #
edge $-1 $287 0 $239 2.6072464911391751 $184 $288 forward 7 unknown #
vertex $-1 $238 $289 #
ellipse-curve $-1 0.4375 -3.8857805861880479e-016 -4.9960036108132044e-016 1 0 0 0 1.9600000000000004 7.3962320643050635e-016 1 I I #
point $-1 0.4375 1.96 2.4002284534918596e-016 #
coedge $-1 $217 $219 $190 $243 reversed $112 $-1 #
edge $-1 $290 0 $222 1.4812623249989825 $190 $291 forward 7 unknown #
coedge $-1 $245 $191 $198 $252 reversed $193 $-1 #
coedge $-1 $192 $244 $292 $293 forward $193 $-1 #
face $-1 $294 $193 $3 $-1 $295 reversed single #
point $-1 0.4375 -0.1752522774513805 -1.9521492359059294 #
coedge $-1 $296 $297 $196 $249 forward $298 $-1 #
edge $-1 $299 0 $250 3.1415926535897918 $248 $300 forward 7 unknown #
vertex $-1 $293 $301 #
straight-curve $-1 0.23950000000000005 2.1063229285744877e-017 -1.484 0.75470958022277201 8.0341405538431448e-017 0.65605902899050716 I I #
edge $-1 $299 0 $253 0.2339150430799746 $244 $302 forward 7 unknown #
vertex $-1 $221 $303 #
intcurve-curve $-1 forward { surfintcur full nurbs 3 open 4 
	0 3 0.33622494624308963 1 0.66992858678690492 1 1 3 
	0.4375 0.17525227745138108 -1.9521492359059294 1 
	0.43266762234301903 0.15584404230662605 -1.9587442277767961 1 
	0.42466477165740613 0.11700547057480293 -1.969667912196468 1 
	0.41753026252881037 0.057488192528988541 -1.9794219239598234 1 
	0.41600581109141532 0.019033248062737932 -1.9815051696930372 1 
	0.41603792397067929 3.6397665722453762e-016 -1.9814620760293207 1 
	0.001 
	cone 1.0416366339579866 0 -1.6559999999999999 -1 0 0 0 0 -0.86928673781622667 1 I I -0.65605902899050728 0.75470958022277201 0.86928673781622667 forward I I I I 
	cone 1.3974999999999973 0 0 1 0 0 0 -1.0000000000000013 0 1 I I -0.70710678118654802 0.70710678118654713 1.0000000000000013 forward I I I I 
	nullbs 
	nullbs 
	I I 
	0 
	0 
	0 
	} I I #
cone-surface $-1 1.0416366339579866 0 -1.6559999999999999 -1 0 0 0 0 -0.86928673781622667 1 I I -0.65605902899050728 0.75470958022277201 0.86928673781622667 forward I I I I #
cone-surface $-1 0.4375 -1.6559999999999999 0 1 0 0 0 0.15625 0 1 I I 0 1 0.15625 forward I I I I #
point $-1 0 -1.4997499999999999 0 #
point $-1 0 -1.8122499999999999 0 #
face $-1 $200 $279 $3 $-1 $304 reversed single #
loop $-1 $-1 $305 $213 #
cone-surface $-1 -0.021875000000000089 0 1.6559999999999999 1 0 0 0 0 0.17199999999999993 1 I I 0 1 0.17199999999999993 forward I I I I #
coedge $-1 $306 $284 $286 $307 reversed $214 $-1 #
coedge $-1 $308 $216 $309 $310 reversed $161 $-1 #
coedge $-1 $284 $309 $217 $265 reversed $214 $-1 #
edge $-1 $290 0 $266 1 $217 $311 forward 7 unknown #
vertex $-1 $265 $312 #
intcurve-curve $-1 forward { surfintcur full nurbs 3 open 4 
	0 3 0.33003417937486068 1 0.66374019527822403 1 1 3 
	0.41603792397067929 -1.2132555240817923e-016 1.9814620760293207 1 
	0.4160052449034366 0.019020734464303028 1.9815059444919549 0.99999999999999989 
	0.41752863739071527 0.057459738681095586 1.9794241468263205 0.99999999999999967 
	0.42466006053349209 0.1169809074330328 1.9696743469106481 1.0000000000000004 
	0.43266541593472863 0.15583326756017385 1.9587472411615663 0.99999999999999989 
	0.4375 0.17525227745138017 1.9521492359059294 1 
	0.001 
	cone 1.0416366339579863 0 1.6559999999999999 -1 0 0 0 0 0.86928673781622667 1 I I -0.65605902899050728 0.75470958022277201 0.86928673781622667 forward I I I I 
	cone 1.3974999999999973 0 0 1 0 0 0 -1.0000000000000013 0 1 I I -0.70710678118654802 0.70710678118654713 1.0000000000000013 forward I I I I 
	nullbs 
	nullbs 
	I I 
	0 
	0 
	0 
	} I I #
straight-curve $-1 0.4375 -1.96 -4.8004569069837192e-016 -0.70710678118654757 -0.70710678118654757 -1.7318549141438699e-016 I I #
intcurve-curve $-1 forward { surfintcur full nurbs 3 open 4 
	0 3 0.33000575771085794 1 0.66368601068224986 1 1 3 
	0.41603792397067929 3.6397665722453762e-016 -1.9814620760293207 1 
	0.41600519490096632 -0.019013522341591822 -1.9815060139125313 1 
	0.41752817497300476 -0.057441586720858306 -1.9794247807459102 1 
	0.42465262468300119 -0.11693853532452904 -1.9696845040415152 1 
	0.43266177515337223 -0.15581384933940723 -1.9587522137197042 1 
	0.4375 -0.17525227745138036 -1.9521492359059294 1 
	0.001 
	cone 1.0416366339579866 0 -1.6559999999999999 -1 0 0 0 0 -0.86928673781622667 1 I I -0.65605902899050728 0.75470958022277201 0.86928673781622667 forward I I I I 
	cone 1.3974999999999973 0 0 1 0 0 0 -1.0000000000000013 0 1 I I -0.70710678118654802 0.70710678118654713 1.0000000000000013 forward I I I I 
	nullbs 
	nullbs 
	I I 
	0 
	0 
	0 
	} I I #
point $-1 0.4375 -1.96 -4.8004569069837192e-016 #
straight-curve $-1 0.4375 1.96 2.4002284534918596e-016 -0.70710678118654757 0.70710678118654757 8.6592745707193493e-017 I I #
coedge $-1 $229 $229 $313 $314 reversed $177 $-1 #
coedge $-1 $297 $296 $229 $274 forward $298 $-1 #
edge $-1 $315 0 $316 3.1415926535897918 $229 $317 forward 7 unknown #
coedge $-1 $305 $318 $230 $276 reversed $260 $-1 #
edge $-1 $281 0 $280 3.1415926535897918 $230 $319 forward 7 unknown #
coedge $-1 $320 $231 $318 $321 forward $279 $-1 #
coedge $-1 $231 $320 $305 $322 reversed $279 $-1 #
loop $-1 $-1 $277 $259 #
vertex $-1 $276 $323 #
vertex $-1 $276 $324 #
ellipse-curve $-1 0 -1.1796119636642288e-016 1.6559999999999999 1 0 0 0 1.1796119636642288e-016 -0.17199999999999993 1 I I #
ellipse-curve $-1 0 -1.6560000000000001 0 1 0 0 0 0.15625000000000022 0 1 I I #
coedge $-1 $262 $264 $236 $285 forward $214 $-1 #
edge $-1 $290 1.5235154437284479e-015 $287 2.6072464911391773 $236 $325 forward 7 unknown #
coedge $-1 $237 $308 $262 $307 forward $161 $-1 #
vertex $-1 $285 $326 #
ellipse-curve $-1 0.4375 -4.163336342344337e-017 1.6559999999999999 1 0 0 0 4.163336342344337e-017 -0.34411877408761282 1 I I #
point $-1 0.4375 0.17525227745138075 1.9521492359059294 #
vertex $-1 $243 $327 #
ellipse-curve $-1 0.4375 2.7755575615628914e-016 -2.2204460492503131e-016 1 0 0 0 -0.17525227745138114 1.9521492359059296 1 I I #
coedge $-1 $328 $329 $245 $293 reversed $330 $-1 #
edge $-1 $299 0 $250 3.1415926535897918 $292 $331 forward 7 unknown #
face $-1 $332 $330 $3 $-1 $333 reversed single #
cone-surface $-1 1.0416366339579866 0 -1.6559999999999999 -1 0 0 0 0 -0.86928673781622667 1 I I -0.65605902899050728 0.75470958022277201 0.86928673781622667 forward I I I I #
coedge $-1 $273 $248 $329 $334 reversed $298 $-1 #
coedge $-1 $248 $273 $328 $335 forward $298 $-1 #
loop $-1 $-1 $297 $332 #
vertex $-1 $335 $336 #
ellipse-curve $-1 0.23950000000000005 -1.1796119636642288e-016 -1.6559999999999999 1 0 0 0 1.1796119636642288e-016 -0.17199999999999993 1 I I #
point $-1 0.23950000000000005 -2.1063229285744877e-017 -1.484 #
straight-curve $-1 0.23950000000000005 0 -1.8279999999999998 0.75470958022277235 0 -0.65605902899050683 I I #
point $-1 0.41603792397067929 3.6397665722453762e-016 -1.9814620760293207 #
cone-surface $-1 -0.021875000000000089 0 1.6559999999999999 1 0 0 0 0 0.17199999999999993 1 I I 0 1 0.17199999999999993 forward I I I I #
coedge $-1 $337 $275 $278 $322 forward $260 $-1 #
coedge $-1 $309 $262 $337 $338 reversed $214 $-1 #
edge $-1 $339 -3.3844988919899913e-033 $287 0.26235257268306483 $262 $340 forward 7 unknown #
coedge $-1 $286 $263 $320 $341 forward $161 $-1 #
coedge $-1 $264 $306 $263 $310 forward $214 $-1 #
edge $-1 $342 0 $266 0.23391504307997482 $309 $343 forward 7 unknown #
intcurve-curve $-1 forward { surfintcur full nurbs 3 open 4 
	0 3 0.33634251545632599 1 0.67002628804825914 1 1 3 
	0.4375 -0.17525227745138086 1.9521492359059294 1 
	0.43265998135637107 -0.15580517348236306 1.9587546635767021 1 
	0.42464877750356356 -0.11691866085649272 1.9696897586945401 1.0000000000000002 
	0.41752673559903425 -0.057416903240568293 1.9794267494468942 0.99999999999999978 
	0.41600468768713983 -0.019002627384771598 1.9815067079550892 1.0000000000000002 
	0.41603792397067929 -1.2132555240817923e-016 1.9814620760293207 1 
	0.001 
	cone 1.0416366339579863 0 1.6559999999999999 -1 0 0 0 0 0.86928673781622667 1 I I -0.65605902899050728 0.75470958022277201 0.86928673781622667 forward I I I I 
	cone 1.3974999999999973 0 0 1 0 0 0 -1.0000000000000013 0 1 I I -0.70710678118654802 0.70710678118654713 1.0000000000000013 forward I I I I 
	nullbs 
	nullbs 
	I I 
	0 
	0 
	0 
	} I I #
point $-1 0.41603792397067929 -1.2132555240817923e-016 1.9814620760293207 #
coedge $-1 $329 $328 $272 $314 forward $330 $-1 #
edge $-1 $316 0 $315 3.1415926535897918 $272 $344 forward 7 unknown #
vertex $-1 $314 $345 #
vertex $-1 $314 $346 #
ellipse-curve $-1 0 -1.1796119636642288e-016 -1.6559999999999999 -1 0 0 0 1.1796119636642288e-016 0.17199999999999993 1 I I #
coedge $-1 $275 $337 $277 $321 reversed $260 $-1 #
ellipse-curve $-1 0 1.1796119636642288e-016 1.6559999999999999 1 0 0 0 -1.1796119636642288e-016 0.17199999999999993 1 I I #
coedge $-1 $278 $277 $308 $341 reversed $279 $-1 #
edge $-1 $280 0 $339 0.23949999999999982 $318 $347 forward 7 unknown #
edge $-1 $281 0 $342 0.23949999999999982 $305 $348 forward 7 unknown #
point $-1 0 0 1.484 #
point $-1 0 0 1.8279999999999998 #
ellipse-curve $-1 0.4375 -1.2490009027033011e-016 1.6559999999999999 1 0 0 0 -0.17525227745138011 0.29614923590592945 1 I I #
point $-1 0.4375 0 1.3118812259123871 #
point $-1 0.4375 -0.17525227745138086 1.9521492359059294 #
coedge $-1 $313 $292 $297 $335 reversed $330 $-1 #
coedge $-1 $292 $313 $296 $334 forward $330 $-1 #
loop $-1 $-1 $329 $294 #
ellipse-curve $-1 0.23950000000000005 1.1796119636642288e-016 -1.6559999999999999 -1 0 0 0 -1.1796119636642288e-016 -0.17199999999999993 1 I I #
face $-1 $108 $298 $3 $-1 $349 reversed single #
cone-surface $-1 -0.021875000000000089 0 -1.6559999999999999 -1 0 0 0 0 -0.17199999999999993 1 I I 0 1 0.17199999999999993 forward I I I I #
edge $-1 $315 0 $250 0.23950000000000005 $329 $350 forward 7 unknown #
edge $-1 $316 0 $299 0.23950000000000005 $328 $351 forward 7 unknown #
point $-1 0.23950000000000005 0 -1.8279999999999998 #
coedge $-1 $318 $305 $306 $338 forward $260 $-1 #
edge $-1 $342 0 $339 3.1415926535897918 $337 $352 forward 7 unknown #
vertex $-1 $321 $353 #
straight-curve $-1 0.23949999999999982 2.1063229285744877e-017 1.484 0.75470958022277201 8.0341405538431448e-017 -0.65605902899050716 I I #
edge $-1 $342 0 $339 3.1415926535897918 $320 $354 forward 7 unknown #
vertex $-1 $338 $355 #
straight-curve $-1 0.23949999999999982 0 1.8279999999999998 0.75470958022277213 0 0.65605902899050705 I I #
ellipse-curve $-1 0 1.1796119636642288e-016 -1.6559999999999999 -1 0 0 0 -1.1796119636642288e-016 -0.17199999999999993 1 I I #
point $-1 0 0 -1.484 #
point $-1 0 0 -1.8279999999999998 #
straight-curve $-1 0 2.106322928574488e-017 1.484 1 0 0 I I #
straight-curve $-1 0 0 1.8279999999999998 1 0 0 I I #
cone-surface $-1 -0.021875000000000089 0 -1.6559999999999999 -1 0 0 0 0 -0.17199999999999993 1 I I 0 1 0.17199999999999993 forward I I I I #
straight-curve $-1 0 2.106322928574488e-017 -1.484 1 0 0 I I #
straight-curve $-1 0 0 -1.8279999999999998 1 0 0 I I #
ellipse-curve $-1 0.23949999999999982 1.1796119636642288e-016 1.6559999999999999 1 0 0 0 -1.1796119636642288e-016 0.17199999999999993 1 I I #
point $-1 0.23949999999999982 -2.1063229285744877e-017 1.484 #
ellipse-curve $-1 0.23949999999999982 -1.1796119636642288e-016 1.6559999999999999 -1 0 0 0 1.1796119636642288e-016 0.17199999999999993 1 I I #
point $-1 0.23949999999999982 0 1.8279999999999998 #
End-of-ACIS-data 