600 0 1 0           
115 GICL Pro/E ACIS Translator - Source: f:/data5/repository/PTC/V20/prod_appl/assoc_demo/mold/spacer_block.prt.5 - 6 0 13 ACIS 6.0.3 NT 24 Thu Apr 04 13:16:20 2002 
1 9.9999999999999995e-007 1e-010 
body $-1 $1 $-1 $2 #
lump $-1 $-1 $3 $0 #
transform $-1 1 0 0 0 1 0 0 0 1 0 0 0 25.399999999999999 no_rotate no_reflect no_shear #
shell $-1 $-1 $-1 $4 $-1 $1 #
face $-1 $5 $6 $3 $-1 $7 reversed single #
face $-1 $8 $9 $3 $-1 $10 reversed single #
loop $-1 $11 $12 $4 #
plane-surface $-1 0 0 0 0 -1 0 -1 0 0 forward_v I I I I #
face $-1 $13 $14 $3 $-1 $15 reversed single #
loop $-1 $-1 $16 $5 #
cone-surface $-1 -2.75 0 8.5 0 -1 0 0.26550000000000001 0 0 1 I I 0 1 0.26550000000000001 forward I I I I #
loop $-1 $17 $18 $4 #
coedge $-1 $19 $19 $20 $21 forward $6 $-1 #
face $-1 $22 $23 $3 $-1 $24 forward single #
loop $-1 $-1 $25 $8 #
cone-surface $-1 -2.75 0 8.5 0 -1 0 0.26550000000000001 0 0 1 I I 0 1 0.26550000000000001 forward I I I I #
coedge $-1 $26 $20 $27 $28 forward $9 $-1 #
loop $-1 $29 $30 $4 #
coedge $-1 $31 $31 $32 $33 forward $11 $-1 #
coedge $-1 $12 $12 $34 $35 forward $6 $-1 #
coedge $-1 $16 $36 $12 $21 reversed $9 $-1 #
edge $-1 $37 0 $38 3.1415926535897931 $12 $39 forward 7 unknown #
face $-1 $40 $41 $3 $-1 $42 reversed single #
loop $-1 $43 $44 $13 #
plane-surface $-1 0 -5 0 0 -1 0 -1 0 0 forward_v I I I I #
coedge $-1 $45 $34 $36 $46 forward $14 $-1 #
coedge $-1 $36 $16 $44 $47 forward $9 $-1 #
coedge $-1 $34 $45 $16 $28 reversed $14 $-1 #
edge $-1 $37 0 $48 5 $27 $49 forward 7 unknown #
loop $-1 $50 $51 $4 #
coedge $-1 $52 $53 $54 $55 reversed $17 $-1 #
coedge $-1 $18 $18 $56 $57 forward $11 $-1 #
coedge $-1 $58 $59 $18 $33 reversed $41 $-1 #
edge $-1 $60 0 $61 3.1415926535897931 $18 $62 forward 7 unknown #
coedge $-1 $25 $27 $19 $35 reversed $14 $-1 #
edge $-1 $38 0 $37 3.1415926535897931 $19 $63 forward 7 unknown #
coedge $-1 $20 $26 $25 $46 reversed $9 $-1 #
vertex $-1 $35 $64 #
vertex $-1 $35 $65 #
ellipse-curve $-1 -2.75 0 8.5 0 -1 0 -0.26549999999999985 0 0 1 I I #
face $-1 $66 $67 $3 $-1 $68 reversed single #
loop $-1 $-1 $58 $22 #
cone-surface $-1 -7.75 0 8.5 0 -1 0 0.26550000000000001 0 0 1 I I 0 1 0.26550000000000001 forward I I I I #
loop $-1 $69 $70 $13 #
coedge $-1 $71 $71 $26 $47 reversed $23 $-1 #
coedge $-1 $27 $25 $71 $72 forward $14 $-1 #
edge $-1 $38 0 $73 5 $25 $74 forward 7 unknown #
edge $-1 $48 0 $73 3.1415926535897931 $44 $75 forward 7 unknown #
vertex $-1 $72 $76 #
straight-curve $-1 -3.0154999999999998 0 8.5 0 -1 0 I I #
loop $-1 $77 $78 $4 #
coedge $-1 $79 $79 $80 $81 forward $29 $-1 #
coedge $-1 $82 $30 $83 $84 reversed $17 $-1 #
coedge $-1 $30 $85 $86 $87 reversed $17 $-1 #
coedge $-1 $88 $89 $30 $55 forward $90 $-1 #
edge $-1 $91 0 $92 2 $30 $93 forward 7 unknown #
coedge $-1 $94 $95 $31 $57 reversed $67 $-1 #
edge $-1 $61 0 $60 3.1415926535897931 $31 $96 forward 7 unknown #
coedge $-1 $97 $32 $95 $98 forward $41 $-1 #
coedge $-1 $32 $97 $94 $99 reversed $41 $-1 #
vertex $-1 $57 $100 #
vertex $-1 $57 $101 #
ellipse-curve $-1 -7.75 0 8.5 0 -1 0 -0.2654999999999994 0 0 1 I I #
ellipse-curve $-1 -2.75 0 8.5 0 -1 0 0.26549999999999985 0 0 1 I I #
point $-1 -3.0154999999999998 0 8.5 #
point $-1 -2.4845000000000002 0 8.5 #
face $-1 $102 $90 $3 $-1 $103 forward single #
loop $-1 $-1 $94 $40 #
cone-surface $-1 -7.75 0 8.5 0 -1 0 0.26550000000000001 0 0 1 I I 0 1 0.26550000000000001 forward I I I I #
loop $-1 $104 $105 $13 #
coedge $-1 $106 $106 $97 $107 reversed $43 $-1 #
coedge $-1 $44 $44 $45 $72 reversed $23 $-1 #
edge $-1 $73 0 $48 3.1415926535897931 $71 $108 forward 7 unknown #
vertex $-1 $72 $109 #
straight-curve $-1 -2.4845000000000002 0 8.5 0 -1 0 I I #
ellipse-curve $-1 -2.75 -5 8.5 0 -1 0 -0.26549999999999985 0 0 1 I I #
point $-1 -3.0154999999999998 -5 8.5 #
loop $-1 $110 $111 $4 #
coedge $-1 $112 $112 $113 $114 reversed $50 $-1 #
coedge $-1 $51 $51 $115 $116 forward $29 $-1 #
coedge $-1 $117 $118 $51 $81 reversed $119 $-1 #
edge $-1 $120 0 $121 3.1415926535897931 $51 $122 forward 7 unknown #
coedge $-1 $123 $52 $124 $125 reversed $17 $-1 #
coedge $-1 $126 $127 $52 $84 forward $128 $-1 #
edge $-1 $129 0 $91 2.125 $52 $130 forward 7 unknown #
coedge $-1 $53 $131 $132 $133 reversed $17 $-1 #
coedge $-1 $134 $135 $53 $87 forward $136 $-1 #
edge $-1 $92 0 $137 0.025000000000000355 $53 $138 forward 7 unknown #
coedge $-1 $139 $54 $135 $140 forward $90 $-1 #
coedge $-1 $54 $141 $126 $142 reversed $90 $-1 #
loop $-1 $-1 $143 $66 #
vertex $-1 $84 $144 #
vertex $-1 $87 $145 #
straight-curve $-1 11.875 0 9.75 -1 0 0 I I #
coedge $-1 $146 $56 $59 $99 forward $67 $-1 #
coedge $-1 $56 $146 $58 $98 reversed $67 $-1 #
ellipse-curve $-1 -7.75 0 8.5 0 -1 0 0.2654999999999994 0 0 1 I I #
coedge $-1 $59 $58 $70 $107 forward $41 $-1 #
edge $-1 $60 0 $147 5 $95 $148 forward 7 unknown #
edge $-1 $61 0 $149 5 $94 $150 forward 7 unknown #
point $-1 -8.0154999999999994 0 8.5 #
point $-1 -7.4845000000000006 0 8.5 #
face $-1 $151 $152 $3 $-1 $153 forward single #
plane-surface $-1 11.875 0 9.75 0 0 1 -1 0 0 forward_v I I I I #
loop $-1 $154 $155 $13 #
coedge $-1 $156 $157 $141 $158 forward $69 $-1 #
coedge $-1 $70 $70 $146 $159 reversed $43 $-1 #
edge $-1 $147 0 $149 3.1415926535897931 $70 $160 forward 7 unknown #
ellipse-curve $-1 -2.75 -5 8.5 0 -1 0 0.26549999999999985 0 0 1 I I #
point $-1 -2.4845000000000002 -5 8.5 #
loop $-1 $-1 $161 $4 #
coedge $-1 $162 $162 $163 $164 forward $77 $-1 #
coedge $-1 $78 $78 $165 $166 reversed $50 $-1 #
coedge $-1 $167 $168 $78 $114 forward $169 $-1 #
edge $-1 $170 0 $171 3.1415926535897931 $78 $172 forward 7 unknown #
coedge $-1 $173 $174 $79 $116 reversed $175 $-1 #
edge $-1 $121 0 $120 3.1415926535897931 $79 $176 forward 7 unknown #
coedge $-1 $177 $80 $174 $178 forward $119 $-1 #
coedge $-1 $80 $177 $173 $179 reversed $119 $-1 #
loop $-1 $-1 $117 $180 #
vertex $-1 $116 $181 #
vertex $-1 $116 $182 #
ellipse-curve $-1 10.625 0 8.5 0 -1 0 -0.75 0 0 1 I I #
coedge $-1 $183 $82 $184 $185 reversed $17 $-1 #
coedge $-1 $186 $187 $82 $125 forward $188 $-1 #
edge $-1 $189 0 $129 23.75 $82 $190 forward 7 unknown #
coedge $-1 $191 $83 $89 $142 forward $128 $-1 #
coedge $-1 $83 $191 $186 $192 reversed $128 $-1 #
loop $-1 $-1 $126 $193 #
vertex $-1 $125 $194 #
straight-curve $-1 11.875 0 7.625 0 0 1 I I #
coedge $-1 $85 $195 $196 $197 reversed $17 $-1 #
coedge $-1 $198 $199 $85 $133 forward $200 $-1 #
edge $-1 $137 0 $201 1.5707963267948966 $85 $202 forward 7 unknown #
coedge $-1 $203 $86 $199 $204 forward $136 $-1 #
coedge $-1 $86 $203 $88 $140 reversed $136 $-1 #
loop $-1 $-1 $134 $205 #
vertex $-1 $87 $206 #
straight-curve $-1 9.875 0 9.75 0 0 -1 I I #
coedge $-1 $143 $88 $207 $208 reversed $90 $-1 #
edge $-1 $92 0 $209 0.75 $88 $210 forward 7 unknown #
coedge $-1 $89 $211 $105 $158 reversed $90 $-1 #
edge $-1 $91 0 $212 5 $126 $213 forward 7 unknown #
coedge $-1 $214 $139 $215 $216 reversed $90 $-1 #
point $-1 11.875 0 9.75 #
point $-1 9.875 0 9.75 #
coedge $-1 $95 $94 $106 $159 forward $67 $-1 #
vertex $-1 $159 $217 #
straight-curve $-1 -8.0154999999999994 0 8.5 0 -1 0 I I #
vertex $-1 $159 $218 #
straight-curve $-1 -7.4844999999999997 0 8.5 0 -1 0 I I #
face $-1 $205 $219 $3 $-1 $220 forward single #
loop $-1 $-1 $215 $102 #
plane-surface $-1 -9.875 0 9.7249999999999996 1 0 0 0 0 1 forward_v I I I I #
loop $-1 $221 $222 $13 #
coedge $-1 $223 $223 $177 $224 reversed $104 $-1 #
coedge $-1 $225 $105 $226 $227 forward $69 $-1 #
coedge $-1 $105 $225 $191 $228 forward $69 $-1 #
edge $-1 $212 0 $229 23.75 $105 $230 forward 7 unknown #
edge $-1 $149 0 $147 3.1415926535897931 $106 $231 forward 7 unknown #
ellipse-curve $-1 -7.75 -5 8.5 0 -1 0 -0.2654999999999994 0 0 1 I I #
coedge $-1 $232 $232 $233 $234 forward $110 $-1 #
coedge $-1 $111 $111 $235 $236 forward $77 $-1 #
coedge $-1 $237 $238 $111 $164 reversed $239 $-1 #
edge $-1 $240 0 $241 3.1415926535897931 $111 $242 forward 7 unknown #
coedge $-1 $243 $244 $112 $166 forward $245 $-1 #
edge $-1 $171 0 $170 3.1415926535897931 $112 $246 forward 7 unknown #
coedge $-1 $247 $113 $244 $248 forward $169 $-1 #
coedge $-1 $113 $247 $243 $249 reversed $169 $-1 #
loop $-1 $-1 $167 $250 #
vertex $-1 $166 $251 #
vertex $-1 $166 $252 #
ellipse-curve $-1 -10.625 0 8.5 0 1 0 0.75 0 0 1 I I #
coedge $-1 $253 $115 $118 $179 forward $175 $-1 #
coedge $-1 $115 $253 $117 $178 reversed $175 $-1 #
loop $-1 $-1 $173 $254 #
ellipse-curve $-1 10.625 0 8.5 0 -1 0 0.75 0 0 1 I I #
coedge $-1 $118 $117 $155 $224 forward $119 $-1 #
edge $-1 $120 0 $255 5 $174 $256 forward 7 unknown #
edge $-1 $121 0 $257 5 $173 $258 forward 7 unknown #
face $-1 $254 $119 $3 $-1 $259 reversed single #
point $-1 9.875 0 8.5 #
point $-1 11.375 0 8.5 #
coedge $-1 $260 $123 $214 $261 reversed $17 $-1 #
coedge $-1 $262 $263 $123 $185 forward $264 $-1 #
edge $-1 $265 0 $189 2.125 $123 $266 forward 7 unknown #
coedge $-1 $267 $124 $127 $192 forward $188 $-1 #
coedge $-1 $124 $267 $262 $268 reversed $188 $-1 #
loop $-1 $-1 $186 $269 #
vertex $-1 $185 $270 #
straight-curve $-1 -11.875 0 7.625 1 0 0 I I #
coedge $-1 $127 $126 $157 $228 reversed $128 $-1 #
edge $-1 $129 0 $271 5 $127 $272 forward 7 unknown #
face $-1 $180 $128 $3 $-1 $273 forward single #
point $-1 11.875 0 7.625 #
coedge $-1 $131 $260 $274 $275 reversed $17 $-1 #
coedge $-1 $276 $277 $131 $197 forward $278 $-1 #
edge $-1 $201 0 $279 18.549999999999997 $131 $280 forward 7 unknown #
coedge $-1 $281 $132 $277 $282 forward $200 $-1 #
coedge $-1 $132 $281 $134 $204 reversed $200 $-1 #
loop $-1 $-1 $198 $283 #
vertex $-1 $133 $284 #
ellipse-curve $-1 9.2749999999999986 0 9.7249999999999996 0 1 0 0.60000000000000142 0 0 1 I I #
coedge $-1 $135 $134 $285 $286 reversed $136 $-1 #
edge $-1 $137 0 $287 0.75 $134 $288 forward 7 unknown #
face $-1 $283 $136 $3 $-1 $289 forward single #
point $-1 9.875 0 9.7249999999999996 #
coedge $-1 $285 $290 $139 $208 forward $219 $-1 #
edge $-1 $291 0 $209 19.75 $139 $292 forward 7 unknown #
vertex $-1 $208 $293 #
straight-curve $-1 9.875 0 9.75 0 -1 0 I I #
coedge $-1 $141 $214 $263 $294 forward $90 $-1 #
vertex $-1 $228 $295 #
straight-curve $-1 11.875 0 9.75 0 -1 0 I I #
coedge $-1 $211 $143 $183 $261 forward $90 $-1 #
coedge $-1 $296 $297 $143 $216 forward $152 $-1 #
edge $-1 $298 0 $291 0.75 $143 $299 forward 7 unknown #
point $-1 -8.0154999999999994 -5 8.5 #
point $-1 -7.4845000000000006 -5 8.5 #
loop $-1 $-1 $285 $151 #
plane-surface $-1 0 -0.75 0 0 1 0 1 0 0 forward_v I I I I #
loop $-1 $300 $301 $13 #
coedge $-1 $302 $302 $247 $303 forward $154 $-1 #
coedge $-1 $155 $155 $253 $304 reversed $104 $-1 #
edge $-1 $255 0 $257 3.1415926535897931 $155 $305 forward 7 unknown #
coedge $-1 $157 $156 $267 $306 forward $69 $-1 #
coedge $-1 $263 $262 $156 $227 reversed $264 $-1 #
edge $-1 $229 0 $307 2.125 $156 $308 forward 7 unknown #
edge $-1 $271 0 $212 2.125 $157 $309 forward 7 unknown #
vertex $-1 $227 $310 #
straight-curve $-1 11.875 -5 9.75 -1 0 0 I I #
ellipse-curve $-1 -7.75 -5 8.5 0 -1 0 0.2654999999999994 0 0 1 I I #
coedge $-1 $161 $161 $311 $312 forward $110 $-1 #
coedge $-1 $313 $314 $161 $234 reversed $315 $-1 #
edge $-1 $316 0 $317 3.1415926535897931 $161 $318 forward 7 unknown #
coedge $-1 $319 $320 $162 $236 reversed $321 $-1 #
edge $-1 $241 0 $240 3.1415926535897931 $162 $322 forward 7 unknown #
coedge $-1 $323 $163 $320 $324 forward $239 $-1 #
coedge $-1 $163 $323 $319 $325 reversed $239 $-1 #
loop $-1 $-1 $237 $326 #
vertex $-1 $236 $327 #
vertex $-1 $236 $328 #
ellipse-curve $-1 7.75 0 8.5 0 -1 0 -0.26550000000000029 0 0 1 I I #
coedge $-1 $329 $165 $168 $249 forward $245 $-1 #
coedge $-1 $165 $329 $167 $248 reversed $245 $-1 #
loop $-1 $-1 $243 $330 #
ellipse-curve $-1 -10.625 0 8.5 0 1 0 -0.75 0 0 1 I I #
coedge $-1 $168 $167 $222 $303 reversed $169 $-1 #
edge $-1 $171 0 $331 5 $244 $332 forward 7 unknown #
edge $-1 $170 0 $333 5 $243 $334 forward 7 unknown #
face $-1 $330 $169 $3 $-1 $335 reversed single #
point $-1 -9.875 0 8.5 #
point $-1 -11.375 0 8.5 #
coedge $-1 $174 $173 $223 $304 forward $175 $-1 #
face $-1 $250 $175 $3 $-1 $336 reversed single #
vertex $-1 $304 $337 #
straight-curve $-1 9.875 0 8.5 0 -1 0 I I #
vertex $-1 $304 $338 #
straight-curve $-1 11.375 0 8.5 0 -1 0 I I #
cone-surface $-1 10.625 0 8.5 0 -1 0 0.75 0 0 1 I I 0 1 0.75 forward I I I I #
coedge $-1 $195 $183 $297 $339 forward $17 $-1 #
edge $-1 $298 0 $265 2 $183 $340 forward 7 unknown #
coedge $-1 $226 $184 $187 $268 forward $264 $-1 #
coedge $-1 $184 $226 $211 $294 reversed $264 $-1 #
loop $-1 $-1 $262 $341 #
vertex $-1 $261 $342 #
straight-curve $-1 -11.875 0 9.75 0 0 -1 I I #
coedge $-1 $187 $186 $225 $306 reversed $188 $-1 #
edge $-1 $189 0 $307 5 $262 $343 forward 7 unknown #
face $-1 $193 $188 $3 $-1 $344 forward single #
point $-1 -11.875 0 7.625 #
vertex $-1 $228 $345 #
straight-curve $-1 11.875 0 7.625 0 -1 0 I I #
plane-surface $-1 11.875 0 7.625 1 0 0 0 0 1 forward_v I I I I #
coedge $-1 $346 $347 $195 $275 forward $348 $-1 #
edge $-1 $279 0 $349 1.5707963267948966 $195 $350 forward 7 unknown #
coedge $-1 $351 $196 $347 $352 forward $278 $-1 #
coedge $-1 $196 $351 $198 $282 reversed $278 $-1 #
loop $-1 $-1 $276 $353 #
vertex $-1 $197 $354 #
straight-curve $-1 9.2749999999999986 0 9.125 -1 0 0 I I #
coedge $-1 $199 $198 $355 $356 reversed $200 $-1 #
edge $-1 $201 0 $357 0.75 $198 $358 forward 7 unknown #
face $-1 $353 $200 $3 $-1 $359 reversed single #
point $-1 9.2749999999999986 0 9.125 #
coedge $-1 $355 $207 $203 $286 forward $219 $-1 #
edge $-1 $209 0 $287 0.025000000000000355 $285 $360 forward 7 unknown #
vertex $-1 $356 $361 #
straight-curve $-1 9.875 0 9.7249999999999996 0 -1 0 I I #
plane-surface $-1 9.875 0 9.75 -1 0 0 0 0 -1 forward_v I I I I #
coedge $-1 $207 $362 $296 $363 forward $219 $-1 #
vertex $-1 $208 $364 #
straight-curve $-1 -9.875 -0.75 9.75 1 0 0 I I #
point $-1 9.875 -0.75 9.75 #
edge $-1 $265 0 $229 5 $211 $365 forward 7 unknown #
point $-1 11.875 -5 9.75 #
coedge $-1 $366 $215 $290 $363 reversed $152 $-1 #
coedge $-1 $215 $366 $260 $339 reversed $152 $-1 #
vertex $-1 $339 $367 #
straight-curve $-1 -9.875 0 9.75 0 -1 0 I I #
loop $-1 $-1 $368 $13 #
coedge $-1 $369 $369 $323 $370 reversed $221 $-1 #
coedge $-1 $222 $222 $329 $371 forward $154 $-1 #
edge $-1 $333 0 $331 3.1415926535897931 $222 $372 forward 7 unknown #
edge $-1 $257 0 $255 3.1415926535897931 $223 $373 forward 7 unknown #
ellipse-curve $-1 10.625 -5 8.5 0 -1 0 -0.75 0 0 1 I I #
edge $-1 $307 0 $271 23.75 $225 $374 forward 7 unknown #
vertex $-1 $306 $375 #
straight-curve $-1 -11.875 -5 9.75 0 0 -1 I I #
straight-curve $-1 11.875 -5 7.625 0 0 1 I I #
point $-1 -11.875 -5 9.75 #
coedge $-1 $376 $377 $232 $312 reversed $378 $-1 #
edge $-1 $317 0 $316 3.1415926535897931 $232 $379 forward 7 unknown #
coedge $-1 $380 $233 $377 $381 forward $315 $-1 #
coedge $-1 $233 $380 $376 $382 reversed $315 $-1 #
loop $-1 $-1 $313 $383 #
vertex $-1 $312 $384 #
vertex $-1 $312 $385 #
ellipse-curve $-1 2.75 0 8.5 0 -1 0 -0.26549999999999985 0 0 1 I I #
coedge $-1 $386 $235 $238 $325 forward $321 $-1 #
coedge $-1 $235 $386 $237 $324 reversed $321 $-1 #
loop $-1 $-1 $319 $387 #
ellipse-curve $-1 7.75 0 8.5 0 -1 0 0.2654999999999994 0 0 1 I I #
coedge $-1 $238 $237 $301 $370 forward $239 $-1 #
edge $-1 $240 0 $388 5 $320 $389 forward 7 unknown #
edge $-1 $241 0 $390 5 $319 $391 forward 7 unknown #
face $-1 $387 $239 $3 $-1 $392 reversed single #
point $-1 7.4844999999999997 0 8.5 #
point $-1 8.0154999999999994 0 8.5 #
coedge $-1 $244 $243 $302 $371 reversed $245 $-1 #
face $-1 $326 $245 $3 $-1 $393 reversed single #
vertex $-1 $371 $394 #
straight-curve $-1 -11.375 0 8.5 0 -1 0 I I #
vertex $-1 $371 $395 #
straight-curve $-1 -9.875 0 8.5 0 -1 0 I I #
cone-surface $-1 -10.625 0 8.5 0 1 0 -0.75 0 0 1 I I 0 1 0.75 forward I I I I #
cone-surface $-1 10.625 0 8.5 0 -1 0 0.75 0 0 1 I I 0 1 0.75 forward I I I I #
point $-1 9.875 -5 8.5 #
point $-1 11.375 -5 8.5 #
edge $-1 $298 0 $349 0.025000000000000355 $260 $396 forward 7 unknown #
straight-curve $-1 -9.875 0 9.75 -1 0 0 I I #
face $-1 $269 $264 $3 $-1 $397 forward single #
point $-1 -11.875 0 9.75 #
straight-curve $-1 -11.875 0 7.625 0 -1 0 I I #
plane-surface $-1 -11.875 0 7.625 0 0 -1 1 0 0 forward_v I I I I #
point $-1 11.875 -5 7.625 #
coedge $-1 $398 $274 $366 $399 forward $348 $-1 #
coedge $-1 $274 $398 $276 $352 reversed $348 $-1 #
loop $-1 $-1 $346 $400 #
vertex $-1 $275 $401 #
ellipse-curve $-1 -9.2749999999999986 0 9.7249999999999996 0 1 0 0 0 -0.59999999999999964 1 I I #
coedge $-1 $277 $276 $402 $403 reversed $278 $-1 #
edge $-1 $279 0 $404 0.75 $276 $405 forward 7 unknown #
face $-1 $400 $278 $3 $-1 $406 forward single #
point $-1 -9.2749999999999986 0 9.125 #
coedge $-1 $402 $285 $281 $356 forward $219 $-1 #
edge $-1 $287 0 $357 1.5707963267948819 $355 $407 forward 7 unknown #
vertex $-1 $403 $408 #
straight-curve $-1 9.2749999999999986 0 9.125 0 -1 0 I I #
cone-surface $-1 9.2749999999999986 0 9.7249999999999996 0 1 0 0.59999999999999998 0 0 1 I I 0 1 0.59999999999999998 forward I I I I #
straight-curve $-1 9.875 -0.75 9.75 0 0 -1 I I #
point $-1 9.875 -0.75 9.7249999999999996 #
coedge $-1 $290 $402 $398 $409 forward $219 $-1 #
edge $-1 $410 0 $291 0.025000000000000355 $290 $411 forward 7 unknown #
point $-1 -9.875 -0.75 9.75 #
straight-curve $-1 -11.875 0 9.75 0 -1 0 I I #
coedge $-1 $297 $296 $346 $399 reversed $152 $-1 #
point $-1 -9.875 0 9.75 #
coedge $-1 $412 $412 $380 $413 reversed $300 $-1 #
coedge $-1 $301 $301 $386 $414 reversed $221 $-1 #
edge $-1 $388 0 $390 3.1415926535897931 $301 $415 forward 7 unknown #
edge $-1 $331 0 $333 3.1415926535897931 $302 $416 forward 7 unknown #
ellipse-curve $-1 -10.625 -5 8.5 0 1 0 0.75 0 0 1 I I #
ellipse-curve $-1 10.625 -5 8.5 0 -1 0 0.75 0 0 1 I I #
straight-curve $-1 -11.875 -5 7.625 1 0 0 I I #
point $-1 -11.875 -5 7.625 #
coedge $-1 $417 $311 $314 $382 forward $378 $-1 #
coedge $-1 $311 $417 $313 $381 reversed $378 $-1 #
loop $-1 $-1 $376 $418 #
ellipse-curve $-1 2.75 0 8.5 0 -1 0 0.26549999999999985 0 0 1 I I #
coedge $-1 $314 $313 $368 $413 forward $315 $-1 #
edge $-1 $316 0 $419 5 $377 $420 forward 7 unknown #
edge $-1 $317 0 $421 5 $376 $422 forward 7 unknown #
face $-1 $418 $315 $3 $-1 $423 reversed single #
point $-1 2.4845000000000002 0 8.5 #
point $-1 3.0154999999999998 0 8.5 #
coedge $-1 $320 $319 $369 $414 forward $321 $-1 #
face $-1 $383 $321 $3 $-1 $424 reversed single #
vertex $-1 $414 $425 #
straight-curve $-1 7.4844999999999997 0 8.5 0 -1 0 I I #
vertex $-1 $414 $426 #
straight-curve $-1 8.0154999999999994 0 8.5 0 -1 0 I I #
cone-surface $-1 7.75 0 8.5 0 -1 0 0.26550000000000001 0 0 1 I I 0 1 0.26550000000000001 forward I I I I #
cone-surface $-1 -10.625 0 8.5 0 1 0 -0.75 0 0 1 I I 0 1 0.75 forward I I I I #
point $-1 -11.375 -5 8.5 #
point $-1 -9.875 -5 8.5 #
straight-curve $-1 -9.875 0 9.75 0 0 -1 I I #
plane-surface $-1 -11.875 0 9.75 -1 0 0 0 0 -1 forward_v I I I I #
coedge $-1 $347 $346 $362 $409 reversed $348 $-1 #
edge $-1 $349 4.2072581611787294e-030 $410 0.75 $346 $427 forward 7 unknown #
face $-1 $341 $348 $3 $-1 $428 reversed single #
point $-1 -9.875 0 9.7249999999999996 #
coedge $-1 $362 $355 $351 $403 forward $219 $-1 #
edge $-1 $357 0 $404 18.549999999999997 $402 $429 forward 7 unknown #
vertex $-1 $409 $430 #
straight-curve $-1 -9.2749999999999986 0 9.125 0 -1 0 I I #
plane-surface $-1 9.2749999999999986 0 9.125 0 0 1 -1 0 0 forward_v I I I I #
ellipse-curve $-1 9.274999999999995 -0.75 9.725000000000005 0 1 0 0.60000000000000497 0 -5.3290705182007514e-015 1 I I #
point $-1 9.2749999999999986 -0.75 9.125 #
edge $-1 $404 0 $410 1.5707963267948819 $362 $431 forward 7 unknown #
vertex $-1 $363 $432 #
straight-curve $-1 -9.875 -0.75 9.7249999999999996 0 0 1 I I #
coedge $-1 $368 $368 $417 $433 reversed $300 $-1 #
edge $-1 $419 0 $421 3.1415926535897931 $368 $434 forward 7 unknown #
edge $-1 $390 0 $388 3.1415926535897931 $369 $435 forward 7 unknown #
ellipse-curve $-1 7.75 -5 8.5 0 -1 0 -0.26550000000000029 0 0 1 I I #
ellipse-curve $-1 -10.625 -5 8.5 0 1 0 -0.75 0 0 1 I I #
coedge $-1 $377 $376 $412 $433 forward $378 $-1 #
face $-1 $-1 $378 $3 $-1 $436 reversed single #
vertex $-1 $433 $437 #
straight-curve $-1 2.4845000000000002 0 8.5 0 -1 0 I I #
vertex $-1 $433 $438 #
straight-curve $-1 3.0154999999999998 0 8.5 0 -1 0 I I #
cone-surface $-1 2.75 0 8.5 0 -1 0 0.26550000000000001 0 0 1 I I 0 1 0.26550000000000001 forward I I I I #
cone-surface $-1 7.75 0 8.5 0 -1 0 0.26550000000000001 0 0 1 I I 0 1 0.26550000000000001 forward I I I I #
point $-1 7.4844999999999997 -5 8.5 #
point $-1 8.0154999999999994 -5 8.5 #
straight-curve $-1 -9.8749999999999982 0 9.7249999999999996 -2.3684757858670005e-015 -1 0 I I #
cone-surface $-1 -9.2749999999999986 0 9.7249999999999996 0 1 0 0.59999999999999998 0 0 1 I I 0 1 0.59999999999999998 forward I I I I #
straight-curve $-1 9.2749999999999986 -0.75 9.125 -1 0 0 I I #
point $-1 -9.2749999999999986 -0.75 9.125 #
ellipse-curve $-1 -9.274999999999995 -0.75 9.725000000000005 0 1 0 -3.5527136788005009e-015 0 -0.60000000000000497 1 I I #
point $-1 -9.875 -0.75 9.7249999999999996 #
edge $-1 $421 0 $419 3.1415926535897931 $412 $439 forward 7 unknown #
ellipse-curve $-1 2.75 -5 8.5 0 -1 0 -0.26549999999999985 0 0 1 I I #
ellipse-curve $-1 7.75 -5 8.5 0 -1 0 0.2654999999999994 0 0 1 I I #
cone-surface $-1 2.75 0 8.5 0 -1 0 0.26550000000000001 0 0 1 I I 0 1 0.26550000000000001 forward I I I I #
point $-1 2.4845000000000002 -5 8.5 #
point $-1 3.0154999999999998 -5 8.5 #
ellipse-curve $-1 2.75 -5 8.5 0 -1 0 0.26549999999999985 0 0 1 I I #
End-of-ACIS-data 