600 0 1 0           
107 GICL Pro/E ACIS Translator - Source: f:/data5/repository/PTC/V20/prod_appl/assoc_demo/mold/zi00.prt.5 - 6 0 13 ACIS 6.0.3 NT 24 Thu Apr 04 13:16:41 2002 
1 9.9999999999999995e-007 1e-010 
body $-1 $1 $-1 $2 #
lump $-1 $-1 $3 $0 #
transform $-1 1 0 0 0 1 0 0 0 1 0 0 0 25.399999999999999 no_rotate no_reflect no_shear #
shell $-1 $-1 $-1 $4 $-1 $1 #
face $-1 $5 $6 $3 $-1 $7 forward single #
face $-1 $8 $9 $3 $-1 $10 forward single #
loop $-1 $-1 $11 $4 #
plane-surface $-1 1.9375 0 0 1 0 0 0 -1 0 forward_v I I I I #
face $-1 $12 $13 $3 $-1 $14 forward single #
loop $-1 $-1 $15 $5 #
cone-surface $-1 1.9391924651018018 0 0 1 0 0 0 -0.26794919243112264 0 1 I I -0.25881904510252068 0.96592582628906831 0.26794919243112264 forward I I I I #
coedge $-1 $16 $16 $17 $18 forward $6 $-1 #
face $-1 $19 $20 $3 $-1 $21 reversed single #
loop $-1 $-1 $22 $8 #
cone-surface $-1 -0.55624999999999991 0 0 1 0 0 0 -0.34375 0 1 I I 0 1 0.34375 forward I I I I #
coedge $-1 $23 $24 $25 $26 forward $9 $-1 #
coedge $-1 $11 $11 $27 $28 reversed $6 $-1 #
coedge $-1 $24 $23 $11 $18 reversed $9 $-1 #
edge $-1 $29 0 $30 3.1415926535897931 $11 $31 forward 7 unknown #
face $-1 $32 $33 $3 $-1 $34 reversed single #
loop $-1 $-1 $35 $12 #
torus-surface $-1 0.7287499999999999 0 0 1 0 0 0.38500000000000001 0.041249999999999995 0 -1 0 forward_v I I I I #
coedge $-1 $36 $37 $38 $39 forward $13 $-1 #
coedge $-1 $17 $15 $40 $41 reversed $9 $-1 #
coedge $-1 $15 $17 $42 $43 forward $9 $-1 #
coedge $-1 $37 $36 $15 $26 reversed $13 $-1 #
edge $-1 $44 0 $45 3.1415926535897931 $15 $46 forward 7 unknown #
coedge $-1 $40 $42 $16 $28 forward $47 $-1 #
edge $-1 $29 0 $30 3.1415926535897931 $16 $48 forward 7 unknown #
vertex $-1 $28 $49 #
vertex $-1 $28 $50 #
ellipse-curve $-1 1.9375 0 -5.5511151231257827e-017 1 0 0 0 0.26840268708836829 8.8379914830399339e-017 1 I I #
face $-1 $51 $52 $3 $-1 $53 forward single #
loop $-1 $-1 $54 $19 #
torus-surface $-1 0.7287499999999999 0 0 1 0 0 0.38500000000000001 0.041249999999999995 0 -1 0 forward_v I I I I #
coedge $-1 $38 $55 $56 $57 forward $20 $-1 #
coedge $-1 $25 $22 $58 $59 reversed $13 $-1 #
coedge $-1 $22 $25 $60 $61 forward $13 $-1 #
coedge $-1 $62 $35 $22 $39 reversed $20 $-1 #
edge $-1 $63 0 $64 3.1415926535897931 $22 $65 forward 7 unknown #
coedge $-1 $66 $27 $23 $41 forward $47 $-1 #
edge $-1 $30 0 $45 0.2911196619313155 $23 $67 forward 7 unknown #
coedge $-1 $27 $66 $24 $43 reversed $47 $-1 #
edge $-1 $29 0 $44 0.2911196619313155 $24 $68 forward 7 unknown #
vertex $-1 $43 $69 #
vertex $-1 $41 $70 #
ellipse-curve $-1 1.6562999999999999 0 -5.5511151231257827e-017 1 0 0 0 0.34375 9.7606994643902045e-017 1 I I #
loop $-1 $-1 $27 $51 #
ellipse-curve $-1 1.9375 0 -1.3877787807814457e-017 -1 0 0 0 0.26840268708836829 4.6746551406955969e-017 1 I I #
point $-1 1.9375 0.26840268708836829 3.2868763599141512e-017 #
point $-1 1.9375 -0.26840268708836829 -6.5737527198283024e-017 #
face $-1 $71 $47 $3 $-1 $72 forward single #
loop $-1 $-1 $73 $32 #
cone-surface $-1 -0.55624999999999991 0 0 1 0 0 0 -0.34375 0 1 I I 0 1 0.34375 forward I I I I #
coedge $-1 $74 $75 $62 $76 forward $33 $-1 #
coedge $-1 $35 $62 $77 $78 forward $20 $-1 #
coedge $-1 $75 $74 $35 $57 reversed $33 $-1 #
edge $-1 $79 6.7911579306216186e-031 $64 1.5707963267948952 $35 $80 forward 7 unknown #
coedge $-1 $81 $73 $36 $59 forward $52 $-1 #
edge $-1 $45 0 $64 0.92754999999999987 $36 $82 forward 7 unknown #
coedge $-1 $73 $81 $37 $61 reversed $52 $-1 #
edge $-1 $44 0 $63 0.92754999999999987 $37 $83 forward 7 unknown #
coedge $-1 $55 $38 $54 $76 reversed $20 $-1 #
vertex $-1 $61 $84 #
vertex $-1 $59 $85 #
ellipse-curve $-1 0.7287499999999999 0 0 1 0 0 0 0.34375 4.2095843412644218e-017 1 I I #
coedge $-1 $42 $40 $73 $86 reversed $47 $-1 #
straight-curve $-1 1.9375 -0.26840268708836829 -6.5737527198283024e-017 -0.96592582628906842 -0.25881904510252074 -6.3390289424557477e-017 I I #
straight-curve $-1 1.9375 0.26840268708836829 3.2868763599141512e-017 -0.96592582628906842 0.25881904510252074 3.1695144712278739e-017 I I #
point $-1 1.6562999999999999 0.34375 4.2095843412644218e-017 #
point $-1 1.6562999999999999 -0.34375 -8.4191686825288437e-017 #
face $-1 $87 $88 $3 $-1 $89 forward single #
cone-surface $-1 1.9391924651018018 0 0 1 0 0 0 -0.26794919243112264 0 1 I I -0.25881904510252068 0.96592582628906831 0.26794919243112264 forward I I I I #
coedge $-1 $58 $60 $66 $86 forward $52 $-1 #
coedge $-1 $56 $54 $81 $90 forward $33 $-1 #
coedge $-1 $54 $56 $91 $92 reversed $33 $-1 #
edge $-1 $93 0 $63 1.5707963267948952 $62 $94 forward 7 unknown #
coedge $-1 $91 $91 $55 $78 reversed $88 $-1 #
edge $-1 $93 0 $79 3.1415926535897931 $77 $95 forward 7 unknown #
vertex $-1 $78 $96 #
ellipse-curve $-1 0.72875000000000001 -0.38500000000000006 -9.4294689244323065e-017 3.0785698353462403e-032 2.4492127076447535e-016 -1 -0.04125000000000012 5.5511151231257827e-017 1.2325951644078309e-032 1 I I #
coedge $-1 $60 $58 $74 $90 reversed $52 $-1 #
straight-curve $-1 1.6562999999999999 -0.34375 -8.4191686825288437e-017 -1 0 0 I I #
straight-curve $-1 1.6562999999999999 0.34375 4.2095843412644218e-017 -1 0 0 I I #
point $-1 0.72875000000000001 0.34375 4.2095843412644218e-017 #
point $-1 0.72875000000000001 -0.34375 -8.4191686825288437e-017 #
edge $-1 $44 0 $45 3.1415926535897931 $66 $97 forward 7 unknown #
face $-1 $98 $99 $3 $-1 $100 forward single #
loop $-1 $101 $91 $71 #
plane-surface $-1 0.6875 0 0 1 0 0 0 -1 0 forward_v I I I I #
edge $-1 $63 0 $64 3.1415926535897931 $81 $102 forward 7 unknown #
coedge $-1 $77 $77 $75 $92 forward $88 $-1 #
edge $-1 $93 0 $79 3.1415926535897931 $91 $103 forward 7 unknown #
vertex $-1 $78 $104 #
ellipse-curve $-1 0.72875000000000001 0.38500000000000006 4.7147344622161532e-017 1.5392849176731201e-032 -1.2246063538223768e-016 1 -0.04125000000000012 -5.5511151231257827e-017 -6.1629758220391547e-033 1 I I #
ellipse-curve $-1 0.6875 0 1.3877787807814457e-017 1 2.8836961678575494e-016 2.4919297010870561e-032 -1.1102230246251565e-016 0.38500000000000001 3.3269556814347069e-017 1 I I #
point $-1 0.68749999999999989 -0.38500000000000001 0 #
ellipse-curve $-1 1.6562999999999999 -2.7755575615628914e-017 -1.3877787807814457e-017 -1 0 0 0 0.34375 5.5973631220458675e-017 1 I I #
face $-1 $105 $106 $3 $-1 $107 forward single #
loop $-1 $-1 $108 $87 #
cone-surface $-1 0.15749999999999797 0 0 1 0 0 0 -1.0000000000000044 0 1 I I -0.70710678118654913 0.70710678118654602 1.0000000000000044 forward I I I I #
loop $-1 $-1 $109 $71 #
ellipse-curve $-1 0.7287499999999999 0 0 -1 0 0 0 0.34375 4.2095843412644218e-017 1 I I #
ellipse-curve $-1 0.6875 2.7755575615628914e-017 1.3877787807814457e-017 -1 -2.8836961678575494e-016 -2.4919297010870561e-032 -1.1102230246251565e-016 0.38500000000000001 3.3269556814347069e-017 1 I I #
point $-1 0.68749999999999989 0.38500000000000001 4.7147344622161526e-017 #
face $-1 $110 $111 $3 $-1 $112 forward single #
loop $-1 $-1 $113 $98 #
cone-surface $-1 -0.55624999999999991 0 0 1 0 0 0 -0.495 0 1 I I 0 1 0.495 forward I I I I #
coedge $-1 $114 $115 $116 $117 forward $99 $-1 #
coedge $-1 $118 $118 $119 $120 forward $101 $-1 #
face $-1 $121 $122 $3 $-1 $123 forward single #
loop $-1 $124 $125 $105 #
plane-surface $-1 0.59999999999999998 0 0 1 0 0 0 -1 0 forward_v I I I I #
coedge $-1 $126 $127 $128 $129 forward $106 $-1 #
coedge $-1 $119 $108 $130 $131 reversed $99 $-1 #
coedge $-1 $108 $119 $132 $133 forward $99 $-1 #
coedge $-1 $127 $126 $108 $117 reversed $106 $-1 #
edge $-1 $134 -2.5152436780080208e-032 $135 3.1415926535897931 $108 $136 forward 7 unknown #
coedge $-1 $109 $109 $137 $138 reversed $101 $-1 #
coedge $-1 $115 $114 $109 $120 reversed $99 $-1 #
edge $-1 $139 0 $140 3.1415926535897931 $109 $141 forward 7 unknown #
face $-1 $142 $143 $3 $-1 $144 forward single #
loop $-1 $-1 $145 $110 #
cone-surface $-1 -0.55624999999999991 0 0 1 0 0 0 -0.495 0 1 I I 0 1 0.495 forward I I I I #
loop $-1 $-1 $146 $105 #
coedge $-1 $128 $128 $147 $148 forward $111 $-1 #
coedge $-1 $116 $113 $149 $150 reversed $106 $-1 #
coedge $-1 $113 $116 $151 $152 forward $106 $-1 #
coedge $-1 $125 $125 $113 $129 reversed $111 $-1 #
edge $-1 $153 1.2246063538223773e-016 $154 3.1415926535897931 $113 $155 forward 7 unknown #
coedge $-1 $156 $137 $114 $131 forward $143 $-1 #
edge $-1 $140 0 $135 0.035355339059327251 $114 $157 forward 7 unknown #
coedge $-1 $137 $156 $115 $133 reversed $143 $-1 #
edge $-1 $139 0 $134 0.035355339059327334 $115 $158 forward 7 unknown #
vertex $-1 $133 $159 #
vertex $-1 $131 $160 #
ellipse-curve $-1 0.66250000000000009 0 0 1 0 0 0 0.495 6.061801451420767e-017 1 I I #
coedge $-1 $130 $132 $118 $138 forward $143 $-1 #
edge $-1 $139 0 $140 3.1415926535897931 $118 $161 forward 7 unknown #
vertex $-1 $138 $162 #
vertex $-1 $138 $163 #
ellipse-curve $-1 0.6875 2.7755575615628914e-017 4.163336342344337e-017 1 0 0 0 0.47000000000000008 1.5923135206208362e-017 1 I I #
face $-1 $164 $165 $3 $-1 $166 forward single #
loop $-1 $-1 $137 $121 #
cone-surface $-1 0.15749999999999797 0 0 1 0 0 0 -1.0000000000000044 0 1 I I -0.70710678118654913 0.70710678118654602 1.0000000000000044 forward I I I I #
coedge $-1 $149 $151 $156 $167 forward $122 $-1 #
coedge $-1 $168 $168 $169 $170 forward $124 $-1 #
coedge $-1 $151 $149 $125 $148 reversed $122 $-1 #
edge $-1 $153 -1.2246063538223773e-016 $154 3.1415926535897931 $125 $171 forward 7 unknown #
coedge $-1 $147 $145 $126 $150 forward $122 $-1 #
edge $-1 $135 0 $154 0.062500000000000111 $126 $172 forward 7 unknown #
coedge $-1 $145 $147 $127 $152 reversed $122 $-1 #
edge $-1 $134 0 $153 0.0625 $127 $173 forward 7 unknown #
vertex $-1 $152 $174 #
vertex $-1 $150 $175 #
ellipse-curve $-1 0.59999999999999998 4.163336342344337e-017 0 1 0 0 0 0.49499999999999994 0 1 I I #
coedge $-1 $132 $130 $145 $167 reversed $143 $-1 #
straight-curve $-1 0.6875 -0.47000000000000008 -1.1511299725930346e-016 -0.70710678118654602 -0.70710678118654913 -1.7318549141438775e-016 I I #
straight-curve $-1 0.6875 0.47000000000000008 5.7556498629651732e-017 -0.70710678118654602 0.70710678118654913 8.6592745707193875e-017 I I #
point $-1 0.66250000000000009 0.49500000000000011 6.0618014514207683e-017 #
point $-1 0.66250000000000009 -0.495 -1.2123602902841534e-016 #
ellipse-curve $-1 0.6875 -1.3877787807814457e-017 -5.5511151231257827e-017 -1 0 0 0 0.47000000000000008 1.1306764986090956e-016 1 I I #
point $-1 0.6875 0.47000000000000008 5.7556498629651732e-017 #
point $-1 0.6875 -0.47000000000000008 -1.1511299725930346e-016 #
face $-1 $176 $177 $3 $-1 $178 reversed single #
loop $-1 $-1 $179 $142 #
cone-surface $-1 -0.55624999999999991 0 0 1 0 0 0 -0.5 0 1 I I 0 1 0.5 forward I I I I #
edge $-1 $134 2.5152436780080208e-032 $135 3.1415926535897931 $156 $180 forward 7 unknown #
coedge $-1 $146 $146 $181 $182 reversed $124 $-1 #
coedge $-1 $183 $184 $146 $170 reversed $165 $-1 #
edge $-1 $185 0 $186 3.1415926535897931 $146 $187 forward 7 unknown #
ellipse-curve $-1 0.59999999999999998 4.163336342344337e-017 0 -1 0 0 0 0.49499999999999994 0 1 I I #
straight-curve $-1 0.66250000000000009 -0.495 -1.2123602902841534e-016 -1 0 0 I I #
straight-curve $-1 0.66250000000000009 0.495 6.061801451420767e-017 -1 0 0 I I #
point $-1 0.60000000000000009 0.495 6.061801451420767e-017 #
point $-1 0.59999999999999998 -0.495 0 #
face $-1 $188 $189 $3 $-1 $190 forward single #
loop $-1 $-1 $191 $164 #
torus-surface $-1 0.025000000000000022 0 0 1 0 0 0.5 0.024999999999999998 0 -1 0 forward_v I I I I #
coedge $-1 $184 $183 $192 $193 forward $165 $-1 #
ellipse-curve $-1 0.66250000000000009 0 0 -1 0 0 0 0.495 6.061801451420767e-017 1 I I #
coedge $-1 $194 $195 $168 $182 forward $196 $-1 #
edge $-1 $185 0 $186 3.1415926535897931 $168 $197 forward 7 unknown #
coedge $-1 $179 $169 $195 $198 forward $165 $-1 #
coedge $-1 $169 $179 $194 $199 reversed $165 $-1 #
vertex $-1 $182 $200 #
vertex $-1 $182 $201 #
ellipse-curve $-1 0.59999999999999998 -1.3877787807814457e-017 -1.3877787807814457e-017 1 -2.2204460492503131e-016 -3.3354699224356441e-032 1.1102230246251565e-016 0.5 7.510810549893332e-017 1 I I #
face $-1 $202 $203 $3 $-1 $204 reversed single #
loop $-1 $205 $206 $176 #
plane-surface $-1 0 0 0 1 0 0 0 -1 0 forward_v I I I I #
coedge $-1 $207 $208 $209 $210 forward $177 $-1 #
coedge $-1 $208 $207 $179 $193 reversed $177 $-1 #
edge $-1 $211 0 $212 3.1415926535897931 $179 $213 forward 7 unknown #
coedge $-1 $214 $181 $184 $199 forward $196 $-1 #
coedge $-1 $181 $214 $183 $198 reversed $196 $-1 #
loop $-1 $-1 $181 $202 #
ellipse-curve $-1 0.59999999999999998 -1.3877787807814457e-017 2.7755575615628914e-017 -1 2.2204460492503131e-016 1.4865771758238977e-032 1.1102230246251565e-016 0.5 3.3474742075489949e-017 1 I I #
edge $-1 $185 0 $211 0.55000000000000004 $183 $215 forward 7 unknown #
edge $-1 $186 0 $212 0.55000000000000004 $184 $216 forward 7 unknown #
point $-1 0.60000000000000009 0.5 6.1230317691118863e-017 #
point $-1 0.60000000000000009 -0.5 -1.2246063538223773e-016 #
face $-1 $217 $196 $3 $-1 $218 forward single #
loop $-1 $-1 $219 $188 #
torus-surface $-1 0.025000000000000022 0 0 1 0 0 0.5 0.024999999999999998 0 -1 0 forward_v I I I I #
loop $-1 $-1 $220 $176 #
coedge $-1 $209 $209 $221 $222 forward $189 $-1 #
coedge $-1 $192 $191 $223 $224 reversed $177 $-1 #
coedge $-1 $191 $192 $225 $226 forward $177 $-1 #
coedge $-1 $206 $206 $191 $210 reversed $189 $-1 #
edge $-1 $227 1.2246063538223773e-016 $228 3.1415926535897931 $191 $229 forward 7 unknown #
vertex $-1 $198 $230 #
vertex $-1 $199 $231 #
ellipse-curve $-1 0.050000000000000017 0 0 1 0 0 0 0.5 6.1230317691118863e-017 1 I I #
coedge $-1 $195 $194 $219 $232 reversed $196 $-1 #
straight-curve $-1 0.60000000000000009 0.5 6.1230317691118863e-017 -1 0 0 I I #
straight-curve $-1 0.60000000000000009 -0.5 -1.2246063538223773e-016 -1 0 0 I I #
face $-1 $233 $234 $3 $-1 $235 forward single #
cone-surface $-1 -0.55624999999999991 0 0 1 0 0 0 -0.5 0 1 I I 0 1 0.5 forward I I I I #
coedge $-1 $223 $225 $214 $232 forward $203 $-1 #
coedge $-1 $236 $236 $237 $238 forward $205 $-1 #
coedge $-1 $225 $223 $206 $222 reversed $203 $-1 #
edge $-1 $227 -1.2246063538223773e-016 $228 3.1415926535897931 $206 $239 forward 7 unknown #
coedge $-1 $221 $219 $207 $224 forward $203 $-1 #
edge $-1 $212 0 $228 3.1415926535897931 $207 $240 forward 7 unknown #
coedge $-1 $219 $221 $208 $226 reversed $203 $-1 #
edge $-1 $211 0 $227 3.1415926535897931 $208 $241 forward 7 unknown #
vertex $-1 $226 $242 #
vertex $-1 $224 $243 #
ellipse-curve $-1 0 0 0 1 0 0 0 0.5 0 1 I I #
point $-1 0.050000000000000044 0.5 6.1230317691118863e-017 #
point $-1 0.050000000000000017 -0.5 -1.2246063538223773e-016 #
edge $-1 $211 0 $212 3.1415926535897931 $214 $244 forward 7 unknown #
face $-1 $245 $246 $3 $-1 $247 reversed single #
loop $-1 $-1 $248 $217 #
cone-surface $-1 -0.55624999999999991 0 0 1 0 0 0 -0.5625 0 1 I I 0 1 0.5625 forward I I I I #
coedge $-1 $220 $220 $249 $250 reversed $205 $-1 #
coedge $-1 $251 $252 $220 $238 reversed $234 $-1 #
edge $-1 $253 0 $254 3.1415926535897931 $220 $255 forward 7 unknown #
ellipse-curve $-1 0 0 0 -1 0 0 0 0.5 0 1 I I #
ellipse-curve $-1 0.025000000000000015 -0.5 -1.2246063538223773e-016 0 -2.4492127076447545e-016 1 0.025000000000000001 0 0 1 I I #
ellipse-curve $-1 0.025000000000000015 0.5 6.1230317691118863e-017 0 1.2246063538223773e-016 -1 0.025000000000000001 0 0 1 I I #
point $-1 2.4286128663675299e-017 0.5 6.1230317691118863e-017 #
point $-1 0 -0.5 0 #
ellipse-curve $-1 0.050000000000000017 0 0 -1 0 0 0 0.5 6.1230317691118863e-017 1 I I #
face $-1 $256 $257 $3 $-1 $258 forward single #
loop $-1 $259 $260 $233 #
plane-surface $-1 -0.1875 0 0 1 0 0 0 -1 0 forward_v I I I I #
coedge $-1 $252 $251 $261 $262 forward $234 $-1 #
coedge $-1 $263 $264 $236 $250 forward $257 $-1 #
edge $-1 $253 0 $254 3.1415926535897931 $236 $265 forward 7 unknown #
coedge $-1 $248 $237 $264 $266 forward $234 $-1 #
coedge $-1 $237 $248 $263 $267 reversed $234 $-1 #
vertex $-1 $250 $268 #
vertex $-1 $250 $269 #
ellipse-curve $-1 0 0 0 1 0 0 0 0.5625 6.8884107402508721e-017 1 I I #
face $-1 $270 $271 $3 $-1 $272 reversed single #
loop $-1 $-1 $249 $245 #
cone-surface $-1 -0.55624999999999991 0 0 1 0 0 0 -0.5625 0 1 I I 0 1 0.5625 forward I I I I #
loop $-1 $-1 $273 $233 #
coedge $-1 $261 $261 $274 $275 forward $246 $-1 #
coedge $-1 $260 $260 $248 $262 reversed $246 $-1 #
edge $-1 $276 1.2246063538223773e-016 $277 3.1415926535897931 $248 $278 forward 7 unknown #
coedge $-1 $274 $249 $252 $267 forward $257 $-1 #
coedge $-1 $249 $274 $251 $266 reversed $257 $-1 #
ellipse-curve $-1 0 0 -2.7755575615628914e-017 -1 0 0 0 0.5625 9.6639683018137634e-017 1 I I #
edge $-1 $253 0 $276 0.18749999999999994 $251 $279 forward 7 unknown #
edge $-1 $254 0 $277 0.1875 $252 $280 forward 7 unknown #
point $-1 0 0.5625 6.8884107402508721e-017 #
point $-1 0 -0.5625 -1.3776821480501744e-016 #
face $-1 $281 $282 $3 $-1 $283 forward single #
loop $-1 $-1 $284 $256 #
torus-surface $-1 -0.21249999999999999 0 0 1 0 0 0.495 0.024999999999999998 0 -1 0 forward_v I I I I #
coedge $-1 $285 $285 $286 $287 forward $259 $-1 #
coedge $-1 $264 $263 $260 $275 reversed $257 $-1 #
edge $-1 $276 -1.2246063538223773e-016 $277 3.1415926535897931 $260 $288 forward 7 unknown #
vertex $-1 $266 $289 #
vertex $-1 $267 $290 #
ellipse-curve $-1 -0.1875 0 0 1 0 0 0 0.5625 0 1 I I #
straight-curve $-1 0 0.5625 6.8884107402508721e-017 -1 0 0 I I #
straight-curve $-1 0 -0.5625 -1.3776821480501744e-016 -1 0 0 I I #
face $-1 $291 $292 $3 $-1 $293 forward single #
loop $-1 $-1 $294 $270 #
cone-surface $-1 -0.55624999999999991 0 0 1 0 0 0 -0.495 0 1 I I 0 1 0.495 forward I I I I #
coedge $-1 $295 $296 $297 $298 forward $271 $-1 #
coedge $-1 $273 $273 $299 $300 reversed $259 $-1 #
coedge $-1 $296 $295 $273 $287 reversed $271 $-1 #
edge $-1 $301 0 $302 3.1415926535897931 $273 $303 forward 7 unknown #
ellipse-curve $-1 -0.1875 0 0 -1 0 0 0 0.5625 0 1 I I #
point $-1 -0.18749999999999994 0.5625 6.8884107402508721e-017 #
point $-1 -0.1875 -0.5625 0 #
face $-1 $304 $305 $3 $-1 $306 reversed single #
loop $-1 $-1 $307 $281 #
cone-surface $-1 0.092500000000000027 0 0 -1 0 0 0 -0.99999999999999989 0 1 I I -0.70710678118654746 0.70710678118654757 0.99999999999999989 forward I I I I #
coedge $-1 $308 $309 $310 $311 forward $282 $-1 #
coedge $-1 $286 $284 $312 $313 reversed $271 $-1 #
coedge $-1 $284 $286 $314 $315 forward $271 $-1 #
coedge $-1 $309 $308 $284 $298 reversed $282 $-1 #
edge $-1 $316 0 $317 3.1415926535897931 $284 $318 forward 7 unknown #
coedge $-1 $312 $314 $285 $300 forward $319 $-1 #
edge $-1 $301 0 $302 3.1415926535897931 $285 $320 forward 7 unknown #
vertex $-1 $300 $321 #
vertex $-1 $300 $322 #
ellipse-curve $-1 -0.1875 0 0 1 0 0 0 0.495 6.061801451420767e-017 1 I I #
face $-1 $323 $324 $3 $-1 $325 forward single #
loop $-1 $-1 $326 $291 #
plane-surface $-1 -0.4375 0 0 1 0 0 0 -1 0 forward_v I I I I #
coedge $-1 $327 $328 $326 $329 forward $292 $-1 #
coedge $-1 $297 $294 $330 $331 reversed $282 $-1 #
coedge $-1 $294 $297 $332 $333 forward $282 $-1 #
coedge $-1 $328 $327 $294 $311 reversed $292 $-1 #
edge $-1 $334 0 $335 3.1415926535897931 $294 $336 forward 7 unknown #
coedge $-1 $337 $299 $295 $313 forward $319 $-1 #
edge $-1 $302 0 $317 3.1415926535897976 $295 $338 forward 7 unknown #
coedge $-1 $299 $337 $296 $315 reversed $319 $-1 #
edge $-1 $301 0 $316 3.1415926535897976 $296 $339 forward 7 unknown #
vertex $-1 $315 $340 #
vertex $-1 $313 $341 #
ellipse-curve $-1 -0.23749999999999993 0 0 1 0 0 0 0.495 6.061801451420767e-017 1 I I #
loop $-1 $-1 $299 $342 #
ellipse-curve $-1 -0.1875 0 0 -1 0 0 0 0.495 6.061801451420767e-017 1 I I #
point $-1 -0.1875 0.495 6.061801451420767e-017 #
point $-1 -0.1875 -0.495 -1.2123602902841534e-016 #
face $-1 $342 $343 $3 $-1 $344 forward single #
loop $-1 $-1 $345 $304 #
cone-surface $-1 0.092500000000000027 0 0 -1 0 0 0 -0.99999999999999989 0 1 I I -0.70710678118654746 0.70710678118654757 0.99999999999999989 forward I I I I #
coedge $-1 $346 $346 $307 $329 reversed $305 $-1 #
coedge $-1 $310 $307 $347 $348 reversed $292 $-1 #
coedge $-1 $307 $310 $349 $350 forward $292 $-1 #
edge $-1 $351 1.2246063538223768e-016 $352 3.1415926535897931 $307 $353 forward 7 unknown #
coedge $-1 $354 $355 $308 $331 forward $343 $-1 #
edge $-1 $317 0 $335 0.17500000000000004 $308 $356 forward 7 unknown #
coedge $-1 $355 $354 $309 $333 reversed $343 $-1 #
edge $-1 $316 5.5511151231257827e-017 $334 0.17499999999999999 $309 $357 forward 7 unknown #
vertex $-1 $333 $358 #
vertex $-1 $331 $359 #
ellipse-curve $-1 -0.41249999999999998 0 -5.5511151231257827e-017 1 0 0 0 0.495 1.161291657454655e-016 1 I I #
coedge $-1 $314 $312 $355 $360 reversed $319 $-1 #
ellipse-curve $-1 -0.21249999999999999 -0.49499999999999994 -1.2123602902841534e-016 -5.4383446804634467e-031 -2.4492127076447491e-016 1 0.024999999999999994 -5.5511151231257827e-017 0 1 I I #
ellipse-curve $-1 -0.21249999999999999 0.49499999999999994 6.061801451420767e-017 -2.7191723402317234e-031 1.2246063538223745e-016 -1 0.024999999999999994 5.5511151231257827e-017 0 1 I I #
point $-1 -0.23749999999999999 0.495 6.061801451420767e-017 #
point $-1 -0.23749999999999993 -0.495 -1.2123602902841534e-016 #
face $-1 $-1 $319 $3 $-1 $361 reversed single #
loop $-1 $-1 $355 $323 #
cone-surface $-1 -0.55624999999999991 0 0 1 0 0 0 -0.495 0 1 I I 0 1 0.495 forward I I I I #
coedge $-1 $347 $349 $354 $362 forward $324 $-1 #
coedge $-1 $326 $326 $363 $364 forward $305 $-1 #
coedge $-1 $363 $345 $327 $348 forward $324 $-1 #
edge $-1 $335 0 $352 0.035355339059327417 $327 $365 forward 7 unknown #
coedge $-1 $345 $363 $328 $350 reversed $324 $-1 #
edge $-1 $334 -3.9252311467094385e-017 $351 0.035355339059327417 $328 $366 forward 7 unknown #
vertex $-1 $350 $367 #
vertex $-1 $348 $368 #
ellipse-curve $-1 -0.4375 -2.7755575615628914e-017 -4.163336342344337e-017 1 0 0 0 0.46999999999999997 4.163336342344337e-017 1 I I #
coedge $-1 $332 $330 $345 $362 reversed $343 $-1 #
coedge $-1 $330 $332 $337 $360 forward $343 $-1 #
straight-curve $-1 -0.23749999999999993 -0.495 -1.2123602902841534e-016 -1 0 0 I I #
straight-curve $-1 -0.23749999999999993 0.495 6.061801451420767e-017 -1 0 0 I I #
point $-1 -0.41249999999999992 0.495 6.061801451420767e-017 #
point $-1 -0.41249999999999998 -0.495 -1.2123602902841532e-016 #
edge $-1 $316 0 $317 3.1415926535897931 $337 $369 forward 7 unknown #
torus-surface $-1 -0.21249999999999999 0 0 1 0 0 0.495 0.024999999999999998 0 -1 0 forward_v I I I I #
edge $-1 $334 -2.5152436780080214e-032 $335 3.1415926535897931 $354 $370 forward 7 unknown #
coedge $-1 $349 $347 $346 $364 reversed $324 $-1 #
edge $-1 $351 -1.2246063538223768e-016 $352 3.1415926535897931 $346 $371 forward 7 unknown #
straight-curve $-1 -0.41249999999999998 -0.495 -1.2123602902841532e-016 -0.70710678118654746 0.70710678118654746 1.7318549141438735e-016 I I #
straight-curve $-1 -0.41249999999999998 0.495 6.0618014514207658e-017 -0.70710678118654746 -0.70710678118654746 -8.6592745707193677e-017 I I #
point $-1 -0.4375 0.46999999999999997 5.7556498629651707e-017 #
point $-1 -0.4375 -0.46999999999999997 0 #
ellipse-curve $-1 -0.23749999999999993 0 0 -1 0 0 0 0.495 6.061801451420767e-017 1 I I #
ellipse-curve $-1 -0.41249999999999998 2.7755575615628914e-017 1.3877787807814457e-017 -1 0 0 0 0.495 4.6740226706393201e-017 1 I I #
ellipse-curve $-1 -0.4375 -2.7755575615628914e-017 4.163336342344337e-017 -1 0 0 0 0.46999999999999997 -4.163336342344337e-017 1 I I #
End-of-ACIS-data 