600 0 1 0           
107 GICL Pro/E ACIS Translator - Source: f:/data5/repository/PTC/V20/prod_appl/assoc_demo/mold/zi10.prt.5 - 6 0 13 ACIS 6.0.3 NT 24 Thu Apr 04 13:16:23 2002 
1 9.9999999999999995e-007 1e-010 
body $-1 $1 $-1 $2 #
lump $-1 $-1 $3 $0 #
transform $-1 1 0 0 0 1 0 0 0 1 0 0 0 25.399999999999999 no_rotate no_reflect no_shear #
shell $-1 $-1 $-1 $4 $-1 $1 #
face $-1 $5 $6 $3 $-1 $7 reversed single #
face $-1 $8 $9 $3 $-1 $10 reversed single #
loop $-1 $11 $12 $4 #
plane-surface $-1 -0.4375 0 0 1 0 0 0 -1 0 forward_v I I I I #
face $-1 $13 $14 $3 $-1 $15 reversed single #
loop $-1 $-1 $16 $5 #
cone-surface $-1 -1.0687500000000001 0 0 1 0 0 0 -1.0000000000000002 0 1 I I -0.70710678118654757 0.70710678118654746 1.0000000000000002 forward I I I I #
loop $-1 $-1 $17 $4 #
coedge $-1 $18 $18 $19 $20 reversed $6 $-1 #
face $-1 $21 $22 $3 $-1 $23 reversed single #
loop $-1 $-1 $24 $8 #
cone-surface $-1 -1.0687500000000001 0 0 1 0 0 0 -1.0000000000000002 0 1 I I -0.70710678118654757 0.70710678118654746 1.0000000000000002 forward I I I I #
coedge $-1 $19 $25 $26 $27 forward $9 $-1 #
coedge $-1 $28 $28 $29 $30 reversed $11 $-1 #
coedge $-1 $12 $12 $31 $32 forward $6 $-1 #
coedge $-1 $33 $16 $12 $20 forward $9 $-1 #
edge $-1 $34 0 $35 3.1415926535897931 $12 $36 forward 7 unknown #
face $-1 $37 $38 $3 $-1 $39 reversed single #
loop $-1 $-1 $40 $13 #
cone-surface $-1 -0.49374999999999997 0 0 1 0 0 0 -0.34375 0 1 I I 0 1 0.34375 forward I I I I #
coedge $-1 $31 $41 $33 $42 forward $14 $-1 #
coedge $-1 $16 $33 $43 $44 reversed $9 $-1 #
coedge $-1 $41 $31 $16 $27 reversed $14 $-1 #
edge $-1 $45 -1.9626155733547179e-016 $34 0.035355339059327334 $26 $46 forward 7 unknown #
coedge $-1 $17 $17 $47 $48 forward $11 $-1 #
coedge $-1 $49 $50 $17 $30 forward $51 $-1 #
edge $-1 $52 1.2246063538223768e-016 $53 3.1415926535897931 $17 $54 forward 7 unknown #
coedge $-1 $26 $24 $18 $32 reversed $14 $-1 #
edge $-1 $34 0 $35 3.1415926535897931 $18 $55 forward 7 unknown #
coedge $-1 $25 $19 $24 $42 reversed $9 $-1 #
vertex $-1 $32 $56 #
vertex $-1 $32 $57 #
ellipse-curve $-1 -0.4375 1.3877787807814457e-017 1.3877787807814457e-017 -1 0 0 0 0.36875000000000013 3.12795714893857e-017 1 I I #
face $-1 $58 $59 $3 $-1 $60 reversed single #
loop $-1 $-1 $61 $21 #
cone-surface $-1 1.3187500000000014 0 0 -1 0 0 0 -1.0000000000000047 0 1 I I -0.70710678118654913 0.70710678118654591 1.0000000000000047 forward I I I I #
coedge $-1 $62 $63 $64 $65 forward $22 $-1 #
coedge $-1 $24 $26 $66 $67 forward $14 $-1 #
edge $-1 $68 -3.5055336480952837e-030 $35 0.035355339059327334 $24 $69 forward 7 unknown #
coedge $-1 $70 $71 $25 $44 forward $72 $-1 #
edge $-1 $45 -5.2156092907174314e-032 $68 3.1415926535897931 $43 $73 forward 7 unknown #
vertex $-1 $74 $75 #
straight-curve $-1 -0.41250000000000009 0.34375000000000011 4.2095843412644218e-017 -0.70710678118654602 0.70710678118654913 8.6592745707193529e-017 I I #
coedge $-1 $76 $77 $28 $48 reversed $78 $-1 #
edge $-1 $52 -1.2246063538223768e-016 $53 3.1415926535897931 $28 $79 forward 7 unknown #
coedge $-1 $80 $29 $77 $81 reversed $51 $-1 #
coedge $-1 $29 $80 $76 $82 forward $51 $-1 #
loop $-1 $-1 $29 $83 #
vertex $-1 $48 $84 #
vertex $-1 $48 $85 #
ellipse-curve $-1 -0.4375 0 0 1 0 0 0 0.46999999999999997 0 1 I I #
ellipse-curve $-1 -0.4375 1.3877787807814457e-017 1.3877787807814457e-017 1 0 0 0 0.36875000000000013 3.12795714893857e-017 1 I I #
point $-1 -0.4375 0.36875000000000013 4.5157359297200156e-017 #
point $-1 -0.4375 -0.36875000000000013 0 #
face $-1 $86 $72 $3 $-1 $87 reversed single #
loop $-1 $-1 $88 $37 #
cone-surface $-1 1.3187500000000014 0 0 -1 0 0 0 -1.0000000000000047 0 1 I I -0.70710678118654913 0.70710678118654591 1.0000000000000047 forward I I I I #
coedge $-1 $64 $89 $90 $91 forward $38 $-1 #
coedge $-1 $66 $40 $70 $92 reversed $22 $-1 #
coedge $-1 $40 $66 $71 $74 forward $22 $-1 #
coedge $-1 $93 $61 $40 $65 reversed $38 $-1 #
edge $-1 $94 -2.6078046453587157e-032 $95 3.1415926535897931 $40 $96 forward 7 unknown #
coedge $-1 $63 $62 $41 $67 reversed $22 $-1 #
edge $-1 $45 5.2156092907174314e-032 $68 3.1415926535897931 $66 $97 forward 7 unknown #
vertex $-1 $67 $98 #
straight-curve $-1 -0.41250000000000009 -0.34375000000000011 -1.305437013912961e-015 -0.70710678118654602 -0.70710678118654913 -2.6853334253084174e-015 I I #
coedge $-1 $99 $43 $62 $92 forward $72 $-1 #
coedge $-1 $43 $99 $63 $74 reversed $72 $-1 #
loop $-1 $-1 $43 $58 #
ellipse-curve $-1 -0.41250000000000009 -1.3877787807814457e-017 -1.3877787807814457e-017 -1 0 0 0 0.34375000000000011 5.5973631220458675e-017 1 I I #
edge $-1 $45 0 $94 1.075 $63 $100 forward 7 unknown #
point $-1 -0.41249999999999992 0.34375 4.2095843412644218e-017 #
coedge $-1 $101 $47 $50 $82 reversed $78 $-1 #
coedge $-1 $47 $101 $49 $81 forward $78 $-1 #
loop $-1 $-1 $101 $102 #
ellipse-curve $-1 -0.4375 0 0 -1 0 0 0 0.46999999999999997 0 1 I I #
coedge $-1 $50 $49 $103 $104 reversed $51 $-1 #
edge $-1 $105 0 $53 0.035355339059327417 $49 $106 forward 7 unknown #
edge $-1 $107 -3.9252311467094385e-017 $52 0.035355339059327417 $50 $108 forward 7 unknown #
face $-1 $102 $51 $3 $-1 $109 forward single #
point $-1 -0.4375 0.46999999999999997 5.7556498629651707e-017 #
point $-1 -0.4375 -0.46999999999999997 0 #
face $-1 $110 $111 $3 $-1 $112 forward single #
cone-surface $-1 -0.49374999999999997 0 0 1 0 0 0 -0.34375 0 1 I I 0 1 0.34375 forward I I I I #
coedge $-1 $113 $114 $93 $115 forward $59 $-1 #
coedge $-1 $61 $93 $116 $117 forward $38 $-1 #
coedge $-1 $114 $113 $61 $91 reversed $59 $-1 #
edge $-1 $118 0 $95 0.035355339059327334 $90 $119 forward 7 unknown #
edge $-1 $68 -1.6653345369377348e-016 $95 1.0749999999999997 $62 $120 forward 7 unknown #
coedge $-1 $89 $64 $88 $115 reversed $38 $-1 #
vertex $-1 $74 $121 #
vertex $-1 $92 $122 #
ellipse-curve $-1 0.66249999999999987 0 -1.3877787807814457e-017 1 0 0 0 0.34375000000000011 5.59736312204587e-017 1 I I #
ellipse-curve $-1 -0.41250000000000009 0 -1.3877787807814457e-017 1 0 0 0 0.34375000000000011 5.5973631220458675e-017 1 I I #
point $-1 -0.41250000000000009 -0.34375000000000011 0 #
coedge $-1 $71 $70 $113 $123 reversed $72 $-1 #
straight-curve $-1 -0.41249999999999992 0.34375 4.2095843412644218e-017 1 0 0 I I #
coedge $-1 $77 $76 $124 $125 forward $78 $-1 #
face $-1 $126 $78 $3 $-1 $127 forward single #
coedge $-1 $128 $129 $80 $104 forward $130 $-1 #
edge $-1 $107 2.5152436780080219e-032 $105 3.1415926535897931 $103 $131 forward 7 unknown #
vertex $-1 $132 $133 #
straight-curve $-1 -0.41249999999999998 -0.495 -1.2123602902841532e-016 -0.70710678118654746 0.70710678118654746 1.7318549141438735e-016 I I #
vertex $-1 $134 $135 #
straight-curve $-1 -0.41249999999999998 0.495 6.0618014514207658e-017 -0.70710678118654746 -0.70710678118654746 -8.6592745707193677e-017 I I #
cone-surface $-1 0.092500000000000027 0 0 -1 0 0 0 -0.99999999999999989 0 1 I I -0.70710678118654746 0.70710678118654757 0.99999999999999989 forward I I I I #
face $-1 $136 $137 $3 $-1 $138 forward single #
loop $-1 $139 $140 $86 #
plane-surface $-1 0.6875 0 0 1 0 0 0 -1 0 forward_v I I I I #
coedge $-1 $90 $88 $99 $123 forward $59 $-1 #
coedge $-1 $88 $90 $141 $142 reversed $59 $-1 #
edge $-1 $143 0 $94 0.035355339059327251 $88 $144 forward 7 unknown #
coedge $-1 $141 $141 $89 $117 reversed $139 $-1 #
edge $-1 $143 0 $118 3.1415926535897967 $116 $145 forward 7 unknown #
vertex $-1 $142 $146 #
straight-curve $-1 0.68749999999999978 -0.36875000000000013 0 -0.70710678118654602 0.70710678118654913 0 I I #
straight-curve $-1 -0.41249999999999992 -0.34375 -8.4191686825288437e-017 1 0 0 I I #
point $-1 0.66250000000000009 0.34375 4.2095843412644218e-017 #
point $-1 0.66249999999999987 -0.34375000000000011 0 #
edge $-1 $94 2.6078046453587157e-032 $95 3.1415926535897931 $99 $147 forward 7 unknown #
coedge $-1 $148 $149 $101 $125 reversed $150 $-1 #
edge $-1 $107 -2.5152436780080208e-032 $105 3.1415926535897931 $124 $151 forward 7 unknown #
face $-1 $152 $150 $3 $-1 $153 forward single #
cone-surface $-1 0.092500000000000027 0 0 -1 0 0 0 -0.99999999999999989 0 1 I I -0.70710678118654746 0.70710678118654757 0.99999999999999989 forward I I I I #
coedge $-1 $154 $103 $149 $132 reversed $130 $-1 #
coedge $-1 $103 $154 $148 $134 forward $130 $-1 #
loop $-1 $-1 $103 $155 #
ellipse-curve $-1 -0.41249999999999998 4.163336342344337e-017 0 1 0 0 0 0.49499999999999994 6.0618014514207658e-017 1 I I #
edge $-1 $156 0 $105 0.17499999999999999 $128 $157 forward 7 unknown #
point $-1 -0.41249999999999998 -0.495 -1.2123602902841532e-016 #
edge $-1 $158 0 $107 0.17499999999999993 $129 $159 forward 7 unknown #
point $-1 -0.41249999999999992 0.495 6.061801451420767e-017 #
face $-1 $160 $161 $3 $-1 $162 forward single #
loop $-1 $-1 $163 $110 #
cone-surface $-1 0.15749999999999797 0 0 1 0 0 0 -1.0000000000000044 0 1 I I -0.70710678118654913 0.70710678118654602 1.0000000000000044 forward I I I I #
loop $-1 $-1 $116 $86 #
coedge $-1 $164 $164 $163 $165 reversed $111 $-1 #
coedge $-1 $116 $116 $114 $142 forward $139 $-1 #
edge $-1 $143 0 $118 3.1415926535897896 $141 $166 forward 7 unknown #
vertex $-1 $142 $167 #
straight-curve $-1 0.68749999999999978 0.36875000000000013 4.5157359297200181e-017 -0.70710678118654602 -0.70710678118654913 -8.6592745707193529e-017 I I #
ellipse-curve $-1 0.6875 1.3877787807814457e-017 1.3877787807814457e-017 1 6.02154860813644e-016 5.1078362078648086e-032 -2.2204460492503131e-016 0.36875000000000013 3.1279571489385724e-017 1 I I #
point $-1 0.68749999999999978 -0.36875000000000013 -1.4003778876520858e-015 #
ellipse-curve $-1 0.66249999999999987 -1.3877787807814457e-017 -1.3877787807814457e-017 -1 0 0 0 0.34375000000000011 5.59736312204587e-017 1 I I #
coedge $-1 $168 $124 $129 $134 reversed $150 $-1 #
coedge $-1 $124 $168 $128 $132 forward $150 $-1 #
loop $-1 $-1 $168 $126 #
ellipse-curve $-1 -0.41249999999999998 -4.163336342344337e-017 0 -1 0 0 0 0.49500000000000005 6.0618014514207658e-017 1 I I #
face $-1 $169 $170 $3 $-1 $171 reversed single #
cone-surface $-1 -0.49374999999999997 0 0 1 0 0 0 -0.495 0 1 I I 0 1 0.495 forward I I I I #
coedge $-1 $129 $128 $172 $173 reversed $130 $-1 #
face $-1 $83 $130 $3 $-1 $174 forward single #
vertex $-1 $175 $176 #
straight-curve $-1 -0.23749999999999999 -0.495 -1.2123602902841534e-016 -1 0 0 I I #
vertex $-1 $177 $178 #
straight-curve $-1 -0.23749999999999999 0.495 6.061801451420767e-017 -1 0 0 I I #
face $-1 $179 $180 $3 $-1 $181 forward single #
loop $-1 $-1 $182 $136 #
cone-surface $-1 0.15749999999999797 0 0 1 0 0 0 -1.0000000000000044 0 1 I I -0.70710678118654913 0.70710678118654602 1.0000000000000044 forward I I I I #
coedge $-1 $183 $184 $140 $165 forward $137 $-1 #
coedge $-1 $140 $140 $185 $186 forward $111 $-1 #
edge $-1 $187 0 $188 3.1415926535897931 $140 $189 forward 7 unknown #
ellipse-curve $-1 0.6875 1.3877787807814457e-017 1.3877787807814457e-017 -1 -6.02154860813644e-016 -5.1078362078648086e-032 -2.2204460492503131e-016 0.36875000000000013 3.1279571489385724e-017 1 I I #
point $-1 0.68749999999999978 0.36875000000000013 4.5157359297200181e-017 #
coedge $-1 $149 $148 $190 $191 forward $150 $-1 #
face $-1 $-1 $192 $3 $-1 $193 forward single #
loop $-1 $-1 $194 $152 #
torus-surface $-1 0.025000000000000022 0 0 1 0 0 0.5 0.024999999999999998 0 -1 0 forward_v I I I I #
coedge $-1 $195 $196 $154 $173 forward $197 $-1 #
edge $-1 $158 0 $156 3.1415926535897931 $172 $198 forward 7 unknown #
cone-surface $-1 -0.49374999999999997 0 0 1 0 0 0 -0.495 0 1 I I 0 1 0.495 forward I I I I #
edge $-1 $199 1.2325951644078316e-030 $156 3.1415926535897976 $195 $200 forward 7 unknown #
point $-1 -0.23749999999999999 -0.495 -1.2123602902841534e-016 #
edge $-1 $201 0 $158 3.1415926535897976 $196 $202 forward 7 unknown #
point $-1 -0.23749999999999999 0.495 6.061801451420767e-017 #
face $-1 $203 $204 $3 $-1 $205 forward single #
loop $-1 $-1 $206 $160 #
cone-surface $-1 -0.49374999999999997 0 0 1 0 0 0 -0.495 0 1 I I 0 1 0.495 forward I I I I #
coedge $-1 $207 $208 $209 $210 forward $161 $-1 #
coedge $-1 $211 $163 $207 $212 forward $137 $-1 #
coedge $-1 $163 $211 $208 $213 reversed $137 $-1 #
coedge $-1 $208 $207 $164 $186 reversed $161 $-1 #
edge $-1 $187 0 $188 3.1415926535897931 $164 $214 forward 7 unknown #
vertex $-1 $186 $215 #
vertex $-1 $186 $216 #
ellipse-curve $-1 0.6875 -2.7755575615628914e-017 1.3877787807814457e-017 -1 0 0 0 0.47000000000000008 4.3678710821837275e-017 1 I I #
coedge $-1 $217 $218 $168 $191 reversed $219 $-1 #
edge $-1 $158 0 $156 3.1415926535897931 $190 $220 forward 7 unknown #
loop $-1 $-1 $221 $169 #
cone-surface $-1 -0.49374999999999997 0 0 1 0 0 0 -0.495 0 1 I I 0 1 0.495 forward I I I I #
coedge $-1 $222 $223 $224 $225 forward $170 $-1 #
coedge $-1 $226 $172 $218 $175 reversed $197 $-1 #
coedge $-1 $172 $226 $217 $177 forward $197 $-1 #
loop $-1 $-1 $172 $227 #
ellipse-curve $-1 -0.23749999999999999 0 0 1 0 0 0 0.495 6.061801451420767e-017 1 I I #
vertex $-1 $228 $229 #
ellipse-curve $-1 -0.21249999999999999 -0.49499999999999994 -1.2123602902841534e-016 -5.4383446804634441e-031 -2.4492127076447481e-016 1 0.024999999999999994 -5.5511151231257827e-017 0 1 I I #
vertex $-1 $228 $230 #
ellipse-curve $-1 -0.21249999999999999 0.49499999999999994 6.061801451420767e-017 -2.7191723402317221e-031 1.2246063538223741e-016 -1 0.024999999999999994 5.5511151231257827e-017 0 1 I I #
face $-1 $231 $232 $3 $-1 $233 forward single #
loop $-1 $234 $235 $179 #
plane-surface $-1 0.59999999999999998 0 0 1 0 0 0 -1 0 forward_v I I I I #
coedge $-1 $236 $237 $238 $239 forward $180 $-1 #
coedge $-1 $185 $182 $183 $212 reversed $161 $-1 #
coedge $-1 $182 $185 $184 $213 forward $161 $-1 #
coedge $-1 $237 $236 $182 $210 reversed $180 $-1 #
edge $-1 $240 0 $241 3.1415926535897931 $182 $242 forward 7 unknown #
coedge $-1 $184 $183 $221 $243 reversed $137 $-1 #
edge $-1 $188 -1.9935900998535541e-032 $241 0.035355339059327251 $207 $244 forward 7 unknown #
edge $-1 $187 0 $240 0.035355339059327334 $208 $245 forward 7 unknown #
ellipse-curve $-1 0.6875 4.163336342344337e-017 0 1 0 0 0 0.47000000000000003 5.7556498629651732e-017 1 I I #
point $-1 0.6875 0.47000000000000008 5.7556498629651732e-017 #
point $-1 0.6875 -0.47000000000000008 0 #
coedge $-1 $246 $190 $196 $177 reversed $219 $-1 #
coedge $-1 $190 $246 $195 $175 forward $219 $-1 #
loop $-1 $-1 $246 $247 #
ellipse-curve $-1 -0.23749999999999999 0 0 -1 0 0 0 0.495 6.061801451420767e-017 1 I I #
coedge $-1 $248 $249 $211 $243 forward $192 $-1 #
coedge $-1 $250 $194 $251 $252 forward $170 $-1 #
coedge $-1 $194 $250 $253 $254 reversed $170 $-1 #
coedge $-1 $255 $256 $194 $225 reversed $232 $-1 #
edge $-1 $257 0 $258 3.1415926535897931 $224 $259 forward 7 unknown #
coedge $-1 $196 $195 $260 $228 reversed $197 $-1 #
face $-1 $155 $197 $3 $-1 $261 reversed single #
edge $-1 $201 0 $199 3.1415926535897931 $260 $262 forward 7 unknown #
point $-1 -0.1875 -0.495 0 #
point $-1 -0.1875 0.495 6.061801451420767e-017 #
face $-1 $263 $264 $3 $-1 $265 forward single #
loop $-1 $-1 $266 $203 #
cone-surface $-1 -0.49374999999999997 0 0 1 0 0 0 -0.5 0 1 I I 0 1 0.5 forward I I I I #
loop $-1 $-1 $238 $179 #
coedge $-1 $267 $267 $266 $268 reversed $204 $-1 #
coedge $-1 $209 $206 $248 $269 reversed $180 $-1 #
coedge $-1 $206 $209 $249 $270 forward $180 $-1 #
coedge $-1 $271 $271 $206 $239 reversed $234 $-1 #
edge $-1 $272 1.224606353822377e-016 $273 3.1415926535897931 $206 $274 forward 7 unknown #
vertex $-1 $213 $275 #
vertex $-1 $212 $276 #
ellipse-curve $-1 0.66250000000000009 4.163336342344337e-017 0 1 0 0 0 0.49499999999999994 6.061801451420767e-017 1 I I #
edge $-1 $240 0 $241 3.1415926535897931 $211 $277 forward 7 unknown #
straight-curve $-1 0.6875 -0.47000000000000008 -1.1511299725930346e-016 -0.70710678118654602 -0.70710678118654913 -1.7318549141438775e-016 I I #
straight-curve $-1 0.6875 0.47000000000000008 5.7556498629651732e-017 -0.70710678118654602 0.70710678118654913 8.6592745707193875e-017 I I #
coedge $-1 $218 $217 $278 $279 forward $219 $-1 #
face $-1 $227 $219 $3 $-1 $280 reversed single #
coedge $-1 $281 $221 $236 $269 forward $192 $-1 #
coedge $-1 $221 $281 $237 $270 reversed $192 $-1 #
coedge $-1 $223 $222 $282 $283 reversed $170 $-1 #
coedge $-1 $284 $285 $222 $252 reversed $286 $-1 #
edge $-1 $258 0 $287 3.1415926535897931 $251 $288 forward 7 unknown #
coedge $-1 $285 $284 $223 $254 forward $286 $-1 #
edge $-1 $257 0 $289 3.1415926535897931 $253 $290 forward 7 unknown #
coedge $-1 $266 $224 $291 $292 reversed $232 $-1 #
coedge $-1 $224 $266 $293 $294 forward $232 $-1 #
vertex $-1 $292 $295 #
vertex $-1 $294 $296 #
ellipse-curve $-1 0.050000000000000017 0 0 -1 0 0 0 0.5 6.1230317691118863e-017 1 I I #
coedge $-1 $278 $278 $226 $228 forward $297 $-1 #
torus-surface $-1 -0.21249999999999999 0 0 1 0 0 0.495 0.024999999999999998 0 -1 0 forward_v I I I I #
ellipse-curve $-1 -0.1875 4.163336342344337e-017 0 1 0 0 0 0.49499999999999994 6.061801451420767e-017 1 I I #
face $-1 $298 $286 $3 $-1 $299 reversed single #
loop $-1 $-1 $300 $231 #
cone-surface $-1 -0.49374999999999997 0 0 1 0 0 0 -0.5 0 1 I I 0 1 0.5 forward I I I I #
coedge $-1 $256 $255 $235 $268 forward $232 $-1 #
coedge $-1 $235 $235 $301 $302 forward $204 $-1 #
edge $-1 $303 0 $304 3.1415926535897931 $235 $305 forward 7 unknown #
edge $-1 $241 0 $273 0.062500000000000111 $236 $306 forward 7 unknown #
edge $-1 $240 0 $272 0.0625 $237 $307 forward 7 unknown #
coedge $-1 $238 $238 $281 $308 forward $234 $-1 #
vertex $-1 $270 $309 #
vertex $-1 $269 $310 #
ellipse-curve $-1 0.59999999999999998 0 0 1 0 0 0 0.495 0 1 I I #
point $-1 0.66250000000000009 0.49500000000000011 6.0618014514207683e-017 #
point $-1 0.66250000000000009 -0.495 -1.2123602902841534e-016 #
ellipse-curve $-1 0.66250000000000009 -4.163336342344337e-017 0 -1 0 0 0 0.49500000000000005 6.061801451420767e-017 1 I I #
coedge $-1 $260 $260 $246 $279 reversed $297 $-1 #
edge $-1 $201 0 $199 3.1415926535897931 $278 $311 forward 7 unknown #
torus-surface $-1 -0.21249999999999999 0 0 1 0 0 0.495 0.024999999999999998 0 -1 0 forward_v I I I I #
coedge $-1 $249 $248 $271 $308 reversed $192 $-1 #
coedge $-1 $312 $312 $250 $283 forward $313 $-1 #
edge $-1 $289 -1.2246063538223773e-016 $287 3.1415926535897931 $282 $314 forward 7 unknown #
coedge $-1 $253 $251 $300 $315 reversed $286 $-1 #
coedge $-1 $251 $253 $312 $316 forward $286 $-1 #
loop $-1 $-1 $285 $263 #
vertex $-1 $252 $317 #
ellipse-curve $-1 0.025000000000000022 -0.5 -1.2246063538223773e-016 0 -2.4492127076447481e-016 1 0.024999999999999994 0 0 1 I I #
vertex $-1 $254 $318 #
ellipse-curve $-1 0.025000000000000022 0.5 6.1230317691118863e-017 0 1.2246063538223741e-016 -1 0.024999999999999994 0 0 1 I I #
coedge $-1 $300 $301 $255 $292 forward $264 $-1 #
edge $-1 $303 0 $257 0.55000000000000004 $291 $319 forward 7 unknown #
coedge $-1 $301 $300 $256 $294 reversed $264 $-1 #
edge $-1 $304 0 $258 0.55000000000000004 $293 $320 forward 7 unknown #
point $-1 0.049999999999999989 0.5 6.1230317691118863e-017 #
point $-1 0.050000000000000017 -0.5 -1.2246063538223773e-016 #
loop $-1 $321 $278 $322 #
face $-1 $323 $324 $3 $-1 $325 forward single #
torus-surface $-1 0.025000000000000022 0 0 1 0 0 0.5 0.024999999999999998 0 -1 0 forward_v I I I I #
coedge $-1 $293 $291 $284 $315 forward $264 $-1 #
coedge $-1 $291 $293 $267 $302 reversed $264 $-1 #
edge $-1 $303 0 $304 3.1415926535897931 $267 $326 forward 7 unknown #
vertex $-1 $302 $327 #
vertex $-1 $302 $328 #
ellipse-curve $-1 0.59999999999999998 -2.7755575615628914e-017 8.3266726846886741e-017 -1 2.2204460492503131e-016 -9.7861315299176422e-033 1.1102230246251565e-016 0.5 -2.2036409155767878e-017 1 I I #
straight-curve $-1 0.66250000000000009 -0.495 -1.2123602902841534e-016 -1 0 0 I I #
straight-curve $-1 0.66250000000000009 0.495 6.061801451420767e-017 -1 0 0 I I #
edge $-1 $272 -1.224606353822377e-016 $273 3.1415926535897931 $271 $329 forward 7 unknown #
point $-1 0.60000000000000009 0.495 6.061801451420767e-017 #
point $-1 0.59999999999999998 -0.495 0 #
ellipse-curve $-1 -0.1875 -4.163336342344337e-017 0 -1 0 0 0 0.49500000000000005 6.061801451420767e-017 1 I I #
coedge $-1 $282 $282 $285 $316 reversed $313 $-1 #
loop $-1 $-1 $312 $298 #
ellipse-curve $-1 0 0 0 -1 0 0 0 0.5 0 1 I I #
edge $-1 $257 0 $258 3.1415926535897931 $300 $330 forward 7 unknown #
edge $-1 $289 1.2246063538223773e-016 $287 3.1415926535897931 $285 $331 forward 7 unknown #
point $-1 0 -0.5 0 #
point $-1 2.4286128663675299e-017 0.5 6.1230317691118863e-017 #
straight-curve $-1 0.60000000000000009 0.5 6.1230317691118863e-017 -1 0 0 I I #
straight-curve $-1 0.60000000000000009 -0.5 -1.2246063538223773e-016 -1 0 0 I I #
loop $-1 $-1 $332 $322 #
face $-1 $247 $297 $3 $-1 $333 reversed single #
face $-1 $334 $335 $3 $-1 $336 forward single #
loop $-1 $313 $337 $298 #
plane-surface $-1 0 0 0 1 0 0 0 -1 0 forward_v I I I I #
ellipse-curve $-1 0.59999999999999998 -1.3877787807814457e-017 -1.3877787807814457e-017 1 -2.2204460492503131e-016 -3.3354699224356441e-032 1.1102230246251565e-016 0.5 7.510810549893332e-017 1 I I #
point $-1 0.60000000000000009 0.5 6.1230317691118863e-017 #
point $-1 0.60000000000000009 -0.5 0 #
ellipse-curve $-1 0.59999999999999998 0 0 -1 0 0 0 0.495 0 1 I I #
ellipse-curve $-1 0.050000000000000017 0 0 1 0 0 0 0.5 6.1230317691118863e-017 1 I I #
ellipse-curve $-1 0 0 0 1 0 0 0 0.5 0 1 I I #
coedge $-1 $338 $338 $339 $340 reversed $321 $-1 #
plane-surface $-1 -0.1875 0 0 1 0 0 0 -1 0 forward_v I I I I #
face $-1 $322 $341 $3 $-1 $342 forward single #
loop $-1 $-1 $343 $323 #
cone-surface $-1 -0.49374999999999997 0 0 1 0 0 0 -0.5625 0 1 I I 0 1 0.5625 forward I I I I #
coedge $-1 $344 $344 $343 $345 reversed $324 $-1 #
coedge $-1 $332 $332 $346 $347 forward $321 $-1 #
coedge $-1 $348 $349 $332 $340 forward $341 $-1 #
edge $-1 $350 1.2246063538223773e-016 $351 3.1415926535897927 $339 $352 forward 7 unknown #
loop $-1 $-1 $339 $334 #
cone-surface $-1 -0.49374999999999997 0 0 1 0 0 0 -0.5625 0 1 I I 0 1 0.5625 forward I I I I #
coedge $-1 $353 $354 $337 $345 forward $335 $-1 #
coedge $-1 $337 $337 $355 $356 forward $324 $-1 #
edge $-1 $357 0 $358 3.1415926535897931 $337 $359 forward 7 unknown #
coedge $-1 $354 $353 $338 $347 reversed $335 $-1 #
edge $-1 $350 -1.2246063538223773e-016 $351 3.1415926535897927 $338 $360 forward 7 unknown #
coedge $-1 $355 $339 $353 $361 reversed $341 $-1 #
coedge $-1 $339 $355 $354 $362 forward $341 $-1 #
vertex $-1 $362 $363 #
vertex $-1 $361 $364 #
ellipse-curve $-1 -0.1875 0 -1.1102230246251565e-016 1 0 0 0 0.5625 1.1102230246251565e-016 1 I I #
coedge $-1 $346 $343 $348 $361 forward $335 $-1 #
coedge $-1 $343 $346 $349 $362 reversed $335 $-1 #
coedge $-1 $349 $348 $344 $356 reversed $341 $-1 #
edge $-1 $357 0 $358 3.1415926535897927 $344 $365 forward 7 unknown #
vertex $-1 $356 $366 #
vertex $-1 $356 $367 #
ellipse-curve $-1 0 -2.7755575615628914e-017 5.5511151231257827e-017 -1 0 0 0 0.5625 1.3372956171250894e-017 1 I I #
ellipse-curve $-1 -0.1875 0 1.1102230246251565e-016 -1 0 0 0 0.5625 -1.1102230246251565e-016 1 I I #
edge $-1 $358 0 $351 0.1875 $348 $368 forward 7 unknown #
edge $-1 $357 0 $350 0.1875 $349 $369 forward 7 unknown #
point $-1 -0.1875 0.5625 6.8884107402508721e-017 #
point $-1 -0.1875 -0.5625 0 #
ellipse-curve $-1 0 2.7755575615628914e-017 -1.1102230246251565e-016 1 0 0 0 0.5625 1.7990640986502437e-016 1 I I #
point $-1 0 0.5625 6.8884107402508721e-017 #
point $-1 0 -0.5625 0 #
straight-curve $-1 0 -0.5625 -1.3776821480501744e-016 -1 0 0 I I #
straight-curve $-1 0 0.5625 6.8884107402508721e-017 -1 0 0 I I #
End-of-ACIS-data 