600 0 1 0           
107 GICL Pro/E ACIS Translator - Source: f:/data5/repository/PTC/V20/prod_appl/assoc_demo/mold/zi20.prt.4 - 6 0 13 ACIS 6.0.3 NT 24 Thu Apr 04 13:16:27 2002 
1 9.9999999999999995e-007 1e-010 
body $-1 $1 $-1 $2 #
lump $-1 $-1 $3 $0 #
transform $-1 1 0 0 0 1 0 0 0 1 0 0 0 25.399999999999999 no_rotate no_reflect no_shear #
shell $-1 $-1 $-1 $4 $-1 $1 #
face $-1 $5 $6 $3 $-1 $7 reversed single #
face $-1 $8 $9 $3 $-1 $10 reversed single #
loop $-1 $11 $12 $4 #
plane-surface $-1 -1.5 0 0 1 0 0 0 -1 0 forward_v I I I I #
face $-1 $13 $14 $3 $-1 $15 reversed single #
loop $-1 $-1 $16 $5 #
cone-surface $-1 -2.0899999999999999 0 0 1 0 0 0 -0.99999999999999989 0 1 I I -0.70710678118654746 0.70710678118654757 0.99999999999999989 forward I I I I #
loop $-1 $-1 $17 $4 #
coedge $-1 $18 $18 $16 $19 reversed $6 $-1 #
face $-1 $20 $21 $3 $-1 $22 reversed single #
loop $-1 $-1 $23 $8 #
cone-surface $-1 -2.0899999999999999 0 0 1 0 0 0 -0.99999999999999989 0 1 I I -0.70710678118654746 0.70710678118654757 0.99999999999999989 forward I I I I #
coedge $-1 $24 $25 $12 $19 forward $9 $-1 #
coedge $-1 $26 $26 $27 $28 reversed $11 $-1 #
coedge $-1 $12 $12 $29 $30 forward $6 $-1 #
edge $-1 $31 0 $32 3.1415926535897931 $12 $33 forward 7 unknown #
face $-1 $34 $35 $3 $-1 $36 reversed single #
loop $-1 $-1 $37 $13 #
cone-surface $-1 -1.575 0 0 1 0 0 0 -0.39000000000000001 0 1 I I 0 1 0.39000000000000001 forward I I I I #
coedge $-1 $38 $39 $40 $41 forward $14 $-1 #
coedge $-1 $42 $16 $38 $43 forward $9 $-1 #
coedge $-1 $16 $42 $39 $44 reversed $9 $-1 #
coedge $-1 $17 $17 $45 $46 forward $11 $-1 #
coedge $-1 $47 $48 $17 $28 forward $49 $-1 #
edge $-1 $50 0 $51 3.1415926535897931 $17 $52 forward 7 unknown #
coedge $-1 $39 $38 $18 $30 reversed $14 $-1 #
edge $-1 $31 0 $32 3.1415926535897931 $18 $53 forward 7 unknown #
vertex $-1 $30 $54 #
vertex $-1 $30 $55 #
ellipse-curve $-1 -1.5 0 -1.3877787807814457e-017 -1 0 0 0 0.41000000000000003 6.4086648314531927e-017 1 I I #
face $-1 $56 $57 $3 $-1 $58 reversed single #
loop $-1 $-1 $59 $20 #
cone-surface $-1 -1.1412999999999998 0 0 1 0 0 0 -0.99999999999999922 0 1 I I -0.70710678118654724 0.70710678118654779 0.99999999999999922 forward I I I I #
coedge $-1 $60 $61 $62 $63 forward $21 $-1 #
coedge $-1 $29 $23 $24 $43 reversed $14 $-1 #
coedge $-1 $23 $29 $25 $44 forward $14 $-1 #
coedge $-1 $61 $60 $23 $41 reversed $21 $-1 #
edge $-1 $64 0 $65 3.1415926535897931 $23 $66 forward 7 unknown #
coedge $-1 $25 $24 $67 $68 reversed $9 $-1 #
edge $-1 $32 1.7390892360424567e-032 $65 0.028284271247461929 $38 $69 forward 7 unknown #
edge $-1 $31 0 $64 0.028284271247461929 $39 $70 forward 7 unknown #
coedge $-1 $71 $72 $26 $46 reversed $73 $-1 #
edge $-1 $50 0 $51 3.1415926535897931 $26 $74 forward 7 unknown #
coedge $-1 $75 $27 $72 $76 reversed $49 $-1 #
coedge $-1 $27 $75 $71 $77 forward $49 $-1 #
loop $-1 $-1 $27 $78 #
vertex $-1 $46 $79 #
vertex $-1 $46 $80 #
ellipse-curve $-1 -1.5 0 0 1 0 0 0 0.47499999999999998 0 1 I I #
ellipse-curve $-1 -1.5 0 1.3877787807814457e-017 1 0 0 0 0.41000000000000003 3.6331072698903014e-017 1 I I #
point $-1 -1.5 0.41000000000000003 5.0208860506717471e-017 #
point $-1 -1.5 -0.41000000000000003 0 #
face $-1 $81 $82 $3 $-1 $83 reversed single #
loop $-1 $-1 $84 $34 #
cone-surface $-1 -1.575 0 0 1 0 0 0 -0.23399999999999999 0 1 I I 0 1 0.23399999999999999 forward I I I I #
coedge $-1 $85 $86 $87 $88 forward $35 $-1 #
coedge $-1 $40 $37 $89 $90 reversed $21 $-1 #
coedge $-1 $37 $40 $91 $92 forward $21 $-1 #
coedge $-1 $86 $85 $37 $63 reversed $35 $-1 #
edge $-1 $93 0 $94 3.1415926535897931 $37 $95 forward 7 unknown #
vertex $-1 $44 $96 #
vertex $-1 $43 $97 #
ellipse-curve $-1 -1.48 0 1.3877787807814457e-017 1 0 0 0 0.39000000000000001 3.3881859991258256e-017 1 I I #
coedge $-1 $89 $91 $42 $68 forward $98 $-1 #
edge $-1 $64 0 $65 3.1415926535897931 $42 $99 forward 7 unknown #
straight-curve $-1 -1.5 -0.41000000000000003 -1.0041772101343494e-016 0.70710678118654757 0.70710678118654757 1.7318549141438721e-016 I I #
straight-curve $-1 -1.5 0.41000000000000003 5.0208860506717471e-017 0.70710678118654757 -0.70710678118654757 -8.6592745707193603e-017 I I #
coedge $-1 $100 $45 $48 $77 reversed $73 $-1 #
coedge $-1 $45 $100 $47 $76 forward $73 $-1 #
loop $-1 $-1 $100 $101 #
ellipse-curve $-1 -1.5 0 0 -1 0 0 0 0.47499999999999998 0 1 I I #
coedge $-1 $48 $47 $102 $103 reversed $49 $-1 #
edge $-1 $104 0 $51 0.028284271247462089 $47 $105 forward 7 unknown #
edge $-1 $106 1.570092458683784e-016 $50 0.028284271247462089 $48 $107 forward 7 unknown #
face $-1 $101 $49 $3 $-1 $108 forward single #
point $-1 -1.5 0.47499999999999998 0 #
point $-1 -1.5 -0.47499999999999998 0 #
face $-1 $109 $110 $3 $-1 $111 forward single #
loop $-1 $-1 $112 $56 #
cone-surface $-1 0.746 0 0 -1 0 0 0 -0.99999999999999989 0 1 I I -0.70710678118654746 0.70710678118654757 0.99999999999999989 forward I I I I #
coedge $-1 $113 $114 $115 $116 forward $57 $-1 #
coedge $-1 $62 $59 $117 $118 reversed $35 $-1 #
coedge $-1 $59 $62 $119 $120 forward $35 $-1 #
coedge $-1 $114 $113 $59 $88 reversed $57 $-1 #
edge $-1 $121 -5.6276716908093682e-032 $122 3.1415926535897931 $59 $123 forward 7 unknown #
coedge $-1 $124 $67 $60 $90 forward $98 $-1 #
edge $-1 $65 0 $94 0.94869999999999988 $60 $125 forward 7 unknown #
coedge $-1 $67 $124 $61 $92 reversed $98 $-1 #
edge $-1 $64 0 $93 0.94869999999999988 $61 $126 forward 7 unknown #
vertex $-1 $92 $127 #
vertex $-1 $90 $128 #
ellipse-curve $-1 -0.53130000000000011 0 1.3877787807814457e-017 1 0 0 0 0.39000000000000001 3.3881859991258256e-017 1 I I #
point $-1 -1.48 0.39000000000000001 4.7759647799072713e-017 #
point $-1 -1.48 -0.39000000000000001 -9.5519295598145425e-017 #
loop $-1 $-1 $67 $129 #
ellipse-curve $-1 -1.48 0 -1.3877787807814457e-017 -1 0 0 0 0.39000000000000001 6.1637435606887169e-017 1 I I #
coedge $-1 $72 $71 $130 $131 forward $73 $-1 #
face $-1 $132 $73 $3 $-1 $133 forward single #
coedge $-1 $134 $135 $75 $103 forward $136 $-1 #
edge $-1 $106 0 $104 3.1415926535897936 $102 $137 forward 7 unknown #
vertex $-1 $138 $139 #
straight-curve $-1 -1.4799999999999998 -0.495 -1.2123602902841534e-016 -0.70710678118655135 0.70710678118654358 1.7318549141438708e-016 I I #
vertex $-1 $140 $141 #
straight-curve $-1 -1.4799999999999998 0.495 6.061801451420767e-017 -0.70710678118655135 -0.70710678118654358 -8.6592745707193542e-017 I I #
cone-surface $-1 -0.97499999999999987 0 0 -1 0 0 0 -0.99999999999999989 0 1 I I -0.70710678118654746 0.70710678118654757 0.99999999999999989 forward I I I I #
face $-1 $142 $143 $3 $-1 $144 forward single #
loop $-1 $145 $146 $81 #
plane-surface $-1 0 0 0 1 0 0 0 -1 0 forward_v I I I I #
coedge $-1 $147 $148 $149 $150 forward $82 $-1 #
coedge $-1 $87 $84 $151 $152 reversed $57 $-1 #
coedge $-1 $84 $87 $153 $154 forward $57 $-1 #
coedge $-1 $148 $147 $84 $116 reversed $82 $-1 #
edge $-1 $155 -5.6276716908093714e-032 $156 3.1415926535897931 $84 $157 forward 7 unknown #
coedge $-1 $158 $159 $85 $118 forward $160 $-1 #
edge $-1 $94 0 $122 0.22061731573020277 $85 $161 forward 7 unknown #
coedge $-1 $159 $158 $86 $120 reversed $160 $-1 #
edge $-1 $93 0 $121 0.22061731573020302 $86 $162 forward 7 unknown #
vertex $-1 $120 $163 #
vertex $-1 $118 $164 #
ellipse-curve $-1 -0.37530000000000019 6.9388939039072284e-018 -1.3877787807814457e-017 1 0 0 0 0.23399999999999999 4.2533576487258084e-017 1 I I #
coedge $-1 $91 $89 $159 $165 reversed $98 $-1 #
straight-curve $-1 -1.48 -0.39000000000000001 -9.5519295598145425e-017 1 0 0 I I #
straight-curve $-1 -1.48 0.39000000000000001 4.7759647799072713e-017 1 0 0 I I #
point $-1 -0.53130000000000011 0.39000000000000001 4.7759647799072713e-017 #
point $-1 -0.53130000000000011 -0.39000000000000001 -9.5519295598145425e-017 #
face $-1 $-1 $98 $3 $-1 $166 reversed single #
coedge $-1 $167 $168 $100 $131 reversed $169 $-1 #
edge $-1 $106 0 $104 3.1415926535897931 $130 $170 forward 7 unknown #
face $-1 $171 $169 $3 $-1 $172 forward single #
cone-surface $-1 -0.97499999999999987 0 0 -1 0 0 0 -0.99999999999999989 0 1 I I -0.70710678118654746 0.70710678118654757 0.99999999999999989 forward I I I I #
coedge $-1 $173 $102 $168 $138 reversed $136 $-1 #
coedge $-1 $102 $173 $167 $140 forward $136 $-1 #
loop $-1 $-1 $102 $174 #
ellipse-curve $-1 -1.4799999999999998 4.163336342344337e-017 6.9388939039072284e-017 1 0 0 0 0.49499999999999994 -8.7709245248646134e-018 1 I I #
edge $-1 $175 0 $104 1.3299999999999996 $134 $176 forward 7 unknown #
point $-1 -1.4799999999999998 -0.495 -1.2123602902841534e-016 #
edge $-1 $177 -2.2204460492503131e-016 $106 1.3299999999999998 $135 $178 forward 7 unknown #
point $-1 -1.48 0.495 6.061801451420767e-017 #
face $-1 $179 $180 $3 $-1 $181 forward single #
loop $-1 $-1 $182 $109 #
cone-surface $-1 -0.52000000000000024 0 0 1 0 0 0 -0.99999999999999989 0 1 I I -0.70710678118654746 0.70710678118654757 0.99999999999999989 forward I I I I #
loop $-1 $-1 $149 $81 #
coedge $-1 $183 $183 $182 $184 reversed $110 $-1 #
coedge $-1 $115 $112 $185 $186 reversed $82 $-1 #
coedge $-1 $112 $115 $187 $188 forward $82 $-1 #
coedge $-1 $189 $189 $112 $150 reversed $145 $-1 #
edge $-1 $190 1.2246063538223768e-016 $191 3.1415926535897931 $112 $192 forward 7 unknown #
coedge $-1 $193 $194 $113 $152 forward $195 $-1 #
edge $-1 $122 0 $156 0.35530000000000006 $113 $196 forward 7 unknown #
coedge $-1 $194 $193 $114 $154 reversed $195 $-1 #
edge $-1 $121 3.3306690738754696e-016 $155 0.35529999999999995 $114 $197 forward 7 unknown #
vertex $-1 $154 $198 #
vertex $-1 $152 $199 #
ellipse-curve $-1 -0.020000000000000184 1.3877787807814457e-017 -2.7755575615628914e-017 1 -2.3722714201392243e-016 -5.7189344994984152e-032 5.5511151231257827e-017 0.23399999999999987 5.6411364295072529e-017 1 I I #
coedge $-1 $119 $117 $194 $200 reversed $160 $-1 #
coedge $-1 $117 $119 $124 $165 forward $160 $-1 #
loop $-1 $-1 $159 $201 #
straight-curve $-1 -0.53130000000000011 -0.39000000000000001 -9.5519295598145425e-017 0.70710678118654802 0.70710678118654702 1.7318549141438706e-016 I I #
straight-curve $-1 -0.53130000000000011 0.39000000000000001 4.7759647799072713e-017 0.70710678118654802 -0.70710678118654702 -8.6592745707193529e-017 I I #
point $-1 -0.37529999999999986 0.23399999999999999 2.8655788679443615e-017 #
point $-1 -0.37530000000000019 -0.23399999999999999 -5.7311577358887255e-017 #
edge $-1 $93 0 $94 3.1415926535897931 $124 $202 forward 7 unknown #
cone-surface $-1 -1.575 0 0 1 0 0 0 -0.39000000000000001 0 1 I I 0 1 0.39000000000000001 forward I I I I #
coedge $-1 $203 $130 $135 $140 reversed $169 $-1 #
coedge $-1 $130 $203 $134 $138 forward $169 $-1 #
loop $-1 $-1 $203 $132 #
ellipse-curve $-1 -1.4799999999999998 -4.163336342344337e-017 -5.5511151231257827e-017 -1 0 0 0 0.49500000000000005 1.161291657454655e-016 1 I I #
face $-1 $204 $205 $3 $-1 $206 forward single #
cone-surface $-1 -1.575 0 0 1 0 0 0 -0.495 0 1 I I 0 1 0.495 forward I I I I #
coedge $-1 $135 $134 $207 $208 reversed $136 $-1 #
face $-1 $78 $136 $3 $-1 $209 forward single #
vertex $-1 $210 $211 #
straight-curve $-1 -0.15000000000000013 -0.495 -1.2123602902841534e-016 -1 0 0 I I #
vertex $-1 $212 $213 #
straight-curve $-1 -0.15000000000000013 0.495 6.061801451420767e-017 -1 0 0 I I #
face $-1 $214 $215 $3 $-1 $216 forward single #
loop $-1 $-1 $217 $142 #
cone-surface $-1 -0.52000000000000024 0 0 1 0 0 0 -0.99999999999999989 0 1 I I -0.70710678118654746 0.70710678118654757 0.99999999999999989 forward I I I I #
coedge $-1 $218 $219 $146 $184 forward $143 $-1 #
coedge $-1 $146 $146 $220 $221 forward $110 $-1 #
edge $-1 $222 0 $223 3.1415926535897936 $146 $224 forward 7 unknown #
coedge $-1 $225 $226 $147 $186 forward $227 $-1 #
edge $-1 $156 0 $191 0.028284271247462089 $147 $228 forward 7 unknown #
coedge $-1 $226 $225 $148 $188 reversed $227 $-1 #
edge $-1 $155 0 $190 0.028284271247462089 $148 $229 forward 7 unknown #
coedge $-1 $149 $149 $225 $230 forward $145 $-1 #
vertex $-1 $188 $231 #
vertex $-1 $186 $232 #
ellipse-curve $-1 0 0 0 1 0 0 0 0.254 0 1 I I #
coedge $-1 $153 $151 $226 $233 reversed $195 $-1 #
coedge $-1 $151 $153 $158 $200 forward $195 $-1 #
loop $-1 $-1 $194 $234 #
straight-curve $-1 -0.37530000000000019 -0.23399999999999999 -5.7311577358887255e-017 1 0 0 I I #
straight-curve $-1 -0.37530000000000019 0.23399999999999999 2.8655788679443628e-017 1 0 0 I I #
point $-1 -0.02000000000000024 0.23399999999999999 2.8655788679443628e-017 #
point $-1 -0.020000000000000129 -0.23399999999999987 -5.731157735888723e-017 #
edge $-1 $121 4.2207537681070261e-032 $122 3.1415926535897931 $158 $235 forward 7 unknown #
face $-1 $129 $160 $3 $-1 $236 reversed single #
ellipse-curve $-1 -0.53130000000000011 0 -1.3877787807814457e-017 -1 0 0 0 0.39000000000000001 6.1637435606887169e-017 1 I I #
coedge $-1 $168 $167 $237 $238 forward $169 $-1 #
face $-1 $239 $240 $3 $-1 $241 forward single #
loop $-1 $-1 $242 $171 #
cone-surface $-1 0.35500000000001108 0 0 -1 0 0 0 -1.0000000000000222 0 1 I I -0.70710678118655534 0.70710678118653969 1.0000000000000222 forward I I I I #
coedge $-1 $243 $244 $173 $208 forward $245 $-1 #
edge $-1 $177 0 $175 3.1415926535897931 $207 $246 forward 7 unknown #
cone-surface $-1 -1.575 0 0 1 0 0 0 -0.495 0 1 I I 0 1 0.495 forward I I I I #
edge $-1 $247 0 $175 0.0070710678118656384 $243 $248 forward 7 unknown #
point $-1 -0.15000000000000013 -0.495 -1.2123602902841534e-016 #
edge $-1 $249 7.8504622934189621e-017 $177 0.0070710678118654034 $244 $250 forward 7 unknown #
point $-1 -0.14999999999999991 0.49500000000000011 6.0618014514207683e-017 #
face $-1 $174 $245 $3 $-1 $251 forward single #
loop $-1 $-1 $252 $179 #
cone-surface $-1 -1.575 0 0 1 0 0 0 -0.5 0 1 I I 0 1 0.5 forward I I I I #
coedge $-1 $253 $254 $255 $256 forward $180 $-1 #
coedge $-1 $257 $182 $253 $258 forward $143 $-1 #
coedge $-1 $182 $257 $254 $259 reversed $143 $-1 #
coedge $-1 $254 $253 $183 $221 reversed $180 $-1 #
edge $-1 $222 6.5941442678887557e-064 $223 3.1415926535897931 $183 $260 forward 7 unknown #
vertex $-1 $221 $261 #
vertex $-1 $221 $262 #
ellipse-curve $-1 0 -2.7755575615628914e-017 -1.1102230246251565e-016 -1 -2.3129646346357439e-016 -8.1822765888170467e-032 -1.1102230246251565e-016 0.47999999999999976 1.6980340744598975e-016 1 I I #
coedge $-1 $187 $185 $189 $230 reversed $227 $-1 #
coedge $-1 $185 $187 $193 $233 forward $227 $-1 #
loop $-1 $-1 $226 $239 #
straight-curve $-1 -0.020000000000000129 -0.23399999999999987 -5.731157735888723e-017 0.70710678118654746 -0.70710678118654746 -1.7318549141438622e-016 I I #
straight-curve $-1 -0.020000000000000129 0.23399999999999987 2.8655788679443615e-017 0.70710678118654746 0.70710678118654746 8.659274570719311e-017 I I #
edge $-1 $190 -1.2246063538223768e-016 $191 3.1415926535897931 $189 $263 forward 7 unknown #
point $-1 0 0.254 3.1105001387088373e-017 #
point $-1 0 -0.254 0 #
edge $-1 $155 2.2510686763237486e-031 $156 3.1415926535897936 $193 $264 forward 7 unknown #
face $-1 $201 $195 $3 $-1 $265 reversed single #
ellipse-curve $-1 -0.37530000000000019 -6.9388939039072284e-018 6.9388939039072284e-018 -1 0 0 0 0.23399999999999999 2.1716894775536399e-017 1 I I #
cone-surface $-1 -1.1412999999999998 0 0 1 0 0 0 -0.99999999999999922 0 1 I I -0.70710678118654724 0.70710678118654779 0.99999999999999922 forward I I I I #
coedge $-1 $266 $267 $203 $238 reversed $205 $-1 #
edge $-1 $177 2.5152436780080208e-032 $175 3.1415926535897931 $237 $268 forward 7 unknown #
face $-1 $234 $227 $3 $-1 $269 reversed single #
loop $-1 $-1 $270 $204 #
cone-surface $-1 -1.575 0 0 1 0 0 0 -0.5 0 1 I I 0 1 0.5 forward I I I I #
coedge $-1 $267 $266 $271 $272 forward $205 $-1 #
coedge $-1 $273 $207 $267 $210 reversed $245 $-1 #
coedge $-1 $207 $273 $266 $212 forward $245 $-1 #
loop $-1 $-1 $207 $214 #
ellipse-curve $-1 -0.15000000000000013 4.163336342344337e-017 0 1 0 0 0 0.49499999999999994 6.061801451420767e-017 1 I I #
vertex $-1 $274 $275 #
straight-curve $-1 -0.14500000000000002 -0.50000000000000011 -1.2246063538223773e-016 -0.70710678118653969 0.70710678118655534 1.7318549141438649e-016 I I #
vertex $-1 $276 $277 #
straight-curve $-1 -0.14500000000000002 0.50000000000000011 6.1230317691118863e-017 -0.70710678118653969 -0.70710678118655534 -8.6592745707193246e-017 I I #
cone-surface $-1 0.35500000000001108 0 0 -1 0 0 0 -1.0000000000000222 0 1 I I -0.70710678118655534 0.70710678118653969 1.0000000000000222 forward I I I I #
coedge $-1 $278 $279 $273 $280 forward $215 $-1 #
coedge $-1 $220 $217 $218 $258 reversed $180 $-1 #
coedge $-1 $217 $220 $219 $259 forward $180 $-1 #
coedge $-1 $279 $278 $217 $256 reversed $215 $-1 #
edge $-1 $281 -2.4651903288156619e-032 $282 3.1415926535897931 $217 $283 forward 7 unknown #
coedge $-1 $219 $218 $270 $284 reversed $143 $-1 #
edge $-1 $223 -2.0360069104887218e-032 $282 0.028284271247462002 $253 $285 forward 7 unknown #
edge $-1 $222 0 $281 0.028284271247462162 $254 $286 forward 7 unknown #
ellipse-curve $-1 0 -2.7755575615628914e-017 1.1102230246251565e-016 1 2.3129646346357439e-016 -2.5173342133342749e-032 -1.1102230246251565e-016 0.47999999999999976 -5.2241197479041574e-017 1 I I #
point $-1 -1.1102230246251565e-016 0.47999999999999976 5.878110498347408e-017 #
point $-1 -1.1102230246251565e-016 -0.47999999999999976 0 #
ellipse-curve $-1 0 0 0 -1 0 0 0 0.254 0 1 I I #
ellipse-curve $-1 -0.020000000000000129 0 -9.0205620750793969e-017 -1 0 0 0 0.23399999999999987 1.1886140943023758e-016 1 I I #
cone-surface $-1 -1.575 0 0 1 0 0 0 -0.23399999999999999 0 1 I I 0 1 0.23399999999999999 forward I I I I #
coedge $-1 $242 $237 $244 $212 reversed $205 $-1 #
coedge $-1 $237 $242 $243 $210 forward $205 $-1 #
ellipse-curve $-1 -0.15000000000000013 0 0 -1 0 0 0 0.495 6.061801451420767e-017 1 I I #
cone-surface $-1 0.746 0 0 -1 0 0 0 -0.99999999999999989 0 1 I I -0.70710678118654746 0.70710678118654757 0.99999999999999989 forward I I I I #
coedge $-1 $287 $288 $257 $284 forward $240 $-1 #
coedge $-1 $288 $287 $242 $272 reversed $240 $-1 #
edge $-1 $249 2.4651903288156613e-032 $247 3.1415926535897927 $271 $289 forward 7 unknown #
coedge $-1 $244 $243 $252 $280 reversed $245 $-1 #
edge $-1 $282 0 $247 0.125 $278 $290 forward 7 unknown #
point $-1 -0.14500000000000002 -0.50000000000000011 -1.2246063538223773e-016 #
edge $-1 $281 2.2204460492503131e-016 $249 0.125 $279 $291 forward 7 unknown #
point $-1 -0.14500000000000002 0.5 6.1230317691118863e-017 #
coedge $-1 $255 $252 $287 $274 reversed $215 $-1 #
coedge $-1 $252 $255 $288 $276 forward $215 $-1 #
edge $-1 $249 4.9303806576313227e-032 $247 3.1415926535897931 $252 $292 forward 7 unknown #
vertex $-1 $259 $293 #
vertex $-1 $258 $294 #
ellipse-curve $-1 -0.020000000000000018 1.3877787807814457e-017 1.3877787807814457e-017 1 0 0 0 0.5 4.7352529883304406e-017 1 I I #
edge $-1 $281 2.4651903288156619e-032 $282 3.1415926535897931 $257 $295 forward 7 unknown #
straight-curve $-1 -1.1102230246251565e-016 -0.47999999999999976 -1.1756220996694816e-016 -0.70710678118654557 -0.70710678118654946 -1.7318549141438662e-016 I I #
straight-curve $-1 -1.1102230246251565e-016 0.47999999999999976 5.878110498347408e-017 -0.70710678118654557 0.70710678118654946 8.6592745707193308e-017 I I #
coedge $-1 $271 $270 $278 $274 forward $240 $-1 #
coedge $-1 $270 $271 $279 $276 reversed $240 $-1 #
ellipse-curve $-1 -0.14500000000000002 0 1.1102230246251565e-016 -1 0 0 0 0.50000000000000011 -4.9791984771396791e-017 1 I I #
straight-curve $-1 -0.020000000000000018 -0.5 -1.2246063538223773e-016 -1 0 0 I I #
straight-curve $-1 -0.020000000000000018 0.5 6.1230317691118863e-017 -1 0 0 I I #
ellipse-curve $-1 -0.14500000000000002 1.3877787807814457e-017 -9.7144514654701197e-017 1 0 0 0 0.50000000000000011 1.5837483234582006e-016 1 I I #
point $-1 -0.02000000000000024 0.5 6.1230317691118851e-017 #
point $-1 -0.020000000000000018 -0.5 -1.2246063538223773e-016 #
ellipse-curve $-1 -0.020000000000000018 0 0 -1 0 0 0 0.5 6.1230317691118863e-017 1 I I #
End-of-ACIS-data 