600 0 1 0           
107 GICL Pro/E ACIS Translator - Source: f:/data5/repository/PTC/V20/prod_appl/assoc_demo/mold/zi41.prt.5 - 6 0 13 ACIS 6.0.3 NT 24 Thu Apr 04 13:16:23 2002 
1 9.9999999999999995e-007 1e-010 
body $-1 $1 $-1 $2 #
lump $-1 $-1 $3 $0 #
transform $-1 1 0 0 0 1 0 0 0 1 0 0 0 25.399999999999999 no_rotate no_reflect no_shear #
shell $-1 $-1 $-1 $4 $-1 $1 #
face $-1 $5 $6 $3 $-1 $7 forward single #
face $-1 $8 $9 $3 $-1 $10 forward single #
loop $-1 $-1 $11 $4 #
plane-surface $-1 6 0 0 1 0 0 0 -1 0 forward_v I I I I #
face $-1 $12 $13 $3 $-1 $14 reversed single #
loop $-1 $-1 $15 $5 #
cone-surface $-1 -0.29999999999999999 0 0 1 0 0 0 -0.03125 0 1 I I 0 1 0.03125 forward I I I I #
coedge $-1 $16 $16 $17 $18 forward $6 $-1 #
face $-1 $19 $20 $3 $-1 $21 forward single #
loop $-1 $-1 $22 $8 #
torus-surface $-1 0.15629999999999999 0 0 1 0 0 0.062549999999999994 0.031300000000000001 0 -1 0 forward_v I I I I #
coedge $-1 $23 $24 $25 $26 forward $9 $-1 #
coedge $-1 $11 $11 $27 $28 reversed $6 $-1 #
coedge $-1 $24 $23 $11 $18 reversed $9 $-1 #
edge $-1 $29 0 $30 3.1415926535897931 $11 $31 forward 7 unknown #
face $-1 $32 $33 $3 $-1 $34 reversed single #
loop $-1 $35 $36 $12 #
plane-surface $-1 0.125 0 0 1 0 0 0 -1 0 forward_v I I I I #
coedge $-1 $37 $38 $39 $40 forward $13 $-1 #
coedge $-1 $17 $15 $41 $42 reversed $9 $-1 #
coedge $-1 $15 $17 $43 $44 forward $9 $-1 #
coedge $-1 $38 $37 $15 $26 reversed $13 $-1 #
edge $-1 $45 0 $46 3.1415926535897931 $15 $47 forward 7 unknown #
coedge $-1 $41 $43 $16 $28 forward $48 $-1 #
edge $-1 $29 0 $30 3.1415926535897927 $16 $49 forward 7 unknown #
vertex $-1 $28 $50 #
vertex $-1 $28 $51 #
ellipse-curve $-1 6 2.6020852139652106e-018 8.6736173798840355e-019 1 0 0 0 0.031249999999999997 2.9595331177065254e-018 1 I I #
face $-1 $52 $48 $3 $-1 $53 forward single #
loop $-1 $-1 $54 $19 #
torus-surface $-1 0.15629999999999999 0 0 1 0 0 0.062549999999999994 0.031300000000000001 0 -1 0 forward_v I I I I #
loop $-1 $-1 $55 $12 #
coedge $-1 $39 $39 $56 $57 forward $20 $-1 #
coedge $-1 $25 $22 $58 $59 reversed $13 $-1 #
coedge $-1 $22 $25 $60 $61 forward $13 $-1 #
coedge $-1 $36 $36 $22 $40 reversed $20 $-1 #
edge $-1 $62 1.224606353822377e-016 $63 3.1415926535897931 $22 $64 forward 7 unknown #
coedge $-1 $65 $27 $23 $42 forward $48 $-1 #
edge $-1 $30 0 $46 5.8437000000000001 $23 $66 forward 7 unknown #
coedge $-1 $27 $65 $24 $44 reversed $48 $-1 #
edge $-1 $29 0 $45 5.8437000000000001 $24 $67 forward 7 unknown #
vertex $-1 $44 $68 #
vertex $-1 $42 $69 #
ellipse-curve $-1 0.15629999999999999 0 0 1 0 0 0 0.031249999999999993 3.8268948556949282e-018 1 I I #
loop $-1 $-1 $27 $32 #
ellipse-curve $-1 6 0 4.3368086899420177e-018 -1 0 0 0 0.03125 -5.099138342470888e-019 1 I I #
point $-1 6 0.03125 3.8268948556949289e-018 #
point $-1 6 -0.03125 -7.6537897113898579e-018 #
face $-1 $70 $71 $3 $-1 $72 forward single #
cone-surface $-1 -0.29999999999999999 0 0 1 0 0 0 -0.03125 0 1 I I 0 1 0.03125 forward I I I I #
coedge $-1 $58 $60 $65 $73 forward $33 $-1 #
coedge $-1 $74 $74 $75 $76 forward $35 $-1 #
coedge $-1 $60 $58 $36 $57 reversed $33 $-1 #
edge $-1 $62 -1.224606353822377e-016 $63 3.1415926535897931 $36 $77 forward 7 unknown #
coedge $-1 $56 $54 $37 $59 forward $33 $-1 #
edge $-1 $46 0 $63 1.5707963267948966 $37 $78 forward 7 unknown #
coedge $-1 $54 $56 $38 $61 reversed $33 $-1 #
edge $-1 $45 -1.7735192086663845e-015 $62 1.5707963267948966 $38 $79 forward 7 unknown #
vertex $-1 $61 $80 #
vertex $-1 $59 $81 #
ellipse-curve $-1 0.125 0 0 1 0 0 0 0.062549999999999994 0 1 I I #
coedge $-1 $43 $41 $54 $73 reversed $48 $-1 #
straight-curve $-1 6 -0.03125 -7.6537897113898579e-018 -1 0 0 I I #
straight-curve $-1 6 0.03125 3.8268948556949289e-018 -1 0 0 I I #
point $-1 0.15630000000000005 0.03125 3.8268948556949289e-018 #
point $-1 0.15629999999999999 -0.031249999999999993 -7.6537897113898563e-018 #
face $-1 $82 $83 $3 $-1 $84 reversed single #
loop $-1 $-1 $85 $52 #
cone-surface $-1 -0.29999999999999999 0 0 1 0 0 0 -0.125 0 1 I I 0 1 0.125 forward I I I I #
edge $-1 $45 0 $46 3.1415926535897931 $65 $86 forward 7 unknown #
coedge $-1 $55 $55 $87 $88 reversed $35 $-1 #
coedge $-1 $89 $90 $55 $76 reversed $71 $-1 #
edge $-1 $91 0 $92 3.1415926535897931 $55 $93 forward 7 unknown #
ellipse-curve $-1 0.125 0 0 -1 0 0 0 0.062549999999999994 0 1 I I #
ellipse-curve $-1 0.15629999999999999 -0.062549999999999994 -1.5319825486317928e-017 -1.3427049525575011e-031 -2.4492127076447516e-016 1 0 0.031300000000000001 7.6660357749280722e-018 1 I I #
ellipse-curve $-1 0.15629999999999999 0.062549999999999994 7.6599127431589642e-018 -6.7135247627875054e-032 1.2246063538223758e-016 -1 0 -0.031300000000000001 -3.8330178874640361e-018 1 I I #
point $-1 0.125 0.062549999999999994 7.6599127431589689e-018 #
point $-1 0.125 -0.062549999999999994 0 #
face $-1 $-1 $94 $3 $-1 $95 forward single #
loop $-1 $-1 $96 $70 #
plane-surface $-1 0 0 0 1 0 0 0 -1 0 forward_v I I I I #
coedge $-1 $90 $89 $96 $97 forward $71 $-1 #
ellipse-curve $-1 0.15629999999999999 0 0 -1 0 0 0 0.031249999999999993 3.8268948556949282e-018 1 I I #
coedge $-1 $98 $99 $74 $88 forward $94 $-1 #
edge $-1 $91 0 $92 3.1415926535897931 $74 $100 forward 7 unknown #
coedge $-1 $85 $75 $99 $101 forward $71 $-1 #
coedge $-1 $75 $85 $98 $102 reversed $71 $-1 #
vertex $-1 $88 $103 #
vertex $-1 $88 $104 #
ellipse-curve $-1 0.125 0 3.4694469519536142e-018 1 0 0 0 0.125 1.1838132470826102e-017 1 I I #
loop $-1 $-1 $87 $82 #
cone-surface $-1 -0.29999999999999999 0 0 1 0 0 0 -0.125 0 1 I I 0 1 0.125 forward I I I I #
coedge $-1 $105 $105 $85 $97 reversed $83 $-1 #
edge $-1 $106 1.2246063538223773e-016 $107 3.1415926535897931 $85 $108 forward 7 unknown #
coedge $-1 $109 $87 $90 $102 forward $94 $-1 #
coedge $-1 $87 $109 $89 $101 reversed $94 $-1 #
ellipse-curve $-1 0.125 -1.3877787807814457e-017 -6.9388939039072284e-018 -1 0 0 0 0.125 2.2246473326686944e-017 1 I I #
edge $-1 $91 0 $106 0.125 $89 $110 forward 7 unknown #
edge $-1 $92 0 $107 0.125 $90 $111 forward 7 unknown #
point $-1 0.125 0.125 1.5307579422779716e-017 #
point $-1 0.125 -0.125 -3.0615158845559431e-017 #
coedge $-1 $96 $96 $109 $112 forward $83 $-1 #
vertex $-1 $101 $113 #
vertex $-1 $102 $114 #
ellipse-curve $-1 0 0 0 1 0 0 0 0.125 0 1 I I #
coedge $-1 $99 $98 $105 $112 reversed $94 $-1 #
straight-curve $-1 0.125 0.125 1.5307579422779716e-017 -1 0 0 I I #
straight-curve $-1 0.125 -0.125 -3.0615158845559431e-017 -1 0 0 I I #
edge $-1 $106 -1.2246063538223773e-016 $107 3.1415926535897931 $105 $115 forward 7 unknown #
point $-1 0 0.125 1.5307579422779716e-017 #
point $-1 0 -0.125 0 #
ellipse-curve $-1 0 0 0 -1 0 0 0 0.125 0 1 I I #
End-of-ACIS-data 