600 0 1 0           
109 GICL Pro/E ACIS Translator - Source: f:/data5/repository/PTC/V20/prod_appl/assoc_demo/mold/zi512.prt.12 - 6 0 13 ACIS 6.0.3 NT 24 Thu Apr 04 13:16:24 2002 
1 9.9999999999999995e-007 1e-010 
body $-1 $1 $-1 $2 #
lump $-1 $-1 $3 $0 #
transform $-1 1 0 0 0 1 0 0 0 1 0 0 0 25.399999999999999 no_rotate no_reflect no_shear #
shell $-1 $-1 $-1 $4 $-1 $1 #
face $-1 $5 $6 $3 $-1 $7 reversed single #
face $-1 $8 $9 $3 $-1 $10 forward single #
loop $-1 $-1 $11 $4 #
torus-surface $-1 -0.1875 0 0 1 0 0 0.6875 0.1875 0 -1 0 forward_v I I I I #
face $-1 $12 $13 $3 $-1 $14 reversed single #
loop $-1 $-1 $15 $5 #
cone-surface $-1 -1.4874999999999998 0 0 1 0 0 0 -0.5 0 1 I I 0 1 0.5 forward I I I I #
coedge $-1 $16 $17 $18 $19 forward $6 $-1 #
face $-1 $20 $21 $3 $-1 $22 reversed single #
loop $-1 $23 $24 $8 #
plane-surface $-1 -1.375 0 0 1 0 0 0 -1 0 forward_v I I I I #
coedge $-1 $25 $26 $27 $28 forward $9 $-1 #
coedge $-1 $29 $11 $30 $31 reversed $6 $-1 #
coedge $-1 $11 $29 $32 $33 forward $6 $-1 #
coedge $-1 $26 $25 $11 $19 reversed $9 $-1 #
edge $-1 $34 0 $35 3.1415926535897931 $11 $36 forward 7 unknown #
face $-1 $37 $38 $3 $-1 $39 reversed single #
loop $-1 $-1 $40 $12 #
cone-surface $-1 3.6871918253691138 0 0 1 0 0 0 -0.020500017727317056 0 1 I I -0.020495711510862612 0.99978994084240691 0.020500017727317056 forward I I I I #
loop $-1 $-1 $27 $8 #
coedge $-1 $41 $41 $42 $43 reversed $13 $-1 #
coedge $-1 $18 $15 $44 $45 reversed $9 $-1 #
coedge $-1 $15 $18 $46 $47 forward $9 $-1 #
coedge $-1 $48 $48 $15 $28 reversed $23 $-1 #
edge $-1 $49 1.2246063538223773e-016 $50 3.1415926535897931 $15 $51 forward 7 unknown #
coedge $-1 $17 $16 $52 $53 reversed $6 $-1 #
coedge $-1 $54 $55 $16 $31 forward $56 $-1 #
edge $-1 $57 2.1995023920058033e-031 $35 1.5707963267948963 $16 $58 forward 7 unknown #
coedge $-1 $55 $54 $17 $33 reversed $56 $-1 #
edge $-1 $59 0 $34 1.5707963267948966 $17 $60 forward 7 unknown #
vertex $-1 $33 $61 #
vertex $-1 $31 $62 #
ellipse-curve $-1 -0.1875 0 0 1 0 0 0 0.5 6.1230317691118863e-017 1 I I #
face $-1 $63 $64 $3 $-1 $65 reversed single #
loop $-1 $-1 $66 $20 #
cone-surface $-1 3.6871918253691138 0 0 1 0 0 0 -0.020500017727317056 0 1 I I -0.020495711510862612 0.99978994084240691 0.020500017727317056 forward I I I I #
coedge $-1 $42 $67 $68 $69 reversed $21 $-1 #
coedge $-1 $24 $24 $70 $71 forward $13 $-1 #
coedge $-1 $72 $40 $24 $43 forward $21 $-1 #
edge $-1 $73 1.2591662265297415e-060 $74 3.1415926535897931 $24 $75 forward 7 unknown #
coedge $-1 $76 $77 $25 $45 forward $78 $-1 #
edge $-1 $35 0 $50 1.1875 $25 $79 forward 7 unknown #
coedge $-1 $77 $76 $26 $47 reversed $78 $-1 #
edge $-1 $34 2.7755575615628914e-017 $49 1.1874999999999998 $26 $80 forward 7 unknown #
coedge $-1 $27 $27 $76 $81 forward $23 $-1 #
vertex $-1 $47 $82 #
vertex $-1 $45 $83 #
ellipse-curve $-1 -1.375 1.3877787807814457e-017 1.3877787807814457e-017 1 0 0 0 0.5 -1.3877787807814457e-017 1 I I #
coedge $-1 $84 $84 $29 $53 forward $85 $-1 #
edge $-1 $59 0 $57 3.1415926535897931 $29 $86 forward 7 unknown #
coedge $-1 $32 $30 $77 $87 reversed $56 $-1 #
coedge $-1 $30 $32 $84 $88 forward $56 $-1 #
loop $-1 $-1 $55 $89 #
vertex $-1 $53 $90 #
ellipse-curve $-1 -0.18750000000000006 -0.6875 -1.6838337365057692e-016 -2.6295363507367054e-031 -2.449212707644757e-016 1 0.18750000000000006 0 4.9303806576313238e-032 1 I I #
vertex $-1 $33 $91 #
ellipse-curve $-1 -0.18750000000000006 0.6875 8.4191686825288461e-017 -1.3147681753683527e-031 1.2246063538223785e-016 -1 0.18750000000000006 0 -2.4651903288156619e-032 1 I I #
point $-1 -0.18750000000000003 0.5 6.1230317691118863e-017 #
point $-1 -0.1875 -0.5 -1.2246063538223773e-016 #
face $-1 $92 $93 $3 $-1 $94 reversed single #
loop $-1 $-1 $95 $37 #
sphere-surface $-1 1.1879999999999979 0 0 0.5 1 0 0 0 0 1 forward_v I I I I #
coedge $-1 $70 $96 $72 $97 reversed $38 $-1 #
coedge $-1 $40 $72 $98 $99 forward $21 $-1 #
coedge $-1 $96 $70 $40 $69 forward $38 $-1 #
edge $-1 $73 0 $100 2.0701789880302495 $68 $101 forward 7 unknown #
coedge $-1 $68 $66 $41 $71 reversed $38 $-1 #
edge $-1 $73 -1.2591662265297415e-060 $74 3.1415926535897931 $41 $102 forward 7 unknown #
coedge $-1 $67 $42 $66 $97 forward $21 $-1 #
vertex $-1 $71 $103 #
vertex $-1 $71 $104 #
ellipse-curve $-1 -1.375 0 -3.4694469519536142e-018 -1 7.1468769634800161e-015 1.0747339468023832e-030 8.8817841970012523e-016 0.12427503988646338 1.8688247298602855e-017 1 I I #
coedge $-1 $46 $44 $48 $81 reversed $78 $-1 #
coedge $-1 $44 $46 $54 $87 forward $78 $-1 #
loop $-1 $-1 $77 $105 #
straight-curve $-1 -0.1875 -0.5 -1.2246063538223773e-016 -1 0 0 I I #
straight-curve $-1 -0.1875 0.5 6.1230317691118863e-017 -1 0 0 I I #
edge $-1 $49 -1.2246063538223773e-016 $50 3.1415926535897931 $48 $106 forward 7 unknown #
point $-1 -1.3749999999999998 0.5 6.1230317691118863e-017 #
point $-1 -1.375 -0.5 0 #
coedge $-1 $52 $52 $55 $88 reversed $85 $-1 #
loop $-1 $107 $84 $108 #
ellipse-curve $-1 0 -2.7755575615628914e-017 5.5511151231257827e-017 1 0 0 0 0.6875 2.8680535594030609e-017 1 I I #
edge $-1 $34 0 $35 3.1415926535897931 $54 $109 forward 7 unknown #
edge $-1 $59 0 $57 3.1415926535897931 $84 $110 forward 7 unknown #
face $-1 $105 $56 $3 $-1 $111 reversed single #
point $-1 0 -0.6875 0 #
point $-1 0 0.6875 8.4191686825288437e-017 #
face $-1 $112 $113 $3 $-1 $114 forward single #
loop $-1 $-1 $115 $63 #
sphere-surface $-1 1.1879999999999979 0 0 0.5 1 0 0 0 0 1 forward_v I I I I #
coedge $-1 $116 $117 $115 $118 reversed $64 $-1 #
coedge $-1 $66 $68 $117 $119 forward $38 $-1 #
edge $-1 $74 1.527917548401445e-034 $120 2.0701789880302495 $66 $121 forward 7 unknown #
coedge $-1 $122 $115 $67 $99 reversed $93 $-1 #
edge $-1 $120 -2.4492127076447634e-016 $100 3.1415926535897918 $67 $123 forward 7 unknown #
vertex $-1 $119 $124 #
straight-curve $-1 -1.3749999999999991 0.12427503988646338 1.5218800346649241e-017 0.99978994084240691 -0.020495711510862623 1.5047303998783823e-017 I I #
ellipse-curve $-1 -1.375 3.4694469519536142e-018 -1.0408340855860843e-017 1 -7.1468769634800161e-015 -1.4737796525142685e-030 8.8817841970012523e-016 0.12427503988646338 2.5627141202510084e-017 1 I I #
point $-1 -1.3749999999999991 0.12427503988646338 1.5218800346649241e-017 #
point $-1 -1.3749999999999991 -0.12427503988646338 0 #
face $-1 $125 $78 $3 $-1 $126 forward single #
ellipse-curve $-1 -1.375 1.3877787807814457e-017 -1.3877787807814457e-017 -1 0 0 0 0.5 1.3877787807814457e-017 1 I I #
loop $-1 $-1 $127 $108 #
face $-1 $89 $85 $3 $-1 $128 reversed single #
ellipse-curve $-1 -0.1875 0 0 -1 0 0 0 0.5 6.1230317691118863e-017 1 I I #
ellipse-curve $-1 0 0 2.7755575615628914e-017 -1 0 0 0 0.6875 5.6436111209659523e-017 1 I I #
torus-surface $-1 -0.1875 0 0 1 0 0 0.6875 0.1875 0 -1 0 forward_v I I I I #
face $-1 $129 $130 $3 $-1 $131 forward single #
loop $-1 $132 $133 $92 #
plane-surface $-1 0.875 0 0 1 0 0 0 -1 0 forward_v I I I I #
coedge $-1 $98 $134 $95 $118 forward $93 $-1 #
coedge $-1 $135 $95 $136 $137 reversed $64 $-1 #
coedge $-1 $95 $135 $96 $119 reversed $64 $-1 #
edge $-1 $138 -1.6653345369377351e-016 $100 0.72995265322726133 $115 $139 forward 7 unknown #
edge $-1 $100 0 $120 3.1415926535897918 $96 $140 forward 7 unknown #
vertex $-1 $119 $141 #
straight-curve $-1 -1.3749999999999991 -0.12427503988646338 -3.0437600693298482e-017 0.99978994084240691 0.020495711510862623 5.0198357084625598e-018 I I #
coedge $-1 $134 $98 $135 $142 reversed $93 $-1 #
ellipse-curve $-1 0.69474412797595764 5.5511151231257827e-017 6.2450045135165055e-017 1 0 0 0 -0.081845248571945903 -7.2472866278302726e-017 1 I I #
point $-1 0.69474412797595764 0.081845248571945847 0 #
face $-1 $143 $144 $3 $-1 $145 forward single #
cone-surface $-1 -1.4874999999999998 0 0 1 0 0 0 -0.5 0 1 I I 0 1 0.5 forward I I I I #
coedge $-1 $146 $146 $147 $148 reversed $107 $-1 #
plane-surface $-1 0 0 0 1 0 0 0 -1 0 forward_v I I I I #
face $-1 $149 $150 $3 $-1 $151 forward single #
loop $-1 $-1 $152 $112 #
cone-surface $-1 -1.4874999999999998 0 0 1 0 0 0 -1 0 1 I I 0 1 1 forward I I I I #
loop $-1 $-1 $136 $92 #
coedge $-1 $153 $153 $152 $154 reversed $113 $-1 #
coedge $-1 $115 $122 $155 $156 reversed $93 $-1 #
coedge $-1 $117 $116 $122 $142 forward $64 $-1 #
coedge $-1 $155 $155 $116 $137 forward $132 $-1 #
edge $-1 $157 0 $138 3.1415926535897931 $136 $158 forward 7 unknown #
vertex $-1 $156 $159 #
ellipse-curve $-1 1.1879999999999979 0 0 0 0 1 -0.31299999999999806 0.38991152842664351 0 1 I I #
ellipse-curve $-1 0.69474412797595764 -4.8572257327350599e-017 -5.2041704279304213e-017 1 0 0 0 0.081845248571945889 5.2041704279304213e-017 1 I I #
point $-1 0.69474412797595764 -0.081845248571945958 1.0022821143137687e-017 #
edge $-1 $157 -3.8857805861880484e-016 $120 0.72995265322726088 $122 $160 forward 7 unknown #
face $-1 $161 $162 $3 $-1 $163 reversed single #
loop $-1 $-1 $164 $125 #
cone-surface $-1 0.050000000000000044 0 0 -1 0 0 0 -0.99999999999999989 0 1 I I -0.70710678118654746 0.70710678118654757 0.99999999999999989 forward I I I I #
coedge $-1 $127 $127 $165 $166 forward $107 $-1 #
coedge $-1 $167 $168 $127 $148 forward $169 $-1 #
edge $-1 $170 1.224606353822377e-016 $171 3.1415926535897931 $147 $172 forward 7 unknown #
face $-1 $108 $169 $3 $-1 $173 forward single #
loop $-1 $174 $175 $129 #
cone-surface $-1 -1.4874999999999998 0 0 1 0 0 0 -1 0 1 I I 0 1 1 forward I I I I #
coedge $-1 $176 $177 $133 $154 forward $130 $-1 #
coedge $-1 $133 $133 $178 $179 forward $113 $-1 #
edge $-1 $180 0 $181 3.1415926535897931 $133 $182 forward 7 unknown #
coedge $-1 $136 $136 $134 $156 forward $132 $-1 #
edge $-1 $138 0 $157 3.1415926535897931 $155 $183 forward 7 unknown #
vertex $-1 $156 $184 #
ellipse-curve $-1 0.875 1.3877787807814457e-017 -5.5511151231257827e-017 -1 0 0 0 -0.38991152842664351 5.5511151231257827e-017 1 I I #
point $-1 0.875 0.38991152842664351 0 #
ellipse-curve $-1 1.1879999999999979 0 0 4.9303806576313227e-032 -1.2246063538223775e-016 -1 -0.31299999999999817 -0.38991152842664345 4.7748813513986207e-017 1 I I #
face $-1 $185 $186 $3 $-1 $187 reversed single #
loop $-1 $-1 $188 $143 #
cone-surface $-1 0.52000000000000002 0 0.67851050872696916 0 0 1 -0.093500000000000028 0 0 1 I I 0 1 0.093500000000000028 forward I I I I #
coedge $-1 $189 $190 $191 $192 forward $144 $-1 #
coedge $-1 $190 $189 $146 $166 reversed $144 $-1 #
edge $-1 $170 -1.224606353822377e-016 $171 3.1415926535897931 $146 $193 forward 7 unknown #
coedge $-1 $194 $147 $189 $195 reversed $169 $-1 #
coedge $-1 $147 $194 $190 $196 forward $169 $-1 #
loop $-1 $-1 $147 $149 #
vertex $-1 $196 $197 #
vertex $-1 $195 $198 #
ellipse-curve $-1 0 0 0 1 0 0 0 0.94999999999999996 0 1 I I #
cone-surface $-1 0.050000000000000044 0 0 -1 0 0 0 -0.99999999999999989 0 1 I I -0.70710678118654746 0.70710678118654757 0.99999999999999989 forward I I I I #
loop $-1 $-1 $199 $129 #
coedge $-1 $200 $201 $194 $202 forward $150 $-1 #
coedge $-1 $191 $152 $200 $203 forward $130 $-1 #
coedge $-1 $152 $191 $201 $204 reversed $130 $-1 #
coedge $-1 $201 $200 $153 $179 reversed $150 $-1 #
edge $-1 $180 0 $181 3.1415926535897931 $153 $205 forward 7 unknown #
vertex $-1 $179 $206 #
vertex $-1 $179 $207 #
ellipse-curve $-1 0.875 -5.5511151231257827e-017 1.6653345369377348e-016 -1 0 0 0 1 -4.4072818311535755e-017 1 I I #
ellipse-curve $-1 0.875 -1.3877787807814457e-017 5.5511151231257827e-017 -1 0 0 0 0.38991152842664351 -5.5511151231257827e-017 1 I I #
point $-1 0.875 -0.38991152842664351 0 #
face $-1 $208 $209 $3 $-1 $210 reversed single #
loop $-1 $-1 $211 $161 #
cone-surface $-1 0.52000000000000002 0 0.67851050872696916 0 0 1 -0.093500000000000028 0 0 1 I I 0 1 0.093500000000000028 forward I I I I #
coedge $-1 $212 $213 $214 $215 reversed $162 $-1 #
coedge $-1 $165 $164 $167 $195 forward $144 $-1 #
coedge $-1 $164 $165 $168 $196 reversed $144 $-1 #
coedge $-1 $177 $176 $164 $192 reversed $130 $-1 #
edge $-1 $216 0 $217 3.1415926535897931 $191 $218 forward 7 unknown #
ellipse-curve $-1 0 0 0 -1 0 0 0 0.94999999999999996 0 1 I I #
coedge $-1 $168 $167 $175 $202 reversed $169 $-1 #
edge $-1 $217 8.0591940206845382e-031 $171 0.070710678118654766 $167 $219 forward 7 unknown #
edge $-1 $216 -7.8504622934188758e-017 $170 0.070710678118654849 $168 $220 forward 7 unknown #
point $-1 -2.0816681711721685e-017 0.94999999999999984 1.163376036131258e-016 #
point $-1 0 -0.94999999999999996 0 #
coedge $-1 $221 $221 $213 $222 forward $174 $-1 #
coedge $-1 $178 $175 $176 $203 reversed $150 $-1 #
coedge $-1 $175 $178 $177 $204 forward $150 $-1 #
edge $-1 $216 0 $217 3.1415926535897931 $175 $223 forward 7 unknown #
edge $-1 $181 0 $217 0.82499999999999996 $200 $224 forward 7 unknown #
edge $-1 $180 0 $216 0.82499999999999996 $201 $225 forward 7 unknown #
ellipse-curve $-1 0.875 -2.7755575615628914e-017 -2.7755575615628914e-017 1 0 0 0 1 1.5021621099786664e-016 1 I I #
point $-1 0.875 1 1.2246063538223773e-016 #
point $-1 0.875 -1 0 #
face $-1 $-1 $226 $3 $-1 $227 reversed single #
loop $-1 $-1 $228 $185 #
cone-surface $-1 0.52000000000000002 0 1.6938195321209231 0 0 -1 -1.6642794823505171 0 0 1 I I -0.85716730070211222 0.51503807491005438 1.6642794823505171 forward I I I I #
coedge $-1 $229 $230 $231 $232 reversed $186 $-1 #
coedge $-1 $231 $188 $233 $234 forward $162 $-1 #
coedge $-1 $188 $231 $199 $222 reversed $162 $-1 #
coedge $-1 $230 $229 $188 $215 forward $186 $-1 #
edge $-1 $235 1.1102230246251565e-016 $236 0.25 $214 $237 forward 7 unknown #
vertex $-1 $204 $238 #
vertex $-1 $203 $239 #
ellipse-curve $-1 0.050000000000000044 0 0 -1 0 0 0 0.99999999999999989 1.224606353822377e-016 1 I I #
straight-curve $-1 0.050000000000000044 -0.99999999999999989 0 -0.70710678118654757 0.70710678118654735 -3.2905243368733499e-015 I I #
straight-curve $-1 0.050000000000000044 0.99999999999999989 1.224606353822377e-016 -0.70710678118654757 -0.70710678118654735 -8.6592745707193665e-017 I I #
coedge $-1 $199 $199 $230 $240 forward $174 $-1 #
edge $-1 $236 0 $241 1 $199 $242 forward 7 unknown #
ellipse-curve $-1 0.050000000000000044 0 0 1 0 0 0 0.99999999999999989 1.224606353822377e-016 1 I I #
straight-curve $-1 0.875 -1 -2.4492127076447545e-016 -1 0 0 I I #
straight-curve $-1 0.875 1 1.2246063538223773e-016 -1 0 0 I I #
loop $-1 $-1 $243 $208 #
cone-surface $-1 0.52000000000000002 0 1.6938195321209231 0 0 -1 -1.6642794823505171 0 0 1 I I -0.85716730070211222 0.51503807491005438 1.6642794823505171 forward I I I I #
coedge $-1 $244 $245 $229 $246 forward $209 $-1 #
coedge $-1 $214 $211 $228 $246 reversed $186 $-1 #
coedge $-1 $211 $214 $221 $240 reversed $186 $-1 #
coedge $-1 $213 $212 $211 $232 forward $162 $-1 #
edge $-1 $247 0 $241 0.25 $211 $248 forward 7 unknown #
coedge $-1 $249 $243 $212 $234 reversed $226 $-1 #
edge $-1 $235 8.8120561383498871e-032 $247 3.1415926535897931 $233 $250 forward 7 unknown #
vertex $-1 $251 $252 #
vertex $-1 $240 $253 #
straight-curve $-1 0.42649999999999999 0 0.75 0 0 1 I I #
point $-1 0.050000000000000044 1 1.2246063538223773e-016 #
point $-1 0.050000000000000044 -0.99999999999999989 -2.449212707644754e-016 #
edge $-1 $241 0 $236 1 $221 $254 forward 7 unknown #
vertex $-1 $240 $255 #
intcurve-curve $-1 forward { surfintcur full nurbs 3 open 14 
	0 3 0.076893488044910197 1 0.15388290758475678 1 0.23078636088437979 1 0.30764164697925533 1 
	0.3846314599439925 1 0.46158257994528007 1 0.5384117038593923 1 0.61537409071362548 1 0.69236224128876789 1 
	0.76920793178040925 1 0.8461237801425715 1 0.92311940355009126 1 1 3 
	0.42650000000000032 -6.1230317691118863e-017 1 1 
	0.42649807735272077 0.007583352771122891 0.99999296835062734 0.99999999999999989 
	0.42826055032255378 0.022328541571227292 0.99983611979529363 1.0000000000000002 
	0.4364951447619651 0.044132906891429 0.99909528723797858 0.99999999999999989 
	0.4494498047072667 0.062674191062076681 0.99808012760625298 1 
	0.46606874623404743 0.077491525581779089 0.9970210060287481 1.0000000000000002 
	0.48658432227134929 0.088356985301634827 0.99609975421492625 1 
	0.50893492848293387 0.093732026014423445 0.9955977295098688 0.99999999999999978 
	0.53103160641280811 0.093740218384958149 0.99559694238331975 1.0000000000000002 
	0.55344965208664409 0.088348601944693433 0.99610060586283411 0.99999999999999978 
	0.57394951231343716 0.07747142706380078 0.99702237834346397 1 
	0.59051838585734562 0.062710288805805967 0.99807783237282 1 
	0.6035289267562286 0.044104235605035395 0.99909714861122689 1 
	0.6117508696849111 0.02226420218389669 0.99983724269818608 1.0000000000000002 
	0.61350778010535001 0.0075537971685503587 0.99999351974071615 0.99999999999999989 
	0.61350000000000016 -6.1230317691118863e-017 1 1 
	0.001 
	cone 0.52000000000000002 0 0.67851050872696916 0 0 1 -0.093500000000000028 0 0 1 I I 0 1 0.093500000000000028 forward I I I I 
	cone -1.4874999999999998 0 0 1 0 0 0 -1 0 1 I I 0 1 1 forward I I I I 
	nullbs 
	nullbs 
	I I 
	0 
	0 
	0 
	} I I #
coedge $-1 $233 $249 $244 $256 forward $226 $-1 #
coedge $-1 $245 $228 $243 $256 reversed $209 $-1 #
coedge $-1 $228 $244 $249 $251 forward $209 $-1 #
edge $-1 $235 8.8120561383498871e-032 $247 3.1415926535897931 $228 $257 forward 7 unknown #
vertex $-1 $256 $258 #
straight-curve $-1 0.61350000000000005 1.145006940823923e-017 0.75 0 0 1 I I #
coedge $-1 $243 $233 $245 $251 reversed $226 $-1 #
ellipse-curve $-1 0.52000000000000002 6.9388939039072284e-018 0.75 0 0 -1 -0.093500000000000028 -6.9388939039072284e-018 0 1 I I #
edge $-1 $259 0 $235 0.10908022263963353 $245 $260 forward 7 unknown #
point $-1 0.42649999999999988 0 0.75000000000000011 #
point $-1 0.42650000000000032 -6.1230317691118863e-017 1 #
intcurve-curve $-1 forward { surfintcur full nurbs 3 open 14 
	0 3 0.076893488044910197 1 0.15388290758475678 1 0.23078636088437968 1 0.30764164697925533 1 
	0.38463145994399239 1 0.46158257994527996 1 0.5384117038593923 1 0.6153740907136257 1 0.69236224128876789 1 
	0.76920793178040936 1 0.84612378014257139 1 0.92311940355009126 1 1 3 
	0.61350000000000016 -6.1230317691118863e-017 1 1 
	0.61350192264727976 -0.0075833527711230142 0.99999296835062734 0.99999999999999989 
	0.6117394496774462 -0.02232854157122734 0.99983611979529363 1.0000000000000002 
	0.60350485523803532 -0.04413290689142934 0.99909528723797825 1 
	0.59055019529273456 -0.06267419106207596 0.9980801276062532 1 
	0.57393125376595255 -0.077491525581779838 0.9970210060287481 1 
	0.55341567772865219 -0.088356985301634564 0.99609975421492636 1 
	0.53106507151706694 -0.093732026014423292 0.99559772950986858 1 
	0.50896839358719226 -0.093740218384958357 0.99559694238331997 1 
	0.48655034791335611 -0.088348601944693503 0.99610060586283411 1 
	0.46605048768656376 -0.077471427063801099 0.99702237834346397 0.99999999999999956 
	0.44948161414265408 -0.062710288805805287 0.99807783237282011 1.0000000000000002 
	0.43647107324377216 -0.044104235605036034 0.99909714861122678 1 
	0.42824913031508899 -0.022264202183896693 0.99983724269818619 1 
	0.42649221989465036 -0.0075537971685504541 0.99999351974071615 1 
	0.42650000000000032 -6.1230317691118863e-017 1 1 
	0.001 
	cone 0.52000000000000002 0 0.67851050872696916 0 0 1 -0.093500000000000028 0 0 1 I I 0 1 0.093500000000000028 forward I I I I 
	cone -1.4874999999999998 0 0 1 0 0 0 -1 0 1 I I 0 1 1 forward I I I I 
	nullbs 
	nullbs 
	I I 
	0 
	0 
	0 
	} I I #
point $-1 0.61350000000000016 -6.1230317691118863e-017 1 #
edge $-1 $259 3.6187151343618356e-016 $247 0.10908022263963374 $244 $261 forward 7 unknown #
ellipse-curve $-1 0.52000000000000002 -6.9388939039072284e-018 0.75 0 0 1 -0.093500000000000028 6.9388939039072284e-018 0 1 I I #
point $-1 0.61350000000000005 1.145006940823923e-017 0.75 #
vertex $-1 $251 $262 #
straight-curve $-1 0.52000000000000002 0 0.69381953212092318 -0.85716730070211244 0 0.51503807491005382 I I #
straight-curve $-1 0.5199999999999998 -2.4651903288156619e-032 0.69381953212092284 0.857167300702112 1.0496925227285833e-016 0.5150380749100546 I I #
point $-1 0.52000000000000002 0 0.69381953212092318 #
End-of-ACIS-data 