600 0 1 0           
116 GICL Pro/E ACIS Translator - Source: f:/data5/repository/PTC/V20/prod_appl/assoc_demo/mold/zi512_032_new.prt.4 - 6 0 13 ACIS 6.0.3 NT 24 Thu Apr 04 13:16:30 2002 
1 9.9999999999999995e-007 1e-010 
body $-1 $1 $-1 $2 #
lump $-1 $-1 $3 $0 #
transform $-1 1 0 0 0 1 0 0 0 1 0 0 0 25.399999999999999 no_rotate no_reflect no_shear #
shell $-1 $-1 $-1 $4 $-1 $1 #
face $-1 $5 $6 $3 $-1 $7 reversed single #
face $-1 $8 $9 $3 $-1 $10 forward single #
loop $-1 $-1 $11 $4 #
torus-surface $-1 -0.1875 0 0 1 0 0 0.6875 0.1875 0 -1 0 forward_v I I I I #
face $-1 $12 $13 $3 $-1 $14 forward single #
loop $-1 $-1 $15 $5 #
cone-surface $-1 -5.1624999999999996 0 0 1 0 0 0 -0.5 0 1 I I 0 1 0.5 forward I I I I #
coedge $-1 $16 $17 $18 $19 forward $6 $-1 #
face $-1 $20 $21 $3 $-1 $22 forward single #
loop $-1 $-1 $23 $8 #
cone-surface $-1 -3.0631648106064024 3.9370078740157481 0.55118110236220463 0 1 0 0.49212598425196852 0 0 1 I I 0 1 0.49212598425196852 forward I I I I #
coedge $-1 $24 $25 $26 $27 forward $9 $-1 #
coedge $-1 $28 $11 $29 $30 reversed $6 $-1 #
coedge $-1 $11 $28 $31 $32 forward $6 $-1 #
coedge $-1 $33 $34 $11 $19 reversed $9 $-1 #
edge $-1 $35 0 $36 3.1415926535897931 $11 $37 forward 7 unknown #
face $-1 $38 $39 $3 $-1 $40 forward single #
loop $-1 $-1 $41 $12 #
plane-surface $-1 -3.3584404011575835 3.9370078740157481 -0.15748031496062964 -1 0 0 0 0 1 forward_v I I I I #
coedge $-1 $42 $26 $43 $44 forward $13 $-1 #
coedge $-1 $34 $15 $45 $46 forward $9 $-1 #
coedge $-1 $15 $33 $47 $48 forward $9 $-1 #
coedge $-1 $23 $49 $15 $27 reversed $13 $-1 #
edge $-1 $50 0 $51 1 $15 $52 forward 7 unknown #
coedge $-1 $17 $16 $53 $54 reversed $6 $-1 #
coedge $-1 $55 $56 $16 $30 forward $57 $-1 #
edge $-1 $58 1.7530242338244721e-031 $36 1.5707963267948977 $16 $59 forward 7 unknown #
coedge $-1 $56 $55 $17 $32 reversed $57 $-1 #
edge $-1 $60 0 $35 1.5707963267948979 $17 $61 forward 7 unknown #
coedge $-1 $25 $18 $62 $63 forward $9 $-1 #
coedge $-1 $18 $24 $64 $65 reversed $9 $-1 #
vertex $-1 $32 $66 #
vertex $-1 $30 $67 #
ellipse-curve $-1 -0.1875 0 0 1 0 0 0 0.5 6.1230317691118863e-017 1 I I #
face $-1 $68 $69 $3 $-1 $70 forward single #
loop $-1 $-1 $71 $20 #
cone-surface $-1 -5.1624999999999996 0 0 1 0 0 0 -0.5 0 1 I I 0 1 0.5 forward I I I I #
coedge $-1 $72 $47 $73 $74 reversed $21 $-1 #
coedge $-1 $49 $23 $75 $76 reversed $13 $-1 #
coedge $-1 $47 $77 $23 $44 reversed $21 $-1 #
edge $-1 $50 0 $78 0.31066614006322935 $43 $79 forward 7 unknown #
coedge $-1 $80 $81 $24 $46 reversed $82 $-1 #
edge $-1 $51 0 $83 0.32041517248473267 $24 $84 forward 7 unknown #
coedge $-1 $41 $43 $25 $48 reversed $21 $-1 #
edge $-1 $85 0 $50 0.32041517248471113 $25 $86 forward 7 unknown #
coedge $-1 $26 $42 $80 $87 forward $13 $-1 #
vertex $-1 $48 $88 #
vertex $-1 $46 $89 #
intcurve-curve $-1 forward { surfintcur full nurbs 3 open 16 
	0 3 0.066650597422880015 1 0.13317319794357649 1 0.19959248344446257 1 0.26602254016272925 1 
	0.33267546191334108 1 0.39955989965590388 1 0.46653045201167709 1 0.53346110761650689 1 0.60043218409198695 1 
	0.6673169241006417 1 0.73397030114446937 1 0.80040114978778776 1 0.86682264572843404 1 0.93334749821240937 1 
	1 3 
	-3.3584404011575835 0.47455236844831028 0.15748031496062984 1 
	-3.3825586956405664 0.46878116082907351 0.17612646576816202 1 
	-3.4256798484092563 0.45312534098729201 0.21455966032633186 1 
	-3.4751993946955539 0.41759090136556454 0.2786053466767493 0.99999999999999978 
	-3.5093835306317995 0.36921893243642601 0.34026416301796147 0.99999999999999989 
	-3.5313443601805243 0.30899152425585602 0.39619419997291083 0.99999999999999989 
	-3.5444637675592761 0.23363555212590331 0.44533625610417282 1.0000000000000002 
	-3.5506558278655187 0.14468988928912474 0.48194771039683937 0.99999999999999989 
	-3.5527158043346008 0.048166811540268008 0.50080928740637964 1 
	-3.5527175292770079 -0.047979937873584358 0.50082805626754012 1.0000000000000004 
	-3.5506622809001729 -0.1445253970343133 0.48199772445587541 0.99999999999999989 
	-3.544480299396163 -0.23348703368585075 0.44541471102742697 1 
	-3.5313749022822494 -0.30887048752368451 0.3962893047143467 0.99999999999999978 
	-3.5094328946161624 -0.36912622843102577 0.34036774764195399 1 
	-3.4752459496043788 -0.41755066561092996 0.27867164449101661 1 
	-3.4257080997495293 -0.4531139831838768 0.21458663772268796 0.99999999999999978 
	-3.3825692518068609 -0.46877934722664349 0.17613466676364281 0.99999999999999989 
	-3.3584404011575835 -0.47455236844831034 0.15748031496062959 1 
	0.001 
	cone -5.1624999999999996 0 0 1 0 0 0 -0.5 0 1 I I 0 1 0.5 forward I I I I 
	cone -3.0631648106064024 3.9370078740157481 0.55118110236220463 0 1 0 0.49212598425196852 0 0 1 I I 0 1 0.49212598425196852 forward I I I I 
	nullbs 
	nullbs 
	I I 
	0 
	0 
	0 
	} I I #
coedge $-1 $90 $90 $28 $54 forward $91 $-1 #
edge $-1 $60 0 $58 3.1415926535897931 $28 $92 forward 7 unknown #
coedge $-1 $31 $29 $93 $94 reversed $57 $-1 #
coedge $-1 $29 $31 $90 $95 forward $57 $-1 #
loop $-1 $-1 $56 $96 #
vertex $-1 $54 $97 #
ellipse-curve $-1 -0.18749999999999992 -0.68749999999999989 -1.683833736505768e-016 2.4940792779814722e-031 -2.449212707644753e-016 1 0.18749999999999992 -1.1102230246251565e-016 -7.3955709864469857e-032 1 I I #
vertex $-1 $32 $98 #
ellipse-curve $-1 -0.18749999999999992 0.68749999999999989 8.41916868252884e-017 1.2470396389907361e-031 1.2246063538223765e-016 -1 0.18749999999999992 1.1102230246251565e-016 3.6977854932234928e-032 1 I I #
coedge $-1 $93 $73 $33 $63 reversed $39 $-1 #
edge $-1 $35 2.7755575615628914e-017 $85 3.1709404011575835 $33 $99 forward 7 unknown #
coedge $-1 $100 $93 $34 $65 forward $39 $-1 #
edge $-1 $36 0 $83 3.1709404011575835 $34 $101 forward 7 unknown #
point $-1 -0.18750000000000003 0.5 6.1230317691118863e-017 #
point $-1 -0.1875 -0.5 -1.2246063538223773e-016 #
face $-1 $102 $82 $3 $-1 $103 forward single #
loop $-1 $-1 $104 $38 #
cone-surface $-1 -3.0631648106064024 3.9370078740157481 -0.55118110236220463 0 1 0 0.49212598425196852 0 0 1 I I 0 1 0.49212598425196852 forward I I I I #
coedge $-1 $73 $100 $105 $106 forward $39 $-1 #
coedge $-1 $107 $41 $108 $109 forward $21 $-1 #
coedge $-1 $62 $71 $41 $74 forward $39 $-1 #
edge $-1 $110 -9.436895709314012e-016 $85 0.32041517248471058 $73 $111 forward 7 unknown #
coedge $-1 $112 $113 $42 $76 forward $114 $-1 #
edge $-1 $115 0 $78 1 $75 $116 forward 7 unknown #
coedge $-1 $43 $107 $112 $117 forward $21 $-1 #
vertex $-1 $117 $118 #
straight-curve $-1 -3.3584404011575835 0.47455236844831017 0.15748031496062975 0 -1 0 I I #
coedge $-1 $119 $45 $49 $87 reversed $82 $-1 #
coedge $-1 $45 $120 $100 $121 reversed $82 $-1 #
loop $-1 $-1 $80 $68 #
vertex $-1 $65 $122 #
ellipse-curve $-1 -3.3584404011575835 -3.8635761256955448e-014 5.8564264548977008e-015 1 0 0 0 -0.47455236844827153 0.1574803149606239 1 I I #
vertex $-1 $48 $123 #
ellipse-curve $-1 -3.3584404011575835 5.773159728050814e-015 5.5511151231257827e-016 1 0 0 0 0.49999999999999423 -4.9960036108132044e-016 1 I I #
edge $-1 $115 0 $51 0.31066614006322979 $80 $124 forward 7 unknown #
point $-1 -3.3584404011575835 0.47455236844831017 0.15748031496062975 #
point $-1 -3.3584404011575835 -0.47455236844831017 0.15748031496062975 #
coedge $-1 $53 $53 $56 $95 reversed $91 $-1 #
loop $-1 $125 $90 $126 #
ellipse-curve $-1 0 -5.5511151231257827e-017 2.7755575615628914e-017 1 0 0 0 0.6875 5.6436111209659523e-017 1 I I #
coedge $-1 $64 $62 $55 $94 forward $39 $-1 #
edge $-1 $35 0 $36 3.1415926535897931 $55 $127 forward 7 unknown #
edge $-1 $60 0 $58 3.1415926535897931 $90 $128 forward 7 unknown #
face $-1 $129 $57 $3 $-1 $130 reversed single #
point $-1 0 -0.6875 0 #
point $-1 0 0.6875 8.4191686825288437e-017 #
straight-curve $-1 -0.1875 0.5 6.1230317691118863e-017 -1 0 0 I I #
coedge $-1 $71 $64 $81 $121 forward $39 $-1 #
straight-curve $-1 -0.1875 -0.5 -1.2246063538223773e-016 -1 0 0 I I #
face $-1 $131 $114 $3 $-1 $132 reversed single #
plane-surface $-1 -3.3584404011575835 3.9370078740157481 -0.15748031496062964 -1 0 0 0 0 1 forward_v I I I I #
coedge $-1 $133 $105 $120 $134 reversed $69 $-1 #
coedge $-1 $104 $108 $71 $106 reversed $69 $-1 #
edge $-1 $135 0 $110 1 $71 $136 forward 7 unknown #
coedge $-1 $77 $72 $137 $138 forward $21 $-1 #
coedge $-1 $105 $133 $72 $109 reversed $69 $-1 #
edge $-1 $110 0 $139 0.31066614006322979 $72 $140 forward 7 unknown #
vertex $-1 $74 $141 #
ellipse-curve $-1 -3.3584404011575835 4.8849813083506888e-015 -2.4980018054066022e-016 1 0 0 0 0.47455236844830528 -0.15748031496062939 1 I I #
coedge $-1 $142 $75 $77 $117 reversed $114 $-1 #
coedge $-1 $75 $143 $119 $144 reversed $114 $-1 #
loop $-1 $-1 $142 $102 #
vertex $-1 $76 $145 #
intcurve-curve $-1 forward { surfintcur full nurbs 3 open 10 
	0 3 0.11253257101884487 1 0.22393396830766429 1 0.33455413860139049 1 0.44492742622211834 1 
	0.55507090315041474 1 0.66544299139224528 1 0.77606501181087961 1 0.88746143203659156 1 1 3 
	-3.3584404011575817 -0.16388622838508046 0.15748031496062986 1 
	-3.3708567356008667 -0.15505432251166176 0.16714317483761593 1 
	-3.3923998137611204 -0.13570621773087246 0.1846353655201137 1 
	-3.4146695301705123 -0.10056592478182139 0.20648826367732798 1 
	-3.4285304162461645 -0.062367265616651485 0.22136844107078429 1.0000000000000002 
	-3.4353480818428968 -0.020656261450213941 0.2292035980188204 1 
	-3.4353474876922672 0.020651045248008836 0.22920307337890514 1.0000000000000002 
	-3.4285355317939703 0.062351595391927757 0.22137383920745712 0.99999999999999978 
	-3.4146664322057743 0.10056949782716208 0.20648564877196265 1 
	-3.392419131864195 0.13568310015358898 0.18465261747399009 1 
	-3.3708653787279625 0.15504458777051142 0.16715080174753014 0.99999999999999989 
	-3.3584404011575817 0.16388622838508041 0.15748031496062992 1 
	0.001 
	cone -3.0631648106064024 3.9370078740157481 0.55118110236220463 0 1 0 0.49212598425196852 0 0 1 I I 0 1 0.49212598425196852 forward I I I I 
	cone 6.7286526099085613 0 0 1 0 0 0 -0.020500017727317306 0 1 I I -0.020495711510862862 0.99978994084240691 0.020500017727317306 forward I I I I 
	nullbs 
	nullbs 
	I I 
	0 
	0 
	0 
	} I I #
edge $-1 $146 0 $78 0.76546744776976161 $112 $147 forward 7 unknown #
point $-1 -3.3584404011575835 0.16388622838508082 0.15748031496062986 #
coedge $-1 $148 $80 $113 $144 forward $82 $-1 #
coedge $-1 $81 $148 $104 $134 forward $82 $-1 #
edge $-1 $83 0 $135 0.32041517248473361 $100 $149 forward 7 unknown #
point $-1 -3.3584404011575835 -0.5 -5.5511151231257827e-017 #
point $-1 -3.3584404011575835 0.5 5.5511151231257827e-017 #
straight-curve $-1 -3.3584404011575835 -0.16388622838508038 0.15748031496062975 0 -1 0 I I #
loop $-1 $-1 $150 $126 #
face $-1 $96 $91 $3 $-1 $151 reversed single #
ellipse-curve $-1 -0.1875 0 0 -1 0 0 0 0.5 6.1230317691118863e-017 1 I I #
ellipse-curve $-1 0 2.7755575615628914e-017 -2.7755575615628914e-017 -1 0 0 0 0.6875 1.1194726244091735e-016 1 I I #
face $-1 $152 $153 $3 $-1 $154 forward single #
torus-surface $-1 -0.1875 0 0 1 0 0 0.6875 0.1875 0 -1 0 forward_v I I I I #
face $-1 $155 $156 $3 $-1 $157 reversed single #
cone-surface $-1 6.7286526099085613 0 0 1 0 0 0 -0.020500017727317306 0 1 I I -0.020495711510862862 0.99978994084240691 0.020500017727317306 forward I I I I #
coedge $-1 $108 $104 $158 $159 reversed $69 $-1 #
edge $-1 $160 0 $135 0.31066614006322979 $120 $161 forward 7 unknown #
vertex $-1 $121 $162 #
intcurve-curve $-1 forward { surfintcur full nurbs 3 open 17 
	0 3 0.062504034392889513 1 0.12488943855776917 1 0.18717676871398492 1 0.24944246088553362 1 
	0.31186550685878095 1 0.37450224125239184 1 0.43725425654847416 1 0.49999570582076758 1 0.56273787623529581 1 
	0.62549025477296882 1 0.68812727737490009 1 0.75055074115602705 1 0.8128174619785753 1 0.8751067646428683 1 
	0.93749418912982874 1 1 3 
	-3.3584404011575835 -0.47455236844831034 -0.15748031496062967 1 
	-3.3811586345757885 -0.4690866472628471 -0.17499030971656196 1 
	-3.4220270640273185 -0.45456393568632314 -0.21108681040878377 1.0000000000000002 
	-3.4697748212705575 -0.4223013571789086 -0.27089512257888404 1 
	-3.5038580335208516 -0.3787502823842715 -0.32917884547017079 0.99999999999999989 
	-3.5265951500140122 -0.32497943280872393 -0.38267780224741116 0.99999999999999989 
	-3.5410845905675656 -0.25842823169196555 -0.43087641860147635 1.0000000000000002 
	-3.5488835357573478 -0.17885089577017735 -0.46985411522191428 0.99999999999999989 
	-3.5521020186055829 -0.09051818442866956 -0.49456319080926286 1 
	-3.5528812947295929 -0.0001048673654052315 -0.50270973001608588 0.99999999999999978 
	-3.5521055617663344 0.090342327302825834 -0.49459693282090411 1.0000000000000002 
	-3.5488933474090407 0.17868683354577417 -0.46991652294817715 1 
	-3.5411056009621702 0.25828524351489146 -0.43096284917040767 0.99999999999999989 
	-3.526631564951018 0.32486059713571469 -0.38277967536004454 1 
	-3.5039087709104391 0.37866675541308126 -0.32927819841329115 1.0000000000000002 
	-3.4698216060470748 0.42226324376595392 -0.27095953740289974 0.99999999999999978 
	-3.4220553998954775 0.45455291076866805 -0.21111349137577515 1.0000000000000002 
	-3.3811691953502874 0.46908466774936253 -0.17499853424578848 1 
	-3.3584404011575835 0.47455236844831017 -0.15748031496063014 1 
	0.001 
	cone -5.1624999999999996 0 0 1 0 0 0 -0.5 0 1 I I 0 1 0.5 forward I I I I 
	cone -3.0631648106064024 3.9370078740157481 -0.55118110236220463 0 1 0 0.49212598425196852 0 0 1 I I 0 1 0.49212598425196852 forward I I I I 
	nullbs 
	nullbs 
	I I 
	0 
	0 
	0 
	} I I #
coedge $-1 $158 $163 $107 $138 reversed $156 $-1 #
edge $-1 $139 0 $146 0.7654674477697726 $137 $164 forward 7 unknown #
vertex $-1 $159 $165 #
straight-curve $-1 -3.3584404011575835 0.47455236844831017 -0.15748031496062964 0 -1 0 I I #
point $-1 -3.3584404011575835 0.47455236844831017 -0.15748031496063014 #
coedge $-1 $166 $112 $163 $167 forward $114 $-1 #
coedge $-1 $113 $166 $168 $169 reversed $114 $-1 #
edge $-1 $115 0 $170 0.7654674477697927 $113 $171 forward 7 unknown #
point $-1 -3.3584404011575835 -0.16388622838508038 0.15748031496062975 #
vertex $-1 $117 $172 #
ellipse-curve $-1 -3.3584404011575835 4.4408920985006262e-016 5.8286708792820718e-016 1 0 0 0 0.22728560327127134 -5.5511151231257827e-016 1 I I #
coedge $-1 $120 $119 $173 $174 forward $82 $-1 #
ellipse-curve $-1 -3.3584404011575835 -4.0856207306205761e-014 -6.0507154842071031e-015 1 0 0 0 -0.49999999999995914 5.9952043329758453e-015 1 I I #
coedge $-1 $175 $175 $176 $177 reversed $125 $-1 #
plane-surface $-1 0 0 0 1 0 0 0 -1 0 forward_v I I I I #
face $-1 $178 $179 $3 $-1 $180 reversed single #
loop $-1 $-1 $181 $129 #
cone-surface $-1 0.050000000000004263 0 0 -1 0 0 0 -1.0000000000000044 0 1 I I -0.70710678118654913 0.70710678118654602 1.0000000000000044 forward I I I I #
face $-1 $182 $183 $3 $-1 $184 reversed single #
loop $-1 $-1 $168 $131 #
cone-surface $-1 6.7286526099085613 0 0 1 0 0 0 -0.020500017727317306 0 1 I I -0.020495711510862862 0.99978994084240691 0.020500017727317306 forward I I I I #
coedge $-1 $173 $137 $133 $159 forward $156 $-1 #
edge $-1 $139 0 $160 0.99999999999999989 $158 $185 forward 7 unknown #
vertex $-1 $174 $186 #
straight-curve $-1 -3.3584404011575835 -0.16388622838508038 -0.15748031496062964 0 -1 0 I I #
point $-1 -3.3584404011575835 -0.47455236844831017 -0.15748031496062964 #
coedge $-1 $137 $187 $142 $167 reversed $156 $-1 #
ellipse-curve $-1 -3.3584404011575835 3.5527136788005009e-015 -1.0269562977782698e-015 1 0 0 0 0.16388622838507683 -0.15748031496062861 1 I I #
point $-1 -3.3584404011575835 0.16388622838508038 -0.15748031496062964 #
coedge $-1 $143 $142 $188 $189 forward $114 $-1 #
edge $-1 $146 -3.5536740095698713e-015 $190 4.0684496984901726 $142 $191 forward 7 unknown #
coedge $-1 $187 $173 $143 $169 forward $156 $-1 #
edge $-1 $170 -1.7680195155900794e-015 $192 4.0684496984901752 $143 $193 forward 7 unknown #
vertex $-1 $144 $194 #
ellipse-curve $-1 -3.3584404011575835 -8.8817841970012523e-015 3.9968028886505635e-015 1 0 0 0 -0.1638862283850715 0.15748031496062576 1 I I #
point $-1 -3.3584404011575835 0.22728560327127179 2.7755575615628914e-017 #
coedge $-1 $168 $158 $148 $174 reversed $156 $-1 #
edge $-1 $170 0 $160 0.76546744776975917 $173 $195 forward 7 unknown #
coedge $-1 $150 $150 $196 $197 forward $125 $-1 #
coedge $-1 $198 $199 $150 $177 forward $200 $-1 #
edge $-1 $201 1.2246063538223775e-016 $202 3.1415926535897931 $176 $203 forward 7 unknown #
face $-1 $204 $205 $3 $-1 $206 reversed single #
loop $-1 $-1 $207 $152 #
cone-surface $-1 0.52000000000000002 0 0.67851050872696916 0 0 1 -0.093500000000000028 0 0 1 I I 0 1 0.093500000000000028 forward I I I I #
coedge $-1 $208 $209 $210 $211 forward $153 $-1 #
face $-1 $212 $213 $3 $-1 $214 reversed single #
loop $-1 $-1 $215 $155 #
sphere-surface $-1 1.1879999999999982 0 0 0.5 1 0 0 0 0 1 forward_v I I I I #
intcurve-curve $-1 forward { surfintcur full nurbs 3 open 10 
	0 3 0.11252667485823423 1 0.22393267804941125 1 0.33455154789519775 1 0.44492655806628678 1 
	0.5550721492235664 1 0.66544613253263885 1 0.77606642659248326 1 0.88746801981972112 1 0.99999999999999989 3 
	-3.3584404011575817 0.16388622838508043 -0.15748031496062986 1 
	-3.3708483101894009 0.15506374389333413 -0.16713574965773678 0.99999999999999978 
	-3.3923810007130331 0.13572854034684836 -0.18461859423579927 1 
	-3.4146717449851027 0.10056411213784265 -0.20648998794107221 0.99999999999999989 
	-3.4285259642221444 0.062381486175317295 -0.22136373307437082 1.0000000000000002 
	-3.435348633724757 0.02065881548552943 -0.22920415610340136 0.99999999999999989 
	-3.435348095694136 -0.020654888653498502 -0.22920367240115497 1 
	-3.4285301638104637 -0.062368724821169133 -0.22136815053916831 1 
	-3.4146690570148626 -0.10056704416026389 -0.20648773592516872 1 
	-3.3923980721720417 -0.1357081672124337 -0.18463383407126463 1 
	-3.3708559586822737 -0.15505513036954166 -0.16714249854468061 1 
	-3.3584404011575817 -0.16388622838508041 -0.15748031496062992 1 
	0.001 
	cone -3.0631648106064024 3.9370078740157481 -0.55118110236220463 0 1 0 0.49212598425196852 0 0 1 I I 0 1 0.49212598425196852 forward I I I I 
	cone 6.7286526099085613 0 0 1 0 0 0 -0.020500017727317306 0 1 I I -0.020495711510862862 0.99978994084240691 0.020500017727317306 forward I I I I 
	nullbs 
	nullbs 
	I I 
	0 
	0 
	0 
	} I I #
point $-1 -3.3584404011575835 -0.16388622838508038 -0.15748031496062964 #
coedge $-1 $163 $168 $216 $217 forward $156 $-1 #
coedge $-1 $218 $219 $166 $189 reversed $213 $-1 #
edge $-1 $190 0 $192 3.1415926535897944 $166 $220 forward 7 unknown #
vertex $-1 $189 $221 #
straight-curve $-1 -3.3584404011575799 0.2272856032712717 2.7833539389835144e-017 0.9997899408424068 -0.020495711510862862 -2.5099178542313107e-018 I I #
vertex $-1 $169 $222 #
straight-curve $-1 -3.3584404011575817 -0.22728560327127173 -5.5667078779670288e-017 0.9997899408424068 0.020495711510862862 5.0198357084626183e-018 I I #
point $-1 -3.3584404011575835 -0.22728560327127134 -2.7755575615628914e-017 #
ellipse-curve $-1 -3.3584404011575835 4.4408920985006262e-016 -1.3877787807814457e-016 1 0 0 0 -0.22728560327127179 1.1102230246251565e-016 1 I I #
coedge $-1 $209 $208 $175 $197 reversed $153 $-1 #
edge $-1 $201 -1.2246063538223775e-016 $202 3.1415926535897931 $175 $223 forward 7 unknown #
coedge $-1 $224 $176 $208 $225 reversed $200 $-1 #
coedge $-1 $176 $224 $209 $226 forward $200 $-1 #
loop $-1 $-1 $176 $227 #
vertex $-1 $226 $228 #
vertex $-1 $225 $229 #
ellipse-curve $-1 0 0 0 1 0 0 0 0.94999999999999996 0 1 I I #
face $-1 $230 $231 $3 $-1 $232 reversed single #
loop $-1 $-1 $233 $178 #
cone-surface $-1 0.52000000000000002 0 0.67851050872696916 0 0 1 -0.093500000000000028 0 0 1 I I 0 1 0.093500000000000028 forward I I I I #
coedge $-1 $234 $235 $236 $237 reversed $179 $-1 #
coedge $-1 $196 $181 $198 $225 forward $153 $-1 #
coedge $-1 $181 $196 $199 $226 reversed $153 $-1 #
coedge $-1 $238 $239 $181 $211 reversed $240 $-1 #
edge $-1 $241 0 $242 3.1415926535897931 $210 $243 forward 7 unknown #
face $-1 $244 $245 $3 $-1 $246 forward single #
loop $-1 $-1 $218 $182 #
sphere-surface $-1 1.1879999999999982 0 0 0.5 1 0 0 0 0 1 forward_v I I I I #
coedge $-1 $216 $247 $218 $248 forward $183 $-1 #
coedge $-1 $249 $215 $187 $217 reversed $183 $-1 #
edge $-1 $192 -2.4492127076447728e-016 $190 3.1415926535897909 $187 $250 forward 7 unknown #
coedge $-1 $251 $188 $215 $248 reversed $213 $-1 #
coedge $-1 $188 $251 $249 $252 forward $213 $-1 #
ellipse-curve $-1 0.70915468221621802 -4.0939474033052647e-016 1.1796119636642288e-016 1 7.7152489307682956e-016 -6.3245382692703907e-031 -1.1102230246251565e-016 0.14389983195456002 -1.1796119636642288e-016 1 I I #
point $-1 0.70915468221621791 0.1438998319545596 0 #
point $-1 0.70915468221621814 -0.14389983195456044 1.7622064852552706e-017 #
ellipse-curve $-1 0 0 0 -1 0 0 0 0.94999999999999996 0 1 I I #
coedge $-1 $199 $198 $253 $254 reversed $200 $-1 #
edge $-1 $242 6.2509306011347802e-015 $202 0.070710678118660941 $198 $255 forward 7 unknown #
edge $-1 $241 6.2803698347351005e-015 $201 0.070710678118660802 $199 $256 forward 7 unknown #
face $-1 $126 $200 $3 $-1 $257 forward single #
point $-1 6.9388939039072284e-017 0.95000000000000007 1.1633760361312585e-016 #
point $-1 0 -0.94999999999999996 0 #
face $-1 $-1 $258 $3 $-1 $259 reversed single #
loop $-1 $-1 $260 $204 #
cone-surface $-1 0.52000000000000002 0 1.6938195321209231 0 0 -1 -1.6642794823505171 0 0 1 I I -0.85716730070211222 0.51503807491005438 1.6642794823505171 forward I I I I #
coedge $-1 $261 $262 $263 $264 reversed $205 $-1 #
coedge $-1 $263 $207 $265 $266 forward $179 $-1 #
coedge $-1 $207 $263 $267 $268 reversed $179 $-1 #
coedge $-1 $262 $261 $207 $237 forward $205 $-1 #
edge $-1 $269 1.1102230246251565e-016 $270 0.25 $236 $271 forward 7 unknown #
coedge $-1 $272 $210 $273 $274 reversed $240 $-1 #
coedge $-1 $210 $272 $275 $276 forward $240 $-1 #
loop $-1 $-1 $272 $244 #
vertex $-1 $274 $277 #
vertex $-1 $276 $278 #
ellipse-curve $-1 0.050000000000004263 0 0 -1 -4.3992587350771828e-015 -5.3873601990841123e-031 -4.3992587350771828e-015 1 1.2246063538223773e-016 1 I I #
face $-1 $279 $240 $3 $-1 $280 forward single #
loop $-1 $281 $282 $212 #
plane-surface $-1 0.875 0 0 1 0 0 0 -1 0 forward_v I I I I #
coedge $-1 $215 $249 $283 $284 reversed $183 $-1 #
edge $-1 $285 1.6653345369377343e-016 $190 0.60245461235729236 $215 $286 forward 7 unknown #
coedge $-1 $247 $216 $219 $252 reversed $183 $-1 #
ellipse-curve $-1 0.70915468221621802 1.5265566588595902e-016 1.5265566588595902e-016 1 0 0 0 -0.1438998319545603 -1.702777307385117e-016 1 I I #
coedge $-1 $219 $218 $287 $288 reversed $213 $-1 #
edge $-1 $289 -5.5511151231257815e-017 $192 0.60245461235729048 $249 $290 forward 7 unknown #
coedge $-1 $275 $273 $224 $254 forward $291 $-1 #
edge $-1 $241 0 $242 3.1415926535897931 $253 $292 forward 7 unknown #
straight-curve $-1 0.050000000000004263 -1.0000000000000044 0 -0.70710678118654624 0.70710678118654879 -3.290524336873073e-015 I I #
straight-curve $-1 0.050000000000004263 1.0000000000000044 1.2246063538223827e-016 -0.70710678118654624 -0.70710678118654879 -8.6592745707193653e-017 I I #
cone-surface $-1 0.050000000000004263 0 0 -1 0 0 0 -1.0000000000000044 0 1 I I -0.70710678118654913 0.70710678118654602 1.0000000000000044 forward I I I I #
loop $-1 $-1 $293 $230 #
cone-surface $-1 0.52000000000000002 0 1.6938195321209231 0 0 -1 -1.6642794823505171 0 0 1 I I -0.85716730070211222 0.51503807491005438 1.6642794823505171 forward I I I I #
coedge $-1 $294 $295 $261 $296 forward $231 $-1 #
coedge $-1 $236 $233 $260 $296 reversed $205 $-1 #
coedge $-1 $233 $236 $297 $298 reversed $205 $-1 #
coedge $-1 $235 $234 $233 $264 forward $179 $-1 #
edge $-1 $299 0 $300 0.25 $233 $301 forward 7 unknown #
coedge $-1 $302 $293 $234 $266 reversed $258 $-1 #
edge $-1 $269 -5.2872336830099321e-031 $299 3.1415926535897922 $265 $303 forward 7 unknown #
coedge $-1 $297 $297 $235 $268 forward $304 $-1 #
edge $-1 $270 0 $300 0.99999999999999989 $267 $305 forward 7 unknown #
vertex $-1 $306 $307 #
vertex $-1 $298 $308 #
straight-curve $-1 0.42649999999999999 0 0.75 0 0 1 I I #
coedge $-1 $239 $238 $282 $309 forward $240 $-1 #
coedge $-1 $253 $310 $238 $274 forward $291 $-1 #
edge $-1 $311 0 $241 0.82500000000000018 $273 $312 forward 7 unknown #
coedge $-1 $310 $253 $239 $276 reversed $291 $-1 #
edge $-1 $313 0 $242 0.82500000000000018 $275 $314 forward 7 unknown #
point $-1 0.049999999999999822 1 1.2246063538223773e-016 #
point $-1 0.049999999999999864 -1 -2.4492127076447545e-016 #
face $-1 $227 $291 $3 $-1 $315 forward single #
cone-surface $-1 -5.1624999999999996 0 0 1 0 0 0 -1 0 1 I I 0 1 1 forward I I I I #
loop $-1 $-1 $287 $212 #
coedge $-1 $316 $316 $272 $309 reversed $245 $-1 #
coedge $-1 $287 $287 $247 $284 forward $281 $-1 #
edge $-1 $285 0 $289 3.1415926535897931 $283 $317 forward 7 unknown #
vertex $-1 $284 $318 #
ellipse-curve $-1 1.1879999999999982 0 0 0 0 1 -0.31299999999999806 0.38991152842664351 0 1 I I #
coedge $-1 $283 $283 $251 $288 forward $281 $-1 #
edge $-1 $289 0 $285 3.1415926535897931 $287 $319 forward 7 unknown #
vertex $-1 $284 $320 #
ellipse-curve $-1 1.1879999999999982 0 0 1.2325951644078307e-032 -1.2246063538223773e-016 -1 -0.31299999999999817 -0.38991152842664345 4.7748813513986207e-017 1 I I #
loop $-1 $304 $253 $279 #
ellipse-curve $-1 0.050000000000004263 0 0 1 4.3992587350771828e-015 5.3873601990841123e-031 -4.3992587350771828e-015 1 1.2246063538223773e-016 1 I I #
coedge $-1 $265 $302 $294 $321 forward $258 $-1 #
coedge $-1 $295 $260 $293 $321 reversed $231 $-1 #
coedge $-1 $260 $294 $302 $306 forward $231 $-1 #
edge $-1 $269 -5.2872336830099321e-031 $299 3.1415926535897927 $260 $322 forward 7 unknown #
coedge $-1 $267 $267 $262 $298 forward $304 $-1 #
edge $-1 $300 0 $270 0.99999999999999989 $297 $323 forward 7 unknown #
vertex $-1 $321 $324 #
vertex $-1 $298 $325 #
straight-curve $-1 0.61350000000000005 1.145006940823923e-017 0.75 0 0 1 I I #
coedge $-1 $293 $265 $295 $306 reversed $258 $-1 #
ellipse-curve $-1 0.52000000000000002 -3.8163916471489756e-017 0.75 0 0 -1 -0.093500000000000028 3.8163916471489756e-017 0 1 I I #
loop $-1 $-1 $267 $279 #
intcurve-curve $-1 forward { surfintcur full nurbs 3 open 12 
	0 3 0.09096142289436053 1 0.18196902925498754 1 0.27283612867806034 1 0.36369863613866688 1 
	0.45455743089672213 1 0.545413182722433 1 0.63627664002093265 1 0.72714525896355187 1 0.81802317803458624 1 
	0.90906651690884588 1 0.99999999999999989 3 
	0.42649999999999988 -6.1230317691118863e-017 1 1 
	0.42654035868780987 0.0091885815856978473 0.99998216438019494 1 
	0.42903457439959103 0.02673484479281233 0.99976386394112227 1.0000000000000002 
	0.44063148725782525 0.051851598078083719 0.99874079466421739 0.99999999999999989 
	0.45822229348189025 0.071828314605921359 0.99746647060174443 1 
	0.48082805408276658 0.08629732788053282 0.99628940026640767 1 
	0.50654949581041375 0.093801270560735908 0.99559171975516936 0.99999999999999989 
	0.53334334879821699 0.093817126668823664 0.99559013446080191 1 
	0.55909159279423415 0.086337807214225945 0.99628597130835883 0.99999999999999989 
	0.58172846030107006 0.071867200871653408 0.99746325475833375 1 
	0.59934941710996747 0.051909760320680128 0.99873900059907006 1 
	0.611007546969347 0.026593259493681187 0.99976767786605669 0.99999999999999978 
	0.61347912469501398 0.009124067728488932 0.99998389535400323 1 
	0.61350000000000016 -6.1230317691118863e-017 1 1 
	0.001 
	cone 0.52000000000000002 0 0.67851050872696916 0 0 1 -0.093500000000000028 0 0 1 I I 0 1 0.093500000000000028 forward I I I I 
	cone -5.1624999999999996 0 0 1 0 0 0 -1 0 1 I I 0 1 1 forward I I I I 
	nullbs 
	nullbs 
	I I 
	0 
	0 
	0 
	} I I #
edge $-1 $326 0 $269 0.10908022263963353 $295 $327 forward 7 unknown #
point $-1 0.42649999999999988 0 0.75000000000000011 #
point $-1 0.42649999999999988 -6.1230317691118863e-017 1 #
edge $-1 $311 0 $313 3.1415926535897931 $282 $328 forward 7 unknown #
coedge $-1 $273 $275 $316 $329 reversed $291 $-1 #
vertex $-1 $329 $330 #
straight-curve $-1 0.875 1 1.2246063538223773e-016 -1 0 0 I I #
vertex $-1 $329 $331 #
straight-curve $-1 0.875 -1 -2.4492127076447545e-016 -1 0 0 I I #
cone-surface $-1 -5.1624999999999996 0 0 1 0 0 0 -1 0 1 I I 0 1 1 forward I I I I #
coedge $-1 $282 $282 $310 $329 forward $245 $-1 #
ellipse-curve $-1 0.875 -1.3877787807814457e-017 4.163336342344337e-017 -1 0 0 0 0.38991152842664351 -4.163336342344337e-017 1 I I #
point $-1 0.875 0.38991152842664351 0 #
ellipse-curve $-1 0.875 0 -5.5511151231257827e-017 -1 0 0 0 -0.38991152842664351 5.5511151231257827e-017 1 I I #
point $-1 0.875 -0.38991152842664351 0 #
edge $-1 $326 3.6187151343618356e-016 $299 0.10908022263963374 $294 $332 forward 7 unknown #
ellipse-curve $-1 0.52000000000000002 3.8163916471489756e-017 0.75 0 0 1 -0.093500000000000028 -3.8163916471489756e-017 0 1 I I #
intcurve-curve $-1 forward { surfintcur full nurbs 3 open 12 
	0 3 0.090961422894360475 1 0.18196902925498754 1 0.27283612867806034 1 0.36369863613866688 1 
	0.45455743089672235 1 0.545413182722433 1 0.63627664002093265 1 0.72714525896355153 1 0.81802317803458646 1 
	0.90906651690884588 1 0.99999999999999989 3 
	0.61350000000000016 -6.1230317691118863e-017 1 1 
	0.61345964131219022 -0.0091885815856978265 0.99998216438019494 0.99999999999999989 
	0.61096542560040901 -0.026734844792812112 0.99976386394112216 1.0000000000000002 
	0.59936851274217484 -0.051851598078083969 0.9987407946642175 1 
	0.58177770651810967 -0.071828314605921276 0.99746647060174443 0.99999999999999989 
	0.55917194591723385 -0.086297327880532335 0.996289400266408 1 
	0.53345050418958506 -0.093801270560736144 0.99559171975516958 1 
	0.50665665120178338 -0.093817126668823872 0.99559013446080158 0.99999999999999989 
	0.48090840720576555 -0.08633780721422564 0.99628597130835872 1.0000000000000002 
	0.45827153969893131 -0.071867200871655129 0.99746325475833408 1 
	0.44065058289003239 -0.051909760320679295 0.99873900059906984 0.99999999999999978 
	0.4289924530306532 -0.026593259493681239 0.99976767786605691 0.99999999999999989 
	0.42652087530498595 -0.0091240677284889684 0.99998389535400312 1.0000000000000002 
	0.42649999999999988 -6.1230317691118863e-017 1 1 
	0.001 
	cone 0.52000000000000002 0 0.67851050872696916 0 0 1 -0.093500000000000028 0 0 1 I I 0 1 0.093500000000000028 forward I I I I 
	cone -5.1624999999999996 0 0 1 0 0 0 -1 0 1 I I 0 1 1 forward I I I I 
	nullbs 
	nullbs 
	I I 
	0 
	0 
	0 
	} I I #
point $-1 0.61350000000000005 1.145006940823923e-017 0.75 #
point $-1 0.61350000000000016 -6.1230317691118863e-017 1 #
vertex $-1 $306 $333 #
straight-curve $-1 0.52000000000000002 0 0.69381953212092318 -0.85716730070211244 0 0.51503807491005382 I I #
ellipse-curve $-1 0.875 -1.1102230246251565e-016 -5.5511151231257827e-017 -1 0 0 0 1 1.7797178661349555e-016 1 I I #
edge $-1 $311 0 $313 3.1415926535897931 $316 $334 forward 7 unknown #
point $-1 0.875 1 1.2246063538223773e-016 #
point $-1 0.875 -1 0 #
straight-curve $-1 0.5199999999999998 -2.4651903288156619e-032 0.69381953212092284 0.857167300702112 1.0496925227285833e-016 0.5150380749100546 I I #
point $-1 0.52000000000000002 0 0.69381953212092318 #
ellipse-curve $-1 0.875 0 2.7755575615628914e-017 1 0 0 0 1 9.4705059766608812e-017 1 I I #
End-of-ACIS-data 