600 0 1 0           
110 GICL Pro/E ACIS Translator - Source: f:/data5/repository/PTC/V20/prod_appl/assoc_demo/mold/zi551_1.prt.2 - 6 0 13 ACIS 6.0.3 NT 24 Thu Apr 04 13:16:29 2002 
1 9.9999999999999995e-007 1e-010 
body $-1 $1 $-1 $2 #
lump $-1 $-1 $3 $0 #
transform $-1 1 0 0 0 1 0 0 0 1 0 0 0 25.399999999999999 no_rotate no_reflect no_shear #
shell $-1 $-1 $-1 $4 $-1 $1 #
face $-1 $5 $6 $3 $-1 $7 reversed single #
face $-1 $8 $9 $3 $-1 $10 forward single #
loop $-1 $11 $12 $4 #
plane-surface $-1 0 0 0 0 1 0 1 0 0 forward_v I I I I #
face $-1 $13 $14 $3 $-1 $15 forward single #
loop $-1 $-1 $16 $5 #
cone-surface $-1 0 -0.33437499999999998 0 0 1 0 0.1605 0 0 1 I I 0 1 0.1605 forward I I I I #
loop $-1 $-1 $17 $4 #
coedge $-1 $18 $18 $16 $19 reversed $6 $-1 #
face $-1 $20 $21 $3 $-1 $22 reversed single #
loop $-1 $-1 $23 $8 #
cone-surface $-1 0 -0.33437499999999998 0 0 1 0 0.1605 0 0 1 I I 0 1 0.1605 forward I I I I #
coedge $-1 $24 $25 $12 $19 forward $9 $-1 #
coedge $-1 $26 $26 $27 $28 reversed $11 $-1 #
coedge $-1 $12 $12 $29 $30 forward $6 $-1 #
edge $-1 $31 0 $32 3.1415926535897931 $12 $33 forward 7 unknown #
face $-1 $34 $35 $3 $-1 $36 forward single #
loop $-1 $-1 $37 $13 #
plane-surface $-1 0 -0.3125 0 0 1 0 1 0 0 forward_v I I I I #
coedge $-1 $38 $39 $37 $40 forward $14 $-1 #
coedge $-1 $41 $16 $38 $42 forward $9 $-1 #
coedge $-1 $16 $41 $39 $43 reversed $9 $-1 #
coedge $-1 $17 $17 $44 $45 forward $11 $-1 #
coedge $-1 $46 $47 $17 $28 forward $35 $-1 #
edge $-1 $48 0 $49 3.1415926535897931 $17 $50 forward 7 unknown #
coedge $-1 $39 $38 $18 $30 reversed $14 $-1 #
edge $-1 $31 0 $32 3.1415926535897931 $18 $51 forward 7 unknown #
vertex $-1 $30 $52 #
vertex $-1 $30 $53 #
ellipse-curve $-1 0 0 -6.9388939039072284e-018 0 -1 0 -0.1605 0 2.6593825882756384e-017 1 I I #
face $-1 $54 $55 $3 $-1 $56 forward single #
loop $-1 $-1 $27 $20 #
cone-surface $-1 0 -0.33437499999999998 0 0 1 0 0.3125 0 0 1 I I 0 1 0.3125 forward I I I I #
coedge $-1 $57 $57 $23 $40 reversed $21 $-1 #
coedge $-1 $29 $23 $24 $42 reversed $14 $-1 #
coedge $-1 $23 $29 $25 $43 forward $14 $-1 #
edge $-1 $58 1.2246063538223773e-016 $59 3.1415926535897931 $23 $60 forward 7 unknown #
coedge $-1 $25 $24 $57 $61 reversed $9 $-1 #
edge $-1 $32 0 $59 0.3125 $38 $62 forward 7 unknown #
edge $-1 $31 0 $58 0.31249999999999989 $39 $63 forward 7 unknown #
coedge $-1 $64 $65 $26 $45 reversed $55 $-1 #
edge $-1 $48 0 $49 3.1415926535897931 $26 $66 forward 7 unknown #
coedge $-1 $67 $27 $65 $68 reversed $35 $-1 #
coedge $-1 $27 $67 $64 $69 forward $35 $-1 #
vertex $-1 $45 $70 #
vertex $-1 $45 $71 #
ellipse-curve $-1 0 0 0 0 1 0 -0.3125 0 0 1 I I #
ellipse-curve $-1 -1.3877787807814457e-017 0 -6.9388939039072284e-018 0 1 0 -0.16049999999999998 0 2.6593825882756384e-017 1 I I #
point $-1 -0.1605 0 1.9654931978849155e-017 #
point $-1 0.1605 0 0 #
face $-1 $72 $73 $3 $-1 $74 forward single #
loop $-1 $-1 $75 $34 #
cone-surface $-1 0 -0.33437499999999998 0 0 1 0 0.3125 0 0 1 I I 0 1 0.3125 forward I I I I #
coedge $-1 $37 $37 $41 $61 forward $21 $-1 #
vertex $-1 $43 $76 #
vertex $-1 $42 $77 #
ellipse-curve $-1 -6.9388939039072284e-018 -0.3125 -6.9388939039072284e-018 0 1 0 -0.1605 0 6.9388939039072284e-018 1 I I #
edge $-1 $58 -1.2246063538223773e-016 $59 3.1415926535897931 $57 $78 forward 7 unknown #
straight-curve $-1 0.1605 0 -3.9309863957698311e-017 0 -1 0 I I #
straight-curve $-1 -0.1605 0 1.9654931978849155e-017 0 -1 0 I I #
coedge $-1 $75 $44 $47 $69 reversed $55 $-1 #
coedge $-1 $44 $75 $46 $68 forward $55 $-1 #
ellipse-curve $-1 0 0 0 0 -1 0 -0.3125 0 0 1 I I #
coedge $-1 $47 $46 $79 $80 reversed $35 $-1 #
edge $-1 $81 0 $49 0.075000000000000011 $46 $82 forward 7 unknown #
edge $-1 $83 5.5511151231257827e-017 $48 0.075000000000000011 $47 $84 forward 7 unknown #
point $-1 -0.3125 0 0 #
point $-1 0.3125 0 0 #
face $-1 $85 $86 $3 $-1 $87 forward single #
loop $-1 $-1 $88 $54 #
cone-surface $-1 0 -0.61250000000000004 0 0 1 0 0.99999999999999989 0 0 1 I I -0.70710678118654746 0.70710678118654757 0.99999999999999989 forward I I I I #
coedge $-1 $65 $64 $89 $90 forward $55 $-1 #
point $-1 -0.1605 -0.31249999999999989 1.9654931978849155e-017 #
point $-1 0.1605 -0.3125 0 #
ellipse-curve $-1 -6.9388939039072284e-018 -0.3125 6.9388939039072284e-018 0 -1 0 -0.1605 0 -6.9388939039072284e-018 1 I I #
coedge $-1 $91 $92 $67 $80 forward $93 $-1 #
edge $-1 $83 0 $81 3.1415926535897931 $79 $94 forward 7 unknown #
vertex $-1 $95 $96 #
straight-curve $-1 0.3125 0.075000000000000011 -7.6537897113898579e-017 0 -1 0 I I #
vertex $-1 $97 $98 #
straight-curve $-1 -0.3125 0.075000000000000011 3.8268948556949289e-017 0 -1 0 I I #
face $-1 $-1 $93 $3 $-1 $99 forward single #
loop $-1 $-1 $100 $72 #
plane-surface $-1 0 0.125 0 0 1 0 1 0 0 forward_v I I I I #
coedge $-1 $101 $102 $103 $104 forward $73 $-1 #
coedge $-1 $102 $101 $75 $90 reversed $73 $-1 #
edge $-1 $83 0 $81 3.1415926535897931 $89 $105 forward 7 unknown #
coedge $-1 $106 $79 $101 $95 reversed $93 $-1 #
coedge $-1 $79 $106 $102 $97 forward $93 $-1 #
loop $-1 $-1 $79 $85 #
ellipse-curve $-1 0 0.075000000000000011 0 0 1 0 -0.3125 0 3.8268948556949289e-017 1 I I #
edge $-1 $107 0 $81 0.070710678118654793 $91 $108 forward 7 unknown #
point $-1 0.3125 0.075000000000000011 -7.6537897113898579e-017 #
edge $-1 $109 0 $83 0.070710678118654835 $92 $110 forward 7 unknown #
point $-1 -0.3125 0.074999999999999956 3.8268948556949289e-017 #
cone-surface $-1 0 -0.61250000000000004 0 0 1 0 0.99999999999999989 0 0 1 I I -0.70710678118654746 0.70710678118654757 0.99999999999999989 forward I I I I #
coedge $-1 $103 $103 $106 $111 forward $86 $-1 #
coedge $-1 $89 $88 $91 $95 forward $73 $-1 #
coedge $-1 $88 $89 $92 $97 reversed $73 $-1 #
coedge $-1 $100 $100 $88 $104 reversed $86 $-1 #
edge $-1 $109 0 $107 3.1415926535897931 $103 $112 forward 7 unknown #
ellipse-curve $-1 0 0.075000000000000011 -1.3877787807814457e-017 0 -1 0 -0.3125 0 5.2146736364763746e-017 1 I I #
coedge $-1 $92 $91 $100 $111 reversed $93 $-1 #
vertex $-1 $104 $113 #
straight-curve $-1 0.26249999999999996 0.125 -6.4291833575674776e-017 0.70710678118654746 -0.70710678118654746 -1.7318549141438735e-016 I I #
vertex $-1 $104 $114 #
straight-curve $-1 -0.26249999999999996 0.125 3.2145916787837388e-017 -0.70710678118654746 -0.70710678118654746 8.6592745707193677e-017 I I #
edge $-1 $109 0 $107 3.1415926535897931 $100 $115 forward 7 unknown #
ellipse-curve $-1 0 0.125 -1.3877787807814457e-017 0 -1 0 -0.26249999999999996 0 4.6023704595651845e-017 1 I I #
point $-1 0.26249999999999996 0.125 -6.4291833575674776e-017 #
point $-1 -0.26249999999999996 0.125 3.2145916787837388e-017 #
ellipse-curve $-1 0 0.125 0 0 1 0 -0.26249999999999996 0 3.2145916787837388e-017 1 I I #
End-of-ACIS-data 