600 0 2 0           
24 FBMach with ACIS - 6.0.3 13 ACIS 6.0.3 NT 24 Wed May 23 19:35:02 2001 
1 9.9999999999999995e-007 1e-010 
body $2 $3 $-1 $4 #
bdycol-kcp $-1 1 5 $5 $6 $7 $8 $9 #
model_id-kcp-attrib $-1 $-1 $-1 $0 1 990660901 60 -1925447679 1 #
lump $-1 $-1 $10 $0 #
transform $-1 1 0 0 0 1 0 0 0 1 0 0 0 1 no_rotate no_reflect no_shear #
body $11 $12 $-1 $13 #
body $14 $15 $-1 $16 #
body $17 $18 $-1 $19 #
body $20 $21 $-1 $22 #
body $23 $24 $-1 $25 #
shell $-1 $-1 $-1 $26 $-1 $3 #
model_id-kcp-attrib $-1 $-1 $-1 $5 1 990660901 60 -1925447678 1 #
lump $-1 $-1 $27 $5 #
transform $-1 1 0 0 0 1 0 0 0 1 0 0.012500000000000247 0.057500000000000009 1 no_rotate no_reflect no_shear #
rgb_color-st-attrib $-1 $28 $-1 $6 1 1 0.5 #
lump $-1 $-1 $29 $6 #
transform $-1 1 0 0 0 1 0 0 0 1 0 0 0.089125000000000093 1 rotate no_reflect no_shear #
rgb_color-st-attrib $-1 $30 $-1 $7 1 1 0.5 #
lump $-1 $-1 $31 $7 #
transform $-1 1 0 0 0 -1 0 0 0 -1 0 0 0.025874999999999884 1 rotate no_reflect no_shear #
rgb_color-st-attrib $-1 $32 $-1 $8 0.5 1 1 #
lump $-1 $-1 $33 $8 #
transform $-1 1 0 0 0 1 0 0 0 1 0 0 0.057499999999999975 1 no_rotate no_reflect no_shear #
rgb_color-st-attrib $-1 $34 $-1 $9 0.5 1 1 #
lump $-1 $-1 $35 $9 #
transform $-1 1 0 0 0 1 0 0 0 1 0 0.012500000000000247 0.057500000000000009 1 no_rotate no_reflect no_shear #
face $36 $37 $38 $10 $-1 $39 reversed single #
shell $-1 $-1 $-1 $40 $-1 $12 #
model_id-kcp-attrib $-1 $-1 $14 $6 1 990660901 80 -1924136957 1 #
shell $-1 $-1 $-1 $41 $-1 $15 #
model_id-kcp-attrib $-1 $-1 $17 $7 1 990660901 80 -1924136956 1 #
shell $-1 $-1 $-1 $42 $-1 $18 #
model_id-kcp-attrib $-1 $-1 $20 $8 1 990660901 100 -1922826235 1 #
shell $-1 $-1 $-1 $43 $-1 $21 #
model_id-kcp-attrib $-1 $-1 $23 $9 1 990660901 160 -1918894074 1 #
shell $-1 $-1 $-1 $44 $-1 $24 #
model_id-kcp-attrib $-1 $45 $-1 $26 1 990660901 60 -1925447679 2 #
face $46 $47 $48 $10 $-1 $49 reversed single #
loop $50 $51 $52 $26 #
cone-surface $-1 0 0 -0.82174999999999998 0 0 -1 0.999999999999999 0 0 1 I I 0.70710678118654702 0.70710678118654802 0.999999999999999 forward I I I I #
face $53 $54 $55 $27 $-1 $56 forward single #
face $-1 $57 $58 $29 $-1 $59 reversed single #
face $-1 $60 $61 $31 $-1 $62 reversed single #
face $-1 $63 $64 $33 $-1 $65 forward single #
face $-1 $66 $67 $35 $-1 $68 reversed single #
pid_name-sg-attrib $-1 $-1 $36 $26 7 114 119 105 108 115 111 110 784252905 615 1 #
model_id-kcp-attrib $-1 $69 $-1 $37 1 990660901 60 -1925447679 3 #
face $70 $71 $72 $10 $-1 $73 reversed single #
loop $74 $75 $76 $37 #
cone-surface $-1 0 0 0 0 0 1 0.15825 0 0 1 I I 0 1 0.15825 forward I I I I #
model_id-kcp-attrib $-1 $-1 $-1 $38 1 990660901 60 -1925447679 19 #
loop $77 $-1 $78 $26 #
coedge $-1 $52 $52 $79 $80 forward $38 $-1 #
model_id-kcp-attrib $-1 $-1 $-1 $40 1 990660901 60 -1925447678 2 #
face $81 $82 $83 $27 $-1 $84 reversed single #
loop $-1 $-1 $85 $40 #
plane-surface $-1 0 0 0.05750000000000012 0 0 1 1 0 0 forward_v I I I I #
face $-1 $86 $87 $29 $-1 $88 forward single #
loop $-1 $89 $90 $41 #
cone-surface $-1 0 0 0 0 0 1 0.15825 0 0 1 I I 0 1 0.15825 forward I I I I #
face $-1 $91 $92 $31 $-1 $93 forward single #
loop $-1 $94 $95 $42 #
cone-surface $-1 0 0 0 0 0 1 0.15825 0 0 1 I I 0 1 0.15825 forward I I I I #
face $-1 $96 $97 $33 $-1 $98 forward single #
loop $-1 $99 $100 $43 #
cone-surface $-1 0 0 0 0 0 1 0.15825 0 0 1 I I 0 1 0.15825 forward I I I I #
face $-1 $101 $102 $35 $-1 $68 reversed single #
loop $-1 $-1 $103 $44 #
cone-surface $-1 -9.3104412049272926e-017 -0.012500000000000261 0.057499999999999996 0 0 1 -0.029946902327152802 0.21088428827441799 0 1 I I 0 1 0.21299999999999966 forward I I I I #
pid_name-sg-attrib $-1 $-1 $46 $37 7 114 119 105 108 115 111 110 784252905 616 1 #
model_id-kcp-attrib $-1 $104 $-1 $47 1 990660901 60 -1925447679 4 #
face $105 $106 $107 $10 $-1 $108 forward single #
loop $109 $110 $111 $47 #
cone-surface $-1 0 0 0.93674999999999997 0 0 1 0.999999999999999 0 0 1 I I 0.70710678118654702 0.70710678118654802 0.999999999999999 forward I I I I #
model_id-kcp-attrib $-1 $-1 $-1 $48 1 990660901 60 -1925447679 15 #
loop $112 $-1 $113 $37 #
coedge $-1 $76 $76 $114 $115 reversed $48 $-1 #
model_id-kcp-attrib $-1 $-1 $-1 $51 1 990660901 60 -1925447679 20 #
coedge $-1 $78 $78 $113 $116 forward $51 $-1 #
coedge $-1 $79 $79 $52 $80 reversed $117 $-1 #
edge $118 $119 -3.1415926535897931 $119 3.1415926535897931 $79 $120 forward 7 unknown #
model_id-kcp-attrib $-1 $-1 $-1 $54 1 990660901 60 -1925447678 3 #
face $-1 $121 $122 $27 $-1 $123 reversed single #
loop $-1 $-1 $124 $54 #
plane-surface $-1 0 0 -0.05750000000000012 0 0 1 1 0 0 forward_v I I I I #
coedge $-1 $125 $126 $127 $128 forward $55 $-1 #
face $-1 $-1 $129 $29 $-1 $130 forward single #
loop $-1 $131 $132 $57 #
cone-surface $-1 0 0 0 0 0 1 0.089124999999999996 0 0 1 I I -0.7071067811865468 0.70710678118654802 0.089124999999999996 forward I I I I #
loop $-1 $-1 $133 $41 #
coedge $-1 $90 $90 $132 $134 reversed $58 $-1 #
face $-1 $-1 $135 $31 $-1 $136 forward single #
loop $-1 $137 $138 $60 #
cone-surface $-1 0 0 0 0 0 1 0.089124999999999996 0 0 1 I I -0.70710678118654702 0.70710678118654802 0.089124999999999996 forward I I I I #
loop $-1 $-1 $139 $42 #
coedge $-1 $95 $95 $138 $140 reversed $61 $-1 #
face $-1 $-1 $141 $33 $-1 $142 forward single #
loop $-1 $-1 $143 $63 #
plane-surface $-1 0 0 -0.05750000000000003 0 0 -1 -1 0 0 forward_v I I I I #
loop $-1 $-1 $144 $43 #
coedge $-1 $100 $100 $143 $145 reversed $64 $-1 #
face $-1 $146 $147 $35 $-1 $68 reversed single #
loop $-1 $-1 $148 $66 #
coedge $-1 $149 $150 $151 $152 reversed $67 $-1 #
pid_name-sg-attrib $-1 $-1 $70 $47 7 114 119 105 108 115 111 110 784252905 617 1 #
model_id-kcp-attrib $-1 $153 $-1 $71 1 990660901 60 -1925447679 5 #
face $154 $155 $156 $10 $-1 $157 reversed single #
loop $-1 $-1 $158 $71 #
plane-surface $-1 0.023346501828117101 0.21171665227938399 0 0.83388582206716821 0.55193698531205815 0 0 0 -1 forward_v I I I I #
model_id-kcp-attrib $-1 $-1 $-1 $72 1 990660901 60 -1925447679 17 #
loop $159 $-1 $114 $47 #
coedge $-1 $111 $111 $160 $161 forward $72 $-1 #
model_id-kcp-attrib $-1 $-1 $-1 $75 1 990660901 60 -1925447679 16 #
coedge $-1 $113 $113 $78 $116 reversed $75 $-1 #
coedge $-1 $114 $114 $76 $115 forward $110 $-1 #
edge $162 $163 -3.1415926535897931 $163 3.1415926535897931 $76 $164 forward 7 unknown #
edge $165 $166 -6.2831853071795862 $166 2.4492127076447521e-016 $113 $167 reversed 7 unknown #
loop $168 $-1 $79 $169 #
attrib_edge_convexity-kcp-attrib $-1 $170 $-1 $80 1 #
vertex $-1 $80 $171 #
ellipse-curve $-1 0 0 -5.5511151231257802e-017 -3.1142300831000202e-016 0 -1 -0.17824999999999999 0 5.5511151231257802e-017 1 I I #
face $-1 $172 $173 $27 $-1 $174 reversed single #
loop $-1 $-1 $175 $82 #
plane-surface $-1 0 -0.22549999999999992 0 0 1 0 0 0 1 forward_v I I I I #
coedge $-1 $176 $177 $178 $179 forward $83 $-1 #
coedge $-1 $180 $85 $181 $182 forward $55 $-1 #
coedge $-1 $85 $180 $183 $184 forward $55 $-1 #
coedge $-1 $185 $186 $85 $128 reversed $187 $-1 #
edge $-1 $188 -0.22549999999999992 $189 0.22549999999999992 $127 $190 forward 7 unknown #
loop $-1 $191 $192 $86 #
plane-surface $-1 0 0 -0.089125000000000149 0 0 -1 -1 0 0 forward_v I I I I #
loop $-1 $-1 $193 $57 #
coedge $-1 $132 $132 $90 $134 forward $87 $-1 #
coedge $-1 $133 $133 $192 $194 reversed $89 $-1 #
edge $-1 $195 -3.1415926535897931 $195 3.1415926535897931 $132 $196 forward 7 unknown #
loop $-1 $197 $198 $91 #
plane-surface $-1 0 0 -0.089125000000000121 0 0 -1 -1 0 0 forward_v I I I I #
loop $-1 $-1 $199 $60 #
coedge $-1 $138 $138 $95 $140 forward $92 $-1 #
coedge $-1 $139 $139 $198 $200 reversed $94 $-1 #
edge $-1 $201 -3.1415926535897931 $201 3.1415926535897931 $138 $202 forward 7 unknown #
loop $-1 $-1 $203 $96 #
plane-surface $-1 0 0 0.05750000000000003 0 0 1 1 0 0 forward_v I I I I #
coedge $-1 $143 $143 $100 $145 forward $97 $-1 #
coedge $-1 $144 $144 $203 $204 reversed $99 $-1 #
edge $-1 $205 0 $205 6.2831853071795862 $143 $206 forward 7 unknown #
face $-1 $207 $208 $35 $-1 $209 reversed single #
loop $-1 $-1 $210 $101 #
coedge $-1 $211 $212 $213 $214 reversed $102 $-1 #
coedge $-1 $215 $103 $216 $217 reversed $67 $-1 #
coedge $-1 $103 $215 $218 $219 reversed $67 $-1 #
coedge $-1 $220 $221 $103 $152 forward $222 $-1 #
edge $-1 $223 -1.4297331749231681 $224 -2.4853319654057355e-016 $151 $225 forward 7 unknown #
pid_name-sg-attrib $-1 $-1 $105 $71 7 114 119 105 108 115 111 110 784252905 618 1 #
model_id-kcp-attrib $-1 $226 $-1 $106 1 990660901 60 -1925447679 6 #
face $227 $228 $229 $10 $-1 $230 forward single #
loop $-1 $-1 $231 $106 #
cone-surface $-1 0.032055839110755199 0.225735294490927 0 0 0 1 -0.012508287331007501 -0.0082790547796808799 0 1 I I 0 1 0.014999999999999986 forward I I I I #
coedge $-1 $232 $233 $234 $235 reversed $107 $-1 #
model_id-kcp-attrib $-1 $-1 $-1 $110 1 990660901 60 -1925447679 18 #
coedge $-1 $160 $160 $111 $161 reversed $236 $-1 #
edge $237 $238 -6.2831853071795862 $238 -1.2246063538223787e-016 $160 $239 reversed 7 unknown #
attrib_edge_convexity-kcp-attrib $-1 $240 $-1 $115 1 #
vertex $241 $115 $242 #
ellipse-curve $-1 0 0 0.095000000000000001 -1.75390683195127e-016 4.29569090084001e-032 -1 0.15825 -3.8758791098478299e-017 -2.7755575615628901e-017 1 I I #
attrib_edge_convexity-kcp-attrib $-1 $243 $-1 $116 1 #
vertex $244 $116 $245 #
ellipse-curve $-1 0 0 0.02 1.75390683195127e-016 -4.29569090084001e-032 -1 0.15825 -3.87587910984782e-017 2.7755575615628901e-017 1 I I #
model_id-kcp-attrib $-1 $-1 $-1 $117 1 990660901 60 -1925447679 22 #
face $246 $-1 $247 $10 $-1 $248 reversed single #
convexity-sys-attrib $-1 $-1 $118 $80 #
point $-1 0.17824999999999999 0 0 #
face $-1 $249 $250 $27 $-1 $251 reversed single #
loop $-1 $-1 $252 $121 #
plane-surface $-1 -0.21299999999999969 0 0 1 0 0 0 0 -1 forward_v I I I I #
coedge $-1 $253 $183 $254 $255 forward $122 $-1 #
coedge $-1 $256 $124 $253 $257 forward $83 $-1 #
coedge $-1 $124 $256 $258 $259 forward $83 $-1 #
coedge $-1 $186 $185 $124 $179 reversed $187 $-1 #
edge $-1 $260 -0.22549999999999992 $261 0.22549999999999992 $178 $262 forward 7 unknown #
coedge $-1 $126 $125 $263 $264 forward $55 $-1 #
coedge $-1 $265 $266 $125 $182 reversed $250 $-1 #
edge $-1 $189 -0.21299999999999969 $267 0.21299999999999969 $181 $268 forward 7 unknown #
coedge $-1 $175 $269 $126 $184 reversed $122 $-1 #
edge $-1 $270 -0.21299999999999969 $188 0.21299999999999969 $183 $271 forward 7 unknown #
coedge $-1 $178 $127 $269 $272 forward $187 $-1 #
coedge $-1 $127 $178 $265 $273 reversed $187 $-1 #
loop $-1 $-1 $185 $249 #
vertex $-1 $128 $274 #
vertex $-1 $128 $275 #
straight-curve $-1 0.21299999999999969 0 0.05750000000000012 0 1 0 I I #
loop $-1 $-1 $276 $86 #
coedge $-1 $192 $192 $133 $194 forward $129 $-1 #
coedge $-1 $193 $193 $276 $277 reversed $131 $-1 #
edge $-1 $278 0 $278 6.2831853071795862 $192 $279 forward 7 unknown #
vertex $-1 $134 $280 #
ellipse-curve $-1 0 0 -0.069125000000000131 0 0 -1 0.15825 0 0 1 I I #
loop $-1 $-1 $281 $91 #
coedge $-1 $198 $198 $139 $200 forward $135 $-1 #
coedge $-1 $199 $199 $281 $282 reversed $137 $-1 #
edge $-1 $283 0 $283 6.2831853071795862 $198 $284 forward 7 unknown #
vertex $-1 $140 $285 #
ellipse-curve $-1 0 0 -0.069125000000000103 0 0 -1 0.15825 0 0 1 I I #
coedge $-1 $203 $203 $144 $204 forward $141 $-1 #
edge $-1 $286 0 $286 6.2831853071795862 $203 $287 forward 7 unknown #
vertex $-1 $145 $288 #
ellipse-curve $-1 0 0 -0.05750000000000003 0 0 -1 0.15825 0 0 1 I I #
face $-1 $289 $290 $35 $-1 $291 reversed single #
loop $-1 $-1 $292 $146 #
cone-surface $-1 -0.032055839110755324 0.21323529449092676 0.057499999999999996 0 0 1 0.012508287331007485 -0.0082790547796808556 0 1 I I 0 -1 0.01499999999999996 forward I I I I #
coedge $-1 $293 $294 $295 $296 reversed $147 $-1 #
coedge $-1 $297 $148 $298 $299 reversed $102 $-1 #
coedge $-1 $148 $297 $149 $217 forward $102 $-1 #
coedge $-1 $300 $301 $148 $214 forward $302 $-1 #
edge $-1 $303 -3.0005295017180647 $223 -1.4297331749231681 $213 $225 forward 7 unknown #
coedge $-1 $150 $149 $304 $305 reversed $67 $-1 #
coedge $-1 $306 $307 $308 $217 forward $309 $-1 #
edge $-1 $310 -0.1150000000000001 $223 1.2490009027033011e-016 $216 $311 forward 7 unknown #
coedge $-1 $312 $292 $150 $219 forward $208 $-1 #
edge $-1 $224 -1.2490009027033011e-016 $313 0.11500000000000012 $150 $314 forward 7 unknown #
coedge $-1 $315 $151 $292 $316 forward $222 $-1 #
coedge $-1 $151 $317 $306 $318 forward $222 $-1 #
loop $-1 $-1 $151 $319 #
vertex $-1 $320 $321 #
vertex $-1 $316 $322 #
ellipse-curve $-1 -9.3104412049272926e-017 -0.012500000000000261 0.05750000000000012 0 0 -1 -0.029946902327152802 0.21088428827441799 0 1 I I #
pid_name-sg-attrib $-1 $-1 $154 $106 7 114 119 105 108 115 111 110 784252905 619 1 #
model_id-kcp-attrib $-1 $323 $-1 $155 1 990660901 60 -1925447679 7 #
face $324 $325 $326 $10 $-1 $327 forward single #
loop $-1 $-1 $328 $155 #
cone-surface $-1 0 0 0 0 0 1 0.21299999999999999 0 0 1 I I 0 1 0.21299999999999999 forward I I I I #
coedge $-1 $329 $330 $331 $332 forward $156 $-1 #
coedge $-1 $333 $158 $334 $335 forward $107 $-1 #
coedge $-1 $158 $333 $336 $337 forward $107 $-1 #
coedge $-1 $338 $339 $158 $235 forward $340 $-1 #
edge $-1 $341 -0.115 $342 0 $158 $343 reversed 7 unknown #
loop $344 $-1 $160 $228 #
attrib_edge_convexity-kcp-attrib $-1 $345 $-1 $161 1 #
vertex $-1 $161 $346 #
ellipse-curve $-1 0 0 0.115 3.1142300831000202e-016 0 -1 -0.17824999999999999 0 -5.5511151231257802e-017 1 I I #
convexity-sys-attrib $-1 $-1 $162 $115 #
model_id-kcp-attrib $-1 $-1 $-1 $163 1 990660901 60 -1925447679 23 #
point $-1 -0.15825 1.93793955492391e-017 0.095000000000000001 #
convexity-sys-attrib $-1 $-1 $165 $116 #
model_id-kcp-attrib $-1 $-1 $-1 $166 1 990660901 60 -1925447679 24 #
point $-1 0.15825 0 0.02 #
model_id-kcp-attrib $-1 $347 $-1 $169 1 990660901 60 -1925447679 13 #
loop $-1 $117 $348 $169 #
plane-surface $-1 0 0 0 0 0 1 1 0 0 forward_v I I I I #
face $-1 $-1 $187 $27 $-1 $349 reversed single #
loop $-1 $-1 $265 $172 #
plane-surface $-1 0 0.22549999999999992 0 0 -1 0 0 0 -1 forward_v I I I I #
coedge $-1 $350 $263 $266 $351 forward $173 $-1 #
coedge $-1 $269 $175 $176 $257 reversed $122 $-1 #
coedge $-1 $263 $350 $175 $255 reversed $173 $-1 #
edge $-1 $270 -0.05750000000000012 $352 0.05750000000000012 $254 $353 forward 7 unknown #
coedge $-1 $177 $176 $350 $354 forward $83 $-1 #
edge $-1 $261 -0.21299999999999969 $352 0.21299999999999969 $253 $355 forward 7 unknown #
coedge $-1 $266 $265 $177 $259 reversed $250 $-1 #
edge $-1 $356 -0.21299999999999969 $260 0.21299999999999969 $258 $357 forward 7 unknown #
vertex $-1 $179 $358 #
vertex $-1 $272 $359 #
straight-curve $-1 0.21299999999999969 0 -0.05750000000000012 0 -1 0 I I #
coedge $-1 $252 $254 $180 $264 reversed $173 $-1 #
edge $-1 $267 -0.22549999999999992 $270 0.22549999999999992 $263 $360 forward 7 unknown #
coedge $-1 $258 $181 $186 $273 forward $250 $-1 #
coedge $-1 $181 $258 $252 $351 reversed $250 $-1 #
vertex $-1 $182 $361 #
straight-curve $-1 0 0.22549999999999992 0.05750000000000012 -1 0 0 I I #
coedge $-1 $183 $253 $185 $272 reversed $122 $-1 #
vertex $-1 $264 $362 #
straight-curve $-1 0 -0.22549999999999992 0.05750000000000012 1 0 0 I I #
edge $-1 $188 -0.05750000000000012 $261 0.05750000000000012 $185 $363 forward 7 unknown #
edge $-1 $189 -0.05750000000000012 $260 0.05750000000000012 $186 $364 forward 7 unknown #
point $-1 0.21299999999999969 -0.22549999999999992 0.05750000000000012 #
point $-1 0.21299999999999969 0.22549999999999992 0.05750000000000012 #
coedge $-1 $276 $276 $193 $277 forward $191 $-1 #
edge $-1 $365 0 $365 6.2831853071795862 $276 $366 forward 7 unknown #
vertex $-1 $194 $367 #
ellipse-curve $-1 0 0 -0.089125000000000149 0 0 1 0.15825 0 0 1 I I #
point $-1 -0.15825 1.9379395549239122e-017 -0.069125000000000131 #
coedge $-1 $281 $281 $199 $282 forward $197 $-1 #
edge $-1 $368 0 $368 6.2831853071795862 $281 $369 forward 7 unknown #
vertex $-1 $200 $370 #
ellipse-curve $-1 0 0 -0.089125000000000121 0 0 1 0.15825 0 0 1 I I #
point $-1 -0.15825 1.9379395549239122e-017 -0.069125000000000103 #
vertex $-1 $204 $371 #
ellipse-curve $-1 0 0 0.05750000000000003 0 0 1 0.15825 0 0 1 I I #
point $-1 0.15825 0 -0.05750000000000003 #
face $-1 $372 $373 $35 $-1 $374 reversed single #
loop $-1 $-1 $375 $207 #
plane-surface $-1 -0.019547551779747839 0.20495623971124588 0.057499999999999996 -0.83388582206716799 0.55193698531205848 0 0 0 1 forward_v I I I I #
coedge $-1 $218 $376 $220 $316 reversed $208 $-1 #
coedge $-1 $377 $210 $378 $379 reversed $147 $-1 #
coedge $-1 $210 $377 $380 $381 forward $147 $-1 #
coedge $-1 $382 $383 $210 $296 forward $384 $-1 #
edge $-1 $385 0.28212630374345871 $386 1.7118594786666252 $295 $225 forward 7 unknown #
coedge $-1 $212 $211 $387 $388 reversed $102 $-1 #
coedge $-1 $389 $390 $391 $299 forward $392 $-1 #
edge $-1 $393 -0.1150000000000001 $303 1.2490009027033011e-016 $298 $394 forward 7 unknown #
coedge $-1 $301 $213 $395 $320 forward $302 $-1 #
coedge $-1 $213 $300 $389 $396 forward $302 $-1 #
loop $-1 $-1 $213 $397 #
vertex $-1 $398 $399 #
coedge $-1 $400 $401 $215 $305 forward $402 $-1 #
edge $-1 $313 2.4853319654057355e-016 $310 1.4297331749231681 $304 $403 forward 7 unknown #
coedge $-1 $404 $216 $221 $318 reversed $309 $-1 #
coedge $-1 $216 $404 $400 $405 reversed $309 $-1 #
coedge $-1 $406 $395 $212 $217 reversed $407 $-1 #
loop $-1 $-1 $216 $408 #
vertex $-1 $405 $409 #
straight-curve $-1 -0.21299999999999969 -0.012500000000000261 0.057499999999999996 0 0 1 I I #
coedge $-1 $376 $218 $401 $410 reversed $208 $-1 #
vertex $-1 $410 $411 #
straight-curve $-1 -0.029946902327152948 0.19838428827441773 0.057499999999999996 0 0 -1 I I #
coedge $-1 $412 $220 $375 $413 forward $222 $-1 #
edge $-1 $224 -0.84504787550506966 $414 -1.5058363506743182e-015 $220 $415 forward 7 unknown #
coedge $-1 $221 $412 $416 $417 forward $222 $-1 #
edge $-1 $418 -0.22549999999999992 $223 0.012500000000000261 $306 $419 forward 7 unknown #
face $-1 $420 $222 $35 $-1 $421 forward single #
edge $-1 $223 0.012500000000000261 $422 0.22549999999999992 $395 $419 forward 7 unknown #
point $-1 -0.21299999999999969 -0.012500000000000261 0.05750000000000012 #
point $-1 -0.029946902327152948 0.19838428827441773 0.05750000000000012 #
pid_name-sg-attrib $-1 $-1 $227 $155 7 114 119 105 108 115 111 110 784252905 620 1 #
model_id-kcp-attrib $-1 $423 $-1 $228 1 990660901 60 -1925447679 14 #
face $424 $425 $426 $10 $-1 $427 reversed single #
loop $-1 $236 $428 $228 #
plane-surface $-1 0 0 0.115 0 0 1 1 0 0 forward_v I I I I #
coedge $-1 $429 $430 $329 $431 reversed $229 $-1 #
coedge $-1 $432 $231 $328 $431 forward $156 $-1 #
coedge $-1 $231 $432 $333 $433 forward $156 $-1 #
coedge $-1 $334 $434 $231 $332 reversed $326 $-1 #
edge $435 $436 6.44497958088604e-015 $437 0.84504787550508043 $331 $438 forward 7 unknown #
coedge $-1 $233 $232 $330 $433 reversed $107 $-1 #
coedge $-1 $439 $331 $232 $335 reversed $326 $-1 #
edge $440 $341 -0.024545468305748851 $436 0 $334 $441 reversed 7 unknown #
coedge $-1 $442 $348 $233 $337 reversed $247 $-1 #
edge $-1 $443 0 $342 0.024545468305748851 $336 $444 forward 7 unknown #
coedge $-1 $445 $234 $348 $446 forward $340 $-1 #
coedge $-1 $234 $445 $439 $447 forward $340 $-1 #
loop $-1 $-1 $445 $448 #
vertex $-1 $235 $449 #
vertex $-1 $235 $450 #
straight-curve $-1 0.0060000000000000097 0.237924357727409 0 0 0 1 I I #
model_id-kcp-attrib $-1 $-1 $-1 $236 1 990660901 60 -1925447679 21 #
convexity-sys-attrib $-1 $-1 $237 $161 #
point $-1 -0.17824999999999999 2.1828608256883901e-017 0.115 #
model_id-kcp-attrib $-1 $451 $246 $169 1 990660901 60 -1925447679 12 #
coedge $-1 $336 $452 $338 $446 reversed $247 $-1 #
plane-surface $-1 0.21299999999999969 0 0 -1 0 0 0 0 1 forward_v I I I I #
coedge $-1 $254 $252 $256 $354 reversed $173 $-1 #
edge $-1 $267 -0.05750000000000012 $356 0.05750000000000012 $266 $453 forward 7 unknown #
vertex $-1 $354 $454 #
straight-curve $-1 -0.21299999999999969 -0.22549999999999992 0 0 0 -1 I I #
edge $-1 $352 -0.22549999999999992 $356 0.22549999999999992 $350 $455 forward 7 unknown #
straight-curve $-1 0 -0.22549999999999992 -0.05750000000000012 -1 0 0 I I #
vertex $-1 $259 $456 #
straight-curve $-1 0 0.22549999999999992 -0.05750000000000012 1 0 0 I I #
point $-1 0.21299999999999969 0.22549999999999992 -0.05750000000000012 #
point $-1 0.21299999999999969 -0.22549999999999992 -0.05750000000000012 #
straight-curve $-1 -0.21299999999999969 0 0.05750000000000012 0 -1 0 I I #
point $-1 -0.21299999999999969 0.22549999999999992 0.05750000000000012 #
point $-1 -0.21299999999999969 -0.22549999999999992 0.05750000000000012 #
straight-curve $-1 0.21299999999999969 -0.22549999999999992 0 0 0 -1 I I #
straight-curve $-1 0.21299999999999969 0.22549999999999992 0 0 0 -1 I I #
vertex $-1 $277 $457 #
ellipse-curve $-1 0 0 -0.089125000000000149 0 0 -1 0.17824999999999999 0 0 1 I I #
point $-1 0.15825 0 -0.089125000000000149 #
vertex $-1 $282 $458 #
ellipse-curve $-1 0 0 -0.089125000000000121 0 0 -1 0.17824999999999999 0 0 1 I I #
point $-1 0.15825 0 -0.089125000000000121 #
point $-1 0.15825 0 0.05750000000000003 #
face $-1 $459 $460 $35 $-1 $374 reversed single #
loop $-1 $-1 $461 $289 #
cone-surface $-1 5.6592313642571202e-016 -0.012500000000000233 0.057499999999999996 0 0 1 0.005999999999999445 0.237924357727409 0 1 I I 0 1 0.23800000000000018 forward I I I I #
coedge $-1 $462 $463 $315 $413 reversed $290 $-1 #
coedge $-1 $292 $312 $462 $464 reversed $208 $-1 #
coedge $-1 $294 $293 $465 $466 reversed $147 $-1 #
coedge $-1 $467 $468 $293 $379 forward $469 $-1 #
edge $-1 $470 -0.11500000000000012 $385 1.2490009027033011e-016 $293 $471 forward 7 unknown #
coedge $-1 $472 $473 $474 $381 reversed $475 $-1 #
edge $-1 $476 -0.1150000000000001 $386 1.2490009027033011e-016 $474 $477 forward 7 unknown #
coedge $-1 $478 $295 $479 $480 forward $384 $-1 #
coedge $-1 $295 $481 $467 $482 forward $384 $-1 #
loop $-1 $-1 $295 $483 #
vertex $-1 $482 $484 #
vertex $-1 $480 $485 #
coedge $-1 $486 $487 $297 $388 forward $488 $-1 #
edge $-1 $310 1.4297331749231681 $393 3.0005295017180647 $387 $403 forward 7 unknown #
coedge $-1 $489 $298 $301 $396 reversed $392 $-1 #
coedge $-1 $298 $489 $486 $490 reversed $392 $-1 #
coedge $-1 $491 $492 $493 $299 reversed $494 $-1 #
loop $-1 $-1 $298 $495 #
vertex $-1 $490 $496 #
straight-curve $-1 -9.3104412049272926e-017 -0.22549999999999992 0.057499999999999996 0 0 1 I I #
coedge $-1 $308 $497 $300 $320 reversed $407 $-1 #
edge $-1 $422 -0.21299999999999969 $303 -9.3104412049272926e-017 $389 $498 forward 7 unknown #
face $-1 $319 $302 $35 $-1 $421 forward single #
edge $-1 $303 -9.3104412049272926e-017 $499 0.21299999999999969 $492 $498 forward 7 unknown #
point $-1 -9.3104412049272926e-017 -0.22549999999999992 0.05750000000000012 #
coedge $-1 $500 $304 $307 $405 forward $402 $-1 #
coedge $-1 $304 $501 $312 $410 forward $402 $-1 #
loop $-1 $-1 $304 $420 #
ellipse-curve $-1 -9.3104412049272926e-017 -0.012500000000000261 -0.05750000000000012 0 0 1 -0.029946902327152802 0.21088428827441799 0 1 I I #
coedge $-1 $307 $306 $502 $503 forward $309 $-1 #
edge $-1 $310 -0.012500000000000261 $504 0.22549999999999992 $307 $505 forward 7 unknown #
coedge $-1 $497 $308 $487 $506 reversed $407 $-1 #
loop $-1 $-1 $308 $507 #
face $-1 $508 $309 $35 $-1 $509 reversed single #
point $-1 -0.21299999999999969 -0.012500000000000261 -0.057500000000000107 #
edge $-1 $510 1.5058363506743182e-015 $313 0.84504787550506966 $401 $511 forward 7 unknown #
point $-1 -0.029946902327152948 0.19838428827441773 -0.05750000000000012 #
coedge $-1 $317 $315 $512 $513 forward $222 $-1 #
edge $-1 $414 0.080060542819931219 $514 0.10460601112568005 $315 $515 forward 7 unknown #
vertex $-1 $316 $516 #
ellipse-curve $-1 -0.032055839110755324 0.21323529449092676 0.05750000000000012 0 0 1 0.012508287331007485 -0.0082790547796808556 0 1 I I #
coedge $-1 $517 $502 $317 $417 reversed $518 $-1 #
edge $-1 $519 -5.6592313642571202e-016 $418 0.21299999999999969 $416 $520 forward 7 unknown #
vertex $-1 $417 $521 #
straight-curve $-1 -0.21299999999999969 0 0.05750000000000012 0 -1 0 I I #
face $-1 $522 $402 $35 $-1 $523 reversed single #
plane-surface $-1 0 0 0.05750000000000012 0 0 1 1 0 0 forward_v I I I I #
vertex $-1 $320 $524 #
model_id-kcp-attrib $-1 $525 $324 $228 1 990660901 60 -1925447679 8 #
model_id-kcp-attrib $-1 $526 $-1 $325 1 990660901 60 -1925447679 9 #
face $527 $448 $528 $10 $-1 $529 forward single #
loop $-1 $-1 $530 $325 #
cone-surface $-1 -0.032055839110755303 0.225735294490927 0 0 0 1 0.0021089367836023402 -0.014851006216508301 0 1 I I 0 1 0.014999999999999973 forward I I I I #
coedge $-1 $434 $531 $530 $532 reversed $326 $-1 #
coedge $-1 $533 $328 $434 $534 forward $229 $-1 #
coedge $-1 $328 $533 $535 $536 forward $229 $-1 #
edge $-1 $437 -0.115 $537 0 $328 $538 reversed 7 unknown #
coedge $-1 $330 $329 $442 $539 forward $156 $-1 #
edge $-1 $443 0 $436 0.115 $333 $540 forward 7 unknown #
coedge $-1 $331 $428 $429 $534 reversed $326 $-1 #
attrib_edge_convexity-kcp-attrib $-1 $541 $-1 $332 1 #
vertex $-1 $433 $542 #
vertex $-1 $431 $543 #
ellipse-curve $-1 0.032055839110755199 0.225735294490927 0.115 0 0 1 -0.012508287331007501 -0.0082790547796808799 0 1 I I #
coedge $-1 $531 $334 $339 $447 reversed $326 $-1 #
attrib_edge_convexity-kcp-attrib $-1 $544 $-1 $335 1 #
straight-curve $-1 0.0195475517797477 0.217456239711246 0.115 -0.55193698531205804 0.83388582206716799 0 I I #
coedge $-1 $535 $336 $432 $539 reversed $247 $-1 #
vertex $-1 $433 $545 #
straight-curve $-1 0.0195475517797477 0.217456239711246 0 -0.55193698531205804 0.83388582206716799 0 I I #
coedge $-1 $339 $338 $546 $547 forward $340 $-1 #
edge $-1 $342 -4.2109398691266611e-017 $548 0.050425510337567384 $348 $549 forward 7 unknown #
edge $550 $551 -0.050425510337567384 $341 4.2109398691266611e-017 $439 $552 reversed 7 unknown #
face $553 $169 $340 $10 $-1 $554 forward single #
point $-1 0.0060000000000000097 0.237924357727409 0.115 #
point $-1 0.0060000000000000097 0.237924357727409 0 #
pid_name-sg-attrib $-1 $-1 $347 $169 7 114 119 105 108 115 111 110 784252905 625 1 #
coedge $-1 $348 $555 $556 $557 reversed $247 $-1 #
straight-curve $-1 -0.21299999999999969 0.22549999999999992 0 0 0 -1 I I #
point $-1 -0.21299999999999969 -0.22549999999999992 -0.05750000000000012 #
straight-curve $-1 -0.21299999999999969 0 -0.05750000000000012 0 1 0 I I #
point $-1 -0.21299999999999969 0.22549999999999992 -0.05750000000000012 #
point $-1 0.17824999999999999 0 -0.089125000000000149 #
point $-1 0.17824999999999999 0 -0.089125000000000121 #
face $-1 $558 $559 $35 $-1 $560 reversed single #
loop $-1 $-1 $512 $372 #
coedge $-1 $561 $562 $563 $564 reversed $373 $-1 #
coedge $-1 $565 $375 $376 $464 forward $290 $-1 #
coedge $-1 $375 $565 $566 $567 reversed $290 $-1 #
edge $-1 $414 -1.2490009027033011e-016 $510 0.11500000000000012 $376 $568 forward 7 unknown #
coedge $-1 $569 $570 $377 $466 forward $571 $-1 #
edge $-1 $476 -1.7118594786666252 $470 -0.28212630374345871 $465 $403 forward 7 unknown #
coedge $-1 $572 $378 $383 $482 reversed $469 $-1 #
coedge $-1 $378 $572 $569 $573 reversed $469 $-1 #
loop $-1 $-1 $467 $558 #
vertex $-1 $573 $574 #
straight-curve $-1 0.029946902327153052 0.19838428827441767 0.057499999999999996 0 0 1 I I #
coedge $-1 $493 $380 $575 $576 reversed $475 $-1 #
coedge $-1 $380 $493 $577 $578 reversed $475 $-1 #
coedge $-1 $579 $580 $581 $381 forward $582 $-1 #
loop $-1 $-1 $380 $583 #
vertex $-1 $584 $585 #
straight-curve $-1 0.21299999999999969 -0.012500000000000261 0.057499999999999996 0 0 1 I I #
coedge $-1 $563 $382 $586 $587 forward $384 $-1 #
coedge $-1 $581 $588 $382 $480 reversed $589 $-1 #
edge $-1 $386 -0.012500000000000261 $590 0.22549999999999992 $479 $591 forward 7 unknown #
coedge $-1 $383 $563 $592 $593 forward $384 $-1 #
edge $-1 $594 -0.84504787550507388 $385 4.0055246927934736e-015 $383 $595 forward 7 unknown #
face $-1 $596 $384 $35 $-1 $421 forward single #
point $-1 0.029946902327153052 0.19838428827441767 0.05750000000000012 #
point $-1 0.21299999999999969 -0.012500000000000261 0.05750000000000012 #
coedge $-1 $487 $387 $390 $490 forward $488 $-1 #
coedge $-1 $387 $486 $406 $506 forward $488 $-1 #
loop $-1 $-1 $387 $522 #
coedge $-1 $390 $389 $497 $597 forward $392 $-1 #
edge $-1 $393 9.3104412049272926e-017 $598 0.21299999999999969 $390 $599 forward 7 unknown #
coedge $-1 $600 $391 $601 $602 reversed $494 $-1 #
coedge $-1 $391 $600 $603 $398 reversed $494 $-1 #
coedge $-1 $473 $472 $211 $299 forward $475 $-1 #
loop $-1 $-1 $391 $604 #
face $-1 $408 $392 $35 $-1 $605 reversed single #
point $-1 -9.3104412049272926e-017 -0.22549999999999992 -0.057500000000000107 #
coedge $-1 $395 $406 $489 $597 reversed $407 $-1 #
straight-curve $-1 0 -0.22549999999999992 0.05750000000000012 1 0 0 I I #
vertex $-1 $606 $607 #
coedge $-1 $608 $400 $609 $610 forward $402 $-1 #
coedge $-1 $401 $608 $565 $611 forward $402 $-1 #
coedge $-1 $416 $609 $404 $503 reversed $518 $-1 #
edge $-1 $418 -0.05750000000000012 $504 0.05750000000000012 $502 $612 forward 7 unknown #
vertex $-1 $610 $613 #
straight-curve $-1 -0.21299999999999969 0 -0.05750000000000012 0 1 0 I I #
edge $-1 $598 -0.22549999999999992 $310 -0.012500000000000261 $406 $505 forward 7 unknown #
face $-1 $604 $407 $35 $-1 $509 reversed single #
face $-1 $614 $615 $35 $-1 $616 reversed single #
plane-surface $-1 -0.21299999999999969 0 0 1 0 0 0 0 -1 forward_v I I I I #
vertex $-1 $410 $617 #
ellipse-curve $-1 -0.032055839110755324 0.21323529449092676 -0.05750000000000012 0 0 -1 0.012508287331007485 -0.0082790547796808556 0 1 I I #
coedge $-1 $566 $618 $412 $513 reversed $460 $-1 #
edge $-1 $514 -0.050425510337567481 $519 -0.025212755168781405 $412 $619 forward 7 unknown #
vertex $-1 $413 $620 #
straight-curve $-1 -0.063735926426227635 0.13819488814670383 0.05750000000000012 0.55193698531205848 0.83388582206716799 0 I I #
point $-1 -0.019547551779747839 0.20495623971124588 0.05750000000000012 #
coedge $-1 $609 $416 $618 $621 reversed $518 $-1 #
loop $-1 $-1 $517 $622 #
vertex $-1 $417 $623 #
straight-curve $-1 0 0.22549999999999992 0.05750000000000012 -1 0 0 I I #
point $-1 -0.21299999999999969 0.22549999999999992 0.05750000000000012 #
face $-1 $624 $488 $35 $-1 $523 reversed single #
plane-surface $-1 0 0 -0.05750000000000012 0 0 1 1 0 0 forward_v I I I I #
point $-1 -0.21299999999999969 -0.22549999999999992 0.05750000000000012 #
pid_name-sg-attrib $-1 $-1 $423 $228 7 114 119 105 108 115 111 110 784252905 621 1 #
pid_name-sg-attrib $-1 $-1 $424 $325 7 114 119 105 108 115 111 110 784252905 622 1 #
model_id-kcp-attrib $-1 $625 $-1 $425 1 990660901 60 -1925447679 10 #
loop $-1 $-1 $626 $425 #
plane-surface $-1 -0.0060000000000000001 0.237924357727409 0 -0.83388582206716821 0.55193698531205815 0 0 0 1 forward_v I I I I #
coedge $-1 $627 $628 $428 $532 forward $426 $-1 #
coedge $-1 $428 $439 $629 $630 reversed $326 $-1 #
edge $631 $632 -1.0540854454719727e-015 $633 0.84504787550506311 $428 $634 forward 7 unknown #
coedge $-1 $430 $429 $628 $635 reversed $229 $-1 #
edge $636 $437 -6.0010590034361275 $632 0 $434 $637 reversed 7 unknown #
coedge $-1 $555 $442 $430 $536 reversed $247 $-1 #
edge $-1 $638 0 $537 6.0010590034361275 $535 $639 forward 7 unknown #
vertex $-1 $431 $640 #
straight-curve $-1 0.029946902327153 0.21088428827441799 0 0 0 1 I I #
edge $-1 $537 -0.84504787550508043 $443 -6.44497958088604e-015 $442 $641 reversed 7 unknown #
straight-curve $-1 0.0195475517797477 0.217456239711246 0 0 0 1 I I #
convexity-sys-attrib $-1 $-1 $435 $332 #
point $-1 0.0195475517797477 0.217456239711246 0.115 #
point $-1 0.029946902327153 0.21088428827441799 0.115 #
convexity-sys-attrib $-1 $-1 $440 $335 #
point $-1 0.0195475517797477 0.217456239711246 0 #
coedge $-1 $556 $629 $445 $547 reversed $528 $-1 #
edge $-1 $548 0 $551 0.115 $546 $642 forward 7 unknown #
vertex $-1 $547 $643 #
ellipse-curve $-1 0 0 0 0 0 1 0.0060000000000000001 0.237924357727409 0 1 I I #
attrib_edge_convexity-kcp-attrib $-1 $644 $-1 $447 1 #
vertex $-1 $547 $645 #
ellipse-curve $-1 0 0 0.115 0 0 1 0.0060000000000000001 0.237924357727409 0 1 I I #
model_id-kcp-attrib $-1 $646 $-1 $448 1 990660901 60 -1925447679 11 #
cone-surface $-1 0 0 0 0 0 1 0.23799999999999999 0 0 1 I I 0 1 0.23799999999999999 forward I I I I #
coedge $-1 $452 $535 $647 $648 reversed $247 $-1 #
coedge $-1 $626 $546 $452 $557 forward $528 $-1 #
edge $-1 $548 -1.1010767525327978e-017 $649 0.024545468305748858 $452 $650 forward 7 unknown #
face $-1 $583 $469 $35 $-1 $651 reversed single #
loop $-1 $-1 $592 $459 #
plane-surface $-1 0.0060000000000000123 0.22542435772740876 0.057499999999999996 0.83388582206716821 0.55193698531205826 0 0 0 -1 forward_v I I I I #
coedge $-1 $652 $461 $653 $621 reversed $373 $-1 #
coedge $-1 $461 $652 $654 $655 reversed $373 $-1 #
coedge $-1 $481 $478 $461 $564 forward $384 $-1 #
edge $-1 $519 -0.025212755168781405 $656 7.6562543075030214e-018 $563 $619 forward 7 unknown #
coedge $-1 $463 $462 $501 $611 reversed $290 $-1 #
coedge $-1 $657 $512 $463 $567 forward $460 $-1 #
edge $-1 $514 -1.2490009027033011e-016 $658 0.11500000000000012 $463 $659 forward 7 unknown #
straight-curve $-1 -0.019547551779747839 0.20495623971124588 0.057499999999999996 0 0 -1 I I #
coedge $-1 $660 $465 $468 $573 forward $571 $-1 #
coedge $-1 $465 $661 $662 $663 forward $571 $-1 #
loop $-1 $-1 $465 $664 #
coedge $-1 $468 $467 $665 $666 forward $469 $-1 #
edge $-1 $470 -4.0055246927934736e-015 $667 0.84504787550507388 $569 $668 forward 7 unknown #
point $-1 0.029946902327153052 0.19838428827441767 -0.05750000000000012 #
coedge $-1 $669 $601 $472 $576 forward $670 $-1 #
edge $-1 $393 3.0005295017180647 $476 4.5713258285129612 $575 $403 forward 7 unknown #
coedge $-1 $603 $671 $473 $578 forward $672 $-1 #
edge $-1 $386 1.7118594786666252 $303 3.2826558054615216 $577 $225 forward 7 unknown #
coedge $-1 $673 $474 $671 $606 reversed $582 $-1 #
coedge $-1 $474 $673 $669 $584 reversed $582 $-1 #
coedge $-1 $662 $479 $294 $381 reversed $589 $-1 #
loop $-1 $-1 $474 $614 #
face $-1 $507 $475 $35 $-1 $68 reversed single #
edge $-1 $476 0.012500000000000261 $674 0.22549999999999992 $580 $675 forward 7 unknown #
point $-1 0.21299999999999969 -0.012500000000000261 -0.057500000000000107 #
coedge $-1 $676 $653 $478 $587 reversed $615 $-1 #
edge $-1 $590 -0.21299999999999969 $519 -5.6592313642571202e-016 $586 $520 forward 7 unknown #
coedge $-1 $479 $662 $676 $677 reversed $589 $-1 #
loop $-1 $-1 $581 $678 #
vertex $-1 $480 $679 #
straight-curve $-1 0.21299999999999969 0 0.05750000000000012 0 1 0 I I #
coedge $-1 $654 $665 $481 $593 reversed $559 $-1 #
edge $-1 $656 -0.092333276972805647 $594 -0.067787808667056804 $481 $680 forward 7 unknown #
vertex $-1 $593 $681 #
ellipse-curve $-1 0.032055839110755206 0.21323529449092676 0.05750000000000012 0 0 1 -0.0021089367836021125 -0.014851006216508367 0 1 I I #
face $-1 $397 $672 $35 $-1 $421 forward single #
edge $-1 $422 -0.05750000000000012 $598 0.05750000000000012 $497 $682 forward 7 unknown #
vertex $-1 $506 $683 #
straight-curve $-1 0 -0.22549999999999992 -0.05750000000000012 -1 0 0 I I #
coedge $-1 $492 $491 $673 $684 reversed $494 $-1 #
coedge $-1 $575 $669 $491 $602 forward $670 $-1 #
edge $-1 $674 -0.21299999999999969 $393 9.3104412049272926e-017 $491 $599 forward 7 unknown #
coedge $-1 $671 $577 $492 $398 forward $672 $-1 #
face $-1 $678 $494 $35 $-1 $605 reversed single #
plane-surface $-1 0 -0.22549999999999992 0 0 1 0 0 0 1 forward_v I I I I #
edge $-1 $499 -0.22549999999999992 $386 -0.012500000000000261 $579 $591 forward 7 unknown #
point $-1 0.21299999999999969 -0.22549999999999992 0.05750000000000012 #
coedge $-1 $501 $500 $657 $685 forward $402 $-1 #
coedge $-1 $502 $517 $500 $610 reversed $518 $-1 #
edge $-1 $504 -0.21299999999999969 $686 5.6592313642571202e-016 $609 $687 forward 7 unknown #
edge $-1 $658 -0.10460601112568005 $510 -0.080060542819931219 $501 $688 forward 7 unknown #
straight-curve $-1 -0.21299999999999969 0.22549999999999992 0 0 0 -1 I I #
point $-1 -0.21299999999999969 0.22549999999999992 -0.05750000000000012 #
face $-1 $-1 $582 $35 $-1 $689 reversed single #
loop $-1 $-1 $653 $508 #
plane-surface $-1 0 0.22549999999999992 0 0 -1 0 0 0 -1 forward_v I I I I #
point $-1 -0.019547551779747839 0.20495623971124588 -0.05750000000000012 #
coedge $-1 $512 $657 $561 $621 forward $460 $-1 #
ellipse-curve $-1 5.6592313642571202e-016 -0.012500000000000233 0.05750000000000012 0 0 -1 0.005999999999999445 0.237924357727409 0 1 I I #
point $-1 -0.0059999999999999915 0.22542435772740876 0.05750000000000012 #
edge $-1 $686 -0.11500000000000012 $519 1.2490009027033011e-016 $653 $690 forward 7 unknown #
face $-1 $495 $518 $35 $-1 $616 reversed single #
point $-1 5.6592313642571202e-016 0.22549999999999992 0.05750000000000012 #
face $-1 $664 $670 $35 $-1 $523 reversed single #
pid_name-sg-attrib $-1 $-1 $527 $425 7 114 119 105 108 115 111 110 784252905 623 1 #
coedge $-1 $629 $556 $627 $691 reversed $528 $-1 #
coedge $-1 $647 $530 $626 $691 forward $426 $-1 #
coedge $-1 $530 $647 $533 $635 forward $426 $-1 #
coedge $-1 $546 $626 $531 $630 forward $528 $-1 #
edge $692 $633 -0.024545468305748858 $551 1.1010767525327978e-017 $531 $693 reversed 7 unknown #
attrib_edge_convexity-kcp-attrib $-1 $694 $-1 $532 1 #
vertex $-1 $635 $695 #
vertex $-1 $691 $696 #
ellipse-curve $-1 -0.032055839110755303 0.225735294490927 0.115 0 0 1 0.0021089367836023198 -0.014851006216508301 0 1 I I #
edge $-1 $638 0 $632 0.115 $533 $697 forward 7 unknown #
attrib_edge_convexity-kcp-attrib $-1 $698 $-1 $534 1 #
ellipse-curve $-1 0 0 0.115 -8.2443316008247101e-017 5.8056088170488999e-016 1 -0.029946902327152899 0.21088428827441799 -1.2490009027033001e-016 1 I I #
vertex $-1 $635 $699 #
ellipse-curve $-1 0 0 0 0 0 1 -0.029946902327152899 0.21088428827441799 0 1 I I #
point $-1 0.029946902327153 0.21088428827441799 0 #
ellipse-curve $-1 0.032055839110755199 0.225735294490927 0 0 0 1 -0.012508287331007501 -0.0082790547796808799 0 1 I I #
straight-curve $-1 -0.0059999999999999802 0.237924357727409 0 0 0 1 I I #
point $-1 -0.0059999999999999802 0.237924357727409 0 #
convexity-sys-attrib $-1 $-1 $550 $447 #
point $-1 -0.0059999999999999802 0.237924357727409 0.115 #
pid_name-sg-attrib $-1 $-1 $553 $448 7 114 119 105 108 115 111 110 784252905 624 1 #
coedge $-1 $628 $627 $555 $648 forward $426 $-1 #
edge $-1 $649 -0.84504787550506311 $638 1.0540854454719727e-015 $555 $700 reversed 7 unknown #
vertex $-1 $691 $701 #
straight-curve $-1 -0.0060000000000000001 0.237924357727409 0 -0.55193698531205804 -0.83388582206716799 0 I I #
cone-surface $-1 0.032055839110755206 0.21323529449092676 0.057499999999999996 0 0 1 -0.0021089367836021125 -0.014851006216508367 0 1 I I 0 -1 0.015000000000000006 forward I I I I #
coedge $-1 $562 $561 $702 $703 reversed $373 $-1 #
coedge $-1 $586 $704 $517 $621 forward $615 $-1 #
coedge $-1 $705 $592 $562 $655 forward $559 $-1 #
edge $-1 $656 -1.2490009027033011e-016 $706 0.11500000000000012 $562 $707 forward 7 unknown #
vertex $-1 $564 $708 #
coedge $-1 $618 $566 $608 $685 reversed $460 $-1 #
vertex $-1 $611 $709 #
straight-curve $-1 -0.0059999999999999915 0.22542435772740876 0.057499999999999996 0 0 -1 I I #
coedge $-1 $702 $569 $705 $710 forward $571 $-1 #
coedge $-1 $570 $702 $704 $711 forward $571 $-1 #
coedge $-1 $588 $581 $570 $663 reversed $589 $-1 #
edge $-1 $712 -0.22549999999999992 $476 0.012500000000000261 $662 $675 forward 7 unknown #
face $-1 $622 $571 $35 $-1 $523 reversed single #
coedge $-1 $592 $705 $572 $666 reversed $559 $-1 #
edge $-1 $594 -1.2490009027033011e-016 $667 0.11500000000000012 $665 $713 forward 7 unknown #
vertex $-1 $710 $714 #
ellipse-curve $-1 0.032055839110755206 0.21323529449092676 -0.05750000000000012 0 0 -1 -0.0021089367836021125 -0.014851006216508367 0 1 I I #
coedge $-1 $601 $575 $580 $584 forward $670 $-1 #
loop $-1 $-1 $575 $624 #
coedge $-1 $577 $603 $579 $606 forward $672 $-1 #
loop $-1 $-1 $577 $596 #
coedge $-1 $580 $579 $600 $684 forward $582 $-1 #
vertex $-1 $684 $715 #
straight-curve $-1 0.21299999999999969 0 -0.05750000000000012 0 -1 0 I I #
coedge $-1 $704 $586 $588 $677 forward $615 $-1 #
edge $-1 $590 -0.05750000000000012 $712 0.05750000000000012 $588 $716 forward 7 unknown #
face $-1 $483 $589 $35 $-1 $689 reversed single #
point $-1 0.21299999999999969 0.22549999999999992 0.05750000000000012 #
straight-curve $-1 0.056962150536353659 0.14842894715478522 0.05750000000000012 0.55193698531205826 -0.83388582206716821 0 I I #
point $-1 0.0195475517797477 0.20495623971124577 0.05750000000000012 #
straight-curve $-1 -0.21299999999999969 -0.22549999999999992 0 0 0 -1 I I #
point $-1 -0.21299999999999969 -0.22549999999999992 -0.05750000000000012 #
edge $-1 $499 -0.05750000000000012 $674 0.05750000000000012 $673 $717 forward 7 unknown #
edge $-1 $686 0.025212755168781405 $658 0.050425510337567481 $608 $718 forward 7 unknown #
vertex $-1 $711 $719 #
straight-curve $-1 0 0.22549999999999992 -0.05750000000000012 1 0 0 I I #
straight-curve $-1 -0.063735926426227635 0.13819488814670383 -0.05750000000000012 -0.55193698531205848 -0.83388582206716799 0 I I #
plane-surface $-1 0.21299999999999969 0 0 -1 0 0 0 0 1 forward_v I I I I #
straight-curve $-1 5.6592313642571202e-016 0.22549999999999992 0.057499999999999996 0 0 1 I I #
edge $-1 $633 -0.115 $649 0 $626 $720 reversed 7 unknown #
attrib_edge_convexity-kcp-attrib $-1 $721 $-1 $630 1 #
straight-curve $-1 -0.0060000000000000001 0.237924357727409 0.115 -0.55193698531205804 -0.83388582206716799 0 I I #
convexity-sys-attrib $-1 $-1 $631 $532 #
point $-1 -0.029946902327152899 0.21088428827441799 0.115 #
point $-1 -0.0195475517797477 0.217456239711246 0.115 #
straight-curve $-1 -0.029946902327152899 0.21088428827441799 0 0 0 1 I I #
convexity-sys-attrib $-1 $-1 $636 $534 #
point $-1 -0.029946902327152899 0.21088428827441799 0 #
ellipse-curve $-1 -0.032055839110755303 0.225735294490927 0 0 0 1 0.0021089367836023198 -0.014851006216508301 0 1 I I #
point $-1 -0.0195475517797477 0.217456239711246 0 #
coedge $-1 $661 $660 $652 $703 forward $571 $-1 #
edge $-1 $706 -7.6562543075030214e-018 $686 0.025212755168781405 $702 $718 forward 7 unknown #
coedge $-1 $653 $676 $661 $711 reversed $615 $-1 #
coedge $-1 $665 $654 $660 $710 reversed $559 $-1 #
vertex $-1 $703 $722 #
straight-curve $-1 0.0060000000000000123 0.22542435772740876 0.057499999999999996 0 0 -1 I I #
point $-1 0.0060000000000000123 0.22542435772740876 0.05750000000000012 #
point $-1 -0.0059999999999999915 0.22542435772740876 -0.05750000000000012 #
edge $-1 $667 0.067787808667056804 $706 0.092333276972805647 $660 $723 forward 7 unknown #
edge $-1 $686 5.6592313642571202e-016 $712 0.21299999999999969 $704 $687 forward 7 unknown #
vertex $-1 $663 $724 #
straight-curve $-1 0.0195475517797477 0.20495623971124577 0.057499999999999996 0 0 -1 I I #
point $-1 0.0195475517797477 0.20495623971124577 -0.05750000000000012 #
point $-1 0.21299999999999969 -0.22549999999999992 -0.05750000000000012 #
straight-curve $-1 0.21299999999999969 0.22549999999999992 0 0 0 -1 I I #
straight-curve $-1 0.21299999999999969 -0.22549999999999992 0 0 0 -1 I I #
ellipse-curve $-1 5.6592313642571202e-016 -0.012500000000000233 -0.05750000000000012 0 0 1 0.005999999999999445 0.237924357727409 0 1 I I #
point $-1 5.6592313642571202e-016 0.22549999999999992 -0.05750000000000012 #
straight-curve $-1 -0.0195475517797477 0.217456239711246 0 0 0 1 I I #
convexity-sys-attrib $-1 $-1 $692 $630 #
point $-1 0.0060000000000000123 0.22542435772740876 -0.05750000000000012 #
straight-curve $-1 0.056962150536353659 0.14842894715478522 -0.057500000000000134 -0.55193698531205826 0.83388582206716821 0 I I #
point $-1 0.21299999999999969 0.22549999999999992 -0.05750000000000012 #
End-of-ACIS-data 