105 173 1 0                             
body $-1 $1 $-1 $2 #
lump $-1 $-1 $3 $0 #
transform $-1 1 0 0 0 1 0 0 0 1 0 0 0 1 0 0 0 #
shell $-1 $-1 $-1 $4 $1 #
face $5 $6 $7 $3 $-1 $8 reversed single #
pid_name-sg-attrib $-1 $-1 $-1 $4 7 114 119 105 108 115 111 110 784252905 615 1 #
face $9 $10 $11 $3 $-1 $12 reversed single #
loop $-1 $13 $14 $4 #
cone-surface $-1 0 0 -0.82175 0 0 -1 0.999999999999999 0 0 1 0.707106781186547 0.707106781186548 0 #
pid_name-sg-attrib $-1 $-1 $-1 $6 7 114 119 105 108 115 111 110 784252905 616 1 #
face $15 $16 $17 $3 $-1 $18 reversed single #
loop $-1 $19 $20 $6 #
cone-surface $-1 0 0 0 0 0 1 0.15825 0 0 1 0 1 0 #
loop $-1 $-1 $21 $4 #
coedge $-1 $14 $14 $22 $23 0 $7 $-1 #
pid_name-sg-attrib $-1 $-1 $-1 $10 7 114 119 105 108 115 111 110 784252905 617 1 #
face $24 $25 $26 $3 $-1 $27 forward single #
loop $-1 $28 $29 $10 #
cone-surface $-1 0 0 0.93675 0 0 1 0.999999999999999 0 0 1 0.707106781186547 0.707106781186548 0 #
loop $-1 $-1 $30 $6 #
coedge $-1 $20 $20 $31 $32 1 $11 $-1 #
coedge $-1 $21 $21 $30 $33 0 $13 $-1 #
coedge $-1 $22 $22 $14 $23 1 $34 $-1 #
edge $-1 $35 $35 $22 $36 0 #
pid_name-sg-attrib $-1 $-1 $-1 $16 7 114 119 105 108 115 111 110 784252905 618 1 #
face $37 $38 $39 $3 $-1 $40 reversed single #
loop $-1 $-1 $41 $16 #
plane-surface $-1 0.0233465018281171 0.211716652279384 0 0.833885822067168 0.551936985312058 0 0 0 -1 0 #
loop $-1 $-1 $31 $10 #
coedge $-1 $29 $29 $42 $43 0 $17 $-1 #
coedge $-1 $30 $30 $21 $33 1 $19 $-1 #
coedge $-1 $31 $31 $20 $32 0 $28 $-1 #
edge $-1 $44 $44 $20 $45 0 #
edge $-1 $46 $46 $30 $47 1 #
loop $-1 $-1 $22 $48 #
vertex $-1 $23 $49 #
ellipse-curve $-1 0 0 -5.55111512312578e-17 -3.11423008310002e-16 0 -1 -0.17825 0 5.55111512312578e-17 1 #
pid_name-sg-attrib $-1 $-1 $-1 $25 7 114 119 105 108 115 111 110 784252905 619 1 #
face $50 $51 $52 $3 $-1 $53 forward single #
loop $-1 $-1 $54 $25 #
cone-surface $-1 0.0320558391107552 0.225735294490927 0 0 0 1 -0.0125082873310075 -0.00827905477968088 0 1 0 1 0 #
coedge $-1 $55 $56 $57 $58 1 $26 $-1 #
coedge $-1 $42 $42 $29 $43 1 $59 $-1 #
edge $-1 $60 $60 $42 $61 1 #
vertex $-1 $32 $62 #
ellipse-curve $-1 0 0 0.095 -1.75390683195127e-16 4.29569090084001e-32 -1 0.15825 -3.87587910984783e-17 -2.77555756156289e-17 1 #
vertex $-1 $33 $63 #
ellipse-curve $-1 0 0 0.02 1.75390683195127e-16 -4.29569090084001e-32 -1 0.15825 -3.87587910984782e-17 2.77555756156289e-17 1 #
face $64 $-1 $65 $3 $-1 $66 reversed single #
point $-1 0.17825 0 0 #
pid_name-sg-attrib $-1 $-1 $-1 $38 7 114 119 105 108 115 111 110 784252905 620 1 #
face $67 $68 $69 $3 $-1 $70 forward single #
loop $-1 $-1 $71 $38 #
cone-surface $-1 0 0 0 0 0 1 0.213 0 0 1 0 1 0 #
coedge $-1 $72 $73 $74 $75 0 $39 $-1 #
coedge $-1 $76 $41 $77 $78 0 $26 $-1 #
coedge $-1 $41 $76 $79 $80 0 $26 $-1 #
coedge $-1 $81 $82 $41 $58 0 $83 $-1 #
edge $-1 $84 $85 $41 $86 1 #
loop $-1 $-1 $42 $51 #
vertex $-1 $43 $87 #
ellipse-curve $-1 0 0 0.115 3.11423008310002e-16 0 -1 -0.17825 0 -5.55111512312578e-17 1 #
point $-1 -0.15825 1.93793955492391e-17 0.095 #
point $-1 0.15825 0 0.02 #
pid_name-sg-attrib $-1 $-1 $-1 $48 7 114 119 105 108 115 111 110 784252905 625 1 #
loop $-1 $34 $88 $48 #
plane-surface $-1 0 0 0 0 0 1 1 0 0 0 #
pid_name-sg-attrib $-1 $-1 $-1 $51 7 114 119 105 108 115 111 110 784252905 621 1 #
face $89 $90 $91 $3 $-1 $92 reversed single #
loop $-1 $59 $93 $51 #
plane-surface $-1 0 0 0.115 0 0 1 1 0 0 0 #
coedge $-1 $94 $95 $72 $96 1 $52 $-1 #
coedge $-1 $97 $54 $71 $96 0 $39 $-1 #
coedge $-1 $54 $97 $76 $98 0 $39 $-1 #
coedge $-1 $77 $99 $54 $75 1 $69 $-1 #
edge $-1 $100 $101 $74 $102 0 #
coedge $-1 $56 $55 $73 $98 1 $26 $-1 #
coedge $-1 $103 $74 $55 $78 1 $69 $-1 #
edge $-1 $84 $100 $77 $104 1 #
coedge $-1 $105 $88 $56 $80 1 $65 $-1 #
edge $-1 $106 $85 $79 $107 0 #
coedge $-1 $108 $57 $88 $109 0 $83 $-1 #
coedge $-1 $57 $108 $103 $110 0 $83 $-1 #
loop $-1 $-1 $108 $111 #
vertex $-1 $58 $112 #
vertex $-1 $58 $113 #
straight-curve $-1 0.00600000000000001 0.237924357727409 0 0 0 1 #
point $-1 -0.17825 2.18286082568839e-17 0.115 #
coedge $-1 $79 $114 $81 $109 1 $65 $-1 #
pid_name-sg-attrib $-1 $-1 $-1 $68 7 114 119 105 108 115 111 110 784252905 622 1 #
face $115 $111 $116 $3 $-1 $117 forward single #
loop $-1 $-1 $118 $68 #
cone-surface $-1 -0.0320558391107553 0.225735294490927 0 0 0 1 0.00210893678360234 -0.0148510062165083 0 1 0 1 0 #
coedge $-1 $99 $119 $118 $120 1 $69 $-1 #
coedge $-1 $121 $71 $99 $122 0 $52 $-1 #
coedge $-1 $71 $121 $123 $124 0 $52 $-1 #
edge $-1 $101 $125 $71 $126 1 #
coedge $-1 $73 $72 $105 $127 0 $39 $-1 #
edge $-1 $106 $100 $76 $128 0 #
coedge $-1 $74 $93 $94 $122 1 $69 $-1 #
vertex $-1 $98 $129 #
vertex $-1 $96 $130 #
ellipse-curve $-1 0.0320558391107552 0.225735294490927 0.115 0 0 1 -0.0125082873310075 -0.00827905477968088 0 1 #
coedge $-1 $119 $77 $82 $110 1 $69 $-1 #
straight-curve $-1 0.0195475517797477 0.217456239711246 0.115 -0.551936985312058 0.833885822067168 0 #
coedge $-1 $123 $79 $97 $127 1 $65 $-1 #
vertex $-1 $98 $131 #
straight-curve $-1 0.0195475517797477 0.217456239711246 0 -0.551936985312058 0.833885822067168 0 #
coedge $-1 $82 $81 $132 $133 0 $83 $-1 #
edge $-1 $85 $134 $88 $135 0 #
edge $-1 $136 $84 $103 $137 1 #
face $138 $48 $83 $3 $-1 $139 forward single #
point $-1 0.00600000000000001 0.237924357727409 0.115 #
point $-1 0.00600000000000001 0.237924357727409 0 #
coedge $-1 $88 $140 $141 $142 1 $65 $-1 #
pid_name-sg-attrib $-1 $-1 $-1 $90 7 114 119 105 108 115 111 110 784252905 623 1 #
loop $-1 $-1 $143 $90 #
plane-surface $-1 -0.006 0.237924357727409 0 -0.833885822067168 0.551936985312058 0 0 0 1 0 #
coedge $-1 $144 $145 $93 $120 0 $91 $-1 #
coedge $-1 $93 $103 $146 $147 1 $69 $-1 #
edge $-1 $148 $149 $93 $150 0 #
coedge $-1 $95 $94 $145 $151 1 $52 $-1 #
edge $-1 $101 $148 $99 $152 1 #
coedge $-1 $140 $105 $95 $124 1 $65 $-1 #
edge $-1 $153 $125 $123 $154 0 #
vertex $-1 $96 $155 #
straight-curve $-1 0.029946902327153 0.210884288274418 0 0 0 1 #
edge $-1 $125 $106 $105 $156 1 #
straight-curve $-1 0.0195475517797477 0.217456239711246 0 0 0 1 #
point $-1 0.0195475517797477 0.217456239711246 0.115 #
point $-1 0.029946902327153 0.210884288274418 0.115 #
point $-1 0.0195475517797477 0.217456239711246 0 #
coedge $-1 $141 $146 $108 $133 1 $116 $-1 #
edge $-1 $134 $136 $132 $157 0 #
vertex $-1 $133 $158 #
ellipse-curve $-1 0 0 0 0 0 1 0.006 0.237924357727409 0 1 #
vertex $-1 $133 $159 #
ellipse-curve $-1 0 0 0.115 0 0 1 0.006 0.237924357727409 0 1 #
pid_name-sg-attrib $-1 $-1 $-1 $111 7 114 119 105 108 115 111 110 784252905 624 1 #
cone-surface $-1 0 0 0 0 0 1 0.238 0 0 1 0 1 0 #
coedge $-1 $114 $123 $160 $161 1 $65 $-1 #
coedge $-1 $143 $132 $114 $142 0 $116 $-1 #
edge $-1 $134 $162 $114 $163 0 #
coedge $-1 $146 $141 $144 $164 1 $116 $-1 #
coedge $-1 $160 $118 $143 $164 0 $91 $-1 #
coedge $-1 $118 $160 $121 $151 0 $91 $-1 #
coedge $-1 $132 $143 $119 $147 0 $116 $-1 #
edge $-1 $149 $136 $119 $165 1 #
vertex $-1 $151 $166 #
vertex $-1 $164 $167 #
ellipse-curve $-1 -0.0320558391107553 0.225735294490927 0.115 0 0 1 0.00210893678360232 -0.0148510062165083 0 1 #
edge $-1 $153 $148 $121 $168 0 #
ellipse-curve $-1 0 0 0.115 -8.24433160082471e-17 5.8056088170489e-16 1 -0.0299469023271529 0.210884288274418 -1.2490009027033e-16 1 #
vertex $-1 $151 $169 #
ellipse-curve $-1 0 0 0 0 0 1 -0.0299469023271529 0.210884288274418 0 1 #
point $-1 0.029946902327153 0.210884288274418 0 #
ellipse-curve $-1 0.0320558391107552 0.225735294490927 0 0 0 1 -0.0125082873310075 -0.00827905477968088 0 1 #
straight-curve $-1 -0.00599999999999998 0.237924357727409 0 0 0 1 #
point $-1 -0.00599999999999998 0.237924357727409 0 #
point $-1 -0.00599999999999998 0.237924357727409 0.115 #
coedge $-1 $145 $144 $140 $161 0 $91 $-1 #
edge $-1 $162 $153 $140 $170 1 #
vertex $-1 $164 $171 #
straight-curve $-1 -0.006 0.237924357727409 0 -0.551936985312058 -0.833885822067168 0 #
edge $-1 $149 $162 $143 $172 1 #
straight-curve $-1 -0.006 0.237924357727409 0.115 -0.551936985312058 -0.833885822067168 0 #
point $-1 -0.0299469023271529 0.210884288274418 0.115 #
point $-1 -0.0195475517797477 0.217456239711246 0.115 #
straight-curve $-1 -0.0299469023271529 0.210884288274418 0 0 0 1 #
point $-1 -0.0299469023271529 0.210884288274418 0 #
ellipse-curve $-1 -0.0320558391107553 0.225735294490927 0 0 0 1 0.00210893678360232 -0.0148510062165083 0 1 #
point $-1 -0.0195475517797477 0.217456239711246 0 #
straight-curve $-1 -0.0195475517797477 0.217456239711246 0 0 0 1 #
