600 0 2 0           
24 FBMach with ACIS - 6.0.3 13 ACIS 6.0.3 NT 24 Mon Apr 01 16:20:07 2002 
1 9.9999999999999995e-007 1e-010 
body $2 $3 $-1 $4 #
bdycol-kcp $-1 1 5 $5 $6 $7 $8 $9 #
model_id-kcp-attrib $-1 $10 $-1 $0 1 1017696006 70 -2025455615 1 #
lump $-1 $-1 $11 $0 #
transform $-1 1 0 0 0 1 0 0 0 1 0 0 0 1 rotate no_reflect no_shear #
body $12 $13 $-1 $14 #
body $15 $16 $-1 $17 #
body $18 $19 $-1 $20 #
body $21 $22 $-1 $23 #
body $24 $25 $-1 $26 #
aggregate_advspl_attribute-aggregate_geombuild_base_attribute-aggregate_body_attribute-attrib_HH-attrib $-1 $27 $2 $0 F #
shell $-1 $-1 $-1 $28 $-1 $3 #
model_id-kcp-attrib $-1 $-1 $-1 $5 1 1017696006 70 -2025455614 1 #
lump $-1 $-1 $29 $5 #
transform $-1 1 0 0 0 1 0 0 0 1 0 0.012500000000000247 0.057500000000000009 1 no_rotate no_reflect no_shear #
rgb_color-st-attrib $-1 $30 $-1 $6 1 1 0.5 #
lump $-1 $-1 $31 $6 #
transform $-1 1 0 0 0 1 0 0 0 1 0 0 0.089125000000000093 1 rotate no_reflect no_shear #
rgb_color-st-attrib $-1 $32 $-1 $7 1 1 0.5 #
lump $-1 $-1 $33 $7 #
transform $-1 1 0 0 0 -1 0 0 0 -1 0 0 0.025874999999999884 1 rotate no_reflect no_shear #
rgb_color-st-attrib $-1 $34 $-1 $8 0.5 1 1 #
lump $-1 $-1 $35 $8 #
transform $-1 1 0 0 0 1 0 0 0 1 0 0 0.057499999999999975 1 no_rotate no_reflect no_shear #
rgb_color-st-attrib $-1 $36 $-1 $9 0.5 1 1 #
lump $-1 $-1 $37 $9 #
transform $-1 1 0 0 0 1 0 0 0 1 0 0.012500000000000247 0.057500000000000009 1 no_rotate no_reflect no_shear #
aggregate_secndry_attribute-aggregate_geombuild_base_attribute-aggregate_body_attribute-attrib_HH-attrib $-1 $38 $10 $0 F #
face $39 $40 $41 $11 $-1 $42 reversed single #
shell $-1 $-1 $-1 $43 $-1 $13 #
model_id-kcp-attrib $-1 $-1 $15 $6 1 1017696006 80 -2024800253 1 #
shell $-1 $-1 $-1 $44 $-1 $16 #
model_id-kcp-attrib $-1 $-1 $18 $7 1 1017696006 90 -2024144892 1 #
shell $-1 $-1 $-1 $45 $-1 $19 #
model_id-kcp-attrib $-1 $-1 $21 $8 1 1017696006 110 -2022834171 1 #
shell $-1 $-1 $-1 $46 $-1 $22 #
model_id-kcp-attrib $-1 $-1 $24 $9 1 1017696006 170 -2018902010 1 #
shell $-1 $-1 $-1 $47 $-1 $25 #
aggregate_sharped_attribute-aggregate_geombuild_base_attribute-aggregate_body_attribute-attrib_HH-attrib $-1 $48 $27 $0 F #
model_id-kcp-attrib $-1 $49 $-1 $28 1 1017696006 70 -2025455615 2 #
face $50 $51 $52 $11 $-1 $53 reversed single #
loop $54 $55 $56 $28 #
cone-surface $-1 0 0 -0.82174999999999998 0 0 -1 0.999999999999999 0 0 1 I I 0.70710678118654702 0.70710678118654802 0.999999999999999 forward I I I I #
face $57 $58 $59 $29 $-1 $60 forward single #
face $-1 $61 $62 $31 $-1 $63 reversed single #
face $-1 $64 $65 $33 $-1 $66 reversed single #
face $-1 $67 $68 $35 $-1 $69 forward single #
face $-1 $70 $71 $37 $-1 $72 reversed single #
aggregate_reblend_attribute-aggregate_geombuild_base_attribute-aggregate_body_attribute-attrib_HH-attrib $-1 $73 $38 $0 F #
attrib_hh_face_geombuild-attrib_entity_geombuild-individual_entity_attribute-attrib_HH-attrib $-1 $74 $39 $28 F #
model_id-kcp-attrib $-1 $75 $-1 $40 1 1017696006 70 -2025455615 3 #
face $76 $77 $78 $11 $-1 $79 reversed single #
loop $80 $81 $82 $40 #
cone-surface $-1 0 0 0 0 0 1 0.15825 0 0 1 I I 0 1 0.15825 forward I I I I #
model_id-kcp-attrib $-1 $-1 $-1 $41 1 1017696006 70 -2025455615 19 #
loop $83 $-1 $84 $28 #
coedge $85 $56 $56 $86 $87 forward $41 $-1 #
model_id-kcp-attrib $-1 $-1 $-1 $43 1 1017696006 70 -2025455614 2 #
face $88 $89 $90 $29 $-1 $91 reversed single #
loop $-1 $-1 $92 $43 #
plane-surface $-1 0 0 0.05750000000000012 0 0 1 1 0 0 forward_v I I I I #
face $-1 $93 $94 $31 $-1 $95 forward single #
loop $-1 $96 $97 $44 #
cone-surface $-1 0 0 0 0 0 1 0.15825 0 0 1 I I 0 1 0.15825 forward I I I I #
face $-1 $98 $99 $33 $-1 $100 forward single #
loop $-1 $101 $102 $45 #
cone-surface $-1 0 0 0 0 0 1 0.15825 0 0 1 I I 0 1 0.15825 forward I I I I #
face $-1 $103 $104 $35 $-1 $105 forward single #
loop $-1 $106 $107 $46 #
cone-surface $-1 0 0 0 0 0 1 0.15825 0 0 1 I I 0 1 0.15825 forward I I I I #
face $-1 $108 $109 $37 $-1 $72 reversed single #
loop $-1 $-1 $110 $47 #
cone-surface $-1 -9.3104412049272926e-017 -0.012500000000000261 0.057499999999999996 0 0 1 -0.029946902327152802 0.21088428827441799 0 1 I I 0 1 0.21299999999999966 forward I I I I #
aggregate_isospline_attribute-aggregate_geombuild_base_attribute-aggregate_body_attribute-attrib_HH-attrib $-1 $111 $48 $0 F #
pid_name-sg-attrib $-1 $-1 $49 $28 7 rwilson 784252905 615 1 #
attrib_hh_face_geombuild-attrib_entity_geombuild-individual_entity_attribute-attrib_HH-attrib $-1 $112 $50 $40 F #
model_id-kcp-attrib $-1 $113 $-1 $51 1 1017696006 70 -2025455615 4 #
face $114 $115 $116 $11 $-1 $117 forward single #
loop $118 $119 $120 $51 #
cone-surface $-1 0 0 0.93674999999999997 0 0 1 0.999999999999999 0 0 1 I I 0.70710678118654702 0.70710678118654802 0.999999999999999 forward I I I I #
model_id-kcp-attrib $-1 $-1 $-1 $52 1 1017696006 70 -2025455615 15 #
loop $121 $-1 $122 $40 #
coedge $123 $82 $82 $124 $125 reversed $52 $-1 #
model_id-kcp-attrib $-1 $-1 $-1 $55 1 1017696006 70 -2025455615 20 #
coedge $126 $84 $84 $122 $127 forward $55 $-1 #
attrib_hh_coedge_geombuild-attrib_entity_geombuild-individual_entity_attribute-attrib_HH-attrib $-1 $-1 $-1 $56 F #
coedge $128 $86 $86 $56 $87 reversed $129 $-1 #
edge $130 $131 -3.1415926535897931 $131 3.1415926535897931 $86 $132 forward 7 unknown #
model_id-kcp-attrib $-1 $-1 $-1 $58 1 1017696006 70 -2025455614 3 #
face $-1 $133 $134 $29 $-1 $135 reversed single #
loop $-1 $-1 $136 $58 #
plane-surface $-1 0 0 -0.05750000000000012 0 0 1 1 0 0 forward_v I I I I #
coedge $-1 $137 $138 $139 $140 forward $59 $-1 #
face $-1 $-1 $141 $31 $-1 $142 forward single #
loop $-1 $143 $144 $61 #
cone-surface $-1 0 0 0 0 0 1 0.089124999999999996 0 0 1 I I -0.7071067811865468 0.70710678118654802 0.089124999999999996 forward I I I I #
loop $-1 $-1 $145 $44 #
coedge $-1 $97 $97 $144 $146 reversed $62 $-1 #
face $-1 $-1 $147 $33 $-1 $148 forward single #
loop $-1 $149 $150 $64 #
cone-surface $-1 0 0 0 0 0 1 0.089124999999999996 0 0 1 I I -0.70710678118654702 0.70710678118654802 0.089124999999999996 forward I I I I #
loop $-1 $-1 $151 $45 #
coedge $-1 $102 $102 $150 $152 reversed $65 $-1 #
face $-1 $-1 $153 $35 $-1 $154 forward single #
loop $-1 $-1 $155 $67 #
plane-surface $-1 0 0 -0.05750000000000003 0 0 -1 -1 0 0 forward_v I I I I #
loop $-1 $-1 $156 $46 #
coedge $-1 $107 $107 $155 $157 reversed $68 $-1 #
face $-1 $158 $159 $37 $-1 $72 reversed single #
loop $-1 $-1 $160 $70 #
coedge $-1 $161 $162 $163 $164 reversed $71 $-1 #
aggregate_analytic_solver_attribute-aggregate_geombuild_base_attribute-aggregate_body_attribute-attrib_HH-attrib $-1 $165 $73 $0 F #
pid_name-sg-attrib $-1 $-1 $75 $40 7 rwilson 784252905 616 1 #
attrib_hh_face_geombuild-attrib_entity_geombuild-individual_entity_attribute-attrib_HH-attrib $-1 $166 $76 $51 F #
model_id-kcp-attrib $-1 $167 $-1 $77 1 1017696006 70 -2025455615 5 #
face $168 $169 $170 $11 $-1 $171 reversed single #
loop $-1 $-1 $172 $77 #
plane-surface $-1 0.023346501828117101 0.21171665227938399 0 0.83388582206716821 0.55193698531205815 0 0 0 -1 forward_v I I I I #
model_id-kcp-attrib $-1 $-1 $-1 $78 1 1017696006 70 -2025455615 17 #
loop $173 $-1 $124 $51 #
coedge $174 $120 $120 $175 $176 forward $78 $-1 #
model_id-kcp-attrib $-1 $-1 $-1 $81 1 1017696006 70 -2025455615 16 #
coedge $177 $122 $122 $84 $127 reversed $81 $-1 #
attrib_hh_coedge_geombuild-attrib_entity_geombuild-individual_entity_attribute-attrib_HH-attrib $-1 $-1 $-1 $82 F #
coedge $178 $124 $124 $82 $125 forward $119 $-1 #
edge $179 $180 -3.1415926535897931 $180 3.1415926535897931 $82 $181 forward 7 unknown #
attrib_hh_coedge_geombuild-attrib_entity_geombuild-individual_entity_attribute-attrib_HH-attrib $-1 $-1 $-1 $84 F #
edge $182 $183 -6.2831853071795862 $183 2.4492127076447521e-016 $122 $184 reversed 7 unknown #
attrib_hh_coedge_geombuild-attrib_entity_geombuild-individual_entity_attribute-attrib_HH-attrib $-1 $-1 $-1 $86 F #
loop $185 $-1 $86 $186 #
attrib_edge_convexity-kcp-attrib $-1 $187 $-1 $87 1 #
vertex $188 $87 $189 #
ellipse-curve $-1 0 0 -5.5511151231257802e-017 -3.1142300831000202e-016 0 -1 -0.17824999999999999 0 5.5511151231257802e-017 1 I I #
face $-1 $190 $191 $29 $-1 $192 reversed single #
loop $-1 $-1 $193 $89 #
plane-surface $-1 0 -0.22549999999999992 0 0 1 0 0 0 1 forward_v I I I I #
coedge $-1 $194 $195 $196 $197 forward $90 $-1 #
coedge $-1 $198 $92 $199 $200 forward $59 $-1 #
coedge $-1 $92 $198 $201 $202 forward $59 $-1 #
coedge $-1 $203 $204 $92 $140 reversed $205 $-1 #
edge $-1 $206 -0.22549999999999992 $207 0.22549999999999992 $139 $208 forward 7 unknown #
loop $-1 $209 $210 $93 #
plane-surface $-1 0 0 -0.089125000000000149 0 0 -1 -1 0 0 forward_v I I I I #
loop $-1 $-1 $211 $61 #
coedge $-1 $144 $144 $97 $146 forward $94 $-1 #
coedge $-1 $145 $145 $210 $212 reversed $96 $-1 #
edge $-1 $213 -3.1415926535897931 $213 3.1415926535897931 $144 $214 forward 7 unknown #
loop $-1 $215 $216 $98 #
plane-surface $-1 0 0 -0.089125000000000121 0 0 -1 -1 0 0 forward_v I I I I #
loop $-1 $-1 $217 $64 #
coedge $-1 $150 $150 $102 $152 forward $99 $-1 #
coedge $-1 $151 $151 $216 $218 reversed $101 $-1 #
edge $-1 $219 -3.1415926535897931 $219 3.1415926535897931 $150 $220 forward 7 unknown #
loop $-1 $-1 $221 $103 #
plane-surface $-1 0 0 0.05750000000000003 0 0 1 1 0 0 forward_v I I I I #
coedge $-1 $155 $155 $107 $157 forward $104 $-1 #
coedge $-1 $156 $156 $221 $222 reversed $106 $-1 #
edge $-1 $223 0 $223 6.2831853071795862 $155 $224 forward 7 unknown #
face $-1 $225 $226 $37 $-1 $227 reversed single #
loop $-1 $-1 $228 $108 #
coedge $-1 $229 $230 $231 $232 reversed $109 $-1 #
coedge $-1 $233 $110 $234 $235 reversed $71 $-1 #
coedge $-1 $110 $233 $236 $237 reversed $71 $-1 #
coedge $-1 $238 $239 $110 $164 forward $240 $-1 #
edge $-1 $241 -1.4297331749231681 $242 -2.4853319654057355e-016 $163 $243 forward 7 unknown #
aggregate_geombuild_attribute-aggregate_geombuild_base_attribute-aggregate_body_attribute-attrib_HH-attrib $-1 $244 $111 $0 #
pid_name-sg-attrib $-1 $-1 $113 $51 7 rwilson 784252905 617 1 #
attrib_hh_face_geombuild-attrib_entity_geombuild-individual_entity_attribute-attrib_HH-attrib $-1 $245 $114 $77 F #
model_id-kcp-attrib $-1 $246 $-1 $115 1 1017696006 70 -2025455615 6 #
face $247 $248 $249 $11 $-1 $250 forward single #
loop $-1 $-1 $251 $115 #
cone-surface $-1 0.032055839110755199 0.225735294490927 0 0 0 1 -0.012508287331007501 -0.0082790547796808799 0 1 I I 0 1 0.014999999999999986 forward I I I I #
coedge $252 $253 $254 $255 $256 reversed $116 $-1 #
model_id-kcp-attrib $-1 $-1 $-1 $119 1 1017696006 70 -2025455615 18 #
attrib_hh_coedge_geombuild-attrib_entity_geombuild-individual_entity_attribute-attrib_HH-attrib $-1 $-1 $-1 $120 F #
coedge $257 $175 $175 $120 $176 reversed $258 $-1 #
edge $259 $260 -6.2831853071795862 $260 -1.2246063538223787e-016 $175 $261 reversed 7 unknown #
attrib_hh_coedge_geombuild-attrib_entity_geombuild-individual_entity_attribute-attrib_HH-attrib $-1 $-1 $-1 $122 F #
attrib_hh_coedge_geombuild-attrib_entity_geombuild-individual_entity_attribute-attrib_HH-attrib $-1 $-1 $-1 $124 F #
attrib_edge_convexity-kcp-attrib $-1 $262 $-1 $125 1 #
vertex $263 $125 $264 #
ellipse-curve $-1 0 0 0.095000000000000001 -1.75390683195127e-016 4.29569090084001e-032 -1 0.15825 -3.8758791098478299e-017 -2.7755575615628901e-017 1 I I #
attrib_edge_convexity-kcp-attrib $-1 $265 $-1 $127 1 #
vertex $266 $127 $267 #
ellipse-curve $-1 0 0 0.02 1.75390683195127e-016 -4.29569090084001e-032 -1 0.15825 -3.87587910984782e-017 2.7755575615628901e-017 1 I I #
model_id-kcp-attrib $-1 $-1 $-1 $129 1 1017696006 70 -2025455615 22 #
face $268 $-1 $269 $11 $-1 $270 reversed single #
convexity-sys-attrib $-1 $271 $130 $87 #
attrib_hh_vertex_geombuild-attrib_entity_geombuild-individual_entity_attribute-attrib_HH-attrib $-1 $-1 $-1 $131 F #
point $-1 0.17824999999999999 0 0 #
face $-1 $272 $273 $29 $-1 $274 reversed single #
loop $-1 $-1 $275 $133 #
plane-surface $-1 -0.21299999999999969 0 0 1 0 0 0 0 -1 forward_v I I I I #
coedge $-1 $276 $201 $277 $278 forward $134 $-1 #
coedge $-1 $279 $136 $276 $280 forward $90 $-1 #
coedge $-1 $136 $279 $281 $282 forward $90 $-1 #
coedge $-1 $204 $203 $136 $197 reversed $205 $-1 #
edge $-1 $283 -0.22549999999999992 $284 0.22549999999999992 $196 $285 forward 7 unknown #
coedge $-1 $138 $137 $286 $287 forward $59 $-1 #
coedge $-1 $288 $289 $137 $200 reversed $273 $-1 #
edge $-1 $207 -0.21299999999999969 $290 0.21299999999999969 $199 $291 forward 7 unknown #
coedge $-1 $193 $292 $138 $202 reversed $134 $-1 #
edge $-1 $293 -0.21299999999999969 $206 0.21299999999999969 $201 $294 forward 7 unknown #
coedge $-1 $196 $139 $292 $295 forward $205 $-1 #
coedge $-1 $139 $196 $288 $296 reversed $205 $-1 #
loop $-1 $-1 $203 $272 #
vertex $-1 $140 $297 #
vertex $-1 $140 $298 #
straight-curve $-1 0.21299999999999969 0 0.05750000000000012 0 1 0 I I #
loop $-1 $-1 $299 $93 #
coedge $-1 $210 $210 $145 $212 forward $141 $-1 #
coedge $-1 $211 $211 $299 $300 reversed $143 $-1 #
edge $-1 $301 0 $301 6.2831853071795862 $210 $302 forward 7 unknown #
vertex $-1 $146 $303 #
ellipse-curve $-1 0 0 -0.069125000000000131 0 0 -1 0.15825 0 0 1 I I #
loop $-1 $-1 $304 $98 #
coedge $-1 $216 $216 $151 $218 forward $147 $-1 #
coedge $-1 $217 $217 $304 $305 reversed $149 $-1 #
edge $-1 $306 0 $306 6.2831853071795862 $216 $307 forward 7 unknown #
vertex $-1 $152 $308 #
ellipse-curve $-1 0 0 -0.069125000000000103 0 0 -1 0.15825 0 0 1 I I #
coedge $-1 $221 $221 $156 $222 forward $153 $-1 #
edge $-1 $309 0 $309 6.2831853071795862 $221 $310 forward 7 unknown #
vertex $-1 $157 $311 #
ellipse-curve $-1 0 0 -0.05750000000000003 0 0 -1 0.15825 0 0 1 I I #
face $-1 $312 $313 $37 $-1 $314 reversed single #
loop $-1 $-1 $315 $158 #
cone-surface $-1 -0.032055839110755324 0.21323529449092676 0.057499999999999996 0 0 1 0.012508287331007489 -0.0082790547796808833 0 1 I I 0 -1 0.014999999999999979 forward I I I I #
coedge $-1 $316 $317 $318 $319 reversed $159 $-1 #
coedge $-1 $320 $160 $321 $322 reversed $109 $-1 #
coedge $-1 $160 $320 $161 $235 forward $109 $-1 #
coedge $-1 $323 $324 $160 $232 forward $325 $-1 #
edge $-1 $326 -3.0005295017180647 $241 -1.4297331749231681 $231 $243 forward 7 unknown #
coedge $-1 $162 $161 $327 $328 reversed $71 $-1 #
coedge $-1 $329 $330 $331 $235 forward $332 $-1 #
edge $-1 $333 -0.1150000000000001 $241 1.2490009027033011e-016 $234 $334 forward 7 unknown #
coedge $-1 $335 $315 $162 $237 forward $226 $-1 #
edge $-1 $242 -1.2490009027033011e-016 $336 0.11500000000000012 $162 $337 forward 7 unknown #
coedge $-1 $338 $163 $315 $339 forward $240 $-1 #
coedge $-1 $163 $340 $329 $341 forward $240 $-1 #
loop $-1 $-1 $163 $342 #
vertex $-1 $343 $344 #
vertex $-1 $339 $345 #
ellipse-curve $-1 -9.3104412049272926e-017 -0.012500000000000261 0.05750000000000012 0 0 -1 -0.029946902327152802 0.21088428827441799 0 1 I I #
aggregate_stitch_attribute-aggregate_stitch_base_attribute-aggregate_body_attribute-attrib_HH-attrib $-1 $346 $165 $0 F #
pid_name-sg-attrib $-1 $-1 $167 $77 7 rwilson 784252905 618 1 #
attrib_hh_face_geombuild-attrib_entity_geombuild-individual_entity_attribute-attrib_HH-attrib $-1 $347 $168 $115 F #
model_id-kcp-attrib $-1 $348 $-1 $169 1 1017696006 70 -2025455615 7 #
face $349 $350 $351 $11 $-1 $352 forward single #
loop $-1 $-1 $353 $169 #
cone-surface $-1 0 0 0 0 0 1 0.21299999999999999 0 0 1 I I 0 1 0.21299999999999999 forward I I I I #
coedge $354 $355 $356 $357 $358 forward $170 $-1 #
attrib_hh_coedge_geombuild-attrib_entity_geombuild-individual_entity_attribute-attrib_HH-attrib $-1 $-1 $-1 $172 F #
coedge $359 $360 $172 $361 $362 forward $116 $-1 #
coedge $363 $172 $360 $364 $365 forward $116 $-1 #
coedge $366 $367 $368 $172 $256 forward $369 $-1 #
edge $370 $371 -0.115 $372 0 $172 $373 reversed 7 unknown #
attrib_hh_coedge_geombuild-attrib_entity_geombuild-individual_entity_attribute-attrib_HH-attrib $-1 $-1 $-1 $175 F #
loop $374 $-1 $175 $248 #
attrib_edge_convexity-kcp-attrib $-1 $375 $-1 $176 1 #
vertex $376 $176 $377 #
ellipse-curve $-1 0 0 0.115 3.1142300831000202e-016 0 -1 -0.17824999999999999 0 -5.5511151231257802e-017 1 I I #
convexity-sys-attrib $-1 $378 $179 $125 #
model_id-kcp-attrib $-1 $379 $-1 $180 1 1017696006 70 -2025455615 23 #
point $-1 -0.15825 1.93793955492391e-017 0.095000000000000001 #
convexity-sys-attrib $-1 $380 $182 $127 #
model_id-kcp-attrib $-1 $381 $-1 $183 1 1017696006 70 -2025455615 24 #
point $-1 0.15825 0 0.02 #
model_id-kcp-attrib $-1 $382 $-1 $186 1 1017696006 70 -2025455615 13 #
loop $-1 $129 $383 $186 #
plane-surface $-1 0 0 0 0 0 1 1 0 0 forward_v I I I I #
attrib_hh_edge_geombuild-attrib_entity_geombuild-individual_entity_attribute-attrib_HH-attrib $-1 $-1 $187 $87 F #
face $-1 $-1 $205 $29 $-1 $384 reversed single #
loop $-1 $-1 $288 $190 #
plane-surface $-1 0 0.22549999999999992 0 0 -1 0 0 0 -1 forward_v I I I I #
coedge $-1 $385 $286 $289 $386 forward $191 $-1 #
coedge $-1 $292 $193 $194 $280 reversed $134 $-1 #
coedge $-1 $286 $385 $193 $278 reversed $191 $-1 #
edge $-1 $293 -0.05750000000000012 $387 0.05750000000000012 $277 $388 forward 7 unknown #
coedge $-1 $195 $194 $385 $389 forward $90 $-1 #
edge $-1 $284 -0.21299999999999969 $387 0.21299999999999969 $276 $390 forward 7 unknown #
coedge $-1 $289 $288 $195 $282 reversed $273 $-1 #
edge $-1 $391 -0.21299999999999969 $283 0.21299999999999969 $281 $392 forward 7 unknown #
vertex $-1 $197 $393 #
vertex $-1 $295 $394 #
straight-curve $-1 0.21299999999999969 0 -0.05750000000000012 0 -1 0 I I #
coedge $-1 $275 $277 $198 $287 reversed $191 $-1 #
edge $-1 $290 -0.22549999999999992 $293 0.22549999999999992 $286 $395 forward 7 unknown #
coedge $-1 $281 $199 $204 $296 forward $273 $-1 #
coedge $-1 $199 $281 $275 $386 reversed $273 $-1 #
vertex $-1 $200 $396 #
straight-curve $-1 0 0.22549999999999992 0.05750000000000012 -1 0 0 I I #
coedge $-1 $201 $276 $203 $295 reversed $134 $-1 #
vertex $-1 $287 $397 #
straight-curve $-1 0 -0.22549999999999992 0.05750000000000012 1 0 0 I I #
edge $-1 $206 -0.05750000000000012 $284 0.05750000000000012 $203 $398 forward 7 unknown #
edge $-1 $207 -0.05750000000000012 $283 0.05750000000000012 $204 $399 forward 7 unknown #
point $-1 0.21299999999999969 -0.22549999999999992 0.05750000000000012 #
point $-1 0.21299999999999969 0.22549999999999992 0.05750000000000012 #
coedge $-1 $299 $299 $211 $300 forward $209 $-1 #
edge $-1 $400 0 $400 6.2831853071795862 $299 $401 forward 7 unknown #
vertex $-1 $212 $402 #
ellipse-curve $-1 0 0 -0.089125000000000149 0 0 1 0.15825 0 0 1 I I #
point $-1 -0.15825 1.9379395549239122e-017 -0.069125000000000131 #
coedge $-1 $304 $304 $217 $305 forward $215 $-1 #
edge $-1 $403 0 $403 6.2831853071795862 $304 $404 forward 7 unknown #
vertex $-1 $218 $405 #
ellipse-curve $-1 0 0 -0.089125000000000121 0 0 1 0.15825 0 0 1 I I #
point $-1 -0.15825 1.9379395549239122e-017 -0.069125000000000103 #
vertex $-1 $222 $406 #
ellipse-curve $-1 0 0 0.05750000000000003 0 0 1 0.15825 0 0 1 I I #
point $-1 0.15825 0 -0.05750000000000003 #
face $-1 $407 $408 $37 $-1 $409 reversed single #
loop $-1 $-1 $410 $225 #
plane-surface $-1 -0.019547551779747832 0.20495623971124588 0.057499999999999996 -0.83388582206716799 0.55193698531205848 0 0 0 1 forward_v I I I I #
coedge $-1 $236 $411 $238 $339 reversed $226 $-1 #
coedge $-1 $412 $228 $413 $414 reversed $159 $-1 #
coedge $-1 $228 $412 $415 $416 forward $159 $-1 #
coedge $-1 $417 $418 $228 $319 forward $419 $-1 #
edge $-1 $420 0.28212630374345871 $421 1.7118594786666252 $318 $243 forward 7 unknown #
coedge $-1 $230 $229 $422 $423 reversed $109 $-1 #
coedge $-1 $424 $425 $426 $322 forward $427 $-1 #
edge $-1 $428 -0.1150000000000001 $326 1.2490009027033011e-016 $321 $429 forward 7 unknown #
coedge $-1 $324 $231 $430 $343 forward $325 $-1 #
coedge $-1 $231 $323 $424 $431 forward $325 $-1 #
loop $-1 $-1 $231 $432 #
vertex $-1 $433 $434 #
coedge $-1 $435 $436 $233 $328 forward $437 $-1 #
edge $-1 $336 2.4853319654057355e-016 $333 1.4297331749231681 $327 $438 forward 7 unknown #
coedge $-1 $439 $234 $239 $341 reversed $332 $-1 #
coedge $-1 $234 $439 $435 $440 reversed $332 $-1 #
coedge $-1 $441 $430 $230 $235 reversed $442 $-1 #
loop $-1 $-1 $234 $443 #
vertex $-1 $440 $444 #
straight-curve $-1 -0.21299999999999969 -0.012500000000000261 0.057499999999999996 0 0 1 I I #
coedge $-1 $411 $236 $436 $445 reversed $226 $-1 #
vertex $-1 $445 $446 #
straight-curve $-1 -0.029946902327152948 0.19838428827441773 0.057499999999999996 0 0 -1 I I #
coedge $-1 $447 $238 $410 $448 forward $240 $-1 #
edge $-1 $242 -0.84504787550506821 $449 1.2046690805394528e-016 $238 $450 forward 7 unknown #
coedge $-1 $239 $447 $451 $452 forward $240 $-1 #
edge $-1 $453 -0.22549999999999992 $241 0.012500000000000261 $329 $454 forward 7 unknown #
face $-1 $455 $240 $37 $-1 $456 forward single #
edge $-1 $241 0.012500000000000261 $457 0.22549999999999992 $430 $454 forward 7 unknown #
point $-1 -0.21299999999999969 -0.012500000000000261 0.05750000000000012 #
point $-1 -0.029946902327152948 0.19838428827441773 0.05750000000000012 #
aggregate_simgeom_attribute-aggregate_simgeom_base_attribute-aggregate_body_attribute-attrib_HH-attrib $-1 $-1 $244 $0 F #
pid_name-sg-attrib $-1 $-1 $246 $115 7 rwilson 784252905 619 1 #
attrib_hh_face_geombuild-attrib_entity_geombuild-individual_entity_attribute-attrib_HH-attrib $-1 $458 $247 $169 F #
model_id-kcp-attrib $-1 $459 $-1 $248 1 1017696006 70 -2025455615 14 #
face $460 $461 $462 $11 $-1 $463 reversed single #
loop $-1 $258 $464 $248 #
plane-surface $-1 0 0 0.115 0 0 1 1 0 0 forward_v I I I I #
coedge $465 $466 $467 $355 $468 reversed $249 $-1 #
attrib_hh_coedge_geombuild-attrib_entity_geombuild-individual_entity_attribute-attrib_HH-attrib $-1 $-1 $-1 $251 F #
coedge $469 $470 $251 $353 $468 forward $170 $-1 #
coedge $471 $251 $470 $360 $472 forward $170 $-1 #
coedge $473 $361 $474 $251 $358 reversed $351 $-1 #
edge $475 $476 6.44497958088604e-015 $477 0.84504787550508043 $357 $478 forward 7 unknown #
attrib_hh_coedge_geombuild-attrib_entity_geombuild-individual_entity_attribute-attrib_HH-attrib $-1 $-1 $-1 $253 F #
coedge $479 $254 $253 $356 $472 reversed $116 $-1 #
coedge $480 $481 $357 $253 $362 reversed $351 $-1 #
edge $482 $371 -0.024545468305748851 $476 0 $361 $483 reversed 7 unknown #
attrib_hh_coedge_geombuild-attrib_entity_geombuild-individual_entity_attribute-attrib_HH-attrib $-1 $-1 $-1 $254 F #
coedge $484 $485 $383 $254 $365 reversed $269 $-1 #
edge $486 $487 0 $372 0.024545468305748851 $364 $488 forward 7 unknown #
attrib_hh_coedge_geombuild-attrib_entity_geombuild-individual_entity_attribute-attrib_HH-attrib $-1 $-1 $-1 $255 F #
coedge $489 $490 $255 $383 $491 forward $369 $-1 #
coedge $492 $255 $490 $481 $493 forward $369 $-1 #
loop $-1 $-1 $490 $494 #
attrib_hh_edge_geombuild-attrib_entity_geombuild-individual_entity_attribute-attrib_HH-attrib $-1 $-1 $-1 $256 F #
vertex $495 $256 $496 #
vertex $497 $256 $498 #
straight-curve $-1 0.0060000000000000097 0.237924357727409 0 0 0 1 I I #
model_id-kcp-attrib $-1 $-1 $-1 $258 1 1017696006 70 -2025455615 21 #
convexity-sys-attrib $-1 $499 $259 $176 #
attrib_hh_vertex_geombuild-attrib_entity_geombuild-individual_entity_attribute-attrib_HH-attrib $-1 $-1 $-1 $260 F #
point $-1 -0.17824999999999999 2.1828608256883901e-017 0.115 #
attrib_hh_edge_geombuild-attrib_entity_geombuild-individual_entity_attribute-attrib_HH-attrib $-1 $-1 $262 $125 F #
attrib_hh_vertex_geombuild-attrib_entity_geombuild-individual_entity_attribute-attrib_HH-attrib $-1 $-1 $263 $180 F #
attrib_hh_edge_geombuild-attrib_entity_geombuild-individual_entity_attribute-attrib_HH-attrib $-1 $-1 $265 $127 F #
attrib_hh_vertex_geombuild-attrib_entity_geombuild-individual_entity_attribute-attrib_HH-attrib $-1 $-1 $266 $183 F #
model_id-kcp-attrib $-1 $500 $268 $186 1 1017696006 70 -2025455615 12 #
coedge $501 $364 $502 $367 $491 reversed $269 $-1 #
plane-surface $-1 0.21299999999999969 0 0 -1 0 0 0 0 1 forward_v I I I I #
coedge $-1 $277 $275 $279 $389 reversed $191 $-1 #
edge $-1 $290 -0.05750000000000012 $391 0.05750000000000012 $289 $503 forward 7 unknown #
vertex $-1 $389 $504 #
straight-curve $-1 -0.21299999999999969 -0.22549999999999992 0 0 0 -1 I I #
edge $-1 $387 -0.22549999999999992 $391 0.22549999999999992 $385 $505 forward 7 unknown #
straight-curve $-1 0 -0.22549999999999992 -0.05750000000000012 -1 0 0 I I #
vertex $-1 $282 $506 #
straight-curve $-1 0 0.22549999999999992 -0.05750000000000012 1 0 0 I I #
point $-1 0.21299999999999969 0.22549999999999992 -0.05750000000000012 #
point $-1 0.21299999999999969 -0.22549999999999992 -0.05750000000000012 #
straight-curve $-1 -0.21299999999999969 0 0.05750000000000012 0 -1 0 I I #
point $-1 -0.21299999999999969 0.22549999999999992 0.05750000000000012 #
point $-1 -0.21299999999999969 -0.22549999999999992 0.05750000000000012 #
straight-curve $-1 0.21299999999999969 -0.22549999999999992 0 0 0 -1 I I #
straight-curve $-1 0.21299999999999969 0.22549999999999992 0 0 0 -1 I I #
vertex $-1 $300 $507 #
ellipse-curve $-1 0 0 -0.089125000000000149 0 0 -1 0.17824999999999999 0 0 1 I I #
point $-1 0.15825 0 -0.089125000000000149 #
vertex $-1 $305 $508 #
ellipse-curve $-1 0 0 -0.089125000000000121 0 0 -1 0.17824999999999999 0 0 1 I I #
point $-1 0.15825 0 -0.089125000000000121 #
point $-1 0.15825 0 0.05750000000000003 #
face $-1 $509 $510 $37 $-1 $409 reversed single #
loop $-1 $-1 $511 $312 #
cone-surface $-1 5.6505577468772352e-016 -0.012500000000000233 0.057499999999999996 0 0 1 0.0059999999999994459 0.237924357727409 0 1 I I 0 1 0.23800000000000018 forward I I I I #
coedge $-1 $512 $513 $338 $448 reversed $313 $-1 #
coedge $-1 $315 $335 $512 $514 reversed $226 $-1 #
coedge $-1 $317 $316 $515 $516 reversed $159 $-1 #
coedge $-1 $517 $518 $316 $414 forward $519 $-1 #
edge $-1 $520 -0.11500000000000012 $420 1.2490009027033011e-016 $316 $521 forward 7 unknown #
coedge $-1 $522 $523 $524 $416 reversed $525 $-1 #
edge $-1 $526 -0.1150000000000001 $421 1.2490009027033011e-016 $524 $527 forward 7 unknown #
coedge $-1 $528 $318 $529 $530 forward $419 $-1 #
coedge $-1 $318 $531 $517 $532 forward $419 $-1 #
loop $-1 $-1 $318 $533 #
vertex $-1 $532 $534 #
vertex $-1 $530 $535 #
coedge $-1 $536 $537 $320 $423 forward $538 $-1 #
edge $-1 $333 1.4297331749231681 $428 3.0005295017180647 $422 $438 forward 7 unknown #
coedge $-1 $539 $321 $324 $431 reversed $427 $-1 #
coedge $-1 $321 $539 $536 $540 reversed $427 $-1 #
coedge $-1 $541 $542 $543 $322 reversed $544 $-1 #
loop $-1 $-1 $321 $545 #
vertex $-1 $540 $546 #
straight-curve $-1 -9.3104412049272926e-017 -0.22549999999999992 0.057499999999999996 0 0 1 I I #
coedge $-1 $331 $547 $323 $343 reversed $442 $-1 #
edge $-1 $457 -0.21299999999999969 $326 -9.3104412049272926e-017 $424 $548 forward 7 unknown #
face $-1 $342 $325 $37 $-1 $456 forward single #
edge $-1 $326 -9.3104412049272926e-017 $549 0.21299999999999969 $542 $548 forward 7 unknown #
point $-1 -9.3104412049272926e-017 -0.22549999999999992 0.05750000000000012 #
coedge $-1 $550 $327 $330 $440 forward $437 $-1 #
coedge $-1 $327 $551 $335 $445 forward $437 $-1 #
loop $-1 $-1 $327 $455 #
ellipse-curve $-1 -9.3104412049272926e-017 -0.012500000000000261 -0.05750000000000012 0 0 1 -0.029946902327152802 0.21088428827441799 0 1 I I #
coedge $-1 $330 $329 $552 $553 forward $332 $-1 #
edge $-1 $333 -0.012500000000000261 $554 0.22549999999999992 $330 $555 forward 7 unknown #
coedge $-1 $547 $331 $537 $556 reversed $442 $-1 #
loop $-1 $-1 $331 $557 #
face $-1 $558 $332 $37 $-1 $559 reversed single #
point $-1 -0.21299999999999969 -0.012500000000000261 -0.057500000000000107 #
edge $-1 $560 -1.2046690805394528e-016 $336 0.84504787550506821 $436 $561 forward 7 unknown #
point $-1 -0.029946902327152948 0.19838428827441773 -0.05750000000000012 #
coedge $-1 $340 $338 $562 $563 forward $240 $-1 #
edge $-1 $449 0.080060542819931219 $564 0.10460601112568005 $338 $565 forward 7 unknown #
vertex $-1 $339 $566 #
ellipse-curve $-1 -0.032055839110755324 0.21323529449092676 0.05750000000000012 0 0 1 0.012508287331007489 -0.0082790547796808833 0 1 I I #
coedge $-1 $567 $552 $340 $452 reversed $568 $-1 #
edge $-1 $569 -5.6505577468772352e-016 $453 0.21299999999999969 $451 $570 forward 7 unknown #
vertex $-1 $452 $571 #
straight-curve $-1 -0.21299999999999969 0 0.05750000000000012 0 -1 0 I I #
face $-1 $572 $437 $37 $-1 $573 reversed single #
plane-surface $-1 0 0 0.05750000000000012 0 0 1 1 0 0 forward_v I I I I #
vertex $-1 $343 $574 #
pid_name-sg-attrib $-1 $-1 $348 $169 7 rwilson 784252905 620 1 #
model_id-kcp-attrib $-1 $575 $349 $248 1 1017696006 70 -2025455615 8 #
model_id-kcp-attrib $-1 $576 $-1 $350 1 1017696006 70 -2025455615 9 #
face $577 $494 $578 $11 $-1 $579 forward single #
loop $-1 $-1 $580 $350 #
cone-surface $-1 -0.032055839110755303 0.225735294490927 0 0 0 1 0.0021089367836023402 -0.014851006216508301 0 1 I I 0 1 0.014999999999999973 forward I I I I #
coedge $581 $474 $582 $580 $583 reversed $351 $-1 #
attrib_hh_coedge_geombuild-attrib_entity_geombuild-individual_entity_attribute-attrib_HH-attrib $-1 $-1 $-1 $353 F #
coedge $584 $585 $353 $474 $586 forward $249 $-1 #
coedge $587 $353 $585 $588 $589 forward $249 $-1 #
edge $590 $477 -0.115 $591 0 $353 $592 reversed 7 unknown #
attrib_hh_coedge_geombuild-attrib_entity_geombuild-individual_entity_attribute-attrib_HH-attrib $-1 $-1 $-1 $355 F #
coedge $593 $356 $355 $485 $594 forward $170 $-1 #
attrib_hh_coedge_geombuild-attrib_entity_geombuild-individual_entity_attribute-attrib_HH-attrib $-1 $-1 $-1 $356 F #
edge $595 $487 0 $476 0.115 $360 $596 forward 7 unknown #
attrib_hh_coedge_geombuild-attrib_entity_geombuild-individual_entity_attribute-attrib_HH-attrib $-1 $-1 $-1 $357 F #
coedge $597 $357 $464 $466 $586 reversed $351 $-1 #
attrib_edge_convexity-kcp-attrib $-1 $598 $-1 $358 1 #
vertex $599 $472 $600 #
vertex $601 $468 $602 #
ellipse-curve $-1 0.032055839110755199 0.225735294490927 0.115 0 0 1 -0.012508287331007501 -0.0082790547796808799 0 1 I I #
attrib_hh_coedge_geombuild-attrib_entity_geombuild-individual_entity_attribute-attrib_HH-attrib $-1 $-1 $-1 $360 F #
attrib_hh_coedge_geombuild-attrib_entity_geombuild-individual_entity_attribute-attrib_HH-attrib $-1 $-1 $-1 $361 F #
coedge $603 $582 $361 $368 $493 reversed $351 $-1 #
attrib_edge_convexity-kcp-attrib $-1 $604 $-1 $362 1 #
straight-curve $-1 0.0195475517797477 0.217456239711246 0.115 -0.55193698531205804 0.83388582206716799 0 I I #
attrib_hh_coedge_geombuild-attrib_entity_geombuild-individual_entity_attribute-attrib_HH-attrib $-1 $-1 $-1 $364 F #
coedge $605 $588 $364 $470 $594 reversed $269 $-1 #
attrib_hh_edge_geombuild-attrib_entity_geombuild-individual_entity_attribute-attrib_HH-attrib $-1 $-1 $-1 $365 F #
vertex $606 $472 $607 #
straight-curve $-1 0.0195475517797477 0.217456239711246 0 -0.55193698531205804 0.83388582206716799 0 I I #
attrib_hh_coedge_geombuild-attrib_entity_geombuild-individual_entity_attribute-attrib_HH-attrib $-1 $-1 $-1 $367 F #
coedge $608 $368 $367 $609 $610 forward $369 $-1 #
edge $611 $372 -4.2109398691266611e-017 $612 0.05042551033756739 $383 $613 forward 7 unknown #
attrib_hh_coedge_geombuild-attrib_entity_geombuild-individual_entity_attribute-attrib_HH-attrib $-1 $-1 $-1 $368 F #
edge $614 $615 -0.05042551033756739 $371 4.2109398691266611e-017 $481 $616 reversed 7 unknown #
face $617 $186 $369 $11 $-1 $618 forward single #
attrib_hh_vertex_geombuild-attrib_entity_geombuild-individual_entity_attribute-attrib_HH-attrib $-1 $-1 $-1 $371 F #
point $-1 0.0060000000000000097 0.237924357727409 0.115 #
attrib_hh_vertex_geombuild-attrib_entity_geombuild-individual_entity_attribute-attrib_HH-attrib $-1 $-1 $-1 $372 F #
point $-1 0.0060000000000000097 0.237924357727409 0 #
attrib_hh_edge_geombuild-attrib_entity_geombuild-individual_entity_attribute-attrib_HH-attrib $-1 $-1 $375 $176 F #
attrib_hh_face_geombuild-attrib_entity_geombuild-individual_entity_attribute-attrib_HH-attrib $-1 $619 $382 $186 F #
attrib_hh_coedge_geombuild-attrib_entity_geombuild-individual_entity_attribute-attrib_HH-attrib $-1 $-1 $-1 $383 F #
coedge $620 $383 $621 $622 $623 reversed $269 $-1 #
straight-curve $-1 -0.21299999999999969 0.22549999999999992 0 0 0 -1 I I #
point $-1 -0.21299999999999969 -0.22549999999999992 -0.05750000000000012 #
straight-curve $-1 -0.21299999999999969 0 -0.05750000000000012 0 1 0 I I #
point $-1 -0.21299999999999969 0.22549999999999992 -0.05750000000000012 #
point $-1 0.17824999999999999 0 -0.089125000000000149 #
point $-1 0.17824999999999999 0 -0.089125000000000121 #
face $-1 $624 $625 $37 $-1 $626 reversed single #
loop $-1 $-1 $562 $407 #
coedge $-1 $627 $628 $629 $630 reversed $408 $-1 #
coedge $-1 $631 $410 $411 $514 forward $313 $-1 #
coedge $-1 $410 $631 $632 $633 reversed $313 $-1 #
edge $-1 $449 -1.2490009027033011e-016 $560 0.11500000000000012 $411 $634 forward 7 unknown #
coedge $-1 $635 $636 $412 $516 forward $637 $-1 #
edge $-1 $526 -1.7118594786666252 $520 -0.28212630374345871 $515 $438 forward 7 unknown #
coedge $-1 $638 $413 $418 $532 reversed $519 $-1 #
coedge $-1 $413 $638 $635 $639 reversed $519 $-1 #
loop $-1 $-1 $517 $624 #
vertex $-1 $639 $640 #
straight-curve $-1 0.029946902327153052 0.19838428827441767 0.057499999999999996 0 0 1 I I #
coedge $-1 $543 $415 $641 $642 reversed $525 $-1 #
coedge $-1 $415 $543 $643 $644 reversed $525 $-1 #
coedge $-1 $645 $646 $647 $416 forward $648 $-1 #
loop $-1 $-1 $415 $649 #
vertex $-1 $650 $651 #
straight-curve $-1 0.21299999999999969 -0.012500000000000261 0.057499999999999996 0 0 1 I I #
coedge $-1 $629 $417 $652 $653 forward $419 $-1 #
coedge $-1 $647 $654 $417 $530 reversed $655 $-1 #
edge $-1 $421 -0.012500000000000261 $656 0.22549999999999992 $529 $657 forward 7 unknown #
coedge $-1 $418 $629 $658 $659 forward $419 $-1 #
edge $-1 $660 -0.84504787550507388 $420 4.0055246927934736e-015 $418 $661 forward 7 unknown #
face $-1 $662 $419 $37 $-1 $456 forward single #
point $-1 0.029946902327153052 0.19838428827441767 0.05750000000000012 #
point $-1 0.21299999999999969 -0.012500000000000261 0.05750000000000012 #
coedge $-1 $537 $422 $425 $540 forward $538 $-1 #
coedge $-1 $422 $536 $441 $556 forward $538 $-1 #
loop $-1 $-1 $422 $572 #
coedge $-1 $425 $424 $547 $663 forward $427 $-1 #
edge $-1 $428 9.3104412049272926e-017 $664 0.21299999999999969 $425 $665 forward 7 unknown #
coedge $-1 $666 $426 $667 $668 reversed $544 $-1 #
coedge $-1 $426 $666 $669 $433 reversed $544 $-1 #
coedge $-1 $523 $522 $229 $322 forward $525 $-1 #
loop $-1 $-1 $426 $670 #
face $-1 $443 $427 $37 $-1 $671 reversed single #
point $-1 -9.3104412049272926e-017 -0.22549999999999992 -0.057500000000000107 #
coedge $-1 $430 $441 $539 $663 reversed $442 $-1 #
straight-curve $-1 0 -0.22549999999999992 0.05750000000000012 1 0 0 I I #
vertex $-1 $672 $673 #
coedge $-1 $674 $435 $675 $676 forward $437 $-1 #
coedge $-1 $436 $674 $631 $677 forward $437 $-1 #
coedge $-1 $451 $675 $439 $553 reversed $568 $-1 #
edge $-1 $453 -0.05750000000000012 $554 0.05750000000000012 $552 $678 forward 7 unknown #
vertex $-1 $676 $679 #
straight-curve $-1 -0.21299999999999969 0 -0.05750000000000012 0 1 0 I I #
edge $-1 $664 -0.22549999999999992 $333 -0.012500000000000261 $441 $555 forward 7 unknown #
face $-1 $670 $442 $37 $-1 $559 reversed single #
face $-1 $680 $681 $37 $-1 $682 reversed single #
plane-surface $-1 -0.21299999999999969 0 0 1 0 0 0 0 -1 forward_v I I I I #
vertex $-1 $445 $683 #
ellipse-curve $-1 -0.032055839110755324 0.21323529449092676 -0.05750000000000012 0 0 -1 0.012508287331007489 -0.0082790547796808833 0 1 I I #
coedge $-1 $632 $684 $447 $563 reversed $510 $-1 #
edge $-1 $564 -0.050425510337567481 $569 -0.025212755168781409 $447 $685 forward 7 unknown #
vertex $-1 $448 $686 #
straight-curve $-1 -0.063735926426227635 0.13819488814670383 0.05750000000000012 0.55193698531205848 0.83388582206716799 0 I I #
point $-1 -0.019547551779747832 0.20495623971124588 0.05750000000000012 #
coedge $-1 $675 $451 $684 $687 reversed $568 $-1 #
loop $-1 $-1 $567 $688 #
vertex $-1 $452 $689 #
straight-curve $-1 0 0.22549999999999992 0.05750000000000012 -1 0 0 I I #
point $-1 -0.21299999999999969 0.22549999999999992 0.05750000000000012 #
face $-1 $690 $538 $37 $-1 $573 reversed single #
plane-surface $-1 0 0 -0.05750000000000012 0 0 1 1 0 0 forward_v I I I I #
point $-1 -0.21299999999999969 -0.22549999999999992 0.05750000000000012 #
attrib_hh_face_geombuild-attrib_entity_geombuild-individual_entity_attribute-attrib_HH-attrib $-1 $691 $459 $248 F #
attrib_hh_face_geombuild-attrib_entity_geombuild-individual_entity_attribute-attrib_HH-attrib $-1 $692 $460 $350 F #
model_id-kcp-attrib $-1 $693 $-1 $461 1 1017696006 70 -2025455615 10 #
loop $-1 $-1 $694 $461 #
plane-surface $-1 -0.0060000000000000001 0.237924357727409 0 -0.83388582206716821 0.55193698531205815 0 0 0 1 forward_v I I I I #
coedge $695 $696 $697 $464 $583 forward $462 $-1 #
attrib_hh_coedge_geombuild-attrib_entity_geombuild-individual_entity_attribute-attrib_HH-attrib $-1 $-1 $-1 $464 F #
coedge $698 $464 $481 $699 $700 reversed $351 $-1 #
edge $701 $702 -1.0540854454719727e-015 $703 0.84504787550506322 $464 $704 forward 7 unknown #
attrib_hh_coedge_geombuild-attrib_entity_geombuild-individual_entity_attribute-attrib_HH-attrib $-1 $-1 $-1 $466 F #
coedge $705 $467 $466 $697 $706 reversed $249 $-1 #
edge $707 $477 -6.0010590034361275 $702 -3.3933136569311794e-047 $474 $708 reversed 7 unknown #
attrib_hh_coedge_geombuild-attrib_entity_geombuild-individual_entity_attribute-attrib_HH-attrib $-1 $-1 $-1 $467 F #
coedge $709 $621 $485 $467 $589 reversed $269 $-1 #
edge $710 $711 0 $591 6.0010590034361275 $588 $712 forward 7 unknown #
attrib_hh_edge_geombuild-attrib_entity_geombuild-individual_entity_attribute-attrib_HH-attrib $-1 $-1 $-1 $468 F #
vertex $713 $468 $714 #
straight-curve $-1 0.029946902327153 0.21088428827441799 0 0 0 1 I I #
attrib_hh_coedge_geombuild-attrib_entity_geombuild-individual_entity_attribute-attrib_HH-attrib $-1 $-1 $-1 $470 F #
edge $715 $591 -0.84504787550508043 $487 -6.44497958088604e-015 $485 $716 reversed 7 unknown #
attrib_hh_edge_geombuild-attrib_entity_geombuild-individual_entity_attribute-attrib_HH-attrib $-1 $-1 $-1 $472 F #
straight-curve $-1 0.0195475517797477 0.217456239711246 0 0 0 1 I I #
attrib_hh_coedge_geombuild-attrib_entity_geombuild-individual_entity_attribute-attrib_HH-attrib $-1 $-1 $-1 $474 F #
convexity-sys-attrib $-1 $717 $475 $358 #
attrib_hh_vertex_geombuild-attrib_entity_geombuild-individual_entity_attribute-attrib_HH-attrib $-1 $-1 $-1 $476 F #
point $-1 0.0195475517797477 0.217456239711246 0.115 #
attrib_hh_vertex_geombuild-attrib_entity_geombuild-individual_entity_attribute-attrib_HH-attrib $-1 $-1 $-1 $477 F #
point $-1 0.029946902327153 0.21088428827441799 0.115 #
attrib_hh_coedge_geombuild-attrib_entity_geombuild-individual_entity_attribute-attrib_HH-attrib $-1 $-1 $-1 $481 F #
convexity-sys-attrib $-1 $718 $482 $362 #
attrib_hh_coedge_geombuild-attrib_entity_geombuild-individual_entity_attribute-attrib_HH-attrib $-1 $-1 $-1 $485 F #
attrib_hh_vertex_geombuild-attrib_entity_geombuild-individual_entity_attribute-attrib_HH-attrib $-1 $-1 $-1 $487 F #
point $-1 0.0195475517797477 0.217456239711246 0 #
attrib_hh_coedge_geombuild-attrib_entity_geombuild-individual_entity_attribute-attrib_HH-attrib $-1 $-1 $-1 $490 F #
coedge $719 $622 $699 $490 $610 reversed $578 $-1 #
edge $720 $612 0 $615 0.115 $609 $721 forward 7 unknown #
attrib_hh_edge_geombuild-attrib_entity_geombuild-individual_entity_attribute-attrib_HH-attrib $-1 $-1 $-1 $491 F #
vertex $722 $610 $723 #
ellipse-curve $-1 0 0 0 0 0 1 0.0060000000000000001 0.237924357727409 0 1 I I #
attrib_edge_convexity-kcp-attrib $-1 $724 $-1 $493 1 #
vertex $725 $610 $726 #
ellipse-curve $-1 0 0 0.115 0 0 1 0.0060000000000000001 0.237924357727409 0 1 I I #
model_id-kcp-attrib $-1 $727 $-1 $494 1 1017696006 70 -2025455615 11 #
cone-surface $-1 0 0 0 0 0 1 0.23799999999999999 0 0 1 I I 0 1 0.23799999999999999 forward I I I I #
pid_name-sg-attrib $-1 $-1 $500 $186 7 rwilson 784252905 625 1 #
attrib_hh_coedge_geombuild-attrib_entity_geombuild-individual_entity_attribute-attrib_HH-attrib $-1 $-1 $-1 $502 F #
coedge $728 $502 $588 $729 $730 reversed $269 $-1 #
coedge $731 $694 $609 $502 $623 forward $578 $-1 #
edge $732 $612 -1.1010767525327978e-017 $733 0.024545468305748858 $502 $734 forward 7 unknown #
face $-1 $649 $519 $37 $-1 $735 reversed single #
loop $-1 $-1 $658 $509 #
plane-surface $-1 0.0060000000000000123 0.22542435772740876 0.057499999999999996 0.83388582206716821 0.55193698531205826 0 0 0 -1 forward_v I I I I #
coedge $-1 $736 $511 $737 $687 reversed $408 $-1 #
coedge $-1 $511 $736 $738 $739 reversed $408 $-1 #
coedge $-1 $531 $528 $511 $630 forward $419 $-1 #
edge $-1 $569 -0.025212755168781409 $740 7.6562543075030214e-018 $629 $685 forward 7 unknown #
coedge $-1 $513 $512 $551 $677 reversed $313 $-1 #
coedge $-1 $741 $562 $513 $633 forward $510 $-1 #
edge $-1 $564 -1.2490009027033011e-016 $742 0.11500000000000012 $513 $743 forward 7 unknown #
straight-curve $-1 -0.019547551779747832 0.20495623971124588 0.057499999999999996 0 0 -1 I I #
coedge $-1 $744 $515 $518 $639 forward $637 $-1 #
coedge $-1 $515 $745 $746 $747 forward $637 $-1 #
loop $-1 $-1 $515 $748 #
coedge $-1 $518 $517 $749 $750 forward $519 $-1 #
edge $-1 $520 -4.0055246927934736e-015 $751 0.84504787550507388 $635 $752 forward 7 unknown #
point $-1 0.029946902327153052 0.19838428827441767 -0.05750000000000012 #
coedge $-1 $753 $667 $522 $642 forward $754 $-1 #
edge $-1 $428 3.0005295017180647 $526 4.5713258285129612 $641 $438 forward 7 unknown #
coedge $-1 $669 $755 $523 $644 forward $756 $-1 #
edge $-1 $421 1.7118594786666252 $326 3.2826558054615216 $643 $243 forward 7 unknown #
coedge $-1 $757 $524 $755 $672 reversed $648 $-1 #
coedge $-1 $524 $757 $753 $650 reversed $648 $-1 #
coedge $-1 $746 $529 $317 $416 reversed $655 $-1 #
loop $-1 $-1 $524 $680 #
face $-1 $557 $525 $37 $-1 $72 reversed single #
edge $-1 $526 0.012500000000000261 $758 0.22549999999999992 $646 $759 forward 7 unknown #
point $-1 0.21299999999999969 -0.012500000000000261 -0.057500000000000107 #
coedge $-1 $760 $737 $528 $653 reversed $681 $-1 #
edge $-1 $656 -0.21299999999999969 $569 -5.6505577468772352e-016 $652 $570 forward 7 unknown #
coedge $-1 $529 $746 $760 $761 reversed $655 $-1 #
loop $-1 $-1 $647 $762 #
vertex $-1 $530 $763 #
straight-curve $-1 0.21299999999999969 0 0.05750000000000012 0 1 0 I I #
coedge $-1 $738 $749 $531 $659 reversed $625 $-1 #
edge $-1 $740 -0.092333276972805647 $660 -0.067787808667056804 $531 $764 forward 7 unknown #
vertex $-1 $659 $765 #
ellipse-curve $-1 0.032055839110755206 0.21323529449092676 0.05750000000000012 0 0 1 -0.0021089367836021125 -0.014851006216508367 0 1 I I #
face $-1 $432 $756 $37 $-1 $456 forward single #
edge $-1 $457 -0.05750000000000012 $664 0.05750000000000012 $547 $766 forward 7 unknown #
vertex $-1 $556 $767 #
straight-curve $-1 0 -0.22549999999999992 -0.05750000000000012 -1 0 0 I I #
coedge $-1 $542 $541 $757 $768 reversed $544 $-1 #
coedge $-1 $641 $753 $541 $668 forward $754 $-1 #
edge $-1 $758 -0.21299999999999969 $428 9.3104412049272926e-017 $541 $665 forward 7 unknown #
coedge $-1 $755 $643 $542 $433 forward $756 $-1 #
face $-1 $762 $544 $37 $-1 $671 reversed single #
plane-surface $-1 0 -0.22549999999999992 0 0 1 0 0 0 1 forward_v I I I I #
edge $-1 $549 -0.22549999999999992 $421 -0.012500000000000261 $645 $657 forward 7 unknown #
point $-1 0.21299999999999969 -0.22549999999999992 0.05750000000000012 #
coedge $-1 $551 $550 $741 $769 forward $437 $-1 #
coedge $-1 $552 $567 $550 $676 reversed $568 $-1 #
edge $-1 $554 -0.21299999999999969 $770 5.6505577468772352e-016 $675 $771 forward 7 unknown #
edge $-1 $742 -0.10460601112568005 $560 -0.080060542819931219 $551 $772 forward 7 unknown #
straight-curve $-1 -0.21299999999999969 0.22549999999999992 0 0 0 -1 I I #
point $-1 -0.21299999999999969 0.22549999999999992 -0.05750000000000012 #
face $-1 $-1 $648 $37 $-1 $773 reversed single #
loop $-1 $-1 $737 $558 #
plane-surface $-1 0 0.22549999999999992 0 0 -1 0 0 0 -1 forward_v I I I I #
point $-1 -0.019547551779747832 0.20495623971124588 -0.05750000000000012 #
coedge $-1 $562 $741 $627 $687 forward $510 $-1 #
ellipse-curve $-1 5.6505577468772352e-016 -0.012500000000000233 0.05750000000000012 0 0 -1 0.0059999999999994459 0.237924357727409 0 1 I I #
point $-1 -0.0059999999999999915 0.22542435772740876 0.05750000000000012 #
edge $-1 $770 -0.11500000000000012 $569 1.2490009027033011e-016 $737 $774 forward 7 unknown #
face $-1 $545 $568 $37 $-1 $682 reversed single #
point $-1 5.6505577468772352e-016 0.22549999999999992 0.05750000000000012 #
face $-1 $748 $754 $37 $-1 $573 reversed single #
pid_name-sg-attrib $-1 $-1 $575 $248 7 rwilson 784252905 621 1 #
pid_name-sg-attrib $-1 $-1 $576 $350 7 rwilson 784252905 622 1 #
attrib_hh_face_geombuild-attrib_entity_geombuild-individual_entity_attribute-attrib_HH-attrib $-1 $775 $577 $461 F #
coedge $776 $699 $622 $696 $777 reversed $578 $-1 #
attrib_hh_coedge_geombuild-attrib_entity_geombuild-individual_entity_attribute-attrib_HH-attrib $-1 $-1 $-1 $580 F #
coedge $778 $729 $580 $694 $777 forward $462 $-1 #
coedge $779 $580 $729 $585 $706 forward $462 $-1 #
attrib_hh_coedge_geombuild-attrib_entity_geombuild-individual_entity_attribute-attrib_HH-attrib $-1 $-1 $-1 $582 F #
coedge $780 $609 $694 $582 $700 forward $578 $-1 #
edge $781 $703 -0.024545468305748858 $615 1.1010767525327978e-017 $582 $782 reversed 7 unknown #
attrib_edge_convexity-kcp-attrib $-1 $783 $-1 $583 1 #
vertex $784 $706 $785 #
vertex $786 $777 $787 #
ellipse-curve $-1 -0.032055839110755303 0.225735294490927 0.115 0 0 1 0.0021089367836023198 -0.014851006216508301 0 1 I I #
attrib_hh_coedge_geombuild-attrib_entity_geombuild-individual_entity_attribute-attrib_HH-attrib $-1 $-1 $-1 $585 F #
edge $788 $711 0 $702 0.115 $585 $789 forward 7 unknown #
attrib_edge_convexity-kcp-attrib $-1 $790 $-1 $586 1 #
ellipse-curve $-1 0 0 0.115 -8.2443316008247101e-017 5.8056088170488999e-016 1 -0.029946902327152899 0.21088428827441799 -1.2490009027033001e-016 1 I I #
attrib_hh_coedge_geombuild-attrib_entity_geombuild-individual_entity_attribute-attrib_HH-attrib $-1 $-1 $-1 $588 F #
attrib_hh_edge_geombuild-attrib_entity_geombuild-individual_entity_attribute-attrib_HH-attrib $-1 $-1 $-1 $589 F #
vertex $791 $706 $792 #
ellipse-curve $-1 0 0 0 0 0 1 -0.029946902327152899 0.21088428827441799 0 1 I I #
attrib_hh_vertex_geombuild-attrib_entity_geombuild-individual_entity_attribute-attrib_HH-attrib $-1 $-1 $-1 $591 F #
point $-1 0.029946902327153 0.21088428827441799 0 #
attrib_hh_edge_geombuild-attrib_entity_geombuild-individual_entity_attribute-attrib_HH-attrib $-1 $-1 $-1 $594 F #
ellipse-curve $-1 0.032055839110755199 0.225735294490927 0 0 0 1 -0.012508287331007501 -0.0082790547796808799 0 1 I I #
attrib_hh_edge_geombuild-attrib_entity_geombuild-individual_entity_attribute-attrib_HH-attrib $-1 $-1 $598 $358 F #
attrib_hh_edge_geombuild-attrib_entity_geombuild-individual_entity_attribute-attrib_HH-attrib $-1 $-1 $604 $362 F #
attrib_hh_coedge_geombuild-attrib_entity_geombuild-individual_entity_attribute-attrib_HH-attrib $-1 $-1 $-1 $609 F #
attrib_hh_edge_geombuild-attrib_entity_geombuild-individual_entity_attribute-attrib_HH-attrib $-1 $-1 $-1 $610 F #
straight-curve $-1 -0.0059999999999999802 0.237924357727409 0 0 0 1 I I #
attrib_hh_vertex_geombuild-attrib_entity_geombuild-individual_entity_attribute-attrib_HH-attrib $-1 $-1 $-1 $612 F #
point $-1 -0.0059999999999999802 0.237924357727409 0 #
convexity-sys-attrib $-1 $793 $614 $493 #
attrib_hh_vertex_geombuild-attrib_entity_geombuild-individual_entity_attribute-attrib_HH-attrib $-1 $-1 $-1 $615 F #
point $-1 -0.0059999999999999802 0.237924357727409 0.115 #
attrib_hh_face_geombuild-attrib_entity_geombuild-individual_entity_attribute-attrib_HH-attrib $-1 $794 $617 $494 F #
attrib_hh_coedge_geombuild-attrib_entity_geombuild-individual_entity_attribute-attrib_HH-attrib $-1 $-1 $-1 $621 F #
coedge $795 $697 $696 $621 $730 forward $462 $-1 #
edge $796 $733 -0.84504787550506322 $711 1.0540854454719727e-015 $621 $797 reversed 7 unknown #
attrib_hh_coedge_geombuild-attrib_entity_geombuild-individual_entity_attribute-attrib_HH-attrib $-1 $-1 $-1 $622 F #
attrib_hh_edge_geombuild-attrib_entity_geombuild-individual_entity_attribute-attrib_HH-attrib $-1 $-1 $-1 $623 F #
vertex $798 $777 $799 #
straight-curve $-1 -0.0060000000000000001 0.237924357727409 0 -0.55193698531205804 -0.83388582206716799 0 I I #
cone-surface $-1 0.032055839110755206 0.21323529449092676 0.057499999999999996 0 0 1 -0.0021089367836021125 -0.014851006216508367 0 1 I I 0 -1 0.015000000000000006 forward I I I I #
coedge $-1 $628 $627 $800 $801 reversed $408 $-1 #
coedge $-1 $652 $802 $567 $687 forward $681 $-1 #
coedge $-1 $803 $658 $628 $739 forward $625 $-1 #
edge $-1 $740 -1.2490009027033011e-016 $804 0.11500000000000012 $628 $805 forward 7 unknown #
vertex $-1 $630 $806 #
coedge $-1 $684 $632 $674 $769 reversed $510 $-1 #
vertex $-1 $677 $807 #
straight-curve $-1 -0.0059999999999999915 0.22542435772740876 0.057499999999999996 0 0 -1 I I #
coedge $-1 $800 $635 $803 $808 forward $637 $-1 #
coedge $-1 $636 $800 $802 $809 forward $637 $-1 #
coedge $-1 $654 $647 $636 $747 reversed $655 $-1 #
edge $-1 $810 -0.22549999999999992 $526 0.012500000000000261 $746 $759 forward 7 unknown #
face $-1 $688 $637 $37 $-1 $573 reversed single #
coedge $-1 $658 $803 $638 $750 reversed $625 $-1 #
edge $-1 $660 -1.2490009027033011e-016 $751 0.11500000000000012 $749 $811 forward 7 unknown #
vertex $-1 $808 $812 #
ellipse-curve $-1 0.032055839110755206 0.21323529449092676 -0.05750000000000012 0 0 -1 -0.0021089367836021125 -0.014851006216508367 0 1 I I #
coedge $-1 $667 $641 $646 $650 forward $754 $-1 #
loop $-1 $-1 $641 $690 #
coedge $-1 $643 $669 $645 $672 forward $756 $-1 #
loop $-1 $-1 $643 $662 #
coedge $-1 $646 $645 $666 $768 forward $648 $-1 #
vertex $-1 $768 $813 #
straight-curve $-1 0.21299999999999969 0 -0.05750000000000012 0 -1 0 I I #
coedge $-1 $802 $652 $654 $761 forward $681 $-1 #
edge $-1 $656 -0.05750000000000012 $810 0.05750000000000012 $654 $814 forward 7 unknown #
face $-1 $533 $655 $37 $-1 $773 reversed single #
point $-1 0.21299999999999969 0.22549999999999992 0.05750000000000012 #
straight-curve $-1 0.056962150536353659 0.14842894715478522 0.05750000000000012 0.55193698531205826 -0.83388582206716821 0 I I #
point $-1 0.0195475517797477 0.20495623971124577 0.05750000000000012 #
straight-curve $-1 -0.21299999999999969 -0.22549999999999992 0 0 0 -1 I I #
point $-1 -0.21299999999999969 -0.22549999999999992 -0.05750000000000012 #
edge $-1 $549 -0.05750000000000012 $758 0.05750000000000012 $757 $815 forward 7 unknown #
edge $-1 $770 0.025212755168781409 $742 0.050425510337567481 $674 $816 forward 7 unknown #
vertex $-1 $809 $817 #
straight-curve $-1 0 0.22549999999999992 -0.05750000000000012 1 0 0 I I #
straight-curve $-1 -0.063735926426227635 0.13819488814670383 -0.05750000000000012 -0.55193698531205848 -0.83388582206716799 0 I I #
plane-surface $-1 0.21299999999999969 0 0 -1 0 0 0 0 1 forward_v I I I I #
straight-curve $-1 5.6505577468772352e-016 0.22549999999999992 0.057499999999999996 0 0 1 I I #
pid_name-sg-attrib $-1 $-1 $693 $461 7 rwilson 784252905 623 1 #
attrib_hh_coedge_geombuild-attrib_entity_geombuild-individual_entity_attribute-attrib_HH-attrib $-1 $-1 $-1 $694 F #
edge $818 $703 -0.115 $733 0 $694 $819 reversed 7 unknown #
attrib_hh_coedge_geombuild-attrib_entity_geombuild-individual_entity_attribute-attrib_HH-attrib $-1 $-1 $-1 $696 F #
attrib_hh_coedge_geombuild-attrib_entity_geombuild-individual_entity_attribute-attrib_HH-attrib $-1 $-1 $-1 $697 F #
attrib_hh_coedge_geombuild-attrib_entity_geombuild-individual_entity_attribute-attrib_HH-attrib $-1 $-1 $-1 $699 F #
attrib_edge_convexity-kcp-attrib $-1 $820 $-1 $700 1 #
straight-curve $-1 -0.0060000000000000001 0.237924357727409 0.115 -0.55193698531205804 -0.83388582206716799 0 I I #
convexity-sys-attrib $-1 $821 $701 $583 #
attrib_hh_vertex_geombuild-attrib_entity_geombuild-individual_entity_attribute-attrib_HH-attrib $-1 $-1 $-1 $702 F #
point $-1 -0.029946902327152899 0.21088428827441799 0.115 #
attrib_hh_vertex_geombuild-attrib_entity_geombuild-individual_entity_attribute-attrib_HH-attrib $-1 $-1 $-1 $703 F #
point $-1 -0.0195475517797477 0.217456239711246 0.115 #
attrib_hh_edge_geombuild-attrib_entity_geombuild-individual_entity_attribute-attrib_HH-attrib $-1 $-1 $-1 $706 F #
straight-curve $-1 -0.029946902327152899 0.21088428827441799 0 0 0 1 I I #
convexity-sys-attrib $-1 $822 $707 $586 #
attrib_hh_vertex_geombuild-attrib_entity_geombuild-individual_entity_attribute-attrib_HH-attrib $-1 $-1 $-1 $711 F #
point $-1 -0.029946902327152899 0.21088428827441799 0 #
attrib_hh_edge_geombuild-attrib_entity_geombuild-individual_entity_attribute-attrib_HH-attrib $-1 $-1 $724 $493 F #
pid_name-sg-attrib $-1 $-1 $727 $494 7 rwilson 784252905 624 1 #
attrib_hh_coedge_geombuild-attrib_entity_geombuild-individual_entity_attribute-attrib_HH-attrib $-1 $-1 $-1 $729 F #
attrib_hh_edge_geombuild-attrib_entity_geombuild-individual_entity_attribute-attrib_HH-attrib $-1 $-1 $-1 $730 F #
ellipse-curve $-1 -0.032055839110755303 0.225735294490927 0 0 0 1 0.0021089367836023198 -0.014851006216508301 0 1 I I #
attrib_hh_vertex_geombuild-attrib_entity_geombuild-individual_entity_attribute-attrib_HH-attrib $-1 $-1 $-1 $733 F #
point $-1 -0.0195475517797477 0.217456239711246 0 #
coedge $-1 $745 $744 $736 $801 forward $637 $-1 #
edge $-1 $804 -7.6562543075030214e-018 $770 0.025212755168781409 $800 $816 forward 7 unknown #
coedge $-1 $737 $760 $745 $809 reversed $681 $-1 #
coedge $-1 $749 $738 $744 $808 reversed $625 $-1 #
vertex $-1 $801 $823 #
straight-curve $-1 0.0060000000000000123 0.22542435772740876 0.057499999999999996 0 0 -1 I I #
point $-1 0.0060000000000000123 0.22542435772740876 0.05750000000000012 #
point $-1 -0.0059999999999999915 0.22542435772740876 -0.05750000000000012 #
edge $-1 $751 0.067787808667056804 $804 0.092333276972805647 $744 $824 forward 7 unknown #
edge $-1 $770 5.6505577468772352e-016 $810 0.21299999999999969 $802 $771 forward 7 unknown #
vertex $-1 $747 $825 #
straight-curve $-1 0.0195475517797477 0.20495623971124577 0.057499999999999996 0 0 -1 I I #
point $-1 0.0195475517797477 0.20495623971124577 -0.05750000000000012 #
point $-1 0.21299999999999969 -0.22549999999999992 -0.05750000000000012 #
straight-curve $-1 0.21299999999999969 0.22549999999999992 0 0 0 -1 I I #
straight-curve $-1 0.21299999999999969 -0.22549999999999992 0 0 0 -1 I I #
ellipse-curve $-1 5.6505577468772352e-016 -0.012500000000000233 -0.05750000000000012 0 0 1 0.0059999999999994459 0.237924357727409 0 1 I I #
point $-1 5.6505577468772352e-016 0.22549999999999992 -0.05750000000000012 #
attrib_hh_edge_geombuild-attrib_entity_geombuild-individual_entity_attribute-attrib_HH-attrib $-1 $-1 $-1 $777 F #
straight-curve $-1 -0.0195475517797477 0.217456239711246 0 0 0 1 I I #
convexity-sys-attrib $-1 $826 $781 $700 #
attrib_hh_edge_geombuild-attrib_entity_geombuild-individual_entity_attribute-attrib_HH-attrib $-1 $-1 $783 $583 F #
attrib_hh_edge_geombuild-attrib_entity_geombuild-individual_entity_attribute-attrib_HH-attrib $-1 $-1 $790 $586 F #
point $-1 0.0060000000000000123 0.22542435772740876 -0.05750000000000012 #
straight-curve $-1 0.056962150536353659 0.14842894715478522 -0.057500000000000134 -0.55193698531205826 0.83388582206716821 0 I I #
point $-1 0.21299999999999969 0.22549999999999992 -0.05750000000000012 #
attrib_hh_edge_geombuild-attrib_entity_geombuild-individual_entity_attribute-attrib_HH-attrib $-1 $-1 $820 $700 F #
End-of-ACIS-data 