600 0 1 0           
125 GICL ACIS Healer - Source: /gicl/data5/repository/Sandia/Randy_Wilson/discriminator/sh-r44360-000-u/sh-r44360-000-u.sat - 6 0 18 ACIS 6.0.3 Solaris 24 Sat Apr 13 23:37:54 2002 
1 9.999999999999999547e-07 1.000000000000000036e-10 
body $-1 $1 $-1 $2 #
lump $-1 $-1 $3 $0 #
transform $-1 1 0 0 0 1 0 0 0 1 0 0 0 1 no_rotate no_reflect no_shear #
shell $-1 $-1 $-1 $4 $-1 $1 #
face $5 $6 $7 $3 $-1 $8 reversed single #
pid_name-sg-attrib $-1 $-1 $-1 $4 7 rwilson 784252905 615 1 #
face $9 $10 $11 $3 $-1 $12 reversed single #
loop $-1 $13 $14 $4 #
cone-surface $-1 0 0 -0.8217499999999999805 0 0 -1 0.9999999999999990008 0 0 1 I I 0.7071067811865470176 0.7071067811865480168 0.9999999999999990008 forward I I I I #
pid_name-sg-attrib $-1 $-1 $-1 $6 7 rwilson 784252905 616 1 #
face $15 $16 $17 $3 $-1 $18 reversed single #
loop $-1 $19 $20 $6 #
cone-surface $-1 0 0 0 0 0 1 0.1582500000000000018 0 0 1 I I 0 1 0.1582500000000000018 forward I I I I #
loop $-1 $-1 $21 $4 #
coedge $-1 $14 $14 $22 $23 forward $7 $-1 #
pid_name-sg-attrib $-1 $-1 $-1 $10 7 rwilson 784252905 617 1 #
face $24 $25 $26 $3 $-1 $27 forward single #
loop $-1 $28 $29 $10 #
cone-surface $-1 0 0 0.9367499999999999716 0 0 1 0.9999999999999990008 0 0 1 I I 0.7071067811865470176 0.7071067811865480168 0.9999999999999990008 forward I I I I #
loop $-1 $-1 $30 $6 #
coedge $-1 $20 $20 $31 $32 reversed $11 $-1 #
coedge $-1 $21 $21 $30 $33 forward $13 $-1 #
coedge $-1 $22 $22 $14 $23 reversed $34 $-1 #
edge $-1 $35 -3.141592653589793116 $35 3.141592653589793116 $22 $36 forward 7 unknown #
pid_name-sg-attrib $-1 $-1 $-1 $16 7 rwilson 784252905 618 1 #
face $37 $38 $39 $3 $-1 $40 reversed single #
loop $-1 $-1 $41 $16 #
plane-surface $-1 0.02334650182811710134 0.2117166522793839933 0 0.8338858220671682142 0.5519369853120581482 0 0 0 -1 forward_v I I I I #
loop $-1 $-1 $31 $10 #
coedge $-1 $29 $29 $42 $43 forward $17 $-1 #
coedge $-1 $30 $30 $21 $33 reversed $19 $-1 #
coedge $-1 $31 $31 $20 $32 forward $28 $-1 #
edge $-1 $44 -3.141592653589793116 $44 3.141592653589793116 $20 $45 forward 7 unknown #
edge $-1 $46 -6.283185307179586232 $46 2.449212707644752051e-16 $30 $47 reversed 7 unknown #
loop $-1 $-1 $22 $48 #
vertex $-1 $23 $49 #
ellipse-curve $-1 0 0 -5.551115123125780237e-17 -3.114230083100020232e-16 0 -1 -0.1782499999999999918 0 5.551115123125780237e-17 1 I I #
pid_name-sg-attrib $-1 $-1 $-1 $25 7 rwilson 784252905 619 1 #
face $50 $51 $52 $3 $-1 $53 forward single #
loop $-1 $-1 $54 $25 #
cone-surface $-1 0.03205583911075519932 0.2257352944909269965 0 0 0 1 -0.0125082873310075008 -0.008279054779680879855 0 1 I I 0 1 0.01499999999999998557 forward I I I I #
coedge $-1 $55 $56 $57 $58 reversed $26 $-1 #
coedge $-1 $42 $42 $29 $43 reversed $59 $-1 #
edge $-1 $60 -6.283185307179586232 $60 -1.224606353822378737e-16 $42 $61 reversed 7 unknown #
vertex $-1 $32 $62 #
ellipse-curve $-1 0 0 0.09500000000000000111 -1.753906831951269996e-16 4.295690900840010038e-32 -1 0.1582500000000000018 -3.875879109847829884e-17 -2.775557561562890118e-17 1 I I #
vertex $-1 $33 $63 #
ellipse-curve $-1 0 0 0.02000000000000000042 1.753906831951269996e-16 -4.295690900840010038e-32 -1 0.1582500000000000018 -3.875879109847820024e-17 2.775557561562890118e-17 1 I I #
face $64 $-1 $65 $3 $-1 $66 reversed single #
point $-1 0.1782499999999999918 0 0 #
pid_name-sg-attrib $-1 $-1 $-1 $38 7 rwilson 784252905 620 1 #
face $67 $68 $69 $3 $-1 $70 forward single #
loop $-1 $-1 $71 $38 #
cone-surface $-1 0 0 0 0 0 1 0.2129999999999999949 0 0 1 I I 0 1 0.2129999999999999949 forward I I I I #
coedge $-1 $72 $73 $74 $75 forward $39 $-1 #
coedge $-1 $76 $41 $77 $78 forward $26 $-1 #
coedge $-1 $41 $76 $79 $80 forward $26 $-1 #
coedge $-1 $81 $82 $41 $58 forward $83 $-1 #
edge $-1 $84 -0.115000000000000005 $85 -0 $41 $86 reversed 7 unknown #
loop $-1 $-1 $42 $51 #
vertex $-1 $43 $87 #
ellipse-curve $-1 0 0 0.115000000000000005 3.114230083100020232e-16 0 -1 -0.1782499999999999918 0 -5.551115123125780237e-17 1 I I #
point $-1 -0.1582500000000000018 1.937939554923910012e-17 0.09500000000000000111 #
point $-1 0.1582500000000000018 0 0.02000000000000000042 #
pid_name-sg-attrib $-1 $-1 $-1 $48 7 rwilson 784252905 625 1 #
loop $-1 $34 $88 $48 #
plane-surface $-1 0 0 0 0 0 1 1 0 0 forward_v I I I I #
pid_name-sg-attrib $-1 $-1 $-1 $51 7 rwilson 784252905 621 1 #
face $89 $90 $91 $3 $-1 $92 reversed single #
loop $-1 $59 $93 $51 #
plane-surface $-1 0 0 0.115000000000000005 0 0 1 1 0 0 forward_v I I I I #
coedge $-1 $94 $95 $72 $96 reversed $52 $-1 #
coedge $-1 $97 $54 $71 $96 forward $39 $-1 #
coedge $-1 $54 $97 $76 $98 forward $39 $-1 #
coedge $-1 $77 $99 $54 $75 reversed $69 $-1 #
edge $-1 $100 6.444979580886040024e-15 $101 0.8450478755050804258 $74 $102 forward 7 unknown #
coedge $-1 $56 $55 $73 $98 reversed $26 $-1 #
coedge $-1 $103 $74 $55 $78 reversed $69 $-1 #
edge $-1 $84 -0.02454546830574885069 $100 -0 $77 $104 reversed 7 unknown #
coedge $-1 $105 $88 $56 $80 reversed $65 $-1 #
edge $-1 $106 0 $85 0.02454546830574885069 $79 $107 forward 7 unknown #
coedge $-1 $108 $57 $88 $109 forward $83 $-1 #
coedge $-1 $57 $108 $103 $110 forward $83 $-1 #
loop $-1 $-1 $108 $111 #
vertex $-1 $58 $112 #
vertex $-1 $58 $113 #
straight-curve $-1 0.006000000000000009666 0.2379243577274089971 0 0 0 1 I I #
point $-1 -0.1782499999999999918 2.182860825688390123e-17 0.115000000000000005 #
coedge $-1 $79 $114 $81 $109 reversed $65 $-1 #
pid_name-sg-attrib $-1 $-1 $-1 $68 7 rwilson 784252905 622 1 #
face $115 $111 $116 $3 $-1 $117 forward single #
loop $-1 $-1 $118 $68 #
cone-surface $-1 -0.0320558391107553034 0.2257352944909269965 0 0 0 1 0.00210893678360234019 -0.0148510062165083008 0 1 I I 0 1 0.01499999999999997342 forward I I I I #
coedge $-1 $99 $119 $118 $120 reversed $69 $-1 #
coedge $-1 $121 $71 $99 $122 forward $52 $-1 #
coedge $-1 $71 $121 $123 $124 forward $52 $-1 #
edge $-1 $101 -0.115000000000000005 $125 -0 $71 $126 reversed 7 unknown #
coedge $-1 $73 $72 $105 $127 forward $39 $-1 #
edge $-1 $106 0 $100 0.115000000000000005 $76 $128 forward 7 unknown #
coedge $-1 $74 $93 $94 $122 reversed $69 $-1 #
vertex $-1 $98 $129 #
vertex $-1 $96 $130 #
ellipse-curve $-1 0.03205583911075519932 0.2257352944909269965 0.115000000000000005 0 0 1 -0.0125082873310075008 -0.008279054779680879855 0 1 I I #
coedge $-1 $119 $77 $82 $110 reversed $69 $-1 #
straight-curve $-1 0.01954755177974770025 0.2174562397112460022 0.115000000000000005 -0.5519369853120580371 0.8338858220671679922 0 I I #
coedge $-1 $123 $79 $97 $127 reversed $65 $-1 #
vertex $-1 $98 $131 #
straight-curve $-1 0.01954755177974770025 0.2174562397112460022 0 -0.5519369853120580371 0.8338858220671679922 0 I I #
coedge $-1 $82 $81 $132 $133 forward $83 $-1 #
edge $-1 $85 -4.210939869126661135e-17 $134 0.05042551033756739048 $88 $135 forward 7 unknown #
edge $-1 $136 -0.05042551033756739048 $84 4.210939869126661135e-17 $103 $137 reversed 7 unknown #
face $138 $48 $83 $3 $-1 $139 forward single #
point $-1 0.006000000000000009666 0.2379243577274089971 0.115000000000000005 #
point $-1 0.006000000000000009666 0.2379243577274089971 0 #
coedge $-1 $88 $140 $141 $142 reversed $65 $-1 #
pid_name-sg-attrib $-1 $-1 $-1 $90 7 rwilson 784252905 623 1 #
loop $-1 $-1 $143 $90 #
plane-surface $-1 -0.006000000000000000125 0.2379243577274089971 0 -0.8338858220671682142 0.5519369853120581482 0 0 0 1 forward_v I I I I #
coedge $-1 $144 $145 $93 $120 forward $91 $-1 #
coedge $-1 $93 $103 $146 $147 reversed $69 $-1 #
edge $-1 $148 -1.054085445471972687e-15 $149 0.8450478755050632174 $93 $150 forward 7 unknown #
coedge $-1 $95 $94 $145 $151 reversed $52 $-1 #
edge $-1 $101 -6.001059003436127526 $148 -3.393313656931179408e-47 $99 $152 reversed 7 unknown #
coedge $-1 $140 $105 $95 $124 reversed $65 $-1 #
edge $-1 $153 0 $125 6.001059003436127526 $123 $154 forward 7 unknown #
vertex $-1 $96 $155 #
straight-curve $-1 0.02994690232715300007 0.2108842882744179914 0 0 0 1 I I #
edge $-1 $125 -0.8450478755050804258 $106 -6.444979580886040024e-15 $105 $156 reversed 7 unknown #
straight-curve $-1 0.01954755177974770025 0.2174562397112460022 0 0 0 1 I I #
point $-1 0.01954755177974770025 0.2174562397112460022 0.115000000000000005 #
point $-1 0.02994690232715300007 0.2108842882744179914 0.115000000000000005 #
point $-1 0.01954755177974770025 0.2174562397112460022 0 #
coedge $-1 $141 $146 $108 $133 reversed $116 $-1 #
edge $-1 $134 0 $136 0.115000000000000005 $132 $157 forward 7 unknown #
vertex $-1 $133 $158 #
ellipse-curve $-1 0 0 0 0 0 1 0.006000000000000000125 0.2379243577274089971 0 1 I I #
vertex $-1 $133 $159 #
ellipse-curve $-1 0 0 0.115000000000000005 0 0 1 0.006000000000000000125 0.2379243577274089971 0 1 I I #
pid_name-sg-attrib $-1 $-1 $-1 $111 7 rwilson 784252905 624 1 #
cone-surface $-1 0 0 0 0 0 1 0.2379999999999999893 0 0 1 I I 0 1 0.2379999999999999893 forward I I I I #
coedge $-1 $114 $123 $160 $161 reversed $65 $-1 #
coedge $-1 $143 $132 $114 $142 forward $116 $-1 #
edge $-1 $134 -1.101076752532797833e-17 $162 0.02454546830574885763 $114 $163 forward 7 unknown #
coedge $-1 $146 $141 $144 $164 reversed $116 $-1 #
coedge $-1 $160 $118 $143 $164 forward $91 $-1 #
coedge $-1 $118 $160 $121 $151 forward $91 $-1 #
coedge $-1 $132 $143 $119 $147 forward $116 $-1 #
edge $-1 $149 -0.02454546830574885763 $136 1.101076752532797833e-17 $119 $165 reversed 7 unknown #
vertex $-1 $151 $166 #
vertex $-1 $164 $167 #
ellipse-curve $-1 -0.0320558391107553034 0.2257352944909269965 0.115000000000000005 0 0 1 0.002108936783602319807 -0.0148510062165083008 0 1 I I #
edge $-1 $153 0 $148 0.115000000000000005 $121 $168 forward 7 unknown #
ellipse-curve $-1 0 0 0.115000000000000005 -8.244331600824710104e-17 5.80560881704889985e-16 1 -0.02994690232715289946 0.2108842882744179914 -1.249000902703300122e-16 1 I I #
vertex $-1 $151 $169 #
ellipse-curve $-1 0 0 0 0 0 1 -0.02994690232715289946 0.2108842882744179914 0 1 I I #
point $-1 0.02994690232715300007 0.2108842882744179914 0 #
ellipse-curve $-1 0.03205583911075519932 0.2257352944909269965 0 0 0 1 -0.0125082873310075008 -0.008279054779680879855 0 1 I I #
straight-curve $-1 -0.005999999999999980176 0.2379243577274089971 0 0 0 1 I I #
point $-1 -0.005999999999999980176 0.2379243577274089971 0 #
point $-1 -0.005999999999999980176 0.2379243577274089971 0.115000000000000005 #
coedge $-1 $145 $144 $140 $161 forward $91 $-1 #
edge $-1 $162 -0.8450478755050632174 $153 1.054085445471972687e-15 $140 $170 reversed 7 unknown #
vertex $-1 $164 $171 #
straight-curve $-1 -0.006000000000000000125 0.2379243577274089971 0 -0.5519369853120580371 -0.8338858220671679922 0 I I #
edge $-1 $149 -0.115000000000000005 $162 -0 $143 $172 reversed 7 unknown #
straight-curve $-1 -0.006000000000000000125 0.2379243577274089971 0.115000000000000005 -0.5519369853120580371 -0.8338858220671679922 0 I I #
point $-1 -0.02994690232715289946 0.2108842882744179914 0.115000000000000005 #
point $-1 -0.01954755177974770025 0.2174562397112460022 0.115000000000000005 #
straight-curve $-1 -0.02994690232715289946 0.2108842882744179914 0 0 0 1 I I #
point $-1 -0.02994690232715289946 0.2108842882744179914 0 #
ellipse-curve $-1 -0.0320558391107553034 0.2257352944909269965 0 0 0 1 0.002108936783602319807 -0.0148510062165083008 0 1 I I #
point $-1 -0.01954755177974770025 0.2174562397112460022 0 #
straight-curve $-1 -0.01954755177974770025 0.2174562397112460022 0 0 0 1 I I #
End-of-ACIS-data 