600 0 1 0           
91 GICL ACIS Healer - Source: /gicl/data5/repository/UMD/bracket4-Part/bracket4-Part.sat - 6 0 18 ACIS 6.0.3 Solaris 24 Sun Apr 14 00:35:57 2002 
1 9.999999999999999547e-07 1.000000000000000036e-10 
body $-1 $1 $-1 $-1 #
lump $-1 $-1 $2 $0 #
shell $-1 $-1 $-1 $3 $-1 $1 #
face $-1 $4 $5 $2 $-1 $6 reversed single #
face $-1 $7 $8 $2 $-1 $9 reversed single #
loop $-1 $-1 $10 $3 #
cone-surface $-1 -17.5 0 10 0 0 1 2.5 0 0 1 I I 0 1 2.5 forward I I I I #
face $-1 $11 $12 $2 $-1 $13 forward single #
loop $-1 $-1 $14 $4 #
cone-surface $-1 17.5 0 10 0 0 1 2.5 0 0 1 I I 0 1 2.5 forward I I I I #
coedge $-1 $15 $16 $17 $18 reversed $5 $-1 #
face $-1 $19 $20 $2 $-1 $21 forward single #
loop $-1 $22 $23 $7 #
plane-surface $-1 0 0 12.5 0 0 1 1 0 0 forward_v I I I I #
coedge $-1 $24 $25 $26 $27 reversed $8 $-1 #
coedge $-1 $28 $10 $29 $30 forward $5 $-1 #
coedge $-1 $10 $28 $23 $31 reversed $5 $-1 #
coedge $-1 $32 $33 $10 $18 forward $34 $-1 #
edge $-1 $35 -2.5 $36 2.5 $17 $37 reversed 7 unknown #
face $-1 $38 $34 $2 $-1 $39 forward single #
loop $-1 $-1 $40 $11 #
plane-surface $-1 0 0 7.5 0 0 1 1 0 0 forward_v I I I I #
loop $-1 $-1 $41 $7 #
coedge $-1 $42 $43 $16 $31 forward $12 $-1 #
coedge $-1 $44 $14 $45 $46 forward $8 $-1 #
coedge $-1 $14 $47 $48 $49 reversed $8 $-1 #
coedge $-1 $50 $51 $14 $27 forward $52 $-1 #
edge $-1 $53 -2.5 $54 2.5 $26 $55 reversed 7 unknown #
coedge $-1 $16 $15 $56 $57 forward $5 $-1 #
coedge $-1 $58 $59 $15 $30 reversed $60 $-1 #
edge $-1 $35 1.570796326794896558 $61 4.712388980384689674 $29 $62 forward 7 unknown #
edge $-1 $36 1.570796326794896558 $63 4.712388980384689674 $23 $64 forward 7 unknown #
coedge $-1 $65 $17 $43 $66 reversed $34 $-1 #
coedge $-1 $17 $65 $58 $67 forward $34 $-1 #
loop $-1 $-1 $65 $19 #
vertex $-1 $67 $68 #
vertex $-1 $66 $69 #
straight-curve $-1 -17.5 -2.5 10 0 0 -1 I I #
face $-1 $70 $71 $2 $-1 $39 forward single #
plane-surface $-1 0 -2.5 10 0 1 0 0 0 1 forward_v I I I I #
coedge $-1 $72 $45 $51 $73 reversed $20 $-1 #
coedge $-1 $74 $75 $76 $77 forward $22 $-1 #
coedge $-1 $78 $23 $79 $80 forward $12 $-1 #
coedge $-1 $23 $81 $32 $66 forward $12 $-1 #
coedge $-1 $82 $24 $83 $84 forward $8 $-1 #
coedge $-1 $40 $83 $24 $46 reversed $20 $-1 #
edge $-1 $53 -1.570796326794896558 $85 0 $45 $86 forward 7 unknown #
coedge $-1 $25 $82 $87 $88 reversed $8 $-1 #
coedge $-1 $87 $89 $25 $49 forward $12 $-1 #
edge $-1 $54 -1.570796326794896558 $90 0 $48 $91 forward 7 unknown #
coedge $-1 $92 $26 $89 $93 reversed $52 $-1 #
coedge $-1 $26 $92 $40 $73 forward $52 $-1 #
loop $-1 $-1 $92 $94 #
vertex $-1 $73 $95 #
vertex $-1 $93 $96 #
straight-curve $-1 17.5 2.5 10 0 0 -1 I I #
coedge $-1 $97 $79 $28 $57 reversed $98 $-1 #
edge $-1 $61 -2.5 $63 2.5 $56 $99 reversed 7 unknown #
coedge $-1 $100 $29 $33 $67 reversed $60 $-1 #
coedge $-1 $29 $100 $97 $101 reversed $60 $-1 #
loop $-1 $-1 $58 $102 #
vertex $-1 $101 $103 #
ellipse-curve $-1 -17.5 0 7.5 0 0 -1 2.5 0 0 1 I I #
vertex $-1 $31 $104 #
ellipse-curve $-1 -17.5 0 12.5 -0 -0 -1 2.5 0 0 1 I I #
coedge $-1 $33 $32 $105 $106 reversed $34 $-1 #
edge $-1 $107 4.330127018922190096 $36 17.5 $43 $108 forward 7 unknown #
edge $-1 $109 4.330127018922190096 $35 17.5 $33 $110 forward 7 unknown #
point $-1 -17.5 -2.5 7.5 #
point $-1 -17.5 -2.5 12.5 #
face $-1 $102 $98 $2 $-1 $111 forward single #
loop $-1 $-1 $112 $38 #
coedge $-1 $113 $40 $114 $115 reversed $20 $-1 #
edge $-1 $116 4.330127018922190096 $53 17.5 $51 $117 forward 7 unknown #
coedge $-1 $118 $41 $119 $120 forward $22 $-1 #
coedge $-1 $41 $121 $122 $123 forward $22 $-1 #
coedge $-1 $124 $125 $41 $77 reversed $126 $-1 #
edge $-1 $127 -6.25 $128 -3.75 $41 $129 forward 7 unknown #
coedge $-1 $89 $42 $130 $131 forward $12 $-1 #
coedge $-1 $56 $132 $42 $80 reversed $98 $-1 #
edge $-1 $63 -17.5 $133 -4.330127018922190096 $42 $134 forward 7 unknown #
coedge $-1 $43 $135 $136 $137 forward $12 $-1 #
coedge $-1 $47 $44 $138 $139 forward $8 $-1 #
coedge $-1 $45 $113 $44 $84 reversed $20 $-1 #
edge $-1 $85 0 $140 1.570796326794896558 $83 $86 forward 7 unknown #
vertex $-1 $46 $141 #
ellipse-curve $-1 17.5 0 7.5 0 0 -1 2.5 0 0 1 I I #
coedge $-1 $135 $48 $47 $88 forward $12 $-1 #
edge $-1 $90 0 $142 1.570796326794896558 $87 $91 forward 7 unknown #
coedge $-1 $48 $78 $50 $93 forward $12 $-1 #
vertex $-1 $49 $143 #
ellipse-curve $-1 17.5 0 12.5 -0 -0 -1 2.5 0 0 1 I I #
coedge $-1 $51 $50 $144 $145 reversed $52 $-1 #
edge $-1 $146 4.330127018922190096 $54 17.5 $89 $134 forward 7 unknown #
face $-1 $147 $52 $2 $-1 $111 forward single #
point $-1 17.5 2.5 7.5 #
point $-1 17.5 2.5 12.5 #
coedge $-1 $132 $56 $59 $101 forward $98 $-1 #
loop $-1 $-1 $132 $70 #
straight-curve $-1 -17.5 2.5 10 0 0 -1 I I #
coedge $-1 $59 $58 $148 $149 reversed $60 $-1 #
edge $-1 $61 -17.5 $150 -4.330127018922190096 $97 $117 forward 7 unknown #
face $-1 $94 $60 $2 $-1 $21 forward single #
point $-1 -17.5 2.5 7.5 #
point $-1 -17.5 2.5 12.5 #
coedge $-1 $136 $148 $65 $106 forward $151 $-1 #
edge $-1 $109 7.5 $107 12.5 $105 $152 forward 7 unknown #
vertex $-1 $137 $153 #
straight-curve $-1 0 -2.5 12.5 -1 0 0 I I #
vertex $-1 $149 $154 #
straight-curve $-1 0 -2.5 7.5 -1 0 0 I I #
plane-surface $-1 0 2.5 10 0 -1 0 0 0 -1 forward_v I I I I #
coedge $-1 $155 $156 $157 $158 reversed $71 $-1 #
coedge $-1 $83 $72 $156 $159 reversed $20 $-1 #
coedge $-1 $144 $157 $72 $115 forward $151 $-1 #
edge $-1 $160 -0.5235987755982991487 $116 0.5235987755982991487 $114 $161 forward 7 unknown #
vertex $-1 $115 $162 #
straight-curve $-1 0 2.5 7.5 1 0 0 I I #
coedge $-1 $163 $74 $164 $165 forward $22 $-1 #
coedge $-1 $166 $167 $74 $120 reversed $168 $-1 #
edge $-1 $128 2.5 $169 7.5 $74 $170 forward 7 unknown #
coedge $-1 $75 $171 $172 $173 forward $22 $-1 #
coedge $-1 $174 $175 $75 $123 reversed $176 $-1 #
edge $-1 $177 -7.5 $127 7.5 $75 $178 forward 7 unknown #
coedge $-1 $179 $76 $175 $180 reversed $126 $-1 #
coedge $-1 $76 $179 $166 $181 reversed $126 $-1 #
loop $-1 $-1 $124 $182 #
vertex $-1 $123 $183 #
vertex $-1 $120 $184 #
straight-curve $-1 -7.5 6.25 12.5 0 -1 0 I I #
coedge $-1 $185 $144 $78 $131 reversed $151 $-1 #
edge $-1 $133 -2.617993877991493967 $146 -0.5235987755982991487 $78 $186 forward 7 unknown #
coedge $-1 $79 $97 $185 $187 reversed $98 $-1 #
vertex $-1 $187 $188 #
straight-curve $-1 0 2.5 12.5 1 0 -0 I I #
coedge $-1 $81 $87 $155 $189 forward $12 $-1 #
coedge $-1 $157 $105 $81 $137 reversed $151 $-1 #
edge $-1 $190 0.5235987755982991487 $107 2.617993877991493967 $81 $186 forward 7 unknown #
coedge $-1 $156 $155 $82 $139 reversed $71 $-1 #
edge $-1 $140 -2.5 $142 2.5 $138 $191 reversed 7 unknown #
vertex $-1 $139 $192 #
point $-1 20 0 7.5 #
vertex $-1 $189 $193 #
point $-1 20 0 12.5 #
coedge $-1 $130 $114 $92 $145 forward $151 $-1 #
edge $-1 $116 7.5 $146 12.5 $144 $194 forward 7 unknown #
vertex $-1 $131 $195 #
face $-1 $196 $151 $2 $-1 $197 reversed single #
coedge $-1 $105 $185 $100 $149 forward $151 $-1 #
edge $-1 $150 2.617993877991493967 $109 3.665191429188092265 $148 $198 forward 7 unknown #
vertex $-1 $149 $199 #
loop $-1 $200 $144 $147 #
straight-curve $-1 -4.330127018922190096 -2.5 0 -0 -0 1 I I #
point $-1 -4.330127018922190096 -2.5 12.5 #
point $-1 -4.330127018922190096 -2.5 7.5 #
coedge $-1 $138 $112 $135 $189 reversed $71 $-1 #
coedge $-1 $112 $138 $113 $159 forward $71 $-1 #
coedge $-1 $114 $136 $112 $158 forward $151 $-1 #
edge $-1 $190 -12.5 $160 -7.5 $157 $201 forward 7 unknown #
edge $-1 $140 -17.5 $160 -4.330127018922190096 $156 $110 forward 7 unknown #
vertex $-1 $115 $202 #
ellipse-curve $-1 0 0 7.5 0 0 1 5 0 0 1 I I #
point $-1 4.330127018922190096 2.5 7.5 #
coedge $-1 $203 $118 $204 $205 forward $22 $-1 #
coedge $-1 $206 $207 $118 $165 reversed $208 $-1 #
edge $-1 $169 3.75 $209 18.75 $118 $210 forward 7 unknown #
coedge $-1 $211 $119 $125 $181 forward $168 $-1 #
coedge $-1 $119 $211 $206 $212 reversed $168 $-1 #
loop $-1 $-1 $167 $213 #
vertex $-1 $120 $214 #
straight-curve $-1 -5 10 12.5 -1 0 0 I I #
coedge $-1 $121 $215 $216 $217 forward $22 $-1 #
coedge $-1 $218 $219 $121 $173 reversed $220 $-1 #
edge $-1 $221 3.75 $177 6.25 $121 $222 forward 7 unknown #
coedge $-1 $223 $122 $219 $224 forward $176 $-1 #
coedge $-1 $122 $223 $124 $180 forward $176 $-1 #
loop $-1 $225 $175 $226 #
vertex $-1 $224 $227 #
straight-curve $-1 0 12.5 12.5 -1 0 0 I I #
coedge $-1 $125 $124 $228 $229 reversed $126 $-1 #
edge $-1 $230 -12.5 $127 12.5 $175 $231 forward 7 unknown #
edge $-1 $128 -12.5 $232 12.5 $125 $233 forward 7 unknown #
face $-1 $234 $126 $2 $-1 $235 forward single #
point $-1 -7.5 12.5 12.5 #
point $-1 -7.5 10 12.5 #
coedge $-1 $148 $130 $132 $187 forward $151 $-1 #
ellipse-curve $-1 0 0 12.5 -0 -0 -1 5 0 0 1 I I #
edge $-1 $133 -12.5 $150 -7.5 $185 $236 forward 7 unknown #
point $-1 -4.330127018922190096 2.5 12.5 #
edge $-1 $142 -17.5 $190 -4.330127018922190096 $135 $108 forward 7 unknown #
vertex $-1 $158 $237 #
straight-curve $-1 17.5 -2.5 10 0 0 -1 I I #
point $-1 17.5 -2.5 7.5 #
point $-1 17.5 -2.5 12.5 #
straight-curve $-1 4.330127018922190096 2.5 0 0 0 1 I I #
point $-1 4.330127018922190096 2.5 12.5 #
face $-1 $213 $238 $2 $-1 $239 reversed single #
cone-surface $-1 0 0 0 0 0 1 5 0 0 1 I I 0 1 5 forward I I I I #
ellipse-curve $-1 0 0 7.5 0 0 1 5 0 0 1 I I #
point $-1 -4.330127018922190096 2.5 7.5 #
loop $-1 $240 $241 $147 #
straight-curve $-1 4.330127018922190096 -2.5 0 -0 0 -1 I I #
point $-1 4.330127018922190096 -2.5 7.5 #
coedge $-1 $242 $163 $243 $244 forward $22 $-1 #
coedge $-1 $245 $246 $163 $205 reversed $247 $-1 #
edge $-1 $209 12.5 $248 40 $204 $249 forward 7 unknown #
coedge $-1 $250 $164 $167 $212 forward $208 $-1 #
coedge $-1 $164 $250 $245 $251 reversed $208 $-1 #
loop $-1 $-1 $250 $234 #
vertex $-1 $251 $252 #
straight-curve $-1 -12.5 6.25 12.5 0 1 0 I I #
coedge $-1 $167 $166 $253 $254 reversed $168 $-1 #
edge $-1 $169 -12.5 $255 12.5 $206 $256 forward 7 unknown #
face $-1 $182 $168 $2 $-1 $257 forward single #
point $-1 -12.5 10 12.5 #
coedge $-1 $171 $258 $259 $260 forward $22 $-1 #
coedge $-1 $261 $262 $171 $217 reversed $263 $-1 #
edge $-1 $264 -7.5 $221 -2.5 $171 $265 forward 7 unknown #
coedge $-1 $266 $172 $262 $267 forward $220 $-1 #
coedge $-1 $172 $266 $174 $224 reversed $220 $-1 #
loop $-1 $-1 $219 $268 #
vertex $-1 $217 $269 #
straight-curve $-1 7.5 6.25 12.5 0 1 0 I I #
coedge $-1 $175 $174 $270 $271 reversed $176 $-1 #
edge $-1 $177 -12.5 $272 12.5 $174 $273 forward 7 unknown #
loop $-1 $-1 $274 $226 #
face $-1 $275 $176 $2 $-1 $276 forward single #
point $-1 7.5 12.5 12.5 #
coedge $-1 $270 $253 $179 $229 forward $277 $-1 #
edge $-1 $232 3.75 $230 6.25 $228 $278 forward 7 unknown #
vertex $-1 $229 $279 #
straight-curve $-1 -7.5 12.5 0 0 -0 1 I I #
vertex $-1 $254 $280 #
straight-curve $-1 -7.5 10 0 0 0 -1 I I #
face $-1 $268 $208 $2 $-1 $281 forward single #
plane-surface $-1 -7.5 12.5 0 -1 0 0 0 0 1 forward_v I I I I #
straight-curve $-1 -4.330127018922190096 2.5 0 0 -0 -1 I I #
point $-1 4.330127018922190096 -2.5 12.5 #
loop $-1 $282 $283 $196 #
cone-surface $-1 0 0 0 0 -1 -3.491481338843129805e-15 2 0 0 1 I I 0 1 2 forward I I I I #
loop $-1 $284 $285 $147 #
coedge $-1 $241 $241 $286 $287 reversed $200 $-1 #
coedge $-1 $288 $203 $289 $290 forward $22 $-1 #
coedge $-1 $291 $292 $203 $244 reversed $293 $-1 #
edge $-1 $248 -18.75 $294 6.25 $203 $295 forward 7 unknown #
coedge $-1 $296 $204 $207 $251 forward $247 $-1 #
coedge $-1 $204 $297 $291 $298 forward $247 $-1 #
loop $-1 $-1 $297 $299 #
vertex $-1 $205 $300 #
straight-curve $-1 0 25 12.5 -1 0 0 I I #
coedge $-1 $207 $206 $301 $302 reversed $208 $-1 #
edge $-1 $209 -12.5 $303 12.5 $245 $304 forward 7 unknown #
point $-1 -12.5 25 12.5 #
coedge $-1 $228 $301 $211 $254 forward $277 $-1 #
edge $-1 $255 -7.5 $232 -2.5 $253 $305 forward 7 unknown #
vertex $-1 $254 $306 #
straight-curve $-1 -12.5 10 0 0 0 -1 I I #
plane-surface $-1 -10 10 0 0 1 0 0 0 1 forward_v I I I I #
coedge $-1 $215 $307 $308 $309 forward $22 $-1 #
coedge $-1 $310 $311 $215 $260 reversed $312 $-1 #
edge $-1 $313 -18.75 $264 -3.75 $215 $314 forward 7 unknown #
coedge $-1 $315 $216 $311 $316 forward $263 $-1 #
coedge $-1 $216 $315 $218 $267 reversed $263 $-1 #
loop $-1 $-1 $262 $317 #
vertex $-1 $217 $318 #
straight-curve $-1 5 10 12.5 -1 0 0 I I #
coedge $-1 $219 $218 $319 $320 reversed $220 $-1 #
edge $-1 $221 -12.5 $321 12.5 $218 $322 forward 7 unknown #
face $-1 $317 $220 $2 $-1 $323 forward single #
point $-1 7.5 10 12.5 #
coedge $-1 $319 $228 $223 $271 forward $277 $-1 #
edge $-1 $230 -7.5 $272 7.5 $270 $324 forward 7 unknown #
vertex $-1 $271 $325 #
straight-curve $-1 7.5 12.5 0 0 0 -1 I I #
coedge $-1 $274 $274 $283 $326 forward $225 $-1 #
face $-1 $327 $328 $2 $-1 $239 reversed single #
plane-surface $-1 0 12.5 0 0 1 0 0 0 1 forward_v I I I I #
loop $-1 $-1 $228 $329 #
straight-curve $-1 -7.5 6.25 -12.5 0 1 -0 I I #
point $-1 -7.5 12.5 -12.5 #
point $-1 -7.5 10 -12.5 #
plane-surface $-1 -12.5 18.75 0 1 0 0 0 0 -1 forward_v I I I I #
loop $-1 $-1 $330 $196 #
coedge $-1 $283 $283 $274 $326 reversed $238 $-1 #
loop $-1 $-1 $331 $147 #
coedge $-1 $285 $285 $330 $332 reversed $240 $-1 #
coedge $-1 $286 $286 $241 $287 forward $328 $-1 #
edge $-1 $333 0 $333 12.20366936883099918 $286 $334 forward 7 unknown #
coedge $-1 $335 $242 $336 $337 forward $22 $-1 #
coedge $-1 $338 $339 $242 $290 reversed $340 $-1 #
edge $-1 $294 -17.5 $341 -15 $242 $342 forward 7 unknown #
coedge $-1 $343 $243 $246 $298 reversed $293 $-1 #
coedge $-1 $243 $343 $338 $344 reversed $293 $-1 #
loop $-1 $-1 $343 $345 #
vertex $-1 $244 $346 #
straight-curve $-1 -40 6.25 12.5 0 -1 0 I I #
coedge $-1 $347 $245 $348 $349 reversed $247 $-1 #
coedge $-1 $246 $350 $351 $352 forward $247 $-1 #
edge $-1 $353 -1.12499999999990985 $248 9.375 $246 $354 forward 7 unknown #
face $-1 $345 $247 $2 $-1 $355 reversed single #
point $-1 -40 25 12.5 #
coedge $-1 $253 $348 $250 $302 forward $277 $-1 #
edge $-1 $303 -18.75 $255 -3.75 $301 $356 forward 7 unknown #
vertex $-1 $349 $357 #
straight-curve $-1 -12.5 25 0 0 0 -1 I I #
straight-curve $-1 -5 10 -12.5 1 0 0 I I #
point $-1 -12.5 10 -12.5 #
coedge $-1 $258 $358 $359 $360 forward $22 $-1 #
coedge $-1 $361 $362 $258 $309 reversed $363 $-1 #
edge $-1 $364 -40 $313 -12.5 $308 $249 forward 7 unknown #
coedge $-1 $365 $259 $362 $366 reversed $312 $-1 #
coedge $-1 $259 $365 $261 $316 reversed $312 $-1 #
loop $-1 $-1 $259 $367 #
vertex $-1 $309 $368 #
straight-curve $-1 12.5 6.25 12.5 0 -1 0 I I #
coedge $-1 $262 $261 $369 $370 reversed $263 $-1 #
edge $-1 $264 -12.5 $371 12.5 $311 $372 forward 7 unknown #
face $-1 $226 $263 $2 $-1 $373 forward single #
point $-1 12.5 10 12.5 #
coedge $-1 $369 $270 $266 $320 forward $277 $-1 #
edge $-1 $272 -6.25 $321 -3.75 $319 $374 forward 7 unknown #
vertex $-1 $370 $375 #
straight-curve $-1 7.5 10 0 0 0 -1 I I #
plane-surface $-1 7.5 12.5 0 1 0 0 0 0 -1 forward_v I I I I #
straight-curve $-1 0 12.5 -12.5 1 0 0 I I #
point $-1 7.5 12.5 -12.5 #
edge $-1 $376 -3.141592653589799777 $376 3.141592653589786455 $274 $377 forward 7 unknown #
face $-1 $378 $379 $2 $-1 $380 reversed single #
loop $-1 $381 $286 $275 #
face $-1 $382 $383 $2 $-1 $384 reversed single #
coedge $-1 $330 $330 $285 $332 forward $282 $-1 #
coedge $-1 $331 $331 $385 $386 reversed $284 $-1 #
edge $-1 $387 0 $387 12.20366936883099918 $330 $388 forward 7 unknown #
vertex $-1 $287 $389 #
intcurve-curve $-1 forward { surfintcur full nubs 3 periodic 33 
	0 3 0.3815576652526460055 2 0.7631153305052910119 2 1.144672995757940015 2 1.526230661010580025 2 
	1.907402331309870025 2 2.288574001609160025 2 2.66974567190843981 2 3.05091734220772981 2 3.43208901250701004 2 
	3.813260682806300039 2 4.194432353105580269 2 4.575604023404870269 2 4.957161688657519605 2 5.338719353910179599 2 
	5.720277019162829824 2 6.101834684415480048 2 6.483392349668130272 2 6.864950014920779608 2 7.246507680173439603 2 
	7.628065345426089827 2 8.009237015725370057 2 8.390408686024660057 2 8.771580356323939398 2 9.152752026623220516 2 
	9.533923696922510516 2 9.915095367221789857 2 10.2962670375210994 2 10.67743870782040005 2 11.05899637307300054 2 
	11.4405540383257005 2 11.82211170357829921 2 12.20366936883099918 3 
	2 -4.582575694955839829 -1.59999775227744007e-14 
	2 -4.582575694955839829 -0.1271858884175650073 
	1.987673530644229913 -4.588020555189720184 -0.2581852211410730069 
	1.936340174433399897 -4.60992032537495966 -0.5177764031439290315 
	1.897350128325550056 -4.626348587508919863 -0.6463738297196049976 
	1.79489398353533991 -4.667054094955849664 -0.892240292935081003 
	1.731346662955659976 -4.691316651086030021 -1.009732173034350033 
	1.585034200327589904 -4.742750232800729826 -1.226697564214020097 
	1.50225400701940992 -4.769869812553920063 -1.326173117726789918 
	1.326262182029319892 -4.82176697044153979 -1.502164942716889939 
	1.226829432030529965 -4.848430704387870271 -1.584933760357090105 
	1.009842073482390079 -4.898225161929899762 -1.731284051612870023 
	0.8922852499373770119 -4.921313096328909786 -1.794876796460300072 
	0.6462872884418660036 -4.959617757803470361 -1.89738464392356998 
	0.5176251421035299449 -4.974838281426549713 -1.936381227850499931 
	0.2580121197089800256 -4.995035681572580266 -1.987696604977009951 
	0.12705722343310899 -5 -2.000000000000019984 
	-0.1270572234330810124 -5 -2.000000000000019984 
	-0.2580121197089529916 -4.995035681572590036 -1.987696604977019943 
	-0.5176251421035029665 -4.974838281426549713 -1.936381227850509923 
	-0.6462872884418400243 -4.959617757803470361 -1.897384643923579972 
	-0.8922852499373510327 -4.921313096328919556 -1.794876796460310064 
	-1.009842073482370095 -4.898225161929899762 -1.731284051612880015 
	-1.226829432030509981 -4.848430704387880041 -1.584933760357100097 
	-1.326262182029299908 -4.82176697044153979 -1.502164942716909923 
	-1.502254007019399928 -4.769869812553920063 -1.326173117726809902 
	-1.585034200327579912 -4.742750232800729826 -1.226697564214040082 
	-1.731346662955649984 -4.691316651086030021 -1.009732173034360025 
	-1.794893983535329918 -4.667054094955860322 -0.892240292935095991 
	-1.897350128325550056 -4.626348587508919863 -0.6463738297196159888 
	-1.936340174433399897 -4.60992032537495966 -0.5177764031439380243 
	-1.987673530644229913 -4.588020555189720184 -0.2581852211410780029 
	-2 -4.582575694955839829 -0.1271858884175670057 
	-2 -4.582575694955839829 0.1271858884175340043 
	-1.987673530644229913 -4.588020555189720184 0.2581852211410449738 
	-1.936340174433399897 -4.60992032537495966 0.5177764031439040515 
	-1.897350128325550056 -4.626348587508919863 0.6463738297195820159 
	-1.794893983535329918 -4.667054094955860322 0.8922402929350600198 
	-1.731346662955649984 -4.691316651086030021 1.009732173034330049 
	-1.585034200327579912 -4.742750232800729826 1.226697564213999891 
	-1.502254007019399928 -4.769869812553920063 1.326173117726769934 
	-1.3262621820293099 -4.82176697044153979 1.502164942716869955 
	-1.226829432030519973 -4.848430704387880041 1.584933760357059906 
	-1.009842073482370095 -4.898225161929899762 1.731284051612840047 
	-0.8922852499373590263 -4.921313096328919556 1.794876796460270096 
	-0.6462872884418490171 -4.959617757803470361 1.897384643923540004 
	-0.5176251421035129585 -4.974838281426549713 1.936381227850469955 
	-0.2580121197089639828 -4.995035681572580266 1.987696604976979975 
	-0.127057223433094002 -5 1.999999999999980016 
	0.127057223433094002 -5 1.999999999999980016 
	0.258012119708964982 -4.995035681572580266 1.987696604976979975 
	0.5176251421035129585 -4.974838281426549713 1.936381227850469955 
	0.6462872884418490171 -4.959617757803470361 1.897384643923540004 
	0.8922852499373600255 -4.921313096328919556 1.794876796460270096 
	1.009842073482370095 -4.898225161929899762 1.731284051612840047 
	1.226829432030519973 -4.848430704387880041 1.584933760357059906 
	1.3262621820293099 -4.82176697044153979 1.502164942716869955 
	1.502254007019399928 -4.769869812553920063 1.326173117726769934 
	1.585034200327579912 -4.742750232800729826 1.226697564213999891 
	1.731346662955649984 -4.691316651086030021 1.009732173034330049 
	1.794893983535329918 -4.667054094955860322 0.8922402929350590206 
	1.897350128325550056 -4.626348587508919863 0.6463738297195820159 
	1.936340174433399897 -4.60992032537495966 0.5177764031439050507 
	1.987673530644229913 -4.588020555189720184 0.258185221141045973 
	2 -4.582575694955839829 0.1271858884175350035 
	2 -4.582575694955839829 -1.59999775227744007e-14 
	0.001000000000000000021 
	cone 0 0 0 0 -1 -3.491481338843129805e-15 2 0 0 1 I I -0 -1 2 forward I I I I 
	cone 0 0 0 0 0 1 5 0 0 1 I I -0 -1 5 forward I I I I 
	nullbs 
	nullbs 
	I I 
	0 
	0 
	0 
	} I I #
coedge $-1 $390 $288 $391 $392 forward $22 $-1 #
coedge $-1 $393 $394 $288 $337 reversed $395 $-1 #
edge $-1 $341 -0.785398163397448279 $396 0.785398163397448279 $288 $397 forward 7 unknown #
coedge $-1 $398 $289 $292 $344 forward $340 $-1 #
coedge $-1 $289 $399 $393 $400 reversed $340 $-1 #
loop $-1 $-1 $398 $378 #
vertex $-1 $290 $401 #
straight-curve $-1 -22.5 0 12.5 1 0 -0 I I #
coedge $-1 $292 $291 $402 $403 forward $293 $-1 #
edge $-1 $294 -9.375 $404 1.125 $338 $405 forward 7 unknown #
face $-1 $406 $293 $2 $-1 $407 forward single #
point $-1 -40 0 12.5 #
coedge $-1 $408 $296 $409 $410 reversed $247 $-1 #
coedge $-1 $301 $411 $296 $349 forward $277 $-1 #
edge $-1 $412 -62.5 $303 -12.5 $296 $413 forward 7 unknown #
coedge $-1 $297 $414 $415 $416 forward $247 $-1 #
coedge $-1 $415 $402 $297 $352 reversed $379 $-1 #
edge $-1 $417 0 $353 1.570796326794896558 $297 $418 forward 7 unknown #
vertex $-1 $352 $419 #
straight-curve $-1 -40 25 3.125 0 0 1 I I #
plane-surface $-1 0 25 0 0 -1 0 0 0 -1 forward_v I I I I #
straight-curve $-1 -12.5 6.25 -12.5 0 -1 0 I I #
point $-1 -12.5 25 -12.5 #
coedge $-1 $307 $420 $421 $422 forward $22 $-1 #
coedge $-1 $423 $424 $307 $360 reversed $425 $-1 #
edge $-1 $426 -6.25 $364 18.75 $307 $427 forward 7 unknown #
coedge $-1 $428 $308 $424 $429 forward $363 $-1 #
coedge $-1 $308 $430 $310 $366 forward $363 $-1 #
loop $-1 $-1 $428 $431 #
vertex $-1 $429 $432 #
coedge $-1 $311 $310 $433 $434 reversed $312 $-1 #
edge $-1 $435 -12.5 $313 12.5 $362 $436 forward 7 unknown #
face $-1 $299 $312 $2 $-1 $437 forward single #
point $-1 12.5 25 12.5 #
coedge $-1 $433 $319 $315 $370 forward $277 $-1 #
edge $-1 $321 2.5 $371 7.5 $369 $438 forward 7 unknown #
vertex $-1 $370 $439 #
straight-curve $-1 12.5 10 0 0 0 -1 I I #
plane-surface $-1 10 10 0 0 1 0 0 0 1 forward_v I I I I #
straight-curve $-1 7.5 6.25 -12.5 0 -1 0 I I #
point $-1 7.5 10 -12.5 #
vertex $-1 $326 $440 #
ellipse-curve $-1 0 12.5 4.36435167355391985e-14 -0 -1 -0 2 0 0 1 I I #
face $-1 $441 $340 $2 $-1 $442 forward single #
loop $-1 $-1 $402 $327 #
cone-surface $-1 -40 0 0 0 -1 -3.491481338843129805e-15 2 0 0 1 I I 0 1 2 forward I I I I #
loop $-1 $-1 $443 $275 #
face $-1 $-1 $444 $2 $-1 $445 reversed single #
loop $-1 $277 $385 $329 #
plane-surface $-1 0 0 -12.5 0 0 1 1 0 0 forward_v I I I I #
coedge $-1 $385 $385 $331 $386 forward $383 $-1 #
edge $-1 $446 0 $446 6.283185307179586232 $385 $447 forward 7 unknown #
vertex $-1 $332 $448 #
intcurve-curve $-1 forward { surfintcur full nubs 3 periodic 33 
	0 3 0.3815576652526510015 2 0.7631153305053030023 2 1.144672995757950007 2 1.526230661010610001 2 
	1.907402331309890009 2 2.288574001609169795 2 2.669745671908459794 2 3.050917342207740024 2 3.432089012507030024 2 
	3.813260682806309809 2 4.194432353105590039 2 4.575604023404880039 2 4.957161688657530263 2 5.338719353910179599 2 
	5.720277019162829824 2 6.101834684415480048 2 6.483392349668140042 2 6.864950014920790267 2 7.246507680173439603 2 
	7.628065345426089827 2 8.009237015725380715 2 8.390408686024670715 2 8.771580356323950056 2 9.152752026623240056 2 
	9.533923696922519397 2 9.915095367221809397 2 10.2962670375210994 2 10.67743870782040005 2 11.05899637307300054 2 
	11.4405540383257005 2 11.82211170357829921 2 12.20366936883099918 3 
	2 4.582575694955839829 1.59999775227744007e-14 
	2 4.582575694955839829 0.1271858884175660065 
	1.987673530644229913 4.588020555189720184 0.2581852211410770037 
	1.936340174433399897 4.60992032537495966 0.5177764031439370251 
	1.897350128325550056 4.626348587508919863 0.6463738297196139904 
	1.794893983535329918 4.667054094955860322 0.8922402929350929934 
	1.731346662955649984 4.691316651086030021 1.009732173034360025 
	1.585034200327579912 4.742750232800729826 1.22669756421403009 
	1.502254007019399928 4.769869812553920063 1.326173117726809902 
	1.3262621820293099 4.82176697044153979 1.502164942716899931 
	1.226829432030519973 4.848430704387880041 1.584933760357100097 
	1.009842073482370095 4.898225161929899762 1.731284051612880015 
	0.8922852499373600255 4.921313096328909786 1.794876796460310064 
	0.6462872884418500163 4.959617757803470361 1.897384643923579972 
	0.5176251421035139577 4.974838281426549713 1.936381227850499931 
	0.258012119708964982 4.995035681572590036 1.987696604977009951 
	0.1270572234330950012 5 2.000000000000019984 
	-0.1270572234330950012 5 2.000000000000019984 
	-0.258012119708964982 4.995035681572580266 1.987696604977009951 
	-0.5176251421035139577 4.974838281426549713 1.936381227850499931 
	-0.6462872884418500163 4.959617757803470361 1.897384643923579972 
	-0.8922852499373600255 4.921313096328909786 1.794876796460310064 
	-1.009842073482370095 4.898225161929899762 1.731284051612880015 
	-1.226829432030519973 4.848430704387880041 1.584933760357100097 
	-1.3262621820293099 4.82176697044153979 1.502164942716899931 
	-1.502254007019399928 4.769869812553920063 1.326173117726809902 
	-1.585034200327579912 4.742750232800729826 1.22669756421403009 
	-1.731346662955649984 4.691316651086030021 1.009732173034360025 
	-1.794893983535329918 4.667054094955860322 0.8922402929350919942 
	-1.897350128325550056 4.626348587508919863 0.6463738297196139904 
	-1.936340174433399897 4.60992032537495966 0.5177764031439360259 
	-1.987673530644229913 4.588020555189720184 0.2581852211410770037 
	-2 4.582575694955839829 0.1271858884175660065 
	-2 4.582575694955839829 -0.1271858884175350035 
	-1.987673530644229913 4.588020555189720184 -0.258185221141045973 
	-1.936340174433399897 4.60992032537495966 -0.5177764031439060499 
	-1.897350128325550056 4.626348587508919863 -0.6463738297195840143 
	-1.794893983535329918 4.667054094955860322 -0.8922402929350620182 
	-1.731346662955649984 4.691316651086030021 -1.009732173034330049 
	-1.585034200327579912 4.742750232800729826 -1.226697564213999891 
	-1.502254007019399928 4.769869812553920063 -1.326173117726779926 
	-1.326262182029299908 4.82176697044153979 -1.502164942716869955 
	-1.226829432030509981 4.848430704387880041 -1.584933760357069898 
	-1.009842073482370095 4.898225161929899762 -1.731284051612850039 
	-0.8922852499373510327 4.921313096328919556 -1.794876796460280088 
	-0.6462872884418390251 4.959617757803470361 -1.897384643923540004 
	-0.5176251421035019673 4.974838281426549713 -1.936381227850469955 
	-0.2580121197089519924 4.995035681572580266 -1.987696604976979975 
	-0.1270572234330810124 5 -1.999999999999980016 
	0.12705722343310899 5 -1.999999999999980016 
	0.2580121197089810248 4.995035681572580266 -1.987696604976979975 
	0.5176251421035299449 4.974838281426549713 -1.936381227850459963 
	0.6462872884418660036 4.959617757803470361 -1.897384643923540004 
	0.8922852499373760127 4.921313096328909786 -1.794876796460260104 
	1.009842073482390079 4.898225161929899762 -1.731284051612830055 
	1.226829432030529965 4.848430704387870271 -1.584933760357049914 
	1.326262182029319892 4.82176697044153979 -1.502164942716849971 
	1.50225400701940992 4.769869812553920063 -1.326173117726759942 
	1.585034200327589904 4.742750232800729826 -1.226697564213989899 
	1.731346662955659976 4.691316651086020251 -1.009732173034320057 
	1.79489398353533991 4.667054094955860322 -0.8922402929350480294 
	1.897350128325550056 4.626348587508919863 -0.6463738297195720239 
	1.936340174433399897 4.60992032537495966 -0.5177764031438959469 
	1.987673530644229913 4.588020555189720184 -0.2581852211410399778 
	2 4.582575694955839829 -0.1271858884175320059 
	2 4.582575694955839829 1.59999775227744007e-14 
	0.001000000000000000021 
	cone 0 0 0 0 -1 -3.491481338843129805e-15 2 0 0 1 I I -0 -1 2 forward I I I I 
	cone 0 0 0 0 0 1 5 0 0 1 I I -0 -1 5 forward I I I I 
	nullbs 
	nullbs 
	I I 
	0 
	0 
	0 
	} I I #
point $-1 2 -4.582575694955839829 -1.59999775227744007e-14 #
coedge $-1 $449 $335 $450 $451 forward $22 $-1 #
coedge $-1 $452 $453 $335 $392 reversed $454 $-1 #
edge $-1 $396 3.75 $455 18.75 $335 $456 forward 7 unknown #
coedge $-1 $457 $336 $339 $400 forward $395 $-1 #
coedge $-1 $336 $457 $452 $458 forward $395 $-1 #
loop $-1 $-1 $394 $459 #
vertex $-1 $392 $460 #
ellipse-curve $-1 -37.5 -10 12.5 -0 -0 -1 7.071067811865470176 7.071067811865470176 0 1 I I #
coedge $-1 $461 $338 $462 $463 forward $340 $-1 #
coedge $-1 $339 $464 $465 $466 reversed $340 $-1 #
edge $-1 $341 -12.5 $467 12.5 $339 $468 forward 7 unknown #
point $-1 -37.5 0 12.5 #
coedge $-1 $351 $462 $343 $403 reversed $379 $-1 #
edge $-1 $353 -25.00000000000000711 $404 -6.730224530203050339e-15 $343 $469 forward 7 unknown #
vertex $-1 $344 $470 #
straight-curve $-1 -40 0 3.125 -0 -0 -1 I I #
face $-1 $471 $472 $2 $-1 $13 forward single #
plane-surface $-1 -40 12.5 6.25 -1 0 0 0 0 1 forward_v I I I I #
coedge $-1 $473 $347 $474 $475 reversed $247 $-1 #
coedge $-1 $476 $477 $347 $410 forward $444 $-1 #
edge $-1 $478 -12.5 $412 12.5 $347 $479 forward 7 unknown #
coedge $-1 $348 $465 $476 $480 forward $277 $-1 #
vertex $-1 $349 $481 #
straight-curve $-1 0 25 -12.5 1 0 0 I I #
coedge $-1 $350 $482 $483 $484 forward $247 $-1 #
coedge $-1 $485 $351 $350 $416 reversed $379 $-1 #
edge $-1 $486 -3.141592653589749595 $417 0 $350 $418 forward 7 unknown #
vertex $-1 $416 $487 #
ellipse-curve $-1 -40 25 8.728703347107829602e-14 0 -1 0 2 0 0 1 I I #
point $-1 -40 25 2.00000000000009015 #
coedge $-1 $358 $488 $489 $490 forward $22 $-1 #
coedge $-1 $491 $492 $358 $422 reversed $493 $-1 #
edge $-1 $494 15 $426 17.5 $358 $495 forward 7 unknown #
coedge $-1 $496 $359 $492 $497 reversed $425 $-1 #
coedge $-1 $359 $496 $361 $429 reversed $425 $-1 #
loop $-1 $-1 $496 $498 #
vertex $-1 $422 $499 #
straight-curve $-1 40 6.25 12.5 0 1 0 I I #
coedge $-1 $500 $361 $501 $502 forward $363 $-1 #
edge $-1 $364 -9.375 $503 1.12499999999990985 $361 $504 forward 7 unknown #
coedge $-1 $362 $505 $506 $507 reversed $363 $-1 #
face $-1 $508 $363 $2 $-1 $355 reversed single #
point $-1 40 25 12.5 #
coedge $-1 $506 $369 $365 $434 forward $277 $-1 #
edge $-1 $371 3.75 $435 18.75 $433 $509 forward 7 unknown #
vertex $-1 $434 $510 #
straight-curve $-1 12.5 25 0 0 0 1 I I #
plane-surface $-1 12.5 18.75 0 -1 0 0 0 0 1 forward_v I I I I #
straight-curve $-1 5 10 -12.5 1 0 0 I I #
point $-1 12.5 10 -12.5 #
point $-1 -2 12.5 5.760944209091169405e-14 #
face $-1 $511 $512 $2 $-1 $513 forward single #
plane-surface $-1 -45 0 0 0 -1 0 0 0 -1 forward_v I I I I #
coedge $-1 $443 $443 $514 $515 reversed $381 $-1 #
loop $-1 $-1 $516 $382 #
plane-surface $-1 -62.5 0 0 1 0 0 0 0 -1 forward_v I I I I #
vertex $-1 $386 $517 #
ellipse-curve $-1 0 0 -12.5 0 0 1 5 0 0 1 I I #
point $-1 2 4.582575694955839829 1.59999775227744007e-14 #
coedge $-1 $518 $390 $519 $520 forward $22 $-1 #
coedge $-1 $521 $522 $390 $451 reversed $523 $-1 #
edge $-1 $455 -27.5 $524 -20 $450 $525 forward 7 unknown #
coedge $-1 $526 $391 $394 $458 reversed $454 $-1 #
coedge $-1 $391 $526 $521 $527 reversed $454 $-1 #
loop $-1 $-1 $452 $528 #
vertex $-1 $527 $529 #
straight-curve $-1 -27.5 -6.25 12.5 0 -1 0 I I #
coedge $-1 $394 $393 $530 $531 reversed $395 $-1 #
edge $-1 $532 -12.5 $396 12.5 $452 $533 forward 7 unknown #
face $-1 $534 $395 $2 $-1 $535 forward single #
point $-1 -27.5 -10 12.5 #
coedge $-1 $536 $398 $537 $538 forward $340 $-1 #
coedge $-1 $402 $485 $398 $463 reversed $379 $-1 #
edge $-1 $404 -1.570796326794896558 $539 3.141592653589793116 $398 $540 forward 7 unknown #
coedge $-1 $399 $541 $516 $542 reversed $340 $-1 #
coedge $-1 $411 $530 $399 $466 forward $277 $-1 #
edge $-1 $467 15 $543 40 $465 $544 forward 7 unknown #
vertex $-1 $466 $545 #
straight-curve $-1 -37.5 0 0 0 0 -1 I I #
straight-curve $-1 -40 -6.730224530203050339e-15 2 0 -1 -3.491481338843129805e-15 I I #
point $-1 -40 0 2 #
face $-1 $546 $547 $2 $-1 $548 forward single #
loop $-1 $-1 $549 $406 #
coedge $-1 $482 $408 $550 $551 forward $247 $-1 #
coedge $-1 $552 $549 $408 $475 forward $472 $-1 #
edge $-1 $553 55 $478 62.5 $408 $249 forward 7 unknown #
coedge $-1 $516 $409 $411 $480 reversed $444 $-1 #
coedge $-1 $409 $516 $552 $554 reversed $444 $-1 #
vertex $-1 $475 $555 #
straight-curve $-1 -62.5 25 0 0 0 -1 I I #
edge $-1 $543 0 $412 25 $476 $556 forward 7 unknown #
point $-1 -62.5 25 -12.5 #
coedge $-1 $414 $473 $557 $558 forward $247 $-1 #
coedge $-1 $559 $560 $414 $484 reversed $512 $-1 #
edge $-1 $561 -29.25 $486 -18.25 $414 $562 forward 7 unknown #
coedge $-1 $462 $415 $560 $563 reversed $379 $-1 #
vertex $-1 $484 $564 #
point $-1 -38 25 8.728703347107829602e-14 #
coedge $-1 $420 $565 $566 $567 forward $22 $-1 #
coedge $-1 $568 $569 $420 $490 reversed $570 $-1 #
edge $-1 $571 -0.785398163397448279 $494 0.785398163397448279 $420 $572 forward 7 unknown #
coedge $-1 $573 $421 $569 $574 reversed $493 $-1 #
coedge $-1 $421 $575 $423 $497 forward $493 $-1 #
loop $-1 $-1 $575 $576 #
vertex $-1 $422 $577 #
straight-curve $-1 22.5 0 12.5 1 0 -0 I I #
coedge $-1 $424 $423 $578 $579 forward $425 $-1 #
edge $-1 $580 -1.125 $426 9.375 $492 $581 forward 7 unknown #
face $-1 $582 $425 $2 $-1 $583 forward single #
point $-1 40 0 12.5 #
coedge $-1 $584 $428 $585 $586 forward $363 $-1 #
coedge $-1 $578 $587 $428 $502 reversed $588 $-1 #
edge $-1 $503 1.570796326794896558 $589 6.283185307179586232 $428 $590 forward 7 unknown #
vertex $-1 $429 $591 #
straight-curve $-1 40 25 3.125 0 0 -1 I I #
coedge $-1 $430 $592 $593 $594 forward $363 $-1 #
coedge $-1 $595 $433 $430 $507 forward $277 $-1 #
edge $-1 $435 12.5 $596 62.5 $430 $413 forward 7 unknown #
face $-1 $597 $598 $2 $-1 $599 forward single #
straight-curve $-1 12.5 6.25 -12.5 0 1 -0 I I #
point $-1 12.5 25 -12.5 #
face $-1 $498 $588 $2 $-1 $600 reversed single #
loop $-1 $-1 $560 $441 #
plane-surface $-1 -47.5 12.5 0 0 0 1 1 0 0 forward_v I I I I #
coedge $-1 $514 $514 $443 $515 forward $601 $-1 #
edge $-1 $602 -3.141592653589799777 $602 3.141592653589786455 $514 $603 forward 7 unknown #
coedge $-1 $477 $476 $464 $542 forward $444 $-1 #
point $-1 5 0 -12.5 #
coedge $-1 $604 $449 $605 $606 forward $22 $-1 #
coedge $-1 $607 $608 $449 $520 reversed $609 $-1 #
edge $-1 $524 -15.625 $610 -8.125 $449 $611 forward 7 unknown #
coedge $-1 $612 $450 $453 $527 forward $523 $-1 #
coedge $-1 $450 $613 $607 $614 forward $523 $-1 #
loop $-1 $-1 $522 $615 #
vertex $-1 $451 $616 #
straight-curve $-1 0 -25 12.5 1 0 0 I I #
coedge $-1 $453 $452 $617 $618 reversed $454 $-1 #
edge $-1 $455 -12.5 $619 12.5 $521 $620 forward 7 unknown #
face $-1 $621 $454 $2 $-1 $622 forward single #
point $-1 -27.5 -25 12.5 #
coedge $-1 $465 $617 $457 $531 forward $277 $-1 #
edge $-1 $532 -0.785398163397448279 $467 0.785398163397448279 $530 $623 forward 7 unknown #
vertex $-1 $618 $624 #
straight-curve $-1 -27.5 -10 0 0 0 1 I I #
face $-1 $625 $570 $2 $-1 $626 forward single #
cone-surface $-1 -37.5 -10 0 -0 -0 -1 7.071067811865470176 7.071067811865470176 0 1 I I 0 -1 9.999999999999992895 forward I I I I #
coedge $-1 $627 $461 $628 $629 forward $340 $-1 #
coedge $-1 $560 $559 $461 $538 reversed $512 $-1 #
edge $-1 $539 -4.25 $630 6.75 $461 $631 forward 7 unknown #
vertex $-1 $563 $632 #
ellipse-curve $-1 -40 0 0 -0 1 -0 2 0 0 1 I I #
coedge $-1 $464 $627 $633 $634 reversed $340 $-1 #
edge $-1 $543 -12.5 $635 12.5 $516 $636 forward 7 unknown #
vertex $-1 $466 $637 #
straight-curve $-1 -22.5 0 -12.5 -1 0 0 I I #
point $-1 -37.5 0 -12.5 #
face $-1 $576 $638 $2 $-1 $639 forward single #
loop $-1 $-1 $640 $471 #
plane-surface $-1 47.5 12.5 0 0 0 1 1 0 0 forward_v I I I I #
coedge $-1 $474 $633 $641 $642 forward $472 $-1 #
coedge $-1 $641 $643 $473 $551 reversed $644 $-1 #
edge $-1 $553 -9.375 $645 1.12499999999990985 $473 $646 forward 7 unknown #
coedge $-1 $633 $474 $477 $554 forward $472 $-1 #
vertex $-1 $551 $647 #
edge $-1 $478 -25 $635 0 $477 $648 forward 7 unknown #
point $-1 -62.5 25 12.5 #
straight-curve $-1 -62.5 0 -12.5 0 1 0 I I #
coedge $-1 $649 $650 $482 $558 reversed $651 $-1 #
edge $-1 $645 1.570796326794896558 $561 6.283185307179586232 $482 $652 forward 7 unknown #
coedge $-1 $537 $483 $650 $653 forward $512 $-1 #
coedge $-1 $483 $537 $485 $563 forward $512 $-1 #
vertex $-1 $558 $654 #
straight-curve $-1 -23.75 25 0 1 0 -0 I I #
edge $-1 $539 7.619026212181150377e-29 $486 25 $560 $655 forward 7 unknown #
point $-1 -42 25 0 #
coedge $-1 $488 $656 $657 $658 forward $22 $-1 #
coedge $-1 $659 $660 $488 $567 reversed $661 $-1 #
edge $-1 $662 -18.75 $571 -3.75 $488 $663 forward 7 unknown #
coedge $-1 $664 $489 $660 $665 forward $570 $-1 #
coedge $-1 $489 $664 $491 $574 forward $570 $-1 #
loop $-1 $-1 $569 $534 #
vertex $-1 $567 $666 #
ellipse-curve $-1 37.5 -10 12.5 -0 -0 -1 -7.071067811865470176 7.071067811865470176 0 1 I I #
coedge $-1 $667 $491 $668 $669 reversed $493 $-1 #
edge $-1 $670 -12.5 $494 12.5 $491 $671 forward 7 unknown #
coedge $-1 $492 $672 $673 $674 forward $493 $-1 #
face $-1 $459 $493 $2 $-1 $675 forward single #
point $-1 37.5 0 12.5 #
coedge $-1 $673 $501 $496 $579 reversed $588 $-1 #
edge $-1 $580 6.730224530203050339e-15 $503 25.00000000000000711 $496 $676 forward 7 unknown #
vertex $-1 $579 $677 #
straight-curve $-1 40 0 3.125 -0 0 1 I I #
face $-1 $678 $651 $2 $-1 $679 reversed single #
plane-surface $-1 40 12.5 6.25 1 0 0 0 0 -1 forward_v I I I I #
coedge $-1 $680 $500 $681 $682 forward $363 $-1 #
coedge $-1 $640 $683 $500 $586 reversed $547 $-1 #
edge $-1 $589 18.25 $684 29.25 $500 $685 forward 7 unknown #
coedge $-1 $501 $673 $640 $686 reversed $588 $-1 #
loop $-1 $-1 $587 $511 #
vertex $-1 $502 $687 #
ellipse-curve $-1 40 25 8.728703347107829602e-14 0 -1 0 2 0 0 1 I I #
point $-1 40 25 2.00000000000009015 #
coedge $-1 $505 $688 $689 $690 reversed $363 $-1 #
coedge $-1 $691 $692 $505 $594 reversed $693 $-1 #
edge $-1 $694 -12.5 $596 12.5 $593 $695 forward 7 unknown #
coedge $-1 $668 $506 $692 $696 forward $277 $-1 #
vertex $-1 $696 $697 #
face $-1 $698 $699 $2 $-1 $700 forward single #
loop $-1 $-1 $701 $508 #
cone-surface $-1 15 -17.5 3.75 -0 -0 -1 3.535533905932739973 3.535533905932739973 0 1 I I 0 -1 5.000000000000003553 forward I I I I #
cone-surface $-1 40 0 0 0 -1 -3.491481338843129805e-15 2 0 0 1 I I 0 1 2 forward I I I I #
loop $-1 $702 $514 $698 #
vertex $-1 $515 $703 #
ellipse-curve $-1 0 -12.5 -4.364351673553909752e-14 -0 1 -0 2 0 0 1 I I #
coedge $-1 $704 $518 $705 $706 forward $22 $-1 #
coedge $-1 $707 $708 $518 $606 reversed $709 $-1 #
edge $-1 $610 -0.785398163397448279 $710 0.785398163397448279 $518 $711 forward 7 unknown #
coedge $-1 $712 $519 $522 $614 reversed $609 $-1 #
coedge $-1 $519 $712 $707 $713 reversed $609 $-1 #
loop $-1 $-1 $608 $714 #
vertex $-1 $520 $715 #
straight-curve $-1 -20 -9.375 12.5 0 1 0 I I #
coedge $-1 $716 $521 $717 $718 reversed $523 $-1 #
coedge $-1 $522 $719 $720 $721 forward $523 $-1 #
edge $-1 $722 -6.875 $524 10.625 $522 $723 forward 7 unknown #
face $-1 $724 $523 $2 $-1 $725 reversed single #
point $-1 -20 -25 12.5 #
coedge $-1 $530 $717 $526 $618 forward $277 $-1 #
edge $-1 $619 -18.75 $532 -3.75 $617 $726 forward 7 unknown #
vertex $-1 $718 $727 #
straight-curve $-1 -27.5 -25 0 -0 0 -1 I I #
face $-1 $615 $728 $2 $-1 $13 forward single #
plane-surface $-1 -27.5 -12.5 0 -1 0 0 0 0 1 forward_v I I I I #
ellipse-curve $-1 -37.5 -10 -12.5 0 0 1 7.071067811865470176 7.071067811865470176 0 1 I I #
point $-1 -27.5 -10 -12.5 #
face $-1 $528 $661 $2 $-1 $729 forward single #
cone-surface $-1 37.5 -10 0 -0 0 -1 -7.071067811865470176 7.071067811865470176 0 1 I I 0 -1 9.999999999999992895 forward I I I I #
coedge $-1 $541 $536 $730 $731 forward $340 $-1 #
coedge $-1 $650 $649 $536 $629 reversed $651 $-1 #
edge $-1 $630 0 $732 4.712388980384689674 $536 $733 forward 7 unknown #
vertex $-1 $538 $734 #
straight-curve $-1 -46.25 0 0 -1 0 0 I I #
point $-1 -42 0 0 #
coedge $-1 $549 $552 $541 $634 forward $472 $-1 #
edge $-1 $635 -40 $735 -32.5 $633 $342 forward 7 unknown #
vertex $-1 $554 $736 #
straight-curve $-1 -62.5 0 0 -0 0 1 I I #
point $-1 -62.5 0 -12.5 #
loop $-1 $-1 $737 $546 #
plane-surface $-1 55 12.5 6.25 -1 0 0 0 0 1 forward_v I I I I #
coedge $-1 $738 $585 $587 $686 forward $547 $-1 #
coedge $-1 $730 $550 $549 $642 reversed $644 $-1 #
edge $-1 $735 -6.25 $553 18.75 $549 $739 forward 7 unknown #
coedge $-1 $550 $730 $649 $740 forward $644 $-1 #
loop $-1 $-1 $643 $678 #
vertex $-1 $551 $741 #
straight-curve $-1 -55 25 3.125 0 0 -1 I I #
point $-1 -55 25 12.5 #
straight-curve $-1 -62.5 0 12.5 0 -1 0 I I #
coedge $-1 $628 $557 $643 $740 reversed $651 $-1 #
coedge $-1 $557 $628 $559 $653 reversed $651 $-1 #
loop $-1 $-1 $650 $582 #
ellipse-curve $-1 -55 25 8.728703347107829602e-14 0 -1 0 2 0 0 1 I I #
edge $-1 $561 -25 $630 -7.619026212181150377e-29 $559 $742 forward 7 unknown #
point $-1 -53 25 8.728703347107829602e-14 #
straight-curve $-1 -42 -7.619026212181150377e-29 0 -0 1 3.491481338843129805e-15 I I #
coedge $-1 $565 $704 $743 $744 forward $22 $-1 #
coedge $-1 $719 $716 $565 $658 reversed $523 $-1 #
edge $-1 $745 20 $662 27.5 $657 $525 forward 7 unknown #
coedge $-1 $746 $566 $716 $747 reversed $661 $-1 #
coedge $-1 $566 $746 $568 $665 reversed $661 $-1 #
loop $-1 $-1 $660 $625 #
vertex $-1 $658 $748 #
straight-curve $-1 27.5 -6.25 12.5 0 1 0 I I #
coedge $-1 $569 $568 $749 $750 reversed $570 $-1 #
edge $-1 $571 -12.5 $751 12.5 $660 $752 forward 7 unknown #
point $-1 27.5 -10 12.5 #
coedge $-1 $753 $573 $754 $755 reversed $493 $-1 #
coedge $-1 $749 $595 $573 $669 forward $277 $-1 #
edge $-1 $756 -40 $670 -15 $668 $757 forward 7 unknown #
vertex $-1 $669 $758 #
straight-curve $-1 37.5 0 0 0 0 1 I I #
coedge $-1 $575 $759 $738 $760 forward $493 $-1 #
coedge $-1 $587 $578 $575 $674 reversed $588 $-1 #
edge $-1 $761 0 $580 4.712388980384689674 $575 $762 forward 7 unknown #
plane-surface $-1 45 0 0 0 -1 0 0 0 -1 forward_v I I I I #
straight-curve $-1 40 -6.730224530203050339e-15 2 -0 1 3.491481338843129805e-15 I I #
point $-1 40 0 2 #
face $-1 $763 $644 $2 $-1 $764 forward single #
cone-surface $-1 -55 0 0 0 -1 -3.491481338843129805e-15 2 0 0 1 I I 0 1 2 forward I I I I #
coedge $-1 $688 $584 $765 $766 forward $363 $-1 #
coedge $-1 $767 $765 $584 $682 reversed $768 $-1 #
edge $-1 $684 -3.141592653589749595 $769 0 $584 $770 forward 7 unknown #
coedge $-1 $585 $738 $767 $771 forward $547 $-1 #
vertex $-1 $586 $772 #
straight-curve $-1 23.75 25 0 1 0 -0 I I #
edge $-1 $589 -25 $761 -7.619026212181150377e-29 $640 $773 forward 7 unknown #
point $-1 42 25 8.728703347107829602e-14 #
coedge $-1 $592 $680 $774 $775 forward $363 $-1 #
coedge $-1 $776 $777 $592 $690 forward $728 $-1 #
edge $-1 $694 -62.5 $778 -55 $592 $249 forward 7 unknown #
coedge $-1 $754 $593 $777 $779 reversed $693 $-1 #
coedge $-1 $593 $754 $595 $696 reversed $693 $-1 #
loop $-1 $-1 $754 $724 #
vertex $-1 $779 $780 #
straight-curve $-1 62.5 25 0 0 0 -1 I I #
edge $-1 $596 -25 $756 0 $692 $781 forward 7 unknown #
point $-1 62.5 25 -12.5 #
face $-1 $782 $601 $2 $-1 $783 forward single #
loop $-1 $-1 $784 $597 #
plane-surface $-1 0 -18.75 -5 0 0 1 1 0 0 forward_v I I I I #
coedge $-1 $785 $786 $787 $788 forward $598 $-1 #
loop $-1 $-1 $789 $698 #
point $-1 -2 -12.5 -5.760944209091169405e-14 #
coedge $-1 $656 $604 $785 $790 forward $22 $-1 #
coedge $-1 $791 $789 $604 $706 reversed $702 $-1 #
edge $-1 $710 -15 $792 15 $604 $793 forward 7 unknown #
coedge $-1 $794 $605 $608 $713 forward $709 $-1 #
coedge $-1 $605 $794 $791 $795 forward $709 $-1 #
loop $-1 $-1 $708 $782 #
vertex $-1 $706 $796 #
ellipse-curve $-1 -15 -17.5 12.5 -0 -0 -1 -3.535533905932739973 3.535533905932739973 0 1 I I #
coedge $-1 $608 $607 $797 $798 forward $609 $-1 #
edge $-1 $610 -8.75 $799 8.75 $608 $800 forward 7 unknown #
face $-1 $801 $609 $2 $-1 $802 forward single #
point $-1 -20 -17.5 12.5 #
coedge $-1 $657 $612 $659 $747 forward $523 $-1 #
coedge $-1 $617 $803 $612 $718 forward $277 $-1 #
edge $-1 $804 -27.5 $619 27.5 $612 $805 forward 7 unknown #
coedge $-1 $613 $657 $806 $807 forward $523 $-1 #
coedge $-1 $808 $797 $613 $721 reversed $699 $-1 #
edge $-1 $809 -20 $722 20 $613 $810 forward 7 unknown #
vertex $-1 $721 $811 #
straight-curve $-1 -20 -25 1.875 -0 0 1 I I #
face $-1 $329 $693 $2 $-1 $812 reversed single #
plane-surface $-1 0 -25 0 0 1 -0 -0 0 1 forward_v I I I I #
straight-curve $-1 -27.5 -6.25 -12.5 0 1 -0 I I #
point $-1 -27.5 -25 -12.5 #
loop $-1 $-1 $776 $621 #
plane-surface $-1 27.5 -12.5 0 1 0 0 0 0 -1 forward_v I I I I #
coedge $-1 $643 $641 $627 $731 reversed $644 $-1 #
edge $-1 $732 -1.125 $735 9.375 $627 $813 forward 7 unknown #
vertex $-1 $740 $814 #
ellipse-curve $-1 -55 0 0 -0 1 -0 2 0 0 1 I I #
point $-1 -53 0 0 #
vertex $-1 $634 $815 #
point $-1 -62.5 0 12.5 #
coedge $-1 $816 $774 $817 $818 forward $638 $-1 #
coedge $-1 $683 $640 $672 $760 reversed $547 $-1 #
straight-curve $-1 -55 6.25 12.5 0 1 0 I I #
edge $-1 $732 6.730224530203050339e-15 $645 25.00000000000000711 $643 $819 forward 7 unknown #
point $-1 -55 25 2.00000000000009015 #
straight-curve $-1 -53 -7.619026212181150377e-29 0 0 -1 -3.491481338843129805e-15 I I #
coedge $-1 $787 $806 $656 $744 reversed $820 $-1 #
edge $-1 $821 8.125 $745 15.625 $656 $822 forward 7 unknown #
vertex $-1 $807 $823 #
coedge $-1 $660 $659 $803 $824 reversed $661 $-1 #
edge $-1 $804 -12.5 $662 12.5 $716 $825 forward 7 unknown #
point $-1 27.5 -25 12.5 #
coedge $-1 $803 $668 $664 $750 forward $277 $-1 #
edge $-1 $670 -0.785398163397448279 $751 0.785398163397448279 $749 $826 forward 7 unknown #
vertex $-1 $824 $827 #
straight-curve $-1 27.5 -10 0 0 0 -1 I I #
coedge $-1 $828 $667 $829 $830 reversed $493 $-1 #
coedge $-1 $692 $691 $667 $755 forward $693 $-1 #
edge $-1 $831 -12.5 $756 12.5 $754 $832 forward 7 unknown #
vertex $-1 $696 $833 #
straight-curve $-1 22.5 0 -12.5 -1 0 0 I I #
point $-1 37.5 0 -12.5 #
coedge $-1 $672 $828 $834 $835 forward $493 $-1 #
edge $-1 $836 -6.75 $761 4.25 $672 $837 forward 7 unknown #
vertex $-1 $760 $838 #
ellipse-curve $-1 40 0 0 -0 1 -0 2 0 0 1 I I #
face $-1 $431 $768 $2 $-1 $839 reversed single #
plane-surface $-1 -55 12.5 6.25 1 0 0 0 0 -1 forward_v I I I I #
coedge $-1 $681 $817 $680 $766 reversed $768 $-1 #
edge $-1 $769 0 $840 1.570796326794896558 $680 $770 forward 7 unknown #
coedge $-1 $834 $681 $683 $771 reversed $768 $-1 #
loop $-1 $-1 $767 $763 #
vertex $-1 $682 $841 #
ellipse-curve $-1 55 25 8.728703347107829602e-14 0 -1 0 2 0 0 1 I I #
edge $-1 $836 7.619026212181150377e-29 $684 25 $683 $842 forward 7 unknown #
point $-1 53 25 0 #
straight-curve $-1 42 -7.619026212181150377e-29 0 0 -1 -3.491481338843129805e-15 I I #
coedge $-1 $737 $843 $688 $775 reversed $638 $-1 #
edge $-1 $840 -1.12499999999990985 $778 9.375 $688 $844 forward 7 unknown #
coedge $-1 $829 $689 $843 $845 forward $728 $-1 #
coedge $-1 $689 $829 $691 $779 forward $728 $-1 #
vertex $-1 $690 $846 #
edge $-1 $831 0 $694 25 $691 $847 forward 7 unknown #
point $-1 62.5 25 12.5 #
straight-curve $-1 62.5 0 -12.5 0 -1 0 I I #
face $-1 $714 $709 $2 $-1 $848 forward single #
plane-surface $-1 0 -12.5 3.75 0 -1 0 0 0 -1 forward_v I I I I #
coedge $-1 $849 $808 $786 $850 forward $699 $-1 #
coedge $-1 $851 $701 $704 $790 reversed $598 $-1 #
coedge $-1 $701 $851 $784 $850 reversed $598 $-1 #
coedge $-1 $852 $743 $701 $788 reversed $820 $-1 #
edge $-1 $853 -8.75 $821 8.75 $787 $854 forward 7 unknown #
coedge $-1 $705 $855 $851 $856 reversed $702 $-1 #
edge $-1 $792 -0.785398163397448279 $821 0.785398163397448279 $704 $857 forward 7 unknown #
coedge $-1 $855 $705 $708 $795 reversed $702 $-1 #
vertex $-1 $706 $858 #
straight-curve $-1 0 -12.5 12.5 1 0 -0 I I #
coedge $-1 $708 $707 $859 $860 reversed $709 $-1 #
edge $-1 $861 -8.75 $710 8.75 $791 $862 forward 7 unknown #
point $-1 -15 -12.5 12.5 #
coedge $-1 $720 $859 $712 $798 reversed $699 $-1 #
edge $-1 $722 -6.25 $799 1.25 $712 $863 forward 7 unknown #
vertex $-1 $798 $864 #
straight-curve $-1 -20 -17.5 3.75 0 0 -1 I I #
face $-1 $367 $820 $2 $-1 $865 forward single #
plane-surface $-1 -20 -18.75 3.75 1 0 0 0 0 -1 forward_v I I I I #
coedge $-1 $717 $749 $746 $824 forward $277 $-1 #
vertex $-1 $747 $866 #
straight-curve $-1 0 -25 -12.5 -1 0 0 I I #
coedge $-1 $743 $852 $719 $807 reversed $820 $-1 #
edge $-1 $745 -10.625 $809 6.875 $719 $867 forward 7 unknown #
coedge $-1 $784 $720 $852 $868 reversed $699 $-1 #
vertex $-1 $721 $869 #
straight-curve $-1 0 -25 -5 -1 0 0 I I #
point $-1 -20 -25 -5 #
plane-surface $-1 62.5 0 0 -1 0 0 0 -0 1 forward_v I I I I #
straight-curve $-1 -55 0 3.125 -0 0 1 I I #
point $-1 -55 0 2 #
point $-1 -55 0 12.5 #
coedge $-1 $843 $737 $828 $870 reversed $638 $-1 #
coedge $-1 $765 $834 $737 $818 reversed $768 $-1 #
edge $-1 $840 -25.00000000000000711 $871 -6.730224530203050339e-15 $737 $872 forward 7 unknown #
straight-curve $-1 -55 -6.730224530203050339e-15 2 -0 1 3.491481338843129805e-15 I I #
loop $-1 $-1 $787 $801 #
vertex $-1 $744 $873 #
straight-curve $-1 20 -9.375 12.5 0 -1 0 I I #
point $-1 20 -25 12.5 #
edge $-1 $751 3.75 $804 18.75 $803 $874 forward 7 unknown #
straight-curve $-1 27.5 -25 0 -0 0 1 I I #
ellipse-curve $-1 37.5 -10 -12.5 0 0 1 -7.071067811865470176 7.071067811865470176 0 1 I I #
point $-1 27.5 -10 -12.5 #
coedge $-1 $759 $753 $816 $870 forward $493 $-1 #
coedge $-1 $777 $776 $753 $830 forward $728 $-1 #
edge $-1 $875 32.5 $831 40 $829 $495 forward 7 unknown #
vertex $-1 $755 $876 #
straight-curve $-1 62.5 0 0 -0 -0 -1 I I #
point $-1 62.5 0 -12.5 #
coedge $-1 $817 $767 $759 $835 reversed $768 $-1 #
edge $-1 $871 -1.570796326794896558 $836 3.141592653589793116 $759 $877 forward 7 unknown #
vertex $-1 $835 $878 #
straight-curve $-1 46.25 0 0 -1 0 0 I I #
point $-1 42 0 0 #
cone-surface $-1 55 0 0 0 -1 -3.491481338843129805e-15 2 0 0 1 I I 0 1 2 forward I I I I #
vertex $-1 $818 $879 #
point $-1 57 25 8.728703347107829602e-14 #
straight-curve $-1 53 -7.619026212181150377e-29 0 -0 1 3.491481338843129805e-15 I I #
coedge $-1 $774 $816 $776 $845 reversed $638 $-1 #
straight-curve $-1 55 25 3.125 0 0 1 I I #
edge $-1 $778 -18.75 $875 6.25 $776 $880 forward 7 unknown #
point $-1 55 25 12.5 #
straight-curve $-1 62.5 0 12.5 0 1 0 I I #
cone-surface $-1 -15 -17.5 3.75 -0 0 -1 -3.535533905932739973 3.535533905932739973 0 1 I I 0 -1 5.000000000000003553 forward I I I I #
coedge $-1 $859 $784 $855 $881 reversed $699 $-1 #
edge $-1 $853 -0.785398163397448279 $882 0.785398163397448279 $784 $883 forward 7 unknown #
coedge $-1 $786 $785 $789 $856 forward $598 $-1 #
coedge $-1 $806 $787 $808 $868 forward $820 $-1 #
vertex $-1 $850 $884 #
straight-curve $-1 20 -17.5 3.75 0 0 1 I I #
coedge $-1 $789 $791 $849 $881 forward $702 $-1 #
edge $-1 $792 -8.75 $882 8.75 $789 $885 forward 7 unknown #
ellipse-curve $-1 15 -17.5 12.5 -0 -0 -1 3.535533905932739973 3.535533905932739973 0 1 I I #
point $-1 15 -12.5 12.5 #
coedge $-1 $797 $849 $794 $860 forward $699 $-1 #
edge $-1 $861 -0.785398163397448279 $799 0.785398163397448279 $859 $886 forward 7 unknown #
vertex $-1 $860 $887 #
straight-curve $-1 -15 -12.5 3.75 0 0 1 I I #
straight-curve $-1 -20 -18.75 -5 0 1 0 I I #
point $-1 -20 -17.5 -5 #
plane-surface $-1 20 -18.75 3.75 -1 0 0 0 0 1 forward_v I I I I #
point $-1 27.5 -25 -12.5 #
straight-curve $-1 20 -25 1.875 -0 0 -1 I I #
edge $-1 $853 -1.25 $809 6.25 $852 $888 forward 7 unknown #
point $-1 20 -25 -5 #
edge $-1 $875 -9.375 $871 1.125 $828 $889 forward 7 unknown #
vertex $-1 $870 $890 #
straight-curve $-1 55 -6.730224530203050339e-15 2 0 -1 -3.491481338843129805e-15 I I #
point $-1 20 -17.5 12.5 #
straight-curve $-1 27.5 -6.25 -12.5 0 -1 0 I I #
vertex $-1 $845 $891 #
point $-1 62.5 0 12.5 #
ellipse-curve $-1 55 0 0 -0 1 -0 2 0 0 1 I I #
point $-1 53 0 0 #
point $-1 55 25 2.00000000000009015 #
straight-curve $-1 55 6.25 12.5 0 -1 0 I I #
edge $-1 $861 -15 $882 15 $855 $892 forward 7 unknown #
vertex $-1 $881 $893 #
ellipse-curve $-1 15 -17.5 -5 0 0 1 3.535533905932739973 3.535533905932739973 0 1 I I #
point $-1 20 -17.5 -5 #
straight-curve $-1 15 -12.5 3.75 0 0 -1 I I #
ellipse-curve $-1 -15 -17.5 -5 0 0 1 -3.535533905932739973 3.535533905932739973 0 1 I I #
point $-1 -15 -12.5 -5 #
straight-curve $-1 20 -18.75 -5 0 -1 0 I I #
straight-curve $-1 55 0 3.125 -0 -0 -1 I I #
point $-1 55 0 2 #
point $-1 55 0 12.5 #
straight-curve $-1 0 -12.5 -5 1 0 0 I I #
point $-1 15 -12.5 -5 #
End-of-ACIS-data 