105 894 1 0                             
body $-1 $1 $-1 $-1 #
lump $-1 $-1 $2 $0 #
shell $-1 $-1 $-1 $3 $1 #
face $-1 $4 $5 $2 $-1 $6 reversed single #
face $-1 $7 $8 $2 $-1 $9 reversed single #
loop $-1 $-1 $10 $3 #
cone-surface $-1 -17.5 0 10 0 0 1 2.5 0 0 1 0 1 0 #
face $-1 $11 $12 $2 $-1 $13 forward single #
loop $-1 $-1 $14 $4 #
cone-surface $-1 17.5 0 10 0 0 1 2.5 0 0 1 0 1 0 #
coedge $-1 $15 $16 $17 $18 1 $5 $-1 #
face $-1 $19 $20 $2 $-1 $21 forward single #
loop $-1 $22 $23 $7 #
plane-surface $-1 0 0 12.5 0 0 1 1 0 0 0 #
coedge $-1 $24 $25 $26 $27 1 $8 $-1 #
coedge $-1 $28 $10 $29 $30 0 $5 $-1 #
coedge $-1 $10 $28 $23 $31 1 $5 $-1 #
coedge $-1 $32 $33 $10 $18 0 $34 $-1 #
edge $-1 $35 $36 $17 $37 1 #
face $-1 $38 $34 $2 $-1 $39 forward single #
loop $-1 $-1 $40 $11 #
plane-surface $-1 0 0 7.5 0 0 1 1 0 0 0 #
loop $-1 $-1 $41 $7 #
coedge $-1 $42 $43 $16 $31 0 $12 $-1 #
coedge $-1 $44 $14 $45 $46 0 $8 $-1 #
coedge $-1 $14 $47 $48 $49 1 $8 $-1 #
coedge $-1 $50 $51 $14 $27 0 $52 $-1 #
edge $-1 $53 $54 $26 $55 1 #
coedge $-1 $16 $15 $56 $57 0 $5 $-1 #
coedge $-1 $58 $59 $15 $30 1 $60 $-1 #
edge $-1 $35 $61 $29 $62 0 #
edge $-1 $36 $63 $23 $64 0 #
coedge $-1 $65 $17 $43 $66 1 $34 $-1 #
coedge $-1 $17 $65 $58 $67 0 $34 $-1 #
loop $-1 $-1 $65 $19 #
vertex $-1 $67 $68 #
vertex $-1 $66 $69 #
straight-curve $-1 -17.5 -2.5 10 0 0 -1 #
face $-1 $70 $71 $2 $-1 $39 forward single #
plane-surface $-1 0 -2.5 10 0 1 0 0 0 1 0 #
coedge $-1 $72 $45 $51 $73 1 $20 $-1 #
coedge $-1 $74 $75 $76 $77 0 $22 $-1 #
coedge $-1 $78 $23 $79 $80 0 $12 $-1 #
coedge $-1 $23 $81 $32 $66 0 $12 $-1 #
coedge $-1 $82 $24 $83 $84 0 $8 $-1 #
coedge $-1 $40 $83 $24 $46 1 $20 $-1 #
edge $-1 $53 $85 $45 $86 0 #
coedge $-1 $25 $82 $87 $88 1 $8 $-1 #
coedge $-1 $87 $89 $25 $49 0 $12 $-1 #
edge $-1 $54 $90 $48 $91 0 #
coedge $-1 $92 $26 $89 $93 1 $52 $-1 #
coedge $-1 $26 $92 $40 $73 0 $52 $-1 #
loop $-1 $-1 $92 $94 #
vertex $-1 $73 $95 #
vertex $-1 $93 $96 #
straight-curve $-1 17.5 2.5 10 0 0 -1 #
coedge $-1 $97 $79 $28 $57 1 $98 $-1 #
edge $-1 $61 $63 $56 $99 1 #
coedge $-1 $100 $29 $33 $67 1 $60 $-1 #
coedge $-1 $29 $100 $97 $101 1 $60 $-1 #
loop $-1 $-1 $58 $102 #
vertex $-1 $101 $103 #
ellipse-curve $-1 -17.5 0 7.5 0 0 -1 2.5 0 0 1 #
vertex $-1 $31 $104 #
ellipse-curve $-1 -17.5 0 12.5 -0 -0 -1 2.5 0 0 1 #
coedge $-1 $33 $32 $105 $106 1 $34 $-1 #
edge $-1 $107 $36 $43 $108 0 #
edge $-1 $109 $35 $33 $110 0 #
point $-1 -17.5 -2.5 7.5 #
point $-1 -17.5 -2.5 12.5 #
face $-1 $102 $98 $2 $-1 $111 forward single #
loop $-1 $-1 $112 $38 #
coedge $-1 $113 $40 $114 $115 1 $20 $-1 #
edge $-1 $116 $53 $51 $117 0 #
coedge $-1 $118 $41 $119 $120 0 $22 $-1 #
coedge $-1 $41 $121 $122 $123 0 $22 $-1 #
coedge $-1 $124 $125 $41 $77 1 $126 $-1 #
edge $-1 $127 $128 $41 $129 0 #
coedge $-1 $89 $42 $130 $131 0 $12 $-1 #
coedge $-1 $56 $132 $42 $80 1 $98 $-1 #
edge $-1 $63 $133 $42 $134 0 #
coedge $-1 $43 $135 $136 $137 0 $12 $-1 #
coedge $-1 $47 $44 $138 $139 0 $8 $-1 #
coedge $-1 $45 $113 $44 $84 1 $20 $-1 #
edge $-1 $85 $140 $83 $86 0 #
vertex $-1 $46 $141 #
ellipse-curve $-1 17.5 0 7.5 0 0 -1 2.5 0 0 1 #
coedge $-1 $135 $48 $47 $88 0 $12 $-1 #
edge $-1 $90 $142 $87 $91 0 #
coedge $-1 $48 $78 $50 $93 0 $12 $-1 #
vertex $-1 $49 $143 #
ellipse-curve $-1 17.5 0 12.5 -0 -0 -1 2.5 0 0 1 #
coedge $-1 $51 $50 $144 $145 1 $52 $-1 #
edge $-1 $146 $54 $89 $134 0 #
face $-1 $147 $52 $2 $-1 $111 forward single #
point $-1 17.5 2.5 7.5 #
point $-1 17.5 2.5 12.5 #
coedge $-1 $132 $56 $59 $101 0 $98 $-1 #
loop $-1 $-1 $132 $70 #
straight-curve $-1 -17.5 2.5 10 0 0 -1 #
coedge $-1 $59 $58 $148 $149 1 $60 $-1 #
edge $-1 $61 $150 $97 $117 0 #
face $-1 $94 $60 $2 $-1 $21 forward single #
point $-1 -17.5 2.5 7.5 #
point $-1 -17.5 2.5 12.5 #
coedge $-1 $136 $148 $65 $106 0 $151 $-1 #
edge $-1 $109 $107 $105 $152 0 #
vertex $-1 $137 $153 #
straight-curve $-1 0 -2.5 12.5 -1 0 0 #
vertex $-1 $149 $154 #
straight-curve $-1 0 -2.5 7.5 -1 0 0 #
plane-surface $-1 0 2.5 10 0 -1 0 0 0 -1 0 #
coedge $-1 $155 $156 $157 $158 1 $71 $-1 #
coedge $-1 $83 $72 $156 $159 1 $20 $-1 #
coedge $-1 $144 $157 $72 $115 0 $151 $-1 #
edge $-1 $160 $116 $114 $161 0 #
vertex $-1 $115 $162 #
straight-curve $-1 0 2.5 7.5 1 0 0 #
coedge $-1 $163 $74 $164 $165 0 $22 $-1 #
coedge $-1 $166 $167 $74 $120 1 $168 $-1 #
edge $-1 $128 $169 $74 $170 0 #
coedge $-1 $75 $171 $172 $173 0 $22 $-1 #
coedge $-1 $174 $175 $75 $123 1 $176 $-1 #
edge $-1 $177 $127 $75 $178 0 #
coedge $-1 $179 $76 $175 $180 1 $126 $-1 #
coedge $-1 $76 $179 $166 $181 1 $126 $-1 #
loop $-1 $-1 $124 $182 #
vertex $-1 $123 $183 #
vertex $-1 $120 $184 #
straight-curve $-1 -7.5 6.25 12.5 0 -1 0 #
coedge $-1 $185 $144 $78 $131 1 $151 $-1 #
edge $-1 $133 $146 $78 $186 0 #
coedge $-1 $79 $97 $185 $187 1 $98 $-1 #
vertex $-1 $187 $188 #
straight-curve $-1 0 2.5 12.5 1 0 -0 #
coedge $-1 $81 $87 $155 $189 0 $12 $-1 #
coedge $-1 $157 $105 $81 $137 1 $151 $-1 #
edge $-1 $190 $107 $81 $186 0 #
coedge $-1 $156 $155 $82 $139 1 $71 $-1 #
edge $-1 $140 $142 $138 $191 1 #
vertex $-1 $139 $192 #
point $-1 20 0 7.5 #
vertex $-1 $189 $193 #
point $-1 20 0 12.5 #
coedge $-1 $130 $114 $92 $145 0 $151 $-1 #
edge $-1 $116 $146 $144 $194 0 #
vertex $-1 $131 $195 #
face $-1 $196 $151 $2 $-1 $197 reversed single #
coedge $-1 $105 $185 $100 $149 0 $151 $-1 #
edge $-1 $150 $109 $148 $198 0 #
vertex $-1 $149 $199 #
loop $-1 $200 $144 $147 #
straight-curve $-1 -4.33012701892219 -2.5 0 -0 -0 1 #
point $-1 -4.33012701892219 -2.5 12.5 #
point $-1 -4.33012701892219 -2.5 7.5 #
coedge $-1 $138 $112 $135 $189 1 $71 $-1 #
coedge $-1 $112 $138 $113 $159 0 $71 $-1 #
coedge $-1 $114 $136 $112 $158 0 $151 $-1 #
edge $-1 $190 $160 $157 $201 0 #
edge $-1 $140 $160 $156 $110 0 #
vertex $-1 $115 $202 #
ellipse-curve $-1 0 0 7.5 0 0 1 5 0 0 1 #
point $-1 4.33012701892219 2.5 7.5 #
coedge $-1 $203 $118 $204 $205 0 $22 $-1 #
coedge $-1 $206 $207 $118 $165 1 $208 $-1 #
edge $-1 $169 $209 $118 $210 0 #
coedge $-1 $211 $119 $125 $181 0 $168 $-1 #
coedge $-1 $119 $211 $206 $212 1 $168 $-1 #
loop $-1 $-1 $167 $213 #
vertex $-1 $120 $214 #
straight-curve $-1 -5 10 12.5 -1 0 0 #
coedge $-1 $121 $215 $216 $217 0 $22 $-1 #
coedge $-1 $218 $219 $121 $173 1 $220 $-1 #
edge $-1 $221 $177 $121 $222 0 #
coedge $-1 $223 $122 $219 $224 0 $176 $-1 #
coedge $-1 $122 $223 $124 $180 0 $176 $-1 #
loop $-1 $225 $175 $226 #
vertex $-1 $224 $227 #
straight-curve $-1 0 12.5 12.5 -1 0 0 #
coedge $-1 $125 $124 $228 $229 1 $126 $-1 #
edge $-1 $230 $127 $175 $231 0 #
edge $-1 $128 $232 $125 $233 0 #
face $-1 $234 $126 $2 $-1 $235 forward single #
point $-1 -7.5 12.5 12.5 #
point $-1 -7.5 10 12.5 #
coedge $-1 $148 $130 $132 $187 0 $151 $-1 #
ellipse-curve $-1 0 0 12.5 -0 -0 -1 5 0 0 1 #
edge $-1 $133 $150 $185 $236 0 #
point $-1 -4.33012701892219 2.5 12.5 #
edge $-1 $142 $190 $135 $108 0 #
vertex $-1 $158 $237 #
straight-curve $-1 17.5 -2.5 10 0 0 -1 #
point $-1 17.5 -2.5 7.5 #
point $-1 17.5 -2.5 12.5 #
straight-curve $-1 4.33012701892219 2.5 0 0 0 1 #
point $-1 4.33012701892219 2.5 12.5 #
face $-1 $213 $238 $2 $-1 $239 reversed single #
cone-surface $-1 0 0 0 0 0 1 5 0 0 1 0 1 0 #
ellipse-curve $-1 0 0 7.5 0 0 1 5 0 0 1 #
point $-1 -4.33012701892219 2.5 7.5 #
loop $-1 $240 $241 $147 #
straight-curve $-1 4.33012701892219 -2.5 0 -0 0 -1 #
point $-1 4.33012701892219 -2.5 7.5 #
coedge $-1 $242 $163 $243 $244 0 $22 $-1 #
coedge $-1 $245 $246 $163 $205 1 $247 $-1 #
edge $-1 $209 $248 $204 $249 0 #
coedge $-1 $250 $164 $167 $212 0 $208 $-1 #
coedge $-1 $164 $250 $245 $251 1 $208 $-1 #
loop $-1 $-1 $250 $234 #
vertex $-1 $251 $252 #
straight-curve $-1 -12.5 6.25 12.5 0 1 0 #
coedge $-1 $167 $166 $253 $254 1 $168 $-1 #
edge $-1 $169 $255 $206 $256 0 #
face $-1 $182 $168 $2 $-1 $257 forward single #
point $-1 -12.5 10 12.5 #
coedge $-1 $171 $258 $259 $260 0 $22 $-1 #
coedge $-1 $261 $262 $171 $217 1 $263 $-1 #
edge $-1 $264 $221 $171 $265 0 #
coedge $-1 $266 $172 $262 $267 0 $220 $-1 #
coedge $-1 $172 $266 $174 $224 1 $220 $-1 #
loop $-1 $-1 $219 $268 #
vertex $-1 $217 $269 #
straight-curve $-1 7.5 6.25 12.5 0 1 0 #
coedge $-1 $175 $174 $270 $271 1 $176 $-1 #
edge $-1 $177 $272 $174 $273 0 #
loop $-1 $-1 $274 $226 #
face $-1 $275 $176 $2 $-1 $276 forward single #
point $-1 7.5 12.5 12.5 #
coedge $-1 $270 $253 $179 $229 0 $277 $-1 #
edge $-1 $232 $230 $228 $278 0 #
vertex $-1 $229 $279 #
straight-curve $-1 -7.5 12.5 0 0 -0 1 #
vertex $-1 $254 $280 #
straight-curve $-1 -7.5 10 0 0 0 -1 #
face $-1 $268 $208 $2 $-1 $281 forward single #
plane-surface $-1 -7.5 12.5 0 -1 0 0 0 0 1 0 #
straight-curve $-1 -4.33012701892219 2.5 0 0 -0 -1 #
point $-1 4.33012701892219 -2.5 12.5 #
loop $-1 $282 $283 $196 #
cone-surface $-1 0 0 0 0 -1 -3.49148133884313e-15 2 0 0 1 0 1 0 #
loop $-1 $284 $285 $147 #
coedge $-1 $241 $241 $286 $287 1 $200 $-1 #
coedge $-1 $288 $203 $289 $290 0 $22 $-1 #
coedge $-1 $291 $292 $203 $244 1 $293 $-1 #
edge $-1 $248 $294 $203 $295 0 #
coedge $-1 $296 $204 $207 $251 0 $247 $-1 #
coedge $-1 $204 $297 $291 $298 0 $247 $-1 #
loop $-1 $-1 $297 $299 #
vertex $-1 $205 $300 #
straight-curve $-1 0 25 12.5 -1 0 0 #
coedge $-1 $207 $206 $301 $302 1 $208 $-1 #
edge $-1 $209 $303 $245 $304 0 #
point $-1 -12.5 25 12.5 #
coedge $-1 $228 $301 $211 $254 0 $277 $-1 #
edge $-1 $255 $232 $253 $305 0 #
vertex $-1 $254 $306 #
straight-curve $-1 -12.5 10 0 0 0 -1 #
plane-surface $-1 -10 10 0 0 1 0 0 0 1 0 #
coedge $-1 $215 $307 $308 $309 0 $22 $-1 #
coedge $-1 $310 $311 $215 $260 1 $312 $-1 #
edge $-1 $313 $264 $215 $314 0 #
coedge $-1 $315 $216 $311 $316 0 $263 $-1 #
coedge $-1 $216 $315 $218 $267 1 $263 $-1 #
loop $-1 $-1 $262 $317 #
vertex $-1 $217 $318 #
straight-curve $-1 5 10 12.5 -1 0 0 #
coedge $-1 $219 $218 $319 $320 1 $220 $-1 #
edge $-1 $221 $321 $218 $322 0 #
face $-1 $317 $220 $2 $-1 $323 forward single #
point $-1 7.5 10 12.5 #
coedge $-1 $319 $228 $223 $271 0 $277 $-1 #
edge $-1 $230 $272 $270 $324 0 #
vertex $-1 $271 $325 #
straight-curve $-1 7.5 12.5 0 0 0 -1 #
coedge $-1 $274 $274 $283 $326 0 $225 $-1 #
face $-1 $327 $328 $2 $-1 $239 reversed single #
plane-surface $-1 0 12.5 0 0 1 0 0 0 1 0 #
loop $-1 $-1 $228 $329 #
straight-curve $-1 -7.5 6.25 -12.5 0 1 -0 #
point $-1 -7.5 12.5 -12.5 #
point $-1 -7.5 10 -12.5 #
plane-surface $-1 -12.5 18.75 0 1 0 0 0 0 -1 0 #
loop $-1 $-1 $330 $196 #
coedge $-1 $283 $283 $274 $326 1 $238 $-1 #
loop $-1 $-1 $331 $147 #
coedge $-1 $285 $285 $330 $332 1 $240 $-1 #
coedge $-1 $286 $286 $241 $287 0 $328 $-1 #
edge $-1 $333 $333 $286 $334 0 #
coedge $-1 $335 $242 $336 $337 0 $22 $-1 #
coedge $-1 $338 $339 $242 $290 1 $340 $-1 #
edge $-1 $294 $341 $242 $342 0 #
coedge $-1 $343 $243 $246 $298 1 $293 $-1 #
coedge $-1 $243 $343 $338 $344 1 $293 $-1 #
loop $-1 $-1 $343 $345 #
vertex $-1 $244 $346 #
straight-curve $-1 -40 6.25 12.5 0 -1 0 #
coedge $-1 $347 $245 $348 $349 1 $247 $-1 #
coedge $-1 $246 $350 $351 $352 0 $247 $-1 #
edge $-1 $353 $248 $246 $354 0 #
face $-1 $345 $247 $2 $-1 $355 reversed single #
point $-1 -40 25 12.5 #
coedge $-1 $253 $348 $250 $302 0 $277 $-1 #
edge $-1 $303 $255 $301 $356 0 #
vertex $-1 $349 $357 #
straight-curve $-1 -12.5 25 0 0 0 -1 #
straight-curve $-1 -5 10 -12.5 1 0 0 #
point $-1 -12.5 10 -12.5 #
coedge $-1 $258 $358 $359 $360 0 $22 $-1 #
coedge $-1 $361 $362 $258 $309 1 $363 $-1 #
edge $-1 $364 $313 $308 $249 0 #
coedge $-1 $365 $259 $362 $366 1 $312 $-1 #
coedge $-1 $259 $365 $261 $316 1 $312 $-1 #
loop $-1 $-1 $259 $367 #
vertex $-1 $309 $368 #
straight-curve $-1 12.5 6.25 12.5 0 -1 0 #
coedge $-1 $262 $261 $369 $370 1 $263 $-1 #
edge $-1 $264 $371 $311 $372 0 #
face $-1 $226 $263 $2 $-1 $373 forward single #
point $-1 12.5 10 12.5 #
coedge $-1 $369 $270 $266 $320 0 $277 $-1 #
edge $-1 $272 $321 $319 $374 0 #
vertex $-1 $370 $375 #
straight-curve $-1 7.5 10 0 0 0 -1 #
plane-surface $-1 7.5 12.5 0 1 0 0 0 0 -1 0 #
straight-curve $-1 0 12.5 -12.5 1 0 0 #
point $-1 7.5 12.5 -12.5 #
edge $-1 $376 $376 $274 $377 0 #
face $-1 $378 $379 $2 $-1 $380 reversed single #
loop $-1 $381 $286 $275 #
face $-1 $382 $383 $2 $-1 $384 reversed single #
coedge $-1 $330 $330 $285 $332 0 $282 $-1 #
coedge $-1 $331 $331 $385 $386 1 $284 $-1 #
edge $-1 $387 $387 $330 $388 0 #
vertex $-1 $287 $389 #
intcurve-curve $-1 0 { surfintcur nubs 3 periodic 33 
	0 3 0.381557665252646 2 0.763115330505291 2 1.14467299575794 2 1.52623066101058 2 
	1.90740233130987 2 2.28857400160916 2 2.66974567190844 2 3.05091734220773 2 3.43208901250701 2 
	3.8132606828063 2 4.19443235310558 2 4.57560402340487 2 4.95716168865752 2 5.33871935391018 2 
	5.72027701916283 2 6.10183468441548 2 6.48339234966813 2 6.86495001492078 2 7.24650768017344 2 
	7.62806534542609 2 8.00923701572537 2 8.39040868602466 2 8.77158035632394 2 9.15275202662322 2 
	9.53392369692251 2 9.91509536722179 2 10.2962670375211 2 10.6774387078204 2 11.058996373073 2 
	11.4405540383257 2 11.8221117035783 2 12.203669368831 3 
	2 -4.58257569495584 -1.59999775227744e-14 
	2 -4.58257569495584 -0.127185888417565 
	1.98767353064423 -4.58802055518972 -0.258185221141073 
	1.9363401744334 -4.60992032537496 -0.517776403143929 
	1.89735012832555 -4.62634858750892 -0.646373829719605 
	1.79489398353534 -4.66705409495585 -0.892240292935081 
	1.73134666295566 -4.69131665108603 -1.00973217303435 
	1.58503420032759 -4.74275023280073 -1.22669756421402 
	1.50225400701941 -4.76986981255392 -1.32617311772679 
	1.32626218202932 -4.82176697044154 -1.50216494271689 
	1.22682943203053 -4.84843070438787 -1.58493376035709 
	1.00984207348239 -4.8982251619299 -1.73128405161287 
	0.892285249937377 -4.92131309632891 -1.7948767964603 
	0.646287288441866 -4.95961775780347 -1.89738464392357 
	0.51762514210353 -4.97483828142655 -1.9363812278505 
	0.25801211970898 -4.99503568157258 -1.98769660497701 
	0.127057223433109 -5 -2.00000000000002 
	-0.127057223433081 -5 -2.00000000000002 
	-0.258012119708953 -4.99503568157259 -1.98769660497702 
	-0.517625142103503 -4.97483828142655 -1.93638122785051 
	-0.64628728844184 -4.95961775780347 -1.89738464392358 
	-0.892285249937351 -4.92131309632892 -1.79487679646031 
	-1.00984207348237 -4.8982251619299 -1.73128405161288 
	-1.22682943203051 -4.84843070438788 -1.5849337603571 
	-1.3262621820293 -4.82176697044154 -1.50216494271691 
	-1.5022540070194 -4.76986981255392 -1.32617311772681 
	-1.58503420032758 -4.74275023280073 -1.22669756421404 
	-1.73134666295565 -4.69131665108603 -1.00973217303436 
	-1.79489398353533 -4.66705409495586 -0.892240292935096 
	-1.89735012832555 -4.62634858750892 -0.646373829719616 
	-1.9363401744334 -4.60992032537496 -0.517776403143938 
	-1.98767353064423 -4.58802055518972 -0.258185221141078 
	-2 -4.58257569495584 -0.127185888417567 
	-2 -4.58257569495584 0.127185888417534 
	-1.98767353064423 -4.58802055518972 0.258185221141045 
	-1.9363401744334 -4.60992032537496 0.517776403143904 
	-1.89735012832555 -4.62634858750892 0.646373829719582 
	-1.79489398353533 -4.66705409495586 0.89224029293506 
	-1.73134666295565 -4.69131665108603 1.00973217303433 
	-1.58503420032758 -4.74275023280073 1.226697564214 
	-1.5022540070194 -4.76986981255392 1.32617311772677 
	-1.32626218202931 -4.82176697044154 1.50216494271687 
	-1.22682943203052 -4.84843070438788 1.58493376035706 
	-1.00984207348237 -4.8982251619299 1.73128405161284 
	-0.892285249937359 -4.92131309632892 1.79487679646027 
	-0.646287288441849 -4.95961775780347 1.89738464392354 
	-0.517625142103513 -4.97483828142655 1.93638122785047 
	-0.258012119708964 -4.99503568157258 1.98769660497698 
	-0.127057223433094 -5 1.99999999999998 
	0.127057223433094 -5 1.99999999999998 
	0.258012119708965 -4.99503568157258 1.98769660497698 
	0.517625142103513 -4.97483828142655 1.93638122785047 
	0.646287288441849 -4.95961775780347 1.89738464392354 
	0.89228524993736 -4.92131309632892 1.79487679646027 
	1.00984207348237 -4.8982251619299 1.73128405161284 
	1.22682943203052 -4.84843070438788 1.58493376035706 
	1.32626218202931 -4.82176697044154 1.50216494271687 
	1.5022540070194 -4.76986981255392 1.32617311772677 
	1.58503420032758 -4.74275023280073 1.226697564214 
	1.73134666295565 -4.69131665108603 1.00973217303433 
	1.79489398353533 -4.66705409495586 0.892240292935059 
	1.89735012832555 -4.62634858750892 0.646373829719582 
	1.9363401744334 -4.60992032537496 0.517776403143905 
	1.98767353064423 -4.58802055518972 0.258185221141046 
	2 -4.58257569495584 0.127185888417535 
	2 -4.58257569495584 -1.59999775227744e-14 
	0.001 
	cone 0 0 0 0 -1 -3.49148133884313e-15 2 0 0 1 -0 -1 0 
	cone 0 0 0 0 0 1 5 0 0 1 -0 -1 0 
	nullbs 
	nullbs 
	} #
coedge $-1 $390 $288 $391 $392 0 $22 $-1 #
coedge $-1 $393 $394 $288 $337 1 $395 $-1 #
edge $-1 $341 $396 $288 $397 0 #
coedge $-1 $398 $289 $292 $344 0 $340 $-1 #
coedge $-1 $289 $399 $393 $400 1 $340 $-1 #
loop $-1 $-1 $398 $378 #
vertex $-1 $290 $401 #
straight-curve $-1 -22.5 0 12.5 1 0 -0 #
coedge $-1 $292 $291 $402 $403 0 $293 $-1 #
edge $-1 $294 $404 $338 $405 0 #
face $-1 $406 $293 $2 $-1 $407 forward single #
point $-1 -40 0 12.5 #
coedge $-1 $408 $296 $409 $410 1 $247 $-1 #
coedge $-1 $301 $411 $296 $349 0 $277 $-1 #
edge $-1 $412 $303 $296 $413 0 #
coedge $-1 $297 $414 $415 $416 0 $247 $-1 #
coedge $-1 $415 $402 $297 $352 1 $379 $-1 #
edge $-1 $417 $353 $297 $418 0 #
vertex $-1 $352 $419 #
straight-curve $-1 -40 25 3.125 0 0 1 #
plane-surface $-1 0 25 0 0 -1 0 0 0 -1 0 #
straight-curve $-1 -12.5 6.25 -12.5 0 -1 0 #
point $-1 -12.5 25 -12.5 #
coedge $-1 $307 $420 $421 $422 0 $22 $-1 #
coedge $-1 $423 $424 $307 $360 1 $425 $-1 #
edge $-1 $426 $364 $307 $427 0 #
coedge $-1 $428 $308 $424 $429 0 $363 $-1 #
coedge $-1 $308 $430 $310 $366 0 $363 $-1 #
loop $-1 $-1 $428 $431 #
vertex $-1 $429 $432 #
coedge $-1 $311 $310 $433 $434 1 $312 $-1 #
edge $-1 $435 $313 $362 $436 0 #
face $-1 $299 $312 $2 $-1 $437 forward single #
point $-1 12.5 25 12.5 #
coedge $-1 $433 $319 $315 $370 0 $277 $-1 #
edge $-1 $321 $371 $369 $438 0 #
vertex $-1 $370 $439 #
straight-curve $-1 12.5 10 0 0 0 -1 #
plane-surface $-1 10 10 0 0 1 0 0 0 1 0 #
straight-curve $-1 7.5 6.25 -12.5 0 -1 0 #
point $-1 7.5 10 -12.5 #
vertex $-1 $326 $440 #
ellipse-curve $-1 0 12.5 4.36435167355392e-14 -0 -1 -0 2 0 0 1 #
face $-1 $441 $340 $2 $-1 $442 forward single #
loop $-1 $-1 $402 $327 #
cone-surface $-1 -40 0 0 0 -1 -3.49148133884313e-15 2 0 0 1 0 1 0 #
loop $-1 $-1 $443 $275 #
face $-1 $-1 $444 $2 $-1 $445 reversed single #
loop $-1 $277 $385 $329 #
plane-surface $-1 0 0 -12.5 0 0 1 1 0 0 0 #
coedge $-1 $385 $385 $331 $386 0 $383 $-1 #
edge $-1 $446 $446 $385 $447 0 #
vertex $-1 $332 $448 #
intcurve-curve $-1 0 { surfintcur nubs 3 periodic 33 
	0 3 0.381557665252651 2 0.763115330505303 2 1.14467299575795 2 1.52623066101061 2 
	1.90740233130989 2 2.28857400160917 2 2.66974567190846 2 3.05091734220774 2 3.43208901250703 2 
	3.81326068280631 2 4.19443235310559 2 4.57560402340488 2 4.95716168865753 2 5.33871935391018 2 
	5.72027701916283 2 6.10183468441548 2 6.48339234966814 2 6.86495001492079 2 7.24650768017344 2 
	7.62806534542609 2 8.00923701572538 2 8.39040868602467 2 8.77158035632395 2 9.15275202662324 2 
	9.53392369692252 2 9.91509536722181 2 10.2962670375211 2 10.6774387078204 2 11.058996373073 2 
	11.4405540383257 2 11.8221117035783 2 12.203669368831 3 
	2 4.58257569495584 1.59999775227744e-14 
	2 4.58257569495584 0.127185888417566 
	1.98767353064423 4.58802055518972 0.258185221141077 
	1.9363401744334 4.60992032537496 0.517776403143937 
	1.89735012832555 4.62634858750892 0.646373829719614 
	1.79489398353533 4.66705409495586 0.892240292935093 
	1.73134666295565 4.69131665108603 1.00973217303436 
	1.58503420032758 4.74275023280073 1.22669756421403 
	1.5022540070194 4.76986981255392 1.32617311772681 
	1.32626218202931 4.82176697044154 1.5021649427169 
	1.22682943203052 4.84843070438788 1.5849337603571 
	1.00984207348237 4.8982251619299 1.73128405161288 
	0.89228524993736 4.92131309632891 1.79487679646031 
	0.64628728844185 4.95961775780347 1.89738464392358 
	0.517625142103514 4.97483828142655 1.9363812278505 
	0.258012119708965 4.99503568157259 1.98769660497701 
	0.127057223433095 5 2.00000000000002 
	-0.127057223433095 5 2.00000000000002 
	-0.258012119708965 4.99503568157258 1.98769660497701 
	-0.517625142103514 4.97483828142655 1.9363812278505 
	-0.64628728844185 4.95961775780347 1.89738464392358 
	-0.89228524993736 4.92131309632891 1.79487679646031 
	-1.00984207348237 4.8982251619299 1.73128405161288 
	-1.22682943203052 4.84843070438788 1.5849337603571 
	-1.32626218202931 4.82176697044154 1.5021649427169 
	-1.5022540070194 4.76986981255392 1.32617311772681 
	-1.58503420032758 4.74275023280073 1.22669756421403 
	-1.73134666295565 4.69131665108603 1.00973217303436 
	-1.79489398353533 4.66705409495586 0.892240292935092 
	-1.89735012832555 4.62634858750892 0.646373829719614 
	-1.9363401744334 4.60992032537496 0.517776403143936 
	-1.98767353064423 4.58802055518972 0.258185221141077 
	-2 4.58257569495584 0.127185888417566 
	-2 4.58257569495584 -0.127185888417535 
	-1.98767353064423 4.58802055518972 -0.258185221141046 
	-1.9363401744334 4.60992032537496 -0.517776403143906 
	-1.89735012832555 4.62634858750892 -0.646373829719584 
	-1.79489398353533 4.66705409495586 -0.892240292935062 
	-1.73134666295565 4.69131665108603 -1.00973217303433 
	-1.58503420032758 4.74275023280073 -1.226697564214 
	-1.5022540070194 4.76986981255392 -1.32617311772678 
	-1.3262621820293 4.82176697044154 -1.50216494271687 
	-1.22682943203051 4.84843070438788 -1.58493376035707 
	-1.00984207348237 4.8982251619299 -1.73128405161285 
	-0.892285249937351 4.92131309632892 -1.79487679646028 
	-0.646287288441839 4.95961775780347 -1.89738464392354 
	-0.517625142103502 4.97483828142655 -1.93638122785047 
	-0.258012119708952 4.99503568157258 -1.98769660497698 
	-0.127057223433081 5 -1.99999999999998 
	0.127057223433109 5 -1.99999999999998 
	0.258012119708981 4.99503568157258 -1.98769660497698 
	0.51762514210353 4.97483828142655 -1.93638122785046 
	0.646287288441866 4.95961775780347 -1.89738464392354 
	0.892285249937376 4.92131309632891 -1.79487679646026 
	1.00984207348239 4.8982251619299 -1.73128405161283 
	1.22682943203053 4.84843070438787 -1.58493376035705 
	1.32626218202932 4.82176697044154 -1.50216494271685 
	1.50225400701941 4.76986981255392 -1.32617311772676 
	1.58503420032759 4.74275023280073 -1.22669756421399 
	1.73134666295566 4.69131665108602 -1.00973217303432 
	1.79489398353534 4.66705409495586 -0.892240292935048 
	1.89735012832555 4.62634858750892 -0.646373829719572 
	1.9363401744334 4.60992032537496 -0.517776403143896 
	1.98767353064423 4.58802055518972 -0.25818522114104 
	2 4.58257569495584 -0.127185888417532 
	2 4.58257569495584 1.59999775227744e-14 
	0.001 
	cone 0 0 0 0 -1 -3.49148133884313e-15 2 0 0 1 -0 -1 0 
	cone 0 0 0 0 0 1 5 0 0 1 -0 -1 0 
	nullbs 
	nullbs 
	} #
point $-1 2 -4.58257569495584 -1.59999775227744e-14 #
coedge $-1 $449 $335 $450 $451 0 $22 $-1 #
coedge $-1 $452 $453 $335 $392 1 $454 $-1 #
edge $-1 $396 $455 $335 $456 0 #
coedge $-1 $457 $336 $339 $400 0 $395 $-1 #
coedge $-1 $336 $457 $452 $458 0 $395 $-1 #
loop $-1 $-1 $394 $459 #
vertex $-1 $392 $460 #
ellipse-curve $-1 -37.5 -10 12.5 -0 -0 -1 7.07106781186547 7.07106781186547 0 1 #
coedge $-1 $461 $338 $462 $463 0 $340 $-1 #
coedge $-1 $339 $464 $465 $466 1 $340 $-1 #
edge $-1 $341 $467 $339 $468 0 #
point $-1 -37.5 0 12.5 #
coedge $-1 $351 $462 $343 $403 1 $379 $-1 #
edge $-1 $353 $404 $343 $469 0 #
vertex $-1 $344 $470 #
straight-curve $-1 -40 0 3.125 -0 -0 -1 #
face $-1 $471 $472 $2 $-1 $13 forward single #
plane-surface $-1 -40 12.5 6.25 -1 0 0 0 0 1 0 #
coedge $-1 $473 $347 $474 $475 1 $247 $-1 #
coedge $-1 $476 $477 $347 $410 0 $444 $-1 #
edge $-1 $478 $412 $347 $479 0 #
coedge $-1 $348 $465 $476 $480 0 $277 $-1 #
vertex $-1 $349 $481 #
straight-curve $-1 0 25 -12.5 1 0 0 #
coedge $-1 $350 $482 $483 $484 0 $247 $-1 #
coedge $-1 $485 $351 $350 $416 1 $379 $-1 #
edge $-1 $486 $417 $350 $418 0 #
vertex $-1 $416 $487 #
ellipse-curve $-1 -40 25 8.72870334710783e-14 0 -1 0 2 0 0 1 #
point $-1 -40 25 2.00000000000009 #
coedge $-1 $358 $488 $489 $490 0 $22 $-1 #
coedge $-1 $491 $492 $358 $422 1 $493 $-1 #
edge $-1 $494 $426 $358 $495 0 #
coedge $-1 $496 $359 $492 $497 1 $425 $-1 #
coedge $-1 $359 $496 $361 $429 1 $425 $-1 #
loop $-1 $-1 $496 $498 #
vertex $-1 $422 $499 #
straight-curve $-1 40 6.25 12.5 0 1 0 #
coedge $-1 $500 $361 $501 $502 0 $363 $-1 #
edge $-1 $364 $503 $361 $504 0 #
coedge $-1 $362 $505 $506 $507 1 $363 $-1 #
face $-1 $508 $363 $2 $-1 $355 reversed single #
point $-1 40 25 12.5 #
coedge $-1 $506 $369 $365 $434 0 $277 $-1 #
edge $-1 $371 $435 $433 $509 0 #
vertex $-1 $434 $510 #
straight-curve $-1 12.5 25 0 0 0 1 #
plane-surface $-1 12.5 18.75 0 -1 0 0 0 0 1 0 #
straight-curve $-1 5 10 -12.5 1 0 0 #
point $-1 12.5 10 -12.5 #
point $-1 -2 12.5 5.76094420909117e-14 #
face $-1 $511 $512 $2 $-1 $513 forward single #
plane-surface $-1 -45 0 0 0 -1 0 0 0 -1 0 #
coedge $-1 $443 $443 $514 $515 1 $381 $-1 #
loop $-1 $-1 $516 $382 #
plane-surface $-1 -62.5 0 0 1 0 0 0 0 -1 0 #
vertex $-1 $386 $517 #
ellipse-curve $-1 0 0 -12.5 0 0 1 5 0 0 1 #
point $-1 2 4.58257569495584 1.59999775227744e-14 #
coedge $-1 $518 $390 $519 $520 0 $22 $-1 #
coedge $-1 $521 $522 $390 $451 1 $523 $-1 #
edge $-1 $455 $524 $450 $525 0 #
coedge $-1 $526 $391 $394 $458 1 $454 $-1 #
coedge $-1 $391 $526 $521 $527 1 $454 $-1 #
loop $-1 $-1 $452 $528 #
vertex $-1 $527 $529 #
straight-curve $-1 -27.5 -6.25 12.5 0 -1 0 #
coedge $-1 $394 $393 $530 $531 1 $395 $-1 #
edge $-1 $532 $396 $452 $533 0 #
face $-1 $534 $395 $2 $-1 $535 forward single #
point $-1 -27.5 -10 12.5 #
coedge $-1 $536 $398 $537 $538 0 $340 $-1 #
coedge $-1 $402 $485 $398 $463 1 $379 $-1 #
edge $-1 $404 $539 $398 $540 0 #
coedge $-1 $399 $541 $516 $542 1 $340 $-1 #
coedge $-1 $411 $530 $399 $466 0 $277 $-1 #
edge $-1 $467 $543 $465 $544 0 #
vertex $-1 $466 $545 #
straight-curve $-1 -37.5 0 0 0 0 -1 #
straight-curve $-1 -40 -6.73022453020305e-15 2 0 -1 -3.49148133884313e-15 #
point $-1 -40 0 2 #
face $-1 $546 $547 $2 $-1 $548 forward single #
loop $-1 $-1 $549 $406 #
coedge $-1 $482 $408 $550 $551 0 $247 $-1 #
coedge $-1 $552 $549 $408 $475 0 $472 $-1 #
edge $-1 $553 $478 $408 $249 0 #
coedge $-1 $516 $409 $411 $480 1 $444 $-1 #
coedge $-1 $409 $516 $552 $554 1 $444 $-1 #
vertex $-1 $475 $555 #
straight-curve $-1 -62.5 25 0 0 0 -1 #
edge $-1 $543 $412 $476 $556 0 #
point $-1 -62.5 25 -12.5 #
coedge $-1 $414 $473 $557 $558 0 $247 $-1 #
coedge $-1 $559 $560 $414 $484 1 $512 $-1 #
edge $-1 $561 $486 $414 $562 0 #
coedge $-1 $462 $415 $560 $563 1 $379 $-1 #
vertex $-1 $484 $564 #
point $-1 -38 25 8.72870334710783e-14 #
coedge $-1 $420 $565 $566 $567 0 $22 $-1 #
coedge $-1 $568 $569 $420 $490 1 $570 $-1 #
edge $-1 $571 $494 $420 $572 0 #
coedge $-1 $573 $421 $569 $574 1 $493 $-1 #
coedge $-1 $421 $575 $423 $497 0 $493 $-1 #
loop $-1 $-1 $575 $576 #
vertex $-1 $422 $577 #
straight-curve $-1 22.5 0 12.5 1 0 -0 #
coedge $-1 $424 $423 $578 $579 0 $425 $-1 #
edge $-1 $580 $426 $492 $581 0 #
face $-1 $582 $425 $2 $-1 $583 forward single #
point $-1 40 0 12.5 #
coedge $-1 $584 $428 $585 $586 0 $363 $-1 #
coedge $-1 $578 $587 $428 $502 1 $588 $-1 #
edge $-1 $503 $589 $428 $590 0 #
vertex $-1 $429 $591 #
straight-curve $-1 40 25 3.125 0 0 -1 #
coedge $-1 $430 $592 $593 $594 0 $363 $-1 #
coedge $-1 $595 $433 $430 $507 0 $277 $-1 #
edge $-1 $435 $596 $430 $413 0 #
face $-1 $597 $598 $2 $-1 $599 forward single #
straight-curve $-1 12.5 6.25 -12.5 0 1 -0 #
point $-1 12.5 25 -12.5 #
face $-1 $498 $588 $2 $-1 $600 reversed single #
loop $-1 $-1 $560 $441 #
plane-surface $-1 -47.5 12.5 0 0 0 1 1 0 0 0 #
coedge $-1 $514 $514 $443 $515 0 $601 $-1 #
edge $-1 $602 $602 $514 $603 0 #
coedge $-1 $477 $476 $464 $542 0 $444 $-1 #
point $-1 5 0 -12.5 #
coedge $-1 $604 $449 $605 $606 0 $22 $-1 #
coedge $-1 $607 $608 $449 $520 1 $609 $-1 #
edge $-1 $524 $610 $449 $611 0 #
coedge $-1 $612 $450 $453 $527 0 $523 $-1 #
coedge $-1 $450 $613 $607 $614 0 $523 $-1 #
loop $-1 $-1 $522 $615 #
vertex $-1 $451 $616 #
straight-curve $-1 0 -25 12.5 1 0 0 #
coedge $-1 $453 $452 $617 $618 1 $454 $-1 #
edge $-1 $455 $619 $521 $620 0 #
face $-1 $621 $454 $2 $-1 $622 forward single #
point $-1 -27.5 -25 12.5 #
coedge $-1 $465 $617 $457 $531 0 $277 $-1 #
edge $-1 $532 $467 $530 $623 0 #
vertex $-1 $618 $624 #
straight-curve $-1 -27.5 -10 0 0 0 1 #
face $-1 $625 $570 $2 $-1 $626 forward single #
cone-surface $-1 -37.5 -10 0 -0 -0 -1 7.07106781186547 7.07106781186547 0 1 0 -1 0 #
coedge $-1 $627 $461 $628 $629 0 $340 $-1 #
coedge $-1 $560 $559 $461 $538 1 $512 $-1 #
edge $-1 $539 $630 $461 $631 0 #
vertex $-1 $563 $632 #
ellipse-curve $-1 -40 0 0 -0 1 -0 2 0 0 1 #
coedge $-1 $464 $627 $633 $634 1 $340 $-1 #
edge $-1 $543 $635 $516 $636 0 #
vertex $-1 $466 $637 #
straight-curve $-1 -22.5 0 -12.5 -1 0 0 #
point $-1 -37.5 0 -12.5 #
face $-1 $576 $638 $2 $-1 $639 forward single #
loop $-1 $-1 $640 $471 #
plane-surface $-1 47.5 12.5 0 0 0 1 1 0 0 0 #
coedge $-1 $474 $633 $641 $642 0 $472 $-1 #
coedge $-1 $641 $643 $473 $551 1 $644 $-1 #
edge $-1 $553 $645 $473 $646 0 #
coedge $-1 $633 $474 $477 $554 0 $472 $-1 #
vertex $-1 $551 $647 #
edge $-1 $478 $635 $477 $648 0 #
point $-1 -62.5 25 12.5 #
straight-curve $-1 -62.5 0 -12.5 0 1 0 #
coedge $-1 $649 $650 $482 $558 1 $651 $-1 #
edge $-1 $645 $561 $482 $652 0 #
coedge $-1 $537 $483 $650 $653 0 $512 $-1 #
coedge $-1 $483 $537 $485 $563 0 $512 $-1 #
vertex $-1 $558 $654 #
straight-curve $-1 -23.75 25 0 1 0 -0 #
edge $-1 $539 $486 $560 $655 0 #
point $-1 -42 25 0 #
coedge $-1 $488 $656 $657 $658 0 $22 $-1 #
coedge $-1 $659 $660 $488 $567 1 $661 $-1 #
edge $-1 $662 $571 $488 $663 0 #
coedge $-1 $664 $489 $660 $665 0 $570 $-1 #
coedge $-1 $489 $664 $491 $574 0 $570 $-1 #
loop $-1 $-1 $569 $534 #
vertex $-1 $567 $666 #
ellipse-curve $-1 37.5 -10 12.5 -0 -0 -1 -7.07106781186547 7.07106781186547 0 1 #
coedge $-1 $667 $491 $668 $669 1 $493 $-1 #
edge $-1 $670 $494 $491 $671 0 #
coedge $-1 $492 $672 $673 $674 0 $493 $-1 #
face $-1 $459 $493 $2 $-1 $675 forward single #
point $-1 37.5 0 12.5 #
coedge $-1 $673 $501 $496 $579 1 $588 $-1 #
edge $-1 $580 $503 $496 $676 0 #
vertex $-1 $579 $677 #
straight-curve $-1 40 0 3.125 -0 0 1 #
face $-1 $678 $651 $2 $-1 $679 reversed single #
plane-surface $-1 40 12.5 6.25 1 0 0 0 0 -1 0 #
coedge $-1 $680 $500 $681 $682 0 $363 $-1 #
coedge $-1 $640 $683 $500 $586 1 $547 $-1 #
edge $-1 $589 $684 $500 $685 0 #
coedge $-1 $501 $673 $640 $686 1 $588 $-1 #
loop $-1 $-1 $587 $511 #
vertex $-1 $502 $687 #
ellipse-curve $-1 40 25 8.72870334710783e-14 0 -1 0 2 0 0 1 #
point $-1 40 25 2.00000000000009 #
coedge $-1 $505 $688 $689 $690 1 $363 $-1 #
coedge $-1 $691 $692 $505 $594 1 $693 $-1 #
edge $-1 $694 $596 $593 $695 0 #
coedge $-1 $668 $506 $692 $696 0 $277 $-1 #
vertex $-1 $696 $697 #
face $-1 $698 $699 $2 $-1 $700 forward single #
loop $-1 $-1 $701 $508 #
cone-surface $-1 15 -17.5 3.75 -0 -0 -1 3.53553390593274 3.53553390593274 0 1 0 -1 0 #
cone-surface $-1 40 0 0 0 -1 -3.49148133884313e-15 2 0 0 1 0 1 0 #
loop $-1 $702 $514 $698 #
vertex $-1 $515 $703 #
ellipse-curve $-1 0 -12.5 -4.36435167355391e-14 -0 1 -0 2 0 0 1 #
coedge $-1 $704 $518 $705 $706 0 $22 $-1 #
coedge $-1 $707 $708 $518 $606 1 $709 $-1 #
edge $-1 $610 $710 $518 $711 0 #
coedge $-1 $712 $519 $522 $614 1 $609 $-1 #
coedge $-1 $519 $712 $707 $713 1 $609 $-1 #
loop $-1 $-1 $608 $714 #
vertex $-1 $520 $715 #
straight-curve $-1 -20 -9.375 12.5 0 1 0 #
coedge $-1 $716 $521 $717 $718 1 $523 $-1 #
coedge $-1 $522 $719 $720 $721 0 $523 $-1 #
edge $-1 $722 $524 $522 $723 0 #
face $-1 $724 $523 $2 $-1 $725 reversed single #
point $-1 -20 -25 12.5 #
coedge $-1 $530 $717 $526 $618 0 $277 $-1 #
edge $-1 $619 $532 $617 $726 0 #
vertex $-1 $718 $727 #
straight-curve $-1 -27.5 -25 0 -0 0 -1 #
face $-1 $615 $728 $2 $-1 $13 forward single #
plane-surface $-1 -27.5 -12.5 0 -1 0 0 0 0 1 0 #
ellipse-curve $-1 -37.5 -10 -12.5 0 0 1 7.07106781186547 7.07106781186547 0 1 #
point $-1 -27.5 -10 -12.5 #
face $-1 $528 $661 $2 $-1 $729 forward single #
cone-surface $-1 37.5 -10 0 -0 0 -1 -7.07106781186547 7.07106781186547 0 1 0 -1 0 #
coedge $-1 $541 $536 $730 $731 0 $340 $-1 #
coedge $-1 $650 $649 $536 $629 1 $651 $-1 #
edge $-1 $630 $732 $536 $733 0 #
vertex $-1 $538 $734 #
straight-curve $-1 -46.25 0 0 -1 0 0 #
point $-1 -42 0 0 #
coedge $-1 $549 $552 $541 $634 0 $472 $-1 #
edge $-1 $635 $735 $633 $342 0 #
vertex $-1 $554 $736 #
straight-curve $-1 -62.5 0 0 -0 0 1 #
point $-1 -62.5 0 -12.5 #
loop $-1 $-1 $737 $546 #
plane-surface $-1 55 12.5 6.25 -1 0 0 0 0 1 0 #
coedge $-1 $738 $585 $587 $686 0 $547 $-1 #
coedge $-1 $730 $550 $549 $642 1 $644 $-1 #
edge $-1 $735 $553 $549 $739 0 #
coedge $-1 $550 $730 $649 $740 0 $644 $-1 #
loop $-1 $-1 $643 $678 #
vertex $-1 $551 $741 #
straight-curve $-1 -55 25 3.125 0 0 -1 #
point $-1 -55 25 12.5 #
straight-curve $-1 -62.5 0 12.5 0 -1 0 #
coedge $-1 $628 $557 $643 $740 1 $651 $-1 #
coedge $-1 $557 $628 $559 $653 1 $651 $-1 #
loop $-1 $-1 $650 $582 #
ellipse-curve $-1 -55 25 8.72870334710783e-14 0 -1 0 2 0 0 1 #
edge $-1 $561 $630 $559 $742 0 #
point $-1 -53 25 8.72870334710783e-14 #
straight-curve $-1 -42 -7.61902621218115e-29 0 -0 1 3.49148133884313e-15 #
coedge $-1 $565 $704 $743 $744 0 $22 $-1 #
coedge $-1 $719 $716 $565 $658 1 $523 $-1 #
edge $-1 $745 $662 $657 $525 0 #
coedge $-1 $746 $566 $716 $747 1 $661 $-1 #
coedge $-1 $566 $746 $568 $665 1 $661 $-1 #
loop $-1 $-1 $660 $625 #
vertex $-1 $658 $748 #
straight-curve $-1 27.5 -6.25 12.5 0 1 0 #
coedge $-1 $569 $568 $749 $750 1 $570 $-1 #
edge $-1 $571 $751 $660 $752 0 #
point $-1 27.5 -10 12.5 #
coedge $-1 $753 $573 $754 $755 1 $493 $-1 #
coedge $-1 $749 $595 $573 $669 0 $277 $-1 #
edge $-1 $756 $670 $668 $757 0 #
vertex $-1 $669 $758 #
straight-curve $-1 37.5 0 0 0 0 1 #
coedge $-1 $575 $759 $738 $760 0 $493 $-1 #
coedge $-1 $587 $578 $575 $674 1 $588 $-1 #
edge $-1 $761 $580 $575 $762 0 #
plane-surface $-1 45 0 0 0 -1 0 0 0 -1 0 #
straight-curve $-1 40 -6.73022453020305e-15 2 -0 1 3.49148133884313e-15 #
point $-1 40 0 2 #
face $-1 $763 $644 $2 $-1 $764 forward single #
cone-surface $-1 -55 0 0 0 -1 -3.49148133884313e-15 2 0 0 1 0 1 0 #
coedge $-1 $688 $584 $765 $766 0 $363 $-1 #
coedge $-1 $767 $765 $584 $682 1 $768 $-1 #
edge $-1 $684 $769 $584 $770 0 #
coedge $-1 $585 $738 $767 $771 0 $547 $-1 #
vertex $-1 $586 $772 #
straight-curve $-1 23.75 25 0 1 0 -0 #
edge $-1 $589 $761 $640 $773 0 #
point $-1 42 25 8.72870334710783e-14 #
coedge $-1 $592 $680 $774 $775 0 $363 $-1 #
coedge $-1 $776 $777 $592 $690 0 $728 $-1 #
edge $-1 $694 $778 $592 $249 0 #
coedge $-1 $754 $593 $777 $779 1 $693 $-1 #
coedge $-1 $593 $754 $595 $696 1 $693 $-1 #
loop $-1 $-1 $754 $724 #
vertex $-1 $779 $780 #
straight-curve $-1 62.5 25 0 0 0 -1 #
edge $-1 $596 $756 $692 $781 0 #
point $-1 62.5 25 -12.5 #
face $-1 $782 $601 $2 $-1 $783 forward single #
loop $-1 $-1 $784 $597 #
plane-surface $-1 0 -18.75 -5 0 0 1 1 0 0 0 #
coedge $-1 $785 $786 $787 $788 0 $598 $-1 #
loop $-1 $-1 $789 $698 #
point $-1 -2 -12.5 -5.76094420909117e-14 #
coedge $-1 $656 $604 $785 $790 0 $22 $-1 #
coedge $-1 $791 $789 $604 $706 1 $702 $-1 #
edge $-1 $710 $792 $604 $793 0 #
coedge $-1 $794 $605 $608 $713 0 $709 $-1 #
coedge $-1 $605 $794 $791 $795 0 $709 $-1 #
loop $-1 $-1 $708 $782 #
vertex $-1 $706 $796 #
ellipse-curve $-1 -15 -17.5 12.5 -0 -0 -1 -3.53553390593274 3.53553390593274 0 1 #
coedge $-1 $608 $607 $797 $798 0 $609 $-1 #
edge $-1 $610 $799 $608 $800 0 #
face $-1 $801 $609 $2 $-1 $802 forward single #
point $-1 -20 -17.5 12.5 #
coedge $-1 $657 $612 $659 $747 0 $523 $-1 #
coedge $-1 $617 $803 $612 $718 0 $277 $-1 #
edge $-1 $804 $619 $612 $805 0 #
coedge $-1 $613 $657 $806 $807 0 $523 $-1 #
coedge $-1 $808 $797 $613 $721 1 $699 $-1 #
edge $-1 $809 $722 $613 $810 0 #
vertex $-1 $721 $811 #
straight-curve $-1 -20 -25 1.875 -0 0 1 #
face $-1 $329 $693 $2 $-1 $812 reversed single #
plane-surface $-1 0 -25 0 0 1 -0 -0 0 1 0 #
straight-curve $-1 -27.5 -6.25 -12.5 0 1 -0 #
point $-1 -27.5 -25 -12.5 #
loop $-1 $-1 $776 $621 #
plane-surface $-1 27.5 -12.5 0 1 0 0 0 0 -1 0 #
coedge $-1 $643 $641 $627 $731 1 $644 $-1 #
edge $-1 $732 $735 $627 $813 0 #
vertex $-1 $740 $814 #
ellipse-curve $-1 -55 0 0 -0 1 -0 2 0 0 1 #
point $-1 -53 0 0 #
vertex $-1 $634 $815 #
point $-1 -62.5 0 12.5 #
coedge $-1 $816 $774 $817 $818 0 $638 $-1 #
coedge $-1 $683 $640 $672 $760 1 $547 $-1 #
straight-curve $-1 -55 6.25 12.5 0 1 0 #
edge $-1 $732 $645 $643 $819 0 #
point $-1 -55 25 2.00000000000009 #
straight-curve $-1 -53 -7.61902621218115e-29 0 0 -1 -3.49148133884313e-15 #
coedge $-1 $787 $806 $656 $744 1 $820 $-1 #
edge $-1 $821 $745 $656 $822 0 #
vertex $-1 $807 $823 #
coedge $-1 $660 $659 $803 $824 1 $661 $-1 #
edge $-1 $804 $662 $716 $825 0 #
point $-1 27.5 -25 12.5 #
coedge $-1 $803 $668 $664 $750 0 $277 $-1 #
edge $-1 $670 $751 $749 $826 0 #
vertex $-1 $824 $827 #
straight-curve $-1 27.5 -10 0 0 0 -1 #
coedge $-1 $828 $667 $829 $830 1 $493 $-1 #
coedge $-1 $692 $691 $667 $755 0 $693 $-1 #
edge $-1 $831 $756 $754 $832 0 #
vertex $-1 $696 $833 #
straight-curve $-1 22.5 0 -12.5 -1 0 0 #
point $-1 37.5 0 -12.5 #
coedge $-1 $672 $828 $834 $835 0 $493 $-1 #
edge $-1 $836 $761 $672 $837 0 #
vertex $-1 $760 $838 #
ellipse-curve $-1 40 0 0 -0 1 -0 2 0 0 1 #
face $-1 $431 $768 $2 $-1 $839 reversed single #
plane-surface $-1 -55 12.5 6.25 1 0 0 0 0 -1 0 #
coedge $-1 $681 $817 $680 $766 1 $768 $-1 #
edge $-1 $769 $840 $680 $770 0 #
coedge $-1 $834 $681 $683 $771 1 $768 $-1 #
loop $-1 $-1 $767 $763 #
vertex $-1 $682 $841 #
ellipse-curve $-1 55 25 8.72870334710783e-14 0 -1 0 2 0 0 1 #
edge $-1 $836 $684 $683 $842 0 #
point $-1 53 25 0 #
straight-curve $-1 42 -7.61902621218115e-29 0 0 -1 -3.49148133884313e-15 #
coedge $-1 $737 $843 $688 $775 1 $638 $-1 #
edge $-1 $840 $778 $688 $844 0 #
coedge $-1 $829 $689 $843 $845 0 $728 $-1 #
coedge $-1 $689 $829 $691 $779 0 $728 $-1 #
vertex $-1 $690 $846 #
edge $-1 $831 $694 $691 $847 0 #
point $-1 62.5 25 12.5 #
straight-curve $-1 62.5 0 -12.5 0 -1 0 #
face $-1 $714 $709 $2 $-1 $848 forward single #
plane-surface $-1 0 -12.5 3.75 0 -1 0 0 0 -1 0 #
coedge $-1 $849 $808 $786 $850 0 $699 $-1 #
coedge $-1 $851 $701 $704 $790 1 $598 $-1 #
coedge $-1 $701 $851 $784 $850 1 $598 $-1 #
coedge $-1 $852 $743 $701 $788 1 $820 $-1 #
edge $-1 $853 $821 $787 $854 0 #
coedge $-1 $705 $855 $851 $856 1 $702 $-1 #
edge $-1 $792 $821 $704 $857 0 #
coedge $-1 $855 $705 $708 $795 1 $702 $-1 #
vertex $-1 $706 $858 #
straight-curve $-1 0 -12.5 12.5 1 0 -0 #
coedge $-1 $708 $707 $859 $860 1 $709 $-1 #
edge $-1 $861 $710 $791 $862 0 #
point $-1 -15 -12.5 12.5 #
coedge $-1 $720 $859 $712 $798 1 $699 $-1 #
edge $-1 $722 $799 $712 $863 0 #
vertex $-1 $798 $864 #
straight-curve $-1 -20 -17.5 3.75 0 0 -1 #
face $-1 $367 $820 $2 $-1 $865 forward single #
plane-surface $-1 -20 -18.75 3.75 1 0 0 0 0 -1 0 #
coedge $-1 $717 $749 $746 $824 0 $277 $-1 #
vertex $-1 $747 $866 #
straight-curve $-1 0 -25 -12.5 -1 0 0 #
coedge $-1 $743 $852 $719 $807 1 $820 $-1 #
edge $-1 $745 $809 $719 $867 0 #
coedge $-1 $784 $720 $852 $868 1 $699 $-1 #
vertex $-1 $721 $869 #
straight-curve $-1 0 -25 -5 -1 0 0 #
point $-1 -20 -25 -5 #
plane-surface $-1 62.5 0 0 -1 0 0 0 -0 1 0 #
straight-curve $-1 -55 0 3.125 -0 0 1 #
point $-1 -55 0 2 #
point $-1 -55 0 12.5 #
coedge $-1 $843 $737 $828 $870 1 $638 $-1 #
coedge $-1 $765 $834 $737 $818 1 $768 $-1 #
edge $-1 $840 $871 $737 $872 0 #
straight-curve $-1 -55 -6.73022453020305e-15 2 -0 1 3.49148133884313e-15 #
loop $-1 $-1 $787 $801 #
vertex $-1 $744 $873 #
straight-curve $-1 20 -9.375 12.5 0 -1 0 #
point $-1 20 -25 12.5 #
edge $-1 $751 $804 $803 $874 0 #
straight-curve $-1 27.5 -25 0 -0 0 1 #
ellipse-curve $-1 37.5 -10 -12.5 0 0 1 -7.07106781186547 7.07106781186547 0 1 #
point $-1 27.5 -10 -12.5 #
coedge $-1 $759 $753 $816 $870 0 $493 $-1 #
coedge $-1 $777 $776 $753 $830 0 $728 $-1 #
edge $-1 $875 $831 $829 $495 0 #
vertex $-1 $755 $876 #
straight-curve $-1 62.5 0 0 -0 -0 -1 #
point $-1 62.5 0 -12.5 #
coedge $-1 $817 $767 $759 $835 1 $768 $-1 #
edge $-1 $871 $836 $759 $877 0 #
vertex $-1 $835 $878 #
straight-curve $-1 46.25 0 0 -1 0 0 #
point $-1 42 0 0 #
cone-surface $-1 55 0 0 0 -1 -3.49148133884313e-15 2 0 0 1 0 1 0 #
vertex $-1 $818 $879 #
point $-1 57 25 8.72870334710783e-14 #
straight-curve $-1 53 -7.61902621218115e-29 0 -0 1 3.49148133884313e-15 #
coedge $-1 $774 $816 $776 $845 1 $638 $-1 #
straight-curve $-1 55 25 3.125 0 0 1 #
edge $-1 $778 $875 $776 $880 0 #
point $-1 55 25 12.5 #
straight-curve $-1 62.5 0 12.5 0 1 0 #
cone-surface $-1 -15 -17.5 3.75 -0 0 -1 -3.53553390593274 3.53553390593274 0 1 0 -1 0 #
coedge $-1 $859 $784 $855 $881 1 $699 $-1 #
edge $-1 $853 $882 $784 $883 0 #
coedge $-1 $786 $785 $789 $856 0 $598 $-1 #
coedge $-1 $806 $787 $808 $868 0 $820 $-1 #
vertex $-1 $850 $884 #
straight-curve $-1 20 -17.5 3.75 0 0 1 #
coedge $-1 $789 $791 $849 $881 0 $702 $-1 #
edge $-1 $792 $882 $789 $885 0 #
ellipse-curve $-1 15 -17.5 12.5 -0 -0 -1 3.53553390593274 3.53553390593274 0 1 #
point $-1 15 -12.5 12.5 #
coedge $-1 $797 $849 $794 $860 0 $699 $-1 #
edge $-1 $861 $799 $859 $886 0 #
vertex $-1 $860 $887 #
straight-curve $-1 -15 -12.5 3.75 0 0 1 #
straight-curve $-1 -20 -18.75 -5 0 1 0 #
point $-1 -20 -17.5 -5 #
plane-surface $-1 20 -18.75 3.75 -1 0 0 0 0 1 0 #
point $-1 27.5 -25 -12.5 #
straight-curve $-1 20 -25 1.875 -0 0 -1 #
edge $-1 $853 $809 $852 $888 0 #
point $-1 20 -25 -5 #
edge $-1 $875 $871 $828 $889 0 #
vertex $-1 $870 $890 #
straight-curve $-1 55 -6.73022453020305e-15 2 0 -1 -3.49148133884313e-15 #
point $-1 20 -17.5 12.5 #
straight-curve $-1 27.5 -6.25 -12.5 0 -1 0 #
vertex $-1 $845 $891 #
point $-1 62.5 0 12.5 #
ellipse-curve $-1 55 0 0 -0 1 -0 2 0 0 1 #
point $-1 53 0 0 #
point $-1 55 25 2.00000000000009 #
straight-curve $-1 55 6.25 12.5 0 -1 0 #
edge $-1 $861 $882 $855 $892 0 #
vertex $-1 $881 $893 #
ellipse-curve $-1 15 -17.5 -5 0 0 1 3.53553390593274 3.53553390593274 0 1 #
point $-1 20 -17.5 -5 #
straight-curve $-1 15 -12.5 3.75 0 0 -1 #
ellipse-curve $-1 -15 -17.5 -5 0 0 1 -3.53553390593274 3.53553390593274 0 1 #
point $-1 -15 -12.5 -5 #
straight-curve $-1 20 -18.75 -5 0 -1 0 #
straight-curve $-1 55 0 3.125 -0 -0 -1 #
point $-1 55 0 2 #
point $-1 55 0 12.5 #
straight-curve $-1 0 -12.5 -5 1 0 0 #
point $-1 15 -12.5 -5 #
