700 0 2 0           
24 FBMach with ACIS - 7.0.3 13 ACIS 7.0.3 NT 24 Mon May 13 17:06:16 2002 
1 9.9999999999999995e-007 1e-010 
body $2 -1 $-1 $3 $-1 $4 #
bdycol-kcp $-1 -1 1 3 $5 $6 $7 #
model_id-kcp-attrib $-1 -1 $-1 $-1 $0 1 1021323976 1021323976 -1376583679 1 #
lump $-1 -1 $-1 $-1 $8 $0 #
transform $-1 -1 1 0 0 0 1 0 0 0 1 0 0 0 1 rotate no_reflect no_shear #
body $9 -1 $-1 $10 $-1 $11 #
body $12 -1 $-1 $13 $-1 $14 #
body $15 -1 $-1 $16 $-1 $17 #
shell $-1 -1 $-1 $-1 $-1 $18 $-1 $3 #
rgb_color-st-attrib $-1 -1 $19 $-1 $5 0.5 1 1 #
lump $-1 -1 $-1 $-1 $20 $5 #
transform $-1 -1 -1 0 -1.2246063538223773e-016 0 1 0 1.2246063538223773e-016 0 -1 150 100.00000000000007 2.4999999999999951 1 rotate no_reflect no_shear #
rgb_color-st-attrib $-1 -1 $21 $-1 $6 0.5 1 1 #
lump $-1 -1 $-1 $-1 $22 $6 #
transform $-1 -1 -1 0 -1.2246063538223773e-016 0 1 0 1.2246063538223773e-016 0 -1 150.00000000000006 20.000000000000014 2.4999999999999951 1 rotate no_reflect no_shear #
model_id-kcp-attrib $-1 -1 $-1 $-1 $7 1 1021323976 1021323976 -1376583678 1 #
lump $-1 -1 $-1 $-1 $23 $7 #
transform $-1 -1 1 0 0 0 1 0 0 0 1 150.00000000000003 60.000000000000028 -1.7763568394002505e-015 1 no_rotate no_reflect no_shear #
face $24 -1 $-1 $25 $26 $8 $-1 $27 reversed single #
model_id-kcp-attrib $-1 -1 $-1 $9 $5 1 1021323976 1021323976 -1390739453 1 #
shell $-1 -1 $-1 $-1 $-1 $28 $-1 $10 #
model_id-kcp-attrib $-1 -1 $-1 $12 $6 1 1021323976 1021323976 -1390739452 1 #
shell $-1 -1 $-1 $-1 $-1 $29 $-1 $13 #
shell $-1 -1 $-1 $-1 $-1 $30 $-1 $16 #
model_id-kcp-attrib $-1 -1 $-1 $-1 $18 1 1021323976 1021323976 -1376583679 2 #
face $31 -1 $-1 $32 $33 $8 $-1 $34 reversed single #
loop $-1 -1 $-1 $35 $36 $18 #
cone-surface $-1 -1 $-1 150 100.00000000000007 2.4999999999999956 0 0 -1 -3.0000000000000009 0 0 1 I I 0 1 3.0000000000000009 forward I I I I #
face $-1 -1 $-1 $37 $38 $20 $-1 $39 forward single #
face $-1 -1 $-1 $40 $41 $22 $-1 $42 forward single #
face $43 -1 $-1 $44 $45 $23 $-1 $46 forward single #
model_id-kcp-attrib $-1 -1 $-1 $-1 $25 1 1021323976 1021323976 -1376583679 3 #
face $47 -1 $-1 $48 $49 $8 $-1 $50 reversed single #
loop $-1 -1 $-1 $-1 $51 $25 #
plane-surface $-1 -1 $-1 150 100.00000000000007 -5.0000000000000062 0 0 -1 -1 0 0 forward_v I I I I #
loop $-1 -1 $-1 $-1 $52 $18 #
coedge $-1 -1 $-1 $36 $36 $53 $54 reversed $26 $-1 #
face $-1 -1 $-1 $55 $56 $20 $-1 $57 forward single #
loop $-1 -1 $-1 $58 $59 $28 #
cone-surface $-1 -1 $-1 0 0 0 0 0 1 3.0000000000000009 0 0 1 I I 0 1 3.0000000000000009 forward I I I I #
face $-1 -1 $-1 $60 $61 $22 $-1 $62 forward single #
loop $-1 -1 $-1 $63 $64 $29 #
cone-surface $-1 -1 $-1 0 0 0 0 0 1 3.0000000000000009 0 0 1 I I 0 1 3.0000000000000009 forward I I I I #
model_id-kcp-attrib $-1 -1 $-1 $-1 $30 1 1021323976 1021323976 -1376583678 7 #
face $65 -1 $-1 $66 $67 $23 $-1 $68 reversed single #
loop $-1 -1 $-1 $-1 $69 $30 #
plane-surface $-1 -1 $-1 0 0 9.9999999999999982 0 0 1 1 0 0 forward_v I I I I #
model_id-kcp-attrib $-1 -1 $-1 $-1 $32 1 1021323976 1021323976 -1376583679 4 #
face $70 -1 $-1 $71 $72 $8 $-1 $73 reversed single #
loop $-1 -1 $-1 $74 $75 $32 #
cone-surface $-1 -1 $-1 150.00000000000006 20.000000000000014 2.4999999999999956 0 0 -1 -3.0000000000000009 0 0 1 I I 0 1 3.0000000000000009 forward I I I I #
coedge $-1 -1 $-1 $51 $51 $52 $76 reversed $33 $-1 #
coedge $-1 -1 $-1 $52 $52 $51 $76 forward $35 $-1 #
coedge $-1 -1 $-1 $53 $53 $36 $54 forward $77 $-1 #
edge $78 -1 $-1 $79 -3.1415926535897976 $79 3.1415926535897887 $53 $80 forward @7 unknown #
face $-1 -1 $-1 $-1 $81 $20 $-1 $82 forward single #
loop $-1 -1 $-1 $-1 $83 $37 #
plane-surface $-1 -1 $-1 0 0 -7.5000000000000018 0 0 -1 -1 0 0 forward_v I I I I #
loop $-1 -1 $-1 $-1 $84 $28 #
coedge $-1 -1 $-1 $59 $59 $83 $85 reversed $38 $-1 #
face $-1 -1 $-1 $-1 $86 $22 $-1 $87 forward single #
loop $-1 -1 $-1 $-1 $88 $40 #
plane-surface $-1 -1 $-1 0 0 -7.5000000000000018 0 0 -1 -1 0 0 forward_v I I I I #
loop $-1 -1 $-1 $-1 $89 $29 #
coedge $-1 -1 $-1 $64 $64 $88 $90 reversed $41 $-1 #
model_id-kcp-attrib $-1 -1 $-1 $-1 $44 1 1021323976 1021323976 -1376583678 5 #
face $91 -1 $-1 $92 $93 $23 $-1 $94 reversed single #
loop $-1 -1 $-1 $-1 $95 $44 #
plane-surface $-1 -1 $-1 0 0 -9.9999999999999982 0 0 1 1 0 0 forward_v I I I I #
coedge $-1 -1 $-1 $96 $97 $98 $99 forward $45 $-1 #
model_id-kcp-attrib $-1 -1 $-1 $-1 $48 1 1021323976 1021323976 -1376583679 5 #
face $100 -1 $-1 $101 $102 $8 $-1 $103 forward single #
loop $-1 -1 $-1 $-1 $104 $48 #
plane-surface $-1 -1 $-1 150.00000000000006 20.000000000000014 -5.0000000000000062 0 0 -1 -1 0 0 forward_v I I I I #
loop $-1 -1 $-1 $-1 $105 $32 #
coedge $-1 -1 $-1 $75 $75 $106 $107 reversed $49 $-1 #
edge $108 -1 $-1 $109 0 $109 6.2831853071795862 $51 $110 forward @7 unknown #
loop $-1 -1 $-1 $111 $53 $112 #
attrib_edge_convexity-kcp-attrib $-1 -1 $113 $-1 $54 1 #
vertex $-1 -1 $-1 $54 $114 #
ellipse-curve $-1 -1 $-1 150 100.00000000000007 9.9999999999999964 0 0 -1 -3.0000000000000009 0 0 1 I I #
loop $-1 -1 $-1 $-1 $115 $55 #
plane-surface $-1 -1 $-1 0 0 7.5000000000000018 0 0 1 1 0 0 forward_v I I I I #
coedge $-1 -1 $-1 $83 $83 $59 $85 forward $56 $-1 #
coedge $-1 -1 $-1 $84 $84 $115 $116 reversed $58 $-1 #
edge $-1 -1 $-1 $117 0 $117 6.2831853071795862 $83 $118 forward @7 unknown #
loop $-1 -1 $-1 $-1 $119 $60 #
plane-surface $-1 -1 $-1 0 0 7.5000000000000018 0 0 1 1 0 0 forward_v I I I I #
coedge $-1 -1 $-1 $88 $88 $64 $90 forward $61 $-1 #
coedge $-1 -1 $-1 $89 $89 $119 $120 reversed $63 $-1 #
edge $-1 -1 $-1 $121 0 $121 6.2831853071795862 $88 $122 forward @7 unknown #
model_id-kcp-attrib $-1 -1 $-1 $-1 $66 1 1021323976 1021323976 -1376583678 3 #
face $123 -1 $-1 $124 $125 $23 $-1 $126 reversed single #
loop $-1 -1 $-1 $-1 $127 $66 #
plane-surface $-1 -1 $-1 0 -60 0 0 1 0 0 0 1 forward_v I I I I #
coedge $-1 -1 $-1 $128 $129 $130 $131 forward $67 $-1 #
coedge $-1 -1 $-1 $132 $69 $133 $134 forward $45 $-1 #
coedge $-1 -1 $-1 $69 $132 $135 $136 forward $45 $-1 #
coedge $-1 -1 $-1 $137 $138 $69 $99 reversed $139 $-1 #
edge $-1 -1 $-1 $140 -60 $141 60 $98 $142 forward @7 unknown #
model_id-kcp-attrib $-1 -1 $-1 $-1 $71 1 1021323976 1021323976 -1376583679 6 #
face $143 -1 $-1 $144 $145 $8 $-1 $146 reversed single #
loop $-1 -1 $-1 $-1 $147 $71 #
plane-surface $-1 -1 $-1 150.00000000000003 120.00000000000003 -1.7763568394002505e-015 0 1 0 0 0 0.99999999999999989 forward_v I I I I #
coedge $-1 -1 $-1 $104 $104 $105 $148 reversed $72 $-1 #
coedge $-1 -1 $-1 $105 $105 $104 $148 forward $74 $-1 #
coedge $-1 -1 $-1 $106 $106 $75 $107 forward $111 $-1 #
edge $149 -1 $-1 $150 -3.1415926535898002 $150 3.141592653589786 $106 $151 forward @7 unknown #
attrib_edge_convexity-kcp-attrib $-1 -1 $152 $-1 $76 2 #
vertex $-1 -1 $-1 $76 $153 #
ellipse-curve $-1 -1 $-1 150 100.00000000000007 -5.0000000000000062 0 0 -1 -3.0000000000000009 0 0 1 I I #
loop $-1 -1 $-1 $154 $106 $112 #
face $155 -1 $-1 $-1 $77 $8 $-1 $156 reversed single #
convexity-sys-attrib $-1 -1 $-1 $78 $54 #
point $-1 -1 $-1 153 100.00000000000009 9.9999999999999964 #
coedge $-1 -1 $-1 $115 $115 $84 $116 forward $81 $-1 #
edge $-1 -1 $-1 $157 0 $157 6.2831853071795862 $115 $158 forward @7 unknown #
vertex $-1 -1 $-1 $85 $159 #
ellipse-curve $-1 -1 $-1 0 0 -7.5000000000000018 0 0 -1 3.0000000000000009 0 0 1 I I #
coedge $-1 -1 $-1 $119 $119 $89 $120 forward $86 $-1 #
edge $-1 -1 $-1 $160 0 $160 6.2831853071795862 $119 $161 forward @7 unknown #
vertex $-1 -1 $-1 $90 $162 #
ellipse-curve $-1 -1 $-1 0 0 -7.5000000000000018 0 0 -1 3.0000000000000009 0 0 1 I I #
model_id-kcp-attrib $-1 -1 $-1 $-1 $92 1 1021323976 1021323976 -1376583678 4 #
face $163 -1 $-1 $164 $165 $23 $-1 $166 reversed single #
loop $-1 -1 $-1 $-1 $167 $92 #
plane-surface $-1 -1 $-1 -149.99999999999997 0 0 1 0 0 0 0 -1 forward_v I I I I #
coedge $-1 -1 $-1 $168 $135 $169 $170 forward $93 $-1 #
coedge $-1 -1 $-1 $171 $95 $168 $172 forward $67 $-1 #
coedge $-1 -1 $-1 $95 $171 $173 $174 forward $67 $-1 #
coedge $-1 -1 $-1 $138 $137 $95 $131 reversed $139 $-1 #
edge $-1 -1 $-1 $175 -60 $176 60 $130 $177 forward @7 unknown #
coedge $-1 -1 $-1 $97 $96 $178 $179 forward $45 $-1 #
coedge $-1 -1 $-1 $180 $181 $96 $134 reversed $165 $-1 #
edge $-1 -1 $-1 $141 -149.99999999999997 $182 149.99999999999997 $133 $183 forward @7 unknown #
coedge $-1 -1 $-1 $127 $184 $97 $136 reversed $93 $-1 #
edge $-1 -1 $-1 $185 -149.99999999999997 $140 149.99999999999997 $135 $186 forward @7 unknown #
coedge $-1 -1 $-1 $130 $98 $184 $187 forward $139 $-1 #
coedge $-1 -1 $-1 $98 $130 $180 $188 reversed $139 $-1 #
loop $-1 -1 $-1 $-1 $137 $164 #
vertex $-1 -1 $-1 $99 $189 #
vertex $-1 -1 $-1 $99 $190 #
straight-curve $-1 -1 $-1 149.99999999999997 0 9.9999999999999982 0 1 0 I I #
model_id-kcp-attrib $-1 -1 $-1 $-1 $101 1 1021323976 1021323976 -1376583679 7 #
face $191 -1 $-1 $192 $193 $8 $-1 $194 reversed single #
loop $-1 -1 $-1 $-1 $195 $101 #
plane-surface $-1 -1 $-1 150.00000000000003 3.5527136788005009e-014 -1.7763568394002505e-015 0 1 0 0 0 0.99999999999999989 forward_v I I I I #
coedge $-1 -1 $-1 $196 $197 $198 $199 forward $102 $-1 #
edge $200 -1 $-1 $201 0 $201 6.2831853071795862 $104 $202 forward @7 unknown #
attrib_edge_convexity-kcp-attrib $-1 -1 $203 $-1 $107 1 #
vertex $-1 -1 $-1 $107 $204 #
ellipse-curve $-1 -1 $-1 150.00000000000006 20.000000000000014 9.9999999999999964 0 0 -1 -3.0000000000000009 0 0 1 I I #
convexity-sys-attrib $-1 -1 $-1 $108 $76 #
point $-1 -1 $-1 147 100.00000000000007 -5.0000000000000062 #
loop $-1 -1 $-1 $-1 $205 $112 #
model_id-kcp-attrib $-1 -1 $-1 $-1 $112 1 1021323976 1021323976 -1376583679 11 #
plane-surface $-1 -1 $-1 150.00000000000003 60.000000000000036 9.9999999999999964 0 0 -1 0 0.99999999999999989 0 forward_v I I I I #
vertex $-1 -1 $-1 $116 $206 #
ellipse-curve $-1 -1 $-1 0 0 7.5000000000000018 0 0 1 3.0000000000000009 0 0 1 I I #
point $-1 -1 $-1 3.0000000000000009 0 -7.5000000000000018 #
vertex $-1 -1 $-1 $120 $207 #
ellipse-curve $-1 -1 $-1 0 0 7.5000000000000018 0 0 1 3.0000000000000009 0 0 1 I I #
point $-1 -1 $-1 3.0000000000000009 0 -7.5000000000000018 #
model_id-kcp-attrib $-1 -1 $-1 $-1 $124 1 1021323976 1021323976 -1376583678 2 #
face $208 -1 $-1 $-1 $139 $23 $-1 $209 reversed single #
loop $-1 -1 $-1 $-1 $180 $124 #
plane-surface $-1 -1 $-1 0 60 0 0 -1 0 0 0 -1 forward_v I I I I #
coedge $-1 -1 $-1 $210 $178 $181 $211 forward $125 $-1 #
coedge $-1 -1 $-1 $184 $127 $128 $172 reversed $93 $-1 #
coedge $-1 -1 $-1 $178 $210 $127 $170 reversed $125 $-1 #
edge $-1 -1 $-1 $185 -9.9999999999999982 $212 9.9999999999999982 $169 $213 forward @7 unknown #
coedge $-1 -1 $-1 $129 $128 $210 $214 forward $67 $-1 #
edge $-1 -1 $-1 $176 -149.99999999999997 $212 149.99999999999997 $168 $215 forward @7 unknown #
coedge $-1 -1 $-1 $181 $180 $129 $174 reversed $165 $-1 #
edge $-1 -1 $-1 $216 -149.99999999999997 $175 149.99999999999997 $173 $217 forward @7 unknown #
vertex $-1 -1 $-1 $131 $218 #
vertex $-1 -1 $-1 $187 $219 #
straight-curve $-1 -1 $-1 149.99999999999997 0 -9.9999999999999982 0 -1 0 I I #
coedge $-1 -1 $-1 $167 $169 $132 $179 reversed $125 $-1 #
edge $-1 -1 $-1 $182 -60 $185 60 $178 $220 forward @7 unknown #
coedge $-1 -1 $-1 $173 $133 $138 $188 forward $165 $-1 #
coedge $-1 -1 $-1 $133 $173 $167 $211 reversed $165 $-1 #
vertex $-1 -1 $-1 $134 $221 #
straight-curve $-1 -1 $-1 0 60 9.9999999999999982 -1 0 0 I I #
coedge $-1 -1 $-1 $135 $168 $137 $187 reversed $93 $-1 #
vertex $-1 -1 $-1 $179 $222 #
straight-curve $-1 -1 $-1 0 -60 9.9999999999999982 1 0 0 I I #
edge $-1 -1 $-1 $140 -9.9999999999999982 $176 9.9999999999999982 $137 $223 forward @7 unknown #
edge $-1 -1 $-1 $141 -9.9999999999999982 $175 9.9999999999999982 $138 $224 forward @7 unknown #
point $-1 -1 $-1 149.99999999999997 -60 9.9999999999999982 #
point $-1 -1 $-1 149.99999999999997 60 9.9999999999999982 #
model_id-kcp-attrib $-1 -1 $-1 $-1 $144 1 1021323976 1021323976 -1376583679 8 #
face $225 -1 $-1 $226 $227 $8 $-1 $228 reversed single #
loop $-1 -1 $-1 $-1 $229 $144 #
plane-surface $-1 -1 $-1 5.6843418860808015e-014 60.000000000000036 -1.7763568394002505e-015 1 0 0 0 0.99999999999999989 0 forward_v I I I I #
coedge $-1 -1 $-1 $230 $231 $232 $233 forward $145 $-1 #
coedge $-1 -1 $-1 $234 $147 $235 $236 forward $102 $-1 #
coedge $-1 -1 $-1 $147 $234 $237 $238 forward $102 $-1 #
coedge $-1 -1 $-1 $205 $239 $147 $199 reversed $154 $-1 #
edge $240 -1 $-1 $241 -150 $242 150 $198 $243 forward @7 unknown #
attrib_edge_convexity-kcp-attrib $-1 -1 $244 $-1 $148 2 #
vertex $-1 -1 $-1 $148 $245 #
ellipse-curve $-1 -1 $-1 150.00000000000006 20.000000000000014 -5.0000000000000062 0 0 -1 -3.0000000000000009 0 0 1 I I #
convexity-sys-attrib $-1 -1 $-1 $149 $107 #
point $-1 -1 $-1 153.00000000000006 20.000000000000036 9.9999999999999964 #
coedge $-1 -1 $-1 $232 $198 $246 $247 forward $154 $-1 #
point $-1 -1 $-1 3.0000000000000009 0 7.5000000000000018 #
point $-1 -1 $-1 3.0000000000000009 0 7.5000000000000018 #
model_id-kcp-attrib $-1 -1 $-1 $-1 $164 1 1021323976 1021323976 -1376583678 6 #
plane-surface $-1 -1 $-1 149.99999999999997 0 0 -1 0 0 0 0 1 forward_v I I I I #
coedge $-1 -1 $-1 $169 $167 $171 $214 reversed $125 $-1 #
edge $-1 -1 $-1 $182 -9.9999999999999982 $216 9.9999999999999982 $181 $248 forward @7 unknown #
vertex $-1 -1 $-1 $214 $249 #
straight-curve $-1 -1 $-1 -149.99999999999997 -60 0 0 0 -1 I I #
edge $-1 -1 $-1 $212 -60 $216 60 $210 $250 forward @7 unknown #
straight-curve $-1 -1 $-1 0 -60 -9.9999999999999982 -1 0 0 I I #
vertex $-1 -1 $-1 $174 $251 #
straight-curve $-1 -1 $-1 0 60 -9.9999999999999982 1 0 0 I I #
point $-1 -1 $-1 149.99999999999997 60 -9.9999999999999982 #
point $-1 -1 $-1 149.99999999999997 -60 -9.9999999999999982 #
straight-curve $-1 -1 $-1 -149.99999999999997 0 9.9999999999999982 0 -1 0 I I #
point $-1 -1 $-1 -149.99999999999997 60 9.9999999999999982 #
point $-1 -1 $-1 -149.99999999999997 -60 9.9999999999999982 #
straight-curve $-1 -1 $-1 149.99999999999997 -60 0 0 0 -1 I I #
straight-curve $-1 -1 $-1 149.99999999999997 60 0 0 0 -1 I I #
model_id-kcp-attrib $-1 -1 $-1 $-1 $192 1 1021323976 1021323976 -1376583679 9 #
face $252 -1 $-1 $112 $253 $8 $-1 $254 reversed single #
loop $-1 -1 $-1 $-1 $255 $192 #
plane-surface $-1 -1 $-1 150.00000000000003 60.000000000000036 -10 0 0 1 0 -0.99999999999999989 0 forward_v I I I I #
coedge $-1 -1 $-1 $256 $237 $257 $258 forward $193 $-1 #
coedge $-1 -1 $-1 $259 $195 $256 $260 forward $145 $-1 #
coedge $-1 -1 $-1 $195 $259 $261 $262 forward $145 $-1 #
coedge $-1 -1 $-1 $239 $205 $195 $233 reversed $154 $-1 #
edge $-1 -1 $-1 $263 -150 $264 150 $232 $265 forward @7 unknown #
coedge $-1 -1 $-1 $197 $196 $266 $267 forward $102 $-1 #
coedge $-1 -1 $-1 $268 $269 $196 $236 reversed $253 $-1 #
edge $270 -1 $-1 $242 -10 $271 10 $235 $272 forward @7 unknown #
coedge $-1 -1 $-1 $229 $246 $197 $238 reversed $193 $-1 #
edge $273 -1 $-1 $274 -10 $241 10 $237 $275 forward @7 unknown #
coedge $-1 -1 $-1 $198 $232 $268 $276 reversed $154 $-1 #
attrib_edge_convexity-kcp-attrib $-1 -1 $277 $-1 $199 1 #
vertex $-1 -1 $-1 $199 $278 #
vertex $-1 -1 $-1 $199 $279 #
straight-curve $-1 -1 $-1 150.00000000000003 120.00000000000003 9.9999999999999964 0.99999999999999989 0 0 I I #
convexity-sys-attrib $-1 -1 $-1 $200 $148 #
point $-1 -1 $-1 147.00000000000006 20.000000000000014 -5.0000000000000062 #
coedge $-1 -1 $-1 $237 $256 $205 $247 reversed $193 $-1 #
edge $280 -1 $-1 $241 -60 $264 60.000000000000007 $205 $281 forward @7 unknown #
straight-curve $-1 -1 $-1 -149.99999999999997 60 0 0 0 -1 I I #
point $-1 -1 $-1 -149.99999999999997 -60 -9.9999999999999982 #
straight-curve $-1 -1 $-1 -149.99999999999997 0 -9.9999999999999982 0 1 0 I I #
point $-1 -1 $-1 -149.99999999999997 60 -9.9999999999999982 #
model_id-kcp-attrib $-1 -1 $-1 $-1 $226 1 1021323976 1021323976 -1376583679 10 #
loop $-1 -1 $-1 $-1 $268 $226 #
plane-surface $-1 -1 $-1 300 60.000000000000036 -1.7763568394002505e-015 -1 0 0 0 -0.99999999999999989 0 forward_v I I I I #
coedge $-1 -1 $-1 $282 $266 $269 $283 forward $227 $-1 #
coedge $-1 -1 $-1 $246 $229 $230 $260 reversed $193 $-1 #
coedge $-1 -1 $-1 $266 $282 $229 $258 reversed $227 $-1 #
edge $284 -1 $-1 $274 -60 $285 60.000000000000007 $257 $286 forward @7 unknown #
coedge $-1 -1 $-1 $231 $230 $282 $287 forward $145 $-1 #
edge $288 -1 $-1 $264 -10 $285 10 $256 $289 forward @7 unknown #
coedge $-1 -1 $-1 $269 $268 $231 $262 reversed $253 $-1 #
edge $-1 -1 $-1 $290 -10 $263 10 $261 $291 forward @7 unknown #
vertex $-1 -1 $-1 $233 $292 #
vertex $-1 -1 $-1 $247 $293 #
straight-curve $-1 -1 $-1 150.00000000000003 3.5527136788005009e-014 9.9999999999999964 -0.99999999999999989 0 0 I I #
coedge $-1 -1 $-1 $255 $257 $234 $267 reversed $227 $-1 #
edge $294 -1 $-1 $271 -150 $274 150 $266 $295 forward @7 unknown #
coedge $-1 -1 $-1 $261 $235 $239 $276 forward $253 $-1 #
coedge $-1 -1 $-1 $235 $261 $255 $283 reversed $253 $-1 #
attrib_edge_convexity-kcp-attrib $-1 -1 $296 $-1 $236 1 #
vertex $-1 -1 $-1 $236 $297 #
straight-curve $-1 -1 $-1 300 120.00000000000003 -1.7763568394002505e-015 0 0 -0.99999999999999989 I I #
attrib_edge_convexity-kcp-attrib $-1 -1 $298 $-1 $238 1 #
vertex $-1 -1 $-1 $267 $299 #
straight-curve $-1 -1 $-1 5.6843418860808015e-014 120.00000000000003 -1.7763568394002505e-015 0 0 0.99999999999999989 I I #
edge $-1 -1 $-1 $242 -60 $263 60.000000000000007 $239 $300 forward @7 unknown #
convexity-sys-attrib $-1 -1 $-1 $240 $199 #
point $-1 -1 $-1 5.6843418860808015e-014 120.00000000000003 9.9999999999999964 #
point $-1 -1 $-1 300 120.00000000000003 9.9999999999999964 #
attrib_edge_convexity-kcp-attrib $-1 -1 $301 $-1 $247 1 #
straight-curve $-1 -1 $-1 5.6843418860808015e-014 60.000000000000036 9.9999999999999964 0 -0.99999999999999989 0 I I #
coedge $-1 -1 $-1 $257 $255 $259 $287 reversed $227 $-1 #
edge $302 -1 $-1 $271 -60 $290 60.000000000000007 $269 $303 forward @7 unknown #
attrib_edge_convexity-kcp-attrib $-1 -1 $304 $-1 $258 1 #
vertex $-1 -1 $-1 $287 $305 #
straight-curve $-1 -1 $-1 5.6843418860808015e-014 60.000000000000036 -10 0 -0.99999999999999989 0 I I #
edge $306 -1 $-1 $285 -150 $290 150 $282 $307 forward @7 unknown #
attrib_edge_convexity-kcp-attrib $-1 -1 $308 $-1 $260 1 #
straight-curve $-1 -1 $-1 5.6843418860808015e-014 3.5527136788005009e-014 -1.7763568394002505e-015 0 0 -0.99999999999999989 I I #
vertex $-1 -1 $-1 $262 $309 #
straight-curve $-1 -1 $-1 300 3.5527136788005009e-014 -1.7763568394002505e-015 0 0 0.99999999999999989 I I #
point $-1 -1 $-1 300 3.5527136788005009e-014 9.9999999999999964 #
point $-1 -1 $-1 5.6843418860808015e-014 3.5527136788005009e-014 9.9999999999999964 #
attrib_edge_convexity-kcp-attrib $-1 -1 $310 $-1 $267 1 #
straight-curve $-1 -1 $-1 150.00000000000003 120.00000000000003 -10 -0.99999999999999989 0 0 I I #
convexity-sys-attrib $-1 -1 $-1 $270 $236 #
point $-1 -1 $-1 300 120.00000000000003 -10 #
convexity-sys-attrib $-1 -1 $-1 $273 $238 #
point $-1 -1 $-1 5.6843418860808015e-014 120.00000000000003 -10 #
straight-curve $-1 -1 $-1 300 60.000000000000036 9.9999999999999964 0 -0.99999999999999989 0 I I #
convexity-sys-attrib $-1 -1 $-1 $280 $247 #
attrib_edge_convexity-kcp-attrib $-1 -1 $311 $-1 $283 1 #
straight-curve $-1 -1 $-1 300 60.000000000000036 -10 0 -0.99999999999999989 0 I I #
convexity-sys-attrib $-1 -1 $-1 $284 $258 #
point $-1 -1 $-1 5.6843418860808015e-014 3.5527136788005009e-014 -10 #
attrib_edge_convexity-kcp-attrib $-1 -1 $312 $-1 $287 1 #
straight-curve $-1 -1 $-1 150.00000000000003 3.5527136788005009e-014 -10 0.99999999999999989 0 0 I I #
convexity-sys-attrib $-1 -1 $-1 $288 $260 #
point $-1 -1 $-1 300 3.5527136788005009e-014 -10 #
convexity-sys-attrib $-1 -1 $-1 $294 $267 #
convexity-sys-attrib $-1 -1 $-1 $302 $283 #
convexity-sys-attrib $-1 -1 $-1 $306 $287 #
End-of-ACIS-data 