106 0 1 0           
body $-1 $1 $-1 $2 #
lump $-1 $-1 $3 $0 #
transform $-1 0 0 1 1 0 0 0 1 0 150.00000000000003 60.000000000000036 -1.7763568394002505e-015 0.99999999999999989 1 0 0 #
shell $-1 $-1 $-1 $4 $1 #
face $-1 $5 $6 $3 $-1 $7 reversed single #
face $-1 $8 $9 $3 $-1 $10 reversed single #
loop $-1 $11 $12 $4 #
cone-surface $-1 2.4999999999999978 -2.8421709430404007e-014 40.000000000000043 -1 0 0 0 -3.0000000000000013 0 1 I I 0 1 0 I I I I #
face $-1 $13 $14 $3 $-1 $15 reversed single #
loop $-1 $-1 $16 $5 #
plane-surface $-1 -5.0000000000000053 -2.8421709430404007e-014 40.000000000000043 -1 0 0 0 -1.0000000000000002 0 0 I I I I #
loop $-1 $-1 $17 $4 #
coedge $-1 $12 $12 $18 $19 1 $6 $-1 #
face $-1 $20 $21 $3 $-1 $22 reversed single #
loop $-1 $23 $24 $8 #
cone-surface $-1 2.4999999999999978 2.8421709430404007e-014 -40.000000000000028 -1 0 0 0 -3.0000000000000013 0 1 I I 0 1 0 I I I I #
coedge $-1 $16 $16 $17 $25 1 $9 $-1 #
coedge $-1 $17 $17 $16 $25 0 $11 $-1 #
coedge $-1 $18 $18 $12 $19 0 $26 $-1 #
edge $-1 $27 $27 $18 $28 0 #
face $-1 $29 $30 $3 $-1 $31 forward single #
loop $-1 $-1 $32 $13 #
plane-surface $-1 -5.0000000000000053 2.8421709430404007e-014 -40.000000000000028 -1 0 0 0 -1.0000000000000002 0 0 I I I I #
loop $-1 $-1 $33 $8 #
coedge $-1 $24 $24 $34 $35 1 $14 $-1 #
edge $-1 $36 $36 $16 $37 0 #
loop $-1 $38 $18 $39 #
vertex $-1 $19 $40 #
ellipse-curve $-1 10 -2.8421709430404007e-014 40.000000000000043 -1 0 0 0 -3.0000000000000013 0 1 I I #
face $-1 $41 $42 $3 $-1 $43 reversed single #
loop $-1 $-1 $44 $20 #
plane-surface $-1 0 0 60.000000000000007 0 0 1 1 0 0 0 I I I I #
coedge $-1 $32 $32 $33 $45 1 $21 $-1 #
coedge $-1 $33 $33 $32 $45 0 $23 $-1 #
coedge $-1 $34 $34 $24 $35 0 $38 $-1 #
edge $-1 $46 $46 $34 $47 0 #
vertex $-1 $25 $48 #
ellipse-curve $-1 -5.0000000000000053 -2.8421709430404007e-014 40.000000000000043 -1 0 0 0 -3.0000000000000013 0 1 I I #
loop $-1 $49 $34 $39 #
face $-1 $-1 $26 $3 $-1 $50 reversed single #
point $-1 10 2.9999999999999729 40.000000000000064 #
face $-1 $51 $52 $3 $-1 $53 reversed single #
loop $-1 $-1 $54 $29 #
plane-surface $-1 0 0 -60.000000000000007 0 0 1 1 0 0 0 I I I I #
coedge $-1 $55 $56 $57 $58 0 $30 $-1 #
edge $-1 $59 $59 $32 $60 0 #
vertex $-1 $35 $61 #
ellipse-curve $-1 10 2.8421709430404007e-014 -40.000000000000028 -1 0 0 0 -3.0000000000000013 0 1 I I #
point $-1 -5.0000000000000053 -3.0000000000000298 40.000000000000043 #
loop $-1 $-1 $62 $39 #
plane-surface $-1 10 0 0 -1 0 0 0 0 1 0 I I I I #
face $-1 $63 $64 $3 $-1 $65 reversed single #
loop $-1 $-1 $66 $41 #
plane-surface $-1 0 -150 0 0 1 0 0 0 1 0 I I I I #
coedge $-1 $67 $68 $69 $70 0 $42 $-1 #
coedge $-1 $71 $44 $72 $73 0 $30 $-1 #
coedge $-1 $44 $71 $74 $75 0 $30 $-1 #
coedge $-1 $62 $76 $44 $58 1 $49 $-1 #
edge $-1 $77 $78 $57 $79 0 #
vertex $-1 $45 $80 #
ellipse-curve $-1 -5.0000000000000053 2.8421709430404007e-014 -40.000000000000028 -1 0 0 0 -3.0000000000000013 0 1 I I #
point $-1 10 3.0000000000000298 -40.000000000000007 #
coedge $-1 $69 $57 $81 $82 0 $49 $-1 #
face $-1 $39 $83 $3 $-1 $84 reversed single #
loop $-1 $-1 $85 $51 #
plane-surface $-1 -10 0 0 1 0 0 0 0 -1 0 I I I I #
coedge $-1 $86 $74 $87 $88 0 $52 $-1 #
coedge $-1 $89 $54 $86 $90 0 $42 $-1 #
coedge $-1 $54 $89 $91 $92 0 $42 $-1 #
coedge $-1 $76 $62 $54 $70 1 $49 $-1 #
edge $-1 $93 $94 $69 $95 0 #
coedge $-1 $56 $55 $96 $97 0 $30 $-1 #
coedge $-1 $98 $99 $55 $73 1 $83 $-1 #
edge $-1 $78 $100 $72 $101 0 #
coedge $-1 $66 $81 $56 $75 1 $52 $-1 #
edge $-1 $102 $77 $74 $103 0 #
coedge $-1 $57 $69 $98 $104 1 $49 $-1 #
vertex $-1 $58 $105 #
vertex $-1 $58 $106 #
straight-curve $-1 10 0 60.000000000000007 0 1 0 I I #
point $-1 -5.0000000000000053 -2.9999999999999729 -40.000000000000028 #
coedge $-1 $74 $86 $62 $82 1 $52 $-1 #
edge $-1 $77 $94 $62 $107 0 #
loop $-1 $-1 $98 $63 #
plane-surface $-1 0 150 0 0 -1 0 0 0 -1 0 I I I I #
coedge $-1 $108 $96 $99 $109 0 $64 $-1 #
coedge $-1 $81 $66 $67 $90 1 $52 $-1 #
coedge $-1 $96 $108 $66 $88 1 $64 $-1 #
edge $-1 $102 $110 $87 $111 0 #
coedge $-1 $68 $67 $108 $112 0 $42 $-1 #
edge $-1 $94 $110 $86 $113 0 #
coedge $-1 $99 $98 $68 $92 1 $83 $-1 #
edge $-1 $114 $93 $91 $115 0 #
vertex $-1 $70 $116 #
vertex $-1 $82 $117 #
straight-curve $-1 10 0 -60.000000000000007 0 -1 0 I I #
coedge $-1 $85 $87 $71 $97 1 $64 $-1 #
edge $-1 $100 $102 $96 $118 0 #
coedge $-1 $91 $72 $76 $104 0 $83 $-1 #
coedge $-1 $72 $91 $85 $109 1 $83 $-1 #
vertex $-1 $73 $119 #
straight-curve $-1 0 150 60.000000000000007 -1 0 0 I I #
vertex $-1 $97 $120 #
straight-curve $-1 0 -150 60.000000000000007 1 0 0 I I #
edge $-1 $78 $93 $76 $121 0 #
point $-1 10 -150 60.000000000000007 #
point $-1 10 150 60.000000000000007 #
straight-curve $-1 10 -150 0 0 0 -1 I I #
coedge $-1 $87 $85 $89 $112 1 $64 $-1 #
edge $-1 $100 $114 $99 $122 0 #
vertex $-1 $112 $123 #
straight-curve $-1 -10 -150 0 0 0 -1 I I #
edge $-1 $110 $114 $108 $124 0 #
straight-curve $-1 0 -150 -60.000000000000007 -1 0 0 I I #
vertex $-1 $92 $125 #
straight-curve $-1 0 150 -60.000000000000007 1 0 0 I I #
point $-1 10 150 -60.000000000000007 #
point $-1 10 -150 -60.000000000000007 #
straight-curve $-1 -10 0 60.000000000000007 0 -1 0 I I #
point $-1 -10 150 60.000000000000007 #
point $-1 -10 -150 60.000000000000007 #
straight-curve $-1 10 150 0 0 0 -1 I I #
straight-curve $-1 -10 150 0 0 0 -1 I I #
point $-1 -10 -150 -60.000000000000007 #
straight-curve $-1 -10 0 -60.000000000000007 0 1 0 I I #
point $-1 -10 150 -60.000000000000007 #
End-of-ACIS-data 