600 0 1 0           
76 GICL ACIS Healer - Source: /gicl/data5/repository/CMU/scanner/base.sat - 6 0 18 ACIS 6.0.3 Solaris 24 Sat Apr 13 00:31:02 2002 
1 9.999999999999999547e-07 1.000000000000000036e-10 
body $-1 $1 $-1 $-1 #
lump $-1 $-1 $2 $0 #
shell $-1 $-1 $-1 $3 $-1 $1 #
face $-1 $4 $5 $2 $-1 $6 reversed single #
face $-1 $7 $8 $2 $-1 $9 reversed single #
loop $-1 $10 $11 $3 #
cone-surface $-1 150 100.0000000000000711 2.499999999999995559 0 0 -1 -3.000000000000000888 0 0 1 I I 0 1 3.000000000000000888 forward I I I I #
face $-1 $12 $13 $2 $-1 $14 reversed single #
loop $-1 $-1 $15 $4 #
plane-surface $-1 150 100.0000000000000711 -5.000000000000006217 0 0 -1 -1 0 0 forward_v I I I I #
loop $-1 $-1 $16 $3 #
coedge $-1 $11 $11 $17 $18 reversed $5 $-1 #
face $-1 $19 $20 $2 $-1 $21 reversed single #
loop $-1 $22 $23 $7 #
cone-surface $-1 150.0000000000000568 20.00000000000001421 2.499999999999995559 0 0 -1 -3.000000000000000888 0 0 1 I I 0 1 3.000000000000000888 forward I I I I #
coedge $-1 $15 $15 $16 $24 reversed $8 $-1 #
coedge $-1 $16 $16 $15 $24 forward $10 $-1 #
coedge $-1 $17 $17 $11 $18 forward $25 $-1 #
edge $-1 $26 -3.141592653589797557 $26 3.141592653589788675 $17 $27 forward 7 unknown #
face $-1 $28 $29 $2 $-1 $30 forward single #
loop $-1 $-1 $31 $12 #
plane-surface $-1 150.0000000000000568 20.00000000000001421 -5.000000000000006217 0 0 -1 -1 0 0 forward_v I I I I #
loop $-1 $-1 $32 $7 #
coedge $-1 $23 $23 $33 $34 reversed $13 $-1 #
edge $-1 $35 0 $35 6.283185307179586232 $15 $36 forward 7 unknown #
loop $-1 $37 $17 $38 #
vertex $-1 $18 $39 #
ellipse-curve $-1 150 100.0000000000000711 9.999999999999996447 0 0 -1 -3.000000000000000888 0 0 1 I I #
face $-1 $40 $41 $2 $-1 $42 reversed single #
loop $-1 $-1 $43 $19 #
plane-surface $-1 150.0000000000000284 120.0000000000000284 -1.776356839400250465e-15 0 1 0 0 0 0.999999999999999889 forward_v I I I I #
coedge $-1 $31 $31 $32 $44 reversed $20 $-1 #
coedge $-1 $32 $32 $31 $44 forward $22 $-1 #
coedge $-1 $33 $33 $23 $34 forward $37 $-1 #
edge $-1 $45 -3.141592653589800221 $45 3.141592653589786011 $33 $46 forward 7 unknown #
vertex $-1 $24 $47 #
ellipse-curve $-1 150 100.0000000000000711 -5.000000000000006217 0 0 -1 -3.000000000000000888 0 0 1 I I #
loop $-1 $48 $33 $38 #
face $-1 $-1 $25 $2 $-1 $49 reversed single #
point $-1 153 100.0000000000000853 9.999999999999996447 #
face $-1 $50 $51 $2 $-1 $52 reversed single #
loop $-1 $-1 $53 $28 #
plane-surface $-1 150.0000000000000284 3.552713678800500929e-14 -1.776356839400250465e-15 0 1 0 0 0 0.999999999999999889 forward_v I I I I #
coedge $-1 $54 $55 $56 $57 forward $29 $-1 #
edge $-1 $58 0 $58 6.283185307179586232 $31 $59 forward 7 unknown #
vertex $-1 $34 $60 #
ellipse-curve $-1 150.0000000000000568 20.00000000000001421 9.999999999999996447 0 0 -1 -3.000000000000000888 0 0 1 I I #
point $-1 147 100.0000000000000711 -5.000000000000006217 #
loop $-1 $-1 $61 $38 #
plane-surface $-1 150.0000000000000284 60.00000000000003553 9.999999999999996447 0 0 -1 0 0.999999999999999889 0 forward_v I I I I #
face $-1 $62 $63 $2 $-1 $64 reversed single #
loop $-1 $-1 $65 $40 #
plane-surface $-1 5.684341886080801487e-14 60.00000000000003553 -1.776356839400250465e-15 1 0 0 0 0.999999999999999889 0 forward_v I I I I #
coedge $-1 $66 $67 $68 $69 forward $41 $-1 #
coedge $-1 $70 $43 $71 $72 forward $29 $-1 #
coedge $-1 $43 $70 $73 $74 forward $29 $-1 #
coedge $-1 $61 $75 $43 $57 reversed $48 $-1 #
edge $-1 $76 -150 $77 150 $56 $78 forward 7 unknown #
vertex $-1 $44 $79 #
ellipse-curve $-1 150.0000000000000568 20.00000000000001421 -5.000000000000006217 0 0 -1 -3.000000000000000888 0 0 1 I I #
point $-1 153.0000000000000568 20.00000000000003553 9.999999999999996447 #
coedge $-1 $68 $56 $80 $81 forward $48 $-1 #
face $-1 $38 $82 $2 $-1 $83 reversed single #
loop $-1 $-1 $84 $50 #
plane-surface $-1 150.0000000000000284 60.00000000000003553 -10 0 0 1 0 -0.999999999999999889 0 forward_v I I I I #
coedge $-1 $85 $73 $86 $87 forward $51 $-1 #
coedge $-1 $88 $53 $85 $89 forward $41 $-1 #
coedge $-1 $53 $88 $90 $91 forward $41 $-1 #
coedge $-1 $75 $61 $53 $69 reversed $48 $-1 #
edge $-1 $92 -150 $93 150 $68 $94 forward 7 unknown #
coedge $-1 $55 $54 $95 $96 forward $29 $-1 #
coedge $-1 $97 $98 $54 $72 reversed $82 $-1 #
edge $-1 $77 -10 $99 10 $71 $100 forward 7 unknown #
coedge $-1 $65 $80 $55 $74 reversed $51 $-1 #
edge $-1 $101 -10 $76 10 $73 $102 forward 7 unknown #
coedge $-1 $56 $68 $97 $103 reversed $48 $-1 #
vertex $-1 $57 $104 #
vertex $-1 $57 $105 #
straight-curve $-1 150.0000000000000284 120.0000000000000284 9.999999999999996447 0.999999999999999889 0 0 I I #
point $-1 147.0000000000000568 20.00000000000001421 -5.000000000000006217 #
coedge $-1 $73 $85 $61 $81 reversed $51 $-1 #
edge $-1 $76 -60 $93 60.00000000000000711 $61 $106 forward 7 unknown #
loop $-1 $-1 $97 $62 #
plane-surface $-1 300 60.00000000000003553 -1.776356839400250465e-15 -1 0 0 0 -0.999999999999999889 0 forward_v I I I I #
coedge $-1 $107 $95 $98 $108 forward $63 $-1 #
coedge $-1 $80 $65 $66 $89 reversed $51 $-1 #
coedge $-1 $95 $107 $65 $87 reversed $63 $-1 #
edge $-1 $101 -60 $109 60.00000000000000711 $86 $110 forward 7 unknown #
coedge $-1 $67 $66 $107 $111 forward $41 $-1 #
edge $-1 $93 -10 $109 10 $85 $112 forward 7 unknown #
coedge $-1 $98 $97 $67 $91 reversed $82 $-1 #
edge $-1 $113 -10 $92 10 $90 $114 forward 7 unknown #
vertex $-1 $69 $115 #
vertex $-1 $81 $116 #
straight-curve $-1 150.0000000000000284 3.552713678800500929e-14 9.999999999999996447 -0.999999999999999889 0 0 I I #
coedge $-1 $84 $86 $70 $96 reversed $63 $-1 #
edge $-1 $99 -150 $101 150 $95 $117 forward 7 unknown #
coedge $-1 $90 $71 $75 $103 forward $82 $-1 #
coedge $-1 $71 $90 $84 $108 reversed $82 $-1 #
vertex $-1 $72 $118 #
straight-curve $-1 300 120.0000000000000284 -1.776356839400250465e-15 0 0 -0.999999999999999889 I I #
vertex $-1 $96 $119 #
straight-curve $-1 5.684341886080801487e-14 120.0000000000000284 -1.776356839400250465e-15 0 0 0.999999999999999889 I I #
edge $-1 $77 -60 $92 60.00000000000000711 $75 $120 forward 7 unknown #
point $-1 5.684341886080801487e-14 120.0000000000000284 9.999999999999996447 #
point $-1 300 120.0000000000000284 9.999999999999996447 #
straight-curve $-1 5.684341886080801487e-14 60.00000000000003553 9.999999999999996447 0 -0.999999999999999889 0 I I #
coedge $-1 $86 $84 $88 $111 reversed $63 $-1 #
edge $-1 $99 -60 $113 60.00000000000000711 $98 $121 forward 7 unknown #
vertex $-1 $111 $122 #
straight-curve $-1 5.684341886080801487e-14 60.00000000000003553 -10 0 -0.999999999999999889 0 I I #
edge $-1 $109 -150 $113 150 $107 $123 forward 7 unknown #
straight-curve $-1 5.684341886080801487e-14 3.552713678800500929e-14 -1.776356839400250465e-15 0 0 -0.999999999999999889 I I #
vertex $-1 $91 $124 #
straight-curve $-1 300 3.552713678800500929e-14 -1.776356839400250465e-15 0 0 0.999999999999999889 I I #
point $-1 300 3.552713678800500929e-14 9.999999999999996447 #
point $-1 5.684341886080801487e-14 3.552713678800500929e-14 9.999999999999996447 #
straight-curve $-1 150.0000000000000284 120.0000000000000284 -10 -0.999999999999999889 0 0 I I #
point $-1 300 120.0000000000000284 -10 #
point $-1 5.684341886080801487e-14 120.0000000000000284 -10 #
straight-curve $-1 300 60.00000000000003553 9.999999999999996447 0 -0.999999999999999889 0 I I #
straight-curve $-1 300 60.00000000000003553 -10 0 -0.999999999999999889 0 I I #
point $-1 5.684341886080801487e-14 3.552713678800500929e-14 -10 #
straight-curve $-1 150.0000000000000284 3.552713678800500929e-14 -10 0.999999999999999889 0 0 I I #
point $-1 300 3.552713678800500929e-14 -10 #
End-of-ACIS-data 