700 0 2 0           
24 FBMach with ACIS - 7.0.3 13 ACIS 7.0.3 NT 24 Mon May 13 17:06:18 2002 
1 9.9999999999999995e-007 1e-010 
body $2 -1 $-1 $3 $-1 $4 #
bdycol-kcp $-1 -1 1 4 $5 $6 $7 $8 #
model_id-kcp-attrib $-1 -1 $-1 $-1 $0 1 1021323977 1021323977 -1781465087 1 #
lump $-1 -1 $-1 $-1 $9 $0 #
transform $-1 -1 1 0 0 0 1 0 0 0 1 0 0 0 1 rotate no_reflect no_shear #
body $10 -1 $-1 $11 $-1 $12 #
body $13 -1 $-1 $14 $-1 $15 #
body $16 -1 $-1 $17 $-1 $18 #
body $19 -1 $-1 $20 $-1 $21 #
shell $-1 -1 $-1 $-1 $-1 $22 $-1 $3 #
rgb_color-st-attrib $-1 -1 $23 $-1 $5 0.5 1 1 #
lump $-1 -1 $-1 $-1 $24 $5 #
transform $-1 -1 1 0 0 0 1 0 0 0 1 150.00000000000006 60.000000000000028 49.999999999999986 1 no_rotate no_reflect no_shear #
model_id-kcp-attrib $-1 -1 $-1 $-1 $6 1 1021323977 1021323977 -1781465086 1 #
lump $-1 -1 $-1 $-1 $25 $6 #
transform $-1 -1 1 0 0 0 1 0 0 0 1 150.00000000000006 60.000000000000028 49.999999999999986 1 no_rotate no_reflect no_shear #
rgb_color-st-attrib $-1 -1 $26 $-1 $7 1 0.5 1 #
lump $-1 -1 $-1 $-1 $27 $7 #
transform $-1 -1 1 0 0 0 1 0 0 0 1 150.00000000000006 60.000000000000028 49.999999999999986 1 no_rotate no_reflect no_shear #
rgb_color-st-attrib $-1 -1 $28 $-1 $8 1 0.5 1 #
lump $-1 -1 $-1 $-1 $29 $8 #
transform $-1 -1 1 0 0 0 1 0 0 0 1 150.00000000000006 60.000000000000028 49.999999999999986 1 no_rotate no_reflect no_shear #
face $30 -1 $-1 $31 $32 $9 $-1 $33 forward single #
model_id-kcp-attrib $-1 -1 $-1 $10 $5 1 1021323977 1021323977 -1793654781 1 #
shell $-1 -1 $-1 $-1 $-1 $34 $-1 $11 #
shell $-1 -1 $-1 $-1 $-1 $35 $-1 $14 #
model_id-kcp-attrib $-1 -1 $-1 $16 $7 1 1021323977 1021323978 -1792409596 1 #
shell $-1 -1 $-1 $-1 $-1 $36 $-1 $17 #
model_id-kcp-attrib $-1 -1 $-1 $19 $8 1 1021323977 1021323978 -1780613115 1 #
shell $-1 -1 $-1 $-1 $-1 $37 $-1 $20 #
model_id-kcp-attrib $-1 -1 $-1 $-1 $22 1 1021323977 1021323977 -1781465087 2 #
face $38 -1 $-1 $39 $40 $9 $-1 $41 forward single #
loop $-1 -1 $-1 $42 $43 $22 #
plane-surface $-1 -1 $-1 150.00000000000006 60.000000000000028 49.999999999999986 0 0 1 0.99999999999999989 0 0 forward_v I I I I #
face $-1 -1 $-1 $44 $45 $24 $-1 $46 reversed single #
face $47 -1 $-1 $48 $49 $25 $-1 $50 forward single #
face $-1 -1 $-1 $51 $52 $27 $-1 $53 forward single #
face $-1 -1 $-1 $54 $55 $29 $-1 $56 forward single #
model_id-kcp-attrib $-1 -1 $-1 $-1 $31 1 1021323977 1021323977 -1781465087 3 #
face $57 -1 $-1 $58 $59 $9 $-1 $60 forward single #
loop $-1 -1 $-1 $61 $62 $31 #
cone-surface $-1 -1 $-1 150.00000000000006 60.000000000000028 32.499999999999993 0 0 1 9.9999999999999982 0 0 1 I I 0 1 9.9999999999999982 forward I I I I #
loop $-1 -1 $-1 $-1 $63 $22 #
coedge $-1 -1 $-1 $43 $43 $64 $65 forward $32 $-1 #
face $-1 -1 $-1 $66 $67 $24 $-1 $46 reversed single #
loop $-1 -1 $-1 $-1 $68 $34 #
cone-surface $-1 -1 $-1 0 0 -34.999999999999993 0 0 -1 9.9999999999999982 0 0 1 I I 0 1 9.9999999999999982 forward I I I I #
model_id-kcp-attrib $-1 -1 $-1 $-1 $35 1 1021323977 1021323977 -1781465086 3 #
face $69 -1 $-1 $70 $71 $25 $-1 $72 reversed single #
loop $-1 -1 $-1 $-1 $73 $35 #
plane-surface $-1 -1 $-1 0 0 35 0 0 1 1 0 0 forward_v I I I I #
face $-1 -1 $-1 $74 $75 $27 $-1 $76 forward single #
loop $-1 -1 $-1 $77 $78 $36 #
cone-surface $-1 -1 $-1 0 1.4210854715202004e-014 0 0 0 1 4.9999999999999991 0 0 1 I I 0 -1 4.9999999999999991 forward I I I I #
face $-1 -1 $-1 $79 $80 $29 $-1 $81 forward single #
loop $-1 -1 $-1 $-1 $82 $37 #
plane-surface $-1 -1 $-1 -2.5 4.3301270189222123 20.000000000000043 1 0 0 0 0 -1 forward_v I I I I #
model_id-kcp-attrib $-1 -1 $-1 $-1 $39 1 1021323977 1021323977 -1781465087 4 #
face $83 -1 $-1 $84 $85 $9 $-1 $86 reversed single #
loop $-1 -1 $-1 $-1 $87 $39 #
plane-surface $-1 -1 $-1 150.00000000000006 60.000000000000028 14.999999999999993 0 0 -1 -0.99999999999999989 0 0 forward_v I I I I #
loop $-1 -1 $-1 $-1 $64 $31 #
coedge $-1 -1 $-1 $62 $62 $87 $88 reversed $40 $-1 #
coedge $-1 -1 $-1 $63 $63 $89 $90 reversed $42 $-1 #
coedge $-1 -1 $-1 $64 $64 $43 $65 reversed $61 $-1 #
edge $91 -1 $-1 $92 0 $92 6.2831853071795862 $43 $93 forward @7 unknown #
face $-1 -1 $-1 $94 $95 $24 $-1 $46 reversed single #
loop $-1 -1 $-1 $-1 $96 $44 #
coedge $-1 -1 $-1 $97 $98 $99 $100 forward $45 $-1 #
model_id-kcp-attrib $-1 -1 $-1 $-1 $48 1 1021323977 1021323977 -1781465086 2 #
face $-1 -1 $-1 $101 $102 $25 $-1 $103 reversed single #
loop $-1 -1 $-1 $-1 $104 $48 #
plane-surface $-1 -1 $-1 0 0 -35 0 0 1 1 0 0 forward_v I I I I #
coedge $-1 -1 $-1 $105 $106 $107 $108 forward $49 $-1 #
face $-1 -1 $-1 $109 $110 $27 $-1 $111 forward single #
loop $-1 -1 $-1 $112 $113 $51 #
cone-surface $-1 -1 $-1 0 0 0 0 0 1 9.9999999999999982 0 0 1 I I 0 1 9.9999999999999982 forward I I I I #
loop $-1 -1 $-1 $-1 $114 $36 #
coedge $-1 -1 $-1 $78 $78 $115 $116 forward $52 $-1 #
face $-1 -1 $-1 $117 $118 $29 $-1 $119 forward single #
loop $-1 -1 $-1 $-1 $120 $54 #
cone-surface $-1 -1 $-1 0 1.4210854715202004e-014 20.000000000000057 0 0 1 4.9999999999999991 0 0 1 I I 0 -1 4.9999999999999991 forward I I I I #
coedge $-1 -1 $-1 $121 $122 $123 $124 forward $55 $-1 #
model_id-kcp-attrib $-1 -1 $-1 $-1 $58 1 1021323977 1021323977 -1781465087 5 #
face $125 -1 $-1 $126 $127 $9 $-1 $128 reversed single #
loop $-1 -1 $-1 $-1 $129 $58 #
plane-surface $-1 -1 $-1 157.50000000000006 67 70.000000000000028 0 0 -1 -0.99999999999999989 0 0 forward_v I I I I #
coedge $-1 -1 $-1 $87 $87 $62 $88 forward $59 $-1 #
edge $130 -1 $-1 $131 0 $131 6.2831853071795862 $87 $132 forward @7 unknown #
coedge $-1 -1 $-1 $89 $89 $63 $90 forward $133 $-1 #
edge $134 -1 $-1 $135 -6.2831853071795862 $135 0 $89 $136 reversed @7 unknown #
attrib_edge_convexity-kcp-attrib $-1 -1 $137 $-1 $65 1 #
vertex $-1 -1 $-1 $65 $138 #
ellipse-curve $-1 -1 $-1 150.00000000000006 60.000000000000028 49.999999999999986 0 0 1 9.9999999999999982 0 0 1 I I #
face $-1 -1 $-1 $139 $140 $24 $-1 $46 reversed single #
loop $-1 -1 $-1 $-1 $141 $66 #
coedge $-1 -1 $-1 $142 $99 $143 $144 reversed $67 $-1 #
coedge $-1 -1 $-1 $145 $68 $146 $147 reversed $45 $-1 #
coedge $-1 -1 $-1 $68 $145 $148 $149 reversed $45 $-1 #
coedge $-1 -1 $-1 $96 $150 $151 $100 reversed $67 $-1 #
edge $-1 -1 $-1 $152 -70 $153 7.1054273576010019e-015 $151 $154 forward @7 unknown #
face $-1 -1 $-1 $155 $156 $25 $-1 $157 reversed single #
loop $-1 -1 $-1 $-1 $158 $70 #
plane-surface $-1 -1 $-1 0 -10 0 0 1 0 0 0 1 forward_v I I I I #
coedge $-1 -1 $-1 $159 $160 $161 $162 forward $71 $-1 #
coedge $-1 -1 $-1 $163 $73 $164 $165 forward $49 $-1 #
coedge $-1 -1 $-1 $73 $163 $166 $167 forward $49 $-1 #
coedge $-1 -1 $-1 $168 $169 $73 $108 reversed $170 $-1 #
edge $-1 -1 $-1 $171 -10 $172 10 $107 $173 forward @7 unknown #
face $-1 -1 $-1 $-1 $174 $27 $-1 $175 reversed single #
loop $-1 -1 $-1 $176 $177 $74 #
plane-surface $-1 -1 $-1 -0.45454545454545453 4.665995467736518e-015 20.000000000000043 0 0 1 1 0 0 forward_v I I I I #
loop $-1 -1 $-1 $-1 $178 $51 #
coedge $-1 -1 $-1 $113 $113 $177 $179 forward $75 $-1 #
coedge $-1 -1 $-1 $114 $114 $180 $181 reversed $77 $-1 #
coedge $-1 -1 $-1 $115 $115 $78 $116 reversed $176 $-1 #
edge $-1 -1 $-1 $182 2.0943951023931948 $182 8.3775804095727811 $78 $183 forward @7 unknown #
face $-1 -1 $-1 $184 $185 $29 $-1 $186 forward single #
loop $-1 -1 $-1 $-1 $187 $79 #
plane-surface $-1 -1 $-1 2.5 -4.3301270189221839 20.000000000000043 -1 0 0 0 0 1 forward_v I I I I #
coedge $-1 -1 $-1 $188 $189 $190 $191 forward $80 $-1 #
coedge $-1 -1 $-1 $192 $82 $189 $193 reversed $55 $-1 #
coedge $-1 -1 $-1 $82 $192 $194 $195 forward $55 $-1 #
coedge $-1 -1 $-1 $196 $190 $82 $124 reversed $197 $-1 #
edge $-1 -1 $-1 $198 -8.330127018922223 $199 0.33012701892216612 $82 $200 forward @7 unknown #
model_id-kcp-attrib $-1 -1 $-1 $-1 $84 1 1021323977 1021323977 -1781465087 6 #
face $201 -1 $-1 $202 $133 $9 $-1 $203 forward single #
loop $-1 -1 $-1 $-1 $204 $84 #
plane-surface $-1 -1 $-1 152.50000000000006 67 87.000000000000028 -1 0 0 0 0 0.99999999999999989 forward_v I I I I #
coedge $-1 -1 $-1 $205 $205 $206 $207 reversed $85 $-1 #
attrib_edge_convexity-kcp-attrib $-1 -1 $208 $-1 $88 1 #
vertex $-1 -1 $-1 $88 $209 #
ellipse-curve $-1 -1 $-1 150.00000000000006 60.000000000000028 14.999999999999993 0 0 -1 9.9999999999999982 0 0 1 I I #
loop $-1 -1 $-1 $210 $89 $126 #
attrib_edge_convexity-kcp-attrib $-1 -1 $211 $-1 $90 2 #
vertex $-1 -1 $-1 $90 $212 #
ellipse-curve $-1 -1 $-1 150.00000000000006 60.000000000000043 49.999999999999986 0 0 -1 4.9999999999999991 0 0 1 I I #
convexity-sys-attrib $-1 -1 $-1 $91 $65 #
point $-1 -1 $-1 160.00000000000003 60.000000000000028 49.999999999999986 #
face $-1 -1 $-1 $213 $214 $24 $-1 $215 reversed single #
loop $-1 -1 $-1 $-1 $216 $94 #
coedge $-1 -1 $-1 $217 $218 $219 $220 reversed $95 $-1 #
coedge $-1 -1 $-1 $150 $96 $221 $222 forward $67 $-1 #
coedge $-1 -1 $-1 $223 $224 $96 $144 forward $225 $-1 #
edge $-1 -1 $-1 $226 -3.1415926535897931 $152 -1.5707963267948966 $143 $227 forward @7 unknown #
coedge $-1 -1 $-1 $98 $97 $228 $229 reversed $45 $-1 #
coedge $-1 -1 $-1 $230 $231 $97 $147 forward $232 $-1 #
edge $-1 -1 $-1 $233 0 $153 1.5707963267948966 $146 $234 forward @7 unknown #
coedge $-1 -1 $-1 $235 $236 $98 $149 forward $237 $-1 #
edge $-1 -1 $-1 $152 -1.5707963267948966 $238 0 $148 $227 forward @7 unknown #
coedge $-1 -1 $-1 $99 $142 $239 $240 reversed $67 $-1 #
coedge $-1 -1 $-1 $241 $242 $243 $100 forward $244 $-1 #
vertex $-1 -1 $-1 $245 $246 #
vertex $-1 -1 $-1 $247 $248 #
straight-curve $-1 -1 $-1 0 10 -34.999999999999993 0 0 -1 I I #
face $-1 -1 $-1 $249 $250 $25 $-1 $251 reversed single #
loop $-1 -1 $-1 $-1 $252 $101 #
plane-surface $-1 -1 $-1 -10 0 0 1 0 0 0 0 -1 forward_v I I I I #
coedge $-1 -1 $-1 $253 $166 $254 $255 forward $102 $-1 #
coedge $-1 -1 $-1 $256 $104 $253 $257 forward $71 $-1 #
coedge $-1 -1 $-1 $104 $256 $258 $259 forward $71 $-1 #
coedge $-1 -1 $-1 $169 $168 $104 $162 reversed $170 $-1 #
edge $-1 -1 $-1 $260 -10 $261 10 $161 $262 forward @7 unknown #
coedge $-1 -1 $-1 $106 $105 $263 $264 forward $49 $-1 #
coedge $-1 -1 $-1 $265 $266 $105 $165 reversed $250 $-1 #
edge $-1 -1 $-1 $172 -10 $267 10 $164 $268 forward @7 unknown #
coedge $-1 -1 $-1 $158 $269 $106 $167 reversed $102 $-1 #
edge $-1 -1 $-1 $270 -10 $171 10 $166 $271 forward @7 unknown #
coedge $-1 -1 $-1 $161 $107 $269 $272 forward $170 $-1 #
coedge $-1 -1 $-1 $107 $161 $265 $273 reversed $170 $-1 #
loop $-1 -1 $-1 $-1 $168 $249 #
vertex $-1 -1 $-1 $108 $274 #
vertex $-1 -1 $-1 $108 $275 #
straight-curve $-1 -1 $-1 10 0 35 0 1 0 I I #
loop $-1 -1 $-1 $276 $277 $109 #
plane-surface $-1 -1 $-1 -0.45454545454545453 4.665995467736518e-015 0 0 0 1 1 0 0 forward_v I I I I #
loop $-1 -1 $-1 $-1 $115 $74 #
coedge $-1 -1 $-1 $177 $177 $113 $179 reversed $110 $-1 #
coedge $-1 -1 $-1 $178 $178 $277 $278 reversed $112 $-1 #
edge $-1 -1 $-1 $279 -3.1415926535897931 $279 3.1415926535897931 $113 $280 forward @7 unknown #
coedge $-1 -1 $-1 $180 $180 $114 $181 forward $276 $-1 #
edge $281 -1 $-1 $282 0 $282 6.2831853071795862 $114 $283 forward @7 unknown #
vertex $-1 -1 $-1 $116 $284 #
ellipse-curve $-1 -1 $-1 0 1.4210854715202004e-014 20.000000000000043 0 0 1 4.9999999999999991 0 0 1 I I #
face $-1 -1 $-1 $285 $286 $29 $-1 $287 forward single #
loop $-1 -1 $-1 $-1 $288 $117 #
cone-surface $-1 -1 $-1 0 1.4210854715202004e-014 20.000000000000057 0 0 1 4.9999999999999991 0 0 1 I I 0 -1 4.9999999999999991 forward I I I I #
coedge $-1 -1 $-1 $289 $290 $291 $292 forward $118 $-1 #
coedge $-1 -1 $-1 $293 $120 $290 $294 reversed $80 $-1 #
coedge $-1 -1 $-1 $120 $293 $121 $193 forward $80 $-1 #
coedge $-1 -1 $-1 $123 $291 $120 $191 reversed $197 $-1 #
edge $-1 -1 $-1 $199 -2.0943951023931957 $295 -1.0471975511965983 $120 $296 forward @7 unknown #
coedge $-1 -1 $-1 $122 $121 $297 $298 reversed $55 $-1 #
edge $299 -1 $-1 $300 0 $199 14.999999999999957 $189 $301 forward @7 unknown #
coedge $-1 -1 $-1 $302 $288 $122 $195 reversed $185 $-1 #
edge $303 -1 $-1 $304 0 $198 14.999999999999957 $122 $305 forward @7 unknown #
coedge $-1 -1 $-1 $291 $123 $288 $306 reversed $197 $-1 #
loop $-1 -1 $-1 $-1 $123 $285 #
vertex $-1 -1 $-1 $195 $307 #
vertex $-1 -1 $-1 $193 $308 #
straight-curve $-1 -1 $-1 -2.5 -4.0000000000000107 35.000000000000014 0 -1 0 I I #
model_id-kcp-attrib $-1 -1 $-1 $-1 $126 1 1021323977 1021323977 -1781465087 7 #
face $309 -1 $-1 $310 $311 $9 $-1 $312 reversed single #
cone-surface $-1 -1 $-1 150.00000000000006 60.000000000000043 67.499999999999986 0 0 1 4.9999999999999991 0 0 1 I I 0 1 4.9999999999999991 forward I I I I #
coedge $-1 -1 $-1 $313 $314 $315 $316 reversed $127 $-1 #
coedge $-1 -1 $-1 $129 $129 $314 $317 forward $85 $-1 #
coedge $-1 -1 $-1 $318 $315 $129 $207 forward $210 $-1 #
edge $319 -1 $-1 $320 -1.0471975511965983 $321 1.0471975511965983 $206 $322 forward @7 unknown #
convexity-sys-attrib $-1 -1 $-1 $130 $88 #
point $-1 -1 $-1 160.00000000000003 60.000000000000028 14.999999999999993 #
loop $-1 -1 $-1 $-1 $315 $126 #
convexity-sys-attrib $-1 -1 $-1 $134 $90 #
point $-1 -1 $-1 155.00000000000006 60.000000000000043 49.999999999999986 #
face $-1 -1 $-1 $323 $244 $24 $-1 $324 reversed single #
loop $-1 -1 $-1 $-1 $228 $139 #
plane-surface $-1 -1 $-1 10 0 0 -1 0 0 0 0 1 forward_v I I I I #
coedge $-1 -1 $-1 $221 $325 $326 $327 reversed $140 $-1 #
coedge $-1 -1 $-1 $328 $141 $329 $330 reversed $95 $-1 #
coedge $-1 -1 $-1 $141 $328 $145 $229 forward $95 $-1 #
coedge $-1 -1 $-1 $331 $332 $141 $220 forward $333 $-1 #
edge $-1 -1 $-1 $334 -1.5707963267948966 $233 0 $219 $234 forward @7 unknown #
coedge $-1 -1 $-1 $335 $216 $336 $222 reversed $140 $-1 #
edge $-1 -1 $-1 $226 -70 $337 7.1054273576010019e-015 $336 $338 forward @7 unknown #
coedge $-1 -1 $-1 $224 $143 $242 $245 forward $225 $-1 #
coedge $-1 -1 $-1 $143 $223 $339 $340 forward $225 $-1 #
loop $-1 -1 $-1 $-1 $143 $341 #
vertex $-1 -1 $-1 $342 $343 #
ellipse-curve $-1 -1 $-1 0 0 35.000000000000007 0 0 -1 9.9999999999999982 0 0 1 I I #
coedge $-1 -1 $-1 $344 $345 $346 $229 forward $214 $-1 #
edge $-1 -1 $-1 $238 -70 $233 7.1054273576010019e-015 $228 $347 forward @7 unknown #
coedge $-1 -1 $-1 $231 $146 $348 $247 forward $232 $-1 #
coedge $-1 -1 $-1 $146 $230 $344 $349 forward $232 $-1 #
loop $-1 -1 $-1 $-1 $146 $350 #
vertex $-1 -1 $-1 $351 $352 #
ellipse-curve $-1 -1 $-1 0 0 -35 0 0 1 9.9999999999999982 0 0 1 I I #
coedge $-1 -1 $-1 $236 $148 $345 $353 forward $237 $-1 #
coedge $-1 -1 $-1 $148 $235 $354 $355 forward $237 $-1 #
loop $-1 -1 $-1 $-1 $148 $356 #
vertex $-1 -1 $-1 $353 $357 #
coedge $-1 -1 $-1 $358 $359 $150 $240 forward $360 $-1 #
edge $-1 -1 $-1 $153 1.5707963267948966 $337 3.1415926535897931 $239 $234 forward @7 unknown #
coedge $-1 -1 $-1 $361 $151 $359 $362 reversed $244 $-1 #
coedge $-1 -1 $-1 $151 $361 $223 $245 reversed $244 $-1 #
coedge $-1 -1 $-1 $354 $348 $68 $100 reversed $363 $-1 #
loop $-1 -1 $-1 $-1 $151 $213 #
edge $-1 -1 $-1 $152 0 $364 10 $242 $365 forward @7 unknown #
point $-1 -1 $-1 0 10 35 #
edge $-1 -1 $-1 $153 0 $366 10 $348 $367 forward @7 unknown #
point $-1 -1 $-1 0 10 -35 #
face $-1 -1 $-1 $-1 $170 $25 $-1 $368 reversed single #
loop $-1 -1 $-1 $-1 $265 $155 #
plane-surface $-1 -1 $-1 0 10 0 0 -1 0 0 0 -1 forward_v I I I I #
coedge $-1 -1 $-1 $369 $263 $266 $370 forward $156 $-1 #
coedge $-1 -1 $-1 $269 $158 $159 $257 reversed $102 $-1 #
coedge $-1 -1 $-1 $263 $369 $158 $255 reversed $156 $-1 #
edge $-1 -1 $-1 $270 -35 $371 35 $254 $372 forward @7 unknown #
coedge $-1 -1 $-1 $160 $159 $369 $373 forward $71 $-1 #
edge $-1 -1 $-1 $261 -10 $371 10 $253 $374 forward @7 unknown #
coedge $-1 -1 $-1 $266 $265 $160 $259 reversed $250 $-1 #
edge $-1 -1 $-1 $375 -10 $260 10 $258 $376 forward @7 unknown #
vertex $-1 -1 $-1 $162 $377 #
vertex $-1 -1 $-1 $272 $378 #
straight-curve $-1 -1 $-1 10 0 -35 0 -1 0 I I #
coedge $-1 -1 $-1 $252 $254 $163 $264 reversed $156 $-1 #
edge $-1 -1 $-1 $267 -10 $270 10 $263 $379 forward @7 unknown #
coedge $-1 -1 $-1 $258 $164 $169 $273 forward $250 $-1 #
coedge $-1 -1 $-1 $164 $258 $252 $370 reversed $250 $-1 #
vertex $-1 -1 $-1 $165 $380 #
straight-curve $-1 -1 $-1 0 10 35 -1 0 0 I I #
coedge $-1 -1 $-1 $166 $253 $168 $272 reversed $102 $-1 #
vertex $-1 -1 $-1 $264 $381 #
straight-curve $-1 -1 $-1 0 -10 35 1 0 0 I I #
edge $-1 -1 $-1 $171 -35 $261 35 $168 $382 forward @7 unknown #
edge $-1 -1 $-1 $172 -35 $260 35 $169 $383 forward @7 unknown #
point $-1 -1 $-1 10 -10 35 #
point $-1 -1 $-1 10 10 35 #
loop $-1 -1 $-1 $-1 $180 $109 #
coedge $-1 -1 $-1 $277 $277 $178 $278 forward $174 $-1 #
edge $384 -1 $-1 $385 -3.1415926535897931 $385 3.1415926535897931 $178 $386 forward @7 unknown #
vertex $-1 -1 $-1 $179 $387 #
ellipse-curve $-1 -1 $-1 0 0 20.000000000000043 0 0 -1 9.9999999999999982 0 0 1 I I #
convexity-sys-attrib $-1 -1 $-1 $-1 $181 #
vertex $-1 -1 $-1 $181 $388 #
ellipse-curve $-1 -1 $-1 0 1.4210854715202004e-014 0 0 0 1 4.9999999999999991 0 0 1 I I #
point $-1 -1 $-1 -2.5 4.3301270189222123 20.000000000000043 #
face $-1 -1 $-1 $389 $390 $29 $-1 $391 forward single #
loop $-1 -1 $-1 $392 $393 $184 #
cone-surface $-1 -1 $-1 0 0 20.000000000000057 0 0 1 9.9999999999999982 0 0 1 I I 0 1 9.9999999999999982 forward I I I I #
coedge $-1 -1 $-1 $194 $394 $196 $306 forward $185 $-1 #
coedge $-1 -1 $-1 $395 $187 $394 $396 reversed $118 $-1 #
coedge $-1 -1 $-1 $187 $395 $188 $294 forward $118 $-1 #
coedge $-1 -1 $-1 $190 $196 $187 $292 reversed $197 $-1 #
edge $-1 -1 $-1 $295 -7.8301270189221697 $397 0.83012701892222651 $187 $398 forward @7 unknown #
coedge $-1 -1 $-1 $189 $188 $399 $400 reversed $80 $-1 #
edge $401 -1 $-1 $402 0 $295 14.999999999999957 $290 $403 forward @7 unknown #
vertex $-1 -1 $-1 $294 $404 #
ellipse-curve $-1 -1 $-1 0 1.4210854715202004e-014 35.000000000000014 0 0 1 4.9999999999999991 0 0 1 I I #
coedge $-1 -1 $-1 $399 $405 $192 $298 forward $406 $-1 #
edge $407 -1 $-1 $304 -8.330127018922223 $300 0.33012701892216612 $192 $408 forward @7 unknown #
convexity-sys-attrib $-1 -1 $-1 $-1 $193 #
vertex $-1 -1 $-1 $298 $409 #
straight-curve $-1 -1 $-1 -2.5 -4.3301270189221768 20.000000000000043 0 0 1 I I #
coedge $-1 -1 $-1 $394 $194 $405 $410 reversed $185 $-1 #
convexity-sys-attrib $-1 -1 $-1 $-1 $195 #
vertex $-1 -1 $-1 $410 $411 #
straight-curve $-1 -1 $-1 -2.5 4.3301270189222123 20.000000000000043 0 0 1 I I #
edge $-1 -1 $-1 $397 1.0471975511965983 $198 2.0943951023931948 $288 $412 forward @7 unknown #
point $-1 -1 $-1 -2.5 4.3301270189222123 35 #
point $-1 -1 $-1 -2.5 -4.3301270189221768 35 #
model_id-kcp-attrib $-1 -1 $-1 $-1 $202 1 1021323977 1021323977 -1781465087 8 #
face $413 -1 $-1 $414 $415 $9 $-1 $416 reversed single #
loop $-1 -1 $-1 $-1 $417 $202 #
plane-surface $-1 -1 $-1 147.50000000000006 52.000000000000007 87.000000000000028 1 0 0 0 0 -0.99999999999999989 forward_v I I I I #
coedge $-1 -1 $-1 $418 $204 $419 $420 reversed $127 $-1 #
coedge $-1 -1 $-1 $204 $418 $205 $317 reversed $127 $-1 #
coedge $-1 -1 $-1 $206 $421 $204 $316 forward $210 $-1 #
edge $422 -1 $-1 $423 -17.500000000000004 $320 -2.5000000000000431 $315 $424 forward @7 unknown #
edge $425 -1 $-1 $320 2.6698729810777597 $321 11.330127018922157 $314 $426 forward @7 unknown #
coedge $-1 -1 $-1 $427 $206 $418 $428 forward $210 $-1 #
attrib_edge_convexity-kcp-attrib $-1 -1 $429 $-1 $207 1 #
vertex $-1 -1 $-1 $316 $430 #
vertex $-1 -1 $-1 $428 $431 #
ellipse-curve $-1 -1 $-1 150.00000000000006 60.000000000000043 70.000000000000028 0 0 -1 4.9999999999999991 0 0 1 I I #
face $-1 -1 $-1 $432 $433 $24 $-1 $434 reversed single #
plane-surface $-1 -1 $-1 0 10 0 0 -1 0 0 0 -1 forward_v I I I I #
coedge $-1 -1 $-1 $216 $335 $217 $330 forward $140 $-1 #
coedge $-1 -1 $-1 $435 $436 $216 $327 forward $437 $-1 #
edge $-1 -1 $-1 $337 -3.1415926535897931 $334 -1.5707963267948966 $326 $234 forward @7 unknown #
coedge $-1 -1 $-1 $218 $217 $438 $439 reversed $95 $-1 #
coedge $-1 -1 $-1 $440 $441 $442 $330 forward $443 $-1 #
edge $-1 -1 $-1 $444 -70 $334 7.1054273576010019e-015 $329 $445 forward @7 unknown #
coedge $-1 -1 $-1 $332 $219 $446 $351 forward $333 $-1 #
coedge $-1 -1 $-1 $219 $331 $440 $447 forward $333 $-1 #
loop $-1 -1 $-1 $-1 $219 $448 #
vertex $-1 -1 $-1 $449 $450 #
coedge $-1 -1 $-1 $325 $221 $451 $452 reversed $140 $-1 #
coedge $-1 -1 $-1 $453 $454 $455 $222 forward $433 $-1 #
vertex $-1 -1 $-1 $456 $457 #
straight-curve $-1 -1 $-1 -10 0 -34.999999999999993 0 0 -1 I I #
coedge $-1 -1 $-1 $458 $455 $224 $340 reversed $459 $-1 #
edge $-1 -1 $-1 $364 -10 $226 0 $339 $460 forward @7 unknown #
face $-1 -1 $-1 $356 $225 $24 $-1 $461 forward single #
edge $-1 -1 $-1 $226 0 $462 10 $454 $460 forward @7 unknown #
point $-1 -1 $-1 -10 0 35 #
coedge $-1 -1 $-1 $463 $228 $231 $349 reversed $214 $-1 #
coedge $-1 -1 $-1 $228 $463 $235 $353 reversed $214 $-1 #
coedge $-1 -1 $-1 $464 $446 $218 $229 reversed $465 $-1 #
straight-curve $-1 -1 $-1 10 0 -34.999999999999993 0 0 -1 I I #
coedge $-1 -1 $-1 $243 $466 $230 $247 reversed $363 $-1 #
edge $-1 -1 $-1 $366 -10 $233 0 $344 $467 forward @7 unknown #
face $-1 -1 $-1 $468 $232 $24 $-1 $469 reversed single #
edge $-1 -1 $-1 $233 0 $470 10 $446 $467 forward @7 unknown #
point $-1 -1 $-1 10 0 -35 #
edge $-1 -1 $-1 $238 0 $471 10 $345 $472 forward @7 unknown #
coedge $-1 -1 $-1 $466 $243 $236 $355 reversed $363 $-1 #
edge $-1 -1 $-1 $471 -10 $152 0 $354 $365 forward @7 unknown #
face $-1 -1 $-1 $473 $237 $24 $-1 $461 forward single #
point $-1 -1 $-1 10 0 35 #
coedge $-1 -1 $-1 $359 $239 $474 $456 forward $360 $-1 #
coedge $-1 -1 $-1 $239 $358 $241 $362 forward $360 $-1 #
loop $-1 -1 $-1 $-1 $239 $468 #
coedge $-1 -1 $-1 $242 $241 $458 $475 reversed $244 $-1 #
edge $-1 -1 $-1 $476 -10 $153 0 $241 $367 forward @7 unknown #
loop $-1 -1 $-1 $-1 $243 $477 #
vertex $-1 -1 $-1 $245 $478 #
straight-curve $-1 -1 $-1 0 10 35 -1 0 0 I I #
vertex $-1 -1 $-1 $349 $479 #
straight-curve $-1 -1 $-1 0 10 -35 1 0 0 I I #
plane-surface $-1 -1 $-1 10 0 0 -1 0 0 0 0 1 forward_v I I I I #
coedge $-1 -1 $-1 $254 $252 $256 $373 reversed $156 $-1 #
edge $-1 -1 $-1 $267 -35 $375 35 $266 $480 forward @7 unknown #
vertex $-1 -1 $-1 $373 $481 #
straight-curve $-1 -1 $-1 -10 -10 0 0 0 -1 I I #
edge $-1 -1 $-1 $371 -10 $375 10 $369 $482 forward @7 unknown #
straight-curve $-1 -1 $-1 0 -10 -35 -1 0 0 I I #
vertex $-1 -1 $-1 $259 $483 #
straight-curve $-1 -1 $-1 0 10 -35 1 0 0 I I #
point $-1 -1 $-1 10 10 -35 #
point $-1 -1 $-1 10 -10 -35 #
straight-curve $-1 -1 $-1 -10 0 35 0 -1 0 I I #
point $-1 -1 $-1 -10 10 35 #
point $-1 -1 $-1 -10 -10 35 #
straight-curve $-1 -1 $-1 10 -10 0 0 0 -1 I I #
straight-curve $-1 -1 $-1 10 10 0 0 0 -1 I I #
convexity-sys-attrib $-1 -1 $-1 $-1 $278 #
vertex $-1 -1 $-1 $278 $484 #
ellipse-curve $-1 -1 $-1 0 0 0 0 0 -1 9.9999999999999982 0 0 1 I I #
point $-1 -1 $-1 -9.9999999999999982 1.2246063538223771e-015 20.000000000000043 #
point $-1 -1 $-1 5 1.4210854715202004e-014 0 #
face $-1 -1 $-1 $-1 $485 $29 $-1 $486 reversed single #
loop $-1 -1 $-1 $197 $487 $285 #
plane-surface $-1 -1 $-1 -0.63029279478812783 4.417570724233936e-015 35.000000000000014 -1.8866403847619421e-031 -3.3782570511764829e-031 1 1 0 1.8866403847619421e-031 forward_v I I I I #
loop $-1 -1 $-1 $-1 $488 $184 #
coedge $-1 -1 $-1 $393 $393 $487 $489 forward $286 $-1 #
coedge $-1 -1 $-1 $288 $302 $289 $396 forward $185 $-1 #
coedge $-1 -1 $-1 $290 $289 $490 $491 reversed $118 $-1 #
edge $492 -1 $-1 $493 0 $397 14.999999999999957 $394 $494 forward @7 unknown #
vertex $-1 -1 $-1 $396 $495 #
straight-curve $-1 -1 $-1 2.5 3.4999999999999858 35.000000000000014 0 1 0 I I #
coedge $-1 -1 $-1 $490 $297 $293 $400 forward $406 $-1 #
edge $496 -1 $-1 $300 -2.0943951023931957 $402 -1.0471975511965983 $293 $497 forward @7 unknown #
convexity-sys-attrib $-1 -1 $-1 $-1 $294 #
vertex $-1 -1 $-1 $400 $498 #
straight-curve $-1 -1 $-1 2.5 -4.3301270189221839 20.000000000000043 0 0 1 I I #
point $-1 -1 $-1 2.5 -4.3301270189221839 35 #
coedge $-1 -1 $-1 $297 $490 $302 $410 forward $406 $-1 #
loop $-1 -1 $-1 $-1 $405 $389 #
convexity-sys-attrib $-1 -1 $-1 $-1 $298 #
straight-curve $-1 -1 $-1 -2.5 -4.0000000000000107 20.000000000000057 0 -1 0 I I #
point $-1 -1 $-1 -2.5 -4.3301270189221768 20.000000000000043 #
edge $499 -1 $-1 $493 1.0471975511965983 $304 2.0943951023931948 $302 $500 forward @7 unknown #
point $-1 -1 $-1 -2.5 4.3301270189222123 20.000000000000043 #
ellipse-curve $-1 -1 $-1 0 1.4210854715202004e-014 35.000000000000014 0 0 1 4.9999999999999991 0 0 1 I I #
model_id-kcp-attrib $-1 -1 $-1 $-1 $310 1 1021323977 1021323977 -1781465087 9 #
face $501 -1 $-1 $-1 $502 $9 $-1 $503 forward single #
loop $-1 -1 $-1 $-1 $504 $310 #
plane-surface $-1 -1 $-1 147.50000000000006 67 70.000000000000028 0 0 -1 -0.99999999999999989 0 0 forward_v I I I I #
coedge $-1 -1 $-1 $505 $506 $507 $508 reversed $311 $-1 #
coedge $-1 -1 $-1 $314 $313 $318 $428 reversed $127 $-1 #
coedge $-1 -1 $-1 $509 $510 $313 $420 forward $502 $-1 #
edge $511 -1 $-1 $512 -7.8301270189221777 $423 0.83012701892221952 $419 $513 forward @7 unknown #
coedge $-1 -1 $-1 $315 $507 $509 $514 reversed $210 $-1 #
attrib_edge_convexity-kcp-attrib $-1 -1 $515 $-1 $316 1 #
vertex $-1 -1 $-1 $514 $516 #
straight-curve $-1 -1 $-1 152.50000000000006 64.330127018922241 67.499999999999986 0 0 -0.99999999999999989 I I #
attrib_edge_convexity-kcp-attrib $-1 -1 $517 $-1 $317 2 #
straight-curve $-1 -1 $-1 152.50000000000006 67 70.000000000000028 0 -0.99999999999999989 0 I I #
coedge $-1 -1 $-1 $518 $318 $510 $519 reversed $210 $-1 #
edge $520 -1 $-1 $321 2.5000000000000431 $512 17.500000000000004 $318 $521 forward @7 unknown #
convexity-sys-attrib $-1 -1 $-1 $319 $207 #
point $-1 -1 $-1 152.50000000000006 64.330127018922241 70.000000000000028 #
point $-1 -1 $-1 152.50000000000006 55.669872981077845 70.000000000000028 #
face $-1 -1 $-1 $341 $522 $24 $-1 $461 forward single #
loop $-1 -1 $-1 $-1 $336 $323 #
plane-surface $-1 -1 $-1 -10 0 0 1 0 0 0 0 -1 forward_v I I I I #
coedge $-1 -1 $-1 $436 $326 $523 $449 forward $437 $-1 #
coedge $-1 -1 $-1 $326 $435 $453 $524 forward $437 $-1 #
loop $-1 -1 $-1 $-1 $326 $525 #
coedge $-1 -1 $-1 $526 $527 $328 $439 forward $528 $-1 #
edge $-1 -1 $-1 $238 0 $444 1.5707963267948966 $438 $227 forward @7 unknown #
coedge $-1 -1 $-1 $529 $329 $332 $447 reversed $443 $-1 #
coedge $-1 -1 $-1 $329 $529 $526 $530 reversed $443 $-1 #
coedge $-1 -1 $-1 $531 $523 $325 $330 reversed $532 $-1 #
loop $-1 -1 $-1 $-1 $329 $533 #
vertex $-1 -1 $-1 $530 $534 #
straight-curve $-1 -1 $-1 0 -10 -34.999999999999993 0 0 -1 I I #
coedge $-1 -1 $-1 $346 $535 $331 $351 reversed $465 $-1 #
edge $-1 -1 $-1 $470 -10 $334 0 $440 $536 forward @7 unknown #
face $-1 -1 $-1 $350 $333 $24 $-1 $469 reversed single #
edge $-1 -1 $-1 $334 0 $537 10 $523 $536 forward @7 unknown #
point $-1 -1 $-1 0 -10 -35 #
coedge $-1 -1 $-1 $538 $539 $335 $452 forward $522 $-1 #
edge $-1 -1 $-1 $444 1.5707963267948966 $226 3.1415926535897931 $451 $227 forward @7 unknown #
coedge $-1 -1 $-1 $540 $336 $436 $524 reversed $433 $-1 #
coedge $-1 -1 $-1 $336 $540 $538 $342 reversed $433 $-1 #
coedge $-1 -1 $-1 $339 $474 $142 $222 reversed $459 $-1 #
edge $-1 -1 $-1 $337 0 $476 10 $474 $541 forward @7 unknown #
point $-1 -1 $-1 -10 0 -35 #
coedge $-1 -1 $-1 $474 $339 $361 $475 forward $459 $-1 #
loop $-1 -1 $-1 $-1 $455 $542 #
straight-curve $-1 -1 $-1 -10 0 35 0 -1 0 I I #
plane-surface $-1 -1 $-1 0 0 35 0 0 1 1 0 0 forward_v I I I I #
vertex $-1 -1 $-1 $342 $543 #
coedge $-1 -1 $-1 $345 $344 $466 $544 reversed $214 $-1 #
coedge $-1 -1 $-1 $535 $346 $527 $545 reversed $465 $-1 #
loop $-1 -1 $-1 $-1 $346 $546 #
coedge $-1 -1 $-1 $348 $354 $463 $544 forward $363 $-1 #
straight-curve $-1 -1 $-1 10 0 -35 0 -1 0 I I #
face $-1 -1 $-1 $547 $360 $24 $-1 $469 reversed single #
plane-surface $-1 -1 $-1 0 0 -35 0 0 1 1 0 0 forward_v I I I I #
vertex $-1 -1 $-1 $548 $549 #
vertex $-1 -1 $-1 $353 $550 #
straight-curve $-1 -1 $-1 10 0 35 0 1 0 I I #
face $-1 -1 $-1 $533 $528 $24 $-1 $461 forward single #
coedge $-1 -1 $-1 $455 $458 $358 $456 reversed $459 $-1 #
edge $-1 -1 $-1 $364 -35 $476 35 $361 $551 forward @7 unknown #
vertex $-1 -1 $-1 $362 $552 #
face $-1 -1 $-1 $546 $363 $24 $-1 $324 reversed single #
point $-1 -1 $-1 -10 10 35 #
point $-1 -1 $-1 10 10 -35 #
straight-curve $-1 -1 $-1 -10 10 0 0 0 -1 I I #
point $-1 -1 $-1 -10 -10 -35 #
straight-curve $-1 -1 $-1 -10 0 -35 0 1 0 I I #
point $-1 -1 $-1 -10 10 -35 #
point $-1 -1 $-1 -9.9999999999999982 1.2246063538223771e-015 0 #
loop $-1 -1 $-1 $406 $553 $389 #
plane-surface $-1 -1 $-1 -0.63029279478812783 4.417570724233936e-015 20.00000000000006 -1.8866403847619421e-031 -3.3782570511764829e-031 1 1 0 1.8866403847619421e-031 forward_v I I I I #
coedge $-1 -1 $-1 $487 $487 $393 $489 reversed $390 $-1 #
coedge $-1 -1 $-1 $488 $488 $553 $554 reversed $392 $-1 #
edge $-1 -1 $-1 $555 -3.1415926535897931 $555 3.1415926535897931 $393 $556 forward @7 unknown #
coedge $-1 -1 $-1 $405 $399 $395 $491 forward $406 $-1 #
edge $557 -1 $-1 $402 -7.8301270189221697 $493 0.83012701892222651 $395 $558 forward @7 unknown #
convexity-sys-attrib $-1 -1 $-1 $-1 $396 #
vertex $-1 -1 $-1 $410 $559 #
straight-curve $-1 -1 $-1 2.5 4.3301270189222123 20.000000000000043 0 0 1 I I #
point $-1 -1 $-1 2.5 4.3301270189222123 35 #
convexity-sys-attrib $-1 -1 $-1 $-1 $400 #
ellipse-curve $-1 -1 $-1 0 1.4210854715202004e-014 20.000000000000057 0 0 1 4.9999999999999991 0 0 1 I I #
point $-1 -1 $-1 2.5 -4.3301270189221839 20.000000000000043 #
convexity-sys-attrib $-1 -1 $-1 $-1 $410 #
ellipse-curve $-1 -1 $-1 0 1.4210854715202004e-014 20.000000000000057 0 0 1 4.9999999999999991 0 0 1 I I #
model_id-kcp-attrib $-1 -1 $-1 $-1 $414 1 1021323977 1021323977 -1781465087 10 #
loop $-1 -1 $-1 $-1 $419 $414 #
plane-surface $-1 -1 $-1 150.00000000000006 60.000000000000043 84.999999999999986 0 0 1 0.99999999999999989 0 0 forward_v I I I I #
coedge $-1 -1 $-1 $560 $560 $561 $562 reversed $415 $-1 #
coedge $-1 -1 $-1 $563 $417 $560 $564 reversed $311 $-1 #
coedge $-1 -1 $-1 $417 $563 $565 $566 reversed $311 $-1 #
coedge $-1 -1 $-1 $421 $561 $417 $508 forward $210 $-1 #
edge $567 -1 $-1 $568 2.5000000000000431 $569 17.500000000000004 $507 $570 forward @7 unknown #
coedge $-1 -1 $-1 $565 $419 $421 $514 forward $502 $-1 #
coedge $-1 -1 $-1 $419 $565 $427 $519 forward $502 $-1 #
attrib_edge_convexity-kcp-attrib $-1 -1 $571 $-1 $420 1 #
vertex $-1 -1 $-1 $420 $572 #
straight-curve $-1 -1 $-1 152.50000000000006 63.500000000000021 84.999999999999986 0 0.99999999999999989 0 I I #
edge $-1 -1 $-1 $423 1.0471975511965983 $569 2.0943951023931948 $509 $573 forward @7 unknown #
convexity-sys-attrib $-1 -1 $-1 $422 $316 #
point $-1 -1 $-1 152.50000000000006 64.330127018922241 84.999999999999986 #
convexity-sys-attrib $-1 -1 $-1 $425 $317 #
coedge $-1 -1 $-1 $561 $427 $563 $574 forward $210 $-1 #
edge $-1 -1 $-1 $575 -2.0943951023931957 $512 -1.0471975511965983 $510 $573 forward @7 unknown #
attrib_edge_convexity-kcp-attrib $-1 -1 $576 $-1 $428 1 #
straight-curve $-1 -1 $-1 152.50000000000006 55.669872981077845 67.499999999999986 0 0 0.99999999999999989 I I #
loop $-1 -1 $-1 $-1 $451 $432 #
coedge $-1 -1 $-1 $442 $577 $435 $449 reversed $532 $-1 #
edge $-1 -1 $-1 $537 -10 $337 0 $453 $541 forward @7 unknown #
face $-1 -1 $-1 $448 $437 $24 $-1 $469 reversed single #
coedge $-1 -1 $-1 $527 $438 $441 $530 forward $528 $-1 #
coedge $-1 -1 $-1 $438 $526 $464 $545 forward $528 $-1 #
loop $-1 -1 $-1 $-1 $438 $473 #
coedge $-1 -1 $-1 $441 $440 $535 $548 reversed $443 $-1 #
edge $-1 -1 $-1 $444 0 $578 10 $441 $579 forward @7 unknown #
coedge $-1 -1 $-1 $577 $442 $539 $580 reversed $532 $-1 #
loop $-1 -1 $-1 $-1 $442 $547 #
face $-1 -1 $-1 $525 $443 $24 $-1 $581 reversed single #
point $-1 -1 $-1 0 -10 35 #
coedge $-1 -1 $-1 $446 $464 $529 $548 forward $465 $-1 #
straight-curve $-1 -1 $-1 0 -10 -35 -1 0 0 I I #
vertex $-1 -1 $-1 $524 $582 #
coedge $-1 -1 $-1 $539 $451 $454 $342 forward $522 $-1 #
coedge $-1 -1 $-1 $451 $538 $531 $580 forward $522 $-1 #
coedge $-1 -1 $-1 $454 $453 $577 $583 reversed $433 $-1 #
straight-curve $-1 -1 $-1 -10 0 -35 0 1 0 I I #
face $-1 -1 $-1 $477 $459 $24 $-1 $434 reversed single #
point $-1 -1 $-1 -10 -10 35 #
edge $-1 -1 $-1 $471 -35 $366 35 $463 $584 forward @7 unknown #
edge $-1 -1 $-1 $578 -10 $238 0 $464 $472 forward @7 unknown #
face $-1 -1 $-1 $-1 $465 $24 $-1 $215 reversed single #
face $-1 -1 $-1 $542 $532 $24 $-1 $581 reversed single #
edge $-1 -1 $-1 $578 -35 $470 35 $535 $585 forward @7 unknown #
point $-1 -1 $-1 10 -10 -35 #
point $-1 -1 $-1 10 10 35 #
straight-curve $-1 -1 $-1 -10 10 0 0 0 -1 I I #
point $-1 -1 $-1 -10 10 -35 #
coedge $-1 -1 $-1 $553 $553 $488 $554 forward $485 $-1 #
edge $586 -1 $-1 $587 -3.1415926535897931 $587 3.1415926535897931 $488 $588 forward @7 unknown #
vertex $-1 -1 $-1 $489 $589 #
ellipse-curve $-1 -1 $-1 0 0 35.000000000000014 0 0 -1 9.9999999999999982 0 0 1 I I #
convexity-sys-attrib $-1 -1 $-1 $-1 $491 #
straight-curve $-1 -1 $-1 2.5 3.4999999999999858 20.000000000000057 0 1 0 I I #
point $-1 -1 $-1 2.5 4.3301270189222123 20.000000000000043 #
coedge $-1 -1 $-1 $504 $504 $505 $564 forward $415 $-1 #
coedge $-1 -1 $-1 $507 $518 $504 $562 forward $210 $-1 #
edge $590 -1 $-1 $591 2.0943951023931957 $568 4.1887902047863914 $561 $592 forward @7 unknown #
coedge $-1 -1 $-1 $506 $505 $518 $574 reversed $311 $-1 #
edge $593 -1 $-1 $591 3.669872981077845 $568 12.330127018922235 $505 $594 forward @7 unknown #
coedge $-1 -1 $-1 $510 $509 $506 $566 forward $502 $-1 #
edge $595 -1 $-1 $569 -8.3301270189222141 $575 0.33012701892217683 $565 $596 forward @7 unknown #
attrib_edge_convexity-kcp-attrib $-1 -1 $597 $-1 $508 1 #
vertex $-1 -1 $-1 $508 $598 #
vertex $-1 -1 $-1 $566 $599 #
straight-curve $-1 -1 $-1 147.50000000000006 64.330127018922241 67.499999999999986 0 0 0.99999999999999989 I I #
convexity-sys-attrib $-1 -1 $-1 $511 $420 #
point $-1 -1 $-1 152.50000000000006 55.669872981077845 84.999999999999986 #
ellipse-curve $-1 -1 $-1 150.00000000000006 60.000000000000043 84.999999999999986 0 0 1 4.9999999999999991 0 0 1 I I #
edge $600 -1 $-1 $575 -17.500000000000004 $591 -2.5000000000000431 $518 $601 forward @7 unknown #
vertex $-1 -1 $-1 $519 $602 #
convexity-sys-attrib $-1 -1 $-1 $520 $428 #
coedge $-1 -1 $-1 $523 $531 $540 $583 forward $532 $-1 #
vertex $-1 -1 $-1 $545 $603 #
straight-curve $-1 -1 $-1 0 -10 35 1 0 0 I I #
edge $-1 -1 $-1 $462 -10 $444 0 $531 $579 forward @7 unknown #
plane-surface $-1 -1 $-1 0 -10 0 0 1 0 0 0 1 forward_v I I I I #
point $-1 -1 $-1 -10 -10 -35 #
edge $-1 -1 $-1 $462 -35 $537 35 $540 $604 forward @7 unknown #
straight-curve $-1 -1 $-1 10 10 0 0 0 -1 I I #
straight-curve $-1 -1 $-1 10 -10 0 0 0 -1 I I #
convexity-sys-attrib $-1 -1 $-1 $-1 $554 #
vertex $-1 -1 $-1 $554 $605 #
ellipse-curve $-1 -1 $-1 0 0 20.000000000000057 0 0 -1 9.9999999999999982 0 0 1 I I #
point $-1 -1 $-1 -9.9999999999999982 1.2246063538223771e-015 35.000000000000014 #
attrib_edge_convexity-kcp-attrib $-1 -1 $606 $-1 $562 1 #
vertex $-1 -1 $-1 $574 $607 #
ellipse-curve $-1 -1 $-1 150.00000000000006 60.000000000000043 70.000000000000028 0 0 -1 4.9999999999999991 0 0 1 I I #
attrib_edge_convexity-kcp-attrib $-1 -1 $608 $-1 $564 2 #
straight-curve $-1 -1 $-1 147.50000000000006 52.000000000000007 70.000000000000028 0 0.99999999999999989 0 I I #
attrib_edge_convexity-kcp-attrib $-1 -1 $609 $-1 $566 1 #
straight-curve $-1 -1 $-1 147.50000000000006 56.000000000000028 84.999999999999986 0 -0.99999999999999989 0 I I #
convexity-sys-attrib $-1 -1 $-1 $567 $508 #
point $-1 -1 $-1 147.50000000000006 64.330127018922241 70.000000000000028 #
point $-1 -1 $-1 147.50000000000006 64.330127018922241 84.999999999999986 #
attrib_edge_convexity-kcp-attrib $-1 -1 $610 $-1 $574 1 #
straight-curve $-1 -1 $-1 147.50000000000006 55.669872981077852 67.499999999999986 0 0 -0.99999999999999989 I I #
point $-1 -1 $-1 147.50000000000006 55.669872981077852 84.999999999999986 #
point $-1 -1 $-1 10 -10 35 #
straight-curve $-1 -1 $-1 -10 -10 0 0 0 -1 I I #
point $-1 -1 $-1 -9.9999999999999982 1.2246063538223771e-015 20.000000000000057 #
convexity-sys-attrib $-1 -1 $-1 $590 $562 #
point $-1 -1 $-1 147.50000000000006 55.669872981077852 70.000000000000028 #
convexity-sys-attrib $-1 -1 $-1 $593 $564 #
convexity-sys-attrib $-1 -1 $-1 $595 $566 #
convexity-sys-attrib $-1 -1 $-1 $600 $574 #
End-of-ACIS-data 