700 0 2 0           
24 FBMach with ACIS - 7.0.3 13 ACIS 7.0.3 NT 24 Mon May 13 17:06:19 2002 
1 9.9999999999999995e-007 1e-010 
body $2 -1 $-1 $3 $-1 $4 #
bdycol-kcp $-1 -1 1 3 $5 $6 $7 #
model_id-kcp-attrib $-1 -1 $-1 $-1 $0 1 1021323979 1021323979 -636092415 1 #
lump $-1 -1 $-1 $-1 $8 $0 #
transform $-1 -1 1 0 0 0 1 0 0 0 1 0 0 0 1 rotate no_reflect no_shear #
body $9 -1 $-1 $10 $-1 $11 #
body $12 -1 $-1 $13 $-1 $14 #
body $15 -1 $-1 $16 $-1 $17 #
shell $-1 -1 $-1 $-1 $-1 $18 $-1 $3 #
model_id-kcp-attrib $-1 -1 $-1 $-1 $5 1 1021323979 1021323979 -636092414 1 #
lump $-1 -1 $-1 $-1 $19 $5 #
transform $-1 -1 1 0 0 0 1 0 0 0 1 150.00000000000006 60.000000000000028 30 1 no_rotate no_reflect no_shear #
rgb_color-st-attrib $-1 -1 $20 $-1 $6 0.5 1 1 #
lump $-1 -1 $-1 $-1 $21 $6 #
transform $-1 -1 -1 0 -1.2246063538223773e-016 0 1 0 1.2246063538223773e-016 0 -1 150.00000000296495 60.000000002964939 32.5 1 rotate no_reflect no_shear #
rgb_color-st-attrib $-1 -1 $22 $-1 $7 1 0.5 1 #
lump $-1 -1 $-1 $-1 $23 $7 #
transform $-1 -1 1 0 0 0 1 0 0 0 1 150.00000000000006 60.000000000000028 30 1 no_rotate no_reflect no_shear #
face $24 -1 $-1 $25 $26 $8 $-1 $27 reversed single #
shell $-1 -1 $-1 $-1 $-1 $28 $-1 $10 #
model_id-kcp-attrib $-1 -1 $-1 $12 $6 1 1021323979 1021323979 -634126333 1 #
shell $-1 -1 $-1 $-1 $-1 $29 $-1 $13 #
model_id-kcp-attrib $-1 -1 $-1 $15 $7 1 1021323979 1021323979 -621674492 1 #
shell $-1 -1 $-1 $-1 $-1 $30 $-1 $16 #
model_id-kcp-attrib $-1 -1 $-1 $-1 $18 1 1021323979 1021323979 -636092415 2 #
face $31 -1 $-1 $32 $33 $8 $-1 $34 forward single #
loop $-1 -1 $-1 $35 $36 $18 #
cone-surface $-1 -1 $-1 150.00000000296495 60.000000002964939 29.999999999999989 0 0 -1 -10 0 0 1 I I 0 1 10 forward I I I I #
face $37 -1 $-1 $38 $39 $19 $-1 $40 forward single #
face $-1 -1 $-1 $41 $42 $21 $-1 $43 forward single #
face $-1 -1 $-1 $44 $45 $23 $-1 $46 forward single #
model_id-kcp-attrib $-1 -1 $-1 $-1 $25 1 1021323979 1021323979 -636092415 3 #
face $47 -1 $-1 $48 $49 $8 $-1 $50 forward single #
loop $-1 -1 $-1 $51 $52 $25 #
cone-surface $-1 -1 $-1 150.00000000000009 60.000000000000064 32.5 0 0 1 15 0 0 1 I I 0 1 15 forward I I I I #
loop $-1 -1 $-1 $-1 $53 $18 #
coedge $-1 -1 $-1 $36 $36 $54 $55 reversed $26 $-1 #
model_id-kcp-attrib $-1 -1 $-1 $-1 $28 1 1021323979 1021323979 -636092414 2 #
face $56 -1 $-1 $57 $58 $19 $-1 $59 reversed single #
loop $-1 -1 $-1 $-1 $60 $28 #
plane-surface $-1 -1 $-1 0 0 19.999999999999993 0 0 1 1 0 0 forward_v I I I I #
face $-1 -1 $-1 $61 $62 $21 $-1 $63 forward single #
loop $-1 -1 $-1 $64 $65 $29 #
cone-surface $-1 -1 $-1 0 0 0 0 0 1 10 0 0 1 I I 0 1 10 forward I I I I #
face $-1 -1 $-1 $66 $67 $23 $-1 $68 forward single #
loop $-1 -1 $-1 $69 $70 $30 #
cone-surface $-1 -1 $-1 2.8421709430404007e-014 3.5527136788005009e-014 -15 0 0 1 15 0 0 1 I I 0 -1 15 forward I I I I #
model_id-kcp-attrib $-1 -1 $-1 $-1 $32 1 1021323979 1021323979 -636092415 4 #
face $71 -1 $-1 $72 $73 $8 $-1 $74 reversed single #
loop $-1 -1 $-1 $75 $76 $32 #
plane-surface $-1 -1 $-1 150.00000000000009 60.000000000000064 49.999999999999993 0 0 1 0.99999999999999989 0 0 forward_v I I I I #
loop $-1 -1 $-1 $-1 $77 $25 #
coedge $-1 -1 $-1 $52 $52 $78 $79 reversed $33 $-1 #
coedge $-1 -1 $-1 $53 $53 $76 $80 reversed $35 $-1 #
coedge $-1 -1 $-1 $54 $54 $36 $55 forward $81 $-1 #
edge $82 -1 $-1 $83 -3.1415926535898002 $83 3.141592653589786 $54 $84 forward @7 unknown #
model_id-kcp-attrib $-1 -1 $-1 $-1 $38 1 1021323979 1021323979 -636092414 6 #
face $85 -1 $-1 $86 $87 $19 $-1 $88 reversed single #
loop $-1 -1 $-1 $-1 $89 $38 #
plane-surface $-1 -1 $-1 0 0 -19.999999999999993 0 0 1 1 0 0 forward_v I I I I #
coedge $-1 -1 $-1 $90 $91 $92 $93 forward $39 $-1 #
face $-1 -1 $-1 $-1 $94 $21 $-1 $95 forward single #
loop $-1 -1 $-1 $-1 $96 $41 #
plane-surface $-1 -1 $-1 0 0 -17.499999999999993 0 0 -1 -1 0 0 forward_v I I I I #
loop $-1 -1 $-1 $-1 $97 $29 #
coedge $-1 -1 $-1 $65 $65 $96 $98 reversed $42 $-1 #
face $-1 -1 $-1 $99 $100 $23 $-1 $101 forward single #
loop $-1 -1 $-1 $-1 $102 $44 #
plane-surface $-1 -1 $-1 -20 -20 -15 -1 0 0 0 0 1 forward_v I I I I #
loop $-1 -1 $-1 $-1 $103 $30 #
coedge $-1 -1 $-1 $70 $70 $104 $105 forward $45 $-1 #
model_id-kcp-attrib $-1 -1 $-1 $-1 $48 1 1021323979 1021323979 -636092415 5 #
face $106 -1 $-1 $107 $108 $8 $-1 $109 forward single #
loop $-1 -1 $-1 $110 $111 $48 #
plane-surface $-1 -1 $-1 150.00000000000006 60.000000000000028 15.000000000000007 0 0 -1 0 0.99999999999999989 0 forward_v I I I I #
loop $-1 -1 $-1 $-1 $112 $32 #
coedge $-1 -1 $-1 $76 $76 $53 $80 forward $49 $-1 #
coedge $-1 -1 $-1 $77 $77 $112 $113 reversed $51 $-1 #
coedge $-1 -1 $-1 $78 $78 $52 $79 forward $110 $-1 #
edge $114 -1 $-1 $115 0 $115 6.2831853071795862 $78 $116 forward @7 unknown #
edge $117 -1 $-1 $118 -3.1415926535898002 $118 3.141592653589786 $76 $119 forward @7 unknown #
loop $-1 -1 $-1 $-1 $54 $120 #
attrib_edge_convexity-kcp-attrib $-1 -1 $121 $-1 $55 2 #
vertex $-1 -1 $-1 $55 $122 #
ellipse-curve $-1 -1 $-1 150.00000000296495 60.000000002964939 15.000000000000007 0 0 1 -10 0 0 1 I I #
model_id-kcp-attrib $-1 -1 $-1 $-1 $57 1 1021323979 1021323979 -636092414 4 #
face $123 -1 $-1 $124 $125 $19 $-1 $126 reversed single #
loop $-1 -1 $-1 $-1 $127 $57 #
plane-surface $-1 -1 $-1 0 -20 0 0 1 0 0 0 1 forward_v I I I I #
coedge $-1 -1 $-1 $128 $129 $130 $131 forward $58 $-1 #
coedge $-1 -1 $-1 $132 $60 $133 $134 forward $39 $-1 #
coedge $-1 -1 $-1 $60 $132 $135 $136 forward $39 $-1 #
coedge $-1 -1 $-1 $137 $138 $60 $93 reversed $139 $-1 #
edge $-1 -1 $-1 $140 -20 $141 20 $92 $142 forward @7 unknown #
loop $-1 -1 $-1 $-1 $143 $61 #
plane-surface $-1 -1 $-1 0 0 17.499999999999993 0 0 1 1 0 0 forward_v I I I I #
coedge $-1 -1 $-1 $96 $96 $65 $98 forward $62 $-1 #
coedge $-1 -1 $-1 $97 $97 $143 $144 reversed $64 $-1 #
edge $-1 -1 $-1 $145 0 $145 6.2831853071795862 $96 $146 forward @7 unknown #
face $-1 -1 $-1 $147 $148 $23 $-1 $149 forward single #
loop $-1 -1 $-1 $-1 $150 $66 #
plane-surface $-1 -1 $-1 -20 20 -15 0 1 0 0 0 1 forward_v I I I I #
coedge $-1 -1 $-1 $151 $152 $153 $154 forward $67 $-1 #
coedge $-1 -1 $-1 $103 $103 $155 $156 reversed $69 $-1 #
coedge $-1 -1 $-1 $104 $104 $70 $105 reversed $157 $-1 #
edge $-1 -1 $-1 $158 0 $158 6.2831853071795862 $70 $159 forward @7 unknown #
model_id-kcp-attrib $-1 -1 $-1 $-1 $72 1 1021323979 1021323979 -636092415 6 #
face $160 -1 $-1 $161 $162 $8 $-1 $163 reversed single #
loop $-1 -1 $-1 $-1 $164 $72 #
plane-surface $-1 -1 $-1 150.00000000000006 80.000000000000028 12.500000000000007 0 1 0 0 0 0.99999999999999989 forward_v I I I I #
loop $-1 -1 $-1 $-1 $78 $48 #
coedge $-1 -1 $-1 $165 $166 $167 $168 forward $73 $-1 #
coedge $-1 -1 $-1 $112 $112 $77 $113 forward $75 $-1 #
edge $169 -1 $-1 $170 0 $170 6.2831853071795862 $112 $171 forward @7 unknown #
attrib_edge_convexity-kcp-attrib $-1 -1 $172 $-1 $79 2 #
vertex $-1 -1 $-1 $79 $173 #
ellipse-curve $-1 -1 $-1 150.00000000000009 60.000000000000064 15.000000000000007 0 0 -1 15 0 0 1 I I #
attrib_edge_convexity-kcp-attrib $-1 -1 $174 $-1 $80 1 #
vertex $-1 -1 $-1 $80 $175 #
ellipse-curve $-1 -1 $-1 150.00000000296495 60.000000002964939 49.999999999999993 0 0 -1 -10 0 0 1 I I #
face $176 -1 $-1 $-1 $81 $8 $-1 $74 reversed single #
convexity-sys-attrib $-1 -1 $-1 $82 $55 #
point $-1 -1 $-1 160.00000000296495 60.000000002964867 15 #
model_id-kcp-attrib $-1 -1 $-1 $-1 $86 1 1021323979 1021323979 -636092414 5 #
face $177 -1 $-1 $178 $179 $19 $-1 $180 reversed single #
loop $-1 -1 $-1 $-1 $181 $86 #
plane-surface $-1 -1 $-1 -20 0 0 1 0 0 0 0 -1 forward_v I I I I #
coedge $-1 -1 $-1 $182 $135 $183 $184 forward $87 $-1 #
coedge $-1 -1 $-1 $185 $89 $182 $186 forward $58 $-1 #
coedge $-1 -1 $-1 $89 $185 $187 $188 forward $58 $-1 #
coedge $-1 -1 $-1 $138 $137 $89 $131 reversed $139 $-1 #
edge $-1 -1 $-1 $189 -20 $190 20 $130 $191 forward @7 unknown #
coedge $-1 -1 $-1 $91 $90 $192 $193 forward $39 $-1 #
coedge $-1 -1 $-1 $194 $195 $90 $134 reversed $179 $-1 #
edge $-1 -1 $-1 $141 -20 $196 20 $133 $197 forward @7 unknown #
coedge $-1 -1 $-1 $127 $198 $91 $136 reversed $87 $-1 #
edge $-1 -1 $-1 $199 -20 $140 20 $135 $200 forward @7 unknown #
coedge $-1 -1 $-1 $130 $92 $198 $201 forward $139 $-1 #
coedge $-1 -1 $-1 $92 $130 $194 $202 reversed $139 $-1 #
loop $-1 -1 $-1 $-1 $137 $178 #
vertex $-1 -1 $-1 $93 $203 #
vertex $-1 -1 $-1 $93 $204 #
straight-curve $-1 -1 $-1 20 0 19.999999999999993 0 1 0 I I #
coedge $-1 -1 $-1 $143 $143 $97 $144 forward $94 $-1 #
edge $-1 -1 $-1 $205 0 $205 6.2831853071795862 $143 $206 forward @7 unknown #
vertex $-1 -1 $-1 $98 $207 #
ellipse-curve $-1 -1 $-1 0 0 -17.499999999999993 0 0 -1 10 0 0 1 I I #
face $-1 -1 $-1 $208 $209 $23 $-1 $210 forward single #
loop $-1 -1 $-1 $-1 $211 $99 #
plane-surface $-1 -1 $-1 20 20 -15 1 0 0 0 0 -1 forward_v I I I I #
coedge $-1 -1 $-1 $212 $213 $214 $215 forward $100 $-1 #
coedge $-1 -1 $-1 $216 $102 $213 $217 reversed $67 $-1 #
coedge $-1 -1 $-1 $102 $216 $218 $219 forward $67 $-1 #
coedge $-1 -1 $-1 $220 $214 $102 $154 reversed $221 $-1 #
edge $-1 -1 $-1 $222 -20 $223 20 $102 $224 forward @7 unknown #
coedge $-1 -1 $-1 $155 $155 $103 $156 forward $225 $-1 #
edge $226 -1 $-1 $227 0 $227 6.2831853071795862 $103 $228 forward @7 unknown #
loop $-1 -1 $-1 $-1 $104 $208 #
vertex $-1 -1 $-1 $105 $229 #
ellipse-curve $-1 -1 $-1 2.8421709430404007e-014 3.5527136788005009e-014 19.999999999999986 0 0 1 15 0 0 1 I I #
model_id-kcp-attrib $-1 -1 $-1 $-1 $107 1 1021323979 1021323979 -636092415 7 #
face $230 -1 $-1 $231 $232 $8 $-1 $233 reversed single #
loop $-1 -1 $-1 $-1 $234 $107 #
plane-surface $-1 -1 $-1 150.00000000000006 40.000000000000028 12.500000000000007 0 1 0 0 0 0.99999999999999989 forward_v I I I I #
coedge $-1 -1 $-1 $235 $236 $166 $237 forward $108 $-1 #
coedge $-1 -1 $-1 $238 $111 $234 $239 reversed $73 $-1 #
coedge $-1 -1 $-1 $111 $238 $164 $237 reversed $73 $-1 #
coedge $-1 -1 $-1 $240 $241 $111 $168 reversed $232 $-1 #
edge $242 -1 $-1 $243 -20.000000000000004 $244 20.000000000000004 $111 $245 forward @7 unknown #
attrib_edge_convexity-kcp-attrib $-1 -1 $246 $-1 $113 1 #
vertex $-1 -1 $-1 $113 $247 #
ellipse-curve $-1 -1 $-1 150.00000000000009 60.000000000000064 49.999999999999993 0 0 1 15 0 0 1 I I #
convexity-sys-attrib $-1 -1 $-1 $114 $79 #
point $-1 -1 $-1 165.00000000000009 60.000000000000064 15 #
convexity-sys-attrib $-1 -1 $-1 $117 $80 #
point $-1 -1 $-1 160.00000000296495 60.00000000296501 49.999999999999993 #
model_id-kcp-attrib $-1 -1 $-1 $-1 $120 1 1021323979 1021323979 -636092415 11 #
model_id-kcp-attrib $-1 -1 $-1 $-1 $124 1 1021323979 1021323979 -636092414 3 #
face $248 -1 $-1 $-1 $139 $19 $-1 $249 reversed single #
loop $-1 -1 $-1 $-1 $194 $124 #
plane-surface $-1 -1 $-1 0 20 0 0 -1 0 0 0 -1 forward_v I I I I #
coedge $-1 -1 $-1 $250 $192 $195 $251 forward $125 $-1 #
coedge $-1 -1 $-1 $198 $127 $128 $186 reversed $87 $-1 #
coedge $-1 -1 $-1 $192 $250 $127 $184 reversed $125 $-1 #
edge $-1 -1 $-1 $199 -19.999999999999993 $252 19.999999999999993 $183 $253 forward @7 unknown #
coedge $-1 -1 $-1 $129 $128 $250 $254 forward $58 $-1 #
edge $-1 -1 $-1 $190 -20 $252 20 $182 $255 forward @7 unknown #
coedge $-1 -1 $-1 $195 $194 $129 $188 reversed $179 $-1 #
edge $-1 -1 $-1 $256 -20 $189 20 $187 $257 forward @7 unknown #
vertex $-1 -1 $-1 $131 $258 #
vertex $-1 -1 $-1 $201 $259 #
straight-curve $-1 -1 $-1 20 0 -19.999999999999993 0 -1 0 I I #
coedge $-1 -1 $-1 $181 $183 $132 $193 reversed $125 $-1 #
edge $-1 -1 $-1 $196 -20 $199 20 $192 $260 forward @7 unknown #
coedge $-1 -1 $-1 $187 $133 $138 $202 forward $179 $-1 #
coedge $-1 -1 $-1 $133 $187 $181 $251 reversed $179 $-1 #
vertex $-1 -1 $-1 $134 $261 #
straight-curve $-1 -1 $-1 0 20 19.999999999999993 -1 0 0 I I #
coedge $-1 -1 $-1 $135 $182 $137 $201 reversed $87 $-1 #
vertex $-1 -1 $-1 $193 $262 #
straight-curve $-1 -1 $-1 0 -20 19.999999999999993 1 0 0 I I #
edge $-1 -1 $-1 $140 -19.999999999999993 $190 19.999999999999993 $137 $263 forward @7 unknown #
edge $-1 -1 $-1 $141 -19.999999999999993 $189 19.999999999999993 $138 $264 forward @7 unknown #
point $-1 -1 $-1 20 -20 19.999999999999993 #
point $-1 -1 $-1 20 20 19.999999999999993 #
vertex $-1 -1 $-1 $144 $265 #
ellipse-curve $-1 -1 $-1 0 0 17.499999999999993 0 0 1 10 0 0 1 I I #
point $-1 -1 $-1 10 0 -17.499999999999993 #
face $-1 -1 $-1 $266 $221 $23 $-1 $267 forward single #
loop $-1 -1 $-1 $-1 $268 $147 #
plane-surface $-1 -1 $-1 20 -20 -15 0 -1 0 0 0 -1 forward_v I I I I #
coedge $-1 -1 $-1 $269 $270 $271 $272 forward $148 $-1 #
coedge $-1 -1 $-1 $273 $150 $270 $274 reversed $100 $-1 #
coedge $-1 -1 $-1 $150 $273 $151 $217 forward $100 $-1 #
coedge $-1 -1 $-1 $153 $271 $150 $215 reversed $221 $-1 #
edge $-1 -1 $-1 $223 -20 $275 20 $150 $276 forward @7 unknown #
coedge $-1 -1 $-1 $152 $151 $277 $278 reversed $67 $-1 #
edge $-1 -1 $-1 $279 0 $223 34.999999999999986 $213 $280 forward @7 unknown #
coedge $-1 -1 $-1 $281 $268 $152 $219 reversed $209 $-1 #
edge $-1 -1 $-1 $282 0 $222 34.999999999999986 $152 $283 forward @7 unknown #
coedge $-1 -1 $-1 $271 $153 $268 $284 reversed $221 $-1 #
loop $-1 -1 $-1 $157 $153 $208 #
vertex $-1 -1 $-1 $219 $285 #
vertex $-1 -1 $-1 $217 $286 #
straight-curve $-1 -1 $-1 -20 0 19.999999999999986 0 1 0 I I #
loop $-1 -1 $-1 $-1 $155 $266 #
convexity-sys-attrib $-1 -1 $-1 $-1 $156 #
vertex $-1 -1 $-1 $156 $287 #
ellipse-curve $-1 -1 $-1 2.8421709430404007e-014 3.5527136788005009e-014 -15 0 0 1 15 0 0 1 I I #
point $-1 -1 $-1 15.000000000000028 3.5527136788005009e-014 19.999999999999986 #
model_id-kcp-attrib $-1 -1 $-1 $-1 $161 1 1021323979 1021323979 -636092415 8 #
face $288 -1 $-1 $289 $290 $8 $-1 $291 reversed single #
loop $-1 -1 $-1 $-1 $292 $161 #
plane-surface $-1 -1 $-1 130.00000000000006 60.000000000000028 12.500000000000007 1 0 0 0 0.99999999999999989 0 forward_v I I I I #
coedge $-1 -1 $-1 $293 $294 $165 $239 forward $162 $-1 #
coedge $-1 -1 $-1 $295 $164 $296 $297 forward $108 $-1 #
coedge $-1 -1 $-1 $164 $295 $240 $298 forward $108 $-1 #
edge $299 -1 $-1 $243 -20.000000000000004 $300 20.000000000000004 $166 $301 forward @7 unknown #
coedge $-1 -1 $-1 $166 $165 $302 $303 reversed $73 $-1 #
edge $304 -1 $-1 $305 -20.000000000000004 $244 20.000000000000004 $165 $306 forward @7 unknown #
coedge $-1 -1 $-1 $292 $167 $236 $298 reversed $232 $-1 #
coedge $-1 -1 $-1 $167 $292 $293 $307 reversed $232 $-1 #
attrib_edge_convexity-kcp-attrib $-1 -1 $308 $-1 $168 1 #
vertex $-1 -1 $-1 $237 $309 #
vertex $-1 -1 $-1 $168 $310 #
straight-curve $-1 -1 $-1 130.00000000000006 60.000000000000028 15.000000000000007 0 -0.99999999999999989 0 I I #
convexity-sys-attrib $-1 -1 $-1 $169 $113 #
point $-1 -1 $-1 165.00000000000009 60.000000000000064 49.999999999999993 #
model_id-kcp-attrib $-1 -1 $-1 $-1 $178 1 1021323979 1021323979 -636092414 7 #
plane-surface $-1 -1 $-1 20 0 0 -1 0 0 0 0 1 forward_v I I I I #
coedge $-1 -1 $-1 $183 $181 $185 $254 reversed $125 $-1 #
edge $-1 -1 $-1 $196 -19.999999999999993 $256 19.999999999999993 $195 $311 forward @7 unknown #
vertex $-1 -1 $-1 $254 $312 #
straight-curve $-1 -1 $-1 -20 -20 0 0 0 -1 I I #
edge $-1 -1 $-1 $252 -20 $256 20 $250 $313 forward @7 unknown #
straight-curve $-1 -1 $-1 0 -20 -19.999999999999993 -1 0 0 I I #
vertex $-1 -1 $-1 $188 $314 #
straight-curve $-1 -1 $-1 0 20 -19.999999999999993 1 0 0 I I #
point $-1 -1 $-1 20 20 -19.999999999999993 #
point $-1 -1 $-1 20 -20 -19.999999999999993 #
straight-curve $-1 -1 $-1 -20 0 19.999999999999993 0 -1 0 I I #
point $-1 -1 $-1 -20 20 19.999999999999993 #
point $-1 -1 $-1 -20 -20 19.999999999999993 #
straight-curve $-1 -1 $-1 20 -20 0 0 0 -1 I I #
straight-curve $-1 -1 $-1 20 20 0 0 0 -1 I I #
point $-1 -1 $-1 10 0 17.499999999999993 #
face $-1 -1 $-1 $-1 $315 $23 $-1 $316 reversed single #
plane-surface $-1 -1 $-1 0.50548995811623809 1.2926118668289074e-014 19.999999999999986 0 0 1 1 0 0 forward_v I I I I #
coedge $-1 -1 $-1 $218 $317 $220 $284 forward $209 $-1 #
coedge $-1 -1 $-1 $318 $211 $317 $319 reversed $148 $-1 #
coedge $-1 -1 $-1 $211 $318 $212 $274 forward $148 $-1 #
coedge $-1 -1 $-1 $214 $220 $211 $272 reversed $221 $-1 #
edge $-1 -1 $-1 $275 -20 $320 20 $211 $321 forward @7 unknown #
coedge $-1 -1 $-1 $213 $212 $322 $323 reversed $100 $-1 #
edge $-1 -1 $-1 $324 0 $275 34.999999999999986 $270 $325 forward @7 unknown #
vertex $-1 -1 $-1 $274 $326 #
straight-curve $-1 -1 $-1 0 20 19.999999999999986 1 0 0 I I #
coedge $-1 -1 $-1 $322 $327 $216 $278 forward $315 $-1 #
edge $328 -1 $-1 $282 -20 $279 20 $216 $329 forward @7 unknown #
vertex $-1 -1 $-1 $278 $330 #
straight-curve $-1 -1 $-1 -20 20 -15 0 0 1 I I #
coedge $-1 -1 $-1 $317 $218 $327 $331 reversed $209 $-1 #
vertex $-1 -1 $-1 $331 $332 #
straight-curve $-1 -1 $-1 -20 -20 -15 0 0 1 I I #
edge $-1 -1 $-1 $320 -20 $222 20 $268 $333 forward @7 unknown #
point $-1 -1 $-1 -20 -20 19.999999999999986 #
point $-1 -1 $-1 -20 20 19.999999999999986 #
point $-1 -1 $-1 15.000000000000028 3.5527136788005009e-014 -15 #
model_id-kcp-attrib $-1 -1 $-1 $-1 $231 1 1021323979 1021323979 -636092415 9 #
face $334 -1 $-1 $120 $335 $8 $-1 $336 reversed single #
loop $-1 -1 $-1 $-1 $337 $231 #
plane-surface $-1 -1 $-1 150.00000000000006 60.000000000000028 10.000000000000007 0 0 1 0 -0.99999999999999989 0 forward_v I I I I #
coedge $-1 -1 $-1 $241 $240 $338 $339 forward $232 $-1 #
coedge $-1 -1 $-1 $340 $234 $241 $307 forward $162 $-1 #
coedge $-1 -1 $-1 $234 $340 $341 $342 forward $162 $-1 #
coedge $-1 -1 $-1 $236 $235 $343 $344 forward $108 $-1 #
coedge $-1 -1 $-1 $302 $345 $235 $297 reversed $335 $-1 #
edge $346 -1 $-1 $300 -2.5000000000000004 $347 2.5000000000000004 $296 $348 forward @7 unknown #
edge $349 -1 $-1 $350 -2.5000000000000004 $243 2.5000000000000004 $240 $351 forward @7 unknown #
attrib_edge_convexity-kcp-attrib $-1 -1 $352 $-1 $237 1 #
vertex $-1 -1 $-1 $237 $353 #
straight-curve $-1 -1 $-1 150.00000000000006 80.000000000000028 15.000000000000007 0.99999999999999989 0 0 I I #
coedge $-1 -1 $-1 $341 $296 $238 $303 forward $335 $-1 #
edge $354 -1 $-1 $300 -20.000000000000004 $305 20.000000000000004 $238 $355 forward @7 unknown #
attrib_edge_convexity-kcp-attrib $-1 -1 $356 $-1 $239 1 #
vertex $-1 -1 $-1 $239 $357 #
straight-curve $-1 -1 $-1 150.00000000000006 40.000000000000028 15.000000000000007 -0.99999999999999989 0 0 I I #
edge $358 -1 $-1 $244 -2.5000000000000004 $359 2.5000000000000004 $241 $360 forward @7 unknown #
convexity-sys-attrib $-1 -1 $-1 $242 $168 #
point $-1 -1 $-1 130.00000000000006 80.000000000000028 15.000000000000007 #
point $-1 -1 $-1 130.00000000000006 40.000000000000028 15.000000000000007 #
straight-curve $-1 -1 $-1 -20 20 0 0 0 -1 I I #
point $-1 -1 $-1 -20 -20 -19.999999999999993 #
straight-curve $-1 -1 $-1 -20 0 -19.999999999999993 0 1 0 I I #
point $-1 -1 $-1 -20 20 -19.999999999999993 #
loop $-1 -1 $-1 $225 $327 $266 #
plane-surface $-1 -1 $-1 0.50548995811623809 1.2926118668289074e-014 -15.000000000000002 0 0 1 1 0 0 forward_v I I I I #
coedge $-1 -1 $-1 $268 $281 $269 $319 forward $209 $-1 #
coedge $-1 -1 $-1 $270 $269 $361 $362 reversed $148 $-1 #
edge $-1 -1 $-1 $363 0 $320 34.999999999999986 $317 $364 forward @7 unknown #
vertex $-1 -1 $-1 $319 $365 #
straight-curve $-1 -1 $-1 20 0 19.999999999999986 0 -1 0 I I #
coedge $-1 -1 $-1 $361 $277 $273 $323 forward $315 $-1 #
edge $366 -1 $-1 $279 -20 $324 20 $273 $367 forward @7 unknown #
vertex $-1 -1 $-1 $323 $368 #
straight-curve $-1 -1 $-1 20 20 -15 0 0 1 I I #
point $-1 -1 $-1 20 20 19.999999999999986 #
coedge $-1 -1 $-1 $277 $361 $281 $331 forward $315 $-1 #
convexity-sys-attrib $-1 -1 $-1 $-1 $278 #
straight-curve $-1 -1 $-1 -20 0 -15 0 1 0 I I #
point $-1 -1 $-1 -20 20 -15 #
edge $369 -1 $-1 $363 -20 $282 20 $281 $370 forward @7 unknown #
point $-1 -1 $-1 -20 -20 -15 #
straight-curve $-1 -1 $-1 0 -20 19.999999999999986 -1 0 0 I I #
model_id-kcp-attrib $-1 -1 $-1 $-1 $289 1 1021323979 1021323979 -636092415 10 #
loop $-1 -1 $-1 $-1 $302 $289 #
plane-surface $-1 -1 $-1 170.00000000000006 60.000000000000028 12.500000000000007 -1 0 0 0 -0.99999999999999989 0 forward_v I I I I #
coedge $-1 -1 $-1 $371 $343 $345 $372 forward $290 $-1 #
coedge $-1 -1 $-1 $343 $371 $292 $339 reversed $290 $-1 #
edge $373 -1 $-1 $350 -20.000000000000004 $359 20.000000000000004 $338 $374 forward @7 unknown #
coedge $-1 -1 $-1 $294 $293 $371 $375 forward $162 $-1 #
coedge $-1 -1 $-1 $345 $302 $294 $342 reversed $335 $-1 #
edge $-1 -1 $-1 $376 -2.5000000000000004 $305 2.5000000000000004 $341 $377 forward @7 unknown #
coedge $-1 -1 $-1 $337 $338 $295 $344 reversed $290 $-1 #
edge $378 -1 $-1 $347 -20.000000000000004 $350 20.000000000000004 $343 $379 forward @7 unknown #
coedge $-1 -1 $-1 $296 $341 $337 $372 reversed $335 $-1 #
attrib_edge_convexity-kcp-attrib $-1 -1 $380 $-1 $297 1 #
vertex $-1 -1 $-1 $297 $381 #
straight-curve $-1 -1 $-1 170.00000000000006 80.000000000000028 12.500000000000007 0 0 -0.99999999999999989 I I #
attrib_edge_convexity-kcp-attrib $-1 -1 $382 $-1 $298 1 #
vertex $-1 -1 $-1 $344 $383 #
straight-curve $-1 -1 $-1 130.00000000000006 80.000000000000028 12.500000000000007 0 0 0.99999999999999989 I I #
convexity-sys-attrib $-1 -1 $-1 $299 $237 #
point $-1 -1 $-1 170.00000000000006 80.000000000000028 15.000000000000007 #
attrib_edge_convexity-kcp-attrib $-1 -1 $384 $-1 $303 1 #
straight-curve $-1 -1 $-1 170.00000000000006 60.000000000000028 15.000000000000007 0 -0.99999999999999989 0 I I #
convexity-sys-attrib $-1 -1 $-1 $304 $239 #
point $-1 -1 $-1 170.00000000000006 40.000000000000028 15.000000000000007 #
attrib_edge_convexity-kcp-attrib $-1 -1 $385 $-1 $307 1 #
vertex $-1 -1 $-1 $375 $386 #
straight-curve $-1 -1 $-1 130.00000000000006 40.000000000000028 12.500000000000007 0 0 -0.99999999999999989 I I #
coedge $-1 -1 $-1 $327 $322 $318 $362 forward $315 $-1 #
edge $387 -1 $-1 $324 -20 $363 20 $318 $388 forward @7 unknown #
vertex $-1 -1 $-1 $331 $389 #
straight-curve $-1 -1 $-1 20 -20 -15 0 0 1 I I #
point $-1 -1 $-1 20 -20 19.999999999999986 #
convexity-sys-attrib $-1 -1 $-1 $-1 $323 #
straight-curve $-1 -1 $-1 0 20 -15 1 0 0 I I #
point $-1 -1 $-1 20 20 -15 #
convexity-sys-attrib $-1 -1 $-1 $-1 $331 #
straight-curve $-1 -1 $-1 0 -20 -15 -1 0 0 I I #
coedge $-1 -1 $-1 $338 $337 $340 $375 reversed $290 $-1 #
edge $-1 -1 $-1 $347 -20.000000000000004 $376 20.000000000000004 $345 $390 forward @7 unknown #
attrib_edge_convexity-kcp-attrib $-1 -1 $391 $-1 $339 1 #
straight-curve $-1 -1 $-1 130.00000000000006 60.000000000000028 10.000000000000007 0 -0.99999999999999989 0 I I #
edge $-1 -1 $-1 $359 -20.000000000000004 $376 20.000000000000004 $371 $392 forward @7 unknown #
vertex $-1 -1 $-1 $342 $393 #
straight-curve $-1 -1 $-1 170.00000000000006 40.000000000000028 12.500000000000007 0 0 0.99999999999999989 I I #
attrib_edge_convexity-kcp-attrib $-1 -1 $394 $-1 $344 1 #
straight-curve $-1 -1 $-1 150.00000000000006 80.000000000000028 10.000000000000007 -0.99999999999999989 0 0 I I #
convexity-sys-attrib $-1 -1 $-1 $346 $297 #
point $-1 -1 $-1 170.00000000000006 80.000000000000028 10.000000000000007 #
convexity-sys-attrib $-1 -1 $-1 $349 $298 #
point $-1 -1 $-1 130.00000000000006 80.000000000000028 10.000000000000007 #
convexity-sys-attrib $-1 -1 $-1 $354 $303 #
convexity-sys-attrib $-1 -1 $-1 $358 $307 #
point $-1 -1 $-1 130.00000000000006 40.000000000000028 10.000000000000007 #
convexity-sys-attrib $-1 -1 $-1 $-1 $362 #
straight-curve $-1 -1 $-1 20 0 -15 0 -1 0 I I #
point $-1 -1 $-1 20 -20 -15 #
straight-curve $-1 -1 $-1 170.00000000000006 60.000000000000028 10.000000000000007 0 -0.99999999999999989 0 I I #
convexity-sys-attrib $-1 -1 $-1 $373 $339 #
straight-curve $-1 -1 $-1 150.00000000000006 40.000000000000028 10.000000000000007 0.99999999999999989 0 0 I I #
point $-1 -1 $-1 170.00000000000006 40.000000000000028 10.000000000000007 #
convexity-sys-attrib $-1 -1 $-1 $378 $344 #
End-of-ACIS-data 