700 0 2 0           
24 FBMach with ACIS - 7.0.3 13 ACIS 7.0.3 NT 24 Mon May 13 17:06:21 2002 
1 9.9999999999999995e-007 1e-010 
body $2 -1 $-1 $3 $-1 $4 #
bdycol-kcp $-1 -1 1 4 $5 $6 $7 $8 #
model_id-kcp-attrib $-1 -1 $-1 $-1 $0 1 1021323980 1021323980 812384257 1 #
lump $-1 -1 $-1 $-1 $9 $0 #
transform $-1 -1 1 0 0 0 1 0 0 0 1 0 0 0 1 rotate no_reflect no_shear #
body $10 -1 $-1 $11 $-1 $12 #
body $13 -1 $-1 $14 $-1 $15 #
body $16 -1 $-1 $17 $-1 $18 #
body $19 -1 $-1 $20 $-1 $21 #
shell $-1 -1 $-1 $-1 $-1 $22 $-1 $3 #
model_id-kcp-attrib $-1 -1 $-1 $-1 $5 1 1021323980 1021323980 812384258 1 #
lump $-1 -1 $-1 $-1 $23 $5 #
transform $-1 -1 1 0 0 0 1 0 0 0 1 150 60.000000000000028 150.00000000000006 1 no_rotate no_reflect no_shear #
rgb_color-st-attrib $-1 -1 $24 $-1 $6 0.5 1 1 #
lump $-1 -1 $-1 $-1 $25 $6 #
transform $-1 -1 1 0 0 0 1 0 0 0 1 150 60.000000000000028 150.00000000000006 1 no_rotate no_reflect no_shear #
rgb_color-st-attrib $-1 -1 $26 $-1 $7 1 0.5 1 #
lump $-1 -1 $-1 $-1 $27 $7 #
transform $-1 -1 1 0 0 0 1 0 0 0 1 150 60.000000000000028 150.00000000000006 1 no_rotate no_reflect no_shear #
rgb_color-st-attrib $-1 -1 $28 $-1 $8 1 0.5 1 #
lump $-1 -1 $-1 $-1 $29 $8 #
transform $-1 -1 1 0 0 0 1 0 0 0 1 150 60.000000000000028 150.00000000000006 1 no_rotate no_reflect no_shear #
face $30 -1 $-1 $31 $32 $9 $-1 $33 forward single #
shell $-1 -1 $-1 $-1 $-1 $34 $-1 $11 #
model_id-kcp-attrib $-1 -1 $-1 $13 $6 1 1021323980 1021323980 816971779 1 #
shell $-1 -1 $-1 $-1 $-1 $35 $-1 $14 #
model_id-kcp-attrib $-1 -1 $-1 $16 $7 1 1021323980 1021323981 805306373 1 #
shell $-1 -1 $-1 $-1 $-1 $36 $-1 $17 #
model_id-kcp-attrib $-1 -1 $-1 $19 $8 1 1021323980 1021323981 814219268 1 #
shell $-1 -1 $-1 $-1 $-1 $37 $-1 $20 #
model_id-kcp-attrib $-1 -1 $-1 $-1 $22 1 1021323980 1021323980 812384257 2 #
face $38 -1 $-1 $39 $40 $9 $-1 $41 forward single #
loop $-1 -1 $-1 $42 $43 $22 #
plane-surface $-1 -1 $-1 150 60.000000000000028 150.00000000000003 0 0 -1 -0.99999999999999989 0 0 forward_v I I I I #
face $44 -1 $-1 $45 $46 $23 $-1 $47 forward single #
face $-1 -1 $-1 $48 $49 $25 $-1 $50 reversed single #
face $-1 -1 $-1 $51 $52 $27 $-1 $53 forward single #
face $-1 -1 $-1 $54 $55 $29 $-1 $56 forward single #
model_id-kcp-attrib $-1 -1 $-1 $-1 $31 1 1021323980 1021323980 812384257 3 #
face $57 -1 $-1 $58 $59 $9 $-1 $60 forward single #
loop $-1 -1 $-1 $61 $62 $31 #
cone-surface $-1 -1 $-1 150 60.000000000000028 167.50000000000003 0 0 -1 -9.9999999999999982 0 0 1 I I 0 1 9.9999999999999982 forward I I I I #
loop $-1 -1 $-1 $-1 $63 $22 #
coedge $-1 -1 $-1 $43 $43 $64 $65 forward $32 $-1 #
model_id-kcp-attrib $-1 -1 $-1 $-1 $34 1 1021323980 1021323980 812384258 2 #
face $66 -1 $-1 $67 $68 $23 $-1 $69 reversed single #
loop $-1 -1 $-1 $-1 $70 $34 #
plane-surface $-1 -1 $-1 0 0 34.999999999999986 0 0 1 1 0 0 forward_v I I I I #
face $-1 -1 $-1 $71 $72 $25 $-1 $50 reversed single #
loop $-1 -1 $-1 $-1 $73 $35 #
cone-surface $-1 -1 $-1 0 0 34.999999999999972 0 0 1 9.9999999999999982 1.2246063538223771e-015 0 1 I I 0 1 9.9999999999999982 forward I I I I #
face $-1 -1 $-1 $74 $75 $27 $-1 $76 forward single #
loop $-1 -1 $-1 $-1 $77 $36 #
plane-surface $-1 -1 $-1 2.5 4.3301270189221981 -20.000000000000028 -1 0 0 0 0 1 forward_v I I I I #
face $-1 -1 $-1 $78 $79 $29 $-1 $80 forward single #
loop $-1 -1 $-1 $81 $82 $37 #
cone-surface $-1 -1 $-1 0 1.4210854715202004e-014 -2.8421709430404007e-014 0 0 -1 -4.9999999999999991 0 0 1 I I 0 -1 4.9999999999999991 forward I I I I #
model_id-kcp-attrib $-1 -1 $-1 $-1 $39 1 1021323980 1021323980 812384257 4 #
face $83 -1 $-1 $84 $85 $9 $-1 $86 reversed single #
loop $-1 -1 $-1 $-1 $87 $39 #
plane-surface $-1 -1 $-1 150 60.000000000000028 185.00000000000003 0 0 1 0.99999999999999989 0 0 forward_v I I I I #
loop $-1 -1 $-1 $-1 $64 $31 #
coedge $-1 -1 $-1 $62 $62 $87 $88 reversed $40 $-1 #
coedge $-1 -1 $-1 $63 $63 $89 $90 reversed $42 $-1 #
coedge $-1 -1 $-1 $64 $64 $43 $65 reversed $61 $-1 #
edge $91 -1 $-1 $92 0 $92 6.2831853071795862 $43 $93 forward @7 unknown #
model_id-kcp-attrib $-1 -1 $-1 $-1 $45 1 1021323980 1021323980 812384258 3 #
face $-1 -1 $-1 $94 $95 $23 $-1 $96 reversed single #
loop $-1 -1 $-1 $-1 $97 $45 #
plane-surface $-1 -1 $-1 0 0 -34.999999999999986 0 0 1 1 0 0 forward_v I I I I #
coedge $-1 -1 $-1 $98 $99 $100 $101 forward $46 $-1 #
face $-1 -1 $-1 $102 $103 $25 $-1 $50 reversed single #
loop $-1 -1 $-1 $-1 $104 $48 #
coedge $-1 -1 $-1 $105 $106 $107 $108 reversed $49 $-1 #
face $-1 -1 $-1 $109 $110 $27 $-1 $111 forward single #
loop $-1 -1 $-1 $-1 $112 $51 #
cone-surface $-1 -1 $-1 0 1.4210854715202004e-014 -20.000000000000057 0 0 -1 -4.9999999999999991 0 0 1 I I 0 -1 4.9999999999999991 forward I I I I #
coedge $-1 -1 $-1 $113 $114 $115 $116 forward $52 $-1 #
face $-1 -1 $-1 $117 $118 $29 $-1 $119 reversed single #
loop $-1 -1 $-1 $120 $121 $54 #
cone-surface $-1 -1 $-1 0 0 -2.8421709430404007e-014 0 0 -1 9.9999999999999982 1.2246063538223771e-015 0 1 I I 0 1 9.9999999999999982 forward I I I I #
loop $-1 -1 $-1 $-1 $122 $37 #
coedge $-1 -1 $-1 $82 $82 $123 $124 forward $55 $-1 #
model_id-kcp-attrib $-1 -1 $-1 $-1 $58 1 1021323980 1021323980 812384257 5 #
face $125 -1 $-1 $126 $127 $9 $-1 $128 reversed single #
loop $-1 -1 $-1 $-1 $129 $58 #
plane-surface $-1 -1 $-1 142.5 67 130 0 0 1 0.99999999999999989 0 0 forward_v I I I I #
coedge $-1 -1 $-1 $87 $87 $62 $88 forward $59 $-1 #
edge $130 -1 $-1 $131 0 $131 6.2831853071795862 $87 $132 forward @7 unknown #
coedge $-1 -1 $-1 $89 $89 $63 $90 forward $133 $-1 #
edge $134 -1 $-1 $135 -6.2831853071795862 $135 0 $89 $136 reversed @7 unknown #
attrib_edge_convexity-kcp-attrib $-1 -1 $137 $-1 $65 1 #
vertex $-1 -1 $-1 $65 $138 #
ellipse-curve $-1 -1 $-1 150 60.000000000000028 150.00000000000003 0 0 -1 -9.9999999999999982 0 0 1 I I #
face $-1 -1 $-1 $139 $140 $23 $-1 $141 reversed single #
loop $-1 -1 $-1 $-1 $142 $67 #
plane-surface $-1 -1 $-1 0 -10 0 0 1 0 0 0 1 forward_v I I I I #
coedge $-1 -1 $-1 $143 $144 $145 $146 forward $68 $-1 #
coedge $-1 -1 $-1 $147 $70 $148 $149 forward $46 $-1 #
coedge $-1 -1 $-1 $70 $147 $150 $151 forward $46 $-1 #
coedge $-1 -1 $-1 $152 $153 $70 $101 reversed $154 $-1 #
edge $-1 -1 $-1 $155 -10 $156 10 $100 $157 forward @7 unknown #
face $-1 -1 $-1 $158 $159 $25 $-1 $50 reversed single #
loop $-1 -1 $-1 $-1 $160 $71 #
coedge $-1 -1 $-1 $161 $162 $163 $164 reversed $72 $-1 #
coedge $-1 -1 $-1 $165 $73 $166 $167 reversed $49 $-1 #
coedge $-1 -1 $-1 $73 $165 $168 $169 reversed $49 $-1 #
coedge $-1 -1 $-1 $170 $171 $172 $108 forward $173 $-1 #
edge $-1 -1 $-1 $174 -69.999999999999957 $175 1.4210854715202004e-014 $107 $176 forward @7 unknown #
face $-1 -1 $-1 $177 $178 $27 $-1 $179 forward single #
loop $-1 -1 $-1 $-1 $180 $74 #
plane-surface $-1 -1 $-1 -2.5 -4.3301270189221839 -20.000000000000057 1 0 0 0 0 -1 forward_v I I I I #
coedge $-1 -1 $-1 $181 $182 $183 $184 forward $75 $-1 #
coedge $-1 -1 $-1 $185 $77 $182 $186 reversed $52 $-1 #
coedge $-1 -1 $-1 $77 $185 $187 $188 forward $52 $-1 #
coedge $-1 -1 $-1 $189 $183 $77 $116 reversed $190 $-1 #
edge $-1 -1 $-1 $191 -8.3301270189222087 $192 0.33012701892216612 $77 $193 forward @7 unknown #
face $-1 -1 $-1 $-1 $194 $29 $-1 $195 forward single #
loop $-1 -1 $-1 $196 $197 $78 #
plane-surface $-1 -1 $-1 -0.75757575757575735 4.4710690589681396e-015 -20.000000000000028 0 0 1 1 0 0 forward_v I I I I #
loop $-1 -1 $-1 $-1 $198 $54 #
coedge $-1 -1 $-1 $121 $121 $197 $199 forward $79 $-1 #
coedge $-1 -1 $-1 $122 $122 $200 $201 reversed $81 $-1 #
coedge $-1 -1 $-1 $123 $123 $82 $124 reversed $196 $-1 #
edge $-1 -1 $-1 $202 2.0943951023931966 $202 8.3775804095727828 $82 $203 forward @7 unknown #
model_id-kcp-attrib $-1 -1 $-1 $-1 $84 1 1021323980 1021323980 812384257 6 #
face $204 -1 $-1 $205 $133 $9 $-1 $206 forward single #
loop $-1 -1 $-1 $-1 $207 $84 #
plane-surface $-1 -1 $-1 147.5 67 113 1 0 0 0 0 -0.99999999999999989 forward_v I I I I #
coedge $-1 -1 $-1 $208 $208 $209 $210 reversed $85 $-1 #
attrib_edge_convexity-kcp-attrib $-1 -1 $211 $-1 $88 1 #
vertex $-1 -1 $-1 $88 $212 #
ellipse-curve $-1 -1 $-1 150 60.000000000000028 185.00000000000003 0 0 1 -9.9999999999999982 0 0 1 I I #
loop $-1 -1 $-1 $213 $89 $126 #
attrib_edge_convexity-kcp-attrib $-1 -1 $214 $-1 $90 2 #
vertex $-1 -1 $-1 $90 $215 #
ellipse-curve $-1 -1 $-1 150 60.000000000000043 150.00000000000006 0 0 1 -4.9999999999999991 0 0 1 I I #
convexity-sys-attrib $-1 -1 $-1 $91 $65 #
point $-1 -1 $-1 140.00000000000003 60.000000000000028 150.00000000000003 #
face $-1 -1 $-1 $216 $217 $23 $-1 $218 reversed single #
loop $-1 -1 $-1 $-1 $219 $94 #
plane-surface $-1 -1 $-1 -10 0 0 1 0 0 0 0 -1 forward_v I I I I #
coedge $-1 -1 $-1 $220 $150 $221 $222 forward $95 $-1 #
coedge $-1 -1 $-1 $223 $97 $220 $224 forward $68 $-1 #
coedge $-1 -1 $-1 $97 $223 $225 $226 forward $68 $-1 #
coedge $-1 -1 $-1 $153 $152 $97 $146 reversed $154 $-1 #
edge $-1 -1 $-1 $227 -10 $228 10 $145 $229 forward @7 unknown #
coedge $-1 -1 $-1 $99 $98 $230 $231 forward $46 $-1 #
coedge $-1 -1 $-1 $232 $233 $98 $149 reversed $217 $-1 #
edge $-1 -1 $-1 $156 -10 $234 10 $148 $235 forward @7 unknown #
coedge $-1 -1 $-1 $142 $236 $99 $151 reversed $95 $-1 #
edge $-1 -1 $-1 $237 -10 $155 10 $150 $238 forward @7 unknown #
coedge $-1 -1 $-1 $145 $100 $236 $239 forward $154 $-1 #
coedge $-1 -1 $-1 $100 $145 $232 $240 reversed $154 $-1 #
loop $-1 -1 $-1 $-1 $152 $216 #
vertex $-1 -1 $-1 $101 $241 #
vertex $-1 -1 $-1 $101 $242 #
straight-curve $-1 -1 $-1 10 0 34.999999999999986 0 1 0 I I #
face $-1 -1 $-1 $243 $244 $25 $-1 $245 reversed single #
loop $-1 -1 $-1 $-1 $246 $102 #
coedge $-1 -1 $-1 $247 $248 $249 $250 reversed $103 $-1 #
coedge $-1 -1 $-1 $251 $104 $252 $253 reversed $72 $-1 #
coedge $-1 -1 $-1 $104 $251 $73 $108 forward $72 $-1 #
coedge $-1 -1 $-1 $254 $255 $104 $164 forward $256 $-1 #
edge $-1 -1 $-1 $257 -3.1415926535897931 $175 -1.5707963267948966 $163 $258 forward @7 unknown #
coedge $-1 -1 $-1 $106 $105 $248 $259 forward $49 $-1 #
coedge $-1 -1 $-1 $260 $261 $105 $167 forward $262 $-1 #
edge $-1 -1 $-1 $263 -1.2246063538223773e-016 $174 1.5707963267948966 $166 $264 forward @7 unknown #
coedge $-1 -1 $-1 $265 $266 $106 $169 forward $267 $-1 #
edge $-1 -1 $-1 $175 -1.5707963267948966 $268 1.2246063538223773e-016 $168 $258 forward @7 unknown #
coedge $-1 -1 $-1 $269 $107 $266 $270 reversed $173 $-1 #
coedge $-1 -1 $-1 $107 $269 $260 $271 reversed $173 $-1 #
coedge $-1 -1 $-1 $272 $273 $162 $108 reversed $274 $-1 #
loop $-1 -1 $-1 $-1 $107 $275 #
vertex $-1 -1 $-1 $271 $276 #
vertex $-1 -1 $-1 $277 $278 #
straight-curve $-1 -1 $-1 0 10 34.999999999999972 0 0 1 I I #
face $-1 -1 $-1 $279 $280 $27 $-1 $281 forward single #
loop $-1 -1 $-1 $-1 $282 $109 #
cone-surface $-1 -1 $-1 0 1.4210854715202004e-014 -20.000000000000057 0 0 -1 -4.9999999999999991 0 0 1 I I 0 -1 4.9999999999999991 forward I I I I #
coedge $-1 -1 $-1 $283 $284 $285 $286 forward $110 $-1 #
coedge $-1 -1 $-1 $287 $112 $284 $288 reversed $75 $-1 #
coedge $-1 -1 $-1 $112 $287 $113 $186 forward $75 $-1 #
coedge $-1 -1 $-1 $115 $285 $112 $184 reversed $190 $-1 #
edge $-1 -1 $-1 $192 -2.0943951023931957 $289 -1.0471975511965983 $112 $290 forward @7 unknown #
coedge $-1 -1 $-1 $114 $113 $291 $292 reversed $52 $-1 #
edge $293 -1 $-1 $294 0 $192 14.999999999999943 $182 $295 forward @7 unknown #
coedge $-1 -1 $-1 $296 $282 $114 $188 reversed $178 $-1 #
edge $297 -1 $-1 $298 0 $191 14.999999999999943 $114 $299 forward @7 unknown #
coedge $-1 -1 $-1 $285 $115 $282 $300 reversed $190 $-1 #
loop $-1 -1 $-1 $-1 $115 $279 #
vertex $-1 -1 $-1 $188 $301 #
vertex $-1 -1 $-1 $186 $302 #
straight-curve $-1 -1 $-1 2.5 -4.0000000000000107 -35 0 -1 0 I I #
loop $-1 -1 $-1 $303 $304 $117 #
plane-surface $-1 -1 $-1 -0.75757575757575735 4.4710690589681396e-015 -2.8421709430404007e-014 0 0 1 1 0 0 forward_v I I I I #
loop $-1 -1 $-1 $-1 $123 $78 #
coedge $-1 -1 $-1 $197 $197 $121 $199 reversed $118 $-1 #
coedge $-1 -1 $-1 $198 $198 $304 $305 reversed $120 $-1 #
edge $-1 -1 $-1 $306 -3.1415926535897931 $306 3.1415926535897931 $121 $307 forward @7 unknown #
coedge $-1 -1 $-1 $200 $200 $122 $201 forward $303 $-1 #
edge $308 -1 $-1 $309 0 $309 6.2831853071795862 $122 $310 forward @7 unknown #
vertex $-1 -1 $-1 $124 $311 #
ellipse-curve $-1 -1 $-1 0 1.4210854715202004e-014 -20.000000000000028 0 0 -1 -4.9999999999999991 0 0 1 I I #
model_id-kcp-attrib $-1 -1 $-1 $-1 $126 1 1021323980 1021323980 812384257 7 #
face $312 -1 $-1 $313 $314 $9 $-1 $315 reversed single #
cone-surface $-1 -1 $-1 150 60.000000000000043 132.50000000000006 0 0 -1 -4.9999999999999991 0 0 1 I I 0 1 4.9999999999999991 forward I I I I #
coedge $-1 -1 $-1 $316 $317 $318 $319 reversed $127 $-1 #
coedge $-1 -1 $-1 $129 $129 $317 $320 forward $85 $-1 #
coedge $-1 -1 $-1 $321 $318 $129 $210 forward $213 $-1 #
edge $322 -1 $-1 $323 -1.0471975511965983 $324 1.0471975511965983 $209 $325 forward @7 unknown #
convexity-sys-attrib $-1 -1 $-1 $130 $88 #
point $-1 -1 $-1 140.00000000000003 60.000000000000028 185.00000000000003 #
loop $-1 -1 $-1 $-1 $318 $126 #
convexity-sys-attrib $-1 -1 $-1 $134 $90 #
point $-1 -1 $-1 145 60.000000000000043 150.00000000000006 #
face $-1 -1 $-1 $-1 $154 $23 $-1 $326 reversed single #
loop $-1 -1 $-1 $-1 $232 $139 #
plane-surface $-1 -1 $-1 0 10 0 0 -1 0 0 0 -1 forward_v I I I I #
coedge $-1 -1 $-1 $327 $230 $233 $328 forward $140 $-1 #
coedge $-1 -1 $-1 $236 $142 $143 $224 reversed $95 $-1 #
coedge $-1 -1 $-1 $230 $327 $142 $222 reversed $140 $-1 #
edge $-1 -1 $-1 $237 -34.999999999999986 $329 34.999999999999986 $221 $330 forward @7 unknown #
coedge $-1 -1 $-1 $144 $143 $327 $331 forward $68 $-1 #
edge $-1 -1 $-1 $228 -10 $329 10 $220 $332 forward @7 unknown #
coedge $-1 -1 $-1 $233 $232 $144 $226 reversed $217 $-1 #
edge $-1 -1 $-1 $333 -10 $227 10 $225 $334 forward @7 unknown #
vertex $-1 -1 $-1 $146 $335 #
vertex $-1 -1 $-1 $239 $336 #
straight-curve $-1 -1 $-1 10 0 -34.999999999999986 0 -1 0 I I #
coedge $-1 -1 $-1 $219 $221 $147 $231 reversed $140 $-1 #
edge $-1 -1 $-1 $234 -10 $237 10 $230 $337 forward @7 unknown #
coedge $-1 -1 $-1 $225 $148 $153 $240 forward $217 $-1 #
coedge $-1 -1 $-1 $148 $225 $219 $328 reversed $217 $-1 #
vertex $-1 -1 $-1 $149 $338 #
straight-curve $-1 -1 $-1 0 10 34.999999999999986 -1 0 0 I I #
coedge $-1 -1 $-1 $150 $220 $152 $239 reversed $95 $-1 #
vertex $-1 -1 $-1 $231 $339 #
straight-curve $-1 -1 $-1 0 -10 34.999999999999986 1 0 0 I I #
edge $-1 -1 $-1 $155 -34.999999999999986 $228 34.999999999999986 $152 $340 forward @7 unknown #
edge $-1 -1 $-1 $156 -34.999999999999986 $227 34.999999999999986 $153 $341 forward @7 unknown #
point $-1 -1 $-1 10 -10 34.999999999999986 #
point $-1 -1 $-1 10 10 34.999999999999986 #
face $-1 -1 $-1 $342 $274 $25 $-1 $343 reversed single #
loop $-1 -1 $-1 $-1 $344 $158 #
plane-surface $-1 -1 $-1 10 0 0 -1 0 0 0 0 1 forward_v I I I I #
coedge $-1 -1 $-1 $345 $346 $347 $348 reversed $159 $-1 #
coedge $-1 -1 $-1 $349 $160 $346 $350 forward $103 $-1 #
coedge $-1 -1 $-1 $160 $349 $351 $259 reversed $103 $-1 #
coedge $-1 -1 $-1 $352 $353 $160 $250 forward $354 $-1 #
edge $-1 -1 $-1 $355 -1.5707963267948968 $263 -1.2246063538223773e-016 $249 $264 forward @7 unknown #
coedge $-1 -1 $-1 $162 $161 $356 $357 reversed $72 $-1 #
coedge $-1 -1 $-1 $358 $359 $360 $253 forward $361 $-1 #
edge $-1 -1 $-1 $362 -69.999999999999957 $257 1.4210854715202004e-014 $252 $363 forward @7 unknown #
coedge $-1 -1 $-1 $255 $163 $273 $277 forward $256 $-1 #
coedge $-1 -1 $-1 $163 $254 $358 $364 forward $256 $-1 #
loop $-1 -1 $-1 $-1 $163 $365 #
vertex $-1 -1 $-1 $366 $367 #
ellipse-curve $-1 -1 $-1 0 0 34.999999999999986 0 0 -1 9.9999999999999982 1.2246063538223771e-015 0 1 I I #
edge $-1 -1 $-1 $263 -69.999999999999957 $268 1.4210854715202004e-014 $351 $368 forward @7 unknown #
coedge $-1 -1 $-1 $261 $166 $171 $271 forward $262 $-1 #
coedge $-1 -1 $-1 $166 $260 $369 $370 forward $262 $-1 #
loop $-1 -1 $-1 $-1 $166 $371 #
vertex $-1 -1 $-1 $372 $373 #
ellipse-curve $-1 -1 $-1 0 0 -34.999999999999986 0 0 1 9.9999999999999982 1.2246063538223771e-015 0 1 I I #
coedge $-1 -1 $-1 $266 $168 $374 $375 forward $267 $-1 #
coedge $-1 -1 $-1 $168 $265 $170 $270 forward $267 $-1 #
loop $-1 -1 $-1 $-1 $168 $376 #
vertex $-1 -1 $-1 $375 $377 #
coedge $-1 -1 $-1 $171 $170 $378 $379 forward $173 $-1 #
edge $-1 -1 $-1 $380 -10 $175 0 $170 $381 forward @7 unknown #
edge $-1 -1 $-1 $174 0 $382 10 $171 $383 forward @7 unknown #
coedge $-1 -1 $-1 $384 $172 $385 $386 reversed $274 $-1 #
coedge $-1 -1 $-1 $172 $384 $254 $277 reversed $274 $-1 #
loop $-1 -1 $-1 $-1 $172 $243 #
face $-1 -1 $-1 $387 $173 $25 $-1 $343 reversed single #
point $-1 -1 $-1 0 10 -34.999999999999986 #
edge $-1 -1 $-1 $175 0 $388 10 $273 $381 forward @7 unknown #
point $-1 -1 $-1 0 10 34.999999999999986 #
face $-1 -1 $-1 $389 $390 $27 $-1 $391 reversed single #
loop $-1 -1 $-1 $392 $393 $177 #
cone-surface $-1 -1 $-1 0 0 -20.000000000000057 0 0 -1 9.9999999999999982 1.2246063538223771e-015 0 1 I I 0 1 9.9999999999999982 forward I I I I #
coedge $-1 -1 $-1 $187 $394 $189 $300 forward $178 $-1 #
coedge $-1 -1 $-1 $395 $180 $394 $396 reversed $110 $-1 #
coedge $-1 -1 $-1 $180 $395 $181 $288 forward $110 $-1 #
coedge $-1 -1 $-1 $183 $189 $180 $286 reversed $190 $-1 #
edge $-1 -1 $-1 $289 -7.8301270189221697 $397 0.83012701892222651 $180 $398 forward @7 unknown #
coedge $-1 -1 $-1 $182 $181 $399 $400 reversed $75 $-1 #
edge $401 -1 $-1 $402 0 $289 14.999999999999943 $284 $403 forward @7 unknown #
vertex $-1 -1 $-1 $288 $404 #
ellipse-curve $-1 -1 $-1 0 1.4210854715202004e-014 -35 0 0 -1 -4.9999999999999991 0 0 1 I I #
coedge $-1 -1 $-1 $399 $405 $185 $292 forward $406 $-1 #
edge $407 -1 $-1 $298 -8.3301270189222087 $294 0.33012701892216612 $185 $408 forward @7 unknown #
convexity-sys-attrib $-1 -1 $-1 $-1 $186 #
vertex $-1 -1 $-1 $292 $409 #
straight-curve $-1 -1 $-1 2.5 -4.3301270189221768 -20.000000000000028 0 0 -1 I I #
coedge $-1 -1 $-1 $394 $187 $405 $410 reversed $178 $-1 #
convexity-sys-attrib $-1 -1 $-1 $-1 $188 #
vertex $-1 -1 $-1 $410 $411 #
straight-curve $-1 -1 $-1 2.5 4.3301270189221981 -20.000000000000028 0 0 -1 I I #
edge $-1 -1 $-1 $397 1.0471975511965983 $191 2.0943951023931966 $282 $412 forward @7 unknown #
point $-1 -1 $-1 2.5 4.3301270189221981 -34.999999999999972 #
point $-1 -1 $-1 2.5 -4.3301270189221768 -34.999999999999972 #
loop $-1 -1 $-1 $-1 $200 $117 #
coedge $-1 -1 $-1 $304 $304 $198 $305 forward $194 $-1 #
edge $413 -1 $-1 $414 -3.1415926535897931 $414 3.1415926535897931 $198 $415 forward @7 unknown #
vertex $-1 -1 $-1 $199 $416 #
ellipse-curve $-1 -1 $-1 0 0 -20.000000000000028 0 0 1 9.9999999999999982 1.2246063538223771e-015 0 1 I I #
convexity-sys-attrib $-1 -1 $-1 $-1 $201 #
vertex $-1 -1 $-1 $201 $417 #
ellipse-curve $-1 -1 $-1 0 1.4210854715202004e-014 -2.8421709430404007e-014 0 0 -1 -4.9999999999999991 0 0 1 I I #
point $-1 -1 $-1 2.5 4.3301270189221981 -20.000000000000028 #
model_id-kcp-attrib $-1 -1 $-1 $-1 $205 1 1021323980 1021323980 812384257 8 #
face $418 -1 $-1 $419 $420 $9 $-1 $421 reversed single #
loop $-1 -1 $-1 $-1 $422 $205 #
plane-surface $-1 -1 $-1 152.5 52.000000000000007 113.00000000000001 -1 0 0 0 0 0.99999999999999989 forward_v I I I I #
coedge $-1 -1 $-1 $423 $207 $424 $425 reversed $127 $-1 #
coedge $-1 -1 $-1 $207 $423 $208 $320 reversed $127 $-1 #
coedge $-1 -1 $-1 $209 $426 $207 $319 forward $213 $-1 #
edge $427 -1 $-1 $428 -17.500000000000004 $323 -2.5000000000000573 $318 $429 forward @7 unknown #
edge $430 -1 $-1 $323 2.6698729810777597 $324 11.330127018922157 $317 $431 forward @7 unknown #
coedge $-1 -1 $-1 $432 $209 $423 $433 forward $213 $-1 #
attrib_edge_convexity-kcp-attrib $-1 -1 $434 $-1 $210 1 #
vertex $-1 -1 $-1 $319 $435 #
vertex $-1 -1 $-1 $433 $436 #
ellipse-curve $-1 -1 $-1 150 60.000000000000043 130 0 0 1 -4.9999999999999991 0 0 1 I I #
plane-surface $-1 -1 $-1 10 0 0 -1 0 0 0 0 1 forward_v I I I I #
coedge $-1 -1 $-1 $221 $219 $223 $331 reversed $140 $-1 #
edge $-1 -1 $-1 $234 -34.999999999999986 $333 34.999999999999986 $233 $437 forward @7 unknown #
vertex $-1 -1 $-1 $331 $438 #
straight-curve $-1 -1 $-1 -10 -10 0 0 0 -1 I I #
edge $-1 -1 $-1 $329 -10 $333 10 $327 $439 forward @7 unknown #
straight-curve $-1 -1 $-1 0 -10 -34.999999999999986 -1 0 0 I I #
vertex $-1 -1 $-1 $226 $440 #
straight-curve $-1 -1 $-1 0 10 -34.999999999999986 1 0 0 I I #
point $-1 -1 $-1 10 10 -34.999999999999986 #
point $-1 -1 $-1 10 -10 -34.999999999999986 #
straight-curve $-1 -1 $-1 -10 0 34.999999999999986 0 -1 0 I I #
point $-1 -1 $-1 -10 10 34.999999999999986 #
point $-1 -1 $-1 -10 -10 34.999999999999986 #
straight-curve $-1 -1 $-1 10 -10 0 0 0 -1 I I #
straight-curve $-1 -1 $-1 10 10 0 0 0 -1 I I #
face $-1 -1 $-1 $441 $442 $25 $-1 $443 reversed single #
plane-surface $-1 -1 $-1 0 10 0 0 -1 0 0 0 -1 forward_v I I I I #
coedge $-1 -1 $-1 $369 $374 $165 $259 reversed $244 $-1 #
coedge $-1 -1 $-1 $444 $246 $161 $253 forward $159 $-1 #
coedge $-1 -1 $-1 $246 $444 $445 $350 reversed $159 $-1 #
coedge $-1 -1 $-1 $446 $447 $246 $348 forward $448 $-1 #
edge $-1 -1 $-1 $362 -3.1415926535897931 $355 -1.5707963267948968 $347 $264 forward @7 unknown #
coedge $-1 -1 $-1 $248 $247 $449 $450 reversed $103 $-1 #
edge $-1 -1 $-1 $355 -69.999999999999957 $451 1.4210854715202004e-014 $445 $452 forward @7 unknown #
coedge $-1 -1 $-1 $453 $454 $344 $259 forward $455 $-1 #
coedge $-1 -1 $-1 $353 $249 $454 $372 forward $354 $-1 #
coedge $-1 -1 $-1 $249 $352 $456 $457 forward $354 $-1 #
loop $-1 -1 $-1 $-1 $249 $458 #
vertex $-1 -1 $-1 $459 $460 #
coedge $-1 -1 $-1 $461 $385 $251 $357 forward $462 $-1 #
edge $-1 -1 $-1 $174 1.5707963267948966 $362 3.1415926535897931 $356 $264 forward @7 unknown #
coedge $-1 -1 $-1 $463 $252 $255 $364 reversed $361 $-1 #
coedge $-1 -1 $-1 $252 $463 $461 $464 reversed $361 $-1 #
coedge $-1 -1 $-1 $465 $466 $345 $253 reversed $442 $-1 #
loop $-1 -1 $-1 $-1 $252 $467 #
vertex $-1 -1 $-1 $464 $468 #
straight-curve $-1 -1 $-1 -10 0 34.999999999999972 0 0 1 I I #
edge $-1 -1 $-1 $388 -10 $257 0 $358 $469 forward @7 unknown #
face $-1 -1 $-1 $376 $256 $25 $-1 $470 forward single #
edge $-1 -1 $-1 $257 0 $471 10 $466 $469 forward @7 unknown #
point $-1 -1 $-1 -10 0 34.999999999999986 #
straight-curve $-1 -1 $-1 10 0 34.999999999999972 0 0 1 I I #
coedge $-1 -1 $-1 $378 $344 $261 $370 reversed $244 $-1 #
edge $-1 -1 $-1 $382 -10 $263 0 $369 $472 forward @7 unknown #
face $-1 -1 $-1 $473 $262 $25 $-1 $474 reversed single #
edge $-1 -1 $-1 $263 0 $475 10 $454 $472 forward @7 unknown #
point $-1 -1 $-1 10 0 -34.999999999999986 #
coedge $-1 -1 $-1 $344 $378 $265 $375 reversed $244 $-1 #
edge $-1 -1 $-1 $268 0 $380 10 $374 $476 forward @7 unknown #
face $-1 -1 $-1 $477 $267 $25 $-1 $470 forward single #
point $-1 -1 $-1 10 0 34.999999999999986 #
coedge $-1 -1 $-1 $374 $369 $269 $379 reversed $244 $-1 #
edge $-1 -1 $-1 $380 -34.999999999999986 $382 34.999999999999986 $378 $478 forward @7 unknown #
vertex $-1 -1 $-1 $375 $479 #
straight-curve $-1 -1 $-1 0 10 34.999999999999986 -1 0 0 I I #
vertex $-1 -1 $-1 $370 $480 #
straight-curve $-1 -1 $-1 0 10 -34.999999999999986 1 0 0 I I #
coedge $-1 -1 $-1 $273 $272 $463 $481 reversed $274 $-1 #
coedge $-1 -1 $-1 $356 $461 $272 $386 forward $462 $-1 #
edge $-1 -1 $-1 $482 -10 $174 0 $272 $383 forward @7 unknown #
face $-1 -1 $-1 $-1 $455 $25 $-1 $245 reversed single #
vertex $-1 -1 $-1 $277 $483 #
face $-1 -1 $-1 $-1 $484 $27 $-1 $485 forward single #
loop $-1 -1 $-1 $190 $486 $279 #
plane-surface $-1 -1 $-1 -0.63029279478812816 3.9606056035980446e-015 -35 -4.1506088464762721e-031 3.4947486736308469e-032 1 1 0 4.1506088464762721e-031 forward_v I I I I #
loop $-1 -1 $-1 $-1 $487 $177 #
coedge $-1 -1 $-1 $393 $393 $486 $488 forward $280 $-1 #
coedge $-1 -1 $-1 $282 $296 $283 $396 forward $178 $-1 #
coedge $-1 -1 $-1 $284 $283 $489 $490 reversed $110 $-1 #
edge $491 -1 $-1 $492 0 $397 14.999999999999943 $394 $493 forward @7 unknown #
vertex $-1 -1 $-1 $396 $494 #
straight-curve $-1 -1 $-1 -2.5 3.4999999999999858 -35 0 1 0 I I #
coedge $-1 -1 $-1 $489 $291 $287 $400 forward $406 $-1 #
edge $495 -1 $-1 $294 -2.0943951023931957 $402 -1.0471975511965983 $287 $496 forward @7 unknown #
convexity-sys-attrib $-1 -1 $-1 $-1 $288 #
vertex $-1 -1 $-1 $400 $497 #
straight-curve $-1 -1 $-1 -2.5 -4.3301270189221839 -20.000000000000057 0 0 -1 I I #
point $-1 -1 $-1 -2.5 -4.3301270189221839 -35 #
coedge $-1 -1 $-1 $291 $489 $296 $410 forward $406 $-1 #
loop $-1 -1 $-1 $-1 $405 $389 #
convexity-sys-attrib $-1 -1 $-1 $-1 $292 #
straight-curve $-1 -1 $-1 2.5 -4.0000000000000107 -20.000000000000057 0 -1 0 I I #
point $-1 -1 $-1 2.5 -4.3301270189221768 -20.000000000000028 #
edge $498 -1 $-1 $492 1.0471975511965983 $298 2.0943951023931966 $296 $499 forward @7 unknown #
point $-1 -1 $-1 2.5 4.3301270189221981 -20.000000000000028 #
ellipse-curve $-1 -1 $-1 0 1.4210854715202004e-014 -35 0 0 -1 -4.9999999999999991 0 0 1 I I #
convexity-sys-attrib $-1 -1 $-1 $-1 $305 #
vertex $-1 -1 $-1 $305 $500 #
ellipse-curve $-1 -1 $-1 0 0 -2.8421709430404007e-014 0 0 1 9.9999999999999982 1.2246063538223771e-015 0 1 I I #
point $-1 -1 $-1 -9.9999999999999982 -2.4492127076447541e-015 -20.000000000000028 #
point $-1 -1 $-1 -5 1.4210854715202004e-014 0 #
model_id-kcp-attrib $-1 -1 $-1 $-1 $313 1 1021323980 1021323980 812384257 9 #
face $501 -1 $-1 $-1 $502 $9 $-1 $503 forward single #
loop $-1 -1 $-1 $-1 $504 $313 #
plane-surface $-1 -1 $-1 152.5 67 130.00000000000003 0 0 1 0.99999999999999989 0 0 forward_v I I I I #
coedge $-1 -1 $-1 $505 $506 $507 $508 reversed $314 $-1 #
coedge $-1 -1 $-1 $317 $316 $321 $433 reversed $127 $-1 #
coedge $-1 -1 $-1 $509 $510 $316 $425 forward $502 $-1 #
edge $511 -1 $-1 $512 -7.8301270189221777 $428 0.83012701892221952 $424 $513 forward @7 unknown #
coedge $-1 -1 $-1 $318 $507 $509 $514 reversed $213 $-1 #
attrib_edge_convexity-kcp-attrib $-1 -1 $515 $-1 $319 1 #
vertex $-1 -1 $-1 $514 $516 #
straight-curve $-1 -1 $-1 147.5 64.330127018922241 132.50000000000006 0 0 0.99999999999999989 I I #
attrib_edge_convexity-kcp-attrib $-1 -1 $517 $-1 $320 2 #
straight-curve $-1 -1 $-1 147.5 67 130 0 -0.99999999999999989 0 I I #
coedge $-1 -1 $-1 $518 $321 $510 $519 reversed $213 $-1 #
edge $520 -1 $-1 $324 2.5000000000000573 $512 17.500000000000004 $321 $521 forward @7 unknown #
convexity-sys-attrib $-1 -1 $-1 $322 $210 #
point $-1 -1 $-1 147.5 64.330127018922241 130 #
point $-1 -1 $-1 147.5 55.669872981077845 130 #
straight-curve $-1 -1 $-1 -10 10 0 0 0 -1 I I #
point $-1 -1 $-1 -10 -10 -34.999999999999986 #
straight-curve $-1 -1 $-1 -10 0 -34.999999999999986 0 1 0 I I #
point $-1 -1 $-1 -10 10 -34.999999999999986 #
face $-1 -1 $-1 $365 $522 $25 $-1 $470 forward single #
loop $-1 -1 $-1 $-1 $360 $342 #
plane-surface $-1 -1 $-1 -10 0 0 1 0 0 0 0 -1 forward_v I I I I #
coedge $-1 -1 $-1 $346 $345 $523 $524 reversed $159 $-1 #
coedge $-1 -1 $-1 $525 $526 $527 $350 forward $528 $-1 #
coedge $-1 -1 $-1 $447 $347 $526 $459 forward $448 $-1 #
coedge $-1 -1 $-1 $347 $446 $465 $529 forward $448 $-1 #
loop $-1 -1 $-1 $-1 $347 $530 #
coedge $-1 -1 $-1 $531 $532 $349 $450 forward $533 $-1 #
edge $-1 -1 $-1 $268 1.2246063538223773e-016 $451 1.5707963267948968 $449 $258 forward @7 unknown #
vertex $-1 -1 $-1 $534 $535 #
straight-curve $-1 -1 $-1 0 -10 34.999999999999972 0 0 1 I I #
coedge $-1 -1 $-1 $536 $351 $532 $537 reversed $455 $-1 #
coedge $-1 -1 $-1 $351 $536 $352 $372 reversed $455 $-1 #
loop $-1 -1 $-1 $-1 $351 $387 #
coedge $-1 -1 $-1 $538 $527 $353 $457 reversed $539 $-1 #
edge $-1 -1 $-1 $475 -10 $355 0 $456 $540 forward @7 unknown #
face $-1 -1 $-1 $371 $354 $25 $-1 $474 reversed single #
edge $-1 -1 $-1 $355 0 $541 10 $526 $540 forward @7 unknown #
point $-1 -1 $-1 0 -10 -34.999999999999986 #
coedge $-1 -1 $-1 $385 $356 $359 $464 forward $462 $-1 #
loop $-1 -1 $-1 $-1 $356 $473 #
coedge $-1 -1 $-1 $359 $358 $384 $481 forward $361 $-1 #
edge $-1 -1 $-1 $362 0 $482 10 $359 $542 forward @7 unknown #
coedge $-1 -1 $-1 $543 $360 $447 $529 reversed $442 $-1 #
coedge $-1 -1 $-1 $360 $543 $544 $366 reversed $442 $-1 #
face $-1 -1 $-1 $275 $361 $25 $-1 $443 reversed single #
point $-1 -1 $-1 -10 0 -34.999999999999986 #
straight-curve $-1 -1 $-1 -10 0 34.999999999999986 0 -1 0 I I #
plane-surface $-1 -1 $-1 0 0 34.999999999999986 0 0 1 1 0 0 forward_v I I I I #
vertex $-1 -1 $-1 $366 $545 #
straight-curve $-1 -1 $-1 10 0 -34.999999999999986 0 -1 0 I I #
face $-1 -1 $-1 $546 $462 $25 $-1 $474 reversed single #
plane-surface $-1 -1 $-1 0 0 -34.999999999999986 0 0 1 1 0 0 forward_v I I I I #
vertex $-1 -1 $-1 $547 $548 #
straight-curve $-1 -1 $-1 10 0 34.999999999999986 0 1 0 I I #
face $-1 -1 $-1 $549 $533 $25 $-1 $470 forward single #
straight-curve $-1 -1 $-1 10 10 0 0 0 -1 I I #
point $-1 -1 $-1 10 10 34.999999999999986 #
point $-1 -1 $-1 10 10 -34.999999999999986 #
edge $-1 -1 $-1 $388 -34.999999999999986 $482 34.999999999999986 $384 $550 forward @7 unknown #
vertex $-1 -1 $-1 $386 $551 #
point $-1 -1 $-1 -10 10 34.999999999999986 #
loop $-1 -1 $-1 $406 $552 $389 #
plane-surface $-1 -1 $-1 -0.63029279478812816 3.9606056035980446e-015 -20.000000000000057 -4.1506088464762721e-031 3.4947486736308469e-032 1 1 0 4.1506088464762721e-031 forward_v I I I I #
coedge $-1 -1 $-1 $486 $486 $393 $488 reversed $390 $-1 #
coedge $-1 -1 $-1 $487 $487 $552 $553 reversed $392 $-1 #
edge $-1 -1 $-1 $554 -3.1415926535897931 $554 3.1415926535897931 $393 $555 forward @7 unknown #
coedge $-1 -1 $-1 $405 $399 $395 $490 forward $406 $-1 #
edge $556 -1 $-1 $402 -7.8301270189221697 $492 0.83012701892222651 $395 $557 forward @7 unknown #
convexity-sys-attrib $-1 -1 $-1 $-1 $396 #
vertex $-1 -1 $-1 $410 $558 #
straight-curve $-1 -1 $-1 -2.5 4.3301270189222123 -20.000000000000057 0 0 -1 I I #
point $-1 -1 $-1 -2.5 4.3301270189222123 -35 #
convexity-sys-attrib $-1 -1 $-1 $-1 $400 #
ellipse-curve $-1 -1 $-1 0 1.4210854715202004e-014 -20.000000000000057 0 0 -1 -4.9999999999999991 0 0 1 I I #
point $-1 -1 $-1 -2.5 -4.3301270189221839 -20.000000000000057 #
convexity-sys-attrib $-1 -1 $-1 $-1 $410 #
ellipse-curve $-1 -1 $-1 0 1.4210854715202004e-014 -20.000000000000057 0 0 -1 -4.9999999999999991 0 0 1 I I #
point $-1 -1 $-1 -9.9999999999999982 -2.4492127076447541e-015 -2.8421709430404007e-014 #
model_id-kcp-attrib $-1 -1 $-1 $-1 $419 1 1021323980 1021323980 812384257 10 #
loop $-1 -1 $-1 $-1 $424 $419 #
plane-surface $-1 -1 $-1 150 60.000000000000043 115.00000000000006 0 0 -1 -0.99999999999999989 0 0 forward_v I I I I #
coedge $-1 -1 $-1 $559 $559 $560 $561 reversed $420 $-1 #
coedge $-1 -1 $-1 $562 $422 $559 $563 reversed $314 $-1 #
coedge $-1 -1 $-1 $422 $562 $564 $565 reversed $314 $-1 #
coedge $-1 -1 $-1 $426 $560 $422 $508 forward $213 $-1 #
edge $566 -1 $-1 $567 2.5000000000000289 $568 17.500000000000004 $507 $569 forward @7 unknown #
coedge $-1 -1 $-1 $564 $424 $426 $514 forward $502 $-1 #
coedge $-1 -1 $-1 $424 $564 $432 $519 forward $502 $-1 #
attrib_edge_convexity-kcp-attrib $-1 -1 $570 $-1 $425 1 #
vertex $-1 -1 $-1 $425 $571 #
straight-curve $-1 -1 $-1 147.5 63.500000000000021 115.00000000000006 0 0.99999999999999989 0 I I #
edge $-1 -1 $-1 $428 1.0471975511965983 $568 2.0943951023931966 $509 $572 forward @7 unknown #
convexity-sys-attrib $-1 -1 $-1 $427 $319 #
point $-1 -1 $-1 147.5 64.330127018922241 115.00000000000006 #
convexity-sys-attrib $-1 -1 $-1 $430 $320 #
coedge $-1 -1 $-1 $560 $432 $562 $573 forward $213 $-1 #
edge $-1 -1 $-1 $574 -2.0943951023931957 $512 -1.0471975511965983 $510 $572 forward @7 unknown #
attrib_edge_convexity-kcp-attrib $-1 -1 $575 $-1 $433 1 #
straight-curve $-1 -1 $-1 147.5 55.669872981077845 132.50000000000006 0 0 -0.99999999999999989 I I #
loop $-1 -1 $-1 $-1 $523 $441 #
coedge $-1 -1 $-1 $544 $576 $444 $524 forward $522 $-1 #
edge $-1 -1 $-1 $451 1.5707963267948968 $257 3.1415926535897931 $523 $258 forward @7 unknown #
coedge $-1 -1 $-1 $577 $445 $576 $578 reversed $528 $-1 #
coedge $-1 -1 $-1 $445 $577 $446 $459 reversed $528 $-1 #
coedge $-1 -1 $-1 $456 $579 $247 $350 reversed $539 $-1 #
loop $-1 -1 $-1 $-1 $445 $546 #
edge $-1 -1 $-1 $541 -10 $362 0 $465 $542 forward @7 unknown #
face $-1 -1 $-1 $458 $448 $25 $-1 $474 reversed single #
coedge $-1 -1 $-1 $532 $449 $579 $534 forward $533 $-1 #
coedge $-1 -1 $-1 $449 $531 $453 $537 forward $533 $-1 #
loop $-1 -1 $-1 $-1 $449 $477 #
edge $-1 -1 $-1 $451 0 $580 10 $579 $581 forward @7 unknown #
point $-1 -1 $-1 0 -10 34.999999999999986 #
coedge $-1 -1 $-1 $454 $453 $538 $547 forward $455 $-1 #
edge $-1 -1 $-1 $580 -10 $268 0 $453 $476 forward @7 unknown #
coedge $-1 -1 $-1 $579 $456 $536 $547 reversed $539 $-1 #
loop $-1 -1 $-1 $-1 $527 $549 #
straight-curve $-1 -1 $-1 0 -10 -34.999999999999986 -1 0 0 I I #
vertex $-1 -1 $-1 $529 $582 #
straight-curve $-1 -1 $-1 -10 0 -34.999999999999986 0 1 0 I I #
coedge $-1 -1 $-1 $466 $465 $577 $583 reversed $442 $-1 #
coedge $-1 -1 $-1 $576 $523 $466 $366 forward $522 $-1 #
point $-1 -1 $-1 -10 -10 34.999999999999986 #
face $-1 -1 $-1 $467 $528 $25 $-1 $584 reversed single #
edge $-1 -1 $-1 $580 -34.999999999999986 $475 34.999999999999986 $536 $585 forward @7 unknown #
point $-1 -1 $-1 10 -10 -34.999999999999986 #
face $-1 -1 $-1 $530 $539 $25 $-1 $584 reversed single #
straight-curve $-1 -1 $-1 -10 10 0 0 0 -1 I I #
point $-1 -1 $-1 -10 10 -34.999999999999986 #
coedge $-1 -1 $-1 $552 $552 $487 $553 forward $484 $-1 #
edge $586 -1 $-1 $587 -3.1415926535897931 $587 3.1415926535897931 $487 $588 forward @7 unknown #
vertex $-1 -1 $-1 $488 $589 #
ellipse-curve $-1 -1 $-1 0 0 -35 0 0 1 9.9999999999999982 1.2246063538223771e-015 0 1 I I #
convexity-sys-attrib $-1 -1 $-1 $-1 $490 #
straight-curve $-1 -1 $-1 -2.5 3.4999999999999858 -20.000000000000057 0 1 0 I I #
point $-1 -1 $-1 -2.5 4.3301270189222123 -20.000000000000057 #
coedge $-1 -1 $-1 $504 $504 $505 $563 forward $420 $-1 #
coedge $-1 -1 $-1 $507 $518 $504 $561 forward $213 $-1 #
edge $590 -1 $-1 $591 2.0943951023931957 $567 4.1887902047863896 $560 $592 forward @7 unknown #
coedge $-1 -1 $-1 $506 $505 $518 $573 reversed $314 $-1 #
edge $593 -1 $-1 $591 3.669872981077845 $567 12.330127018922221 $505 $594 forward @7 unknown #
coedge $-1 -1 $-1 $510 $509 $506 $565 forward $502 $-1 #
edge $595 -1 $-1 $568 -8.3301270189221999 $574 0.33012701892217683 $564 $596 forward @7 unknown #
attrib_edge_convexity-kcp-attrib $-1 -1 $597 $-1 $508 1 #
vertex $-1 -1 $-1 $508 $598 #
vertex $-1 -1 $-1 $565 $599 #
straight-curve $-1 -1 $-1 152.5 64.330127018922227 132.50000000000006 0 0 -0.99999999999999989 I I #
convexity-sys-attrib $-1 -1 $-1 $511 $425 #
point $-1 -1 $-1 147.5 55.669872981077845 115.00000000000006 #
ellipse-curve $-1 -1 $-1 150 60.000000000000043 115.00000000000006 0 0 -1 -4.9999999999999991 0 0 1 I I #
edge $600 -1 $-1 $574 -17.500000000000004 $591 -2.5000000000000289 $518 $601 forward @7 unknown #
vertex $-1 -1 $-1 $519 $602 #
convexity-sys-attrib $-1 -1 $-1 $520 $433 #
coedge $-1 -1 $-1 $523 $544 $525 $578 forward $522 $-1 #
coedge $-1 -1 $-1 $526 $525 $543 $583 forward $528 $-1 #
edge $-1 -1 $-1 $471 -10 $451 0 $525 $581 forward @7 unknown #
coedge $-1 -1 $-1 $527 $538 $531 $534 reversed $539 $-1 #
vertex $-1 -1 $-1 $537 $603 #
straight-curve $-1 -1 $-1 0 -10 34.999999999999986 1 0 0 I I #
point $-1 -1 $-1 -10 -10 -34.999999999999986 #
edge $-1 -1 $-1 $471 -34.999999999999986 $541 34.999999999999986 $543 $604 forward @7 unknown #
plane-surface $-1 -1 $-1 0 -10 0 0 1 0 0 0 1 forward_v I I I I #
straight-curve $-1 -1 $-1 10 -10 0 0 0 -1 I I #
convexity-sys-attrib $-1 -1 $-1 $-1 $553 #
vertex $-1 -1 $-1 $553 $605 #
ellipse-curve $-1 -1 $-1 0 0 -20.000000000000057 0 0 1 9.9999999999999982 1.2246063538223771e-015 0 1 I I #
point $-1 -1 $-1 -9.9999999999999982 -2.4492127076447541e-015 -35 #
attrib_edge_convexity-kcp-attrib $-1 -1 $606 $-1 $561 1 #
vertex $-1 -1 $-1 $573 $607 #
ellipse-curve $-1 -1 $-1 150 60.000000000000043 130.00000000000003 0 0 1 -4.9999999999999991 0 0 1 I I #
attrib_edge_convexity-kcp-attrib $-1 -1 $608 $-1 $563 2 #
straight-curve $-1 -1 $-1 152.5 52.000000000000007 130.00000000000003 0 0.99999999999999989 0 I I #
attrib_edge_convexity-kcp-attrib $-1 -1 $609 $-1 $565 1 #
straight-curve $-1 -1 $-1 152.5 56.000000000000028 115.00000000000006 0 -0.99999999999999989 0 I I #
convexity-sys-attrib $-1 -1 $-1 $566 $508 #
point $-1 -1 $-1 152.5 64.330127018922227 130.00000000000003 #
point $-1 -1 $-1 152.5 64.330127018922227 115.00000000000006 #
attrib_edge_convexity-kcp-attrib $-1 -1 $610 $-1 $573 1 #
straight-curve $-1 -1 $-1 152.5 55.669872981077852 132.50000000000006 0 0 0.99999999999999989 I I #
point $-1 -1 $-1 152.5 55.669872981077852 115.00000000000006 #
point $-1 -1 $-1 10 -10 34.999999999999986 #
straight-curve $-1 -1 $-1 -10 -10 0 0 0 -1 I I #
point $-1 -1 $-1 -9.9999999999999982 -2.4492127076447541e-015 -20.000000000000057 #
convexity-sys-attrib $-1 -1 $-1 $590 $561 #
point $-1 -1 $-1 152.5 55.669872981077852 130.00000000000003 #
convexity-sys-attrib $-1 -1 $-1 $593 $563 #
convexity-sys-attrib $-1 -1 $-1 $595 $565 #
convexity-sys-attrib $-1 -1 $-1 $600 $573 #
End-of-ACIS-data 