600 0 1 0           
92 GICL ACIS Healer - Source: /gicl/data5/repository/CMU/scanner/potentiometer_sleeve.sat - 6 0 18 ACIS 6.0.3 Solaris 24 Sat Apr 13 00:31:06 2002 
1 9.999999999999999547e-07 1.000000000000000036e-10 
body $-1 $1 $-1 $-1 #
lump $-1 $-1 $2 $0 #
shell $-1 $-1 $-1 $3 $-1 $1 #
face $-1 $4 $5 $2 $-1 $6 reversed single #
face $-1 $7 $8 $2 $-1 $9 reversed single #
loop $-1 $10 $11 $3 #
plane-surface $-1 133.9999899999999684 76 187.2999999999999545 0 0 -1 -1 0 0 forward_v I I I I #
face $-1 $12 $13 $2 $-1 $14 reversed single #
loop $-1 $15 $16 $4 #
cone-surface $-1 133.9999899999999684 76 188.6499999999999488 0 0 -1 -4.550000000000000711 0 0 1 I I 0 1 4.550000000000000711 forward I I I I #
loop $-1 $-1 $17 $3 #
coedge $-1 $11 $11 $18 $19 reversed $5 $-1 #
face $-1 $20 $21 $2 $-1 $22 reversed single #
loop $-1 $23 $24 $7 #
cone-surface $-1 133.9999899999999684 76 187.4999999999999432 0 0 -1 -2.5 0 0 1 I I 0 1 2.5 forward I I I I #
loop $-1 $-1 $18 $4 #
coedge $-1 $16 $16 $25 $26 reversed $8 $-1 #
coedge $-1 $17 $17 $27 $28 forward $10 $-1 #
coedge $-1 $18 $18 $11 $19 forward $15 $-1 #
edge $-1 $29 0 $29 6.283185307179586232 $11 $30 forward 7 unknown #
face $-1 $31 $32 $2 $-1 $33 reversed single #
loop $-1 $34 $35 $12 #
plane-surface $-1 165.9999899999999968 44.00000000000001421 187.2999999999999545 0 0 -1 -1 0 0 forward_v I I I I #
loop $-1 $-1 $27 $7 #
coedge $-1 $24 $24 $36 $37 reversed $13 $-1 #
coedge $-1 $25 $25 $16 $26 forward $38 $-1 #
edge $-1 $39 -3.141592653589802442 $39 3.14159265358978379 $25 $40 forward 7 unknown #
coedge $-1 $27 $27 $17 $28 reversed $23 $-1 #
edge $-1 $41 -3.141592653589804218 $41 3.141592653589782014 $27 $42 forward 7 unknown #
vertex $-1 $19 $43 #
ellipse-curve $-1 133.9999899999999684 76 187.2999999999999545 0 0 -1 -4.550000000000000711 0 0 1 I I #
face $-1 $44 $45 $2 $-1 $46 reversed single #
loop $-1 $47 $48 $20 #
cone-surface $-1 165.9999899999999968 44.00000000000001421 188.6499999999999488 0 0 -1 -4.550000000000000711 0 0 1 I I 0 1 4.550000000000000711 forward I I I I #
loop $-1 $-1 $49 $12 #
coedge $-1 $35 $35 $50 $51 reversed $21 $-1 #
coedge $-1 $36 $36 $24 $37 forward $52 $-1 #
edge $-1 $53 -3.141592653589798889 $53 3.141592653589787343 $36 $54 forward 7 unknown #
loop $-1 $55 $25 $56 #
vertex $-1 $26 $57 #
ellipse-curve $-1 133.9999899999999684 76 189.9999999999999432 0 0 -1 -4.550000000000000711 0 0 1 I I #
vertex $-1 $28 $58 #
ellipse-curve $-1 133.9999899999999684 76 187.2999999999999545 0 0 -1 -2.5 0 0 1 I I #
point $-1 129.4499899999999855 76 187.2999999999999545 #
face $-1 $59 $60 $2 $-1 $61 reversed single #
loop $-1 $62 $63 $31 #
cone-surface $-1 165.9999899999999968 44.00000000000001421 187.4999999999999432 0 0 -1 -2.5 0 0 1 I I 0 1 2.5 forward I I I I #
loop $-1 $-1 $50 $20 #
coedge $-1 $48 $48 $64 $65 reversed $32 $-1 #
coedge $-1 $49 $49 $66 $67 forward $34 $-1 #
coedge $-1 $50 $50 $35 $51 forward $47 $-1 #
edge $-1 $68 0 $68 6.283185307179586232 $35 $69 forward 7 unknown #
loop $-1 $70 $36 $71 #
vertex $-1 $37 $72 #
ellipse-curve $-1 133.9999899999999684 76 184.9999999999999432 0 0 1 -2.5 0 0 1 I I #
loop $-1 $73 $64 $56 #
face $-1 $74 $38 $2 $-1 $75 reversed single #
point $-1 138.5499899999999798 76.00000000000004263 189.9999999999999432 #
point $-1 136.4999899999999684 76.00000000000002842 187.2999999999999545 #
face $-1 $76 $77 $2 $-1 $78 forward single #
loop $-1 $79 $80 $44 #
cone-surface $-1 149.9999899970350725 60.00000000296495273 169.9999999999999432 0 0 1 10 0 0 1 I I 0 1 10 forward I I I I #
loop $-1 $-1 $66 $31 #
coedge $-1 $63 $63 $81 $82 reversed $45 $-1 #
coedge $-1 $64 $64 $48 $65 forward $55 $-1 #
edge $-1 $83 -3.141592653589799333 $83 3.141592653589786899 $64 $84 forward 7 unknown #
coedge $-1 $66 $66 $49 $67 reversed $62 $-1 #
edge $-1 $85 -3.141592653589798889 $85 3.141592653589787343 $66 $86 forward 7 unknown #
vertex $-1 $51 $87 #
ellipse-curve $-1 165.9999899999999968 44.00000000000001421 187.2999999999999545 0 0 -1 -4.550000000000000711 0 0 1 I I #
loop $-1 $88 $81 $71 #
face $-1 $89 $52 $2 $-1 $90 reversed single #
point $-1 136.4999899999999684 75.99999999999998579 184.9999999999999432 #
loop $-1 $-1 $91 $56 #
face $-1 $92 $93 $2 $-1 $94 reversed single #
plane-surface $-1 149.9999899999999684 60.00000000000004263 189.9999999999999432 0 0 -1 0 -0.999999999999999889 0 forward_v I I I I #
face $-1 $71 $95 $2 $-1 $96 forward single #
loop $-1 $97 $98 $59 #
cone-surface $-1 149.99998999999994 60.00000000000007816 167.4999999999999432 0 0 -1 -15 0 0 1 I I 0 1 15 forward I I I I #
loop $-1 $-1 $99 $44 #
coedge $-1 $80 $80 $100 $101 reversed $60 $-1 #
coedge $-1 $81 $81 $63 $82 forward $70 $-1 #
edge $-1 $102 -3.141592653589801554 $102 3.141592653589784678 $81 $103 forward 7 unknown #
vertex $-1 $65 $104 #
ellipse-curve $-1 165.9999899999999968 44.00000000000001421 189.9999999999999432 0 0 -1 -4.550000000000000711 0 0 1 I I #
vertex $-1 $67 $105 #
ellipse-curve $-1 165.9999899999999968 44.00000000000001421 187.2999999999999545 0 0 -1 -2.5 0 0 1 I I #
point $-1 161.4499899999999855 44.00000000000001421 187.2999999999999545 #
loop $-1 $106 $107 $71 #
face $-1 $108 $109 $2 $-1 $110 forward single #
plane-surface $-1 149.9999899999999684 60.00000000000004263 184.9999999999999432 0 0 1 0 0.999999999999999889 0 forward_v I I I I #
coedge $-1 $111 $112 $113 $114 forward $73 $-1 #
face $-1 $-1 $115 $2 $-1 $90 reversed single #
loop $-1 $-1 $116 $74 #
plane-surface $-1 124.9999899999999684 60.00000000000004263 187.4999999999999432 1 0 0 0 -0.999999999999999889 0 forward_v I I I I #
loop $-1 $117 $118 $76 #
plane-surface $-1 149.99998999999994 60.00000000000007816 149.9999999999999432 0 0 -1 -0.999999999999999889 0 0 forward_v I I I I #
loop $-1 $-1 $119 $59 #
coedge $-1 $98 $98 $120 $121 reversed $77 $-1 #
coedge $-1 $99 $99 $118 $122 reversed $79 $-1 #
coedge $-1 $100 $100 $80 $101 forward $115 $-1 #
edge $-1 $123 -3.141592653589800221 $123 3.141592653589786011 $100 $124 forward 7 unknown #
vertex $-1 $82 $125 #
ellipse-curve $-1 165.9999899999999968 44.00000000000001421 184.9999999999999432 0 0 1 -2.5 0 0 1 I I #
point $-1 170.5499899999999798 44.00000000000004263 189.9999999999999432 #
point $-1 168.4999899999999968 44.00000000000002842 187.2999999999999545 #
loop $-1 $-1 $120 $71 #
coedge $-1 $126 $127 $128 $129 forward $88 $-1 #
face $-1 $130 $131 $2 $-1 $132 reversed single #
loop $-1 $-1 $133 $89 #
plane-surface $-1 149.9999899999999684 85.00000000000004263 187.4999999999999432 0 1 0 0 0 -0.999999999999999889 forward_v I I I I #
coedge $-1 $134 $91 $135 $136 reversed $73 $-1 #
coedge $-1 $91 $134 $137 $138 reversed $73 $-1 #
coedge $-1 $139 $140 $91 $114 reversed $93 $-1 #
edge $-1 $141 -25.00000000000000355 $142 25.00000000000000355 $113 $143 forward 7 unknown #
loop $-1 $-1 $100 $92 #
coedge $-1 $140 $139 $144 $145 forward $93 $-1 #
loop $-1 $-1 $146 $76 #
coedge $-1 $118 $118 $99 $122 forward $95 $-1 #
coedge $-1 $119 $119 $146 $147 reversed $97 $-1 #
coedge $-1 $120 $120 $98 $121 forward $106 $-1 #
edge $-1 $148 0 $148 6.283185307179586232 $120 $149 forward 7 unknown #
edge $-1 $150 -3.141592653589800221 $150 3.141592653589786011 $118 $151 forward 7 unknown #
vertex $-1 $101 $152 #
ellipse-curve $-1 149.9999899970350725 60.00000000296495273 184.9999999999999432 0 0 -1 10 0 0 1 I I #
point $-1 168.4999899999999968 43.99999999999999289 184.9999999999999432 #
coedge $-1 $144 $107 $153 $154 reversed $88 $-1 #
coedge $-1 $107 $144 $133 $155 reversed $88 $-1 #
coedge $-1 $156 $157 $107 $129 reversed $158 $-1 #
edge $-1 $159 -25.00000000000000355 $160 25.00000000000000355 $107 $161 forward 7 unknown #
face $-1 $56 $158 $2 $-1 $162 reversed single #
loop $-1 $-1 $153 $108 #
plane-surface $-1 149.9999899999999684 35.00000000000004263 187.4999999999999432 0 1 0 0 0 -0.999999999999999889 forward_v I I I I #
coedge $-1 $163 $164 $127 $155 forward $109 $-1 #
coedge $-1 $112 $111 $165 $166 reversed $73 $-1 #
coedge $-1 $167 $168 $111 $136 forward $131 $-1 #
edge $-1 $169 -25.00000000000000355 $142 25.00000000000000355 $111 $170 forward 7 unknown #
coedge $-1 $164 $163 $112 $138 forward $109 $-1 #
edge $-1 $141 -25.00000000000000355 $171 25.00000000000000355 $112 $172 forward 7 unknown #
coedge $-1 $116 $113 $163 $173 reversed $93 $-1 #
coedge $-1 $113 $116 $167 $174 reversed $93 $-1 #
vertex $-1 $173 $175 #
vertex $-1 $174 $176 #
straight-curve $-1 124.9999899999999684 60.00000000000004263 189.9999999999999432 0 -0.999999999999999889 0 I I #
coedge $-1 $127 $126 $116 $145 reversed $88 $-1 #
edge $-1 $177 -25.00000000000000355 $178 25.00000000000000355 $144 $179 forward 7 unknown #
coedge $-1 $146 $146 $119 $147 forward $117 $-1 #
edge $-1 $180 0 $180 6.283185307179586232 $146 $181 forward 7 unknown #
vertex $-1 $121 $182 #
ellipse-curve $-1 149.99998999999994 60.00000000000007816 184.9999999999999432 0 0 1 -15 0 0 1 I I #
vertex $-1 $122 $183 #
ellipse-curve $-1 149.9999899970350725 60.00000000296495273 149.9999999999999432 0 0 1 10 0 0 1 I I #
point $-1 139.9999899970350725 60.00000000296488167 184.9999999999999432 #
coedge $-1 $168 $167 $126 $154 forward $131 $-1 #
edge $-1 $178 -25.00000000000000355 $160 25.00000000000000355 $126 $184 forward 7 unknown #
edge $-1 $159 -25.00000000000000355 $177 25.00000000000000355 $127 $185 forward 7 unknown #
coedge $-1 $165 $128 $164 $186 reversed $158 $-1 #
coedge $-1 $128 $165 $168 $187 reversed $158 $-1 #
loop $-1 $-1 $165 $130 #
vertex $-1 $155 $188 #
vertex $-1 $129 $189 #
straight-curve $-1 174.9999899999999684 60.00000000000004263 184.9999999999999432 0 -0.999999999999999889 0 I I #
plane-surface $-1 174.9999899999999684 60.00000000000004263 187.4999999999999432 -1 0 0 0 0.999999999999999889 0 forward_v I I I I #
coedge $-1 $137 $133 $139 $173 forward $109 $-1 #
coedge $-1 $133 $137 $156 $186 forward $109 $-1 #
coedge $-1 $157 $156 $134 $166 forward $158 $-1 #
edge $-1 $171 -25.00000000000000355 $169 25.00000000000000355 $134 $190 forward 7 unknown #
coedge $-1 $153 $135 $140 $174 forward $131 $-1 #
coedge $-1 $135 $153 $157 $187 forward $131 $-1 #
vertex $-1 $136 $191 #
straight-curve $-1 149.9999899999999684 35.00000000000004263 189.9999999999999432 -0.999999999999999889 0 0 I I #
vertex $-1 $138 $192 #
straight-curve $-1 149.9999899999999684 85.00000000000004263 189.9999999999999432 0.999999999999999889 0 0 I I #
edge $-1 $177 -2.500000000000000444 $141 2.500000000000000444 $139 $193 forward 7 unknown #
edge $-1 $142 -2.500000000000000444 $178 2.500000000000000444 $140 $194 forward 7 unknown #
point $-1 124.9999899999999684 85.00000000000004263 189.9999999999999432 #
point $-1 124.9999899999999684 35.00000000000004263 189.9999999999999432 #
vertex $-1 $155 $195 #
vertex $-1 $154 $196 #
straight-curve $-1 124.9999899999999684 60.00000000000004263 184.9999999999999432 0 -0.999999999999999889 0 I I #
vertex $-1 $147 $197 #
ellipse-curve $-1 149.99998999999994 60.00000000000007816 149.9999999999999432 0 0 -1 -15 0 0 1 I I #
point $-1 134.99998999999994 60.00000000000007816 184.9999999999999432 #
point $-1 139.9999899970350725 60.00000000296502378 149.9999999999999432 #
straight-curve $-1 149.9999899999999684 35.00000000000004263 184.9999999999999432 0.999999999999999889 0 0 I I #
straight-curve $-1 149.9999899999999684 85.00000000000004263 184.9999999999999432 -0.999999999999999889 0 0 I I #
edge $-1 $171 -2.500000000000000444 $159 2.500000000000000444 $156 $198 forward 7 unknown #
edge $-1 $160 -2.500000000000000444 $169 2.500000000000000444 $157 $199 forward 7 unknown #
point $-1 174.9999899999999684 85.00000000000004263 184.9999999999999432 #
point $-1 174.9999899999999684 35.00000000000004263 184.9999999999999432 #
straight-curve $-1 174.9999899999999684 60.00000000000004263 189.9999999999999432 0 -0.999999999999999889 0 I I #
point $-1 174.9999899999999684 35.00000000000004263 189.9999999999999432 #
point $-1 174.9999899999999684 85.00000000000004263 189.9999999999999432 #
straight-curve $-1 124.9999899999999684 85.00000000000004263 187.4999999999999432 0 0 0.999999999999999889 I I #
straight-curve $-1 124.9999899999999684 35.00000000000004263 187.4999999999999432 0 0 -0.999999999999999889 I I #
point $-1 124.9999899999999684 85.00000000000004263 184.9999999999999432 #
point $-1 124.9999899999999684 35.00000000000004263 184.9999999999999432 #
point $-1 134.99998999999994 60.00000000000007816 149.9999999999999432 #
straight-curve $-1 174.9999899999999684 85.00000000000004263 187.4999999999999432 0 0 -0.999999999999999889 I I #
straight-curve $-1 174.9999899999999684 35.00000000000004263 187.4999999999999432 0 0 0.999999999999999889 I I #
End-of-ACIS-data 