700 0 2 0           
24 FBMach with ACIS - 7.0.3 13 ACIS 7.0.3 NT 24 Mon May 13 17:06:23 2002 
1 9.9999999999999995e-007 1e-010 
body $2 -1 $-1 $3 $-1 $4 #
bdycol-kcp $-1 -1 1 7 $5 $6 $7 $8 $9 $10 $11 #
model_id-kcp-attrib $-1 -1 $-1 $-1 $0 1 1021323982 1021323982 1452408833 1 #
lump $-1 -1 $-1 $-1 $12 $0 #
transform $-1 -1 1 0 0 0 1 0 0 0 1 0 0 0 1 rotate no_reflect no_shear #
body $13 -1 $-1 $14 $-1 $15 #
body $16 -1 $-1 $17 $-1 $18 #
body $19 -1 $-1 $20 $-1 $21 #
body $22 -1 $-1 $23 $-1 $24 #
body $25 -1 $-1 $26 $-1 $27 #
body $28 -1 $-1 $29 $-1 $30 #
body $31 -1 $-1 $32 $-1 $33 #
shell $-1 -1 $-1 $-1 $-1 $34 $-1 $3 #
rgb_color-st-attrib $-1 -1 $35 $-1 $5 0.5 1 1 #
lump $-1 -1 $-1 $-1 $36 $5 #
transform $-1 -1 -1 0 -1.2246063538223773e-016 0 1 0 1.2246063538223773e-016 0 -1 133.99998999999997 76 188.64999999999995 1 rotate no_reflect no_shear #
rgb_color-st-attrib $-1 -1 $37 $-1 $6 0.5 1 1 #
lump $-1 -1 $-1 $-1 $38 $6 #
transform $-1 -1 -1 0 -1.2246063538223773e-016 0 1 0 1.2246063538223773e-016 0 -1 133.99998999999997 76 186.14999999999995 1 rotate no_reflect no_shear #
rgb_color-st-attrib $-1 -1 $39 $-1 $7 0.5 1 1 #
lump $-1 -1 $-1 $-1 $40 $7 #
transform $-1 -1 -1 0 -1.2246063538223773e-016 0 1 0 1.2246063538223773e-016 0 -1 165.99999 44.000000000000014 188.64999999999995 1 rotate no_reflect no_shear #
rgb_color-st-attrib $-1 -1 $41 $-1 $8 0.5 1 1 #
lump $-1 -1 $-1 $-1 $42 $8 #
transform $-1 -1 -1 0 -1.2246063538223773e-016 0 1 0 1.2246063538223773e-016 0 -1 165.99999 44.000000000000014 186.14999999999995 1 rotate no_reflect no_shear #
rgb_color-st-attrib $-1 -1 $43 $-1 $9 0.5 1 1 #
lump $-1 -1 $-1 $-1 $44 $9 #
transform $-1 -1 1 0 0 0 1 0 0 0 1 149.99998999703507 60.000000002964953 167.49999999999994 1 no_rotate no_reflect no_shear #
model_id-kcp-attrib $-1 -1 $-1 $-1 $10 1 1021323982 1021323982 1452408834 1 #
lump $-1 -1 $-1 $-1 $45 $10 #
transform $-1 -1 1 0 0 0 1 0 0 0 1 149.99998999999997 60.000000000000043 169.99999999999994 1 no_rotate no_reflect no_shear #
rgb_color-st-attrib $-1 -1 $46 $-1 $11 1 0.5 1 #
lump $-1 -1 $-1 $-1 $47 $11 #
transform $-1 -1 1 0 0 0 1 0 0 0 1 149.99998999999997 60.000000000000043 169.99999999999994 1 no_rotate no_reflect no_shear #
face $48 -1 $-1 $49 $50 $12 $-1 $51 reversed single #
model_id-kcp-attrib $-1 -1 $-1 $13 $5 1 1021323982 1021323982 1443495939 1 #
shell $-1 -1 $-1 $-1 $-1 $52 $-1 $14 #
model_id-kcp-attrib $-1 -1 $-1 $16 $6 1 1021323982 1021323982 1443495940 1 #
shell $-1 -1 $-1 $-1 $-1 $53 $-1 $17 #
model_id-kcp-attrib $-1 -1 $-1 $19 $7 1 1021323982 1021323982 1443495941 1 #
shell $-1 -1 $-1 $-1 $-1 $54 $-1 $20 #
model_id-kcp-attrib $-1 -1 $-1 $22 $8 1 1021323982 1021323982 1444151302 1 #
shell $-1 -1 $-1 $-1 $-1 $55 $-1 $23 #
model_id-kcp-attrib $-1 -1 $-1 $25 $9 1 1021323982 1021323982 1444806663 1 #
shell $-1 -1 $-1 $-1 $-1 $56 $-1 $26 #
shell $-1 -1 $-1 $-1 $-1 $57 $-1 $29 #
model_id-kcp-attrib $-1 -1 $-1 $31 $11 1 1021323982 1021323983 1445396488 1 #
shell $-1 -1 $-1 $-1 $-1 $58 $-1 $32 #
model_id-kcp-attrib $-1 -1 $-1 $-1 $34 1 1021323982 1021323982 1452408833 2 #
face $59 -1 $-1 $60 $61 $12 $-1 $62 reversed single #
loop $-1 -1 $-1 $63 $64 $34 #
plane-surface $-1 -1 $-1 133.99998999999997 76 187.29999999999995 0 0 -1 -1 0 0 forward_v I I I I #
face $-1 -1 $-1 $65 $66 $36 $-1 $67 forward single #
face $-1 -1 $-1 $68 $69 $38 $-1 $70 forward single #
face $-1 -1 $-1 $71 $72 $40 $-1 $73 forward single #
face $-1 -1 $-1 $74 $75 $42 $-1 $76 forward single #
face $-1 -1 $-1 $77 $78 $44 $-1 $79 forward single #
face $80 -1 $-1 $81 $82 $45 $-1 $83 forward single #
face $-1 -1 $-1 $84 $85 $47 $-1 $86 forward single #
model_id-kcp-attrib $-1 -1 $-1 $-1 $49 1 1021323982 1021323982 1452408833 3 #
face $87 -1 $-1 $88 $89 $12 $-1 $90 reversed single #
loop $-1 -1 $-1 $91 $92 $49 #
cone-surface $-1 -1 $-1 133.99998999999997 76 188.64999999999995 0 0 -1 -4.5500000000000007 0 0 1 I I 0 1 4.5500000000000007 forward I I I I #
loop $93 -1 $-1 $-1 $94 $34 #
coedge $-1 -1 $-1 $64 $64 $95 $96 reversed $50 $-1 #
face $-1 -1 $-1 $97 $98 $36 $-1 $99 forward single #
loop $-1 -1 $-1 $100 $101 $52 #
cone-surface $-1 -1 $-1 0 0 0 0 0 1 4.5500000000000007 0 0 1 I I 0 1 4.5500000000000007 forward I I I I #
face $-1 -1 $-1 $102 $103 $38 $-1 $104 forward single #
loop $-1 -1 $-1 $105 $106 $53 #
cone-surface $-1 -1 $-1 0 0 0 0 0 1 2.5 0 0 1 I I 0 1 2.5 forward I I I I #
face $-1 -1 $-1 $107 $108 $40 $-1 $109 forward single #
loop $-1 -1 $-1 $110 $111 $54 #
cone-surface $-1 -1 $-1 0 0 0 0 0 1 4.5500000000000007 0 0 1 I I 0 1 4.5500000000000007 forward I I I I #
face $-1 -1 $-1 $112 $113 $42 $-1 $114 forward single #
loop $-1 -1 $-1 $115 $116 $55 #
cone-surface $-1 -1 $-1 0 0 0 0 0 1 2.5 0 0 1 I I 0 1 2.5 forward I I I I #
face $-1 -1 $-1 $117 $118 $44 $-1 $119 forward single #
loop $-1 -1 $-1 $120 $121 $56 #
cone-surface $-1 -1 $-1 0 0 0 0 0 1 10 0 0 1 I I 0 1 10 forward I I I I #
model_id-kcp-attrib $-1 -1 $-1 $-1 $57 1 1021323982 1021323982 1452408834 6 #
face $122 -1 $-1 $123 $124 $45 $-1 $125 reversed single #
loop $-1 -1 $-1 $-1 $126 $57 #
plane-surface $-1 -1 $-1 0 0 20 0 0 1 1 0 0 forward_v I I I I #
face $-1 -1 $-1 $127 $128 $47 $-1 $129 forward single #
loop $-1 -1 $-1 $130 $131 $58 #
cone-surface $-1 -1 $-1 -2.8421709430404007e-014 3.5527136788005009e-014 15 0 0 -1 -15 0 0 1 I I 0 -1 15 forward I I I I #
model_id-kcp-attrib $-1 -1 $-1 $-1 $60 1 1021323982 1021323982 1452408833 4 #
face $132 -1 $-1 $133 $134 $12 $-1 $135 reversed single #
loop $136 -1 $-1 $137 $138 $60 #
cone-surface $-1 -1 $-1 133.99998999999997 76 187.49999999999994 0 0 -1 -2.5 0 0 1 I I 0 1 2.5 forward I I I I #
loop $-1 -1 $-1 $-1 $95 $49 #
coedge $-1 -1 $-1 $92 $92 $139 $140 reversed $61 $-1 #
model_id-kcp-attrib $-1 -1 $-1 $-1 $63 1 1021323982 1021323982 1452408833 23 #
coedge $-1 -1 $-1 $94 $94 $141 $142 forward $63 $-1 #
coedge $-1 -1 $-1 $95 $95 $64 $96 forward $91 $-1 #
edge $143 -1 $-1 $144 0 $144 6.2831853071795862 $64 $145 forward @7 unknown #
face $-1 -1 $-1 $-1 $146 $36 $-1 $147 forward single #
loop $-1 -1 $-1 $-1 $148 $65 #
plane-surface $-1 -1 $-1 0 0 -1.3499999999999943 0 0 -1 -1 0 0 forward_v I I I I #
loop $-1 -1 $-1 $-1 $149 $52 #
coedge $-1 -1 $-1 $101 $101 $148 $150 reversed $66 $-1 #
face $-1 -1 $-1 $-1 $151 $38 $-1 $152 forward single #
loop $-1 -1 $-1 $-1 $153 $68 #
plane-surface $-1 -1 $-1 0 0 -1.1500000000000057 0 0 -1 -1 0 0 forward_v I I I I #
loop $-1 -1 $-1 $-1 $154 $53 #
coedge $-1 -1 $-1 $106 $106 $153 $155 reversed $69 $-1 #
face $-1 -1 $-1 $-1 $156 $40 $-1 $157 forward single #
loop $-1 -1 $-1 $-1 $158 $71 #
plane-surface $-1 -1 $-1 0 0 -1.3499999999999943 0 0 -1 -1 0 0 forward_v I I I I #
loop $-1 -1 $-1 $-1 $159 $54 #
coedge $-1 -1 $-1 $111 $111 $158 $160 reversed $72 $-1 #
face $-1 -1 $-1 $-1 $161 $42 $-1 $162 forward single #
loop $-1 -1 $-1 $-1 $163 $74 #
plane-surface $-1 -1 $-1 0 0 -1.1500000000000057 0 0 -1 -1 0 0 forward_v I I I I #
loop $-1 -1 $-1 $-1 $164 $55 #
coedge $-1 -1 $-1 $116 $116 $163 $165 reversed $75 $-1 #
face $-1 -1 $-1 $-1 $166 $44 $-1 $167 forward single #
loop $-1 -1 $-1 $-1 $168 $77 #
plane-surface $-1 -1 $-1 0 0 -17.5 0 0 -1 -1 0 0 forward_v I I I I #
loop $-1 -1 $-1 $-1 $169 $56 #
coedge $-1 -1 $-1 $121 $121 $168 $170 reversed $78 $-1 #
model_id-kcp-attrib $-1 -1 $-1 $-1 $81 1 1021323982 1021323982 1452408834 2 #
face $171 -1 $-1 $172 $173 $45 $-1 $174 reversed single #
loop $-1 -1 $-1 $-1 $175 $81 #
plane-surface $-1 -1 $-1 0 0 -20 0 0 1 1 0 0 forward_v I I I I #
coedge $-1 -1 $-1 $176 $177 $178 $179 forward $82 $-1 #
face $-1 -1 $-1 $180 $181 $47 $-1 $182 forward single #
loop $-1 -1 $-1 $-1 $183 $84 #
plane-surface $-1 -1 $-1 25 -25 15 1 0 0 0 0 -1 forward_v I I I I #
loop $-1 -1 $-1 $-1 $184 $58 #
coedge $-1 -1 $-1 $131 $131 $185 $186 forward $85 $-1 #
model_id-kcp-attrib $-1 -1 $-1 $-1 $88 1 1021323982 1021323982 1452408833 5 #
face $187 -1 $-1 $188 $189 $12 $-1 $190 reversed single #
loop $-1 -1 $-1 $191 $192 $88 #
plane-surface $-1 -1 $-1 165.99999 44.000000000000014 187.29999999999995 0 0 -1 -1 0 0 forward_v I I I I #
model_id-kcp-attrib $-1 -1 $-1 $-1 $89 1 1021323982 1021323982 1452408833 20 #
loop $193 -1 $-1 $-1 $141 $60 #
coedge $-1 -1 $-1 $138 $138 $194 $195 reversed $89 $-1 #
coedge $-1 -1 $-1 $139 $139 $92 $140 forward $196 $-1 #
edge $197 -1 $-1 $198 -3.1415926535898024 $198 3.1415926535897838 $139 $199 forward @7 unknown #
coedge $-1 -1 $-1 $141 $141 $94 $142 reversed $137 $-1 #
edge $200 -1 $-1 $201 -3.1415926535898042 $201 3.141592653589782 $141 $202 forward @7 unknown #
attrib_edge_convexity-kcp-attrib $-1 -1 $203 $-1 $96 2 #
vertex $-1 -1 $-1 $96 $204 #
ellipse-curve $-1 -1 $-1 133.99998999999997 76 187.29999999999995 0 0 -1 -4.5500000000000007 0 0 1 I I #
loop $-1 -1 $-1 $-1 $205 $97 #
plane-surface $-1 -1 $-1 0 0 1.3499999999999943 0 0 1 1 0 0 forward_v I I I I #
coedge $-1 -1 $-1 $148 $148 $101 $150 forward $98 $-1 #
coedge $-1 -1 $-1 $149 $149 $205 $206 reversed $100 $-1 #
edge $-1 -1 $-1 $207 0 $207 6.2831853071795862 $148 $208 forward @7 unknown #
loop $-1 -1 $-1 $-1 $209 $102 #
plane-surface $-1 -1 $-1 0 0 1.1500000000000057 0 0 1 1 0 0 forward_v I I I I #
coedge $-1 -1 $-1 $153 $153 $106 $155 forward $103 $-1 #
coedge $-1 -1 $-1 $154 $154 $209 $210 reversed $105 $-1 #
edge $-1 -1 $-1 $211 0 $211 6.2831853071795862 $153 $212 forward @7 unknown #
loop $-1 -1 $-1 $-1 $213 $107 #
plane-surface $-1 -1 $-1 0 0 1.3499999999999943 0 0 1 1 0 0 forward_v I I I I #
coedge $-1 -1 $-1 $158 $158 $111 $160 forward $108 $-1 #
coedge $-1 -1 $-1 $159 $159 $213 $214 reversed $110 $-1 #
edge $-1 -1 $-1 $215 0 $215 6.2831853071795862 $158 $216 forward @7 unknown #
loop $-1 -1 $-1 $-1 $217 $112 #
plane-surface $-1 -1 $-1 0 0 1.1500000000000057 0 0 1 1 0 0 forward_v I I I I #
coedge $-1 -1 $-1 $163 $163 $116 $165 forward $113 $-1 #
coedge $-1 -1 $-1 $164 $164 $217 $218 reversed $115 $-1 #
edge $-1 -1 $-1 $219 0 $219 6.2831853071795862 $163 $220 forward @7 unknown #
loop $-1 -1 $-1 $-1 $221 $117 #
plane-surface $-1 -1 $-1 0 0 17.5 0 0 1 1 0 0 forward_v I I I I #
coedge $-1 -1 $-1 $168 $168 $121 $170 forward $118 $-1 #
coedge $-1 -1 $-1 $169 $169 $221 $222 reversed $120 $-1 #
edge $-1 -1 $-1 $223 0 $223 6.2831853071795862 $168 $224 forward @7 unknown #
model_id-kcp-attrib $-1 -1 $-1 $-1 $123 1 1021323982 1021323982 1452408834 4 #
face $225 -1 $-1 $226 $227 $45 $-1 $228 reversed single #
loop $-1 -1 $-1 $-1 $229 $123 #
plane-surface $-1 -1 $-1 0 -25 0 0 1 0 0 0 1 forward_v I I I I #
coedge $-1 -1 $-1 $230 $231 $232 $233 forward $124 $-1 #
coedge $-1 -1 $-1 $234 $126 $235 $236 forward $82 $-1 #
coedge $-1 -1 $-1 $126 $234 $237 $238 forward $82 $-1 #
coedge $-1 -1 $-1 $239 $240 $126 $179 reversed $241 $-1 #
edge $-1 -1 $-1 $242 -25 $243 25 $178 $244 forward @7 unknown #
face $-1 -1 $-1 $245 $246 $47 $-1 $247 forward single #
loop $-1 -1 $-1 $-1 $248 $127 #
plane-surface $-1 -1 $-1 25 25 15 0 1 0 0 0 1 forward_v I I I I #
coedge $-1 -1 $-1 $249 $250 $251 $252 forward $128 $-1 #
coedge $-1 -1 $-1 $184 $184 $253 $254 reversed $130 $-1 #
coedge $-1 -1 $-1 $185 $185 $131 $186 reversed $255 $-1 #
edge $-1 -1 $-1 $256 0 $256 6.2831853071795862 $131 $257 forward @7 unknown #
model_id-kcp-attrib $-1 -1 $-1 $-1 $133 1 1021323982 1021323982 1452408833 6 #
face $258 -1 $-1 $259 $260 $12 $-1 $261 reversed single #
loop $-1 -1 $-1 $262 $263 $133 #
cone-surface $-1 -1 $-1 165.99999 44.000000000000014 188.64999999999995 0 0 -1 -4.5500000000000007 0 0 1 I I 0 1 4.5500000000000007 forward I I I I #
loop $264 -1 $-1 $-1 $265 $88 #
coedge $-1 -1 $-1 $192 $192 $266 $267 reversed $134 $-1 #
model_id-kcp-attrib $-1 -1 $-1 $-1 $137 1 1021323982 1021323982 1452408833 21 #
coedge $-1 -1 $-1 $194 $194 $138 $195 forward $268 $-1 #
edge $269 -1 $-1 $270 -3.1415926535897989 $270 3.1415926535897873 $194 $271 forward @7 unknown #
loop $-1 -1 $-1 $272 $139 $273 #
attrib_edge_convexity-kcp-attrib $-1 -1 $274 $-1 $140 1 #
vertex $-1 -1 $-1 $140 $275 #
ellipse-curve $-1 -1 $-1 133.99998999999997 76 189.99999999999994 0 0 -1 -4.5500000000000007 0 0 1 I I #
attrib_edge_convexity-kcp-attrib $-1 -1 $276 $-1 $142 1 #
vertex $277 -1 $-1 $142 $278 #
ellipse-curve $-1 -1 $-1 133.99998999999997 76 187.29999999999995 0 0 -1 -2.5 0 0 1 I I #
convexity-sys-attrib $-1 -1 $-1 $143 $96 #
point $-1 -1 $-1 129.44998999999999 76 187.29999999999995 #
coedge $-1 -1 $-1 $205 $205 $149 $206 forward $146 $-1 #
edge $-1 -1 $-1 $279 0 $279 6.2831853071795862 $205 $280 forward @7 unknown #
vertex $-1 -1 $-1 $150 $281 #
ellipse-curve $-1 -1 $-1 0 0 -1.3499999999999943 0 0 -1 4.5500000000000007 0 0 1 I I #
coedge $-1 -1 $-1 $209 $209 $154 $210 forward $151 $-1 #
edge $-1 -1 $-1 $282 0 $282 6.2831853071795862 $209 $283 forward @7 unknown #
vertex $-1 -1 $-1 $155 $284 #
ellipse-curve $-1 -1 $-1 0 0 -1.1500000000000057 0 0 -1 2.5 0 0 1 I I #
coedge $-1 -1 $-1 $213 $213 $159 $214 forward $156 $-1 #
edge $-1 -1 $-1 $285 0 $285 6.2831853071795862 $213 $286 forward @7 unknown #
vertex $-1 -1 $-1 $160 $287 #
ellipse-curve $-1 -1 $-1 0 0 -1.3499999999999943 0 0 -1 4.5500000000000007 0 0 1 I I #
coedge $-1 -1 $-1 $217 $217 $164 $218 forward $161 $-1 #
edge $-1 -1 $-1 $288 0 $288 6.2831853071795862 $217 $289 forward @7 unknown #
vertex $-1 -1 $-1 $165 $290 #
ellipse-curve $-1 -1 $-1 0 0 -1.1500000000000057 0 0 -1 2.5 0 0 1 I I #
coedge $-1 -1 $-1 $221 $221 $169 $222 forward $166 $-1 #
edge $-1 -1 $-1 $291 0 $291 6.2831853071795862 $221 $292 forward @7 unknown #
vertex $-1 -1 $-1 $170 $293 #
ellipse-curve $-1 -1 $-1 0 0 -17.5 0 0 -1 10 0 0 1 I I #
model_id-kcp-attrib $-1 -1 $-1 $-1 $172 1 1021323982 1021323982 1452408834 7 #
face $294 -1 $-1 $295 $296 $45 $-1 $297 reversed single #
loop $-1 -1 $-1 $-1 $298 $172 #
plane-surface $-1 -1 $-1 -25 0 0 1 0 0 0 0 -1 forward_v I I I I #
coedge $-1 -1 $-1 $299 $237 $300 $301 forward $173 $-1 #
coedge $-1 -1 $-1 $302 $175 $299 $303 forward $124 $-1 #
coedge $-1 -1 $-1 $175 $302 $304 $305 forward $124 $-1 #
coedge $-1 -1 $-1 $240 $239 $175 $233 reversed $241 $-1 #
edge $-1 -1 $-1 $306 -25 $307 25 $232 $308 forward @7 unknown #
coedge $-1 -1 $-1 $177 $176 $309 $310 forward $82 $-1 #
coedge $-1 -1 $-1 $311 $312 $176 $236 reversed $296 $-1 #
edge $-1 -1 $-1 $243 -25 $313 25 $235 $314 forward @7 unknown #
coedge $-1 -1 $-1 $229 $315 $177 $238 reversed $173 $-1 #
edge $-1 -1 $-1 $316 -25 $242 25 $237 $317 forward @7 unknown #
coedge $-1 -1 $-1 $232 $178 $315 $318 forward $241 $-1 #
coedge $-1 -1 $-1 $178 $232 $311 $319 reversed $241 $-1 #
loop $-1 -1 $-1 $-1 $239 $295 #
vertex $-1 -1 $-1 $179 $320 #
vertex $-1 -1 $-1 $179 $321 #
straight-curve $-1 -1 $-1 25 0 20 0 1 0 I I #
face $-1 -1 $-1 $322 $323 $47 $-1 $324 forward single #
loop $-1 -1 $-1 $-1 $325 $180 #
plane-surface $-1 -1 $-1 -25 25 15 -1 0 0 0 0 1 forward_v I I I I #
coedge $-1 -1 $-1 $326 $327 $328 $329 forward $181 $-1 #
coedge $-1 -1 $-1 $330 $183 $327 $331 reversed $128 $-1 #
coedge $-1 -1 $-1 $183 $330 $332 $333 forward $128 $-1 #
coedge $-1 -1 $-1 $334 $328 $183 $252 reversed $335 $-1 #
edge $-1 -1 $-1 $336 -25 $337 25 $183 $338 forward @7 unknown #
coedge $-1 -1 $-1 $253 $253 $184 $254 forward $339 $-1 #
edge $340 -1 $-1 $341 0 $341 6.2831853071795862 $184 $342 forward @7 unknown #
loop $-1 -1 $-1 $-1 $185 $322 #
vertex $-1 -1 $-1 $186 $343 #
ellipse-curve $-1 -1 $-1 -2.8421709430404007e-014 3.5527136788005009e-014 -20 0 0 -1 -15 0 0 1 I I #
model_id-kcp-attrib $-1 -1 $-1 $-1 $188 1 1021323982 1021323982 1452408833 7 #
face $344 -1 $-1 $345 $346 $12 $-1 $347 reversed single #
loop $348 -1 $-1 $349 $350 $188 #
cone-surface $-1 -1 $-1 165.99999 44.000000000000014 187.49999999999994 0 0 -1 -2.5 0 0 1 I I 0 1 2.5 forward I I I I #
loop $-1 -1 $-1 $-1 $266 $133 #
coedge $-1 -1 $-1 $263 $263 $351 $352 reversed $189 $-1 #
model_id-kcp-attrib $-1 -1 $-1 $-1 $191 1 1021323982 1021323982 1452408833 29 #
coedge $-1 -1 $-1 $265 $265 $353 $354 forward $191 $-1 #
coedge $-1 -1 $-1 $266 $266 $192 $267 forward $262 $-1 #
edge $355 -1 $-1 $356 0 $356 6.2831853071795862 $192 $357 forward @7 unknown #
loop $358 -1 $-1 $359 $194 $360 #
attrib_edge_convexity-kcp-attrib $-1 -1 $361 $-1 $195 1 #
vertex $362 -1 $-1 $195 $363 #
ellipse-curve $-1 -1 $-1 133.99998999999997 76 184.99999999999994 0 0 1 -2.5 0 0 1 I I #
loop $-1 -1 $-1 $364 $351 $273 #
face $365 -1 $-1 $366 $196 $12 $-1 $367 reversed single #
convexity-sys-attrib $-1 -1 $-1 $197 $140 #
point $-1 -1 $-1 138.54998999999998 76.000000000000043 189.99999999999994 #
convexity-sys-attrib $-1 -1 $-1 $200 $142 #
model_id-kcp-attrib $-1 -1 $-1 $-1 $201 1 1021323982 1021323982 1452408833 25 #
point $-1 -1 $-1 136.49998999999997 76.000000000000028 187.29999999999995 #
vertex $-1 -1 $-1 $206 $368 #
ellipse-curve $-1 -1 $-1 0 0 1.3499999999999943 0 0 1 4.5500000000000007 0 0 1 I I #
point $-1 -1 $-1 4.5500000000000007 0 -1.3499999999999943 #
vertex $-1 -1 $-1 $210 $369 #
ellipse-curve $-1 -1 $-1 0 0 1.1500000000000057 0 0 1 2.5 0 0 1 I I #
point $-1 -1 $-1 2.5 0 -1.1500000000000057 #
vertex $-1 -1 $-1 $214 $370 #
ellipse-curve $-1 -1 $-1 0 0 1.3499999999999943 0 0 1 4.5500000000000007 0 0 1 I I #
point $-1 -1 $-1 4.5500000000000007 0 -1.3499999999999943 #
vertex $-1 -1 $-1 $218 $371 #
ellipse-curve $-1 -1 $-1 0 0 1.1500000000000057 0 0 1 2.5 0 0 1 I I #
point $-1 -1 $-1 2.5 0 -1.1500000000000057 #
vertex $-1 -1 $-1 $222 $372 #
ellipse-curve $-1 -1 $-1 0 0 17.5 0 0 1 10 0 0 1 I I #
point $-1 -1 $-1 10 0 -17.5 #
model_id-kcp-attrib $-1 -1 $-1 $-1 $226 1 1021323982 1021323982 1452408834 3 #
face $373 -1 $-1 $-1 $241 $45 $-1 $374 reversed single #
loop $-1 -1 $-1 $-1 $311 $226 #
plane-surface $-1 -1 $-1 0 25 0 0 -1 0 0 0 -1 forward_v I I I I #
coedge $-1 -1 $-1 $375 $309 $312 $376 forward $227 $-1 #
coedge $-1 -1 $-1 $315 $229 $230 $303 reversed $173 $-1 #
coedge $-1 -1 $-1 $309 $375 $229 $301 reversed $227 $-1 #
edge $-1 -1 $-1 $316 -20 $377 20 $300 $378 forward @7 unknown #
coedge $-1 -1 $-1 $231 $230 $375 $379 forward $124 $-1 #
edge $-1 -1 $-1 $307 -25 $377 25 $299 $380 forward @7 unknown #
coedge $-1 -1 $-1 $312 $311 $231 $305 reversed $296 $-1 #
edge $-1 -1 $-1 $381 -25 $306 25 $304 $382 forward @7 unknown #
vertex $-1 -1 $-1 $233 $383 #
vertex $-1 -1 $-1 $318 $384 #
straight-curve $-1 -1 $-1 25 0 -20 0 -1 0 I I #
coedge $-1 -1 $-1 $298 $300 $234 $310 reversed $227 $-1 #
edge $-1 -1 $-1 $313 -25 $316 25 $309 $385 forward @7 unknown #
coedge $-1 -1 $-1 $304 $235 $240 $319 forward $296 $-1 #
coedge $-1 -1 $-1 $235 $304 $298 $376 reversed $296 $-1 #
vertex $-1 -1 $-1 $236 $386 #
straight-curve $-1 -1 $-1 0 25 20 -1 0 0 I I #
coedge $-1 -1 $-1 $237 $299 $239 $318 reversed $173 $-1 #
vertex $-1 -1 $-1 $310 $387 #
straight-curve $-1 -1 $-1 0 -25 20 1 0 0 I I #
edge $-1 -1 $-1 $242 -20 $307 20 $239 $388 forward @7 unknown #
edge $-1 -1 $-1 $243 -20 $306 20 $240 $389 forward @7 unknown #
point $-1 -1 $-1 25 -25 20 #
point $-1 -1 $-1 25 25 20 #
face $-1 -1 $-1 $390 $335 $47 $-1 $391 reversed single #
loop $-1 -1 $-1 $-1 $392 $245 #
plane-surface $-1 -1 $-1 -25 -25 15 0 -1 0 0 0 -1 forward_v I I I I #
coedge $-1 -1 $-1 $393 $394 $395 $396 forward $246 $-1 #
coedge $-1 -1 $-1 $397 $248 $394 $398 reversed $181 $-1 #
coedge $-1 -1 $-1 $248 $397 $249 $331 forward $181 $-1 #
coedge $-1 -1 $-1 $251 $395 $248 $329 reversed $335 $-1 #
edge $-1 -1 $-1 $337 -25 $399 25 $248 $400 forward @7 unknown #
coedge $-1 -1 $-1 $250 $249 $401 $402 reversed $128 $-1 #
edge $-1 -1 $-1 $403 0 $337 35 $327 $404 forward @7 unknown #
coedge $-1 -1 $-1 $405 $392 $250 $333 reversed $323 $-1 #
edge $-1 -1 $-1 $406 0 $336 35 $250 $407 forward @7 unknown #
coedge $-1 -1 $-1 $395 $251 $392 $408 reversed $335 $-1 #
loop $-1 -1 $-1 $255 $251 $322 #
vertex $-1 -1 $-1 $333 $409 #
vertex $-1 -1 $-1 $331 $410 #
straight-curve $-1 -1 $-1 25 0 -20 0 1 0 I I #
loop $-1 -1 $-1 $-1 $253 $390 #
convexity-sys-attrib $-1 -1 $-1 $-1 $254 #
vertex $-1 -1 $-1 $254 $411 #
ellipse-curve $-1 -1 $-1 -2.8421709430404007e-014 3.5527136788005009e-014 15 0 0 -1 -15 0 0 1 I I #
point $-1 -1 $-1 -15.000000000000028 3.5527136788005009e-014 -20 #
model_id-kcp-attrib $-1 -1 $-1 $-1 $259 1 1021323982 1021323982 1452408833 8 #
face $412 -1 $-1 $413 $414 $12 $-1 $415 forward single #
loop $-1 -1 $-1 $416 $417 $259 #
cone-surface $-1 -1 $-1 149.99998999703507 60.000000002964953 169.99999999999994 0 0 1 10 0 0 1 I I 0 1 10 forward I I I I #
model_id-kcp-attrib $-1 -1 $-1 $-1 $260 1 1021323982 1021323982 1452408833 26 #
loop $418 -1 $-1 $-1 $353 $188 #
coedge $-1 -1 $-1 $350 $350 $419 $420 reversed $260 $-1 #
coedge $-1 -1 $-1 $351 $351 $263 $352 forward $272 $-1 #
edge $421 -1 $-1 $422 -3.1415926535897993 $422 3.1415926535897869 $351 $423 forward @7 unknown #
coedge $-1 -1 $-1 $353 $353 $265 $354 reversed $349 $-1 #
edge $424 -1 $-1 $425 -3.1415926535897989 $425 3.1415926535897873 $353 $426 forward @7 unknown #
attrib_edge_convexity-kcp-attrib $-1 -1 $427 $-1 $267 2 #
vertex $-1 -1 $-1 $267 $428 #
ellipse-curve $-1 -1 $-1 165.99999 44.000000000000014 187.29999999999995 0 0 -1 -4.5500000000000007 0 0 1 I I #
model_id-kcp-attrib $-1 -1 $-1 $-1 $268 1 1021323982 1021323982 1452408833 22 #
loop $429 -1 $-1 $430 $419 $360 #
face $431 -1 $-1 $432 $268 $12 $-1 $433 reversed single #
convexity-sys-attrib $-1 -1 $-1 $269 $195 #
model_id-kcp-attrib $-1 -1 $-1 $-1 $270 1 1021323982 1021323982 1452408833 24 #
point $-1 -1 $-1 136.49998999999997 75.999999999999986 184.99999999999994 #
loop $-1 -1 $-1 $-1 $434 $273 #
model_id-kcp-attrib $-1 -1 $-1 $-1 $273 1 1021323982 1021323982 1452408833 15 #
face $435 -1 $-1 $436 $437 $12 $-1 $438 reversed single #
plane-surface $-1 -1 $-1 149.99998999999997 60.000000000000043 189.99999999999994 0 0 -1 0 -0.99999999999999989 0 forward_v I I I I #
point $-1 -1 $-1 4.5500000000000007 0 1.3499999999999943 #
point $-1 -1 $-1 2.5 0 1.1500000000000057 #
point $-1 -1 $-1 4.5500000000000007 0 1.3499999999999943 #
point $-1 -1 $-1 2.5 0 1.1500000000000057 #
point $-1 -1 $-1 10 0 17.5 #
model_id-kcp-attrib $-1 -1 $-1 $-1 $295 1 1021323982 1021323982 1452408834 5 #
plane-surface $-1 -1 $-1 25 0 0 -1 0 0 0 0 1 forward_v I I I I #
coedge $-1 -1 $-1 $300 $298 $302 $379 reversed $227 $-1 #
edge $-1 -1 $-1 $313 -20 $381 20 $312 $439 forward @7 unknown #
vertex $-1 -1 $-1 $379 $440 #
straight-curve $-1 -1 $-1 -25 -25 0 0 0 -1 I I #
edge $-1 -1 $-1 $377 -25 $381 25 $375 $441 forward @7 unknown #
straight-curve $-1 -1 $-1 0 -25 -20 -1 0 0 I I #
vertex $-1 -1 $-1 $305 $442 #
straight-curve $-1 -1 $-1 0 25 -20 1 0 0 I I #
point $-1 -1 $-1 25 25 -20 #
point $-1 -1 $-1 25 -25 -20 #
straight-curve $-1 -1 $-1 -25 0 20 0 -1 0 I I #
point $-1 -1 $-1 -25 25 20 #
point $-1 -1 $-1 -25 -25 20 #
straight-curve $-1 -1 $-1 25 -25 0 0 0 -1 I I #
straight-curve $-1 -1 $-1 25 25 0 0 0 -1 I I #
face $-1 -1 $-1 $-1 $443 $47 $-1 $444 forward single #
plane-surface $-1 -1 $-1 -0.43677372735450604 1.1168943992507614e-014 -20 0 0 1 1 0 0 forward_v I I I I #
coedge $-1 -1 $-1 $332 $445 $334 $408 forward $323 $-1 #
coedge $-1 -1 $-1 $446 $325 $445 $447 reversed $246 $-1 #
coedge $-1 -1 $-1 $325 $446 $326 $398 forward $246 $-1 #
coedge $-1 -1 $-1 $328 $334 $325 $396 reversed $335 $-1 #
edge $-1 -1 $-1 $399 -25 $448 25 $325 $449 forward @7 unknown #
coedge $-1 -1 $-1 $327 $326 $450 $451 reversed $181 $-1 #
edge $-1 -1 $-1 $452 0 $399 35 $394 $453 forward @7 unknown #
vertex $-1 -1 $-1 $398 $454 #
straight-curve $-1 -1 $-1 0 25 -20 -1 0 0 I I #
coedge $-1 -1 $-1 $450 $455 $330 $402 forward $443 $-1 #
edge $456 -1 $-1 $406 -25 $403 25 $330 $457 forward @7 unknown #
vertex $-1 -1 $-1 $402 $458 #
straight-curve $-1 -1 $-1 25 25 15 0 0 -1 I I #
coedge $-1 -1 $-1 $445 $332 $455 $459 reversed $323 $-1 #
vertex $-1 -1 $-1 $459 $460 #
straight-curve $-1 -1 $-1 25 -25 15 0 0 -1 I I #
edge $-1 -1 $-1 $448 -25 $336 25 $392 $461 forward @7 unknown #
point $-1 -1 $-1 25 -25 -20 #
point $-1 -1 $-1 25 25 -20 #
point $-1 -1 $-1 -15.000000000000028 3.5527136788005009e-014 15 #
model_id-kcp-attrib $-1 -1 $-1 $-1 $345 1 1021323982 1021323982 1452408833 9 #
face $462 -1 $-1 $360 $463 $12 $-1 $464 forward single #
loop $-1 -1 $-1 $465 $466 $345 #
cone-surface $-1 -1 $-1 149.99998999999994 60.000000000000078 167.49999999999994 0 0 -1 -15 0 0 1 I I 0 1 15 forward I I I I #
loop $-1 -1 $-1 $-1 $467 $259 #
coedge $-1 -1 $-1 $417 $417 $468 $469 reversed $346 $-1 #
model_id-kcp-attrib $-1 -1 $-1 $-1 $349 1 1021323982 1021323982 1452408833 27 #
coedge $-1 -1 $-1 $419 $419 $350 $420 forward $359 $-1 #
edge $470 -1 $-1 $471 -3.1415926535898016 $471 3.1415926535897847 $419 $472 forward @7 unknown #
attrib_edge_convexity-kcp-attrib $-1 -1 $473 $-1 $352 1 #
vertex $-1 -1 $-1 $352 $474 #
ellipse-curve $-1 -1 $-1 165.99999 44.000000000000014 189.99999999999994 0 0 -1 -4.5500000000000007 0 0 1 I I #
attrib_edge_convexity-kcp-attrib $-1 -1 $475 $-1 $354 1 #
vertex $476 -1 $-1 $354 $477 #
ellipse-curve $-1 -1 $-1 165.99999 44.000000000000014 187.29999999999995 0 0 -1 -2.5 0 0 1 I I #
convexity-sys-attrib $-1 -1 $-1 $355 $267 #
point $-1 -1 $-1 161.44998999999999 44.000000000000014 187.29999999999995 #
model_id-kcp-attrib $-1 -1 $-1 $-1 $359 1 1021323982 1021323982 1452408833 28 #
loop $-1 -1 $-1 $478 $479 $360 #
model_id-kcp-attrib $-1 -1 $-1 $-1 $360 1 1021323982 1021323982 1452408833 11 #
face $480 -1 $-1 $481 $482 $12 $-1 $483 forward single #
plane-surface $-1 -1 $-1 149.99998999999997 60.000000000000043 184.99999999999994 0 0 1 0 0.99999999999999989 0 forward_v I I I I #
coedge $-1 -1 $-1 $484 $485 $486 $487 forward $364 $-1 #
model_id-kcp-attrib $-1 -1 $-1 $-1 $366 1 1021323982 1021323982 1452408833 16 #
face $488 -1 $-1 $-1 $489 $12 $-1 $433 reversed single #
loop $-1 -1 $-1 $-1 $490 $366 #
plane-surface $-1 -1 $-1 124.99998999999997 60.000000000000043 187.49999999999994 1 0 0 0 -0.99999999999999989 0 forward_v I I I I #
straight-curve $-1 -1 $-1 -25 25 0 0 0 -1 I I #
point $-1 -1 $-1 -25 -25 -20 #
straight-curve $-1 -1 $-1 -25 0 -20 0 1 0 I I #
point $-1 -1 $-1 -25 25 -20 #
loop $-1 -1 $-1 $339 $455 $390 #
plane-surface $-1 -1 $-1 -0.43677372735450604 1.1168943992507614e-014 14.999999999999998 0 0 1 1 0 0 forward_v I I I I #
coedge $-1 -1 $-1 $392 $405 $393 $447 forward $323 $-1 #
coedge $-1 -1 $-1 $394 $393 $491 $492 reversed $246 $-1 #
edge $-1 -1 $-1 $493 0 $448 35 $445 $494 forward @7 unknown #
vertex $-1 -1 $-1 $447 $495 #
straight-curve $-1 -1 $-1 -25 0 -20 0 -1 0 I I #
coedge $-1 -1 $-1 $491 $401 $397 $451 forward $443 $-1 #
edge $496 -1 $-1 $403 -25 $452 25 $397 $497 forward @7 unknown #
vertex $-1 -1 $-1 $451 $498 #
straight-curve $-1 -1 $-1 -25 25 15 0 0 -1 I I #
point $-1 -1 $-1 -25 25 -20 #
coedge $-1 -1 $-1 $401 $491 $405 $459 forward $443 $-1 #
convexity-sys-attrib $-1 -1 $-1 $-1 $402 #
straight-curve $-1 -1 $-1 25 0 15 0 1 0 I I #
point $-1 -1 $-1 25 25 15 #
edge $499 -1 $-1 $493 -25 $406 25 $405 $500 forward @7 unknown #
point $-1 -1 $-1 25 -25 15 #
straight-curve $-1 -1 $-1 0 -25 -20 1 0 0 I I #
model_id-kcp-attrib $-1 -1 $-1 $-1 $413 1 1021323982 1021323982 1452408833 10 #
loop $-1 -1 $-1 $501 $502 $413 #
plane-surface $-1 -1 $-1 149.99998999999994 60.000000000000078 149.99999999999994 0 0 -1 -0.99999999999999989 0 0 forward_v I I I I #
loop $-1 -1 $-1 $-1 $503 $345 #
coedge $-1 -1 $-1 $466 $466 $504 $505 reversed $414 $-1 #
coedge $-1 -1 $-1 $467 $467 $502 $506 reversed $416 $-1 #
coedge $-1 -1 $-1 $468 $468 $417 $469 forward $489 $-1 #
edge $507 -1 $-1 $508 -3.1415926535898002 $508 3.141592653589786 $468 $509 forward @7 unknown #
attrib_edge_convexity-kcp-attrib $-1 -1 $510 $-1 $420 1 #
vertex $511 -1 $-1 $420 $512 #
ellipse-curve $-1 -1 $-1 165.99999 44.000000000000014 184.99999999999994 0 0 1 -2.5 0 0 1 I I #
convexity-sys-attrib $-1 -1 $-1 $421 $352 #
point $-1 -1 $-1 170.54998999999998 44.000000000000043 189.99999999999994 #
convexity-sys-attrib $-1 -1 $-1 $424 $354 #
model_id-kcp-attrib $-1 -1 $-1 $-1 $425 1 1021323982 1021323982 1452408833 31 #
point $-1 -1 $-1 168.49999 44.000000000000028 187.29999999999995 #
loop $-1 -1 $-1 $-1 $504 $360 #
coedge $-1 -1 $-1 $513 $514 $515 $516 forward $430 $-1 #
model_id-kcp-attrib $-1 -1 $-1 $-1 $432 1 1021323982 1021323982 1452408833 12 #
face $517 -1 $-1 $518 $519 $12 $-1 $520 reversed single #
loop $-1 -1 $-1 $-1 $521 $432 #
plane-surface $-1 -1 $-1 149.99998999999997 85.000000000000043 187.49999999999994 0 1 0 0 0 -0.99999999999999989 forward_v I I I I #
coedge $-1 -1 $-1 $522 $434 $523 $524 reversed $364 $-1 #
coedge $-1 -1 $-1 $434 $522 $525 $526 reversed $364 $-1 #
coedge $-1 -1 $-1 $527 $528 $434 $487 reversed $437 $-1 #
edge $-1 -1 $-1 $529 -25.000000000000004 $530 25.000000000000004 $486 $531 forward @7 unknown #
model_id-kcp-attrib $-1 -1 $-1 $-1 $436 1 1021323982 1021323982 1452408833 17 #
loop $-1 -1 $-1 $-1 $468 $436 #
coedge $-1 -1 $-1 $528 $527 $532 $533 forward $437 $-1 #
coedge $-1 -1 $-1 $455 $450 $446 $492 forward $443 $-1 #
edge $534 -1 $-1 $452 -25 $493 25 $446 $535 forward @7 unknown #
vertex $-1 -1 $-1 $459 $536 #
straight-curve $-1 -1 $-1 -25 -25 15 0 0 -1 I I #
point $-1 -1 $-1 -25 -25 -20 #
convexity-sys-attrib $-1 -1 $-1 $-1 $451 #
straight-curve $-1 -1 $-1 0 25 15 -1 0 0 I I #
point $-1 -1 $-1 -25 25 15 #
convexity-sys-attrib $-1 -1 $-1 $-1 $459 #
straight-curve $-1 -1 $-1 0 -25 15 1 0 0 I I #
loop $-1 -1 $-1 $-1 $537 $413 #
coedge $-1 -1 $-1 $502 $502 $467 $506 forward $463 $-1 #
coedge $-1 -1 $-1 $503 $503 $537 $538 reversed $465 $-1 #
coedge $-1 -1 $-1 $504 $504 $466 $505 forward $478 $-1 #
edge $539 -1 $-1 $540 0 $540 6.2831853071795862 $504 $541 forward @7 unknown #
edge $542 -1 $-1 $543 -3.1415926535898002 $543 3.141592653589786 $502 $544 forward @7 unknown #
attrib_edge_convexity-kcp-attrib $-1 -1 $545 $-1 $469 2 #
vertex $-1 -1 $-1 $469 $546 #
ellipse-curve $-1 -1 $-1 149.99998999703507 60.000000002964953 184.99999999999994 0 0 -1 10 0 0 1 I I #
convexity-sys-attrib $-1 -1 $-1 $470 $420 #
model_id-kcp-attrib $-1 -1 $-1 $-1 $471 1 1021323982 1021323982 1452408833 30 #
point $-1 -1 $-1 168.49999 43.999999999999993 184.99999999999994 #
coedge $-1 -1 $-1 $532 $479 $547 $548 reversed $430 $-1 #
coedge $-1 -1 $-1 $479 $532 $521 $549 reversed $430 $-1 #
coedge $-1 -1 $-1 $550 $551 $479 $516 reversed $552 $-1 #
edge $553 -1 $-1 $554 -25.000000000000004 $555 25.000000000000004 $479 $556 forward @7 unknown #
model_id-kcp-attrib $-1 -1 $-1 $-1 $481 1 1021323982 1021323982 1452408833 13 #
face $557 -1 $-1 $273 $552 $12 $-1 $558 reversed single #
loop $-1 -1 $-1 $-1 $547 $481 #
plane-surface $-1 -1 $-1 149.99998999999997 35.000000000000043 187.49999999999994 0 1 0 0 0 -0.99999999999999989 forward_v I I I I #
coedge $-1 -1 $-1 $559 $560 $514 $549 forward $482 $-1 #
coedge $-1 -1 $-1 $485 $484 $561 $562 reversed $364 $-1 #
coedge $-1 -1 $-1 $563 $564 $484 $524 forward $519 $-1 #
edge $-1 -1 $-1 $565 -25.000000000000004 $530 25.000000000000004 $484 $566 forward @7 unknown #
coedge $-1 -1 $-1 $560 $559 $485 $526 forward $482 $-1 #
edge $567 -1 $-1 $529 -25.000000000000004 $568 25.000000000000004 $485 $569 forward @7 unknown #
coedge $-1 -1 $-1 $490 $486 $559 $570 reversed $437 $-1 #
coedge $-1 -1 $-1 $486 $490 $563 $571 reversed $437 $-1 #
vertex $-1 -1 $-1 $570 $572 #
vertex $-1 -1 $-1 $571 $573 #
straight-curve $-1 -1 $-1 124.99998999999997 60.000000000000043 189.99999999999994 0 -0.99999999999999989 0 I I #
coedge $-1 -1 $-1 $514 $513 $490 $533 reversed $430 $-1 #
edge $574 -1 $-1 $575 -25.000000000000004 $576 25.000000000000004 $532 $577 forward @7 unknown #
convexity-sys-attrib $-1 -1 $-1 $-1 $492 #
straight-curve $-1 -1 $-1 -25 0 15 0 -1 0 I I #
point $-1 -1 $-1 -25 -25 15 #
coedge $-1 -1 $-1 $537 $537 $503 $538 forward $501 $-1 #
edge $578 -1 $-1 $579 0 $579 6.2831853071795862 $537 $580 forward @7 unknown #
attrib_edge_convexity-kcp-attrib $-1 -1 $581 $-1 $505 2 #
vertex $-1 -1 $-1 $505 $582 #
ellipse-curve $-1 -1 $-1 149.99998999999994 60.000000000000078 184.99999999999994 0 0 1 -15 0 0 1 I I #
attrib_edge_convexity-kcp-attrib $-1 -1 $583 $-1 $506 1 #
vertex $-1 -1 $-1 $506 $584 #
ellipse-curve $-1 -1 $-1 149.99998999703507 60.000000002964953 149.99999999999994 0 0 1 10 0 0 1 I I #
convexity-sys-attrib $-1 -1 $-1 $507 $469 #
point $-1 -1 $-1 139.99998999703507 60.000000002964882 184.99999999999994 #
coedge $-1 -1 $-1 $564 $563 $513 $548 forward $519 $-1 #
edge $585 -1 $-1 $576 -25.000000000000004 $555 25.000000000000004 $513 $586 forward @7 unknown #
edge $587 -1 $-1 $554 -25.000000000000004 $575 25.000000000000004 $514 $588 forward @7 unknown #
coedge $-1 -1 $-1 $561 $515 $560 $589 reversed $552 $-1 #
coedge $-1 -1 $-1 $515 $561 $564 $590 reversed $552 $-1 #
loop $-1 -1 $-1 $-1 $561 $518 #
attrib_edge_convexity-kcp-attrib $-1 -1 $591 $-1 $516 1 #
vertex $-1 -1 $-1 $549 $592 #
vertex $-1 -1 $-1 $516 $593 #
straight-curve $-1 -1 $-1 174.99998999999997 60.000000000000043 184.99999999999994 0 -0.99999999999999989 0 I I #
model_id-kcp-attrib $-1 -1 $-1 $-1 $518 1 1021323982 1021323982 1452408833 14 #
plane-surface $-1 -1 $-1 174.99998999999997 60.000000000000043 187.49999999999994 -1 0 0 0 0.99999999999999989 0 forward_v I I I I #
coedge $-1 -1 $-1 $525 $521 $527 $570 forward $482 $-1 #
coedge $-1 -1 $-1 $521 $525 $550 $589 forward $482 $-1 #
coedge $-1 -1 $-1 $551 $550 $522 $562 forward $552 $-1 #
edge $594 -1 $-1 $568 -25.000000000000004 $565 25.000000000000004 $522 $595 forward @7 unknown #
coedge $-1 -1 $-1 $547 $523 $528 $571 forward $519 $-1 #
coedge $-1 -1 $-1 $523 $547 $551 $590 forward $519 $-1 #
vertex $-1 -1 $-1 $524 $596 #
straight-curve $-1 -1 $-1 149.99998999999997 35.000000000000043 189.99999999999994 -0.99999999999999989 0 0 I I #
attrib_edge_convexity-kcp-attrib $-1 -1 $597 $-1 $526 1 #
vertex $-1 -1 $-1 $526 $598 #
straight-curve $-1 -1 $-1 149.99998999999997 85.000000000000043 189.99999999999994 0.99999999999999989 0 0 I I #
edge $599 -1 $-1 $575 -2.5000000000000004 $529 2.5000000000000004 $527 $600 forward @7 unknown #
edge $-1 -1 $-1 $530 -2.5000000000000004 $576 2.5000000000000004 $528 $601 forward @7 unknown #
point $-1 -1 $-1 124.99998999999997 85.000000000000043 189.99999999999994 #
point $-1 -1 $-1 124.99998999999997 35.000000000000043 189.99999999999994 #
attrib_edge_convexity-kcp-attrib $-1 -1 $602 $-1 $533 1 #
vertex $-1 -1 $-1 $549 $603 #
vertex $-1 -1 $-1 $548 $604 #
straight-curve $-1 -1 $-1 124.99998999999997 60.000000000000043 184.99999999999994 0 -0.99999999999999989 0 I I #
attrib_edge_convexity-kcp-attrib $-1 -1 $605 $-1 $538 1 #
vertex $-1 -1 $-1 $538 $606 #
ellipse-curve $-1 -1 $-1 149.99998999999994 60.000000000000078 149.99999999999994 0 0 -1 -15 0 0 1 I I #
convexity-sys-attrib $-1 -1 $-1 $539 $505 #
point $-1 -1 $-1 134.99998999999994 60.000000000000078 184.99999999999994 #
convexity-sys-attrib $-1 -1 $-1 $542 $506 #
point $-1 -1 $-1 139.99998999703507 60.000000002965024 149.99999999999994 #
attrib_edge_convexity-kcp-attrib $-1 -1 $607 $-1 $548 1 #
straight-curve $-1 -1 $-1 149.99998999999997 35.000000000000043 184.99999999999994 0.99999999999999989 0 0 I I #
attrib_edge_convexity-kcp-attrib $-1 -1 $608 $-1 $549 1 #
straight-curve $-1 -1 $-1 149.99998999999997 85.000000000000043 184.99999999999994 -0.99999999999999989 0 0 I I #
edge $609 -1 $-1 $568 -2.5000000000000004 $554 2.5000000000000004 $550 $610 forward @7 unknown #
edge $611 -1 $-1 $555 -2.5000000000000004 $565 2.5000000000000004 $551 $612 forward @7 unknown #
convexity-sys-attrib $-1 -1 $-1 $553 $516 #
point $-1 -1 $-1 174.99998999999997 85.000000000000043 184.99999999999994 #
point $-1 -1 $-1 174.99998999999997 35.000000000000043 184.99999999999994 #
attrib_edge_convexity-kcp-attrib $-1 -1 $613 $-1 $562 1 #
straight-curve $-1 -1 $-1 174.99998999999997 60.000000000000043 189.99999999999994 0 -0.99999999999999989 0 I I #
point $-1 -1 $-1 174.99998999999997 35.000000000000043 189.99999999999994 #
convexity-sys-attrib $-1 -1 $-1 $567 $526 #
point $-1 -1 $-1 174.99998999999997 85.000000000000043 189.99999999999994 #
attrib_edge_convexity-kcp-attrib $-1 -1 $614 $-1 $570 1 #
straight-curve $-1 -1 $-1 124.99998999999997 85.000000000000043 187.49999999999994 0 0 0.99999999999999989 I I #
straight-curve $-1 -1 $-1 124.99998999999997 35.000000000000043 187.49999999999994 0 0 -0.99999999999999989 I I #
convexity-sys-attrib $-1 -1 $-1 $574 $533 #
point $-1 -1 $-1 124.99998999999997 85.000000000000043 184.99999999999994 #
point $-1 -1 $-1 124.99998999999997 35.000000000000043 184.99999999999994 #
convexity-sys-attrib $-1 -1 $-1 $578 $538 #
point $-1 -1 $-1 134.99998999999994 60.000000000000078 149.99999999999994 #
convexity-sys-attrib $-1 -1 $-1 $585 $548 #
convexity-sys-attrib $-1 -1 $-1 $587 $549 #
attrib_edge_convexity-kcp-attrib $-1 -1 $615 $-1 $589 1 #
straight-curve $-1 -1 $-1 174.99998999999997 85.000000000000043 187.49999999999994 0 0 -0.99999999999999989 I I #
attrib_edge_convexity-kcp-attrib $-1 -1 $616 $-1 $590 1 #
straight-curve $-1 -1 $-1 174.99998999999997 35.000000000000043 187.49999999999994 0 0 0.99999999999999989 I I #
convexity-sys-attrib $-1 -1 $-1 $594 $562 #
convexity-sys-attrib $-1 -1 $-1 $599 $570 #
convexity-sys-attrib $-1 -1 $-1 $609 $589 #
convexity-sys-attrib $-1 -1 $-1 $611 $590 #
End-of-ACIS-data 