600 0 1 0           
85 GICL ACIS Healer - Source: /gicl/data5/repository/CMU/scanner/potentiometer.sat - 6 0 18 ACIS 6.0.3 Solaris 24 Sat Apr 13 00:31:05 2002 
1 9.999999999999999547e-07 1.000000000000000036e-10 
body $-1 $1 $-1 $-1 #
lump $-1 $-1 $2 $0 #
shell $-1 $-1 $-1 $3 $-1 $1 #
face $-1 $4 $5 $2 $-1 $6 forward single #
face $-1 $7 $8 $2 $-1 $9 forward single #
loop $-1 $10 $11 $3 #
plane-surface $-1 150 60.00000000000002842 150.0000000000000284 0 0 -1 -0.999999999999999889 0 0 forward_v I I I I #
face $-1 $12 $13 $2 $-1 $14 forward single #
loop $-1 $15 $16 $4 #
cone-surface $-1 150 60.00000000000002842 167.5000000000000284 0 0 -1 -9.999999999999998224 0 0 1 I I 0 1 9.999999999999998224 forward I I I I #
loop $-1 $-1 $17 $3 #
coedge $-1 $11 $11 $18 $19 forward $5 $-1 #
face $-1 $20 $21 $2 $-1 $22 reversed single #
loop $-1 $-1 $23 $7 #
plane-surface $-1 150 60.00000000000002842 185.0000000000000284 0 0 1 0.999999999999999889 0 0 forward_v I I I I #
loop $-1 $-1 $18 $4 #
coedge $-1 $16 $16 $23 $24 reversed $8 $-1 #
coedge $-1 $17 $17 $25 $26 reversed $10 $-1 #
coedge $-1 $18 $18 $11 $19 reversed $15 $-1 #
edge $-1 $27 0 $27 6.283185307179586232 $11 $28 forward 7 unknown #
face $-1 $29 $30 $2 $-1 $31 reversed single #
loop $-1 $-1 $32 $12 #
plane-surface $-1 142.5 67 130 0 0 1 0.999999999999999889 0 0 forward_v I I I I #
coedge $-1 $23 $23 $16 $24 forward $13 $-1 #
edge $-1 $33 0 $33 6.283185307179586232 $23 $34 forward 7 unknown #
coedge $-1 $25 $25 $17 $26 forward $35 $-1 #
edge $-1 $36 -6.283185307179586232 $36 -0 $25 $37 reversed 7 unknown #
vertex $-1 $19 $38 #
ellipse-curve $-1 150 60.00000000000002842 150.0000000000000284 0 0 -1 -9.999999999999998224 0 0 1 I I #
face $-1 $39 $35 $2 $-1 $40 forward single #
loop $-1 $-1 $41 $20 #
plane-surface $-1 147.5 67 113 1 0 0 0 0 -0.999999999999999889 forward_v I I I I #
coedge $-1 $42 $42 $43 $44 reversed $21 $-1 #
vertex $-1 $24 $45 #
ellipse-curve $-1 150 60.00000000000002842 185.0000000000000284 0 0 1 -9.999999999999998224 0 0 1 I I #
loop $-1 $46 $25 $29 #
vertex $-1 $26 $47 #
ellipse-curve $-1 150 60.00000000000004263 150.0000000000000568 0 0 1 -4.999999999999999112 0 0 1 I I #
point $-1 140.0000000000000284 60.00000000000002842 150.0000000000000284 #
face $-1 $48 $49 $2 $-1 $50 reversed single #
cone-surface $-1 150 60.00000000000004263 132.5000000000000568 0 0 -1 -4.999999999999999112 0 0 1 I I 0 1 4.999999999999999112 forward I I I I #
coedge $-1 $51 $52 $53 $54 reversed $30 $-1 #
coedge $-1 $32 $32 $52 $55 forward $21 $-1 #
coedge $-1 $56 $53 $32 $44 forward $46 $-1 #
edge $-1 $57 -1.047197551196598297 $58 1.047197551196598297 $43 $59 forward 7 unknown #
point $-1 140.0000000000000284 60.00000000000002842 185.0000000000000284 #
loop $-1 $-1 $53 $29 #
point $-1 145 60.00000000000004263 150.0000000000000568 #
face $-1 $60 $61 $2 $-1 $62 reversed single #
loop $-1 $-1 $63 $39 #
plane-surface $-1 152.5 52.00000000000000711 113.0000000000000142 -1 0 0 0 0 0.999999999999999889 forward_v I I I I #
coedge $-1 $64 $41 $65 $66 reversed $30 $-1 #
coedge $-1 $41 $64 $42 $55 reversed $30 $-1 #
coedge $-1 $43 $67 $41 $54 forward $46 $-1 #
edge $-1 $68 -17.50000000000000355 $57 -2.500000000000057288 $53 $69 forward 7 unknown #
edge $-1 $57 2.669872981077759722 $58 11.33012701892215723 $52 $70 forward 7 unknown #
coedge $-1 $71 $43 $64 $72 forward $46 $-1 #
vertex $-1 $54 $73 #
vertex $-1 $72 $74 #
ellipse-curve $-1 150 60.00000000000004263 130 0 0 1 -4.999999999999999112 0 0 1 I I #
face $-1 $-1 $75 $2 $-1 $76 forward single #
loop $-1 $-1 $77 $48 #
plane-surface $-1 152.5 67 130.0000000000000284 0 0 1 0.999999999999999889 0 0 forward_v I I I I #
coedge $-1 $78 $79 $80 $81 reversed $49 $-1 #
coedge $-1 $52 $51 $56 $72 reversed $30 $-1 #
coedge $-1 $82 $83 $51 $66 forward $75 $-1 #
edge $-1 $84 -7.830127018922177662 $68 0.8301270189222195173 $65 $85 forward 7 unknown #
coedge $-1 $53 $80 $82 $86 reversed $46 $-1 #
vertex $-1 $86 $87 #
straight-curve $-1 147.5 64.33012701892224072 132.5000000000000568 0 0 0.999999999999999889 I I #
straight-curve $-1 147.5 67 130 0 -0.999999999999999889 0 I I #
coedge $-1 $88 $56 $83 $89 reversed $46 $-1 #
edge $-1 $58 2.500000000000057288 $84 17.50000000000000355 $56 $90 forward 7 unknown #
point $-1 147.5 64.33012701892224072 130 #
point $-1 147.5 55.66987298107784454 130 #
loop $-1 $-1 $65 $60 #
plane-surface $-1 150 60.00000000000004263 115.0000000000000568 0 0 -1 -0.999999999999999889 0 0 forward_v I I I I #
coedge $-1 $91 $91 $92 $93 reversed $61 $-1 #
coedge $-1 $94 $63 $91 $95 reversed $49 $-1 #
coedge $-1 $63 $94 $96 $97 reversed $49 $-1 #
coedge $-1 $67 $92 $63 $81 forward $46 $-1 #
edge $-1 $98 2.500000000000028866 $99 17.50000000000000355 $80 $100 forward 7 unknown #
coedge $-1 $96 $65 $67 $86 forward $75 $-1 #
coedge $-1 $65 $96 $71 $89 forward $75 $-1 #
vertex $-1 $66 $101 #
straight-curve $-1 147.5 63.50000000000002132 115.0000000000000568 0 0.999999999999999889 0 I I #
edge $-1 $68 1.047197551196598297 $99 2.094395102393196595 $82 $102 forward 7 unknown #
point $-1 147.5 64.33012701892224072 115.0000000000000568 #
coedge $-1 $92 $71 $94 $103 forward $46 $-1 #
edge $-1 $104 -2.094395102393195707 $84 -1.047197551196598297 $83 $102 forward 7 unknown #
straight-curve $-1 147.5 55.66987298107784454 132.5000000000000568 0 0 -0.999999999999999889 I I #
coedge $-1 $77 $77 $78 $95 forward $61 $-1 #
coedge $-1 $80 $88 $77 $93 forward $46 $-1 #
edge $-1 $105 2.094395102393195707 $98 4.188790204786389637 $92 $106 forward 7 unknown #
coedge $-1 $79 $78 $88 $103 reversed $49 $-1 #
edge $-1 $105 3.669872981077844987 $98 12.33012701892222118 $78 $107 forward 7 unknown #
coedge $-1 $83 $82 $79 $97 forward $75 $-1 #
edge $-1 $99 -8.330127018922199866 $104 0.3301270189221768292 $96 $108 forward 7 unknown #
vertex $-1 $81 $109 #
vertex $-1 $97 $110 #
straight-curve $-1 152.5 64.33012701892222651 132.5000000000000568 0 0 -0.999999999999999889 I I #
point $-1 147.5 55.66987298107784454 115.0000000000000568 #
ellipse-curve $-1 150 60.00000000000004263 115.0000000000000568 0 0 -1 -4.999999999999999112 0 0 1 I I #
edge $-1 $104 -17.50000000000000355 $105 -2.500000000000028866 $88 $111 forward 7 unknown #
vertex $-1 $89 $112 #
vertex $-1 $103 $113 #
ellipse-curve $-1 150 60.00000000000004263 130.0000000000000284 0 0 1 -4.999999999999999112 0 0 1 I I #
straight-curve $-1 152.5 52.00000000000000711 130.0000000000000284 0 0.999999999999999889 0 I I #
straight-curve $-1 152.5 56.00000000000002842 115.0000000000000568 0 -0.999999999999999889 0 I I #
point $-1 152.5 64.33012701892222651 130.0000000000000284 #
point $-1 152.5 64.33012701892222651 115.0000000000000568 #
straight-curve $-1 152.5 55.66987298107785165 132.5000000000000568 0 0 0.999999999999999889 I I #
point $-1 152.5 55.66987298107785165 115.0000000000000568 #
point $-1 152.5 55.66987298107785165 130.0000000000000284 #
End-of-ACIS-data 