106 0 1 0           
body $-1 $1 $-1 $2 #
lump $-1 $-1 $3 $0 #
transform $-1 0 0 1 1 0 0 0 1 0 150 75.000000000000043 100.00000000000003 0.99999999999999989 1 0 0 #
shell $-1 $-1 $-1 $4 $1 #
face $-1 $5 $6 $3 $-1 $7 reversed single #
face $-1 $8 $9 $3 $-1 $10 forward single #
loop $-1 $11 $12 $4 #
cone-surface $-1 -3.8333354268615949e-009 3.8333496377163101e-009 -15.000000000000028 0 0 1 0 -7.5000000000000027 0 1 I I 0 1 0 I I I I #
face $-1 $13 $14 $3 $-1 $15 forward single #
loop $-1 $16 $17 $5 #
cone-surface $-1 0 0 -40.000000000000043 0 0 1 16.250000000000004 0 0 1 I I 0.50387102552408614 0.86377890089843334 0 I I I I #
loop $-1 $-1 $18 $4 #
coedge $-1 $12 $12 $17 $19 1 $6 $-1 #
face $-1 $20 $21 $3 $-1 $22 reversed single #
loop $-1 $-1 $23 $8 #
plane-surface $-1 -27.000000000000021 2.5000000000000018 -23.000000000000036 0 -1 0 1 0 0 0 I I I I #
loop $-1 $-1 $24 $5 #
coedge $-1 $17 $17 $12 $19 0 $9 $-1 #
coedge $-1 $18 $18 $25 $26 1 $11 $-1 #
edge $-1 $27 $27 $17 $28 1 #
face $-1 $29 $30 $3 $-1 $31 forward single #
loop $-1 $-1 $32 $13 #
cone-surface $-1 -27.000000000000025 0 -15.000000000000043 1 0 0 0 -5 0 1 I I 0 1 0 I I I I #
coedge $-1 $33 $34 $35 $36 1 $14 $-1 #
coedge $-1 $24 $24 $37 $38 0 $16 $-1 #
coedge $-1 $25 $25 $18 $26 0 $39 $-1 #
edge $-1 $40 $40 $25 $41 0 #
vertex $-1 $19 $42 #
ellipse-curve $-1 0 0 -55.000000000000043 0 0 -1 7.5000000000000009 0 0 1 I I #
face $-1 $43 $44 $3 $-1 $22 reversed single #
loop $-1 $-1 $45 $20 #
plane-surface $-1 -27.000000000000014 -2.5 -8.0000000000000355 0 1 0 -1 0 0 0 I I I I #
coedge $-1 $46 $47 $48 $49 1 $21 $-1 #
coedge $-1 $50 $23 $51 $52 0 $14 $-1 #
coedge $-1 $23 $50 $46 $53 0 $14 $-1 #
coedge $-1 $48 $54 $23 $36 0 $55 $-1 #
edge $-1 $56 $57 $35 $58 0 #
coedge $-1 $37 $37 $24 $38 1 $59 $-1 #
edge $-1 $60 $60 $37 $61 0 #
loop $-1 $62 $25 $63 #
vertex $-1 $26 $64 #
ellipse-curve $-1 -3.8333354268615949e-009 3.8333496377163101e-009 25 0 0 -1 0 -7.5000000000000027 0 1 I I #
point $-1 7.5000000000000009 0 -55.000000000000043 #
face $-1 $65 $66 $3 $-1 $67 forward single #
loop $-1 $-1 $68 $29 #
coedge $-1 $69 $70 $71 $72 1 $30 $-1 #
coedge $-1 $73 $32 $34 $53 1 $21 $-1 #
coedge $-1 $32 $73 $69 $74 1 $21 $-1 #
coedge $-1 $71 $35 $32 $49 0 $55 $-1 #
edge $-1 $57 $75 $48 $76 0 #
coedge $-1 $34 $33 $77 $78 0 $14 $-1 #
coedge $-1 $68 $79 $33 $52 1 $44 $-1 #
edge $-1 $56 $80 $51 $81 0 #
edge $-1 $82 $57 $46 $83 0 #
coedge $-1 $35 $71 $68 $84 0 $55 $-1 #
loop $-1 $85 $71 $86 #
vertex $-1 $84 $87 #
vertex $-1 $49 $88 #
straight-curve $-1 -24.874685927665503 2.5000000000000018 0 0 0 1 I I #
loop $-1 $89 $37 $86 #
vertex $-1 $38 $90 #
ellipse-curve $-1 0 0 -25.000000000000004 0 0 -1 25.000000000000004 0 0 1 I I #
loop $-1 $-1 $91 $63 #
face $-1 $-1 $39 $3 $-1 $92 forward single #
point $-1 -3.8333877991120115e-009 7.5000000038333523 25 #
face $-1 $93 $94 $3 $-1 $95 forward single #
loop $-1 $-1 $96 $43 #
plane-surface $-1 -15.00000000000002 -5 -15.000000000000043 -1 0 0 0 -1 0 0 I I I I #
coedge $-1 $97 $51 $54 $84 1 $44 $-1 #
coedge $-1 $98 $45 $47 $74 0 $30 $-1 #
coedge $-1 $45 $98 $97 $99 0 $30 $-1 #
coedge $-1 $54 $48 $45 $72 0 $55 $-1 #
edge $-1 $75 $100 $71 $101 0 #
coedge $-1 $47 $46 $102 $103 1 $21 $-1 #
edge $-1 $75 $104 $47 $105 0 #
vertex $-1 $72 $106 #
intcurve-curve $-1 0 { surfintcur nubs 3 open 7 
	5.0498365572064294 3 5.6668229902229612 2 6.6112582058834626 2 7.555693421543964 2 8.5001286372044653 2 
	9.4445638528649667 2 10.061550285881431 3 
	-24.874685927665503 2.5000000000000018 -10.66987298107785 
	-24.893525471210488 2.3125489085191799 -10.561648042951509 
	-24.911031306135836 2.1168858251755189 -10.465002594038856 
	-24.950148913663853 1.6079184743040003 -10.253877539684709 
	-24.968964235287046 1.2866573738276978 -10.157165202059394 
	-24.993897752634481 0.64010726564080844 -10.030211396215043 
	-25.000000000000004 0.31481173855346578 -10.000000000000041 
	-25.000000000000004 -0.314811738553535 -10.000000000000044 
	-24.993897752634489 -0.64010726564087628 -10.030211396215053 
	-24.968964235287046 -1.286657373827764 -10.157165202059415 
	-24.950148913663845 -1.6079184743040651 -10.253877539684728 
	-24.91103130613584 -2.1168858251755593 -10.465002594038875 
	-24.893525471210484 -2.3125489085191986 -10.561648042951518 
	-24.874685927665503 -2.5 -10.669872981077848 
	0.001 
	cone -27.000000000000025 0 -15.000000000000043 1 0 0 0 -5 0 1 I I 0 1 0 I I I I 
	cone 0 0 0 0 0 1 25.000000000000004 0 0 1 I I 0 1 0 I I I I 
	nullbs 
	nullbs 
	} I I #
coedge $-1 $107 $102 $50 $78 1 $66 $-1 #
edge $-1 $80 $82 $77 $108 0 #
coedge $-1 $51 $97 $107 $109 1 $44 $-1 #
vertex $-1 $109 $110 #
straight-curve $-1 -27.000000000000025 2.5000000000000018 -19.330127018922234 1 0 0 I I #
vertex $-1 $53 $111 #
straight-curve $-1 -27.000000000000025 2.5000000000000018 -10.66987298107785 -1 0 0 I I #
edge $-1 $100 $56 $54 $112 0 #
loop $-1 $59 $113 $86 #
face $-1 $63 $55 $3 $-1 $114 forward single #
point $-1 -24.874685927665503 2.5000000000000018 -19.330127018922234 #
point $-1 -24.874685927665503 2.5000000000000018 -10.66987298107785 #
loop $-1 $-1 $115 $86 #
point $-1 25.000000000000004 0 -25.000000000000004 #
coedge $-1 $91 $91 $115 $116 0 $62 $-1 #
plane-surface $-1 0 0 25.000000000000004 0 0 1 1 0 0 0 I I I I #
face $-1 $117 $118 $3 $-1 $119 reversed single #
loop $-1 $-1 $120 $65 #
plane-surface $-1 27.000000000000021 -2.5000000000000018 -23.000000000000021 0 1 0 -1 0 0 0 I I I I #
coedge $-1 $102 $107 $98 $121 1 $66 $-1 #
coedge $-1 $79 $68 $70 $99 1 $44 $-1 #
coedge $-1 $70 $69 $96 $121 0 $30 $-1 #
edge $-1 $122 $100 $97 $123 0 #
vertex $-1 $72 $124 #
straight-curve $-1 -24.874685927665503 -2.5 0 0 0 -1 I I #
coedge $-1 $77 $96 $73 $103 0 $66 $-1 #
edge $-1 $104 $82 $73 $125 0 #
vertex $-1 $103 $126 #
straight-curve $-1 -27.000000000000025 -2.5 -10.669872981077848 1 0 0 I I #
point $-1 -24.874685927665503 -2.5 -10.669872981077848 #
coedge $-1 $96 $77 $79 $109 0 $66 $-1 #
straight-curve $-1 -15.00000000000002 2.5000000000000018 -19.000000000000039 0 0 1 I I #
edge $-1 $80 $122 $79 $125 0 #
point $-1 -15.000000000000016 2.5000000000000018 -19.330127018922234 #
point $-1 -15.000000000000016 2.5000000000000018 -10.66987298107785 #
intcurve-curve $-1 0 { surfintcur nubs 3 open 7 
	20.161223400294297 3 20.778209833310864 2 21.722645048971359 2 22.667080264631856 2 23.611515480292354 2 
	24.555950695952848 2 25.172937128969291 3 
	-24.874685927665503 -2.5 -19.330127018922237 
	-24.893525471210488 -2.3125489085191679 -19.438351957048585 
	-24.911031306135843 -2.116885825175491 -19.534997405961242 
	-24.950148913663853 -1.6079184743039612 -19.746122460315391 
	-24.96896423528705 -1.2866573738276599 -19.842834797940696 
	-24.993897752634485 -0.64010726564077214 -19.969788603785041 
	-25.000000000000007 -0.31481173855342987 -20.000000000000043 
	-25 0.31481173855356859 -20.000000000000039 
	-24.993897752634485 0.64010726564091014 -19.969788603785027 
	-24.968964235287043 1.2866573738277933 -19.842834797940661 
	-24.950148913663845 1.6079184743040897 -19.746122460315345 
	-24.911031306135836 2.1168858251755731 -19.534997405961199 
	-24.893525471210484 2.3125489085192066 -19.43835195704856 
	-24.874685927665503 2.5000000000000018 -19.330127018922234 
	0.001 
	cone -27.000000000000025 0 -15.000000000000043 1 0 0 0 -5 0 1 I I 0 1 0 I I I I 
	cone 0 0 0 0 0 1 25.000000000000004 0 0 1 I I 0 1 0 I I I I 
	nullbs 
	nullbs 
	} I I #
coedge $-1 $127 $128 $129 $130 0 $85 $-1 #
cone-surface $-1 0 0 0 0 0 1 25.000000000000004 0 0 1 I I 0 1 0 I I I I #
coedge $-1 $115 $115 $91 $116 1 $89 $-1 #
edge $-1 $131 $131 $91 $132 0 #
face $-1 $133 $134 $3 $-1 $135 forward single #
loop $-1 $-1 $136 $93 #
cone-surface $-1 27.000000000000025 0 -15.000000000000028 -1 0 0 0 5 0 1 I I 0 1 0 I I I I #
coedge $-1 $137 $138 $139 $140 1 $94 $-1 #
edge $-1 $104 $122 $96 $141 0 #
vertex $-1 $121 $142 #
straight-curve $-1 -27.000000000000025 -2.5 -19.330127018922237 -1 0 0 I I #
point $-1 -24.874685927665503 -2.5 -19.330127018922237 #
ellipse-curve $-1 -15.00000000000002 0 -15.000000000000043 -1 0 0 0 -5 0 1 I I #
point $-1 -15.00000000000002 -2.5 -10.669872981077848 #
coedge $-1 $139 $113 $143 $144 0 $85 $-1 #
coedge $-1 $113 $139 $136 $145 0 $85 $-1 #
coedge $-1 $146 $147 $113 $130 1 $134 $-1 #
edge $-1 $148 $149 $113 $150 0 #
vertex $-1 $116 $151 #
ellipse-curve $-1 0 0 25.000000000000004 0 0 1 25.000000000000004 0 0 1 I I #
face $-1 $152 $153 $3 $-1 $119 reversed single #
loop $-1 $-1 $129 $117 #
plane-surface $-1 27.000000000000014 2.5 -8.0000000000000213 0 -1 0 1 0 0 0 I I I I #
coedge $-1 $154 $155 $128 $145 1 $118 $-1 #
coedge $-1 $156 $120 $157 $158 0 $94 $-1 #
coedge $-1 $120 $156 $154 $159 0 $94 $-1 #
coedge $-1 $128 $127 $120 $140 0 $85 $-1 #
edge $-1 $160 $161 $139 $162 0 #
straight-curve $-1 -15.00000000000002 -2.5 -11.500000000000039 0 0 -1 I I #
point $-1 -15.00000000000002 -2.5 -19.330127018922237 #
coedge $-1 $163 $157 $127 $144 1 $153 $-1 #
edge $-1 $149 $160 $127 $164 0 #
edge $-1 $161 $148 $128 $165 0 #
coedge $-1 $166 $129 $155 $167 0 $134 $-1 #
coedge $-1 $129 $166 $163 $168 0 $134 $-1 #
vertex $-1 $130 $169 #
vertex $-1 $130 $170 #
straight-curve $-1 24.874685927665503 2.5 0 0 0 -1 I I #
point $-1 25.000000000000004 0 25.000000000000004 #
face $-1 $86 $171 $3 $-1 $172 forward single #
loop $-1 $-1 $143 $133 #
coedge $-1 $173 $136 $138 $159 1 $118 $-1 #
coedge $-1 $136 $173 $146 $167 1 $118 $-1 #
coedge $-1 $138 $137 $174 $175 0 $94 $-1 #
coedge $-1 $143 $176 $137 $158 1 $153 $-1 #
edge $-1 $160 $177 $157 $178 0 #
edge $-1 $179 $161 $154 $180 0 #
vertex $-1 $144 $181 #
vertex $-1 $145 $182 #
straight-curve $-1 24.874685927665503 -2.5000000000000018 0 0 0 1 I I #
coedge $-1 $176 $143 $147 $168 1 $153 $-1 #
intcurve-curve $-1 0 { surfintcur nubs 3 open 7 
	20.161223400294297 3 20.778209833310868 2 21.722645048971366 2 22.667080264631863 2 23.611515480292361 2 
	24.555950695952856 2 25.172937128969298 3 
	24.874685927665503 2.5 -19.330127018922223 
	24.893525471210488 2.3125489085191671 -19.438351957048571 
	24.91103130613584 2.1168858251754941 -19.534997405961231 
	24.950148913663853 1.6079184743039625 -19.74612246031538 
	24.968964235287054 1.2866573738276603 -19.842834797940689 
	24.993897752634489 0.64010726564077192 -19.969788603785034 
	25.000000000000007 0.31481173855342959 -20.000000000000032 
	25 -0.31481173855356859 -20.000000000000025 
	24.993897752634485 -0.64010726564091014 -19.969788603785013 
	24.968964235287043 -1.2866573738277933 -19.842834797940647 
	24.950148913663845 -1.6079184743040897 -19.74612246031533 
	24.911031306135836 -2.1168858251755731 -19.534997405961185 
	24.893525471210484 -2.3125489085192066 -19.438351957048546 
	24.874685927665503 -2.5000000000000018 -19.330127018922219 
	0.001 
	cone 27.000000000000025 0 -15.000000000000028 -1 0 0 0 5 0 1 I I 0 1 0 I I I I 
	cone 0 0 0 0 0 1 25.000000000000004 0 0 1 I I 0 1 0 I I I I 
	nullbs 
	nullbs 
	} I I #
intcurve-curve $-1 0 { surfintcur nubs 3 open 7 
	5.0498365572064312 3 5.666822990222963 2 6.6112582058834644 2 7.5556934215439657 2 8.5001286372044653 2 
	9.4445638528649667 2 10.061550285881431 3 
	24.874685927665503 -2.5000000000000018 -10.669872981077836 
	24.893525471210488 -2.3125489085191795 -10.561648042951493 
	24.911031306135836 -2.1168858251755189 -10.465002594038841 
	24.950148913663853 -1.6079184743040003 -10.253877539684694 
	24.968964235287046 -1.2866573738276978 -10.15716520205938 
	24.993897752634481 -0.64010726564080844 -10.030211396215028 
	25.000000000000004 -0.31481173855346578 -10.000000000000027 
	25.000000000000004 0.31481173855353456 -10.00000000000003 
	24.993897752634489 0.64010726564087539 -10.030211396215039 
	24.968964235287046 1.2866573738277629 -10.157165202059401 
	24.950148913663845 1.6079184743040642 -10.253877539684714 
	24.91103130613584 2.1168858251755589 -10.465002594038861 
	24.893525471210484 2.3125489085191981 -10.561648042951504 
	24.874685927665503 2.5 -10.669872981077834 
	0.001 
	cone 27.000000000000025 0 -15.000000000000028 -1 0 0 0 5 0 1 I I 0 1 0 I I I I 
	cone 0 0 0 0 0 1 25.000000000000004 0 0 1 I I 0 1 0 I I I I 
	nullbs 
	nullbs 
	} I I #
coedge $-1 $147 $146 $183 $184 0 $134 $-1 #
edge $-1 $148 $185 $155 $186 0 #
edge $-1 $187 $149 $163 $188 0 #
point $-1 24.874685927665503 2.5 -10.669872981077834 #
point $-1 24.874685927665503 2.5 -19.330127018922223 #
loop $-1 $-1 $183 $152 #
plane-surface $-1 15.00000000000002 5 -15.000000000000028 1 0 0 0 1 0 0 I I I I #
coedge $-1 $155 $154 $189 $190 1 $118 $-1 #
coedge $-1 $191 $189 $156 $175 1 $171 $-1 #
edge $-1 $177 $179 $174 $192 0 #
coedge $-1 $157 $163 $191 $193 1 $153 $-1 #
vertex $-1 $193 $194 #
straight-curve $-1 27.000000000000025 -2.5000000000000018 -19.330127018922219 -1 0 0 I I #
vertex $-1 $159 $195 #
straight-curve $-1 27.000000000000025 -2.5000000000000018 -10.669872981077836 1 0 0 I I #
point $-1 24.874685927665503 -2.5000000000000018 -19.330127018922219 #
point $-1 24.874685927665503 -2.5000000000000018 -10.669872981077836 #
coedge $-1 $189 $191 $166 $184 1 $171 $-1 #
edge $-1 $185 $187 $183 $196 0 #
vertex $-1 $190 $197 #
straight-curve $-1 27.000000000000025 2.5 -10.669872981077834 -1 0 0 I I #
vertex $-1 $184 $198 #
straight-curve $-1 27.000000000000025 2.5 -19.330127018922223 1 0 0 I I #
coedge $-1 $174 $183 $173 $190 0 $171 $-1 #
edge $-1 $185 $179 $173 $199 0 #
coedge $-1 $183 $174 $176 $193 0 $171 $-1 #
straight-curve $-1 15.00000000000002 -2.5000000000000018 -19.000000000000025 0 0 1 I I #
edge $-1 $177 $187 $176 $199 0 #
point $-1 15.000000000000016 -2.5000000000000018 -19.330127018922219 #
point $-1 15.000000000000016 -2.5000000000000018 -10.669872981077836 #
straight-curve $-1 15.00000000000002 2.5 -11.500000000000025 0 0 -1 I I #
point $-1 15.00000000000002 2.5 -10.669872981077834 #
point $-1 15.00000000000002 2.5 -19.330127018922223 #
ellipse-curve $-1 15.00000000000002 0 -15.000000000000028 1 0 0 0 5 0 1 I I #
End-of-ACIS-data 