700 0 2 0           
24 FBMach with ACIS - 7.0.3 13 ACIS 7.0.3 NT 24 Mon May 13 17:06:27 2002 
1 9.9999999999999995e-007 1e-010 
body $2 -1 $-1 $3 $-1 $4 #
bdycol-kcp $-1 -1 1 4 $5 $6 $7 $8 #
model_id-kcp-attrib $-1 -1 $-1 $-1 $0 1 1021323987 1021323987 1941504001 1 #
lump $-1 -1 $-1 $-1 $9 $0 #
transform $-1 -1 1 0 0 0 1 0 0 0 1 0 0 0 1 rotate no_reflect no_shear #
body $10 -1 $-1 $11 $-1 $12 #
body $13 -1 $-1 $14 $-1 $15 #
body $16 -1 $-1 $17 $-1 $18 #
body $19 -1 $-1 $20 $-1 $21 #
shell $-1 -1 $-1 $-1 $-1 $22 $-1 $3 #
rgb_color-st-attrib $-1 -1 $23 $-1 $5 0.5 1 1 #
lump $-1 -1 $-1 $-1 $24 $5 #
transform $-1 -1 1 0 0 0 1 0 0 0 1 150.00000000000006 19.999999999999996 13.925000000000006 1 no_rotate no_reflect no_shear #
rgb_color-st-attrib $-1 -1 $25 $-1 $6 1 0.5 1 #
lump $-1 -1 $-1 $-1 $26 $6 #
transform $-1 -1 1 0 0 0 1 0 0 0 1 150.00000000000006 19.999999999999996 13.925000000000006 1 no_rotate no_reflect no_shear #
model_id-kcp-attrib $-1 -1 $-1 $-1 $7 1 1021323987 1021323987 1942159362 1 #
lump $-1 -1 $-1 $-1 $27 $7 #
transform $-1 -1 1 0 0 0 1 0 0 0 1 150.00000000000006 19.999999999999996 13.925000000000006 1 no_rotate no_reflect no_shear #
rgb_color-st-attrib $-1 -1 $28 $-1 $8 0 0 1 #
lump $-1 -1 $-1 $-1 $29 $8 #
transform $-1 -1 1 0 0 0 1 0 0 0 1 150.00000000000006 19.999999999999996 13.925000000000006 1 no_rotate no_reflect no_shear #
face $30 -1 $-1 $31 $32 $9 $-1 $33 reversed single #
model_id-kcp-attrib $-1 -1 $-1 $10 $5 1 1021323987 1021323987 1929969667 1 #
shell $-1 -1 $-1 $-1 $-1 $34 $-1 $11 #
model_id-kcp-attrib $-1 -1 $-1 $13 $6 1 1021323987 1021323987 1933508613 1 #
shell $-1 -1 $-1 $-1 $-1 $35 $-1 $14 #
shell $-1 -1 $-1 $-1 $-1 $36 $-1 $17 #
model_id-kcp-attrib $-1 -1 $-1 $19 $8 1 1021323987 1021323987 1943732228 1 #
shell $-1 -1 $-1 $-1 $-1 $37 $-1 $20 #
model_id-kcp-attrib $-1 -1 $-1 $-1 $22 1 1021323987 1021323987 1941504001 2 #
face $38 -1 $-1 $39 $40 $9 $-1 $41 reversed single #
loop $-1 -1 $-1 $-1 $42 $22 #
plane-surface $-1 -1 $-1 151.44337999999999 17.499999999999996 31.850010000000001 0.86602625473013017 -0.49999852611593132 0 0 0 -0.99999999999999989 forward_v I I I I #
face $-1 -1 $-1 $43 $44 $24 $-1 $45 reversed single #
face $-1 -1 $-1 $46 $47 $26 $-1 $48 forward single #
face $49 -1 $-1 $50 $51 $27 $-1 $52 forward single #
face $-1 -1 $-1 $53 $54 $29 $-1 $55 forward single #
model_id-kcp-attrib $-1 -1 $-1 $-1 $31 1 1021323987 1021323987 1941504001 3 #
face $56 -1 $-1 $57 $58 $9 $-1 $59 reversed single #
loop $-1 -1 $-1 $-1 $60 $31 #
plane-surface $-1 -1 $-1 148.55661999999998 17.499999999999996 31.850010000000001 0 -1 0 0 0 -0.99999999999999989 forward_v I I I I #
coedge $-1 -1 $-1 $61 $62 $63 $64 reversed $32 $-1 #
face $-1 -1 $-1 $65 $66 $24 $-1 $45 reversed single #
loop $-1 -1 $-1 $-1 $67 $34 #
cone-surface $-1 -1 $-1 0 0 15.925000000000002 0 0 1 4.9999999999999991 0 0 1 I I 0 1 4.9999999999999991 forward I I I I #
face $-1 -1 $-1 $68 $69 $26 $-1 $70 forward single #
loop $-1 -1 $-1 $71 $72 $35 #
cone-surface $-1 -1 $-1 0 0 10.075000000000003 0 0 -1 2.9099999999999997 0 0 1 I I 0 -1 2.9099999999999997 forward I I I I #
model_id-kcp-attrib $-1 -1 $-1 $-1 $36 1 1021323987 1021323987 1942159362 2 #
face $73 -1 $-1 $74 $75 $27 $-1 $76 reversed single #
loop $-1 -1 $-1 $-1 $77 $36 #
plane-surface $-1 -1 $-1 0 0 15.925000000000002 0 0 1 1 0 0 forward_v I I I I #
face $-1 -1 $-1 $78 $79 $29 $-1 $80 forward single #
loop $-1 -1 $-1 $-1 $81 $37 #
plane-surface $-1 -1 $-1 1.4433799999999337 -2.5 12.924999999999995 0 -1 0 0 0 -1 forward_v I I I I #
model_id-kcp-attrib $-1 -1 $-1 $-1 $39 1 1021323987 1021323987 1941504001 4 #
face $82 -1 $-1 $83 $84 $9 $-1 $85 reversed single #
loop $-1 -1 $-1 $-1 $86 $39 #
plane-surface $-1 -1 $-1 147.11324999999997 19.999999999999996 31.850010000000001 -0.86602625473013017 -0.49999852611593132 0 0 0 0.99999999999999989 forward_v I I I I #
coedge $-1 -1 $-1 $87 $88 $89 $90 reversed $40 $-1 #
coedge $-1 -1 $-1 $91 $42 $92 $93 forward $32 $-1 #
coedge $-1 -1 $-1 $42 $91 $87 $94 reversed $32 $-1 #
coedge $-1 -1 $-1 $89 $95 $42 $64 forward $96 $-1 #
edge $97 -1 $-1 $98 -2.1650596273651987 $99 0.7216888821000732 $63 $100 forward @7 unknown #
face $-1 -1 $-1 $101 $102 $24 $-1 $45 reversed single #
loop $-1 -1 $-1 $-1 $103 $43 #
coedge $-1 -1 $-1 $104 $105 $106 $107 reversed $44 $-1 #
face $-1 -1 $-1 $108 $109 $26 $-1 $110 reversed single #
loop $-1 -1 $-1 $111 $112 $46 #
cone-surface $-1 -1 $-1 0 0 10.075000000000003 0 0 -1 4.9999999999999991 0 0 1 I I 0 1 4.9999999999999991 forward I I I I #
loop $-1 -1 $-1 $-1 $113 $35 #
coedge $-1 -1 $-1 $72 $72 $114 $115 forward $47 $-1 #
model_id-kcp-attrib $-1 -1 $-1 $-1 $50 1 1021323987 1021323987 1942159362 3 #
face $-1 -1 $-1 $116 $117 $27 $-1 $118 reversed single #
loop $-1 -1 $-1 $-1 $119 $50 #
plane-surface $-1 -1 $-1 0 0 -15.925000000000002 0 0 1 1 0 0 forward_v I I I I #
coedge $-1 -1 $-1 $120 $121 $122 $123 forward $51 $-1 #
face $-1 -1 $-1 $124 $125 $29 $-1 $126 forward single #
loop $-1 -1 $-1 $-1 $127 $53 #
plane-surface $-1 -1 $-1 -1.4433800000000758 -2.5 12.924999999999995 -0.86602625473013017 -0.49999852611593132 0 0 0 1 forward_v I I I I #
coedge $-1 -1 $-1 $128 $129 $130 $131 forward $54 $-1 #
model_id-kcp-attrib $-1 -1 $-1 $-1 $57 1 1021323987 1021323987 1941504001 5 #
face $132 -1 $-1 $133 $134 $9 $-1 $135 reversed single #
loop $-1 -1 $-1 $-1 $136 $57 #
plane-surface $-1 -1 $-1 148.55661999999998 22.499999999999996 31.850010000000001 -0.86602625473013017 0.49999852611593132 0 0 0 0.99999999999999989 forward_v I I I I #
coedge $-1 -1 $-1 $137 $138 $139 $140 reversed $58 $-1 #
coedge $-1 -1 $-1 $141 $60 $62 $94 forward $40 $-1 #
coedge $-1 -1 $-1 $60 $141 $137 $142 reversed $40 $-1 #
coedge $-1 -1 $-1 $139 $63 $60 $90 forward $96 $-1 #
edge $143 -1 $-1 $99 -2.1650699999999863 $144 0.72169000000002381 $89 $145 forward @7 unknown #
coedge $-1 -1 $-1 $62 $61 $146 $147 reversed $32 $-1 #
coedge $-1 -1 $-1 $148 $149 $61 $93 reversed $134 $-1 #
edge $-1 -1 $-1 $98 2.000009999999993 $150 5.0000100000000005 $92 $151 forward @7 unknown #
edge $-1 -1 $-1 $99 2.000009999999993 $152 5.0000100000000005 $62 $153 forward @7 unknown #
coedge $-1 -1 $-1 $63 $154 $148 $155 forward $96 $-1 #
loop $-1 -1 $-1 $156 $157 $158 #
attrib_edge_convexity-kcp-attrib $-1 -1 $159 $-1 $64 1 #
vertex $-1 -1 $-1 $64 $160 #
vertex $-1 -1 $-1 $90 $161 #
straight-curve $-1 -1 $-1 151.80422337736428 18.125001519645497 29.850000000000009 -0.49999852611593126 -0.86602625473013006 0 I I #
face $-1 -1 $-1 $162 $163 $24 $-1 $45 reversed single #
loop $-1 -1 $-1 $-1 $164 $65 #
coedge $-1 -1 $-1 $165 $166 $167 $168 reversed $66 $-1 #
coedge $-1 -1 $-1 $169 $67 $170 $171 reversed $44 $-1 #
coedge $-1 -1 $-1 $67 $169 $172 $173 reversed $44 $-1 #
coedge $-1 -1 $-1 $174 $175 $176 $107 forward $177 $-1 #
edge $-1 -1 $-1 $178 -31.850000000000005 $179 0 $106 $180 forward @7 unknown #
face $-1 -1 $-1 $-1 $181 $26 $-1 $182 forward single #
loop $-1 -1 $-1 $183 $184 $68 #
plane-surface $-1 -1 $-1 -0.18999999999999997 8.872696125553341e-017 -15.925000000000001 -1.8856425198227848e-032 6.599748819379748e-032 1 1 0 1.8856425198227848e-032 forward_v I I I I #
loop $-1 -1 $-1 $-1 $185 $46 #
coedge $-1 -1 $-1 $112 $112 $184 $186 forward $69 $-1 #
coedge $-1 -1 $-1 $113 $113 $187 $188 reversed $71 $-1 #
coedge $-1 -1 $-1 $114 $114 $72 $115 reversed $183 $-1 #
edge $-1 -1 $-1 $189 0 $189 6.2831853071795862 $72 $190 forward @7 unknown #
face $-1 -1 $-1 $191 $192 $27 $-1 $193 reversed single #
loop $-1 -1 $-1 $-1 $194 $74 #
plane-surface $-1 -1 $-1 0 -5 0 0 1 0 0 0 1 forward_v I I I I #
coedge $-1 -1 $-1 $195 $196 $197 $198 forward $75 $-1 #
coedge $-1 -1 $-1 $199 $77 $200 $201 forward $51 $-1 #
coedge $-1 -1 $-1 $77 $199 $202 $203 forward $51 $-1 #
coedge $-1 -1 $-1 $204 $205 $77 $123 reversed $206 $-1 #
edge $-1 -1 $-1 $207 -5 $208 5 $122 $209 forward @7 unknown #
face $-1 -1 $-1 $210 $211 $29 $-1 $212 forward single #
loop $-1 -1 $-1 $-1 $213 $78 #
plane-surface $-1 -1 $-1 -2.8867500000000916 0 12.924999999999995 -0.86602625473013017 0.49999852611593132 0 0 0 1 forward_v I I I I #
coedge $-1 -1 $-1 $214 $215 $216 $217 forward $79 $-1 #
coedge $-1 -1 $-1 $218 $81 $215 $219 reversed $54 $-1 #
coedge $-1 -1 $-1 $81 $218 $220 $221 forward $54 $-1 #
coedge $-1 -1 $-1 $222 $216 $81 $131 reversed $223 $-1 #
edge $-1 -1 $-1 $224 -2.1650700000000143 $225 0.72168999999999528 $81 $226 forward @7 unknown #
model_id-kcp-attrib $-1 -1 $-1 $-1 $83 1 1021323987 1021323987 1941504001 6 #
face $227 -1 $-1 $228 $229 $9 $-1 $230 reversed single #
loop $-1 -1 $-1 $-1 $148 $83 #
plane-surface $-1 -1 $-1 152.88674999999998 19.999999999999996 31.850010000000001 0.86602625473013017 0.49999852611593132 0 0 0 -0.99999999999999989 forward_v I I I I #
coedge $-1 -1 $-1 $231 $232 $157 $233 reversed $84 $-1 #
coedge $-1 -1 $-1 $234 $86 $88 $142 forward $58 $-1 #
coedge $-1 -1 $-1 $86 $234 $231 $235 reversed $58 $-1 #
coedge $-1 -1 $-1 $157 $89 $86 $140 forward $96 $-1 #
edge $236 -1 $-1 $144 -2.1650631368326709 $237 0.72168537263261479 $139 $238 forward @7 unknown #
coedge $-1 -1 $-1 $88 $87 $239 $240 reversed $40 $-1 #
edge $-1 -1 $-1 $144 2.000009999999993 $241 5.0000100000000005 $88 $242 forward @7 unknown #
attrib_edge_convexity-kcp-attrib $-1 -1 $243 $-1 $90 1 #
vertex $-1 -1 $-1 $140 $244 #
straight-curve $-1 -1 $-1 149.27831 17.499999999999996 29.850000000000009 -0.99999999999999989 0 0 I I #
coedge $-1 -1 $-1 $245 $239 $91 $147 forward $246 $-1 #
edge $247 -1 $-1 $152 -2.8867485094652716 $150 0 $91 $248 forward @7 unknown #
coedge $-1 -1 $-1 $249 $92 $95 $155 reversed $134 $-1 #
coedge $-1 -1 $-1 $92 $249 $245 $250 reversed $134 $-1 #
vertex $-1 -1 $-1 $93 $251 #
straight-curve $-1 -1 $-1 152.88674999999998 19.999999999999996 31.850010000000001 0 0 -0.99999999999999989 I I #
vertex $-1 -1 $-1 $94 $252 #
straight-curve $-1 -1 $-1 151.44337999999999 17.499999999999996 31.850010000000001 0 0 -0.99999999999999989 I I #
coedge $-1 -1 $-1 $95 $157 $253 $254 forward $96 $-1 #
edge $255 -1 $-1 $256 -2.1650631368327193 $98 0.72168537263255261 $95 $257 forward @7 unknown #
loop $-1 -1 $-1 $-1 $258 $158 #
coedge $-1 -1 $-1 $154 $139 $136 $233 forward $96 $-1 #
face $259 -1 $-1 $260 $96 $9 $-1 $261 forward single #
convexity-sys-attrib $-1 -1 $-1 $97 $64 #
point $-1 -1 $-1 152.88674999999998 19.999999999999996 29.850000000000009 #
point $-1 -1 $-1 151.44337999999999 17.499999999999996 29.850000000000009 #
face $-1 -1 $-1 $262 $263 $24 $-1 $264 reversed single #
loop $-1 -1 $-1 $-1 $265 $101 #
coedge $-1 -1 $-1 $266 $267 $268 $269 reversed $102 $-1 #
coedge $-1 -1 $-1 $270 $103 $271 $272 reversed $66 $-1 #
coedge $-1 -1 $-1 $103 $270 $67 $107 forward $66 $-1 #
coedge $-1 -1 $-1 $273 $274 $103 $168 forward $275 $-1 #
edge $-1 -1 $-1 $276 -3.1415926535897931 $179 -1.5707963267948966 $167 $277 forward @7 unknown #
coedge $-1 -1 $-1 $105 $104 $267 $278 forward $44 $-1 #
coedge $-1 -1 $-1 $279 $280 $104 $171 forward $281 $-1 #
edge $-1 -1 $-1 $282 0 $178 1.5707963267948966 $170 $283 forward @7 unknown #
coedge $-1 -1 $-1 $284 $285 $105 $173 forward $286 $-1 #
edge $-1 -1 $-1 $179 -1.5707963267948966 $287 0 $172 $277 forward @7 unknown #
coedge $-1 -1 $-1 $288 $106 $285 $289 reversed $177 $-1 #
coedge $-1 -1 $-1 $106 $288 $279 $290 reversed $177 $-1 #
coedge $-1 -1 $-1 $291 $292 $166 $107 reversed $293 $-1 #
loop $-1 -1 $-1 $-1 $106 $294 #
vertex $-1 -1 $-1 $290 $295 #
vertex $-1 -1 $-1 $296 $297 #
straight-curve $-1 -1 $-1 0 5 15.925000000000002 0 0 1 I I #
loop $-1 -1 $-1 $298 $299 $108 #
plane-surface $-1 -1 $-1 -0.18999999999999997 8.872696125553341e-017 10.075000000000003 -1.8856425198227848e-032 6.599748819379748e-032 1 1 0 1.8856425198227848e-032 forward_v I I I I #
loop $-1 -1 $-1 $-1 $114 $68 #
coedge $-1 -1 $-1 $184 $184 $112 $186 reversed $109 $-1 #
coedge $-1 -1 $-1 $185 $185 $299 $300 reversed $111 $-1 #
edge $-1 -1 $-1 $301 -3.1415926535897931 $301 3.1415926535897931 $112 $302 forward @7 unknown #
coedge $-1 -1 $-1 $187 $187 $113 $188 forward $298 $-1 #
edge $303 -1 $-1 $304 0 $304 6.2831853071795862 $113 $305 forward @7 unknown #
vertex $-1 -1 $-1 $115 $306 #
ellipse-curve $-1 -1 $-1 0 0 -15.925000000000001 0 0 -1 2.9099999999999997 0 0 1 I I #
face $-1 -1 $-1 $307 $308 $27 $-1 $309 reversed single #
loop $-1 -1 $-1 $-1 $310 $116 #
plane-surface $-1 -1 $-1 -5 0 0 1 0 0 0 0 -1 forward_v I I I I #
coedge $-1 -1 $-1 $311 $202 $312 $313 forward $117 $-1 #
coedge $-1 -1 $-1 $314 $119 $311 $315 forward $75 $-1 #
coedge $-1 -1 $-1 $119 $314 $316 $317 forward $75 $-1 #
coedge $-1 -1 $-1 $205 $204 $119 $198 reversed $206 $-1 #
edge $-1 -1 $-1 $318 -5 $319 5 $197 $320 forward @7 unknown #
coedge $-1 -1 $-1 $121 $120 $321 $322 forward $51 $-1 #
coedge $-1 -1 $-1 $323 $324 $120 $201 reversed $308 $-1 #
edge $-1 -1 $-1 $208 -5 $325 5 $200 $326 forward @7 unknown #
coedge $-1 -1 $-1 $194 $327 $121 $203 reversed $117 $-1 #
edge $-1 -1 $-1 $328 -5 $207 5 $202 $329 forward @7 unknown #
coedge $-1 -1 $-1 $197 $122 $327 $330 forward $206 $-1 #
coedge $-1 -1 $-1 $122 $197 $323 $331 reversed $206 $-1 #
loop $-1 -1 $-1 $-1 $204 $307 #
vertex $-1 -1 $-1 $123 $332 #
vertex $-1 -1 $-1 $123 $333 #
straight-curve $-1 -1 $-1 5 0 15.925000000000002 0 1 0 I I #
face $-1 -1 $-1 $334 $335 $29 $-1 $336 forward single #
loop $-1 -1 $-1 $-1 $337 $124 #
plane-surface $-1 -1 $-1 -1.4433800000000758 2.5 12.924999999999995 0 1 0 0 0 1 forward_v I I I I #
coedge $-1 -1 $-1 $338 $339 $340 $341 forward $125 $-1 #
coedge $-1 -1 $-1 $342 $127 $339 $343 reversed $79 $-1 #
coedge $-1 -1 $-1 $127 $342 $128 $219 forward $79 $-1 #
coedge $-1 -1 $-1 $130 $340 $127 $217 reversed $223 $-1 #
edge $-1 -1 $-1 $225 -2.1650631368327029 $344 0.72168537263258226 $127 $345 forward @7 unknown #
coedge $-1 -1 $-1 $129 $128 $346 $347 reversed $54 $-1 #
edge $348 -1 $-1 $349 0 $225 3.0000000000000071 $215 $350 forward @7 unknown #
coedge $-1 -1 $-1 $351 $352 $129 $221 reversed $353 $-1 #
edge $-1 -1 $-1 $354 0 $224 3.0000000000000071 $129 $355 forward @7 unknown #
coedge $-1 -1 $-1 $356 $130 $352 $357 reversed $223 $-1 #
loop $-1 -1 $-1 $-1 $130 $358 #
vertex $-1 -1 $-1 $221 $359 #
vertex $-1 -1 $-1 $219 $360 #
straight-curve $-1 -1 $-1 -0.72169000000008054 -2.5 15.925000000000004 -1 0 0 I I #
model_id-kcp-attrib $-1 -1 $-1 $-1 $133 1 1021323987 1021323987 1941504001 7 #
face $361 -1 $-1 $362 $246 $9 $-1 $363 forward single #
loop $-1 -1 $-1 $-1 $253 $133 #
plane-surface $-1 -1 $-1 151.44337999999999 22.499999999999996 31.850010000000001 0 1 0 0 0 0.99999999999999989 forward_v I I I I #
coedge $-1 -1 $-1 $364 $136 $138 $235 forward $84 $-1 #
coedge $-1 -1 $-1 $136 $364 $365 $366 reversed $84 $-1 #
edge $367 -1 $-1 $237 -2.1650596273652405 $368 0.72168888210004545 $157 $369 forward @7 unknown #
coedge $-1 -1 $-1 $138 $137 $370 $371 reversed $58 $-1 #
edge $-1 -1 $-1 $237 2.000009999999993 $372 5.0000100000000005 $138 $373 forward @7 unknown #
attrib_edge_convexity-kcp-attrib $-1 -1 $374 $-1 $140 1 #
vertex $-1 -1 $-1 $233 $375 #
straight-curve $-1 -1 $-1 147.47409162263571 19.375001519645462 29.850000000000009 -0.49999852611593126 0.86602625473013006 0 I I #
coedge $-1 -1 $-1 $146 $370 $141 $240 forward $246 $-1 #
edge $376 -1 $-1 $241 -2.88676000000001 $152 0 $141 $377 forward @7 unknown #
vertex $-1 -1 $-1 $142 $378 #
straight-curve $-1 -1 $-1 148.55661999999998 17.499999999999996 31.850010000000001 0 0 -0.99999999999999989 I I #
convexity-sys-attrib $-1 -1 $-1 $143 $90 #
point $-1 -1 $-1 148.55661999999998 17.499999999999996 29.850000000000009 #
coedge $-1 -1 $-1 $379 $146 $149 $250 forward $246 $-1 #
loop $-1 -1 $-1 $-1 $380 $228 #
attrib_edge_convexity-kcp-attrib $-1 -1 $381 $-1 $147 2 #
straight-curve $-1 -1 $-1 152.88674999999998 19.999999999999996 26.850000000000001 0.49999852611593126 0.86602625473013006 0 I I #
coedge $-1 -1 $-1 $149 $148 $382 $383 forward $134 $-1 #
edge $384 -1 $-1 $150 -2.8867485094652716 $385 0 $149 $386 forward @7 unknown #
point $-1 -1 $-1 152.88674999999998 19.999999999999996 26.850000000000001 #
point $-1 -1 $-1 151.44337999999999 17.499999999999996 26.850000000000001 #
coedge $-1 -1 $-1 $365 $382 $154 $254 reversed $229 $-1 #
edge $387 -1 $-1 $368 -2.1650700000000431 $256 0.72168999999996697 $154 $388 forward @7 unknown #
attrib_edge_convexity-kcp-attrib $-1 -1 $389 $-1 $155 1 #
vertex $-1 -1 $-1 $155 $390 #
straight-curve $-1 -1 $-1 152.52590837736429 20.624998480354492 29.850000000000009 0.49999852611593126 -0.86602625473013006 0 I I #
coedge $-1 -1 $-1 $258 $258 $391 $392 forward $156 $-1 #
model_id-kcp-attrib $-1 -1 $-1 $-1 $158 1 1021323987 1021323987 1941504001 11 #
face $393 -1 $-1 $394 $395 $9 $-1 $396 forward single #
plane-surface $-1 -1 $-1 150.00000000000006 19.999999999999996 29.850000000000009 0 0 1 0.99999999999999989 0 0 forward_v I I I I #
face $-1 -1 $-1 $397 $293 $24 $-1 $398 reversed single #
loop $-1 -1 $-1 $-1 $399 $162 #
plane-surface $-1 -1 $-1 5 0 0 -1 0 0 0 0 1 forward_v I I I I #
coedge $-1 -1 $-1 $400 $401 $402 $403 reversed $163 $-1 #
coedge $-1 -1 $-1 $404 $164 $401 $405 forward $102 $-1 #
coedge $-1 -1 $-1 $164 $404 $406 $278 reversed $102 $-1 #
coedge $-1 -1 $-1 $407 $408 $164 $269 forward $409 $-1 #
edge $-1 -1 $-1 $410 -1.5707963267948966 $282 0 $268 $283 forward @7 unknown #
coedge $-1 -1 $-1 $166 $165 $411 $412 reversed $66 $-1 #
coedge $-1 -1 $-1 $413 $414 $415 $272 forward $416 $-1 #
edge $-1 -1 $-1 $417 -31.850000000000005 $276 0 $271 $418 forward @7 unknown #
coedge $-1 -1 $-1 $274 $167 $292 $296 forward $275 $-1 #
coedge $-1 -1 $-1 $167 $273 $413 $419 forward $275 $-1 #
loop $-1 -1 $-1 $-1 $167 $420 #
vertex $-1 -1 $-1 $421 $422 #
ellipse-curve $-1 -1 $-1 0 0 15.925000000000002 0 0 -1 4.9999999999999991 0 0 1 I I #
edge $-1 -1 $-1 $282 -31.850000000000005 $287 0 $406 $423 forward @7 unknown #
coedge $-1 -1 $-1 $280 $170 $175 $290 forward $281 $-1 #
coedge $-1 -1 $-1 $170 $279 $424 $425 forward $281 $-1 #
loop $-1 -1 $-1 $-1 $170 $426 #
vertex $-1 -1 $-1 $427 $428 #
ellipse-curve $-1 -1 $-1 0 0 -15.925000000000002 0 0 1 4.9999999999999991 0 0 1 I I #
coedge $-1 -1 $-1 $285 $172 $429 $430 forward $286 $-1 #
coedge $-1 -1 $-1 $172 $284 $174 $289 forward $286 $-1 #
loop $-1 -1 $-1 $-1 $172 $431 #
vertex $-1 -1 $-1 $430 $432 #
coedge $-1 -1 $-1 $175 $174 $433 $434 forward $177 $-1 #
edge $-1 -1 $-1 $435 -5 $179 0 $174 $436 forward @7 unknown #
edge $-1 -1 $-1 $178 0 $437 5 $175 $438 forward @7 unknown #
coedge $-1 -1 $-1 $439 $176 $440 $441 reversed $293 $-1 #
coedge $-1 -1 $-1 $176 $439 $273 $296 reversed $293 $-1 #
loop $-1 -1 $-1 $-1 $176 $262 #
face $-1 -1 $-1 $442 $177 $24 $-1 $398 reversed single #
point $-1 -1 $-1 0 5 -15.925000000000002 #
edge $-1 -1 $-1 $179 0 $443 5 $292 $436 forward @7 unknown #
point $-1 -1 $-1 0 5 15.925000000000002 #
loop $-1 -1 $-1 $-1 $187 $108 #
coedge $-1 -1 $-1 $299 $299 $185 $300 forward $181 $-1 #
edge $444 -1 $-1 $445 -3.1415926535897931 $445 3.1415926535897931 $185 $446 forward @7 unknown #
vertex $-1 -1 $-1 $186 $447 #
ellipse-curve $-1 -1 $-1 0 0 -15.925000000000001 0 0 1 4.9999999999999991 0 0 1 I I #
convexity-sys-attrib $-1 -1 $-1 $-1 $188 #
vertex $-1 -1 $-1 $188 $448 #
ellipse-curve $-1 -1 $-1 0 0 10.075000000000003 0 0 -1 2.9099999999999997 0 0 1 I I #
point $-1 -1 $-1 2.9099999999999966 0 -15.925000000000006 #
face $-1 -1 $-1 $-1 $206 $27 $-1 $449 reversed single #
loop $-1 -1 $-1 $-1 $323 $191 #
plane-surface $-1 -1 $-1 0 5 0 0 -1 0 0 0 -1 forward_v I I I I #
coedge $-1 -1 $-1 $450 $321 $324 $451 forward $192 $-1 #
coedge $-1 -1 $-1 $327 $194 $195 $315 reversed $117 $-1 #
coedge $-1 -1 $-1 $321 $450 $194 $313 reversed $192 $-1 #
edge $-1 -1 $-1 $328 -15.925000000000002 $452 15.925000000000002 $312 $453 forward @7 unknown #
coedge $-1 -1 $-1 $196 $195 $450 $454 forward $75 $-1 #
edge $-1 -1 $-1 $319 -5 $452 5 $311 $455 forward @7 unknown #
coedge $-1 -1 $-1 $324 $323 $196 $317 reversed $308 $-1 #
edge $-1 -1 $-1 $456 -5 $318 5 $316 $457 forward @7 unknown #
vertex $-1 -1 $-1 $198 $458 #
vertex $-1 -1 $-1 $330 $459 #
straight-curve $-1 -1 $-1 5 0 -15.925000000000002 0 -1 0 I I #
coedge $-1 -1 $-1 $310 $312 $199 $322 reversed $192 $-1 #
edge $-1 -1 $-1 $325 -5 $328 5 $321 $460 forward @7 unknown #
coedge $-1 -1 $-1 $316 $200 $205 $331 forward $308 $-1 #
coedge $-1 -1 $-1 $200 $316 $310 $451 reversed $308 $-1 #
vertex $-1 -1 $-1 $201 $461 #
straight-curve $-1 -1 $-1 0 5 15.925000000000002 -1 0 0 I I #
coedge $-1 -1 $-1 $202 $311 $204 $330 reversed $117 $-1 #
vertex $-1 -1 $-1 $322 $462 #
straight-curve $-1 -1 $-1 0 -5 15.925000000000002 1 0 0 I I #
edge $-1 -1 $-1 $207 -15.925000000000002 $319 15.925000000000002 $204 $463 forward @7 unknown #
edge $-1 -1 $-1 $208 -15.925000000000002 $318 15.925000000000002 $205 $464 forward @7 unknown #
point $-1 -1 $-1 5 -5 15.925000000000002 #
point $-1 -1 $-1 5 5 15.925000000000002 #
face $-1 -1 $-1 $358 $353 $29 $-1 $465 forward single #
loop $-1 -1 $-1 $-1 $466 $210 #
plane-surface $-1 -1 $-1 1.4433799999999337 2.5 12.924999999999995 0.86602625473013017 0.49999852611593132 0 0 0 -1 forward_v I I I I #
coedge $-1 -1 $-1 $467 $468 $469 $470 forward $211 $-1 #
coedge $-1 -1 $-1 $471 $213 $468 $472 reversed $125 $-1 #
coedge $-1 -1 $-1 $213 $471 $214 $343 forward $125 $-1 #
coedge $-1 -1 $-1 $216 $469 $213 $341 reversed $223 $-1 #
edge $-1 -1 $-1 $344 -2.1650596273652281 $473 0.72168888210005699 $213 $474 forward @7 unknown #
coedge $-1 -1 $-1 $215 $214 $475 $476 reversed $79 $-1 #
edge $-1 -1 $-1 $477 0 $344 3.0000000000000071 $339 $478 forward @7 unknown #
vertex $-1 -1 $-1 $343 $479 #
straight-curve $-1 -1 $-1 -2.5259083773643738 -0.62499848035451366 15.925000000000004 -0.49999852611593132 0.86602625473013017 0 I I #
coedge $-1 -1 $-1 $475 $480 $218 $347 forward $481 $-1 #
edge $482 -1 $-1 $354 -2.1650700000000143 $349 0.72168999999999528 $218 $483 forward @7 unknown #
convexity-sys-attrib $-1 -1 $-1 $-1 $219 #
vertex $-1 -1 $-1 $347 $484 #
straight-curve $-1 -1 $-1 -1.4433800000000758 -2.5 12.924999999999995 0 0 1 I I #
coedge $-1 -1 $-1 $485 $220 $480 $486 reversed $353 $-1 #
coedge $-1 -1 $-1 $220 $485 $222 $357 forward $353 $-1 #
loop $-1 -1 $-1 $-1 $352 $334 #
vertex $-1 -1 $-1 $486 $487 #
straight-curve $-1 -1 $-1 1.4433799999999337 -2.5 12.924999999999995 0 0 1 I I #
coedge $-1 -1 $-1 $469 $222 $466 $488 reversed $223 $-1 #
edge $-1 -1 $-1 $489 -2.1650596273652178 $224 0.72168888210005311 $352 $490 forward @7 unknown #
face $-1 -1 $-1 $491 $223 $29 $-1 $492 forward single #
point $-1 -1 $-1 1.4433799999999337 -2.5 15.925000000000002 #
point $-1 -1 $-1 -1.4433800000000758 -2.5 15.925000000000002 #
model_id-kcp-attrib $-1 -1 $-1 $-1 $228 1 1021323987 1021323987 1941504001 8 #
face $493 -1 $-1 $494 $495 $9 $-1 $496 forward single #
plane-surface $-1 -1 $-1 148.55661999999998 22.499999999999996 26.850000000000001 0 0 1 0.99999999999999989 0 0 forward_v I I I I #
coedge $-1 -1 $-1 $232 $231 $380 $497 reversed $84 $-1 #
coedge $-1 -1 $-1 $498 $253 $232 $366 forward $229 $-1 #
edge $-1 -1 $-1 $368 2.000009999999993 $499 5.0000100000000005 $232 $500 forward @7 unknown #
attrib_edge_convexity-kcp-attrib $-1 -1 $501 $-1 $233 1 #
vertex $-1 -1 $-1 $233 $502 #
straight-curve $-1 -1 $-1 148.19577662263569 21.874998480354527 29.850000000000009 0.49999852611593126 0.86602625473013006 0 I I #
coedge $-1 -1 $-1 $239 $380 $234 $371 forward $246 $-1 #
edge $503 -1 $-1 $372 -2.8867485094652858 $241 0 $234 $504 forward @7 unknown #
vertex $-1 -1 $-1 $235 $505 #
straight-curve $-1 -1 $-1 147.11324999999997 19.999999999999996 31.850010000000001 0 0 -0.99999999999999989 I I #
convexity-sys-attrib $-1 -1 $-1 $236 $140 #
point $-1 -1 $-1 147.11324999999997 19.999999999999996 29.850000000000009 #
attrib_edge_convexity-kcp-attrib $-1 -1 $506 $-1 $240 2 #
straight-curve $-1 -1 $-1 151.44337999999999 17.499999999999996 26.850000000000001 0.99999999999999989 0 0 I I #
point $-1 -1 $-1 148.55661999999998 17.499999999999996 26.850000000000001 #
coedge $-1 -1 $-1 $380 $245 $498 $507 forward $246 $-1 #
coedge $-1 -1 $-1 $370 $379 $364 $497 forward $246 $-1 #
convexity-sys-attrib $-1 -1 $-1 $247 $147 #
coedge $-1 -1 $-1 $253 $498 $249 $383 reversed $229 $-1 #
edge $-1 -1 $-1 $256 2.000009999999993 $385 5.0000100000000005 $382 $508 forward @7 unknown #
attrib_edge_convexity-kcp-attrib $-1 -1 $509 $-1 $250 2 #
vertex $-1 -1 $-1 $383 $510 #
straight-curve $-1 -1 $-1 151.44337999999999 22.499999999999996 26.850000000000001 -0.49999852611593126 0.86602625473013006 0 I I #
attrib_edge_convexity-kcp-attrib $-1 -1 $511 $-1 $254 1 #
straight-curve $-1 -1 $-1 150.72169000000002 22.499999999999996 29.850000000000009 0.99999999999999989 0 0 I I #
convexity-sys-attrib $-1 -1 $-1 $255 $155 #
point $-1 -1 $-1 151.44337999999999 22.499999999999996 29.850000000000009 #
coedge $-1 -1 $-1 $391 $391 $258 $392 reversed $512 $-1 #
edge $513 -1 $-1 $514 0 $514 6.2831853071795862 $258 $515 forward @7 unknown #
model_id-kcp-attrib $-1 -1 $-1 $-1 $260 1 1021323987 1021323987 1941504001 12 #
face $516 -1 $-1 $-1 $517 $9 $-1 $518 forward single #
loop $-1 -1 $-1 $519 $520 $260 #
cone-surface $-1 -1 $-1 150.00000000000006 19.999999999999996 11.000000000000002 0 0 1 2.9099999999999997 0 0 1 I I 0 1 2.9099999999999997 forward I I I I #
face $-1 -1 $-1 $521 $522 $24 $-1 $523 reversed single #
plane-surface $-1 -1 $-1 0 5 0 0 -1 0 0 0 -1 forward_v I I I I #
coedge $-1 -1 $-1 $424 $429 $169 $278 reversed $263 $-1 #
coedge $-1 -1 $-1 $524 $265 $165 $272 forward $163 $-1 #
coedge $-1 -1 $-1 $265 $524 $525 $405 reversed $163 $-1 #
coedge $-1 -1 $-1 $526 $527 $265 $403 forward $528 $-1 #
edge $-1 -1 $-1 $417 -3.1415926535897931 $410 -1.5707963267948966 $402 $283 forward @7 unknown #
coedge $-1 -1 $-1 $267 $266 $529 $530 reversed $102 $-1 #
edge $-1 -1 $-1 $410 -31.850000000000005 $531 0 $525 $532 forward @7 unknown #
coedge $-1 -1 $-1 $533 $534 $399 $278 forward $535 $-1 #
coedge $-1 -1 $-1 $408 $268 $534 $427 forward $409 $-1 #
coedge $-1 -1 $-1 $268 $407 $536 $537 forward $409 $-1 #
loop $-1 -1 $-1 $-1 $268 $538 #
vertex $-1 -1 $-1 $539 $540 #
coedge $-1 -1 $-1 $541 $440 $270 $412 forward $542 $-1 #
edge $-1 -1 $-1 $178 1.5707963267948966 $417 3.1415926535897931 $411 $283 forward @7 unknown #
coedge $-1 -1 $-1 $543 $271 $274 $419 reversed $416 $-1 #
coedge $-1 -1 $-1 $271 $543 $541 $544 reversed $416 $-1 #
coedge $-1 -1 $-1 $545 $546 $400 $272 reversed $522 $-1 #
loop $-1 -1 $-1 $-1 $271 $547 #
vertex $-1 -1 $-1 $544 $548 #
straight-curve $-1 -1 $-1 -5 0 15.925000000000002 0 0 1 I I #
edge $-1 -1 $-1 $443 -5 $276 0 $413 $549 forward @7 unknown #
face $-1 -1 $-1 $431 $275 $24 $-1 $550 forward single #
edge $-1 -1 $-1 $276 0 $551 5 $546 $549 forward @7 unknown #
point $-1 -1 $-1 -5 0 15.925000000000002 #
straight-curve $-1 -1 $-1 5 0 15.925000000000002 0 0 1 I I #
coedge $-1 -1 $-1 $433 $399 $280 $425 reversed $263 $-1 #
edge $-1 -1 $-1 $437 -5 $282 0 $424 $552 forward @7 unknown #
face $-1 -1 $-1 $553 $281 $24 $-1 $554 reversed single #
edge $-1 -1 $-1 $282 0 $555 5 $534 $552 forward @7 unknown #
point $-1 -1 $-1 5 0 -15.925000000000002 #
coedge $-1 -1 $-1 $399 $433 $284 $430 reversed $263 $-1 #
edge $-1 -1 $-1 $287 0 $435 5 $429 $556 forward @7 unknown #
face $-1 -1 $-1 $557 $286 $24 $-1 $550 forward single #
point $-1 -1 $-1 5 0 15.925000000000002 #
coedge $-1 -1 $-1 $429 $424 $288 $434 reversed $263 $-1 #
edge $-1 -1 $-1 $435 -15.925000000000002 $437 15.925000000000002 $433 $558 forward @7 unknown #
vertex $-1 -1 $-1 $430 $559 #
straight-curve $-1 -1 $-1 0 5 15.925000000000002 -1 0 0 I I #
vertex $-1 -1 $-1 $425 $560 #
straight-curve $-1 -1 $-1 0 5 -15.925000000000002 1 0 0 I I #
coedge $-1 -1 $-1 $292 $291 $543 $561 reversed $293 $-1 #
coedge $-1 -1 $-1 $411 $541 $291 $441 forward $542 $-1 #
edge $-1 -1 $-1 $562 -5 $178 0 $291 $438 forward @7 unknown #
face $-1 -1 $-1 $-1 $535 $24 $-1 $264 reversed single #
vertex $-1 -1 $-1 $296 $563 #
convexity-sys-attrib $-1 -1 $-1 $-1 $300 #
vertex $-1 -1 $-1 $300 $564 #
ellipse-curve $-1 -1 $-1 0 0 10.075000000000003 0 0 1 4.9999999999999991 0 0 1 I I #
point $-1 -1 $-1 -4.9999999999999991 -6.1230317691118853e-016 -15.925000000000001 #
point $-1 -1 $-1 2.9099999999999966 0 10.074999999999998 #
plane-surface $-1 -1 $-1 5 0 0 -1 0 0 0 0 1 forward_v I I I I #
coedge $-1 -1 $-1 $312 $310 $314 $454 reversed $192 $-1 #
edge $-1 -1 $-1 $325 -15.925000000000002 $456 15.925000000000002 $324 $565 forward @7 unknown #
vertex $-1 -1 $-1 $454 $566 #
straight-curve $-1 -1 $-1 -5 -5 0 0 0 -1 I I #
edge $-1 -1 $-1 $452 -5 $456 5 $450 $567 forward @7 unknown #
straight-curve $-1 -1 $-1 0 -5 -15.925000000000002 -1 0 0 I I #
vertex $-1 -1 $-1 $317 $568 #
straight-curve $-1 -1 $-1 0 5 -15.925000000000002 1 0 0 I I #
point $-1 -1 $-1 5 5 -15.925000000000002 #
point $-1 -1 $-1 5 -5 -15.925000000000002 #
straight-curve $-1 -1 $-1 -5 0 15.925000000000002 0 -1 0 I I #
point $-1 -1 $-1 -5 5 15.925000000000002 #
point $-1 -1 $-1 -5 -5 15.925000000000002 #
straight-curve $-1 -1 $-1 5 -5 0 0 0 -1 I I #
straight-curve $-1 -1 $-1 5 5 0 0 0 -1 I I #
plane-surface $-1 -1 $-1 2.8867499999999211 0 12.924999999999995 0.86602625473013017 -0.49999852611593132 0 0 0 -1 forward_v I I I I #
coedge $-1 -1 $-1 $569 $570 $356 $488 forward $335 $-1 #
coedge $-1 -1 $-1 $571 $337 $570 $572 reversed $211 $-1 #
coedge $-1 -1 $-1 $337 $571 $338 $472 forward $211 $-1 #
coedge $-1 -1 $-1 $340 $356 $337 $470 reversed $223 $-1 #
edge $-1 -1 $-1 $473 -2.1650700000000001 $573 0.72169000000000949 $337 $574 forward @7 unknown #
coedge $-1 -1 $-1 $339 $338 $575 $576 reversed $125 $-1 #
edge $-1 -1 $-1 $577 0 $473 3.0000000000000071 $468 $578 forward @7 unknown #
vertex $-1 -1 $-1 $472 $579 #
straight-curve $-1 -1 $-1 -1.8042233773643583 1.874998480354513 15.925000000000004 0.49999852611593132 0.86602625473013017 0 I I #
coedge $-1 -1 $-1 $575 $346 $342 $476 forward $481 $-1 #
edge $580 -1 $-1 $349 -2.1650631368327029 $477 0.72168537263258226 $342 $581 forward @7 unknown #
vertex $-1 -1 $-1 $476 $582 #
straight-curve $-1 -1 $-1 -2.8867500000000916 0 12.924999999999995 0 0 1 I I #
point $-1 -1 $-1 -2.8867500000000916 0 15.925000000000002 #
coedge $-1 -1 $-1 $346 $583 $351 $486 forward $481 $-1 #
loop $-1 -1 $-1 $-1 $480 $491 #
convexity-sys-attrib $-1 -1 $-1 $-1 $347 #
straight-curve $-1 -1 $-1 -0.72169000000008054 -2.5 12.924999999999997 -1 0 0 I I #
point $-1 -1 $-1 -1.4433800000000758 -2.5 12.924999999999995 #
coedge $-1 -1 $-1 $352 $351 $569 $584 forward $353 $-1 #
edge $585 -1 $-1 $586 -2.1650596273652178 $354 0.72168888210005311 $351 $587 forward @7 unknown #
point $-1 -1 $-1 1.4433799999999337 -2.5 12.924999999999995 #
edge $-1 -1 $-1 $573 -2.1650631368326856 $489 0.72168537263258548 $466 $588 forward @7 unknown #
vertex $-1 -1 $-1 $584 $589 #
straight-curve $-1 -1 $-1 1.8042233773642142 -1.8749984803545163 15.925000000000004 -0.49999852611593132 -0.86602625473013017 0 I I #
face $-1 -1 $-1 $-1 $481 $29 $-1 $590 reversed single #
plane-surface $-1 -1 $-1 -7.916397951358279e-014 -1.9984014443252818e-015 15.925000000000001 5.3661362540549991e-031 -3.9301333721190516e-031 1 1 0 -5.3661362540549991e-031 forward_v I I I I #
model_id-kcp-attrib $-1 -1 $-1 $-1 $362 1 1021323987 1021323987 1941504001 9 #
face $591 -1 $-1 $158 $592 $9 $-1 $593 forward single #
loop $-1 -1 $-1 $594 $595 $362 #
plane-surface $-1 -1 $-1 150.00000000000006 19.999999999999996 24.000000000000007 0 0 -1 -0.99999999999999989 0 0 forward_v I I I I #
edge $596 -1 $-1 $499 -2.8867485094652858 $372 0 $364 $597 forward @7 unknown #
coedge $-1 -1 $-1 $382 $365 $379 $507 reversed $229 $-1 #
vertex $-1 -1 $-1 $366 $598 #
straight-curve $-1 -1 $-1 148.55661999999998 22.499999999999996 31.850010000000001 0 0 -0.99999999999999989 I I #
convexity-sys-attrib $-1 -1 $-1 $367 $233 #
point $-1 -1 $-1 148.55661999999998 22.499999999999996 29.850000000000009 #
attrib_edge_convexity-kcp-attrib $-1 -1 $599 $-1 $371 2 #
straight-curve $-1 -1 $-1 148.55661999999998 17.499999999999996 26.850000000000001 0.49999852611593126 -0.86602625473013006 0 I I #
point $-1 -1 $-1 147.11324999999997 19.999999999999996 26.850000000000001 #
convexity-sys-attrib $-1 -1 $-1 $376 $240 #
edge $600 -1 $-1 $385 -2.88676000000001 $499 0 $498 $601 forward @7 unknown #
straight-curve $-1 -1 $-1 151.44337999999999 22.499999999999996 31.850010000000001 0 0 -0.99999999999999989 I I #
convexity-sys-attrib $-1 -1 $-1 $384 $250 #
point $-1 -1 $-1 151.44337999999999 22.499999999999996 26.850000000000001 #
convexity-sys-attrib $-1 -1 $-1 $387 $254 #
loop $-1 -1 $-1 $-1 $391 $494 #
attrib_edge_convexity-kcp-attrib $-1 -1 $602 $-1 $392 1 #
vertex $-1 -1 $-1 $392 $603 #
ellipse-curve $-1 -1 $-1 150.00000000000006 19.999999999999996 29.850000000000009 0 0 1 4.9999999999999991 0 0 1 I I #
model_id-kcp-attrib $-1 -1 $-1 $-1 $394 1 1021323987 1021323987 1941504001 13 #
loop $-1 -1 $-1 $-1 $604 $394 #
plane-surface $-1 -1 $-1 150.00000000000006 19.999999999999996 -1.999999999999998 0 0 -1 -0.99999999999999989 0 0 forward_v I I I I #
loop $-1 -1 $-1 $-1 $605 $260 #
coedge $-1 -1 $-1 $520 $520 $604 $606 reversed $395 $-1 #
face $-1 -1 $-1 $420 $607 $24 $-1 $550 forward single #
loop $-1 -1 $-1 $-1 $415 $397 #
plane-surface $-1 -1 $-1 -5 0 0 1 0 0 0 0 -1 forward_v I I I I #
coedge $-1 -1 $-1 $401 $400 $608 $609 reversed $163 $-1 #
coedge $-1 -1 $-1 $610 $611 $612 $405 forward $613 $-1 #
coedge $-1 -1 $-1 $527 $402 $611 $539 forward $528 $-1 #
coedge $-1 -1 $-1 $402 $526 $545 $614 forward $528 $-1 #
loop $-1 -1 $-1 $-1 $402 $615 #
coedge $-1 -1 $-1 $616 $617 $404 $530 forward $618 $-1 #
edge $-1 -1 $-1 $287 0 $531 1.5707963267948966 $529 $277 forward @7 unknown #
vertex $-1 -1 $-1 $619 $620 #
straight-curve $-1 -1 $-1 0 -5 15.925000000000002 0 0 1 I I #
coedge $-1 -1 $-1 $621 $406 $617 $622 reversed $535 $-1 #
coedge $-1 -1 $-1 $406 $621 $407 $427 reversed $535 $-1 #
loop $-1 -1 $-1 $-1 $406 $442 #
coedge $-1 -1 $-1 $623 $612 $408 $537 reversed $624 $-1 #
edge $-1 -1 $-1 $555 -5 $410 0 $536 $625 forward @7 unknown #
face $-1 -1 $-1 $426 $409 $24 $-1 $554 reversed single #
edge $-1 -1 $-1 $410 0 $626 5 $611 $625 forward @7 unknown #
point $-1 -1 $-1 0 -5 -15.925000000000002 #
coedge $-1 -1 $-1 $440 $411 $414 $544 forward $542 $-1 #
loop $-1 -1 $-1 $-1 $411 $553 #
coedge $-1 -1 $-1 $414 $413 $439 $561 forward $416 $-1 #
edge $-1 -1 $-1 $417 0 $562 5 $414 $627 forward @7 unknown #
coedge $-1 -1 $-1 $628 $415 $527 $614 reversed $522 $-1 #
coedge $-1 -1 $-1 $415 $628 $629 $421 reversed $522 $-1 #
face $-1 -1 $-1 $294 $416 $24 $-1 $523 reversed single #
point $-1 -1 $-1 -5 0 -15.925000000000002 #
straight-curve $-1 -1 $-1 -5 0 15.925000000000002 0 -1 0 I I #
plane-surface $-1 -1 $-1 0 0 15.925000000000002 0 0 1 1 0 0 forward_v I I I I #
vertex $-1 -1 $-1 $421 $630 #
straight-curve $-1 -1 $-1 5 0 -15.925000000000002 0 -1 0 I I #
face $-1 -1 $-1 $631 $542 $24 $-1 $554 reversed single #
plane-surface $-1 -1 $-1 0 0 -15.925000000000002 0 0 1 1 0 0 forward_v I I I I #
vertex $-1 -1 $-1 $632 $633 #
straight-curve $-1 -1 $-1 5 0 15.925000000000002 0 1 0 I I #
face $-1 -1 $-1 $634 $618 $24 $-1 $550 forward single #
straight-curve $-1 -1 $-1 5 5 0 0 0 -1 I I #
point $-1 -1 $-1 5 5 15.925000000000002 #
point $-1 -1 $-1 5 5 -15.925000000000002 #
edge $-1 -1 $-1 $443 -15.925000000000002 $562 15.925000000000002 $439 $635 forward @7 unknown #
vertex $-1 -1 $-1 $441 $636 #
point $-1 -1 $-1 -5 5 15.925000000000002 #
point $-1 -1 $-1 -4.9999999999999991 -6.1230317691118853e-016 10.075000000000003 #
straight-curve $-1 -1 $-1 -5 5 0 0 0 -1 I I #
point $-1 -1 $-1 -5 -5 -15.925000000000002 #
straight-curve $-1 -1 $-1 -5 0 -15.925000000000002 0 1 0 I I #
point $-1 -1 $-1 -5 5 -15.925000000000002 #
coedge $-1 -1 $-1 $637 $466 $485 $584 reversed $335 $-1 #
coedge $-1 -1 $-1 $466 $637 $467 $572 forward $335 $-1 #
coedge $-1 -1 $-1 $468 $467 $638 $639 reversed $211 $-1 #
edge $-1 -1 $-1 $640 0 $573 3.0000000000000071 $570 $641 forward @7 unknown #
vertex $-1 -1 $-1 $572 $642 #
straight-curve $-1 -1 $-1 0.72168999999992423 2.5 15.925000000000004 1 0 0 I I #
coedge $-1 -1 $-1 $638 $475 $471 $576 forward $481 $-1 #
edge $643 -1 $-1 $477 -2.1650596273652281 $577 0.72168888210005699 $471 $644 forward @7 unknown #
vertex $-1 -1 $-1 $576 $645 #
straight-curve $-1 -1 $-1 -1.4433800000000758 2.5 12.924999999999995 0 0 1 I I #
point $-1 -1 $-1 -1.4433800000000758 2.5 15.925000000000002 #
convexity-sys-attrib $-1 -1 $-1 $-1 $476 #
straight-curve $-1 -1 $-1 -2.5259083773643738 -0.62499848035451366 12.924999999999997 -0.49999852611593132 0.86602625473013017 0 I I #
point $-1 -1 $-1 -2.8867500000000916 0 12.924999999999995 #
coedge $-1 -1 $-1 $480 $638 $637 $646 forward $481 $-1 #
edge $-1 -1 $-1 $586 0 $489 3.0000000000000071 $485 $647 forward @7 unknown #
convexity-sys-attrib $-1 -1 $-1 $-1 $486 #
vertex $-1 -1 $-1 $486 $648 #
straight-curve $-1 -1 $-1 1.8042233773642142 -1.8749984803545163 12.924999999999997 -0.49999852611593132 -0.86602625473013017 0 I I #
straight-curve $-1 -1 $-1 2.5259083773642015 0.62499848035451633 15.925000000000004 0.49999852611593132 -0.86602625473013017 0 I I #
point $-1 -1 $-1 2.8867499999999211 0 15.925000000000002 #
plane-surface $-1 -1 $-1 -7.916397951358279e-014 -1.9984014443252818e-015 12.924999999999994 5.3661362540549991e-031 -3.9301333721190516e-031 1 1 0 -5.3661362540549991e-031 forward_v I I I I #
model_id-kcp-attrib $-1 -1 $-1 $-1 $494 1 1021323987 1021323987 1941504001 10 #
loop $-1 -1 $-1 $512 $649 $494 #
cone-surface $-1 -1 $-1 150.00000000000006 19.999999999999996 26.925000000000008 0 0 1 4.9999999999999991 0 0 1 I I 0 1 4.9999999999999991 forward I I I I #
loop $-1 -1 $-1 $-1 $650 $362 #
coedge $-1 -1 $-1 $595 $595 $649 $651 forward $495 $-1 #
attrib_edge_convexity-kcp-attrib $-1 -1 $652 $-1 $497 2 #
straight-curve $-1 -1 $-1 147.11324999999997 19.999999999999996 26.850000000000001 -0.49999852611593126 -0.86602625473013006 0 I I #
point $-1 -1 $-1 148.55661999999998 22.499999999999996 26.850000000000001 #
convexity-sys-attrib $-1 -1 $-1 $503 $371 #
attrib_edge_convexity-kcp-attrib $-1 -1 $653 $-1 $507 2 #
straight-curve $-1 -1 $-1 148.55661999999998 22.499999999999996 26.850000000000001 -0.99999999999999989 0 0 I I #
convexity-sys-attrib $-1 -1 $-1 $513 $392 #
point $-1 -1 $-1 155.00000000000006 19.999999999999996 29.850000000000009 #
coedge $-1 -1 $-1 $604 $604 $520 $606 forward $517 $-1 #
coedge $-1 -1 $-1 $605 $605 $650 $654 forward $519 $-1 #
edge $-1 -1 $-1 $655 0 $655 6.2831853071795862 $604 $656 forward @7 unknown #
loop $-1 -1 $-1 $-1 $608 $521 #
coedge $-1 -1 $-1 $629 $657 $524 $609 forward $607 $-1 #
edge $-1 -1 $-1 $531 1.5707963267948966 $276 3.1415926535897931 $608 $277 forward @7 unknown #
coedge $-1 -1 $-1 $658 $525 $657 $659 reversed $613 $-1 #
coedge $-1 -1 $-1 $525 $658 $526 $539 reversed $613 $-1 #
coedge $-1 -1 $-1 $536 $660 $266 $405 reversed $624 $-1 #
loop $-1 -1 $-1 $-1 $525 $631 #
edge $-1 -1 $-1 $626 -5 $417 0 $545 $627 forward @7 unknown #
face $-1 -1 $-1 $538 $528 $24 $-1 $554 reversed single #
coedge $-1 -1 $-1 $617 $529 $660 $619 forward $618 $-1 #
coedge $-1 -1 $-1 $529 $616 $533 $622 forward $618 $-1 #
loop $-1 -1 $-1 $-1 $529 $557 #
edge $-1 -1 $-1 $531 0 $661 5 $660 $662 forward @7 unknown #
point $-1 -1 $-1 0 -5 15.925000000000002 #
coedge $-1 -1 $-1 $534 $533 $623 $632 forward $535 $-1 #
edge $-1 -1 $-1 $661 -5 $287 0 $533 $556 forward @7 unknown #
coedge $-1 -1 $-1 $660 $536 $621 $632 reversed $624 $-1 #
loop $-1 -1 $-1 $-1 $612 $634 #
straight-curve $-1 -1 $-1 0 -5 -15.925000000000002 -1 0 0 I I #
vertex $-1 -1 $-1 $614 $663 #
straight-curve $-1 -1 $-1 -5 0 -15.925000000000002 0 1 0 I I #
coedge $-1 -1 $-1 $546 $545 $658 $664 reversed $522 $-1 #
coedge $-1 -1 $-1 $657 $608 $546 $421 forward $607 $-1 #
point $-1 -1 $-1 -5 -5 15.925000000000002 #
face $-1 -1 $-1 $547 $613 $24 $-1 $665 reversed single #
edge $-1 -1 $-1 $661 -15.925000000000002 $555 15.925000000000002 $621 $666 forward @7 unknown #
point $-1 -1 $-1 5 -5 -15.925000000000002 #
face $-1 -1 $-1 $615 $624 $24 $-1 $665 reversed single #
straight-curve $-1 -1 $-1 -5 5 0 0 0 -1 I I #
point $-1 -1 $-1 -5 5 -15.925000000000002 #
coedge $-1 -1 $-1 $570 $569 $583 $646 reversed $335 $-1 #
coedge $-1 -1 $-1 $583 $575 $571 $639 forward $481 $-1 #
edge $667 -1 $-1 $577 -2.1650700000000001 $640 0.72169000000000949 $571 $668 forward @7 unknown #
vertex $-1 -1 $-1 $639 $669 #
straight-curve $-1 -1 $-1 1.4433799999999337 2.5 12.924999999999995 0 0 1 I I #
point $-1 -1 $-1 1.4433799999999337 2.5 15.925000000000002 #
convexity-sys-attrib $-1 -1 $-1 $-1 $576 #
straight-curve $-1 -1 $-1 -1.8042233773643583 1.874998480354513 12.924999999999997 0.49999852611593132 0.86602625473013017 0 I I #
point $-1 -1 $-1 -1.4433800000000758 2.5 12.924999999999995 #
edge $670 -1 $-1 $640 -2.1650631368326856 $586 0.72168537263258548 $637 $671 forward @7 unknown #
straight-curve $-1 -1 $-1 2.8867499999999211 0 12.924999999999995 0 0 1 I I #
point $-1 -1 $-1 2.8867499999999211 0 12.924999999999995 #
coedge $-1 -1 $-1 $649 $649 $595 $651 reversed $592 $-1 #
coedge $-1 -1 $-1 $650 $650 $605 $654 reversed $594 $-1 #
edge $672 -1 $-1 $673 0 $673 6.2831853071795862 $595 $674 forward @7 unknown #
convexity-sys-attrib $-1 -1 $-1 $596 $497 #
convexity-sys-attrib $-1 -1 $-1 $600 $507 #
edge $675 -1 $-1 $676 -6.2831853071795862 $676 0 $605 $677 reversed @7 unknown #
vertex $-1 -1 $-1 $606 $678 #
ellipse-curve $-1 -1 $-1 150.00000000000006 19.999999999999996 -1.999999999999998 0 0 -1 2.9099999999999997 0 0 1 I I #
coedge $-1 -1 $-1 $608 $629 $610 $659 forward $607 $-1 #
coedge $-1 -1 $-1 $611 $610 $628 $664 forward $613 $-1 #
edge $-1 -1 $-1 $551 -5 $531 0 $610 $662 forward @7 unknown #
coedge $-1 -1 $-1 $612 $623 $616 $619 reversed $624 $-1 #
vertex $-1 -1 $-1 $622 $679 #
straight-curve $-1 -1 $-1 0 -5 15.925000000000002 1 0 0 I I #
point $-1 -1 $-1 -5 -5 -15.925000000000002 #
edge $-1 -1 $-1 $551 -15.925000000000002 $626 15.925000000000002 $628 $680 forward @7 unknown #
plane-surface $-1 -1 $-1 0 -5 0 0 1 0 0 0 1 forward_v I I I I #
straight-curve $-1 -1 $-1 5 -5 0 0 0 -1 I I #
convexity-sys-attrib $-1 -1 $-1 $-1 $639 #
straight-curve $-1 -1 $-1 0.72168999999992423 2.5 12.924999999999997 1 0 0 I I #
point $-1 -1 $-1 1.4433799999999337 2.5 12.924999999999995 #
convexity-sys-attrib $-1 -1 $-1 $-1 $646 #
straight-curve $-1 -1 $-1 2.5259083773642015 0.62499848035451633 12.924999999999997 0.49999852611593132 -0.86602625473013017 0 I I #
attrib_edge_convexity-kcp-attrib $-1 -1 $681 $-1 $651 1 #
vertex $-1 -1 $-1 $651 $682 #
ellipse-curve $-1 -1 $-1 150.00000000000006 19.999999999999996 24.000000000000007 0 0 -1 4.9999999999999991 0 0 1 I I #
attrib_edge_convexity-kcp-attrib $-1 -1 $683 $-1 $654 2 #
vertex $-1 -1 $-1 $654 $684 #
ellipse-curve $-1 -1 $-1 150.00000000000006 19.999999999999996 24.000000000000004 0 0 1 2.9099999999999997 0 0 1 I I #
point $-1 -1 $-1 152.91000000000005 19.999999999999996 -1.999999999999998 #
point $-1 -1 $-1 5 -5 15.925000000000002 #
straight-curve $-1 -1 $-1 -5 -5 0 0 0 -1 I I #
convexity-sys-attrib $-1 -1 $-1 $672 $651 #
point $-1 -1 $-1 155.00000000000006 19.999999999999996 24.000000000000007 #
convexity-sys-attrib $-1 -1 $-1 $675 $654 #
point $-1 -1 $-1 152.91000000000005 19.999999999999996 24.000000000000004 #
End-of-ACIS-data 