600 0 1 0           
100 GICL ACIS Healer - Source: /gicl/data5/repository/CMU/scanner/screw_potentiometer_to_frame.sat - 6 0 18 ACIS 6.0.3 Solaris 24 Sat Apr 13 00:31:11 2002 
1 9.999999999999999547e-07 1.000000000000000036e-10 
body $-1 $1 $-1 $-1 #
lump $-1 $-1 $2 $0 #
shell $-1 $-1 $-1 $3 $-1 $1 #
face $-1 $4 $5 $2 $-1 $6 reversed single #
face $-1 $7 $8 $2 $-1 $9 reversed single #
loop $-1 $-1 $10 $3 #
plane-surface $-1 166.7499999999999716 43.24999999999999289 192.0000000000000568 0 -1 0 0 0 -0.999999999999999889 forward_v I I I I #
face $-1 $11 $12 $2 $-1 $13 reversed single #
loop $-1 $-1 $14 $4 #
plane-surface $-1 166.7499999999999716 40.74999999999999289 192.0000000000000568 1 0 0 0 0 -0.999999999999999889 forward_v I I I I #
coedge $-1 $15 $16 $17 $18 reversed $5 $-1 #
face $-1 $19 $20 $2 $-1 $21 reversed single #
loop $-1 $-1 $22 $7 #
plane-surface $-1 165.2499999999999716 40.74999999999999289 192.0000000000000568 0 -1 0 0 0 -0.999999999999999889 forward_v I I I I #
coedge $-1 $23 $24 $25 $26 reversed $8 $-1 #
coedge $-1 $27 $10 $28 $29 forward $5 $-1 #
coedge $-1 $10 $27 $23 $30 reversed $5 $-1 #
coedge $-1 $25 $31 $10 $18 forward $32 $-1 #
edge $-1 $33 -2.875000000000000444 $34 -0.3750000000000000555 $17 $35 forward 7 unknown #
face $-1 $36 $37 $2 $-1 $38 reversed single #
loop $-1 $-1 $39 $11 #
plane-surface $-1 165.2499999999999716 43.24999999999999289 192.0000000000000568 -1 0 0 0 0 0.999999999999999889 forward_v I I I I #
coedge $-1 $40 $41 $42 $43 reversed $12 $-1 #
coedge $-1 $44 $14 $16 $30 forward $8 $-1 #
coedge $-1 $14 $44 $40 $45 reversed $8 $-1 #
coedge $-1 $42 $17 $14 $26 forward $32 $-1 #
edge $-1 $34 -0.875000000000000111 $46 1.625000000000000222 $25 $47 forward 7 unknown #
coedge $-1 $16 $15 $48 $49 reversed $5 $-1 #
coedge $-1 $50 $51 $15 $29 reversed $52 $-1 #
edge $-1 $33 2.000010000000088883 $53 3.199999999999989075 $28 $54 forward 7 unknown #
edge $-1 $34 2.000010000000088883 $55 3.199999999999989075 $16 $56 forward 7 unknown #
coedge $-1 $17 $57 $50 $58 forward $32 $-1 #
loop $-1 $59 $60 $61 #
vertex $-1 $18 $62 #
vertex $-1 $26 $63 #
straight-curve $-1 166.3749999999999716 43.24999999999999289 189.9999899999999684 -0.999999999999999889 0 0 I I #
face $-1 $64 $65 $2 $-1 $66 reversed single #
loop $-1 $-1 $67 $19 #
plane-surface $-1 162.7499999999999716 43.24999999999999289 192.0000000000000568 0 -1 0 0 0 -0.999999999999999889 forward_v I I I I #
coedge $-1 $68 $69 $70 $71 reversed $20 $-1 #
coedge $-1 $72 $22 $24 $45 forward $12 $-1 #
coedge $-1 $22 $72 $68 $73 reversed $12 $-1 #
coedge $-1 $70 $25 $22 $43 forward $32 $-1 #
edge $-1 $46 -1.125000000000000222 $74 0.3750000000000000555 $42 $75 forward 7 unknown #
coedge $-1 $24 $23 $76 $77 reversed $8 $-1 #
edge $-1 $46 2.000010000000088883 $78 3.199999999999989075 $24 $79 forward 7 unknown #
vertex $-1 $43 $80 #
straight-curve $-1 166.7499999999999716 42.37499999999999289 189.9999899999999684 0 -0.999999999999999889 0 I I #
coedge $-1 $81 $76 $27 $49 forward $82 $-1 #
edge $-1 $55 -2.500000000000000444 $53 0 $27 $83 forward 7 unknown #
coedge $-1 $84 $28 $31 $58 reversed $52 $-1 #
coedge $-1 $28 $84 $81 $85 reversed $52 $-1 #
loop $-1 $-1 $50 $86 #
vertex $-1 $29 $87 #
straight-curve $-1 169.2499999999999716 43.24999999999999289 192.0000000000000568 0 0 -0.999999999999999889 I I #
vertex $-1 $30 $88 #
straight-curve $-1 166.7499999999999716 43.24999999999999289 192.0000000000000568 0 0 -0.999999999999999889 I I #
coedge $-1 $31 $89 $90 $91 forward $32 $-1 #
edge $-1 $92 -1.125000000000000222 $33 0.3750000000000000555 $31 $93 forward 7 unknown #
loop $-1 $-1 $94 $61 #
coedge $-1 $95 $96 $97 $98 forward $32 $-1 #
face $-1 $99 $32 $2 $-1 $100 forward single #
point $-1 169.2499999999999716 43.24999999999999289 189.9999899999999684 #
point $-1 166.7499999999999716 43.24999999999999289 189.9999899999999684 #
face $-1 $86 $101 $2 $-1 $102 reversed single #
loop $-1 $-1 $103 $36 #
plane-surface $-1 162.7499999999999716 44.74999999999999289 192.0000000000000568 -1 0 0 0 0 0.999999999999999889 forward_v I I I I #
coedge $-1 $104 $105 $106 $107 reversed $37 $-1 #
coedge $-1 $108 $39 $41 $73 forward $20 $-1 #
coedge $-1 $39 $108 $104 $109 reversed $20 $-1 #
coedge $-1 $106 $42 $39 $71 forward $32 $-1 #
edge $-1 $74 -2.875000000000000444 $110 -0.3750000000000000555 $70 $111 forward 7 unknown #
coedge $-1 $41 $40 $112 $113 reversed $12 $-1 #
edge $-1 $74 2.000010000000088883 $114 3.199999999999989075 $41 $115 forward 7 unknown #
vertex $-1 $71 $116 #
straight-curve $-1 165.6249999999999716 40.74999999999999289 189.9999899999999684 -0.999999999999999889 0 0 I I #
coedge $-1 $48 $112 $44 $77 forward $82 $-1 #
edge $-1 $78 -2.500000000000000444 $55 0 $44 $117 forward 7 unknown #
vertex $-1 $45 $118 #
straight-curve $-1 166.7499999999999716 40.74999999999999289 192.0000000000000568 0 0 -0.999999999999999889 I I #
point $-1 166.7499999999999716 40.74999999999999289 189.9999899999999684 #
coedge $-1 $119 $48 $51 $85 forward $82 $-1 #
loop $-1 $-1 $120 $121 #
straight-curve $-1 169.2499999999999716 43.24999999999999289 188.8000000000000682 0.999999999999999889 0 0 I I #
coedge $-1 $51 $50 $122 $123 forward $52 $-1 #
edge $-1 $53 -1.500000000000000222 $124 0 $51 $125 forward 7 unknown #
face $-1 $126 $52 $2 $-1 $127 reversed single #
point $-1 169.2499999999999716 43.24999999999999289 188.8000000000000682 #
point $-1 166.7499999999999716 43.24999999999999289 188.8000000000000682 #
coedge $-1 $57 $128 $129 $130 forward $32 $-1 #
coedge $-1 $131 $122 $57 $91 reversed $132 $-1 #
edge $-1 $133 -0.875000000000000111 $92 1.625000000000000222 $57 $134 forward 7 unknown #
vertex $-1 $58 $135 #
straight-curve $-1 169.2499999999999716 43.62499999999999289 189.9999899999999684 0 -0.999999999999999889 0 I I #
coedge $-1 $94 $94 $136 $137 forward $59 $-1 #
coedge $-1 $128 $60 $138 $139 forward $32 $-1 #
coedge $-1 $60 $106 $103 $140 forward $32 $-1 #
coedge $-1 $141 $142 $60 $98 reversed $101 $-1 #
edge $-1 $143 -2.875000000000000444 $144 -0.3750000000000000555 $60 $145 forward 7 unknown #
face $-1 $146 $147 $2 $-1 $148 forward single #
plane-surface $-1 166 43.99999999999999289 189.9999899999999684 0 0 1 0.999999999999999889 0 0 forward_v I I I I #
loop $-1 $-1 $97 $64 #
plane-surface $-1 165.2499999999999716 44.74999999999999289 192.0000000000000568 0 1 0 0 0 0.999999999999999889 forward_v I I I I #
coedge $-1 $149 $150 $96 $140 reversed $65 $-1 #
coedge $-1 $151 $67 $69 $109 forward $37 $-1 #
coedge $-1 $67 $151 $149 $152 reversed $37 $-1 #
coedge $-1 $96 $70 $67 $107 forward $32 $-1 #
edge $-1 $110 -0.875000000000000111 $153 1.625000000000000222 $106 $154 forward 7 unknown #
coedge $-1 $69 $68 $155 $156 reversed $20 $-1 #
edge $-1 $110 2.000010000000088883 $157 3.199999999999989075 $69 $158 forward 7 unknown #
vertex $-1 $107 $159 #
straight-curve $-1 165.2499999999999716 43.62499999999999289 189.9999899999999684 0 0.999999999999999889 0 I I #
coedge $-1 $76 $155 $72 $113 forward $82 $-1 #
edge $-1 $114 -1.500000000000000222 $78 0 $72 $160 forward 7 unknown #
vertex $-1 $73 $161 #
straight-curve $-1 165.2499999999999716 40.74999999999999289 192.0000000000000568 0 0 -0.999999999999999889 I I #
point $-1 165.2499999999999716 40.74999999999999289 189.9999899999999684 #
straight-curve $-1 166.7499999999999716 43.24999999999999289 188.8000000000000682 0 0.999999999999999889 0 I I #
point $-1 166.7499999999999716 40.74999999999999289 188.8000000000000682 #
coedge $-1 $162 $81 $163 $164 forward $82 $-1 #
coedge $-1 $165 $166 $167 $168 forward $82 $-1 #
face $-1 $169 $82 $2 $-1 $170 forward single #
coedge $-1 $90 $163 $84 $123 reversed $132 $-1 #
edge $-1 $92 2.000010000000088883 $124 3.199999999999989075 $122 $171 forward 7 unknown #
vertex $-1 $123 $172 #
straight-curve $-1 169.2499999999999716 44.74999999999999289 188.8000000000000682 0 0.999999999999999889 0 I I #
face $-1 $173 $132 $2 $-1 $174 reversed single #
plane-surface $-1 169.2499999999999716 43.24999999999999289 192.0000000000000568 1 0 0 0 0 -0.999999999999999889 forward_v I I I I #
coedge $-1 $89 $95 $175 $176 forward $32 $-1 #
coedge $-1 $177 $178 $89 $130 reversed $179 $-1 #
edge $-1 $180 -2.875000000000000444 $133 -0.3750000000000000555 $89 $181 forward 7 unknown #
coedge $-1 $163 $90 $178 $182 forward $132 $-1 #
loop $-1 $-1 $90 $126 #
vertex $-1 $91 $183 #
straight-curve $-1 167.6249999999999716 44.74999999999999289 189.9999899999999684 0.999999999999999889 0 0 I I #
point $-1 169.2499999999999716 44.74999999999999289 189.9999899999999684 #
coedge $-1 $136 $136 $94 $137 reversed $184 $-1 #
edge $-1 $185 0 $185 6.283185307179586232 $94 $186 forward 7 unknown #
coedge $-1 $187 $188 $95 $139 reversed $189 $-1 #
edge $-1 $144 -0.875000000000000111 $190 1.625000000000000222 $95 $191 forward 7 unknown #
edge $-1 $153 -1.125000000000000222 $143 0.3750000000000000555 $96 $192 forward 7 unknown #
coedge $-1 $167 $97 $150 $193 forward $101 $-1 #
coedge $-1 $97 $167 $187 $194 reversed $101 $-1 #
vertex $-1 $98 $195 #
vertex $-1 $98 $196 #
straight-curve $-1 165.6249999999999716 44.74999999999999289 189.9999899999999684 0.999999999999999889 0 0 I I #
face $-1 $-1 $197 $2 $-1 $198 forward single #
loop $-1 $199 $200 $99 #
cone-surface $-1 166 43.99999999999999289 183.2999899999999798 0 0 1 2.18000000000000016 0 0 1 I I 0 1 2.18000000000000016 forward I I I I #
coedge $-1 $201 $103 $105 $152 forward $65 $-1 #
coedge $-1 $103 $201 $141 $193 reversed $65 $-1 #
coedge $-1 $105 $104 $202 $203 reversed $37 $-1 #
edge $-1 $153 2.000010000000088883 $204 3.199999999999989075 $105 $205 forward 7 unknown #
vertex $-1 $140 $206 #
straight-curve $-1 164.3749999999999716 43.24999999999999289 189.9999899999999684 -0.999999999999999889 0 0 I I #
coedge $-1 $112 $202 $108 $156 forward $82 $-1 #
edge $-1 $157 -2.500000000000000444 $114 0 $108 $207 forward 7 unknown #
vertex $-1 $109 $208 #
straight-curve $-1 165.2499999999999716 43.24999999999999289 192.0000000000000568 0 0 -0.999999999999999889 I I #
point $-1 165.2499999999999716 43.24999999999999289 189.9999899999999684 #
straight-curve $-1 166.7499999999999716 40.74999999999999289 188.8000000000000682 0.999999999999999889 0 0 I I #
point $-1 165.2499999999999716 40.74999999999999289 188.8000000000000682 #
coedge $-1 $209 $119 $210 $211 forward $82 $-1 #
coedge $-1 $122 $131 $119 $164 reversed $132 $-1 #
edge $-1 $124 -2.500000000000000444 $212 0 $163 $213 forward 7 unknown #
coedge $-1 $202 $120 $201 $214 forward $82 $-1 #
coedge $-1 $120 $209 $215 $216 forward $82 $-1 #
coedge $-1 $142 $141 $120 $168 reversed $101 $-1 #
edge $-1 $217 -2.500000000000000444 $218 0 $167 $219 forward 7 unknown #
face $-1 $220 $221 $2 $-1 $222 forward single #
plane-surface $-1 165.2499999999999716 44.74999999999999289 188.8000000000000682 0 0 1 0.999999999999999889 0 0 forward_v I I I I #
straight-curve $-1 169.2499999999999716 44.74999999999999289 192.0000000000000568 0 0 -0.999999999999999889 I I #
point $-1 169.2499999999999716 44.74999999999999289 188.8000000000000682 #
face $-1 $223 $179 $2 $-1 $224 reversed single #
plane-surface $-1 169.2499999999999716 44.74999999999999289 192.0000000000000568 0 1 0 0 0 0.999999999999999889 forward_v I I I I #
coedge $-1 $225 $226 $128 $176 reversed $227 $-1 #
edge $-1 $190 -1.125000000000000222 $180 0.3750000000000000555 $128 $228 forward 7 unknown #
coedge $-1 $210 $129 $226 $229 forward $179 $-1 #
coedge $-1 $129 $210 $131 $182 reversed $179 $-1 #
loop $-1 $-1 $129 $173 #
vertex $-1 $130 $230 #
straight-curve $-1 166.7499999999999716 44.37499999999999289 189.9999899999999684 0 -0.999999999999999889 0 I I #
edge $-1 $133 2.000010000000088883 $212 3.199999999999989075 $178 $231 forward 7 unknown #
point $-1 166.7499999999999716 44.74999999999999289 189.9999899999999684 #
loop $-1 $-1 $136 $220 #
vertex $-1 $137 $232 #
ellipse-curve $-1 166 43.99999999999999289 189.9999899999999684 0 0 1 4.499999999999999112 0 0 1 I I #
coedge $-1 $215 $138 $142 $194 forward $189 $-1 #
coedge $-1 $138 $215 $225 $233 reversed $189 $-1 #
loop $-1 $-1 $138 $234 #
vertex $-1 $176 $235 #
straight-curve $-1 165.2499999999999716 45.62499999999999289 189.9999899999999684 0 0.999999999999999889 0 I I #
straight-curve $-1 162.7499999999999716 44.37499999999999289 189.9999899999999684 0 0.999999999999999889 0 I I #
edge $-1 $143 2.000010000000088883 $218 3.199999999999989075 $150 $236 forward 7 unknown #
edge $-1 $144 2.000010000000088883 $217 3.199999999999989075 $142 $237 forward 7 unknown #
point $-1 162.7499999999999716 44.74999999999999289 189.9999899999999684 #
point $-1 165.2499999999999716 44.74999999999999289 189.9999899999999684 #
loop $-1 $-1 $238 $146 #
plane-surface $-1 166 43.99999999999999289 179.2999899999999798 0 0 -1 -0.999999999999999889 0 0 forward_v I I I I #
loop $-1 $-1 $239 $99 #
coedge $-1 $200 $200 $238 $240 reversed $147 $-1 #
coedge $-1 $150 $149 $165 $214 reversed $65 $-1 #
coedge $-1 $155 $165 $151 $203 forward $82 $-1 #
edge $-1 $204 -2.500000000000000444 $157 0 $151 $241 forward 7 unknown #
vertex $-1 $152 $242 #
straight-curve $-1 162.7499999999999716 43.24999999999999289 192.0000000000000568 0 0 -0.999999999999999889 I I #
point $-1 162.7499999999999716 43.24999999999999289 189.9999899999999684 #
straight-curve $-1 165.2499999999999716 40.74999999999999289 188.8000000000000682 0 -0.999999999999999889 0 I I #
point $-1 165.2499999999999716 43.24999999999999289 188.8000000000000682 #
coedge $-1 $166 $162 $243 $244 forward $82 $-1 #
coedge $-1 $178 $177 $162 $211 reversed $179 $-1 #
edge $-1 $212 -2.500000000000000444 $245 0 $210 $246 forward 7 unknown #
vertex $-1 $182 $247 #
straight-curve $-1 166.7499999999999716 44.74999999999999289 188.8000000000000682 -0.999999999999999889 0 0 I I #
edge $-1 $218 -1.500000000000000222 $204 0 $201 $248 forward 7 unknown #
coedge $-1 $188 $187 $166 $216 reversed $189 $-1 #
edge $-1 $249 -2.500000000000000444 $217 0 $215 $250 forward 7 unknown #
vertex $-1 $194 $251 #
vertex $-1 $193 $252 #
straight-curve $-1 162.7499999999999716 44.74999999999999289 188.8000000000000682 -0.999999999999999889 0 0 I I #
face $-1 $61 $253 $2 $-1 $254 forward single #
loop $-1 $255 $256 $169 #
plane-surface $-1 166 43.99999999999999289 187.2999899999999798 0 0 -1 -0.999999999999999889 0 0 forward_v I I I I #
face $-1 $234 $227 $2 $-1 $257 reversed single #
plane-surface $-1 166.7499999999999716 44.74999999999999289 192.0000000000000568 1 0 0 0 0 -0.999999999999999889 forward_v I I I I #
coedge $-1 $243 $175 $188 $233 forward $227 $-1 #
coedge $-1 $175 $243 $177 $229 reversed $227 $-1 #
loop $-1 $-1 $175 $223 #
straight-curve $-1 166.3749999999999716 47.24999999999999289 189.9999899999999684 0.999999999999999889 0 0 I I #
edge $-1 $180 2.000010000000088883 $245 3.199999999999989075 $226 $258 forward 7 unknown #
point $-1 166.7499999999999716 47.24999999999999289 189.9999899999999684 #
straight-curve $-1 166.7499999999999716 44.74999999999999289 192.0000000000000568 0 0 -0.999999999999999889 I I #
point $-1 170.5 43.99999999999999289 189.9999899999999684 #
edge $-1 $190 2.000010000000088883 $249 3.199999999999989075 $188 $259 forward 7 unknown #
face $-1 $121 $189 $2 $-1 $260 reversed single #
point $-1 165.2499999999999716 47.24999999999999289 189.9999899999999684 #
straight-curve $-1 162.7499999999999716 44.74999999999999289 192.0000000000000568 0 0 -0.999999999999999889 I I #
straight-curve $-1 165.2499999999999716 44.74999999999999289 192.0000000000000568 0 0 -0.999999999999999889 I I #
coedge $-1 $238 $238 $200 $240 forward $197 $-1 #
coedge $-1 $239 $239 $261 $262 forward $199 $-1 #
edge $-1 $263 0 $263 6.283185307179586232 $238 $264 forward 7 unknown #
straight-curve $-1 165.2499999999999716 43.24999999999999289 188.8000000000000682 0.999999999999999889 0 0 I I #
point $-1 162.7499999999999716 43.24999999999999289 188.8000000000000682 #
coedge $-1 $226 $225 $209 $244 reversed $227 $-1 #
edge $-1 $245 -1.500000000000000222 $249 0 $243 $265 forward 7 unknown #
vertex $-1 $229 $266 #
straight-curve $-1 166.7499999999999716 47.24999999999999289 188.8000000000000682 0 0.999999999999999889 0 I I #
point $-1 166.7499999999999716 44.74999999999999289 188.8000000000000682 #
straight-curve $-1 162.7499999999999716 43.24999999999999289 188.8000000000000682 0 -0.999999999999999889 0 I I #
vertex $-1 $233 $267 #
straight-curve $-1 165.2499999999999716 44.74999999999999289 188.8000000000000682 0 -0.999999999999999889 0 I I #
point $-1 165.2499999999999716 44.74999999999999289 188.8000000000000682 #
point $-1 162.7499999999999716 44.74999999999999289 188.8000000000000682 #
loop $-1 $184 $268 $220 #
cone-surface $-1 166 43.99999999999999289 188.6499899999999741 0 0 1 4.499999999999999112 0 0 1 I I 0 1 4.499999999999999112 forward I I I I #
loop $-1 $-1 $261 $169 #
coedge $-1 $256 $256 $268 $269 forward $221 $-1 #
plane-surface $-1 166.7499999999999716 47.24999999999999289 192.0000000000000568 0 1 0 0 0 0.999999999999999889 forward_v I I I I #
straight-curve $-1 166.7499999999999716 47.24999999999999289 192.0000000000000568 0 0 -0.999999999999999889 I I #
straight-curve $-1 165.2499999999999716 47.24999999999999289 192.0000000000000568 0 0 -0.999999999999999889 I I #
plane-surface $-1 165.2499999999999716 47.24999999999999289 192.0000000000000568 -1 0 0 0 0 0.999999999999999889 forward_v I I I I #
coedge $-1 $261 $261 $239 $262 reversed $255 $-1 #
edge $-1 $270 -6.283185307179586232 $270 -0 $239 $271 reversed 7 unknown #
vertex $-1 $240 $272 #
ellipse-curve $-1 166 43.99999999999999289 179.2999899999999798 0 0 -1 2.18000000000000016 0 0 1 I I #
straight-curve $-1 165.2499999999999716 47.24999999999999289 188.8000000000000682 -0.999999999999999889 0 0 I I #
point $-1 166.7499999999999716 47.24999999999999289 188.8000000000000682 #
point $-1 165.2499999999999716 47.24999999999999289 188.8000000000000682 #
coedge $-1 $268 $268 $256 $269 reversed $253 $-1 #
edge $-1 $273 0 $273 6.283185307179586232 $256 $274 forward 7 unknown #
vertex $-1 $262 $275 #
ellipse-curve $-1 166 43.99999999999999289 187.2999899999999798 0 0 1 2.18000000000000016 0 0 1 I I #
point $-1 168.1800000000000068 43.99999999999999289 179.2999899999999798 #
vertex $-1 $269 $276 #
ellipse-curve $-1 166 43.99999999999999289 187.2999899999999798 0 0 -1 4.499999999999999112 0 0 1 I I #
point $-1 168.1800000000000068 43.99999999999999289 187.2999899999999798 #
point $-1 170.5 43.99999999999999289 187.2999899999999798 #
End-of-ACIS-data 