600 0 1 0           
85 GICL ACIS Healer - Source: /gicl/data5/repository/CMU/scanner/support_frame.sat - 6 0 18 ACIS 6.0.3 Solaris 24 Sat Apr 13 00:31:13 2002 
1 9.999999999999999547e-07 1.000000000000000036e-10 
body $-1 $1 $-1 $-1 #
lump $-1 $-1 $2 $0 #
shell $-1 $-1 $-1 $3 $-1 $1 #
face $-1 $4 $5 $2 $-1 $6 reversed single #
face $-1 $7 $8 $2 $-1 $9 reversed single #
loop $-1 $10 $11 $3 #
cone-surface $-1 134.0000000109608891 76.0000000109607754 181.0000000000000568 0 0 -1 -2.180000000000000604 0 0 1 I I 0 1 2.180000000000000604 forward I I I I #
face $-1 $12 $13 $2 $-1 $14 reversed single #
loop $-1 $-1 $15 $4 #
plane-surface $-1 134.0000000109608891 76.0000000109607754 177.0000000000000568 0 0 -1 -1 0 0 forward_v I I I I #
loop $-1 $-1 $16 $3 #
coedge $-1 $11 $11 $17 $18 reversed $5 $-1 #
face $-1 $19 $20 $2 $-1 $21 reversed single #
loop $-1 $22 $23 $7 #
cone-surface $-1 166.0000000109609459 44.00000001096083224 181.0000000000000568 0 0 -1 -2.180000000000000604 0 0 1 I I 0 1 2.180000000000000604 forward I I I I #
coedge $-1 $15 $15 $16 $24 reversed $8 $-1 #
coedge $-1 $16 $16 $15 $24 forward $10 $-1 #
coedge $-1 $17 $17 $11 $18 forward $25 $-1 #
edge $-1 $26 -3.141592653589799333 $26 3.141592653589786899 $17 $27 forward 7 unknown #
face $-1 $28 $29 $2 $-1 $30 forward single #
loop $-1 $-1 $31 $12 #
plane-surface $-1 166.0000000109609459 44.00000001096083224 177.0000000000000568 0 0 -1 -1 0 0 forward_v I I I I #
loop $-1 $-1 $32 $7 #
coedge $-1 $23 $23 $33 $34 reversed $13 $-1 #
edge $-1 $35 0 $35 6.283185307179586232 $15 $36 forward 7 unknown #
loop $-1 $37 $17 $38 #
vertex $-1 $18 $39 #
ellipse-curve $-1 134.0000000109608891 76.0000000109607754 185.0000000000000568 0 0 -1 -2.180000000000000604 0 0 1 I I #
face $-1 $40 $41 $2 $-1 $42 reversed single #
loop $-1 $-1 $43 $19 #
cone-surface $-1 133 35.00000000000000711 192.00001000000006 0 0 -1 -5.656854249492378806 -5.656854249492378806 0 1 I I 0 -1 7.999999999999998224 forward I I I I #
coedge $-1 $31 $31 $32 $44 reversed $20 $-1 #
coedge $-1 $32 $32 $31 $44 forward $22 $-1 #
coedge $-1 $33 $33 $23 $34 forward $37 $-1 #
edge $-1 $45 -3.141592653589799333 $45 3.141592653589786899 $33 $46 forward 7 unknown #
vertex $-1 $24 $47 #
ellipse-curve $-1 134.0000000109608891 76.0000000109607754 177.0000000000000568 0 0 -1 -2.180000000000000604 0 0 1 I I #
loop $-1 $48 $33 $38 #
face $-1 $49 $25 $2 $-1 $50 reversed single #
point $-1 136.1800000109608959 76.00000001096078961 185.0000000000000568 #
face $-1 $38 $51 $2 $-1 $52 forward single #
loop $-1 $-1 $53 $28 #
plane-surface $-1 125 93 192.00001000000006 -1 0 0 0 0 0.999999999999999889 forward_v I I I I #
coedge $-1 $54 $55 $53 $56 forward $29 $-1 #
edge $-1 $57 0 $57 6.283185307179586232 $31 $58 forward 7 unknown #
vertex $-1 $34 $59 #
ellipse-curve $-1 166.0000000109609459 44.00000001096083224 185.0000000000000568 0 0 -1 -2.180000000000000604 0 0 1 I I #
point $-1 131.8200000109608823 76.0000000109607754 177.0000000000000568 #
loop $-1 $60 $61 $38 #
face $-1 $62 $63 $2 $-1 $64 reversed single #
plane-surface $-1 175 27.00000000000000711 185.0000000000000568 0 0 -1 -0.999999999999999889 0 0 forward_v I I I I #
loop $-1 $-1 $65 $40 #
cone-surface $-1 167 35.00000000000000711 192.00001000000006 0 0 -1 5.656854249492378806 -5.656854249492378806 0 1 I I 0 -1 7.999999999999998224 forward I I I I #
coedge $-1 $66 $67 $43 $56 reversed $41 $-1 #
coedge $-1 $68 $43 $69 $70 reversed $29 $-1 #
coedge $-1 $43 $68 $61 $71 reversed $29 $-1 #
edge $-1 $72 -7.000010000000004062 $73 -2.000009999999719401 $53 $74 forward 7 unknown #
vertex $-1 $44 $75 #
ellipse-curve $-1 166.0000000109609459 44.00000001096083224 177.0000000000000568 0 0 -1 -2.180000000000000604 0 0 1 I I #
point $-1 168.1800000109609527 44.00000001096084645 185.0000000000000568 #
loop $-1 $-1 $76 $38 #
coedge $-1 $77 $78 $55 $71 forward $48 $-1 #
face $-1 $79 $80 $2 $-1 $81 forward single #
loop $-1 $-1 $82 $49 #
plane-surface $-1 175 27.00000000000000711 192.00001000000006 1 0 0 0 0 -0.999999999999999889 forward_v I I I I #
coedge $-1 $83 $84 $85 $86 forward $51 $-1 #
coedge $-1 $87 $53 $78 $88 reversed $41 $-1 #
coedge $-1 $53 $87 $89 $90 reversed $41 $-1 #
coedge $-1 $55 $54 $91 $92 forward $29 $-1 #
coedge $-1 $89 $93 $54 $70 forward $94 $-1 #
edge $-1 $95 -0.785398163397448279 $73 0.785398163397448279 $69 $96 forward 7 unknown #
edge $-1 $72 -0.785398163397448279 $97 0.785398163397448279 $61 $98 forward 7 unknown #
vertex $-1 $71 $99 #
vertex $-1 $90 $100 #
straight-curve $-1 125 35.00000000000000711 192.00001000000006 0 0 0.999999999999999889 F -31.80001000000001454 F 22.79999000000029241 #
point $-1 163.8200000109609391 44.00000001096083224 177.0000000000000568 #
coedge $-1 $76 $76 $101 $102 reversed $60 $-1 #
coedge $-1 $103 $61 $104 $105 forward $48 $-1 #
coedge $-1 $61 $106 $66 $88 forward $48 $-1 #
face $-1 $107 $108 $2 $-1 $109 forward single #
loop $-1 $-1 $110 $62 #
cone-surface $-1 167 85 192.00001000000006 0 0 -1 5.656854249492378806 5.656854249492378806 0 1 I I 0 -1 7.999999999999998224 forward I I I I #
coedge $-1 $111 $112 $113 $114 reversed $63 $-1 #
coedge $-1 $113 $65 $115 $116 reversed $51 $-1 #
coedge $-1 $65 $113 $103 $117 reversed $51 $-1 #
coedge $-1 $104 $118 $65 $86 reversed $119 $-1 #
edge $-1 $120 -7.000010000000004062 $121 -2.000009999999719401 $85 $122 forward 7 unknown #
coedge $-1 $67 $66 $123 $124 reversed $41 $-1 #
edge $-1 $125 8.000000000000001776 $72 58 $66 $126 forward 7 unknown #
coedge $-1 $127 $69 $67 $90 forward $94 $-1 #
edge $-1 $73 -41.50000000000004263 $128 8.499999999999959144 $89 $129 forward 7 unknown #
coedge $-1 $118 $104 $68 $92 reversed $119 $-1 #
edge $-1 $95 2.000009999999719401 $97 7.000010000000004062 $91 $130 forward 7 unknown #
coedge $-1 $69 $115 $118 $131 forward $94 $-1 #
loop $-1 $132 $133 $134 #
vertex $-1 $70 $135 #
ellipse-curve $-1 133 35.00000000000000711 190.0000000000003411 0 0 -1 -5.656854249492378806 -5.656854249492378806 0 1 I I #
vertex $-1 $105 $136 #
ellipse-curve $-1 133 35.00000000000000711 185.0000000000000568 0 0 1 -5.656854249492378806 -5.656854249492378806 0 1 I I #
point $-1 125 35.00000000000000711 185.0000000000000568 #
point $-1 125 35.00000000000000711 190.0000000000003411 #
coedge $-1 $101 $101 $76 $102 forward $137 $-1 #
edge $-1 $138 -3.141592653589800221 $138 3.141592653589786011 $101 $139 forward 7 unknown #
coedge $-1 $140 $77 $84 $117 forward $48 $-1 #
coedge $-1 $91 $85 $77 $105 reversed $119 $-1 #
edge $-1 $97 8.000000000000001776 $120 42.00000000000000711 $104 $141 forward 7 unknown #
coedge $-1 $78 $142 $143 $144 forward $48 $-1 #
face $-1 $145 $146 $2 $-1 $147 reversed single #
loop $-1 $-1 $148 $79 #
cone-surface $-1 133 85 192.00001000000006 0 0 -1 -5.656854249492378806 5.656854249492378806 0 1 I I 0 -1 7.999999999999998224 forward I I I I #
coedge $-1 $149 $150 $151 $152 forward $80 $-1 #
coedge $-1 $151 $82 $133 $153 reversed $63 $-1 #
coedge $-1 $82 $151 $140 $154 reversed $63 $-1 #
coedge $-1 $84 $83 $82 $114 forward $51 $-1 #
edge $-1 $155 2.000009999999719401 $156 7.000010000000004062 $82 $157 forward 7 unknown #
coedge $-1 $93 $133 $83 $116 forward $94 $-1 #
edge $-1 $155 -0.785398163397448279 $121 0.785398163397448279 $115 $158 forward 7 unknown #
edge $-1 $120 -0.785398163397448279 $156 0.785398163397448279 $103 $159 forward 7 unknown #
coedge $-1 $85 $91 $93 $131 reversed $119 $-1 #
loop $-1 $-1 $91 $145 #
vertex $-1 $117 $160 #
vertex $-1 $131 $161 #
straight-curve $-1 167 27.00000000000000711 192.00001000000006 0 0 0.999999999999999889 F -31.80001000000001454 F 22.79999000000029241 #
coedge $-1 $143 $162 $87 $124 forward $108 $-1 #
edge $-1 $128 2.000009999999719401 $125 7.000010000000004062 $87 $163 forward 7 unknown #
vertex $-1 $88 $164 #
straight-curve $-1 125 93 185.0000000000000568 0 -0.999999999999999889 0 I I #
coedge $-1 $165 $89 $162 $166 forward $94 $-1 #
vertex $-1 $166 $167 #
straight-curve $-1 125 76.50000000000004263 190.0000000000003411 0 0.999999999999999889 0 I I #
straight-curve $-1 133 27.00000000000000711 192.00001000000006 0 0 -0.999999999999999889 F -22.79999000000029241 F 31.80001000000001454 #
edge $-1 $121 -29.49999999999991829 $95 4.500000000000086153 $93 $168 forward 7 unknown #
loop $-1 $-1 $169 $134 #
coedge $-1 $115 $170 $111 $153 forward $94 $-1 #
face $-1 $171 $94 $2 $-1 $172 forward single #
point $-1 133 27.00000000000001066 190.0000000000003411 #
point $-1 133 27.00000000000000711 185.0000000000000568 #
loop $-1 $173 $101 $174 #
vertex $-1 $102 $175 #
ellipse-curve $-1 150.0000000000001137 60.00000000000007105 185.0000000000000568 0 0 1 15 0 0 1 I I #
coedge $-1 $176 $103 $112 $154 forward $48 $-1 #
straight-curve $-1 125 27.00000000000000711 185.0000000000000568 0.999999999999999889 0 0 I I #
coedge $-1 $106 $176 $177 $178 forward $48 $-1 #
coedge $-1 $148 $123 $106 $144 reversed $108 $-1 #
edge $-1 $179 -0.785398163397448279 $125 0.785398163397448279 $106 $180 forward 7 unknown #
face $-1 $181 $119 $2 $-1 $182 reversed single #
loop $-1 $-1 $183 $107 #
plane-surface $-1 175 93 192.00001000000006 0 1 0 0 0 0.999999999999999889 forward_v I I I I #
coedge $-1 $162 $143 $184 $185 forward $108 $-1 #
coedge $-1 $186 $110 $170 $187 reversed $80 $-1 #
coedge $-1 $110 $186 $176 $188 reversed $80 $-1 #
coedge $-1 $112 $111 $110 $152 reversed $63 $-1 #
edge $-1 $189 -7.000010000000004062 $190 -2.000009999999719401 $151 $191 forward 7 unknown #
edge $-1 $190 -41.49999999999995026 $155 8.500000000000051514 $133 $192 forward 7 unknown #
edge $-1 $156 8.000000000000001776 $189 58 $112 $193 forward 7 unknown #
vertex $-1 $116 $194 #
vertex $-1 $154 $195 #
straight-curve $-1 175 35.00000000000000711 192.00001000000006 0 0 -0.999999999999999889 F -22.79999000000029241 F 31.80001000000001454 #
ellipse-curve $-1 167 35.00000000000000711 190.0000000000003411 0 0 -1 5.656854249492378806 -5.656854249492378806 0 1 I I #
ellipse-curve $-1 167 35.00000000000000711 185.0000000000000568 0 0 1 5.656854249492378806 -5.656854249492378806 0 1 I I #
point $-1 167 27.00000000000000711 185.0000000000000568 #
point $-1 167 27.00000000000001066 190.0000000000003411 #
coedge $-1 $123 $148 $127 $166 reversed $108 $-1 #
straight-curve $-1 125 85 192.00001000000006 0 0 -0.999999999999999889 F -22.79999000000029241 F 31.80001000000001454 #
point $-1 125 85 185.0000000000000568 #
coedge $-1 $170 $127 $196 $197 forward $94 $-1 #
edge $-1 $128 -0.785398163397448279 $198 0.785398163397448279 $127 $199 forward 7 unknown #
point $-1 125 85 190.0000000000003411 #
straight-curve $-1 137.5000000000000853 27.00000000000001066 190.0000000000003411 -0.999999999999999889 0 0 I I #
coedge $-1 $200 $201 $202 $203 reversed $132 $-1 #
coedge $-1 $133 $165 $149 $187 forward $94 $-1 #
face $-1 $204 $205 $2 $-1 $206 forward single #
plane-surface $-1 150.0000000000001705 60.00000000000010658 190.0000000000003411 0 0 1 0.999999999999999889 0 0 forward_v I I I I #
loop $-1 $-1 $207 $174 #
face $-1 $134 $137 $2 $-1 $208 reversed single #
point $-1 135.0000000000001137 60.00000000000017764 185.0000000000000568 #
coedge $-1 $142 $140 $150 $188 forward $48 $-1 #
coedge $-1 $183 $184 $142 $178 reversed $146 $-1 #
edge $-1 $209 8.000000000000001776 $179 42.00000000000000711 $177 $210 forward 7 unknown #
vertex $-1 $144 $211 #
ellipse-curve $-1 133 85 185.0000000000000568 0 0 1 -5.656854249492378806 5.656854249492378806 0 1 I I #
face $-1 $212 $213 $2 $-1 $214 forward single #
plane-surface $-1 125 27.00000000000000711 192.00001000000006 0 -1 0 0 0 -0.999999999999999889 forward_v I I I I #
coedge $-1 $196 $177 $186 $215 reversed $146 $-1 #
coedge $-1 $177 $196 $148 $185 reversed $146 $-1 #
edge $-1 $179 -7.000010000000004062 $198 -2.000009999999719401 $184 $216 forward 7 unknown #
coedge $-1 $150 $149 $183 $215 forward $80 $-1 #
edge $-1 $217 -0.785398163397448279 $190 0.785398163397448279 $170 $218 forward 7 unknown #
edge $-1 $189 -0.785398163397448279 $209 0.785398163397448279 $176 $219 forward 7 unknown #
vertex $-1 $188 $220 #
vertex $-1 $153 $221 #
straight-curve $-1 175 85 192.00001000000006 0 0 0.999999999999999889 F -31.80001000000001454 F 22.79999000000029241 #
straight-curve $-1 175 43.50000000000005684 190.0000000000003411 0 -0.999999999999999889 0 I I #
straight-curve $-1 175 27.00000000000000711 185.0000000000000568 0 0.999999999999999889 0 I I #
point $-1 175 35.00000000000000711 190.0000000000003411 #
point $-1 175 35.00000000000000711 185.0000000000000568 #
coedge $-1 $184 $183 $165 $197 reversed $146 $-1 #
edge $-1 $198 -29.50000000000008882 $217 4.499999999999915623 $165 $222 forward 7 unknown #
vertex $-1 $197 $223 #
ellipse-curve $-1 133 85 190.0000000000003411 0 0 -1 -5.656854249492378806 5.656854249492378806 0 1 I I #
coedge $-1 $224 $169 $225 $226 reversed $132 $-1 #
coedge $-1 $169 $224 $227 $228 reversed $132 $-1 #
coedge $-1 $229 $230 $169 $203 forward $231 $-1 #
edge $-1 $232 -43.58898943540661008 $233 43.58898943540661008 $202 $234 forward 7 unknown #
face $-1 $235 $236 $2 $-1 $237 forward single #
loop $-1 $238 $239 $171 #
plane-surface $-1 150.000000000000199 1.350031197944190101e-13 100.00000000000027 0 -1 0 0 0 -0.999999999999999889 forward_v I I I I #
coedge $-1 $207 $207 $240 $241 reversed $173 $-1 #
cone-surface $-1 150.0000000000001137 60.00000000000007105 175.0000000000000853 0 0 1 15 0 0 1 I I 0 1 15 forward I I I I #
vertex $-1 $178 $242 #
straight-curve $-1 175 93 185.0000000000000568 -0.999999999999999889 0 0 I I #
point $-1 133 93 185.0000000000000568 #
face $-1 $243 $244 $2 $-1 $245 reversed single #
loop $-1 $-1 $246 $181 #
cone-surface $-1 138.0000000000000568 39.99999999999999289 7.999999999999999112 0 0 1 -5.656854249492378806 -5.656854249492378806 0 1 I I 0 -1 7.999999999999998224 forward I I I I #
edge $-1 $217 2.000009999999719401 $209 7.000010000000004062 $183 $247 forward 7 unknown #
straight-curve $-1 133 93 192.00001000000006 0 0 0.999999999999999889 F -31.80001000000001454 F 22.79999000000029241 #
vertex $-1 $187 $248 #
ellipse-curve $-1 167 85 190.0000000000003411 0 0 -1 5.656854249492378806 5.656854249492378806 0 1 I I #
ellipse-curve $-1 167 85 185.0000000000000568 0 0 1 5.656854249492378806 5.656854249492378806 0 1 I I #
point $-1 175 85 185.0000000000000568 #
point $-1 175 85 190.0000000000003411 #
straight-curve $-1 162.5000000000000853 92.99999999999998579 190.0000000000003411 0.999999999999999889 0 0 I I #
point $-1 133 92.99999999999998579 190.0000000000003411 #
coedge $-1 $201 $200 $249 $250 reversed $132 $-1 #
coedge $-1 $251 $252 $200 $226 forward $236 $-1 #
edge $-1 $253 -60.00000000000000711 $232 60 $225 $254 forward 7 unknown #
coedge $-1 $255 $256 $201 $228 forward $257 $-1 #
edge $-1 $233 -60 $258 60.00000000000000711 $227 $259 forward 7 unknown #
coedge $-1 $260 $202 $256 $261 forward $231 $-1 #
coedge $-1 $202 $260 $251 $262 forward $231 $-1 #
loop $-1 $-1 $202 $263 #
vertex $-1 $203 $264 #
vertex $-1 $261 $265 #
straight-curve $-1 150.000000000000199 120.0000000000001279 190.0000000000003411 0.999999999999999889 0 0 I I #
face $-1 $263 $266 $2 $-1 $267 reversed single #
loop $-1 $-1 $225 $204 #
cone-surface $-1 150.000000000000199 60.000000000000135 100.00000000000027 0 1 0 0 0 100 1 I I 0 1 100 forward I I I I #
loop $-1 $-1 $249 $171 #
coedge $-1 $268 $269 $270 $271 forward $205 $-1 #
coedge $-1 $240 $240 $207 $241 forward $272 $-1 #
edge $-1 $273 0 $273 90.6683210585271695 $240 $274 forward 7 unknown #
point $-1 167 93 185.0000000000000568 #
face $-1 $275 $276 $2 $-1 $277 forward single #
loop $-1 $-1 $278 $212 #
plane-surface $-1 170.0000000000000568 31.99999999999999645 7.999999999999999112 0 -1 0 0 0 -0.999999999999999889 forward_v I I I I #
coedge $-1 $279 $280 $278 $281 forward $213 $-1 #
straight-curve $-1 167 93 192.00001000000006 0 0 -0.999999999999999889 F -22.79999000000029241 F 31.80001000000001454 #
point $-1 167 92.99999999999998579 190.0000000000003411 #
coedge $-1 $282 $283 $224 $250 forward $238 $-1 #
edge $-1 $258 -43.58898943540661008 $253 43.58898943540661008 $249 $284 forward 7 unknown #
coedge $-1 $285 $225 $230 $262 reversed $236 $-1 #
coedge $-1 $225 $285 $282 $286 reversed $236 $-1 #
vertex $-1 $286 $287 #
straight-curve $-1 106.411010564593596 60.000000000000135 190.0000000000003411 0 0.999999999999999889 0 I I #
coedge $-1 $288 $227 $283 $289 reversed $257 $-1 #
coedge $-1 $227 $288 $229 $261 reversed $257 $-1 #
loop $-1 $-1 $227 $290 #
vertex $-1 $228 $291 #
straight-curve $-1 193.5889894354068019 60.000000000000135 190.0000000000003411 0 -0.999999999999999889 0 I I #
coedge $-1 $230 $229 $292 $293 forward $231 $-1 #
edge $-1 $233 0.451026811796260918 $294 2.690565841793536972 $229 $295 forward 7 unknown #
edge $-1 $296 -2.690565841793536972 $232 -0.451026811796260918 $230 $295 forward 7 unknown #
face $-1 $290 $297 $2 $-1 $298 forward single #
point $-1 106.411010564593596 120.0000000000001279 190.0000000000003411 #
point $-1 193.5889894354068019 120.0000000000001279 190.0000000000003411 #
loop $-1 $299 $300 $235 #
plane-surface $-1 150.0000000000001421 60.00000000000012079 9.999999999999984013 0 0 1 0.999999999999999889 0 0 forward_v I I I I #
coedge $-1 $301 $239 $302 $303 forward $205 $-1 #
coedge $-1 $239 $301 $304 $305 forward $205 $-1 #
coedge $-1 $306 $307 $239 $271 reversed $308 $-1 #
edge $-1 $309 -39.50000000000012079 $310 -37.83034374675258249 $239 $311 forward 7 unknown #
loop $-1 $-1 $240 $312 #
vertex $-1 $241 $313 #
intcurve-curve $-1 forward { surfintcur full nubs 3 periodic 33 
	0 3 2.833464419172340598 2 5.666928838344681196 2 8.500393257517021794 2 11.33385767668936239 2 
	14.16716332363595399 2 17.00046897058254558 2 19.83377461752913717 2 22.66708026447573232 2 25.50038591149211697 2 
	28.33369155850850518 2 31.16699720552489339 2 34.0003028525412816 2 36.83376727172185383 2 39.66723169090243317 2 
	42.50069611008301251 2 45.33416052926358475 2 48.16762494845589515 2 51.00108936764821266 2 53.83455378684053017 2 
	56.66801820603284057 2 59.50132385303751903 2 62.33462950004219039 2 65.16793514704686174 2 68.00124079405154021 2 
	70.83454644100987707 2 73.66785208796821394 2 76.5011577349265508 2 79.33446338188487346 2 82.16792780104543681 2 
	85.00139222020601437 2 87.83485663936659193 2 90.6683210585271695 3 
	165.0000000000001137 60.00000000000007105 173.4846922741524224 
	165.0000000000001137 60.94448813972418577 173.4846922741524224 
	164.9093563018813882 61.92039427146620056 173.5033931965128602 
	164.5284868050803482 63.86003765096998563 173.5796220965035275 
	164.2383517739777403 64.82379501193693727 173.6370917648349348 
	163.4721714344722443 66.67085172095490009 173.7811123277835748 
	162.9955168845735045 67.55567088334952075 173.8676376602943776 
	161.8950062982761153 69.19132453923427306 174.0528201875196999 
	161.2710741253157209 69.94212931028501146 174.1512873849874836 
	159.9421665437031379 71.27103689188936642 174.3411313250028627 
	159.1913790501990604 71.89496493957159373 174.4392090354516256 
	157.5557144495236628 72.99549225413136355 174.6229754819451898 
	156.6708670862419694 73.47216587578179769 174.7084836181624894 
	154.823755422876701 74.23836738095788235 174.8504467300109866 
	153.8599721214510225 74.5285043938301186 174.9068926947282989 
	151.9203217969023001 74.90936581135724737 174.9816932464651984 
	150.9444352156489799 75.00000000000007105 174.9999999884085753 
	149.0555647843279985 75.00000000000007105 174.9999999881129042 
	148.0796782030572558 74.90936581135285621 174.9816932458631698 
	146.1400278784846876 74.52850439381384717 174.9068926935154025 
	145.1762445770525289 74.23836738093420706 174.8504467284935799 
	143.3291329136814056 73.47216587574413893 174.7084836160593966 
	142.4442855504004797 72.99549225408723885 174.6229754795604663 
	140.8086209497292316 71.89496493951612877 174.4392090325439142 
	140.0578334562285079 71.27103689182899871 174.3411313218538794 
	138.7289258746361611 69.94212931022843804 174.1512873814113789 
	138.1049937016891818 69.19132453918763304 174.0528201837428242 
	137.0044831154114604 67.55567088332155379 173.8676376561611789 
	136.5278285655190302 66.67085172093561596 173.7811123234948241 
	135.761648226021066 64.82379501193113924 173.6370917602948509 
	135.4715131949197087 63.86003765096884877 173.5796220918674919 
	135.0906436981193792 61.92039427146934116 173.5033931917505186 
	135.0000000000001137 60.94448813972692847 173.4846922693597264 
	135.0000000000001137 59.05551186026929855 173.4846922693597548 
	135.0906436981201182 58.07960572852298498 173.5033931917506607 
	135.4715131949234888 56.13996234901615878 173.5796220918682309 
	135.7616482260270629 55.17620498805045059 173.6370917602960731 
	136.5278285655308537 53.32914827904005506 173.7811123234970125 
	137.004483115426865 52.44432911665160191 173.8676376561639074 
	138.1049937017126865 50.8086754607816502 174.0528201837466042 
	138.7289258746642417 50.05787068973950937 174.151287381415699 
	140.0578334562607097 48.72896310814306275 174.3411313218581711 
	140.8086209497600976 48.10503506046047306 174.4392090325477227 
	142.4442855504275087 47.00450774589747027 174.6229754795631948 
	143.3291329137059051 46.52783412424415133 174.7084836160615566 
	145.1762445770711452 45.76163261905990254 174.8504467284947452 
	146.1400278784998648 45.47149560618250774 174.9068926935161414 
	148.079678203065157 45.0906341886465114 174.9816932458633119 
	149.0555647843319775 45.00000000000006395 174.9999999881129327 
	150.9444352156529874 45.00000000000007816 174.9999999884085753 
	151.9203217969102298 45.09063418864365502 174.9816932464650563 
	153.859972121466285 45.47149560617380359 174.9068926947275884 
	154.8237554228953456 45.76163261904830648 174.8504467300097929 
	156.6708670862665258 46.52783412423021758 174.7084836181603009 
	157.5557144495507487 47.00450774588421865 174.6229754819424613 
	159.1913790502299832 48.10503506045213129 174.4392090354478171 
	159.9421665437353965 48.72896310813891319 174.3411313249985426 
	161.2710741253438584 50.05787068974738219 174.1512873849831635 
	161.8950062982996769 50.80867546079677055 174.0528201875158913 
	162.9955168845889091 52.4443291166776504 173.8676376602916491 
	163.4721714344840677 53.32914827906974153 173.7811123277814147 
	164.2383517739837657 55.17620498808178553 173.6370917648337695 
	164.5284868050841283 56.13996234904532656 173.5796220965027317 
	164.9093563018821555 58.07960572854177173 173.5033931965126897 
	165.0000000000001137 59.05551186027987853 173.4846922741524224 
	165.0000000000001137 60.00000000000007105 173.4846922741524224 
	0.000999999999999999804 
	cone 150.0000000000001137 60.00000000000007105 175.0000000000000853 0 0 1 15 0 0 1 I I 0 1 15 forward I I I I 
	cone 150.0000000117397292 60.000000000000135 99.99999998826073977 0 1 0 -75 0 0 1 I I 0 -1 75 forward I I I I 
	nullbs 
	nullbs 
	I I 
	0 
	0 
	0 
	} I I #
face $-1 $314 $315 $2 $-1 $316 reversed single #
loop $-1 $-1 $317 $243 #
cone-surface $-1 162.0000000000000568 39.99999999999999289 7.999999999999999112 0 0 1 5.656854249492378806 -5.656854249492378806 0 1 I I 0 -1 7.999999999999998224 forward I I I I #
coedge $-1 $318 $319 $246 $281 reversed $244 $-1 #
coedge $-1 $320 $246 $321 $322 reversed $213 $-1 #
coedge $-1 $246 $320 $323 $324 reversed $213 $-1 #
edge $-1 $325 -7 $326 -1.999999999999985123 $278 $327 forward 7 unknown #
coedge $-1 $328 $249 $252 $286 forward $238 $-1 #
coedge $-1 $249 $328 $255 $289 forward $238 $-1 #
straight-curve $-1 150.000000000000199 1.350031197944190101e-13 190.0000000000003411 -0.999999999999999889 0 0 I I #
coedge $-1 $252 $251 $329 $330 forward $236 $-1 #
edge $-1 $253 0.451026811796260918 $331 2.690565841793536972 $282 $332 forward 7 unknown #
point $-1 106.411010564593596 1.350031197944190101e-13 190.0000000000003411 #
coedge $-1 $256 $255 $333 $334 forward $257 $-1 #
edge $-1 $335 -2.690565841793536972 $258 -0.451026811796260918 $283 $332 forward 7 unknown #
face $-1 $312 $257 $2 $-1 $237 forward single #
point $-1 193.5889894354068019 1.350031197944190101e-13 190.0000000000003411 #
coedge $-1 $333 $329 $260 $293 reversed $336 $-1 #
edge $-1 $294 -43.58898943540621218 $296 43.58898943540615534 $260 $337 forward 7 unknown #
vertex $-1 $293 $338 #
ellipse-curve $-1 150.000000000000199 120.0000000000001279 100.00000000000027 0 1 0 0 0 100 1 I I #
vertex $-1 $262 $339 #
loop $-1 $231 $340 $263 #
plane-surface $-1 150.000000000000199 120.0000000000001279 100.00000000000027 0 1 0 0 0 0.999999999999999889 forward_v I I I I #
loop $-1 $341 $342 $235 #
coedge $-1 $321 $343 $344 $345 forward $266 $-1 #
coedge $-1 $269 $268 $346 $347 forward $205 $-1 #
coedge $-1 $348 $349 $268 $303 reversed $350 $-1 #
edge $-1 $310 -1.43706473722701622 $351 4.578657391132686882 $268 $352 forward 7 unknown #
coedge $-1 $353 $354 $269 $305 reversed $355 $-1 #
edge $-1 $356 -9.999999999999944933 $309 10.00000000000005862 $269 $357 forward 7 unknown #
coedge $-1 $358 $270 $354 $359 forward $308 $-1 #
coedge $-1 $270 $358 $348 $360 reversed $308 $-1 #
loop $-1 $-1 $358 $361 #
vertex $-1 $305 $362 #
vertex $-1 $303 $363 #
straight-curve $-1 140.0000000000000853 1.350031197944190101e-13 63.50000000000016342 0 0 0.999999999999999889 I I #
face $-1 $-1 $350 $2 $-1 $364 reversed single #
point $-1 165.0000000000001137 60.00000000000007105 173.4846922741524224 #
face $-1 $365 $366 $2 $-1 $367 forward single #
loop $-1 $-1 $368 $275 #
plane-surface $-1 170.0000000000000568 87.99999999999998579 7.999999999999999112 1 0 0 0 0 -0.999999999999999889 forward_v I I I I #
coedge $-1 $369 $370 $368 $371 forward $276 $-1 #
coedge $-1 $372 $278 $373 $374 reversed $244 $-1 #
coedge $-1 $278 $372 $375 $376 reversed $244 $-1 #
coedge $-1 $280 $279 $377 $378 forward $213 $-1 #
coedge $-1 $375 $300 $279 $322 forward $266 $-1 #
edge $-1 $379 -0.785398163397448279 $326 0.785398163397448279 $321 $380 forward 7 unknown #
coedge $-1 $381 $373 $280 $324 forward $382 $-1 #
edge $-1 $325 -0.785398163397448279 $383 0.785398163397448279 $323 $384 forward 7 unknown #
vertex $-1 $324 $385 #
vertex $-1 $376 $386 #
straight-curve $-1 138.0000000000000568 31.99999999999999645 7.999999999999999112 0 0 -0.999999999999999889 F -31.79999999999999716 F 22.80000000000001492 #
coedge $-1 $283 $282 $387 $388 forward $238 $-1 #
coedge $-1 $292 $387 $285 $330 reversed $336 $-1 #
edge $-1 $296 -60 $331 60.00000000000000711 $285 $389 forward 7 unknown #
vertex $-1 $330 $390 #
ellipse-curve $-1 150.000000000000199 1.350031197944190101e-13 100.00000000000027 0 -1 0 0 0 100 1 I I #
coedge $-1 $387 $292 $288 $334 reversed $336 $-1 #
edge $-1 $335 -60.00000000000000711 $294 60 $288 $391 forward 7 unknown #
vertex $-1 $289 $392 #
loop $-1 $-1 $329 $235 #
straight-curve $-1 150.0000000000001705 120.0000000000001279 9.999999999999984013 -0.999999999999999889 0 0 I I #
point $-1 193.5889894354063756 120.0000000000001279 9.999999999999984013 #
point $-1 106.4110105645940223 120.0000000000001279 9.999999999999984013 #
coedge $-1 $393 $394 $395 $396 forward $297 $-1 #
loop $-1 $336 $397 $235 #
coedge $-1 $342 $342 $398 $399 forward $299 $-1 #
coedge $-1 $300 $400 $401 $402 forward $266 $-1 #
coedge $-1 $403 $377 $300 $345 reversed $404 $-1 #
edge $-1 $405 -33.99999999999993605 $379 6.000000000000064837 $300 $406 forward 7 unknown #
coedge $-1 $407 $408 $301 $347 reversed $409 $-1 #
edge $-1 $351 37.83034374991134285 $356 39.50000000000012079 $301 $410 forward 7 unknown #
coedge $-1 $411 $302 $307 $360 forward $350 $-1 #
coedge $-1 $302 $412 $407 $413 forward $350 $-1 #
loop $-1 $272 $348 $312 #
vertex $-1 $347 $414 #
ellipse-curve $-1 150.0000000117397292 1.350031197944190101e-13 99.99999998826073977 0 1 0 -75 0 0 1 I I #
coedge $-1 $415 $304 $408 $416 reversed $355 $-1 #
coedge $-1 $304 $415 $306 $359 reversed $355 $-1 #
loop $-1 $-1 $415 $417 #
vertex $-1 $305 $418 #
straight-curve $-1 150.0000000000001421 1.350031197944190101e-13 24.00000000000005329 -0.999999999999999889 0 0 I I #
coedge $-1 $307 $306 $419 $420 reversed $308 $-1 #
edge $-1 $309 -59.99999999999992184 $421 -11.18033988749884067 $306 $422 forward 7 unknown #
edge $-1 $310 -60.00000000000000711 $423 -11.18033988818473468 $348 $424 forward 7 unknown #
face $-1 $425 $308 $2 $-1 $426 forward single #
point $-1 140.0000000000000853 1.350031197944190101e-13 24.00000000000005329 #
point $-1 140.0000000000000853 1.350031197944190101e-13 25.66965625324759159 #
cone-surface $-1 150.0000000117397292 60.000000000000135 99.99999998826073977 0 1 0 -75 0 0 1 I I 0 1 75 forward I I I I #
face $-1 $427 $428 $2 $-1 $429 reversed single #
loop $-1 $-1 $430 $314 #
cone-surface $-1 162.0000000000000568 79.99999999999998579 7.999999999999999112 0 0 1 5.656854249492378806 5.656854249492378806 0 1 I I 0 -1 7.999999999999998224 forward I I I I #
coedge $-1 $431 $432 $317 $371 reversed $315 $-1 #
coedge $-1 $433 $317 $434 $435 reversed $276 $-1 #
coedge $-1 $317 $433 $436 $437 reversed $276 $-1 #
edge $-1 $438 -7 $439 -1.999999999999985123 $368 $440 forward 7 unknown #
coedge $-1 $319 $318 $433 $441 reversed $244 $-1 #
coedge $-1 $323 $436 $318 $374 forward $382 $-1 #
edge $-1 $442 -32.00000000000000711 $325 -8.000000000000001776 $318 $443 forward 7 unknown #
coedge $-1 $434 $321 $319 $376 forward $266 $-1 #
edge $-1 $326 -22.00000000000003197 $444 1.9999999999999718 $375 $445 forward 7 unknown #
coedge $-1 $344 $446 $320 $378 reversed $404 $-1 #
edge $-1 $379 1.999999999999985123 $383 7 $377 $447 forward 7 unknown #
vertex $-1 $322 $448 #
ellipse-curve $-1 138.0000000000000568 39.99999999999999289 9.999999999999984013 0 0 1 -5.656854249492378806 -5.656854249492378806 0 1 I I #
coedge $-1 $449 $323 $446 $450 forward $382 $-1 #
loop $-1 $451 $323 $452 #
vertex $-1 $450 $453 #
ellipse-curve $-1 138.0000000000000568 39.99999999999999289 14.99999999999999822 0 0 -1 -5.656854249492378806 -5.656854249492378806 0 1 I I #
point $-1 138.0000000000000568 31.99999999999999645 14.99999999999999822 #
point $-1 138.0000000000000568 31.99999999999999645 9.999999999999984013 #
coedge $-1 $329 $333 $328 $388 reversed $336 $-1 #
edge $-1 $331 -43.58898943540615534 $335 43.58898943540621218 $328 $454 forward 7 unknown #
straight-curve $-1 106.4110105645940223 60.000000000000135 9.999999999999984013 0 -0.999999999999999889 0 I I #
point $-1 106.4110105645940223 1.350031197944190101e-13 9.999999999999984013 #
straight-curve $-1 193.5889894354063756 60.000000000000135 9.999999999999984013 0 0.999999999999999889 0 I I #
point $-1 193.5889894354063756 1.350031197944190101e-13 9.999999999999984013 #
coedge $-1 $455 $340 $456 $457 forward $297 $-1 #
coedge $-1 $340 $455 $458 $459 forward $297 $-1 #
coedge $-1 $460 $461 $340 $396 reversed $462 $-1 #
edge $-1 $463 -39.50000000000012079 $464 -37.83034374991134285 $340 $465 forward 7 unknown #
coedge $-1 $397 $397 $466 $467 forward $341 $-1 #
coedge $-1 $398 $398 $342 $399 reversed $468 $-1 #
edge $-1 $469 -3.141592653589797557 $469 3.141592653589788675 $342 $470 forward 7 unknown #
coedge $-1 $343 $471 $472 $473 forward $266 $-1 #
coedge $-1 $474 $475 $343 $402 reversed $476 $-1 #
edge $-1 $477 -0.785398163397448279 $405 0.785398163397448279 $343 $478 forward 7 unknown #
coedge $-1 $446 $344 $475 $479 reversed $404 $-1 #
loop $-1 $-1 $377 $480 #
vertex $-1 $345 $481 #
straight-curve $-1 130.0000000000000284 46.00000000000005684 9.999999999999984013 0 -0.999999999999999889 0 I I #
coedge $-1 $482 $346 $349 $413 reversed $409 $-1 #
coedge $-1 $346 $482 $353 $416 forward $409 $-1 #
loop $-1 $-1 $482 $483 #
straight-curve $-1 160.0000000000000853 1.350031197944190101e-13 63.50000000000016342 0 0 -0.999999999999999889 I I #
coedge $-1 $484 $348 $485 $486 forward $350 $-1 #
coedge $-1 $349 $487 $488 $489 forward $350 $-1 #
edge $-1 $490 11.18033988818488389 $351 60.00000000000000711 $349 $491 forward 7 unknown #
point $-1 160.0000000000000853 1.350031197944190101e-13 25.66965625008883123 #
coedge $-1 $354 $353 $492 $493 reversed $355 $-1 #
edge $-1 $494 11.18033988749898988 $356 59.99999999999992184 $408 $495 forward 7 unknown #
face $-1 $361 $496 $2 $-1 $497 forward single #
point $-1 160.0000000000000853 1.350031197944190101e-13 24.00000000000005329 #
coedge $-1 $492 $485 $358 $420 forward $498 $-1 #
edge $-1 $423 1.830343746855661147 $421 3.500000000000057288 $419 $499 forward 7 unknown #
vertex $-1 $493 $500 #
straight-curve $-1 140.0000000000000853 60.00000000000004974 24.00000000000005329 0 0.999999999999999889 0 I I #
vertex $-1 $486 $501 #
straight-curve $-1 140.0000000000000853 60.000000000000135 25.66965625324759159 0 0.999999999999999889 0 I I #
face $-1 $174 $502 $2 $-1 $503 reversed single #
plane-surface $-1 140.0000000000000853 60.00000000000004974 27.00000000000005329 1 0 0 0 0 -0.999999999999999889 forward_v I I I I #
face $-1 $452 $476 $2 $-1 $504 forward single #
loop $-1 $-1 $505 $365 #
plane-surface $-1 130.0000000000000568 87.99999999999998579 7.999999999999999112 0 1 0 0 0 0.999999999999999889 forward_v I I I I #
coedge $-1 $506 $507 $505 $508 forward $366 $-1 #
coedge $-1 $509 $368 $510 $511 reversed $315 $-1 #
coedge $-1 $368 $509 $512 $513 reversed $315 $-1 #
coedge $-1 $370 $369 $372 $441 forward $276 $-1 #
coedge $-1 $512 $375 $369 $435 forward $266 $-1 #
edge $-1 $444 -0.785398163397448279 $439 0.785398163397448279 $434 $514 forward 7 unknown #
coedge $-1 $373 $510 $370 $437 forward $382 $-1 #
edge $-1 $438 -0.785398163397448279 $442 0.785398163397448279 $436 $515 forward 7 unknown #
vertex $-1 $437 $516 #
vertex $-1 $513 $517 #
straight-curve $-1 170.0000000000000568 39.99999999999999289 7.999999999999999112 0 0 -0.999999999999999889 F -31.79999999999999716 F 22.80000000000001492 #
edge $-1 $444 1.999999999999985123 $442 7 $372 $518 forward 7 unknown #
vertex $-1 $374 $519 #
straight-curve $-1 130.0000000000000568 31.99999999999999645 14.99999999999999822 -0.999999999999999889 0 0 I I #
vertex $-1 $435 $520 #
straight-curve $-1 160.0000000000000853 31.99999999999999645 9.999999999999984013 0.999999999999999889 0 0 I I #
coedge $-1 $377 $403 $381 $450 reversed $404 $-1 #
straight-curve $-1 130.0000000000000568 39.99999999999999289 7.999999999999999112 0 0 0.999999999999999889 F -22.80000000000001492 F 31.79999999999999716 #
point $-1 130.0000000000000284 39.99999999999999289 9.999999999999984013 #
coedge $-1 $521 $381 $522 $523 forward $382 $-1 #
edge $-1 $383 -48 $524 -8.000000000000001776 $446 $525 forward 7 unknown #
loop $-1 $-1 $526 $452 #
face $-1 $480 $382 $2 $-1 $527 forward single #
point $-1 130.0000000000000568 39.99999999999999289 14.99999999999999822 #
straight-curve $-1 150.0000000000001705 1.350031197944190101e-13 9.999999999999984013 0.999999999999999889 0 0 I I #
coedge $-1 $394 $393 $528 $529 forward $297 $-1 #
coedge $-1 $530 $484 $393 $457 reversed $350 $-1 #
edge $-1 $464 1.704527916046899572 $531 7.720250044406602896 $393 $532 forward 7 unknown #
coedge $-1 $533 $534 $394 $459 reversed $535 $-1 #
edge $-1 $536 -10.00000000000005862 $463 9.999999999999944933 $394 $537 forward 7 unknown #
coedge $-1 $538 $395 $534 $539 forward $462 $-1 #
coedge $-1 $395 $538 $530 $540 reversed $462 $-1 #
loop $-1 $-1 $538 $541 #
vertex $-1 $459 $542 #
vertex $-1 $457 $543 #
straight-curve $-1 160.0000000000000853 120.0000000000001279 63.50000000000016342 0 0 0.999999999999999889 I I #
coedge $-1 $466 $466 $397 $467 reversed $544 $-1 #
edge $-1 $545 -3.141592653589800221 $545 3.141592653589786011 $397 $546 forward 7 unknown #
loop $-1 $-1 $398 $547 #
vertex $-1 $399 $548 #
ellipse-curve $-1 150.0000000000000284 100.0000000000000711 9.999999999999984013 0 0 1 3 0 0 1 I I #
coedge $-1 $400 $512 $506 $549 forward $266 $-1 #
coedge $-1 $505 $550 $400 $473 reversed $428 $-1 #
edge $-1 $551 -21.99999999999997513 $477 2.000000000000028866 $400 $552 forward 7 unknown #
coedge $-1 $522 $401 $550 $553 forward $476 $-1 #
coedge $-1 $401 $522 $403 $479 forward $476 $-1 #
loop $-1 $-1 $475 $427 #
vertex $-1 $402 $554 #
ellipse-curve $-1 138.0000000000000568 79.99999999999998579 9.999999999999984013 0 0 1 -5.656854249492378806 5.656854249492378806 0 1 I I #
edge $-1 $524 -7 $405 -1.999999999999985123 $403 $555 forward 7 unknown #
face $-1 $547 $404 $2 $-1 $556 reversed single #
point $-1 130.0000000000000284 79.99999999999998579 9.999999999999984013 #
coedge $-1 $408 $407 $557 $558 reversed $409 $-1 #
face $-1 $559 $409 $2 $-1 $560 forward single #
coedge $-1 $456 $411 $561 $562 forward $350 $-1 #
coedge $-1 $419 $563 $411 $486 reversed $498 $-1 #
edge $-1 $423 33.16891406108493356 $564 57.49940699744122696 $411 $565 forward 7 unknown #
coedge $-1 $412 $530 $566 $567 forward $350 $-1 #
coedge $-1 $566 $557 $412 $489 reversed $498 $-1 #
edge $-1 $568 0 $490 12.16524646803300769 $412 $569 forward 7 unknown #
vertex $-1 $413 $570 #
straight-curve $-1 160.0000000000000853 60.000000000000135 25.66965625008883123 0 -0.999999999999999889 0 I I #
coedge $-1 $557 $419 $415 $493 forward $498 $-1 #
edge $-1 $421 -2.300523983021870222 $494 -0.8410686705679377706 $492 $571 forward 7 unknown #
vertex $-1 $493 $572 #
straight-curve $-1 160.0000000000000853 60.00000000000004974 24.00000000000005329 0 -0.999999999999999889 0 I I #
loop $-1 $355 $573 $417 #
plane-surface $-1 150.0000000000000853 60.00000000000004974 24.00000000000005329 0 0 1 0.999999999999999889 0 0 forward_v I I I I #
loop $-1 $-1 $419 $425 #
straight-curve $-1 140.0000000000000853 48.81966011250121085 27.50000000000011013 0 0 -0.999999999999999889 I I #
point $-1 140.0000000000000853 48.81966011250121085 24.00000000000005329 #
point $-1 140.0000000003834657 48.8196601118154021 25.66965625314444921 #
loop $-1 $498 $574 $425 #
cone-surface $-1 150.0000000000001705 60.00000000000008527 27.50000000000009592 0 0 1 15 0 0 1 I I 0 1 15 forward I I I I #
cone-surface $-1 138.0000000000000568 79.99999999999998579 7.999999999999999112 0 0 1 -5.656854249492378806 5.656854249492378806 0 1 I I 0 -1 7.999999999999998224 forward I I I I #
coedge $-1 $575 $472 $430 $508 reversed $428 $-1 #
coedge $-1 $576 $430 $471 $549 reversed $366 $-1 #
coedge $-1 $430 $576 $577 $578 reversed $366 $-1 #
edge $-1 $579 -7 $551 -1.999999999999985123 $505 $580 forward 7 unknown #
coedge $-1 $432 $431 $576 $581 reversed $315 $-1 #
coedge $-1 $436 $577 $431 $511 forward $382 $-1 #
edge $-1 $582 -47.99999999999999289 $438 -7.999999999999997335 $431 $583 forward 7 unknown #
coedge $-1 $471 $434 $432 $513 forward $266 $-1 #
edge $-1 $439 -34.00000000000005684 $584 5.999999999999944045 $512 $585 forward 7 unknown #
ellipse-curve $-1 162.0000000000000568 39.99999999999999289 9.999999999999984013 0 0 1 5.656854249492378806 -5.656854249492378806 0 1 I I #
ellipse-curve $-1 162.0000000000000568 39.99999999999999289 14.99999999999999822 0 0 -1 5.656854249492378806 -5.656854249492378806 0 1 I I #
point $-1 170.0000000000000568 39.99999999999999289 14.99999999999999822 #
point $-1 170.0000000000000284 39.99999999999999289 9.999999999999984013 #
straight-curve $-1 162.0000000000000568 31.99999999999999645 7.999999999999999112 0 0 0.999999999999999889 F -22.80000000000001492 F 31.79999999999999716 #
point $-1 162.0000000000000568 31.99999999999999645 14.99999999999999822 #
point $-1 162.0000000000000568 31.99999999999999645 9.999999999999984013 #
coedge $-1 $577 $449 $575 $586 forward $382 $-1 #
coedge $-1 $475 $474 $449 $523 reversed $476 $-1 #
edge $-1 $524 -0.785398163397448279 $587 0.785398163397448279 $449 $588 forward 7 unknown #
vertex $-1 $523 $589 #
straight-curve $-1 130.0000000000000568 87.99999999999998579 14.99999999999999822 0 0.999999999999999889 0 I I #
coedge $-1 $526 $526 $574 $590 reversed $451 $-1 #
plane-surface $-1 130.0000000000000568 31.99999999999999645 14.99999999999999822 0 0 -1 -0.999999999999999889 0 0 forward_v I I I I #
coedge $-1 $561 $591 $455 $529 reversed $592 $-1 #
edge $-1 $531 37.83034374675258249 $536 39.50000000000012079 $455 $593 forward 7 unknown #
coedge $-1 $487 $456 $461 $540 forward $350 $-1 #
vertex $-1 $529 $594 #
ellipse-curve $-1 150.0000000117397292 120.0000000000001279 99.99999998826073977 0 -1 0 -75 0 0 1 I I #
coedge $-1 $595 $458 $591 $596 reversed $535 $-1 #
coedge $-1 $458 $595 $460 $539 reversed $535 $-1 #
loop $-1 $-1 $595 $597 #
vertex $-1 $459 $598 #
straight-curve $-1 150.0000000000001421 120.0000000000001279 24.00000000000005329 0.999999999999999889 0 0 I I #
coedge $-1 $461 $460 $599 $600 reversed $462 $-1 #
edge $-1 $463 -60.00000000000008527 $601 -11.18033988749905383 $460 $495 forward 7 unknown #
edge $-1 $464 -60 $602 -11.18033988818478441 $530 $491 forward 7 unknown #
face $-1 $483 $462 $2 $-1 $560 forward single #
point $-1 160.0000000000000853 120.0000000000001279 24.00000000000005329 #
point $-1 160.0000000000000853 120.0000000000001279 25.66965625008883123 #
loop $-1 $-1 $466 $603 #
vertex $-1 $467 $604 #
ellipse-curve $-1 150.0000000000000284 20.00000000000001066 9.999999999999984013 0 0 1 3 0 0 1 I I #
face $-1 $603 $605 $2 $-1 $606 reversed single #
point $-1 147.0000000000000284 100.0000000000000853 9.999999999999984013 #
edge $-1 $584 -0.785398163397448279 $551 0.785398163397448279 $471 $607 forward 7 unknown #
coedge $-1 $472 $575 $474 $553 reversed $428 $-1 #
vertex $-1 $473 $608 #
straight-curve $-1 140.0000000000000853 87.99999999999998579 9.999999999999984013 -0.999999999999999889 0 0 I I #
edge $-1 $477 1.999999999999985123 $587 7 $550 $609 forward 7 unknown #
point $-1 138.0000000000000568 87.99999999999998579 9.999999999999984013 #
straight-curve $-1 130.0000000000000568 79.99999999999998579 7.999999999999999112 0 0 -0.999999999999999889 F -31.79999999999999716 F 22.80000000000001492 #
plane-surface $-1 130.0000000000000568 31.99999999999999645 7.999999999999999112 -1 0 0 0 0 0.999999999999999889 forward_v I I I I #
coedge $-1 $488 $492 $482 $558 forward $498 $-1 #
edge $-1 $494 -3.500000000000057288 $490 -1.830343750014435722 $557 $610 forward 7 unknown #
face $-1 $597 $592 $2 $-1 $426 forward single #
plane-surface $-1 160.0000000000000853 60.00000000000004974 27.00000000000005329 -1 0 0 0 0 0.999999999999999889 forward_v I I I I #
coedge $-1 $611 $528 $484 $562 reversed $592 $-1 #
edge $-1 $564 11.18033988818462809 $531 60 $484 $424 forward 7 unknown #
coedge $-1 $485 $612 $611 $613 forward $498 $-1 #
vertex $-1 $562 $614 #
intcurve-curve $-1 forward { surfintcur full nubs 3 open 11 
	33.16891406108493356 3 34.00030285249452788 2 36.83376727168678855 2 39.66723169087904921 2 42.50069611007130987 2 
	45.33416052926357054 2 48.16762494844419962 2 51.0010893676248287 2 53.83455378680545778 2 56.66801820598608685 2 
	57.49940699744122696 3 
	140.0000000003834657 48.8196601118154021 25.66965625314444921 
	139.790696051978216 49.00686725443404868 25.69781486753063504 
	139.588366289594461 49.19843027480936826 25.72593539283421293 
	138.7289258746641565 50.0578706897396728 25.84871259510579122 
	138.1049937017126297 50.80867546078181363 25.94717979277487174 
	137.004483115426865 52.44432911665174402 26.13236232035756856 
	136.5278285655308537 53.32914827904017585 26.21888765302446345 
	135.7616482260270914 55.17620498805054297 26.36290821622543135 
	135.4715131949235172 56.13996234901623694 26.42037788465325931 
	135.090643698120175 58.07960572852302761 26.49660678477082953 
	135.0000000000001705 59.05551186026933408 26.51530770716172114 
	135.0000000000001705 60.94448813972696399 26.51530770716172114 
	135.0906436981194361 61.9203942714693909 26.49660678477095743 
	135.4715131949197939 63.86003765096893403 26.42037788465398407 
	135.7616482260211512 64.82379501193123872 26.36290821622656821 
	136.5278285655191155 66.67085172093574386 26.2188876530266235 
	137.0044831154116025 67.55567088332168169 26.13236232036028284 
	138.1049937016893523 69.19132453918778936 25.94717979277863762 
	138.72892587463636 69.94212931022859436 25.84871259511006869 
	139.588366289571951 70.80156972516948599 25.72593539283735353 
	139.7906960519665915 70.99313274555572661 25.69781486753219824 
	140.0000000003834657 71.18033988818476132 25.66965625314444921 
	0.000999999999999999804 
	cone 150.0000000000001705 60.00000000000008527 27.50000000000009592 0 0 1 15 0 0 1 I I 0 1 15 forward I I I I 
	cone 150.0000000117397292 60.000000000000135 99.99999998826073977 0 1 0 -75 0 0 1 I I 0 -1 75 forward I I I I 
	nullbs 
	nullbs 
	I I 
	0 
	0 
	0 
	} I I #
coedge $-1 $599 $488 $487 $567 reversed $498 $-1 #
edge $-1 $602 78.50307459049315639 $568 90.66832105852715529 $487 $615 forward 7 unknown #
vertex $-1 $567 $616 #
intcurve-curve $-1 forward { surfintcur full nubs 3 open 6 
	0 3 2.833464419160625969 2 5.666928838321251938 2 8.500393257481878351 2 11.33385767664250388 2 
	12.16524646803300769 3 
	165.0000000000001705 60.00000000000008527 26.51530770236906775 
	165.0000000000001705 59.05551186027987853 26.51530770236906775 
	164.9093563018822124 58.07960572854175751 26.49660678000877212 
	164.5284868050841567 56.13996234904527682 26.42037788001873011 
	164.2383517739837941 55.17620498808172158 26.36290821168769227 
	163.4721714344840962 53.32914827906965627 26.21888764874004707 
	162.9955168845889091 52.44432911667755093 26.13236231622981265 
	161.8950062982996201 50.80867546079665686 25.94717978900557043 
	161.2710741253437732 50.05787068974725429 25.84871259153831247 
	160.4116337104057664 49.19843027480924746 25.72593538954296477 
	160.2093039480219829 49.00686725443391367 25.69781486430454365 
	159.9999999996167048 48.81966011181525289 25.66965624998567463 
	0.000999999999999999804 
	cone 150.0000000000001705 60.00000000000008527 27.50000000000009592 0 0 1 15 0 0 1 I I 0 1 15 forward I I I I 
	cone 150.0000000117397292 60.000000000000135 99.99999998826073977 0 1 0 -75 0 0 1 I I 0 -1 75 forward I I I I 
	nullbs 
	nullbs 
	I I 
	0 
	0 
	0 
	} I I #
point $-1 159.9999999996167048 48.81966011181525289 25.66965624998567463 #
ellipse-curve $-1 150.0000000000001705 60.00000000000008527 24.00000000000005329 0 0 1 15 0 0 1 I I #
point $-1 160.0000000000000853 48.81966011250106163 24.00000000000005329 #
coedge $-1 $573 $573 $617 $618 forward $496 $-1 #
coedge $-1 $574 $574 $526 $590 forward $502 $-1 #
coedge $-1 $550 $505 $521 $586 reversed $428 $-1 #
coedge $-1 $507 $506 $509 $581 forward $366 $-1 #
coedge $-1 $510 $521 $507 $578 forward $382 $-1 #
edge $-1 $579 -0.785398163397448279 $582 0.785398163397448279 $577 $619 forward 7 unknown #
vertex $-1 $578 $620 #
straight-curve $-1 162.0000000000000568 87.99999999999998579 7.999999999999999112 0 0 -0.999999999999999889 F -31.79999999999999716 F 22.80000000000001492 #
edge $-1 $584 1.999999999999985123 $582 7 $509 $621 forward 7 unknown #
vertex $-1 $511 $622 #
straight-curve $-1 170.0000000000000568 31.99999999999999645 14.99999999999999822 0 -0.999999999999999889 0 I I #
vertex $-1 $549 $623 #
straight-curve $-1 170.0000000000000284 74.00000000000004263 9.999999999999984013 0 0.999999999999999889 0 I I #
edge $-1 $587 -32.00000000000000711 $579 -8.000000000000001776 $575 $624 forward 7 unknown #
vertex $-1 $586 $625 #
ellipse-curve $-1 138.0000000000000568 79.99999999999998579 14.99999999999999822 0 0 -1 -5.656854249492378806 5.656854249492378806 0 1 I I #
point $-1 130.0000000000000568 79.99999999999998579 14.99999999999999822 #
edge $-1 $626 -3.141592653589800221 $626 3.141592653589786011 $574 $627 forward 7 unknown #
coedge $-1 $528 $611 $533 $596 forward $592 $-1 #
loop $-1 $-1 $611 $559 #
straight-curve $-1 140.0000000000000853 120.0000000000001279 63.50000000000016342 0 0 -0.999999999999999889 I I #
point $-1 140.0000000000000853 120.0000000000001279 25.66965625324759159 #
coedge $-1 $534 $533 $612 $628 reversed $535 $-1 #
edge $-1 $629 11.18033988749891172 $536 60.00000000000008527 $591 $422 forward 7 unknown #
face $-1 $417 $630 $2 $-1 $497 forward single #
point $-1 140.0000000000000853 120.0000000000001279 24.00000000000005329 #
coedge $-1 $612 $566 $538 $600 forward $498 $-1 #
edge $-1 $602 1.830343750014435722 $601 3.500000000000057288 $599 $631 forward 7 unknown #
vertex $-1 $628 $632 #
vertex $-1 $567 $633 #
face $-1 $541 $634 $2 $-1 $635 reversed single #
point $-1 147.0000000000000284 20.00000000000003197 9.999999999999984013 #
loop $-1 $468 $636 $547 #
cone-surface $-1 150.0000000000000284 100.0000000000000711 14.50000000000002665 0 0 1 3 0 0 1 I I 0 1 3 forward I I I I #
ellipse-curve $-1 162.0000000000000568 79.99999999999998579 9.999999999999984013 0 0 1 5.656854249492378806 5.656854249492378806 0 1 I I #
point $-1 162.0000000000000568 87.99999999999998579 9.999999999999984013 #
straight-curve $-1 138.0000000000000568 87.99999999999998579 7.999999999999999112 0 0 0.999999999999999889 F -22.80000000000001492 F 31.79999999999999716 #
straight-curve $-1 160.0000000000000853 48.81966011250106163 27.50000000000011013 0 0 0.999999999999999889 I I #
coedge $-1 $591 $561 $563 $613 reversed $592 $-1 #
coedge $-1 $563 $599 $595 $628 forward $498 $-1 #
edge $-1 $629 -3.500000000000057288 $564 -1.830343746855661147 $563 $637 forward 7 unknown #
point $-1 140.0000000003834657 71.18033988818476132 25.66965625314444921 #
intcurve-curve $-1 forward { surfintcur full nubs 3 open 6 
	78.50307459049315639 3 79.33446338183802027 2 82.16792780101030758 2 85.00139222018259488 2 87.83485663935488219 2 
	90.66832105852715529 3 
	159.9999999996167048 71.18033988818491764 25.66965624998567463 
	160.20930394801033 70.9931327455766592 25.69781486430298045 
	160.4116337103831995 70.80156972521226066 25.72593538953983838 
	161.2710741253158915 69.94212931028486935 25.84871259153402079 
	161.8950062982762859 69.19132453923414516 25.94717978900180455 
	162.9955168845736182 67.55567088334940706 26.13236231622709838 
	163.472171434472358 66.67085172095480061 26.21888764873788702 
	164.2383517739778256 64.82379501193685201 26.36290821168652698 
	164.5284868050804334 63.86003765096992169 26.42037788001799115 
	164.9093563018814734 61.92039427146617214 26.49660678000863001 
	165.0000000000001705 60.94448813972417867 26.51530770236906775 
	165.0000000000001705 60.00000000000008527 26.51530770236906775 
	0.000999999999999999804 
	cone 150.0000000000001705 60.00000000000008527 27.50000000000009592 0 0 1 15 0 0 1 I I 0 1 15 forward I I I I 
	cone 150.0000000117397292 60.000000000000135 99.99999998826073977 0 1 0 -75 0 0 1 I I 0 -1 75 forward I I I I 
	nullbs 
	nullbs 
	I I 
	0 
	0 
	0 
	} I I #
point $-1 165.0000000000001705 60.00000000000008527 26.51530770236906775 #
coedge $-1 $617 $617 $573 $618 reversed $634 $-1 #
edge $-1 $638 -3.141592653589800221 $638 3.141592653589786011 $573 $639 forward 7 unknown #
ellipse-curve $-1 162.0000000000000568 79.99999999999998579 14.99999999999999822 0 0 -1 5.656854249492378806 5.656854249492378806 0 1 I I #
point $-1 162.0000000000000568 87.99999999999998579 14.99999999999999822 #
straight-curve $-1 170.0000000000000568 79.99999999999998579 7.999999999999999112 0 0 0.999999999999999889 F -22.80000000000001492 F 31.79999999999999716 #
point $-1 170.0000000000000568 79.99999999999998579 14.99999999999999822 #
point $-1 170.0000000000000284 79.99999999999998579 9.999999999999984013 #
straight-curve $-1 170.0000000000000568 87.99999999999998579 14.99999999999999822 0.999999999999999889 0 0 I I #
point $-1 138.0000000000000568 87.99999999999998579 14.99999999999999822 #
vertex $-1 $590 $640 #
ellipse-curve $-1 150.0000000000001705 60.00000000000008527 14.99999999999999822 0 0 -1 15 0 0 1 I I #
edge $-1 $601 0.8410686705679374375 $629 2.300523983021870222 $612 $571 forward 7 unknown #
vertex $-1 $628 $641 #
loop $-1 $535 $642 $597 #
straight-curve $-1 160.0000000000000853 71.18033988749910179 27.50000000000011013 0 0 -0.999999999999999889 I I #
point $-1 160.0000000000000853 71.18033988749910179 24.00000000000005329 #
point $-1 159.9999999996167048 71.18033988818491764 25.66965624998567463 #
loop $-1 $544 $617 $603 #
cone-surface $-1 150.0000000000000284 20.00000000000001066 14.50000000000004086 0 0 1 3 0 0 1 I I 0 1 3 forward I I I I #
coedge $-1 $636 $636 $642 $643 reversed $605 $-1 #
straight-curve $-1 140.0000000000000853 71.18033988749895968 27.50000000000011013 0 0 0.999999999999999889 I I #
vertex $-1 $618 $644 #
ellipse-curve $-1 150.0000000000000284 20.00000000000001066 24.00000000000005329 0 0 -1 3 0 0 1 I I #
point $-1 135.0000000000001705 59.99999999999997868 14.99999999999999822 #
point $-1 140.0000000000000853 71.18033988749895968 24.00000000000005329 #
coedge $-1 $642 $642 $636 $643 forward $630 $-1 #
edge $-1 $645 -3.141592653589802442 $645 3.14159265358978379 $642 $646 forward 7 unknown #
point $-1 147.0000000000000284 19.99999999999998934 24.00000000000005329 #
vertex $-1 $643 $647 #
ellipse-curve $-1 150.0000000000000284 100.0000000000000711 24.00000000000005329 0 0 -1 3 0 0 1 I I #
point $-1 147.0000000000000284 100.0000000000000426 24.00000000000005329 #
End-of-ACIS-data 