104 308 0 0                             
body $-1 $1 $-1 $2 #
lump $-1 $-1 $3 $0 #
transform $-1 1 0 0 0 1 0 0 0 1 0 0 0 1 0 0 0 #
shell $-1 $-1 $-1 $4 $1 #
face $5 $6 $7 $3 $-1 $8 1 #
face_name-twe-attrib $-1 $-1 $-1 $4 1 #
face $9 $10 $11 $3 $-1 $12 1 #
loop $13 $14 $15 $4 #
cone-surface $16 0 0 0 0 0 1 5 0 0 1 0 1 0 #
face_name-twe-attrib $-1 $-1 $-1 $6 2 #
face $17 $18 $19 $3 $-1 $20 1 #
loop $21 $-1 $22 $6 #
plane-surface $23 -4.75528258147578 1.54508497187471 0 0.586227499828239 -0.425919209711466 -0.689151757774652 -0.761694642422711 0 -0.6479361632943 0 #
loop_type-twe-attrib $-1 $-1 $-1 $7 0 #
loop $24 $-1 $25 $4 #
coedge $-1 $15 $15 $26 $27 1 $7 $-1 #
surf-twe-attrib $-1 $-1 $-1 $8 4 #
face_name-twe-attrib $-1 $-1 $-1 $10 3 #
face $28 $29 $30 $3 $-1 $31 1 #
loop $32 $-1 $33 $10 #
plane-surface $34 -2.93892626146239 4.04508497187472 0 0.223918979794516 -0.689151757774651 -0.689151757774652 -0.951056516295152 0 -0.309016994374951 0 #
loop_type-twe-attrib $-1 $-1 $-1 $11 0 #
coedge $-1 $35 $36 $37 $38 0 $11 $-1 #
surf-twe-attrib $-1 $-1 $-1 $12 6 #
loop_type-twe-attrib $-1 $-1 $-1 $14 1 #
coedge $-1 $39 $40 $41 $42 1 $14 $-1 #
coedge $-1 $26 $26 $15 $27 0 $43 $-1 #
edge $44 $45 $45 $26 $46 0 #
face_name-twe-attrib $-1 $-1 $-1 $18 4 #
face $47 $48 $49 $3 $-1 $50 1 #
loop $51 $-1 $52 $18 #
plane-surface $53 -1.73194791841524e-14 5 0 -0.223918979794511 -0.689151757774652 -0.689151757774652 -0.951056516295154 0 0.309016994374945 0 #
loop_type-twe-attrib $-1 $-1 $-1 $19 0 #
coedge $-1 $54 $55 $56 $57 0 $19 $-1 #
surf-twe-attrib $-1 $-1 $-1 $20 10 #
coedge $-1 $58 $22 $55 $59 0 $11 $-1 #
coedge $-1 $22 $58 $60 $61 1 $11 $-1 #
coedge $-1 $62 $56 $22 $38 1 $14 $-1 #
edge $63 $64 $65 $22 $66 0 #
coedge $-1 $67 $25 $68 $69 1 $14 $-1 #
coedge $-1 $25 $70 $71 $72 1 $14 $-1 #
coedge $-1 $73 $74 $25 $42 0 $75 $-1 #
edge $76 $77 $78 $41 $79 0 #
loop $80 $81 $26 $82 #
edge_name-twe-attrib $-1 $-1 $-1 $27 17 8704 #
vertex $-1 $27 $83 #
ellipse-curve $84 0 0 -5 0 0 1 5 0 0 1 #
face_name-twe-attrib $-1 $-1 $-1 $29 5 #
face $85 $82 $86 $3 $-1 $87 1 #
loop $88 $-1 $89 $29 #
plane-surface $90 2.93892626146236 4.04508497187474 0 -0.586227499828236 -0.42591920971147 -0.689151757774652 -0.761694642422713 0 0.647936163294298 0 #
loop_type-twe-attrib $-1 $-1 $-1 $30 0 #
coedge $-1 $91 $92 $93 $94 0 $30 $-1 #
surf-twe-attrib $-1 $-1 $-1 $31 18 #
coedge $-1 $95 $33 $92 $96 0 $19 $-1 #
coedge $-1 $33 $95 $35 $59 1 $19 $-1 #
coedge $-1 $37 $93 $33 $57 1 $14 $-1 #
edge $97 $65 $98 $33 $99 0 #
coedge $-1 $36 $35 $100 $101 1 $11 $-1 #
edge $102 $65 $103 $55 $104 0 #
coedge $-1 $105 $106 $36 $61 0 $107 $-1 #
edge $108 $64 $109 $36 $110 0 #
coedge $-1 $111 $37 $106 $112 1 $14 $-1 #
edge_name-twe-attrib $-1 $-1 $-1 $38 1 9216 #
vertex $-1 $112 $113 #
vertex $-1 $57 $114 #
ellipse-curve $115 0 0 5 0.586227499828239 -0.425919209711466 -0.689151757774652 4.04508497187475 -2.93892626146234 5.25731112119134 0.689151757774652 #
coedge $-1 $93 $39 $89 $116 1 $14 $-1 #
coedge $-1 $117 $118 $39 $69 0 $86 $-1 #
edge $119 $120 $77 $68 $121 0 #
coedge $-1 $40 $111 $122 $123 1 $14 $-1 #
coedge $-1 $124 $125 $40 $72 0 $126 $-1 #
edge $127 $78 $128 $71 $129 0 #
coedge $-1 $130 $41 $125 $131 0 $75 $-1 #
coedge $-1 $41 $130 $117 $132 1 $75 $-1 #
loop $133 $-1 $41 $134 #
edge_name-twe-attrib $-1 $-1 $-1 $42 18 9216 #
vertex $-1 $42 $135 #
vertex $-1 $42 $136 #
ellipse-curve $137 0 0 5 -0.586227499828238 0.425919209711466 -0.689151757774652 4.04508497187475 -2.93892626146234 -5.25731112119133 0.689151757774652 #
loop_type-twe-attrib $-1 $-1 $-1 $43 1 #
loop $138 $-1 $139 $82 #
face $140 $134 $43 $3 $-1 $141 1 #
point $-1 -5 3.49148134940613e-14 -5 #
cur-twe-attrib $-1 $-1 $-1 $46 27 #
face_name-twe-attrib $-1 $-1 $-1 $48 6 #
loop $142 $-1 $68 $48 #
plane-surface $143 4.75528258147577 1.54508497187474 0 -0.724617040067447 0 -0.689151757774652 -0.689151757774652 0 0.724617040067447 0 #
loop_type-twe-attrib $-1 $-1 $-1 $49 0 #
coedge $-1 $144 $145 $67 $116 0 $49 $-1 #
surf-twe-attrib $-1 $-1 $-1 $50 29 #
coedge $-1 $146 $52 $145 $147 0 $30 $-1 #
coedge $-1 $52 $146 $54 $96 1 $30 $-1 #
coedge $-1 $56 $67 $52 $94 1 $14 $-1 #
edge $148 $98 $149 $52 $150 0 #
coedge $-1 $55 $54 $151 $152 1 $19 $-1 #
edge $153 $98 $154 $92 $155 0 #
edge_name-twe-attrib $-1 $-1 $-1 $57 4 9216 #
vertex $-1 $94 $156 #
ellipse-curve $157 0 0 5 0.223918979794516 -0.689151757774651 -0.689151757774652 1.54508497187476 -4.75528258147576 5.25731112119134 0.689151757774652 #
coedge $-1 $151 $158 $58 $101 0 $81 $-1 #
edge $159 $109 $103 $58 $160 0 #
edge_name-twe-attrib $-1 $-1 $-1 $59 6 8448 #
vertex $-1 $152 $161 #
straight-curve $162 -2.93892626146239 4.04508497187472 0 -0.415626937777456 0.572061402817682 -0.707106781186547 #
coedge $-1 $163 $60 $158 $164 1 $107 $-1 #
coedge $-1 $60 $163 $62 $112 0 $107 $-1 #
loop $165 $-1 $106 $166 #
edge_name-twe-attrib $-1 $-1 $-1 $61 3 8448 #
vertex $-1 $101 $167 #
straight-curve $168 -4.75528258147578 1.54508497187471 0 -0.672498511963959 0.218508012224406 -0.707106781186547 #
coedge $-1 $70 $62 $169 $170 1 $14 $-1 #
edge $171 $172 $64 $106 $173 0 #
point $-1 -4.75528258147578 1.54508497187471 0 #
point $-1 -2.93892626146239 4.04508497187472 -2.61029088252086e-16 #
cur-twe-attrib $-1 $-1 $-1 $66 38 #
edge $174 $149 $120 $89 $175 0 #
coedge $-1 $176 $68 $74 $132 0 $86 $-1 #
coedge $-1 $68 $176 $144 $177 1 $86 $-1 #
edge_name-twe-attrib $-1 $-1 $-1 $69 13 9216 #
vertex $-1 $69 $178 #
ellipse-curve $179 0 0 5 -0.724617040067447 0 -0.689151757774652 5 0 -5.25731112119134 0.689151757774652 #
coedge $-1 $180 $181 $70 $123 0 $182 $-1 #
edge $183 $128 $184 $122 $185 0 #
coedge $-1 $186 $71 $181 $187 0 $126 $-1 #
coedge $-1 $71 $186 $73 $131 1 $126 $-1 #
loop $188 $-1 $71 $189 #
edge_name-twe-attrib $-1 $-1 $-1 $72 20 9216 #
vertex $-1 $72 $190 #
ellipse-curve $191 0 0 5 -0.223918979794521 0.689151757774649 -0.689151757774652 1.54508497187479 -4.75528258147575 -5.25731112119134 0.689151757774652 #
coedge $-1 $74 $73 $192 $193 1 $75 $-1 #
edge $194 $78 $195 $125 $196 0 #
edge $197 $77 $198 $117 $199 0 #
loop_type-twe-attrib $-1 $-1 $-1 $75 0 #
face $200 $189 $75 $3 $-1 $201 1 #
point $-1 4.75528258147577 -1.54508497187474 -6.8615556431106e-17 #
point $-1 2.93892626146241 -4.0450849718747 0 #
cur-twe-attrib $-1 $-1 $-1 $79 42 #
loop_type-twe-attrib $-1 $-1 $-1 $81 0 #
coedge $-1 $192 $202 $176 $203 0 $81 $-1 #
face_name-twe-attrib $-1 $-1 $-1 $82 7 #
plane-surface $204 0 0 -5 0 0 1 1 0 0 0 #
loop_type-twe-attrib $-1 $-1 $-1 $86 0 #
surf-twe-attrib $-1 $-1 $-1 $87 48 #
coedge $-1 $205 $89 $118 $177 0 $49 $-1 #
coedge $-1 $89 $205 $91 $147 1 $49 $-1 #
coedge $-1 $92 $91 $206 $207 1 $30 $-1 #
edge $208 $149 $209 $145 $210 0 #
edge_name-twe-attrib $-1 $-1 $-1 $94 7 9216 #
vertex $-1 $116 $211 #
ellipse-curve $212 0 0 5 -0.223918979794511 -0.689151757774652 -0.689151757774652 1.54508497187472 4.75528258147577 -5.25731112119134 0.689151757774652 #
coedge $-1 $206 $100 $95 $152 0 $81 $-1 #
edge $213 $103 $154 $95 $214 0 #
edge_name-twe-attrib $-1 $-1 $-1 $96 9 8448 #
vertex $-1 $207 $215 #
straight-curve $216 -1.74574067470307e-14 5 0 -2.46885013855143e-15 0.707106781186547 -0.707106781186547 #
point $-1 -1.74574067470307e-14 5 0 #
cur-twe-attrib $-1 $-1 $-1 $99 57 #
coedge $-1 $100 $217 $105 $164 0 $81 $-1 #
edge_name-twe-attrib $-1 $-1 $-1 $101 2 9216 #
straight-curve $218 -7.69420884293816 5.59016994374943 -5 0.587785252292469 0.809016994374951 0 #
point $-1 -5.87785252292477 8.09016994374945 -5 #
cur-twe-attrib $-1 $-1 $-1 $104 59 #
coedge $-1 $106 $105 $219 $220 1 $107 $-1 #
edge $221 $222 $109 $105 $223 0 #
loop_type-twe-attrib $-1 $-1 $-1 $107 0 #
face $224 $-1 $107 $3 $-1 $225 1 #
point $-1 -9.51056516295156 3.09016994374941 -5 #
cur-twe-attrib $-1 $-1 $-1 $110 61 #
coedge $-1 $219 $226 $111 $170 0 $227 $-1 #
edge $228 $184 $172 $169 $229 0 #
edge_name-twe-attrib $-1 $-1 $-1 $112 29 9216 #
vertex $-1 $170 $230 #
ellipse-curve $231 0 0 5 0.724617040067447 5.20674614382198e-15 -0.689151757774652 5 0 5.25731112119134 0.689151757774652 #
edge_name-twe-attrib $-1 $-1 $-1 $116 10 9216 #
ellipse-curve $232 0 0 5 -0.586227499828236 -0.42591920971147 -0.689151757774652 4.04508497187473 2.93892626146237 -5.25731112119134 0.689151757774652 #
coedge $-1 $118 $117 $139 $203 1 $86 $-1 #
edge $233 $120 $234 $118 $235 0 #
point $-1 4.75528258147577 1.54508497187474 -6.8615556431106e-17 #
cur-twe-attrib $-1 $-1 $-1 $121 69 #
coedge $-1 $236 $122 $226 $237 0 $182 $-1 #
coedge $-1 $122 $236 $124 $187 1 $182 $-1 #
loop $238 $-1 $122 $239 #
edge_name-twe-attrib $-1 $-1 $-1 $123 23 9216 #
vertex $-1 $123 $240 #
ellipse-curve $241 0 0 5 0.223918979794506 0.689151757774654 -0.689151757774652 1.54508497187469 4.75528258147578 5.25731112119134 0.689151757774652 #
coedge $-1 $125 $124 $242 $243 1 $126 $-1 #
edge $244 $128 $245 $181 $246 0 #
loop_type-twe-attrib $-1 $-1 $-1 $126 0 #
face $247 $239 $126 $3 $-1 $248 1 #
point $-1 5.2372220241092e-14 -5 0 #
cur-twe-attrib $-1 $-1 $-1 $129 72 #
coedge $-1 $242 $139 $130 $193 0 $81 $-1 #
edge $249 $198 $195 $130 $250 0 #
edge_name-twe-attrib $-1 $-1 $-1 $131 22 8448 #
vertex $-1 $243 $251 #
straight-curve $252 2.93892626146241 -4.0450849718747 0 0.41562693777746 -0.57206140281768 -0.707106781186547 #
edge_name-twe-attrib $-1 $-1 $-1 $132 14 8448 #
vertex $-1 $132 $253 #
straight-curve $254 4.75528258147577 -1.54508497187474 0 0.672498511963957 -0.218508012224411 -0.707106781186547 #
face_name-twe-attrib $-1 $-1 $-1 $134 8 #
plane-surface $255 4.75528258147577 -1.54508497187474 0 -0.586227499828238 0.425919209711466 -0.689151757774652 -0.761694642422712 0 0.647936163294299 0 #
coedge $-1 $139 $206 $205 $256 0 $81 $-1 #
edge $257 $234 $198 $176 $258 0 #
surf-twe-attrib $-1 $-1 $-1 $141 82 #
coedge $-1 $145 $144 $202 $256 1 $49 $-1 #
coedge $-1 $202 $151 $146 $207 0 $81 $-1 #
edge $259 $154 $209 $146 $260 0 #
edge_name-twe-attrib $-1 $-1 $-1 $147 12 8448 #
vertex $-1 $256 $261 #
straight-curve $262 2.93892626146236 4.04508497187474 0 0.415626937777452 0.572061402817685 -0.707106781186547 #
point $-1 2.93892626146236 4.04508497187474 2.61029088252083e-16 #
cur-twe-attrib $-1 $-1 $-1 $150 94 #
edge_name-twe-attrib $-1 $-1 $-1 $152 5 9216 #
straight-curve $263 -2.9389262614624 9.04508497187472 -5 0.951056516295152 0.309016994374951 0 #
point $-1 -3.49148134940613e-14 10 -5 #
cur-twe-attrib $-1 $-1 $-1 $155 96 #
coedge $-1 $158 $264 $265 $266 0 $81 $-1 #
cur-twe-attrib $-1 $-1 $-1 $160 101 #
coedge $-1 $265 $169 $163 $220 0 $227 $-1 #
edge $267 $172 $222 $163 $268 0 #
edge_name-twe-attrib $-1 $-1 $-1 $164 30 9216 #
vertex $-1 $164 $269 #
straight-curve $270 -9.51056516295153 -6.86117829218347e-14 -5 -7.18551435574484e-15 1 0 #
face_name-twe-attrib $-1 $-1 $-1 $166 12 #
plane-surface $271 -4.75528258147575 -1.54508497187477 0 0.724617040067447 5.20674614382198e-15 -0.689151757774652 -0.689151757774652 0 -0.724617040067447 0 #
coedge $-1 $169 $265 $180 $237 1 $227 $-1 #
loop $272 $-1 $169 $273 #
edge_name-twe-attrib $-1 $-1 $-1 $170 26 9216 #
ellipse-curve $274 0 0 5 0.586227499828233 0.425919209711474 -0.689151757774652 4.04508497187471 2.9389262614624 5.25731112119134 0.689151757774652 #
point $-1 -4.75528258147576 -1.54508497187477 0 #
cur-twe-attrib $-1 $-1 $-1 $173 112 #
cur-twe-attrib $-1 $-1 $-1 $175 116 #
edge_name-twe-attrib $-1 $-1 $-1 $177 16 8448 #
vertex $-1 $203 $275 #
straight-curve $276 4.75528258147577 1.54508497187474 0 0.672498511963957 0.218508012224411 -0.707106781186547 #
coedge $-1 $181 $180 $264 $277 1 $182 $-1 #
edge $278 $184 $279 $226 $280 0 #
loop_type-twe-attrib $-1 $-1 $-1 $182 0 #
face $281 $273 $182 $3 $-1 $282 1 #
point $-1 -2.93892626146233 -4.04508497187476 7.18551435574491e-16 #
cur-twe-attrib $-1 $-1 $-1 $185 123 #
coedge $-1 $264 $192 $186 $243 0 $81 $-1 #
edge $283 $195 $245 $186 $284 0 #
edge_name-twe-attrib $-1 $-1 $-1 $187 25 8448 #
vertex $-1 $277 $285 #
straight-curve $286 5.2372220241092e-14 -5 0 7.4065504156543e-15 -0.707106781186547 -0.707106781186547 #
face_name-twe-attrib $-1 $-1 $-1 $189 9 #
plane-surface $287 2.93892626146241 -4.0450849718747 0 -0.223918979794521 0.689151757774649 -0.689151757774652 -0.951056516295151 0 0.309016994374957 0 #
edge_name-twe-attrib $-1 $-1 $-1 $193 19 9216 #
straight-curve $288 7.69420884293818 -5.59016994374945 -5 -0.587785252292469 -0.809016994374951 0 #
point $-1 5.87785252292482 -8.09016994374941 -5 #
cur-twe-attrib $-1 $-1 $-1 $196 131 #
point $-1 9.51056516295153 -3.09016994374948 -5 #
cur-twe-attrib $-1 $-1 $-1 $199 132 #
surf-twe-attrib $-1 $-1 $-1 $201 134 #
edge $289 $209 $234 $205 $290 0 #
edge_name-twe-attrib $-1 $-1 $-1 $203 15 9216 #
straight-curve $291 9.51056516295153 0 -5 0 -1 0 #
edge_name-twe-attrib $-1 $-1 $-1 $207 8 9216 #
straight-curve $292 2.93892626146234 9.04508497187474 -5 0.951056516295155 -0.309016994374945 0 #
point $-1 5.87785252292471 8.09016994374949 -5 #
cur-twe-attrib $-1 $-1 $-1 $210 147 #
cur-twe-attrib $-1 $-1 $-1 $214 152 #
coedge $-1 $217 $242 $236 $277 0 $81 $-1 #
coedge $-1 $226 $219 $217 $266 1 $227 $-1 #
edge $293 $279 $222 $265 $294 0 #
edge_name-twe-attrib $-1 $-1 $-1 $220 31 8448 #
straight-curve $295 -4.75528258147576 -1.54508497187477 0 -0.672498511963956 -0.218508012224416 -0.707106781186547 #
point $-1 -9.51056516295151 -3.09016994374955 -5 #
cur-twe-attrib $-1 $-1 $-1 $223 164 #
surf-twe-attrib $-1 $-1 $-1 $225 166 #
loop_type-twe-attrib $-1 $-1 $-1 $227 0 #
face $296 $166 $227 $3 $-1 $297 1 #
cur-twe-attrib $-1 $-1 $-1 $229 170 #
point $-1 9.51056516295153 3.09016994374948 -5 #
cur-twe-attrib $-1 $-1 $-1 $235 177 #
edge $298 $245 $279 $236 $299 0 #
edge_name-twe-attrib $-1 $-1 $-1 $237 28 8448 #
vertex $-1 $266 $300 #
straight-curve $301 -2.93892626146233 -4.04508497187477 0 -0.415626937777448 -0.572061402817688 -0.707106781186547 #
face_name-twe-attrib $-1 $-1 $-1 $239 10 #
plane-surface $302 5.24025267623074e-14 -5 0 0.223918979794506 0.689151757774654 -0.689151757774652 -0.951056516295156 0 -0.309016994374939 0 #
edge_name-twe-attrib $-1 $-1 $-1 $243 21 9216 #
straight-curve $303 2.93892626146246 -9.0450849718747 -5 -0.95105651629515 -0.309016994374958 0 #
point $-1 1.04744440482184e-13 -10 -5 #
cur-twe-attrib $-1 $-1 $-1 $246 187 #
surf-twe-attrib $-1 $-1 $-1 $248 189 #
cur-twe-attrib $-1 $-1 $-1 $250 193 #
edge_name-twe-attrib $-1 $-1 $-1 $256 11 9216 #
straight-curve $304 7.69420884293812 5.59016994374948 -5 0.587785252292474 -0.809016994374947 0 #
cur-twe-attrib $-1 $-1 $-1 $258 203 #
cur-twe-attrib $-1 $-1 $-1 $260 207 #
edge_name-twe-attrib $-1 $-1 $-1 $266 27 9216 #
straight-curve $305 -7.69420884293808 -5.59016994374954 -5 -0.58778525229248 0.809016994374942 0 #
cur-twe-attrib $-1 $-1 $-1 $268 220 #
face_name-twe-attrib $-1 $-1 $-1 $273 11 #
plane-surface $306 -2.93892626146233 -4.04508497187477 0 0.586227499828233 0.425919209711474 -0.689151757774652 -0.761694642422715 0 -0.647936163294296 0 #
edge_name-twe-attrib $-1 $-1 $-1 $277 24 9216 #
straight-curve $307 -2.93892626146227 -9.04508497187476 -5 -0.951056516295157 0.309016994374938 0 #
point $-1 -5.87785252292465 -8.09016994374953 -5 #
cur-twe-attrib $-1 $-1 $-1 $280 237 #
surf-twe-attrib $-1 $-1 $-1 $282 239 #
cur-twe-attrib $-1 $-1 $-1 $284 243 #
cur-twe-attrib $-1 $-1 $-1 $290 256 #
cur-twe-attrib $-1 $-1 $-1 $294 266 #
surf-twe-attrib $-1 $-1 $-1 $297 273 #
cur-twe-attrib $-1 $-1 $-1 $299 277 #
