600 0 2 0           
24 FBMach with ACIS - 6.0.3 13 ACIS 6.0.3 NT 24 Wed May 23 21:06:12 2001 
1 9.9999999999999995e-007 1e-010 
body $2 $3 $-1 $4 #
bdycol-kcp $-1 1 2 $5 $6 #
model_id-kcp-attrib $-1 $-1 $-1 $0 1 990666371 60 607911937 1 #
lump $-1 $-1 $7 $0 #
transform $-1 1 0 0 0 1 0 0 0 1 0 0 0 1 no_rotate no_reflect no_shear #
body $8 $9 $-1 $10 #
body $11 $12 $-1 $13 #
shell $-1 $-1 $-1 $14 $-1 $3 #
model_id-kcp-attrib $-1 $-1 $-1 $5 1 990666371 60 607911938 1 #
lump $-1 $-1 $15 $5 #
transform $-1 1 0 0 0 1 0 0 0 1 -1.2434497875801753e-014 0 -2.4999999999999982 1 no_rotate no_reflect no_shear #
rgb_color-st-attrib $-1 $16 $-1 $6 0.5 1 1 #
lump $-1 $-1 $17 $6 #
transform $-1 1 0 0 0 1 0 0 0 1 0 0 -2.4999999999999996 1 no_rotate no_reflect no_shear #
face $18 $19 $20 $7 $-1 $21 reversed single #
shell $-1 $-1 $-1 $22 $-1 $9 #
model_id-kcp-attrib $-1 $-1 $11 $6 1 990666371 90 609878019 1 #
shell $-1 $-1 $-1 $23 $-1 $12 #
model_id-kcp-attrib $-1 $24 $-1 $14 1 990666371 60 607911937 2 #
face $25 $26 $27 $7 $-1 $28 reversed single #
loop $29 $30 $31 $14 #
cone-surface $32 0 0 0 0 0 1 5 0 0 1 I I 0 1 5 forward I I I I #
face $-1 $33 $34 $15 $-1 $35 forward single #
face $-1 $36 $37 $17 $-1 $38 forward single #
face_name-twe-attrib $-1 $-1 $18 $14 1 #
model_id-kcp-attrib $-1 $39 $-1 $19 1 990666371 60 607911937 3 #
face $40 $41 $42 $7 $-1 $43 reversed single #
loop $44 $-1 $45 $19 #
plane-surface $46 -4.7552825814757798 1.5450849718747099 0 0.58622749982823896 -0.42591920971146602 -0.68915175777465199 -0.76169464242271101 0 -0.64793616329430004 forward_v I I I I #
model_id-kcp-attrib $-1 $47 $-1 $20 1 990666371 60 607911937 16 #
loop $48 $-1 $49 $14 #
coedge $-1 $31 $31 $50 $51 reversed $20 $-1 #
surf-twe-attrib $-1 $-1 $-1 $21 4 #
face $52 $53 $54 $15 $-1 $55 reversed single #
loop $-1 $-1 $56 $22 #
plane-surface $-1 0 0 2.5000000000000027 0 0 1 1 0 0 forward_v I I I I #
face $-1 $57 $58 $17 $-1 $59 forward single #
loop $-1 $60 $61 $23 #
cone-surface $-1 0 0 0 0 0 1 5 0 0 1 I I 0 1 5 forward I I I I #
face_name-twe-attrib $-1 $-1 $25 $19 2 #
model_id-kcp-attrib $-1 $62 $-1 $26 1 990666371 60 607911937 4 #
face $63 $64 $65 $7 $-1 $66 reversed single #
loop $67 $-1 $68 $26 #
plane-surface $69 -2.9389262614623899 4.0450849718747204 0 0.22391897979451594 -0.68915175777465087 -0.68915175777465187 -0.95105651629515198 0 -0.309016994374951 forward_v I I I I #
model_id-kcp-attrib $-1 $70 $-1 $27 1 990666371 60 607911937 24 #
coedge $-1 $71 $72 $73 $74 forward $27 $-1 #
surf-twe-attrib $-1 $-1 $-1 $28 6 #
loop_type-twe-attrib $-1 $-1 $29 $20 0 #
model_id-kcp-attrib $-1 $75 $-1 $30 1 990666371 60 607911937 17 #
coedge $-1 $76 $77 $78 $79 reversed $30 $-1 #
coedge $-1 $50 $50 $31 $51 forward $80 $-1 #
edge $81 $82 -3.1415926535897998 $82 3.1415926535897865 $50 $83 forward 7 unknown #
model_id-kcp-attrib $-1 $-1 $-1 $33 1 990666371 60 607911938 2 #
face $-1 $84 $85 $15 $-1 $86 reversed single #
loop $-1 $-1 $87 $33 #
plane-surface $-1 0 0 -2.5000000000000027 0 0 1 1 0 0 forward_v I I I I #
coedge $-1 $88 $89 $90 $91 forward $34 $-1 #
face $-1 $-1 $92 $17 $-1 $93 forward single #
loop $-1 $-1 $94 $36 #
plane-surface $-1 0 0 -2.5000000000000004 0 0 -1 -1 0 0 forward_v I I I I #
loop $-1 $-1 $95 $23 #
coedge $-1 $61 $61 $94 $96 reversed $37 $-1 #
face_name-twe-attrib $-1 $-1 $40 $26 3 #
model_id-kcp-attrib $-1 $97 $-1 $41 1 990666371 60 607911937 5 #
face $98 $99 $100 $7 $-1 $101 reversed single #
loop $102 $-1 $103 $41 #
plane-surface $104 -1.7319479184152401e-014 5 0 -0.22391897979451103 -0.6891517577746521 -0.6891517577746521 -0.95105651629515398 0 0.30901699437494501 forward_v I I I I #
model_id-kcp-attrib $-1 $105 $-1 $42 1 990666371 60 607911937 23 #
coedge $-1 $106 $107 $108 $109 forward $42 $-1 #
surf-twe-attrib $-1 $-1 $-1 $43 10 #
loop_type-twe-attrib $-1 $-1 $44 $27 0 #
coedge $-1 $110 $45 $107 $111 forward $27 $-1 #
coedge $-1 $45 $110 $112 $113 reversed $27 $-1 #
coedge $-1 $114 $108 $45 $74 reversed $30 $-1 #
edge $115 $116 2.8274333882308138 $117 3.455751918948772 $45 $118 forward 7 unknown #
loop_type-twe-attrib $-1 $-1 $48 $30 1 #
coedge $-1 $119 $49 $120 $121 reversed $30 $-1 #
coedge $-1 $49 $122 $123 $124 reversed $30 $-1 #
coedge $-1 $125 $126 $49 $79 forward $127 $-1 #
edge $128 $129 -0.31415926535897343 $130 0.31415926535897343 $78 $131 forward 7 unknown #
loop $132 $133 $50 $134 #
attrib_edge_convexity-kcp-attrib $-1 $135 $-1 $51 1 #
vertex $-1 $51 $136 #
ellipse-curve $137 0 0 -5 0 0 1 5 0 0 1 I I #
face $-1 $138 $139 $15 $-1 $140 reversed single #
loop $-1 $-1 $141 $53 #
plane-surface $-1 0 -10 0 0 1 0 0 0 1 forward_v I I I I #
coedge $-1 $142 $143 $144 $145 forward $54 $-1 #
coedge $-1 $146 $56 $147 $148 forward $34 $-1 #
coedge $-1 $56 $146 $149 $150 forward $34 $-1 #
coedge $-1 $151 $152 $56 $91 reversed $153 $-1 #
edge $-1 $154 -10 $155 10 $90 $156 forward 7 unknown #
loop $-1 $-1 $157 $57 #
plane-surface $-1 0 0 2.5000000000000004 0 0 1 1 0 0 forward_v I I I I #
coedge $-1 $94 $94 $61 $96 forward $58 $-1 #
coedge $-1 $95 $95 $157 $158 reversed $60 $-1 #
edge $-1 $159 0 $159 6.2831853071795862 $94 $160 forward 7 unknown #
face_name-twe-attrib $-1 $-1 $63 $41 4 #
model_id-kcp-attrib $-1 $161 $-1 $64 1 990666371 60 607911937 6 #
face $162 $134 $163 $7 $-1 $164 reversed single #
loop $165 $-1 $166 $64 #
plane-surface $167 2.9389262614623601 4.0450849718747399 0 -0.58622749982823597 -0.42591920971147001 -0.68915175777465199 -0.76169464242271301 0 0.64793616329429804 forward_v I I I I #
model_id-kcp-attrib $-1 $168 $-1 $65 1 990666371 60 607911937 22 #
coedge $-1 $169 $170 $171 $172 forward $65 $-1 #
surf-twe-attrib $-1 $-1 $-1 $66 18 #
loop_type-twe-attrib $-1 $-1 $67 $42 0 #
coedge $-1 $173 $68 $170 $174 forward $42 $-1 #
coedge $-1 $68 $173 $71 $111 reversed $42 $-1 #
coedge $-1 $73 $171 $68 $109 reversed $30 $-1 #
edge $175 $117 2.8274333882308129 $176 3.4557519189487733 $68 $177 forward 7 unknown #
coedge $-1 $72 $71 $178 $179 reversed $27 $-1 #
edge $180 $117 1.8457543838999188e-016 $181 7.0710678118654799 $107 $182 forward 7 unknown #
coedge $-1 $183 $184 $72 $113 forward $185 $-1 #
edge $186 $116 0 $187 7.0710678118654764 $72 $188 forward 7 unknown #
coedge $-1 $189 $73 $184 $190 reversed $30 $-1 #
attrib_edge_convexity-kcp-attrib $-1 $191 $-1 $74 1 #
vertex $-1 $190 $192 #
vertex $-1 $109 $193 #
ellipse-curve $194 0 0 5 0.58622749982823896 -0.42591920971146602 -0.68915175777465199 4.0450849718747497 -2.9389262614623402 5.2573111211913401 0.68915175777465199 I I #
coedge $-1 $171 $76 $166 $195 reversed $30 $-1 #
coedge $-1 $196 $197 $76 $121 forward $163 $-1 #
edge $198 $199 -0.31415926535897976 $129 0.31415926535897976 $120 $200 forward 7 unknown #
coedge $-1 $77 $189 $201 $202 reversed $30 $-1 #
coedge $-1 $203 $204 $77 $124 forward $205 $-1 #
edge $206 $130 -0.31415926535897948 $207 0.31415926535897987 $123 $208 forward 7 unknown #
coedge $-1 $209 $78 $204 $210 forward $127 $-1 #
coedge $-1 $78 $209 $196 $211 reversed $127 $-1 #
loop $212 $-1 $78 $213 #
attrib_edge_convexity-kcp-attrib $-1 $214 $-1 $79 1 #
vertex $-1 $79 $215 #
vertex $-1 $79 $216 #
ellipse-curve $217 0 0 5 -0.58622749982823819 0.42591920971146618 -0.68915175777465232 4.0450849718747497 -2.9389262614623402 -5.2573111211913304 0.68915175777465199 I I #
model_id-kcp-attrib $-1 $218 $-1 $80 1 990666371 60 607911937 18 #
loop $219 $-1 $220 $134 #
face $221 $213 $80 $7 $-1 $222 reversed single #
convexity-sys-attrib $-1 $223 $81 $51 #
point $-1 -5 3.4914813494061298e-014 -5 #
cur-twe-attrib $-1 $-1 $-1 $83 27 #
face $-1 $224 $225 $15 $-1 $226 reversed single #
loop $-1 $-1 $227 $84 #
plane-surface $-1 -9.5105651629515489 0 0 1 0 0 0 0 -1 forward_v I I I I #
coedge $-1 $228 $149 $229 $230 forward $85 $-1 #
coedge $-1 $231 $87 $228 $232 forward $54 $-1 #
coedge $-1 $87 $231 $233 $234 forward $54 $-1 #
coedge $-1 $152 $151 $87 $145 reversed $153 $-1 #
edge $-1 $235 -10 $236 10 $144 $237 forward 7 unknown #
coedge $-1 $89 $88 $238 $239 forward $34 $-1 #
coedge $-1 $240 $241 $88 $148 reversed $225 $-1 #
edge $-1 $155 -9.5105651629515489 $242 9.5105651629515489 $147 $243 forward 7 unknown #
coedge $-1 $141 $244 $89 $150 reversed $85 $-1 #
edge $-1 $245 -9.5105651629515489 $154 9.5105651629515489 $149 $246 forward 7 unknown #
coedge $-1 $144 $90 $244 $247 forward $153 $-1 #
coedge $-1 $90 $144 $240 $248 reversed $153 $-1 #
loop $-1 $-1 $151 $224 #
vertex $-1 $91 $249 #
vertex $-1 $91 $250 #
straight-curve $-1 9.5105651629515489 0 2.5000000000000027 0 1 0 I I #
coedge $-1 $157 $157 $95 $158 forward $92 $-1 #
edge $-1 $251 0 $251 6.2831853071795862 $157 $252 forward 7 unknown #
vertex $-1 $96 $253 #
ellipse-curve $-1 0 0 -2.5000000000000004 0 0 -1 5 0 0 1 I I #
face_name-twe-attrib $-1 $-1 $98 $64 5 #
model_id-kcp-attrib $-1 $254 $-1 $99 1 990666371 60 607911937 7 #
loop $255 $-1 $120 $99 #
plane-surface $256 4.75528258147577 1.5450849718747399 0 -0.72461704006744687 0 -0.68915175777465187 -0.68915175777465199 0 0.72461704006744698 forward_v I I I I #
model_id-kcp-attrib $-1 $257 $-1 $100 1 990666371 60 607911937 21 #
coedge $-1 $258 $259 $119 $195 forward $100 $-1 #
surf-twe-attrib $-1 $-1 $-1 $101 29 #
loop_type-twe-attrib $-1 $-1 $102 $65 0 #
coedge $-1 $260 $103 $259 $261 forward $65 $-1 #
coedge $-1 $103 $260 $106 $174 reversed $65 $-1 #
coedge $-1 $108 $119 $103 $172 reversed $30 $-1 #
edge $262 $176 -0.31415926535897931 $263 0.31415926535898125 $103 $264 forward 7 unknown #
coedge $-1 $107 $106 $265 $266 reversed $42 $-1 #
edge $267 $176 0 $268 7.0710678118654808 $170 $269 forward 7 unknown #
attrib_edge_convexity-kcp-attrib $-1 $270 $-1 $109 1 #
vertex $-1 $172 $271 #
ellipse-curve $272 0 0 5 0.22391897979451594 -0.68915175777465087 -0.68915175777465187 1.5450849718747599 -4.7552825814757602 5.2573111211913401 0.68915175777465199 I I #
coedge $-1 $265 $273 $110 $179 forward $133 $-1 #
edge $274 $187 -3.0901699437494883 $181 3.0901699437494821 $110 $275 forward 7 unknown #
edge_name-twe-attrib $-1 $-1 $-1 $111 6 8448 #
vertex $-1 $266 $276 #
straight-curve $277 -2.9389262614623899 4.0450849718747204 0 -0.41562693777745602 0.57206140281768203 -0.70710678118654702 I I #
coedge $-1 $278 $112 $273 $279 reversed $185 $-1 #
coedge $-1 $112 $278 $114 $190 forward $185 $-1 #
loop $280 $-1 $184 $281 #
edge_name-twe-attrib $-1 $-1 $-1 $113 3 8448 #
vertex $-1 $179 $282 #
straight-curve $283 -4.7552825814757798 1.5450849718747099 0 -0.67249851196395904 0.218508012224406 -0.70710678118654702 I I #
coedge $-1 $122 $114 $284 $285 reversed $30 $-1 #
edge $286 $287 2.8274333882308076 $116 3.4557519189487667 $184 $288 forward 7 unknown #
convexity-sys-attrib $-1 $289 $115 $74 #
point $-1 -4.7552825814757798 1.5450849718747099 0 #
point $-1 -2.9389262614623899 4.0450849718747204 -2.6102908825208602e-016 #
cur-twe-attrib $-1 $-1 $-1 $118 38 #
edge $290 $263 -0.31415926535897887 $199 0.31415926535898037 $166 $291 forward 7 unknown #
coedge $-1 $292 $120 $126 $211 forward $163 $-1 #
coedge $-1 $120 $292 $258 $293 reversed $163 $-1 #
attrib_edge_convexity-kcp-attrib $-1 $294 $-1 $121 1 #
vertex $-1 $121 $295 #
ellipse-curve $296 0 0 5 -0.72461704006744687 0 -0.68915175777465187 5 0 -5.2573111211913401 0.68915175777465199 I I #
coedge $-1 $297 $298 $122 $202 forward $299 $-1 #
edge $300 $207 2.8274333882308134 $301 3.4557519189487733 $201 $302 forward 7 unknown #
coedge $-1 $303 $123 $298 $304 forward $205 $-1 #
coedge $-1 $123 $303 $125 $210 reversed $205 $-1 #
loop $305 $-1 $123 $306 #
attrib_edge_convexity-kcp-attrib $-1 $307 $-1 $124 1 #
vertex $-1 $124 $308 #
ellipse-curve $309 0 0 5 -0.22391897979452099 0.68915175777464899 -0.68915175777465199 1.5450849718747901 -4.7552825814757496 -5.2573111211913401 0.68915175777465199 I I #
coedge $-1 $126 $125 $310 $311 reversed $127 $-1 #
edge $312 $130 0 $313 7.0710678118654799 $204 $314 forward 7 unknown #
edge $315 $129 4.8518525247323281e-017 $316 7.0710678118654737 $196 $317 forward 7 unknown #
model_id-kcp-attrib $-1 $318 $-1 $127 1 990666371 60 607911937 19 #
face $319 $306 $127 $7 $-1 $320 reversed single #
convexity-sys-attrib $-1 $321 $128 $79 #
point $-1 4.75528258147577 -1.5450849718747399 -6.8615556431106001e-017 #
point $-1 2.9389262614624099 -4.0450849718747 0 #
cur-twe-attrib $-1 $-1 $-1 $131 42 #
loop_type-twe-attrib $-1 $-1 $132 $80 1 #
loop_type-twe-attrib $-1 $-1 $-1 $133 0 #
coedge $-1 $310 $322 $292 $323 forward $133 $-1 #
model_id-kcp-attrib $-1 $324 $-1 $134 1 990666371 60 607911937 15 #
plane-surface $325 0 0 -5 0 0 1 1 0 0 forward_v I I I I #
edge_name-twe-attrib $-1 $-1 $135 $51 17 8704 #
face $-1 $-1 $153 $15 $-1 $326 reversed single #
loop $-1 $-1 $240 $138 #
plane-surface $-1 0 10 0 0 -1 0 0 0 -1 forward_v I I I I #
coedge $-1 $327 $238 $241 $328 forward $139 $-1 #
coedge $-1 $244 $141 $142 $232 reversed $85 $-1 #
coedge $-1 $238 $327 $141 $230 reversed $139 $-1 #
edge $-1 $245 -2.5000000000000027 $329 2.5000000000000027 $229 $330 forward 7 unknown #
coedge $-1 $143 $142 $327 $331 forward $54 $-1 #
edge $-1 $236 -9.5105651629515489 $329 9.5105651629515489 $228 $332 forward 7 unknown #
coedge $-1 $241 $240 $143 $234 reversed $225 $-1 #
edge $-1 $333 -9.5105651629515489 $235 9.5105651629515489 $233 $334 forward 7 unknown #
vertex $-1 $145 $335 #
vertex $-1 $247 $336 #
straight-curve $-1 9.5105651629515489 0 -2.5000000000000027 0 -1 0 I I #
coedge $-1 $227 $229 $146 $239 reversed $139 $-1 #
edge $-1 $242 -10 $245 10 $238 $337 forward 7 unknown #
coedge $-1 $233 $147 $152 $248 forward $225 $-1 #
coedge $-1 $147 $233 $227 $328 reversed $225 $-1 #
vertex $-1 $148 $338 #
straight-curve $-1 0 10 2.5000000000000027 -1 0 0 I I #
coedge $-1 $149 $228 $151 $247 reversed $85 $-1 #
vertex $-1 $239 $339 #
straight-curve $-1 0 -10 2.5000000000000027 1 0 0 I I #
edge $-1 $154 -2.5000000000000027 $236 2.5000000000000027 $151 $340 forward 7 unknown #
edge $-1 $155 -2.5000000000000027 $235 2.5000000000000027 $152 $341 forward 7 unknown #
point $-1 9.5105651629515489 -10 2.5000000000000027 #
point $-1 9.5105651629515489 10 2.5000000000000027 #
vertex $-1 $158 $342 #
ellipse-curve $-1 0 0 2.5000000000000004 0 0 1 5 0 0 1 I I #
point $-1 5 0 -2.5000000000000004 #
face_name-twe-attrib $-1 $-1 $162 $99 6 #
model_id-kcp-attrib $-1 $343 $-1 $163 1 990666371 60 607911937 20 #
surf-twe-attrib $-1 $-1 $-1 $164 48 #
loop_type-twe-attrib $-1 $-1 $165 $100 0 #
coedge $-1 $344 $166 $197 $293 forward $100 $-1 #
coedge $-1 $166 $344 $169 $261 reversed $100 $-1 #
coedge $-1 $170 $169 $345 $346 reversed $65 $-1 #
edge $347 $263 -1.8457543838998976e-016 $348 7.0710678118654808 $259 $349 forward 7 unknown #
attrib_edge_convexity-kcp-attrib $-1 $350 $-1 $172 1 #
vertex $-1 $195 $351 #
ellipse-curve $352 0 0 5 -0.22391897979451103 -0.6891517577746521 -0.6891517577746521 1.5450849718747199 4.75528258147577 -5.2573111211913401 0.68915175777465199 I I #
coedge $-1 $345 $178 $173 $266 forward $133 $-1 #
edge $353 $181 -3.0901699437494821 $268 3.0901699437494803 $173 $354 forward 7 unknown #
edge_name-twe-attrib $-1 $-1 $-1 $174 9 8448 #
vertex $-1 $346 $355 #
straight-curve $356 -1.74574067470307e-014 5 0 -2.46885013855143e-015 0.70710678118654702 -0.70710678118654702 I I #
convexity-sys-attrib $-1 $357 $175 $109 #
point $-1 -1.74574067470307e-014 5 0 #
cur-twe-attrib $-1 $-1 $-1 $177 57 #
coedge $-1 $178 $358 $183 $279 forward $133 $-1 #
attrib_edge_convexity-kcp-attrib $-1 $359 $-1 $179 1 #
straight-curve $360 -7.6942088429381599 5.5901699437494301 -5 0.58778525229246903 0.809016994374951 0 I I #
point $-1 -5.87785252292477 8.0901699437494496 -5 #
cur-twe-attrib $-1 $-1 $-1 $182 59 #
coedge $-1 $184 $183 $361 $362 reversed $185 $-1 #
edge $363 $364 -3.0901699437494812 $187 3.090169943749479 $183 $365 forward 7 unknown #
model_id-kcp-attrib $-1 $366 $-1 $185 1 990666371 60 607911937 25 #
face $367 $-1 $185 $7 $-1 $368 reversed single #
point $-1 -9.5105651629515595 3.0901699437494101 -5 #
cur-twe-attrib $-1 $-1 $-1 $188 61 #
coedge $-1 $361 $369 $189 $285 forward $370 $-1 #
edge $371 $301 2.8274333882308142 $287 3.4557519189487742 $284 $372 forward 7 unknown #
attrib_edge_convexity-kcp-attrib $-1 $373 $-1 $190 1 #
vertex $-1 $285 $374 #
ellipse-curve $375 0 0 5 0.72461704006744687 5.2067461438219794e-015 -0.68915175777465187 5 0 5.2573111211913401 0.68915175777465199 I I #
edge_name-twe-attrib $-1 $-1 $191 $74 1 9216 #
attrib_edge_convexity-kcp-attrib $-1 $376 $-1 $195 1 #
ellipse-curve $377 0 0 5 -0.58622749982823597 -0.42591920971147001 -0.68915175777465199 4.0450849718747302 2.9389262614623699 -5.2573111211913401 0.68915175777465199 I I #
coedge $-1 $197 $196 $220 $323 reversed $163 $-1 #
edge $378 $199 4.8518525247323281e-017 $379 7.0710678118654737 $197 $380 forward 7 unknown #
convexity-sys-attrib $-1 $381 $198 $121 #
point $-1 4.75528258147577 1.5450849718747399 -6.8615556431106001e-017 #
cur-twe-attrib $-1 $-1 $-1 $200 69 #
coedge $-1 $382 $201 $369 $383 forward $299 $-1 #
coedge $-1 $201 $382 $203 $304 reversed $299 $-1 #
loop $384 $-1 $201 $385 #
attrib_edge_convexity-kcp-attrib $-1 $386 $-1 $202 1 #
vertex $-1 $202 $387 #
ellipse-curve $388 0 0 5 0.22391897979450595 0.68915175777465387 -0.68915175777465187 1.54508497187469 4.7552825814757798 5.2573111211913401 0.68915175777465199 I I #
coedge $-1 $204 $203 $389 $390 reversed $205 $-1 #
edge $391 $207 0 $392 7.0710678118654808 $298 $393 forward 7 unknown #
model_id-kcp-attrib $-1 $394 $-1 $205 1 990666371 60 607911937 28 #
face $395 $385 $205 $7 $-1 $396 reversed single #
convexity-sys-attrib $-1 $397 $206 $124 #
point $-1 5.2372220241091998e-014 -5 0 #
cur-twe-attrib $-1 $-1 $-1 $208 72 #
coedge $-1 $389 $220 $209 $311 forward $133 $-1 #
edge $398 $316 -3.0901699437494172 $313 3.0901699437494172 $209 $399 forward 7 unknown #
edge_name-twe-attrib $-1 $-1 $-1 $210 22 8448 #
vertex $-1 $390 $400 #
straight-curve $401 2.9389262614624099 -4.0450849718747 0 0.41562693777746001 -0.57206140281768003 -0.70710678118654702 I I #
edge_name-twe-attrib $-1 $-1 $-1 $211 14 8448 #
vertex $-1 $211 $402 #
straight-curve $403 4.75528258147577 -1.5450849718747399 0 0.67249851196395705 -0.21850801222441099 -0.70710678118654702 I I #
loop_type-twe-attrib $-1 $-1 $212 $127 0 #
model_id-kcp-attrib $-1 $404 $-1 $213 1 990666371 60 607911937 9 #
plane-surface $405 4.75528258147577 -1.5450849718747399 0 -0.58622749982823819 0.42591920971146618 -0.68915175777465232 -0.76169464242271201 0 0.64793616329429904 forward_v I I I I #
edge_name-twe-attrib $-1 $-1 $214 $79 18 9216 #
coedge $-1 $220 $345 $344 $406 forward $133 $-1 #
edge $407 $379 -3.0901699437494798 $316 3.0901699437494798 $292 $408 forward 7 unknown #
model_id-kcp-attrib $-1 $409 $221 $134 1 990666371 60 607911937 14 #
surf-twe-attrib $-1 $-1 $-1 $222 82 #
plane-surface $-1 9.5105651629515489 0 0 -1 0 0 0 0 1 forward_v I I I I #
coedge $-1 $229 $227 $231 $331 reversed $139 $-1 #
edge $-1 $242 -2.5000000000000027 $333 2.5000000000000027 $241 $410 forward 7 unknown #
vertex $-1 $331 $411 #
straight-curve $-1 -9.5105651629515489 -10 0 0 0 -1 I I #
edge $-1 $329 -10 $333 10 $327 $412 forward 7 unknown #
straight-curve $-1 0 -10 -2.5000000000000027 -1 0 0 I I #
vertex $-1 $234 $413 #
straight-curve $-1 0 10 -2.5000000000000027 1 0 0 I I #
point $-1 9.5105651629515489 10 -2.5000000000000027 #
point $-1 9.5105651629515489 -10 -2.5000000000000027 #
straight-curve $-1 -9.5105651629515489 0 2.5000000000000027 0 -1 0 I I #
point $-1 -9.5105651629515489 10 2.5000000000000027 #
point $-1 -9.5105651629515489 -10 2.5000000000000027 #
straight-curve $-1 9.5105651629515489 -10 0 0 0 -1 I I #
straight-curve $-1 9.5105651629515489 10 0 0 0 -1 I I #
point $-1 5 0 2.5000000000000004 #
loop_type-twe-attrib $-1 $-1 $255 $163 0 #
coedge $-1 $259 $258 $322 $406 reversed $100 $-1 #
coedge $-1 $322 $265 $260 $346 forward $133 $-1 #
edge $414 $268 -3.0901699437494816 $348 3.0901699437494727 $260 $415 forward 7 unknown #
edge_name-twe-attrib $-1 $-1 $-1 $261 12 8448 #
vertex $-1 $406 $416 #
straight-curve $417 2.9389262614623601 4.0450849718747399 0 0.41562693777745202 0.57206140281768503 -0.70710678118654702 I I #
convexity-sys-attrib $-1 $418 $262 $172 #
point $-1 2.9389262614623601 4.0450849718747399 2.6102908825208302e-016 #
cur-twe-attrib $-1 $-1 $-1 $264 94 #
attrib_edge_convexity-kcp-attrib $-1 $419 $-1 $266 1 #
straight-curve $420 -2.9389262614624001 9.0450849718747204 -5 0.95105651629515198 0.309016994374951 0 I I #
point $-1 -3.4914813494061298e-014 10 -5 #
cur-twe-attrib $-1 $-1 $-1 $269 96 #
edge_name-twe-attrib $-1 $-1 $270 $109 4 9216 #
coedge $-1 $273 $421 $422 $423 forward $133 $-1 #
convexity-sys-attrib $-1 $424 $274 $179 #
cur-twe-attrib $-1 $-1 $-1 $275 101 #
coedge $-1 $422 $284 $278 $362 forward $370 $-1 #
edge $425 $287 0 $364 7.071067811865472 $278 $426 forward 7 unknown #
attrib_edge_convexity-kcp-attrib $-1 $427 $-1 $279 1 #
vertex $-1 $279 $428 #
straight-curve $429 -9.5105651629515293 -6.8611782921834699e-014 -5 -7.1855143557448404e-015 1 0 I I #
loop_type-twe-attrib $-1 $-1 $280 $185 0 #
model_id-kcp-attrib $-1 $430 $-1 $281 1 990666371 60 607911937 13 #
plane-surface $431 -4.7552825814757496 -1.5450849718747699 0 0.72461704006744687 5.2067461438219794e-015 -0.68915175777465187 -0.68915175777465199 0 -0.72461704006744698 forward_v I I I I #
coedge $-1 $284 $422 $297 $383 reversed $370 $-1 #
loop $432 $-1 $284 $433 #
attrib_edge_convexity-kcp-attrib $-1 $434 $-1 $285 1 #
ellipse-curve $435 0 0 5 0.58622749982823297 0.42591920971147401 -0.68915175777465199 4.0450849718747097 2.9389262614624001 5.2573111211913401 0.68915175777465199 I I #
convexity-sys-attrib $-1 $436 $286 $190 #
point $-1 -4.7552825814757602 -1.5450849718747699 0 #
cur-twe-attrib $-1 $-1 $-1 $288 112 #
convexity-sys-attrib $-1 $437 $290 $195 #
cur-twe-attrib $-1 $-1 $-1 $291 116 #
edge_name-twe-attrib $-1 $-1 $-1 $293 16 8448 #
vertex $-1 $323 $438 #
straight-curve $439 4.75528258147577 1.5450849718747399 0 0.67249851196395705 0.21850801222441099 -0.70710678118654702 I I #
edge_name-twe-attrib $-1 $-1 $294 $121 13 9216 #
coedge $-1 $298 $297 $421 $440 reversed $299 $-1 #
edge $441 $301 -6.0971111127126157e-015 $442 7.071067811865472 $369 $443 forward 7 unknown #
model_id-kcp-attrib $-1 $444 $-1 $299 1 990666371 60 607911937 27 #
face $445 $433 $299 $7 $-1 $446 reversed single #
convexity-sys-attrib $-1 $447 $300 $202 #
point $-1 -2.9389262614623299 -4.0450849718747603 7.1855143557449096e-016 #
cur-twe-attrib $-1 $-1 $-1 $302 123 #
coedge $-1 $421 $310 $303 $390 forward $133 $-1 #
edge $448 $313 -3.0901699437494785 $392 3.0901699437494767 $303 $449 forward 7 unknown #
edge_name-twe-attrib $-1 $-1 $-1 $304 25 8448 #
vertex $-1 $440 $450 #
straight-curve $451 5.2372220241091998e-014 -5 0 7.4065504156543005e-015 -0.70710678118654702 -0.70710678118654702 I I #
loop_type-twe-attrib $-1 $-1 $305 $205 0 #
model_id-kcp-attrib $-1 $452 $-1 $306 1 990666371 60 607911937 10 #
plane-surface $453 2.9389262614624099 -4.0450849718747 0 -0.22391897979452099 0.68915175777464899 -0.68915175777465199 -0.95105651629515098 0 0.309016994374957 forward_v I I I I #
edge_name-twe-attrib $-1 $-1 $307 $124 20 9216 #
attrib_edge_convexity-kcp-attrib $-1 $454 $-1 $311 1 #
straight-curve $455 7.6942088429381803 -5.5901699437494496 -5 -0.58778525229246903 -0.809016994374951 0 I I #
point $-1 5.8778525229248197 -8.0901699437494106 -5 #
cur-twe-attrib $-1 $-1 $-1 $314 131 #
point $-1 9.5105651629515293 -3.0901699437494798 -5 #
cur-twe-attrib $-1 $-1 $-1 $317 132 #
face_name-twe-attrib $-1 $-1 $319 $213 8 #
surf-twe-attrib $-1 $-1 $-1 $320 134 #
edge $456 $348 -3.0901699437494869 $379 3.0901699437494772 $344 $457 forward 7 unknown #
attrib_edge_convexity-kcp-attrib $-1 $458 $-1 $323 1 #
straight-curve $459 9.5105651629515293 0 -5 0 -1 0 I I #
model_id-kcp-attrib $-1 $460 $324 $134 1 990666371 60 607911937 8 #
straight-curve $-1 -9.5105651629515489 10 0 0 0 -1 I I #
point $-1 -9.5105651629515489 -10 -2.5000000000000027 #
straight-curve $-1 -9.5105651629515489 0 -2.5000000000000027 0 1 0 I I #
point $-1 -9.5105651629515489 10 -2.5000000000000027 #
attrib_edge_convexity-kcp-attrib $-1 $461 $-1 $346 1 #
straight-curve $462 2.9389262614623402 9.0450849718747399 -5 0.95105651629515497 -0.30901699437494501 0 I I #
point $-1 5.8778525229247096 8.0901699437494905 -5 #
cur-twe-attrib $-1 $-1 $-1 $349 147 #
edge_name-twe-attrib $-1 $-1 $350 $172 7 9216 #
convexity-sys-attrib $-1 $463 $353 $266 #
cur-twe-attrib $-1 $-1 $-1 $354 152 #
coedge $-1 $358 $389 $382 $440 forward $133 $-1 #
coedge $-1 $369 $361 $358 $423 reversed $370 $-1 #
edge $464 $442 -3.0901699437494825 $364 3.0901699437494834 $422 $465 forward 7 unknown #
edge_name-twe-attrib $-1 $-1 $359 $179 2 9216 #
edge_name-twe-attrib $-1 $-1 $-1 $362 31 8448 #
straight-curve $466 -4.7552825814757602 -1.5450849718747699 0 -0.67249851196395605 -0.21850801222441599 -0.70710678118654702 I I #
convexity-sys-attrib $-1 $467 $363 $279 #
point $-1 -9.5105651629515098 -3.09016994374955 -5 #
cur-twe-attrib $-1 $-1 $-1 $365 164 #
face_name-twe-attrib $-1 $-1 $367 $281 12 #
surf-twe-attrib $-1 $-1 $-1 $368 166 #
model_id-kcp-attrib $-1 $468 $-1 $370 1 990666371 60 607911937 26 #
face $469 $281 $370 $7 $-1 $470 reversed single #
convexity-sys-attrib $-1 $471 $371 $285 #
cur-twe-attrib $-1 $-1 $-1 $372 170 #
edge_name-twe-attrib $-1 $-1 $373 $190 29 9216 #
edge_name-twe-attrib $-1 $-1 $376 $195 10 9216 #
point $-1 9.5105651629515293 3.0901699437494798 -5 #
cur-twe-attrib $-1 $-1 $-1 $380 177 #
edge $472 $392 -3.0901699437494754 $442 3.0901699437494772 $382 $473 forward 7 unknown #
edge_name-twe-attrib $-1 $-1 $-1 $383 28 8448 #
vertex $-1 $423 $474 #
straight-curve $475 -2.9389262614623299 -4.0450849718747701 0 -0.41562693777744802 -0.57206140281768803 -0.70710678118654702 I I #
loop_type-twe-attrib $-1 $-1 $384 $299 0 #
model_id-kcp-attrib $-1 $476 $-1 $385 1 990666371 60 607911937 11 #
plane-surface $477 5.2402526762307401e-014 -5 0 0.22391897979450595 0.68915175777465387 -0.68915175777465187 -0.95105651629515597 0 -0.30901699437493901 forward_v I I I I #
edge_name-twe-attrib $-1 $-1 $386 $202 23 9216 #
attrib_edge_convexity-kcp-attrib $-1 $478 $-1 $390 1 #
straight-curve $479 2.9389262614624601 -9.0450849718747008 -5 -0.95105651629514998 -0.309016994374958 0 I I #
point $-1 1.04744440482184e-013 -10 -5 #
cur-twe-attrib $-1 $-1 $-1 $393 187 #
face_name-twe-attrib $-1 $-1 $395 $306 9 #
surf-twe-attrib $-1 $-1 $-1 $396 189 #
convexity-sys-attrib $-1 $480 $398 $311 #
cur-twe-attrib $-1 $-1 $-1 $399 193 #
attrib_edge_convexity-kcp-attrib $-1 $481 $-1 $406 1 #
straight-curve $482 7.6942088429381199 5.5901699437494798 -5 0.58778525229247403 -0.80901699437494701 0 I I #
convexity-sys-attrib $-1 $483 $407 $323 #
cur-twe-attrib $-1 $-1 $-1 $408 203 #
face_name-twe-attrib $-1 $-1 $409 $134 7 #
convexity-sys-attrib $-1 $484 $414 $346 #
cur-twe-attrib $-1 $-1 $-1 $415 207 #
edge_name-twe-attrib $-1 $-1 $419 $266 5 9216 #
attrib_edge_convexity-kcp-attrib $-1 $485 $-1 $423 1 #
straight-curve $486 -7.6942088429380799 -5.5901699437495402 -5 -0.58778525229248002 0.80901699437494201 0 I I #
cur-twe-attrib $-1 $-1 $-1 $426 220 #
edge_name-twe-attrib $-1 $-1 $427 $279 30 9216 #
loop_type-twe-attrib $-1 $-1 $432 $370 0 #
model_id-kcp-attrib $-1 $487 $-1 $433 1 990666371 60 607911937 12 #
plane-surface $488 -2.9389262614623299 -4.0450849718747701 0 0.58622749982823297 0.42591920971147401 -0.68915175777465199 -0.76169464242271501 0 -0.64793616329429604 forward_v I I I I #
edge_name-twe-attrib $-1 $-1 $434 $285 26 9216 #
attrib_edge_convexity-kcp-attrib $-1 $489 $-1 $440 1 #
straight-curve $490 -2.93892626146227 -9.0450849718747595 -5 -0.95105651629515697 0.30901699437493801 0 I I #
point $-1 -5.8778525229246501 -8.0901699437495296 -5 #
cur-twe-attrib $-1 $-1 $-1 $443 237 #
face_name-twe-attrib $-1 $-1 $445 $385 10 #
surf-twe-attrib $-1 $-1 $-1 $446 239 #
convexity-sys-attrib $-1 $491 $448 $390 #
cur-twe-attrib $-1 $-1 $-1 $449 243 #
edge_name-twe-attrib $-1 $-1 $454 $311 19 9216 #
convexity-sys-attrib $-1 $492 $456 $406 #
cur-twe-attrib $-1 $-1 $-1 $457 256 #
edge_name-twe-attrib $-1 $-1 $458 $323 15 9216 #
edge_name-twe-attrib $-1 $-1 $461 $346 8 9216 #
convexity-sys-attrib $-1 $493 $464 $423 #
cur-twe-attrib $-1 $-1 $-1 $465 266 #
face_name-twe-attrib $-1 $-1 $469 $433 11 #
surf-twe-attrib $-1 $-1 $-1 $470 273 #
convexity-sys-attrib $-1 $494 $472 $440 #
cur-twe-attrib $-1 $-1 $-1 $473 277 #
edge_name-twe-attrib $-1 $-1 $478 $390 21 9216 #
edge_name-twe-attrib $-1 $-1 $481 $406 11 9216 #
edge_name-twe-attrib $-1 $-1 $485 $423 27 9216 #
edge_name-twe-attrib $-1 $-1 $489 $440 24 9216 #
End-of-ACIS-data 