600 0 1 0           
105 GICL ACIS Healer - Source: /gicl/data5/repository/ICEM-CDC/Fixture_Models/faces_tool/faces_tool.sat - 6 0 18 ACIS 6.0.3 Solaris 24 Sat Apr 13 23:05:30 2002 
1 9.999999999999999547e-07 1.000000000000000036e-10 
body $-1 $1 $-1 $2 #
lump $-1 $-1 $3 $0 #
transform $-1 1 0 0 0 1 0 0 0 1 0 0 0 1 no_rotate no_reflect no_shear #
shell $-1 $-1 $-1 $4 $-1 $1 #
face $5 $6 $7 $3 $-1 $8 reversed single #
face_name-twe-attrib $-1 $-1 $-1 $4 1 #
face $9 $10 $11 $3 $-1 $12 reversed single #
loop $13 $14 $15 $4 #
cone-surface $16 0 0 0 0 0 1 5 0 0 1 I I 0 1 5 forward I I I I #
face_name-twe-attrib $-1 $-1 $-1 $6 2 #
face $17 $18 $19 $3 $-1 $20 reversed single #
loop $21 $-1 $22 $6 #
plane-surface $23 -4.755282581475779757 1.545084971874709945 0 0.5862274998282389626 -0.425919209711466018 -0.6891517577746519851 -0.7616946424227110102 0 -0.6479361632943000382 forward_v I I I I #
loop_type-twe-attrib $-1 $-1 $-1 $7 0 #
loop $24 $-1 $25 $4 #
coedge $-1 $15 $15 $26 $27 reversed $7 $-1 #
surf-twe-attrib $-1 $-1 $-1 $8 4 #
face_name-twe-attrib $-1 $-1 $-1 $10 3 #
face $28 $29 $30 $3 $-1 $31 reversed single #
loop $32 $-1 $33 $10 #
plane-surface $34 -2.938926261462389888 4.045084971874720381 0 0.2239189797945159432 -0.6891517577746508749 -0.6891517577746518741 -0.9510565162951519769 0 -0.309016994374951004 forward_v I I I I #
loop_type-twe-attrib $-1 $-1 $-1 $11 0 #
coedge $-1 $35 $36 $37 $38 forward $11 $-1 #
surf-twe-attrib $-1 $-1 $-1 $12 6 #
loop_type-twe-attrib $-1 $-1 $-1 $14 1 #
coedge $-1 $39 $40 $41 $42 reversed $14 $-1 #
coedge $-1 $26 $26 $15 $27 forward $43 $-1 #
edge $44 $45 -3.141592653589799777 $45 3.141592653589786455 $26 $46 forward 7 unknown #
face_name-twe-attrib $-1 $-1 $-1 $18 4 #
face $47 $48 $49 $3 $-1 $50 reversed single #
loop $51 $-1 $52 $18 #
plane-surface $53 -1.731947918415240101e-14 5 0 -0.2239189797945110305 -0.6891517577746520962 -0.6891517577746520962 -0.9510565162951539753 0 0.3090169943749450088 forward_v I I I I #
loop_type-twe-attrib $-1 $-1 $-1 $19 0 #
coedge $-1 $54 $55 $56 $57 forward $19 $-1 #
surf-twe-attrib $-1 $-1 $-1 $20 10 #
coedge $-1 $58 $22 $55 $59 forward $11 $-1 #
coedge $-1 $22 $58 $60 $61 reversed $11 $-1 #
coedge $-1 $62 $56 $22 $38 reversed $14 $-1 #
edge $63 $64 2.827433388230813804 $65 3.455751918948771984 $22 $66 forward 7 unknown #
coedge $-1 $67 $25 $68 $69 reversed $14 $-1 #
coedge $-1 $25 $70 $71 $72 reversed $14 $-1 #
coedge $-1 $73 $74 $25 $42 forward $75 $-1 #
edge $76 $77 -0.3141592653589734274 $78 0.3141592653589735384 $41 $79 forward 7 unknown #
loop $80 $81 $26 $82 #
edge_name-twe-attrib $-1 $-1 $-1 $27 17 8704 #
vertex $-1 $27 $83 #
ellipse-curve $84 0 0 -5 0 0 1 5 0 0 1 I I #
face_name-twe-attrib $-1 $-1 $-1 $29 5 #
face $85 $82 $86 $3 $-1 $87 reversed single #
loop $88 $-1 $89 $29 #
plane-surface $90 2.938926261462360134 4.045084971874739921 0 -0.586227499828235965 -0.4259192097114700148 -0.6891517577746519851 -0.7616946424227130086 0 0.6479361632942980398 forward_v I I I I #
loop_type-twe-attrib $-1 $-1 $-1 $30 0 #
coedge $-1 $91 $92 $93 $94 forward $30 $-1 #
surf-twe-attrib $-1 $-1 $-1 $31 18 #
coedge $-1 $95 $33 $92 $96 forward $19 $-1 #
coedge $-1 $33 $95 $35 $59 reversed $19 $-1 #
coedge $-1 $37 $93 $33 $57 reversed $14 $-1 #
edge $97 $65 2.827433388230812916 $98 3.455751918948773316 $33 $99 forward 7 unknown #
coedge $-1 $36 $35 $100 $101 reversed $11 $-1 #
edge $102 $65 1.84575438389991879e-16 $103 7.071067811865480834 $55 $104 forward 7 unknown #
coedge $-1 $105 $106 $36 $61 forward $107 $-1 #
edge $108 $64 0 $109 7.071067811865476394 $36 $110 forward 7 unknown #
coedge $-1 $111 $37 $106 $112 reversed $14 $-1 #
edge_name-twe-attrib $-1 $-1 $-1 $38 1 9216 #
vertex $-1 $112 $113 #
vertex $-1 $57 $114 #
ellipse-curve $115 0 0 5 0.5862274998282389626 -0.425919209711466018 -0.6891517577746519851 4.045084971874749691 -2.93892626146234015 5.257311121191340142 0.6891517577746519851 I I #
coedge $-1 $93 $39 $89 $116 reversed $14 $-1 #
coedge $-1 $117 $118 $39 $69 forward $86 $-1 #
edge $119 $120 -0.3141592653589797557 $77 0.3141592653589797557 $68 $121 forward 7 unknown #
coedge $-1 $40 $111 $122 $123 reversed $14 $-1 #
coedge $-1 $124 $125 $40 $72 forward $126 $-1 #
edge $127 $78 -0.3141592653589794226 $128 0.3141592653589798667 $71 $129 forward 7 unknown #
coedge $-1 $130 $41 $125 $131 forward $75 $-1 #
coedge $-1 $41 $130 $117 $132 reversed $75 $-1 #
loop $133 $-1 $41 $134 #
edge_name-twe-attrib $-1 $-1 $-1 $42 18 9216 #
vertex $-1 $42 $135 #
vertex $-1 $42 $136 #
ellipse-curve $137 0 0 5 -0.5862274998282381855 0.4259192097114661846 -0.6891517577746523182 4.045084971874749691 -2.93892626146234015 -5.257311121191330372 0.6891517577746519851 I I #
loop_type-twe-attrib $-1 $-1 $-1 $43 1 #
loop $138 $-1 $139 $82 #
face $140 $134 $43 $3 $-1 $141 reversed single #
point $-1 -5 3.491481349406129813e-14 -5 #
cur-twe-attrib $-1 $-1 $-1 $46 27 #
face_name-twe-attrib $-1 $-1 $-1 $48 6 #
loop $142 $-1 $68 $48 #
plane-surface $143 4.755282581475769987 1.545084971874739921 0 -0.7246170400674468715 0 -0.6891517577746518741 -0.6891517577746519851 0 0.7246170400674469825 forward_v I I I I #
loop_type-twe-attrib $-1 $-1 $-1 $49 0 #
coedge $-1 $144 $145 $67 $116 forward $49 $-1 #
surf-twe-attrib $-1 $-1 $-1 $50 29 #
coedge $-1 $146 $52 $145 $147 forward $30 $-1 #
coedge $-1 $52 $146 $54 $96 reversed $30 $-1 #
coedge $-1 $56 $67 $52 $94 reversed $14 $-1 #
edge $148 $98 -0.3141592653589793116 $149 0.3141592653589812545 $52 $150 forward 7 unknown #
coedge $-1 $55 $54 $151 $152 reversed $19 $-1 #
edge $153 $98 0 $154 7.071067811865480834 $92 $155 forward 7 unknown #
edge_name-twe-attrib $-1 $-1 $-1 $57 4 9216 #
vertex $-1 $94 $156 #
ellipse-curve $157 0 0 5 0.2239189797945159432 -0.6891517577746508749 -0.6891517577746518741 1.545084971874759905 -4.755282581475760217 5.257311121191340142 0.6891517577746519851 I I #
coedge $-1 $151 $158 $58 $101 forward $81 $-1 #
edge $159 $109 -3.090169943749488279 $103 3.090169943749482062 $58 $160 forward 7 unknown #
edge_name-twe-attrib $-1 $-1 $-1 $59 6 8448 #
vertex $-1 $152 $161 #
straight-curve $162 -2.938926261462389888 4.045084971874720381 0 -0.4156269377774560181 0.5720614028176820298 -0.7071067811865470176 I I #
coedge $-1 $163 $60 $158 $164 reversed $107 $-1 #
coedge $-1 $60 $163 $62 $112 forward $107 $-1 #
loop $165 $-1 $106 $166 #
edge_name-twe-attrib $-1 $-1 $-1 $61 3 8448 #
vertex $-1 $101 $167 #
straight-curve $168 -4.755282581475779757 1.545084971874709945 0 -0.6724985119639590447 0.2185080122244059952 -0.7071067811865470176 I I #
coedge $-1 $70 $62 $169 $170 reversed $14 $-1 #
edge $171 $172 2.827433388230807587 $64 3.455751918948766654 $106 $173 forward 7 unknown #
point $-1 -4.755282581475779757 1.545084971874709945 0 #
point $-1 -2.938926261462389888 4.045084971874720381 -2.610290882520860243e-16 #
cur-twe-attrib $-1 $-1 $-1 $66 38 #
edge $174 $149 -0.3141592653589788675 $120 0.3141592653589803663 $89 $175 forward 7 unknown #
coedge $-1 $176 $68 $74 $132 forward $86 $-1 #
coedge $-1 $68 $176 $144 $177 reversed $86 $-1 #
edge_name-twe-attrib $-1 $-1 $-1 $69 13 9216 #
vertex $-1 $69 $178 #
ellipse-curve $179 0 0 5 -0.7246170400674468715 0 -0.6891517577746518741 5 0 -5.257311121191340142 0.6891517577746519851 I I #
coedge $-1 $180 $181 $70 $123 forward $182 $-1 #
edge $183 $128 2.82743338823081336 $184 3.455751918948773316 $122 $185 forward 7 unknown #
coedge $-1 $186 $71 $181 $187 forward $126 $-1 #
coedge $-1 $71 $186 $73 $131 reversed $126 $-1 #
loop $188 $-1 $71 $189 #
edge_name-twe-attrib $-1 $-1 $-1 $72 20 9216 #
vertex $-1 $72 $190 #
ellipse-curve $191 0 0 5 -0.2239189797945209948 0.6891517577746489875 -0.6891517577746519851 1.545084971874790103 -4.755282581475749559 -5.257311121191340142 0.6891517577746519851 I I #
coedge $-1 $74 $73 $192 $193 reversed $75 $-1 #
edge $194 $78 0 $195 7.071067811865479946 $125 $196 forward 7 unknown #
edge $197 $77 4.851852524732328088e-17 $198 7.071067811865473729 $117 $199 forward 7 unknown #
loop_type-twe-attrib $-1 $-1 $-1 $75 0 #
face $200 $189 $75 $3 $-1 $201 reversed single #
point $-1 4.755282581475769987 -1.545084971874739921 -6.861555643110600143e-17 #
point $-1 2.938926261462409872 -4.045084971874699953 0 #
cur-twe-attrib $-1 $-1 $-1 $79 42 #
loop_type-twe-attrib $-1 $-1 $-1 $81 0 #
coedge $-1 $192 $202 $176 $203 forward $81 $-1 #
face_name-twe-attrib $-1 $-1 $-1 $82 7 #
plane-surface $204 0 0 -5 0 0 1 1 0 0 forward_v I I I I #
loop_type-twe-attrib $-1 $-1 $-1 $86 0 #
surf-twe-attrib $-1 $-1 $-1 $87 48 #
coedge $-1 $205 $89 $118 $177 forward $49 $-1 #
coedge $-1 $89 $205 $91 $147 reversed $49 $-1 #
coedge $-1 $92 $91 $206 $207 reversed $30 $-1 #
edge $208 $149 -1.845754383899897589e-16 $209 7.071067811865480834 $145 $210 forward 7 unknown #
edge_name-twe-attrib $-1 $-1 $-1 $94 7 9216 #
vertex $-1 $116 $211 #
ellipse-curve $212 0 0 5 -0.2239189797945110305 -0.6891517577746520962 -0.6891517577746520962 1.545084971874719937 4.755282581475769987 -5.257311121191340142 0.6891517577746519851 I I #
coedge $-1 $206 $100 $95 $152 forward $81 $-1 #
edge $213 $103 -3.090169943749482062 $154 3.090169943749480286 $95 $214 forward 7 unknown #
edge_name-twe-attrib $-1 $-1 $-1 $96 9 8448 #
vertex $-1 $207 $215 #
straight-curve $216 -1.745740674703069955e-14 5 0 -2.468850138551429953e-15 0.7071067811865470176 -0.7071067811865470176 I I #
point $-1 -1.745740674703069955e-14 5 0 #
cur-twe-attrib $-1 $-1 $-1 $99 57 #
coedge $-1 $100 $217 $105 $164 forward $81 $-1 #
edge_name-twe-attrib $-1 $-1 $-1 $101 2 9216 #
straight-curve $218 -7.694208842938159876 5.590169943749430104 -5 0.5877852522924690293 0.809016994374951004 0 I I #
point $-1 -5.877852522924770007 8.090169943749449644 -5 #
cur-twe-attrib $-1 $-1 $-1 $104 59 #
coedge $-1 $106 $105 $219 $220 reversed $107 $-1 #
edge $221 $222 -3.090169943749481174 $109 3.090169943749478954 $105 $223 forward 7 unknown #
loop_type-twe-attrib $-1 $-1 $-1 $107 0 #
face $224 $-1 $107 $3 $-1 $225 reversed single #
point $-1 -9.510565162951559515 3.09016994374941012 -5 #
cur-twe-attrib $-1 $-1 $-1 $110 61 #
coedge $-1 $219 $226 $111 $170 forward $227 $-1 #
edge $228 $184 2.827433388230814248 $172 3.455751918948774204 $169 $229 forward 7 unknown #
edge_name-twe-attrib $-1 $-1 $-1 $112 29 9216 #
vertex $-1 $170 $230 #
ellipse-curve $231 0 0 5 0.7246170400674468715 5.206746143821979372e-15 -0.6891517577746518741 5 0 5.257311121191340142 0.6891517577746519851 I I #
edge_name-twe-attrib $-1 $-1 $-1 $116 10 9216 #
ellipse-curve $232 0 0 5 -0.586227499828235965 -0.4259192097114700148 -0.6891517577746519851 4.045084971874730151 2.938926261462369904 -5.257311121191340142 0.6891517577746519851 I I #
coedge $-1 $118 $117 $139 $203 reversed $86 $-1 #
edge $233 $120 4.851852524732328088e-17 $234 7.071067811865473729 $118 $235 forward 7 unknown #
point $-1 4.755282581475769987 1.545084971874739921 -6.861555643110600143e-17 #
cur-twe-attrib $-1 $-1 $-1 $121 69 #
coedge $-1 $236 $122 $226 $237 forward $182 $-1 #
coedge $-1 $122 $236 $124 $187 reversed $182 $-1 #
loop $238 $-1 $122 $239 #
edge_name-twe-attrib $-1 $-1 $-1 $123 23 9216 #
vertex $-1 $123 $240 #
ellipse-curve $241 0 0 5 0.2239189797945059512 0.6891517577746538725 -0.6891517577746518741 1.545084971874689961 4.755282581475779757 5.257311121191340142 0.6891517577746519851 I I #
coedge $-1 $125 $124 $242 $243 reversed $126 $-1 #
edge $244 $128 0 $245 7.071067811865480834 $181 $246 forward 7 unknown #
loop_type-twe-attrib $-1 $-1 $-1 $126 0 #
face $247 $239 $126 $3 $-1 $248 reversed single #
point $-1 5.237222024109199768e-14 -5 0 #
cur-twe-attrib $-1 $-1 $-1 $129 72 #
coedge $-1 $242 $139 $130 $193 forward $81 $-1 #
edge $249 $198 -3.090169943749417225 $195 3.090169943749417225 $130 $250 forward 7 unknown #
edge_name-twe-attrib $-1 $-1 $-1 $131 22 8448 #
vertex $-1 $243 $251 #
straight-curve $252 2.938926261462409872 -4.045084971874699953 0 0.4156269377774600149 -0.5720614028176800314 -0.7071067811865470176 I I #
edge_name-twe-attrib $-1 $-1 $-1 $132 14 8448 #
vertex $-1 $132 $253 #
straight-curve $254 4.755282581475769987 -1.545084971874739921 0 0.6724985119639570463 -0.2185080122244109913 -0.7071067811865470176 I I #
face_name-twe-attrib $-1 $-1 $-1 $134 8 #
plane-surface $255 4.755282581475769987 -1.545084971874739921 0 -0.5862274998282381855 0.4259192097114661846 -0.6891517577746523182 -0.7616946424227120094 0 0.647936163294299039 forward_v I I I I #
coedge $-1 $139 $206 $205 $256 forward $81 $-1 #
edge $257 $234 -3.090169943749479842 $198 3.090169943749479842 $176 $258 forward 7 unknown #
surf-twe-attrib $-1 $-1 $-1 $141 82 #
coedge $-1 $145 $144 $202 $256 reversed $49 $-1 #
coedge $-1 $202 $151 $146 $207 forward $81 $-1 #
edge $259 $154 -3.090169943749481618 $209 3.090169943749472736 $146 $260 forward 7 unknown #
edge_name-twe-attrib $-1 $-1 $-1 $147 12 8448 #
vertex $-1 $256 $261 #
straight-curve $262 2.938926261462360134 4.045084971874739921 0 0.4156269377774520213 0.5720614028176850274 -0.7071067811865470176 I I #
point $-1 2.938926261462360134 4.045084971874739921 2.610290882520830167e-16 #
cur-twe-attrib $-1 $-1 $-1 $150 94 #
edge_name-twe-attrib $-1 $-1 $-1 $152 5 9216 #
straight-curve $263 -2.938926261462400102 9.045084971874720381 -5 0.9510565162951519769 0.309016994374951004 0 I I #
point $-1 -3.491481349406129813e-14 10 -5 #
cur-twe-attrib $-1 $-1 $-1 $155 96 #
coedge $-1 $158 $264 $265 $266 forward $81 $-1 #
cur-twe-attrib $-1 $-1 $-1 $160 101 #
coedge $-1 $265 $169 $163 $220 forward $227 $-1 #
edge $267 $172 -0 $222 7.071067811865471953 $163 $268 forward 7 unknown #
edge_name-twe-attrib $-1 $-1 $-1 $164 30 9216 #
vertex $-1 $164 $269 #
straight-curve $270 -9.510565162951529317 -6.861178292183469944e-14 -5 -7.185514355744840384e-15 1 0 I I #
face_name-twe-attrib $-1 $-1 $-1 $166 12 #
plane-surface $271 -4.755282581475749559 -1.545084971874769897 0 0.7246170400674468715 5.206746143821979372e-15 -0.6891517577746518741 -0.6891517577746519851 0 -0.7246170400674469825 forward_v I I I I #
coedge $-1 $169 $265 $180 $237 reversed $227 $-1 #
loop $272 $-1 $169 $273 #
edge_name-twe-attrib $-1 $-1 $-1 $170 26 9216 #
ellipse-curve $274 0 0 5 0.5862274998282329674 0.4259192097114740116 -0.6891517577746519851 4.045084971874709723 2.938926261462400102 5.257311121191340142 0.6891517577746519851 I I #
point $-1 -4.755282581475760217 -1.545084971874769897 0 #
cur-twe-attrib $-1 $-1 $-1 $173 112 #
cur-twe-attrib $-1 $-1 $-1 $175 116 #
edge_name-twe-attrib $-1 $-1 $-1 $177 16 8448 #
vertex $-1 $203 $275 #
straight-curve $276 4.755282581475769987 1.545084971874739921 0 0.6724985119639570463 0.2185080122244109913 -0.7071067811865470176 I I #
coedge $-1 $181 $180 $264 $277 reversed $182 $-1 #
edge $278 $184 -6.097111112712615747e-15 $279 7.071067811865471953 $226 $280 forward 7 unknown #
loop_type-twe-attrib $-1 $-1 $-1 $182 0 #
face $281 $273 $182 $3 $-1 $282 reversed single #
point $-1 -2.938926261462329936 -4.045084971874760349 7.185514355744909606e-16 #
cur-twe-attrib $-1 $-1 $-1 $185 123 #
coedge $-1 $264 $192 $186 $243 forward $81 $-1 #
edge $283 $195 -3.090169943749478509 $245 3.090169943749476733 $186 $284 forward 7 unknown #
edge_name-twe-attrib $-1 $-1 $-1 $187 25 8448 #
vertex $-1 $277 $285 #
straight-curve $286 5.237222024109199768e-14 -5 0 7.406550415654300508e-15 -0.7071067811865470176 -0.7071067811865470176 I I #
face_name-twe-attrib $-1 $-1 $-1 $189 9 #
plane-surface $287 2.938926261462409872 -4.045084971874699953 0 -0.2239189797945209948 0.6891517577746489875 -0.6891517577746519851 -0.9510565162951509777 0 0.3090169943749569992 forward_v I I I I #
edge_name-twe-attrib $-1 $-1 $-1 $193 19 9216 #
straight-curve $288 7.694208842938180304 -5.590169943749449644 -5 -0.5877852522924690293 -0.809016994374951004 0 I I #
point $-1 5.877852522924819745 -8.090169943749410564 -5 #
cur-twe-attrib $-1 $-1 $-1 $196 131 #
point $-1 9.510565162951529317 -3.090169943749479842 -5 #
cur-twe-attrib $-1 $-1 $-1 $199 132 #
surf-twe-attrib $-1 $-1 $-1 $201 134 #
edge $289 $209 -3.090169943749486947 $234 3.090169943749477177 $205 $290 forward 7 unknown #
edge_name-twe-attrib $-1 $-1 $-1 $203 15 9216 #
straight-curve $291 9.510565162951529317 0 -5 0 -1 0 I I #
edge_name-twe-attrib $-1 $-1 $-1 $207 8 9216 #
straight-curve $292 2.93892626146234015 9.045084971874739921 -5 0.9510565162951549745 -0.3090169943749450088 0 I I #
point $-1 5.877852522924709611 8.0901699437494905 -5 #
cur-twe-attrib $-1 $-1 $-1 $210 147 #
cur-twe-attrib $-1 $-1 $-1 $214 152 #
coedge $-1 $217 $242 $236 $277 forward $81 $-1 #
coedge $-1 $226 $219 $217 $266 reversed $227 $-1 #
edge $293 $279 -3.090169943749482506 $222 3.090169943749483394 $265 $294 forward 7 unknown #
edge_name-twe-attrib $-1 $-1 $-1 $220 31 8448 #
straight-curve $295 -4.755282581475760217 -1.545084971874769897 0 -0.6724985119639560471 -0.2185080122244159873 -0.7071067811865470176 I I #
point $-1 -9.510565162951509777 -3.090169943749550008 -5 #
cur-twe-attrib $-1 $-1 $-1 $223 164 #
surf-twe-attrib $-1 $-1 $-1 $225 166 #
loop_type-twe-attrib $-1 $-1 $-1 $227 0 #
face $296 $166 $227 $3 $-1 $297 reversed single #
cur-twe-attrib $-1 $-1 $-1 $229 170 #
point $-1 9.510565162951529317 3.090169943749479842 -5 #
cur-twe-attrib $-1 $-1 $-1 $235 177 #
edge $298 $245 -3.090169943749475401 $279 3.090169943749477177 $236 $299 forward 7 unknown #
edge_name-twe-attrib $-1 $-1 $-1 $237 28 8448 #
vertex $-1 $266 $300 #
straight-curve $301 -2.938926261462329936 -4.045084971874770119 0 -0.4156269377774480245 -0.572061402817688025 -0.7071067811865470176 I I #
face_name-twe-attrib $-1 $-1 $-1 $239 10 #
plane-surface $302 5.240252676230740133e-14 -5 0 0.2239189797945059512 0.6891517577746538725 -0.6891517577746518741 -0.9510565162951559737 0 -0.3090169943749390136 forward_v I I I I #
edge_name-twe-attrib $-1 $-1 $-1 $243 21 9216 #
straight-curve $303 2.938926261462460054 -9.045084971874700841 -5 -0.9510565162951499785 -0.3090169943749579984 0 I I #
point $-1 1.047444404821839954e-13 -10 -5 #
cur-twe-attrib $-1 $-1 $-1 $246 187 #
surf-twe-attrib $-1 $-1 $-1 $248 189 #
cur-twe-attrib $-1 $-1 $-1 $250 193 #
edge_name-twe-attrib $-1 $-1 $-1 $256 11 9216 #
straight-curve $304 7.694208842938119908 5.590169943749479842 -5 0.5877852522924740253 -0.8090169943749470072 0 I I #
cur-twe-attrib $-1 $-1 $-1 $258 203 #
cur-twe-attrib $-1 $-1 $-1 $260 207 #
edge_name-twe-attrib $-1 $-1 $-1 $266 27 9216 #
straight-curve $305 -7.69420884293807994 -5.590169943749540238 -5 -0.5877852522924800205 0.8090169943749420112 0 I I #
cur-twe-attrib $-1 $-1 $-1 $268 220 #
face_name-twe-attrib $-1 $-1 $-1 $273 11 #
plane-surface $306 -2.938926261462329936 -4.045084971874770119 0 0.5862274998282329674 0.4259192097114740116 -0.6891517577746519851 -0.761694642422715007 0 -0.6479361632942960414 forward_v I I I I #
edge_name-twe-attrib $-1 $-1 $-1 $277 24 9216 #
straight-curve $307 -2.938926261462269984 -9.045084971874759461 -5 -0.9510565162951569729 0.3090169943749380144 0 I I #
point $-1 -5.877852522924650103 -8.09016994374952958 -5 #
cur-twe-attrib $-1 $-1 $-1 $280 237 #
surf-twe-attrib $-1 $-1 $-1 $282 239 #
cur-twe-attrib $-1 $-1 $-1 $284 243 #
cur-twe-attrib $-1 $-1 $-1 $290 256 #
cur-twe-attrib $-1 $-1 $-1 $294 266 #
surf-twe-attrib $-1 $-1 $-1 $297 273 #
cur-twe-attrib $-1 $-1 $-1 $299 277 #
End-of-ACIS-data 