**ABCDEFGHIJKLMNOPQRSTUVWXYZabcdefghijklmnopqrstuvwxyz**************************
**PARASOLID !"#$%&'()*+,-./:;<=>?@[\]^_`{|}~0123456789**************************
**PART1;MC=sun;MC_MODEL=Sun-3;MC_ID=unknown;OS=SunOS;OS_RELEASE=unknown;FRU=sdl_
parasolid_test_sun;APPL=unknown;SITE=sdl-cambridge-u.k.;USER=kramer;FORMAT=text;
GUISE=transmit;KEY=intermediate_7;FILE=intermediate_7.xmt_txt;DATE=16-oct-1990;
**PART2;SCH=SCH_210_1012;USFLD_SIZE=0;
**PART3;
**END_OF_HEADER*****************************************************************
T47 : TRANSMIT FILE created by modeller version 22012 SCH_210_10120 12 1 2001 0
 0 0 0 0 1e3 1e-8 2 2 0 0 3 1 4 102 14 2 intermediate_713 4 2 0 1 0 5 6 7 8 9 10
 14 5 1827 0 11 0 12 4 8 -16 6 1858 0 13 0 14 9 18 7 1895 0 15 0 16 10 51 8 1920
 0 5 17 0 0 +2.66 2.13 1.2 0 0 1 .2 31 9 1936 0 6 18 0 0 +2.66 2.13 1.24 0 0 1 .
2 29 10 1973 0 7 19 0 2.46 2.13 1.24 29 19 1974 0 16 20 10 2.46 2.86 1.24 18 16
 1896 0 21 7 22 19 29 20 1975 0 22 23 19 2.76 3.06 1.24 18 22 1897 0 24 16 25 20
 29 23 1976 0 25 26 20 2.66 3.06 1.24 18 25 1898 0 27 22 28 23 29 26 1977 0 28 2
9 23 2.76 3.06 1.5 18 28 1899 0 30 25 31 26 29 29 1978 0 31 32 26 2.76 1.93 1.24
 18 31 1900 0 33 28 34 29 29 32 1979 0 34 35 29 2.66 1.93 1.24 18 34 1901 0 13 3
1 36 32 29 35 1980 0 36 37 32 2.76 1.93 1.5 18 36 1902 0 38 34 39 35 29 37 1987
 0 39 40 35 2.46 2.86 1.5 18 39 1909 0 41 36 42 37 29 40 1988 0 42 43 37 2.46 2.
13 1.5 18 42 1910 0 44 39 45 40 29 43 1990 0 45 46 40 2.66 3.06 1.5 18 45 1912 0
 47 42 48 43 29 46 1766 0 48 49 43 2.66 1.93 1.5 18 48 1764 0 50 45 51 46 29 49
 1720 0 51 52 46 2.771149307047645 1.435 .48 18 51 1642 0 53 48 54 49 29 52 1722
 0 54 55 49 2.918276427503165 1.175 .48 18 54 1644 0 56 51 57 52 29 55 1724 0 57
 58 52 2.771149307047645 3.555 .48 18 57 1646 0 59 54 60 55 29 58 1725 0 60 61 5
5 2.918276427503165 3.815 .48 18 60 1647 0 62 57 63 58 29 61 1728 0 63 64 58 2.7
6 1.435 1.24 18 63 1650 0 65 60 66 61 29 64 1729 0 66 67 61 2.76 3.555 1.24 18 6
6 1651 0 68 63 69 64 29 67 1730 0 69 70 64 2.76 1.175 .48 18 69 1652 0 71 66 72
 67 29 70 1731 0 72 73 67 2.76 1.435 .48 18 72 1653 0 74 69 75 70 29 73 1732 0 7
5 76 70 2.76 3.555 .48 18 75 1654 0 77 72 78 73 29 76 1733 0 78 79 73 2.76 3.815
 .48 18 78 1655 0 80 75 81 76 29 79 1735 0 81 82 76 2.76 1.175 1.5 18 81 1657 0
 83 78 84 79 29 82 1561 0 84 85 79 2.76 3.895 .48 18 84 1559 0 86 81 87 82 29 85
 1553 0 87 88 82 3.06 4.353257569495585 .48 18 87 1551 0 89 84 90 85 29 88 1539
 0 90 91 85 2.76 1.095 .48 18 90 1537 0 92 87 93 88 29 91 1531 0 93 94 88 3.06 .
636742430504416 .48 18 93 1529 0 95 90 96 91 29 94 1469 0 96 97 91 2.76 3.815 1.
5 18 96 1467 0 98 93 99 94 29 97 1433 0 99 100 94 3.06 3.908257569495585 .48 18
 99 1345 0 101 96 102 97 29 100 1434 0 102 103 97 0 4.99 .48 18 102 1346 0 104 9
9 105 100 29 103 1437 0 105 106 100 0 3.815 .48 18 105 1349 0 107 102 108 103 29
 106 1440 0 108 109 103 0 3.815 1.5 18 108 1352 0 110 105 111 106 29 109 1194 0
 111 112 106 3.06 4.99 .48 18 111 1192 0 113 108 114 109 29 112 1158 0 114 115 1
09 3.06 1.081742430504416 .48 18 114 1070 0 116 111 117 112 29 115 1162 0 117 11
8 112 0 1.175 1.5 18 117 1074 0 119 114 120 115 29 118 1165 0 120 121 115 3.06 0
 .48 18 120 1077 0 122 117 123 118 29 121 1166 0 123 124 118 0 0 .48 18 123 1078
 0 125 120 126 121 29 124 927 0 126 127 121 0 1.175 .48 18 126 925 0 128 123 129
 124 29 127 876 0 129 130 124 3.26 3.95 .4 18 129 758 0 131 126 132 127 29 130 8
77 0 132 133 127 3.26 1.04 .4 18 132 759 0 134 129 135 130 29 133 878 0 135 136
 130 3.06 0 .4 18 135 760 0 137 132 138 133 29 136 879 0 138 139 133 3.06 1.0817
42430504416 .4 18 138 761 0 140 135 141 136 29 139 880 0 141 142 136 3.06 3.9082
57569495585 .4 18 141 762 0 143 138 144 139 29 142 881 0 144 145 139 3.06 4.99 .
4 18 144 763 0 146 141 147 142 29 145 882 0 147 148 142 5.26 4.99 .4 18 147 764
 0 149 144 150 145 29 148 884 0 150 151 145 5.26 1.04 .4 18 150 766 0 152 147 15
3 148 29 151 885 0 153 154 148 5.26 0 .4 18 153 767 0 155 150 156 151 29 154 507
 0 156 157 151 5.26 3.95 .4 18 156 505 0 158 153 159 154 29 157 481 0 159 160 15
4 2.771149307047645 3.555 0 18 159 399 0 161 156 162 157 29 160 486 0 162 163 15
7 .56 3.555 0 18 162 404 0 164 159 165 160 29 163 488 0 165 166 160 .26 1.735 0
 18 165 406 0 167 162 168 163 29 166 489 0 168 169 163 .26 3.255 0 18 168 407 0
 170 165 171 166 29 169 492 0 171 172 166 .26 3.255 1.24 18 171 410 0 173 168 17
4 169 29 172 493 0 174 175 169 .26 1.735 1.24 18 174 411 0 176 171 177 172 29 17
5 495 0 177 178 172 .56 3.555 1.24 18 177 413 0 179 174 180 175 29 178 499 0 180
 181 175 .56 1.435 0 18 180 417 0 182 177 183 178 29 181 500 0 183 184 178 .56 1
.435 1.24 18 183 418 0 185 180 186 181 29 184 259 0 186 187 181 2.77114930704764
5 1.435 0 18 186 257 0 188 183 189 184 29 187 229 0 189 190 184 5.26 3.95 0 18 1
89 163 0 191 186 192 187 29 190 232 0 192 193 187 5.26 1.04 0 18 192 166 0 194 1
89 195 190 29 193 233 0 195 196 190 3.26 3.95 0 18 195 167 0 197 192 198 193 29
 196 246 0 198 199 193 3.26 1.04 0 18 198 180 0 200 195 201 196 29 199 38 0 202
 203 196 0 0 0 18 202 8 0 204 205 206 199 29 203 37 0 205 207 199 0 4.99 0 18 20
5 10 0 208 201 202 203 29 207 36 0 201 209 203 5.26 4.99 0 18 201 12 0 210 198 2
05 207 29 209 35 0 206 0 207 5.26 0 0 18 206 7 0 211 202 0 209 17 211 212 213 21
4 206 215 216 15 212 939 0 125 217 0 17 213 212 137 211 153 218 219 17 214 212 2
11 125 202 220 221 17 215 222 223 224 202 211 216 16 216 9 0 211 225 226 227 16
 225 11 0 204 228 216 229 16 226 3 0 230 216 0 231 30 227 39 0 216 0 231 0 +2.63
 0 0 1 0 0 30 231 40 0 226 227 232 0 +5.26 2.495 0 0 1 0 30 232 41 0 228 231 229
 0 +2.63 4.99 0 -1 0 0 16 228 13 0 208 219 225 232 30 229 42 0 225 232 233 0 +0
 2.495 0 0 -1 0 30 233 47 0 219 229 234 0 +5.26 0 0 0 0 1 16 219 15 0 213 235 22
8 233 30 234 48 0 235 233 236 0 +5.26 4.99 0 0 0 1 16 235 17 0 237 238 219 234 3
0 236 49 0 238 234 239 0 +0 4.99 0 0 0 1 16 238 19 0 240 221 235 236 30 239 50 0
 221 236 241 0 +0 0 0 0 0 1 16 221 21 0 220 242 238 239 30 241 67 0 242 239 243
 0 +5.26 2.495 0 0 1 0 16 242 65 0 210 244 221 241 30 243 227 0 244 241 245 0 +4
.51 1.04 0 1 0 0 16 244 161 0 194 246 242 243 31 245 212 0 246 243 247 0 +3.26 1
.54 0 0 0 -1 .5 16 246 146 0 248 249 244 245 30 247 208 0 249 245 250 0 +3.26 3.
95 0 0 0 1 16 249 142 0 251 252 246 247 30 250 199 0 252 247 253 0 +4.51 3.95 0
 -1 0 0 16 252 133 0 197 254 249 250 30 253 197 0 254 250 255 0 +5.26 3.95 0 0 0
 1 16 254 131 0 256 257 252 253 31 255 256 0 257 253 258 0 +3.26 3.45 0 0 0 -1 .
5 16 257 254 0 259 260 254 255 30 258 318 0 260 255 261 0 +2.771149307047645 1.4
35 0 0 0 1 16 260 316 0 262 263 257 258 30 261 474 0 263 258 264 0 +1.76 1.435 0
 1 0 0 16 263 392 0 188 265 260 261 30 264 473 0 265 261 266 0 +.56 1.435 0 0 0
 -1 16 265 391 0 267 268 263 264 30 266 470 0 268 264 269 0 +1.76 3.555 1.24 1 0
 0 16 268 388 0 270 271 265 266 30 269 469 0 271 266 272 0 +.26 2.495 1.24 0 1 0
 16 271 387 0 273 274 268 269 31 272 468 0 274 269 275 0 +.56 1.735 1.24 0 0 1 .
3 16 274 386 0 276 277 271 272 31 275 467 0 277 272 278 0 +.56 3.255 1.24 0 0 1
 .3 16 277 385 0 279 280 274 275 30 278 461 0 280 275 281 0 +.26 2.495 0 0 -1 0
 16 280 379 0 167 282 277 278 31 281 459 0 282 278 283 0 +.56 1.735 0 0 0 -1 .3
 16 282 377 0 284 285 280 281 31 283 458 0 285 281 286 0 +.56 3.255 0 0 0 -1 .3
 16 285 376 0 287 288 282 283 30 286 455 0 288 283 289 0 +.56 3.555 0 0 0 1 16 2
88 373 0 290 291 285 286 30 289 453 0 291 286 292 0 +.26 1.735 0 0 0 1 16 291 37
1 0 293 294 288 289 30 292 452 0 294 289 295 0 +.26 3.255 0 0 0 -1 16 294 370 0
 296 297 291 292 30 295 446 0 297 292 298 0 +1.76 3.555 0 -1 0 0 16 297 364 0 16
4 299 294 295 30 298 520 0 299 295 300 0 +5.26 1.04 0 0 0 -1 16 299 518 0 301 30
2 297 298 30 300 565 0 302 298 303 0 +3.26 1.04 0 0 0 -1 16 302 563 0 304 305 29
9 300 30 303 603 0 305 300 306 0 +4.51 3.95 .4 -1 0 0 16 305 601 0 131 307 302 3
03 30 306 837 0 307 303 308 0 +5.26 2.495 .4 0 1 0 16 307 719 0 309 310 305 306
 30 308 835 0 310 306 311 0 +5.26 2.495 .4 0 1 0 16 310 717 0 312 313 307 308 30
 311 833 0 313 308 314 0 +3.06 2.495 .4 0 -1 0 16 313 715 0 315 316 310 311 30 3
14 831 0 316 311 317 0 +3.06 2.495 .4 0 -1 0 16 316 713 0 318 319 313 314 30 317
 829 0 319 314 320 0 +2.63 4.99 .4 -1 0 0 16 319 711 0 321 322 316 317 30 320 82
8 0 322 317 323 0 +2.63 0 .4 1 0 0 16 322 710 0 324 325 319 320 30 323 827 0 325
 320 326 0 +4.51 1.04 .4 1 0 0 16 325 709 0 152 327 322 323 31 326 826 0 327 323
 328 0 -3.26 1.54 .4 0 0 -1 .5 16 327 708 0 134 329 325 326 31 328 824 0 329 326
 330 0 -3.26 3.45 .4 0 0 -1 .5 16 329 706 0 143 331 327 328 30 330 818 0 331 328
 332 0 +3.06 4.99 0 0 0 1 16 331 700 0 333 334 329 330 30 332 810 0 334 330 335
 0 +3.06 3.908257569495585 0 0 0 1 16 334 692 0 336 337 331 332 30 335 924 0 337
 332 338 0 +0 2.495 1.5 0 1 0 16 337 922 0 339 340 334 335 30 338 931 0 340 335
 341 0 +0 1.175 0 0 0 -1 16 340 929 0 342 343 337 338 30 341 937 0 343 338 344 0
 +3.06 0 0 0 0 -1 16 343 935 0 345 346 340 341 30 344 968 0 346 341 347 0 -3.06
 1.081742430504416 0 0 0 1 16 346 966 0 140 348 343 344 30 347 1131 0 348 344 34
9 0 +1.53 0 .48 1 0 0 16 348 1043 0 350 351 346 347 30 349 1125 0 351 347 352 0
 +1.53 1.175 1.5 1 0 0 16 351 1037 0 353 354 348 349 30 352 1119 0 354 349 355 0
 +0 2.495 .48 0 -1 0 16 354 1031 0 356 357 351 352 31 355 1118 0 357 352 358 0 -
3.26 1.54 .48 0 0 -1 .5 16 357 1030 0 116 359 354 355 30 358 1117 0 359 355 360
 0 +3.06 2.495 .48 0 -1 0 16 359 1029 0 95 361 357 358 30 360 1260 0 361 358 362
 0 +3.06 2.495 .48 0 -1 0 16 361 1258 0 89 363 359 360 30 362 1400 0 363 360 364
 0 +1.53 3.815 .48 1 0 0 16 363 1312 0 365 366 361 362 30 364 1398 0 366 362 367
 0 +1.53 4.99 .48 -1 0 0 16 366 1310 0 368 369 363 364 30 367 1396 0 369 364 370
 0 +0 2.495 .48 0 -1 0 16 369 1308 0 371 372 366 367 31 370 1395 0 372 367 373 0
 -3.26 3.45 .48 0 0 -1 .5 16 372 1307 0 374 375 369 370 30 373 1393 0 375 370 37
6 0 +0 3.815 0 0 0 1 16 375 1305 0 377 378 372 373 30 376 1470 0 378 373 379 0 +
1.53 3.815 1.5 -1 0 0 16 378 1468 0 110 380 375 376 30 379 1483 0 380 376 381 0
 -2.771149307047645 3.555 0 0 0 1 16 380 1481 0 161 382 378 379 30 381 1501 0 38
2 379 383 0 +1.76 1.435 1.24 -1 0 0 16 382 1499 0 384 385 380 381 30 383 1532 0
 385 381 386 0 +3.06 2.495 .48 0 -1 0 16 385 1530 0 122 387 382 383 30 386 1536
 0 387 383 388 0 +1.53 1.175 .48 -1 0 0 16 387 1534 0 389 390 385 386 30 388 154
0 0 390 386 391 0 +2.76 .5875 .48 0 1 0 16 390 1538 0 392 393 387 388 31 391 154
3 0 393 388 394 0 +3.26 1.095 .48 0 0 -1 .5 16 393 1541 0 395 396 390 391 30 394
 1554 0 396 391 397 0 +3.06 2.495 .48 0 -1 0 16 396 1552 0 398 399 393 394 30 39
7 1562 0 399 394 400 0 +2.76 4.4025 .48 0 1 0 16 399 1560 0 86 401 396 397 31 40
0 1565 0 401 397 402 0 +3.26 3.895 .48 0 0 -1 .5 16 401 1563 0 403 404 399 400 3
0 402 1570 0 404 400 405 0 +2.76 3.815 .48 0 0 -1 16 404 1568 0 406 407 401 402
 30 405 1705 0 407 402 408 0 +2.76 2.495 1.5 0 1 0 16 407 1627 0 409 410 404 405
 30 408 1703 0 410 405 411 0 +2.76 2.495 .48 0 -1 0 16 410 1625 0 412 413 407 40
8 30 411 1701 0 413 408 414 0 +2.76 2.495 .48 0 -1 0 16 413 1623 0 415 416 410 4
11 30 414 1699 0 416 411 417 0 +2.76 2.495 1.24 0 -1 0 16 416 1621 0 418 419 413
 414 30 417 1698 0 419 414 420 0 +2.76 1.435 0 0 0 -1 16 419 1620 0 74 421 416 4
17 30 420 1697 0 421 417 422 0 +2.76 3.555 0 0 0 1 16 421 1619 0 68 423 419 420
 30 422 1696 0 423 420 424 0 +2.76 1.175 .48 0 0 1 16 423 1618 0 83 425 421 422
 31 424 1692 0 425 422 426 0 -3.26 3.45 .48 0 0 -1 .5 16 425 1614 0 59 427 423 4
24 30 426 1690 0 427 424 428 0 +1.76 3.555 .48 -1 0 0 16 427 1612 0 77 429 425 4
26 31 428 1687 0 429 426 430 0 -3.26 1.54 .48 0 0 -1 .5 16 429 1609 0 56 431 427
 428 30 430 1686 0 431 428 432 0 +1.76 1.435 .48 1 0 0 16 431 1608 0 53 433 429
 430 30 432 1684 0 433 430 434 0 +1.53 1.175 .48 -1 0 0 16 433 1606 0 71 435 431
 432 30 434 1683 0 435 432 436 0 +1.53 3.815 .48 1 0 0 16 435 1605 0 62 437 433
 434 30 436 1763 0 437 434 438 0 +2.76 2.495 1.5 0 1 0 16 437 1761 0 98 439 435
 436 31 438 1771 0 439 436 440 0 +2.66 2.13 1.5 0 0 1 .2 16 439 1769 0 441 442 4
37 438 30 440 1792 0 442 438 443 0 +2.76 2.495 1.24 0 -1 0 16 442 1790 0 65 444
 439 440 30 443 1970 0 444 440 445 0 +2.66 1.93 1.2 0 0 -1 16 444 1892 0 446 447
 442 443 30 445 1967 0 447 443 448 0 +2.76 3.06 1.5 1 0 0 16 447 1889 0 30 449 4
44 445 30 448 1966 0 449 445 450 0 +2.46 2.495 1.5 0 1 0 16 449 1888 0 41 451 44
7 448 31 450 1964 0 451 448 452 0 +2.66 2.86 1.5 0 0 1 .2 16 451 1886 0 453 454
 449 450 30 452 1949 0 454 450 455 0 +2.46 2.86 1.2 0 0 -1 16 454 1871 0 456 457
 451 452 30 455 1948 0 457 452 458 0 +2.76 1.93 1.5 -1 0 0 16 457 1870 0 50 459
 454 455 30 458 1946 0 459 455 460 0 +1.76 1.93 1.24 1 0 0 16 459 1868 0 33 461
 457 458 30 460 1945 0 461 458 462 0 +2.76 1.93 .48 0 0 1 16 461 1867 0 38 463 4
59 460 30 462 1943 0 463 460 464 0 +2.66 3.06 1.2 0 0 1 16 463 1865 0 465 466 46
1 462 30 464 1942 0 466 462 467 0 +1.76 3.06 1.24 -1 0 0 16 466 1864 0 27 468 46
3 464 30 467 1941 0 468 464 469 0 +2.76 3.06 .48 0 0 -1 16 468 1863 0 24 470 466
 467 30 469 1939 0 470 467 471 0 +2.46 2.13 1.2 0 0 1 16 470 1861 0 472 473 468
 469 30 471 1938 0 473 469 18 0 +2.46 2.495 1.24 0 -1 0 16 473 1860 0 15 14 470
 471 31 18 1937 0 14 471 9 0 +2.66 2.86 1.24 0 0 1 .2 16 14 1859 0 21 6 473 18 1
7 21 474 15 27 16 475 14 15 474 351 0 418 476 0 17 15 474 13 21 7 477 473 17 27
 474 21 418 25 478 466 17 475 479 465 456 25 21 14 15 479 1830 0 465 11 0 17 465
 479 453 475 45 480 463 17 456 479 475 453 16 481 454 17 453 479 456 465 39 47 4
51 17 481 482 483 477 39 456 454 15 482 1832 0 481 484 0 17 483 482 485 481 42 4
1 449 17 477 482 481 485 16 15 473 17 485 482 477 483 7 472 470 17 472 12 441 48
6 42 485 470 15 12 1828 0 472 5 0 17 441 12 446 472 48 44 439 17 486 12 472 446
 7 13 6 17 446 12 486 441 34 487 444 17 13 474 33 15 34 486 6 17 33 474 65 13 31
 488 459 17 65 474 384 33 63 489 442 17 488 490 487 491 34 33 459 15 490 1836 0
 488 492 0 17 487 490 493 488 48 446 444 17 491 490 488 493 31 38 461 17 493 490
 491 487 36 50 457 17 38 494 495 489 36 491 461 15 494 1585 0 489 496 0 17 495 4
94 497 38 81 409 407 17 489 494 38 498 31 65 442 17 498 494 489 499 63 74 419 17
 499 494 498 497 72 415 413 17 74 500 53 501 72 498 419 15 500 333 0 501 502 0 1
7 53 500 503 74 51 504 431 17 501 500 74 185 63 384 382 17 185 500 501 505 183 2
67 265 17 384 474 176 65 183 501 382 17 176 474 273 384 174 276 274 17 273 474 1
79 176 171 506 271 17 276 507 267 293 183 176 274 15 507 335 0 284 508 0 17 267
 507 284 276 180 185 265 17 293 507 276 284 174 509 291 17 284 507 293 267 165 1
82 282 17 509 510 511 506 165 293 291 15 510 343 0 506 512 0 17 511 510 173 509
 168 167 280 17 506 510 509 173 174 273 271 17 173 510 506 511 171 296 294 17 29
6 513 287 279 168 173 294 15 513 337 0 287 514 0 17 287 513 290 296 162 170 285
 17 279 513 296 290 171 179 277 17 290 513 279 287 177 515 288 17 179 474 270 27
3 177 279 277 17 270 474 418 179 66 516 268 17 418 474 27 270 22 517 416 17 516
 518 515 68 177 270 268 15 518 331 0 77 519 0 17 515 518 520 516 162 290 288 17
 68 518 516 77 66 521 421 17 77 518 68 522 75 523 427 17 521 524 525 517 75 68 4
21 15 524 1815 0 526 527 0 17 525 524 528 521 78 412 410 17 517 524 521 24 66 41
8 416 17 24 524 517 526 22 529 468 17 526 524 24 528 28 98 437 17 529 530 531 47
8 28 24 468 15 530 1834 0 531 532 0 17 531 530 480 529 45 30 447 17 478 530 529
 480 22 27 466 17 480 530 478 531 25 465 463 17 30 533 98 47 28 531 447 15 533 1
781 0 30 534 0 17 98 533 110 30 96 526 437 17 47 533 30 41 45 453 451 17 41 533
 47 44 39 483 449 17 44 533 41 50 42 441 439 17 50 533 44 409 48 493 457 17 409
 533 50 353 36 495 407 17 353 533 409 535 81 119 351 17 535 533 353 110 117 339
 337 17 119 536 342 83 117 353 351 15 536 990 0 537 538 0 17 342 536 537 119 126
 539 340 17 83 536 119 537 81 497 423 17 537 536 83 342 69 389 387 17 497 494 49
9 495 69 83 423 17 389 540 356 392 126 537 387 15 540 994 0 541 542 0 17 356 540
 350 389 123 128 354 17 392 540 389 395 69 92 390 17 395 540 392 541 90 543 393
 17 92 544 543 71 90 392 390 15 544 1542 0 543 545 0 17 543 544 546 92 93 395 39
3 17 71 544 92 547 69 548 433 17 547 544 71 546 54 116 357 17 548 549 550 415 54
 71 433 15 549 1579 0 550 551 0 17 550 549 504 548 51 56 429 17 415 549 548 504
 69 499 413 17 504 549 415 550 72 53 431 17 56 552 116 262 54 550 429 15 552 112
 0 262 553 0 17 116 552 140 56 114 547 357 17 262 552 56 248 51 503 260 17 248 5
52 262 304 186 200 246 17 503 500 505 53 186 262 260 17 505 500 185 503 180 188
 263 17 188 222 200 182 186 505 263 15 222 278 0 164 554 0 17 200 222 194 188 19
8 248 246 17 182 222 188 167 180 284 282 17 167 222 182 170 165 511 280 17 170 2
22 167 164 168 287 285 17 164 222 170 555 162 520 297 17 555 222 164 197 159 259
 257 17 520 518 522 515 159 164 297 17 522 518 77 520 57 161 380 17 161 556 259
 59 159 522 380 15 556 114 0 374 557 0 17 259 556 251 161 195 555 257 17 59 556
 161 374 57 558 425 17 374 556 59 336 60 101 372 17 558 559 80 523 60 59 425 15
 559 1577 0 412 560 0 17 80 559 412 558 78 62 435 17 523 559 558 412 57 77 427 1
7 412 559 523 80 75 525 410 17 62 561 101 562 60 80 435 15 561 1564 0 563 564 0
 17 101 561 565 62 99 374 372 17 562 561 62 563 78 86 399 17 563 561 562 565 84
 403 401 17 86 566 403 365 84 562 399 15 566 1273 0 86 567 0 17 403 566 568 86 8
7 563 401 17 365 566 86 371 78 569 363 17 371 566 365 368 105 104 369 17 569 570
 377 406 105 365 363 15 570 1269 0 571 572 0 17 377 570 571 569 108 107 375 17 4
06 570 569 571 78 528 404 17 571 570 406 377 96 110 378 17 528 524 526 525 96 40
6 404 17 110 533 535 98 108 571 378 17 107 573 104 339 105 377 375 15 573 1214 0
 104 574 0 17 104 573 575 107 102 371 369 17 339 573 107 539 108 535 337 17 539
 573 339 128 117 342 340 17 128 573 539 220 126 356 354 17 220 573 128 204 123 2
14 221 17 204 573 220 575 202 223 225 17 575 573 204 104 205 240 238 17 223 222
 576 215 205 204 225 17 576 222 577 223 201 208 228 17 577 222 197 576 189 210 2
42 17 208 578 240 579 205 576 228 15 578 1201 0 113 580 0 17 240 578 113 208 102
 575 238 17 579 578 208 149 201 237 235 17 149 578 579 146 147 321 319 17 237 58
1 158 210 147 579 235 15 581 522 0 158 582 0 17 158 581 191 237 156 312 310 17 2
10 581 237 191 201 577 242 17 191 581 210 158 189 256 254 17 256 583 131 584 156
 191 254 15 583 122 0 256 585 0 17 131 583 586 256 129 587 305 17 584 583 256 58
6 189 197 252 17 586 583 584 131 195 251 249 17 197 222 555 577 195 584 252 17 2
51 556 143 259 129 586 249 17 143 556 336 251 141 588 329 17 336 556 374 143 99
 589 334 17 588 590 587 315 129 143 329 15 590 661 0 587 591 0 17 587 590 312 58
8 156 131 305 17 315 590 588 321 141 592 313 17 321 590 315 312 144 149 319 17 5
92 593 333 589 144 315 313 15 593 1254 0 333 594 0 17 333 593 89 592 111 146 331
 17 589 593 592 398 141 336 334 17 398 593 589 89 99 565 396 17 89 593 398 333 8
7 568 361 17 565 561 563 101 87 398 396 17 568 566 368 403 111 89 361 17 368 566
 371 568 102 113 366 17 113 578 146 240 111 368 366 17 146 578 149 113 144 333 3
31 14 594 1256 0 538 567 593 4 595 -14 538 989 0 542 594 536 4 596 -14 567 1272
 0 594 572 566 4 597 -50 595 1257 0 594 596 597 0 +3.06 2.495 .4 -1 0 0 50 596 1
095 0 538 598 595 0 +1.53 1.175 .48 0 1 0 50 597 1374 0 567 595 599 0 +1.53 4.40
25 .48 0 0 -1 50 599 1372 0 572 597 600 0 +1.53 3.815 .48 0 -1 0 14 572 1268 0 5
67 545 570 4 599 -50 600 1545 0 545 599 601 0 +1.53 .5875 .48 0 0 -1 14 545 1544
 0 572 564 544 4 600 -50 601 1567 0 564 600 602 0 +1.53 4.4025 .48 0 0 -1 14 564
 1566 0 545 496 561 4 601 -50 602 1671 0 496 601 603 0 +2.76 2.495 .48 -1 0 0 14
 496 1584 0 564 551 494 4 602 -50 603 1668 0 551 602 604 0 +3.26 2.495 .48 0 0 -
1 14 551 1578 0 496 560 549 4 603 -50 604 1667 0 560 603 605 0 +3.26 2.495 .48 0
 0 -1 14 560 1576 0 551 527 559 4 604 -50 605 1818 0 527 604 606 0 +2.76 2.495 .
48 -1 0 0 14 527 1817 0 560 492 524 4 605 -50 606 1924 0 492 605 607 0 +2.76 1.9
3 1.2 0 -1 0 14 492 1835 0 527 532 490 4 606 -50 607 1923 0 532 606 608 0 +2.76
 3.06 1.2 0 1 0 14 532 1833 0 492 484 530 4 607 -50 608 1922 0 484 607 17 0 +2.4
6 2.495 1.2 -1 0 0 14 484 1831 0 532 11 482 4 608 -51 17 1921 0 11 608 8 0 +2.66
 2.86 1.2 0 0 1 .2 14 11 1829 0 484 5 479 4 17 -50 598 1097 0 542 609 596 0 +1.5
3 .5875 .48 0 0 -1 14 542 993 0 610 538 540 4 598 -50 609 788 0 610 611 598 0 +3
.06 2.495 .4 -1 0 0 14 610 648 0 591 542 612 4 609 -50 611 794 0 591 613 609 0 +
4.16 2.495 .4 0 0 -1 14 591 660 0 614 610 590 4 611 -50 613 795 0 614 615 611 0
 +4.16 2.495 .4 0 0 -1 14 614 662 0 616 591 617 4 613 -50 615 525 0 616 618 613
 0 +5.26 2.495 0 1 0 0 14 616 524 0 519 614 619 4 615 +50 618 424 0 519 620 615
 0 +1.76 3.555 0 0 1 0 14 519 330 0 502 616 518 4 618 -50 620 425 0 502 621 618
 0 +1.76 1.435 0 0 -1 0 14 502 332 0 508 519 500 4 620 -51 621 426 0 508 622 620
 0 +.56 1.735 0 0 0 1 .3 14 508 334 0 514 502 507 4 621 -51 622 427 0 514 623 62
1 0 +.56 3.255 0 0 0 1 .3 14 514 336 0 512 508 513 4 622 -50 623 430 0 512 624 6
22 0 +.26 2.495 0 -1 0 0 14 512 342 0 476 514 510 4 623 -50 624 434 0 476 625 62
3 0 +1.76 2.495 1.24 0 0 1 14 476 350 0 553 512 474 4 624 -51 625 187 0 553 626
 624 0 +3.26 1.54 0 0 0 1 .5 14 553 111 0 557 476 552 4 625 -51 626 188 0 557 62
7 625 0 +3.26 3.45 0 0 0 1 .5 14 557 113 0 585 553 556 4 626 -50 627 192 0 585 6
28 626 0 +4.51 3.95 0 0 1 0 14 585 121 0 629 557 583 4 627 -50 628 196 0 629 630
 627 0 +4.51 1.04 0 0 -1 0 14 629 129 0 534 585 631 4 628 -50 630 51 0 534 632 6
28 0 +2.63 2.495 1.5 0 0 1 14 534 33 0 217 629 533 4 630 +50 632 46 0 217 633 63
0 0 +2.63 0 0 0 -1 0 14 217 30 0 574 534 212 4 632 +50 633 45 0 574 634 632 0 +0
 2.495 0 -1 0 0 14 574 27 0 580 217 573 4 633 +50 634 44 0 580 635 633 0 +2.63 4
.99 0 0 1 0 14 580 24 0 554 574 578 4 634 +50 635 43 0 582 636 634 0 +5.26 2.495
 0 1 0 0 14 582 1 0 0 554 581 4 635 +50 636 34 0 554 0 635 0 +2.63 2.495 0 0 0 -
1 14 554 6 0 582 580 222 4 636 +15 631 130 0 637 629 0 17 637 631 152 638 132 30
4 302 17 152 631 301 637 150 639 325 17 638 631 637 301 198 194 244 17 304 552 2
48 134 198 637 302 17 134 552 304 140 132 640 327 17 140 552 134 116 138 641 346
 17 640 617 318 639 138 134 327 15 617 663 0 318 614 0 17 318 617 324 640 135 64
2 316 17 639 617 640 309 132 152 325 17 309 617 639 324 150 155 307 17 324 617 3
09 318 153 137 322 17 155 619 218 643 153 309 307 15 619 527 0 155 616 0 17 218
 619 230 155 206 213 219 17 643 619 155 230 150 301 299 17 230 619 643 218 192 2
24 226 17 301 631 638 152 192 643 299 17 224 222 215 194 206 230 226 17 194 222
 224 200 192 638 244 17 137 212 644 213 135 324 322 17 644 212 125 137 120 345 3
43 17 125 212 214 644 123 350 348 17 345 612 642 122 135 644 343 15 612 649 0 64
1 610 0 17 642 612 641 345 138 318 316 17 122 612 345 95 120 541 385 17 95 612 1
22 641 93 546 359 17 541 540 395 350 93 122 385 17 350 540 541 356 120 125 348 1
7 641 612 95 642 114 140 346 17 546 544 547 543 114 95 359 17 312 590 321 587 14
7 158 310 1 0 
