600 0 1 0           
90 GICL Pro/E ACIS Translator - Source: f:/data5/repository/PTC/V18/lrgasm18/ball.prt.2 - 6 0 13 ACIS 6.0.3 NT 24 Thu Apr 04 13:35:07 2002 
1 9.9999999999999995e-007 1e-010 
body $-1 $1 $-1 $2 #
lump $-1 $-1 $3 $0 #
transform $-1 1 0 0 0 1 0 0 0 1 0 0 0 25.399999999999999 no_rotate no_reflect no_shear #
shell $-1 $-1 $-1 $4 $-1 $1 #
face $-1 $5 $6 $3 $-1 $7 forward single #
face $-1 $-1 $8 $3 $-1 $9 forward single #
loop $-1 $-1 $10 $4 #
sphere-surface $-1 0 0 0 0.23999999999999999 1 0 0 0 0 1 forward_v I I I I #
loop $-1 $-1 $11 $5 #
sphere-surface $-1 0 0 0 0.23999999999999999 1 0 0 0 0 1 forward_v I I I I #
coedge $-1 $12 $12 $11 $13 forward $6 $-1 #
coedge $-1 $14 $14 $10 $13 reversed $8 $-1 #
coedge $-1 $10 $10 $14 $15 reversed $6 $-1 #
edge $-1 $16 -1.224606353822377e-016 $17 3.1415926535897931 $10 $18 forward 7 unknown #
coedge $-1 $11 $11 $12 $15 forward $8 $-1 #
edge $-1 $16 0 $17 3.1415926535897931 $12 $19 forward 7 unknown #
vertex $-1 $15 $20 #
vertex $-1 $15 $21 #
ellipse-curve $-1 0 0 0 1.2246063538223768e-016 2.9697385667691062e-048 -1 1.4695276245868526e-017 0.23999999999999999 1.7995928661865648e-033 1 I I #
ellipse-curve $-1 0 0 0 0 0 1 -1.4695276245868526e-017 0.23999999999999999 0 1 I I #
point $-1 -1.4695276245868526e-017 0.23999999999999999 0 #
point $-1 -1.4695276245868526e-017 -0.23999999999999999 0 #
End-of-ACIS-data 