600 0 1 0           
104 GICL Pro/E ACIS Translator - Source: f:/data5/repository/PTC/V18/lrgasm18/bearing_inner_race.prt.2 - 6 0 13 ACIS 6.0.3 NT 24 Thu Apr 04 13:35:07 2002 
1 9.9999999999999995e-007 1e-010 
body $-1 $1 $-1 $2 #
lump $-1 $-1 $3 $0 #
transform $-1 1 0 0 0 1 0 0 0 1 0 0 0 25.399999999999999 no_rotate no_reflect no_shear #
shell $-1 $-1 $-1 $4 $-1 $1 #
face $-1 $5 $6 $3 $-1 $7 forward single #
face $-1 $8 $9 $3 $-1 $10 forward single #
loop $-1 $11 $12 $4 #
plane-surface $-1 -0.69999999999999996 -0.375 0 -1 0 0 0 1 0 forward_v I I I I #
face $-1 $13 $14 $3 $-1 $15 forward single #
loop $-1 $-1 $16 $5 #
cone-surface $-1 0.087500000000000133 -0.375 0 -1 0 0 0 0.625 0 1 I I 0 1 0.625 forward I I I I #
loop $-1 $-1 $17 $4 #
coedge $-1 $18 $18 $16 $19 reversed $6 $-1 #
face $-1 $20 $21 $3 $-1 $22 reversed single #
loop $-1 $-1 $23 $8 #
cone-surface $-1 0.087500000000000133 -0.375 0 -1 0 0 0 0.625 0 1 I I 0 1 0.625 forward I I I I #
coedge $-1 $24 $25 $12 $19 forward $9 $-1 #
coedge $-1 $26 $26 $27 $28 reversed $11 $-1 #
coedge $-1 $12 $12 $29 $30 forward $6 $-1 #
edge $-1 $31 0 $32 3.1415926535897931 $12 $33 forward 7 unknown #
face $-1 $34 $35 $3 $-1 $36 forward single #
loop $-1 $-1 $37 $13 #
torus-surface $-1 -0.32499999999999996 -0.375 0 -1 0 0 0.75 0.25 0 1 0 forward_v I I I I #
coedge $-1 $38 $39 $40 $41 forward $14 $-1 #
coedge $-1 $42 $16 $38 $43 reversed $9 $-1 #
coedge $-1 $16 $42 $39 $44 forward $9 $-1 #
coedge $-1 $17 $17 $45 $46 forward $11 $-1 #
coedge $-1 $47 $48 $17 $28 forward $49 $-1 #
edge $-1 $50 0 $51 3.1415926535897927 $17 $52 forward 7 unknown #
coedge $-1 $39 $38 $18 $30 reversed $14 $-1 #
edge $-1 $31 0 $32 3.1415926535897931 $18 $53 forward 7 unknown #
vertex $-1 $30 $54 #
vertex $-1 $30 $55 #
ellipse-curve $-1 -0.69999999999999996 -0.375 0 1 0 0 0 0.625 0 1 I I #
face $-1 $56 $57 $3 $-1 $58 reversed single #
loop $-1 $-1 $59 $20 #
cone-surface $-1 0.087500000000000133 -0.375 0 -1 0 0 0 0.625 0 1 I I 0 1 0.625 forward I I I I #
coedge $-1 $60 $61 $62 $63 forward $21 $-1 #
coedge $-1 $29 $23 $24 $43 forward $14 $-1 #
coedge $-1 $23 $29 $25 $44 reversed $14 $-1 #
coedge $-1 $61 $60 $23 $41 reversed $21 $-1 #
edge $-1 $64 0 $65 3.1415926535897931 $40 $66 forward 7 unknown #
coedge $-1 $25 $24 $67 $68 reversed $9 $-1 #
edge $-1 $65 0 $32 0.15849364905389041 $38 $69 forward 7 unknown #
edge $-1 $64 1.1102230246251565e-016 $31 0.15849364905389041 $39 $70 forward 7 unknown #
coedge $-1 $71 $72 $26 $46 reversed $73 $-1 #
edge $-1 $50 0 $51 3.1415926535897927 $26 $74 forward 7 unknown #
coedge $-1 $75 $27 $72 $76 forward $49 $-1 #
coedge $-1 $27 $75 $71 $77 reversed $49 $-1 #
loop $-1 $-1 $27 $78 #
vertex $-1 $46 $79 #
vertex $-1 $46 $80 #
ellipse-curve $-1 -0.69999999999999996 -0.375 1.3877787807814457e-016 -1 0 0 0 0.4249999999999996 -1.3877787807814457e-016 1 I I #
ellipse-curve $-1 -0.69999999999999996 -0.375 0 -1 0 0 0 0.625 0 1 I I #
point $-1 -0.69999999999999996 0.25 0 #
point $-1 -0.69999999999999996 -1 0 #
face $-1 $81 $82 $3 $-1 $83 reversed single #
loop $-1 $84 $85 $34 #
plane-surface $-1 0.049999999999999996 -0.375 0 -1 0 0 0 1 0 forward_v I I I I #
coedge $-1 $86 $87 $88 $89 forward $35 $-1 #
coedge $-1 $40 $37 $90 $91 forward $21 $-1 #
coedge $-1 $37 $40 $92 $93 reversed $21 $-1 #
coedge $-1 $87 $86 $37 $63 reversed $35 $-1 #
edge $-1 $94 0 $95 3.1415926535897931 $62 $96 forward 7 unknown #
vertex $-1 $93 $97 #
vertex $-1 $41 $98 #
ellipse-curve $-1 -0.54150635094610955 -0.375 0 -1 0 0 0 0.625 0 1 I I #
coedge $-1 $90 $92 $42 $68 forward $99 $-1 #
edge $-1 $64 0 $65 3.1415926535897931 $67 $100 forward 7 unknown #
straight-curve $-1 -0.54150635094610955 -1 7.6537897113898579e-017 -1 0 0 I I #
straight-curve $-1 -0.54150635094610955 0.25 0 -1 0 0 I I #
coedge $-1 $101 $45 $48 $77 forward $73 $-1 #
coedge $-1 $45 $101 $47 $76 reversed $73 $-1 #
loop $-1 $-1 $101 $102 #
ellipse-curve $-1 -0.69999999999999996 -0.375 -1.3877787807814457e-016 1 0 0 0 0.4249999999999996 1.3877787807814457e-016 1 I I #
coedge $-1 $48 $47 $103 $104 reversed $49 $-1 #
edge $-1 $51 0 $105 0.070710678118654599 $47 $106 forward 7 unknown #
edge $-1 $50 0 $107 0.070710678118654835 $48 $108 forward 7 unknown #
face $-1 $102 $49 $3 $-1 $109 reversed single #
point $-1 -0.69999999999999996 0.0499999999999996 0 #
point $-1 -0.69999999999999996 -0.7999999999999996 5.2045770037450974e-017 #
face $-1 $110 $111 $3 $-1 $112 reversed single #
loop $-1 $-1 $113 $56 #
cone-surface $-1 0.625 -0.375 0 -1 0 0 0 0.99999999999999989 0 1 I I -0.70710678118654746 0.70710678118654757 0.99999999999999989 forward I I I I #
loop $-1 $-1 $88 $34 #
coedge $-1 $114 $114 $113 $115 reversed $57 $-1 #
coedge $-1 $62 $59 $116 $117 forward $35 $-1 #
coedge $-1 $59 $62 $118 $119 reversed $35 $-1 #
coedge $-1 $120 $120 $59 $89 reversed $84 $-1 #
edge $-1 $121 0 $122 3.1415926535897931 $88 $123 forward 7 unknown #
coedge $-1 $124 $67 $60 $91 reversed $99 $-1 #
edge $-1 $95 0 $65 2.0943951023931939 $60 $125 forward 7 unknown #
coedge $-1 $67 $124 $61 $93 forward $99 $-1 #
edge $-1 $94 -1.3877787807814457e-015 $64 2.0943951023931944 $61 $126 forward 7 unknown #
vertex $-1 $119 $127 #
vertex $-1 $63 $128 #
ellipse-curve $-1 -0.10849364905389047 -0.375 0 -1 0 0 0 0.62499999999999967 0 1 I I #
point $-1 -0.54150635094610966 0.25000000000000006 0 #
point $-1 -0.54150635094610955 -1 -7.6537897113898579e-017 #
loop $-1 $-1 $67 $129 #
ellipse-curve $-1 -0.54150635094610955 -0.375 0 1 0 0 0 0.625 0 1 I I #
coedge $-1 $72 $71 $130 $131 forward $73 $-1 #
face $-1 $132 $73 $3 $-1 $133 reversed single #
coedge $-1 $134 $135 $75 $104 forward $136 $-1 #
edge $-1 $107 -4.3825605845611819e-032 $105 3.1415926535897931 $75 $137 forward 7 unknown #
vertex $-1 $104 $138 #
straight-curve $-1 -0.69999999999999996 -0.7999999999999996 5.2045770037450974e-017 0.70710678118654746 0.70710678118654746 -8.6592745707193332e-017 I I #
vertex $-1 $77 $139 #
straight-curve $-1 -0.69999999999999996 0.0499999999999996 0 0.70710678118654746 -0.70710678118654746 0 I I #
cone-surface $-1 -1.2749999999999999 -0.375 0 1 0 0 0 0.99999999999999889 0 1 I I -0.70710678118654713 0.70710678118654791 0.99999999999999889 forward I I I I #
face $-1 $78 $136 $3 $-1 $140 reversed single #
loop $-1 $-1 $141 $81 #
cone-surface $-1 0.625 -0.375 0 -1 0 0 0 0.99999999999999989 0 1 I I -0.70710678118654746 0.70710678118654757 0.99999999999999989 forward I I I I #
coedge $-1 $142 $143 $85 $115 forward $82 $-1 #
coedge $-1 $85 $85 $144 $145 forward $57 $-1 #
edge $-1 $146 4.2650351709613531e-033 $147 3.1415926535897931 $85 $148 forward 7 unknown #
coedge $-1 $149 $150 $86 $117 reversed $151 $-1 #
edge $-1 $122 0 $95 0.15849364905389046 $86 $152 forward 7 unknown #
coedge $-1 $150 $149 $87 $119 forward $151 $-1 #
edge $-1 $121 0 $94 0.1584936490538903 $87 $153 forward 7 unknown #
coedge $-1 $88 $88 $149 $154 forward $84 $-1 #
vertex $-1 $154 $155 #
vertex $-1 $154 $156 #
ellipse-curve $-1 0.049999999999999996 -0.375 -2.7755575615628914e-017 -1 1.1102230246251566e-017 4.9303806576313239e-034 6.9388939039072284e-018 0.625 2.7755575615628914e-017 1 I I #
coedge $-1 $92 $90 $150 $157 reversed $99 $-1 #
ellipse-curve $-1 -0.32499999999999996 -1.125 9.1845476536678319e-017 6.1629758220391547e-032 1.224606353822378e-016 1 0.21650635094610948 0.12500000000000033 -1.5307579422779777e-017 1 I I #
ellipse-curve $-1 -0.32499999999999996 0.375 0 0 0 -1 0.21650635094610948 -0.12500000000000031 0 1 I I #
point $-1 -0.10849364905389031 0.25 0 #
point $-1 -0.10849364905389047 -0.99999999999999967 -7.6537897113898542e-017 #
face $-1 $-1 $99 $3 $-1 $158 reversed single #
coedge $-1 $159 $160 $101 $131 reversed $161 $-1 #
edge $-1 $107 -4.3825605845611819e-032 $105 3.1415926535897931 $101 $162 forward 7 unknown #
face $-1 $163 $161 $3 $-1 $164 reversed single #
cone-surface $-1 -1.2749999999999999 -0.375 0 1 0 0 0 0.99999999999999889 0 1 I I -0.70710678118654713 0.70710678118654791 0.99999999999999889 forward I I I I #
coedge $-1 $165 $103 $160 $166 forward $136 $-1 #
coedge $-1 $103 $165 $159 $167 reversed $136 $-1 #
loop $-1 $-1 $103 $110 #
ellipse-curve $-1 -0.6499999999999998 -0.375 -1.3877787807814457e-017 -1 0 0 0 0.375 1.3877787807814457e-017 1 I I #
point $-1 -0.6499999999999998 -0.75 -4.5922738268339147e-017 #
point $-1 -0.64999999999999991 -4.4408920985006262e-016 0 #
cone-surface $-1 0.087500000000000133 -0.375 0 -1 0 0 0 0.375 0 1 I I 0 1 0.375 forward I I I I #
coedge $-1 $168 $169 $165 $170 forward $111 $-1 #
coedge $-1 $171 $113 $168 $172 reversed $82 $-1 #
coedge $-1 $113 $171 $169 $173 forward $82 $-1 #
coedge $-1 $169 $168 $114 $145 reversed $111 $-1 #
edge $-1 $146 4.2650351709613531e-033 $147 3.1415926535897931 $144 $174 forward 7 unknown #
vertex $-1 $173 $175 #
vertex $-1 $145 $176 #
ellipse-curve $-1 0.049999999999999996 -0.375 -1.3877787807814457e-017 1 0 0 0 0.42499999999999999 1.3877787807814457e-017 1 I I #
coedge $-1 $118 $116 $120 $154 reversed $151 $-1 #
coedge $-1 $116 $118 $124 $157 forward $151 $-1 #
loop $-1 $-1 $150 $163 #
straight-curve $-1 0.050000000000000003 -1 7.6537897113898579e-017 -1 0 0 I I #
straight-curve $-1 0.050000000000000003 0.25 0 -1 0 0 I I #
edge $-1 $121 0 $122 3.1415926535897931 $120 $177 forward 7 unknown #
point $-1 0.050000000000000003 0.25 0 #
point $-1 0.050000000000000003 -1 7.6537897113898579e-017 #
edge $-1 $94 0 $95 3.1415926535897931 $150 $178 forward 7 unknown #
torus-surface $-1 -0.32499999999999996 -0.375 0 -1 0 0 0.75 0.25 0 1 0 forward_v I I I I #
coedge $-1 $179 $130 $135 $167 forward $161 $-1 #
coedge $-1 $130 $179 $134 $166 reversed $161 $-1 #
loop $-1 $-1 $179 $132 #
ellipse-curve $-1 -0.6499999999999998 -0.375 1.3877787807814457e-017 1 0 0 0 0.375 -1.3877787807814457e-017 1 I I #
face $-1 $129 $151 $3 $-1 $180 forward single #
cone-surface $-1 0.087500000000000133 -0.375 0 -1 0 0 0 0.375 0 1 I I 0 1 0.375 forward I I I I #
coedge $-1 $135 $134 $141 $170 reversed $136 $-1 #
edge $-1 $105 0 $181 0.6499999999999998 $134 $182 forward 7 unknown #
edge $-1 $107 -1.1102230246251565e-016 $183 0.6499999999999998 $135 $184 forward 7 unknown #
coedge $-1 $144 $141 $142 $172 forward $111 $-1 #
coedge $-1 $141 $144 $143 $173 reversed $111 $-1 #
edge $-1 $183 0 $181 3.1415926535897931 $165 $185 forward 7 unknown #
coedge $-1 $143 $142 $179 $186 reversed $82 $-1 #
edge $-1 $181 -7.9531519940965915e-033 $147 0.070710678118654793 $168 $187 forward 7 unknown #
edge $-1 $183 0 $146 0.070710678118654738 $169 $188 forward 7 unknown #
ellipse-curve $-1 0.049999999999999996 -0.375 1.3877787807814457e-017 -1 0 0 0 0.42499999999999999 -1.3877787807814457e-017 1 I I #
point $-1 0.050000000000000044 0.049999999999999933 0 #
point $-1 0.049999999999999996 -0.80000000000000004 0 #
ellipse-curve $-1 0.049999999999999996 -0.375 2.7755575615628914e-017 1 -1.1102230246251566e-017 4.9303806576313239e-034 6.9388939039072284e-018 0.625 -2.7755575615628914e-017 1 I I #
ellipse-curve $-1 -0.10849364905389047 -0.375 0 1 0 0 0 0.62499999999999967 0 1 I I #
coedge $-1 $160 $159 $171 $186 forward $161 $-1 #
cone-surface $-1 0.087500000000000133 -0.375 0 -1 0 0 0 0.625 0 1 I I 0 1 0.625 forward I I I I #
vertex $-1 $170 $189 #
straight-curve $-1 -0.6499999999999998 -0.75 4.5922738268339147e-017 1 0 0 I I #
vertex $-1 $167 $190 #
straight-curve $-1 -0.6499999999999998 0 0 1 0 0 I I #
ellipse-curve $-1 0 -0.375 -1.3877787807814457e-017 -1 0 0 0 0.375 1.3877787807814457e-017 1 I I #
edge $-1 $183 0 $181 3.1415926535897931 $179 $191 forward 7 unknown #
straight-curve $-1 0 -0.75 4.5922738268339135e-017 0.70710678118654746 -0.70710678118654746 8.6592745707193505e-017 I I #
straight-curve $-1 0 0 0 0.70710678118654835 0.70710678118654668 0 I I #
point $-1 0 -0.75 -4.5922738268339135e-017 #
point $-1 0 0 0 #
ellipse-curve $-1 0 -0.375 1.3877787807814457e-017 1 0 0 0 0.375 -1.3877787807814457e-017 1 I I #
End-of-ACIS-data 