600 0 1 0           
102 GICL Pro/E ACIS Translator - Source: f:/data5/repository/PTC/V18/lrgasm18/bearing_retainer.prt.2 - 6 0 13 ACIS 6.0.3 NT 24 Thu Apr 04 13:35:16 2002 
1 9.9999999999999995e-007 1e-010 
body $-1 $1 $-1 $2 #
lump $-1 $-1 $3 $0 #
transform $-1 1 0 0 0 1 0 0 0 1 0 0 0 25.399999999999999 no_rotate no_reflect no_shear #
shell $-1 $-1 $-1 $4 $-1 $1 #
face $-1 $5 $6 $3 $-1 $7 forward single #
face $-1 $8 $9 $3 $-1 $10 forward single #
loop $-1 $11 $12 $4 #
plane-surface $-1 0 0 -0.75 0 0 -1 -1 0 0 forward_v I I I I #
face $-1 $13 $14 $3 $-1 $15 forward single #
loop $-1 $-1 $16 $5 #
cone-surface $-1 0 0 0 0 0 -1 -1.375 0 0 1 I I 0 1 1.375 forward I I I I #
loop $-1 $-1 $17 $4 #
coedge $-1 $18 $18 $19 $20 forward $6 $-1 #
face $-1 $21 $22 $3 $-1 $23 reversed single #
loop $-1 $-1 $24 $8 #
cone-surface $-1 0 0 0 0 0 -1 -1.375 0 0 1 I I 0 1 1.375 forward I I I I #
coedge $-1 $19 $25 $26 $27 forward $9 $-1 #
coedge $-1 $28 $28 $29 $30 forward $11 $-1 #
coedge $-1 $12 $12 $31 $32 forward $6 $-1 #
coedge $-1 $33 $16 $12 $20 reversed $9 $-1 #
edge $-1 $34 0 $35 3.1415926535897931 $12 $36 forward 7 unknown #
face $-1 $37 $38 $3 $-1 $39 forward single #
loop $-1 $40 $41 $13 #
plane-surface $-1 0 0 0 0 0 1 1 0 0 forward_v I I I I #
coedge $-1 $31 $42 $33 $43 forward $14 $-1 #
coedge $-1 $16 $33 $44 $45 forward $9 $-1 #
coedge $-1 $42 $31 $16 $27 reversed $14 $-1 #
edge $-1 $46 0 $35 0.75 $26 $47 forward 7 unknown #
coedge $-1 $17 $17 $48 $49 forward $11 $-1 #
coedge $-1 $50 $51 $17 $30 reversed $52 $-1 #
edge $-1 $53 0 $54 3.1415926535897931 $17 $55 forward 7 unknown #
coedge $-1 $26 $24 $18 $32 reversed $14 $-1 #
edge $-1 $35 0 $34 3.1415926535897931 $18 $56 forward 7 unknown #
coedge $-1 $25 $19 $24 $43 reversed $9 $-1 #
vertex $-1 $32 $57 #
vertex $-1 $32 $58 #
ellipse-curve $-1 0 0 -0.75 0 0 -1 1.375 0 0 1 I I #
face $-1 $59 $60 $3 $-1 $61 forward single #
loop $-1 $-1 $62 $21 #
plane-surface $-1 1.5 2 0 0 1 0 -1 0 0 forward_v I I I I #
loop $-1 $63 $64 $13 #
coedge $-1 $65 $66 $67 $68 reversed $22 $-1 #
coedge $-1 $24 $26 $69 $70 forward $14 $-1 #
edge $-1 $71 0 $34 0.75 $24 $72 forward 7 unknown #
coedge $-1 $69 $69 $25 $45 reversed $63 $-1 #
edge $-1 $71 0 $46 3.1415926535897931 $25 $73 forward 7 unknown #
vertex $-1 $70 $74 #
straight-curve $-1 -1.375 0 0 0 0 -1 I I #
coedge $-1 $75 $76 $28 $49 reversed $77 $-1 #
edge $-1 $54 0 $53 3.1415926535897931 $28 $78 forward 7 unknown #
coedge $-1 $79 $29 $76 $80 reversed $52 $-1 #
coedge $-1 $29 $79 $75 $81 forward $52 $-1 #
loop $-1 $-1 $51 $82 #
vertex $-1 $49 $83 #
vertex $-1 $49 $84 #
ellipse-curve $-1 0 0 -0.75 0 0 1 1.125 0 0 1 I I #
ellipse-curve $-1 0 0 -0.75 0 0 -1 -1.375 0 0 1 I I #
point $-1 1.375 0 -0.75 #
point $-1 -1.375 0 -0.75 #
face $-1 $85 $86 $3 $-1 $87 forward single #
loop $-1 $-1 $88 $37 #
cone-surface $-1 -1.5 1.5 0 0 0 1 0.5 0 0 1 I I 0 1 0.5 forward I I I I #
coedge $-1 $89 $67 $90 $91 forward $38 $-1 #
loop $-1 $92 $44 $13 #
coedge $-1 $93 $93 $94 $95 reversed $40 $-1 #
coedge $-1 $96 $41 $97 $98 reversed $22 $-1 #
coedge $-1 $41 $99 $100 $101 reversed $22 $-1 #
coedge $-1 $62 $102 $41 $68 forward $38 $-1 #
edge $-1 $103 0 $104 3 $41 $105 forward 7 unknown #
coedge $-1 $44 $44 $42 $70 reversed $63 $-1 #
edge $-1 $46 0 $71 3.1415926535897931 $42 $106 forward 7 unknown #
vertex $-1 $70 $107 #
straight-curve $-1 1.375 1.6838337365057687e-016 0 0 0 -1 I I #
ellipse-curve $-1 0 0 0 0 0 -1 1.375 0 0 1 I I #
point $-1 -1.375 0 0 #
coedge $-1 $108 $48 $51 $81 reversed $77 $-1 #
coedge $-1 $48 $108 $50 $80 forward $77 $-1 #
loop $-1 $-1 $76 $109 #
ellipse-curve $-1 0 0 -0.75 0 0 1 -1.125 0 0 1 I I #
coedge $-1 $51 $50 $110 $111 reversed $52 $-1 #
edge $-1 $112 0 $53 0.75 $76 $113 forward 7 unknown #
edge $-1 $114 0 $54 0.75 $75 $115 forward 7 unknown #
face $-1 $109 $52 $3 $-1 $116 reversed single #
point $-1 1.125 0 -0.75 #
point $-1 -1.125 0 -0.75 #
face $-1 $117 $118 $3 $-1 $119 forward single #
loop $-1 $-1 $120 $59 #
plane-surface $-1 -2 1.5 0 -1 0 0 0 -1 0 forward_v I I I I #
coedge $-1 $121 $100 $122 $123 forward $60 $-1 #
coedge $-1 $102 $62 $124 $125 reversed $38 $-1 #
coedge $-1 $100 $121 $62 $91 reversed $60 $-1 #
edge $-1 $104 0 $126 0.25 $90 $127 forward 7 unknown #
loop $-1 $128 $129 $13 #
coedge $-1 $64 $64 $130 $131 reversed $40 $-1 #
coedge $-1 $132 $133 $64 $95 forward $134 $-1 #
edge $-1 $135 0 $136 3.1415926535897931 $64 $137 forward 7 unknown #
coedge $-1 $138 $65 $139 $140 reversed $22 $-1 #
coedge $-1 $141 $142 $65 $98 forward $143 $-1 #
edge $-1 $144 0 $103 1.5707963267948966 $65 $145 forward 7 unknown #
coedge $-1 $66 $146 $147 $148 reversed $22 $-1 #
coedge $-1 $88 $90 $66 $101 forward $60 $-1 #
edge $-1 $104 0 $149 1.5707963267948966 $66 $150 forward 7 unknown #
coedge $-1 $67 $89 $141 $151 reversed $38 $-1 #
vertex $-1 $98 $152 #
vertex $-1 $101 $153 #
straight-curve $-1 1.5 2 0 -1 0 0 I I #
ellipse-curve $-1 0 0 0 0 0 -1 -1.375 0 0 1 I I #
point $-1 1.375 0 0 #
coedge $-1 $76 $75 $154 $155 reversed $77 $-1 #
face $-1 $156 $77 $3 $-1 $157 reversed single #
coedge $-1 $154 $154 $79 $111 forward $158 $-1 #
edge $-1 $114 0 $112 3.1415926535897931 $79 $159 forward 7 unknown #
vertex $-1 $155 $160 #
straight-curve $-1 1.125 1.3776821480501744e-016 0 0 0 -1 I I #
vertex $-1 $155 $161 #
straight-curve $-1 -1.125 0 0 0 -3.6738190614671318e-016 -1 I I #
cone-surface $-1 0 0 0 0 0 -1 -1.125 0 0 1 I I 0 1 1.125 forward I I I I #
face $-1 $162 $163 $3 $-1 $164 forward single #
loop $-1 $-1 $165 $85 #
cone-surface $-1 -1.5 -1.5 0 0 0 1 0.5 0 0 1 I I 0 1 0.5 forward I I I I #
coedge $-1 $166 $147 $167 $168 forward $86 $-1 #
coedge $-1 $90 $88 $169 $170 reversed $60 $-1 #
coedge $-1 $147 $166 $88 $123 reversed $86 $-1 #
edge $-1 $149 0 $171 0.25 $88 $172 forward 7 unknown #
coedge $-1 $169 $173 $89 $125 forward $174 $-1 #
edge $-1 $175 0 $126 3 $124 $176 forward 7 unknown #
vertex $-1 $170 $177 #
straight-curve $-1 -1.5 2 0 0 0 1 I I #
loop $-1 $178 $179 $13 #
coedge $-1 $180 $180 $181 $182 reversed $92 $-1 #
coedge $-1 $183 $184 $93 $131 forward $185 $-1 #
edge $-1 $136 0 $135 3.1415926535897931 $93 $186 forward 7 unknown #
coedge $-1 $187 $94 $184 $188 reversed $134 $-1 #
coedge $-1 $94 $187 $183 $189 forward $134 $-1 #
loop $-1 $-1 $132 $156 #
vertex $-1 $131 $190 #
vertex $-1 $131 $191 #
ellipse-curve $-1 -1.5 -1.5 0 0 0 -1 0.125 0 0 1 I I #
coedge $-1 $192 $96 $193 $194 reversed $22 $-1 #
coedge $-1 $195 $196 $96 $140 forward $197 $-1 #
edge $-1 $198 0 $144 3 $96 $199 forward 7 unknown #
coedge $-1 $200 $97 $102 $151 forward $143 $-1 #
coedge $-1 $97 $200 $195 $201 reversed $143 $-1 #
loop $-1 $-1 $141 $202 #
vertex $-1 $140 $203 #
ellipse-curve $-1 1.5 1.5 0 0 0 1 0.5 0 0 1 I I #
coedge $-1 $99 $192 $204 $205 reversed $22 $-1 #
coedge $-1 $120 $122 $99 $148 forward $86 $-1 #
edge $-1 $149 0 $206 3 $99 $207 forward 7 unknown #
vertex $-1 $101 $208 #
ellipse-curve $-1 -1.5 1.5 0 0 0 1 0 0.5 0 1 I I #
edge $-1 $103 0 $175 0.25 $141 $209 forward 7 unknown #
point $-1 1.5 2 0 #
point $-1 -1.5 2 0 #
coedge $-1 $110 $110 $108 $155 forward $158 $-1 #
edge $-1 $112 0 $114 3.1415926535897931 $108 $210 forward 7 unknown #
face $-1 $211 $134 $3 $-1 $212 reversed single #
cone-surface $-1 0 0 0 0 0 -1 -1.125 0 0 1 I I 0 1 1.125 forward I I I I #
loop $-1 $213 $110 $214 #
ellipse-curve $-1 0 0 0 0 0 -1 -1.125 0 0 1 I I #
point $-1 1.125 0 0 #
point $-1 -1.125 0 0 #
face $-1 $215 $216 $3 $-1 $217 forward single #
loop $-1 $-1 $218 $117 #
plane-surface $-1 -1.5 -2 0 0 -1 0 1 0 0 forward_v I I I I #
coedge $-1 $219 $204 $220 $221 forward $118 $-1 #
coedge $-1 $122 $120 $222 $223 reversed $86 $-1 #
coedge $-1 $204 $219 $120 $168 reversed $118 $-1 #
edge $-1 $206 0 $224 0.25 $120 $225 forward 7 unknown #
coedge $-1 $222 $124 $121 $170 forward $174 $-1 #
edge $-1 $126 0 $171 1.5707963267948966 $169 $226 forward 7 unknown #
vertex $-1 $170 $227 #
straight-curve $-1 -2 1.5 0 0 0 1 I I #
coedge $-1 $124 $228 $200 $229 forward $174 $-1 #
loop $-1 $230 $222 $231 #
vertex $-1 $125 $232 #
straight-curve $-1 1.5 2 0.25 -1 0 0 I I #
point $-1 -1.5 2 0.25 #
loop $-1 $-1 $233 $13 #
coedge $-1 $234 $234 $235 $236 reversed $128 $-1 #
coedge $-1 $129 $129 $237 $238 reversed $92 $-1 #
coedge $-1 $239 $240 $129 $182 forward $241 $-1 #
edge $-1 $242 0 $243 3.1415926535897931 $129 $244 forward 7 unknown #
coedge $-1 $245 $130 $133 $189 reversed $185 $-1 #
coedge $-1 $130 $245 $132 $188 forward $185 $-1 #
loop $-1 $-1 $183 $211 #
ellipse-curve $-1 -1.5 -1.5 0 0 0 -1 -0.125 0 0 1 I I #
coedge $-1 $133 $132 $246 $247 reversed $134 $-1 #
edge $-1 $248 0 $136 0.25 $184 $249 forward 7 unknown #
edge $-1 $250 0 $135 0.25 $183 $251 forward 7 unknown #
point $-1 -1.375 -1.5 0 #
point $-1 -1.625 -1.5 0 #
coedge $-1 $146 $138 $252 $253 reversed $22 $-1 #
coedge $-1 $254 $255 $138 $194 forward $216 $-1 #
edge $-1 $256 0 $198 1.5707963267948966 $138 $257 forward 7 unknown #
coedge $-1 $258 $139 $142 $201 forward $197 $-1 #
coedge $-1 $139 $258 $254 $259 reversed $197 $-1 #
loop $-1 $-1 $195 $215 #
vertex $-1 $194 $260 #
straight-curve $-1 2 -1.5 0 0 1 0 I I #
coedge $-1 $142 $141 $173 $229 reversed $143 $-1 #
edge $-1 $144 0 $261 0.25 $195 $262 forward 7 unknown #
face $-1 $231 $143 $3 $-1 $263 forward single #
point $-1 2 1.5 0 #
coedge $-1 $165 $167 $146 $205 forward $118 $-1 #
edge $-1 $206 0 $264 1.5707963267948966 $146 $265 forward 7 unknown #
vertex $-1 $148 $266 #
straight-curve $-1 -2 1.5 0 0 -1 0 I I #
point $-1 -2 1.5 0 #
straight-curve $-1 1.5 2 0 0 0 1 I I #
ellipse-curve $-1 0 0 0 0 0 -1 1.125 0 0 1 I I #
face $-1 $-1 $185 $3 $-1 $267 reversed single #
cone-surface $-1 -1.5 -1.5 0.25 0 0 -1 -0.125 0 0 1 I I 0 1 0.125 forward I I I I #
loop $-1 $-1 $268 $214 #
face $-1 $82 $158 $3 $-1 $269 reversed single #
face $-1 $202 $197 $3 $-1 $270 forward single #
loop $-1 $-1 $254 $162 #
cone-surface $-1 1.5 -1.5 0 0 0 1 0.5 0 0 1 I I 0 1 0.5 forward I I I I #
coedge $-1 $271 $252 $255 $272 forward $163 $-1 #
coedge $-1 $167 $165 $273 $274 reversed $118 $-1 #
coedge $-1 $252 $271 $165 $221 reversed $163 $-1 #
edge $-1 $264 0 $275 0.25 $165 $276 forward 7 unknown #
coedge $-1 $273 $169 $166 $223 forward $174 $-1 #
edge $-1 $171 0 $224 3 $222 $277 forward 7 unknown #
vertex $-1 $274 $278 #
straight-curve $-1 -2 -1.5 0 0 0 1 I I #
ellipse-curve $-1 -1.5 1.5 0.25 0 0 1 0 0.5 0 1 I I #
point $-1 -2 1.5 0.25 #
coedge $-1 $173 $279 $258 $280 forward $174 $-1 #
edge $-1 $261 0 $175 1.5707963267948966 $173 $281 forward 7 unknown #
loop $-1 $-1 $246 $231 #
face $-1 $282 $283 $3 $-1 $284 forward single #
point $-1 1.5 2 0.25 #
coedge $-1 $285 $285 $286 $287 reversed $178 $-1 #
coedge $-1 $179 $179 $288 $289 reversed $128 $-1 #
coedge $-1 $290 $291 $179 $236 forward $292 $-1 #
edge $-1 $293 0 $294 3.1415926535897931 $179 $295 forward 7 unknown #
coedge $-1 $296 $297 $180 $238 forward $298 $-1 #
edge $-1 $243 0 $242 3.1415926535897931 $180 $299 forward 7 unknown #
coedge $-1 $300 $181 $297 $301 reversed $241 $-1 #
coedge $-1 $181 $300 $296 $302 forward $241 $-1 #
loop $-1 $-1 $239 $303 #
vertex $-1 $238 $304 #
vertex $-1 $238 $305 #
ellipse-curve $-1 1.5 -1.5 0 0 0 -1 0.125 0 0 1 I I #
coedge $-1 $184 $183 $306 $307 reversed $185 $-1 #
coedge $-1 $306 $306 $187 $247 forward $230 $-1 #
edge $-1 $250 0 $248 3.1415926535897931 $246 $308 forward 7 unknown #
vertex $-1 $307 $309 #
straight-curve $-1 -1.625 -1.5 0.25 0 0 -1 I I #
vertex $-1 $307 $310 #
straight-curve $-1 -1.375 -1.5 0.25 0 0 -1 I I #
coedge $-1 $218 $220 $192 $253 forward $163 $-1 #
edge $-1 $264 0 $256 3 $192 $311 forward 7 unknown #
coedge $-1 $312 $193 $196 $259 forward $216 $-1 #
coedge $-1 $193 $312 $218 $272 reversed $216 $-1 #
vertex $-1 $253 $313 #
ellipse-curve $-1 1.5 -1.5 0 0 0 1 0 -0.5 0 1 I I #
coedge $-1 $196 $195 $228 $280 reversed $197 $-1 #
edge $-1 $198 0 $314 0.25 $254 $315 forward 7 unknown #
point $-1 2 -1.5 0 #
vertex $-1 $229 $316 #
straight-curve $-1 2 1.5 0 0 0 1 I I #
cone-surface $-1 1.5 1.5 0 0 0 1 0.5 0 0 1 I I 0 1 0.5 forward I I I I #
vertex $-1 $205 $317 #
ellipse-curve $-1 -1.5 -1.5 0 0 0 1 -0.5 0 0 1 I I #
point $-1 -2 -1.5 0 #
cone-surface $-1 -1.5 -1.5 0.25 0 0 -1 -0.125 0 0 1 I I 0 1 0.125 forward I I I I #
coedge $-1 $318 $318 $319 $320 reversed $213 $-1 #
plane-surface $-1 0 0 0 0 0 1 1 0 0 forward_v I I I I #
plane-surface $-1 2 -1.5 0 1 0 0 0 1 0 forward_v I I I I #
coedge $-1 $220 $218 $321 $322 reversed $163 $-1 #
edge $-1 $256 0 $323 0.25 $218 $324 forward 7 unknown #
coedge $-1 $321 $222 $219 $274 forward $174 $-1 #
edge $-1 $224 0 $275 1.5707963267948966 $273 $325 forward 7 unknown #
vertex $-1 $322 $326 #
straight-curve $-1 -1.5 -2 0 0 0 1 I I #
straight-curve $-1 -2 1.5 0.25 0 -1 0 I I #
point $-1 -2 -1.5 0.25 #
coedge $-1 $228 $321 $312 $327 forward $174 $-1 #
edge $-1 $314 0 $261 3 $228 $328 forward 7 unknown #
ellipse-curve $-1 1.5 1.5 0.25 0 0 1 0.5 0 0 1 I I #
face $-1 $329 $330 $3 $-1 $331 reversed single #
loop $-1 $332 $333 $231 #
plane-surface $-1 0 0 0.25 0 0 1 1 0 0 forward_v I I I I #
coedge $-1 $233 $233 $334 $335 reversed $178 $-1 #
coedge $-1 $336 $337 $233 $287 forward $330 $-1 #
edge $-1 $338 0 $339 3.1415926535897931 $233 $340 forward 7 unknown #
coedge $-1 $341 $342 $234 $289 forward $343 $-1 #
edge $-1 $294 0 $293 3.1415926535897931 $234 $344 forward 7 unknown #
coedge $-1 $345 $235 $342 $346 reversed $292 $-1 #
coedge $-1 $235 $345 $341 $347 forward $292 $-1 #
loop $-1 $-1 $290 $348 #
vertex $-1 $289 $349 #
vertex $-1 $289 $350 #
ellipse-curve $-1 -1.5 1.5 0 0 0 -1 0.125 0 0 1 I I #
coedge $-1 $351 $237 $240 $302 reversed $298 $-1 #
coedge $-1 $237 $351 $239 $301 forward $298 $-1 #
loop $-1 $-1 $296 $352 #
ellipse-curve $-1 1.5 -1.5 0 0 0 -1 -0.125 0 0 1 I I #
coedge $-1 $240 $239 $353 $354 reversed $241 $-1 #
edge $-1 $355 0 $243 0.25 $297 $356 forward 7 unknown #
edge $-1 $357 0 $242 0.25 $296 $358 forward 7 unknown #
face $-1 $352 $241 $3 $-1 $359 reversed single #
point $-1 1.625 -1.5 0 #
point $-1 1.375 -1.5 0 #
coedge $-1 $246 $246 $245 $307 forward $230 $-1 #
edge $-1 $248 0 $250 3.1415926535897931 $306 $360 forward 7 unknown #
ellipse-curve $-1 -1.5 -1.5 0.25 0 0 -1 0.125 0 0 1 I I #
point $-1 -1.625 -1.5 0.25 #
point $-1 -1.375 -1.5 0.25 #
straight-curve $-1 -1.5 -2 0 1 0 0 I I #
coedge $-1 $255 $254 $279 $327 reversed $216 $-1 #
point $-1 1.5 -2 0 #
vertex $-1 $280 $361 #
straight-curve $-1 2 -1.5 0 0 0 1 I I #
point $-1 2 1.5 0.25 #
point $-1 -1.5 -2 0 #
coedge $-1 $268 $268 $362 $363 reversed $213 $-1 #
coedge $-1 $364 $365 $268 $320 forward $366 $-1 #
edge $-1 $367 0 $368 3.1415926535897931 $268 $369 forward 7 unknown #
coedge $-1 $279 $273 $271 $322 forward $174 $-1 #
edge $-1 $275 0 $323 3 $321 $370 forward 7 unknown #
vertex $-1 $327 $371 #
straight-curve $-1 1.5 -2 0 0 0 1 I I #
ellipse-curve $-1 -1.5 -1.5 0.25 0 0 1 -0.5 0 0 1 I I #
point $-1 -1.5 -2 0.25 #
edge $-1 $323 0 $314 1.5707963267948966 $279 $372 forward 7 unknown #
straight-curve $-1 2 -1.5 0.25 0 1 0 I I #
face $-1 $348 $373 $3 $-1 $374 reversed single #
loop $-1 $-1 $336 $282 #
cone-surface $-1 1.5 1.5 0.25 0 0 -1 -0.125 0 0 1 I I 0 1 0.125 forward I I I I #
loop $-1 $375 $376 $231 #
coedge $-1 $377 $377 $378 $379 forward $283 $-1 #
coedge $-1 $380 $381 $285 $335 forward $373 $-1 #
edge $-1 $339 0 $338 3.1415926535897931 $285 $382 forward 7 unknown #
coedge $-1 $378 $286 $381 $383 reversed $330 $-1 #
coedge $-1 $286 $378 $380 $384 forward $330 $-1 #
vertex $-1 $335 $385 #
vertex $-1 $335 $386 #
ellipse-curve $-1 1.5 1.5 0 0 0 -1 0.125 0 0 1 I I #
coedge $-1 $387 $288 $291 $347 reversed $343 $-1 #
coedge $-1 $288 $387 $290 $346 forward $343 $-1 #
loop $-1 $-1 $341 $388 #
ellipse-curve $-1 -1.5 1.5 0 0 0 -1 -0.125 0 0 1 I I #
coedge $-1 $291 $290 $376 $389 reversed $292 $-1 #
edge $-1 $390 0 $294 0.25 $342 $391 forward 7 unknown #
edge $-1 $392 0 $293 0.25 $341 $393 forward 7 unknown #
face $-1 $388 $292 $3 $-1 $394 reversed single #
point $-1 -1.375 1.5 0 #
point $-1 -1.625 1.5 0 #
coedge $-1 $297 $296 $395 $396 reversed $298 $-1 #
face $-1 $397 $298 $3 $-1 $398 reversed single #
coedge $-1 $395 $395 $300 $354 forward $375 $-1 #
edge $-1 $357 0 $355 3.1415926535897931 $353 $399 forward 7 unknown #
vertex $-1 $396 $400 #
straight-curve $-1 1.375 -1.5 0.25 0 0 -1 I I #
vertex $-1 $396 $401 #
straight-curve $-1 1.625 -1.5 0.25 0 0 -1 I I #
cone-surface $-1 1.5 -1.5 0.25 0 0 -1 -0.125 0 0 1 I I 0 1 0.125 forward I I I I #
ellipse-curve $-1 -1.5 -1.5 0.25 0 0 -1 -0.125 0 0 1 I I #
point $-1 2 -1.5 0.25 #
coedge $-1 $402 $403 $318 $363 forward $404 $-1 #
edge $-1 $368 0 $367 3.1415926535897931 $318 $405 forward 7 unknown #
coedge $-1 $406 $319 $403 $407 forward $366 $-1 #
coedge $-1 $319 $406 $402 $408 reversed $366 $-1 #
loop $-1 $-1 $364 $397 #
vertex $-1 $363 $409 #
vertex $-1 $363 $410 #
ellipse-curve $-1 0 0 0 0 0 -1 -1 0 0 1 I I #
straight-curve $-1 -1.5 -2 0.25 1 0 0 I I #
point $-1 1.5 -2 0.25 #
ellipse-curve $-1 1.5 -1.5 0.25 0 0 1 0 -0.5 0 1 I I #
loop $-1 $-1 $380 $329 #
cone-surface $-1 1.5 1.5 0.25 0 0 -1 -0.125 0 0 1 I I 0 1 0.125 forward I I I I #
loop $-1 $411 $353 $231 #
coedge $-1 $412 $412 $345 $389 forward $332 $-1 #
coedge $-1 $333 $333 $413 $414 forward $283 $-1 #
coedge $-1 $337 $336 $333 $379 reversed $330 $-1 #
edge $-1 $415 0 $416 3.1415926535897931 $333 $417 forward 7 unknown #
coedge $-1 $413 $334 $337 $384 reversed $373 $-1 #
coedge $-1 $334 $413 $336 $383 forward $373 $-1 #
ellipse-curve $-1 1.5 1.5 0 0 0 -1 -0.125 0 0 1 I I #
edge $-1 $416 0 $339 0.25 $381 $418 forward 7 unknown #
edge $-1 $415 0 $338 0.25 $380 $419 forward 7 unknown #
point $-1 1.625 1.5 0 #
point $-1 1.375 1.5 0 #
coedge $-1 $342 $341 $412 $420 reversed $343 $-1 #
face $-1 $303 $343 $3 $-1 $421 reversed single #
edge $-1 $392 0 $390 3.1415926535897931 $376 $422 forward 7 unknown #
vertex $-1 $420 $423 #
straight-curve $-1 -1.625 1.5 0.25 0 0 -1 I I #
vertex $-1 $420 $424 #
straight-curve $-1 -1.375 1.5 0.25 0 0 -1 I I #
cone-surface $-1 -1.5 1.5 0.25 0 0 -1 -0.125 0 0 1 I I 0 1 0.125 forward I I I I #
coedge $-1 $353 $353 $351 $396 forward $375 $-1 #
edge $-1 $355 0 $357 3.1415926535897931 $395 $425 forward 7 unknown #
face $-1 $426 $366 $3 $-1 $427 reversed single #
cone-surface $-1 1.5 -1.5 0.25 0 0 -1 -0.125 0 0 1 I I 0 1 0.125 forward I I I I #
ellipse-curve $-1 1.5 -1.5 0.25 0 0 -1 0.125 0 0 1 I I #
point $-1 1.375 -1.5 0.25 #
point $-1 1.625 -1.5 0.25 #
coedge $-1 $428 $362 $365 $408 forward $404 $-1 #
coedge $-1 $362 $428 $364 $407 reversed $404 $-1 #
loop $-1 $-1 $402 $426 #
ellipse-curve $-1 0 0 0 0 0 -1 1 0 0 1 I I #
coedge $-1 $365 $364 $429 $430 reversed $366 $-1 #
edge $-1 $368 0 $431 0.25 $403 $432 forward 7 unknown #
edge $-1 $367 0 $433 0.25 $402 $434 forward 7 unknown #
point $-1 -1 0 0 #
point $-1 1 0 0 #
loop $-1 $174 $429 $231 #
coedge $-1 $376 $376 $387 $420 forward $332 $-1 #
coedge $-1 $381 $380 $377 $414 reversed $373 $-1 #
edge $-1 $416 0 $415 3.1415926535897931 $377 $435 forward 7 unknown #
vertex $-1 $414 $436 #
vertex $-1 $414 $437 #
ellipse-curve $-1 1.5 1.5 0.25 0 0 -1 0.125 0 0 1 I I #
straight-curve $-1 1.375 1.5 0.25 0 0 -1 I I #
straight-curve $-1 1.625 1.5 0.25 0 0 -1 I I #
edge $-1 $390 0 $392 3.1415926535897931 $412 $438 forward 7 unknown #
cone-surface $-1 -1.5 1.5 0.25 0 0 -1 -0.125 0 0 1 I I 0 1 0.125 forward I I I I #
ellipse-curve $-1 -1.5 1.5 0.25 0 0 -1 0.125 0 0 1 I I #
point $-1 -1.625 1.5 0.25 #
point $-1 -1.375 1.5 0.25 #
ellipse-curve $-1 1.5 -1.5 0.25 0 0 -1 -0.125 0 0 1 I I #
face $-1 $214 $404 $3 $-1 $439 reversed single #
cone-surface $-1 0 0 0 0 0 1 1 0 0 1 I I 0 1 1 forward I I I I #
coedge $-1 $403 $402 $440 $441 reversed $404 $-1 #
coedge $-1 $440 $440 $406 $430 forward $411 $-1 #
edge $-1 $433 0 $431 3.1415926535897931 $429 $442 forward 7 unknown #
vertex $-1 $441 $443 #
straight-curve $-1 1 0 0 0 -9.7968508305790181e-016 1 I I #
vertex $-1 $441 $444 #
straight-curve $-1 -1 1.2246063538223773e-016 0 0 0 1 I I #
ellipse-curve $-1 1.5 1.5 0.25 0 0 -1 -0.125 0 0 1 I I #
point $-1 1.625 1.5 0.25 #
point $-1 1.375 1.5 0.25 #
ellipse-curve $-1 -1.5 1.5 0.25 0 0 -1 -0.125 0 0 1 I I #
cone-surface $-1 0 0 0 0 0 1 1 0 0 1 I I 0 1 1 forward I I I I #
coedge $-1 $429 $429 $428 $441 forward $411 $-1 #
edge $-1 $431 0 $433 3.1415926535897931 $440 $445 forward 7 unknown #
ellipse-curve $-1 0 0 0.25 0 0 -1 -1 0 0 1 I I #
point $-1 1 0 0.25 #
point $-1 -1 0 0.25 #
ellipse-curve $-1 0 0 0.25 0 0 -1 1 0 0 1 I I #
End-of-ACIS-data 