600 0 1 0           
92 GICL Pro/E ACIS Translator - Source: f:/data5/repository/PTC/V18/lrgasm18/belt_3.prt.2 - 6 0 13 ACIS 6.0.3 NT 24 Thu Apr 04 13:34:31 2002 
1 9.9999999999999995e-007 1e-010 
body $-1 $1 $-1 $2 #
lump $-1 $-1 $3 $0 #
transform $-1 1 0 0 0 1 0 0 0 1 0 0 0 25.399999999999999 no_rotate no_reflect no_shear #
shell $-1 $-1 $-1 $4 $-1 $1 #
face $-1 $5 $6 $3 $-1 $7 reversed single #
face $-1 $8 $9 $3 $-1 $10 forward single #
loop $-1 $11 $12 $4 #
plane-surface $-1 0 0 -12 0 0 1 1 0 0 forward_v I I I I #
face $-1 $13 $14 $3 $-1 $15 forward single #
loop $-1 $-1 $16 $5 #
plane-surface $-1 0 -2.25 -12 0 -1 0 1 0 0 forward_v I I I I #
loop $-1 $-1 $17 $4 #
coedge $-1 $18 $19 $20 $21 reversed $6 $-1 #
face $-1 $22 $23 $3 $-1 $24 forward single #
loop $-1 $-1 $25 $8 #
cone-surface $-1 96 0 -12 0 0 1 2.25 0 0 1 I I 0 1 2.25 forward I I I I #
coedge $-1 $26 $20 $27 $28 forward $9 $-1 #
coedge $-1 $29 $30 $31 $32 reversed $11 $-1 #
coedge $-1 $33 $12 $34 $35 reversed $6 $-1 #
coedge $-1 $12 $33 $36 $37 reversed $6 $-1 #
coedge $-1 $16 $38 $12 $21 forward $9 $-1 #
edge $-1 $39 0 $40 96 $12 $41 forward 7 unknown #
face $-1 $42 $43 $3 $-1 $44 forward single #
loop $-1 $-1 $45 $13 #
plane-surface $-1 96 2.25 -12 0 1 0 -1 0 0 forward_v I I I I #
coedge $-1 $46 $36 $47 $48 forward $14 $-1 #
coedge $-1 $38 $16 $49 $50 reversed $9 $-1 #
coedge $-1 $36 $46 $16 $28 reversed $14 $-1 #
edge $-1 $40 0 $51 24 $27 $52 forward 7 unknown #
coedge $-1 $53 $17 $54 $55 reversed $11 $-1 #
coedge $-1 $17 $53 $56 $57 reversed $11 $-1 #
coedge $-1 $58 $59 $17 $32 forward $60 $-1 #
edge $-1 $61 0 $62 3.1415926535897931 $17 $63 forward 7 unknown #
coedge $-1 $19 $18 $64 $65 reversed $6 $-1 #
coedge $-1 $66 $67 $18 $35 forward $43 $-1 #
edge $-1 $68 0 $39 3.1415926535897931 $18 $69 forward 7 unknown #
coedge $-1 $25 $27 $19 $37 forward $14 $-1 #
edge $-1 $40 0 $70 3.1415926535897931 $19 $71 forward 7 unknown #
coedge $-1 $20 $26 $66 $72 reversed $9 $-1 #
vertex $-1 $35 $73 #
vertex $-1 $37 $74 #
straight-curve $-1 0 -2.25 -12 1 0 0 I I #
face $-1 $75 $76 $3 $-1 $77 forward single #
loop $-1 $-1 $66 $22 #
cone-surface $-1 0 0 -12 0 0 1 2.25 0 0 1 I I 0 1 2.25 forward I I I I #
coedge $-1 $78 $64 $67 $79 forward $23 $-1 #
coedge $-1 $27 $25 $80 $81 reversed $14 $-1 #
coedge $-1 $64 $78 $25 $48 reversed $23 $-1 #
edge $-1 $70 0 $82 24 $25 $83 forward 7 unknown #
coedge $-1 $80 $84 $26 $50 forward $76 $-1 #
edge $-1 $85 0 $51 96 $49 $86 forward 7 unknown #
vertex $-1 $81 $87 #
straight-curve $-1 96 -2.25 -12 0 0 1 I I #
coedge $-1 $30 $29 $88 $89 reversed $11 $-1 #
coedge $-1 $90 $91 $29 $55 forward $92 $-1 #
edge $-1 $93 0 $61 96 $29 $94 forward 7 unknown #
coedge $-1 $95 $96 $30 $57 forward $97 $-1 #
edge $-1 $62 0 $98 96 $30 $99 forward 7 unknown #
coedge $-1 $100 $31 $96 $101 forward $60 $-1 #
coedge $-1 $31 $100 $90 $102 reversed $60 $-1 #
loop $-1 $-1 $58 $103 #
vertex $-1 $55 $104 #
vertex $-1 $57 $105 #
ellipse-curve $-1 96 0 -12 0 0 -1 0 2 0 1 I I #
coedge $-1 $45 $47 $33 $65 forward $23 $-1 #
edge $-1 $70 0 $68 96 $33 $106 forward 7 unknown #
coedge $-1 $107 $34 $38 $72 forward $43 $-1 #
coedge $-1 $34 $107 $45 $79 reversed $43 $-1 #
vertex $-1 $65 $108 #
ellipse-curve $-1 0 0 -12 0 0 1 0 2.25 0 1 I I #
vertex $-1 $37 $109 #
ellipse-curve $-1 96 0 -12 0 0 1 0 -2.25 0 1 I I #
edge $-1 $39 7.1175303789605351e-033 $85 24 $66 $110 forward 7 unknown #
point $-1 0 -2.25 -12 #
point $-1 96 -2.25 -12 #
face $-1 $111 $112 $3 $-1 $113 reversed single #
loop $-1 $114 $115 $42 #
plane-surface $-1 0 0 12 0 0 1 1 0 0 forward_v I I I I #
coedge $-1 $47 $45 $115 $116 reversed $23 $-1 #
edge $-1 $68 0 $117 24 $45 $118 forward 7 unknown #
coedge $-1 $115 $49 $46 $81 forward $76 $-1 #
edge $-1 $51 0 $82 3.1415926535897807 $80 $119 forward 7 unknown #
vertex $-1 $81 $120 #
straight-curve $-1 96 2.25 -12 0 0 1 I I #
coedge $-1 $49 $115 $107 $121 forward $76 $-1 #
vertex $-1 $50 $122 #
straight-curve $-1 0 -2.25 12 1 0 0 I I #
point $-1 96 -2.25 12 #
coedge $-1 $123 $124 $53 $89 forward $112 $-1 #
edge $-1 $98 0 $93 3.1415926535897931 $53 $125 forward 7 unknown #
coedge $-1 $126 $54 $59 $102 forward $92 $-1 #
coedge $-1 $54 $126 $123 $127 reversed $92 $-1 #
loop $-1 $-1 $90 $111 #
vertex $-1 $89 $128 #
straight-curve $-1 0 2 -12 1 0 0 I I #
coedge $-1 $129 $56 $124 $130 forward $97 $-1 #
coedge $-1 $56 $129 $58 $101 reversed $97 $-1 #
loop $-1 $-1 $95 $131 #
vertex $-1 $57 $132 #
straight-curve $-1 96 -2 -12 -1 0 0 I I #
coedge $-1 $59 $58 $133 $134 reversed $60 $-1 #
edge $-1 $62 0 $135 24 $96 $136 forward 7 unknown #
edge $-1 $61 0 $137 24 $90 $138 forward 7 unknown #
face $-1 $131 $60 $3 $-1 $139 reversed single #
point $-1 96 2 -12 #
point $-1 96 -2 -12 #
straight-curve $-1 96 2.25 -12 -1 0 0 I I #
coedge $-1 $67 $66 $84 $121 reversed $43 $-1 #
point $-1 0 2.25 -12 #
point $-1 96 2.25 -12 #
straight-curve $-1 -4.1330464441505232e-016 -2.25 -12 1.722102685062718e-017 0 1 I I #
face $-1 $103 $92 $3 $-1 $140 forward single #
loop $-1 $-1 $123 $75 #
cone-surface $-1 0 0 -12 0 0 1 2 0 0 1 I I 0 1 2 forward I I I I #
loop $-1 $-1 $141 $42 #
coedge $-1 $84 $80 $78 $116 forward $76 $-1 #
edge $-1 $82 0 $117 96 $115 $142 forward 7 unknown #
vertex $-1 $121 $143 #
straight-curve $-1 0 2.25 -12 0 0 1 I I #
ellipse-curve $-1 95.999999999999986 0 12 0 0 1 1.4210854715202004e-014 -2.25 0 1 I I #
point $-1 96 2.25 12 #
edge $-1 $117 -6.1230317691118863e-017 $85 3.1415926535897931 $84 $144 forward 7 unknown #
point $-1 0 -2.25 12 #
coedge $-1 $145 $88 $91 $127 forward $112 $-1 #
coedge $-1 $88 $145 $95 $130 reversed $112 $-1 #
ellipse-curve $-1 0 0 -12 0 0 -1 0 -2 0 1 I I #
coedge $-1 $91 $90 $146 $147 reversed $92 $-1 #
edge $-1 $93 6.2485863409255727e-034 $148 24 $123 $149 forward 7 unknown #
point $-1 0 2 -12 #
coedge $-1 $96 $95 $150 $151 reversed $97 $-1 #
edge $-1 $98 0 $152 24 $95 $153 forward 7 unknown #
face $-1 $-1 $97 $3 $-1 $154 forward single #
point $-1 0 -2 -12 #
coedge $-1 $150 $146 $100 $134 forward $114 $-1 #
edge $-1 $137 0 $135 3.1415926535897931 $133 $155 forward 7 unknown #
vertex $-1 $151 $156 #
straight-curve $-1 96 -2 -12 0 0 1 I I #
vertex $-1 $134 $157 #
straight-curve $-1 96 2 -12 0 0 1 I I #
cone-surface $-1 96 0 -12 0 0 1 2 0 0 1 I I 0 1 2 forward I I I I #
plane-surface $-1 0 2 -12 0 -1 0 1 0 0 forward_v I I I I #
coedge $-1 $146 $150 $145 $158 forward $114 $-1 #
straight-curve $-1 96 2.25 12 -1 0 0 I I #
point $-1 1.3776821480501744e-016 2.25 12 #
ellipse-curve $-1 1.1102230246251565e-016 -1.1102230246251565e-016 12 0 0 1 -1.1102230246251565e-016 2.25 0 1 I I #
coedge $-1 $124 $123 $141 $158 reversed $112 $-1 #
coedge $-1 $133 $141 $126 $147 forward $114 $-1 #
edge $-1 $148 0 $137 96 $146 $159 forward 7 unknown #
vertex $-1 $147 $160 #
straight-curve $-1 1.2246063538223773e-016 2 -12 -5.1025264742599052e-018 0 1 I I #
coedge $-1 $141 $133 $129 $151 forward $114 $-1 #
edge $-1 $135 0 $152 96 $150 $161 forward 7 unknown #
vertex $-1 $151 $162 #
straight-curve $-1 0 -2 -12 0 0 1 I I #
plane-surface $-1 96 -2 -12 0 1 0 -1 0 0 forward_v I I I I #
ellipse-curve $-1 96 0 12 0 0 -1 0 2 0 1 I I #
point $-1 96 -2 12 #
point $-1 96 2 12 #
edge $-1 $152 0 $148 3.1415926535897931 $141 $163 forward 7 unknown #
straight-curve $-1 0 2 12 1 0 0 I I #
point $-1 0 2 12 #
straight-curve $-1 96 -2 12 -1 0 0 I I #
point $-1 0 -2 12 #
ellipse-curve $-1 1.1102230246251565e-016 1.1102230246251565e-016 12 0 0 -1 -1.1102230246251565e-016 -2 0 1 I I #
End-of-ACIS-data 