600 0 1 0           
92 GICL Pro/E ACIS Translator - Source: f:/data5/repository/PTC/V18/lrgasm18/bolt_2.prt.2 - 6 0 13 ACIS 6.0.3 NT 24 Thu Apr 04 13:34:31 2002 
1 9.9999999999999995e-007 1e-010 
body $-1 $1 $-1 $2 #
lump $-1 $-1 $3 $0 #
transform $-1 1 0 0 0 1 0 0 0 1 0 0 0 25.399999999999999 no_rotate no_reflect no_shear #
shell $-1 $-1 $-1 $4 $-1 $1 #
face $-1 $5 $6 $3 $-1 $7 reversed single #
face $-1 $8 $9 $3 $-1 $10 forward single #
loop $-1 $-1 $11 $4 #
plane-surface $-1 0 0 0 0 0 1 1 0 0 forward_v I I I I #
face $-1 $12 $13 $3 $-1 $14 forward single #
loop $-1 $-1 $15 $5 #
cone-surface $-1 0 0 0.92500000000000004 0 0 -1 0.99999999999999989 0 0 1 I I -0.70710678118654746 0.70710678118654757 0.99999999999999989 forward I I I I #
coedge $-1 $16 $16 $17 $18 reversed $6 $-1 #
face $-1 $19 $20 $3 $-1 $21 forward single #
loop $-1 $-1 $22 $8 #
cone-surface $-1 0 0 0.92500000000000004 0 0 -1 0.99999999999999989 0 0 1 I I -0.70710678118654746 0.70710678118654757 0.99999999999999989 forward I I I I #
coedge $-1 $23 $17 $24 $25 forward $9 $-1 #
coedge $-1 $11 $11 $26 $27 reversed $6 $-1 #
coedge $-1 $15 $28 $11 $18 forward $9 $-1 #
edge $-1 $29 4.4408920985006193e-016 $30 3.1415926535897931 $11 $31 forward 7 unknown #
face $-1 $32 $33 $3 $-1 $34 forward single #
loop $-1 $-1 $35 $12 #
cone-surface $-1 0 0 0 0 0 1 0.125 0 0 1 I I 0 1 0.125 forward I I I I #
coedge $-1 $36 $26 $28 $37 forward $13 $-1 #
coedge $-1 $28 $15 $38 $39 reversed $9 $-1 #
coedge $-1 $26 $36 $15 $25 reversed $13 $-1 #
edge $-1 $30 -4.5468932809530325e-031 $40 0.070710678118654655 $24 $41 forward 7 unknown #
coedge $-1 $22 $24 $16 $27 forward $13 $-1 #
edge $-1 $30 0 $29 3.1415926535897936 $16 $42 forward 7 unknown #
coedge $-1 $17 $23 $22 $37 reversed $9 $-1 #
vertex $-1 $27 $43 #
vertex $-1 $27 $44 #
ellipse-curve $-1 0 -3.4694469519536142e-018 0 1.4802973661668741e-015 -2.4975566514921672e-031 1 -0.075000000000000067 1.2653994605621453e-017 1.1102230246251565e-016 1 I I #
face $-1 $45 $46 $3 $-1 $47 reversed single #
loop $-1 $-1 $48 $19 #
cone-surface $-1 0 0 0 0 0 1 0.125 0 0 1 I I 0 1 0.125 forward I I I I #
coedge $-1 $49 $50 $51 $52 reversed $20 $-1 #
coedge $-1 $24 $22 $49 $53 reversed $13 $-1 #
edge $-1 $29 -2.8841178014891156e-033 $54 0.070710678118654655 $22 $55 forward 7 unknown #
coedge $-1 $51 $48 $23 $39 forward $33 $-1 #
edge $-1 $54 -6.9025329206838472e-031 $40 3.1415926535897944 $38 $56 forward 7 unknown #
vertex $-1 $53 $57 #
straight-curve $-1 0.075000000000000067 -1.5159585826235468e-016 1.1102230246251565e-016 0.70710678118654746 -2.9993519170451816e-015 0.70710678118654746 I I #
ellipse-curve $-1 0 3.4694469519536142e-018 0 -1.4802973661668741e-015 6.8477509133768263e-032 1 0.075000000000000067 -3.4694469519536142e-018 1.1102230246251565e-016 1 I I #
point $-1 -0.075000000000000067 -2.4122143085086837e-017 1.1102230246251565e-016 #
point $-1 0.075000000000000067 0 1.1102230246251565e-016 #
face $-1 $58 $59 $3 $-1 $60 forward single #
loop $-1 $61 $62 $32 #
plane-surface $-1 0 0 2 0 0 1 -1 0 0 forward_v I I I I #
coedge $-1 $38 $63 $64 $65 reversed $33 $-1 #
coedge $-1 $64 $35 $36 $53 forward $20 $-1 #
coedge $-1 $35 $64 $66 $67 reversed $20 $-1 #
coedge $-1 $63 $38 $35 $52 forward $33 $-1 #
edge $-1 $40 0 $68 1.95 $35 $69 forward 7 unknown #
edge $-1 $40 7.3955709864469758e-032 $54 3.1415926535897931 $49 $70 forward 7 unknown #
vertex $-1 $65 $71 #
straight-curve $-1 -0.075000000000000067 9.1845476536678393e-018 1.1102230246251565e-016 -0.70710678118654746 8.6592745707193332e-017 0.70710678118654746 I I #
ellipse-curve $-1 6.9388939039072284e-018 -7.6327832942979512e-017 0.050000000000000155 0 0 1 -0.12500000000000011 9.1635412365759228e-017 0 1 I I #
point $-1 0.125 0 0.049999999999999996 #
face $-1 $72 $73 $3 $-1 $74 forward single #
loop $-1 $-1 $75 $45 #
plane-surface $-1 0.12990381056766584 -0.22499999999999998 2 0.86602540378443871 -0.50000000000000011 0 0.5 0.8660254037844386 0 forward_v I I I I #
loop $-1 $-1 $76 $32 #
coedge $-1 $77 $78 $79 $80 reversed $46 $-1 #
coedge $-1 $48 $51 $76 $81 reversed $33 $-1 #
coedge $-1 $50 $49 $48 $65 forward $20 $-1 #
edge $-1 $54 0 $82 1.95 $64 $83 forward 7 unknown #
coedge $-1 $76 $76 $50 $67 forward $61 $-1 #
edge $-1 $68 0 $82 3.1415926535897931 $50 $84 forward 7 unknown #
vertex $-1 $67 $85 #
straight-curve $-1 0.125 0 0.049999999999999996 0 0 1 I I #
ellipse-curve $-1 -1.7347234759768071e-017 -1.0408340855860843e-017 0.050000000000000155 0 0 1 0.12500000000000014 1.0408340855860843e-017 0 1 I I #
point $-1 -0.125 1.5307579422779716e-017 0.049999999999999996 #
face $-1 $86 $87 $3 $-1 $88 forward single #
loop $-1 $-1 $89 $58 #
plane-surface $-1 0.25980762113533157 0 2 0.86602540378443871 0.50000000000000011 0 -0.5 0.86602540378443849 0 forward_v I I I I #
coedge $-1 $90 $79 $91 $92 forward $59 $-1 #
coedge $-1 $66 $66 $63 $81 forward $61 $-1 #
coedge $-1 $93 $62 $94 $95 reversed $46 $-1 #
coedge $-1 $62 $96 $97 $98 reversed $46 $-1 #
coedge $-1 $75 $99 $62 $80 forward $59 $-1 #
edge $-1 $100 0 $101 0.25980762113533162 $62 $102 forward 7 unknown #
edge $-1 $82 0 $68 3.1415926535897931 $63 $103 forward 7 unknown #
vertex $-1 $67 $104 #
straight-curve $-1 -0.125 1.5307579422779716e-017 0.049999999999999996 0 0 1 I I #
ellipse-curve $-1 0 0 2 0 0 1 0.125 0 0 1 I I #
point $-1 0.125 0 2 #
face $-1 $105 $106 $3 $-1 $107 forward single #
loop $-1 $-1 $108 $72 #
plane-surface $-1 0.12990381056766565 0.22500000000000009 2 0 1 0 -1 0 0 forward_v I I I I #
coedge $-1 $109 $97 $110 $111 forward $73 $-1 #
coedge $-1 $99 $75 $112 $113 reversed $59 $-1 #
coedge $-1 $97 $109 $75 $92 reversed $73 $-1 #
edge $-1 $101 0 $114 0.19999999999999973 $91 $115 forward 7 unknown #
coedge $-1 $116 $77 $117 $118 reversed $46 $-1 #
coedge $-1 $119 $120 $77 $95 forward $121 $-1 #
edge $-1 $122 0 $100 0.25980762113533157 $77 $123 forward 7 unknown #
coedge $-1 $78 $116 $124 $125 reversed $46 $-1 #
coedge $-1 $89 $91 $78 $98 forward $73 $-1 #
edge $-1 $101 0 $126 0.25980762113533173 $78 $127 forward 7 unknown #
coedge $-1 $79 $90 $119 $128 reversed $59 $-1 #
vertex $-1 $95 $129 #
vertex $-1 $98 $130 #
straight-curve $-1 0.12990381056766584 -0.22499999999999998 2 0.5 0.8660254037844386 0 I I #
ellipse-curve $-1 6.9388939039072284e-018 -3.4694469519536142e-018 2 0 0 1 -0.125 3.4694469519536142e-018 0 1 I I #
point $-1 -0.125 0 2 #
face $-1 $131 $132 $3 $-1 $133 forward single #
loop $-1 $-1 $134 $86 #
plane-surface $-1 -0.12990381056766581 0.22500000000000009 2 -0.86602540378443871 0.49999999999999989 0 -0.5 -0.86602540378443893 0 forward_v I I I I #
coedge $-1 $135 $124 $136 $137 forward $87 $-1 #
coedge $-1 $91 $89 $138 $139 reversed $73 $-1 #
coedge $-1 $124 $135 $89 $111 reversed $87 $-1 #
edge $-1 $126 0 $140 0.19999999999999973 $89 $141 forward 7 unknown #
coedge $-1 $138 $142 $90 $113 forward $143 $-1 #
edge $-1 $144 0 $114 0.25980762113533162 $112 $145 forward 7 unknown #
vertex $-1 $139 $146 #
straight-curve $-1 0.25980762113533162 0 2 0 0 1 I I #
coedge $-1 $96 $93 $147 $148 reversed $46 $-1 #
coedge $-1 $149 $150 $93 $118 forward $132 $-1 #
edge $-1 $151 0 $122 0.25980762113533162 $93 $152 forward 7 unknown #
coedge $-1 $153 $94 $99 $128 forward $121 $-1 #
coedge $-1 $94 $153 $149 $154 reversed $121 $-1 #
loop $-1 $-1 $119 $131 #
vertex $-1 $118 $155 #
straight-curve $-1 -0.12990381056766573 -0.22499999999999998 2 1 0 0 I I #
coedge $-1 $108 $110 $96 $125 forward $87 $-1 #
edge $-1 $126 0 $156 0.25980762113533146 $96 $157 forward 7 unknown #
vertex $-1 $98 $158 #
straight-curve $-1 0.25980762113533157 0 2 -0.50000000000000011 0.86602540378443871 0 I I #
edge $-1 $100 0 $144 0.20000000000000018 $119 $159 forward 7 unknown #
point $-1 0.12990381056766584 -0.22499999999999998 2 #
point $-1 0.25980762113533157 0 2 #
face $-1 $160 $121 $3 $-1 $161 forward single #
loop $-1 $-1 $149 $105 #
plane-surface $-1 -0.25980762113533146 0 2 -0.86602540378443871 -0.50000000000000011 0 0.5 -0.8660254037844386 0 forward_v I I I I #
coedge $-1 $162 $147 $150 $163 forward $106 $-1 #
coedge $-1 $110 $108 $164 $165 reversed $87 $-1 #
coedge $-1 $147 $162 $108 $137 reversed $106 $-1 #
edge $-1 $156 0 $166 0.20000000000000018 $108 $167 forward 7 unknown #
coedge $-1 $164 $112 $109 $139 forward $143 $-1 #
edge $-1 $114 0 $140 0.25980762113533173 $138 $168 forward 7 unknown #
vertex $-1 $139 $169 #
straight-curve $-1 0.12990381056766565 0.22500000000000017 2 0 0 1 I I #
coedge $-1 $112 $170 $153 $171 forward $143 $-1 #
loop $-1 $-1 $164 $160 #
vertex $-1 $113 $172 #
straight-curve $-1 0.12990381056766584 -0.22499999999999998 2.1999999999999997 0.5 0.8660254037844386 0 I I #
point $-1 0.25980762113533157 0 2.1999999999999997 #
coedge $-1 $134 $136 $116 $148 forward $106 $-1 #
edge $-1 $156 0 $151 0.25980762113533157 $116 $173 forward 7 unknown #
coedge $-1 $174 $117 $120 $154 forward $132 $-1 #
coedge $-1 $117 $174 $134 $163 reversed $132 $-1 #
vertex $-1 $148 $175 #
straight-curve $-1 -0.25980762113533146 0 2 0.5 -0.8660254037844386 0 I I #
coedge $-1 $120 $119 $142 $171 reversed $121 $-1 #
edge $-1 $122 0 $176 0.20000000000000018 $149 $177 forward 7 unknown #
point $-1 -0.12990381056766573 -0.22499999999999998 2 #
vertex $-1 $125 $178 #
straight-curve $-1 0.12990381056766565 0.22500000000000009 2 -1 0 0 I I #
point $-1 0.12990381056766565 0.22500000000000009 2 #
straight-curve $-1 0.12990381056766584 -0.22499999999999998 2 0 0 1 I I #
face $-1 $-1 $143 $3 $-1 $179 forward single #
plane-surface $-1 -0.12990381056766573 -0.22499999999999998 2 0 -1 0 1 0 0 forward_v I I I I #
coedge $-1 $136 $134 $180 $181 reversed $106 $-1 #
edge $-1 $151 0 $182 0.20000000000000018 $134 $183 forward 7 unknown #
coedge $-1 $180 $138 $135 $165 forward $143 $-1 #
edge $-1 $140 0 $166 0.25980762113533146 $164 $184 forward 7 unknown #
vertex $-1 $181 $185 #
straight-curve $-1 -0.12990381056766581 0.22500000000000009 2 0 0 1 I I #
straight-curve $-1 0.25980762113533157 0 2.1999999999999997 -0.50000000000000011 0.86602540378443871 0 I I #
point $-1 0.12990381056766565 0.22500000000000009 2.1999999999999997 #
coedge $-1 $142 $180 $174 $186 forward $143 $-1 #
edge $-1 $176 0 $144 0.25980762113533157 $142 $187 forward 7 unknown #
point $-1 0.12990381056766584 -0.22499999999999998 2.2000000000000002 #
straight-curve $-1 -0.12990381056766581 0.22500000000000009 2 -0.49999999999999989 -0.86602540378443871 0 I I #
coedge $-1 $150 $149 $170 $186 reversed $132 $-1 #
point $-1 -0.25980762113533146 0 2 #
vertex $-1 $171 $188 #
straight-curve $-1 -0.12990381056766567 -0.22499999999999998 2 0 0 1 I I #
point $-1 -0.12990381056766581 0.22500000000000009 2 #
plane-surface $-1 0 0 2.1999999999999997 0 0 1 -1 0 0 forward_v I I I I #
coedge $-1 $170 $164 $162 $181 forward $143 $-1 #
edge $-1 $166 0 $182 0.25980762113533157 $180 $189 forward 7 unknown #
vertex $-1 $186 $190 #
straight-curve $-1 -0.25980762113533157 8.3266726846886741e-017 2 0 0 1 I I #
straight-curve $-1 0.12990381056766565 0.22500000000000009 2.1999999999999997 -1 0 0 I I #
point $-1 -0.12990381056766581 0.22500000000000009 2.2000000000000002 #
edge $-1 $182 0 $176 0.25980762113533162 $170 $191 forward 7 unknown #
straight-curve $-1 -0.12990381056766573 -0.22499999999999998 2.1999999999999997 1 0 0 I I #
point $-1 -0.12990381056766573 -0.22499999999999998 2.2000000000000002 #
straight-curve $-1 -0.12990381056766581 0.22500000000000009 2.1999999999999997 -0.49999999999999989 -0.86602540378443871 0 I I #
point $-1 -0.25980762113533146 0 2.2000000000000002 #
straight-curve $-1 -0.25980762113533146 0 2.1999999999999997 0.5 -0.8660254037844386 0 I I #
End-of-ACIS-data 