600 0 1 0           
93 GICL Pro/E ACIS Translator - Source: f:/data5/repository/PTC/V18/lrgasm18/bolt_j4.prt.2 - 6 0 13 ACIS 6.0.3 NT 24 Thu Apr 04 13:34:24 2002 
1 9.9999999999999995e-007 1e-010 
body $-1 $1 $-1 $2 #
lump $-1 $-1 $3 $0 #
transform $-1 1 0 0 0 1 0 0 0 1 0 0 0 25.399999999999999 no_rotate no_reflect no_shear #
shell $-1 $-1 $-1 $4 $-1 $1 #
face $-1 $5 $6 $3 $-1 $7 reversed single #
face $-1 $8 $9 $3 $-1 $10 forward single #
loop $-1 $11 $12 $4 #
plane-surface $-1 0 0 0 0 1 0 1 0 0 forward_v I I I I #
face $-1 $13 $14 $3 $-1 $15 forward single #
loop $-1 $-1 $16 $5 #
plane-surface $-1 0.19999999999999998 0 -0.48284271247461902 0 0 -1 -1 0 0 forward_v I I I I #
loop $-1 $-1 $17 $4 #
coedge $-1 $18 $19 $20 $21 reversed $6 $-1 #
face $-1 $22 $23 $3 $-1 $24 forward single #
loop $-1 $-1 $25 $8 #
plane-surface $-1 -0.19999999999999998 0 -0.48284271247461902 -0.70710678118654757 0 -0.70710678118654757 -0.70710678118654746 0 0.70710678118654746 forward_v I I I I #
coedge $-1 $26 $20 $27 $28 forward $9 $-1 #
coedge $-1 $29 $29 $30 $31 reversed $11 $-1 #
coedge $-1 $32 $12 $33 $34 reversed $6 $-1 #
coedge $-1 $12 $35 $36 $37 reversed $6 $-1 #
coedge $-1 $16 $38 $12 $21 forward $9 $-1 #
edge $-1 $39 0 $40 0.39999999999999997 $12 $41 forward 7 unknown #
face $-1 $42 $43 $3 $-1 $44 forward single #
loop $-1 $-1 $45 $13 #
plane-surface $-1 -0.48284271247461902 0 -0.19999999999999998 -1 0 0 0 0 1 forward_v I I I I #
coedge $-1 $46 $36 $47 $48 forward $14 $-1 #
coedge $-1 $38 $16 $49 $50 reversed $9 $-1 #
coedge $-1 $36 $46 $16 $28 reversed $14 $-1 #
edge $-1 $40 0 $51 0.5 $27 $52 forward 7 unknown #
coedge $-1 $17 $17 $53 $54 reversed $11 $-1 #
coedge $-1 $55 $56 $17 $31 forward $57 $-1 #
edge $-1 $58 0 $59 3.1415926535897931 $17 $60 forward 7 unknown #
coedge $-1 $61 $18 $62 $63 reversed $6 $-1 #
coedge $-1 $64 $65 $18 $34 forward $66 $-1 #
edge $-1 $67 0 $39 0.40000000000000002 $18 $68 forward 7 unknown #
coedge $-1 $19 $69 $70 $71 reversed $6 $-1 #
coedge $-1 $25 $27 $19 $37 forward $14 $-1 #
edge $-1 $40 0 $72 0.40000000000000002 $19 $73 forward 7 unknown #
coedge $-1 $20 $26 $64 $74 reversed $9 $-1 #
vertex $-1 $34 $75 #
vertex $-1 $37 $76 #
straight-curve $-1 0.19999999999999998 0 -0.48284271247461902 -1 0 0 I I #
face $-1 $77 $78 $3 $-1 $79 forward single #
loop $-1 $-1 $80 $22 #
plane-surface $-1 -0.48284271247461902 0 0.19999999999999998 -0.70710678118654757 0 0.70710678118654757 0.70710678118654746 0 0.70710678118654746 forward_v I I I I #
coedge $-1 $81 $70 $82 $83 forward $23 $-1 #
coedge $-1 $27 $25 $84 $85 reversed $14 $-1 #
coedge $-1 $70 $81 $25 $48 reversed $23 $-1 #
edge $-1 $72 0 $86 0.5 $25 $87 forward 7 unknown #
coedge $-1 $84 $88 $26 $50 forward $89 $-1 #
edge $-1 $90 0 $51 0.39999999999999997 $49 $91 forward 7 unknown #
vertex $-1 $85 $92 #
straight-curve $-1 -0.19999999999999998 0 -0.48284271247461902 0 1 0 I I #
coedge $-1 $93 $94 $29 $54 forward $95 $-1 #
edge $-1 $59 0 $58 3.1415926535897931 $29 $96 forward 7 unknown #
coedge $-1 $97 $30 $94 $98 forward $57 $-1 #
coedge $-1 $30 $97 $93 $99 reversed $57 $-1 #
loop $-1 $-1 $55 $100 #
vertex $-1 $54 $101 #
vertex $-1 $54 $102 #
ellipse-curve $-1 0 0 0 0 -1 0 0.245 0 0 1 I I #
coedge $-1 $103 $32 $104 $105 reversed $6 $-1 #
coedge $-1 $106 $107 $32 $63 forward $108 $-1 #
edge $-1 $109 0 $67 0.39999999999999997 $32 $110 forward 7 unknown #
coedge $-1 $111 $33 $38 $74 forward $66 $-1 #
coedge $-1 $33 $111 $106 $112 reversed $66 $-1 #
loop $-1 $-1 $64 $113 #
vertex $-1 $63 $114 #
straight-curve $-1 0.48284271247461902 0 -0.19999999999999998 -0.70710678118654746 0 -0.70710678118654757 I I #
coedge $-1 $35 $103 $115 $116 reversed $6 $-1 #
coedge $-1 $45 $47 $35 $71 forward $23 $-1 #
edge $-1 $72 0 $117 0.39999999999999997 $35 $118 forward 7 unknown #
vertex $-1 $37 $119 #
straight-curve $-1 -0.19999999999999998 0 -0.48284271247461902 -0.70710678118654757 0 0.70710678118654746 I I #
edge $-1 $39 0 $90 0.5 $64 $120 forward 7 unknown #
point $-1 0.19999999999999998 0 -0.48284271247461902 #
point $-1 -0.19999999999999998 0 -0.48284271247461902 #
face $-1 $121 $122 $3 $-1 $123 forward single #
loop $-1 $-1 $124 $42 #
plane-surface $-1 -0.19999999999999998 0 0.48284271247461902 0 0 1 1 0 0 forward_v I I I I #
coedge $-1 $125 $115 $126 $127 forward $43 $-1 #
coedge $-1 $47 $45 $128 $129 reversed $23 $-1 #
coedge $-1 $115 $125 $45 $83 reversed $43 $-1 #
edge $-1 $117 0 $130 0.5 $45 $131 forward 7 unknown #
coedge $-1 $128 $49 $46 $85 forward $89 $-1 #
edge $-1 $51 0 $86 0.40000000000000002 $84 $132 forward 7 unknown #
vertex $-1 $85 $133 #
straight-curve $-1 -0.48284271247461907 0 -0.19999999999999996 0 1 0 I I #
coedge $-1 $49 $134 $111 $135 forward $89 $-1 #
loop $-1 $-1 $128 $136 #
vertex $-1 $50 $137 #
straight-curve $-1 0.19999999999999998 0.5 -0.48284271247461902 -1 0 0 I I #
point $-1 -0.19999999999999998 0.5 -0.48284271247461902 #
coedge $-1 $138 $53 $56 $99 forward $95 $-1 #
coedge $-1 $53 $138 $55 $98 reversed $95 $-1 #
loop $-1 $-1 $93 $139 #
ellipse-curve $-1 0 0 0 0 -1 0 -0.245 0 0 1 I I #
coedge $-1 $56 $55 $140 $141 reversed $57 $-1 #
edge $-1 $59 0 $142 1.5 $94 $143 forward 7 unknown #
edge $-1 $58 0 $144 1.5 $93 $145 forward 7 unknown #
face $-1 $139 $57 $3 $-1 $146 forward single #
point $-1 0.245 0 0 #
point $-1 -0.245 0 0 #
coedge $-1 $69 $61 $147 $148 reversed $6 $-1 #
coedge $-1 $149 $150 $61 $105 forward $122 $-1 #
edge $-1 $151 0 $109 0.40000000000000002 $61 $152 forward 7 unknown #
coedge $-1 $153 $62 $65 $112 forward $108 $-1 #
coedge $-1 $62 $153 $149 $154 reversed $108 $-1 #
loop $-1 $-1 $106 $121 #
vertex $-1 $105 $155 #
straight-curve $-1 0.48284271247461902 0 0.19999999999999998 0 0 -1 I I #
coedge $-1 $65 $64 $88 $135 reversed $66 $-1 #
edge $-1 $67 0 $156 0.5 $106 $157 forward 7 unknown #
face $-1 $136 $66 $3 $-1 $158 forward single #
point $-1 0.48284271247461902 0 -0.19999999999999998 #
coedge $-1 $80 $82 $69 $116 forward $43 $-1 #
edge $-1 $117 0 $159 0.40000000000000002 $69 $160 forward 7 unknown #
vertex $-1 $71 $161 #
straight-curve $-1 -0.48284271247461902 0 -0.19999999999999998 0 0 1 I I #
point $-1 -0.48284271247461902 0 -0.19999999999999998 #
straight-curve $-1 0.19999999999999996 0 -0.48284271247461907 0 1 0 I I #
face $-1 $113 $108 $3 $-1 $162 forward single #
loop $-1 $-1 $149 $77 #
plane-surface $-1 0.19999999999999998 0 0.48284271247461902 0.70710678118654757 0 0.70710678118654757 0.70710678118654746 0 -0.70710678118654746 forward_v I I I I #
coedge $-1 $163 $147 $150 $164 forward $78 $-1 #
coedge $-1 $82 $80 $165 $166 reversed $43 $-1 #
coedge $-1 $147 $163 $80 $127 reversed $78 $-1 #
edge $-1 $159 0 $167 0.5 $80 $168 forward 7 unknown #
coedge $-1 $165 $84 $81 $129 forward $89 $-1 #
edge $-1 $86 0 $130 0.39999999999999997 $128 $169 forward 7 unknown #
vertex $-1 $166 $170 #
straight-curve $-1 -0.48284271247461902 0 0.19999999999999998 0 1 0 I I #
straight-curve $-1 -0.19999999999999998 0.5 -0.48284271247461902 -0.70710678118654757 0 0.70710678118654746 I I #
point $-1 -0.48284271247461902 0.5 -0.19999999999999998 #
coedge $-1 $88 $171 $153 $172 forward $89 $-1 #
edge $-1 $156 0 $90 0.40000000000000002 $88 $173 forward 7 unknown #
face $-1 $100 $89 $3 $-1 $174 forward single #
point $-1 0.19999999999999998 0.5 -0.48284271247461902 #
coedge $-1 $94 $93 $175 $176 reversed $95 $-1 #
face $-1 $177 $95 $3 $-1 $178 forward single #
coedge $-1 $175 $175 $97 $141 forward $179 $-1 #
edge $-1 $144 0 $142 3.1415926535897931 $140 $180 forward 7 unknown #
vertex $-1 $176 $181 #
straight-curve $-1 -0.245 0 0 0 -1 0 I I #
vertex $-1 $176 $182 #
straight-curve $-1 0.245 0 -3.0002855668648245e-017 0 -1 0 I I #
cone-surface $-1 0 0 0 0 -1 0 -0.245 0 0 1 I I 0 1 0.245 forward I I I I #
coedge $-1 $124 $126 $103 $148 forward $78 $-1 #
edge $-1 $159 0 $151 0.39999999999999997 $103 $183 forward 7 unknown #
coedge $-1 $184 $104 $107 $154 forward $122 $-1 #
coedge $-1 $104 $184 $124 $164 reversed $122 $-1 #
vertex $-1 $148 $185 #
straight-curve $-1 0.19999999999999998 0 0.48284271247461902 0.70710678118654757 0 -0.70710678118654746 I I #
coedge $-1 $107 $106 $134 $172 reversed $108 $-1 #
edge $-1 $109 0 $186 0.5 $149 $187 forward 7 unknown #
point $-1 0.48284271247461902 0 0.19999999999999998 #
vertex $-1 $135 $188 #
straight-curve $-1 0.48284271247461902 0 -0.19999999999999998 0 1 0 I I #
plane-surface $-1 0.48284271247461902 0 -0.19999999999999998 0.70710678118654757 0 -0.70710678118654757 -0.70710678118654746 0 -0.70710678118654746 forward_v I I I I #
vertex $-1 $116 $189 #
straight-curve $-1 -0.48284271247461902 0 0.19999999999999998 0.70710678118654746 0 0.70710678118654757 I I #
point $-1 -0.48284271247461902 0 0.19999999999999998 #
plane-surface $-1 0.48284271247461902 0 0.19999999999999998 1 0 0 0 0 -1 forward_v I I I I #
coedge $-1 $126 $124 $190 $191 reversed $78 $-1 #
edge $-1 $151 0 $192 0.5 $124 $193 forward 7 unknown #
coedge $-1 $190 $128 $125 $166 forward $89 $-1 #
edge $-1 $130 0 $167 0.40000000000000002 $165 $194 forward 7 unknown #
vertex $-1 $191 $195 #
straight-curve $-1 -0.19999999999999996 0 0.48284271247461907 0 1 0 I I #
straight-curve $-1 -0.48284271247461902 0.5 -0.19999999999999998 0 0 1 I I #
point $-1 -0.48284271247461902 0.5 0.19999999999999998 #
coedge $-1 $134 $190 $184 $196 forward $89 $-1 #
edge $-1 $186 0 $156 0.39999999999999997 $134 $197 forward 7 unknown #
straight-curve $-1 0.48284271247461902 0.5 -0.19999999999999998 -0.70710678118654746 0 -0.70710678118654757 I I #
plane-surface $-1 0 0.5 0 0 1 0 1 0 0 forward_v I I I I #
coedge $-1 $140 $140 $138 $176 forward $179 $-1 #
edge $-1 $142 0 $144 3.1415926535897931 $175 $198 forward 7 unknown #
face $-1 $-1 $179 $3 $-1 $199 forward single #
cone-surface $-1 0 0 0 0 -1 0 -0.245 0 0 1 I I 0 1 0.245 forward I I I I #
loop $-1 $-1 $140 $177 #
ellipse-curve $-1 0 -1.5 0 0 -1 0 0.245 0 0 1 I I #
point $-1 -0.245 -1.5 0 #
point $-1 0.245 -1.5 0 #
straight-curve $-1 -0.19999999999999998 0 0.48284271247461902 1 0 0 I I #
coedge $-1 $150 $149 $171 $196 reversed $122 $-1 #
point $-1 0.19999999999999998 0 0.48284271247461902 #
vertex $-1 $172 $200 #
straight-curve $-1 0.48284271247461907 0 0.19999999999999996 0 1 0 I I #
point $-1 0.48284271247461902 0.5 -0.19999999999999998 #
point $-1 -0.19999999999999998 0 0.48284271247461902 #
coedge $-1 $171 $165 $163 $191 forward $89 $-1 #
edge $-1 $167 0 $192 0.39999999999999997 $190 $201 forward 7 unknown #
vertex $-1 $196 $202 #
straight-curve $-1 0.19999999999999998 0 0.48284271247461902 0 1 0 I I #
straight-curve $-1 -0.48284271247461902 0.5 0.19999999999999998 0.70710678118654746 0 0.70710678118654757 I I #
point $-1 -0.19999999999999998 0.5 0.48284271247461902 #
edge $-1 $192 0 $186 0.40000000000000002 $171 $203 forward 7 unknown #
straight-curve $-1 0.48284271247461902 0.5 0.19999999999999998 0 0 -1 I I #
ellipse-curve $-1 0 -1.5 0 0 -1 0 -0.245 0 0 1 I I #
plane-surface $-1 0 -1.5 0 0 -1 0 -1 0 0 forward_v I I I I #
point $-1 0.48284271247461902 0.5 0.19999999999999998 #
straight-curve $-1 -0.19999999999999998 0.5 0.48284271247461902 1 0 0 I I #
point $-1 0.19999999999999998 0.5 0.48284271247461902 #
straight-curve $-1 0.19999999999999998 0.5 0.48284271247461902 0.70710678118654757 0 -0.70710678118654746 I I #
End-of-ACIS-data 