700 0 2 0           
24 FBMach with ACIS - 7.0.3 13 ACIS 7.0.3 NT 24 Wed May 15 17:28:08 2002 
1 9.9999999999999995e-007 1e-010 
body $2 -1 $-1 $3 $-1 $4 #
bdycol-kcp $-1 -1 1 5 $5 $6 $7 $8 $9 #
model_id-kcp-attrib $-1 -1 $-1 $-1 $0 1 1021498087 1021498087 1845100545 1 #
lump $-1 -1 $-1 $-1 $10 $0 #
transform $-1 -1 1 0 0 0 1.0000000000000004 -5.5511151231257827e-017 0 5.5511151231257827e-017 1.0000000000000004 0 -4.5474735088646412e-013 1.1368683772161603e-013 1 rotate no_reflect no_shear #
body $11 -1 $-1 $12 $-1 $13 #
body $14 -1 $-1 $15 $-1 $16 #
body $17 -1 $-1 $18 $-1 $19 #
body $20 -1 $-1 $21 $-1 $22 #
body $23 -1 $-1 $24 $-1 $25 #
shell $-1 -1 $-1 $-1 $-1 $26 $-1 $3 #
rgb_color-st-attrib $-1 -1 $27 $-1 $5 1 0.5 1 #
lump $-1 -1 $-1 $-1 $28 $5 #
transform $-1 -1 1 0 0 0 1 0 0 0 1 -462.27999999999997 1229.9761138842744 -5.6843418860808015e-014 1 no_rotate no_reflect no_shear #
rgb_color-st-attrib $-1 -1 $29 $-1 $6 1 0.5 1 #
lump $-1 -1 $-1 $-1 $30 $6 #
transform $-1 -1 1 0 0 0 1 0 0 0 1 -462.27999999999997 1229.9761138842744 -5.6843418860808015e-014 1 no_rotate no_reflect no_shear #
rgb_color-st-attrib $-1 -1 $31 $-1 $7 0.5 0.5 1 #
lump $-1 -1 $-1 $-1 $32 $7 #
transform $-1 -1 1 0 0 0 1 0 0 0 1 -462.27999999999997 1229.9761138842744 -5.6843418860808015e-014 1 no_rotate no_reflect no_shear #
rgb_color-st-attrib $-1 -1 $33 $-1 $8 0.5 0.5 1 #
lump $-1 -1 $-1 $-1 $34 $8 #
transform $-1 -1 1 0 0 0 1 0 0 0 1 -462.27999999999997 1229.9761138842744 -5.6843418860808015e-014 1 no_rotate no_reflect no_shear #
model_id-kcp-attrib $-1 -1 $-1 $-1 $9 1 1021498087 1021498087 1845100546 1 #
lump $-1 -1 $-1 $-1 $35 $9 #
transform $-1 -1 1 0 0 0 1 0 0 0 1 -462.27999999999997 1229.9761138842744 -5.6843418860808015e-014 1 no_rotate no_reflect no_shear #
face $36 -1 $-1 $37 $38 $10 $-1 $39 reversed single #
model_id-kcp-attrib $-1 -1 $-1 $11 $5 1 1021498087 1021498087 1835794437 1 #
shell $-1 -1 $-1 $-1 $-1 $40 $-1 $12 #
model_id-kcp-attrib $-1 -1 $-1 $14 $6 1 1021498087 1021498087 1841692678 1 #
shell $-1 -1 $-1 $-1 $-1 $41 $-1 $15 #
model_id-kcp-attrib $-1 -1 $-1 $17 $7 1 1021498087 1021498087 1842085891 1 #
shell $-1 -1 $-1 $-1 $-1 $42 $-1 $18 #
model_id-kcp-attrib $-1 -1 $-1 $20 $8 1 1021498087 1021498087 1842741252 1 #
shell $-1 -1 $-1 $-1 $-1 $43 $-1 $21 #
shell $-1 -1 $-1 $-1 $-1 $44 $-1 $24 #
model_id-kcp-attrib $-1 -1 $-1 $-1 $26 1 1021498087 1021498087 1845100545 2 #
face $45 -1 $-1 $46 $47 $10 $-1 $48 forward single #
loop $-1 -1 $-1 $-1 $49 $26 #
plane-surface $-1 -1 $-1 50.799999999999997 914.39999999999998 355.59999999999997 -1 0 0 0 0 25.399999999999999 forward_v I I I I #
face $-1 -1 $-1 $50 $51 $28 $-1 $52 forward single #
face $-1 -1 $-1 $53 $54 $30 $-1 $55 forward single #
face $-1 -1 $-1 $56 $57 $32 $-1 $58 reversed single #
face $-1 -1 $-1 $59 $60 $34 $-1 $61 reversed single #
face $-1 -1 $-1 $62 $63 $35 $-1 $64 forward single #
model_id-kcp-attrib $-1 -1 $-1 $-1 $37 1 1021498087 1021498087 1845100545 3 #
face $65 -1 $-1 $66 $67 $10 $-1 $68 forward single #
loop $-1 -1 $-1 $-1 $69 $37 #
plane-surface $-1 -1 $-1 50.799999999999997 1697.9522277685487 -286.88830263805198 0 0.34202014332566788 -0.93969262078590876 0 -23.86819256796208 -8.6873116404719628 forward_v I I I I #
coedge $-1 -1 $-1 $70 $71 $72 $73 reversed $38 $-1 #
face $-1 -1 $-1 $74 $75 $28 $-1 $76 forward single #
loop $-1 -1 $-1 $-1 $77 $40 #
plane-surface $-1 -1 $-1 513.07999999999993 -380.57401540585874 595.73529198239748 0 -0.93969262078590876 0.34202014332566788 0 -0.34202014332566788 -0.93969262078590876 forward_v I I I I #
face $-1 -1 $-1 $78 $79 $30 $-1 $80 forward single #
loop $-1 -1 $-1 $-1 $81 $41 #
plane-surface $-1 -1 $-1 513.07999999999993 -315.57611388427438 -355.59999999999991 1 0 0 0 0 -1 forward_v I I I I #
face $-1 -1 $-1 $82 $83 $32 $-1 $84 reversed single #
loop $-1 -1 $-1 $-1 $85 $42 #
plane-surface $-1 -1 $-1 0 76.200000000000159 -429.48314658841332 0 0.34202014332566788 -0.93969262078590876 -1 0 0 forward_v I I I I #
face $-1 -1 $-1 $86 $87 $34 $-1 $88 reversed single #
loop $-1 -1 $-1 $-1 $89 $43 #
plane-surface $-1 -1 $-1 0 76.200000000000159 429.48314658841332 0 0.34202014332566788 0.93969262078590876 -1 0 0 forward_v I I I I #
face $-1 -1 $-1 $90 $91 $35 $-1 $92 reversed single #
loop $-1 -1 $-1 $-1 $93 $44 #
plane-surface $-1 -1 $-1 0 0 572.07799053877466 0 0 1 1 0 0 forward_v I I I I #
model_id-kcp-attrib $-1 -1 $-1 $-1 $46 1 1021498087 1021498087 1845100545 4 #
face $94 -1 $-1 $95 $96 $10 $-1 $97 forward single #
loop $-1 -1 $-1 $-1 $98 $46 #
plane-surface $-1 -1 $-1 50.799999999999997 914.39999999999998 -572.07799053877466 0 -1 0 0 0 25.399999999999999 forward_v I I I I #
coedge $-1 -1 $-1 $99 $72 $100 $101 forward $47 $-1 #
coedge $-1 -1 $-1 $102 $49 $103 $104 reversed $38 $-1 #
coedge $-1 -1 $-1 $49 $105 $106 $107 reversed $38 $-1 #
coedge $-1 -1 $-1 $69 $108 $49 $73 forward $47 $-1 #
edge $109 -1 $-1 $110 0 $111 32.828301746664273 $49 $112 forward @7 unknown #
face $-1 -1 $-1 $113 $114 $28 $-1 $115 forward single #
loop $-1 -1 $-1 $-1 $116 $50 #
plane-surface $-1 -1 $-1 -513.07999999999993 -315.57611388427438 355.60000000000002 -1 0 0 0 0 1 forward_v I I I I #
coedge $-1 -1 $-1 $117 $118 $119 $120 forward $51 $-1 #
face $-1 -1 $-1 $121 $122 $30 $-1 $123 forward single #
loop $-1 -1 $-1 $-1 $124 $53 #
plane-surface $-1 -1 $-1 513.07999999999993 -315.57611388427432 -572.07799053877466 0 0 -1 -1 0 0 forward_v I I I I #
coedge $-1 -1 $-1 $125 $126 $127 $128 forward $54 $-1 #
face $-1 -1 $-1 $129 $130 $32 $-1 $131 reversed single #
loop $-1 -1 $-1 $-1 $132 $56 #
plane-surface $-1 -1 $-1 513.07999999999993 0 0 -1 0 0 0 0 1 forward_v I I I I #
coedge $-1 -1 $-1 $133 $134 $135 $136 forward $57 $-1 #
face $-1 -1 $-1 $137 $138 $34 $-1 $139 forward single #
loop $-1 -1 $-1 $-1 $140 $59 #
plane-surface $-1 -1 $-1 -513.07999999999993 0 0 1 0 0 0 0 -1 forward_v I I I I #
coedge $-1 -1 $-1 $141 $142 $143 $144 forward $60 $-1 #
face $145 -1 $-1 $146 $147 $35 $-1 $148 reversed single #
loop $-1 -1 $-1 $-1 $149 $62 #
plane-surface $-1 -1 $-1 0 0 -572.07799053877466 0 0 1 1 0 0 forward_v I I I I #
coedge $-1 -1 $-1 $150 $151 $152 $153 forward $63 $-1 #
model_id-kcp-attrib $-1 -1 $-1 $-1 $66 1 1021498087 1021498087 1845100545 5 #
face $154 -1 $-1 $155 $156 $10 $-1 $157 forward single #
loop $-1 -1 $-1 $-1 $158 $66 #
plane-surface $-1 -1 $-1 50.799999999999997 914.39999999999998 -355.59999999999997 0 0 -1 0 -25.399999999999999 0 forward_v I I I I #
coedge $-1 -1 $-1 $159 $106 $160 $161 forward $67 $-1 #
coedge $-1 -1 $-1 $108 $69 $162 $163 reversed $47 $-1 #
coedge $-1 -1 $-1 $106 $159 $69 $101 reversed $67 $-1 #
edge $164 -1 $-1 $111 0 $165 40.399999999999999 $100 $166 forward @7 unknown #
coedge $-1 -1 $-1 $167 $70 $168 $169 reversed $38 $-1 #
coedge $-1 -1 $-1 $170 $171 $70 $104 forward $172 $-1 #
edge $173 -1 $-1 $174 0 $110 22.589630128980474 $70 $175 forward @7 unknown #
coedge $-1 -1 $-1 $71 $176 $177 $178 reversed $38 $-1 #
coedge $-1 -1 $-1 $98 $100 $71 $107 forward $67 $-1 #
edge $179 -1 $-1 $111 0 $180 8.5227555330226252 $71 $181 forward @7 unknown #
coedge $-1 -1 $-1 $72 $99 $170 $182 reversed $47 $-1 #
attrib_edge_convexity-kcp-attrib $-1 -1 $183 $-1 $73 1 #
vertex $-1 -1 $-1 $104 $184 #
vertex $-1 -1 $-1 $107 $185 #
straight-curve $-1 -1 $-1 50.799999999999997 1697.9522277685487 -286.88830263805198 0 -23.86819256796208 -8.6873116404719628 I I #
face $-1 -1 $-1 $186 $187 $28 $-1 $188 forward single #
loop $-1 -1 $-1 $-1 $119 $74 #
plane-surface $-1 -1 $-1 -513.07999999999993 -315.57611388427432 572.07799053877466 0 0 1 1 0 0 forward_v I I I I #
coedge $-1 -1 $-1 $189 $190 $117 $191 reversed $75 $-1 #
coedge $-1 -1 $-1 $192 $77 $116 $191 forward $51 $-1 #
coedge $-1 -1 $-1 $77 $192 $193 $194 forward $51 $-1 #
coedge $-1 -1 $-1 $195 $196 $77 $120 reversed $114 $-1 #
edge $-1 -1 $-1 $197 -513.07999999999993 $198 513.07999999999993 $119 $199 forward @7 unknown #
face $-1 -1 $-1 $200 $201 $30 $-1 $202 forward single #
loop $-1 -1 $-1 $-1 $203 $78 #
plane-surface $-1 -1 $-1 -513.07999999999993 -315.57611388427432 -572.07799053877466 -1 0 0 0 0 1 forward_v I I I I #
coedge $-1 -1 $-1 $204 $205 $206 $207 forward $79 $-1 #
coedge $-1 -1 $-1 $208 $81 $205 $209 reversed $54 $-1 #
coedge $-1 -1 $-1 $81 $208 $210 $211 forward $54 $-1 #
coedge $-1 -1 $-1 $212 $206 $81 $128 reversed $213 $-1 #
edge $-1 -1 $-1 $214 123.6805023653063 $215 340.15849290408107 $81 $216 forward @7 unknown #
face $-1 -1 $-1 $217 $218 $32 $-1 $219 forward single #
loop $-1 -1 $-1 $-1 $135 $82 #
plane-surface $-1 -1 $-1 0 0 -572.07799053877466 0 0 1 1 0 0 forward_v I I I I #
coedge $-1 -1 $-1 $220 $221 $133 $222 reversed $83 $-1 #
coedge $-1 -1 $-1 $223 $85 $132 $222 forward $57 $-1 #
coedge $-1 -1 $-1 $85 $223 $224 $225 forward $57 $-1 #
coedge $-1 -1 $-1 $226 $227 $85 $136 reversed $130 $-1 #
edge $228 -1 $-1 $229 -513.07999999999993 $230 513.07999999999993 $135 $231 forward @7 unknown #
face $-1 -1 $-1 $232 $233 $34 $-1 $234 reversed single #
loop $-1 -1 $-1 $-1 $143 $86 #
plane-surface $-1 -1 $-1 0 0 572.07799053877466 0 0 1 1 0 0 forward_v I I I I #
coedge $-1 -1 $-1 $235 $236 $141 $237 reversed $87 $-1 #
coedge $-1 -1 $-1 $238 $89 $140 $237 forward $60 $-1 #
coedge $-1 -1 $-1 $89 $238 $239 $240 forward $60 $-1 #
coedge $-1 -1 $-1 $241 $242 $89 $144 reversed $138 $-1 #
edge $243 -1 $-1 $244 -513.07999999999993 $245 513.07999999999993 $143 $246 forward @7 unknown #
model_id-kcp-attrib $-1 -1 $-1 $-1 $90 1 1021498087 1021498087 1845100546 3 #
face $247 -1 $-1 $248 $249 $35 $-1 $250 reversed single #
loop $-1 -1 $-1 $-1 $251 $90 #
plane-surface $-1 -1 $-1 0 -467.97611388427435 0 0 1 0 0 0 1 forward_v I I I I #
coedge $-1 -1 $-1 $252 $253 $254 $255 forward $91 $-1 #
coedge $-1 -1 $-1 $256 $93 $257 $258 forward $63 $-1 #
coedge $-1 -1 $-1 $93 $256 $259 $260 forward $63 $-1 #
coedge $-1 -1 $-1 $261 $262 $93 $153 reversed $263 $-1 #
edge $-1 -1 $-1 $264 -467.97611388427435 $265 467.97611388427435 $152 $266 forward @7 unknown #
model_id-kcp-attrib $-1 -1 $-1 $-1 $95 1 1021498087 1021498087 1845100545 6 #
face $267 -1 $-1 $268 $269 $10 $-1 $270 forward single #
loop $-1 -1 $-1 $-1 $271 $95 #
plane-surface $-1 -1 $-1 50.799999999999997 762 -355.59999999999997 0 -1 0 0 0 25.399999999999999 forward_v I I I I #
coedge $-1 -1 $-1 $272 $177 $273 $274 forward $96 $-1 #
coedge $-1 -1 $-1 $100 $98 $275 $276 reversed $67 $-1 #
coedge $-1 -1 $-1 $177 $272 $98 $161 reversed $96 $-1 #
edge $277 -1 $-1 $180 0 $278 40.399999999999999 $98 $279 forward @7 unknown #
coedge $-1 -1 $-1 $275 $280 $99 $163 forward $281 $-1 #
edge $282 -1 $-1 $283 0 $165 32.828301746664273 $162 $284 forward @7 unknown #
attrib_edge_convexity-kcp-attrib $-1 -1 $285 $-1 $101 1 #
vertex $-1 -1 $-1 $276 $286 #
straight-curve $-1 -1 $-1 50.799999999999997 914.40000000000009 -572.07799053877454 -25.399999999999999 0 0 I I #
coedge $-1 -1 $-1 $287 $102 $288 $289 reversed $38 $-1 #
coedge $-1 -1 $-1 $290 $291 $102 $169 forward $292 $-1 #
edge $293 -1 $-1 $294 0 $174 32.828301746664266 $102 $295 forward @7 unknown #
coedge $-1 -1 $-1 $296 $103 $108 $182 forward $172 $-1 #
coedge $-1 -1 $-1 $103 $296 $290 $297 reversed $172 $-1 #
loop $-1 -1 $-1 $-1 $170 $298 #
attrib_edge_convexity-kcp-attrib $-1 -1 $299 $-1 $104 1 #
vertex $-1 -1 $-1 $169 $300 #
straight-curve $-1 -1 $-1 50.799999999999997 1697.9522277685487 286.88830263805193 0 0 -25.399999999999999 I I #
coedge $-1 -1 $-1 $105 $287 $301 $302 reversed $38 $-1 #
coedge $-1 -1 $-1 $158 $160 $105 $178 forward $96 $-1 #
edge $303 -1 $-1 $180 0 $304 5.9999999999999991 $105 $305 forward @7 unknown #
attrib_edge_convexity-kcp-attrib $-1 -1 $306 $-1 $107 1 #
vertex $-1 -1 $-1 $107 $307 #
straight-curve $-1 -1 $-1 50.799999999999997 914.39999999999998 -572.07799053877466 0 0 25.399999999999999 I I #
edge $308 -1 $-1 $110 0 $283 40.399999999999999 $170 $309 forward @7 unknown #
convexity-sys-attrib $-1 -1 $-1 $109 $73 #
point $-1 -1 $-1 50.799999999999997 1697.9522277685487 -286.88830263805198 #
point $-1 -1 $-1 50.799999999999997 914.39999999999998 -572.07799053877466 #
face $-1 -1 $-1 $310 $311 $28 $-1 $312 forward single #
loop $-1 -1 $-1 $-1 $193 $113 #
plane-surface $-1 -1 $-1 513.07999999999993 -315.57611388427432 572.07799053877466 1 0 0 0 0 -1 forward_v I I I I #
coedge $-1 -1 $-1 $313 $116 $196 $314 reversed $75 $-1 #
coedge $-1 -1 $-1 $116 $313 $315 $316 forward $75 $-1 #
edge $-1 -1 $-1 $198 -76.53581078285859 $317 153.83525497875604 $116 $318 forward @7 unknown #
coedge $-1 -1 $-1 $118 $117 $319 $320 reversed $51 $-1 #
coedge $-1 -1 $-1 $321 $322 $118 $194 reversed $187 $-1 #
edge $-1 -1 $-1 $323 -255.54664011468023 $197 -25.175574353065606 $193 $324 forward @7 unknown #
coedge $-1 -1 $-1 $325 $119 $322 $326 reversed $114 $-1 #
coedge $-1 -1 $-1 $119 $325 $189 $314 forward $114 $-1 #
vertex $-1 -1 $-1 $120 $327 #
vertex $-1 -1 $-1 $191 $328 #
straight-curve $-1 -1 $-1 0 -389.18456895440022 572.07799053877466 -1 0 0 I I #
face $-1 -1 $-1 $329 $213 $30 $-1 $330 reversed single #
loop $-1 -1 $-1 $-1 $331 $121 #
plane-surface $-1 -1 $-1 -513.07999999999993 -315.57611388427438 -355.59999999999991 0 0 1 1 0 0 forward_v I I I I #
coedge $-1 -1 $-1 $332 $333 $334 $335 forward $122 $-1 #
coedge $-1 -1 $-1 $336 $124 $333 $337 reversed $79 $-1 #
coedge $-1 -1 $-1 $124 $336 $125 $209 forward $79 $-1 #
coedge $-1 -1 $-1 $127 $334 $124 $207 reversed $213 $-1 #
edge $-1 -1 $-1 $215 -513.07999999999993 $338 513.07999999999993 $124 $339 forward @7 unknown #
coedge $-1 -1 $-1 $126 $125 $340 $341 reversed $54 $-1 #
edge $-1 -1 $-1 $342 0 $215 152.39999999999998 $205 $343 forward @7 unknown #
coedge $-1 -1 $-1 $344 $331 $126 $211 reversed $201 $-1 #
edge $-1 -1 $-1 $345 0 $214 152.39999999999998 $126 $346 forward @7 unknown #
coedge $-1 -1 $-1 $334 $127 $331 $347 reversed $213 $-1 #
loop $-1 -1 $-1 $-1 $127 $200 #
vertex $-1 -1 $-1 $211 $348 #
vertex $-1 -1 $-1 $209 $349 #
straight-curve $-1 -1 $-1 513.07999999999993 -467.97611388427447 -231.91949763469361 0 0 -1 I I #
face $-1 -1 $-1 $-1 $350 $32 $-1 $351 reversed single #
loop $-1 -1 $-1 $-1 $352 $129 #
plane-surface $-1 -1 $-1 -513.07999999999993 652.38436018401603 219.76919003171588 0 0.93969262078590876 -0.34202014332566788 0 0.34202014332566788 0.93969262078590876 forward_v I I I I #
coedge $-1 -1 $-1 $221 $132 $227 $353 reversed $83 $-1 #
coedge $-1 -1 $-1 $132 $220 $354 $355 forward $83 $-1 #
edge $356 -1 $-1 $230 -454.56308700675714 $357 379.2757773585152 $132 $358 forward @7 unknown #
coedge $-1 -1 $-1 $134 $133 $352 $359 forward $57 $-1 #
coedge $-1 -1 $-1 $360 $361 $134 $225 reversed $350 $-1 #
edge $362 -1 $-1 $363 -379.2757773585152 $229 454.56308700675714 $224 $364 forward @7 unknown #
coedge $-1 -1 $-1 $365 $135 $361 $366 forward $130 $-1 #
coedge $-1 -1 $-1 $135 $365 $220 $353 forward $130 $-1 #
convexity-sys-attrib $-1 -1 $-1 $-1 $136 #
vertex $-1 -1 $-1 $366 $367 #
vertex $-1 -1 $-1 $136 $368 #
straight-curve $-1 -1 $-1 0 -315.57611388427443 -572.07799053877466 1 0 0 I I #
face $-1 -1 $-1 $-1 $369 $34 $-1 $370 reversed single #
loop $-1 -1 $-1 $-1 $371 $137 #
plane-surface $-1 -1 $-1 0 467.97611388427435 0 0 -1 0 0 0 -1 forward_v I I I I #
coedge $-1 -1 $-1 $236 $140 $242 $372 reversed $87 $-1 #
coedge $-1 -1 $-1 $140 $235 $373 $374 forward $87 $-1 #
edge $375 -1 $-1 $245 -454.56308700675714 $376 379.27577735851526 $140 $377 forward @7 unknown #
coedge $-1 -1 $-1 $142 $141 $371 $378 forward $60 $-1 #
coedge $-1 -1 $-1 $379 $380 $142 $240 reversed $369 $-1 #
edge $381 -1 $-1 $382 -379.27577735851526 $244 454.56308700675714 $239 $383 forward @7 unknown #
coedge $-1 -1 $-1 $384 $143 $380 $385 forward $138 $-1 #
coedge $-1 -1 $-1 $143 $384 $235 $372 forward $138 $-1 #
convexity-sys-attrib $-1 -1 $-1 $-1 $144 #
vertex $-1 -1 $-1 $385 $386 #
vertex $-1 -1 $-1 $144 $387 #
straight-curve $-1 -1 $-1 0 -315.57611388427443 572.07799053877466 -1 0 0 I I #
model_id-kcp-attrib $-1 -1 $-1 $-1 $146 1 1021498087 1021498087 1845100546 5 #
face $388 -1 $-1 $389 $390 $35 $-1 $391 reversed single #
loop $-1 -1 $-1 $-1 $392 $146 #
plane-surface $-1 -1 $-1 -513.07999999999993 0 0 1 0 0 0 0 -1 forward_v I I I I #
coedge $-1 -1 $-1 $393 $259 $394 $395 forward $147 $-1 #
coedge $-1 -1 $-1 $396 $149 $393 $397 forward $91 $-1 #
coedge $-1 -1 $-1 $149 $396 $398 $399 forward $91 $-1 #
coedge $-1 -1 $-1 $262 $261 $149 $255 reversed $263 $-1 #
edge $-1 -1 $-1 $400 -467.97611388427435 $401 467.97611388427435 $254 $402 forward @7 unknown #
coedge $-1 -1 $-1 $151 $150 $403 $404 forward $63 $-1 #
coedge $-1 -1 $-1 $405 $406 $150 $258 reversed $390 $-1 #
edge $-1 -1 $-1 $265 -513.07999999999993 $407 513.07999999999993 $257 $408 forward @7 unknown #
coedge $-1 -1 $-1 $251 $409 $151 $260 reversed $147 $-1 #
edge $-1 -1 $-1 $410 -513.07999999999993 $264 513.07999999999993 $259 $411 forward @7 unknown #
coedge $-1 -1 $-1 $254 $152 $409 $412 forward $263 $-1 #
coedge $-1 -1 $-1 $152 $254 $405 $413 reversed $263 $-1 #
loop $-1 -1 $-1 $-1 $261 $389 #
vertex $-1 -1 $-1 $153 $414 #
vertex $-1 -1 $-1 $153 $415 #
straight-curve $-1 -1 $-1 513.07999999999993 0 572.07799053877466 0 1 0 I I #
model_id-kcp-attrib $-1 -1 $-1 $-1 $155 1 1021498087 1021498087 1845100545 7 #
face $416 -1 $-1 $417 $418 $10 $-1 $419 forward single #
loop $-1 -1 $-1 $-1 $420 $155 #
plane-surface $-1 -1 $-1 50.799999999999997 762 355.59999999999997 0 0 1 0 25.399999999999999 0 forward_v I I I I #
coedge $-1 -1 $-1 $421 $301 $422 $423 forward $156 $-1 #
coedge $-1 -1 $-1 $160 $158 $424 $425 reversed $96 $-1 #
coedge $-1 -1 $-1 $301 $421 $158 $274 reversed $156 $-1 #
edge $426 -1 $-1 $304 0 $427 40.399999999999999 $158 $428 forward @7 unknown #
coedge $-1 -1 $-1 $424 $162 $159 $276 forward $281 $-1 #
edge $429 -1 $-1 $165 0 $278 8.5227555330226252 $275 $430 forward @7 unknown #
attrib_edge_convexity-kcp-attrib $-1 -1 $431 $-1 $161 2 #
vertex $-1 -1 $-1 $276 $432 #
straight-curve $-1 -1 $-1 50.799999999999997 914.39999999999998 -355.59999999999997 -25.399999999999999 0 0 I I #
coedge $-1 -1 $-1 $162 $433 $296 $434 forward $281 $-1 #
loop $-1 -1 $-1 $-1 $424 $435 #
attrib_edge_convexity-kcp-attrib $-1 -1 $436 $-1 $163 1 #
vertex $-1 -1 $-1 $163 $437 #
straight-curve $-1 -1 $-1 -975.3599999999999 1697.9522277685487 -286.88830263805198 0 -23.86819256796208 -8.6873116404719628 I I #
convexity-sys-attrib $-1 -1 $-1 $164 $101 #
point $-1 -1 $-1 -975.3599999999999 914.39999999999998 -572.07799053877466 #
coedge $-1 -1 $-1 $176 $167 $438 $439 reversed $38 $-1 #
coedge $-1 -1 $-1 $440 $441 $167 $289 forward $418 $-1 #
edge $442 -1 $-1 $443 0 $294 8.5227555330226217 $167 $444 forward @7 unknown #
coedge $-1 -1 $-1 $445 $168 $171 $297 forward $292 $-1 #
coedge $-1 -1 $-1 $168 $445 $440 $446 reversed $292 $-1 #
loop $-1 -1 $-1 $-1 $290 $417 #
attrib_edge_convexity-kcp-attrib $-1 -1 $447 $-1 $169 1 #
vertex $-1 -1 $-1 $289 $448 #
straight-curve $-1 -1 $-1 50.799999999999997 914.39999999999998 572.07799053877454 0 23.86819256796208 -8.687311640471961 I I #
coedge $-1 -1 $-1 $171 $170 $280 $434 reversed $172 $-1 #
edge $449 -1 $-1 $174 0 $450 40.399999999999999 $290 $451 forward @7 unknown #
face $452 -1 $-1 $435 $172 $10 $-1 $453 forward single #
convexity-sys-attrib $-1 -1 $-1 $173 $104 #
point $-1 -1 $-1 50.799999999999997 1697.9522277685487 286.88830263805193 #
coedge $-1 -1 $-1 $271 $273 $176 $302 forward $156 $-1 #
edge $454 -1 $-1 $304 0 $455 28 $176 $456 forward @7 unknown #
attrib_edge_convexity-kcp-attrib $-1 -1 $457 $-1 $178 1 #
vertex $-1 -1 $-1 $178 $458 #
straight-curve $-1 -1 $-1 50.799999999999997 914.39999999999998 -355.59999999999997 0 -25.399999999999999 0 I I #
convexity-sys-attrib $-1 -1 $-1 $179 $107 #
point $-1 -1 $-1 50.799999999999997 914.39999999999998 -355.59999999999997 #
attrib_edge_convexity-kcp-attrib $-1 -1 $459 $-1 $182 1 #
straight-curve $-1 -1 $-1 50.799999999999997 1697.9522277685487 -286.88830263805198 -25.399999999999999 0 0 I I #
face $-1 -1 $-1 $-1 $460 $28 $-1 $461 forward single #
loop $-1 -1 $-1 $-1 $319 $186 #
plane-surface $-1 -1 $-1 513.07999999999993 -315.57611388427438 355.60000000000002 0 0 -1 -1 0 0 forward_v I I I I #
coedge $-1 -1 $-1 $190 $189 $462 $463 reversed $75 $-1 #
edge $-1 -1 $-1 $464 0 $198 73.608455070125956 $196 $465 forward @7 unknown #
coedge $-1 -1 $-1 $466 $319 $190 $316 reversed $311 $-1 #
edge $-1 -1 $-1 $467 0 $317 152.39999999999998 $190 $468 forward @7 unknown #
vertex $-1 -1 $-1 $316 $469 #
straight-curve $-1 -1 $-1 -513.07999999999981 -415.3613579278998 500.15785392025589 0 -0.34202014332566788 -0.93969262078590876 I I #
coedge $-1 -1 $-1 $315 $470 $192 $320 forward $311 $-1 #
edge $-1 -1 $-1 $323 -256.53999999999996 $317 769.61999999999989 $319 $471 forward @7 unknown #
coedge $-1 -1 $-1 $472 $193 $470 $473 reversed $187 $-1 #
coedge $-1 -1 $-1 $193 $472 $195 $326 forward $187 $-1 #
vertex $-1 -1 $-1 $473 $474 #
straight-curve $-1 -1 $-1 513.07999999999993 -380.57401540585874 595.73529198239737 0 0.34202014332566788 0.93969262078590876 I I #
coedge $-1 -1 $-1 $196 $195 $475 $476 forward $114 $-1 #
edge $-1 -1 $-1 $477 0 $197 73.608455070125956 $322 $478 forward @7 unknown #
point $-1 -1 $-1 513.07999999999993 -389.18456895440028 572.07799053877466 #
point $-1 -1 $-1 -513.07999999999993 -389.18456895440028 572.07799053877466 #
face $-1 -1 $-1 $-1 $479 $30 $-1 $480 forward single #
plane-surface $-1 -1 $-1 0 -467.97611388427435 -463.83899526938711 -4.1339032739946885e-018 1 1.9595738915926842e-016 0 -1.9595738915926842e-016 1 forward_v I I I I #
coedge $-1 -1 $-1 $210 $481 $212 $347 forward $201 $-1 #
coedge $-1 -1 $-1 $482 $203 $481 $483 reversed $122 $-1 #
coedge $-1 -1 $-1 $203 $482 $204 $337 forward $122 $-1 #
coedge $-1 -1 $-1 $206 $212 $203 $335 reversed $213 $-1 #
edge $-1 -1 $-1 $338 -340.15849290408107 $484 -123.6805023653063 $203 $485 forward @7 unknown #
coedge $-1 -1 $-1 $205 $204 $486 $487 forward $79 $-1 #
edge $-1 -1 $-1 $488 0 $338 152.39999999999998 $333 $489 forward @7 unknown #
vertex $-1 -1 $-1 $337 $490 #
straight-curve $-1 -1 $-1 0 -467.97611388427441 -572.07799053877466 -1 0 0 I I #
coedge $-1 -1 $-1 $486 $491 $208 $341 forward $479 $-1 #
edge $492 -1 $-1 $345 123.6805023653063 $342 340.15849290408107 $208 $493 forward @7 unknown #
vertex $-1 -1 $-1 $341 $494 #
straight-curve $-1 -1 $-1 513.07999999999993 -315.57611388427432 -572.07799053877466 0 -1 0 I I #
coedge $-1 -1 $-1 $481 $210 $491 $495 reversed $201 $-1 #
vertex $-1 -1 $-1 $495 $496 #
straight-curve $-1 -1 $-1 513.07999999999993 -315.57611388427438 -355.59999999999991 0 -1 0 I I #
edge $-1 -1 $-1 $484 -769.61999999999989 $214 256.53999999999996 $331 $497 forward @7 unknown #
point $-1 -1 $-1 513.07999999999993 -467.97611388427435 -355.59999999999991 #
point $-1 -1 $-1 513.07999999999993 -467.9761138842743 -572.07799053877466 #
loop $-1 -1 $-1 $-1 $224 $217 #
plane-surface $-1 -1 $-1 -513.07999999999993 0 0 1 0 0 0 0 -1 forward_v I I I I #
coedge $-1 -1 $-1 $354 $498 $223 $359 reversed $218 $-1 #
edge $-1 -1 $-1 $499 -364.17555636874363 $230 315.57611388427432 $220 $500 forward @7 unknown #
coedge $-1 -1 $-1 $501 $352 $221 $355 reversed $218 $-1 #
edge $-1 -1 $-1 $499 -627.8441294996054 $357 -324.35160269631405 $221 $502 forward @7 unknown #
convexity-sys-attrib $-1 -1 $-1 $-1 $222 #
vertex $-1 -1 $-1 $355 $503 #
straight-curve $-1 -1 $-1 513.07999999999993 111.57346465763834 -416.60825837016557 0 0.93969262078590876 0.34202014332566788 I I #
edge $504 -1 $-1 $357 -769.61999999999989 $363 256.53999999999996 $352 $505 forward @7 unknown #
coedge $-1 -1 $-1 $361 $224 $498 $506 forward $350 $-1 #
coedge $-1 -1 $-1 $224 $360 $226 $366 reversed $350 $-1 #
convexity-sys-attrib $-1 -1 $-1 $-1 $225 #
vertex $-1 -1 $-1 $359 $507 #
straight-curve $-1 -1 $-1 -513.07999999999993 111.57346465763834 -416.60825837016557 0 -0.93969262078590876 -0.34202014332566788 I I #
coedge $-1 -1 $-1 $227 $226 $501 $508 forward $130 $-1 #
edge $-1 -1 $-1 $229 -315.57611388427432 $509 364.17555636874363 $361 $510 forward @7 unknown #
point $-1 -1 $-1 -513.07999999999993 -315.57611388427432 -572.07799053877466 #
point $-1 -1 $-1 513.07999999999993 -315.57611388427432 -572.07799053877466 #
loop $-1 -1 $-1 $-1 $239 $232 #
plane-surface $-1 -1 $-1 513.07999999999993 0 0 -1 0 0 0 0 1 forward_v I I I I #
coedge $-1 -1 $-1 $373 $511 $238 $378 reversed $233 $-1 #
edge $-1 -1 $-1 $512 -467.97611388427435 $245 315.57611388427432 $235 $513 forward @7 unknown #
coedge $-1 -1 $-1 $514 $371 $236 $374 reversed $233 $-1 #
edge $-1 -1 $-1 $512 -572.07799053877466 $376 -286.88830263805204 $373 $515 forward @7 unknown #
convexity-sys-attrib $-1 -1 $-1 $-1 $237 #
vertex $-1 -1 $-1 $237 $516 #
straight-curve $-1 -1 $-1 -513.07999999999993 111.57346465763834 416.60825837016557 0 0.93969262078590876 -0.34202014332566788 I I #
edge $517 -1 $-1 $376 -513.07999999999993 $382 513.07999999999993 $371 $518 forward @7 unknown #
coedge $-1 -1 $-1 $380 $239 $511 $519 reversed $369 $-1 #
coedge $-1 -1 $-1 $239 $379 $241 $385 reversed $369 $-1 #
convexity-sys-attrib $-1 -1 $-1 $-1 $240 #
vertex $-1 -1 $-1 $240 $520 #
straight-curve $-1 -1 $-1 513.07999999999993 111.57346465763834 416.60825837016557 0 -0.93969262078590876 0.34202014332566788 I I #
coedge $-1 -1 $-1 $242 $241 $514 $521 forward $138 $-1 #
edge $-1 -1 $-1 $244 -315.57611388427432 $522 467.97611388427435 $380 $523 forward @7 unknown #
point $-1 -1 $-1 513.07999999999993 -315.57611388427432 572.07799053877466 #
point $-1 -1 $-1 -513.07999999999993 -315.57611388427432 572.07799053877466 #
model_id-kcp-attrib $-1 -1 $-1 $-1 $248 1 1021498087 1021498087 1845100546 4 #
face $524 -1 $-1 $-1 $263 $35 $-1 $525 reversed single #
loop $-1 -1 $-1 $-1 $405 $248 #
plane-surface $-1 -1 $-1 0 467.97611388427435 0 0 -1 0 0 0 -1 forward_v I I I I #
coedge $-1 -1 $-1 $526 $403 $406 $527 forward $249 $-1 #
coedge $-1 -1 $-1 $409 $251 $252 $397 reversed $147 $-1 #
coedge $-1 -1 $-1 $403 $526 $251 $395 reversed $249 $-1 #
edge $-1 -1 $-1 $410 -572.07799053877466 $528 572.07799053877466 $394 $529 forward @7 unknown #
coedge $-1 -1 $-1 $253 $252 $526 $530 forward $91 $-1 #
edge $-1 -1 $-1 $401 -513.07999999999993 $528 513.07999999999993 $393 $531 forward @7 unknown #
coedge $-1 -1 $-1 $406 $405 $253 $399 reversed $390 $-1 #
edge $-1 -1 $-1 $532 -513.07999999999993 $400 513.07999999999993 $398 $533 forward @7 unknown #
vertex $-1 -1 $-1 $255 $534 #
vertex $-1 -1 $-1 $412 $535 #
straight-curve $-1 -1 $-1 513.07999999999993 0 -572.07799053877466 0 -1 0 I I #
coedge $-1 -1 $-1 $392 $394 $256 $404 reversed $249 $-1 #
edge $-1 -1 $-1 $407 -467.97611388427435 $410 467.97611388427435 $403 $536 forward @7 unknown #
coedge $-1 -1 $-1 $398 $257 $262 $413 forward $390 $-1 #
coedge $-1 -1 $-1 $257 $398 $392 $527 reversed $390 $-1 #
vertex $-1 -1 $-1 $258 $537 #
straight-curve $-1 -1 $-1 0 467.97611388427435 572.07799053877466 -1 0 0 I I #
coedge $-1 -1 $-1 $259 $393 $261 $412 reversed $147 $-1 #
vertex $-1 -1 $-1 $404 $538 #
straight-curve $-1 -1 $-1 0 -467.97611388427435 572.07799053877466 1 0 0 I I #
edge $-1 -1 $-1 $264 -572.07799053877466 $401 572.07799053877466 $261 $539 forward @7 unknown #
edge $-1 -1 $-1 $265 -572.07799053877466 $400 572.07799053877466 $262 $540 forward @7 unknown #
point $-1 -1 $-1 513.07999999999993 -467.97611388427435 572.07799053877466 #
point $-1 -1 $-1 513.07999999999993 467.97611388427435 572.07799053877466 #
model_id-kcp-attrib $-1 -1 $-1 $-1 $268 1 1021498087 1021498087 1845100545 8 #
face $541 -1 $-1 $298 $292 $10 $-1 $542 forward single #
loop $-1 -1 $-1 $-1 $440 $268 #
plane-surface $-1 -1 $-1 50.799999999999997 914.39999999999998 355.59999999999997 0 -1 0 0 0 25.399999999999999 forward_v I I I I #
coedge $-1 -1 $-1 $543 $438 $441 $544 forward $269 $-1 #
coedge $-1 -1 $-1 $273 $271 $545 $546 reversed $156 $-1 #
coedge $-1 -1 $-1 $438 $543 $271 $423 reversed $269 $-1 #
edge $547 -1 $-1 $455 0 $548 40.399999999999999 $271 $549 forward @7 unknown #
coedge $-1 -1 $-1 $545 $275 $272 $425 forward $281 $-1 #
edge $550 -1 $-1 $278 0 $427 5.9999999999999991 $424 $551 forward @7 unknown #
attrib_edge_convexity-kcp-attrib $-1 -1 $552 $-1 $274 1 #
vertex $-1 -1 $-1 $546 $553 #
straight-curve $-1 -1 $-1 50.799999999999997 762 -355.59999999999997 -25.399999999999999 0 0 I I #
attrib_edge_convexity-kcp-attrib $-1 -1 $554 $-1 $276 1 #
straight-curve $-1 -1 $-1 -975.3599999999999 914.39999999999998 -572.07799053877466 0 0 25.399999999999999 I I #
convexity-sys-attrib $-1 -1 $-1 $277 $161 #
point $-1 -1 $-1 -975.3599999999999 914.39999999999998 -355.59999999999997 #
coedge $-1 -1 $-1 $280 $555 $445 $556 forward $281 $-1 #
edge $-1 -1 $-1 $450 0 $283 22.589630128980474 $280 $557 forward @7 unknown #
face $558 -1 $-1 $-1 $281 $10 $-1 $559 forward single #
convexity-sys-attrib $-1 -1 $-1 $282 $163 #
point $-1 -1 $-1 -975.3599999999999 1697.9522277685487 -286.88830263805198 #
coedge $-1 -1 $-1 $420 $422 $287 $439 forward $269 $-1 #
edge $560 -1 $-1 $455 0 $443 5.9999999999999991 $287 $561 forward @7 unknown #
coedge $-1 -1 $-1 $562 $288 $291 $446 forward $418 $-1 #
coedge $-1 -1 $-1 $288 $562 $420 $544 reversed $418 $-1 #
attrib_edge_convexity-kcp-attrib $-1 -1 $563 $-1 $289 1 #
vertex $-1 -1 $-1 $439 $564 #
straight-curve $-1 -1 $-1 50.799999999999997 914.39999999999998 355.59999999999997 0 0 25.399999999999999 I I #
coedge $-1 -1 $-1 $291 $290 $433 $556 reversed $292 $-1 #
edge $565 -1 $-1 $294 0 $566 40.399999999999999 $440 $567 forward @7 unknown #
convexity-sys-attrib $-1 -1 $-1 $293 $169 #
point $-1 -1 $-1 50.799999999999997 914.39999999999998 572.07799053877454 #
attrib_edge_convexity-kcp-attrib $-1 -1 $568 $-1 $297 1 #
vertex $-1 -1 $-1 $434 $569 #
straight-curve $-1 -1 $-1 50.799999999999997 1697.9522277685487 286.88830263805198 -25.399999999999999 0 0 I I #
model_id-kcp-attrib $-1 -1 $-1 $-1 $298 1 1021498087 1021498087 1845100545 10 #
plane-surface $-1 -1 $-1 50.799999999999997 1697.9522277685487 286.88830263805193 0 1 0 0 0 -25.399999999999999 forward_v I I I I #
attrib_edge_convexity-kcp-attrib $-1 -1 $570 $-1 $302 1 #
vertex $-1 -1 $-1 $302 $571 #
straight-curve $-1 -1 $-1 50.799999999999997 762 -355.59999999999997 0 0 25.399999999999999 I I #
convexity-sys-attrib $-1 -1 $-1 $303 $178 #
point $-1 -1 $-1 50.799999999999997 762 -355.59999999999997 #
convexity-sys-attrib $-1 -1 $-1 $308 $182 #
loop $-1 -1 $-1 $-1 $572 $310 #
plane-surface $-1 -1 $-1 0 -315.57611388427443 463.83899526938734 4.133903273994687e-018 1 -1.9595738915926933e-016 0 1.9595738915926933e-016 1 forward_v I I I I #
coedge $-1 -1 $-1 $475 $572 $313 $463 forward $460 $-1 #
edge $573 -1 $-1 $467 123.68050236530635 $464 340.15849290408096 $313 $574 forward @7 unknown #
vertex $-1 -1 $-1 $463 $575 #
straight-curve $-1 -1 $-1 -513.07999999999993 -315.57611388427432 572.07799053877466 0 -1 0 I I #
coedge $-1 -1 $-1 $470 $315 $572 $576 reversed $311 $-1 #
vertex $-1 -1 $-1 $576 $577 #
straight-curve $-1 -1 $-1 -513.07999999999993 -315.57611388427438 355.60000000000002 0 -1 0 I I #
point $-1 -1 $-1 -513.07999999999993 -467.97611388427435 355.60000000000002 #
coedge $-1 -1 $-1 $319 $466 $321 $473 forward $311 $-1 #
straight-curve $-1 -1 $-1 256.53999999999996 -467.97611388427447 355.60000000000002 -1 0 0 I I #
coedge $-1 -1 $-1 $322 $321 $578 $579 reversed $187 $-1 #
edge $-1 -1 $-1 $580 0 $323 152.39999999999998 $470 $581 forward @7 unknown #
point $-1 -1 $-1 513.07999999999993 -467.97611388427435 355.60000000000002 #
coedge $-1 -1 $-1 $578 $462 $325 $476 reversed $460 $-1 #
edge $582 -1 $-1 $477 -513.07999999999993 $464 513.07999999999993 $325 $583 forward @7 unknown #
vertex $-1 -1 $-1 $476 $584 #
straight-curve $-1 -1 $-1 513.07999999999993 -315.57611388427432 572.07799053877466 0 -1 0 I I #
loop $-1 -1 $-1 $-1 $491 $329 #
plane-surface $-1 -1 $-1 0 -315.57611388427438 -463.83899526938711 -4.1339032739946885e-018 1 1.9595738915926842e-016 0 -1.9595738915926842e-016 1 forward_v I I I I #
coedge $-1 -1 $-1 $331 $344 $332 $483 forward $201 $-1 #
coedge $-1 -1 $-1 $333 $332 $585 $586 reversed $122 $-1 #
edge $-1 -1 $-1 $587 0 $484 152.39999999999998 $481 $588 forward @7 unknown #
vertex $-1 -1 $-1 $483 $589 #
straight-curve $-1 -1 $-1 -513.07999999999993 -467.97611388427447 -231.91949763469361 0 0 1 I I #
coedge $-1 -1 $-1 $585 $340 $336 $487 reversed $479 $-1 #
edge $590 -1 $-1 $488 -513.07999999999993 $342 513.07999999999993 $336 $591 forward @7 unknown #
vertex $-1 -1 $-1 $487 $592 #
straight-curve $-1 -1 $-1 -513.07999999999993 -315.57611388427432 -572.07799053877466 0 -1 0 I I #
point $-1 -1 $-1 -513.07999999999993 -467.9761138842743 -572.07799053877466 #
coedge $-1 -1 $-1 $340 $585 $344 $495 forward $479 $-1 #
convexity-sys-attrib $-1 -1 $-1 $-1 $341 #
straight-curve $-1 -1 $-1 513.07999999999993 -315.57611388427449 -231.91949763469361 0 0 -1 I I #
point $-1 -1 $-1 513.07999999999993 -315.57611388427432 -572.07799053877466 #
edge $593 -1 $-1 $587 -769.61999999999989 $345 256.53999999999996 $344 $594 forward @7 unknown #
point $-1 -1 $-1 513.07999999999993 -315.57611388427438 -355.59999999999991 #
straight-curve $-1 -1 $-1 256.53999999999996 -467.97611388427447 -355.59999999999991 1 0 0 I I #
coedge $-1 -1 $-1 $352 $501 $360 $506 reversed $218 $-1 #
vertex $-1 -1 $-1 $353 $595 #
straight-curve $-1 -1 $-1 513.07999999999993 0 -572.07799053877466 0 -1 0 I I #
coedge $-1 -1 $-1 $498 $354 $365 $508 reversed $218 $-1 #
straight-curve $-1 -1 $-1 513.07999999999981 578.91089552637777 17.90250495575691 0 0.34202014332566788 0.93969262078590876 I I #
point $-1 -1 $-1 513.07999999999993 467.97611388427435 -286.88830263805227 #
convexity-sys-attrib $-1 -1 $-1 $-1 $359 #
straight-curve $-1 -1 $-1 -256.53999999999996 467.97611388427435 -286.88830263805221 -1 0 0 I I #
edge $-1 -1 $-1 $363 324.35160269631405 $509 627.8441294996054 $360 $596 forward @7 unknown #
point $-1 -1 $-1 -513.07999999999993 467.97611388427435 -286.88830263805227 #
edge $-1 -1 $-1 $509 -256.53999999999996 $499 769.61999999999989 $365 $597 forward @7 unknown #
vertex $-1 -1 $-1 $506 $598 #
straight-curve $-1 -1 $-1 -513.07999999999993 0 -572.07799053877466 0 1 0 I I #
coedge $-1 -1 $-1 $371 $514 $379 $519 forward $233 $-1 #
vertex $-1 -1 $-1 $521 $599 #
straight-curve $-1 -1 $-1 -513.07999999999993 0 572.07799053877466 0 -1 0 I I #
coedge $-1 -1 $-1 $511 $373 $384 $521 reversed $233 $-1 #
straight-curve $-1 -1 $-1 -513.07999999999993 467.97611388427435 0 0 0 -1 I I #
point $-1 -1 $-1 -513.07999999999993 467.97611388427435 286.88830263805204 #
convexity-sys-attrib $-1 -1 $-1 $-1 $378 #
straight-curve $-1 -1 $-1 0 467.97611388427435 286.8883026380521 1 0 0 I I #
edge $-1 -1 $-1 $522 -572.07799053877466 $382 -286.88830263805204 $379 $600 forward @7 unknown #
point $-1 -1 $-1 513.07999999999993 467.97611388427435 286.88830263805204 #
edge $-1 -1 $-1 $522 -513.07999999999993 $512 513.07999999999993 $514 $601 forward @7 unknown #
vertex $-1 -1 $-1 $385 $602 #
straight-curve $-1 -1 $-1 513.07999999999993 0 572.07799053877466 0 1 0 I I #
model_id-kcp-attrib $-1 -1 $-1 $-1 $389 1 1021498087 1021498087 1845100546 2 #
plane-surface $-1 -1 $-1 513.07999999999993 0 0 -1 0 0 0 0 1 forward_v I I I I #
coedge $-1 -1 $-1 $394 $392 $396 $530 reversed $249 $-1 #
edge $-1 -1 $-1 $407 -572.07799053877466 $532 572.07799053877466 $406 $603 forward @7 unknown #
vertex $-1 -1 $-1 $530 $604 #
straight-curve $-1 -1 $-1 -513.07999999999993 -467.97611388427435 0 0 0 -1 I I #
edge $-1 -1 $-1 $528 -467.97611388427435 $532 467.97611388427435 $526 $605 forward @7 unknown #
straight-curve $-1 -1 $-1 0 -467.97611388427435 -572.07799053877466 -1 0 0 I I #
vertex $-1 -1 $-1 $399 $606 #
straight-curve $-1 -1 $-1 0 467.97611388427435 -572.07799053877466 1 0 0 I I #
point $-1 -1 $-1 513.07999999999993 467.97611388427435 -572.07799053877466 #
point $-1 -1 $-1 513.07999999999993 -467.97611388427435 -572.07799053877466 #
straight-curve $-1 -1 $-1 -513.07999999999993 0 572.07799053877466 0 -1 0 I I #
point $-1 -1 $-1 -513.07999999999993 467.97611388427435 572.07799053877466 #
point $-1 -1 $-1 -513.07999999999993 -467.97611388427435 572.07799053877466 #
straight-curve $-1 -1 $-1 513.07999999999993 -467.97611388427435 0 0 0 -1 I I #
straight-curve $-1 -1 $-1 513.07999999999993 467.97611388427435 0 0 0 -1 I I #
model_id-kcp-attrib $-1 -1 $-1 $-1 $417 1 1021498087 1021498087 1845100545 9 #
plane-surface $-1 -1 $-1 50.799999999999997 914.39999999999998 572.07799053877454 0 0.34202014332566788 0.93969262078590876 0 23.86819256796208 -8.6873116404719628 forward_v I I I I #
coedge $-1 -1 $-1 $422 $420 $607 $608 reversed $269 $-1 #
edge $609 -1 $-1 $443 0 $610 40.399999999999999 $420 $611 forward @7 unknown #
coedge $-1 -1 $-1 $607 $424 $421 $546 forward $281 $-1 #
edge $612 -1 $-1 $427 0 $548 28 $545 $613 forward @7 unknown #
attrib_edge_convexity-kcp-attrib $-1 -1 $614 $-1 $423 1 #
vertex $-1 -1 $-1 $608 $615 #
straight-curve $-1 -1 $-1 50.799999999999997 762 355.59999999999997 -25.399999999999999 0 0 I I #
attrib_edge_convexity-kcp-attrib $-1 -1 $616 $-1 $425 1 #
straight-curve $-1 -1 $-1 -975.3599999999999 914.39999999999998 -355.59999999999997 0 -25.399999999999999 0 I I #
convexity-sys-attrib $-1 -1 $-1 $426 $274 #
point $-1 -1 $-1 -975.3599999999999 762 -355.59999999999997 #
convexity-sys-attrib $-1 -1 $-1 $429 $276 #
coedge $-1 -1 $-1 $433 $607 $562 $617 forward $281 $-1 #
edge $618 -1 $-1 $566 0 $450 32.828301746664266 $433 $619 forward @7 unknown #
straight-curve $-1 -1 $-1 -975.3599999999999 1697.9522277685487 286.88830263805193 0 0 -25.399999999999999 I I #
model_id-kcp-attrib $-1 -1 $-1 $-1 $435 1 1021498087 1021498087 1845100545 11 #
plane-surface $-1 -1 $-1 -975.3599999999999 914.39999999999998 355.59999999999997 -1 0 0 0 0 25.399999999999999 forward_v I I I I #
attrib_edge_convexity-kcp-attrib $-1 -1 $620 $-1 $439 1 #
straight-curve $-1 -1 $-1 50.799999999999997 762 355.59999999999997 0 25.399999999999999 0 I I #
coedge $-1 -1 $-1 $441 $440 $555 $617 reversed $418 $-1 #
convexity-sys-attrib $-1 -1 $-1 $442 $289 #
point $-1 -1 $-1 50.799999999999997 914.39999999999998 355.59999999999997 #
attrib_edge_convexity-kcp-attrib $-1 -1 $621 $-1 $446 1 #
vertex $-1 -1 $-1 $556 $622 #
straight-curve $-1 -1 $-1 50.799999999999997 914.39999999999998 572.07799053877454 -25.399999999999999 0 0 I I #
convexity-sys-attrib $-1 -1 $-1 $449 $297 #
point $-1 -1 $-1 -975.3599999999999 1697.9522277685487 286.88830263805193 #
convexity-sys-attrib $-1 -1 $-1 $454 $302 #
point $-1 -1 $-1 50.799999999999997 762 355.59999999999997 #
coedge $-1 -1 $-1 $462 $578 $466 $576 forward $460 $-1 #
convexity-sys-attrib $-1 -1 $-1 $-1 $463 #
straight-curve $-1 -1 $-1 -513.07999999999993 -315.57611388427449 231.91949763469367 0 0 1 I I #
point $-1 -1 $-1 -513.07999999999993 -315.57611388427432 572.07799053877466 #
edge $623 -1 $-1 $580 -256.53999999999996 $467 769.61999999999989 $466 $624 forward @7 unknown #
point $-1 -1 $-1 -513.07999999999993 -315.57611388427438 355.60000000000002 #
coedge $-1 -1 $-1 $572 $475 $472 $579 forward $460 $-1 #
edge $625 -1 $-1 $477 -340.15849290408096 $580 -123.68050236530635 $472 $626 forward @7 unknown #
vertex $-1 -1 $-1 $576 $627 #
straight-curve $-1 -1 $-1 513.07999999999993 -315.57611388427438 355.60000000000002 0 -1 0 I I #
convexity-sys-attrib $-1 -1 $-1 $-1 $476 #
straight-curve $-1 -1 $-1 0 -315.57611388427443 572.07799053877466 -1 0 0 I I #
point $-1 -1 $-1 513.07999999999993 -315.57611388427432 572.07799053877466 #
coedge $-1 -1 $-1 $491 $486 $482 $586 forward $479 $-1 #
edge $628 -1 $-1 $488 -340.15849290408107 $587 -123.6805023653063 $482 $629 forward @7 unknown #
vertex $-1 -1 $-1 $495 $630 #
straight-curve $-1 -1 $-1 -513.07999999999993 -315.57611388427438 -355.59999999999991 0 -1 0 I I #
point $-1 -1 $-1 -513.07999999999993 -467.97611388427435 -355.59999999999991 #
convexity-sys-attrib $-1 -1 $-1 $-1 $487 #
straight-curve $-1 -1 $-1 0 -315.57611388427443 -572.07799053877466 1 0 0 I I #
point $-1 -1 $-1 -513.07999999999993 -315.57611388427432 -572.07799053877466 #
convexity-sys-attrib $-1 -1 $-1 $-1 $495 #
straight-curve $-1 -1 $-1 256.53999999999996 -315.57611388427449 -355.59999999999991 1 0 0 I I #
point $-1 -1 $-1 513.07999999999993 364.17555636874363 -572.07799053877466 #
straight-curve $-1 -1 $-1 -513.07999999999993 578.91089552637777 17.90250495575691 0 -0.34202014332566788 -0.93969262078590876 I I #
straight-curve $-1 -1 $-1 -256.53999999999996 364.17555636874351 -572.07799053877466 1 0 0 I I #
point $-1 -1 $-1 -513.07999999999993 364.17555636874363 -572.07799053877466 #
point $-1 -1 $-1 -513.07999999999993 467.97611388427435 572.07799053877466 #
straight-curve $-1 -1 $-1 513.07999999999993 467.97611388427435 0 0 0 -1 I I #
straight-curve $-1 -1 $-1 0 467.97611388427435 572.07799053877466 -1 0 0 I I #
point $-1 -1 $-1 513.07999999999993 467.97611388427435 572.07799053877466 #
straight-curve $-1 -1 $-1 -513.07999999999993 467.97611388427435 0 0 0 -1 I I #
point $-1 -1 $-1 -513.07999999999993 -467.97611388427435 -572.07799053877466 #
straight-curve $-1 -1 $-1 -513.07999999999993 0 -572.07799053877466 0 1 0 I I #
point $-1 -1 $-1 -513.07999999999993 467.97611388427435 -572.07799053877466 #
coedge $-1 -1 $-1 $555 $545 $543 $608 forward $281 $-1 #
edge $631 -1 $-1 $548 0 $610 5.9999999999999991 $607 $632 forward @7 unknown #
attrib_edge_convexity-kcp-attrib $-1 -1 $633 $-1 $544 2 #
vertex $-1 -1 $-1 $617 $634 #
straight-curve $-1 -1 $-1 50.799999999999997 914.39999999999998 355.59999999999997 -25.399999999999999 0 0 I I #
attrib_edge_convexity-kcp-attrib $-1 -1 $635 $-1 $546 1 #
straight-curve $-1 -1 $-1 -975.3599999999999 762 -355.59999999999997 0 0 25.399999999999999 I I #
convexity-sys-attrib $-1 -1 $-1 $547 $423 #
point $-1 -1 $-1 -975.3599999999999 762 355.59999999999997 #
convexity-sys-attrib $-1 -1 $-1 $550 $425 #
edge $636 -1 $-1 $610 0 $566 8.5227555330226217 $555 $637 forward @7 unknown #
attrib_edge_convexity-kcp-attrib $-1 -1 $638 $-1 $556 1 #
straight-curve $-1 -1 $-1 -975.3599999999999 914.39999999999998 572.07799053877454 0 23.86819256796208 -8.687311640471961 I I #
convexity-sys-attrib $-1 -1 $-1 $560 $439 #
convexity-sys-attrib $-1 -1 $-1 $565 $446 #
point $-1 -1 $-1 -975.3599999999999 914.39999999999998 572.07799053877454 #
convexity-sys-attrib $-1 -1 $-1 $-1 $576 #
straight-curve $-1 -1 $-1 256.53999999999996 -315.57611388427449 355.60000000000002 -1 0 0 I I #
convexity-sys-attrib $-1 -1 $-1 $-1 $579 #
straight-curve $-1 -1 $-1 513.07999999999993 -315.57611388427449 231.91949763469367 0 0 -1 I I #
point $-1 -1 $-1 513.07999999999993 -315.57611388427438 355.60000000000002 #
convexity-sys-attrib $-1 -1 $-1 $-1 $586 #
straight-curve $-1 -1 $-1 -513.07999999999993 -315.57611388427449 -231.91949763469361 0 0 1 I I #
point $-1 -1 $-1 -513.07999999999993 -315.57611388427438 -355.59999999999991 #
attrib_edge_convexity-kcp-attrib $-1 -1 $639 $-1 $608 1 #
straight-curve $-1 -1 $-1 -975.3599999999999 762 355.59999999999997 0 25.399999999999999 0 I I #
convexity-sys-attrib $-1 -1 $-1 $609 $544 #
point $-1 -1 $-1 -975.3599999999999 914.39999999999998 355.59999999999997 #
convexity-sys-attrib $-1 -1 $-1 $612 $546 #
attrib_edge_convexity-kcp-attrib $-1 -1 $640 $-1 $617 1 #
straight-curve $-1 -1 $-1 -975.3599999999999 914.39999999999998 355.59999999999997 0 0 25.399999999999999 I I #
convexity-sys-attrib $-1 -1 $-1 $618 $556 #
convexity-sys-attrib $-1 -1 $-1 $631 $608 #
convexity-sys-attrib $-1 -1 $-1 $636 $617 #
End-of-ACIS-data 