700 0 2 0           
24 FBMach with ACIS - 7.0.3 13 ACIS 7.0.3 NT 24 Wed May 15 17:27:58 2002 
1 9.9999999999999995e-007 1e-010 
body $2 -1 $-1 $3 $-1 $4 #
bdycol-kcp $-1 -1 1 5 $5 $6 $7 $8 $9 #
model_id-kcp-attrib $-1 -1 $-1 $-1 $0 1 1021498078 1021498078 612302849 1 #
lump $-1 -1 $-1 $-1 $10 $0 #
transform $-1 -1 1 0 0 0 1.0000000000000004 -5.5511151231257827e-017 0 5.5511151231257827e-017 1.0000000000000004 0 -4.5474735088646412e-013 1.1368683772161603e-013 1 rotate no_reflect no_shear #
body $11 -1 $-1 $12 $-1 $13 #
body $14 -1 $-1 $15 $-1 $16 #
body $17 -1 $-1 $18 $-1 $19 #
body $20 -1 $-1 $21 $-1 $22 #
body $23 -1 $-1 $24 $-1 $25 #
shell $-1 -1 $-1 $-1 $-1 $26 $-1 $3 #
rgb_color-st-attrib $-1 -1 $27 $-1 $5 1 0.5 1 #
lump $-1 -1 $-1 $-1 $28 $5 #
transform $-1 -1 1 0 0 0 1 0 0 0 1 -462.27999999999997 1229.9761138842744 -5.6843418860808015e-014 1 no_rotate no_reflect no_shear #
rgb_color-st-attrib $-1 -1 $29 $-1 $6 0.5 0.5 1 #
lump $-1 -1 $-1 $-1 $30 $6 #
transform $-1 -1 1 0 0 0 1 0 0 0 1 -462.27999999999997 1229.9761138842744 -5.6843418860808015e-014 1 no_rotate no_reflect no_shear #
rgb_color-st-attrib $-1 -1 $31 $-1 $7 0.5 0.5 1 #
lump $-1 -1 $-1 $-1 $32 $7 #
transform $-1 -1 1 0 0 0 1 0 0 0 1 -462.27999999999997 1229.9761138842744 -5.6843418860808015e-014 1 no_rotate no_reflect no_shear #
model_id-kcp-attrib $-1 -1 $-1 $-1 $8 1 1021498078 1021498078 612958210 1 #
lump $-1 -1 $-1 $-1 $33 $8 #
transform $-1 -1 1 0 0 0 1 0 0 0 1 -462.27999999999997 1229.9761138842744 -5.6843418860808015e-014 1 no_rotate no_reflect no_shear #
rgb_color-st-attrib $-1 -1 $34 $-1 $9 1 0.5 1 #
lump $-1 -1 $-1 $-1 $35 $9 #
transform $-1 -1 1 0 0 0 1 0 0 0 1 -462.27999999999997 1229.9761138842744 -5.6843418860808015e-014 1 no_rotate no_reflect no_shear #
face $36 -1 $-1 $37 $38 $10 $-1 $39 reversed single #
model_id-kcp-attrib $-1 -1 $-1 $11 $5 1 1021498078 1021498078 609550342 1 #
shell $-1 -1 $-1 $-1 $-1 $40 $-1 $12 #
model_id-kcp-attrib $-1 -1 $-1 $14 $6 1 1021498078 1021498078 609943555 1 #
shell $-1 -1 $-1 $-1 $-1 $41 $-1 $15 #
model_id-kcp-attrib $-1 -1 $-1 $17 $7 1 1021498078 1021498078 610598916 1 #
shell $-1 -1 $-1 $-1 $-1 $42 $-1 $18 #
shell $-1 -1 $-1 $-1 $-1 $43 $-1 $21 #
model_id-kcp-attrib $-1 -1 $-1 $23 $9 1 1021498078 1021498078 620429317 1 #
shell $-1 -1 $-1 $-1 $-1 $44 $-1 $24 #
model_id-kcp-attrib $-1 -1 $-1 $-1 $26 1 1021498078 1021498078 612302849 2 #
face $45 -1 $-1 $46 $47 $10 $-1 $48 forward single #
loop $-1 -1 $-1 $-1 $49 $26 #
plane-surface $-1 -1 $-1 50.799999999999997 914.39999999999998 355.59999999999997 -1 0 0 0 0 25.399999999999999 forward_v I I I I #
face $-1 -1 $-1 $50 $51 $28 $-1 $52 forward single #
face $-1 -1 $-1 $53 $54 $30 $-1 $55 reversed single #
face $-1 -1 $-1 $56 $57 $32 $-1 $58 reversed single #
face $-1 -1 $-1 $59 $60 $33 $-1 $61 forward single #
face $-1 -1 $-1 $62 $63 $35 $-1 $64 forward single #
model_id-kcp-attrib $-1 -1 $-1 $-1 $37 1 1021498078 1021498078 612302849 3 #
face $65 -1 $-1 $66 $67 $10 $-1 $68 forward single #
loop $-1 -1 $-1 $-1 $69 $37 #
plane-surface $-1 -1 $-1 50.799999999999997 1697.9522277685487 -286.88830263805198 0 0.34202014332566788 -0.93969262078590876 0 -23.86819256796208 -8.6873116404719628 forward_v I I I I #
coedge $-1 -1 $-1 $70 $71 $72 $73 reversed $38 $-1 #
face $-1 -1 $-1 $74 $75 $28 $-1 $76 forward single #
loop $-1 -1 $-1 $-1 $77 $40 #
plane-surface $-1 -1 $-1 513.07999999999993 -315.57611388427438 -355.59999999999991 1 0 0 0 0 -1 forward_v I I I I #
face $-1 -1 $-1 $78 $79 $30 $-1 $80 reversed single #
loop $-1 -1 $-1 $-1 $81 $41 #
plane-surface $-1 -1 $-1 0 76.200000000000159 -429.48314658841332 0 0.34202014332566788 -0.93969262078590876 -1 0 0 forward_v I I I I #
face $-1 -1 $-1 $82 $83 $32 $-1 $84 reversed single #
loop $-1 -1 $-1 $-1 $85 $42 #
plane-surface $-1 -1 $-1 0 76.200000000000159 429.48314658841332 0 0.34202014332566788 0.93969262078590876 -1 0 0 forward_v I I I I #
face $-1 -1 $-1 $86 $87 $33 $-1 $88 reversed single #
loop $-1 -1 $-1 $-1 $89 $43 #
plane-surface $-1 -1 $-1 0 0 572.07799053877466 0 0 1 1 0 0 forward_v I I I I #
face $-1 -1 $-1 $90 $91 $35 $-1 $92 forward single #
loop $-1 -1 $-1 $-1 $93 $44 #
plane-surface $-1 -1 $-1 513.07999999999993 -380.57401540585874 595.73529198239748 0 -0.93969262078590876 0.34202014332566788 0 -0.34202014332566788 -0.93969262078590876 forward_v I I I I #
model_id-kcp-attrib $-1 -1 $-1 $-1 $46 1 1021498078 1021498078 612302849 4 #
face $94 -1 $-1 $95 $96 $10 $-1 $97 forward single #
loop $-1 -1 $-1 $-1 $98 $46 #
plane-surface $-1 -1 $-1 50.799999999999997 914.39999999999998 -572.07799053877466 0 -1 0 0 0 25.399999999999999 forward_v I I I I #
coedge $-1 -1 $-1 $99 $72 $100 $101 forward $47 $-1 #
coedge $-1 -1 $-1 $102 $49 $103 $104 reversed $38 $-1 #
coedge $-1 -1 $-1 $49 $105 $106 $107 reversed $38 $-1 #
coedge $-1 -1 $-1 $69 $108 $49 $73 forward $47 $-1 #
edge $109 -1 $-1 $110 0 $111 32.828301746664273 $49 $112 forward @7 unknown #
face $-1 -1 $-1 $113 $114 $28 $-1 $115 forward single #
loop $-1 -1 $-1 $-1 $116 $50 #
plane-surface $-1 -1 $-1 513.07999999999993 -315.57611388427432 -572.07799053877466 0 0 -1 -1 0 0 forward_v I I I I #
coedge $-1 -1 $-1 $117 $118 $119 $120 forward $51 $-1 #
face $-1 -1 $-1 $121 $122 $30 $-1 $123 reversed single #
loop $-1 -1 $-1 $-1 $124 $53 #
plane-surface $-1 -1 $-1 513.07999999999993 0 0 -1 0 0 0 0 1 forward_v I I I I #
coedge $-1 -1 $-1 $125 $126 $127 $128 forward $54 $-1 #
face $-1 -1 $-1 $129 $130 $32 $-1 $131 forward single #
loop $-1 -1 $-1 $-1 $132 $56 #
plane-surface $-1 -1 $-1 -513.07999999999993 0 0 1 0 0 0 0 -1 forward_v I I I I #
coedge $-1 -1 $-1 $133 $134 $135 $136 forward $57 $-1 #
face $137 -1 $-1 $138 $139 $33 $-1 $140 reversed single #
loop $-1 -1 $-1 $-1 $141 $59 #
plane-surface $-1 -1 $-1 0 0 -572.07799053877466 0 0 1 1 0 0 forward_v I I I I #
coedge $-1 -1 $-1 $142 $143 $144 $145 forward $60 $-1 #
face $-1 -1 $-1 $146 $147 $35 $-1 $148 forward single #
loop $-1 -1 $-1 $-1 $149 $62 #
plane-surface $-1 -1 $-1 -513.07999999999993 -315.57611388427438 355.60000000000002 -1 0 0 0 0 1 forward_v I I I I #
coedge $-1 -1 $-1 $150 $151 $152 $153 forward $63 $-1 #
model_id-kcp-attrib $-1 -1 $-1 $-1 $66 1 1021498078 1021498078 612302849 5 #
face $154 -1 $-1 $155 $156 $10 $-1 $157 forward single #
loop $-1 -1 $-1 $-1 $158 $66 #
plane-surface $-1 -1 $-1 50.799999999999997 914.39999999999998 -355.59999999999997 0 0 -1 0 -25.399999999999999 0 forward_v I I I I #
coedge $-1 -1 $-1 $159 $106 $160 $161 forward $67 $-1 #
coedge $-1 -1 $-1 $108 $69 $162 $163 reversed $47 $-1 #
coedge $-1 -1 $-1 $106 $159 $69 $101 reversed $67 $-1 #
edge $164 -1 $-1 $111 0 $165 40.399999999999999 $100 $166 forward @7 unknown #
coedge $-1 -1 $-1 $167 $70 $168 $169 reversed $38 $-1 #
coedge $-1 -1 $-1 $170 $171 $70 $104 forward $172 $-1 #
edge $173 -1 $-1 $174 0 $110 22.589630128980474 $70 $175 forward @7 unknown #
coedge $-1 -1 $-1 $71 $176 $177 $178 reversed $38 $-1 #
coedge $-1 -1 $-1 $98 $100 $71 $107 forward $67 $-1 #
edge $179 -1 $-1 $111 0 $180 8.5227555330226252 $71 $181 forward @7 unknown #
coedge $-1 -1 $-1 $72 $99 $170 $182 reversed $47 $-1 #
attrib_edge_convexity-kcp-attrib $-1 -1 $183 $-1 $73 1 #
vertex $-1 -1 $-1 $104 $184 #
vertex $-1 -1 $-1 $107 $185 #
straight-curve $-1 -1 $-1 50.799999999999997 1697.9522277685487 -286.88830263805198 0 -23.86819256796208 -8.6873116404719628 I I #
face $-1 -1 $-1 $186 $187 $28 $-1 $188 forward single #
loop $-1 -1 $-1 $-1 $189 $74 #
plane-surface $-1 -1 $-1 -513.07999999999993 -315.57611388427432 -572.07799053877466 -1 0 0 0 0 1 forward_v I I I I #
coedge $-1 -1 $-1 $190 $191 $192 $193 forward $75 $-1 #
coedge $-1 -1 $-1 $194 $77 $191 $195 reversed $51 $-1 #
coedge $-1 -1 $-1 $77 $194 $196 $197 forward $51 $-1 #
coedge $-1 -1 $-1 $198 $192 $77 $120 reversed $199 $-1 #
edge $-1 -1 $-1 $200 123.6805023653063 $201 340.15849290408107 $77 $202 forward @7 unknown #
face $-1 -1 $-1 $203 $204 $30 $-1 $205 forward single #
loop $-1 -1 $-1 $-1 $127 $78 #
plane-surface $-1 -1 $-1 0 0 -572.07799053877466 0 0 1 1 0 0 forward_v I I I I #
coedge $-1 -1 $-1 $206 $207 $125 $208 reversed $79 $-1 #
coedge $-1 -1 $-1 $209 $81 $124 $208 forward $54 $-1 #
coedge $-1 -1 $-1 $81 $209 $210 $211 forward $54 $-1 #
coedge $-1 -1 $-1 $212 $213 $81 $128 reversed $122 $-1 #
edge $214 -1 $-1 $215 -513.07999999999993 $216 513.07999999999993 $127 $217 forward @7 unknown #
face $-1 -1 $-1 $218 $219 $32 $-1 $220 reversed single #
loop $-1 -1 $-1 $-1 $135 $82 #
plane-surface $-1 -1 $-1 0 0 572.07799053877466 0 0 1 1 0 0 forward_v I I I I #
coedge $-1 -1 $-1 $221 $222 $133 $223 reversed $83 $-1 #
coedge $-1 -1 $-1 $224 $85 $132 $223 forward $57 $-1 #
coedge $-1 -1 $-1 $85 $224 $225 $226 forward $57 $-1 #
coedge $-1 -1 $-1 $227 $228 $85 $136 reversed $130 $-1 #
edge $229 -1 $-1 $230 -513.07999999999993 $231 513.07999999999993 $135 $232 forward @7 unknown #
model_id-kcp-attrib $-1 -1 $-1 $-1 $86 1 1021498078 1021498078 612958210 3 #
face $233 -1 $-1 $234 $235 $33 $-1 $236 reversed single #
loop $-1 -1 $-1 $-1 $237 $86 #
plane-surface $-1 -1 $-1 0 -467.97611388427435 0 0 1 0 0 0 1 forward_v I I I I #
coedge $-1 -1 $-1 $238 $239 $240 $241 forward $87 $-1 #
coedge $-1 -1 $-1 $242 $89 $243 $244 forward $60 $-1 #
coedge $-1 -1 $-1 $89 $242 $245 $246 forward $60 $-1 #
coedge $-1 -1 $-1 $247 $248 $89 $145 reversed $249 $-1 #
edge $-1 -1 $-1 $250 -467.97611388427435 $251 467.97611388427435 $144 $252 forward @7 unknown #
face $-1 -1 $-1 $253 $254 $35 $-1 $255 forward single #
loop $-1 -1 $-1 $-1 $152 $90 #
plane-surface $-1 -1 $-1 -513.07999999999993 -315.57611388427432 572.07799053877466 0 0 1 1 0 0 forward_v I I I I #
coedge $-1 -1 $-1 $256 $257 $150 $258 reversed $91 $-1 #
coedge $-1 -1 $-1 $259 $93 $149 $258 forward $63 $-1 #
coedge $-1 -1 $-1 $93 $259 $260 $261 forward $63 $-1 #
coedge $-1 -1 $-1 $262 $263 $93 $153 reversed $147 $-1 #
edge $-1 -1 $-1 $264 -513.07999999999993 $265 513.07999999999993 $152 $266 forward @7 unknown #
model_id-kcp-attrib $-1 -1 $-1 $-1 $95 1 1021498078 1021498078 612302849 6 #
face $267 -1 $-1 $268 $269 $10 $-1 $270 forward single #
loop $-1 -1 $-1 $-1 $271 $95 #
plane-surface $-1 -1 $-1 50.799999999999997 762 -355.59999999999997 0 -1 0 0 0 25.399999999999999 forward_v I I I I #
coedge $-1 -1 $-1 $272 $177 $273 $274 forward $96 $-1 #
coedge $-1 -1 $-1 $100 $98 $275 $276 reversed $67 $-1 #
coedge $-1 -1 $-1 $177 $272 $98 $161 reversed $96 $-1 #
edge $277 -1 $-1 $180 0 $278 40.399999999999999 $98 $279 forward @7 unknown #
coedge $-1 -1 $-1 $275 $280 $99 $163 forward $281 $-1 #
edge $282 -1 $-1 $283 0 $165 32.828301746664273 $162 $284 forward @7 unknown #
attrib_edge_convexity-kcp-attrib $-1 -1 $285 $-1 $101 1 #
vertex $-1 -1 $-1 $276 $286 #
straight-curve $-1 -1 $-1 50.799999999999997 914.40000000000009 -572.07799053877454 -25.399999999999999 0 0 I I #
coedge $-1 -1 $-1 $287 $102 $288 $289 reversed $38 $-1 #
coedge $-1 -1 $-1 $290 $291 $102 $169 forward $292 $-1 #
edge $293 -1 $-1 $294 0 $174 32.828301746664266 $102 $295 forward @7 unknown #
coedge $-1 -1 $-1 $296 $103 $108 $182 forward $172 $-1 #
coedge $-1 -1 $-1 $103 $296 $290 $297 reversed $172 $-1 #
loop $-1 -1 $-1 $-1 $170 $298 #
attrib_edge_convexity-kcp-attrib $-1 -1 $299 $-1 $104 1 #
vertex $-1 -1 $-1 $169 $300 #
straight-curve $-1 -1 $-1 50.799999999999997 1697.9522277685487 286.88830263805193 0 0 -25.399999999999999 I I #
coedge $-1 -1 $-1 $105 $287 $301 $302 reversed $38 $-1 #
coedge $-1 -1 $-1 $158 $160 $105 $178 forward $96 $-1 #
edge $303 -1 $-1 $180 0 $304 5.9999999999999991 $105 $305 forward @7 unknown #
attrib_edge_convexity-kcp-attrib $-1 -1 $306 $-1 $107 1 #
vertex $-1 -1 $-1 $107 $307 #
straight-curve $-1 -1 $-1 50.799999999999997 914.39999999999998 -572.07799053877466 0 0 25.399999999999999 I I #
edge $308 -1 $-1 $110 0 $283 40.399999999999999 $170 $309 forward @7 unknown #
convexity-sys-attrib $-1 -1 $-1 $109 $73 #
point $-1 -1 $-1 50.799999999999997 1697.9522277685487 -286.88830263805198 #
point $-1 -1 $-1 50.799999999999997 914.39999999999998 -572.07799053877466 #
face $-1 -1 $-1 $310 $199 $28 $-1 $311 reversed single #
loop $-1 -1 $-1 $-1 $312 $113 #
plane-surface $-1 -1 $-1 -513.07999999999993 -315.57611388427438 -355.59999999999991 0 0 1 1 0 0 forward_v I I I I #
coedge $-1 -1 $-1 $313 $314 $315 $316 forward $114 $-1 #
coedge $-1 -1 $-1 $317 $116 $314 $318 reversed $75 $-1 #
coedge $-1 -1 $-1 $116 $317 $117 $195 forward $75 $-1 #
coedge $-1 -1 $-1 $119 $315 $116 $193 reversed $199 $-1 #
edge $-1 -1 $-1 $201 -513.07999999999993 $319 513.07999999999993 $116 $320 forward @7 unknown #
coedge $-1 -1 $-1 $118 $117 $321 $322 reversed $51 $-1 #
edge $-1 -1 $-1 $323 0 $201 152.39999999999998 $191 $324 forward @7 unknown #
coedge $-1 -1 $-1 $325 $312 $118 $197 reversed $187 $-1 #
edge $-1 -1 $-1 $326 0 $200 152.39999999999998 $118 $327 forward @7 unknown #
coedge $-1 -1 $-1 $315 $119 $312 $328 reversed $199 $-1 #
loop $-1 -1 $-1 $-1 $119 $186 #
vertex $-1 -1 $-1 $197 $329 #
vertex $-1 -1 $-1 $195 $330 #
straight-curve $-1 -1 $-1 513.07999999999993 -467.97611388427447 -231.91949763469361 0 0 -1 I I #
face $-1 -1 $-1 $-1 $331 $30 $-1 $332 reversed single #
loop $-1 -1 $-1 $-1 $333 $121 #
plane-surface $-1 -1 $-1 -513.07999999999993 652.38436018401603 219.76919003171588 0 0.93969262078590876 -0.34202014332566788 0 0.34202014332566788 0.93969262078590876 forward_v I I I I #
coedge $-1 -1 $-1 $207 $124 $213 $334 reversed $79 $-1 #
coedge $-1 -1 $-1 $124 $206 $335 $336 forward $79 $-1 #
edge $337 -1 $-1 $216 -454.56308700675714 $338 379.2757773585152 $124 $339 forward @7 unknown #
coedge $-1 -1 $-1 $126 $125 $333 $340 forward $54 $-1 #
coedge $-1 -1 $-1 $341 $342 $126 $211 reversed $331 $-1 #
edge $343 -1 $-1 $344 -379.2757773585152 $215 454.56308700675714 $210 $345 forward @7 unknown #
coedge $-1 -1 $-1 $346 $127 $342 $347 forward $122 $-1 #
coedge $-1 -1 $-1 $127 $346 $206 $334 forward $122 $-1 #
convexity-sys-attrib $-1 -1 $-1 $-1 $128 #
vertex $-1 -1 $-1 $347 $348 #
vertex $-1 -1 $-1 $128 $349 #
straight-curve $-1 -1 $-1 0 -315.57611388427443 -572.07799053877466 1 0 0 I I #
face $-1 -1 $-1 $-1 $350 $32 $-1 $351 reversed single #
loop $-1 -1 $-1 $-1 $352 $129 #
plane-surface $-1 -1 $-1 0 467.97611388427435 0 0 -1 0 0 0 -1 forward_v I I I I #
coedge $-1 -1 $-1 $222 $132 $228 $353 reversed $83 $-1 #
coedge $-1 -1 $-1 $132 $221 $354 $355 forward $83 $-1 #
edge $356 -1 $-1 $231 -454.56308700675714 $357 379.27577735851526 $132 $358 forward @7 unknown #
coedge $-1 -1 $-1 $134 $133 $352 $359 forward $57 $-1 #
coedge $-1 -1 $-1 $360 $361 $134 $226 reversed $350 $-1 #
edge $362 -1 $-1 $363 -379.27577735851526 $230 454.56308700675714 $225 $364 forward @7 unknown #
coedge $-1 -1 $-1 $365 $135 $361 $366 forward $130 $-1 #
coedge $-1 -1 $-1 $135 $365 $221 $353 forward $130 $-1 #
convexity-sys-attrib $-1 -1 $-1 $-1 $136 #
vertex $-1 -1 $-1 $366 $367 #
vertex $-1 -1 $-1 $136 $368 #
straight-curve $-1 -1 $-1 0 -315.57611388427443 572.07799053877466 -1 0 0 I I #
model_id-kcp-attrib $-1 -1 $-1 $-1 $138 1 1021498078 1021498078 612958210 5 #
face $369 -1 $-1 $370 $371 $33 $-1 $372 reversed single #
loop $-1 -1 $-1 $-1 $373 $138 #
plane-surface $-1 -1 $-1 -513.07999999999993 0 0 1 0 0 0 0 -1 forward_v I I I I #
coedge $-1 -1 $-1 $374 $245 $375 $376 forward $139 $-1 #
coedge $-1 -1 $-1 $377 $141 $374 $378 forward $87 $-1 #
coedge $-1 -1 $-1 $141 $377 $379 $380 forward $87 $-1 #
coedge $-1 -1 $-1 $248 $247 $141 $241 reversed $249 $-1 #
edge $-1 -1 $-1 $381 -467.97611388427435 $382 467.97611388427435 $240 $383 forward @7 unknown #
coedge $-1 -1 $-1 $143 $142 $384 $385 forward $60 $-1 #
coedge $-1 -1 $-1 $386 $387 $142 $244 reversed $371 $-1 #
edge $-1 -1 $-1 $251 -513.07999999999993 $388 513.07999999999993 $243 $389 forward @7 unknown #
coedge $-1 -1 $-1 $237 $390 $143 $246 reversed $139 $-1 #
edge $-1 -1 $-1 $391 -513.07999999999993 $250 513.07999999999993 $245 $392 forward @7 unknown #
coedge $-1 -1 $-1 $240 $144 $390 $393 forward $249 $-1 #
coedge $-1 -1 $-1 $144 $240 $386 $394 reversed $249 $-1 #
loop $-1 -1 $-1 $-1 $247 $370 #
vertex $-1 -1 $-1 $145 $395 #
vertex $-1 -1 $-1 $145 $396 #
straight-curve $-1 -1 $-1 513.07999999999993 0 572.07799053877466 0 1 0 I I #
face $-1 -1 $-1 $397 $398 $35 $-1 $399 forward single #
loop $-1 -1 $-1 $-1 $260 $146 #
plane-surface $-1 -1 $-1 513.07999999999993 -315.57611388427432 572.07799053877466 1 0 0 0 0 -1 forward_v I I I I #
coedge $-1 -1 $-1 $400 $149 $263 $401 reversed $91 $-1 #
coedge $-1 -1 $-1 $149 $400 $402 $403 forward $91 $-1 #
edge $-1 -1 $-1 $265 -76.53581078285859 $404 153.83525497875604 $149 $405 forward @7 unknown #
coedge $-1 -1 $-1 $151 $150 $406 $407 reversed $63 $-1 #
coedge $-1 -1 $-1 $408 $409 $151 $261 reversed $254 $-1 #
edge $-1 -1 $-1 $410 -255.54664011468023 $264 -25.175574353065606 $260 $411 forward @7 unknown #
coedge $-1 -1 $-1 $412 $152 $409 $413 reversed $147 $-1 #
coedge $-1 -1 $-1 $152 $412 $256 $401 forward $147 $-1 #
vertex $-1 -1 $-1 $153 $414 #
vertex $-1 -1 $-1 $258 $415 #
straight-curve $-1 -1 $-1 0 -389.18456895440022 572.07799053877466 -1 0 0 I I #
model_id-kcp-attrib $-1 -1 $-1 $-1 $155 1 1021498078 1021498078 612302849 7 #
face $416 -1 $-1 $417 $418 $10 $-1 $419 forward single #
loop $-1 -1 $-1 $-1 $420 $155 #
plane-surface $-1 -1 $-1 50.799999999999997 762 355.59999999999997 0 0 1 0 25.399999999999999 0 forward_v I I I I #
coedge $-1 -1 $-1 $421 $301 $422 $423 forward $156 $-1 #
coedge $-1 -1 $-1 $160 $158 $424 $425 reversed $96 $-1 #
coedge $-1 -1 $-1 $301 $421 $158 $274 reversed $156 $-1 #
edge $426 -1 $-1 $304 0 $427 40.399999999999999 $158 $428 forward @7 unknown #
coedge $-1 -1 $-1 $424 $162 $159 $276 forward $281 $-1 #
edge $429 -1 $-1 $165 0 $278 8.5227555330226252 $275 $430 forward @7 unknown #
attrib_edge_convexity-kcp-attrib $-1 -1 $431 $-1 $161 2 #
vertex $-1 -1 $-1 $276 $432 #
straight-curve $-1 -1 $-1 50.799999999999997 914.39999999999998 -355.59999999999997 -25.399999999999999 0 0 I I #
coedge $-1 -1 $-1 $162 $433 $296 $434 forward $281 $-1 #
loop $-1 -1 $-1 $-1 $424 $435 #
attrib_edge_convexity-kcp-attrib $-1 -1 $436 $-1 $163 1 #
vertex $-1 -1 $-1 $163 $437 #
straight-curve $-1 -1 $-1 -975.3599999999999 1697.9522277685487 -286.88830263805198 0 -23.86819256796208 -8.6873116404719628 I I #
convexity-sys-attrib $-1 -1 $-1 $164 $101 #
point $-1 -1 $-1 -975.3599999999999 914.39999999999998 -572.07799053877466 #
coedge $-1 -1 $-1 $176 $167 $438 $439 reversed $38 $-1 #
coedge $-1 -1 $-1 $440 $441 $167 $289 forward $418 $-1 #
edge $442 -1 $-1 $443 0 $294 8.5227555330226217 $167 $444 forward @7 unknown #
coedge $-1 -1 $-1 $445 $168 $171 $297 forward $292 $-1 #
coedge $-1 -1 $-1 $168 $445 $440 $446 reversed $292 $-1 #
loop $-1 -1 $-1 $-1 $290 $417 #
attrib_edge_convexity-kcp-attrib $-1 -1 $447 $-1 $169 1 #
vertex $-1 -1 $-1 $289 $448 #
straight-curve $-1 -1 $-1 50.799999999999997 914.39999999999998 572.07799053877454 0 23.86819256796208 -8.687311640471961 I I #
coedge $-1 -1 $-1 $171 $170 $280 $434 reversed $172 $-1 #
edge $449 -1 $-1 $174 0 $450 40.399999999999999 $290 $451 forward @7 unknown #
face $452 -1 $-1 $435 $172 $10 $-1 $453 forward single #
convexity-sys-attrib $-1 -1 $-1 $173 $104 #
point $-1 -1 $-1 50.799999999999997 1697.9522277685487 286.88830263805193 #
coedge $-1 -1 $-1 $271 $273 $176 $302 forward $156 $-1 #
edge $454 -1 $-1 $304 0 $455 28 $176 $456 forward @7 unknown #
attrib_edge_convexity-kcp-attrib $-1 -1 $457 $-1 $178 1 #
vertex $-1 -1 $-1 $178 $458 #
straight-curve $-1 -1 $-1 50.799999999999997 914.39999999999998 -355.59999999999997 0 -25.399999999999999 0 I I #
convexity-sys-attrib $-1 -1 $-1 $179 $107 #
point $-1 -1 $-1 50.799999999999997 914.39999999999998 -355.59999999999997 #
attrib_edge_convexity-kcp-attrib $-1 -1 $459 $-1 $182 1 #
straight-curve $-1 -1 $-1 50.799999999999997 1697.9522277685487 -286.88830263805198 -25.399999999999999 0 0 I I #
face $-1 -1 $-1 $-1 $460 $28 $-1 $461 forward single #
plane-surface $-1 -1 $-1 0 -467.97611388427435 -463.83899526938711 -4.1339032739946885e-018 1 1.9595738915926842e-016 0 -1.9595738915926842e-016 1 forward_v I I I I #
coedge $-1 -1 $-1 $196 $462 $198 $328 forward $187 $-1 #
coedge $-1 -1 $-1 $463 $189 $462 $464 reversed $114 $-1 #
coedge $-1 -1 $-1 $189 $463 $190 $318 forward $114 $-1 #
coedge $-1 -1 $-1 $192 $198 $189 $316 reversed $199 $-1 #
edge $-1 -1 $-1 $319 -340.15849290408107 $465 -123.6805023653063 $189 $466 forward @7 unknown #
coedge $-1 -1 $-1 $191 $190 $467 $468 forward $75 $-1 #
edge $-1 -1 $-1 $469 0 $319 152.39999999999998 $314 $470 forward @7 unknown #
vertex $-1 -1 $-1 $318 $471 #
straight-curve $-1 -1 $-1 0 -467.97611388427441 -572.07799053877466 -1 0 0 I I #
coedge $-1 -1 $-1 $467 $472 $194 $322 forward $460 $-1 #
edge $473 -1 $-1 $326 123.6805023653063 $323 340.15849290408107 $194 $474 forward @7 unknown #
vertex $-1 -1 $-1 $322 $475 #
straight-curve $-1 -1 $-1 513.07999999999993 -315.57611388427432 -572.07799053877466 0 -1 0 I I #
coedge $-1 -1 $-1 $462 $196 $472 $476 reversed $187 $-1 #
vertex $-1 -1 $-1 $476 $477 #
straight-curve $-1 -1 $-1 513.07999999999993 -315.57611388427438 -355.59999999999991 0 -1 0 I I #
edge $-1 -1 $-1 $465 -769.61999999999989 $200 256.53999999999996 $312 $478 forward @7 unknown #
point $-1 -1 $-1 513.07999999999993 -467.97611388427435 -355.59999999999991 #
point $-1 -1 $-1 513.07999999999993 -467.9761138842743 -572.07799053877466 #
loop $-1 -1 $-1 $-1 $210 $203 #
plane-surface $-1 -1 $-1 -513.07999999999993 0 0 1 0 0 0 0 -1 forward_v I I I I #
coedge $-1 -1 $-1 $335 $479 $209 $340 reversed $204 $-1 #
edge $-1 -1 $-1 $480 -364.17555636874363 $216 315.57611388427432 $206 $481 forward @7 unknown #
coedge $-1 -1 $-1 $482 $333 $207 $336 reversed $204 $-1 #
edge $-1 -1 $-1 $480 -627.8441294996054 $338 -324.35160269631405 $207 $483 forward @7 unknown #
convexity-sys-attrib $-1 -1 $-1 $-1 $208 #
vertex $-1 -1 $-1 $336 $484 #
straight-curve $-1 -1 $-1 513.07999999999993 111.57346465763834 -416.60825837016557 0 0.93969262078590876 0.34202014332566788 I I #
edge $485 -1 $-1 $338 -769.61999999999989 $344 256.53999999999996 $333 $486 forward @7 unknown #
coedge $-1 -1 $-1 $342 $210 $479 $487 forward $331 $-1 #
coedge $-1 -1 $-1 $210 $341 $212 $347 reversed $331 $-1 #
convexity-sys-attrib $-1 -1 $-1 $-1 $211 #
vertex $-1 -1 $-1 $340 $488 #
straight-curve $-1 -1 $-1 -513.07999999999993 111.57346465763834 -416.60825837016557 0 -0.93969262078590876 -0.34202014332566788 I I #
coedge $-1 -1 $-1 $213 $212 $482 $489 forward $122 $-1 #
edge $-1 -1 $-1 $215 -315.57611388427432 $490 364.17555636874363 $342 $491 forward @7 unknown #
point $-1 -1 $-1 -513.07999999999993 -315.57611388427432 -572.07799053877466 #
point $-1 -1 $-1 513.07999999999993 -315.57611388427432 -572.07799053877466 #
loop $-1 -1 $-1 $-1 $225 $218 #
plane-surface $-1 -1 $-1 513.07999999999993 0 0 -1 0 0 0 0 1 forward_v I I I I #
coedge $-1 -1 $-1 $354 $492 $224 $359 reversed $219 $-1 #
edge $-1 -1 $-1 $493 -467.97611388427435 $231 315.57611388427432 $221 $494 forward @7 unknown #
coedge $-1 -1 $-1 $495 $352 $222 $355 reversed $219 $-1 #
edge $-1 -1 $-1 $493 -572.07799053877466 $357 -286.88830263805204 $354 $496 forward @7 unknown #
convexity-sys-attrib $-1 -1 $-1 $-1 $223 #
vertex $-1 -1 $-1 $223 $497 #
straight-curve $-1 -1 $-1 -513.07999999999993 111.57346465763834 416.60825837016557 0 0.93969262078590876 -0.34202014332566788 I I #
edge $498 -1 $-1 $357 -513.07999999999993 $363 513.07999999999993 $352 $499 forward @7 unknown #
coedge $-1 -1 $-1 $361 $225 $492 $500 reversed $350 $-1 #
coedge $-1 -1 $-1 $225 $360 $227 $366 reversed $350 $-1 #
convexity-sys-attrib $-1 -1 $-1 $-1 $226 #
vertex $-1 -1 $-1 $226 $501 #
straight-curve $-1 -1 $-1 513.07999999999993 111.57346465763834 416.60825837016557 0 -0.93969262078590876 0.34202014332566788 I I #
coedge $-1 -1 $-1 $228 $227 $495 $502 forward $130 $-1 #
edge $-1 -1 $-1 $230 -315.57611388427432 $503 467.97611388427435 $361 $504 forward @7 unknown #
point $-1 -1 $-1 513.07999999999993 -315.57611388427432 572.07799053877466 #
point $-1 -1 $-1 -513.07999999999993 -315.57611388427432 572.07799053877466 #
model_id-kcp-attrib $-1 -1 $-1 $-1 $234 1 1021498078 1021498078 612958210 4 #
face $505 -1 $-1 $-1 $249 $33 $-1 $506 reversed single #
loop $-1 -1 $-1 $-1 $386 $234 #
plane-surface $-1 -1 $-1 0 467.97611388427435 0 0 -1 0 0 0 -1 forward_v I I I I #
coedge $-1 -1 $-1 $507 $384 $387 $508 forward $235 $-1 #
coedge $-1 -1 $-1 $390 $237 $238 $378 reversed $139 $-1 #
coedge $-1 -1 $-1 $384 $507 $237 $376 reversed $235 $-1 #
edge $-1 -1 $-1 $391 -572.07799053877466 $509 572.07799053877466 $375 $510 forward @7 unknown #
coedge $-1 -1 $-1 $239 $238 $507 $511 forward $87 $-1 #
edge $-1 -1 $-1 $382 -513.07999999999993 $509 513.07999999999993 $374 $512 forward @7 unknown #
coedge $-1 -1 $-1 $387 $386 $239 $380 reversed $371 $-1 #
edge $-1 -1 $-1 $513 -513.07999999999993 $381 513.07999999999993 $379 $514 forward @7 unknown #
vertex $-1 -1 $-1 $241 $515 #
vertex $-1 -1 $-1 $393 $516 #
straight-curve $-1 -1 $-1 513.07999999999993 0 -572.07799053877466 0 -1 0 I I #
coedge $-1 -1 $-1 $373 $375 $242 $385 reversed $235 $-1 #
edge $-1 -1 $-1 $388 -467.97611388427435 $391 467.97611388427435 $384 $517 forward @7 unknown #
coedge $-1 -1 $-1 $379 $243 $248 $394 forward $371 $-1 #
coedge $-1 -1 $-1 $243 $379 $373 $508 reversed $371 $-1 #
vertex $-1 -1 $-1 $244 $518 #
straight-curve $-1 -1 $-1 0 467.97611388427435 572.07799053877466 -1 0 0 I I #
coedge $-1 -1 $-1 $245 $374 $247 $393 reversed $139 $-1 #
vertex $-1 -1 $-1 $385 $519 #
straight-curve $-1 -1 $-1 0 -467.97611388427435 572.07799053877466 1 0 0 I I #
edge $-1 -1 $-1 $250 -572.07799053877466 $382 572.07799053877466 $247 $520 forward @7 unknown #
edge $-1 -1 $-1 $251 -572.07799053877466 $381 572.07799053877466 $248 $521 forward @7 unknown #
point $-1 -1 $-1 513.07999999999993 -467.97611388427435 572.07799053877466 #
point $-1 -1 $-1 513.07999999999993 467.97611388427435 572.07799053877466 #
face $-1 -1 $-1 $-1 $522 $35 $-1 $523 forward single #
loop $-1 -1 $-1 $-1 $406 $253 #
plane-surface $-1 -1 $-1 513.07999999999993 -315.57611388427438 355.60000000000002 0 0 -1 -1 0 0 forward_v I I I I #
coedge $-1 -1 $-1 $257 $256 $524 $525 reversed $91 $-1 #
edge $-1 -1 $-1 $526 0 $265 73.608455070125956 $263 $527 forward @7 unknown #
coedge $-1 -1 $-1 $528 $406 $257 $403 reversed $398 $-1 #
edge $-1 -1 $-1 $529 0 $404 152.39999999999998 $257 $530 forward @7 unknown #
vertex $-1 -1 $-1 $403 $531 #
straight-curve $-1 -1 $-1 -513.07999999999981 -415.3613579278998 500.15785392025589 0 -0.34202014332566788 -0.93969262078590876 I I #
coedge $-1 -1 $-1 $402 $532 $259 $407 forward $398 $-1 #
edge $-1 -1 $-1 $410 -256.53999999999996 $404 769.61999999999989 $406 $533 forward @7 unknown #
coedge $-1 -1 $-1 $534 $260 $532 $535 reversed $254 $-1 #
coedge $-1 -1 $-1 $260 $534 $262 $413 forward $254 $-1 #
vertex $-1 -1 $-1 $535 $536 #
straight-curve $-1 -1 $-1 513.07999999999993 -380.57401540585874 595.73529198239737 0 0.34202014332566788 0.93969262078590876 I I #
coedge $-1 -1 $-1 $263 $262 $537 $538 forward $147 $-1 #
edge $-1 -1 $-1 $539 0 $264 73.608455070125956 $409 $540 forward @7 unknown #
point $-1 -1 $-1 513.07999999999993 -389.18456895440028 572.07799053877466 #
point $-1 -1 $-1 -513.07999999999993 -389.18456895440028 572.07799053877466 #
model_id-kcp-attrib $-1 -1 $-1 $-1 $268 1 1021498078 1021498078 612302849 8 #
face $541 -1 $-1 $298 $292 $10 $-1 $542 forward single #
loop $-1 -1 $-1 $-1 $440 $268 #
plane-surface $-1 -1 $-1 50.799999999999997 914.39999999999998 355.59999999999997 0 -1 0 0 0 25.399999999999999 forward_v I I I I #
coedge $-1 -1 $-1 $543 $438 $441 $544 forward $269 $-1 #
coedge $-1 -1 $-1 $273 $271 $545 $546 reversed $156 $-1 #
coedge $-1 -1 $-1 $438 $543 $271 $423 reversed $269 $-1 #
edge $547 -1 $-1 $455 0 $548 40.399999999999999 $271 $549 forward @7 unknown #
coedge $-1 -1 $-1 $545 $275 $272 $425 forward $281 $-1 #
edge $550 -1 $-1 $278 0 $427 5.9999999999999991 $424 $551 forward @7 unknown #
attrib_edge_convexity-kcp-attrib $-1 -1 $552 $-1 $274 1 #
vertex $-1 -1 $-1 $546 $553 #
straight-curve $-1 -1 $-1 50.799999999999997 762 -355.59999999999997 -25.399999999999999 0 0 I I #
attrib_edge_convexity-kcp-attrib $-1 -1 $554 $-1 $276 1 #
straight-curve $-1 -1 $-1 -975.3599999999999 914.39999999999998 -572.07799053877466 0 0 25.399999999999999 I I #
convexity-sys-attrib $-1 -1 $-1 $277 $161 #
point $-1 -1 $-1 -975.3599999999999 914.39999999999998 -355.59999999999997 #
coedge $-1 -1 $-1 $280 $555 $445 $556 forward $281 $-1 #
edge $-1 -1 $-1 $450 0 $283 22.589630128980474 $280 $557 forward @7 unknown #
face $558 -1 $-1 $-1 $281 $10 $-1 $559 forward single #
convexity-sys-attrib $-1 -1 $-1 $282 $163 #
point $-1 -1 $-1 -975.3599999999999 1697.9522277685487 -286.88830263805198 #
coedge $-1 -1 $-1 $420 $422 $287 $439 forward $269 $-1 #
edge $560 -1 $-1 $455 0 $443 5.9999999999999991 $287 $561 forward @7 unknown #
coedge $-1 -1 $-1 $562 $288 $291 $446 forward $418 $-1 #
coedge $-1 -1 $-1 $288 $562 $420 $544 reversed $418 $-1 #
attrib_edge_convexity-kcp-attrib $-1 -1 $563 $-1 $289 1 #
vertex $-1 -1 $-1 $439 $564 #
straight-curve $-1 -1 $-1 50.799999999999997 914.39999999999998 355.59999999999997 0 0 25.399999999999999 I I #
coedge $-1 -1 $-1 $291 $290 $433 $556 reversed $292 $-1 #
edge $565 -1 $-1 $294 0 $566 40.399999999999999 $440 $567 forward @7 unknown #
convexity-sys-attrib $-1 -1 $-1 $293 $169 #
point $-1 -1 $-1 50.799999999999997 914.39999999999998 572.07799053877454 #
attrib_edge_convexity-kcp-attrib $-1 -1 $568 $-1 $297 1 #
vertex $-1 -1 $-1 $434 $569 #
straight-curve $-1 -1 $-1 50.799999999999997 1697.9522277685487 286.88830263805198 -25.399999999999999 0 0 I I #
model_id-kcp-attrib $-1 -1 $-1 $-1 $298 1 1021498078 1021498078 612302849 10 #
plane-surface $-1 -1 $-1 50.799999999999997 1697.9522277685487 286.88830263805193 0 1 0 0 0 -25.399999999999999 forward_v I I I I #
attrib_edge_convexity-kcp-attrib $-1 -1 $570 $-1 $302 1 #
vertex $-1 -1 $-1 $302 $571 #
straight-curve $-1 -1 $-1 50.799999999999997 762 -355.59999999999997 0 0 25.399999999999999 I I #
convexity-sys-attrib $-1 -1 $-1 $303 $178 #
point $-1 -1 $-1 50.799999999999997 762 -355.59999999999997 #
convexity-sys-attrib $-1 -1 $-1 $308 $182 #
loop $-1 -1 $-1 $-1 $472 $310 #
plane-surface $-1 -1 $-1 0 -315.57611388427438 -463.83899526938711 -4.1339032739946885e-018 1 1.9595738915926842e-016 0 -1.9595738915926842e-016 1 forward_v I I I I #
coedge $-1 -1 $-1 $312 $325 $313 $464 forward $187 $-1 #
coedge $-1 -1 $-1 $314 $313 $572 $573 reversed $114 $-1 #
edge $-1 -1 $-1 $574 0 $465 152.39999999999998 $462 $575 forward @7 unknown #
vertex $-1 -1 $-1 $464 $576 #
straight-curve $-1 -1 $-1 -513.07999999999993 -467.97611388427447 -231.91949763469361 0 0 1 I I #
coedge $-1 -1 $-1 $572 $321 $317 $468 reversed $460 $-1 #
edge $577 -1 $-1 $469 -513.07999999999993 $323 513.07999999999993 $317 $578 forward @7 unknown #
vertex $-1 -1 $-1 $468 $579 #
straight-curve $-1 -1 $-1 -513.07999999999993 -315.57611388427432 -572.07799053877466 0 -1 0 I I #
point $-1 -1 $-1 -513.07999999999993 -467.9761138842743 -572.07799053877466 #
coedge $-1 -1 $-1 $321 $572 $325 $476 forward $460 $-1 #
convexity-sys-attrib $-1 -1 $-1 $-1 $322 #
straight-curve $-1 -1 $-1 513.07999999999993 -315.57611388427449 -231.91949763469361 0 0 -1 I I #
point $-1 -1 $-1 513.07999999999993 -315.57611388427432 -572.07799053877466 #
edge $580 -1 $-1 $574 -769.61999999999989 $326 256.53999999999996 $325 $581 forward @7 unknown #
point $-1 -1 $-1 513.07999999999993 -315.57611388427438 -355.59999999999991 #
straight-curve $-1 -1 $-1 256.53999999999996 -467.97611388427447 -355.59999999999991 1 0 0 I I #
coedge $-1 -1 $-1 $333 $482 $341 $487 reversed $204 $-1 #
vertex $-1 -1 $-1 $334 $582 #
straight-curve $-1 -1 $-1 513.07999999999993 0 -572.07799053877466 0 -1 0 I I #
coedge $-1 -1 $-1 $479 $335 $346 $489 reversed $204 $-1 #
straight-curve $-1 -1 $-1 513.07999999999981 578.91089552637777 17.90250495575691 0 0.34202014332566788 0.93969262078590876 I I #
point $-1 -1 $-1 513.07999999999993 467.97611388427435 -286.88830263805227 #
convexity-sys-attrib $-1 -1 $-1 $-1 $340 #
straight-curve $-1 -1 $-1 -256.53999999999996 467.97611388427435 -286.88830263805221 -1 0 0 I I #
edge $-1 -1 $-1 $344 324.35160269631405 $490 627.8441294996054 $341 $583 forward @7 unknown #
point $-1 -1 $-1 -513.07999999999993 467.97611388427435 -286.88830263805227 #
edge $-1 -1 $-1 $490 -256.53999999999996 $480 769.61999999999989 $346 $584 forward @7 unknown #
vertex $-1 -1 $-1 $487 $585 #
straight-curve $-1 -1 $-1 -513.07999999999993 0 -572.07799053877466 0 1 0 I I #
coedge $-1 -1 $-1 $352 $495 $360 $500 forward $219 $-1 #
vertex $-1 -1 $-1 $502 $586 #
straight-curve $-1 -1 $-1 -513.07999999999993 0 572.07799053877466 0 -1 0 I I #
coedge $-1 -1 $-1 $492 $354 $365 $502 reversed $219 $-1 #
straight-curve $-1 -1 $-1 -513.07999999999993 467.97611388427435 0 0 0 -1 I I #
point $-1 -1 $-1 -513.07999999999993 467.97611388427435 286.88830263805204 #
convexity-sys-attrib $-1 -1 $-1 $-1 $359 #
straight-curve $-1 -1 $-1 0 467.97611388427435 286.8883026380521 1 0 0 I I #
edge $-1 -1 $-1 $503 -572.07799053877466 $363 -286.88830263805204 $360 $587 forward @7 unknown #
point $-1 -1 $-1 513.07999999999993 467.97611388427435 286.88830263805204 #
edge $-1 -1 $-1 $503 -513.07999999999993 $493 513.07999999999993 $495 $588 forward @7 unknown #
vertex $-1 -1 $-1 $366 $589 #
straight-curve $-1 -1 $-1 513.07999999999993 0 572.07799053877466 0 1 0 I I #
model_id-kcp-attrib $-1 -1 $-1 $-1 $370 1 1021498078 1021498078 612958210 2 #
plane-surface $-1 -1 $-1 513.07999999999993 0 0 -1 0 0 0 0 1 forward_v I I I I #
coedge $-1 -1 $-1 $375 $373 $377 $511 reversed $235 $-1 #
edge $-1 -1 $-1 $388 -572.07799053877466 $513 572.07799053877466 $387 $590 forward @7 unknown #
vertex $-1 -1 $-1 $511 $591 #
straight-curve $-1 -1 $-1 -513.07999999999993 -467.97611388427435 0 0 0 -1 I I #
edge $-1 -1 $-1 $509 -467.97611388427435 $513 467.97611388427435 $507 $592 forward @7 unknown #
straight-curve $-1 -1 $-1 0 -467.97611388427435 -572.07799053877466 -1 0 0 I I #
vertex $-1 -1 $-1 $380 $593 #
straight-curve $-1 -1 $-1 0 467.97611388427435 -572.07799053877466 1 0 0 I I #
point $-1 -1 $-1 513.07999999999993 467.97611388427435 -572.07799053877466 #
point $-1 -1 $-1 513.07999999999993 -467.97611388427435 -572.07799053877466 #
straight-curve $-1 -1 $-1 -513.07999999999993 0 572.07799053877466 0 -1 0 I I #
point $-1 -1 $-1 -513.07999999999993 467.97611388427435 572.07799053877466 #
point $-1 -1 $-1 -513.07999999999993 -467.97611388427435 572.07799053877466 #
straight-curve $-1 -1 $-1 513.07999999999993 -467.97611388427435 0 0 0 -1 I I #
straight-curve $-1 -1 $-1 513.07999999999993 467.97611388427435 0 0 0 -1 I I #
loop $-1 -1 $-1 $-1 $594 $397 #
plane-surface $-1 -1 $-1 0 -315.57611388427443 463.83899526938734 4.133903273994687e-018 1 -1.9595738915926933e-016 0 1.9595738915926933e-016 1 forward_v I I I I #
coedge $-1 -1 $-1 $537 $594 $400 $525 forward $522 $-1 #
edge $595 -1 $-1 $529 123.68050236530635 $526 340.15849290408096 $400 $596 forward @7 unknown #
vertex $-1 -1 $-1 $525 $597 #
straight-curve $-1 -1 $-1 -513.07999999999993 -315.57611388427432 572.07799053877466 0 -1 0 I I #
coedge $-1 -1 $-1 $532 $402 $594 $598 reversed $398 $-1 #
vertex $-1 -1 $-1 $598 $599 #
straight-curve $-1 -1 $-1 -513.07999999999993 -315.57611388427438 355.60000000000002 0 -1 0 I I #
point $-1 -1 $-1 -513.07999999999993 -467.97611388427435 355.60000000000002 #
coedge $-1 -1 $-1 $406 $528 $408 $535 forward $398 $-1 #
straight-curve $-1 -1 $-1 256.53999999999996 -467.97611388427447 355.60000000000002 -1 0 0 I I #
coedge $-1 -1 $-1 $409 $408 $600 $601 reversed $254 $-1 #
edge $-1 -1 $-1 $602 0 $410 152.39999999999998 $532 $603 forward @7 unknown #
point $-1 -1 $-1 513.07999999999993 -467.97611388427435 355.60000000000002 #
coedge $-1 -1 $-1 $600 $524 $412 $538 reversed $522 $-1 #
edge $604 -1 $-1 $539 -513.07999999999993 $526 513.07999999999993 $412 $605 forward @7 unknown #
vertex $-1 -1 $-1 $538 $606 #
straight-curve $-1 -1 $-1 513.07999999999993 -315.57611388427432 572.07799053877466 0 -1 0 I I #
model_id-kcp-attrib $-1 -1 $-1 $-1 $417 1 1021498078 1021498078 612302849 9 #
plane-surface $-1 -1 $-1 50.799999999999997 914.39999999999998 572.07799053877454 0 0.34202014332566788 0.93969262078590876 0 23.86819256796208 -8.6873116404719628 forward_v I I I I #
coedge $-1 -1 $-1 $422 $420 $607 $608 reversed $269 $-1 #
edge $609 -1 $-1 $443 0 $610 40.399999999999999 $420 $611 forward @7 unknown #
coedge $-1 -1 $-1 $607 $424 $421 $546 forward $281 $-1 #
edge $612 -1 $-1 $427 0 $548 28 $545 $613 forward @7 unknown #
attrib_edge_convexity-kcp-attrib $-1 -1 $614 $-1 $423 1 #
vertex $-1 -1 $-1 $608 $615 #
straight-curve $-1 -1 $-1 50.799999999999997 762 355.59999999999997 -25.399999999999999 0 0 I I #
attrib_edge_convexity-kcp-attrib $-1 -1 $616 $-1 $425 1 #
straight-curve $-1 -1 $-1 -975.3599999999999 914.39999999999998 -355.59999999999997 0 -25.399999999999999 0 I I #
convexity-sys-attrib $-1 -1 $-1 $426 $274 #
point $-1 -1 $-1 -975.3599999999999 762 -355.59999999999997 #
convexity-sys-attrib $-1 -1 $-1 $429 $276 #
coedge $-1 -1 $-1 $433 $607 $562 $617 forward $281 $-1 #
edge $618 -1 $-1 $566 0 $450 32.828301746664266 $433 $619 forward @7 unknown #
straight-curve $-1 -1 $-1 -975.3599999999999 1697.9522277685487 286.88830263805193 0 0 -25.399999999999999 I I #
model_id-kcp-attrib $-1 -1 $-1 $-1 $435 1 1021498078 1021498078 612302849 11 #
plane-surface $-1 -1 $-1 -975.3599999999999 914.39999999999998 355.59999999999997 -1 0 0 0 0 25.399999999999999 forward_v I I I I #
attrib_edge_convexity-kcp-attrib $-1 -1 $620 $-1 $439 1 #
straight-curve $-1 -1 $-1 50.799999999999997 762 355.59999999999997 0 25.399999999999999 0 I I #
coedge $-1 -1 $-1 $441 $440 $555 $617 reversed $418 $-1 #
convexity-sys-attrib $-1 -1 $-1 $442 $289 #
point $-1 -1 $-1 50.799999999999997 914.39999999999998 355.59999999999997 #
attrib_edge_convexity-kcp-attrib $-1 -1 $621 $-1 $446 1 #
vertex $-1 -1 $-1 $556 $622 #
straight-curve $-1 -1 $-1 50.799999999999997 914.39999999999998 572.07799053877454 -25.399999999999999 0 0 I I #
convexity-sys-attrib $-1 -1 $-1 $449 $297 #
point $-1 -1 $-1 -975.3599999999999 1697.9522277685487 286.88830263805193 #
convexity-sys-attrib $-1 -1 $-1 $454 $302 #
point $-1 -1 $-1 50.799999999999997 762 355.59999999999997 #
coedge $-1 -1 $-1 $472 $467 $463 $573 forward $460 $-1 #
edge $623 -1 $-1 $469 -340.15849290408107 $574 -123.6805023653063 $463 $624 forward @7 unknown #
vertex $-1 -1 $-1 $476 $625 #
straight-curve $-1 -1 $-1 -513.07999999999993 -315.57611388427438 -355.59999999999991 0 -1 0 I I #
point $-1 -1 $-1 -513.07999999999993 -467.97611388427435 -355.59999999999991 #
convexity-sys-attrib $-1 -1 $-1 $-1 $468 #
straight-curve $-1 -1 $-1 0 -315.57611388427443 -572.07799053877466 1 0 0 I I #
point $-1 -1 $-1 -513.07999999999993 -315.57611388427432 -572.07799053877466 #
convexity-sys-attrib $-1 -1 $-1 $-1 $476 #
straight-curve $-1 -1 $-1 256.53999999999996 -315.57611388427449 -355.59999999999991 1 0 0 I I #
point $-1 -1 $-1 513.07999999999993 364.17555636874363 -572.07799053877466 #
straight-curve $-1 -1 $-1 -513.07999999999993 578.91089552637777 17.90250495575691 0 -0.34202014332566788 -0.93969262078590876 I I #
straight-curve $-1 -1 $-1 -256.53999999999996 364.17555636874351 -572.07799053877466 1 0 0 I I #
point $-1 -1 $-1 -513.07999999999993 364.17555636874363 -572.07799053877466 #
point $-1 -1 $-1 -513.07999999999993 467.97611388427435 572.07799053877466 #
straight-curve $-1 -1 $-1 513.07999999999993 467.97611388427435 0 0 0 -1 I I #
straight-curve $-1 -1 $-1 0 467.97611388427435 572.07799053877466 -1 0 0 I I #
point $-1 -1 $-1 513.07999999999993 467.97611388427435 572.07799053877466 #
straight-curve $-1 -1 $-1 -513.07999999999993 467.97611388427435 0 0 0 -1 I I #
point $-1 -1 $-1 -513.07999999999993 -467.97611388427435 -572.07799053877466 #
straight-curve $-1 -1 $-1 -513.07999999999993 0 -572.07799053877466 0 1 0 I I #
point $-1 -1 $-1 -513.07999999999993 467.97611388427435 -572.07799053877466 #
coedge $-1 -1 $-1 $524 $600 $528 $598 forward $522 $-1 #
convexity-sys-attrib $-1 -1 $-1 $-1 $525 #
straight-curve $-1 -1 $-1 -513.07999999999993 -315.57611388427449 231.91949763469367 0 0 1 I I #
point $-1 -1 $-1 -513.07999999999993 -315.57611388427432 572.07799053877466 #
edge $626 -1 $-1 $602 -256.53999999999996 $529 769.61999999999989 $528 $627 forward @7 unknown #
point $-1 -1 $-1 -513.07999999999993 -315.57611388427438 355.60000000000002 #
coedge $-1 -1 $-1 $594 $537 $534 $601 forward $522 $-1 #
edge $628 -1 $-1 $539 -340.15849290408096 $602 -123.68050236530635 $534 $629 forward @7 unknown #
vertex $-1 -1 $-1 $598 $630 #
straight-curve $-1 -1 $-1 513.07999999999993 -315.57611388427438 355.60000000000002 0 -1 0 I I #
convexity-sys-attrib $-1 -1 $-1 $-1 $538 #
straight-curve $-1 -1 $-1 0 -315.57611388427443 572.07799053877466 -1 0 0 I I #
point $-1 -1 $-1 513.07999999999993 -315.57611388427432 572.07799053877466 #
coedge $-1 -1 $-1 $555 $545 $543 $608 forward $281 $-1 #
edge $631 -1 $-1 $548 0 $610 5.9999999999999991 $607 $632 forward @7 unknown #
attrib_edge_convexity-kcp-attrib $-1 -1 $633 $-1 $544 2 #
vertex $-1 -1 $-1 $617 $634 #
straight-curve $-1 -1 $-1 50.799999999999997 914.39999999999998 355.59999999999997 -25.399999999999999 0 0 I I #
attrib_edge_convexity-kcp-attrib $-1 -1 $635 $-1 $546 1 #
straight-curve $-1 -1 $-1 -975.3599999999999 762 -355.59999999999997 0 0 25.399999999999999 I I #
convexity-sys-attrib $-1 -1 $-1 $547 $423 #
point $-1 -1 $-1 -975.3599999999999 762 355.59999999999997 #
convexity-sys-attrib $-1 -1 $-1 $550 $425 #
edge $636 -1 $-1 $610 0 $566 8.5227555330226217 $555 $637 forward @7 unknown #
attrib_edge_convexity-kcp-attrib $-1 -1 $638 $-1 $556 1 #
straight-curve $-1 -1 $-1 -975.3599999999999 914.39999999999998 572.07799053877454 0 23.86819256796208 -8.687311640471961 I I #
convexity-sys-attrib $-1 -1 $-1 $560 $439 #
convexity-sys-attrib $-1 -1 $-1 $565 $446 #
point $-1 -1 $-1 -975.3599999999999 914.39999999999998 572.07799053877454 #
convexity-sys-attrib $-1 -1 $-1 $-1 $573 #
straight-curve $-1 -1 $-1 -513.07999999999993 -315.57611388427449 -231.91949763469361 0 0 1 I I #
point $-1 -1 $-1 -513.07999999999993 -315.57611388427438 -355.59999999999991 #
convexity-sys-attrib $-1 -1 $-1 $-1 $598 #
straight-curve $-1 -1 $-1 256.53999999999996 -315.57611388427449 355.60000000000002 -1 0 0 I I #
convexity-sys-attrib $-1 -1 $-1 $-1 $601 #
straight-curve $-1 -1 $-1 513.07999999999993 -315.57611388427449 231.91949763469367 0 0 -1 I I #
point $-1 -1 $-1 513.07999999999993 -315.57611388427438 355.60000000000002 #
attrib_edge_convexity-kcp-attrib $-1 -1 $639 $-1 $608 1 #
straight-curve $-1 -1 $-1 -975.3599999999999 762 355.59999999999997 0 25.399999999999999 0 I I #
convexity-sys-attrib $-1 -1 $-1 $609 $544 #
point $-1 -1 $-1 -975.3599999999999 914.39999999999998 355.59999999999997 #
convexity-sys-attrib $-1 -1 $-1 $612 $546 #
attrib_edge_convexity-kcp-attrib $-1 -1 $640 $-1 $617 1 #
straight-curve $-1 -1 $-1 -975.3599999999999 914.39999999999998 355.59999999999997 0 0 25.399999999999999 I I #
convexity-sys-attrib $-1 -1 $-1 $618 $556 #
convexity-sys-attrib $-1 -1 $-1 $631 $608 #
convexity-sys-attrib $-1 -1 $-1 $636 $617 #
End-of-ACIS-data 