600 0 1 0           
97 GICL Pro/E ACIS Translator - Source: f:/data5/repository/PTC/V18/lrgasm18/box_wall_r3.prt.2 - 6 0 13 ACIS 6.0.3 NT 24 Thu Apr 04 13:35:06 2002 
1 9.9999999999999995e-007 1e-010 
body $-1 $1 $-1 $2 #
lump $-1 $-1 $3 $0 #
transform $-1 1 0 0 0 1 0 0 0 1 0 0 0 25.399999999999999 no_rotate no_reflect no_shear #
shell $-1 $-1 $-1 $4 $-1 $1 #
face $-1 $5 $6 $3 $-1 $7 reversed single #
face $-1 $8 $9 $3 $-1 $10 forward single #
loop $-1 $-1 $11 $4 #
plane-surface $-1 -36.25 36 14 -1 0 0 0 0 1 forward_v I I I I #
face $-1 $12 $13 $3 $-1 $14 forward single #
loop $-1 $-1 $15 $5 #
plane-surface $-1 -36.25 36 14 0 -1 0 0 0 1 forward_v I I I I #
coedge $-1 $16 $17 $18 $19 reversed $6 $-1 #
face $-1 $20 $21 $3 $-1 $22 forward single #
loop $-1 $-1 $23 $8 #
plane-surface $-1 -36.25 36 18 0 0.34202014332566821 0.93969262078590865 0 0.93969262078590865 -0.34202014332566821 forward_v I I I I #
coedge $-1 $24 $18 $25 $26 forward $9 $-1 #
coedge $-1 $27 $11 $28 $29 reversed $6 $-1 #
coedge $-1 $11 $30 $31 $32 reversed $6 $-1 #
coedge $-1 $15 $33 $11 $19 forward $9 $-1 #
edge $-1 $34 0 $35 4 $11 $36 forward 7 unknown #
face $-1 $37 $38 $3 $-1 $39 forward single #
loop $-1 $-1 $40 $12 #
plane-surface $-1 -36.25 64.848512904273576 7.5 0 1 0 0 0 -1 forward_v I I I I #
coedge $-1 $41 $31 $42 $43 forward $13 $-1 #
coedge $-1 $33 $15 $44 $45 reversed $9 $-1 #
coedge $-1 $31 $41 $15 $26 reversed $13 $-1 #
edge $-1 $35 0 $46 0.25 $25 $47 forward 7 unknown #
coedge $-1 $48 $16 $49 $50 reversed $6 $-1 #
coedge $-1 $51 $52 $16 $29 forward $53 $-1 #
edge $-1 $54 0 $34 4.2567110899036482 $16 $55 forward 7 unknown #
coedge $-1 $17 $56 $57 $58 reversed $6 $-1 #
coedge $-1 $23 $25 $17 $32 forward $13 $-1 #
edge $-1 $35 0 $59 30.699946201712461 $17 $60 forward 7 unknown #
coedge $-1 $18 $24 $51 $61 reversed $9 $-1 #
vertex $-1 $29 $62 #
vertex $-1 $32 $63 #
straight-curve $-1 -36.25 36 14 0 0 1 I I #
face $-1 $64 $65 $3 $-1 $66 forward single #
loop $-1 $-1 $67 $20 #
plane-surface $-1 -36.25 64.848512904273576 4.5 0 0 -1 0 -1 0 forward_v I I I I #
coedge $-1 $68 $57 $69 $70 forward $21 $-1 #
coedge $-1 $25 $23 $71 $72 reversed $13 $-1 #
coedge $-1 $57 $68 $23 $43 reversed $21 $-1 #
edge $-1 $59 0 $73 0.25 $23 $74 forward 7 unknown #
coedge $-1 $71 $75 $24 $45 forward $76 $-1 #
edge $-1 $77 0 $46 4 $44 $78 forward 7 unknown #
vertex $-1 $72 $79 #
straight-curve $-1 -36.25 36 18 -1 0 0 I I #
coedge $-1 $80 $27 $81 $82 reversed $6 $-1 #
coedge $-1 $83 $84 $27 $50 forward $85 $-1 #
edge $-1 $86 0 $54 25.088238125870383 $27 $87 forward 7 unknown #
coedge $-1 $88 $28 $33 $61 forward $53 $-1 #
coedge $-1 $28 $88 $83 $89 reversed $53 $-1 #
loop $-1 $-1 $51 $90 #
vertex $-1 $50 $91 #
straight-curve $-1 -36.25 40 12.544119062935193 0 -0.93969262078590865 0.34202014332566821 I I #
coedge $-1 $30 $92 $93 $94 reversed $6 $-1 #
coedge $-1 $40 $42 $30 $58 forward $21 $-1 #
edge $-1 $59 0 $95 3 $30 $96 forward 7 unknown #
vertex $-1 $32 $97 #
straight-curve $-1 -36.25 36 18 0 0.93969262078590865 -0.34202014332566821 I I #
edge $-1 $34 0 $77 0.25 $51 $98 forward 7 unknown #
point $-1 -36.25 36 14 #
point $-1 -36.25 36 18 #
face $-1 $99 $100 $3 $-1 $101 forward single #
loop $-1 $-1 $102 $37 #
plane-surface $-1 -36.25 58.848512904273576 4.5 0 0.8660254037844386 -0.50000000000000022 0 -0.5 -0.86602540378443826 forward_v I I I I #
coedge $-1 $103 $93 $104 $105 forward $38 $-1 #
coedge $-1 $42 $40 $106 $107 reversed $21 $-1 #
coedge $-1 $93 $103 $40 $70 reversed $38 $-1 #
edge $-1 $95 0 $108 0.25 $40 $109 forward 7 unknown #
coedge $-1 $106 $44 $41 $72 forward $76 $-1 #
edge $-1 $46 0 $73 30.699946201712461 $71 $110 forward 7 unknown #
vertex $-1 $72 $111 #
straight-curve $-1 -36.25 64.848512904273576 7.5000000000000036 -1 0 0 I I #
coedge $-1 $44 $112 $88 $113 forward $76 $-1 #
loop $-1 $-1 $106 $114 #
vertex $-1 $45 $115 #
straight-curve $-1 -36.5 36 14 0 0 1 I I #
point $-1 -36.5 36 18 #
coedge $-1 $116 $48 $117 $118 reversed $6 $-1 #
coedge $-1 $119 $120 $48 $82 forward $121 $-1 #
edge $-1 $122 0 $86 4.2567110899036491 $48 $123 forward 7 unknown #
coedge $-1 $124 $49 $52 $89 forward $85 $-1 #
coedge $-1 $49 $124 $119 $125 reversed $85 $-1 #
loop $-1 $-1 $83 $126 #
vertex $-1 $82 $127 #
straight-curve $-1 -36.25 40 -12.544119062935192 0 0 1 I I #
coedge $-1 $52 $51 $75 $113 reversed $53 $-1 #
edge $-1 $54 0 $128 0.25 $83 $129 forward 7 unknown #
face $-1 $114 $53 $3 $-1 $130 forward single #
point $-1 -36.25 40 12.544119062935193 #
coedge $-1 $56 $131 $132 $133 reversed $6 $-1 #
coedge $-1 $67 $69 $56 $94 forward $38 $-1 #
edge $-1 $95 0 $134 6 $56 $135 forward 7 unknown #
vertex $-1 $58 $136 #
straight-curve $-1 -36.25 64.848512904273576 7.5 0 0 -1 I I #
point $-1 -36.25 64.848512904273576 7.5 #
straight-curve $-1 -36.25 36 14 -1 0 0 I I #
face $-1 $137 $138 $3 $-1 $139 forward single #
loop $-1 $-1 $140 $64 #
plane-surface $-1 -36.25 56.25043669292026 1.0658141036401503e-014 0 0.8660254037844386 0.50000000000000011 0 0.5 -0.86602540378443837 forward_v I I I I #
coedge $-1 $141 $132 $142 $143 forward $65 $-1 #
coedge $-1 $69 $67 $144 $145 reversed $38 $-1 #
coedge $-1 $132 $141 $67 $105 reversed $65 $-1 #
edge $-1 $134 0 $146 0.25 $67 $147 forward 7 unknown #
coedge $-1 $144 $71 $68 $107 forward $76 $-1 #
edge $-1 $73 0 $108 3 $106 $148 forward 7 unknown #
vertex $-1 $145 $149 #
straight-curve $-1 -36.25 64.848512904273576 4.5 -1 0 0 I I #
straight-curve $-1 -36.5 36 18 0 0.93969262078590865 -0.34202014332566821 I I #
point $-1 -36.5 64.848512904273576 7.5 #
coedge $-1 $75 $150 $124 $151 forward $76 $-1 #
edge $-1 $128 0 $77 4.2567110899036482 $75 $152 forward 7 unknown #
face $-1 $-1 $76 $3 $-1 $153 forward single #
point $-1 -36.5 36 14 #
coedge $-1 $154 $80 $155 $156 reversed $6 $-1 #
coedge $-1 $157 $158 $80 $118 forward $159 $-1 #
edge $-1 $160 0 $122 4 $80 $161 forward 7 unknown #
coedge $-1 $162 $81 $84 $125 forward $121 $-1 #
coedge $-1 $81 $162 $157 $163 reversed $121 $-1 #
loop $-1 $-1 $119 $164 #
vertex $-1 $118 $165 #
straight-curve $-1 -36.25 36 -14 0 0.93969262078590843 0.34202014332566855 I I #
coedge $-1 $84 $83 $112 $151 reversed $85 $-1 #
edge $-1 $86 0 $166 0.25 $119 $167 forward 7 unknown #
face $-1 $90 $85 $3 $-1 $168 forward single #
point $-1 -36.25 40 -12.544119062935192 #
vertex $-1 $113 $169 #
straight-curve $-1 -36.25 40 12.544119062935192 -1 0 0 I I #
plane-surface $-1 -36.25 40 12.544119062935193 0 -0.3420201433256681 -0.93969262078590865 0 -0.93969262078590865 0.3420201433256681 forward_v I I I I #
coedge $-1 $92 $170 $171 $172 reversed $6 $-1 #
coedge $-1 $102 $104 $92 $133 forward $65 $-1 #
edge $-1 $134 0 $173 5.1961524227066329 $92 $174 forward 7 unknown #
vertex $-1 $94 $175 #
straight-curve $-1 -36.25 64.848512904273576 4.5 0 -1 0 I I #
point $-1 -36.25 64.848512904273576 4.5 #
face $-1 $176 $177 $3 $-1 $178 forward single #
loop $-1 $-1 $179 $99 #
plane-surface $-1 -36.25 58.848512904273584 -4.5 0 0 1 0 1 0 forward_v I I I I #
coedge $-1 $180 $171 $181 $182 forward $100 $-1 #
coedge $-1 $104 $102 $183 $184 reversed $65 $-1 #
coedge $-1 $171 $180 $102 $143 reversed $100 $-1 #
edge $-1 $173 0 $185 0.25 $102 $186 forward 7 unknown #
coedge $-1 $183 $106 $103 $145 forward $76 $-1 #
edge $-1 $108 0 $146 6 $144 $187 forward 7 unknown #
vertex $-1 $184 $188 #
straight-curve $-1 -36.25 58.848512904273576 4.5 -1 0 0 I I #
straight-curve $-1 -36.5 64.848512904273576 7.5 0 0 -1 I I #
point $-1 -36.5 64.848512904273576 4.5 #
coedge $-1 $112 $189 $162 $190 forward $76 $-1 #
edge $-1 $166 0 $128 25.088238125870383 $112 $191 forward 7 unknown #
straight-curve $-1 -36.5 40 12.544119062935193 0 -0.93969262078590865 0.34202014332566821 I I #
plane-surface $-1 -36.5 36 14 -1 0 0 0 0 1 forward_v I I I I #
coedge $-1 $170 $116 $192 $193 reversed $6 $-1 #
coedge $-1 $194 $195 $116 $156 forward $196 $-1 #
edge $-1 $197 0 $160 30.699946201712457 $116 $198 forward 7 unknown #
coedge $-1 $199 $117 $120 $163 forward $159 $-1 #
coedge $-1 $117 $199 $194 $200 reversed $159 $-1 #
loop $-1 $-1 $157 $201 #
vertex $-1 $156 $202 #
straight-curve $-1 -36.25 36 -18 0 0 1 I I #
coedge $-1 $120 $119 $150 $190 reversed $121 $-1 #
edge $-1 $122 0 $203 0.25 $157 $204 forward 7 unknown #
face $-1 $126 $121 $3 $-1 $205 forward single #
point $-1 -36.25 36 -14 #
vertex $-1 $151 $206 #
straight-curve $-1 -36.25 40 -12.544119062935192 -1 0 0 I I #
plane-surface $-1 -36.25 40 -12.544119062935192 0 -1 0 0 0 1 forward_v I I I I #
point $-1 -36.5 40 12.544119062935193 #
coedge $-1 $131 $154 $207 $208 reversed $6 $-1 #
coedge $-1 $140 $142 $131 $172 forward $100 $-1 #
edge $-1 $173 -1.2451584551402212e-015 $209 5.1961524227066356 $131 $210 forward 7 unknown #
vertex $-1 $133 $211 #
straight-curve $-1 -36.25 58.848512904273576 4.5 0 -0.5 -0.8660254037844386 I I #
point $-1 -36.25 58.848512904273576 4.5 #
face $-1 $201 $196 $3 $-1 $212 forward single #
loop $-1 $-1 $213 $137 #
plane-surface $-1 -36.25 64.848512904273576 -4.5 0 1 0 0 0 -1 forward_v I I I I #
coedge $-1 $214 $207 $215 $216 forward $138 $-1 #
coedge $-1 $142 $140 $217 $218 reversed $100 $-1 #
coedge $-1 $207 $214 $140 $182 reversed $138 $-1 #
edge $-1 $209 0 $219 0.25 $140 $220 forward 7 unknown #
coedge $-1 $217 $144 $141 $184 forward $76 $-1 #
edge $-1 $146 0 $185 5.196152422706624 $183 $221 forward 7 unknown #
vertex $-1 $218 $222 #
straight-curve $-1 -36.25 56.25043669292026 7.9936057773011271e-015 -1 0 0 I I #
straight-curve $-1 -36.5 64.848512904273576 4.5 0 -1 0 I I #
point $-1 -36.5 58.848512904273576 4.5 #
coedge $-1 $150 $223 $199 $224 forward $76 $-1 #
edge $-1 $203 0 $166 4.2567110899036491 $150 $225 forward 7 unknown #
straight-curve $-1 -36.5 40 -12.544119062935192 0 0 1 I I #
coedge $-1 $213 $215 $154 $193 forward $177 $-1 #
edge $-1 $226 0 $197 3 $154 $227 forward 7 unknown #
coedge $-1 $228 $155 $158 $200 forward $196 $-1 #
coedge $-1 $155 $228 $213 $229 reversed $196 $-1 #
loop $-1 $-1 $194 $176 #
vertex $-1 $193 $230 #
straight-curve $-1 -36.25 64.848512904273576 -7.5 0 -0.93969262078590854 -0.34202014332566849 I I #
coedge $-1 $158 $157 $189 $224 reversed $159 $-1 #
edge $-1 $160 0 $231 0.25 $194 $232 forward 7 unknown #
face $-1 $164 $159 $3 $-1 $233 forward single #
point $-1 -36.25 36 -18 #
vertex $-1 $190 $234 #
straight-curve $-1 -36.25 36 -14 -1 0 0 I I #
plane-surface $-1 -36.25 36 -14 0 -0.3420201433256686 0.93969262078590854 0 0.93969262078590843 0.34202014332566855 forward_v I I I I #
point $-1 -36.5 40 -12.544119062935192 #
coedge $-1 $179 $181 $170 $208 forward $138 $-1 #
edge $-1 $209 0 $226 5.9999999999999929 $170 $235 forward 7 unknown #
vertex $-1 $172 $236 #
straight-curve $-1 -36.25 56.250436692920267 2.6645352591003773e-015 0 0.49999999999999972 -0.86602540378443871 I I #
point $-1 -36.25 56.25043669292026 0 #
plane-surface $-1 -36.25 64.848512904273576 -7.5 0 0.34202014332566849 -0.93969262078590854 0 -0.93969262078590854 -0.34202014332566849 forward_v I I I I #
coedge $-1 $237 $192 $195 $229 forward $177 $-1 #
coedge $-1 $181 $179 $238 $239 reversed $138 $-1 #
coedge $-1 $192 $237 $179 $216 reversed $177 $-1 #
edge $-1 $226 0 $240 0.25 $179 $241 forward 7 unknown #
coedge $-1 $238 $183 $180 $218 forward $76 $-1 #
edge $-1 $185 -1.0475379349781331e-014 $219 5.1961524227066356 $217 $242 forward 7 unknown #
vertex $-1 $239 $243 #
straight-curve $-1 -36.25 58.848512904273584 -4.5 -1 0 0 I I #
straight-curve $-1 -36.5 58.848512904273576 4.5 0 -0.5 -0.8660254037844386 I I #
point $-1 -36.5 56.25043669292026 1.0658141036401503e-014 #
coedge $-1 $189 $244 $228 $245 forward $76 $-1 #
edge $-1 $231 0 $203 4 $189 $246 forward 7 unknown #
straight-curve $-1 -36.5 36 -14 0 0.93969262078590843 0.34202014332566855 I I #
vertex $-1 $208 $247 #
straight-curve $-1 -36.25 64.848512904273576 -4.5 0 0 -1 I I #
coedge $-1 $195 $194 $223 $245 reversed $196 $-1 #
edge $-1 $197 0 $248 0.25 $213 $249 forward 7 unknown #
point $-1 -36.25 64.848512904273576 -7.5 #
vertex $-1 $224 $250 #
straight-curve $-1 -36.25 36 -18.000000000000007 -1 0 0 I I #
plane-surface $-1 -36.25 36 -18 0 -1 0 0 0 1 forward_v I I I I #
point $-1 -36.5 36 -14 #
straight-curve $-1 -36.25 58.848512904273584 -4.5 0 1 0 I I #
point $-1 -36.25 58.848512904273584 -4.5 #
coedge $-1 $215 $213 $244 $251 reversed $177 $-1 #
coedge $-1 $244 $217 $214 $239 forward $76 $-1 #
edge $-1 $219 0 $240 5.9999999999999929 $238 $252 forward 7 unknown #
vertex $-1 $251 $253 #
straight-curve $-1 -36.25 64.848512904273576 -4.5 -1 0 0 I I #
straight-curve $-1 -36.5 56.250436692920267 2.6645352591003773e-015 0 0.49999999999999972 -0.86602540378443871 I I #
point $-1 -36.5 58.848512904273584 -4.5 #
coedge $-1 $223 $238 $237 $251 forward $76 $-1 #
edge $-1 $248 0 $231 30.699946201712457 $223 $254 forward 7 unknown #
straight-curve $-1 -36.5 36 -18 0 0 1 I I #
point $-1 -36.25 64.848512904273576 -4.5 #
vertex $-1 $245 $255 #
straight-curve $-1 -36.25 64.848512904273576 -7.5 -1 0 0 I I #
point $-1 -36.5 36 -18 #
edge $-1 $240 0 $248 3 $244 $256 forward 7 unknown #
straight-curve $-1 -36.5 58.848512904273584 -4.5 0 1 0 I I #
point $-1 -36.5 64.848512904273576 -4.5 #
straight-curve $-1 -36.5 64.848512904273576 -7.5 0 -0.93969262078590854 -0.34202014332566849 I I #
point $-1 -36.5 64.848512904273576 -7.5 #
straight-curve $-1 -36.5 64.848512904273576 -4.5 0 0 -1 I I #
End-of-ACIS-data 