600 0 1 0           
88 GICL ACIS Healer - Source: /gicl/data5/repository/PTC/V18/lrgasm18/bracket.prt.sat - 6 0 18 ACIS 6.0.3 Solaris 24 Sat Apr 13 21:59:44 2002 
1 9.999999999999999547e-07 1.000000000000000036e-10 
body $-1 $1 $-1 $-1 #
lump $-1 $-1 $2 $0 #
shell $-1 $-1 $-1 $3 $-1 $1 #
face $-1 $4 $5 $2 $-1 $6 forward single #
face $-1 $7 $8 $2 $-1 $9 reversed single #
loop $-1 $10 $11 $3 #
plane-surface $-1 0 0 0 0 0 1 25.39999999999999858 0 0 forward_v I I I I #
face $-1 $12 $13 $2 $-1 $14 reversed single #
loop $-1 $-1 $15 $4 #
cone-surface $-1 -76.19999999999998863 0 0 0 0 -1 -3.809999999999999609 0 0 1 I I 0 1 3.809999999999999609 forward I I I I #
loop $-1 $16 $17 $3 #
coedge $-1 $18 $18 $19 $20 forward $5 $-1 #
face $-1 $21 $22 $2 $-1 $23 reversed single #
loop $-1 $-1 $24 $7 #
cone-surface $-1 -76.19999999999998863 0 0 0 0 -1 -3.809999999999999609 0 0 1 I I 0 1 3.809999999999999609 forward I I I I #
coedge $-1 $25 $19 $26 $27 forward $8 $-1 #
loop $-1 $28 $29 $3 #
coedge $-1 $30 $30 $31 $32 forward $10 $-1 #
coedge $-1 $11 $11 $33 $34 forward $5 $-1 #
coedge $-1 $15 $35 $11 $20 reversed $8 $-1 #
edge $-1 $36 0 $37 3.141592653589793116 $11 $38 forward 7 unknown #
face $-1 $39 $40 $2 $-1 $41 reversed single #
loop $-1 $42 $43 $12 #
plane-surface $-1 0 0 -3.809999999999999609 0 0 1 25.39999999999999858 0 0 forward_v I I I I #
coedge $-1 $44 $33 $35 $45 forward $13 $-1 #
coedge $-1 $35 $15 $43 $46 forward $8 $-1 #
coedge $-1 $33 $44 $15 $27 reversed $13 $-1 #
edge $-1 $36 0 $47 0.1499999999999999944 $26 $48 forward 7 unknown #
loop $-1 $49 $50 $3 #
coedge $-1 $51 $51 $52 $53 forward $16 $-1 #
coedge $-1 $17 $17 $54 $55 forward $10 $-1 #
coedge $-1 $56 $57 $17 $32 reversed $40 $-1 #
edge $-1 $58 0 $59 3.141592653589793116 $17 $60 forward 7 unknown #
coedge $-1 $24 $26 $18 $34 reversed $13 $-1 #
edge $-1 $37 0 $36 3.141592653589793116 $18 $61 forward 7 unknown #
coedge $-1 $19 $25 $24 $45 reversed $8 $-1 #
vertex $-1 $34 $62 #
vertex $-1 $34 $63 #
ellipse-curve $-1 -76.19999999999998863 0 0 0 0 -1 3.810000000000008935 0 0 1 I I #
face $-1 $64 $65 $2 $-1 $66 reversed single #
loop $-1 $-1 $56 $21 #
cone-surface $-1 0 0 0 0 0 -1 -3.809999999999999609 0 0 1 I I 0 1 3.809999999999999609 forward I I I I #
loop $-1 $67 $68 $12 #
coedge $-1 $69 $69 $25 $46 reversed $22 $-1 #
coedge $-1 $26 $24 $69 $70 forward $13 $-1 #
edge $-1 $37 0 $71 0.1499999999999999944 $24 $72 forward 7 unknown #
edge $-1 $47 3.912757915412038296e-30 $71 3.141592653589788675 $43 $73 forward 7 unknown #
vertex $-1 $70 $74 #
straight-curve $-1 -72.39000000000000057 4.665750208063256841e-16 0 0 0 -25.39999999999999858 I I #
loop $-1 $-1 $75 $3 #
coedge $-1 $76 $77 $78 $79 forward $28 $-1 #
coedge $-1 $29 $29 $80 $81 forward $16 $-1 #
coedge $-1 $82 $83 $29 $53 reversed $84 $-1 #
edge $-1 $85 0 $86 3.141592653589793116 $29 $87 forward 7 unknown #
coedge $-1 $88 $89 $30 $55 reversed $65 $-1 #
edge $-1 $59 0 $58 3.141592653589793116 $30 $90 forward 7 unknown #
coedge $-1 $91 $31 $89 $92 forward $40 $-1 #
coedge $-1 $31 $91 $88 $93 reversed $40 $-1 #
vertex $-1 $55 $94 #
vertex $-1 $55 $95 #
ellipse-curve $-1 0 0 0 0 0 -1 3.809999999999999609 0 0 1 I I #
ellipse-curve $-1 -76.19999999999998863 0 0 0 0 -1 -3.809999999999997389 0 0 1 I I #
point $-1 -72.38999999999998636 0 0 #
point $-1 -80.00999999999999091 0 0 #
face $-1 $96 $84 $2 $-1 $97 reversed single #
loop $-1 $-1 $88 $39 #
cone-surface $-1 0 0 0 0 0 -1 -3.809999999999999609 0 0 1 I I 0 1 3.809999999999999609 forward I I I I #
loop $-1 $98 $99 $12 #
coedge $-1 $100 $100 $91 $101 reversed $42 $-1 #
coedge $-1 $43 $43 $44 $70 reversed $22 $-1 #
edge $-1 $71 -3.478007035921822017e-30 $47 3.141592653589788231 $69 $102 forward 7 unknown #
vertex $-1 $70 $103 #
straight-curve $-1 -80.00999999999999091 0 0 0 0 -25.39999999999999858 I I #
ellipse-curve $-1 -76.19999999999998863 8.283651542484448922e-15 -3.809999999999999609 0 0 -1 3.810000000000008935 -8.283651542484448922e-15 0 1 I I #
point $-1 -72.38999999999998636 0 -3.809999999999999609 #
coedge $-1 $104 $104 $105 $106 forward $49 $-1 #
coedge $-1 $107 $50 $108 $109 forward $28 $-1 #
coedge $-1 $50 $110 $111 $112 forward $28 $-1 #
coedge $-1 $113 $114 $50 $79 reversed $115 $-1 #
edge $-1 $116 0 $117 8 $50 $118 forward 7 unknown #
coedge $-1 $119 $120 $51 $81 reversed $121 $-1 #
edge $-1 $86 0 $85 3.141592653589793116 $51 $122 forward 7 unknown #
coedge $-1 $123 $52 $120 $124 forward $84 $-1 #
coedge $-1 $52 $123 $119 $125 reversed $84 $-1 #
loop $-1 $-1 $82 $64 #
vertex $-1 $81 $126 #
vertex $-1 $81 $127 #
ellipse-curve $-1 -76.19999999999998863 76.19999999999998863 0 0 0 -1 3.810000000000008935 0 0 1 I I #
coedge $-1 $128 $54 $57 $93 forward $65 $-1 #
coedge $-1 $54 $128 $56 $92 reversed $65 $-1 #
ellipse-curve $-1 0 0 0 0 0 -1 -3.809999999999999609 0 0 1 I I #
coedge $-1 $57 $56 $68 $101 forward $40 $-1 #
edge $-1 $58 0 $129 0.1499999999999999944 $89 $130 forward 7 unknown #
edge $-1 $59 0 $131 0.1499999999999999944 $88 $132 forward 7 unknown #
point $-1 3.809999999999999609 0 0 #
point $-1 -3.809999999999999609 0 0 #
face $-1 $133 $121 $2 $-1 $134 reversed single #
cone-surface $-1 -76.19999999999998863 76.19999999999998863 0 0 0 -1 -3.809999999999999609 0 0 1 I I 0 1 3.809999999999999609 forward I I I I #
loop $-1 $135 $136 $12 #
coedge $-1 $137 $137 $123 $138 reversed $67 $-1 #
coedge $-1 $68 $68 $128 $139 reversed $42 $-1 #
edge $-1 $129 0 $131 3.141592653589792228 $68 $140 forward 7 unknown #
ellipse-curve $-1 -76.19999999999998863 -9.869882688917640698e-15 -3.809999999999999609 0 0 -1 -3.809999999999997389 9.869882688917640698e-15 0 1 I I #
point $-1 -80.00999999999999091 0 -3.809999999999999609 #
coedge $-1 $75 $75 $141 $142 forward $49 $-1 #
coedge $-1 $143 $144 $75 $106 reversed $145 $-1 #
edge $-1 $146 0 $147 3.141592653589793116 $75 $148 forward 7 unknown #
coedge $-1 $149 $76 $150 $151 forward $28 $-1 #
coedge $-1 $152 $153 $76 $109 reversed $154 $-1 #
edge $-1 $117 0 $155 3.201562118716423377 $76 $156 forward 7 unknown #
coedge $-1 $77 $157 $158 $159 forward $28 $-1 #
coedge $-1 $160 $161 $77 $112 reversed $162 $-1 #
edge $-1 $163 0 $116 2.5 $77 $164 forward 7 unknown #
coedge $-1 $165 $78 $161 $166 forward $115 $-1 #
coedge $-1 $78 $165 $152 $167 reversed $115 $-1 #
loop $-1 $-1 $113 $168 #
vertex $-1 $112 $169 #
vertex $-1 $109 $170 #
straight-curve $-1 -139.6999999999999886 127 0 0 -25.39999999999999858 0 I I #
coedge $-1 $171 $80 $83 $125 forward $121 $-1 #
coedge $-1 $80 $171 $82 $124 reversed $121 $-1 #
loop $-1 $-1 $119 $96 #
ellipse-curve $-1 -76.19999999999998863 76.19999999999998863 0 0 0 -1 -3.809999999999997389 0 0 1 I I #
coedge $-1 $83 $82 $99 $138 forward $84 $-1 #
edge $-1 $85 0 $172 0.1499999999999999944 $120 $173 forward 7 unknown #
edge $-1 $86 0 $174 0.1499999999999999944 $119 $175 forward 7 unknown #
point $-1 -72.38999999999998636 76.19999999999998863 0 #
point $-1 -80.00999999999999091 76.19999999999998863 0 #
coedge $-1 $89 $88 $100 $139 forward $65 $-1 #
vertex $-1 $139 $176 #
straight-curve $-1 3.809999999999999609 4.665750208063256841e-16 0 0 0 -25.39999999999999858 I I #
vertex $-1 $139 $177 #
straight-curve $-1 -3.809999999999999609 0 0 0 0 -25.39999999999999858 I I #
face $-1 $178 $179 $2 $-1 $180 forward single #
cone-surface $-1 -76.19999999999998863 76.19999999999998863 0 0 0 -1 -3.809999999999999609 0 0 1 I I 0 1 3.809999999999999609 forward I I I I #
loop $-1 $-1 $181 $12 #
coedge $-1 $182 $183 $184 $185 reversed $98 $-1 #
coedge $-1 $99 $99 $171 $186 reversed $67 $-1 #
edge $-1 $172 7.692883950158612476e-16 $174 3.141592653589786455 $99 $187 forward 7 unknown #
edge $-1 $131 0 $129 3.141592653589792228 $100 $188 forward 7 unknown #
ellipse-curve $-1 -1.762479051592435909e-16 1.586231146433192368e-15 -3.809999999999999609 0 0 -1 3.809999999999999609 -1.586231146433192368e-15 0 1 I I #
coedge $-1 $189 $190 $104 $142 reversed $191 $-1 #
edge $-1 $147 0 $146 3.141592653589793116 $104 $192 forward 7 unknown #
coedge $-1 $193 $105 $190 $194 forward $145 $-1 #
coedge $-1 $105 $193 $189 $195 reversed $145 $-1 #
loop $-1 $-1 $143 $196 #
vertex $-1 $142 $197 #
vertex $-1 $142 $198 #
ellipse-curve $-1 0 76.19999999999998863 0 0 0 -1 3.809999999999999609 0 0 1 I I #
coedge $-1 $199 $107 $200 $201 forward $28 $-1 #
coedge $-1 $202 $203 $107 $151 reversed $204 $-1 #
edge $-1 $155 0 $205 3.5 $107 $206 forward 7 unknown #
coedge $-1 $207 $108 $114 $167 forward $154 $-1 #
coedge $-1 $108 $207 $202 $208 reversed $154 $-1 #
loop $-1 $-1 $152 $209 #
vertex $-1 $151 $210 #
straight-curve $-1 -139.6999999999999886 -76.19999999999998863 0 15.86725420788237528 19.83406775985297088 0 I I #
coedge $-1 $110 $199 $211 $212 forward $28 $-1 #
coedge $-1 $213 $214 $110 $159 reversed $179 $-1 #
edge $-1 $215 0 $163 3.5 $110 $216 forward 7 unknown #
coedge $-1 $217 $111 $214 $218 forward $162 $-1 #
coedge $-1 $111 $217 $113 $166 reversed $162 $-1 #
loop $-1 $-1 $160 $219 #
vertex $-1 $112 $220 #
straight-curve $-1 -88.89999999999999147 88.89999999999999147 0 -20.32000000000000028 15.23999999999999844 0 I I #
coedge $-1 $114 $113 $221 $222 forward $115 $-1 #
edge $-1 $116 0 $223 0.1499999999999999944 $161 $224 forward 7 unknown #
edge $-1 $117 0 $225 0.1499999999999999944 $152 $226 forward 7 unknown #
face $-1 $219 $115 $2 $-1 $227 forward single #
point $-1 -139.6999999999999886 127 0 #
point $-1 -139.6999999999999886 -76.19999999999998863 0 #
coedge $-1 $120 $119 $137 $186 forward $121 $-1 #
vertex $-1 $186 $228 #
straight-curve $-1 -72.39000000000000057 76.19999999999998863 0 0 0 -25.39999999999999858 I I #
vertex $-1 $186 $229 #
straight-curve $-1 -80.00999999999999091 76.19999999999998863 0 0 0 -25.39999999999999858 I I #
point $-1 3.809999999999999609 0 -3.809999999999999609 #
point $-1 -3.809999999999999609 0 -3.809999999999999609 #
face $-1 $230 $231 $2 $-1 $232 forward single #
loop $-1 $-1 $213 $133 #
plane-surface $-1 -44.44999999999999574 88.89999999999999147 -1.904999999999999805 0 1 0 -25.39999999999999858 0 0 forward_v I I I I #
coedge $-1 $233 $233 $193 $234 reversed $135 $-1 #
coedge $-1 $235 $136 $236 $237 reversed $98 $-1 #
coedge $-1 $136 $221 $217 $238 reversed $98 $-1 #
coedge $-1 $214 $213 $136 $185 forward $179 $-1 #
edge $-1 $239 -3.061515884555943146e-17 $240 3.5 $184 $241 forward 7 unknown #
edge $-1 $174 -2.960594732333752878e-15 $172 3.141592653589790451 $137 $242 forward 7 unknown #
ellipse-curve $-1 -76.19999999999998863 76.20000000000000284 -3.809999999999999609 0 0 -1 3.810000000000008935 -1.127986593019158982e-14 0 1 I I #
ellipse-curve $-1 -1.762479051592435909e-16 -1.762479051592436008e-15 -3.809999999999999609 0 0 -1 -3.809999999999999609 1.762479051592436008e-15 0 1 I I #
coedge $-1 $243 $141 $144 $195 forward $191 $-1 #
coedge $-1 $141 $243 $143 $194 reversed $191 $-1 #
loop $-1 $-1 $189 $244 #
ellipse-curve $-1 0 76.19999999999998863 0 0 0 -1 -3.809999999999999609 0 0 1 I I #
coedge $-1 $144 $143 $181 $234 forward $145 $-1 #
edge $-1 $146 0 $245 0.1499999999999999944 $190 $246 forward 7 unknown #
edge $-1 $147 0 $247 0.1499999999999999944 $189 $248 forward 7 unknown #
face $-1 $244 $145 $2 $-1 $249 reversed single #
point $-1 3.809999999999999609 76.19999999999998863 0 #
point $-1 -3.809999999999999609 76.19999999999998863 0 #
coedge $-1 $157 $149 $250 $251 forward $28 $-1 #
coedge $-1 $252 $253 $149 $201 reversed $254 $-1 #
edge $-1 $205 0 $255 1.570796326794896558 $149 $256 forward 7 unknown #
coedge $-1 $257 $150 $153 $208 forward $204 $-1 #
coedge $-1 $150 $257 $252 $258 reversed $204 $-1 #
loop $-1 $-1 $202 $259 #
vertex $-1 $201 $260 #
straight-curve $-1 -88.89999999999999147 -12.69999999999999929 0 25.39999999999999858 0 0 I I #
coedge $-1 $153 $152 $261 $262 forward $154 $-1 #
edge $-1 $155 0 $263 0.1499999999999999944 $202 $264 forward 7 unknown #
face $-1 $168 $154 $2 $-1 $265 forward single #
point $-1 -88.89999999999999147 -12.69999999999999929 0 #
coedge $-1 $266 $267 $157 $212 reversed $231 $-1 #
edge $-1 $268 -2.307865185047571811e-16 $215 1.570796326794898334 $157 $269 forward 7 unknown #
coedge $-1 $184 $158 $267 $270 forward $179 $-1 #
coedge $-1 $158 $184 $160 $218 reversed $179 $-1 #
vertex $-1 $159 $271 #
straight-curve $-1 0 88.89999999999999147 0 -25.39999999999999858 0 0 I I #
coedge $-1 $161 $160 $183 $238 forward $162 $-1 #
edge $-1 $163 0 $240 0.1499999999999999944 $160 $272 forward 7 unknown #
face $-1 $196 $162 $2 $-1 $273 forward single #
point $-1 -88.89999999999999147 88.89999999999999147 0 #
coedge $-1 $183 $261 $165 $222 reversed $98 $-1 #
edge $-1 $223 0 $225 8 $165 $274 forward 7 unknown #
vertex $-1 $166 $275 #
straight-curve $-1 -139.6999999999999886 127 0 0 0 -25.39999999999999858 I I #
vertex $-1 $262 $276 #
straight-curve $-1 -139.6999999999999886 -76.19999999999998863 0 0 0 -25.39999999999999858 I I #
plane-surface $-1 -139.6999999999999886 25.39999999999999858 -1.904999999999999805 -1 0 0 0 -25.39999999999999858 0 forward_v I I I I #
point $-1 -72.38999999999998636 76.19999999999998863 -3.809999999999999609 #
point $-1 -80.00999999999999091 76.19999999999998863 -3.809999999999999609 #
face $-1 $277 $278 $2 $-1 $279 forward single #
loop $-1 $-1 $266 $178 #
cone-surface $-1 0 76.19999999999998863 -1.904999999999999805 0 0 1 12.69999999999999929 0 0 1 I I 0 1 12.69999999999999929 forward I I I I #
coedge $-1 $181 $181 $243 $280 reversed $135 $-1 #
edge $-1 $245 0 $247 3.141592653589793116 $181 $281 forward 7 unknown #
coedge $-1 $282 $182 $283 $284 reversed $98 $-1 #
coedge $-1 $267 $266 $182 $237 forward $231 $-1 #
edge $-1 $285 -2.307865185047571811e-16 $239 1.570796326794898334 $236 $286 forward 7 unknown #
edge $-1 $240 0 $223 2.5 $217 $287 forward 7 unknown #
vertex $-1 $185 $288 #
vertex $-1 $238 $289 #
straight-curve $-1 0 88.89999999999999147 -3.809999999999999609 -25.39999999999999858 0 0 I I #
ellipse-curve $-1 -76.19999999999998863 76.19999999999998863 -3.809999999999999609 0 0 -1 -3.809999999999997389 1.127986593019158982e-14 0 1 I I #
coedge $-1 $190 $189 $233 $280 forward $191 $-1 #
face $-1 $-1 $191 $2 $-1 $290 reversed single #
vertex $-1 $280 $291 #
straight-curve $-1 3.809999999999999609 76.19999999999998863 0 0 0 -25.39999999999999858 I I #
vertex $-1 $280 $292 #
straight-curve $-1 -3.809999999999999609 76.19999999999998863 0 0 0 -25.39999999999999858 I I #
cone-surface $-1 0 76.19999999999998863 0 0 0 -1 -3.809999999999999609 0 0 1 I I 0 1 3.809999999999999609 forward I I I I #
coedge $-1 $293 $294 $199 $251 reversed $278 $-1 #
edge $-1 $255 0 $268 2.999999999999999556 $199 $295 forward 7 unknown #
coedge $-1 $296 $200 $203 $258 forward $254 $-1 #
coedge $-1 $200 $296 $293 $297 reversed $254 $-1 #
loop $-1 $-1 $252 $277 #
vertex $-1 $251 $298 #
ellipse-curve $-1 -3.524958103184871819e-16 1.057487430955461447e-15 0 0 0 1 3.524958103184871819e-16 -12.69999999999999929 0 1 I I #
coedge $-1 $203 $202 $299 $300 forward $204 $-1 #
edge $-1 $205 0 $301 0.1499999999999999944 $252 $302 forward 7 unknown #
face $-1 $209 $204 $2 $-1 $303 forward single #
point $-1 0 -12.69999999999999929 0 #
coedge $-1 $221 $299 $207 $262 reversed $98 $-1 #
edge $-1 $225 0 $263 3.201562118716423377 $207 $304 forward 7 unknown #
vertex $-1 $300 $305 #
straight-curve $-1 -88.89999999999999147 -12.69999999999999929 0 0 0 -25.39999999999999858 I I #
plane-surface $-1 -114.2999999999999972 -44.44999999999999574 -1.904999999999999805 0.7808688094430303872 -0.6246950475544242876 0 15.86725420788237528 19.83406775985297088 0 forward_v I I I I #
coedge $-1 $236 $211 $294 $306 forward $231 $-1 #
coedge $-1 $211 $236 $213 $270 reversed $231 $-1 #
vertex $-1 $212 $307 #
ellipse-curve $-1 9.869882688917640698e-15 76.20000000000000284 0 0 0 1 12.69999999999998863 -1.127986593019158982e-14 0 1 I I #
edge $-1 $215 0 $239 0.1499999999999999944 $213 $308 forward 7 unknown #
point $-1 0 88.89999999999999147 0 #
straight-curve $-1 -88.89999999999999147 88.89999999999999147 0 0 0 -25.39999999999999858 I I #
plane-surface $-1 -114.2999999999999972 107.9499999999999886 -1.904999999999999805 0.6000000000000000888 0.8000000000000000444 0 -20.31999999999999673 15.23999999999999844 0 forward_v I I I I #
straight-curve $-1 -139.6999999999999886 127 -3.809999999999999609 0 -25.39999999999999858 0 I I #
point $-1 -139.6999999999999886 127 -3.809999999999999609 #
point $-1 -139.6999999999999886 -76.19999999999998863 -3.809999999999999609 #
face $-1 $259 $254 $2 $-1 $309 forward single #
loop $-1 $-1 $293 $230 #
plane-surface $-1 12.69999999999999929 38.09999999999999432 -1.904999999999999805 1 0 0 0 25.39999999999999858 0 forward_v I I I I #
edge $-1 $247 0 $245 3.141592653589793116 $233 $310 forward 7 unknown #
ellipse-curve $-1 -1.762479051592435909e-16 76.19999999999998863 -3.809999999999999609 0 0 -1 3.809999999999999609 0 0 1 I I #
coedge $-1 $299 $235 $296 $311 reversed $98 $-1 #
coedge $-1 $294 $293 $235 $284 forward $278 $-1 #
edge $-1 $312 -3.061515884555943146e-17 $285 2.999999999999999556 $283 $313 forward 7 unknown #
vertex $-1 $237 $314 #
ellipse-curve $-1 9.869882688917640698e-15 76.20000000000000284 -3.809999999999999609 0 0 1 12.69999999999998863 -1.127986593019158982e-14 0 1 I I #
straight-curve $-1 -88.89999999999999147 88.89999999999999147 -3.809999999999999609 -20.32000000000000028 15.23999999999999844 0 I I #
point $-1 7.776250346772095392e-16 88.89999999999999147 -3.809999999999999609 #
point $-1 -88.89999999999999147 88.89999999999999147 -3.809999999999999609 #
cone-surface $-1 0 76.19999999999998863 0 0 0 -1 -3.809999999999999609 0 0 1 I I 0 1 3.809999999999999609 forward I I I I #
point $-1 3.809999999999999609 76.19999999999998863 -3.809999999999999609 #
point $-1 -3.809999999999999609 76.19999999999998863 -3.809999999999999609 #
coedge $-1 $283 $250 $253 $297 forward $278 $-1 #
coedge $-1 $250 $283 $266 $306 reversed $278 $-1 #
straight-curve $-1 12.69999999999999929 0 0 0 25.39999999999999858 0 I I #
coedge $-1 $253 $252 $282 $311 forward $254 $-1 #
edge $-1 $255 0 $312 0.1499999999999999944 $293 $315 forward 7 unknown #
point $-1 12.69999999999999929 0 0 #
coedge $-1 $261 $282 $257 $300 reversed $98 $-1 #
edge $-1 $263 0 $301 3.5 $257 $316 forward 7 unknown #
vertex $-1 $311 $317 #
straight-curve $-1 0 -12.69999999999999929 0 0 0 -25.39999999999999858 I I #
plane-surface $-1 -44.44999999999999574 -12.69999999999999929 -1.904999999999999805 0 -1 0 25.39999999999999858 0 0 forward_v I I I I #
straight-curve $-1 -139.6999999999999886 -76.19999999999998863 -3.809999999999999609 15.86725420788237528 19.83406775985297088 0 I I #
point $-1 -88.89999999999999147 -12.69999999999999929 -3.809999999999999609 #
edge $-1 $268 0 $285 0.1499999999999999944 $266 $318 forward 7 unknown #
point $-1 12.69999999999999929 76.19999999999998863 0 #
straight-curve $-1 0 88.89999999999999147 0 0 0 -25.39999999999999858 I I #
cone-surface $-1 0 0 -1.904999999999999805 0 0 1 0 -12.69999999999999929 0 1 I I 0 1 12.69999999999999929 forward I I I I #
ellipse-curve $-1 -1.762479051592435909e-16 76.19999999999998863 -3.809999999999999609 0 0 -1 -3.809999999999999609 0 0 1 I I #
edge $-1 $301 0 $312 1.570796326794896558 $296 $319 forward 7 unknown #
vertex $-1 $284 $320 #
straight-curve $-1 12.69999999999999929 0 -3.809999999999999609 0 25.39999999999999858 0 I I #
point $-1 12.69999999999999929 76.19999999999998863 -3.809999999999999609 #
straight-curve $-1 12.69999999999999929 0 0 0 0 -25.39999999999999858 I I #
straight-curve $-1 -88.89999999999999147 -12.69999999999999929 -3.809999999999999609 25.39999999999999858 0 0 I I #
point $-1 0 -12.69999999999999929 -3.809999999999999609 #
straight-curve $-1 12.69999999999999929 76.19999999999998863 0 0 0 -25.39999999999999858 I I #
ellipse-curve $-1 -3.524958103184871819e-16 1.057487430955461447e-15 -3.809999999999999609 0 0 1 3.524958103184871819e-16 -12.69999999999999929 0 1 I I #
point $-1 12.69999999999999929 -7.776250346772095392e-16 -3.809999999999999609 #
End-of-ACIS-data 