600 0 1 0           
91 GICL Pro/E ACIS Translator - Source: f:/data5/repository/PTC/V18/lrgasm18/bracket.prt - 6 0 13 ACIS 6.0.3 NT 24 Thu Apr 04 10:00:34 2002 
1 9.9999999999999995e-007 1e-010 
body $-1 $1 $-1 $2 #
lump $-1 $-1 $3 $0 #
transform $-1 1 0 0 0 1 0 0 0 1 0 0 0 25.399999999999999 no_rotate no_reflect no_shear #
shell $-1 $-1 $-1 $4 $-1 $1 #
face $-1 $5 $6 $3 $-1 $7 forward single #
face $-1 $8 $9 $3 $-1 $10 reversed single #
loop $-1 $11 $12 $4 #
plane-surface $-1 0 0 0 0 0 1 1 0 0 forward_v I I I I #
face $-1 $13 $14 $3 $-1 $15 reversed single #
loop $-1 $-1 $16 $5 #
cone-surface $-1 -3 0 0 0 0 -1 -0.14999999999999999 0 0 1 I I 0 1 0.14999999999999999 forward I I I I #
loop $-1 $17 $18 $4 #
coedge $-1 $19 $19 $20 $21 forward $6 $-1 #
face $-1 $22 $23 $3 $-1 $24 reversed single #
loop $-1 $-1 $25 $8 #
cone-surface $-1 -3 0 0 0 0 -1 -0.14999999999999999 0 0 1 I I 0 1 0.14999999999999999 forward I I I I #
coedge $-1 $26 $20 $27 $28 forward $9 $-1 #
loop $-1 $29 $30 $4 #
coedge $-1 $31 $31 $32 $33 forward $11 $-1 #
coedge $-1 $12 $12 $34 $35 forward $6 $-1 #
coedge $-1 $16 $36 $12 $21 reversed $9 $-1 #
edge $-1 $37 0 $38 3.1415926535897931 $12 $39 forward 7 unknown #
face $-1 $40 $41 $3 $-1 $42 reversed single #
loop $-1 $43 $44 $13 #
plane-surface $-1 0 0 -0.14999999999999999 0 0 1 1 0 0 forward_v I I I I #
coedge $-1 $45 $34 $36 $46 forward $14 $-1 #
coedge $-1 $36 $16 $44 $47 forward $9 $-1 #
coedge $-1 $34 $45 $16 $28 reversed $14 $-1 #
edge $-1 $37 0 $48 0.14999999999999999 $27 $49 forward 7 unknown #
loop $-1 $50 $51 $4 #
coedge $-1 $52 $52 $53 $54 forward $17 $-1 #
coedge $-1 $18 $18 $55 $56 forward $11 $-1 #
coedge $-1 $57 $58 $18 $33 reversed $41 $-1 #
edge $-1 $59 0 $60 3.1415926535897931 $18 $61 forward 7 unknown #
coedge $-1 $25 $27 $19 $35 reversed $14 $-1 #
edge $-1 $38 0 $37 3.1415926535897931 $19 $62 forward 7 unknown #
coedge $-1 $20 $26 $25 $46 reversed $9 $-1 #
vertex $-1 $35 $63 #
vertex $-1 $35 $64 #
ellipse-curve $-1 -3 0 0 0 0 -1 0.15000000000000036 0 0 1 I I #
face $-1 $65 $66 $3 $-1 $67 reversed single #
loop $-1 $-1 $57 $22 #
cone-surface $-1 0 0 0 0 0 -1 -0.14999999999999999 0 0 1 I I 0 1 0.14999999999999999 forward I I I I #
loop $-1 $68 $69 $13 #
coedge $-1 $70 $70 $26 $47 reversed $23 $-1 #
coedge $-1 $27 $25 $70 $71 forward $14 $-1 #
edge $-1 $38 0 $72 0.14999999999999999 $25 $73 forward 7 unknown #
edge $-1 $48 0 $72 3.1415926535897887 $44 $74 forward 7 unknown #
vertex $-1 $71 $75 #
straight-curve $-1 -2.8500000000000001 1.8369095307335657e-017 0 0 0 -1 I I #
loop $-1 $-1 $76 $4 #
coedge $-1 $77 $78 $79 $80 forward $29 $-1 #
coedge $-1 $30 $30 $81 $82 forward $17 $-1 #
coedge $-1 $83 $84 $30 $54 reversed $85 $-1 #
edge $-1 $86 0 $87 3.1415926535897931 $30 $88 forward 7 unknown #
coedge $-1 $89 $90 $31 $56 reversed $66 $-1 #
edge $-1 $60 0 $59 3.1415926535897931 $31 $91 forward 7 unknown #
coedge $-1 $92 $32 $90 $93 forward $41 $-1 #
coedge $-1 $32 $92 $89 $94 reversed $41 $-1 #
vertex $-1 $56 $95 #
vertex $-1 $56 $96 #
ellipse-curve $-1 0 0 0 0 0 -1 0.14999999999999999 0 0 1 I I #
ellipse-curve $-1 -3 0 0 0 0 -1 -0.14999999999999991 0 0 1 I I #
point $-1 -2.8499999999999996 0 0 #
point $-1 -3.1499999999999999 0 0 #
face $-1 $97 $85 $3 $-1 $98 reversed single #
loop $-1 $-1 $89 $40 #
cone-surface $-1 0 0 0 0 0 -1 -0.14999999999999999 0 0 1 I I 0 1 0.14999999999999999 forward I I I I #
loop $-1 $99 $100 $13 #
coedge $-1 $101 $101 $92 $102 reversed $43 $-1 #
coedge $-1 $44 $44 $45 $71 reversed $23 $-1 #
edge $-1 $72 0 $48 3.1415926535897882 $70 $103 forward 7 unknown #
vertex $-1 $71 $104 #
straight-curve $-1 -3.1499999999999999 0 0 0 0 -1 I I #
ellipse-curve $-1 -3 3.2612801348363973e-016 -0.14999999999999999 0 0 -1 0.15000000000000036 -3.2612801348363973e-016 0 1 I I #
point $-1 -2.8499999999999996 0 -0.14999999999999999 #
coedge $-1 $105 $105 $106 $107 forward $50 $-1 #
coedge $-1 $108 $51 $109 $110 forward $29 $-1 #
coedge $-1 $51 $111 $112 $113 forward $29 $-1 #
coedge $-1 $114 $115 $51 $80 reversed $116 $-1 #
edge $-1 $117 0 $118 8 $51 $119 forward 7 unknown #
coedge $-1 $120 $121 $52 $82 reversed $122 $-1 #
edge $-1 $87 0 $86 3.1415926535897931 $52 $123 forward 7 unknown #
coedge $-1 $124 $53 $121 $125 forward $85 $-1 #
coedge $-1 $53 $124 $120 $126 reversed $85 $-1 #
loop $-1 $-1 $83 $65 #
vertex $-1 $82 $127 #
vertex $-1 $82 $128 #
ellipse-curve $-1 -3 3 0 0 0 -1 0.15000000000000036 0 0 1 I I #
coedge $-1 $129 $55 $58 $94 forward $66 $-1 #
coedge $-1 $55 $129 $57 $93 reversed $66 $-1 #
ellipse-curve $-1 0 0 0 0 0 -1 -0.14999999999999999 0 0 1 I I #
coedge $-1 $58 $57 $69 $102 forward $41 $-1 #
edge $-1 $59 0 $130 0.14999999999999999 $90 $131 forward 7 unknown #
edge $-1 $60 0 $132 0.14999999999999999 $89 $133 forward 7 unknown #
point $-1 0.14999999999999999 0 0 #
point $-1 -0.14999999999999999 0 0 #
face $-1 $134 $122 $3 $-1 $135 reversed single #
cone-surface $-1 -3 3 0 0 0 -1 -0.14999999999999999 0 0 1 I I 0 1 0.14999999999999999 forward I I I I #
loop $-1 $136 $137 $13 #
coedge $-1 $138 $138 $124 $139 reversed $68 $-1 #
coedge $-1 $69 $69 $129 $140 reversed $43 $-1 #
edge $-1 $130 0 $132 3.1415926535897922 $69 $141 forward 7 unknown #
ellipse-curve $-1 -3 -3.8857805861880479e-016 -0.14999999999999999 0 0 -1 -0.14999999999999991 3.8857805861880479e-016 0 1 I I #
point $-1 -3.1499999999999999 0 -0.14999999999999999 #
coedge $-1 $76 $76 $142 $143 forward $50 $-1 #
coedge $-1 $144 $145 $76 $107 reversed $146 $-1 #
edge $-1 $147 0 $148 3.1415926535897931 $76 $149 forward 7 unknown #
coedge $-1 $150 $77 $151 $152 forward $29 $-1 #
coedge $-1 $153 $154 $77 $110 reversed $155 $-1 #
edge $-1 $118 0 $156 3.2015621187164243 $77 $157 forward 7 unknown #
coedge $-1 $78 $158 $159 $160 forward $29 $-1 #
coedge $-1 $161 $162 $78 $113 reversed $163 $-1 #
edge $-1 $164 0 $117 2.5 $78 $165 forward 7 unknown #
coedge $-1 $166 $79 $162 $167 forward $116 $-1 #
coedge $-1 $79 $166 $153 $168 reversed $116 $-1 #
loop $-1 $-1 $114 $169 #
vertex $-1 $113 $170 #
vertex $-1 $110 $171 #
straight-curve $-1 -5.5 5 0 0 -1 0 I I #
coedge $-1 $172 $81 $84 $126 forward $122 $-1 #
coedge $-1 $81 $172 $83 $125 reversed $122 $-1 #
loop $-1 $-1 $120 $97 #
ellipse-curve $-1 -3 3 0 0 0 -1 -0.14999999999999991 0 0 1 I I #
coedge $-1 $84 $83 $100 $139 forward $85 $-1 #
edge $-1 $86 0 $173 0.14999999999999999 $121 $174 forward 7 unknown #
edge $-1 $87 0 $175 0.14999999999999999 $120 $176 forward 7 unknown #
point $-1 -2.8499999999999996 3 0 #
point $-1 -3.1499999999999999 3 0 #
coedge $-1 $90 $89 $101 $140 forward $66 $-1 #
vertex $-1 $140 $177 #
straight-curve $-1 0.14999999999999999 1.8369095307335657e-017 0 0 0 -1 I I #
vertex $-1 $140 $178 #
straight-curve $-1 -0.14999999999999999 0 0 0 0 -1 I I #
face $-1 $179 $180 $3 $-1 $181 forward single #
cone-surface $-1 -3 3 0 0 0 -1 -0.14999999999999999 0 0 1 I I 0 1 0.14999999999999999 forward I I I I #
loop $-1 $-1 $182 $13 #
coedge $-1 $183 $184 $185 $186 reversed $99 $-1 #
coedge $-1 $100 $100 $172 $187 reversed $68 $-1 #
edge $-1 $173 0 $175 3.1415926535897873 $100 $188 forward 7 unknown #
edge $-1 $132 0 $130 3.1415926535897922 $101 $189 forward 7 unknown #
ellipse-curve $-1 -6.9388939039072284e-018 6.2450045135165055e-017 -0.14999999999999999 0 0 -1 0.14999999999999999 -6.2450045135165055e-017 0 1 I I #
coedge $-1 $190 $191 $105 $143 reversed $192 $-1 #
edge $-1 $148 0 $147 3.1415926535897931 $105 $193 forward 7 unknown #
coedge $-1 $194 $106 $191 $195 forward $146 $-1 #
coedge $-1 $106 $194 $190 $196 reversed $146 $-1 #
loop $-1 $-1 $144 $197 #
vertex $-1 $143 $198 #
vertex $-1 $143 $199 #
ellipse-curve $-1 0 3 0 0 0 -1 0.14999999999999999 0 0 1 I I #
coedge $-1 $200 $108 $201 $202 forward $29 $-1 #
coedge $-1 $203 $204 $108 $152 reversed $205 $-1 #
edge $-1 $156 0 $206 3.5 $108 $207 forward 7 unknown #
coedge $-1 $208 $109 $115 $168 forward $155 $-1 #
coedge $-1 $109 $208 $203 $209 reversed $155 $-1 #
loop $-1 $-1 $153 $210 #
vertex $-1 $152 $211 #
straight-curve $-1 -5.5 -3 0 0.62469504755442429 0.78086880944303039 0 I I #
coedge $-1 $111 $200 $212 $213 forward $29 $-1 #
coedge $-1 $214 $215 $111 $160 reversed $180 $-1 #
edge $-1 $216 0 $164 3.5 $111 $217 forward 7 unknown #
coedge $-1 $218 $112 $215 $219 forward $163 $-1 #
coedge $-1 $112 $218 $114 $167 reversed $163 $-1 #
loop $-1 $-1 $161 $220 #
vertex $-1 $113 $221 #
straight-curve $-1 -3.5 3.5 0 -0.80000000000000004 0.59999999999999998 0 I I #
coedge $-1 $115 $114 $222 $223 forward $116 $-1 #
edge $-1 $117 0 $224 0.14999999999999999 $162 $225 forward 7 unknown #
edge $-1 $118 0 $226 0.14999999999999999 $153 $227 forward 7 unknown #
face $-1 $220 $116 $3 $-1 $228 forward single #
point $-1 -5.5 5 0 #
point $-1 -5.5 -3 0 #
coedge $-1 $121 $120 $138 $187 forward $122 $-1 #
vertex $-1 $187 $229 #
straight-curve $-1 -2.8500000000000001 3 0 0 0 -1 I I #
vertex $-1 $187 $230 #
straight-curve $-1 -3.1499999999999999 3 0 0 0 -1 I I #
point $-1 0.14999999999999999 0 -0.14999999999999999 #
point $-1 -0.14999999999999999 0 -0.14999999999999999 #
face $-1 $231 $232 $3 $-1 $233 forward single #
loop $-1 $-1 $214 $134 #
plane-surface $-1 -1.75 3.5 -0.074999999999999997 0 1 0 -1 0 0 forward_v I I I I #
coedge $-1 $234 $234 $194 $235 reversed $136 $-1 #
coedge $-1 $236 $137 $237 $238 reversed $99 $-1 #
coedge $-1 $137 $222 $218 $239 reversed $99 $-1 #
coedge $-1 $215 $214 $137 $186 forward $180 $-1 #
edge $-1 $240 -3.0615158845559431e-017 $241 3.5 $185 $242 forward 7 unknown #
edge $-1 $175 0 $173 3.1415926535897873 $138 $243 forward 7 unknown #
ellipse-curve $-1 -3 3.0000000000000004 -0.14999999999999999 0 0 -1 0.15000000000000036 -4.4408920985006262e-016 0 1 I I #
ellipse-curve $-1 -6.9388939039072284e-018 -6.9388939039072284e-017 -0.14999999999999999 0 0 -1 -0.14999999999999999 6.9388939039072284e-017 0 1 I I #
coedge $-1 $244 $142 $145 $196 forward $192 $-1 #
coedge $-1 $142 $244 $144 $195 reversed $192 $-1 #
loop $-1 $-1 $190 $245 #
ellipse-curve $-1 0 3 0 0 0 -1 -0.14999999999999999 0 0 1 I I #
coedge $-1 $145 $144 $182 $235 forward $146 $-1 #
edge $-1 $147 0 $246 0.14999999999999999 $191 $247 forward 7 unknown #
edge $-1 $148 0 $248 0.14999999999999999 $190 $249 forward 7 unknown #
face $-1 $245 $146 $3 $-1 $250 reversed single #
point $-1 0.14999999999999999 3 0 #
point $-1 -0.14999999999999999 3 0 #
coedge $-1 $158 $150 $251 $252 forward $29 $-1 #
coedge $-1 $253 $254 $150 $202 reversed $255 $-1 #
edge $-1 $206 0 $256 1.5707963267948966 $150 $257 forward 7 unknown #
coedge $-1 $258 $151 $154 $209 forward $205 $-1 #
coedge $-1 $151 $258 $253 $259 reversed $205 $-1 #
loop $-1 $-1 $203 $260 #
vertex $-1 $202 $261 #
straight-curve $-1 -3.5 -0.5 0 1 0 0 I I #
coedge $-1 $154 $153 $262 $263 forward $155 $-1 #
edge $-1 $156 0 $264 0.14999999999999999 $203 $265 forward 7 unknown #
face $-1 $169 $155 $3 $-1 $266 forward single #
point $-1 -3.5 -0.5 0 #
coedge $-1 $267 $268 $158 $213 reversed $232 $-1 #
edge $-1 $269 0 $216 1.5707963267948983 $158 $270 forward 7 unknown #
coedge $-1 $185 $159 $268 $271 forward $180 $-1 #
coedge $-1 $159 $185 $161 $219 reversed $180 $-1 #
vertex $-1 $160 $272 #
straight-curve $-1 0 3.5 0 -1 0 0 I I #
coedge $-1 $162 $161 $184 $239 forward $163 $-1 #
edge $-1 $164 0 $241 0.14999999999999999 $161 $273 forward 7 unknown #
face $-1 $197 $163 $3 $-1 $274 forward single #
point $-1 -3.5 3.5 0 #
coedge $-1 $184 $262 $166 $223 reversed $99 $-1 #
edge $-1 $224 0 $226 8 $166 $275 forward 7 unknown #
vertex $-1 $167 $276 #
straight-curve $-1 -5.5 5 0 0 0 -1 I I #
vertex $-1 $263 $277 #
straight-curve $-1 -5.5 -3 0 0 0 -1 I I #
plane-surface $-1 -5.5 1 -0.074999999999999997 -1 0 0 0 -1 0 forward_v I I I I #
point $-1 -2.8499999999999996 3 -0.14999999999999999 #
point $-1 -3.1499999999999999 3 -0.14999999999999999 #
face $-1 $278 $279 $3 $-1 $280 forward single #
loop $-1 $-1 $267 $179 #
cone-surface $-1 0 3 -0.074999999999999997 0 0 1 0.5 0 0 1 I I 0 1 0.5 forward I I I I #
coedge $-1 $182 $182 $244 $281 reversed $136 $-1 #
edge $-1 $246 0 $248 3.1415926535897931 $182 $282 forward 7 unknown #
coedge $-1 $283 $183 $284 $285 reversed $99 $-1 #
coedge $-1 $268 $267 $183 $238 forward $232 $-1 #
edge $-1 $286 0 $240 1.5707963267948983 $237 $287 forward 7 unknown #
edge $-1 $241 0 $224 2.5 $218 $288 forward 7 unknown #
vertex $-1 $186 $289 #
vertex $-1 $239 $290 #
straight-curve $-1 0 3.5 -0.14999999999999999 -1 0 0 I I #
ellipse-curve $-1 -3 2.9999999999999996 -0.14999999999999999 0 0 -1 -0.14999999999999991 4.4408920985006262e-016 0 1 I I #
coedge $-1 $191 $190 $234 $281 forward $192 $-1 #
face $-1 $-1 $192 $3 $-1 $291 reversed single #
vertex $-1 $281 $292 #
straight-curve $-1 0.14999999999999999 3 0 0 0 -1 I I #
vertex $-1 $281 $293 #
straight-curve $-1 -0.14999999999999999 3 0 0 0 -1 I I #
cone-surface $-1 0 3 0 0 0 -1 -0.14999999999999999 0 0 1 I I 0 1 0.14999999999999999 forward I I I I #
coedge $-1 $294 $295 $200 $252 reversed $279 $-1 #
edge $-1 $256 0 $269 3 $200 $296 forward 7 unknown #
coedge $-1 $297 $201 $204 $259 forward $255 $-1 #
coedge $-1 $201 $297 $294 $298 reversed $255 $-1 #
loop $-1 $-1 $253 $278 #
vertex $-1 $252 $299 #
ellipse-curve $-1 -1.3877787807814457e-017 4.163336342344337e-017 0 0 0 1 1.3877787807814457e-017 -0.5 0 1 I I #
coedge $-1 $204 $203 $300 $301 forward $205 $-1 #
edge $-1 $206 0 $302 0.14999999999999999 $253 $303 forward 7 unknown #
face $-1 $210 $205 $3 $-1 $304 forward single #
point $-1 0 -0.5 0 #
coedge $-1 $222 $300 $208 $263 reversed $99 $-1 #
edge $-1 $226 0 $264 3.2015621187164243 $208 $305 forward 7 unknown #
vertex $-1 $301 $306 #
straight-curve $-1 -3.5 -0.5 0 0 0 -1 I I #
plane-surface $-1 -4.5 -1.75 -0.074999999999999997 0.78086880944303039 -0.62469504755442429 0 0.62469504755442429 0.78086880944303039 0 forward_v I I I I #
coedge $-1 $237 $212 $295 $307 forward $232 $-1 #
coedge $-1 $212 $237 $214 $271 reversed $232 $-1 #
vertex $-1 $213 $308 #
ellipse-curve $-1 3.8857805861880479e-016 3.0000000000000004 0 0 0 1 0.49999999999999961 -4.4408920985006262e-016 0 1 I I #
edge $-1 $216 0 $240 0.14999999999999999 $214 $309 forward 7 unknown #
point $-1 0 3.5 0 #
straight-curve $-1 -3.5 3.5 0 0 0 -1 I I #
plane-surface $-1 -4.5 4.25 -0.074999999999999997 0.60000000000000009 0.80000000000000004 0 -0.79999999999999993 0.59999999999999998 0 forward_v I I I I #
straight-curve $-1 -5.5 5 -0.14999999999999999 0 -1 0 I I #
point $-1 -5.5 5 -0.14999999999999999 #
point $-1 -5.5 -3 -0.14999999999999999 #
face $-1 $260 $255 $3 $-1 $310 forward single #
loop $-1 $-1 $294 $231 #
plane-surface $-1 0.5 1.5 -0.074999999999999997 1 0 0 0 1 0 forward_v I I I I #
edge $-1 $248 0 $246 3.1415926535897931 $234 $311 forward 7 unknown #
ellipse-curve $-1 -6.9388939039072284e-018 3 -0.14999999999999999 0 0 -1 0.14999999999999999 0 0 1 I I #
coedge $-1 $300 $236 $297 $312 reversed $99 $-1 #
coedge $-1 $295 $294 $236 $285 forward $279 $-1 #
edge $-1 $313 -3.0615158845559431e-017 $286 3 $284 $314 forward 7 unknown #
vertex $-1 $238 $315 #
ellipse-curve $-1 3.8857805861880479e-016 3.0000000000000004 -0.14999999999999999 0 0 1 0.49999999999999961 -4.4408920985006262e-016 0 1 I I #
straight-curve $-1 -3.5 3.5 -0.14999999999999999 -0.80000000000000004 0.59999999999999998 0 I I #
point $-1 3.0615158845559431e-017 3.5 -0.14999999999999999 #
point $-1 -3.5 3.5 -0.14999999999999999 #
cone-surface $-1 0 3 0 0 0 -1 -0.14999999999999999 0 0 1 I I 0 1 0.14999999999999999 forward I I I I #
point $-1 0.14999999999999999 3 -0.14999999999999999 #
point $-1 -0.14999999999999999 3 -0.14999999999999999 #
coedge $-1 $284 $251 $254 $298 forward $279 $-1 #
coedge $-1 $251 $284 $267 $307 reversed $279 $-1 #
straight-curve $-1 0.5 0 0 0 1 0 I I #
coedge $-1 $254 $253 $283 $312 forward $255 $-1 #
edge $-1 $256 0 $313 0.14999999999999999 $294 $316 forward 7 unknown #
point $-1 0.5 0 0 #
coedge $-1 $262 $283 $258 $301 reversed $99 $-1 #
edge $-1 $264 0 $302 3.5 $258 $317 forward 7 unknown #
vertex $-1 $312 $318 #
straight-curve $-1 0 -0.5 0 0 0 -1 I I #
plane-surface $-1 -1.75 -0.5 -0.074999999999999997 0 -1 0 1 0 0 forward_v I I I I #
straight-curve $-1 -5.5 -3 -0.14999999999999999 0.62469504755442429 0.78086880944303039 0 I I #
point $-1 -3.5 -0.5 -0.14999999999999999 #
edge $-1 $269 0 $286 0.14999999999999999 $267 $319 forward 7 unknown #
point $-1 0.5 3 0 #
straight-curve $-1 0 3.5 0 0 0 -1 I I #
cone-surface $-1 0 0 -0.074999999999999997 0 0 1 0 -0.5 0 1 I I 0 1 0.5 forward I I I I #
ellipse-curve $-1 -6.9388939039072284e-018 3 -0.14999999999999999 0 0 -1 -0.14999999999999999 0 0 1 I I #
edge $-1 $302 0 $313 1.5707963267948966 $297 $320 forward 7 unknown #
vertex $-1 $285 $321 #
straight-curve $-1 0.5 0 -0.14999999999999999 0 1 0 I I #
point $-1 0.5 3 -0.14999999999999999 #
straight-curve $-1 0.5 0 0 0 0 -1 I I #
straight-curve $-1 -3.5 -0.5 -0.14999999999999999 1 0 0 I I #
point $-1 0 -0.5 -0.14999999999999999 #
straight-curve $-1 0.5 3 0 0 0 -1 I I #
ellipse-curve $-1 -1.3877787807814457e-017 4.163336342344337e-017 -0.14999999999999999 0 0 1 1.3877787807814457e-017 -0.5 0 1 I I #
point $-1 0.5 -3.0615158845559431e-017 -0.14999999999999999 #
End-of-ACIS-data 