700 0 2 0           
24 FBMach with ACIS - 7.0.3 13 ACIS 7.0.3 NT 24 Wed May 15 17:28:12 2002 
1 9.9999999999999995e-007 1e-010 
body $2 -1 $-1 $3 $-1 $4 #
bdycol-kcp $-1 -1 1 7 $5 $6 $7 $8 $9 $10 $11 #
model_id-kcp-attrib $-1 -1 $-1 $-1 $0 1 1021498091 1021498091 -95158271 1 #
lump $-1 -1 $-1 $-1 $12 $0 #
transform $-1 -1 1 0 0 0 1 0 0 0 1 0 0 0 1 rotate no_reflect no_shear #
body $13 -1 $-1 $14 $-1 $15 #
body $16 -1 $-1 $17 $-1 $-1 #
body $18 -1 $-1 $19 $-1 $-1 #
body $20 -1 $-1 $21 $-1 $22 #
body $23 -1 $-1 $24 $-1 $25 #
body $26 -1 $-1 $27 $-1 $28 #
body $29 -1 $-1 $30 $-1 $31 #
shell $-1 -1 $-1 $-1 $-1 $32 $-1 $3 #
model_id-kcp-attrib $-1 -1 $-1 $-1 $5 1 1021498091 1021498091 -95158270 1 #
lump $-1 -1 $-1 $-1 $33 $5 #
transform $-1 -1 1 0 0 0 1 0 0 0 1 -63.499999999999993 25.400000000000006 -1.9049999999999998 1 no_rotate no_reflect no_shear #
rgb_color-st-attrib $-1 -1 $34 $-1 $6 0.5 1 1 #
lump $-1 -1 $-1 $-1 $35 $6 #
rgb_color-st-attrib $-1 -1 $36 $-1 $7 0.5 1 1 #
lump $-1 -1 $-1 $-1 $37 $7 #
rgb_color-st-attrib $-1 -1 $38 $-1 $8 0.5 1 1 #
lump $-1 -1 $-1 $-1 $39 $8 #
transform $-1 -1 1 0 0 0 1 0 0 0 1 0 0 0 1 no_rotate no_reflect no_shear #
rgb_color-st-attrib $-1 -1 $40 $-1 $9 0.5 1 1 #
lump $-1 -1 $-1 $-1 $41 $9 #
transform $-1 -1 1 0 0 0 1 0 0 0 1 0 0 0 1 no_rotate no_reflect no_shear #
rgb_color-st-attrib $-1 -1 $42 $-1 $10 0.5 1 1 #
lump $-1 -1 $-1 $-1 $43 $10 #
transform $-1 -1 1 0 0 0 1 0 0 0 1 0 0 0 1 no_rotate no_reflect no_shear #
rgb_color-st-attrib $-1 -1 $44 $-1 $11 0.5 1 1 #
lump $-1 -1 $-1 $-1 $45 $11 #
transform $-1 -1 1 0 0 0 1 0 0 0 1 0 0 0 1 no_rotate no_reflect no_shear #
face $46 -1 $-1 $47 $48 $12 $-1 $49 forward single #
shell $-1 -1 $-1 $-1 $-1 $50 $-1 $14 #
model_id-kcp-attrib $-1 -1 $-1 $16 $6 1 1021498091 1021498091 -85983229 1 #
shell $-1 -1 $-1 $-1 $-1 $51 $-1 $17 #
model_id-kcp-attrib $-1 -1 $-1 $18 $7 1 1021498091 1021498092 -99876860 1 #
shell $-1 -1 $-1 $-1 $-1 $52 $-1 $19 #
model_id-kcp-attrib $-1 -1 $-1 $20 $8 1 1021498091 1021498092 -96600059 1 #
shell $-1 -1 $-1 $-1 $-1 $53 $-1 $21 #
model_id-kcp-attrib $-1 -1 $-1 $23 $9 1 1021498091 1021498092 -94633978 1 #
shell $-1 -1 $-1 $-1 $-1 $54 $-1 $24 #
model_id-kcp-attrib $-1 -1 $-1 $26 $10 1 1021498091 1021498092 -92012537 1 #
shell $-1 -1 $-1 $-1 $-1 $55 $-1 $27 #
model_id-kcp-attrib $-1 -1 $-1 $29 $11 1 1021498091 1021498092 -90046456 1 #
shell $-1 -1 $-1 $-1 $-1 $56 $-1 $30 #
model_id-kcp-attrib $-1 -1 $-1 $-1 $32 1 1021498091 1021498091 -95158271 2 #
face $57 -1 $-1 $58 $59 $12 $-1 $60 reversed single #
loop $-1 -1 $-1 $61 $62 $32 #
plane-surface $-1 -1 $-1 0 0 0 0 0 1 25.399999999999999 0 0 forward_v I I I I #
face $63 -1 $-1 $64 $65 $33 $-1 $66 forward single #
face $-1 -1 $-1 $67 $68 $35 $-1 $69 forward single #
face $-1 -1 $-1 $70 $71 $37 $-1 $72 forward single #
face $-1 -1 $-1 $73 $74 $39 $-1 $75 forward single #
face $-1 -1 $-1 $76 $77 $41 $-1 $78 forward single #
face $-1 -1 $-1 $79 $80 $43 $-1 $81 forward single #
face $-1 -1 $-1 $82 $83 $45 $-1 $84 forward single #
model_id-kcp-attrib $-1 -1 $-1 $-1 $47 1 1021498091 1021498091 -95158271 3 #
face $85 -1 $-1 $86 $87 $12 $-1 $88 reversed single #
loop $-1 -1 $-1 $-1 $89 $47 #
cone-surface $-1 -1 $-1 -76.199999999999989 0 0 0 0 -1 -3.8099999999999996 0 0 1 I I 0 1 3.8099999999999996 forward I I I I #
loop $-1 -1 $-1 $90 $91 $32 #
coedge $-1 -1 $-1 $92 $92 $93 $94 forward $48 $-1 #
model_id-kcp-attrib $-1 -1 $-1 $-1 $50 1 1021498091 1021498091 -95158270 2 #
face $95 -1 $-1 $96 $97 $33 $-1 $98 reversed single #
loop $-1 -1 $-1 $-1 $99 $50 #
plane-surface $-1 -1 $-1 0 0 1.9049999999999998 0 0 1 1 0 0 forward_v I I I I #
face $-1 -1 $-1 $100 $101 $35 $-1 $102 forward single #
loop $-1 -1 $-1 $-1 $103 $51 #
plane-surface $-1 -1 $-1 12.699999999999999 76.199999999999989 0 1 2.7974123455122049e-016 0 0 0 -1 forward_v I I I I #
face $-1 -1 $-1 $104 $105 $37 $-1 $106 forward single #
loop $-1 -1 $-1 $-1 $107 $52 #
plane-surface $-1 -1 $-1 0 -12.699999999999999 0 -2.7974123455122054e-016 -1 0 0 0 -1 forward_v I I I I #
face $-1 -1 $-1 $108 $109 $39 $-1 $110 reversed single #
loop $-1 -1 $-1 $111 $112 $53 #
cone-surface $-1 -1 $-1 -76.199999999999989 0 0 0 0 -1 3.8100000000000089 0 0 1 I I 0 1 3.8100000000000089 forward I I I I #
face $-1 -1 $-1 $113 $114 $41 $-1 $115 reversed single #
loop $-1 -1 $-1 $116 $117 $54 #
cone-surface $-1 -1 $-1 0 0 0 0 0 -1 3.8099999999999996 0 0 1 I I 0 1 3.8099999999999996 forward I I I I #
face $-1 -1 $-1 $118 $119 $43 $-1 $120 reversed single #
loop $-1 -1 $-1 $121 $122 $55 #
cone-surface $-1 -1 $-1 -76.199999999999989 76.199999999999989 0 0 0 -1 3.8100000000000089 0 0 1 I I 0 1 3.8100000000000089 forward I I I I #
face $-1 -1 $-1 $123 $124 $45 $-1 $125 reversed single #
loop $-1 -1 $-1 $126 $127 $56 #
cone-surface $-1 -1 $-1 0 76.199999999999989 0 0 0 -1 3.8099999999999996 0 0 1 I I 0 1 3.8099999999999996 forward I I I I #
model_id-kcp-attrib $-1 -1 $-1 $-1 $58 1 1021498091 1021498091 -95158271 4 #
face $128 -1 $-1 $129 $130 $12 $-1 $131 reversed single #
loop $-1 -1 $-1 $-1 $132 $58 #
cone-surface $-1 -1 $-1 -76.199999999999989 0 0 0 0 -1 -3.8099999999999996 0 0 1 I I 0 1 3.8099999999999996 forward I I I I #
coedge $-1 -1 $-1 $133 $93 $134 $135 forward $59 $-1 #
loop $-1 -1 $-1 $136 $137 $32 #
coedge $-1 -1 $-1 $138 $138 $139 $140 forward $61 $-1 #
coedge $-1 -1 $-1 $62 $62 $141 $142 forward $48 $-1 #
coedge $-1 -1 $-1 $89 $143 $62 $94 reversed $59 $-1 #
edge $144 -1 $-1 $145 0 $146 3.1415926535897931 $62 $147 forward @7 unknown #
model_id-kcp-attrib $-1 -1 $-1 $-1 $64 1 1021498091 1021498091 -95158270 3 #
face $-1 -1 $-1 $148 $149 $33 $-1 $150 reversed single #
loop $-1 -1 $-1 $-1 $151 $64 #
plane-surface $-1 -1 $-1 0 0 -1.9049999999999998 0 0 1 1 0 0 forward_v I I I I #
coedge $-1 -1 $-1 $152 $153 $154 $155 forward $65 $-1 #
face $-1 -1 $-1 $156 $157 $35 $-1 $158 forward single #
loop $-1 -1 $-1 $-1 $159 $67 #
plane-surface $-1 -1 $-1 12.699999999999996 88.899999999999991 0 0 1 0 0 0 1 forward_v I I I I #
coedge $-1 -1 $-1 $160 $161 $162 $163 forward $68 $-1 #
face $-1 -1 $-1 $164 $165 $37 $-1 $166 forward single #
loop $-1 -1 $-1 $-1 $167 $70 #
plane-surface $-1 -1 $-1 12.699999999999999 -12.700000000000003 0 1 0 0 0 0 -1 forward_v I I I I #
coedge $-1 -1 $-1 $168 $169 $170 $171 forward $71 $-1 #
face $-1 -1 $-1 $-1 $172 $39 $-1 $173 forward single #
loop $-1 -1 $-1 $-1 $174 $73 #
plane-surface $-1 -1 $-1 -76.199999999999989 -6.6613381477509392e-015 -3.8099999999999996 0 0 1 1 0 0 forward_v I I I I #
loop $-1 -1 $-1 $-1 $175 $53 #
coedge $-1 -1 $-1 $112 $112 $174 $176 forward $74 $-1 #
face $-1 -1 $-1 $-1 $177 $41 $-1 $178 forward single #
loop $-1 -1 $-1 $-1 $179 $76 #
plane-surface $-1 -1 $-1 0 0 -3.8099999999999996 0 0 1 1 0 0 forward_v I I I I #
loop $-1 -1 $-1 $-1 $180 $54 #
coedge $-1 -1 $-1 $117 $117 $179 $181 forward $77 $-1 #
face $-1 -1 $-1 $-1 $182 $43 $-1 $183 forward single #
loop $-1 -1 $-1 $-1 $184 $79 #
plane-surface $-1 -1 $-1 -76.199999999999989 76.199999999999989 -3.8099999999999996 0 0 1 1 0 0 forward_v I I I I #
loop $-1 -1 $-1 $-1 $185 $55 #
coedge $-1 -1 $-1 $122 $122 $184 $186 forward $80 $-1 #
face $-1 -1 $-1 $-1 $187 $45 $-1 $188 forward single #
loop $-1 -1 $-1 $-1 $189 $82 #
plane-surface $-1 -1 $-1 0 76.199999999999989 -3.8099999999999996 0 0 1 1 0 0 forward_v I I I I #
loop $-1 -1 $-1 $-1 $190 $56 #
coedge $-1 -1 $-1 $127 $127 $189 $191 forward $83 $-1 #
model_id-kcp-attrib $-1 -1 $-1 $-1 $86 1 1021498091 1021498091 -95158271 5 #
face $192 -1 $-1 $193 $194 $12 $-1 $195 reversed single #
loop $-1 -1 $-1 $196 $197 $86 #
plane-surface $-1 -1 $-1 0 0 -3.8099999999999996 0 0 1 25.399999999999999 0 0 forward_v I I I I #
coedge $-1 -1 $-1 $198 $141 $143 $199 forward $87 $-1 #
coedge $-1 -1 $-1 $143 $89 $197 $200 forward $59 $-1 #
coedge $-1 -1 $-1 $141 $198 $89 $135 reversed $87 $-1 #
edge $-1 -1 $-1 $145 0 $201 0.14999999999999999 $134 $202 forward @7 unknown #
loop $-1 -1 $-1 $203 $204 $32 #
coedge $-1 -1 $-1 $205 $205 $206 $207 forward $90 $-1 #
coedge $-1 -1 $-1 $91 $91 $208 $209 forward $61 $-1 #
coedge $-1 -1 $-1 $210 $211 $91 $140 reversed $194 $-1 #
edge $212 -1 $-1 $213 0 $214 3.1415926535897931 $91 $215 forward @7 unknown #
coedge $-1 -1 $-1 $132 $134 $92 $142 reversed $87 $-1 #
edge $216 -1 $-1 $146 0 $145 3.1415926535897931 $92 $217 forward @7 unknown #
coedge $-1 -1 $-1 $93 $133 $132 $199 reversed $59 $-1 #
attrib_edge_convexity-kcp-attrib $-1 -1 $218 $-1 $94 1 #
vertex $-1 -1 $-1 $142 $219 #
vertex $-1 -1 $-1 $142 $220 #
ellipse-curve $-1 -1 $-1 -76.199999999999989 0 0 0 0 -1 3.8100000000000089 0 0 1 I I #
face $221 -1 $-1 $222 $223 $33 $-1 $224 reversed single #
loop $-1 -1 $-1 $-1 $225 $96 #
plane-surface $-1 -1 $-1 0 -101.59999999999999 0 0 1 0 0 0 1 forward_v I I I I #
coedge $-1 -1 $-1 $226 $227 $228 $229 forward $97 $-1 #
coedge $-1 -1 $-1 $230 $99 $231 $232 forward $65 $-1 #
coedge $-1 -1 $-1 $99 $230 $233 $234 forward $65 $-1 #
coedge $-1 -1 $-1 $235 $236 $99 $155 reversed $237 $-1 #
edge $-1 -1 $-1 $238 -101.59999999999999 $239 101.59999999999999 $154 $240 forward @7 unknown #
face $-1 -1 $-1 $241 $242 $35 $-1 $243 reversed single #
loop $-1 -1 $-1 $-1 $244 $100 #
cone-surface $-1 -1 $-1 9.8698826889176407e-015 76.200000000000003 0 0 0 -1 12.699999999999989 -1.127986593019159e-014 0 1 I I 0 -1 12.699999999999989 forward I I I I #
coedge $-1 -1 $-1 $245 $246 $247 $248 forward $101 $-1 #
coedge $-1 -1 $-1 $249 $103 $246 $250 reversed $68 $-1 #
coedge $-1 -1 $-1 $103 $249 $251 $252 forward $68 $-1 #
coedge $-1 -1 $-1 $253 $247 $103 $163 reversed $242 $-1 #
edge $-1 -1 $-1 $254 0 $255 12.700000000000003 $103 $256 forward @7 unknown #
face $-1 -1 $-1 $257 $258 $37 $-1 $259 reversed single #
loop $-1 -1 $-1 $-1 $260 $104 #
cone-surface $-1 -1 $-1 -3.5249581031848718e-016 1.0574874309554614e-015 0 0 0 -1 3.5249581031848718e-016 -12.699999999999999 0 1 I I 0 -1 12.699999999999999 forward I I I I #
coedge $-1 -1 $-1 $261 $262 $263 $264 forward $105 $-1 #
coedge $-1 -1 $-1 $265 $107 $262 $266 reversed $71 $-1 #
coedge $-1 -1 $-1 $107 $265 $267 $268 forward $71 $-1 #
coedge $-1 -1 $-1 $269 $263 $107 $171 reversed $258 $-1 #
edge $-1 -1 $-1 $270 0 $271 12.699999999999999 $107 $272 forward @7 unknown #
loop $-1 -1 $-1 $-1 $273 $108 #
plane-surface $-1 -1 $-1 -76.199999999999989 -6.6613381477509392e-015 0 0 0 1 1 0 0 forward_v I I I I #
coedge $-1 -1 $-1 $174 $174 $112 $176 reversed $109 $-1 #
coedge $-1 -1 $-1 $175 $175 $273 $274 forward $111 $-1 #
edge $-1 -1 $-1 $275 0 $275 6.2831853071795862 $112 $276 forward @7 unknown #
loop $-1 -1 $-1 $-1 $277 $113 #
plane-surface $-1 -1 $-1 0 0 0 0 0 1 1 0 0 forward_v I I I I #
coedge $-1 -1 $-1 $179 $179 $117 $181 reversed $114 $-1 #
coedge $-1 -1 $-1 $180 $180 $277 $278 forward $116 $-1 #
edge $-1 -1 $-1 $279 0 $279 6.2831853071795862 $117 $280 forward @7 unknown #
loop $-1 -1 $-1 $-1 $281 $118 #
plane-surface $-1 -1 $-1 -76.199999999999989 76.199999999999989 0 0 0 1 1 0 0 forward_v I I I I #
coedge $-1 -1 $-1 $184 $184 $122 $186 reversed $119 $-1 #
coedge $-1 -1 $-1 $185 $185 $281 $282 forward $121 $-1 #
edge $-1 -1 $-1 $283 0 $283 6.2831853071795862 $122 $284 forward @7 unknown #
loop $-1 -1 $-1 $-1 $285 $123 #
plane-surface $-1 -1 $-1 0 76.199999999999989 0 0 0 1 1 0 0 forward_v I I I I #
coedge $-1 -1 $-1 $189 $189 $127 $191 reversed $124 $-1 #
coedge $-1 -1 $-1 $190 $190 $285 $286 forward $126 $-1 #
edge $-1 -1 $-1 $287 0 $287 6.2831853071795862 $127 $288 forward @7 unknown #
model_id-kcp-attrib $-1 -1 $-1 $-1 $129 1 1021498091 1021498091 -95158271 6 #
face $289 -1 $-1 $290 $291 $12 $-1 $292 reversed single #
loop $-1 -1 $-1 $-1 $210 $129 #
cone-surface $-1 -1 $-1 0 0 0 0 0 -1 -3.8099999999999996 0 0 1 I I 0 1 3.8099999999999996 forward I I I I #
loop $-1 -1 $-1 $293 $294 $86 #
coedge $-1 -1 $-1 $295 $295 $133 $200 reversed $130 $-1 #
coedge $-1 -1 $-1 $134 $132 $295 $296 forward $87 $-1 #
edge $-1 -1 $-1 $146 0 $297 0.14999999999999999 $132 $298 forward @7 unknown #
edge $-1 -1 $-1 $201 3.9127579154120383e-030 $297 3.1415926535897887 $197 $299 forward @7 unknown #
vertex $-1 -1 $-1 $296 $300 #
straight-curve $-1 -1 $-1 -72.390000000000001 4.6657502080632568e-016 0 0 0 -25.399999999999999 I I #
loop $-1 -1 $-1 $-1 $301 $32 #
coedge $-1 -1 $-1 $302 $303 $304 $305 forward $136 $-1 #
coedge $-1 -1 $-1 $137 $137 $306 $307 forward $90 $-1 #
coedge $-1 -1 $-1 $308 $309 $137 $207 reversed $310 $-1 #
edge $311 -1 $-1 $312 0 $313 3.1415926535897931 $137 $314 forward @7 unknown #
coedge $-1 -1 $-1 $315 $316 $138 $209 reversed $291 $-1 #
edge $317 -1 $-1 $214 0 $213 3.1415926535897931 $138 $318 forward @7 unknown #
coedge $-1 -1 $-1 $319 $139 $316 $320 forward $194 $-1 #
coedge $-1 -1 $-1 $139 $319 $315 $321 reversed $194 $-1 #
attrib_edge_convexity-kcp-attrib $-1 -1 $322 $-1 $140 1 #
vertex $-1 -1 $-1 $209 $323 #
vertex $-1 -1 $-1 $209 $324 #
ellipse-curve $-1 -1 $-1 0 0 0 0 0 -1 3.8099999999999996 0 0 1 I I #
attrib_edge_convexity-kcp-attrib $-1 -1 $325 $-1 $142 1 #
ellipse-curve $-1 -1 $-1 -76.199999999999989 0 0 0 0 -1 -3.8099999999999974 0 0 1 I I #
convexity-sys-attrib $-1 -1 $-1 $144 $94 #
point $-1 -1 $-1 -72.389999999999986 0 0 #
point $-1 -1 $-1 -80.009999999999991 0 0 #
model_id-kcp-attrib $-1 -1 $-1 $-1 $148 1 1021498091 1021498091 -95158270 5 #
face $-1 -1 $-1 $326 $327 $33 $-1 $328 reversed single #
loop $-1 -1 $-1 $-1 $329 $148 #
plane-surface $-1 -1 $-1 -76.199999999999989 0 0 1 0 0 0 0 -1 forward_v I I I I #
coedge $-1 -1 $-1 $330 $233 $331 $332 forward $149 $-1 #
coedge $-1 -1 $-1 $333 $151 $330 $334 forward $97 $-1 #
coedge $-1 -1 $-1 $151 $333 $335 $336 forward $97 $-1 #
coedge $-1 -1 $-1 $236 $235 $151 $229 reversed $237 $-1 #
edge $-1 -1 $-1 $337 -101.59999999999999 $338 101.59999999999999 $228 $339 forward @7 unknown #
coedge $-1 -1 $-1 $153 $152 $340 $341 forward $65 $-1 #
coedge $-1 -1 $-1 $342 $343 $152 $232 reversed $327 $-1 #
edge $-1 -1 $-1 $239 -76.199999999999989 $344 76.199999999999989 $231 $345 forward @7 unknown #
coedge $-1 -1 $-1 $225 $346 $153 $234 reversed $149 $-1 #
edge $-1 -1 $-1 $347 -76.199999999999989 $238 76.199999999999989 $233 $348 forward @7 unknown #
coedge $-1 -1 $-1 $228 $154 $346 $349 forward $237 $-1 #
coedge $-1 -1 $-1 $154 $228 $342 $350 reversed $237 $-1 #
loop $-1 -1 $-1 $-1 $235 $326 #
vertex $-1 -1 $-1 $155 $351 #
vertex $-1 -1 $-1 $155 $352 #
straight-curve $-1 -1 $-1 76.199999999999989 0 1.9049999999999998 0 1 0 I I #
face $-1 -1 $-1 $-1 $353 $35 $-1 $354 forward single #
loop $-1 -1 $-1 $-1 $162 $156 #
plane-surface $-1 -1 $-1 8.8155359159683506 85.015535915968343 -3.8099999999999996 0 0 1 1 0 0 forward_v I I I I #
coedge $-1 -1 $-1 $251 $355 $253 $356 forward $157 $-1 #
coedge $-1 -1 $-1 $357 $159 $355 $358 reversed $101 $-1 #
coedge $-1 -1 $-1 $159 $357 $160 $250 forward $101 $-1 #
coedge $-1 -1 $-1 $162 $253 $159 $248 reversed $242 $-1 #
edge $-1 -1 $-1 $255 0 $359 12.699999999999996 $159 $360 forward @7 unknown #
coedge $-1 -1 $-1 $161 $160 $361 $362 reversed $68 $-1 #
edge $-1 -1 $-1 $363 0 $255 3.8099999999999996 $246 $364 forward @7 unknown #
coedge $-1 -1 $-1 $365 $244 $161 $252 reversed $157 $-1 #
edge $-1 -1 $-1 $366 0 $254 3.8099999999999996 $161 $367 forward @7 unknown #
coedge $-1 -1 $-1 $247 $162 $244 $356 reversed $242 $-1 #
vertex $-1 -1 $-1 $252 $368 #
vertex $-1 -1 $-1 $250 $369 #
straight-curve $-1 -1 $-1 12.699999999999999 76.199999999999989 -3.8099999999999996 -2.7974123455122049e-016 1 0 I I #
face $-1 -1 $-1 $-1 $370 $37 $-1 $371 forward single #
loop $-1 -1 $-1 $-1 $170 $164 #
plane-surface $-1 -1 $-1 8.8155359159683506 -8.8155359159683506 -3.8099999999999996 0 0 1 1 0 0 forward_v I I I I #
coedge $-1 -1 $-1 $267 $372 $269 $373 forward $165 $-1 #
coedge $-1 -1 $-1 $374 $167 $372 $375 reversed $105 $-1 #
coedge $-1 -1 $-1 $167 $374 $168 $266 forward $105 $-1 #
coedge $-1 -1 $-1 $170 $269 $167 $264 reversed $258 $-1 #
edge $-1 -1 $-1 $271 0 $376 12.700000000000003 $167 $377 forward @7 unknown #
coedge $-1 -1 $-1 $169 $168 $378 $379 reversed $71 $-1 #
edge $-1 -1 $-1 $380 0 $271 3.8099999999999996 $262 $381 forward @7 unknown #
coedge $-1 -1 $-1 $382 $260 $169 $268 reversed $165 $-1 #
edge $-1 -1 $-1 $383 0 $270 3.8099999999999996 $169 $384 forward @7 unknown #
coedge $-1 -1 $-1 $263 $170 $260 $373 reversed $258 $-1 #
vertex $-1 -1 $-1 $268 $385 #
vertex $-1 -1 $-1 $266 $386 #
straight-curve $-1 -1 $-1 0 -12.699999999999999 -3.8099999999999996 1 -2.7974123455122054e-016 0 I I #
coedge $-1 -1 $-1 $273 $273 $175 $274 reversed $172 $-1 #
edge $-1 -1 $-1 $387 0 $387 6.2831853071795862 $175 $388 forward @7 unknown #
vertex $-1 -1 $-1 $176 $389 #
ellipse-curve $-1 -1 $-1 -76.199999999999989 0 -3.8099999999999996 0 0 1 -3.8099999999999974 0 0 1 I I #
coedge $-1 -1 $-1 $277 $277 $180 $278 reversed $177 $-1 #
edge $-1 -1 $-1 $390 0 $390 6.2831853071795862 $180 $391 forward @7 unknown #
vertex $-1 -1 $-1 $181 $392 #
ellipse-curve $-1 -1 $-1 0 0 -3.8099999999999996 0 0 1 -3.8099999999999996 0 0 1 I I #
coedge $-1 -1 $-1 $281 $281 $185 $282 reversed $182 $-1 #
edge $-1 -1 $-1 $393 0 $393 6.2831853071795862 $185 $394 forward @7 unknown #
vertex $-1 -1 $-1 $186 $395 #
ellipse-curve $-1 -1 $-1 -76.199999999999989 76.199999999999989 -3.8099999999999996 0 0 1 -3.8099999999999974 0 0 1 I I #
coedge $-1 -1 $-1 $285 $285 $190 $286 reversed $187 $-1 #
edge $-1 -1 $-1 $396 0 $396 6.2831853071795862 $190 $397 forward @7 unknown #
vertex $-1 -1 $-1 $191 $398 #
ellipse-curve $-1 -1 $-1 0 76.199999999999989 -3.8099999999999996 0 0 1 -3.8099999999999996 0 0 1 I I #
model_id-kcp-attrib $-1 -1 $-1 $-1 $193 1 1021498091 1021498091 -95158271 7 #
face $399 -1 $-1 $400 $310 $12 $-1 $401 reversed single #
loop $-1 -1 $-1 $-1 $315 $193 #
cone-surface $-1 -1 $-1 0 0 0 0 0 -1 -3.8099999999999996 0 0 1 I I 0 1 3.8099999999999996 forward I I I I #
loop $-1 -1 $-1 $402 $403 $86 #
coedge $-1 -1 $-1 $404 $404 $319 $405 reversed $196 $-1 #
coedge $-1 -1 $-1 $197 $197 $198 $296 reversed $130 $-1 #
edge $-1 -1 $-1 $297 -3.478007035921822e-030 $201 3.1415926535897882 $295 $406 forward @7 unknown #
vertex $-1 -1 $-1 $296 $407 #
straight-curve $-1 -1 $-1 -80.009999999999991 0 0 0 0 -25.399999999999999 I I #
ellipse-curve $-1 -1 $-1 -76.199999999999989 8.2836515424844489e-015 -3.8099999999999996 0 0 -1 3.8100000000000089 -8.2836515424844489e-015 0 1 I I #
point $-1 -1 $-1 -72.389999999999986 0 -3.8099999999999996 #
coedge $-1 -1 $-1 $408 $408 $409 $410 forward $203 $-1 #
coedge $-1 -1 $-1 $411 $204 $412 $413 forward $136 $-1 #
coedge $-1 -1 $-1 $204 $414 $415 $416 forward $136 $-1 #
coedge $-1 -1 $-1 $417 $418 $204 $305 reversed $419 $-1 #
edge $420 -1 $-1 $421 0 $422 8 $204 $423 forward @7 unknown #
coedge $-1 -1 $-1 $424 $425 $205 $307 reversed $426 $-1 #
edge $427 -1 $-1 $313 0 $312 3.1415926535897931 $205 $428 forward @7 unknown #
coedge $-1 -1 $-1 $429 $206 $425 $430 forward $310 $-1 #
coedge $-1 -1 $-1 $206 $429 $424 $431 reversed $310 $-1 #
loop $-1 -1 $-1 $-1 $308 $290 #
attrib_edge_convexity-kcp-attrib $-1 -1 $432 $-1 $207 1 #
vertex $-1 -1 $-1 $307 $433 #
vertex $-1 -1 $-1 $307 $434 #
ellipse-curve $-1 -1 $-1 -76.199999999999989 76.199999999999989 0 0 0 -1 3.8100000000000089 0 0 1 I I #
coedge $-1 -1 $-1 $435 $208 $211 $321 forward $291 $-1 #
coedge $-1 -1 $-1 $208 $435 $210 $320 reversed $291 $-1 #
attrib_edge_convexity-kcp-attrib $-1 -1 $436 $-1 $209 1 #
ellipse-curve $-1 -1 $-1 0 0 0 0 0 -1 -3.8099999999999996 0 0 1 I I #
coedge $-1 -1 $-1 $211 $210 $294 $405 forward $194 $-1 #
edge $-1 -1 $-1 $213 0 $437 0.14999999999999999 $316 $438 forward @7 unknown #
edge $-1 -1 $-1 $214 0 $439 0.14999999999999999 $315 $440 forward @7 unknown #
convexity-sys-attrib $-1 -1 $-1 $212 $140 #
point $-1 -1 $-1 3.8099999999999996 0 0 #
point $-1 -1 $-1 -3.8099999999999996 0 0 #
convexity-sys-attrib $-1 -1 $-1 $216 $142 #
face $441 -1 $-1 $-1 $237 $33 $-1 $442 reversed single #
loop $-1 -1 $-1 $-1 $342 $222 #
plane-surface $-1 -1 $-1 0 101.59999999999999 0 0 -1 0 0 0 -1 forward_v I I I I #
coedge $-1 -1 $-1 $443 $340 $343 $444 forward $223 $-1 #
coedge $-1 -1 $-1 $346 $225 $226 $334 reversed $149 $-1 #
coedge $-1 -1 $-1 $340 $443 $225 $332 reversed $223 $-1 #
edge $-1 -1 $-1 $347 -1.9049999999999998 $445 1.9049999999999998 $331 $446 forward @7 unknown #
coedge $-1 -1 $-1 $227 $226 $443 $447 forward $97 $-1 #
edge $-1 -1 $-1 $338 -76.199999999999989 $445 76.199999999999989 $330 $448 forward @7 unknown #
coedge $-1 -1 $-1 $343 $342 $227 $336 reversed $327 $-1 #
edge $-1 -1 $-1 $449 -76.199999999999989 $337 76.199999999999989 $335 $450 forward @7 unknown #
vertex $-1 -1 $-1 $229 $451 #
vertex $-1 -1 $-1 $349 $452 #
straight-curve $-1 -1 $-1 76.199999999999989 0 -1.9049999999999998 0 -1 0 I I #
coedge $-1 -1 $-1 $329 $331 $230 $341 reversed $223 $-1 #
edge $-1 -1 $-1 $344 -101.59999999999999 $347 101.59999999999999 $340 $453 forward @7 unknown #
coedge $-1 -1 $-1 $335 $231 $236 $350 forward $327 $-1 #
coedge $-1 -1 $-1 $231 $335 $329 $444 reversed $327 $-1 #
vertex $-1 -1 $-1 $232 $454 #
straight-curve $-1 -1 $-1 0 101.59999999999999 1.9049999999999998 -1 0 0 I I #
coedge $-1 -1 $-1 $233 $330 $235 $349 reversed $149 $-1 #
vertex $-1 -1 $-1 $341 $455 #
straight-curve $-1 -1 $-1 0 -101.59999999999999 1.9049999999999998 1 0 0 I I #
edge $-1 -1 $-1 $238 -1.9049999999999998 $338 1.9049999999999998 $235 $456 forward @7 unknown #
edge $-1 -1 $-1 $239 -1.9049999999999998 $337 1.9049999999999998 $236 $457 forward @7 unknown #
point $-1 -1 $-1 76.199999999999989 -101.59999999999999 1.9049999999999998 #
point $-1 -1 $-1 76.199999999999989 101.59999999999999 1.9049999999999998 #
loop $-1 -1 $-1 $-1 $458 $241 #
plane-surface $-1 -1 $-1 8.8155359159683506 85.015535915968343 0 0 0 1 1 0 0 forward_v I I I I #
coedge $-1 -1 $-1 $244 $365 $245 $358 forward $157 $-1 #
edge $-1 -1 $-1 $359 -1.5707963267948983 $254 2.3078651850475718e-016 $244 $459 forward @7 unknown #
coedge $-1 -1 $-1 $246 $245 $460 $461 reversed $101 $-1 #
edge $-1 -1 $-1 $462 0 $359 3.8099999999999996 $355 $463 forward @7 unknown #
vertex $-1 -1 $-1 $358 $464 #
straight-curve $-1 -1 $-1 12.699999999999996 88.899999999999991 -3.8099999999999996 -1 0 0 I I #
coedge $-1 -1 $-1 $460 $458 $249 $362 forward $353 $-1 #
edge $-1 -1 $-1 $366 0 $363 12.700000000000003 $249 $465 forward @7 unknown #
vertex $-1 -1 $-1 $362 $466 #
straight-curve $-1 -1 $-1 12.699999999999996 88.899999999999991 0 0 0 -1 I I #
coedge $-1 -1 $-1 $355 $251 $458 $467 forward $157 $-1 #
vertex $-1 -1 $-1 $467 $468 #
straight-curve $-1 -1 $-1 12.699999999999999 76.199999999999989 0 0 0 -1 I I #
point $-1 -1 $-1 12.699999999999999 76.199999999999989 -3.8099999999999996 #
point $-1 -1 $-1 12.699999999999996 88.899999999999991 -3.8099999999999996 #
loop $-1 -1 $-1 $-1 $469 $257 #
plane-surface $-1 -1 $-1 8.8155359159683506 -8.8155359159683506 0 0 0 1 1 0 0 forward_v I I I I #
coedge $-1 -1 $-1 $260 $382 $261 $375 forward $165 $-1 #
edge $-1 -1 $-1 $376 -1.5707963267948966 $270 0 $260 $470 forward @7 unknown #
coedge $-1 -1 $-1 $262 $261 $471 $472 reversed $105 $-1 #
edge $-1 -1 $-1 $473 0 $376 3.8099999999999996 $372 $474 forward @7 unknown #
vertex $-1 -1 $-1 $375 $475 #
straight-curve $-1 -1 $-1 12.699999999999999 -12.700000000000003 -3.8099999999999996 0 1 0 I I #
coedge $-1 -1 $-1 $471 $469 $265 $379 forward $370 $-1 #
edge $-1 -1 $-1 $383 0 $380 12.699999999999999 $265 $476 forward @7 unknown #
vertex $-1 -1 $-1 $379 $477 #
straight-curve $-1 -1 $-1 12.699999999999999 -12.700000000000003 0 0 0 -1 I I #
coedge $-1 -1 $-1 $372 $267 $469 $478 forward $165 $-1 #
vertex $-1 -1 $-1 $478 $479 #
straight-curve $-1 -1 $-1 0 -12.699999999999999 0 0 0 -1 I I #
point $-1 -1 $-1 0 -12.699999999999999 -3.8099999999999996 #
point $-1 -1 $-1 12.699999999999999 -12.700000000000003 -3.8099999999999996 #
vertex $-1 -1 $-1 $274 $480 #
ellipse-curve $-1 -1 $-1 -76.199999999999989 0 0 0 0 -1 3.8100000000000089 0 0 1 I I #
point $-1 -1 $-1 -80.009999999999991 0 -3.8099999999999996 #
vertex $-1 -1 $-1 $278 $481 #
ellipse-curve $-1 -1 $-1 0 0 0 0 0 -1 3.8099999999999996 0 0 1 I I #
point $-1 -1 $-1 -3.8099999999999996 0 -3.8099999999999996 #
vertex $-1 -1 $-1 $282 $482 #
ellipse-curve $-1 -1 $-1 -76.199999999999989 76.199999999999989 0 0 0 -1 3.8100000000000089 0 0 1 I I #
point $-1 -1 $-1 -80.009999999999991 76.199999999999989 -3.8099999999999996 #
vertex $-1 -1 $-1 $286 $483 #
ellipse-curve $-1 -1 $-1 0 76.199999999999989 0 0 0 -1 3.8099999999999996 0 0 1 I I #
point $-1 -1 $-1 -3.8099999999999996 76.199999999999989 -3.8099999999999996 #
model_id-kcp-attrib $-1 -1 $-1 $-1 $290 1 1021498091 1021498091 -95158271 8 #
face $484 -1 $-1 $485 $426 $12 $-1 $486 reversed single #
cone-surface $-1 -1 $-1 -76.199999999999989 76.199999999999989 0 0 0 -1 -3.8099999999999996 0 0 1 I I 0 1 3.8099999999999996 forward I I I I #
loop $-1 -1 $-1 $487 $488 $86 #
coedge $-1 -1 $-1 $489 $489 $429 $490 reversed $293 $-1 #
coedge $-1 -1 $-1 $294 $294 $435 $491 reversed $196 $-1 #
edge $-1 -1 $-1 $437 0 $439 3.1415926535897922 $294 $492 forward @7 unknown #
ellipse-curve $-1 -1 $-1 -76.199999999999989 -9.8698826889176407e-015 -3.8099999999999996 0 0 -1 -3.8099999999999974 9.8698826889176407e-015 0 1 I I #
point $-1 -1 $-1 -80.009999999999991 0 -3.8099999999999996 #
coedge $-1 -1 $-1 $301 $301 $493 $494 forward $203 $-1 #
coedge $-1 -1 $-1 $495 $496 $301 $410 reversed $497 $-1 #
edge $498 -1 $-1 $499 0 $500 3.1415926535897931 $301 $501 forward @7 unknown #
coedge $-1 -1 $-1 $502 $302 $503 $504 forward $136 $-1 #
coedge $-1 -1 $-1 $505 $506 $302 $413 reversed $507 $-1 #
edge $508 -1 $-1 $422 0 $509 3.2015621187164234 $302 $510 forward @7 unknown #
coedge $-1 -1 $-1 $303 $511 $512 $513 forward $136 $-1 #
coedge $-1 -1 $-1 $514 $515 $303 $416 reversed $516 $-1 #
edge $517 -1 $-1 $518 0 $421 2.5 $303 $519 forward @7 unknown #
coedge $-1 -1 $-1 $520 $304 $515 $521 forward $419 $-1 #
coedge $-1 -1 $-1 $304 $520 $505 $522 reversed $419 $-1 #
loop $-1 -1 $-1 $-1 $417 $523 #
attrib_edge_convexity-kcp-attrib $-1 -1 $524 $-1 $305 1 #
vertex $-1 -1 $-1 $416 $525 #
vertex $-1 -1 $-1 $413 $526 #
straight-curve $-1 -1 $-1 -139.69999999999999 127 0 0 -25.399999999999999 0 I I #
coedge $-1 -1 $-1 $527 $306 $309 $431 forward $426 $-1 #
coedge $-1 -1 $-1 $306 $527 $308 $430 reversed $426 $-1 #
loop $-1 -1 $-1 $-1 $424 $400 #
attrib_edge_convexity-kcp-attrib $-1 -1 $528 $-1 $307 1 #
ellipse-curve $-1 -1 $-1 -76.199999999999989 76.199999999999989 0 0 0 -1 -3.8099999999999974 0 0 1 I I #
coedge $-1 -1 $-1 $309 $308 $403 $490 forward $310 $-1 #
edge $-1 -1 $-1 $312 0 $529 0.14999999999999999 $425 $530 forward @7 unknown #
edge $-1 -1 $-1 $313 0 $531 0.14999999999999999 $424 $532 forward @7 unknown #
convexity-sys-attrib $-1 -1 $-1 $311 $207 #
point $-1 -1 $-1 -72.389999999999986 76.199999999999989 0 #
point $-1 -1 $-1 -80.009999999999991 76.199999999999989 0 #
coedge $-1 -1 $-1 $316 $315 $404 $491 forward $291 $-1 #
convexity-sys-attrib $-1 -1 $-1 $317 $209 #
vertex $-1 -1 $-1 $491 $533 #
straight-curve $-1 -1 $-1 3.8099999999999996 4.6657502080632568e-016 0 0 0 -25.399999999999999 I I #
vertex $-1 -1 $-1 $491 $534 #
straight-curve $-1 -1 $-1 -3.8099999999999996 0 0 0 0 -25.399999999999999 I I #
model_id-kcp-attrib $-1 -1 $-1 $-1 $326 1 1021498091 1021498091 -95158270 4 #
plane-surface $-1 -1 $-1 76.199999999999989 0 0 -1 0 0 0 0 1 forward_v I I I I #
coedge $-1 -1 $-1 $331 $329 $333 $447 reversed $223 $-1 #
edge $-1 -1 $-1 $344 -1.9049999999999998 $449 1.9049999999999998 $343 $535 forward @7 unknown #
vertex $-1 -1 $-1 $447 $536 #
straight-curve $-1 -1 $-1 -76.199999999999989 -101.59999999999999 0 0 0 -1 I I #
edge $-1 -1 $-1 $445 -101.59999999999999 $449 101.59999999999999 $443 $537 forward @7 unknown #
straight-curve $-1 -1 $-1 0 -101.59999999999999 -1.9049999999999998 -1 0 0 I I #
vertex $-1 -1 $-1 $336 $538 #
straight-curve $-1 -1 $-1 0 101.59999999999999 -1.9049999999999998 1 0 0 I I #
point $-1 -1 $-1 76.199999999999989 101.59999999999999 -1.9049999999999998 #
point $-1 -1 $-1 76.199999999999989 -101.59999999999999 -1.9049999999999998 #
straight-curve $-1 -1 $-1 -76.199999999999989 0 1.9049999999999998 0 -1 0 I I #
point $-1 -1 $-1 -76.199999999999989 101.59999999999999 1.9049999999999998 #
point $-1 -1 $-1 -76.199999999999989 -101.59999999999999 1.9049999999999998 #
straight-curve $-1 -1 $-1 76.199999999999989 -101.59999999999999 0 0 0 -1 I I #
straight-curve $-1 -1 $-1 76.199999999999989 101.59999999999999 0 0 0 -1 I I #
coedge $-1 -1 $-1 $361 $460 $365 $467 reversed $353 $-1 #
ellipse-curve $-1 -1 $-1 9.8698826889176407e-015 76.200000000000003 -3.8099999999999996 0 0 -1 12.699999999999989 -1.127986593019159e-014 0 1 I I #
coedge $-1 -1 $-1 $458 $361 $357 $461 forward $353 $-1 #
edge $-1 -1 $-1 $363 0 $462 12.699999999999996 $357 $539 forward @7 unknown #
vertex $-1 -1 $-1 $467 $540 #
straight-curve $-1 -1 $-1 0 88.899999999999991 0 0 0 -1 I I #
point $-1 -1 $-1 0 88.899999999999991 -3.8099999999999996 #
straight-curve $-1 -1 $-1 12.699999999999999 76.199999999999989 0 -2.7974123455122049e-016 1 0 I I #
point $-1 -1 $-1 12.699999999999996 88.899999999999991 0 #
edge $-1 -1 $-1 $366 -2.3078651850475718e-016 $462 1.5707963267948983 $365 $541 forward @7 unknown #
point $-1 -1 $-1 12.699999999999999 76.199999999999989 0 #
coedge $-1 -1 $-1 $378 $471 $382 $478 reversed $370 $-1 #
ellipse-curve $-1 -1 $-1 -3.5249581031848718e-016 1.0574874309554614e-015 -3.8099999999999996 0 0 -1 3.5249581031848718e-016 -12.699999999999999 0 1 I I #
coedge $-1 -1 $-1 $469 $378 $374 $472 forward $370 $-1 #
edge $-1 -1 $-1 $380 0 $473 12.700000000000003 $374 $542 forward @7 unknown #
vertex $-1 -1 $-1 $478 $543 #
straight-curve $-1 -1 $-1 12.699999999999999 0 0 0 0 -1 I I #
point $-1 -1 $-1 12.699999999999999 0 -3.8099999999999996 #
straight-curve $-1 -1 $-1 0 -12.699999999999999 0 1 -2.7974123455122054e-016 0 I I #
point $-1 -1 $-1 12.699999999999999 -12.700000000000003 0 #
edge $-1 -1 $-1 $383 0 $473 1.5707963267948966 $382 $544 forward @7 unknown #
point $-1 -1 $-1 0 -12.699999999999999 0 #
point $-1 -1 $-1 -72.389999999999986 0 0 #
point $-1 -1 $-1 3.8099999999999996 0 0 #
point $-1 -1 $-1 -72.389999999999986 76.199999999999989 0 #
point $-1 -1 $-1 3.8099999999999996 76.199999999999989 0 #
model_id-kcp-attrib $-1 -1 $-1 $-1 $400 1 1021498091 1021498091 -95158271 9 #
face $545 -1 $-1 $546 $547 $12 $-1 $548 forward single #
cone-surface $-1 -1 $-1 -76.199999999999989 76.199999999999989 0 0 0 -1 -3.8099999999999996 0 0 1 I I 0 1 3.8099999999999996 forward I I I I #
loop $-1 -1 $-1 $-1 $549 $86 #
coedge $-1 -1 $-1 $550 $551 $552 $553 reversed $402 $-1 #
coedge $-1 -1 $-1 $403 $403 $527 $554 reversed $293 $-1 #
edge $-1 -1 $-1 $529 7.6928839501586125e-016 $531 3.1415926535897865 $403 $555 forward @7 unknown #
edge $-1 -1 $-1 $439 0 $437 3.1415926535897922 $404 $556 forward @7 unknown #
ellipse-curve $-1 -1 $-1 -1.7624790515924359e-016 1.5862311464331924e-015 -3.8099999999999996 0 0 -1 3.8099999999999996 -1.5862311464331924e-015 0 1 I I #
coedge $-1 -1 $-1 $557 $558 $408 $494 reversed $559 $-1 #
edge $560 -1 $-1 $500 0 $499 3.1415926535897931 $408 $561 forward @7 unknown #
coedge $-1 -1 $-1 $562 $409 $558 $563 forward $497 $-1 #
coedge $-1 -1 $-1 $409 $562 $557 $564 reversed $497 $-1 #
loop $-1 -1 $-1 $-1 $495 $565 #
attrib_edge_convexity-kcp-attrib $-1 -1 $566 $-1 $410 1 #
vertex $-1 -1 $-1 $494 $567 #
vertex $-1 -1 $-1 $494 $568 #
ellipse-curve $-1 -1 $-1 0 76.199999999999989 0 0 0 -1 3.8099999999999996 0 0 1 I I #
coedge $-1 -1 $-1 $569 $411 $570 $571 forward $136 $-1 #
coedge $-1 -1 $-1 $572 $573 $411 $504 reversed $574 $-1 #
edge $575 -1 $-1 $509 0 $576 3.5 $411 $577 forward @7 unknown #
coedge $-1 -1 $-1 $578 $412 $418 $522 forward $507 $-1 #
coedge $-1 -1 $-1 $412 $578 $572 $579 reversed $507 $-1 #
loop $-1 -1 $-1 $-1 $505 $580 #
attrib_edge_convexity-kcp-attrib $-1 -1 $581 $-1 $413 1 #
vertex $-1 -1 $-1 $504 $582 #
straight-curve $-1 -1 $-1 -139.69999999999999 -76.199999999999989 0 15.867254207882375 19.834067759852971 0 I I #
coedge $-1 -1 $-1 $414 $569 $583 $584 forward $136 $-1 #
coedge $-1 -1 $-1 $585 $586 $414 $513 reversed $547 $-1 #
edge $587 -1 $-1 $588 0 $518 3.5 $414 $589 forward @7 unknown #
coedge $-1 -1 $-1 $590 $415 $586 $591 forward $516 $-1 #
coedge $-1 -1 $-1 $415 $590 $417 $521 reversed $516 $-1 #
loop $-1 -1 $-1 $-1 $514 $592 #
attrib_edge_convexity-kcp-attrib $-1 -1 $593 $-1 $416 1 #
vertex $-1 -1 $-1 $416 $594 #
straight-curve $-1 -1 $-1 -88.899999999999991 88.899999999999991 0 -20.32 15.239999999999998 0 I I #
coedge $-1 -1 $-1 $418 $417 $595 $596 forward $419 $-1 #
edge $597 -1 $-1 $421 0 $598 0.14999999999999999 $515 $599 forward @7 unknown #
edge $600 -1 $-1 $422 0 $601 0.14999999999999999 $505 $602 forward @7 unknown #
face $603 -1 $-1 $592 $419 $12 $-1 $604 forward single #
convexity-sys-attrib $-1 -1 $-1 $420 $305 #
point $-1 -1 $-1 -139.69999999999999 127 0 #
point $-1 -1 $-1 -139.69999999999999 -76.199999999999989 0 #
coedge $-1 -1 $-1 $425 $424 $489 $554 forward $426 $-1 #
convexity-sys-attrib $-1 -1 $-1 $427 $307 #
vertex $-1 -1 $-1 $554 $605 #
straight-curve $-1 -1 $-1 -72.390000000000001 76.199999999999989 0 0 0 -25.399999999999999 I I #
vertex $-1 -1 $-1 $554 $606 #
straight-curve $-1 -1 $-1 -80.009999999999991 76.199999999999989 0 0 0 -25.399999999999999 I I #
point $-1 -1 $-1 3.8099999999999996 0 -3.8099999999999996 #
point $-1 -1 $-1 -3.8099999999999996 0 -3.8099999999999996 #
straight-curve $-1 -1 $-1 -76.199999999999989 101.59999999999999 0 0 0 -1 I I #
point $-1 -1 $-1 -76.199999999999989 -101.59999999999999 -1.9049999999999998 #
straight-curve $-1 -1 $-1 -76.199999999999989 0 -1.9049999999999998 0 1 0 I I #
point $-1 -1 $-1 -76.199999999999989 101.59999999999999 -1.9049999999999998 #
straight-curve $-1 -1 $-1 12.699999999999996 88.899999999999991 0 -1 0 0 I I #
point $-1 -1 $-1 0 88.899999999999991 0 #
ellipse-curve $-1 -1 $-1 9.8698826889176407e-015 76.200000000000003 0 0 0 1 12.699999999999989 -1.127986593019159e-014 0 1 I I #
straight-curve $-1 -1 $-1 12.699999999999999 -12.700000000000003 0 0 1 0 I I #
point $-1 -1 $-1 12.699999999999999 0 0 #
ellipse-curve $-1 -1 $-1 -3.5249581031848718e-016 1.0574874309554614e-015 0 0 0 1 3.5249581031848718e-016 -12.699999999999999 0 1 I I #
model_id-kcp-attrib $-1 -1 $-1 $-1 $485 1 1021498091 1021498091 -95158271 10 #
face $607 -1 $-1 $608 $609 $12 $-1 $610 forward single #
loop $-1 -1 $-1 $-1 $585 $485 #
plane-surface $-1 -1 $-1 -44.449999999999996 88.899999999999991 -1.9049999999999998 0 1 0 -25.399999999999999 0 0 forward_v I I I I #
coedge $-1 -1 $-1 $611 $611 $562 $612 reversed $487 $-1 #
coedge $-1 -1 $-1 $613 $488 $614 $615 reversed $402 $-1 #
coedge $-1 -1 $-1 $488 $595 $590 $616 reversed $402 $-1 #
coedge $-1 -1 $-1 $586 $585 $488 $553 forward $547 $-1 #
edge $617 -1 $-1 $618 -3.0615158845559431e-017 $619 3.5 $552 $620 forward @7 unknown #
edge $-1 -1 $-1 $531 -2.9605947323337529e-015 $529 3.1415926535897905 $489 $621 forward @7 unknown #
ellipse-curve $-1 -1 $-1 -76.199999999999989 76.200000000000003 -3.8099999999999996 0 0 -1 3.8100000000000089 -1.127986593019159e-014 0 1 I I #
ellipse-curve $-1 -1 $-1 -1.7624790515924359e-016 -1.762479051592436e-015 -3.8099999999999996 0 0 -1 -3.8099999999999996 1.762479051592436e-015 0 1 I I #
coedge $-1 -1 $-1 $622 $493 $496 $564 forward $559 $-1 #
coedge $-1 -1 $-1 $493 $622 $495 $563 reversed $559 $-1 #
loop $-1 -1 $-1 $-1 $557 $623 #
attrib_edge_convexity-kcp-attrib $-1 -1 $624 $-1 $494 1 #
ellipse-curve $-1 -1 $-1 0 76.199999999999989 0 0 0 -1 -3.8099999999999996 0 0 1 I I #
coedge $-1 -1 $-1 $496 $495 $549 $612 forward $497 $-1 #
edge $-1 -1 $-1 $499 0 $625 0.14999999999999999 $558 $626 forward @7 unknown #
edge $-1 -1 $-1 $500 0 $627 0.14999999999999999 $557 $628 forward @7 unknown #
face $629 -1 $-1 $623 $497 $12 $-1 $630 reversed single #
convexity-sys-attrib $-1 -1 $-1 $498 $410 #
point $-1 -1 $-1 3.8099999999999996 76.199999999999989 0 #
point $-1 -1 $-1 -3.8099999999999996 76.199999999999989 0 #
coedge $-1 -1 $-1 $511 $502 $631 $632 forward $136 $-1 #
coedge $-1 -1 $-1 $633 $634 $502 $571 reversed $635 $-1 #
edge $636 -1 $-1 $576 0 $637 1.5707963267948966 $502 $638 forward @7 unknown #
coedge $-1 -1 $-1 $639 $503 $506 $579 forward $574 $-1 #
coedge $-1 -1 $-1 $503 $639 $633 $640 reversed $574 $-1 #
loop $-1 -1 $-1 $-1 $572 $641 #
attrib_edge_convexity-kcp-attrib $-1 -1 $642 $-1 $504 1 #
vertex $-1 -1 $-1 $571 $643 #
straight-curve $-1 -1 $-1 -88.899999999999991 -12.699999999999999 0 25.399999999999999 0 0 I I #
coedge $-1 -1 $-1 $506 $505 $644 $645 forward $507 $-1 #
edge $646 -1 $-1 $509 0 $647 0.14999999999999999 $572 $648 forward @7 unknown #
face $649 -1 $-1 $523 $507 $12 $-1 $650 forward single #
convexity-sys-attrib $-1 -1 $-1 $508 $413 #
point $-1 -1 $-1 -88.899999999999991 -12.699999999999999 0 #
coedge $-1 -1 $-1 $651 $652 $511 $584 reversed $609 $-1 #
edge $653 -1 $-1 $654 -2.3078651850475718e-016 $588 1.5707963267948983 $511 $655 forward @7 unknown #
coedge $-1 -1 $-1 $552 $512 $652 $656 forward $547 $-1 #
coedge $-1 -1 $-1 $512 $552 $514 $591 reversed $547 $-1 #
attrib_edge_convexity-kcp-attrib $-1 -1 $657 $-1 $513 1 #
vertex $-1 -1 $-1 $513 $658 #
straight-curve $-1 -1 $-1 0 88.899999999999991 0 -25.399999999999999 0 0 I I #
coedge $-1 -1 $-1 $515 $514 $551 $616 forward $516 $-1 #
edge $659 -1 $-1 $518 0 $619 0.14999999999999999 $514 $660 forward @7 unknown #
face $661 -1 $-1 $565 $516 $12 $-1 $662 forward single #
convexity-sys-attrib $-1 -1 $-1 $517 $416 #
point $-1 -1 $-1 -88.899999999999991 88.899999999999991 0 #
coedge $-1 -1 $-1 $551 $644 $520 $596 reversed $402 $-1 #
edge $-1 -1 $-1 $598 0 $601 8 $520 $663 forward @7 unknown #
attrib_edge_convexity-kcp-attrib $-1 -1 $664 $-1 $521 1 #
vertex $-1 -1 $-1 $521 $665 #
straight-curve $-1 -1 $-1 -139.69999999999999 127 0 0 0 -25.399999999999999 I I #
attrib_edge_convexity-kcp-attrib $-1 -1 $666 $-1 $522 1 #
vertex $-1 -1 $-1 $645 $667 #
straight-curve $-1 -1 $-1 -139.69999999999999 -76.199999999999989 0 0 0 -25.399999999999999 I I #
model_id-kcp-attrib $-1 -1 $-1 $-1 $523 1 1021498091 1021498091 -95158271 16 #
plane-surface $-1 -1 $-1 -139.69999999999999 25.399999999999999 -1.9049999999999998 -1 0 0 0 -25.399999999999999 0 forward_v I I I I #
point $-1 -1 $-1 -72.389999999999986 76.199999999999989 -3.8099999999999996 #
point $-1 -1 $-1 -80.009999999999991 76.199999999999989 -3.8099999999999996 #
model_id-kcp-attrib $-1 -1 $-1 $-1 $546 1 1021498091 1021498091 -95158271 11 #
face $668 -1 $-1 $669 $670 $12 $-1 $671 forward single #
loop $-1 -1 $-1 $-1 $651 $546 #
cone-surface $-1 -1 $-1 0 76.199999999999989 -1.9049999999999998 0 0 1 12.699999999999999 0 0 1 I I 0 1 12.699999999999999 forward I I I I #
coedge $-1 -1 $-1 $549 $549 $622 $672 reversed $487 $-1 #
edge $-1 -1 $-1 $625 0 $627 3.1415926535897931 $549 $673 forward @7 unknown #
coedge $-1 -1 $-1 $674 $550 $675 $676 reversed $402 $-1 #
coedge $-1 -1 $-1 $652 $651 $550 $615 forward $609 $-1 #
edge $-1 -1 $-1 $677 -2.3078651850475718e-016 $618 1.5707963267948983 $614 $678 forward @7 unknown #
edge $679 -1 $-1 $619 0 $598 2.5 $590 $680 forward @7 unknown #
attrib_edge_convexity-kcp-attrib $-1 -1 $681 $-1 $553 1 #
vertex $-1 -1 $-1 $553 $682 #
vertex $-1 -1 $-1 $616 $683 #
straight-curve $-1 -1 $-1 0 88.899999999999991 -3.8099999999999996 -25.399999999999999 0 0 I I #
ellipse-curve $-1 -1 $-1 -76.199999999999989 76.199999999999989 -3.8099999999999996 0 0 -1 -3.8099999999999974 1.127986593019159e-014 0 1 I I #
coedge $-1 -1 $-1 $558 $557 $611 $672 forward $559 $-1 #
face $684 -1 $-1 $-1 $559 $12 $-1 $685 reversed single #
convexity-sys-attrib $-1 -1 $-1 $560 $494 #
vertex $-1 -1 $-1 $672 $686 #
straight-curve $-1 -1 $-1 3.8099999999999996 76.199999999999989 0 0 0 -25.399999999999999 I I #
vertex $-1 -1 $-1 $672 $687 #
straight-curve $-1 -1 $-1 -3.8099999999999996 76.199999999999989 0 0 0 -25.399999999999999 I I #
model_id-kcp-attrib $-1 -1 $-1 $-1 $565 1 1021498091 1021498091 -95158271 18 #
cone-surface $-1 -1 $-1 0 76.199999999999989 0 0 0 -1 -3.8099999999999996 0 0 1 I I 0 1 3.8099999999999996 forward I I I I #
coedge $-1 -1 $-1 $688 $689 $569 $632 reversed $670 $-1 #
edge $690 -1 $-1 $637 0 $654 2.9999999999999996 $569 $691 forward @7 unknown #
coedge $-1 -1 $-1 $692 $570 $573 $640 forward $635 $-1 #
coedge $-1 -1 $-1 $570 $692 $688 $693 reversed $635 $-1 #
loop $-1 -1 $-1 $-1 $633 $669 #
attrib_edge_convexity-kcp-attrib $-1 -1 $694 $-1 $571 1 #
vertex $-1 -1 $-1 $632 $695 #
ellipse-curve $-1 -1 $-1 -3.5249581031848718e-016 1.0574874309554614e-015 0 0 0 1 3.5249581031848718e-016 -12.699999999999999 0 1 I I #
coedge $-1 -1 $-1 $573 $572 $696 $697 forward $574 $-1 #
edge $698 -1 $-1 $576 0 $699 0.14999999999999999 $633 $700 forward @7 unknown #
face $701 -1 $-1 $580 $574 $12 $-1 $702 forward single #
convexity-sys-attrib $-1 -1 $-1 $575 $504 #
point $-1 -1 $-1 0 -12.699999999999999 0 #
coedge $-1 -1 $-1 $595 $696 $578 $645 reversed $402 $-1 #
edge $703 -1 $-1 $601 0 $647 3.2015621187164234 $578 $704 forward @7 unknown #
attrib_edge_convexity-kcp-attrib $-1 -1 $705 $-1 $579 2 #
vertex $-1 -1 $-1 $697 $706 #
straight-curve $-1 -1 $-1 -88.899999999999991 -12.699999999999999 0 0 0 -25.399999999999999 I I #
model_id-kcp-attrib $-1 -1 $-1 $-1 $580 1 1021498091 1021498091 -95158271 15 #
plane-surface $-1 -1 $-1 -114.3 -44.449999999999996 -1.9049999999999998 0.78086880944303039 -0.62469504755442429 0 15.867254207882375 19.834067759852971 0 forward_v I I I I #
coedge $-1 -1 $-1 $614 $583 $689 $707 forward $609 $-1 #
coedge $-1 -1 $-1 $583 $614 $585 $656 reversed $609 $-1 #
attrib_edge_convexity-kcp-attrib $-1 -1 $708 $-1 $584 1 #
vertex $-1 -1 $-1 $584 $709 #
ellipse-curve $-1 -1 $-1 9.8698826889176407e-015 76.200000000000003 0 0 0 1 12.699999999999989 -1.127986593019159e-014 0 1 I I #
edge $710 -1 $-1 $588 0 $618 0.14999999999999999 $585 $711 forward @7 unknown #
convexity-sys-attrib $-1 -1 $-1 $587 $513 #
point $-1 -1 $-1 0 88.899999999999991 0 #
attrib_edge_convexity-kcp-attrib $-1 -1 $712 $-1 $591 2 #
straight-curve $-1 -1 $-1 -88.899999999999991 88.899999999999991 0 0 0 -25.399999999999999 I I #
model_id-kcp-attrib $-1 -1 $-1 $-1 $592 1 1021498091 1021498091 -95158271 17 #
plane-surface $-1 -1 $-1 -114.3 107.94999999999999 -1.9049999999999998 0.60000000000000009 0.80000000000000004 0 -20.319999999999997 15.239999999999998 0 forward_v I I I I #
straight-curve $-1 -1 $-1 -139.69999999999999 127 -3.8099999999999996 0 -25.399999999999999 0 I I #
convexity-sys-attrib $-1 -1 $-1 $597 $521 #
point $-1 -1 $-1 -139.69999999999999 127 -3.8099999999999996 #
convexity-sys-attrib $-1 -1 $-1 $600 $522 #
point $-1 -1 $-1 -139.69999999999999 -76.199999999999989 -3.8099999999999996 #
model_id-kcp-attrib $-1 -1 $-1 $-1 $608 1 1021498091 1021498091 -95158271 12 #
face $713 -1 $-1 $641 $635 $12 $-1 $714 forward single #
loop $-1 -1 $-1 $-1 $688 $608 #
plane-surface $-1 -1 $-1 12.699999999999999 38.099999999999994 -1.9049999999999998 1 0 0 0 25.399999999999999 0 forward_v I I I I #
edge $-1 -1 $-1 $627 0 $625 3.1415926535897931 $611 $715 forward @7 unknown #
ellipse-curve $-1 -1 $-1 -1.7624790515924359e-016 76.199999999999989 -3.8099999999999996 0 0 -1 3.8099999999999996 0 0 1 I I #
coedge $-1 -1 $-1 $696 $613 $692 $716 reversed $402 $-1 #
coedge $-1 -1 $-1 $689 $688 $613 $676 forward $670 $-1 #
edge $717 -1 $-1 $718 -3.0615158845559431e-017 $677 2.9999999999999996 $675 $719 forward @7 unknown #
vertex $-1 -1 $-1 $615 $720 #
ellipse-curve $-1 -1 $-1 9.8698826889176407e-015 76.200000000000003 -3.8099999999999996 0 0 1 12.699999999999989 -1.127986593019159e-014 0 1 I I #
attrib_edge_convexity-kcp-attrib $-1 -1 $721 $-1 $616 1 #
straight-curve $-1 -1 $-1 -88.899999999999991 88.899999999999991 -3.8099999999999996 -20.32 15.239999999999998 0 I I #
convexity-sys-attrib $-1 -1 $-1 $617 $553 #
point $-1 -1 $-1 7.7762503467720954e-016 88.899999999999991 -3.8099999999999996 #
point $-1 -1 $-1 -88.899999999999991 88.899999999999991 -3.8099999999999996 #
model_id-kcp-attrib $-1 -1 $-1 $-1 $623 1 1021498091 1021498091 -95158271 19 #
cone-surface $-1 -1 $-1 0 76.199999999999989 0 0 0 -1 -3.8099999999999996 0 0 1 I I 0 1 3.8099999999999996 forward I I I I #
point $-1 -1 $-1 3.8099999999999996 76.199999999999989 -3.8099999999999996 #
point $-1 -1 $-1 -3.8099999999999996 76.199999999999989 -3.8099999999999996 #
coedge $-1 -1 $-1 $675 $631 $634 $693 forward $670 $-1 #
coedge $-1 -1 $-1 $631 $675 $651 $707 reversed $670 $-1 #
attrib_edge_convexity-kcp-attrib $-1 -1 $722 $-1 $632 1 #
straight-curve $-1 -1 $-1 12.699999999999999 0 0 0 25.399999999999999 0 I I #
coedge $-1 -1 $-1 $634 $633 $674 $716 forward $635 $-1 #
edge $723 -1 $-1 $637 0 $718 0.14999999999999999 $688 $724 forward @7 unknown #
convexity-sys-attrib $-1 -1 $-1 $636 $571 #
point $-1 -1 $-1 12.699999999999999 0 0 #
coedge $-1 -1 $-1 $644 $674 $639 $697 reversed $402 $-1 #
edge $725 -1 $-1 $647 0 $699 3.5 $639 $726 forward @7 unknown #
attrib_edge_convexity-kcp-attrib $-1 -1 $727 $-1 $640 3 #
vertex $-1 -1 $-1 $716 $728 #
straight-curve $-1 -1 $-1 0 -12.699999999999999 0 0 0 -25.399999999999999 I I #
model_id-kcp-attrib $-1 -1 $-1 $-1 $641 1 1021498091 1021498091 -95158271 14 #
plane-surface $-1 -1 $-1 -44.449999999999996 -12.699999999999999 -1.9049999999999998 0 -1 0 25.399999999999999 0 0 forward_v I I I I #
attrib_edge_convexity-kcp-attrib $-1 -1 $729 $-1 $645 1 #
straight-curve $-1 -1 $-1 -139.69999999999999 -76.199999999999989 -3.8099999999999996 15.867254207882375 19.834067759852971 0 I I #
convexity-sys-attrib $-1 -1 $-1 $646 $579 #
point $-1 -1 $-1 -88.899999999999991 -12.699999999999999 -3.8099999999999996 #
edge $730 -1 $-1 $654 0 $677 0.14999999999999999 $651 $731 forward @7 unknown #
convexity-sys-attrib $-1 -1 $-1 $653 $584 #
point $-1 -1 $-1 12.699999999999999 76.199999999999989 0 #
attrib_edge_convexity-kcp-attrib $-1 -1 $732 $-1 $656 3 #
straight-curve $-1 -1 $-1 0 88.899999999999991 0 0 0 -25.399999999999999 I I #
convexity-sys-attrib $-1 -1 $-1 $659 $591 #
model_id-kcp-attrib $-1 -1 $-1 $-1 $669 1 1021498091 1021498091 -95158271 13 #
cone-surface $-1 -1 $-1 0 0 -1.9049999999999998 0 0 1 0 -12.699999999999999 0 1 I I 0 1 12.699999999999999 forward I I I I #
ellipse-curve $-1 -1 $-1 -1.7624790515924359e-016 76.199999999999989 -3.8099999999999996 0 0 -1 -3.8099999999999996 0 0 1 I I #
edge $-1 -1 $-1 $699 0 $718 1.5707963267948966 $692 $733 forward @7 unknown #
attrib_edge_convexity-kcp-attrib $-1 -1 $734 $-1 $676 1 #
vertex $-1 -1 $-1 $676 $735 #
straight-curve $-1 -1 $-1 12.699999999999999 0 -3.8099999999999996 0 25.399999999999999 0 I I #
point $-1 -1 $-1 12.699999999999999 76.199999999999989 -3.8099999999999996 #
convexity-sys-attrib $-1 -1 $-1 $679 $616 #
convexity-sys-attrib $-1 -1 $-1 $690 $632 #
attrib_edge_convexity-kcp-attrib $-1 -1 $736 $-1 $693 3 #
straight-curve $-1 -1 $-1 12.699999999999999 0 0 0 0 -25.399999999999999 I I #
attrib_edge_convexity-kcp-attrib $-1 -1 $737 $-1 $697 1 #
straight-curve $-1 -1 $-1 -88.899999999999991 -12.699999999999999 -3.8099999999999996 25.399999999999999 0 0 I I #
convexity-sys-attrib $-1 -1 $-1 $698 $640 #
point $-1 -1 $-1 0 -12.699999999999999 -3.8099999999999996 #
convexity-sys-attrib $-1 -1 $-1 $703 $645 #
attrib_edge_convexity-kcp-attrib $-1 -1 $738 $-1 $707 3 #
straight-curve $-1 -1 $-1 12.699999999999999 76.199999999999989 0 0 0 -25.399999999999999 I I #
convexity-sys-attrib $-1 -1 $-1 $710 $656 #
ellipse-curve $-1 -1 $-1 -3.5249581031848718e-016 1.0574874309554614e-015 -3.8099999999999996 0 0 1 3.5249581031848718e-016 -12.699999999999999 0 1 I I #
convexity-sys-attrib $-1 -1 $-1 $717 $676 #
point $-1 -1 $-1 12.699999999999999 -7.7762503467720954e-016 -3.8099999999999996 #
convexity-sys-attrib $-1 -1 $-1 $723 $693 #
convexity-sys-attrib $-1 -1 $-1 $725 $697 #
convexity-sys-attrib $-1 -1 $-1 $730 $707 #
End-of-ACIS-data 