600 0 1 0           
96 GICL Pro/E ACIS Translator - Source: f:/data5/repository/PTC/V18/lrgasm18/brack_rear.prt.2 - 6 0 13 ACIS 6.0.3 NT 24 Thu Apr 04 13:34:42 2002 
1 9.9999999999999995e-007 1e-010 
body $-1 $1 $-1 $2 #
lump $-1 $-1 $3 $0 #
transform $-1 1 0 0 0 1 0 0 0 1 0 0 0 25.399999999999999 no_rotate no_reflect no_shear #
shell $-1 $-1 $-1 $4 $-1 $1 #
face $-1 $5 $6 $3 $-1 $7 forward single #
face $-1 $8 $9 $3 $-1 $10 reversed single #
loop $-1 $11 $12 $4 #
plane-surface $-1 0 0 0 0 0 1 1 0 0 forward_v I I I I #
face $-1 $13 $14 $3 $-1 $15 reversed single #
loop $-1 $-1 $16 $5 #
cone-surface $-1 -3 3 -0.14999999999999999 0 0 1 0.14999999999999999 0 0 1 I I 0 1 0.14999999999999999 forward I I I I #
loop $-1 $17 $18 $4 #
coedge $-1 $19 $19 $20 $21 reversed $6 $-1 #
face $-1 $22 $23 $3 $-1 $24 reversed single #
loop $-1 $-1 $25 $8 #
cone-surface $-1 -3 3 -0.14999999999999999 0 0 1 0.14999999999999999 0 0 1 I I 0 1 0.14999999999999999 forward I I I I #
coedge $-1 $26 $20 $27 $28 reversed $9 $-1 #
loop $-1 $29 $30 $4 #
coedge $-1 $31 $31 $32 $33 reversed $11 $-1 #
coedge $-1 $12 $12 $34 $35 reversed $6 $-1 #
coedge $-1 $16 $36 $12 $21 forward $9 $-1 #
edge $-1 $37 0 $38 3.1415926535897931 $12 $39 forward 7 unknown #
face $-1 $40 $41 $3 $-1 $42 reversed single #
loop $-1 $43 $44 $13 #
plane-surface $-1 0 0 -0.14999999999999999 0 0 1 1 0 0 forward_v I I I I #
coedge $-1 $45 $34 $36 $46 reversed $14 $-1 #
coedge $-1 $36 $16 $44 $47 reversed $9 $-1 #
coedge $-1 $34 $45 $16 $28 forward $14 $-1 #
edge $-1 $48 0 $38 0.14999999999999999 $27 $49 forward 7 unknown #
loop $-1 $50 $51 $4 #
coedge $-1 $52 $52 $53 $54 reversed $17 $-1 #
coedge $-1 $18 $18 $55 $56 reversed $11 $-1 #
coedge $-1 $57 $58 $18 $33 forward $41 $-1 #
edge $-1 $59 0 $60 3.1415926535897989 $18 $61 forward 7 unknown #
coedge $-1 $25 $27 $19 $35 forward $14 $-1 #
edge $-1 $38 0 $37 3.1415926535897931 $19 $62 forward 7 unknown #
coedge $-1 $20 $26 $25 $46 forward $9 $-1 #
vertex $-1 $35 $63 #
vertex $-1 $35 $64 #
ellipse-curve $-1 -3 3 0 0 0 1 -0.14999999999999991 0 0 1 I I #
face $-1 $65 $66 $3 $-1 $67 reversed single #
loop $-1 $-1 $57 $22 #
cone-surface $-1 0 3 -0.14999999999999999 0 0 1 0.14999999999999999 0 0 1 I I 0 1 0.14999999999999999 forward I I I I #
loop $-1 $68 $69 $13 #
coedge $-1 $70 $70 $26 $47 forward $23 $-1 #
coedge $-1 $27 $25 $70 $71 reversed $14 $-1 #
edge $-1 $72 0 $37 0.14999999999999999 $25 $73 forward 7 unknown #
edge $-1 $72 0 $48 3.1415926535897931 $44 $74 forward 7 unknown #
vertex $-1 $71 $75 #
straight-curve $-1 -2.8500000000000001 3 -0.14999999999999999 0 0 1 I I #
loop $-1 $76 $77 $4 #
coedge $-1 $78 $78 $79 $80 forward $29 $-1 #
coedge $-1 $30 $30 $81 $82 reversed $17 $-1 #
coedge $-1 $83 $84 $30 $54 forward $85 $-1 #
edge $-1 $86 0 $87 3.14159265358979 $30 $88 forward 7 unknown #
coedge $-1 $89 $90 $31 $56 forward $66 $-1 #
edge $-1 $60 0 $59 3.1415926535897931 $31 $91 forward 7 unknown #
coedge $-1 $92 $32 $90 $93 reversed $41 $-1 #
coedge $-1 $32 $92 $89 $94 forward $41 $-1 #
vertex $-1 $56 $95 #
vertex $-1 $56 $96 #
ellipse-curve $-1 0 2.9999999999999996 0 0 0 1 -0.14999999999999999 4.4408920985006262e-016 0 1 I I #
ellipse-curve $-1 -3 3 0 0 0 1 0.15000000000000036 0 0 1 I I #
point $-1 -3.1499999999999999 3 0 #
point $-1 -2.8499999999999996 3 0 #
face $-1 $97 $85 $3 $-1 $98 reversed single #
loop $-1 $-1 $89 $40 #
cone-surface $-1 0 3 -0.14999999999999999 0 0 1 0.14999999999999999 0 0 1 I I 0 1 0.14999999999999999 forward I I I I #
loop $-1 $99 $100 $13 #
coedge $-1 $101 $101 $92 $102 forward $43 $-1 #
coedge $-1 $44 $44 $45 $71 forward $23 $-1 #
edge $-1 $48 0 $72 3.1415926535897931 $70 $103 forward 7 unknown #
vertex $-1 $71 $104 #
straight-curve $-1 -3.1499999999999999 3 -0.14999999999999999 0 0 1 I I #
ellipse-curve $-1 -3 3 -0.14999999999999999 0 0 1 -0.14999999999999991 0 0 1 I I #
point $-1 -2.8499999999999996 3 -0.14999999999999999 #
loop $-1 $-1 $105 $4 #
coedge $-1 $106 $107 $108 $109 forward $50 $-1 #
coedge $-1 $51 $51 $110 $111 forward $29 $-1 #
coedge $-1 $112 $113 $51 $80 reversed $114 $-1 #
edge $-1 $115 0 $116 3.1415926535897931 $51 $117 forward 7 unknown #
coedge $-1 $118 $119 $52 $82 forward $120 $-1 #
edge $-1 $87 0 $86 3.14159265358979 $52 $121 forward 7 unknown #
coedge $-1 $122 $53 $119 $123 reversed $85 $-1 #
coedge $-1 $53 $122 $118 $124 forward $85 $-1 #
loop $-1 $-1 $83 $65 #
vertex $-1 $82 $125 #
vertex $-1 $82 $126 #
ellipse-curve $-1 -3 2.4286128663675299e-016 0 0 0 1 -0.14999999999999991 -2.4286128663675299e-016 0 1 I I #
coedge $-1 $127 $55 $58 $94 reversed $66 $-1 #
coedge $-1 $55 $127 $57 $93 forward $66 $-1 #
ellipse-curve $-1 0 3 0 0 0 1 0.14999999999999999 0 0 1 I I #
coedge $-1 $58 $57 $69 $102 reversed $41 $-1 #
edge $-1 $128 0 $60 0.14999999999999999 $90 $129 forward 7 unknown #
edge $-1 $130 0 $59 0.14999999999999999 $89 $131 forward 7 unknown #
point $-1 -0.14999999999999999 3 0 #
point $-1 0.14999999999999999 3 0 #
face $-1 $132 $120 $3 $-1 $133 reversed single #
cone-surface $-1 -3 0 -0.14999999999999999 0 0 1 0.14999999999999999 0 0 1 I I 0 1 0.14999999999999999 forward I I I I #
loop $-1 $134 $135 $13 #
coedge $-1 $136 $136 $122 $137 forward $68 $-1 #
coedge $-1 $69 $69 $127 $138 forward $43 $-1 #
edge $-1 $130 0 $128 3.1415926535897931 $69 $139 forward 7 unknown #
ellipse-curve $-1 -3 3 -0.14999999999999999 0 0 1 0.15000000000000036 0 0 1 I I #
point $-1 -3.1499999999999999 3 -0.14999999999999999 #
coedge $-1 $140 $140 $141 $142 reversed $76 $-1 #
coedge $-1 $143 $77 $144 $145 forward $50 $-1 #
coedge $-1 $77 $146 $147 $148 forward $50 $-1 #
coedge $-1 $149 $150 $77 $109 reversed $151 $-1 #
edge $-1 $152 -8.8817841970012523e-016 $153 7.6664426067728275 $77 $154 forward 7 unknown #
coedge $-1 $155 $156 $78 $111 reversed $157 $-1 #
edge $-1 $116 0 $115 3.1415926535897931 $78 $158 forward 7 unknown #
coedge $-1 $159 $79 $156 $160 forward $114 $-1 #
coedge $-1 $79 $159 $155 $161 reversed $114 $-1 #
loop $-1 $-1 $112 $132 #
vertex $-1 $111 $162 #
vertex $-1 $111 $163 #
ellipse-curve $-1 -1.5 1.5 0 0 0 -1 -1 0 0 1 I I #
coedge $-1 $164 $81 $84 $124 reversed $120 $-1 #
coedge $-1 $81 $164 $83 $123 forward $120 $-1 #
loop $-1 $-1 $118 $97 #
ellipse-curve $-1 -3 -2.4286128663675299e-016 0 0 0 1 0.15000000000000036 2.4286128663675299e-016 0 1 I I #
coedge $-1 $84 $83 $100 $137 reversed $85 $-1 #
edge $-1 $165 0 $87 0.14999999999999999 $119 $166 forward 7 unknown #
edge $-1 $167 0 $86 0.14999999999999999 $118 $168 forward 7 unknown #
point $-1 -3.1499999999999999 0 0 #
point $-1 -2.8499999999999996 0 0 #
coedge $-1 $90 $89 $101 $138 reversed $66 $-1 #
vertex $-1 $138 $169 #
straight-curve $-1 0.14999999999999999 3 -0.14999999999999999 0 0 1 I I #
vertex $-1 $138 $170 #
straight-curve $-1 -0.14999999999999999 3 -0.14999999999999999 0 0 1 I I #
face $-1 $171 $114 $3 $-1 $172 reversed single #
cone-surface $-1 -3 0 -0.14999999999999999 0 0 1 0.14999999999999999 0 0 1 I I 0 1 0.14999999999999999 forward I I I I #
loop $-1 $173 $174 $13 #
coedge $-1 $175 $175 $159 $176 reversed $99 $-1 #
coedge $-1 $100 $100 $164 $177 forward $68 $-1 #
edge $-1 $167 0 $165 3.1415926535897931 $100 $178 forward 7 unknown #
edge $-1 $128 0 $130 3.1415926535897931 $101 $179 forward 7 unknown #
ellipse-curve $-1 0 3 -0.14999999999999999 0 0 1 -0.14999999999999999 0 0 1 I I #
coedge $-1 $105 $105 $180 $181 reversed $76 $-1 #
coedge $-1 $182 $183 $105 $142 forward $184 $-1 #
edge $-1 $185 0 $186 3.1415926535897931 $105 $187 forward 7 unknown #
coedge $-1 $188 $106 $189 $190 forward $50 $-1 #
coedge $-1 $191 $192 $106 $145 reversed $193 $-1 #
edge $-1 $153 0 $194 2.9345859400729477 $106 $195 forward 7 unknown #
coedge $-1 $107 $196 $197 $198 forward $50 $-1 #
coedge $-1 $199 $200 $107 $148 reversed $201 $-1 #
edge $-1 $202 0 $152 2.291526629233017 $107 $203 forward 7 unknown #
coedge $-1 $204 $108 $205 $206 forward $151 $-1 #
coedge $-1 $108 $204 $207 $208 reversed $151 $-1 #
loop $-1 $-1 $149 $209 #
vertex $-1 $148 $210 #
vertex $-1 $145 $211 #
straight-curve $-1 -5.3332213033864138 4.8749159775398088 0 -1.1585274491137187e-016 -1 0 I I #
coedge $-1 $212 $110 $113 $161 forward $157 $-1 #
coedge $-1 $110 $212 $112 $160 reversed $157 $-1 #
loop $-1 $-1 $155 $171 #
ellipse-curve $-1 -1.5 1.5 0 0 0 -1 1 0 0 1 I I #
coedge $-1 $113 $112 $135 $176 forward $114 $-1 #
edge $-1 $115 0 $213 0.14999999999999999 $156 $214 forward 7 unknown #
edge $-1 $116 0 $215 0.14999999999999999 $155 $216 forward 7 unknown #
point $-1 -2.5 1.5 0 #
point $-1 -0.5 1.5 0 #
coedge $-1 $119 $118 $136 $177 reversed $120 $-1 #
vertex $-1 $177 $217 #
straight-curve $-1 -2.8500000000000001 0 -0.14999999999999999 0 0 1 I I #
vertex $-1 $177 $218 #
straight-curve $-1 -3.1499999999999999 1.8369095307335657e-017 -0.14999999999999999 0 0 1 I I #
point $-1 0.14999999999999999 3 -0.14999999999999999 #
point $-1 -0.14999999999999999 3 -0.14999999999999999 #
face $-1 $219 $157 $3 $-1 $220 reversed single #
cone-surface $-1 -1.5 1.5 -0.074999999999999997 0 0 -1 -1 0 0 1 I I 0 1 1 forward I I I I #
loop $-1 $-1 $221 $13 #
coedge $-1 $222 $223 $224 $225 reversed $134 $-1 #
coedge $-1 $135 $135 $212 $226 reversed $99 $-1 #
edge $-1 $213 0 $215 3.1415926535897931 $159 $227 forward 7 unknown #
edge $-1 $165 0 $167 3.1415926535897931 $136 $228 forward 7 unknown #
ellipse-curve $-1 -3 0 -0.14999999999999999 0 0 1 -0.14999999999999991 0 0 1 I I #
ellipse-curve $-1 0 3 -0.14999999999999999 0 0 1 0.14999999999999999 0 0 1 I I #
coedge $-1 $229 $230 $140 $181 forward $231 $-1 #
edge $-1 $186 0 $185 3.1415926535897931 $140 $232 forward 7 unknown #
coedge $-1 $233 $141 $230 $234 reversed $184 $-1 #
coedge $-1 $141 $233 $229 $235 forward $184 $-1 #
loop $-1 $-1 $182 $236 #
vertex $-1 $181 $237 #
vertex $-1 $181 $238 #
ellipse-curve $-1 0 0 0 0 0 1 -0.14999999999999999 0 0 1 I I #
coedge $-1 $239 $143 $240 $241 forward $50 $-1 #
coedge $-1 $242 $243 $143 $190 reversed $244 $-1 #
edge $-1 $194 0 $245 3.5 $143 $246 forward 7 unknown #
coedge $-1 $247 $144 $248 $249 reversed $193 $-1 #
coedge $-1 $144 $247 $242 $250 reversed $193 $-1 #
loop $-1 $-1 $191 $251 #
vertex $-1 $190 $252 #
straight-curve $-1 -5.3332213033864146 -2.7915266292330183 0 0.62469504755442429 0.78086880944303039 0 I I #
coedge $-1 $146 $239 $253 $254 forward $50 $-1 #
coedge $-1 $255 $256 $146 $198 reversed $257 $-1 #
edge $-1 $258 0 $202 3.5 $146 $259 forward 7 unknown #
coedge $-1 $260 $147 $256 $261 forward $201 $-1 #
coedge $-1 $147 $260 $262 $263 forward $201 $-1 #
loop $-1 $-1 $199 $264 #
vertex $-1 $148 $265 #
straight-curve $-1 -3.5 3.5 0 -0.79999999999999993 0.60000000000000009 0 I I #
coedge $-1 $150 $149 $266 $267 forward $151 $-1 #
coedge $-1 $262 $268 $149 $206 reversed $269 $270 #
edge $-1 $152 0 $271 1 $205 $272 forward 7 unknown #
coedge $-1 $273 $248 $150 $208 forward $274 $275 #
edge $-1 $153 0 $276 1.0000000000000002 $207 $277 forward 7 unknown #
face $-1 $278 $151 $3 $-1 $279 reversed single #
point $-1 -5.3332213033864138 4.8749159775398097 0 #
point $-1 -5.3332213033864146 -2.7915266292330183 0 #
coedge $-1 $156 $155 $175 $226 forward $157 $-1 #
vertex $-1 $160 $280 #
straight-curve $-1 -2.5 1.4999999999999998 0 0 0 -1 I I #
vertex $-1 $226 $281 #
straight-curve $-1 -0.5 1.5000000000000002 0 0 0 -1 I I #
point $-1 -2.8499999999999996 0 -0.14999999999999999 #
point $-1 -3.1499999999999999 0 -0.14999999999999999 #
face $-1 $282 $257 $3 $-1 $283 forward single #
cone-surface $-1 -1.5 1.5 -0.074999999999999997 0 0 -1 1 0 0 1 I I 0 1 1 forward I I I I #
coedge $-1 $284 $284 $233 $285 forward $173 $-1 #
coedge $-1 $286 $174 $287 $288 reversed $134 $-1 #
coedge $-1 $174 $289 $260 $290 reversed $134 $-1 #
coedge $-1 $256 $255 $174 $225 forward $257 $-1 #
edge $-1 $291 -3.0615158845559431e-017 $292 3.5 $224 $293 forward 7 unknown #
edge $-1 $215 0 $213 3.1415926535897931 $212 $294 forward 7 unknown #
ellipse-curve $-1 -1.5 1.5 -0.14999999999999999 0 0 -1 -1 0 0 1 I I #
ellipse-curve $-1 -3 0 -0.14999999999999999 0 0 1 0.15000000000000036 0 0 1 I I #
coedge $-1 $295 $180 $183 $235 reversed $231 $-1 #
coedge $-1 $180 $295 $182 $234 forward $231 $-1 #
loop $-1 $-1 $229 $296 #
ellipse-curve $-1 0 0 0 0 0 1 0.14999999999999999 0 0 1 I I #
coedge $-1 $183 $182 $221 $285 reversed $184 $-1 #
edge $-1 $297 0 $186 0.14999999999999999 $230 $298 forward 7 unknown #
edge $-1 $299 0 $185 0.14999999999999999 $229 $300 forward 7 unknown #
face $-1 $296 $184 $3 $-1 $301 reversed single #
point $-1 -0.14999999999999999 0 0 #
point $-1 0.14999999999999999 0 0 #
coedge $-1 $196 $188 $302 $303 forward $50 $-1 #
coedge $-1 $304 $305 $188 $241 reversed $306 $-1 #
edge $-1 $245 0 $307 1.5707963267948966 $188 $308 forward 7 unknown #
coedge $-1 $309 $189 $192 $250 forward $244 $-1 #
coedge $-1 $189 $309 $304 $310 reversed $244 $-1 #
loop $-1 $-1 $242 $311 #
vertex $-1 $241 $312 #
straight-curve $-1 -3.5 -0.5 0 1 0 0 I I #
coedge $-1 $192 $191 $313 $314 forward $193 $-1 #
coedge $-1 $207 $315 $191 $249 forward $274 $316 #
edge $-1 $317 0 $153 0.14999999999999999 $191 $318 forward 7 unknown #
edge $-1 $194 0 $319 0.14999999999999999 $242 $320 forward 7 unknown #
face $-1 $321 $193 $3 $-1 $322 forward single #
point $-1 -3.5 -0.5 0 #
coedge $-1 $323 $324 $196 $254 reversed $325 $-1 #
edge $-1 $326 0 $258 1.5707963267948983 $196 $327 forward 7 unknown #
coedge $-1 $224 $197 $324 $328 forward $257 $-1 #
coedge $-1 $197 $224 $199 $261 reversed $257 $-1 #
loop $-1 $-1 $255 $219 #
vertex $-1 $198 $329 #
straight-curve $-1 0 3.5 0 -1 0 0 I I #
coedge $-1 $200 $199 $223 $290 forward $201 $-1 #
edge $-1 $202 0 $292 0.14999999999999999 $256 $330 forward 7 unknown #
coedge $-1 $331 $205 $200 $263 reversed $269 $332 #
edge $-1 $333 0 $152 0.14999999999999999 $200 $334 forward 7 unknown #
face $-1 $236 $201 $3 $-1 $335 forward single #
point $-1 -3.5 3.5 0 #
coedge $-1 $336 $337 $204 $267 reversed $338 $-1 #
edge $-1 $271 0 $276 8 $266 $339 forward 7 unknown #
coedge $-1 $205 $331 $340 $341 forward $269 $342 #
loop $-1 $-1 $268 $278 #
pcurve $-1 0 forward { exppc nurbs 3 open 5 
	-1 3 -0.74999999999999978 1 -0.49999999999999989 1 -0.25000000000000022 1 0 3 
	1 1 1 
	0.91666666666666674 1 0.99999999999999989 
	0.75000000000000022 1 1 
	0.49999999999999967 1 1 
	0.25000000000000178 1 0.99999999999999978 
	0.08333333333333412 1 1 
	0 1 1 
	0.001 
	spline forward { exactsur full nurbs 3 1 both open open none none 5 2 
	0 3 0.25000000000000133 2 0.5 2 0.75 2 1 3 
	0 1 1 1 
	-5.3332213033864129 4.8749159775398088 -0.14999999999999999 1 
	-5.3585904943089968 4.8853396460781582 -0.15000000000000016 1 
	-5.3839586717826533 4.8957633146165076 -0.14676471607123001 1 
	-5.4330715760444095 4.9166106516932064 -0.13403074048961602 1 
	-5.4568163028325083 4.927034320231555 -0.12453204883677216 1 
	-5.5011616964020371 4.9478816573082538 -0.099879159035631049 1 
	-5.5217623631834662 4.9583053258466032 -0.084724960887333792 1 
	-5.5585007070966235 4.9791526629233021 -0.049731738891409125 1 
	-5.5746383842283533 4.9895763314616506 -0.029892715043781694 1 
	-5.5880286822170886 5 -0.0083451915703200152 1 
	-5.3332213033864138 4.8749159775398088 0 1 
	-5.3459058988477057 4.8853396460781582 0 1 
	-5.3585899875845344 4.8957633146165076 0.0016176419643849789 1 
	-5.3831464397154116 4.9166106516932064 0.0079846297551919698 1 
	-5.3950188031094619 4.927034320231555 0.012733975581613882 1 
	-5.4171914998942263 4.9478816573082538 0.025060420482184424 1 
	-5.4274918332849404 4.9583053258466032 0.03263751955633306 1 
	-5.4458610052415191 4.9791526629233021 0.050134130554295393 1 
	-5.4539298438073844 4.9895763314616506 0.060053642478109098 1 
	-5.4606249928017521 5 0.070827404214839962 1 
	0 
	0 
	0 
	3 0.25000000000000133 0.5 0.75 
	0 
	0 
	0 
	F 1 F 0 F 1 F 0 } I I I I 
	} 0 0 #
vertex $-1 $341 $343 #
intcurve-curve $-1 forward { surfintcur full nurbs 3 open 5 
	0 3 0.25000000000000028 1 0.50000000000000011 1 0.75000000000000022 1 1 3 
	-5.3332213033864138 4.8749159775398088 0 1 
	-5.3461719355428823 4.8853396460781582 5.1224234542464324e-005 1 
	-5.371157128087221 4.9061869831548579 0.0032186056534156586 0.99999999999999978 
	-5.4069014302802438 4.9374579887699035 0.017464859019962472 1.0000000000000002 
	-5.4378680598028719 4.9687289943849544 0.040305146458129597 0.99999999999999956 
	-5.4537459173260547 4.9895763314616497 0.059854719138979634 1.0000000000000002 
	-5.4606249928017521 5 0.070827404214840003 1 
	0.001 
	spline forward { ref 1 } I I I I 
	cone -5.3332213033864146 5 0.14999999999999999 0 1 0 0 0 -0.14999999999999999 1 I I 0 1 0.14999999999999999 forward I I I I 
	nurbs 3 open 5 
	0 3 0.25000000000000022 1 0.49999999999999989 1 0.74999999999999978 1 1 3 
	0 1 1 
	0.08333333333333412 1 1 
	0.25000000000000178 1 0.99999999999999978 
	0.49999999999999967 1 1 
	0.75000000000000022 1 1 
	0.91666666666666674 1 0.99999999999999989 
	1 1 1 
	
	nullbs 
	I I 
	0 
	0 
	2 0.25000000000000017 0.74999999999999956 
	} I I #
coedge $-1 $315 $207 $344 $345 reversed $274 $346 #
loop $-1 $-1 $248 $321 #
pcurve $-1 0 forward { exppc nurbs 3 open 5 
	0 3 0.24999999999999983 1 0.5 1 0.74999999999999989 1 1.0000000000000002 3 
	0 1 1 
	0.083333333333332663 1 1.0000000000000002 
	0.24999999999999858 1 0.99999999999999956 
	0.50000000000000022 1 1.0000000000000002 
	0.75 1 1 
	0.91666666666666674 1 0.99999999999999989 
	1 1 1 
	0.001 
	spline forward { exactsur full nurbs 3 1 both open open none none 5 2 
	0 3 0.24999999999999892 2 0.5 2 0.75 2 1 3 
	0 1 1 1 
	-5.3332213033864146 -2.7915266292330188 -0.14999999999999999 1 
	-5.3585904943089986 -2.8088994101302673 -0.14999999999999999 1 
	-5.3839586717826542 -2.8262721910275159 -0.14676471607122971 1 
	-5.4330715760444104 -2.8610177528220122 -0.13403074048961555 1 
	-5.4568163028325101 -2.8783905337192608 -0.12453204883677169 1 
	-5.5011616964020371 -2.913136095513758 -0.099879159035630632 1 
	-5.5217623631834662 -2.930508876411007 -0.084724960887333417 1 
	-5.5585007070966235 -2.9652544382055042 -0.049731738891408889 1 
	-5.5746383842283533 -2.9826272191027523 -0.029892715043781555 1 
	-5.5880286822170886 -3 -0.0083451915703200152 1 
	-5.3332213033864146 -2.7915266292330188 0 1 
	-5.3459058988477066 -2.8088994101302673 0 1 
	-5.3585899875845353 -2.8262721910275159 0.0016176419643851086 1 
	-5.3831464397154125 -2.8610177528220122 0.0079846297551921727 1 
	-5.3950188031094619 -2.8783905337192608 0.012733975581614102 1 
	-5.4171914998942263 -2.913136095513758 0.02506042048218465 1 
	-5.4274918332849404 -2.930508876411007 0.032637519556333268 1 
	-5.4458610052415191 -2.9652544382055042 0.050134130554295518 1 
	-5.4539298438073844 -2.9826272191027523 0.060053642478109168 1 
	-5.4606249928017521 -3 0.070827404214839962 1 
	0 
	0 
	0 
	3 0.24999999999999892 0.5 0.75 
	0 
	0 
	0 
	F 1 F 0 F 1 F 0 } I I I I 
	} 0 0 #
vertex $-1 $347 $348 #
intcurve-curve $-1 forward { surfintcur full nurbs 3 open 5 
	0 3 0.25000000000000017 1 0.5 1 0.75000000000000067 1 1.0000000000000002 3 
	-5.3332213033864146 -2.7915266292330188 0 1 
	-5.3461719355428814 -2.8088994101302669 5.1224234542559307e-005 1 
	-5.3711571280872237 -2.843644971924765 0.0032186056534158868 0.99999999999999978 
	-5.4069014302802412 -2.8957633146165085 0.017464859019962718 1.0000000000000002 
	-5.4378680598028719 -2.947881657308256 0.040305146458129736 1 
	-5.4537459173260547 -2.9826272191027519 0.05985471913897969 1 
	-5.4606249928017521 -3 0.070827404214840003 1 
	0.001 
	spline forward { ref 4 } I I I I 
	cone -5.3332213033864146 5 0.14999999999999999 0 1 0 0 0 -0.14999999999999999 1 I I 0 1 0.14999999999999999 forward I I I I 
	nurbs 3 open 5 
	0 3 0.24999999999999983 1 0.5 1 0.74999999999999989 1 1.0000000000000002 3 
	0 1 1 
	0.083333333333332663 1 1.0000000000000002 
	0.24999999999999858 1 0.99999999999999956 
	0.50000000000000022 1 1.0000000000000002 
	0.75 1 1 
	0.91666666666666674 1 0.99999999999999989 
	1 1 1 
	
	nullbs 
	I I 
	0 
	0 
	2 0.24999999999999831 0.74999999999999989 
	} I I #
face $-1 $349 $269 $3 $-1 $350 forward single #
cone-surface $-1 -5.3332213033864146 5 0.14999999999999999 0 1 0 0 0 -0.14999999999999999 1 I I 0 1 0.14999999999999999 forward I I I I #
point $-1 -2.5 1.5 -0.14999999999999999 #
point $-1 -0.5 1.5 -0.14999999999999999 #
face $-1 $351 $325 $3 $-1 $352 forward single #
plane-surface $-1 -1.75 3.5 -0.074999999999999997 0 1 0 -1 0 0 forward_v I I I I #
coedge $-1 $221 $221 $295 $353 forward $173 $-1 #
edge $-1 $299 0 $297 3.1415926535897931 $221 $354 forward 7 unknown #
coedge $-1 $355 $222 $356 $357 reversed $134 $-1 #
coedge $-1 $324 $323 $222 $288 forward $325 $-1 #
edge $-1 $358 0 $291 1.5707963267948983 $287 $359 forward 7 unknown #
coedge $-1 $223 $313 $360 $361 reversed $134 $-1 #
edge $-1 $292 0 $333 2.2915266292330156 $223 $362 forward 7 unknown #
vertex $-1 $225 $363 #
vertex $-1 $261 $364 #
straight-curve $-1 0 3.5 -0.14999999999999999 -1 0 0 I I #
ellipse-curve $-1 -1.5 1.5 -0.14999999999999999 0 0 -1 1 0 0 1 I I #
coedge $-1 $230 $229 $284 $353 reversed $231 $-1 #
face $-1 $-1 $231 $3 $-1 $365 reversed single #
vertex $-1 $353 $366 #
straight-curve $-1 0.14999999999999999 0 -0.14999999999999999 0 0 1 I I #
vertex $-1 $353 $367 #
straight-curve $-1 -0.14999999999999999 1.8369095307335657e-017 -0.14999999999999999 0 0 1 I I #
cone-surface $-1 0 0 -0.14999999999999999 0 0 1 0.14999999999999999 0 0 1 I I 0 1 0.14999999999999999 forward I I I I #
coedge $-1 $368 $369 $239 $303 reversed $370 $-1 #
edge $-1 $307 0 $326 3 $239 $371 forward 7 unknown #
coedge $-1 $372 $240 $243 $310 forward $306 $-1 #
coedge $-1 $240 $372 $368 $373 reversed $306 $-1 #
loop $-1 $-1 $304 $374 #
vertex $-1 $303 $375 #
ellipse-curve $-1 -1.3877787807814457e-017 4.163336342344337e-017 0 0 0 1 1.3877787807814457e-017 -0.5 0 1 I I #
coedge $-1 $243 $242 $376 $377 forward $244 $-1 #
edge $-1 $245 0 $378 0.14999999999999999 $304 $379 forward 7 unknown #
face $-1 $251 $244 $3 $-1 $380 forward single #
point $-1 0 -0.5 0 #
coedge $-1 $289 $376 $247 $314 reversed $134 $-1 #
edge $-1 $317 -3.4677541258211448e-016 $319 2.9345859400729477 $313 $381 forward 7 unknown #
tcoedge-coedge $-1 $248 $273 $382 $383 reversed $274 $384 -1.0000000000000002 0 #
pcurve $-1 0 forward { exppc nurbs 3 open 2 
	0 3 0.14999999999999999 3 
	0 0 1 
	0 0.33333333333333331 1 
	0 0.66666666666666663 1 
	0 1 1 
	0.001 
	spline forward { ref 4 } I I I I 
	} 0 0 #
tvertex-vertex $-1 $361 $385 0 #
straight-curve $-1 -5.3332213033864146 -2.7915266292330188 -0.14999999999999999 0 0 1 I I #
vertex $-1 $377 $386 #
straight-curve $-1 -3.5 -0.5 0 0 0 -1 I I #
face $-1 $209 $274 $3 $-1 $387 reversed single #
plane-surface $-1 -4.5 -1.75 -0.074999999999999997 0.78086880944303039 -0.62469504755442429 0 0.62469504755442429 0.78086880944303039 0 forward_v I I I I #
coedge $-1 $287 $253 $369 $388 forward $325 $-1 #
coedge $-1 $253 $287 $255 $328 reversed $325 $-1 #
loop $-1 $-1 $323 $282 #
vertex $-1 $254 $389 #
ellipse-curve $-1 3.8857805861880479e-016 3.0000000000000004 0 0 0 1 0.49999999999999961 -4.4408920985006262e-016 0 1 I I #
edge $-1 $258 0 $291 0.14999999999999999 $255 $390 forward 7 unknown #
point $-1 0 3.5 0 #
straight-curve $-1 -3.5 3.5 0 0 0 -1 I I #
tcoedge-coedge $-1 $268 $262 $391 $392 forward $269 $393 0 1.0000000000000002 #
pcurve $-1 0 forward { exppc nurbs 3 open 2 
	-0.14999999999999999 3 0 3 
	0 1 1 
	0 0.66666666666666663 1 
	0 0.33333333333333331 1 
	0 0 1 
	0.001 
	spline forward { ref 1 } I I I I 
	} 0 0 #
tvertex-vertex $-1 $290 $394 8.8817841970012523e-016 #
straight-curve $-1 -5.3332213033864129 4.8749159775398097 -0.14999999999999999 0 0 1 I I #
plane-surface $-1 -4.5 4.25 -0.074999999999999997 0.60000000000000009 0.80000000000000004 0 -0.79999999999999993 0.59999999999999998 0 forward_v I I I I #
coedge $-1 $395 $266 $396 $397 reversed $338 $-1 #
coedge $-1 $266 $395 $398 $347 forward $338 $-1 #
loop $-1 $-1 $395 $399 #
straight-curve $-1 -5.4606249928017512 5 0.070827404214840239 0 -1 0 I I #
coedge $-1 $400 $396 $268 $341 reversed $401 $-1 #
edge $-1 $402 1.8312341408338626e-017 $271 0.14999999999999958 $340 $403 forward 7 unknown #
pcurve $-1 0 forward { exppc nurbs 3 open 2 
	1.8312341408338626e-017 3 0.14999999999999958 3 
	1 0 1 
	1 0.33333333333333331 1 
	1 0.66666666666666663 1 
	1 1 1 
	0.001 
	spline forward { ref 1 } I I I I 
	} 0 0 #
point $-1 -5.4606249928017521 5 0.070827404214839962 #
coedge $-1 $398 $404 $273 $345 forward $405 $-1 #
edge $-1 $406 1.8312341408338626e-017 $276 0.14999999999999958 $344 $407 forward 7 unknown #
pcurve $-1 0 forward { exppc nurbs 3 open 2 
	-0.14999999999999958 3 -2.7755575615628914e-017 3 
	1 1 1 
	1 0.66666666666666663 1 
	1 0.33333333333333331 1 
	1 0 1 
	0.001 
	spline forward { ref 4 } I I I I 
	} 0 0 #
edge $-1 $408 1.88595345881466e-016 $276 1.4864378651229579 $398 $409 forward 7 unknown #
point $-1 -5.4606249928017521 -3 0.070827404214839962 #
face $-1 $410 $401 $3 $-1 $411 forward single #
spline-surface $-1 forward { ref 1 } I I I I #
face $-1 $374 $370 $3 $-1 $412 forward single #
cone-surface $-1 0 3 -0.074999999999999997 0 0 1 0.5 0 0 1 I I 0 1 0.5 forward I I I I #
edge $-1 $297 0 $299 3.1415926535897931 $284 $413 forward 7 unknown #
ellipse-curve $-1 0 0 -0.14999999999999999 0 0 1 -0.14999999999999999 0 0 1 I I #
coedge $-1 $376 $286 $372 $414 reversed $134 $-1 #
coedge $-1 $369 $368 $286 $357 forward $370 $-1 #
edge $-1 $415 -3.0615158845559431e-017 $358 3 $356 $416 forward 7 unknown #
vertex $-1 $288 $417 #
ellipse-curve $-1 3.8857805861880479e-016 3.0000000000000004 -0.14999999999999999 0 0 1 0.49999999999999961 -4.4408920985006262e-016 0 1 I I #
coedge $-1 $382 $391 $289 $361 forward $418 $-1 #
edge $-1 $333 0 $317 7.6664426067728275 $289 $419 forward 7 unknown #
straight-curve $-1 -3.5 3.5 -0.14999999999999999 -0.80000000000000004 0.59999999999999998 0 I I #
point $-1 3.0615158845559431e-017 3.5 -0.14999999999999999 #
point $-1 -3.5 3.5 -0.14999999999999999 #
cone-surface $-1 0 0 -0.14999999999999999 0 0 1 0.14999999999999999 0 0 1 I I 0 1 0.14999999999999999 forward I I I I #
point $-1 0.14999999999999999 0 -0.14999999999999999 #
point $-1 -0.14999999999999999 0 -0.14999999999999999 #
coedge $-1 $356 $302 $305 $373 forward $370 $-1 #
coedge $-1 $302 $356 $323 $388 reversed $370 $-1 #
loop $-1 $-1 $368 $351 #
straight-curve $-1 0.5 0 0 0 1 0 I I #
coedge $-1 $305 $304 $355 $414 forward $306 $-1 #
edge $-1 $307 0 $415 0.14999999999999999 $368 $420 forward 7 unknown #
face $-1 $311 $306 $3 $-1 $421 forward single #
point $-1 0.5 0 0 #
coedge $-1 $313 $355 $309 $377 reversed $134 $-1 #
edge $-1 $319 0 $378 3.5 $309 $422 forward 7 unknown #
vertex $-1 $414 $423 #
straight-curve $-1 0 -0.5 0 0 0 -1 I I #
plane-surface $-1 -1.75 -0.5 -0.074999999999999997 0 -1 0 1 0 0 forward_v I I I I #
straight-curve $-1 -5.3332213033864146 -2.7915266292330183 -0.14999999999999999 0.62469504755442429 0.78086880944303039 0 I I #
tcoedge-coedge $-1 $424 $360 $315 $383 forward $418 $425 0 1.0000000000000002 #
tedge-edge $-1 $317 0 $406 1.0000000000000002 $382 $426 forward 7 unknown 7.9738352104960004e-005 #
pcurve $-1 0 forward { exppc nurbs 3 open 5 
	-1.0000000000000002 3 -0.75 1 -0.5 1 -0.25 1 0 3 
	1 0 1 
	0.91666666666666674 0 0.99999999999999989 
	0.75 0 1 
	0.5 0 1 
	0.25 0 0.99999999999999978 
	0.083333333333333343 0 0.99999999999999989 
	0 0 1 
	0.001 
	spline forward { ref 4 } I I I I 
	} 0 0 #
point $-1 -5.3332213033864146 -2.7915266292330188 -0.14999999999999999 #
point $-1 -3.5 -0.5 -0.14999999999999999 #
spline-surface $-1 forward { ref 4 } I I I I #
edge $-1 $326 0 $358 0.14999999999999999 $323 $427 forward 7 unknown #
point $-1 0.5 3 0 #
straight-curve $-1 0 3.5 0 0 0 -1 I I #
tcoedge-coedge $-1 $360 $424 $331 $392 reversed $418 $428 -1.0000000000000002 0 #
tedge-edge $-1 $333 0 $402 1.0000000000000002 $391 $429 forward 7 unknown 5.7164971487423618e-005 #
pcurve $-1 0 forward { exppc nurbs 3 open 5 
	0 3 0.25 1 0.5 1 0.74999999999999989 1 1.0000000000000002 3 
	0 0 1 
	0.083333333333333343 0 0.99999999999999989 
	0.25 0 0.99999999999999978 
	0.5 0 1 
	0.75 0 1 
	0.91666666666666674 0 0.99999999999999989 
	1 0 1 
	0.001 
	spline forward { ref 1 } I I I I 
	} 0 0 #
point $-1 -5.3332213033864129 4.8749159775398088 -0.14999999999999999 #
coedge $-1 $337 $336 $430 $431 forward $338 $-1 #
coedge $-1 $340 $432 $336 $397 forward $401 $-1 #
edge $-1 $433 -3.77190691762932e-016 $271 1.4864378651229579 $396 $434 forward 7 unknown #
coedge $-1 $435 $344 $337 $347 reversed $405 $-1 #
face $-1 $436 $338 $3 $-1 $437 forward single #
coedge $-1 $432 $340 $438 $439 reversed $401 $-1 #
loop $-1 $-1 $432 $349 #
tvertex-vertex $-1 $439 $440 1.5959455978986625e-016 #
straight-curve $-1 -5.5880286822170886 5 -0.0083451915703200708 0.84935792943557975 0 0.52781730523440085 I I #
coedge $-1 $344 $435 $441 $442 forward $405 $-1 #
loop $-1 $-1 $344 $443 #
tvertex-vertex $-1 $442 $444 1.5959455978986625e-016 #
straight-curve $-1 -5.5880286822170886 -3 -0.0083451915703200708 0.84935792943557975 0 0.52781730523440085 I I #
vertex $-1 $445 $446 #
straight-curve $-1 -6.2451926211693261 -3 1.3333451915703201 0.5278173052344004 0 -0.84935792943558008 I I #
face $-1 $447 $448 $3 $-1 $449 forward single #
plane-surface $-1 -5.9166106516932073 5 0.66249999999999998 0 1 0 0.52781730523440018 0 -0.84935792943558008 forward_v I I I I #
plane-surface $-1 0.5 1.5 -0.074999999999999997 1 0 0 0 1 0 forward_v I I I I #
ellipse-curve $-1 0 0 -0.14999999999999999 0 0 1 0.14999999999999999 0 0 1 I I #
edge $-1 $378 0 $415 1.5707963267948966 $372 $450 forward 7 unknown #
vertex $-1 $357 $451 #
straight-curve $-1 0.5 0 -0.14999999999999999 0 1 0 I I #
point $-1 0.5 3 -0.14999999999999999 #
loop $-1 $-1 $382 $452 #
straight-curve $-1 -5.3332213033864129 4.8749159775398088 -0.14999999999999999 -2.3170548982274374e-016 -1 0 I I #
straight-curve $-1 0.5 0 0 0 0 -1 I I #
cone-surface $-1 0 0 -0.074999999999999997 0 0 1 0 -0.5 0 1 I I 0 1 0.5 forward I I I I #
straight-curve $-1 -3.5 -0.5 -0.14999999999999999 1 0 0 I I #
point $-1 0 -0.5 -0.14999999999999999 #
coedge $-1 $391 $382 $453 $454 reversed $418 $-1 #
pcurve $-1 0 forward { exppc nubs 2 open 7 
	0 2 0.16666666666666669 2 0.33333333333333337 2 0.50000000000000011 2 0.66666666666666674 2 
	0.83333333333333359 2 1.0000000000000002 2 
	-25.971755430776732 0 
	-25.995426423730251 0.034566368108614409 
	-26.088004266328991 0.16943999258340123 
	-26.150994634978481 0.26120859604484659 
	-26.203453980297748 0.33792817331655861 
	-26.237518439375862 0.38774600624146804 
	-26.319211048721698 0.50738381845167191 
	-26.400903658083408 0.62702163068510774 
	-26.434968117145651 0.67683946358679248 
	-26.487427462458371 0.75355904084894187 
	-26.550417831114409 0.84532764431994545 
	-26.64299567372899 0.98020126881784253 
	-26.666666666666668 1.014767636903344 
	0.001 
	cone -5.3332213033864146 5 0.14999999999999999 0 1 0 0 0 -0.29999999999999999 1 I I 0 1 0.29999999999999999 forward I I I I 
	} 0 0 #
intcurve-curve $-1 forward { exactcur full nurbs 3 open 5 
	0 3 0.25 1 0.5 1 0.75000000000000044 1 1.0000000000000002 3 
	-5.3332213033864146 -2.7915266292330188 -0.14999999999999999 1 
	-5.3589540423477198 -2.8091483672389748 -0.14999999999999999 0.99999999999999989 
	-5.4090929527880283 -2.8436449719247641 -0.14356278869316821 1.0000000000000002 
	-5.4805815571740712 -2.8957633146165085 -0.11507028196007449 1 
	-5.5425148162193301 -2.947881657308256 -0.069389707083740496 1 
	-5.5744464972822332 -2.9823782619940458 -0.030201497453199569 1 
	-5.5880286822170886 -3 -0.0083451915703200152 1 
	0 
	null_surface 
	null_surface 
	nullbs 
	nullbs 
	I I 
	0 
	0 
	3 0.25 0.5 0.75000000000000044 
	F 1 F 0 } I I #
straight-curve $-1 0.5 3 0 0 0 -1 I I #
pcurve $-1 0 forward { exppc nubs 2 open 7 
	-1.0000000000000002 2 -0.83333333333333359 2 -0.66666666666666685 2 -0.50000000000000011 2 -0.33333333333333343 2 
	-0.16666666666666666 2 0 2 
	0 1.014767636903344 
	-0.013628104800519717 0.98159946858288016 
	-0.069815009175246232 0.84517003357854004 
	-0.10776754059108455 0.7530161326710636 
	-0.13902851654745105 0.67681790977351153 
	-0.15941166614140626 0.62713424736052792 
	-0.20847337076698244 0.50738381845167169 
	-0.25753507541763887 0.38763338948163262 
	-0.27791822498651386 0.33794972712982629 
	-0.30917920093214807 0.26175150425839233 
	-0.34713173235871864 0.16959760332480284 
	-0.40331863675946406 0.033168168257205935 
	-0.41694674153397082 -5.9211894646675018e-015 
	0.001 
	cone -5.3332213033864146 5 0.14999999999999999 0 1 0 0 0 -0.29999999999999999 1 I I 0 1 0.29999999999999999 forward I I I I 
	} 0 0 #
intcurve-curve $-1 forward { exactcur full nurbs 3 open 5 
	0 3 0.25000000000000028 1 0.49999999999999994 1 0.75000000000000044 1 1.0000000000000002 3 
	-5.3332213033864129 4.8749159775398088 -0.14999999999999999 1 
	-5.3590465675884955 4.8855270370244916 -0.15000000000000016 0.99999999999999989 
	-5.4090929527880265 4.906186983154857 -0.14356278869316874 1 
	-5.4805815571740704 4.9374579887699044 -0.11507028196007492 1 
	-5.5425148162193292 4.9687289943849535 -0.069389707083740843 1 
	-5.5743976608589794 4.989388940515318 -0.030280084500126335 1.0000000000000002 
	-5.5880286822170886 5 -0.0083451915703200152 1 
	0 
	null_surface 
	null_surface 
	nullbs 
	nullbs 
	I I 
	0 
	0 
	3 0.25000000000000028 0.49999999999999994 0.75000000000000044 
	F 1 F 0 } I I #
coedge $-1 $455 $456 $395 $431 reversed $457 $-1 #
edge $-1 $433 6.1629758220391547e-033 $408 8 $430 $458 forward 7 unknown #
coedge $-1 $396 $400 $459 $460 forward $401 $-1 #
vertex $-1 $460 $461 #
straight-curve $-1 -6.2451926211693261 5 1.3333451915703201 0.5278173052344004 0 -0.84935792943558008 I I #
coedge $-1 $404 $398 $462 $463 reversed $405 $-1 #
face $-1 $464 $457 $3 $-1 $465 forward single #
plane-surface $-1 -6.2451926211693261 5 1.3333451915703205 0.84935792943558031 0 0.52781730523440018 0.52781730523440007 0 -0.84935792943558019 forward_v I I I I #
coedge $-1 $453 $466 $400 $439 forward $467 $-1 #
edge $-1 $468 -5.6578603764439802e-016 $402 1.4864378651229582 $438 $469 forward 7 unknown #
point $-1 -5.5880286822170886 5 -0.0083451915703200361 #
coedge $-1 $466 $453 $404 $442 reversed $467 $-1 #
edge $-1 $470 -5.6578603764439802e-016 $406 1.4864378651229582 $441 $471 forward 7 unknown #
face $-1 $399 $405 $3 $-1 $472 reversed single #
point $-1 -5.5880286822170886 -3 -0.0083451915703200361 #
edge $-1 $473 0 $408 1.0147676369033345 $474 $475 forward 7 unknown #
point $-1 -6.2451926211693261 -3 1.3333451915703198 #
face $-1 $476 $477 $3 $-1 $478 forward single #
loop $-1 $-1 $479 $410 #
plane-surface $-1 -6.3906742278268558 5 1.3716542029521512 0 1 0 1 0 0 forward_v I I I I #
ellipse-curve $-1 -1.3877787807814457e-017 4.163336342344337e-017 -0.14999999999999999 0 0 1 1.3877787807814457e-017 -0.5 0 1 I I #
point $-1 0.5 -3.0615158845559431e-017 -0.14999999999999999 #
face $-1 $443 $418 $3 $-1 $480 forward single #
coedge $-1 $441 $438 $424 $454 forward $467 $-1 #
edge $-1 $402 0 $406 8 $453 $481 forward 7 unknown #
coedge $-1 $482 $430 $483 $484 reversed $457 $-1 #
coedge $-1 $430 $482 $474 $445 forward $457 $-1 #
loop $-1 $-1 $482 $436 #
straight-curve $-1 -6.2451926211693261 5 1.3333451915703203 0 -1 2.7755575615628914e-017 I I #
coedge $-1 $485 $483 $432 $460 reversed $448 $-1 #
edge $-1 $468 0 $433 0.15000000000000038 $459 $486 forward 7 unknown #
point $-1 -6.2451926211693261 5 1.3333451915703205 #
coedge $-1 $474 $487 $435 $463 forward $488 $-1 #
edge $-1 $470 -6.3718239851249725e-016 $408 0.14999999999999938 $462 $489 forward 7 unknown #
face $-1 $490 $488 $3 $-1 $491 reversed single #
cone-surface $-1 -6.5 5 1.1749999999999998 0 1 0 0 0 0.29999999999999999 1 I I 0 1 0.29999999999999999 forward I I I I #
coedge $-1 $438 $441 $492 $493 reversed $467 $-1 #
loop $-1 $-1 $453 $494 #
vertex $-1 $495 $496 #
straight-curve $-1 -6.3725963105846635 5 1.2541725957851597 0.5278173052344004 0 -0.84935792943558008 I I #
vertex $-1 $497 $498 #
straight-curve $-1 -6.3725963105846635 -3 1.2541725957851597 0.5278173052344004 0 -0.84935792943558008 I I #
plane-surface $-1 -5.9166106516932073 -3 0.66249999999999998 0 1 0 0.52781730523440018 0 -0.84935792943558008 forward_v I I I I #
vertex $-1 $499 $500 #
coedge $-1 $501 $462 $456 $445 reversed $488 $-1 #
ellipse-curve $-1 -6.5000000000000018 -3 1.1749999999999974 0 1 0 1.7763568394002505e-015 0 0.30000000000000293 1 I I #
face $-1 $502 $503 $3 $-1 $504 forward single #
loop $-1 $-1 $505 $447 #
plane-surface $-1 -7.5 5 1.3999999999999999 0 1 0 1 0 0 forward_v I I I I #
coedge $-1 $483 $485 $506 $507 forward $448 $-1 #
cone-surface $-1 -5.3332213033864146 5 0.14999999999999999 0 1 0 0 0 -0.29999999999999999 1 I I 0 1 0.29999999999999999 forward I I I I #
straight-curve $-1 -5.5880286822170886 5 -0.0083451915703198765 0 -1 0 I I #
coedge $-1 $456 $455 $508 $509 forward $457 $-1 #
coedge $-1 $459 $479 $455 $484 forward $448 $-1 #
edge $-1 $510 0 $433 1.0147676369033423 $483 $511 forward 7 unknown #
coedge $-1 $479 $459 $512 $495 reversed $448 $-1 #
straight-curve $-1 -6.3725963105846635 5 1.2541725957851604 0.84935792943558075 0 0.52781730523439951 I I #
coedge $-1 $462 $501 $513 $497 forward $488 $-1 #
loop $-1 $-1 $462 $464 #
straight-curve $-1 -6.3725963105846626 -3 1.2541725957851602 0.84935792943558031 0 0.52781730523439996 I I #
face $-1 $514 $515 $3 $-1 $516 reversed single #
plane-surface $-1 -6.3906742278268558 -3 1.3716542029521512 0 1 0 1 0 0 forward_v I I I I #
coedge $-1 $513 $512 $466 $493 forward $517 $-1 #
edge $-1 $468 0 $470 8 $492 $518 forward 7 unknown #
face $-1 $452 $467 $3 $-1 $519 reversed single #
edge $-1 $520 0 $468 1.0147676369033394 $512 $521 forward 7 unknown #
point $-1 -6.3725963105846635 5 1.2541725957851604 #
edge $-1 $522 -8.7651211691226361e-030 $470 1.0147676369033571 $513 $523 forward 7 unknown #
point $-1 -6.3725963105846635 -3 1.2541725957851604 #
edge $-1 $524 0 $473 1.5 $525 $526 forward 7 unknown #
point $-1 -6.5 -3 1.4750000000000003 #
coedge $-1 $487 $474 $527 $528 reversed $488 $-1 #
face $-1 $529 $530 $3 $-1 $531 forward single #
loop $-1 $-1 $532 $476 #
cone-surface $-1 -8 4.5 1.325 0 0 -1 -0.5 0 0 1 I I 0 1 0.5 forward I I I I #
coedge $-1 $533 $534 $535 $536 forward $477 $-1 #
coedge $-1 $534 $533 $479 $507 reversed $477 $-1 #
edge $-1 $520 0 $510 0.14999999999999991 $506 $537 forward 7 unknown #
coedge $-1 $538 $539 $482 $509 reversed $540 $-1 #
edge $-1 $510 0 $473 8 $508 $541 forward 7 unknown #
vertex $-1 $507 $542 #
ellipse-curve $-1 -6.5 5 1.1749999999999998 0 1 0 0 0 0.30000000000000049 1 I I #
coedge $-1 $492 $543 $485 $495 forward $517 $-1 #
coedge $-1 $543 $492 $487 $497 reversed $517 $-1 #
face $-1 $544 $545 $3 $-1 $546 forward single #
loop $-1 $-1 $527 $490 #
plane-surface $-1 -7.5 -3 1.3999999999999999 0 1 0 1 0 0 forward_v I I I I #
loop $-1 $-1 $492 $547 #
straight-curve $-1 -6.3725963105846635 5 1.2541725957851604 0 -1 0 I I #
plane-surface $-1 -6.3725963105846635 5 1.2541725957851604 0.84935792943558031 0 0.52781730523440018 0.52781730523440007 0 -0.84935792943558019 forward_v I I I I #
vertex $-1 $548 $549 #
ellipse-curve $-1 -6.5 5 1.1749999999999998 0 1 0 0 0 0.15000000000000036 1 I I #
vertex $-1 $550 $551 #
ellipse-curve $-1 -6.4999999999999991 -3 1.1750000000000025 0 1 0 -8.8817841970012523e-016 0 0.14999999999999769 1 I I #
vertex $-1 $552 $553 #
coedge $-1 $554 $527 $539 $499 reversed $515 $-1 #
straight-curve $-1 -8 -3 1.4749999999999999 1 0 0 I I #
coedge $-1 $525 $555 $501 $528 forward $515 $-1 #
edge $-1 $522 -2.2204460492503131e-016 $473 0.15000000000000013 $527 $556 forward 7 unknown #
face $-1 $557 $558 $3 $-1 $559 reversed single #
loop $-1 $560 $561 $502 #
plane-surface $-1 -8.5 5 1.4749999999999999 0 0 1 1 0 0 forward_v I I I I #
coedge $-1 $535 $562 $563 $564 forward $503 $-1 #
coedge $-1 $506 $505 $538 $565 forward $477 $-1 #
coedge $-1 $505 $506 $566 $548 reversed $477 $-1 #
coedge $-1 $567 $532 $505 $536 reversed $503 $-1 #
edge $-1 $568 0 $569 0.14999999999999991 $505 $570 forward 7 unknown #
straight-curve $-1 -6.5 5 1.325 0 0 1 I I #
coedge $-1 $563 $508 $533 $565 reversed $540 $-1 #
coedge $-1 $508 $571 $525 $499 forward $540 $-1 #
loop $-1 $572 $563 $502 #
straight-curve $-1 -6.5 5 1.4749999999999999 0 -1 0 I I #
point $-1 -6.5 5 1.4749999999999999 #
coedge $-1 $512 $513 $573 $574 reversed $517 $-1 #
face $-1 $575 $576 $3 $-1 $577 reversed single #
loop $-1 $-1 $578 $514 #
cone-surface $-1 -8 -2.5 1.325 0 0 -1 0 -0.5 0 1 I I 0 1 0.5 forward I I I I #
face $-1 $494 $517 $3 $-1 $579 reversed single #
edge $-1 $568 0 $520 1.5 $566 $580 forward 7 unknown #
point $-1 -6.5 5 1.325 #
edge $-1 $581 0 $522 1.5 $582 $583 forward 7 unknown #
point $-1 -6.5 -3 1.325 #
edge $-1 $581 0 $524 0.14999999999999991 $554 $584 forward 7 unknown #
point $-1 -8 -3 1.4749999999999999 #
coedge $-1 $555 $525 $585 $552 reversed $515 $-1 #
coedge $-1 $527 $554 $582 $550 forward $515 $-1 #
straight-curve $-1 -6.5 -3 1.3250000000000002 0 0 1 I I #
face $-1 $586 $587 $3 $-1 $588 reversed single #
loop $-1 $-1 $589 $529 #
cone-surface $-1 -7.5 -2 1.4749999999999999 0 0 -1 -0.13749999999999998 0 0 1 I I 0 1 0.13749999999999998 forward I I I I #
loop $-1 $540 $590 $502 #
coedge $-1 $591 $591 $592 $593 forward $530 $-1 #
coedge $-1 $532 $567 $594 $595 forward $503 $-1 #
coedge $-1 $596 $538 $532 $564 reversed $540 $-1 #
edge $-1 $597 0 $569 1.5707963267948895 $563 $598 forward 7 unknown #
edge $-1 $569 0 $510 1.5 $533 $599 forward 7 unknown #
coedge $-1 $573 $600 $534 $548 forward $601 $-1 #
coedge $-1 $562 $535 $600 $602 reversed $503 $-1 #
vertex $-1 $548 $603 #
vertex $-1 $565 $604 #
straight-curve $-1 -8 5 1.325 0 0 1 I I #
coedge $-1 $539 $596 $578 $605 reversed $540 $-1 #
loop $-1 $-1 $606 $502 #
coedge $-1 $582 $566 $543 $574 forward $601 $-1 #
edge $-1 $520 0 $522 8 $573 $607 forward 7 unknown #
face $-1 $608 $609 $3 $-1 $610 reversed single #
loop $-1 $-1 $611 $544 #
plane-surface $-1 -8.5 1 1.3999999999999999 1 0 0 0 -1 0 forward_v I I I I #
coedge $-1 $612 $585 $571 $605 forward $545 $-1 #
cone-surface $-1 -6.5 5 1.1749999999999998 0 1 0 0 0 0.14999999999999999 1 I I 0 1 0.14999999999999999 forward I I I I #
straight-curve $-1 -8 5 1.325 1 0 0 I I #
vertex $-1 $613 $614 #
coedge $-1 $615 $573 $555 $550 reversed $601 $-1 #
straight-curve $-1 -8 -3 1.325 1 0 0 I I #
straight-curve $-1 -8 -3 1.325 0 0 1 I I #
coedge $-1 $578 $616 $554 $552 forward $545 $-1 #
face $-1 $617 $618 $3 $-1 $619 reversed single #
loop $-1 $-1 $620 $557 #
cone-surface $-1 -7.5 -2 1.4749999999999999 0 0 -1 -0.13749999999999998 0 0 1 I I 0 1 0.13749999999999998 forward I I I I #
coedge $-1 $592 $621 $622 $623 reversed $558 $-1 #
coedge $-1 $624 $624 $625 $626 forward $560 $-1 #
coedge $-1 $561 $561 $627 $628 forward $530 $-1 #
coedge $-1 $629 $589 $561 $593 reversed $558 $-1 #
edge $-1 $630 0 $631 3.1415926535897931 $561 $632 forward 7 unknown #
coedge $-1 $633 $634 $562 $595 reversed $576 $-1 #
edge $-1 $635 0 $597 0.14999999999999991 $594 $636 forward 7 unknown #
coedge $-1 $571 $563 $634 $637 forward $540 $-1 #
vertex $-1 $595 $638 #
ellipse-curve $-1 -7.9999999999999982 4.4999999999999982 1.4749999999999999 0 0 -1 -0.50000000000000178 1.7763568394002505e-015 0 1 I I #
straight-curve $-1 -8 5 1.4749999999999999 1 0 0 I I #
coedge $-1 $566 $639 $567 $602 forward $601 $-1 #
loop $-1 $640 $573 $586 #
edge $-1 $635 0 $568 1.5707963267948895 $600 $641 forward 7 unknown #
point $-1 -8 5 1.325 #
point $-1 -8 5 1.4749999999999999 #
edge $-1 $524 0 $642 1.5707963267948948 $571 $643 forward 7 unknown #
coedge $-1 $644 $644 $645 $646 forward $572 $-1 #
straight-curve $-1 -6.5 5 1.325 0 -1 0 I I #
face $-1 $264 $647 $3 $-1 $648 reversed single #
loop $-1 $-1 $649 $575 #
cone-surface $-1 -7.5 4 1.4749999999999999 0 0 -1 -0.13749999999999998 0 0 1 I I 0 1 0.13749999999999998 forward I I I I #
coedge $-1 $634 $633 $612 $650 forward $576 $-1 #
coedge $-1 $616 $578 $611 $650 reversed $545 $-1 #
edge $-1 $581 0 $651 1.5707963267948948 $615 $652 forward 7 unknown #
point $-1 -8 -3 1.325 #
coedge $-1 $639 $582 $616 $613 forward $601 $-1 #
coedge $-1 $585 $612 $615 $613 reversed $545 $-1 #
face $-1 $653 $654 $3 $-1 $655 reversed single #
loop $-1 $656 $657 $586 #
plane-surface $-1 -8.5 5 1.325 0 0 1 1 0 0 forward_v I I I I #
coedge $-1 $627 $658 $629 $659 reversed $587 $-1 #
coedge $-1 $589 $629 $657 $660 forward $558 $-1 #
coedge $-1 $658 $627 $589 $623 forward $587 $-1 #
edge $-1 $631 0 $661 0.14999999999999991 $622 $662 forward 7 unknown #
coedge $-1 $590 $590 $663 $664 forward $560 $-1 #
coedge $-1 $665 $666 $590 $626 reversed $654 $-1 #
edge $-1 $667 0 $668 3.1415926535897931 $590 $669 forward 7 unknown #
coedge $-1 $622 $620 $591 $628 reversed $587 $-1 #
edge $-1 $631 0 $630 3.1415926535897931 $591 $670 forward 7 unknown #
coedge $-1 $621 $592 $620 $659 forward $558 $-1 #
vertex $-1 $628 $671 #
vertex $-1 $628 $672 #
ellipse-curve $-1 -7.5 -2 1.4749999999999999 0 0 -1 0.13750000000000018 0 0 1 I I #
coedge $-1 $611 $594 $639 $673 forward $576 $-1 #
coedge $-1 $594 $611 $596 $637 reversed $576 $-1 #
vertex $-1 $602 $674 #
straight-curve $-1 -8.5 4.5 1.325 0 0 1 I I #
edge $-1 $597 0 $642 7 $634 $675 forward 7 unknown #
point $-1 -8.5 4.5 1.4749999999999999 #
coedge $-1 $600 $615 $633 $673 reversed $601 $-1 #
loop $-1 $-1 $676 $586 #
ellipse-curve $-1 -7.9999999999999982 4.4999999999999982 1.325 0 0 -1 -0.50000000000000178 1.7763568394002505e-015 0 1 I I #
vertex $-1 $637 $677 #
ellipse-curve $-1 -8 -2.4999999999999991 1.4749999999999999 0 0 -1 0 -0.50000000000000089 0 1 I I #
coedge $-1 $606 $606 $678 $679 forward $572 $-1 #
coedge $-1 $680 $649 $606 $646 reversed $609 $-1 #
edge $-1 $681 0 $682 3.1415926535897931 $606 $683 forward 7 unknown #
loop $-1 $-1 $684 $608 #
cone-surface $-1 -7.5 4 1.4749999999999999 0 0 -1 -0.13749999999999998 0 0 1 I I 0 1 0.13749999999999998 forward I I I I #
coedge $-1 $645 $685 $686 $687 reversed $609 $-1 #
edge $-1 $651 0 $642 0.14999999999999991 $611 $688 forward 7 unknown #
vertex $-1 $673 $689 #
ellipse-curve $-1 -8 -2.4999999999999991 1.325 0 0 -1 0 -0.50000000000000089 0 1 I I #
face $-1 $547 $690 $3 $-1 $691 reversed single #
loop $-1 $-1 $666 $617 #
cone-surface $-1 -7.5 1 1.4749999999999999 0 0 -1 -0.13749999999999998 0 0 1 I I 0 1 0.13749999999999998 forward I I I I #
loop $-1 $601 $692 $586 #
coedge $-1 $693 $693 $621 $660 reversed $618 $-1 #
coedge $-1 $620 $622 $693 $694 forward $587 $-1 #
edge $-1 $630 0 $695 0.14999999999999991 $620 $696 forward 7 unknown #
edge $-1 $695 0 $661 3.1415926535897931 $657 $697 forward 7 unknown #
vertex $-1 $694 $698 #
straight-curve $-1 -7.6375000000000002 -2 1.4749999999999999 0 0 -1 I I #
coedge $-1 $699 $700 $624 $664 reversed $690 $-1 #
edge $-1 $668 0 $667 3.1415926535897931 $624 $701 forward 7 unknown #
coedge $-1 $702 $625 $700 $703 forward $654 $-1 #
coedge $-1 $625 $702 $699 $704 reversed $654 $-1 #
vertex $-1 $664 $705 #
vertex $-1 $664 $706 #
ellipse-curve $-1 -7.5 1 1.4749999999999999 0 0 -1 0.13750000000000018 0 0 1 I I #
ellipse-curve $-1 -7.5 -2 1.4749999999999999 0 0 -1 -0.13750000000000018 0 0 1 I I #
point $-1 -7.3624999999999998 -2 1.4749999999999999 #
point $-1 -7.6375000000000002 -2 1.4749999999999999 #
edge $-1 $635 0 $651 7 $639 $707 forward 7 unknown #
point $-1 -8.5 4.5 1.325 #
straight-curve $-1 -8.5 4.5 1.4749999999999999 0 -1 0 I I #
coedge $-1 $708 $708 $685 $709 reversed $640 $-1 #
point $-1 -8.5 -2.5 1.4749999999999999 #
coedge $-1 $686 $684 $644 $679 reversed $647 $-1 #
edge $-1 $682 0 $681 3.1415926535897931 $644 $710 forward 7 unknown #
coedge $-1 $685 $645 $684 $711 forward $609 $-1 #
vertex $-1 $679 $712 #
vertex $-1 $679 $713 #
ellipse-curve $-1 -7.5 4 1.4749999999999999 0 0 -1 0.13750000000000018 0 0 1 I I #
coedge $-1 $678 $714 $680 $711 reversed $647 $-1 #
coedge $-1 $649 $680 $676 $709 forward $609 $-1 #
coedge $-1 $714 $678 $649 $687 forward $647 $-1 #
edge $-1 $682 0 $715 0.14999999999999991 $686 $716 forward 7 unknown #
straight-curve $-1 -8.5 -2.5 1.325 0 0 1 I I #
point $-1 -8.5 -2.5 1.325 #
loop $-1 $-1 $700 $653 #
cone-surface $-1 -7.5 1 1.4749999999999999 0 0 -1 -0.13749999999999998 0 0 1 I I 0 1 0.13749999999999998 forward I I I I #
coedge $-1 $717 $717 $702 $718 reversed $656 $-1 #
coedge $-1 $657 $657 $658 $694 reversed $618 $-1 #
edge $-1 $661 0 $695 3.1415926535897931 $693 $719 forward 7 unknown #
vertex $-1 $694 $720 #
straight-curve $-1 -7.3624999999999998 -2 1.4749999999999999 0 0 -1 I I #
ellipse-curve $-1 -7.5 -2 1.325 0 0 -1 0.13750000000000018 0 0 1 I I #
point $-1 -7.6375000000000002 -2 1.325 #
coedge $-1 $721 $663 $666 $704 forward $690 $-1 #
coedge $-1 $663 $721 $665 $703 reversed $690 $-1 #
ellipse-curve $-1 -7.5 1 1.4749999999999999 0 0 -1 -0.13750000000000018 0 0 1 I I #
coedge $-1 $666 $665 $692 $718 forward $654 $-1 #
edge $-1 $667 0 $722 0.14999999999999991 $700 $723 forward 7 unknown #
edge $-1 $668 0 $724 0.14999999999999991 $699 $725 forward 7 unknown #
point $-1 -7.3624999999999998 1 1.4749999999999999 #
point $-1 -7.6375000000000002 1 1.4749999999999999 #
straight-curve $-1 -8.5 4.5 1.325 0 -1 0 I I #
coedge $-1 $676 $676 $714 $726 reversed $640 $-1 #
edge $-1 $727 0 $715 3.1415926535897993 $676 $728 forward 7 unknown #
ellipse-curve $-1 -7.5 4 1.4749999999999999 0 0 -1 -0.13750000000000018 0 0 1 I I #
edge $-1 $681 0 $727 0.14999999999999991 $684 $729 forward 7 unknown #
point $-1 -7.3624999999999998 4 1.4749999999999999 #
point $-1 -7.6375000000000002 4 1.4749999999999999 #
coedge $-1 $684 $686 $708 $726 forward $647 $-1 #
vertex $-1 $726 $730 #
straight-curve $-1 -7.6375000000000002 4 1.4749999999999999 0 0 -1 I I #
coedge $-1 $692 $692 $721 $731 reversed $656 $-1 #
edge $-1 $722 0 $724 3.1415926535897869 $692 $732 forward 7 unknown #
ellipse-curve $-1 -7.5 -2 1.325 0 0 -1 -0.13750000000000018 0 0 1 I I #
point $-1 -7.3624999999999998 -2 1.325 #
coedge $-1 $700 $699 $717 $731 forward $690 $-1 #
vertex $-1 $731 $733 #
straight-curve $-1 -7.3624999999999998 1 1.4749999999999999 0 0 -1 I I #
vertex $-1 $731 $734 #
straight-curve $-1 -7.6375000000000002 1 1.4749999999999999 0 0 -1 I I #
edge $-1 $715 0 $727 3.1415926535897931 $708 $735 forward 7 unknown #
vertex $-1 $726 $736 #
ellipse-curve $-1 -7.5 3.9999999999999996 1.325 0 0 -1 0.13750000000000018 4.4408920985006262e-016 0 1 I I #
straight-curve $-1 -7.3624999999999998 4 1.4749999999999999 0 0 -1 I I #
point $-1 -7.6375000000000002 4 1.325 #
edge $-1 $724 0 $722 3.1415926535897993 $717 $737 forward 7 unknown #
ellipse-curve $-1 -7.5 1.0000000000000004 1.325 0 0 -1 0.13750000000000018 -4.4408920985006262e-016 0 1 I I #
point $-1 -7.3624999999999998 1 1.325 #
point $-1 -7.6375000000000002 1 1.325 #
ellipse-curve $-1 -7.5 4 1.325 0 0 -1 -0.13750000000000018 0 0 1 I I #
point $-1 -7.3624999999999998 4 1.325 #
ellipse-curve $-1 -7.5 1.0000000000000004 1.325 0 0 -1 -0.13750000000000018 -4.4408920985006262e-016 0 1 I I #
End-of-ACIS-data 