600 0 1 0           
100 GICL Pro/E ACIS Translator - Source: f:/data5/repository/PTC/V18/lrgasm18/cb_bus_bar_mnt.prt.2 - 6 0 13 ACIS 6.0.3 NT 24 Thu Apr 04 13:35:18 2002 
1 9.9999999999999995e-007 1e-010 
body $-1 $1 $-1 $2 #
lump $-1 $-1 $3 $0 #
transform $-1 1 0 0 0 1 0 0 0 1 0 0 0 25.399999999999999 no_rotate no_reflect no_shear #
shell $-1 $-1 $-1 $4 $-1 $1 #
face $-1 $5 $6 $3 $-1 $7 reversed single #
face $-1 $8 $9 $3 $-1 $10 forward single #
loop $-1 $-1 $11 $4 #
plane-surface $-1 0 0 -4 0 0 1 1 0 0 forward_v I I I I #
face $-1 $12 $13 $3 $-1 $14 forward single #
loop $-1 $-1 $15 $5 #
plane-surface $-1 2.25 -0.049999999999999996 -4 1 0 0 0 1 0 forward_v I I I I #
coedge $-1 $16 $17 $18 $19 reversed $6 $-1 #
face $-1 $20 $21 $3 $-1 $22 reversed single #
loop $-1 $-1 $23 $8 #
plane-surface $-1 2.25 0 -4 0 1 0 -1 0 0 forward_v I I I I #
coedge $-1 $24 $18 $25 $26 forward $9 $-1 #
coedge $-1 $27 $11 $28 $29 reversed $6 $-1 #
coedge $-1 $11 $30 $31 $32 reversed $6 $-1 #
coedge $-1 $15 $33 $11 $19 forward $9 $-1 #
edge $-1 $34 0 $35 0.049999999999999996 $11 $36 forward 7 unknown #
face $-1 $37 $38 $3 $-1 $39 forward single #
loop $-1 $-1 $40 $12 #
cone-surface $-1 1.5999999999999999 0.099999999999999992 -4 0 0 1 0.099999999999999992 0 0 1 I I 0 1 0.099999999999999992 forward I I I I #
coedge $-1 $41 $31 $42 $43 forward $13 $-1 #
coedge $-1 $33 $15 $44 $45 reversed $9 $-1 #
coedge $-1 $31 $41 $15 $26 reversed $13 $-1 #
edge $-1 $35 0 $46 8 $25 $47 forward 7 unknown #
coedge $-1 $48 $16 $49 $50 reversed $6 $-1 #
coedge $-1 $51 $52 $16 $29 forward $53 $-1 #
edge $-1 $54 0 $34 0.65000000000000013 $16 $55 forward 7 unknown #
coedge $-1 $17 $56 $57 $58 reversed $6 $-1 #
coedge $-1 $23 $25 $17 $32 forward $13 $-1 #
edge $-1 $35 0 $59 0.65000000000000013 $17 $60 forward 7 unknown #
coedge $-1 $18 $24 $51 $61 reversed $9 $-1 #
vertex $-1 $29 $62 #
vertex $-1 $32 $63 #
straight-curve $-1 2.25 -0.049999999999999996 -4 0 1 0 I I #
face $-1 $64 $65 $3 $-1 $66 forward single #
loop $-1 $-1 $67 $20 #
plane-surface $-1 1.5 0.099999999999999992 -4 1 0 0 0 1 0 forward_v I I I I #
coedge $-1 $68 $57 $69 $70 forward $21 $-1 #
coedge $-1 $25 $23 $71 $72 reversed $13 $-1 #
coedge $-1 $57 $68 $23 $43 reversed $21 $-1 #
edge $-1 $59 0 $73 8 $23 $74 forward 7 unknown #
coedge $-1 $71 $75 $24 $45 forward $76 $-1 #
edge $-1 $77 0 $46 0.049999999999999996 $44 $78 forward 7 unknown #
vertex $-1 $72 $79 #
straight-curve $-1 2.25 0 -4 0 0 1 I I #
coedge $-1 $80 $27 $81 $82 reversed $6 $-1 #
coedge $-1 $83 $84 $27 $50 forward $85 $-1 #
edge $-1 $86 0 $54 1.5707963267949081 $27 $87 forward 7 unknown #
coedge $-1 $88 $28 $33 $61 forward $53 $-1 #
coedge $-1 $28 $88 $83 $89 reversed $53 $-1 #
loop $-1 $-1 $51 $90 #
vertex $-1 $50 $91 #
straight-curve $-1 1.5999999999999999 -0.049999999999999996 -4 1 0 0 I I #
coedge $-1 $30 $92 $93 $94 reversed $6 $-1 #
coedge $-1 $40 $42 $30 $58 forward $21 $-1 #
edge $-1 $59 0 $95 1.5707963267948966 $30 $96 forward 7 unknown #
vertex $-1 $32 $97 #
straight-curve $-1 2.25 0 -4 -1 0 0 I I #
edge $-1 $34 0 $77 8 $51 $98 forward 7 unknown #
point $-1 2.25 -0.049999999999999996 -4 #
point $-1 2.25 0 -4 #
face $-1 $99 $100 $3 $-1 $101 forward single #
loop $-1 $-1 $102 $37 #
cone-surface $-1 1.3999999999999999 0.19999999999999998 -4 0 0 1 0.099999999999999992 0 0 1 I I 0 1 0.099999999999999992 forward I I I I #
coedge $-1 $103 $93 $104 $105 forward $38 $-1 #
coedge $-1 $42 $40 $106 $107 reversed $21 $-1 #
coedge $-1 $93 $103 $40 $70 reversed $38 $-1 #
edge $-1 $95 6.1870499463439952e-033 $108 8 $40 $109 forward 7 unknown #
coedge $-1 $106 $44 $41 $72 forward $76 $-1 #
edge $-1 $46 0 $73 0.65000000000000013 $71 $110 forward 7 unknown #
vertex $-1 $72 $111 #
straight-curve $-1 1.5999999999999999 0 -4 0 0 1 I I #
coedge $-1 $44 $112 $88 $113 forward $76 $-1 #
loop $-1 $-1 $106 $114 #
vertex $-1 $45 $115 #
straight-curve $-1 2.25 -0.049999999999999996 4 0 1 0 I I #
point $-1 2.25 0 4 #
coedge $-1 $116 $48 $117 $118 reversed $6 $-1 #
coedge $-1 $119 $120 $48 $82 forward $121 $-1 #
edge $-1 $122 0 $86 0.099999999999998285 $48 $123 forward 7 unknown #
coedge $-1 $124 $49 $52 $89 forward $85 $-1 #
coedge $-1 $49 $124 $119 $125 reversed $85 $-1 #
loop $-1 $-1 $83 $126 #
vertex $-1 $82 $127 #
ellipse-curve $-1 1.5999999999999999 0.099999999999999992 -4 0 0 1 -0.14999999999999991 1.7069679003611782e-015 0 1 I I #
coedge $-1 $52 $51 $75 $113 reversed $53 $-1 #
edge $-1 $54 6.018531076210112e-036 $128 8 $83 $129 forward 7 unknown #
face $-1 $114 $53 $3 $-1 $130 forward single #
point $-1 1.5999999999999999 -0.049999999999999996 -4 #
coedge $-1 $56 $131 $132 $133 reversed $6 $-1 #
coedge $-1 $67 $69 $56 $94 forward $38 $-1 #
edge $-1 $95 0 $134 0.099999999999999992 $56 $135 forward 7 unknown #
vertex $-1 $58 $136 #
ellipse-curve $-1 1.5999999999999999 0.099999999999999992 -4 0 0 -1 0 -0.099999999999999992 0 1 I I #
point $-1 1.5999999999999999 0 -4 #
straight-curve $-1 2.25 -0.049999999999999996 -4 0 0 1 I I #
face $-1 $137 $138 $3 $-1 $139 forward single #
loop $-1 $-1 $140 $64 #
plane-surface $-1 1.3999999999999999 0.29999999999999999 -4 0 1 0 -1 0 0 forward_v I I I I #
coedge $-1 $141 $132 $142 $143 forward $65 $-1 #
coedge $-1 $69 $67 $144 $145 reversed $38 $-1 #
coedge $-1 $132 $141 $67 $105 reversed $65 $-1 #
edge $-1 $134 0 $146 7.9999999999999991 $67 $147 forward 7 unknown #
coedge $-1 $144 $71 $68 $107 forward $76 $-1 #
edge $-1 $73 0 $108 1.5707963267948888 $106 $148 forward 7 unknown #
vertex $-1 $145 $149 #
straight-curve $-1 1.4999999999999998 0.10000000000000001 -4 2.7755575615628914e-017 -1.7347234759768071e-018 1 I I #
straight-curve $-1 2.25 0 4 -1 0 0 I I #
point $-1 1.5999999999999999 0 4 #
coedge $-1 $75 $150 $124 $151 forward $76 $-1 #
edge $-1 $128 0 $77 0.65000000000000013 $75 $152 forward 7 unknown #
face $-1 $-1 $76 $3 $-1 $153 forward single #
point $-1 2.25 -0.049999999999999996 4 #
coedge $-1 $154 $80 $155 $156 reversed $6 $-1 #
coedge $-1 $157 $158 $80 $118 forward $159 $-1 #
edge $-1 $160 0 $122 1.5707963267948966 $80 $161 forward 7 unknown #
coedge $-1 $162 $81 $84 $125 forward $121 $-1 #
coedge $-1 $81 $162 $157 $163 reversed $121 $-1 #
loop $-1 $-1 $119 $164 #
vertex $-1 $118 $165 #
straight-curve $-1 1.45 0.19999999999999998 -4 0 -1 0 I I #
coedge $-1 $84 $83 $112 $151 reversed $85 $-1 #
edge $-1 $86 0 $166 8 $119 $167 forward 7 unknown #
face $-1 $90 $85 $3 $-1 $168 forward single #
point $-1 1.45 0.1000000000000017 -4 #
vertex $-1 $113 $169 #
straight-curve $-1 1.5999999999999999 -0.050000000000000003 -4 0 8.6736173798840355e-019 1 I I #
plane-surface $-1 1.5999999999999999 -0.049999999999999996 -4 0 -1 0 1 0 0 forward_v I I I I #
coedge $-1 $92 $170 $171 $172 reversed $6 $-1 #
coedge $-1 $102 $104 $92 $133 forward $65 $-1 #
edge $-1 $134 0 $173 1.5707963267948966 $92 $174 forward 7 unknown #
vertex $-1 $94 $175 #
straight-curve $-1 1.5 0.099999999999999992 -4 0 1 0 I I #
point $-1 1.5 0.099999999999999992 -4 #
face $-1 $176 $177 $3 $-1 $178 forward single #
loop $-1 $-1 $179 $99 #
cone-surface $-1 -1.3999999999999999 0.19999999999999998 -4 0 0 1 0.099999999999999992 0 0 1 I I 0 1 0.099999999999999992 forward I I I I #
coedge $-1 $180 $171 $181 $182 forward $100 $-1 #
coedge $-1 $104 $102 $183 $184 reversed $65 $-1 #
coedge $-1 $171 $180 $102 $143 reversed $100 $-1 #
edge $-1 $173 0 $185 8 $102 $186 forward 7 unknown #
coedge $-1 $183 $106 $103 $145 forward $76 $-1 #
edge $-1 $108 0 $146 0.099999999999999992 $144 $187 forward 7 unknown #
vertex $-1 $184 $188 #
straight-curve $-1 1.5 0.19999999999999998 -4 0 0 1 I I #
ellipse-curve $-1 1.6000000000000003 0.10000000000000032 4 0 0 -1 -4.4408920985006262e-016 -0.10000000000000032 0 1 I I #
point $-1 1.5 0.099999999999999992 4 #
coedge $-1 $112 $189 $162 $190 forward $76 $-1 #
edge $-1 $166 1.1287267417022414e-014 $128 1.5707963267949052 $112 $191 forward 7 unknown #
straight-curve $-1 1.5999999999999999 -0.049999999999999996 4 1 0 0 I I #
plane-surface $-1 0 0 4 0 0 1 1 0 0 forward_v I I I I #
coedge $-1 $192 $116 $193 $194 reversed $6 $-1 #
coedge $-1 $195 $196 $116 $156 forward $197 $-1 #
edge $-1 $198 0 $160 2.7999999999999998 $116 $199 forward 7 unknown #
coedge $-1 $200 $117 $120 $163 forward $159 $-1 #
coedge $-1 $117 $200 $195 $201 reversed $159 $-1 #
loop $-1 $-1 $157 $202 #
vertex $-1 $156 $203 #
ellipse-curve $-1 1.3999999999999999 0.19999999999999998 -4 0 0 -1 0 0.050000000000000017 0 1 I I #
coedge $-1 $120 $119 $150 $190 reversed $121 $-1 #
edge $-1 $122 0 $204 8 $157 $205 forward 7 unknown #
face $-1 $126 $121 $3 $-1 $206 forward single #
point $-1 1.45 0.19999999999999998 -4 #
vertex $-1 $151 $207 #
straight-curve $-1 1.45 0.10000000000000001 -4 0 0 1 I I #
cone-surface $-1 1.5999999999999999 0.099999999999999992 -4 0 0 1 0.14999999999999999 0 0 1 I I 0 1 0.14999999999999999 forward I I I I #
point $-1 1.5999999999999999 -0.049999999999999996 4 #
coedge $-1 $131 $208 $209 $210 reversed $6 $-1 #
coedge $-1 $140 $142 $131 $172 forward $100 $-1 #
edge $-1 $173 0 $211 2.7999999999999998 $131 $212 forward 7 unknown #
vertex $-1 $133 $213 #
ellipse-curve $-1 1.3999999999999999 0.19999999999999998 -4 0 0 1 0.10000000000000009 0 0 1 I I #
point $-1 1.5 0.19999999999999998 -4 #
face $-1 $214 $215 $3 $-1 $216 reversed single #
loop $-1 $-1 $217 $137 #
plane-surface $-1 -1.5 0.19999999999999998 -4 -1 0 0 0 -1 0 forward_v I I I I #
coedge $-1 $218 $209 $219 $220 forward $138 $-1 #
coedge $-1 $142 $140 $221 $222 reversed $100 $-1 #
coedge $-1 $209 $218 $140 $182 reversed $138 $-1 #
edge $-1 $211 0 $223 7.9999999999999991 $140 $224 forward 7 unknown #
coedge $-1 $221 $144 $141 $184 forward $76 $-1 #
edge $-1 $146 0 $185 1.5707963267948999 $183 $225 forward 7 unknown #
vertex $-1 $222 $226 #
straight-curve $-1 1.3999999999999999 0.29999999999999999 -4 0 0 1 I I #
straight-curve $-1 1.5 0.099999999999999992 4 0 1 0 I I #
point $-1 1.5 0.19999999999999998 3.9999999999999991 #
coedge $-1 $150 $227 $200 $228 forward $76 $-1 #
edge $-1 $204 0 $166 0.099999999999999978 $150 $229 forward 7 unknown #
ellipse-curve $-1 1.6000000000000001 0.10000000000000017 4 0 0 1 -0.15000000000000013 1.5265566588595902e-015 0 1 I I #
coedge $-1 $230 $154 $231 $232 reversed $6 $-1 #
coedge $-1 $233 $234 $154 $194 forward $235 $-1 #
edge $-1 $236 0 $198 1.5707963267948966 $154 $237 forward 7 unknown #
coedge $-1 $238 $155 $158 $201 forward $197 $-1 #
coedge $-1 $155 $238 $233 $239 reversed $197 $-1 #
loop $-1 $-1 $195 $240 #
vertex $-1 $194 $241 #
straight-curve $-1 -1.3999999999999999 0.25 -4 1 0 0 I I #
coedge $-1 $158 $157 $189 $228 reversed $159 $-1 #
edge $-1 $160 0 $242 7.9999999999999991 $195 $243 forward 7 unknown #
face $-1 $164 $159 $3 $-1 $244 reversed single #
point $-1 1.3999999999999999 0.25 -4 #
vertex $-1 $190 $245 #
straight-curve $-1 1.45 0.19999999999999998 -4 0 0 1 I I #
plane-surface $-1 1.45 0.19999999999999998 -4 -1 0 0 0 -1 0 forward_v I I I I #
point $-1 1.45 0.10000000000000001 4 #
coedge $-1 $170 $246 $247 $248 reversed $6 $-1 #
coedge $-1 $179 $181 $170 $210 forward $138 $-1 #
edge $-1 $211 0 $249 1.5707963267948966 $170 $250 forward 7 unknown #
vertex $-1 $172 $251 #
straight-curve $-1 1.3999999999999999 0.29999999999999999 -4 -1 0 0 I I #
point $-1 1.3999999999999999 0.29999999999999999 -4 #
face $-1 $252 $253 $3 $-1 $254 forward single #
loop $-1 $-1 $255 $176 #
cone-surface $-1 -1.5999999999999999 0.099999999999999992 -4 0 0 1 0.099999999999999992 0 0 1 I I 0 1 0.099999999999999992 forward I I I I #
coedge $-1 $256 $247 $257 $258 forward $177 $-1 #
coedge $-1 $181 $179 $259 $260 reversed $138 $-1 #
coedge $-1 $247 $256 $179 $220 reversed $177 $-1 #
edge $-1 $249 0 $261 8 $179 $262 forward 7 unknown #
coedge $-1 $259 $183 $180 $222 forward $76 $-1 #
edge $-1 $185 0 $223 2.7999999999999998 $221 $263 forward 7 unknown #
vertex $-1 $260 $264 #
straight-curve $-1 -1.3999999999999999 0.29999999999999999 -4 0 0 1 I I #
ellipse-curve $-1 1.4000000000000001 0.20000000000000009 4 0 0 1 0.099999999999999867 -1.1102230246251565e-016 0 1 I I #
point $-1 1.3999999999999999 0.29999999999999999 4 #
coedge $-1 $189 $265 $238 $266 forward $76 $-1 #
edge $-1 $242 2.4651903288156479e-030 $204 1.5707963267948895 $189 $267 forward 7 unknown #
straight-curve $-1 1.45 0.19999999999999998 4 0 -1 0 I I #
coedge $-1 $268 $192 $269 $270 reversed $6 $-1 #
coedge $-1 $271 $272 $192 $232 forward $273 $-1 #
edge $-1 $274 0 $236 0.099999999999998285 $192 $275 forward 7 unknown #
coedge $-1 $276 $193 $196 $239 forward $235 $-1 #
coedge $-1 $193 $276 $271 $277 reversed $235 $-1 #
loop $-1 $-1 $233 $278 #
vertex $-1 $232 $279 #
ellipse-curve $-1 -1.3999999999999999 0.19999999999999998 -4 0 0 -1 -0.050000000000000044 0 0 1 I I #
coedge $-1 $196 $195 $227 $266 reversed $197 $-1 #
edge $-1 $198 9.6296497219361793e-035 $280 8 $233 $281 forward 7 unknown #
face $-1 $202 $197 $3 $-1 $282 forward single #
point $-1 -1.3999999999999999 0.25 -4 #
vertex $-1 $228 $283 #
straight-curve $-1 1.3999999999999999 0.25 -4 0 0 1 I I #
cone-surface $-1 1.3999999999999999 0.19999999999999998 -4 0 0 1 0.049999999999999996 0 0 1 I I 0 1 0.049999999999999996 forward I I I I #
point $-1 1.45 0.19999999999999998 4 #
coedge $-1 $208 $284 $285 $286 reversed $6 $-1 #
coedge $-1 $217 $219 $208 $248 forward $177 $-1 #
edge $-1 $249 0 $287 0.099999999999999992 $208 $288 forward 7 unknown #
vertex $-1 $210 $289 #
ellipse-curve $-1 -1.3999999999999999 0.19999999999999998 -4 0 0 1 0 0.10000000000000001 0 1 I I #
point $-1 -1.3999999999999999 0.29999999999999999 -4 #
face $-1 $290 $291 $3 $-1 $292 forward single #
loop $-1 $-1 $293 $214 #
plane-surface $-1 -1.5999999999999999 0 -4 0 1 0 -1 0 0 forward_v I I I I #
coedge $-1 $294 $285 $295 $296 forward $215 $-1 #
coedge $-1 $219 $217 $297 $298 reversed $177 $-1 #
coedge $-1 $285 $294 $217 $258 reversed $215 $-1 #
edge $-1 $287 0 $299 7.9999999999999991 $217 $300 forward 7 unknown #
coedge $-1 $297 $221 $218 $260 forward $76 $-1 #
edge $-1 $223 0 $261 1.5707963267948881 $259 $301 forward 7 unknown #
vertex $-1 $298 $302 #
straight-curve $-1 -1.5 0.19999999999999998 -4 0 0 1 I I #
straight-curve $-1 1.3999999999999999 0.29999999999999999 4 -1 0 0 I I #
point $-1 -1.3999999999999999 0.29999999999999999 3.9999999999999991 #
coedge $-1 $227 $303 $276 $304 forward $76 $-1 #
edge $-1 $280 0 $242 2.7999999999999998 $227 $305 forward 7 unknown #
ellipse-curve $-1 1.3999999999999997 0.19999999999999984 4 0 0 -1 2.2204460492503131e-016 0.050000000000000155 0 1 I I #
coedge $-1 $306 $230 $307 $308 reversed $6 $-1 #
coedge $-1 $309 $310 $230 $270 forward $311 $-1 #
edge $-1 $312 0 $274 1.5707963267949081 $230 $313 forward 7 unknown #
coedge $-1 $314 $231 $234 $277 forward $273 $-1 #
coedge $-1 $231 $314 $309 $315 reversed $273 $-1 #
loop $-1 $-1 $271 $316 #
vertex $-1 $270 $317 #
straight-curve $-1 -1.45 0.1000000000000017 -4 0 1 0 I I #
coedge $-1 $234 $233 $265 $304 reversed $235 $-1 #
edge $-1 $236 0 $318 7.9999999999999991 $271 $319 forward 7 unknown #
face $-1 $240 $235 $3 $-1 $320 reversed single #
point $-1 -1.45 0.19999999999999998 -4 #
vertex $-1 $266 $321 #
straight-curve $-1 -1.3999999999999999 0.24999999999999997 -4 0 3.4694469519536142e-018 1 I I #
plane-surface $-1 -1.3999999999999999 0.25 -4 0 -1 0 1 0 0 forward_v I I I I #
point $-1 1.3999999999999999 0.24999999999999997 3.9999999999999991 #
coedge $-1 $246 $306 $322 $323 reversed $6 $-1 #
coedge $-1 $255 $257 $246 $286 forward $215 $-1 #
edge $-1 $287 0 $324 1.5707963267948966 $246 $325 forward 7 unknown #
vertex $-1 $248 $326 #
straight-curve $-1 -1.5 0.19999999999999998 -4 0 -1 0 I I #
point $-1 -1.5 0.19999999999999998 -4 #
face $-1 $327 $328 $3 $-1 $329 forward single #
loop $-1 $-1 $330 $252 #
plane-surface $-1 -2.25 0 -4 -1 0 0 0 -1 0 forward_v I I I I #
coedge $-1 $331 $322 $332 $333 forward $253 $-1 #
coedge $-1 $257 $255 $334 $335 reversed $215 $-1 #
coedge $-1 $322 $331 $255 $296 reversed $253 $-1 #
edge $-1 $324 0 $336 8 $255 $337 forward 7 unknown #
coedge $-1 $334 $259 $256 $298 forward $76 $-1 #
edge $-1 $261 0 $299 0.10000000000000002 $297 $338 forward 7 unknown #
vertex $-1 $335 $339 #
straight-curve $-1 -1.5 0.099999999999999964 -4 0 0 1 I I #
ellipse-curve $-1 -1.3999999999999995 0.19999999999999957 4 0 0 1 -4.4408920985006262e-016 0.10000000000000042 0 1 I I #
point $-1 -1.5 0.19999999999999998 4 #
coedge $-1 $265 $340 $314 $341 forward $76 $-1 #
edge $-1 $318 0 $280 1.5707963267948895 $265 $342 forward 7 unknown #
straight-curve $-1 -1.3999999999999999 0.25 4 1 0 0 I I #
coedge $-1 $284 $268 $343 $344 reversed $6 $-1 #
coedge $-1 $345 $346 $268 $308 forward $328 $-1 #
edge $-1 $347 0 $312 0.65000000000000013 $268 $348 forward 7 unknown #
coedge $-1 $349 $269 $272 $315 forward $311 $-1 #
coedge $-1 $269 $349 $345 $350 reversed $311 $-1 #
loop $-1 $-1 $309 $327 #
vertex $-1 $308 $351 #
ellipse-curve $-1 -1.5999999999999999 0.099999999999999992 -4 0 0 1 0 -0.14999999999999999 0 1 I I #
coedge $-1 $272 $271 $303 $341 reversed $273 $-1 #
edge $-1 $274 0 $352 8 $309 $353 forward 7 unknown #
face $-1 $278 $273 $3 $-1 $354 forward single #
point $-1 -1.45 0.1000000000000017 -4 #
vertex $-1 $304 $355 #
straight-curve $-1 -1.45 0.19999999999999998 -4 0 0 1 I I #
cone-surface $-1 -1.3999999999999999 0.19999999999999998 -4 0 0 1 0.049999999999999996 0 0 1 I I 0 1 0.049999999999999996 forward I I I I #
point $-1 -1.3999999999999999 0.25 4 #
coedge $-1 $293 $295 $284 $323 forward $253 $-1 #
edge $-1 $324 0 $356 0.65000000000000013 $284 $357 forward 7 unknown #
vertex $-1 $286 $358 #
ellipse-curve $-1 -1.5999999999999999 0.099999999999999992 -4 0 0 -1 0.099999999999999867 0 0 1 I I #
point $-1 -1.5 0.099999999999999992 -4 #
face $-1 $316 $311 $3 $-1 $359 forward single #
loop $-1 $-1 $345 $290 #
plane-surface $-1 -2.25 -0.049999999999999996 -4 0 -1 0 1 0 0 forward_v I I I I #
coedge $-1 $360 $343 $346 $361 forward $291 $-1 #
coedge $-1 $295 $293 $362 $363 reversed $253 $-1 #
coedge $-1 $343 $360 $293 $333 reversed $291 $-1 #
edge $-1 $356 0 $364 8 $293 $365 forward 7 unknown #
coedge $-1 $362 $297 $294 $335 forward $76 $-1 #
edge $-1 $299 2.7755575615629135e-016 $336 1.5707963267948977 $334 $366 forward 7 unknown #
vertex $-1 $363 $367 #
straight-curve $-1 -1.5999999999999999 0 -4 0 0 1 I I #
straight-curve $-1 -1.5 0.19999999999999998 4 0 -1 0 I I #
point $-1 -1.4999999999999998 0.099999999999999964 3.9999999999999991 #
coedge $-1 $303 $368 $349 $369 forward $76 $-1 #
edge $-1 $352 -1.7069679003611782e-015 $318 0.099999999999998285 $303 $370 forward 7 unknown #
ellipse-curve $-1 -1.3999999999999997 0.19999999999999984 4 0 0 -1 -0.050000000000000266 1.3877787807814457e-016 0 1 I I #
coedge $-1 $330 $332 $306 $344 forward $291 $-1 #
edge $-1 $356 0 $347 0.049999999999999996 $306 $371 forward 7 unknown #
coedge $-1 $372 $307 $310 $350 forward $328 $-1 #
coedge $-1 $307 $372 $330 $361 reversed $328 $-1 #
vertex $-1 $344 $373 #
straight-curve $-1 -2.25 -0.049999999999999996 -4 1 0 0 I I #
coedge $-1 $310 $309 $340 $369 reversed $311 $-1 #
edge $-1 $312 0 $374 8 $345 $375 forward 7 unknown #
point $-1 -1.5999999999999999 -0.049999999999999996 -4 #
vertex $-1 $341 $376 #
straight-curve $-1 -1.45 0.099999999999999992 -4 0 0 1 I I #
plane-surface $-1 -1.45 0.099999999999999992 -4 1 0 0 0 1 0 forward_v I I I I #
point $-1 -1.45 0.19999999999999998 3.9999999999999991 #
vertex $-1 $323 $377 #
straight-curve $-1 -1.5999999999999999 0 -4 -1 0 0 I I #
point $-1 -1.5999999999999999 0 -4 #
cone-surface $-1 -1.5999999999999999 0.099999999999999992 -4 0 0 1 0.14999999999999999 0 0 1 I I 0 1 0.14999999999999999 forward I I I I #
coedge $-1 $332 $330 $378 $379 reversed $291 $-1 #
edge $-1 $347 0 $380 8 $330 $381 forward 7 unknown #
coedge $-1 $378 $334 $331 $363 forward $76 $-1 #
edge $-1 $336 0 $364 0.65000000000000013 $362 $382 forward 7 unknown #
vertex $-1 $379 $383 #
straight-curve $-1 -2.25 0 -4 0 0 1 I I #
ellipse-curve $-1 -1.5999999999999999 0.099999999999999881 4 0 0 -1 0.099999999999999867 1.1102230246251565e-016 0 1 I I #
point $-1 -1.5999999999999999 0 4 #
coedge $-1 $340 $378 $372 $384 forward $76 $-1 #
edge $-1 $374 -2.7391003653507292e-031 $352 1.5707963267948939 $340 $385 forward 7 unknown #
straight-curve $-1 -1.45 0.1000000000000017 4 0 1 0 I I #
straight-curve $-1 -2.25 0 -4 0 -1 0 I I #
coedge $-1 $346 $345 $368 $384 reversed $328 $-1 #
point $-1 -2.25 -0.049999999999999996 -4 #
vertex $-1 $369 $386 #
straight-curve $-1 -1.5999999999999999 -0.049999999999999996 -4 0 0 1 I I #
point $-1 -1.45 0.099999999999999992 4 #
point $-1 -2.25 0 -4 #
coedge $-1 $368 $362 $360 $379 forward $76 $-1 #
edge $-1 $364 0 $380 0.049999999999999996 $378 $387 forward 7 unknown #
vertex $-1 $384 $388 #
straight-curve $-1 -2.25 -0.049999999999999996 -4 0 0 1 I I #
straight-curve $-1 -1.5999999999999999 0 4 -1 0 0 I I #
point $-1 -2.25 0 4 #
edge $-1 $380 0 $374 0.65000000000000013 $368 $389 forward 7 unknown #
ellipse-curve $-1 -1.6000000000000001 0.10000000000000017 4 0 0 1 2.2204460492503131e-016 -0.15000000000000016 0 1 I I #
point $-1 -1.5999999999999999 -0.050000000000000003 4 #
straight-curve $-1 -2.25 0 4 0 -1 0 I I #
point $-1 -2.25 -0.049999999999999996 4 #
straight-curve $-1 -2.25 -0.049999999999999996 4 1 0 0 I I #
End-of-ACIS-data 