600 0 1 0           
95 GICL Pro/E ACIS Translator - Source: f:/data5/repository/PTC/V18/lrgasm18/channel_3.prt.2 - 6 0 13 ACIS 6.0.3 NT 24 Thu Apr 04 13:34:48 2002 
1 9.9999999999999995e-007 1e-010 
body $-1 $1 $-1 $2 #
lump $-1 $-1 $3 $0 #
transform $-1 1 0 0 0 1 0 0 0 1 0 0 0 25.399999999999999 no_rotate no_reflect no_shear #
shell $-1 $-1 $-1 $4 $-1 $1 #
face $-1 $5 $6 $3 $-1 $7 reversed single #
face $-1 $8 $9 $3 $-1 $10 forward single #
loop $-1 $-1 $11 $4 #
plane-surface $-1 67.5 0 0 -1 0 0 0 0 1 forward_v I I I I #
face $-1 $12 $13 $3 $-1 $14 forward single #
loop $-1 $-1 $15 $5 #
plane-surface $-1 67.5 -5.25 -4 0 0 -1 0 -1 0 forward_v I I I I #
coedge $-1 $16 $17 $18 $19 reversed $6 $-1 #
face $-1 $20 $21 $3 $-1 $22 forward single #
loop $-1 $23 $24 $8 #
plane-surface $-1 67.5 -6 -4 0 -1 0 0 0 1 forward_v I I I I #
coedge $-1 $25 $18 $26 $27 forward $9 $-1 #
coedge $-1 $28 $11 $29 $30 reversed $6 $-1 #
coedge $-1 $11 $31 $32 $33 reversed $6 $-1 #
coedge $-1 $15 $34 $11 $19 forward $9 $-1 #
edge $-1 $35 0 $36 0.75 $11 $37 forward 7 unknown #
face $-1 $38 $39 $3 $-1 $40 forward single #
loop $-1 $41 $42 $12 #
plane-surface $-1 67.5 -6 0 0 0 1 0 1 0 forward_v I I I I #
loop $-1 $-1 $43 $8 #
coedge $-1 $44 $32 $45 $46 forward $13 $-1 #
coedge $-1 $34 $15 $47 $48 reversed $9 $-1 #
coedge $-1 $32 $44 $15 $27 reversed $13 $-1 #
edge $-1 $36 0 $49 135 $26 $50 forward 7 unknown #
coedge $-1 $51 $16 $52 $53 reversed $6 $-1 #
coedge $-1 $54 $55 $16 $30 forward $56 $-1 #
edge $-1 $57 0 $35 3.25 $16 $58 forward 7 unknown #
coedge $-1 $17 $59 $60 $61 reversed $6 $-1 #
coedge $-1 $24 $26 $17 $33 forward $13 $-1 #
edge $-1 $36 0 $62 4 $17 $63 forward 7 unknown #
coedge $-1 $18 $25 $54 $64 reversed $9 $-1 #
vertex $-1 $30 $65 #
vertex $-1 $33 $66 #
straight-curve $-1 67.5 -5.25 -4 0 -1 0 I I #
face $-1 $67 $68 $3 $-1 $69 forward single #
loop $-1 $-1 $70 $20 #
plane-surface $-1 67.5 0 0 0 1 0 0 0 -1 forward_v I I I I #
loop $-1 $71 $72 $12 #
coedge $-1 $73 $60 $74 $75 forward $21 $-1 #
coedge $-1 $76 $76 $77 $78 reversed $23 $-1 #
coedge $-1 $26 $24 $79 $80 reversed $13 $-1 #
coedge $-1 $60 $73 $24 $46 reversed $21 $-1 #
edge $-1 $62 0 $81 135 $24 $82 forward 7 unknown #
coedge $-1 $79 $83 $25 $48 forward $84 $-1 #
edge $-1 $85 0 $49 0.75 $47 $86 forward 7 unknown #
vertex $-1 $80 $87 #
straight-curve $-1 67.5 -6 -4 -1 0 0 I I #
coedge $-1 $88 $28 $89 $90 reversed $6 $-1 #
coedge $-1 $91 $92 $28 $53 forward $93 $-1 #
edge $-1 $94 0 $57 4.5 $28 $95 forward 7 unknown #
coedge $-1 $96 $29 $34 $64 forward $56 $-1 #
coedge $-1 $29 $96 $91 $97 reversed $56 $-1 #
loop $-1 $98 $54 $99 #
vertex $-1 $53 $100 #
straight-curve $-1 67.5 -5.25 -0.75 0 0 -1 I I #
coedge $-1 $31 $88 $101 $102 reversed $6 $-1 #
coedge $-1 $42 $45 $31 $61 forward $21 $-1 #
edge $-1 $62 0 $103 6 $31 $104 forward 7 unknown #
vertex $-1 $33 $105 #
straight-curve $-1 67.5 -6 -4 0 0 1 I I #
edge $-1 $35 0 $85 135 $54 $106 forward 7 unknown #
point $-1 67.5 -5.25 -4 #
point $-1 67.5 -6 -4 #
face $-1 $107 $108 $3 $-1 $109 forward single #
loop $-1 $-1 $110 $38 #
plane-surface $-1 67.5 0 -4 0 0 -1 0 -1 0 forward_v I I I I #
coedge $-1 $111 $101 $112 $113 forward $39 $-1 #
loop $-1 $114 $115 $12 #
coedge $-1 $116 $116 $117 $118 reversed $41 $-1 #
coedge $-1 $45 $42 $119 $120 reversed $21 $-1 #
coedge $-1 $101 $111 $42 $75 reversed $39 $-1 #
edge $-1 $103 0 $121 135 $42 $122 forward 7 unknown #
coedge $-1 $43 $43 $123 $124 reversed $23 $-1 #
coedge $-1 $125 $126 $43 $78 forward $127 $-1 #
edge $-1 $128 0 $129 3.1415926535897931 $43 $130 forward 7 unknown #
coedge $-1 $119 $47 $44 $80 forward $84 $-1 #
edge $-1 $49 0 $81 4 $79 $131 forward 7 unknown #
vertex $-1 $80 $132 #
straight-curve $-1 67.5 -6 0 -1 0 0 I I #
coedge $-1 $47 $133 $96 $134 forward $84 $-1 #
loop $-1 $-1 $119 $135 #
vertex $-1 $48 $136 #
straight-curve $-1 -67.5 -5.25 -4 0 -1 0 I I #
point $-1 -67.5 -6 -4 #
coedge $-1 $59 $51 $137 $138 reversed $6 $-1 #
coedge $-1 $139 $140 $51 $90 forward $108 $-1 #
edge $-1 $141 0 $94 3.25 $51 $142 forward 7 unknown #
coedge $-1 $143 $52 $55 $97 forward $93 $-1 #
coedge $-1 $52 $143 $139 $144 reversed $93 $-1 #
loop $-1 $145 $91 $107 #
vertex $-1 $90 $146 #
straight-curve $-1 67.5 -0.75 -0.75 0 -1 0 I I #
coedge $-1 $55 $54 $83 $134 reversed $56 $-1 #
edge $-1 $57 0 $147 135 $91 $148 forward 7 unknown #
loop $-1 $-1 $149 $99 #
face $-1 $135 $56 $3 $-1 $150 forward single #
point $-1 67.5 -5.25 -0.75 #
coedge $-1 $70 $74 $59 $102 forward $39 $-1 #
edge $-1 $103 0 $151 4 $59 $152 forward 7 unknown #
vertex $-1 $61 $153 #
straight-curve $-1 67.5 -6 0 0 1 0 I I #
point $-1 67.5 -6 0 #
straight-curve $-1 67.5 -5.25 -4 -1 0 0 I I #
face $-1 $99 $93 $3 $-1 $154 forward single #
loop $-1 $-1 $139 $67 #
plane-surface $-1 67.5 -0.75 -4 0 -1 0 0 0 1 forward_v I I I I #
coedge $-1 $155 $137 $140 $156 forward $68 $-1 #
coedge $-1 $74 $70 $157 $158 reversed $39 $-1 #
coedge $-1 $137 $155 $70 $113 reversed $68 $-1 #
edge $-1 $151 0 $159 135 $70 $160 forward 7 unknown #
loop $-1 $161 $162 $12 #
coedge $-1 $163 $163 $164 $165 forward $71 $-1 #
coedge $-1 $72 $72 $166 $167 reversed $41 $-1 #
coedge $-1 $168 $169 $72 $118 forward $170 $-1 #
edge $-1 $171 0 $172 3.1415926535897931 $72 $173 forward 7 unknown #
coedge $-1 $157 $79 $73 $120 forward $84 $-1 #
edge $-1 $81 0 $121 6 $119 $174 forward 7 unknown #
vertex $-1 $158 $175 #
straight-curve $-1 67.5 0 0 -1 0 0 I I #
coedge $-1 $176 $177 $76 $124 forward $178 $-1 #
edge $-1 $129 0 $128 3.1415926535897931 $76 $179 forward 7 unknown #
coedge $-1 $180 $77 $177 $181 reversed $127 $-1 #
coedge $-1 $77 $180 $176 $182 forward $127 $-1 #
loop $-1 $-1 $125 $183 #
vertex $-1 $124 $184 #
vertex $-1 $124 $185 #
ellipse-curve $-1 43.5 -6 -2.5 0 -1 0 -0.5 0 0 1 I I #
straight-curve $-1 -67.5 -6 -4 0 0 1 I I #
point $-1 -67.5 -6 0 #
coedge $-1 $83 $186 $143 $187 forward $84 $-1 #
edge $-1 $147 0 $85 3.25 $83 $188 forward 7 unknown #
face $-1 $183 $84 $3 $-1 $189 forward single #
point $-1 -67.5 -5.25 -4 #
coedge $-1 $110 $112 $88 $138 forward $68 $-1 #
edge $-1 $151 0 $141 0.75 $88 $190 forward 7 unknown #
coedge $-1 $191 $89 $92 $144 forward $108 $-1 #
coedge $-1 $89 $191 $110 $156 reversed $108 $-1 #
vertex $-1 $138 $192 #
straight-curve $-1 67.5 -0.75 -4 0 0 1 I I #
coedge $-1 $92 $91 $133 $187 reversed $93 $-1 #
edge $-1 $94 0 $193 135 $139 $194 forward 7 unknown #
loop $-1 $195 $196 $107 #
point $-1 67.5 -0.75 -0.75 #
vertex $-1 $134 $197 #
straight-curve $-1 67.5 -5.25 -0.75 -1 0 0 I I #
coedge $-1 $198 $198 $180 $199 forward $98 $-1 #
plane-surface $-1 67.5 -5.25 -0.75 0 1 0 0 0 -1 forward_v I I I I #
vertex $-1 $102 $200 #
straight-curve $-1 67.5 0 0 0 0 -1 I I #
point $-1 67.5 0 0 #
plane-surface $-1 67.5 -0.75 -0.75 0 0 -1 0 -1 0 forward_v I I I I #
coedge $-1 $112 $110 $201 $202 reversed $68 $-1 #
edge $-1 $141 0 $203 135 $110 $204 forward 7 unknown #
coedge $-1 $201 $119 $111 $158 forward $84 $-1 #
edge $-1 $121 0 $159 4 $157 $205 forward 7 unknown #
vertex $-1 $202 $206 #
straight-curve $-1 67.5 0 -4 -1 0 0 I I #
loop $-1 $-1 $207 $12 #
coedge $-1 $208 $208 $209 $210 reversed $114 $-1 #
coedge $-1 $115 $115 $211 $212 forward $71 $-1 #
coedge $-1 $213 $214 $115 $165 reversed $215 $-1 #
edge $-1 $216 0 $217 3.1415926535897931 $115 $218 forward 7 unknown #
coedge $-1 $219 $220 $116 $167 forward $221 $-1 #
edge $-1 $172 0 $171 3.1415926535897931 $116 $222 forward 7 unknown #
coedge $-1 $223 $117 $220 $224 reversed $170 $-1 #
coedge $-1 $117 $223 $219 $225 forward $170 $-1 #
loop $-1 $-1 $168 $226 #
vertex $-1 $167 $227 #
vertex $-1 $167 $228 #
ellipse-curve $-1 64.5 -2.25 0 0 0 1 -0.625 0 0 1 I I #
straight-curve $-1 -67.5 -6 0 0 1 0 I I #
point $-1 -67.5 0 0 #
coedge $-1 $229 $123 $126 $182 reversed $178 $-1 #
coedge $-1 $123 $229 $125 $181 forward $178 $-1 #
loop $-1 $-1 $176 $230 #
ellipse-curve $-1 43.5 -6 -2.5 0 -1 0 0.5 0 0 1 I I #
coedge $-1 $126 $125 $149 $199 reversed $127 $-1 #
edge $-1 $231 0 $129 0.75 $177 $232 forward 7 unknown #
edge $-1 $233 0 $128 0.75 $176 $234 forward 7 unknown #
face $-1 $230 $127 $3 $-1 $235 reversed single #
point $-1 43 -6 -2.5 #
point $-1 44 -6 -2.5 #
coedge $-1 $133 $201 $191 $236 forward $84 $-1 #
edge $-1 $193 0 $147 4.5 $133 $237 forward 7 unknown #
straight-curve $-1 -67.5 -5.25 -0.75 0 0 -1 I I #
plane-surface $-1 -67.5 0 0 -1 0 0 0 0 1 forward_v I I I I #
straight-curve $-1 67.5 0 -4 0 -1 0 I I #
coedge $-1 $140 $139 $186 $236 reversed $108 $-1 #
point $-1 67.5 -0.75 -4 #
vertex $-1 $187 $238 #
straight-curve $-1 67.5 -0.75 -0.75 -1 0 0 I I #
loop $-1 $239 $240 $107 #
coedge $-1 $241 $241 $223 $242 forward $145 $-1 #
point $-1 -67.5 -5.25 -0.75 #
coedge $-1 $149 $149 $229 $243 forward $98 $-1 #
edge $-1 $233 0 $231 3.1415926535897931 $149 $244 forward 7 unknown #
point $-1 67.5 0 -4 #
coedge $-1 $186 $157 $155 $202 forward $84 $-1 #
edge $-1 $159 0 $203 0.75 $201 $245 forward 7 unknown #
vertex $-1 $236 $246 #
straight-curve $-1 67.5 -0.75 -4 -1 0 0 I I #
straight-curve $-1 -67.5 0 0 0 0 -1 I I #
point $-1 -67.5 0 -4 #
coedge $-1 $247 $247 $248 $249 reversed $161 $-1 #
coedge $-1 $162 $162 $250 $251 reversed $114 $-1 #
coedge $-1 $252 $253 $162 $210 forward $254 $-1 #
edge $-1 $255 0 $256 3.1415926535897931 $162 $257 forward 7 unknown #
coedge $-1 $258 $259 $163 $212 reversed $260 $-1 #
edge $-1 $217 0 $216 3.1415926535897931 $163 $261 forward 7 unknown #
coedge $-1 $262 $164 $259 $263 reversed $215 $-1 #
coedge $-1 $164 $262 $258 $264 forward $215 $-1 #
loop $-1 $-1 $213 $265 #
vertex $-1 $212 $266 #
vertex $-1 $212 $267 #
ellipse-curve $-1 -64.5 -2.25 0 0 0 -1 0.625 0 0 1 I I #
coedge $-1 $268 $166 $169 $225 reversed $221 $-1 #
coedge $-1 $166 $268 $168 $224 forward $221 $-1 #
loop $-1 $-1 $219 $269 #
ellipse-curve $-1 64.5 -2.25 0 0 0 1 0.625 0 0 1 I I #
coedge $-1 $169 $168 $196 $242 reversed $170 $-1 #
edge $-1 $270 0 $172 0.75 $220 $271 forward 7 unknown #
edge $-1 $272 0 $171 0.75 $219 $273 forward 7 unknown #
face $-1 $269 $170 $3 $-1 $274 reversed single #
point $-1 63.875 -2.25 0 #
point $-1 65.125 -2.25 0 #
coedge $-1 $177 $176 $198 $243 reversed $178 $-1 #
face $-1 $226 $178 $3 $-1 $275 reversed single #
vertex $-1 $243 $276 #
straight-curve $-1 44 -5.25 -2.5 0 -1 0 I I #
vertex $-1 $243 $277 #
straight-curve $-1 43 -5.25 -2.5 0 -1 0 I I #
cone-surface $-1 43.5 -5.25 -2.5 0 -1 0 0.5 0 0 1 I I 0 1 0.5 forward I I I I #
edge $-1 $203 0 $193 3.25 $186 $278 forward 7 unknown #
straight-curve $-1 -67.5 -0.75 -0.75 0 -1 0 I I #
point $-1 -67.5 -0.75 -0.75 #
loop $-1 $279 $280 $107 #
coedge $-1 $281 $281 $262 $282 reversed $195 $-1 #
coedge $-1 $196 $196 $268 $283 forward $145 $-1 #
edge $-1 $272 0 $270 3.1415926535897931 $196 $284 forward 7 unknown #
edge $-1 $231 0 $233 3.1415926535897931 $198 $285 forward 7 unknown #
ellipse-curve $-1 43.5 -5.25 -2.5 0 -1 0 -0.5 0 0 1 I I #
straight-curve $-1 -67.5 0 -4 0 -1 0 I I #
point $-1 -67.5 -0.75 -4 #
coedge $-1 $207 $207 $286 $287 reversed $161 $-1 #
coedge $-1 $288 $289 $207 $249 forward $290 $-1 #
edge $-1 $291 0 $292 3.1415926535897931 $207 $293 forward 7 unknown #
coedge $-1 $294 $295 $208 $251 forward $296 $-1 #
edge $-1 $256 0 $255 3.1415926535897931 $208 $297 forward 7 unknown #
coedge $-1 $298 $209 $295 $299 reversed $254 $-1 #
coedge $-1 $209 $298 $294 $300 forward $254 $-1 #
loop $-1 $-1 $252 $301 #
vertex $-1 $251 $302 #
vertex $-1 $251 $303 #
ellipse-curve $-1 -31.5 -2.25 0 0 0 1 -0.625 0 0 1 I I #
coedge $-1 $304 $211 $214 $264 reversed $260 $-1 #
coedge $-1 $211 $304 $213 $263 forward $260 $-1 #
loop $-1 $-1 $258 $305 #
ellipse-curve $-1 -64.5 -2.25 0 0 0 -1 -0.625 0 0 1 I I #
coedge $-1 $214 $213 $240 $282 forward $215 $-1 #
edge $-1 $306 0 $216 0.75 $259 $307 forward 7 unknown #
edge $-1 $308 0 $217 0.75 $258 $309 forward 7 unknown #
face $-1 $305 $215 $3 $-1 $310 reversed single #
point $-1 -63.875 -2.25 0 #
point $-1 -65.125 -2.25 0 #
coedge $-1 $220 $219 $241 $283 reversed $221 $-1 #
face $-1 $265 $221 $3 $-1 $311 reversed single #
vertex $-1 $283 $312 #
straight-curve $-1 65.125 -2.25 -0.75 0 0 1 I I #
vertex $-1 $283 $313 #
straight-curve $-1 63.875 -2.25 -0.75 0 0 1 I I #
cone-surface $-1 64.5 -2.25 -0.75 0 0 1 0.625 0 0 1 I I 0 1 0.625 forward I I I I #
cone-surface $-1 43.5 -5.25 -2.5 0 -1 0 0.5 0 0 1 I I 0 1 0.5 forward I I I I #
point $-1 44 -5.25 -2.5 #
point $-1 43 -5.25 -2.5 #
straight-curve $-1 -67.5 -0.75 -4 0 0 1 I I #
loop $-1 $-1 $314 $107 #
coedge $-1 $315 $315 $298 $316 forward $239 $-1 #
coedge $-1 $240 $240 $304 $317 reversed $195 $-1 #
edge $-1 $306 0 $308 3.1415926535897931 $240 $318 forward 7 unknown #
edge $-1 $270 0 $272 3.1415926535897931 $241 $319 forward 7 unknown #
ellipse-curve $-1 64.5 -2.25 -0.75 0 0 1 -0.625 0 0 1 I I #
ellipse-curve $-1 43.5 -5.25 -2.5 0 -1 0 0.5 0 0 1 I I #
coedge $-1 $320 $321 $247 $287 forward $322 $-1 #
edge $-1 $292 0 $291 3.1415926535897931 $247 $323 forward 7 unknown #
coedge $-1 $324 $248 $321 $325 reversed $290 $-1 #
coedge $-1 $248 $324 $320 $326 forward $290 $-1 #
loop $-1 $-1 $288 $327 #
vertex $-1 $287 $328 #
vertex $-1 $287 $329 #
ellipse-curve $-1 31.5 -2.25 0 0 0 1 -0.625 0 0 1 I I #
coedge $-1 $330 $250 $253 $300 reversed $296 $-1 #
coedge $-1 $250 $330 $252 $299 forward $296 $-1 #
loop $-1 $-1 $294 $331 #
ellipse-curve $-1 -31.5 -2.25 0 0 0 1 0.625 0 0 1 I I #
coedge $-1 $253 $252 $280 $316 reversed $254 $-1 #
edge $-1 $332 0 $256 0.75 $295 $333 forward 7 unknown #
edge $-1 $334 0 $255 0.75 $294 $335 forward 7 unknown #
face $-1 $331 $254 $3 $-1 $336 reversed single #
point $-1 -32.125 -2.25 0 #
point $-1 -30.875 -2.25 0 #
coedge $-1 $259 $258 $281 $317 forward $260 $-1 #
face $-1 $301 $260 $3 $-1 $337 reversed single #
vertex $-1 $317 $338 #
straight-curve $-1 -63.875 -2.25 -0.75 0 0 1 I I #
vertex $-1 $317 $339 #
straight-curve $-1 -65.125 -2.25 -0.75 0 0 1 I I #
cone-surface $-1 -64.5 -2.25 -0.75 0 0 -1 -0.625 0 0 1 I I 0 1 0.625 forward I I I I #
cone-surface $-1 64.5 -2.25 -0.75 0 0 1 0.625 0 0 1 I I 0 1 0.625 forward I I I I #
point $-1 65.125 -2.25 -0.75 #
point $-1 63.875 -2.25 -0.75 #
coedge $-1 $340 $340 $324 $341 forward $279 $-1 #
coedge $-1 $280 $280 $330 $342 forward $239 $-1 #
edge $-1 $334 0 $332 3.1415926535897931 $280 $343 forward 7 unknown #
edge $-1 $308 0 $306 3.1415926535897931 $281 $344 forward 7 unknown #
ellipse-curve $-1 -64.5 -2.25 -0.75 0 0 -1 0.625 0 0 1 I I #
ellipse-curve $-1 64.5 -2.25 -0.75 0 0 1 0.625 0 0 1 I I #
coedge $-1 $345 $286 $289 $326 reversed $322 $-1 #
coedge $-1 $286 $345 $288 $325 forward $322 $-1 #
loop $-1 $-1 $320 $346 #
ellipse-curve $-1 31.5 -2.25 0 0 0 1 0.625 0 0 1 I I #
coedge $-1 $289 $288 $314 $341 reversed $290 $-1 #
edge $-1 $347 0 $292 0.75 $321 $348 forward 7 unknown #
edge $-1 $349 0 $291 0.75 $320 $350 forward 7 unknown #
face $-1 $346 $290 $3 $-1 $351 reversed single #
point $-1 30.875 -2.25 0 #
point $-1 32.125 -2.25 0 #
coedge $-1 $295 $294 $315 $342 reversed $296 $-1 #
face $-1 $327 $296 $3 $-1 $352 reversed single #
vertex $-1 $342 $353 #
straight-curve $-1 -30.875 -2.25 -0.75 0 0 1 I I #
vertex $-1 $342 $354 #
straight-curve $-1 -32.125 -2.25 -0.75 0 0 1 I I #
cone-surface $-1 -31.5 -2.25 -0.75 0 0 1 0.625 0 0 1 I I 0 1 0.625 forward I I I I #
cone-surface $-1 -64.5 -2.25 -0.75 0 0 -1 -0.625 0 0 1 I I 0 1 0.625 forward I I I I #
point $-1 -63.875 -2.25 -0.75 #
point $-1 -65.125 -2.25 -0.75 #
coedge $-1 $314 $314 $345 $355 forward $279 $-1 #
edge $-1 $349 0 $347 3.1415926535897931 $314 $356 forward 7 unknown #
edge $-1 $332 0 $334 3.1415926535897931 $315 $357 forward 7 unknown #
ellipse-curve $-1 -31.5 -2.25 -0.75 0 0 1 -0.625 0 0 1 I I #
ellipse-curve $-1 -64.5 -2.25 -0.75 0 0 -1 -0.625 0 0 1 I I #
coedge $-1 $321 $320 $340 $355 reversed $322 $-1 #
face $-1 $-1 $322 $3 $-1 $358 reversed single #
vertex $-1 $355 $359 #
straight-curve $-1 32.125 -2.25 -0.75 0 0 1 I I #
vertex $-1 $355 $360 #
straight-curve $-1 30.875 -2.25 -0.75 0 0 1 I I #
cone-surface $-1 31.5 -2.25 -0.75 0 0 1 0.625 0 0 1 I I 0 1 0.625 forward I I I I #
cone-surface $-1 -31.5 -2.25 -0.75 0 0 1 0.625 0 0 1 I I 0 1 0.625 forward I I I I #
point $-1 -30.875 -2.25 -0.75 #
point $-1 -32.125 -2.25 -0.75 #
edge $-1 $347 0 $349 3.1415926535897931 $340 $361 forward 7 unknown #
ellipse-curve $-1 31.5 -2.25 -0.75 0 0 1 -0.625 0 0 1 I I #
ellipse-curve $-1 -31.5 -2.25 -0.75 0 0 1 0.625 0 0 1 I I #
cone-surface $-1 31.5 -2.25 -0.75 0 0 1 0.625 0 0 1 I I 0 1 0.625 forward I I I I #
point $-1 32.125 -2.25 -0.75 #
point $-1 30.875 -2.25 -0.75 #
ellipse-curve $-1 31.5 -2.25 -0.75 0 0 1 0.625 0 0 1 I I #
End-of-ACIS-data 