600 0 1 0           
95 GICL Pro/E ACIS Translator - Source: f:/data5/repository/PTC/V18/lrgasm18/circ_brkr.prt.2 - 6 0 13 ACIS 6.0.3 NT 24 Thu Apr 04 13:34:34 2002 
1 9.9999999999999995e-007 1e-010 
body $-1 $1 $-1 $2 #
lump $-1 $-1 $3 $0 #
transform $-1 1 0 0 0 1 0 0 0 1 0 0 0 25.399999999999999 no_rotate no_reflect no_shear #
shell $-1 $-1 $-1 $4 $-1 $1 #
face $-1 $5 $6 $3 $-1 $7 reversed single #
face $-1 $8 $9 $3 $-1 $10 forward single #
loop $-1 $11 $12 $4 #
plane-surface $-1 0 0 0 0 0 -1 -1 0 0 forward_v I I I I #
face $-1 $13 $14 $3 $-1 $15 reversed single #
loop $-1 $-1 $16 $5 #
plane-surface $-1 -0.5 0.60355339059327395 0 0 0.70710678118654757 -0.70710678118654757 0 0.70710678118654757 0.70710678118654757 forward_v I I I I #
loop $-1 $-1 $17 $4 #
coedge $-1 $18 $19 $20 $21 forward $6 $-1 #
face $-1 $22 $23 $3 $-1 $24 forward single #
loop $-1 $-1 $25 $8 #
plane-surface $-1 -0.5 0 0 1 0 0 0 1 0 forward_v I I I I #
coedge $-1 $26 $20 $27 $28 forward $9 $-1 #
coedge $-1 $29 $30 $31 $32 reversed $11 $-1 #
coedge $-1 $33 $12 $34 $35 reversed $6 $-1 #
coedge $-1 $12 $33 $36 $37 forward $6 $-1 #
coedge $-1 $16 $38 $12 $21 reversed $9 $-1 #
edge $-1 $39 0 $40 1 $12 $41 forward 7 unknown #
face $-1 $42 $43 $3 $-1 $44 forward single #
loop $-1 $-1 $45 $13 #
plane-surface $-1 -0.5 1.2682337649086288 1.0182337649086288 0 -0.70710678118654757 0.70710678118654757 0 -0.70710678118654746 -0.70710678118654746 forward_v I I I I #
coedge $-1 $46 $36 $47 $48 reversed $14 $-1 #
coedge $-1 $38 $16 $49 $50 forward $9 $-1 #
coedge $-1 $36 $51 $16 $28 reversed $14 $-1 #
edge $-1 $39 0 $52 1.1899999999999999 $27 $53 forward 7 unknown #
coedge $-1 $54 $17 $55 $56 reversed $11 $-1 #
coedge $-1 $17 $54 $57 $58 reversed $11 $-1 #
coedge $-1 $59 $60 $17 $32 forward $61 $-1 #
edge $-1 $62 0 $63 1.3499999999999999 $17 $64 forward 7 unknown #
coedge $-1 $19 $18 $65 $66 reversed $6 $-1 #
coedge $-1 $67 $68 $18 $35 forward $43 $-1 #
edge $-1 $69 0 $40 0.35355339059327395 $18 $70 forward 7 unknown #
coedge $-1 $25 $27 $19 $37 reversed $14 $-1 #
edge $-1 $71 0 $39 0.35355339059327395 $19 $72 forward 7 unknown #
coedge $-1 $20 $26 $67 $73 reversed $9 $-1 #
vertex $-1 $37 $74 #
vertex $-1 $35 $75 #
straight-curve $-1 -0.5 0.60355339059327395 0 1 0 0 I I #
face $-1 $76 $77 $3 $-1 $78 forward single #
loop $-1 $-1 $67 $22 #
plane-surface $-1 0.5 0 0 1 0 0 0 1 0 forward_v I I I I #
coedge $-1 $79 $65 $68 $80 reversed $23 $-1 #
coedge $-1 $81 $25 $82 $83 reversed $14 $-1 #
coedge $-1 $65 $79 $25 $48 forward $23 $-1 #
edge $-1 $84 0 $71 1.4400000000000008 $25 $85 forward 7 unknown #
coedge $-1 $86 $87 $26 $50 reversed $77 $-1 #
edge $-1 $52 0 $88 1 $26 $89 forward 7 unknown #
coedge $-1 $27 $90 $86 $91 reversed $14 $-1 #
vertex $-1 $28 $92 #
straight-curve $-1 -0.5 0.60355339059327395 0 0 0.70710678118654757 0.70710678118654757 I I #
coedge $-1 $30 $29 $93 $94 reversed $11 $-1 #
coedge $-1 $95 $96 $29 $56 forward $97 $-1 #
edge $-1 $98 0 $62 5 $29 $99 forward 7 unknown #
coedge $-1 $100 $101 $30 $58 forward $102 $-1 #
edge $-1 $63 0 $103 5 $30 $104 forward 7 unknown #
coedge $-1 $105 $31 $101 $106 forward $61 $-1 #
coedge $-1 $31 $105 $95 $107 reversed $61 $-1 #
loop $-1 $-1 $59 $108 #
vertex $-1 $56 $109 #
vertex $-1 $58 $110 #
straight-curve $-1 -0.67499999999999993 2.5 0 1 0 0 I I #
coedge $-1 $45 $47 $33 $66 forward $23 $-1 #
edge $-1 $71 0 $69 1 $33 $111 forward 7 unknown #
coedge $-1 $112 $34 $38 $73 forward $43 $-1 #
coedge $-1 $34 $113 $45 $80 forward $43 $-1 #
vertex $-1 $66 $114 #
straight-curve $-1 0.5 0.25 0 0 1 0 I I #
vertex $-1 $37 $115 #
straight-curve $-1 -0.5 0.25 0 0 1 0 I I #
edge $-1 $40 0 $88 1.1899999999999999 $67 $116 forward 7 unknown #
point $-1 -0.5 0.60355339059327395 0 #
point $-1 0.5 0.60355339059327395 0 #
face $-1 $117 $118 $3 $-1 $119 forward single #
loop $-1 $-1 $120 $42 #
plane-surface $-1 -0.5 1.4450104602052654 0.8414570696119914 0 -0.70710678118654724 -0.70710678118654779 0 0.70710678118654779 -0.70710678118654724 forward_v I I I I #
coedge $-1 $47 $45 $121 $122 reversed $23 $-1 #
edge $-1 $123 0 $69 1.4400000000000008 $68 $124 forward 7 unknown #
coedge $-1 $125 $46 $126 $127 forward $14 $-1 #
coedge $-1 $121 $128 $46 $83 forward $129 $-1 #
edge $-1 $130 0 $84 0.10000000000000028 $46 $131 forward 7 unknown #
vertex $-1 $83 $132 #
straight-curve $-1 -0.5 1.2682337649086288 1.0182337649086288 0 -0.70710678118654746 -0.70710678118654746 I I #
coedge $-1 $120 $49 $51 $91 forward $77 $-1 #
coedge $-1 $49 $120 $112 $133 reversed $77 $-1 #
vertex $-1 $133 $134 #
straight-curve $-1 -0.5 1.4450104602052654 0.8414570696119914 1 0 0 I I #
coedge $-1 $51 $135 $136 $137 forward $14 $-1 #
edge $-1 $52 0 $138 0.099999999999999742 $51 $139 forward 7 unknown #
point $-1 -0.5 1.4450104602052654 0.8414570696119914 #
coedge $-1 $140 $141 $54 $94 forward $142 $-1 #
edge $-1 $103 0 $98 1.3499999999999999 $54 $143 forward 7 unknown #
coedge $-1 $144 $55 $60 $107 forward $97 $-1 #
coedge $-1 $55 $144 $140 $145 reversed $97 $-1 #
loop $-1 $-1 $95 $146 #
vertex $-1 $94 $147 #
straight-curve $-1 -0.67499999999999993 -2.5 0 0 1 0 I I #
coedge $-1 $148 $57 $141 $149 forward $102 $-1 #
coedge $-1 $57 $148 $59 $106 reversed $102 $-1 #
loop $-1 $-1 $100 $150 #
vertex $-1 $58 $151 #
straight-curve $-1 0.67499999999999993 2.5 0 0 -1 0 I I #
coedge $-1 $60 $59 $152 $153 reversed $61 $-1 #
edge $-1 $63 0 $154 0.049999999999999996 $101 $155 forward 7 unknown #
edge $-1 $62 0 $156 0.049999999999999996 $95 $157 forward 7 unknown #
face $-1 $150 $61 $3 $-1 $158 forward single #
point $-1 -0.67499999999999993 2.5 0 #
point $-1 0.67499999999999993 2.5 0 #
straight-curve $-1 -0.5 0.25 0 1 0 0 I I #
coedge $-1 $159 $67 $87 $133 forward $43 $-1 #
coedge $-1 $68 $160 $161 $162 forward $43 $-1 #
point $-1 0.5 0.25 0 #
point $-1 -0.5 0.25 0 #
straight-curve $-1 0.5 0.60355339059327395 0 0 0.70710678118654757 0.70710678118654757 I I #
face $-1 $163 $164 $3 $-1 $165 forward single #
loop $-1 $-1 $166 $76 #
cone-surface $-1 -0.5 1.5864318164425746 0.84145706961199174 -1 0 0 0 0.070710678118654682 -0.070710678118654793 1 I I 0 1 0.099999999999999978 forward I I I I #
coedge $-1 $87 $86 $167 $168 forward $77 $-1 #
coedge $-1 $161 $82 $79 $122 forward $129 $-1 #
edge $-1 $84 0 $123 1 $121 $169 forward 7 unknown #
vertex $-1 $80 $170 #
straight-curve $-1 0.5 1.2682337649086288 1.0182337649086288 0 -0.70710678118654746 -0.70710678118654746 I I #
coedge $-1 $171 $81 $172 $173 reversed $14 $-1 #
coedge $-1 $174 $175 $81 $127 reversed $176 $-1 #
edge $-1 $130 -1.5612511283791055e-015 $177 1.5707963267948841 $81 $178 forward 7 unknown #
coedge $-1 $82 $161 $174 $179 reversed $129 $-1 #
loop $-1 $-1 $121 $180 #
vertex $-1 $127 $181 #
straight-curve $-1 -0.5 1.1975230867899738 1.0889444430272837 0 0.70710678118654868 -0.70710678118654646 I I #
point $-1 -0.5 1.2682337649086288 1.0182337649086288 #
edge $-1 $88 0 $182 0.099999999999999742 $112 $183 forward 7 unknown #
point $-1 0.5 1.4450104602052654 0.8414570696119914 #
coedge $-1 $90 $184 $185 $186 reversed $14 $-1 #
coedge $-1 $187 $167 $90 $137 reversed $118 $-1 #
edge $-1 $188 -7.8062556418955954e-016 $138 1.5707963267948903 $90 $189 forward 7 unknown #
vertex $-1 $91 $190 #
straight-curve $-1 -0.5 1.4450104602052654 0.8414570696119914 0 0.70710678118654802 -0.70710678118654691 I I #
coedge $-1 $191 $93 $96 $145 forward $142 $-1 #
coedge $-1 $93 $191 $100 $149 reversed $142 $-1 #
loop $-1 $-1 $140 $192 #
straight-curve $-1 0.67499999999999993 -2.5 0 -1 0 0 I I #
coedge $-1 $96 $95 $193 $194 reversed $97 $-1 #
edge $-1 $98 0 $195 0.049999999999999996 $140 $196 forward 7 unknown #
face $-1 $197 $97 $3 $-1 $198 forward single #
point $-1 -0.67499999999999993 -2.5 0 #
coedge $-1 $101 $100 $199 $200 reversed $102 $-1 #
edge $-1 $103 0 $201 0.049999999999999996 $100 $202 forward 7 unknown #
face $-1 $192 $102 $3 $-1 $203 forward single #
point $-1 0.67499999999999993 -2.5 0 #
coedge $-1 $199 $193 $105 $153 forward $204 $-1 #
edge $-1 $156 0 $154 1.3499999999999999 $152 $205 forward 7 unknown #
vertex $-1 $200 $206 #
straight-curve $-1 0.67499999999999993 2.5 0 0 0 1 I I #
vertex $-1 $153 $207 #
straight-curve $-1 -0.67499999999999993 2.5 0 0 0 1 I I #
plane-surface $-1 -0.67499999999999993 2.5 0 0 -1 0 1 0 0 forward_v I I I I #
coedge $-1 $208 $112 $166 $209 reversed $43 $-1 #
coedge $-1 $113 $210 $211 $212 reversed $43 $-1 #
coedge $-1 $128 $121 $113 $162 reversed $129 $-1 #
edge $-1 $213 -1.5700924586837776e-016 $123 0.10000000000000028 $113 $214 forward 7 unknown #
face $-1 $215 $216 $3 $-1 $217 forward single #
loop $-1 $-1 $218 $117 #
plane-surface $-1 -0.5 1.5864318164425746 0.70003571337468229 0 0.70710678118654757 -0.70710678118654757 0 0.70710678118654746 0.70710678118654746 forward_v I I I I #
coedge $-1 $167 $187 $159 $209 forward $118 $-1 #
coedge $-1 $136 $166 $120 $168 reversed $118 $-1 #
edge $-1 $138 0 $182 1 $120 $219 forward 7 unknown #
straight-curve $-1 -0.5 1.2682337649086288 1.0182337649086288 1 0 0 I I #
point $-1 0.5 1.2682337649086288 1.0182337649086288 #
coedge $-1 $220 $125 $221 $222 forward $14 $-1 #
coedge $-1 $223 $224 $125 $173 forward $225 $-1 #
edge $-1 $226 0 $177 0.099999999999999645 $125 $227 forward 7 unknown #
coedge $-1 $211 $126 $128 $179 forward $176 $-1 #
coedge $-1 $126 $211 $223 $228 reversed $176 $-1 #
loop $-1 $-1 $211 $229 #
vertex $-1 $173 $230 #
ellipse-curve $-1 -0.5 1.2682337649086293 1.1596551211459385 -1 0 0 0 -0.070710678118655723 -0.070710678118654835 1 I I #
edge $-1 $130 0 $213 0.99999999999999978 $128 $231 forward 7 unknown #
face $-1 $108 $129 $3 $-1 $232 forward single #
point $-1 -0.5 1.1975230867899738 1.0889444430272837 #
vertex $-1 $209 $233 #
straight-curve $-1 0.5 1.4450104602052654 0.8414570696119914 0 0.70710678118654802 -0.70710678118654691 I I #
coedge $-1 $135 $220 $234 $235 forward $14 $-1 #
coedge $-1 $218 $236 $135 $186 forward $164 $-1 #
edge $-1 $188 0 $237 0.10000000000000013 $135 $238 forward 7 unknown #
coedge $-1 $166 $136 $236 $239 forward $118 $-1 #
vertex $-1 $137 $240 #
ellipse-curve $-1 -0.5 1.5864318164425744 0.84145706961199196 -1 0 0 0 0.070710678118654835 -0.070710678118655057 1 I I #
point $-1 -0.5 1.51572113832392 0.7707463914933369 #
coedge $-1 $141 $140 $241 $242 reversed $142 $-1 #
face $-1 $146 $142 $3 $-1 $243 forward single #
coedge $-1 $152 $241 $144 $194 forward $204 $-1 #
edge $-1 $195 0 $156 5 $193 $244 forward 7 unknown #
vertex $-1 $194 $245 #
straight-curve $-1 -0.67499999999999993 -2.5 0 0 0 1 I I #
face $-1 $246 $247 $3 $-1 $248 forward single #
plane-surface $-1 -0.67499999999999993 -2.5 0 1 0 0 0 1 0 forward_v I I I I #
coedge $-1 $241 $152 $148 $200 forward $204 $-1 #
edge $-1 $154 0 $201 5 $199 $249 forward 7 unknown #
vertex $-1 $200 $250 #
straight-curve $-1 0.67499999999999993 -2.5 0 0 0 1 I I #
plane-surface $-1 0.67499999999999993 2.5 0 -1 0 0 0 -1 0 forward_v I I I I #
loop $-1 $-1 $241 $197 #
straight-curve $-1 -0.67499999999999993 2.5 0.049999999999999996 1 0 0 I I #
point $-1 0.67499999999999993 2.5 0.049999999999999996 #
point $-1 -0.67499999999999993 2.5 0.049999999999999996 #
coedge $-1 $251 $159 $252 $253 forward $43 $-1 #
edge $-1 $254 0 $182 1.5707963267948903 $159 $255 forward 7 unknown #
coedge $-1 $160 $256 $257 $258 forward $43 $-1 #
coedge $-1 $175 $174 $160 $212 forward $176 $-1 #
edge $-1 $213 0 $259 1.5707963267948841 $160 $260 forward 7 unknown #
vertex $-1 $162 $261 #
straight-curve $-1 0.5 1.1975230867899738 1.0889444430272837 0 0.70710678118654868 -0.70710678118654646 I I #
face $-1 $262 $263 $3 $-1 $264 forward single #
loop $-1 $-1 $265 $163 #
cone-surface $-1 -0.5 1.6571424945612294 0.91216774773064657 -1 0 0 0 0.070710678118654793 0.070710678118654682 1 I I 0 1 0.099999999999999978 forward I I I I #
coedge $-1 $252 $185 $266 $267 forward $164 $-1 #
straight-curve $-1 -0.5 1.51572113832392 0.77074639149333679 1 0 0 I I #
coedge $-1 $184 $171 $268 $269 reversed $14 $-1 #
coedge $-1 $270 $271 $171 $222 reversed $272 $-1 #
edge $-1 $226 0 $273 1.5707963267948997 $171 $274 forward 7 unknown #
coedge $-1 $257 $172 $175 $228 forward $225 $-1 #
coedge $-1 $172 $257 $270 $275 reversed $225 $-1 #
loop $-1 $-1 $223 $276 #
vertex $-1 $222 $277 #
straight-curve $-1 -0.5 1.2682337649086282 1.3010764773832477 0 -0.70710678118654646 -0.70710678118654868 I I #
edge $-1 $177 0 $259 1 $223 $278 forward 7 unknown #
face $-1 $180 $176 $3 $-1 $279 forward single #
point $-1 -0.5 1.1975230867899738 1.2303657992645931 #
straight-curve $-1 -0.5 1.1975230867899738 1.0889444430272839 1 0 0 I I #
plane-surface $-1 -0.5 1.1268124086713189 1.1596551211459385 0 -0.70710678118654702 -0.70710678118654813 0 0.70710678118654813 -0.70710678118654702 forward_v I I I I #
point $-1 0.5 1.51572113832392 0.7707463914933369 #
coedge $-1 $280 $266 $184 $235 reversed $216 $-1 #
edge $-1 $281 0 $237 1.5707963267948903 $184 $282 forward 7 unknown #
coedge $-1 $185 $252 $187 $239 reversed $164 $-1 #
vertex $-1 $186 $283 #
straight-curve $-1 -0.5 1.6571424945612292 0.77074639149333701 0 0.70710678118654757 0.70710678118654757 I I #
edge $-1 $188 0 $254 0.99999999999999978 $236 $284 forward 7 unknown #
point $-1 -0.5 1.6571424945612292 0.77074639149333701 #
coedge $-1 $193 $199 $191 $242 forward $204 $-1 #
edge $-1 $201 0 $195 1.3499999999999999 $241 $285 forward 7 unknown #
plane-surface $-1 0.67499999999999993 -2.5 0 0 1 0 -1 0 0 forward_v I I I I #
straight-curve $-1 -0.67499999999999993 -2.5 0.049999999999999996 0 1 0 I I #
point $-1 -0.67499999999999993 -2.5 0.049999999999999996 #
face $-1 $286 $287 $3 $-1 $288 forward single #
loop $-1 $204 $289 $197 #
plane-surface $-1 0 0 0.049999999999999996 0 0 1 1 0 0 forward_v I I I I #
straight-curve $-1 0.67499999999999993 2.5 0.049999999999999996 0 -1 0 I I #
point $-1 0.67499999999999993 -2.5 0.049999999999999996 #
coedge $-1 $290 $208 $265 $291 reversed $43 $-1 #
coedge $-1 $236 $218 $208 $253 reversed $164 $-1 #
edge $-1 $254 -7.8504622934188758e-017 $292 0.10000000000000005 $208 $293 forward 7 unknown #
vertex $-1 $253 $294 #
ellipse-curve $-1 0.5 1.5864318164425744 0.84145706961199196 -1 -1.5700924586837684e-015 1.5700924586837733e-015 -2.2204460492503131e-016 0.070710678118654835 -0.070710678118655057 1 I I #
coedge $-1 $210 $290 $295 $296 reversed $43 $-1 #
coedge $-1 $224 $223 $210 $258 reversed $225 $-1 #
edge $-1 $297 0 $259 0.099999999999999645 $210 $298 forward 7 unknown #
vertex $-1 $212 $299 #
ellipse-curve $-1 0.5 1.2682337649086293 1.1596551211459385 -1 1.5700924586837733e-015 1.5700924586837536e-015 -2.2204460492503131e-016 -0.070710678118655723 -0.070710678118654835 1 I I #
point $-1 0.49999999999999978 1.1975230867899735 1.0889444430272837 #
face $-1 $276 $272 $3 $-1 $300 forward single #
loop $-1 $-1 $301 $215 #
plane-surface $-1 -0.5 1.7985638507985389 0.91216774773064657 0 0.70710678118654768 0.70710678118654746 0 -0.70710678118654746 0.70710678118654768 forward_v I I I I #
coedge $-1 $266 $280 $251 $291 forward $216 $-1 #
coedge $-1 $234 $265 $218 $267 reversed $216 $-1 #
edge $-1 $237 0 $292 0.99999999999999978 $218 $302 forward 7 unknown #
coedge $-1 $301 $303 $220 $269 forward $263 $-1 #
edge $-1 $281 0 $273 0.4500000000000004 $220 $304 forward 7 unknown #
coedge $-1 $295 $221 $224 $275 forward $272 $-1 #
coedge $-1 $221 $295 $301 $305 reversed $272 $-1 #
loop $-1 $-1 $295 $262 #
vertex $-1 $269 $306 #
ellipse-curve $-1 -0.5 1.338944443027283 1.2303657992645933 -1 0 0 0 -0.070710678118654835 0.070710678118654391 1 I I #
edge $-1 $226 0 $297 0.99999999999999978 $224 $307 forward 7 unknown #
face $-1 $229 $225 $3 $-1 $308 forward single #
point $-1 -0.5 1.2682337649086282 1.3010764773832477 #
straight-curve $-1 -0.5 1.1975230867899738 1.2303657992645931 1 0 0 I I #
cone-surface $-1 -0.5 1.2682337649086284 1.1596551211459385 -1 0 0 0 -0.070710678118654738 -0.070710678118654738 1 I I 0 1 0.099999999999999978 forward I I I I #
coedge $-1 $265 $234 $303 $309 forward $216 $-1 #
vertex $-1 $235 $310 #
ellipse-curve $-1 -0.5 1.657142494561229 0.91216774773064668 -1 0 0 0 0.070710678118655279 0.070710678118654613 1 I I #
point $-1 -0.5 1.727853172679884 0.84145706961199185 #
straight-curve $-1 -0.5 1.6571424945612292 0.7707463914933369 1 0 0 I I #
straight-curve $-1 0.67499999999999993 -2.5 0.049999999999999996 -1 0 0 I I #
face $-1 $311 $312 $3 $-1 $313 forward single #
loop $-1 $-1 $314 $246 #
plane-surface $-1 -0.875 -4 0 -1 0 0 0 1 0 forward_v I I I I #
coedge $-1 $315 $316 $317 $318 forward $247 $-1 #
coedge $-1 $256 $251 $319 $320 forward $43 $-1 #
edge $-1 $321 0 $292 1.570796326794891 $251 $322 forward 7 unknown #
vertex $-1 $291 $323 #
straight-curve $-1 0.5 1.6571424945612292 0.77074639149333701 0 0.70710678118654757 0.70710678118654757 I I #
point $-1 0.49999999999999978 1.6571424945612292 0.7707463914933369 #
coedge $-1 $271 $270 $256 $296 forward $272 $-1 #
edge $-1 $297 0 $324 1.5707963267948997 $256 $325 forward 7 unknown #
vertex $-1 $258 $326 #
straight-curve $-1 0.5 1.2682337649086282 1.3010764773832477 0 -0.70710678118654646 -0.70710678118654868 I I #
point $-1 0.5 1.1975230867899738 1.2303657992645931 #
cone-surface $-1 -0.5 1.338944443027283 1.2303657992645931 -1 0 0 0 -0.070710678118654849 0.070710678118654627 1 I I 0 1 0.099999999999999978 forward I I I I #
coedge $-1 $319 $268 $271 $305 forward $263 $-1 #
straight-curve $-1 -0.5 1.727853172679884 0.84145706961199174 1 0 0 I I #
coedge $-1 $268 $319 $280 $309 reversed $263 $-1 #
straight-curve $-1 -0.5 1.7278531726798843 0.9828784258493013 0 -0.70710678118654757 0.70710678118654757 I I #
edge $-1 $273 0 $324 0.99999999999999978 $301 $327 forward 7 unknown #
point $-1 -0.5 1.4096551211459376 1.3010764773832479 #
straight-curve $-1 -0.5 1.2682337649086282 1.3010764773832477 1 0 0 I I #
plane-surface $-1 -0.5 1.338944443027283 1.3717871555019026 0 -0.70710678118654757 0.70710678118654757 0 -0.70710678118654757 -0.70710678118654757 forward_v I I I I #
edge $-1 $281 0 $321 0.99999999999999978 $303 $328 forward 7 unknown #
point $-1 -0.5 1.7278531726798843 0.9828784258493013 #
face $-1 $329 $330 $3 $-1 $331 forward single #
loop $-1 $-1 $332 $286 #
plane-surface $-1 0 0 -2 0 0 -1 -1 0 0 forward_v I I I I #
coedge $-1 $333 $334 $335 $336 reversed $287 $-1 #
coedge $-1 $337 $289 $338 $339 forward $247 $-1 #
coedge $-1 $289 $337 $340 $341 forward $247 $-1 #
coedge $-1 $334 $333 $289 $318 reversed $287 $-1 #
edge $-1 $342 0 $343 8 $317 $344 forward 7 unknown #
coedge $-1 $303 $301 $290 $320 reversed $263 $-1 #
edge $-1 $321 0 $324 0.4500000000000004 $290 $345 forward 7 unknown #
vertex $-1 $320 $346 #
ellipse-curve $-1 0.5 1.657142494561229 0.91216774773064668 -1 -1.5700924586837783e-015 -1.5700924586837635e-015 -2.2204460492503131e-016 0.070710678118655279 0.070710678118654613 1 I I #
point $-1 0.49999999999999978 1.727853172679884 0.84145706961199174 #
vertex $-1 $296 $347 #
ellipse-curve $-1 0.5 1.338944443027283 1.2303657992645933 -1 1.5700924586837832e-015 -1.5700924586837733e-015 -2.2204460492503131e-016 -0.070710678118654835 0.070710678118654391 1 I I #
point $-1 0.49999999999999978 1.2682337649086282 1.3010764773832477 #
straight-curve $-1 -0.5 1.4096551211459376 1.3010764773832479 1 0 0 I I #
straight-curve $-1 -0.5 1.7278531726798843 0.9828784258493013 1 0 0 I I #
face $-1 $348 $349 $3 $-1 $350 forward single #
loop $-1 $-1 $351 $311 #
plane-surface $-1 0.875 -4 0 0 -1 0 -1 0 0 forward_v I I I I #
coedge $-1 $335 $352 $351 $353 forward $312 $-1 #
coedge $-1 $317 $314 $354 $355 forward $287 $-1 #
coedge $-1 $314 $317 $356 $357 reversed $287 $-1 #
coedge $-1 $358 $332 $314 $336 forward $312 $-1 #
edge $-1 $359 0 $360 8 $335 $361 forward 7 unknown #
coedge $-1 $316 $315 $362 $363 forward $247 $-1 #
coedge $-1 $354 $364 $315 $339 reversed $330 $-1 #
edge $-1 $343 0 $365 1.75 $338 $366 forward 7 unknown #
coedge $-1 $367 $356 $316 $341 reversed $368 $-1 #
edge $-1 $369 0 $342 1.75 $340 $370 forward 7 unknown #
vertex $-1 $357 $371 #
vertex $-1 $355 $372 #
straight-curve $-1 -0.875 4 0.049999999999999996 0 -1 0 I I #
straight-curve $-1 0.5 1.7278531726798843 0.9828784258493013 0 -0.70710678118654757 0.70710678118654757 I I #
point $-1 0.49999999999999978 1.7278531726798843 0.9828784258493013 #
point $-1 0.49999999999999978 1.4096551211459376 1.3010764773832479 #
face $-1 $-1 $368 $3 $-1 $373 forward single #
loop $-1 $-1 $374 $329 #
plane-surface $-1 0.875 4 0 1 0 0 0 -1 0 forward_v I I I I #
coedge $-1 $364 $354 $332 $353 reversed $330 $-1 #
coedge $-1 $332 $358 $374 $375 forward $312 $-1 #
edge $-1 $376 0 $359 1.75 $332 $377 forward 7 unknown #
coedge $-1 $351 $338 $333 $355 reversed $330 $-1 #
edge $-1 $359 0 $343 2.0499999999999998 $354 $378 forward 7 unknown #
coedge $-1 $340 $379 $334 $357 forward $368 $-1 #
edge $-1 $360 0 $342 2.0499999999999998 $334 $380 forward 7 unknown #
coedge $-1 $352 $335 $379 $381 forward $312 $-1 #
vertex $-1 $336 $382 #
vertex $-1 $381 $383 #
straight-curve $-1 -0.875 -4 -2 0 1 0 I I #
coedge $-1 $384 $385 $337 $363 reversed $349 $-1 #
edge $-1 $365 0 $369 8 $362 $386 forward 7 unknown #
coedge $-1 $338 $351 $384 $387 forward $330 $-1 #
vertex $-1 $387 $388 #
straight-curve $-1 -0.875 -4 0.049999999999999996 1 0 0 I I #
coedge $-1 $379 $340 $385 $389 forward $368 $-1 #
loop $-1 $-1 $379 $348 #
vertex $-1 $363 $390 #
straight-curve $-1 0.875 4 0.049999999999999996 -1 0 0 I I #
point $-1 -0.875 4 0.049999999999999996 #
point $-1 -0.875 -4 0.049999999999999996 #
plane-surface $-1 -0.875 4 0 0 1 0 1 0 0 forward_v I I I I #
coedge $-1 $385 $384 $352 $375 reversed $349 $-1 #
edge $-1 $391 0 $376 8 $352 $392 forward 7 unknown #
vertex $-1 $375 $393 #
straight-curve $-1 0.875 -4 -2 -1 0 0 I I #
straight-curve $-1 -0.875 -4 -2 0 0 1 I I #
coedge $-1 $356 $367 $358 $381 reversed $368 $-1 #
straight-curve $-1 -0.875 4 -2 0 0 1 I I #
edge $-1 $360 0 $391 1.75 $358 $394 forward 7 unknown #
point $-1 -0.875 -4 -2 #
point $-1 -0.875 4 -2 #
coedge $-1 $374 $362 $364 $387 reversed $349 $-1 #
coedge $-1 $362 $374 $367 $389 reversed $349 $-1 #
straight-curve $-1 0.875 -4 0.049999999999999996 0 1 0 I I #
edge $-1 $376 0 $365 2.0499999999999998 $384 $395 forward 7 unknown #
point $-1 0.875 -4 0.049999999999999996 #
edge $-1 $369 0 $391 2.0499999999999998 $385 $396 forward 7 unknown #
point $-1 0.875 4 0.049999999999999996 #
vertex $-1 $375 $397 #
straight-curve $-1 0.875 4 -2 0 -1 0 I I #
point $-1 0.875 -4 -2 #
straight-curve $-1 -0.875 4 -2 1 0 0 I I #
straight-curve $-1 0.875 -4 -2 0 0 1 I I #
straight-curve $-1 0.875 4 0.049999999999999996 0 0 -1 I I #
point $-1 0.875 4 -2 #
End-of-ACIS-data 