600 0 1 0           
99 GICL Pro/E ACIS Translator - Source: f:/data5/repository/PTC/V18/lrgasm18/circ_brkr_box.prt.2 - 6 0 13 ACIS 6.0.3 NT 24 Thu Apr 04 13:35:15 2002 
1 9.9999999999999995e-007 1e-010 
body $-1 $1 $-1 $2 #
lump $-1 $-1 $3 $0 #
transform $-1 1 0 0 0 1 0 0 0 1 0 0 0 25.399999999999999 no_rotate no_reflect no_shear #
shell $-1 $-1 $-1 $4 $-1 $1 #
face $-1 $5 $6 $3 $-1 $7 reversed single #
face $-1 $8 $9 $3 $-1 $10 reversed single #
loop $-1 $11 $12 $4 #
plane-surface $-1 0 0 0 0 0 1 1 0 0 forward_v I I I I #
face $-1 $13 $14 $3 $-1 $15 reversed single #
loop $-1 $-1 $16 $5 #
cone-surface $-1 -7.5 6 0.099999999999999992 0 0 -1 -0.125 0 0 1 I I 0 1 0.125 forward I I I I #
loop $-1 $17 $18 $4 #
coedge $-1 $19 $19 $20 $21 reversed $6 $-1 #
face $-1 $22 $23 $3 $-1 $24 forward single #
loop $-1 $-1 $25 $8 #
cone-surface $-1 -7.5 6 0.099999999999999992 0 0 -1 -0.125 0 0 1 I I 0 1 0.125 forward I I I I #
coedge $-1 $26 $20 $27 $28 reversed $9 $-1 #
loop $-1 $29 $30 $4 #
coedge $-1 $31 $31 $32 $33 reversed $11 $-1 #
coedge $-1 $12 $12 $34 $35 reversed $6 $-1 #
coedge $-1 $16 $36 $12 $21 forward $9 $-1 #
edge $-1 $37 0 $38 3.1415926535897931 $12 $39 forward 7 unknown #
face $-1 $40 $41 $3 $-1 $42 forward single #
loop $-1 $43 $44 $13 #
plane-surface $-1 0 0 0.099999999999999992 0 0 1 1 0 0 forward_v I I I I #
coedge $-1 $45 $34 $36 $46 reversed $14 $-1 #
coedge $-1 $36 $16 $47 $48 reversed $9 $-1 #
coedge $-1 $34 $45 $16 $28 forward $14 $-1 #
edge $-1 $49 0 $38 0.099999999999999992 $27 $50 forward 7 unknown #
loop $-1 $51 $52 $4 #
coedge $-1 $53 $53 $54 $55 forward $17 $-1 #
coedge $-1 $18 $18 $56 $57 reversed $11 $-1 #
coedge $-1 $58 $59 $18 $33 forward $60 $-1 #
edge $-1 $61 0 $62 3.1415926535897931 $18 $63 forward 7 unknown #
coedge $-1 $25 $27 $19 $35 forward $14 $-1 #
edge $-1 $38 0 $37 3.1415926535897931 $19 $64 forward 7 unknown #
coedge $-1 $20 $26 $25 $46 forward $9 $-1 #
vertex $-1 $35 $65 #
vertex $-1 $35 $66 #
ellipse-curve $-1 -7.5 6 0 0 0 -1 0.125 0 0 1 I I #
face $-1 $67 $68 $3 $-1 $69 forward single #
loop $-1 $-1 $70 $22 #
plane-surface $-1 -6.7151572114412552 5.5 0 0.90630778703664983 0.42261826174069972 0 -0.42261826174069972 0.90630778703664983 0 forward_v I I I I #
loop $-1 $-1 $47 $13 #
coedge $-1 $71 $72 $73 $74 forward $23 $-1 #
coedge $-1 $27 $25 $75 $76 reversed $14 $-1 #
edge $-1 $77 0 $37 0.099999999999999992 $25 $78 forward 7 unknown #
coedge $-1 $75 $75 $26 $48 forward $43 $-1 #
edge $-1 $77 0 $49 3.1415926535897931 $47 $79 forward 7 unknown #
vertex $-1 $76 $80 #
straight-curve $-1 -7.625 6 0.099999999999999992 0 0 -1 I I #
loop $-1 $-1 $81 $4 #
coedge $-1 $82 $83 $84 $85 forward $29 $-1 #
coedge $-1 $30 $30 $86 $87 forward $17 $-1 #
coedge $-1 $88 $89 $30 $55 reversed $90 $-1 #
edge $-1 $91 0 $92 3.1415926535897931 $30 $93 forward 7 unknown #
coedge $-1 $94 $95 $31 $57 forward $96 $-1 #
edge $-1 $62 0 $61 3.1415926535897931 $31 $97 forward 7 unknown #
coedge $-1 $98 $32 $95 $99 reversed $60 $-1 #
coedge $-1 $32 $98 $94 $100 forward $60 $-1 #
loop $-1 $-1 $58 $101 #
vertex $-1 $57 $102 #
vertex $-1 $57 $103 #
ellipse-curve $-1 7.5 6 0 0 0 -1 0.125 0 0 1 I I #
ellipse-curve $-1 -7.5 6 0 0 0 -1 -0.125 0 0 1 I I #
point $-1 -7.375 6 0 #
point $-1 -7.625 6 0 #
face $-1 $104 $105 $3 $-1 $106 forward single #
loop $-1 $-1 $107 $40 #
cone-surface $-1 -7.5 6 0 0 0 1 0.5 0 0 1 I I 0 1 0.5 forward I I I I #
coedge $-1 $108 $109 $110 $111 forward $41 $-1 #
coedge $-1 $112 $44 $113 $114 forward $23 $-1 #
coedge $-1 $44 $112 $115 $116 forward $23 $-1 #
coedge $-1 $109 $108 $44 $74 reversed $41 $-1 #
edge $-1 $117 0 $118 0.78484278855874434 $44 $119 forward 7 unknown #
coedge $-1 $47 $47 $45 $76 forward $43 $-1 #
edge $-1 $49 0 $77 3.1415926535897931 $75 $120 forward 7 unknown #
vertex $-1 $76 $121 #
straight-curve $-1 -7.375 6 0.099999999999999992 0 0 -1 I I #
ellipse-curve $-1 -7.5 6 0.099999999999999992 0 0 -1 0.125 0 0 1 I I #
point $-1 -7.625 6 0.099999999999999992 #
coedge $-1 $122 $122 $123 $124 forward $51 $-1 #
coedge $-1 $125 $52 $126 $127 forward $29 $-1 #
coedge $-1 $52 $128 $129 $130 reversed $29 $-1 #
coedge $-1 $131 $132 $52 $85 reversed $133 $-1 #
edge $-1 $134 0 $135 0.7848427885587459 $52 $136 forward 7 unknown #
coedge $-1 $137 $138 $53 $87 reversed $139 $-1 #
edge $-1 $92 0 $91 3.1415926535897931 $53 $140 forward 7 unknown #
coedge $-1 $141 $54 $138 $142 reversed $90 $-1 #
coedge $-1 $54 $141 $137 $143 forward $90 $-1 #
loop $-1 $-1 $88 $144 #
vertex $-1 $87 $145 #
vertex $-1 $87 $146 #
ellipse-curve $-1 -7.5 -6 0 0 0 1 0.125 0 0 1 I I #
coedge $-1 $147 $56 $59 $100 reversed $96 $-1 #
coedge $-1 $56 $147 $58 $99 forward $96 $-1 #
loop $-1 $-1 $94 $148 #
ellipse-curve $-1 7.5 6 0 0 0 -1 -0.125 0 0 1 I I #
coedge $-1 $59 $58 $149 $150 reversed $60 $-1 #
edge $-1 $151 0 $62 0.099999999999999992 $95 $152 forward 7 unknown #
edge $-1 $153 0 $61 0.099999999999999992 $94 $154 forward 7 unknown #
face $-1 $148 $60 $3 $-1 $155 reversed single #
point $-1 7.625 6 0 #
point $-1 7.375 6 0 #
face $-1 $156 $157 $3 $-1 $158 forward single #
loop $-1 $-1 $159 $67 #
plane-surface $-1 -7.9531538935183246 6.2113091308703501 0 -0.90630778703665016 0.42261826174069933 0 -0.42261826174069933 -0.90630778703665016 0 forward_v I I I I #
coedge $-1 $113 $160 $161 $162 forward $68 $-1 #
coedge $-1 $73 $70 $163 $164 forward $41 $-1 #
coedge $-1 $70 $73 $165 $166 reversed $41 $-1 #
coedge $-1 $167 $168 $70 $111 reversed $29 $-1 #
edge $-1 $169 0 $170 0.78484278855874989 $110 $171 forward 7 unknown #
coedge $-1 $72 $71 $159 $172 forward $23 $-1 #
coedge $-1 $163 $107 $71 $114 reversed $68 $-1 #
edge $-1 $118 -1.1046719095020344e-014 $173 2.2689280275926209 $71 $174 forward 7 unknown #
coedge $-1 $175 $165 $72 $116 reversed $157 $-1 #
edge $-1 $176 0 $117 1.5696855771174896 $115 $177 forward 7 unknown #
vertex $-1 $116 $178 #
vertex $-1 $114 $179 #
straight-curve $-1 -6.7151572114412552 5.5 0.099999999999999992 -0.42261826174069944 0.90630778703665005 0 I I #
ellipse-curve $-1 -7.5 6 0.099999999999999992 0 0 -1 -0.125 0 0 1 I I #
point $-1 -7.375 6 0.099999999999999992 #
coedge $-1 $81 $81 $180 $181 forward $51 $-1 #
coedge $-1 $182 $183 $81 $124 reversed $184 $-1 #
edge $-1 $185 0 $186 3.1415926535897931 $81 $187 forward 7 unknown #
coedge $-1 $188 $82 $189 $190 forward $29 $-1 #
coedge $-1 $191 $192 $82 $127 reversed $193 $-1 #
edge $-1 $135 0 $194 2.2689280275926271 $82 $195 forward 7 unknown #
coedge $-1 $83 $196 $197 $198 forward $29 $-1 #
coedge $-1 $199 $200 $83 $130 forward $201 $-1 #
edge $-1 $134 0 $202 13.53031442288251 $83 $203 forward 7 unknown #
coedge $-1 $204 $84 $200 $205 forward $133 $-1 #
coedge $-1 $84 $204 $191 $206 reversed $133 $-1 #
loop $-1 $-1 $204 $207 #
vertex $-1 $130 $208 #
vertex $-1 $127 $209 #
straight-curve $-1 -6.7651572114412541 -5.5 0 -0.42261826174070022 -0.9063077870366496 0 I I #
coedge $-1 $210 $86 $89 $143 reversed $139 $-1 #
coedge $-1 $86 $210 $88 $142 forward $139 $-1 #
loop $-1 $-1 $137 $211 #
ellipse-curve $-1 -7.5 -6 0 0 0 1 -0.125 0 0 1 I I #
coedge $-1 $89 $88 $212 $213 forward $90 $-1 #
edge $-1 $214 0 $91 0.099999999999999992 $138 $215 forward 7 unknown #
edge $-1 $216 0 $92 0.099999999999999992 $137 $217 forward 7 unknown #
face $-1 $211 $90 $3 $-1 $218 reversed single #
point $-1 -7.375 -6 0 #
point $-1 -7.625 -6 0 #
coedge $-1 $95 $94 $219 $220 reversed $96 $-1 #
face $-1 $221 $96 $3 $-1 $222 reversed single #
coedge $-1 $219 $219 $98 $150 forward $223 $-1 #
edge $-1 $153 0 $151 3.1415926535897931 $149 $224 forward 7 unknown #
vertex $-1 $220 $225 #
straight-curve $-1 7.375 6 0.099999999999999992 0 0 -1 I I #
vertex $-1 $220 $226 #
straight-curve $-1 7.625 6 0.099999999999999992 0 0 -1 I I #
cone-surface $-1 7.5 6 0.099999999999999992 0 0 -1 -0.125 0 0 1 I I 0 1 0.125 forward I I I I #
face $-1 $227 $228 $3 $-1 $229 forward single #
loop $-1 $-1 $230 $104 #
plane-surface $-1 8.75 5.5 0 0 1 0 -1 0 0 forward_v I I I I #
coedge $-1 $161 $231 $112 $172 reversed $105 $-1 #
coedge $-1 $107 $163 $168 $232 forward $68 $-1 #
coedge $-1 $233 $159 $107 $162 reversed $105 $-1 #
edge $-1 $234 0 $173 0.099999999999999992 $107 $235 forward 7 unknown #
coedge $-1 $160 $113 $108 $164 reversed $68 $-1 #
edge $-1 $170 0 $118 0.099999999999999992 $108 $236 forward 7 unknown #
coedge $-1 $115 $237 $109 $166 forward $157 $-1 #
edge $-1 $169 0 $117 0.099999999999999992 $165 $238 forward 7 unknown #
coedge $-1 $239 $110 $237 $240 reversed $29 $-1 #
coedge $-1 $110 $241 $160 $232 reversed $29 $-1 #
vertex $-1 $240 $242 #
vertex $-1 $111 $243 #
straight-curve $-1 -6.7151572114412552 5.5 0 -0.42261826174069944 0.90630778703665005 0 I I #
edge $-1 $173 0 $176 0.78484278855874556 $112 $244 forward 7 unknown #
vertex $-1 $172 $245 #
ellipse-curve $-1 -7.5 6.0000000000000009 0.099999999999999992 0 0 1 0.45315389351832192 0.21130913087035275 0 1 I I #
coedge $-1 $246 $115 $231 $247 reversed $157 $-1 #
vertex $-1 $247 $248 #
straight-curve $-1 -8.2848427885587448 5.5 0.099999999999999992 1 0 0 I I #
point $-1 -6.7151572114412552 5.5 0.099999999999999992 #
point $-1 -7.0468461064816745 6.2113091308703492 0.099999999999999992 #
coedge $-1 $249 $250 $122 $181 reversed $251 $-1 #
edge $-1 $186 0 $185 3.1415926535897931 $122 $252 forward 7 unknown #
coedge $-1 $253 $123 $250 $254 reversed $184 $-1 #
coedge $-1 $123 $253 $249 $255 forward $184 $-1 #
loop $-1 $-1 $182 $256 #
vertex $-1 $181 $257 #
vertex $-1 $181 $258 #
ellipse-curve $-1 7.5 -6 0 0 0 1 0.125 0 0 1 I I #
coedge $-1 $259 $125 $260 $261 reversed $29 $-1 #
coedge $-1 $262 $263 $125 $190 reversed $264 $-1 #
edge $-1 $194 0 $265 0.78484278855874556 $125 $266 forward 7 unknown #
coedge $-1 $267 $126 $132 $206 forward $193 $-1 #
coedge $-1 $126 $267 $262 $268 reversed $193 $-1 #
loop $-1 $-1 $191 $269 #
vertex $-1 $190 $270 #
ellipse-curve $-1 -7.5499999999999998 -6 0 0 0 -1 0.45315389351832458 -0.21130913087035008 0 1 I I #
coedge $-1 $128 $271 $272 $273 forward $29 $-1 #
coedge $-1 $274 $275 $128 $198 reversed $276 $-1 #
edge $-1 $277 0 $202 0.7848427885587439 $128 $278 forward 7 unknown #
coedge $-1 $279 $129 $275 $280 forward $201 $-1 #
coedge $-1 $129 $281 $131 $205 reversed $201 $-1 #
loop $-1 $-1 $260 $282 #
vertex $-1 $130 $283 #
straight-curve $-1 -6.7651572114412541 -5.5 0 1 0 0 I I #
coedge $-1 $132 $131 $284 $285 forward $133 $-1 #
edge $-1 $134 0 $286 0.099999999999999992 $200 $287 forward 7 unknown #
edge $-1 $135 0 $288 0.099999999999999992 $132 $289 forward 7 unknown #
face $-1 $290 $133 $3 $-1 $291 reversed single #
point $-1 -6.7651572114412541 -5.5 0 #
point $-1 -7.0968461064816752 -6.2113091308703501 0 #
coedge $-1 $138 $137 $292 $293 forward $139 $-1 #
face $-1 $294 $139 $3 $-1 $295 reversed single #
coedge $-1 $292 $292 $141 $213 reversed $296 $-1 #
edge $-1 $214 0 $216 3.1415926535897931 $212 $297 forward 7 unknown #
vertex $-1 $293 $298 #
straight-curve $-1 -7.375 -6 0.099999999999999992 0 0 -1 I I #
vertex $-1 $293 $299 #
straight-curve $-1 -7.625 -6 0.099999999999999992 0 0 -1 I I #
cone-surface $-1 -7.5 -6 0.099999999999999992 0 0 1 -0.125 0 0 1 I I 0 1 0.125 forward I I I I #
coedge $-1 $149 $149 $147 $220 forward $223 $-1 #
edge $-1 $151 0 $153 3.1415926535897931 $219 $300 forward 7 unknown #
face $-1 $301 $302 $3 $-1 $303 forward single #
cone-surface $-1 7.5 6 0.099999999999999992 0 0 -1 -0.125 0 0 1 I I 0 1 0.125 forward I I I I #
loop $-1 $-1 $149 $304 #
ellipse-curve $-1 7.5 6 0.099999999999999992 0 0 -1 0.125 0 0 1 I I #
point $-1 7.375 6 0.099999999999999992 #
point $-1 7.625 6 0.099999999999999992 #
face $-1 $305 $306 $3 $-1 $307 forward single #
loop $-1 $-1 $308 $156 #
plane-surface $-1 8.2848427885587448 5.5 0 0.90630778703665027 0.42261826174069878 0 -0.42261826174069878 0.90630778703665027 0 forward_v I I I I #
coedge $-1 $309 $310 $311 $312 forward $157 $-1 #
coedge $-1 $159 $233 $175 $247 forward $105 $-1 #
edge $-1 $170 0 $234 2.2689280275926178 $168 $313 forward 7 unknown #
coedge $-1 $231 $161 $241 $314 forward $105 $-1 #
vertex $-1 $232 $315 #
straight-curve $-1 -7.9531538935183246 6.2113091308703501 0 0 0 1 I I #
straight-curve $-1 -7.0468461064816754 6.2113091308703492 0 0 0 1 I I #
coedge $-1 $165 $316 $167 $240 forward $157 $-1 #
straight-curve $-1 -6.7151572114412552 5.5 0 0 0 1 I I #
coedge $-1 $317 $167 $318 $319 reversed $29 $-1 #
edge $-1 $320 0 $169 13.43031442288251 $167 $321 forward 7 unknown #
coedge $-1 $168 $322 $233 $314 reversed $29 $-1 #
point $-1 -6.7151572114412552 5.5 0 #
point $-1 -7.0468461064816781 6.2113091308703536 0 #
straight-curve $-1 -7.9531538935183246 6.2113091308703501 0.099999999999999992 -0.42261826174069933 -0.90630778703665016 0 I I #
point $-1 -7.9531538935183246 6.2113091308703501 0.099999999999999992 #
coedge $-1 $323 $175 $322 $324 forward $157 $-1 #
edge $-1 $325 0 $176 0.099999999999999992 $175 $326 forward 7 unknown #
point $-1 -8.2848427885587448 5.5 0.099999999999999992 #
coedge $-1 $327 $180 $183 $255 reversed $251 $-1 #
coedge $-1 $180 $327 $182 $254 forward $251 $-1 #
loop $-1 $-1 $249 $328 #
ellipse-curve $-1 7.5 -6 0 0 0 1 -0.125 0 0 1 I I #
coedge $-1 $183 $182 $329 $330 forward $184 $-1 #
edge $-1 $331 0 $185 0.099999999999999992 $250 $332 forward 7 unknown #
edge $-1 $333 0 $186 0.099999999999999992 $249 $334 forward 7 unknown #
face $-1 $328 $184 $3 $-1 $335 reversed single #
point $-1 7.625 -6 0 #
point $-1 7.375 -6 0 #
coedge $-1 $322 $188 $336 $337 reversed $29 $-1 #
coedge $-1 $338 $339 $188 $261 forward $201 $-1 #
edge $-1 $340 0 $265 0.4151572114412545 $188 $341 forward 7 unknown #
coedge $-1 $342 $189 $192 $268 forward $264 $-1 #
coedge $-1 $189 $342 $338 $343 reversed $264 $-1 #
loop $-1 $-1 $189 $344 #
vertex $-1 $261 $345 #
straight-curve $-1 -8.0031538935183253 -6.2113091308703501 0 -0.42261826174069933 0.90630778703665016 0 I I #
coedge $-1 $192 $191 $346 $347 forward $193 $-1 #
edge $-1 $194 0 $348 0.099999999999999992 $192 $349 forward 7 unknown #
face $-1 $207 $193 $3 $-1 $350 forward single #
point $-1 -8.0031538935183253 -6.2113091308703501 0 #
coedge $-1 $196 $351 $352 $353 forward $29 $-1 #
coedge $-1 $354 $355 $196 $273 reversed $356 $-1 #
edge $-1 $357 0 $277 2.2689280275926311 $196 $358 forward 7 unknown #
coedge $-1 $359 $197 $355 $360 forward $276 $-1 #
coedge $-1 $197 $359 $199 $280 reversed $276 $-1 #
loop $-1 $-1 $197 $294 #
vertex $-1 $198 $361 #
straight-curve $-1 7.0968461064816744 -6.2113091308703492 0 -0.42261826174069789 0.90630778703665071 0 I I #
coedge $-1 $362 $199 $363 $364 forward $201 $-1 #
edge $-1 $202 0 $365 0.099999999999999992 $199 $366 forward 7 unknown #
coedge $-1 $200 $338 $367 $368 forward $201 $-1 #
face $-1 $344 $201 $3 $-1 $369 forward single #
point $-1 6.7651572114412559 -5.5 0 #
coedge $-1 $367 $346 $204 $285 reversed $370 $-1 #
edge $-1 $286 0 $288 0.7848427885587459 $284 $371 forward 7 unknown #
vertex $-1 $205 $372 #
straight-curve $-1 -6.7651572114412541 -5.5 0 0 0 1 I I #
vertex $-1 $285 $373 #
straight-curve $-1 -7.0968461064816752 -6.2113091308703501 0 0 0 1 I I #
face $-1 $144 $370 $3 $-1 $374 reversed single #
plane-surface $-1 -6.7651572114412541 -5.5 0 -0.9063077870366496 0.42261826174070022 0 -0.42261826174070022 -0.9063077870366496 0 forward_v I I I I #
coedge $-1 $212 $212 $210 $293 reversed $296 $-1 #
edge $-1 $216 0 $214 3.1415926535897931 $292 $375 forward 7 unknown #
face $-1 $376 $276 $3 $-1 $377 reversed single #
cone-surface $-1 -7.5 -6 0.099999999999999992 0 0 1 -0.125 0 0 1 I I 0 1 0.125 forward I I I I #
loop $-1 $-1 $212 $290 #
ellipse-curve $-1 -7.5 -6 0.099999999999999992 0 0 1 0.125 0 0 1 I I #
point $-1 -7.375 -6 0.099999999999999992 #
point $-1 -7.625 -6 0.099999999999999992 #
ellipse-curve $-1 7.5 6 0.099999999999999992 0 0 -1 -0.125 0 0 1 I I #
face $-1 $378 $379 $3 $-1 $380 reversed single #
loop $-1 $381 $382 $221 #
plane-surface $-1 -8.75 5.5 0 -1 0 0 0 -1 0 forward_v I I I I #
face $-1 $101 $383 $3 $-1 $384 forward single #
face $-1 $304 $385 $3 $-1 $386 forward single #
loop $-1 $-1 $387 $227 #
cone-surface $-1 7.5 6 0 0 0 1 0.5 0 0 1 I I 0 1 0.5 forward I I I I #
coedge $-1 $388 $389 $390 $391 forward $228 $-1 #
coedge $-1 $392 $230 $389 $393 forward $157 $-1 #
coedge $-1 $230 $394 $395 $396 reversed $157 $-1 #
coedge $-1 $397 $390 $230 $312 reversed $29 $-1 #
edge $-1 $398 0 $399 0.46515721144125521 $311 $400 forward 7 unknown #
ellipse-curve $-1 -7.5 6 0 0 0 1 0.45315389351832192 0.21130913087035363 0 1 I I #
edge $-1 $234 0 $325 0.78484278855874556 $241 $401 forward 7 unknown #
point $-1 -7.9531538935183246 6.2113091308703501 0 #
coedge $-1 $237 $392 $402 $403 reversed $157 $-1 #
coedge $-1 $390 $239 $404 $405 reversed $29 $-1 #
coedge $-1 $402 $406 $239 $319 forward $385 $-1 #
edge $-1 $407 -3.7536041984926833e-016 $320 0.78484278855874945 $239 $408 forward 7 unknown #
vertex $-1 $319 $409 #
straight-curve $-1 6.7151572114412552 5.5 0 -1 0 0 I I #
coedge $-1 $241 $259 $246 $324 reversed $29 $-1 #
coedge $-1 $394 $246 $410 $411 reversed $157 $-1 #
edge $-1 $325 0 $412 0.46515721144125521 $322 $413 forward 7 unknown #
vertex $-1 $314 $414 #
straight-curve $-1 -8.2848427885587448 5.5 0 0 0 1 I I #
coedge $-1 $250 $249 $415 $416 forward $251 $-1 #
face $-1 $417 $251 $3 $-1 $418 reversed single #
coedge $-1 $415 $415 $253 $330 reversed $419 $-1 #
edge $-1 $331 0 $333 3.1415926535897931 $329 $420 forward 7 unknown #
vertex $-1 $416 $421 #
straight-curve $-1 7.625 -6 0.099999999999999992 0 0 -1 I I #
vertex $-1 $416 $422 #
straight-curve $-1 7.375 -6 0.099999999999999992 0 0 -1 I I #
cone-surface $-1 7.5 -6 0.099999999999999992 0 0 1 -0.125 0 0 1 I I 0 1 0.125 forward I I I I #
coedge $-1 $423 $410 $259 $337 forward $381 $-1 #
edge $-1 $412 0 $340 11 $259 $424 forward 7 unknown #
coedge $-1 $281 $260 $263 $343 forward $201 $-1 #
coedge $-1 $260 $425 $423 $426 reversed $201 $-1 #
vertex $-1 $337 $427 #
straight-curve $-1 -8.75 -5.5 0 1 0 0 I I #
coedge $-1 $263 $262 $428 $429 forward $264 $-1 #
edge $-1 $265 0 $430 0.099999999999999992 $338 $431 forward 7 unknown #
face $-1 $269 $264 $3 $-1 $432 reversed single #
point $-1 -8.3348427885587455 -5.5 0 #
coedge $-1 $284 $428 $267 $347 reversed $370 $-1 #
edge $-1 $288 0 $348 2.2689280275926307 $346 $433 forward 7 unknown #
vertex $-1 $347 $434 #
straight-curve $-1 -8.0031538935183253 -6.2113091308703501 0 0 0 1 I I #
cone-surface $-1 -7.5499999999999998 -6 0 0 0 -1 0.5 0 0 1 I I 0 1 0.5 forward I I I I #
coedge $-1 $271 $397 $435 $436 reversed $29 $-1 #
coedge $-1 $437 $438 $271 $353 reversed $439 $-1 #
edge $-1 $440 -7.5072083969853389e-016 $357 0.7848427885587439 $271 $441 forward 7 unknown #
coedge $-1 $442 $272 $438 $443 forward $356 $-1 #
coedge $-1 $272 $442 $274 $360 reversed $356 $-1 #
loop $-1 $-1 $354 $376 #
vertex $-1 $273 $444 #
ellipse-curve $-1 7.5499999999999998 -6 0 0 0 -1 0.45315389351832547 -0.21130913087034919 0 1 I I #
coedge $-1 $275 $274 $445 $446 forward $276 $-1 #
edge $-1 $277 0 $447 0.099999999999999992 $355 $448 forward 7 unknown #
point $-1 7.0968461064816744 -6.2113091308703492 0 #
coedge $-1 $435 $279 $437 $449 reversed $201 $-1 #
coedge $-1 $445 $450 $279 $364 reversed $451 $-1 #
edge $-1 $365 0 $452 1.5696855771174896 $279 $453 forward 7 unknown #
vertex $-1 $364 $454 #
straight-curve $-1 6.7651572114412559 -5.5 0 0 0 1 I I #
coedge $-1 $428 $284 $281 $368 reversed $370 $-1 #
edge $-1 $430 0 $286 1.5696855771174913 $281 $455 forward 7 unknown #
plane-surface $-1 -8.75 -5.5 0 0 -1 0 1 0 0 forward_v I I I I #
loop $-1 $296 $428 $290 #
straight-curve $-1 -6.7651572114412541 -5.5 0.099999999999999992 -0.42261826174070022 -0.9063077870366496 0 I I #
point $-1 -6.7651572114412541 -5.5 0.099999999999999992 #
point $-1 -7.0968461064816752 -6.2113091308703501 0.099999999999999992 #
plane-surface $-1 0 0 0.099999999999999992 0 0 -1 1 0 0 forward_v I I I I #
ellipse-curve $-1 -7.5 -6 0.099999999999999992 0 0 1 -0.125 0 0 1 I I #
face $-1 $456 $356 $3 $-1 $457 forward single #
plane-surface $-1 7.0968461064816744 -6.2113091308703492 0 0.90630778703665071 0.42261826174069789 0 -0.42261826174069789 0.90630778703665071 0 forward_v I I I I #
face $-1 $458 $459 $3 $-1 $460 reversed single #
loop $-1 $-1 $461 $301 #
cone-surface $-1 -8.6499999999999986 2 1 -1 0 0 0 -0.5 0 1 I I 0 1 0.5 forward I I I I #
loop $-1 $-1 $336 $221 #
coedge $-1 $462 $462 $463 $464 reversed $302 $-1 #
loop $-1 $223 $465 $304 #
plane-surface $-1 0 0 0.099999999999999992 0 0 1 1 0 0 forward_v I I I I #
loop $-1 $-1 $466 $305 #
plane-surface $-1 7.0468461064816754 6.2113091308703492 0 -0.90630778703664983 0.42261826174069972 0 -0.42261826174069972 -0.90630778703664983 0 forward_v I I I I #
coedge $-1 $467 $404 $406 $468 forward $306 $-1 #
coedge $-1 $469 $308 $470 $471 forward $228 $-1 #
coedge $-1 $308 $469 $309 $393 reversed $228 $-1 #
coedge $-1 $311 $317 $308 $391 reversed $29 $-1 #
edge $-1 $399 0 $472 0.78484278855874434 $390 $473 forward 7 unknown #
coedge $-1 $316 $309 $474 $475 reversed $157 $-1 #
edge $-1 $399 0 $476 0.099999999999999992 $309 $477 forward 7 unknown #
coedge $-1 $310 $323 $478 $479 reversed $157 $-1 #
coedge $-1 $480 $481 $310 $396 forward $482 $-1 #
edge $-1 $398 0 $483 4.0999999999999996 $395 $484 forward 7 unknown #
coedge $-1 $351 $311 $481 $485 reversed $29 $-1 #
vertex $-1 $485 $486 #
vertex $-1 $312 $487 #
straight-curve $-1 8.75 5.5 0 -1 0 0 I I #
straight-curve $-1 -7.9531538935183246 6.2113091308703501 0 -0.42261826174069933 -0.90630778703665016 0 I I #
coedge $-1 $466 $318 $316 $403 forward $385 $-1 #
edge $-1 $320 0 $488 0.099999999999999992 $316 $489 forward 7 unknown #
coedge $-1 $387 $470 $317 $405 forward $306 $-1 #
edge $-1 $472 0 $407 2.26892802759262 $317 $490 forward 7 unknown #
coedge $-1 $318 $466 $387 $468 reversed $385 $-1 #
vertex $-1 $405 $491 #
straight-curve $-1 7.0468461064816772 6.2113091308703536 0 -0.42261826174069944 -0.90630778703665005 0 I I #
point $-1 6.7151572114412552 5.5 0 #
coedge $-1 $336 $492 $323 $411 forward $381 $-1 #
edge $-1 $493 0 $412 4.0999999999999996 $410 $494 forward 7 unknown #
vertex $-1 $324 $495 #
straight-curve $-1 -8.2848427885587448 5.5 0 -1 0 0 I I #
point $-1 -8.2848427885587448 5.5 0 #
coedge $-1 $329 $329 $327 $416 reversed $419 $-1 #
edge $-1 $333 0 $331 3.1415926535897931 $415 $496 forward 7 unknown #
face $-1 $497 $482 $3 $-1 $498 forward single #
cone-surface $-1 7.5 -6 0.099999999999999992 0 0 1 -0.125 0 0 1 I I 0 1 0.125 forward I I I I #
loop $-1 $-1 $329 $499 #
ellipse-curve $-1 7.5 -6 0.099999999999999992 0 0 1 0.125 0 0 1 I I #
point $-1 7.625 -6 0.099999999999999992 #
point $-1 7.375 -6 0.099999999999999992 #
coedge $-1 $492 $336 $339 $426 forward $381 $-1 #
straight-curve $-1 -8.75 5.5 0 0 -1 0 I I #
coedge $-1 $339 $500 $501 $502 reversed $201 $-1 #
edge $-1 $340 0 $503 4.0999999999999996 $423 $504 forward 7 unknown #
point $-1 -8.75 -5.5 0 #
coedge $-1 $346 $367 $342 $429 reversed $370 $-1 #
edge $-1 $348 0 $430 0.78484278855874556 $428 $505 forward 7 unknown #
vertex $-1 $368 $506 #
straight-curve $-1 -8.3348427885587455 -5.5 0 0 0 1 I I #
plane-surface $-1 -8.0031538935183253 -6.2113091308703501 0 0.90630778703665016 0.42261826174069933 0 -0.42261826174069933 0.90630778703665016 0 forward_v I I I I #
ellipse-curve $-1 -7.5499999999999998 -6.0000000000000009 0.099999999999999992 0 0 -1 0.45315389351832458 -0.21130913087034919 0 1 I I #
point $-1 -8.0031538935183253 -6.2113091308703501 0.099999999999999992 #
coedge $-1 $500 $362 $351 $436 forward $201 $-1 #
edge $-1 $440 0 $507 0.4151572114412545 $351 $508 forward 7 unknown #
coedge $-1 $509 $352 $362 $449 forward $439 $-1 #
coedge $-1 $352 $509 $354 $443 reversed $439 $-1 #
loop $-1 $-1 $509 $456 #
vertex $-1 $353 $510 #
straight-curve $-1 8.3348427885587437 -5.5 0 -0.42261826174069789 -0.90630778703665071 0 I I #
coedge $-1 $355 $354 $511 $512 forward $356 $-1 #
edge $-1 $357 0 $513 0.099999999999999992 $438 $514 forward 7 unknown #
point $-1 8.0031538935183253 -6.2113091308703492 0 #
coedge $-1 $511 $363 $359 $446 reversed $451 $-1 #
edge $-1 $447 0 $365 0.7848427885587439 $445 $515 forward 7 unknown #
vertex $-1 $512 $516 #
straight-curve $-1 7.0968461064816744 -6.2113091308703492 0 0 0 1 I I #
edge $-1 $440 0 $452 0.099999999999999992 $362 $517 forward 7 unknown #
coedge $-1 $363 $511 $509 $518 reversed $451 $-1 #
loop $-1 $419 $445 $499 #
vertex $-1 $449 $519 #
straight-curve $-1 6.7651572114412559 -5.5 0.099999999999999992 1 0 0 I I #
point $-1 6.7651572114412559 -5.5 0.099999999999999992 #
straight-curve $-1 -8.3348427885587455 -5.5 0.099999999999999992 1 0 0 I I #
face $-1 $499 $439 $3 $-1 $520 reversed single #
cone-surface $-1 7.5499999999999998 -6 0 0 0 -1 0.5 0 0 1 I I 0 1 0.5 forward I I I I #
face $-1 $521 $522 $3 $-1 $523 reversed single #
loop $-1 $-1 $524 $378 #
cone-surface $-1 -8.6499999999999986 2 1 -1 0 0 0 -0.5 0 1 I I 0 1 0.5 forward I I I I #
coedge $-1 $525 $463 $526 $527 reversed $379 $-1 #
coedge $-1 $382 $382 $528 $529 reversed $302 $-1 #
coedge $-1 $461 $530 $382 $464 forward $379 $-1 #
edge $-1 $531 0 $532 3.1415926535897931 $382 $533 forward 7 unknown #
coedge $-1 $534 $474 $469 $535 forward $383 $-1 #
coedge $-1 $406 $402 $536 $537 reversed $385 $-1 #
coedge $-1 $470 $387 $534 $538 reversed $306 $-1 #
edge $-1 $407 3.1554436208840472e-029 $539 0.099999999999999992 $387 $540 forward 7 unknown #
coedge $-1 $389 $388 $465 $535 reversed $228 $-1 #
coedge $-1 $404 $467 $388 $471 reversed $306 $-1 #
edge $-1 $472 0 $541 0.099999999999999992 $388 $542 forward 7 unknown #
vertex $-1 $391 $543 #
straight-curve $-1 8.2848427885587448 5.5 0 -0.42261826174069878 0.90630778703665027 0 I I #
coedge $-1 $465 $536 $392 $475 forward $383 $-1 #
edge $-1 $488 0 $476 1.5696855771174896 $392 $544 forward 7 unknown #
vertex $-1 $475 $545 #
straight-curve $-1 8.2848427885587448 5.5 0 0 0 1 I I #
coedge $-1 $546 $547 $394 $479 forward $548 $-1 #
edge $-1 $483 0 $493 17.5 $394 $549 forward 7 unknown #
coedge $-1 $550 $395 $547 $551 reversed $482 $-1 #
coedge $-1 $395 $550 $397 $485 forward $482 $-1 #
loop $-1 $-1 $481 $417 #
vertex $-1 $551 $552 #
straight-curve $-1 8.75 5.5 0 0 0 1 I I #
edge $-1 $507 0 $398 11 $397 $553 forward 7 unknown #
point $-1 8.75 5.5 0 #
point $-1 8.2848427885587448 5.5 0 #
vertex $-1 $403 $554 #
straight-curve $-1 6.7151572114412552 5.5 0 0 0 1 I I #
ellipse-curve $-1 7.5 6 0 0 0 1 0.45315389351832547 0.21130913087034919 0 1 I I #
point $-1 7.0468461064816781 6.2113091308703536 0 #
coedge $-1 $410 $423 $546 $555 reversed $381 $-1 #
vertex $-1 $411 $556 #
straight-curve $-1 -8.75 5.5 4.0999999999999996 0 0 -1 I I #
point $-1 -8.75 5.5 0 #
ellipse-curve $-1 7.5 -6 0.099999999999999992 0 0 1 -0.125 0 0 1 I I #
face $-1 $557 $558 $3 $-1 $559 reversed single #
plane-surface $-1 8.75 -5.5 0 1 0 0 0 1 0 forward_v I I I I #
face $-1 $256 $451 $3 $-1 $560 reversed single #
coedge $-1 $425 $435 $550 $561 forward $201 $-1 #
coedge $-1 $547 $546 $425 $502 forward $548 $-1 #
edge $-1 $503 0 $562 17.5 $425 $563 forward 7 unknown #
vertex $-1 $555 $564 #
straight-curve $-1 -8.75 -5.5 0 0 0 1 I I #
straight-curve $-1 -8.0031538935183253 -6.2113091308703501 0.099999999999999992 -0.42261826174069933 0.90630778703665016 0 I I #
point $-1 -8.3348427885587455 -5.5 0.099999999999999992 #
vertex $-1 $436 $565 #
straight-curve $-1 8.3348427885587455 -5.5 0 1 0 0 I I #
coedge $-1 $438 $437 $450 $518 forward $439 $-1 #
point $-1 8.3348427885587455 -5.5 0 #
coedge $-1 $450 $445 $442 $512 reversed $451 $-1 #
edge $-1 $513 0 $447 2.2689280275926311 $511 $566 forward 7 unknown #
vertex $-1 $518 $567 #
straight-curve $-1 8.0031538935183253 -6.2113091308703492 0 0 0 1 I I #
straight-curve $-1 7.0968461064816744 -6.2113091308703492 0.099999999999999992 -0.42261826174069789 0.90630778703665071 0 I I #
point $-1 7.0968461064816744 -6.2113091308703492 0.099999999999999992 #
straight-curve $-1 8.3348427885587437 -5.4999999999999991 0 0 0 1 I I #
edge $-1 $452 -7.5072083969853389e-016 $513 0.7848427885587439 $450 $568 forward 7 unknown #
point $-1 8.3348427885587455 -5.5 0.099999999999999992 #
plane-surface $-1 8.3348427885587437 -5.5 0 -0.90630778703665071 0.42261826174069789 0 -0.42261826174069789 -0.90630778703665071 0 forward_v I I I I #
face $-1 $569 $570 $3 $-1 $571 reversed single #
loop $-1 $572 $573 $458 #
plane-surface $-1 -8.6499999999999986 5.5 0 -1 0 0 0 -1 0 forward_v I I I I #
coedge $-1 $574 $528 $530 $575 reversed $459 $-1 #
coedge $-1 $530 $461 $573 $576 reversed $379 $-1 #
coedge $-1 $528 $574 $461 $527 forward $459 $-1 #
edge $-1 $577 0 $532 0.10000000000000142 $526 $578 forward 7 unknown #
coedge $-1 $524 $526 $462 $529 forward $459 $-1 #
edge $-1 $532 0 $531 3.1415926535897931 $462 $579 forward 7 unknown #
coedge $-1 $463 $525 $524 $575 forward $379 $-1 #
vertex $-1 $529 $580 #
vertex $-1 $529 $581 #
ellipse-curve $-1 -8.75 2 1 -1 0 0 0 0.5 0 1 I I #
coedge $-1 $536 $465 $467 $538 forward $383 $-1 #
edge $-1 $476 0 $541 0.78484278855874434 $465 $582 forward 7 unknown #
coedge $-1 $474 $534 $466 $537 forward $383 $-1 #
edge $-1 $539 -3.7536041984926833e-016 $488 0.78484278855874945 $536 $583 forward 7 unknown #
edge $-1 $541 0 $539 2.26892802759262 $534 $584 forward 7 unknown #
vertex $-1 $537 $585 #
straight-curve $-1 7.0468461064816745 6.2113091308703492 0 8.8817841970012523e-015 0 1 I I #
vertex $-1 $538 $586 #
straight-curve $-1 7.9531538935183255 6.2113091308703492 0 0 0 1 I I #
point $-1 7.9531538935183255 6.2113091308703492 0 #
straight-curve $-1 6.7151572114412552 5.5 0.099999999999999992 1 0 0 I I #
point $-1 8.2848427885587448 5.5 0.099999999999999992 #
coedge $-1 $501 $478 $492 $555 forward $548 $-1 #
coedge $-1 $478 $501 $480 $551 forward $548 $-1 #
loop $-1 $587 $501 $588 #
straight-curve $-1 8.75 5.5 4.0999999999999996 -1 0 0 I I #
coedge $-1 $481 $480 $500 $561 reversed $482 $-1 #
edge $-1 $562 0 $483 11 $480 $589 forward 7 unknown #
point $-1 8.75 5.5 4.0999999999999996 #
straight-curve $-1 8.75 -5.5 0 0 1 0 I I #
point $-1 6.7151572114412552 5.5 0.099999999999999992 #
edge $-1 $493 0 $503 11 $492 $590 forward 7 unknown #
point $-1 -8.75 5.5 4.0999999999999996 #
face $-1 $591 $592 $3 $-1 $593 forward single #
loop $-1 $-1 $594 $497 #
plane-surface $-1 8.75 5.3999999999999995 0 0 1 0 -1 0 0 forward_v I I I I #
plane-surface $-1 0 0 0.099999999999999992 0 0 -1 1 0 0 forward_v I I I I #
edge $-1 $507 0 $562 4.0999999999999996 $500 $595 forward 7 unknown #
vertex $-1 $502 $596 #
straight-curve $-1 -8.75 -5.5 4.0999999999999996 1 0 0 I I #
point $-1 -8.75 -5.5 4.0999999999999996 #
point $-1 8.75 -5.5 0 #
ellipse-curve $-1 7.5499999999999998 -6 0.099999999999999992 0 0 -1 0.45315389351832547 -0.21130913087034919 0 1 I I #
point $-1 8.0031538935183253 -6.2113091308703492 0.099999999999999992 #
straight-curve $-1 8.3348427885587437 -5.5 0.099999999999999992 -0.42261826174069789 -0.90630778703665071 0 I I #
face $-1 $597 $598 $3 $-1 $599 forward single #
loop $-1 $600 $601 $521 #
plane-surface $-1 0 0 4 0 0 1 1 0 0 forward_v I I I I #
loop $-1 $-1 $602 $458 #
coedge $-1 $603 $603 $525 $576 forward $522 $-1 #
coedge $-1 $526 $524 $603 $604 reversed $459 $-1 #
edge $-1 $605 0 $531 0.10000000000000142 $524 $606 forward 7 unknown #
edge $-1 $605 0 $577 3.1415926535897931 $573 $607 forward 7 unknown #
vertex $-1 $604 $608 #
straight-curve $-1 -8.6499999999999986 1.5 1 -1 0 0 I I #
ellipse-curve $-1 -8.75 2 1 -1 0 0 0 -0.5 0 1 I I #
point $-1 -8.75 2.5 1 #
point $-1 -8.75 1.5 1 #
straight-curve $-1 8.2848427885587448 5.5 0.099999999999999992 -0.42261826174069878 0.90630778703665027 0 I I #
straight-curve $-1 7.0468461064816772 6.2113091308703536 0.099999999999999992 -0.42261826174069944 -0.90630778703665005 0 I I #
ellipse-curve $-1 7.5000000000000009 6 0.099999999999999992 0 0 1 0.45315389351832458 0.21130913087034919 0 1 I I #
point $-1 7.0468461064816781 6.2113091308703536 0.099999999999999992 #
point $-1 7.9531538935183255 6.2113091308703492 0.099999999999999992 #
loop $-1 $-1 $609 $588 #
face $-1 $282 $548 $3 $-1 $610 forward single #
straight-curve $-1 8.75 -5.5 4.0999999999999996 0 1 0 I I #
straight-curve $-1 -8.75 5.5 4.0999999999999996 0 -1 0 I I #
face $-1 $611 $612 $3 $-1 $613 reversed single #
loop $-1 $-1 $614 $557 #
plane-surface $-1 0 0 0.099999999999999992 0 0 1 1 0 0 forward_v I I I I #
coedge $-1 $615 $616 $617 $618 reversed $558 $-1 #
straight-curve $-1 8.75 -5.5 0 0 0 1 I I #
point $-1 8.75 -5.5 4.0999999999999996 #
face $-1 $619 $620 $3 $-1 $621 forward single #
loop $-1 $-1 $622 $569 #
plane-surface $-1 -6.9499999999999993 -3.6999999999999997 4 1 0 0 0 1 0 forward_v I I I I #
loop $-1 $-1 $623 $521 #
coedge $-1 $624 $625 $626 $627 reversed $570 $-1 #
coedge $-1 $628 $617 $629 $630 forward $572 $-1 #
coedge $-1 $573 $573 $574 $604 forward $522 $-1 #
edge $-1 $577 0 $605 3.1415926535897931 $603 $631 forward 7 unknown #
vertex $-1 $604 $632 #
straight-curve $-1 -8.6499999999999986 2.5 1 -1 0 0 I I #
ellipse-curve $-1 -8.6499999999999986 2 1 -1 0 0 0 0.5 0 1 I I #
point $-1 -8.6499999999999986 1.5 1 #
coedge $-1 $633 $634 $635 $636 forward $587 $-1 #
plane-surface $-1 0 0 4.0999999999999996 0 0 1 1 0 0 forward_v I I I I #
face $-1 $-1 $637 $3 $-1 $638 reversed single #
loop $-1 $-1 $639 $591 #
plane-surface $-1 -8.75 -5.3999999999999995 0 0 -1 0 1 0 0 forward_v I I I I #
coedge $-1 $640 $641 $642 $643 forward $592 $-1 #
coedge $-1 $644 $594 $645 $646 reversed $558 $-1 #
coedge $-1 $594 $644 $623 $647 forward $558 $-1 #
coedge $-1 $602 $648 $594 $618 forward $572 $-1 #
edge $-1 $649 0 $650 3.8999999999999999 $617 $651 forward 7 unknown #
face $-1 $652 $653 $3 $-1 $654 forward single #
loop $-1 $-1 $655 $597 #
plane-surface $-1 -6.9499999999999993 3.6999999999999997 4 0 -1 0 1 0 0 forward_v I I I I #
coedge $-1 $656 $626 $657 $658 forward $598 $-1 #
coedge $-1 $659 $629 $616 $647 reversed $600 $-1 #
coedge $-1 $660 $601 $661 $662 reversed $570 $-1 #
coedge $-1 $601 $660 $663 $664 reversed $570 $-1 #
coedge $-1 $622 $665 $601 $627 forward $598 $-1 #
edge $-1 $666 0 $667 7.3999999999999995 $601 $668 forward 7 unknown #
coedge $-1 $648 $602 $669 $670 reversed $572 $-1 #
coedge $-1 $623 $671 $602 $630 reversed $600 $-1 #
edge $-1 $650 0 $672 10.800000000000001 $602 $673 forward 7 unknown #
ellipse-curve $-1 -8.6499999999999986 2 1 -1 0 0 0 -0.5 0 1 I I #
point $-1 -8.6499999999999986 2.5 1 #
coedge $-1 $674 $609 $675 $676 forward $587 $-1 #
coedge $-1 $609 $674 $677 $678 forward $587 $-1 #
coedge $-1 $679 $680 $609 $636 reversed $653 $-1 #
edge $-1 $681 0 $682 7.3999999999999995 $609 $683 forward 7 unknown #
loop $-1 $-1 $684 $611 #
plane-surface $-1 8.6499999999999986 -5.5 0 1 0 0 0 1 0 forward_v I I I I #
coedge $-1 $642 $685 $686 $687 reversed $612 $-1 #
coedge $-1 $645 $614 $688 $689 forward $592 $-1 #
coedge $-1 $614 $645 $648 $690 forward $592 $-1 #
coedge $-1 $669 $639 $614 $643 reversed $612 $-1 #
edge $-1 $691 0 $692 17.299999999999997 $614 $693 forward 7 unknown #
coedge $-1 $616 $615 $684 $694 forward $558 $-1 #
coedge $-1 $641 $640 $615 $646 forward $592 $-1 #
edge $-1 $695 0 $649 17.299999999999997 $645 $696 forward 7 unknown #
edge $-1 $697 1.7763568394002505e-015 $650 17.299999999999997 $616 $698 forward 7 unknown #
coedge $-1 $617 $628 $641 $690 reversed $572 $-1 #
vertex $-1 $690 $699 #
vertex $-1 $618 $700 #
straight-curve $-1 -8.6499999999999986 5.3999999999999995 0.099999999999999992 0 0 1 I I #
face $-1 $588 $701 $3 $-1 $702 forward single #
loop $-1 $-1 $680 $619 #
plane-surface $-1 6.9499999999999993 3.6999999999999997 4 -1 0 0 0 -1 0 forward_v I I I I #
coedge $-1 $677 $663 $679 $703 forward $620 $-1 #
coedge $-1 $665 $622 $674 $704 reversed $598 $-1 #
coedge $-1 $663 $677 $622 $658 reversed $620 $-1 #
edge $-1 $667 0 $705 0.099999999999999645 $657 $706 forward 7 unknown #
coedge $-1 $671 $623 $707 $708 reversed $600 $-1 #
coedge $-1 $625 $624 $709 $710 reversed $570 $-1 #
coedge $-1 $711 $712 $624 $662 forward $701 $-1 #
edge $-1 $713 0 $666 13.899999999999999 $624 $714 forward 7 unknown #
coedge $-1 $655 $657 $625 $664 forward $620 $-1 #
edge $-1 $667 0 $715 13.899999999999999 $625 $716 forward 7 unknown #
coedge $-1 $626 $656 $711 $717 reversed $598 $-1 #
vertex $-1 $662 $718 #
vertex $-1 $664 $719 #
straight-curve $-1 -6.9499999999999993 -3.6999999999999997 4 0 1 0 I I #
coedge $-1 $685 $642 $628 $670 forward $612 $-1 #
edge $-1 $691 0 $672 3.8999999999999999 $628 $720 forward 7 unknown #
coedge $-1 $629 $659 $685 $721 reversed $600 $-1 #
vertex $-1 $670 $722 #
straight-curve $-1 -8.6499999999999986 5.4000000000000004 4 0 -1 0 I I #
coedge $-1 $634 $633 $656 $704 forward $587 $-1 #
coedge $-1 $712 $711 $633 $676 reversed $701 $-1 #
edge $-1 $682 0 $723 13.899999999999999 $633 $724 forward 7 unknown #
coedge $-1 $657 $655 $634 $678 reversed $620 $-1 #
edge $-1 $705 0 $681 13.899999999999999 $634 $725 forward 7 unknown #
coedge $-1 $709 $635 $655 $703 reversed $653 $-1 #
coedge $-1 $635 $709 $712 $726 forward $653 $-1 #
vertex $-1 $678 $727 #
vertex $-1 $676 $728 #
straight-curve $-1 6.9499999999999993 3.6999999999999997 4.0999999999999996 0 -1 0 I I #
coedge $-1 $688 $707 $644 $694 reversed $637 $-1 #
coedge $-1 $639 $669 $671 $721 forward $612 $-1 #
coedge $-1 $707 $688 $639 $687 forward $637 $-1 #
edge $-1 $692 0 $729 3.8999999999999999 $639 $730 forward 7 unknown #
coedge $-1 $686 $684 $640 $689 reversed $637 $-1 #
edge $-1 $692 0 $695 10.799999999999999 $640 $731 forward 7 unknown #
edge $-1 $649 0 $691 10.799999999999999 $641 $732 forward 7 unknown #
vertex $-1 $690 $733 #
vertex $-1 $689 $734 #
straight-curve $-1 -8.6499999999999986 -5.3999999999999995 0.099999999999999992 1 0 0 I I #
edge $-1 $695 0 $697 3.8999999999999999 $684 $735 forward 7 unknown #
vertex $-1 $646 $736 #
straight-curve $-1 8.6499999999999986 5.3999999999999995 0.099999999999999992 -1 0 0 I I #
vertex $-1 $708 $737 #
straight-curve $-1 8.6500000000000004 5.3999999999999995 4 -1 0 0 I I #
point $-1 -8.6499999999999986 5.3999999999999995 0.099999999999999992 #
point $-1 -8.6499999999999986 5.4000000000000004 4 #
loop $-1 $-1 $711 $652 #
plane-surface $-1 6.9499999999999993 -3.6999999999999997 4 0 1 0 -1 0 0 forward_v I I I I #
edge $-1 $715 0 $681 0.099999999999999645 $655 $738 forward 7 unknown #
edge $-1 $723 0 $705 7.3999999999999995 $674 $739 forward 7 unknown #
vertex $-1 $678 $740 #
straight-curve $-1 -6.9499999999999993 3.6999999999999997 4 0 0 1 I I #
coedge $-1 $684 $686 $659 $708 forward $637 $-1 #
edge $-1 $729 8.8817841970012523e-016 $697 10.799999999999999 $707 $741 forward 7 unknown #
coedge $-1 $680 $679 $660 $710 forward $653 $-1 #
edge $-1 $715 0 $713 7.3999999999999995 $660 $742 forward 7 unknown #
coedge $-1 $675 $661 $665 $717 forward $701 $-1 #
coedge $-1 $661 $675 $680 $726 reversed $701 $-1 #
vertex $-1 $710 $743 #
straight-curve $-1 6.9499999999999993 -3.6999999999999997 4 -1 0 0 I I #
vertex $-1 $664 $744 #
straight-curve $-1 -6.9499999999999993 3.6999999999999997 4 1 0 0 I I #
edge $-1 $666 0 $723 0.099999999999999645 $711 $745 forward 7 unknown #
point $-1 -6.9499999999999993 -3.6999999999999997 4 #
point $-1 -6.9499999999999993 3.6999999999999997 4 #
straight-curve $-1 -8.6499999999999986 -5.3999999999999986 0.099999999999999992 0 0 1 I I #
edge $-1 $672 0 $729 17.299999999999997 $685 $746 forward 7 unknown #
point $-1 -8.6500000000000004 -5.3999999999999995 4 #
vertex $-1 $704 $747 #
straight-curve $-1 6.9499999999999993 -3.6999999999999997 4.0999999999999996 -1 0 0 I I #
straight-curve $-1 -6.9499999999999993 3.6999999999999997 4.0999999999999996 1 0 0 I I #
edge $-1 $713 0 $682 0.099999999999999645 $680 $748 forward 7 unknown #
point $-1 6.9499999999999993 3.6999999999999997 4.0999999999999996 #
point $-1 6.9499999999999993 -3.6999999999999997 4.0999999999999996 #
vertex $-1 $721 $749 #
straight-curve $-1 8.6499999999999986 -5.3999999999999995 0.099999999999999992 0 0 1 I I #
straight-curve $-1 8.6499999999999986 -5.3999999999999995 0.099999999999999992 0 1 0 I I #
straight-curve $-1 -8.6499999999999986 5.3999999999999995 0.099999999999999992 0 -1 0 I I #
point $-1 -8.6499999999999986 -5.3999999999999995 0.099999999999999992 #
point $-1 8.6499999999999986 -5.3999999999999995 0.099999999999999992 #
straight-curve $-1 8.6499999999999986 5.3999999999999986 0.099999999999999992 0 0 1 I I #
point $-1 8.6499999999999986 5.3999999999999995 0.099999999999999992 #
point $-1 8.6499999999999986 5.3999999999999986 4 #
straight-curve $-1 6.9499999999999993 3.6999999999999997 4 0 0 1 I I #
straight-curve $-1 -6.9499999999999993 -3.6999999999999997 4.0999999999999996 0 1 0 I I #
point $-1 -6.9499999999999993 3.6999999999999997 4.0999999999999996 #
straight-curve $-1 8.6499999999999986 -5.4000000000000004 4 0 1 0 I I #
straight-curve $-1 6.9499999999999993 3.6999999999999997 4 0 -1 0 I I #
point $-1 6.9499999999999993 -3.6999999999999997 4 #
point $-1 6.9499999999999993 3.6999999999999997 4 #
straight-curve $-1 -6.9499999999999993 -3.6999999999999997 4 0 0 1 I I #
straight-curve $-1 -8.6500000000000004 -5.3999999999999995 4 1 0 0 I I #
point $-1 -6.9499999999999993 -3.6999999999999997 4.0999999999999996 #
straight-curve $-1 6.9499999999999993 -3.6999999999999997 4 0 0 1 I I #
point $-1 8.6499999999999986 -5.3999999999999995 4 #
End-of-ACIS-data 