600 0 1 0           
90 GICL Pro/E ACIS Translator - Source: f:/data5/repository/PTC/V18/lrgasm18/clip.prt.2 - 6 0 13 ACIS 6.0.3 NT 24 Thu Apr 04 13:34:43 2002 
1 9.9999999999999995e-007 1e-010 
body $-1 $1 $-1 $2 #
lump $-1 $-1 $3 $0 #
transform $-1 1 0 0 0 1 0 0 0 1 0 0 0 25.399999999999999 no_rotate no_reflect no_shear #
shell $-1 $-1 $-1 $4 $-1 $1 #
face $-1 $5 $6 $3 $-1 $7 reversed single #
face $-1 $8 $9 $3 $-1 $10 forward single #
loop $-1 $11 $12 $4 #
plane-surface $-1 0 0 0 0 0 1 1 0 0 forward_v I I I I #
face $-1 $13 $14 $3 $-1 $15 forward single #
loop $-1 $-1 $16 $5 #
plane-surface $-1 -0.5 0 0 -1 0 0 0 -1 0 forward_v I I I I #
loop $-1 $-1 $17 $4 #
coedge $-1 $18 $19 $20 $21 reversed $6 $-1 #
face $-1 $22 $23 $3 $-1 $24 forward single #
loop $-1 $-1 $25 $8 #
plane-surface $-1 -0.5 -1 0 0 -1 0 1 0 0 forward_v I I I I #
coedge $-1 $26 $20 $27 $28 forward $9 $-1 #
coedge $-1 $29 $29 $30 $31 reversed $11 $-1 #
coedge $-1 $32 $12 $33 $34 reversed $6 $-1 #
coedge $-1 $12 $32 $35 $36 reversed $6 $-1 #
coedge $-1 $16 $37 $12 $21 forward $9 $-1 #
edge $-1 $38 0 $39 1 $12 $40 forward 7 unknown #
face $-1 $41 $42 $3 $-1 $43 forward single #
loop $-1 $-1 $44 $13 #
plane-surface $-1 0.5 -1 0 1 0 0 0 1 0 forward_v I I I I #
coedge $-1 $45 $35 $46 $47 forward $14 $-1 #
coedge $-1 $37 $16 $48 $49 reversed $9 $-1 #
coedge $-1 $35 $45 $16 $28 reversed $14 $-1 #
edge $-1 $39 0 $50 1 $27 $51 forward 7 unknown #
coedge $-1 $17 $17 $52 $53 reversed $11 $-1 #
coedge $-1 $54 $55 $17 $31 forward $56 $-1 #
edge $-1 $57 0 $58 3.1415926535897931 $17 $59 forward 7 unknown #
coedge $-1 $19 $18 $60 $61 reversed $6 $-1 #
coedge $-1 $62 $63 $18 $34 forward $42 $-1 #
edge $-1 $64 0 $38 3.1415926535897931 $18 $65 forward 7 unknown #
coedge $-1 $25 $27 $19 $36 forward $14 $-1 #
edge $-1 $39 0 $66 1 $19 $67 forward 7 unknown #
coedge $-1 $20 $26 $62 $68 reversed $9 $-1 #
vertex $-1 $34 $69 #
vertex $-1 $36 $70 #
straight-curve $-1 -0.5 0 0 0 -1 0 I I #
face $-1 $71 $72 $3 $-1 $73 forward single #
loop $-1 $-1 $62 $22 #
cone-surface $-1 0 0 0 0 0 1 0.5 0 0 1 I I 0 1 0.5 forward I I I I #
coedge $-1 $74 $60 $63 $75 forward $23 $-1 #
coedge $-1 $27 $25 $76 $77 reversed $14 $-1 #
coedge $-1 $60 $74 $25 $47 reversed $23 $-1 #
edge $-1 $66 0 $78 1 $25 $79 forward 7 unknown #
coedge $-1 $76 $80 $26 $49 forward $72 $-1 #
edge $-1 $81 0 $50 1 $48 $82 forward 7 unknown #
vertex $-1 $77 $83 #
straight-curve $-1 -0.5 -1 0 0 0 1 I I #
coedge $-1 $84 $85 $29 $53 forward $86 $-1 #
edge $-1 $58 0 $57 3.1415926535897931 $29 $87 forward 7 unknown #
coedge $-1 $88 $30 $85 $89 reversed $56 $-1 #
coedge $-1 $30 $88 $84 $90 forward $56 $-1 #
loop $-1 $-1 $54 $71 #
vertex $-1 $53 $91 #
vertex $-1 $53 $92 #
ellipse-curve $-1 0 0 0 0 0 -1 0.375 0 0 1 I I #
coedge $-1 $44 $46 $32 $61 forward $23 $-1 #
edge $-1 $66 0 $64 1 $32 $93 forward 7 unknown #
coedge $-1 $94 $33 $37 $68 forward $42 $-1 #
coedge $-1 $33 $94 $44 $75 reversed $42 $-1 #
vertex $-1 $61 $95 #
ellipse-curve $-1 0 0 0 0 0 1 0.5 0 0 1 I I #
vertex $-1 $36 $96 #
straight-curve $-1 -0.5 -1 0 1 0 0 I I #
edge $-1 $38 3.7491518045553436e-033 $81 1 $62 $97 forward 7 unknown #
point $-1 -0.5 0 0 #
point $-1 -0.5 -1 0 #
face $-1 $98 $56 $3 $-1 $99 reversed single #
loop $-1 $100 $101 $41 #
plane-surface $-1 0 0 1 0 0 1 1 0 0 forward_v I I I I #
coedge $-1 $46 $44 $101 $102 reversed $23 $-1 #
edge $-1 $64 0 $103 1 $44 $104 forward 7 unknown #
coedge $-1 $101 $48 $45 $77 forward $72 $-1 #
edge $-1 $50 0 $78 1 $76 $105 forward 7 unknown #
vertex $-1 $77 $106 #
straight-curve $-1 0.5 -1 0 0 0 1 I I #
coedge $-1 $48 $101 $94 $107 forward $72 $-1 #
vertex $-1 $49 $108 #
straight-curve $-1 -0.5 0 1 0 -1 0 I I #
point $-1 -0.5 -1 1 #
coedge $-1 $109 $52 $55 $90 reversed $86 $-1 #
coedge $-1 $52 $109 $54 $89 forward $86 $-1 #
loop $-1 $-1 $84 $98 #
ellipse-curve $-1 0 0 0 0 0 -1 -0.375 0 0 1 I I #
coedge $-1 $55 $54 $110 $111 reversed $56 $-1 #
edge $-1 $112 0 $58 1 $85 $113 forward 7 unknown #
edge $-1 $114 0 $57 1 $84 $115 forward 7 unknown #
point $-1 0.375 0 0 #
point $-1 -0.375 0 0 #
straight-curve $-1 0.5 -1 0 0 1 0 I I #
coedge $-1 $63 $62 $80 $107 reversed $42 $-1 #
point $-1 0.5 0 0 #
point $-1 0.5 -1 0 #
straight-curve $-1 -0.5 6.1230317691118863e-017 0 0 -6.1230317691118863e-017 1 I I #
face $-1 $-1 $86 $3 $-1 $116 reversed single #
cone-surface $-1 0 0 1 0 0 -1 -0.375 0 0 1 I I 0 1 0.375 forward I I I I #
loop $-1 $-1 $110 $41 #
coedge $-1 $80 $76 $74 $102 forward $72 $-1 #
edge $-1 $78 0 $103 1 $101 $117 forward 7 unknown #
vertex $-1 $107 $118 #
straight-curve $-1 0.5 0 0 0 0 1 I I #
straight-curve $-1 -0.5 -1 1 1 0 0 I I #
point $-1 0.5 -1 1 #
edge $-1 $103 0 $81 3.1415926535897931 $80 $119 forward 7 unknown #
point $-1 -0.5 0 1 #
coedge $-1 $85 $84 $120 $121 reversed $86 $-1 #
coedge $-1 $120 $120 $88 $111 forward $100 $-1 #
edge $-1 $114 0 $112 3.1415926535897931 $110 $122 forward 7 unknown #
vertex $-1 $121 $123 #
straight-curve $-1 -0.375 0 1 0 0 -1 I I #
vertex $-1 $121 $124 #
straight-curve $-1 0.375 4.5922738268339147e-017 1 0 0 -1 I I #
cone-surface $-1 0 0 1 0 0 -1 -0.375 0 0 1 I I 0 1 0.375 forward I I I I #
straight-curve $-1 0.5 -1 1 0 1 0 I I #
point $-1 0.5 0 1 #
ellipse-curve $-1 0 -1.3877787807814457e-017 1 0 0 1 0.5 1.3877787807814457e-017 0 1 I I #
coedge $-1 $110 $110 $109 $121 forward $100 $-1 #
edge $-1 $112 0 $114 3.1415926535897931 $120 $125 forward 7 unknown #
ellipse-curve $-1 0 0 1 0 0 -1 0.375 0 0 1 I I #
point $-1 -0.375 0 1 #
point $-1 0.375 0 1 #
ellipse-curve $-1 0 0 1 0 0 -1 -0.375 0 0 1 I I #
End-of-ACIS-data 