600 0 1 0           
98 GICL Pro/E ACIS Translator - Source: f:/data5/repository/PTC/V18/lrgasm18/conv1_slider.prt.2 - 6 0 13 ACIS 6.0.3 NT 24 Thu Apr 04 13:34:29 2002 
1 9.9999999999999995e-007 1e-010 
body $-1 $1 $-1 $2 #
lump $-1 $-1 $3 $0 #
transform $-1 1 0 0 0 1 0 0 0 1 0 0 0 25.399999999999999 no_rotate no_reflect no_shear #
shell $-1 $-1 $-1 $4 $-1 $1 #
face $-1 $5 $6 $3 $-1 $7 forward single #
face $-1 $8 $9 $3 $-1 $10 reversed single #
loop $-1 $-1 $11 $4 #
plane-surface $-1 -13.189655172413794 0.27586206896551713 33 0.68965517241379326 0.72413793103448265 0 -0.72413793103448265 0.68965517241379326 0 forward_v I I I I #
face $-1 $12 $13 $3 $-1 $14 forward single #
loop $-1 $-1 $15 $5 #
cone-surface $-1 -12.5 1 33 0 0 1 1 0 0 1 I I 0 1 1 forward I I I I #
coedge $-1 $16 $17 $18 $19 forward $6 $-1 #
face $-1 $20 $21 $3 $-1 $22 reversed single #
loop $-1 $-1 $23 $8 #
plane-surface $-1 12.5 0 33 0 1 0 -1 0 0 forward_v I I I I #
coedge $-1 $24 $25 $26 $27 forward $9 $-1 #
coedge $-1 $28 $11 $29 $30 forward $6 $-1 #
coedge $-1 $11 $28 $31 $32 reversed $6 $-1 #
coedge $-1 $25 $24 $11 $19 reversed $9 $-1 #
edge $-1 $33 9.3378421546047802e-034 $34 66 $11 $35 forward 7 unknown #
face $-1 $36 $37 $3 $-1 $38 forward single #
loop $-1 $-1 $39 $12 #
cone-surface $-1 12.5 1 33 0 0 1 1 0 0 1 I I 0 1 1 forward I I I I #
coedge $-1 $40 $41 $42 $43 forward $13 $-1 #
coedge $-1 $18 $15 $44 $45 forward $9 $-1 #
coedge $-1 $15 $18 $46 $47 reversed $9 $-1 #
coedge $-1 $41 $40 $15 $27 reversed $13 $-1 #
edge $-1 $48 0 $49 66 $15 $50 forward 7 unknown #
coedge $-1 $17 $16 $51 $52 reversed $6 $-1 #
coedge $-1 $53 $54 $16 $30 reversed $55 $-1 #
edge $-1 $34 1.531342102931251e-016 $56 2.5000000000000004 $16 $57 forward 7 unknown #
coedge $-1 $58 $59 $17 $32 forward $60 $-1 #
edge $-1 $33 1.9141776286640636e-016 $61 2.5000000000000004 $17 $62 forward 7 unknown #
vertex $-1 $32 $63 #
vertex $-1 $30 $64 #
straight-curve $-1 -13.189655172413794 0.27586206896551768 33 0 -8.4107804895845195e-018 -1 I I #
face $-1 $65 $66 $3 $-1 $67 forward single #
loop $-1 $-1 $68 $20 #
plane-surface $-1 15 2 33 -0.68965517241379326 0.72413793103448265 0 -0.72413793103448265 -0.68965517241379326 0 forward_v I I I I #
coedge $-1 $69 $70 $71 $72 forward $21 $-1 #
coedge $-1 $26 $23 $73 $74 forward $13 $-1 #
coedge $-1 $23 $26 $75 $76 reversed $13 $-1 #
coedge $-1 $70 $69 $23 $43 reversed $21 $-1 #
edge $-1 $77 0 $78 66 $23 $79 forward 7 unknown #
coedge $-1 $80 $81 $24 $45 reversed $82 $-1 #
edge $-1 $49 0 $34 0.76101275422472858 $24 $83 forward 7 unknown #
coedge $-1 $84 $85 $25 $47 forward $86 $-1 #
edge $-1 $48 0 $33 0.76101275422473036 $25 $87 forward 7 unknown #
vertex $-1 $47 $88 #
vertex $-1 $45 $89 #
straight-curve $-1 -12.5 0 33 0 0 -1 I I #
coedge $-1 $90 $91 $28 $52 forward $92 $-1 #
edge $-1 $61 0 $56 66 $28 $93 forward 7 unknown #
coedge $-1 $94 $29 $81 $95 forward $55 $-1 #
coedge $-1 $29 $94 $90 $96 reversed $55 $-1 #
loop $-1 $-1 $53 $97 #
vertex $-1 $52 $98 #
straight-curve $-1 -13.189655172413794 0.27586206896551729 -33 -0.72413793103448265 0.68965517241379315 0 I I #
coedge $-1 $99 $31 $91 $100 forward $60 $-1 #
coedge $-1 $31 $99 $84 $101 reversed $60 $-1 #
loop $-1 $-1 $58 $102 #
vertex $-1 $32 $103 #
straight-curve $-1 -13.189655172413794 0.27586206896551729 33 -0.72413793103448265 0.68965517241379315 0 I I #
point $-1 -13.189655172413794 0.27586206896551757 33 #
point $-1 -13.189655172413794 0.27586206896551752 -33 #
face $-1 $104 $105 $3 $-1 $106 reversed single #
loop $-1 $-1 $107 $36 #
plane-surface $-1 15.051724137931036 1.9456896551724139 0 0.72413793103448143 0.68965517241379448 0 0 0 -1 forward_v I I I I #
coedge $-1 $108 $109 $110 $111 forward $37 $-1 #
coedge $-1 $42 $39 $112 $113 forward $21 $-1 #
coedge $-1 $39 $42 $114 $115 reversed $21 $-1 #
coedge $-1 $109 $108 $39 $72 reversed $37 $-1 #
edge $-1 $116 0 $117 66 $39 $118 forward 7 unknown #
coedge $-1 $119 $120 $40 $74 reversed $121 $-1 #
edge $-1 $78 0 $49 25 $40 $122 forward 7 unknown #
coedge $-1 $123 $124 $41 $76 forward $125 $-1 #
edge $-1 $77 0 $48 25 $41 $126 forward 7 unknown #
vertex $-1 $76 $127 #
vertex $-1 $74 $128 #
straight-curve $-1 12.5 0 33 0 0 -1 I I #
coedge $-1 $129 $44 $120 $130 forward $82 $-1 #
coedge $-1 $44 $129 $53 $95 reversed $82 $-1 #
loop $-1 $-1 $80 $131 #
ellipse-curve $-1 -12.5 1.0000000000000027 -33 0 0 -1 0 -1.0000000000000027 0 1 I I #
coedge $-1 $132 $46 $59 $101 forward $86 $-1 #
coedge $-1 $46 $132 $123 $133 reversed $86 $-1 #
loop $-1 $-1 $84 $134 #
ellipse-curve $-1 -12.5 1 33 0 0 -1 0 -1 0 1 I I #
point $-1 -12.5 0 33 #
point $-1 -12.5 0 -33 #
coedge $-1 $135 $51 $54 $96 forward $92 $-1 #
coedge $-1 $51 $135 $58 $100 reversed $92 $-1 #
loop $-1 $-1 $90 $136 #
straight-curve $-1 -15 2 33 0 0 -1 I I #
coedge $-1 $54 $53 $137 $138 forward $55 $-1 #
edge $-1 $34 -8.03954604038913e-017 $139 0.14999999999999944 $53 $140 forward 7 unknown #
edge $-1 $56 3.2158184161556204e-016 $141 0.15000000000000052 $90 $142 forward 7 unknown #
face $-1 $131 $55 $3 $-1 $143 forward single #
point $-1 -15 2.0000000000000004 -33 #
coedge $-1 $59 $58 $144 $145 reversed $60 $-1 #
edge $-1 $61 0 $146 0.15000000000000022 $58 $147 forward 7 unknown #
edge $-1 $33 -4.0197730201945274e-017 $148 0.14999999999999913 $59 $149 forward 7 unknown #
face $-1 $136 $60 $3 $-1 $150 reversed single #
point $-1 -15 2.0000000000000004 33 #
face $-1 $151 $152 $3 $-1 $153 reversed single #
loop $-1 $-1 $154 $65 #
plane-surface $-1 14.146551724137931 1.0836206896551721 33 0 0 -1 -0.72413793103448265 -0.68965517241379337 0 forward_v I I I I #
coedge $-1 $155 $110 $156 $157 forward $66 $-1 #
coedge $-1 $71 $68 $158 $159 forward $37 $-1 #
coedge $-1 $68 $71 $160 $161 reversed $37 $-1 #
coedge $-1 $107 $162 $68 $111 reversed $66 $-1 #
edge $-1 $163 0 $164 66 $68 $165 forward 7 unknown #
coedge $-1 $166 $167 $69 $113 reversed $168 $-1 #
edge $-1 $117 0 $78 0.76101275422472947 $69 $169 forward 7 unknown #
coedge $-1 $170 $171 $70 $115 forward $152 $-1 #
edge $-1 $116 7.7715611723760859e-016 $77 0.76101275422473025 $70 $172 forward 7 unknown #
vertex $-1 $115 $173 #
vertex $-1 $113 $174 #
straight-curve $-1 13.189655172413794 0.2758620689655169 33 0 0 -1 I I #
coedge $-1 $175 $73 $167 $176 forward $121 $-1 #
coedge $-1 $73 $175 $80 $130 reversed $121 $-1 #
loop $-1 $-1 $119 $177 #
straight-curve $-1 12.5 0 -33 -1 0 0 I I #
coedge $-1 $178 $75 $85 $133 forward $125 $-1 #
coedge $-1 $75 $178 $170 $179 reversed $125 $-1 #
loop $-1 $-1 $123 $151 #
straight-curve $-1 12.5 0 33 -1 0 0 I I #
point $-1 12.5 0 33 #
point $-1 12.5 0 -33 #
coedge $-1 $81 $80 $180 $181 forward $82 $-1 #
edge $-1 $49 0 $182 0.14999999999999999 $80 $183 forward 7 unknown #
face $-1 $177 $82 $3 $-1 $184 forward single #
coedge $-1 $85 $84 $185 $186 reversed $86 $-1 #
edge $-1 $48 0 $187 0.14999999999999999 $85 $188 forward 7 unknown #
face $-1 $102 $86 $3 $-1 $189 reversed single #
coedge $-1 $91 $90 $190 $191 reversed $92 $-1 #
face $-1 $97 $92 $3 $-1 $192 reversed single #
coedge $-1 $193 $190 $94 $138 reversed $194 $-1 #
edge $-1 $139 -1.4777451293286564e-015 $141 2.5 $94 $195 forward 7 unknown #
vertex $-1 $138 $196 #
straight-curve $-1 -13.189655172413794 0.2758620689655174 -33 -0.68965517241378704 -0.72413793103448842 0 I I #
vertex $-1 $191 $197 #
straight-curve $-1 -15 2.0000000000000009 -33 -0.68965517241379448 -0.72413793103448154 0 I I #
plane-surface $-1 -14.146551724137932 1.0836206896551723 -33 0 0 -1 -0.72413793103448265 0.68965517241379326 0 forward_v I I I I #
coedge $-1 $190 $193 $99 $145 forward $194 $-1 #
edge $-1 $148 -1.1714767087424061e-015 $146 2.5 $99 $198 forward 7 unknown #
vertex $-1 $145 $199 #
straight-curve $-1 -15 2.0000000000000004 33 -0.68965517241379581 -0.72413793103447999 0 I I #
vertex $-1 $101 $200 #
straight-curve $-1 -13.189655172413794 0.27586206896551752 33 -0.68965517241379404 -0.72413793103448187 0 I I #
plane-surface $-1 -14.146551724137932 1.0836206896551723 33 0 0 -1 -0.72413793103448265 0.68965517241379326 0 forward_v I I I I #
face $-1 $134 $125 $3 $-1 $201 reversed single #
loop $-1 $-1 $170 $104 #
plane-surface $-1 12.899244977080661 0.0018875572983463318 33 0 0 -1 -0.72413793103448254 -0.68965517241379348 0 forward_v I I I I #
coedge $-1 $202 $160 $171 $203 forward $105 $-1 #
coedge $-1 $162 $107 $204 $205 forward $66 $-1 #
coedge $-1 $160 $202 $107 $157 reversed $105 $-1 #
edge $-1 $163 4.8237276242334351e-016 $206 0.15000000000000097 $156 $207 forward 7 unknown #
coedge $-1 $208 $209 $108 $159 reversed $210 $-1 #
edge $-1 $164 1.531342102931251e-016 $117 2.5 $108 $211 forward 7 unknown #
coedge $-1 $154 $156 $109 $161 forward $105 $-1 #
edge $-1 $163 1.531342102931251e-016 $116 2.5000000000000004 $109 $212 forward 7 unknown #
coedge $-1 $110 $155 $208 $213 reversed $66 $-1 #
vertex $-1 $161 $214 #
vertex $-1 $159 $215 #
straight-curve $-1 15 2.0000000000000004 33 0 0 -1 I I #
coedge $-1 $216 $112 $209 $217 forward $168 $-1 #
coedge $-1 $112 $216 $119 $176 reversed $168 $-1 #
loop $-1 $-1 $166 $218 #
ellipse-curve $-1 12.5 1.0000000000000011 -33 0 0 -1 0.68965517241379359 -0.72413793103448376 0 1 I I #
coedge $-1 $219 $114 $124 $179 forward $152 $-1 #
coedge $-1 $114 $219 $154 $203 reversed $152 $-1 #
ellipse-curve $-1 12.5 1 33 0 0 -1 0.68965517241379359 -0.72413793103448265 0 1 I I #
point $-1 13.189655172413794 0.27586206896551624 33 #
point $-1 13.189655172413794 0.2758620689655174 -33 #
coedge $-1 $120 $119 $220 $221 forward $121 $-1 #
edge $-1 $78 0 $222 0.14999999999999927 $119 $223 forward 7 unknown #
face $-1 $218 $121 $3 $-1 $224 forward single #
coedge $-1 $124 $123 $225 $226 reversed $125 $-1 #
edge $-1 $77 0 $227 0.14999999999999991 $124 $228 forward 7 unknown #
coedge $-1 $229 $230 $129 $181 reversed $231 $-1 #
edge $-1 $182 0 $139 0.76101275422472947 $129 $232 forward 7 unknown #
vertex $-1 $181 $233 #
straight-curve $-1 -12.5 0 -33 0 -1 0 I I #
plane-surface $-1 -12.899244977080661 0.0018875572983462763 -33 0 0 -1 -1 0 0 forward_v I I I I #
coedge $-1 $230 $229 $132 $186 forward $231 $-1 #
edge $-1 $187 0 $148 0.76101275422472936 $132 $234 forward 7 unknown #
vertex $-1 $133 $235 #
straight-curve $-1 -12.5 0 33 0 -1 0 I I #
plane-surface $-1 -12.899244977080661 0.0018875572983462763 33 0 0 -1 -1 0 0 forward_v I I I I #
coedge $-1 $137 $144 $135 $191 forward $194 $-1 #
edge $-1 $146 0 $141 66 $135 $236 forward 7 unknown #
plane-surface $-1 -15.051724137931036 1.9456896551724139 0 0.72413793103448088 -0.68965517241379526 0 0 0 -1 forward_v I I I I #
coedge $-1 $144 $137 $230 $237 reversed $194 $-1 #
loop $-1 $-1 $190 $238 #
straight-curve $-1 -13.293103448275863 0.16724137931034483 -33 -0.72413793103448254 0.68965517241379337 0 I I #
point $-1 -13.293103448275861 0.16724137931034455 -33 #
point $-1 -15.103448275862069 1.8913793103448282 -33 #
straight-curve $-1 -13.293103448275863 0.16724137931034483 33 -0.72413793103448254 0.68965517241379337 0 I I #
point $-1 -15.103448275862069 1.8913793103448282 33 #
point $-1 -13.293103448275861 0.167241379310345 33 #
plane-surface $-1 0 -0.074999999999999997 33 0 0 -1 -1 0 0 forward_v I I I I #
coedge $-1 $156 $154 $239 $240 reversed $105 $-1 #
edge $-1 $116 7.6375687383695947e-016 $241 0.14999999999999963 $171 $242 forward 7 unknown #
coedge $-1 $239 $243 $155 $205 reversed $244 $-1 #
edge $-1 $206 0 $245 66 $155 $246 forward 7 unknown #
vertex $-1 $157 $247 #
straight-curve $-1 15 2.0000000000000004 33 0.6896551724137937 -0.72413793103448221 0 I I #
coedge $-1 $248 $158 $162 $213 forward $210 $-1 #
coedge $-1 $158 $248 $166 $217 reversed $210 $-1 #
loop $-1 $-1 $208 $249 #
straight-curve $-1 15 2 -33 -0.72413793103448254 -0.68965517241379337 0 I I #
straight-curve $-1 15 2 33 -0.72413793103448254 -0.68965517241379337 0 I I #
edge $-1 $164 4.8237276242334351e-016 $245 0.15000000000000036 $208 $250 forward 7 unknown #
point $-1 15 1.9999999999999998 33 #
point $-1 15 1.9999999999999998 -33 #
coedge $-1 $167 $166 $251 $252 forward $168 $-1 #
edge $-1 $117 -8.4415233424085607e-016 $253 0.14999999999999886 $166 $254 forward 7 unknown #
face $-1 $249 $168 $3 $-1 $255 forward single #
coedge $-1 $171 $170 $256 $257 reversed $152 $-1 #
coedge $-1 $258 $259 $175 $221 reversed $260 $-1 #
edge $-1 $222 0 $182 25 $175 $261 forward 7 unknown #
vertex $-1 $221 $262 #
straight-curve $-1 12.5 0 -33 0 -1 0 I I #
plane-surface $-1 0 -0.074999999999999997 -33 0 0 -1 -1 0 0 forward_v I I I I #
coedge $-1 $259 $258 $178 $226 forward $260 $-1 #
edge $-1 $227 0 $187 25 $178 $263 forward 7 unknown #
vertex $-1 $179 $264 #
straight-curve $-1 12.5 0 33 0 -1 0 I I #
coedge $-1 $185 $180 $259 $265 reversed $231 $-1 #
coedge $-1 $180 $185 $193 $237 forward $231 $-1 #
loop $-1 $-1 $230 $266 #
ellipse-curve $-1 -12.5 0.99999999999999933 -33 0 0 -1 0 -1.1499999999999992 0 1 I I #
point $-1 -12.5 -0.14999999999999999 -33 #
ellipse-curve $-1 -12.5 1 33 0 0 -1 0 -1.1499999999999999 0 1 I I #
point $-1 -12.5 -0.14999999999999999 33 #
straight-curve $-1 -15.103448275862069 1.8913793103448282 33 0 0 -1 I I #
edge $-1 $148 4.8556779203944853e-033 $139 66 $193 $267 forward 7 unknown #
face $-1 $-1 $194 $3 $-1 $268 reversed single #
coedge $-1 $269 $204 $202 $240 forward $244 $-1 #
edge $-1 $206 1.5313421029312503e-016 $241 2.5000000000000009 $202 $270 forward 7 unknown #
vertex $-1 $203 $271 #
straight-curve $-1 13.189655172413794 0.27586206896551729 33 0.68965517241379481 -0.72413793103448121 0 I I #
coedge $-1 $204 $269 $248 $272 reversed $244 $-1 #
loop $-1 $-1 $269 $273 #
vertex $-1 $272 $274 #
straight-curve $-1 15.103448275862069 1.891379310344828 33 0 0 -1 I I #
point $-1 15.103448275862069 1.8913793103448271 33 #
coedge $-1 $209 $208 $243 $272 forward $210 $-1 #
face $-1 $273 $210 $3 $-1 $275 forward single #
straight-curve $-1 15 2.0000000000000004 -33 0.6896551724137937 -0.72413793103448221 0 I I #
coedge $-1 $276 $277 $216 $252 reversed $278 $-1 #
edge $-1 $253 1.5950274077790681e-015 $222 0.76101275422473391 $216 $279 forward 7 unknown #
vertex $-1 $252 $280 #
straight-curve $-1 13.189655172413794 0.27586206896551624 -33 0.68965517241378937 -0.72413793103448643 0 I I #
plane-surface $-1 12.899244977080661 0.0018875572983463318 -33 0 0 -1 -0.72413793103448254 -0.68965517241379348 0 forward_v I I I I #
coedge $-1 $277 $276 $219 $257 forward $278 $-1 #
edge $-1 $241 1.6789762187147916e-015 $227 0.76101275422473047 $219 $281 forward 7 unknown #
coedge $-1 $225 $220 $277 $282 reversed $260 $-1 #
coedge $-1 $220 $225 $229 $265 forward $260 $-1 #
loop $-1 $-1 $259 $283 #
straight-curve $-1 12.5 -0.14999999999999999 -33 -1 0 0 I I #
point $-1 12.5 -0.14999999999999927 -33 #
straight-curve $-1 12.5 -0.14999999999999999 33 -1 0 0 I I #
point $-1 12.5 -0.14999999999999991 33 #
edge $-1 $187 0 $182 66 $229 $284 forward 7 unknown #
face $-1 $238 $231 $3 $-1 $285 forward single #
straight-curve $-1 -13.293103448275863 0.16724137931034544 33 0 -1.0934014636459875e-017 -1 I I #
plane-surface $-1 -13.293103448275863 0.16724137931034472 33 0.68965517241379326 0.72413793103448265 0 -0.72413793103448265 0.68965517241379326 0 forward_v I I I I #
coedge $-1 $243 $239 $276 $286 forward $244 $-1 #
straight-curve $-1 15.103448275862069 1.8913793103448273 33 -0.72413793103448276 -0.68965517241379304 0 I I #
point $-1 13.293103448275861 0.16724137931034413 33 #
edge $-1 $245 -4.5940263087937505e-016 $253 2.5000000000000009 $248 $287 forward 7 unknown #
face $-1 $288 $244 $3 $-1 $289 reversed single #
point $-1 15.103448275862069 1.891379310344828 -33 #
plane-surface $-1 14.146551724137931 1.0836206896551721 -33 0 0 -1 -0.72413793103448265 -0.68965517241379337 0 forward_v I I I I #
coedge $-1 $256 $251 $269 $286 reversed $278 $-1 #
coedge $-1 $251 $256 $258 $282 forward $278 $-1 #
loop $-1 $-1 $277 $288 #
ellipse-curve $-1 12.500000000000004 0.99999999999999556 -33 0 0 -1 0.79310344827585944 -0.83275862068965056 0 1 I I #
point $-1 13.293103448275861 0.16724137931034413 -33 #
ellipse-curve $-1 12.5 1 33 0 0 -1 0.79310344827586299 -0.832758620689655 0 1 I I #
edge $-1 $227 0 $222 66 $258 $290 forward 7 unknown #
face $-1 $266 $260 $3 $-1 $291 reversed single #
straight-curve $-1 -12.5 -0.14999999999999999 33 0 0 -1 I I #
cone-surface $-1 -12.5 1 33 0 0 1 1.1499999999999999 0 0 1 I I 0 1 1.1499999999999999 forward I I I I #
edge $-1 $241 0 $253 66 $276 $292 forward 7 unknown #
straight-curve $-1 15.103448275862069 1.8913793103448273 -33 -0.72413793103448276 -0.68965517241379304 0 I I #
face $-1 $283 $278 $3 $-1 $293 forward single #
plane-surface $-1 15.103448275862069 1.8913793103448275 33 -0.68965517241379326 0.72413793103448265 0 -0.72413793103448265 -0.68965517241379326 0 forward_v I I I I #
straight-curve $-1 12.5 -0.14999999999999991 33 0 -1.2616170734376779e-018 -1 I I #
plane-surface $-1 12.5 -0.14999999999999999 33 0 1 0 -1 0 0 forward_v I I I I #
straight-curve $-1 13.293103448275861 0.16724137931034377 33 0 0 -1 I I #
cone-surface $-1 12.5 1 33 0 0 1 1.1499999999999999 0 0 1 I I 0 1 1.1499999999999999 forward I I I I #
End-of-ACIS-data 