600 0 1 0           
101 GICL Pro/E ACIS Translator - Source: f:/data5/repository/PTC/V18/lrgasm18/corner_brace_ml.prt.2 - 6 0 13 ACIS 6.0.3 NT 24 Thu Apr 04 13:34:55 2002 
1 9.9999999999999995e-007 1e-010 
body $-1 $1 $-1 $2 #
lump $-1 $-1 $3 $0 #
transform $-1 1 0 0 0 1 0 0 0 1 0 0 0 25.399999999999999 no_rotate no_reflect no_shear #
shell $-1 $-1 $-1 $4 $-1 $1 #
face $-1 $5 $6 $3 $-1 $7 reversed single #
face $-1 $8 $9 $3 $-1 $10 forward single #
loop $-1 $11 $12 $4 #
plane-surface $-1 0 0 0 0 0 1 1 0 0 forward_v I I I I #
face $-1 $13 $14 $3 $-1 $15 forward single #
loop $-1 $-1 $16 $5 #
plane-surface $-1 5.5 5 0 0 1 0 -1 0 0 forward_v I I I I #
loop $-1 $17 $18 $4 #
coedge $-1 $19 $20 $21 $22 reversed $6 $-1 #
face $-1 $23 $24 $3 $-1 $25 forward single #
loop $-1 $-1 $26 $8 #
plane-surface $-1 0 5 0 -1 0 0 0 -1 0 forward_v I I I I #
coedge $-1 $27 $21 $28 $29 forward $9 $-1 #
loop $-1 $-1 $30 $4 #
coedge $-1 $31 $31 $32 $33 reversed $11 $-1 #
coedge $-1 $34 $12 $35 $36 reversed $6 $-1 #
coedge $-1 $12 $37 $38 $39 reversed $6 $-1 #
coedge $-1 $16 $40 $12 $22 forward $9 $-1 #
edge $-1 $41 0 $42 5.5 $12 $43 forward 7 unknown #
face $-1 $44 $45 $3 $-1 $46 forward single #
loop $-1 $-1 $47 $13 #
plane-surface $-1 0 4 0 -0.70710678118654757 -0.70710678118654757 0 0.70710678118654746 -0.70710678118654746 0 forward_v I I I I #
coedge $-1 $48 $38 $49 $50 forward $14 $-1 #
coedge $-1 $40 $16 $51 $52 reversed $9 $-1 #
coedge $-1 $38 $48 $16 $29 reversed $14 $-1 #
edge $-1 $42 0 $53 0.25 $28 $54 forward 7 unknown #
coedge $-1 $55 $55 $56 $57 reversed $17 $-1 #
coedge $-1 $18 $18 $58 $59 reversed $11 $-1 #
coedge $-1 $60 $61 $18 $33 forward $62 $-1 #
edge $-1 $63 0 $64 3.1415926535897931 $18 $65 forward 7 unknown #
coedge $-1 $66 $19 $67 $68 reversed $6 $-1 #
coedge $-1 $69 $70 $19 $36 forward $71 $-1 #
edge $-1 $72 0 $41 1.5707963267948966 $19 $73 forward 7 unknown #
coedge $-1 $20 $66 $74 $75 reversed $6 $-1 #
coedge $-1 $26 $28 $20 $39 forward $14 $-1 #
edge $-1 $42 0 $76 1 $20 $77 forward 7 unknown #
coedge $-1 $21 $27 $69 $78 reversed $9 $-1 #
vertex $-1 $36 $79 #
vertex $-1 $39 $80 #
straight-curve $-1 5.5 5 0 -1 0 0 I I #
face $-1 $81 $82 $3 $-1 $83 forward single #
loop $-1 $-1 $84 $23 #
plane-surface $-1 4 0 0 0 -1 0 1 0 0 forward_v I I I I #
coedge $-1 $85 $74 $86 $87 forward $24 $-1 #
coedge $-1 $28 $26 $88 $89 reversed $14 $-1 #
coedge $-1 $74 $85 $26 $50 reversed $24 $-1 #
edge $-1 $76 0 $90 0.25 $26 $91 forward 7 unknown #
coedge $-1 $88 $92 $27 $52 forward $93 $-1 #
edge $-1 $94 0 $53 5.5 $51 $95 forward 7 unknown #
vertex $-1 $89 $96 #
straight-curve $-1 0 5 0 0 0 1 I I #
coedge $-1 $30 $30 $97 $98 reversed $17 $-1 #
coedge $-1 $99 $100 $30 $57 forward $101 $-1 #
edge $-1 $102 0 $103 3.1415926535897931 $30 $104 forward 7 unknown #
coedge $-1 $105 $106 $31 $59 forward $107 $-1 #
edge $-1 $64 0 $63 3.1415926535897967 $31 $108 forward 7 unknown #
coedge $-1 $109 $32 $106 $110 reversed $62 $-1 #
coedge $-1 $32 $109 $105 $111 forward $62 $-1 #
loop $-1 $-1 $60 $112 #
vertex $-1 $59 $113 #
vertex $-1 $59 $114 #
ellipse-curve $-1 5 1 0 0 0 -1 0.125 0 0 1 I I #
coedge $-1 $37 $34 $115 $116 reversed $6 $-1 #
coedge $-1 $117 $118 $34 $68 forward $82 $-1 #
edge $-1 $119 0 $72 4.5 $34 $120 forward 7 unknown #
coedge $-1 $121 $35 $40 $78 forward $71 $-1 #
coedge $-1 $35 $121 $117 $122 reversed $71 $-1 #
loop $-1 $-1 $69 $81 #
vertex $-1 $68 $123 #
ellipse-curve $-1 5.5 4.5 0 0 0 1 0.5 0 0 1 I I #
coedge $-1 $47 $49 $37 $75 forward $24 $-1 #
edge $-1 $76 0 $124 5.6568542494923815 $37 $125 forward 7 unknown #
vertex $-1 $39 $126 #
straight-curve $-1 0 5 0 0 -1 0 I I #
edge $-1 $41 0 $94 0.25 $69 $127 forward 7 unknown #
point $-1 5.5 5 0 #
point $-1 0 5 0 #
face $-1 $128 $71 $3 $-1 $129 forward single #
loop $-1 $-1 $117 $44 #
plane-surface $-1 6 0 0 1 0 0 0 1 0 forward_v I I I I #
coedge $-1 $130 $115 $118 $131 forward $45 $-1 #
coedge $-1 $49 $47 $132 $133 reversed $24 $-1 #
coedge $-1 $115 $130 $47 $87 reversed $45 $-1 #
edge $-1 $124 0 $134 0.25 $47 $135 forward 7 unknown #
coedge $-1 $132 $51 $48 $89 forward $93 $-1 #
edge $-1 $53 0 $90 1 $88 $136 forward 7 unknown #
vertex $-1 $89 $137 #
straight-curve $-1 0 4 0 0 0 1 I I #
coedge $-1 $51 $138 $121 $139 forward $93 $-1 #
loop $-1 $140 $132 $128 #
vertex $-1 $52 $141 #
straight-curve $-1 5.5 5 0.25 -1 0 0 I I #
point $-1 0 5 0.25 #
coedge $-1 $142 $143 $55 $98 forward $144 $-1 #
edge $-1 $103 0 $102 3.1415926535897931 $55 $145 forward 7 unknown #
coedge $-1 $146 $56 $143 $147 reversed $101 $-1 #
coedge $-1 $56 $146 $142 $148 forward $101 $-1 #
loop $-1 $-1 $99 $149 #
vertex $-1 $98 $150 #
vertex $-1 $98 $151 #
ellipse-curve $-1 1 4.5 0 0 0 -1 0.125 0 0 1 I I #
coedge $-1 $152 $58 $61 $111 reversed $107 $-1 #
coedge $-1 $58 $152 $60 $110 forward $107 $-1 #
loop $-1 $-1 $105 $153 #
ellipse-curve $-1 5 1.0000000000000002 0 0 0 -1 -0.125 -2.2204460492503131e-016 0 1 I I #
coedge $-1 $61 $60 $154 $155 reversed $62 $-1 #
edge $-1 $156 0 $64 0.25 $106 $157 forward 7 unknown #
edge $-1 $158 0 $63 0.25 $105 $159 forward 7 unknown #
face $-1 $153 $62 $3 $-1 $160 reversed single #
point $-1 5.125 1 0 #
point $-1 4.875 1 0 #
coedge $-1 $84 $86 $66 $116 forward $45 $-1 #
edge $-1 $124 0 $119 2 $66 $161 forward 7 unknown #
coedge $-1 $162 $67 $70 $122 forward $82 $-1 #
coedge $-1 $67 $162 $84 $131 reversed $82 $-1 #
vertex $-1 $116 $163 #
straight-curve $-1 6 0 0 0 1 0 I I #
coedge $-1 $70 $69 $92 $139 reversed $71 $-1 #
edge $-1 $72 0 $164 0.25 $117 $165 forward 7 unknown #
point $-1 6 4.5 0 #
vertex $-1 $75 $166 #
straight-curve $-1 0 4 0 0.70710678118654746 -0.70710678118654746 0 I I #
point $-1 0 4 0 #
straight-curve $-1 5.5 5 0 0 0 1 I I #
face $-1 $112 $93 $3 $-1 $167 forward single #
cone-surface $-1 5.5 4.5 0 0 0 1 0.5 0 0 1 I I 0 1 0.5 forward I I I I #
coedge $-1 $86 $84 $168 $169 reversed $45 $-1 #
edge $-1 $119 0 $170 0.25 $84 $171 forward 7 unknown #
coedge $-1 $168 $88 $85 $133 forward $93 $-1 #
edge $-1 $90 0 $134 5.6568542494923815 $132 $172 forward 7 unknown #
vertex $-1 $169 $173 #
straight-curve $-1 4 0 0 0 0 1 I I #
straight-curve $-1 0 5 0.25 0 -1 0 I I #
point $-1 0 4 0.25 #
coedge $-1 $92 $168 $162 $174 forward $93 $-1 #
edge $-1 $164 0 $94 1.5707963267948966 $92 $175 forward 7 unknown #
loop $-1 $176 $154 $128 #
point $-1 5.5 5 0.25 #
coedge $-1 $177 $97 $100 $148 reversed $144 $-1 #
coedge $-1 $97 $177 $99 $147 forward $144 $-1 #
loop $-1 $-1 $142 $178 #
ellipse-curve $-1 1 4.5 0 0 0 -1 -0.125 0 0 1 I I #
coedge $-1 $100 $99 $179 $180 reversed $101 $-1 #
edge $-1 $181 0 $103 0.25 $143 $182 forward 7 unknown #
edge $-1 $183 0 $102 0.25 $142 $184 forward 7 unknown #
face $-1 $178 $101 $3 $-1 $185 reversed single #
point $-1 1.125 4.5 0 #
point $-1 0.875 4.5 0 #
coedge $-1 $106 $105 $186 $187 reversed $107 $-1 #
face $-1 $149 $107 $3 $-1 $188 reversed single #
coedge $-1 $186 $186 $109 $155 forward $140 $-1 #
edge $-1 $158 0 $156 3.1415926535897931 $154 $189 forward 7 unknown #
vertex $-1 $187 $190 #
straight-curve $-1 4.875 1 0.25 0 0 -1 I I #
vertex $-1 $187 $191 #
straight-curve $-1 5.125 1 0.25 0 0 -1 I I #
cone-surface $-1 5 1 0.25 0 0 -1 -0.125 0 0 1 I I 0 1 0.125 forward I I I I #
straight-curve $-1 4 0 0 1 0 0 I I #
coedge $-1 $118 $117 $138 $174 reversed $82 $-1 #
point $-1 6 0 0 #
vertex $-1 $139 $192 #
straight-curve $-1 6 4.5 0 0 0 1 I I #
point $-1 4 0 0 #
plane-surface $-1 0 0 0.25 0 0 1 1 0 0 forward_v I I I I #
coedge $-1 $138 $132 $130 $169 forward $93 $-1 #
edge $-1 $134 0 $170 2 $168 $193 forward 7 unknown #
vertex $-1 $174 $194 #
straight-curve $-1 6 0 0 0 0 1 I I #
straight-curve $-1 0 4 0.25 0.70710678118654746 -0.70710678118654746 0 I I #
point $-1 4 0 0.25 #
edge $-1 $170 0 $164 4.5 $138 $195 forward 7 unknown #
ellipse-curve $-1 5.5 4.5 0.25 0 0 1 0.5 0 0 1 I I #
loop $-1 $-1 $179 $128 #
coedge $-1 $143 $142 $196 $197 reversed $144 $-1 #
face $-1 $-1 $144 $3 $-1 $198 reversed single #
coedge $-1 $196 $196 $146 $180 forward $176 $-1 #
edge $-1 $183 0 $181 3.1415926535897931 $179 $199 forward 7 unknown #
vertex $-1 $197 $200 #
straight-curve $-1 0.875 4.5 0.25 0 0 -1 I I #
vertex $-1 $197 $201 #
straight-curve $-1 1.125 4.5 0.25 0 0 -1 I I #
cone-surface $-1 1 4.5 0.25 0 0 -1 -0.125 0 0 1 I I 0 1 0.125 forward I I I I #
coedge $-1 $154 $154 $152 $187 forward $140 $-1 #
edge $-1 $156 0 $158 3.1415926535897931 $186 $202 forward 7 unknown #
cone-surface $-1 5 1 0.25 0 0 -1 -0.125 0 0 1 I I 0 1 0.125 forward I I I I #
ellipse-curve $-1 5 1 0.25 0 0 -1 0.125 0 0 1 I I #
point $-1 4.875 1 0.25 #
point $-1 5.125 1 0.25 #
point $-1 6 4.5 0.25 #
straight-curve $-1 4 0 0.25 1 0 0 I I #
point $-1 6 0 0.25 #
straight-curve $-1 6 0 0.25 0 1 0 I I #
coedge $-1 $179 $179 $177 $197 forward $176 $-1 #
edge $-1 $181 0 $183 3.1415926535897931 $196 $203 forward 7 unknown #
cone-surface $-1 1 4.5 0.25 0 0 -1 -0.125 0 0 1 I I 0 1 0.125 forward I I I I #
ellipse-curve $-1 1 4.5 0.25 0 0 -1 0.125 0 0 1 I I #
point $-1 0.875 4.5 0.25 #
point $-1 1.125 4.5 0.25 #
ellipse-curve $-1 5 1 0.25 0 0 -1 -0.125 0 0 1 I I #
ellipse-curve $-1 1 4.5 0.25 0 0 -1 -0.125 0 0 1 I I #
End-of-ACIS-data 