600 0 1 0           
92 GICL Pro/E ACIS Translator - Source: f:/data5/repository/PTC/V18/lrgasm18/duct_3.prt.2 - 6 0 13 ACIS 6.0.3 NT 24 Thu Apr 04 13:34:41 2002 
1 9.9999999999999995e-007 1e-010 
body $-1 $1 $-1 $2 #
lump $-1 $-1 $3 $0 #
transform $-1 1 0 0 0 1 0 0 0 1 0 0 0 25.399999999999999 no_rotate no_reflect no_shear #
shell $-1 $-1 $-1 $4 $-1 $1 #
face $-1 $5 $6 $3 $-1 $7 reversed single #
face $-1 $8 $9 $3 $-1 $10 forward single #
loop $-1 $11 $12 $4 #
plane-surface $-1 -29 66.25 30 -1 0 0 0 -1 0 forward_v I I I I #
face $-1 $13 $14 $3 $-1 $15 forward single #
loop $-1 $-1 $16 $5 #
cone-surface $-1 -29 66.25 30 -1 0 0 0 -4.25 0 1 I I 0 1 4.25 forward I I I I #
loop $-1 $-1 $17 $4 #
coedge $-1 $18 $18 $19 $20 reversed $6 $-1 #
face $-1 $21 $22 $3 $-1 $23 forward single #
loop $-1 $-1 $24 $8 #
cone-surface $-1 -29 66.25 30 -1 0 0 0 -4.25 0 1 I I 0 1 4.25 forward I I I I #
coedge $-1 $25 $19 $26 $27 forward $9 $-1 #
coedge $-1 $28 $28 $29 $30 reversed $11 $-1 #
coedge $-1 $12 $12 $31 $32 reversed $6 $-1 #
coedge $-1 $16 $33 $12 $20 forward $9 $-1 #
edge $-1 $34 0 $35 3.1415926535897931 $12 $36 forward 7 unknown #
face $-1 $37 $38 $3 $-1 $39 forward single #
loop $-1 $-1 $40 $13 #
cone-surface $-1 -39.789999999999992 66.25 30 -0.48348610705091383 0 -0.87535203449169663 0 -4.25 0 1 I I 0 1 4.25 forward I I I I #
coedge $-1 $41 $31 $33 $42 forward $14 $-1 #
coedge $-1 $33 $16 $43 $44 reversed $9 $-1 #
coedge $-1 $31 $41 $16 $27 reversed $14 $-1 #
edge $-1 $35 0 $45 10.789999999999992 $26 $46 forward 7 unknown #
coedge $-1 $17 $17 $47 $48 reversed $11 $-1 #
coedge $-1 $49 $50 $17 $30 forward $51 $-1 #
edge $-1 $52 0 $53 3.1415926535897931 $17 $54 forward 7 unknown #
coedge $-1 $24 $26 $18 $32 forward $14 $-1 #
edge $-1 $35 0 $34 3.1415926535897931 $18 $55 forward 7 unknown #
coedge $-1 $19 $25 $24 $42 reversed $9 $-1 #
vertex $-1 $32 $56 #
vertex $-1 $32 $57 #
ellipse-curve $-1 -29 66.25 30 -1 0 0 0 4.25 0 1 I I #
face $-1 $58 $59 $3 $-1 $60 forward single #
loop $-1 $-1 $61 $21 #
cone-surface $-1 -39.789999999999992 66.25 30 -0.48348610705091383 0 -0.87535203449169663 0 -4.25 0 1 I I 0 1 4.25 forward I I I I #
coedge $-1 $62 $63 $64 $65 forward $22 $-1 #
coedge $-1 $26 $24 $63 $66 reversed $14 $-1 #
edge $-1 $34 0 $67 10.789999999999992 $24 $68 forward 7 unknown #
coedge $-1 $61 $64 $25 $44 forward $38 $-1 #
edge $-1 $67 0 $45 1 $25 $69 forward 7 unknown #
vertex $-1 $27 $70 #
straight-curve $-1 -29 62 30 -1 0 0 I I #
coedge $-1 $71 $72 $28 $48 forward $73 $-1 #
edge $-1 $53 0 $52 3.1415926535897931 $28 $74 forward 7 unknown #
coedge $-1 $75 $29 $72 $76 forward $51 $-1 #
coedge $-1 $29 $75 $71 $77 reversed $51 $-1 #
loop $-1 $-1 $49 $78 #
vertex $-1 $48 $79 #
vertex $-1 $48 $80 #
ellipse-curve $-1 -29 66.25 30 1 0 0 0 4 0 1 I I #
ellipse-curve $-1 -29 66.25 30 -1 0 0 0 -4.25 0 1 I I #
point $-1 -29 70.5 30 #
point $-1 -29 62 30 #
face $-1 $81 $82 $3 $-1 $83 forward single #
loop $-1 $-1 $84 $37 #
cone-surface $-1 -56.359999999999999 66.25 0 -1 0 0 0 -4.25 0 1 I I 0 1 4.25 forward I I I I #
coedge $-1 $85 $43 $86 $87 forward $38 $-1 #
coedge $-1 $86 $40 $88 $89 reversed $22 $-1 #
coedge $-1 $40 $86 $41 $66 forward $22 $-1 #
coedge $-1 $43 $85 $40 $65 reversed $38 $-1 #
edge $-1 $67 0 $90 34.271925828584543 $40 $91 forward 7 unknown #
edge $-1 $45 0 $67 1 $41 $92 forward 7 unknown #
vertex $-1 $66 $93 #
straight-curve $-1 -29 70.5 30 -1 0 0 I I #
intcurve-curve $-1 forward { surfintcur full nurbs 3 open 18 
	0 3 0.059357185176251687 1 0.11862108290422556 1 0.17774294669104668 1 0.23667768919931415 1 
	0.29541626883346578 1 0.35399732302365028 1 0.41244972607296215 1 0.47081682565725891 1 0.5291831743427412 1 
	0.58755027392703796 1 0.64600267697634983 1 0.70458373116653439 1 0.76332231080068602 1 0.82225705330895338 1 
	0.88137891709577443 1 0.94064281482374823 1 1 3 
	-39.789999999999992 70.5 30 1 
	-39.619032990898802 70.498701994673283 29.71025693347142 1 
	-39.287089329796508 70.442726706810703 29.147701766903694 1 
	-38.809728959368009 70.191576449066304 28.338704415342654 1 
	-38.380590646356545 69.796673743122071 27.611430472664875 0.99999999999999978 
	-38.014529717312094 69.285715452075678 26.991055719224207 1.0000000000000002 
	-37.720773846978993 68.691210820060988 26.493218580184628 0.99999999999999978 
	-37.499236988114525 68.032773248377779 26.117773228628469 1.0000000000000002 
	-37.352482359705611 67.333968437658783 25.86906363087623 0.99999999999999978 
	-37.279299746470898 66.618722696628396 25.745038797742172 1 
	-37.279299746470898 65.881277303371604 25.745038797742161 1.0000000000000002 
	-37.352482359705618 65.166031562341232 25.869063630876244 0.99999999999999978 
	-37.499236988114525 64.467226751622221 26.117773228628465 1 
	-37.720773846978993 63.808789179938991 26.493218580184635 1 
	-38.014529717312101 63.214284547924315 26.991055719224217 1 
	-38.380590646356538 62.703326256877958 27.611430472664875 1.0000000000000002 
	-38.809728959368016 62.308423550933675 28.338704415342669 0.99999999999999978 
	-39.287089329796501 62.057273293189304 29.147701766903687 0.99999999999999989 
	-39.619032990898809 62.00129800532671 29.710256933471427 1 
	-39.789999999999992 62 30 1 
	0.001 
	cone -29 66.25 30 -1 0 0 0 -4.25 0 1 I I 0 1 4.25 forward I I I I 
	cone -39.789999999999992 66.25 30 -0.48348610705091383 0 -0.87535203449169663 0 -4.25 0 1 I I 0 1 4.25 forward I I I I 
	nullbs 
	nullbs 
	F 5.8811533305738148e-008 F 0.99999994118846669 
	0 
	2 5.8811533305738148e-008 0.99999994118846669 
	0 
	} I I #
point $-1 -39.789999999999992 62 30 #
coedge $-1 $94 $47 $50 $77 forward $73 $-1 #
coedge $-1 $47 $94 $49 $76 reversed $73 $-1 #
loop $-1 $-1 $71 $95 #
ellipse-curve $-1 -29 66.25 30 1 0 0 0 -4 0 1 I I #
coedge $-1 $50 $49 $96 $97 reversed $51 $-1 #
edge $-1 $53 0 $98 10.789999999999992 $72 $99 forward 7 unknown #
edge $-1 $52 0 $100 10.789999999999992 $71 $101 forward 7 unknown #
face $-1 $95 $51 $3 $-1 $102 reversed single #
point $-1 -29 70.25 30 #
point $-1 -29 62.25 30 #
face $-1 $103 $104 $3 $-1 $105 forward single #
loop $-1 $-1 $106 $58 #
cone-surface $-1 -56.359999999999999 66.25 0 -1 0 0 0 -4.25 0 1 I I 0 1 4.25 forward I I I I #
coedge $-1 $107 $108 $109 $110 forward $59 $-1 #
coedge $-1 $64 $61 $108 $111 reversed $38 $-1 #
coedge $-1 $63 $62 $61 $87 reversed $22 $-1 #
edge $-1 $45 0 $112 34.271925828584543 $86 $113 forward 7 unknown #
coedge $-1 $106 $109 $62 $89 forward $82 $-1 #
edge $-1 $112 0 $90 1 $62 $114 forward 7 unknown #
vertex $-1 $89 $115 #
straight-curve $-1 -39.789999999999992 70.5 30 -0.48348610705091383 0 -0.87535203449169663 I I #
intcurve-curve $-1 forward { surfintcur full nurbs 3 open 18 
	0 3 0.059357185176251666 1 0.11862108290422552 1 0.17774294669104659 1 0.23667768919931406 1 
	0.29541626883346572 1 0.35399732302365017 1 0.41244972607296199 1 0.47081682565725874 1 0.52918317434274098 1 
	0.58755027392703774 1 0.64600267697634961 1 0.70458373116653406 1 0.7633223108006858 1 0.82225705330895316 1 
	0.88137891709577432 1 0.94064281482374823 1 1 3 
	-39.789999999999992 62 30 1 
	-39.960967009101168 62.001298005326703 30.289743066528573 1 
	-40.292910670203469 62.057273293189311 30.852298233096302 1 
	-40.770271040631968 62.308423550933675 31.661295584657331 1 
	-41.199409353643453 62.703326256877943 32.388569527335136 0.99999999999999978 
	-41.565470282687869 63.214284547924315 33.008944280775779 1.0000000000000002 
	-41.859226153020991 63.808789179938998 33.506781419815376 0.99999999999999978 
	-42.080763011885452 64.467226751622206 33.882226771371528 1.0000000000000002 
	-42.227517640294373 65.166031562341203 34.130936369123766 0.99999999999999978 
	-42.300700253529087 65.881277303371618 34.254961202257839 1 
	-42.300700253529087 66.618722696628396 34.254961202257839 1.0000000000000002 
	-42.227517640294373 67.333968437658783 34.130936369123766 1 
	-42.080763011885452 68.032773248377808 33.882226771371542 0.99999999999999989 
	-41.859226153020984 68.691210820060974 33.506781419815368 1.0000000000000004 
	-41.565470282687876 69.285715452075706 33.008944280775793 1 
	-41.199409353643453 69.796673743122057 32.388569527335136 1 
	-40.770271040631961 70.191576449066318 31.661295584657324 1.0000000000000002 
	-40.292910670203476 70.442726706810703 30.852298233096306 0.99999999999999978 
	-39.960967009101182 70.498701994673283 30.289743066528576 1 
	-39.789999999999992 70.5 30 1 
	0.001 
	cone -39.789999999999992 66.25 30 -0.48348610705091383 0 -0.87535203449169663 0 -4.25 0 1 I I 0 1 4.25 forward I I I I 
	cone -29 66.25 30 -1 0 0 0 -4.25 0 1 I I 0 1 4.25 forward I I I I 
	nullbs 
	nullbs 
	F 5.8811533305740471e-008 F 0.99999994118846669 
	0 
	2 5.8811533305740471e-008 0.99999994118846669 
	0 
	} I I #
point $-1 -39.789999999999992 70.5 30 #
coedge $-1 $72 $71 $116 $117 reversed $73 $-1 #
face $-1 $-1 $73 $3 $-1 $118 reversed single #
coedge $-1 $119 $120 $75 $97 forward $121 $-1 #
edge $-1 $100 0 $98 1 $75 $122 forward 7 unknown #
vertex $-1 $76 $123 #
straight-curve $-1 -29 62.25 30 -1 0 0 I I #
vertex $-1 $117 $124 #
straight-curve $-1 -29 70.25 30 -1 0 0 I I #
cone-surface $-1 -29 66.25 30 -1 0 0 0 -4 0 1 I I 0 1 4 forward I I I I #
face $-1 $125 $126 $3 $-1 $127 forward single #
loop $-1 $-1 $128 $81 #
cone-surface $-1 -67 66.25 0 0 -1 0 4.25 0 0 1 I I 0 1 4.25 forward I I I I #
coedge $-1 $129 $88 $130 $131 forward $82 $-1 #
coedge $-1 $132 $84 $133 $134 reversed $59 $-1 #
coedge $-1 $84 $130 $85 $111 forward $59 $-1 #
coedge $-1 $88 $135 $84 $110 reversed $82 $-1 #
edge $-1 $112 0 $136 6.3900000000000006 $109 $137 forward 7 unknown #
edge $-1 $90 0 $112 1 $85 $138 forward 7 unknown #
vertex $-1 $87 $139 #
straight-curve $-1 -39.789999999999992 62 30 -0.48348610705091383 0 -0.87535203449169663 I I #
intcurve-curve $-1 forward { surfintcur full nurbs 3 open 18 
	0 3 0.059357185176251687 1 0.11862108290422554 1 0.17774294669104662 1 0.23667768919931412 1 
	0.29541626883346572 1 0.35399732302365017 1 0.41244972607296204 1 0.4708168256572588 1 0.52918317434274098 1 
	0.58755027392703774 1 0.64600267697634972 1 0.70458373116653417 1 0.76332231080068591 1 0.82225705330895327 1 
	0.88137891709577443 1 0.94064281482374823 1 1 3 
	-56.359999999999999 62 0 1 
	-56.530967009101182 62.001298005326717 0.28974306652857923 0.99999999999999989 
	-56.86291067020349 62.057273293189304 0.85229823309631247 0.99999999999999978 
	-57.340271040631968 62.308423550933675 1.6612955846573383 1 
	-57.769409353643461 62.703326256877929 2.3885695273351328 0.99999999999999978 
	-58.135470282687876 63.214284547924315 3.0089442807757845 1.0000000000000002 
	-58.429226153021013 63.808789179938998 3.5067814198153724 0.99999999999999978 
	-58.650763011885459 64.467226751622206 3.8822267713715291 1.0000000000000002 
	-58.79751764029438 65.166031562341203 4.1309363691237699 0.99999999999999978 
	-58.870700253529115 65.881277303371618 4.2549612022578307 1 
	-58.870700253529087 66.618722696628396 4.2549612022578307 1.0000000000000002 
	-58.79751764029438 67.333968437658783 4.1309363691237682 1 
	-58.650763011885466 68.032773248377808 3.8822267713715295 0.99999999999999989 
	-58.429226153020991 68.691210820060974 3.5067814198153715 1.0000000000000004 
	-58.135470282687891 69.285715452075706 3.0089442807757809 1 
	-57.769409353643461 69.796673743122071 2.3885695273351315 1 
	-57.340271040631961 70.191576449066318 1.6612955846573303 1 
	-56.862910670203497 70.442726706810717 0.8522982330963137 0.99999999999999989 
	-56.53096700910119 70.498701994673283 0.28974306652858017 1 
	-56.359999999999999 70.5 5.2045770037451033e-016 1 
	0.001 
	cone -39.789999999999992 66.25 30 -0.48348610705091383 0 -0.87535203449169663 0 -4.25 0 1 I I 0 1 4.25 forward I I I I 
	cone -56.359999999999999 66.25 0 -1 0 0 0 -4.25 0 1 I I 0 1 4.25 forward I I I I 
	nullbs 
	nullbs 
	F 5.8811533305738922e-008 F 0.99999994118846669 
	0 
	2 5.8811533305738922e-008 0.99999994118846669 
	0 
	} I I #
point $-1 -56.359999999999999 70.5 5.2045770037451033e-016 #
coedge $-1 $140 $141 $94 $117 forward $142 $-1 #
edge $-1 $98 0 $100 1 $94 $143 forward 7 unknown #
cone-surface $-1 -29 66.25 30 -1 0 0 0 -4 0 1 I I 0 1 4 forward I I I I #
coedge $-1 $144 $96 $141 $145 forward $121 $-1 #
coedge $-1 $96 $144 $140 $146 reversed $121 $-1 #
loop $-1 $-1 $119 $147 #
intcurve-curve $-1 forward { surfintcur full nurbs 3 open 17 
	0 3 0.063091475558801458 1 0.12606057957728578 1 0.18886241880352142 1 0.2514305026123867 1 
	0.31378919463698873 1 0.37595112891343624 1 0.43802101007026562 1 0.5 1 0.56197898992973438 1 
	0.62404887108656382 1 0.68621080536301127 1 0.74856949738761336 1 0.81113758119647861 1 0.87393942042271422 1 
	0.93690852444119865 1 1 3 
	-39.789999999999992 70.25 30 1 
	-39.961107528251006 70.248399793477702 30.289981208668358 1 
	-40.292117015466978 70.189156020156986 30.850953201921424 0.99999999999999978 
	-40.764249653260741 69.925041399778962 31.651090953653579 1 
	-41.185223751493474 69.509838432218473 32.364528749590377 1.0000000000000002 
	-41.534772673924181 68.981549676335604 32.956920095846499 0.99999999999999989 
	-41.810563827579195 68.362972573924296 33.424311875123415 1 
	-42.005256766766486 67.695633230843157 33.754264007573752 0.99999999999999989 
	-42.124728379772428 66.975586960348338 33.9567362371427 1.0000000000000002 
	-42.163011623438585 66.25 34.021616031641145 0.99999999999999967 
	-42.124728379772421 65.524413039651677 33.956736237142707 0.99999999999999978 
	-42.005256766766486 64.804366769156843 33.754264007573738 1.0000000000000002 
	-41.810563827579188 64.137027426075704 33.424311875123408 1 
	-41.534772673924181 63.518450323664418 32.956920095846506 1 
	-41.185223751493474 62.99016156778152 32.364528749590384 1 
	-40.764249653260741 62.574958600221045 31.651090953653579 0.99999999999999978 
	-40.292117015466964 62.310843979842993 30.850953201921421 1.0000000000000002 
	-39.961107528251013 62.251600206522312 30.289981208668358 1 
	-39.789999999999992 62.25 30 1 
	0.001 
	cone -29 66.25 30 -1 0 0 0 -4 0 1 I I 0 1 4 forward I I I I 
	cone -39.789999999999992 66.25 30 -0.48348610705091377 0 -0.87535203449169663 0 -4 0 1 I I 0 1 4 forward I I I I 
	nullbs 
	nullbs 
	F 6.2459918524671066e-008 F 0.99999993754008143 
	0 
	2 6.2459918524671066e-008 0.99999993754008143 
	0 
	} I I #
point $-1 -39.789999999999992 62.25 30 #
point $-1 -39.789999999999992 70.25 30 #
face $-1 $148 $149 $3 $-1 $150 forward single #
loop $-1 $-1 $133 $103 #
cone-surface $-1 -67 66.25 0 0 -1 0 4.25 0 0 1 I I 0 1 4.25 forward I I I I #
coedge $-1 $151 $152 $129 $153 forward $104 $-1 #
coedge $-1 $135 $106 $128 $153 reversed $82 $-1 #
coedge $-1 $108 $132 $106 $131 reversed $59 $-1 #
edge $-1 $90 0 $154 14.890000000000001 $106 $155 forward 7 unknown #
coedge $-1 $130 $107 $156 $157 reversed $59 $-1 #
coedge $-1 $158 $156 $107 $134 forward $126 $-1 #
edge $-1 $159 0 $136 1 $107 $160 forward 7 unknown #
coedge $-1 $109 $129 $152 $161 reversed $82 $-1 #
vertex $-1 $110 $162 #
straight-curve $-1 -56.359999999999999 62 0 -1 0 0 I I #
intcurve-curve $-1 forward { surfintcur full nurbs 3 open 18 
	0 3 0.05935718517625168 1 0.11862108290422549 1 0.17774294669104659 1 0.23667768919931406 1 
	0.29541626883346572 1 0.35399732302365017 1 0.41244972607296199 1 0.47081682565725874 1 0.52918317434274098 1 
	0.58755027392703774 1 0.64600267697634961 1 0.70458373116653406 1 0.76332231080068569 1 0.82225705330895305 1 
	0.88137891709577432 1 0.94064281482374823 1 1 3 
	-56.359999999999999 70.5 5.2045770037451033e-016 1 
	-56.189032990898824 70.498701994673297 -0.28974306652857951 1 
	-55.857089329796537 70.442726706810717 -0.85229823309631392 0.99999999999999978 
	-55.37972895936803 70.191576449066318 -1.6612955846573281 0.99999999999999978 
	-54.950590646356545 69.796673743122071 -2.3885695273351333 0.99999999999999978 
	-54.584529717312101 69.285715452075678 -3.0089442807757822 1.0000000000000002 
	-54.290773846979 68.691210820060988 -3.5067814198153737 0.99999999999999978 
	-54.069236988114518 68.032773248377779 -3.8822267713715277 1.0000000000000002 
	-53.922482359705633 67.333968437658783 -4.1309363691237699 0.99999999999999978 
	-53.849299746470898 66.618722696628396 -4.2549612022578307 1 
	-53.849299746470891 65.881277303371604 -4.2549612022578307 1.0000000000000002 
	-53.92248235970564 65.166031562341232 -4.1309363691237699 0.99999999999999978 
	-54.069236988114525 64.467226751622221 -3.8822267713715304 1 
	-54.290773846978993 63.808789179939005 -3.5067814198153706 1 
	-54.584529717312101 63.214284547924315 -3.0089442807757858 1.0000000000000002 
	-54.950590646356531 62.703326256877943 -2.3885695273351355 1 
	-55.37972895936803 62.308423550933675 -1.6612955846573434 1 
	-55.857089329796516 62.05727329318929 -0.85229823309630992 0.99999999999999978 
	-56.189032990898824 62.001298005326717 -0.28974306652857851 1 
	-56.359999999999999 62 -1.0409154007490207e-015 1 
	0.001 
	cone -56.359999999999999 66.25 0 -1 0 0 0 -4.25 0 1 I I 0 1 4.25 forward I I I I 
	cone -39.789999999999992 66.25 30 -0.48348610705091383 0 -0.87535203449169663 0 -4.25 0 1 I I 0 1 4.25 forward I I I I 
	nullbs 
	nullbs 
	F 5.8811533305739352e-008 F 0.99999994118846669 
	0 
	2 5.8811533305739352e-008 0.99999994118846669 
	0 
	} I I #
point $-1 -56.359999999999999 62 0 #
coedge $-1 $163 $116 $120 $146 forward $142 $-1 #
coedge $-1 $116 $163 $119 $145 reversed $142 $-1 #
loop $-1 $-1 $140 $164 #
intcurve-curve $-1 forward { surfintcur full nurbs 3 open 17 
	0 3 0.063091475558801444 1 0.12606057957728578 1 0.18886241880352145 1 0.2514305026123867 1 
	0.31378919463698873 1 0.37595112891343624 1 0.43802101007026567 1 0.50000000000000011 1 0.5619789899297345 1 
	0.62404887108656382 1 0.68621080536301138 1 0.74856949738761336 1 0.81113758119647861 1 0.87393942042271422 1 
	0.93690852444119843 1 1 3 
	-39.789999999999992 62.25 30 1 
	-39.618892471748978 62.251600206522305 29.710018791331645 0.99999999999999989 
	-39.287882984533013 62.310843979843 29.149046798078576 1.0000000000000002 
	-38.815750346739236 62.574958600221045 28.34890904634641 1 
	-38.39477624850651 62.990161567781513 27.635471250409623 1 
	-38.045227326075803 63.51845032366441 27.043079904153508 1 
	-37.769436172420797 64.137027426075704 26.575688124876581 1.0000000000000002 
	-37.574743233233491 64.804366769156843 26.245735992426258 1 
	-37.455271620227563 65.524413039651648 26.043263762857304 1 
	-37.416988376561399 66.250000000000014 25.978383968358855 1 
	-37.45527162022757 66.975586960348323 26.043263762857304 0.99999999999999978 
	-37.574743233233498 67.695633230843143 26.245735992426251 1.0000000000000002 
	-37.769436172420789 68.362972573924296 26.575688124876589 1 
	-38.045227326075803 68.981549676335604 27.043079904153512 1 
	-38.39477624850651 69.509838432218487 27.635471250409612 0.99999999999999989 
	-38.815750346739243 69.925041399778962 28.348909046346414 1.0000000000000002 
	-39.287882984533006 70.189156020156986 29.149046798078579 0.99999999999999978 
	-39.618892471748978 70.248399793477688 29.710018791331642 1 
	-39.789999999999992 70.25 30 1 
	0.001 
	cone -39.789999999999992 66.25 30 -0.48348610705091377 0 -0.87535203449169663 0 -4 0 1 I I 0 1 4 forward I I I I 
	cone -29 66.25 30 -1 0 0 0 -4 0 1 I I 0 1 4 forward I I I I 
	nullbs 
	nullbs 
	F 6.2459918524671317e-008 F 0.99999993754008143 
	0 
	2 6.2459918524671317e-008 0.99999993754008143 
	0 
	} I I #
coedge $-1 $120 $119 $165 $166 reversed $121 $-1 #
edge $-1 $98 0 $167 34.271925828584543 $141 $168 forward 7 unknown #
edge $-1 $100 0 $169 34.271925828584543 $140 $170 forward 7 unknown #
face $-1 $78 $121 $3 $-1 $171 reversed single #
face $-1 $172 $173 $3 $-1 $174 reversed single #
loop $-1 $175 $176 $125 #
plane-surface $-1 -67 43.25 0 0 -1 0 1 0 0 forward_v I I I I #
coedge $-1 $177 $128 $178 $179 forward $104 $-1 #
coedge $-1 $128 $180 $135 $161 forward $104 $-1 #
edge $-1 $181 0 $154 1 $129 $182 forward 7 unknown #
vertex $-1 $153 $183 #
straight-curve $-1 -56.359999999999999 70.5 5.2045770037451033e-016 -1 0 0 I I #
coedge $-1 $133 $178 $132 $157 forward $126 $-1 #
edge $-1 $154 0 $159 1 $132 $184 forward 7 unknown #
coedge $-1 $185 $133 $180 $186 forward $126 $-1 #
vertex $-1 $157 $187 #
intcurve-curve $-1 forward { surfintcur full nurbs 3 open 10 
	0 3 0.11568349063545667 1 0.23054773760943009 1 0.34406081865241228 1 0.45604879147809713 1 
	0.56660827032351735 1 0.6759982897771899 1 0.78445400546086985 1 0.89239714473894183 1 1 3 
	-67.000000000000014 66.25 -4.25 1 
	-66.691032858197175 65.941032858197147 -4.2477731567994752 0.99999999999999989 
	-66.097912805653266 65.347912805653209 -4.1858500057601198 1 
	-65.257609190536201 64.507609190536243 -3.9079863067619005 1.0000000000000002 
	-64.536426691956834 63.786426691956798 -3.4940496500010627 0.99999999999999989 
	-63.946216341091542 63.196216341091521 -2.9872119040857323 1 
	-63.487390197965119 62.737390197965127 -2.4266930742656432 0.99999999999999978 
	-63.14659481007925 62.396594810079243 -1.8326805821873795 1.0000000000000004 
	-62.915965415229195 62.165965415229202 -1.23221594584462 1 
	-62.779258516078876 62.02925851607889 -0.61300598202574863 0.99999999999999978 
	-62.749553823848757 61.999553823848757 -0.20454520675231286 1.0000000000000002 
	-62.75 62 -1.0409154007490207e-015 1 
	0.001 
	cone -56.359999999999999 66.25 0 -1 0 0 0 -4.25 0 1 I I 0 1 4.25 forward I I I I 
	cone -67 66.25 0 0 -1 0 4.25 0 0 1 I I 0 1 4.25 forward I I I I 
	nullbs 
	nullbs 
	F 8.8250504496486034e-008 I 
	0 
	1 8.8250504496486034e-008 
	0 
	} I I #
edge $-1 $136 0 $181 1 $135 $188 forward 7 unknown #
point $-1 -62.75 62 0 #
coedge $-1 $141 $140 $189 $190 reversed $142 $-1 #
face $-1 $147 $142 $3 $-1 $191 reversed single #
coedge $-1 $192 $193 $144 $166 forward $194 $-1 #
edge $-1 $169 0 $167 1 $144 $195 forward 7 unknown #
vertex $-1 $145 $196 #
straight-curve $-1 -39.789999999999992 62.25 30 -0.48348610705091383 0 -0.87535203449169663 I I #
vertex $-1 $190 $197 #
straight-curve $-1 -39.789999999999992 70.25 30 -0.48348610705091383 0 -0.87535203449169663 I I #
cone-surface $-1 -39.789999999999992 66.25 30 -0.48348610705091377 0 -0.87535203449169663 0 -4 0 1 I I 0 1 4 forward I I I I #
face $-1 $198 $194 $3 $-1 $199 reversed single #
loop $-1 $-1 $200 $148 #
cone-surface $-1 -67 66.25 0 0 -1 0 4 0 0 1 I I 0 1 4 forward I I I I #
loop $-1 $-1 $201 $125 #
coedge $-1 $202 $202 $185 $203 forward $149 $-1 #
coedge $-1 $180 $151 $202 $204 reversed $104 $-1 #
coedge $-1 $156 $185 $151 $179 reversed $126 $-1 #
edge $-1 $154 0 $205 27.25 $151 $206 forward 7 unknown #
coedge $-1 $152 $177 $158 $186 reversed $104 $-1 #
vertex $-1 $161 $207 #
intcurve-curve $-1 forward { surfintcur full nurbs 3 open 10 
	0 3 0.11568349063545669 1 0.23054773760942984 1 0.34406081865241234 1 0.45604879147809696 1 
	0.56660827032351735 1 0.67599828977718979 1 0.78445400546086974 1 0.89239714473894172 1 1 3 
	-67 66.25 4.25 1 
	-67.308967141802881 66.558967141802881 4.2477731567994708 0.99999999999999989 
	-67.902087194346777 67.152087194346748 4.1858500057601109 1.0000000000000002 
	-68.742390809463728 67.992390809463743 3.9079863067619036 1.0000000000000002 
	-69.463573308043237 68.713573308043237 3.4940496500010574 0.99999999999999989 
	-70.053783658908458 69.303783658908458 2.9872119040857386 0.99999999999999978 
	-70.512609802034888 69.762609802034888 2.4266930742656263 1.0000000000000002 
	-70.85340518992075 70.10340518992075 1.8326805821873871 0.99999999999999978 
	-71.084034584770791 70.334034584770777 1.2322159458446045 1 
	-71.220741483921131 70.470741483921145 0.61300598202575673 1 
	-71.250446176151229 70.500446176151229 0.20454520675231608 1 
	-71.25 70.5 5.2045770037451033e-016 1 
	0.001 
	cone -67 66.25 0 0 -1 0 4.25 0 0 1 I I 0 1 4.25 forward I I I I 
	cone -56.359999999999999 66.25 0 -1 0 0 0 -4.25 0 1 I I 0 1 4.25 forward I I I I 
	nullbs 
	nullbs 
	F 8.8250504496479774e-008 I 
	0 
	1 8.8250504496479774e-008 
	0 
	} I I #
point $-1 -71.25 70.5 5.2045770037451033e-016 #
intcurve-curve $-1 forward { surfintcur full nurbs 3 open 10 
	0 3 0.10760285526105824 1 0.21554599453913026 1 0.32400171022281038 1 0.43339172967648293 1 
	0.54395120852190326 1 0.65593918134758789 1 0.76945226239057019 1 0.88431650936454342 1 1 3 
	-71.25 70.5 5.2045770037451033e-016 1 
	-71.250446176151243 70.500446176151243 -0.20454520675230647 0.99999999999999978 
	-71.220741483921117 70.470741483921131 -0.61300598202573586 1 
	-71.084034584770805 70.334034584770762 -1.23221594584461 1.0000000000000002 
	-70.85340518992075 70.103405189920764 -1.8326805821873815 0.99999999999999967 
	-70.512609802034902 69.762609802034888 -2.4266930742656379 1 
	-70.053783658908472 69.303783658908472 -2.9872119040857368 0.99999999999999989 
	-69.463573308043209 68.713573308043223 -3.4940496500010521 1.0000000000000002 
	-68.742390809463771 67.992390809463757 -3.9079863067618987 1 
	-67.902087194346777 67.152087194346791 -4.1858500057601109 1 
	-67.308967141802867 66.558967141802867 -4.2477731567994708 1 
	-67.000000000000014 66.25 -4.25 1 
	0.001 
	cone -67 66.25 0 0 -1 0 4.25 0 0 1 I I 0 1 4.25 forward I I I I 
	cone -56.359999999999999 66.25 0 -1 0 0 0 -4.25 0 1 I I 0 1 4.25 forward I I I I 
	nullbs 
	nullbs 
	I F 0.99999991174949554 
	0 
	1 0.99999991174949554 
	0 
	} I I #
coedge $-1 $178 $158 $176 $203 reversed $126 $-1 #
edge $-1 $136 0 $208 18.75 $180 $209 forward 7 unknown #
point $-1 -67.000000000000014 66.25 -4.25 #
intcurve-curve $-1 forward { surfintcur full nurbs 3 open 10 
	0 3 0.10760285526105831 1 0.21554599453913029 1 0.32400171022281032 1 0.43339172967648276 1 
	0.54395120852190326 1 0.65593918134758789 1 0.76945226239057019 1 0.88431650936454342 1 1 3 
	-62.75 62 0 1 
	-62.749553823848771 61.999553823848771 0.20454520675231277 1 
	-62.779258516078883 62.02925851607889 0.61300598202574985 1 
	-62.915965415229188 62.165965415229181 1.2322159458446125 1 
	-63.14659481007925 62.396594810079257 1.8326805821873811 1 
	-63.487390197965105 62.737390197965105 2.4266930742656281 1 
	-63.946216341091549 63.196216341091542 2.9872119040857341 1.0000000000000002 
	-64.536426691956791 63.78642669195677 3.4940496500010596 1.0000000000000002 
	-65.257609190536243 64.507609190536243 3.9079863067619045 1 
	-66.097912805653252 65.347912805653252 4.1858500057601136 1 
	-66.691032858197133 65.941032858197133 4.2477731567994725 1 
	-67 66.25 4.25 1 
	0.001 
	cone -56.359999999999999 66.25 0 -1 0 0 0 -4.25 0 1 I I 0 1 4.25 forward I I I I 
	cone -67 66.25 0 0 -1 0 4.25 0 0 1 I I 0 1 4.25 forward I I I I 
	nullbs 
	nullbs 
	I F 0.99999991174949554 
	0 
	1 0.99999991174949554 
	0 
	} I I #
coedge $-1 $210 $211 $163 $190 forward $212 $-1 #
edge $-1 $167 0 $169 1 $163 $213 forward 7 unknown #
cone-surface $-1 -39.789999999999992 66.25 30 -0.48348610705091377 0 -0.87535203449169663 0 -4 0 1 I I 0 1 4 forward I I I I #
coedge $-1 $214 $165 $211 $215 forward $194 $-1 #
coedge $-1 $165 $216 $210 $217 reversed $194 $-1 #
loop $-1 $-1 $192 $172 #
intcurve-curve $-1 forward { surfintcur full nurbs 3 open 17 
	0 3 0.063091475558801471 1 0.12606057957728578 1 0.18886241880352145 1 0.2514305026123867 1 
	0.31378919463698868 1 0.37595112891343618 1 0.43802101007026562 1 0.5 1 0.56197898992973438 1 
	0.62404887108656371 1 0.68621080536301127 1 0.74856949738761325 1 0.8111375811964785 1 0.87393942042271422 1 
	0.93690852444119843 1 1 3 
	-56.359999999999999 70.25 4.898425415289509e-016 1 
	-56.531107528251013 70.248399793477688 0.28998120866835753 1 
	-56.862117015466978 70.189156020156958 0.85095320192142643 1.0000000000000002 
	-57.334249653260748 69.925041399778962 1.6510909536535849 1 
	-57.755223751493496 69.509838432218473 2.3645287495903835 1 
	-58.104772673924188 68.981549676335575 2.9569200958464976 1 
	-58.380563827579195 68.362972573924296 3.4243118751234158 1 
	-58.575256766766486 67.695633230843143 3.7542640075737412 1 
	-58.694728379772421 66.975586960348338 3.9567362371427026 1 
	-58.733011623438607 66.25 4.0216160316411402 1 
	-58.694728379772435 65.524413039651662 3.9567362371427031 0.99999999999999978 
	-58.575256766766479 64.804366769156843 3.7542640075737399 1.0000000000000002 
	-58.380563827579202 64.137027426075704 3.4243118751234189 1 
	-58.104772673924181 63.518450323664396 2.9569200958464923 1.0000000000000002 
	-57.755223751493496 62.990161567781527 2.3645287495903906 0.99999999999999989 
	-57.334249653260748 62.574958600221045 1.6510909536535829 1.0000000000000002 
	-56.862117015467 62.310843979843 0.85095320192142532 0.99999999999999967 
	-56.53110752825102 62.251600206522305 0.28998120866835675 1 
	-56.359999999999999 62.25 0 1 
	0.001 
	cone -56.359999999999999 66.25 0 -1 0 0 0 -4 0 1 I I 0 1 4 forward I I I I 
	cone -39.789999999999992 66.25 30 -0.48348610705091377 0 -0.87535203449169663 0 -4 0 1 I I 0 1 4 forward I I I I 
	nullbs 
	nullbs 
	F 6.2459918524671251e-008 F 0.99999993754008143 
	0 
	2 6.2459918524671251e-008 0.99999993754008143 
	0 
	} I I #
point $-1 -56.359999999999999 62.25 -9.7968508305790181e-016 #
point $-1 -56.359999999999999 70.25 4.898425415289509e-016 #
face $-1 $218 $212 $3 $-1 $219 reversed single #
cone-surface $-1 -56.359999999999999 66.25 0 -1 0 0 0 -4 0 1 I I 0 1 4 forward I I I I #
coedge $-1 $220 $221 $214 $222 forward $173 $-1 #
coedge $-1 $223 $223 $224 $225 forward $175 $-1 #
coedge $-1 $176 $176 $177 $204 forward $149 $-1 #
edge $-1 $205 0 $208 3.1415926535897931 $176 $226 forward 7 unknown #
edge $-1 $208 0 $205 3.1415926535897931 $202 $227 forward 7 unknown #
vertex $-1 $204 $228 #
straight-curve $-1 -71.25 70.5 5.2045770037451033e-016 0 -1 0 I I #
point $-1 -67 66.25 4.25 #
vertex $-1 $204 $229 #
straight-curve $-1 -62.75 62 0 0 -1 0 I I #
coedge $-1 $230 $189 $193 $217 forward $212 $-1 #
coedge $-1 $189 $231 $192 $215 reversed $212 $-1 #
loop $-1 $-1 $210 $198 #
intcurve-curve $-1 forward { surfintcur full nurbs 3 open 17 
	0 3 0.063091475558801444 1 0.12606057957728573 1 0.18886241880352139 1 0.25143050261238664 1 
	0.31378919463698862 1 0.37595112891343618 1 0.4380210100702655 1 0.49999999999999989 1 0.56197898992973427 1 
	0.62404887108656359 1 0.68621080536301116 1 0.74856949738761314 1 0.8111375811964785 1 0.87393942042271411 1 
	0.93690852444119843 1 1 3 
	-56.359999999999999 62.25 -9.7968508305790181e-016 1 
	-56.188892471748986 62.251600206522298 -0.28998120866835636 1 
	-55.857882984533006 62.310843979843014 -0.85095320192142332 0.99999999999999978 
	-55.38575034673925 62.574958600221045 -1.6510909536535809 1.0000000000000002 
	-54.96477624850651 62.990161567781506 -2.3645287495903853 1 
	-54.615227326075804 63.518450323664439 -2.9569200958464981 1 
	-54.339436172420804 64.137027426075704 -3.4243118751234198 0.99999999999999978 
	-54.14474323323352 64.804366769156857 -3.7542640075737435 1 
	-54.025271620227556 65.524413039651677 -3.9567362371427013 1.0000000000000002 
	-53.986988376561406 66.25 -4.0216160316411411 0.99999999999999967 
	-54.025271620227578 66.975586960348352 -3.9567362371427008 0.99999999999999978 
	-54.144743233233484 67.695633230843143 -3.7542640075737412 1.0000000000000002 
	-54.339436172420811 68.362972573924296 -3.4243118751234198 1 
	-54.615227326075782 68.98154967633559 -2.9569200958464923 1.0000000000000002 
	-54.96477624850651 69.509838432218487 -2.3645287495903897 0.99999999999999989 
	-55.385750346739236 69.925041399778948 -1.6510909536535787 0.99999999999999978 
	-55.857882984533013 70.189156020156986 -0.85095320192142165 1 
	-56.188892471748993 70.248399793477688 -0.2899812086683547 1 
	-56.359999999999999 70.25 4.898425415289509e-016 1 
	0.001 
	cone -39.789999999999992 66.25 30 -0.48348610705091377 0 -0.87535203449169663 0 -4 0 1 I I 0 1 4 forward I I I I 
	cone -56.359999999999999 66.25 0 -1 0 0 0 -4 0 1 I I 0 1 4 forward I I I I 
	nullbs 
	nullbs 
	F 6.2459918524671502e-008 F 0.99999993754008143 
	0 
	2 6.2459918524671502e-008 0.99999993754008143 
	0 
	} I I #
coedge $-1 $216 $192 $200 $222 reversed $194 $-1 #
edge $-1 $167 1.4454561174189276e-031 $232 6.6400000000000006 $211 $233 forward 7 unknown #
coedge $-1 $193 $214 $221 $234 reversed $194 $-1 #
edge $-1 $169 0 $235 14.640000000000001 $210 $236 forward 7 unknown #
face $-1 $164 $237 $3 $-1 $238 reversed single #
cone-surface $-1 -56.359999999999999 66.25 0 -1 0 0 0 -4 0 1 I I 0 1 4 forward I I I I #
coedge $-1 $224 $200 $239 $240 forward $173 $-1 #
coedge $-1 $200 $241 $216 $234 forward $173 $-1 #
edge $-1 $242 0 $232 1 $214 $243 forward 7 unknown #
coedge $-1 $201 $201 $244 $245 forward $175 $-1 #
coedge $-1 $241 $220 $201 $225 reversed $173 $-1 #
edge $-1 $246 0 $247 3.1415926535897931 $201 $248 forward 7 unknown #
ellipse-curve $-1 -67 43.25 0 0 -1 0 -4.25 0 0 1 I I #
ellipse-curve $-1 -67 43.25 0 0 -1 0 4.25 0 0 1 I I #
point $-1 -71.25 43.25 0 #
point $-1 -62.75 43.25 0 #
coedge $-1 $231 $210 $249 $250 reversed $212 $-1 #
coedge $-1 $211 $230 $251 $252 reversed $212 $-1 #
vertex $-1 $215 $253 #
straight-curve $-1 -56.359999999999999 62.25 0 -1 0 -1.4754293419546713e-016 I I #
edge $-1 $235 0 $242 1 $216 $254 forward 7 unknown #
vertex $-1 $250 $255 #
straight-curve $-1 -56.359999999999999 70.25 4.898425415289509e-016 -1 0 0 I I #
loop $-1 $-1 $249 $218 #
cone-surface $-1 -67 66.25 0 0 -1 0 4 0 0 1 I I 0 1 4 forward I I I I #
coedge $-1 $251 $244 $220 $240 reversed $237 $-1 #
edge $-1 $232 0 $247 19 $239 $256 forward 7 unknown #
coedge $-1 $221 $224 $257 $258 reversed $173 $-1 #
vertex $-1 $234 $259 #
intcurve-curve $-1 forward { surfintcur full nurbs 3 open 10 
	0 3 0.11571125301581625 1 0.23057109854256894 1 0.34405139949528962 1 0.45600758347046133 1 
	0.56655444212535611 1 0.67595373705519068 1 0.78442889880724709 1 0.89239061242443563 1 1 3 
	-67 66.25 4 1 
	-66.708452202822627 65.958452202822613 3.9977957307948344 1 
	-66.149319198553911 65.399319198553869 3.9393704314668128 0.99999999999999956 
	-65.358690092071257 64.608690092071271 3.6773676826104307 1.0000000000000002 
	-64.681874826736589 63.931874826736582 3.2887038350057689 0.99999999999999978 
	-64.127823642649517 63.377823642649524 2.8133596456967185 1.0000000000000002 
	-63.6961938327768 62.946193832776807 2.2870779505264482 1 
	-63.374616571860223 62.624616571860216 1.7278432261995891 1.0000000000000002 
	-63.156666419325418 62.406666419325433 1.1615696811960734 1 
	-63.027550829410792 62.277550829410778 0.57728749916226063 1 
	-62.999542223507291 62.249542223507298 0.19255676270774935 1 
	-63 62.25 0 1 
	0.001 
	cone -67 66.25 0 0 -1 0 4 0 0 1 I I 0 1 4 forward I I I I 
	cone -56.359999999999999 66.25 0 -1 0 0 0 -4 0 1 I I 0 1 4 forward I I I I 
	nullbs 
	nullbs 
	F 9.3545601814732065e-008 I 
	0 
	1 9.3545601814732065e-008 
	0 
	} I I #
coedge $-1 $239 $257 $223 $245 reversed $237 $-1 #
edge $-1 $247 0 $246 3.1415926535897931 $223 $260 forward 7 unknown #
vertex $-1 $245 $261 #
vertex $-1 $245 $262 #
ellipse-curve $-1 -67 43.25 0 0 1 0 -4 0 0 1 I I #
coedge $-1 $257 $251 $230 $250 forward $237 $-1 #
edge $-1 $263 0 $235 1 $230 $264 forward 7 unknown #
coedge $-1 $249 $239 $231 $252 forward $237 $-1 #
edge $-1 $232 0 $263 1 $231 $265 forward 7 unknown #
point $-1 -63 62.25 -9.7968508305790181e-016 #
intcurve-curve $-1 forward { surfintcur full nurbs 3 open 10 
	0 3 0.10760938757556437 1 0.21557110119275294 1 0.32404626294480943 1 0.43344555787464412 1 
	0.54399241652953889 1 0.65594860050471049 1 0.76942890145743104 1 0.8842887469841838 1 1 3 
	-71 70.25 4.898425415289509e-016 1 
	-71.000457776492723 70.250457776492709 0.19255676270774644 1 
	-70.972449170589215 70.222449170589229 0.5772874991622523 0.99999999999999978 
	-70.843333580674582 70.093333580674567 1.1615696811960727 1.0000000000000002 
	-70.625383428139756 69.87538342813977 1.7278432261995789 1 
	-70.3038061672232 69.5538061672232 2.2870779505264567 1 
	-69.872176357350483 69.122176357350469 2.8133596456967127 1 
	-69.318125173263397 68.568125173263411 3.2887038350057662 1.0000000000000002 
	-68.641309907928743 67.891309907928743 3.6773676826104307 1 
	-67.850680801446089 67.100680801446117 3.9393704314668114 1.0000000000000002 
	-67.291547797177387 66.541547797177373 3.9977957307948335 1 
	-67 66.25 4 1 
	0.001 
	cone -56.359999999999999 66.25 0 -1 0 0 0 -4 0 1 I I 0 1 4 forward I I I I 
	cone -67 66.25 0 0 -1 0 4 0 0 1 I I 0 1 4 forward I I I I 
	nullbs 
	nullbs 
	I F 0.99999990645439818 
	0 
	1 0.99999990645439818 
	0 
	} I I #
point $-1 -71 70.25 4.898425415289509e-016 #
straight-curve $-1 -63 62.25 -9.7968508305790181e-016 0 -1 0 I I #
coedge $-1 $244 $249 $241 $258 forward $237 $-1 #
edge $-1 $235 0 $246 27 $257 $266 forward 7 unknown #
point $-1 -67 66.25 4 #
ellipse-curve $-1 -67 43.25 0 0 1 0 4 0 0 1 I I #
point $-1 -71 43.25 0 #
point $-1 -63 43.25 0 #
vertex $-1 $252 $267 #
intcurve-curve $-1 forward { surfintcur full nurbs 3 open 10 
	0 3 0.11571125301581625 1 0.23057109854256905 1 0.34405139949528962 1 0.45600758347046122 1 
	0.56655444212535611 1 0.67595373705519057 1 0.78442889880724709 1 0.89239061242443563 1 1 3 
	-67 66.25 -4 1 
	-67.291547797177401 66.541547797177415 -3.9977957307948335 0.99999999999999989 
	-67.850680801446089 67.100680801446089 -3.9393704314668119 1 
	-68.641309907928729 67.891309907928743 -3.6773676826104338 0.99999999999999989 
	-69.318125173263425 68.568125173263425 -3.2887038350057685 1 
	-69.872176357350469 69.122176357350469 -2.8133596456967211 1.0000000000000002 
	-70.303806167223229 69.553806167223215 -2.2870779505264456 0.99999999999999967 
	-70.625383428139742 69.875383428139756 -1.7278432261995875 1.0000000000000004 
	-70.843333580674596 70.093333580674596 -1.1615696811960701 0.99999999999999989 
	-70.972449170589229 70.222449170589215 -0.57728749916225175 1 
	-71.000457776492709 70.250457776492709 -0.19255676270774541 1 
	-71 70.25 4.898425415289509e-016 1 
	0.001 
	cone -56.359999999999999 66.25 0 -1 0 0 0 -4 0 1 I I 0 1 4 forward I I I I 
	cone -67 66.25 0 0 -1 0 4 0 0 1 I I 0 1 4 forward I I I I 
	nullbs 
	nullbs 
	F 9.354560181472513e-008 I 
	0 
	1 9.354560181472513e-008 
	0 
	} I I #
intcurve-curve $-1 forward { surfintcur full nurbs 3 open 10 
	0 3 0.10760938757556446 1 0.215571101192753 1 0.32404626294480943 1 0.43344555787464401 1 
	0.54399241652953878 1 0.65594860050471049 1 0.76942890145743104 1 0.8842887469841838 1 1 3 
	-63 62.25 -9.7968508305790181e-016 1 
	-62.999542223507298 62.249542223507291 -0.19255676270775177 0.99999999999999978 
	-63.027550829410771 62.277550829410785 -0.57728749916226396 1 
	-63.156666419325433 62.406666419325425 -1.1615696811960676 1.0000000000000002 
	-63.374616571860223 62.624616571860237 -1.7278432261995824 1 
	-63.696193832776821 62.9461938327768 -2.2870779505264509 1 
	-64.127823642649517 63.377823642649524 -2.81335964569671 0.99999999999999989 
	-64.681874826736603 63.931874826736589 -3.2887038350057658 0.99999999999999978 
	-65.358690092071271 64.608690092071242 -3.6773676826104373 1.0000000000000002 
	-66.149319198553869 65.399319198553869 -3.9393704314668105 1 
	-66.708452202822627 65.958452202822613 -3.9977957307948335 1 
	-67 66.25 -4 1 
	0.001 
	cone -67 66.25 0 0 -1 0 4 0 0 1 I I 0 1 4 forward I I I I 
	cone -56.359999999999999 66.25 0 -1 0 0 0 -4 0 1 I I 0 1 4 forward I I I I 
	nullbs 
	nullbs 
	I F 0.99999990645439818 
	0 
	1 0.99999990645439818 
	0 
	} I I #
straight-curve $-1 -71 70.25 4.898425415289509e-016 0 -1 0 I I #
point $-1 -67 66.25 -4 #
End-of-ACIS-data 