600 0 1 0           
83 GICL ACIS Healer - Source: /gicl/data5/repository/PTC/V18/lrgasm18/en.prt.sat - 6 0 18 ACIS 6.0.3 Solaris 24 Sat Apr 13 21:59:38 2002 
1 9.999999999999999547e-07 1.000000000000000036e-10 
body $-1 $1 $-1 $-1 #
lump $-1 $-1 $2 $0 #
shell $-1 $-1 $-1 $3 $-1 $1 #
face $-1 $4 $5 $2 $-1 $6 reversed single #
face $-1 $7 $8 $2 $-1 $9 forward single #
loop $-1 $-1 $10 $3 #
plane-surface $-1 50.79999999999999716 914.3999999999999773 355.5999999999999659 -1 0 0 0 0 25.39999999999999858 forward_v I I I I #
face $-1 $11 $12 $2 $-1 $13 forward single #
loop $-1 $-1 $14 $4 #
plane-surface $-1 50.79999999999999716 1697.95222776854871 -286.8883026380519823 0 0.3420201433256678802 -0.939692620785908761 0 -23.86819256796207966 -8.687311640471962804 forward_v I I I I #
coedge $-1 $15 $16 $17 $18 reversed $5 $-1 #
face $-1 $19 $20 $2 $-1 $21 forward single #
loop $-1 $-1 $22 $7 #
plane-surface $-1 50.79999999999999716 914.3999999999999773 -572.0779905387746567 0 -1 0 0 0 25.39999999999999858 forward_v I I I I #
coedge $-1 $23 $17 $24 $25 forward $8 $-1 #
coedge $-1 $26 $10 $27 $28 reversed $5 $-1 #
coedge $-1 $10 $29 $30 $31 reversed $5 $-1 #
coedge $-1 $14 $32 $10 $18 forward $8 $-1 #
edge $-1 $33 0 $34 32.82830174666427325 $10 $35 forward 7 unknown #
face $-1 $36 $37 $2 $-1 $38 forward single #
loop $-1 $-1 $39 $11 #
plane-surface $-1 50.79999999999999716 914.3999999999999773 -355.5999999999999659 0 0 -1 0 -25.39999999999999858 0 forward_v I I I I #
coedge $-1 $40 $30 $41 $42 forward $12 $-1 #
coedge $-1 $32 $14 $43 $44 reversed $8 $-1 #
coedge $-1 $30 $40 $14 $25 reversed $12 $-1 #
edge $-1 $34 -0 $45 40.39999999999999858 $24 $46 forward 7 unknown #
coedge $-1 $47 $15 $48 $49 reversed $5 $-1 #
coedge $-1 $50 $51 $15 $28 forward $52 $-1 #
edge $-1 $53 0 $33 22.58963012898047396 $15 $54 forward 7 unknown #
coedge $-1 $16 $55 $56 $57 reversed $5 $-1 #
coedge $-1 $22 $24 $16 $31 forward $12 $-1 #
edge $-1 $34 0 $58 8.522755533022625229 $16 $59 forward 7 unknown #
coedge $-1 $17 $23 $50 $60 reversed $8 $-1 #
vertex $-1 $28 $61 #
vertex $-1 $31 $62 #
straight-curve $-1 50.79999999999999716 1697.95222776854871 -286.8883026380519823 0 -23.86819256796207966 -8.687311640471962804 I I #
face $-1 $63 $64 $2 $-1 $65 forward single #
loop $-1 $-1 $66 $19 #
plane-surface $-1 50.79999999999999716 762 -355.5999999999999659 0 -1 0 0 0 25.39999999999999858 forward_v I I I I #
coedge $-1 $67 $56 $68 $69 forward $20 $-1 #
coedge $-1 $24 $22 $70 $71 reversed $12 $-1 #
coedge $-1 $56 $67 $22 $42 reversed $20 $-1 #
edge $-1 $58 0 $72 40.39999999999999858 $22 $73 forward 7 unknown #
coedge $-1 $70 $74 $23 $44 forward $75 $-1 #
edge $-1 $76 0 $45 32.82830174666427325 $43 $77 forward 7 unknown #
vertex $-1 $71 $78 #
straight-curve $-1 50.79999999999999716 914.4000000000000909 -572.077990538774543 -25.39999999999999858 0 0 I I #
coedge $-1 $79 $26 $80 $81 reversed $5 $-1 #
coedge $-1 $82 $83 $26 $49 forward $84 $-1 #
edge $-1 $85 0 $53 32.82830174666426615 $26 $86 forward 7 unknown #
coedge $-1 $87 $27 $32 $60 forward $52 $-1 #
coedge $-1 $27 $87 $82 $88 reversed $52 $-1 #
loop $-1 $-1 $50 $89 #
vertex $-1 $49 $90 #
straight-curve $-1 50.79999999999999716 1697.95222776854871 286.8883026380519254 0 0 -25.39999999999999858 I I #
coedge $-1 $29 $79 $91 $92 reversed $5 $-1 #
coedge $-1 $39 $41 $29 $57 forward $20 $-1 #
edge $-1 $58 0 $93 5.999999999999999112 $29 $94 forward 7 unknown #
vertex $-1 $31 $95 #
straight-curve $-1 50.79999999999999716 914.3999999999999773 -572.0779905387746567 0 0 25.39999999999999858 I I #
edge $-1 $33 0 $76 40.39999999999999858 $50 $96 forward 7 unknown #
point $-1 50.79999999999999716 1697.95222776854871 -286.8883026380519823 #
point $-1 50.79999999999999716 914.3999999999999773 -572.0779905387746567 #
face $-1 $97 $98 $2 $-1 $99 forward single #
loop $-1 $-1 $100 $36 #
plane-surface $-1 50.79999999999999716 762 355.5999999999999659 0 0 1 0 25.39999999999999858 0 forward_v I I I I #
coedge $-1 $101 $91 $102 $103 forward $37 $-1 #
coedge $-1 $41 $39 $104 $105 reversed $20 $-1 #
coedge $-1 $91 $101 $39 $69 reversed $37 $-1 #
edge $-1 $93 0 $106 40.39999999999999858 $39 $107 forward 7 unknown #
coedge $-1 $104 $43 $40 $71 forward $75 $-1 #
edge $-1 $45 0 $72 8.522755533022625229 $70 $108 forward 7 unknown #
vertex $-1 $71 $109 #
straight-curve $-1 50.79999999999999716 914.3999999999999773 -355.5999999999999659 -25.39999999999999858 0 0 I I #
coedge $-1 $43 $110 $87 $111 forward $75 $-1 #
loop $-1 $-1 $104 $112 #
vertex $-1 $44 $113 #
straight-curve $-1 -975.3599999999999 1697.95222776854871 -286.8883026380519823 0 -23.86819256796207966 -8.687311640471962804 I I #
point $-1 -975.3599999999999 914.3999999999999773 -572.0779905387746567 #
coedge $-1 $55 $47 $114 $115 reversed $5 $-1 #
coedge $-1 $116 $117 $47 $81 forward $98 $-1 #
edge $-1 $118 0 $85 8.522755533022621677 $47 $119 forward 7 unknown #
coedge $-1 $120 $48 $51 $88 forward $84 $-1 #
coedge $-1 $48 $120 $116 $121 reversed $84 $-1 #
loop $-1 $-1 $82 $97 #
vertex $-1 $81 $122 #
straight-curve $-1 50.79999999999999716 914.3999999999999773 572.077990538774543 0 23.86819256796207966 -8.687311640471961027 I I #
coedge $-1 $51 $50 $74 $111 reversed $52 $-1 #
edge $-1 $53 0 $123 40.39999999999999858 $82 $124 forward 7 unknown #
face $-1 $112 $52 $2 $-1 $125 forward single #
point $-1 50.79999999999999716 1697.95222776854871 286.8883026380519254 #
coedge $-1 $66 $68 $55 $92 forward $37 $-1 #
edge $-1 $93 0 $126 28 $55 $127 forward 7 unknown #
vertex $-1 $57 $128 #
straight-curve $-1 50.79999999999999716 914.3999999999999773 -355.5999999999999659 0 -25.39999999999999858 0 I I #
point $-1 50.79999999999999716 914.3999999999999773 -355.5999999999999659 #
straight-curve $-1 50.79999999999999716 1697.95222776854871 -286.8883026380519823 -25.39999999999999858 0 0 I I #
face $-1 $89 $84 $2 $-1 $129 forward single #
loop $-1 $-1 $116 $63 #
plane-surface $-1 50.79999999999999716 914.3999999999999773 355.5999999999999659 0 -1 0 0 0 25.39999999999999858 forward_v I I I I #
coedge $-1 $130 $114 $117 $131 forward $64 $-1 #
coedge $-1 $68 $66 $132 $133 reversed $37 $-1 #
coedge $-1 $114 $130 $66 $103 reversed $64 $-1 #
edge $-1 $126 0 $134 40.39999999999999858 $66 $135 forward 7 unknown #
coedge $-1 $132 $70 $67 $105 forward $75 $-1 #
edge $-1 $72 0 $106 5.999999999999999112 $104 $136 forward 7 unknown #
vertex $-1 $133 $137 #
straight-curve $-1 50.79999999999999716 762 -355.5999999999999659 -25.39999999999999858 0 0 I I #
straight-curve $-1 -975.3599999999999 914.3999999999999773 -572.0779905387746567 0 0 25.39999999999999858 I I #
point $-1 -975.3599999999999 914.3999999999999773 -355.5999999999999659 #
coedge $-1 $74 $138 $120 $139 forward $75 $-1 #
edge $-1 $123 0 $76 22.58963012898047396 $74 $140 forward 7 unknown #
face $-1 $-1 $75 $2 $-1 $141 forward single #
point $-1 -975.3599999999999 1697.95222776854871 -286.8883026380519823 #
coedge $-1 $100 $102 $79 $115 forward $64 $-1 #
edge $-1 $126 0 $118 5.999999999999999112 $79 $142 forward 7 unknown #
coedge $-1 $143 $80 $83 $121 forward $98 $-1 #
coedge $-1 $80 $143 $100 $131 reversed $98 $-1 #
vertex $-1 $115 $144 #
straight-curve $-1 50.79999999999999716 914.3999999999999773 355.5999999999999659 0 0 25.39999999999999858 I I #
coedge $-1 $83 $82 $110 $139 reversed $84 $-1 #
edge $-1 $85 0 $145 40.39999999999999858 $116 $146 forward 7 unknown #
point $-1 50.79999999999999716 914.3999999999999773 572.077990538774543 #
vertex $-1 $111 $147 #
straight-curve $-1 50.79999999999999716 1697.95222776854871 286.8883026380519823 -25.39999999999999858 0 0 I I #
plane-surface $-1 50.79999999999999716 1697.95222776854871 286.8883026380519254 0 1 0 0 0 -25.39999999999999858 forward_v I I I I #
vertex $-1 $92 $148 #
straight-curve $-1 50.79999999999999716 762 -355.5999999999999659 0 0 25.39999999999999858 I I #
point $-1 50.79999999999999716 762 -355.5999999999999659 #
plane-surface $-1 50.79999999999999716 914.3999999999999773 572.077990538774543 0 0.3420201433256678802 0.939692620785908761 0 23.86819256796207966 -8.687311640471962804 forward_v I I I I #
coedge $-1 $102 $100 $149 $150 reversed $64 $-1 #
edge $-1 $118 0 $151 40.39999999999999858 $100 $152 forward 7 unknown #
coedge $-1 $149 $104 $101 $133 forward $75 $-1 #
edge $-1 $106 0 $134 28 $132 $153 forward 7 unknown #
vertex $-1 $150 $154 #
straight-curve $-1 50.79999999999999716 762 355.5999999999999659 -25.39999999999999858 0 0 I I #
straight-curve $-1 -975.3599999999999 914.3999999999999773 -355.5999999999999659 0 -25.39999999999999858 0 I I #
point $-1 -975.3599999999999 762 -355.5999999999999659 #
coedge $-1 $110 $149 $143 $155 forward $75 $-1 #
edge $-1 $145 0 $123 32.82830174666426615 $110 $156 forward 7 unknown #
straight-curve $-1 -975.3599999999999 1697.95222776854871 286.8883026380519254 0 0 -25.39999999999999858 I I #
plane-surface $-1 -975.3599999999999 914.3999999999999773 355.5999999999999659 -1 0 0 0 0 25.39999999999999858 forward_v I I I I #
straight-curve $-1 50.79999999999999716 762 355.5999999999999659 0 25.39999999999999858 0 I I #
coedge $-1 $117 $116 $138 $155 reversed $98 $-1 #
point $-1 50.79999999999999716 914.3999999999999773 355.5999999999999659 #
vertex $-1 $139 $157 #
straight-curve $-1 50.79999999999999716 914.3999999999999773 572.077990538774543 -25.39999999999999858 0 0 I I #
point $-1 -975.3599999999999 1697.95222776854871 286.8883026380519254 #
point $-1 50.79999999999999716 762 355.5999999999999659 #
coedge $-1 $138 $132 $130 $150 forward $75 $-1 #
edge $-1 $134 0 $151 5.999999999999999112 $149 $158 forward 7 unknown #
vertex $-1 $155 $159 #
straight-curve $-1 50.79999999999999716 914.3999999999999773 355.5999999999999659 -25.39999999999999858 0 0 I I #
straight-curve $-1 -975.3599999999999 762 -355.5999999999999659 0 0 25.39999999999999858 I I #
point $-1 -975.3599999999999 762 355.5999999999999659 #
edge $-1 $151 0 $145 8.522755533022621677 $138 $160 forward 7 unknown #
straight-curve $-1 -975.3599999999999 914.3999999999999773 572.077990538774543 0 23.86819256796207966 -8.687311640471961027 I I #
point $-1 -975.3599999999999 914.3999999999999773 572.077990538774543 #
straight-curve $-1 -975.3599999999999 762 355.5999999999999659 0 25.39999999999999858 0 I I #
point $-1 -975.3599999999999 914.3999999999999773 355.5999999999999659 #
straight-curve $-1 -975.3599999999999 914.3999999999999773 355.5999999999999659 0 0 25.39999999999999858 I I #
End-of-ACIS-data 