600 0 1 0           
86 GICL Pro/E ACIS Translator - Source: f:/data5/repository/PTC/V18/lrgasm18/en.prt - 6 0 13 ACIS 6.0.3 NT 24 Thu Apr 04 13:34:26 2002 
1 9.9999999999999995e-007 1e-010 
body $-1 $1 $-1 $2 #
lump $-1 $-1 $3 $0 #
transform $-1 1 0 0 0 1 0 0 0 1 0 0 0 25.399999999999999 no_rotate no_reflect no_shear #
shell $-1 $-1 $-1 $4 $-1 $1 #
face $-1 $5 $6 $3 $-1 $7 reversed single #
face $-1 $8 $9 $3 $-1 $10 forward single #
loop $-1 $-1 $11 $4 #
plane-surface $-1 2 36 14 -1 0 0 0 0 1 forward_v I I I I #
face $-1 $12 $13 $3 $-1 $14 forward single #
loop $-1 $-1 $15 $5 #
plane-surface $-1 2 66.848512904273576 -11.294815064490237 0 0.34202014332566788 -0.93969262078590876 0 -0.93969262078590876 -0.34202014332566788 forward_v I I I I #
coedge $-1 $16 $17 $18 $19 reversed $6 $-1 #
face $-1 $20 $21 $3 $-1 $22 forward single #
loop $-1 $-1 $23 $8 #
plane-surface $-1 2 36 -22.522755533022625 0 -1 0 0 0 1 forward_v I I I I #
coedge $-1 $24 $18 $25 $26 forward $9 $-1 #
coedge $-1 $27 $11 $28 $29 reversed $6 $-1 #
coedge $-1 $11 $30 $31 $32 reversed $6 $-1 #
coedge $-1 $15 $33 $11 $19 forward $9 $-1 #
edge $-1 $34 0 $35 32.828301746664273 $11 $36 forward 7 unknown #
face $-1 $37 $38 $3 $-1 $39 forward single #
loop $-1 $-1 $40 $12 #
plane-surface $-1 2 36 -14 0 0 -1 0 -1 0 forward_v I I I I #
coedge $-1 $41 $31 $42 $43 forward $13 $-1 #
coedge $-1 $33 $15 $44 $45 reversed $9 $-1 #
coedge $-1 $31 $41 $15 $26 reversed $13 $-1 #
edge $-1 $35 0 $46 40.399999999999999 $25 $47 forward 7 unknown #
coedge $-1 $48 $16 $49 $50 reversed $6 $-1 #
coedge $-1 $51 $52 $16 $29 forward $53 $-1 #
edge $-1 $54 0 $34 22.58963012898047 $16 $55 forward 7 unknown #
coedge $-1 $17 $56 $57 $58 reversed $6 $-1 #
coedge $-1 $23 $25 $17 $32 forward $13 $-1 #
edge $-1 $35 0 $59 8.5227555330226252 $17 $60 forward 7 unknown #
coedge $-1 $18 $24 $51 $61 reversed $9 $-1 #
vertex $-1 $29 $62 #
vertex $-1 $32 $63 #
straight-curve $-1 2 66.848512904273576 -11.294815064490237 0 -0.93969262078590876 -0.34202014332566788 I I #
face $-1 $64 $65 $3 $-1 $66 forward single #
loop $-1 $-1 $67 $20 #
plane-surface $-1 2 30 -14 0 -1 0 0 0 1 forward_v I I I I #
coedge $-1 $68 $57 $69 $70 forward $21 $-1 #
coedge $-1 $25 $23 $71 $72 reversed $13 $-1 #
coedge $-1 $57 $68 $23 $43 reversed $21 $-1 #
edge $-1 $59 0 $73 40.399999999999999 $23 $74 forward 7 unknown #
coedge $-1 $71 $75 $24 $45 forward $76 $-1 #
edge $-1 $77 0 $46 32.828301746664273 $44 $78 forward 7 unknown #
vertex $-1 $72 $79 #
straight-curve $-1 2 36.000000000000007 -22.522755533022622 -1 0 0 I I #
coedge $-1 $80 $27 $81 $82 reversed $6 $-1 #
coedge $-1 $83 $84 $27 $50 forward $85 $-1 #
edge $-1 $86 0 $54 32.828301746664273 $27 $87 forward 7 unknown #
coedge $-1 $88 $28 $33 $61 forward $53 $-1 #
coedge $-1 $28 $88 $83 $89 reversed $53 $-1 #
loop $-1 $-1 $51 $90 #
vertex $-1 $50 $91 #
straight-curve $-1 2 66.848512904273576 11.294815064490233 0 0 -1 I I #
coedge $-1 $30 $80 $92 $93 reversed $6 $-1 #
coedge $-1 $40 $42 $30 $58 forward $21 $-1 #
edge $-1 $59 0 $94 6 $30 $95 forward 7 unknown #
vertex $-1 $32 $96 #
straight-curve $-1 2 36 -22.522755533022625 0 0 1 I I #
edge $-1 $34 0 $77 40.399999999999999 $51 $97 forward 7 unknown #
point $-1 2 66.848512904273576 -11.294815064490237 #
point $-1 2 36 -22.522755533022625 #
face $-1 $98 $99 $3 $-1 $100 forward single #
loop $-1 $-1 $101 $37 #
plane-surface $-1 2 30 14 0 0 1 0 1 0 forward_v I I I I #
coedge $-1 $102 $92 $103 $104 forward $38 $-1 #
coedge $-1 $42 $40 $105 $106 reversed $21 $-1 #
coedge $-1 $92 $102 $40 $70 reversed $38 $-1 #
edge $-1 $94 0 $107 40.399999999999999 $40 $108 forward 7 unknown #
coedge $-1 $105 $44 $41 $72 forward $76 $-1 #
edge $-1 $46 0 $73 8.5227555330226252 $71 $109 forward 7 unknown #
vertex $-1 $72 $110 #
straight-curve $-1 2 36 -14 -1 0 0 I I #
coedge $-1 $44 $111 $88 $112 forward $76 $-1 #
loop $-1 $-1 $105 $113 #
vertex $-1 $45 $114 #
straight-curve $-1 -38.399999999999999 66.848512904273576 -11.294815064490237 0 -0.93969262078590876 -0.34202014332566788 I I #
point $-1 -38.399999999999999 36 -22.522755533022625 #
coedge $-1 $56 $48 $115 $116 reversed $6 $-1 #
coedge $-1 $117 $118 $48 $82 forward $99 $-1 #
edge $-1 $119 0 $86 8.5227555330226217 $48 $120 forward 7 unknown #
coedge $-1 $121 $49 $52 $89 forward $85 $-1 #
coedge $-1 $49 $121 $117 $122 reversed $85 $-1 #
loop $-1 $-1 $83 $98 #
vertex $-1 $82 $123 #
straight-curve $-1 2 36 22.522755533022622 0 0.93969262078590876 -0.34202014332566777 I I #
coedge $-1 $52 $51 $75 $112 reversed $53 $-1 #
edge $-1 $54 0 $124 40.399999999999999 $83 $125 forward 7 unknown #
face $-1 $113 $53 $3 $-1 $126 forward single #
point $-1 2 66.848512904273576 11.294815064490233 #
coedge $-1 $67 $69 $56 $93 forward $38 $-1 #
edge $-1 $94 0 $127 28 $56 $128 forward 7 unknown #
vertex $-1 $58 $129 #
straight-curve $-1 2 36 -14 0 -1 0 I I #
point $-1 2 36 -14 #
straight-curve $-1 2 66.848512904273576 -11.294815064490237 -1 0 0 I I #
face $-1 $90 $85 $3 $-1 $130 forward single #
loop $-1 $-1 $117 $64 #
plane-surface $-1 2 36 14 0 -1 0 0 0 1 forward_v I I I I #
coedge $-1 $131 $115 $118 $132 forward $65 $-1 #
coedge $-1 $69 $67 $133 $134 reversed $38 $-1 #
coedge $-1 $115 $131 $67 $104 reversed $65 $-1 #
edge $-1 $127 0 $135 40.399999999999999 $67 $136 forward 7 unknown #
coedge $-1 $133 $71 $68 $106 forward $76 $-1 #
edge $-1 $73 0 $107 6 $105 $137 forward 7 unknown #
vertex $-1 $134 $138 #
straight-curve $-1 2 30 -14 -1 0 0 I I #
straight-curve $-1 -38.399999999999999 36 -22.522755533022625 0 0 1 I I #
point $-1 -38.399999999999999 36 -14 #
coedge $-1 $75 $139 $121 $140 forward $76 $-1 #
edge $-1 $124 0 $77 22.58963012898047 $75 $141 forward 7 unknown #
face $-1 $-1 $76 $3 $-1 $142 forward single #
point $-1 -38.399999999999999 66.848512904273576 -11.294815064490237 #
coedge $-1 $101 $103 $80 $116 forward $65 $-1 #
edge $-1 $127 0 $119 6 $80 $143 forward 7 unknown #
coedge $-1 $144 $81 $84 $122 forward $99 $-1 #
coedge $-1 $81 $144 $101 $132 reversed $99 $-1 #
vertex $-1 $116 $145 #
straight-curve $-1 2 36 14 0 0 1 I I #
coedge $-1 $84 $83 $111 $140 reversed $85 $-1 #
edge $-1 $86 0 $146 40.399999999999999 $117 $147 forward 7 unknown #
point $-1 2 36 22.522755533022622 #
vertex $-1 $112 $148 #
straight-curve $-1 2 66.848512904273576 11.294815064490237 -1 0 0 I I #
plane-surface $-1 2 66.848512904273576 11.294815064490233 0 1 0 0 0 -1 forward_v I I I I #
vertex $-1 $93 $149 #
straight-curve $-1 2 30 -14 0 0 1 I I #
point $-1 2 30 -14 #
plane-surface $-1 2 36 22.522755533022622 0 0.34202014332566788 0.93969262078590876 0 0.93969262078590876 -0.34202014332566788 forward_v I I I I #
coedge $-1 $103 $101 $150 $151 reversed $65 $-1 #
edge $-1 $119 0 $152 40.399999999999999 $101 $153 forward 7 unknown #
coedge $-1 $150 $105 $102 $134 forward $76 $-1 #
edge $-1 $107 0 $135 28 $133 $154 forward 7 unknown #
vertex $-1 $151 $155 #
straight-curve $-1 2 30 14 -1 0 0 I I #
straight-curve $-1 -38.399999999999999 36 -14 0 -1 0 I I #
point $-1 -38.399999999999999 30 -14 #
coedge $-1 $111 $150 $144 $156 forward $76 $-1 #
edge $-1 $146 0 $124 32.828301746664273 $111 $157 forward 7 unknown #
straight-curve $-1 -38.399999999999999 66.848512904273576 11.294815064490233 0 0 -1 I I #
plane-surface $-1 -38.399999999999999 36 14 -1 0 0 0 0 1 forward_v I I I I #
straight-curve $-1 2 30 14 0 1 0 I I #
coedge $-1 $118 $117 $139 $156 reversed $99 $-1 #
point $-1 2 36 14 #
vertex $-1 $140 $158 #
straight-curve $-1 2 36 22.522755533022622 -1 0 0 I I #
point $-1 -38.399999999999999 66.848512904273576 11.294815064490233 #
point $-1 2 30 14 #
coedge $-1 $139 $133 $131 $151 forward $76 $-1 #
edge $-1 $135 0 $152 6 $150 $159 forward 7 unknown #
vertex $-1 $156 $160 #
straight-curve $-1 2 36 14 -1 0 0 I I #
straight-curve $-1 -38.399999999999999 30 -14 0 0 1 I I #
point $-1 -38.399999999999999 30 14 #
edge $-1 $152 0 $146 8.5227555330226217 $139 $161 forward 7 unknown #
straight-curve $-1 -38.399999999999999 36 22.522755533022622 0 0.93969262078590876 -0.34202014332566777 I I #
point $-1 -38.399999999999999 36 22.522755533022622 #
straight-curve $-1 -38.399999999999999 30 14 0 1 0 I I #
point $-1 -38.399999999999999 36 14 #
straight-curve $-1 -38.399999999999999 36 14 0 0 1 I I #
End-of-ACIS-data 