700 0 2 0           
24 FBMach with ACIS - 7.0.3 13 ACIS 7.0.3 NT 24 Wed May 15 17:28:04 2002 
1 9.9999999999999995e-007 1e-010 
body $2 -1 $-1 $3 $-1 $4 #
bdycol-kcp $-1 -1 1 5 $5 $6 $7 $8 $9 #
model_id-kcp-attrib $-1 -1 $-1 $-1 $0 1 1021498083 1021498083 -1139408895 1 #
lump $-1 -1 $-1 $-1 $10 $0 #
transform $-1 -1 1 0 0 0 1.0000000000000004 -5.5511151231257827e-017 0 5.5511151231257827e-017 1.0000000000000004 0 -4.5474735088646412e-013 1.1368683772161603e-013 1 rotate no_reflect no_shear #
body $11 -1 $-1 $12 $-1 $13 #
body $14 -1 $-1 $15 $-1 $16 #
body $17 -1 $-1 $18 $-1 $19 #
body $20 -1 $-1 $21 $-1 $22 #
body $23 -1 $-1 $24 $-1 $25 #
shell $-1 -1 $-1 $-1 $-1 $26 $-1 $3 #
model_id-kcp-attrib $-1 -1 $-1 $-1 $5 1 1021498083 1021498083 -1139408894 1 #
lump $-1 -1 $-1 $-1 $27 $5 #
transform $-1 -1 1 0 0 0 1 0 0 0 1 -462.27999999999997 1229.9761138842744 -5.6843418860808015e-014 1 no_rotate no_reflect no_shear #
rgb_color-st-attrib $-1 -1 $28 $-1 $6 1 0.5 1 #
lump $-1 -1 $-1 $-1 $29 $6 #
transform $-1 -1 1 0 0 0 1 0 0 0 1 -462.27999999999997 1229.9761138842744 -5.6843418860808015e-014 1 no_rotate no_reflect no_shear #
rgb_color-st-attrib $-1 -1 $30 $-1 $7 0.5 0.5 1 #
lump $-1 -1 $-1 $-1 $31 $7 #
transform $-1 -1 1 0 0 0 1 0 0 0 1 -462.27999999999997 1229.9761138842744 -5.6843418860808015e-014 1 no_rotate no_reflect no_shear #
rgb_color-st-attrib $-1 -1 $32 $-1 $8 0.5 0.5 1 #
lump $-1 -1 $-1 $-1 $33 $8 #
transform $-1 -1 1 0 0 0 1 0 0 0 1 -462.27999999999997 1229.9761138842744 -5.6843418860808015e-014 1 no_rotate no_reflect no_shear #
rgb_color-st-attrib $-1 -1 $34 $-1 $9 1 0.5 1 #
lump $-1 -1 $-1 $-1 $35 $9 #
transform $-1 -1 1 0 0 0 1 0 0 0 1 -462.27999999999997 1229.9761138842744 -5.6843418860808015e-014 1 no_rotate no_reflect no_shear #
face $36 -1 $-1 $37 $38 $10 $-1 $39 reversed single #
shell $-1 -1 $-1 $-1 $-1 $40 $-1 $12 #
model_id-kcp-attrib $-1 -1 $-1 $14 $6 1 1021498083 1021498084 -1140523002 1 #
shell $-1 -1 $-1 $-1 $-1 $41 $-1 $15 #
model_id-kcp-attrib $-1 -1 $-1 $17 $7 1 1021498083 1021498084 -1140129789 1 #
shell $-1 -1 $-1 $-1 $-1 $42 $-1 $18 #
model_id-kcp-attrib $-1 -1 $-1 $20 $8 1 1021498083 1021498084 -1139474428 1 #
shell $-1 -1 $-1 $-1 $-1 $43 $-1 $21 #
model_id-kcp-attrib $-1 -1 $-1 $23 $9 1 1021498083 1021498084 -1128988667 1 #
shell $-1 -1 $-1 $-1 $-1 $44 $-1 $24 #
model_id-kcp-attrib $-1 -1 $-1 $-1 $26 1 1021498083 1021498083 -1139408895 2 #
face $45 -1 $-1 $46 $47 $10 $-1 $48 forward single #
loop $-1 -1 $-1 $-1 $49 $26 #
plane-surface $-1 -1 $-1 50.799999999999997 914.39999999999998 355.59999999999997 -1 0 0 0 0 25.399999999999999 forward_v I I I I #
face $-1 -1 $-1 $50 $51 $27 $-1 $52 forward single #
face $-1 -1 $-1 $53 $54 $29 $-1 $55 forward single #
face $-1 -1 $-1 $56 $57 $31 $-1 $58 reversed single #
face $-1 -1 $-1 $59 $60 $33 $-1 $61 reversed single #
face $-1 -1 $-1 $62 $63 $35 $-1 $64 forward single #
model_id-kcp-attrib $-1 -1 $-1 $-1 $37 1 1021498083 1021498083 -1139408895 3 #
face $65 -1 $-1 $66 $67 $10 $-1 $68 forward single #
loop $-1 -1 $-1 $-1 $69 $37 #
plane-surface $-1 -1 $-1 50.799999999999997 1697.9522277685487 -286.88830263805198 0 0.34202014332566788 -0.93969262078590876 0 -23.86819256796208 -8.6873116404719628 forward_v I I I I #
coedge $-1 -1 $-1 $70 $71 $72 $73 reversed $38 $-1 #
face $-1 -1 $-1 $74 $75 $27 $-1 $76 reversed single #
loop $-1 -1 $-1 $-1 $77 $40 #
plane-surface $-1 -1 $-1 0 0 572.07799053877466 0 0 1 1 0 0 forward_v I I I I #
face $-1 -1 $-1 $78 $79 $29 $-1 $80 forward single #
loop $-1 -1 $-1 $-1 $81 $41 #
plane-surface $-1 -1 $-1 513.07999999999993 -315.57611388427438 -355.59999999999991 1 0 0 0 0 -1 forward_v I I I I #
face $-1 -1 $-1 $82 $83 $31 $-1 $84 reversed single #
loop $-1 -1 $-1 $-1 $85 $42 #
plane-surface $-1 -1 $-1 0 76.200000000000159 -429.48314658841332 0 0.34202014332566788 -0.93969262078590876 -1 0 0 forward_v I I I I #
face $-1 -1 $-1 $86 $87 $33 $-1 $88 reversed single #
loop $-1 -1 $-1 $-1 $89 $43 #
plane-surface $-1 -1 $-1 0 76.200000000000159 429.48314658841332 0 0.34202014332566788 0.93969262078590876 -1 0 0 forward_v I I I I #
face $-1 -1 $-1 $90 $91 $35 $-1 $92 forward single #
loop $-1 -1 $-1 $-1 $93 $44 #
plane-surface $-1 -1 $-1 513.07999999999993 -380.57401540585874 595.73529198239748 0 -0.93969262078590876 0.34202014332566788 0 -0.34202014332566788 -0.93969262078590876 forward_v I I I I #
model_id-kcp-attrib $-1 -1 $-1 $-1 $46 1 1021498083 1021498083 -1139408895 4 #
face $94 -1 $-1 $95 $96 $10 $-1 $97 forward single #
loop $-1 -1 $-1 $-1 $98 $46 #
plane-surface $-1 -1 $-1 50.799999999999997 914.39999999999998 -572.07799053877466 0 -1 0 0 0 25.399999999999999 forward_v I I I I #
coedge $-1 -1 $-1 $99 $72 $100 $101 forward $47 $-1 #
coedge $-1 -1 $-1 $102 $49 $103 $104 reversed $38 $-1 #
coedge $-1 -1 $-1 $49 $105 $106 $107 reversed $38 $-1 #
coedge $-1 -1 $-1 $69 $108 $49 $73 forward $47 $-1 #
edge $109 -1 $-1 $110 0 $111 32.828301746664273 $49 $112 forward @7 unknown #
face $113 -1 $-1 $114 $115 $27 $-1 $116 reversed single #
loop $-1 -1 $-1 $-1 $117 $50 #
plane-surface $-1 -1 $-1 0 0 -572.07799053877466 0 0 1 1 0 0 forward_v I I I I #
coedge $-1 -1 $-1 $118 $119 $120 $121 forward $51 $-1 #
face $-1 -1 $-1 $122 $123 $29 $-1 $124 forward single #
loop $-1 -1 $-1 $-1 $125 $53 #
plane-surface $-1 -1 $-1 513.07999999999993 -315.57611388427432 -572.07799053877466 0 0 -1 -1 0 0 forward_v I I I I #
coedge $-1 -1 $-1 $126 $127 $128 $129 forward $54 $-1 #
face $-1 -1 $-1 $130 $131 $31 $-1 $132 reversed single #
loop $-1 -1 $-1 $-1 $133 $56 #
plane-surface $-1 -1 $-1 513.07999999999993 0 0 -1 0 0 0 0 1 forward_v I I I I #
coedge $-1 -1 $-1 $134 $135 $136 $137 forward $57 $-1 #
face $-1 -1 $-1 $138 $139 $33 $-1 $140 forward single #
loop $-1 -1 $-1 $-1 $141 $59 #
plane-surface $-1 -1 $-1 -513.07999999999993 0 0 1 0 0 0 0 -1 forward_v I I I I #
coedge $-1 -1 $-1 $142 $143 $144 $145 forward $60 $-1 #
face $-1 -1 $-1 $146 $147 $35 $-1 $148 forward single #
loop $-1 -1 $-1 $-1 $149 $62 #
plane-surface $-1 -1 $-1 -513.07999999999993 -315.57611388427438 355.60000000000002 -1 0 0 0 0 1 forward_v I I I I #
coedge $-1 -1 $-1 $150 $151 $152 $153 forward $63 $-1 #
model_id-kcp-attrib $-1 -1 $-1 $-1 $66 1 1021498083 1021498083 -1139408895 5 #
face $154 -1 $-1 $155 $156 $10 $-1 $157 forward single #
loop $-1 -1 $-1 $-1 $158 $66 #
plane-surface $-1 -1 $-1 50.799999999999997 914.39999999999998 -355.59999999999997 0 0 -1 0 -25.399999999999999 0 forward_v I I I I #
coedge $-1 -1 $-1 $159 $106 $160 $161 forward $67 $-1 #
coedge $-1 -1 $-1 $108 $69 $162 $163 reversed $47 $-1 #
coedge $-1 -1 $-1 $106 $159 $69 $101 reversed $67 $-1 #
edge $164 -1 $-1 $111 0 $165 40.399999999999999 $100 $166 forward @7 unknown #
coedge $-1 -1 $-1 $167 $70 $168 $169 reversed $38 $-1 #
coedge $-1 -1 $-1 $170 $171 $70 $104 forward $172 $-1 #
edge $173 -1 $-1 $174 0 $110 22.589630128980474 $70 $175 forward @7 unknown #
coedge $-1 -1 $-1 $71 $176 $177 $178 reversed $38 $-1 #
coedge $-1 -1 $-1 $98 $100 $71 $107 forward $67 $-1 #
edge $179 -1 $-1 $111 0 $180 8.5227555330226252 $71 $181 forward @7 unknown #
coedge $-1 -1 $-1 $72 $99 $170 $182 reversed $47 $-1 #
attrib_edge_convexity-kcp-attrib $-1 -1 $183 $-1 $73 1 #
vertex $-1 -1 $-1 $104 $184 #
vertex $-1 -1 $-1 $107 $185 #
straight-curve $-1 -1 $-1 50.799999999999997 1697.9522277685487 -286.88830263805198 0 -23.86819256796208 -8.6873116404719628 I I #
model_id-kcp-attrib $-1 -1 $-1 $-1 $74 1 1021498083 1021498083 -1139408894 3 #
face $186 -1 $-1 $187 $188 $27 $-1 $189 reversed single #
loop $-1 -1 $-1 $-1 $190 $74 #
plane-surface $-1 -1 $-1 0 -467.97611388427435 0 0 1 0 0 0 1 forward_v I I I I #
coedge $-1 -1 $-1 $191 $192 $193 $194 forward $75 $-1 #
coedge $-1 -1 $-1 $195 $77 $196 $197 forward $51 $-1 #
coedge $-1 -1 $-1 $77 $195 $198 $199 forward $51 $-1 #
coedge $-1 -1 $-1 $200 $201 $77 $121 reversed $202 $-1 #
edge $-1 -1 $-1 $203 -467.97611388427435 $204 467.97611388427435 $120 $205 forward @7 unknown #
face $-1 -1 $-1 $206 $207 $29 $-1 $208 forward single #
loop $-1 -1 $-1 $-1 $209 $78 #
plane-surface $-1 -1 $-1 -513.07999999999993 -315.57611388427432 -572.07799053877466 -1 0 0 0 0 1 forward_v I I I I #
coedge $-1 -1 $-1 $210 $211 $212 $213 forward $79 $-1 #
coedge $-1 -1 $-1 $214 $81 $211 $215 reversed $54 $-1 #
coedge $-1 -1 $-1 $81 $214 $216 $217 forward $54 $-1 #
coedge $-1 -1 $-1 $218 $212 $81 $129 reversed $219 $-1 #
edge $-1 -1 $-1 $220 123.6805023653063 $221 340.15849290408107 $81 $222 forward @7 unknown #
face $-1 -1 $-1 $223 $224 $31 $-1 $225 forward single #
loop $-1 -1 $-1 $-1 $136 $82 #
plane-surface $-1 -1 $-1 0 0 -572.07799053877466 0 0 1 1 0 0 forward_v I I I I #
coedge $-1 -1 $-1 $226 $227 $134 $228 reversed $83 $-1 #
coedge $-1 -1 $-1 $229 $85 $133 $228 forward $57 $-1 #
coedge $-1 -1 $-1 $85 $229 $230 $231 forward $57 $-1 #
coedge $-1 -1 $-1 $232 $233 $85 $137 reversed $131 $-1 #
edge $234 -1 $-1 $235 -513.07999999999993 $236 513.07999999999993 $136 $237 forward @7 unknown #
face $-1 -1 $-1 $238 $239 $33 $-1 $240 reversed single #
loop $-1 -1 $-1 $-1 $144 $86 #
plane-surface $-1 -1 $-1 0 0 572.07799053877466 0 0 1 1 0 0 forward_v I I I I #
coedge $-1 -1 $-1 $241 $242 $142 $243 reversed $87 $-1 #
coedge $-1 -1 $-1 $244 $89 $141 $243 forward $60 $-1 #
coedge $-1 -1 $-1 $89 $244 $245 $246 forward $60 $-1 #
coedge $-1 -1 $-1 $247 $248 $89 $145 reversed $139 $-1 #
edge $249 -1 $-1 $250 -513.07999999999993 $251 513.07999999999993 $144 $252 forward @7 unknown #
face $-1 -1 $-1 $253 $254 $35 $-1 $255 forward single #
loop $-1 -1 $-1 $-1 $152 $90 #
plane-surface $-1 -1 $-1 -513.07999999999993 -315.57611388427432 572.07799053877466 0 0 1 1 0 0 forward_v I I I I #
coedge $-1 -1 $-1 $256 $257 $150 $258 reversed $91 $-1 #
coedge $-1 -1 $-1 $259 $93 $149 $258 forward $63 $-1 #
coedge $-1 -1 $-1 $93 $259 $260 $261 forward $63 $-1 #
coedge $-1 -1 $-1 $262 $263 $93 $153 reversed $147 $-1 #
edge $-1 -1 $-1 $264 -513.07999999999993 $265 513.07999999999993 $152 $266 forward @7 unknown #
model_id-kcp-attrib $-1 -1 $-1 $-1 $95 1 1021498083 1021498083 -1139408895 6 #
face $267 -1 $-1 $268 $269 $10 $-1 $270 forward single #
loop $-1 -1 $-1 $-1 $271 $95 #
plane-surface $-1 -1 $-1 50.799999999999997 762 -355.59999999999997 0 -1 0 0 0 25.399999999999999 forward_v I I I I #
coedge $-1 -1 $-1 $272 $177 $273 $274 forward $96 $-1 #
coedge $-1 -1 $-1 $100 $98 $275 $276 reversed $67 $-1 #
coedge $-1 -1 $-1 $177 $272 $98 $161 reversed $96 $-1 #
edge $277 -1 $-1 $180 0 $278 40.399999999999999 $98 $279 forward @7 unknown #
coedge $-1 -1 $-1 $275 $280 $99 $163 forward $281 $-1 #
edge $282 -1 $-1 $283 0 $165 32.828301746664273 $162 $284 forward @7 unknown #
attrib_edge_convexity-kcp-attrib $-1 -1 $285 $-1 $101 1 #
vertex $-1 -1 $-1 $276 $286 #
straight-curve $-1 -1 $-1 50.799999999999997 914.40000000000009 -572.07799053877454 -25.399999999999999 0 0 I I #
coedge $-1 -1 $-1 $287 $102 $288 $289 reversed $38 $-1 #
coedge $-1 -1 $-1 $290 $291 $102 $169 forward $292 $-1 #
edge $293 -1 $-1 $294 0 $174 32.828301746664266 $102 $295 forward @7 unknown #
coedge $-1 -1 $-1 $296 $103 $108 $182 forward $172 $-1 #
coedge $-1 -1 $-1 $103 $296 $290 $297 reversed $172 $-1 #
loop $-1 -1 $-1 $-1 $170 $298 #
attrib_edge_convexity-kcp-attrib $-1 -1 $299 $-1 $104 1 #
vertex $-1 -1 $-1 $169 $300 #
straight-curve $-1 -1 $-1 50.799999999999997 1697.9522277685487 286.88830263805193 0 0 -25.399999999999999 I I #
coedge $-1 -1 $-1 $105 $287 $301 $302 reversed $38 $-1 #
coedge $-1 -1 $-1 $158 $160 $105 $178 forward $96 $-1 #
edge $303 -1 $-1 $180 0 $304 5.9999999999999991 $105 $305 forward @7 unknown #
attrib_edge_convexity-kcp-attrib $-1 -1 $306 $-1 $107 1 #
vertex $-1 -1 $-1 $107 $307 #
straight-curve $-1 -1 $-1 50.799999999999997 914.39999999999998 -572.07799053877466 0 0 25.399999999999999 I I #
edge $308 -1 $-1 $110 0 $283 40.399999999999999 $170 $309 forward @7 unknown #
convexity-sys-attrib $-1 -1 $-1 $109 $73 #
point $-1 -1 $-1 50.799999999999997 1697.9522277685487 -286.88830263805198 #
point $-1 -1 $-1 50.799999999999997 914.39999999999998 -572.07799053877466 #
model_id-kcp-attrib $-1 -1 $-1 $-1 $114 1 1021498083 1021498083 -1139408894 5 #
face $310 -1 $-1 $311 $312 $27 $-1 $313 reversed single #
loop $-1 -1 $-1 $-1 $314 $114 #
plane-surface $-1 -1 $-1 -513.07999999999993 0 0 1 0 0 0 0 -1 forward_v I I I I #
coedge $-1 -1 $-1 $315 $198 $316 $317 forward $115 $-1 #
coedge $-1 -1 $-1 $318 $117 $315 $319 forward $75 $-1 #
coedge $-1 -1 $-1 $117 $318 $320 $321 forward $75 $-1 #
coedge $-1 -1 $-1 $201 $200 $117 $194 reversed $202 $-1 #
edge $-1 -1 $-1 $322 -467.97611388427435 $323 467.97611388427435 $193 $324 forward @7 unknown #
coedge $-1 -1 $-1 $119 $118 $325 $326 forward $51 $-1 #
coedge $-1 -1 $-1 $327 $328 $118 $197 reversed $312 $-1 #
edge $-1 -1 $-1 $204 -513.07999999999993 $329 513.07999999999993 $196 $330 forward @7 unknown #
coedge $-1 -1 $-1 $190 $331 $119 $199 reversed $115 $-1 #
edge $-1 -1 $-1 $332 -513.07999999999993 $203 513.07999999999993 $198 $333 forward @7 unknown #
coedge $-1 -1 $-1 $193 $120 $331 $334 forward $202 $-1 #
coedge $-1 -1 $-1 $120 $193 $327 $335 reversed $202 $-1 #
loop $-1 -1 $-1 $-1 $200 $311 #
vertex $-1 -1 $-1 $121 $336 #
vertex $-1 -1 $-1 $121 $337 #
straight-curve $-1 -1 $-1 513.07999999999993 0 572.07799053877466 0 1 0 I I #
face $-1 -1 $-1 $338 $219 $29 $-1 $339 reversed single #
loop $-1 -1 $-1 $-1 $340 $122 #
plane-surface $-1 -1 $-1 -513.07999999999993 -315.57611388427438 -355.59999999999991 0 0 1 1 0 0 forward_v I I I I #
coedge $-1 -1 $-1 $341 $342 $343 $344 forward $123 $-1 #
coedge $-1 -1 $-1 $345 $125 $342 $346 reversed $79 $-1 #
coedge $-1 -1 $-1 $125 $345 $126 $215 forward $79 $-1 #
coedge $-1 -1 $-1 $128 $343 $125 $213 reversed $219 $-1 #
edge $-1 -1 $-1 $221 -513.07999999999993 $347 513.07999999999993 $125 $348 forward @7 unknown #
coedge $-1 -1 $-1 $127 $126 $349 $350 reversed $54 $-1 #
edge $-1 -1 $-1 $351 0 $221 152.39999999999998 $211 $352 forward @7 unknown #
coedge $-1 -1 $-1 $353 $340 $127 $217 reversed $207 $-1 #
edge $-1 -1 $-1 $354 0 $220 152.39999999999998 $127 $355 forward @7 unknown #
coedge $-1 -1 $-1 $343 $128 $340 $356 reversed $219 $-1 #
loop $-1 -1 $-1 $-1 $128 $206 #
vertex $-1 -1 $-1 $217 $357 #
vertex $-1 -1 $-1 $215 $358 #
straight-curve $-1 -1 $-1 513.07999999999993 -467.97611388427447 -231.91949763469361 0 0 -1 I I #
face $-1 -1 $-1 $-1 $359 $31 $-1 $360 reversed single #
loop $-1 -1 $-1 $-1 $361 $130 #
plane-surface $-1 -1 $-1 -513.07999999999993 652.38436018401603 219.76919003171588 0 0.93969262078590876 -0.34202014332566788 0 0.34202014332566788 0.93969262078590876 forward_v I I I I #
coedge $-1 -1 $-1 $227 $133 $233 $362 reversed $83 $-1 #
coedge $-1 -1 $-1 $133 $226 $363 $364 forward $83 $-1 #
edge $365 -1 $-1 $236 -454.56308700675714 $366 379.2757773585152 $133 $367 forward @7 unknown #
coedge $-1 -1 $-1 $135 $134 $361 $368 forward $57 $-1 #
coedge $-1 -1 $-1 $369 $370 $135 $231 reversed $359 $-1 #
edge $371 -1 $-1 $372 -379.2757773585152 $235 454.56308700675714 $230 $373 forward @7 unknown #
coedge $-1 -1 $-1 $374 $136 $370 $375 forward $131 $-1 #
coedge $-1 -1 $-1 $136 $374 $226 $362 forward $131 $-1 #
convexity-sys-attrib $-1 -1 $-1 $-1 $137 #
vertex $-1 -1 $-1 $375 $376 #
vertex $-1 -1 $-1 $137 $377 #
straight-curve $-1 -1 $-1 0 -315.57611388427443 -572.07799053877466 1 0 0 I I #
face $-1 -1 $-1 $-1 $378 $33 $-1 $379 reversed single #
loop $-1 -1 $-1 $-1 $380 $138 #
plane-surface $-1 -1 $-1 0 467.97611388427435 0 0 -1 0 0 0 -1 forward_v I I I I #
coedge $-1 -1 $-1 $242 $141 $248 $381 reversed $87 $-1 #
coedge $-1 -1 $-1 $141 $241 $382 $383 forward $87 $-1 #
edge $384 -1 $-1 $251 -454.56308700675714 $385 379.27577735851526 $141 $386 forward @7 unknown #
coedge $-1 -1 $-1 $143 $142 $380 $387 forward $60 $-1 #
coedge $-1 -1 $-1 $388 $389 $143 $246 reversed $378 $-1 #
edge $390 -1 $-1 $391 -379.27577735851526 $250 454.56308700675714 $245 $392 forward @7 unknown #
coedge $-1 -1 $-1 $393 $144 $389 $394 forward $139 $-1 #
coedge $-1 -1 $-1 $144 $393 $241 $381 forward $139 $-1 #
convexity-sys-attrib $-1 -1 $-1 $-1 $145 #
vertex $-1 -1 $-1 $394 $395 #
vertex $-1 -1 $-1 $145 $396 #
straight-curve $-1 -1 $-1 0 -315.57611388427443 572.07799053877466 -1 0 0 I I #
face $-1 -1 $-1 $397 $398 $35 $-1 $399 forward single #
loop $-1 -1 $-1 $-1 $260 $146 #
plane-surface $-1 -1 $-1 513.07999999999993 -315.57611388427432 572.07799053877466 1 0 0 0 0 -1 forward_v I I I I #
coedge $-1 -1 $-1 $400 $149 $263 $401 reversed $91 $-1 #
coedge $-1 -1 $-1 $149 $400 $402 $403 forward $91 $-1 #
edge $-1 -1 $-1 $265 -76.53581078285859 $404 153.83525497875604 $149 $405 forward @7 unknown #
coedge $-1 -1 $-1 $151 $150 $406 $407 reversed $63 $-1 #
coedge $-1 -1 $-1 $408 $409 $151 $261 reversed $254 $-1 #
edge $-1 -1 $-1 $410 -255.54664011468023 $264 -25.175574353065606 $260 $411 forward @7 unknown #
coedge $-1 -1 $-1 $412 $152 $409 $413 reversed $147 $-1 #
coedge $-1 -1 $-1 $152 $412 $256 $401 forward $147 $-1 #
vertex $-1 -1 $-1 $153 $414 #
vertex $-1 -1 $-1 $258 $415 #
straight-curve $-1 -1 $-1 0 -389.18456895440022 572.07799053877466 -1 0 0 I I #
model_id-kcp-attrib $-1 -1 $-1 $-1 $155 1 1021498083 1021498083 -1139408895 7 #
face $416 -1 $-1 $417 $418 $10 $-1 $419 forward single #
loop $-1 -1 $-1 $-1 $420 $155 #
plane-surface $-1 -1 $-1 50.799999999999997 762 355.59999999999997 0 0 1 0 25.399999999999999 0 forward_v I I I I #
coedge $-1 -1 $-1 $421 $301 $422 $423 forward $156 $-1 #
coedge $-1 -1 $-1 $160 $158 $424 $425 reversed $96 $-1 #
coedge $-1 -1 $-1 $301 $421 $158 $274 reversed $156 $-1 #
edge $426 -1 $-1 $304 0 $427 40.399999999999999 $158 $428 forward @7 unknown #
coedge $-1 -1 $-1 $424 $162 $159 $276 forward $281 $-1 #
edge $429 -1 $-1 $165 0 $278 8.5227555330226252 $275 $430 forward @7 unknown #
attrib_edge_convexity-kcp-attrib $-1 -1 $431 $-1 $161 2 #
vertex $-1 -1 $-1 $276 $432 #
straight-curve $-1 -1 $-1 50.799999999999997 914.39999999999998 -355.59999999999997 -25.399999999999999 0 0 I I #
coedge $-1 -1 $-1 $162 $433 $296 $434 forward $281 $-1 #
loop $-1 -1 $-1 $-1 $424 $435 #
attrib_edge_convexity-kcp-attrib $-1 -1 $436 $-1 $163 1 #
vertex $-1 -1 $-1 $163 $437 #
straight-curve $-1 -1 $-1 -975.3599999999999 1697.9522277685487 -286.88830263805198 0 -23.86819256796208 -8.6873116404719628 I I #
convexity-sys-attrib $-1 -1 $-1 $164 $101 #
point $-1 -1 $-1 -975.3599999999999 914.39999999999998 -572.07799053877466 #
coedge $-1 -1 $-1 $176 $167 $438 $439 reversed $38 $-1 #
coedge $-1 -1 $-1 $440 $441 $167 $289 forward $418 $-1 #
edge $442 -1 $-1 $443 0 $294 8.5227555330226217 $167 $444 forward @7 unknown #
coedge $-1 -1 $-1 $445 $168 $171 $297 forward $292 $-1 #
coedge $-1 -1 $-1 $168 $445 $440 $446 reversed $292 $-1 #
loop $-1 -1 $-1 $-1 $290 $417 #
attrib_edge_convexity-kcp-attrib $-1 -1 $447 $-1 $169 1 #
vertex $-1 -1 $-1 $289 $448 #
straight-curve $-1 -1 $-1 50.799999999999997 914.39999999999998 572.07799053877454 0 23.86819256796208 -8.687311640471961 I I #
coedge $-1 -1 $-1 $171 $170 $280 $434 reversed $172 $-1 #
edge $449 -1 $-1 $174 0 $450 40.399999999999999 $290 $451 forward @7 unknown #
face $452 -1 $-1 $435 $172 $10 $-1 $453 forward single #
convexity-sys-attrib $-1 -1 $-1 $173 $104 #
point $-1 -1 $-1 50.799999999999997 1697.9522277685487 286.88830263805193 #
coedge $-1 -1 $-1 $271 $273 $176 $302 forward $156 $-1 #
edge $454 -1 $-1 $304 0 $455 28 $176 $456 forward @7 unknown #
attrib_edge_convexity-kcp-attrib $-1 -1 $457 $-1 $178 1 #
vertex $-1 -1 $-1 $178 $458 #
straight-curve $-1 -1 $-1 50.799999999999997 914.39999999999998 -355.59999999999997 0 -25.399999999999999 0 I I #
convexity-sys-attrib $-1 -1 $-1 $179 $107 #
point $-1 -1 $-1 50.799999999999997 914.39999999999998 -355.59999999999997 #
attrib_edge_convexity-kcp-attrib $-1 -1 $459 $-1 $182 1 #
straight-curve $-1 -1 $-1 50.799999999999997 1697.9522277685487 -286.88830263805198 -25.399999999999999 0 0 I I #
model_id-kcp-attrib $-1 -1 $-1 $-1 $187 1 1021498083 1021498083 -1139408894 4 #
face $460 -1 $-1 $-1 $202 $27 $-1 $461 reversed single #
loop $-1 -1 $-1 $-1 $327 $187 #
plane-surface $-1 -1 $-1 0 467.97611388427435 0 0 -1 0 0 0 -1 forward_v I I I I #
coedge $-1 -1 $-1 $462 $325 $328 $463 forward $188 $-1 #
coedge $-1 -1 $-1 $331 $190 $191 $319 reversed $115 $-1 #
coedge $-1 -1 $-1 $325 $462 $190 $317 reversed $188 $-1 #
edge $-1 -1 $-1 $332 -572.07799053877466 $464 572.07799053877466 $316 $465 forward @7 unknown #
coedge $-1 -1 $-1 $192 $191 $462 $466 forward $75 $-1 #
edge $-1 -1 $-1 $323 -513.07999999999993 $464 513.07999999999993 $315 $467 forward @7 unknown #
coedge $-1 -1 $-1 $328 $327 $192 $321 reversed $312 $-1 #
edge $-1 -1 $-1 $468 -513.07999999999993 $322 513.07999999999993 $320 $469 forward @7 unknown #
vertex $-1 -1 $-1 $194 $470 #
vertex $-1 -1 $-1 $334 $471 #
straight-curve $-1 -1 $-1 513.07999999999993 0 -572.07799053877466 0 -1 0 I I #
coedge $-1 -1 $-1 $314 $316 $195 $326 reversed $188 $-1 #
edge $-1 -1 $-1 $329 -467.97611388427435 $332 467.97611388427435 $325 $472 forward @7 unknown #
coedge $-1 -1 $-1 $320 $196 $201 $335 forward $312 $-1 #
coedge $-1 -1 $-1 $196 $320 $314 $463 reversed $312 $-1 #
vertex $-1 -1 $-1 $197 $473 #
straight-curve $-1 -1 $-1 0 467.97611388427435 572.07799053877466 -1 0 0 I I #
coedge $-1 -1 $-1 $198 $315 $200 $334 reversed $115 $-1 #
vertex $-1 -1 $-1 $326 $474 #
straight-curve $-1 -1 $-1 0 -467.97611388427435 572.07799053877466 1 0 0 I I #
edge $-1 -1 $-1 $203 -572.07799053877466 $323 572.07799053877466 $200 $475 forward @7 unknown #
edge $-1 -1 $-1 $204 -572.07799053877466 $322 572.07799053877466 $201 $476 forward @7 unknown #
point $-1 -1 $-1 513.07999999999993 -467.97611388427435 572.07799053877466 #
point $-1 -1 $-1 513.07999999999993 467.97611388427435 572.07799053877466 #
face $-1 -1 $-1 $-1 $477 $29 $-1 $478 forward single #
plane-surface $-1 -1 $-1 0 -467.97611388427435 -463.83899526938711 -4.1339032739946885e-018 1 1.9595738915926842e-016 0 -1.9595738915926842e-016 1 forward_v I I I I #
coedge $-1 -1 $-1 $216 $479 $218 $356 forward $207 $-1 #
coedge $-1 -1 $-1 $480 $209 $479 $481 reversed $123 $-1 #
coedge $-1 -1 $-1 $209 $480 $210 $346 forward $123 $-1 #
coedge $-1 -1 $-1 $212 $218 $209 $344 reversed $219 $-1 #
edge $-1 -1 $-1 $347 -340.15849290408107 $482 -123.6805023653063 $209 $483 forward @7 unknown #
coedge $-1 -1 $-1 $211 $210 $484 $485 forward $79 $-1 #
edge $-1 -1 $-1 $486 0 $347 152.39999999999998 $342 $487 forward @7 unknown #
vertex $-1 -1 $-1 $346 $488 #
straight-curve $-1 -1 $-1 0 -467.97611388427441 -572.07799053877466 -1 0 0 I I #
coedge $-1 -1 $-1 $484 $489 $214 $350 forward $477 $-1 #
edge $490 -1 $-1 $354 123.6805023653063 $351 340.15849290408107 $214 $491 forward @7 unknown #
vertex $-1 -1 $-1 $350 $492 #
straight-curve $-1 -1 $-1 513.07999999999993 -315.57611388427432 -572.07799053877466 0 -1 0 I I #
coedge $-1 -1 $-1 $479 $216 $489 $493 reversed $207 $-1 #
vertex $-1 -1 $-1 $493 $494 #
straight-curve $-1 -1 $-1 513.07999999999993 -315.57611388427438 -355.59999999999991 0 -1 0 I I #
edge $-1 -1 $-1 $482 -769.61999999999989 $220 256.53999999999996 $340 $495 forward @7 unknown #
point $-1 -1 $-1 513.07999999999993 -467.97611388427435 -355.59999999999991 #
point $-1 -1 $-1 513.07999999999993 -467.9761138842743 -572.07799053877466 #
loop $-1 -1 $-1 $-1 $230 $223 #
plane-surface $-1 -1 $-1 -513.07999999999993 0 0 1 0 0 0 0 -1 forward_v I I I I #
coedge $-1 -1 $-1 $363 $496 $229 $368 reversed $224 $-1 #
edge $-1 -1 $-1 $497 -364.17555636874363 $236 315.57611388427432 $226 $498 forward @7 unknown #
coedge $-1 -1 $-1 $499 $361 $227 $364 reversed $224 $-1 #
edge $-1 -1 $-1 $497 -627.8441294996054 $366 -324.35160269631405 $227 $500 forward @7 unknown #
convexity-sys-attrib $-1 -1 $-1 $-1 $228 #
vertex $-1 -1 $-1 $364 $501 #
straight-curve $-1 -1 $-1 513.07999999999993 111.57346465763834 -416.60825837016557 0 0.93969262078590876 0.34202014332566788 I I #
edge $502 -1 $-1 $366 -769.61999999999989 $372 256.53999999999996 $361 $503 forward @7 unknown #
coedge $-1 -1 $-1 $370 $230 $496 $504 forward $359 $-1 #
coedge $-1 -1 $-1 $230 $369 $232 $375 reversed $359 $-1 #
convexity-sys-attrib $-1 -1 $-1 $-1 $231 #
vertex $-1 -1 $-1 $368 $505 #
straight-curve $-1 -1 $-1 -513.07999999999993 111.57346465763834 -416.60825837016557 0 -0.93969262078590876 -0.34202014332566788 I I #
coedge $-1 -1 $-1 $233 $232 $499 $506 forward $131 $-1 #
edge $-1 -1 $-1 $235 -315.57611388427432 $507 364.17555636874363 $370 $508 forward @7 unknown #
point $-1 -1 $-1 -513.07999999999993 -315.57611388427432 -572.07799053877466 #
point $-1 -1 $-1 513.07999999999993 -315.57611388427432 -572.07799053877466 #
loop $-1 -1 $-1 $-1 $245 $238 #
plane-surface $-1 -1 $-1 513.07999999999993 0 0 -1 0 0 0 0 1 forward_v I I I I #
coedge $-1 -1 $-1 $382 $509 $244 $387 reversed $239 $-1 #
edge $-1 -1 $-1 $510 -467.97611388427435 $251 315.57611388427432 $241 $511 forward @7 unknown #
coedge $-1 -1 $-1 $512 $380 $242 $383 reversed $239 $-1 #
edge $-1 -1 $-1 $510 -572.07799053877466 $385 -286.88830263805204 $382 $513 forward @7 unknown #
convexity-sys-attrib $-1 -1 $-1 $-1 $243 #
vertex $-1 -1 $-1 $243 $514 #
straight-curve $-1 -1 $-1 -513.07999999999993 111.57346465763834 416.60825837016557 0 0.93969262078590876 -0.34202014332566788 I I #
edge $515 -1 $-1 $385 -513.07999999999993 $391 513.07999999999993 $380 $516 forward @7 unknown #
coedge $-1 -1 $-1 $389 $245 $509 $517 reversed $378 $-1 #
coedge $-1 -1 $-1 $245 $388 $247 $394 reversed $378 $-1 #
convexity-sys-attrib $-1 -1 $-1 $-1 $246 #
vertex $-1 -1 $-1 $246 $518 #
straight-curve $-1 -1 $-1 513.07999999999993 111.57346465763834 416.60825837016557 0 -0.93969262078590876 0.34202014332566788 I I #
coedge $-1 -1 $-1 $248 $247 $512 $519 forward $139 $-1 #
edge $-1 -1 $-1 $250 -315.57611388427432 $520 467.97611388427435 $389 $521 forward @7 unknown #
point $-1 -1 $-1 513.07999999999993 -315.57611388427432 572.07799053877466 #
point $-1 -1 $-1 -513.07999999999993 -315.57611388427432 572.07799053877466 #
face $-1 -1 $-1 $-1 $522 $35 $-1 $523 forward single #
loop $-1 -1 $-1 $-1 $406 $253 #
plane-surface $-1 -1 $-1 513.07999999999993 -315.57611388427438 355.60000000000002 0 0 -1 -1 0 0 forward_v I I I I #
coedge $-1 -1 $-1 $257 $256 $524 $525 reversed $91 $-1 #
edge $-1 -1 $-1 $526 0 $265 73.608455070125956 $263 $527 forward @7 unknown #
coedge $-1 -1 $-1 $528 $406 $257 $403 reversed $398 $-1 #
edge $-1 -1 $-1 $529 0 $404 152.39999999999998 $257 $530 forward @7 unknown #
vertex $-1 -1 $-1 $403 $531 #
straight-curve $-1 -1 $-1 -513.07999999999981 -415.3613579278998 500.15785392025589 0 -0.34202014332566788 -0.93969262078590876 I I #
coedge $-1 -1 $-1 $402 $532 $259 $407 forward $398 $-1 #
edge $-1 -1 $-1 $410 -256.53999999999996 $404 769.61999999999989 $406 $533 forward @7 unknown #
coedge $-1 -1 $-1 $534 $260 $532 $535 reversed $254 $-1 #
coedge $-1 -1 $-1 $260 $534 $262 $413 forward $254 $-1 #
vertex $-1 -1 $-1 $535 $536 #
straight-curve $-1 -1 $-1 513.07999999999993 -380.57401540585874 595.73529198239737 0 0.34202014332566788 0.93969262078590876 I I #
coedge $-1 -1 $-1 $263 $262 $537 $538 forward $147 $-1 #
edge $-1 -1 $-1 $539 0 $264 73.608455070125956 $409 $540 forward @7 unknown #
point $-1 -1 $-1 513.07999999999993 -389.18456895440028 572.07799053877466 #
point $-1 -1 $-1 -513.07999999999993 -389.18456895440028 572.07799053877466 #
model_id-kcp-attrib $-1 -1 $-1 $-1 $268 1 1021498083 1021498083 -1139408895 8 #
face $541 -1 $-1 $298 $292 $10 $-1 $542 forward single #
loop $-1 -1 $-1 $-1 $440 $268 #
plane-surface $-1 -1 $-1 50.799999999999997 914.39999999999998 355.59999999999997 0 -1 0 0 0 25.399999999999999 forward_v I I I I #
coedge $-1 -1 $-1 $543 $438 $441 $544 forward $269 $-1 #
coedge $-1 -1 $-1 $273 $271 $545 $546 reversed $156 $-1 #
coedge $-1 -1 $-1 $438 $543 $271 $423 reversed $269 $-1 #
edge $547 -1 $-1 $455 0 $548 40.399999999999999 $271 $549 forward @7 unknown #
coedge $-1 -1 $-1 $545 $275 $272 $425 forward $281 $-1 #
edge $550 -1 $-1 $278 0 $427 5.9999999999999991 $424 $551 forward @7 unknown #
attrib_edge_convexity-kcp-attrib $-1 -1 $552 $-1 $274 1 #
vertex $-1 -1 $-1 $546 $553 #
straight-curve $-1 -1 $-1 50.799999999999997 762 -355.59999999999997 -25.399999999999999 0 0 I I #
attrib_edge_convexity-kcp-attrib $-1 -1 $554 $-1 $276 1 #
straight-curve $-1 -1 $-1 -975.3599999999999 914.39999999999998 -572.07799053877466 0 0 25.399999999999999 I I #
convexity-sys-attrib $-1 -1 $-1 $277 $161 #
point $-1 -1 $-1 -975.3599999999999 914.39999999999998 -355.59999999999997 #
coedge $-1 -1 $-1 $280 $555 $445 $556 forward $281 $-1 #
edge $-1 -1 $-1 $450 0 $283 22.589630128980474 $280 $557 forward @7 unknown #
face $558 -1 $-1 $-1 $281 $10 $-1 $559 forward single #
convexity-sys-attrib $-1 -1 $-1 $282 $163 #
point $-1 -1 $-1 -975.3599999999999 1697.9522277685487 -286.88830263805198 #
coedge $-1 -1 $-1 $420 $422 $287 $439 forward $269 $-1 #
edge $560 -1 $-1 $455 0 $443 5.9999999999999991 $287 $561 forward @7 unknown #
coedge $-1 -1 $-1 $562 $288 $291 $446 forward $418 $-1 #
coedge $-1 -1 $-1 $288 $562 $420 $544 reversed $418 $-1 #
attrib_edge_convexity-kcp-attrib $-1 -1 $563 $-1 $289 1 #
vertex $-1 -1 $-1 $439 $564 #
straight-curve $-1 -1 $-1 50.799999999999997 914.39999999999998 355.59999999999997 0 0 25.399999999999999 I I #
coedge $-1 -1 $-1 $291 $290 $433 $556 reversed $292 $-1 #
edge $565 -1 $-1 $294 0 $566 40.399999999999999 $440 $567 forward @7 unknown #
convexity-sys-attrib $-1 -1 $-1 $293 $169 #
point $-1 -1 $-1 50.799999999999997 914.39999999999998 572.07799053877454 #
attrib_edge_convexity-kcp-attrib $-1 -1 $568 $-1 $297 1 #
vertex $-1 -1 $-1 $434 $569 #
straight-curve $-1 -1 $-1 50.799999999999997 1697.9522277685487 286.88830263805198 -25.399999999999999 0 0 I I #
model_id-kcp-attrib $-1 -1 $-1 $-1 $298 1 1021498083 1021498083 -1139408895 10 #
plane-surface $-1 -1 $-1 50.799999999999997 1697.9522277685487 286.88830263805193 0 1 0 0 0 -25.399999999999999 forward_v I I I I #
attrib_edge_convexity-kcp-attrib $-1 -1 $570 $-1 $302 1 #
vertex $-1 -1 $-1 $302 $571 #
straight-curve $-1 -1 $-1 50.799999999999997 762 -355.59999999999997 0 0 25.399999999999999 I I #
convexity-sys-attrib $-1 -1 $-1 $303 $178 #
point $-1 -1 $-1 50.799999999999997 762 -355.59999999999997 #
convexity-sys-attrib $-1 -1 $-1 $308 $182 #
model_id-kcp-attrib $-1 -1 $-1 $-1 $311 1 1021498083 1021498083 -1139408894 2 #
plane-surface $-1 -1 $-1 513.07999999999993 0 0 -1 0 0 0 0 1 forward_v I I I I #
coedge $-1 -1 $-1 $316 $314 $318 $466 reversed $188 $-1 #
edge $-1 -1 $-1 $329 -572.07799053877466 $468 572.07799053877466 $328 $572 forward @7 unknown #
vertex $-1 -1 $-1 $466 $573 #
straight-curve $-1 -1 $-1 -513.07999999999993 -467.97611388427435 0 0 0 -1 I I #
edge $-1 -1 $-1 $464 -467.97611388427435 $468 467.97611388427435 $462 $574 forward @7 unknown #
straight-curve $-1 -1 $-1 0 -467.97611388427435 -572.07799053877466 -1 0 0 I I #
vertex $-1 -1 $-1 $321 $575 #
straight-curve $-1 -1 $-1 0 467.97611388427435 -572.07799053877466 1 0 0 I I #
point $-1 -1 $-1 513.07999999999993 467.97611388427435 -572.07799053877466 #
point $-1 -1 $-1 513.07999999999993 -467.97611388427435 -572.07799053877466 #
straight-curve $-1 -1 $-1 -513.07999999999993 0 572.07799053877466 0 -1 0 I I #
point $-1 -1 $-1 -513.07999999999993 467.97611388427435 572.07799053877466 #
point $-1 -1 $-1 -513.07999999999993 -467.97611388427435 572.07799053877466 #
straight-curve $-1 -1 $-1 513.07999999999993 -467.97611388427435 0 0 0 -1 I I #
straight-curve $-1 -1 $-1 513.07999999999993 467.97611388427435 0 0 0 -1 I I #
loop $-1 -1 $-1 $-1 $489 $338 #
plane-surface $-1 -1 $-1 0 -315.57611388427438 -463.83899526938711 -4.1339032739946885e-018 1 1.9595738915926842e-016 0 -1.9595738915926842e-016 1 forward_v I I I I #
coedge $-1 -1 $-1 $340 $353 $341 $481 forward $207 $-1 #
coedge $-1 -1 $-1 $342 $341 $576 $577 reversed $123 $-1 #
edge $-1 -1 $-1 $578 0 $482 152.39999999999998 $479 $579 forward @7 unknown #
vertex $-1 -1 $-1 $481 $580 #
straight-curve $-1 -1 $-1 -513.07999999999993 -467.97611388427447 -231.91949763469361 0 0 1 I I #
coedge $-1 -1 $-1 $576 $349 $345 $485 reversed $477 $-1 #
edge $581 -1 $-1 $486 -513.07999999999993 $351 513.07999999999993 $345 $582 forward @7 unknown #
vertex $-1 -1 $-1 $485 $583 #
straight-curve $-1 -1 $-1 -513.07999999999993 -315.57611388427432 -572.07799053877466 0 -1 0 I I #
point $-1 -1 $-1 -513.07999999999993 -467.9761138842743 -572.07799053877466 #
coedge $-1 -1 $-1 $349 $576 $353 $493 forward $477 $-1 #
convexity-sys-attrib $-1 -1 $-1 $-1 $350 #
straight-curve $-1 -1 $-1 513.07999999999993 -315.57611388427449 -231.91949763469361 0 0 -1 I I #
point $-1 -1 $-1 513.07999999999993 -315.57611388427432 -572.07799053877466 #
edge $584 -1 $-1 $578 -769.61999999999989 $354 256.53999999999996 $353 $585 forward @7 unknown #
point $-1 -1 $-1 513.07999999999993 -315.57611388427438 -355.59999999999991 #
straight-curve $-1 -1 $-1 256.53999999999996 -467.97611388427447 -355.59999999999991 1 0 0 I I #
coedge $-1 -1 $-1 $361 $499 $369 $504 reversed $224 $-1 #
vertex $-1 -1 $-1 $362 $586 #
straight-curve $-1 -1 $-1 513.07999999999993 0 -572.07799053877466 0 -1 0 I I #
coedge $-1 -1 $-1 $496 $363 $374 $506 reversed $224 $-1 #
straight-curve $-1 -1 $-1 513.07999999999981 578.91089552637777 17.90250495575691 0 0.34202014332566788 0.93969262078590876 I I #
point $-1 -1 $-1 513.07999999999993 467.97611388427435 -286.88830263805227 #
convexity-sys-attrib $-1 -1 $-1 $-1 $368 #
straight-curve $-1 -1 $-1 -256.53999999999996 467.97611388427435 -286.88830263805221 -1 0 0 I I #
edge $-1 -1 $-1 $372 324.35160269631405 $507 627.8441294996054 $369 $587 forward @7 unknown #
point $-1 -1 $-1 -513.07999999999993 467.97611388427435 -286.88830263805227 #
edge $-1 -1 $-1 $507 -256.53999999999996 $497 769.61999999999989 $374 $588 forward @7 unknown #
vertex $-1 -1 $-1 $504 $589 #
straight-curve $-1 -1 $-1 -513.07999999999993 0 -572.07799053877466 0 1 0 I I #
coedge $-1 -1 $-1 $380 $512 $388 $517 forward $239 $-1 #
vertex $-1 -1 $-1 $519 $590 #
straight-curve $-1 -1 $-1 -513.07999999999993 0 572.07799053877466 0 -1 0 I I #
coedge $-1 -1 $-1 $509 $382 $393 $519 reversed $239 $-1 #
straight-curve $-1 -1 $-1 -513.07999999999993 467.97611388427435 0 0 0 -1 I I #
point $-1 -1 $-1 -513.07999999999993 467.97611388427435 286.88830263805204 #
convexity-sys-attrib $-1 -1 $-1 $-1 $387 #
straight-curve $-1 -1 $-1 0 467.97611388427435 286.8883026380521 1 0 0 I I #
edge $-1 -1 $-1 $520 -572.07799053877466 $391 -286.88830263805204 $388 $591 forward @7 unknown #
point $-1 -1 $-1 513.07999999999993 467.97611388427435 286.88830263805204 #
edge $-1 -1 $-1 $520 -513.07999999999993 $510 513.07999999999993 $512 $592 forward @7 unknown #
vertex $-1 -1 $-1 $394 $593 #
straight-curve $-1 -1 $-1 513.07999999999993 0 572.07799053877466 0 1 0 I I #
loop $-1 -1 $-1 $-1 $594 $397 #
plane-surface $-1 -1 $-1 0 -315.57611388427443 463.83899526938734 4.133903273994687e-018 1 -1.9595738915926933e-016 0 1.9595738915926933e-016 1 forward_v I I I I #
coedge $-1 -1 $-1 $537 $594 $400 $525 forward $522 $-1 #
edge $595 -1 $-1 $529 123.68050236530635 $526 340.15849290408096 $400 $596 forward @7 unknown #
vertex $-1 -1 $-1 $525 $597 #
straight-curve $-1 -1 $-1 -513.07999999999993 -315.57611388427432 572.07799053877466 0 -1 0 I I #
coedge $-1 -1 $-1 $532 $402 $594 $598 reversed $398 $-1 #
vertex $-1 -1 $-1 $598 $599 #
straight-curve $-1 -1 $-1 -513.07999999999993 -315.57611388427438 355.60000000000002 0 -1 0 I I #
point $-1 -1 $-1 -513.07999999999993 -467.97611388427435 355.60000000000002 #
coedge $-1 -1 $-1 $406 $528 $408 $535 forward $398 $-1 #
straight-curve $-1 -1 $-1 256.53999999999996 -467.97611388427447 355.60000000000002 -1 0 0 I I #
coedge $-1 -1 $-1 $409 $408 $600 $601 reversed $254 $-1 #
edge $-1 -1 $-1 $602 0 $410 152.39999999999998 $532 $603 forward @7 unknown #
point $-1 -1 $-1 513.07999999999993 -467.97611388427435 355.60000000000002 #
coedge $-1 -1 $-1 $600 $524 $412 $538 reversed $522 $-1 #
edge $604 -1 $-1 $539 -513.07999999999993 $526 513.07999999999993 $412 $605 forward @7 unknown #
vertex $-1 -1 $-1 $538 $606 #
straight-curve $-1 -1 $-1 513.07999999999993 -315.57611388427432 572.07799053877466 0 -1 0 I I #
model_id-kcp-attrib $-1 -1 $-1 $-1 $417 1 1021498083 1021498083 -1139408895 9 #
plane-surface $-1 -1 $-1 50.799999999999997 914.39999999999998 572.07799053877454 0 0.34202014332566788 0.93969262078590876 0 23.86819256796208 -8.6873116404719628 forward_v I I I I #
coedge $-1 -1 $-1 $422 $420 $607 $608 reversed $269 $-1 #
edge $609 -1 $-1 $443 0 $610 40.399999999999999 $420 $611 forward @7 unknown #
coedge $-1 -1 $-1 $607 $424 $421 $546 forward $281 $-1 #
edge $612 -1 $-1 $427 0 $548 28 $545 $613 forward @7 unknown #
attrib_edge_convexity-kcp-attrib $-1 -1 $614 $-1 $423 1 #
vertex $-1 -1 $-1 $608 $615 #
straight-curve $-1 -1 $-1 50.799999999999997 762 355.59999999999997 -25.399999999999999 0 0 I I #
attrib_edge_convexity-kcp-attrib $-1 -1 $616 $-1 $425 1 #
straight-curve $-1 -1 $-1 -975.3599999999999 914.39999999999998 -355.59999999999997 0 -25.399999999999999 0 I I #
convexity-sys-attrib $-1 -1 $-1 $426 $274 #
point $-1 -1 $-1 -975.3599999999999 762 -355.59999999999997 #
convexity-sys-attrib $-1 -1 $-1 $429 $276 #
coedge $-1 -1 $-1 $433 $607 $562 $617 forward $281 $-1 #
edge $618 -1 $-1 $566 0 $450 32.828301746664266 $433 $619 forward @7 unknown #
straight-curve $-1 -1 $-1 -975.3599999999999 1697.9522277685487 286.88830263805193 0 0 -25.399999999999999 I I #
model_id-kcp-attrib $-1 -1 $-1 $-1 $435 1 1021498083 1021498083 -1139408895 11 #
plane-surface $-1 -1 $-1 -975.3599999999999 914.39999999999998 355.59999999999997 -1 0 0 0 0 25.399999999999999 forward_v I I I I #
attrib_edge_convexity-kcp-attrib $-1 -1 $620 $-1 $439 1 #
straight-curve $-1 -1 $-1 50.799999999999997 762 355.59999999999997 0 25.399999999999999 0 I I #
coedge $-1 -1 $-1 $441 $440 $555 $617 reversed $418 $-1 #
convexity-sys-attrib $-1 -1 $-1 $442 $289 #
point $-1 -1 $-1 50.799999999999997 914.39999999999998 355.59999999999997 #
attrib_edge_convexity-kcp-attrib $-1 -1 $621 $-1 $446 1 #
vertex $-1 -1 $-1 $556 $622 #
straight-curve $-1 -1 $-1 50.799999999999997 914.39999999999998 572.07799053877454 -25.399999999999999 0 0 I I #
convexity-sys-attrib $-1 -1 $-1 $449 $297 #
point $-1 -1 $-1 -975.3599999999999 1697.9522277685487 286.88830263805193 #
convexity-sys-attrib $-1 -1 $-1 $454 $302 #
point $-1 -1 $-1 50.799999999999997 762 355.59999999999997 #
straight-curve $-1 -1 $-1 -513.07999999999993 467.97611388427435 0 0 0 -1 I I #
point $-1 -1 $-1 -513.07999999999993 -467.97611388427435 -572.07799053877466 #
straight-curve $-1 -1 $-1 -513.07999999999993 0 -572.07799053877466 0 1 0 I I #
point $-1 -1 $-1 -513.07999999999993 467.97611388427435 -572.07799053877466 #
coedge $-1 -1 $-1 $489 $484 $480 $577 forward $477 $-1 #
edge $623 -1 $-1 $486 -340.15849290408107 $578 -123.6805023653063 $480 $624 forward @7 unknown #
vertex $-1 -1 $-1 $493 $625 #
straight-curve $-1 -1 $-1 -513.07999999999993 -315.57611388427438 -355.59999999999991 0 -1 0 I I #
point $-1 -1 $-1 -513.07999999999993 -467.97611388427435 -355.59999999999991 #
convexity-sys-attrib $-1 -1 $-1 $-1 $485 #
straight-curve $-1 -1 $-1 0 -315.57611388427443 -572.07799053877466 1 0 0 I I #
point $-1 -1 $-1 -513.07999999999993 -315.57611388427432 -572.07799053877466 #
convexity-sys-attrib $-1 -1 $-1 $-1 $493 #
straight-curve $-1 -1 $-1 256.53999999999996 -315.57611388427449 -355.59999999999991 1 0 0 I I #
point $-1 -1 $-1 513.07999999999993 364.17555636874363 -572.07799053877466 #
straight-curve $-1 -1 $-1 -513.07999999999993 578.91089552637777 17.90250495575691 0 -0.34202014332566788 -0.93969262078590876 I I #
straight-curve $-1 -1 $-1 -256.53999999999996 364.17555636874351 -572.07799053877466 1 0 0 I I #
point $-1 -1 $-1 -513.07999999999993 364.17555636874363 -572.07799053877466 #
point $-1 -1 $-1 -513.07999999999993 467.97611388427435 572.07799053877466 #
straight-curve $-1 -1 $-1 513.07999999999993 467.97611388427435 0 0 0 -1 I I #
straight-curve $-1 -1 $-1 0 467.97611388427435 572.07799053877466 -1 0 0 I I #
point $-1 -1 $-1 513.07999999999993 467.97611388427435 572.07799053877466 #
coedge $-1 -1 $-1 $524 $600 $528 $598 forward $522 $-1 #
convexity-sys-attrib $-1 -1 $-1 $-1 $525 #
straight-curve $-1 -1 $-1 -513.07999999999993 -315.57611388427449 231.91949763469367 0 0 1 I I #
point $-1 -1 $-1 -513.07999999999993 -315.57611388427432 572.07799053877466 #
edge $626 -1 $-1 $602 -256.53999999999996 $529 769.61999999999989 $528 $627 forward @7 unknown #
point $-1 -1 $-1 -513.07999999999993 -315.57611388427438 355.60000000000002 #
coedge $-1 -1 $-1 $594 $537 $534 $601 forward $522 $-1 #
edge $628 -1 $-1 $539 -340.15849290408096 $602 -123.68050236530635 $534 $629 forward @7 unknown #
vertex $-1 -1 $-1 $598 $630 #
straight-curve $-1 -1 $-1 513.07999999999993 -315.57611388427438 355.60000000000002 0 -1 0 I I #
convexity-sys-attrib $-1 -1 $-1 $-1 $538 #
straight-curve $-1 -1 $-1 0 -315.57611388427443 572.07799053877466 -1 0 0 I I #
point $-1 -1 $-1 513.07999999999993 -315.57611388427432 572.07799053877466 #
coedge $-1 -1 $-1 $555 $545 $543 $608 forward $281 $-1 #
edge $631 -1 $-1 $548 0 $610 5.9999999999999991 $607 $632 forward @7 unknown #
attrib_edge_convexity-kcp-attrib $-1 -1 $633 $-1 $544 2 #
vertex $-1 -1 $-1 $617 $634 #
straight-curve $-1 -1 $-1 50.799999999999997 914.39999999999998 355.59999999999997 -25.399999999999999 0 0 I I #
attrib_edge_convexity-kcp-attrib $-1 -1 $635 $-1 $546 1 #
straight-curve $-1 -1 $-1 -975.3599999999999 762 -355.59999999999997 0 0 25.399999999999999 I I #
convexity-sys-attrib $-1 -1 $-1 $547 $423 #
point $-1 -1 $-1 -975.3599999999999 762 355.59999999999997 #
convexity-sys-attrib $-1 -1 $-1 $550 $425 #
edge $636 -1 $-1 $610 0 $566 8.5227555330226217 $555 $637 forward @7 unknown #
attrib_edge_convexity-kcp-attrib $-1 -1 $638 $-1 $556 1 #
straight-curve $-1 -1 $-1 -975.3599999999999 914.39999999999998 572.07799053877454 0 23.86819256796208 -8.687311640471961 I I #
convexity-sys-attrib $-1 -1 $-1 $560 $439 #
convexity-sys-attrib $-1 -1 $-1 $565 $446 #
point $-1 -1 $-1 -975.3599999999999 914.39999999999998 572.07799053877454 #
convexity-sys-attrib $-1 -1 $-1 $-1 $577 #
straight-curve $-1 -1 $-1 -513.07999999999993 -315.57611388427449 -231.91949763469361 0 0 1 I I #
point $-1 -1 $-1 -513.07999999999993 -315.57611388427438 -355.59999999999991 #
convexity-sys-attrib $-1 -1 $-1 $-1 $598 #
straight-curve $-1 -1 $-1 256.53999999999996 -315.57611388427449 355.60000000000002 -1 0 0 I I #
convexity-sys-attrib $-1 -1 $-1 $-1 $601 #
straight-curve $-1 -1 $-1 513.07999999999993 -315.57611388427449 231.91949763469367 0 0 -1 I I #
point $-1 -1 $-1 513.07999999999993 -315.57611388427438 355.60000000000002 #
attrib_edge_convexity-kcp-attrib $-1 -1 $639 $-1 $608 1 #
straight-curve $-1 -1 $-1 -975.3599999999999 762 355.59999999999997 0 25.399999999999999 0 I I #
convexity-sys-attrib $-1 -1 $-1 $609 $544 #
point $-1 -1 $-1 -975.3599999999999 914.39999999999998 355.59999999999997 #
convexity-sys-attrib $-1 -1 $-1 $612 $546 #
attrib_edge_convexity-kcp-attrib $-1 -1 $640 $-1 $617 1 #
straight-curve $-1 -1 $-1 -975.3599999999999 914.39999999999998 355.59999999999997 0 0 25.399999999999999 I I #
convexity-sys-attrib $-1 -1 $-1 $618 $556 #
convexity-sys-attrib $-1 -1 $-1 $631 $608 #
convexity-sys-attrib $-1 -1 $-1 $636 $617 #
End-of-ACIS-data 