600 0 1 0           
97 GICL Pro/E ACIS Translator - Source: f:/data5/repository/PTC/V18/lrgasm18/end_plate_3.prt.2 - 6 0 13 ACIS 6.0.3 NT 24 Thu Apr 04 13:34:43 2002 
1 9.9999999999999995e-007 1e-010 
body $-1 $1 $-1 $2 #
lump $-1 $-1 $3 $0 #
transform $-1 1 0 0 0 1 0 0 0 1 0 0 0 25.399999999999999 no_rotate no_reflect no_shear #
shell $-1 $-1 $-1 $4 $-1 $1 #
face $-1 $5 $6 $3 $-1 $7 forward single #
face $-1 $8 $9 $3 $-1 $10 forward single #
loop $-1 $-1 $11 $4 #
plane-surface $-1 0 0 12 0 0 1 1 0 0 forward_v I I I I #
face $-1 $12 $13 $3 $-1 $14 forward single #
loop $-1 $-1 $15 $5 #
cone-surface $-1 -124 -13 12 0 0 1 1 0 0 1 I I 0 1 1 forward I I I I #
coedge $-1 $16 $17 $18 $19 forward $6 $-1 #
face $-1 $20 $21 $3 $-1 $22 forward single #
loop $-1 $-1 $23 $8 #
plane-surface $-1 -126 -14 12 0 -1 0 1 0 0 forward_v I I I I #
coedge $-1 $24 $18 $25 $26 forward $9 $-1 #
coedge $-1 $27 $11 $28 $29 forward $6 $-1 #
coedge $-1 $11 $30 $31 $32 forward $6 $-1 #
coedge $-1 $15 $33 $11 $19 reversed $9 $-1 #
edge $-1 $34 0 $35 1.5707963267948966 $11 $36 forward 7 unknown #
face $-1 $37 $38 $3 $-1 $39 forward single #
loop $-1 $-1 $40 $12 #
plane-surface $-1 -126 -13.75 12 -1 0 0 0 -1 0 forward_v I I I I #
coedge $-1 $41 $31 $42 $43 forward $13 $-1 #
coedge $-1 $33 $15 $44 $45 forward $9 $-1 #
coedge $-1 $31 $41 $15 $26 reversed $13 $-1 #
edge $-1 $34 0 $46 24 $25 $47 forward 7 unknown #
coedge $-1 $48 $16 $49 $50 forward $6 $-1 #
coedge $-1 $51 $52 $16 $29 reversed $53 $-1 #
edge $-1 $35 0 $54 13 $16 $55 forward 7 unknown #
coedge $-1 $17 $56 $57 $58 forward $6 $-1 #
coedge $-1 $23 $25 $17 $32 reversed $13 $-1 #
edge $-1 $59 0 $34 2 $17 $60 forward 7 unknown #
coedge $-1 $18 $24 $51 $61 reversed $9 $-1 #
vertex $-1 $32 $62 #
vertex $-1 $29 $63 #
ellipse-curve $-1 -124 -13 12 0 0 1 0 -1 0 1 I I #
face $-1 $64 $65 $3 $-1 $66 reversed single #
loop $-1 $-1 $67 $20 #
plane-surface $-1 -124 -13.75 12 0 1 0 -1 0 0 forward_v I I I I #
coedge $-1 $68 $57 $69 $70 forward $21 $-1 #
coedge $-1 $25 $23 $71 $72 forward $13 $-1 #
coedge $-1 $57 $68 $23 $43 reversed $21 $-1 #
edge $-1 $59 0 $73 24 $23 $74 forward 7 unknown #
coedge $-1 $71 $75 $24 $45 reversed $76 $-1 #
edge $-1 $46 0 $77 1.5707963267948983 $44 $78 forward 7 unknown #
vertex $-1 $72 $79 #
straight-curve $-1 -124 -14 12 0 0 -1 I I #
coedge $-1 $80 $27 $81 $82 forward $6 $-1 #
coedge $-1 $83 $84 $27 $50 reversed $85 $-1 #
edge $-1 $54 0 $86 0.25 $27 $87 forward 7 unknown #
coedge $-1 $88 $28 $33 $61 forward $53 $-1 #
coedge $-1 $28 $88 $83 $89 reversed $53 $-1 #
loop $-1 $90 $51 $91 #
vertex $-1 $50 $92 #
straight-curve $-1 -123 -13 12 0 1 0 I I #
coedge $-1 $30 $80 $93 $94 forward $6 $-1 #
coedge $-1 $40 $42 $30 $58 reversed $21 $-1 #
edge $-1 $95 0 $59 0.25 $30 $96 forward 7 unknown #
vertex $-1 $32 $97 #
straight-curve $-1 -126 -14 12 1 0 0 I I #
edge $-1 $35 0 $77 24 $33 $98 forward 7 unknown #
point $-1 -124 -14 12 #
point $-1 -123 -13 12 #
face $-1 $99 $100 $3 $-1 $101 forward single #
loop $-1 $-1 $102 $37 #
cone-surface $-1 -124 -13 12 0 0 1 0.75 0 0 1 I I 0 1 0.75 forward I I I I #
coedge $-1 $103 $93 $104 $105 forward $38 $-1 #
coedge $-1 $42 $40 $106 $107 forward $21 $-1 #
coedge $-1 $93 $103 $40 $70 reversed $38 $-1 #
edge $-1 $95 0 $108 24 $69 $109 forward 7 unknown #
coedge $-1 $106 $44 $41 $72 reversed $76 $-1 #
edge $-1 $73 0 $46 2 $71 $110 forward 7 unknown #
vertex $-1 $72 $111 #
straight-curve $-1 -126 -14 12 0 0 -1 I I #
coedge $-1 $44 $112 $88 $113 reversed $76 $-1 #
loop $-1 $-1 $106 $114 #
vertex $-1 $45 $115 #
ellipse-curve $-1 -124 -13.000000000000002 -12 0 0 1 0 -0.99999999999999822 0 1 I I #
point $-1 -124 -14 -12 #
coedge $-1 $56 $48 $116 $117 forward $6 $-1 #
coedge $-1 $118 $119 $48 $82 reversed $100 $-1 #
edge $-1 $86 0 $120 13 $48 $121 forward 7 unknown #
coedge $-1 $122 $49 $52 $89 forward $85 $-1 #
coedge $-1 $49 $122 $118 $123 reversed $85 $-1 #
loop $-1 $-1 $83 $99 #
vertex $-1 $82 $124 #
straight-curve $-1 -123 0 12 -1 0 0 I I #
coedge $-1 $52 $51 $75 $113 forward $53 $-1 #
edge $-1 $54 0 $125 24 $52 $126 forward 7 unknown #
loop $-1 $-1 $127 $91 #
face $-1 $114 $53 $3 $-1 $128 forward single #
point $-1 -123 0 12 #
coedge $-1 $67 $69 $56 $94 reversed $38 $-1 #
edge $-1 $129 0 $95 2 $56 $130 forward 7 unknown #
vertex $-1 $58 $131 #
straight-curve $-1 -126 -13.75 12 0 -1 0 I I #
point $-1 -126 -14 12 #
straight-curve $-1 -123 -13 12 0 0 -1 I I #
face $-1 $91 $85 $3 $-1 $132 forward single #
loop $-1 $133 $118 $64 #
plane-surface $-1 -123.25 0 12 -1 0 0 0 -1 0 forward_v I I I I #
coedge $-1 $134 $116 $119 $135 forward $65 $-1 #
coedge $-1 $69 $67 $136 $137 forward $38 $-1 #
coedge $-1 $116 $134 $67 $105 reversed $65 $-1 #
edge $-1 $129 0 $138 24 $104 $139 forward 7 unknown #
coedge $-1 $136 $71 $68 $107 reversed $76 $-1 #
edge $-1 $108 0 $73 0.25 $106 $140 forward 7 unknown #
vertex $-1 $137 $141 #
straight-curve $-1 -126 -13.75 12 0 0 -1 I I #
straight-curve $-1 -126 -14 -12 1 0 0 I I #
point $-1 -126 -14 -12 #
coedge $-1 $75 $142 $122 $143 reversed $76 $-1 #
edge $-1 $77 0 $125 13 $75 $144 forward 7 unknown #
face $-1 $145 $76 $3 $-1 $146 reversed single #
point $-1 -123 -13 -12 #
coedge $-1 $102 $104 $80 $117 reversed $65 $-1 #
edge $-1 $120 0 $129 1.5707963267948966 $80 $147 forward 7 unknown #
coedge $-1 $148 $81 $84 $123 forward $100 $-1 #
coedge $-1 $81 $148 $102 $135 reversed $100 $-1 #
vertex $-1 $117 $149 #
straight-curve $-1 -123.25 0 12 0 -1 0 I I #
coedge $-1 $84 $83 $112 $143 forward $85 $-1 #
edge $-1 $86 0 $150 24 $84 $151 forward 7 unknown #
point $-1 -123.25 0 12 #
vertex $-1 $113 $152 #
straight-curve $-1 -123 0 12 0 0 -1 I I #
coedge $-1 $153 $153 $154 $155 reversed $90 $-1 #
plane-surface $-1 -123 -13 12 1 0 0 0 1 0 forward_v I I I I #
vertex $-1 $94 $156 #
straight-curve $-1 -124 -13.75 12 -1 0 0 I I #
point $-1 -126 -13.75 12 #
plane-surface $-1 -123 0 12 0 1 0 -1 0 0 forward_v I I I I #
loop $-1 $-1 $157 $64 #
coedge $-1 $104 $102 $158 $159 forward $65 $-1 #
edge $-1 $120 0 $160 24 $119 $161 forward 7 unknown #
coedge $-1 $158 $106 $103 $137 reversed $76 $-1 #
edge $-1 $138 0 $108 2 $136 $162 forward 7 unknown #
vertex $-1 $159 $163 #
straight-curve $-1 -124 -13.75 12 0 0 -1 I I #
straight-curve $-1 -126 -13.75 -12 0 -1 0 I I #
point $-1 -126 -13.75 -12 #
coedge $-1 $112 $158 $148 $164 reversed $76 $-1 #
edge $-1 $125 0 $150 0.25 $112 $165 forward 7 unknown #
straight-curve $-1 -123 -13 -12 0 1 0 I I #
face $-1 $166 $167 $3 $-1 $168 reversed single #
plane-surface $-1 0 0 -12 0 0 1 1 0 0 forward_v I I I I #
ellipse-curve $-1 -124 -13 12 0 0 -1 0.75 0 0 1 I I #
coedge $-1 $119 $118 $142 $164 forward $100 $-1 #
point $-1 -123.25 -13 12 #
vertex $-1 $143 $169 #
straight-curve $-1 -123.25 0 12 0 0 -1 I I #
point $-1 -123 0 -12 #
coedge $-1 $127 $127 $170 $171 reversed $90 $-1 #
coedge $-1 $172 $173 $127 $155 forward $167 $-1 #
edge $-1 $174 0 $175 3.1415926535897931 $127 $176 forward 7 unknown #
point $-1 -124 -13.75 12 #
coedge $-1 $177 $177 $178 $179 forward $133 $-1 #
coedge $-1 $142 $136 $134 $159 reversed $76 $-1 #
edge $-1 $160 0 $138 1.5707963267948919 $158 $180 forward 7 unknown #
vertex $-1 $164 $181 #
straight-curve $-1 -123.25 -13 12 0 0 -1 I I #
straight-curve $-1 -124 -13.75 -12 -1 0 0 I I #
point $-1 -124 -13.75 -12 #
edge $-1 $150 0 $160 13 $142 $182 forward 7 unknown #
straight-curve $-1 -123 0 -12 -1 0 0 I I #
face $-1 $-1 $183 $3 $-1 $184 reversed single #
loop $-1 $-1 $172 $145 #
cone-surface $-1 -123.25 -6 0 1 0 0 0 1.0625 0 1 I I 0 1 1.0625 forward I I I I #
point $-1 -123.25 0 -12 #
coedge $-1 $185 $186 $153 $171 forward $183 $-1 #
edge $-1 $175 0 $174 3.1415926535897931 $153 $187 forward 7 unknown #
coedge $-1 $178 $154 $186 $188 reversed $167 $-1 #
coedge $-1 $154 $178 $185 $189 forward $167 $-1 #
vertex $-1 $171 $190 #
vertex $-1 $171 $191 #
ellipse-curve $-1 -123 -6 0 1 0 0 0 -1.0625 0 1 I I #
coedge $-1 $157 $157 $192 $193 forward $133 $-1 #
coedge $-1 $173 $172 $157 $179 reversed $167 $-1 #
edge $-1 $194 0 $195 3.1415926535897931 $157 $196 forward 7 unknown #
ellipse-curve $-1 -124 -12.999999999999996 -12 0 0 -1 0.75 -3.5527136788005009e-015 0 1 I I #
point $-1 -123.25 -13 -12 #
straight-curve $-1 -123.25 0 -12 0 -1 0 I I #
loop $-1 $-1 $185 $166 #
cone-surface $-1 -123.25 -6 0 1 0 0 0 1.0625 0 1 I I 0 1 1.0625 forward I I I I #
coedge $-1 $192 $170 $173 $189 reversed $183 $-1 #
coedge $-1 $170 $192 $172 $188 forward $183 $-1 #
ellipse-curve $-1 -123 -6 0 1 0 0 0 1.0625 0 1 I I #
edge $-1 $195 0 $175 0.25 $186 $197 forward 7 unknown #
edge $-1 $194 0 $174 0.25 $185 $198 forward 7 unknown #
point $-1 -123 -7.0625 0 #
point $-1 -123 -4.9375 0 #
coedge $-1 $186 $185 $177 $193 reversed $183 $-1 #
edge $-1 $195 0 $194 3.1415926535897931 $177 $199 forward 7 unknown #
vertex $-1 $193 $200 #
vertex $-1 $193 $201 #
ellipse-curve $-1 -123.25 -6 0 1 0 0 0 -1.0625 0 1 I I #
straight-curve $-1 -123.25 -4.9375 0 1 0 0 I I #
straight-curve $-1 -123.25 -7.0625 1.3011442509362758e-016 1 0 0 I I #
ellipse-curve $-1 -123.25 -6 0 1 0 0 0 1.0625 0 1 I I #
point $-1 -123.25 -7.0625 0 #
point $-1 -123.25 -4.9375 0 #
End-of-ACIS-data 