600 0 1 0           
97 GICL Pro/E ACIS Translator - Source: f:/data5/repository/PTC/V18/lrgasm18/flow_box_ml.prt.2 - 6 0 13 ACIS 6.0.3 NT 24 Thu Apr 04 13:34:26 2002 
1 9.9999999999999995e-007 1e-010 
body $-1 $1 $-1 $2 #
lump $-1 $-1 $3 $0 #
transform $-1 1 0 0 0 1 0 0 0 1 0 0 0 25.399999999999999 no_rotate no_reflect no_shear #
shell $-1 $-1 $-1 $4 $-1 $1 #
face $-1 $5 $6 $3 $-1 $7 reversed single #
face $-1 $8 $9 $3 $-1 $10 forward single #
loop $-1 $11 $12 $4 #
plane-surface $-1 0 0 0 0 1 0 1 0 0 forward_v I I I I #
face $-1 $13 $14 $3 $-1 $15 forward single #
loop $-1 $-1 $16 $5 #
plane-surface $-1 64 0 0 0 0 -1 -1 0 0 forward_v I I I I #
loop $-1 $-1 $17 $4 #
coedge $-1 $18 $19 $20 $21 reversed $6 $-1 #
face $-1 $22 $23 $3 $-1 $24 forward single #
loop $-1 $-1 $25 $8 #
plane-surface $-1 0 0 0 -1 0 0 0 0 1 forward_v I I I I #
coedge $-1 $26 $20 $27 $28 forward $9 $-1 #
coedge $-1 $29 $30 $31 $32 reversed $11 $-1 #
coedge $-1 $33 $12 $34 $35 reversed $6 $-1 #
coedge $-1 $12 $33 $36 $37 reversed $6 $-1 #
coedge $-1 $16 $38 $12 $21 forward $9 $-1 #
edge $-1 $39 0 $40 64 $12 $41 forward 7 unknown #
face $-1 $42 $43 $3 $-1 $44 forward single #
loop $-1 $-1 $45 $13 #
plane-surface $-1 0 0 20 0 0 1 1 0 0 forward_v I I I I #
coedge $-1 $46 $36 $47 $48 forward $14 $-1 #
coedge $-1 $38 $16 $49 $50 reversed $9 $-1 #
coedge $-1 $36 $46 $16 $28 reversed $14 $-1 #
edge $-1 $40 0 $51 16 $27 $52 forward 7 unknown #
coedge $-1 $53 $17 $54 $55 reversed $11 $-1 #
coedge $-1 $17 $53 $56 $57 reversed $11 $-1 #
coedge $-1 $58 $59 $17 $32 forward $60 $-1 #
edge $-1 $61 0 $62 19.5 $17 $63 forward 7 unknown #
coedge $-1 $19 $18 $64 $65 reversed $6 $-1 #
coedge $-1 $66 $67 $18 $35 forward $43 $-1 #
edge $-1 $68 0 $39 20 $18 $69 forward 7 unknown #
coedge $-1 $25 $27 $19 $37 forward $14 $-1 #
edge $-1 $40 0 $70 20 $19 $71 forward 7 unknown #
coedge $-1 $20 $26 $66 $72 reversed $9 $-1 #
vertex $-1 $35 $73 #
vertex $-1 $37 $74 #
straight-curve $-1 64 0 0 -1 0 0 I I #
face $-1 $75 $76 $3 $-1 $77 forward single #
loop $-1 $-1 $66 $22 #
plane-surface $-1 64 0 20 1 0 0 0 0 -1 forward_v I I I I #
coedge $-1 $78 $64 $67 $79 forward $23 $-1 #
coedge $-1 $27 $25 $80 $81 reversed $14 $-1 #
coedge $-1 $64 $78 $25 $48 reversed $23 $-1 #
edge $-1 $70 0 $82 16 $25 $83 forward 7 unknown #
coedge $-1 $80 $84 $26 $50 forward $76 $-1 #
edge $-1 $85 0 $51 64 $49 $86 forward 7 unknown #
vertex $-1 $81 $87 #
straight-curve $-1 0 0 0 0 1 0 I I #
coedge $-1 $30 $29 $88 $89 reversed $11 $-1 #
coedge $-1 $90 $91 $29 $55 forward $92 $-1 #
edge $-1 $93 0 $61 63.5 $29 $94 forward 7 unknown #
coedge $-1 $95 $96 $30 $57 forward $97 $-1 #
edge $-1 $62 0 $98 63.5 $30 $99 forward 7 unknown #
coedge $-1 $100 $31 $96 $101 forward $60 $-1 #
coedge $-1 $31 $100 $90 $102 reversed $60 $-1 #
loop $-1 $-1 $58 $103 #
vertex $-1 $55 $104 #
vertex $-1 $57 $105 #
straight-curve $-1 0.25 0 19.75 0 0 -1 I I #
coedge $-1 $45 $47 $33 $65 forward $23 $-1 #
edge $-1 $70 0 $68 64 $33 $106 forward 7 unknown #
coedge $-1 $107 $34 $38 $72 forward $43 $-1 #
coedge $-1 $34 $107 $45 $79 reversed $43 $-1 #
vertex $-1 $65 $108 #
straight-curve $-1 64 0 20 0 0 -1 I I #
vertex $-1 $37 $109 #
straight-curve $-1 0 0 0 0 0 1 I I #
edge $-1 $39 0 $85 16 $66 $110 forward 7 unknown #
point $-1 64 0 0 #
point $-1 0 0 0 #
face $-1 $111 $112 $3 $-1 $113 forward single #
loop $-1 $114 $115 $42 #
plane-surface $-1 0 16 0 0 1 0 1 0 0 forward_v I I I I #
coedge $-1 $47 $45 $115 $116 reversed $23 $-1 #
edge $-1 $68 0 $117 16 $45 $118 forward 7 unknown #
coedge $-1 $115 $49 $46 $81 forward $76 $-1 #
edge $-1 $51 0 $82 20 $80 $119 forward 7 unknown #
vertex $-1 $81 $120 #
straight-curve $-1 0 0 20 0 1 0 I I #
coedge $-1 $49 $115 $107 $121 forward $76 $-1 #
vertex $-1 $50 $122 #
straight-curve $-1 64 16 0 -1 0 0 I I #
point $-1 0 16 0 #
coedge $-1 $123 $124 $53 $89 forward $112 $-1 #
edge $-1 $98 0 $93 19.5 $53 $125 forward 7 unknown #
coedge $-1 $126 $54 $59 $102 forward $92 $-1 #
coedge $-1 $54 $126 $123 $127 reversed $92 $-1 #
loop $-1 $-1 $90 $111 #
vertex $-1 $89 $128 #
straight-curve $-1 63.75 0 19.75 -1 0 0 I I #
coedge $-1 $129 $56 $124 $130 forward $97 $-1 #
coedge $-1 $56 $129 $58 $101 reversed $97 $-1 #
loop $-1 $-1 $95 $131 #
vertex $-1 $57 $132 #
straight-curve $-1 0.25 0 0.25 1 0 0 I I #
coedge $-1 $59 $58 $133 $134 reversed $60 $-1 #
edge $-1 $62 0 $135 16 $96 $136 forward 7 unknown #
edge $-1 $61 0 $137 16 $90 $138 forward 7 unknown #
face $-1 $131 $60 $3 $-1 $139 forward single #
point $-1 0.25 0 19.75 #
point $-1 0.25 0 0.25 #
straight-curve $-1 0 0 20 1 0 0 I I #
coedge $-1 $67 $66 $84 $121 reversed $43 $-1 #
point $-1 64 0 20 #
point $-1 0 0 20 #
straight-curve $-1 64 0 0 0 1 0 I I #
face $-1 $103 $92 $3 $-1 $140 forward single #
loop $-1 $-1 $123 $75 #
plane-surface $-1 63.75 0 0.25 -1 0 0 0 0 1 forward_v I I I I #
loop $-1 $-1 $141 $42 #
coedge $-1 $84 $80 $78 $116 forward $76 $-1 #
edge $-1 $82 0 $117 64 $115 $142 forward 7 unknown #
vertex $-1 $121 $143 #
straight-curve $-1 64 0 20 0 1 0 I I #
straight-curve $-1 0 16 0 0 0 1 I I #
point $-1 0 16 20 #
edge $-1 $117 0 $85 20 $84 $144 forward 7 unknown #
point $-1 64 16 0 #
coedge $-1 $145 $88 $91 $127 forward $112 $-1 #
coedge $-1 $88 $145 $95 $130 reversed $112 $-1 #
straight-curve $-1 63.75 0 0.25 0 0 1 I I #
coedge $-1 $91 $90 $146 $147 reversed $92 $-1 #
edge $-1 $93 0 $148 16 $123 $149 forward 7 unknown #
point $-1 63.75 0 19.75 #
coedge $-1 $96 $95 $150 $151 reversed $97 $-1 #
edge $-1 $98 0 $152 16 $95 $153 forward 7 unknown #
face $-1 $-1 $97 $3 $-1 $154 forward single #
point $-1 63.75 0 0.25 #
coedge $-1 $150 $146 $100 $134 forward $114 $-1 #
edge $-1 $137 0 $135 19.5 $133 $155 forward 7 unknown #
vertex $-1 $151 $156 #
straight-curve $-1 0.25 0 0.25 0 1 0 I I #
vertex $-1 $134 $157 #
straight-curve $-1 0.25 0 19.75 0 1 0 I I #
plane-surface $-1 0.25 0 19.75 1 0 0 0 0 -1 forward_v I I I I #
plane-surface $-1 63.75 0 19.75 0 0 -1 -1 0 0 forward_v I I I I #
coedge $-1 $146 $150 $145 $158 forward $114 $-1 #
straight-curve $-1 0 16 20 1 0 0 I I #
point $-1 64 16 20 #
straight-curve $-1 64 16 20 0 0 -1 I I #
coedge $-1 $124 $123 $141 $158 reversed $112 $-1 #
coedge $-1 $133 $141 $126 $147 forward $114 $-1 #
edge $-1 $148 0 $137 63.5 $146 $159 forward 7 unknown #
vertex $-1 $147 $160 #
straight-curve $-1 63.75 0 19.75 0 1 0 I I #
coedge $-1 $141 $133 $129 $151 forward $114 $-1 #
edge $-1 $135 0 $152 63.5 $150 $161 forward 7 unknown #
vertex $-1 $151 $162 #
straight-curve $-1 63.75 0 0.25 0 1 0 I I #
plane-surface $-1 0.25 0 0.25 0 0 1 1 0 0 forward_v I I I I #
straight-curve $-1 0.25 16 19.75 0 0 -1 I I #
point $-1 0.25 16 0.25 #
point $-1 0.25 16 19.75 #
edge $-1 $152 0 $148 19.5 $141 $163 forward 7 unknown #
straight-curve $-1 63.75 16 19.75 -1 0 0 I I #
point $-1 63.75 16 19.75 #
straight-curve $-1 0.25 16 0.25 1 0 0 I I #
point $-1 63.75 16 0.25 #
straight-curve $-1 63.75 16 0.25 0 0 1 I I #
End-of-ACIS-data 