600 0 1 0           
96 GICL Pro/E ACIS Translator - Source: f:/data5/repository/PTC/V18/lrgasm18/footing_ml.prt.2 - 6 0 13 ACIS 6.0.3 NT 24 Thu Apr 04 13:35:17 2002 
1 9.9999999999999995e-007 1e-010 
body $-1 $1 $-1 $2 #
lump $-1 $-1 $3 $0 #
transform $-1 1 0 0 0 1 0 0 0 1 0 0 0 25.399999999999999 no_rotate no_reflect no_shear #
shell $-1 $-1 $-1 $4 $-1 $1 #
face $-1 $5 $6 $3 $-1 $7 reversed single #
face $-1 $8 $9 $3 $-1 $10 forward single #
loop $-1 $-1 $11 $4 #
plane-surface $-1 0 0 0 0 -1 0 -1 0 0 forward_v I I I I #
face $-1 $12 $13 $3 $-1 $14 forward single #
loop $-1 $-1 $15 $5 #
plane-surface $-1 0 -1.5 -1.5 0 0.316227766016838 -0.94868329805051388 1 0 0 forward_v I I I I #
coedge $-1 $16 $17 $18 $19 reversed $6 $-1 #
face $-1 $20 $21 $3 $-1 $22 forward single #
loop $-1 $-1 $23 $8 #
spline-surface $-1 forward { exactsur full nurbs 3 1 both open open none none 3 2 
	0.23630345621047527 3 0.5 1 0.76369654378952467 3 
	0 1 1 1 
	0.75 0 -1 1.1715728752538099 
	0.81530096874093538 0 -1 1.0571909584179366 
	0.94822330470336313 0 -0.94822330470336302 0.94280904158206325 
	1 0 -0.81530096874093538 1.0571909584179366 
	1 0 -0.75 1.1715728752538099 
	0.75 -3 -2 1.1715728752538099 
	1.0112038749637413 -3 -2 1.0571909584179366 
	1.5428932188134521 -3 -1.7928932188134525 0.94280904158206325 
	1.75 -3 -1.2612038749637415 1.0571909584179366 
	1.75 -3 -1 1.1715728752538099 
	0 
	0 
	0 
	0 
	0 
	0 
	0 
	F 1 F 0 F 1 F 0 } I I I I #
tcoedge-coedge $-1 $24 $18 $25 $26 forward $9 $27 -4.2130001622920411e-016 3.1622776601683791 #
coedge $-1 $28 $11 $29 $30 reversed $6 $-1 #
coedge $-1 $11 $31 $32 $33 reversed $6 $-1 #
coedge $-1 $15 $34 $11 $19 forward $9 $-1 #
edge $-1 $35 0 $36 1.5 $11 $37 forward 7 unknown #
face $-1 $38 $39 $3 $-1 $40 forward single #
loop $-1 $-1 $41 $12 #
plane-surface $-1 1.375 -1.5 -0.0625 0.97014250014533188 0.24253562503633297 0 0 0 1 forward_v I I I I #
tcoedge-coedge $-1 $42 $32 $43 $44 forward $13 $45 -4.2942874004767988e-016 3.1024184114977134 #
coedge $-1 $34 $15 $46 $47 reversed $9 $-1 #
tcoedge-coedge $-1 $32 $42 $15 $26 reversed $13 $48 -3.1622776601683791 4.2130001622920411e-016 #
tedge-edge $-1 $36 -4.2130001622920411e-016 $49 3.1622776601683791 $25 $50 forward 7 unknown 6.3777457165881442e-016 #
pcurve $-1 0 forward { exppc nubs 1 open 2 
	-4.2130001622920411e-016 1 3.1622776601683791 1 
	0.75 -1.5811388300841898 
	0.75 1.5811388300841898 
	0 
	plane 0 -1.5 -1.5 0 0.316227766016838 -0.94868329805051388 1 0 0 forward_v I I I I 
	} 0 0 #
coedge $-1 $51 $16 $52 $53 reversed $6 $-1 #
coedge $-1 $54 $55 $16 $30 forward $56 $-1 #
edge $-1 $57 0 $35 1.5707963267948966 $16 $58 forward 7 unknown #
coedge $-1 $17 $59 $60 $61 reversed $6 $-1 #
coedge $-1 $23 $25 $17 $33 forward $13 $62 #
edge $-1 $36 0 $63 1.5707963267948966 $17 $64 forward 7 unknown #
coedge $-1 $18 $24 $54 $65 reversed $9 $-1 #
vertex $-1 $30 $66 #
tvertex-vertex $-1 $33 $67 2.4825341532472731e-016 #
straight-curve $-1 -0.75 0 -0.99999999999999989 1 0 0 I I #
face $-1 $68 $69 $3 $-1 $70 forward single #
loop $-1 $-1 $71 $20 #
cone-surface $-1 0.75 0 0.75 0 1 0 -0.25 0 0 1 I I -0.24253562503633297 0.97014250014533188 0.25 forward I I I I #
coedge $-1 $72 $60 $73 $74 forward $21 $-1 #
coedge $-1 $25 $23 $75 $76 reversed $13 $77 #
tcoedge-coedge $-1 $60 $72 $23 $44 reversed $21 $78 -3.1024184114977134 4.2942874004767988e-016 #
tedge-edge $-1 $63 -4.2942874004767988e-016 $79 3.1024184114977134 $23 $80 forward 7 unknown 1.0877919644084146e-015 #
pcurve $-1 0 forward { exppc nurbs 3 open 2 
	-4.2942874004767988e-016 3 3.1024184114977134 3 
	0.76369654378952467 0 1 
	0.76369654378952467 0.33333333333333331 1 
	0.76369654378952467 0.66666666666666663 1 
	0.76369654378952467 1 1 
	0.001 
	spline forward { ref 0 } I I I I 
	} 0 0 #
coedge $-1 $75 $81 $24 $47 forward $82 $-1 #
edge $-1 $83 0 $49 1.5 $46 $84 forward 7 unknown #
pcurve $-1 0 forward { exppc nurbs 3 open 2 
	-3.1622776601683791 3 4.4408920985006262e-016 3 
	0.23630345621047527 1 1 
	0.23630345621047527 0.66666666666666663 1 
	0.23630345621047527 0.33333333333333331 1 
	0.23630345621047527 0 1 
	0.001 
	spline forward { ref 0 } I I I I 
	} 0 0 #
tvertex-vertex $-1 $76 $85 4.5775667985222375e-016 #
straight-curve $-1 0.75 -4.4408920985006262e-016 -1 0 -0.94868329805051377 -0.316227766016838 F -4.2130001622920411e-016 F 3.1622776601683791 #
coedge $-1 $86 $28 $87 $88 reversed $6 $-1 #
coedge $-1 $89 $90 $28 $53 forward $91 $-1 #
edge $-1 $92 0 $57 1.5 $28 $93 forward 7 unknown #
coedge $-1 $94 $29 $34 $65 forward $56 $-1 #
coedge $-1 $29 $94 $89 $95 reversed $56 $-1 #
loop $-1 $-1 $54 $96 #
vertex $-1 $53 $97 #
ellipse-curve $-1 -0.75 0 -0.75 0 -1 0 -0.25 0 0 1 I I #
coedge $-1 $31 $86 $98 $99 reversed $6 $-1 #
coedge $-1 $41 $43 $31 $61 forward $21 $-1 #
edge $-1 $63 0 $100 1.5 $31 $101 forward 7 unknown #
pcurve $-1 0 forward { exppc nurbs 3 open 7 
	0 3 0.26401870896238927 1 0.52533743262159571 1 0.78539816339744828 1 1.045458894173301 1 
	1.3067776178325072 1 1.5707963267948966 3 
	0.23630345621047527 0 1 
	0.26825457158282717 0 1 
	0.33016269705408974 0 0.99999999999999989 
	0.41642769354553499 0 0.99999999999999978 
	0.5 0 1.0000000000000002 
	0.58357230645446512 0 0.99999999999999978 
	0.66983730294591004 0 1 
	0.73174542841717272 0 1 
	0.76369654378952467 0 1 
	0.001 
	spline forward { ref 0 } I I I I 
	} 0 0 #
tvertex-vertex $-1 $33 $102 2.2204460492503131e-016 #
ellipse-curve $-1 0.75 0 -0.75 0 -1 0 0 0 -0.25 1 I I #
edge $-1 $35 -4.2130001622920411e-016 $83 3.1622776601683786 $54 $103 forward 7 unknown #
point $-1 -0.75 0 -1 #
point $-1 0.75 0 -1 #
face $-1 $104 $105 $3 $-1 $106 forward single #
loop $-1 $-1 $107 $38 #
plane-surface $-1 -0.0625 -1.5 1.375 0 0.24253562503633297 0.97014250014533188 -1 0 0 forward_v I I I I #
coedge $-1 $108 $98 $109 $110 forward $39 $-1 #
coedge $-1 $43 $41 $111 $112 reversed $21 $-1 #
coedge $-1 $98 $108 $41 $74 reversed $39 $-1 #
edge $-1 $100 -2.1541490816575237e-016 $113 3.0923292192132448 $41 $114 forward 7 unknown #
coedge $-1 $111 $46 $42 $76 forward $82 $-1 #
edge $-1 $49 0 $79 1.5707963267948957 $75 $115 forward 7 unknown #
pcurve $-1 0 forward { exppc nurbs 3 open 10 
	-1.5707963267948957 3 -1.3949612769846713 1 -1.2201331890370772 1 -1.0459804912802895 1 -0.87221661363225067 1 
	-0.69857971316264522 1 -0.52481583551460642 1 -0.35066313775781843 1 -0.17583504981022435 1 0 3 
	0.76369654378952467 1 1 
	0.74219844984759742 1 1 
	0.70028670295625484 1 1 
	0.64088788680066267 1 0.99999999999999989 
	0.58365586213026022 1 1 
	0.52774659247802957 1 1 
	0.47225340752197037 1 1 
	0.41634413786973984 1 0.99999999999999989 
	0.35911211319933728 1 0.99999999999999978 
	0.29971329704374522 1 1.0000000000000004 
	0.25780155015240258 1 0.99999999999999978 
	0.23630345621047527 1 1 
	0.001 
	spline forward { ref 0 } I I I I 
	} 0 0 #
pcurve $-1 0 forward { exppc nubs 1 open 2 
	-3.1024184114977134 1 4.4408920985006262e-016 1 
	-0.9375 1.5461646096066222 
	-0.6875 -1.5461646096066226 
	0 
	plane 1.375 -1.5 -0.0625 0.97014250014533188 0.24253562503633297 0 0 0 1 forward_v I I I I 
	} 0 0 #
tvertex-vertex $-1 $76 $116 4.4408920985006262e-016 #
straight-curve $-1 1 -4.4408920985006262e-016 -0.75 0.24174688920761411 -0.96698755683045634 -0.080582296402538042 F -4.2942874004767988e-016 F 3.1024184114977134 #
coedge $-1 $46 $117 $94 $118 forward $82 $-1 #
loop $-1 $-1 $111 $119 #
vertex $-1 $47 $120 #
straight-curve $-1 -0.75 -3 -2 1 0 0 I I #
point $-1 0.75 -3 -2 #
coedge $-1 $59 $51 $121 $122 reversed $6 $-1 #
coedge $-1 $123 $124 $51 $88 forward $105 $125 #
edge $-1 $126 0 $92 1.5707963267948966 $51 $127 forward 7 unknown #
coedge $-1 $128 $52 $55 $95 forward $91 $-1 #
tcoedge-coedge $-1 $52 $128 $123 $129 reversed $91 $130 -3.1622776601683786 4.2130001622920411e-016 #
loop $-1 $-1 $89 $104 #
tvertex-vertex $-1 $88 $131 2.4825341532472731e-016 #
straight-curve $-1 -0.99999999999999989 0 0.75 0 0 -1 I I #
coedge $-1 $55 $54 $81 $118 reversed $56 $-1 #
edge $-1 $57 3.5108334685767023e-017 $132 3.16227766016838 $89 $133 forward 7 unknown #
face $-1 $119 $56 $3 $-1 $134 forward single #
point $-1 -1 0 -0.75 #
coedge $-1 $71 $73 $59 $99 forward $39 $-1 #
edge $-1 $100 0 $135 1.5707963267948966 $59 $136 forward 7 unknown #
vertex $-1 $61 $137 #
straight-curve $-1 1 -2.2204460492503131e-016 -0.75 0 0 1 I I #
point $-1 1 0 -0.75 #
straight-curve $-1 -0.75 -4.4408920985006262e-016 -1 0 -0.94868329805051377 -0.316227766016838 I I #
face $-1 $96 $91 $3 $-1 $138 forward single #
loop $-1 $-1 $123 $68 #
spline-surface $-1 forward { exactsur full nurbs 3 1 both open open none none 3 2 
	0.23630345621047527 3 0.5 1 0.76369654378952467 3 
	0 1 1 1 
	-0.75 0 1 1.1715728752538099 
	-0.81530096874093538 0 1 1.0571909584179366 
	-0.94822330470336313 0 0.94822330470336302 0.94280904158206325 
	-1 0 0.81530096874093538 1.0571909584179366 
	-1 0 0.75 1.1715728752538099 
	-1 -3 1.75 1.1715728752538099 
	-1.2612038749637415 -3 1.75 1.0571909584179366 
	-1.7928932188134521 -3 1.5428932188134525 0.94280904158206325 
	-2.0000000000000004 -3 1.0112038749637413 1.0571909584179366 
	-2 -3 0.75000000000000011 1.1715728752538099 
	0 
	0 
	0 
	0 
	0 
	0 
	0 
	F 1 F 0 F 1 F 0 } I I I I #
tcoedge-coedge $-1 $139 $121 $124 $140 forward $69 $141 -4.2942874004767997e-016 3.1024184114977142 #
coedge $-1 $73 $71 $142 $143 reversed $39 $-1 #
coedge $-1 $121 $139 $71 $110 reversed $69 $-1 #
edge $-1 $135 0 $144 3.0923292192132457 $71 $145 forward 7 unknown #
coedge $-1 $142 $75 $72 $112 forward $82 $-1 #
edge $-1 $79 0 $113 1.75 $111 $146 forward 7 unknown #
vertex $-1 $143 $147 #
straight-curve $-1 1 -2.2204460492503131e-016 0.75 0.24253562503633305 -0.97014250014533199 0 I I #
ellipse-curve $-1 0.74999999999999956 -3 -0.99999999999999956 0 -1 0 4.4408920985006262e-016 0 -1.0000000000000004 1 I I #
point $-1 1.75 -3 -1 #
coedge $-1 $81 $148 $128 $149 forward $82 $-1 #
edge $-1 $132 0 $83 1.5707963267948966 $81 $150 forward 7 unknown #
face $-1 $-1 $82 $3 $-1 $151 forward single #
point $-1 -0.75 -2.9999999999999996 -2 #
coedge $-1 $107 $109 $86 $122 forward $69 $-1 #
edge $-1 $135 0 $126 1.5 $86 $152 forward 7 unknown #
tcoedge-coedge $-1 $153 $87 $90 $129 forward $105 $154 -4.2130001622920411e-016 3.1622776601683786 #
tcoedge-coedge $-1 $87 $153 $107 $140 reversed $105 $155 -3.1024184114977142 4.2942874004767997e-016 #
pcurve $-1 0 forward { exppc nurbs 3 open 7 
	0 3 0.26401870896238927 1 0.52533743262159571 1 0.78539816339744828 1 1.045458894173301 1 
	1.3067776178325072 1 1.5707963267948966 3 
	0.23630345621047527 0 1 
	0.26825457158282717 0 1 
	0.33016269705408974 0 0.99999999999999989 
	0.41642769354553499 0 0.99999999999999978 
	0.5 0 1.0000000000000002 
	0.58357230645446512 0 0.99999999999999978 
	0.66983730294591004 0 1 
	0.73174542841717272 0 1 
	0.76369654378952467 0 1 
	0.001 
	spline forward { ref 7 } I I I I 
	} 0 0 #
tvertex-vertex $-1 $122 $156 2.2204460492503131e-016 #
ellipse-curve $-1 -0.75 0 0.75 0 -1 0 0 0 0.25 1 I I #
coedge $-1 $90 $89 $117 $149 reversed $91 $-1 #
tedge-edge $-1 $92 -4.2130001622920411e-016 $157 3.1622776601683786 $123 $158 forward 7 unknown 8.3081483621104487e-016 #
pcurve $-1 0 forward { exppc nubs 1 open 2 
	-3.1622776601683786 1 4.4408920985006262e-016 1 
	-0.75 1.5811388300841893 
	-0.75 -1.5811388300841898 
	0 
	plane -1.5 -1.5 0 -0.94868329805051388 0.316227766016838 0 0 0 -1 forward_v I I I I 
	} 0 0 #
point $-1 -1 0 0.75 #
vertex $-1 $118 $159 #
straight-curve $-1 -0.99999999999999989 0 -0.75 -0.31622776601683794 -0.94868329805051377 0 I I #
cone-surface $-1 -0.75 -0.25 -0.75 0 1 0 -0.33333333333333337 0 0 1 I I -0.31622776601683794 0.94868329805051377 0.33333333333333337 forward I I I I #
vertex $-1 $99 $160 #
ellipse-curve $-1 0.75 0 0.75 0 -1 0 0.25 0 0 1 I I #
point $-1 1 0 0.75 #
plane-surface $-1 -1.5 -1.5 0 -0.94868329805051388 0.316227766016838 0 0 0 -1 forward_v I I I I #
coedge $-1 $109 $107 $161 $162 reversed $69 $-1 #
tedge-edge $-1 $126 -4.2942874004767997e-016 $163 3.1024184114977142 $107 $164 forward 7 unknown 9.9920072216264089e-016 #
pcurve $-1 0 forward { exppc nubs 1 open 2 
	-4.2942874004767997e-016 1 3.1024184114977142 1 
	0.6875 -1.5461646096066226 
	0.9375 1.5461646096066231 
	0 
	plane -0.0625 -1.5 1.375 0 0.24253562503633297 0.97014250014533188 -1 0 0 forward_v I I I I 
	} 0 0 #
coedge $-1 $161 $111 $108 $143 forward $82 $-1 #
edge $-1 $113 0 $144 1.5707963267948957 $142 $165 forward 7 unknown #
vertex $-1 $162 $166 #
straight-curve $-1 0.75 0 1 0 -0.97014250014533199 0.242535625036333 I I #
straight-curve $-1 1.75 -3 -1 0 0 1 I I #
point $-1 1.75 -2.9999999999999996 0.75 #
coedge $-1 $117 $161 $153 $167 forward $82 $-1 #
edge $-1 $157 0 $132 1.5 $117 $168 forward 7 unknown #
ellipse-curve $-1 -0.75 -3 -0.75 0 -1 0 -1.25 0 0 1 I I #
plane-surface $-1 0 -3 0 0 -1 0 -1 0 0 forward_v I I I I #
straight-curve $-1 0.75 -2.2204460492503131e-016 1 -1 0 0 I I #
coedge $-1 $124 $123 $148 $167 reversed $105 $169 #
pcurve $-1 0 forward { exppc nurbs 3 open 2 
	-4.2130001622920411e-016 3 3.1622776601683786 3 
	0.76369654378952467 0 1 
	0.76369654378952467 0.33333333333333331 1 
	0.76369654378952467 0.66666666666666663 1 
	0.76369654378952467 1 1 
	0.001 
	spline forward { ref 7 } I I I I 
	} 0 0 #
pcurve $-1 0 forward { exppc nurbs 3 open 2 
	-3.1024184114977142 3 4.4408920985006262e-016 3 
	0.23630345621047527 1 1 
	0.23630345621047527 0.66666666666666663 1 
	0.23630345621047527 0.33333333333333331 1 
	0.23630345621047527 0 1 
	0.001 
	spline forward { ref 7 } I I I I 
	} 0 0 #
point $-1 -0.75 0 1 #
tvertex-vertex $-1 $149 $170 4.5775667985222375e-016 #
straight-curve $-1 -1 -4.4408920985006262e-016 0.75 -0.316227766016838 -0.94868329805051377 0 F -4.2130001622920411e-016 F 3.1622776601683786 #
point $-1 -2.0000000000000004 -3 -0.75 #
point $-1 0.75 0 1 #
coedge $-1 $148 $142 $139 $162 forward $82 $-1 #
edge $-1 $144 0 $163 1.75 $161 $171 forward 7 unknown #
tvertex-vertex $-1 $167 $172 4.4408920985006262e-016 #
straight-curve $-1 -0.75 -4.4408920985006262e-016 1 -0.080582296402538042 -0.96698755683045634 0.24174688920761411 F -4.2942874004767997e-016 F 3.1024184114977142 #
ellipse-curve $-1 0.74999999999999956 -3 0.74999999999999956 0 -1 0 1.0000000000000004 0 4.4408920985006262e-016 1 I I #
point $-1 0.75 -3 1.75 #
edge $-1 $163 0 $157 1.5707963267948957 $148 $173 forward 7 unknown #
straight-curve $-1 -2 -3 0.75 0 0 -1 I I #
pcurve $-1 0 forward { exppc nurbs 3 open 10 
	-1.5707963267948957 3 -1.3949612769846713 1 -1.2201331890370772 1 -1.0459804912802895 1 -0.87221661363225067 1 
	-0.69857971316264522 1 -0.52481583551460642 1 -0.35066313775781843 1 -0.17583504981022435 1 0 3 
	0.76369654378952467 1 1 
	0.74219844984759742 1 1 
	0.70028670295625484 1 1 
	0.64088788680066267 1 0.99999999999999989 
	0.58365586213026022 1 1 
	0.52774659247802957 1 1 
	0.47225340752197037 1 1 
	0.41634413786973984 1 0.99999999999999989 
	0.35911211319933728 1 0.99999999999999978 
	0.29971329704374522 1 1.0000000000000004 
	0.25780155015240258 1 0.99999999999999978 
	0.23630345621047527 1 1 
	0.001 
	spline forward { ref 7 } I I I I 
	} 0 0 #
point $-1 -2 -2.9999999999999996 0.75 #
straight-curve $-1 0.75 -3 1.75 -1 0 0 I I #
point $-1 -1 -3 1.75 #
ellipse-curve $-1 -0.99999999999999956 -3 0.74999999999999956 0 -1 0 -4.4408920985006262e-016 0 1.0000000000000004 1 I I #
End-of-ACIS-data 