600 0 1 0           
100 GICL Pro/E ACIS Translator - Source: f:/data5/repository/PTC/V18/lrgasm18/form_louvr_top.prt.2 - 6 0 13 ACIS 6.0.3 NT 24 Thu Apr 04 13:34:45 2002 
1 9.9999999999999995e-007 1e-010 
body $-1 $1 $-1 $2 #
lump $-1 $-1 $3 $0 #
transform $-1 1 0 0 0 1 0 0 0 1 0 0 0 25.399999999999999 no_rotate no_reflect no_shear #
shell $-1 $-1 $-1 $4 $-1 $1 #
face $-1 $5 $6 $3 $-1 $7 reversed single #
face $-1 $8 $9 $3 $-1 $10 forward single #
loop $-1 $-1 $11 $4 #
plane-surface $-1 0 0 0 0 0 1 1 0 0 forward_v I I I I #
face $-1 $12 $13 $3 $-1 $14 forward single #
loop $-1 $15 $16 $5 #
plane-surface $-1 1.9685039370078741 0 0 0 1 0 -1 0 0 forward_v I I I I #
coedge $-1 $17 $18 $19 $20 reversed $6 $-1 #
face $-1 $21 $22 $3 $-1 $23 forward single #
loop $-1 $-1 $24 $8 #
plane-surface $-1 0 0 0 -1 0 0 0 -1 0 forward_v I I I I #
loop $-1 $-1 $25 $5 #
coedge $-1 $26 $19 $27 $28 forward $9 $-1 #
coedge $-1 $29 $11 $30 $31 reversed $6 $-1 #
coedge $-1 $11 $29 $32 $33 reversed $6 $-1 #
coedge $-1 $16 $34 $11 $20 forward $9 $-1 #
edge $-1 $35 0 $36 1.9685039370078741 $11 $37 forward 7 unknown #
face $-1 $38 $39 $3 $-1 $40 forward single #
loop $-1 $-1 $41 $12 #
plane-surface $-1 0 -0.39370078740157477 0 0 -1 0 1 0 0 forward_v I I I I #
coedge $-1 $42 $32 $43 $44 forward $13 $-1 #
coedge $-1 $45 $46 $47 $48 reversed $15 $-1 #
coedge $-1 $34 $16 $49 $50 reversed $9 $-1 #
coedge $-1 $32 $42 $16 $28 reversed $13 $-1 #
edge $-1 $36 0 $51 9.0551181102362204 $27 $52 forward 7 unknown #
coedge $-1 $18 $17 $53 $54 reversed $6 $-1 #
coedge $-1 $55 $56 $17 $31 forward $39 $-1 #
edge $-1 $57 0 $35 0.39370078740157477 $17 $58 forward 7 unknown #
coedge $-1 $24 $27 $18 $33 forward $13 $-1 #
edge $-1 $36 0 $59 0.39370078740157477 $18 $60 forward 7 unknown #
coedge $-1 $19 $26 $55 $61 reversed $9 $-1 #
vertex $-1 $31 $62 #
vertex $-1 $33 $63 #
straight-curve $-1 1.9685039370078741 0 0 -1 0 0 I I #
face $-1 $64 $65 $3 $-1 $66 forward single #
loop $-1 $-1 $55 $21 #
plane-surface $-1 1.9685039370078741 -0.39370078740157477 0 1 0 0 0 1 0 forward_v I I I I #
coedge $-1 $67 $53 $56 $68 forward $22 $-1 #
coedge $-1 $27 $24 $69 $70 reversed $13 $-1 #
coedge $-1 $53 $67 $24 $44 reversed $22 $-1 #
edge $-1 $59 0 $71 9.0551181102362204 $24 $72 forward 7 unknown #
coedge $-1 $73 $25 $74 $75 reversed $15 $-1 #
coedge $-1 $25 $73 $76 $77 reversed $15 $-1 #
coedge $-1 $78 $79 $25 $48 forward $80 $-1 #
edge $-1 $81 -3.8857805861880479e-016 $82 8.0826071370609043 $25 $83 forward 7 unknown #
coedge $-1 $69 $84 $26 $50 forward $65 $-1 #
edge $-1 $85 0 $51 1.9685039370078741 $49 $86 forward 7 unknown #
vertex $-1 $70 $87 #
straight-curve $-1 0 0 0 0 0 1 I I #
coedge $-1 $41 $43 $29 $54 forward $22 $-1 #
edge $-1 $59 0 $57 1.9685039370078741 $29 $88 forward 7 unknown #
coedge $-1 $89 $30 $34 $61 forward $39 $-1 #
coedge $-1 $30 $89 $41 $68 reversed $39 $-1 #
vertex $-1 $54 $90 #
straight-curve $-1 1.9685039370078741 -0.39370078740157477 0 0 1 0 I I #
vertex $-1 $33 $91 #
straight-curve $-1 0 0 0 0 -1 0 I I #
edge $-1 $35 0 $85 9.0551181102362204 $55 $92 forward 7 unknown #
point $-1 1.9685039370078741 0 0 #
point $-1 0 0 0 #
face $-1 $93 $80 $3 $-1 $94 reversed single #
loop $-1 $-1 $95 $38 #
plane-surface $-1 0 0 9.0551181102362204 0 0 1 1 0 0 forward_v I I I I #
coedge $-1 $43 $41 $95 $96 reversed $22 $-1 #
edge $-1 $57 0 $97 9.0551181102362204 $41 $98 forward 7 unknown #
coedge $-1 $95 $49 $42 $70 forward $65 $-1 #
edge $-1 $51 0 $71 0.39370078740157477 $69 $99 forward 7 unknown #
vertex $-1 $70 $100 #
straight-curve $-1 0 -0.39370078740157477 0 0 0 1 I I #
coedge $-1 $46 $45 $101 $102 reversed $15 $-1 #
coedge $-1 $103 $104 $45 $75 forward $105 $-1 #
edge $-1 $106 -2.2293792525462045e-016 $81 1.5707963267948968 $45 $107 forward 7 unknown #
coedge $-1 $108 $109 $46 $77 forward $110 $-1 #
edge $-1 $82 0 $111 1.5707963267948852 $46 $112 forward 7 unknown #
coedge $-1 $113 $47 $109 $114 forward $80 $-1 #
coedge $-1 $47 $115 $103 $116 reversed $80 $-1 #
loop $-1 $-1 $79 $64 #
vertex $-1 $75 $117 #
vertex $-1 $77 $118 #
straight-curve $-1 0.78740157480314954 0 0.48625548658765805 0 0 1 I I #
coedge $-1 $49 $95 $89 $119 forward $65 $-1 #
vertex $-1 $50 $120 #
straight-curve $-1 1.9685039370078741 0 9.0551181102362204 -1 0 0 I I #
point $-1 0 0 9.0551181102362204 #
straight-curve $-1 0 -0.39370078740157477 0 1 0 0 I I #
coedge $-1 $56 $55 $84 $119 reversed $39 $-1 #
point $-1 1.9685039370078741 -0.39370078740157477 0 #
point $-1 0 -0.39370078740157477 0 #
straight-curve $-1 1.9685039370078741 0 0 0 0 1 I I #
face $-1 $121 $105 $3 $-1 $122 reversed single #
plane-surface $-1 0.78740157480314954 0 8.4645669291338592 0.96592582628906842 -0.25881904510252074 0 0.25881904510252074 0.96592582628906842 0 forward_v I I I I #
coedge $-1 $84 $69 $67 $96 forward $65 $-1 #
edge $-1 $71 0 $97 1.9685039370078741 $95 $123 forward 7 unknown #
vertex $-1 $119 $124 #
straight-curve $-1 1.9685039370078741 -0.39370078740157477 0 0 0 1 I I #
straight-curve $-1 0 0 9.0551181102362204 0 -1 0 I I #
point $-1 0 -0.39370078740157477 9.0551181102362204 #
coedge $-1 $125 $126 $73 $102 forward $127 $-1 #
edge $-1 $111 -6.9573149279908676e-033 $106 7.0866141732283472 $73 $128 forward 7 unknown #
coedge $-1 $129 $74 $79 $116 forward $105 $-1 #
coedge $-1 $74 $129 $125 $130 reversed $105 $-1 #
loop $-1 $-1 $103 $93 #
vertex $-1 $102 $131 #
ellipse-curve $-1 0.78740157480314976 0 0.98425196850393792 0 1 0 0.49799648191628032 0 -1.1102230246251565e-016 1 I I #
coedge $-1 $132 $76 $126 $133 forward $110 $-1 #
coedge $-1 $76 $132 $78 $114 reversed $110 $-1 #
loop $-1 $-1 $108 $134 #
vertex $-1 $77 $135 #
ellipse-curve $-1 0.78740157480314776 0 8.0708661417322816 0 1 0 2.1094237467877974e-015 0 0.49799648191628165 1 I I #
coedge $-1 $136 $78 $137 $138 reversed $80 $-1 #
edge $-1 $82 0 $139 0.99999999999999989 $78 $140 forward 7 unknown #
coedge $-1 $79 $136 $141 $142 reversed $80 $-1 #
edge $-1 $81 0 $143 0.99999999999999989 $79 $144 forward 7 unknown #
point $-1 0.78740157480314954 0 0.48625548658765766 #
point $-1 0.78740157480314987 0 8.5688626236485632 #
edge $-1 $97 0 $85 0.39370078740157477 $84 $145 forward 7 unknown #
point $-1 1.9685039370078741 0 9.0551181102362204 #
face $-1 $146 $147 $3 $-1 $148 forward single #
torus-surface $-1 0.78740157480314976 0.11811023622047244 0.98425196850393792 0 1 0 0.49799648191628032 0.11811023622047244 -1 0 0 forward_v I I I I #
straight-curve $-1 0 -0.39370078740157477 9.0551181102362204 1 0 0 I I #
point $-1 1.9685039370078741 -0.39370078740157477 9.0551181102362204 #
coedge $-1 $149 $101 $104 $130 forward $127 $-1 #
coedge $-1 $101 $149 $108 $133 reversed $127 $-1 #
loop $-1 $-1 $125 $150 #
straight-curve $-1 1.2853980567194296 0 8.0708661417322851 3.1332960917198861e-017 0 -1 I I #
coedge $-1 $104 $103 $151 $152 reversed $105 $-1 #
edge $-1 $106 1.8799776550319274e-015 $153 1.3379281485368109 $125 $154 forward 7 unknown #
point $-1 1.2853980567194299 -3.9443045261050582e-031 0.98425196850393792 #
coedge $-1 $109 $108 $155 $156 reversed $110 $-1 #
edge $-1 $111 1.8799776550319318e-015 $157 1.3379281485368133 $108 $158 forward 7 unknown #
face $-1 $150 $110 $3 $-1 $159 reversed single #
point $-1 1.2853980567194294 0 8.0708661417322851 #
coedge $-1 $115 $113 $160 $161 forward $80 $-1 #
coedge $-1 $155 $162 $113 $138 forward $163 $-1 #
edge $-1 $164 0 $139 1.3295532524427398 $137 $165 forward 7 unknown #
vertex $-1 $138 $166 #
intcurve-curve $-1 forward { surfintcur full nurbs 3 open 6 
	0 3 0.19872009655717729 1 0.39779499871951052 1 0.59763914179695377 1 0.79841469943676058 1 
	0.99999999999999989 3 
	0.78740157480314987 0 8.5688626236485632 1 
	0.78741095630540014 3.5012243048718802e-005 8.5583583886228265 1 
	0.78812160270769815 0.0026871807226417637 8.538076839212291 1 
	0.79133624989039919 0.014684407336889554 8.5089904506495309 1 
	0.79652257019850148 0.034040018231053744 8.4837866561065614 1 
	0.8034798970439524 0.060005115503139944 8.4640314124082501 1 
	0.80884188932249801 0.080016343116464744 8.4560078084175476 1 
	0.81174583819786106 0.09085402786190161 8.4531660403219337 1 
	0.001 
	plane 0.78740157480314954 0 8.4645669291338592 0.96592582628906842 -0.25881904510252074 0 0.25881904510252074 0.96592582628906842 0 forward_v I I I I 
	torus 0.78740157480314954 0.11811023622047244 8.0708661417322851 0 1 0 0.4979964819162781 0.11811023622047244 0 0 -1 forward_v I I I I 
	nullbs 
	nullbs 
	I I 
	0 
	0 
	0 
	} I I #
coedge $-1 $167 $151 $115 $142 forward $147 $-1 #
edge $-1 $143 8.3938064832089769e-018 $168 1.3295532524426641 $141 $169 forward 7 unknown #
vertex $-1 $142 $170 #
intcurve-curve $-1 forward { surfintcur full nurbs 3 open 6 
	0 3 0.1987200965571819 1 0.39779499871951485 1 0.5976391417969551 1 0.79841469943676169 1 
	0.99999999999999989 3 
	0.78740157480314954 0 0.48625548658765766 1 
	0.7874109563053997 3.5012243049034528e-005 0.49675972161339699 0.99999999999999989 
	0.78812160270769782 0.0026871807226426575 0.51704127102393338 1.0000000000000004 
	0.79133624989039919 0.014684407336891381 0.54612765958669507 0.99999999999999989 
	0.79652257019850137 0.034040018231055055 0.5713314541296598 1.0000000000000004 
	0.80347989704395228 0.060005115503140624 0.59108669782797396 1 
	0.80884188932249812 0.080016343116465188 0.59911030181867431 1 
	0.81174583819786084 0.090854027861901915 0.60195206991428651 1 
	0.001 
	torus 0.78740157480314976 0.11811023622047244 0.98425196850393792 0 1 0 0.49799648191628032 0.11811023622047244 -1 0 0 forward_v I I I I 
	plane 0.78740157480314954 0 8.4645669291338592 0.96592582628906842 -0.25881904510252074 0 0.25881904510252074 0.96592582628906842 0 forward_v I I I I 
	nullbs 
	nullbs 
	I I 
	0 
	0 
	0 
	} I I #
straight-curve $-1 1.9685039370078741 -0.39370078740157477 9.0551181102362204 0 1 0 I I #
face $-1 $171 $172 $3 $-1 $173 forward single #
loop $-1 $-1 $167 $121 #
sphere-surface $-1 0.78740157480314976 0 0.98425196850393792 0.39370078740157477 1 0 0 0 0 1 forward_v I I I I #
coedge $-1 $126 $125 $174 $175 reversed $127 $-1 #
face $-1 $-1 $127 $3 $-1 $176 reversed single #
coedge $-1 $141 $167 $129 $152 forward $147 $-1 #
edge $-1 $153 -2.8981930283100665e-016 $143 1.5072037429856759 $151 $177 forward 7 unknown #
vertex $-1 $178 $179 #
ellipse-curve $-1 1.2853980567194303 0.11811023622047272 0.98425196850393792 1.7671579917096723e-030 9.3998882751596371e-016 -1 -2.2204460492503131e-016 -0.11811023622047272 -1.1102230246251565e-016 1 I I #
coedge $-1 $162 $137 $132 $156 forward $163 $-1 #
edge $-1 $139 -1.1821277463852752e-017 $157 1.5072037429856746 $155 $180 forward 7 unknown #
vertex $-1 $181 $182 #
ellipse-curve $-1 1.2853980567194299 0.11811023622047244 8.0708661417322851 0 0 -1 -2.2204460492503131e-016 -0.11811023622047244 0 1 I I #
torus-surface $-1 0.78740157480314954 0.11811023622047244 8.0708661417322851 0 1 0 0.4979964819162781 0.11811023622047244 0 0 -1 forward_v I I I I #
coedge $-1 $183 $184 $136 $161 reversed $172 $-1 #
edge $-1 $164 1.3044965489982826e-033 $168 7.0866141732283747 $160 $185 forward 7 unknown #
coedge $-1 $137 $155 $183 $181 forward $163 $-1 #
loop $-1 $-1 $155 $171 #
vertex $-1 $138 $186 #
ellipse-curve $-1 0.78740157480315021 2.4269490377663627e-015 8.0708661417322851 0.96592582628906787 -0.25881904510252224 0 0.10189726185138603 0.38028575838152029 0 1 I I #
point $-1 0.81174583819786117 0.090854027861901873 8.4531660403219355 #
coedge $-1 $151 $141 $184 $178 reversed $147 $-1 #
vertex $-1 $161 $187 #
ellipse-curve $-1 0.78740157480314954 -7.782240344626396e-017 0.98425196850393792 0.96592582628906842 -0.25881904510252068 -1.1191741977611967e-016 0.024344263394711296 0.090854027861901956 -0.3822998985896513 1 I I #
point $-1 0.81174583819786084 0.090854027861901873 0.60195206991428662 #
face $-1 $134 $163 $3 $-1 $188 forward single #
loop $-1 $-1 $183 $146 #
cone-surface $-1 0.78740157480314954 0 8.0708661417322851 0 0 -1 -0.39370078740157477 0 0 1 I I 0 1 0.39370078740157477 forward I I I I #
coedge $-1 $184 $183 $149 $175 forward $172 $-1 #
edge $-1 $157 -5.7289140110174796e-032 $153 7.0866141732283472 $174 $189 forward 7 unknown #
cone-surface $-1 1.2853980567194299 0.11811023622047244 8.0708661417322851 0 0 -1 -2.2204460492503126e-016 -0.11811023622047244 0 1 I I 0 1 0.11811023622047244 forward I I I I #
ellipse-curve $-1 0.78740157480314976 0.090854027861901915 0.98425196850393792 0 1 0 0.38307421685867715 0 -1.1102230246251565e-016 1 I I #
edge $-1 $153 0 $168 1.0761287607376655 $184 $190 forward 7 unknown #
point $-1 1.1704757916618269 0.090854027861901901 0.98425196850393792 #
ellipse-curve $-1 0.78740157480314954 0.090854027861901554 8.0708661417322851 -9.2089693517440032e-018 1 -1.4461674162019287e-016 0.024344263394711518 5.5511151231257827e-017 0.38229989858964863 1 I I #
edge $-1 $157 4.4766967910448115e-017 $164 1.0761287607376631 $162 $191 forward 7 unknown #
point $-1 1.1704757916618247 0.090854027861901498 8.0708661417322851 #
coedge $-1 $174 $160 $162 $181 reversed $172 $-1 #
coedge $-1 $160 $174 $167 $178 forward $172 $-1 #
straight-curve $-1 0.88929883665453557 0.3802857583815229 8.0708661417322851 0 -7.8332402292996844e-018 -1 I I #
point $-1 0.88929883665453624 0.38028575838152273 8.0708661417322851 #
point $-1 0.88929883665453557 0.3802857583815229 0.98425196850391039 #
sphere-surface $-1 0.78740157480314954 0 8.0708661417322851 0.39370078740157477 1 0 0 0 0 1 forward_v I I I I #
straight-curve $-1 1.1704757916618265 0.090854027861901915 8.0708661417322851 3.1332960917198861e-017 3.9166201146498576e-018 -1 I I #
ellipse-curve $-1 0.78740157480314976 0 0.98425196850393792 0 0 1 0.38307421685867715 0.090854027861901901 0 1 I I #
ellipse-curve $-1 0.78740157480314954 0 8.0708661417322851 0 0 1 0.38307421685867693 0.090854027861901915 0 1 I I #
End-of-ACIS-data 