600 0 1 0           
99 GICL Pro/E ACIS Translator - Source: f:/data5/repository/PTC/V18/lrgasm18/frame_rail_ml.prt.2 - 6 0 13 ACIS 6.0.3 NT 24 Thu Apr 04 13:34:36 2002 
1 9.9999999999999995e-007 1e-010 
body $-1 $1 $-1 $2 #
lump $-1 $-1 $3 $0 #
transform $-1 1 0 0 0 1 0 0 0 1 0 0 0 25.399999999999999 no_rotate no_reflect no_shear #
shell $-1 $-1 $-1 $4 $-1 $1 #
face $-1 $5 $6 $3 $-1 $7 reversed single #
face $-1 $8 $9 $3 $-1 $10 forward single #
loop $-1 $11 $12 $4 #
plane-surface $-1 0 0 0 0 0 1 1 0 0 forward_v I I I I #
face $-1 $13 $14 $3 $-1 $15 forward single #
loop $-1 $16 $17 $5 #
plane-surface $-1 1 1.25 0 0 1 0 -1 0 0 forward_v I I I I #
loop $-1 $-1 $18 $4 #
coedge $-1 $19 $20 $21 $22 reversed $6 $-1 #
face $-1 $23 $24 $3 $-1 $25 forward single #
loop $-1 $-1 $26 $8 #
cone-surface $-1 0.25 1 0 0 0 1 0.25 0 0 1 I I 0 1 0.25 forward I I I I #
loop $-1 $27 $28 $5 #
coedge $-1 $29 $21 $30 $31 forward $9 $-1 #
coedge $-1 $32 $33 $34 $35 reversed $11 $-1 #
coedge $-1 $36 $12 $37 $38 reversed $6 $-1 #
coedge $-1 $12 $39 $40 $41 reversed $6 $-1 #
coedge $-1 $17 $42 $12 $22 forward $9 $-1 #
edge $-1 $43 0 $44 0.75 $12 $45 forward 7 unknown #
face $-1 $46 $47 $3 $-1 $48 forward single #
loop $-1 $-1 $49 $13 #
plane-surface $-1 0 1 0 -1 0 0 0 -1 0 forward_v I I I I #
coedge $-1 $50 $40 $51 $52 forward $14 $-1 #
loop $-1 $53 $54 $5 #
coedge $-1 $55 $55 $56 $57 forward $16 $-1 #
coedge $-1 $42 $17 $58 $59 reversed $9 $-1 #
coedge $-1 $40 $50 $17 $31 reversed $14 $-1 #
edge $-1 $44 0 $60 62 $30 $61 forward 7 unknown #
coedge $-1 $62 $18 $63 $64 reversed $11 $-1 #
coedge $-1 $18 $65 $66 $67 reversed $11 $-1 #
coedge $-1 $68 $69 $18 $35 forward $70 $-1 #
edge $-1 $71 0 $72 1.5707963267948966 $18 $73 forward 7 unknown #
coedge $-1 $74 $19 $75 $76 reversed $6 $-1 #
coedge $-1 $77 $78 $19 $38 forward $79 $-1 #
edge $-1 $80 0 $43 1.5707963267948966 $19 $81 forward 7 unknown #
coedge $-1 $20 $82 $83 $84 reversed $6 $-1 #
coedge $-1 $26 $30 $20 $41 forward $14 $-1 #
edge $-1 $44 0 $85 1.5707963267948966 $20 $86 forward 7 unknown #
coedge $-1 $21 $29 $77 $87 reversed $9 $-1 #
vertex $-1 $38 $88 #
vertex $-1 $41 $89 #
straight-curve $-1 1 1.25 0 -1 0 0 I I #
face $-1 $90 $91 $3 $-1 $92 forward single #
loop $-1 $-1 $93 $23 #
cone-surface $-1 0.25 0.25 0 0 0 1 0.25 0 0 1 I I 0 1 0.25 forward I I I I #
coedge $-1 $94 $83 $95 $96 forward $24 $-1 #
coedge $-1 $30 $26 $97 $98 reversed $14 $-1 #
coedge $-1 $83 $94 $26 $52 reversed $24 $-1 #
edge $-1 $85 0 $99 62 $26 $100 forward 7 unknown #
loop $-1 $101 $102 $5 #
coedge $-1 $103 $103 $104 $105 forward $27 $-1 #
coedge $-1 $28 $28 $106 $107 forward $16 $-1 #
coedge $-1 $108 $109 $28 $57 reversed $110 $-1 #
edge $-1 $111 0 $112 3.1415926535897931 $28 $113 forward 7 unknown #
coedge $-1 $97 $114 $29 $59 forward $115 $-1 #
edge $-1 $116 0 $60 0.75 $58 $117 forward 7 unknown #
vertex $-1 $98 $118 #
straight-curve $-1 0.25 1.25 0 0 0 1 I I #
coedge $-1 $119 $32 $120 $121 reversed $11 $-1 #
coedge $-1 $122 $123 $32 $64 forward $124 $-1 #
edge $-1 $125 0 $71 0.75 $32 $126 forward 7 unknown #
coedge $-1 $33 $127 $128 $129 reversed $11 $-1 #
coedge $-1 $130 $131 $33 $67 forward $132 $-1 #
edge $-1 $72 0 $133 0.75 $33 $134 forward 7 unknown #
coedge $-1 $135 $34 $131 $136 forward $70 $-1 #
coedge $-1 $34 $135 $122 $137 reversed $70 $-1 #
loop $-1 $-1 $68 $138 #
vertex $-1 $64 $139 #
vertex $-1 $67 $140 #
ellipse-curve $-1 0.25 1 0 0 0 -1 -0.125 0 0 1 I I #
coedge $-1 $141 $36 $142 $143 reversed $6 $-1 #
coedge $-1 $144 $145 $36 $76 forward $146 $-1 #
edge $-1 $147 0 $80 0.75 $36 $148 forward 7 unknown #
coedge $-1 $149 $37 $42 $87 forward $79 $-1 #
coedge $-1 $37 $149 $144 $150 reversed $79 $-1 #
loop $-1 $-1 $77 $151 #
vertex $-1 $76 $152 #
ellipse-curve $-1 1 1 0 0 0 1 0.25 0 0 1 I I #
coedge $-1 $39 $141 $153 $154 reversed $6 $-1 #
coedge $-1 $49 $51 $39 $84 forward $24 $-1 #
edge $-1 $85 0 $155 0.75 $39 $156 forward 7 unknown #
vertex $-1 $41 $157 #
ellipse-curve $-1 0.25 1 0 0 0 1 0 0.25 0 1 I I #
edge $-1 $43 0 $116 62 $77 $158 forward 7 unknown #
point $-1 1 1.25 0 #
point $-1 0.25 1.25 0 #
face $-1 $159 $160 $3 $-1 $161 forward single #
loop $-1 $162 $163 $46 #
plane-surface $-1 0.25 0 0 0 -1 0 1 0 0 forward_v I I I I #
coedge $-1 $164 $153 $165 $166 forward $47 $-1 #
coedge $-1 $51 $49 $167 $168 reversed $24 $-1 #
coedge $-1 $153 $164 $49 $96 reversed $47 $-1 #
edge $-1 $155 0 $169 62 $49 $170 forward 7 unknown #
coedge $-1 $167 $58 $50 $98 forward $115 $-1 #
edge $-1 $60 0 $99 1.570796326794897 $97 $171 forward 7 unknown #
vertex $-1 $98 $172 #
straight-curve $-1 0 1 0 0 0 1 I I #
loop $-1 $173 $174 $5 #
coedge $-1 $175 $175 $176 $177 forward $53 $-1 #
coedge $-1 $54 $54 $178 $179 forward $27 $-1 #
coedge $-1 $180 $181 $54 $105 reversed $182 $-1 #
edge $-1 $183 0 $184 3.1415926535897931 $54 $185 forward 7 unknown #
coedge $-1 $186 $187 $55 $107 reversed $188 $-1 #
edge $-1 $112 0 $111 3.1415926535897931 $55 $189 forward 7 unknown #
coedge $-1 $190 $56 $187 $191 forward $110 $-1 #
coedge $-1 $56 $190 $186 $192 reversed $110 $-1 #
loop $-1 $-1 $108 $193 #
vertex $-1 $107 $194 #
vertex $-1 $107 $195 #
ellipse-curve $-1 0.625 1.25 61 0 -1 0 -0.125 0 0 1 I I #
coedge $-1 $58 $196 $149 $197 forward $115 $-1 #
loop $-1 $198 $167 $199 #
vertex $-1 $59 $200 #
straight-curve $-1 1 1.25 62 -1 0 0 I I #
point $-1 0.25 1.25 62 #
coedge $-1 $201 $62 $202 $203 reversed $11 $-1 #
coedge $-1 $204 $205 $62 $121 forward $206 $-1 #
edge $-1 $207 0 $125 1.5707963267948966 $62 $208 forward 7 unknown #
coedge $-1 $209 $63 $69 $137 forward $124 $-1 #
coedge $-1 $63 $209 $204 $210 reversed $124 $-1 #
loop $-1 $-1 $122 $211 #
vertex $-1 $121 $212 #
straight-curve $-1 0.125 0.25 0 0 1 0 I I #
coedge $-1 $65 $201 $213 $214 reversed $11 $-1 #
coedge $-1 $215 $216 $65 $129 forward $217 $-1 #
edge $-1 $133 0 $218 1.5707963267948966 $65 $219 forward 7 unknown #
coedge $-1 $220 $66 $216 $221 forward $132 $-1 #
coedge $-1 $66 $220 $68 $136 reversed $132 $-1 #
loop $-1 $222 $130 $223 #
vertex $-1 $67 $224 #
straight-curve $-1 0.25 1.125 0 1 0 0 I I #
coedge $-1 $69 $68 $225 $226 reversed $70 $-1 #
edge $-1 $72 0 $227 62 $131 $228 forward 7 unknown #
edge $-1 $71 0 $229 62 $122 $230 forward 7 unknown #
face $-1 $223 $70 $3 $-1 $231 reversed single #
point $-1 0.125 1 0 #
point $-1 0.25 1.125 0 #
coedge $-1 $82 $74 $232 $233 reversed $6 $-1 #
coedge $-1 $234 $235 $74 $143 forward $160 $-1 #
edge $-1 $236 0 $147 1.5707963267948966 $74 $237 forward 7 unknown #
coedge $-1 $238 $75 $78 $150 forward $146 $-1 #
coedge $-1 $75 $238 $234 $239 reversed $146 $-1 #
loop $-1 $-1 $144 $159 #
vertex $-1 $143 $240 #
straight-curve $-1 1.25 0.25 0 0 1 0 I I #
coedge $-1 $78 $77 $114 $197 reversed $79 $-1 #
edge $-1 $80 0 $241 62 $144 $242 forward 7 unknown #
face $-1 $199 $79 $3 $-1 $243 forward single #
point $-1 1.25 1 0 #
coedge $-1 $93 $95 $82 $154 forward $47 $-1 #
edge $-1 $155 0 $244 1.5707963267948966 $82 $245 forward 7 unknown #
vertex $-1 $84 $246 #
straight-curve $-1 0 1 0 0 -1 0 I I #
point $-1 0 1 0 #
straight-curve $-1 1 1.25 0 0 0 1 I I #
face $-1 $151 $146 $3 $-1 $247 forward single #
loop $-1 $-1 $234 $90 #
cone-surface $-1 1 0.25 0 0 0 1 0.25 0 0 1 I I 0 1 0.25 forward I I I I #
loop $-1 $248 $249 $46 #
coedge $-1 $250 $232 $235 $251 forward $91 $-1 #
coedge $-1 $95 $93 $252 $253 reversed $47 $-1 #
coedge $-1 $232 $250 $93 $166 reversed $91 $-1 #
edge $-1 $244 4.9701417919670601e-035 $254 62 $93 $255 forward 7 unknown #
coedge $-1 $252 $97 $94 $168 forward $115 $-1 #
edge $-1 $99 0 $169 0.75 $167 $256 forward 7 unknown #
vertex $-1 $253 $257 #
straight-curve $-1 0 0.25 0 0 0 1 I I #
ellipse-curve $-1 0.24999999999999992 1 62 0 0 1 8.3266726846886741e-017 0.25 0 1 I I #
point $-1 0 1 62 #
loop $-1 $-1 $258 $5 #
coedge $-1 $259 $259 $260 $261 forward $101 $-1 #
coedge $-1 $102 $102 $262 $263 forward $53 $-1 #
coedge $-1 $264 $265 $102 $177 reversed $266 $-1 #
edge $-1 $267 0 $268 3.1415926535897931 $102 $269 forward 7 unknown #
coedge $-1 $270 $271 $103 $179 reversed $272 $-1 #
edge $-1 $184 0 $183 3.1415926535897931 $103 $273 forward 7 unknown #
coedge $-1 $274 $104 $271 $275 forward $182 $-1 #
coedge $-1 $104 $274 $270 $276 reversed $182 $-1 #
loop $-1 $-1 $180 $277 #
vertex $-1 $179 $278 #
vertex $-1 $179 $279 #
ellipse-curve $-1 0.625 1.25 46 0 -1 0 -0.125 0 0 1 I I #
coedge $-1 $280 $106 $109 $192 forward $188 $-1 #
coedge $-1 $106 $280 $108 $191 reversed $188 $-1 #
loop $-1 $-1 $186 $281 #
ellipse-curve $-1 0.625 1.25 61 0 -1 0 0.125 0 0 1 I I #
coedge $-1 $109 $108 $282 $283 forward $110 $-1 #
edge $-1 $111 0 $284 0.125 $187 $285 forward 7 unknown #
edge $-1 $112 0 $286 0.125 $186 $287 forward 7 unknown #
face $-1 $281 $110 $3 $-1 $288 reversed single #
point $-1 0.5 1.25 61 #
point $-1 0.75 1.25 61 #
coedge $-1 $114 $289 $238 $290 forward $115 $-1 #
edge $-1 $241 0 $116 1.5707963267948974 $114 $291 forward 7 unknown #
loop $-1 $-1 $292 $199 #
face $-1 $293 $115 $3 $-1 $294 forward single #
point $-1 1 1.25 62 #
coedge $-1 $127 $119 $295 $296 reversed $11 $-1 #
coedge $-1 $297 $298 $119 $203 forward $299 $-1 #
edge $-1 $300 0 $207 0.75 $119 $301 forward 7 unknown #
coedge $-1 $302 $120 $123 $210 forward $206 $-1 #
coedge $-1 $120 $302 $297 $303 reversed $206 $-1 #
loop $-1 $-1 $204 $304 #
vertex $-1 $203 $305 #
ellipse-curve $-1 0.25 0.25 0 0 0 -1 0 -0.125 0 1 I I #
coedge $-1 $123 $122 $306 $307 reversed $124 $-1 #
edge $-1 $125 0 $308 62 $204 $309 forward 7 unknown #
face $-1 $138 $124 $3 $-1 $310 forward single #
point $-1 0.125 0.25 0 #
coedge $-1 $311 $312 $127 $214 forward $313 $-1 #
edge $-1 $218 0 $314 0.75 $127 $315 forward 7 unknown #
coedge $-1 $316 $128 $312 $317 forward $217 $-1 #
coedge $-1 $128 $316 $130 $221 reversed $217 $-1 #
loop $-1 $-1 $215 $293 #
vertex $-1 $129 $318 #
ellipse-curve $-1 1 1 0 0 0 -1 0 0.125 0 1 I I #
coedge $-1 $131 $130 $319 $320 reversed $132 $-1 #
edge $-1 $133 0 $321 62 $130 $322 forward 7 unknown #
loop $-1 $323 $282 $223 #
face $-1 $193 $132 $3 $-1 $324 forward single #
point $-1 1 1.125 0 #
coedge $-1 $319 $306 $135 $226 forward $198 $-1 #
edge $-1 $229 0 $227 1.5707963267948974 $225 $325 forward 7 unknown #
vertex $-1 $320 $326 #
straight-curve $-1 0.25 1.125 0 0 0 1 I I #
vertex $-1 $226 $327 #
straight-curve $-1 0.125 1 0 0 0 1 I I #
cone-surface $-1 0.25 1 0 0 0 1 0.125 0 0 1 I I 0 1 0.125 forward I I I I #
coedge $-1 $163 $165 $141 $233 forward $91 $-1 #
edge $-1 $244 0 $236 0.75 $141 $328 forward 7 unknown #
coedge $-1 $329 $142 $145 $239 forward $160 $-1 #
coedge $-1 $142 $329 $163 $251 reversed $160 $-1 #
vertex $-1 $233 $330 #
ellipse-curve $-1 1 0.25 0 0 0 1 0 -0.25 0 1 I I #
coedge $-1 $145 $144 $196 $290 reversed $146 $-1 #
edge $-1 $147 0 $331 62 $234 $332 forward 7 unknown #
point $-1 1.25 0.25 0 #
vertex $-1 $197 $333 #
straight-curve $-1 1.25 1 0 0 0 1 I I #
cone-surface $-1 1 1 0 0 0 1 0.25 0 0 1 I I 0 1 0.25 forward I I I I #
vertex $-1 $154 $334 #
ellipse-curve $-1 0.25 0.25 0 0 0 1 -0.25 0 0 1 I I #
point $-1 0 0.25 0 #
plane-surface $-1 1.25 0.25 0 1 0 0 0 1 0 forward_v I I I I #
loop $-1 $335 $336 $46 #
coedge $-1 $337 $337 $338 $339 reversed $162 $-1 #
coedge $-1 $165 $163 $340 $341 reversed $91 $-1 #
edge $-1 $236 0 $342 62 $163 $343 forward 7 unknown #
coedge $-1 $340 $167 $164 $253 forward $115 $-1 #
edge $-1 $169 -2.2204460492503126e-016 $254 1.5707963267948959 $252 $344 forward 7 unknown #
vertex $-1 $341 $345 #
straight-curve $-1 0.24999999999999994 0 0 8.9534114889125525e-019 0 1 I I #
straight-curve $-1 0 1 62 0 -1 0 I I #
point $-1 0 0.25000000000000006 62 #
coedge $-1 $346 $346 $347 $348 forward $173 $-1 #
coedge $-1 $174 $174 $349 $350 forward $101 $-1 #
coedge $-1 $351 $352 $174 $261 reversed $353 $-1 #
edge $-1 $354 0 $355 3.1415926535897931 $174 $356 forward 7 unknown #
coedge $-1 $357 $358 $175 $263 reversed $359 $-1 #
edge $-1 $268 0 $267 3.1415926535897931 $175 $360 forward 7 unknown #
coedge $-1 $361 $176 $358 $362 forward $266 $-1 #
coedge $-1 $176 $361 $357 $363 reversed $266 $-1 #
loop $-1 $-1 $264 $364 #
vertex $-1 $263 $365 #
vertex $-1 $263 $366 #
ellipse-curve $-1 0.625 1.25 31 0 -1 0 -0.125 0 0 1 I I #
coedge $-1 $367 $178 $181 $276 forward $272 $-1 #
coedge $-1 $178 $367 $180 $275 reversed $272 $-1 #
loop $-1 $-1 $270 $368 #
ellipse-curve $-1 0.625 1.25 46 0 -1 0 0.125 0 0 1 I I #
coedge $-1 $181 $180 $369 $370 forward $182 $-1 #
edge $-1 $183 0 $371 0.125 $271 $372 forward 7 unknown #
edge $-1 $184 0 $373 0.125 $270 $374 forward 7 unknown #
face $-1 $368 $182 $3 $-1 $375 reversed single #
point $-1 0.5 1.25 46 #
point $-1 0.75 1.25 46 #
coedge $-1 $187 $186 $376 $377 forward $188 $-1 #
face $-1 $277 $188 $3 $-1 $378 reversed single #
coedge $-1 $376 $376 $190 $283 reversed $222 $-1 #
edge $-1 $284 0 $286 3.1415926535897931 $282 $379 forward 7 unknown #
vertex $-1 $377 $380 #
straight-curve $-1 0.5 1.25 61 0 -1 0 I I #
vertex $-1 $377 $381 #
straight-curve $-1 0.75 1.25 61 0 -1 0 I I #
cone-surface $-1 0.625 1.25 61 0 -1 0 0.125 0 0 1 I I 0 1 0.125 forward I I I I #
coedge $-1 $196 $340 $329 $382 forward $115 $-1 #
edge $-1 $331 0 $241 0.75 $196 $383 forward 7 unknown #
ellipse-curve $-1 1 1.0000000000000002 62 0 0 1 0.25 -2.2204460492503131e-016 0 1 I I #
coedge $-1 $384 $319 $316 $385 forward $198 $-1 #
face $-1 $386 $217 $3 $-1 $387 reversed single #
plane-surface $-1 0 0 62 0 0 1 1 0 0 forward_v I I I I #
coedge $-1 $388 $389 $201 $296 forward $390 $-1 #
edge $-1 $314 0 $300 1.5707963267948966 $201 $391 forward 7 unknown #
coedge $-1 $392 $202 $205 $303 forward $299 $-1 #
coedge $-1 $202 $392 $388 $393 reversed $299 $-1 #
loop $-1 $394 $297 $395 #
vertex $-1 $296 $396 #
straight-curve $-1 1 0.125 0 -1 0 0 I I #
coedge $-1 $205 $204 $397 $398 reversed $206 $-1 #
edge $-1 $207 0 $399 62 $297 $400 forward 7 unknown #
face $-1 $211 $206 $3 $-1 $401 reversed single #
point $-1 0.25 0.125 0 #
coedge $-1 $225 $397 $209 $307 forward $198 $-1 #
edge $-1 $308 0 $229 0.75 $306 $402 forward 7 unknown #
vertex $-1 $307 $403 #
straight-curve $-1 0.125 0.25 0 0 0 1 I I #
plane-surface $-1 0.125 0.25 0 1 0 0 0 1 0 forward_v I I I I #
coedge $-1 $404 $213 $389 $405 forward $313 $-1 #
coedge $-1 $213 $404 $215 $317 reversed $313 $-1 #
loop $-1 $-1 $311 $386 #
vertex $-1 $214 $406 #
straight-curve $-1 1.125 1 0 0 -1 0 I I #
coedge $-1 $216 $215 $292 $385 reversed $217 $-1 #
edge $-1 $218 0 $407 62 $215 $408 forward 7 unknown #
point $-1 1.125 1 0 #
coedge $-1 $292 $225 $220 $320 forward $198 $-1 #
edge $-1 $227 0 $321 0.75 $319 $409 forward 7 unknown #
vertex $-1 $320 $410 #
straight-curve $-1 1 1.125 0 0 0 1 I I #
loop $-1 $411 $369 $223 #
plane-surface $-1 0.25 1.125 0 0 -1 0 1 0 0 forward_v I I I I #
ellipse-curve $-1 0.24999999999999989 1 62 0 0 -1 -0.12499999999999989 0 0 1 I I #
point $-1 0.25 1.125 62 #
point $-1 0.125 1 62 #
straight-curve $-1 0.25 0 0 1 0 0 I I #
coedge $-1 $235 $234 $289 $382 reversed $160 $-1 #
point $-1 1 0 0 #
vertex $-1 $290 $412 #
straight-curve $-1 1.25 0.25 0 0 0 1 I I #
point $-1 1.25 1 62 #
point $-1 0.25 0 0 #
loop $-1 $413 $414 $46 #
coedge $-1 $415 $415 $416 $417 reversed $248 $-1 #
coedge $-1 $249 $249 $418 $419 reversed $162 $-1 #
coedge $-1 $420 $421 $249 $339 forward $422 $-1 #
edge $-1 $423 0 $424 3.1415926535897931 $249 $425 forward 7 unknown #
coedge $-1 $289 $252 $250 $341 forward $115 $-1 #
edge $-1 $254 0 $342 0.75 $340 $426 forward 7 unknown #
vertex $-1 $382 $427 #
straight-curve $-1 1 0 0 0 0 1 I I #
ellipse-curve $-1 0.25000000000000006 0.25000000000000011 62 0 0 1 -0.25000000000000006 -1.1102230246251565e-016 0 1 I I #
point $-1 0.25 0 62 #
coedge $-1 $258 $258 $428 $429 forward $173 $-1 #
coedge $-1 $430 $431 $258 $348 reversed $432 $-1 #
edge $-1 $433 0 $434 3.1415926535897931 $258 $435 forward 7 unknown #
coedge $-1 $436 $437 $259 $350 reversed $438 $-1 #
edge $-1 $355 0 $354 3.1415926535897931 $259 $439 forward 7 unknown #
coedge $-1 $440 $260 $437 $441 forward $353 $-1 #
coedge $-1 $260 $440 $436 $442 reversed $353 $-1 #
loop $-1 $-1 $351 $443 #
vertex $-1 $350 $444 #
vertex $-1 $350 $445 #
ellipse-curve $-1 0.625 1.25 16 0 -1 0 -0.125 0 0 1 I I #
coedge $-1 $446 $262 $265 $363 forward $359 $-1 #
coedge $-1 $262 $446 $264 $362 reversed $359 $-1 #
loop $-1 $-1 $357 $447 #
ellipse-curve $-1 0.625 1.25 31 0 -1 0 0.125 0 0 1 I I #
coedge $-1 $265 $264 $448 $449 forward $266 $-1 #
edge $-1 $267 0 $450 0.125 $358 $451 forward 7 unknown #
edge $-1 $268 0 $452 0.125 $357 $453 forward 7 unknown #
face $-1 $447 $266 $3 $-1 $454 reversed single #
point $-1 0.5 1.25 31 #
point $-1 0.75 1.25 31 #
coedge $-1 $271 $270 $455 $456 forward $272 $-1 #
face $-1 $364 $272 $3 $-1 $457 reversed single #
coedge $-1 $455 $455 $274 $370 reversed $323 $-1 #
edge $-1 $371 0 $373 3.1415926535897931 $369 $458 forward 7 unknown #
vertex $-1 $456 $459 #
straight-curve $-1 0.5 1.25 46 0 -1 0 I I #
vertex $-1 $456 $460 #
straight-curve $-1 0.75 1.25 46 0 -1 0 I I #
cone-surface $-1 0.625 1.25 46 0 -1 0 0.125 0 0 1 I I 0 1 0.125 forward I I I I #
coedge $-1 $282 $282 $280 $377 reversed $222 $-1 #
edge $-1 $286 0 $284 3.1415926535897931 $376 $461 forward 7 unknown #
cone-surface $-1 0.625 1.25 61 0 -1 0 0.125 0 0 1 I I 0 1 0.125 forward I I I I #
ellipse-curve $-1 0.625 1.125 61 0 -1 0 -0.125 0 0 1 I I #
point $-1 0.5 1.125 61 #
point $-1 0.75 1.125 61 #
edge $-1 $342 0 $331 1.5707963267948963 $289 $462 forward 7 unknown #
straight-curve $-1 1.25 0.25 62 0 1 0 I I #
coedge $-1 $463 $292 $404 $464 forward $198 $-1 #
edge $-1 $321 0 $407 1.5707963267948966 $292 $465 forward 7 unknown #
face $-1 $466 $313 $3 $-1 $467 forward single #
cone-surface $-1 1 1 0 0 0 1 0.125 0 0 1 I I 0 1 0.125 forward I I I I #
coedge $-1 $468 $295 $298 $393 forward $390 $-1 #
coedge $-1 $295 $468 $311 $405 reversed $390 $-1 #
loop $-1 $-1 $388 $466 #
ellipse-curve $-1 1 0.25 0 0 0 -1 0.125 0 0 1 I I #
coedge $-1 $298 $297 $469 $470 reversed $299 $-1 #
edge $-1 $300 0 $471 62 $388 $472 forward 7 unknown #
loop $-1 $473 $474 $395 #
face $-1 $304 $299 $3 $-1 $475 forward single #
point $-1 1 0.125 0 #
coedge $-1 $306 $469 $302 $398 forward $198 $-1 #
edge $-1 $399 2.2204460492503131e-016 $308 1.5707963267948966 $397 $476 forward 7 unknown #
vertex $-1 $398 $477 #
straight-curve $-1 0.25 0.125 0 0 0 1 I I #
cone-surface $-1 0.25 0.25 0 0 0 1 0.125 0 0 1 I I 0 1 0.125 forward I I I I #
straight-curve $-1 0.125 0.25 62 0 1 0 I I #
point $-1 0.125 0.25 62 #
coedge $-1 $312 $311 $384 $464 reversed $313 $-1 #
edge $-1 $314 0 $478 62 $311 $479 forward 7 unknown #
point $-1 1.125 0.25 0 #
vertex $-1 $464 $480 #
straight-curve $-1 1.125 1 0 0 0 1 I I #
straight-curve $-1 0.25 1.125 62 1 0 0 I I #
point $-1 1 1.125 62 #
loop $-1 $481 $448 $223 #
point $-1 1.25 0.25 62 #
loop $-1 $482 $483 $46 #
coedge $-1 $484 $484 $485 $486 reversed $335 $-1 #
coedge $-1 $336 $336 $487 $488 reversed $248 $-1 #
coedge $-1 $489 $490 $336 $417 forward $491 $-1 #
edge $-1 $492 0 $493 3.1415926535897931 $336 $494 forward 7 unknown #
coedge $-1 $495 $496 $337 $419 forward $497 $-1 #
edge $-1 $424 0 $423 3.1415926535897931 $337 $498 forward 7 unknown #
coedge $-1 $499 $338 $496 $500 reversed $422 $-1 #
coedge $-1 $338 $499 $495 $501 forward $422 $-1 #
loop $-1 $-1 $420 $502 #
vertex $-1 $419 $503 #
vertex $-1 $419 $504 #
ellipse-curve $-1 0.625 0 61 0 -1 0 -0.125 0 0 1 I I #
straight-curve $-1 0.25 0 62 1 0 0 I I #
point $-1 1 0 62 #
coedge $-1 $505 $506 $346 $429 reversed $507 $-1 #
edge $-1 $434 0 $433 3.1415926535897931 $346 $508 forward 7 unknown #
coedge $-1 $509 $347 $506 $510 forward $432 $-1 #
coedge $-1 $347 $509 $505 $511 reversed $432 $-1 #
loop $-1 $-1 $430 $512 #
vertex $-1 $429 $513 #
vertex $-1 $429 $514 #
ellipse-curve $-1 0.625 1.25 1 0 -1 0 -0.125 0 0 1 I I #
coedge $-1 $515 $349 $352 $442 forward $438 $-1 #
coedge $-1 $349 $515 $351 $441 reversed $438 $-1 #
loop $-1 $-1 $436 $516 #
ellipse-curve $-1 0.625 1.25 16 0 -1 0 0.125 0 0 1 I I #
coedge $-1 $352 $351 $517 $518 forward $353 $-1 #
edge $-1 $354 0 $519 0.125 $437 $520 forward 7 unknown #
edge $-1 $355 0 $521 0.125 $436 $522 forward 7 unknown #
face $-1 $516 $353 $3 $-1 $523 reversed single #
point $-1 0.5 1.25 16 #
point $-1 0.75 1.25 16 #
coedge $-1 $358 $357 $524 $525 forward $359 $-1 #
face $-1 $443 $359 $3 $-1 $526 reversed single #
coedge $-1 $524 $524 $361 $449 reversed $411 $-1 #
edge $-1 $450 0 $452 3.1415926535897363 $448 $527 forward 7 unknown #
vertex $-1 $525 $528 #
straight-curve $-1 0.5 1.25 31 0 -1 0 I I #
vertex $-1 $525 $529 #
straight-curve $-1 0.75 1.25 31 0 -1 0 I I #
cone-surface $-1 0.625 1.25 31 0 -1 0 0.125 0 0 1 I I 0 1 0.125 forward I I I I #
coedge $-1 $369 $369 $367 $456 reversed $323 $-1 #
edge $-1 $373 0 $371 3.1415926535897931 $455 $530 forward 7 unknown #
cone-surface $-1 0.625 1.25 46 0 -1 0 0.125 0 0 1 I I 0 1 0.125 forward I I I I #
ellipse-curve $-1 0.625 1.125 46 0 -1 0 -0.125 0 0 1 I I #
point $-1 0.5 1.125 46 #
point $-1 0.75 1.125 46 #
ellipse-curve $-1 0.625 1.125 61 0 -1 0 0.125 0 0 1 I I #
ellipse-curve $-1 1 0.25000000000000006 62 0 0 1 0 -0.25000000000000006 0 1 I I #
coedge $-1 $469 $384 $468 $531 forward $198 $-1 #
edge $-1 $407 0 $478 0.75 $384 $532 forward 7 unknown #
ellipse-curve $-1 1 1 62 0 0 -1 0 0.125 0 1 I I #
face $-1 $395 $390 $3 $-1 $533 reversed single #
plane-surface $-1 1.125 1 0 -1 0 0 0 -1 0 forward_v I I I I #
coedge $-1 $389 $388 $463 $531 reversed $390 $-1 #
coedge $-1 $397 $463 $392 $470 forward $198 $-1 #
edge $-1 $471 0 $399 0.75 $469 $534 forward 7 unknown #
vertex $-1 $470 $535 #
straight-curve $-1 1 0.125 0 0 0 1 I I #
loop $-1 $536 $537 $395 #
coedge $-1 $538 $538 $499 $539 forward $394 $-1 #
plane-surface $-1 1 0.125 0 0 1 0 -1 0 0 forward_v I I I I #
ellipse-curve $-1 0.25 0.25 62 0 0 -1 0 -0.125 0 1 I I #
point $-1 0.24999999999999997 0.125 62 #
vertex $-1 $531 $540 #
straight-curve $-1 1.125 0.25 0 0 0 1 I I #
point $-1 1.125 1 62 #
loop $-1 $541 $517 $223 #
loop $-1 $-1 $542 $46 #
coedge $-1 $543 $543 $544 $545 reversed $413 $-1 #
coedge $-1 $414 $414 $546 $547 reversed $335 $-1 #
coedge $-1 $548 $549 $414 $486 forward $550 $-1 #
edge $-1 $551 0 $552 3.1415926535897363 $414 $553 forward 7 unknown #
coedge $-1 $554 $555 $415 $488 forward $556 $-1 #
edge $-1 $493 0 $492 3.1415926535897931 $415 $557 forward 7 unknown #
coedge $-1 $558 $416 $555 $559 reversed $491 $-1 #
coedge $-1 $416 $558 $554 $560 forward $491 $-1 #
loop $-1 $-1 $489 $561 #
vertex $-1 $488 $562 #
vertex $-1 $488 $563 #
ellipse-curve $-1 0.625 0 46 0 -1 0 -0.125 0 0 1 I I #
coedge $-1 $564 $418 $421 $501 reversed $497 $-1 #
coedge $-1 $418 $564 $420 $500 forward $497 $-1 #
loop $-1 $-1 $495 $565 #
ellipse-curve $-1 0.625 0 61 0 -1 0 0.125 0 0 1 I I #
coedge $-1 $421 $420 $474 $539 reversed $422 $-1 #
edge $-1 $566 0 $424 0.125 $496 $567 forward 7 unknown #
edge $-1 $568 0 $423 0.125 $495 $569 forward 7 unknown #
face $-1 $565 $422 $3 $-1 $570 reversed single #
point $-1 0.5 0 61 #
point $-1 0.75 0 61 #
coedge $-1 $571 $428 $431 $511 forward $507 $-1 #
coedge $-1 $428 $571 $430 $510 reversed $507 $-1 #
loop $-1 $-1 $505 $572 #
ellipse-curve $-1 0.625 1.25 1 0 -1 0 0.125 0 0 1 I I #
coedge $-1 $431 $430 $573 $574 forward $432 $-1 #
edge $-1 $433 0 $575 0.125 $506 $576 forward 7 unknown #
edge $-1 $434 0 $577 0.125 $505 $578 forward 7 unknown #
face $-1 $572 $432 $3 $-1 $579 reversed single #
point $-1 0.5 1.25 1 #
point $-1 0.75 1.25 1 #
coedge $-1 $437 $436 $580 $581 forward $438 $-1 #
face $-1 $512 $438 $3 $-1 $582 reversed single #
coedge $-1 $580 $580 $440 $518 reversed $481 $-1 #
edge $-1 $519 0 $521 3.1415926535898215 $517 $583 forward 7 unknown #
vertex $-1 $581 $584 #
straight-curve $-1 0.5 1.25 16 0 -1 0 I I #
vertex $-1 $581 $585 #
straight-curve $-1 0.75 1.25 16 0 -1 0 I I #
cone-surface $-1 0.625 1.25 16 0 -1 0 0.125 0 0 1 I I 0 1 0.125 forward I I I I #
coedge $-1 $448 $448 $446 $525 reversed $411 $-1 #
edge $-1 $452 0 $450 3.1415926535897363 $524 $586 forward 7 unknown #
cone-surface $-1 0.625 1.25 31 0 -1 0 0.125 0 0 1 I I 0 1 0.125 forward I I I I #
ellipse-curve $-1 0.625 1.125 31.000000000000004 0 -1 0 -0.125 0 -3.5527136788005009e-015 1 I I #
point $-1 0.5 1.125 31 #
point $-1 0.75 1.125 31 #
ellipse-curve $-1 0.625 1.125 46 0 -1 0 0.125 0 0 1 I I #
edge $-1 $478 2.2204460492503111e-016 $471 1.5707963267948957 $463 $587 forward 7 unknown #
straight-curve $-1 1.125 1 62 0 -1 0 I I #
cone-surface $-1 1 0.25 0 0 0 1 0.125 0 0 1 I I 0 1 0.125 forward I I I I #
straight-curve $-1 1 0.125 62 -1 0 0 I I #
point $-1 1 0.125 62 #
loop $-1 $588 $589 $395 #
coedge $-1 $590 $590 $558 $591 forward $473 $-1 #
coedge $-1 $474 $474 $564 $592 forward $394 $-1 #
edge $-1 $568 0 $566 3.1415926535897931 $474 $593 forward 7 unknown #
point $-1 1.125 0.24999999999999997 62 #
loop $-1 $-1 $573 $223 #
coedge $-1 $594 $594 $595 $596 reversed $482 $-1 #
coedge $-1 $483 $483 $597 $598 reversed $413 $-1 #
coedge $-1 $599 $600 $483 $545 forward $601 $-1 #
edge $-1 $602 0 $603 3.1415926535898215 $483 $604 forward 7 unknown #
coedge $-1 $605 $606 $484 $547 forward $607 $-1 #
edge $-1 $552 0 $551 3.1415926535897363 $484 $608 forward 7 unknown #
coedge $-1 $609 $485 $606 $610 reversed $550 $-1 #
coedge $-1 $485 $609 $605 $611 forward $550 $-1 #
loop $-1 $-1 $548 $612 #
vertex $-1 $547 $613 #
vertex $-1 $547 $614 #
ellipse-curve $-1 0.625 0 31.000000000000004 0 -1 0 -0.125 0 -3.5527136788005009e-015 1 I I #
coedge $-1 $615 $487 $490 $560 reversed $556 $-1 #
coedge $-1 $487 $615 $489 $559 forward $556 $-1 #
loop $-1 $-1 $554 $616 #
ellipse-curve $-1 0.625 0 46 0 -1 0 0.125 0 0 1 I I #
coedge $-1 $490 $489 $537 $591 reversed $491 $-1 #
edge $-1 $617 0 $493 0.125 $555 $618 forward 7 unknown #
edge $-1 $619 0 $492 0.125 $554 $620 forward 7 unknown #
face $-1 $616 $491 $3 $-1 $621 reversed single #
point $-1 0.5 0 46 #
point $-1 0.75 0 46 #
coedge $-1 $496 $495 $538 $592 reversed $497 $-1 #
face $-1 $561 $497 $3 $-1 $622 reversed single #
vertex $-1 $592 $623 #
straight-curve $-1 0.75 0.125 61 0 -1 0 I I #
vertex $-1 $592 $624 #
straight-curve $-1 0.5 0.125 61 0 -1 0 I I #
cone-surface $-1 0.625 1.25 61 0 -1 0 0.125 0 0 1 I I 0 1 0.125 forward I I I I #
coedge $-1 $506 $505 $625 $626 forward $507 $-1 #
face $-1 $502 $507 $3 $-1 $627 reversed single #
coedge $-1 $625 $625 $509 $574 reversed $541 $-1 #
edge $-1 $575 0 $577 3.1415926535897931 $573 $628 forward 7 unknown #
vertex $-1 $626 $629 #
straight-curve $-1 0.5 1.25 1 0 -1 0 I I #
vertex $-1 $626 $630 #
straight-curve $-1 0.75 1.25 1 0 -1 0 I I #
cone-surface $-1 0.625 1.25 1 0 -1 0 0.125 0 0 1 I I 0 1 0.125 forward I I I I #
coedge $-1 $517 $517 $515 $581 reversed $481 $-1 #
edge $-1 $521 0 $519 3.1415926535897363 $580 $631 forward 7 unknown #
cone-surface $-1 0.625 1.25 16 0 -1 0 0.125 0 0 1 I I 0 1 0.125 forward I I I I #
ellipse-curve $-1 0.625 1.125 15.999999999999998 0 -1 0 -0.125 0 1.7763568394002505e-015 1 I I #
point $-1 0.5 1.125 16 #
point $-1 0.75 1.125 16 #
ellipse-curve $-1 0.625 1.125 30.999999999999996 0 -1 0 0.125 0 3.5527136788005009e-015 1 I I #
ellipse-curve $-1 0.99999999999999989 0.25 62 0 0 -1 0.12500000000000011 0 0 1 I I #
loop $-1 $632 $633 $395 #
coedge $-1 $634 $634 $609 $635 forward $536 $-1 #
coedge $-1 $537 $537 $615 $636 forward $473 $-1 #
edge $-1 $619 0 $617 3.1415926535897931 $537 $637 forward 7 unknown #
edge $-1 $566 0 $568 3.1415926535897931 $538 $638 forward 7 unknown #
ellipse-curve $-1 0.625 0.125 61 0 -1 0 -0.125 0 0 1 I I #
coedge $-1 $542 $542 $639 $640 reversed $482 $-1 #
coedge $-1 $641 $642 $542 $596 forward $643 $-1 #
edge $-1 $644 0 $645 3.1415926535897931 $542 $646 forward 7 unknown #
coedge $-1 $647 $648 $543 $598 forward $649 $-1 #
edge $-1 $603 0 $602 3.1415926535897363 $543 $650 forward 7 unknown #
coedge $-1 $651 $544 $648 $652 reversed $601 $-1 #
coedge $-1 $544 $651 $647 $653 forward $601 $-1 #
loop $-1 $-1 $599 $654 #
vertex $-1 $598 $655 #
vertex $-1 $598 $656 #
ellipse-curve $-1 0.625 0 15.999999999999998 0 -1 0 -0.125 0 1.7763568394002505e-015 1 I I #
coedge $-1 $657 $546 $549 $611 reversed $607 $-1 #
coedge $-1 $546 $657 $548 $610 forward $607 $-1 #
loop $-1 $-1 $605 $658 #
ellipse-curve $-1 0.625 0 30.999999999999996 0 -1 0 0.125 0 3.5527136788005009e-015 1 I I #
coedge $-1 $549 $548 $589 $635 reversed $550 $-1 #
edge $-1 $659 0 $552 0.125 $606 $660 forward 7 unknown #
edge $-1 $661 0 $551 0.125 $605 $662 forward 7 unknown #
face $-1 $658 $550 $3 $-1 $663 reversed single #
point $-1 0.5 0 31 #
point $-1 0.75 0 31 #
coedge $-1 $555 $554 $590 $636 reversed $556 $-1 #
face $-1 $612 $556 $3 $-1 $664 reversed single #
vertex $-1 $636 $665 #
straight-curve $-1 0.75 0.125 46 0 -1 0 I I #
vertex $-1 $636 $666 #
straight-curve $-1 0.5 0.125 46 0 -1 0 I I #
cone-surface $-1 0.625 1.25 46 0 -1 0 0.125 0 0 1 I I 0 1 0.125 forward I I I I #
cone-surface $-1 0.625 1.25 61 0 -1 0 0.125 0 0 1 I I 0 1 0.125 forward I I I I #
point $-1 0.75 0.125 61 #
point $-1 0.5 0.125 61 #
coedge $-1 $573 $573 $571 $626 reversed $541 $-1 #
edge $-1 $577 0 $575 3.1415926535897967 $625 $667 forward 7 unknown #
cone-surface $-1 0.625 1.25 1 0 -1 0 0.125 0 0 1 I I 0 1 0.125 forward I I I I #
ellipse-curve $-1 0.625 1.125 1 0 -1 0 -0.125 0 0 1 I I #
point $-1 0.5 1.125 1 #
point $-1 0.75 1.125 1 #
ellipse-curve $-1 0.625 1.125 15.999999999999996 0 -1 0 0.125 0 3.5527136788005009e-015 1 I I #
loop $-1 $-1 $668 $395 #
coedge $-1 $669 $669 $651 $670 forward $588 $-1 #
coedge $-1 $589 $589 $657 $671 forward $536 $-1 #
edge $-1 $661 0 $659 3.1415926535897363 $589 $672 forward 7 unknown #
edge $-1 $617 0 $619 3.1415926535897931 $590 $673 forward 7 unknown #
ellipse-curve $-1 0.625 0.125 46 0 -1 0 -0.125 0 0 1 I I #
ellipse-curve $-1 0.625 0.125 61 0 -1 0 0.125 0 0 1 I I #
coedge $-1 $674 $675 $594 $640 forward $676 $-1 #
edge $-1 $645 0 $644 3.1415926535897967 $594 $677 forward 7 unknown #
coedge $-1 $678 $595 $675 $679 reversed $643 $-1 #
coedge $-1 $595 $678 $674 $680 forward $643 $-1 #
loop $-1 $-1 $641 $681 #
vertex $-1 $640 $682 #
vertex $-1 $640 $683 #
ellipse-curve $-1 0.625 0 1 0 -1 0 -0.125 0 0 1 I I #
coedge $-1 $684 $597 $600 $653 reversed $649 $-1 #
coedge $-1 $597 $684 $599 $652 forward $649 $-1 #
loop $-1 $-1 $647 $685 #
ellipse-curve $-1 0.625 0 15.999999999999996 0 -1 0 0.125 0 3.5527136788005009e-015 1 I I #
coedge $-1 $600 $599 $633 $670 reversed $601 $-1 #
edge $-1 $686 0 $603 0.125 $648 $687 forward 7 unknown #
edge $-1 $688 0 $602 0.125 $647 $689 forward 7 unknown #
face $-1 $685 $601 $3 $-1 $690 reversed single #
point $-1 0.5 0 16 #
point $-1 0.75 0 16 #
coedge $-1 $606 $605 $634 $671 reversed $607 $-1 #
face $-1 $654 $607 $3 $-1 $691 reversed single #
vertex $-1 $671 $692 #
straight-curve $-1 0.75 0.125 31 0 -1 0 I I #
vertex $-1 $671 $693 #
straight-curve $-1 0.5 0.125 31 0 -1 0 I I #
cone-surface $-1 0.625 1.25 31 0 -1 0 0.125 0 0 1 I I 0 1 0.125 forward I I I I #
cone-surface $-1 0.625 1.25 46 0 -1 0 0.125 0 0 1 I I 0 1 0.125 forward I I I I #
point $-1 0.75 0.125 46 #
point $-1 0.5 0.125 46 #
ellipse-curve $-1 0.625 1.125 1.0000000000000002 0 -1 0 0.125 0 -2.2204460492503131e-016 1 I I #
coedge $-1 $694 $694 $678 $695 forward $632 $-1 #
coedge $-1 $633 $633 $684 $696 forward $588 $-1 #
edge $-1 $688 0 $686 3.1415926535898215 $633 $697 forward 7 unknown #
edge $-1 $659 0 $661 3.1415926535897363 $634 $698 forward 7 unknown #
ellipse-curve $-1 0.625 0.125 31.000000000000004 0 -1 0 -0.125 0 -3.5527136788005009e-015 1 I I #
ellipse-curve $-1 0.625 0.125 46 0 -1 0 0.125 0 0 1 I I #
coedge $-1 $699 $639 $642 $680 reversed $676 $-1 #
coedge $-1 $639 $699 $641 $679 forward $676 $-1 #
loop $-1 $-1 $674 $700 #
ellipse-curve $-1 0.625 0 1.0000000000000002 0 -1 0 0.125 0 -2.2204460492503131e-016 1 I I #
coedge $-1 $642 $641 $668 $695 reversed $643 $-1 #
edge $-1 $701 0 $645 0.125 $675 $702 forward 7 unknown #
edge $-1 $703 0 $644 0.125 $674 $704 forward 7 unknown #
face $-1 $700 $643 $3 $-1 $705 reversed single #
point $-1 0.5 0 1 #
point $-1 0.75 0 1 #
coedge $-1 $648 $647 $669 $696 reversed $649 $-1 #
face $-1 $681 $649 $3 $-1 $706 reversed single #
vertex $-1 $696 $707 #
straight-curve $-1 0.75 0.125 16 0 -1 0 I I #
vertex $-1 $696 $708 #
straight-curve $-1 0.5 0.125 16 0 -1 0 I I #
cone-surface $-1 0.625 1.25 16 0 -1 0 0.125 0 0 1 I I 0 1 0.125 forward I I I I #
cone-surface $-1 0.625 1.25 31 0 -1 0 0.125 0 0 1 I I 0 1 0.125 forward I I I I #
point $-1 0.75 0.125 31 #
point $-1 0.5 0.125 31 #
coedge $-1 $668 $668 $699 $709 forward $632 $-1 #
edge $-1 $703 0 $701 3.1415926535897931 $668 $710 forward 7 unknown #
edge $-1 $686 0 $688 3.1415926535897363 $669 $711 forward 7 unknown #
ellipse-curve $-1 0.625 0.125 15.999999999999998 0 -1 0 -0.125 0 1.7763568394002505e-015 1 I I #
ellipse-curve $-1 0.625 0.125 30.999999999999996 0 -1 0 0.125 0 3.5527136788005009e-015 1 I I #
coedge $-1 $675 $674 $694 $709 reversed $676 $-1 #
face $-1 $-1 $676 $3 $-1 $712 reversed single #
vertex $-1 $709 $713 #
straight-curve $-1 0.75 0.125 1 0 -1 0 I I #
vertex $-1 $709 $714 #
straight-curve $-1 0.5 0.125 1 0 -1 0 I I #
cone-surface $-1 0.625 1.25 1 0 -1 0 0.125 0 0 1 I I 0 1 0.125 forward I I I I #
cone-surface $-1 0.625 1.25 16 0 -1 0 0.125 0 0 1 I I 0 1 0.125 forward I I I I #
point $-1 0.75 0.125 16 #
point $-1 0.5 0.125 16 #
edge $-1 $701 0 $703 3.1415926535897967 $694 $715 forward 7 unknown #
ellipse-curve $-1 0.625 0.125 1 0 -1 0 -0.125 0 0 1 I I #
ellipse-curve $-1 0.625 0.125 15.999999999999996 0 -1 0 0.125 0 3.5527136788005009e-015 1 I I #
cone-surface $-1 0.625 1.25 1 0 -1 0 0.125 0 0 1 I I 0 1 0.125 forward I I I I #
point $-1 0.75 0.125 1 #
point $-1 0.5 0.125 1 #
ellipse-curve $-1 0.625 0.125 1.0000000000000002 0 -1 0 0.125 0 -2.2204460492503131e-016 1 I I #
End-of-ACIS-data 