600 0 1 0           
100 GICL Pro/E ACIS Translator - Source: f:/data5/repository/PTC/V18/lrgasm18/frame_crossbar.prt.2 - 6 0 13 ACIS 6.0.3 NT 24 Thu Apr 04 13:35:13 2002 
1 9.9999999999999995e-007 1e-010 
body $-1 $1 $-1 $2 #
lump $-1 $-1 $3 $0 #
transform $-1 1 0 0 0 1 0 0 0 1 0 0 0 25.399999999999999 no_rotate no_reflect no_shear #
shell $-1 $-1 $-1 $4 $-1 $1 #
face $-1 $5 $6 $3 $-1 $7 reversed single #
face $-1 $8 $9 $3 $-1 $10 forward single #
loop $-1 $11 $12 $4 #
plane-surface $-1 0 0 0 0 0 1 1 0 0 forward_v I I I I #
face $-1 $13 $14 $3 $-1 $15 forward single #
loop $-1 $-1 $16 $5 #
plane-surface $-1 1 0 0 0 1 0 -1 0 0 forward_v I I I I #
loop $-1 $-1 $17 $4 #
coedge $-1 $18 $19 $20 $21 reversed $6 $-1 #
face $-1 $22 $23 $3 $-1 $24 forward single #
loop $-1 $25 $26 $8 #
plane-surface $-1 0 0 0 -1 0 0 0 -1 0 forward_v I I I I #
coedge $-1 $27 $20 $28 $29 forward $9 $-1 #
coedge $-1 $30 $31 $32 $33 reversed $11 $-1 #
coedge $-1 $34 $12 $35 $36 reversed $6 $-1 #
coedge $-1 $12 $34 $37 $38 reversed $6 $-1 #
coedge $-1 $16 $39 $12 $21 forward $9 $-1 #
edge $-1 $40 0 $41 1 $12 $42 forward 7 unknown #
face $-1 $43 $44 $3 $-1 $45 forward single #
loop $-1 $-1 $46 $13 #
plane-surface $-1 0 -1 0 0 -1 0 1 0 0 forward_v I I I I #
loop $-1 $47 $48 $8 #
coedge $-1 $49 $37 $50 $51 forward $14 $-1 #
coedge $-1 $39 $16 $52 $53 reversed $9 $-1 #
coedge $-1 $37 $49 $16 $29 reversed $14 $-1 #
edge $-1 $41 0 $54 36 $28 $55 forward 7 unknown #
coedge $-1 $56 $17 $57 $58 reversed $11 $-1 #
coedge $-1 $17 $56 $59 $60 reversed $11 $-1 #
coedge $-1 $61 $62 $17 $33 forward $63 $-1 #
edge $-1 $64 0 $65 0.79999999999999993 $17 $66 forward 7 unknown #
coedge $-1 $19 $18 $67 $68 reversed $6 $-1 #
coedge $-1 $69 $70 $18 $36 forward $44 $-1 #
edge $-1 $71 0 $40 1 $18 $72 forward 7 unknown #
coedge $-1 $26 $28 $19 $38 forward $14 $-1 #
edge $-1 $41 0 $73 1 $19 $74 forward 7 unknown #
coedge $-1 $20 $27 $69 $75 reversed $9 $-1 #
vertex $-1 $36 $76 #
vertex $-1 $38 $77 #
straight-curve $-1 1 0 0 -1 0 0 I I #
face $-1 $78 $79 $3 $-1 $80 forward single #
loop $-1 $81 $69 $22 #
plane-surface $-1 1 -1 0 1 0 0 0 1 0 forward_v I I I I #
coedge $-1 $82 $67 $70 $83 forward $23 $-1 #
loop $-1 $-1 $84 $8 #
coedge $-1 $85 $85 $86 $87 forward $25 $-1 #
coedge $-1 $28 $26 $88 $89 reversed $14 $-1 #
coedge $-1 $67 $82 $26 $51 reversed $23 $-1 #
edge $-1 $73 0 $90 36 $26 $91 forward 7 unknown #
coedge $-1 $88 $92 $27 $53 forward $79 $-1 #
edge $-1 $93 0 $54 1 $52 $94 forward 7 unknown #
vertex $-1 $89 $95 #
straight-curve $-1 0 0 0 0 0 1 I I #
coedge $-1 $31 $30 $96 $97 reversed $11 $-1 #
coedge $-1 $98 $99 $30 $58 forward $100 $-1 #
edge $-1 $101 0 $64 0.79999999999999993 $30 $102 forward 7 unknown #
coedge $-1 $103 $104 $31 $60 forward $105 $-1 #
edge $-1 $65 0 $106 0.79999999999999993 $31 $107 forward 7 unknown #
coedge $-1 $108 $32 $104 $109 forward $63 $-1 #
coedge $-1 $32 $108 $98 $110 reversed $63 $-1 #
loop $-1 $111 $61 $112 #
vertex $-1 $58 $113 #
vertex $-1 $60 $114 #
straight-curve $-1 0.099999999999999992 -0.89999999999999991 0 0 1 0 I I #
coedge $-1 $46 $50 $34 $68 forward $23 $-1 #
edge $-1 $73 0 $71 1 $34 $115 forward 7 unknown #
coedge $-1 $116 $35 $39 $75 forward $44 $-1 #
coedge $-1 $35 $116 $46 $83 reversed $44 $-1 #
vertex $-1 $68 $117 #
straight-curve $-1 1 -1 0 0 1 0 I I #
vertex $-1 $38 $118 #
straight-curve $-1 0 0 0 0 -1 0 I I #
edge $-1 $40 0 $93 36 $69 $119 forward 7 unknown #
point $-1 1 0 0 #
point $-1 0 0 0 #
face $-1 $120 $121 $3 $-1 $122 forward single #
loop $-1 $123 $124 $43 #
plane-surface $-1 0 0 36 0 0 1 1 0 0 forward_v I I I I #
loop $-1 $125 $126 $22 #
coedge $-1 $50 $46 $124 $127 reversed $23 $-1 #
edge $-1 $71 0 $128 36 $46 $129 forward 7 unknown #
coedge $-1 $130 $130 $131 $132 reversed $47 $-1 #
coedge $-1 $48 $48 $133 $134 forward $25 $-1 #
coedge $-1 $135 $136 $48 $87 reversed $137 $-1 #
edge $-1 $138 0 $139 3.1415926535897931 $48 $140 forward 7 unknown #
coedge $-1 $124 $52 $49 $89 forward $79 $-1 #
edge $-1 $54 0 $90 1 $88 $141 forward 7 unknown #
vertex $-1 $89 $142 #
straight-curve $-1 0 -1 0 0 0 1 I I #
coedge $-1 $52 $124 $116 $143 forward $79 $-1 #
vertex $-1 $53 $144 #
straight-curve $-1 1 0 36 -1 0 0 I I #
point $-1 0 0 36 #
coedge $-1 $145 $146 $56 $97 forward $121 $-1 #
edge $-1 $106 0 $101 0.79999999999999993 $56 $147 forward 7 unknown #
coedge $-1 $148 $57 $62 $110 forward $100 $-1 #
coedge $-1 $57 $148 $145 $149 reversed $100 $-1 #
loop $-1 $-1 $98 $120 #
vertex $-1 $97 $150 #
straight-curve $-1 0.89999999999999991 -0.89999999999999991 0 -1 0 0 I I #
coedge $-1 $151 $59 $146 $152 forward $105 $-1 #
coedge $-1 $59 $151 $61 $109 reversed $105 $-1 #
loop $-1 $-1 $103 $153 #
vertex $-1 $60 $154 #
straight-curve $-1 0.099999999999999992 -0.099999999999999992 0 1 0 0 I I #
coedge $-1 $62 $61 $155 $156 reversed $63 $-1 #
edge $-1 $65 0 $157 36 $104 $158 forward 7 unknown #
edge $-1 $64 0 $159 36 $98 $160 forward 7 unknown #
loop $-1 $161 $162 $112 #
face $-1 $153 $63 $3 $-1 $163 forward single #
point $-1 0.099999999999999992 -0.89999999999999991 0 #
point $-1 0.099999999999999992 -0.099999999999999992 0 #
straight-curve $-1 0 -1 0 1 0 0 I I #
coedge $-1 $70 $69 $92 $143 reversed $44 $-1 #
point $-1 1 -1 0 #
point $-1 0 -1 0 #
straight-curve $-1 1 0 0 0 0 1 I I #
face $-1 $112 $100 $3 $-1 $164 forward single #
loop $-1 $165 $145 $78 #
plane-surface $-1 0.89999999999999991 -0.099999999999999992 0 -1 0 0 0 -1 0 forward_v I I I I #
loop $-1 $-1 $166 $43 #
coedge $-1 $92 $88 $82 $127 forward $79 $-1 #
loop $-1 $-1 $167 $22 #
coedge $-1 $168 $168 $169 $170 reversed $81 $-1 #
edge $-1 $90 0 $128 1 $124 $171 forward 7 unknown #
vertex $-1 $143 $172 #
straight-curve $-1 1 -1 0 0 0 1 I I #
coedge $-1 $84 $84 $173 $174 reversed $47 $-1 #
coedge $-1 $175 $176 $84 $132 forward $177 $-1 #
edge $-1 $178 0 $179 3.1415926535897931 $84 $180 forward 7 unknown #
coedge $-1 $181 $182 $85 $134 reversed $183 $-1 #
edge $-1 $139 0 $138 3.1415926535897931 $85 $184 forward 7 unknown #
coedge $-1 $185 $86 $182 $186 forward $137 $-1 #
coedge $-1 $86 $185 $181 $187 reversed $137 $-1 #
loop $-1 $-1 $135 $188 #
vertex $-1 $134 $189 #
vertex $-1 $134 $190 #
ellipse-curve $-1 0 -0.5 2.5 1 0 0 0 -0.125 0 1 I I #
straight-curve $-1 0 0 36 0 -1 0 I I #
point $-1 0 -1 36 #
edge $-1 $128 0 $93 1 $92 $191 forward 7 unknown #
point $-1 1 0 36 #
coedge $-1 $192 $96 $99 $149 forward $121 $-1 #
coedge $-1 $96 $192 $103 $152 reversed $121 $-1 #
straight-curve $-1 0.89999999999999991 -0.099999999999999992 0 0 -1 0 I I #
coedge $-1 $99 $98 $193 $194 reversed $100 $-1 #
edge $-1 $101 0 $195 36 $145 $196 forward 7 unknown #
point $-1 0.89999999999999991 -0.89999999999999991 0 #
coedge $-1 $104 $103 $197 $198 reversed $105 $-1 #
edge $-1 $106 0 $199 36 $103 $200 forward 7 unknown #
face $-1 $188 $105 $3 $-1 $201 forward single #
point $-1 0.89999999999999991 -0.099999999999999992 0 #
coedge $-1 $197 $193 $108 $156 forward $123 $-1 #
edge $-1 $159 0 $157 0.79999999999999993 $155 $202 forward 7 unknown #
vertex $-1 $198 $203 #
straight-curve $-1 0.099999999999999992 -0.099999999999999978 0 0 0 1 I I #
vertex $-1 $156 $204 #
straight-curve $-1 0.099999999999999978 -0.89999999999999991 0 0 0 1 I I #
loop $-1 $-1 $205 $112 #
coedge $-1 $206 $206 $185 $207 reversed $111 $-1 #
plane-surface $-1 0.099999999999999992 -0.89999999999999991 0 1 0 0 0 1 0 forward_v I I I I #
plane-surface $-1 0.89999999999999991 -0.89999999999999991 0 0 1 0 -1 0 0 forward_v I I I I #
loop $-1 $208 $209 $78 #
coedge $-1 $193 $197 $192 $210 forward $123 $-1 #
coedge $-1 $211 $211 $212 $213 forward $125 $-1 #
coedge $-1 $126 $126 $214 $215 reversed $81 $-1 #
coedge $-1 $216 $217 $126 $170 forward $218 $-1 #
edge $-1 $219 0 $220 3.1415926535897931 $126 $221 forward 7 unknown #
straight-curve $-1 0 -1 36 1 0 0 I I #
point $-1 1 -1 36 #
coedge $-1 $222 $223 $130 $174 forward $224 $-1 #
edge $-1 $179 0 $178 3.1415926535897931 $130 $225 forward 7 unknown #
coedge $-1 $226 $131 $223 $227 forward $177 $-1 #
coedge $-1 $131 $226 $222 $228 reversed $177 $-1 #
loop $-1 $-1 $175 $229 #
vertex $-1 $174 $230 #
vertex $-1 $174 $231 #
ellipse-curve $-1 0 -0.5 33.5 -1 0 0 0 -0.125 0 1 I I #
coedge $-1 $232 $133 $136 $187 forward $183 $-1 #
coedge $-1 $133 $232 $135 $186 reversed $183 $-1 #
loop $-1 $-1 $181 $233 #
ellipse-curve $-1 0 -0.5 2.5 1 0 0 0 0.125 0 1 I I #
coedge $-1 $136 $135 $162 $207 forward $137 $-1 #
edge $-1 $138 0 $234 0.099999999999999992 $182 $235 forward 7 unknown #
edge $-1 $139 0 $236 0.099999999999999992 $181 $237 forward 7 unknown #
face $-1 $233 $137 $3 $-1 $238 reversed single #
point $-1 0 -0.625 2.5 #
point $-1 0 -0.375 2.5 #
straight-curve $-1 1 -1 36 0 1 0 I I #
coedge $-1 $146 $145 $166 $210 reversed $121 $-1 #
coedge $-1 $155 $166 $148 $194 forward $123 $-1 #
edge $-1 $195 0 $159 0.79999999999999993 $193 $239 forward 7 unknown #
vertex $-1 $194 $240 #
straight-curve $-1 0.89999999999999991 -0.89999999999999991 0 0 0 1 I I #
coedge $-1 $166 $155 $151 $198 forward $123 $-1 #
edge $-1 $157 0 $199 0.79999999999999993 $197 $241 forward 7 unknown #
vertex $-1 $198 $242 #
straight-curve $-1 0.89999999999999991 -0.099999999999999992 0 0 0 1 I I #
plane-surface $-1 0.099999999999999992 -0.099999999999999992 0 0 -1 0 1 0 0 forward_v I I I I #
straight-curve $-1 0.099999999999999992 -0.89999999999999991 36 0 1 0 I I #
point $-1 0.099999999999999992 -0.099999999999999992 36 #
point $-1 0.099999999999999992 -0.89999999999999991 36 #
coedge $-1 $243 $243 $226 $244 forward $161 $-1 #
coedge $-1 $162 $162 $232 $245 reversed $111 $-1 #
edge $-1 $234 0 $236 3.1415926535897931 $162 $246 forward 7 unknown #
loop $-1 $-1 $247 $78 #
coedge $-1 $248 $248 $249 $250 forward $165 $-1 #
edge $-1 $199 0 $195 0.79999999999999993 $166 $251 forward 7 unknown #
coedge $-1 $167 $167 $252 $253 forward $125 $-1 #
coedge $-1 $254 $255 $167 $213 reversed $256 $-1 #
edge $-1 $257 0 $258 3.1415926535897931 $167 $259 forward 7 unknown #
coedge $-1 $260 $261 $168 $215 forward $262 $-1 #
edge $-1 $220 0 $219 3.1415926535897931 $168 $263 forward 7 unknown #
coedge $-1 $249 $169 $261 $264 reversed $218 $-1 #
coedge $-1 $169 $249 $260 $265 forward $218 $-1 #
loop $-1 $-1 $216 $266 #
vertex $-1 $215 $267 #
vertex $-1 $215 $268 #
ellipse-curve $-1 1 -0.5 2.5 1 0 0 0 -0.125 0 1 I I #
coedge $-1 $269 $173 $176 $228 forward $224 $-1 #
coedge $-1 $173 $269 $175 $227 reversed $224 $-1 #
loop $-1 $-1 $222 $270 #
ellipse-curve $-1 0 -0.5 33.5 -1 0 0 0 0.125 0 1 I I #
coedge $-1 $176 $175 $205 $244 reversed $177 $-1 #
edge $-1 $179 0 $271 0.099999999999999992 $223 $272 forward 7 unknown #
edge $-1 $178 0 $273 0.099999999999999992 $222 $274 forward 7 unknown #
face $-1 $270 $177 $3 $-1 $275 reversed single #
point $-1 0 -0.625 33.5 #
point $-1 0 -0.375 33.5 #
coedge $-1 $182 $181 $206 $245 forward $183 $-1 #
face $-1 $229 $183 $3 $-1 $276 reversed single #
vertex $-1 $245 $277 #
straight-curve $-1 0 -0.625 2.5 1 0 0 I I #
vertex $-1 $245 $278 #
straight-curve $-1 0 -0.375 2.5 1 0 0 I I #
cone-surface $-1 0 -0.5 2.5 1 0 0 0 0.125 0 1 I I 0 1 0.125 forward I I I I #
straight-curve $-1 0.89999999999999991 -0.89999999999999991 36 -1 0 0 I I #
point $-1 0.89999999999999991 -0.89999999999999991 36 #
straight-curve $-1 0.099999999999999992 -0.099999999999999992 36 1 0 0 I I #
point $-1 0.89999999999999991 -0.099999999999999992 36 #
coedge $-1 $205 $205 $269 $279 forward $161 $-1 #
edge $-1 $273 0 $271 3.1415926535897931 $205 $280 forward 7 unknown #
edge $-1 $236 0 $234 3.1415926535897931 $206 $281 forward 7 unknown #
ellipse-curve $-1 0.099999999999999992 -0.5 2.5 1 0 0 0 -0.125 0 1 I I #
coedge $-1 $282 $282 $283 $284 reversed $208 $-1 #
coedge $-1 $209 $209 $285 $286 forward $165 $-1 #
coedge $-1 $217 $216 $209 $250 reversed $218 $-1 #
edge $-1 $287 0 $288 3.1415926535897931 $209 $289 forward 7 unknown #
straight-curve $-1 0.89999999999999991 -0.099999999999999992 36 0 -1 0 I I #
coedge $-1 $290 $291 $211 $253 reversed $292 $-1 #
edge $-1 $258 0 $257 3.1415926535897931 $211 $293 forward 7 unknown #
coedge $-1 $283 $212 $291 $294 reversed $256 $-1 #
coedge $-1 $212 $283 $290 $295 forward $256 $-1 #
loop $-1 $-1 $254 $296 #
vertex $-1 $253 $297 #
vertex $-1 $253 $298 #
ellipse-curve $-1 1 -0.5 33.5 -1 0 0 0 -0.125 0 1 I I #
coedge $-1 $285 $214 $217 $265 reversed $262 $-1 #
coedge $-1 $214 $285 $216 $264 forward $262 $-1 #
loop $-1 $-1 $260 $299 #
ellipse-curve $-1 1 -0.5 2.5 1 0 0 0 0.125 0 1 I I #
edge $-1 $288 0 $220 0.10000000000000009 $261 $300 forward 7 unknown #
edge $-1 $287 0 $219 0.10000000000000009 $260 $301 forward 7 unknown #
face $-1 $299 $218 $3 $-1 $302 reversed single #
point $-1 1 -0.625 2.5 #
point $-1 1 -0.375 2.5 #
coedge $-1 $223 $222 $243 $279 reversed $224 $-1 #
face $-1 $266 $224 $3 $-1 $303 reversed single #
vertex $-1 $279 $304 #
straight-curve $-1 0 -0.375 33.5 1 0 0 I I #
vertex $-1 $279 $305 #
straight-curve $-1 0 -0.625 33.5 1 0 0 I I #
cone-surface $-1 0 -0.5 33.5 -1 0 0 0 0.125 0 1 I I 0 1 0.125 forward I I I I #
cone-surface $-1 0 -0.5 2.5 1 0 0 0 0.125 0 1 I I 0 1 0.125 forward I I I I #
point $-1 0.099999999999999992 -0.625 2.5 #
point $-1 0.099999999999999992 -0.375 2.5 #
edge $-1 $271 0 $273 3.1415926535897931 $243 $306 forward 7 unknown #
ellipse-curve $-1 0.099999999999999992 -0.5 33.5 -1 0 0 0 -0.125 0 1 I I #
ellipse-curve $-1 0.099999999999999992 -0.5 2.5 1 0 0 0 0.125 0 1 I I #
coedge $-1 $247 $247 $307 $308 reversed $208 $-1 #
coedge $-1 $255 $254 $247 $284 forward $256 $-1 #
edge $-1 $309 0 $310 3.1415926535897931 $247 $311 forward 7 unknown #
coedge $-1 $261 $260 $248 $286 reversed $262 $-1 #
edge $-1 $288 0 $287 3.1415926535897931 $248 $312 forward 7 unknown #
vertex $-1 $286 $313 #
vertex $-1 $286 $314 #
ellipse-curve $-1 0.89999999999999991 -0.49999999999999989 2.5 1 0 0 0 -0.125 0 1 I I #
coedge $-1 $307 $252 $255 $295 reversed $292 $-1 #
coedge $-1 $252 $307 $254 $294 forward $292 $-1 #
loop $-1 $-1 $290 $315 #
ellipse-curve $-1 1 -0.5 33.5 -1 0 0 0 0.125 0 1 I I #
edge $-1 $309 0 $257 0.10000000000000009 $291 $316 forward 7 unknown #
edge $-1 $310 0 $258 0.10000000000000009 $290 $317 forward 7 unknown #
face $-1 $315 $256 $3 $-1 $318 reversed single #
point $-1 1 -0.625 33.5 #
point $-1 1 -0.375 33.5 #
face $-1 $296 $262 $3 $-1 $319 reversed single #
straight-curve $-1 0.89999999999999991 -0.375 2.5 1 0 0 I I #
straight-curve $-1 0.89999999999999991 -0.625 2.5 1 0 0 I I #
cone-surface $-1 0 -0.5 2.5 1 0 0 0 0.125 0 1 I I 0 1 0.125 forward I I I I #
cone-surface $-1 0 -0.5 33.5 -1 0 0 0 0.125 0 1 I I 0 1 0.125 forward I I I I #
point $-1 0.099999999999999992 -0.375 33.5 #
point $-1 0.099999999999999992 -0.625 33.5 #
ellipse-curve $-1 0.099999999999999992 -0.5 33.5 -1 0 0 0 0.125 0 1 I I #
coedge $-1 $291 $290 $282 $308 forward $292 $-1 #
edge $-1 $310 0 $309 3.1415926535897931 $282 $320 forward 7 unknown #
vertex $-1 $308 $321 #
vertex $-1 $308 $322 #
ellipse-curve $-1 0.89999999999999991 -0.49999999999999989 33.5 -1 0 0 0 -0.125 0 1 I I #
ellipse-curve $-1 0.89999999999999991 -0.49999999999999989 2.5 1 0 0 0 0.12499999999999994 0 1 I I #
point $-1 0.89999999999999991 -0.62499999999999989 2.5 #
point $-1 0.89999999999999991 -0.37499999999999994 2.5 #
face $-1 $-1 $292 $3 $-1 $323 reversed single #
straight-curve $-1 0.89999999999999991 -0.625 33.5 1 0 0 I I #
straight-curve $-1 0.89999999999999991 -0.375 33.5 1 0 0 I I #
cone-surface $-1 0 -0.5 33.5 -1 0 0 0 0.125 0 1 I I 0 1 0.125 forward I I I I #
cone-surface $-1 0 -0.5 2.5 1 0 0 0 0.125 0 1 I I 0 1 0.125 forward I I I I #
ellipse-curve $-1 0.89999999999999991 -0.49999999999999989 33.5 -1 0 0 0 0.12499999999999994 0 1 I I #
point $-1 0.89999999999999991 -0.62499999999999989 33.5 #
point $-1 0.89999999999999991 -0.37499999999999994 33.5 #
cone-surface $-1 0 -0.5 33.5 -1 0 0 0 0.125 0 1 I I 0 1 0.125 forward I I I I #
End-of-ACIS-data 