600 0 1 0           
104 GICL Pro/E ACIS Translator - Source: f:/data5/repository/PTC/V18/lrgasm18/frame_c_channel_ml.prt.2 - 6 0 13 ACIS 6.0.3 NT 24 Thu Apr 04 13:35:17 2002 
1 9.9999999999999995e-007 1e-010 
body $-1 $1 $-1 $2 #
lump $-1 $-1 $3 $0 #
transform $-1 1 0 0 0 1 0 0 0 1 0 0 0 25.399999999999999 no_rotate no_reflect no_shear #
shell $-1 $-1 $-1 $4 $-1 $1 #
face $-1 $5 $6 $3 $-1 $7 reversed single #
face $-1 $8 $9 $3 $-1 $10 forward single #
loop $-1 $-1 $11 $4 #
plane-surface $-1 0 0 0 0 0 1 1 0 0 forward_v I I I I #
face $-1 $12 $13 $3 $-1 $14 forward single #
loop $-1 $-1 $15 $5 #
plane-surface $-1 -0.875 0.5 0 0 1 0 -1 0 0 forward_v I I I I #
coedge $-1 $16 $17 $18 $19 reversed $6 $-1 #
face $-1 $20 $21 $3 $-1 $22 forward single #
loop $-1 $-1 $23 $8 #
plane-surface $-1 -1 0.5 0 -1 0 0 0 -1 0 forward_v I I I I #
coedge $-1 $24 $18 $25 $26 forward $9 $-1 #
coedge $-1 $27 $11 $28 $29 reversed $6 $-1 #
coedge $-1 $11 $30 $31 $32 reversed $6 $-1 #
coedge $-1 $15 $33 $11 $19 forward $9 $-1 #
edge $-1 $34 0 $35 0.125 $11 $36 forward 7 unknown #
face $-1 $37 $38 $3 $-1 $39 forward single #
loop $-1 $-1 $40 $12 #
cone-surface $-1 -0.75 0.25 0 0 0 1 0.25 0 0 1 I I 0 1 0.25 forward I I I I #
coedge $-1 $41 $31 $42 $43 forward $13 $-1 #
coedge $-1 $33 $15 $44 $45 reversed $9 $-1 #
coedge $-1 $31 $41 $15 $26 reversed $13 $-1 #
edge $-1 $35 0 $46 62 $25 $47 forward 7 unknown #
coedge $-1 $48 $16 $49 $50 reversed $6 $-1 #
coedge $-1 $51 $52 $16 $29 forward $53 $-1 #
edge $-1 $54 0 $34 0.25 $16 $55 forward 7 unknown #
coedge $-1 $17 $56 $57 $58 reversed $6 $-1 #
coedge $-1 $23 $25 $17 $32 forward $13 $-1 #
edge $-1 $35 0 $59 0.25 $17 $60 forward 7 unknown #
coedge $-1 $18 $24 $51 $61 reversed $9 $-1 #
vertex $-1 $29 $62 #
vertex $-1 $32 $63 #
straight-curve $-1 -0.875 0.5 0 -1 0 0 I I #
face $-1 $64 $65 $3 $-1 $66 forward single #
loop $-1 $67 $68 $20 #
plane-surface $-1 -0.75 0 0 0 -1 0 1 0 0 forward_v I I I I #
coedge $-1 $69 $57 $70 $71 forward $21 $-1 #
coedge $-1 $25 $23 $72 $73 reversed $13 $-1 #
coedge $-1 $57 $69 $23 $43 reversed $21 $-1 #
edge $-1 $59 0 $74 62 $23 $75 forward 7 unknown #
coedge $-1 $72 $76 $24 $45 forward $77 $-1 #
edge $-1 $78 0 $46 0.125 $44 $79 forward 7 unknown #
vertex $-1 $73 $80 #
straight-curve $-1 -1 0.5 0 0 0 1 I I #
coedge $-1 $81 $27 $82 $83 reversed $6 $-1 #
coedge $-1 $84 $85 $27 $50 forward $86 $-1 #
edge $-1 $87 0 $54 1.5707963267948966 $27 $88 forward 7 unknown #
coedge $-1 $89 $28 $33 $61 forward $53 $-1 #
coedge $-1 $28 $89 $84 $90 reversed $53 $-1 #
loop $-1 $-1 $51 $91 #
vertex $-1 $50 $92 #
straight-curve $-1 -0.875 0.25 0 0 1 0 I I #
coedge $-1 $30 $93 $94 $95 reversed $6 $-1 #
coedge $-1 $40 $42 $30 $58 forward $21 $-1 #
edge $-1 $59 0 $96 1.5707963267948966 $30 $97 forward 7 unknown #
vertex $-1 $32 $98 #
straight-curve $-1 -1 0.5 0 0 -1 0 I I #
edge $-1 $34 0 $78 62 $51 $99 forward 7 unknown #
point $-1 -0.875 0.5 0 #
point $-1 -1 0.5 0 #
face $-1 $100 $101 $3 $-1 $102 forward single #
loop $-1 $-1 $103 $37 #
cone-surface $-1 0.75 0.25 0 0 0 1 0.25 0 0 1 I I 0 1 0.25 forward I I I I #
loop $-1 $104 $105 $20 #
coedge $-1 $106 $94 $107 $108 forward $38 $-1 #
coedge $-1 $42 $40 $109 $110 reversed $21 $-1 #
coedge $-1 $94 $106 $40 $71 reversed $38 $-1 #
edge $-1 $96 0 $111 62 $40 $112 forward 7 unknown #
coedge $-1 $109 $44 $41 $73 forward $77 $-1 #
edge $-1 $46 0 $74 0.25 $72 $113 forward 7 unknown #
vertex $-1 $73 $114 #
straight-curve $-1 -1 0.25000000000000006 0 0 0 1 I I #
coedge $-1 $44 $115 $89 $116 forward $77 $-1 #
loop $-1 $-1 $109 $117 #
vertex $-1 $45 $118 #
straight-curve $-1 -0.875 0.5 62 -1 0 0 I I #
point $-1 -1 0.5 62 #
coedge $-1 $119 $48 $120 $121 reversed $6 $-1 #
coedge $-1 $122 $123 $48 $83 forward $124 $-1 #
edge $-1 $125 0 $87 1.5 $48 $126 forward 7 unknown #
coedge $-1 $127 $49 $52 $90 forward $86 $-1 #
coedge $-1 $49 $127 $122 $128 reversed $86 $-1 #
loop $-1 $-1 $84 $129 #
vertex $-1 $83 $130 #
ellipse-curve $-1 -0.75 0.25 0 0 0 -1 0 -0.125 0 1 I I #
coedge $-1 $52 $51 $76 $116 reversed $53 $-1 #
edge $-1 $54 0 $131 62 $84 $132 forward 7 unknown #
face $-1 $117 $53 $3 $-1 $133 forward single #
point $-1 -0.875 0.25 0 #
coedge $-1 $56 $134 $135 $136 reversed $6 $-1 #
coedge $-1 $68 $70 $56 $95 forward $38 $-1 #
edge $-1 $96 0 $137 1.5 $56 $138 forward 7 unknown #
vertex $-1 $58 $139 #
ellipse-curve $-1 -0.75 0.25 0 0 0 1 -0.25 0 0 1 I I #
point $-1 -1 0.25 0 #
straight-curve $-1 -0.875 0.5 0 0 0 1 I I #
face $-1 $140 $141 $3 $-1 $142 forward single #
loop $-1 $-1 $143 $64 #
plane-surface $-1 1 0.25 0 1 0 0 0 1 0 forward_v I I I I #
coedge $-1 $144 $135 $145 $146 forward $65 $-1 #
loop $-1 $147 $148 $20 #
coedge $-1 $149 $149 $150 $151 reversed $67 $-1 #
coedge $-1 $70 $68 $152 $153 reversed $38 $-1 #
coedge $-1 $135 $144 $68 $108 reversed $65 $-1 #
edge $-1 $137 0 $154 62 $68 $155 forward 7 unknown #
coedge $-1 $152 $72 $69 $110 forward $77 $-1 #
edge $-1 $74 0 $111 1.5707963267948963 $109 $156 forward 7 unknown #
vertex $-1 $153 $157 #
straight-curve $-1 -0.75 0 0 0 0 1 I I #
straight-curve $-1 -1 0.5 62 0 -1 0 I I #
point $-1 -1 0.25 62 #
coedge $-1 $76 $158 $127 $159 forward $77 $-1 #
edge $-1 $131 0 $78 0.25 $76 $160 forward 7 unknown #
face $-1 $161 $77 $3 $-1 $162 forward single #
point $-1 -0.875 0.5 62 #
coedge $-1 $163 $81 $164 $165 reversed $6 $-1 #
coedge $-1 $166 $167 $81 $121 forward $168 $-1 #
edge $-1 $169 0 $125 1.5707963267948966 $81 $170 forward 7 unknown #
coedge $-1 $171 $82 $85 $128 forward $124 $-1 #
coedge $-1 $82 $171 $166 $172 reversed $124 $-1 #
loop $-1 $173 $122 $174 #
vertex $-1 $121 $175 #
straight-curve $-1 0.75 0.125 0 -1 0 0 I I #
coedge $-1 $85 $84 $115 $159 reversed $86 $-1 #
edge $-1 $87 0 $176 62 $122 $177 forward 7 unknown #
face $-1 $91 $86 $3 $-1 $178 reversed single #
point $-1 -0.75 0.125 0 #
vertex $-1 $116 $179 #
straight-curve $-1 -0.875 0.25 0 0 0 1 I I #
plane-surface $-1 -0.875 0.25 0 1 0 0 0 1 0 forward_v I I I I #
coedge $-1 $93 $163 $180 $181 reversed $6 $-1 #
coedge $-1 $103 $107 $93 $136 forward $65 $-1 #
edge $-1 $137 0 $182 1.5707963267948966 $93 $183 forward 7 unknown #
vertex $-1 $95 $184 #
straight-curve $-1 -0.75 0 0 1 0 0 I I #
point $-1 -0.75 0 0 #
face $-1 $185 $186 $3 $-1 $187 forward single #
loop $-1 $-1 $188 $100 #
plane-surface $-1 1 0.5 0 0 1 0 -1 0 0 forward_v I I I I #
coedge $-1 $189 $180 $190 $191 forward $101 $-1 #
coedge $-1 $107 $103 $192 $193 reversed $65 $-1 #
coedge $-1 $180 $189 $103 $146 reversed $101 $-1 #
edge $-1 $182 0 $194 62 $103 $195 forward 7 unknown #
loop $-1 $196 $197 $20 #
coedge $-1 $198 $198 $199 $200 reversed $104 $-1 #
coedge $-1 $105 $105 $201 $202 reversed $67 $-1 #
coedge $-1 $203 $204 $105 $151 forward $205 $-1 #
edge $-1 $206 0 $207 3.1415926535897931 $105 $208 forward 7 unknown #
coedge $-1 $192 $109 $106 $153 forward $77 $-1 #
edge $-1 $111 0 $154 1.5 $152 $209 forward 7 unknown #
vertex $-1 $193 $210 #
straight-curve $-1 0.75 0 0 0 0 1 I I #
ellipse-curve $-1 -0.75 0.25000000000000006 62 0 0 1 -0.25 -5.5511151231257827e-017 0 1 I I #
point $-1 -0.75 0 62 #
coedge $-1 $115 $211 $171 $212 forward $77 $-1 #
edge $-1 $176 0 $131 1.5707963267948939 $115 $213 forward 7 unknown #
straight-curve $-1 -0.875 0.25 62 0 1 0 I I #
face $-1 $214 $205 $3 $-1 $215 reversed single #
plane-surface $-1 0 0 62 0 0 1 1 0 0 forward_v I I I I #
coedge $-1 $134 $119 $216 $217 reversed $6 $-1 #
coedge $-1 $218 $219 $119 $165 forward $186 $-1 #
edge $-1 $220 0 $169 0.25 $119 $221 forward 7 unknown #
coedge $-1 $222 $120 $123 $172 forward $168 $-1 #
coedge $-1 $120 $222 $218 $223 reversed $168 $-1 #
loop $-1 $-1 $166 $185 #
vertex $-1 $165 $224 #
ellipse-curve $-1 0.75 0.25 0 0 0 -1 0.125 0 0 1 I I #
coedge $-1 $123 $122 $158 $212 reversed $124 $-1 #
edge $-1 $125 0 $225 62 $166 $226 forward 7 unknown #
loop $-1 $227 $228 $174 #
face $-1 $129 $124 $3 $-1 $229 forward single #
point $-1 0.75 0.125 0 #
vertex $-1 $159 $230 #
straight-curve $-1 -0.75 0.125 0 0 0 1 I I #
cone-surface $-1 -0.75 0.25 0 0 0 1 0.125 0 0 1 I I 0 1 0.125 forward I I I I #
point $-1 -0.875 0.25 62 #
coedge $-1 $143 $145 $134 $181 forward $101 $-1 #
edge $-1 $182 0 $231 0.25 $134 $232 forward 7 unknown #
vertex $-1 $136 $233 #
ellipse-curve $-1 0.75 0.25 0 0 0 1 0 -0.25 0 1 I I #
point $-1 0.75 0 0 #
face $-1 $174 $168 $3 $-1 $234 reversed single #
loop $-1 $-1 $218 $140 #
plane-surface $-1 0.875 0.5 0 -1 0 0 0 -1 0 forward_v I I I I #
coedge $-1 $235 $216 $219 $236 forward $141 $-1 #
coedge $-1 $145 $143 $237 $238 reversed $101 $-1 #
coedge $-1 $216 $235 $143 $191 reversed $141 $-1 #
edge $-1 $231 0 $239 62 $143 $240 forward 7 unknown #
coedge $-1 $237 $152 $144 $193 forward $77 $-1 #
edge $-1 $154 0 $194 1.5707963267948963 $192 $241 forward 7 unknown #
vertex $-1 $238 $242 #
straight-curve $-1 1 0.25 0 0 0 1 I I #
loop $-1 $243 $244 $20 #
coedge $-1 $245 $245 $246 $247 reversed $147 $-1 #
coedge $-1 $148 $148 $248 $249 reversed $104 $-1 #
coedge $-1 $250 $251 $148 $200 forward $252 $-1 #
edge $-1 $253 0 $254 3.1415926535897931 $148 $255 forward 7 unknown #
coedge $-1 $256 $257 $149 $202 forward $258 $-1 #
edge $-1 $207 0 $206 3.1415926535897931 $149 $259 forward 7 unknown #
coedge $-1 $260 $150 $257 $261 reversed $205 $-1 #
coedge $-1 $150 $260 $256 $262 forward $205 $-1 #
loop $-1 $-1 $203 $161 #
vertex $-1 $202 $263 #
vertex $-1 $202 $264 #
ellipse-curve $-1 0 0 61 0 -1 0 -0.125 0 0 1 I I #
straight-curve $-1 -0.75 0 62 1 0 0 I I #
point $-1 0.75 0 62 #
coedge $-1 $158 $265 $222 $266 forward $77 $-1 #
edge $-1 $225 0 $176 1.5 $158 $267 forward 7 unknown #
ellipse-curve $-1 -0.74999999999999978 0.25000000000000011 62 0 0 -1 -2.2204460492503131e-016 -0.12500000000000011 0 1 I I #
face $-1 $268 $258 $3 $-1 $269 reversed single #
cone-surface $-1 0 0.125 61 0 -1 0 0.125 0 0 1 I I 0 1 0.125 forward I I I I #
coedge $-1 $188 $190 $163 $217 forward $141 $-1 #
edge $-1 $231 0 $220 0.125 $163 $270 forward 7 unknown #
coedge $-1 $271 $164 $167 $223 forward $186 $-1 #
coedge $-1 $164 $271 $188 $236 reversed $186 $-1 #
vertex $-1 $217 $272 #
straight-curve $-1 0.875 0.5 0 0 -1 0 I I #
coedge $-1 $167 $166 $211 $266 reversed $168 $-1 #
edge $-1 $169 0 $273 62 $218 $274 forward 7 unknown #
point $-1 0.875 0.25 0 #
vertex $-1 $212 $275 #
straight-curve $-1 0.75 0.125 0 0 0 1 I I #
loop $-1 $276 $277 $174 #
coedge $-1 $278 $278 $260 $279 forward $173 $-1 #
plane-surface $-1 0.75 0.125 0 0 1 0 -1 0 0 forward_v I I I I #
point $-1 -0.75 0.125 62 #
vertex $-1 $181 $280 #
straight-curve $-1 1 0.25 0 0 1 0 I I #
point $-1 1 0.25 0 #
cone-surface $-1 0.75 0.25 0 0 0 1 0.125 0 0 1 I I 0 1 0.125 forward I I I I #
coedge $-1 $190 $188 $281 $282 reversed $141 $-1 #
edge $-1 $220 0 $283 62 $188 $284 forward 7 unknown #
coedge $-1 $281 $192 $189 $238 forward $77 $-1 #
edge $-1 $194 0 $239 0.25 $237 $285 forward 7 unknown #
vertex $-1 $282 $286 #
straight-curve $-1 1 0.5 0 0 0 1 I I #
ellipse-curve $-1 0.75 0.25000000000000006 62 0 0 1 0 -0.25000000000000006 0 1 I I #
point $-1 1 0.25 62 #
loop $-1 $-1 $287 $20 #
coedge $-1 $288 $288 $289 $290 reversed $196 $-1 #
coedge $-1 $197 $197 $291 $292 reversed $147 $-1 #
coedge $-1 $293 $294 $197 $247 forward $295 $-1 #
edge $-1 $296 0 $297 3.1415926535897363 $197 $298 forward 7 unknown #
coedge $-1 $299 $300 $198 $249 forward $301 $-1 #
edge $-1 $254 0 $253 3.1415926535897931 $198 $302 forward 7 unknown #
coedge $-1 $303 $199 $300 $304 reversed $252 $-1 #
coedge $-1 $199 $303 $299 $305 forward $252 $-1 #
loop $-1 $-1 $250 $268 #
vertex $-1 $249 $306 #
vertex $-1 $249 $307 #
ellipse-curve $-1 0 0 46 0 -1 0 -0.125 0 0 1 I I #
coedge $-1 $308 $201 $204 $262 reversed $258 $-1 #
coedge $-1 $201 $308 $203 $261 forward $258 $-1 #
loop $-1 $-1 $256 $214 #
ellipse-curve $-1 0 0 61 0 -1 0 0.125 0 0 1 I I #
coedge $-1 $204 $203 $228 $279 reversed $205 $-1 #
edge $-1 $309 0 $207 0.125 $257 $310 forward 7 unknown #
edge $-1 $311 0 $206 0.125 $256 $312 forward 7 unknown #
point $-1 -0.125 0 61 #
point $-1 0.125 0 61 #
coedge $-1 $211 $281 $271 $313 forward $77 $-1 #
edge $-1 $273 2.2204460492503131e-016 $225 1.5707963267948966 $211 $314 forward 7 unknown #
straight-curve $-1 0.75 0.125 62 -1 0 0 I I #
face $-1 $315 $252 $3 $-1 $316 reversed single #
cone-surface $-1 0 0.125 61 0 -1 0 0.125 0 0 1 I I 0 1 0.125 forward I I I I #
straight-curve $-1 1 0.5 0 -1 0 0 I I #
coedge $-1 $219 $218 $265 $313 reversed $186 $-1 #
point $-1 0.875 0.5 0 #
vertex $-1 $266 $317 #
straight-curve $-1 0.875 0.25 0 0 0 1 I I #
point $-1 0.75 0.125 62 #
loop $-1 $318 $319 $174 #
coedge $-1 $320 $320 $303 $321 forward $227 $-1 #
coedge $-1 $228 $228 $308 $322 forward $173 $-1 #
edge $-1 $311 0 $309 3.1415926535897931 $228 $323 forward 7 unknown #
point $-1 1 0.5 0 #
coedge $-1 $265 $237 $235 $282 forward $77 $-1 #
edge $-1 $239 0 $283 0.125 $281 $324 forward 7 unknown #
vertex $-1 $313 $325 #
straight-curve $-1 0.875 0.5 0 0 0 1 I I #
straight-curve $-1 1 0.25 62 0 1 0 I I #
point $-1 1 0.5 62 #
coedge $-1 $326 $326 $327 $328 reversed $243 $-1 #
coedge $-1 $244 $244 $329 $330 reversed $196 $-1 #
coedge $-1 $331 $332 $244 $290 forward $333 $-1 #
edge $-1 $334 0 $335 3.1415926535898215 $244 $336 forward 7 unknown #
coedge $-1 $337 $338 $245 $292 forward $339 $-1 #
edge $-1 $297 0 $296 3.1415926535897363 $245 $340 forward 7 unknown #
coedge $-1 $341 $246 $338 $342 reversed $295 $-1 #
coedge $-1 $246 $341 $337 $343 forward $295 $-1 #
loop $-1 $-1 $293 $344 #
vertex $-1 $292 $345 #
vertex $-1 $292 $346 #
ellipse-curve $-1 0 0 31.000000000000004 0 -1 0 -0.125 0 -3.5527136788005009e-015 1 I I #
coedge $-1 $347 $248 $251 $305 reversed $301 $-1 #
coedge $-1 $248 $347 $250 $304 forward $301 $-1 #
loop $-1 $-1 $299 $315 #
ellipse-curve $-1 0 0 46 0 -1 0 0.125 0 0 1 I I #
coedge $-1 $251 $250 $277 $321 reversed $252 $-1 #
edge $-1 $348 0 $254 0.125 $300 $349 forward 7 unknown #
edge $-1 $350 0 $253 0.125 $299 $351 forward 7 unknown #
point $-1 -0.125 0 46 #
point $-1 0.125 0 46 #
coedge $-1 $257 $256 $278 $322 reversed $258 $-1 #
vertex $-1 $322 $352 #
straight-curve $-1 0.125 0.125 61 0 -1 0 I I #
vertex $-1 $322 $353 #
straight-curve $-1 -0.125 0.125 61 0 -1 0 I I #
edge $-1 $283 0 $273 0.25 $265 $354 forward 7 unknown #
ellipse-curve $-1 0.75 0.25 62 0 0 -1 0.125 0 0 1 I I #
face $-1 $344 $301 $3 $-1 $355 reversed single #
cone-surface $-1 0 0.125 46 0 -1 0 0.125 0 0 1 I I 0 1 0.125 forward I I I I #
point $-1 0.875 0.24999999999999997 62 #
loop $-1 $356 $357 $174 #
coedge $-1 $358 $358 $341 $359 forward $276 $-1 #
coedge $-1 $277 $277 $347 $360 forward $227 $-1 #
edge $-1 $350 0 $348 3.1415926535897931 $277 $361 forward 7 unknown #
edge $-1 $309 0 $311 3.1415926535897931 $278 $362 forward 7 unknown #
ellipse-curve $-1 0 0.125 61 0 -1 0 -0.125 0 0 1 I I #
straight-curve $-1 1 0.5 62 -1 0 0 I I #
point $-1 0.875 0.5 62 #
coedge $-1 $287 $287 $363 $364 reversed $243 $-1 #
coedge $-1 $365 $366 $287 $328 forward $367 $-1 #
edge $-1 $368 0 $369 3.1415926535897931 $287 $370 forward 7 unknown #
coedge $-1 $371 $372 $288 $330 forward $373 $-1 #
edge $-1 $335 0 $334 3.1415926535897363 $288 $374 forward 7 unknown #
coedge $-1 $375 $289 $372 $376 reversed $333 $-1 #
coedge $-1 $289 $375 $371 $377 forward $333 $-1 #
loop $-1 $-1 $331 $378 #
vertex $-1 $330 $379 #
vertex $-1 $330 $380 #
ellipse-curve $-1 0 0 15.999999999999998 0 -1 0 -0.125 0 1.7763568394002505e-015 1 I I #
coedge $-1 $381 $291 $294 $343 reversed $339 $-1 #
coedge $-1 $291 $381 $293 $342 forward $339 $-1 #
loop $-1 $-1 $337 $382 #
ellipse-curve $-1 0 0 30.999999999999996 0 -1 0 0.125 0 3.5527136788005009e-015 1 I I #
coedge $-1 $294 $293 $319 $359 reversed $295 $-1 #
edge $-1 $383 0 $297 0.125 $338 $384 forward 7 unknown #
edge $-1 $385 0 $296 0.125 $337 $386 forward 7 unknown #
face $-1 $382 $295 $3 $-1 $387 reversed single #
point $-1 -0.125 0 31 #
point $-1 0.125 0 31 #
coedge $-1 $300 $299 $320 $360 reversed $301 $-1 #
vertex $-1 $360 $388 #
straight-curve $-1 0.125 0.125 46 0 -1 0 I I #
vertex $-1 $360 $389 #
straight-curve $-1 -0.125 0.125 46 0 -1 0 I I #
point $-1 0.125 0.125 61 #
point $-1 -0.125 0.125 61 #
straight-curve $-1 0.875 0.5 62 0 -1 0 I I #
cone-surface $-1 0 0.125 46 0 -1 0 0.125 0 0 1 I I 0 1 0.125 forward I I I I #
loop $-1 $-1 $390 $174 #
coedge $-1 $391 $391 $375 $392 forward $318 $-1 #
coedge $-1 $319 $319 $381 $393 forward $276 $-1 #
edge $-1 $385 0 $383 3.1415926535897931 $319 $394 forward 7 unknown #
edge $-1 $348 0 $350 3.1415926535897931 $320 $395 forward 7 unknown #
ellipse-curve $-1 0 0.125 46 0 -1 0 -0.125 0 0 1 I I #
ellipse-curve $-1 0 0.125 61 0 -1 0 0.125 0 0 1 I I #
coedge $-1 $396 $397 $326 $364 forward $398 $-1 #
edge $-1 $369 0 $368 3.1415926535897967 $326 $399 forward 7 unknown #
coedge $-1 $400 $327 $397 $401 reversed $367 $-1 #
coedge $-1 $327 $400 $396 $402 forward $367 $-1 #
loop $-1 $-1 $365 $403 #
vertex $-1 $364 $404 #
vertex $-1 $364 $405 #
ellipse-curve $-1 0 0 1 0 -1 0 -0.125 0 0 1 I I #
coedge $-1 $406 $329 $332 $377 reversed $373 $-1 #
coedge $-1 $329 $406 $331 $376 forward $373 $-1 #
loop $-1 $-1 $371 $407 #
ellipse-curve $-1 0 0 15.999999999999996 0 -1 0 0.125 0 3.5527136788005009e-015 1 I I #
coedge $-1 $332 $331 $357 $392 reversed $333 $-1 #
edge $-1 $408 0 $335 0.125 $372 $409 forward 7 unknown #
edge $-1 $410 0 $334 0.125 $371 $411 forward 7 unknown #
face $-1 $407 $333 $3 $-1 $412 reversed single #
point $-1 -0.125 0 16 #
point $-1 0.125 0 16 #
coedge $-1 $338 $337 $358 $393 reversed $339 $-1 #
face $-1 $378 $339 $3 $-1 $413 reversed single #
vertex $-1 $393 $414 #
straight-curve $-1 0.125 0.125 31 0 -1 0 I I #
vertex $-1 $393 $415 #
straight-curve $-1 -0.125 0.125 31 0 -1 0 I I #
cone-surface $-1 0 0.125 31 0 -1 0 0.125 0 0 1 I I 0 1 0.125 forward I I I I #
point $-1 0.125 0.125 46 #
point $-1 -0.125 0.125 46 #
coedge $-1 $416 $416 $400 $417 forward $356 $-1 #
coedge $-1 $357 $357 $406 $418 forward $318 $-1 #
edge $-1 $410 0 $408 3.1415926535897931 $357 $419 forward 7 unknown #
edge $-1 $383 0 $385 3.1415926535897931 $358 $420 forward 7 unknown #
ellipse-curve $-1 0 0.125 31 0 -1 0 -0.125 0 0 1 I I #
ellipse-curve $-1 0 0.125 46 0 -1 0 0.125 0 0 1 I I #
coedge $-1 $421 $363 $366 $402 reversed $398 $-1 #
coedge $-1 $363 $421 $365 $401 forward $398 $-1 #
loop $-1 $-1 $396 $422 #
ellipse-curve $-1 0 0 1.0000000000000002 0 -1 0 0.125 0 -2.2204460492503131e-016 1 I I #
coedge $-1 $366 $365 $390 $417 reversed $367 $-1 #
edge $-1 $423 0 $369 0.125 $397 $424 forward 7 unknown #
edge $-1 $425 0 $368 0.125 $396 $426 forward 7 unknown #
face $-1 $422 $367 $3 $-1 $427 reversed single #
point $-1 -0.125 0 1 #
point $-1 0.125 0 1 #
coedge $-1 $372 $371 $391 $418 reversed $373 $-1 #
face $-1 $403 $373 $3 $-1 $428 reversed single #
vertex $-1 $418 $429 #
straight-curve $-1 0.125 0.125 16 0 -1 0 I I #
vertex $-1 $418 $430 #
straight-curve $-1 -0.125 0.125 16 0 -1 0 I I #
cone-surface $-1 0 0.125 16 0 -1 0 0.125 0 0 1 I I 0 1 0.125 forward I I I I #
cone-surface $-1 0 0.125 31 0 -1 0 0.125 0 0 1 I I 0 1 0.125 forward I I I I #
point $-1 0.125 0.125 31 #
point $-1 -0.125 0.125 31 #
coedge $-1 $390 $390 $421 $431 forward $356 $-1 #
edge $-1 $425 0 $423 3.1415926535897931 $390 $432 forward 7 unknown #
edge $-1 $408 0 $410 3.1415926535897931 $391 $433 forward 7 unknown #
ellipse-curve $-1 0 0.125 16 0 -1 0 -0.125 0 0 1 I I #
ellipse-curve $-1 0 0.125 31 0 -1 0 0.125 0 0 1 I I #
coedge $-1 $397 $396 $416 $431 reversed $398 $-1 #
face $-1 $-1 $398 $3 $-1 $434 reversed single #
vertex $-1 $431 $435 #
straight-curve $-1 0.125 0.125 1 0 -1 0 I I #
vertex $-1 $431 $436 #
straight-curve $-1 -0.125 0.125 1 0 -1 0 I I #
cone-surface $-1 0 0.125 1 0 -1 0 0.125 0 0 1 I I 0 1 0.125 forward I I I I #
cone-surface $-1 0 0.125 16 0 -1 0 0.125 0 0 1 I I 0 1 0.125 forward I I I I #
point $-1 0.125 0.125 16 #
point $-1 -0.125 0.125 16 #
edge $-1 $423 0 $425 3.1415926535897931 $416 $437 forward 7 unknown #
ellipse-curve $-1 0 0.125 1 0 -1 0 -0.125 0 0 1 I I #
ellipse-curve $-1 0 0.125 16 0 -1 0 0.125 0 0 1 I I #
cone-surface $-1 0 0.125 1 0 -1 0 0.125 0 0 1 I I 0 1 0.125 forward I I I I #
point $-1 0.125 0.125 1 #
point $-1 -0.125 0.125 1 #
ellipse-curve $-1 0 0.125 1 0 -1 0 0.125 0 0 1 I I #
End-of-ACIS-data 