600 0 1 0           
99 GICL Pro/E ACIS Translator - Source: f:/data5/repository/PTC/V18/lrgasm18/frame_upright.prt.2 - 6 0 13 ACIS 6.0.3 NT 24 Thu Apr 04 13:34:32 2002 
1 9.9999999999999995e-007 1e-010 
body $-1 $1 $-1 $2 #
lump $-1 $-1 $3 $0 #
transform $-1 1 0 0 0 1 0 0 0 1 0 0 0 25.399999999999999 no_rotate no_reflect no_shear #
shell $-1 $-1 $-1 $4 $-1 $1 #
face $-1 $5 $6 $3 $-1 $7 reversed single #
face $-1 $8 $9 $3 $-1 $10 forward single #
loop $-1 $11 $12 $4 #
plane-surface $-1 0 0 0 0 0 1 1 0 0 forward_v I I I I #
face $-1 $13 $14 $3 $-1 $15 forward single #
loop $-1 $16 $17 $5 #
plane-surface $-1 0 1.75 0 0 1 0 -1 0 0 forward_v I I I I #
loop $-1 $-1 $18 $4 #
coedge $-1 $19 $20 $21 $22 reversed $6 $-1 #
face $-1 $23 $24 $3 $-1 $25 forward single #
loop $-1 $-1 $26 $8 #
cone-surface $-1 -1.5 1.5 0 0 0 1 0.25 0 0 1 I I 0 1 0.25 forward I I I I #
loop $-1 $-1 $27 $5 #
coedge $-1 $28 $21 $29 $30 forward $9 $-1 #
coedge $-1 $31 $32 $33 $34 reversed $11 $-1 #
coedge $-1 $35 $12 $36 $37 reversed $6 $-1 #
coedge $-1 $12 $38 $39 $40 reversed $6 $-1 #
coedge $-1 $17 $41 $12 $22 forward $9 $-1 #
edge $-1 $42 0 $43 1.5 $12 $44 forward 7 unknown #
face $-1 $45 $46 $3 $-1 $47 reversed single #
loop $-1 $48 $49 $13 #
plane-surface $-1 -1.75 1.5 0 -1 0 0 0 -1 0 forward_v I I I I #
coedge $-1 $50 $39 $51 $52 forward $14 $-1 #
coedge $-1 $53 $53 $54 $55 reversed $16 $-1 #
coedge $-1 $41 $17 $56 $57 reversed $9 $-1 #
coedge $-1 $39 $50 $17 $30 reversed $14 $-1 #
edge $-1 $43 0 $58 48 $29 $59 forward 7 unknown #
coedge $-1 $60 $18 $61 $62 reversed $11 $-1 #
coedge $-1 $18 $63 $64 $65 reversed $11 $-1 #
coedge $-1 $66 $67 $18 $34 forward $68 $-1 #
edge $-1 $69 0 $70 1.5707963267948966 $18 $71 forward 7 unknown #
coedge $-1 $72 $19 $73 $74 reversed $6 $-1 #
coedge $-1 $75 $76 $19 $37 forward $77 $-1 #
edge $-1 $78 0 $42 1.5707963267948966 $19 $79 forward 7 unknown #
coedge $-1 $20 $80 $81 $82 reversed $6 $-1 #
coedge $-1 $26 $29 $20 $40 forward $14 $-1 #
edge $-1 $43 0 $83 1.5707963267948966 $20 $84 forward 7 unknown #
coedge $-1 $21 $28 $75 $85 reversed $9 $-1 #
vertex $-1 $37 $86 #
vertex $-1 $40 $87 #
straight-curve $-1 0 1.75 0 -1 0 0 I I #
face $-1 $88 $89 $3 $-1 $90 reversed single #
loop $-1 $-1 $91 $23 #
cone-surface $-1 -1.75 0.75 27 1 0 0 0 0.125 0 1 I I 0 1 0.125 forward I I I I #
loop $-1 $92 $93 $13 #
coedge $-1 $94 $94 $95 $96 forward $24 $-1 #
coedge $-1 $29 $26 $97 $98 reversed $14 $-1 #
coedge $-1 $81 $99 $26 $52 reversed $100 $-1 #
edge $-1 $83 0 $101 48 $26 $102 forward 7 unknown #
coedge $-1 $27 $27 $103 $104 reversed $16 $-1 #
coedge $-1 $105 $106 $27 $55 forward $107 $-1 #
edge $-1 $108 0 $109 3.1415926535897931 $27 $110 forward 7 unknown #
coedge $-1 $97 $111 $28 $57 forward $112 $-1 #
edge $-1 $113 0 $58 1.5 $56 $114 forward 7 unknown #
vertex $-1 $98 $115 #
straight-curve $-1 -1.5 1.75 0 0 0 1 I I #
coedge $-1 $116 $31 $117 $118 reversed $11 $-1 #
coedge $-1 $119 $120 $31 $62 forward $121 $-1 #
edge $-1 $122 0 $69 1.5 $31 $123 forward 7 unknown #
coedge $-1 $32 $124 $125 $126 reversed $11 $-1 #
coedge $-1 $127 $128 $32 $65 forward $129 $-1 #
edge $-1 $70 0 $130 1.5 $32 $131 forward 7 unknown #
coedge $-1 $132 $33 $128 $133 forward $68 $-1 #
coedge $-1 $33 $132 $119 $134 reversed $68 $-1 #
loop $-1 $-1 $66 $135 #
vertex $-1 $62 $136 #
vertex $-1 $65 $137 #
ellipse-curve $-1 -1.5 1.5 0 0 0 -1 -0.125 0 0 1 I I #
coedge $-1 $138 $35 $139 $140 reversed $6 $-1 #
coedge $-1 $141 $142 $35 $74 forward $143 $-1 #
edge $-1 $144 0 $78 1.5 $35 $145 forward 7 unknown #
coedge $-1 $146 $36 $41 $85 forward $77 $-1 #
coedge $-1 $36 $146 $141 $147 reversed $77 $-1 #
loop $-1 $-1 $75 $148 #
vertex $-1 $74 $149 #
ellipse-curve $-1 0 1.5 0 0 0 1 0.25 0 0 1 I I #
coedge $-1 $38 $138 $150 $151 reversed $6 $-1 #
coedge $-1 $152 $51 $38 $82 forward $100 $-1 #
edge $-1 $83 0 $153 1.5 $38 $154 forward 7 unknown #
vertex $-1 $40 $155 #
ellipse-curve $-1 -1.5 1.5 0 0 0 1 0 0.25 0 1 I I #
edge $-1 $42 4.8817080788481036e-036 $113 48 $75 $156 forward 7 unknown #
point $-1 0 1.75 0 #
point $-1 -1.5 1.75 0 #
face $-1 $157 $158 $3 $-1 $159 forward single #
loop $-1 $-1 $160 $45 #
cone-surface $-1 -1.75 0.75 27 1 0 0 0 0.125 0 1 I I 0 1 0.125 forward I I I I #
coedge $-1 $161 $95 $162 $163 forward $46 $-1 #
loop $-1 $164 $165 $13 #
coedge $-1 $166 $166 $167 $168 forward $48 $-1 #
coedge $-1 $49 $49 $169 $170 forward $24 $-1 #
coedge $-1 $91 $171 $49 $96 reversed $46 $-1 #
edge $-1 $172 0 $173 3.1415926535897931 $49 $174 forward 7 unknown #
coedge $-1 $175 $56 $50 $98 forward $112 $-1 #
edge $-1 $58 0 $101 1.5707963267948939 $97 $176 forward 7 unknown #
coedge $-1 $51 $152 $175 $177 reversed $100 $-1 #
loop $-1 $178 $152 $13 #
vertex $-1 $98 $179 #
straight-curve $-1 -1.75 1.5 0 0 0 1 I I #
coedge $-1 $180 $181 $53 $104 forward $182 $-1 #
edge $-1 $109 0 $108 3.1415926535897931 $53 $183 forward 7 unknown #
coedge $-1 $184 $54 $181 $185 reversed $107 $-1 #
coedge $-1 $54 $184 $180 $186 forward $107 $-1 #
loop $-1 $-1 $105 $187 #
vertex $-1 $104 $188 #
vertex $-1 $104 $189 #
ellipse-curve $-1 -0.75 1.75 3 0 1 0 0.125 0 0 1 I I #
coedge $-1 $56 $190 $146 $191 forward $112 $-1 #
loop $-1 $192 $175 $193 #
vertex $-1 $57 $194 #
straight-curve $-1 0 1.75 48 -1 0 0 I I #
point $-1 -1.5 1.75 48 #
coedge $-1 $195 $60 $196 $197 reversed $11 $-1 #
coedge $-1 $198 $199 $60 $118 forward $200 $-1 #
edge $-1 $201 0 $122 1.5707963267948966 $60 $202 forward 7 unknown #
coedge $-1 $203 $61 $67 $134 forward $121 $-1 #
coedge $-1 $61 $203 $198 $204 reversed $121 $-1 #
loop $-1 $205 $119 $88 #
vertex $-1 $118 $206 #
straight-curve $-1 -1.625 0 0 0 1 0 I I #
coedge $-1 $63 $195 $207 $208 reversed $11 $-1 #
coedge $-1 $209 $210 $63 $126 forward $211 $-1 #
edge $-1 $130 0 $212 1.5707963267948966 $63 $213 forward 7 unknown #
coedge $-1 $214 $64 $210 $215 forward $129 $-1 #
coedge $-1 $64 $214 $66 $133 reversed $129 $-1 #
loop $-1 $216 $127 $217 #
vertex $-1 $65 $218 #
straight-curve $-1 -1.5 1.625 0 1 0 0 I I #
coedge $-1 $67 $66 $219 $220 reversed $68 $-1 #
edge $-1 $70 0 $221 48 $128 $222 forward 7 unknown #
edge $-1 $69 0 $223 48 $119 $224 forward 7 unknown #
face $-1 $217 $68 $3 $-1 $225 reversed single #
point $-1 -1.625 1.5 0 #
point $-1 -1.5 1.625 0 #
coedge $-1 $80 $72 $226 $227 reversed $6 $-1 #
coedge $-1 $228 $229 $72 $140 forward $230 $-1 #
edge $-1 $231 0 $144 1.5707963267948966 $72 $232 forward 7 unknown #
coedge $-1 $233 $73 $76 $147 forward $143 $-1 #
coedge $-1 $73 $233 $228 $234 reversed $143 $-1 #
loop $-1 $235 $141 $236 #
vertex $-1 $140 $237 #
straight-curve $-1 0.25 0 0 0 1 0 I I #
coedge $-1 $76 $75 $111 $191 reversed $77 $-1 #
edge $-1 $78 0 $238 48 $141 $239 forward 7 unknown #
face $-1 $193 $77 $3 $-1 $240 forward single #
point $-1 0.25 1.5 0 #
coedge $-1 $241 $242 $80 $151 forward $243 $-1 #
edge $-1 $153 0 $244 1.5707963267948966 $80 $245 forward 7 unknown #
coedge $-1 $99 $81 $242 $246 forward $100 $-1 #
vertex $-1 $82 $247 #
straight-curve $-1 -1.75 1.5 0 0 -1 0 I I #
point $-1 -1.75 1.5 0 #
straight-curve $-1 1.5307579422779716e-017 1.75 0 -3.1890790464124408e-019 0 1 I I #
face $-1 $248 $249 $3 $-1 $250 reversed single #
loop $-1 $251 $252 $88 #
plane-surface $-1 -1.625 0 0 1 0 0 0 1 0 forward_v I I I I #
coedge $-1 $253 $169 $171 $254 forward $89 $-1 #
coedge $-1 $171 $91 $252 $255 forward $46 $-1 #
coedge $-1 $169 $253 $91 $163 reversed $89 $-1 #
edge $-1 $172 0 $256 0.125 $162 $257 forward 7 unknown #
loop $-1 $100 $258 $13 #
coedge $-1 $259 $259 $260 $261 forward $92 $-1 #
coedge $-1 $93 $93 $262 $263 forward $48 $-1 #
coedge $-1 $264 $265 $93 $168 reversed $249 $-1 #
edge $-1 $266 0 $267 3.1415926535897931 $93 $268 forward 7 unknown #
coedge $-1 $160 $162 $94 $170 reversed $89 $-1 #
edge $-1 $173 0 $172 3.1415926535897931 $94 $269 forward 7 unknown #
coedge $-1 $95 $161 $160 $254 reversed $46 $-1 #
vertex $-1 $170 $270 #
vertex $-1 $170 $271 #
ellipse-curve $-1 -1.75 0.75 27 1 0 0 0 -0.125 0 1 I I #
coedge $-1 $272 $97 $99 $177 forward $112 $-1 #
ellipse-curve $-1 -1.4999999999999996 1.4999999999999998 48 0 0 1 -4.4408920985006262e-016 0.25000000000000022 0 1 I I #
edge $-1 $101 0 $273 1.5 $175 $274 forward 7 unknown #
loop $-1 $-1 $275 $13 #
point $-1 -1.75 1.5 48 #
coedge $-1 $276 $103 $106 $186 reversed $182 $-1 #
coedge $-1 $103 $276 $105 $185 forward $182 $-1 #
loop $-1 $-1 $180 $277 #
ellipse-curve $-1 -0.75 1.75 3 0 1 0 -0.125 0 0 1 I I #
coedge $-1 $106 $105 $278 $279 reversed $107 $-1 #
edge $-1 $280 0 $109 0.125 $181 $281 forward 7 unknown #
edge $-1 $282 0 $108 0.125 $180 $283 forward 7 unknown #
face $-1 $277 $107 $3 $-1 $284 reversed single #
point $-1 -0.625 1.75 3 #
point $-1 -0.875 1.75 3 #
coedge $-1 $111 $285 $233 $286 forward $112 $-1 #
edge $-1 $238 0 $113 1.5707963267948952 $111 $287 forward 7 unknown #
loop $-1 $-1 $288 $193 #
face $-1 $289 $112 $3 $-1 $290 forward single #
point $-1 0 1.75 48 #
coedge $-1 $124 $116 $291 $292 reversed $11 $-1 #
coedge $-1 $293 $294 $116 $197 forward $295 $-1 #
edge $-1 $296 0 $201 1.5 $116 $297 forward 7 unknown #
coedge $-1 $298 $117 $120 $204 forward $200 $-1 #
coedge $-1 $117 $298 $293 $299 reversed $200 $-1 #
loop $-1 $-1 $198 $300 #
vertex $-1 $197 $301 #
ellipse-curve $-1 -1.5 0 0 0 0 -1 0 -0.125 0 1 I I #
coedge $-1 $120 $119 $302 $303 reversed $121 $-1 #
edge $-1 $122 4.8817080788481036e-036 $304 48 $198 $305 forward 7 unknown #
loop $-1 $-1 $306 $88 #
point $-1 -1.625 0 0 #
coedge $-1 $307 $308 $124 $208 forward $309 $-1 #
edge $-1 $212 0 $310 1.5 $124 $311 forward 7 unknown #
coedge $-1 $312 $125 $308 $313 forward $211 $-1 #
coedge $-1 $125 $312 $127 $215 reversed $211 $-1 #
loop $-1 $-1 $209 $314 #
vertex $-1 $126 $315 #
ellipse-curve $-1 0 1.5 0 0 0 -1 0 0.125 0 1 I I #
coedge $-1 $128 $127 $316 $317 reversed $129 $-1 #
edge $-1 $130 0 $318 48 $127 $319 forward 7 unknown #
loop $-1 $-1 $278 $217 #
face $-1 $314 $129 $3 $-1 $320 forward single #
point $-1 0 1.625 0 #
coedge $-1 $316 $302 $132 $220 forward $192 $-1 #
edge $-1 $223 0 $221 1.5707963267948966 $219 $321 forward 7 unknown #
vertex $-1 $317 $322 #
straight-curve $-1 -1.5 1.625 0 0 0 1 I I #
vertex $-1 $220 $323 #
straight-curve $-1 -1.625 1.5 0 0 0 1 I I #
cone-surface $-1 -1.5 1.5 0 0 0 1 0.125 0 0 1 I I 0 1 0.125 forward I I I I #
coedge $-1 $324 $325 $138 $227 forward $326 $-1 #
edge $-1 $244 0 $231 1.5 $138 $327 forward 7 unknown #
coedge $-1 $328 $139 $142 $234 forward $230 $-1 #
coedge $-1 $139 $328 $324 $329 reversed $230 $-1 #
loop $-1 $-1 $228 $330 #
vertex $-1 $227 $331 #
ellipse-curve $-1 0 0 0 0 0 1 0 -0.25 0 1 I I #
coedge $-1 $142 $141 $190 $286 reversed $143 $-1 #
edge $-1 $144 0 $332 48 $228 $333 forward 7 unknown #
loop $-1 $334 $335 $236 #
face $-1 $336 $337 $3 $-1 $338 forward single #
point $-1 0.25 0 0 #
vertex $-1 $191 $339 #
straight-curve $-1 0.25 1.5 0 0 0 1 I I #
cone-surface $-1 0 1.5 0 0 0 1 0.25 0 0 1 I I 0 1 0.25 forward I I I I #
coedge $-1 $340 $150 $325 $341 forward $243 $-1 #
coedge $-1 $150 $340 $152 $246 reversed $243 $-1 #
loop $-1 $-1 $241 $289 #
vertex $-1 $151 $342 #
ellipse-curve $-1 -1.5 0 0 0 0 1 -0.25 0 0 1 I I #
edge $-1 $153 0 $273 48 $152 $343 forward 7 unknown #
point $-1 -1.75 0 0 #
face $-1 $344 $345 $3 $-1 $346 reversed single #
loop $-1 $-1 $264 $157 #
cone-surface $-1 -1.75 0.75 24 1 0 0 0 0.125 0 1 I I 0 1 0.125 forward I I I I #
loop $-1 $347 $348 $88 #
coedge $-1 $349 $349 $161 $255 reversed $158 $-1 #
coedge $-1 $162 $160 $349 $350 forward $89 $-1 #
edge $-1 $173 0 $351 0.125 $160 $352 forward 7 unknown #
edge $-1 $256 0 $351 3.14159265358985 $252 $353 forward 7 unknown #
vertex $-1 $350 $354 #
straight-curve $-1 -1.75 0.625 27 1 0 0 I I #
coedge $-1 $355 $355 $356 $357 forward $164 $-1 #
coedge $-1 $165 $165 $358 $359 forward $92 $-1 #
coedge $-1 $360 $361 $165 $261 reversed $362 $-1 #
edge $-1 $363 0 $364 3.1415926535897931 $165 $365 forward 7 unknown #
coedge $-1 $366 $367 $166 $263 reversed $345 $-1 #
edge $-1 $267 0 $266 3.1415926535897931 $166 $368 forward 7 unknown #
coedge $-1 $369 $167 $367 $370 forward $249 $-1 #
coedge $-1 $167 $369 $366 $371 reversed $249 $-1 #
vertex $-1 $263 $372 #
vertex $-1 $263 $373 #
ellipse-curve $-1 -1.75 0.75 24 1 0 0 0 -0.125 0 1 I I #
ellipse-curve $-1 -1.75 0.75 27 1 0 0 0 0.125 0 1 I I #
point $-1 -1.75 0.625 27 #
point $-1 -1.75 0.875 27 #
coedge $-1 $374 $175 $340 $375 forward $112 $-1 #
vertex $-1 $375 $376 #
straight-curve $-1 -1.75 1.5 48 0 -1 0 I I #
coedge $-1 $377 $377 $378 $379 forward $178 $-1 #
coedge $-1 $181 $180 $380 $381 reversed $182 $-1 #
face $-1 $382 $182 $3 $-1 $383 reversed single #
coedge $-1 $380 $380 $184 $279 forward $216 $-1 #
edge $-1 $282 0 $280 3.1415926535897931 $278 $384 forward 7 unknown #
vertex $-1 $381 $385 #
straight-curve $-1 -0.875 1.625 3 0 1 0 I I #
vertex $-1 $381 $386 #
straight-curve $-1 -0.625 1.625 3 0 1 0 I I #
cone-surface $-1 -0.75 -0.25 3 0 1 0 -0.125 0 0 1 I I 0 1 0.125 forward I I I I #
coedge $-1 $190 $374 $328 $387 forward $112 $-1 #
edge $-1 $332 0 $238 1.5 $190 $388 forward 7 unknown #
ellipse-curve $-1 -1.3877787807814457e-016 1.4999999999999998 48 0 0 1 0.25000000000000011 2.2204460492503131e-016 0 1 I I #
coedge $-1 $389 $316 $312 $390 forward $192 $-1 #
face $-1 $391 $243 $3 $-1 $392 forward single #
plane-surface $-1 0 0 48 0 0 1 1 0 0 forward_v I I I I #
coedge $-1 $393 $394 $195 $292 forward $395 $-1 #
edge $-1 $310 0 $296 1.5707963267948966 $195 $396 forward 7 unknown #
coedge $-1 $397 $196 $199 $299 forward $295 $-1 #
coedge $-1 $196 $397 $393 $398 reversed $295 $-1 #
loop $-1 $399 $293 $400 #
vertex $-1 $292 $401 #
straight-curve $-1 0 -0.125 0 -1 0 0 I I #
coedge $-1 $199 $198 $402 $403 reversed $200 $-1 #
edge $-1 $201 0 $404 48 $293 $405 forward 7 unknown #
face $-1 $406 $200 $3 $-1 $407 reversed single #
point $-1 -1.5 -0.125 0 #
coedge $-1 $219 $402 $203 $303 forward $192 $-1 #
edge $-1 $304 0 $223 1.5 $302 $408 forward 7 unknown #
vertex $-1 $303 $409 #
straight-curve $-1 -1.625 1.5307579422779716e-017 0 0 -3.1890790464124408e-019 1 I I #
coedge $-1 $410 $410 $411 $412 reversed $205 $-1 #
coedge $-1 $413 $207 $394 $414 forward $309 $-1 #
coedge $-1 $207 $413 $209 $313 reversed $309 $-1 #
loop $-1 $415 $307 $416 #
vertex $-1 $208 $417 #
straight-curve $-1 0.125 1.5 0 0 -1 0 I I #
coedge $-1 $210 $209 $288 $390 reversed $211 $-1 #
edge $-1 $212 0 $418 48 $209 $419 forward 7 unknown #
face $-1 $416 $211 $3 $-1 $420 reversed single #
point $-1 0.125 1.5 0 #
coedge $-1 $288 $219 $214 $317 forward $192 $-1 #
edge $-1 $221 0 $318 1.5 $316 $421 forward 7 unknown #
vertex $-1 $317 $422 #
straight-curve $-1 0 1.625 0 0 0 1 I I #
plane-surface $-1 -1.5 1.625 0 0 -1 0 1 0 0 forward_v I I I I #
ellipse-curve $-1 -1.5 1.5 48 0 0 -1 -0.125 0 0 1 I I #
point $-1 -1.5 1.625 48 #
point $-1 -1.625 1.5 48 #
coedge $-1 $423 $226 $229 $329 forward $326 $-1 #
coedge $-1 $226 $423 $241 $341 reversed $326 $-1 #
loop $-1 $424 $324 $391 #
straight-curve $-1 -1.5 -0.25 0 1 0 0 I I #
coedge $-1 $229 $228 $285 $387 reversed $230 $-1 #
edge $-1 $231 0 $425 48 $324 $426 forward 7 unknown #
face $-1 $427 $230 $3 $-1 $428 forward single #
point $-1 0 -0.25 0 #
vertex $-1 $286 $429 #
straight-curve $-1 0.25 0 0 0 0 1 I I #
loop $-1 $-1 $430 $236 #
coedge $-1 $431 $432 $433 $434 reversed $235 $-1 #
face $-1 $435 $436 $3 $-1 $437 reversed single #
loop $-1 $438 $439 $236 #
plane-surface $-1 0.25 0 0 1 0 0 0 1 0 forward_v I I I I #
point $-1 0.25 1.5 48 #
coedge $-1 $242 $241 $272 $375 reversed $243 $-1 #
edge $-1 $244 0 $440 48 $241 $441 forward 7 unknown #
point $-1 -1.5 -0.25 0 #
straight-curve $-1 -1.75 0 0 0 0 1 I I #
face $-1 $442 $362 $3 $-1 $443 reversed single #
loop $-1 $-1 $366 $248 #
cone-surface $-1 -1.75 0.75 24 1 0 0 0 0.125 0 1 I I 0 1 0.125 forward I I I I #
loop $-1 $444 $445 $88 #
coedge $-1 $446 $446 $369 $447 reversed $251 $-1 #
coedge $-1 $252 $252 $253 $350 reversed $158 $-1 #
edge $-1 $351 0 $256 3.14159265358985 $349 $448 forward 7 unknown #
vertex $-1 $350 $449 #
straight-curve $-1 -1.75 0.875 27 1 0 0 I I #
ellipse-curve $-1 -1.625 0.75 26.999999999999996 1 0 0 0 -0.125 3.5527136788005009e-015 1 I I #
point $-1 -1.625 0.625 27 #
coedge $-1 $258 $258 $450 $451 forward $164 $-1 #
coedge $-1 $452 $453 $258 $357 reversed $454 $-1 #
edge $-1 $455 0 $456 3.1415926535897931 $258 $457 forward 7 unknown #
coedge $-1 $458 $459 $259 $359 reversed $460 $-1 #
edge $-1 $364 0 $363 3.1415926535897931 $259 $461 forward 7 unknown #
coedge $-1 $462 $260 $459 $463 forward $362 $-1 #
coedge $-1 $260 $462 $458 $464 reversed $362 $-1 #
loop $-1 $-1 $360 $344 #
vertex $-1 $359 $465 #
vertex $-1 $359 $466 #
ellipse-curve $-1 -1.75 0.75 21 1 0 0 0 -0.125 0 1 I I #
coedge $-1 $467 $262 $265 $371 forward $345 $-1 #
coedge $-1 $262 $467 $264 $370 reversed $345 $-1 #
ellipse-curve $-1 -1.75 0.75 24 1 0 0 0 0.125 0 1 I I #
coedge $-1 $265 $264 $348 $447 forward $249 $-1 #
edge $-1 $266 0 $468 0.125 $367 $469 forward 7 unknown #
edge $-1 $267 0 $470 0.125 $366 $471 forward 7 unknown #
point $-1 -1.75 0.625 24 #
point $-1 -1.75 0.875 24 #
coedge $-1 $285 $272 $423 $472 forward $112 $-1 #
edge $-1 $273 -1.2246063538223773e-016 $440 1.5707963267948961 $272 $473 forward 7 unknown #
point $-1 -1.75 3.0615158845559431e-017 48 #
coedge $-1 $275 $275 $474 $475 forward $178 $-1 #
coedge $-1 $476 $477 $275 $379 reversed $478 $-1 #
edge $-1 $479 0 $480 3.1415926535897931 $275 $481 forward 7 unknown #
coedge $-1 $278 $278 $276 $381 forward $216 $-1 #
edge $-1 $280 0 $282 3.1415926535897931 $380 $482 forward 7 unknown #
face $-1 $483 $478 $3 $-1 $484 reversed single #
cone-surface $-1 -0.75 -0.25 3 0 1 0 -0.125 0 0 1 I I 0 1 0.125 forward I I I I #
ellipse-curve $-1 -0.75 1.625 3 0 1 0 0.125 0 0 1 I I #
point $-1 -0.875 1.625 3 #
point $-1 -0.625 1.625 3 #
edge $-1 $425 -1.8369095307335661e-016 $332 1.5707963267948968 $285 $485 forward 7 unknown #
straight-curve $-1 0.25 0 48 0 1 0 I I #
coedge $-1 $486 $288 $413 $487 forward $192 $-1 #
edge $-1 $318 0 $418 1.5707963267948974 $288 $488 forward 7 unknown #
face $-1 $330 $326 $3 $-1 $489 forward single #
cone-surface $-1 -1.5 0 0 0 0 1 0.25 0 0 1 I I 0 1 0.25 forward I I I I #
coedge $-1 $490 $291 $294 $398 forward $395 $-1 #
coedge $-1 $291 $490 $307 $414 reversed $395 $-1 #
loop $-1 $-1 $393 $406 #
ellipse-curve $-1 0 0 0 0 0 -1 0.125 0 0 1 I I #
coedge $-1 $294 $293 $491 $492 reversed $295 $-1 #
edge $-1 $296 1.0983843177408233e-035 $493 48 $393 $494 forward 7 unknown #
loop $-1 $-1 $495 $400 #
face $-1 $300 $295 $3 $-1 $496 forward single #
point $-1 0 -0.125 0 #
coedge $-1 $302 $491 $298 $403 forward $192 $-1 #
edge $-1 $404 0 $304 1.570796326794897 $402 $497 forward 7 unknown #
vertex $-1 $403 $498 #
straight-curve $-1 -1.5 -0.125 0 0 0 1 I I #
face $-1 $499 $395 $3 $-1 $500 reversed single #
cone-surface $-1 -1.5 0 0 0 0 1 0.125 0 0 1 I I 0 1 0.125 forward I I I I #
straight-curve $-1 -1.625 0 48 0 1 0 I I #
point $-1 -1.625 0 48 #
coedge $-1 $306 $306 $501 $502 reversed $205 $-1 #
coedge $-1 $477 $476 $306 $412 forward $478 $-1 #
edge $-1 $503 0 $504 3.1415926535898215 $306 $505 forward 7 unknown #
coedge $-1 $308 $307 $389 $487 reversed $309 $-1 #
edge $-1 $310 0 $506 48 $307 $507 forward 7 unknown #
loop $-1 $508 $509 $416 #
face $-1 $510 $511 $3 $-1 $512 forward single #
point $-1 0.125 0 0 #
vertex $-1 $487 $513 #
straight-curve $-1 0.125 1.5 0 0 0 1 I I #
cone-surface $-1 0 1.5 0 0 0 1 0.125 0 0 1 I I 0 1 0.125 forward I I I I #
straight-curve $-1 -1.5 1.625 48 1 0 0 I I #
point $-1 0 1.625 48 #
coedge $-1 $325 $324 $374 $472 reversed $326 $-1 #
loop $-1 $-1 $514 $391 #
vertex $-1 $387 $515 #
straight-curve $-1 0 -0.25 0 0 0 1 I I #
face $-1 $516 $517 $3 $-1 $518 reversed single #
cone-surface $-1 0 0 0 0 0 1 0.25 0 0 1 I I 0 1 0.25 forward I I I I #
point $-1 0.25 0 48 #
coedge $-1 $519 $519 $520 $521 reversed $334 $-1 #
coedge $-1 $522 $335 $523 $524 reversed $235 $-1 #
coedge $-1 $335 $522 $525 $526 reversed $235 $-1 #
coedge $-1 $527 $528 $335 $434 forward $529 $-1 #
edge $-1 $530 0 $531 1 $335 $532 forward 7 unknown #
face $-1 $533 $534 $3 $-1 $535 reversed single #
loop $-1 $-1 $536 $336 #
cone-surface $-1 -1.75 0.75 24 1 0 0 0 0.125 0 1 I I 0 1 0.125 forward I I I I #
loop $-1 $537 $538 $236 #
coedge $-1 $539 $539 $540 $541 reversed $337 $-1 #
vertex $-1 $472 $542 #
straight-curve $-1 -1.5 -0.25 0 0 0 1 I I #
face $-1 $543 $460 $3 $-1 $544 reversed single #
cone-surface $-1 -1.75 0.75 21 1 0 0 0 0.125 0 1 I I 0 1 0.125 forward I I I I #
loop $-1 $121 $545 $88 #
coedge $-1 $546 $546 $462 $547 reversed $347 $-1 #
coedge $-1 $348 $348 $467 $548 reversed $251 $-1 #
edge $-1 $468 0 $470 3.14159265358985 $348 $549 forward 7 unknown #
ellipse-curve $-1 -1.625 0.75 27.000000000000004 1 0 0 0 0.125 -3.5527136788005009e-015 1 I I #
point $-1 -1.625 0.875 27 #
coedge $-1 $550 $551 $355 $451 reversed $552 $-1 #
edge $-1 $456 0 $455 3.1415926535897931 $355 $553 forward 7 unknown #
coedge $-1 $554 $356 $551 $555 forward $454 $-1 #
coedge $-1 $356 $554 $550 $556 reversed $454 $-1 #
loop $-1 $-1 $452 $543 #
vertex $-1 $451 $557 #
vertex $-1 $451 $558 #
ellipse-curve $-1 -1.75 0.75 18 1 0 0 0 -0.125 0 1 I I #
coedge $-1 $559 $358 $361 $464 forward $460 $-1 #
coedge $-1 $358 $559 $360 $463 reversed $460 $-1 #
loop $-1 $-1 $458 $442 #
ellipse-curve $-1 -1.75 0.75 21 1 0 0 0 0.125 0 1 I I #
coedge $-1 $361 $360 $445 $547 forward $362 $-1 #
edge $-1 $363 0 $560 0.125 $459 $561 forward 7 unknown #
edge $-1 $364 0 $562 0.125 $458 $563 forward 7 unknown #
point $-1 -1.75 0.625 21 #
point $-1 -1.75 0.875 21 #
coedge $-1 $367 $366 $446 $548 forward $345 $-1 #
vertex $-1 $548 $564 #
straight-curve $-1 -1.75 0.625 24 1 0 0 I I #
vertex $-1 $548 $565 #
straight-curve $-1 -1.75 0.875 24 1 0 0 I I #
edge $-1 $440 0 $425 1.5 $374 $566 forward 7 unknown #
ellipse-curve $-1 -1.5 1.2490009027033011e-016 48 0 0 1 -0.25 -1.2490009027033011e-016 0 1 I I #
coedge $-1 $567 $568 $377 $475 reversed $569 $-1 #
edge $-1 $480 0 $479 3.1415926535897931 $377 $570 forward 7 unknown #
coedge $-1 $411 $378 $568 $571 forward $478 $-1 #
coedge $-1 $378 $411 $567 $572 reversed $478 $-1 #
loop $-1 $-1 $476 $382 #
vertex $-1 $475 $573 #
vertex $-1 $475 $574 #
ellipse-curve $-1 -1.75 0.75 15 1 0 0 0 -0.125 0 1 I I #
ellipse-curve $-1 -0.75 1.625 3 0 1 0 -0.125 0 0 1 I I #
face $-1 $-1 $569 $3 $-1 $575 reversed single #
cone-surface $-1 -1.75 0.75 15 1 0 0 0 0.125 0 1 I I 0 1 0.125 forward I I I I #
ellipse-curve $-1 6.9388939039072284e-018 -2.7755575615628914e-017 48 0 0 1 -6.9388939039072284e-018 -0.24999999999999997 0 1 I I #
coedge $-1 $491 $389 $490 $576 forward $192 $-1 #
edge $-1 $418 0 $506 1.5 $389 $577 forward 7 unknown #
ellipse-curve $-1 9.7144514654701197e-017 1.5 48 0 0 -1 -9.7144514654701197e-017 0.125 0 1 I I #
plane-surface $-1 -1.5 -0.25 0 0 -1 0 1 0 0 forward_v I I I I #
coedge $-1 $394 $393 $486 $576 reversed $395 $-1 #
coedge $-1 $402 $486 $397 $492 forward $192 $-1 #
edge $-1 $493 0 $404 1.5 $491 $578 forward 7 unknown #
vertex $-1 $492 $579 #
straight-curve $-1 -2.2961369134169574e-017 -0.125 0 4.7836185696186612e-019 0 1 I I #
coedge $-1 $580 $580 $581 $582 reversed $399 $-1 #
plane-surface $-1 0 -0.125 0 0 1 0 -1 0 0 forward_v I I I I #
ellipse-curve $-1 -1.5 -5.8980598183211441e-017 48 0 0 -1 0 -0.12499999999999994 0 1 I I #
point $-1 -1.5 -0.125 48 #
face $-1 $583 $529 $3 $-1 $584 reversed single #
cone-surface $-1 0 0 0 0 0 1 0.125 0 0 1 I I 0 1 0.125 forward I I I I #
coedge $-1 $568 $567 $410 $502 forward $569 $-1 #
edge $-1 $504 0 $503 3.1415926535898215 $410 $585 forward 7 unknown #
vertex $-1 $502 $586 #
vertex $-1 $502 $587 #
ellipse-curve $-1 -1.625 0.75 14.999999999999998 1 0 0 0 -0.125 1.7763568394002505e-015 1 I I #
vertex $-1 $576 $588 #
straight-curve $-1 0.125 0 0 0 0 1 I I #
loop $-1 $-1 $589 $416 #
coedge $-1 $590 $591 $592 $593 forward $415 $-1 #
face $-1 $594 $595 $3 $-1 $596 reversed single #
loop $-1 $597 $598 $416 #
plane-surface $-1 0.125 1.5 0 -1 0 0 0 -1 0 forward_v I I I I #
point $-1 0.125 1.5 48 #
coedge $-1 $599 $599 $600 $601 forward $424 $-1 #
point $-1 -4.5922738268339147e-017 -0.25 48 #
face $-1 $400 $602 $3 $-1 $603 reversed single #
loop $-1 $-1 $604 $427 #
cone-surface $-1 -0.75 -0.25 3 0 1 0 -0.125 0 0 1 I I 0 1 0.125 forward I I I I #
coedge $-1 $430 $430 $605 $606 reversed $334 $-1 #
coedge $-1 $607 $608 $430 $521 forward $609 $-1 #
edge $-1 $610 0 $611 3.1415926535898215 $430 $612 forward 7 unknown #
coedge $-1 $432 $431 $613 $614 reversed $235 $-1 #
coedge $-1 $615 $616 $431 $524 forward $617 $-1 #
edge $-1 $618 0 $530 1 $431 $619 forward 7 unknown #
coedge $-1 $620 $621 $432 $526 forward $622 $-1 #
edge $-1 $531 0 $623 1 $432 $624 forward 7 unknown #
coedge $-1 $625 $433 $621 $626 forward $529 $-1 #
coedge $-1 $433 $625 $615 $627 reversed $529 $-1 #
loop $-1 $-1 $527 $499 #
vertex $-1 $524 $628 #
vertex $-1 $526 $629 #
straight-curve $-1 0.25 1.25 41.5 0 0 1 I I #
face $-1 $630 $631 $3 $-1 $632 reversed single #
loop $-1 $-1 $633 $435 #
cone-surface $-1 -1.75 0.75 24 1 0 0 0 0.125 0 1 I I 0 1 0.125 forward I I I I #
coedge $-1 $634 $635 $636 $637 reversed $436 $-1 #
loop $-1 $638 $639 $236 #
coedge $-1 $640 $640 $635 $641 reversed $438 $-1 #
coedge $-1 $439 $439 $642 $643 reversed $337 $-1 #
coedge $-1 $644 $645 $439 $541 forward $595 $-1 #
edge $-1 $646 0 $647 3.14159265358985 $439 $648 forward 7 unknown #
point $-1 -1.5 -0.25 48 #
face $-1 $649 $454 $3 $-1 $650 reversed single #
cone-surface $-1 -1.75 0.75 21 1 0 0 0 0.125 0 1 I I 0 1 0.125 forward I I I I #
coedge $-1 $651 $651 $554 $652 reversed $444 $-1 #
coedge $-1 $445 $445 $559 $653 reversed $347 $-1 #
edge $-1 $560 0 $562 3.14159265358985 $445 $654 forward 7 unknown #
edge $-1 $470 0 $468 3.14159265358985 $446 $655 forward 7 unknown #
ellipse-curve $-1 -1.625 0.75 23.999999999999996 1 0 0 0 -0.125 3.5527136788005009e-015 1 I I #
coedge $-1 $656 $450 $453 $556 forward $552 $-1 #
coedge $-1 $450 $656 $452 $555 reversed $552 $-1 #
loop $-1 $-1 $550 $649 #
ellipse-curve $-1 -1.75 0.75 18 1 0 0 0 0.125 0 1 I I #
coedge $-1 $453 $452 $545 $652 forward $454 $-1 #
edge $-1 $455 0 $657 0.125 $551 $658 forward 7 unknown #
edge $-1 $456 0 $659 0.125 $550 $660 forward 7 unknown #
point $-1 -1.75 0.625 18 #
point $-1 -1.75 0.875 18 #
coedge $-1 $459 $458 $546 $653 forward $460 $-1 #
vertex $-1 $653 $661 #
straight-curve $-1 -1.75 0.625 21 1 0 0 I I #
vertex $-1 $653 $662 #
straight-curve $-1 -1.75 0.875 21 1 0 0 I I #
point $-1 -1.625 0.625 24 #
point $-1 -1.625 0.875 24 #
straight-curve $-1 -1.5 -0.25 48 1 0 0 I I #
coedge $-1 $501 $474 $477 $572 forward $569 $-1 #
coedge $-1 $474 $501 $476 $571 reversed $569 $-1 #
loop $-1 $-1 $567 $483 #
ellipse-curve $-1 -1.75 0.75 15 1 0 0 0 0.125 0 1 I I #
edge $-1 $479 0 $503 0.125 $568 $663 forward 7 unknown #
edge $-1 $480 0 $504 0.125 $567 $664 forward 7 unknown #
point $-1 -1.75 0.625 15 #
point $-1 -1.75 0.875 15 #
cone-surface $-1 -1.75 0.75 15 1 0 0 0 0.125 0 1 I I 0 1 0.125 forward I I I I #
edge $-1 $506 2.4492127076447545e-016 $493 1.5707963267948966 $486 $665 forward 7 unknown #
straight-curve $-1 0.125 1.5 48 0 -1 0 I I #
straight-curve $-1 0 -0.125 48 -1 0 0 I I #
point $-1 0 -0.125 48 #
coedge $-1 $495 $495 $666 $667 reversed $399 $-1 #
coedge $-1 $668 $604 $495 $582 forward $517 $-1 #
edge $-1 $669 0 $670 3.1415926535897931 $495 $671 forward 7 unknown #
face $-1 $672 $622 $3 $-1 $673 reversed single #
plane-surface $-1 0.25 1.25 41.5 0 1 0 0 0 1 forward_v I I I I #
ellipse-curve $-1 -1.625 0.75 15.000000000000002 1 0 0 0 0.125 -1.7763568394002505e-015 1 I I #
point $-1 -1.625 0.625 15 #
point $-1 -1.625 0.875 15 #
point $-1 0.125 -3.0615158845559431e-017 48 #
coedge $-1 $674 $674 $675 $676 forward $508 $-1 #
coedge $-1 $677 $509 $678 $679 forward $415 $-1 #
coedge $-1 $509 $677 $680 $681 forward $415 $-1 #
coedge $-1 $682 $683 $509 $593 reversed $684 $-1 #
edge $-1 $685 0 $686 1 $509 $687 forward 7 unknown #
face $-1 $236 $688 $3 $-1 $689 reversed single #
loop $-1 $-1 $644 $510 #
cone-surface $-1 -1.75 0.75 27 1 0 0 0 0.125 0 1 I I 0 1 0.125 forward I I I I #
loop $-1 $690 $691 $416 #
coedge $-1 $692 $692 $693 $694 forward $511 $-1 #
coedge $-1 $514 $514 $695 $696 forward $424 $-1 #
coedge $-1 $604 $668 $514 $601 reversed $517 $-1 #
edge $-1 $697 0 $698 3.1415926535897931 $514 $699 forward 7 unknown #
loop $-1 $-1 $700 $516 #
cone-surface $-1 -0.75 -0.25 3 0 1 0 -0.125 0 0 1 I I 0 1 0.125 forward I I I I #
coedge $-1 $581 $600 $701 $702 forward $517 $-1 #
coedge $-1 $703 $704 $519 $606 forward $705 $-1 #
edge $-1 $611 0 $610 3.1415926535898215 $519 $706 forward 7 unknown #
coedge $-1 $675 $520 $704 $707 reversed $609 $-1 #
coedge $-1 $520 $675 $703 $708 forward $609 $-1 #
loop $-1 $-1 $607 $709 #
vertex $-1 $606 $710 #
vertex $-1 $606 $711 #
ellipse-curve $-1 0.25 0.75 14.999999999999998 1 0 0 0 -0.125 1.7763568394002505e-015 1 I I #
coedge $-1 $683 $682 $522 $614 forward $684 $-1 #
edge $-1 $623 0 $618 1 $522 $712 forward 7 unknown #
coedge $-1 $678 $523 $528 $627 forward $617 $-1 #
coedge $-1 $523 $678 $683 $713 reversed $617 $-1 #
loop $-1 $-1 $615 $714 #
vertex $-1 $614 $715 #
straight-curve $-1 0.25 0.25 41.5 0 1 0 I I #
coedge $-1 $680 $525 $682 $716 forward $622 $-1 #
coedge $-1 $525 $680 $527 $626 reversed $622 $-1 #
loop $-1 $-1 $620 $583 #
vertex $-1 $526 $717 #
straight-curve $-1 0.25 1.25 42.5 0 -1 0 I I #
coedge $-1 $528 $527 $677 $718 reversed $529 $-1 #
edge $-1 $531 0 $719 0.125 $621 $720 forward 7 unknown #
edge $-1 $530 0 $721 0.125 $615 $722 forward 7 unknown #
point $-1 0.25 1.25 41.5 #
point $-1 0.25 1.25 42.5 #
face $-1 $723 $724 $3 $-1 $725 reversed single #
loop $-1 $-1 $726 $533 #
cone-surface $-1 -1.75 0.75 21 1 0 0 0 0.125 0 1 I I 0 1 0.125 forward I I I I #
coedge $-1 $727 $728 $729 $730 reversed $534 $-1 #
coedge $-1 $729 $536 $691 $731 reversed $436 $-1 #
coedge $-1 $536 $729 $538 $641 forward $436 $-1 #
coedge $-1 $728 $727 $536 $637 forward $534 $-1 #
edge $-1 $732 0 $733 0.125 $636 $734 forward 7 unknown #
loop $-1 $735 $736 $236 #
coedge $-1 $737 $737 $738 $739 reversed $537 $-1 #
coedge $-1 $538 $538 $728 $740 reversed $438 $-1 #
edge $-1 $741 0 $733 3.14159265358985 $538 $742 forward 7 unknown #
coedge $-1 $743 $744 $539 $643 forward $688 $-1 #
edge $-1 $647 0 $646 3.14159265358985 $539 $745 forward 7 unknown #
coedge $-1 $693 $540 $744 $746 reversed $595 $-1 #
coedge $-1 $540 $693 $743 $747 forward $595 $-1 #
vertex $-1 $643 $748 #
vertex $-1 $643 $749 #
ellipse-curve $-1 0.25 0.75 26.999999999999996 1 0 0 0 -0.125 3.5527136788005009e-015 1 I I #
face $-1 $135 $552 $3 $-1 $750 reversed single #
cone-surface $-1 -1.75 0.75 18 1 0 0 0 0.125 0 1 I I 0 1 0.125 forward I I I I #
coedge $-1 $545 $545 $656 $751 reversed $444 $-1 #
edge $-1 $657 0 $659 3.14159265358985 $545 $752 forward 7 unknown #
edge $-1 $562 0 $560 3.14159265358985 $546 $753 forward 7 unknown #
ellipse-curve $-1 -1.625 0.75 20.999999999999996 1 0 0 0 -0.125 3.5527136788005009e-015 1 I I #
ellipse-curve $-1 -1.625 0.75 24.000000000000004 1 0 0 0 0.125 -3.5527136788005009e-015 1 I I #
coedge $-1 $551 $550 $651 $751 forward $552 $-1 #
vertex $-1 $751 $754 #
straight-curve $-1 -1.75 0.625 18 1 0 0 I I #
vertex $-1 $751 $755 #
straight-curve $-1 -1.75 0.875 18 1 0 0 I I #
point $-1 -1.625 0.625 21 #
point $-1 -1.625 0.875 21 #
straight-curve $-1 -1.75 0.625 15 1 0 0 I I #
straight-curve $-1 -1.75 0.875 15 1 0 0 I I #
ellipse-curve $-1 -3.4694469519536142e-018 1.0408340855860843e-017 48 0 0 -1 0.125 -1.0408340855860843e-017 0 1 I I #
coedge $-1 $701 $700 $580 $667 forward $602 $-1 #
edge $-1 $670 0 $669 3.1415926535897931 $580 $756 forward 7 unknown #
coedge $-1 $600 $581 $700 $757 reversed $517 $-1 #
vertex $-1 $667 $758 #
vertex $-1 $667 $759 #
ellipse-curve $-1 -0.75 -0.125 3 0 1 0 0.125 0 0 1 I I #
face $-1 $714 $684 $3 $-1 $760 reversed single #
plane-surface $-1 0.25 1.25 42.5 0 0 1 0 -1 0 forward_v I I I I #
coedge $-1 $589 $589 $761 $762 forward $508 $-1 #
coedge $-1 $608 $607 $589 $676 reversed $609 $-1 #
edge $-1 $763 0 $764 3.1415926535898215 $589 $765 forward 7 unknown #
coedge $-1 $591 $590 $625 $718 forward $415 $-1 #
coedge $-1 $616 $615 $590 $679 reversed $617 $-1 #
edge $-1 $686 0 $721 1 $590 $766 forward 7 unknown #
coedge $-1 $621 $620 $591 $681 reversed $622 $-1 #
edge $-1 $719 0 $685 1 $591 $767 forward 7 unknown #
coedge $-1 $613 $592 $620 $716 reversed $684 $-1 #
coedge $-1 $592 $613 $616 $713 forward $684 $-1 #
loop $-1 $-1 $683 $672 #
vertex $-1 $681 $768 #
vertex $-1 $679 $769 #
straight-curve $-1 0.125 0.25 42.5 0 0 -1 I I #
loop $-1 $-1 $743 $594 #
cone-surface $-1 -1.75 0.75 27 1 0 0 0 0.125 0 1 I I 0 1 0.125 forward I I I I #
loop $-1 $770 $771 $416 #
coedge $-1 $772 $772 $634 $731 forward $597 $-1 #
coedge $-1 $598 $598 $773 $774 forward $511 $-1 #
coedge $-1 $645 $644 $598 $694 reversed $595 $-1 #
edge $-1 $775 0 $776 3.14159265358985 $598 $777 forward 7 unknown #
coedge $-1 $700 $701 $599 $696 reversed $602 $-1 #
edge $-1 $698 0 $697 3.1415926535897931 $599 $778 forward 7 unknown #
vertex $-1 $696 $779 #
vertex $-1 $696 $780 #
ellipse-curve $-1 -0.75 -0.25 3 0 1 0 0.125 0 0 1 I I #
coedge $-1 $666 $695 $668 $757 forward $602 $-1 #
coedge $-1 $695 $666 $604 $702 reversed $602 $-1 #
edge $-1 $697 0 $669 0.125 $701 $781 forward 7 unknown #
coedge $-1 $761 $605 $608 $708 reversed $705 $-1 #
coedge $-1 $605 $761 $607 $707 forward $705 $-1 #
loop $-1 $-1 $703 $782 #
ellipse-curve $-1 0.25 0.75 15.000000000000002 1 0 0 0 0.125 -1.7763568394002505e-015 1 I I #
edge $-1 $764 0 $611 0.125 $704 $783 forward 7 unknown #
edge $-1 $763 0 $610 0.125 $703 $784 forward 7 unknown #
face $-1 $782 $609 $3 $-1 $785 reversed single #
point $-1 0.25 0.625 15 #
point $-1 0.25 0.875 15 #
straight-curve $-1 0.25 0.25 42.5 0 0 -1 I I #
edge $-1 $618 0 $686 0.125 $683 $786 forward 7 unknown #
face $-1 $709 $617 $3 $-1 $787 reversed single #
point $-1 0.25 0.25 41.5 #
edge $-1 $623 0 $685 0.125 $620 $788 forward 7 unknown #
point $-1 0.25 0.25 42.5 #
edge $-1 $721 0 $719 1 $677 $789 forward 7 unknown #
vertex $-1 $681 $790 #
straight-curve $-1 0.25 1.25 42.5 -1 0 0 I I #
vertex $-1 $718 $791 #
straight-curve $-1 0.25 1.25 41.5 -1 0 0 I I #
face $-1 $792 $793 $3 $-1 $794 reversed single #
loop $-1 $-1 $795 $630 #
cone-surface $-1 -1.75 0.75 21 1 0 0 0 0.125 0 1 I I 0 1 0.125 forward I I I I #
coedge $-1 $796 $738 $797 $798 reversed $631 $-1 #
coedge $-1 $636 $633 $772 $799 reversed $534 $-1 #
coedge $-1 $633 $636 $640 $740 forward $534 $-1 #
coedge $-1 $635 $634 $633 $730 forward $436 $-1 #
edge $-1 $800 0 $741 0.125 $633 $801 forward 7 unknown #
edge $-1 $800 0 $732 3.14159265358985 $691 $802 forward 7 unknown #
vertex $-1 $799 $803 #
vertex $-1 $740 $804 #
straight-curve $-1 0.125 0.875 24 1 0 0 I I #
loop $-1 $143 $805 $236 #
coedge $-1 $806 $806 $807 $808 reversed $638 $-1 #
coedge $-1 $639 $639 $809 $810 reversed $537 $-1 #
coedge $-1 $726 $811 $639 $739 forward $631 $-1 #
edge $-1 $812 0 $813 3.14159265358985 $639 $814 forward 7 unknown #
edge $-1 $733 0 $741 3.14159265358985 $640 $815 forward 7 unknown #
vertex $-1 $740 $816 #
ellipse-curve $-1 0.25 0.75 23.999999999999996 1 0 0 0 -0.125 3.5527136788005009e-015 1 I I #
coedge $-1 $773 $642 $645 $747 reversed $688 $-1 #
coedge $-1 $642 $773 $644 $746 forward $688 $-1 #
ellipse-curve $-1 0.25 0.75 27.000000000000004 1 0 0 0 0.125 -3.5527136788005009e-015 1 I I #
edge $-1 $776 0 $647 0.125 $744 $817 forward 7 unknown #
edge $-1 $775 0 $646 0.125 $743 $818 forward 7 unknown #
point $-1 0.25 0.625 27 #
point $-1 0.25 0.875 27 #
cone-surface $-1 -1.75 0.75 18 1 0 0 0 0.125 0 1 I I 0 1 0.125 forward I I I I #
edge $-1 $659 0 $657 3.14159265358985 $651 $819 forward 7 unknown #
ellipse-curve $-1 -1.625 0.75 17.999999999999996 1 0 0 0 -0.125 3.5527136788005009e-015 1 I I #
ellipse-curve $-1 -1.625 0.75 21.000000000000004 1 0 0 0 0.125 -3.5527136788005009e-015 1 I I #
point $-1 -1.625 0.625 18 #
point $-1 -1.625 0.875 18 #
ellipse-curve $-1 -0.75 -0.125 3 0 1 0 -0.125 0 0 1 I I #
edge $-1 $698 0 $670 0.125 $700 $820 forward 7 unknown #
point $-1 -0.625 -0.125 3 #
point $-1 -0.875 -0.125 3 #
plane-surface $-1 0.25 0.25 42.5 0 -1 0 0 0 -1 forward_v I I I I #
coedge $-1 $704 $703 $674 $762 reversed $705 $-1 #
edge $-1 $764 0 $763 3.1415926535898215 $674 $821 forward 7 unknown #
vertex $-1 $762 $822 #
vertex $-1 $762 $823 #
ellipse-curve $-1 0.125 0.75 14.999999999999998 1 0 0 0 -0.125 1.7763568394002505e-015 1 I I #
straight-curve $-1 0.125 0.25 41.5 0 1 0 I I #
straight-curve $-1 0.125 1.25 42.5 0 -1 0 I I #
point $-1 0.125 0.25 42.5 #
point $-1 0.125 0.25 41.5 #
loop $-1 $824 $825 $416 #
coedge $-1 $826 $826 $796 $827 forward $690 $-1 #
coedge $-1 $691 $691 $727 $799 forward $597 $-1 #
coedge $-1 $744 $743 $692 $774 reversed $688 $-1 #
edge $-1 $776 0 $775 3.14159265358985 $692 $828 forward 7 unknown #
vertex $-1 $774 $829 #
vertex $-1 $774 $830 #
ellipse-curve $-1 0.125 0.75 26.999999999999996 1 0 0 0 -0.125 3.5527136788005009e-015 1 I I #
ellipse-curve $-1 -0.75 -0.25 3 0 1 0 -0.125 0 0 1 I I #
point $-1 -0.625 -0.25 3 #
point $-1 -0.875 -0.25 3 #
straight-curve $-1 -0.625 -0.25 3 0 1 0 I I #
face $-1 $187 $705 $3 $-1 $831 reversed single #
straight-curve $-1 0.125 0.875 15 1 0 0 I I #
straight-curve $-1 0.125 0.625 15 1 0 0 I I #
cone-surface $-1 -1.75 0.75 15 1 0 0 0 0.125 0 1 I I 0 1 0.125 forward I I I I #
straight-curve $-1 0.25 0.25 41.5 -1 0 0 I I #
plane-surface $-1 0.25 0.25 41.5 0 0 -1 0 1 0 forward_v I I I I #
straight-curve $-1 0.25 0.25 42.5 -1 0 0 I I #
straight-curve $-1 0.125 1.25 41.5 0 0 1 I I #
point $-1 0.125 1.25 42.5 #
point $-1 0.125 1.25 41.5 #
face $-1 $832 $833 $3 $-1 $834 reversed single #
loop $-1 $-1 $835 $723 #
cone-surface $-1 -1.75 0.75 18 1 0 0 0 0.125 0 1 I I 0 1 0.125 forward I I I I #
coedge $-1 $836 $809 $811 $837 reversed $724 $-1 #
coedge $-1 $811 $726 $771 $827 reversed $631 $-1 #
coedge $-1 $809 $836 $726 $798 forward $724 $-1 #
edge $-1 $838 0 $813 0.125 $797 $839 forward 7 unknown #
edge $-1 $732 0 $800 3.14159265358985 $772 $840 forward 7 unknown #
vertex $-1 $799 $841 #
straight-curve $-1 0.125 0.625 24 1 0 0 I I #
ellipse-curve $-1 0.125 0.75 23.999999999999996 1 0 0 0 -0.125 3.5527136788005009e-015 1 I I #
point $-1 0.125 0.875 24 #
point $-1 0.25 0.875 24 #
coedge $-1 $842 $843 $844 $845 reversed $735 $-1 #
coedge $-1 $736 $736 $846 $847 reversed $638 $-1 #
coedge $-1 $835 $848 $736 $808 forward $793 $-1 #
edge $-1 $849 0 $850 3.14159265358985 $736 $851 forward 7 unknown #
coedge $-1 $795 $797 $737 $810 forward $724 $-1 #
edge $-1 $813 0 $812 3.14159265358985 $737 $852 forward 7 unknown #
coedge $-1 $738 $796 $795 $837 forward $631 $-1 #
vertex $-1 $810 $853 #
vertex $-1 $810 $854 #
ellipse-curve $-1 0.25 0.75 20.999999999999996 1 0 0 0 -0.125 3.5527136788005009e-015 1 I I #
ellipse-curve $-1 0.25 0.75 24.000000000000004 1 0 0 0 0.125 -3.5527136788005009e-015 1 I I #
point $-1 0.25 0.625 24 #
straight-curve $-1 0.125 0.875 27 1 0 0 I I #
straight-curve $-1 0.125 0.625 27 1 0 0 I I #
ellipse-curve $-1 -1.625 0.75 18.000000000000004 1 0 0 0 0.125 -3.5527136788005009e-015 1 I I #
straight-curve $-1 -0.875 -0.25 3 0 1 0 I I #
ellipse-curve $-1 0.125 0.75 15.000000000000002 1 0 0 0 0.125 -1.7763568394002505e-015 1 I I #
point $-1 0.125 0.625 15 #
point $-1 0.125 0.875 15 #
loop $-1 $309 $855 $416 #
coedge $-1 $856 $856 $857 $858 forward $770 $-1 #
coedge $-1 $771 $771 $836 $859 forward $690 $-1 #
edge $-1 $860 0 $838 3.14159265358985 $771 $861 forward 7 unknown #
ellipse-curve $-1 0.125 0.75 27.000000000000004 1 0 0 0 0.125 -3.5527136788005009e-015 1 I I #
point $-1 0.125 0.625 27 #
point $-1 0.125 0.875 27 #
cone-surface $-1 -1.75 0.75 15 1 0 0 0 0.125 0 1 I I 0 1 0.125 forward I I I I #
face $-1 $862 $863 $3 $-1 $864 reversed single #
loop $-1 $-1 $865 $792 #
cone-surface $-1 -1.75 0.75 18 1 0 0 0 0.125 0 1 I I 0 1 0.125 forward I I I I #
coedge $-1 $857 $807 $866 $867 reversed $793 $-1 #
coedge $-1 $797 $795 $826 $859 reversed $724 $-1 #
edge $-1 $860 0 $812 0.125 $795 $868 forward 7 unknown #
vertex $-1 $859 $869 #
straight-curve $-1 0.125 0.875 21 1 0 0 I I #
ellipse-curve $-1 0.125 0.75 24.000000000000004 1 0 0 0 0.125 -3.5527136788005009e-015 1 I I #
point $-1 0.125 0.625 24 #
coedge $-1 $870 $805 $871 $872 reversed $735 $-1 #
coedge $-1 $805 $870 $873 $874 reversed $735 $-1 #
coedge $-1 $875 $876 $805 $845 forward $863 $-1 #
edge $-1 $877 0 $878 1 $805 $879 forward 7 unknown #
coedge $-1 $865 $866 $806 $847 forward $833 $-1 #
edge $-1 $850 0 $849 3.14159265358985 $806 $880 forward 7 unknown #
coedge $-1 $807 $857 $865 $881 forward $793 $-1 #
vertex $-1 $847 $882 #
vertex $-1 $847 $883 #
ellipse-curve $-1 0.25 0.75 17.999999999999996 1 0 0 0 -0.125 3.5527136788005009e-015 1 I I #
ellipse-curve $-1 0.25 0.75 21.000000000000004 1 0 0 0 0.125 -3.5527136788005009e-015 1 I I #
point $-1 0.25 0.625 21 #
point $-1 0.25 0.875 21 #
coedge $-1 $884 $885 $886 $887 forward $824 $-1 #
coedge $-1 $825 $825 $888 $889 forward $770 $-1 #
coedge $-1 $848 $835 $825 $858 reversed $793 $-1 #
edge $-1 $890 0 $891 3.14159265358985 $825 $892 forward 7 unknown #
edge $-1 $838 0 $860 3.14159265358985 $826 $893 forward 7 unknown #
vertex $-1 $859 $894 #
ellipse-curve $-1 0.125 0.75 20.999999999999996 1 0 0 0 -0.125 3.5527136788005009e-015 1 I I #
face $-1 $895 $896 $3 $-1 $897 reversed single #
loop $-1 $-1 $875 $832 #
plane-surface $-1 0.25 1.25 29.5 0 1 0 0 0 1 forward_v I I I I #
coedge $-1 $888 $846 $848 $881 reversed $833 $-1 #
coedge $-1 $846 $888 $835 $867 forward $833 $-1 #
edge $-1 $891 0 $850 0.125 $866 $898 forward 7 unknown #
straight-curve $-1 0.125 0.625 21 1 0 0 I I #
point $-1 0.125 0.875 21 #
coedge $-1 $843 $842 $899 $900 reversed $735 $-1 #
coedge $-1 $901 $902 $842 $872 forward $903 $-1 #
edge $-1 $904 0 $877 1 $842 $905 forward 7 unknown #
coedge $-1 $906 $907 $843 $874 forward $896 $-1 #
edge $-1 $878 0 $908 1 $843 $909 forward 7 unknown #
coedge $-1 $910 $844 $907 $911 forward $863 $-1 #
coedge $-1 $844 $910 $901 $912 reversed $863 $-1 #
vertex $-1 $872 $913 #
vertex $-1 $874 $914 #
straight-curve $-1 0.25 1.25 29.5 0 0 1 I I #
ellipse-curve $-1 0.25 0.75 18.000000000000004 1 0 0 0 0.125 -3.5527136788005009e-015 1 I I #
edge $-1 $890 0 $849 0.125 $865 $915 forward 7 unknown #
point $-1 0.25 0.625 18 #
point $-1 0.25 0.875 18 #
coedge $-1 $916 $855 $917 $918 forward $824 $-1 #
coedge $-1 $855 $916 $919 $920 forward $824 $-1 #
coedge $-1 $921 $922 $855 $887 reversed $923 $-1 #
edge $-1 $924 0 $925 1 $855 $926 forward 7 unknown #
coedge $-1 $866 $865 $856 $889 reversed $833 $-1 #
edge $-1 $891 0 $890 3.14159265358985 $856 $927 forward 7 unknown #
vertex $-1 $889 $928 #
vertex $-1 $889 $929 #
ellipse-curve $-1 0.125 0.75 17.999999999999996 1 0 0 0 -0.125 3.5527136788005009e-015 1 I I #
ellipse-curve $-1 0.125 0.75 21.000000000000004 1 0 0 0 0.125 -3.5527136788005009e-015 1 I I #
point $-1 0.125 0.625 21 #
face $-1 $930 $923 $3 $-1 $931 reversed single #
loop $-1 $-1 $906 $862 #
plane-surface $-1 0.25 1.25 30.5 0 0 1 0 -1 0 forward_v I I I I #
straight-curve $-1 0.125 0.875 18 1 0 0 I I #
coedge $-1 $922 $921 $870 $900 forward $923 $-1 #
edge $-1 $908 0 $904 1 $870 $932 forward 7 unknown #
coedge $-1 $917 $871 $876 $912 forward $903 $-1 #
coedge $-1 $871 $917 $922 $933 reversed $903 $-1 #
loop $-1 $-1 $901 $930 #
vertex $-1 $900 $934 #
straight-curve $-1 0.25 0.25 29.5 0 1 0 I I #
coedge $-1 $919 $873 $921 $935 forward $896 $-1 #
coedge $-1 $873 $919 $875 $911 reversed $896 $-1 #
vertex $-1 $874 $936 #
straight-curve $-1 0.25 1.25 30.5 0 -1 0 I I #
coedge $-1 $876 $875 $916 $937 reversed $863 $-1 #
edge $-1 $878 0 $938 0.125 $907 $939 forward 7 unknown #
edge $-1 $877 0 $940 0.125 $901 $941 forward 7 unknown #
point $-1 0.25 1.25 29.5 #
point $-1 0.25 1.25 30.5 #
straight-curve $-1 0.125 0.625 18 1 0 0 I I #
coedge $-1 $885 $884 $910 $937 forward $824 $-1 #
coedge $-1 $902 $901 $884 $918 reversed $903 $-1 #
edge $-1 $925 0 $940 1 $884 $942 forward 7 unknown #
coedge $-1 $907 $906 $885 $920 reversed $896 $-1 #
edge $-1 $938 0 $924 1 $885 $943 forward 7 unknown #
coedge $-1 $899 $886 $906 $935 reversed $923 $-1 #
coedge $-1 $886 $899 $902 $933 forward $923 $-1 #
loop $-1 $-1 $922 $895 #
vertex $-1 $920 $944 #
vertex $-1 $918 $945 #
straight-curve $-1 0.125 0.25 30.5 0 0 -1 I I #
ellipse-curve $-1 0.125 0.75 18.000000000000004 1 0 0 0 0.125 -3.5527136788005009e-015 1 I I #
point $-1 0.125 0.625 18 #
point $-1 0.125 0.875 18 #
face $-1 $148 $903 $3 $-1 $946 reversed single #
plane-surface $-1 0.25 0.25 30.5 0 -1 0 0 0 -1 forward_v I I I I #
straight-curve $-1 0.25 0.25 30.5 0 0 -1 I I #
edge $-1 $904 0 $925 0.125 $922 $947 forward 7 unknown #
point $-1 0.25 0.25 29.5 #
edge $-1 $908 0 $924 0.125 $906 $948 forward 7 unknown #
point $-1 0.25 0.25 30.5 #
edge $-1 $940 0 $938 1 $916 $949 forward 7 unknown #
vertex $-1 $920 $950 #
straight-curve $-1 0.25 1.25 30.5 -1 0 0 I I #
vertex $-1 $937 $951 #
straight-curve $-1 0.25 1.25 29.5 -1 0 0 I I #
straight-curve $-1 0.125 0.25 29.5 0 1 0 I I #
straight-curve $-1 0.125 1.25 30.5 0 -1 0 I I #
point $-1 0.125 0.25 30.5 #
point $-1 0.125 0.25 29.5 #
plane-surface $-1 0.25 0.25 29.5 0 0 -1 0 1 0 forward_v I I I I #
straight-curve $-1 0.25 0.25 29.5 -1 0 0 I I #
straight-curve $-1 0.25 0.25 30.5 -1 0 0 I I #
straight-curve $-1 0.125 1.25 29.5 0 0 1 I I #
point $-1 0.125 1.25 30.5 #
point $-1 0.125 1.25 29.5 #
End-of-ACIS-data 