600 0 1 0           
93 GICL Pro/E ACIS Translator - Source: f:/data5/repository/PTC/V18/lrgasm18/guard_3.prt.2 - 6 0 13 ACIS 6.0.3 NT 24 Thu Apr 04 13:34:26 2002 
1 9.9999999999999995e-007 1e-010 
body $-1 $1 $-1 $2 #
lump $-1 $-1 $3 $0 #
transform $-1 1 0 0 0 1 0 0 0 1 0 0 0 25.399999999999999 no_rotate no_reflect no_shear #
shell $-1 $-1 $-1 $4 $-1 $1 #
face $-1 $5 $6 $3 $-1 $7 forward single #
face $-1 $8 $9 $3 $-1 $10 forward single #
loop $-1 $-1 $11 $4 #
plane-surface $-1 0 0 9 0 0 1 1 0 0 forward_v I I I I #
face $-1 $12 $13 $3 $-1 $14 forward single #
loop $-1 $-1 $15 $5 #
cone-surface $-1 0.27206955546343298 1.0249999999999999 9 0 0 -1 0 0.049999999999999996 0 1 I I 0 1 0.049999999999999996 forward I I I I #
coedge $-1 $16 $17 $15 $18 reversed $6 $-1 #
face $-1 $19 $20 $3 $-1 $21 forward single #
loop $-1 $-1 $22 $8 #
plane-surface $-1 0.37031369255153224 0.64215979071013374 9 0.99227787671366763 0.12403473458920865 0 -0.12403473458920863 0.99227787671366752 0 forward_v I I I I #
coedge $-1 $23 $24 $11 $18 forward $9 $-1 #
coedge $-1 $25 $11 $26 $27 forward $6 $-1 #
coedge $-1 $11 $28 $29 $30 forward $6 $-1 #
edge $-1 $31 0 $32 1.4464413322481233 $11 $33 forward 7 unknown #
face $-1 $34 $35 $3 $-1 $36 forward single #
loop $-1 $-1 $37 $12 #
plane-surface $-1 0.29589285179800717 0.63285718561594306 9 0.12403473458920901 -0.99227787671366763 0 0.99227787671366752 0.12403473458920899 0 forward_v I I I I #
coedge $-1 $38 $29 $39 $40 forward $13 $-1 #
coedge $-1 $41 $15 $42 $43 forward $9 $-1 #
coedge $-1 $15 $41 $44 $45 reversed $9 $-1 #
coedge $-1 $46 $16 $47 $48 forward $6 $-1 #
coedge $-1 $44 $49 $16 $27 reversed $50 $-1 #
edge $-1 $31 0 $51 0.19206955546343299 $16 $52 forward 7 unknown #
coedge $-1 $17 $53 $54 $55 forward $6 $-1 #
coedge $-1 $22 $42 $17 $30 reversed $13 $-1 #
edge $-1 $56 0 $32 0.39206955546343281 $17 $57 forward 7 unknown #
vertex $-1 $27 $58 #
vertex $-1 $30 $59 #
ellipse-curve $-1 0.27206955546343259 1.0249999999999997 9 0 0 -1 3.8857805861880479e-016 0.050000000000000266 0 1 I I #
face $-1 $60 $61 $3 $-1 $62 forward single #
loop $-1 $-1 $63 $19 #
plane-surface $-1 0.25 1 9 -0.99227787671366763 -0.12403473458920861 0 0.12403473458920859 -0.99227787671366752 0 forward_v I I I I #
coedge $-1 $64 $54 $65 $66 forward $20 $-1 #
coedge $-1 $42 $22 $67 $68 forward $13 $-1 #
coedge $-1 $54 $64 $22 $40 reversed $20 $-1 #
edge $-1 $56 0 $69 18 $22 $70 forward 7 unknown #
coedge $-1 $24 $23 $71 $72 reversed $9 $-1 #
coedge $-1 $29 $38 $23 $43 reversed $13 $-1 #
edge $-1 $32 0 $73 18 $42 $74 forward 7 unknown #
coedge $-1 $75 $26 $24 $45 forward $50 $-1 #
edge $-1 $31 0 $76 17.999999999999996 $44 $77 forward 7 unknown #
coedge $-1 $53 $25 $78 $79 forward $6 $-1 #
coedge $-1 $80 $81 $25 $48 reversed $82 $-1 #
edge $-1 $51 0 $83 0.074999999999999956 $25 $84 forward 7 unknown #
coedge $-1 $26 $75 $80 $85 reversed $50 $-1 #
loop $-1 $-1 $44 $86 #
vertex $-1 $48 $87 #
straight-curve $-1 0.27206955546343298 1.075 9 -1 0 0 I I #
coedge $-1 $28 $46 $88 $89 forward $6 $-1 #
coedge $-1 $37 $39 $28 $55 reversed $20 $-1 #
edge $-1 $90 0 $56 0.075000000000000011 $28 $91 forward 7 unknown #
vertex $-1 $30 $92 #
straight-curve $-1 0.37031369255153224 0.64215979071013374 9 -0.12403473458920861 0.99227787671366774 0 I I #
point $-1 0.27206955546343298 1.075 9 #
point $-1 0.32168344929911635 1.0312017367294604 9 #
face $-1 $86 $82 $3 $-1 $93 forward single #
loop $-1 $-1 $94 $34 #
plane-surface $-1 0.079999999999999988 1 9 0 -1 0 1 0 0 forward_v I I I I #
coedge $-1 $95 $88 $96 $97 forward $35 $-1 #
coedge $-1 $39 $37 $98 $99 forward $20 $-1 #
coedge $-1 $88 $95 $37 $66 reversed $35 $-1 #
edge $-1 $90 0 $100 18 $65 $101 forward 7 unknown #
coedge $-1 $98 $71 $38 $68 reversed $102 $-1 #
edge $-1 $69 0 $73 0.39206955546343281 $67 $103 forward 7 unknown #
vertex $-1 $68 $104 #
straight-curve $-1 0.37031369255153224 0.64215979071013374 9 0 0 -1 I I #
coedge $-1 $67 $105 $41 $72 forward $102 $-1 #
edge $-1 $76 0 $73 1.4464413322481233 $71 $106 forward 7 unknown #
vertex $-1 $68 $107 #
straight-curve $-1 0.32168344929911635 1.0312017367294604 9 0 0 -1 I I #
coedge $-1 $49 $44 $105 $108 forward $50 $-1 #
vertex $-1 $72 $109 #
straight-curve $-1 0.27206955546343298 1.075 9 0 0 -1 I I #
coedge $-1 $94 $96 $46 $79 reversed $61 $-1 #
edge $-1 $83 0 $110 0.17000000000000001 $46 $111 forward 7 unknown #
coedge $-1 $112 $47 $49 $85 forward $82 $-1 #
coedge $-1 $47 $112 $94 $113 reversed $82 $-1 #
loop $-1 $-1 $80 $60 #
vertex $-1 $79 $114 #
straight-curve $-1 0.079999999999999988 1.075 9 0 -1 0 I I #
edge $-1 $51 0 $115 18 $49 $116 forward 7 unknown #
face $-1 $117 $50 $3 $-1 $118 forward single #
point $-1 0.079999999999999988 1.075 9 #
coedge $-1 $63 $65 $53 $89 reversed $35 $-1 #
edge $-1 $110 0 $90 0.37 $53 $119 forward 7 unknown #
vertex $-1 $55 $120 #
straight-curve $-1 0.29589285179800717 0.63285718561594306 9 0.99227787671366752 0.12403473458920899 0 I I #
point $-1 0.37031369255153224 0.64215979071013374 9 #
plane-surface $-1 0.079999999999999988 1.075 9 -1 0 0 0 -1 0 forward_v I I I I #
coedge $-1 $121 $78 $81 $113 forward $61 $-1 #
coedge $-1 $65 $63 $122 $123 forward $35 $-1 #
coedge $-1 $78 $121 $63 $97 reversed $61 $-1 #
edge $-1 $110 0 $124 18 $96 $125 forward 7 unknown #
coedge $-1 $122 $67 $64 $99 reversed $102 $-1 #
edge $-1 $100 0 $69 0.075000000000000011 $98 $126 forward 7 unknown #
vertex $-1 $123 $127 #
straight-curve $-1 0.29589285179800717 0.63285718561594306 9 0 0 -1 I I #
loop $-1 $-1 $98 $117 #
straight-curve $-1 0.37031369255153224 0.64215979071013374 -9 -0.12403473458920861 0.99227787671366774 0 I I #
point $-1 0.37031369255153224 0.64215979071013374 -9 #
coedge $-1 $71 $128 $75 $108 reversed $102 $-1 #
ellipse-curve $-1 0.27206955546343259 1.0249999999999997 -9 5.5220263365470243e-028 7.105427357600964e-014 -1 3.8857805861880479e-016 0.050000000000000266 3.5527136788005009e-015 1 I I #
point $-1 0.32168344929911635 1.0312017367294604 -9 #
edge $-1 $76 0 $115 0.19206955546343299 $105 $129 forward 7 unknown #
point $-1 0.27206955546343298 1.075 -8.9999999999999964 #
vertex $-1 $89 $130 #
straight-curve $-1 0.079999999999999988 1 9 1 0 0 I I #
coedge $-1 $81 $80 $128 $131 forward $82 $-1 #
edge $-1 $83 0 $132 18 $81 $133 forward 7 unknown #
point $-1 0.079999999999999988 1 9 #
vertex $-1 $108 $134 #
straight-curve $-1 0.079999999999999988 1.075 9 0 0 -1 I I #
face $-1 $-1 $102 $3 $-1 $135 reversed single #
plane-surface $-1 0.31620866639029888 1.075 9 0 1 0 -1 0 0 forward_v I I I I #
straight-curve $-1 0.25 1 9 0.12403473458920859 -0.99227787671366752 0 I I #
point $-1 0.29589285179800717 0.63285718561594306 9 #
coedge $-1 $96 $94 $136 $137 forward $61 $-1 #
coedge $-1 $136 $98 $95 $123 reversed $102 $-1 #
edge $-1 $124 0 $100 0.37 $122 $138 forward 7 unknown #
vertex $-1 $137 $139 #
straight-curve $-1 0.25 1 9 0 0 -1 I I #
straight-curve $-1 0.29589285179800717 0.63285718561594306 -9 0.99227787671366752 0.12403473458920899 0 I I #
point $-1 0.29589285179800717 0.63285718561594306 -9 #
coedge $-1 $105 $136 $112 $131 reversed $102 $-1 #
straight-curve $-1 0.27206955546343298 1.075 -9 -1 0 0 I I #
point $-1 0.25 1 9 #
edge $-1 $115 0 $132 0.074999999999999956 $128 $140 forward 7 unknown #
vertex $-1 $131 $141 #
straight-curve $-1 0.079999999999999988 1 9 0 0 -1 I I #
point $-1 0.079999999999999988 1.075 -9 #
plane-surface $-1 0 0 -9 0 0 1 1 0 0 forward_v I I I I #
coedge $-1 $128 $122 $121 $137 reversed $102 $-1 #
edge $-1 $132 0 $124 0.17000000000000001 $136 $142 forward 7 unknown #
straight-curve $-1 0.25 1 -9 0.12403473458920859 -0.99227787671366752 0 I I #
point $-1 0.25 1 -9 #
straight-curve $-1 0.079999999999999988 1.075 -9 0 -1 0 I I #
point $-1 0.079999999999999988 1 -9 #
straight-curve $-1 0.079999999999999988 1 -9 1 0 0 I I #
End-of-ACIS-data 