600 0 1 0           
93 GICL Pro/E ACIS Translator - Source: f:/data5/repository/PTC/V18/lrgasm18/guide_3.prt.2 - 6 0 13 ACIS 6.0.3 NT 24 Thu Apr 04 13:34:32 2002 
1 9.9999999999999995e-007 1e-010 
body $-1 $1 $-1 $2 #
lump $-1 $-1 $3 $0 #
transform $-1 1 0 0 0 1 0 0 0 1 0 0 0 25.399999999999999 no_rotate no_reflect no_shear #
shell $-1 $-1 $-1 $4 $-1 $1 #
face $-1 $5 $6 $3 $-1 $7 reversed single #
face $-1 $8 $9 $3 $-1 $10 forward single #
loop $-1 $-1 $11 $4 #
plane-surface $-1 0 0 -9 0 0 1 1 0 0 forward_v I I I I #
face $-1 $12 $13 $3 $-1 $14 forward single #
loop $-1 $-1 $15 $5 #
plane-surface $-1 -0.25 1 -9 -0.99227787671366774 0.12403473458920847 0 -0.12403473458920847 -0.99227787671366774 0 forward_v I I I I #
coedge $-1 $16 $17 $18 $19 reversed $6 $-1 #
face $-1 $20 $21 $3 $-1 $22 forward single #
loop $-1 $23 $24 $8 #
plane-surface $-1 -0.375 0 -9 0 -1 0 1 0 0 forward_v I I I I #
coedge $-1 $25 $18 $26 $27 forward $9 $-1 #
coedge $-1 $28 $11 $29 $30 reversed $6 $-1 #
coedge $-1 $11 $28 $31 $32 reversed $6 $-1 #
coedge $-1 $15 $33 $11 $19 forward $9 $-1 #
edge $-1 $34 0 $35 1.0077822185373189 $11 $36 forward 7 unknown #
face $-1 $37 $38 $3 $-1 $39 forward single #
loop $-1 $-1 $40 $12 #
plane-surface $-1 0.375 0 -9 0.99227787671366774 0.12403473458920847 0 -0.12403473458920847 0.99227787671366774 0 forward_v I I I I #
loop $-1 $41 $42 $8 #
coedge $-1 $43 $31 $44 $45 forward $13 $-1 #
coedge $-1 $33 $15 $46 $47 reversed $9 $-1 #
coedge $-1 $31 $43 $15 $27 reversed $13 $-1 #
edge $-1 $35 0 $48 18 $26 $49 forward 7 unknown #
coedge $-1 $17 $16 $50 $51 reversed $6 $-1 #
coedge $-1 $52 $53 $16 $30 forward $38 $-1 #
edge $-1 $54 0 $34 0.5 $16 $55 forward 7 unknown #
coedge $-1 $24 $26 $17 $32 forward $13 $-1 #
edge $-1 $35 0 $56 0.75 $17 $57 forward 7 unknown #
coedge $-1 $18 $25 $52 $58 reversed $9 $-1 #
vertex $-1 $30 $59 #
vertex $-1 $32 $60 #
straight-curve $-1 -0.25 1 -9 -0.12403473458920847 -0.99227787671366774 0 I I #
face $-1 $61 $62 $3 $-1 $63 forward single #
loop $-1 $64 $52 $20 #
plane-surface $-1 0.25 1 -9 0 1 0 -1 0 0 forward_v I I I I #
coedge $-1 $65 $50 $53 $66 forward $21 $-1 #
loop $-1 $-1 $67 $8 #
coedge $-1 $68 $68 $69 $70 reversed $23 $-1 #
coedge $-1 $26 $24 $71 $72 reversed $13 $-1 #
coedge $-1 $50 $65 $24 $45 reversed $21 $-1 #
edge $-1 $56 0 $73 18 $24 $74 forward 7 unknown #
coedge $-1 $71 $75 $25 $47 forward $62 $-1 #
edge $-1 $76 0 $48 1.0077822185373189 $46 $77 forward 7 unknown #
vertex $-1 $72 $78 #
straight-curve $-1 -0.375 0 -9 0 0 1 I I #
coedge $-1 $40 $44 $28 $51 forward $21 $-1 #
edge $-1 $56 0 $54 1.0077822185373189 $28 $79 forward 7 unknown #
coedge $-1 $80 $29 $33 $58 forward $38 $-1 #
coedge $-1 $29 $80 $40 $66 reversed $38 $-1 #
vertex $-1 $51 $81 #
straight-curve $-1 0.25 1 -9 -1 0 0 I I #
vertex $-1 $32 $82 #
straight-curve $-1 -0.375 0 -9 1 0 0 I I #
edge $-1 $34 0 $76 18 $52 $83 forward 7 unknown #
point $-1 -0.25 1 -9 #
point $-1 -0.375 0 -9 #
face $-1 $84 $85 $3 $-1 $86 reversed single #
loop $-1 $-1 $87 $37 #
plane-surface $-1 0 0 9 0 0 1 1 0 0 forward_v I I I I #
loop $-1 $88 $89 $20 #
coedge $-1 $44 $40 $87 $90 reversed $21 $-1 #
edge $-1 $54 0 $91 18 $40 $92 forward 7 unknown #
coedge $-1 $93 $93 $94 $95 forward $41 $-1 #
coedge $-1 $42 $42 $96 $97 reversed $23 $-1 #
coedge $-1 $98 $99 $42 $70 forward $85 $-1 #
edge $-1 $100 0 $101 3.1415926535898087 $42 $102 forward 7 unknown #
coedge $-1 $87 $46 $43 $72 forward $62 $-1 #
edge $-1 $48 0 $73 0.75 $71 $103 forward 7 unknown #
vertex $-1 $72 $104 #
straight-curve $-1 0.375 0 -9 0 0 1 I I #
coedge $-1 $46 $87 $80 $105 forward $62 $-1 #
vertex $-1 $47 $106 #
straight-curve $-1 -0.25 1 9 -0.12403473458920847 -0.99227787671366774 0 I I #
point $-1 -0.375 0 9 #
straight-curve $-1 0.375 0 -9 -0.12403473458920847 0.99227787671366774 0 I I #
coedge $-1 $53 $52 $75 $105 reversed $38 $-1 #
point $-1 0.25 1 -9 #
point $-1 0.375 0 -9 #
straight-curve $-1 -0.25 1 -9 0 0 1 I I #
face $-1 $107 $108 $3 $-1 $109 reversed single #
loop $-1 $-1 $98 $61 #
cone-surface $-1 0 1 7 0 -1 0 0.22499999999999998 0 0 1 I I 0 1 0.22499999999999998 forward I I I I #
coedge $-1 $75 $71 $65 $90 forward $62 $-1 #
loop $-1 $-1 $110 $20 #
coedge $-1 $111 $111 $112 $113 forward $64 $-1 #
edge $-1 $73 0 $91 1.0077822185373189 $87 $114 forward 7 unknown #
vertex $-1 $105 $115 #
straight-curve $-1 0.25 1 -9 0 0 1 I I #
coedge $-1 $67 $67 $116 $117 forward $41 $-1 #
coedge $-1 $118 $119 $67 $95 reversed $120 $-1 #
edge $-1 $121 0 $122 3.1415926535897931 $67 $123 forward 7 unknown #
coedge $-1 $124 $125 $68 $97 forward $108 $-1 #
edge $-1 $101 0 $100 3.1415926535897776 $68 $126 forward 7 unknown #
coedge $-1 $112 $69 $125 $127 reversed $85 $-1 #
coedge $-1 $69 $112 $124 $128 forward $85 $-1 #
vertex $-1 $97 $129 #
vertex $-1 $97 $130 #
ellipse-curve $-1 0 0 6.9999999999999982 0 -1 0 -0.22500000000000001 0 1.7763568394002505e-015 1 I I #
straight-curve $-1 -0.375 0 9 1 0 0 I I #
point $-1 0.375 0 9 #
edge $-1 $91 0 $76 0.5 $75 $131 forward 7 unknown #
point $-1 -0.25 1 9 #
face $-1 $132 $120 $3 $-1 $133 reversed single #
loop $-1 $-1 $124 $84 #
cone-surface $-1 0 1 7 0 -1 0 0.22499999999999998 0 0 1 I I 0 1 0.22499999999999998 forward I I I I #
coedge $-1 $134 $134 $135 $136 reversed $88 $-1 #
coedge $-1 $89 $89 $137 $138 forward $64 $-1 #
coedge $-1 $99 $98 $89 $113 reversed $85 $-1 #
edge $-1 $139 0 $140 3.1415926535897931 $89 $141 forward 7 unknown #
straight-curve $-1 0.375 0 9 -0.12403473458920847 0.99227787671366774 0 I I #
point $-1 0.25 1 9 #
coedge $-1 $142 $143 $93 $117 reversed $144 $-1 #
edge $-1 $122 0 $121 3.1415926535897931 $93 $145 forward 7 unknown #
coedge $-1 $135 $94 $143 $146 reversed $120 $-1 #
coedge $-1 $94 $135 $142 $147 forward $120 $-1 #
loop $-1 $-1 $118 $107 #
vertex $-1 $117 $148 #
vertex $-1 $117 $149 #
ellipse-curve $-1 0 0 -7 0 1 0 -0.22500000000000001 0 0 1 I I #
coedge $-1 $137 $96 $99 $128 reversed $108 $-1 #
coedge $-1 $96 $137 $98 $127 forward $108 $-1 #
ellipse-curve $-1 0 0 6.9999999999999982 0 -1 0 0.22499999999999998 0 1.7763568394002505e-015 1 I I #
edge $-1 $140 0 $101 1 $125 $150 forward 7 unknown #
edge $-1 $139 0 $100 1 $124 $151 forward 7 unknown #
point $-1 -0.22500000000000001 0 7 #
point $-1 0.22499999999999998 0 7 #
straight-curve $-1 0.25 1 9 -1 0 0 I I #
face $-1 $-1 $144 $3 $-1 $152 reversed single #
cone-surface $-1 0 1 -7 0 1 0 0.22499999999999998 0 0 1 I I 0 1 0.22499999999999998 forward I I I I #
coedge $-1 $110 $110 $153 $154 reversed $88 $-1 #
coedge $-1 $119 $118 $110 $136 forward $120 $-1 #
edge $-1 $155 0 $156 3.1415926535897931 $110 $157 forward 7 unknown #
coedge $-1 $125 $124 $111 $138 reversed $108 $-1 #
edge $-1 $140 0 $139 3.1415926535897931 $111 $158 forward 7 unknown #
vertex $-1 $138 $159 #
vertex $-1 $138 $160 #
ellipse-curve $-1 0 1 7 0 -1 0 -0.22499999999999998 0 0 1 I I #
coedge $-1 $153 $116 $119 $147 reversed $144 $-1 #
coedge $-1 $116 $153 $118 $146 forward $144 $-1 #
loop $-1 $-1 $142 $132 #
ellipse-curve $-1 0 0 -7 0 1 0 0.22499999999999998 0 0 1 I I #
edge $-1 $155 0 $121 1 $143 $161 forward 7 unknown #
edge $-1 $156 0 $122 1 $142 $162 forward 7 unknown #
point $-1 -0.22500000000000001 0 -7 #
point $-1 0.22499999999999998 0 -7 #
straight-curve $-1 0.22499999999999998 1 7 0 -1 0 I I #
straight-curve $-1 -0.22499999999999998 1 7 0 -1 0 I I #
cone-surface $-1 0 1 -7 0 1 0 0.22499999999999998 0 0 1 I I 0 1 0.22499999999999998 forward I I I I #
coedge $-1 $143 $142 $134 $154 forward $144 $-1 #
edge $-1 $156 0 $155 3.1415926535897931 $134 $163 forward 7 unknown #
vertex $-1 $154 $164 #
vertex $-1 $154 $165 #
ellipse-curve $-1 0 1 -7 0 1 0 -0.22499999999999998 0 0 1 I I #
ellipse-curve $-1 0 1 7 0 -1 0 0.22499999999999998 0 0 1 I I #
point $-1 -0.22499999999999998 1 7 #
point $-1 0.22499999999999998 1 7 #
straight-curve $-1 -0.22499999999999998 1 -7 0 -1 0 I I #
straight-curve $-1 0.22499999999999998 1 -7 0 -1 0 I I #
ellipse-curve $-1 0 1 -7 0 1 0 0.22499999999999998 0 0 1 I I #
point $-1 -0.22499999999999998 1 -7 #
point $-1 0.22499999999999998 1 -7 #
End-of-ACIS-data 