600 0 1 0           
98 GICL Pro/E ACIS Translator - Source: f:/data5/repository/PTC/V18/lrgasm18/junction_box.prt.2 - 6 0 13 ACIS 6.0.3 NT 24 Thu Apr 04 13:34:35 2002 
1 9.9999999999999995e-007 1e-010 
body $-1 $1 $-1 $2 #
lump $-1 $-1 $3 $0 #
transform $-1 1 0 0 0 1 0 0 0 1 0 0 0 25.399999999999999 no_rotate no_reflect no_shear #
shell $-1 $-1 $-1 $4 $-1 $1 #
face $-1 $5 $6 $3 $-1 $7 reversed single #
face $-1 $8 $9 $3 $-1 $10 forward single #
loop $-1 $-1 $11 $4 #
plane-surface $-1 0 0 0 0 0 1 1 0 0 forward_v I I I I #
face $-1 $12 $13 $3 $-1 $14 forward single #
loop $-1 $15 $16 $5 #
plane-surface $-1 1.1843835023555567 2 0 0 1 0 -1 0 0 forward_v I I I I #
coedge $-1 $17 $18 $19 $20 reversed $6 $-1 #
face $-1 $21 $22 $3 $-1 $23 forward single #
loop $-1 $-1 $24 $8 #
plane-surface $-1 -1.3156164976444433 2 0 -0.76604444311897812 0.64278760968653936 0 -0.64278760968653925 -0.7660444431189779 0 forward_v I I I I #
loop $-1 $-1 $25 $5 #
coedge $-1 $26 $19 $27 $28 forward $9 $-1 #
coedge $-1 $29 $11 $30 $31 reversed $6 $-1 #
coedge $-1 $11 $32 $33 $34 reversed $6 $-1 #
coedge $-1 $16 $35 $11 $20 forward $9 $-1 #
edge $-1 $36 0 $37 2.5 $11 $38 forward 7 unknown #
face $-1 $39 $40 $3 $-1 $41 forward single #
loop $-1 $42 $43 $12 #
plane-surface $-1 -2 1.1843835023555573 0 -1 0 0 0 -1 0 forward_v I I I I #
coedge $-1 $44 $33 $45 $46 forward $13 $-1 #
coedge $-1 $47 $47 $48 $49 forward $15 $-1 #
coedge $-1 $35 $16 $50 $51 reversed $9 $-1 #
coedge $-1 $33 $44 $16 $28 reversed $13 $-1 #
edge $-1 $37 0 $52 2.5 $27 $53 forward 7 unknown #
coedge $-1 $54 $17 $55 $56 reversed $6 $-1 #
coedge $-1 $57 $58 $17 $31 forward $59 $-1 #
edge $-1 $60 0 $36 1.0647117213247199 $17 $61 forward 7 unknown #
coedge $-1 $18 $62 $63 $64 reversed $6 $-1 #
coedge $-1 $24 $27 $18 $34 forward $13 $-1 #
edge $-1 $37 0 $65 1.0647117213247186 $18 $66 forward 7 unknown #
coedge $-1 $19 $26 $57 $67 reversed $9 $-1 #
vertex $-1 $31 $68 #
vertex $-1 $34 $69 #
straight-curve $-1 1.1843835023555567 2 0 -1 0 0 I I #
face $-1 $70 $71 $3 $-1 $72 forward single #
loop $-1 $-1 $73 $21 #
plane-surface $-1 -2 -1.3156164976444427 0 -0.64278760968653947 -0.7660444431189779 0 0.7660444431189779 -0.64278760968653947 0 forward_v I I I I #
loop $-1 $-1 $74 $12 #
coedge $-1 $75 $63 $76 $77 forward $22 $-1 #
coedge $-1 $27 $24 $78 $79 reversed $13 $-1 #
coedge $-1 $63 $75 $24 $46 reversed $22 $-1 #
edge $-1 $65 0 $80 2.5 $24 $81 forward 7 unknown #
coedge $-1 $25 $25 $82 $83 forward $15 $-1 #
coedge $-1 $84 $85 $25 $49 reversed $86 $-1 #
edge $-1 $87 0 $88 3.1415926535897931 $25 $89 forward 7 unknown #
coedge $-1 $78 $90 $26 $51 forward $91 $-1 #
edge $-1 $92 0 $52 2.5 $26 $93 forward 7 unknown #
vertex $-1 $28 $94 #
straight-curve $-1 -1.3156164976444433 2 0 0 0 1 I I #
coedge $-1 $95 $29 $96 $97 reversed $6 $-1 #
coedge $-1 $98 $99 $29 $56 forward $100 $-1 #
edge $-1 $101 0 $60 2.5 $29 $102 forward 7 unknown #
coedge $-1 $103 $30 $35 $67 forward $59 $-1 #
coedge $-1 $30 $103 $98 $104 reversed $59 $-1 #
loop $-1 $-1 $57 $105 #
vertex $-1 $56 $106 #
straight-curve $-1 2 1.3156164976444427 0 -0.7660444431189779 0.64278760968653936 0 I I #
coedge $-1 $32 $95 $107 $108 reversed $6 $-1 #
coedge $-1 $43 $45 $32 $64 forward $22 $-1 #
edge $-1 $65 0 $109 2.5 $32 $110 forward 7 unknown #
vertex $-1 $34 $111 #
straight-curve $-1 -1.3156164976444433 2 0 -0.64278760968653925 -0.76604444311897812 0 I I #
edge $-1 $36 0 $92 2.5 $57 $112 forward 7 unknown #
point $-1 1.1843835023555567 2 0 #
point $-1 -1.3156164976444433 2 0 #
face $-1 $113 $114 $3 $-1 $115 forward single #
loop $-1 $116 $117 $39 #
plane-surface $-1 -1.1843835023555569 -2 0 0 -1 0 1 0 0 forward_v I I I I #
coedge $-1 $118 $107 $119 $120 forward $40 $-1 #
coedge $-1 $121 $121 $122 $123 reversed $42 $-1 #
coedge $-1 $45 $43 $124 $125 reversed $22 $-1 #
coedge $-1 $107 $118 $43 $77 reversed $40 $-1 #
edge $-1 $109 0 $126 2.5 $43 $127 forward 7 unknown #
coedge $-1 $124 $50 $44 $79 forward $91 $-1 #
edge $-1 $52 0 $80 1.0647117213247186 $44 $128 forward 7 unknown #
vertex $-1 $79 $129 #
straight-curve $-1 -2 1.1843835023555571 0 0 0 1 I I #
coedge $-1 $130 $131 $47 $83 reversed $132 $-1 #
edge $-1 $88 0 $87 3.1415926535897931 $47 $133 forward 7 unknown #
coedge $-1 $134 $48 $131 $135 forward $86 $-1 #
coedge $-1 $48 $134 $130 $136 reversed $86 $-1 #
loop $-1 $-1 $84 $137 #
vertex $-1 $83 $138 #
vertex $-1 $83 $139 #
ellipse-curve $-1 0 2 1 0 -1 0 -0.5 0 0 1 I I #
coedge $-1 $50 $140 $103 $141 forward $91 $-1 #
loop $-1 $142 $124 $143 #
vertex $-1 $141 $144 #
straight-curve $-1 1.1843835023555567 2 2.5 -1 0 0 I I #
point $-1 -1.3156164976444433 2 2.5 #
coedge $-1 $62 $54 $145 $146 reversed $6 $-1 #
coedge $-1 $147 $148 $54 $97 forward $114 $-1 #
edge $-1 $149 0 $101 1.0647117213247188 $54 $150 forward 7 unknown #
coedge $-1 $151 $55 $58 $104 forward $100 $-1 #
coedge $-1 $55 $151 $147 $152 reversed $100 $-1 #
loop $-1 $153 $98 $113 #
vertex $-1 $97 $154 #
straight-curve $-1 2 -1.1843835023555573 0 0 1 0 I I #
coedge $-1 $58 $57 $90 $141 reversed $59 $-1 #
edge $-1 $60 0 $155 2.5 $98 $156 forward 7 unknown #
face $-1 $143 $59 $3 $-1 $157 forward single #
point $-1 2 1.3156164976444427 0 #
coedge $-1 $73 $76 $62 $108 forward $40 $-1 #
edge $-1 $109 0 $158 1.0647117213247195 $62 $159 forward 7 unknown #
vertex $-1 $64 $160 #
straight-curve $-1 -2 1.1843835023555573 0 0 -1 0 I I #
point $-1 -2 1.1843835023555573 0 #
straight-curve $-1 1.1843835023555567 2 0 0 0 1 I I #
face $-1 $105 $100 $3 $-1 $161 forward single #
loop $-1 $-1 $147 $70 #
plane-surface $-1 1.3156164976444431 -2 0 0.7660444431189779 -0.64278760968653947 0 0.64278760968653947 0.7660444431189779 0 forward_v I I I I #
loop $-1 $-1 $162 $39 #
coedge $-1 $163 $145 $148 $164 forward $71 $-1 #
coedge $-1 $76 $73 $165 $166 reversed $40 $-1 #
coedge $-1 $145 $163 $73 $120 reversed $71 $-1 #
edge $-1 $158 0 $167 2.5 $73 $168 forward 7 unknown #
coedge $-1 $74 $74 $169 $170 reversed $42 $-1 #
coedge $-1 $171 $172 $74 $123 forward $173 $-1 #
edge $-1 $174 0 $175 3.1415926535897931 $74 $176 forward 7 unknown #
coedge $-1 $165 $78 $75 $125 forward $91 $-1 #
edge $-1 $80 0 $126 2.5 $75 $177 forward 7 unknown #
vertex $-1 $125 $178 #
straight-curve $-1 -2 -1.3156164976444427 0 0 0 1 I I #
straight-curve $-1 -1.3156164976444433 2 2.5 -0.64278760968653925 -0.76604444311897812 0 I I #
point $-1 -2 1.1843835023555573 2.5 #
coedge $-1 $179 $82 $85 $136 forward $132 $-1 #
coedge $-1 $82 $179 $84 $135 reversed $132 $-1 #
loop $-1 $-1 $130 $180 #
ellipse-curve $-1 0 2 1 0 -1 0 0.5 0 0 1 I I #
coedge $-1 $85 $84 $181 $182 forward $86 $-1 #
edge $-1 $87 0 $183 0.10000000000000009 $131 $184 forward 7 unknown #
edge $-1 $88 0 $185 0.10000000000000009 $130 $186 forward 7 unknown #
face $-1 $180 $86 $3 $-1 $187 reversed single #
point $-1 -0.5 2 1 #
point $-1 0.5 2 1 #
coedge $-1 $90 $188 $151 $189 forward $91 $-1 #
edge $-1 $155 0 $92 1.0647117213247199 $103 $190 forward 7 unknown #
loop $-1 $-1 $191 $143 #
face $-1 $192 $91 $3 $-1 $193 forward single #
point $-1 1.1843835023555567 2 2.5 #
coedge $-1 $117 $119 $95 $146 forward $71 $-1 #
edge $-1 $158 0 $149 2.5 $95 $194 forward 7 unknown #
coedge $-1 $195 $96 $99 $152 forward $114 $-1 #
coedge $-1 $96 $195 $117 $164 reversed $114 $-1 #
vertex $-1 $146 $196 #
straight-curve $-1 1.3156164976444431 -2 0 0.64278760968653947 0.7660444431189779 0 I I #
coedge $-1 $99 $98 $140 $189 reversed $100 $-1 #
edge $-1 $101 0 $197 2.5 $147 $198 forward 7 unknown #
loop $-1 $-1 $199 $113 #
point $-1 2 -1.1843835023555573 0 #
vertex $-1 $189 $200 #
straight-curve $-1 2 1.3156164976444427 0 0 0 1 I I #
plane-surface $-1 2 1.3156164976444427 0 0.64278760968653947 0.76604444311897801 0 -0.7660444431189779 0.64278760968653936 0 forward_v I I I I #
vertex $-1 $108 $201 #
straight-curve $-1 -2 -1.3156164976444427 0 0.7660444431189779 -0.64278760968653947 0 I I #
point $-1 -2 -1.3156164976444427 0 #
plane-surface $-1 2 -1.1843835023555573 0 1 0 0 0 1 0 forward_v I I I I #
coedge $-1 $202 $202 $203 $204 reversed $116 $-1 #
coedge $-1 $119 $117 $205 $206 reversed $71 $-1 #
edge $-1 $149 0 $207 2.5 $117 $208 forward 7 unknown #
coedge $-1 $205 $124 $118 $166 forward $91 $-1 #
edge $-1 $126 0 $167 1.0647117213247195 $118 $209 forward 7 unknown #
vertex $-1 $166 $210 #
straight-curve $-1 -1.1843835023555569 -2 0 0 0 1 I I #
coedge $-1 $211 $212 $121 $170 forward $213 $-1 #
edge $-1 $175 0 $174 3.1415926535897931 $121 $214 forward 7 unknown #
coedge $-1 $215 $122 $212 $216 reversed $173 $-1 #
coedge $-1 $122 $215 $211 $217 forward $173 $-1 #
loop $-1 $-1 $171 $218 #
vertex $-1 $170 $219 #
vertex $-1 $170 $220 #
ellipse-curve $-1 -2 0 1 -1 0 0 0 0.5 0 1 I I #
straight-curve $-1 -2 1.1843835023555573 2.5 0 -1 0 I I #
point $-1 -2 -1.3156164976444427 2.5 #
coedge $-1 $131 $130 $221 $222 forward $132 $-1 #
face $-1 $-1 $132 $3 $-1 $223 reversed single #
coedge $-1 $221 $221 $134 $182 reversed $224 $-1 #
edge $-1 $183 0 $185 3.1415926535897931 $181 $225 forward 7 unknown #
vertex $-1 $222 $226 #
straight-curve $-1 -0.5 2 1 0 -1 0 I I #
vertex $-1 $222 $227 #
straight-curve $-1 0.5 2 1 0 -1 0 I I #
cone-surface $-1 0 2 1 0 -1 0 0.5 0 0 1 I I 0 1 0.5 forward I I I I #
coedge $-1 $140 $205 $195 $228 forward $91 $-1 #
edge $-1 $197 0 $155 2.5 $151 $229 forward 7 unknown #
straight-curve $-1 2 1.3156164976444427 2.5 -0.7660444431189779 0.64278760968653936 0 I I #
coedge $-1 $230 $231 $232 $233 reversed $142 $-1 #
face $-1 $234 $235 $3 $-1 $236 reversed single #
plane-surface $-1 0 0 2.5 0 0 1 1 0 0 forward_v I I I I #
straight-curve $-1 -1.1843835023555569 -2 0 1 0 0 I I #
coedge $-1 $148 $147 $188 $228 reversed $114 $-1 #
point $-1 1.3156164976444431 -2 0 #
vertex $-1 $228 $237 #
straight-curve $-1 2 -1.1843835023555573 0 0 0 1 I I #
coedge $-1 $238 $238 $239 $240 forward $153 $-1 #
point $-1 2 1.3156164976444427 2.5 #
point $-1 -1.1843835023555569 -2 0 #
coedge $-1 $162 $162 $241 $242 reversed $116 $-1 #
coedge $-1 $243 $244 $162 $204 forward $245 $-1 #
edge $-1 $246 0 $247 3.1415926535897931 $162 $248 forward 7 unknown #
coedge $-1 $188 $165 $163 $206 forward $91 $-1 #
edge $-1 $167 0 $207 2.5 $163 $249 forward 7 unknown #
vertex $-1 $206 $250 #
straight-curve $-1 1.3156164976444431 -2 0 0 0 1 I I #
straight-curve $-1 -2 -1.3156164976444427 2.5 0.7660444431189779 -0.64278760968653947 0 I I #
point $-1 -1.1843835023555569 -2 2.5 #
coedge $-1 $251 $169 $172 $217 reversed $213 $-1 #
coedge $-1 $169 $251 $171 $216 forward $213 $-1 #
loop $-1 $-1 $211 $252 #
ellipse-curve $-1 -2 0 1 -1 0 0 0 -0.5 0 1 I I #
coedge $-1 $172 $171 $253 $254 reversed $173 $-1 #
edge $-1 $255 0 $175 0.10000000000000009 $212 $256 forward 7 unknown #
edge $-1 $257 0 $174 0.10000000000000009 $211 $258 forward 7 unknown #
face $-1 $252 $173 $3 $-1 $259 reversed single #
point $-1 -2 0.5 1 #
point $-1 -2 -0.5 1 #
coedge $-1 $181 $181 $179 $222 reversed $224 $-1 #
edge $-1 $185 0 $183 3.1415926535897931 $221 $260 forward 7 unknown #
cone-surface $-1 0 2 1 0 -1 0 0.5 0 0 1 I I 0 1 0.5 forward I I I I #
loop $-1 $-1 $181 $192 #
ellipse-curve $-1 0 1.8999999999999999 1 0 -1 0 -0.5 0 0 1 I I #
point $-1 -0.5 1.8999999999999999 1 #
point $-1 0.5 1.8999999999999999 1 #
edge $-1 $207 0 $197 1.0647117213247188 $195 $261 forward 7 unknown #
straight-curve $-1 2 -1.1843835023555573 2.5 0 1 0 I I #
coedge $-1 $262 $191 $263 $264 reversed $142 $-1 #
coedge $-1 $191 $265 $266 $267 reversed $142 $-1 #
coedge $-1 $268 $269 $191 $233 forward $235 $-1 #
edge $-1 $270 0 $271 2.4169722107578799 $191 $272 forward 7 unknown #
face $-1 $273 $274 $3 $-1 $275 reversed single #
loop $-1 $224 $269 $192 #
plane-surface $-1 1.1843835023555567 1.8999999999999999 0 0 1 0 -1 0 0 forward_v I I I I #
point $-1 2 -1.1843835023555573 2.5 #
coedge $-1 $199 $199 $276 $277 forward $153 $-1 #
coedge $-1 $278 $279 $199 $240 reversed $280 $-1 #
edge $-1 $281 0 $282 3.1415926535897931 $199 $283 forward 7 unknown #
coedge $-1 $284 $285 $202 $242 forward $286 $-1 #
edge $-1 $247 0 $246 3.1415926535897931 $202 $287 forward 7 unknown #
coedge $-1 $288 $203 $285 $289 reversed $245 $-1 #
coedge $-1 $203 $288 $284 $290 forward $245 $-1 #
loop $-1 $-1 $243 $291 #
vertex $-1 $242 $292 #
vertex $-1 $242 $293 #
ellipse-curve $-1 0 -2 1 0 -1 0 -0.5 0 0 1 I I #
straight-curve $-1 -1.1843835023555569 -2 2.5 1 0 0 I I #
point $-1 1.3156164976444431 -2 2.5 #
coedge $-1 $212 $211 $294 $295 reversed $213 $-1 #
face $-1 $291 $213 $3 $-1 $296 reversed single #
coedge $-1 $294 $294 $215 $254 forward $297 $-1 #
edge $-1 $257 0 $255 3.1415926535897931 $253 $298 forward 7 unknown #
vertex $-1 $295 $299 #
straight-curve $-1 -1.8999999999999999 -0.5 1 -1 0 0 I I #
vertex $-1 $295 $300 #
straight-curve $-1 -1.8999999999999999 0.5 1 -1 0 0 I I #
cone-surface $-1 2 0 1 -1 0 0 0 -0.5 0 1 I I 0 1 0.5 forward I I I I #
ellipse-curve $-1 0 1.8999999999999999 1 0 -1 0 0.5 0 0 1 I I #
straight-curve $-1 1.3156164976444431 -2 2.5 0.64278760968653947 0.7660444431189779 0 I I #
coedge $-1 $301 $230 $302 $303 reversed $142 $-1 #
coedge $-1 $304 $305 $230 $264 forward $274 $-1 #
edge $-1 $306 0 $270 0.98168393208259919 $230 $307 forward 7 unknown #
coedge $-1 $231 $308 $309 $310 reversed $142 $-1 #
coedge $-1 $311 $312 $231 $267 forward $313 $-1 #
edge $-1 $271 0 $314 0.9816839320825983 $231 $315 forward 7 unknown #
coedge $-1 $316 $232 $312 $317 reversed $235 $-1 #
coedge $-1 $232 $316 $304 $318 forward $235 $-1 #
vertex $-1 $264 $319 #
vertex $-1 $267 $320 #
straight-curve $-1 1.1479864789289367 1.8999999999999999 2.5 -1 0 0 I I #
face $-1 $321 $322 $3 $-1 $323 reversed single #
loop $-1 $-1 $305 $234 #
plane-surface $-1 1.9357212390313461 1.2390120533325448 0 0.64278760968653947 0.76604444311897801 0 -0.7660444431189779 0.64278760968653936 0 forward_v I I I I #
coedge $-1 $324 $325 $238 $277 reversed $326 $-1 #
edge $-1 $282 0 $281 3.1415926535897931 $238 $327 forward 7 unknown #
coedge $-1 $328 $239 $325 $329 forward $280 $-1 #
coedge $-1 $239 $328 $324 $330 reversed $280 $-1 #
loop $-1 $-1 $278 $331 #
vertex $-1 $277 $332 #
vertex $-1 $277 $333 #
ellipse-curve $-1 2 0 1 -1 0 0 0 0.5 0 1 I I #
coedge $-1 $334 $241 $244 $290 reversed $286 $-1 #
coedge $-1 $241 $334 $243 $289 forward $286 $-1 #
loop $-1 $-1 $284 $335 #
ellipse-curve $-1 0 -2 1 0 -1 0 0.5 0 0 1 I I #
coedge $-1 $244 $243 $336 $337 reversed $245 $-1 #
edge $-1 $338 0 $247 0.10000000000000009 $285 $339 forward 7 unknown #
edge $-1 $340 0 $246 0.10000000000000009 $284 $341 forward 7 unknown #
face $-1 $335 $245 $3 $-1 $342 reversed single #
point $-1 -0.5 -2 1 #
point $-1 0.5 -2 1 #
coedge $-1 $253 $253 $251 $295 forward $297 $-1 #
edge $-1 $255 0 $257 3.1415926535897931 $294 $343 forward 7 unknown #
cone-surface $-1 2 0 1 -1 0 0 0 -0.5 0 1 I I 0 1 0.5 forward I I I I #
loop $-1 $-1 $253 $344 #
ellipse-curve $-1 -1.8999999999999999 0 1 -1 0 0 0 0.5 0 1 I I #
point $-1 -1.8999999999999999 -0.5 1 #
point $-1 -1.8999999999999999 0.5 1 #
coedge $-1 $345 $262 $346 $347 reversed $142 $-1 #
coedge $-1 $348 $349 $262 $303 forward $322 $-1 #
edge $-1 $350 0 $306 2.4169722107578799 $262 $351 forward 7 unknown #
coedge $-1 $352 $263 $269 $318 reversed $274 $-1 #
coedge $-1 $263 $352 $348 $353 forward $274 $-1 #
vertex $-1 $303 $354 #
straight-curve $-1 1.8999999999999999 1.2689857318289428 2.5 -0.7660444431189779 0.64278760968653947 0 I I #
coedge $-1 $265 $345 $355 $356 reversed $142 $-1 #
coedge $-1 $357 $358 $265 $310 forward $359 $-1 #
edge $-1 $314 0 $360 2.4169722107578799 $265 $361 forward 7 unknown #
coedge $-1 $362 $266 $358 $363 reversed $313 $-1 #
coedge $-1 $266 $362 $268 $317 forward $313 $-1 #
loop $-1 $-1 $312 $364 #
vertex $-1 $267 $365 #
straight-curve $-1 -1.2689857318289435 1.8999999999999999 2.5 -0.64278760968653947 -0.76604444311897801 0 I I #
coedge $-1 $269 $268 $366 $367 reversed $235 $-1 #
edge $-1 $368 0 $271 2.3999999999999999 $312 $369 forward 7 unknown #
edge $-1 $370 0 $270 2.3999999999999999 $304 $371 forward 7 unknown #
point $-1 1.1479864789289367 1.8999999999999999 2.5 #
point $-1 -1.2689857318289435 1.8999999999999999 2.5 #
face $-1 $372 $373 $3 $-1 $374 reversed single #
loop $-1 $375 $349 $273 #
plane-surface $-1 1.8999999999999999 -1.1843835023555573 0 1 0 0 0 1 0 forward_v I I I I #
coedge $-1 $376 $276 $279 $330 forward $326 $-1 #
coedge $-1 $276 $376 $278 $329 reversed $326 $-1 #
loop $-1 $-1 $324 $377 #
ellipse-curve $-1 2 0 1 -1 0 0 0 -0.5 0 1 I I #
coedge $-1 $279 $278 $378 $379 forward $280 $-1 #
edge $-1 $281 0 $380 0.10000000000000009 $325 $381 forward 7 unknown #
edge $-1 $282 0 $382 0.10000000000000009 $324 $383 forward 7 unknown #
face $-1 $377 $280 $3 $-1 $384 reversed single #
point $-1 2 0.5 1 #
point $-1 2 -0.5 1 #
coedge $-1 $285 $284 $385 $386 reversed $286 $-1 #
face $-1 $331 $286 $3 $-1 $387 reversed single #
coedge $-1 $385 $385 $288 $337 forward $388 $-1 #
edge $-1 $340 0 $338 3.1415926535897931 $336 $389 forward 7 unknown #
vertex $-1 $386 $390 #
straight-curve $-1 0.5 -1.8999999999999999 1 0 -1 0 I I #
vertex $-1 $386 $391 #
straight-curve $-1 -0.5 -1.8999999999999999 1 0 -1 0 I I #
cone-surface $-1 0 2 1 0 -1 0 0.5 0 0 1 I I 0 1 0.5 forward I I I I #
ellipse-curve $-1 -1.8999999999999999 0 1 -1 0 0 0 -0.5 0 1 I I #
face $-1 $364 $359 $3 $-1 $392 reversed single #
coedge $-1 $308 $301 $393 $394 reversed $142 $-1 #
coedge $-1 $395 $396 $301 $347 forward $373 $-1 #
edge $-1 $397 0 $350 0.98168393208259841 $301 $398 forward 7 unknown #
coedge $-1 $399 $302 $305 $353 reversed $322 $-1 #
coedge $-1 $302 $399 $395 $400 forward $322 $-1 #
vertex $-1 $347 $401 #
straight-curve $-1 1.8999999999999999 -1.1479864789289373 2.5 0 1 0 I I #
coedge $-1 $305 $304 $402 $403 reversed $274 $-1 #
edge $-1 $404 0 $306 2.3999999999999999 $348 $405 forward 7 unknown #
point $-1 1.8999999999999999 1.2689857318289428 2.5 #
coedge $-1 $406 $407 $308 $356 forward $408 $-1 #
edge $-1 $360 0 $409 0.98168393208259908 $308 $410 forward 7 unknown #
coedge $-1 $411 $309 $407 $412 reversed $359 $-1 #
coedge $-1 $309 $411 $311 $363 forward $359 $-1 #
loop $-1 $297 $358 $344 #
vertex $-1 $310 $413 #
straight-curve $-1 -1.8999999999999999 1.1479864789289373 2.5 0 -1 0 I I #
coedge $-1 $312 $311 $414 $415 reversed $313 $-1 #
edge $-1 $416 0 $314 2.3999999999999999 $311 $417 forward 7 unknown #
face $-1 $418 $313 $3 $-1 $419 reversed single #
point $-1 -1.8999999999999999 1.1479864789289373 2.5 #
coedge $-1 $414 $402 $316 $367 forward $420 $-1 #
edge $-1 $370 0 $368 2.4169722107578799 $366 $421 forward 7 unknown #
vertex $-1 $415 $422 #
straight-curve $-1 -1.2689857318289435 1.8999999999999999 0.099999999999999992 0 0 1 I I #
vertex $-1 $367 $423 #
straight-curve $-1 1.1479864789289367 1.8999999999999999 0.099999999999999992 0 0 1 I I #
face $-1 $424 $425 $3 $-1 $426 reversed single #
loop $-1 $-1 $396 $321 #
plane-surface $-1 1.2390120533325453 -1.9357212390313461 0 0.7660444431189779 -0.64278760968653947 0 0.64278760968653947 0.7660444431189779 0 forward_v I I I I #
loop $-1 $-1 $378 $273 #
coedge $-1 $325 $324 $427 $428 forward $326 $-1 #
face $-1 $137 $326 $3 $-1 $429 reversed single #
coedge $-1 $427 $427 $328 $379 reversed $375 $-1 #
edge $-1 $380 0 $382 3.1415926535897931 $378 $430 forward 7 unknown #
vertex $-1 $428 $431 #
straight-curve $-1 2 0.5 1 -1 0 0 I I #
vertex $-1 $428 $432 #
straight-curve $-1 2 -0.5 1 -1 0 0 I I #
cone-surface $-1 2 0 1 -1 0 0 0 -0.5 0 1 I I 0 1 0.5 forward I I I I #
coedge $-1 $336 $336 $334 $386 forward $388 $-1 #
edge $-1 $338 0 $340 3.1415926535897931 $385 $433 forward 7 unknown #
cone-surface $-1 0 2 1 0 -1 0 0.5 0 0 1 I I 0 1 0.5 forward I I I I #
loop $-1 $-1 $336 $372 #
ellipse-curve $-1 0 -1.8999999999999999 1 0 -1 0 -0.5 0 0 1 I I #
point $-1 0.5 -1.8999999999999999 1 #
point $-1 -0.5 -1.8999999999999999 1 #
plane-surface $-1 -1.8999999999999999 1.1843835023555573 0 -1 0 0 0 -1 0 forward_v I I I I #
coedge $-1 $434 $435 $345 $394 forward $425 $-1 #
edge $-1 $409 0 $397 2.4169722107578799 $345 $436 forward 7 unknown #
coedge $-1 $437 $346 $349 $400 reversed $373 $-1 #
coedge $-1 $346 $437 $434 $438 forward $373 $-1 #
vertex $-1 $394 $439 #
straight-curve $-1 1.2689857318289433 -1.8999999999999999 2.5 0.64278760968653958 0.76604444311897779 0 I I #
coedge $-1 $349 $348 $440 $441 reversed $322 $-1 #
edge $-1 $442 0 $350 2.3999999999999999 $395 $443 forward 7 unknown #
point $-1 1.8999999999999999 -1.1479864789289373 2.5 #
coedge $-1 $366 $440 $352 $403 forward $420 $-1 #
edge $-1 $404 0 $370 0.98168393208259919 $402 $444 forward 7 unknown #
vertex $-1 $403 $445 #
straight-curve $-1 1.8999999999999999 1.2689857318289428 0.099999999999999992 0 0 1 I I #
coedge $-1 $446 $355 $435 $447 reversed $408 $-1 #
coedge $-1 $355 $446 $357 $412 forward $408 $-1 #
loop $-1 $-1 $407 $424 #
vertex $-1 $356 $448 #
straight-curve $-1 -1.8999999999999999 -1.2689857318289428 2.5 0.7660444431189779 -0.64278760968653947 0 I I #
coedge $-1 $358 $357 $449 $450 reversed $359 $-1 #
edge $-1 $451 0 $360 2.3999999999999999 $357 $452 forward 7 unknown #
point $-1 -1.8999999999999999 -1.2689857318289428 2.5 #
coedge $-1 $449 $366 $362 $415 forward $420 $-1 #
edge $-1 $368 0 $416 0.9816839320825983 $414 $453 forward 7 unknown #
vertex $-1 $415 $454 #
straight-curve $-1 -1.8999999999999999 1.1479864789289373 0.099999999999999992 0 0 1 I I #
face $-1 $218 $420 $3 $-1 $455 forward single #
plane-surface $-1 -1.2390120533325455 1.9357212390313461 0 -0.76604444311897812 0.64278760968653936 0 -0.64278760968653925 -0.7660444431189779 0 forward_v I I I I #
loop $-1 $-1 $449 $418 #
straight-curve $-1 1.1479864789289367 1.8999999999999999 0.099999999999999992 -1 0 0 I I #
point $-1 -1.2689857318289435 1.8999999999999999 0.099999999999999992 #
point $-1 1.1479864789289367 1.8999999999999999 0.099999999999999992 #
face $-1 $344 $408 $3 $-1 $456 reversed single #
loop $-1 $388 $435 $372 #
plane-surface $-1 -1.1843835023555569 -1.8999999999999999 0 0 -1 0 1 0 0 forward_v I I I I #
coedge $-1 $378 $378 $376 $428 reversed $375 $-1 #
edge $-1 $382 0 $380 3.1415926535897931 $427 $457 forward 7 unknown #
cone-surface $-1 2 0 1 -1 0 0 0 -0.5 0 1 I I 0 1 0.5 forward I I I I #
ellipse-curve $-1 1.8999999999999999 0 1 -1 0 0 0 0.5 0 1 I I #
point $-1 1.8999999999999999 0.5 1 #
point $-1 1.8999999999999999 -0.5 1 #
ellipse-curve $-1 0 -1.8999999999999999 1 0 -1 0 0.5 0 0 1 I I #
coedge $-1 $458 $393 $396 $438 reversed $425 $-1 #
coedge $-1 $393 $458 $406 $447 forward $425 $-1 #
straight-curve $-1 -1.1479864789289369 -1.8999999999999999 2.5 1 0 0 I I #
coedge $-1 $396 $395 $459 $460 reversed $373 $-1 #
edge $-1 $461 0 $397 2.3999999999999999 $434 $462 forward 7 unknown #
point $-1 1.2689857318289433 -1.8999999999999999 2.5 #
coedge $-1 $402 $459 $399 $441 forward $420 $-1 #
edge $-1 $442 0 $404 2.4169722107578799 $440 $463 forward 7 unknown #
vertex $-1 $441 $464 #
straight-curve $-1 1.8999999999999999 -1.1479864789289373 0.099999999999999992 0 0 1 I I #
straight-curve $-1 1.8999999999999999 1.2689857318289428 0.099999999999999992 -0.7660444431189779 0.64278760968653947 0 I I #
point $-1 1.8999999999999999 1.2689857318289428 0.099999999999999992 #
coedge $-1 $407 $406 $465 $466 reversed $408 $-1 #
edge $-1 $467 0 $409 2.3999999999999999 $406 $468 forward 7 unknown #
point $-1 -1.1479864789289369 -1.8999999999999999 2.5 #
coedge $-1 $465 $414 $411 $450 forward $420 $-1 #
edge $-1 $416 0 $451 2.4169722107578799 $449 $469 forward 7 unknown #
vertex $-1 $466 $470 #
straight-curve $-1 -1.8999999999999999 -1.2689857318289428 0.099999999999999992 0 0 1 I I #
straight-curve $-1 -1.2689857318289435 1.8999999999999999 0.099999999999999992 -0.64278760968653947 -0.76604444311897801 0 I I #
point $-1 -1.8999999999999999 1.1479864789289373 0.099999999999999992 #
plane-surface $-1 0 0 0.099999999999999992 0 0 1 1 0 0 forward_v I I I I #
plane-surface $-1 -1.9357212390313461 -1.2390120533325448 0 -0.64278760968653947 -0.7660444431189779 0 0.7660444431189779 -0.64278760968653947 0 forward_v I I I I #
ellipse-curve $-1 1.8999999999999999 0 1 -1 0 0 0 -0.5 0 1 I I #
coedge $-1 $435 $434 $471 $472 reversed $425 $-1 #
coedge $-1 $440 $471 $437 $460 forward $420 $-1 #
edge $-1 $461 0 $442 0.98168393208259841 $459 $473 forward 7 unknown #
vertex $-1 $460 $474 #
straight-curve $-1 1.2689857318289433 -1.8999999999999999 0.099999999999999992 0 0 1 I I #
straight-curve $-1 1.8999999999999999 -1.1479864789289373 0.099999999999999992 0 1 0 I I #
point $-1 1.8999999999999999 -1.1479864789289373 0.099999999999999992 #
coedge $-1 $471 $449 $446 $466 forward $420 $-1 #
edge $-1 $451 0 $467 0.98168393208259908 $465 $475 forward 7 unknown #
vertex $-1 $472 $476 #
straight-curve $-1 -1.1479864789289369 -1.8999999999999997 0.099999999999999992 0 0 1 I I #
straight-curve $-1 -1.8999999999999999 1.1479864789289373 0.099999999999999992 0 -1 0 I I #
point $-1 -1.8999999999999999 -1.2689857318289428 0.099999999999999992 #
coedge $-1 $459 $465 $458 $472 forward $420 $-1 #
edge $-1 $467 0 $461 2.4169722107578799 $471 $477 forward 7 unknown #
straight-curve $-1 1.2689857318289433 -1.8999999999999999 0.099999999999999992 0.64278760968653958 0.76604444311897779 0 I I #
point $-1 1.2689857318289433 -1.8999999999999999 0.099999999999999992 #
straight-curve $-1 -1.8999999999999999 -1.2689857318289428 0.099999999999999992 0.7660444431189779 -0.64278760968653947 0 I I #
point $-1 -1.1479864789289369 -1.8999999999999999 0.099999999999999992 #
straight-curve $-1 -1.1479864789289369 -1.8999999999999999 0.099999999999999992 1 0 0 I I #
End-of-ACIS-data 