600 0 1 0           
93 GICL Pro/E ACIS Translator - Source: f:/data5/repository/PTC/V18/lrgasm18/latch_3.prt.2 - 6 0 13 ACIS 6.0.3 NT 24 Thu Apr 04 13:34:37 2002 
1 9.9999999999999995e-007 1e-010 
body $-1 $1 $-1 $2 #
lump $-1 $-1 $3 $0 #
transform $-1 1 0 0 0 1 0 0 0 1 0 0 0 25.399999999999999 no_rotate no_reflect no_shear #
shell $-1 $-1 $-1 $4 $-1 $1 #
face $-1 $5 $6 $3 $-1 $7 reversed single #
face $-1 $8 $9 $3 $-1 $10 forward single #
loop $-1 $-1 $11 $4 #
plane-surface $-1 0 60.150049800344036 9.2101007166283448 0 -0.93969262078590865 0.34202014332566816 1 0 0 forward_v I I I I #
face $-1 $12 $13 $3 $-1 $14 forward single #
loop $-1 $-1 $15 $5 #
cone-surface $-1 -1 59.936718597445335 10.08588025388061 0 0.34202014332567021 0.93969262078590787 0 0.46984631039295394 -0.17101007166283511 1 I I 0 1 0.5 forward I I I I #
coedge $-1 $16 $17 $18 $19 reversed $6 $-1 #
face $-1 $20 $21 $3 $-1 $22 forward single #
loop $-1 $-1 $23 $8 #
plane-surface $-1 -1.5 60.32105987200687 9.6799470270212993 0 -0.34202014332566816 -0.93969262078590865 1 0 0 forward_v I I I I #
coedge $-1 $24 $18 $25 $26 forward $9 $-1 #
coedge $-1 $27 $11 $28 $29 reversed $6 $-1 #
coedge $-1 $11 $30 $31 $32 reversed $6 $-1 #
coedge $-1 $15 $33 $11 $19 forward $9 $-1 #
edge $-1 $34 0 $35 0.24999999999999933 $11 $36 forward 7 unknown #
face $-1 $37 $38 $3 $-1 $39 forward single #
loop $-1 $-1 $40 $12 #
plane-surface $-1 0 60.32105987200687 9.6799470270212993 -1 0 0 0 -0.34202014332566816 -0.93969262078590865 forward_v I I I I #
coedge $-1 $41 $31 $42 $43 forward $13 $-1 #
coedge $-1 $33 $15 $44 $45 reversed $9 $-1 #
coedge $-1 $31 $46 $15 $26 reversed $13 $-1 #
edge $-1 $35 -4.9303806576313621e-032 $47 1.5707963267949108 $25 $48 forward 7 unknown #
coedge $-1 $49 $16 $50 $51 reversed $6 $-1 #
coedge $-1 $52 $53 $16 $29 forward $54 $-1 #
edge $-1 $55 0 $34 0.75 $16 $56 forward 7 unknown #
coedge $-1 $17 $57 $58 $59 reversed $6 $-1 #
coedge $-1 $23 $25 $17 $32 forward $13 $-1 #
edge $-1 $35 0 $60 1 $17 $61 forward 7 unknown #
coedge $-1 $18 $24 $52 $62 reversed $9 $-1 #
vertex $-1 $29 $63 #
vertex $-1 $32 $64 #
straight-curve $-1 -1 60.406564907838288 9.9148701822177756 0 -0.34202014332567021 -0.93969262078590787 I I #
face $-1 $65 $66 $3 $-1 $67 forward single #
loop $-1 $-1 $68 $20 #
cone-surface $-1 0 59.509193418288248 8.9112644778982251 -1 0 0 0 0.46984631039295394 -0.17101007166283511 1 I I 0 1 0.5 forward I I I I #
coedge $-1 $69 $58 $70 $71 forward $21 $-1 #
coedge $-1 $72 $23 $73 $74 reversed $13 $-1 #
coedge $-1 $58 $75 $23 $43 reversed $21 $-1 #
edge $-1 $60 0 $76 2.9999999999999973 $23 $77 forward 7 unknown #
coedge $-1 $78 $79 $24 $45 forward $80 $-1 #
edge $-1 $81 0 $47 0.24999999999999933 $44 $82 forward 7 unknown #
coedge $-1 $25 $72 $78 $83 reversed $13 $-1 #
vertex $-1 $26 $84 #
ellipse-curve $-1 -0.99999999999999978 59.851213561613918 9.8509570986841322 4.9303806576313614e-031 0.3420201433256671 0.93969262078590898 -2.2204460492503131e-016 0.46984631039295266 -0.17101007166283289 1 I I #
coedge $-1 $85 $27 $86 $87 reversed $6 $-1 #
coedge $-1 $88 $89 $27 $51 forward $90 $-1 #
edge $-1 $91 0 $55 0.250000000000001 $27 $92 forward 7 unknown #
coedge $-1 $93 $28 $33 $62 forward $54 $-1 #
coedge $-1 $28 $94 $88 $95 reversed $54 $-1 #
loop $-1 $-1 $52 $96 #
vertex $-1 $51 $97 #
straight-curve $-1 -0.25 60.406564907838288 9.9148701822177756 -1 0 0 I I #
coedge $-1 $30 $98 $99 $100 reversed $6 $-1 #
coedge $-1 $40 $42 $30 $59 forward $21 $-1 #
edge $-1 $60 0 $101 1.0000000000000007 $30 $102 forward 7 unknown #
vertex $-1 $32 $103 #
straight-curve $-1 -1 60.32105987200687 9.6799470270212993 1 0 0 I I #
edge $-1 $34 0 $81 1.5707963267949134 $52 $104 forward 7 unknown #
point $-1 -1 60.406564907838288 9.9148701822177756 #
point $-1 -1 60.32105987200687 9.6799470270212993 #
face $-1 $105 $106 $3 $-1 $107 forward single #
loop $-1 $-1 $108 $37 #
plane-surface $-1 0.25 59.808029657018366 8.270408095842436 1 0 0 0 0.34202014332566816 0.93969262078590865 forward_v I I I I #
coedge $-1 $109 $99 $110 $111 forward $38 $-1 #
coedge $-1 $112 $40 $113 $114 forward $21 $-1 #
coedge $-1 $99 $109 $40 $71 reversed $38 $-1 #
edge $-1 $101 0 $115 1.5707963267949145 $40 $116 forward 7 unknown #
coedge $-1 $46 $41 $117 $118 forward $13 $-1 #
coedge $-1 $119 $120 $41 $74 forward $121 $-1 #
edge $-1 $122 0 $76 1 $73 $123 forward 7 unknown #
coedge $-1 $42 $112 $119 $124 reversed $21 $-1 #
vertex $-1 $74 $125 #
straight-curve $-1 0 60.32105987200687 9.6799470270212993 0 -0.93969262078590854 0.34202014332566844 I I #
coedge $-1 $126 $44 $46 $83 forward $80 $-1 #
coedge $-1 $44 $126 $93 $127 reversed $80 $-1 #
loop $-1 $-1 $78 $128 #
vertex $-1 $127 $129 #
straight-curve $-1 -1.5 59.936718597445328 10.08588025388061 0 -0.34202014332567021 -0.93969262078590787 I I #
edge $-1 $47 0 $130 1.9999999999999936 $46 $131 forward 7 unknown #
point $-1 -1.5 59.85121356161391 9.8509570986841339 #
coedge $-1 $132 $49 $133 $134 forward $6 $-1 #
coedge $-1 $135 $136 $49 $87 forward $137 $-1 #
edge $-1 $138 0 $91 0.25 $49 $139 forward 7 unknown #
coedge $-1 $140 $50 $53 $95 forward $90 $-1 #
coedge $-1 $50 $140 $135 $141 reversed $90 $-1 #
loop $-1 $-1 $88 $142 #
vertex $-1 $87 $143 #
straight-curve $-1 -0.25 60.492069943669705 10.149793337414254 0 -0.34202014332566794 -0.93969262078590865 I I #
coedge $-1 $144 $52 $79 $127 forward $54 $-1 #
coedge $-1 $53 $145 $146 $147 reversed $54 $-1 #
edge $-1 $55 0 $148 1.5707963267949505 $53 $149 forward 7 unknown #
face $-1 $128 $54 $3 $-1 $150 forward single #
point $-1 -0.25 60.406564907838288 9.9148701822177756 #
coedge $-1 $57 $151 $152 $153 reversed $6 $-1 #
coedge $-1 $68 $70 $57 $100 forward $38 $-1 #
edge $-1 $101 0 $154 0.25 $57 $155 forward 7 unknown #
vertex $-1 $59 $156 #
straight-curve $-1 0 60.32105987200687 9.6799470270212993 0 -0.3420201433256691 -0.93969262078590821 I I #
point $-1 0 60.32105987200687 9.6799470270212993 #
ellipse-curve $-1 -1.0000000000000011 59.936718597445335 10.085880253880608 -2.3665827156630536e-030 0.3420201433256671 0.93969262078590898 1.1102230246251565e-015 0.46984631039295266 -0.17101007166283289 1 I I #
face $-1 $157 $158 $3 $-1 $159 forward single #
loop $-1 $-1 $160 $65 #
cone-surface $-1 0.25 60.000631680978977 9.5305289076562385 -1 0 0 0 0.23492315519647755 -0.085505035831415999 1 I I 0 1 0.25 forward I I I I #
coedge $-1 $161 $152 $162 $163 forward $66 $-1 #
coedge $-1 $70 $68 $164 $165 reversed $38 $-1 #
coedge $-1 $152 $166 $68 $111 reversed $66 $-1 #
edge $-1 $154 0 $167 1.5707963267949236 $110 $168 forward 7 unknown #
coedge $-1 $75 $69 $169 $170 reversed $21 $-1 #
coedge $-1 $164 $171 $69 $114 reversed $172 $-1 #
edge $-1 $115 6.0754982080920426e-016 $173 1.999999999999986 $69 $174 forward 7 unknown #
vertex $-1 $114 $175 #
ellipse-curve $-1 0 59.509193418288248 8.9112644778982233 -1 0 0 0 0.46984631039295266 -0.17101007166283289 1 I I #
coedge $-1 $176 $177 $72 $118 reversed $178 $-1 #
edge $-1 $122 -7.8886090522101601e-031 $130 1.570796326794901 $72 $179 forward 7 unknown #
coedge $-1 $180 $73 $75 $124 forward $121 $-1 #
coedge $-1 $73 $181 $176 $182 forward $121 $-1 #
loop $-1 $-1 $119 $183 #
vertex $-1 $74 $184 #
straight-curve $-1 -1 57.501982009649147 10.706007456998304 1 0 0 I I #
edge $-1 $76 0 $185 1.0000000000000022 $119 $186 forward 7 unknown #
point $-1 0 57.501982009649147 10.706007456998304 #
coedge $-1 $79 $78 $177 $187 reversed $80 $-1 #
edge $-1 $81 -6.0754982080920426e-016 $188 1.9999999999999931 $93 $189 forward 7 unknown #
face $-1 $190 $80 $3 $-1 $191 forward single #
point $-1 -1.5 59.936718597445328 10.08588025388061 #
vertex $-1 $83 $192 #
straight-curve $-1 -1.5 59.85121356161391 9.8509570986841339 0 -0.93969262078590843 0.34202014332566871 I I #
coedge $-1 $151 $85 $193 $194 reversed $6 $-1 #
coedge $-1 $195 $196 $85 $134 reversed $197 $-1 #
edge $-1 $138 -3.9443045261050538e-031 $198 1.5707963267948941 $85 $199 forward 7 unknown #
coedge $-1 $200 $86 $89 $141 forward $137 $-1 #
coedge $-1 $86 $201 $195 $202 reversed $137 $-1 #
loop $-1 $-1 $136 $203 #
vertex $-1 $134 $204 #
straight-curve $-1 0 60.492069943669705 10.149793337414254 -1 0 0 I I #
coedge $-1 $89 $88 $205 $206 reversed $90 $-1 #
edge $-1 $91 0 $207 1.5707963267949521 $135 $208 forward 7 unknown #
face $-1 $96 $90 $3 $-1 $209 forward single #
point $-1 -0.25 60.492069943669705 10.149793337414254 #
coedge $-1 $210 $93 $211 $212 reversed $54 $-1 #
coedge $-1 $94 $210 $213 $214 forward $54 $-1 #
coedge $-1 $215 $205 $94 $147 forward $216 $-1 #
edge $-1 $148 6.0754982080920446e-016 $217 2.4999999999999987 $146 $218 forward 7 unknown #
vertex $-1 $147 $219 #
ellipse-curve $-1 -0.250000000000005 60.171641752641818 10.000375218049189 -2.7610131682737302e-029 0.34202014332566683 0.93969262078590921 4.9960036108132044e-015 0.23492315519646922 -0.085505035831413778 1 I I #
plane-surface $-1 -0.5 60.406564907838288 9.9148701822177756 0 0.34202014332566816 0.93969262078590865 -1 0 0 forward_v I I I I #
coedge $-1 $98 $132 $220 $221 reversed $6 $-1 #
coedge $-1 $108 $110 $98 $153 forward $66 $-1 #
edge $-1 $154 0 $222 0.74999999999999967 $98 $223 forward 7 unknown #
vertex $-1 $100 $224 #
straight-curve $-1 0 59.979039728681201 8.7402544062353904 1 0 0 I I #
point $-1 0 59.979039728681201 8.7402544062353904 #
face $-1 $225 $226 $3 $-1 $227 forward single #
loop $-1 $-1 $228 $105 #
plane-surface $-1 0.5 60.150049800344036 9.2101007166283448 1 0 0 0 0.34202014332566816 0.93969262078590865 forward_v I I I I #
coedge $-1 $229 $220 $230 $231 forward $106 $-1 #
coedge $-1 $232 $108 $233 $234 forward $66 $-1 #
coedge $-1 $220 $229 $108 $163 reversed $106 $-1 #
edge $-1 $222 6.6613381477506032e-015 $235 1.5707963267948748 $108 $236 forward 7 unknown #
coedge $-1 $237 $113 $109 $165 forward $172 $-1 #
edge $-1 $115 0 $167 0.25 $164 $238 forward 7 unknown #
coedge $-1 $110 $239 $237 $240 reversed $66 $-1 #
vertex $-1 $165 $241 #
ellipse-curve $-1 0.25 59.509193418288248 8.9112644778982197 -1 0 0 0 0.46984631039295266 -0.17101007166282933 1 I I #
coedge $-1 $242 $243 $112 $170 forward $244 $-1 #
edge $-1 $185 0 $173 1.5707963267949103 $112 $245 forward 7 unknown #
coedge $-1 $113 $237 $242 $246 reversed $172 $-1 #
loop $-1 $-1 $237 $247 #
vertex $-1 $170 $248 #
straight-curve $-1 0 59.338183346625407 8.4414181675052706 0 -0.93969262078590865 0.34202014332566788 I I #
point $-1 0 59.338183346625407 8.4414181675052724 #
coedge $-1 $211 $117 $120 $182 reversed $178 $-1 #
coedge $-1 $117 $211 $126 $187 forward $178 $-1 #
loop $-1 $-1 $211 $190 #
ellipse-curve $-1 -1.0000000000000022 57.9718283200421 10.534997385335469 1.0057976541567955e-029 -0.34202014332567032 -0.93969262078590787 2.2204460492503131e-015 -0.46984631039295266 0.17101007166283466 1 I I #
coedge $-1 $249 $119 $243 $250 forward $121 $-1 #
coedge $-1 $120 $251 $210 $252 forward $121 $-1 #
edge $-1 $253 0 $122 0.24999999999999933 $120 $254 forward 7 unknown #
face $-1 $255 $121 $3 $-1 $256 forward single #
point $-1 -1 57.501982009649147 10.706007456998304 #
vertex $-1 $250 $257 #
straight-curve $-1 0 57.501982009649147 10.706007456998304 0 -0.3420201433256691 -0.93969262078590821 I I #
edge $-1 $188 0 $130 0.24999999999999933 $126 $258 forward 7 unknown #
vertex $-1 $212 $259 #
straight-curve $-1 -1.5 59.936718597445328 10.085880253880612 0 -0.93969262078590865 0.34202014332566788 I I #
face $-1 $183 $178 $3 $-1 $260 forward single #
plane-surface $-1 -1.5 60.406564907838288 9.9148701822177756 -1 0 0 0 -0.34202014332566816 -0.93969262078590865 forward_v I I I I #
point $-1 -1.5 57.9718283200421 10.534997385335469 #
coedge $-1 $261 $230 $132 $194 forward $158 $-1 #
edge $-1 $262 0 $198 0.250000000000001 $132 $263 forward 7 unknown #
coedge $-1 $264 $133 $136 $202 forward $197 $-1 #
coedge $-1 $133 $264 $261 $265 reversed $197 $-1 #
loop $-1 $-1 $196 $266 #
vertex $-1 $194 $267 #
ellipse-curve $-1 -1.3045120539345589e-015 60.32105987200687 9.6799470270212993 -2.5637979419682849e-030 0.93969262078590832 -0.3420201433256691 1.3045120539345589e-015 0.17101007166283466 0.46984631039295444 1 I I #
coedge $-1 $201 $135 $268 $269 forward $137 $-1 #
coedge $-1 $136 $200 $270 $271 reversed $137 $-1 #
edge $-1 $138 0 $272 0.45999999999999686 $136 $273 forward 7 unknown #
face $-1 $266 $137 $3 $-1 $274 forward single #
point $-1 0 60.492069943669705 10.149793337414254 #
coedge $-1 $146 $268 $140 $206 forward $216 $-1 #
edge $-1 $207 0 $148 0.24999999999999933 $205 $275 forward 7 unknown #
vertex $-1 $269 $276 #
ellipse-curve $-1 -0.250000000000006 60.257146788473236 10.235298373245667 -3.3132158019284766e-029 0.34202014332566683 0.93969262078590921 5.9952043329758453e-015 0.23492315519646922 -0.085505035831413778 1 I I #
cone-surface $-1 -0.25 60.257146788473229 10.235298373245671 0 0.34202014332566799 0.93969262078590865 0 0.23492315519647716 -0.085505035831416998 1 I I 0 1 0.25 forward I I I I #
coedge $-1 $145 $144 $181 $252 reversed $54 $-1 #
coedge $-1 $177 $176 $144 $212 forward $178 $-1 #
edge $-1 $253 0 $188 1.5707963267949256 $144 $277 forward 7 unknown #
coedge $-1 $278 $279 $145 $214 reversed $280 $-1 #
edge $-1 $281 0 $217 1.5707963267948932 $145 $282 forward 7 unknown #
coedge $-1 $283 $146 $279 $284 reversed $216 $-1 #
loop $-1 $-1 $285 $286 #
vertex $-1 $284 $287 #
straight-curve $-1 -0.5 60.171641752641811 10.000375218049193 0 -0.93969262078590865 0.3420201433256681 I I #
point $-1 -0.5 60.171641752641811 10.000375218049195 #
coedge $-1 $160 $162 $151 $221 forward $106 $-1 #
edge $-1 $222 1.2621774483536189e-029 $262 0.25 $151 $288 forward 7 unknown #
vertex $-1 $153 $289 #
straight-curve $-1 0.25 59.979039728681201 8.7402544062353904 0 0.34202014332566949 0.93969262078590809 I I #
point $-1 0.25 59.979039728681201 8.7402544062353904 #
face $-1 $290 $291 $3 $-1 $292 forward single #
loop $-1 $-1 $293 $157 #
plane-surface $-1 0.25 60.150049800344036 9.2101007166283448 0 -0.34202014332566816 -0.93969262078590865 1 0 0 forward_v I I I I #
coedge $-1 $230 $294 $295 $296 reversed $158 $-1 #
coedge $-1 $162 $160 $297 $298 reversed $106 $-1 #
coedge $-1 $193 $228 $160 $231 reversed $158 $-1 #
edge $-1 $262 0 $299 1.5707963267949308 $230 $300 forward 7 unknown #
coedge $-1 $301 $161 $302 $303 reversed $66 $-1 #
coedge $-1 $297 $304 $161 $234 reversed $226 $-1 #
edge $-1 $235 -1.2150996416184066e-015 $305 2.4999999999999982 $161 $306 forward 7 unknown #
vertex $-1 $234 $307 #
ellipse-curve $-1 0.25 60.000631680978969 9.5305289076562403 -1 0 0 0 0.23492315519648344 -0.085505035831417331 1 I I #
coedge $-1 $171 $164 $166 $240 forward $172 $-1 #
straight-curve $-1 0 59.338183346625407 8.4414181675052724 1 0 0 I I #
coedge $-1 $166 $301 $308 $309 forward $66 $-1 #
edge $-1 $167 0 $310 1.9999999999999853 $237 $311 forward 7 unknown #
point $-1 0.25 59.338183346625407 8.4414181675052724 #
coedge $-1 $308 $169 $171 $246 forward $244 $-1 #
coedge $-1 $169 $308 $180 $250 reversed $244 $-1 #
loop $-1 $-1 $169 $255 #
ellipse-curve $-1 0 57.629808176716431 9.5953047645495602 1 0 0 0 -0.46984631039295266 0.17101007166283289 1 I I #
edge $-1 $173 0 $310 0.25 $171 $312 forward 7 unknown #
face $-1 $313 $172 $3 $-1 $314 forward single #
point $-1 0 57.458798105053603 9.1254584541566022 #
coedge $-1 $315 $180 $301 $316 forward $121 $-1 #
edge $-1 $185 0 $317 0.25 $180 $318 forward 7 unknown #
coedge $-1 $181 $319 $278 $320 forward $121 $-1 #
edge $-1 $281 0 $253 0.75 $181 $321 forward 7 unknown #
vertex $-1 $182 $322 #
straight-curve $-1 -1 57.587487045480565 10.94093061219478 0 -0.34202014332567021 -0.93969262078590787 I I #
face $-1 $247 $244 $3 $-1 $323 forward single #
plane-surface $-1 0 57.330971937986313 10.236161146605349 0 -0.93969262078590865 0.34202014332566816 1 0 0 forward_v I I I I #
point $-1 0 57.159961866323478 9.766314836212393 #
straight-curve $-1 -1.5 58.057333355873517 10.769920540531945 0 -0.34202014332566794 -0.93969262078590865 I I #
point $-1 -1.5 58.057333355873517 10.769920540531945 #
cone-surface $-1 -1 58.057333355873517 10.769920540531945 0 -0.34202014332567021 -0.93969262078590787 0 -0.46984631039295394 0.17101007166283511 1 I I 0 1 0.5 forward I I I I #
coedge $-1 $294 $193 $196 $265 forward $158 $-1 #
vertex $-1 $221 $324 #
straight-curve $-1 0.5 60.235554836175453 9.4450238718248212 0 0.34202014332566794 0.93969262078590865 I I #
coedge $-1 $196 $195 $325 $326 forward $197 $-1 #
edge $-1 $198 0 $327 0.45999999999999686 $261 $328 forward 7 unknown #
face $-1 $142 $197 $3 $-1 $329 forward single #
point $-1 0.5 60.32105987200687 9.6799470270212993 #
coedge $-1 $205 $285 $200 $269 reversed $216 $-1 #
edge $-1 $207 0 $330 0.20999999999999749 $200 $331 forward 7 unknown #
coedge $-1 $332 $325 $201 $271 forward $333 $-1 #
edge $-1 $272 0 $330 0.5 $201 $334 forward 7 unknown #
vertex $-1 $271 $335 #
straight-curve $-1 0 60.492069943669705 10.149793337414254 0 -0.93969262078590798 0.34202014332566949 I I #
plane-surface $-1 0.5 60.492069943669705 10.149793337414254 0 0.34202014332566816 0.93969262078590865 -1 0 0 forward_v I I I I #
straight-curve $-1 -0.5 60.257146788473229 10.235298373245671 0 -0.34202014332567021 -0.93969262078590787 I I #
point $-1 -0.5 60.257146788473229 10.235298373245671 #
ellipse-curve $-1 -1.0000000000000067 58.05733335587351 10.769920540531949 5.5220263365472865e-030 -0.34202014332566855 -0.93969262078590854 6.6613381477509392e-015 -0.46984631039294555 0.17101007166283111 1 I I #
coedge $-1 $336 $213 $251 $320 reversed $280 $-1 #
coedge $-1 $213 $336 $215 $284 forward $280 $-1 #
loop $-1 $-1 $336 $337 #
vertex $-1 $252 $338 #
ellipse-curve $-1 -0.24999999999999917 57.822410200677041 10.855425576363363 -2.9582283945787954e-029 -0.34202014332567654 -0.93969262078590554 -8.3266726846886741e-016 -0.23492315519647633 0.085505035831419107 1 I I #
coedge $-1 $339 $215 $340 $341 reversed $216 $-1 #
edge $-1 $342 0 $217 0.250000000000001 $215 $343 forward 7 unknown #
coedge $-1 $268 $344 $332 $345 reversed $216 $-1 #
face $-1 $346 $216 $3 $-1 $347 forward single #
point $-1 -0.5 57.822410200677041 10.855425576363363 #
straight-curve $-1 0.25 60.235554836175453 9.4450238718248229 1 0 -7.1054273576010019e-015 I I #
point $-1 0.25 60.235554836175453 9.4450238718248212 #
face $-1 $348 $349 $3 $-1 $350 forward single #
loop $-1 $-1 $351 $225 #
plane-surface $-1 0.5 60.150049800344036 9.2101007166283448 1 0 0 0 0.34202014332566816 0.93969262078590865 forward_v I I I I #
coedge $-1 $352 $353 $354 $355 forward $226 $-1 #
coedge $-1 $228 $261 $356 $357 reversed $158 $-1 #
coedge $-1 $358 $297 $228 $296 forward $226 $-1 #
edge $-1 $299 -6.0754982080920545e-016 $359 0.20999999999999749 $295 $360 forward 7 unknown #
coedge $-1 $295 $233 $229 $298 forward $226 $-1 #
edge $-1 $235 0 $299 0.25 $297 $361 forward 7 unknown #
vertex $-1 $296 $362 #
ellipse-curve $-1 0.5 60.000631680978977 9.5305289076562314 -1 0 0 0 0.23492315519647633 -0.085505035831410225 1 I I #
coedge $-1 $239 $232 $249 $316 reversed $66 $-1 #
coedge $-1 $363 $364 $232 $303 forward $365 $-1 #
edge $-1 $366 0 $305 1.5707963267948135 $232 $367 forward 7 unknown #
coedge $-1 $233 $368 $363 $369 reversed $226 $-1 #
vertex $-1 $303 $370 #
straight-curve $-1 0.25 59.915126645147559 9.2956057524597639 0 -0.93969262078590887 0.34202014332566744 I I #
point $-1 0.25 59.915126645147559 9.2956057524597604 #
coedge $-1 $243 $242 $239 $309 reversed $244 $-1 #
edge $-1 $317 0 $310 1.5707963267949103 $239 $371 forward 7 unknown #
vertex $-1 $246 $372 #
straight-curve $-1 0.25 59.338183346625407 8.4414181675052724 0 -0.93969262078590865 0.34202014332566788 I I #
straight-curve $-1 0 57.458798105053603 9.1254584541566039 1 0 0 I I #
face $-1 $373 $365 $3 $-1 $374 forward single #
plane-surface $-1 0 59.808029657018366 8.270408095842436 0 -0.34202014332566816 -0.93969262078590865 1 0 0 forward_v I I I I #
coedge $-1 $375 $249 $364 $376 forward $121 $-1 #
edge $-1 $317 -1.6692294138669938e-015 $366 0.75000000000000133 $249 $377 forward 7 unknown #
vertex $-1 $316 $378 #
straight-curve $-1 0 57.159961866323478 9.766314836212393 1 0 0 I I #
coedge $-1 $251 $379 $380 $381 forward $121 $-1 #
edge $-1 $382 0 $281 0.24999999999999933 $251 $383 forward 7 unknown #
straight-curve $-1 -0.25 57.587487045480565 10.94093061219478 -1 0 0 I I #
point $-1 -1 57.587487045480565 10.94093061219478 #
cone-surface $-1 0 57.629808176716431 9.5953047645495584 1 0 0 0 -0.46984631039295394 0.17101007166283511 1 I I 0 1 0.5 forward I I I I #
point $-1 0.5 60.235554836175453 9.4450238718248212 #
coedge $-1 $270 $356 $264 $326 reversed $333 $-1 #
edge $-1 $272 -1.6431300764452143e-014 $327 1.5707963267948639 $264 $384 forward 7 unknown #
vertex $-1 $357 $385 #
straight-curve $-1 0.5 60.32105987200687 9.6799470270212993 0 -0.93969262078590798 0.34202014332566949 I I #
cone-surface $-1 0 60.32105987200687 9.6799470270212993 0 0.93969262078590854 -0.34202014332566849 0 0.17101007166283422 0.46984631039295421 1 I I 0 1 0.49999999999999994 forward I I I I #
vertex $-1 $271 $386 #
straight-curve $-1 -0.5 60.257146788473229 10.235298373245671 0 -0.93969262078590843 0.34202014332566866 I I #
coedge $-1 $387 $270 $285 $345 forward $333 $-1 #
loop $-1 $-1 $270 $346 #
straight-curve $-1 0 60.05981133810819 10.307122603344061 -1 0 0 I I #
point $-1 0 60.05981133810819 10.307122603344061 #
coedge $-1 $279 $278 $388 $389 forward $280 $-1 #
face $-1 $390 $280 $3 $-1 $391 forward single #
point $-1 -0.25 57.587487045480565 10.940930612194782 #
coedge $-1 $392 $283 $393 $394 forward $216 $-1 #
coedge $-1 $388 $395 $283 $341 forward $396 $-1 #
edge $-1 $397 6.0754982080921225e-016 $342 0.13999999999999857 $340 $398 forward 7 unknown #
vertex $-1 $389 $399 #
straight-curve $-1 -0.5 57.907915236508458 11.090348731559841 0 -0.34202014332566794 -0.93969262078590865 I I #
coedge $-1 $285 $400 $401 $402 reversed $216 $-1 #
edge $-1 $330 0 $403 0.14999999999999916 $285 $404 forward 7 unknown #
face $-1 $203 $333 $3 $-1 $405 reversed single #
plane-surface $-1 -0.5 60.492069943669705 10.149793337414254 -1 0 0 0 -0.34202014332566816 -0.93969262078590865 forward_v I I I I #
face $-1 $286 $406 $3 $-1 $407 forward single #
loop $-1 $-1 $408 $290 #
cone-surface $-1 0 60.32105987200687 9.6799470270212993 0 0.93969262078590854 -0.34202014332566849 0 0.17101007166283422 0.46984631039295421 1 I I 0 1 0.49999999999999994 forward I I I I #
coedge $-1 $409 $410 $411 $412 forward $291 $-1 #
coedge $-1 $413 $293 $414 $415 forward $226 $-1 #
coedge $-1 $293 $416 $417 $418 reversed $226 $-1 #
coedge $-1 $410 $409 $293 $355 reversed $291 $-1 #
edge $-1 $419 0 $420 1.3499999999999923 $293 $421 forward 7 unknown #
coedge $-1 $325 $422 $294 $357 forward $333 $-1 #
edge $-1 $359 0 $327 0.50000000000000033 $294 $423 forward 7 unknown #
coedge $-1 $416 $295 $422 $424 forward $226 $-1 #
vertex $-1 $424 $425 #
straight-curve $-1 0.5 59.915126645147559 9.2956057524597622 0 -0.93969262078590843 0.34202014332566866 I I #
straight-curve $-1 0.25 59.915126645147559 9.2956057524597622 1 0 0 I I #
point $-1 0.5 59.915126645147559 9.2956057524597604 #
coedge $-1 $426 $302 $304 $369 forward $365 $-1 #
coedge $-1 $302 $426 $315 $376 reversed $365 $-1 #
loop $-1 $-1 $302 $313 #
vertex $-1 $376 $427 #
ellipse-curve $-1 0.25 57.65140012901422 10.385579265970415 1 0 0 0 -0.23492315519649054 0.085505035831412002 1 I I #
coedge $-1 $304 $428 $429 $430 forward $226 $-1 #
edge $-1 $305 0 $431 0.25 $304 $432 forward 7 unknown #
point $-1 0.25 57.565895093182789 10.150656110773932 #
ellipse-curve $-1 0.25 57.629808176716431 9.5953047645495602 1 0 0 0 -0.46984631039295266 0.17101007166283289 1 I I #
point $-1 0.25 57.458798105053603 9.1254584541566022 #
face $-1 $433 $434 $3 $-1 $435 forward single #
cone-surface $-1 0.25 57.651400129014206 10.385579265970408 1 0 0 0 -0.23492315519647639 0.085505035831419121 1 I I 0 1 0.24999999999999997 forward I I I I #
coedge $-1 $379 $315 $436 $437 forward $121 $-1 #
edge $-1 $366 0 $438 0.25 $315 $439 forward 7 unknown #
straight-curve $-1 0.25 57.159961866323478 9.7663148362123948 0 0.34202014332566949 0.93969262078590809 I I #
point $-1 0.25 57.159961866323478 9.766314836212393 #
coedge $-1 $319 $375 $440 $441 reversed $121 $-1 #
coedge $-1 $442 $388 $319 $381 reversed $396 $-1 #
edge $-1 $443 0 $382 0.25 $319 $444 forward 7 unknown #
vertex $-1 $320 $445 #
straight-curve $-1 -0.25 57.672992081311982 11.175853767391258 0 -0.34202014332567021 -0.93969262078590787 I I #
ellipse-curve $-1 -3.1086244689504383e-015 59.888801266445356 9.8372762929511008 6.7842037849005569e-029 0.93969262078590954 -0.34202014332566572 1.1324274851176597e-014 0.17101007166283466 0.46984631039295977 1 I I #
point $-1 0.5 59.888801266445356 9.8372762929511062 #
point $-1 -0.5 60.05981133810819 10.307122603344061 #
coedge $-1 $446 $332 $447 $448 forward $333 $-1 #
coedge $-1 $380 $340 $336 $389 reversed $396 $-1 #
edge $-1 $382 7.8886090522097012e-031 $342 1.5707963267948626 $388 $449 forward 7 unknown #
face $-1 $450 $451 $3 $-1 $452 reversed single #
cone-surface $-1 -0.25 57.907915236508458 11.090348731559841 0 -0.34202014332566799 -0.93969262078590865 0 -0.23492315519647716 0.085505035831416998 1 I I 0 1 0.25 forward I I I I #
coedge $-1 $453 $339 $454 $455 reversed $216 $-1 #
coedge $-1 $456 $457 $339 $394 reversed $451 $-1 #
edge $-1 $397 1.6692294138669865e-015 $458 0.15000000000000491 $339 $459 forward 7 unknown #
coedge $-1 $340 $442 $456 $460 forward $396 $-1 #
loop $-1 $-1 $340 $461 #
vertex $-1 $460 $462 #
straight-curve $-1 -0.5 58.039472203418484 11.042465911494247 0 -0.93969262078590698 0.34202014332567238 I I #
point $-1 -0.5 57.907915236508458 11.090348731559841 #
coedge $-1 $344 $463 $464 $465 forward $216 $-1 #
coedge $-1 $466 $447 $344 $402 forward $467 $-1 #
edge $-1 $403 0 $468 0.40000000000000802 $344 $469 forward 7 unknown #
vertex $-1 $402 $470 #
straight-curve $-1 -0.5 60.05981133810819 10.307122603344061 0 -0.34202014332568853 -0.93969262078590132 I I #
plane-surface $-1 -0.5 60.05981133810819 10.307122603344061 0 0.93969262078590865 -0.34202014332566816 0 -0.34202014332566816 -0.93969262078590865 forward_v I I I I #
loop $-1 $-1 $471 $348 #
plane-surface $-1 0.5 60.492069943669705 10.149793337414254 0 0.34202014332566816 0.93969262078590865 -1 0 0 forward_v I I I I #
coedge $-1 $472 $473 $474 $475 forward $349 $-1 #
coedge $-1 $354 $351 $476 $477 reversed $291 $-1 #
coedge $-1 $351 $354 $478 $479 forward $291 $-1 #
coedge $-1 $473 $472 $351 $412 reversed $349 $-1 #
edge $-1 $480 0 $481 1.3499999999999983 $351 $482 forward 7 unknown #
coedge $-1 $428 $352 $483 $484 reversed $226 $-1 #
coedge $-1 $476 $485 $352 $415 reversed $486 $-1 #
edge $-1 $420 0 $487 0.15000000000000002 $352 $488 forward 7 unknown #
coedge $-1 $353 $358 $489 $490 reversed $226 $-1 #
coedge $-1 $491 $478 $353 $418 forward $492 $-1 #
edge $-1 $419 0 $493 0.15000000000000002 $353 $494 forward 7 unknown #
vertex $-1 $418 $495 #
vertex $-1 $415 $496 #
straight-curve $-1 0.5 59.341914146468156 9.5042380398884188 0 -0.93969262078590876 0.34202014332566788 I I #
coedge $-1 $356 $446 $358 $424 reversed $333 $-1 #
straight-curve $-1 0.5 59.717791194782521 9.3674299825581517 0 0.3420201433256691 0.93969262078590821 I I #
edge $-1 $359 0 $497 0.15000000000000002 $358 $498 forward 7 unknown #
point $-1 0.5 59.717791194782521 9.3674299825581517 #
coedge $-1 $364 $363 $499 $500 reversed $365 $-1 #
point $-1 0.25 57.41647697381773 10.471084301801827 #
coedge $-1 $368 $413 $501 $502 reversed $226 $-1 #
coedge $-1 $503 $499 $368 $430 reversed $434 $-1 #
edge $-1 $504 0 $431 0.13999999999999857 $368 $505 forward 7 unknown #
vertex $-1 $369 $506 #
straight-curve $-1 0.25 57.565895093182789 10.150656110773932 1 0 0 I I #
face $-1 $461 $507 $3 $-1 $508 forward single #
loop $-1 $-1 $509 $373 #
plane-surface $-1 0.5 60.150049800344036 9.2101007166283448 1 0 0 0 0.34202014332566816 0.93969262078590865 forward_v I I I I #
coedge $-1 $499 $509 $375 $437 reversed $434 $-1 #
edge $-1 $438 0 $510 0.25000000000000344 $375 $511 forward 7 unknown #
vertex $-1 $437 $512 #
straight-curve $-1 0.25 57.41647697381773 10.471084301801827 1 0 -7.1054273576010019e-015 I I #
coedge $-1 $513 $514 $379 $441 forward $507 $-1 #
edge $-1 $443 0 $510 1.570796326794895 $379 $515 forward 7 unknown #
coedge $-1 $395 $380 $514 $516 reversed $396 $-1 #
vertex $-1 $381 $517 #
straight-curve $-1 0 57.672992081311982 11.175853767391258 -1 0 0 I I #
point $-1 -0.25 57.672992081311982 11.175853767391258 #
coedge $-1 $422 $387 $518 $519 reversed $333 $-1 #
coedge $-1 $401 $520 $387 $448 reversed $467 $-1 #
edge $-1 $403 3.7122866128047616e-030 $521 0.84999999999999998 $387 $522 forward 7 unknown #
ellipse-curve $-1 -0.24999999999999878 57.907915236508465 11.090348731559839 3.9443045261048509e-030 -0.34202014332566738 -0.93969262078590898 -1.2212453270876722e-015 -0.23492315519648344 0.085505035831419107 1 I I #
face $-1 $523 $524 $3 $-1 $525 reversed single #
loop $-1 $-1 $393 $390 #
plane-surface $-1 -0.5 57.988169181919631 10.901512018376362 0 -0.93969262078590865 0.34202014332566816 0 0.34202014332566816 0.93969262078590865 forward_v I I I I #
coedge $-1 $463 $392 $526 $527 reversed $216 $-1 #
coedge $-1 $528 $529 $392 $455 forward $530 $-1 #
edge $-1 $531 0 $458 0.40000000000000147 $392 $532 forward 7 unknown #
coedge $-1 $533 $393 $395 $460 reversed $451 $-1 #
coedge $-1 $393 $534 $528 $535 reversed $451 $-1 #
vertex $-1 $455 $536 #
straight-curve $-1 -0.5 58.039472203418484 11.042465911494251 0 -0.34202014332568087 -0.93969262078590399 I I #
edge $-1 $537 0 $397 0.5 $395 $538 forward 7 unknown #
face $-1 $337 $396 $3 $-1 $539 forward single #
point $-1 -0.5 58.039472203418484 11.042465911494249 #
coedge $-1 $400 $453 $471 $540 reversed $216 $-1 #
coedge $-1 $541 $542 $400 $465 reversed $492 $-1 #
edge $-1 $543 1.6692294138669889e-015 $468 0.15000000000000491 $400 $544 forward 7 unknown #
coedge $-1 $520 $401 $542 $545 forward $467 $-1 #
loop $-1 $-1 $447 $546 #
vertex $-1 $402 $547 #
straight-curve $-1 -0.5 60.008508316609344 10.166168710226174 0 -0.93969262078590987 0.34202014332566461 I I #
point $-1 -0.5 60.008508316609344 10.166168710226174 #
coedge $-1 $548 $549 $463 $540 forward $406 $-1 #
coedge $-1 $411 $408 $550 $551 forward $349 $-1 #
coedge $-1 $408 $411 $552 $553 forward $349 $-1 #
coedge $-1 $549 $548 $408 $475 reversed $406 $-1 #
edge $-1 $554 6.0754982080920535e-016 $555 1.3500000000000005 $474 $556 forward 7 unknown #
coedge $-1 $550 $414 $409 $477 forward $486 $-1 #
edge $-1 $420 7.6096986936983093e-016 $481 0.49999999999999695 $409 $557 forward 7 unknown #
coedge $-1 $417 $552 $410 $479 reversed $492 $-1 #
edge $-1 $419 0 $480 0.50000000000000033 $410 $558 forward 7 unknown #
vertex $-1 $479 $559 #
vertex $-1 $477 $560 #
straight-curve $-1 0.5 59.512924218130991 9.9740843502813732 0 -0.93969262078590876 0.34202014332566788 I I #
coedge $-1 $561 $562 $413 $484 forward $524 $-1 #
edge $-1 $563 0 $487 0.40000000000000935 $413 $564 forward 7 unknown #
coedge $-1 $414 $565 $561 $566 reversed $486 $-1 #
loop $-1 $-1 $567 $523 #
vertex $-1 $484 $568 #
straight-curve $-1 0.5 58.073329108407179 9.9659652333780695 -1 0 0 I I #
coedge $-1 $518 $569 $416 $490 forward $570 $-1 #
edge $-1 $493 0 $497 0.40000000000000141 $416 $571 forward 7 unknown #
coedge $-1 $542 $417 $569 $572 forward $492 $-1 #
loop $-1 $-1 $464 $573 #
vertex $-1 $418 $574 #
straight-curve $-1 0.5 59.341914146468156 9.5042380398884188 -1 0 0 I I #
point $-1 0.5 59.341914146468156 9.5042380398884188 #
point $-1 0.5 58.073329108407187 9.9659652333780677 #
vertex $-1 $490 $575 #
straight-curve $-1 0.5 59.717791194782521 9.3674299825581517 -1 0 0 I I #
coedge $-1 $429 $436 $426 $500 forward $434 $-1 #
edge $-1 $438 0 $431 1.5707963267948069 $499 $576 forward 7 unknown #
coedge $-1 $534 $577 $428 $502 forward $451 $-1 #
edge $-1 $504 0 $563 0.15000000000000002 $428 $578 forward 7 unknown #
coedge $-1 $509 $429 $577 $579 forward $434 $-1 #
vertex $-1 $430 $580 #
straight-curve $-1 0.5 57.697452060092814 10.102773290708338 0 -0.93969262078590698 0.34202014332567238 I I #
point $-1 0.5 57.565895093182789 10.150656110773932 #
loop $-1 $-1 $514 $433 #
cone-surface $-1 0 60.32105987200687 9.6799470270212993 0 0.93969262078590854 -0.34202014332566849 0 0.17101007166283422 0.46984631039295421 1 I I 0 1 0.49999999999999994 forward I I I I #
coedge $-1 $436 $503 $513 $581 forward $434 $-1 #
vertex $-1 $441 $582 #
straight-curve $-1 0.5 57.41647697381773 10.471084301801826 0 0.34202014332567021 0.93969262078590787 I I #
point $-1 0.5 57.41647697381773 10.471084301801826 #
coedge $-1 $583 $440 $509 $581 reversed $507 $-1 #
coedge $-1 $440 $583 $442 $516 forward $507 $-1 #
ellipse-curve $-1 -5.5511151231257827e-017 57.501982009649147 10.706007456998305 -1.1093356479670463e-031 0.93969262078590832 -0.3420201433256691 5.5511151231257827e-017 0.17101007166283466 0.46984631039295444 1 I I #
edge $-1 $537 6.0754982080920969e-016 $443 0.38999999999999846 $442 $584 forward 7 unknown #
point $-1 0 57.672992081311982 11.17585376739126 #
coedge $-1 $585 $489 $446 $519 forward $570 $-1 #
edge $-1 $497 3.3384588277339935e-015 $521 0.85000000000000409 $446 $586 forward 7 unknown #
coedge $-1 $447 $466 $585 $587 reversed $467 $-1 #
vertex $-1 $519 $588 #
straight-curve $-1 -0.5 60.008508316609337 10.166168710226172 1 0 2.0898315757650006e-015 I I #
face $-1 $589 $486 $3 $-1 $590 reversed single #
loop $-1 $-1 $561 $450 #
plane-surface $-1 0.34999999999999998 57.697452060092814 10.102773290708338 -1 0 0 0 0.93969262078590865 -0.34202014332566816 forward_v I I I I #
coedge $-1 $565 $567 $453 $527 forward $486 $-1 #
edge $-1 $591 0 $531 0.15000000000000158 $453 $592 forward 7 unknown #
coedge $-1 $593 $454 $457 $535 forward $530 $-1 #
coedge $-1 $454 $593 $565 $594 reversed $530 $-1 #
loop $-1 $-1 $529 $589 #
vertex $-1 $527 $595 #
straight-curve $-1 -0.5 58.364046230233996 10.764703961046093 0 -0.93969262078590776 0.34202014332567032 I I #
coedge $-1 $577 $456 $583 $596 reversed $451 $-1 #
coedge $-1 $457 $501 $562 $597 forward $451 $-1 #
edge $-1 $458 0 $598 0.84999999999999998 $528 $599 forward 7 unknown #
point $-1 -0.5 57.988169181919631 10.90151201837636 #
vertex $-1 $460 $600 #
straight-curve $-1 0 58.039472203418484 11.042465911494251 -1 0 0 I I #
plane-surface $-1 0.5 60.492069943669705 10.149793337414254 0 0.34202014332566816 0.93969262078590865 -1 0 0 forward_v I I I I #
edge $-1 $543 6.0754982080920535e-016 $591 1.3500000000000005 $471 $601 forward 7 unknown #
coedge $-1 $552 $464 $549 $602 reversed $492 $-1 #
coedge $-1 $464 $491 $466 $545 reversed $492 $-1 #
vertex $-1 $602 $603 #
straight-curve $-1 -0.5 59.683934289793825 10.443930660674331 0 -0.3420201433256771 -0.93969262078590532 I I #
edge $-1 $468 0 $604 0.84999999999999998 $466 $605 forward 7 unknown #
face $-1 $573 $467 $3 $-1 $606 reversed single #
point $-1 -0.5 59.632631268294972 10.302976767556441 #
coedge $-1 $474 $471 $567 $607 reversed $406 $-1 #
coedge $-1 $471 $474 $541 $602 forward $406 $-1 #
coedge $-1 $567 $476 $472 $551 reversed $486 $-1 #
edge $-1 $555 0 $481 1.5707963267948901 $472 $608 forward 7 unknown #
coedge $-1 $478 $541 $473 $553 reversed $492 $-1 #
edge $-1 $480 -3.3384588277339572e-015 $554 1.5707963267948835 $473 $609 forward 7 unknown #
vertex $-1 $602 $610 #
vertex $-1 $475 $611 #
straight-curve $-1 0 59.683934289793825 10.443930660674328 0 -0.93969262078590843 0.34202014332566849 I I #
straight-curve $-1 0.5 58.073329108407179 9.9659652333780695 0 0.3420201433256691 0.93969262078590821 I I #
straight-curve $-1 0.5 59.341914146468156 9.5042380398884188 0 0.3420201433256691 0.93969262078590821 I I #
point $-1 0.5 59.512924218130991 9.9740843502813732 #
point $-1 0.5 58.244339180070014 10.43581154377102 #
coedge $-1 $612 $483 $485 $566 forward $524 $-1 #
coedge $-1 $483 $612 $534 $597 reversed $524 $-1 #
vertex $-1 $502 $613 #
straight-curve $-1 0.34999999999999998 57.697452060092814 10.102773290708338 0 0.93969262078590832 -0.34202014332566849 I I #
coedge $-1 $485 $526 $529 $594 forward $486 $-1 #
edge $-1 $487 4.0994286971037886e-015 $614 0.85000000000000409 $485 $615 forward 7 unknown #
coedge $-1 $526 $550 $548 $607 forward $486 $-1 #
point $-1 0.34999999999999998 58.073329108407187 9.9659652333780677 #
coedge $-1 $489 $585 $491 $572 reversed $570 $-1 #
loop $-1 $-1 $518 $616 #
straight-curve $-1 0.34999999999999998 59.341914146468156 9.5042380398884188 0 0.93969262078590921 -0.34202014332566638 I I #
edge $-1 $493 0 $604 0.85000000000000098 $491 $617 forward 7 unknown #
face $-1 $616 $492 $3 $-1 $618 reversed single #
point $-1 0.34999999999999998 59.341914146468156 9.5042380398884188 #
point $-1 0.34999999999999998 59.717791194782521 9.3674299825581517 #
ellipse-curve $-1 0.5 57.65140012901422 10.385579265970415 1 0 0 0 -0.23492315519649054 0.085505035831410225 1 I I #
coedge $-1 $501 $533 $503 $579 reversed $451 $-1 #
straight-curve $-1 0.5 57.697452060092814 10.102773290708338 -1 0 0 I I #
edge $-1 $504 0 $619 0.50000000000000033 $503 $620 forward 7 unknown #
point $-1 0.5 57.697452060092814 10.102773290708338 #
edge $-1 $619 0 $510 0.38999999999999119 $509 $621 forward 7 unknown #
point $-1 0.5 57.501982009649154 10.706007456998304 #
coedge $-1 $514 $513 $533 $596 forward $507 $-1 #
straight-curve $-1 0 58.039472203418484 11.042465911494247 0 -0.93969262078590754 0.34202014332567104 I I #
coedge $-1 $569 $518 $520 $587 forward $570 $-1 #
straight-curve $-1 0.34999999999999998 59.717791194782521 9.3674299825581482 0 0.34202014332566499 0.93969262078590976 I I #
edge $-1 $521 0 $604 0.40000000000000141 $520 $622 forward 7 unknown #
point $-1 0.34999999999999998 60.008508316609337 10.166168710226176 #
face $-1 $546 $530 $3 $-1 $623 reversed single #
plane-surface $-1 -0.5 58.415349251732849 10.90565785416398 0 0.93969262078590865 -0.34202014332566816 0 -0.34202014332566816 -0.93969262078590865 forward_v I I I I #
vertex $-1 $607 $624 #
straight-curve $-1 -0.5 58.415349251732849 10.90565785416398 0 -0.34202014332568087 -0.93969262078590399 I I #
coedge $-1 $529 $528 $612 $625 reversed $530 $-1 #
edge $-1 $531 0 $614 0.84999999999999998 $565 $626 forward 7 unknown #
point $-1 -0.5 58.364046230233996 10.764703961046093 #
edge $-1 $619 -3.3384588277339572e-015 $537 1.5707963267948835 $583 $627 forward 7 unknown #
edge $-1 $563 0 $598 0.84999999999999931 $534 $628 forward 7 unknown #
vertex $-1 $625 $629 #
straight-curve $-1 -0.5 57.988169181919631 10.90151201837636 1 0 0 I I #
point $-1 0 58.039472203418484 11.042465911494249 #
straight-curve $-1 -0.5 59.683934289793825 10.443930660674328 0 -0.93969262078590843 0.34202014332566849 I I #
edge $-1 $554 0 $543 0.5 $549 $630 forward 7 unknown #
point $-1 -0.5 59.683934289793825 10.443930660674329 #
vertex $-1 $587 $631 #
straight-curve $-1 -0.5 59.632631268294972 10.302976767556443 1 0 0 I I #
plane-surface $-1 -0.5 60.008508316609337 10.166168710226176 0 -0.34202014332566816 -0.93969262078590865 0 -0.93969262078590865 0.34202014332566816 forward_v I I I I #
edge $-1 $555 0 $591 0.5 $548 $632 forward 7 unknown #
ellipse-curve $-1 -4.9404924595819466e-015 58.244339180070014 10.435811543771022 1.7354939914862005e-029 0.93969262078590909 -0.34202014332566683 4.9404924595819466e-015 0.17101007166283466 0.46984631039295799 1 I I #
ellipse-curve $-1 -4.8849813083506888e-015 59.512924218130991 9.9740843502813732 -1.2150996416183985e-015 -0.93969262078590865 0.34202014332566849 0.50000000000000488 0 1.7763568394002505e-015 1 I I #
point $-1 0 59.683934289793825 10.443930660674329 #
point $-1 0 58.415349251732849 10.90565785416398 #
coedge $-1 $562 $561 $593 $625 forward $524 $-1 #
point $-1 0.34999999999999998 57.697452060092814 10.102773290708338 #
vertex $-1 $566 $633 #
straight-curve $-1 0.34999999999999998 58.073329108407179 9.9659652333780659 0 0.34202014332566433 0.93969262078590998 I I #
face $-1 $-1 $570 $3 $-1 $634 reversed single #
straight-curve $-1 0.34999999999999998 59.341914146468156 9.5042380398884188 0 0.34202014332566633 0.93969262078590921 I I #
plane-surface $-1 -0.5 59.632631268294972 10.302976767556443 0 -0.93969262078590865 0.34202014332566816 0 0.34202014332566816 0.93969262078590865 forward_v I I I I #
vertex $-1 $579 $635 #
straight-curve $-1 0.5 57.697452060092814 10.102773290708338 0 0.34202014332566794 0.93969262078590865 I I #
straight-curve $-1 0.5 57.868462131755649 10.572619601101293 0 -0.93969262078590543 0.34202014332567687 I I #
straight-curve $-1 0.34999999999999998 60.008508316609337 10.166168710226176 0 -0.93969262078590921 0.34202014332566638 I I #
plane-surface $-1 -0.5 58.364046230233996 10.764703961046093 0 -0.34202014332566816 -0.93969262078590865 0 -0.93969262078590865 0.34202014332566816 forward_v I I I I #
point $-1 -0.5 58.415349251732849 10.90565785416398 #
edge $-1 $614 0 $598 0.40000000000000141 $593 $636 forward 7 unknown #
straight-curve $-1 -0.5 58.364046230233996 10.764703961046092 1 0 0 I I #
ellipse-curve $-1 -4.8849813083506888e-015 57.868462131755649 10.572619601101293 -1.2150996416183985e-015 -0.93969262078590865 0.34202014332566849 0.50000000000000488 0 1.7763568394002505e-015 1 I I #
straight-curve $-1 0.34999999999999998 57.697452060092814 10.102773290708338 0 0.34202014332566633 0.93969262078590921 I I #
point $-1 0.34999999999999998 57.988169181919631 10.90151201837636 #
straight-curve $-1 0 59.683934289793825 10.443930660674331 -1 0 0 I I #
point $-1 0.34999999999999998 59.632631268294972 10.302976767556443 #
straight-curve $-1 0 58.415349251732849 10.90565785416398 -1 0 0 I I #
point $-1 0.34999999999999998 58.364046230233996 10.764703961046093 #
plane-surface $-1 0.34999999999999998 59.341914146468156 9.5042380398884188 -1 0 0 0 0.93969262078590865 -0.34202014332566816 forward_v I I I I #
point $-1 0.5 57.868462131755649 10.572619601101293 #
straight-curve $-1 0.34999999999999998 58.364046230233996 10.764703961046093 0 -0.93969262078590921 0.34202014332566638 I I #
End-of-ACIS-data 