600 0 1 0           
94 GICL Pro/E ACIS Translator - Source: f:/data5/repository/PTC/V18/lrgasm18/leg_3_ml.prt.2 - 6 0 13 ACIS 6.0.3 NT 24 Thu Apr 04 13:34:37 2002 
1 9.9999999999999995e-007 1e-010 
body $-1 $1 $-1 $2 #
lump $-1 $-1 $3 $0 #
transform $-1 1 0 0 0 1 0 0 0 1 0 0 0 25.399999999999999 no_rotate no_reflect no_shear #
shell $-1 $-1 $-1 $4 $-1 $1 #
face $-1 $5 $6 $3 $-1 $7 reversed single #
face $-1 $8 $9 $3 $-1 $10 forward single #
loop $-1 $-1 $11 $4 #
plane-surface $-1 -135 36 -14 1 0 0 0 0 1 forward_v I I I I #
face $-1 $12 $13 $3 $-1 $14 forward single #
loop $-1 $-1 $15 $5 #
plane-surface $-1 -135 29.25 16 0 0 -1 0 1 0 forward_v I I I I #
coedge $-1 $16 $17 $18 $19 forward $6 $-1 #
face $-1 $20 $21 $3 $-1 $22 forward single #
loop $-1 $-1 $23 $8 #
plane-surface $-1 -135 29.75 16 0 1 0 0 0 1 forward_v I I I I #
coedge $-1 $24 $18 $25 $26 reversed $9 $-1 #
coedge $-1 $27 $11 $28 $29 forward $6 $-1 #
coedge $-1 $11 $30 $31 $32 forward $6 $-1 #
coedge $-1 $15 $33 $11 $19 reversed $9 $-1 #
edge $-1 $34 0 $35 0.5 $11 $36 forward 7 unknown #
face $-1 $37 $38 $3 $-1 $39 forward single #
loop $-1 $-1 $40 $12 #
cone-surface $-1 -135 28.75 17 1 0 0 0 0 1 1 I I 0 1 1 forward I I I I #
coedge $-1 $41 $31 $42 $43 reversed $13 $-1 #
coedge $-1 $33 $15 $44 $45 forward $9 $-1 #
coedge $-1 $31 $41 $15 $26 forward $13 $-1 #
edge $-1 $46 0 $34 4 $25 $47 forward 7 unknown #
coedge $-1 $48 $16 $49 $50 forward $6 $-1 #
coedge $-1 $51 $52 $16 $29 reversed $53 $-1 #
edge $-1 $35 0 $54 1 $16 $55 forward 7 unknown #
coedge $-1 $17 $56 $57 $58 forward $6 $-1 #
coedge $-1 $23 $25 $17 $32 reversed $13 $-1 #
edge $-1 $59 0 $34 1 $17 $60 forward 7 unknown #
coedge $-1 $18 $24 $51 $61 forward $9 $-1 #
vertex $-1 $32 $62 #
vertex $-1 $29 $63 #
straight-curve $-1 -135 29.75 16 0 -1 0 I I #
face $-1 $64 $65 $3 $-1 $66 reversed single #
loop $-1 $-1 $67 $20 #
plane-surface $-1 -135 28.75 18 0 0 1 0 -1 0 forward_v I I I I #
coedge $-1 $68 $57 $69 $70 reversed $21 $-1 #
coedge $-1 $25 $23 $71 $72 forward $13 $-1 #
coedge $-1 $57 $68 $23 $43 forward $21 $-1 #
edge $-1 $73 0 $59 4 $23 $74 forward 7 unknown #
coedge $-1 $71 $75 $24 $45 reversed $76 $-1 #
edge $-1 $46 0 $77 0.5 $44 $78 forward 7 unknown #
vertex $-1 $72 $79 #
straight-curve $-1 -131 29.75 16 -1 0 0 I I #
coedge $-1 $80 $27 $81 $82 forward $6 $-1 #
coedge $-1 $83 $84 $27 $50 reversed $85 $-1 #
edge $-1 $54 0 $86 1.5707963267948966 $27 $87 forward 7 unknown #
coedge $-1 $88 $28 $33 $61 reversed $53 $-1 #
coedge $-1 $28 $88 $83 $89 forward $53 $-1 #
loop $-1 $-1 $51 $90 #
vertex $-1 $50 $91 #
straight-curve $-1 -135 29.25 16 0 0 1 I I #
coedge $-1 $30 $92 $93 $94 forward $6 $-1 #
coedge $-1 $40 $42 $30 $58 reversed $21 $-1 #
edge $-1 $95 0 $59 1.5707963267948966 $30 $96 forward 7 unknown #
vertex $-1 $32 $97 #
straight-curve $-1 -135 29.75 17 0 0 -1 I I #
edge $-1 $77 0 $35 4 $51 $98 forward 7 unknown #
point $-1 -135 29.75 16 #
point $-1 -135 29.25 16 #
face $-1 $99 $100 $3 $-1 $101 forward single #
loop $-1 $-1 $102 $37 #
cone-surface $-1 -135 0.75 18.5 1 0 0 0 0 0.5 1 I I 0 1 0.5 forward I I I I #
coedge $-1 $103 $93 $104 $105 reversed $38 $-1 #
coedge $-1 $42 $40 $106 $107 forward $21 $-1 #
coedge $-1 $93 $103 $40 $70 forward $38 $-1 #
edge $-1 $108 0 $95 4 $40 $109 forward 7 unknown #
coedge $-1 $106 $44 $41 $72 reversed $76 $-1 #
edge $-1 $73 0 $46 1 $71 $110 forward 7 unknown #
vertex $-1 $72 $111 #
straight-curve $-1 -131 29.75 17 -1 0 0 I I #
coedge $-1 $44 $112 $88 $113 reversed $76 $-1 #
loop $-1 $-1 $106 $114 #
vertex $-1 $45 $115 #
straight-curve $-1 -131 29.75 16 0 -1 0 I I #
point $-1 -131 29.75 16 #
coedge $-1 $116 $48 $117 $118 forward $6 $-1 #
coedge $-1 $119 $120 $48 $82 reversed $121 $-1 #
edge $-1 $86 0 $122 28 $48 $123 forward 7 unknown #
coedge $-1 $124 $49 $52 $89 reversed $85 $-1 #
coedge $-1 $49 $124 $119 $125 forward $85 $-1 #
loop $-1 $-1 $83 $126 #
vertex $-1 $82 $127 #
ellipse-curve $-1 -135 28.75 17 1 0 0 0 0.5 0 1 I I #
coedge $-1 $52 $51 $75 $113 forward $53 $-1 #
edge $-1 $128 0 $54 4 $83 $129 forward 7 unknown #
face $-1 $114 $53 $3 $-1 $130 forward single #
point $-1 -135 29.25 17 #
coedge $-1 $56 $131 $132 $133 forward $6 $-1 #
coedge $-1 $67 $69 $56 $94 reversed $38 $-1 #
edge $-1 $134 0 $95 28 $56 $135 forward 7 unknown #
vertex $-1 $58 $136 #
ellipse-curve $-1 -135 28.75 17 -1 0 0 0 0 1 1 I I #
point $-1 -135 29.75 17 #
straight-curve $-1 -131 29.25 16 -1 0 0 I I #
face $-1 $137 $138 $3 $-1 $139 forward single #
loop $-1 $-1 $140 $64 #
plane-surface $-1 -135 0.25 18.5 0 1 0 0 0 1 forward_v I I I I #
coedge $-1 $141 $132 $142 $143 reversed $65 $-1 #
coedge $-1 $69 $67 $144 $145 forward $38 $-1 #
coedge $-1 $132 $141 $67 $105 forward $65 $-1 #
edge $-1 $146 0 $134 4 $67 $147 forward 7 unknown #
coedge $-1 $144 $71 $68 $107 reversed $76 $-1 #
edge $-1 $108 0 $73 1.5707963267948895 $106 $148 forward 7 unknown #
vertex $-1 $145 $149 #
straight-curve $-1 -131 28.75 18 -1 0 0 I I #
straight-curve $-1 -131 29.75 17 0 0 -1 I I #
point $-1 -131 29.75 17 #
coedge $-1 $75 $150 $124 $151 reversed $76 $-1 #
edge $-1 $77 0 $128 1 $75 $152 forward 7 unknown #
face $-1 $-1 $76 $3 $-1 $153 forward single #
point $-1 -131 29.25 16 #
coedge $-1 $154 $80 $155 $156 forward $6 $-1 #
coedge $-1 $157 $158 $80 $118 reversed $159 $-1 #
edge $-1 $122 0 $160 1.5707963267948966 $80 $161 forward 7 unknown #
coedge $-1 $162 $81 $84 $125 reversed $121 $-1 #
coedge $-1 $81 $162 $157 $163 forward $121 $-1 #
loop $-1 $-1 $119 $164 #
vertex $-1 $118 $165 #
straight-curve $-1 -135 28.75 17.5 0 -1 0 I I #
coedge $-1 $84 $83 $112 $151 forward $85 $-1 #
edge $-1 $166 0 $86 4 $119 $167 forward 7 unknown #
face $-1 $90 $85 $3 $-1 $168 reversed single #
point $-1 -135 28.75 17.5 #
vertex $-1 $113 $169 #
straight-curve $-1 -131 29.25 17 -1 0 0 I I #
plane-surface $-1 -135 29.25 17 0 -1 0 0 0 -1 forward_v I I I I #
coedge $-1 $92 $154 $170 $171 forward $6 $-1 #
coedge $-1 $102 $104 $92 $133 reversed $65 $-1 #
edge $-1 $172 0 $134 1.5707963267948966 $92 $173 forward 7 unknown #
vertex $-1 $94 $174 #
straight-curve $-1 -135 0.75 18 0 1 0 I I #
point $-1 -135 28.75 18 #
face $-1 $175 $176 $3 $-1 $177 forward single #
loop $-1 $-1 $178 $99 #
plane-surface $-1 -135 0.25 20 0 0 1 0 -1 0 forward_v I I I I #
coedge $-1 $179 $170 $180 $181 reversed $100 $-1 #
coedge $-1 $104 $102 $182 $183 forward $65 $-1 #
coedge $-1 $170 $179 $102 $143 forward $100 $-1 #
edge $-1 $184 0 $172 4 $102 $185 forward 7 unknown #
coedge $-1 $182 $106 $103 $145 reversed $76 $-1 #
edge $-1 $146 -1.1102230246251565e-016 $108 28 $144 $186 forward 7 unknown #
vertex $-1 $183 $187 #
straight-curve $-1 -131 0.75 18 -1 0 0 I I #
ellipse-curve $-1 -131 28.749999999999996 16.999999999999996 -1 0 0 0 3.5527136788005009e-015 1.0000000000000036 1 I I #
point $-1 -131 28.75 18 #
coedge $-1 $112 $188 $162 $189 reversed $76 $-1 #
edge $-1 $128 0 $166 1.570796326794925 $112 $190 forward 7 unknown #
straight-curve $-1 -131 29.25 16 0 0 1 I I #
plane-surface $-1 -131 36 -14 1 0 0 0 0 1 forward_v I I I I #
coedge $-1 $131 $116 $191 $192 forward $6 $-1 #
coedge $-1 $193 $194 $116 $156 reversed $176 $-1 #
edge $-1 $160 0 $195 1.5 $116 $196 forward 7 unknown #
coedge $-1 $197 $117 $120 $163 reversed $159 $-1 #
coedge $-1 $117 $197 $193 $198 forward $159 $-1 #
loop $-1 $-1 $157 $175 #
vertex $-1 $156 $199 #
ellipse-curve $-1 -135 0.75 18.5 -1 0 0 0 0 -1 1 I I #
coedge $-1 $120 $119 $150 $189 forward $121 $-1 #
edge $-1 $200 0 $122 4 $157 $201 forward 7 unknown #
face $-1 $126 $121 $3 $-1 $202 forward single #
point $-1 -135 0.75 17.5 #
vertex $-1 $151 $203 #
straight-curve $-1 -131 28.75 17.5 -1 0 0 I I #
cone-surface $-1 -135 28.75 17 1 0 0 0 0 0.5 1 I I 0 1 0.5 forward I I I I #
point $-1 -131 29.25 17 #
coedge $-1 $140 $142 $131 $171 reversed $100 $-1 #
edge $-1 $204 0 $172 1.5 $131 $205 forward 7 unknown #
vertex $-1 $133 $206 #
ellipse-curve $-1 -135 0.75 18.5 1 0 0 0 -0.5 0 1 I I #
point $-1 -135 0.75 18 #
face $-1 $164 $159 $3 $-1 $207 forward single #
loop $-1 $-1 $193 $137 #
plane-surface $-1 -135 -0.25 20 0 -1 0 0 0 -1 forward_v I I I I #
coedge $-1 $208 $191 $194 $209 reversed $138 $-1 #
coedge $-1 $142 $140 $210 $211 forward $100 $-1 #
coedge $-1 $191 $208 $140 $181 forward $138 $-1 #
edge $-1 $212 0 $204 4 $140 $213 forward 7 unknown #
coedge $-1 $210 $144 $141 $183 reversed $76 $-1 #
edge $-1 $184 0 $146 1.5707963267948963 $182 $214 forward 7 unknown #
vertex $-1 $211 $215 #
straight-curve $-1 -131 0.25 18.5 -1 0 0 I I #
straight-curve $-1 -131 0.75 18 0 1 0 I I #
point $-1 -131 0.74999999999999989 18 #
coedge $-1 $150 $216 $197 $217 reversed $76 $-1 #
edge $-1 $166 0 $200 28 $150 $218 forward 7 unknown #
ellipse-curve $-1 -131 28.750000000000007 17.000000000000007 1 0 0 0 0.49999999999999289 -7.1054273576010019e-015 1 I I #
coedge $-1 $178 $180 $154 $192 reversed $138 $-1 #
edge $-1 $195 0 $204 0.5 $154 $219 forward 7 unknown #
coedge $-1 $220 $155 $158 $198 reversed $176 $-1 #
coedge $-1 $155 $220 $178 $209 forward $176 $-1 #
vertex $-1 $192 $221 #
straight-curve $-1 -135 -0.25 18.5 0 0 1 I I #
coedge $-1 $158 $157 $188 $217 forward $159 $-1 #
edge $-1 $222 0 $160 4 $193 $223 forward 7 unknown #
point $-1 -135 -0.25 18.5 #
vertex $-1 $189 $224 #
straight-curve $-1 -131 0.75 17.5 -1 -2.7755575615628914e-017 0 I I #
plane-surface $-1 -135 0.75 17.5 0 0 -1 0 1 0 forward_v I I I I #
point $-1 -131 28.75 17.5 #
vertex $-1 $171 $225 #
straight-curve $-1 -135 0.25 20 0 0 -1 I I #
point $-1 -135 0.25 18.5 #
cone-surface $-1 -135 0.75 18.5 1 0 0 0 0 1 1 I I 0 1 1 forward I I I I #
coedge $-1 $180 $178 $226 $227 forward $138 $-1 #
edge $-1 $228 0 $195 4 $178 $229 forward 7 unknown #
coedge $-1 $226 $182 $179 $211 reversed $76 $-1 #
edge $-1 $212 0 $184 1.5 $210 $230 forward 7 unknown #
vertex $-1 $227 $231 #
straight-curve $-1 -131 0.25 20 -1 0 0 I I #
ellipse-curve $-1 -131 0.75 18.5 1 0 0 0 -0.5 0 1 I I #
point $-1 -131 0.25 18.5 #
coedge $-1 $188 $226 $220 $232 reversed $76 $-1 #
edge $-1 $200 0 $222 1.5707963267948895 $188 $233 forward 7 unknown #
straight-curve $-1 -131 28.75 17.5 0 -1 0 I I #
straight-curve $-1 -135 -0.25 20 0 1 0 I I #
coedge $-1 $194 $193 $216 $232 forward $176 $-1 #
point $-1 -135 -0.25 20 #
vertex $-1 $217 $234 #
straight-curve $-1 -131 -0.25 18.5 -1 0 0 I I #
point $-1 -131 0.75 17.5 #
point $-1 -135 0.25 20 #
coedge $-1 $216 $210 $208 $227 reversed $76 $-1 #
edge $-1 $228 0 $212 0.5 $226 $235 forward 7 unknown #
vertex $-1 $232 $236 #
straight-curve $-1 -131 -0.25 20 -1 0 0 I I #
straight-curve $-1 -131 0.25 20 0 0 -1 I I #
point $-1 -131 0.25 20 #
edge $-1 $222 0 $228 1.5 $216 $237 forward 7 unknown #
ellipse-curve $-1 -131 0.75000000000000711 18.5 -1 0 0 0 -7.1054273576010019e-015 -1 1 I I #
point $-1 -131 -0.25 18.5 #
straight-curve $-1 -131 -0.25 20 0 1 0 I I #
point $-1 -131 -0.25 20 #
straight-curve $-1 -131 -0.25 18.5 0 0 1 I I #
End-of-ACIS-data 