600 0 1 0           
91 GICL Pro/E ACIS Translator - Source: f:/data5/repository/PTC/V18/lrgasm18/motor.prt.2 - 6 0 13 ACIS 6.0.3 NT 24 Thu Apr 04 13:35:04 2002 
1 9.9999999999999995e-007 1e-010 
body $-1 $1 $-1 $2 #
lump $-1 $-1 $3 $0 #
transform $-1 1 0 0 0 1 0 0 0 1 0 0 0 25.399999999999999 no_rotate no_reflect no_shear #
shell $-1 $-1 $-1 $4 $-1 $1 #
face $-1 $5 $6 $3 $-1 $7 forward single #
face $-1 $8 $9 $3 $-1 $10 reversed single #
loop $-1 $-1 $11 $4 #
torus-surface $-1 -5 0 0 1 0 0 2.5 1 0 -1 0 forward_v I I I I #
face $-1 $12 $13 $3 $-1 $14 forward single #
loop $-1 $-1 $15 $5 #
plane-surface $-1 -6 0 0 1 0 0 0 -1 0 forward_v I I I I #
coedge $-1 $16 $17 $15 $18 forward $6 $-1 #
face $-1 $19 $20 $3 $-1 $21 forward single #
loop $-1 $-1 $22 $8 #
torus-surface $-1 -5 0 0 1 0 0 2.5 1 0 -1 0 forward_v I I I I #
coedge $-1 $23 $23 $11 $18 reversed $9 $-1 #
coedge $-1 $24 $11 $25 $26 reversed $6 $-1 #
coedge $-1 $11 $24 $27 $28 forward $6 $-1 #
edge $-1 $29 1.2246063538223773e-016 $30 3.1415926535897931 $11 $31 forward 7 unknown #
face $-1 $32 $33 $3 $-1 $34 reversed single #
loop $-1 $-1 $35 $12 #
cone-surface $-1 -6.6779999999999999 0 0 1 0 0 0 -3.5 0 1 I I 0 1 3.5 forward I I I I #
coedge $-1 $25 $27 $36 $37 forward $13 $-1 #
coedge $-1 $15 $15 $38 $39 forward $9 $-1 #
coedge $-1 $17 $16 $40 $41 reversed $6 $-1 #
coedge $-1 $38 $22 $16 $26 forward $13 $-1 #
edge $-1 $42 0 $30 1.5707963267948939 $16 $43 forward 7 unknown #
coedge $-1 $22 $38 $17 $28 reversed $13 $-1 #
edge $-1 $44 0 $29 1.5707963267948939 $17 $45 forward 7 unknown #
vertex $-1 $28 $46 #
vertex $-1 $26 $47 #
ellipse-curve $-1 -6 0 0 1 0 0 0 2.5 0 1 I I #
face $-1 $48 $49 $3 $-1 $50 forward single #
loop $-1 $-1 $51 $19 #
plane-surface $-1 -4.5 0 0 1 0 0 0 0 -1 forward_v I I I I #
coedge $-1 $52 $53 $54 $55 reversed $20 $-1 #
coedge $-1 $56 $52 $22 $37 reversed $20 $-1 #
edge $-1 $44 0 $42 3.1415926535897931 $22 $57 forward 7 unknown #
coedge $-1 $27 $25 $23 $39 reversed $13 $-1 #
edge $-1 $29 -1.2246063538223773e-016 $30 3.1415926535897931 $23 $58 forward 7 unknown #
coedge $-1 $59 $60 $24 $41 forward $49 $-1 #
edge $-1 $44 0 $42 3.1415926535897931 $24 $61 forward 7 unknown #
vertex $-1 $41 $62 #
ellipse-curve $-1 -4.9999999999999982 -2.4999999999999991 -6.1230317691118823e-016 2.1287226909847989e-031 2.449212707644756e-016 -1 -1.7763568394002505e-015 -1.0000000000000009 -2.4492127076447585e-016 1 I I #
vertex $-1 $28 $63 #
ellipse-curve $-1 -4.9999999999999982 2.4999999999999991 3.0615158845559412e-016 1.0643613454923994e-031 -1.224606353822378e-016 1 -1.7763568394002505e-015 1.0000000000000009 1.2246063538223792e-016 1 I I #
point $-1 -6 2.5 3.0615158845559431e-016 #
point $-1 -6 -2.5 0 #
face $-1 $64 $65 $3 $-1 $66 forward single #
loop $-1 $67 $68 $32 #
cone-surface $-1 -6.6779999999999999 0 0 1 0 0 0 -3.5 0 1 I I 0 1 3.5 forward I I I I #
coedge $-1 $54 $69 $70 $71 forward $33 $-1 #
coedge $-1 $36 $35 $59 $72 forward $20 $-1 #
coedge $-1 $35 $73 $74 $75 reversed $20 $-1 #
coedge $-1 $76 $51 $35 $55 forward $33 $-1 #
edge $-1 $77 6.8901048057635335e-016 $78 0.79560295344171006 $35 $79 forward 7 unknown #
coedge $-1 $80 $36 $60 $81 reversed $20 $-1 #
ellipse-curve $-1 -5 0 0 -1 0 0 0 3.5 4.2861222383783204e-016 1 I I #
ellipse-curve $-1 -6 0 0 -1 0 0 0 2.5 0 1 I I #
coedge $-1 $70 $40 $52 $72 reversed $49 $-1 #
coedge $-1 $40 $82 $56 $81 forward $49 $-1 #
ellipse-curve $-1 -5 0 0 1 0 0 0 3.5 4.2861222383783204e-016 1 I I #
point $-1 -5 -3.5 0 #
point $-1 -5 3.5 4.2861222383783204e-016 #
face $-1 $83 $84 $3 $-1 $85 forward single #
loop $-1 $-1 $86 $48 #
plane-surface $-1 -4 0 0 1 0 0 0 0 -1 forward_v I I I I #
loop $-1 $-1 $87 $32 #
coedge $-1 $88 $89 $86 $90 forward $49 $-1 #
coedge $-1 $51 $91 $92 $93 reversed $33 $-1 #
coedge $-1 $89 $59 $51 $71 reversed $49 $-1 #
edge $-1 $94 -2.4074347954871327e-012 $77 0.79560295343930376 $70 $95 forward 7 unknown #
edge $-1 $77 0 $42 0.5 $59 $96 forward 7 unknown #
coedge $-1 $53 $97 $98 $99 forward $20 $-1 #
coedge $-1 $100 $101 $53 $75 forward $102 $-1 #
edge $-1 $78 0 $103 0.5 $53 $104 forward 7 unknown #
coedge $-1 $91 $54 $101 $105 reversed $33 $-1 #
vertex $-1 $71 $106 #
vertex $-1 $75 $107 #
ellipse-curve $-1 -4.5 1.9345569590711875e-010 3.8996195161900005e-011 1 0 0 0 -3.5000000001934559 -3.899774947413448e-011 1 I I #
coedge $-1 $108 $56 $109 $110 forward $20 $-1 #
edge $-1 $111 8.8817841970012523e-016 $44 10 $60 $112 forward 7 unknown #
coedge $-1 $60 $113 $114 $115 reversed $49 $-1 #
face $-1 $116 $117 $3 $-1 $118 forward single #
loop $-1 $-1 $92 $64 #
plane-surface $-1 -4.5 -2.4494897428098548 2.500000000015401 0 0.50000000000000011 0.8660254037844386 0 -0.86602540378443837 0.5 forward_v I I I I #
coedge $-1 $119 $98 $68 $90 reversed $65 $-1 #
coedge $-1 $120 $121 $122 $123 forward $67 $-1 #
coedge $-1 $124 $68 $97 $125 reversed $49 $-1 #
coedge $-1 $68 $70 $126 $127 forward $49 $-1 #
edge $-1 $128 -2.4075072998479165e-012 $129 0.79560295343930254 $68 $130 forward 7 unknown #
coedge $-1 $69 $76 $131 $132 reversed $33 $-1 #
coedge $-1 $133 $126 $69 $93 forward $84 $-1 #
edge $-1 $94 -3.1363672446568287e-011 $134 1.9999999999686358 $69 $135 forward 7 unknown #
vertex $-1 $127 $136 #
ellipse-curve $-1 -4.5 1.9345680613014338e-010 -3.8996361695353698e-011 1 0 0 0 -2.449489743003797 2.500000000054678 1 I I #
straight-curve $-1 -4.5 -3.5 -3.9658489166261024e-015 -1 0 6.2172489379008766e-015 I I #
coedge $-1 $73 $137 $88 $125 forward $20 $-1 #
coedge $-1 $86 $138 $73 $99 reversed $65 $-1 #
edge $-1 $129 0 $103 0.79560295344171028 $73 $139 forward 7 unknown #
coedge $-1 $140 $74 $138 $141 reversed $102 $-1 #
coedge $-1 $74 $140 $76 $105 forward $102 $-1 #
loop $-1 $-1 $100 $116 #
vertex $-1 $75 $142 #
straight-curve $-1 -4.5 -2.4494897427831779 -2.5 1 0 0 I I #
edge $-1 $143 0 $78 1.9999999999999996 $76 $144 forward 7 unknown #
point $-1 -4.5 -3.5 -3.9658489166261024e-015 #
point $-1 -4.5 -2.4494897427831779 -2.5 #
coedge $-1 $145 $80 $113 $146 forward $20 $-1 #
coedge $-1 $147 $148 $80 $110 reversed $149 $-1 #
edge $-1 $111 0 $150 3.1415926535897931 $109 $151 forward 7 unknown #
vertex $-1 $152 $153 #
straight-curve $-1 5.0000000000000009 3.5 4.2861222383783204e-016 -1 0 0 I I #
coedge $-1 $82 $154 $108 $146 reversed $49 $-1 #
coedge $-1 $155 $156 $82 $115 forward $157 $-1 #
edge $-1 $111 0 $150 3.1415926535897931 $114 $158 forward 7 unknown #
face $-1 $159 $102 $3 $-1 $160 forward single #
loop $-1 $-1 $161 $83 #
plane-surface $-1 -4.5 -4.1815405503520546 3.5 0 -1 0 0 0 -1 forward_v I I I I #
coedge $-1 $162 $86 $163 $164 forward $65 $-1 #
coedge $-1 $165 $87 $166 $167 forward $67 $-1 #
coedge $-1 $87 $165 $168 $169 reversed $67 $-1 #
coedge $-1 $170 $171 $87 $123 reversed $172 $-1 #
edge $-1 $173 0 $174 3 $87 $175 forward 7 unknown #
coedge $-1 $176 $88 $177 $178 reversed $49 $-1 #
edge $-1 $179 8.8817841970012523e-016 $129 8 $88 $180 forward 7 unknown #
coedge $-1 $92 $163 $89 $127 reversed $84 $-1 #
edge $-1 $94 0 $128 0.5 $89 $181 forward 7 unknown #
vertex $-1 $127 $182 #
vertex $-1 $125 $183 #
ellipse-curve $-1 -4 1.9345725021935323e-010 -3.8996639251109855e-011 1 0 0 0 -2.4494897430037974 2.5000000000546785 1 I I #
coedge $-1 $161 $184 $91 $132 forward $117 $-1 #
edge $-1 $134 0 $143 7 $91 $185 forward 7 unknown #
coedge $-1 $163 $92 $184 $186 forward $84 $-1 #
vertex $-1 $93 $187 #
straight-curve $-1 -4.5 -2.4494897428103402 2.5000000000156812 0 -0.86602540378443871 0.49999999999999994 I I #
point $-1 -4.5 -2.4494897427831783 2.4999999999999996 #
coedge $-1 $97 $188 $189 $190 reversed $20 $-1 #
coedge $-1 $98 $162 $100 $141 forward $65 $-1 #
ellipse-curve $-1 -4 1.9345680613014338e-010 3.8996750273412317e-011 1 0 0 0 -3.5000000001934568 -3.8996750273412317e-011 1 I I #
coedge $-1 $101 $100 $161 $191 reversed $102 $-1 #
edge $-1 $192 0 $103 1.9999999999999996 $138 $193 forward 7 unknown #
point $-1 -4 -2.4494897427831779 -2.5 #
vertex $-1 $132 $194 #
straight-curve $-1 -4.5 -4.1815405503520546 -3.5 0 0.8660254037844386 0.50000000000000033 I I #
coedge $-1 $188 $108 $195 $196 forward $20 $-1 #
edge $-1 $150 0 $197 0.49999999999999822 $113 $198 forward 7 unknown #
coedge $-1 $199 $109 $156 $152 reversed $149 $-1 #
coedge $-1 $109 $199 $155 $200 forward $149 $-1 #
loop $-1 $-1 $199 $201 #
vertex $-1 $200 $202 #
ellipse-curve $-1 5.0000000000000009 0 0 -1 0 0 0 3.5 4.2861222383783204e-016 1 I I #
edge $-1 $203 0 $111 1.5707963267948966 $156 $204 forward 7 unknown #
point $-1 5 3.5 4.2861222383783204e-016 #
coedge $-1 $113 $176 $205 $206 forward $49 $-1 #
coedge $-1 $207 $114 $148 $200 reversed $157 $-1 #
coedge $-1 $114 $207 $147 $152 forward $157 $-1 #
loop $-1 $-1 $114 $208 #
ellipse-curve $-1 5.0000000000000009 0 0 1 0 0 0 3.5 4.2861222383783204e-016 1 I I #
face $-1 $209 $210 $3 $-1 $211 forward single #
plane-surface $-1 -4.5 -4.1815405503520546 -3.5 0 0.50000000000000022 -0.8660254037844386 0 0.86602540378443826 0.5 forward_v I I I I #
coedge $-1 $212 $131 $140 $191 forward $117 $-1 #
coedge $-1 $138 $119 $212 $213 forward $65 $-1 #
coedge $-1 $126 $133 $119 $164 reversed $84 $-1 #
edge $-1 $128 -3.1363672446568287e-011 $214 1.9999999999686358 $119 $215 forward 7 unknown #
coedge $-1 $121 $120 $216 $217 reversed $67 $-1 #
coedge $-1 $218 $219 $120 $167 reversed $220 $-1 #
edge $-1 $174 0 $221 0.83236053240571073 $120 $222 forward 7 unknown #
coedge $-1 $223 $224 $121 $169 forward $225 $-1 #
edge $-1 $173 0 $226 0.83236053240571095 $121 $227 forward 7 unknown #
coedge $-1 $228 $122 $224 $229 forward $172 $-1 #
coedge $-1 $122 $228 $218 $230 reversed $172 $-1 #
loop $-1 $-1 $170 $231 #
vertex $-1 $169 $232 #
vertex $-1 $167 $233 #
straight-curve $-1 -3.25 -0.25 3.4910600109422352 1 0 0 I I #
coedge $-1 $154 $124 $234 $235 forward $49 $-1 #
coedge $-1 $189 $236 $124 $178 forward $210 $-1 #
edge $-1 $237 0 $179 0.79560295344011012 $124 $238 forward 7 unknown #
vertex $-1 $178 $239 #
straight-curve $-1 4.0000000000000009 -3.5 -8.5722444767566408e-016 -1 0 0 I I #
straight-curve $-1 -4.5 -2.4494897427831783 2.4999999999999996 1 0 0 I I #
point $-1 -4 -2.4494897427831783 2.4999999999999996 #
point $-1 -4 -3.5 0 #
coedge $-1 $131 $212 $133 $186 reversed $117 $-1 #
straight-curve $-1 -4.5 -4.1815405503520546 3.5 0 0 -1 I I #
edge $-1 $134 0 $214 0.5 $133 $240 forward 7 unknown #
point $-1 -4.5 -4.1815405503520546 3.5 #
coedge $-1 $137 $145 $241 $242 reversed $20 $-1 #
coedge $-1 $243 $177 $137 $190 forward $210 $-1 #
edge $-1 $179 0 $244 0.79560295344247567 $137 $245 forward 7 unknown #
edge $-1 $143 0 $192 0.5 $161 $246 forward 7 unknown #
vertex $-1 $141 $247 #
straight-curve $-1 -4 -4.1815405503520546 -3.5 0 0.8660254037844386 0.50000000000000033 I I #
point $-1 -4.5 -4.1815405503520546 -3.5 #
coedge $-1 $205 $248 $145 $196 reversed $249 $-1 #
edge $-1 $197 2.449212707505453e-016 $250 0.79560295344011112 $145 $251 forward 7 unknown #
vertex $-1 $146 $252 #
straight-curve $-1 5.0000000000000009 -3.5 -8.5722444767566408e-016 -1 0 0 I I #
coedge $-1 $148 $147 $253 $254 forward $149 $-1 #
edge $-1 $255 0 $150 1.5707963267948957 $155 $256 forward 7 unknown #
face $-1 $257 $149 $3 $-1 $258 forward single #
point $-1 5.0000000000000009 -3.5 -8.5722444767566408e-016 #
vertex $-1 $254 $259 #
ellipse-curve $-1 5 2.5 3.0615158845559436e-016 4.9303806576313238e-032 -1.2246063538223775e-016 1 1 0 -4.9303806576313238e-032 1 I I #
coedge $-1 $260 $195 $154 $206 reversed $249 $-1 #
edge $-1 $261 -2.3646572226286054e-012 $197 0.79560295344011034 $154 $262 forward 7 unknown #
coedge $-1 $156 $155 $263 $264 reversed $157 $-1 #
face $-1 $201 $157 $3 $-1 $265 forward single #
face $-1 $266 $267 $3 $-1 $268 forward single #
loop $-1 $-1 $189 $159 #
plane-surface $-1 4 0 0 -1 0 0 0 0 1 forward_v I I I I #
coedge $-1 $184 $161 $162 $213 reversed $117 $-1 #
edge $-1 $214 0 $192 7 $162 $269 forward 7 unknown #
vertex $-1 $213 $270 #
straight-curve $-1 -4 -2.4494897428103402 2.5000000000156812 0 -0.86602540378443871 0.49999999999999994 I I #
coedge $-1 $271 $272 $165 $217 forward $273 $-1 #
edge $-1 $226 0 $221 3 $165 $274 forward 7 unknown #
coedge $-1 $275 $166 $171 $230 forward $220 $-1 #
coedge $-1 $166 $275 $271 $276 reversed $220 $-1 #
loop $-1 $-1 $218 $277 #
vertex $-1 $217 $278 #
ellipse-curve $-1 -0.25 1.7763568394002505e-015 -4.2188474935755949e-015 1 0 0 0 -0.25000000000000178 3.4910600109422392 1 I I #
coedge $-1 $279 $168 $272 $280 forward $225 $-1 #
coedge $-1 $168 $279 $170 $229 reversed $225 $-1 #
loop $-1 $-1 $223 $281 #
vertex $-1 $169 $282 #
ellipse-curve $-1 -3.25 1.4988010832439613e-015 -2.886579864025407e-015 1 0 0 0 -0.2500000000000015 3.4910600109422383 1 I I #
coedge $-1 $171 $170 $283 $284 reversed $172 $-1 #
edge $-1 $173 0 $285 1.5089399890577648 $224 $286 forward 7 unknown #
edge $-1 $174 0 $287 1.5089399890577648 $218 $288 forward 7 unknown #
face $-1 $281 $172 $3 $-1 $289 forward single #
point $-1 -3.25 -0.25 3.4910600109422352 #
point $-1 -0.25 -0.25 3.4910600109422352 #
coedge $-1 $290 $291 $176 $235 reversed $292 $-1 #
edge $-1 $237 0 $261 0.5 $176 $293 forward 7 unknown #
coedge $-1 $177 $294 $290 $295 forward $210 $-1 #
vertex $-1 $235 $296 #
ellipse-curve $-1 4 1.9000223616671974e-010 -3.8301084526182194e-011 1 0 0 0 -2.449489742999857 2.5000000000537019 1 I I #
point $-1 4 -3.5 0 #
straight-curve $-1 -4.5 -4.1815405503520555 3.4999999999999991 1 0 0 I I #
coedge $-1 $297 $298 $188 $242 forward $267 $-1 #
edge $-1 $244 0 $250 0.5 $188 $299 forward 7 unknown #
coedge $-1 $294 $189 $298 $300 forward $210 $-1 #
vertex $-1 $190 $301 #
ellipse-curve $-1 4 1.8999757323001631e-010 3.8299086124737869e-011 1 0 0 0 -3.5000000001899974 -3.8299086124737869e-011 1 I I #
straight-curve $-1 -4.5 -4.1815405503520546 -3.5 1 0 0 I I #
point $-1 -4 -4.1815405503520546 -3.5 #
coedge $-1 $195 $302 $297 $303 reversed $249 $-1 #
loop $-1 $-1 $195 $266 #
vertex $-1 $242 $304 #
ellipse-curve $-1 4.5 1.8999757323001631e-010 3.8299086124737869e-011 1 0 0 0 -3.5000000001899974 -3.8299086124737869e-011 1 I I #
point $-1 4.5000000000000027 -3.5 -8.5722444767566408e-016 #
coedge $-1 $263 $263 $199 $254 reversed $305 $-1 #
edge $-1 $203 0 $255 3.1415926535897931 $253 $306 forward 7 unknown #
vertex $-1 $254 $307 #
ellipse-curve $-1 5 -2.5 -6.1230317691118873e-016 9.8607613152626476e-032 2.449212707644755e-016 -1 1 0 9.8607613152626476e-032 1 I I #
face $-1 $308 $309 $3 $-1 $310 forward single #
torus-surface $-1 5 0 0 1 0 0 2.5 1 0 -1 0 forward_v I I I I #
point $-1 6 2.5 3.0615158845559431e-016 #
coedge $-1 $302 $205 $291 $311 reversed $249 $-1 #
vertex $-1 $206 $312 #
ellipse-curve $-1 4.5 1.9000223616671974e-010 -3.8301084526182194e-011 1 0 0 0 -2.449489742999857 2.5000000000537019 1 I I #
coedge $-1 $253 $253 $207 $264 forward $305 $-1 #
edge $-1 $203 0 $255 3.1415926535897931 $263 $313 forward 7 unknown #
torus-surface $-1 5 0 0 1 0 0 2.5 1 0 -1 0 forward_v I I I I #
face $-1 $314 $249 $3 $-1 $315 reversed single #
loop $-1 $-1 $297 $209 #
plane-surface $-1 4.5 -2.4494897427831792 -2.5 0 0.50000000000000011 -0.8660254037844386 0 -0.86602540378443837 -0.5 forward_v I I I I #
straight-curve $-1 -4 -4.1815405503520546 3.5 0 0 -1 I I #
point $-1 -4 -4.1815405503520546 3.5 #
coedge $-1 $316 $216 $219 $276 forward $273 $-1 #
coedge $-1 $216 $316 $223 $280 reversed $273 $-1 #
loop $-1 $-1 $271 $317 #
straight-curve $-1 -3.25 -2.75 2.1650635094610968 1 0 0 I I #
coedge $-1 $219 $218 $318 $319 reversed $220 $-1 #
edge $-1 $221 0 $320 2.8349364905389032 $271 $321 forward 7 unknown #
face $-1 $322 $220 $3 $-1 $323 forward single #
point $-1 -0.25 -2.75 2.1650635094610968 #
coedge $-1 $224 $223 $324 $325 reversed $225 $-1 #
edge $-1 $226 0 $326 2.8349364905389032 $223 $327 forward 7 unknown #
face $-1 $317 $225 $3 $-1 $328 forward single #
point $-1 -3.25 -2.75 2.1650635094610968 #
coedge $-1 $324 $318 $228 $284 forward $329 $-1 #
edge $-1 $287 0 $285 3 $283 $330 forward 7 unknown #
vertex $-1 $325 $331 #
straight-curve $-1 -3.25 -0.25 3.4910600109422352 0 0 1 I I #
vertex $-1 $284 $332 #
straight-curve $-1 -0.25 -0.25 3.4910600109422352 0 0 1 I I #
plane-surface $-1 -0.25 -0.25 0 0 1 0 -1 0 0 forward_v I I I I #
coedge $-1 $333 $234 $236 $295 reversed $292 $-1 #
coedge $-1 $234 $333 $260 $311 forward $292 $-1 #
loop $-1 $-1 $290 $314 #
straight-curve $-1 4 -2.4494897427831779 2.5 1 0 0 I I #
coedge $-1 $236 $243 $334 $335 forward $210 $-1 #
edge $-1 $336 0 $237 1.9999999999691962 $236 $337 forward 7 unknown #
point $-1 4 -2.4494897428098548 2.500000000015401 #
coedge $-1 $338 $241 $248 $303 forward $267 $-1 #
coedge $-1 $241 $338 $243 $300 reversed $267 $-1 #
straight-curve $-1 4 -2.4494897427831792 -2.5 1 0 0 I I #
edge $-1 $244 -3.0802211427937673e-011 $339 1.9999999999691962 $243 $340 forward 7 unknown #
point $-1 4 -2.4494897427831792 -2.5 #
coedge $-1 $248 $260 $341 $342 reversed $249 $-1 #
edge $-1 $250 1.6254793235168141e-016 $343 1.9999999999691962 $248 $344 forward 7 unknown #
point $-1 4.5 -2.4494897428098552 -2.5000000000154006 #
loop $-1 $-1 $263 $257 #
ellipse-curve $-1 6 0 -1.1102230246251565e-016 -1 0 0 0 2.5 4.1717389091810997e-016 1 I I #
point $-1 6 -2.5 -6.1230317691118863e-016 #
face $-1 $345 $346 $3 $-1 $347 forward single #
loop $-1 $305 $348 $257 #
plane-surface $-1 6 0 0 1 0 0 0 -1 0 forward_v I I I I #
edge $-1 $349 0 $261 1.9999999999999996 $260 $350 forward 7 unknown #
point $-1 4.5 -2.4494897427831779 2.5 #
ellipse-curve $-1 6 0 0 1 0 0 0 2.5 3.0615158845559431e-016 1 I I #
face $-1 $351 $292 $3 $-1 $352 forward single #
plane-surface $-1 4.5 0 0 -1 0 0 0 0 1 forward_v I I I I #
coedge $-1 $272 $271 $353 $354 reversed $273 $-1 #
face $-1 $277 $273 $3 $-1 $355 forward single #
coedge $-1 $283 $353 $275 $319 forward $329 $-1 #
edge $-1 $320 0 $287 2.5 $318 $356 forward 7 unknown #
vertex $-1 $319 $357 #
straight-curve $-1 -0.25 -2.75 2.1650635094610968 0 0 1 I I #
face $-1 $-1 $329 $3 $-1 $358 forward single #
plane-surface $-1 -0.25 -2.75 0 1 0 0 0 1 0 forward_v I I I I #
coedge $-1 $353 $283 $279 $325 forward $329 $-1 #
edge $-1 $285 0 $326 2.5 $324 $359 forward 7 unknown #
vertex $-1 $325 $360 #
straight-curve $-1 -3.25 -2.75 2.1650635094610968 0 0 1 I I #
plane-surface $-1 -3.25 -0.25 0 -1 0 0 0 -1 0 forward_v I I I I #
loop $-1 $-1 $353 $322 #
straight-curve $-1 -0.25 -0.25 5 -1 0 0 I I #
point $-1 -3.25 -0.25 5 #
point $-1 -0.25 -0.25 5 #
coedge $-1 $291 $290 $361 $362 reversed $292 $-1 #
coedge $-1 $363 $361 $294 $335 reversed $364 $-1 #
edge $-1 $339 0 $336 7 $294 $365 forward 7 unknown #
vertex $-1 $295 $366 #
straight-curve $-1 4 -4.1815405503520546 3.5 0 0.86602540378443871 -0.50000000000000011 I I #
coedge $-1 $298 $297 $363 $367 forward $267 $-1 #
vertex $-1 $335 $368 #
straight-curve $-1 4 -2.4494897428098548 -2.500000000015401 0 -0.8660254037844386 -0.50000000000000011 I I #
coedge $-1 $361 $363 $302 $342 forward $364 $-1 #
edge $-1 $343 0 $349 7 $302 $369 forward 7 unknown #
vertex $-1 $303 $370 #
straight-curve $-1 4.5 -2.4494897428098548 -2.500000000015401 0 -0.8660254037844386 -0.50000000000000011 I I #
face $-1 $371 $372 $3 $-1 $373 reversed single #
loop $-1 $-1 $374 $308 #
cone-surface $-1 -6.6779999999999999 0 0 1 0 0 0 -0.75 0 1 I I 0 1 0.75 forward I I I I #
coedge $-1 $375 $375 $376 $377 forward $309 $-1 #
vertex $-1 $342 $378 #
straight-curve $-1 4.5 -4.1815405503520546 3.5 0 0.86602540378443871 -0.50000000000000011 I I #
face $-1 $208 $364 $3 $-1 $379 forward single #
plane-surface $-1 4.5 -4.1815405503520546 3.5 0 0.50000000000000011 0.86602540378443871 0 0.86602540378443849 -0.5 forward_v I I I I #
coedge $-1 $318 $324 $316 $354 forward $329 $-1 #
edge $-1 $326 0 $320 3 $353 $380 forward 7 unknown #
plane-surface $-1 -3.25 -2.75 0 0 -1 0 1 0 0 forward_v I I I I #
straight-curve $-1 -0.25 -2.75 5 0 1 0 I I #
point $-1 -0.25 -2.75 5 #
plane-surface $-1 0 0 5 0 0 1 1 0 0 forward_v I I I I #
straight-curve $-1 -3.25 -0.25 5 0 -1 0 I I #
point $-1 -3.25 -2.75 5 #
coedge $-1 $334 $341 $333 $362 forward $364 $-1 #
edge $-1 $349 0 $336 0.5 $361 $381 forward 7 unknown #
coedge $-1 $341 $334 $338 $367 reversed $364 $-1 #
loop $-1 $-1 $361 $351 #
straight-curve $-1 4 -4.1815405503520546 -3.5 0 0 1 I I #
point $-1 4 -4.1815405503520546 3.5 #
edge $-1 $343 0 $339 0.5 $338 $382 forward 7 unknown #
point $-1 4 -4.1815405503520546 -3.5 #
straight-curve $-1 4.5 -4.1815405503520546 -3.5 0 0 1 I I #
point $-1 4.5 -4.1815405503520546 -3.5 #
face $-1 $383 $384 $3 $-1 $385 forward single #
loop $-1 $386 $387 $345 #
plane-surface $-1 7 0 0 1 0 0 0 -1 0 forward_v I I I I #
coedge $-1 $388 $389 $390 $391 forward $346 $-1 #
coedge $-1 $348 $348 $392 $393 reversed $309 $-1 #
coedge $-1 $389 $388 $348 $377 reversed $346 $-1 #
edge $-1 $394 -1.2246063538223773e-016 $395 3.1415926535897931 $348 $396 forward 7 unknown #
point $-1 4.5 -4.1815405503520546 3.5 #
plane-surface $-1 4.5 -4.1815405503520546 -3.5 0 -1 0 0 0 1 forward_v I I I I #
straight-curve $-1 -3.25 -2.75 5 1 0 0 I I #
straight-curve $-1 4.5 -4.1815405503520546 3.5 -1 0 0 I I #
straight-curve $-1 4.5 -4.1815405503520555 -3.4999999999999996 -1 0 0 I I #
face $-1 $397 $398 $3 $-1 $399 forward single #
loop $-1 $-1 $400 $371 #
cone-surface $-1 -6.6779999999999999 0 0 1 0 0 0 -2.25 0 1 I I 0 1 2.25 forward I I I I #
loop $-1 $-1 $401 $345 #
coedge $-1 $402 $402 $403 $404 forward $372 $-1 #
coedge $-1 $376 $374 $405 $406 forward $346 $-1 #
coedge $-1 $374 $376 $407 $408 reversed $346 $-1 #
coedge $-1 $401 $401 $374 $391 reversed $386 $-1 #
edge $-1 $409 0 $410 3.1415926535897931 $390 $411 forward 7 unknown #
coedge $-1 $405 $407 $375 $393 forward $412 $-1 #
edge $-1 $394 1.2246063538223773e-016 $395 3.1415926535897931 $392 $413 forward 7 unknown #
vertex $-1 $408 $414 #
vertex $-1 $406 $415 #
ellipse-curve $-1 6 2.7755575615628914e-017 0 -1 0 0 0 0.75 0 1 I I #
face $-1 $416 $417 $3 $-1 $418 forward single #
loop $-1 $-1 $419 $383 #
plane-surface $-1 7.5599999999999996 0 0 1 0 0 0 -1 0 forward_v I I I I #
coedge $-1 $420 $421 $422 $423 forward $384 $-1 #
coedge $-1 $390 $390 $424 $425 forward $386 $-1 #
coedge $-1 $387 $387 $426 $427 reversed $372 $-1 #
coedge $-1 $421 $420 $387 $404 reversed $384 $-1 #
edge $-1 $428 -1.2246063538223773e-016 $429 3.1415926535897931 $387 $430 forward 7 unknown #
coedge $-1 $424 $392 $388 $406 reversed $412 $-1 #
edge $-1 $410 0 $395 1.0000000000000009 $405 $431 forward 7 unknown #
coedge $-1 $392 $424 $389 $408 forward $412 $-1 #
edge $-1 $409 0 $394 1 $407 $432 forward 7 unknown #
vertex $-1 $391 $433 #
vertex $-1 $391 $434 #
ellipse-curve $-1 7 -8.3266726846886741e-017 -8.3266726846886741e-017 -1 1.1842378929335e-015 2.7649934234919404e-031 8.8817841970012523e-016 0.75000000000000011 1.7511220338356503e-016 1 I I #
loop $-1 $-1 $392 $416 #
ellipse-curve $-1 6 2.7755575615628914e-017 0 1 0 0 0 0.75 0 1 I I #
point $-1 6.0000000000000009 0.75 9.1845476536678294e-017 #
point $-1 6 -0.75 0 #
face $-1 $231 $412 $3 $-1 $435 forward single #
loop $-1 $-1 $426 $397 #
cone-surface $-1 -6.6779999999999999 0 0 1 0 0 0 -2.25 0 1 I I 0 1 2.25 forward I I I I #
coedge $-1 $422 $422 $436 $437 forward $398 $-1 #
coedge $-1 $403 $400 $438 $439 forward $384 $-1 #
coedge $-1 $400 $403 $440 $441 reversed $384 $-1 #
coedge $-1 $419 $419 $400 $423 reversed $398 $-1 #
edge $-1 $442 0 $443 3.1415926535897931 $422 $444 forward 7 unknown #
coedge $-1 $407 $405 $401 $425 reversed $412 $-1 #
edge $-1 $409 0 $410 3.1415926535897931 $401 $445 forward 7 unknown #
coedge $-1 $438 $440 $402 $427 forward $417 $-1 #
edge $-1 $428 1.2246063538223773e-016 $429 3.1415926535897931 $426 $446 forward 7 unknown #
vertex $-1 $441 $447 #
vertex $-1 $439 $448 #
ellipse-curve $-1 7 0 0 -1 0 0 0 2.25 0 1 I I #
straight-curve $-1 7.0000000000000009 -0.75 -1.8369095307335659e-016 -1 0 0 I I #
straight-curve $-1 7.0000000000000009 0.75 9.1845476536678294e-017 -1 0 0 I I #
point $-1 7.0000000000000009 0.75 9.1845476536678294e-017 #
point $-1 7.0000000000000009 -0.75 -1.8369095307335659e-016 #
cone-surface $-1 -6.6779999999999999 0 0 1 0 0 0 -0.75 0 1 I I 0 1 0.75 forward I I I I #
coedge $-1 $440 $438 $419 $437 reversed $417 $-1 #
edge $-1 $442 0 $443 3.1415926535897931 $419 $449 forward 7 unknown #
coedge $-1 $436 $426 $420 $439 reversed $417 $-1 #
edge $-1 $443 0 $429 0.55999999999999961 $438 $450 forward 7 unknown #
coedge $-1 $426 $436 $421 $441 forward $417 $-1 #
edge $-1 $442 0 $428 0.55999999999999872 $440 $451 forward 7 unknown #
vertex $-1 $423 $452 #
vertex $-1 $423 $453 #
ellipse-curve $-1 7.5599999999999996 0 -1.1102230246251565e-016 -1 0 0 0 2.25 3.8655873207255054e-016 1 I I #
ellipse-curve $-1 7 0 0 1 -1.1842378929335002e-015 -1.4502252481235886e-031 8.8817841970012523e-016 0.75 9.1845476536678294e-017 1 I I #
ellipse-curve $-1 7 0 0 1 0 0 0 2.25 0 1 I I #
point $-1 7.0000000000000009 2.25 2.7553642961003488e-016 #
point $-1 7 -2.25 0 #
ellipse-curve $-1 7.5599999999999996 0 0 1 0 0 0 2.25 2.7553642961003488e-016 1 I I #
straight-curve $-1 7.5599999999999996 -2.25 -5.5107285922006977e-016 -1 0 0 I I #
straight-curve $-1 7.5599999999999996 2.25 2.7553642961003488e-016 -1 0 0 I I #
point $-1 7.5599999999999996 2.25 2.7553642961003488e-016 #
point $-1 7.5599999999999996 -2.25 -5.5107285922006977e-016 #
End-of-ACIS-data 