600 0 1 0           
87 GICL Pro/E ACIS Translator - Source: f:/data5/repository/PTC/V18/lrgasm18/nut.prt - 6 0 13 ACIS 6.0.3 NT 24 Thu Apr 04 10:00:33 2002 
1 9.9999999999999995e-007 1e-010 
body $-1 $1 $-1 $2 #
lump $-1 $-1 $3 $0 #
transform $-1 1 0 0 0 1 0 0 0 1 0 0 0 25.399999999999999 no_rotate no_reflect no_shear #
shell $-1 $-1 $-1 $4 $-1 $1 #
face $-1 $5 $6 $3 $-1 $7 reversed single #
face $-1 $8 $9 $3 $-1 $10 forward single #
loop $-1 $11 $12 $4 #
plane-surface $-1 0 0 0 0 0 1 1 0 0 forward_v I I I I #
face $-1 $13 $14 $3 $-1 $15 forward single #
loop $-1 $-1 $16 $5 #
plane-surface $-1 0 0.6062177826491072 0 0 1 0 -1 0 0 forward_v I I I I #
loop $-1 $-1 $17 $4 #
coedge $-1 $18 $19 $20 $21 reversed $6 $-1 #
face $-1 $22 $23 $3 $-1 $24 forward single #
loop $-1 $-1 $25 $8 #
plane-surface $-1 -0.34999999999999998 0.6062177826491072 0 -0.86602540378443882 0.49999999999999989 0 -0.5 -0.86602540378443904 0 forward_v I I I I #
coedge $-1 $26 $20 $27 $28 forward $9 $-1 #
coedge $-1 $29 $29 $30 $31 forward $11 $-1 #
coedge $-1 $32 $12 $33 $34 reversed $6 $-1 #
coedge $-1 $12 $35 $36 $37 reversed $6 $-1 #
coedge $-1 $16 $38 $12 $21 forward $9 $-1 #
edge $-1 $39 0 $40 0.34999999999999998 $12 $41 forward 7 unknown #
face $-1 $42 $43 $3 $-1 $44 forward single #
loop $-1 $-1 $45 $13 #
plane-surface $-1 -0.52499999999999991 0.30310889132455354 0 -0.86602540378443871 -0.5 0 0.5 -0.86602540378443871 0 forward_v I I I I #
coedge $-1 $46 $36 $47 $48 forward $14 $-1 #
coedge $-1 $38 $16 $49 $50 reversed $9 $-1 #
coedge $-1 $36 $46 $16 $28 reversed $14 $-1 #
edge $-1 $40 0 $51 0.25 $27 $52 forward 7 unknown #
coedge $-1 $17 $17 $53 $54 forward $11 $-1 #
coedge $-1 $55 $56 $17 $31 reversed $57 $-1 #
edge $-1 $58 0 $59 3.1415926535897918 $17 $60 forward 7 unknown #
coedge $-1 $61 $18 $62 $63 reversed $6 $-1 #
coedge $-1 $64 $65 $18 $34 forward $66 $-1 #
edge $-1 $67 0 $39 0.35000000000000014 $18 $68 forward 7 unknown #
coedge $-1 $19 $61 $69 $70 reversed $6 $-1 #
coedge $-1 $25 $27 $19 $37 forward $14 $-1 #
edge $-1 $40 0 $71 0.35000000000000009 $19 $72 forward 7 unknown #
coedge $-1 $20 $26 $64 $73 reversed $9 $-1 #
vertex $-1 $34 $74 #
vertex $-1 $37 $75 #
straight-curve $-1 0 0.6062177826491072 0 -1 0 0 I I #
face $-1 $76 $77 $3 $-1 $78 forward single #
loop $-1 $-1 $79 $22 #
plane-surface $-1 -0.34999999999999998 0 0 0 -1 0 1 0 0 forward_v I I I I #
coedge $-1 $80 $69 $81 $82 forward $23 $-1 #
coedge $-1 $27 $25 $83 $84 reversed $14 $-1 #
coedge $-1 $69 $80 $25 $48 reversed $23 $-1 #
edge $-1 $71 0 $85 0.25 $25 $86 forward 7 unknown #
coedge $-1 $83 $87 $26 $50 forward $88 $-1 #
edge $-1 $89 0 $51 0.34999999999999998 $49 $90 forward 7 unknown #
vertex $-1 $84 $91 #
straight-curve $-1 -0.34999999999999998 0.6062177826491072 0 0 0 1 I I #
coedge $-1 $92 $93 $29 $54 reversed $94 $-1 #
edge $-1 $59 0 $58 3.141592653589794 $29 $95 forward 7 unknown #
coedge $-1 $96 $30 $93 $97 reversed $57 $-1 #
coedge $-1 $30 $96 $92 $98 forward $57 $-1 #
loop $-1 $-1 $55 $99 #
vertex $-1 $54 $100 #
vertex $-1 $54 $101 #
ellipse-curve $-1 -0.17499999999999999 0.30310889132455365 0 0 0 1 -0.0625 0.10825317547305485 0 1 I I #
coedge $-1 $35 $32 $102 $103 reversed $6 $-1 #
coedge $-1 $104 $105 $32 $63 forward $77 $-1 #
edge $-1 $106 0 $67 0.34999999999999998 $32 $107 forward 7 unknown #
coedge $-1 $108 $33 $38 $73 forward $66 $-1 #
coedge $-1 $33 $108 $104 $109 reversed $66 $-1 #
loop $-1 $-1 $64 $76 #
vertex $-1 $63 $110 #
straight-curve $-1 0.17499999999999999 0.30310889132455354 0 -0.49999999999999983 0.86602540378443882 0 I I #
coedge $-1 $45 $47 $35 $70 forward $23 $-1 #
edge $-1 $71 0 $111 0.35000000000000003 $35 $112 forward 7 unknown #
vertex $-1 $37 $113 #
straight-curve $-1 -0.34999999999999998 0.6062177826491072 0 -0.49999999999999967 -0.86602540378443882 0 I I #
edge $-1 $39 0 $89 0.25 $64 $114 forward 7 unknown #
point $-1 0 0.6062177826491072 0 #
point $-1 -0.34999999999999998 0.6062177826491072 0 #
face $-1 $115 $66 $3 $-1 $116 forward single #
loop $-1 $-1 $104 $42 #
plane-surface $-1 0 0 0 0.86602540378443871 -0.49999999999999989 0 0.5 0.86602540378443893 0 forward_v I I I I #
coedge $-1 $117 $102 $105 $118 forward $43 $-1 #
coedge $-1 $47 $45 $119 $120 reversed $23 $-1 #
coedge $-1 $102 $117 $45 $82 reversed $43 $-1 #
edge $-1 $111 0 $121 0.25 $45 $122 forward 7 unknown #
coedge $-1 $119 $49 $46 $84 forward $88 $-1 #
edge $-1 $51 0 $85 0.35000000000000009 $83 $123 forward 7 unknown #
vertex $-1 $84 $124 #
straight-curve $-1 -0.52499999999999991 0.30310889132455354 0 0 0 1 I I #
coedge $-1 $49 $125 $108 $126 forward $88 $-1 #
loop $-1 $127 $119 $115 #
vertex $-1 $50 $128 #
straight-curve $-1 0 0.6062177826491072 0.25 -1 0 0 I I #
point $-1 -0.34999999999999998 0.6062177826491072 0.25 #
coedge $-1 $129 $53 $56 $98 reversed $94 $-1 #
coedge $-1 $53 $129 $55 $97 forward $94 $-1 #
loop $-1 $-1 $92 $130 #
ellipse-curve $-1 -0.17500000000000002 0.3031088913245536 0 0 0 1 0.062499999999999875 -0.10825317547305494 0 1 I I #
coedge $-1 $56 $55 $131 $132 forward $57 $-1 #
edge $-1 $133 0 $58 0.25 $93 $134 forward 7 unknown #
edge $-1 $135 0 $59 0.25 $92 $136 forward 7 unknown #
face $-1 $130 $57 $3 $-1 $137 reversed single #
point $-1 -0.23749999999999999 0.41136206679760851 0 #
point $-1 -0.11250000000000014 0.19485571585149866 0 #
coedge $-1 $79 $81 $61 $103 forward $43 $-1 #
edge $-1 $111 0 $106 0.34999999999999998 $61 $138 forward 7 unknown #
coedge $-1 $139 $62 $65 $109 forward $77 $-1 #
coedge $-1 $62 $139 $79 $118 reversed $77 $-1 #
vertex $-1 $103 $140 #
straight-curve $-1 0 0 0 0.49999999999999994 0.86602540378443871 0 I I #
coedge $-1 $65 $64 $87 $126 reversed $66 $-1 #
edge $-1 $67 0 $141 0.25 $104 $142 forward 7 unknown #
point $-1 0.17499999999999999 0.30310889132455354 0 #
vertex $-1 $70 $143 #
straight-curve $-1 -0.52499999999999991 0.30310889132455354 0 0.49999999999999994 -0.8660254037844386 0 I I #
point $-1 -0.52499999999999991 0.30310889132455354 0 #
straight-curve $-1 0 0.6062177826491072 0 0 0 1 I I #
face $-1 $99 $88 $3 $-1 $144 forward single #
plane-surface $-1 0.17499999999999999 0.30310889132455354 0 0.86602540378443882 0.49999999999999989 0 -0.5 0.86602540378443904 0 forward_v I I I I #
coedge $-1 $81 $79 $145 $146 reversed $43 $-1 #
edge $-1 $106 0 $147 0.25 $79 $148 forward 7 unknown #
coedge $-1 $145 $83 $80 $120 forward $88 $-1 #
edge $-1 $85 0 $121 0.35000000000000003 $119 $149 forward 7 unknown #
vertex $-1 $146 $150 #
straight-curve $-1 -0.34999999999999992 0 0 0 0 1 I I #
straight-curve $-1 -0.34999999999999998 0.6062177826491072 0.25 -0.49999999999999967 -0.86602540378443882 0 I I #
point $-1 -0.52499999999999991 0.30310889132455354 0.25 #
coedge $-1 $87 $145 $139 $151 forward $88 $-1 #
edge $-1 $141 0 $89 0.35000000000000014 $87 $152 forward 7 unknown #
loop $-1 $-1 $131 $115 #
point $-1 0 0.6062177826491072 0.25 #
coedge $-1 $93 $92 $153 $154 forward $94 $-1 #
face $-1 $-1 $94 $3 $-1 $155 reversed single #
coedge $-1 $153 $153 $96 $132 reversed $127 $-1 #
edge $-1 $133 0 $135 3.1415926535897918 $131 $156 forward 7 unknown #
vertex $-1 $154 $157 #
straight-curve $-1 -0.23749999999999999 0.41136206679760845 0.25 0 0 -1 I I #
vertex $-1 $154 $158 #
straight-curve $-1 -0.11249999999999999 0.19485571585149872 0.25 0 0 -1 I I #
cone-surface $-1 -0.17499999999999999 0.3031088913245536 0.25 0 0 1 0.0625 -0.10825317547305488 0 1 I I 0 1 0.12500000000000003 forward I I I I #
straight-curve $-1 -0.34999999999999998 0 0 1 0 0 I I #
coedge $-1 $105 $104 $125 $151 reversed $77 $-1 #
point $-1 0 0 0 #
vertex $-1 $126 $159 #
straight-curve $-1 0.17499999999999996 0.30310889132455354 0 0 0 1 I I #
point $-1 -0.34999999999999998 0 0 #
plane-surface $-1 0 0 0.25 0 0 1 1 0 0 forward_v I I I I #
coedge $-1 $125 $119 $117 $146 forward $88 $-1 #
edge $-1 $121 0 $147 0.34999999999999998 $145 $160 forward 7 unknown #
vertex $-1 $151 $161 #
straight-curve $-1 0 0 0 0 0 1 I I #
straight-curve $-1 -0.52499999999999991 0.30310889132455354 0.25 0.49999999999999994 -0.8660254037844386 0 I I #
point $-1 -0.34999999999999998 0 0.25 #
edge $-1 $147 0 $141 0.34999999999999998 $125 $162 forward 7 unknown #
straight-curve $-1 0.17499999999999999 0.30310889132455354 0.25 -0.49999999999999983 0.86602540378443882 0 I I #
coedge $-1 $131 $131 $129 $154 reversed $127 $-1 #
edge $-1 $135 0 $133 3.1415926535897944 $153 $163 forward 7 unknown #
cone-surface $-1 -0.17499999999999999 0.3031088913245536 0.25 0 0 1 0.0625 -0.10825317547305488 0 1 I I 0 1 0.12500000000000003 forward I I I I #
ellipse-curve $-1 -0.17499999999999999 0.3031088913245536 0.25 0 0 1 -0.0625 0.10825317547305485 0 1 I I #
point $-1 -0.23749999999999999 0.41136206679760845 0.25 #
point $-1 -0.11250000000000014 0.19485571585149866 0.25 #
point $-1 0.17499999999999999 0.30310889132455354 0.25 #
straight-curve $-1 -0.34999999999999998 0 0.25 1 0 0 I I #
point $-1 0 0 0.25 #
straight-curve $-1 0 0 0.25 0.49999999999999994 0.86602540378443871 0 I I #
ellipse-curve $-1 -0.17499999999999999 0.3031088913245536 0.25 0 0 1 0.062499999999999847 -0.10825317547305494 0 1 I I #
End-of-ACIS-data 