700 0 2 0           
24 FBMach with ACIS - 7.0.3 13 ACIS 7.0.3 NT 24 Wed May 15 17:27:50 2002 
1 9.9999999999999995e-007 1e-010 
body $2 -1 $-1 $3 $-1 $4 #
bdycol-kcp $-1 -1 1 3 $5 $6 $7 #
model_id-kcp-attrib $-1 -1 $-1 $-1 $0 1 1021498070 1021498070 -1846870015 1 #
lump $-1 -1 $-1 $-1 $8 $0 #
transform $-1 -1 1.0000000000000004 0 0 0 1.0000000000000004 0 0 0 1 5.3290705182007514e-015 -2.6645352591003757e-015 0 1 rotate no_reflect no_shear #
body $9 -1 $-1 $10 $-1 $11 #
body $12 -1 $-1 $13 $-1 $14 #
body $15 -1 $-1 $16 $-1 $17 #
shell $-1 -1 $-1 $-1 $-1 $18 $-1 $3 #
rgb_color-st-attrib $-1 -1 $19 $-1 $5 0.5 1 1 #
lump $-1 -1 $-1 $-1 $20 $5 #
transform $-1 -1 1 0 0 0 1 0 0 0 1 0 0 0 1 no_rotate no_reflect no_shear #
rgb_color-st-attrib $-1 -1 $21 $-1 $6 0.5 1 1 #
lump $-1 -1 $-1 $22 $23 $6 #
transform $-1 -1 1 0 0 0 1 0 0 0 1 -4.4449999999999985 7.6989658396436607 3.1749999999999998 1 no_rotate no_reflect no_shear #
model_id-kcp-attrib $-1 -1 $-1 $-1 $7 1 1021498070 1021498070 -1846870014 1 #
lump $-1 -1 $-1 $-1 $24 $7 #
transform $-1 -1 1 0 0 0 1 0 0 0 1 -4.4449999999999985 7.6989658396436607 3.1749999999999998 1 no_rotate no_reflect no_shear #
face $25 -1 $-1 $26 $27 $8 $-1 $28 reversed single #
model_id-kcp-attrib $-1 -1 $-1 $9 $5 1 1021498070 1021498070 -1859387388 1 #
shell $-1 -1 $-1 $-1 $-1 $29 $-1 $10 #
model_id-kcp-attrib $-1 -1 $-1 $12 $6 1 1021498070 1021498070 -1851850749 1 #
lump $-1 -1 $-1 $-1 $30 $6 #
shell $-1 -1 $-1 $-1 $-1 $31 $-1 $13 #
shell $-1 -1 $-1 $-1 $-1 $32 $-1 $16 #
model_id-kcp-attrib $-1 -1 $-1 $-1 $18 1 1021498070 1021498070 -1846870015 2 #
face $33 -1 $-1 $34 $35 $8 $-1 $36 forward single #
loop $-1 -1 $-1 $37 $38 $18 #
plane-surface $-1 -1 $-1 0 0 0 0 0 1 25.399999999999999 0 0 forward_v I I I I #
face $-1 -1 $-1 $39 $40 $20 $-1 $41 forward single #
shell $-1 -1 $-1 $-1 $-1 $42 $-1 $22 #
face $-1 -1 $-1 $43 $44 $23 $-1 $45 reversed single #
face $46 -1 $-1 $47 $48 $24 $-1 $49 forward single #
model_id-kcp-attrib $-1 -1 $-1 $-1 $26 1 1021498070 1021498070 -1846870015 3 #
face $50 -1 $-1 $51 $52 $8 $-1 $53 forward single #
loop $-1 -1 $-1 $-1 $54 $26 #
plane-surface $-1 -1 $-1 0 15.397931679287321 0 0 1 0 -25.399999999999999 0 0 forward_v I I I I #
loop $-1 -1 $-1 $-1 $55 $18 #
coedge $-1 -1 $-1 $56 $57 $58 $59 reversed $27 $-1 #
face $-1 -1 $-1 $60 $61 $20 $-1 $62 forward single #
loop $-1 -1 $-1 $63 $64 $29 #
cone-surface $-1 -1 $-1 -4.4449999999999994 7.6989658396436624 0 0 0 1 -1.5874999999999999 2.7496306570155933 0 1 I I 0 1 3.1750000000000003 forward I I I I #
face $-1 -1 $-1 $65 $66 $30 $-1 $67 reversed single #
face $-1 -1 $-1 $68 $69 $23 $-1 $70 reversed single #
loop $-1 -1 $-1 $-1 $71 $31 #
plane-surface $-1 -1 $-1 -8.889999999999997 -3.5527136788005009e-015 -3.1749999999999998 -0.86602540378443871 -0.5 0 0 0 -1 forward_v I I I I #
model_id-kcp-attrib $-1 -1 $-1 $-1 $32 1 1021498070 1021498070 -1846870014 5 #
face $72 -1 $-1 $73 $74 $24 $-1 $75 reversed single #
loop $-1 -1 $-1 $-1 $76 $32 #
plane-surface $-1 -1 $-1 0 0 3.1749999999999998 0 0 1 1 0 0 forward_v I I I I #
model_id-kcp-attrib $-1 -1 $-1 $-1 $34 1 1021498070 1021498070 -1846870015 4 #
face $77 -1 $-1 $78 $79 $8 $-1 $80 forward single #
loop $-1 -1 $-1 $-1 $81 $34 #
plane-surface $-1 -1 $-1 -8.8899999999999988 15.397931679287321 0 -0.86602540378443882 0.49999999999999989 0 -12.699999999999999 -21.99704525612475 0 forward_v I I I I #
coedge $-1 -1 $-1 $82 $58 $83 $84 forward $35 $-1 #
coedge $-1 -1 $-1 $85 $85 $86 $87 forward $37 $-1 #
coedge $-1 -1 $-1 $88 $38 $89 $90 reversed $27 $-1 #
coedge $-1 -1 $-1 $38 $91 $92 $93 reversed $27 $-1 #
coedge $-1 -1 $-1 $54 $94 $38 $59 forward $35 $-1 #
edge $95 -1 $-1 $96 0 $97 0.34999999999999998 $38 $98 forward @7 unknown #
face $-1 -1 $-1 $-1 $99 $20 $-1 $100 reversed single #
loop $-1 -1 $-1 $-1 $101 $39 #
plane-surface $-1 -1 $-1 -4.4450000000000003 7.6989658396436598 6.3499999999999996 0 0 1 1 0 0 forward_v I I I I #
loop $-1 -1 $-1 $-1 $102 $29 #
coedge $-1 -1 $-1 $64 $64 $101 $103 forward $40 $-1 #
face $-1 -1 $-1 $104 $105 $30 $-1 $106 reversed single #
loop $-1 -1 $-1 $-1 $107 $42 #
plane-surface $-1 -1 $-1 8.8899999999999988 0 0 -1 0 0 0 0 1 forward_v I I I I #
face $-1 -1 $-1 $108 $109 $23 $-1 $110 reversed single #
loop $-1 -1 $-1 $-1 $111 $43 #
plane-surface $-1 -1 $-1 -4.4450000000000003 7.6989658396436607 -3.1749999999999998 -0.86602540378443893 0.49999999999999972 0 0 0 -1 forward_v I I I I #
coedge $-1 -1 $-1 $112 $113 $114 $115 reversed $44 $-1 #
model_id-kcp-attrib $-1 -1 $-1 $-1 $47 1 1021498070 1021498070 -1846870014 2 #
face $116 -1 $-1 $117 $118 $24 $-1 $119 reversed single #
loop $-1 -1 $-1 $-1 $120 $47 #
plane-surface $-1 -1 $-1 0 0 -3.1749999999999998 0 0 1 1 0 0 forward_v I I I I #
coedge $-1 -1 $-1 $121 $122 $123 $124 forward $48 $-1 #
model_id-kcp-attrib $-1 -1 $-1 $-1 $51 1 1021498070 1021498070 -1846870015 5 #
face $125 -1 $-1 $126 $127 $8 $-1 $128 forward single #
loop $-1 -1 $-1 $-1 $129 $51 #
plane-surface $-1 -1 $-1 -13.334999999999997 7.6989658396436598 0 -0.86602540378443871 -0.5 0 12.699999999999999 -21.997045256124743 0 forward_v I I I I #
coedge $-1 -1 $-1 $130 $92 $131 $132 forward $52 $-1 #
coedge $-1 -1 $-1 $94 $54 $133 $134 reversed $35 $-1 #
coedge $-1 -1 $-1 $92 $130 $54 $84 reversed $52 $-1 #
edge $135 -1 $-1 $97 0 $136 0.25 $83 $137 forward @7 unknown #
coedge $-1 -1 $-1 $55 $55 $138 $139 forward $37 $-1 #
coedge $-1 -1 $-1 $140 $141 $55 $87 reversed $142 $-1 #
edge $143 -1 $-1 $144 8.8107475449203274e-017 $145 3.1415926535897918 $55 $146 forward @7 unknown #
coedge $-1 -1 $-1 $147 $56 $148 $149 reversed $27 $-1 #
coedge $-1 -1 $-1 $150 $151 $56 $90 forward $152 $-1 #
edge $153 -1 $-1 $154 0 $96 0.34999999999999998 $56 $155 forward @7 unknown #
coedge $-1 -1 $-1 $57 $147 $156 $157 reversed $27 $-1 #
coedge $-1 -1 $-1 $81 $83 $57 $93 forward $52 $-1 #
edge $158 -1 $-1 $97 0 $159 0.35000000000000009 $57 $160 forward @7 unknown #
coedge $-1 -1 $-1 $58 $82 $150 $161 reversed $35 $-1 #
attrib_edge_convexity-kcp-attrib $-1 -1 $162 $-1 $59 1 #
vertex $-1 -1 $-1 $90 $163 #
vertex $-1 -1 $-1 $93 $164 #
straight-curve $-1 -1 $-1 0 15.397931679287321 0 -25.399999999999999 0 0 I I #
loop $-1 -1 $-1 $-1 $165 $60 #
plane-surface $-1 -1 $-1 -4.4450000000000003 7.6989658396436598 0 0 0 1 1 0 0 forward_v I I I I #
coedge $-1 -1 $-1 $101 $101 $64 $103 reversed $61 $-1 #
coedge $-1 -1 $-1 $102 $102 $165 $166 forward $63 $-1 #
edge $-1 -1 $-1 $167 -8.8107475449203311e-017 $167 6.2831853071795862 $64 $168 forward @7 unknown #
face $-1 -1 $-1 $169 $170 $30 $-1 $171 reversed single #
loop $-1 -1 $-1 $-1 $172 $65 #
plane-surface $-1 -1 $-1 0 7.6989658396436607 0 0 -1 0 0 0 -1 forward_v I I I I #
coedge $-1 -1 $-1 $173 $174 $175 $176 forward $66 $-1 #
face $-1 -1 $-1 $177 $178 $23 $-1 $179 forward single #
loop $-1 -1 $-1 $-1 $180 $68 #
plane-surface $-1 -1 $-1 -8.8899999999999988 0 0 1 0 0 0 0 -1 forward_v I I I I #
coedge $-1 -1 $-1 $181 $182 $183 $184 reversed $69 $-1 #
coedge $-1 -1 $-1 $185 $71 $186 $187 reversed $44 $-1 #
coedge $-1 -1 $-1 $71 $185 $181 $188 forward $44 $-1 #
coedge $-1 -1 $-1 $189 $190 $71 $115 forward $191 $-1 #
edge $-1 -1 $-1 $192 -6.6674999999999969 $193 2.2224999999999975 $114 $194 forward @7 unknown #
model_id-kcp-attrib $-1 -1 $-1 $-1 $73 1 1021498070 1021498070 -1846870014 4 #
face $-1 -1 $-1 $195 $196 $24 $-1 $197 reversed single #
loop $-1 -1 $-1 $-1 $198 $73 #
plane-surface $-1 -1 $-1 0 -7.6989658396436607 0 0 1 0 0 0 1 forward_v I I I I #
coedge $-1 -1 $-1 $199 $200 $201 $202 forward $74 $-1 #
coedge $-1 -1 $-1 $203 $76 $204 $205 forward $48 $-1 #
coedge $-1 -1 $-1 $76 $203 $206 $207 forward $48 $-1 #
coedge $-1 -1 $-1 $208 $209 $76 $124 reversed $210 $-1 #
edge $-1 -1 $-1 $211 -7.6989658396436607 $212 7.6989658396436607 $123 $213 forward @7 unknown #
model_id-kcp-attrib $-1 -1 $-1 $-1 $78 1 1021498070 1021498070 -1846870015 6 #
face $214 -1 $-1 $215 $216 $8 $-1 $217 forward single #
loop $-1 -1 $-1 $-1 $218 $78 #
plane-surface $-1 -1 $-1 -8.8899999999999988 0 0 0 -1 0 25.399999999999999 0 0 forward_v I I I I #
coedge $-1 -1 $-1 $219 $156 $220 $221 forward $79 $-1 #
coedge $-1 -1 $-1 $83 $81 $222 $223 reversed $52 $-1 #
coedge $-1 -1 $-1 $156 $219 $81 $132 reversed $79 $-1 #
edge $224 -1 $-1 $159 0 $225 0.25 $81 $226 forward @7 unknown #
coedge $-1 -1 $-1 $222 $227 $82 $134 forward $228 $-1 #
edge $229 -1 $-1 $230 0 $136 0.34999999999999998 $133 $231 forward @7 unknown #
attrib_edge_convexity-kcp-attrib $-1 -1 $232 $-1 $84 1 #
vertex $-1 -1 $-1 $223 $233 #
straight-curve $-1 -1 $-1 -8.8899999999999988 15.397931679287321 0 0 0 25.399999999999999 I I #
coedge $-1 -1 $-1 $234 $235 $85 $139 reversed $236 $-1 #
edge $237 -1 $-1 $145 8.8107475449203311e-017 $144 3.1415926535897936 $85 $238 forward @7 unknown #
coedge $-1 -1 $-1 $239 $86 $235 $240 reversed $142 $-1 #
coedge $-1 -1 $-1 $86 $239 $234 $241 forward $142 $-1 #
loop $-1 -1 $-1 $-1 $140 $242 #
attrib_edge_convexity-kcp-attrib $-1 -1 $243 $-1 $87 1 #
vertex $-1 -1 $-1 $139 $244 #
vertex $-1 -1 $-1 $139 $245 #
ellipse-curve $-1 -1 $-1 -4.4449999999999994 7.6989658396436624 0 0 0 1 -1.5874999999999999 2.7496306570155933 0 1 I I #
coedge $-1 -1 $-1 $91 $88 $246 $247 reversed $27 $-1 #
coedge $-1 -1 $-1 $248 $249 $88 $149 forward $216 $-1 #
edge $250 -1 $-1 $251 0 $154 0.35000000000000003 $88 $252 forward @7 unknown #
coedge $-1 -1 $-1 $253 $89 $94 $161 forward $152 $-1 #
coedge $-1 -1 $-1 $89 $253 $248 $254 reversed $152 $-1 #
loop $-1 -1 $-1 $-1 $150 $215 #
attrib_edge_convexity-kcp-attrib $-1 -1 $255 $-1 $90 1 #
vertex $-1 -1 $-1 $149 $256 #
straight-curve $-1 -1 $-1 4.4449999999999994 7.6989658396436598 0 -12.699999999999996 21.997045256124746 0 I I #
coedge $-1 -1 $-1 $129 $131 $91 $157 forward $79 $-1 #
edge $257 -1 $-1 $159 0 $258 0.34999999999999998 $91 $259 forward @7 unknown #
attrib_edge_convexity-kcp-attrib $-1 -1 $260 $-1 $93 1 #
vertex $-1 -1 $-1 $93 $261 #
straight-curve $-1 -1 $-1 -8.8899999999999988 15.397931679287321 0 -12.69999999999999 -21.997045256124746 0 I I #
edge $262 -1 $-1 $96 0 $230 0.25 $150 $263 forward @7 unknown #
convexity-sys-attrib $-1 -1 $-1 $95 $59 #
point $-1 -1 $-1 0 15.397931679287321 0 #
point $-1 -1 $-1 -8.8899999999999988 15.397931679287321 0 #
coedge $-1 -1 $-1 $165 $165 $102 $166 reversed $99 $-1 #
edge $-1 -1 $-1 $264 8.8107475449203274e-017 $264 6.2831853071795862 $102 $265 forward @7 unknown #
vertex $-1 -1 $-1 $103 $266 #
ellipse-curve $-1 -1 $-1 -4.4450000000000003 7.6989658396436607 6.3499999999999996 0 0 -1 1.5874999999999968 -2.7496306570155951 0 1 I I #
face $-1 -1 $-1 $267 $268 $30 $-1 $171 reversed single #
loop $-1 -1 $-1 $-1 $269 $104 #
plane-surface $-1 -1 $-1 0 0 -3.1749999999999998 0 0 1 1 0 0 forward_v I I I I #
coedge $-1 -1 $-1 $270 $271 $272 $273 forward $105 $-1 #
coedge $-1 -1 $-1 $274 $107 $275 $276 reversed $66 $-1 #
coedge $-1 -1 $-1 $107 $274 $277 $278 reversed $66 $-1 #
coedge $-1 -1 $-1 $279 $280 $281 $176 reversed $282 $-1 #
edge $-1 -1 $-1 $283 -1.5874999999999999 $284 4.7624999999999993 $107 $285 forward @7 unknown #
face $-1 -1 $-1 $286 $191 $23 $-1 $179 forward single #
loop $-1 -1 $-1 $-1 $183 $108 #
plane-surface $-1 -1 $-1 0 0 3.1749999999999998 0 0 1 1 0 0 forward_v I I I I #
coedge $-1 -1 $-1 $287 $288 $113 $188 reversed $109 $-1 #
coedge $-1 -1 $-1 $289 $111 $290 $188 reversed $69 $-1 #
coedge $-1 -1 $-1 $111 $289 $291 $292 reversed $69 $-1 #
coedge $-1 -1 $-1 $293 $294 $111 $184 forward $178 $-1 #
edge $-1 -1 $-1 $193 -6.6675000000000013 $295 2.2225000000000015 $183 $296 forward @7 unknown #
coedge $-1 -1 $-1 $113 $112 $297 $298 reversed $44 $-1 #
coedge $-1 -1 $-1 $299 $300 $112 $187 forward $301 $-1 #
edge $-1 -1 $-1 $302 -1.5874999999999999 $192 4.7624999999999993 $186 $303 forward @7 unknown #
edge $-1 -1 $-1 $304 -1.5874999999999999 $193 4.7624999999999993 $290 $305 forward @7 unknown #
coedge $-1 -1 $-1 $190 $114 $288 $306 forward $191 $-1 #
coedge $-1 -1 $-1 $114 $189 $299 $307 forward $191 $-1 #
loop $-1 -1 $-1 $-1 $114 $177 #
vertex $-1 -1 $-1 $115 $308 #
vertex $-1 -1 $-1 $306 $309 #
straight-curve $-1 -1 $-1 -7.7787499999999987 -1.9247414599109165 3.1749999999999998 -0.5 0.86602540378443871 0 I I #
face $310 -1 $-1 $311 $312 $24 $-1 $313 reversed single #
loop $-1 -1 $-1 $-1 $314 $117 #
plane-surface $-1 -1 $-1 -8.8899999999999988 0 0 1 0 0 0 0 -1 forward_v I I I I #
coedge $-1 -1 $-1 $315 $206 $316 $317 forward $118 $-1 #
coedge $-1 -1 $-1 $318 $120 $315 $319 forward $74 $-1 #
coedge $-1 -1 $-1 $120 $318 $320 $321 forward $74 $-1 #
coedge $-1 -1 $-1 $209 $208 $120 $202 reversed $210 $-1 #
edge $-1 -1 $-1 $322 -7.6989658396436607 $323 7.6989658396436607 $201 $324 forward @7 unknown #
coedge $-1 -1 $-1 $122 $121 $325 $326 forward $48 $-1 #
coedge $-1 -1 $-1 $327 $328 $121 $205 reversed $312 $-1 #
edge $-1 -1 $-1 $212 -8.8899999999999988 $329 8.8899999999999988 $204 $330 forward @7 unknown #
coedge $-1 -1 $-1 $198 $331 $122 $207 reversed $118 $-1 #
edge $-1 -1 $-1 $332 -8.8899999999999988 $211 8.8899999999999988 $206 $333 forward @7 unknown #
coedge $-1 -1 $-1 $201 $123 $331 $334 forward $210 $-1 #
coedge $-1 -1 $-1 $123 $201 $327 $335 reversed $210 $-1 #
loop $-1 -1 $-1 $-1 $208 $311 #
vertex $-1 -1 $-1 $124 $336 #
vertex $-1 -1 $-1 $124 $337 #
straight-curve $-1 -1 $-1 8.8899999999999988 0 3.1749999999999998 0 1 0 I I #
model_id-kcp-attrib $-1 -1 $-1 $-1 $126 1 1021498070 1021498070 -1846870015 7 #
face $338 -1 $-1 $339 $152 $8 $-1 $340 forward single #
loop $-1 -1 $-1 $-1 $248 $126 #
plane-surface $-1 -1 $-1 0 0 0 0.86602540378443871 -0.49999999999999989 0 12.699999999999999 21.997045256124746 0 forward_v I I I I #
coedge $-1 -1 $-1 $341 $246 $249 $342 forward $127 $-1 #
coedge $-1 -1 $-1 $131 $129 $343 $344 reversed $79 $-1 #
coedge $-1 -1 $-1 $246 $341 $129 $221 reversed $127 $-1 #
edge $345 -1 $-1 $258 0 $346 0.25 $129 $347 forward @7 unknown #
coedge $-1 -1 $-1 $343 $133 $130 $223 forward $228 $-1 #
edge $348 -1 $-1 $136 0 $225 0.35000000000000009 $222 $349 forward @7 unknown #
attrib_edge_convexity-kcp-attrib $-1 -1 $350 $-1 $132 1 #
vertex $-1 -1 $-1 $223 $351 #
straight-curve $-1 -1 $-1 -13.334999999999997 7.6989658396436598 0 0 0 25.399999999999999 I I #
coedge $-1 -1 $-1 $133 $352 $253 $353 forward $228 $-1 #
loop $-1 -1 $-1 $354 $343 $339 #
model_id-kcp-attrib $-1 -1 $355 $-1 $134 1 1021498070 1021498070 -1846870015 14 #
vertex $-1 -1 $-1 $134 $356 #
straight-curve $-1 -1 $-1 0 15.397931679287321 6.3499999999999996 -25.399999999999999 0 0 I I #
convexity-sys-attrib $-1 -1 $-1 $135 $84 #
point $-1 -1 $-1 -8.8899999999999988 15.397931679287321 6.3499999999999996 #
coedge $-1 -1 $-1 $357 $138 $141 $241 reversed $236 $-1 #
coedge $-1 -1 $-1 $138 $357 $140 $240 forward $236 $-1 #
loop $-1 -1 $-1 $-1 $234 $358 #
attrib_edge_convexity-kcp-attrib $-1 -1 $359 $-1 $139 1 #
ellipse-curve $-1 -1 $-1 -4.4450000000000003 7.6989658396436607 0 0 0 1 1.5874999999999968 -2.7496306570155951 0 1 I I #
coedge $-1 -1 $-1 $141 $140 $360 $361 forward $142 $-1 #
edge $-1 -1 $-1 $362 0 $144 0.25 $235 $363 forward @7 unknown #
edge $-1 -1 $-1 $364 0 $145 0.25 $234 $365 forward @7 unknown #
face $366 -1 $-1 $358 $142 $8 $-1 $367 reversed single #
convexity-sys-attrib $-1 -1 $-1 $143 $87 #
point $-1 -1 $-1 -6.0324999999999998 10.448596496659256 0 #
point $-1 -1 $-1 -2.8575000000000035 4.949335182628066 0 #
coedge $-1 -1 $-1 $218 $220 $147 $247 forward $127 $-1 #
edge $368 -1 $-1 $258 0 $251 0.34999999999999998 $147 $369 forward @7 unknown #
coedge $-1 -1 $-1 $370 $148 $151 $254 forward $216 $-1 #
coedge $-1 -1 $-1 $148 $370 $218 $342 reversed $216 $-1 #
attrib_edge_convexity-kcp-attrib $-1 -1 $371 $-1 $149 1 #
vertex $-1 -1 $-1 $247 $372 #
straight-curve $-1 -1 $-1 0 0 0 12.699999999999998 21.997045256124743 0 I I #
coedge $-1 -1 $-1 $151 $150 $227 $353 reversed $152 $-1 #
edge $-1 -1 $-1 $154 0 $373 0.25 $248 $374 forward @7 unknown #
convexity-sys-attrib $-1 -1 $-1 $153 $90 #
point $-1 -1 $-1 4.4449999999999994 7.6989658396436598 0 #
attrib_edge_convexity-kcp-attrib $-1 -1 $375 $-1 $157 1 #
vertex $-1 -1 $-1 $157 $376 #
straight-curve $-1 -1 $-1 -13.334999999999997 7.6989658396436598 0 12.699999999999998 -21.997045256124739 0 I I #
convexity-sys-attrib $-1 -1 $-1 $158 $93 #
point $-1 -1 $-1 -13.334999999999997 7.6989658396436598 0 #
attrib_edge_convexity-kcp-attrib $-1 -1 $377 $-1 $161 1 #
straight-curve $-1 -1 $-1 0 15.397931679287321 0 0 0 25.399999999999999 I I #
vertex $-1 -1 $-1 $166 $378 #
ellipse-curve $-1 -1 $-1 -4.4449999999999994 7.6989658396436624 0 0 0 1 -1.5874999999999999 2.7496306570155933 0 1 I I #
point $-1 -1 $-1 -2.8575000000000035 4.949335182628066 6.3499999999999996 #
face $-1 -1 $-1 $379 $380 $30 $-1 $179 forward single #
loop $-1 -1 $-1 $-1 $381 $169 #
coedge $-1 -1 $-1 $277 $382 $383 $384 forward $170 $-1 #
coedge $-1 -1 $-1 $385 $172 $386 $387 reversed $105 $-1 #
coedge $-1 -1 $-1 $172 $385 $388 $389 reversed $105 $-1 #
coedge $-1 -1 $-1 $390 $391 $172 $273 reversed $392 $-1 #
edge $-1 -1 $-1 $393 -1.5874999999999999 $394 4.7624999999999993 $172 $395 forward @7 unknown #
coedge $-1 -1 $-1 $174 $173 $396 $397 forward $66 $-1 #
coedge $-1 -1 $-1 $398 $399 $173 $276 forward $380 $-1 #
edge $-1 -1 $-1 $400 -7.6989658396436607 $284 -8.8817841970012523e-016 $173 $401 forward @7 unknown #
coedge $-1 -1 $-1 $382 $269 $174 $278 forward $170 $-1 #
edge $-1 -1 $-1 $283 8.8817841970012523e-016 $402 7.6989658396436607 $174 $403 forward @7 unknown #
coedge $-1 -1 $-1 $404 $175 $405 $406 reversed $282 $-1 #
coedge $-1 -1 $-1 $175 $404 $407 $408 reversed $282 $-1 #
coedge $-1 -1 $-1 $391 $390 $409 $176 forward $392 $-1 #
loop $-1 -1 $-1 $-1 $175 $410 #
vertex $-1 -1 $-1 $278 $411 #
vertex $-1 -1 $-1 $408 $412 #
straight-curve $-1 -1 $-1 8.8899999999999988 3.5527136788005009e-015 -1.5874999999999999 0 0 1 I I #
face $-1 -1 $-1 $413 $414 $23 $-1 $106 reversed single #
coedge $-1 -1 $-1 $415 $180 $416 $417 reversed $109 $-1 #
coedge $-1 -1 $-1 $180 $415 $189 $306 reversed $109 $-1 #
coedge $-1 -1 $-1 $182 $181 $418 $419 reversed $69 $-1 #
coedge $-1 -1 $-1 $420 $421 $180 $188 forward $422 $-1 #
coedge $-1 -1 $-1 $423 $424 $182 $292 forward $414 $-1 #
edge $-1 -1 $-1 $295 -4.7624999999999993 $425 1.5874999999999999 $291 $426 forward @7 unknown #
coedge $-1 -1 $-1 $294 $183 $424 $427 forward $178 $-1 #
coedge $-1 -1 $-1 $183 $293 $420 $428 forward $178 $-1 #
vertex $-1 -1 $-1 $427 $429 #
straight-curve $-1 -1 $-1 -5.5562500000000004 5.7742243797327442 3.1749999999999998 0.49999999999999972 0.86602540378443893 0 I I #
coedge $-1 -1 $-1 $430 $416 $185 $298 forward $431 $-1 #
edge $-1 -1 $-1 $304 -2.2224999999999975 $302 6.6674999999999969 $297 $432 forward @7 unknown #
coedge $-1 -1 $-1 $433 $186 $190 $307 reversed $301 $-1 #
coedge $-1 -1 $-1 $186 $433 $430 $434 reversed $301 $-1 #
loop $-1 -1 $-1 $-1 $186 $435 #
vertex $-1 -1 $-1 $434 $436 #
straight-curve $-1 -1 $-1 -4.4449999999999985 -7.6989658396436607 -1.5874999999999999 0 0 1 I I #
vertex $-1 -1 $-1 $437 $438 #
straight-curve $-1 -1 $-1 -8.8899999999999988 -3.5527136788005009e-015 -1.5874999999999999 0 0 1 I I #
edge $-1 -1 $-1 $193 3.5527136788005009e-015 $439 7.6989658396436607 $288 $440 forward @7 unknown #
edge $-1 -1 $-1 $439 -8.8899999999999988 $192 -4.4450000000000003 $299 $441 forward @7 unknown #
point $-1 -1 $-1 -4.4450000000000003 -7.698965839643658 3.1749999999999998 #
point $-1 -1 $-1 -8.889999999999997 -3.5527136788005009e-015 3.1749999999999998 #
model_id-kcp-attrib $-1 -1 $-1 $-1 $195 1 1021498070 1021498070 -1846870014 3 #
face $-1 -1 $-1 $-1 $210 $24 $-1 $442 reversed single #
loop $-1 -1 $-1 $-1 $327 $195 #
plane-surface $-1 -1 $-1 0 7.6989658396436607 0 0 -1 0 0 0 -1 forward_v I I I I #
coedge $-1 -1 $-1 $443 $325 $328 $444 forward $196 $-1 #
coedge $-1 -1 $-1 $331 $198 $199 $319 reversed $118 $-1 #
coedge $-1 -1 $-1 $325 $443 $198 $317 reversed $196 $-1 #
edge $-1 -1 $-1 $332 -3.1749999999999998 $445 3.1749999999999998 $316 $446 forward @7 unknown #
coedge $-1 -1 $-1 $200 $199 $443 $447 forward $74 $-1 #
edge $-1 -1 $-1 $323 -8.8899999999999988 $445 8.8899999999999988 $315 $448 forward @7 unknown #
coedge $-1 -1 $-1 $328 $327 $200 $321 reversed $312 $-1 #
edge $-1 -1 $-1 $449 -8.8899999999999988 $322 8.8899999999999988 $320 $450 forward @7 unknown #
vertex $-1 -1 $-1 $202 $451 #
vertex $-1 -1 $-1 $334 $452 #
straight-curve $-1 -1 $-1 8.8899999999999988 0 -3.1749999999999998 0 -1 0 I I #
coedge $-1 -1 $-1 $314 $316 $203 $326 reversed $196 $-1 #
edge $-1 -1 $-1 $329 -7.6989658396436607 $332 7.6989658396436607 $325 $453 forward @7 unknown #
coedge $-1 -1 $-1 $320 $204 $209 $335 forward $312 $-1 #
coedge $-1 -1 $-1 $204 $320 $314 $444 reversed $312 $-1 #
vertex $-1 -1 $-1 $205 $454 #
straight-curve $-1 -1 $-1 0 7.6989658396436607 3.1749999999999998 -1 0 0 I I #
coedge $-1 -1 $-1 $206 $315 $208 $334 reversed $118 $-1 #
vertex $-1 -1 $-1 $326 $455 #
straight-curve $-1 -1 $-1 0 -7.6989658396436607 3.1749999999999998 1 0 0 I I #
edge $-1 -1 $-1 $211 -3.1749999999999998 $323 3.1749999999999998 $208 $456 forward @7 unknown #
edge $-1 -1 $-1 $212 -3.1749999999999998 $322 3.1749999999999998 $209 $457 forward @7 unknown #
point $-1 -1 $-1 8.8899999999999988 -7.6989658396436607 3.1749999999999998 #
point $-1 -1 $-1 8.8899999999999988 7.6989658396436607 3.1749999999999998 #
model_id-kcp-attrib $-1 -1 $-1 $-1 $215 1 1021498070 1021498070 -1846870015 8 #
face $458 -1 $-1 $242 $228 $8 $-1 $459 forward single #
plane-surface $-1 -1 $-1 4.4449999999999994 7.6989658396436598 0 0.86602540378443882 0.49999999999999989 0 -12.699999999999999 21.99704525612475 0 forward_v I I I I #
coedge $-1 -1 $-1 $220 $218 $460 $461 reversed $127 $-1 #
edge $-1 -1 $-1 $251 0 $462 0.25 $218 $463 forward @7 unknown #
coedge $-1 -1 $-1 $460 $222 $219 $344 forward $228 $-1 #
edge $464 -1 $-1 $225 0 $346 0.34999999999999998 $343 $465 forward @7 unknown #
attrib_edge_convexity-kcp-attrib $-1 -1 $466 $-1 $221 1 #
vertex $-1 -1 $-1 $461 $467 #
straight-curve $-1 -1 $-1 -8.889999999999997 0 0 0 0 25.399999999999999 I I #
attrib_edge_convexity-kcp-attrib $-1 -1 $468 $-1 $223 1 #
straight-curve $-1 -1 $-1 -8.8899999999999988 15.397931679287321 6.3499999999999996 -12.69999999999999 -21.997045256124746 0 I I #
convexity-sys-attrib $-1 -1 $-1 $224 $132 #
point $-1 -1 $-1 -13.334999999999997 7.6989658396436598 6.3499999999999996 #
coedge $-1 -1 $-1 $227 $460 $370 $469 forward $228 $-1 #
edge $-1 -1 $-1 $373 0 $230 0.34999999999999998 $227 $470 forward @7 unknown #
loop $-1 -1 $-1 $-1 $360 $339 #
attrib_edge_convexity-kcp-attrib $-1 -1 $471 $229 $134 1 #
point $-1 -1 $-1 0 15.397931679287321 6.3499999999999996 #
coedge $-1 -1 $-1 $235 $234 $472 $473 forward $236 $-1 #
face $474 -1 $-1 $-1 $236 $8 $-1 $475 reversed single #
convexity-sys-attrib $-1 -1 $-1 $237 $139 #
coedge $-1 -1 $-1 $472 $472 $239 $361 reversed $354 $-1 #
edge $-1 -1 $-1 $362 8.8107475449203274e-017 $364 3.1415926535897918 $360 $476 forward @7 unknown #
vertex $-1 -1 $-1 $473 $477 #
straight-curve $-1 -1 $-1 -6.0324999999999998 10.448596496659254 6.3499999999999996 0 0 -25.399999999999999 I I #
vertex $-1 -1 $-1 $473 $478 #
straight-curve $-1 -1 $-1 -2.8574999999999995 4.9493351826280669 6.3499999999999996 0 0 -25.399999999999999 I I #
model_id-kcp-attrib $-1 -1 $-1 $-1 $242 1 1021498070 1021498070 -1846870015 10 #
cone-surface $-1 -1 $-1 -4.4449999999999994 7.6989658396436607 6.3499999999999996 0 0 1 1.5874999999999999 -2.7496306570155937 0 1 I I 0 1 3.1750000000000007 forward I I I I #
attrib_edge_convexity-kcp-attrib $-1 -1 $479 $-1 $247 1 #
straight-curve $-1 -1 $-1 -8.8899999999999988 0 0 25.399999999999999 0 0 I I #
coedge $-1 -1 $-1 $249 $248 $352 $469 reversed $216 $-1 #
convexity-sys-attrib $-1 -1 $-1 $250 $149 #
point $-1 -1 $-1 0 0 0 #
vertex $-1 -1 $-1 $353 $480 #
straight-curve $-1 -1 $-1 4.4449999999999985 7.6989658396436598 0 0 0 25.399999999999999 I I #
convexity-sys-attrib $-1 -1 $-1 $257 $157 #
point $-1 -1 $-1 -8.8899999999999988 0 0 #
convexity-sys-attrib $-1 -1 $-1 $262 $161 #
point $-1 -1 $-1 -6.0324999999999998 10.448596496659256 0 #
face $-1 -1 $-1 $410 $481 $30 $-1 $179 forward single #
loop $-1 -1 $-1 $-1 $398 $267 #
coedge $-1 -1 $-1 $388 $405 $390 $482 forward $268 $-1 #
coedge $-1 -1 $-1 $269 $277 $483 $484 forward $170 $-1 #
coedge $-1 -1 $-1 $485 $409 $269 $384 reversed $486 $-1 #
edge $-1 -1 $-1 $487 -2.2225000000000019 $283 6.6674999999999978 $269 $488 forward @7 unknown #
coedge $-1 -1 $-1 $271 $270 $404 $489 forward $105 $-1 #
coedge $-1 -1 $-1 $490 $407 $270 $387 forward $481 $-1 #
edge $-1 -1 $-1 $491 -8.8899999999999988 $394 -4.4449999999999985 $270 $492 forward @7 unknown #
coedge $-1 -1 $-1 $405 $381 $271 $389 forward $268 $-1 #
edge $-1 -1 $-1 $393 4.4449999999999985 $493 8.8899999999999988 $271 $494 forward @7 unknown #
coedge $-1 -1 $-1 $281 $272 $381 $482 reversed $392 $-1 #
coedge $-1 -1 $-1 $272 $281 $490 $495 reversed $392 $-1 #
loop $-1 -1 $-1 $-1 $391 $496 #
vertex $-1 -1 $-1 $389 $497 #
vertex $-1 -1 $-1 $273 $498 #
straight-curve $-1 -1 $-1 4.4449999999999985 7.6989658396436607 -1.5874999999999999 0 0 1 I I #
coedge $-1 -1 $-1 $499 $483 $274 $397 reversed $500 $-1 #
edge $-1 -1 $-1 $400 -3.1749999999999998 $402 3.1749999999999998 $274 $501 forward @7 unknown #
coedge $-1 -1 $-1 $399 $275 $502 $503 forward $380 $-1 #
coedge $-1 -1 $-1 $275 $398 $499 $504 forward $380 $-1 #
vertex $-1 -1 $-1 $276 $505 #
straight-curve $-1 -1 $-1 8.8899999999999988 0 3.1749999999999998 0 1 0 I I #
vertex $-1 -1 $-1 $397 $506 #
straight-curve $-1 -1 $-1 8.8899999999999988 0 -3.1749999999999998 0 -1 0 I I #
coedge $-1 -1 $-1 $280 $279 $385 $489 reversed $282 $-1 #
coedge $-1 -1 $-1 $381 $388 $279 $406 forward $268 $-1 #
edge $-1 -1 $-1 $493 -7.6989658396436607 $283 8.8817841970012523e-016 $279 $403 forward @7 unknown #
coedge $-1 -1 $-1 $386 $490 $280 $408 forward $481 $-1 #
edge $-1 -1 $-1 $284 -8.8817841970012523e-016 $491 7.6989658396436607 $280 $401 forward @7 unknown #
coedge $-1 -1 $-1 $383 $502 $107 $176 reversed $486 $-1 #
face $-1 -1 $-1 $507 $282 $30 $-1 $67 reversed single #
point $-1 -1 $-1 8.889999999999997 -8.8817841970012523e-016 -3.1749999999999998 #
point $-1 -1 $-1 8.889999999999997 -8.8817841970012523e-016 3.1749999999999998 #
face $-1 -1 $-1 $508 $509 $23 $-1 $171 reversed single #
loop $-1 -1 $-1 $-1 $291 $286 #
coedge $-1 -1 $-1 $288 $287 $433 $510 reversed $109 $-1 #
coedge $-1 -1 $-1 $297 $430 $287 $417 forward $431 $-1 #
edge $-1 -1 $-1 $511 -7.6989658396436607 $304 -3.5527136788005009e-015 $287 $512 forward @7 unknown #
coedge $-1 -1 $-1 $513 $514 $289 $419 forward $509 $-1 #
edge $-1 -1 $-1 $425 -2.2225000000000015 $304 6.6675000000000013 $418 $515 forward @7 unknown #
coedge $-1 -1 $-1 $516 $290 $294 $428 reversed $422 $-1 #
coedge $-1 -1 $-1 $290 $516 $513 $437 reversed $422 $-1 #
loop $-1 -1 $-1 $-1 $290 $517 #
coedge $-1 -1 $-1 $518 $291 $514 $519 reversed $414 $-1 #
coedge $-1 -1 $-1 $291 $518 $293 $427 reversed $414 $-1 #
vertex $-1 -1 $-1 $292 $520 #
straight-curve $-1 -1 $-1 -4.4450000000000012 7.6989658396436607 -1.5874999999999999 0 0 -1 I I #
edge $-1 -1 $-1 $295 4.4450000000000003 $521 8.8899999999999988 $424 $492 forward @7 unknown #
edge $-1 -1 $-1 $521 -7.6989658396436607 $193 3.5527136788005009e-015 $420 $440 forward @7 unknown #
point $-1 -1 $-1 -4.4450000000000003 7.6989658396436607 3.1749999999999998 #
coedge $-1 -1 $-1 $416 $297 $300 $434 forward $431 $-1 #
loop $-1 -1 $-1 $-1 $297 $508 #
straight-curve $-1 -1 $-1 -7.7787499999999987 -1.9247414599109165 -3.1749999999999998 0.5 -0.86602540378443871 0 I I #
coedge $-1 -1 $-1 $300 $299 $415 $510 forward $301 $-1 #
edge $-1 -1 $-1 $302 4.4450000000000003 $511 8.8899999999999988 $300 $522 forward @7 unknown #
face $-1 -1 $-1 $517 $301 $23 $-1 $523 reversed single #
point $-1 -1 $-1 -4.4450000000000003 -7.698965839643658 -3.1749999999999998 #
edge $-1 -1 $-1 $304 -3.5527136788005009e-015 $524 7.6989658396436607 $421 $512 forward @7 unknown #
point $-1 -1 $-1 -8.889999999999997 -3.5527136788005009e-015 -3.1749999999999998 #
vertex $-1 -1 $-1 $306 $525 #
straight-curve $-1 -1 $-1 -8.8899999999999988 0 3.1749999999999998 0 -1 0 I I #
straight-curve $-1 -1 $-1 0 -7.6989658396436607 3.1749999999999998 1 0 0 I I #
plane-surface $-1 -1 $-1 8.8899999999999988 0 0 -1 0 0 0 0 1 forward_v I I I I #
coedge $-1 -1 $-1 $316 $314 $318 $447 reversed $196 $-1 #
edge $-1 -1 $-1 $329 -3.1749999999999998 $449 3.1749999999999998 $328 $526 forward @7 unknown #
vertex $-1 -1 $-1 $447 $527 #
straight-curve $-1 -1 $-1 -8.8899999999999988 -7.6989658396436607 0 0 0 -1 I I #
edge $-1 -1 $-1 $445 -7.6989658396436607 $449 7.6989658396436607 $443 $528 forward @7 unknown #
straight-curve $-1 -1 $-1 0 -7.6989658396436607 -3.1749999999999998 -1 0 0 I I #
vertex $-1 -1 $-1 $321 $529 #
straight-curve $-1 -1 $-1 0 7.6989658396436607 -3.1749999999999998 1 0 0 I I #
point $-1 -1 $-1 8.8899999999999988 7.6989658396436607 -3.1749999999999998 #
point $-1 -1 $-1 8.8899999999999988 -7.6989658396436607 -3.1749999999999998 #
straight-curve $-1 -1 $-1 -8.8899999999999988 0 3.1749999999999998 0 -1 0 I I #
point $-1 -1 $-1 -8.8899999999999988 7.6989658396436607 3.1749999999999998 #
point $-1 -1 $-1 -8.8899999999999988 -7.6989658396436607 3.1749999999999998 #
straight-curve $-1 -1 $-1 8.8899999999999988 -7.6989658396436607 0 0 0 -1 I I #
straight-curve $-1 -1 $-1 8.8899999999999988 7.6989658396436607 0 0 0 -1 I I #
model_id-kcp-attrib $-1 -1 $-1 $-1 $339 1 1021498070 1021498070 -1846870015 9 #
plane-surface $-1 -1 $-1 0 0 6.3499999999999996 0 0 1 25.399999999999999 0 0 forward_v I I I I #
coedge $-1 -1 $-1 $352 $343 $341 $461 forward $228 $-1 #
edge $530 -1 $-1 $346 0 $462 0.34999999999999998 $460 $531 forward @7 unknown #
vertex $-1 -1 $-1 $469 $532 #
straight-curve $-1 -1 $-1 0 0 0 0 0 25.399999999999999 I I #
attrib_edge_convexity-kcp-attrib $-1 -1 $533 $-1 $344 1 #
straight-curve $-1 -1 $-1 -13.334999999999997 7.6989658396436598 6.3499999999999996 12.699999999999998 -21.997045256124739 0 I I #
convexity-sys-attrib $-1 -1 $-1 $345 $221 #
point $-1 -1 $-1 -8.8899999999999988 0 6.3499999999999996 #
convexity-sys-attrib $-1 -1 $-1 $348 $223 #
edge $-1 -1 $-1 $462 0 $373 0.35000000000000003 $352 $534 forward @7 unknown #
straight-curve $-1 -1 $-1 4.4449999999999994 7.6989658396436598 6.3499999999999996 -12.699999999999996 21.997045256124746 0 I I #
convexity-sys-attrib $-1 -1 $-1 $355 $134 #
coedge $-1 -1 $-1 $360 $360 $357 $473 reversed $354 $-1 #
edge $-1 -1 $-1 $364 0 $362 3.1415926535897944 $472 $535 forward @7 unknown #
model_id-kcp-attrib $-1 -1 $-1 $-1 $358 1 1021498070 1021498070 -1846870015 11 #
cone-surface $-1 -1 $-1 -4.4449999999999994 7.6989658396436607 6.3499999999999996 0 0 1 1.5874999999999999 -2.7496306570155937 0 1 I I 0 1 3.1750000000000007 forward I I I I #
ellipse-curve $-1 -1 $-1 -4.4449999999999994 7.6989658396436607 6.3499999999999996 0 0 1 -1.5874999999999999 2.7496306570155933 0 1 I I #
point $-1 -1 $-1 -6.0324999999999998 10.448596496659254 6.3499999999999996 #
point $-1 -1 $-1 -2.8575000000000035 4.949335182628066 6.3499999999999996 #
convexity-sys-attrib $-1 -1 $-1 $368 $247 #
point $-1 -1 $-1 4.4449999999999994 7.6989658396436598 6.3499999999999996 #
loop $-1 -1 $-1 $-1 $490 $379 #
edge $-1 -1 $-1 $283 -2.2224999999999988 $393 6.6675000000000022 $381 $536 forward @7 unknown #
coedge $-1 -1 $-1 $396 $537 $382 $484 reversed $500 $-1 #
edge $-1 -1 $-1 $402 -8.8899999999999988 $487 -4.4449999999999985 $483 $522 forward @7 unknown #
coedge $-1 -1 $-1 $502 $383 $537 $538 reversed $486 $-1 #
loop $-1 -1 $-1 $-1 $502 $539 #
vertex $-1 -1 $-1 $384 $540 #
straight-curve $-1 -1 $-1 5.5562499999999995 -5.7742243797327442 -3.1749999999999998 0.49999999999999983 0.86602540378443882 0 I I #
edge $-1 -1 $-1 $491 -3.1749999999999998 $493 3.1749999999999998 $404 $541 forward @7 unknown #
coedge $-1 -1 $-1 $407 $386 $391 $495 forward $481 $-1 #
vertex $-1 -1 $-1 $408 $542 #
straight-curve $-1 -1 $-1 0 7.6989658396436607 3.1749999999999998 -1 0 0 I I #
vertex $-1 -1 $-1 $406 $543 #
straight-curve $-1 -1 $-1 0 7.6989658396436607 -3.1749999999999998 1 0 0 I I #
edge $-1 -1 $-1 $394 -6.6675000000000022 $284 2.2224999999999988 $490 $544 forward @7 unknown #
face $-1 -1 $-1 $539 $392 $30 $-1 $545 reversed single #
point $-1 -1 $-1 4.4449999999999985 7.6989658396436607 -3.1749999999999998 #
point $-1 -1 $-1 4.4449999999999985 7.6989658396436607 3.1749999999999998 #
coedge $-1 -1 $-1 $537 $396 $399 $504 reversed $500 $-1 #
loop $-1 -1 $-1 $-1 $537 $507 #
straight-curve $-1 -1 $-1 8.8899999999999988 -7.6989658396436607 0 0 0 -1 I I #
coedge $-1 -1 $-1 $409 $485 $398 $503 reversed $486 $-1 #
edge $-1 -1 $-1 $284 -6.6674999999999978 $546 2.2225000000000019 $398 $547 forward @7 unknown #
edge $-1 -1 $-1 $546 4.4449999999999985 $400 8.8899999999999988 $499 $441 forward @7 unknown #
point $-1 -1 $-1 8.8899999999999988 -7.6989658396436607 3.1749999999999998 #
point $-1 -1 $-1 8.8899999999999988 -7.6989658396436607 -3.1749999999999998 #
face $-1 -1 $-1 $496 $500 $30 $-1 $523 reversed single #
face $-1 -1 $-1 $435 $431 $23 $-1 $171 reversed single #
loop $-1 -1 $-1 $-1 $418 $413 #
edge $-1 -1 $-1 $439 -3.1749999999999998 $511 3.1749999999999998 $415 $548 forward @7 unknown #
vertex $-1 -1 $-1 $417 $549 #
straight-curve $-1 -1 $-1 -8.8899999999999988 0 -3.1749999999999998 0 1 0 I I #
coedge $-1 -1 $-1 $514 $418 $421 $437 forward $509 $-1 #
coedge $-1 -1 $-1 $418 $513 $423 $519 forward $509 $-1 #
straight-curve $-1 -1 $-1 -5.5562500000000004 5.7742243797327442 -3.1749999999999998 -0.49999999999999972 -0.86602540378443893 0 I I #
coedge $-1 -1 $-1 $421 $420 $518 $550 forward $422 $-1 #
face $-1 -1 $-1 $-1 $422 $23 $-1 $110 reversed single #
coedge $-1 -1 $-1 $424 $423 $516 $550 reversed $414 $-1 #
edge $-1 -1 $-1 $524 -8.8899999999999988 $425 -4.4450000000000003 $423 $494 forward @7 unknown #
point $-1 -1 $-1 -4.4450000000000003 7.6989658396436607 -3.1749999999999998 #
vertex $-1 -1 $-1 $427 $551 #
straight-curve $-1 -1 $-1 0 -7.6989658396436607 -3.1749999999999998 -1 0 0 I I #
plane-surface $-1 -1 $-1 0 -7.6989658396436607 0 0 1 0 0 0 1 forward_v I I I I #
vertex $-1 -1 $-1 $519 $552 #
point $-1 -1 $-1 -8.8899999999999988 -7.6989658396436607 3.1749999999999998 #
straight-curve $-1 -1 $-1 -8.8899999999999988 7.6989658396436607 0 0 0 -1 I I #
point $-1 -1 $-1 -8.8899999999999988 -7.6989658396436607 -3.1749999999999998 #
straight-curve $-1 -1 $-1 -8.8899999999999988 0 -3.1749999999999998 0 1 0 I I #
point $-1 -1 $-1 -8.8899999999999988 7.6989658396436607 -3.1749999999999998 #
model_id-kcp-attrib $-1 -1 $-1 $-1 $461 1 1021498070 1021498070 -1846870015 13 #
straight-curve $-1 -1 $-1 -8.8899999999999988 0 6.3499999999999996 25.399999999999999 0 0 I I #
point $-1 -1 $-1 0 0 6.3499999999999996 #
convexity-sys-attrib $-1 -1 $-1 $464 $344 #
straight-curve $-1 -1 $-1 0 0 6.3499999999999996 12.699999999999998 21.997045256124743 0 I I #
ellipse-curve $-1 -1 $-1 -4.4449999999999994 7.6989658396436607 6.3499999999999996 0 0 1 1.5874999999999961 -2.7496306570155951 0 1 I I #
straight-curve $-1 -1 $-1 7.7787499999999987 1.9247414599109136 -3.1749999999999998 -0.49999999999999983 0.86602540378443882 0 I I #
coedge $-1 -1 $-1 $483 $499 $485 $538 forward $500 $-1 #
edge $-1 -1 $-1 $546 -4.7624999999999993 $487 1.5874999999999999 $537 $553 forward @7 unknown #
face $-1 -1 $-1 $-1 $486 $30 $-1 $554 reversed single #
point $-1 -1 $-1 4.4449999999999985 -7.6989658396436607 -3.1749999999999998 #
straight-curve $-1 -1 $-1 8.8899999999999988 7.6989658396436607 0 0 0 -1 I I #
point $-1 -1 $-1 8.8899999999999988 7.6989658396436607 3.1749999999999998 #
point $-1 -1 $-1 8.8899999999999988 7.6989658396436607 -3.1749999999999998 #
straight-curve $-1 -1 $-1 7.7787499999999987 1.9247414599109136 3.1749999999999998 0.49999999999999983 -0.86602540378443882 0 I I #
plane-surface $-1 -1 $-1 8.889999999999997 -8.8817841970012523e-016 -3.1749999999999998 0.86602540378443882 0.49999999999999983 0 0 0 1 forward_v I I I I #
vertex $-1 -1 $-1 $504 $555 #
straight-curve $-1 -1 $-1 5.5562499999999995 -5.7742243797327442 3.1749999999999998 -0.49999999999999983 -0.86602540378443882 0 I I #
straight-curve $-1 -1 $-1 -8.8899999999999988 -7.6989658396436607 0 0 0 -1 I I #
point $-1 -1 $-1 -8.8899999999999988 -7.6989658396436607 -3.1749999999999998 #
edge $-1 -1 $-1 $521 -3.1749999999999998 $524 3.1749999999999998 $518 $556 forward @7 unknown #
point $-1 -1 $-1 -8.8899999999999988 7.6989658396436607 3.1749999999999998 #
point $-1 -1 $-1 -8.8899999999999988 7.6989658396436607 -3.1749999999999998 #
straight-curve $-1 -1 $-1 4.4449999999999994 -7.6989658396436607 -1.5874999999999999 0 0 -1 I I #
plane-surface $-1 -1 $-1 4.4449999999999985 -7.6989658396436607 -3.1749999999999998 0.86602540378443882 -0.49999999999999983 0 0 0 1 forward_v I I I I #
point $-1 -1 $-1 4.4449999999999985 -7.6989658396436607 3.1749999999999998 #
straight-curve $-1 -1 $-1 -8.8899999999999988 7.6989658396436607 0 0 0 -1 I I #
End-of-ACIS-data 