700 0 2 0           
24 FBMach with ACIS - 7.0.3 13 ACIS 7.0.3 NT 24 Wed May 15 17:28:00 2002 
1 9.9999999999999995e-007 1e-010 
body $2 -1 $-1 $3 $-1 $4 #
bdycol-kcp $-1 -1 1 3 $5 $6 $7 #
model_id-kcp-attrib $-1 -1 $-1 $-1 $0 1 1021498080 1021498080 -1357709311 1 #
lump $-1 -1 $-1 $-1 $8 $0 #
transform $-1 -1 1.0000000000000002 0 0 0 1 0 0 0 1.0000000000000002 0 0 0 1 rotate no_reflect no_shear #
body $9 -1 $-1 $10 $-1 $11 #
body $12 -1 $-1 $13 $-1 $14 #
body $15 -1 $-1 $16 $-1 $17 #
shell $-1 -1 $-1 $-1 $-1 $18 $-1 $3 #
model_id-kcp-attrib $-1 -1 $-1 $-1 $5 1 1021498080 1021498080 -1357709310 1 #
lump $-1 -1 $-1 $-1 $19 $5 #
transform $-1 -1 1 0 0 0 1 0 0 0 1 0 6.3499999999999996 0 1 no_rotate no_reflect no_shear #
rgb_color-st-attrib $-1 -1 $20 $-1 $6 0.5 1 1 #
lump $-1 -1 $-1 $-1 $21 $6 #
transform $-1 -1 1 0 0 0 1 0 0 0 1 0 0 0 1 no_rotate no_reflect no_shear #
rgb_color-st-attrib $-1 -1 $22 $-1 $7 0.5 1 1 #
lump $-1 -1 $-1 $23 $24 $7 #
transform $-1 -1 1 0 0 0 1 0 0 0 1 0 6.3499999999999996 0 1 no_rotate no_reflect no_shear #
face $25 -1 $-1 $26 $27 $8 $-1 $28 reversed single #
shell $-1 -1 $-1 $-1 $-1 $29 $-1 $10 #
model_id-kcp-attrib $-1 -1 $-1 $12 $6 1 1021498080 1021498080 -1348861948 1 #
shell $-1 -1 $-1 $-1 $-1 $30 $-1 $13 #
model_id-kcp-attrib $-1 -1 $-1 $15 $7 1 1021498080 1021498080 -1342570493 1 #
lump $-1 -1 $-1 $31 $32 $7 #
shell $-1 -1 $-1 $-1 $-1 $33 $-1 $16 #
model_id-kcp-attrib $-1 -1 $-1 $-1 $18 1 1021498080 1021498080 -1357709311 2 #
face $34 -1 $-1 $35 $36 $8 $-1 $37 forward single #
loop $-1 -1 $-1 $38 $39 $18 #
plane-surface $-1 -1 $-1 0 0 0 0 1 0 25.399999999999999 0 0 forward_v I I I I #
face $40 -1 $-1 $41 $42 $19 $-1 $43 forward single #
face $-1 -1 $-1 $44 $45 $21 $-1 $46 forward single #
lump $-1 -1 $-1 $47 $48 $7 #
shell $-1 -1 $-1 $-1 $-1 $49 $-1 $23 #
face $-1 -1 $-1 $50 $51 $24 $-1 $52 reversed single #
model_id-kcp-attrib $-1 -1 $-1 $-1 $26 1 1021498080 1021498080 -1357709311 3 #
face $53 -1 $-1 $54 $55 $8 $-1 $56 forward single #
loop $-1 -1 $-1 $-1 $57 $26 #
plane-surface $-1 -1 $-1 5.0799999999999992 0 -12.264204896855322 0 0 -1 -25.399999999999999 0 0 forward_v I I I I #
loop $-1 -1 $-1 $-1 $58 $18 #
coedge $-1 -1 $-1 $59 $60 $61 $62 reversed $27 $-1 #
model_id-kcp-attrib $-1 -1 $-1 $-1 $29 1 1021498080 1021498080 -1357709310 5 #
face $63 -1 $-1 $64 $65 $19 $-1 $66 reversed single #
loop $-1 -1 $-1 $-1 $67 $29 #
plane-surface $-1 -1 $-1 0 0 12.264204896855324 0 0 1 1 0 0 forward_v I I I I #
face $-1 -1 $-1 $68 $69 $21 $-1 $70 forward single #
loop $-1 -1 $-1 $71 $72 $30 #
cone-surface $-1 -1 $-1 0 0 0 0 1 0 -6.3499999999999996 0 0 1 I I 0 1 6.3499999999999996 forward I I I I #
lump $-1 -1 $-1 $-1 $73 $7 #
shell $-1 -1 $-1 $-1 $-1 $74 $-1 $31 #
face $-1 -1 $-1 $75 $76 $32 $-1 $77 forward single #
face $-1 -1 $-1 $78 $79 $24 $-1 $80 reversed single #
loop $-1 -1 $-1 $-1 $81 $33 #
plane-surface $-1 -1 $-1 12.264204896855322 -6.3499999999999996 -5.0799999999999992 0.70710678118654757 0 -0.70710678118654757 0 1 0 forward_v I I I I #
model_id-kcp-attrib $-1 -1 $-1 $-1 $35 1 1021498080 1021498080 -1357709311 4 #
face $82 -1 $-1 $83 $84 $8 $-1 $85 forward single #
loop $-1 -1 $-1 $-1 $86 $35 #
plane-surface $-1 -1 $-1 -5.0799999999999992 0 -12.264204896855322 -0.70710678118654757 0 -0.70710678118654757 -17.960512242138304 0 17.960512242138304 forward_v I I I I #
coedge $-1 -1 $-1 $87 $61 $88 $89 forward $36 $-1 #
coedge $-1 -1 $-1 $90 $90 $91 $92 reversed $38 $-1 #
coedge $-1 -1 $-1 $93 $39 $94 $95 reversed $27 $-1 #
coedge $-1 -1 $-1 $39 $96 $97 $98 reversed $27 $-1 #
coedge $-1 -1 $-1 $57 $99 $39 $62 forward $36 $-1 #
edge $100 -1 $-1 $101 0 $102 0.39999999999999997 $39 $103 forward @7 unknown #
model_id-kcp-attrib $-1 -1 $-1 $-1 $41 1 1021498080 1021498080 -1357709310 3 #
face $104 -1 $-1 $105 $106 $19 $-1 $107 reversed single #
loop $-1 -1 $-1 $-1 $108 $41 #
plane-surface $-1 -1 $-1 0 0 -12.264204896855324 0 0 1 1 0 0 forward_v I I I I #
coedge $-1 -1 $-1 $109 $110 $111 $112 forward $42 $-1 #
face $-1 -1 $-1 $-1 $113 $21 $-1 $114 reversed single #
loop $-1 -1 $-1 $-1 $115 $44 #
plane-surface $-1 -1 $-1 0 12.699999999999999 0 0 1 0 0 0 1 forward_v I I I I #
loop $-1 -1 $-1 $-1 $116 $30 #
coedge $-1 -1 $-1 $72 $72 $115 $117 forward $45 $-1 #
shell $-1 -1 $-1 $-1 $-1 $118 $-1 $47 #
face $-1 -1 $-1 $119 $120 $48 $-1 $121 reversed single #
face $-1 -1 $-1 $122 $123 $32 $-1 $124 reversed single #
loop $-1 -1 $-1 $-1 $125 $49 #
plane-surface $-1 -1 $-1 0 0 12.264204896855324 0 0 1 1 0 0 forward_v I I I I #
face $-1 -1 $-1 $126 $127 $24 $-1 $128 reversed single #
loop $-1 -1 $-1 $-1 $129 $50 #
plane-surface $-1 -1 $-1 0 6.3499999999999996 0 0 -1 0 0 0 -1 forward_v I I I I #
coedge $-1 -1 $-1 $130 $131 $129 $132 reversed $51 $-1 #
model_id-kcp-attrib $-1 -1 $-1 $-1 $54 1 1021498080 1021498080 -1357709311 5 #
face $133 -1 $-1 $134 $135 $8 $-1 $136 forward single #
loop $-1 -1 $-1 $-1 $137 $54 #
plane-surface $-1 -1 $-1 -12.264204896855322 0 -5.0799999999999992 -1 0 0 0 0 25.399999999999999 forward_v I I I I #
coedge $-1 -1 $-1 $138 $97 $139 $140 forward $55 $-1 #
coedge $-1 -1 $-1 $99 $57 $141 $142 reversed $36 $-1 #
coedge $-1 -1 $-1 $97 $138 $57 $89 reversed $55 $-1 #
edge $143 -1 $-1 $102 0 $144 0.5 $88 $145 forward @7 unknown #
coedge $-1 -1 $-1 $58 $58 $146 $147 reversed $38 $-1 #
coedge $-1 -1 $-1 $148 $149 $58 $92 forward $150 $-1 #
edge $151 -1 $-1 $152 0 $153 3.1415926535897931 $58 $154 forward @7 unknown #
coedge $-1 -1 $-1 $155 $59 $156 $157 reversed $27 $-1 #
coedge $-1 -1 $-1 $158 $159 $59 $95 forward $160 $-1 #
edge $161 -1 $-1 $162 0 $101 0.40000000000000002 $59 $163 forward @7 unknown #
coedge $-1 -1 $-1 $60 $164 $165 $166 reversed $27 $-1 #
coedge $-1 -1 $-1 $86 $88 $60 $98 forward $55 $-1 #
edge $167 -1 $-1 $102 0 $168 0.40000000000000002 $60 $169 forward @7 unknown #
coedge $-1 -1 $-1 $61 $87 $158 $170 reversed $36 $-1 #
attrib_edge_convexity-kcp-attrib $-1 -1 $171 $-1 $62 1 #
vertex $-1 -1 $-1 $95 $172 #
vertex $-1 -1 $-1 $98 $173 #
straight-curve $-1 -1 $-1 5.0799999999999992 0 -12.264204896855322 -25.399999999999999 0 0 I I #
model_id-kcp-attrib $-1 -1 $-1 $-1 $64 1 1021498080 1021498080 -1357709310 2 #
face $174 -1 $-1 $175 $176 $19 $-1 $177 reversed single #
loop $-1 -1 $-1 $-1 $178 $64 #
plane-surface $-1 -1 $-1 0 -6.3499999999999996 0 0 1 0 0 0 1 forward_v I I I I #
coedge $-1 -1 $-1 $179 $180 $181 $182 forward $65 $-1 #
coedge $-1 -1 $-1 $183 $67 $184 $185 forward $42 $-1 #
coedge $-1 -1 $-1 $67 $183 $186 $187 forward $42 $-1 #
coedge $-1 -1 $-1 $188 $189 $67 $112 reversed $190 $-1 #
edge $-1 -1 $-1 $191 -6.3499999999999996 $192 6.3499999999999996 $111 $193 forward @7 unknown #
loop $-1 -1 $-1 $-1 $194 $68 #
plane-surface $-1 -1 $-1 0 0 0 0 1 0 0 0 1 forward_v I I I I #
coedge $-1 -1 $-1 $115 $115 $72 $117 reversed $69 $-1 #
coedge $-1 -1 $-1 $116 $116 $194 $195 reversed $71 $-1 #
edge $-1 -1 $-1 $196 -3.1415926535897931 $196 3.1415926535897931 $72 $197 forward @7 unknown #
face $-1 -1 $-1 $198 $199 $73 $-1 $200 reversed single #
face $-1 -1 $-1 $201 $202 $48 $-1 $200 reversed single #
loop $-1 -1 $-1 $-1 $203 $74 #
plane-surface $-1 -1 $-1 -12.264204896855322 -6.3499999999999996 5.0799999999999992 -0.70710678118654757 0 0.70710678118654757 0 -1 0 forward_v I I I I #
face $-1 -1 $-1 $204 $205 $32 $-1 $80 reversed single #
loop $-1 -1 $-1 $-1 $206 $75 #
plane-surface $-1 -1 $-1 0 -6.3499999999999996 0 0 1 0 0 0 1 forward_v I I I I #
coedge $-1 -1 $-1 $207 $208 $209 $210 forward $76 $-1 #
face $-1 -1 $-1 $211 $212 $24 $-1 $124 reversed single #
loop $-1 -1 $-1 $-1 $213 $78 #
plane-surface $-1 -1 $-1 0 0 -12.264204896855324 0 0 1 1 0 0 forward_v I I I I #
coedge $-1 -1 $-1 $214 $215 $81 $132 forward $79 $-1 #
coedge $-1 -1 $-1 $216 $81 $213 $217 reversed $51 $-1 #
coedge $-1 -1 $-1 $81 $216 $218 $219 reversed $51 $-1 #
edge $-1 -1 $-1 $220 -7.620000000000001 $221 2.54 $129 $222 forward @7 unknown #
model_id-kcp-attrib $-1 -1 $-1 $-1 $83 1 1021498080 1021498080 -1357709311 6 #
face $223 -1 $-1 $224 $225 $8 $-1 $226 forward single #
loop $-1 -1 $-1 $-1 $227 $83 #
plane-surface $-1 -1 $-1 -12.264204896855322 0 5.0799999999999992 -0.70710678118654757 0 0.70710678118654757 17.960512242138304 0 17.960512242138304 forward_v I I I I #
coedge $-1 -1 $-1 $228 $165 $229 $230 forward $84 $-1 #
coedge $-1 -1 $-1 $88 $86 $231 $232 reversed $55 $-1 #
coedge $-1 -1 $-1 $165 $228 $86 $140 reversed $84 $-1 #
edge $233 -1 $-1 $168 0 $234 0.5 $86 $235 forward @7 unknown #
coedge $-1 -1 $-1 $231 $236 $87 $142 forward $237 $-1 #
edge $238 -1 $-1 $239 0 $144 0.39999999999999997 $141 $240 forward @7 unknown #
attrib_edge_convexity-kcp-attrib $-1 -1 $241 $-1 $89 1 #
vertex $-1 -1 $-1 $232 $242 #
straight-curve $-1 -1 $-1 -5.0799999999999992 0 -12.264204896855322 0 25.399999999999999 0 I I #
coedge $-1 -1 $-1 $243 $244 $90 $147 forward $245 $-1 #
edge $246 -1 $-1 $153 0 $152 3.1415926535897931 $90 $247 forward @7 unknown #
coedge $-1 -1 $-1 $248 $91 $244 $249 reversed $150 $-1 #
coedge $-1 -1 $-1 $91 $248 $243 $250 forward $150 $-1 #
loop $-1 -1 $-1 $-1 $148 $251 #
attrib_edge_convexity-kcp-attrib $-1 -1 $252 $-1 $92 1 #
vertex $-1 -1 $-1 $147 $253 #
vertex $-1 -1 $-1 $147 $254 #
ellipse-curve $-1 -1 $-1 0 0 0 0 -1 0 -6.3499999999999996 0 0 1 I I #
coedge $-1 -1 $-1 $255 $93 $256 $257 reversed $27 $-1 #
coedge $-1 -1 $-1 $258 $259 $93 $157 forward $260 $-1 #
edge $261 -1 $-1 $262 0 $162 0.39999999999999997 $93 $263 forward @7 unknown #
coedge $-1 -1 $-1 $264 $94 $99 $170 forward $160 $-1 #
coedge $-1 -1 $-1 $94 $264 $258 $265 reversed $160 $-1 #
loop $-1 -1 $-1 $-1 $158 $266 #
attrib_edge_convexity-kcp-attrib $-1 -1 $267 $-1 $95 1 #
vertex $-1 -1 $-1 $157 $268 #
straight-curve $-1 -1 $-1 12.264204896855322 0 -5.0799999999999992 -17.960512242138304 0 -17.960512242138307 I I #
coedge $-1 -1 $-1 $96 $255 $269 $270 reversed $27 $-1 #
coedge $-1 -1 $-1 $137 $139 $96 $166 forward $84 $-1 #
edge $271 -1 $-1 $168 0 $272 0.39999999999999997 $96 $273 forward @7 unknown #
attrib_edge_convexity-kcp-attrib $-1 -1 $274 $-1 $98 1 #
vertex $-1 -1 $-1 $98 $275 #
straight-curve $-1 -1 $-1 -5.0799999999999992 0 -12.264204896855322 -17.960512242138307 0 17.960512242138304 I I #
edge $276 -1 $-1 $101 0 $239 0.5 $158 $277 forward @7 unknown #
convexity-sys-attrib $-1 -1 $-1 $100 $62 #
point $-1 -1 $-1 5.0799999999999992 0 -12.264204896855322 #
point $-1 -1 $-1 -5.0799999999999992 0 -12.264204896855322 #
model_id-kcp-attrib $-1 -1 $-1 $-1 $105 1 1021498080 1021498080 -1357709310 4 #
face $278 -1 $-1 $279 $280 $19 $-1 $281 reversed single #
loop $-1 -1 $-1 $-1 $282 $105 #
plane-surface $-1 -1 $-1 -12.264204896855324 0 0 1 0 0 0 0 -1 forward_v I I I I #
coedge $-1 -1 $-1 $283 $186 $284 $285 forward $106 $-1 #
coedge $-1 -1 $-1 $286 $108 $283 $287 forward $65 $-1 #
coedge $-1 -1 $-1 $108 $286 $288 $289 forward $65 $-1 #
coedge $-1 -1 $-1 $189 $188 $108 $182 reversed $190 $-1 #
edge $-1 -1 $-1 $290 -6.3499999999999996 $291 6.3499999999999996 $181 $292 forward @7 unknown #
coedge $-1 -1 $-1 $110 $109 $293 $294 forward $42 $-1 #
coedge $-1 -1 $-1 $295 $296 $109 $185 reversed $280 $-1 #
edge $-1 -1 $-1 $192 -12.264204896855324 $297 12.264204896855324 $184 $298 forward @7 unknown #
coedge $-1 -1 $-1 $178 $299 $110 $187 reversed $106 $-1 #
edge $-1 -1 $-1 $300 -12.264204896855324 $191 12.264204896855324 $186 $301 forward @7 unknown #
coedge $-1 -1 $-1 $181 $111 $299 $302 forward $190 $-1 #
coedge $-1 -1 $-1 $111 $181 $295 $303 reversed $190 $-1 #
loop $-1 -1 $-1 $-1 $188 $279 #
vertex $-1 -1 $-1 $112 $304 #
vertex $-1 -1 $-1 $112 $305 #
straight-curve $-1 -1 $-1 12.264204896855324 0 12.264204896855324 0 1 0 I I #
coedge $-1 -1 $-1 $194 $194 $116 $195 forward $113 $-1 #
edge $-1 -1 $-1 $306 -3.1415926535897931 $306 3.1415926535897931 $116 $307 forward @7 unknown #
vertex $-1 -1 $-1 $117 $308 #
ellipse-curve $-1 -1 $-1 0 12.699999999999999 0 0 -1 0 6.3499999999999996 0 0 1 I I #
face $-1 -1 $-1 $309 $310 $73 $-1 $124 reversed single #
loop $-1 -1 $-1 $-1 $311 $118 #
plane-surface $-1 -1 $-1 -12.264204896855324 0 0 1 0 0 0 0 -1 forward_v I I I I #
face $-1 -1 $-1 $312 $313 $48 $-1 $80 reversed single #
loop $-1 -1 $-1 $-1 $314 $119 #
coedge $-1 -1 $-1 $315 $316 $317 $318 reversed $120 $-1 #
face $-1 -1 $-1 $319 $320 $32 $-1 $321 reversed single #
loop $-1 -1 $-1 $-1 $322 $122 #
coedge $-1 -1 $-1 $323 $324 $325 $326 forward $123 $-1 #
coedge $-1 -1 $-1 $327 $125 $324 $328 forward $76 $-1 #
coedge $-1 -1 $-1 $125 $327 $329 $330 forward $76 $-1 #
coedge $-1 -1 $-1 $331 $325 $125 $210 reversed $332 $-1 #
edge $-1 -1 $-1 $333 -9.5249999999999986 $334 3.1749999999999998 $125 $335 forward @7 unknown #
face $-1 -1 $-1 $-1 $336 $24 $-1 $321 reversed single #
loop $-1 -1 $-1 $-1 $337 $126 #
coedge $-1 -1 $-1 $338 $339 $130 $217 forward $127 $-1 #
coedge $-1 -1 $-1 $215 $129 $340 $341 forward $79 $-1 #
coedge $-1 -1 $-1 $129 $214 $338 $342 reversed $79 $-1 #
coedge $-1 -1 $-1 $131 $130 $337 $343 reversed $51 $-1 #
edge $-1 -1 $-1 $344 -3.1749999999999998 $220 9.5249999999999986 $213 $345 forward @7 unknown #
coedge $-1 -1 $-1 $346 $340 $131 $219 forward $336 $-1 #
edge $-1 -1 $-1 $221 -9.5249999999999986 $347 3.1749999999999998 $218 $348 forward @7 unknown #
vertex $-1 -1 $-1 $342 $349 #
vertex $-1 -1 $-1 $341 $350 #
straight-curve $-1 -1 $-1 10.468153672641492 6.3499999999999988 -6.8760512242138301 0.70710678118654757 0 0.70710678118654757 I I #
model_id-kcp-attrib $-1 -1 $-1 $-1 $134 1 1021498080 1021498080 -1357709311 7 #
face $351 -1 $-1 $352 $353 $8 $-1 $354 forward single #
loop $-1 -1 $-1 $-1 $355 $134 #
plane-surface $-1 -1 $-1 -5.0799999999999992 0 12.264204896855322 0 0 1 25.399999999999999 0 0 forward_v I I I I #
coedge $-1 -1 $-1 $356 $269 $357 $358 forward $135 $-1 #
coedge $-1 -1 $-1 $139 $137 $359 $360 reversed $84 $-1 #
coedge $-1 -1 $-1 $269 $356 $137 $230 reversed $135 $-1 #
edge $361 -1 $-1 $272 0 $362 0.5 $137 $363 forward @7 unknown #
coedge $-1 -1 $-1 $359 $141 $138 $232 forward $237 $-1 #
edge $364 -1 $-1 $144 0 $234 0.40000000000000002 $231 $365 forward @7 unknown #
attrib_edge_convexity-kcp-attrib $-1 -1 $366 $-1 $140 1 #
vertex $-1 -1 $-1 $232 $367 #
straight-curve $-1 -1 $-1 -12.264204896855324 0 -5.0799999999999983 0 25.399999999999999 0 I I #
coedge $-1 -1 $-1 $141 $368 $264 $369 forward $237 $-1 #
loop $-1 -1 $-1 $370 $359 $371 #
model_id-kcp-attrib $-1 -1 $372 $-1 $142 1 1021498080 1021498080 -1357709311 18 #
vertex $-1 -1 $-1 $142 $373 #
straight-curve $-1 -1 $-1 5.0799999999999992 12.699999999999999 -12.264204896855322 -25.399999999999999 0 0 I I #
convexity-sys-attrib $-1 -1 $-1 $143 $89 #
point $-1 -1 $-1 -5.0799999999999992 12.699999999999999 -12.264204896855322 #
coedge $-1 -1 $-1 $374 $146 $149 $250 reversed $245 $-1 #
coedge $-1 -1 $-1 $146 $374 $148 $249 forward $245 $-1 #
loop $-1 -1 $-1 $-1 $243 $375 #
attrib_edge_convexity-kcp-attrib $-1 -1 $376 $-1 $147 1 #
ellipse-curve $-1 -1 $-1 0 0 0 0 -1 0 6.3499999999999996 0 0 1 I I #
coedge $-1 -1 $-1 $149 $148 $377 $378 reversed $150 $-1 #
edge $-1 -1 $-1 $379 0 $153 0.5 $244 $380 forward @7 unknown #
edge $-1 -1 $-1 $381 0 $152 0.5 $243 $382 forward @7 unknown #
face $383 -1 $-1 $375 $150 $8 $-1 $384 reversed single #
convexity-sys-attrib $-1 -1 $-1 $151 $92 #
point $-1 -1 $-1 -6.3499999999999996 0 0 #
point $-1 -1 $-1 6.3499999999999996 0 0 #
coedge $-1 -1 $-1 $164 $155 $385 $386 reversed $27 $-1 #
coedge $-1 -1 $-1 $387 $388 $155 $257 forward $353 $-1 #
edge $389 -1 $-1 $390 0 $262 0.40000000000000002 $155 $391 forward @7 unknown #
coedge $-1 -1 $-1 $392 $156 $159 $265 forward $260 $-1 #
coedge $-1 -1 $-1 $156 $392 $387 $393 reversed $260 $-1 #
loop $-1 -1 $-1 $-1 $258 $352 #
attrib_edge_convexity-kcp-attrib $-1 -1 $394 $-1 $157 1 #
vertex $-1 -1 $-1 $257 $395 #
straight-curve $-1 -1 $-1 12.264204896855322 0 5.0799999999999992 0 0 -25.399999999999999 I I #
coedge $-1 -1 $-1 $159 $158 $236 $369 reversed $160 $-1 #
edge $-1 -1 $-1 $162 0 $396 0.5 $258 $397 forward @7 unknown #
face $398 -1 $-1 $371 $160 $8 $-1 $399 forward single #
convexity-sys-attrib $-1 -1 $-1 $161 $95 #
point $-1 -1 $-1 12.264204896855322 0 -5.0799999999999992 #
coedge $-1 -1 $-1 $227 $229 $164 $270 forward $135 $-1 #
edge $400 -1 $-1 $272 0 $401 0.40000000000000002 $164 $402 forward @7 unknown #
attrib_edge_convexity-kcp-attrib $-1 -1 $403 $-1 $166 1 #
vertex $-1 -1 $-1 $166 $404 #
straight-curve $-1 -1 $-1 -12.264204896855322 0 -5.0799999999999992 0 0 25.399999999999999 I I #
convexity-sys-attrib $-1 -1 $-1 $167 $98 #
point $-1 -1 $-1 -12.264204896855322 0 -5.0799999999999992 #
attrib_edge_convexity-kcp-attrib $-1 -1 $405 $-1 $170 1 #
straight-curve $-1 -1 $-1 5.0799999999999983 0 -12.264204896855324 0 25.399999999999999 0 I I #
model_id-kcp-attrib $-1 -1 $-1 $-1 $175 1 1021498080 1021498080 -1357709310 7 #
face $406 -1 $-1 $-1 $190 $19 $-1 $407 reversed single #
loop $-1 -1 $-1 $-1 $295 $175 #
plane-surface $-1 -1 $-1 0 6.3499999999999996 0 0 -1 0 0 0 -1 forward_v I I I I #
coedge $-1 -1 $-1 $408 $293 $296 $409 forward $176 $-1 #
coedge $-1 -1 $-1 $299 $178 $179 $287 reversed $106 $-1 #
coedge $-1 -1 $-1 $293 $408 $178 $285 reversed $176 $-1 #
edge $-1 -1 $-1 $300 -12.264204896855324 $410 12.264204896855324 $284 $411 forward @7 unknown #
coedge $-1 -1 $-1 $180 $179 $408 $412 forward $65 $-1 #
edge $-1 -1 $-1 $291 -12.264204896855324 $410 12.264204896855324 $283 $413 forward @7 unknown #
coedge $-1 -1 $-1 $296 $295 $180 $289 reversed $280 $-1 #
edge $-1 -1 $-1 $414 -12.264204896855324 $290 12.264204896855324 $288 $415 forward @7 unknown #
vertex $-1 -1 $-1 $182 $416 #
vertex $-1 -1 $-1 $302 $417 #
straight-curve $-1 -1 $-1 12.264204896855324 0 -12.264204896855324 0 -1 0 I I #
coedge $-1 -1 $-1 $282 $284 $183 $294 reversed $176 $-1 #
edge $-1 -1 $-1 $297 -6.3499999999999996 $300 6.3499999999999996 $293 $418 forward @7 unknown #
coedge $-1 -1 $-1 $288 $184 $189 $303 forward $280 $-1 #
coedge $-1 -1 $-1 $184 $288 $282 $409 reversed $280 $-1 #
vertex $-1 -1 $-1 $185 $419 #
straight-curve $-1 -1 $-1 0 6.3499999999999996 12.264204896855324 -1 0 0 I I #
coedge $-1 -1 $-1 $186 $283 $188 $302 reversed $106 $-1 #
vertex $-1 -1 $-1 $294 $420 #
straight-curve $-1 -1 $-1 0 -6.3499999999999996 12.264204896855324 1 0 0 I I #
edge $-1 -1 $-1 $191 -12.264204896855324 $291 12.264204896855324 $188 $421 forward @7 unknown #
edge $-1 -1 $-1 $192 -12.264204896855324 $290 12.264204896855324 $189 $422 forward @7 unknown #
point $-1 -1 $-1 12.264204896855324 -6.3499999999999996 12.264204896855324 #
point $-1 -1 $-1 12.264204896855324 6.3499999999999996 12.264204896855324 #
vertex $-1 -1 $-1 $195 $423 #
ellipse-curve $-1 -1 $-1 0 0 0 0 -1 0 -6.3499999999999996 0 0 1 I I #
point $-1 -1 $-1 -6.3499999999999996 12.699999999999999 0 #
face $-1 -1 $-1 $424 $425 $73 $-1 $80 reversed single #
loop $-1 -1 $-1 $-1 $426 $198 #
coedge $-1 -1 $-1 $427 $428 $429 $430 forward $199 $-1 #
face $-1 -1 $-1 $431 $432 $48 $-1 $124 reversed single #
loop $-1 -1 $-1 $-1 $317 $201 #
coedge $-1 -1 $-1 $433 $434 $316 $435 forward $202 $-1 #
coedge $-1 -1 $-1 $436 $203 $437 $438 reversed $120 $-1 #
coedge $-1 -1 $-1 $203 $436 $314 $435 reversed $120 $-1 #
coedge $-1 -1 $-1 $439 $440 $203 $318 forward $313 $-1 #
edge $-1 -1 $-1 $441 -7.6200000000000028 $442 2.54 $317 $443 forward @7 unknown #
face $-1 -1 $-1 $-1 $332 $32 $-1 $444 reversed single #
loop $-1 -1 $-1 $-1 $445 $204 #
plane-surface $-1 -1 $-1 12.264204896855324 0 0 -1 0 0 0 0 1 forward_v I I I I #
coedge $-1 -1 $-1 $329 $446 $331 $447 forward $205 $-1 #
coedge $-1 -1 $-1 $324 $206 $448 $449 reversed $123 $-1 #
coedge $-1 -1 $-1 $206 $323 $207 $328 reversed $123 $-1 #
coedge $-1 -1 $-1 $209 $450 $206 $326 reversed $332 $-1 #
edge $-1 -1 $-1 $334 -2.54 $451 7.620000000000001 $206 $452 forward @7 unknown #
coedge $-1 -1 $-1 $208 $207 $453 $454 forward $76 $-1 #
edge $-1 -1 $-1 $334 5.0799999999999992 $455 12.264204896855324 $324 $456 forward @7 unknown #
coedge $-1 -1 $-1 $446 $322 $208 $330 reversed $205 $-1 #
edge $-1 -1 $-1 $457 -12.264204896855324 $333 -5.0799999999999992 $329 $458 forward @7 unknown #
coedge $-1 -1 $-1 $450 $209 $322 $447 reversed $332 $-1 #
loop $-1 -1 $-1 $-1 $325 $319 #
vertex $-1 -1 $-1 $447 $459 #
vertex $-1 -1 $-1 $328 $460 #
straight-curve $-1 -1 $-1 5.0799999999999965 -3.1749999999999998 12.264204896855324 0 -1 0 I I #
loop $-1 -1 $-1 $-1 $218 $211 #
coedge $-1 -1 $-1 $461 $462 $216 $343 forward $212 $-1 #
coedge $-1 -1 $-1 $463 $213 $215 $342 forward $127 $-1 #
coedge $-1 -1 $-1 $213 $463 $461 $464 forward $127 $-1 #
coedge $-1 -1 $-1 $218 $465 $214 $341 reversed $336 $-1 #
edge $-1 -1 $-1 $221 5.0799999999999992 $466 12.264204896855324 $340 $467 forward @7 unknown #
edge $-1 -1 $-1 $220 5.0799999999999992 $466 12.264204896855324 $215 $468 forward @7 unknown #
edge $-1 -1 $-1 $347 -2.54 $344 7.620000000000001 $337 $469 forward @7 unknown #
vertex $-1 -1 $-1 $343 $470 #
straight-curve $-1 -1 $-1 5.0799999999999983 -3.1749999999999998 -12.264204896855324 0 1 0 I I #
coedge $-1 -1 $-1 $465 $218 $462 $471 forward $336 $-1 #
vertex $-1 -1 $-1 $471 $472 #
straight-curve $-1 -1 $-1 12.264204896855324 -3.1749999999999998 -5.0799999999999965 0 -1 0 I I #
point $-1 -1 $-1 5.0799999999999992 6.3499999999999996 -12.264204896855322 #
point $-1 -1 $-1 12.264204896855322 6.3499999999999996 -5.0799999999999992 #
model_id-kcp-attrib $-1 -1 $-1 $-1 $224 1 1021498080 1021498080 -1357709311 8 #
face $473 -1 $-1 $266 $260 $8 $-1 $474 forward single #
loop $-1 -1 $-1 $-1 $387 $224 #
plane-surface $-1 -1 $-1 5.0799999999999992 0 12.264204896855322 0.70710678118654757 0 0.70710678118654757 17.960512242138304 0 -17.960512242138304 forward_v I I I I #
coedge $-1 -1 $-1 $475 $385 $388 $476 forward $225 $-1 #
coedge $-1 -1 $-1 $229 $227 $477 $478 reversed $135 $-1 #
coedge $-1 -1 $-1 $385 $475 $227 $358 reversed $225 $-1 #
edge $479 -1 $-1 $401 0 $480 0.5 $227 $481 forward @7 unknown #
coedge $-1 -1 $-1 $477 $231 $228 $360 forward $237 $-1 #
edge $482 -1 $-1 $234 0 $362 0.39999999999999997 $359 $483 forward @7 unknown #
attrib_edge_convexity-kcp-attrib $-1 -1 $484 $-1 $230 1 #
vertex $-1 -1 $-1 $478 $485 #
straight-curve $-1 -1 $-1 -12.264204896855322 0 5.0799999999999992 0 25.399999999999999 0 I I #
attrib_edge_convexity-kcp-attrib $-1 -1 $486 $-1 $232 1 #
straight-curve $-1 -1 $-1 -5.0799999999999992 12.699999999999999 -12.264204896855322 -17.960512242138307 0 17.960512242138304 I I #
convexity-sys-attrib $-1 -1 $-1 $233 $140 #
point $-1 -1 $-1 -12.264204896855322 12.699999999999999 -5.0799999999999992 #
coedge $-1 -1 $-1 $236 $487 $392 $488 forward $237 $-1 #
edge $-1 -1 $-1 $396 0 $239 0.40000000000000002 $236 $489 forward @7 unknown #
loop $-1 -1 $-1 $-1 $377 $371 #
face $490 -1 $-1 $251 $237 $8 $-1 $491 forward single #
attrib_edge_convexity-kcp-attrib $-1 -1 $492 $238 $142 1 #
point $-1 -1 $-1 5.0799999999999992 12.699999999999999 -12.264204896855322 #
coedge $-1 -1 $-1 $244 $243 $493 $494 reversed $245 $-1 #
face $495 -1 $-1 $-1 $245 $8 $-1 $496 reversed single #
convexity-sys-attrib $-1 -1 $-1 $246 $147 #
coedge $-1 -1 $-1 $493 $493 $248 $378 forward $370 $-1 #
edge $-1 -1 $-1 $381 0 $379 3.1415926535897931 $377 $497 forward @7 unknown #
vertex $-1 -1 $-1 $494 $498 #
straight-curve $-1 -1 $-1 6.3499999999999996 12.699999999999999 0 0 -25.399999999999999 0 I I #
vertex $-1 -1 $-1 $494 $499 #
straight-curve $-1 -1 $-1 -6.3499999999999996 12.699999999999999 7.7762503467720954e-016 0 -25.399999999999999 0 I I #
model_id-kcp-attrib $-1 -1 $-1 $-1 $251 1 1021498080 1021498080 -1357709311 12 #
cone-surface $-1 -1 $-1 0 12.699999999999999 0 0 -1 0 6.3499999999999996 0 0 1 I I 0 1 6.3499999999999996 forward I I I I #
coedge $-1 -1 $-1 $355 $357 $255 $386 forward $225 $-1 #
edge $500 -1 $-1 $401 0 $390 0.39999999999999997 $255 $501 forward @7 unknown #
coedge $-1 -1 $-1 $502 $256 $259 $393 forward $353 $-1 #
coedge $-1 -1 $-1 $256 $502 $355 $476 reversed $353 $-1 #
attrib_edge_convexity-kcp-attrib $-1 -1 $503 $-1 $257 1 #
vertex $-1 -1 $-1 $386 $504 #
straight-curve $-1 -1 $-1 5.0799999999999992 0 12.264204896855322 17.960512242138307 0 -17.960512242138304 I I #
coedge $-1 -1 $-1 $259 $258 $368 $488 reversed $260 $-1 #
edge $-1 -1 $-1 $262 0 $505 0.5 $387 $506 forward @7 unknown #
convexity-sys-attrib $-1 -1 $-1 $261 $157 #
point $-1 -1 $-1 12.264204896855322 0 5.0799999999999992 #
vertex $-1 -1 $-1 $369 $507 #
straight-curve $-1 -1 $-1 12.264204896855322 0 -5.0799999999999992 0 25.399999999999999 0 I I #
model_id-kcp-attrib $-1 -1 $-1 $-1 $266 1 1021498080 1021498080 -1357709311 10 #
plane-surface $-1 -1 $-1 12.264204896855322 0 -5.0799999999999992 0.70710678118654757 0 -0.70710678118654757 -17.960512242138304 0 -17.960512242138304 forward_v I I I I #
attrib_edge_convexity-kcp-attrib $-1 -1 $508 $-1 $270 1 #
vertex $-1 -1 $-1 $270 $509 #
straight-curve $-1 -1 $-1 -12.264204896855322 0 5.0799999999999992 17.960512242138304 0 17.960512242138307 I I #
convexity-sys-attrib $-1 -1 $-1 $271 $166 #
point $-1 -1 $-1 -12.264204896855322 0 5.0799999999999992 #
convexity-sys-attrib $-1 -1 $-1 $276 $170 #
model_id-kcp-attrib $-1 -1 $-1 $-1 $279 1 1021498080 1021498080 -1357709310 6 #
plane-surface $-1 -1 $-1 12.264204896855324 0 0 -1 0 0 0 0 1 forward_v I I I I #
coedge $-1 -1 $-1 $284 $282 $286 $412 reversed $176 $-1 #
edge $-1 -1 $-1 $297 -12.264204896855324 $414 12.264204896855324 $296 $510 forward @7 unknown #
vertex $-1 -1 $-1 $412 $511 #
straight-curve $-1 -1 $-1 -12.264204896855324 -6.3499999999999996 0 0 0 -1 I I #
edge $-1 -1 $-1 $410 -6.3499999999999996 $414 6.3499999999999996 $408 $512 forward @7 unknown #
straight-curve $-1 -1 $-1 0 -6.3499999999999996 -12.264204896855324 -1 0 0 I I #
vertex $-1 -1 $-1 $289 $513 #
straight-curve $-1 -1 $-1 0 6.3499999999999996 -12.264204896855324 1 0 0 I I #
point $-1 -1 $-1 12.264204896855324 6.3499999999999996 -12.264204896855324 #
point $-1 -1 $-1 12.264204896855324 -6.3499999999999996 -12.264204896855324 #
straight-curve $-1 -1 $-1 -12.264204896855324 0 12.264204896855324 0 -1 0 I I #
point $-1 -1 $-1 -12.264204896855324 6.3499999999999996 12.264204896855324 #
point $-1 -1 $-1 -12.264204896855324 -6.3499999999999996 12.264204896855324 #
straight-curve $-1 -1 $-1 12.264204896855324 -6.3499999999999996 0 0 0 -1 I I #
straight-curve $-1 -1 $-1 12.264204896855324 6.3499999999999996 0 0 0 -1 I I #
point $-1 -1 $-1 6.3499999999999996 0 0 #
face $-1 -1 $-1 $514 $515 $73 $-1 $128 reversed single #
loop $-1 -1 $-1 $-1 $516 $309 #
coedge $-1 -1 $-1 $517 $518 $519 $520 forward $310 $-1 #
coedge $-1 -1 $-1 $521 $311 $522 $523 forward $199 $-1 #
coedge $-1 -1 $-1 $311 $521 $517 $524 reversed $199 $-1 #
coedge $-1 -1 $-1 $519 $525 $311 $430 reversed $526 $-1 #
edge $-1 -1 $-1 $527 -3.1749999999999998 $528 9.5249999999999986 $311 $529 forward @7 unknown #
face $-1 -1 $-1 $-1 $530 $48 $-1 $77 forward single #
loop $-1 -1 $-1 $-1 $531 $312 #
coedge $-1 -1 $-1 $532 $314 $533 $534 reversed $202 $-1 #
coedge $-1 -1 $-1 $314 $532 $439 $535 forward $202 $-1 #
edge $-1 -1 $-1 $442 -9.5249999999999986 $536 3.1749999999999998 $314 $537 forward @7 unknown #
coedge $-1 -1 $-1 $316 $315 $531 $538 reversed $120 $-1 #
coedge $-1 -1 $-1 $539 $540 $315 $438 forward $530 $-1 #
edge $-1 -1 $-1 $541 -3.1749999999999998 $441 9.5249999999999986 $437 $542 forward @7 unknown #
coedge $-1 -1 $-1 $440 $317 $434 $535 reversed $313 $-1 #
coedge $-1 -1 $-1 $317 $439 $539 $543 reversed $313 $-1 #
vertex $-1 -1 $-1 $543 $544 #
vertex $-1 -1 $-1 $318 $545 #
straight-curve $-1 -1 $-1 -10.468153672641492 6.3499999999999988 6.8760512242138301 -0.70710678118654757 0 -0.70710678118654757 I I #
plane-surface $-1 -1 $-1 5.0799999999999992 -6.3499999999999996 12.264204896855322 0.70710678118654757 0 0.70710678118654757 0 1 0 forward_v I I I I #
coedge $-1 -1 $-1 $546 $448 $450 $547 forward $320 $-1 #
coedge $-1 -1 $-1 $322 $329 $546 $548 forward $205 $-1 #
edge $-1 -1 $-1 $549 -7.620000000000001 $333 2.54 $322 $550 forward @7 unknown #
coedge $-1 -1 $-1 $445 $453 $323 $449 forward $320 $-1 #
edge $-1 -1 $-1 $455 -12.264204896855324 $451 -5.0799999999999992 $448 $551 forward @7 unknown #
coedge $-1 -1 $-1 $325 $331 $445 $547 reversed $332 $-1 #
vertex $-1 -1 $-1 $326 $552 #
straight-curve $-1 -1 $-1 6.8760512242138301 -6.3499999999999996 10.468153672641492 0.70710678118654757 0 -0.70710678118654757 I I #
coedge $-1 -1 $-1 $448 $546 $327 $454 reversed $320 $-1 #
edge $-1 -1 $-1 $455 -6.3499999999999996 $457 6.3499999999999996 $453 $553 forward @7 unknown #
vertex $-1 -1 $-1 $454 $554 #
straight-curve $-1 -1 $-1 0 -6.3499999999999996 12.264204896855324 1 0 0 I I #
vertex $-1 -1 $-1 $454 $555 #
straight-curve $-1 -1 $-1 0 6.3499999999999996 12.264204896855324 -1 0 0 I I #
point $-1 -1 $-1 5.0799999999999992 6.3499999999999996 12.264204896855322 #
point $-1 -1 $-1 5.0799999999999992 -6.3499999999999996 12.264204896855322 #
coedge $-1 -1 $-1 $462 $337 $339 $464 reversed $212 $-1 #
coedge $-1 -1 $-1 $337 $461 $346 $471 reversed $212 $-1 #
coedge $-1 -1 $-1 $339 $338 $465 $556 forward $127 $-1 #
edge $-1 -1 $-1 $557 -12.264204896855324 $344 -5.0799999999999992 $461 $558 forward @7 unknown #
coedge $-1 -1 $-1 $340 $346 $463 $556 reversed $336 $-1 #
vertex $-1 -1 $-1 $556 $559 #
straight-curve $-1 -1 $-1 12.264204896855324 6.3499999999999996 0 0 0 -1 I I #
straight-curve $-1 -1 $-1 0 6.3499999999999996 -12.264204896855324 1 0 0 I I #
straight-curve $-1 -1 $-1 10.468153672641492 -6.3499999999999996 -6.8760512242138301 -0.70710678118654757 0 -0.70710678118654757 I I #
point $-1 -1 $-1 5.0799999999999992 -6.3499999999999996 -12.264204896855322 #
edge $-1 -1 $-1 $347 5.0799999999999992 $557 12.264204896855324 $346 $551 forward @7 unknown #
point $-1 -1 $-1 12.264204896855322 -6.3499999999999996 -5.0799999999999992 #
model_id-kcp-attrib $-1 -1 $-1 $-1 $352 1 1021498080 1021498080 -1357709311 9 #
plane-surface $-1 -1 $-1 12.264204896855322 0 5.0799999999999992 1 0 0 0 0 -25.399999999999999 forward_v I I I I #
coedge $-1 -1 $-1 $357 $355 $560 $561 reversed $225 $-1 #
edge $-1 -1 $-1 $390 0 $562 0.5 $355 $563 forward @7 unknown #
coedge $-1 -1 $-1 $560 $359 $356 $478 forward $237 $-1 #
edge $564 -1 $-1 $362 0 $480 0.40000000000000002 $477 $565 forward @7 unknown #
attrib_edge_convexity-kcp-attrib $-1 -1 $566 $-1 $358 1 #
vertex $-1 -1 $-1 $561 $567 #
straight-curve $-1 -1 $-1 -5.0799999999999983 0 12.264204896855324 0 25.399999999999999 0 I I #
model_id-kcp-attrib $-1 -1 $568 $-1 $360 1 1021498080 1021498080 -1357709311 17 #
straight-curve $-1 -1 $-1 -12.264204896855322 12.699999999999999 -5.0799999999999992 0 0 25.399999999999999 I I #
convexity-sys-attrib $-1 -1 $-1 $361 $230 #
point $-1 -1 $-1 -12.264204896855322 12.699999999999999 5.0799999999999992 #
convexity-sys-attrib $-1 -1 $-1 $364 $232 #
coedge $-1 -1 $-1 $368 $560 $502 $569 forward $237 $-1 #
edge $570 -1 $-1 $505 0 $396 0.39999999999999997 $368 $571 forward @7 unknown #
straight-curve $-1 -1 $-1 12.264204896855322 12.699999999999999 -5.0799999999999992 -17.960512242138304 0 -17.960512242138307 I I #
model_id-kcp-attrib $-1 -1 $-1 $-1 $371 1 1021498080 1021498080 -1357709311 11 #
plane-surface $-1 -1 $-1 0 12.699999999999999 0 0 1 0 25.399999999999999 0 0 forward_v I I I I #
convexity-sys-attrib $-1 -1 $-1 $372 $142 #
coedge $-1 -1 $-1 $377 $377 $374 $494 forward $370 $-1 #
edge $-1 -1 $-1 $379 0 $381 3.1415926535897931 $493 $572 forward @7 unknown #
model_id-kcp-attrib $-1 -1 $-1 $-1 $375 1 1021498080 1021498080 -1357709311 13 #
cone-surface $-1 -1 $-1 0 12.699999999999999 0 0 -1 0 6.3499999999999996 0 0 1 I I 0 1 6.3499999999999996 forward I I I I #
ellipse-curve $-1 -1 $-1 0 12.699999999999999 0 0 -1 0 -6.3499999999999996 0 0 1 I I #
point $-1 -1 $-1 6.3499999999999996 12.699999999999999 0 #
point $-1 -1 $-1 -6.3499999999999996 12.699999999999999 0 #
attrib_edge_convexity-kcp-attrib $-1 -1 $573 $-1 $386 1 #
straight-curve $-1 -1 $-1 -5.0799999999999992 0 12.264204896855322 25.399999999999999 0 0 I I #
coedge $-1 -1 $-1 $388 $387 $487 $569 reversed $353 $-1 #
convexity-sys-attrib $-1 -1 $-1 $389 $257 #
point $-1 -1 $-1 5.0799999999999992 0 12.264204896855322 #
vertex $-1 -1 $-1 $488 $574 #
straight-curve $-1 -1 $-1 12.264204896855324 0 5.0799999999999983 0 25.399999999999999 0 I I #
point $-1 -1 $-1 12.264204896855322 12.699999999999999 -5.0799999999999992 #
convexity-sys-attrib $-1 -1 $-1 $400 $270 #
point $-1 -1 $-1 -5.0799999999999992 0 12.264204896855322 #
straight-curve $-1 -1 $-1 -12.264204896855324 6.3499999999999996 0 0 0 -1 I I #
point $-1 -1 $-1 -12.264204896855324 -6.3499999999999996 -12.264204896855324 #
straight-curve $-1 -1 $-1 -12.264204896855324 0 -12.264204896855324 0 1 0 I I #
point $-1 -1 $-1 -12.264204896855324 6.3499999999999996 -12.264204896855324 #
face $-1 -1 $-1 $-1 $526 $73 $-1 $575 reversed single #
loop $-1 -1 $-1 $-1 $576 $424 #
coedge $-1 -1 $-1 $577 $522 $525 $578 forward $425 $-1 #
coedge $-1 -1 $-1 $518 $426 $428 $524 forward $310 $-1 #
coedge $-1 -1 $-1 $426 $517 $579 $580 reversed $310 $-1 #
coedge $-1 -1 $-1 $581 $429 $426 $520 reversed $526 $-1 #
edge $-1 -1 $-1 $582 -2.5400000000000005 $527 7.620000000000001 $426 $583 forward @7 unknown #
coedge $-1 -1 $-1 $428 $427 $584 $585 reversed $199 $-1 #
coedge $-1 -1 $-1 $516 $577 $427 $523 reversed $425 $-1 #
edge $-1 -1 $-1 $528 5.0799999999999974 $586 12.264204896855324 $522 $587 forward @7 unknown #
edge $-1 -1 $-1 $527 5.0799999999999992 $588 12.264204896855324 $428 $589 forward @7 unknown #
coedge $-1 -1 $-1 $429 $581 $516 $578 reversed $526 $-1 #
loop $-1 -1 $-1 $-1 $525 $514 #
vertex $-1 -1 $-1 $524 $590 #
vertex $-1 -1 $-1 $523 $591 #
straight-curve $-1 -1 $-1 -12.264204896855324 -3.1749999999999998 -5.0799999999999983 0 1 0 I I #
loop $-1 -1 $-1 $-1 $437 $431 #
coedge $-1 -1 $-1 $592 $533 $436 $538 forward $432 $-1 #
coedge $-1 -1 $-1 $434 $433 $593 $594 reversed $202 $-1 #
coedge $-1 -1 $-1 $531 $592 $433 $534 forward $432 $-1 #
edge $-1 -1 $-1 $595 -12.264204896855324 $536 -5.0799999999999992 $433 $589 forward @7 unknown #
edge $-1 -1 $-1 $596 -12.264204896855324 $442 -5.0799999999999992 $439 $587 forward @7 unknown #
vertex $-1 -1 $-1 $538 $597 #
straight-curve $-1 -1 $-1 -12.264204896855324 -3.1749999999999998 5.0799999999999965 0 -1 0 I I #
edge $-1 -1 $-1 $536 -2.54 $541 7.6200000000000028 $531 $598 forward @7 unknown #
coedge $-1 -1 $-1 $593 $437 $440 $543 forward $530 $-1 #
coedge $-1 -1 $-1 $437 $593 $592 $599 forward $530 $-1 #
vertex $-1 -1 $-1 $438 $600 #
straight-curve $-1 -1 $-1 -5.0799999999999983 -3.1749999999999998 12.264204896855324 0 1 0 I I #
edge $-1 -1 $-1 $441 5.0799999999999974 $596 12.264204896855324 $440 $458 forward @7 unknown #
point $-1 -1 $-1 -5.0799999999999974 6.3499999999999996 12.264204896855324 #
point $-1 -1 $-1 -12.264204896855322 6.3499999999999996 5.0799999999999992 #
coedge $-1 -1 $-1 $453 $445 $446 $548 reversed $320 $-1 #
edge $-1 -1 $-1 $451 -3.1749999999999998 $549 9.5249999999999986 $445 $601 forward @7 unknown #
edge $-1 -1 $-1 $457 -12.264204896855324 $549 -5.0799999999999992 $546 $467 forward @7 unknown #
vertex $-1 -1 $-1 $447 $602 #
straight-curve $-1 -1 $-1 6.8760512242138301 6.3499999999999988 10.468153672641492 -0.70710678118654757 0 0.70710678118654757 I I #
straight-curve $-1 -1 $-1 12.264204896855324 -6.3499999999999996 0 0 0 -1 I I #
point $-1 -1 $-1 12.264204896855322 -6.3499999999999996 5.0799999999999992 #
straight-curve $-1 -1 $-1 12.264204896855324 0 12.264204896855324 0 1 0 I I #
point $-1 -1 $-1 12.264204896855324 -6.3499999999999996 12.264204896855324 #
point $-1 -1 $-1 12.264204896855324 6.3499999999999996 12.264204896855324 #
edge $-1 -1 $-1 $466 -6.3499999999999996 $557 6.3499999999999996 $465 $603 forward @7 unknown #
vertex $-1 -1 $-1 $471 $604 #
straight-curve $-1 -1 $-1 0 -6.3499999999999996 -12.264204896855324 -1 0 0 I I #
point $-1 -1 $-1 12.264204896855324 6.3499999999999996 -12.264204896855324 #
coedge $-1 -1 $-1 $487 $477 $475 $561 forward $237 $-1 #
edge $605 -1 $-1 $480 0 $562 0.39999999999999997 $560 $606 forward @7 unknown #
vertex $-1 -1 $-1 $569 $607 #
straight-curve $-1 -1 $-1 5.0799999999999992 0 12.264204896855322 0 25.399999999999999 0 I I #
attrib_edge_convexity-kcp-attrib $-1 -1 $608 $-1 $478 1 #
straight-curve $-1 -1 $-1 -12.264204896855322 12.699999999999999 5.0799999999999992 17.960512242138304 0 17.960512242138307 I I #
convexity-sys-attrib $-1 -1 $-1 $479 $358 #
point $-1 -1 $-1 -5.0799999999999992 12.699999999999999 12.264204896855322 #
attrib_edge_convexity-kcp-attrib $-1 -1 $609 $482 $360 1 #
edge $-1 -1 $-1 $562 0 $505 0.40000000000000002 $487 $610 forward @7 unknown #
model_id-kcp-attrib $-1 -1 $-1 $-1 $488 1 1021498080 1021498080 -1357709311 15 #
straight-curve $-1 -1 $-1 12.264204896855322 12.699999999999999 5.0799999999999992 0 0 -25.399999999999999 I I #
ellipse-curve $-1 -1 $-1 0 12.699999999999999 0 0 -1 0 6.3499999999999996 0 0 1 I I #
convexity-sys-attrib $-1 -1 $-1 $500 $386 #
point $-1 -1 $-1 12.264204896855322 12.699999999999999 5.0799999999999992 #
plane-surface $-1 -1 $-1 -5.0799999999999983 -6.3499999999999996 -12.264204896855322 -0.70710678118654757 0 -0.70710678118654757 0 -1 0 forward_v I I I I #
coedge $-1 -1 $-1 $579 $611 $581 $612 forward $515 $-1 #
coedge $-1 -1 $-1 $522 $516 $611 $613 reversed $425 $-1 #
edge $-1 -1 $-1 $528 -7.6200000000000028 $614 2.5400000000000005 $516 $615 forward @7 unknown #
coedge $-1 -1 $-1 $584 $576 $518 $580 forward $515 $-1 #
edge $-1 -1 $-1 $582 5.0799999999999983 $588 12.264204896855324 $518 $558 forward @7 unknown #
coedge $-1 -1 $-1 $525 $519 $576 $612 reversed $526 $-1 #
vertex $-1 -1 $-1 $580 $616 #
straight-curve $-1 -1 $-1 -6.8760512242138301 -6.3499999999999996 -10.468153672641492 -0.70710678118654757 0 0.70710678118654757 I I #
coedge $-1 -1 $-1 $611 $579 $521 $585 forward $515 $-1 #
edge $-1 -1 $-1 $588 -6.3499999999999996 $586 6.3499999999999996 $521 $617 forward @7 unknown #
vertex $-1 -1 $-1 $613 $618 #
straight-curve $-1 -1 $-1 -12.264204896855324 6.3499999999999996 0 0 0 -1 I I #
vertex $-1 -1 $-1 $585 $619 #
straight-curve $-1 -1 $-1 -12.264204896855324 -6.3499999999999996 0 0 0 -1 I I #
point $-1 -1 $-1 -12.264204896855322 -6.3499999999999996 -5.0799999999999992 #
point $-1 -1 $-1 -12.264204896855324 6.3499999999999996 -5.0799999999999974 #
coedge $-1 -1 $-1 $533 $531 $540 $599 reversed $432 $-1 #
coedge $-1 -1 $-1 $540 $539 $532 $594 forward $530 $-1 #
edge $-1 -1 $-1 $596 -6.3499999999999996 $595 6.3499999999999996 $532 $620 forward @7 unknown #
vertex $-1 -1 $-1 $594 $621 #
vertex $-1 -1 $-1 $543 $622 #
point $-1 -1 $-1 -12.264204896855322 -6.3499999999999996 5.0799999999999992 #
straight-curve $-1 -1 $-1 -10.468153672641492 -6.3499999999999996 6.8760512242138301 0.70710678118654757 0 0.70710678118654757 I I #
edge $-1 -1 $-1 $595 -12.264204896855324 $541 -5.0799999999999974 $592 $456 forward @7 unknown #
point $-1 -1 $-1 -5.0799999999999974 -6.3499999999999996 12.264204896855324 #
straight-curve $-1 -1 $-1 12.264204896855324 -3.1749999999999998 5.0799999999999983 0 1 0 I I #
point $-1 -1 $-1 12.264204896855322 6.3499999999999996 5.0799999999999992 #
straight-curve $-1 -1 $-1 12.264204896855324 0 -12.264204896855324 0 -1 0 I I #
point $-1 -1 $-1 12.264204896855324 -6.3499999999999996 -12.264204896855324 #
model_id-kcp-attrib $-1 -1 $-1 $-1 $561 1 1021498080 1021498080 -1357709311 16 #
straight-curve $-1 -1 $-1 -5.0799999999999992 12.699999999999999 12.264204896855322 25.399999999999999 0 0 I I #
point $-1 -1 $-1 5.0799999999999992 12.699999999999999 12.264204896855322 #
convexity-sys-attrib $-1 -1 $-1 $564 $478 #
convexity-sys-attrib $-1 -1 $-1 $568 $360 #
straight-curve $-1 -1 $-1 5.0799999999999992 12.699999999999999 12.264204896855322 17.960512242138307 0 -17.960512242138304 I I #
coedge $-1 -1 $-1 $576 $584 $577 $613 forward $515 $-1 #
edge $-1 -1 $-1 $614 -9.5249999999999986 $582 3.1749999999999998 $576 $623 forward @7 unknown #
edge $-1 -1 $-1 $586 -12.264204896855324 $614 -5.0799999999999983 $577 $468 forward @7 unknown #
vertex $-1 -1 $-1 $578 $624 #
straight-curve $-1 -1 $-1 -6.8760512242138301 6.3499999999999988 -10.468153672641492 0.70710678118654757 0 -0.70710678118654757 I I #
point $-1 -1 $-1 -5.0799999999999983 -6.3499999999999996 -12.264204896855322 #
straight-curve $-1 -1 $-1 -12.264204896855324 0 -12.264204896855324 0 1 0 I I #
point $-1 -1 $-1 -12.264204896855324 6.3499999999999996 -12.264204896855324 #
point $-1 -1 $-1 -12.264204896855324 -6.3499999999999996 -12.264204896855324 #
straight-curve $-1 -1 $-1 -12.264204896855324 0 12.264204896855324 0 -1 0 I I #
point $-1 -1 $-1 -12.264204896855324 -6.3499999999999996 12.264204896855324 #
point $-1 -1 $-1 -12.264204896855324 6.3499999999999996 12.264204896855324 #
straight-curve $-1 -1 $-1 -5.0799999999999965 -3.1749999999999998 -12.264204896855324 0 -1 0 I I #
point $-1 -1 $-1 -5.0799999999999983 6.3499999999999996 -12.264204896855322 #
End-of-ACIS-data 