700 0 2 0           
24 FBMach with ACIS - 7.0.3 13 ACIS 7.0.3 NT 24 Wed May 15 17:28:06 2002 
1 9.9999999999999995e-007 1e-010 
body $2 -1 $-1 $3 $-1 $4 #
bdycol-kcp $-1 -1 1 3 $5 $6 $7 #
model_id-kcp-attrib $-1 -1 $-1 $-1 $0 1 1021498085 1021498085 1706360833 1 #
lump $-1 -1 $-1 $-1 $8 $0 #
transform $-1 -1 1.0000000000000002 0 0 0 1 0 0 0 1.0000000000000002 0 0 0 1 rotate no_reflect no_shear #
body $9 -1 $-1 $10 $-1 $11 #
body $12 -1 $-1 $13 $-1 $14 #
body $15 -1 $-1 $16 $-1 $17 #
shell $-1 -1 $-1 $-1 $-1 $18 $-1 $3 #
rgb_color-st-attrib $-1 -1 $19 $-1 $5 0.5 1 1 #
lump $-1 -1 $-1 $20 $21 $5 #
transform $-1 -1 1 0 0 0 1 0 0 0 1 0 6.3499999999999996 0 1 no_rotate no_reflect no_shear #
model_id-kcp-attrib $-1 -1 $-1 $-1 $6 1 1021498085 1021498085 1706360834 1 #
lump $-1 -1 $-1 $-1 $22 $6 #
transform $-1 -1 1 0 0 0 1 0 0 0 1 0 6.3499999999999996 0 1 no_rotate no_reflect no_shear #
rgb_color-st-attrib $-1 -1 $23 $-1 $7 0.5 1 1 #
lump $-1 -1 $-1 $-1 $24 $7 #
transform $-1 -1 1 0 0 0 1 0 0 0 1 0 0 0 1 no_rotate no_reflect no_shear #
face $25 -1 $-1 $26 $27 $8 $-1 $28 reversed single #
model_id-kcp-attrib $-1 -1 $-1 $9 $5 1 1021498085 1021498085 1705967619 1 #
lump $-1 -1 $-1 $29 $30 $5 #
shell $-1 -1 $-1 $-1 $-1 $31 $-1 $10 #
shell $-1 -1 $-1 $-1 $-1 $32 $-1 $13 #
model_id-kcp-attrib $-1 -1 $-1 $15 $7 1 1021498085 1021498086 1700659204 1 #
shell $-1 -1 $-1 $-1 $-1 $33 $-1 $16 #
model_id-kcp-attrib $-1 -1 $-1 $-1 $18 1 1021498085 1021498085 1706360833 2 #
face $34 -1 $-1 $35 $36 $8 $-1 $37 forward single #
loop $-1 -1 $-1 $38 $39 $18 #
plane-surface $-1 -1 $-1 0 0 0 0 1 0 25.399999999999999 0 0 forward_v I I I I #
lump $-1 -1 $-1 $40 $41 $5 #
shell $-1 -1 $-1 $-1 $-1 $42 $-1 $20 #
face $-1 -1 $-1 $43 $44 $21 $-1 $45 reversed single #
face $46 -1 $-1 $47 $48 $22 $-1 $49 forward single #
face $-1 -1 $-1 $50 $51 $24 $-1 $52 forward single #
model_id-kcp-attrib $-1 -1 $-1 $-1 $26 1 1021498085 1021498085 1706360833 3 #
face $53 -1 $-1 $54 $55 $8 $-1 $56 forward single #
loop $-1 -1 $-1 $-1 $57 $26 #
plane-surface $-1 -1 $-1 5.0799999999999992 0 -12.264204896855322 0 0 -1 -25.399999999999999 0 0 forward_v I I I I #
loop $-1 -1 $-1 $-1 $58 $18 #
coedge $-1 -1 $-1 $59 $60 $61 $62 reversed $27 $-1 #
lump $-1 -1 $-1 $-1 $63 $5 #
shell $-1 -1 $-1 $-1 $-1 $64 $-1 $29 #
face $-1 -1 $-1 $65 $66 $30 $-1 $67 forward single #
face $-1 -1 $-1 $68 $69 $21 $-1 $70 reversed single #
loop $-1 -1 $-1 $-1 $71 $31 #
plane-surface $-1 -1 $-1 12.264204896855322 -6.3499999999999996 -5.0799999999999992 0.70710678118654757 0 -0.70710678118654757 0 1 0 forward_v I I I I #
model_id-kcp-attrib $-1 -1 $-1 $-1 $32 1 1021498085 1021498085 1706360834 5 #
face $72 -1 $-1 $73 $74 $22 $-1 $75 reversed single #
loop $-1 -1 $-1 $-1 $76 $32 #
plane-surface $-1 -1 $-1 0 0 12.264204896855324 0 0 1 1 0 0 forward_v I I I I #
face $-1 -1 $-1 $77 $78 $24 $-1 $79 forward single #
loop $-1 -1 $-1 $80 $81 $33 #
cone-surface $-1 -1 $-1 0 0 0 0 1 0 -6.3499999999999996 0 0 1 I I 0 1 6.3499999999999996 forward I I I I #
model_id-kcp-attrib $-1 -1 $-1 $-1 $35 1 1021498085 1021498085 1706360833 4 #
face $82 -1 $-1 $83 $84 $8 $-1 $85 forward single #
loop $-1 -1 $-1 $-1 $86 $35 #
plane-surface $-1 -1 $-1 -5.0799999999999992 0 -12.264204896855322 -0.70710678118654757 0 -0.70710678118654757 -17.960512242138304 0 17.960512242138304 forward_v I I I I #
coedge $-1 -1 $-1 $87 $61 $88 $89 forward $36 $-1 #
coedge $-1 -1 $-1 $90 $90 $91 $92 reversed $38 $-1 #
coedge $-1 -1 $-1 $93 $39 $94 $95 reversed $27 $-1 #
coedge $-1 -1 $-1 $39 $96 $97 $98 reversed $27 $-1 #
coedge $-1 -1 $-1 $57 $99 $39 $62 forward $36 $-1 #
edge $100 -1 $-1 $101 0 $102 0.39999999999999997 $39 $103 forward @7 unknown #
shell $-1 -1 $-1 $-1 $-1 $104 $-1 $40 #
face $-1 -1 $-1 $105 $106 $41 $-1 $107 reversed single #
face $-1 -1 $-1 $108 $109 $30 $-1 $110 reversed single #
loop $-1 -1 $-1 $-1 $111 $42 #
plane-surface $-1 -1 $-1 0 0 12.264204896855324 0 0 1 1 0 0 forward_v I I I I #
face $-1 -1 $-1 $112 $113 $21 $-1 $114 reversed single #
loop $-1 -1 $-1 $-1 $115 $43 #
plane-surface $-1 -1 $-1 0 6.3499999999999996 0 0 -1 0 0 0 -1 forward_v I I I I #
coedge $-1 -1 $-1 $116 $117 $115 $118 reversed $44 $-1 #
model_id-kcp-attrib $-1 -1 $-1 $-1 $47 1 1021498085 1021498085 1706360834 3 #
face $119 -1 $-1 $120 $121 $22 $-1 $122 reversed single #
loop $-1 -1 $-1 $-1 $123 $47 #
plane-surface $-1 -1 $-1 0 0 -12.264204896855324 0 0 1 1 0 0 forward_v I I I I #
coedge $-1 -1 $-1 $124 $125 $126 $127 forward $48 $-1 #
face $-1 -1 $-1 $-1 $128 $24 $-1 $129 reversed single #
loop $-1 -1 $-1 $-1 $130 $50 #
plane-surface $-1 -1 $-1 0 12.699999999999999 0 0 1 0 0 0 1 forward_v I I I I #
loop $-1 -1 $-1 $-1 $131 $33 #
coedge $-1 -1 $-1 $81 $81 $130 $132 forward $51 $-1 #
model_id-kcp-attrib $-1 -1 $-1 $-1 $54 1 1021498085 1021498085 1706360833 5 #
face $133 -1 $-1 $134 $135 $8 $-1 $136 forward single #
loop $-1 -1 $-1 $-1 $137 $54 #
plane-surface $-1 -1 $-1 -12.264204896855322 0 -5.0799999999999992 -1 0 0 0 0 25.399999999999999 forward_v I I I I #
coedge $-1 -1 $-1 $138 $97 $139 $140 forward $55 $-1 #
coedge $-1 -1 $-1 $99 $57 $141 $142 reversed $36 $-1 #
coedge $-1 -1 $-1 $97 $138 $57 $89 reversed $55 $-1 #
edge $143 -1 $-1 $102 0 $144 0.5 $88 $145 forward @7 unknown #
coedge $-1 -1 $-1 $58 $58 $146 $147 reversed $38 $-1 #
coedge $-1 -1 $-1 $148 $149 $58 $92 forward $150 $-1 #
edge $151 -1 $-1 $152 0 $153 3.1415926535897931 $58 $154 forward @7 unknown #
coedge $-1 -1 $-1 $155 $59 $156 $157 reversed $27 $-1 #
coedge $-1 -1 $-1 $158 $159 $59 $95 forward $160 $-1 #
edge $161 -1 $-1 $162 0 $101 0.40000000000000002 $59 $163 forward @7 unknown #
coedge $-1 -1 $-1 $60 $164 $165 $166 reversed $27 $-1 #
coedge $-1 -1 $-1 $86 $88 $60 $98 forward $55 $-1 #
edge $167 -1 $-1 $102 0 $168 0.40000000000000002 $60 $169 forward @7 unknown #
coedge $-1 -1 $-1 $61 $87 $158 $170 reversed $36 $-1 #
attrib_edge_convexity-kcp-attrib $-1 -1 $171 $-1 $62 1 #
vertex $-1 -1 $-1 $95 $172 #
vertex $-1 -1 $-1 $98 $173 #
straight-curve $-1 -1 $-1 5.0799999999999992 0 -12.264204896855322 -25.399999999999999 0 0 I I #
face $-1 -1 $-1 $174 $175 $63 $-1 $176 reversed single #
face $-1 -1 $-1 $177 $178 $41 $-1 $176 reversed single #
loop $-1 -1 $-1 $-1 $179 $64 #
plane-surface $-1 -1 $-1 -12.264204896855322 -6.3499999999999996 5.0799999999999992 -0.70710678118654757 0 0.70710678118654757 0 -1 0 forward_v I I I I #
face $-1 -1 $-1 $180 $181 $30 $-1 $70 reversed single #
loop $-1 -1 $-1 $-1 $182 $65 #
plane-surface $-1 -1 $-1 0 -6.3499999999999996 0 0 1 0 0 0 1 forward_v I I I I #
coedge $-1 -1 $-1 $183 $184 $185 $186 forward $66 $-1 #
face $-1 -1 $-1 $187 $188 $21 $-1 $110 reversed single #
loop $-1 -1 $-1 $-1 $189 $68 #
plane-surface $-1 -1 $-1 0 0 -12.264204896855324 0 0 1 1 0 0 forward_v I I I I #
coedge $-1 -1 $-1 $190 $191 $71 $118 forward $69 $-1 #
coedge $-1 -1 $-1 $192 $71 $189 $193 reversed $44 $-1 #
coedge $-1 -1 $-1 $71 $192 $194 $195 reversed $44 $-1 #
edge $-1 -1 $-1 $196 -7.620000000000001 $197 2.54 $115 $198 forward @7 unknown #
model_id-kcp-attrib $-1 -1 $-1 $-1 $73 1 1021498085 1021498085 1706360834 2 #
face $199 -1 $-1 $200 $201 $22 $-1 $202 reversed single #
loop $-1 -1 $-1 $-1 $203 $73 #
plane-surface $-1 -1 $-1 0 -6.3499999999999996 0 0 1 0 0 0 1 forward_v I I I I #
coedge $-1 -1 $-1 $204 $205 $206 $207 forward $74 $-1 #
coedge $-1 -1 $-1 $208 $76 $209 $210 forward $48 $-1 #
coedge $-1 -1 $-1 $76 $208 $211 $212 forward $48 $-1 #
coedge $-1 -1 $-1 $213 $214 $76 $127 reversed $215 $-1 #
edge $-1 -1 $-1 $216 -6.3499999999999996 $217 6.3499999999999996 $126 $218 forward @7 unknown #
loop $-1 -1 $-1 $-1 $219 $77 #
plane-surface $-1 -1 $-1 0 0 0 0 1 0 0 0 1 forward_v I I I I #
coedge $-1 -1 $-1 $130 $130 $81 $132 reversed $78 $-1 #
coedge $-1 -1 $-1 $131 $131 $219 $220 reversed $80 $-1 #
edge $-1 -1 $-1 $221 -3.1415926535897931 $221 3.1415926535897931 $81 $222 forward @7 unknown #
model_id-kcp-attrib $-1 -1 $-1 $-1 $83 1 1021498085 1021498085 1706360833 6 #
face $223 -1 $-1 $224 $225 $8 $-1 $226 forward single #
loop $-1 -1 $-1 $-1 $227 $83 #
plane-surface $-1 -1 $-1 -12.264204896855322 0 5.0799999999999992 -0.70710678118654757 0 0.70710678118654757 17.960512242138304 0 17.960512242138304 forward_v I I I I #
coedge $-1 -1 $-1 $228 $165 $229 $230 forward $84 $-1 #
coedge $-1 -1 $-1 $88 $86 $231 $232 reversed $55 $-1 #
coedge $-1 -1 $-1 $165 $228 $86 $140 reversed $84 $-1 #
edge $233 -1 $-1 $168 0 $234 0.5 $86 $235 forward @7 unknown #
coedge $-1 -1 $-1 $231 $236 $87 $142 forward $237 $-1 #
edge $238 -1 $-1 $239 0 $144 0.39999999999999997 $141 $240 forward @7 unknown #
attrib_edge_convexity-kcp-attrib $-1 -1 $241 $-1 $89 1 #
vertex $-1 -1 $-1 $232 $242 #
straight-curve $-1 -1 $-1 -5.0799999999999992 0 -12.264204896855322 0 25.399999999999999 0 I I #
coedge $-1 -1 $-1 $243 $244 $90 $147 forward $245 $-1 #
edge $246 -1 $-1 $153 0 $152 3.1415926535897931 $90 $247 forward @7 unknown #
coedge $-1 -1 $-1 $248 $91 $244 $249 reversed $150 $-1 #
coedge $-1 -1 $-1 $91 $248 $243 $250 forward $150 $-1 #
loop $-1 -1 $-1 $-1 $148 $251 #
attrib_edge_convexity-kcp-attrib $-1 -1 $252 $-1 $92 1 #
vertex $-1 -1 $-1 $147 $253 #
vertex $-1 -1 $-1 $147 $254 #
ellipse-curve $-1 -1 $-1 0 0 0 0 -1 0 -6.3499999999999996 0 0 1 I I #
coedge $-1 -1 $-1 $255 $93 $256 $257 reversed $27 $-1 #
coedge $-1 -1 $-1 $258 $259 $93 $157 forward $260 $-1 #
edge $261 -1 $-1 $262 0 $162 0.39999999999999997 $93 $263 forward @7 unknown #
coedge $-1 -1 $-1 $264 $94 $99 $170 forward $160 $-1 #
coedge $-1 -1 $-1 $94 $264 $258 $265 reversed $160 $-1 #
loop $-1 -1 $-1 $-1 $158 $266 #
attrib_edge_convexity-kcp-attrib $-1 -1 $267 $-1 $95 1 #
vertex $-1 -1 $-1 $157 $268 #
straight-curve $-1 -1 $-1 12.264204896855322 0 -5.0799999999999992 -17.960512242138304 0 -17.960512242138307 I I #
coedge $-1 -1 $-1 $96 $255 $269 $270 reversed $27 $-1 #
coedge $-1 -1 $-1 $137 $139 $96 $166 forward $84 $-1 #
edge $271 -1 $-1 $168 0 $272 0.39999999999999997 $96 $273 forward @7 unknown #
attrib_edge_convexity-kcp-attrib $-1 -1 $274 $-1 $98 1 #
vertex $-1 -1 $-1 $98 $275 #
straight-curve $-1 -1 $-1 -5.0799999999999992 0 -12.264204896855322 -17.960512242138307 0 17.960512242138304 I I #
edge $276 -1 $-1 $101 0 $239 0.5 $158 $277 forward @7 unknown #
convexity-sys-attrib $-1 -1 $-1 $100 $62 #
point $-1 -1 $-1 5.0799999999999992 0 -12.264204896855322 #
point $-1 -1 $-1 -5.0799999999999992 0 -12.264204896855322 #
face $-1 -1 $-1 $278 $279 $63 $-1 $110 reversed single #
loop $-1 -1 $-1 $-1 $280 $104 #
plane-surface $-1 -1 $-1 -12.264204896855324 0 0 1 0 0 0 0 -1 forward_v I I I I #
face $-1 -1 $-1 $281 $282 $41 $-1 $70 reversed single #
loop $-1 -1 $-1 $-1 $283 $105 #
coedge $-1 -1 $-1 $284 $285 $286 $287 reversed $106 $-1 #
face $-1 -1 $-1 $288 $289 $30 $-1 $290 reversed single #
loop $-1 -1 $-1 $-1 $291 $108 #
coedge $-1 -1 $-1 $292 $293 $294 $295 forward $109 $-1 #
coedge $-1 -1 $-1 $296 $111 $293 $297 forward $66 $-1 #
coedge $-1 -1 $-1 $111 $296 $298 $299 forward $66 $-1 #
coedge $-1 -1 $-1 $300 $294 $111 $186 reversed $301 $-1 #
edge $-1 -1 $-1 $302 -9.5249999999999986 $303 3.1749999999999998 $111 $304 forward @7 unknown #
face $-1 -1 $-1 $-1 $305 $21 $-1 $290 reversed single #
loop $-1 -1 $-1 $-1 $306 $112 #
coedge $-1 -1 $-1 $307 $308 $116 $193 forward $113 $-1 #
coedge $-1 -1 $-1 $191 $115 $309 $310 forward $69 $-1 #
coedge $-1 -1 $-1 $115 $190 $307 $311 reversed $69 $-1 #
coedge $-1 -1 $-1 $117 $116 $306 $312 reversed $44 $-1 #
edge $-1 -1 $-1 $313 -3.1749999999999998 $196 9.5249999999999986 $189 $314 forward @7 unknown #
coedge $-1 -1 $-1 $315 $309 $117 $195 forward $305 $-1 #
edge $-1 -1 $-1 $197 -9.5249999999999986 $316 3.1749999999999998 $194 $317 forward @7 unknown #
vertex $-1 -1 $-1 $311 $318 #
vertex $-1 -1 $-1 $310 $319 #
straight-curve $-1 -1 $-1 10.468153672641492 6.3499999999999988 -6.8760512242138301 0.70710678118654757 0 0.70710678118654757 I I #
model_id-kcp-attrib $-1 -1 $-1 $-1 $120 1 1021498085 1021498085 1706360834 4 #
face $320 -1 $-1 $321 $322 $22 $-1 $323 reversed single #
loop $-1 -1 $-1 $-1 $324 $120 #
plane-surface $-1 -1 $-1 -12.264204896855324 0 0 1 0 0 0 0 -1 forward_v I I I I #
coedge $-1 -1 $-1 $325 $211 $326 $327 forward $121 $-1 #
coedge $-1 -1 $-1 $328 $123 $325 $329 forward $74 $-1 #
coedge $-1 -1 $-1 $123 $328 $330 $331 forward $74 $-1 #
coedge $-1 -1 $-1 $214 $213 $123 $207 reversed $215 $-1 #
edge $-1 -1 $-1 $332 -6.3499999999999996 $333 6.3499999999999996 $206 $334 forward @7 unknown #
coedge $-1 -1 $-1 $125 $124 $335 $336 forward $48 $-1 #
coedge $-1 -1 $-1 $337 $338 $124 $210 reversed $322 $-1 #
edge $-1 -1 $-1 $217 -12.264204896855324 $339 12.264204896855324 $209 $340 forward @7 unknown #
coedge $-1 -1 $-1 $203 $341 $125 $212 reversed $121 $-1 #
edge $-1 -1 $-1 $342 -12.264204896855324 $216 12.264204896855324 $211 $343 forward @7 unknown #
coedge $-1 -1 $-1 $206 $126 $341 $344 forward $215 $-1 #
coedge $-1 -1 $-1 $126 $206 $337 $345 reversed $215 $-1 #
loop $-1 -1 $-1 $-1 $213 $321 #
vertex $-1 -1 $-1 $127 $346 #
vertex $-1 -1 $-1 $127 $347 #
straight-curve $-1 -1 $-1 12.264204896855324 0 12.264204896855324 0 1 0 I I #
coedge $-1 -1 $-1 $219 $219 $131 $220 forward $128 $-1 #
edge $-1 -1 $-1 $348 -3.1415926535897931 $348 3.1415926535897931 $131 $349 forward @7 unknown #
vertex $-1 -1 $-1 $132 $350 #
ellipse-curve $-1 -1 $-1 0 12.699999999999999 0 0 -1 0 6.3499999999999996 0 0 1 I I #
model_id-kcp-attrib $-1 -1 $-1 $-1 $134 1 1021498085 1021498085 1706360833 7 #
face $351 -1 $-1 $352 $353 $8 $-1 $354 forward single #
loop $-1 -1 $-1 $-1 $355 $134 #
plane-surface $-1 -1 $-1 -5.0799999999999992 0 12.264204896855322 0 0 1 25.399999999999999 0 0 forward_v I I I I #
coedge $-1 -1 $-1 $356 $269 $357 $358 forward $135 $-1 #
coedge $-1 -1 $-1 $139 $137 $359 $360 reversed $84 $-1 #
coedge $-1 -1 $-1 $269 $356 $137 $230 reversed $135 $-1 #
edge $361 -1 $-1 $272 0 $362 0.5 $137 $363 forward @7 unknown #
coedge $-1 -1 $-1 $359 $141 $138 $232 forward $237 $-1 #
edge $364 -1 $-1 $144 0 $234 0.40000000000000002 $231 $365 forward @7 unknown #
attrib_edge_convexity-kcp-attrib $-1 -1 $366 $-1 $140 1 #
vertex $-1 -1 $-1 $232 $367 #
straight-curve $-1 -1 $-1 -12.264204896855324 0 -5.0799999999999983 0 25.399999999999999 0 I I #
coedge $-1 -1 $-1 $141 $368 $264 $369 forward $237 $-1 #
loop $-1 -1 $-1 $370 $359 $371 #
model_id-kcp-attrib $-1 -1 $372 $-1 $142 1 1021498085 1021498085 1706360833 18 #
vertex $-1 -1 $-1 $142 $373 #
straight-curve $-1 -1 $-1 5.0799999999999992 12.699999999999999 -12.264204896855322 -25.399999999999999 0 0 I I #
convexity-sys-attrib $-1 -1 $-1 $143 $89 #
point $-1 -1 $-1 -5.0799999999999992 12.699999999999999 -12.264204896855322 #
coedge $-1 -1 $-1 $374 $146 $149 $250 reversed $245 $-1 #
coedge $-1 -1 $-1 $146 $374 $148 $249 forward $245 $-1 #
loop $-1 -1 $-1 $-1 $243 $375 #
attrib_edge_convexity-kcp-attrib $-1 -1 $376 $-1 $147 1 #
ellipse-curve $-1 -1 $-1 0 0 0 0 -1 0 6.3499999999999996 0 0 1 I I #
coedge $-1 -1 $-1 $149 $148 $377 $378 reversed $150 $-1 #
edge $-1 -1 $-1 $379 0 $153 0.5 $244 $380 forward @7 unknown #
edge $-1 -1 $-1 $381 0 $152 0.5 $243 $382 forward @7 unknown #
face $383 -1 $-1 $375 $150 $8 $-1 $384 reversed single #
convexity-sys-attrib $-1 -1 $-1 $151 $92 #
point $-1 -1 $-1 -6.3499999999999996 0 0 #
point $-1 -1 $-1 6.3499999999999996 0 0 #
coedge $-1 -1 $-1 $164 $155 $385 $386 reversed $27 $-1 #
coedge $-1 -1 $-1 $387 $388 $155 $257 forward $353 $-1 #
edge $389 -1 $-1 $390 0 $262 0.40000000000000002 $155 $391 forward @7 unknown #
coedge $-1 -1 $-1 $392 $156 $159 $265 forward $260 $-1 #
coedge $-1 -1 $-1 $156 $392 $387 $393 reversed $260 $-1 #
loop $-1 -1 $-1 $-1 $258 $352 #
attrib_edge_convexity-kcp-attrib $-1 -1 $394 $-1 $157 1 #
vertex $-1 -1 $-1 $257 $395 #
straight-curve $-1 -1 $-1 12.264204896855322 0 5.0799999999999992 0 0 -25.399999999999999 I I #
coedge $-1 -1 $-1 $159 $158 $236 $369 reversed $160 $-1 #
edge $-1 -1 $-1 $162 0 $396 0.5 $258 $397 forward @7 unknown #
face $398 -1 $-1 $371 $160 $8 $-1 $399 forward single #
convexity-sys-attrib $-1 -1 $-1 $161 $95 #
point $-1 -1 $-1 12.264204896855322 0 -5.0799999999999992 #
coedge $-1 -1 $-1 $227 $229 $164 $270 forward $135 $-1 #
edge $400 -1 $-1 $272 0 $401 0.40000000000000002 $164 $402 forward @7 unknown #
attrib_edge_convexity-kcp-attrib $-1 -1 $403 $-1 $166 1 #
vertex $-1 -1 $-1 $166 $404 #
straight-curve $-1 -1 $-1 -12.264204896855322 0 -5.0799999999999992 0 0 25.399999999999999 I I #
convexity-sys-attrib $-1 -1 $-1 $167 $98 #
point $-1 -1 $-1 -12.264204896855322 0 -5.0799999999999992 #
attrib_edge_convexity-kcp-attrib $-1 -1 $405 $-1 $170 1 #
straight-curve $-1 -1 $-1 5.0799999999999983 0 -12.264204896855324 0 25.399999999999999 0 I I #
face $-1 -1 $-1 $406 $407 $63 $-1 $70 reversed single #
loop $-1 -1 $-1 $-1 $408 $174 #
coedge $-1 -1 $-1 $409 $410 $411 $412 forward $175 $-1 #
face $-1 -1 $-1 $413 $414 $41 $-1 $110 reversed single #
loop $-1 -1 $-1 $-1 $286 $177 #
coedge $-1 -1 $-1 $415 $416 $285 $417 forward $178 $-1 #
coedge $-1 -1 $-1 $418 $179 $419 $420 reversed $106 $-1 #
coedge $-1 -1 $-1 $179 $418 $283 $417 reversed $106 $-1 #
coedge $-1 -1 $-1 $421 $422 $179 $287 forward $282 $-1 #
edge $-1 -1 $-1 $423 -7.6200000000000028 $424 2.54 $286 $425 forward @7 unknown #
face $-1 -1 $-1 $-1 $301 $30 $-1 $426 reversed single #
loop $-1 -1 $-1 $-1 $427 $180 #
plane-surface $-1 -1 $-1 12.264204896855324 0 0 -1 0 0 0 0 1 forward_v I I I I #
coedge $-1 -1 $-1 $298 $428 $300 $429 forward $181 $-1 #
coedge $-1 -1 $-1 $293 $182 $430 $431 reversed $109 $-1 #
coedge $-1 -1 $-1 $182 $292 $183 $297 reversed $109 $-1 #
coedge $-1 -1 $-1 $185 $432 $182 $295 reversed $301 $-1 #
edge $-1 -1 $-1 $303 -2.54 $433 7.620000000000001 $182 $434 forward @7 unknown #
coedge $-1 -1 $-1 $184 $183 $435 $436 forward $66 $-1 #
edge $-1 -1 $-1 $303 5.0799999999999992 $437 12.264204896855324 $293 $438 forward @7 unknown #
coedge $-1 -1 $-1 $428 $291 $184 $299 reversed $181 $-1 #
edge $-1 -1 $-1 $439 -12.264204896855324 $302 -5.0799999999999992 $298 $440 forward @7 unknown #
coedge $-1 -1 $-1 $432 $185 $291 $429 reversed $301 $-1 #
loop $-1 -1 $-1 $-1 $294 $288 #
vertex $-1 -1 $-1 $429 $441 #
vertex $-1 -1 $-1 $297 $442 #
straight-curve $-1 -1 $-1 5.0799999999999965 -3.1749999999999998 12.264204896855324 0 -1 0 I I #
loop $-1 -1 $-1 $-1 $194 $187 #
coedge $-1 -1 $-1 $443 $444 $192 $312 forward $188 $-1 #
coedge $-1 -1 $-1 $445 $189 $191 $311 forward $113 $-1 #
coedge $-1 -1 $-1 $189 $445 $443 $446 forward $113 $-1 #
coedge $-1 -1 $-1 $194 $447 $190 $310 reversed $305 $-1 #
edge $-1 -1 $-1 $197 5.0799999999999992 $448 12.264204896855324 $309 $449 forward @7 unknown #
edge $-1 -1 $-1 $196 5.0799999999999992 $448 12.264204896855324 $191 $450 forward @7 unknown #
edge $-1 -1 $-1 $316 -2.54 $313 7.620000000000001 $306 $451 forward @7 unknown #
vertex $-1 -1 $-1 $312 $452 #
straight-curve $-1 -1 $-1 5.0799999999999983 -3.1749999999999998 -12.264204896855324 0 1 0 I I #
coedge $-1 -1 $-1 $447 $194 $444 $453 forward $305 $-1 #
vertex $-1 -1 $-1 $453 $454 #
straight-curve $-1 -1 $-1 12.264204896855324 -3.1749999999999998 -5.0799999999999965 0 -1 0 I I #
point $-1 -1 $-1 5.0799999999999992 6.3499999999999996 -12.264204896855322 #
point $-1 -1 $-1 12.264204896855322 6.3499999999999996 -5.0799999999999992 #
model_id-kcp-attrib $-1 -1 $-1 $-1 $200 1 1021498085 1021498085 1706360834 7 #
face $455 -1 $-1 $-1 $215 $22 $-1 $456 reversed single #
loop $-1 -1 $-1 $-1 $337 $200 #
plane-surface $-1 -1 $-1 0 6.3499999999999996 0 0 -1 0 0 0 -1 forward_v I I I I #
coedge $-1 -1 $-1 $457 $335 $338 $458 forward $201 $-1 #
coedge $-1 -1 $-1 $341 $203 $204 $329 reversed $121 $-1 #
coedge $-1 -1 $-1 $335 $457 $203 $327 reversed $201 $-1 #
edge $-1 -1 $-1 $342 -12.264204896855324 $459 12.264204896855324 $326 $460 forward @7 unknown #
coedge $-1 -1 $-1 $205 $204 $457 $461 forward $74 $-1 #
edge $-1 -1 $-1 $333 -12.264204896855324 $459 12.264204896855324 $325 $462 forward @7 unknown #
coedge $-1 -1 $-1 $338 $337 $205 $331 reversed $322 $-1 #
edge $-1 -1 $-1 $463 -12.264204896855324 $332 12.264204896855324 $330 $464 forward @7 unknown #
vertex $-1 -1 $-1 $207 $465 #
vertex $-1 -1 $-1 $344 $466 #
straight-curve $-1 -1 $-1 12.264204896855324 0 -12.264204896855324 0 -1 0 I I #
coedge $-1 -1 $-1 $324 $326 $208 $336 reversed $201 $-1 #
edge $-1 -1 $-1 $339 -6.3499999999999996 $342 6.3499999999999996 $335 $467 forward @7 unknown #
coedge $-1 -1 $-1 $330 $209 $214 $345 forward $322 $-1 #
coedge $-1 -1 $-1 $209 $330 $324 $458 reversed $322 $-1 #
vertex $-1 -1 $-1 $210 $468 #
straight-curve $-1 -1 $-1 0 6.3499999999999996 12.264204896855324 -1 0 0 I I #
coedge $-1 -1 $-1 $211 $325 $213 $344 reversed $121 $-1 #
vertex $-1 -1 $-1 $336 $469 #
straight-curve $-1 -1 $-1 0 -6.3499999999999996 12.264204896855324 1 0 0 I I #
edge $-1 -1 $-1 $216 -12.264204896855324 $333 12.264204896855324 $213 $470 forward @7 unknown #
edge $-1 -1 $-1 $217 -12.264204896855324 $332 12.264204896855324 $214 $471 forward @7 unknown #
point $-1 -1 $-1 12.264204896855324 -6.3499999999999996 12.264204896855324 #
point $-1 -1 $-1 12.264204896855324 6.3499999999999996 12.264204896855324 #
vertex $-1 -1 $-1 $220 $472 #
ellipse-curve $-1 -1 $-1 0 0 0 0 -1 0 -6.3499999999999996 0 0 1 I I #
point $-1 -1 $-1 -6.3499999999999996 12.699999999999999 0 #
model_id-kcp-attrib $-1 -1 $-1 $-1 $224 1 1021498085 1021498085 1706360833 8 #
face $473 -1 $-1 $266 $260 $8 $-1 $474 forward single #
loop $-1 -1 $-1 $-1 $387 $224 #
plane-surface $-1 -1 $-1 5.0799999999999992 0 12.264204896855322 0.70710678118654757 0 0.70710678118654757 17.960512242138304 0 -17.960512242138304 forward_v I I I I #
coedge $-1 -1 $-1 $475 $385 $388 $476 forward $225 $-1 #
coedge $-1 -1 $-1 $229 $227 $477 $478 reversed $135 $-1 #
coedge $-1 -1 $-1 $385 $475 $227 $358 reversed $225 $-1 #
edge $479 -1 $-1 $401 0 $480 0.5 $227 $481 forward @7 unknown #
coedge $-1 -1 $-1 $477 $231 $228 $360 forward $237 $-1 #
edge $482 -1 $-1 $234 0 $362 0.39999999999999997 $359 $483 forward @7 unknown #
attrib_edge_convexity-kcp-attrib $-1 -1 $484 $-1 $230 1 #
vertex $-1 -1 $-1 $478 $485 #
straight-curve $-1 -1 $-1 -12.264204896855322 0 5.0799999999999992 0 25.399999999999999 0 I I #
attrib_edge_convexity-kcp-attrib $-1 -1 $486 $-1 $232 1 #
straight-curve $-1 -1 $-1 -5.0799999999999992 12.699999999999999 -12.264204896855322 -17.960512242138307 0 17.960512242138304 I I #
convexity-sys-attrib $-1 -1 $-1 $233 $140 #
point $-1 -1 $-1 -12.264204896855322 12.699999999999999 -5.0799999999999992 #
coedge $-1 -1 $-1 $236 $487 $392 $488 forward $237 $-1 #
edge $-1 -1 $-1 $396 0 $239 0.40000000000000002 $236 $489 forward @7 unknown #
loop $-1 -1 $-1 $-1 $377 $371 #
face $490 -1 $-1 $251 $237 $8 $-1 $491 forward single #
attrib_edge_convexity-kcp-attrib $-1 -1 $492 $238 $142 1 #
point $-1 -1 $-1 5.0799999999999992 12.699999999999999 -12.264204896855322 #
coedge $-1 -1 $-1 $244 $243 $493 $494 reversed $245 $-1 #
face $495 -1 $-1 $-1 $245 $8 $-1 $496 reversed single #
convexity-sys-attrib $-1 -1 $-1 $246 $147 #
coedge $-1 -1 $-1 $493 $493 $248 $378 forward $370 $-1 #
edge $-1 -1 $-1 $381 0 $379 3.1415926535897931 $377 $497 forward @7 unknown #
vertex $-1 -1 $-1 $494 $498 #
straight-curve $-1 -1 $-1 6.3499999999999996 12.699999999999999 0 0 -25.399999999999999 0 I I #
vertex $-1 -1 $-1 $494 $499 #
straight-curve $-1 -1 $-1 -6.3499999999999996 12.699999999999999 7.7762503467720954e-016 0 -25.399999999999999 0 I I #
model_id-kcp-attrib $-1 -1 $-1 $-1 $251 1 1021498085 1021498085 1706360833 12 #
cone-surface $-1 -1 $-1 0 12.699999999999999 0 0 -1 0 6.3499999999999996 0 0 1 I I 0 1 6.3499999999999996 forward I I I I #
coedge $-1 -1 $-1 $355 $357 $255 $386 forward $225 $-1 #
edge $500 -1 $-1 $401 0 $390 0.39999999999999997 $255 $501 forward @7 unknown #
coedge $-1 -1 $-1 $502 $256 $259 $393 forward $353 $-1 #
coedge $-1 -1 $-1 $256 $502 $355 $476 reversed $353 $-1 #
attrib_edge_convexity-kcp-attrib $-1 -1 $503 $-1 $257 1 #
vertex $-1 -1 $-1 $386 $504 #
straight-curve $-1 -1 $-1 5.0799999999999992 0 12.264204896855322 17.960512242138307 0 -17.960512242138304 I I #
coedge $-1 -1 $-1 $259 $258 $368 $488 reversed $260 $-1 #
edge $-1 -1 $-1 $262 0 $505 0.5 $387 $506 forward @7 unknown #
convexity-sys-attrib $-1 -1 $-1 $261 $157 #
point $-1 -1 $-1 12.264204896855322 0 5.0799999999999992 #
vertex $-1 -1 $-1 $369 $507 #
straight-curve $-1 -1 $-1 12.264204896855322 0 -5.0799999999999992 0 25.399999999999999 0 I I #
model_id-kcp-attrib $-1 -1 $-1 $-1 $266 1 1021498085 1021498085 1706360833 10 #
plane-surface $-1 -1 $-1 12.264204896855322 0 -5.0799999999999992 0.70710678118654757 0 -0.70710678118654757 -17.960512242138304 0 -17.960512242138304 forward_v I I I I #
attrib_edge_convexity-kcp-attrib $-1 -1 $508 $-1 $270 1 #
vertex $-1 -1 $-1 $270 $509 #
straight-curve $-1 -1 $-1 -12.264204896855322 0 5.0799999999999992 17.960512242138304 0 17.960512242138307 I I #
convexity-sys-attrib $-1 -1 $-1 $271 $166 #
point $-1 -1 $-1 -12.264204896855322 0 5.0799999999999992 #
convexity-sys-attrib $-1 -1 $-1 $276 $170 #
face $-1 -1 $-1 $510 $511 $63 $-1 $114 reversed single #
loop $-1 -1 $-1 $-1 $512 $278 #
coedge $-1 -1 $-1 $513 $514 $515 $516 forward $279 $-1 #
coedge $-1 -1 $-1 $517 $280 $518 $519 forward $175 $-1 #
coedge $-1 -1 $-1 $280 $517 $513 $520 reversed $175 $-1 #
coedge $-1 -1 $-1 $515 $521 $280 $412 reversed $522 $-1 #
edge $-1 -1 $-1 $523 -3.1749999999999998 $524 9.5249999999999986 $280 $525 forward @7 unknown #
face $-1 -1 $-1 $-1 $526 $41 $-1 $67 forward single #
loop $-1 -1 $-1 $-1 $527 $281 #
coedge $-1 -1 $-1 $528 $283 $529 $530 reversed $178 $-1 #
coedge $-1 -1 $-1 $283 $528 $421 $531 forward $178 $-1 #
edge $-1 -1 $-1 $424 -9.5249999999999986 $532 3.1749999999999998 $283 $533 forward @7 unknown #
coedge $-1 -1 $-1 $285 $284 $527 $534 reversed $106 $-1 #
coedge $-1 -1 $-1 $535 $536 $284 $420 forward $526 $-1 #
edge $-1 -1 $-1 $537 -3.1749999999999998 $423 9.5249999999999986 $419 $538 forward @7 unknown #
coedge $-1 -1 $-1 $422 $286 $416 $531 reversed $282 $-1 #
coedge $-1 -1 $-1 $286 $421 $535 $539 reversed $282 $-1 #
vertex $-1 -1 $-1 $539 $540 #
vertex $-1 -1 $-1 $287 $541 #
straight-curve $-1 -1 $-1 -10.468153672641492 6.3499999999999988 6.8760512242138301 -0.70710678118654757 0 -0.70710678118654757 I I #
plane-surface $-1 -1 $-1 5.0799999999999992 -6.3499999999999996 12.264204896855322 0.70710678118654757 0 0.70710678118654757 0 1 0 forward_v I I I I #
coedge $-1 -1 $-1 $542 $430 $432 $543 forward $289 $-1 #
coedge $-1 -1 $-1 $291 $298 $542 $544 forward $181 $-1 #
edge $-1 -1 $-1 $545 -7.620000000000001 $302 2.54 $291 $546 forward @7 unknown #
coedge $-1 -1 $-1 $427 $435 $292 $431 forward $289 $-1 #
edge $-1 -1 $-1 $437 -12.264204896855324 $433 -5.0799999999999992 $430 $547 forward @7 unknown #
coedge $-1 -1 $-1 $294 $300 $427 $543 reversed $301 $-1 #
vertex $-1 -1 $-1 $295 $548 #
straight-curve $-1 -1 $-1 6.8760512242138301 -6.3499999999999996 10.468153672641492 0.70710678118654757 0 -0.70710678118654757 I I #
coedge $-1 -1 $-1 $430 $542 $296 $436 reversed $289 $-1 #
edge $-1 -1 $-1 $437 -6.3499999999999996 $439 6.3499999999999996 $435 $549 forward @7 unknown #
vertex $-1 -1 $-1 $436 $550 #
straight-curve $-1 -1 $-1 0 -6.3499999999999996 12.264204896855324 1 0 0 I I #
vertex $-1 -1 $-1 $436 $551 #
straight-curve $-1 -1 $-1 0 6.3499999999999996 12.264204896855324 -1 0 0 I I #
point $-1 -1 $-1 5.0799999999999992 6.3499999999999996 12.264204896855322 #
point $-1 -1 $-1 5.0799999999999992 -6.3499999999999996 12.264204896855322 #
coedge $-1 -1 $-1 $444 $306 $308 $446 reversed $188 $-1 #
coedge $-1 -1 $-1 $306 $443 $315 $453 reversed $188 $-1 #
coedge $-1 -1 $-1 $308 $307 $447 $552 forward $113 $-1 #
edge $-1 -1 $-1 $553 -12.264204896855324 $313 -5.0799999999999992 $443 $554 forward @7 unknown #
coedge $-1 -1 $-1 $309 $315 $445 $552 reversed $305 $-1 #
vertex $-1 -1 $-1 $552 $555 #
straight-curve $-1 -1 $-1 12.264204896855324 6.3499999999999996 0 0 0 -1 I I #
straight-curve $-1 -1 $-1 0 6.3499999999999996 -12.264204896855324 1 0 0 I I #
straight-curve $-1 -1 $-1 10.468153672641492 -6.3499999999999996 -6.8760512242138301 -0.70710678118654757 0 -0.70710678118654757 I I #
point $-1 -1 $-1 5.0799999999999992 -6.3499999999999996 -12.264204896855322 #
edge $-1 -1 $-1 $316 5.0799999999999992 $553 12.264204896855324 $315 $547 forward @7 unknown #
point $-1 -1 $-1 12.264204896855322 -6.3499999999999996 -5.0799999999999992 #
model_id-kcp-attrib $-1 -1 $-1 $-1 $321 1 1021498085 1021498085 1706360834 6 #
plane-surface $-1 -1 $-1 12.264204896855324 0 0 -1 0 0 0 0 1 forward_v I I I I #
coedge $-1 -1 $-1 $326 $324 $328 $461 reversed $201 $-1 #
edge $-1 -1 $-1 $339 -12.264204896855324 $463 12.264204896855324 $338 $556 forward @7 unknown #
vertex $-1 -1 $-1 $461 $557 #
straight-curve $-1 -1 $-1 -12.264204896855324 -6.3499999999999996 0 0 0 -1 I I #
edge $-1 -1 $-1 $459 -6.3499999999999996 $463 6.3499999999999996 $457 $558 forward @7 unknown #
straight-curve $-1 -1 $-1 0 -6.3499999999999996 -12.264204896855324 -1 0 0 I I #
vertex $-1 -1 $-1 $331 $559 #
straight-curve $-1 -1 $-1 0 6.3499999999999996 -12.264204896855324 1 0 0 I I #
point $-1 -1 $-1 12.264204896855324 6.3499999999999996 -12.264204896855324 #
point $-1 -1 $-1 12.264204896855324 -6.3499999999999996 -12.264204896855324 #
straight-curve $-1 -1 $-1 -12.264204896855324 0 12.264204896855324 0 -1 0 I I #
point $-1 -1 $-1 -12.264204896855324 6.3499999999999996 12.264204896855324 #
point $-1 -1 $-1 -12.264204896855324 -6.3499999999999996 12.264204896855324 #
straight-curve $-1 -1 $-1 12.264204896855324 -6.3499999999999996 0 0 0 -1 I I #
straight-curve $-1 -1 $-1 12.264204896855324 6.3499999999999996 0 0 0 -1 I I #
point $-1 -1 $-1 6.3499999999999996 0 0 #
model_id-kcp-attrib $-1 -1 $-1 $-1 $352 1 1021498085 1021498085 1706360833 9 #
plane-surface $-1 -1 $-1 12.264204896855322 0 5.0799999999999992 1 0 0 0 0 -25.399999999999999 forward_v I I I I #
coedge $-1 -1 $-1 $357 $355 $560 $561 reversed $225 $-1 #
edge $-1 -1 $-1 $390 0 $562 0.5 $355 $563 forward @7 unknown #
coedge $-1 -1 $-1 $560 $359 $356 $478 forward $237 $-1 #
edge $564 -1 $-1 $362 0 $480 0.40000000000000002 $477 $565 forward @7 unknown #
attrib_edge_convexity-kcp-attrib $-1 -1 $566 $-1 $358 1 #
vertex $-1 -1 $-1 $561 $567 #
straight-curve $-1 -1 $-1 -5.0799999999999983 0 12.264204896855324 0 25.399999999999999 0 I I #
model_id-kcp-attrib $-1 -1 $568 $-1 $360 1 1021498085 1021498085 1706360833 17 #
straight-curve $-1 -1 $-1 -12.264204896855322 12.699999999999999 -5.0799999999999992 0 0 25.399999999999999 I I #
convexity-sys-attrib $-1 -1 $-1 $361 $230 #
point $-1 -1 $-1 -12.264204896855322 12.699999999999999 5.0799999999999992 #
convexity-sys-attrib $-1 -1 $-1 $364 $232 #
coedge $-1 -1 $-1 $368 $560 $502 $569 forward $237 $-1 #
edge $570 -1 $-1 $505 0 $396 0.39999999999999997 $368 $571 forward @7 unknown #
straight-curve $-1 -1 $-1 12.264204896855322 12.699999999999999 -5.0799999999999992 -17.960512242138304 0 -17.960512242138307 I I #
model_id-kcp-attrib $-1 -1 $-1 $-1 $371 1 1021498085 1021498085 1706360833 11 #
plane-surface $-1 -1 $-1 0 12.699999999999999 0 0 1 0 25.399999999999999 0 0 forward_v I I I I #
convexity-sys-attrib $-1 -1 $-1 $372 $142 #
coedge $-1 -1 $-1 $377 $377 $374 $494 forward $370 $-1 #
edge $-1 -1 $-1 $379 0 $381 3.1415926535897931 $493 $572 forward @7 unknown #
model_id-kcp-attrib $-1 -1 $-1 $-1 $375 1 1021498085 1021498085 1706360833 13 #
cone-surface $-1 -1 $-1 0 12.699999999999999 0 0 -1 0 6.3499999999999996 0 0 1 I I 0 1 6.3499999999999996 forward I I I I #
ellipse-curve $-1 -1 $-1 0 12.699999999999999 0 0 -1 0 -6.3499999999999996 0 0 1 I I #
point $-1 -1 $-1 6.3499999999999996 12.699999999999999 0 #
point $-1 -1 $-1 -6.3499999999999996 12.699999999999999 0 #
attrib_edge_convexity-kcp-attrib $-1 -1 $573 $-1 $386 1 #
straight-curve $-1 -1 $-1 -5.0799999999999992 0 12.264204896855322 25.399999999999999 0 0 I I #
coedge $-1 -1 $-1 $388 $387 $487 $569 reversed $353 $-1 #
convexity-sys-attrib $-1 -1 $-1 $389 $257 #
point $-1 -1 $-1 5.0799999999999992 0 12.264204896855322 #
vertex $-1 -1 $-1 $488 $574 #
straight-curve $-1 -1 $-1 12.264204896855324 0 5.0799999999999983 0 25.399999999999999 0 I I #
point $-1 -1 $-1 12.264204896855322 12.699999999999999 -5.0799999999999992 #
convexity-sys-attrib $-1 -1 $-1 $400 $270 #
point $-1 -1 $-1 -5.0799999999999992 0 12.264204896855322 #
face $-1 -1 $-1 $-1 $522 $63 $-1 $575 reversed single #
loop $-1 -1 $-1 $-1 $576 $406 #
coedge $-1 -1 $-1 $577 $518 $521 $578 forward $407 $-1 #
coedge $-1 -1 $-1 $514 $408 $410 $520 forward $279 $-1 #
coedge $-1 -1 $-1 $408 $513 $579 $580 reversed $279 $-1 #
coedge $-1 -1 $-1 $581 $411 $408 $516 reversed $522 $-1 #
edge $-1 -1 $-1 $582 -2.5400000000000005 $523 7.620000000000001 $408 $583 forward @7 unknown #
coedge $-1 -1 $-1 $410 $409 $584 $585 reversed $175 $-1 #
coedge $-1 -1 $-1 $512 $577 $409 $519 reversed $407 $-1 #
edge $-1 -1 $-1 $524 5.0799999999999974 $586 12.264204896855324 $518 $587 forward @7 unknown #
edge $-1 -1 $-1 $523 5.0799999999999992 $588 12.264204896855324 $410 $589 forward @7 unknown #
coedge $-1 -1 $-1 $411 $581 $512 $578 reversed $522 $-1 #
loop $-1 -1 $-1 $-1 $521 $510 #
vertex $-1 -1 $-1 $520 $590 #
vertex $-1 -1 $-1 $519 $591 #
straight-curve $-1 -1 $-1 -12.264204896855324 -3.1749999999999998 -5.0799999999999983 0 1 0 I I #
loop $-1 -1 $-1 $-1 $419 $413 #
coedge $-1 -1 $-1 $592 $529 $418 $534 forward $414 $-1 #
coedge $-1 -1 $-1 $416 $415 $593 $594 reversed $178 $-1 #
coedge $-1 -1 $-1 $527 $592 $415 $530 forward $414 $-1 #
edge $-1 -1 $-1 $595 -12.264204896855324 $532 -5.0799999999999992 $415 $589 forward @7 unknown #
edge $-1 -1 $-1 $596 -12.264204896855324 $424 -5.0799999999999992 $421 $587 forward @7 unknown #
vertex $-1 -1 $-1 $534 $597 #
straight-curve $-1 -1 $-1 -12.264204896855324 -3.1749999999999998 5.0799999999999965 0 -1 0 I I #
edge $-1 -1 $-1 $532 -2.54 $537 7.6200000000000028 $527 $598 forward @7 unknown #
coedge $-1 -1 $-1 $593 $419 $422 $539 forward $526 $-1 #
coedge $-1 -1 $-1 $419 $593 $592 $599 forward $526 $-1 #
vertex $-1 -1 $-1 $420 $600 #
straight-curve $-1 -1 $-1 -5.0799999999999983 -3.1749999999999998 12.264204896855324 0 1 0 I I #
edge $-1 -1 $-1 $423 5.0799999999999974 $596 12.264204896855324 $422 $440 forward @7 unknown #
point $-1 -1 $-1 -5.0799999999999974 6.3499999999999996 12.264204896855324 #
point $-1 -1 $-1 -12.264204896855322 6.3499999999999996 5.0799999999999992 #
coedge $-1 -1 $-1 $435 $427 $428 $544 reversed $289 $-1 #
edge $-1 -1 $-1 $433 -3.1749999999999998 $545 9.5249999999999986 $427 $601 forward @7 unknown #
edge $-1 -1 $-1 $439 -12.264204896855324 $545 -5.0799999999999992 $542 $449 forward @7 unknown #
vertex $-1 -1 $-1 $429 $602 #
straight-curve $-1 -1 $-1 6.8760512242138301 6.3499999999999988 10.468153672641492 -0.70710678118654757 0 0.70710678118654757 I I #
straight-curve $-1 -1 $-1 12.264204896855324 -6.3499999999999996 0 0 0 -1 I I #
point $-1 -1 $-1 12.264204896855322 -6.3499999999999996 5.0799999999999992 #
straight-curve $-1 -1 $-1 12.264204896855324 0 12.264204896855324 0 1 0 I I #
point $-1 -1 $-1 12.264204896855324 -6.3499999999999996 12.264204896855324 #
point $-1 -1 $-1 12.264204896855324 6.3499999999999996 12.264204896855324 #
edge $-1 -1 $-1 $448 -6.3499999999999996 $553 6.3499999999999996 $447 $603 forward @7 unknown #
vertex $-1 -1 $-1 $453 $604 #
straight-curve $-1 -1 $-1 0 -6.3499999999999996 -12.264204896855324 -1 0 0 I I #
point $-1 -1 $-1 12.264204896855324 6.3499999999999996 -12.264204896855324 #
straight-curve $-1 -1 $-1 -12.264204896855324 6.3499999999999996 0 0 0 -1 I I #
point $-1 -1 $-1 -12.264204896855324 -6.3499999999999996 -12.264204896855324 #
straight-curve $-1 -1 $-1 -12.264204896855324 0 -12.264204896855324 0 1 0 I I #
point $-1 -1 $-1 -12.264204896855324 6.3499999999999996 -12.264204896855324 #
coedge $-1 -1 $-1 $487 $477 $475 $561 forward $237 $-1 #
edge $605 -1 $-1 $480 0 $562 0.39999999999999997 $560 $606 forward @7 unknown #
vertex $-1 -1 $-1 $569 $607 #
straight-curve $-1 -1 $-1 5.0799999999999992 0 12.264204896855322 0 25.399999999999999 0 I I #
attrib_edge_convexity-kcp-attrib $-1 -1 $608 $-1 $478 1 #
straight-curve $-1 -1 $-1 -12.264204896855322 12.699999999999999 5.0799999999999992 17.960512242138304 0 17.960512242138307 I I #
convexity-sys-attrib $-1 -1 $-1 $479 $358 #
point $-1 -1 $-1 -5.0799999999999992 12.699999999999999 12.264204896855322 #
attrib_edge_convexity-kcp-attrib $-1 -1 $609 $482 $360 1 #
edge $-1 -1 $-1 $562 0 $505 0.40000000000000002 $487 $610 forward @7 unknown #
model_id-kcp-attrib $-1 -1 $-1 $-1 $488 1 1021498085 1021498085 1706360833 15 #
straight-curve $-1 -1 $-1 12.264204896855322 12.699999999999999 5.0799999999999992 0 0 -25.399999999999999 I I #
ellipse-curve $-1 -1 $-1 0 12.699999999999999 0 0 -1 0 6.3499999999999996 0 0 1 I I #
convexity-sys-attrib $-1 -1 $-1 $500 $386 #
point $-1 -1 $-1 12.264204896855322 12.699999999999999 5.0799999999999992 #
plane-surface $-1 -1 $-1 -5.0799999999999983 -6.3499999999999996 -12.264204896855322 -0.70710678118654757 0 -0.70710678118654757 0 -1 0 forward_v I I I I #
coedge $-1 -1 $-1 $579 $611 $581 $612 forward $511 $-1 #
coedge $-1 -1 $-1 $518 $512 $611 $613 reversed $407 $-1 #
edge $-1 -1 $-1 $524 -7.6200000000000028 $614 2.5400000000000005 $512 $615 forward @7 unknown #
coedge $-1 -1 $-1 $584 $576 $514 $580 forward $511 $-1 #
edge $-1 -1 $-1 $582 5.0799999999999983 $588 12.264204896855324 $514 $554 forward @7 unknown #
coedge $-1 -1 $-1 $521 $515 $576 $612 reversed $522 $-1 #
vertex $-1 -1 $-1 $580 $616 #
straight-curve $-1 -1 $-1 -6.8760512242138301 -6.3499999999999996 -10.468153672641492 -0.70710678118654757 0 0.70710678118654757 I I #
coedge $-1 -1 $-1 $611 $579 $517 $585 forward $511 $-1 #
edge $-1 -1 $-1 $588 -6.3499999999999996 $586 6.3499999999999996 $517 $617 forward @7 unknown #
vertex $-1 -1 $-1 $613 $618 #
straight-curve $-1 -1 $-1 -12.264204896855324 6.3499999999999996 0 0 0 -1 I I #
vertex $-1 -1 $-1 $585 $619 #
straight-curve $-1 -1 $-1 -12.264204896855324 -6.3499999999999996 0 0 0 -1 I I #
point $-1 -1 $-1 -12.264204896855322 -6.3499999999999996 -5.0799999999999992 #
point $-1 -1 $-1 -12.264204896855324 6.3499999999999996 -5.0799999999999974 #
coedge $-1 -1 $-1 $529 $527 $536 $599 reversed $414 $-1 #
coedge $-1 -1 $-1 $536 $535 $528 $594 forward $526 $-1 #
edge $-1 -1 $-1 $596 -6.3499999999999996 $595 6.3499999999999996 $528 $620 forward @7 unknown #
vertex $-1 -1 $-1 $594 $621 #
vertex $-1 -1 $-1 $539 $622 #
point $-1 -1 $-1 -12.264204896855322 -6.3499999999999996 5.0799999999999992 #
straight-curve $-1 -1 $-1 -10.468153672641492 -6.3499999999999996 6.8760512242138301 0.70710678118654757 0 0.70710678118654757 I I #
edge $-1 -1 $-1 $595 -12.264204896855324 $537 -5.0799999999999974 $592 $438 forward @7 unknown #
point $-1 -1 $-1 -5.0799999999999974 -6.3499999999999996 12.264204896855324 #
straight-curve $-1 -1 $-1 12.264204896855324 -3.1749999999999998 5.0799999999999983 0 1 0 I I #
point $-1 -1 $-1 12.264204896855322 6.3499999999999996 5.0799999999999992 #
straight-curve $-1 -1 $-1 12.264204896855324 0 -12.264204896855324 0 -1 0 I I #
point $-1 -1 $-1 12.264204896855324 -6.3499999999999996 -12.264204896855324 #
model_id-kcp-attrib $-1 -1 $-1 $-1 $561 1 1021498085 1021498085 1706360833 16 #
straight-curve $-1 -1 $-1 -5.0799999999999992 12.699999999999999 12.264204896855322 25.399999999999999 0 0 I I #
point $-1 -1 $-1 5.0799999999999992 12.699999999999999 12.264204896855322 #
convexity-sys-attrib $-1 -1 $-1 $564 $478 #
convexity-sys-attrib $-1 -1 $-1 $568 $360 #
straight-curve $-1 -1 $-1 5.0799999999999992 12.699999999999999 12.264204896855322 17.960512242138307 0 -17.960512242138304 I I #
coedge $-1 -1 $-1 $576 $584 $577 $613 forward $511 $-1 #
edge $-1 -1 $-1 $614 -9.5249999999999986 $582 3.1749999999999998 $576 $623 forward @7 unknown #
edge $-1 -1 $-1 $586 -12.264204896855324 $614 -5.0799999999999983 $577 $450 forward @7 unknown #
vertex $-1 -1 $-1 $578 $624 #
straight-curve $-1 -1 $-1 -6.8760512242138301 6.3499999999999988 -10.468153672641492 0.70710678118654757 0 -0.70710678118654757 I I #
point $-1 -1 $-1 -5.0799999999999983 -6.3499999999999996 -12.264204896855322 #
straight-curve $-1 -1 $-1 -12.264204896855324 0 -12.264204896855324 0 1 0 I I #
point $-1 -1 $-1 -12.264204896855324 6.3499999999999996 -12.264204896855324 #
point $-1 -1 $-1 -12.264204896855324 -6.3499999999999996 -12.264204896855324 #
straight-curve $-1 -1 $-1 -12.264204896855324 0 12.264204896855324 0 -1 0 I I #
point $-1 -1 $-1 -12.264204896855324 -6.3499999999999996 12.264204896855324 #
point $-1 -1 $-1 -12.264204896855324 6.3499999999999996 12.264204896855324 #
straight-curve $-1 -1 $-1 -5.0799999999999965 -3.1749999999999998 -12.264204896855324 0 -1 0 I I #
point $-1 -1 $-1 -5.0799999999999983 6.3499999999999996 -12.264204896855322 #
End-of-ACIS-data 