600 0 1 0           
90 GICL Pro/E ACIS Translator - Source: f:/data5/repository/PTC/V18/lrgasm18/nut_j3.prt - 6 0 13 ACIS 6.0.3 NT 24 Thu Apr 04 10:00:36 2002 
1 9.9999999999999995e-007 1e-010 
body $-1 $1 $-1 $2 #
lump $-1 $-1 $3 $0 #
transform $-1 1 0 0 0 1 0 0 0 1 0 0 0 25.399999999999999 no_rotate no_reflect no_shear #
shell $-1 $-1 $-1 $4 $-1 $1 #
face $-1 $5 $6 $3 $-1 $7 reversed single #
face $-1 $8 $9 $3 $-1 $10 forward single #
loop $-1 $11 $12 $4 #
plane-surface $-1 0 0 0 0 1 0 1 0 0 forward_v I I I I #
face $-1 $13 $14 $3 $-1 $15 forward single #
loop $-1 $-1 $16 $5 #
plane-surface $-1 0.19999999999999998 0 -0.48284271247461902 0 0 -1 -1 0 0 forward_v I I I I #
loop $-1 $-1 $17 $4 #
coedge $-1 $18 $19 $20 $21 reversed $6 $-1 #
face $-1 $22 $23 $3 $-1 $24 forward single #
loop $-1 $-1 $25 $8 #
plane-surface $-1 -0.19999999999999998 0 -0.48284271247461902 -0.70710678118654757 0 -0.70710678118654757 -0.70710678118654746 0 0.70710678118654746 forward_v I I I I #
coedge $-1 $26 $20 $27 $28 forward $9 $-1 #
coedge $-1 $29 $29 $30 $31 reversed $11 $-1 #
coedge $-1 $32 $12 $33 $34 reversed $6 $-1 #
coedge $-1 $12 $35 $36 $37 reversed $6 $-1 #
coedge $-1 $16 $38 $12 $21 forward $9 $-1 #
edge $-1 $39 0 $40 0.39999999999999997 $12 $41 forward 7 unknown #
face $-1 $42 $43 $3 $-1 $44 forward single #
loop $-1 $-1 $45 $13 #
plane-surface $-1 -0.48284271247461902 0 -0.19999999999999998 -1 0 0 0 0 1 forward_v I I I I #
coedge $-1 $46 $36 $47 $48 forward $14 $-1 #
coedge $-1 $38 $16 $49 $50 reversed $9 $-1 #
coedge $-1 $36 $46 $16 $28 reversed $14 $-1 #
edge $-1 $40 0 $51 0.5 $27 $52 forward 7 unknown #
coedge $-1 $17 $17 $53 $54 reversed $11 $-1 #
coedge $-1 $55 $56 $17 $31 forward $57 $-1 #
edge $-1 $58 0 $59 3.1415926535897931 $17 $60 forward 7 unknown #
coedge $-1 $61 $18 $62 $63 reversed $6 $-1 #
coedge $-1 $64 $65 $18 $34 forward $66 $-1 #
edge $-1 $67 0 $39 0.40000000000000002 $18 $68 forward 7 unknown #
coedge $-1 $19 $69 $70 $71 reversed $6 $-1 #
coedge $-1 $25 $27 $19 $37 forward $14 $-1 #
edge $-1 $40 0 $72 0.40000000000000002 $19 $73 forward 7 unknown #
coedge $-1 $20 $26 $64 $74 reversed $9 $-1 #
vertex $-1 $34 $75 #
vertex $-1 $37 $76 #
straight-curve $-1 0.19999999999999998 0 -0.48284271247461902 -1 0 0 I I #
face $-1 $77 $78 $3 $-1 $79 forward single #
loop $-1 $-1 $80 $22 #
plane-surface $-1 -0.48284271247461902 0 0.19999999999999998 -0.70710678118654757 0 0.70710678118654757 0.70710678118654746 0 0.70710678118654746 forward_v I I I I #
coedge $-1 $81 $70 $82 $83 forward $23 $-1 #
coedge $-1 $27 $25 $84 $85 reversed $14 $-1 #
coedge $-1 $70 $81 $25 $48 reversed $23 $-1 #
edge $-1 $72 0 $86 0.5 $25 $87 forward 7 unknown #
coedge $-1 $84 $88 $26 $50 forward $89 $-1 #
edge $-1 $90 0 $51 0.39999999999999997 $49 $91 forward 7 unknown #
vertex $-1 $85 $92 #
straight-curve $-1 -0.19999999999999998 0 -0.48284271247461902 0 1 0 I I #
coedge $-1 $93 $94 $29 $54 forward $95 $-1 #
edge $-1 $59 0 $58 3.1415926535897931 $29 $96 forward 7 unknown #
coedge $-1 $97 $30 $94 $98 reversed $57 $-1 #
coedge $-1 $30 $97 $93 $99 forward $57 $-1 #
loop $-1 $-1 $55 $100 #
vertex $-1 $54 $101 #
vertex $-1 $54 $102 #
ellipse-curve $-1 0 0 0 0 -1 0 -0.25 0 0 1 I I #
coedge $-1 $103 $32 $104 $105 reversed $6 $-1 #
coedge $-1 $106 $107 $32 $63 forward $108 $-1 #
edge $-1 $109 0 $67 0.39999999999999997 $32 $110 forward 7 unknown #
coedge $-1 $111 $33 $38 $74 forward $66 $-1 #
coedge $-1 $33 $111 $106 $112 reversed $66 $-1 #
loop $-1 $-1 $64 $113 #
vertex $-1 $63 $114 #
straight-curve $-1 0.48284271247461902 0 -0.19999999999999998 -0.70710678118654746 0 -0.70710678118654757 I I #
coedge $-1 $35 $103 $115 $116 reversed $6 $-1 #
coedge $-1 $45 $47 $35 $71 forward $23 $-1 #
edge $-1 $72 0 $117 0.39999999999999997 $35 $118 forward 7 unknown #
vertex $-1 $37 $119 #
straight-curve $-1 -0.19999999999999998 0 -0.48284271247461902 -0.70710678118654757 0 0.70710678118654746 I I #
edge $-1 $39 0 $90 0.5 $64 $120 forward 7 unknown #
point $-1 0.19999999999999998 0 -0.48284271247461902 #
point $-1 -0.19999999999999998 0 -0.48284271247461902 #
face $-1 $121 $122 $3 $-1 $123 forward single #
loop $-1 $-1 $124 $42 #
plane-surface $-1 -0.19999999999999998 0 0.48284271247461902 0 0 1 1 0 0 forward_v I I I I #
coedge $-1 $125 $115 $126 $127 forward $43 $-1 #
coedge $-1 $47 $45 $128 $129 reversed $23 $-1 #
coedge $-1 $115 $125 $45 $83 reversed $43 $-1 #
edge $-1 $117 0 $130 0.5 $45 $131 forward 7 unknown #
coedge $-1 $128 $49 $46 $85 forward $89 $-1 #
edge $-1 $51 0 $86 0.40000000000000002 $84 $132 forward 7 unknown #
vertex $-1 $85 $133 #
straight-curve $-1 -0.48284271247461907 0 -0.19999999999999996 0 1 0 I I #
coedge $-1 $49 $134 $111 $135 forward $89 $-1 #
loop $-1 $136 $128 $137 #
vertex $-1 $50 $138 #
straight-curve $-1 0.19999999999999998 0.5 -0.48284271247461902 -1 0 0 I I #
point $-1 -0.19999999999999998 0.5 -0.48284271247461902 #
coedge $-1 $139 $53 $56 $99 reversed $95 $-1 #
coedge $-1 $53 $139 $55 $98 forward $95 $-1 #
loop $-1 $-1 $93 $140 #
ellipse-curve $-1 0 0 0 0 -1 0 0.25 0 0 1 I I #
coedge $-1 $56 $55 $141 $142 reversed $57 $-1 #
edge $-1 $143 0 $59 0.5 $94 $144 forward 7 unknown #
edge $-1 $145 0 $58 0.5 $93 $146 forward 7 unknown #
face $-1 $140 $57 $3 $-1 $147 reversed single #
point $-1 -0.25 0 0 #
point $-1 0.25 0 0 #
coedge $-1 $69 $61 $148 $149 reversed $6 $-1 #
coedge $-1 $150 $151 $61 $105 forward $122 $-1 #
edge $-1 $152 0 $109 0.40000000000000002 $61 $153 forward 7 unknown #
coedge $-1 $154 $62 $65 $112 forward $108 $-1 #
coedge $-1 $62 $154 $150 $155 reversed $108 $-1 #
loop $-1 $-1 $106 $121 #
vertex $-1 $105 $156 #
straight-curve $-1 0.48284271247461902 0 0.19999999999999998 0 0 -1 I I #
coedge $-1 $65 $64 $88 $135 reversed $66 $-1 #
edge $-1 $67 0 $157 0.5 $106 $158 forward 7 unknown #
face $-1 $137 $66 $3 $-1 $159 forward single #
point $-1 0.48284271247461902 0 -0.19999999999999998 #
coedge $-1 $80 $82 $69 $116 forward $43 $-1 #
edge $-1 $117 0 $160 0.40000000000000002 $69 $161 forward 7 unknown #
vertex $-1 $71 $162 #
straight-curve $-1 -0.48284271247461902 0 -0.19999999999999998 0 0 1 I I #
point $-1 -0.48284271247461902 0 -0.19999999999999998 #
straight-curve $-1 0.19999999999999996 0 -0.48284271247461907 0 1 0 I I #
face $-1 $113 $108 $3 $-1 $163 forward single #
loop $-1 $-1 $150 $77 #
plane-surface $-1 0.19999999999999998 0 0.48284271247461902 0.70710678118654757 0 0.70710678118654757 0.70710678118654746 0 -0.70710678118654746 forward_v I I I I #
coedge $-1 $164 $148 $151 $165 forward $78 $-1 #
coedge $-1 $82 $80 $166 $167 reversed $43 $-1 #
coedge $-1 $148 $164 $80 $127 reversed $78 $-1 #
edge $-1 $160 0 $168 0.5 $80 $169 forward 7 unknown #
coedge $-1 $166 $84 $81 $129 forward $89 $-1 #
edge $-1 $86 0 $130 0.39999999999999997 $128 $170 forward 7 unknown #
vertex $-1 $167 $171 #
straight-curve $-1 -0.48284271247461902 0 0.19999999999999998 0 1 0 I I #
straight-curve $-1 -0.19999999999999998 0.5 -0.48284271247461902 -0.70710678118654757 0 0.70710678118654746 I I #
point $-1 -0.48284271247461902 0.5 -0.19999999999999998 #
coedge $-1 $88 $172 $154 $173 forward $89 $-1 #
edge $-1 $157 0 $90 0.40000000000000002 $88 $174 forward 7 unknown #
loop $-1 $-1 $141 $137 #
face $-1 $100 $89 $3 $-1 $175 forward single #
point $-1 0.19999999999999998 0.5 -0.48284271247461902 #
coedge $-1 $94 $93 $176 $177 reversed $95 $-1 #
face $-1 $-1 $95 $3 $-1 $178 reversed single #
coedge $-1 $176 $176 $97 $142 forward $136 $-1 #
edge $-1 $145 0 $143 3.1415926535897931 $141 $179 forward 7 unknown #
vertex $-1 $177 $180 #
straight-curve $-1 0.25 0.5 0 0 -1 0 I I #
vertex $-1 $177 $181 #
straight-curve $-1 -0.25 0.5 3.0615158845559431e-017 0 -1 0 I I #
cone-surface $-1 0 0.5 0 0 -1 0 0.25 0 0 1 I I 0 1 0.25 forward I I I I #
coedge $-1 $124 $126 $103 $149 forward $78 $-1 #
edge $-1 $160 0 $152 0.39999999999999997 $103 $182 forward 7 unknown #
coedge $-1 $183 $104 $107 $155 forward $122 $-1 #
coedge $-1 $104 $183 $124 $165 reversed $122 $-1 #
vertex $-1 $149 $184 #
straight-curve $-1 0.19999999999999998 0 0.48284271247461902 0.70710678118654757 0 -0.70710678118654746 I I #
coedge $-1 $107 $106 $134 $173 reversed $108 $-1 #
edge $-1 $109 0 $185 0.5 $150 $186 forward 7 unknown #
point $-1 0.48284271247461902 0 0.19999999999999998 #
vertex $-1 $135 $187 #
straight-curve $-1 0.48284271247461902 0 -0.19999999999999998 0 1 0 I I #
plane-surface $-1 0.48284271247461902 0 -0.19999999999999998 0.70710678118654757 0 -0.70710678118654757 -0.70710678118654746 0 -0.70710678118654746 forward_v I I I I #
vertex $-1 $116 $188 #
straight-curve $-1 -0.48284271247461902 0 0.19999999999999998 0.70710678118654746 0 0.70710678118654757 I I #
point $-1 -0.48284271247461902 0 0.19999999999999998 #
plane-surface $-1 0.48284271247461902 0 0.19999999999999998 1 0 0 0 0 -1 forward_v I I I I #
coedge $-1 $126 $124 $189 $190 reversed $78 $-1 #
edge $-1 $152 0 $191 0.5 $124 $192 forward 7 unknown #
coedge $-1 $189 $128 $125 $167 forward $89 $-1 #
edge $-1 $130 0 $168 0.40000000000000002 $166 $193 forward 7 unknown #
vertex $-1 $190 $194 #
straight-curve $-1 -0.19999999999999996 0 0.48284271247461907 0 1 0 I I #
straight-curve $-1 -0.48284271247461902 0.5 -0.19999999999999998 0 0 1 I I #
point $-1 -0.48284271247461902 0.5 0.19999999999999998 #
coedge $-1 $134 $189 $183 $195 forward $89 $-1 #
edge $-1 $185 0 $157 0.39999999999999997 $134 $196 forward 7 unknown #
straight-curve $-1 0.48284271247461902 0.5 -0.19999999999999998 -0.70710678118654746 0 -0.70710678118654757 I I #
plane-surface $-1 0 0.5 0 0 1 0 1 0 0 forward_v I I I I #
coedge $-1 $141 $141 $139 $177 forward $136 $-1 #
edge $-1 $143 0 $145 3.1415926535897931 $176 $197 forward 7 unknown #
cone-surface $-1 0 0.5 0 0 -1 0 0.25 0 0 1 I I 0 1 0.25 forward I I I I #
ellipse-curve $-1 0 0.5 0 0 -1 0 -0.25 0 0 1 I I #
point $-1 0.25 0.5 0 #
point $-1 -0.25 0.5 0 #
straight-curve $-1 -0.19999999999999998 0 0.48284271247461902 1 0 0 I I #
coedge $-1 $151 $150 $172 $195 reversed $122 $-1 #
point $-1 0.19999999999999998 0 0.48284271247461902 #
vertex $-1 $173 $198 #
straight-curve $-1 0.48284271247461907 0 0.19999999999999996 0 1 0 I I #
point $-1 0.48284271247461902 0.5 -0.19999999999999998 #
point $-1 -0.19999999999999998 0 0.48284271247461902 #
coedge $-1 $172 $166 $164 $190 forward $89 $-1 #
edge $-1 $168 0 $191 0.39999999999999997 $189 $199 forward 7 unknown #
vertex $-1 $195 $200 #
straight-curve $-1 0.19999999999999998 0 0.48284271247461902 0 1 0 I I #
straight-curve $-1 -0.48284271247461902 0.5 0.19999999999999998 0.70710678118654746 0 0.70710678118654757 I I #
point $-1 -0.19999999999999998 0.5 0.48284271247461902 #
edge $-1 $191 0 $185 0.40000000000000002 $172 $201 forward 7 unknown #
straight-curve $-1 0.48284271247461902 0.5 0.19999999999999998 0 0 -1 I I #
ellipse-curve $-1 0 0.5 0 0 -1 0 0.25 0 0 1 I I #
point $-1 0.48284271247461902 0.5 0.19999999999999998 #
straight-curve $-1 -0.19999999999999998 0.5 0.48284271247461902 1 0 0 I I #
point $-1 0.19999999999999998 0.5 0.48284271247461902 #
straight-curve $-1 0.19999999999999998 0.5 0.48284271247461902 0.70710678118654757 0 -0.70710678118654746 I I #
End-of-ACIS-data 