600 0 1 0           
83 GICL ACIS Healer - Source: /gicl/data5/repository/PTC/V18/lrgasm18/nut_j3.sat - 6 0 18 ACIS 6.0.3 Solaris 24 Sat Apr 13 21:59:35 2002 
1 9.999999999999999547e-07 1.000000000000000036e-10 
body $-1 $1 $-1 $-1 #
lump $-1 $-1 $2 $0 #
shell $-1 $-1 $-1 $3 $-1 $1 #
face $-1 $4 $5 $2 $-1 $6 reversed single #
face $-1 $7 $8 $2 $-1 $9 forward single #
loop $-1 $10 $11 $3 #
plane-surface $-1 0 0 0 0 1 0 25.39999999999999858 0 0 forward_v I I I I #
face $-1 $12 $13 $2 $-1 $14 forward single #
loop $-1 $-1 $15 $4 #
plane-surface $-1 5.079999999999999183 0 -12.26420489685532189 0 0 -1 -25.39999999999999858 0 0 forward_v I I I I #
loop $-1 $-1 $16 $3 #
coedge $-1 $17 $18 $19 $20 reversed $5 $-1 #
face $-1 $21 $22 $2 $-1 $23 forward single #
loop $-1 $-1 $24 $7 #
plane-surface $-1 -5.079999999999999183 0 -12.26420489685532189 -0.7071067811865475727 0 -0.7071067811865475727 -17.96051224213830366 0 17.96051224213830366 forward_v I I I I #
coedge $-1 $25 $19 $26 $27 forward $8 $-1 #
coedge $-1 $28 $28 $29 $30 reversed $10 $-1 #
coedge $-1 $31 $11 $32 $33 reversed $5 $-1 #
coedge $-1 $11 $34 $35 $36 reversed $5 $-1 #
coedge $-1 $15 $37 $11 $20 forward $8 $-1 #
edge $-1 $38 0 $39 0.3999999999999999667 $11 $40 forward 7 unknown #
face $-1 $41 $42 $2 $-1 $43 forward single #
loop $-1 $-1 $44 $12 #
plane-surface $-1 -12.26420489685532189 0 -5.079999999999999183 -1 0 0 0 0 25.39999999999999858 forward_v I I I I #
coedge $-1 $45 $35 $46 $47 forward $13 $-1 #
coedge $-1 $37 $15 $48 $49 reversed $8 $-1 #
coedge $-1 $35 $45 $15 $27 reversed $13 $-1 #
edge $-1 $39 0 $50 0.5 $26 $51 forward 7 unknown #
coedge $-1 $16 $16 $52 $53 reversed $10 $-1 #
coedge $-1 $54 $55 $16 $30 forward $56 $-1 #
edge $-1 $57 0 $58 3.141592653589793116 $16 $59 forward 7 unknown #
coedge $-1 $60 $17 $61 $62 reversed $5 $-1 #
coedge $-1 $63 $64 $17 $33 forward $65 $-1 #
edge $-1 $66 0 $38 0.4000000000000000222 $17 $67 forward 7 unknown #
coedge $-1 $18 $68 $69 $70 reversed $5 $-1 #
coedge $-1 $24 $26 $18 $36 forward $13 $-1 #
edge $-1 $39 0 $71 0.4000000000000000222 $18 $72 forward 7 unknown #
coedge $-1 $19 $25 $63 $73 reversed $8 $-1 #
vertex $-1 $33 $74 #
vertex $-1 $36 $75 #
straight-curve $-1 5.079999999999999183 0 -12.26420489685532189 -25.39999999999999858 0 0 I I #
face $-1 $76 $77 $2 $-1 $78 forward single #
loop $-1 $-1 $79 $21 #
plane-surface $-1 -12.26420489685532189 0 5.079999999999999183 -0.7071067811865475727 0 0.7071067811865475727 17.96051224213830366 0 17.96051224213830366 forward_v I I I I #
coedge $-1 $80 $69 $81 $82 forward $22 $-1 #
coedge $-1 $26 $24 $83 $84 reversed $13 $-1 #
coedge $-1 $69 $80 $24 $47 reversed $22 $-1 #
edge $-1 $71 0 $85 0.5 $24 $86 forward 7 unknown #
coedge $-1 $83 $87 $25 $49 forward $88 $-1 #
edge $-1 $89 0 $50 0.3999999999999999667 $48 $90 forward 7 unknown #
vertex $-1 $84 $91 #
straight-curve $-1 -5.079999999999999183 0 -12.26420489685532189 0 25.39999999999999858 0 I I #
coedge $-1 $92 $93 $28 $53 forward $94 $-1 #
edge $-1 $58 0 $57 3.141592653589793116 $28 $95 forward 7 unknown #
coedge $-1 $96 $29 $93 $97 reversed $56 $-1 #
coedge $-1 $29 $96 $92 $98 forward $56 $-1 #
loop $-1 $-1 $54 $99 #
vertex $-1 $53 $100 #
vertex $-1 $53 $101 #
ellipse-curve $-1 0 0 0 0 -1 0 -6.349999999999999645 0 0 1 I I #
coedge $-1 $102 $31 $103 $104 reversed $5 $-1 #
coedge $-1 $105 $106 $31 $62 forward $107 $-1 #
edge $-1 $108 0 $66 0.3999999999999999667 $31 $109 forward 7 unknown #
coedge $-1 $110 $32 $37 $73 forward $65 $-1 #
coedge $-1 $32 $110 $105 $111 reversed $65 $-1 #
loop $-1 $-1 $63 $112 #
vertex $-1 $62 $113 #
straight-curve $-1 12.26420489685532189 0 -5.079999999999999183 -17.96051224213830366 0 -17.96051224213830722 I I #
coedge $-1 $34 $102 $114 $115 reversed $5 $-1 #
coedge $-1 $44 $46 $34 $70 forward $22 $-1 #
edge $-1 $71 0 $116 0.3999999999999999667 $34 $117 forward 7 unknown #
vertex $-1 $36 $118 #
straight-curve $-1 -5.079999999999999183 0 -12.26420489685532189 -17.96051224213830722 0 17.96051224213830366 I I #
edge $-1 $38 0 $89 0.5 $63 $119 forward 7 unknown #
point $-1 5.079999999999999183 0 -12.26420489685532189 #
point $-1 -5.079999999999999183 0 -12.26420489685532189 #
face $-1 $120 $121 $2 $-1 $122 forward single #
loop $-1 $-1 $123 $41 #
plane-surface $-1 -5.079999999999999183 0 12.26420489685532189 0 0 1 25.39999999999999858 0 0 forward_v I I I I #
coedge $-1 $124 $114 $125 $126 forward $42 $-1 #
coedge $-1 $46 $44 $127 $128 reversed $22 $-1 #
coedge $-1 $114 $124 $44 $82 reversed $42 $-1 #
edge $-1 $116 0 $129 0.5 $44 $130 forward 7 unknown #
coedge $-1 $127 $48 $45 $84 forward $88 $-1 #
edge $-1 $50 0 $85 0.4000000000000000222 $83 $131 forward 7 unknown #
vertex $-1 $84 $132 #
straight-curve $-1 -12.26420489685532367 0 -5.079999999999998295 0 25.39999999999999858 0 I I #
coedge $-1 $48 $133 $110 $134 forward $88 $-1 #
loop $-1 $135 $127 $136 #
vertex $-1 $49 $137 #
straight-curve $-1 5.079999999999999183 12.69999999999999929 -12.26420489685532189 -25.39999999999999858 0 0 I I #
point $-1 -5.079999999999999183 12.69999999999999929 -12.26420489685532189 #
coedge $-1 $138 $52 $55 $98 reversed $94 $-1 #
coedge $-1 $52 $138 $54 $97 forward $94 $-1 #
loop $-1 $-1 $92 $139 #
ellipse-curve $-1 0 0 0 0 -1 0 6.349999999999999645 0 0 1 I I #
coedge $-1 $55 $54 $140 $141 reversed $56 $-1 #
edge $-1 $142 0 $58 0.5 $93 $143 forward 7 unknown #
edge $-1 $144 0 $57 0.5 $92 $145 forward 7 unknown #
face $-1 $139 $56 $2 $-1 $146 reversed single #
point $-1 -6.349999999999999645 0 0 #
point $-1 6.349999999999999645 0 0 #
coedge $-1 $68 $60 $147 $148 reversed $5 $-1 #
coedge $-1 $149 $150 $60 $104 forward $121 $-1 #
edge $-1 $151 0 $108 0.4000000000000000222 $60 $152 forward 7 unknown #
coedge $-1 $153 $61 $64 $111 forward $107 $-1 #
coedge $-1 $61 $153 $149 $154 reversed $107 $-1 #
loop $-1 $-1 $105 $120 #
vertex $-1 $104 $155 #
straight-curve $-1 12.26420489685532189 0 5.079999999999999183 0 0 -25.39999999999999858 I I #
coedge $-1 $64 $63 $87 $134 reversed $65 $-1 #
edge $-1 $66 0 $156 0.5 $105 $157 forward 7 unknown #
face $-1 $136 $65 $2 $-1 $158 forward single #
point $-1 12.26420489685532189 0 -5.079999999999999183 #
coedge $-1 $79 $81 $68 $115 forward $42 $-1 #
edge $-1 $116 0 $159 0.4000000000000000222 $68 $160 forward 7 unknown #
vertex $-1 $70 $161 #
straight-curve $-1 -12.26420489685532189 0 -5.079999999999999183 0 0 25.39999999999999858 I I #
point $-1 -12.26420489685532189 0 -5.079999999999999183 #
straight-curve $-1 5.079999999999998295 0 -12.26420489685532367 0 25.39999999999999858 0 I I #
face $-1 $112 $107 $2 $-1 $162 forward single #
loop $-1 $-1 $149 $76 #
plane-surface $-1 5.079999999999999183 0 12.26420489685532189 0.7071067811865475727 0 0.7071067811865475727 17.96051224213830366 0 -17.96051224213830366 forward_v I I I I #
coedge $-1 $163 $147 $150 $164 forward $77 $-1 #
coedge $-1 $81 $79 $165 $166 reversed $42 $-1 #
coedge $-1 $147 $163 $79 $126 reversed $77 $-1 #
edge $-1 $159 0 $167 0.5 $79 $168 forward 7 unknown #
coedge $-1 $165 $83 $80 $128 forward $88 $-1 #
edge $-1 $85 0 $129 0.3999999999999999667 $127 $169 forward 7 unknown #
vertex $-1 $166 $170 #
straight-curve $-1 -12.26420489685532189 0 5.079999999999999183 0 25.39999999999999858 0 I I #
straight-curve $-1 -5.079999999999999183 12.69999999999999929 -12.26420489685532189 -17.96051224213830722 0 17.96051224213830366 I I #
point $-1 -12.26420489685532189 12.69999999999999929 -5.079999999999999183 #
coedge $-1 $87 $171 $153 $172 forward $88 $-1 #
edge $-1 $156 0 $89 0.4000000000000000222 $87 $173 forward 7 unknown #
loop $-1 $-1 $140 $136 #
face $-1 $99 $88 $2 $-1 $174 forward single #
point $-1 5.079999999999999183 12.69999999999999929 -12.26420489685532189 #
coedge $-1 $93 $92 $175 $176 reversed $94 $-1 #
face $-1 $-1 $94 $2 $-1 $177 reversed single #
coedge $-1 $175 $175 $96 $141 forward $135 $-1 #
edge $-1 $144 0 $142 3.141592653589793116 $140 $178 forward 7 unknown #
vertex $-1 $176 $179 #
straight-curve $-1 6.349999999999999645 12.69999999999999929 0 0 -25.39999999999999858 0 I I #
vertex $-1 $176 $180 #
straight-curve $-1 -6.349999999999999645 12.69999999999999929 7.776250346772095392e-16 0 -25.39999999999999858 0 I I #
cone-surface $-1 0 12.69999999999999929 0 0 -1 0 6.349999999999999645 0 0 1 I I 0 1 6.349999999999999645 forward I I I I #
coedge $-1 $123 $125 $102 $148 forward $77 $-1 #
edge $-1 $159 0 $151 0.3999999999999999667 $102 $181 forward 7 unknown #
coedge $-1 $182 $103 $106 $154 forward $121 $-1 #
coedge $-1 $103 $182 $123 $164 reversed $121 $-1 #
vertex $-1 $148 $183 #
straight-curve $-1 5.079999999999999183 0 12.26420489685532189 17.96051224213830722 0 -17.96051224213830366 I I #
coedge $-1 $106 $105 $133 $172 reversed $107 $-1 #
edge $-1 $108 0 $184 0.5 $149 $185 forward 7 unknown #
point $-1 12.26420489685532189 0 5.079999999999999183 #
vertex $-1 $134 $186 #
straight-curve $-1 12.26420489685532189 0 -5.079999999999999183 0 25.39999999999999858 0 I I #
plane-surface $-1 12.26420489685532189 0 -5.079999999999999183 0.7071067811865475727 0 -0.7071067811865475727 -17.96051224213830366 0 -17.96051224213830366 forward_v I I I I #
vertex $-1 $115 $187 #
straight-curve $-1 -12.26420489685532189 0 5.079999999999999183 17.96051224213830366 0 17.96051224213830722 I I #
point $-1 -12.26420489685532189 0 5.079999999999999183 #
plane-surface $-1 12.26420489685532189 0 5.079999999999999183 1 0 0 0 0 -25.39999999999999858 forward_v I I I I #
coedge $-1 $125 $123 $188 $189 reversed $77 $-1 #
edge $-1 $151 0 $190 0.5 $123 $191 forward 7 unknown #
coedge $-1 $188 $127 $124 $166 forward $88 $-1 #
edge $-1 $129 0 $167 0.4000000000000000222 $165 $192 forward 7 unknown #
vertex $-1 $189 $193 #
straight-curve $-1 -5.079999999999998295 0 12.26420489685532367 0 25.39999999999999858 0 I I #
straight-curve $-1 -12.26420489685532189 12.69999999999999929 -5.079999999999999183 0 0 25.39999999999999858 I I #
point $-1 -12.26420489685532189 12.69999999999999929 5.079999999999999183 #
coedge $-1 $133 $188 $182 $194 forward $88 $-1 #
edge $-1 $184 0 $156 0.3999999999999999667 $133 $195 forward 7 unknown #
straight-curve $-1 12.26420489685532189 12.69999999999999929 -5.079999999999999183 -17.96051224213830366 0 -17.96051224213830722 I I #
plane-surface $-1 0 12.69999999999999929 0 0 1 0 25.39999999999999858 0 0 forward_v I I I I #
coedge $-1 $140 $140 $138 $176 forward $135 $-1 #
edge $-1 $142 0 $144 3.141592653589793116 $175 $196 forward 7 unknown #
cone-surface $-1 0 12.69999999999999929 0 0 -1 0 6.349999999999999645 0 0 1 I I 0 1 6.349999999999999645 forward I I I I #
ellipse-curve $-1 0 12.69999999999999929 0 0 -1 0 -6.349999999999999645 0 0 1 I I #
point $-1 6.349999999999999645 12.69999999999999929 0 #
point $-1 -6.349999999999999645 12.69999999999999929 0 #
straight-curve $-1 -5.079999999999999183 0 12.26420489685532189 25.39999999999999858 0 0 I I #
coedge $-1 $150 $149 $171 $194 reversed $121 $-1 #
point $-1 5.079999999999999183 0 12.26420489685532189 #
vertex $-1 $172 $197 #
straight-curve $-1 12.26420489685532367 0 5.079999999999998295 0 25.39999999999999858 0 I I #
point $-1 12.26420489685532189 12.69999999999999929 -5.079999999999999183 #
point $-1 -5.079999999999999183 0 12.26420489685532189 #
coedge $-1 $171 $165 $163 $189 forward $88 $-1 #
edge $-1 $167 0 $190 0.3999999999999999667 $188 $198 forward 7 unknown #
vertex $-1 $194 $199 #
straight-curve $-1 5.079999999999999183 0 12.26420489685532189 0 25.39999999999999858 0 I I #
straight-curve $-1 -12.26420489685532189 12.69999999999999929 5.079999999999999183 17.96051224213830366 0 17.96051224213830722 I I #
point $-1 -5.079999999999999183 12.69999999999999929 12.26420489685532189 #
edge $-1 $190 0 $184 0.4000000000000000222 $171 $200 forward 7 unknown #
straight-curve $-1 12.26420489685532189 12.69999999999999929 5.079999999999999183 0 0 -25.39999999999999858 I I #
ellipse-curve $-1 0 12.69999999999999929 0 0 -1 0 6.349999999999999645 0 0 1 I I #
point $-1 12.26420489685532189 12.69999999999999929 5.079999999999999183 #
straight-curve $-1 -5.079999999999999183 12.69999999999999929 12.26420489685532189 25.39999999999999858 0 0 I I #
point $-1 5.079999999999999183 12.69999999999999929 12.26420489685532189 #
straight-curve $-1 5.079999999999999183 12.69999999999999929 12.26420489685532189 17.96051224213830722 0 -17.96051224213830366 I I #
End-of-ACIS-data 