600 0 1 0           
96 GICL Pro/E ACIS Translator - Source: f:/data5/repository/PTC/V18/lrgasm18/pedestal_3.prt.2 - 6 0 13 ACIS 6.0.3 NT 24 Thu Apr 04 13:34:42 2002 
1 9.9999999999999995e-007 1e-010 
body $-1 $1 $-1 $2 #
lump $-1 $-1 $3 $0 #
transform $-1 1 0 0 0 1 0 0 0 1 0 0 0 25.399999999999999 no_rotate no_reflect no_shear #
shell $-1 $-1 $-1 $4 $-1 $1 #
face $-1 $5 $6 $3 $-1 $7 reversed single #
face $-1 $8 $9 $3 $-1 $10 forward single #
loop $-1 $11 $12 $4 #
plane-surface $-1 2 36 14 -1 0 0 0 0 1 forward_v I I I I #
face $-1 $13 $14 $3 $-1 $15 forward single #
loop $-1 $-1 $16 $5 #
plane-surface $-1 2 56.25043669292026 0 0 -0.86602540378443871 0.50000000000000011 0 0.5 0.8660254037844386 forward_v I I I I #
loop $-1 $-1 $17 $4 #
coedge $-1 $18 $19 $20 $21 reversed $6 $-1 #
face $-1 $22 $23 $3 $-1 $24 forward single #
loop $-1 $-1 $25 $8 #
plane-surface $-1 2 58.848512904273576 4.5 0 0 1 0 1 0 forward_v I I I I #
coedge $-1 $26 $20 $27 $28 forward $9 $-1 #
coedge $-1 $29 $30 $31 $32 reversed $11 $-1 #
coedge $-1 $33 $12 $34 $35 reversed $6 $-1 #
coedge $-1 $12 $36 $37 $38 reversed $6 $-1 #
coedge $-1 $16 $39 $12 $21 forward $9 $-1 #
edge $-1 $40 0 $41 5.1961524227066329 $12 $42 forward 7 unknown #
face $-1 $43 $44 $3 $-1 $45 forward single #
loop $-1 $-1 $46 $13 #
plane-surface $-1 2 66.848512904273576 4.5 0 1 0 0 0 -1 forward_v I I I I #
coedge $-1 $47 $37 $48 $49 forward $14 $-1 #
coedge $-1 $39 $16 $50 $51 reversed $9 $-1 #
coedge $-1 $37 $47 $16 $28 reversed $14 $-1 #
edge $-1 $41 0 $52 40.399999999999999 $27 $53 forward 7 unknown #
coedge $-1 $54 $17 $55 $56 reversed $11 $-1 #
coedge $-1 $17 $57 $58 $59 reversed $11 $-1 #
coedge $-1 $60 $61 $17 $32 forward $62 $-1 #
edge $-1 $63 0 $64 6.8169872981077759 $17 $65 forward 7 unknown #
coedge $-1 $36 $18 $66 $67 reversed $6 $-1 #
coedge $-1 $68 $69 $18 $35 forward $70 $-1 #
edge $-1 $71 0 $40 5.1961524227066365 $18 $72 forward 7 unknown #
coedge $-1 $19 $33 $73 $74 reversed $6 $-1 #
coedge $-1 $25 $27 $19 $38 forward $14 $-1 #
edge $-1 $41 0 $75 8 $19 $76 forward 7 unknown #
coedge $-1 $20 $26 $68 $77 reversed $9 $-1 #
vertex $-1 $35 $78 #
vertex $-1 $38 $79 #
straight-curve $-1 2 56.25043669292026 0 0 0.49999999999999989 0.8660254037844386 I I #
face $-1 $80 $70 $3 $-1 $81 forward single #
loop $-1 $-1 $82 $22 #
plane-surface $-1 2 66.848512904273576 -4.5 0 0 -1 0 -1 0 forward_v I I I I #
coedge $-1 $83 $73 $84 $85 forward $23 $-1 #
coedge $-1 $27 $25 $86 $87 reversed $14 $-1 #
coedge $-1 $73 $83 $25 $49 reversed $23 $-1 #
edge $-1 $75 0 $88 40.399999999999999 $25 $89 forward 7 unknown #
coedge $-1 $86 $90 $26 $51 forward $91 $-1 #
edge $-1 $92 0 $52 5.1961524227066329 $50 $93 forward 7 unknown #
vertex $-1 $87 $94 #
straight-curve $-1 2 58.848512904273576 4.5000000000000009 -1 0 0 I I #
coedge $-1 $57 $29 $95 $96 reversed $11 $-1 #
coedge $-1 $97 $98 $29 $56 forward $99 $-1 #
edge $-1 $100 0 $63 7.5 $29 $101 forward 7 unknown #
coedge $-1 $30 $54 $102 $103 reversed $11 $-1 #
coedge $-1 $104 $105 $30 $59 forward $106 $-1 #
edge $-1 $64 0 $107 4.330127018922199 $30 $108 forward 7 unknown #
coedge $-1 $109 $31 $105 $110 forward $62 $-1 #
coedge $-1 $31 $109 $97 $111 reversed $62 $-1 #
loop $-1 $-1 $60 $112 #
vertex $-1 $56 $113 #
vertex $-1 $59 $114 #
straight-curve $-1 2 66.098512904273576 3.75 0 -1 0 I I #
coedge $-1 $82 $84 $33 $67 forward $44 $-1 #
edge $-1 $115 0 $71 7.9999999999999929 $33 $116 forward 7 unknown #
coedge $-1 $117 $34 $39 $77 forward $70 $-1 #
coedge $-1 $34 $117 $82 $118 reversed $70 $-1 #
loop $-1 $-1 $68 $43 #
vertex $-1 $67 $119 #
straight-curve $-1 2 58.848512904273584 -4.5 0 -0.49999999999999972 0.86602540378443871 I I #
coedge $-1 $46 $48 $36 $74 forward $23 $-1 #
edge $-1 $75 0 $115 9 $36 $120 forward 7 unknown #
vertex $-1 $38 $121 #
straight-curve $-1 2 58.848512904273576 4.5 0 1 0 I I #
edge $-1 $40 0 $92 40.399999999999999 $68 $122 forward 7 unknown #
point $-1 2 56.25043669292026 0 #
point $-1 2 58.848512904273576 4.5 #
face $-1 $123 $91 $3 $-1 $124 forward single #
plane-surface $-1 2 58.848512904273584 -4.5 0 -0.86602540378443849 -0.50000000000000033 0 -0.5 0.86602540378443804 forward_v I I I I #
coedge $-1 $125 $66 $69 $118 forward $44 $-1 #
coedge $-1 $48 $46 $126 $127 reversed $23 $-1 #
coedge $-1 $66 $125 $46 $85 reversed $44 $-1 #
edge $-1 $115 0 $128 40.399999999999999 $46 $129 forward 7 unknown #
coedge $-1 $126 $50 $47 $87 forward $91 $-1 #
edge $-1 $52 0 $88 8 $86 $130 forward 7 unknown #
vertex $-1 $87 $131 #
straight-curve $-1 2 66.848512904273576 4.5 -1 0 0 I I #
coedge $-1 $50 $132 $117 $133 forward $91 $-1 #
loop $-1 $134 $126 $80 #
vertex $-1 $51 $135 #
straight-curve $-1 -38.399999999999999 56.25043669292026 0 0 0.49999999999999989 0.8660254037844386 I I #
point $-1 -38.399999999999999 58.848512904273576 4.5 #
coedge $-1 $136 $137 $54 $96 forward $138 $-1 #
edge $-1 $139 0 $100 6.8169872981077759 $54 $140 forward 7 unknown #
coedge $-1 $141 $55 $61 $111 forward $99 $-1 #
coedge $-1 $55 $141 $136 $142 reversed $99 $-1 #
loop $-1 $-1 $97 $143 #
vertex $-1 $96 $144 #
straight-curve $-1 2 66.098512904273576 -3.75 0 0 1 I I #
coedge $-1 $145 $146 $57 $103 forward $147 $-1 #
edge $-1 $107 0 $139 4.330127018922199 $57 $148 forward 7 unknown #
coedge $-1 $149 $58 $146 $150 forward $106 $-1 #
coedge $-1 $58 $149 $60 $110 reversed $106 $-1 #
loop $-1 $-1 $104 $151 #
vertex $-1 $59 $152 #
straight-curve $-1 2 59.2815256061658 3.75 0 -0.5 -0.8660254037844386 I I #
coedge $-1 $61 $60 $153 $154 reversed $62 $-1 #
edge $-1 $64 0 $155 40.399999999999999 $105 $156 forward 7 unknown #
edge $-1 $63 0 $157 40.399999999999999 $97 $158 forward 7 unknown #
face $-1 $151 $62 $3 $-1 $159 forward single #
point $-1 2 66.098512904273576 3.75 #
point $-1 2 59.2815256061658 3.75 #
vertex $-1 $74 $160 #
straight-curve $-1 2 66.848512904273576 -4.5 0 -1 0 I I #
coedge $-1 $69 $68 $90 $133 reversed $70 $-1 #
edge $-1 $71 0 $161 40.399999999999999 $82 $162 forward 7 unknown #
point $-1 2 58.848512904273584 -4.5 #
straight-curve $-1 2 66.848512904273576 4.5 0 0 -1 I I #
point $-1 2 66.848512904273576 4.5 #
straight-curve $-1 2 56.250436692920267 2.6645352591003757e-015 -1 0 0 I I #
face $-1 $163 $147 $3 $-1 $164 forward single #
plane-surface $-1 -38.399999999999999 36 14 -1 0 0 0 0 1 forward_v I I I I #
coedge $-1 $84 $82 $132 $165 reversed $44 $-1 #
coedge $-1 $132 $86 $83 $127 forward $91 $-1 #
edge $-1 $88 0 $128 9 $126 $166 forward 7 unknown #
vertex $-1 $165 $167 #
straight-curve $-1 2 66.848512904273576 -4.5 -1 0 0 I I #
straight-curve $-1 -38.399999999999999 58.848512904273576 4.5 0 1 0 I I #
point $-1 -38.399999999999999 66.848512904273576 4.5 #
coedge $-1 $90 $126 $125 $165 forward $91 $-1 #
edge $-1 $161 0 $92 5.1961524227066365 $90 $168 forward 7 unknown #
loop $-1 $-1 $169 $80 #
point $-1 -38.399999999999999 56.25043669292026 0 #
coedge $-1 $170 $95 $98 $142 forward $138 $-1 #
coedge $-1 $95 $170 $145 $171 reversed $138 $-1 #
loop $-1 $-1 $136 $163 #
vertex $-1 $103 $172 #
straight-curve $-1 2 59.2815256061658 -3.75 0 1 0 I I #
coedge $-1 $98 $97 $173 $174 reversed $99 $-1 #
edge $-1 $100 0 $175 40.399999999999999 $136 $176 forward 7 unknown #
face $-1 $112 $99 $3 $-1 $177 forward single #
point $-1 2 66.098512904273576 -3.75 #
coedge $-1 $178 $102 $137 $171 forward $147 $-1 #
coedge $-1 $102 $178 $104 $150 reversed $147 $-1 #
loop $-1 $-1 $145 $123 #
straight-curve $-1 2 57.116462096704694 0 0 0.5 -0.8660254037844386 I I #
coedge $-1 $105 $104 $179 $180 reversed $106 $-1 #
edge $-1 $107 0 $181 40.399999999999999 $104 $182 forward 7 unknown #
face $-1 $-1 $106 $3 $-1 $183 forward single #
point $-1 2 57.116462096704694 0 #
coedge $-1 $179 $173 $109 $154 forward $134 $-1 #
edge $-1 $157 0 $155 6.8169872981077759 $153 $184 forward 7 unknown #
vertex $-1 $180 $185 #
straight-curve $-1 2 59.2815256061658 3.75 -1 0 0 I I #
vertex $-1 $154 $186 #
straight-curve $-1 2 66.098512904273576 3.75 -1 0 0 I I #
plane-surface $-1 2 66.098512904273576 3.75 0 0 -1 0 -1 0 forward_v I I I I #
point $-1 2 66.848512904273576 -4.5 #
vertex $-1 $133 $187 #
straight-curve $-1 2 58.848512904273584 -4.5 -1 0 0 I I #
face $-1 $143 $138 $3 $-1 $188 forward single #
plane-surface $-1 2 57.116462096704694 0 0 0.86602540378443849 0.50000000000000033 0 0.5 -0.86602540378443804 forward_v I I I I #
edge $-1 $128 0 $161 7.9999999999999929 $132 $189 forward 7 unknown #
straight-curve $-1 -38.399999999999999 66.848512904273576 4.5 0 0 -1 I I #
point $-1 -38.399999999999999 66.848512904273576 -4.5 #
straight-curve $-1 -38.399999999999999 58.848512904273584 -4.5 0 -0.49999999999999972 0.86602540378443871 I I #
coedge $-1 $190 $179 $178 $191 forward $134 $-1 #
coedge $-1 $137 $136 $190 $192 reversed $138 $-1 #
edge $-1 $139 0 $193 40.399999999999999 $145 $194 forward 7 unknown #
point $-1 2 59.2815256061658 -3.75 #
coedge $-1 $153 $190 $141 $174 forward $134 $-1 #
edge $-1 $175 0 $157 7.5 $173 $195 forward 7 unknown #
vertex $-1 $174 $196 #
straight-curve $-1 2 66.098512904273576 -3.75 -1 0 0 I I #
plane-surface $-1 2 66.098512904273576 -3.75 0 -1 0 0 0 1 forward_v I I I I #
coedge $-1 $146 $145 $169 $191 reversed $147 $-1 #
coedge $-1 $169 $153 $149 $180 forward $134 $-1 #
edge $-1 $155 0 $181 4.330127018922199 $179 $197 forward 7 unknown #
vertex $-1 $180 $198 #
straight-curve $-1 2 57.116462096704701 -3.9968028886505635e-015 -1 0 0 I I #
plane-surface $-1 2 59.2815256061658 3.75 0 0.8660254037844386 -0.50000000000000011 0 -0.5 -0.86602540378443837 forward_v I I I I #
straight-curve $-1 -38.399999999999999 66.098512904273576 3.75 0 -1 0 I I #
point $-1 -38.399999999999999 59.2815256061658 3.75 #
point $-1 -38.399999999999999 66.098512904273576 3.75 #
point $-1 -38.399999999999999 58.848512904273584 -4.5 #
plane-surface $-1 2 59.2815256061658 -3.75 0 0 1 0 1 0 forward_v I I I I #
straight-curve $-1 -38.399999999999999 66.848512904273576 -4.5 0 -1 0 I I #
coedge $-1 $173 $169 $170 $192 forward $134 $-1 #
edge $-1 $181 0 $193 4.330127018922199 $169 $199 forward 7 unknown #
edge $-1 $193 0 $175 6.8169872981077759 $190 $200 forward 7 unknown #
vertex $-1 $192 $201 #
straight-curve $-1 2 59.281525606165793 -3.750000000000004 -1 0 0 I I #
straight-curve $-1 -38.399999999999999 66.098512904273576 -3.75 0 0 1 I I #
point $-1 -38.399999999999999 66.098512904273576 -3.75 #
straight-curve $-1 -38.399999999999999 59.2815256061658 3.75 0 -0.5 -0.8660254037844386 I I #
point $-1 -38.399999999999999 57.116462096704694 0 #
straight-curve $-1 -38.399999999999999 57.116462096704694 0 0 0.5 -0.8660254037844386 I I #
straight-curve $-1 -38.399999999999999 59.2815256061658 -3.75 0 1 0 I I #
point $-1 -38.399999999999999 59.2815256061658 -3.75 #
End-of-ACIS-data 