600 0 1 0           
93 GICL Pro/E ACIS Translator - Source: f:/data5/repository/PTC/V18/lrgasm18/plate_3.prt.3 - 6 0 13 ACIS 6.0.3 NT 24 Thu Apr 04 13:34:27 2002 
1 9.9999999999999995e-007 1e-010 
body $-1 $1 $-1 $2 #
lump $-1 $-1 $3 $0 #
transform $-1 1 0 0 0 1 0 0 0 1 0 0 0 25.399999999999999 no_rotate no_reflect no_shear #
shell $-1 $-1 $-1 $4 $-1 $1 #
face $-1 $5 $6 $3 $-1 $7 reversed single #
face $-1 $8 $9 $3 $-1 $10 forward single #
loop $-1 $-1 $11 $4 #
plane-surface $-1 0 0 -12 0 0 1 1 0 0 forward_v I I I I #
face $-1 $12 $13 $3 $-1 $14 forward single #
loop $-1 $-1 $15 $5 #
plane-surface $-1 -126 0.25 -12 -1 0 0 0 -1 0 forward_v I I I I #
coedge $-1 $16 $17 $18 $19 reversed $6 $-1 #
face $-1 $20 $21 $3 $-1 $22 reversed single #
loop $-1 $23 $24 $8 #
plane-surface $-1 -126 0 -12 0 -1 0 1 0 0 forward_v I I I I #
coedge $-1 $25 $18 $26 $27 forward $9 $-1 #
coedge $-1 $28 $11 $29 $30 reversed $6 $-1 #
coedge $-1 $11 $28 $31 $32 reversed $6 $-1 #
coedge $-1 $15 $33 $11 $19 forward $9 $-1 #
edge $-1 $34 0 $35 0.25 $11 $36 forward 7 unknown #
face $-1 $37 $38 $3 $-1 $39 reversed single #
loop $-1 $-1 $40 $12 #
cone-surface $-1 -13 0.25 -11.25 0 1 0 0.25 0 0 1 I I 0 1 0.25 forward I I I I #
loop $-1 $41 $42 $8 #
coedge $-1 $43 $43 $44 $45 forward $13 $-1 #
coedge $-1 $33 $15 $46 $47 reversed $9 $-1 #
coedge $-1 $31 $48 $15 $27 reversed $49 $-1 #
edge $-1 $35 0 $50 24 $26 $51 forward 7 unknown #
coedge $-1 $17 $16 $52 $53 reversed $6 $-1 #
coedge $-1 $54 $55 $16 $30 forward $56 $-1 #
edge $-1 $57 0 $34 126 $16 $58 forward 7 unknown #
coedge $-1 $59 $26 $17 $32 forward $49 $-1 #
edge $-1 $35 0 $60 126 $17 $61 forward 7 unknown #
coedge $-1 $18 $25 $54 $62 reversed $9 $-1 #
vertex $-1 $30 $63 #
vertex $-1 $32 $64 #
straight-curve $-1 -126 0.25 -12 0 -1 0 I I #
face $-1 $65 $66 $3 $-1 $67 forward single #
loop $-1 $-1 $68 $20 #
cone-surface $-1 -13 0.25 -11.25 0 1 0 0.25 0 0 1 I I 0 1 0.25 forward I I I I #
coedge $-1 $69 $44 $70 $71 reversed $21 $-1 #
loop $-1 $72 $73 $8 #
coedge $-1 $74 $74 $75 $76 forward $23 $-1 #
coedge $-1 $24 $24 $77 $78 forward $13 $-1 #
coedge $-1 $40 $79 $24 $45 reversed $21 $-1 #
edge $-1 $80 0 $81 3.1415926535897789 $24 $82 forward 7 unknown #
coedge $-1 $83 $84 $25 $47 forward $85 $-1 #
edge $-1 $86 0 $50 0.25 $46 $87 forward 7 unknown #
coedge $-1 $26 $59 $83 $88 reversed $49 $-1 #
loop $-1 $89 $59 $8 #
vertex $-1 $88 $90 #
straight-curve $-1 -126 0 -12 0 0 1 I I #
coedge $-1 $91 $92 $28 $53 forward $93 $-1 #
edge $-1 $60 0 $57 0.25 $28 $94 forward 7 unknown #
coedge $-1 $95 $29 $33 $62 forward $56 $-1 #
coedge $-1 $29 $95 $91 $96 reversed $56 $-1 #
loop $-1 $97 $54 $37 #
vertex $-1 $53 $98 #
straight-curve $-1 0 0.25 -12 -1 0 0 I I #
coedge $-1 $48 $31 $92 $99 forward $49 $-1 #
vertex $-1 $32 $100 #
straight-curve $-1 -126 0 -12 1 0 0 I I #
edge $-1 $34 0 $86 24 $54 $101 forward 7 unknown #
point $-1 -126 0.25 -12 #
point $-1 -126 0 -12 #
face $-1 $102 $103 $3 $-1 $104 reversed single #
loop $-1 $105 $106 $37 #
plane-surface $-1 0 0.25 -12 0 1 0 -1 0 0 forward_v I I I I #
coedge $-1 $107 $77 $79 $108 reversed $38 $-1 #
coedge $-1 $79 $40 $106 $109 forward $21 $-1 #
coedge $-1 $77 $107 $40 $71 forward $38 $-1 #
edge $-1 $110 0 $80 0.25 $70 $111 forward 7 unknown #
loop $-1 $112 $113 $8 #
coedge $-1 $114 $114 $115 $116 forward $41 $-1 #
coedge $-1 $42 $42 $117 $118 forward $23 $-1 #
coedge $-1 $119 $120 $42 $76 reversed $103 $-1 #
edge $-1 $121 0 $122 3.1415926535897789 $42 $123 forward 7 unknown #
coedge $-1 $68 $70 $43 $78 reversed $38 $-1 #
edge $-1 $81 0 $80 3.1415926535897789 $43 $124 forward 7 unknown #
coedge $-1 $44 $69 $68 $108 forward $21 $-1 #
vertex $-1 $78 $125 #
vertex $-1 $78 $126 #
ellipse-curve $-1 -13 0 -11.250000000000002 0 1 0 -0.25 0 1.7763568394002505e-015 1 I I #
coedge $-1 $127 $46 $48 $88 forward $85 $-1 #
coedge $-1 $46 $127 $95 $128 forward $85 $-1 #
loop $-1 $-1 $127 $129 #
vertex $-1 $47 $130 #
straight-curve $-1 -126 0.25 12 0 -1 0 I I #
edge $-1 $50 0 $131 126 $83 $132 forward 7 unknown #
loop $-1 $133 $134 $8 #
point $-1 -126 0 12 #
coedge $-1 $135 $52 $55 $96 forward $93 $-1 #
coedge $-1 $52 $135 $59 $99 reversed $93 $-1 #
loop $-1 $-1 $91 $136 #
straight-curve $-1 0 0 -12 0 1 0 I I #
coedge $-1 $55 $54 $84 $128 reversed $56 $-1 #
edge $-1 $57 0 $137 24 $91 $138 forward 7 unknown #
loop $-1 $139 $140 $37 #
point $-1 0 0.25 -12 #
edge $-1 $60 0 $131 24 $59 $141 forward 7 unknown #
point $-1 0 0 -12 #
straight-curve $-1 -126 0.25 -12 0 0 1 I I #
face $-1 $142 $143 $3 $-1 $144 reversed single #
loop $-1 $-1 $119 $65 #
cone-surface $-1 -23 0.25 -11.25 0 1 0 0.25 0 0 1 I I 0 1 0.25 forward I I I I #
loop $-1 $145 $146 $37 #
coedge $-1 $147 $147 $69 $109 reversed $66 $-1 #
coedge $-1 $70 $68 $147 $148 forward $38 $-1 #
edge $-1 $149 0 $81 0.25 $68 $150 forward 7 unknown #
edge $-1 $110 0 $149 3.1415926535897931 $106 $151 forward 7 unknown #
vertex $-1 $148 $152 #
straight-curve $-1 -13.25 0.25 -11.25 0 -1 0 I I #
loop $-1 $153 $154 $8 #
coedge $-1 $155 $155 $156 $157 forward $72 $-1 #
coedge $-1 $73 $73 $158 $159 forward $41 $-1 #
coedge $-1 $160 $161 $73 $116 reversed $162 $-1 #
edge $-1 $163 0 $164 3.1415926535897789 $73 $165 forward 7 unknown #
coedge $-1 $166 $167 $74 $118 reversed $143 $-1 #
edge $-1 $122 0 $121 3.1415926535897789 $74 $168 forward 7 unknown #
coedge $-1 $169 $75 $167 $170 reversed $103 $-1 #
coedge $-1 $75 $169 $166 $171 forward $103 $-1 #
vertex $-1 $118 $172 #
vertex $-1 $118 $173 #
ellipse-curve $-1 -23 0 -11.250000000000002 0 1 0 -0.25 0 1.7763568394002505e-015 1 I I #
ellipse-curve $-1 -13 0 -11.249999999999998 0 1 0 0.25 0 -1.7763568394002505e-015 1 I I #
point $-1 -13.25 0 -11.25 #
point $-1 -12.75 0 -11.25 #
coedge $-1 $84 $83 $135 $174 forward $85 $-1 #
edge $-1 $137 0 $86 126 $84 $175 forward 7 unknown #
face $-1 $136 $85 $3 $-1 $176 forward single #
point $-1 -126 0.25 12 #
vertex $-1 $88 $177 #
straight-curve $-1 -126 0 12 1 0 0 I I #
loop $-1 $-1 $178 $8 #
coedge $-1 $179 $179 $180 $181 reversed $89 $-1 #
coedge $-1 $92 $91 $127 $174 reversed $93 $-1 #
face $-1 $182 $93 $3 $-1 $183 forward single #
vertex $-1 $128 $184 #
straight-curve $-1 0 0.25 -12 0 0 1 I I #
loop $-1 $-1 $185 $37 #
coedge $-1 $186 $186 $187 $188 forward $97 $-1 #
straight-curve $-1 0 0 -12 0 0 1 I I #
face $-1 $189 $162 $3 $-1 $190 reversed single #
loop $-1 $-1 $166 $102 #
cone-surface $-1 -23 0.25 -11.25 0 1 0 0.25 0 0 1 I I 0 1 0.25 forward I I I I #
loop $-1 $191 $192 $37 #
coedge $-1 $193 $193 $169 $194 reversed $105 $-1 #
coedge $-1 $106 $106 $107 $148 reversed $66 $-1 #
edge $-1 $149 0 $110 3.1415926535897931 $147 $195 forward 7 unknown #
vertex $-1 $148 $196 #
straight-curve $-1 -12.75 0.25 -11.25 0 -1 0 I I #
ellipse-curve $-1 -13 0.25 -11.25 0 1 0 -0.25 0 0 1 I I #
point $-1 -13.25 0.25 -11.25 #
loop $-1 $197 $198 $8 #
coedge $-1 $199 $199 $200 $201 forward $112 $-1 #
coedge $-1 $113 $113 $202 $203 forward $72 $-1 #
coedge $-1 $204 $205 $113 $157 reversed $206 $-1 #
edge $-1 $207 0 $208 3.1415926535897789 $113 $209 forward 7 unknown #
coedge $-1 $210 $211 $114 $159 reversed $212 $-1 #
edge $-1 $164 0 $163 3.1415926535897789 $114 $213 forward 7 unknown #
coedge $-1 $214 $115 $211 $215 reversed $162 $-1 #
coedge $-1 $115 $214 $210 $216 forward $162 $-1 #
loop $-1 $-1 $160 $142 #
vertex $-1 $159 $217 #
vertex $-1 $159 $218 #
ellipse-curve $-1 -33 0 -11.250000000000002 0 1 0 -0.25 0 1.7763568394002505e-015 1 I I #
coedge $-1 $219 $117 $120 $171 reversed $143 $-1 #
coedge $-1 $117 $219 $119 $170 forward $143 $-1 #
ellipse-curve $-1 -23 0 -11.249999999999998 0 1 0 0.25 0 -1.7763568394002505e-015 1 I I #
coedge $-1 $120 $119 $146 $194 forward $103 $-1 #
edge $-1 $220 0 $121 0.25 $167 $221 forward 7 unknown #
edge $-1 $222 0 $122 0.25 $166 $223 forward 7 unknown #
point $-1 -23.25 0 -11.25 #
point $-1 -22.75 0 -11.25 #
edge $-1 $131 0 $137 0.25 $127 $224 forward 7 unknown #
straight-curve $-1 0 0.25 12 -1 0 0 I I #
plane-surface $-1 0 0 12 0 0 1 1 0 0 forward_v I I I I #
point $-1 0 0 12 #
coedge $-1 $225 $225 $226 $227 forward $133 $-1 #
coedge $-1 $134 $134 $228 $229 reversed $89 $-1 #
coedge $-1 $230 $231 $134 $181 forward $232 $-1 #
edge $-1 $233 0 $234 3.1415926535897931 $134 $235 forward 7 unknown #
face $-1 $236 $232 $3 $-1 $237 reversed single #
plane-surface $-1 0 0 -12 1 0 0 0 1 0 forward_v I I I I #
point $-1 0 0.25 12 #
coedge $-1 $238 $238 $239 $240 reversed $139 $-1 #
coedge $-1 $140 $140 $241 $242 forward $97 $-1 #
coedge $-1 $231 $230 $140 $188 reversed $232 $-1 #
edge $-1 $243 0 $244 3.1415926535897931 $140 $245 forward 7 unknown #
face $-1 $246 $212 $3 $-1 $247 reversed single #
cone-surface $-1 -33 0.25 -11.25 0 1 0 0.25 0 0 1 I I 0 1 0.25 forward I I I I #
loop $-1 $248 $249 $37 #
coedge $-1 $250 $250 $214 $251 reversed $145 $-1 #
coedge $-1 $146 $146 $219 $252 reversed $105 $-1 #
edge $-1 $220 0 $222 3.1415926535897931 $146 $253 forward 7 unknown #
ellipse-curve $-1 -13 0.25 -11.25 0 1 0 0.25 0 0 1 I I #
point $-1 -12.75 0.25 -11.25 #
loop $-1 $254 $255 $8 #
coedge $-1 $256 $256 $257 $258 forward $153 $-1 #
coedge $-1 $154 $154 $259 $260 forward $112 $-1 #
coedge $-1 $261 $262 $154 $201 reversed $263 $-1 #
edge $-1 $264 0 $265 3.1415926535897789 $154 $266 forward 7 unknown #
coedge $-1 $267 $268 $155 $203 reversed $269 $-1 #
edge $-1 $208 0 $207 3.1415926535897789 $155 $270 forward 7 unknown #
coedge $-1 $271 $156 $268 $272 reversed $206 $-1 #
coedge $-1 $156 $271 $267 $273 forward $206 $-1 #
loop $-1 $-1 $204 $246 #
vertex $-1 $203 $274 #
vertex $-1 $203 $275 #
ellipse-curve $-1 -43 0 -11.250000000000002 0 1 0 -0.25 0 1.7763568394002505e-015 1 I I #
coedge $-1 $276 $158 $161 $216 reversed $212 $-1 #
coedge $-1 $158 $276 $160 $215 forward $212 $-1 #
loop $-1 $-1 $210 $189 #
ellipse-curve $-1 -33 0 -11.249999999999998 0 1 0 0.25 0 -1.7763568394002505e-015 1 I I #
coedge $-1 $161 $160 $192 $251 forward $162 $-1 #
edge $-1 $277 0 $163 0.25 $211 $278 forward 7 unknown #
edge $-1 $279 0 $164 0.25 $210 $280 forward 7 unknown #
point $-1 -33.25 0 -11.25 #
point $-1 -32.75 0 -11.25 #
coedge $-1 $167 $166 $193 $252 forward $143 $-1 #
vertex $-1 $252 $281 #
straight-curve $-1 -23.25 0.25 -11.25 0 -1 0 I I #
vertex $-1 $252 $282 #
straight-curve $-1 -22.75 0.25 -11.25 0 -1 0 I I #
straight-curve $-1 0 0 12 0 1 0 I I #
coedge $-1 $178 $178 $283 $284 forward $133 $-1 #
coedge $-1 $285 $286 $178 $227 reversed $287 $-1 #
edge $-1 $288 0 $289 3.1415926535897789 $178 $290 forward 7 unknown #
coedge $-1 $291 $292 $179 $229 forward $293 $-1 #
edge $-1 $234 0 $233 3.1415926535897931 $179 $294 forward 7 unknown #
coedge $-1 $187 $180 $292 $295 reversed $232 $-1 #
coedge $-1 $180 $187 $291 $296 forward $232 $-1 #
loop $-1 $-1 $230 $182 #
vertex $-1 $229 $297 #
vertex $-1 $229 $298 #
ellipse-curve $-1 -113 0 11.25 0 -1 0 -0.25 0 0 1 I I #
face $-1 $299 $293 $3 $-1 $300 reversed single #
cone-surface $-1 -113 0.25 11.25 0 -1 0 0.25 0 0 1 I I 0 1 0.25 forward I I I I #
coedge $-1 $185 $185 $301 $302 reversed $139 $-1 #
coedge $-1 $286 $285 $185 $240 forward $287 $-1 #
edge $-1 $303 0 $304 3.1415926535897931 $185 $305 forward 7 unknown #
coedge $-1 $292 $291 $186 $242 reversed $293 $-1 #
edge $-1 $244 0 $243 3.1415926535897931 $186 $306 forward 7 unknown #
vertex $-1 $242 $307 #
vertex $-1 $242 $308 #
ellipse-curve $-1 -113 0.25 11.25 0 -1 0 -0.25 0 0 1 I I #
face $-1 $309 $206 $3 $-1 $310 reversed single #
cone-surface $-1 -33 0.25 -11.25 0 1 0 0.25 0 0 1 I I 0 1 0.25 forward I I I I #
loop $-1 $311 $312 $37 #
coedge $-1 $313 $313 $271 $314 reversed $191 $-1 #
coedge $-1 $192 $192 $276 $315 reversed $145 $-1 #
edge $-1 $277 0 $279 3.1415926535897931 $192 $316 forward 7 unknown #
edge $-1 $222 0 $220 3.1415926535897931 $193 $317 forward 7 unknown #
ellipse-curve $-1 -23 0.25 -11.25 0 1 0 -0.25 0 0 1 I I #
loop $-1 $318 $319 $8 #
coedge $-1 $320 $320 $321 $322 forward $197 $-1 #
coedge $-1 $198 $198 $323 $324 forward $153 $-1 #
coedge $-1 $325 $326 $198 $258 reversed $327 $-1 #
edge $-1 $328 0 $329 3.1415926535897789 $198 $330 forward 7 unknown #
coedge $-1 $331 $332 $199 $260 reversed $333 $-1 #
edge $-1 $265 0 $264 3.1415926535897789 $199 $334 forward 7 unknown #
coedge $-1 $335 $200 $332 $336 reversed $263 $-1 #
coedge $-1 $200 $335 $331 $337 forward $263 $-1 #
loop $-1 $-1 $261 $338 #
vertex $-1 $260 $339 #
vertex $-1 $260 $340 #
ellipse-curve $-1 -53 0 -11.250000000000002 0 1 0 -0.25 0 1.7763568394002505e-015 1 I I #
coedge $-1 $341 $202 $205 $273 reversed $269 $-1 #
coedge $-1 $202 $341 $204 $272 forward $269 $-1 #
loop $-1 $-1 $267 $309 #
ellipse-curve $-1 -43 0 -11.249999999999998 0 1 0 0.25 0 -1.7763568394002505e-015 1 I I #
coedge $-1 $205 $204 $249 $314 forward $206 $-1 #
edge $-1 $342 0 $207 0.25 $268 $343 forward 7 unknown #
edge $-1 $344 0 $208 0.25 $267 $345 forward 7 unknown #
point $-1 -43.25 0 -11.25 #
point $-1 -42.75 0 -11.25 #
coedge $-1 $211 $210 $250 $315 forward $212 $-1 #
vertex $-1 $315 $346 #
straight-curve $-1 -33.25 0.25 -11.25 0 -1 0 I I #
vertex $-1 $315 $347 #
straight-curve $-1 -32.75 0.25 -11.25 0 -1 0 I I #
point $-1 -23.25 0.25 -11.25 #
point $-1 -22.75 0.25 -11.25 #
coedge $-1 $348 $349 $225 $284 reversed $350 $-1 #
edge $-1 $289 0 $288 3.1415926535897789 $225 $351 forward 7 unknown #
coedge $-1 $239 $226 $349 $352 reversed $287 $-1 #
coedge $-1 $226 $239 $348 $353 forward $287 $-1 #
loop $-1 $-1 $285 $299 #
vertex $-1 $284 $354 #
vertex $-1 $284 $355 #
ellipse-curve $-1 -113 0 -11.250000000000002 0 1 0 -0.25 0 1.7763568394002505e-015 1 I I #
coedge $-1 $241 $228 $231 $296 reversed $293 $-1 #
coedge $-1 $228 $241 $230 $295 forward $293 $-1 #
loop $-1 $-1 $291 $236 #
ellipse-curve $-1 -113 0 11.25 0 -1 0 0.25 0 0 1 I I #
edge $-1 $244 0 $234 0.25 $292 $356 forward 7 unknown #
edge $-1 $243 0 $233 0.25 $291 $357 forward 7 unknown #
point $-1 -113.25 0 11.25 #
point $-1 -112.75 0 11.25 #
face $-1 $358 $287 $3 $-1 $359 reversed single #
cone-surface $-1 -113 0.25 11.25 0 -1 0 0.25 0 0 1 I I 0 1 0.25 forward I I I I #
coedge $-1 $349 $348 $238 $302 forward $350 $-1 #
edge $-1 $304 0 $303 3.1415926535897931 $238 $360 forward 7 unknown #
vertex $-1 $302 $361 #
vertex $-1 $302 $362 #
ellipse-curve $-1 -113 0.25 -11.25 0 1 0 -0.25 0 0 1 I I #
ellipse-curve $-1 -113 0.25 11.25 0 -1 0 0.25 0 0 1 I I #
point $-1 -113.25 0.25 11.25 #
point $-1 -112.75 0.25 11.25 #
face $-1 $338 $269 $3 $-1 $363 reversed single #
cone-surface $-1 -43 0.25 -11.25 0 1 0 0.25 0 0 1 I I 0 1 0.25 forward I I I I #
loop $-1 $364 $365 $37 #
coedge $-1 $366 $366 $335 $367 reversed $248 $-1 #
coedge $-1 $249 $249 $341 $368 reversed $191 $-1 #
edge $-1 $342 0 $344 3.1415926535897931 $249 $369 forward 7 unknown #
edge $-1 $279 0 $277 3.1415926535897931 $250 $370 forward 7 unknown #
ellipse-curve $-1 -33 0.25 -11.25 0 1 0 -0.25 0 0 1 I I #
ellipse-curve $-1 -23 0.25 -11.25 0 1 0 0.25 0 0 1 I I #
loop $-1 $371 $372 $8 #
coedge $-1 $373 $373 $374 $375 forward $254 $-1 #
coedge $-1 $255 $255 $376 $377 forward $197 $-1 #
coedge $-1 $378 $379 $255 $322 reversed $380 $-1 #
edge $-1 $381 0 $382 3.1415926535897789 $255 $383 forward 7 unknown #
coedge $-1 $384 $385 $256 $324 reversed $386 $-1 #
edge $-1 $329 0 $328 3.1415926535897789 $256 $387 forward 7 unknown #
coedge $-1 $388 $257 $385 $389 reversed $327 $-1 #
coedge $-1 $257 $388 $384 $390 forward $327 $-1 #
loop $-1 $-1 $325 $391 #
vertex $-1 $324 $392 #
vertex $-1 $324 $393 #
ellipse-curve $-1 -63 0 -11.250000000000002 0 1 0 -0.25 0 1.7763568394002505e-015 1 I I #
coedge $-1 $394 $259 $262 $337 reversed $333 $-1 #
coedge $-1 $259 $394 $261 $336 forward $333 $-1 #
loop $-1 $-1 $331 $395 #
ellipse-curve $-1 -53 0 -11.249999999999998 0 1 0 0.25 0 -1.7763568394002505e-015 1 I I #
coedge $-1 $262 $261 $312 $367 forward $263 $-1 #
edge $-1 $396 0 $264 0.25 $332 $397 forward 7 unknown #
edge $-1 $398 0 $265 0.25 $331 $399 forward 7 unknown #
face $-1 $395 $263 $3 $-1 $400 reversed single #
point $-1 -53.25 0 -11.25 #
point $-1 -52.75 0 -11.25 #
coedge $-1 $268 $267 $313 $368 forward $269 $-1 #
vertex $-1 $368 $401 #
straight-curve $-1 -43.25 0.25 -11.25 0 -1 0 I I #
vertex $-1 $368 $402 #
straight-curve $-1 -42.75 0.25 -11.25 0 -1 0 I I #
point $-1 -33.25 0.25 -11.25 #
point $-1 -32.75 0.25 -11.25 #
coedge $-1 $301 $283 $286 $353 reversed $350 $-1 #
coedge $-1 $283 $301 $285 $352 forward $350 $-1 #
loop $-1 $-1 $348 $358 #
ellipse-curve $-1 -113 0 -11.249999999999998 0 1 0 0.25 0 -1.7763568394002505e-015 1 I I #
edge $-1 $303 0 $288 0.25 $349 $403 forward 7 unknown #
edge $-1 $304 0 $289 0.25 $348 $404 forward 7 unknown #
point $-1 -113.25 0 -11.25 #
point $-1 -112.75 0 -11.25 #
straight-curve $-1 -112.75 0.25 11.25 0 -1 0 I I #
straight-curve $-1 -113.25 0.25 11.25 0 -1 0 I I #
face $-1 $-1 $350 $3 $-1 $405 reversed single #
cone-surface $-1 -113 0.25 -11.25 0 1 0 0.25 0 0 1 I I 0 1 0.25 forward I I I I #
ellipse-curve $-1 -113 0.25 -11.25 0 1 0 0.25 0 0 1 I I #
point $-1 -113.25 0.25 -11.25 #
point $-1 -112.75 0.25 -11.25 #
cone-surface $-1 -43 0.25 -11.25 0 1 0 0.25 0 0 1 I I 0 1 0.25 forward I I I I #
loop $-1 $406 $407 $37 #
coedge $-1 $408 $408 $388 $409 reversed $311 $-1 #
coedge $-1 $312 $312 $394 $410 reversed $248 $-1 #
edge $-1 $396 0 $398 3.1415926535897931 $312 $411 forward 7 unknown #
edge $-1 $344 0 $342 3.1415926535897931 $313 $412 forward 7 unknown #
ellipse-curve $-1 -43 0.25 -11.25 0 1 0 -0.25 0 0 1 I I #
ellipse-curve $-1 -33 0.25 -11.25 0 1 0 0.25 0 0 1 I I #
loop $-1 $413 $414 $8 #
coedge $-1 $415 $415 $416 $417 forward $318 $-1 #
coedge $-1 $319 $319 $418 $419 forward $254 $-1 #
coedge $-1 $420 $421 $319 $375 reversed $422 $-1 #
edge $-1 $423 0 $424 3.1415926535897789 $319 $425 forward 7 unknown #
coedge $-1 $426 $427 $320 $377 reversed $428 $-1 #
edge $-1 $382 0 $381 3.1415926535897789 $320 $429 forward 7 unknown #
coedge $-1 $430 $321 $427 $431 reversed $380 $-1 #
coedge $-1 $321 $430 $426 $432 forward $380 $-1 #
loop $-1 $-1 $378 $433 #
vertex $-1 $377 $434 #
vertex $-1 $377 $435 #
ellipse-curve $-1 -73 0 -11.250000000000002 0 1 0 -0.25 0 1.7763568394002505e-015 1 I I #
coedge $-1 $436 $323 $326 $390 reversed $386 $-1 #
coedge $-1 $323 $436 $325 $389 forward $386 $-1 #
loop $-1 $-1 $384 $437 #
ellipse-curve $-1 -63 0 -11.249999999999998 0 1 0 0.25 0 -1.7763568394002505e-015 1 I I #
coedge $-1 $326 $325 $365 $409 forward $327 $-1 #
edge $-1 $438 0 $328 0.25 $385 $439 forward 7 unknown #
edge $-1 $440 0 $329 0.25 $384 $441 forward 7 unknown #
face $-1 $437 $327 $3 $-1 $442 reversed single #
point $-1 -63.25 0 -11.25 #
point $-1 -62.75 0 -11.25 #
coedge $-1 $332 $331 $366 $410 forward $333 $-1 #
face $-1 $391 $333 $3 $-1 $443 reversed single #
vertex $-1 $410 $444 #
straight-curve $-1 -53.25 0.25 -11.25 0 -1 0 I I #
vertex $-1 $410 $445 #
straight-curve $-1 -52.75 0.25 -11.25 0 -1 0 I I #
cone-surface $-1 -53 0.25 -11.25 0 1 0 0.25 0 0 1 I I 0 1 0.25 forward I I I I #
point $-1 -43.25 0.25 -11.25 #
point $-1 -42.75 0.25 -11.25 #
straight-curve $-1 -113.25 0.25 -11.25 0 -1 0 I I #
straight-curve $-1 -112.75 0.25 -11.25 0 -1 0 I I #
cone-surface $-1 -113 0.25 -11.25 0 1 0 0.25 0 0 1 I I 0 1 0.25 forward I I I I #
loop $-1 $446 $447 $37 #
coedge $-1 $448 $448 $430 $449 reversed $364 $-1 #
coedge $-1 $365 $365 $436 $450 reversed $311 $-1 #
edge $-1 $438 0 $440 3.1415926535897931 $365 $451 forward 7 unknown #
edge $-1 $398 0 $396 3.1415926535897931 $366 $452 forward 7 unknown #
ellipse-curve $-1 -53 0.25 -11.25 0 1 0 -0.25 0 0 1 I I #
ellipse-curve $-1 -43 0.25 -11.25 0 1 0 0.25 0 0 1 I I #
loop $-1 $453 $454 $8 #
coedge $-1 $455 $455 $456 $457 forward $371 $-1 #
coedge $-1 $372 $372 $458 $459 forward $318 $-1 #
coedge $-1 $460 $461 $372 $417 reversed $462 $-1 #
edge $-1 $463 0 $464 3.1415926535897789 $372 $465 forward 7 unknown #
coedge $-1 $466 $467 $373 $419 reversed $468 $-1 #
edge $-1 $424 0 $423 3.1415926535897789 $373 $469 forward 7 unknown #
coedge $-1 $470 $374 $467 $471 reversed $422 $-1 #
coedge $-1 $374 $470 $466 $472 forward $422 $-1 #
loop $-1 $-1 $420 $473 #
vertex $-1 $419 $474 #
vertex $-1 $419 $475 #
ellipse-curve $-1 -83 0 -11.250000000000002 0 1 0 -0.25 0 1.7763568394002505e-015 1 I I #
coedge $-1 $476 $376 $379 $432 reversed $428 $-1 #
coedge $-1 $376 $476 $378 $431 forward $428 $-1 #
loop $-1 $-1 $426 $477 #
ellipse-curve $-1 -73 0 -11.249999999999998 0 1 0 0.25 0 -1.7763568394002505e-015 1 I I #
coedge $-1 $379 $378 $407 $449 forward $380 $-1 #
edge $-1 $478 0 $381 0.25 $427 $479 forward 7 unknown #
edge $-1 $480 0 $382 0.25 $426 $481 forward 7 unknown #
face $-1 $477 $380 $3 $-1 $482 reversed single #
point $-1 -73.25 0 -11.25 #
point $-1 -72.75 0 -11.25 #
coedge $-1 $385 $384 $408 $450 forward $386 $-1 #
face $-1 $433 $386 $3 $-1 $483 reversed single #
vertex $-1 $450 $484 #
straight-curve $-1 -63.25 0.25 -11.25 0 -1 0 I I #
vertex $-1 $450 $485 #
straight-curve $-1 -62.75 0.25 -11.25 0 -1 0 I I #
cone-surface $-1 -63 0.25 -11.25 0 1 0 0.25 0 0 1 I I 0 1 0.25 forward I I I I #
cone-surface $-1 -53 0.25 -11.25 0 1 0 0.25 0 0 1 I I 0 1 0.25 forward I I I I #
point $-1 -53.25 0.25 -11.25 #
point $-1 -52.75 0.25 -11.25 #
loop $-1 $486 $487 $37 #
coedge $-1 $488 $488 $470 $489 reversed $406 $-1 #
coedge $-1 $407 $407 $476 $490 reversed $364 $-1 #
edge $-1 $478 0 $480 3.1415926535897931 $407 $491 forward 7 unknown #
edge $-1 $440 0 $438 3.1415926535897931 $408 $492 forward 7 unknown #
ellipse-curve $-1 -63 0.25 -11.25 0 1 0 -0.25 0 0 1 I I #
ellipse-curve $-1 -53 0.25 -11.25 0 1 0 0.25 0 0 1 I I #
loop $-1 $493 $494 $8 #
coedge $-1 $495 $495 $496 $497 reversed $413 $-1 #
coedge $-1 $414 $414 $498 $499 forward $371 $-1 #
coedge $-1 $500 $501 $414 $457 reversed $502 $-1 #
edge $-1 $503 0 $504 3.1415926535897789 $414 $505 forward 7 unknown #
coedge $-1 $506 $507 $415 $459 reversed $508 $-1 #
edge $-1 $464 0 $463 3.1415926535897789 $415 $509 forward 7 unknown #
coedge $-1 $510 $416 $507 $511 reversed $462 $-1 #
coedge $-1 $416 $510 $506 $512 forward $462 $-1 #
loop $-1 $-1 $460 $513 #
vertex $-1 $459 $514 #
vertex $-1 $459 $515 #
ellipse-curve $-1 -93 0 -11.250000000000002 0 1 0 -0.25 0 1.7763568394002505e-015 1 I I #
coedge $-1 $516 $418 $421 $472 reversed $468 $-1 #
coedge $-1 $418 $516 $420 $471 forward $468 $-1 #
loop $-1 $-1 $466 $517 #
ellipse-curve $-1 -83 0 -11.249999999999998 0 1 0 0.25 0 -1.7763568394002505e-015 1 I I #
coedge $-1 $421 $420 $447 $489 forward $422 $-1 #
edge $-1 $518 0 $423 0.25 $467 $519 forward 7 unknown #
edge $-1 $520 0 $424 0.25 $466 $521 forward 7 unknown #
face $-1 $517 $422 $3 $-1 $522 reversed single #
point $-1 -83.25 0 -11.25 #
point $-1 -82.75 0 -11.25 #
coedge $-1 $427 $426 $448 $490 forward $428 $-1 #
face $-1 $473 $428 $3 $-1 $523 reversed single #
vertex $-1 $490 $524 #
straight-curve $-1 -73.25 0.25 -11.25 0 -1 0 I I #
vertex $-1 $490 $525 #
straight-curve $-1 -72.75 0.25 -11.25 0 -1 0 I I #
cone-surface $-1 -73 0.25 -11.25 0 1 0 0.25 0 0 1 I I 0 1 0.25 forward I I I I #
cone-surface $-1 -63 0.25 -11.25 0 1 0 0.25 0 0 1 I I 0 1 0.25 forward I I I I #
point $-1 -63.25 0.25 -11.25 #
point $-1 -62.75 0.25 -11.25 #
loop $-1 $526 $527 $37 #
coedge $-1 $528 $528 $510 $529 reversed $446 $-1 #
coedge $-1 $447 $447 $516 $530 reversed $406 $-1 #
edge $-1 $518 0 $520 3.1415926535897931 $447 $531 forward 7 unknown #
edge $-1 $480 0 $478 3.1415926535897931 $448 $532 forward 7 unknown #
ellipse-curve $-1 -73 0.25 -11.25 0 1 0 -0.25 0 0 1 I I #
ellipse-curve $-1 -63 0.25 -11.25 0 1 0 0.25 0 0 1 I I #
loop $-1 $533 $534 $8 #
coedge $-1 $535 $535 $536 $537 reversed $453 $-1 #
coedge $-1 $454 $454 $538 $539 reversed $413 $-1 #
coedge $-1 $540 $541 $454 $497 forward $542 $-1 #
edge $-1 $543 0 $544 3.1415926535897931 $454 $545 forward 7 unknown #
coedge $-1 $546 $547 $455 $499 reversed $548 $-1 #
edge $-1 $504 0 $503 3.1415926535897789 $455 $549 forward 7 unknown #
coedge $-1 $550 $456 $547 $551 reversed $502 $-1 #
coedge $-1 $456 $550 $546 $552 forward $502 $-1 #
loop $-1 $-1 $500 $553 #
vertex $-1 $499 $554 #
vertex $-1 $499 $555 #
ellipse-curve $-1 -103 0 -11.250000000000002 0 1 0 -0.25 0 1.7763568394002505e-015 1 I I #
coedge $-1 $556 $458 $461 $512 reversed $508 $-1 #
coedge $-1 $458 $556 $460 $511 forward $508 $-1 #
loop $-1 $-1 $506 $557 #
ellipse-curve $-1 -93 0 -11.249999999999998 0 1 0 0.25 0 -1.7763568394002505e-015 1 I I #
coedge $-1 $461 $460 $487 $529 forward $462 $-1 #
edge $-1 $558 0 $463 0.25 $507 $559 forward 7 unknown #
edge $-1 $560 0 $464 0.25 $506 $561 forward 7 unknown #
face $-1 $557 $462 $3 $-1 $562 reversed single #
point $-1 -93.25 0 -11.25 #
point $-1 -92.75 0 -11.25 #
coedge $-1 $467 $466 $488 $530 forward $468 $-1 #
face $-1 $513 $468 $3 $-1 $563 reversed single #
vertex $-1 $530 $564 #
straight-curve $-1 -83.25 0.25 -11.25 0 -1 0 I I #
vertex $-1 $530 $565 #
straight-curve $-1 -82.75 0.25 -11.25 0 -1 0 I I #
cone-surface $-1 -83 0.25 -11.25 0 1 0 0.25 0 0 1 I I 0 1 0.25 forward I I I I #
cone-surface $-1 -73 0.25 -11.25 0 1 0 0.25 0 0 1 I I 0 1 0.25 forward I I I I #
point $-1 -73.25 0.25 -11.25 #
point $-1 -72.75 0.25 -11.25 #
loop $-1 $566 $567 $37 #
coedge $-1 $568 $568 $550 $569 reversed $486 $-1 #
coedge $-1 $487 $487 $556 $570 reversed $446 $-1 #
edge $-1 $558 0 $560 3.1415926535897931 $487 $571 forward 7 unknown #
edge $-1 $520 0 $518 3.1415926535897931 $488 $572 forward 7 unknown #
ellipse-curve $-1 -83 0.25 -11.25 0 1 0 -0.25 0 0 1 I I #
ellipse-curve $-1 -73 0.25 -11.25 0 1 0 0.25 0 0 1 I I #
loop $-1 $573 $574 $8 #
coedge $-1 $575 $575 $576 $577 reversed $493 $-1 #
coedge $-1 $494 $494 $578 $579 reversed $453 $-1 #
coedge $-1 $580 $581 $494 $537 forward $582 $-1 #
edge $-1 $583 0 $584 3.1415926535897931 $494 $585 forward 7 unknown #
coedge $-1 $586 $587 $495 $539 forward $588 $-1 #
edge $-1 $544 0 $543 3.1415926535897931 $495 $589 forward 7 unknown #
coedge $-1 $590 $496 $587 $591 reversed $542 $-1 #
coedge $-1 $496 $590 $586 $592 forward $542 $-1 #
loop $-1 $-1 $540 $593 #
vertex $-1 $539 $594 #
vertex $-1 $539 $595 #
ellipse-curve $-1 -13 0 11.25 0 -1 0 -0.25 0 0 1 I I #
coedge $-1 $596 $498 $501 $552 reversed $548 $-1 #
coedge $-1 $498 $596 $500 $551 forward $548 $-1 #
loop $-1 $-1 $546 $597 #
ellipse-curve $-1 -103 0 -11.249999999999998 0 1 0 0.25 0 -1.7763568394002505e-015 1 I I #
coedge $-1 $501 $500 $527 $569 forward $502 $-1 #
edge $-1 $598 0 $503 0.25 $547 $599 forward 7 unknown #
edge $-1 $600 0 $504 0.25 $546 $601 forward 7 unknown #
face $-1 $597 $502 $3 $-1 $602 reversed single #
point $-1 -103.25 0 -11.25 #
point $-1 -102.75 0 -11.25 #
coedge $-1 $507 $506 $528 $570 forward $508 $-1 #
face $-1 $553 $508 $3 $-1 $603 reversed single #
vertex $-1 $570 $604 #
straight-curve $-1 -93.25 0.25 -11.25 0 -1 0 I I #
vertex $-1 $570 $605 #
straight-curve $-1 -92.75 0.25 -11.25 0 -1 0 I I #
cone-surface $-1 -93 0.25 -11.25 0 1 0 0.25 0 0 1 I I 0 1 0.25 forward I I I I #
cone-surface $-1 -83 0.25 -11.25 0 1 0 0.25 0 0 1 I I 0 1 0.25 forward I I I I #
point $-1 -83.25 0.25 -11.25 #
point $-1 -82.75 0.25 -11.25 #
loop $-1 $606 $607 $37 #
coedge $-1 $608 $608 $590 $609 forward $526 $-1 #
coedge $-1 $527 $527 $596 $610 reversed $486 $-1 #
edge $-1 $598 0 $600 3.1415926535897931 $527 $611 forward 7 unknown #
edge $-1 $560 0 $558 3.1415926535897931 $528 $612 forward 7 unknown #
ellipse-curve $-1 -93 0.25 -11.25 0 1 0 -0.25 0 0 1 I I #
ellipse-curve $-1 -83 0.25 -11.25 0 1 0 0.25 0 0 1 I I #
loop $-1 $613 $614 $8 #
coedge $-1 $615 $615 $616 $617 reversed $533 $-1 #
coedge $-1 $534 $534 $618 $619 reversed $493 $-1 #
coedge $-1 $620 $621 $534 $577 forward $622 $-1 #
edge $-1 $623 0 $624 3.1415926535897931 $534 $625 forward 7 unknown #
coedge $-1 $626 $627 $535 $579 forward $628 $-1 #
edge $-1 $584 0 $583 3.1415926535897931 $535 $629 forward 7 unknown #
coedge $-1 $630 $536 $627 $631 reversed $582 $-1 #
coedge $-1 $536 $630 $626 $632 forward $582 $-1 #
loop $-1 $-1 $580 $633 #
vertex $-1 $579 $634 #
vertex $-1 $579 $635 #
ellipse-curve $-1 -23 0 11.25 0 -1 0 -0.25 0 0 1 I I #
coedge $-1 $636 $538 $541 $592 reversed $588 $-1 #
coedge $-1 $538 $636 $540 $591 forward $588 $-1 #
loop $-1 $-1 $586 $637 #
ellipse-curve $-1 -13 0 11.25 0 -1 0 0.25 0 0 1 I I #
coedge $-1 $541 $540 $567 $609 reversed $542 $-1 #
edge $-1 $638 0 $544 0.25 $587 $639 forward 7 unknown #
edge $-1 $640 0 $543 0.25 $586 $641 forward 7 unknown #
face $-1 $637 $542 $3 $-1 $642 reversed single #
point $-1 -13.25 0 11.25 #
point $-1 -12.75 0 11.25 #
coedge $-1 $547 $546 $568 $610 forward $548 $-1 #
face $-1 $593 $548 $3 $-1 $643 reversed single #
vertex $-1 $610 $644 #
straight-curve $-1 -103.25 0.25 -11.25 0 -1 0 I I #
vertex $-1 $610 $645 #
straight-curve $-1 -102.75 0.25 -11.25 0 -1 0 I I #
cone-surface $-1 -103 0.25 -11.25 0 1 0 0.25 0 0 1 I I 0 1 0.25 forward I I I I #
cone-surface $-1 -93 0.25 -11.25 0 1 0 0.25 0 0 1 I I 0 1 0.25 forward I I I I #
point $-1 -93.25 0.25 -11.25 #
point $-1 -92.75 0.25 -11.25 #
loop $-1 $646 $647 $37 #
coedge $-1 $648 $648 $630 $649 forward $566 $-1 #
coedge $-1 $567 $567 $636 $650 forward $526 $-1 #
edge $-1 $640 0 $638 3.1415926535897931 $567 $651 forward 7 unknown #
edge $-1 $600 0 $598 3.1415926535897931 $568 $652 forward 7 unknown #
ellipse-curve $-1 -103 0.25 -11.25 0 1 0 -0.25 0 0 1 I I #
ellipse-curve $-1 -93 0.25 -11.25 0 1 0 0.25 0 0 1 I I #
loop $-1 $653 $654 $8 #
coedge $-1 $655 $655 $656 $657 reversed $573 $-1 #
coedge $-1 $574 $574 $658 $659 reversed $533 $-1 #
coedge $-1 $660 $661 $574 $617 forward $662 $-1 #
edge $-1 $663 0 $664 3.1415926535897931 $574 $665 forward 7 unknown #
coedge $-1 $666 $667 $575 $619 forward $668 $-1 #
edge $-1 $624 0 $623 3.1415926535897931 $575 $669 forward 7 unknown #
coedge $-1 $670 $576 $667 $671 reversed $622 $-1 #
coedge $-1 $576 $670 $666 $672 forward $622 $-1 #
loop $-1 $-1 $620 $673 #
vertex $-1 $619 $674 #
vertex $-1 $619 $675 #
ellipse-curve $-1 -33 0 11.25 0 -1 0 -0.25 0 0 1 I I #
coedge $-1 $676 $578 $581 $632 reversed $628 $-1 #
coedge $-1 $578 $676 $580 $631 forward $628 $-1 #
loop $-1 $-1 $626 $677 #
ellipse-curve $-1 -23 0 11.25 0 -1 0 0.25 0 0 1 I I #
coedge $-1 $581 $580 $607 $649 reversed $582 $-1 #
edge $-1 $678 0 $584 0.25 $627 $679 forward 7 unknown #
edge $-1 $680 0 $583 0.25 $626 $681 forward 7 unknown #
face $-1 $677 $582 $3 $-1 $682 reversed single #
point $-1 -23.25 0 11.25 #
point $-1 -22.75 0 11.25 #
coedge $-1 $587 $586 $608 $650 reversed $588 $-1 #
face $-1 $633 $588 $3 $-1 $683 reversed single #
vertex $-1 $650 $684 #
straight-curve $-1 -12.75 0.25 11.25 0 -1 0 I I #
vertex $-1 $650 $685 #
straight-curve $-1 -13.25 0.25 11.25 0 -1 0 I I #
cone-surface $-1 -13 0.25 11.25 0 -1 0 0.25 0 0 1 I I 0 1 0.25 forward I I I I #
cone-surface $-1 -103 0.25 -11.25 0 1 0 0.25 0 0 1 I I 0 1 0.25 forward I I I I #
point $-1 -103.25 0.25 -11.25 #
point $-1 -102.75 0.25 -11.25 #
loop $-1 $686 $687 $37 #
coedge $-1 $688 $688 $670 $689 forward $606 $-1 #
coedge $-1 $607 $607 $676 $690 forward $566 $-1 #
edge $-1 $680 0 $678 3.1415926535897931 $607 $691 forward 7 unknown #
edge $-1 $638 0 $640 3.1415926535897931 $608 $692 forward 7 unknown #
ellipse-curve $-1 -13 0.25 11.25 0 -1 0 -0.25 0 0 1 I I #
ellipse-curve $-1 -103 0.25 -11.25 0 1 0 0.25 0 0 1 I I #
loop $-1 $693 $694 $8 #
coedge $-1 $695 $695 $696 $697 reversed $613 $-1 #
coedge $-1 $614 $614 $698 $699 reversed $573 $-1 #
coedge $-1 $700 $701 $614 $657 forward $702 $-1 #
edge $-1 $703 0 $704 3.1415926535897931 $614 $705 forward 7 unknown #
coedge $-1 $706 $707 $615 $659 forward $708 $-1 #
edge $-1 $664 0 $663 3.1415926535897931 $615 $709 forward 7 unknown #
coedge $-1 $710 $616 $707 $711 reversed $662 $-1 #
coedge $-1 $616 $710 $706 $712 forward $662 $-1 #
loop $-1 $-1 $660 $713 #
vertex $-1 $659 $714 #
vertex $-1 $659 $715 #
ellipse-curve $-1 -43 0 11.25 0 -1 0 -0.25 0 0 1 I I #
coedge $-1 $716 $618 $621 $672 reversed $668 $-1 #
coedge $-1 $618 $716 $620 $671 forward $668 $-1 #
loop $-1 $-1 $666 $717 #
ellipse-curve $-1 -33 0 11.25 0 -1 0 0.25 0 0 1 I I #
coedge $-1 $621 $620 $647 $689 reversed $622 $-1 #
edge $-1 $718 0 $624 0.25 $667 $719 forward 7 unknown #
edge $-1 $720 0 $623 0.25 $666 $721 forward 7 unknown #
face $-1 $717 $622 $3 $-1 $722 reversed single #
point $-1 -33.25 0 11.25 #
point $-1 -32.75 0 11.25 #
coedge $-1 $627 $626 $648 $690 reversed $628 $-1 #
face $-1 $673 $628 $3 $-1 $723 reversed single #
vertex $-1 $690 $724 #
straight-curve $-1 -22.75 0.25 11.25 0 -1 0 I I #
vertex $-1 $690 $725 #
straight-curve $-1 -23.25 0.25 11.25 0 -1 0 I I #
cone-surface $-1 -23 0.25 11.25 0 -1 0 0.25 0 0 1 I I 0 1 0.25 forward I I I I #
cone-surface $-1 -13 0.25 11.25 0 -1 0 0.25 0 0 1 I I 0 1 0.25 forward I I I I #
point $-1 -12.75 0.25 11.25 #
point $-1 -13.25 0.25 11.25 #
loop $-1 $726 $727 $37 #
coedge $-1 $728 $728 $710 $729 forward $646 $-1 #
coedge $-1 $647 $647 $716 $730 forward $606 $-1 #
edge $-1 $720 0 $718 3.1415926535897931 $647 $731 forward 7 unknown #
edge $-1 $678 0 $680 3.1415926535897931 $648 $732 forward 7 unknown #
ellipse-curve $-1 -23 0.25 11.25 0 -1 0 -0.25 0 0 1 I I #
ellipse-curve $-1 -13 0.25 11.25 0 -1 0 0.25 0 0 1 I I #
loop $-1 $733 $734 $8 #
coedge $-1 $735 $735 $736 $737 reversed $653 $-1 #
coedge $-1 $654 $654 $738 $739 reversed $613 $-1 #
coedge $-1 $740 $741 $654 $697 forward $742 $-1 #
edge $-1 $743 0 $744 3.1415926535897931 $654 $745 forward 7 unknown #
coedge $-1 $746 $747 $655 $699 forward $748 $-1 #
edge $-1 $704 0 $703 3.1415926535897931 $655 $749 forward 7 unknown #
coedge $-1 $750 $656 $747 $751 reversed $702 $-1 #
coedge $-1 $656 $750 $746 $752 forward $702 $-1 #
loop $-1 $-1 $700 $753 #
vertex $-1 $699 $754 #
vertex $-1 $699 $755 #
ellipse-curve $-1 -53 0 11.25 0 -1 0 -0.25 0 0 1 I I #
coedge $-1 $756 $658 $661 $712 reversed $708 $-1 #
coedge $-1 $658 $756 $660 $711 forward $708 $-1 #
loop $-1 $-1 $706 $757 #
ellipse-curve $-1 -43 0 11.25 0 -1 0 0.25 0 0 1 I I #
coedge $-1 $661 $660 $687 $729 reversed $662 $-1 #
edge $-1 $758 0 $664 0.25 $707 $759 forward 7 unknown #
edge $-1 $760 0 $663 0.25 $706 $761 forward 7 unknown #
face $-1 $757 $662 $3 $-1 $762 reversed single #
point $-1 -43.25 0 11.25 #
point $-1 -42.75 0 11.25 #
coedge $-1 $667 $666 $688 $730 reversed $668 $-1 #
face $-1 $713 $668 $3 $-1 $763 reversed single #
vertex $-1 $730 $764 #
straight-curve $-1 -32.75 0.25 11.25 0 -1 0 I I #
vertex $-1 $730 $765 #
straight-curve $-1 -33.25 0.25 11.25 0 -1 0 I I #
cone-surface $-1 -33 0.25 11.25 0 -1 0 0.25 0 0 1 I I 0 1 0.25 forward I I I I #
cone-surface $-1 -23 0.25 11.25 0 -1 0 0.25 0 0 1 I I 0 1 0.25 forward I I I I #
point $-1 -22.75 0.25 11.25 #
point $-1 -23.25 0.25 11.25 #
loop $-1 $766 $767 $37 #
coedge $-1 $768 $768 $750 $769 forward $686 $-1 #
coedge $-1 $687 $687 $756 $770 forward $646 $-1 #
edge $-1 $760 0 $758 3.1415926535897931 $687 $771 forward 7 unknown #
edge $-1 $718 0 $720 3.1415926535897931 $688 $772 forward 7 unknown #
ellipse-curve $-1 -33 0.25 11.25 0 -1 0 -0.25 0 0 1 I I #
ellipse-curve $-1 -23 0.25 11.25 0 -1 0 0.25 0 0 1 I I #
loop $-1 $773 $774 $8 #
coedge $-1 $775 $775 $776 $777 reversed $693 $-1 #
coedge $-1 $694 $694 $778 $779 reversed $653 $-1 #
coedge $-1 $780 $781 $694 $737 forward $782 $-1 #
edge $-1 $783 0 $784 3.1415926535897931 $694 $785 forward 7 unknown #
coedge $-1 $786 $787 $695 $739 forward $788 $-1 #
edge $-1 $744 0 $743 3.1415926535897931 $695 $789 forward 7 unknown #
coedge $-1 $790 $696 $787 $791 reversed $742 $-1 #
coedge $-1 $696 $790 $786 $792 forward $742 $-1 #
loop $-1 $-1 $740 $793 #
vertex $-1 $739 $794 #
vertex $-1 $739 $795 #
ellipse-curve $-1 -63 0 11.25 0 -1 0 -0.25 0 0 1 I I #
coedge $-1 $796 $698 $701 $752 reversed $748 $-1 #
coedge $-1 $698 $796 $700 $751 forward $748 $-1 #
loop $-1 $-1 $746 $797 #
ellipse-curve $-1 -53 0 11.25 0 -1 0 0.25 0 0 1 I I #
coedge $-1 $701 $700 $727 $769 reversed $702 $-1 #
edge $-1 $798 0 $704 0.25 $747 $799 forward 7 unknown #
edge $-1 $800 0 $703 0.25 $746 $801 forward 7 unknown #
face $-1 $797 $702 $3 $-1 $802 reversed single #
point $-1 -53.25 0 11.25 #
point $-1 -52.75 0 11.25 #
coedge $-1 $707 $706 $728 $770 reversed $708 $-1 #
face $-1 $753 $708 $3 $-1 $803 reversed single #
vertex $-1 $770 $804 #
straight-curve $-1 -42.75 0.25 11.25 0 -1 0 I I #
vertex $-1 $770 $805 #
straight-curve $-1 -43.25 0.25 11.25 0 -1 0 I I #
cone-surface $-1 -43 0.25 11.25 0 -1 0 0.25 0 0 1 I I 0 1 0.25 forward I I I I #
cone-surface $-1 -33 0.25 11.25 0 -1 0 0.25 0 0 1 I I 0 1 0.25 forward I I I I #
point $-1 -32.75 0.25 11.25 #
point $-1 -33.25 0.25 11.25 #
loop $-1 $806 $807 $37 #
coedge $-1 $808 $808 $790 $809 forward $726 $-1 #
coedge $-1 $727 $727 $796 $810 forward $686 $-1 #
edge $-1 $800 0 $798 3.1415926535897931 $727 $811 forward 7 unknown #
edge $-1 $758 0 $760 3.1415926535897931 $728 $812 forward 7 unknown #
ellipse-curve $-1 -43 0.25 11.25 0 -1 0 -0.25 0 0 1 I I #
ellipse-curve $-1 -33 0.25 11.25 0 -1 0 0.25 0 0 1 I I #
loop $-1 $49 $813 $8 #
coedge $-1 $814 $814 $815 $816 reversed $733 $-1 #
coedge $-1 $734 $734 $817 $818 reversed $693 $-1 #
coedge $-1 $819 $820 $734 $777 forward $821 $-1 #
edge $-1 $822 0 $823 3.1415926535897931 $734 $824 forward 7 unknown #
coedge $-1 $825 $826 $735 $779 forward $827 $-1 #
edge $-1 $784 0 $783 3.1415926535897931 $735 $828 forward 7 unknown #
coedge $-1 $829 $736 $826 $830 reversed $782 $-1 #
coedge $-1 $736 $829 $825 $831 forward $782 $-1 #
loop $-1 $-1 $780 $832 #
vertex $-1 $779 $833 #
vertex $-1 $779 $834 #
ellipse-curve $-1 -73 0 11.25 0 -1 0 -0.25 0 0 1 I I #
coedge $-1 $835 $738 $741 $792 reversed $788 $-1 #
coedge $-1 $738 $835 $740 $791 forward $788 $-1 #
loop $-1 $-1 $786 $836 #
ellipse-curve $-1 -63 0 11.25 0 -1 0 0.25 0 0 1 I I #
coedge $-1 $741 $740 $767 $809 reversed $742 $-1 #
edge $-1 $837 0 $744 0.25 $787 $838 forward 7 unknown #
edge $-1 $839 0 $743 0.25 $786 $840 forward 7 unknown #
face $-1 $836 $742 $3 $-1 $841 reversed single #
point $-1 -63.25 0 11.25 #
point $-1 -62.75 0 11.25 #
coedge $-1 $747 $746 $768 $810 reversed $748 $-1 #
face $-1 $793 $748 $3 $-1 $842 reversed single #
vertex $-1 $810 $843 #
straight-curve $-1 -52.75 0.25 11.25 0 -1 0 I I #
vertex $-1 $810 $844 #
straight-curve $-1 -53.25 0.25 11.25 0 -1 0 I I #
cone-surface $-1 -53 0.25 11.25 0 -1 0 0.25 0 0 1 I I 0 1 0.25 forward I I I I #
cone-surface $-1 -43 0.25 11.25 0 -1 0 0.25 0 0 1 I I 0 1 0.25 forward I I I I #
point $-1 -42.75 0.25 11.25 #
point $-1 -43.25 0.25 11.25 #
loop $-1 $845 $846 $37 #
coedge $-1 $847 $847 $829 $848 forward $766 $-1 #
coedge $-1 $767 $767 $835 $849 forward $726 $-1 #
edge $-1 $839 0 $837 3.1415926535897931 $767 $850 forward 7 unknown #
edge $-1 $798 0 $800 3.1415926535897931 $768 $851 forward 7 unknown #
ellipse-curve $-1 -53 0.25 11.25 0 -1 0 -0.25 0 0 1 I I #
ellipse-curve $-1 -43 0.25 11.25 0 -1 0 0.25 0 0 1 I I #
coedge $-1 $852 $852 $853 $854 reversed $773 $-1 #
coedge $-1 $774 $774 $855 $856 reversed $733 $-1 #
coedge $-1 $857 $858 $774 $816 forward $859 $-1 #
edge $-1 $860 0 $861 3.1415926535897931 $774 $862 forward 7 unknown #
coedge $-1 $863 $864 $775 $818 forward $865 $-1 #
edge $-1 $823 0 $822 3.1415926535897931 $775 $866 forward 7 unknown #
coedge $-1 $867 $776 $864 $868 reversed $821 $-1 #
coedge $-1 $776 $867 $863 $869 forward $821 $-1 #
loop $-1 $-1 $819 $870 #
vertex $-1 $818 $871 #
vertex $-1 $818 $872 #
ellipse-curve $-1 -83 0 11.25 0 -1 0 -0.25 0 0 1 I I #
coedge $-1 $873 $778 $781 $831 reversed $827 $-1 #
coedge $-1 $778 $873 $780 $830 forward $827 $-1 #
loop $-1 $-1 $825 $874 #
ellipse-curve $-1 -73 0 11.25 0 -1 0 0.25 0 0 1 I I #
coedge $-1 $781 $780 $807 $848 reversed $782 $-1 #
edge $-1 $875 0 $784 0.25 $826 $876 forward 7 unknown #
edge $-1 $877 0 $783 0.25 $825 $878 forward 7 unknown #
face $-1 $874 $782 $3 $-1 $879 reversed single #
point $-1 -73.25 0 11.25 #
point $-1 -72.75 0 11.25 #
coedge $-1 $787 $786 $808 $849 reversed $788 $-1 #
face $-1 $832 $788 $3 $-1 $880 reversed single #
vertex $-1 $849 $881 #
straight-curve $-1 -62.75 0.25 11.25 0 -1 0 I I #
vertex $-1 $849 $882 #
straight-curve $-1 -63.25 0.25 11.25 0 -1 0 I I #
cone-surface $-1 -63 0.25 11.25 0 -1 0 0.25 0 0 1 I I 0 1 0.25 forward I I I I #
cone-surface $-1 -53 0.25 11.25 0 -1 0 0.25 0 0 1 I I 0 1 0.25 forward I I I I #
point $-1 -52.75 0.25 11.25 #
point $-1 -53.25 0.25 11.25 #
loop $-1 $883 $884 $37 #
coedge $-1 $885 $885 $867 $886 forward $806 $-1 #
coedge $-1 $807 $807 $873 $887 forward $766 $-1 #
edge $-1 $877 0 $875 3.1415926535897931 $807 $888 forward 7 unknown #
edge $-1 $837 0 $839 3.1415926535897931 $808 $889 forward 7 unknown #
ellipse-curve $-1 -63 0.25 11.25 0 -1 0 -0.25 0 0 1 I I #
ellipse-curve $-1 -53 0.25 11.25 0 -1 0 0.25 0 0 1 I I #
coedge $-1 $813 $813 $890 $891 reversed $773 $-1 #
coedge $-1 $892 $893 $813 $854 forward $894 $-1 #
edge $-1 $895 0 $896 3.1415926535897931 $813 $897 forward 7 unknown #
coedge $-1 $898 $899 $814 $856 forward $900 $-1 #
edge $-1 $861 0 $860 3.1415926535897931 $814 $901 forward 7 unknown #
coedge $-1 $902 $815 $899 $903 reversed $859 $-1 #
coedge $-1 $815 $902 $898 $904 forward $859 $-1 #
loop $-1 $-1 $857 $905 #
vertex $-1 $856 $906 #
vertex $-1 $856 $907 #
ellipse-curve $-1 -93 0 11.25 0 -1 0 -0.25 0 0 1 I I #
coedge $-1 $908 $817 $820 $869 reversed $865 $-1 #
coedge $-1 $817 $908 $819 $868 forward $865 $-1 #
loop $-1 $-1 $863 $909 #
ellipse-curve $-1 -83 0 11.25 0 -1 0 0.25 0 0 1 I I #
coedge $-1 $820 $819 $846 $886 reversed $821 $-1 #
edge $-1 $910 0 $823 0.25 $864 $911 forward 7 unknown #
edge $-1 $912 0 $822 0.25 $863 $913 forward 7 unknown #
face $-1 $909 $821 $3 $-1 $914 reversed single #
point $-1 -83.25 0 11.25 #
point $-1 -82.75 0 11.25 #
coedge $-1 $826 $825 $847 $887 reversed $827 $-1 #
face $-1 $870 $827 $3 $-1 $915 reversed single #
vertex $-1 $887 $916 #
straight-curve $-1 -72.75 0.25 11.25 0 -1 0 I I #
vertex $-1 $887 $917 #
straight-curve $-1 -73.25 0.25 11.25 0 -1 0 I I #
cone-surface $-1 -73 0.25 11.25 0 -1 0 0.25 0 0 1 I I 0 1 0.25 forward I I I I #
cone-surface $-1 -63 0.25 11.25 0 -1 0 0.25 0 0 1 I I 0 1 0.25 forward I I I I #
point $-1 -62.75 0.25 11.25 #
point $-1 -63.25 0.25 11.25 #
loop $-1 $56 $918 $37 #
coedge $-1 $919 $919 $902 $920 forward $845 $-1 #
coedge $-1 $846 $846 $908 $921 forward $806 $-1 #
edge $-1 $912 0 $910 3.1415926535897931 $846 $922 forward 7 unknown #
edge $-1 $875 0 $877 3.1415926535897931 $847 $923 forward 7 unknown #
ellipse-curve $-1 -73 0.25 11.25 0 -1 0 -0.25 0 0 1 I I #
ellipse-curve $-1 -63 0.25 11.25 0 -1 0 0.25 0 0 1 I I #
coedge $-1 $924 $925 $852 $891 forward $926 $-1 #
edge $-1 $896 0 $895 3.1415926535897931 $852 $927 forward 7 unknown #
coedge $-1 $928 $853 $925 $929 reversed $894 $-1 #
coedge $-1 $853 $928 $924 $930 forward $894 $-1 #
loop $-1 $-1 $892 $931 #
vertex $-1 $891 $932 #
vertex $-1 $891 $933 #
ellipse-curve $-1 -103 0 11.25 0 -1 0 -0.25 0 0 1 I I #
coedge $-1 $934 $855 $858 $904 reversed $900 $-1 #
coedge $-1 $855 $934 $857 $903 forward $900 $-1 #
loop $-1 $-1 $898 $935 #
ellipse-curve $-1 -93 0 11.25 0 -1 0 0.25 0 0 1 I I #
coedge $-1 $858 $857 $884 $920 reversed $859 $-1 #
edge $-1 $936 0 $861 0.25 $899 $937 forward 7 unknown #
edge $-1 $938 0 $860 0.25 $898 $939 forward 7 unknown #
face $-1 $935 $859 $3 $-1 $940 reversed single #
point $-1 -93.25 0 11.25 #
point $-1 -92.75 0 11.25 #
coedge $-1 $864 $863 $885 $921 reversed $865 $-1 #
face $-1 $905 $865 $3 $-1 $941 reversed single #
vertex $-1 $921 $942 #
straight-curve $-1 -82.75 0.25 11.25 0 -1 0 I I #
vertex $-1 $921 $943 #
straight-curve $-1 -83.25 0.25 11.25 0 -1 0 I I #
cone-surface $-1 -83 0.25 11.25 0 -1 0 0.25 0 0 1 I I 0 1 0.25 forward I I I I #
cone-surface $-1 -73 0.25 11.25 0 -1 0 0.25 0 0 1 I I 0 1 0.25 forward I I I I #
point $-1 -72.75 0.25 11.25 #
point $-1 -73.25 0.25 11.25 #
coedge $-1 $944 $944 $928 $945 forward $883 $-1 #
coedge $-1 $884 $884 $934 $946 forward $845 $-1 #
edge $-1 $938 0 $936 3.1415926535897931 $884 $947 forward 7 unknown #
edge $-1 $910 0 $912 3.1415926535897931 $885 $948 forward 7 unknown #
ellipse-curve $-1 -83 0.25 11.25 0 -1 0 -0.25 0 0 1 I I #
ellipse-curve $-1 -73 0.25 11.25 0 -1 0 0.25 0 0 1 I I #
coedge $-1 $949 $890 $893 $930 reversed $926 $-1 #
coedge $-1 $890 $949 $892 $929 forward $926 $-1 #
loop $-1 $-1 $924 $950 #
ellipse-curve $-1 -103 0 11.25 0 -1 0 0.25 0 0 1 I I #
coedge $-1 $893 $892 $918 $945 reversed $894 $-1 #
edge $-1 $951 0 $896 0.25 $925 $952 forward 7 unknown #
edge $-1 $953 0 $895 0.25 $924 $954 forward 7 unknown #
face $-1 $950 $894 $3 $-1 $955 reversed single #
point $-1 -103.25 0 11.25 #
point $-1 -102.75 0 11.25 #
coedge $-1 $899 $898 $919 $946 reversed $900 $-1 #
face $-1 $931 $900 $3 $-1 $956 reversed single #
vertex $-1 $946 $957 #
straight-curve $-1 -92.75 0.25 11.25 0 -1 0 I I #
vertex $-1 $946 $958 #
straight-curve $-1 -93.25 0.25 11.25 0 -1 0 I I #
cone-surface $-1 -93 0.25 11.25 0 -1 0 0.25 0 0 1 I I 0 1 0.25 forward I I I I #
cone-surface $-1 -83 0.25 11.25 0 -1 0 0.25 0 0 1 I I 0 1 0.25 forward I I I I #
point $-1 -82.75 0.25 11.25 #
point $-1 -83.25 0.25 11.25 #
coedge $-1 $918 $918 $949 $959 forward $883 $-1 #
edge $-1 $953 0 $951 3.1415926535897931 $918 $960 forward 7 unknown #
edge $-1 $936 0 $938 3.1415926535897931 $919 $961 forward 7 unknown #
ellipse-curve $-1 -93 0.25 11.25 0 -1 0 -0.25 0 0 1 I I #
ellipse-curve $-1 -83 0.25 11.25 0 -1 0 0.25 0 0 1 I I #
coedge $-1 $925 $924 $944 $959 reversed $926 $-1 #
face $-1 $129 $926 $3 $-1 $962 reversed single #
vertex $-1 $959 $963 #
straight-curve $-1 -102.75 0.25 11.25 0 -1 0 I I #
vertex $-1 $959 $964 #
straight-curve $-1 -103.25 0.25 11.25 0 -1 0 I I #
cone-surface $-1 -103 0.25 11.25 0 -1 0 0.25 0 0 1 I I 0 1 0.25 forward I I I I #
cone-surface $-1 -93 0.25 11.25 0 -1 0 0.25 0 0 1 I I 0 1 0.25 forward I I I I #
point $-1 -92.75 0.25 11.25 #
point $-1 -93.25 0.25 11.25 #
edge $-1 $951 0 $953 3.1415926535897931 $944 $965 forward 7 unknown #
ellipse-curve $-1 -103 0.25 11.25 0 -1 0 -0.25 0 0 1 I I #
ellipse-curve $-1 -93 0.25 11.25 0 -1 0 0.25 0 0 1 I I #
cone-surface $-1 -103 0.25 11.25 0 -1 0 0.25 0 0 1 I I 0 1 0.25 forward I I I I #
point $-1 -102.75 0.25 11.25 #
point $-1 -103.25 0.25 11.25 #
ellipse-curve $-1 -103 0.25 11.25 0 -1 0 0.25 0 0 1 I I #
End-of-ACIS-data 