600 0 1 0           
98 GICL Pro/E ACIS Translator - Source: f:/data5/repository/PTC/V18/lrgasm18/shaft_roller.prt.2 - 6 0 13 ACIS 6.0.3 NT 24 Thu Apr 04 13:35:05 2002 
1 9.9999999999999995e-007 1e-010 
body $-1 $1 $-1 $2 #
lump $-1 $-1 $3 $0 #
transform $-1 1 0 0 0 1 0 0 0 1 0 0 0 25.399999999999999 no_rotate no_reflect no_shear #
shell $-1 $-1 $-1 $4 $-1 $1 #
face $-1 $5 $6 $3 $-1 $7 reversed single #
face $-1 $8 $9 $3 $-1 $10 forward single #
loop $-1 $-1 $11 $4 #
plane-surface $-1 -15 0 0 1 0 0 0 0 -1 forward_v I I I I #
face $-1 $12 $13 $3 $-1 $14 forward single #
loop $-1 $-1 $15 $5 #
cone-surface $-1 -14.324999999999999 33.5 0 -1 0 0 0 0.99999999999996436 0 1 I I -0.70710678118653492 0.70710678118656012 0.99999999999996436 forward I I I I #
coedge $-1 $16 $16 $17 $18 forward $6 $-1 #
face $-1 $19 $20 $3 $-1 $21 forward single #
loop $-1 $-1 $22 $8 #
cone-surface $-1 -14.324999999999999 33.5 0 -1 0 0 0 0.99999999999996436 0 1 I I -0.70710678118653492 0.70710678118656012 0.99999999999996436 forward I I I I #
coedge $-1 $23 $17 $24 $25 forward $9 $-1 #
coedge $-1 $11 $11 $26 $27 forward $6 $-1 #
coedge $-1 $15 $28 $11 $18 reversed $9 $-1 #
edge $-1 $29 -2.4492127076447555e-016 $30 3.1415926535897918 $11 $31 forward 7 unknown #
face $-1 $32 $33 $3 $-1 $34 forward single #
loop $-1 $-1 $35 $12 #
cone-surface $-1 -13.424999999999999 33.5 0 -1 0 0 0 0.375 0 1 I I 0 1 0.375 forward I I I I #
coedge $-1 $36 $26 $28 $37 forward $13 $-1 #
coedge $-1 $28 $15 $38 $39 forward $9 $-1 #
coedge $-1 $26 $36 $15 $25 reversed $13 $-1 #
edge $-1 $29 0 $40 0.070710678118653267 $15 $41 forward 7 unknown #
coedge $-1 $22 $24 $16 $27 reversed $13 $-1 #
edge $-1 $30 1.8853158711626326e-058 $29 3.1415926535897918 $16 $42 forward 7 unknown #
coedge $-1 $17 $23 $22 $37 reversed $9 $-1 #
vertex $-1 $27 $43 #
vertex $-1 $27 $44 #
ellipse-curve $-1 -15 33.5 -2.2204460492503131e-016 -1 -4.3725706816005783e-014 3.522870028546449e-029 1.4210854715202004e-014 -0.32500000000000284 2.6184431142425892e-016 1 I I #
face $-1 $45 $46 $3 $-1 $47 forward single #
loop $-1 $-1 $48 $19 #
cone-surface $-1 -13.424999999999999 33.5 0 -1 0 0 0 0.375 0 1 I I 0 1 0.375 forward I I I I #
coedge $-1 $49 $50 $51 $52 forward $20 $-1 #
coedge $-1 $24 $22 $50 $53 forward $13 $-1 #
edge $-1 $30 0 $54 0.070710678118653267 $28 $55 forward 7 unknown #
coedge $-1 $48 $51 $23 $39 reversed $33 $-1 #
edge $-1 $40 -2.4492127076447545e-016 $54 3.1415926535897909 $38 $56 forward 7 unknown #
vertex $-1 $53 $57 #
straight-curve $-1 -14.999999999999986 33.174999999999997 -3.9799706499227604e-017 0.70710678118657255 -0.70710678118652237 -8.6592745707190362e-017 I I #
ellipse-curve $-1 -15 33.5 2.0816681711721685e-016 -1 4.3725706816005783e-014 -2.8006896043349044e-029 1.4210854715202004e-014 0.32500000000000284 -2.0816681711721685e-016 1 I I #
point $-1 -14.999999999999986 33.174999999999997 -3.9799706499227604e-017 #
point $-1 -14.999999999999986 33.825000000000003 0 #
face $-1 $58 $59 $3 $-1 $60 forward single #
loop $-1 $61 $62 $32 #
plane-surface $-1 -13.5 33.5 0 -1 0 0 0 1 0 forward_v I I I I #
coedge $-1 $63 $38 $64 $65 forward $33 $-1 #
coedge $-1 $64 $35 $66 $67 forward $20 $-1 #
coedge $-1 $35 $64 $36 $53 reversed $20 $-1 #
coedge $-1 $38 $63 $35 $52 reversed $33 $-1 #
edge $-1 $54 1.4210854715202004e-014 $68 1.4499999999999993 $35 $69 forward 7 unknown #
edge $-1 $54 0 $40 3.1415926535897909 $50 $70 forward 7 unknown #
vertex $-1 $53 $71 #
straight-curve $-1 -14.999999999999986 33.825000000000003 0 0.70710678118657255 0.70710678118652237 0 I I #
ellipse-curve $-1 -14.949999999999985 33.5 -4.0245584642661925e-016 -1 0 0 0 -0.375 4.4837858469495839e-016 1 I I #
point $-1 -14.949999999999985 33.125 -4.5922738268339135e-017 #
face $-1 $72 $73 $3 $-1 $74 forward single #
loop $-1 $-1 $75 $45 #
cone-surface $-1 -15 33.5 0 1 0 0 0 0 -0.5 1 I I 0 1 0.5 forward I I I I #
loop $-1 $-1 $76 $32 #
coedge $-1 $66 $66 $63 $77 forward $46 $-1 #
coedge $-1 $51 $48 $62 $77 reversed $33 $-1 #
coedge $-1 $50 $49 $48 $65 reversed $20 $-1 #
edge $-1 $40 1.4210854715202004e-014 $78 1.4499999999999993 $64 $79 forward 7 unknown #
coedge $-1 $62 $62 $49 $67 reversed $46 $-1 #
edge $-1 $68 0 $78 3.1415926535897909 $49 $80 forward 7 unknown #
vertex $-1 $67 $81 #
straight-curve $-1 -14.949999999999999 33.875 0 1 0 0 I I #
ellipse-curve $-1 -14.949999999999985 33.5 3.8857805861880479e-016 -1 0 0 0 0.375 -3.8857805861880479e-016 1 I I #
point $-1 -14.949999999999985 33.875 0 #
face $-1 $82 $83 $3 $-1 $84 reversed single #
loop $-1 $-1 $85 $58 #
cone-surface $-1 -15 33.5 0 1 0 0 0 0 -0.5 1 I I 0 1 0.5 forward I I I I #
coedge $-1 $86 $87 $88 $89 forward $59 $-1 #
coedge $-1 $90 $90 $87 $91 reversed $61 $-1 #
edge $-1 $68 0 $78 3.1415926535897909 $62 $92 forward 7 unknown #
vertex $-1 $65 $93 #
straight-curve $-1 -14.949999999999999 33.125 4.5922738268339147e-017 1 0 0 I I #
ellipse-curve $-1 -13.5 33.5 4.7184478546569153e-016 -1 0 0 0 0.375 -4.7184478546569153e-016 1 I I #
point $-1 -13.5 33.875 0 #
face $-1 $94 $95 $3 $-1 $96 forward single #
loop $-1 $97 $98 $72 #
plane-surface $-1 13.5 33.5 0 -1 0 0 0 1 0 forward_v I I I I #
coedge $-1 $99 $100 $101 $102 forward $73 $-1 #
coedge $-1 $101 $75 $103 $104 reversed $59 $-1 #
coedge $-1 $75 $101 $76 $91 forward $59 $-1 #
coedge $-1 $100 $99 $75 $89 reversed $73 $-1 #
edge $-1 $105 0 $106 27 $88 $107 forward 7 unknown #
coedge $-1 $76 $76 $100 $108 reversed $61 $-1 #
edge $-1 $109 0 $105 3.1415926535897922 $87 $110 forward 7 unknown #
ellipse-curve $-1 -13.5 33.5 -4.7184478546569153e-016 1 0 0 0 0.375 4.7184478546569153e-016 1 I I #
point $-1 -13.5 33.125 0 #
face $-1 $111 $112 $3 $-1 $113 forward single #
loop $-1 $-1 $114 $82 #
cone-surface $-1 15.074999999999999 33.5 0 -1 0 0 0 0.375 0 1 I I 0 1 0.375 forward I I I I #
loop $-1 $-1 $103 $72 #
coedge $-1 $115 $115 $116 $117 forward $83 $-1 #
coedge $-1 $88 $85 $118 $119 reversed $73 $-1 #
coedge $-1 $85 $88 $90 $108 forward $73 $-1 #
coedge $-1 $87 $86 $85 $102 reversed $59 $-1 #
edge $-1 $109 -1.258876083440615e-034 $120 27 $85 $121 forward 7 unknown #
coedge $-1 $118 $118 $86 $104 forward $97 $-1 #
edge $-1 $120 0 $106 3.1415926535897922 $86 $122 forward 7 unknown #
vertex $-1 $108 $123 #
vertex $-1 $89 $124 #
straight-curve $-1 -13.5 33 9.1845476536678294e-017 1 0 0 I I #
edge $-1 $105 0 $109 3.1415926535897922 $100 $125 forward 7 unknown #
vertex $-1 $108 $126 #
ellipse-curve $-1 -13.5 33.5 -2.0816681711721685e-016 1 0 0 0 0.5 2.0816681711721685e-016 1 I I #
face $-1 $127 $128 $3 $-1 $129 forward single #
loop $-1 $-1 $130 $94 #
cone-surface $-1 15.074999999999999 33.5 0 -1 0 0 0 0.375 0 1 I I 0 1 0.375 forward I I I I #
coedge $-1 $116 $131 $132 $133 reversed $95 $-1 #
coedge $-1 $98 $98 $134 $135 reversed $83 $-1 #
coedge $-1 $136 $114 $98 $117 reversed $95 $-1 #
edge $-1 $137 0 $138 3.1415926535897909 $98 $139 forward 7 unknown #
coedge $-1 $103 $103 $99 $119 forward $97 $-1 #
edge $-1 $106 0 $120 3.1415926535897922 $99 $140 forward 7 unknown #
vertex $-1 $119 $141 #
straight-curve $-1 -13.5 34 -3.0615158845559431e-017 1 0 -4.1119371282413203e-018 I I #
ellipse-curve $-1 13.5 33.5 -2.0816681711721685e-016 1 0 0 0 0.5 2.0816681711721685e-016 1 I I #
point $-1 -13.5 33 0 #
point $-1 13.5 33 0 #
ellipse-curve $-1 -13.5 33.5 2.0816681711721685e-016 1 0 0 0 -0.5 -2.0816681711721685e-016 1 I I #
point $-1 -13.5 34 0 #
face $-1 $142 $143 $3 $-1 $144 forward single #
loop $-1 $-1 $145 $111 #
cone-surface $-1 14.324999999999999 33.5 0 1 0 0 0 0.99999999999996436 0 1 I I -0.70710678118653492 0.70710678118656012 0.99999999999996436 forward I I I I #
coedge $-1 $134 $146 $136 $147 reversed $112 $-1 #
coedge $-1 $114 $136 $148 $149 forward $95 $-1 #
coedge $-1 $146 $134 $114 $133 forward $112 $-1 #
edge $-1 $138 0 $150 1.4499999999999851 $114 $151 forward 7 unknown #
coedge $-1 $132 $130 $115 $135 forward $112 $-1 #
edge $-1 $137 0 $138 3.1415926535897909 $115 $152 forward 7 unknown #
coedge $-1 $131 $116 $130 $147 forward $95 $-1 #
vertex $-1 $135 $153 #
vertex $-1 $135 $154 #
ellipse-curve $-1 13.5 33.5 4.4408920985006262e-016 -1 0 0 0 0.375 -4.4408920985006262e-016 1 I I #
ellipse-curve $-1 13.5 33.5 2.0816681711721685e-016 1 0 0 0 -0.5 -2.0816681711721685e-016 1 I I #
point $-1 13.5 34 0 #
face $-1 $-1 $155 $3 $-1 $156 forward single #
loop $-1 $-1 $157 $127 #
cone-surface $-1 14.324999999999999 33.5 0 1 0 0 0 0.99999999999996436 0 1 I I -0.70710678118653492 0.70710678118656012 0.99999999999996436 forward I I I I #
coedge $-1 $158 $159 $160 $161 forward $128 $-1 #
coedge $-1 $130 $132 $158 $162 forward $112 $-1 #
edge $-1 $137 0 $163 1.4499999999999851 $136 $164 forward 7 unknown #
coedge $-1 $160 $157 $131 $149 reversed $143 $-1 #
edge $-1 $163 0 $150 3.1415926535897913 $131 $165 forward 7 unknown #
vertex $-1 $149 $166 #
straight-curve $-1 13.5 33.125 4.5922738268339147e-017 1 0 0 I I #
ellipse-curve $-1 13.5 33.5 -4.4408920985006262e-016 1 0 0 0 0.375 4.4408920985006262e-016 1 I I #
point $-1 13.5 33.875 0 #
point $-1 13.5 33.125 4.5922738268339147e-017 #
loop $-1 $-1 $167 $142 #
plane-surface $-1 15 0 0 1 0 0 0 0 -1 forward_v I I I I #
coedge $-1 $148 $168 $169 $170 forward $143 $-1 #
coedge $-1 $169 $145 $146 $162 reversed $128 $-1 #
coedge $-1 $145 $169 $167 $171 forward $128 $-1 #
coedge $-1 $168 $148 $145 $161 reversed $143 $-1 #
edge $-1 $172 0 $163 0.070710678118653267 $145 $173 forward 7 unknown #
edge $-1 $150 -2.4492127076447545e-016 $163 3.1415926535897918 $146 $174 forward 7 unknown #
vertex $-1 $149 $175 #
straight-curve $-1 13.5 33.875 0 1 0 0 I I #
ellipse-curve $-1 14.949999999999985 33.5 2.9143354396410359e-016 -1 0 0 0 0.375 -2.9143354396410359e-016 1 I I #
point $-1 14.949999999999985 33.125 -4.5922738268339147e-017 #
coedge $-1 $176 $176 $159 $171 reversed $155 $-1 #
coedge $-1 $157 $160 $176 $177 forward $143 $-1 #
coedge $-1 $159 $158 $157 $170 reversed $128 $-1 #
edge $-1 $178 0 $150 0.070710678118653267 $169 $179 forward 7 unknown #
edge $-1 $178 -2.4492127076447555e-016 $172 3.1415926535897918 $167 $180 forward 7 unknown #
vertex $-1 $177 $181 #
straight-curve $-1 14.999999999999986 33.825000000000003 0 -0.70710678118657255 0.70710678118652237 0 I I #
ellipse-curve $-1 14.949999999999985 33.5 -2.6367796834847468e-016 -1 0 0 0 -0.375 3.0960070661681383e-016 1 I I #
point $-1 14.949999999999985 33.875 0 #
coedge $-1 $167 $167 $168 $177 reversed $155 $-1 #
edge $-1 $172 1.8853158711626326e-058 $178 3.1415926535897918 $176 $182 forward 7 unknown #
vertex $-1 $177 $183 #
straight-curve $-1 14.999999999999986 33.174999999999997 -3.9799706499227604e-017 -0.70710678118657255 -0.70710678118652237 -8.6592745707190547e-017 I I #
ellipse-curve $-1 15 33.5 -2.2204460492503131e-016 -1 4.3725706816005783e-014 -3.522870028546449e-029 -1.4210854715202004e-014 -0.32500000000000284 2.6184431142425892e-016 1 I I #
point $-1 14.999999999999986 33.825000000000003 0 #
ellipse-curve $-1 15 33.5 2.0816681711721685e-016 -1 -4.3725706816005783e-014 2.8006896043349044e-029 -1.4210854715202004e-014 0.32500000000000284 -2.0816681711721685e-016 1 I I #
point $-1 14.999999999999986 33.174999999999997 -3.9799706499227604e-017 #
End-of-ACIS-data 