600 0 1 0           
89 GICL ACIS Healer - Source: /gicl/data5/repository/PTC/V18/lrgasm18/start_button.sat - 6 0 18 ACIS 6.0.3 Solaris 24 Sat Apr 13 21:59:33 2002 
1 9.999999999999999547e-07 1.000000000000000036e-10 
body $-1 $1 $-1 $-1 #
lump $-1 $-1 $2 $0 #
shell $-1 $-1 $-1 $3 $-1 $1 #
face $-1 $4 $5 $2 $-1 $6 forward single #
face $-1 $7 $8 $2 $-1 $9 forward single #
loop $-1 $-1 $10 $3 #
plane-surface $-1 0 0 0 0 -1 0 -25.39999999999999858 0 0 forward_v I I I I #
face $-1 $11 $12 $2 $-1 $9 forward single #
loop $-1 $-1 $13 $4 #
cone-surface $-1 0 9.334500000000003794 0 0 -1 0 -24.12999999999999545 0 0 1 I I 0 1 24.12999999999999901 forward I I I I #
coedge $-1 $14 $14 $13 $15 reversed $5 $-1 #
face $-1 $16 $17 $2 $-1 $18 forward single #
loop $-1 $-1 $19 $7 #
coedge $-1 $20 $21 $10 $15 forward $8 $-1 #
coedge $-1 $10 $10 $22 $23 forward $5 $-1 #
edge $-1 $24 -3.141592653589793116 $25 -0 $10 $26 reversed 7 unknown #
face $-1 $27 $28 $2 $-1 $18 forward single #
loop $-1 $-1 $29 $11 #
torus-surface $-1 0 7.228435779364176028 0 0 -1 0 22.85999999999999588 1.269999999999999796 -1 0 0 forward_v I I I I #
coedge $-1 $30 $31 $32 $33 forward $12 $-1 #
coedge $-1 $34 $13 $30 $35 forward $8 $-1 #
coedge $-1 $13 $34 $31 $36 reversed $8 $-1 #
coedge $-1 $31 $30 $14 $23 reversed $12 $-1 #
edge $-1 $24 -3.141592653589793116 $25 0 $14 $37 forward 7 unknown #
vertex $-1 $23 $38 #
vertex $-1 $23 $39 #
ellipse-curve $-1 0 0 0 0 -1 0 -24.12999999999999545 0 0 1 I I #
face $-1 $40 $41 $2 $-1 $42 reversed single #
loop $-1 $-1 $43 $16 #
coedge $-1 $32 $44 $45 $46 forward $17 $-1 #
coedge $-1 $22 $19 $20 $35 reversed $12 $-1 #
coedge $-1 $19 $22 $21 $36 forward $12 $-1 #
coedge $-1 $47 $29 $19 $33 reversed $17 $-1 #
edge $-1 $48 -3.141592653589793116 $49 2.449212707644754023e-16 $19 $50 forward 7 unknown #
coedge $-1 $21 $20 $51 $52 reversed $8 $-1 #
edge $-1 $25 0 $49 0.2845840858017396058 $30 $53 forward 7 unknown #
edge $-1 $24 0 $48 0.2845840858017396058 $31 $54 forward 7 unknown #
ellipse-curve $-1 0 0 0 0 -1 0 -24.12999999999999545 0 0 1 I I #
point $-1 24.12999999999999901 1.409983241273948727e-15 2.954975131773395835e-15 #
point $-1 -24.12999999999999901 1.409983241273948727e-15 0 #
face $-1 $-1 $55 $2 $-1 $42 reversed single #
loop $-1 $-1 $56 $27 #
sphere-surface $-1 0 94.45256833452347678 0 88.89999999999999147 1 0 0 0 0 1 forward_v I I I I #
coedge $-1 $51 $57 $47 $58 forward $28 $-1 #
coedge $-1 $29 $47 $59 $60 forward $17 $-1 #
coedge $-1 $57 $51 $29 $46 reversed $28 $-1 #
edge $-1 $61 1.204594390907074783e-15 $49 1.82711490298143131 $45 $62 forward 7 unknown #
coedge $-1 $44 $32 $43 $58 reversed $17 $-1 #
vertex $-1 $36 $63 #
vertex $-1 $35 $64 #
ellipse-curve $-1 0 7.228435779364176028 0 0 -1 0 -24.12999999999999545 0 0 1 I I #
coedge $-1 $45 $43 $34 $52 forward $28 $-1 #
edge $-1 $48 -3.141592653589793116 $49 -2.449212707644754023e-16 $34 $65 reversed 7 unknown #
straight-curve $-1 -24.12999999999999901 1.409983241273948727e-15 -5.90995026354679167e-15 0 25.39999999999999858 0 I I #
straight-curve $-1 24.12999999999999901 1.409983241273948727e-15 2.954975131773395835e-15 0 25.39999999999999858 0 I I #
loop $-1 $-1 $66 $40 #
coedge $-1 $67 $68 $57 $69 forward $41 $-1 #
coedge $-1 $43 $45 $56 $69 reversed $28 $-1 #
edge $-1 $70 -1.707082336828298602e-14 $48 1.82711490298143131 $43 $71 forward 7 unknown #
coedge $-1 $72 $66 $44 $60 reversed $55 $-1 #
edge $-1 $70 1.57079632679489678 $61 4.712388980384689674 $59 $73 forward 7 unknown #
vertex $-1 $60 $74 #
ellipse-curve $-1 -22.85999999999999588 7.228435779364174252 0 0 0 1 0.3219718309859460614 1.22850890922758893 0 1 I I #
point $-1 24.12999999999999901 7.228435779364186686 2.954975131773395835e-15 #
point $-1 -24.12999999999999901 7.228435779364186686 -5.90995026354679167e-15 #
ellipse-curve $-1 0 7.228435779364176028 0 0 -1 0 -24.12999999999999545 0 0 1 I I #
coedge $-1 $59 $72 $67 $75 reversed $55 $-1 #
coedge $-1 $68 $56 $66 $75 forward $41 $-1 #
coedge $-1 $56 $67 $72 $76 reversed $41 $-1 #
edge $-1 $70 -1.57079632679489678 $61 1.570796326794896336 $56 $77 reversed 7 unknown #
vertex $-1 $76 $78 #
ellipse-curve $-1 22.85999999999999588 7.228435779364174252 2.799450124837953513e-15 1.224606353822378984e-16 7.800016274768288564e-31 -1 -0.3219718309859460614 1.22850890922758893 -3.942887499772051213e-17 1 I I #
coedge $-1 $66 $59 $68 $76 forward $55 $-1 #
ellipse-curve $-1 0 8.456944688591772064 0 0 -1 0 0 0 -22.53802816901407979 1 I I #
point $-1 -22.53802816901405137 8.456944688591763182 -5.520042499680466371e-15 #
edge $-1 $61 -2.30158303214245448e-16 $79 0.2563185761865188761 $66 $80 forward 7 unknown #
edge $-1 $70 2.8769787901780681e-17 $79 0.2563185761865191536 $72 $81 forward 7 unknown #
ellipse-curve $-1 0 8.456944688591772064 0 0 -1 0 0 0 -22.53802816901407979 1 I I #
point $-1 22.5380281690140265 8.456944688591766734 2.76002124984023003e-15 #
vertex $-1 $76 $82 #
ellipse-curve $-1 0 94.45256833452347678 0 -2.449212707644754023e-16 -1.609920214736758932e-32 1 -22.5380281690140265 -85.99562364593170116 -5.520042499680460061e-15 1 I I #
ellipse-curve $-1 0 94.45256833452347678 0 1.224606353822377012e-16 -8.049601073683794659e-33 -1 22.5380281690140265 -85.99562364593170116 2.76002124984023003e-15 1 I I #
point $-1 -1.633012572822139884e-14 5.552568334523479976 -1.999797572549819995e-30 #
End-of-ACIS-data 