600 0 1 0           
96 GICL Pro/E ACIS Translator - Source: f:/data5/repository/PTC/V18/lrgasm18/start_button.prt - 6 0 13 ACIS 6.0.3 NT 24 Thu Apr 04 10:00:35 2002 
1 9.9999999999999995e-007 1e-010 
body $-1 $1 $-1 $2 #
lump $-1 $-1 $3 $0 #
transform $-1 1 0 0 0 1 0 0 0 1 0 0 0 25.399999999999999 no_rotate no_reflect no_shear #
shell $-1 $-1 $-1 $4 $-1 $1 #
face $-1 $5 $6 $3 $-1 $7 forward single #
face $-1 $8 $9 $3 $-1 $10 forward single #
loop $-1 $-1 $11 $4 #
plane-surface $-1 0 0 0 0 -1 0 -1 0 0 forward_v I I I I #
face $-1 $12 $13 $3 $-1 $14 forward single #
loop $-1 $-1 $15 $5 #
cone-surface $-1 0 0.36750000000000016 0 0 -1 0 -0.94999999999999996 0 0 1 I I 0 1 0.94999999999999996 forward I I I I #
coedge $-1 $16 $16 $15 $17 reversed $6 $-1 #
face $-1 $18 $19 $3 $-1 $20 forward single #
loop $-1 $-1 $21 $8 #
cone-surface $-1 0 0.36750000000000016 0 0 -1 0 -0.94999999999999996 0 0 1 I I 0 1 0.94999999999999996 forward I I I I #
coedge $-1 $22 $23 $11 $17 forward $9 $-1 #
coedge $-1 $11 $11 $24 $25 forward $6 $-1 #
edge $-1 $26 0 $27 3.1415926535897931 $11 $28 forward 7 unknown #
face $-1 $29 $30 $3 $-1 $31 forward single #
loop $-1 $-1 $32 $12 #
torus-surface $-1 0 0.28458408580173922 0 0 -1 0 0.89999999999999991 0.049999999999999996 -1 0 0 forward_v I I I I #
coedge $-1 $33 $34 $35 $36 forward $13 $-1 #
coedge $-1 $37 $15 $33 $38 forward $9 $-1 #
coedge $-1 $15 $37 $34 $39 reversed $9 $-1 #
coedge $-1 $34 $33 $16 $25 reversed $13 $-1 #
edge $-1 $26 0 $27 3.1415926535897931 $16 $40 forward 7 unknown #
vertex $-1 $25 $41 #
vertex $-1 $25 $42 #
ellipse-curve $-1 -5.5511151231257827e-017 0 2.7755575615628914e-017 -5.8432790769745078e-017 1 -5.4485211662499345e-033 0.94999999999999996 5.5511151231257827e-017 8.8582027997496911e-017 1 I I #
face $-1 $43 $44 $3 $-1 $45 reversed single #
loop $-1 $-1 $46 $18 #
torus-surface $-1 0 0.28458408580173922 0 0 -1 0 0.89999999999999991 0.049999999999999996 -1 0 0 forward_v I I I I #
coedge $-1 $35 $47 $48 $49 forward $19 $-1 #
coedge $-1 $24 $21 $22 $38 reversed $13 $-1 #
coedge $-1 $21 $24 $23 $39 forward $13 $-1 #
coedge $-1 $50 $32 $21 $36 reversed $19 $-1 #
edge $-1 $51 0 $52 3.1415926535897931 $21 $53 forward 7 unknown #
coedge $-1 $23 $22 $54 $55 reversed $9 $-1 #
edge $-1 $27 0 $52 0.28458408580173961 $33 $56 forward 7 unknown #
edge $-1 $26 0 $51 0.28458408580173961 $34 $57 forward 7 unknown #
ellipse-curve $-1 5.5511151231257827e-017 0 -2.7755575615628914e-017 5.8432790769745078e-017 -1 8.8629122033907407e-033 0.94999999999999996 5.5511151231257827e-017 1.4409317922875474e-016 1 I I #
point $-1 0.94999999999999996 5.5511151231257827e-017 1.1633760361312582e-016 #
point $-1 -0.94999999999999996 5.5511151231257827e-017 0 #
face $-1 $-1 $58 $3 $-1 $59 reversed single #
loop $-1 $-1 $60 $29 #
sphere-surface $-1 0 3.7186050525402945 0 3.5 1 0 0 0 0 1 forward_v I I I I #
coedge $-1 $54 $61 $50 $62 forward $30 $-1 #
coedge $-1 $32 $50 $63 $64 forward $19 $-1 #
coedge $-1 $61 $54 $32 $49 reversed $30 $-1 #
edge $-1 $65 0 $52 1.8271149029814309 $48 $66 forward 7 unknown #
coedge $-1 $47 $35 $46 $62 reversed $19 $-1 #
vertex $-1 $39 $67 #
vertex $-1 $38 $68 #
ellipse-curve $-1 0 0.28458408580173966 0 0 -1 0 0.94999999999999996 0 1.1633760361312582e-016 1 I I #
coedge $-1 $48 $46 $37 $55 forward $30 $-1 #
edge $-1 $51 0 $52 3.1415926535897931 $37 $69 forward 7 unknown #
straight-curve $-1 -0.94999999999999996 5.5511151231257827e-017 -2.3267520722625165e-016 0 1 0 I I #
straight-curve $-1 0.94999999999999996 5.5511151231257827e-017 1.1633760361312582e-016 0 1 0 I I #
loop $-1 $-1 $70 $43 #
sphere-surface $-1 0 3.7186050525402945 0 3.5 1 0 0 0 0 1 forward_v I I I I #
coedge $-1 $71 $72 $61 $73 forward $44 $-1 #
coedge $-1 $46 $48 $60 $73 reversed $30 $-1 #
edge $-1 $74 -1.6349768761081249e-014 $51 1.8271149029814309 $46 $75 forward 7 unknown #
coedge $-1 $76 $70 $47 $64 reversed $58 $-1 #
edge $-1 $74 -1.5655107643688336e-032 $65 3.1415926535897931 $63 $77 forward 7 unknown #
vertex $-1 $64 $78 #
ellipse-curve $-1 -0.89999999999999991 0.28458408580173916 0 0 0 1 0.012676056338029373 0.048366492489275159 0 1 I I #
point $-1 0.94999999999999996 0.28458408580173966 1.1633760361312582e-016 #
point $-1 -0.94999999999999996 0.28458408580173966 -2.3267520722625165e-016 #
ellipse-curve $-1 0 0.28458408580173966 0 0 1 0 0.94999999999999996 0 1.1633760361312582e-016 1 I I #
coedge $-1 $63 $76 $71 $79 reversed $58 $-1 #
coedge $-1 $72 $60 $70 $79 forward $44 $-1 #
coedge $-1 $60 $71 $76 $80 reversed $44 $-1 #
edge $-1 $74 1.5655107643688336e-032 $65 3.1415926535897931 $60 $81 forward 7 unknown #
vertex $-1 $80 $82 #
ellipse-curve $-1 0.89999999999999991 0.28458408580173916 1.1021457184401392e-016 1.224606353822379e-016 7.8000162747682886e-031 -1 -0.012676056338029373 0.048366492489275159 -1.5523179132960833e-018 1 I I #
coedge $-1 $70 $63 $72 $80 forward $58 $-1 #
ellipse-curve $-1 0 0.33295057829101432 0 0 -1 0 0.88732394366197054 0 1.0866225393071784e-016 1 I I #
point $-1 -0.88732394366197054 0.33295057829101432 -2.1732450786143568e-016 #
edge $-1 $65 -2.1751308237554087e-016 $83 0.25631857618651882 $70 $84 forward 7 unknown #
edge $-1 $74 0 $83 0.25631857618651921 $76 $85 forward 7 unknown #
ellipse-curve $-1 0 0.33295057829101432 0 0 1 0 0.88732394366197054 0 1.0866225393071784e-016 1 I I #
point $-1 0.88732394366196965 0.33295057829101449 1.0866225393071772e-016 #
vertex $-1 $80 $86 #
ellipse-curve $-1 0 3.7186050525402945 0 -2.449212707644754e-016 -1.6099202147367589e-032 1 -0.88732394366196965 -3.38565447424928 -2.1732450786143543e-016 1 I I #
ellipse-curve $-1 0 3.7186050525402945 0 1.224606353822377e-016 -8.0496010736837947e-033 -1 0.88732394366196965 -3.38565447424928 1.0866225393071772e-016 1 I I #
point $-1 -6.4291833575674806e-016 0.2186050525402945 -7.8732187895662216e-032 #
End-of-ACIS-data 