700 0 2 0           
24 FBMach with ACIS - 7.0.3 13 ACIS 7.0.3 NT 24 Wed May 15 17:27:57 2002 
1 9.9999999999999995e-007 1e-010 
body $2 -1 $-1 $3 $-1 $4 #
bdycol-kcp $-1 -1 1 2 $5 $6 #
model_id-kcp-attrib $-1 -1 $-1 $-1 $0 1 1021498076 1021498077 -548339711 1 #
lump $-1 -1 $-1 $-1 $7 $0 #
transform $-1 -1 1 0 0 0 1 0 0 0 1 0 0 0 1 rotate no_reflect no_shear #
body $8 -1 $-1 $9 $-1 $10 #
body $11 -1 $-1 $12 $-1 $13 #
shell $-1 -1 $-1 $-1 $-1 $14 $-1 $3 #
model_id-kcp-attrib $-1 -1 $-1 $-1 $5 1 1021498076 1021498077 -548339710 1 #
lump $-1 -1 $-1 $-1 $15 $5 #
transform $-1 -1 1 0 0 0 1 0 0 0 1 0 91.676284167261741 0 1 no_rotate no_reflect no_shear #
rgb_color-st-attrib $-1 -1 $16 $-1 $6 0.5 1 1 #
lump $-1 -1 $-1 $-1 $17 $6 #
transform $-1 -1 1 0 0 0 1 0 0 0 1 0 91.676284167261741 0 1 no_rotate no_reflect no_shear #
face $18 -1 $-1 $19 $20 $7 $-1 $21 forward single #
shell $-1 -1 $-1 $-1 $-1 $22 $-1 $9 #
model_id-kcp-attrib $-1 -1 $-1 $11 $6 1 1021498076 1021498077 -546373629 1 #
shell $-1 -1 $-1 $-1 $-1 $23 $-1 $12 #
model_id-kcp-attrib $-1 -1 $-1 $-1 $14 1 1021498076 1021498077 -548339711 2 #
face $24 -1 $-1 $25 $26 $7 $-1 $27 forward single #
loop $-1 -1 $-1 $-1 $28 $14 #
plane-surface $-1 -1 $-1 0 0 0 0 -1 0 -25.399999999999999 0 0 forward_v I I I I #
face $-1 -1 $-1 $29 $30 $15 $-1 $31 forward single #
face $-1 -1 $-1 $32 $33 $17 $-1 $34 reversed single #
model_id-kcp-attrib $-1 -1 $-1 $-1 $19 1 1021498076 1021498077 -548339711 3 #
face $35 -1 $-1 $36 $37 $7 $-1 $27 forward single #
loop $-1 -1 $-1 $-1 $38 $19 #
cone-surface $-1 -1 $-1 0 9.3345000000000038 0 0 -1 0 -24.129999999999995 0 0 1 I I 0 1 24.129999999999999 forward I I I I #
coedge $-1 -1 $-1 $39 $39 $38 $40 reversed $20 $-1 #
face $-1 -1 $-1 $41 $42 $15 $-1 $43 reversed single #
loop $-1 -1 $-1 $-1 $44 $22 #
plane-surface $-1 -1 $-1 0 0 88.899999999999991 0 0 1 1 0 0 forward_v I I I I #
face $-1 -1 $-1 $45 $46 $17 $-1 $47 forward single #
loop $-1 -1 $-1 $48 $49 $23 #
cone-surface $-1 -1 $-1 -2.7140109913176108e-031 -91.676284167261741 0 0 -1 0 24.129999999999995 0 -2.9549751317733958e-015 1 I I 0 1 24.129999999999995 forward I I I I #
model_id-kcp-attrib $-1 -1 $-1 $-1 $25 1 1021498076 1021498077 -548339711 4 #
face $50 -1 $-1 $51 $52 $7 $-1 $53 forward single #
loop $-1 -1 $-1 $-1 $54 $25 #
coedge $-1 -1 $-1 $55 $56 $28 $40 forward $26 $-1 #
coedge $-1 -1 $-1 $28 $28 $57 $58 forward $20 $-1 #
edge $59 -1 $-1 $60 -3.1415926535897931 $61 0 $28 $62 reversed @7 unknown #
face $63 -1 $-1 $64 $65 $15 $-1 $66 reversed single #
loop $-1 -1 $-1 $-1 $67 $29 #
plane-surface $-1 -1 $-1 0 0 -88.899999999999991 0 0 1 1 0 0 forward_v I I I I #
coedge $-1 -1 $-1 $68 $69 $70 $71 forward $30 $-1 #
face $-1 -1 $-1 $72 $73 $17 $-1 $74 reversed single #
loop $-1 -1 $-1 $-1 $75 $32 #
plane-surface $-1 -1 $-1 0 0 88.899999999999991 0 0 1 1 0 0 forward_v I I I I #
loop $-1 -1 $-1 $-1 $76 $23 #
coedge $-1 -1 $-1 $49 $49 $77 $78 reversed $33 $-1 #
model_id-kcp-attrib $-1 -1 $-1 $-1 $36 1 1021498076 1021498077 -548339711 5 #
face $79 -1 $-1 $80 $81 $7 $-1 $53 forward single #
loop $-1 -1 $-1 $-1 $82 $36 #
torus-surface $-1 -1 $-1 0 7.228435779364176 0 0 -1 0 22.859999999999996 1.2699999999999998 -1 0 0 forward_v I I I I #
coedge $-1 -1 $-1 $83 $84 $85 $86 forward $37 $-1 #
coedge $-1 -1 $-1 $87 $38 $83 $88 forward $26 $-1 #
coedge $-1 -1 $-1 $38 $87 $84 $89 reversed $26 $-1 #
coedge $-1 -1 $-1 $84 $83 $39 $58 reversed $37 $-1 #
edge $90 -1 $-1 $60 -3.1415926535897931 $61 0 $39 $91 forward @7 unknown #
attrib_edge_convexity-kcp-attrib $-1 -1 $92 $-1 $40 1 #
vertex $-1 -1 $-1 $58 $93 #
vertex $-1 -1 $-1 $58 $94 #
ellipse-curve $-1 -1 $-1 0 0 0 0 -1 0 -24.129999999999995 0 0 1 I I #
model_id-kcp-attrib $-1 -1 $-1 $-1 $41 1 1021498076 1021498077 -548339710 2 #
face $-1 -1 $-1 $95 $96 $15 $-1 $97 reversed single #
loop $-1 -1 $-1 $-1 $98 $41 #
plane-surface $-1 -1 $-1 0 -91.676284167261741 0 0 1 0 0 0 1 forward_v I I I I #
coedge $-1 -1 $-1 $99 $100 $101 $102 forward $42 $-1 #
coedge $-1 -1 $-1 $103 $44 $104 $105 forward $30 $-1 #
coedge $-1 -1 $-1 $44 $103 $106 $107 forward $30 $-1 #
coedge $-1 -1 $-1 $108 $109 $44 $71 reversed $110 $-1 #
edge $-1 -1 $-1 $111 -91.676284167261741 $112 91.676284167261741 $70 $113 forward @7 unknown #
face $-1 -1 $-1 $114 $115 $17 $-1 $116 reversed single #
loop $-1 -1 $-1 $-1 $117 $45 #
plane-surface $-1 -1 $-1 0 0 -88.899999999999991 0 0 1 1 0 0 forward_v I I I I #
coedge $-1 -1 $-1 $118 $119 $120 $121 forward $46 $-1 #
coedge $-1 -1 $-1 $76 $76 $122 $123 reversed $48 $-1 #
coedge $-1 -1 $-1 $77 $77 $49 $78 forward $115 $-1 #
edge $-1 -1 $-1 $124 -3.1415926535897931 $124 3.1415926535897931 $77 $125 forward @7 unknown #
model_id-kcp-attrib $-1 -1 $-1 $-1 $51 1 1021498076 1021498077 -548339711 6 #
face $126 -1 $-1 $127 $128 $7 $-1 $129 reversed single #
loop $-1 -1 $-1 $-1 $130 $51 #
coedge $-1 -1 $-1 $85 $131 $132 $133 forward $52 $-1 #
coedge $-1 -1 $-1 $57 $54 $55 $88 reversed $37 $-1 #
coedge $-1 -1 $-1 $54 $57 $56 $89 forward $37 $-1 #
coedge $-1 -1 $-1 $134 $82 $54 $86 reversed $52 $-1 #
edge $-1 -1 $-1 $135 -3.1415926535897931 $136 2.449212707644754e-016 $54 $137 forward @7 unknown #
coedge $-1 -1 $-1 $56 $55 $138 $139 reversed $26 $-1 #
edge $-1 -1 $-1 $61 0 $136 0.28458408580173961 $83 $140 forward @7 unknown #
edge $-1 -1 $-1 $60 0 $135 0.28458408580173961 $84 $141 forward @7 unknown #
attrib_edge_convexity-kcp-attrib $-1 -1 $142 $-1 $58 1 #
ellipse-curve $-1 -1 $-1 0 0 0 0 -1 0 -24.129999999999995 0 0 1 I I #
convexity-sys-attrib $-1 -1 $-1 $59 $40 #
point $-1 -1 $-1 24.129999999999999 1.4099832412739487e-015 2.9549751317733958e-015 #
point $-1 -1 $-1 -24.129999999999999 1.4099832412739487e-015 0 #
face $-1 -1 $-1 $143 $144 $15 $-1 $145 reversed single #
loop $-1 -1 $-1 $-1 $146 $64 #
plane-surface $-1 -1 $-1 -88.899999999999991 0 0 1 0 0 0 0 -1 forward_v I I I I #
coedge $-1 -1 $-1 $147 $106 $148 $149 forward $65 $-1 #
coedge $-1 -1 $-1 $150 $67 $147 $151 forward $42 $-1 #
coedge $-1 -1 $-1 $67 $150 $152 $153 forward $42 $-1 #
coedge $-1 -1 $-1 $109 $108 $67 $102 reversed $110 $-1 #
edge $-1 -1 $-1 $154 -91.676284167261741 $155 91.676284167261741 $101 $156 forward @7 unknown #
coedge $-1 -1 $-1 $69 $68 $157 $158 forward $30 $-1 #
coedge $-1 -1 $-1 $159 $160 $68 $105 reversed $144 $-1 #
edge $-1 -1 $-1 $112 -88.899999999999991 $161 88.899999999999991 $104 $162 forward @7 unknown #
coedge $-1 -1 $-1 $98 $163 $69 $107 reversed $65 $-1 #
edge $-1 -1 $-1 $164 -88.899999999999991 $111 88.899999999999991 $106 $165 forward @7 unknown #
coedge $-1 -1 $-1 $101 $70 $163 $166 forward $110 $-1 #
coedge $-1 -1 $-1 $70 $101 $159 $167 reversed $110 $-1 #
loop $-1 -1 $-1 $-1 $108 $143 #
vertex $-1 -1 $-1 $71 $168 #
vertex $-1 -1 $-1 $71 $169 #
straight-curve $-1 -1 $-1 88.899999999999991 0 88.899999999999991 0 1 0 I I #
face $-1 -1 $-1 $170 $171 $17 $-1 $172 reversed single #
loop $-1 -1 $-1 $173 $77 $72 #
plane-surface $-1 -1 $-1 0 -91.676284167261741 0 0 1 0 0 0 1 forward_v I I I I #
coedge $-1 -1 $-1 $174 $175 $176 $177 forward $73 $-1 #
coedge $-1 -1 $-1 $178 $75 $179 $180 forward $46 $-1 #
coedge $-1 -1 $-1 $75 $178 $181 $182 forward $46 $-1 #
coedge $-1 -1 $-1 $183 $184 $75 $121 reversed $185 $-1 #
edge $-1 -1 $-1 $186 -91.676284167261741 $187 91.676284167261741 $120 $188 forward @7 unknown #
coedge $-1 -1 $-1 $122 $122 $76 $123 forward $189 $-1 #
edge $-1 -1 $-1 $190 -3.1415926535897931 $190 3.1415926535897931 $122 $191 forward @7 unknown #
vertex $-1 -1 $-1 $78 $192 #
ellipse-curve $-1 -1 $-1 -2.7140109913176108e-031 -91.676284167261741 0 0 1 0 24.129999999999995 0 -2.9549751317733958e-015 1 I I #
model_id-kcp-attrib $-1 -1 $-1 $-1 $80 1 1021498076 1021498077 -548339711 7 #
face $193 -1 $-1 $-1 $194 $7 $-1 $129 reversed single #
loop $-1 -1 $-1 $-1 $195 $80 #
sphere-surface $-1 -1 $-1 0 94.452568334523477 0 88.899999999999991 1 0 0 0 0 1 forward_v I I I I #
coedge $-1 -1 $-1 $138 $196 $134 $197 forward $81 $-1 #
coedge $-1 -1 $-1 $82 $134 $198 $199 forward $52 $-1 #
coedge $-1 -1 $-1 $196 $138 $82 $133 reversed $81 $-1 #
edge $-1 -1 $-1 $200 1.2045943909070748e-015 $136 1.8271149029814313 $132 $201 forward @7 unknown #
coedge $-1 -1 $-1 $131 $85 $130 $197 reversed $52 $-1 #
vertex $-1 -1 $-1 $89 $202 #
vertex $-1 -1 $-1 $88 $203 #
ellipse-curve $-1 -1 $-1 0 7.228435779364176 0 0 -1 0 -24.129999999999995 0 0 1 I I #
coedge $-1 -1 $-1 $132 $130 $87 $139 forward $81 $-1 #
edge $-1 -1 $-1 $135 -3.1415926535897931 $136 -2.449212707644754e-016 $87 $204 reversed @7 unknown #
straight-curve $-1 -1 $-1 -24.129999999999999 1.4099832412739487e-015 -5.9099502635467917e-015 0 25.399999999999999 0 I I #
straight-curve $-1 -1 $-1 24.129999999999999 1.4099832412739487e-015 2.9549751317733958e-015 0 25.399999999999999 0 I I #
convexity-sys-attrib $-1 -1 $-1 $90 $58 #
face $-1 -1 $-1 $-1 $110 $15 $-1 $205 reversed single #
loop $-1 -1 $-1 $-1 $159 $95 #
plane-surface $-1 -1 $-1 0 91.676284167261741 0 0 -1 0 0 0 -1 forward_v I I I I #
coedge $-1 -1 $-1 $206 $157 $160 $207 forward $96 $-1 #
coedge $-1 -1 $-1 $163 $98 $99 $151 reversed $65 $-1 #
coedge $-1 -1 $-1 $157 $206 $98 $149 reversed $96 $-1 #
edge $-1 -1 $-1 $164 -88.899999999999991 $208 88.899999999999991 $148 $209 forward @7 unknown #
coedge $-1 -1 $-1 $100 $99 $206 $210 forward $42 $-1 #
edge $-1 -1 $-1 $155 -88.899999999999991 $208 88.899999999999991 $147 $211 forward @7 unknown #
coedge $-1 -1 $-1 $160 $159 $100 $153 reversed $144 $-1 #
edge $-1 -1 $-1 $212 -88.899999999999991 $154 88.899999999999991 $152 $213 forward @7 unknown #
vertex $-1 -1 $-1 $102 $214 #
vertex $-1 -1 $-1 $166 $215 #
straight-curve $-1 -1 $-1 88.899999999999991 0 -88.899999999999991 0 -1 0 I I #
coedge $-1 -1 $-1 $146 $148 $103 $158 reversed $96 $-1 #
edge $-1 -1 $-1 $161 -91.676284167261741 $164 91.676284167261741 $157 $216 forward @7 unknown #
coedge $-1 -1 $-1 $152 $104 $109 $167 forward $144 $-1 #
coedge $-1 -1 $-1 $104 $152 $146 $207 reversed $144 $-1 #
vertex $-1 -1 $-1 $105 $217 #
straight-curve $-1 -1 $-1 0 91.676284167261741 88.899999999999991 -1 0 0 I I #
coedge $-1 -1 $-1 $106 $147 $108 $166 reversed $65 $-1 #
vertex $-1 -1 $-1 $158 $218 #
straight-curve $-1 -1 $-1 0 -91.676284167261741 88.899999999999991 1 0 0 I I #
edge $-1 -1 $-1 $111 -88.899999999999991 $155 88.899999999999991 $108 $219 forward @7 unknown #
edge $-1 -1 $-1 $112 -88.899999999999991 $154 88.899999999999991 $109 $220 forward @7 unknown #
point $-1 -1 $-1 88.899999999999991 -91.676284167261741 88.899999999999991 #
point $-1 -1 $-1 88.899999999999991 91.676284167261741 88.899999999999991 #
face $-1 -1 $-1 $221 $189 $17 $-1 $222 reversed single #
loop $-1 -1 $-1 $-1 $223 $114 #
plane-surface $-1 -1 $-1 -88.899999999999991 0 0 1 0 0 0 0 -1 forward_v I I I I #
loop $-1 -1 $-1 $-1 $224 $72 #
coedge $-1 -1 $-1 $225 $117 $226 $227 forward $73 $-1 #
coedge $-1 -1 $-1 $117 $225 $228 $229 forward $73 $-1 #
coedge $-1 -1 $-1 $184 $183 $117 $177 reversed $185 $-1 #
edge $-1 -1 $-1 $230 -91.676284167261741 $231 91.676284167261741 $176 $232 forward @7 unknown #
coedge $-1 -1 $-1 $119 $118 $233 $234 forward $46 $-1 #
coedge $-1 -1 $-1 $235 $236 $118 $180 reversed $237 $-1 #
edge $-1 -1 $-1 $187 -88.899999999999991 $238 88.899999999999991 $179 $239 forward @7 unknown #
coedge $-1 -1 $-1 $224 $240 $119 $182 reversed $173 $-1 #
edge $-1 -1 $-1 $241 -88.899999999999991 $186 88.899999999999991 $181 $242 forward @7 unknown #
coedge $-1 -1 $-1 $176 $120 $240 $243 forward $185 $-1 #
coedge $-1 -1 $-1 $120 $176 $235 $244 reversed $185 $-1 #
loop $-1 -1 $-1 $-1 $183 $221 #
vertex $-1 -1 $-1 $121 $245 #
vertex $-1 -1 $-1 $121 $246 #
straight-curve $-1 -1 $-1 88.899999999999991 0 88.899999999999991 0 1 0 I I #
loop $-1 -1 $-1 $237 $122 $170 #
vertex $-1 -1 $-1 $123 $247 #
ellipse-curve $-1 -1 $-1 -2.7140109913176108e-031 91.676284167261741 0 0 -1 0 24.129999999999995 0 -2.9549751317733958e-015 1 I I #
point $-1 -1 $-1 -24.129999999999995 -91.676284167261741 5.9099502635467917e-015 #
model_id-kcp-attrib $-1 -1 $-1 $-1 $127 1 1021498076 1021498077 -548339711 8 #
loop $-1 -1 $-1 $-1 $248 $127 #
coedge $-1 -1 $-1 $249 $250 $196 $251 forward $128 $-1 #
coedge $-1 -1 $-1 $130 $132 $195 $251 reversed $81 $-1 #
edge $-1 -1 $-1 $252 -1.7070823368282986e-014 $135 1.8271149029814313 $130 $253 forward @7 unknown #
coedge $-1 -1 $-1 $254 $248 $131 $199 reversed $194 $-1 #
edge $-1 -1 $-1 $252 1.5707963267948968 $200 4.7123889803846897 $198 $255 forward @7 unknown #
vertex $-1 -1 $-1 $199 $256 #
ellipse-curve $-1 -1 $-1 -22.859999999999996 7.2284357793641743 0 0 0 1 0.32197183098594606 1.2285089092275889 0 1 I I #
point $-1 -1 $-1 24.129999999999999 7.2284357793641867 2.9549751317733958e-015 #
point $-1 -1 $-1 -24.129999999999999 7.2284357793641867 -5.9099502635467917e-015 #
ellipse-curve $-1 -1 $-1 0 7.228435779364176 0 0 -1 0 -24.129999999999995 0 0 1 I I #
plane-surface $-1 -1 $-1 88.899999999999991 0 0 -1 0 0 0 0 1 forward_v I I I I #
coedge $-1 -1 $-1 $148 $146 $150 $210 reversed $96 $-1 #
edge $-1 -1 $-1 $161 -88.899999999999991 $212 88.899999999999991 $160 $257 forward @7 unknown #
vertex $-1 -1 $-1 $210 $258 #
straight-curve $-1 -1 $-1 -88.899999999999991 -91.676284167261741 0 0 0 -1 I I #
edge $-1 -1 $-1 $208 -91.676284167261741 $212 91.676284167261741 $206 $259 forward @7 unknown #
straight-curve $-1 -1 $-1 0 -91.676284167261741 -88.899999999999991 -1 0 0 I I #
vertex $-1 -1 $-1 $153 $260 #
straight-curve $-1 -1 $-1 0 91.676284167261741 -88.899999999999991 1 0 0 I I #
point $-1 -1 $-1 88.899999999999991 91.676284167261741 -88.899999999999991 #
point $-1 -1 $-1 88.899999999999991 -91.676284167261741 -88.899999999999991 #
straight-curve $-1 -1 $-1 -88.899999999999991 0 88.899999999999991 0 -1 0 I I #
point $-1 -1 $-1 -88.899999999999991 91.676284167261741 88.899999999999991 #
point $-1 -1 $-1 -88.899999999999991 -91.676284167261741 88.899999999999991 #
straight-curve $-1 -1 $-1 88.899999999999991 -91.676284167261741 0 0 0 -1 I I #
straight-curve $-1 -1 $-1 88.899999999999991 91.676284167261741 0 0 0 -1 I I #
face $-1 -1 $-1 $-1 $185 $17 $-1 $261 reversed single #
plane-surface $-1 -1 $-1 0 91.676284167261741 0 0 -1 0 0 0 -1 forward_v I I I I #
coedge $-1 -1 $-1 $262 $233 $236 $263 forward $171 $-1 #
coedge $-1 -1 $-1 $226 $181 $264 $265 forward $173 $-1 #
coedge $-1 -1 $-1 $175 $174 $262 $266 forward $73 $-1 #
coedge $-1 -1 $-1 $240 $224 $174 $227 reversed $173 $-1 #
edge $-1 -1 $-1 $231 -88.899999999999991 $267 88.899999999999991 $226 $268 forward @7 unknown #
coedge $-1 -1 $-1 $236 $235 $175 $229 reversed $237 $-1 #
edge $-1 -1 $-1 $269 -88.899999999999991 $230 88.899999999999991 $228 $270 forward @7 unknown #
vertex $-1 -1 $-1 $177 $271 #
vertex $-1 -1 $-1 $243 $272 #
straight-curve $-1 -1 $-1 88.899999999999991 0 -88.899999999999991 0 -1 0 I I #
coedge $-1 -1 $-1 $223 $264 $178 $234 reversed $171 $-1 #
edge $-1 -1 $-1 $238 -91.676284167261741 $241 91.676284167261741 $233 $273 forward @7 unknown #
coedge $-1 -1 $-1 $228 $179 $184 $244 forward $237 $-1 #
coedge $-1 -1 $-1 $179 $228 $223 $263 reversed $237 $-1 #
loop $-1 -1 $-1 $-1 $235 $170 #
vertex $-1 -1 $-1 $180 $274 #
straight-curve $-1 -1 $-1 0 91.676284167261741 88.899999999999991 -1 0 0 I I #
coedge $-1 -1 $-1 $181 $226 $183 $243 reversed $173 $-1 #
vertex $-1 -1 $-1 $234 $275 #
straight-curve $-1 -1 $-1 0 -91.676284167261741 88.899999999999991 1 0 0 I I #
edge $-1 -1 $-1 $186 -88.899999999999991 $231 88.899999999999991 $183 $276 forward @7 unknown #
edge $-1 -1 $-1 $187 -88.899999999999991 $230 88.899999999999991 $184 $277 forward @7 unknown #
point $-1 -1 $-1 88.899999999999991 -91.676284167261741 88.899999999999991 #
point $-1 -1 $-1 88.899999999999991 91.676284167261741 88.899999999999991 #
point $-1 -1 $-1 -24.129999999999995 91.676284167261741 0 #
coedge $-1 -1 $-1 $198 $254 $249 $278 reversed $194 $-1 #
coedge $-1 -1 $-1 $250 $195 $248 $278 forward $128 $-1 #
coedge $-1 -1 $-1 $195 $249 $254 $279 reversed $128 $-1 #
edge $-1 -1 $-1 $252 -1.5707963267948968 $200 1.5707963267948963 $195 $280 reversed @7 unknown #
vertex $-1 -1 $-1 $279 $281 #
ellipse-curve $-1 -1 $-1 22.859999999999996 7.2284357793641743 2.7994501248379535e-015 1.224606353822379e-016 7.8000162747682886e-031 -1 -0.32197183098594606 1.2285089092275889 -3.9428874997720512e-017 1 I I #
coedge $-1 -1 $-1 $248 $198 $250 $279 forward $194 $-1 #
ellipse-curve $-1 -1 $-1 0 8.4569446885917721 0 0 -1 0 0 0 -22.53802816901408 1 I I #
point $-1 -1 $-1 -22.538028169014051 8.4569446885917632 -5.5200424996804664e-015 #
straight-curve $-1 -1 $-1 -88.899999999999991 91.676284167261741 0 0 0 -1 I I #
point $-1 -1 $-1 -88.899999999999991 -91.676284167261741 -88.899999999999991 #
straight-curve $-1 -1 $-1 -88.899999999999991 0 -88.899999999999991 0 1 0 I I #
point $-1 -1 $-1 -88.899999999999991 91.676284167261741 -88.899999999999991 #
plane-surface $-1 -1 $-1 88.899999999999991 0 0 -1 0 0 0 0 1 forward_v I I I I #
coedge $-1 -1 $-1 $264 $223 $225 $266 reversed $171 $-1 #
edge $-1 -1 $-1 $238 -88.899999999999991 $269 88.899999999999991 $236 $282 forward @7 unknown #
coedge $-1 -1 $-1 $233 $262 $224 $265 reversed $171 $-1 #
edge $-1 -1 $-1 $241 -88.899999999999991 $267 88.899999999999991 $264 $283 forward @7 unknown #
edge $-1 -1 $-1 $267 -91.676284167261741 $269 91.676284167261741 $262 $284 forward @7 unknown #
vertex $-1 -1 $-1 $266 $285 #
straight-curve $-1 -1 $-1 0 -91.676284167261741 -88.899999999999991 -1 0 0 I I #
vertex $-1 -1 $-1 $229 $286 #
straight-curve $-1 -1 $-1 0 91.676284167261741 -88.899999999999991 1 0 0 I I #
point $-1 -1 $-1 88.899999999999991 91.676284167261741 -88.899999999999991 #
point $-1 -1 $-1 88.899999999999991 -91.676284167261741 -88.899999999999991 #
straight-curve $-1 -1 $-1 -88.899999999999991 0 88.899999999999991 0 -1 0 I I #
point $-1 -1 $-1 -88.899999999999991 91.676284167261741 88.899999999999991 #
point $-1 -1 $-1 -88.899999999999991 -91.676284167261741 88.899999999999991 #
straight-curve $-1 -1 $-1 88.899999999999991 -91.676284167261741 0 0 0 -1 I I #
straight-curve $-1 -1 $-1 88.899999999999991 91.676284167261741 0 0 0 -1 I I #
edge $-1 -1 $-1 $200 -2.3015830321424545e-016 $287 0.25631857618651888 $248 $288 forward @7 unknown #
edge $-1 -1 $-1 $252 2.8769787901780681e-017 $287 0.25631857618651915 $254 $289 forward @7 unknown #
ellipse-curve $-1 -1 $-1 0 8.4569446885917721 0 0 -1 0 0 0 -22.53802816901408 1 I I #
point $-1 -1 $-1 22.538028169014027 8.4569446885917667 2.76002124984023e-015 #
straight-curve $-1 -1 $-1 -88.899999999999991 91.676284167261741 0 0 0 -1 I I #
straight-curve $-1 -1 $-1 -88.899999999999991 -91.676284167261741 0 0 0 -1 I I #
straight-curve $-1 -1 $-1 -88.899999999999991 0 -88.899999999999991 0 1 0 I I #
point $-1 -1 $-1 -88.899999999999991 -91.676284167261741 -88.899999999999991 #
point $-1 -1 $-1 -88.899999999999991 91.676284167261741 -88.899999999999991 #
vertex $-1 -1 $-1 $279 $290 #
ellipse-curve $-1 -1 $-1 0 94.452568334523477 0 -2.449212707644754e-016 -1.6099202147367589e-032 1 -22.538028169014027 -85.995623645931701 -5.5200424996804601e-015 1 I I #
ellipse-curve $-1 -1 $-1 0 94.452568334523477 0 1.224606353822377e-016 -8.0496010736837947e-033 -1 22.538028169014027 -85.995623645931701 2.76002124984023e-015 1 I I #
point $-1 -1 $-1 -1.6330125728221399e-014 5.55256833452348 -1.99979757254982e-030 #
End-of-ACIS-data 