600 0 1 0           
100 GICL Pro/E ACIS Translator - Source: f:/data5/repository/PTC/V18/lrgasm18/stiff_plate_ml.prt.2 - 6 0 13 ACIS 6.0.3 NT 24 Thu Apr 04 13:34:33 2002 
1 9.9999999999999995e-007 1e-010 
body $-1 $1 $-1 $2 #
lump $-1 $-1 $3 $0 #
transform $-1 1 0 0 0 1 0 0 0 1 0 0 0 25.399999999999999 no_rotate no_reflect no_shear #
shell $-1 $-1 $-1 $4 $-1 $1 #
face $-1 $5 $6 $3 $-1 $7 reversed single #
face $-1 $8 $9 $3 $-1 $10 forward single #
loop $-1 $-1 $11 $4 #
plane-surface $-1 0 0 0 0 0 1 1 0 0 forward_v I I I I #
face $-1 $12 $13 $3 $-1 $14 forward single #
loop $-1 $-1 $15 $5 #
plane-surface $-1 63.115810263653017 14.513596892657317 0 0.97280621468536799 0.23162052730603508 0 -0.23162052730603508 0.97280621468536799 0 forward_v I I I I #
coedge $-1 $16 $17 $18 $19 reversed $6 $-1 #
face $-1 $20 $21 $3 $-1 $22 forward single #
loop $-1 $-1 $23 $8 #
plane-surface $-1 63 15 0 -0.23162052730603974 0.97280621468536688 0 -0.97280621468536688 -0.23162052730603974 0 forward_v I I I I #
coedge $-1 $24 $18 $25 $26 forward $9 $-1 #
coedge $-1 $27 $11 $28 $29 reversed $6 $-1 #
coedge $-1 $11 $30 $31 $32 reversed $6 $-1 #
coedge $-1 $15 $33 $11 $19 forward $9 $-1 #
edge $-1 $34 0 $35 0.49999999999999933 $11 $36 forward 7 unknown #
face $-1 $37 $38 $3 $-1 $39 forward single #
loop $-1 $-1 $40 $12 #
plane-surface $-1 0 0 0.5 0 0 1 1 0 0 forward_v I I I I #
coedge $-1 $25 $41 $42 $43 reversed $13 $-1 #
coedge $-1 $33 $15 $44 $45 reversed $9 $-1 #
coedge $-1 $31 $23 $15 $26 reversed $13 $-1 #
edge $-1 $35 0 $46 0.5 $15 $47 forward 7 unknown #
coedge $-1 $48 $16 $49 $50 reversed $6 $-1 #
coedge $-1 $51 $52 $16 $29 forward $53 $-1 #
edge $-1 $54 -7.3236445992952561e-015 $34 31.390073526908161 $16 $55 forward 7 unknown #
coedge $-1 $17 $56 $57 $58 reversed $6 $-1 #
coedge $-1 $41 $25 $17 $32 forward $13 $-1 #
edge $-1 $35 0 $59 32.380549717384355 $17 $60 forward 7 unknown #
coedge $-1 $18 $24 $51 $61 reversed $9 $-1 #
vertex $-1 $29 $62 #
vertex $-1 $32 $63 #
straight-curve $-1 63.115810263653017 14.513596892657317 0 -0.23162052730603508 0.97280621468536799 0 I I #
face $-1 $64 $65 $3 $-1 $66 forward single #
loop $-1 $-1 $67 $20 #
plane-surface $-1 0 0 0 -0.97280621468536688 -0.23162052730603974 0 0.23162052730603974 -0.97280621468536688 0 forward_v I I I I #
coedge $-1 $68 $69 $70 $71 forward $21 $-1 #
coedge $-1 $23 $31 $72 $73 forward $13 $-1 #
coedge $-1 $74 $44 $23 $43 forward $21 $-1 #
edge $-1 $46 0 $75 32.380549717384355 $42 $76 forward 7 unknown #
coedge $-1 $42 $77 $24 $45 forward $21 $-1 #
edge $-1 $78 0 $46 0.49999999999999933 $44 $79 forward 7 unknown #
vertex $-1 $43 $80 #
straight-curve $-1 63 15 0 0 0 1 I I #
coedge $-1 $81 $27 $82 $83 reversed $6 $-1 #
coedge $-1 $84 $85 $27 $50 forward $86 $-1 #
edge $-1 $87 0 $54 31.271025907860547 $27 $88 forward 7 unknown #
coedge $-1 $89 $28 $33 $61 forward $53 $-1 #
coedge $-1 $28 $89 $84 $90 reversed $53 $-1 #
loop $-1 $-1 $28 $91 #
vertex $-1 $50 $92 #
straight-curve $-1 32.57935165724615 7.2430115101794907 0 0.97280621468536699 0.23162052730603977 0 I I #
coedge $-1 $30 $93 $94 $95 reversed $6 $-1 #
coedge $-1 $96 $72 $30 $58 forward $97 $-1 #
edge $-1 $59 0 $98 32.380549717384355 $30 $99 forward 7 unknown #
vertex $-1 $32 $100 #
straight-curve $-1 63 15 0 -0.97280621468536688 -0.23162052730603974 0 I I #
edge $-1 $34 0 $78 0.5 $51 $101 forward 7 unknown #
point $-1 63.115810263653017 14.513596892657317 0 #
point $-1 63 15 0 #
face $-1 $102 $103 $3 $-1 $104 forward single #
loop $-1 $-1 $105 $37 #
plane-surface $-1 0.11581026365301987 -0.48640310734268344 0 0.23162052730603974 -0.97280621468536688 0 0.97280621468536688 0.23162052730603974 0 forward_v I I I I #
coedge $-1 $70 $106 $107 $108 forward $38 $-1 #
coedge $-1 $109 $40 $105 $110 forward $21 $-1 #
coedge $-1 $40 $111 $112 $113 forward $21 $-1 #
coedge $-1 $114 $67 $40 $71 reversed $38 $-1 #
edge $-1 $115 0 $116 0.5 $40 $117 forward 7 unknown #
coedge $-1 $57 $118 $41 $73 reversed $97 $-1 #
edge $-1 $59 0 $75 0.5 $41 $119 forward 7 unknown #
coedge $-1 $120 $42 $118 $121 forward $21 $-1 #
vertex $-1 $121 $122 #
straight-curve $-1 63 15 0.5 -0.97280621468536688 -0.23162052730603974 0 I I #
coedge $-1 $44 $123 $89 $124 forward $21 $-1 #
vertex $-1 $45 $125 #
straight-curve $-1 63.115810263653017 14.513596892657317 0.5 -0.23162052730603508 0.97280621468536799 0 I I #
point $-1 63 15 0.5 #
coedge $-1 $126 $48 $127 $128 reversed $6 $-1 #
coedge $-1 $129 $130 $48 $83 forward $131 $-1 #
edge $-1 $132 0 $87 0.49999999999999933 $48 $133 forward 7 unknown #
coedge $-1 $134 $49 $52 $90 forward $86 $-1 #
coedge $-1 $49 $134 $129 $135 reversed $86 $-1 #
loop $-1 $-1 $134 $136 #
vertex $-1 $83 $137 #
straight-curve $-1 63 0 0 -0.97280621468536688 0.23162052730603974 0 I I #
coedge $-1 $52 $51 $77 $124 reversed $53 $-1 #
edge $-1 $54 0 $138 0.5 $52 $139 forward 7 unknown #
face $-1 $140 $53 $3 $-1 $141 forward single #
point $-1 32.579351657246143 7.243011510179489 0 #
coedge $-1 $56 $142 $143 $144 reversed $6 $-1 #
coedge $-1 $145 $146 $56 $95 forward $147 $-1 #
edge $-1 $98 0 $148 0.49999999999999989 $56 $149 forward 7 unknown #
coedge $-1 $118 $57 $146 $150 forward $97 $-1 #
loop $-1 $-1 $57 $151 #
vertex $-1 $58 $152 #
straight-curve $-1 31.5 7.5 0 -0.97280621468536688 0.23162052730603974 0 I I #
point $-1 31.5 7.5 0 #
straight-curve $-1 63.115810263653017 14.513596892657317 0 0 0 1 I I #
face $-1 $136 $131 $3 $-1 $153 forward single #
loop $-1 $-1 $127 $64 #
plane-surface $-1 -0.11581026365301987 14.513596892657317 0 -0.23162052730603974 -0.97280621468536688 0 0.97280621468536688 -0.23162052730603974 0 forward_v I I I I #
coedge $-1 $107 $154 $68 $110 reversed $65 $-1 #
coedge $-1 $67 $114 $155 $156 forward $38 $-1 #
coedge $-1 $157 $105 $67 $108 reversed $65 $-1 #
edge $-1 $158 0 $116 0.5 $107 $159 forward 7 unknown #
coedge $-1 $160 $68 $161 $162 forward $21 $-1 #
edge $-1 $116 0 $163 32.261502098336734 $68 $164 forward 7 unknown #
coedge $-1 $69 $120 $165 $166 forward $21 $-1 #
coedge $-1 $167 $168 $69 $113 reversed $169 $-1 #
edge $-1 $170 0 $115 31.271025907860547 $69 $171 forward 7 unknown #
coedge $-1 $106 $70 $168 $172 reversed $38 $-1 #
vertex $-1 $113 $173 #
vertex $-1 $110 $174 #
straight-curve $-1 0 0 0.5 0.23162052730603974 -0.97280621468536688 0 I I #
coedge $-1 $72 $96 $74 $121 reversed $97 $-1 #
straight-curve $-1 31.5 7.5 0 0 0 1 I I #
coedge $-1 $111 $74 $175 $176 forward $21 $-1 #
edge $-1 $75 0 $177 32.380549717384355 $74 $178 forward 7 unknown #
point $-1 31.5 7.5 0.5 #
coedge $-1 $77 $160 $134 $179 forward $21 $-1 #
edge $-1 $138 -7.3236445992952561e-015 $78 31.390073526908161 $77 $180 forward 7 unknown #
point $-1 63.115810263653017 14.513596892657317 0.5 #
coedge $-1 $155 $81 $157 $181 reversed $6 $-1 #
coedge $-1 $182 $183 $81 $128 forward $103 $-1 #
edge $-1 $184 -2.0572035391278806e-016 $132 32.261502098336742 $81 $185 forward 7 unknown #
coedge $-1 $186 $82 $85 $135 forward $131 $-1 #
coedge $-1 $82 $186 $182 $187 reversed $131 $-1 #
loop $-1 $-1 $129 $102 #
vertex $-1 $128 $188 #
straight-curve $-1 62.884189736346983 -0.48640310734268333 0 0.23162052730603508 0.97280621468536799 0 I I #
coedge $-1 $85 $84 $123 $179 reversed $86 $-1 #
edge $-1 $87 0 $189 0.5 $129 $190 forward 7 unknown #
face $-1 $91 $86 $3 $-1 $191 forward single #
point $-1 63 0 0 #
vertex $-1 $124 $192 #
straight-curve $-1 32.579351657246143 7.2430115101794899 0 0 0 1 I I #
face $-1 $193 $169 $3 $-1 $194 forward single #
plane-surface $-1 0.11581026365301987 -0.48640310734268344 0 0.23162052730603974 -0.97280621468536688 0 0.97280621468536688 0.23162052730603974 0 forward_v I I I I #
coedge $-1 $93 $155 $195 $196 reversed $6 $-1 #
coedge $-1 $197 $198 $93 $144 forward $199 $-1 #
edge $-1 $148 0 $200 31.390073526908168 $93 $201 forward 7 unknown #
coedge $-1 $175 $94 $198 $202 forward $147 $-1 #
coedge $-1 $94 $175 $96 $150 reversed $147 $-1 #
loop $-1 $-1 $145 $203 #
vertex $-1 $95 $204 #
straight-curve $-1 0 15 0 -0.2316205273060398 -0.97280621468536688 0 I I #
edge $-1 $98 0 $177 0.5 $96 $205 forward 7 unknown #
face $-1 $-1 $97 $3 $-1 $206 forward single #
point $-1 0 15 0 #
plane-surface $-1 62.884189736346983 -0.48640310734268344 0 0.97280621468536799 -0.23162052730603502 0 0.23162052730603502 0.97280621468536799 0 forward_v I I I I #
coedge $-1 $105 $157 $183 $207 forward $65 $-1 #
coedge $-1 $142 $126 $106 $156 reversed $6 $-1 #
edge $-1 $208 0 $158 0.5 $155 $209 forward 7 unknown #
coedge $-1 $154 $107 $126 $181 forward $65 $-1 #
vertex $-1 $156 $210 #
straight-curve $-1 0.11581026365301987 -0.48640310734268344 0 0 0 1 I I #
coedge $-1 $123 $109 $186 $211 forward $21 $-1 #
coedge $-1 $183 $182 $109 $162 reversed $103 $-1 #
edge $-1 $163 -2.0572035391278806e-016 $212 32.261502098336742 $109 $213 forward 7 unknown #
vertex $-1 $162 $214 #
straight-curve $-1 0.11581026365301987 -0.48640310734268344 0.5 0.97280621468536688 0.23162052730603974 0 I I #
coedge $-1 $198 $197 $111 $166 reversed $199 $-1 #
edge $-1 $215 0 $170 31.390073526908168 $111 $216 forward 7 unknown #
coedge $-1 $195 $112 $197 $217 reversed $169 $-1 #
coedge $-1 $112 $195 $114 $172 forward $169 $-1 #
loop $-1 $-1 $195 $140 #
vertex $-1 $113 $218 #
straight-curve $-1 30.420648342753857 7.243011510179489 0.5 -0.97280621468536688 -0.23162052730603971 0 I I #
edge $-1 $208 0 $115 0.5 $168 $219 forward 7 unknown #
point $-1 0 0 0.5 #
point $-1 0.11581026365301987 -0.48640310734268344 0.5 #
coedge $-1 $146 $145 $120 $176 reversed $147 $-1 #
edge $-1 $177 0 $215 0.49999999999999989 $120 $220 forward 7 unknown #
vertex $-1 $176 $221 #
straight-curve $-1 31.5 7.5 0.5 -0.97280621468536688 0.23162052730603974 0 I I #
edge $-1 $189 0 $138 31.271025907860547 $123 $222 forward 7 unknown #
straight-curve $-1 32.57935165724615 7.2430115101794907 0.5 0.97280621468536699 0.23162052730603977 0 I I #
edge $-1 $158 0 $184 32.261502098336734 $126 $223 forward 7 unknown #
coedge $-1 $161 $127 $130 $187 forward $103 $-1 #
coedge $-1 $127 $161 $154 $207 reversed $103 $-1 #
vertex $-1 $181 $224 #
straight-curve $-1 31.5 6.9860230203589779 0 0.97280621468536677 -0.23162052730603966 0 I I #
coedge $-1 $130 $129 $160 $211 reversed $131 $-1 #
edge $-1 $132 0 $212 0.5 $182 $225 forward 7 unknown #
point $-1 62.884189736346983 -0.48640310734268333 0 #
vertex $-1 $179 $226 #
straight-curve $-1 63 0 0 0 0 1 I I #
plane-surface $-1 63 0 0 0.23162052730603974 0.97280621468536688 0 -0.97280621468536688 0.23162052730603974 0 forward_v I I I I #
point $-1 32.579351657246143 7.243011510179489 0.5 #
face $-1 $203 $199 $3 $-1 $227 forward single #
plane-surface $-1 63 15 0 -0.23162052730603974 0.97280621468536688 0 -0.97280621468536688 -0.23162052730603974 0 forward_v I I I I #
coedge $-1 $168 $167 $142 $196 forward $169 $-1 #
edge $-1 $200 -7.1179242453824677e-015 $208 31.27102590786054 $142 $228 forward 7 unknown #
coedge $-1 $165 $143 $167 $217 forward $199 $-1 #
coedge $-1 $143 $165 $145 $202 reversed $199 $-1 #
loop $-1 $-1 $165 $193 #
vertex $-1 $144 $229 #
straight-curve $-1 -0.11581026365301987 14.513596892657317 0 0.97280621468536688 -0.23162052730603974 0 I I #
edge $-1 $148 0 $215 0.5 $198 $230 forward 7 unknown #
face $-1 $151 $147 $3 $-1 $231 forward single #
point $-1 -0.11581026365301987 14.513596892657317 0 #
straight-curve $-1 0 15 0 0 0 1 I I #
plane-surface $-1 63 0 0 0.23162052730603974 0.97280621468536688 0 -0.97280621468536688 0.23162052730603974 0 forward_v I I I I #
edge $-1 $184 0 $163 0.5 $154 $232 forward 7 unknown #
vertex $-1 $196 $233 #
straight-curve $-1 0 0 0 0.23162052730603974 -0.97280621468536688 0 I I #
point $-1 0.11581026365301987 -0.48640310734268344 0 #
edge $-1 $212 -1.0800318580421386e-016 $189 0.49999999999999933 $160 $234 forward 7 unknown #
vertex $-1 $211 $235 #
straight-curve $-1 31.5 6.9860230203589779 0.5 0.97280621468536677 -0.23162052730603966 0 I I #
point $-1 31.5 6.9860230203589788 0.5 #
vertex $-1 $166 $236 #
straight-curve $-1 -0.11581026365301987 14.513596892657317 0.5 0.97280621468536688 -0.23162052730603974 0 I I #
edge $-1 $200 0 $170 0.5 $167 $237 forward 7 unknown #
point $-1 30.420648342753857 7.243011510179489 0.5 #
straight-curve $-1 0 0 0 0 0 1 I I #
straight-curve $-1 0 15 0.5 -0.2316205273060398 -0.97280621468536688 0 I I #
point $-1 0 15 0.5 #
straight-curve $-1 63 0 0.5 -0.97280621468536688 0.23162052730603974 0 I I #
straight-curve $-1 0.11581026365301987 -0.48640310734268344 0 0.97280621468536688 0.23162052730603974 0 I I #
point $-1 31.5 6.9860230203589788 0 #
straight-curve $-1 62.884189736346983 -0.48640310734268333 0 0 0 1 I I #
point $-1 63 0 0.5 #
plane-surface $-1 -0.11581026365301987 14.513596892657317 0 -0.23162052730603974 -0.97280621468536688 0 0.97280621468536688 -0.23162052730603974 0 forward_v I I I I #
straight-curve $-1 30.42064834275385 7.2430115101794881 0 -0.97280621468536688 -0.23162052730603974 0 I I #
point $-1 30.420648342753857 7.243011510179489 0 #
straight-curve $-1 -0.11581026365301987 14.513596892657317 0 0 0 1 I I #
plane-surface $-1 0 15 0 -0.97280621468536688 0.2316205273060398 0 -0.2316205273060398 -0.97280621468536688 0 forward_v I I I I #
straight-curve $-1 31.5 6.9860230203589779 0 0 0 1 I I #
point $-1 0 0 0 #
straight-curve $-1 62.884189736346983 -0.48640310734268333 0.5 0.23162052730603508 0.97280621468536799 0 I I #
point $-1 62.884189736346983 -0.48640310734268344 0.5 #
point $-1 -0.11581026365301987 14.513596892657317 0.5 #
straight-curve $-1 30.420648342753857 7.2430115101794881 0 0 0 1 I I #
End-of-ACIS-data 