600 0 1 0           
97 GICL Pro/E ACIS Translator - Source: f:/data5/repository/PTC/V18/lrgasm18/stiffener_3.prt.2 - 6 0 13 ACIS 6.0.3 NT 24 Thu Apr 04 13:35:12 2002 
1 9.9999999999999995e-007 1e-010 
body $-1 $1 $-1 $2 #
lump $-1 $-1 $3 $0 #
transform $-1 1 0 0 0 1 0 0 0 1 0 0 0 25.399999999999999 no_rotate no_reflect no_shear #
shell $-1 $-1 $-1 $4 $-1 $1 #
face $-1 $5 $6 $3 $-1 $7 reversed single #
face $-1 $8 $9 $3 $-1 $10 forward single #
loop $-1 $11 $12 $4 #
plane-surface $-1 0 36 14 1 0 0 0 0 -1 forward_v I I I I #
face $-1 $13 $14 $3 $-1 $15 forward single #
loop $-1 $-1 $16 $5 #
plane-surface $-1 0 35.843239950739502 13 0 -0.30600052932207494 -0.95203134194973327 0 0.95203134194973327 -0.30600052932207494 forward_v I I I I #
loop $-1 $17 $18 $4 #
coedge $-1 $19 $20 $21 $22 reversed $6 $-1 #
face $-1 $23 $24 $3 $-1 $25 forward single #
loop $-1 $-1 $26 $8 #
plane-surface $-1 0 49.00043669292026 8.7710329585823992 0 -1 0 0 0 -1 forward_v I I I I #
coedge $-1 $27 $21 $28 $29 forward $9 $-1 #
loop $-1 $-1 $30 $4 #
coedge $-1 $31 $32 $33 $34 reversed $11 $-1 #
coedge $-1 $35 $12 $36 $37 reversed $6 $-1 #
coedge $-1 $12 $38 $39 $40 reversed $6 $-1 #
coedge $-1 $16 $41 $12 $22 forward $9 $-1 #
edge $-1 $42 0 $43 13.820129823914401 $12 $44 forward 7 unknown #
face $-1 $45 $46 $3 $-1 $47 forward single #
loop $-1 $48 $49 $13 #
plane-surface $-1 2 36 14 1 0 0 0 0 -1 forward_v I I I I #
coedge $-1 $28 $50 $51 $52 reversed $14 $-1 #
coedge $-1 $41 $16 $53 $54 reversed $9 $-1 #
coedge $-1 $39 $26 $16 $29 reversed $14 $-1 #
edge $-1 $43 0 $55 2 $16 $56 forward 7 unknown #
coedge $-1 $57 $58 $59 $60 reversed $17 $-1 #
coedge $-1 $61 $18 $62 $63 reversed $11 $-1 #
coedge $-1 $18 $64 $65 $66 reversed $11 $-1 #
coedge $-1 $67 $68 $18 $34 forward $69 $-1 #
edge $-1 $70 0 $71 6 $18 $72 forward 7 unknown #
coedge $-1 $38 $19 $73 $74 reversed $6 $-1 #
coedge $-1 $75 $76 $19 $37 forward $77 $-1 #
edge $-1 $78 0 $42 4.8432399507395019 $19 $79 forward 7 unknown #
coedge $-1 $20 $35 $80 $81 reversed $6 $-1 #
coedge $-1 $50 $28 $20 $40 forward $14 $-1 #
edge $-1 $43 0 $82 8.2710329585823992 $20 $83 forward 7 unknown #
coedge $-1 $21 $27 $75 $84 reversed $9 $-1 #
vertex $-1 $37 $85 #
vertex $-1 $40 $86 #
straight-curve $-1 0 35.843239950739502 13 0 0.95203134194973327 -0.30600052932207494 I I #
face $-1 $87 $88 $3 $-1 $89 forward single #
loop $-1 $-1 $90 $23 #
plane-surface $-1 0 49.00043669292026 -8.7710329585823992 0 -0.30600052932207489 0.95203134194973327 0 -0.95203134194973327 -0.30600052932207489 forward_v I I I I #
loop $-1 $91 $92 $13 #
coedge $-1 $93 $94 $95 $96 forward $24 $-1 #
coedge $-1 $26 $39 $97 $98 forward $14 $-1 #
coedge $-1 $99 $53 $26 $52 forward $91 $-1 #
edge $-1 $55 0 $100 8.2710329585823992 $51 $101 forward 7 unknown #
coedge $-1 $51 $102 $27 $54 forward $91 $-1 #
edge $-1 $103 0 $55 13.820129823914401 $53 $104 forward 7 unknown #
vertex $-1 $52 $105 #
straight-curve $-1 0 49.00043669292026 8.7710329585823992 1 0 0 I I #
coedge $-1 $106 $30 $107 $108 reversed $17 $-1 #
coedge $-1 $30 $109 $110 $111 reversed $17 $-1 #
coedge $-1 $112 $113 $30 $60 forward $88 $-1 #
edge $-1 $114 0 $115 4.8432399507395019 $30 $116 forward 7 unknown #
coedge $-1 $117 $31 $118 $119 reversed $11 $-1 #
coedge $-1 $120 $121 $31 $63 forward $122 $-1 #
edge $-1 $123 0 $70 28 $31 $124 forward 7 unknown #
coedge $-1 $32 $117 $125 $126 reversed $11 $-1 #
coedge $-1 $127 $128 $32 $66 forward $129 $-1 #
edge $-1 $71 0 $130 14.705856914592498 $32 $131 forward 7 unknown #
coedge $-1 $132 $33 $128 $133 forward $69 $-1 #
coedge $-1 $33 $132 $120 $134 reversed $69 $-1 #
loop $-1 $-1 $67 $135 #
vertex $-1 $63 $136 #
vertex $-1 $66 $137 #
straight-curve $-1 0 30 -14 0 1 0 I I #
coedge $-1 $138 $139 $35 $74 forward $140 $-1 #
edge $-1 $141 0 $78 12.5 $35 $142 forward 7 unknown #
coedge $-1 $143 $36 $41 $84 forward $77 $-1 #
coedge $-1 $36 $143 $138 $144 reversed $77 $-1 #
loop $-1 $-1 $75 $145 #
vertex $-1 $74 $146 #
straight-curve $-1 0 31 13 0 1 0 I I #
coedge $-1 $147 $97 $38 $81 forward $148 $-1 #
edge $-1 $82 0 $141 18.00043669292026 $38 $149 forward 7 unknown #
vertex $-1 $40 $150 #
straight-curve $-1 0 49.00043669292026 8.7710329585823992 0 0 -1 I I #
edge $-1 $42 0 $103 2 $75 $151 forward 7 unknown #
point $-1 0 35.843239950739502 13 #
point $-1 0 49.00043669292026 8.7710329585823992 #
face $-1 $152 $153 $3 $-1 $154 forward single #
loop $-1 $-1 $112 $45 #
plane-surface $-1 0 35.843239950739502 -13 0 0 1 0 -1 0 forward_v I I I I #
coedge $-1 $95 $107 $113 $155 forward $46 $-1 #
loop $-1 $-1 $102 $13 #
coedge $-1 $156 $157 $158 $159 forward $48 $-1 #
coedge $-1 $160 $49 $161 $162 forward $24 $-1 #
coedge $-1 $49 $163 $164 $165 forward $24 $-1 #
coedge $-1 $166 $90 $49 $96 reversed $46 $-1 #
edge $-1 $167 0 $168 13.820129823914401 $49 $169 forward 7 unknown #
coedge $-1 $80 $170 $50 $98 reversed $148 $-1 #
edge $-1 $82 0 $100 2 $50 $171 forward 7 unknown #
coedge $-1 $172 $51 $170 $173 forward $91 $-1 #
vertex $-1 $173 $174 #
straight-curve $-1 2 49.00043669292026 8.7710329585823992 0 0 -1 I I #
coedge $-1 $53 $172 $143 $175 forward $91 $-1 #
vertex $-1 $54 $176 #
straight-curve $-1 2 35.843239950739502 13 0 0.95203134194973327 -0.30600052932207494 I I #
point $-1 2 49.00043669292026 8.7710329585823992 #
coedge $-1 $109 $57 $177 $178 reversed $17 $-1 #
coedge $-1 $90 $166 $57 $108 forward $46 $-1 #
edge $-1 $179 0 $114 13.820129823914401 $57 $180 forward 7 unknown #
coedge $-1 $58 $106 $181 $182 reversed $17 $-1 #
coedge $-1 $183 $184 $58 $111 forward $153 $-1 #
edge $-1 $115 0 $185 12.5 $58 $186 forward 7 unknown #
coedge $-1 $161 $59 $184 $187 forward $88 $-1 #
coedge $-1 $59 $161 $90 $155 reversed $88 $-1 #
vertex $-1 $108 $188 #
vertex $-1 $111 $189 #
straight-curve $-1 0 35.843239950739502 -13 0 -1 0 I I #
coedge $-1 $64 $61 $190 $191 reversed $11 $-1 #
coedge $-1 $192 $193 $61 $119 forward $194 $-1 #
edge $-1 $195 0 $123 6 $61 $196 forward 7 unknown #
coedge $-1 $197 $62 $68 $134 forward $122 $-1 #
coedge $-1 $62 $197 $192 $198 reversed $122 $-1 #
loop $-1 $-1 $120 $199 #
vertex $-1 $119 $200 #
straight-curve $-1 0 30 14 0 0 -1 I I #
coedge $-1 $201 $202 $64 $126 forward $203 $-1 #
edge $-1 $130 0 $204 19 $64 $205 forward 7 unknown #
coedge $-1 $206 $65 $202 $207 forward $129 $-1 #
coedge $-1 $65 $206 $67 $133 reversed $129 $-1 #
loop $-1 $-1 $127 $208 #
vertex $-1 $66 $209 #
straight-curve $-1 0 36 -14 0 0.95203134194973327 0.30600052932207494 I I #
coedge $-1 $68 $67 $210 $211 reversed $69 $-1 #
edge $-1 $71 0 $212 2 $128 $213 forward 7 unknown #
edge $-1 $70 0 $214 2 $120 $215 forward 7 unknown #
face $-1 $208 $69 $3 $-1 $216 forward single #
point $-1 0 30 -14 #
point $-1 0 36 -14 #
coedge $-1 $217 $73 $76 $144 forward $140 $-1 #
coedge $-1 $73 $217 $147 $218 reversed $140 $-1 #
loop $-1 $-1 $73 $219 #
vertex $-1 $81 $220 #
straight-curve $-1 0 31 0.5 0 0 1 I I #
coedge $-1 $76 $75 $102 $175 reversed $77 $-1 #
edge $-1 $78 0 $221 2 $138 $222 forward 7 unknown #
face $-1 $219 $77 $3 $-1 $223 forward single #
point $-1 0 31 13 #
coedge $-1 $170 $80 $139 $218 forward $148 $-1 #
loop $-1 $-1 $170 $224 #
straight-curve $-1 0 49.00043669292026 0.5 0 -1 0 I I #
point $-1 0 49.00043669292026 0.5 #
straight-curve $-1 0 35.843239950739502 13 1 0 0 I I #
face $-1 $225 $226 $3 $-1 $227 forward single #
loop $-1 $-1 $228 $87 #
plane-surface $-1 0 31 -13 0 1 0 0 0 1 forward_v I I I I #
edge $-1 $114 0 $168 2 $113 $229 forward 7 unknown #
coedge $-1 $230 $92 $231 $232 forward $48 $-1 #
coedge $-1 $92 $210 $206 $233 forward $48 $-1 #
coedge $-1 $202 $201 $92 $159 reversed $203 $-1 #
edge $-1 $234 0 $235 19 $92 $236 forward 7 unknown #
coedge $-1 $163 $93 $228 $237 forward $24 $-1 #
coedge $-1 $113 $112 $93 $162 reversed $88 $-1 #
edge $-1 $168 0 $238 4.8432399507395019 $93 $239 forward 7 unknown #
coedge $-1 $94 $160 $240 $241 forward $24 $-1 #
coedge $-1 $242 $243 $94 $165 reversed $244 $-1 #
edge $-1 $245 0 $167 8.2710329585823992 $94 $246 forward 7 unknown #
coedge $-1 $107 $95 $243 $247 reversed $46 $-1 #
vertex $-1 $165 $248 #
vertex $-1 $162 $249 #
straight-curve $-1 2 49.00043669292026 -8.7710329585823992 0 -0.95203134194973327 -0.30600052932207494 I I #
coedge $-1 $97 $147 $99 $173 reversed $148 $-1 #
straight-curve $-1 0 49.00043669292026 0.5 1 0 0 I I #
coedge $-1 $102 $99 $217 $250 forward $91 $-1 #
edge $-1 $100 0 $251 18.00043669292026 $99 $252 forward 7 unknown #
point $-1 2 49.00043669292026 0.5 #
edge $-1 $221 0 $103 4.8432399507395019 $102 $253 forward 7 unknown #
point $-1 2 35.843239950739502 13 #
coedge $-1 $243 $242 $106 $178 forward $244 $-1 #
edge $-1 $254 0 $179 8.2710329585823992 $106 $255 forward 7 unknown #
vertex $-1 $178 $256 #
straight-curve $-1 0 49.00043669292026 -8.7710329585823992 0 -0.95203134194973327 -0.30600052932207494 I I #
coedge $-1 $257 $258 $109 $182 forward $226 $-1 #
edge $-1 $185 0 $254 18.00043669292026 $109 $259 forward 7 unknown #
coedge $-1 $228 $110 $258 $260 forward $153 $-1 #
coedge $-1 $110 $228 $112 $187 reversed $153 $-1 #
vertex $-1 $111 $261 #
straight-curve $-1 0 31 -13 0 0 1 I I #
edge $-1 $115 0 $238 2 $112 $262 forward 7 unknown #
point $-1 0 35.843239950739502 -13 #
point $-1 0 31 -13 #
coedge $-1 $263 $264 $117 $191 forward $265 $-1 #
edge $-1 $204 0 $195 14.705856914592498 $117 $266 forward 7 unknown #
coedge $-1 $267 $118 $121 $198 forward $194 $-1 #
coedge $-1 $118 $267 $263 $268 reversed $194 $-1 #
loop $-1 $-1 $192 $269 #
vertex $-1 $191 $270 #
straight-curve $-1 0 36 14 0 -1 0 I I #
coedge $-1 $121 $120 $271 $272 reversed $122 $-1 #
edge $-1 $123 0 $273 2 $192 $274 forward 7 unknown #
face $-1 $135 $122 $3 $-1 $275 forward single #
point $-1 0 30 14 #
coedge $-1 $158 $125 $264 $276 forward $203 $-1 #
coedge $-1 $125 $158 $127 $207 reversed $203 $-1 #
loop $-1 $-1 $201 $277 #
vertex $-1 $126 $278 #
straight-curve $-1 0 50.00043669292026 -9.5 0 0 1 I I #
coedge $-1 $128 $127 $157 $233 reversed $129 $-1 #
edge $-1 $130 0 $234 2 $127 $279 forward 7 unknown #
face $-1 $145 $129 $3 $-1 $280 forward single #
point $-1 0 50.00043669292026 -9.5 #
coedge $-1 $157 $271 $132 $211 forward $48 $-1 #
edge $-1 $214 0 $212 6 $210 $281 forward 7 unknown #
vertex $-1 $233 $282 #
straight-curve $-1 0 36 -14 1 0 0 I I #
vertex $-1 $211 $283 #
straight-curve $-1 0 30 -14 1 0 0 I I #
plane-surface $-1 0 30 -14 0 0 -1 0 1 0 forward_v I I I I #
coedge $-1 $139 $138 $172 $250 reversed $140 $-1 #
edge $-1 $141 0 $251 2 $139 $284 forward 7 unknown #
face $-1 $224 $140 $3 $-1 $285 forward single #
point $-1 0 31 0.5 #
vertex $-1 $250 $286 #
straight-curve $-1 0 31 13 1 0 0 I I #
plane-surface $-1 0 31 13 0 0 -1 0 1 0 forward_v I I I I #
face $-1 $-1 $148 $3 $-1 $287 forward single #
face $-1 $277 $244 $3 $-1 $288 forward single #
loop $-1 $-1 $181 $152 #
plane-surface $-1 2 31 -0.5 0 0 -1 0 1 0 forward_v I I I I #
coedge $-1 $184 $183 $160 $237 reversed $153 $-1 #
straight-curve $-1 0 35.843239950739502 -13 1 0 0 I I #
coedge $-1 $271 $156 $267 $289 forward $48 $-1 #
coedge $-1 $264 $263 $156 $232 reversed $265 $-1 #
edge $-1 $235 0 $290 14.705856914592498 $156 $291 forward 7 unknown #
edge $-1 $212 0 $234 14.705856914592498 $157 $292 forward 7 unknown #
vertex $-1 $233 $293 #
vertex $-1 $232 $294 #
straight-curve $-1 2 50.00043669292026 -9.5 0 0 1 I I #
edge $-1 $238 0 $295 12.5 $160 $296 forward 7 unknown #
vertex $-1 $237 $297 #
straight-curve $-1 2 35.843239950739502 -13 0 -1 0 I I #
coedge $-1 $258 $257 $163 $241 reversed $226 $-1 #
edge $-1 $295 0 $245 18.00043669292026 $163 $298 forward 7 unknown #
coedge $-1 $177 $164 $257 $299 reversed $244 $-1 #
coedge $-1 $164 $177 $166 $247 forward $244 $-1 #
loop $-1 $-1 $177 $225 #
vertex $-1 $165 $300 #
straight-curve $-1 2 49.00043669292026 -0.5 0 0 -1 I I #
edge $-1 $179 0 $167 2 $243 $301 forward 7 unknown #
point $-1 2 49.00043669292026 -8.7710329585823992 #
point $-1 2 35.843239950739502 -13 #
edge $-1 $251 0 $221 12.5 $172 $302 forward 7 unknown #
vertex $-1 $250 $303 #
straight-curve $-1 2 49.00043669292026 0.5 0 -1 0 I I #
straight-curve $-1 2 31 13 0 1 0 I I #
vertex $-1 $182 $304 #
straight-curve $-1 0 49.00043669292026 -0.5 0 0 -1 I I #
point $-1 0 49.00043669292026 -8.7710329585823992 #
coedge $-1 $240 $181 $242 $299 forward $226 $-1 #
coedge $-1 $181 $240 $183 $260 reversed $226 $-1 #
straight-curve $-1 0 31 -0.5 0 1 0 I I #
edge $-1 $185 0 $295 2 $183 $305 forward 7 unknown #
point $-1 0 31 -0.5 #
straight-curve $-1 0 31 -13 1 0 0 I I #
coedge $-1 $231 $190 $193 $268 forward $265 $-1 #
coedge $-1 $190 $231 $201 $276 reversed $265 $-1 #
loop $-1 $-1 $263 $306 #
straight-curve $-1 0 50.00043669292026 9.5 0 -0.95203134194973327 0.30600052932207494 I I #
coedge $-1 $193 $192 $230 $289 reversed $194 $-1 #
edge $-1 $195 0 $290 2 $263 $307 forward 7 unknown #
face $-1 $199 $194 $3 $-1 $308 forward single #
point $-1 0 36 14 #
coedge $-1 $210 $230 $197 $272 forward $48 $-1 #
edge $-1 $273 0 $214 28 $271 $309 forward 7 unknown #
vertex $-1 $272 $310 #
straight-curve $-1 0 30 14 1 0 0 I I #
plane-surface $-1 0 30 14 0 -1 0 0 0 -1 forward_v I I I I #
edge $-1 $204 0 $235 2 $201 $311 forward 7 unknown #
face $-1 $306 $203 $3 $-1 $312 forward single #
point $-1 0 50.00043669292026 9.5 #
straight-curve $-1 0 50.00043669292026 -9.5 1 0 0 I I #
plane-surface $-1 0 36 -14 0 0.30600052932207494 -0.95203134194973327 0 0.95203134194973327 0.30600052932207494 forward_v I I I I #
straight-curve $-1 2 30 -14 0 1 0 I I #
point $-1 2 36 -14 #
point $-1 2 30 -14 #
straight-curve $-1 0 31 0.5 1 0 0 I I #
plane-surface $-1 0 31 -13 0 1 0 0 0 1 forward_v I I I I #
point $-1 2 31 13 #
plane-surface $-1 2 49.00043669292026 0.5 0 0 1 0 -1 0 forward_v I I I I #
plane-surface $-1 0 49.00043669292026 8.7710329585823992 0 -1 0 0 0 -1 forward_v I I I I #
edge $-1 $290 0 $273 6 $230 $313 forward 7 unknown #
vertex $-1 $289 $314 #
straight-curve $-1 2 50.00043669292026 9.5 0 -0.95203134194973327 0.30600052932207494 I I #
straight-curve $-1 2 36 -14 0 0.95203134194973327 0.30600052932207494 I I #
point $-1 2 50.00043669292026 -9.5 #
point $-1 2 50.00043669292026 9.5 #
vertex $-1 $241 $315 #
straight-curve $-1 2 31 -13 0 0 1 I I #
point $-1 2 31 -13 #
straight-curve $-1 2 31 -0.5 0 1 0 I I #
edge $-1 $254 0 $245 2 $242 $316 forward 7 unknown #
point $-1 2 49.00043669292026 -0.5 #
straight-curve $-1 0 49.00043669292026 -8.7710329585823992 1 0 0 I I #
straight-curve $-1 2 31 0.5 0 0 1 I I #
point $-1 2 31 0.5 #
point $-1 0 49.00043669292026 -0.5 #
straight-curve $-1 0 31 -0.5 1 0 0 I I #
face $-1 $269 $265 $3 $-1 $317 forward single #
straight-curve $-1 0 36 14 1 0 0 I I #
plane-surface $-1 0 36 14 0 0 1 0 -1 0 forward_v I I I I #
straight-curve $-1 2 30 14 0 0 -1 I I #
point $-1 2 30 14 #
straight-curve $-1 0 50.00043669292026 9.5 1 0 0 I I #
plane-surface $-1 0 50.00043669292026 -9.5 0 1 0 0 0 1 forward_v I I I I #
straight-curve $-1 2 36 14 0 -1 0 I I #
point $-1 2 36 14 #
point $-1 2 31 -0.5 #
straight-curve $-1 0 49.00043669292026 -0.5 1 0 0 I I #
plane-surface $-1 0 50.00043669292026 9.5 0 0.30600052932207494 0.95203134194973327 0 -0.95203134194973327 0.30600052932207494 forward_v I I I I #
End-of-ACIS-data 