600 0 1 0           
95 GICL Pro/E ACIS Translator - Source: f:/data5/repository/PTC/V18/lrgasm18/support_3.prt.2 - 6 0 13 ACIS 6.0.3 NT 24 Thu Apr 04 13:34:39 2002 
1 9.9999999999999995e-007 1e-010 
body $-1 $1 $-1 $2 #
lump $-1 $-1 $3 $0 #
transform $-1 1 0 0 0 1 0 0 0 1 0 0 0 25.399999999999999 no_rotate no_reflect no_shear #
shell $-1 $-1 $-1 $4 $-1 $1 #
face $-1 $5 $6 $3 $-1 $7 forward single #
face $-1 $8 $9 $3 $-1 $10 forward single #
loop $-1 $-1 $11 $4 #
plane-surface $-1 0 0 12 0 0 1 1 0 0 forward_v I I I I #
face $-1 $12 $13 $3 $-1 $14 forward single #
loop $-1 $-1 $15 $5 #
cone-surface $-1 -98 -13 12 0 0 1 1 0 0 1 I I 0 1 1 forward I I I I #
coedge $-1 $16 $17 $18 $19 forward $6 $-1 #
face $-1 $20 $21 $3 $-1 $22 forward single #
loop $-1 $-1 $23 $8 #
plane-surface $-1 -99 -0.25 12 -1 0 0 0 -1 0 forward_v I I I I #
coedge $-1 $24 $18 $25 $26 forward $9 $-1 #
coedge $-1 $27 $11 $28 $29 forward $6 $-1 #
coedge $-1 $11 $30 $31 $32 forward $6 $-1 #
coedge $-1 $15 $33 $11 $19 reversed $9 $-1 #
edge $-1 $34 0 $35 1.5707963267948966 $11 $36 forward 7 unknown #
face $-1 $37 $38 $3 $-1 $39 forward single #
loop $-1 $-1 $40 $12 #
plane-surface $-1 -98.75 -0.25 12 0 1 0 -1 0 0 forward_v I I I I #
coedge $-1 $41 $42 $43 $44 forward $13 $-1 #
coedge $-1 $33 $15 $45 $46 forward $9 $-1 #
coedge $-1 $31 $41 $15 $26 reversed $13 $-1 #
edge $-1 $34 0 $47 24 $25 $48 forward 7 unknown #
coedge $-1 $49 $16 $50 $51 forward $6 $-1 #
coedge $-1 $52 $53 $16 $29 reversed $54 $-1 #
edge $-1 $35 0 $55 2 $16 $56 forward 7 unknown #
coedge $-1 $17 $57 $58 $59 forward $6 $-1 #
coedge $-1 $60 $25 $17 $32 reversed $13 $-1 #
edge $-1 $61 0 $34 12.75 $17 $62 forward 7 unknown #
coedge $-1 $18 $24 $52 $63 reversed $9 $-1 #
vertex $-1 $32 $64 #
vertex $-1 $29 $65 #
ellipse-curve $-1 -98 -13 12 0 0 1 -1 0 0 1 I I #
face $-1 $66 $67 $3 $-1 $68 reversed single #
loop $-1 $-1 $69 $20 #
plane-surface $-1 -98.75 -13 12 1 0 0 0 1 0 forward_v I I I I #
coedge $-1 $70 $71 $72 $73 forward $21 $-1 #
coedge $-1 $25 $23 $74 $75 forward $13 $-1 #
coedge $-1 $23 $76 $77 $78 reversed $13 $-1 #
coedge $-1 $71 $70 $23 $44 reversed $21 $-1 #
edge $-1 $79 0 $80 1.8500000000000014 $23 $81 forward 7 unknown #
coedge $-1 $74 $82 $24 $46 reversed $83 $-1 #
edge $-1 $47 0 $84 1.5707963267948983 $45 $85 forward 7 unknown #
vertex $-1 $75 $86 #
straight-curve $-1 -99 -13 12 0 0 -1 I I #
coedge $-1 $87 $27 $88 $89 forward $6 $-1 #
coedge $-1 $90 $91 $27 $51 reversed $92 $-1 #
edge $-1 $55 0 $93 0.25 $27 $94 forward 7 unknown #
coedge $-1 $95 $28 $33 $63 forward $54 $-1 #
coedge $-1 $28 $95 $90 $96 reversed $54 $-1 #
loop $-1 $-1 $52 $97 #
vertex $-1 $51 $98 #
straight-curve $-1 -98 -14 12 1 0 0 I I #
coedge $-1 $30 $87 $99 $100 forward $6 $-1 #
coedge $-1 $101 $102 $30 $59 reversed $103 $-1 #
edge $-1 $104 0 $61 0.25 $30 $105 forward 7 unknown #
coedge $-1 $106 $31 $102 $107 forward $13 $-1 #
vertex $-1 $32 $108 #
straight-curve $-1 -99 -0.25 12 0 -1 0 I I #
edge $-1 $35 0 $84 24 $33 $109 forward 7 unknown #
point $-1 -99 -13 12 #
point $-1 -98 -14 12 #
face $-1 $110 $111 $3 $-1 $112 reversed single #
loop $-1 $-1 $113 $37 #
cone-surface $-1 -99 -6 0 -1 0 0 0 0 6.25 1 I I 0 1 6.25 forward I I I I #
coedge $-1 $114 $115 $116 $117 forward $38 $-1 #
coedge $-1 $43 $40 $118 $119 forward $21 $-1 #
coedge $-1 $40 $43 $120 $121 reversed $21 $-1 #
coedge $-1 $115 $122 $40 $73 reversed $38 $-1 #
edge $-1 $123 0 $124 1.8500000000000014 $72 $125 forward 7 unknown #
coedge $-1 $118 $45 $41 $75 reversed $83 $-1 #
edge $-1 $80 0 $47 12.75 $74 $126 forward 7 unknown #
coedge $-1 $42 $106 $127 $128 reversed $13 $-1 #
coedge $-1 $129 $120 $42 $78 forward $130 $-1 #
edge $-1 $79 0 $131 9.850000000000076 $42 $132 forward 7 unknown #
vertex $-1 $78 $133 #
vertex $-1 $75 $134 #
straight-curve $-1 -99 -0.25 -10.149999999999999 0 0 -1 I I #
coedge $-1 $45 $135 $95 $136 reversed $83 $-1 #
loop $-1 $-1 $118 $137 #
vertex $-1 $46 $138 #
ellipse-curve $-1 -98 -13.000000000000002 -12 0 0 1 -1 1.7763568394002505e-015 0 1 I I #
point $-1 -99 -13 -12 #
coedge $-1 $57 $49 $139 $140 forward $6 $-1 #
coedge $-1 $141 $142 $49 $89 reversed $143 $-1 #
edge $-1 $93 0 $144 2 $49 $145 forward 7 unknown #
coedge $-1 $146 $50 $53 $96 forward $92 $-1 #
coedge $-1 $50 $146 $141 $147 reversed $92 $-1 #
loop $-1 $-1 $90 $148 #
vertex $-1 $89 $149 #
straight-curve $-1 -96 -14 12 0 1 0 I I #
coedge $-1 $53 $52 $82 $136 forward $54 $-1 #
edge $-1 $55 0 $150 24 $53 $151 forward 7 unknown #
face $-1 $137 $54 $3 $-1 $152 forward single #
point $-1 -96 -14 12 #
coedge $-1 $153 $154 $57 $100 reversed $38 $-1 #
edge $-1 $155 0 $104 12.75 $57 $156 forward 7 unknown #
coedge $-1 $157 $58 $154 $158 forward $103 $-1 #
coedge $-1 $58 $157 $60 $107 reversed $103 $-1 #
loop $-1 $-1 $102 $110 #
vertex $-1 $59 $159 #
straight-curve $-1 -98.75 -0.25 12 -1 0 0 I I #
coedge $-1 $76 $60 $160 $161 reversed $13 $-1 #
edge $-1 $61 0 $162 1.8499999999999996 $60 $163 forward 7 unknown #
point $-1 -99 -0.25 12 #
straight-curve $-1 -98 -14 12 0 0 -1 I I #
face $-1 $164 $103 $3 $-1 $165 forward single #
loop $-1 $-1 $166 $66 #
plane-surface $-1 -99 -8.9411764705882462 5.514705882352934 0 -0.47058823529411764 0.88235294117647056 0 0.88235294117647056 0.47058823529411764 forward_v I I I I #
coedge $-1 $116 $127 $167 $168 forward $67 $-1 #
coedge $-1 $154 $69 $169 $170 forward $38 $-1 #
coedge $-1 $69 $72 $171 $172 forward $38 $-1 #
coedge $-1 $173 $113 $69 $117 reversed $67 $-1 #
edge $-1 $174 0 $175 2.1616780010823362 $69 $176 forward 7 unknown #
coedge $-1 $177 $74 $70 $119 reversed $83 $-1 #
edge $-1 $124 0 $80 0.25 $118 $178 forward 7 unknown #
coedge $-1 $77 $171 $71 $121 forward $130 $-1 #
edge $-1 $123 0 $79 0.25 $71 $179 forward 7 unknown #
coedge $-1 $72 $153 $177 $180 forward $38 $-1 #
vertex $-1 $172 $181 #
vertex $-1 $180 $182 #
straight-curve $-1 -98.75 -0.25 -10.149999999999999 0 0 -1 I I #
straight-curve $-1 -99 -0.25 -12 0 -1 0 I I #
coedge $-1 $113 $173 $76 $128 forward $67 $-1 #
edge $-1 $131 0 $183 2.1616780010823193 $76 $184 forward 7 unknown #
coedge $-1 $171 $77 $173 $185 forward $130 $-1 #
loop $-1 $-1 $129 $164 #
vertex $-1 $78 $186 #
straight-curve $-1 -99 -0.25 -10.149999999999999 0 -0.88235294117647067 0.47058823529411764 I I #
point $-1 -99 -0.25 -10.149999999999999 #
point $-1 -99 -0.25 -12 #
coedge $-1 $82 $187 $146 $188 reversed $83 $-1 #
edge $-1 $84 0 $150 2 $82 $189 forward 7 unknown #
face $-1 $-1 $83 $3 $-1 $190 reversed single #
point $-1 -98 -14 -12 #
coedge $-1 $191 $192 $87 $140 reversed $193 $-1 #
edge $-1 $144 0 $155 1.5707963267948966 $87 $194 forward 7 unknown #
coedge $-1 $195 $88 $91 $147 forward $143 $-1 #
coedge $-1 $88 $195 $191 $196 reversed $143 $-1 #
loop $-1 $-1 $141 $197 #
vertex $-1 $140 $198 #
straight-curve $-1 -96 -13.75 12 -1 0 0 I I #
coedge $-1 $91 $90 $135 $188 forward $92 $-1 #
edge $-1 $93 0 $199 24 $91 $200 forward 7 unknown #
face $-1 $97 $92 $3 $-1 $201 forward single #
point $-1 -96 -13.75 12 #
vertex $-1 $136 $202 #
straight-curve $-1 -96 -14 12 0 0 -1 I I #
plane-surface $-1 -98 -14 12 0 -1 0 1 0 0 forward_v I I I I #
coedge $-1 $122 $99 $192 $203 forward $38 $-1 #
coedge $-1 $99 $114 $101 $158 reversed $38 $-1 #
vertex $-1 $100 $204 #
straight-curve $-1 -98.75 -13 12 0 1 0 I I #
coedge $-1 $102 $101 $166 $205 forward $103 $-1 #
edge $-1 $104 0 $206 1.8499999999999996 $154 $207 forward 7 unknown #
point $-1 -98.75 -0.25 12 #
coedge $-1 $166 $167 $106 $161 forward $111 $-1 #
edge $-1 $183 4.179663151530001e-016 $162 9.8500000000000352 $106 $208 forward 7 unknown #
vertex $-1 $161 $209 #
straight-curve $-1 -99 -0.25 12 0 0 -1 I I #
face $-1 $210 $130 $3 $-1 $211 reversed single #
plane-surface $-1 -98.75 -0.25 12 0 1 0 -1 0 0 forward_v I I I I #
coedge $-1 $169 $160 $157 $205 reversed $111 $-1 #
coedge $-1 $160 $169 $113 $168 reversed $111 $-1 #
edge $-1 $183 -9.687211916114025e-028 $175 0.25 $113 $212 forward 7 unknown #
coedge $-1 $167 $166 $114 $170 reversed $111 $-1 #
edge $-1 $175 4.4095446248641513e-014 $206 9.8500000000000458 $114 $213 forward 7 unknown #
coedge $-1 $120 $129 $115 $172 reversed $130 $-1 #
edge $-1 $123 0 $174 9.850000000000005 $115 $214 forward 7 unknown #
coedge $-1 $127 $116 $129 $185 reversed $67 $-1 #
vertex $-1 $172 $215 #
vertex $-1 $170 $216 #
ellipse-curve $-1 -98.75 -6.0000000000000018 0 -1 0 0 0 -2.9411764705882373 -5.5147058823529385 1 I I #
coedge $-1 $217 $118 $122 $180 reversed $83 $-1 #
straight-curve $-1 -98.75 -0.25 -12 -1 0 0 I I #
straight-curve $-1 -98.75 -0.25 -10.149999999999999 -1 0 0 I I #
edge $-1 $218 0 $124 12.75 $177 $219 forward 7 unknown #
point $-1 -98.75 -0.25 -10.149999999999999 #
point $-1 -98.75 -0.25 -12 #
vertex $-1 $128 $220 #
ellipse-curve $-1 -99 -6 0 -1 0 0 0 -2.9411764705882995 -5.5147058823529029 1 I I #
edge $-1 $131 -5.4557620205085176e-027 $174 0.25 $129 $221 forward 7 unknown #
point $-1 -99 -8.9411764705882995 -5.5147058823529029 #
coedge $-1 $135 $217 $195 $222 reversed $83 $-1 #
edge $-1 $150 0 $199 0.25 $135 $223 forward 7 unknown #
straight-curve $-1 -98 -14 -12 1 0 0 I I #
plane-surface $-1 0 0 -12 0 0 1 1 0 0 forward_v I I I I #
coedge $-1 $224 $139 $142 $196 forward $193 $-1 #
coedge $-1 $139 $224 $153 $203 reversed $193 $-1 #
loop $-1 $-1 $191 $210 #
ellipse-curve $-1 -98 -13 12 0 0 -1 0 -0.75 0 1 I I #
coedge $-1 $142 $141 $187 $222 forward $143 $-1 #
edge $-1 $144 0 $225 24 $142 $226 forward 7 unknown #
face $-1 $148 $143 $3 $-1 $227 forward single #
point $-1 -98 -13.75 12 #
vertex $-1 $188 $228 #
straight-curve $-1 -96 -13.75 12 0 0 -1 I I #
plane-surface $-1 -96 -14 12 1 0 0 0 1 0 forward_v I I I I #
point $-1 -96 -14 -12 #
edge $-1 $155 0 $218 24 $192 $229 forward 7 unknown #
point $-1 -98.75 -13 12 #
edge $-1 $206 0 $162 0.25 $157 $230 forward 7 unknown #
vertex $-1 $158 $231 #
straight-curve $-1 -98.75 -0.25 12 0 0 -1 I I #
straight-curve $-1 -99 -8.9411764705882639 5.5147058823529242 0 0.88235294117647056 0.47058823529411753 I I #
point $-1 -99 -0.25 10.15 #
face $-1 $197 $193 $3 $-1 $232 reversed single #
plane-surface $-1 -99 -0.25 -10.149999999999999 0 -0.47058823529411764 -0.88235294117647056 0 -0.88235294117647056 0.47058823529411764 forward_v I I I I #
straight-curve $-1 -99 -8.9411764705882479 5.5147058823529349 1 4.9737991503207013e-014 1.7763568394002505e-014 I I #
straight-curve $-1 -98.75 -8.9411764705882746 5.5147058823529189 0 0.88235294117647067 0.47058823529411759 I I #
straight-curve $-1 -98.75 -0.25 -10.149999999999999 0 -0.88235294117647067 0.4705882352941177 I I #
point $-1 -98.75 -8.9411764705882391 -5.5147058823529385 #
point $-1 -98.75 -8.9411764705882355 5.5147058823529393 #
coedge $-1 $187 $177 $224 $233 reversed $83 $-1 #
vertex $-1 $233 $234 #
straight-curve $-1 -98.75 -13 -12 0 1 0 I I #
point $-1 -99 -8.9411764705882639 5.5147058823529251 #
straight-curve $-1 -99 -8.9411764705882657 -5.5147058823529234 1 1.2079226507921703e-013 -6.7501559897209518e-014 I I #
edge $-1 $199 0 $225 2 $187 $235 forward 7 unknown #
straight-curve $-1 -96 -14 -12 0 1 0 I I #
coedge $-1 $192 $191 $217 $233 forward $193 $-1 #
vertex $-1 $222 $236 #
straight-curve $-1 -98 -13.75 12 0 0 -1 I I #
plane-surface $-1 -96 -13.75 12 0 1 0 -1 0 0 forward_v I I I I #
point $-1 -96 -13.75 -12 #
straight-curve $-1 -98.75 -13 12 0 0 -1 I I #
straight-curve $-1 -98.75 -0.24999999999999822 10.149999999999999 -1 0 0 I I #
point $-1 -98.75 -0.25 10.15 #
cone-surface $-1 -98 -13 12 0 0 1 0.75 0 0 1 I I 0 1 0.75 forward I I I I #
edge $-1 $225 0 $218 1.570796326794899 $217 $237 forward 7 unknown #
point $-1 -98.75 -13 -12 #
straight-curve $-1 -96 -13.75 -12 -1 0 0 I I #
point $-1 -98 -13.75 -12 #
ellipse-curve $-1 -98 -13.000000000000002 -12 0 0 -1 0 -0.74999999999999822 0 1 I I #
End-of-ACIS-data 