600 0 1 0           
92 GICL Pro/E ACIS Translator - Source: f:/data5/repository/PTC/V18/lrgasm18/switch.prt.2 - 6 0 13 ACIS 6.0.3 NT 24 Thu Apr 04 13:34:43 2002 
1 9.9999999999999995e-007 1e-010 
body $-1 $1 $-1 $2 #
lump $-1 $-1 $3 $0 #
transform $-1 1 0 0 0 1 0 0 0 1 0 0 0 25.399999999999999 no_rotate no_reflect no_shear #
shell $-1 $-1 $-1 $4 $-1 $1 #
face $-1 $5 $6 $3 $-1 $7 reversed single #
face $-1 $8 $9 $3 $-1 $10 reversed single #
loop $-1 $11 $12 $4 #
plane-surface $-1 0 0 0 0 0 1 1 0 0 forward_v I I I I #
face $-1 $13 $14 $3 $-1 $15 reversed single #
loop $-1 $-1 $16 $5 #
cone-surface $-1 0 1.5 0.099999999999999992 0 0 -1 -0.125 0 0 1 I I 0 1 0.125 forward I I I I #
loop $-1 $17 $18 $4 #
coedge $-1 $19 $19 $20 $21 reversed $6 $-1 #
face $-1 $22 $23 $3 $-1 $24 forward single #
loop $-1 $-1 $25 $8 #
cone-surface $-1 0 1.5 0.099999999999999992 0 0 -1 -0.125 0 0 1 I I 0 1 0.125 forward I I I I #
coedge $-1 $26 $20 $27 $28 reversed $9 $-1 #
loop $-1 $-1 $29 $4 #
coedge $-1 $30 $31 $32 $33 reversed $11 $-1 #
coedge $-1 $12 $12 $34 $35 reversed $6 $-1 #
coedge $-1 $16 $36 $12 $21 forward $9 $-1 #
edge $-1 $37 0 $38 3.1415926535897967 $12 $39 forward 7 unknown #
face $-1 $40 $41 $3 $-1 $42 reversed single #
loop $-1 $43 $44 $13 #
plane-surface $-1 0 0 0.099999999999999992 0 0 1 1 0 0 forward_v I I I I #
coedge $-1 $45 $34 $36 $46 reversed $14 $-1 #
coedge $-1 $36 $16 $44 $47 reversed $9 $-1 #
coedge $-1 $34 $45 $16 $28 forward $14 $-1 #
edge $-1 $48 0 $38 0.099999999999999992 $27 $49 forward 7 unknown #
coedge $-1 $50 $50 $51 $52 reversed $17 $-1 #
coedge $-1 $53 $18 $54 $55 reversed $11 $-1 #
coedge $-1 $18 $53 $56 $57 reversed $11 $-1 #
coedge $-1 $58 $59 $18 $33 forward $60 $-1 #
edge $-1 $61 0 $62 4 $18 $63 forward 7 unknown #
coedge $-1 $25 $27 $19 $35 forward $14 $-1 #
edge $-1 $38 0 $37 3.1415926535897967 $19 $64 forward 7 unknown #
coedge $-1 $20 $26 $25 $46 forward $9 $-1 #
vertex $-1 $35 $65 #
vertex $-1 $35 $66 #
ellipse-curve $-1 0 1.4999999999999998 0 0 0 -1 0.125 2.2204460492503131e-016 0 1 I I #
face $-1 $67 $68 $3 $-1 $69 reversed single #
loop $-1 $-1 $70 $22 #
plane-surface $-1 -2 -3.3999999999999999 0 0 -1 0 1 0 0 forward_v I I I I #
loop $-1 $71 $72 $13 #
coedge $-1 $73 $73 $26 $47 forward $23 $-1 #
coedge $-1 $27 $25 $73 $74 reversed $14 $-1 #
edge $-1 $75 0 $37 0.099999999999999992 $25 $76 forward 7 unknown #
edge $-1 $75 0 $48 3.1415926535897931 $44 $77 forward 7 unknown #
vertex $-1 $74 $78 #
straight-curve $-1 -0.125 1.5 0.099999999999999992 0 0 -1 I I #
coedge $-1 $29 $29 $79 $80 reversed $17 $-1 #
coedge $-1 $81 $82 $29 $52 forward $83 $-1 #
edge $-1 $84 0 $85 3.1415926535897967 $29 $86 forward 7 unknown #
coedge $-1 $31 $30 $87 $88 reversed $11 $-1 #
coedge $-1 $89 $90 $30 $55 forward $91 $-1 #
edge $-1 $92 0 $61 7 $30 $93 forward 7 unknown #
coedge $-1 $94 $95 $31 $57 forward $96 $-1 #
edge $-1 $62 0 $97 7 $31 $98 forward 7 unknown #
coedge $-1 $99 $32 $95 $100 forward $60 $-1 #
coedge $-1 $32 $99 $89 $101 reversed $60 $-1 #
loop $-1 $-1 $58 $102 #
vertex $-1 $55 $103 #
vertex $-1 $57 $104 #
straight-curve $-1 2 3.5 0 -1 0 0 I I #
ellipse-curve $-1 0 1.5000000000000002 0 0 0 -1 -0.125 -2.2204460492503131e-016 0 1 I I #
point $-1 0.125 1.5 0 #
point $-1 -0.125 1.5 0 #
face $-1 $105 $106 $3 $-1 $107 reversed single #
loop $-1 $-1 $108 $40 #
plane-surface $-1 -1.8999999999999999 3.5 0 -1 0 0 0 -1 0 forward_v I I I I #
coedge $-1 $109 $110 $111 $112 forward $41 $-1 #
loop $-1 $-1 $113 $13 #
coedge $-1 $114 $115 $110 $116 forward $43 $-1 #
coedge $-1 $44 $44 $45 $74 forward $23 $-1 #
edge $-1 $48 0 $75 3.1415926535897931 $73 $117 forward 7 unknown #
vertex $-1 $74 $118 #
straight-curve $-1 0.125 1.5 0.099999999999999992 0 0 -1 I I #
ellipse-curve $-1 0 1.5 0.099999999999999992 0 0 -1 0.125 0 0 1 I I #
point $-1 -0.125 1.5 0.099999999999999992 #
coedge $-1 $119 $120 $50 $80 forward $121 $-1 #
edge $-1 $85 0 $84 3.1415926535897967 $50 $122 forward 7 unknown #
coedge $-1 $123 $51 $120 $124 reversed $83 $-1 #
coedge $-1 $51 $123 $119 $125 forward $83 $-1 #
loop $-1 $-1 $81 $126 #
vertex $-1 $80 $127 #
vertex $-1 $80 $128 #
ellipse-curve $-1 0 -1.5000000000000002 0 0 0 -1 0.125 2.2204460492503131e-016 0 1 I I #
coedge $-1 $129 $130 $53 $88 forward $131 $-1 #
edge $-1 $97 0 $92 4 $53 $132 forward 7 unknown #
coedge $-1 $133 $54 $59 $101 forward $91 $-1 #
coedge $-1 $54 $133 $129 $134 reversed $91 $-1 #
loop $-1 $-1 $89 $135 #
vertex $-1 $88 $136 #
straight-curve $-1 2 -3.5 0 0 1 0 I I #
coedge $-1 $137 $56 $130 $138 forward $96 $-1 #
coedge $-1 $56 $137 $58 $100 reversed $96 $-1 #
loop $-1 $-1 $94 $139 #
vertex $-1 $57 $140 #
straight-curve $-1 -2 3.5 0 0 -1 0 I I #
coedge $-1 $59 $58 $141 $142 reversed $60 $-1 #
edge $-1 $62 0 $143 3.5 $95 $144 forward 7 unknown #
edge $-1 $61 0 $145 3.5 $89 $146 forward 7 unknown #
face $-1 $139 $60 $3 $-1 $147 forward single #
point $-1 2 3.5 0 #
point $-1 -2 3.5 0 #
face $-1 $148 $149 $3 $-1 $150 reversed single #
loop $-1 $-1 $151 $67 #
plane-surface $-1 2 3.3999999999999999 0 0 1 0 -1 0 0 forward_v I I I I #
coedge $-1 $152 $153 $154 $155 forward $68 $-1 #
coedge $-1 $156 $70 $157 $158 forward $41 $-1 #
coedge $-1 $70 $156 $72 $116 reversed $41 $-1 #
coedge $-1 $153 $152 $70 $112 reversed $68 $-1 #
edge $-1 $159 0 $160 3.3999999999999999 $111 $161 forward 7 unknown #
coedge $-1 $162 $162 $123 $163 forward $71 $-1 #
coedge $-1 $164 $72 $165 $166 forward $43 $-1 #
coedge $-1 $72 $164 $153 $167 forward $43 $-1 #
edge $-1 $159 0 $168 3.7999999999999998 $72 $169 forward 7 unknown #
ellipse-curve $-1 0 1.5 0.099999999999999992 0 0 -1 -0.125 0 0 1 I I #
point $-1 0.125 1.5 0.099999999999999992 #
coedge $-1 $170 $79 $82 $125 reversed $121 $-1 #
coedge $-1 $79 $170 $81 $124 forward $121 $-1 #
loop $-1 $-1 $119 $171 #
ellipse-curve $-1 0 -1.4999999999999998 0 0 0 -1 -0.125 -2.2204460492503131e-016 0 1 I I #
coedge $-1 $82 $81 $113 $163 reversed $83 $-1 #
edge $-1 $172 0 $85 0.099999999999999992 $120 $173 forward 7 unknown #
edge $-1 $174 0 $84 0.099999999999999992 $119 $175 forward 7 unknown #
face $-1 $171 $83 $3 $-1 $176 reversed single #
point $-1 0.125 -1.5 0 #
point $-1 -0.125 -1.5 0 #
coedge $-1 $177 $87 $90 $134 forward $131 $-1 #
coedge $-1 $87 $177 $94 $138 reversed $131 $-1 #
loop $-1 $-1 $129 $178 #
straight-curve $-1 -2 -3.5 0 1 0 0 I I #
coedge $-1 $90 $89 $179 $180 reversed $91 $-1 #
edge $-1 $92 0 $181 3.5 $129 $182 forward 7 unknown #
face $-1 $102 $91 $3 $-1 $183 forward single #
point $-1 2 -3.5 0 #
coedge $-1 $95 $94 $184 $185 reversed $96 $-1 #
edge $-1 $97 0 $186 3.5 $94 $187 forward 7 unknown #
face $-1 $126 $96 $3 $-1 $188 forward single #
point $-1 -2 -3.5 0 #
coedge $-1 $184 $179 $99 $142 forward $189 $-1 #
edge $-1 $145 0 $143 4 $99 $190 forward 7 unknown #
vertex $-1 $100 $191 #
straight-curve $-1 -2 3.5 0 0 0 1 I I #
vertex $-1 $180 $192 #
straight-curve $-1 2 3.5 0 0 0 1 I I #
plane-surface $-1 2 3.5 0 0 1 0 -1 0 0 forward_v I I I I #
face $-1 $178 $189 $3 $-1 $193 forward single #
loop $-1 $-1 $194 $105 #
plane-surface $-1 1.8999999999999999 -3.5 0 1 0 0 0 1 0 forward_v I I I I #
coedge $-1 $195 $196 $197 $198 forward $106 $-1 #
coedge $-1 $111 $108 $199 $200 forward $68 $-1 #
coedge $-1 $108 $111 $115 $167 reversed $68 $-1 #
coedge $-1 $196 $195 $108 $155 reversed $106 $-1 #
edge $-1 $201 0 $202 3.3999999999999999 $108 $203 forward 7 unknown #
coedge $-1 $110 $109 $194 $204 reversed $41 $-1 #
coedge $-1 $199 $205 $109 $158 reversed $206 $-1 #
edge $-1 $160 0 $207 3.7999999999999998 $157 $208 forward 7 unknown #
vertex $-1 $167 $209 #
vertex $-1 $200 $210 #
straight-curve $-1 -1.8999999999999999 -3.4000000000000004 0.099999999999999992 0 0 1 I I #
coedge $-1 $113 $113 $170 $211 forward $71 $-1 #
edge $-1 $174 0 $172 3.1415926535897931 $113 $212 forward 7 unknown #
coedge $-1 $115 $114 $196 $213 forward $43 $-1 #
coedge $-1 $194 $197 $114 $166 reversed $149 $-1 #
edge $-1 $168 0 $214 6.7999999999999998 $114 $215 forward 7 unknown #
edge $-1 $201 0 $159 6.7999999999999998 $115 $216 forward 7 unknown #
vertex $-1 $166 $217 #
straight-curve $-1 -1.8999999999999999 -3.3999999999999999 0.099999999999999992 1 0 0 I I #
coedge $-1 $120 $119 $162 $211 reversed $121 $-1 #
face $-1 $-1 $121 $3 $-1 $218 reversed single #
vertex $-1 $211 $219 #
straight-curve $-1 -0.125 -1.5 0.099999999999999992 0 0 -1 I I #
vertex $-1 $211 $220 #
straight-curve $-1 0.125 -1.5 0.099999999999999992 0 0 -1 I I #
cone-surface $-1 0 -1.5 0.099999999999999992 0 0 -1 -0.125 0 0 1 I I 0 1 0.125 forward I I I I #
coedge $-1 $130 $129 $221 $222 reversed $131 $-1 #
face $-1 $135 $131 $3 $-1 $223 forward single #
coedge $-1 $141 $221 $133 $180 forward $189 $-1 #
edge $-1 $181 0 $145 7 $133 $224 forward 7 unknown #
vertex $-1 $222 $225 #
straight-curve $-1 2 -3.5 0 0 0 1 I I #
plane-surface $-1 2 -3.5 0 1 0 0 0 1 0 forward_v I I I I #
coedge $-1 $221 $141 $137 $185 forward $189 $-1 #
edge $-1 $143 0 $186 7 $137 $226 forward 7 unknown #
vertex $-1 $185 $227 #
straight-curve $-1 -2 -3.5 0 0 0 1 I I #
plane-surface $-1 -2 3.5 0 -1 0 0 0 -1 0 forward_v I I I I #
loop $-1 $206 $221 $148 #
straight-curve $-1 2 3.5 3.5 -1 0 0 I I #
point $-1 -2 3.5 3.5 #
point $-1 2 3.5 3.5 #
plane-surface $-1 0 0 3.5 0 0 1 1 0 0 forward_v I I I I #
coedge $-1 $228 $165 $156 $204 forward $149 $-1 #
coedge $-1 $154 $151 $229 $230 forward $106 $-1 #
coedge $-1 $151 $154 $164 $213 reversed $106 $-1 #
coedge $-1 $165 $228 $151 $198 reversed $149 $-1 #
edge $-1 $214 0 $231 3.3999999999999999 $197 $232 forward 7 unknown #
coedge $-1 $229 $157 $152 $200 reversed $206 $-1 #
edge $-1 $202 0 $160 6.7999999999999998 $199 $233 forward 7 unknown #
vertex $-1 $167 $234 #
vertex $-1 $200 $235 #
straight-curve $-1 -1.8999999999999999 3.3999999999999999 0.099999999999999992 0 0 1 I I #
edge $-1 $168 0 $207 3.3999999999999999 $156 $236 forward 7 unknown #
coedge $-1 $157 $229 $228 $237 reversed $206 $-1 #
loop $-1 $-1 $229 $148 #
vertex $-1 $158 $238 #
straight-curve $-1 -1.8999999999999999 -3.3999999999999999 3.5 1 0 0 I I #
point $-1 -1.8999999999999999 -3.3999999999999999 0.099999999999999992 #
point $-1 -1.8999999999999999 -3.3999999999999999 3.5 #
edge $-1 $172 0 $174 3.1415926535897931 $162 $239 forward 7 unknown #
ellipse-curve $-1 0 -1.5 0.099999999999999992 0 0 -1 0.125 0 0 1 I I #
edge $-1 $214 0 $201 3.7999999999999998 $164 $240 forward 7 unknown #
vertex $-1 $213 $241 #
straight-curve $-1 1.8999999999999999 -3.3999999999999999 0.099999999999999992 0 1 0 I I #
straight-curve $-1 -1.8999999999999999 3.3999999999999999 0.099999999999999992 0 -1 0 I I #
point $-1 1.8999999999999999 -3.3999999999999999 0.099999999999999992 #
cone-surface $-1 0 -1.5 0.099999999999999992 0 0 -1 -0.125 0 0 1 I I 0 1 0.125 forward I I I I #
point $-1 -0.125 -1.5 0.099999999999999992 #
point $-1 0.125 -1.5 0.099999999999999992 #
coedge $-1 $179 $184 $177 $222 forward $189 $-1 #
edge $-1 $186 0 $181 4 $177 $242 forward 7 unknown #
plane-surface $-1 -2 -3.5 0 0 -1 0 1 0 0 forward_v I I I I #
straight-curve $-1 2 -3.5 3.5 0 1 0 I I #
point $-1 2 -3.5 3.5 #
straight-curve $-1 -2 3.5 3.5 0 -1 0 I I #
point $-1 -2 -3.5 3.5 #
coedge $-1 $197 $194 $205 $237 forward $149 $-1 #
coedge $-1 $205 $199 $195 $230 reversed $206 $-1 #
edge $-1 $231 0 $202 3.7999999999999998 $229 $243 forward 7 unknown #
vertex $-1 $237 $244 #
straight-curve $-1 1.8999999999999999 3.4000000000000004 0.099999999999999992 0 0 1 I I #
straight-curve $-1 -1.8999999999999999 3.3999999999999999 3.5 0 -1 0 I I #
point $-1 -1.8999999999999999 3.3999999999999999 0.099999999999999992 #
point $-1 -1.8999999999999999 3.3999999999999999 3.5 #
straight-curve $-1 1.8999999999999999 -3.3999999999999999 0.099999999999999992 0 0 1 I I #
edge $-1 $207 4.4408920985006262e-016 $231 6.7999999999999998 $205 $245 forward 7 unknown #
point $-1 1.8999999999999999 -3.3999999999999995 3.5 #
ellipse-curve $-1 0 -1.5 0.099999999999999992 0 0 -1 -0.125 0 0 1 I I #
straight-curve $-1 1.8999999999999999 3.3999999999999999 0.099999999999999992 -1 0 0 I I #
point $-1 1.8999999999999999 3.3999999999999999 0.099999999999999992 #
straight-curve $-1 -2 -3.5 3.5 1 0 0 I I #
straight-curve $-1 1.8999999999999999 3.3999999999999999 3.5 -1 0 0 I I #
point $-1 1.8999999999999999 3.3999999999999999 3.5 #
straight-curve $-1 1.8999999999999999 -3.3999999999999999 3.5 0 1 0 I I #
End-of-ACIS-data 