600 0 1 0           
98 GICL Pro/E ACIS Translator - Source: f:/data5/repository/PTC/V18/lrgasm18/switch_cover.prt.2 - 6 0 13 ACIS 6.0.3 NT 24 Thu Apr 04 13:34:46 2002 
1 9.9999999999999995e-007 1e-010 
body $-1 $1 $-1 $2 #
lump $-1 $-1 $3 $0 #
transform $-1 1 0 0 0 1 0 0 0 1 0 0 0 25.399999999999999 no_rotate no_reflect no_shear #
shell $-1 $-1 $-1 $4 $-1 $1 #
face $-1 $5 $6 $3 $-1 $7 reversed single #
face $-1 $8 $9 $3 $-1 $10 reversed single #
loop $-1 $11 $12 $4 #
plane-surface $-1 0 0 0 0 0 1 1 0 0 forward_v I I I I #
face $-1 $13 $14 $3 $-1 $15 reversed single #
loop $-1 $-1 $16 $5 #
cone-surface $-1 -1.7 -3.1999999999999997 0.099999999999999992 0 0 -1 -0.0625 0 0 1 I I 0 1 0.0625 forward I I I I #
loop $-1 $17 $18 $4 #
coedge $-1 $19 $19 $20 $21 reversed $6 $-1 #
face $-1 $22 $23 $3 $-1 $24 forward single #
loop $-1 $-1 $25 $8 #
cone-surface $-1 -1.7 -3.1999999999999997 0.099999999999999992 0 0 -1 -0.0625 0 0 1 I I 0 1 0.0625 forward I I I I #
coedge $-1 $26 $20 $27 $28 reversed $9 $-1 #
loop $-1 $29 $30 $4 #
coedge $-1 $31 $31 $32 $33 reversed $11 $-1 #
coedge $-1 $12 $12 $34 $35 reversed $6 $-1 #
coedge $-1 $16 $36 $12 $21 forward $9 $-1 #
edge $-1 $37 0 $38 3.1415926535898073 $12 $39 forward 7 unknown #
face $-1 $40 $41 $3 $-1 $42 reversed single #
loop $-1 $43 $44 $13 #
plane-surface $-1 0 0 0.099999999999999992 0 0 1 1 0 0 forward_v I I I I #
coedge $-1 $45 $34 $36 $46 reversed $14 $-1 #
coedge $-1 $36 $16 $44 $47 reversed $9 $-1 #
coedge $-1 $34 $45 $16 $28 forward $14 $-1 #
edge $-1 $48 0 $38 0.099999999999999992 $27 $49 forward 7 unknown #
loop $-1 $50 $51 $4 #
coedge $-1 $52 $52 $53 $54 reversed $17 $-1 #
coedge $-1 $18 $18 $55 $56 reversed $11 $-1 #
coedge $-1 $57 $58 $18 $33 forward $41 $-1 #
edge $-1 $59 0 $60 3.1415926535898073 $18 $61 forward 7 unknown #
coedge $-1 $25 $27 $19 $35 forward $14 $-1 #
edge $-1 $38 0 $37 3.1415926535897647 $19 $62 forward 7 unknown #
coedge $-1 $20 $26 $25 $46 forward $9 $-1 #
vertex $-1 $35 $63 #
vertex $-1 $35 $64 #
ellipse-curve $-1 -1.7 -3.2000000000000002 0 0 0 -1 0.0625 4.4408920985006262e-016 0 1 I I #
face $-1 $65 $66 $3 $-1 $67 reversed single #
loop $-1 $-1 $57 $22 #
cone-surface $-1 1.7 -3.1999999999999997 0.099999999999999992 0 0 -1 -0.0625 0 0 1 I I 0 1 0.0625 forward I I I I #
loop $-1 $68 $69 $13 #
coedge $-1 $70 $70 $26 $47 forward $23 $-1 #
coedge $-1 $27 $25 $70 $71 reversed $14 $-1 #
edge $-1 $72 0 $37 0.099999999999999992 $25 $73 forward 7 unknown #
edge $-1 $72 0 $48 3.1415926535897931 $44 $74 forward 7 unknown #
vertex $-1 $71 $75 #
straight-curve $-1 -1.7625 -3.1999999999999997 0.099999999999999992 0 0 -1 I I #
loop $-1 $76 $77 $4 #
coedge $-1 $78 $79 $80 $81 reversed $29 $-1 #
coedge $-1 $30 $30 $82 $83 reversed $17 $-1 #
coedge $-1 $84 $85 $30 $54 forward $86 $-1 #
edge $-1 $87 0 $88 3.1415926535897647 $30 $89 forward 7 unknown #
coedge $-1 $90 $91 $31 $56 forward $66 $-1 #
edge $-1 $60 0 $59 3.1415926535897647 $31 $92 forward 7 unknown #
coedge $-1 $93 $32 $91 $94 reversed $41 $-1 #
coedge $-1 $32 $93 $90 $95 forward $41 $-1 #
vertex $-1 $56 $96 #
vertex $-1 $56 $97 #
ellipse-curve $-1 1.7 -3.2000000000000002 0 0 0 -1 0.0625 4.4408920985006262e-016 0 1 I I #
ellipse-curve $-1 -1.6999999999999997 -3.2000000000000006 0 0 0 -1 -0.062500000000000222 8.8817841970012523e-016 0 1 I I #
point $-1 -1.6375 -3.1999999999999997 0 #
point $-1 -1.7625 -3.1999999999999997 0 #
face $-1 $98 $86 $3 $-1 $99 reversed single #
loop $-1 $-1 $90 $40 #
cone-surface $-1 1.7 -3.1999999999999997 0.099999999999999992 0 0 -1 -0.0625 0 0 1 I I 0 1 0.0625 forward I I I I #
loop $-1 $100 $101 $13 #
coedge $-1 $102 $102 $93 $103 forward $43 $-1 #
coedge $-1 $44 $44 $45 $71 forward $23 $-1 #
edge $-1 $48 0 $72 3.1415926535897931 $70 $104 forward 7 unknown #
vertex $-1 $71 $105 #
straight-curve $-1 -1.6375 -3.1999999999999997 0.099999999999999992 0 0 -1 I I #
ellipse-curve $-1 -1.7 -3.1999999999999997 0.099999999999999992 0 0 -1 0.0625 0 0 1 I I #
point $-1 -1.7625 -3.1999999999999997 0.099999999999999992 #
loop $-1 $106 $107 $4 #
coedge $-1 $108 $108 $109 $110 reversed $50 $-1 #
coedge $-1 $111 $51 $112 $113 reversed $29 $-1 #
coedge $-1 $51 $111 $114 $115 reversed $29 $-1 #
coedge $-1 $116 $117 $51 $81 forward $118 $-1 #
edge $-1 $119 0 $120 4 $51 $121 forward 7 unknown #
coedge $-1 $122 $123 $52 $83 forward $124 $-1 #
edge $-1 $88 0 $87 3.1415926535898073 $52 $125 forward 7 unknown #
coedge $-1 $126 $53 $123 $127 reversed $86 $-1 #
coedge $-1 $53 $126 $122 $128 forward $86 $-1 #
loop $-1 $-1 $84 $65 #
vertex $-1 $83 $129 #
vertex $-1 $83 $130 #
ellipse-curve $-1 -1.7 3.2000000000000006 0 0 0 -1 0.0625 -8.8817841970012523e-016 0 1 I I #
coedge $-1 $131 $55 $58 $95 reversed $66 $-1 #
coedge $-1 $55 $131 $57 $94 forward $66 $-1 #
ellipse-curve $-1 1.6999999999999997 -3.2000000000000006 0 0 0 -1 -0.062499999999999778 8.8817841970012523e-016 0 1 I I #
coedge $-1 $58 $57 $69 $103 reversed $41 $-1 #
edge $-1 $132 0 $60 0.099999999999999992 $91 $133 forward 7 unknown #
edge $-1 $134 0 $59 0.099999999999999992 $90 $135 forward 7 unknown #
point $-1 1.7625 -3.1999999999999997 0 #
point $-1 1.6375 -3.1999999999999997 0 #
face $-1 $136 $124 $3 $-1 $137 reversed single #
cone-surface $-1 -1.7 3.1999999999999997 0.099999999999999992 0 0 -1 -0.0625 0 0 1 I I 0 1 0.0625 forward I I I I #
loop $-1 $138 $139 $13 #
coedge $-1 $140 $140 $126 $141 forward $68 $-1 #
coedge $-1 $69 $69 $131 $142 forward $43 $-1 #
edge $-1 $134 0 $132 3.1415926535897931 $69 $143 forward 7 unknown #
ellipse-curve $-1 -1.7 -3.1999999999999997 0.099999999999999992 0 0 -1 -0.0625 0 0 1 I I #
point $-1 -1.6375 -3.1999999999999997 0.099999999999999992 #
loop $-1 $-1 $144 $4 #
coedge $-1 $145 $145 $146 $147 reversed $76 $-1 #
coedge $-1 $77 $77 $148 $149 reversed $50 $-1 #
coedge $-1 $150 $151 $77 $110 forward $152 $-1 #
edge $-1 $153 0 $154 3.1415926535897931 $77 $155 forward 7 unknown #
coedge $-1 $79 $78 $156 $157 reversed $29 $-1 #
coedge $-1 $158 $159 $78 $113 forward $160 $-1 #
edge $-1 $161 0 $119 7 $78 $162 forward 7 unknown #
coedge $-1 $163 $164 $79 $115 forward $165 $-1 #
edge $-1 $120 0 $166 7 $79 $167 forward 7 unknown #
coedge $-1 $168 $80 $164 $169 forward $118 $-1 #
coedge $-1 $80 $168 $158 $170 reversed $118 $-1 #
loop $-1 $-1 $116 $171 #
vertex $-1 $113 $172 #
vertex $-1 $115 $173 #
straight-curve $-1 2 3.5 0 -1 0 0 I I #
coedge $-1 $174 $82 $85 $128 reversed $124 $-1 #
coedge $-1 $82 $174 $84 $127 forward $124 $-1 #
loop $-1 $-1 $122 $98 #
ellipse-curve $-1 -1.6999999999999997 3.2000000000000002 0 0 0 -1 -0.062500000000000222 -4.4408920985006262e-016 0 1 I I #
coedge $-1 $85 $84 $101 $141 reversed $86 $-1 #
edge $-1 $175 0 $88 0.099999999999999992 $123 $176 forward 7 unknown #
edge $-1 $177 0 $87 0.099999999999999992 $122 $178 forward 7 unknown #
point $-1 -1.6375 3.1999999999999997 0 #
point $-1 -1.7625 3.1999999999999997 0 #
coedge $-1 $91 $90 $102 $142 reversed $66 $-1 #
vertex $-1 $142 $179 #
straight-curve $-1 1.6375 -3.1999999999999997 0.099999999999999992 0 0 -1 I I #
vertex $-1 $142 $180 #
straight-curve $-1 1.7625 -3.1999999999999997 0.099999999999999992 0 0 -1 I I #
face $-1 $181 $182 $3 $-1 $183 forward single #
cone-surface $-1 -1.7 3.1999999999999997 0.099999999999999992 0 0 -1 -0.0625 0 0 1 I I 0 1 0.0625 forward I I I I #
loop $-1 $184 $185 $13 #
coedge $-1 $186 $187 $188 $189 forward $100 $-1 #
coedge $-1 $101 $101 $174 $190 forward $68 $-1 #
edge $-1 $177 0 $175 3.1415926535897931 $101 $191 forward 7 unknown #
edge $-1 $132 0 $134 3.1415926535897931 $102 $192 forward 7 unknown #
ellipse-curve $-1 1.7 -3.1999999999999997 0.099999999999999992 0 0 -1 0.0625 0 0 1 I I #
coedge $-1 $193 $193 $194 $195 reversed $106 $-1 #
coedge $-1 $107 $107 $196 $197 reversed $76 $-1 #
coedge $-1 $198 $199 $107 $147 forward $200 $-1 #
edge $-1 $201 0 $202 3.1415926535897931 $107 $203 forward 7 unknown #
coedge $-1 $204 $205 $108 $149 forward $206 $-1 #
edge $-1 $154 0 $153 3.1415926535897931 $108 $207 forward 7 unknown #
coedge $-1 $208 $109 $205 $209 reversed $152 $-1 #
coedge $-1 $109 $208 $204 $210 reversed $152 $-1 #
loop $-1 $-1 $109 $211 #
vertex $-1 $149 $212 #
vertex $-1 $149 $213 #
ellipse-curve $-1 0 1.75 0 0 0 -1 1 0 0 1 I I #
coedge $-1 $214 $215 $111 $157 forward $182 $-1 #
edge $-1 $166 0 $161 4 $111 $216 forward 7 unknown #
coedge $-1 $217 $112 $117 $170 forward $160 $-1 #
coedge $-1 $112 $217 $214 $218 reversed $160 $-1 #
loop $-1 $-1 $158 $181 #
vertex $-1 $157 $219 #
straight-curve $-1 2 -3.5 0 0 1 0 I I #
coedge $-1 $220 $114 $215 $221 forward $165 $-1 #
coedge $-1 $114 $220 $116 $169 reversed $165 $-1 #
loop $-1 $-1 $163 $222 #
vertex $-1 $115 $223 #
straight-curve $-1 -2 3.5 0 0 -1 0 I I #
coedge $-1 $117 $116 $224 $225 reversed $118 $-1 #
edge $-1 $120 0 $226 0.099999999999999992 $164 $227 forward 7 unknown #
edge $-1 $119 0 $228 0.099999999999999992 $158 $229 forward 7 unknown #
face $-1 $222 $118 $3 $-1 $230 forward single #
point $-1 2 3.5 0 #
point $-1 -2 3.5 0 #
coedge $-1 $123 $122 $140 $190 reversed $124 $-1 #
vertex $-1 $190 $231 #
straight-curve $-1 -1.7625 3.1999999999999997 0.099999999999999992 0 0 -1 I I #
vertex $-1 $190 $232 #
straight-curve $-1 -1.6375 3.1999999999999997 0.099999999999999992 0 0 -1 I I #
point $-1 1.6375 -3.1999999999999997 0.099999999999999992 #
point $-1 1.7625 -3.1999999999999997 0.099999999999999992 #
face $-1 $171 $160 $3 $-1 $233 forward single #
loop $-1 $-1 $214 $136 #
plane-surface $-1 -2 -3.5 0 0 -1 0 1 0 0 forward_v I I I I #
loop $-1 $234 $235 $13 #
coedge $-1 $236 $236 $237 $238 reversed $138 $-1 #
coedge $-1 $224 $139 $217 $239 forward $100 $-1 #
coedge $-1 $139 $224 $220 $240 forward $100 $-1 #
coedge $-1 $215 $214 $139 $189 reversed $182 $-1 #
edge $-1 $241 0 $242 4 $139 $243 forward 7 unknown #
edge $-1 $175 0 $177 3.1415926535897931 $140 $244 forward 7 unknown #
ellipse-curve $-1 -1.7 3.1999999999999997 0.099999999999999992 0 0 -1 0.0625 0 0 1 I I #
ellipse-curve $-1 1.7 -3.1999999999999997 0.099999999999999992 0 0 -1 -0.0625 0 0 1 I I #
coedge $-1 $144 $144 $245 $246 reversed $106 $-1 #
coedge $-1 $247 $248 $144 $195 forward $249 $-1 #
edge $-1 $250 0 $251 3.1415926535897647 $144 $252 forward 7 unknown #
coedge $-1 $253 $254 $145 $197 forward $255 $-1 #
edge $-1 $202 0 $201 3.1415926535897931 $145 $256 forward 7 unknown #
coedge $-1 $257 $146 $254 $258 forward $200 $-1 #
coedge $-1 $146 $257 $253 $259 forward $200 $-1 #
loop $-1 $-1 $146 $260 #
vertex $-1 $197 $261 #
vertex $-1 $197 $262 #
ellipse-curve $-1 0 -1.75 0 0 0 -1 1 0 0 1 I I #
coedge $-1 $263 $148 $151 $210 forward $206 $-1 #
coedge $-1 $148 $263 $150 $209 forward $206 $-1 #
loop $-1 $-1 $148 $264 #
ellipse-curve $-1 0 1.75 0 0 0 -1 -1 0 0 1 I I #
coedge $-1 $151 $150 $265 $266 reversed $152 $-1 #
edge $-1 $267 0 $154 0.34999999999999998 $205 $268 forward 7 unknown #
edge $-1 $153 0 $269 0.34999999999999998 $204 $270 forward 7 unknown #
face $-1 $264 $152 $3 $-1 $271 reversed single #
point $-1 1 1.75 0 #
point $-1 -1 1.75 0 #
coedge $-1 $188 $156 $159 $218 forward $182 $-1 #
coedge $-1 $156 $188 $163 $221 reversed $182 $-1 #
straight-curve $-1 -2 -3.5 0 1 0 0 I I #
coedge $-1 $159 $158 $186 $239 reversed $160 $-1 #
edge $-1 $161 0 $242 0.099999999999999992 $214 $272 forward 7 unknown #
point $-1 2 -3.5 0 #
coedge $-1 $164 $163 $187 $240 reversed $165 $-1 #
edge $-1 $166 0 $241 0.099999999999999992 $163 $273 forward 7 unknown #
face $-1 $274 $165 $3 $-1 $275 forward single #
point $-1 -2 -3.5 0 #
coedge $-1 $187 $186 $168 $225 forward $100 $-1 #
edge $-1 $228 0 $226 4 $224 $276 forward 7 unknown #
vertex $-1 $240 $277 #
straight-curve $-1 -2 3.5 0 0 0 1 I I #
vertex $-1 $225 $278 #
straight-curve $-1 2 3.5 0 0 0 1 I I #
plane-surface $-1 2 3.5 0 0 1 0 -1 0 0 forward_v I I I I #
point $-1 -1.7625 3.1999999999999997 0.099999999999999992 #
point $-1 -1.6375 3.1999999999999997 0.099999999999999992 #
plane-surface $-1 2 -3.5 0 1 0 0 0 1 0 forward_v I I I I #
loop $-1 $-1 $279 $13 #
coedge $-1 $280 $280 $281 $282 reversed $184 $-1 #
coedge $-1 $185 $185 $283 $284 reversed $138 $-1 #
coedge $-1 $285 $286 $185 $238 forward $287 $-1 #
edge $-1 $288 0 $289 3.1415926535897931 $185 $290 forward 7 unknown #
edge $-1 $242 0 $228 7 $186 $291 forward 7 unknown #
edge $-1 $226 0 $241 7 $187 $292 forward 7 unknown #
vertex $-1 $240 $293 #
vertex $-1 $239 $294 #
straight-curve $-1 -2 -3.5 0.099999999999999992 1 0 0 I I #
ellipse-curve $-1 -1.7 3.1999999999999997 0.099999999999999992 0 0 -1 -0.0625 0 0 1 I I #
coedge $-1 $295 $296 $193 $246 forward $297 $-1 #
edge $-1 $251 0 $250 3.1415926535898073 $193 $298 forward 7 unknown #
coedge $-1 $299 $194 $296 $300 reversed $249 $-1 #
coedge $-1 $194 $299 $295 $301 forward $249 $-1 #
loop $-1 $-1 $247 $302 #
vertex $-1 $246 $303 #
vertex $-1 $246 $304 #
ellipse-curve $-1 1.7 3.2000000000000006 0 0 0 -1 0.0625 -8.8817841970012523e-016 0 1 I I #
coedge $-1 $305 $196 $199 $259 reversed $255 $-1 #
coedge $-1 $196 $305 $198 $258 reversed $255 $-1 #
loop $-1 $-1 $196 $306 #
ellipse-curve $-1 0 -1.75 0 0 0 -1 -1 0 0 1 I I #
coedge $-1 $199 $198 $307 $308 reversed $200 $-1 #
edge $-1 $202 0 $309 0.34999999999999998 $254 $310 forward 7 unknown #
edge $-1 $311 0 $201 0.34999999999999998 $253 $312 forward 7 unknown #
face $-1 $302 $200 $3 $-1 $313 reversed single #
point $-1 1 -1.75 0 #
point $-1 -1 -1.75 0 #
coedge $-1 $205 $204 $314 $315 reversed $206 $-1 #
face $-1 $316 $206 $3 $-1 $317 reversed single #
coedge $-1 $314 $314 $208 $266 forward $318 $-1 #
edge $-1 $269 -2.2204460492503131e-016 $267 3.1415926535897931 $208 $319 forward 7 unknown #
vertex $-1 $209 $320 #
straight-curve $-1 -1 1.7499999999999998 0.34999999999999998 0 0 -1 I I #
vertex $-1 $315 $321 #
straight-curve $-1 1 1.7500000000000002 0 0 0 1 I I #
cone-surface $-1 0 1.75 0.099999999999999992 0 0 -1 -1 0 0 1 I I 0 1 1 forward I I I I #
straight-curve $-1 2 -3.5 0 0 0 1 I I #
straight-curve $-1 -2 -3.5 0 0 0 1 I I #
face $-1 $322 $287 $3 $-1 $323 forward single #
plane-surface $-1 -2 3.5 0 -1 0 0 0 -1 0 forward_v I I I I #
straight-curve $-1 2 3.5 0.099999999999999992 -1 0 0 I I #
point $-1 -2 3.5 0.099999999999999992 #
point $-1 2 3.5 0.099999999999999992 #
coedge $-1 $324 $324 $299 $325 forward $234 $-1 #
coedge $-1 $235 $235 $326 $327 reversed $184 $-1 #
coedge $-1 $328 $329 $235 $282 forward $330 $-1 #
edge $-1 $331 0 $332 3.1415926535897931 $235 $333 forward 7 unknown #
coedge $-1 $334 $335 $236 $284 forward $336 $-1 #
edge $-1 $289 0 $288 3.1415926535897931 $236 $337 forward 7 unknown #
coedge $-1 $338 $237 $335 $339 forward $287 $-1 #
coedge $-1 $237 $338 $334 $340 reversed $287 $-1 #
loop $-1 $-1 $285 $274 #
vertex $-1 $284 $341 #
vertex $-1 $284 $342 #
ellipse-curve $-1 0 1.75 0.099999999999999992 0 0 1 -1.0999999999999999 0 0 1 I I #
straight-curve $-1 2 -3.5 0.099999999999999992 0 1 0 I I #
straight-curve $-1 -2 3.5 0.099999999999999992 0 -1 0 I I #
point $-1 -2 -3.5 0.099999999999999992 #
point $-1 2 -3.5 0.099999999999999992 #
coedge $-1 $343 $245 $248 $301 reversed $297 $-1 #
coedge $-1 $245 $343 $247 $300 forward $297 $-1 #
loop $-1 $-1 $295 $344 #
ellipse-curve $-1 1.6999999999999997 3.2000000000000002 0 0 0 -1 -0.062499999999999778 -4.4408920985006262e-016 0 1 I I #
coedge $-1 $248 $247 $279 $325 reversed $249 $-1 #
edge $-1 $345 0 $251 0.099999999999999992 $296 $346 forward 7 unknown #
edge $-1 $347 0 $250 0.099999999999999992 $295 $348 forward 7 unknown #
face $-1 $344 $249 $3 $-1 $349 reversed single #
point $-1 1.7625 3.1999999999999997 0 #
point $-1 1.6375 3.1999999999999997 0 #
coedge $-1 $254 $253 $350 $351 reversed $255 $-1 #
face $-1 $260 $255 $3 $-1 $352 reversed single #
coedge $-1 $350 $350 $257 $308 forward $353 $-1 #
edge $-1 $311 -2.2204460492503131e-016 $309 3.1415926535897927 $257 $354 forward 7 unknown #
vertex $-1 $258 $355 #
straight-curve $-1 -1 -1.75 0 0 0 1 I I #
vertex $-1 $351 $356 #
straight-curve $-1 1 -1.7499999999999998 0.34999999999999998 0 0 -1 I I #
cone-surface $-1 0 -1.75 0.099999999999999992 0 0 -1 -1 0 0 1 I I 0 1 1 forward I I I I #
coedge $-1 $265 $265 $263 $315 forward $318 $-1 #
edge $-1 $267 -2.2204460492503131e-016 $269 3.1415926535897931 $263 $357 forward 7 unknown #
face $-1 $358 $330 $3 $-1 $359 forward single #
cone-surface $-1 0 1.75 0.099999999999999992 0 0 -1 -1 0 0 1 I I 0 1 1 forward I I I I #
loop $-1 $-1 $265 $360 #
ellipse-curve $-1 0 1.75 0.34999999999999998 0 0 -1 1 0 0 1 I I #
point $-1 -1 1.7499999999999998 0.34999999999999998 #
point $-1 1 1.7500000000000002 0.34999999999999998 #
face $-1 $360 $336 $3 $-1 $361 forward single #
cone-surface $-1 0 1.75 0.099999999999999992 0 0 1 1.0999999999999999 0 0 1 I I 0 1 1.0999999999999999 forward I I I I #
coedge $-1 $279 $279 $343 $362 forward $234 $-1 #
edge $-1 $347 0 $345 3.1415926535897931 $279 $363 forward 7 unknown #
coedge $-1 $364 $365 $280 $327 forward $366 $-1 #
edge $-1 $332 0 $331 3.1415926535897931 $280 $367 forward 7 unknown #
coedge $-1 $368 $281 $365 $369 forward $330 $-1 #
coedge $-1 $281 $368 $364 $370 reversed $330 $-1 #
loop $-1 $-1 $328 $316 #
vertex $-1 $327 $371 #
vertex $-1 $327 $372 #
ellipse-curve $-1 0 -1.75 0.099999999999999992 0 0 1 -1.0999999999999999 0 0 1 I I #
coedge $-1 $373 $283 $286 $340 forward $336 $-1 #
coedge $-1 $283 $373 $285 $339 reversed $336 $-1 #
loop $-1 $-1 $334 $322 #
ellipse-curve $-1 0 1.75 0.099999999999999992 0 0 1 1.0999999999999999 0 0 1 I I #
coedge $-1 $286 $285 $374 $375 reversed $287 $-1 #
edge $-1 $289 0 $376 0.25 $335 $377 forward 7 unknown #
edge $-1 $288 0 $378 0.25 $334 $379 forward 7 unknown #
point $-1 -1.0999999999999999 1.75 0.099999999999999992 #
point $-1 1.0999999999999999 1.75 0.099999999999999992 #
coedge $-1 $296 $295 $324 $362 reversed $297 $-1 #
face $-1 $-1 $297 $3 $-1 $380 reversed single #
vertex $-1 $362 $381 #
straight-curve $-1 1.6375 3.1999999999999997 0.099999999999999992 0 0 -1 I I #
vertex $-1 $362 $382 #
straight-curve $-1 1.7625 3.1999999999999997 0.099999999999999992 0 0 -1 I I #
cone-surface $-1 1.7 3.1999999999999997 0.099999999999999992 0 0 -1 -0.0625 0 0 1 I I 0 1 0.0625 forward I I I I #
coedge $-1 $307 $307 $305 $351 forward $353 $-1 #
edge $-1 $309 0 $311 3.1415926535897931 $305 $383 forward 7 unknown #
cone-surface $-1 0 -1.75 0.099999999999999992 0 0 -1 -1 0 0 1 I I 0 1 1 forward I I I I #
loop $-1 $-1 $350 $384 #
ellipse-curve $-1 -2.7755575615628914e-017 -1.7499999999999998 0.34999999999999998 0 0 -1 1 -2.2204460492503131e-016 0 1 I I #
point $-1 -1 -1.75 0.34999999999999998 #
point $-1 1 -1.7499999999999998 0.34999999999999998 #
ellipse-curve $-1 2.7755575615628914e-017 1.75 0.34999999999999998 0 0 -1 -1 0 0 1 I I #
face $-1 $384 $366 $3 $-1 $385 forward single #
cone-surface $-1 0 -1.75 0.099999999999999992 0 0 1 1.0999999999999999 0 0 1 I I 0 1 1.0999999999999999 forward I I I I #
face $-1 $211 $386 $3 $-1 $387 forward single #
cone-surface $-1 0 1.75 0.099999999999999992 0 0 1 1.0999999999999999 0 0 1 I I 0 1 1.0999999999999999 forward I I I I #
edge $-1 $345 0 $347 3.1415926535897931 $324 $388 forward 7 unknown #
ellipse-curve $-1 1.7 3.1999999999999997 0.099999999999999992 0 0 -1 0.0625 0 0 1 I I #
coedge $-1 $389 $326 $329 $370 forward $366 $-1 #
coedge $-1 $326 $389 $328 $369 reversed $366 $-1 #
loop $-1 $-1 $364 $358 #
ellipse-curve $-1 0 -1.75 0.099999999999999992 0 0 1 1.0999999999999999 0 0 1 I I #
coedge $-1 $329 $328 $390 $391 reversed $330 $-1 #
edge $-1 $332 0 $392 0.25 $365 $393 forward 7 unknown #
edge $-1 $331 0 $394 0.25 $364 $395 forward 7 unknown #
point $-1 -1.0999999999999999 -1.75 0.099999999999999992 #
point $-1 1.0999999999999999 -1.75 0.099999999999999992 #
coedge $-1 $335 $334 $396 $397 reversed $336 $-1 #
coedge $-1 $396 $396 $338 $375 forward $386 $-1 #
edge $-1 $378 0 $376 3.1415926535897931 $374 $398 forward 7 unknown #
vertex $-1 $397 $399 #
straight-curve $-1 1.0999999999999999 1.75 0.099999999999999992 0 0 1 I I #
vertex $-1 $397 $400 #
straight-curve $-1 -1.0999999999999999 1.7500000000000002 0.099999999999999992 0 0 1 I I #
cone-surface $-1 1.7 3.1999999999999997 0.099999999999999992 0 0 -1 -0.0625 0 0 1 I I 0 1 0.0625 forward I I I I #
point $-1 1.6375 3.1999999999999997 0.099999999999999992 #
point $-1 1.7625 3.1999999999999997 0.099999999999999992 #
ellipse-curve $-1 0 -1.75 0.34999999999999998 0 0 -1 -1 0 0 1 I I #
face $-1 $306 $401 $3 $-1 $402 forward single #
cone-surface $-1 0 -1.75 0.099999999999999992 0 0 1 1.0999999999999999 0 0 1 I I 0 1 1.0999999999999999 forward I I I I #
loop $-1 $318 $374 $360 #
plane-surface $-1 0 0 0.34999999999999998 0 0 1 1 0 0 forward_v I I I I #
ellipse-curve $-1 1.7 3.1999999999999997 0.099999999999999992 0 0 -1 -0.0625 0 0 1 I I #
coedge $-1 $365 $364 $403 $404 reversed $366 $-1 #
coedge $-1 $403 $403 $368 $391 forward $401 $-1 #
edge $-1 $394 0 $392 3.1415926535897931 $390 $405 forward 7 unknown #
vertex $-1 $404 $406 #
straight-curve $-1 1.0999999999999999 -1.75 0.099999999999999992 0 0 1 I I #
vertex $-1 $404 $407 #
straight-curve $-1 -1.0999999999999999 -1.7499999999999998 0.099999999999999992 0 0 1 I I #
coedge $-1 $374 $374 $373 $397 forward $386 $-1 #
edge $-1 $376 0 $378 3.1415926535897936 $396 $408 forward 7 unknown #
ellipse-curve $-1 2.7755575615628914e-017 1.75 0.34999999999999998 0 0 1 -1.0999999999999999 0 0 1 I I #
point $-1 1.0999999999999999 1.75 0.34999999999999998 #
point $-1 -1.0999999999999999 1.75 0.34999999999999998 #
loop $-1 $353 $390 $384 #
plane-surface $-1 0 0 0.34999999999999998 0 0 1 1 0 0 forward_v I I I I #
coedge $-1 $390 $390 $389 $404 forward $401 $-1 #
edge $-1 $392 0 $394 3.1415926535897936 $403 $409 forward 7 unknown #
ellipse-curve $-1 2.7755575615628914e-017 -1.75 0.34999999999999998 0 0 1 -1.0999999999999999 0 0 1 I I #
point $-1 1.0999999999999999 -1.75 0.34999999999999998 #
point $-1 -1.0999999999999999 -1.75 0.34999999999999998 #
ellipse-curve $-1 2.7755575615628914e-017 1.7500000000000002 0.34999999999999998 0 0 1 1.0999999999999999 -2.2204460492503131e-016 0 1 I I #
ellipse-curve $-1 2.7755575615628914e-017 -1.7499999999999998 0.34999999999999998 0 0 1 1.0999999999999999 -2.2204460492503131e-016 0 1 I I #
End-of-ACIS-data 