600 0 1 0           
92 GICL Pro/E ACIS Translator - Source: f:/data5/repository/PTC/V18/lrgasm18/tank_3.prt.2 - 6 0 13 ACIS 6.0.3 NT 24 Thu Apr 04 13:34:45 2002 
1 9.9999999999999995e-007 1e-010 
body $-1 $1 $-1 $2 #
lump $-1 $-1 $3 $0 #
transform $-1 1 0 0 0 1 0 0 0 1 0 0 0 25.399999999999999 no_rotate no_reflect no_shear #
shell $-1 $-1 $-1 $4 $-1 $1 #
face $-1 $5 $6 $3 $-1 $7 forward single #
face $-1 $8 $9 $3 $-1 $10 forward single #
loop $-1 $-1 $11 $4 #
cone-surface $-1 -15 82.149999999999991 0 0 -1 0 -3.5 0 0 1 I I 0 1 3.5 forward I I I I #
face $-1 $12 $13 $3 $-1 $14 forward single #
loop $-1 $-1 $15 $5 #
cone-surface $-1 -15 -2.083333333333333 0 0 -1 0 -0.22826086956521738 0 0 1 I I -0.22253705317022812 0.97492423293623753 0.22826086956521738 forward I I I I #
coedge $-1 $16 $17 $18 $19 forward $6 $-1 #
face $-1 $20 $21 $3 $-1 $22 forward single #
loop $-1 $-1 $23 $8 #
cone-surface $-1 -15 82.149999999999991 0 0 -1 0 -14 0 0 1 I I 0 1 14 forward I I I I #
coedge $-1 $24 $25 $26 $27 forward $9 $-1 #
coedge $-1 $28 $11 $29 $30 reversed $6 $-1 #
coedge $-1 $11 $28 $31 $32 forward $6 $-1 #
coedge $-1 $25 $24 $11 $19 reversed $9 $-1 #
edge $-1 $33 6.6972680933049338e-030 $34 3.1415926535897984 $11 $35 forward 7 unknown #
face $-1 $36 $37 $3 $-1 $38 reversed single #
loop $-1 $-1 $39 $12 #
cone-surface $-1 -15 82.149999999999991 0 0 -1 0 -14 0 0 1 I I 0 1 14 forward I I I I #
coedge $-1 $26 $40 $41 $42 reversed $13 $-1 #
coedge $-1 $18 $15 $43 $44 reversed $9 $-1 #
coedge $-1 $15 $18 $45 $46 forward $9 $-1 #
coedge $-1 $47 $23 $15 $27 reversed $13 $-1 #
edge $-1 $48 2.2538883006314679e-031 $49 3.1415926535897931 $15 $50 forward 7 unknown #
coedge $-1 $17 $16 $51 $52 reversed $6 $-1 #
coedge $-1 $53 $54 $16 $30 forward $55 $-1 #
edge $-1 $56 0 $34 12 $16 $57 forward 7 unknown #
coedge $-1 $54 $53 $17 $32 reversed $55 $-1 #
edge $-1 $58 0 $33 12 $17 $59 forward 7 unknown #
vertex $-1 $32 $60 #
vertex $-1 $30 $61 #
ellipse-curve $-1 -15 12.25 9.4368957093138306e-015 0 -1 0 3.4999999999999911 0 -9.0082834854759986e-015 1 I I #
face $-1 $62 $63 $3 $-1 $64 forward single #
loop $-1 $65 $66 $20 #
plane-surface $-1 -15 78.25 0 0 -1 0 -1 0 0 forward_v I I I I #
coedge $-1 $67 $68 $69 $70 reversed $21 $-1 #
coedge $-1 $23 $71 $72 $73 forward $13 $-1 #
coedge $-1 $68 $74 $23 $42 forward $21 $-1 #
edge $-1 $49 0 $75 5.2000000000000028 $23 $76 forward 7 unknown #
coedge $-1 $77 $78 $24 $44 forward $79 $-1 #
edge $-1 $34 0 $49 47.183153773354313 $24 $80 forward 7 unknown #
coedge $-1 $78 $77 $25 $46 reversed $79 $-1 #
edge $-1 $33 1.9765260820945552e-015 $48 47.183153773354313 $25 $81 forward 7 unknown #
coedge $-1 $82 $26 $67 $83 forward $13 $-1 #
vertex $-1 $46 $84 #
vertex $-1 $44 $85 #
ellipse-curve $-1 -15 58.249999999999993 4.4408920985006262e-016 0 -1 0 14 0 1.2703596855012655e-015 1 I I #
coedge $-1 $86 $86 $28 $52 forward $87 $-1 #
edge $-1 $58 0 $56 3.1415926535897931 $28 $88 forward 7 unknown #
coedge $-1 $31 $29 $78 $89 reversed $55 $-1 #
coedge $-1 $29 $31 $86 $90 forward $55 $-1 #
loop $-1 $-1 $54 $91 #
vertex $-1 $52 $92 #
straight-curve $-1 -18.5 0.25 -8.5722444767566408e-016 0 1 0 I I #
vertex $-1 $32 $93 #
straight-curve $-1 -11.5 0.25 4.2861222383783204e-016 0 1 0 I I #
point $-1 -11.5 12.25 4.2861222383783204e-016 #
point $-1 -18.499999999999993 12.25 -8.5722444767566388e-016 #
face $-1 $94 $95 $3 $-1 $96 forward single #
loop $-1 $97 $98 $36 #
plane-surface $-1 -15 63.449999999999996 0 1 0 0 0 1 0 forward_v I I I I #
loop $-1 $-1 $99 $20 #
coedge $-1 $100 $101 $102 $103 reversed $37 $-1 #
coedge $-1 $74 $39 $47 $83 reversed $21 $-1 #
coedge $-1 $39 $41 $104 $105 reversed $21 $-1 #
coedge $-1 $106 $100 $39 $70 forward $37 $-1 #
edge $-1 $107 -1.2246063538223773e-016 $108 3.1415926535897931 $69 $109 forward 7 unknown #
coedge $-1 $40 $82 $98 $110 forward $13 $-1 #
coedge $-1 $111 $112 $40 $73 reversed $113 $-1 #
edge $-1 $114 0 $75 1.5707963267948961 $40 $115 forward 7 unknown #
coedge $-1 $41 $67 $77 $116 forward $21 $-1 #
vertex $-1 $73 $117 #
straight-curve $-1 -29 58.249999999999993 -3.4288977907026563e-015 0 1 0 I I #
coedge $-1 $45 $43 $74 $116 reversed $79 $-1 #
coedge $-1 $43 $45 $53 $89 forward $79 $-1 #
loop $-1 $-1 $78 $118 #
straight-curve $-1 -18.499999999999993 12.25 -8.5722444767566388e-016 -0.22253705317022757 0.97492423293623764 -5.4504057854633919e-017 I I #
straight-curve $-1 -11.500000000000009 12.25 4.2861222383783194e-016 0.22253705317022762 0.97492423293623764 2.7252028927316959e-017 I I #
coedge $-1 $71 $47 $100 $119 forward $13 $-1 #
edge $-1 $48 7.1054273576010019e-015 $107 19.999999999999993 $47 $120 forward 7 unknown #
point $-1 -1.0000000000000338 58.25 1.7144488953513282e-015 #
point $-1 -29 58.249999999999993 -3.4288977907026563e-015 #
coedge $-1 $51 $51 $54 $90 reversed $87 $-1 #
loop $-1 $121 $86 $122 #
ellipse-curve $-1 -15 0.25 -1.1102230246251565e-016 0 -1 0 3.5 0 5.3963452630034769e-016 1 I I #
edge $-1 $33 7.727617030736462e-030 $34 3.1415926535897984 $53 $123 forward 7 unknown #
edge $-1 $58 0 $56 3.1415926535897931 $54 $124 forward 7 unknown #
face $-1 $118 $55 $3 $-1 $125 forward single #
point $-1 -18.5 0.25 0 #
point $-1 -11.5 0.25 4.2861222383783204e-016 #
face $-1 $126 $127 $3 $-1 $128 forward single #
loop $-1 $-1 $129 $62 #
cone-surface $-1 -29 66.25 30 -1 0 0 0 0 12 1 I I 0 1 12 forward I I I I #
loop $-1 $-1 $130 $36 #
coedge $-1 $102 $131 $71 $110 reversed $63 $-1 #
coedge $-1 $132 $132 $133 $134 reversed $65 $-1 #
coedge $-1 $69 $66 $82 $119 reversed $37 $-1 #
coedge $-1 $66 $106 $129 $135 reversed $37 $-1 #
coedge $-1 $136 $98 $66 $103 forward $63 $-1 #
edge $-1 $137 0 $138 16 $66 $139 forward 7 unknown #
coedge $-1 $140 $141 $68 $105 forward $142 $-1 #
edge $-1 $108 0 $75 14.800000000000004 $68 $143 forward 7 unknown #
coedge $-1 $101 $69 $141 $144 forward $37 $-1 #
vertex $-1 $119 $145 #
vertex $-1 $144 $146 #
ellipse-curve $-1 -15 78.25 0 0 1 0 14 0 0 1 I I #
edge $-1 $137 0 $114 14.800000000000004 $71 $147 forward 7 unknown #
coedge $-1 $148 $72 $131 $149 forward $113 $-1 #
coedge $-1 $72 $148 $140 $150 reversed $113 $-1 #
loop $-1 $-1 $112 $151 #
vertex $-1 $73 $152 #
ellipse-curve $-1 -14.999999999999996 63.449999999999996 -3.1086244689504383e-015 0 -1 0 -3.5527136788005009e-015 0 14.000000000000004 1 I I #
edge $-1 $48 -3.8638085153682306e-031 $49 3.1415926535897931 $77 $153 forward 7 unknown #
point $-1 -29 63.449999999999996 0 #
face $-1 $154 $79 $3 $-1 $155 forward single #
edge $-1 $107 1.2246063538223773e-016 $137 1.5707963267948961 $82 $156 forward 7 unknown #
straight-curve $-1 -1 58.249999999999993 1.7144488953513282e-015 0 1 0 I I #
loop $-1 $-1 $157 $122 #
face $-1 $91 $87 $3 $-1 $158 forward single #
ellipse-curve $-1 -15 12.25 -1.0103029524088925e-014 0 1 0 3.4999999999999911 0 1.0531641747926757e-014 1 I I #
ellipse-curve $-1 -15 0.25 7.7715611723760958e-016 0 1 0 3.5 0 -3.4854389339977754e-016 1 I I #
cone-surface $-1 -15 82.149999999999991 0 0 -1 0 -3.5 0 0 1 I I 0 1 3.5 forward I I I I #
face $-1 $159 $160 $3 $-1 $161 reversed single #
loop $-1 $162 $163 $94 #
plane-surface $-1 -29 78.25 0 -1 0 0 0 -1 0 forward_v I I I I #
coedge $-1 $164 $165 $101 $135 forward $95 $-1 #
coedge $-1 $166 $166 $167 $168 reversed $97 $-1 #
coedge $-1 $98 $136 $111 $149 reversed $63 $-1 #
coedge $-1 $99 $99 $169 $170 reversed $65 $-1 #
coedge $-1 $171 $172 $99 $134 forward $173 $-1 #
edge $-1 $174 0 $175 3.1415926535897931 $99 $176 forward 7 unknown #
edge $-1 $138 0 $177 14 $101 $178 forward 7 unknown #
coedge $-1 $131 $102 $165 $179 forward $63 $-1 #
vertex $-1 $110 $180 #
vertex $-1 $135 $181 #
straight-curve $-1 -15 78.25 14 0 0 1 I I #
coedge $-1 $182 $104 $112 $150 forward $142 $-1 #
coedge $-1 $104 $182 $106 $144 reversed $142 $-1 #
loop $-1 $183 $104 $94 #
straight-curve $-1 -29 78.25 0 0 -1 0 I I #
edge $-1 $108 0 $177 30 $106 $184 forward 7 unknown #
point $-1 -1 78.249999999999986 1.7144488953513282e-015 #
point $-1 -29 78.25 0 #
straight-curve $-1 -15 78.25 14 0 -1 0 I I #
coedge $-1 $112 $111 $185 $186 forward $113 $-1 #
edge $-1 $114 0 $187 4.3312382833481422 $111 $188 forward 7 unknown #
edge $-1 $75 0 $189 18.331238283348142 $140 $190 forward 7 unknown #
face $-1 $-1 $113 $3 $-1 $191 forward single #
point $-1 -15 63.449999999999996 14 #
ellipse-curve $-1 -15 58.249999999999993 -4.4408920985006262e-016 0 1 0 14 0 2.1585381052013908e-015 1 I I #
face $-1 $192 $193 $3 $-1 $194 reversed single #
cone-surface $-1 -15 -2.083333333333333 0 0 -1 0 -0.22826086956521738 0 0 1 I I -0.22253705317022812 0.97492423293623753 0.22826086956521738 forward I I I I #
ellipse-curve $-1 -15.000000000000004 78.25 -4.4408920985006262e-015 0 -1 0 14.000000000000004 0 4.4408920985006262e-015 1 I I #
coedge $-1 $195 $195 $196 $197 forward $121 $-1 #
plane-surface $-1 -15 0.25 0 0 -1 0 -1 0 0 forward_v I I I I #
face $-1 $198 $199 $3 $-1 $200 reversed single #
loop $-1 $-1 $201 $126 #
cone-surface $-1 -29 62.489999999999995 36.512511036458974 1 0 0 0 0.17499999999999999 0 1 I I 0 1 0.17499999999999999 forward I I I I #
loop $-1 $202 $203 $94 #
coedge $-1 $204 $204 $205 $206 forward $127 $-1 #
coedge $-1 $185 $129 $182 $207 reversed $95 $-1 #
coedge $-1 $129 $185 $136 $179 reversed $95 $-1 #
coedge $-1 $130 $130 $208 $209 reversed $97 $-1 #
coedge $-1 $210 $211 $130 $168 forward $212 $-1 #
edge $-1 $213 0 $214 3.1415926535897931 $130 $215 forward 7 unknown #
coedge $-1 $216 $217 $132 $170 forward $218 $-1 #
edge $-1 $175 0 $174 3.1415926535897931 $132 $219 forward 7 unknown #
coedge $-1 $220 $133 $217 $221 forward $173 $-1 #
coedge $-1 $133 $220 $216 $222 reversed $173 $-1 #
loop $-1 $-1 $171 $223 #
vertex $-1 $170 $224 #
vertex $-1 $170 $225 #
ellipse-curve $-1 -15 78.25 0 0 1 0 0 0 -6 1 I I #
vertex $-1 $135 $226 #
straight-curve $-1 -15 78.25 30 -1 0 0 I I #
edge $-1 $138 0 $187 4.4768847436638897 $136 $227 forward 7 unknown #
point $-1 -15 78.25 14 #
point $-1 -15 78.25 30 #
coedge $-1 $141 $140 $164 $207 forward $142 $-1 #
loop $-1 $228 $229 $94 #
straight-curve $-1 -29 78.25 0 0 0 1 I I #
coedge $-1 $165 $164 $148 $186 reversed $95 $-1 #
edge $-1 $187 0 $189 14 $148 $230 forward 7 unknown #
vertex $-1 $186 $231 #
straight-curve $-1 -15 63.449999999999996 14 0 0 1 I I #
vertex $-1 $207 $232 #
straight-curve $-1 -29 63.449999999999996 0 0 0 1 I I #
plane-surface $-1 -29 63.449999999999996 0 0 -1 0 1 0 0 forward_v I I I I #
face $-1 $233 $234 $3 $-1 $235 reversed single #
loop $-1 $-1 $236 $154 #
cone-surface $-1 -15 82.149999999999991 0 0 -1 0 -3.25 0 0 1 I I 0 1 3.25 forward I I I I #
coedge $-1 $157 $157 $237 $238 reversed $121 $-1 #
coedge $-1 $239 $240 $157 $197 reversed $193 $-1 #
edge $-1 $241 0 $242 3.1415926535897927 $157 $243 forward 7 unknown #
face $-1 $244 $245 $3 $-1 $246 reversed single #
loop $-1 $-1 $247 $159 #
cone-surface $-1 -29 62.489999999999995 36.512511036458974 1 0 0 0 0.17499999999999999 0 1 I I 0 1 0.17499999999999999 forward I I I I #
coedge $-1 $248 $205 $249 $250 forward $160 $-1 #
loop $-1 $251 $252 $94 #
coedge $-1 $253 $253 $254 $255 forward $162 $-1 #
coedge $-1 $163 $163 $256 $257 forward $127 $-1 #
coedge $-1 $201 $258 $163 $206 reversed $160 $-1 #
edge $-1 $259 0 $260 3.1415926535897931 $163 $261 forward 7 unknown #
edge $-1 $189 0 $177 4.4768847436638888 $182 $262 forward 7 unknown #
coedge $-1 $263 $264 $166 $209 forward $265 $-1 #
edge $-1 $214 0 $213 3.1415926535897931 $166 $266 forward 7 unknown #
coedge $-1 $267 $167 $264 $268 reversed $212 $-1 #
coedge $-1 $167 $267 $263 $269 forward $212 $-1 #
loop $-1 $-1 $210 $270 #
vertex $-1 $209 $271 #
vertex $-1 $209 $272 #
ellipse-curve $-1 -15 66.25 30 1 0 0 0 -1 0 1 I I #
coedge $-1 $273 $169 $172 $222 forward $218 $-1 #
coedge $-1 $169 $273 $171 $221 reversed $218 $-1 #
loop $-1 $-1 $216 $274 #
ellipse-curve $-1 -15 78.25 0 0 1 0 0 0 6 1 I I #
coedge $-1 $172 $171 $275 $276 reversed $173 $-1 #
edge $-1 $175 0 $277 12 $217 $278 forward 7 unknown #
edge $-1 $174 0 $279 12 $216 $280 forward 7 unknown #
face $-1 $274 $173 $3 $-1 $281 forward single #
point $-1 -15 78.25 -6 #
point $-1 -15 78.25 6 #
point $-1 -29 78.25 30 #
ellipse-curve $-1 -15 66.25 30 1 0 0 0 12 0 1 I I #
loop $-1 $-1 $282 $94 #
coedge $-1 $283 $283 $284 $285 reversed $183 $-1 #
straight-curve $-1 -15 63.449999999999996 18.331238283348142 -1 0 0 I I #
point $-1 -15 63.449999999999996 18.331238283348142 #
point $-1 -29 63.449999999999996 18.331238283348142 #
face $-1 $286 $287 $3 $-1 $288 reversed single #
loop $-1 $-1 $289 $192 #
cone-surface $-1 -15 -0.95992491015822567 0 0 -1 0 -0.22826086956521738 0 0 1 I I -0.22253705317022812 0.97492423293623753 0.22826086956521738 forward I I I I #
coedge $-1 $240 $239 $290 $291 forward $193 $-1 #
coedge $-1 $292 $293 $195 $238 forward $294 $-1 #
edge $-1 $241 0 $242 3.1415926535897931 $195 $295 forward 7 unknown #
coedge $-1 $236 $196 $293 $296 forward $193 $-1 #
coedge $-1 $196 $236 $292 $297 reversed $193 $-1 #
vertex $-1 $238 $298 #
vertex $-1 $238 $299 #
ellipse-curve $-1 -15 0.25 1.1102230246251565e-015 0 1 0 3.25 0 -7.1222595963288393e-016 1 I I #
face $-1 $300 $301 $3 $-1 $302 reversed single #
loop $-1 $303 $304 $198 #
plane-surface $-1 -28.75 78.25 0 -1 0 0 0 -1 0 forward_v I I I I #
coedge $-1 $305 $256 $258 $306 forward $199 $-1 #
coedge $-1 $258 $201 $304 $307 forward $160 $-1 #
coedge $-1 $256 $305 $201 $250 reversed $199 $-1 #
edge $-1 $259 0 $308 0.25 $249 $309 forward 7 unknown #
loop $-1 $310 $311 $94 #
coedge $-1 $312 $312 $313 $314 forward $202 $-1 #
coedge $-1 $203 $203 $315 $316 forward $162 $-1 #
coedge $-1 $317 $318 $203 $255 reversed $301 $-1 #
edge $-1 $319 0 $320 3.1415926535897931 $203 $321 forward 7 unknown #
coedge $-1 $247 $249 $204 $257 reversed $199 $-1 #
edge $-1 $260 0 $259 3.1415926535897931 $204 $322 forward 7 unknown #
coedge $-1 $205 $248 $247 $306 reversed $160 $-1 #
vertex $-1 $257 $323 #
vertex $-1 $257 $324 #
ellipse-curve $-1 -29 62.489999999999995 36.512511036458974 1 0 0 0 -0.17499999999999716 0 1 I I #
ellipse-curve $-1 -29 66.25 29.999999999999996 -1 0 0 0 -2.8000000000000043 -11.668761716651854 1 I I #
coedge $-1 $325 $208 $211 $269 reversed $265 $-1 #
coedge $-1 $208 $325 $210 $268 forward $265 $-1 #
loop $-1 $-1 $263 $326 #
ellipse-curve $-1 -15 66.25 30 1 0 0 0 1 0 1 I I #
coedge $-1 $211 $210 $327 $328 reversed $212 $-1 #
edge $-1 $329 0 $214 0.25 $264 $330 forward 7 unknown #
edge $-1 $331 0 $213 0.25 $263 $332 forward 7 unknown #
face $-1 $326 $212 $3 $-1 $333 reversed single #
point $-1 -15 65.25 30 #
point $-1 -15 67.25 30 #
coedge $-1 $217 $216 $334 $335 reversed $218 $-1 #
face $-1 $270 $218 $3 $-1 $336 forward single #
coedge $-1 $334 $334 $220 $276 forward $337 $-1 #
edge $-1 $279 0 $277 3.1415926535897931 $220 $338 forward 7 unknown #
vertex $-1 $221 $339 #
straight-curve $-1 -15 78.25 6 0 1 0 I I #
vertex $-1 $335 $340 #
straight-curve $-1 -15 78.25 -6 0 1 0 I I #
cone-surface $-1 -15 78.25 0 0 1 0 0 0 6 1 I I 0 1 6 forward I I I I #
coedge $-1 $341 $341 $342 $343 forward $228 $-1 #
coedge $-1 $229 $229 $344 $345 reversed $183 $-1 #
coedge $-1 $346 $347 $229 $285 forward $348 $-1 #
edge $-1 $349 0 $350 3.1415926535897931 $229 $351 forward 7 unknown #
face $-1 $352 $353 $3 $-1 $354 reversed single #
loop $-1 $-1 $355 $233 #
cone-surface $-1 -15 78.25 0 0 1 0 0 0 5.75 1 I I 0 1 5.75 forward I I I I #
coedge $-1 $356 $357 $358 $359 forward $234 $-1 #
coedge $-1 $357 $356 $236 $291 reversed $234 $-1 #
edge $-1 $360 1.0754648080646244e-029 $361 3.1415926535897993 $236 $362 forward 7 unknown #
coedge $-1 $363 $237 $240 $297 forward $294 $-1 #
coedge $-1 $237 $363 $239 $296 reversed $294 $-1 #
loop $-1 $-1 $237 $364 #
ellipse-curve $-1 -15 0.25 1.1102230246251565e-016 0 -1 0 3.25 0 2.8697476252975695e-016 1 I I #
edge $-1 $241 0 $360 12.028170327936991 $293 $365 forward 7 unknown #
edge $-1 $242 0 $361 12.028170327937023 $292 $366 forward 7 unknown #
point $-1 -11.75 0.25 3.9799706499227261e-016 #
point $-1 -18.25 0.25 0 #
face $-1 $367 $368 $3 $-1 $369 reversed single #
loop $-1 $-1 $317 $244 #
cone-surface $-1 -29 59.737488963541018 33.759999999999991 1 0 0 0 0.17499999999999999 0 1 I I 0 1 0.17499999999999999 forward I I I I #
loop $-1 $370 $371 $198 #
coedge $-1 $372 $372 $248 $307 reversed $245 $-1 #
coedge $-1 $249 $247 $372 $373 forward $199 $-1 #
edge $-1 $260 0 $374 0.25 $247 $375 forward 7 unknown #
edge $-1 $308 0 $374 3.1415926535897931 $304 $376 forward 7 unknown #
vertex $-1 $373 $377 #
straight-curve $-1 -29 62.314999999999998 36.512511036458974 1 0 0 I I #
loop $-1 $378 $379 $94 #
coedge $-1 $380 $380 $381 $382 forward $251 $-1 #
coedge $-1 $252 $252 $383 $384 forward $202 $-1 #
coedge $-1 $385 $386 $252 $314 reversed $387 $-1 #
edge $-1 $388 0 $389 3.1415926535897931 $252 $390 forward 7 unknown #
coedge $-1 $391 $392 $253 $316 reversed $368 $-1 #
edge $-1 $320 0 $319 3.1415926535897931 $253 $393 forward 7 unknown #
coedge $-1 $394 $254 $392 $395 forward $301 $-1 #
coedge $-1 $254 $394 $391 $396 reversed $301 $-1 #
vertex $-1 $316 $397 #
vertex $-1 $316 $398 #
ellipse-curve $-1 -29 59.737488963541018 33.759999999999991 1 0 0 0 -0.17500000000000426 0 1 I I #
ellipse-curve $-1 -29 62.489999999999995 36.512511036458974 1 0 0 0 0.17499999999999716 0 1 I I #
point $-1 -29 62.314999999999998 36.512511036458974 #
point $-1 -29 62.664999999999992 36.512511036458974 #
coedge $-1 $264 $263 $399 $400 reversed $265 $-1 #
face $-1 $401 $265 $3 $-1 $402 reversed single #
coedge $-1 $399 $399 $267 $328 forward $403 $-1 #
edge $-1 $331 0 $329 3.1415926535897931 $327 $404 forward 7 unknown #
vertex $-1 $400 $405 #
straight-curve $-1 -15.25 67.25 30 1 0 0 I I #
vertex $-1 $400 $406 #
straight-curve $-1 -15.25 65.25 30 1 0 0 I I #
cone-surface $-1 -15.25 66.25 30 1 0 0 0 1 0 1 I I 0 1 1 forward I I I I #
coedge $-1 $275 $275 $273 $335 forward $337 $-1 #
edge $-1 $277 0 $279 3.1415926535897931 $273 $407 forward 7 unknown #
cone-surface $-1 -15 78.25 0 0 1 0 0 0 6 1 I I 0 1 6 forward I I I I #
loop $-1 $408 $275 $352 #
ellipse-curve $-1 -15 90.25 0 0 1 0 0 0 -6 1 I I #
point $-1 -15 90.25 6 #
point $-1 -15 90.25 -6 #
coedge $-1 $282 $282 $409 $410 forward $228 $-1 #
coedge $-1 $411 $412 $282 $343 reversed $413 $-1 #
edge $-1 $414 0 $415 3.1415926535897931 $282 $416 forward 7 unknown #
coedge $-1 $417 $418 $283 $345 forward $419 $-1 #
edge $-1 $350 0 $349 3.1415926535897931 $283 $420 forward 7 unknown #
coedge $-1 $421 $284 $418 $422 reversed $348 $-1 #
coedge $-1 $284 $421 $417 $423 forward $348 $-1 #
loop $-1 $-1 $346 $401 #
vertex $-1 $345 $424 #
vertex $-1 $345 $425 #
ellipse-curve $-1 -29 66.25 30 -1 0 0 0 3 0 1 I I #
face $-1 $223 $337 $3 $-1 $426 forward single #
loop $-1 $-1 $427 $286 #
cone-surface $-1 -15 78.25 0 0 1 0 0 0 5.75 1 I I 0 1 5.75 forward I I I I #
coedge $-1 $428 $429 $430 $431 forward $287 $-1 #
coedge $-1 $290 $289 $432 $433 reversed $234 $-1 #
coedge $-1 $289 $290 $434 $435 forward $234 $-1 #
coedge $-1 $436 $437 $289 $359 reversed $438 $-1 #
edge $-1 $439 -3.3379899460591648e-031 $440 3.1415926535897931 $289 $441 forward 7 unknown #
vertex $-1 $296 $442 #
vertex $-1 $443 $444 #
ellipse-curve $-1 -15.000000000000002 12.278170327937014 -1.0325074129013956e-014 2.732856676000393e-015 1 9.0168051383900009e-030 3.2499999999999911 -8.8817841970012523e-015 1.0723071194006228e-014 1 I I #
coedge $-1 $293 $292 $445 $443 reversed $294 $-1 #
face $-1 $122 $294 $3 $-1 $446 reversed single #
straight-curve $-1 -11.75 0.25 3.9799706499227261e-016 0 1 0 I I #
straight-curve $-1 -18.25 0.25 -7.9599412998454522e-016 0 1 0 I I #
face $-1 $447 $387 $3 $-1 $448 reversed single #
loop $-1 $-1 $391 $300 #
cone-surface $-1 -29 59.737488963541018 33.759999999999991 1 0 0 0 0.17499999999999999 0 1 I I 0 1 0.17499999999999999 forward I I I I #
loop $-1 $449 $450 $198 #
coedge $-1 $451 $451 $394 $452 reversed $303 $-1 #
coedge $-1 $304 $304 $305 $373 reversed $245 $-1 #
edge $-1 $374 0 $308 3.1415926535897931 $372 $453 forward 7 unknown #
vertex $-1 $373 $454 #
straight-curve $-1 -29 62.664999999999992 36.512511036458974 1 0 0 I I #
ellipse-curve $-1 -28.75 62.489999999999995 36.512511036458974 1 0 0 0 -0.17499999999999716 0 1 I I #
point $-1 -28.75 62.314999999999998 36.512511036458974 #
loop $-1 $455 $456 $94 #
coedge $-1 $457 $457 $458 $459 forward $310 $-1 #
coedge $-1 $311 $311 $460 $461 forward $251 $-1 #
coedge $-1 $462 $463 $311 $382 reversed $464 $-1 #
edge $-1 $465 0 $466 3.1415926535897931 $311 $467 forward 7 unknown #
coedge $-1 $468 $469 $312 $384 reversed $470 $-1 #
edge $-1 $389 0 $388 3.1415926535897931 $312 $471 forward 7 unknown #
coedge $-1 $472 $313 $469 $473 forward $387 $-1 #
coedge $-1 $313 $472 $468 $474 reversed $387 $-1 #
loop $-1 $-1 $385 $367 #
vertex $-1 $384 $475 #
vertex $-1 $384 $476 #
ellipse-curve $-1 -29 58.730000000000004 30 1 0 0 0 -0.17499999999999716 0 1 I I #
coedge $-1 $477 $315 $318 $396 forward $368 $-1 #
coedge $-1 $315 $477 $317 $395 reversed $368 $-1 #
ellipse-curve $-1 -29 59.737488963541018 33.759999999999991 1 0 0 0 0.17499999999999005 0 1 I I #
coedge $-1 $318 $317 $371 $452 forward $301 $-1 #
edge $-1 $319 0 $478 0.25 $392 $479 forward 7 unknown #
edge $-1 $320 0 $480 0.25 $391 $481 forward 7 unknown #
point $-1 -29 59.562488963541014 33.759999999999991 #
point $-1 -29 59.912488963541009 33.759999999999991 #
coedge $-1 $327 $327 $325 $400 forward $403 $-1 #
edge $-1 $329 0 $331 3.1415926535897931 $399 $482 forward 7 unknown #
face $-1 $483 $348 $3 $-1 $484 reversed single #
cone-surface $-1 -15.25 66.25 30 1 0 0 0 1 0 1 I I 0 1 1 forward I I I I #
loop $-1 $-1 $327 $485 #
ellipse-curve $-1 -15.25 66.25 30 1 0 0 0 -1 0 1 I I #
point $-1 -15.25 67.25 30 #
point $-1 -15.25 65.25 30 #
ellipse-curve $-1 -15 90.25 0 0 1 0 0 0 6 1 I I #
loop $-1 $-1 $486 $352 #
coedge $-1 $487 $488 $341 $410 reversed $489 $-1 #
edge $-1 $415 0 $414 3.1415926535897931 $341 $490 forward 7 unknown #
coedge $-1 $491 $342 $488 $492 forward $413 $-1 #
coedge $-1 $342 $491 $487 $493 reversed $413 $-1 #
loop $-1 $-1 $411 $494 #
vertex $-1 $410 $495 #
vertex $-1 $410 $496 #
ellipse-curve $-1 -29 66.25 37.519999999999996 1 0 0 0 -0.17499999999999716 0 1 I I #
coedge $-1 $497 $344 $347 $423 reversed $419 $-1 #
coedge $-1 $344 $497 $346 $422 forward $419 $-1 #
loop $-1 $-1 $417 $483 #
ellipse-curve $-1 -29 66.25 30 -1 0 0 0 -3 0 1 I I #
coedge $-1 $347 $346 $498 $499 reversed $348 $-1 #
edge $-1 $500 0 $350 0.25 $418 $501 forward 7 unknown #
edge $-1 $502 0 $349 0.25 $417 $503 forward 7 unknown #
point $-1 -29 69.25 30 #
point $-1 -29 63.25 30 #
plane-surface $-1 -15 90.25 0 0 1 0 0 0 1 forward_v I I I I #
coedge $-1 $504 $505 $506 $507 forward $353 $-1 #
coedge $-1 $506 $355 $486 $508 forward $287 $-1 #
coedge $-1 $355 $506 $509 $510 reversed $287 $-1 #
coedge $-1 $505 $504 $355 $431 reversed $353 $-1 #
edge $-1 $511 0 $512 12.25 $430 $513 forward 7 unknown #
coedge $-1 $514 $445 $356 $433 forward $515 $-1 #
edge $-1 $361 -4.338491011262666e-032 $440 47.183153773354292 $432 $516 forward 7 unknown #
coedge $-1 $445 $514 $357 $435 reversed $515 $-1 #
edge $-1 $360 -1.1482675334073162e-014 $439 47.183153773354334 $434 $517 forward 7 unknown #
coedge $-1 $518 $358 $519 $520 forward $438 $-1 #
coedge $-1 $358 $521 $522 $523 reversed $438 $-1 #
loop $-1 $-1 $437 $524 #
vertex $-1 $435 $525 #
vertex $-1 $526 $527 #
ellipse-curve $-1 -15 58.278170327936991 -4.4408920985006262e-016 -5.1675835328007284e-016 1 -7.9972506012052381e-032 13.75 7.1054273576010019e-015 2.1279229463558313e-015 1 I I #
point $-1 -11.75 12.278170327936991 3.9799706499227261e-016 #
edge $-1 $360 1.0754648080646244e-029 $361 3.1415926535897998 $363 $528 forward 7 unknown #
point $-1 -18.249999999999993 12.278170327937023 0 #
coedge $-1 $432 $434 $363 $443 forward $515 $-1 #
cone-surface $-1 -15 82.149999999999991 0 0 -1 0 -3.25 0 0 1 I I 0 1 3.25 forward I I I I #
face $-1 $529 $470 $3 $-1 $530 reversed single #
cone-surface $-1 -29 58.730000000000004 30 1 0 0 0 0.17499999999999999 0 1 I I 0 1 0.17499999999999999 forward I I I I #
loop $-1 $531 $532 $198 #
coedge $-1 $533 $533 $472 $534 reversed $370 $-1 #
coedge $-1 $371 $371 $477 $535 reversed $303 $-1 #
edge $-1 $478 0 $480 3.1415926535897931 $371 $536 forward 7 unknown #
ellipse-curve $-1 -28.75 62.489999999999995 36.512511036458974 1 0 0 0 0.17499999999999716 0 1 I I #
point $-1 -28.75 62.664999999999992 36.512511036458974 #
loop $-1 $537 $538 $94 #
coedge $-1 $539 $539 $540 $541 forward $378 $-1 #
coedge $-1 $379 $379 $542 $543 forward $310 $-1 #
coedge $-1 $544 $545 $379 $459 reversed $546 $-1 #
edge $-1 $547 0 $548 3.1415926535897931 $379 $549 forward 7 unknown #
coedge $-1 $550 $551 $380 $461 reversed $552 $-1 #
edge $-1 $466 0 $465 3.1415926535897931 $380 $553 forward 7 unknown #
coedge $-1 $554 $381 $551 $555 forward $464 $-1 #
coedge $-1 $381 $554 $550 $556 reversed $464 $-1 #
loop $-1 $-1 $462 $529 #
vertex $-1 $461 $557 #
vertex $-1 $461 $558 #
ellipse-curve $-1 -29 59.737488963541033 26.239999999999995 1 0 0 0 -0.17499999999999005 0 1 I I #
coedge $-1 $559 $383 $386 $474 forward $470 $-1 #
coedge $-1 $383 $559 $385 $473 reversed $470 $-1 #
loop $-1 $-1 $468 $447 #
ellipse-curve $-1 -29 58.730000000000004 30 1 0 0 0 0.17499999999999716 0 1 I I #
coedge $-1 $386 $385 $450 $534 forward $387 $-1 #
edge $-1 $388 0 $560 0.25 $469 $561 forward 7 unknown #
edge $-1 $389 0 $562 0.25 $468 $563 forward 7 unknown #
point $-1 -29 58.555000000000007 30 #
point $-1 -29 58.905000000000001 30 #
coedge $-1 $392 $391 $451 $535 forward $368 $-1 #
vertex $-1 $535 $564 #
straight-curve $-1 -29 59.562488963541021 33.759999999999991 1 0 0 I I #
vertex $-1 $535 $565 #
straight-curve $-1 -29 59.912488963541016 33.759999999999991 1 0 0 I I #
ellipse-curve $-1 -15.25 66.25 30 1 0 0 0 1 0 1 I I #
face $-1 $494 $419 $3 $-1 $566 reversed single #
cone-surface $-1 -28.75 66.25 30 -1 0 0 0 -3 0 1 I I 0 1 3 forward I I I I #
face $-1 $567 $568 $3 $-1 $569 reversed single #
coedge $-1 $570 $570 $428 $508 reversed $408 $-1 #
coedge $-1 $571 $409 $412 $493 forward $489 $-1 #
coedge $-1 $409 $571 $411 $492 reversed $489 $-1 #
loop $-1 $-1 $487 $572 #
ellipse-curve $-1 -29 66.25 37.519999999999996 1 0 0 0 0.17499999999999716 0 1 I I #
coedge $-1 $412 $411 $573 $574 forward $413 $-1 #
edge $-1 $414 0 $575 0.25 $488 $576 forward 7 unknown #
edge $-1 $415 0 $577 0.25 $487 $578 forward 7 unknown #
face $-1 $572 $413 $3 $-1 $579 reversed single #
point $-1 -29 66.075000000000003 37.519999999999996 #
point $-1 -29 66.424999999999997 37.519999999999996 #
coedge $-1 $418 $417 $580 $581 reversed $419 $-1 #
coedge $-1 $580 $580 $421 $499 forward $582 $-1 #
edge $-1 $502 0 $500 3.1415926535897931 $498 $583 forward 7 unknown #
vertex $-1 $581 $584 #
straight-curve $-1 -28.75 63.25 30 -1 0 0 I I #
vertex $-1 $581 $585 #
straight-curve $-1 -28.75 69.25 30 -1 0 0 I I #
coedge $-1 $430 $427 $570 $586 forward $353 $-1 #
coedge $-1 $427 $430 $587 $588 reversed $353 $-1 #
coedge $-1 $429 $428 $427 $507 reversed $287 $-1 #
edge $-1 $589 0 $590 12.25 $427 $591 forward 7 unknown #
edge $-1 $512 0 $590 3.1415926535897931 $486 $592 forward 7 unknown #
coedge $-1 $587 $587 $429 $510 forward $593 $-1 #
edge $-1 $511 0 $589 3.1415926535897936 $509 $594 forward 7 unknown #
vertex $-1 $588 $595 #
vertex $-1 $586 $596 #
straight-curve $-1 -15 78 -5.75 0 1 0 I I #
coedge $-1 $434 $432 $597 $526 reversed $515 $-1 #
loop $-1 $-1 $445 $598 #
straight-curve $-1 -18.249999999999993 12.278170327937023 -7.9599412998454561e-016 -0.22253705317022762 0.97492423293623764 -5.4504057854633912e-017 I I #
straight-curve $-1 -11.750000000000011 12.278170327937005 3.9799706499227231e-016 0.22253705317022768 0.97492423293623764 2.7252028927316959e-017 I I #
coedge $-1 $521 $436 $599 $600 forward $438 $-1 #
coedge $-1 $597 $601 $436 $520 reversed $602 $-1 #
edge $-1 $439 2.1316282072803006e-014 $603 19.721829672062988 $519 $604 forward 7 unknown #
coedge $-1 $437 $518 $605 $606 forward $438 $-1 #
coedge $-1 $607 $597 $437 $523 forward $602 $-1 #
edge $-1 $440 0 $608 5.421829672063005 $522 $609 forward 7 unknown #
face $-1 $610 $438 $3 $-1 $611 reversed single #
point $-1 -1.2500000000000302 58.278170327937019 1.6838337365057687e-015 #
edge $-1 $439 2.0027939676354989e-031 $440 3.1415926535897931 $514 $612 forward 7 unknown #
point $-1 -28.75 58.278170327936991 0 #
ellipse-curve $-1 -15.000000000000002 12.278170327937016 1.1102230246251565e-014 -3.2794280112004713e-015 -1 1.0801157579397954e-029 3.2499999999999911 -1.0658141036401503e-014 -1.0704233181259293e-014 1 I I #
face $-1 $613 $464 $3 $-1 $614 reversed single #
cone-surface $-1 -29 58.730000000000004 30 1 0 0 0 0.17499999999999999 0 1 I I 0 1 0.17499999999999999 forward I I I I #
loop $-1 $615 $616 $198 #
coedge $-1 $617 $617 $554 $618 reversed $449 $-1 #
coedge $-1 $450 $450 $559 $619 reversed $370 $-1 #
edge $-1 $560 0 $562 3.1415926535898335 $450 $620 forward 7 unknown #
edge $-1 $480 0 $478 3.1415926535897931 $451 $621 forward 7 unknown #
ellipse-curve $-1 -28.75 59.737488963541011 33.759999999999991 1 0 0 0 -0.17499999999999716 0 1 I I #
loop $-1 $622 $623 $94 #
coedge $-1 $624 $624 $625 $626 forward $455 $-1 #
coedge $-1 $456 $456 $627 $628 forward $378 $-1 #
coedge $-1 $629 $630 $456 $541 reversed $631 $-1 #
edge $-1 $632 0 $633 3.1415926535897931 $456 $634 forward 7 unknown #
coedge $-1 $635 $636 $457 $543 reversed $637 $-1 #
edge $-1 $548 0 $547 3.1415926535897931 $457 $638 forward 7 unknown #
coedge $-1 $639 $458 $636 $640 forward $546 $-1 #
coedge $-1 $458 $639 $635 $641 reversed $546 $-1 #
loop $-1 $-1 $544 $642 #
vertex $-1 $543 $643 #
vertex $-1 $543 $644 #
ellipse-curve $-1 -29 62.489999999999995 23.487488963541018 1 0 0 0 -0.17499999999999716 0 1 I I #
coedge $-1 $645 $460 $463 $556 forward $552 $-1 #
coedge $-1 $460 $645 $462 $555 reversed $552 $-1 #
loop $-1 $-1 $550 $613 #
ellipse-curve $-1 -29 59.737488963541033 26.239999999999995 1 0 0 0 0.17500000000000426 0 1 I I #
coedge $-1 $463 $462 $532 $618 forward $464 $-1 #
edge $-1 $465 0 $646 0.25 $551 $647 forward 7 unknown #
edge $-1 $466 0 $648 0.25 $550 $649 forward 7 unknown #
point $-1 -29 59.562488963541043 26.239999999999995 #
point $-1 -29 59.912488963541037 26.239999999999995 #
coedge $-1 $469 $468 $533 $619 forward $470 $-1 #
vertex $-1 $619 $650 #
straight-curve $-1 -29 58.555000000000007 30 1 0 0 I I #
vertex $-1 $619 $651 #
straight-curve $-1 -29 58.905000000000001 30 1 0 0 I I #
point $-1 -28.75 59.562488963541014 33.759999999999991 #
point $-1 -28.75 59.912488963541009 33.759999999999991 #
cone-surface $-1 -28.75 66.25 30 -1 0 0 0 -3 0 1 I I 0 1 3 forward I I I I #
face $-1 $524 $652 $3 $-1 $653 forward single #
loop $-1 $403 $654 $485 #
plane-surface $-1 -15.25 63.449999999999996 0 1 0 0 0 1 0 forward_v I I I I #
coedge $-1 $486 $486 $504 $586 reversed $408 $-1 #
coedge $-1 $488 $487 $655 $656 forward $489 $-1 #
face $-1 $151 $489 $3 $-1 $657 reversed single #
coedge $-1 $655 $655 $491 $574 reversed $658 $-1 #
edge $-1 $575 0 $577 3.1415926535897118 $573 $659 forward 7 unknown #
vertex $-1 $656 $660 #
straight-curve $-1 -29 66.075000000000003 37.519999999999996 1 0 0 I I #
vertex $-1 $656 $661 #
straight-curve $-1 -29 66.424999999999997 37.519999999999996 1 0 0 I I #
cone-surface $-1 -29 66.25 37.519999999999996 1 0 0 0 0.17499999999999999 0 1 I I 0 1 0.17499999999999999 forward I I I I #
coedge $-1 $498 $498 $497 $581 forward $582 $-1 #
edge $-1 $500 0 $502 3.1415926535897931 $580 $662 forward 7 unknown #
loop $-1 $658 $498 $198 #
ellipse-curve $-1 -28.75 66.25 30 -1 0 0 0 3 0 1 I I #
point $-1 -28.75 63.25 30 #
point $-1 -28.75 69.25 30 #
edge $-1 $590 0 $512 3.1415926535897936 $570 $663 forward 7 unknown #
coedge $-1 $509 $509 $505 $588 forward $593 $-1 #
edge $-1 $589 0 $511 3.1415926535897931 $587 $664 forward 7 unknown #
vertex $-1 $588 $665 #
vertex $-1 $586 $666 #
straight-curve $-1 -15 78 5.75 0 1 0 I I #
ellipse-curve $-1 -15 90.25 0 0 1 0 0 0 -5.75 1 I I #
loop $-1 $-1 $509 $567 #
ellipse-curve $-1 -15.000000000000002 78 0 0 1 0 1.7763568394002505e-015 0 -5.75 1 I I #
point $-1 -15 78 -5.75 #
point $-1 -15 90.25 -5.75 #
coedge $-1 $522 $519 $514 $526 forward $602 $-1 #
face $-1 $364 $515 $3 $-1 $667 reversed single #
coedge $-1 $668 $669 $518 $600 reversed $652 $-1 #
edge $-1 $603 -1.2246063538223773e-016 $670 3.1415926535897931 $599 $671 forward 7 unknown #
coedge $-1 $519 $672 $668 $673 reversed $602 $-1 #
loop $-1 $-1 $672 $610 #
vertex $-1 $520 $674 #
straight-curve $-1 -1.25 58.278170327936998 1.6838337365057687e-015 0 1 0 I I #
coedge $-1 $675 $676 $521 $606 reversed $677 $-1 #
edge $-1 $670 0 $608 14.300000000000004 $521 $678 forward 7 unknown #
coedge $-1 $672 $522 $679 $680 reversed $602 $-1 #
vertex $-1 $680 $681 #
straight-curve $-1 -28.75 58.278170327936991 -3.3676674730115375e-015 0 1 0 I I #
face $-1 $598 $602 $3 $-1 $682 reversed single #
cone-surface $-1 -15 82.149999999999991 0 0 -1 0 -13.75 0 0 1 I I 0 1 13.75 forward I I I I #
ellipse-curve $-1 -15 58.278170327936991 4.4408920985006262e-016 5.1675835328007284e-016 -1 4.6592606551460805e-032 13.75 7.1054273576010019e-015 1.2397445266557061e-015 1 I I #
face $-1 $642 $552 $3 $-1 $683 reversed single #
cone-surface $-1 -29 59.737488963541033 26.239999999999995 1 0 0 0 0.17499999999999999 0 1 I I 0 1 0.17499999999999999 forward I I I I #
loop $-1 $684 $685 $198 #
coedge $-1 $686 $686 $639 $687 reversed $531 $-1 #
coedge $-1 $532 $532 $645 $688 reversed $449 $-1 #
edge $-1 $646 0 $648 3.1415926535897931 $532 $689 forward 7 unknown #
edge $-1 $562 0 $560 3.1415926535897931 $533 $690 forward 7 unknown #
ellipse-curve $-1 -28.75 58.730000000000004 29.999999999999996 1 0 0 0 -0.17499999999999716 3.5527136788005009e-015 1 I I #
ellipse-curve $-1 -28.75 59.737488963541011 33.759999999999991 1 0 0 0 0.17499999999999716 0 1 I I #
loop $-1 $691 $692 $94 #
coedge $-1 $693 $693 $694 $695 forward $537 $-1 #
coedge $-1 $538 $538 $696 $697 forward $455 $-1 #
coedge $-1 $698 $699 $538 $626 reversed $700 $-1 #
edge $-1 $701 0 $702 3.1415926535897931 $538 $703 forward 7 unknown #
coedge $-1 $704 $705 $539 $628 reversed $706 $-1 #
edge $-1 $633 0 $632 3.1415926535897931 $539 $707 forward 7 unknown #
coedge $-1 $708 $540 $705 $709 forward $631 $-1 #
coedge $-1 $540 $708 $704 $710 reversed $631 $-1 #
loop $-1 $-1 $629 $711 #
vertex $-1 $628 $712 #
vertex $-1 $628 $713 #
ellipse-curve $-1 -29 66.25 22.48 1 0 0 0 -0.17499999999999716 0 1 I I #
coedge $-1 $714 $542 $545 $641 forward $637 $-1 #
coedge $-1 $542 $714 $544 $640 reversed $637 $-1 #
loop $-1 $-1 $635 $715 #
ellipse-curve $-1 -29 62.489999999999995 23.487488963541018 1 0 0 0 0.17499999999999716 0 1 I I #
coedge $-1 $545 $544 $616 $687 forward $546 $-1 #
edge $-1 $547 0 $716 0.25 $636 $717 forward 7 unknown #
edge $-1 $548 0 $718 0.25 $635 $719 forward 7 unknown #
face $-1 $715 $546 $3 $-1 $720 reversed single #
point $-1 -29 62.314999999999998 23.487488963541018 #
point $-1 -29 62.664999999999992 23.487488963541018 #
coedge $-1 $551 $550 $617 $688 forward $552 $-1 #
vertex $-1 $688 $721 #
straight-curve $-1 -29 59.562488963541036 26.239999999999995 1 0 0 I I #
vertex $-1 $688 $722 #
straight-curve $-1 -29 59.91248896354103 26.239999999999995 1 0 0 I I #
point $-1 -28.75 58.555000000000007 30 #
point $-1 -28.75 58.905000000000001 30 #
loop $-1 $593 $669 $567 #
plane-surface $-1 -15 78 0 0 -1 0 -1 0 0 forward_v I I I I #
coedge $-1 $723 $724 $725 $726 reversed $568 $-1 #
coedge $-1 $573 $573 $571 $656 reversed $658 $-1 #
edge $-1 $577 0 $575 3.1415926535897118 $655 $727 forward 7 unknown #
cone-surface $-1 -29 66.25 37.519999999999996 1 0 0 0 0.17499999999999999 0 1 I I 0 1 0.17499999999999999 forward I I I I #
loop $-1 $-1 $573 $198 #
ellipse-curve $-1 -28.75 66.25 37.520000000000003 1 0 0 0 -0.17499999999999716 -7.1054273576010019e-015 1 I I #
point $-1 -28.75 66.075000000000003 37.519999999999996 #
point $-1 -28.75 66.424999999999997 37.519999999999996 #
ellipse-curve $-1 -28.75 66.25 30 -1 0 0 0 -3 0 1 I I #
ellipse-curve $-1 -14.999999999999998 90.25 4.4408920985006262e-016 0 1 0 -1.7763568394002505e-015 0 5.75 1 I I #
ellipse-curve $-1 -15 78 0 0 1 0 0 0 5.75 1 I I #
point $-1 -15 78 5.75 #
point $-1 -15 90.25 5.75 #
cone-surface $-1 -15 -0.95992491015822567 0 0 -1 0 -0.22826086956521738 0 0 1 I I -0.22253705317022812 0.97492423293623753 0.22826086956521738 forward I I I I #
coedge $-1 $728 $599 $601 $673 forward $652 $-1 #
coedge $-1 $599 $729 $675 $730 reversed $652 $-1 #
vertex $-1 $600 $731 #
ellipse-curve $-1 -15 78 4.4408920985006262e-016 0 1 0 13.75 0 -4.4408920985006262e-016 1 I I #
coedge $-1 $601 $607 $732 $733 reversed $602 $-1 #
edge $-1 $603 1.2246063538223773e-016 $734 1.588979146878833 $601 $735 forward 7 unknown #
point $-1 -1.25 77.999999999999986 1.6838337365057687e-015 #
coedge $-1 $736 $605 $669 $730 forward $677 $-1 #
coedge $-1 $605 $736 $737 $738 reversed $677 $-1 #
loop $-1 $582 $736 $198 #
straight-curve $-1 -28.75 78 0 0 -1 0 I I #
coedge $-1 $737 $739 $607 $680 forward $740 $-1 #
edge $-1 $741 0 $608 1.5526135067109612 $607 $742 forward 7 unknown #
point $-1 -28.75 63.699999999999996 0 #
cone-surface $-1 -15 82.149999999999991 0 0 -1 0 -13.75 0 0 1 I I 0 1 13.75 forward I I I I #
cone-surface $-1 -29 59.737488963541033 26.239999999999995 1 0 0 0 0.17499999999999999 0 1 I I 0 1 0.17499999999999999 forward I I I I #
loop $-1 $743 $744 $198 #
coedge $-1 $745 $745 $708 $746 reversed $615 $-1 #
coedge $-1 $616 $616 $714 $747 reversed $531 $-1 #
edge $-1 $716 0 $718 3.1415926535897931 $616 $748 forward 7 unknown #
edge $-1 $648 0 $646 3.1415926535897931 $617 $749 forward 7 unknown #
ellipse-curve $-1 -28.75 59.73748896354104 26.239999999999995 1 0 0 0 -0.17499999999999716 0 1 I I #
ellipse-curve $-1 -28.75 58.730000000000004 30 1 0 0 0 0.17499999999999716 0 1 I I #
loop $-1 $750 $751 $94 #
coedge $-1 $752 $752 $753 $754 forward $622 $-1 #
coedge $-1 $623 $623 $755 $756 forward $537 $-1 #
coedge $-1 $757 $758 $623 $695 reversed $759 $-1 #
edge $-1 $760 0 $761 3.1415926535897931 $623 $762 forward 7 unknown #
coedge $-1 $763 $764 $624 $697 reversed $765 $-1 #
edge $-1 $702 0 $701 3.1415926535897931 $624 $766 forward 7 unknown #
coedge $-1 $767 $625 $764 $768 forward $700 $-1 #
coedge $-1 $625 $767 $763 $769 reversed $700 $-1 #
loop $-1 $-1 $698 $770 #
vertex $-1 $697 $771 #
vertex $-1 $697 $772 #
ellipse-curve $-1 -29 70.009999999999991 23.487488963541018 1 0 0 0 -0.17499999999999716 0 1 I I #
coedge $-1 $773 $627 $630 $710 forward $706 $-1 #
coedge $-1 $627 $773 $629 $709 reversed $706 $-1 #
loop $-1 $-1 $704 $774 #
ellipse-curve $-1 -29 66.25 22.48 1 0 0 0 0.17499999999999716 0 1 I I #
coedge $-1 $630 $629 $685 $746 forward $631 $-1 #
edge $-1 $632 0 $775 0.25 $705 $776 forward 7 unknown #
edge $-1 $633 0 $777 0.25 $704 $778 forward 7 unknown #
face $-1 $774 $631 $3 $-1 $779 reversed single #
point $-1 -29 66.075000000000003 22.48 #
point $-1 -29 66.424999999999997 22.48 #
coedge $-1 $636 $635 $686 $747 forward $637 $-1 #
face $-1 $711 $637 $3 $-1 $780 reversed single #
vertex $-1 $747 $781 #
straight-curve $-1 -29 62.314999999999998 23.487488963541018 1 0 0 I I #
vertex $-1 $747 $782 #
straight-curve $-1 -29 62.664999999999992 23.487488963541018 1 0 0 I I #
cone-surface $-1 -29 62.489999999999995 23.487488963541018 1 0 0 0 0.17499999999999999 0 1 I I 0 1 0.17499999999999999 forward I I I I #
point $-1 -28.75 59.562488963541043 26.239999999999995 #
point $-1 -28.75 59.912488963541037 26.239999999999995 #
coedge $-1 $732 $654 $728 $783 reversed $568 $-1 #
coedge $-1 $654 $732 $739 $784 forward $568 $-1 #
coedge $-1 $785 $786 $654 $726 forward $787 $-1 #
edge $-1 $788 0 $789 4.4936269993541167 $654 $790 forward 7 unknown #
ellipse-curve $-1 -28.75 66.25 37.519999999999989 1 0 0 0 0.17499999999999716 7.1054273576010019e-015 1 I I #
coedge $-1 $729 $668 $723 $783 forward $652 $-1 #
coedge $-1 $669 $728 $786 $791 forward $652 $-1 #
edge $-1 $670 0 $792 30 $669 $793 forward 7 unknown #
point $-1 -28.75 78 0 #
coedge $-1 $724 $723 $672 $733 forward $568 $-1 #
edge $-1 $734 0 $741 14.300000000000004 $672 $794 forward 7 unknown #
vertex $-1 $673 $795 #
ellipse-curve $-1 -15 78 -4.4408920985006262e-016 0 -1 0 13.75 0 4.4408920985006262e-016 1 I I #
coedge $-1 $676 $675 $796 $797 reversed $677 $-1 #
coedge $-1 $798 $679 $676 $738 forward $740 $-1 #
edge $-1 $608 0 $799 18.530039232848267 $676 $800 forward 7 unknown #
coedge $-1 $679 $798 $724 $784 reversed $740 $-1 #
loop $-1 $-1 $739 $801 #
vertex $-1 $680 $802 #
ellipse-curve $-1 -15.000000000000007 63.699999999999996 8.4376949871511897e-015 0 -1 0 -0.24999999999999289 0 13.747727084867511 1 I I #
loop $-1 $803 $804 $198 #
coedge $-1 $805 $805 $767 $806 reversed $684 $-1 #
coedge $-1 $685 $685 $773 $807 reversed $615 $-1 #
edge $-1 $775 0 $777 3.1415926535897118 $685 $808 forward 7 unknown #
edge $-1 $718 0 $716 3.1415926535897931 $686 $809 forward 7 unknown #
ellipse-curve $-1 -28.75 62.489999999999995 23.487488963541018 1 0 0 0 -0.17499999999999716 0 1 I I #
ellipse-curve $-1 -28.75 59.73748896354104 26.239999999999995 1 0 0 0 0.17499999999999716 0 1 I I #
loop $-1 $142 $810 $94 #
coedge $-1 $811 $811 $812 $813 forward $691 $-1 #
coedge $-1 $692 $692 $814 $815 forward $622 $-1 #
coedge $-1 $816 $817 $692 $754 reversed $818 $-1 #
edge $-1 $819 0 $820 3.1415926535897931 $692 $821 forward 7 unknown #
coedge $-1 $822 $823 $693 $756 reversed $824 $-1 #
edge $-1 $761 0 $760 3.1415926535897931 $693 $825 forward 7 unknown #
coedge $-1 $826 $694 $823 $827 forward $759 $-1 #
coedge $-1 $694 $826 $822 $828 reversed $759 $-1 #
loop $-1 $-1 $757 $829 #
vertex $-1 $756 $830 #
vertex $-1 $756 $831 #
ellipse-curve $-1 -29 72.762511036458974 26.240000000000002 1 0 0 0 -0.17499999999999716 0 1 I I #
coedge $-1 $832 $696 $699 $769 forward $765 $-1 #
coedge $-1 $696 $832 $698 $768 reversed $765 $-1 #
loop $-1 $-1 $763 $833 #
ellipse-curve $-1 -29 70.009999999999991 23.487488963541018 1 0 0 0 0.17499999999999716 0 1 I I #
coedge $-1 $699 $698 $744 $806 forward $700 $-1 #
edge $-1 $701 0 $834 0.25 $764 $835 forward 7 unknown #
edge $-1 $702 0 $836 0.25 $763 $837 forward 7 unknown #
face $-1 $833 $700 $3 $-1 $838 reversed single #
point $-1 -29 69.834999999999994 23.487488963541018 #
point $-1 -29 70.184999999999988 23.487488963541018 #
coedge $-1 $705 $704 $745 $807 forward $706 $-1 #
face $-1 $770 $706 $3 $-1 $839 reversed single #
vertex $-1 $807 $840 #
straight-curve $-1 -29 66.075000000000003 22.48 1 0 0 I I #
vertex $-1 $807 $841 #
straight-curve $-1 -29 66.424999999999997 22.48 1 0 0 I I #
cone-surface $-1 -29 66.25 22.48 1 0 0 0 0.17499999999999999 0 1 I I 0 1 0.17499999999999999 forward I I I I #
cone-surface $-1 -29 62.489999999999995 23.487488963541018 1 0 0 0 0.17499999999999999 0 1 I I 0 1 0.17499999999999999 forward I I I I #
point $-1 -28.75 62.314999999999998 23.487488963541018 #
point $-1 -28.75 62.664999999999992 23.487488963541018 #
edge $-1 $734 0 $788 16.25227291513248 $728 $842 forward 7 unknown #
edge $-1 $741 0 $789 4.7823121479807469 $739 $843 forward 7 unknown #
coedge $-1 $796 $725 $798 $844 forward $787 $-1 #
coedge $-1 $725 $796 $729 $791 reversed $787 $-1 #
loop $-1 $-1 $785 $845 #
vertex $-1 $791 $846 #
vertex $-1 $844 $847 #
ellipse-curve $-1 -15.25 66.25 30 1 0 0 0 11.75 0 1 I I #
edge $-1 $788 0 $792 13.5 $729 $848 forward 7 unknown #
vertex $-1 $791 $849 #
straight-curve $-1 -28.75 78 0 0 0 1 I I #
straight-curve $-1 -15.25 78 13.74772708486752 0 -1 0 I I #
point $-1 -15.25 78 13.74772708486752 #
coedge $-1 $786 $785 $736 $797 forward $787 $-1 #
edge $-1 $799 1.2351670915884048e-015 $792 4.4936269993541176 $736 $850 forward 7 unknown #
coedge $-1 $739 $737 $785 $844 reversed $740 $-1 #
vertex $-1 $738 $851 #
straight-curve $-1 -28.75 63.699999999999996 0 0 0 1 I I #
face $-1 $485 $740 $3 $-1 $852 reversed single #
point $-1 -15.25 63.699999999999996 13.74772708486752 #
loop $-1 $853 $854 $198 #
coedge $-1 $855 $855 $826 $856 reversed $743 $-1 #
coedge $-1 $744 $744 $832 $857 reversed $684 $-1 #
edge $-1 $834 0 $836 3.1415926535897118 $744 $858 forward 7 unknown #
edge $-1 $777 0 $775 3.1415926535897118 $745 $859 forward 7 unknown #
ellipse-curve $-1 -28.75 66.25 22.480000000000008 1 0 0 0 -0.17499999999999716 -7.1054273576010019e-015 1 I I #
ellipse-curve $-1 -28.75 62.489999999999995 23.487488963541018 1 0 0 0 0.17499999999999716 0 1 I I #
coedge $-1 $860 $860 $861 $862 forward $750 $-1 #
coedge $-1 $751 $751 $863 $864 forward $691 $-1 #
coedge $-1 $865 $866 $751 $813 reversed $867 $-1 #
edge $-1 $868 0 $869 3.1415926535897931 $751 $870 forward 7 unknown #
coedge $-1 $871 $872 $752 $815 reversed $873 $-1 #
edge $-1 $820 0 $819 3.1415926535897931 $752 $874 forward 7 unknown #
coedge $-1 $875 $753 $872 $876 forward $818 $-1 #
coedge $-1 $753 $875 $871 $877 reversed $818 $-1 #
loop $-1 $-1 $816 $878 #
vertex $-1 $815 $879 #
vertex $-1 $815 $880 #
ellipse-curve $-1 -29 73.769999999999996 30 1 0 0 0 -0.17499999999999716 0 1 I I #
coedge $-1 $881 $755 $758 $828 forward $824 $-1 #
coedge $-1 $755 $881 $757 $827 reversed $824 $-1 #
loop $-1 $-1 $822 $882 #
ellipse-curve $-1 -29 72.762511036458974 26.240000000000002 1 0 0 0 0.17499999999999716 0 1 I I #
coedge $-1 $758 $757 $804 $856 forward $759 $-1 #
edge $-1 $760 0 $883 0.25 $823 $884 forward 7 unknown #
edge $-1 $761 0 $885 0.25 $822 $886 forward 7 unknown #
face $-1 $882 $759 $3 $-1 $887 reversed single #
point $-1 -29 72.587511036458977 26.240000000000002 #
point $-1 -29 72.937511036458972 26.240000000000002 #
coedge $-1 $764 $763 $805 $857 forward $765 $-1 #
face $-1 $829 $765 $3 $-1 $888 reversed single #
vertex $-1 $857 $889 #
straight-curve $-1 -29 69.834999999999994 23.487488963541018 1 0 0 I I #
vertex $-1 $857 $890 #
straight-curve $-1 -29 70.184999999999988 23.487488963541018 1 0 0 I I #
cone-surface $-1 -29 70.009999999999991 23.487488963541018 1 0 0 0 0.17499999999999999 0 1 I I 0 1 0.17499999999999999 forward I I I I #
cone-surface $-1 -29 66.25 22.48 1 0 0 0 0.17499999999999999 0 1 I I 0 1 0.17499999999999999 forward I I I I #
point $-1 -28.75 66.075000000000003 22.48 #
point $-1 -28.75 66.424999999999997 22.48 #
straight-curve $-1 -15.25 78 13.74772708486752 0 0 1 I I #
straight-curve $-1 -15.25 63.699999999999996 13.74772708486752 0 0 1 I I #
edge $-1 $789 0 $799 13.5 $798 $891 forward 7 unknown #
face $-1 $801 $787 $3 $-1 $892 reversed single #
point $-1 -15.25 78 30 #
point $-1 -15.25 63.699999999999996 18.530039232848267 #
straight-curve $-1 -15.25 78 30 -1 0 0 I I #
point $-1 -28.75 78 30 #
ellipse-curve $-1 -28.75 66.25 29.999999999999996 -1 0 0 0 -2.5499999999999901 -11.469960767151733 1 I I #
point $-1 -28.75 63.699999999999996 18.530039232848267 #
plane-surface $-1 -29 63.699999999999996 0 0 -1 0 1 0 0 forward_v I I I I #
loop $-1 $893 $894 $198 #
coedge $-1 $895 $895 $875 $896 reversed $803 $-1 #
coedge $-1 $804 $804 $881 $897 reversed $743 $-1 #
edge $-1 $883 0 $885 3.1415926535898744 $804 $898 forward 7 unknown #
edge $-1 $836 0 $834 3.1415926535897118 $805 $899 forward 7 unknown #
ellipse-curve $-1 -28.75 70.009999999999991 23.487488963541026 1 0 0 0 -0.17499999999999716 -7.1054273576010019e-015 1 I I #
ellipse-curve $-1 -28.75 66.25 22.479999999999993 1 0 0 0 0.17499999999999716 7.1054273576010019e-015 1 I I #
coedge $-1 $810 $810 $900 $901 forward $750 $-1 #
coedge $-1 $902 $903 $810 $862 reversed $904 $-1 #
edge $-1 $905 0 $906 3.1415926535897931 $810 $907 forward 7 unknown #
coedge $-1 $908 $909 $811 $864 reversed $910 $-1 #
edge $-1 $869 0 $868 3.1415926535897931 $811 $911 forward 7 unknown #
coedge $-1 $912 $812 $909 $913 forward $867 $-1 #
coedge $-1 $812 $912 $908 $914 reversed $867 $-1 #
loop $-1 $-1 $865 $915 #
vertex $-1 $864 $916 #
vertex $-1 $864 $917 #
ellipse-curve $-1 -29 72.762511036458989 33.759999999999991 1 0 0 0 -0.17499999999999716 0 1 I I #
coedge $-1 $918 $814 $817 $877 forward $873 $-1 #
coedge $-1 $814 $918 $816 $876 reversed $873 $-1 #
loop $-1 $-1 $871 $919 #
ellipse-curve $-1 -29 73.769999999999996 30 1 0 0 0 0.17499999999999716 0 1 I I #
coedge $-1 $817 $816 $854 $896 forward $818 $-1 #
edge $-1 $819 0 $920 0.25 $872 $921 forward 7 unknown #
edge $-1 $820 0 $922 0.25 $871 $923 forward 7 unknown #
face $-1 $919 $818 $3 $-1 $924 reversed single #
point $-1 -29 73.594999999999999 30 #
point $-1 -29 73.944999999999993 30 #
coedge $-1 $823 $822 $855 $897 forward $824 $-1 #
face $-1 $878 $824 $3 $-1 $925 reversed single #
vertex $-1 $897 $926 #
straight-curve $-1 -29 72.587511036458977 26.240000000000002 1 0 0 I I #
vertex $-1 $897 $927 #
straight-curve $-1 -29 72.937511036458972 26.240000000000002 1 0 0 I I #
cone-surface $-1 -29 72.762511036458974 26.240000000000002 1 0 0 0 0.17499999999999999 0 1 I I 0 1 0.17499999999999999 forward I I I I #
cone-surface $-1 -29 70.009999999999991 23.487488963541018 1 0 0 0 0.17499999999999999 0 1 I I 0 1 0.17499999999999999 forward I I I I #
point $-1 -28.75 69.834999999999994 23.487488963541018 #
point $-1 -28.75 70.184999999999988 23.487488963541018 #
straight-curve $-1 -15.25 63.699999999999996 18.530039232848267 -1 0 0 I I #
cone-surface $-1 -29 66.25 30 -1 0 0 0 0 11.75 1 I I 0 1 11.75 forward I I I I #
loop $-1 $677 $928 $198 #
coedge $-1 $929 $929 $912 $930 reversed $853 $-1 #
coedge $-1 $854 $854 $918 $931 reversed $803 $-1 #
edge $-1 $920 0 $922 3.1415926535898744 $854 $932 forward 7 unknown #
edge $-1 $885 0 $883 3.1415926535898744 $855 $933 forward 7 unknown #
ellipse-curve $-1 -28.75 72.762511036458974 26.239999999999995 1 0 0 0 -0.17499999999999716 7.1054273576010019e-015 1 I I #
ellipse-curve $-1 -28.75 70.009999999999991 23.487488963541011 1 0 0 0 0.17499999999999716 7.1054273576010019e-015 1 I I #
coedge $-1 $934 $935 $860 $901 reversed $936 $-1 #
edge $-1 $906 0 $905 3.1415926535897931 $860 $937 forward 7 unknown #
coedge $-1 $938 $861 $935 $939 forward $904 $-1 #
coedge $-1 $861 $938 $934 $940 reversed $904 $-1 #
loop $-1 $-1 $902 $941 #
vertex $-1 $901 $942 #
vertex $-1 $901 $943 #
ellipse-curve $-1 -29 70.010000000000005 36.512511036458974 1 0 0 0 -0.17499999999999716 0 1 I I #
coedge $-1 $944 $863 $866 $914 forward $910 $-1 #
coedge $-1 $863 $944 $865 $913 reversed $910 $-1 #
loop $-1 $-1 $908 $945 #
ellipse-curve $-1 -29 72.762511036458989 33.759999999999991 1 0 0 0 0.17499999999999716 0 1 I I #
coedge $-1 $866 $865 $894 $930 forward $867 $-1 #
edge $-1 $868 0 $946 0.25 $909 $947 forward 7 unknown #
edge $-1 $869 0 $948 0.25 $908 $949 forward 7 unknown #
face $-1 $945 $867 $3 $-1 $950 reversed single #
point $-1 -29 72.587511036458991 33.759999999999991 #
point $-1 -29 72.937511036458986 33.759999999999991 #
coedge $-1 $872 $871 $895 $931 forward $873 $-1 #
face $-1 $915 $873 $3 $-1 $951 reversed single #
vertex $-1 $931 $952 #
straight-curve $-1 -29 73.594999999999999 30 1 0 0 I I #
vertex $-1 $931 $953 #
straight-curve $-1 -29 73.944999999999993 30 1 0 0 I I #
cone-surface $-1 -29 73.769999999999996 30 1 0 0 0 0.17499999999999999 0 1 I I 0 1 0.17499999999999999 forward I I I I #
cone-surface $-1 -29 72.762511036458974 26.240000000000002 1 0 0 0 0.17499999999999999 0 1 I I 0 1 0.17499999999999999 forward I I I I #
point $-1 -28.75 72.587511036458977 26.240000000000002 #
point $-1 -28.75 72.937511036458972 26.240000000000002 #
coedge $-1 $954 $954 $938 $955 reversed $893 $-1 #
coedge $-1 $894 $894 $944 $956 reversed $853 $-1 #
edge $-1 $946 0 $948 3.1415926535897118 $894 $957 forward 7 unknown #
edge $-1 $922 0 $920 3.1415926535898744 $895 $958 forward 7 unknown #
ellipse-curve $-1 -28.75 73.769999999999996 29.999999999999993 1 0 0 0 -0.17499999999999716 7.1054273576010019e-015 1 I I #
ellipse-curve $-1 -28.75 72.762511036458974 26.240000000000009 1 0 0 0 0.17499999999999716 -7.1054273576010019e-015 1 I I #
coedge $-1 $959 $900 $903 $940 forward $936 $-1 #
coedge $-1 $900 $959 $902 $939 reversed $936 $-1 #
loop $-1 $-1 $934 $960 #
ellipse-curve $-1 -29 70.010000000000005 36.512511036458974 1 0 0 0 0.17499999999999716 0 1 I I #
coedge $-1 $903 $902 $928 $955 forward $904 $-1 #
edge $-1 $905 0 $961 0.25 $935 $962 forward 7 unknown #
edge $-1 $906 0 $963 0.25 $934 $964 forward 7 unknown #
face $-1 $960 $904 $3 $-1 $965 reversed single #
point $-1 -29 69.835000000000008 36.512511036458974 #
point $-1 -29 70.185000000000002 36.512511036458974 #
coedge $-1 $909 $908 $929 $956 forward $910 $-1 #
face $-1 $941 $910 $3 $-1 $966 reversed single #
vertex $-1 $956 $967 #
straight-curve $-1 -29 72.587511036458991 33.759999999999991 1 0 0 I I #
vertex $-1 $956 $968 #
straight-curve $-1 -29 72.937511036458986 33.759999999999991 1 0 0 I I #
cone-surface $-1 -29 72.762511036458989 33.759999999999991 1 0 0 0 0.17499999999999999 0 1 I I 0 1 0.17499999999999999 forward I I I I #
cone-surface $-1 -29 73.769999999999996 30 1 0 0 0 0.17499999999999999 0 1 I I 0 1 0.17499999999999999 forward I I I I #
point $-1 -28.75 73.594999999999999 30 #
point $-1 -28.75 73.944999999999993 30 #
coedge $-1 $928 $928 $959 $969 reversed $893 $-1 #
edge $-1 $961 0 $963 3.1415926535898744 $928 $970 forward 7 unknown #
edge $-1 $948 0 $946 3.1415926535897118 $929 $971 forward 7 unknown #
ellipse-curve $-1 -28.75 72.762511036458989 33.759999999999998 1 0 0 0 -0.17499999999999716 -7.1054273576010019e-015 1 I I #
ellipse-curve $-1 -28.75 73.769999999999996 30.000000000000007 1 0 0 0 0.17499999999999716 -7.1054273576010019e-015 1 I I #
coedge $-1 $935 $934 $954 $969 forward $936 $-1 #
face $-1 $845 $936 $3 $-1 $972 reversed single #
vertex $-1 $969 $973 #
straight-curve $-1 -29 69.835000000000008 36.512511036458974 1 0 0 I I #
vertex $-1 $969 $974 #
straight-curve $-1 -29 70.185000000000002 36.512511036458974 1 0 0 I I #
cone-surface $-1 -29 70.010000000000005 36.512511036458974 1 0 0 0 0.17499999999999999 0 1 I I 0 1 0.17499999999999999 forward I I I I #
cone-surface $-1 -29 72.762511036458989 33.759999999999991 1 0 0 0 0.17499999999999999 0 1 I I 0 1 0.17499999999999999 forward I I I I #
point $-1 -28.75 72.587511036458991 33.759999999999991 #
point $-1 -28.75 72.937511036458986 33.759999999999991 #
edge $-1 $963 0 $961 3.1415926535898744 $954 $975 forward 7 unknown #
ellipse-curve $-1 -28.75 70.010000000000005 36.512511036458967 1 0 0 0 -0.17499999999999716 7.1054273576010019e-015 1 I I #
ellipse-curve $-1 -28.75 72.762511036458989 33.759999999999984 1 0 0 0 0.17499999999999716 7.1054273576010019e-015 1 I I #
cone-surface $-1 -29 70.010000000000005 36.512511036458974 1 0 0 0 0.17499999999999999 0 1 I I 0 1 0.17499999999999999 forward I I I I #
point $-1 -28.75 69.835000000000008 36.512511036458974 #
point $-1 -28.75 70.185000000000002 36.512511036458974 #
ellipse-curve $-1 -28.75 70.010000000000005 36.512511036458982 1 0 0 0 0.17499999999999716 -7.1054273576010019e-015 1 I I #
End-of-ACIS-data 