600 0 1 0           
92 GICL Pro/E ACIS Translator - Source: f:/data5/repository/PTC/V18/lrgasm18/tray_3.prt.2 - 6 0 13 ACIS 6.0.3 NT 24 Thu Apr 04 13:34:44 2002 
1 9.9999999999999995e-007 1e-010 
body $-1 $1 $-1 $2 #
lump $-1 $-1 $3 $0 #
transform $-1 1 0 0 0 1 0 0 0 1 0 0 0 25.399999999999999 no_rotate no_reflect no_shear #
shell $-1 $-1 $-1 $4 $-1 $1 #
face $-1 $5 $6 $3 $-1 $7 forward single #
face $-1 $8 $9 $3 $-1 $10 forward single #
loop $-1 $-1 $11 $4 #
plane-surface $-1 -123 -13 12 -1 0 0 0 0 1 forward_v I I I I #
face $-1 $12 $13 $3 $-1 $14 forward single #
loop $-1 $-1 $15 $5 #
plane-surface $-1 -123 -0.25 -10.149999999999999 0 -0.47058823529411781 -0.88235294117647067 0 -0.88235294117647067 0.47058823529411781 forward_v I I I I #
coedge $-1 $16 $17 $18 $19 forward $6 $-1 #
face $-1 $20 $21 $3 $-1 $22 forward single #
loop $-1 $23 $24 $8 #
plane-surface $-1 -123 -0.25 -12 0 -1 0 0 0 1 forward_v I I I I #
coedge $-1 $25 $18 $26 $27 forward $9 $-1 #
coedge $-1 $28 $11 $29 $30 forward $6 $-1 #
coedge $-1 $11 $31 $32 $33 forward $6 $-1 #
coedge $-1 $15 $34 $11 $19 reversed $9 $-1 #
edge $-1 $35 0 $36 9.8500000000000405 $11 $37 forward 7 unknown #
face $-1 $38 $39 $3 $-1 $40 forward single #
loop $-1 $-1 $41 $12 #
plane-surface $-1 -123 0 -12 0 0 -1 0 -1 0 forward_v I I I I #
loop $-1 $42 $43 $8 #
coedge $-1 $44 $32 $45 $46 forward $13 $-1 #
coedge $-1 $34 $15 $47 $48 forward $9 $-1 #
coedge $-1 $32 $44 $15 $27 reversed $13 $-1 #
edge $-1 $35 0 $49 120 $26 $50 forward 7 unknown #
coedge $-1 $51 $16 $52 $53 forward $6 $-1 #
coedge $-1 $54 $55 $16 $30 reversed $56 $-1 #
edge $-1 $36 0 $57 2.1616780010823278 $16 $58 forward 7 unknown #
coedge $-1 $17 $59 $60 $61 forward $6 $-1 #
coedge $-1 $24 $26 $17 $33 reversed $13 $-1 #
edge $-1 $62 0 $35 1.8500000000000014 $17 $63 forward 7 unknown #
coedge $-1 $18 $25 $54 $64 reversed $9 $-1 #
vertex $-1 $33 $65 #
vertex $-1 $30 $66 #
straight-curve $-1 -123 -0.25 -10.149999999999999 0 -0.88235294117647056 0.47058823529411781 I I #
face $-1 $67 $68 $3 $-1 $69 forward single #
loop $-1 $70 $71 $20 #
plane-surface $-1 -123 0 -10 0 1 0 0 0 -1 forward_v I I I I #
coedge $-1 $72 $60 $73 $74 forward $21 $-1 #
loop $-1 $75 $76 $8 #
coedge $-1 $77 $77 $78 $79 reversed $23 $-1 #
coedge $-1 $26 $24 $80 $81 forward $13 $-1 #
coedge $-1 $60 $72 $24 $46 reversed $21 $-1 #
edge $-1 $62 0 $82 120 $24 $83 forward 7 unknown #
coedge $-1 $80 $84 $25 $48 reversed $85 $-1 #
edge $-1 $49 0 $86 9.8500000000000014 $47 $87 forward 7 unknown #
vertex $-1 $81 $88 #
straight-curve $-1 -123 -0.25 -10.149999999999999 1 0 0 I I #
coedge $-1 $89 $28 $90 $91 forward $6 $-1 #
coedge $-1 $92 $93 $28 $53 reversed $94 $-1 #
edge $-1 $57 0 $95 9.8500000000000139 $28 $96 forward 7 unknown #
coedge $-1 $97 $29 $34 $64 forward $56 $-1 #
coedge $-1 $29 $97 $92 $98 reversed $56 $-1 #
loop $-1 $-1 $54 $99 #
vertex $-1 $53 $100 #
ellipse-curve $-1 -123 -6 0 -1 0 0 0 -2.941176470588271 -5.5147058823529207 1 I I #
coedge $-1 $31 $101 $102 $103 forward $6 $-1 #
coedge $-1 $41 $45 $31 $61 reversed $21 $-1 #
edge $-1 $104 0 $62 0.25 $31 $105 forward 7 unknown #
vertex $-1 $33 $106 #
straight-curve $-1 -123 -0.25 -12 0 0 1 I I #
edge $-1 $36 1.4462449929051883e-030 $86 120 $34 $107 forward 7 unknown #
point $-1 -123 -0.25 -10.149999999999999 #
point $-1 -123 -8.941176470588271 -5.5147058823529207 #
face $-1 $108 $109 $3 $-1 $110 reversed single #
loop $-1 $-1 $111 $38 #
plane-surface $-1 -123 -8.8235294117647065 -5.2941176470588225 0 0.4705882352941177 0.88235294117647056 0 0.88235294117647045 -0.47058823529411764 forward_v I I I I #
loop $-1 $112 $113 $20 #
coedge $-1 $114 $102 $115 $116 forward $39 $-1 #
coedge $-1 $45 $41 $117 $118 forward $21 $-1 #
coedge $-1 $102 $114 $41 $74 reversed $39 $-1 #
edge $-1 $104 0 $119 120 $73 $120 forward 7 unknown #
loop $-1 $121 $122 $8 #
coedge $-1 $123 $123 $124 $125 reversed $42 $-1 #
coedge $-1 $43 $43 $126 $127 reversed $23 $-1 #
coedge $-1 $128 $129 $43 $79 forward $130 $-1 #
edge $-1 $131 0 $132 3.1415926535897789 $43 $133 forward 7 unknown #
coedge $-1 $117 $47 $44 $81 reversed $85 $-1 #
edge $-1 $82 0 $49 1.8500000000000014 $80 $134 forward 7 unknown #
vertex $-1 $81 $135 #
straight-curve $-1 -123 -0.25 -12 1 0 0 I I #
coedge $-1 $47 $136 $97 $137 reversed $85 $-1 #
loop $-1 $-1 $117 $138 #
vertex $-1 $48 $139 #
straight-curve $-1 -3 -0.25 -10.149999999999999 0 -0.88235294117647045 0.4705882352941177 I I #
point $-1 -3 -0.25 -10.149999999999999 #
coedge $-1 $140 $51 $141 $142 forward $6 $-1 #
coedge $-1 $143 $144 $51 $91 reversed $145 $-1 #
edge $-1 $95 0 $146 1.8499999999999996 $51 $147 forward 7 unknown #
coedge $-1 $148 $52 $55 $98 forward $94 $-1 #
coedge $-1 $52 $148 $143 $149 reversed $94 $-1 #
loop $-1 $-1 $92 $150 #
vertex $-1 $91 $151 #
straight-curve $-1 -123 -8.9411764705882462 5.514705882352934 0 0.88235294117647056 0.47058823529411764 I I #
coedge $-1 $55 $54 $84 $137 forward $56 $-1 #
edge $-1 $57 -1.3147681753683529e-031 $152 120 $55 $153 forward 7 unknown #
face $-1 $138 $56 $3 $-1 $154 forward single #
point $-1 -123 -8.9411764705882462 5.514705882352934 #
coedge $-1 $59 $155 $156 $157 forward $6 $-1 #
coedge $-1 $71 $73 $59 $103 reversed $39 $-1 #
edge $-1 $158 0 $104 2 $59 $159 forward 7 unknown #
vertex $-1 $61 $160 #
straight-curve $-1 -123 0 -12 0 -1 0 I I #
point $-1 -123 -0.25 -12 #
straight-curve $-1 -123 -8.941176470588232 -5.5147058823529402 1 -2.9605947323337507e-017 1.4802973661668754e-017 I I #
face $-1 $161 $162 $3 $-1 $163 forward single #
loop $-1 $-1 $164 $67 #
cone-surface $-1 -123 -6 0 -1 0 0 0 0 6 1 I I 0 1 6 forward I I I I #
coedge $-1 $165 $156 $166 $167 forward $68 $-1 #
loop $-1 $168 $169 $20 #
coedge $-1 $170 $170 $171 $172 forward $70 $-1 #
coedge $-1 $73 $71 $173 $174 forward $39 $-1 #
coedge $-1 $156 $165 $71 $116 reversed $68 $-1 #
edge $-1 $158 0 $175 120 $115 $176 forward 7 unknown #
coedge $-1 $173 $80 $72 $118 reversed $85 $-1 #
edge $-1 $119 0 $82 0.25 $117 $177 forward 7 unknown #
vertex $-1 $174 $178 #
straight-curve $-1 -123 0 -12 1 0 0 I I #
loop $-1 $179 $180 $8 #
coedge $-1 $181 $181 $182 $183 reversed $75 $-1 #
coedge $-1 $76 $76 $184 $185 reversed $42 $-1 #
coedge $-1 $186 $187 $76 $125 forward $188 $-1 #
edge $-1 $189 0 $190 3.1415926535897789 $76 $191 forward 7 unknown #
coedge $-1 $192 $193 $77 $127 forward $194 $-1 #
edge $-1 $132 0 $131 3.1415926535897789 $77 $195 forward 7 unknown #
coedge $-1 $171 $78 $193 $196 reversed $130 $-1 #
coedge $-1 $78 $171 $192 $197 forward $130 $-1 #
loop $-1 $-1 $128 $198 #
vertex $-1 $127 $199 #
vertex $-1 $127 $200 #
ellipse-curve $-1 -113 -0.25 -11.249999999999998 0 -1 0 -0.25 0 -1.7763568394002505e-015 1 I I #
straight-curve $-1 -3 -0.25 -12 0 0 1 I I #
point $-1 -3 -0.25 -12 #
coedge $-1 $84 $201 $148 $202 reversed $85 $-1 #
edge $-1 $86 9.0949470177292828e-017 $152 2.1616780010823367 $84 $203 forward 7 unknown #
face $-1 $204 $85 $3 $-1 $205 reversed single #
point $-1 -3 -8.9411764705882355 -5.5147058823529411 #
coedge $-1 $206 $89 $207 $208 forward $6 $-1 #
coedge $-1 $209 $210 $89 $142 reversed $211 $-1 #
edge $-1 $146 0 $212 0.25 $89 $213 forward 7 unknown #
coedge $-1 $214 $90 $93 $149 forward $145 $-1 #
coedge $-1 $90 $214 $209 $215 reversed $145 $-1 #
loop $-1 $216 $143 $217 #
vertex $-1 $142 $218 #
straight-curve $-1 -123 -0.25 10.15 0 0 1 I I #
coedge $-1 $93 $92 $136 $202 forward $94 $-1 #
edge $-1 $95 0 $219 120 $93 $220 forward 7 unknown #
face $-1 $99 $94 $3 $-1 $221 forward single #
point $-1 -123 -0.25 10.15 #
vertex $-1 $137 $222 #
straight-curve $-1 -123 -8.9411764705882373 5.5147058823529402 1 1.4802973661668754e-017 0 I I #
cone-surface $-1 -123 -6 0 -1 0 0 0 0 6.25 1 I I 0 1 6.25 forward I I I I #
coedge $-1 $101 $206 $223 $224 forward $6 $-1 #
coedge $-1 $111 $115 $101 $157 reversed $68 $-1 #
edge $-1 $225 0 $158 10.000000000000004 $101 $226 forward 7 unknown #
vertex $-1 $103 $227 #
straight-curve $-1 -123 0 -10 0 0 -1 I I #
point $-1 -123 0 -12 #
face $-1 $228 $229 $3 $-1 $230 forward single #
loop $-1 $-1 $231 $108 #
plane-surface $-1 -123 0 10 0 0.4705882352941177 -0.88235294117647056 0 -0.88235294117647045 -0.47058823529411764 forward_v I I I I #
coedge $-1 $232 $223 $233 $234 forward $109 $-1 #
coedge $-1 $115 $111 $235 $236 forward $68 $-1 #
coedge $-1 $223 $232 $111 $167 reversed $109 $-1 #
edge $-1 $225 6.573840876841765e-033 $237 120 $166 $238 forward 7 unknown #
loop $-1 $239 $240 $20 #
coedge $-1 $241 $241 $242 $243 forward $112 $-1 #
coedge $-1 $113 $113 $244 $245 forward $70 $-1 #
coedge $-1 $129 $128 $113 $172 reversed $130 $-1 #
edge $-1 $246 0 $247 3.1415926535897931 $113 $248 forward 7 unknown #
coedge $-1 $235 $117 $114 $174 reversed $85 $-1 #
edge $-1 $175 0 $119 2 $173 $249 forward 7 unknown #
vertex $-1 $236 $250 #
straight-curve $-1 -123 0 -10 1 0 0 I I #
straight-curve $-1 -3 0 -12 0 -1 0 I I #
point $-1 -3 0 -12 #
loop $-1 $251 $252 $8 #
coedge $-1 $253 $253 $254 $255 reversed $121 $-1 #
coedge $-1 $122 $122 $256 $257 reversed $75 $-1 #
coedge $-1 $258 $259 $122 $183 forward $260 $-1 #
edge $-1 $261 0 $262 3.1415926535897789 $122 $263 forward 7 unknown #
coedge $-1 $264 $265 $123 $185 forward $266 $-1 #
edge $-1 $190 0 $189 3.1415926535897789 $123 $267 forward 7 unknown #
coedge $-1 $242 $124 $265 $268 reversed $188 $-1 #
coedge $-1 $124 $242 $264 $269 forward $188 $-1 #
loop $-1 $-1 $186 $270 #
vertex $-1 $185 $271 #
vertex $-1 $185 $272 #
ellipse-curve $-1 -103 -0.25 -11.249999999999998 0 -1 0 -0.25 0 -1.7763568394002505e-015 1 I I #
coedge $-1 $244 $126 $129 $197 reversed $194 $-1 #
coedge $-1 $126 $244 $128 $196 forward $194 $-1 #
loop $-1 $-1 $192 $273 #
ellipse-curve $-1 -113 -0.25 -11.250000000000002 0 -1 0 0.25 0 1.7763568394002505e-015 1 I I #
edge $-1 $247 0 $132 0.25 $193 $274 forward 7 unknown #
edge $-1 $246 0 $131 0.25 $192 $275 forward 7 unknown #
face $-1 $273 $130 $3 $-1 $276 reversed single #
point $-1 -113.25 -0.25 -11.25 #
point $-1 -112.75 -0.25 -11.25 #
coedge $-1 $136 $277 $214 $278 reversed $85 $-1 #
edge $-1 $152 0 $219 9.8500000000000014 $136 $279 forward 7 unknown #
ellipse-curve $-1 -3 -6.0000000000000009 1.7763568394002505e-015 -1 0 0 0 -2.9411764705882328 -5.5147058823529411 1 I I #
face $-1 $280 $281 $3 $-1 $282 reversed single #
plane-surface $-1 -3 -13 -12 -1 0 0 0 1 0 forward_v I I I I #
coedge $-1 $155 $140 $283 $284 forward $6 $-1 #
coedge $-1 $285 $286 $140 $208 reversed $229 $-1 #
edge $-1 $212 0 $287 2 $140 $288 forward 7 unknown #
coedge $-1 $289 $141 $144 $215 forward $211 $-1 #
coedge $-1 $141 $289 $285 $290 reversed $211 $-1 #
loop $-1 $-1 $209 $228 #
vertex $-1 $208 $291 #
straight-curve $-1 -123 -0.25 12 0 1 0 I I #
coedge $-1 $144 $143 $201 $278 forward $145 $-1 #
edge $-1 $146 0 $292 120 $144 $293 forward 7 unknown #
loop $-1 $294 $295 $217 #
face $-1 $150 $145 $3 $-1 $296 forward single #
point $-1 -123 -0.25 12 #
vertex $-1 $202 $297 #
straight-curve $-1 -123 -0.25 10.149999999999999 1 0 0 I I #
plane-surface $-1 -123 -8.9411764705882355 5.5147058823529402 0 -0.4705882352941177 0.88235294117647067 0 0.88235294117647067 0.4705882352941177 forward_v I I I I #
point $-1 -3 -8.9411764705882355 5.5147058823529402 #
coedge $-1 $164 $166 $155 $224 reversed $109 $-1 #
edge $-1 $298 0 $225 2.1616780010823344 $155 $299 forward 7 unknown #
vertex $-1 $157 $300 #
straight-curve $-1 -123 -8.8235294117647065 -5.2941176470588225 0 0.88235294117647045 -0.47058823529411764 I I #
point $-1 -123 0 -10 #
face $-1 $217 $211 $3 $-1 $301 forward single #
loop $-1 $302 $285 $161 #
plane-surface $-1 -123 0 12 0 1 0 0 0 -1 forward_v I I I I #
coedge $-1 $303 $283 $286 $304 forward $162 $-1 #
coedge $-1 $166 $164 $305 $306 forward $109 $-1 #
coedge $-1 $283 $303 $164 $234 reversed $162 $-1 #
edge $-1 $298 0 $307 120 $233 $308 forward 7 unknown #
coedge $-1 $305 $173 $165 $236 reversed $85 $-1 #
edge $-1 $237 0 $175 10.000000000000004 $235 $309 forward 7 unknown #
vertex $-1 $306 $310 #
straight-curve $-1 -123 -8.8235294117647065 -5.2941176470588234 1 0 7.4014868308343768e-018 I I #
loop $-1 $311 $312 $20 #
coedge $-1 $313 $313 $314 $315 forward $168 $-1 #
coedge $-1 $169 $169 $316 $317 forward $112 $-1 #
coedge $-1 $187 $186 $169 $243 reversed $188 $-1 #
edge $-1 $318 0 $319 3.1415926535897931 $169 $320 forward 7 unknown #
coedge $-1 $193 $192 $170 $245 reversed $194 $-1 #
edge $-1 $247 0 $246 3.1415926535897931 $170 $321 forward 7 unknown #
vertex $-1 $245 $322 #
vertex $-1 $245 $323 #
ellipse-curve $-1 -113 0 -11.25 0 -1 0 -0.25 0 0 1 I I #
straight-curve $-1 -3 0 -10 0 0 -1 I I #
point $-1 -3 0 -10 #
loop $-1 $324 $325 $8 #
coedge $-1 $326 $326 $327 $328 reversed $179 $-1 #
coedge $-1 $180 $180 $329 $330 reversed $121 $-1 #
coedge $-1 $331 $332 $180 $255 forward $333 $-1 #
edge $-1 $334 0 $335 3.1415926535897789 $180 $336 forward 7 unknown #
coedge $-1 $337 $338 $181 $257 forward $339 $-1 #
edge $-1 $262 0 $261 3.1415926535897789 $181 $340 forward 7 unknown #
coedge $-1 $314 $182 $338 $341 reversed $260 $-1 #
coedge $-1 $182 $314 $337 $342 forward $260 $-1 #
loop $-1 $-1 $258 $343 #
vertex $-1 $257 $344 #
vertex $-1 $257 $345 #
ellipse-curve $-1 -93 -0.25 -11.249999999999998 0 -1 0 -0.25 0 -1.7763568394002505e-015 1 I I #
coedge $-1 $316 $184 $187 $269 reversed $266 $-1 #
coedge $-1 $184 $316 $186 $268 forward $266 $-1 #
loop $-1 $-1 $264 $346 #
ellipse-curve $-1 -103 -0.25 -11.250000000000002 0 -1 0 0.25 0 1.7763568394002505e-015 1 I I #
edge $-1 $319 0 $190 0.25 $265 $347 forward 7 unknown #
edge $-1 $318 0 $189 0.25 $264 $348 forward 7 unknown #
face $-1 $346 $188 $3 $-1 $349 reversed single #
point $-1 -103.25 -0.25 -11.25 #
point $-1 -102.75 -0.25 -11.25 #
face $-1 $270 $194 $3 $-1 $350 reversed single #
straight-curve $-1 -112.75 0 -11.25 0 -1 0 I I #
straight-curve $-1 -113.25 0 -11.25 0 -1 0 I I #
cone-surface $-1 -113 0 -11.25 0 -1 0 0.25 0 0 1 I I 0 1 0.25 forward I I I I #
coedge $-1 $201 $351 $289 $352 reversed $85 $-1 #
edge $-1 $219 0 $292 1.8500000000000014 $201 $353 forward 7 unknown #
straight-curve $-1 -3 -8.9411764705882355 5.5147058823529402 0 0.88235294117647067 0.47058823529411764 I I #
face $-1 $354 $355 $3 $-1 $356 reversed single #
loop $-1 $-1 $357 $204 #
cone-surface $-1 -113 0 11.25 0 -1 0 0.25 0 0 1 I I 0 1 0.25 forward I I I I #
coedge $-1 $231 $233 $206 $284 reversed $162 $-1 #
edge $-1 $287 0 $298 10.000000000000012 $206 $358 forward 7 unknown #
coedge $-1 $359 $207 $210 $290 forward $229 $-1 #
coedge $-1 $207 $359 $231 $304 reversed $229 $-1 #
vertex $-1 $284 $360 #
straight-curve $-1 -123 0 12 0 0 -1 I I #
coedge $-1 $210 $209 $277 $352 forward $211 $-1 #
edge $-1 $212 0 $361 120 $210 $362 forward 7 unknown #
point $-1 -123 0 12 #
vertex $-1 $278 $363 #
straight-curve $-1 -123 -0.25 12 1 0 0 I I #
loop $-1 $364 $365 $217 #
coedge $-1 $366 $366 $367 $368 reversed $216 $-1 #
plane-surface $-1 -123 -0.25 10.149999999999999 0 -1 0 0 0 1 forward_v I I I I #
point $-1 -3 -0.25 10.149999999999999 #
vertex $-1 $224 $369 #
ellipse-curve $-1 -123 -6 0 1 0 0 0 -2.8235294117647172 5.2941176470588172 1 I I #
point $-1 -123 -8.8235294117647065 -5.2941176470588225 #
plane-surface $-1 -123 -0.25 12 0 0 1 0 1 0 forward_v I I I I #
loop $-1 $370 $371 $161 #
coedge $-1 $233 $231 $372 $373 forward $162 $-1 #
edge $-1 $287 0 $374 120 $286 $375 forward 7 unknown #
coedge $-1 $372 $235 $232 $306 reversed $85 $-1 #
edge $-1 $307 2.9605947323337506e-016 $237 2.1616780010823362 $305 $376 forward 7 unknown #
vertex $-1 $373 $377 #
straight-curve $-1 -123 -8.8235294117647083 5.2941176470588216 1 0 0 I I #
straight-curve $-1 -3 -8.8235294117647065 -5.2941176470588225 0 0.88235294117647045 -0.47058823529411764 I I #
point $-1 -3 -8.8235294117647065 -5.2941176470588225 #
loop $-1 $378 $379 $20 #
coedge $-1 $380 $380 $381 $382 forward $239 $-1 #
coedge $-1 $240 $240 $383 $384 forward $168 $-1 #
coedge $-1 $259 $258 $240 $315 reversed $260 $-1 #
edge $-1 $385 0 $386 3.1415926535897931 $240 $387 forward 7 unknown #
coedge $-1 $265 $264 $241 $317 reversed $266 $-1 #
edge $-1 $319 0 $318 3.1415926535897931 $241 $388 forward 7 unknown #
vertex $-1 $317 $389 #
vertex $-1 $317 $390 #
ellipse-curve $-1 -103 0 -11.25 0 -1 0 -0.25 0 0 1 I I #
ellipse-curve $-1 -113 0 -11.25 0 -1 0 0.25 0 0 1 I I #
point $-1 -113.25 0 -11.25 #
point $-1 -112.75 0 -11.25 #
loop $-1 $391 $392 $8 #
coedge $-1 $393 $393 $394 $395 reversed $251 $-1 #
coedge $-1 $252 $252 $396 $397 reversed $179 $-1 #
coedge $-1 $398 $399 $252 $328 forward $400 $-1 #
edge $-1 $401 0 $402 3.1415926535897789 $252 $403 forward 7 unknown #
coedge $-1 $404 $405 $253 $330 forward $406 $-1 #
edge $-1 $335 0 $334 3.1415926535897789 $253 $407 forward 7 unknown #
coedge $-1 $381 $254 $405 $408 reversed $333 $-1 #
coedge $-1 $254 $381 $404 $409 forward $333 $-1 #
loop $-1 $-1 $331 $410 #
vertex $-1 $330 $411 #
vertex $-1 $330 $412 #
ellipse-curve $-1 -83 -0.25 -11.249999999999998 0 -1 0 -0.25 0 -1.7763568394002505e-015 1 I I #
coedge $-1 $383 $256 $259 $342 reversed $339 $-1 #
coedge $-1 $256 $383 $258 $341 forward $339 $-1 #
loop $-1 $-1 $337 $413 #
ellipse-curve $-1 -93 -0.25 -11.250000000000002 0 -1 0 0.25 0 1.7763568394002505e-015 1 I I #
edge $-1 $386 0 $262 0.25 $338 $414 forward 7 unknown #
edge $-1 $385 0 $261 0.25 $337 $415 forward 7 unknown #
face $-1 $413 $260 $3 $-1 $416 reversed single #
point $-1 -93.25 -0.25 -11.25 #
point $-1 -92.75 -0.25 -11.25 #
face $-1 $343 $266 $3 $-1 $417 reversed single #
straight-curve $-1 -102.75 0 -11.25 0 -1 0 I I #
straight-curve $-1 -103.25 0 -11.25 0 -1 0 I I #
cone-surface $-1 -103 0 -11.25 0 -1 0 0.25 0 0 1 I I 0 1 0.25 forward I I I I #
cone-surface $-1 -113 0 -11.25 0 -1 0 0.25 0 0 1 I I 0 1 0.25 forward I I I I #
coedge $-1 $277 $372 $359 $418 reversed $85 $-1 #
edge $-1 $292 0 $361 0.25 $277 $419 forward 7 unknown #
straight-curve $-1 -3 -0.25 10.149999999999999 0 0 1 I I #
face $-1 $420 $421 $3 $-1 $422 reversed single #
loop $-1 $-1 $423 $280 #
cone-surface $-1 -113 0 11.25 0 -1 0 0.25 0 0 1 I I 0 1 0.25 forward I I I I #
coedge $-1 $424 $367 $425 $426 reversed $281 $-1 #
straight-curve $-1 -123 0 10 0 -0.88235294117647056 -0.4705882352941177 I I #
coedge $-1 $286 $285 $351 $418 forward $229 $-1 #
point $-1 -123 0 10 #
vertex $-1 $352 $427 #
straight-curve $-1 -123 0 12 1 0 0 I I #
point $-1 -3 -0.25 12 #
loop $-1 $428 $429 $217 #
coedge $-1 $430 $430 $431 $432 reversed $294 $-1 #
coedge $-1 $295 $295 $433 $434 reversed $216 $-1 #
coedge $-1 $357 $435 $295 $368 forward $281 $-1 #
edge $-1 $436 0 $437 3.1415926535897789 $295 $438 forward 7 unknown #
point $-1 -123 -8.8235294117647172 5.2941176470588172 #
loop $-1 $439 $440 $161 #
coedge $-1 $441 $441 $424 $442 forward $302 $-1 #
coedge $-1 $351 $305 $303 $373 reversed $85 $-1 #
edge $-1 $374 0 $307 10.000000000000004 $372 $443 forward 7 unknown #
vertex $-1 $418 $444 #
straight-curve $-1 -123 0 10 1 0 0 I I #
ellipse-curve $-1 -3 -6 0 1 0 0 0 -2.8235294117647065 5.2941176470588225 1 I I #
point $-1 -3 -8.8235294117647083 5.2941176470588225 #
loop $-1 $445 $446 $20 #
coedge $-1 $447 $447 $448 $449 forward $311 $-1 #
coedge $-1 $312 $312 $450 $451 forward $239 $-1 #
coedge $-1 $332 $331 $312 $382 reversed $333 $-1 #
edge $-1 $452 0 $453 3.1415926535897931 $312 $454 forward 7 unknown #
coedge $-1 $338 $337 $313 $384 reversed $339 $-1 #
edge $-1 $386 0 $385 3.1415926535897931 $313 $455 forward 7 unknown #
vertex $-1 $384 $456 #
vertex $-1 $384 $457 #
ellipse-curve $-1 -93 0 -11.25 0 -1 0 -0.25 0 0 1 I I #
ellipse-curve $-1 -103 0 -11.25 0 -1 0 0.25 0 0 1 I I #
point $-1 -103.25 0 -11.25 #
point $-1 -102.75 0 -11.25 #
loop $-1 $458 $459 $8 #
coedge $-1 $460 $460 $461 $462 reversed $324 $-1 #
coedge $-1 $325 $325 $463 $464 reversed $251 $-1 #
coedge $-1 $465 $466 $325 $395 forward $467 $-1 #
edge $-1 $468 0 $469 3.1415926535897931 $325 $470 forward 7 unknown #
coedge $-1 $471 $472 $326 $397 forward $473 $-1 #
edge $-1 $402 0 $401 3.1415926535897789 $326 $474 forward 7 unknown #
coedge $-1 $448 $327 $472 $475 reversed $400 $-1 #
coedge $-1 $327 $448 $471 $476 forward $400 $-1 #
loop $-1 $-1 $398 $477 #
vertex $-1 $397 $478 #
vertex $-1 $397 $479 #
ellipse-curve $-1 -73 -0.25 -11.249999999999998 0 -1 0 -0.25 0 -1.7763568394002505e-015 1 I I #
coedge $-1 $450 $329 $332 $409 reversed $406 $-1 #
coedge $-1 $329 $450 $331 $408 forward $406 $-1 #
loop $-1 $-1 $404 $480 #
ellipse-curve $-1 -83 -0.25 -11.250000000000002 0 -1 0 0.25 0 1.7763568394002505e-015 1 I I #
edge $-1 $453 0 $335 0.25 $405 $481 forward 7 unknown #
edge $-1 $452 0 $334 0.25 $404 $482 forward 7 unknown #
face $-1 $480 $333 $3 $-1 $483 reversed single #
point $-1 -83.25 -0.25 -11.25 #
point $-1 -82.75 -0.25 -11.25 #
face $-1 $410 $339 $3 $-1 $484 reversed single #
straight-curve $-1 -92.75 0 -11.25 0 -1 0 I I #
straight-curve $-1 -93.25 0 -11.25 0 -1 0 I I #
cone-surface $-1 -93 0 -11.25 0 -1 0 0.25 0 0 1 I I 0 1 0.25 forward I I I I #
cone-surface $-1 -103 0 -11.25 0 -1 0 0.25 0 0 1 I I 0 1 0.25 forward I I I I #
edge $-1 $361 0 $374 2 $351 $485 forward 7 unknown #
straight-curve $-1 -3 -0.25 12 0 1 0 I I #
face $-1 $486 $487 $3 $-1 $488 reversed single #
loop $-1 $-1 $489 $354 #
cone-surface $-1 -103 0 11.25 0 -1 0 0.25 0 0 1 I I 0 1 0.25 forward I I I I #
coedge $-1 $490 $433 $435 $491 reversed $355 $-1 #
coedge $-1 $435 $357 $371 $442 reversed $281 $-1 #
coedge $-1 $433 $490 $357 $426 forward $355 $-1 #
edge $-1 $492 0 $437 0.25 $425 $493 forward 7 unknown #
point $-1 -3 0 12 #
loop $-1 $494 $495 $217 #
coedge $-1 $496 $496 $497 $498 reversed $364 $-1 #
coedge $-1 $365 $365 $499 $500 reversed $294 $-1 #
coedge $-1 $489 $501 $365 $432 forward $421 $-1 #
edge $-1 $502 0 $503 3.1415926535897789 $365 $504 forward 7 unknown #
coedge $-1 $423 $425 $366 $434 forward $355 $-1 #
edge $-1 $437 0 $436 3.1415926535897789 $366 $505 forward 7 unknown #
coedge $-1 $367 $424 $423 $491 forward $281 $-1 #
vertex $-1 $434 $506 #
vertex $-1 $434 $507 #
ellipse-curve $-1 -113 -0.25 11.250000000000002 0 -1 0 -0.25 0 -1.7763568394002505e-015 1 I I #
loop $-1 $508 $509 $161 #
coedge $-1 $510 $510 $511 $512 forward $370 $-1 #
coedge $-1 $371 $371 $490 $513 forward $302 $-1 #
edge $-1 $514 0 $492 3.1415926535897931 $371 $515 forward 7 unknown #
straight-curve $-1 -3 0 10 0 -0.88235294117647045 -0.47058823529411764 I I #
point $-1 -3 0 10 #
loop $-1 $516 $517 $20 #
coedge $-1 $518 $518 $519 $520 forward $378 $-1 #
coedge $-1 $379 $379 $521 $522 forward $311 $-1 #
coedge $-1 $399 $398 $379 $449 reversed $400 $-1 #
edge $-1 $523 0 $524 3.1415926535897931 $379 $525 forward 7 unknown #
coedge $-1 $405 $404 $380 $451 reversed $406 $-1 #
edge $-1 $453 0 $452 3.1415926535897931 $380 $526 forward 7 unknown #
vertex $-1 $451 $527 #
vertex $-1 $451 $528 #
ellipse-curve $-1 -83 0 -11.25 0 -1 0 -0.25 0 0 1 I I #
ellipse-curve $-1 -93 0 -11.25 0 -1 0 0.25 0 0 1 I I #
point $-1 -93.25 0 -11.25 #
point $-1 -92.75 0 -11.25 #
loop $-1 $529 $530 $8 #
coedge $-1 $531 $531 $532 $533 reversed $391 $-1 #
coedge $-1 $392 $392 $534 $535 reversed $324 $-1 #
coedge $-1 $536 $537 $392 $462 forward $538 $-1 #
edge $-1 $539 0 $540 3.1415926535898073 $392 $541 forward 7 unknown #
coedge $-1 $542 $543 $393 $464 forward $544 $-1 #
edge $-1 $469 0 $468 3.1415926535897931 $393 $545 forward 7 unknown #
coedge $-1 $519 $394 $543 $546 reversed $467 $-1 #
coedge $-1 $394 $519 $542 $547 forward $467 $-1 #
loop $-1 $-1 $465 $548 #
vertex $-1 $464 $549 #
vertex $-1 $464 $550 #
ellipse-curve $-1 -63 -0.25 -11.25 0 -1 0 -0.25 0 0 1 I I #
coedge $-1 $521 $396 $399 $476 reversed $473 $-1 #
coedge $-1 $396 $521 $398 $475 forward $473 $-1 #
loop $-1 $-1 $471 $551 #
ellipse-curve $-1 -73 -0.25 -11.250000000000002 0 -1 0 0.25 0 1.7763568394002505e-015 1 I I #
edge $-1 $524 0 $402 0.25 $472 $552 forward 7 unknown #
edge $-1 $523 0 $401 0.25 $471 $553 forward 7 unknown #
face $-1 $551 $400 $3 $-1 $554 reversed single #
point $-1 -73.25 -0.25 -11.25 #
point $-1 -72.75 -0.25 -11.25 #
face $-1 $477 $406 $3 $-1 $555 reversed single #
straight-curve $-1 -82.75 0 -11.25 0 -1 0 I I #
straight-curve $-1 -83.25 0 -11.25 0 -1 0 I I #
cone-surface $-1 -83 0 -11.25 0 -1 0 0.25 0 0 1 I I 0 1 0.25 forward I I I I #
cone-surface $-1 -93 0 -11.25 0 -1 0 0.25 0 0 1 I I 0 1 0.25 forward I I I I #
straight-curve $-1 -3 0 12 0 0 -1 I I #
face $-1 $556 $557 $3 $-1 $558 reversed single #
loop $-1 $-1 $559 $420 #
cone-surface $-1 -103 0 11.25 0 -1 0 0.25 0 0 1 I I 0 1 0.25 forward I I I I #
coedge $-1 $511 $431 $560 $561 reversed $421 $-1 #
coedge $-1 $425 $423 $441 $513 reversed $355 $-1 #
edge $-1 $514 0 $436 0.25 $423 $562 forward 7 unknown #
vertex $-1 $513 $563 #
straight-curve $-1 -112.75 0 11.25 0 -1 0 I I #
loop $-1 $564 $565 $217 #
coedge $-1 $566 $566 $567 $568 reversed $428 $-1 #
coedge $-1 $429 $429 $569 $570 reversed $364 $-1 #
coedge $-1 $571 $572 $429 $498 forward $557 $-1 #
edge $-1 $573 0 $574 3.1415926535897789 $429 $575 forward 7 unknown #
coedge $-1 $559 $560 $430 $500 forward $487 $-1 #
edge $-1 $503 0 $502 3.1415926535897789 $430 $576 forward 7 unknown #
coedge $-1 $431 $511 $559 $577 forward $421 $-1 #
vertex $-1 $500 $578 #
vertex $-1 $500 $579 #
ellipse-curve $-1 -103 -0.25 11.250000000000002 0 -1 0 -0.25 0 -1.7763568394002505e-015 1 I I #
ellipse-curve $-1 -113 -0.25 11.249999999999998 0 -1 0 0.25 0 1.7763568394002505e-015 1 I I #
point $-1 -113.25 -0.25 11.25 #
point $-1 -112.75 -0.25 11.25 #
loop $-1 $580 $581 $161 #
coedge $-1 $582 $582 $583 $584 forward $439 $-1 #
coedge $-1 $440 $440 $585 $586 forward $370 $-1 #
coedge $-1 $501 $489 $440 $512 reversed $421 $-1 #
edge $-1 $587 0 $588 3.1415926535897931 $440 $589 forward 7 unknown #
edge $-1 $492 0 $514 3.1415926535897931 $441 $590 forward 7 unknown #
vertex $-1 $513 $591 #
ellipse-curve $-1 -113 0 11.25 0 -1 0 -0.25 0 0 1 I I #
loop $-1 $592 $593 $20 #
coedge $-1 $594 $594 $595 $596 forward $445 $-1 #
coedge $-1 $446 $446 $597 $598 forward $378 $-1 #
coedge $-1 $466 $465 $446 $520 reversed $467 $-1 #
edge $-1 $599 0 $600 3.1415926535897931 $446 $601 forward 7 unknown #
coedge $-1 $472 $471 $447 $522 reversed $473 $-1 #
edge $-1 $524 0 $523 3.1415926535897931 $447 $602 forward 7 unknown #
vertex $-1 $522 $603 #
vertex $-1 $522 $604 #
ellipse-curve $-1 -73 0 -11.25 0 -1 0 -0.25 0 0 1 I I #
ellipse-curve $-1 -83 0 -11.25 0 -1 0 0.25 0 0 1 I I #
point $-1 -83.25 0 -11.25 #
point $-1 -82.75 0 -11.25 #
loop $-1 $605 $606 $8 #
coedge $-1 $607 $607 $608 $609 reversed $458 $-1 #
coedge $-1 $459 $459 $610 $611 reversed $391 $-1 #
coedge $-1 $612 $613 $459 $533 forward $614 $-1 #
edge $-1 $615 0 $616 3.1415926535898073 $459 $617 forward 7 unknown #
coedge $-1 $618 $619 $460 $535 forward $620 $-1 #
edge $-1 $540 0 $539 3.1415926535898073 $460 $621 forward 7 unknown #
coedge $-1 $595 $461 $619 $622 reversed $538 $-1 #
coedge $-1 $461 $595 $618 $623 forward $538 $-1 #
loop $-1 $-1 $536 $624 #
vertex $-1 $535 $625 #
vertex $-1 $535 $626 #
ellipse-curve $-1 -53 -0.25 -11.250000000000002 0 -1 0 -0.25 0 1.7763568394002505e-015 1 I I #
coedge $-1 $597 $463 $466 $547 reversed $544 $-1 #
coedge $-1 $463 $597 $465 $546 forward $544 $-1 #
loop $-1 $-1 $542 $627 #
ellipse-curve $-1 -63 -0.25 -11.25 0 -1 0 0.25 0 0 1 I I #
edge $-1 $600 0 $469 0.25 $543 $628 forward 7 unknown #
edge $-1 $599 0 $468 0.25 $542 $629 forward 7 unknown #
face $-1 $627 $467 $3 $-1 $630 reversed single #
point $-1 -63.25 -0.25 -11.25 #
point $-1 -62.75 -0.25 -11.25 #
face $-1 $548 $473 $3 $-1 $631 reversed single #
straight-curve $-1 -72.75 0 -11.25 0 -1 0 I I #
straight-curve $-1 -73.25 0 -11.25 0 -1 0 I I #
cone-surface $-1 -73 0 -11.25 0 -1 0 0.25 0 0 1 I I 0 1 0.25 forward I I I I #
cone-surface $-1 -83 0 -11.25 0 -1 0 0.25 0 0 1 I I 0 1 0.25 forward I I I I #
face $-1 $632 $633 $3 $-1 $634 reversed single #
loop $-1 $-1 $571 $486 #
cone-surface $-1 -93 0 11.25 0 -1 0 0.25 0 0 1 I I 0 1 0.25 forward I I I I #
coedge $-1 $585 $499 $501 $577 reversed $487 $-1 #
coedge $-1 $499 $585 $489 $561 forward $487 $-1 #
edge $-1 $588 0 $503 0.25 $560 $635 forward 7 unknown #
straight-curve $-1 -113.25 0 11.25 0 -1 0 I I #
point $-1 -112.75 0 11.25 #
loop $-1 $636 $637 $217 #
coedge $-1 $638 $638 $639 $640 reversed $494 $-1 #
coedge $-1 $495 $495 $641 $642 reversed $428 $-1 #
coedge $-1 $643 $644 $495 $568 forward $645 $-1 #
edge $-1 $646 0 $647 3.1415926535897789 $495 $648 forward 7 unknown #
coedge $-1 $649 $650 $496 $570 forward $633 $-1 #
edge $-1 $574 0 $573 3.1415926535897789 $496 $651 forward 7 unknown #
coedge $-1 $583 $497 $650 $652 reversed $557 $-1 #
coedge $-1 $497 $583 $649 $653 forward $557 $-1 #
vertex $-1 $570 $654 #
vertex $-1 $570 $655 #
ellipse-curve $-1 -93 -0.25 11.250000000000002 0 -1 0 -0.25 0 -1.7763568394002505e-015 1 I I #
ellipse-curve $-1 -103 -0.25 11.249999999999998 0 -1 0 0.25 0 1.7763568394002505e-015 1 I I #
edge $-1 $587 0 $502 0.25 $559 $656 forward 7 unknown #
point $-1 -103.25 -0.25 11.25 #
point $-1 -102.75 -0.25 11.25 #
loop $-1 $657 $658 $161 #
coedge $-1 $659 $659 $660 $661 forward $508 $-1 #
coedge $-1 $509 $509 $662 $663 forward $439 $-1 #
coedge $-1 $572 $571 $509 $584 reversed $557 $-1 #
edge $-1 $664 0 $665 3.1415926535897931 $509 $666 forward 7 unknown #
coedge $-1 $560 $559 $510 $586 reversed $487 $-1 #
edge $-1 $588 0 $587 3.1415926535897931 $510 $667 forward 7 unknown #
vertex $-1 $586 $668 #
vertex $-1 $586 $669 #
ellipse-curve $-1 -103 0 11.25 0 -1 0 -0.25 0 0 1 I I #
ellipse-curve $-1 -113 0 11.25 0 -1 0 0.25 0 0 1 I I #
point $-1 -113.25 0 11.25 #
loop $-1 $670 $671 $20 #
coedge $-1 $672 $672 $673 $674 forward $516 $-1 #
coedge $-1 $517 $517 $675 $676 forward $445 $-1 #
coedge $-1 $537 $536 $517 $596 reversed $538 $-1 #
edge $-1 $677 0 $678 3.1415926535897931 $517 $679 forward 7 unknown #
coedge $-1 $543 $542 $518 $598 reversed $544 $-1 #
edge $-1 $600 0 $599 3.1415926535897931 $518 $680 forward 7 unknown #
vertex $-1 $598 $681 #
vertex $-1 $598 $682 #
ellipse-curve $-1 -63 0 -11.25 0 -1 0 -0.25 0 0 1 I I #
ellipse-curve $-1 -73 0 -11.25 0 -1 0 0.25 0 0 1 I I #
point $-1 -73.25 0 -11.25 #
point $-1 -72.75 0 -11.25 #
loop $-1 $-1 $683 $8 #
coedge $-1 $684 $684 $685 $686 reversed $529 $-1 #
coedge $-1 $530 $530 $687 $688 reversed $458 $-1 #
coedge $-1 $689 $690 $530 $609 forward $691 $-1 #
edge $-1 $692 0 $693 3.1415926535898073 $530 $694 forward 7 unknown #
coedge $-1 $695 $696 $531 $611 forward $697 $-1 #
edge $-1 $616 0 $615 3.1415926535898073 $531 $698 forward 7 unknown #
coedge $-1 $673 $532 $696 $699 reversed $614 $-1 #
coedge $-1 $532 $673 $695 $700 forward $614 $-1 #
loop $-1 $-1 $612 $701 #
vertex $-1 $611 $702 #
vertex $-1 $611 $703 #
ellipse-curve $-1 -43 -0.25 -11.250000000000002 0 -1 0 -0.25 0 1.7763568394002505e-015 1 I I #
coedge $-1 $675 $534 $537 $623 reversed $620 $-1 #
coedge $-1 $534 $675 $536 $622 forward $620 $-1 #
loop $-1 $-1 $618 $704 #
ellipse-curve $-1 -53 -0.25 -11.249999999999998 0 -1 0 0.25 0 -1.7763568394002505e-015 1 I I #
edge $-1 $678 0 $540 0.25 $619 $705 forward 7 unknown #
edge $-1 $677 0 $539 0.25 $618 $706 forward 7 unknown #
face $-1 $704 $538 $3 $-1 $707 reversed single #
point $-1 -53.25 -0.25 -11.25 #
point $-1 -52.75 -0.25 -11.25 #
face $-1 $624 $544 $3 $-1 $708 reversed single #
straight-curve $-1 -62.75 0 -11.25 0 -1 0 I I #
straight-curve $-1 -63.25 0 -11.25 0 -1 0 I I #
cone-surface $-1 -63 0 -11.25 0 -1 0 0.25 0 0 1 I I 0 1 0.25 forward I I I I #
cone-surface $-1 -73 0 -11.25 0 -1 0 0.25 0 0 1 I I 0 1 0.25 forward I I I I #
face $-1 $709 $645 $3 $-1 $710 reversed single #
loop $-1 $-1 $649 $556 #
cone-surface $-1 -93 0 11.25 0 -1 0 0.25 0 0 1 I I 0 1 0.25 forward I I I I #
straight-curve $-1 -102.75 0 11.25 0 -1 0 I I #
loop $-1 $711 $712 $217 #
coedge $-1 $713 $713 $714 $715 reversed $564 $-1 #
coedge $-1 $565 $565 $716 $717 reversed $494 $-1 #
coedge $-1 $718 $719 $565 $640 forward $720 $-1 #
edge $-1 $721 0 $722 3.1415926535897789 $565 $723 forward 7 unknown #
coedge $-1 $724 $725 $566 $642 forward $726 $-1 #
edge $-1 $647 0 $646 3.1415926535897789 $566 $727 forward 7 unknown #
coedge $-1 $660 $567 $725 $728 reversed $645 $-1 #
coedge $-1 $567 $660 $724 $729 forward $645 $-1 #
loop $-1 $-1 $643 $632 #
vertex $-1 $642 $730 #
vertex $-1 $642 $731 #
ellipse-curve $-1 -83 -0.25 11.250000000000002 0 -1 0 -0.25 0 -1.7763568394002505e-015 1 I I #
coedge $-1 $662 $569 $572 $653 reversed $633 $-1 #
coedge $-1 $569 $662 $571 $652 forward $633 $-1 #
ellipse-curve $-1 -93 -0.25 11.249999999999998 0 -1 0 0.25 0 1.7763568394002505e-015 1 I I #
edge $-1 $665 0 $574 0.25 $650 $732 forward 7 unknown #
edge $-1 $664 0 $573 0.25 $649 $733 forward 7 unknown #
point $-1 -93.25 -0.25 11.25 #
point $-1 -92.75 -0.25 11.25 #
straight-curve $-1 -103.25 0 11.25 0 -1 0 I I #
loop $-1 $734 $735 $161 #
coedge $-1 $736 $736 $737 $738 forward $580 $-1 #
coedge $-1 $581 $581 $739 $740 forward $508 $-1 #
coedge $-1 $644 $643 $581 $661 reversed $645 $-1 #
edge $-1 $741 0 $742 3.1415926535897931 $581 $743 forward 7 unknown #
coedge $-1 $650 $649 $582 $663 reversed $633 $-1 #
edge $-1 $665 0 $664 3.1415926535897931 $582 $744 forward 7 unknown #
vertex $-1 $663 $745 #
vertex $-1 $663 $746 #
ellipse-curve $-1 -93 0 11.25 0 -1 0 -0.25 0 0 1 I I #
ellipse-curve $-1 -103 0 11.25 0 -1 0 0.25 0 0 1 I I #
point $-1 -103.25 0 11.25 #
point $-1 -102.75 0 11.25 #
loop $-1 $747 $748 $20 #
coedge $-1 $749 $749 $750 $751 forward $592 $-1 #
coedge $-1 $593 $593 $752 $753 forward $516 $-1 #
coedge $-1 $613 $612 $593 $674 reversed $614 $-1 #
edge $-1 $754 0 $755 3.1415926535897931 $593 $756 forward 7 unknown #
coedge $-1 $619 $618 $594 $676 reversed $620 $-1 #
edge $-1 $678 0 $677 3.1415926535897931 $594 $757 forward 7 unknown #
vertex $-1 $676 $758 #
vertex $-1 $676 $759 #
ellipse-curve $-1 -53 0 -11.25 0 -1 0 -0.25 0 0 1 I I #
ellipse-curve $-1 -63 0 -11.25 0 -1 0 0.25 0 0 1 I I #
point $-1 -63.25 0 -11.25 #
point $-1 -62.75 0 -11.25 #
coedge $-1 $760 $760 $761 $762 reversed $605 $-1 #
coedge $-1 $606 $606 $763 $764 reversed $529 $-1 #
coedge $-1 $765 $766 $606 $686 forward $767 $-1 #
edge $-1 $768 0 $769 3.1415926535897789 $606 $770 forward 7 unknown #
coedge $-1 $771 $772 $607 $688 forward $773 $-1 #
edge $-1 $693 0 $692 3.1415926535898073 $607 $774 forward 7 unknown #
coedge $-1 $750 $608 $772 $775 reversed $691 $-1 #
coedge $-1 $608 $750 $771 $776 forward $691 $-1 #
loop $-1 $-1 $689 $777 #
vertex $-1 $688 $778 #
vertex $-1 $688 $779 #
ellipse-curve $-1 -33 -0.25 -11.250000000000002 0 -1 0 -0.25 0 1.7763568394002505e-015 1 I I #
coedge $-1 $752 $610 $613 $700 reversed $697 $-1 #
coedge $-1 $610 $752 $612 $699 forward $697 $-1 #
loop $-1 $-1 $695 $780 #
ellipse-curve $-1 -43 -0.25 -11.249999999999998 0 -1 0 0.25 0 -1.7763568394002505e-015 1 I I #
edge $-1 $755 0 $616 0.25 $696 $781 forward 7 unknown #
edge $-1 $754 0 $615 0.25 $695 $782 forward 7 unknown #
face $-1 $780 $614 $3 $-1 $783 reversed single #
point $-1 -43.25 -0.25 -11.25 #
point $-1 -42.75 -0.25 -11.25 #
face $-1 $701 $620 $3 $-1 $784 reversed single #
straight-curve $-1 -52.75 0 -11.25 0 -1 0 I I #
straight-curve $-1 -53.25 0 -11.25 0 -1 0 I I #
cone-surface $-1 -53 0 -11.25 0 -1 0 0.25 0 0 1 I I 0 1 0.25 forward I I I I #
cone-surface $-1 -63 0 -11.25 0 -1 0 0.25 0 0 1 I I 0 1 0.25 forward I I I I #
face $-1 $785 $726 $3 $-1 $786 reversed single #
cone-surface $-1 -83 0 11.25 0 -1 0 0.25 0 0 1 I I 0 1 0.25 forward I I I I #
loop $-1 $787 $788 $217 #
coedge $-1 $789 $789 $790 $791 reversed $636 $-1 #
coedge $-1 $637 $637 $792 $793 reversed $564 $-1 #
coedge $-1 $794 $795 $637 $715 forward $796 $-1 #
edge $-1 $797 0 $798 3.1415926535897931 $637 $799 forward 7 unknown #
coedge $-1 $800 $801 $638 $717 forward $802 $-1 #
edge $-1 $722 0 $721 3.1415926535897789 $638 $803 forward 7 unknown #
coedge $-1 $737 $639 $801 $804 reversed $720 $-1 #
coedge $-1 $639 $737 $800 $805 forward $720 $-1 #
loop $-1 $-1 $718 $785 #
vertex $-1 $717 $806 #
vertex $-1 $717 $807 #
ellipse-curve $-1 -73 -0.25 11.250000000000002 0 -1 0 -0.25 0 -1.7763568394002505e-015 1 I I #
coedge $-1 $739 $641 $644 $729 reversed $726 $-1 #
coedge $-1 $641 $739 $643 $728 forward $726 $-1 #
loop $-1 $-1 $724 $709 #
ellipse-curve $-1 -83 -0.25 11.249999999999998 0 -1 0 0.25 0 1.7763568394002505e-015 1 I I #
edge $-1 $742 0 $647 0.25 $725 $808 forward 7 unknown #
edge $-1 $741 0 $646 0.25 $724 $809 forward 7 unknown #
point $-1 -83.25 -0.25 11.25 #
point $-1 -82.75 -0.25 11.25 #
straight-curve $-1 -92.75 0 11.25 0 -1 0 I I #
straight-curve $-1 -93.25 0 11.25 0 -1 0 I I #
loop $-1 $810 $811 $161 #
coedge $-1 $812 $812 $813 $814 forward $657 $-1 #
coedge $-1 $658 $658 $815 $816 forward $580 $-1 #
coedge $-1 $719 $718 $658 $738 reversed $720 $-1 #
edge $-1 $817 0 $818 3.1415926535897931 $658 $819 forward 7 unknown #
coedge $-1 $725 $724 $659 $740 reversed $726 $-1 #
edge $-1 $742 0 $741 3.1415926535897931 $659 $820 forward 7 unknown #
vertex $-1 $740 $821 #
vertex $-1 $740 $822 #
ellipse-curve $-1 -83 0 11.25 0 -1 0 -0.25 0 0 1 I I #
ellipse-curve $-1 -93 0 11.25 0 -1 0 0.25 0 0 1 I I #
point $-1 -93.25 0 11.25 #
point $-1 -92.75 0 11.25 #
loop $-1 $-1 $823 $20 #
coedge $-1 $824 $824 $825 $826 forward $670 $-1 #
coedge $-1 $671 $671 $827 $828 forward $592 $-1 #
coedge $-1 $690 $689 $671 $751 reversed $691 $-1 #
edge $-1 $829 0 $830 3.1415926535897931 $671 $831 forward 7 unknown #
coedge $-1 $696 $695 $672 $753 reversed $697 $-1 #
edge $-1 $755 0 $754 3.1415926535897931 $672 $832 forward 7 unknown #
vertex $-1 $753 $833 #
vertex $-1 $753 $834 #
ellipse-curve $-1 -43 0 -11.25 0 -1 0 -0.25 0 0 1 I I #
ellipse-curve $-1 -53 0 -11.25 0 -1 0 0.25 0 0 1 I I #
point $-1 -53.25 0 -11.25 #
point $-1 -52.75 0 -11.25 #
coedge $-1 $683 $683 $835 $836 reversed $605 $-1 #
coedge $-1 $837 $838 $683 $762 forward $839 $-1 #
edge $-1 $840 0 $841 3.1415926535897789 $683 $842 forward 7 unknown #
coedge $-1 $843 $844 $684 $764 forward $845 $-1 #
edge $-1 $769 0 $768 3.1415926535897789 $684 $846 forward 7 unknown #
coedge $-1 $825 $685 $844 $847 reversed $767 $-1 #
coedge $-1 $685 $825 $843 $848 forward $767 $-1 #
loop $-1 $-1 $765 $849 #
vertex $-1 $764 $850 #
vertex $-1 $764 $851 #
ellipse-curve $-1 -23 -0.25 -11.249999999999998 0 -1 0 -0.25 0 -1.7763568394002505e-015 1 I I #
coedge $-1 $827 $687 $690 $776 reversed $773 $-1 #
coedge $-1 $687 $827 $689 $775 forward $773 $-1 #
loop $-1 $-1 $771 $852 #
ellipse-curve $-1 -33 -0.25 -11.249999999999998 0 -1 0 0.25 0 -1.7763568394002505e-015 1 I I #
edge $-1 $830 0 $693 0.25 $772 $853 forward 7 unknown #
edge $-1 $829 0 $692 0.25 $771 $854 forward 7 unknown #
face $-1 $852 $691 $3 $-1 $855 reversed single #
point $-1 -33.25 -0.25 -11.25 #
point $-1 -32.75 -0.25 -11.25 #
face $-1 $777 $697 $3 $-1 $856 reversed single #
straight-curve $-1 -42.75 0 -11.25 0 -1 0 I I #
straight-curve $-1 -43.25 0 -11.25 0 -1 0 I I #
cone-surface $-1 -43 0 -11.25 0 -1 0 0.25 0 0 1 I I 0 1 0.25 forward I I I I #
cone-surface $-1 -53 0 -11.25 0 -1 0 0.25 0 0 1 I I 0 1 0.25 forward I I I I #
face $-1 $857 $720 $3 $-1 $858 reversed single #
cone-surface $-1 -83 0 11.25 0 -1 0 0.25 0 0 1 I I 0 1 0.25 forward I I I I #
loop $-1 $859 $860 $217 #
coedge $-1 $861 $861 $862 $863 reversed $711 $-1 #
coedge $-1 $712 $712 $864 $865 reversed $636 $-1 #
coedge $-1 $866 $867 $712 $791 forward $868 $-1 #
edge $-1 $869 0 $870 3.1415926535898073 $712 $871 forward 7 unknown #
coedge $-1 $872 $873 $713 $793 forward $874 $-1 #
edge $-1 $798 0 $797 3.1415926535897931 $713 $875 forward 7 unknown #
coedge $-1 $813 $714 $873 $876 reversed $796 $-1 #
coedge $-1 $714 $813 $872 $877 forward $796 $-1 #
loop $-1 $-1 $794 $878 #
vertex $-1 $793 $879 #
vertex $-1 $793 $880 #
ellipse-curve $-1 -63 -0.25 11.25 0 -1 0 -0.25 0 0 1 I I #
coedge $-1 $815 $716 $719 $805 reversed $802 $-1 #
coedge $-1 $716 $815 $718 $804 forward $802 $-1 #
loop $-1 $-1 $800 $857 #
ellipse-curve $-1 -73 -0.25 11.249999999999998 0 -1 0 0.25 0 1.7763568394002505e-015 1 I I #
edge $-1 $818 0 $722 0.25 $801 $881 forward 7 unknown #
edge $-1 $817 0 $721 0.25 $800 $882 forward 7 unknown #
point $-1 -73.25 -0.25 11.25 #
point $-1 -72.75 -0.25 11.25 #
straight-curve $-1 -82.75 0 11.25 0 -1 0 I I #
straight-curve $-1 -83.25 0 11.25 0 -1 0 I I #
loop $-1 $883 $884 $161 #
coedge $-1 $885 $885 $886 $887 forward $734 $-1 #
coedge $-1 $735 $735 $888 $889 forward $657 $-1 #
coedge $-1 $795 $794 $735 $814 reversed $796 $-1 #
edge $-1 $890 0 $891 3.1415926535897931 $735 $892 forward 7 unknown #
coedge $-1 $801 $800 $736 $816 reversed $802 $-1 #
edge $-1 $818 0 $817 3.1415926535897931 $736 $893 forward 7 unknown #
vertex $-1 $816 $894 #
vertex $-1 $816 $895 #
ellipse-curve $-1 -73 0 11.25 0 -1 0 -0.25 0 0 1 I I #
ellipse-curve $-1 -83 0 11.25 0 -1 0 0.25 0 0 1 I I #
point $-1 -83.25 0 11.25 #
point $-1 -82.75 0 11.25 #
coedge $-1 $896 $896 $897 $898 forward $747 $-1 #
coedge $-1 $748 $748 $899 $900 forward $670 $-1 #
coedge $-1 $766 $765 $748 $826 reversed $767 $-1 #
edge $-1 $901 0 $902 3.1415926535897931 $748 $903 forward 7 unknown #
coedge $-1 $772 $771 $749 $828 reversed $773 $-1 #
edge $-1 $830 0 $829 3.1415926535897931 $749 $904 forward 7 unknown #
vertex $-1 $828 $905 #
vertex $-1 $828 $906 #
ellipse-curve $-1 -33 0 -11.25 0 -1 0 -0.25 0 0 1 I I #
ellipse-curve $-1 -43 0 -11.25 0 -1 0 0.25 0 0 1 I I #
point $-1 -43.25 0 -11.25 #
point $-1 -42.75 0 -11.25 #
coedge $-1 $907 $908 $760 $836 forward $909 $-1 #
edge $-1 $841 0 $840 3.1415926535897789 $760 $910 forward 7 unknown #
coedge $-1 $897 $761 $908 $911 reversed $839 $-1 #
coedge $-1 $761 $897 $907 $912 forward $839 $-1 #
loop $-1 $-1 $837 $913 #
vertex $-1 $836 $914 #
vertex $-1 $836 $915 #
ellipse-curve $-1 -13 -0.25 -11.249999999999998 0 -1 0 -0.25 0 -1.7763568394002505e-015 1 I I #
coedge $-1 $899 $763 $766 $848 reversed $845 $-1 #
coedge $-1 $763 $899 $765 $847 forward $845 $-1 #
loop $-1 $-1 $843 $916 #
ellipse-curve $-1 -23 -0.25 -11.250000000000002 0 -1 0 0.25 0 1.7763568394002505e-015 1 I I #
edge $-1 $902 0 $769 0.25 $844 $917 forward 7 unknown #
edge $-1 $901 0 $768 0.25 $843 $918 forward 7 unknown #
face $-1 $916 $767 $3 $-1 $919 reversed single #
point $-1 -23.25 -0.25 -11.25 #
point $-1 -22.75 -0.25 -11.25 #
face $-1 $849 $773 $3 $-1 $920 reversed single #
straight-curve $-1 -32.75 0 -11.25 0 -1 0 I I #
straight-curve $-1 -33.25 0 -11.25 0 -1 0 I I #
cone-surface $-1 -33 0 -11.25 0 -1 0 0.25 0 0 1 I I 0 1 0.25 forward I I I I #
cone-surface $-1 -43 0 -11.25 0 -1 0 0.25 0 0 1 I I 0 1 0.25 forward I I I I #
face $-1 $878 $802 $3 $-1 $921 reversed single #
cone-surface $-1 -73 0 11.25 0 -1 0 0.25 0 0 1 I I 0 1 0.25 forward I I I I #
loop $-1 $922 $923 $217 #
coedge $-1 $924 $924 $925 $926 reversed $787 $-1 #
coedge $-1 $788 $788 $927 $928 reversed $711 $-1 #
coedge $-1 $929 $930 $788 $863 forward $931 $-1 #
edge $-1 $932 0 $933 3.1415926535898073 $788 $934 forward 7 unknown #
coedge $-1 $935 $936 $789 $865 forward $937 $-1 #
edge $-1 $870 0 $869 3.1415926535898073 $789 $938 forward 7 unknown #
coedge $-1 $886 $790 $936 $939 reversed $868 $-1 #
coedge $-1 $790 $886 $935 $940 forward $868 $-1 #
loop $-1 $-1 $866 $941 #
vertex $-1 $865 $942 #
vertex $-1 $865 $943 #
ellipse-curve $-1 -53 -0.25 11.249999999999998 0 -1 0 -0.25 0 1.7763568394002505e-015 1 I I #
coedge $-1 $888 $792 $795 $877 reversed $874 $-1 #
coedge $-1 $792 $888 $794 $876 forward $874 $-1 #
loop $-1 $-1 $872 $944 #
ellipse-curve $-1 -63 -0.25 11.25 0 -1 0 0.25 0 0 1 I I #
edge $-1 $891 0 $798 0.25 $873 $945 forward 7 unknown #
edge $-1 $890 0 $797 0.25 $872 $946 forward 7 unknown #
face $-1 $944 $796 $3 $-1 $947 reversed single #
point $-1 -63.25 -0.25 11.25 #
point $-1 -62.75 -0.25 11.25 #
straight-curve $-1 -72.75 0 11.25 0 -1 0 I I #
straight-curve $-1 -73.25 0 11.25 0 -1 0 I I #
loop $-1 $948 $949 $161 #
coedge $-1 $950 $950 $951 $952 forward $810 $-1 #
coedge $-1 $811 $811 $953 $954 forward $734 $-1 #
coedge $-1 $867 $866 $811 $887 reversed $868 $-1 #
edge $-1 $955 0 $956 3.1415926535897931 $811 $957 forward 7 unknown #
coedge $-1 $873 $872 $812 $889 reversed $874 $-1 #
edge $-1 $891 0 $890 3.1415926535897931 $812 $958 forward 7 unknown #
vertex $-1 $889 $959 #
vertex $-1 $889 $960 #
ellipse-curve $-1 -63 0 11.25 0 -1 0 -0.25 0 0 1 I I #
ellipse-curve $-1 -73 0 11.25 0 -1 0 0.25 0 0 1 I I #
point $-1 -73.25 0 11.25 #
point $-1 -72.75 0 11.25 #
coedge $-1 $823 $823 $961 $962 forward $747 $-1 #
coedge $-1 $838 $837 $823 $898 reversed $839 $-1 #
edge $-1 $963 0 $964 3.1415926535897931 $823 $965 forward 7 unknown #
coedge $-1 $844 $843 $824 $900 reversed $845 $-1 #
edge $-1 $902 0 $901 3.1415926535897931 $824 $966 forward 7 unknown #
vertex $-1 $900 $967 #
vertex $-1 $900 $968 #
ellipse-curve $-1 -23 0 -11.25 0 -1 0 -0.25 0 0 1 I I #
ellipse-curve $-1 -33 0 -11.25 0 -1 0 0.25 0 0 1 I I #
point $-1 -33.25 0 -11.25 #
point $-1 -32.75 0 -11.25 #
coedge $-1 $961 $835 $838 $912 reversed $909 $-1 #
coedge $-1 $835 $961 $837 $911 forward $909 $-1 #
loop $-1 $-1 $907 $969 #
ellipse-curve $-1 -13 -0.25 -11.250000000000002 0 -1 0 0.25 0 1.7763568394002505e-015 1 I I #
edge $-1 $964 0 $841 0.25 $908 $970 forward 7 unknown #
edge $-1 $963 0 $840 0.25 $907 $971 forward 7 unknown #
face $-1 $969 $839 $3 $-1 $972 reversed single #
point $-1 -13.25 -0.25 -11.25 #
point $-1 -12.75 -0.25 -11.25 #
face $-1 $913 $845 $3 $-1 $973 reversed single #
straight-curve $-1 -22.75 0 -11.25 0 -1 0 I I #
straight-curve $-1 -23.25 0 -11.25 0 -1 0 I I #
cone-surface $-1 -23 0 -11.25 0 -1 0 0.25 0 0 1 I I 0 1 0.25 forward I I I I #
cone-surface $-1 -33 0 -11.25 0 -1 0 0.25 0 0 1 I I 0 1 0.25 forward I I I I #
cone-surface $-1 -73 0 11.25 0 -1 0 0.25 0 0 1 I I 0 1 0.25 forward I I I I #
loop $-1 $-1 $974 $217 #
coedge $-1 $975 $975 $976 $977 reversed $859 $-1 #
coedge $-1 $860 $860 $978 $979 reversed $787 $-1 #
coedge $-1 $980 $981 $860 $926 forward $982 $-1 #
edge $-1 $983 0 $984 3.1415926535898073 $860 $985 forward 7 unknown #
coedge $-1 $986 $987 $861 $928 forward $988 $-1 #
edge $-1 $933 0 $932 3.1415926535898073 $861 $989 forward 7 unknown #
coedge $-1 $951 $862 $987 $990 reversed $931 $-1 #
coedge $-1 $862 $951 $986 $991 forward $931 $-1 #
loop $-1 $-1 $929 $992 #
vertex $-1 $928 $993 #
vertex $-1 $928 $994 #
ellipse-curve $-1 -43 -0.25 11.249999999999998 0 -1 0 -0.25 0 1.7763568394002505e-015 1 I I #
coedge $-1 $953 $864 $867 $940 reversed $937 $-1 #
coedge $-1 $864 $953 $866 $939 forward $937 $-1 #
loop $-1 $-1 $935 $995 #
ellipse-curve $-1 -53 -0.25 11.250000000000002 0 -1 0 0.25 0 -1.7763568394002505e-015 1 I I #
edge $-1 $956 0 $870 0.25 $936 $996 forward 7 unknown #
edge $-1 $955 0 $869 0.25 $935 $997 forward 7 unknown #
face $-1 $995 $868 $3 $-1 $998 reversed single #
point $-1 -53.25 -0.25 11.25 #
point $-1 -52.75 -0.25 11.25 #
face $-1 $941 $874 $3 $-1 $999 reversed single #
straight-curve $-1 -62.75 0 11.25 0 -1 0 I I #
straight-curve $-1 -63.25 0 11.25 0 -1 0 I I #
cone-surface $-1 -63 0 11.25 0 -1 0 0.25 0 0 1 I I 0 1 0.25 forward I I I I #
loop $-1 $1000 $1001 $161 #
coedge $-1 $1002 $1002 $1003 $1004 forward $883 $-1 #
coedge $-1 $884 $884 $1005 $1006 forward $810 $-1 #
coedge $-1 $930 $929 $884 $952 reversed $931 $-1 #
edge $-1 $1007 0 $1008 3.1415926535897931 $884 $1009 forward 7 unknown #
coedge $-1 $936 $935 $885 $954 reversed $937 $-1 #
edge $-1 $956 0 $955 3.1415926535897931 $885 $1010 forward 7 unknown #
vertex $-1 $954 $1011 #
vertex $-1 $954 $1012 #
ellipse-curve $-1 -53 0 11.25 0 -1 0 -0.25 0 0 1 I I #
ellipse-curve $-1 -63 0 11.25 0 -1 0 0.25 0 0 1 I I #
point $-1 -63.25 0 11.25 #
point $-1 -62.75 0 11.25 #
coedge $-1 $908 $907 $896 $962 reversed $909 $-1 #
edge $-1 $964 0 $963 3.1415926535897931 $896 $1013 forward 7 unknown #
vertex $-1 $962 $1014 #
vertex $-1 $962 $1015 #
ellipse-curve $-1 -13 0 -11.25 0 -1 0 -0.25 0 0 1 I I #
ellipse-curve $-1 -23 0 -11.25 0 -1 0 0.25 0 0 1 I I #
point $-1 -23.25 0 -11.25 #
point $-1 -22.75 0 -11.25 #
face $-1 $-1 $909 $3 $-1 $1016 reversed single #
straight-curve $-1 -12.75 0 -11.25 0 -1 0 I I #
straight-curve $-1 -13.25 0 -11.25 0 -1 0 I I #
cone-surface $-1 -13 0 -11.25 0 -1 0 0.25 0 0 1 I I 0 1 0.25 forward I I I I #
cone-surface $-1 -23 0 -11.25 0 -1 0 0.25 0 0 1 I I 0 1 0.25 forward I I I I #
coedge $-1 $1017 $1017 $1018 $1019 reversed $922 $-1 #
coedge $-1 $923 $923 $1020 $1021 reversed $859 $-1 #
coedge $-1 $1022 $1023 $923 $977 forward $1024 $-1 #
edge $-1 $1025 0 $1026 3.1415926535897789 $923 $1027 forward 7 unknown #
coedge $-1 $1028 $1029 $924 $979 forward $1030 $-1 #
edge $-1 $984 0 $983 3.1415926535898073 $924 $1031 forward 7 unknown #
coedge $-1 $1003 $925 $1029 $1032 reversed $982 $-1 #
coedge $-1 $925 $1003 $1028 $1033 forward $982 $-1 #
loop $-1 $-1 $980 $1034 #
vertex $-1 $979 $1035 #
vertex $-1 $979 $1036 #
ellipse-curve $-1 -33 -0.25 11.249999999999998 0 -1 0 -0.25 0 1.7763568394002505e-015 1 I I #
coedge $-1 $1005 $927 $930 $991 reversed $988 $-1 #
coedge $-1 $927 $1005 $929 $990 forward $988 $-1 #
loop $-1 $-1 $986 $1037 #
ellipse-curve $-1 -43 -0.25 11.250000000000002 0 -1 0 0.25 0 -1.7763568394002505e-015 1 I I #
edge $-1 $1008 0 $933 0.25 $987 $1038 forward 7 unknown #
edge $-1 $1007 0 $932 0.25 $986 $1039 forward 7 unknown #
face $-1 $1037 $931 $3 $-1 $1040 reversed single #
point $-1 -43.25 -0.25 11.25 #
point $-1 -42.75 -0.25 11.25 #
face $-1 $992 $937 $3 $-1 $1041 reversed single #
straight-curve $-1 -52.75 0 11.25 0 -1 0 I I #
straight-curve $-1 -53.25 0 11.25 0 -1 0 I I #
cone-surface $-1 -53 0 11.25 0 -1 0 0.25 0 0 1 I I 0 1 0.25 forward I I I I #
cone-surface $-1 -63 0 11.25 0 -1 0 0.25 0 0 1 I I 0 1 0.25 forward I I I I #
loop $-1 $-1 $1042 $161 #
coedge $-1 $1043 $1043 $1044 $1045 forward $948 $-1 #
coedge $-1 $949 $949 $1046 $1047 forward $883 $-1 #
coedge $-1 $981 $980 $949 $1004 reversed $982 $-1 #
edge $-1 $1048 0 $1049 3.1415926535897931 $949 $1050 forward 7 unknown #
coedge $-1 $987 $986 $950 $1006 reversed $988 $-1 #
edge $-1 $1008 0 $1007 3.1415926535897931 $950 $1051 forward 7 unknown #
vertex $-1 $1006 $1052 #
vertex $-1 $1006 $1053 #
ellipse-curve $-1 -43 0 11.25 0 -1 0 -0.25 0 0 1 I I #
ellipse-curve $-1 -53 0 11.25 0 -1 0 0.25 0 0 1 I I #
point $-1 -53.25 0 11.25 #
point $-1 -52.75 0 11.25 #
ellipse-curve $-1 -13 0 -11.25 0 -1 0 0.25 0 0 1 I I #
point $-1 -13.25 0 -11.25 #
point $-1 -12.75 0 -11.25 #
cone-surface $-1 -13 0 -11.25 0 -1 0 0.25 0 0 1 I I 0 1 0.25 forward I I I I #
coedge $-1 $974 $974 $1054 $1055 reversed $922 $-1 #
coedge $-1 $1056 $1057 $974 $1019 forward $1058 $-1 #
edge $-1 $1059 0 $1060 3.1415926535897789 $974 $1061 forward 7 unknown #
coedge $-1 $1062 $1063 $975 $1021 forward $1064 $-1 #
edge $-1 $1026 0 $1025 3.1415926535897789 $975 $1065 forward 7 unknown #
coedge $-1 $1044 $976 $1063 $1066 reversed $1024 $-1 #
coedge $-1 $976 $1044 $1062 $1067 forward $1024 $-1 #
loop $-1 $-1 $1022 $1068 #
vertex $-1 $1021 $1069 #
vertex $-1 $1021 $1070 #
ellipse-curve $-1 -23 -0.25 11.250000000000002 0 -1 0 -0.25 0 -1.7763568394002505e-015 1 I I #
coedge $-1 $1046 $978 $981 $1033 reversed $1030 $-1 #
coedge $-1 $978 $1046 $980 $1032 forward $1030 $-1 #
loop $-1 $-1 $1028 $1071 #
ellipse-curve $-1 -33 -0.25 11.250000000000002 0 -1 0 0.25 0 -1.7763568394002505e-015 1 I I #
edge $-1 $1049 0 $984 0.25 $1029 $1072 forward 7 unknown #
edge $-1 $1048 0 $983 0.25 $1028 $1073 forward 7 unknown #
face $-1 $1071 $982 $3 $-1 $1074 reversed single #
point $-1 -33.25 -0.25 11.25 #
point $-1 -32.75 -0.25 11.25 #
face $-1 $1034 $988 $3 $-1 $1075 reversed single #
straight-curve $-1 -42.75 0 11.25 0 -1 0 I I #
straight-curve $-1 -43.25 0 11.25 0 -1 0 I I #
cone-surface $-1 -43 0 11.25 0 -1 0 0.25 0 0 1 I I 0 1 0.25 forward I I I I #
cone-surface $-1 -53 0 11.25 0 -1 0 0.25 0 0 1 I I 0 1 0.25 forward I I I I #
coedge $-1 $1076 $1076 $1077 $1078 forward $1000 $-1 #
coedge $-1 $1001 $1001 $1079 $1080 forward $948 $-1 #
coedge $-1 $1023 $1022 $1001 $1045 reversed $1024 $-1 #
edge $-1 $1081 0 $1082 3.1415926535897931 $1001 $1083 forward 7 unknown #
coedge $-1 $1029 $1028 $1002 $1047 reversed $1030 $-1 #
edge $-1 $1049 0 $1048 3.1415926535897931 $1002 $1084 forward 7 unknown #
vertex $-1 $1047 $1085 #
vertex $-1 $1047 $1086 #
ellipse-curve $-1 -33 0 11.25 0 -1 0 -0.25 0 0 1 I I #
ellipse-curve $-1 -43 0 11.25 0 -1 0 0.25 0 0 1 I I #
point $-1 -43.25 0 11.25 #
point $-1 -42.75 0 11.25 #
coedge $-1 $1087 $1088 $1017 $1055 forward $1089 $-1 #
edge $-1 $1060 0 $1059 3.1415926535897789 $1017 $1090 forward 7 unknown #
coedge $-1 $1077 $1018 $1088 $1091 reversed $1058 $-1 #
coedge $-1 $1018 $1077 $1087 $1092 forward $1058 $-1 #
loop $-1 $-1 $1056 $1093 #
vertex $-1 $1055 $1094 #
vertex $-1 $1055 $1095 #
ellipse-curve $-1 -13 -0.25 11.250000000000002 0 -1 0 -0.25 0 -1.7763568394002505e-015 1 I I #
coedge $-1 $1079 $1020 $1023 $1067 reversed $1064 $-1 #
coedge $-1 $1020 $1079 $1022 $1066 forward $1064 $-1 #
loop $-1 $-1 $1062 $1096 #
ellipse-curve $-1 -23 -0.25 11.249999999999998 0 -1 0 0.25 0 1.7763568394002505e-015 1 I I #
edge $-1 $1082 0 $1026 0.25 $1063 $1097 forward 7 unknown #
edge $-1 $1081 0 $1025 0.25 $1062 $1098 forward 7 unknown #
face $-1 $1096 $1024 $3 $-1 $1099 reversed single #
point $-1 -23.25 -0.25 11.25 #
point $-1 -22.75 -0.25 11.25 #
face $-1 $1068 $1030 $3 $-1 $1100 reversed single #
straight-curve $-1 -32.75 0 11.25 0 -1 0 I I #
straight-curve $-1 -33.25 0 11.25 0 -1 0 I I #
cone-surface $-1 -33 0 11.25 0 -1 0 0.25 0 0 1 I I 0 1 0.25 forward I I I I #
cone-surface $-1 -43 0 11.25 0 -1 0 0.25 0 0 1 I I 0 1 0.25 forward I I I I #
coedge $-1 $1042 $1042 $1101 $1102 forward $1000 $-1 #
coedge $-1 $1057 $1056 $1042 $1078 reversed $1058 $-1 #
edge $-1 $1103 0 $1104 3.1415926535897931 $1042 $1105 forward 7 unknown #
coedge $-1 $1063 $1062 $1043 $1080 reversed $1064 $-1 #
edge $-1 $1082 0 $1081 3.1415926535897931 $1043 $1106 forward 7 unknown #
vertex $-1 $1080 $1107 #
vertex $-1 $1080 $1108 #
ellipse-curve $-1 -23 0 11.25 0 -1 0 -0.25 0 0 1 I I #
ellipse-curve $-1 -33 0 11.25 0 -1 0 0.25 0 0 1 I I #
point $-1 -33.25 0 11.25 #
point $-1 -32.75 0 11.25 #
coedge $-1 $1101 $1054 $1057 $1092 reversed $1089 $-1 #
coedge $-1 $1054 $1101 $1056 $1091 forward $1089 $-1 #
loop $-1 $-1 $1087 $1109 #
ellipse-curve $-1 -13 -0.25 11.249999999999998 0 -1 0 0.25 0 1.7763568394002505e-015 1 I I #
edge $-1 $1104 0 $1060 0.25 $1088 $1110 forward 7 unknown #
edge $-1 $1103 0 $1059 0.25 $1087 $1111 forward 7 unknown #
face $-1 $1109 $1058 $3 $-1 $1112 reversed single #
point $-1 -13.25 -0.25 11.25 #
point $-1 -12.75 -0.25 11.25 #
face $-1 $1093 $1064 $3 $-1 $1113 reversed single #
straight-curve $-1 -22.75 0 11.25 0 -1 0 I I #
straight-curve $-1 -23.25 0 11.25 0 -1 0 I I #
cone-surface $-1 -23 0 11.25 0 -1 0 0.25 0 0 1 I I 0 1 0.25 forward I I I I #
cone-surface $-1 -33 0 11.25 0 -1 0 0.25 0 0 1 I I 0 1 0.25 forward I I I I #
coedge $-1 $1088 $1087 $1076 $1102 reversed $1089 $-1 #
edge $-1 $1104 0 $1103 3.1415926535897931 $1076 $1114 forward 7 unknown #
vertex $-1 $1102 $1115 #
vertex $-1 $1102 $1116 #
ellipse-curve $-1 -13 0 11.25 0 -1 0 -0.25 0 0 1 I I #
ellipse-curve $-1 -23 0 11.25 0 -1 0 0.25 0 0 1 I I #
point $-1 -23.25 0 11.25 #
point $-1 -22.75 0 11.25 #
face $-1 $198 $1089 $3 $-1 $1117 reversed single #
straight-curve $-1 -12.75 0 11.25 0 -1 0 I I #
straight-curve $-1 -13.25 0 11.25 0 -1 0 I I #
cone-surface $-1 -13 0 11.25 0 -1 0 0.25 0 0 1 I I 0 1 0.25 forward I I I I #
cone-surface $-1 -23 0 11.25 0 -1 0 0.25 0 0 1 I I 0 1 0.25 forward I I I I #
ellipse-curve $-1 -13 0 11.25 0 -1 0 0.25 0 0 1 I I #
point $-1 -13.25 0 11.25 #
point $-1 -12.75 0 11.25 #
cone-surface $-1 -13 0 11.25 0 -1 0 0.25 0 0 1 I I 0 1 0.25 forward I I I I #
End-of-ACIS-data 