106 0 1 0           
body $-1 $1 $-1 $2 #
lump $-1 $-1 $3 $0 #
transform $-1 1 0 0 0 1 0 0 0 1 0 20 0 1 0 0 0 #
shell $-1 $-1 $-1 $4 $1 #
face $-1 $5 $6 $3 $-1 $7 forward single #
face $-1 $8 $9 $3 $-1 $10 reversed single #
loop $-1 $-1 $11 $4 #
plane-surface $-1 0 0 0 0 1 0 0 0 1 0 I I I I #
face $-1 $12 $13 $3 $-1 $14 reversed single #
loop $-1 $-1 $15 $5 #
plane-surface $-1 0 0 -20 0 0 1 1 0 0 0 I I I I #
coedge $-1 $16 $17 $18 $19 1 $6 $-1 #
face $-1 $20 $21 $3 $-1 $22 forward single #
loop $-1 $-1 $23 $8 #
plane-surface $-1 40 0 0 -1 0 0 0 0 1 0 I I I I #
coedge $-1 $24 $25 $26 $27 0 $9 $-1 #
coedge $-1 $28 $11 $29 $30 1 $6 $-1 #
coedge $-1 $11 $31 $32 $33 1 $6 $-1 #
coedge $-1 $34 $35 $11 $19 0 $36 $-1 #
edge $-1 $37 $38 $18 $39 0 #
face $-1 $40 $41 $3 $-1 $42 forward single #
loop $-1 $-1 $43 $12 #
plane-surface $-1 0 0 20 0 0 1 1 0 0 0 I I I I #
coedge $-1 $44 $45 $46 $47 0 $13 $-1 #
coedge $-1 $48 $15 $45 $49 0 $9 $-1 #
coedge $-1 $15 $48 $50 $51 0 $9 $-1 #
coedge $-1 $31 $46 $15 $27 1 $6 $-1 #
edge $-1 $52 $53 $15 $54 0 #
coedge $-1 $55 $16 $56 $57 1 $6 $-1 #
coedge $-1 $58 $59 $16 $30 0 $60 $-1 #
edge $-1 $61 $37 $29 $62 0 #
coedge $-1 $17 $26 $63 $64 1 $6 $-1 #
coedge $-1 $65 $66 $17 $33 0 $67 $-1 #
edge $-1 $38 $68 $32 $69 0 #
coedge $-1 $70 $18 $66 $71 1 $36 $-1 #
coedge $-1 $18 $70 $58 $72 0 $36 $-1 #
loop $-1 $-1 $18 $73 #
vertex $-1 $72 $74 #
vertex $-1 $71 $75 #
straight-curve $-1 -10 0 5 0 0 1 I I #
face $-1 $76 $77 $3 $-1 $78 forward single #
loop $-1 $-1 $56 $20 #
plane-surface $-1 10 0 10 -1 0 0 0 0 1 0 I I I I #
coedge $-1 $79 $80 $55 $81 0 $21 $-1 #
coedge $-1 $82 $23 $80 $83 1 $13 $-1 #
coedge $-1 $23 $82 $24 $49 1 $13 $-1 #
coedge $-1 $26 $55 $23 $47 1 $6 $-1 #
edge $-1 $53 $84 $23 $85 0 #
coedge $-1 $25 $24 $86 $87 0 $9 $-1 #
edge $-1 $53 $88 $45 $89 0 #
coedge $-1 $90 $63 $25 $51 1 $91 $-1 #
edge $-1 $92 $52 $50 $93 0 #
vertex $-1 $51 $94 #
vertex $-1 $47 $95 #
straight-curve $-1 0 0 -20 1 0 0 I I #
coedge $-1 $46 $28 $43 $81 1 $6 $-1 #
coedge $-1 $96 $97 $28 $57 0 $41 $-1 #
edge $-1 $98 $61 $56 $99 0 #
coedge $-1 $100 $29 $35 $72 1 $60 $-1 #
coedge $-1 $29 $100 $96 $101 1 $60 $-1 #
loop $-1 $-1 $29 $102 #
vertex $-1 $30 $103 #
straight-curve $-1 0 0 0 -1 0 0 I I #
coedge $-1 $50 $104 $31 $64 0 $91 $-1 #
edge $-1 $68 $52 $63 $105 0 #
coedge $-1 $106 $32 $104 $107 0 $67 $-1 #
coedge $-1 $32 $108 $34 $71 0 $67 $-1 #
loop $-1 $-1 $32 $109 #
vertex $-1 $33 $110 #
straight-curve $-1 0 0 20 -1 0 0 I I #
coedge $-1 $35 $34 $111 $112 1 $36 $-1 #
edge $-1 $113 $38 $66 $114 0 #
edge $-1 $115 $37 $35 $116 0 #
face $-1 $109 $36 $3 $-1 $117 forward single #
point $-1 -10 0 0 #
point $-1 -10 0 20 #
face $-1 $118 $119 $3 $-1 $120 reversed single #
loop $-1 $-1 $121 $40 #
plane-surface $-1 30 0 10 0 0 1 1 0 0 0 I I I I #
coedge $-1 $122 $43 $97 $123 0 $21 $-1 #
coedge $-1 $43 $124 $44 $83 0 $21 $-1 #
edge $-1 $84 $98 $43 $125 0 #
coedge $-1 $45 $44 $126 $127 0 $13 $-1 #
edge $-1 $128 $84 $44 $129 0 #
vertex $-1 $83 $130 #
straight-curve $-1 40 0 0 0 0 1 I I #
coedge $-1 $126 $131 $48 $87 1 $132 $-1 #
edge $-1 $88 $92 $86 $133 0 #
vertex $-1 $127 $134 #
straight-curve $-1 40 0 -20 0 -1 0 I I #
coedge $-1 $104 $50 $131 $135 1 $91 $-1 #
loop $-1 $-1 $63 $136 #
vertex $-1 $51 $137 #
straight-curve $-1 -40 0 -20 0 1 0 I I #
point $-1 -40 0 -20 #
point $-1 40 0 -20 #
coedge $-1 $138 $56 $59 $101 0 $41 $-1 #
coedge $-1 $56 $138 $79 $123 1 $41 $-1 #
vertex $-1 $57 $139 #
straight-curve $-1 10 0 5 0 0 -1 I I #
coedge $-1 $59 $58 $140 $141 1 $60 $-1 #
edge $-1 $61 $142 $96 $143 0 #
face $-1 $144 $60 $3 $-1 $145 forward single #
point $-1 10 0 0 #
coedge $-1 $63 $90 $65 $107 1 $91 $-1 #
straight-curve $-1 -40 0 0 0 0 -1 I I #
coedge $-1 $146 $65 $147 $148 0 $67 $-1 #
edge $-1 $68 $149 $104 $150 0 #
coedge $-1 $66 $151 $152 $153 0 $67 $-1 #
face $-1 $154 $67 $3 $-1 $22 forward single #
point $-1 -40 0 20 #
coedge $-1 $152 $140 $70 $112 0 $155 $-1 #
edge $-1 $115 $113 $111 $156 0 #
vertex $-1 $153 $157 #
straight-curve $-1 -10 0 20 0 1 0 I I #
vertex $-1 $141 $158 #
straight-curve $-1 -10 0 0 0 1 0 I I #
plane-surface $-1 -10 0 10 1 0 0 0 0 -1 0 I I I I #
face $-1 $159 $160 $3 $-1 $161 forward single #
loop $-1 $-1 $162 $76 #
plane-surface $-1 20 0 0 1 0 0 0 0 -1 0 I I I I #
coedge $-1 $163 $164 $165 $166 1 $77 $-1 #
coedge $-1 $167 $79 $168 $169 0 $21 $-1 #
edge $-1 $98 $170 $79 $171 0 #
coedge $-1 $80 $172 $173 $174 0 $21 $-1 #
straight-curve $-1 0 0 20 -1 0 0 I I #
coedge $-1 $173 $86 $82 $127 1 $132 $-1 #
edge $-1 $128 $88 $82 $175 0 #
vertex $-1 $83 $176 #
straight-curve $-1 40 0 20 0 1 0 I I #
point $-1 40 0 20 #
coedge $-1 $86 $147 $90 $135 0 $132 $-1 #
loop $-1 $-1 $126 $177 #
straight-curve $-1 0 -40 -20 -1 0 0 I I #
point $-1 40 -40 -20 #
edge $-1 $149 $92 $90 $178 0 #
face $-1 $179 $91 $3 $-1 $180 reversed single #
point $-1 -40 -40 -20 #
coedge $-1 $97 $96 $181 $182 1 $41 $-1 #
point $-1 10 0 20 #
coedge $-1 $111 $181 $100 $141 0 $155 $-1 #
edge $-1 $142 $115 $140 $183 0 #
vertex $-1 $141 $184 #
straight-curve $-1 10 0 0 0 -1 0 I I #
face $-1 $185 $186 $3 $-1 $42 forward single #
plane-surface $-1 0 0 0 0 0 1 1 0 0 0 I I I I #
coedge $-1 $187 $106 $188 $189 0 $67 $-1 #
coedge $-1 $131 $190 $106 $148 1 $132 $-1 #
edge $-1 $149 $191 $147 $192 0 #
vertex $-1 $107 $193 #
straight-curve $-1 -40 0 20 0 -1 0 I I #
coedge $-1 $108 $187 $194 $195 0 $67 $-1 #
coedge $-1 $196 $111 $108 $153 1 $155 $-1 #
edge $-1 $197 $113 $152 $198 0 #
face $-1 $177 $199 $3 $-1 $200 forward single #
loop $-1 $-1 $165 $201 #
straight-curve $-1 -10 -10 5 0 0 1 I I #
point $-1 -10 -10 20 #
point $-1 -10 -10 0 #
face $-1 $202 $203 $3 $-1 $204 forward single #
loop $-1 $-1 $205 $118 #
plane-surface $-1 35 0 5 -1 0 0 0 0 1 0 I I I I #
coedge $-1 $206 $207 $208 $209 1 $119 $-1 #
coedge $-1 $210 $121 $207 $211 0 $77 $-1 #
coedge $-1 $121 $210 $205 $212 1 $77 $-1 #
coedge $-1 $213 $208 $121 $166 0 $155 $-1 #
edge $-1 $214 $215 $165 $216 0 #
coedge $-1 $217 $122 $218 $219 0 $21 $-1 #
coedge $-1 $181 $213 $122 $169 1 $155 $-1 #
edge $-1 $170 $220 $168 $198 0 #
vertex $-1 $182 $221 #
straight-curve $-1 10 0 20 0 -1 0 I I #
coedge $-1 $124 $217 $222 $223 0 $21 $-1 #
coedge $-1 $224 $126 $124 $174 1 $132 $-1 #
edge $-1 $225 $128 $173 $192 0 #
straight-curve $-1 40 -40 0 0 0 -1 I I #
point $-1 40 -40 20 #
face $-1 $-1 $132 $3 $-1 $226 reversed single #
straight-curve $-1 -40 -40 0 0 0 -1 I I #
face $-1 $102 $227 $3 $-1 $145 forward single #
plane-surface $-1 -40 0 0 1 0 0 0 0 -1 0 I I I I #
coedge $-1 $140 $168 $138 $182 0 $155 $-1 #
edge $-1 $170 $142 $181 $228 0 #
straight-curve $-1 0 -10 0 -1 0 0 I I #
point $-1 10 -10 0 #
face $-1 $73 $229 $3 $-1 $117 forward single #
loop $-1 $-1 $230 $144 #
coedge $-1 $151 $146 $231 $232 0 $67 $-1 #
coedge $-1 $233 $234 $146 $189 1 $229 $-1 #
edge $-1 $191 $235 $146 $114 0 #
coedge $-1 $147 $236 $233 $237 0 $132 $-1 #
vertex $-1 $148 $238 #
straight-curve $-1 0 -40 20 1 0 0 I I #
point $-1 -40 -40 20 #
coedge $-1 $239 $240 $151 $195 1 $241 $-1 #
edge $-1 $242 $197 $151 $243 0 #
coedge $-1 $244 $152 $240 $245 1 $155 $-1 #
vertex $-1 $195 $246 #
straight-curve $-1 0 -10 20 1 0 0 I I #
loop $-1 $-1 $247 $154 #
plane-surface $-1 0 0 -10 0 0 1 1 0 0 0 I I I I #
face $-1 $136 $155 $3 $-1 $248 reversed single #
face $-1 $249 $250 $3 $-1 $251 forward single #
loop $-1 $-1 $252 $159 #
plane-surface $-1 0 -35 5 0 1 0 0 0 1 0 I I I I #
coedge $-1 $253 $254 $164 $212 0 $160 $-1 #
coedge $-1 $255 $162 $247 $256 1 $119 $-1 #
coedge $-1 $162 $255 $163 $211 1 $119 $-1 #
coedge $-1 $165 $257 $162 $209 0 $155 $-1 #
edge $-1 $258 $214 $208 $259 0 #
coedge $-1 $164 $163 $252 $260 1 $77 $-1 #
edge $-1 $214 $261 $207 $262 0 #
edge $-1 $215 $263 $205 $264 0 #
coedge $-1 $168 $165 $254 $265 1 $155 $-1 #
vertex $-1 $166 $266 #
vertex $-1 $265 $267 #
straight-curve $-1 15 -10 10 1 0 0 I I #
coedge $-1 $172 $167 $268 $269 0 $21 $-1 #
coedge $-1 $254 $253 $167 $219 1 $160 $-1 #
edge $-1 $220 $270 $167 $271 0 #
vertex $-1 $219 $272 #
point $-1 10 -10 20 #
coedge $-1 $230 $273 $172 $223 1 $186 $-1 #
edge $-1 $274 $225 $172 $171 0 #
coedge $-1 $236 $173 $273 $275 0 $132 $-1 #
vertex $-1 $275 $276 #
plane-surface $-1 0 -40 0 0 1 0 0 0 1 0 I I I I #
loop $-1 $-1 $277 $179 #
straight-curve $-1 10 -10 5 0 0 -1 I I #
loop $-1 $-1 $234 $185 #
coedge $-1 $278 $222 $279 $280 1 $186 $-1 #
coedge $-1 $281 $282 $187 $232 1 $203 $-1 #
edge $-1 $235 $242 $187 $283 0 #
coedge $-1 $284 $188 $190 $237 1 $229 $-1 #
coedge $-1 $188 $284 $281 $285 1 $229 $-1 #
vertex $-1 $189 $286 #
coedge $-1 $190 $224 $287 $288 0 $132 $-1 #
edge $-1 $289 $191 $190 $290 0 #
point $-1 -10 -40 20 #
coedge $-1 $291 $194 $282 $292 0 $241 $-1 #
coedge $-1 $194 $291 $196 $245 0 $241 $-1 #
loop $-1 $-1 $291 $293 #
vertex $-1 $232 $294 #
straight-curve $-1 -35 0 20 0 1 0 I I #
coedge $-1 $295 $196 $296 $297 0 $155 $-1 #
edge $-1 $298 $197 $240 $299 0 #
point $-1 -35 -10 20 #
coedge $-1 $300 $301 $206 $256 0 $199 $-1 #
plane-surface $-1 0 -10 0 0 1 0 0 0 1 0 I I I I #
face $-1 $293 $302 $3 $-1 $303 reversed single #
loop $-1 $-1 $304 $202 #
plane-surface $-1 -30 0 10 0 0 1 1 0 0 0 I I I I #
coedge $-1 $305 $306 $210 $260 0 $203 $-1 #
coedge $-1 $218 $205 $306 $307 1 $160 $-1 #
coedge $-1 $205 $218 $213 $265 0 $160 $-1 #
coedge $-1 $207 $206 $305 $308 1 $119 $-1 #
edge $-1 $309 $258 $247 $310 0 #
coedge $-1 $208 $295 $300 $311 1 $155 $-1 #
vertex $-1 $256 $312 #
straight-curve $-1 20 -10 0 0 0 1 I I #
edge $-1 $263 $261 $252 $313 0 #
vertex $-1 $260 $314 #
straight-curve $-1 20 0 10 0 -1 0 I I #
vertex $-1 $307 $315 #
straight-curve $-1 35 0 10 0 -1 0 I I #
edge $-1 $220 $215 $254 $316 0 #
point $-1 20 -10 10 #
point $-1 35 -10 10 #
coedge $-1 $306 $279 $217 $269 1 $203 $-1 #
edge $-1 $270 $274 $217 $283 0 #
vertex $-1 $269 $317 #
straight-curve $-1 35 0 20 0 -1 0 I I #
point $-1 35 -10 20 #
coedge $-1 $222 $278 $224 $275 1 $186 $-1 #
vertex $-1 $269 $318 #
edge $-1 $225 $319 $224 $320 0 #
point $-1 10 -40 20 #
coedge $-1 $321 $322 $323 $324 1 $227 $-1 #
coedge $-1 $273 $230 $322 $325 0 $186 $-1 #
coedge $-1 $268 $323 $230 $280 0 $203 $-1 #
edge $-1 $326 $274 $279 $327 0 #
coedge $-1 $323 $231 $234 $285 0 $203 $-1 #
coedge $-1 $231 $328 $239 $292 1 $203 $-1 #
straight-curve $-1 0 -35 20 -1 0 0 I I #
coedge $-1 $234 $233 $321 $329 0 $229 $-1 #
edge $-1 $235 $330 $281 $331 0 #
point $-1 -10 -35 20 #
coedge $-1 $322 $321 $236 $288 1 $227 $-1 #
edge $-1 $319 $289 $236 $332 0 #
vertex $-1 $288 $333 #
straight-curve $-1 -10 -40 5 0 0 1 I I #
coedge $-1 $240 $239 $334 $335 0 $241 $-1 #
edge $-1 $242 $336 $239 $337 0 #
face $-1 $201 $241 $3 $-1 $338 forward single #
point $-1 -35 -35 20 #
coedge $-1 $257 $244 $339 $340 0 $155 $-1 #
coedge $-1 $334 $341 $244 $297 1 $250 $-1 #
edge $-1 $298 $342 $244 $343 0 #
vertex $-1 $297 $344 #
straight-curve $-1 -35 -10 2.5 0 0 1 I I #
coedge $-1 $345 $247 $257 $311 0 $199 $-1 #
coedge $-1 $247 $345 $346 $347 1 $199 $-1 #
loop $-1 $-1 $348 $249 #
plane-surface $-1 -20 0 0 -1 0 0 0 0 1 0 I I I I #
coedge $-1 $341 $334 $328 $349 1 $250 $-1 #
coedge $-1 $346 $252 $255 $308 0 $203 $-1 #
coedge $-1 $252 $268 $253 $307 0 $203 $-1 #
edge $-1 $270 $263 $253 $350 0 #
edge $-1 $261 $309 $305 $351 0 #
vertex $-1 $256 $352 #
straight-curve $-1 20 0 -10 0 1 0 I I #
edge $-1 $258 $353 $300 $354 0 #
point $-1 20 -10 -10 #
straight-curve $-1 15 -35 10 -1 0 0 I I #
point $-1 20 -35 10 #
point $-1 35 -35 10 #
straight-curve $-1 35 -10 2.5 0 0 -1 I I #
point $-1 35 -35 20 #
point $-1 10 -35 20 #
vertex $-1 $288 $355 #
straight-curve $-1 10 -40 5 0 0 -1 I I #
coedge $-1 $287 $277 $284 $329 1 $227 $-1 #
coedge $-1 $277 $287 $278 $325 1 $227 $-1 #
coedge $-1 $279 $281 $277 $324 0 $203 $-1 #
edge $-1 $330 $326 $323 $356 0 #
edge $-1 $326 $319 $278 $143 0 #
vertex $-1 $324 $357 #
straight-curve $-1 10 -35 7.5 0 0 1 I I #
coedge $-1 $282 $358 $304 $349 0 $203 $-1 #
edge $-1 $289 $330 $284 $116 0 #
vertex $-1 $324 $359 #
straight-curve $-1 -10 -35 7.5 0 0 -1 I I #
straight-curve $-1 0 -40 0 -1 0 0 I I #
point $-1 -10 -40 0 #
coedge $-1 $304 $296 $291 $335 1 $250 $-1 #
edge $-1 $336 $298 $291 $360 0 #
vertex $-1 $292 $361 #
straight-curve $-1 -35 -35 5 0 0 -1 I I #
plane-surface $-1 -35 0 5 1 0 0 0 0 -1 0 I I I I #
coedge $-1 $362 $363 $295 $340 1 $302 $-1 #
edge $-1 $342 $353 $295 $364 0 #
coedge $-1 $296 $304 $362 $365 0 $250 $-1 #
vertex $-1 $297 $366 #
straight-curve $-1 -15 -10 10 1 0 0 I I #
point $-1 -35 -10 10 #
coedge $-1 $301 $300 $363 $367 0 $199 $-1 #
coedge $-1 $358 $305 $301 $347 0 $203 $-1 #
edge $-1 $309 $368 $346 $369 0 #
coedge $-1 $363 $362 $358 $370 1 $302 $-1 #
edge $-1 $371 $336 $328 $372 0 #
straight-curve $-1 35 -35 5 0 0 -1 I I #
straight-curve $-1 20 -35 2.5 0 0 -1 I I #
point $-1 20 -35 -10 #
vertex $-1 $311 $373 #
straight-curve $-1 0 -10 -10 -1 0 0 I I #
point $-1 10 -40 0 #
straight-curve $-1 0 -35 0 1 0 0 I I #
point $-1 10 -35 0 #
coedge $-1 $328 $346 $348 $370 0 $203 $-1 #
point $-1 -10 -35 0 #
straight-curve $-1 -35 0 10 0 1 0 I I #
point $-1 -35 -35 10 #
coedge $-1 $348 $339 $341 $365 1 $302 $-1 #
coedge $-1 $339 $348 $345 $367 1 $302 $-1 #
straight-curve $-1 -20 -10 0 0 0 -1 I I #
edge $-1 $371 $342 $362 $374 0 #
point $-1 -20 -10 10 #
edge $-1 $353 $368 $345 $375 0 #
vertex $-1 $347 $376 #
straight-curve $-1 0 -35 -10 -1 0 0 I I #
edge $-1 $368 $371 $358 $377 0 #
vertex $-1 $349 $378 #
straight-curve $-1 -15 -35 10 -1 0 0 I I #
point $-1 -20 -10 -10 #
straight-curve $-1 -20 0 10 0 1 0 I I #
straight-curve $-1 -20 0 -10 0 -1 0 I I #
point $-1 -20 -35 -10 #
straight-curve $-1 -20 -35 2.5 0 0 1 I I #
point $-1 -20 -35 10 #
End-of-ACIS-data 