700 0 2 0           
24 FBMach with ACIS - 7.0.3 13 ACIS 7.0.3 NT 24 Tue May 14 09:57:00 2002 
1 9.9999999999999995e-007 1e-010 
body $2 -1 $-1 $3 $-1 $4 #
bdycol-kcp $-1 -1 1 5 $5 $6 $7 $8 $9 #
model_id-kcp-attrib $-1 -1 $-1 $-1 $0 1 1021384619 1021384619 -2016608255 1 #
lump $-1 -1 $-1 $-1 $10 $0 #
transform $-1 -1 1 0 0 0 1 0 0 0 1 0 0 0 1 rotate no_reflect no_shear #
body $11 -1 $-1 $12 $-1 $13 #
body $14 -1 $-1 $15 $-1 $16 #
body $17 -1 $-1 $18 $-1 $19 #
body $20 -1 $-1 $21 $-1 $22 #
body $23 -1 $-1 $24 $-1 $25 #
shell $-1 -1 $-1 $-1 $-1 $26 $-1 $3 #
model_id-kcp-attrib $-1 -1 $-1 $-1 $5 1 1021384619 1021384619 -2016608254 1 #
lump $-1 -1 $-1 $-1 $27 $5 #
transform $-1 -1 1 0 0 0 1 0 0 0 1 0 0 0 1 no_rotate no_reflect no_shear #
rgb_color-st-attrib $-1 -1 $28 $-1 $6 1 0 0 #
lump $-1 -1 $-1 $-1 $29 $6 #
transform $-1 -1 1 0 0 0 1 0 0 0 1 0 0 0 1 no_rotate no_reflect no_shear #
rgb_color-st-attrib $-1 -1 $30 $-1 $7 1 0 0 #
lump $-1 -1 $-1 $-1 $31 $7 #
transform $-1 -1 1 0 0 0 1 0 0 0 1 0 0 0 1 no_rotate no_reflect no_shear #
rgb_color-st-attrib $-1 -1 $32 $-1 $8 0.59999999999999998 0.90000000000000002 1 #
lump $-1 -1 $-1 $-1 $33 $8 #
transform $-1 -1 1 0 0 0 1 0 0 0 1 0 0 0 1 no_rotate no_reflect no_shear #
rgb_color-st-attrib $-1 -1 $34 $-1 $9 1 0 0 #
lump $-1 -1 $-1 $-1 $35 $9 #
transform $-1 -1 1 0 0 0 1 0 0 0 1 0 0 0 1 no_rotate no_reflect no_shear #
face $36 -1 $-1 $37 $38 $10 $-1 $39 forward single #
shell $-1 -1 $-1 $-1 $-1 $40 $-1 $12 #
model_id-kcp-attrib $-1 -1 $-1 $14 $6 1 1021384619 1021384620 -2028273661 1 #
shell $-1 -1 $-1 $-1 $-1 $41 $-1 $15 #
model_id-kcp-attrib $-1 -1 $-1 $17 $7 1 1021384619 1021384620 -2027290620 1 #
shell $-1 -1 $-1 $-1 $-1 $42 $-1 $18 #
model_id-kcp-attrib $-1 -1 $-1 $20 $8 1 1021384619 1021384620 -2016542714 1 #
shell $-1 -1 $-1 $-1 $-1 $43 $-1 $21 #
model_id-kcp-attrib $-1 -1 $-1 $23 $9 1 1021384619 1021384620 -2015494139 1 #
shell $-1 -1 $-1 $-1 $-1 $44 $-1 $24 #
model_id-kcp-attrib $-1 -1 $-1 $-1 $26 1 1021384619 1021384619 -2016608255 2 #
face $45 -1 $-1 $46 $47 $10 $-1 $48 reversed single #
loop $-1 -1 $-1 $-1 $49 $26 #
plane-surface $-1 -1 $-1 0 20 0 0 1 0 0 0 1 forward_v I I I I #
face $50 -1 $-1 $51 $52 $27 $-1 $53 forward single #
face $-1 -1 $-1 $54 $55 $29 $-1 $56 forward single #
face $-1 -1 $-1 $57 $58 $31 $-1 $59 forward single #
face $-1 -1 $-1 $60 $61 $33 $-1 $62 forward single #
face $-1 -1 $-1 $63 $64 $35 $-1 $65 forward single #
model_id-kcp-attrib $-1 -1 $-1 $-1 $37 1 1021384619 1021384619 -2016608255 3 #
face $66 -1 $-1 $67 $68 $10 $-1 $69 reversed single #
loop $-1 -1 $-1 $-1 $70 $37 #
plane-surface $-1 -1 $-1 0 20 -20 0 0 1 1 0 0 forward_v I I I I #
coedge $-1 -1 $-1 $71 $72 $73 $74 reversed $38 $-1 #
model_id-kcp-attrib $-1 -1 $-1 $-1 $40 1 1021384619 1021384619 -2016608254 5 #
face $75 -1 $-1 $76 $77 $27 $-1 $78 reversed single #
loop $-1 -1 $-1 $-1 $79 $40 #
plane-surface $-1 -1 $-1 0 0 20 0 0 1 1 0 0 forward_v I I I I #
face $-1 -1 $-1 $80 $81 $29 $-1 $82 forward single #
loop $-1 -1 $-1 $-1 $83 $41 #
plane-surface $-1 -1 $-1 -20 10 -10 0 1 0 0 0 1 forward_v I I I I #
face $-1 -1 $-1 $84 $85 $31 $-1 $86 forward single #
loop $-1 -1 $-1 $-1 $87 $42 #
plane-surface $-1 -1 $-1 -10 -15 0 0 1 0 0 0 1 forward_v I I I I #
face $-1 -1 $-1 $88 $89 $33 $-1 $90 forward single #
loop $-1 -1 $-1 $-1 $91 $43 #
plane-surface $-1 -1 $-1 10 10 10 0 1 0 0 0 1 forward_v I I I I #
face $-1 -1 $-1 $92 $93 $35 $-1 $94 forward single #
loop $-1 -1 $-1 $-1 $95 $44 #
plane-surface $-1 -1 $-1 -10 20 0 0 1 0 0 0 1 forward_v I I I I #
model_id-kcp-attrib $-1 -1 $-1 $-1 $46 1 1021384619 1021384619 -2016608255 4 #
face $96 -1 $-1 $97 $98 $10 $-1 $99 forward single #
loop $-1 -1 $-1 $-1 $100 $46 #
plane-surface $-1 -1 $-1 40 20 0 -1 0 0 0 0 1 forward_v I I I I #
coedge $-1 -1 $-1 $101 $102 $103 $104 forward $47 $-1 #
coedge $-1 -1 $-1 $105 $49 $106 $107 reversed $38 $-1 #
coedge $-1 -1 $-1 $49 $108 $109 $110 reversed $38 $-1 #
coedge $-1 -1 $-1 $111 $112 $49 $74 forward $113 $-1 #
edge $114 -1 $-1 $115 -5 $116 15 $73 $117 forward @7 unknown #
model_id-kcp-attrib $-1 -1 $-1 $-1 $51 1 1021384619 1021384619 -2016608254 3 #
face $118 -1 $-1 $119 $120 $27 $-1 $121 reversed single #
loop $-1 -1 $-1 $-1 $122 $51 #
plane-surface $-1 -1 $-1 0 0 -20 0 0 1 1 0 0 forward_v I I I I #
coedge $-1 -1 $-1 $123 $124 $125 $126 forward $52 $-1 #
face $-1 -1 $-1 $127 $128 $29 $-1 $129 forward single #
loop $-1 -1 $-1 $-1 $130 $54 #
plane-surface $-1 -1 $-1 20 -15 -10 0 -1 0 0 0 -1 forward_v I I I I #
coedge $-1 -1 $-1 $131 $132 $133 $134 forward $55 $-1 #
face $-1 -1 $-1 $135 $136 $31 $-1 $137 forward single #
loop $-1 -1 $-1 $-1 $138 $57 #
plane-surface $-1 -1 $-1 10 -15 0 1 0 0 0 0 -1 forward_v I I I I #
coedge $-1 -1 $-1 $139 $140 $141 $142 forward $58 $-1 #
face $-1 -1 $-1 $143 $144 $33 $-1 $145 forward single #
loop $-1 -1 $-1 $-1 $146 $60 #
plane-surface $-1 -1 $-1 35 10 10 1 0 0 0 0 -1 forward_v I I I I #
coedge $-1 -1 $-1 $147 $148 $149 $150 forward $61 $-1 #
face $-1 -1 $-1 $151 $152 $35 $-1 $153 forward single #
loop $-1 -1 $-1 $-1 $154 $63 #
plane-surface $-1 -1 $-1 10 20 0 1 0 0 0 0 -1 forward_v I I I I #
coedge $-1 -1 $-1 $155 $156 $157 $158 forward $64 $-1 #
model_id-kcp-attrib $-1 -1 $-1 $-1 $67 1 1021384619 1021384619 -2016608255 5 #
face $159 -1 $-1 $160 $161 $10 $-1 $162 forward single #
loop $-1 -1 $-1 $-1 $163 $67 #
plane-surface $-1 -1 $-1 0 20 20 0 0 1 1 0 0 forward_v I I I I #
coedge $-1 -1 $-1 $164 $165 $166 $167 forward $68 $-1 #
coedge $-1 -1 $-1 $168 $70 $165 $169 forward $47 $-1 #
coedge $-1 -1 $-1 $70 $168 $170 $171 forward $47 $-1 #
coedge $-1 -1 $-1 $108 $166 $70 $104 reversed $38 $-1 #
edge $172 -1 $-1 $173 -40 $174 40 $70 $175 forward @7 unknown #
coedge $-1 -1 $-1 $176 $71 $177 $178 reversed $38 $-1 #
coedge $-1 -1 $-1 $179 $180 $71 $107 forward $181 $-1 #
edge $182 -1 $-1 $183 -10 $115 10 $106 $184 forward @7 unknown #
coedge $-1 -1 $-1 $72 $103 $185 $186 reversed $38 $-1 #
coedge $-1 -1 $-1 $187 $188 $72 $110 forward $189 $-1 #
edge $190 -1 $-1 $116 10 $191 40 $109 $192 forward @7 unknown #
coedge $-1 -1 $-1 $193 $73 $188 $194 reversed $113 $-1 #
coedge $-1 -1 $-1 $73 $193 $179 $195 forward $113 $-1 #
loop $-1 -1 $-1 $-1 $73 $196 #
attrib_edge_convexity-kcp-attrib $-1 -1 $197 $-1 $74 1 #
vertex $-1 -1 $-1 $195 $198 #
vertex $-1 -1 $-1 $194 $199 #
straight-curve $-1 -1 $-1 -10 20 5 0 0 1 I I #
model_id-kcp-attrib $-1 -1 $-1 $-1 $76 1 1021384619 1021384619 -2016608254 8 #
face $200 -1 $-1 $201 $202 $27 $-1 $203 reversed single #
loop $-1 -1 $-1 $-1 $204 $76 #
plane-surface $-1 -1 $-1 0 -20 0 0 1 0 0 0 1 forward_v I I I I #
coedge $-1 -1 $-1 $205 $206 $207 $208 forward $77 $-1 #
coedge $-1 -1 $-1 $209 $79 $210 $211 forward $52 $-1 #
coedge $-1 -1 $-1 $79 $209 $212 $213 forward $52 $-1 #
coedge $-1 -1 $-1 $214 $215 $79 $126 reversed $216 $-1 #
edge $-1 -1 $-1 $217 -20 $218 20 $125 $219 forward @7 unknown #
face $-1 -1 $-1 $220 $221 $29 $-1 $222 forward single #
loop $-1 -1 $-1 $-1 $223 $80 #
plane-surface $-1 -1 $-1 -20 -15 -10 -1 0 0 0 0 1 forward_v I I I I #
coedge $-1 -1 $-1 $224 $225 $226 $227 forward $81 $-1 #
coedge $-1 -1 $-1 $228 $83 $229 $230 reversed $55 $-1 #
coedge $-1 -1 $-1 $83 $228 $231 $232 forward $55 $-1 #
coedge $-1 -1 $-1 $233 $234 $83 $134 reversed $235 $-1 #
edge $-1 -1 $-1 $236 -20 $237 20 $83 $238 forward @7 unknown #
face $-1 -1 $-1 $239 $240 $31 $-1 $241 forward single #
loop $-1 -1 $-1 $-1 $242 $84 #
plane-surface $-1 -1 $-1 10 -20 0 0 -1 0 0 0 -1 forward_v I I I I #
coedge $-1 -1 $-1 $243 $244 $245 $246 forward $85 $-1 #
coedge $-1 -1 $-1 $247 $87 $244 $248 reversed $58 $-1 #
coedge $-1 -1 $-1 $87 $247 $249 $250 forward $58 $-1 #
coedge $-1 -1 $-1 $251 $245 $87 $142 reversed $252 $-1 #
edge $-1 -1 $-1 $253 -20 $254 0 $87 $255 forward @7 unknown #
face $-1 -1 $-1 $256 $257 $33 $-1 $258 forward single #
loop $-1 -1 $-1 $-1 $259 $88 #
plane-surface $-1 -1 $-1 35 -15 10 0 -1 0 0 0 -1 forward_v I I I I #
coedge $-1 -1 $-1 $260 $261 $262 $263 forward $89 $-1 #
coedge $-1 -1 $-1 $264 $91 $261 $265 reversed $61 $-1 #
coedge $-1 -1 $-1 $91 $264 $266 $267 forward $61 $-1 #
coedge $-1 -1 $-1 $268 $262 $91 $150 reversed $269 $-1 #
edge $-1 -1 $-1 $270 10 $271 35 $91 $272 forward @7 unknown #
face $-1 -1 $-1 $273 $274 $35 $-1 $275 forward single #
loop $-1 -1 $-1 $-1 $276 $92 #
plane-surface $-1 -1 $-1 10 10 0 0 -1 0 0 0 -1 forward_v I I I I #
coedge $-1 -1 $-1 $277 $278 $279 $280 forward $93 $-1 #
coedge $-1 -1 $-1 $281 $95 $278 $282 reversed $64 $-1 #
coedge $-1 -1 $-1 $95 $281 $283 $284 forward $64 $-1 #
coedge $-1 -1 $-1 $285 $279 $95 $158 reversed $286 $-1 #
edge $-1 -1 $-1 $287 -10 $288 10 $95 $289 forward @7 unknown #
model_id-kcp-attrib $-1 -1 $-1 $-1 $97 1 1021384619 1021384619 -2016608255 6 #
face $290 -1 $-1 $291 $292 $10 $-1 $293 forward single #
loop $-1 -1 $-1 $-1 $177 $97 #
plane-surface $-1 -1 $-1 10 20 10 -1 0 0 0 0 1 forward_v I I I I #
coedge $-1 -1 $-1 $294 $295 $176 $296 forward $98 $-1 #
coedge $-1 -1 $-1 $297 $100 $295 $298 reversed $68 $-1 #
coedge $-1 -1 $-1 $100 $297 $101 $169 reversed $68 $-1 #
coedge $-1 -1 $-1 $103 $176 $100 $167 reversed $38 $-1 #
edge $299 -1 $-1 $174 -20 $300 20 $100 $301 forward @7 unknown #
coedge $-1 -1 $-1 $102 $101 $302 $303 forward $47 $-1 #
edge $304 -1 $-1 $174 0 $305 40 $165 $306 forward @7 unknown #
coedge $-1 -1 $-1 $307 $185 $102 $171 reversed $308 $-1 #
edge $309 -1 $-1 $310 -40 $173 0 $170 $311 forward @7 unknown #
attrib_edge_convexity-kcp-attrib $-1 -1 $312 $-1 $104 1 #
vertex $-1 -1 $-1 $171 $313 #
vertex $-1 -1 $-1 $167 $314 #
straight-curve $-1 -1 $-1 0 20 -20 1 0 0 I I #
coedge $-1 -1 $-1 $166 $105 $163 $296 reversed $38 $-1 #
coedge $-1 -1 $-1 $315 $316 $105 $178 forward $161 $-1 #
edge $317 -1 $-1 $318 -15 $183 5 $177 $319 forward @7 unknown #
coedge $-1 -1 $-1 $320 $106 $112 $195 reversed $181 $-1 #
coedge $-1 -1 $-1 $106 $320 $315 $321 reversed $181 $-1 #
loop $-1 -1 $-1 $-1 $106 $322 #
attrib_edge_convexity-kcp-attrib $-1 -1 $323 $-1 $107 1 #
vertex $-1 -1 $-1 $107 $324 #
straight-curve $-1 -1 $-1 0 20 0 -1 0 0 I I #
coedge $-1 -1 $-1 $170 $325 $108 $186 forward $308 $-1 #
edge $326 -1 $-1 $191 -20 $173 20 $185 $327 forward @7 unknown #
coedge $-1 -1 $-1 $328 $109 $325 $329 forward $189 $-1 #
coedge $-1 -1 $-1 $109 $330 $111 $194 forward $189 $-1 #
loop $-1 -1 $-1 $-1 $109 $331 #
attrib_edge_convexity-kcp-attrib $-1 -1 $332 $-1 $110 1 #
vertex $-1 -1 $-1 $110 $333 #
straight-curve $-1 -1 $-1 0 20 20 -1 0 0 I I #
coedge $-1 -1 $-1 $112 $111 $334 $335 reversed $113 $-1 #
edge $-1 -1 $-1 $336 -10 $116 0 $188 $337 forward @7 unknown #
edge $338 -1 $-1 $339 -10 $115 0 $112 $340 forward @7 unknown #
face $341 -1 $-1 $331 $113 $10 $-1 $342 forward single #
convexity-sys-attrib $-1 -1 $-1 $114 $74 #
point $-1 -1 $-1 -10 20 0 #
point $-1 -1 $-1 -10 20 20 #
model_id-kcp-attrib $-1 -1 $-1 $-1 $119 1 1021384619 1021384619 -2016608254 6 #
face $343 -1 $-1 $344 $345 $27 $-1 $346 reversed single #
loop $-1 -1 $-1 $-1 $347 $119 #
plane-surface $-1 -1 $-1 -40 0 0 1 0 0 0 0 -1 forward_v I I I I #
coedge $-1 -1 $-1 $348 $212 $349 $350 forward $120 $-1 #
coedge $-1 -1 $-1 $351 $122 $348 $352 forward $77 $-1 #
coedge $-1 -1 $-1 $122 $351 $353 $354 forward $77 $-1 #
coedge $-1 -1 $-1 $215 $214 $122 $208 reversed $216 $-1 #
edge $-1 -1 $-1 $355 -20 $356 20 $207 $357 forward @7 unknown #
coedge $-1 -1 $-1 $124 $123 $358 $359 forward $52 $-1 #
coedge $-1 -1 $-1 $360 $361 $123 $211 reversed $345 $-1 #
edge $-1 -1 $-1 $218 -40 $362 40 $210 $363 forward @7 unknown #
coedge $-1 -1 $-1 $204 $364 $124 $213 reversed $120 $-1 #
edge $-1 -1 $-1 $365 -40 $217 40 $212 $366 forward @7 unknown #
coedge $-1 -1 $-1 $207 $125 $364 $367 forward $216 $-1 #
coedge $-1 -1 $-1 $125 $207 $360 $368 reversed $216 $-1 #
loop $-1 -1 $-1 $-1 $214 $344 #
vertex $-1 -1 $-1 $126 $369 #
vertex $-1 -1 $-1 $126 $370 #
straight-curve $-1 -1 $-1 40 0 20 0 1 0 I I #
face $-1 -1 $-1 $371 $235 $29 $-1 $372 forward single #
loop $-1 -1 $-1 $-1 $373 $127 #
plane-surface $-1 -1 $-1 20 10 -10 1 0 0 0 0 -1 forward_v I I I I #
coedge $-1 -1 $-1 $231 $374 $233 $375 forward $128 $-1 #
coedge $-1 -1 $-1 $376 $130 $374 $377 reversed $81 $-1 #
coedge $-1 -1 $-1 $130 $376 $378 $379 forward $81 $-1 #
coedge $-1 -1 $-1 $234 $233 $130 $227 reversed $235 $-1 #
edge $-1 -1 $-1 $380 -20 $381 20 $130 $382 forward @7 unknown #
coedge $-1 -1 $-1 $132 $131 $383 $384 reversed $55 $-1 #
coedge $-1 -1 $-1 $373 $385 $131 $230 forward $221 $-1 #
edge $386 -1 $-1 $387 0 $237 20 $229 $388 forward @7 unknown #
coedge $-1 -1 $-1 $389 $223 $132 $232 reversed $128 $-1 #
edge $390 -1 $-1 $391 0 $236 20 $132 $392 forward @7 unknown #
coedge $-1 -1 $-1 $226 $133 $223 $375 reversed $235 $-1 #
coedge $-1 -1 $-1 $133 $226 $373 $393 reversed $235 $-1 #
loop $-1 -1 $-1 $-1 $226 $220 #
vertex $-1 -1 $-1 $232 $394 #
vertex $-1 -1 $-1 $230 $395 #
straight-curve $-1 -1 $-1 0 10 10 1 0 0 I I #
face $-1 -1 $-1 $396 $252 $31 $-1 $397 forward single #
loop $-1 -1 $-1 $-1 $398 $135 #
plane-surface $-1 -1 $-1 -10 -20 0 -1 0 0 0 0 1 forward_v I I I I #
coedge $-1 -1 $-1 $399 $400 $401 $402 forward $136 $-1 #
coedge $-1 -1 $-1 $403 $138 $400 $404 reversed $85 $-1 #
coedge $-1 -1 $-1 $138 $403 $139 $248 forward $85 $-1 #
coedge $-1 -1 $-1 $141 $401 $138 $246 reversed $252 $-1 #
edge $-1 -1 $-1 $254 16.25 $405 21.25 $138 $406 forward @7 unknown #
coedge $-1 -1 $-1 $140 $139 $407 $408 reversed $58 $-1 #
edge $-1 -1 $-1 $409 0 $254 10 $244 $410 forward @7 unknown #
coedge $-1 -1 $-1 $411 $398 $140 $250 reversed $240 $-1 #
edge $-1 -1 $-1 $412 0 $253 10 $140 $413 forward @7 unknown #
coedge $-1 -1 $-1 $401 $141 $398 $414 reversed $252 $-1 #
loop $-1 -1 $-1 $-1 $141 $239 #
vertex $-1 -1 $-1 $250 $415 #
vertex $-1 -1 $-1 $248 $416 #
straight-curve $-1 -1 $-1 10 -15 10 1 0 0 I I #
face $-1 -1 $-1 $417 $418 $33 $-1 $419 forward single #
loop $-1 -1 $-1 $-1 $420 $143 #
plane-surface $-1 -1 $-1 10 -15 10 1 0 0 0 0 -1 forward_v I I I I #
coedge $-1 -1 $-1 $421 $422 $423 $424 forward $144 $-1 #
coedge $-1 -1 $-1 $425 $146 $422 $426 reversed $89 $-1 #
coedge $-1 -1 $-1 $146 $425 $147 $265 forward $89 $-1 #
coedge $-1 -1 $-1 $149 $423 $146 $263 reversed $269 $-1 #
edge $-1 -1 $-1 $271 0 $427 25 $146 $428 forward @7 unknown #
coedge $-1 -1 $-1 $148 $147 $429 $430 reversed $61 $-1 #
edge $431 -1 $-1 $432 0 $271 10 $261 $433 forward @7 unknown #
coedge $-1 -1 $-1 $434 $435 $148 $267 reversed $436 $-1 #
edge $-1 -1 $-1 $437 0 $270 10 $148 $438 forward @7 unknown #
coedge $-1 -1 $-1 $439 $149 $435 $440 reversed $269 $-1 #
loop $-1 -1 $-1 $-1 $149 $441 #
vertex $-1 -1 $-1 $267 $442 #
vertex $-1 -1 $-1 $265 $443 #
straight-curve $-1 -1 $-1 0 10 20 1 0 0 I I #
face $-1 -1 $-1 $444 $286 $35 $-1 $445 forward single #
loop $-1 -1 $-1 $-1 $446 $151 #
plane-surface $-1 -1 $-1 -10 10 0 -1 0 0 0 0 1 forward_v I I I I #
coedge $-1 -1 $-1 $447 $448 $449 $450 forward $152 $-1 #
coedge $-1 -1 $-1 $451 $154 $448 $452 reversed $93 $-1 #
coedge $-1 -1 $-1 $154 $451 $155 $282 forward $93 $-1 #
coedge $-1 -1 $-1 $157 $449 $154 $280 reversed $286 $-1 #
edge $-1 -1 $-1 $288 -2.5 $453 7.5 $154 $454 forward @7 unknown #
coedge $-1 -1 $-1 $156 $155 $455 $456 reversed $64 $-1 #
edge $-1 -1 $-1 $457 0 $288 10 $278 $458 forward @7 unknown #
coedge $-1 -1 $-1 $459 $446 $156 $284 reversed $274 $-1 #
edge $-1 -1 $-1 $460 0 $287 10 $156 $461 forward @7 unknown #
coedge $-1 -1 $-1 $449 $157 $446 $462 reversed $286 $-1 #
loop $-1 -1 $-1 $-1 $157 $273 #
vertex $-1 -1 $-1 $284 $463 #
vertex $-1 -1 $-1 $282 $464 #
straight-curve $-1 -1 $-1 0 20 10 1 0 0 I I #
model_id-kcp-attrib $-1 -1 $-1 $-1 $160 1 1021384619 1021384619 -2016608255 7 #
face $465 -1 $-1 $466 $467 $10 $-1 $468 reversed single #
loop $-1 -1 $-1 $-1 $469 $160 #
plane-surface $-1 -1 $-1 30 20 10 0 0 1 1 0 0 forward_v I I I I #
coedge $-1 -1 $-1 $470 $163 $316 $471 forward $98 $-1 #
coedge $-1 -1 $-1 $163 $472 $164 $298 forward $98 $-1 #
edge $473 -1 $-1 $300 -40 $318 -10 $163 $474 forward @7 unknown #
coedge $-1 -1 $-1 $165 $164 $475 $476 forward $68 $-1 #
edge $477 -1 $-1 $478 -40 $300 0 $164 $479 forward @7 unknown #
attrib_edge_convexity-kcp-attrib $-1 -1 $480 $-1 $167 1 #
vertex $-1 -1 $-1 $298 $481 #
straight-curve $-1 -1 $-1 40 20 0 0 0 1 I I #
coedge $-1 -1 $-1 $475 $482 $168 $303 reversed $483 $-1 #
edge $484 -1 $-1 $305 -40 $310 40 $302 $485 forward @7 unknown #
attrib_edge_convexity-kcp-attrib $-1 -1 $486 $-1 $169 1 #
vertex $-1 -1 $-1 $476 $487 #
straight-curve $-1 -1 $-1 40 20 -20 0 -1 0 I I #
coedge $-1 -1 $-1 $325 $170 $482 $488 reversed $308 $-1 #
loop $-1 -1 $-1 $-1 $185 $489 #
attrib_edge_convexity-kcp-attrib $-1 -1 $490 $-1 $171 1 #
vertex $-1 -1 $-1 $171 $491 #
straight-curve $-1 -1 $-1 -40 20 -20 0 1 0 I I #
convexity-sys-attrib $-1 -1 $-1 $172 $104 #
point $-1 -1 $-1 -40 20 -20 #
point $-1 -1 $-1 40 20 -20 #
coedge $-1 -1 $-1 $492 $177 $180 $321 forward $161 $-1 #
coedge $-1 -1 $-1 $177 $492 $294 $471 reversed $161 $-1 #
attrib_edge_convexity-kcp-attrib $-1 -1 $493 $-1 $178 1 #
vertex $-1 -1 $-1 $178 $494 #
straight-curve $-1 -1 $-1 10 20 5 0 0 -1 I I #
coedge $-1 -1 $-1 $180 $179 $495 $496 reversed $181 $-1 #
edge $497 -1 $-1 $183 0 $498 10 $315 $499 forward @7 unknown #
face $500 -1 $-1 $501 $181 $10 $-1 $502 forward single #
convexity-sys-attrib $-1 -1 $-1 $182 $107 #
point $-1 -1 $-1 10 20 0 #
coedge $-1 -1 $-1 $185 $307 $187 $329 reversed $308 $-1 #
attrib_edge_convexity-kcp-attrib $-1 -1 $503 $-1 $186 1 #
straight-curve $-1 -1 $-1 -40 20 0 0 0 -1 I I #
coedge $-1 -1 $-1 $504 $187 $505 $506 forward $189 $-1 #
edge $-1 -1 $-1 $191 0 $507 40 $325 $508 forward @7 unknown #
coedge $-1 -1 $-1 $188 $509 $510 $511 forward $189 $-1 #
face $512 -1 $-1 $513 $189 $10 $-1 $99 forward single #
convexity-sys-attrib $-1 -1 $-1 $190 $110 #
point $-1 -1 $-1 -40 20 20 #
coedge $-1 -1 $-1 $510 $495 $193 $335 forward $514 $-1 #
edge $-1 -1 $-1 $339 -5 $336 15 $334 $515 forward @7 unknown #
vertex $-1 -1 $-1 $511 $516 #
straight-curve $-1 -1 $-1 -10 20 20 0 1 0 I I #
attrib_edge_convexity-kcp-attrib $-1 -1 $517 $-1 $195 2 #
vertex $-1 -1 $-1 $496 $518 #
straight-curve $-1 -1 $-1 -10 20 0 0 1 0 I I #
model_id-kcp-attrib $-1 -1 $-1 $-1 $196 1 1021384619 1021384619 -2016608255 20 #
plane-surface $-1 -1 $-1 -10 20 10 1 0 0 0 0 -1 forward_v I I I I #
model_id-kcp-attrib $-1 -1 $-1 $-1 $201 1 1021384619 1021384619 -2016608254 2 #
face $519 -1 $-1 $-1 $216 $27 $-1 $520 reversed single #
loop $-1 -1 $-1 $-1 $360 $201 #
plane-surface $-1 -1 $-1 0 20 0 0 -1 0 0 0 -1 forward_v I I I I #
coedge $-1 -1 $-1 $521 $358 $361 $522 forward $202 $-1 #
coedge $-1 -1 $-1 $364 $204 $205 $352 reversed $120 $-1 #
coedge $-1 -1 $-1 $358 $521 $204 $350 reversed $202 $-1 #
edge $-1 -1 $-1 $365 -20 $523 20 $349 $524 forward @7 unknown #
coedge $-1 -1 $-1 $206 $205 $521 $525 forward $77 $-1 #
edge $-1 -1 $-1 $356 -40 $523 40 $348 $526 forward @7 unknown #
coedge $-1 -1 $-1 $361 $360 $206 $354 reversed $345 $-1 #
edge $-1 -1 $-1 $527 -40 $355 40 $353 $528 forward @7 unknown #
vertex $-1 -1 $-1 $208 $529 #
vertex $-1 -1 $-1 $367 $530 #
straight-curve $-1 -1 $-1 40 0 -20 0 -1 0 I I #
coedge $-1 -1 $-1 $347 $349 $209 $359 reversed $202 $-1 #
edge $-1 -1 $-1 $362 -20 $365 20 $358 $531 forward @7 unknown #
coedge $-1 -1 $-1 $353 $210 $215 $368 forward $345 $-1 #
coedge $-1 -1 $-1 $210 $353 $347 $522 reversed $345 $-1 #
vertex $-1 -1 $-1 $211 $532 #
straight-curve $-1 -1 $-1 0 20 20 -1 0 0 I I #
coedge $-1 -1 $-1 $212 $348 $214 $367 reversed $120 $-1 #
vertex $-1 -1 $-1 $359 $533 #
straight-curve $-1 -1 $-1 0 -20 20 1 0 0 I I #
edge $-1 -1 $-1 $217 -20 $356 20 $214 $534 forward @7 unknown #
edge $-1 -1 $-1 $218 -20 $355 20 $215 $535 forward @7 unknown #
point $-1 -1 $-1 40 -20 20 #
point $-1 -1 $-1 40 20 20 #
face $-1 -1 $-1 $-1 $536 $29 $-1 $537 reversed single #
plane-surface $-1 -1 $-1 0 -2.5000000000000004 10 0 0 1 1 0 0 forward_v I I I I #
coedge $-1 -1 $-1 $378 $229 $234 $393 forward $221 $-1 #
coedge $-1 -1 $-1 $223 $389 $224 $377 forward $128 $-1 #
edge $-1 -1 $-1 $381 -23.75 $236 1.25 $223 $538 forward @7 unknown #
coedge $-1 -1 $-1 $225 $224 $539 $540 reversed $81 $-1 #
edge $541 -1 $-1 $542 0 $381 20 $374 $543 forward @7 unknown #
coedge $-1 -1 $-1 $385 $373 $225 $379 reversed $221 $-1 #
edge $544 -1 $-1 $545 0 $380 20 $225 $546 forward @7 unknown #
vertex $-1 -1 $-1 $379 $547 #
vertex $-1 -1 $-1 $377 $548 #
straight-curve $-1 -1 $-1 0 -15 10 -1 0 0 I I #
coedge $-1 -1 $-1 $549 $550 $228 $384 forward $536 $-1 #
edge $551 -1 $-1 $391 -20 $387 20 $228 $552 forward @7 unknown #
coedge $-1 -1 $-1 $229 $378 $549 $553 reversed $221 $-1 #
convexity-sys-attrib $-1 -1 $-1 $-1 $230 #
vertex $-1 -1 $-1 $553 $554 #
straight-curve $-1 -1 $-1 20 10 -10 0 0 1 I I #
coedge $-1 -1 $-1 $374 $231 $550 $555 reversed $128 $-1 #
convexity-sys-attrib $-1 -1 $-1 $-1 $232 #
vertex $-1 -1 $-1 $555 $556 #
straight-curve $-1 -1 $-1 -20 10 -10 0 0 1 I I #
edge $-1 -1 $-1 $237 -1.25 $380 23.75 $373 $557 forward @7 unknown #
point $-1 -1 $-1 -20 10 10 #
point $-1 -1 $-1 20 10 10 #
face $-1 -1 $-1 $-1 $558 $31 $-1 $559 reversed single #
plane-surface $-1 -1 $-1 0 -17.5 10 0 0 1 1 0 0 forward_v I I I I #
coedge $-1 -1 $-1 $249 $560 $251 $414 forward $240 $-1 #
coedge $-1 -1 $-1 $561 $242 $560 $562 reversed $136 $-1 #
coedge $-1 -1 $-1 $242 $561 $243 $404 forward $136 $-1 #
coedge $-1 -1 $-1 $245 $251 $242 $402 reversed $252 $-1 #
edge $-1 -1 $-1 $405 -10 $563 10 $242 $564 forward @7 unknown #
coedge $-1 -1 $-1 $244 $243 $565 $566 reversed $85 $-1 #
edge $-1 -1 $-1 $567 0 $405 10 $400 $568 forward @7 unknown #
vertex $-1 -1 $-1 $404 $569 #
straight-curve $-1 -1 $-1 10 1.25 10 0 -1 0 I I #
coedge $-1 -1 $-1 $565 $570 $247 $408 forward $558 $-1 #
edge $571 -1 $-1 $412 -20 $409 0 $247 $572 forward @7 unknown #
vertex $-1 -1 $-1 $408 $573 #
straight-curve $-1 -1 $-1 10 -15 0 0 0 1 I I #
coedge $-1 -1 $-1 $560 $249 $570 $574 reversed $240 $-1 #
vertex $-1 -1 $-1 $574 $575 #
straight-curve $-1 -1 $-1 -10 -15 0 0 0 1 I I #
edge $-1 -1 $-1 $563 -21.25 $253 -16.25 $398 $576 forward @7 unknown #
point $-1 -1 $-1 -10 -15 10 #
point $-1 -1 $-1 10 -15 10 #
face $-1 -1 $-1 $577 $578 $33 $-1 $579 forward single #
loop $-1 -1 $-1 $-1 $580 $256 #
plane-surface $-1 -1 $-1 10 -20 10 0 -1 0 0 0 -1 forward_v I I I I #
coedge $-1 -1 $-1 $581 $582 $583 $584 forward $257 $-1 #
coedge $-1 -1 $-1 $585 $259 $582 $586 reversed $144 $-1 #
coedge $-1 -1 $-1 $259 $585 $260 $426 forward $144 $-1 #
coedge $-1 -1 $-1 $262 $583 $259 $424 reversed $269 $-1 #
edge $-1 -1 $-1 $427 -35 $587 -10 $259 $588 forward @7 unknown #
coedge $-1 -1 $-1 $261 $260 $589 $590 reversed $89 $-1 #
edge $-1 -1 $-1 $591 0 $427 10 $422 $592 forward @7 unknown #
vertex $-1 -1 $-1 $426 $593 #
straight-curve $-1 -1 $-1 35 10 20 0 -1 0 I I #
coedge $-1 -1 $-1 $589 $594 $264 $430 forward $595 $-1 #
edge $596 -1 $-1 $437 10 $432 35 $264 $597 forward @7 unknown #
convexity-sys-attrib $-1 -1 $-1 $-1 $265 #
vertex $-1 -1 $-1 $430 $598 #
straight-curve $-1 -1 $-1 35 10 10 0 0 1 I I #
coedge $-1 -1 $-1 $599 $266 $594 $600 reversed $436 $-1 #
coedge $-1 -1 $-1 $266 $599 $268 $440 forward $436 $-1 #
loop $-1 -1 $-1 $-1 $435 $601 #
vertex $-1 -1 $-1 $600 $602 #
straight-curve $-1 -1 $-1 10 10 10 0 0 1 I I #
coedge $-1 -1 $-1 $603 $268 $604 $605 reversed $269 $-1 #
edge $-1 -1 $-1 $606 -10 $270 0 $435 $607 forward @7 unknown #
face $-1 -1 $-1 $608 $269 $33 $-1 $609 forward single #
point $-1 -1 $-1 10 10 20 #
point $-1 -1 $-1 35 10 20 #
face $-1 -1 $-1 $-1 $610 $35 $-1 $611 reversed single #
plane-surface $-1 -1 $-1 0 14.999999999999998 10 0 0 1 1 0 0 forward_v I I I I #
coedge $-1 -1 $-1 $283 $612 $285 $462 forward $274 $-1 #
coedge $-1 -1 $-1 $613 $276 $612 $614 reversed $152 $-1 #
coedge $-1 -1 $-1 $276 $613 $277 $452 forward $152 $-1 #
coedge $-1 -1 $-1 $279 $285 $276 $450 reversed $286 $-1 #
edge $-1 -1 $-1 $453 -20 $615 0 $276 $616 forward @7 unknown #
coedge $-1 -1 $-1 $278 $277 $617 $618 reversed $93 $-1 #
edge $-1 -1 $-1 $619 0 $453 10 $448 $620 forward @7 unknown #
vertex $-1 -1 $-1 $452 $621 #
straight-curve $-1 -1 $-1 10 17.5 10 0 -1 0 I I #
coedge $-1 -1 $-1 $617 $622 $281 $456 forward $610 $-1 #
edge $623 -1 $-1 $460 -10 $457 10 $281 $624 forward @7 unknown #
vertex $-1 -1 $-1 $456 $625 #
straight-curve $-1 -1 $-1 10 20 0 0 0 1 I I #
coedge $-1 -1 $-1 $612 $283 $622 $626 reversed $274 $-1 #
vertex $-1 -1 $-1 $626 $627 #
straight-curve $-1 -1 $-1 -10 20 0 0 0 1 I I #
edge $-1 -1 $-1 $615 -7.5 $287 2.5 $446 $628 forward @7 unknown #
point $-1 -1 $-1 -10 20 10 #
point $-1 -1 $-1 10 20 10 #
model_id-kcp-attrib $-1 -1 $-1 $-1 $291 1 1021384619 1021384619 -2016608255 8 #
face $629 -1 $-1 $630 $631 $10 $-1 $632 forward single #
loop $-1 -1 $-1 $-1 $633 $291 #
plane-surface $-1 -1 $-1 20 20 0 1 0 0 0 0 -1 forward_v I I I I #
coedge $-1 -1 $-1 $634 $635 $636 $637 reversed $292 $-1 #
coedge $-1 -1 $-1 $638 $294 $639 $640 forward $98 $-1 #
edge $-1 -1 $-1 $318 0 $641 10 $294 $642 forward @7 unknown #
coedge $-1 -1 $-1 $295 $643 $644 $645 forward $98 $-1 #
attrib_edge_convexity-kcp-attrib $-1 -1 $646 $-1 $296 1 #
straight-curve $-1 -1 $-1 0 20 20 -1 0 0 I I #
coedge $-1 -1 $-1 $644 $302 $297 $476 reversed $483 $-1 #
edge $647 -1 $-1 $478 -20 $305 20 $297 $648 forward @7 unknown #
attrib_edge_convexity-kcp-attrib $-1 -1 $649 $-1 $298 1 #
vertex $-1 -1 $-1 $298 $650 #
straight-curve $-1 -1 $-1 40 20 20 0 1 0 I I #
convexity-sys-attrib $-1 -1 $-1 $299 $167 #
point $-1 -1 $-1 40 20 20 #
coedge $-1 -1 $-1 $302 $505 $307 $488 forward $483 $-1 #
loop $-1 -1 $-1 $-1 $475 $651 #
attrib_edge_convexity-kcp-attrib $-1 -1 $652 $-1 $303 1 #
straight-curve $-1 -1 $-1 0 -20 -20 -1 0 0 I I #
convexity-sys-attrib $-1 -1 $-1 $304 $169 #
point $-1 -1 $-1 40 -20 -20 #
edge $-1 -1 $-1 $507 -20 $310 20 $307 $653 forward @7 unknown #
face $654 -1 $-1 $655 $308 $10 $-1 $656 reversed single #
convexity-sys-attrib $-1 -1 $-1 $309 $171 #
point $-1 -1 $-1 -40 -20 -20 #
coedge $-1 -1 $-1 $316 $315 $657 $658 reversed $161 $-1 #
convexity-sys-attrib $-1 -1 $-1 $317 $178 #
point $-1 -1 $-1 10 20 20 #
coedge $-1 -1 $-1 $334 $657 $320 $496 forward $514 $-1 #
edge $659 -1 $-1 $498 -10 $339 10 $495 $660 forward @7 unknown #
attrib_edge_convexity-kcp-attrib $-1 -1 $661 $-1 $321 2 #
vertex $-1 -1 $-1 $496 $662 #
straight-curve $-1 -1 $-1 10 20 0 0 -1 0 I I #
model_id-kcp-attrib $-1 -1 $-1 $-1 $322 1 1021384619 1021384619 -2016608255 17 #
face $663 -1 $-1 $664 $665 $10 $-1 $162 forward single #
plane-surface $-1 -1 $-1 0 20 0 0 0 1 1 0 0 forward_v I I I I #
convexity-sys-attrib $-1 -1 $-1 $326 $186 #
coedge $-1 -1 $-1 $666 $328 $667 $668 forward $189 $-1 #
coedge $-1 -1 $-1 $482 $669 $328 $506 reversed $483 $-1 #
edge $-1 -1 $-1 $507 -40 $670 -10 $505 $671 forward @7 unknown #
vertex $-1 -1 $-1 $329 $672 #
straight-curve $-1 -1 $-1 -40 20 20 0 -1 0 I I #
coedge $-1 -1 $-1 $330 $666 $673 $674 forward $189 $-1 #
coedge $-1 -1 $-1 $675 $334 $330 $511 reversed $514 $-1 #
edge $-1 -1 $-1 $676 -35 $336 -10 $510 $677 forward @7 unknown #
model_id-kcp-attrib $-1 -1 $-1 $-1 $331 1 1021384619 1021384619 -2016608255 21 #
face $678 -1 $-1 $651 $679 $10 $-1 $680 forward single #
loop $-1 -1 $-1 $-1 $636 $681 #
straight-curve $-1 -1 $-1 -10 10 5 0 0 1 I I #
point $-1 -1 $-1 -10 10 20 #
convexity-sys-attrib $-1 -1 $-1 $338 $195 #
point $-1 -1 $-1 -10 10 0 #
model_id-kcp-attrib $-1 -1 $-1 $-1 $344 1 1021384619 1021384619 -2016608254 4 #
plane-surface $-1 -1 $-1 40 0 0 -1 0 0 0 0 1 forward_v I I I I #
coedge $-1 -1 $-1 $349 $347 $351 $525 reversed $202 $-1 #
edge $-1 -1 $-1 $362 -20 $527 20 $361 $682 forward @7 unknown #
vertex $-1 -1 $-1 $525 $683 #
straight-curve $-1 -1 $-1 -40 -20 0 0 0 -1 I I #
edge $-1 -1 $-1 $523 -20 $527 20 $521 $684 forward @7 unknown #
straight-curve $-1 -1 $-1 0 -20 -20 -1 0 0 I I #
vertex $-1 -1 $-1 $354 $685 #
straight-curve $-1 -1 $-1 0 20 -20 1 0 0 I I #
point $-1 -1 $-1 40 20 -20 #
point $-1 -1 $-1 40 -20 -20 #
straight-curve $-1 -1 $-1 -40 0 20 0 -1 0 I I #
point $-1 -1 $-1 -40 20 20 #
point $-1 -1 $-1 -40 -20 20 #
straight-curve $-1 -1 $-1 40 -20 0 0 0 -1 I I #
straight-curve $-1 -1 $-1 40 20 0 0 0 -1 I I #
loop $-1 -1 $-1 $-1 $549 $371 #
plane-surface $-1 -1 $-1 0 -2.5000000000000004 -10 0 0 1 1 0 0 forward_v I I I I #
straight-curve $-1 -1 $-1 -20 8.75 10 0 1 0 I I #
coedge $-1 -1 $-1 $550 $549 $376 $540 forward $536 $-1 #
edge $686 -1 $-1 $545 -20 $542 20 $376 $687 forward @7 unknown #
convexity-sys-attrib $-1 -1 $-1 $-1 $377 #
vertex $-1 -1 $-1 $540 $688 #
straight-curve $-1 -1 $-1 -20 -15 -10 0 0 1 I I #
convexity-sys-attrib $-1 -1 $-1 $-1 $379 #
vertex $-1 -1 $-1 $553 $689 #
straight-curve $-1 -1 $-1 20 -15 -10 0 0 1 I I #
point $-1 -1 $-1 20 -15 10 #
point $-1 -1 $-1 -20 -15 10 #
coedge $-1 -1 $-1 $539 $383 $385 $553 forward $536 $-1 #
coedge $-1 -1 $-1 $383 $539 $389 $555 forward $536 $-1 #
convexity-sys-attrib $-1 -1 $-1 $-1 $384 #
straight-curve $-1 -1 $-1 0 10 -10 1 0 0 I I #
edge $690 -1 $-1 $387 -1.25 $545 23.75 $385 $691 forward @7 unknown #
point $-1 -1 $-1 20 10 -10 #
edge $692 -1 $-1 $542 -23.75 $391 1.25 $389 $693 forward @7 unknown #
point $-1 -1 $-1 -20 10 -10 #
straight-curve $-1 -1 $-1 20 8.75 10 0 -1 0 I I #
loop $-1 -1 $-1 $-1 $570 $396 #
plane-surface $-1 -1 $-1 0 -17.5 0 0 0 1 1 0 0 forward_v I I I I #
coedge $-1 -1 $-1 $398 $411 $399 $562 forward $240 $-1 #
coedge $-1 -1 $-1 $400 $399 $694 $695 reversed $136 $-1 #
edge $-1 -1 $-1 $696 0 $563 10 $560 $697 forward @7 unknown #
vertex $-1 -1 $-1 $562 $698 #
straight-curve $-1 -1 $-1 0 -20 10 -1 0 0 I I #
coedge $-1 -1 $-1 $694 $407 $403 $566 forward $558 $-1 #
edge $699 -1 $-1 $409 16.25 $567 21.25 $403 $700 forward @7 unknown #
vertex $-1 -1 $-1 $566 $701 #
straight-curve $-1 -1 $-1 10 -20 0 0 0 1 I I #
point $-1 -1 $-1 10 -20 10 #
coedge $-1 -1 $-1 $407 $694 $411 $574 forward $558 $-1 #
convexity-sys-attrib $-1 -1 $-1 $-1 $408 #
straight-curve $-1 -1 $-1 10 -15 0 1 0 0 I I #
point $-1 -1 $-1 10 -15 0 #
edge $702 -1 $-1 $696 -21.25 $412 -16.25 $411 $703 forward @7 unknown #
point $-1 -1 $-1 -10 -15 0 #
straight-curve $-1 -1 $-1 -10 1.25 10 0 1 0 I I #
face $-1 -1 $-1 $704 $705 $33 $-1 $706 forward single #
loop $-1 -1 $-1 $-1 $707 $417 #
plane-surface $-1 -1 $-1 -10 -20 10 -1 0 0 0 0 1 forward_v I I I I #
coedge $-1 -1 $-1 $708 $709 $710 $711 forward $418 $-1 #
coedge $-1 -1 $-1 $712 $420 $709 $713 reversed $257 $-1 #
coedge $-1 -1 $-1 $420 $712 $421 $586 forward $257 $-1 #
coedge $-1 -1 $-1 $423 $710 $420 $584 reversed $269 $-1 #
edge $-1 -1 $-1 $587 25 $714 30 $420 $715 forward @7 unknown #
coedge $-1 -1 $-1 $422 $421 $716 $717 reversed $144 $-1 #
edge $-1 -1 $-1 $718 0 $587 10 $582 $719 forward @7 unknown #
vertex $-1 -1 $-1 $586 $720 #
straight-curve $-1 -1 $-1 0 -15 20 -1 0 0 I I #
coedge $-1 -1 $-1 $716 $429 $425 $590 forward $595 $-1 #
edge $721 -1 $-1 $432 0 $591 25 $425 $722 forward @7 unknown #
vertex $-1 -1 $-1 $590 $723 #
straight-curve $-1 -1 $-1 35 -15 10 0 0 1 I I #
point $-1 -1 $-1 35 -15 20 #
coedge $-1 -1 $-1 $429 $724 $434 $600 forward $595 $-1 #
loop $-1 -1 $-1 $-1 $594 $608 #
convexity-sys-attrib $-1 -1 $-1 $-1 $430 #
straight-curve $-1 -1 $-1 0 10 10 1 0 0 I I #
point $-1 -1 $-1 35 10 10 #
coedge $-1 -1 $-1 $435 $434 $725 $726 forward $436 $-1 #
edge $727 -1 $-1 $728 -10 $437 0 $434 $729 forward @7 unknown #
face $-1 -1 $-1 $441 $436 $33 $-1 $730 forward single #
point $-1 -1 $-1 10 10 10 #
coedge $-1 -1 $-1 $731 $439 $732 $733 reversed $269 $-1 #
coedge $-1 -1 $-1 $725 $734 $439 $605 forward $735 $-1 #
edge $-1 -1 $-1 $736 -10 $606 10 $604 $737 forward @7 unknown #
vertex $-1 -1 $-1 $726 $738 #
straight-curve $-1 -1 $-1 10 10 20 0 -1 0 I I #
face $-1 -1 $-1 $-1 $595 $33 $-1 $739 reversed single #
plane-surface $-1 -1 $-1 4.4408920985006262e-016 -1.1363636363636367 20 0 0 1 1 0 0 forward_v I I I I #
loop $-1 -1 $-1 $-1 $622 $444 #
plane-surface $-1 -1 $-1 0 14.999999999999998 0 0 0 1 1 0 0 forward_v I I I I #
coedge $-1 -1 $-1 $446 $459 $447 $614 forward $274 $-1 #
coedge $-1 -1 $-1 $448 $447 $740 $741 reversed $152 $-1 #
edge $-1 -1 $-1 $742 0 $615 10 $612 $743 forward @7 unknown #
vertex $-1 -1 $-1 $614 $744 #
straight-curve $-1 -1 $-1 -10 10 10 -1 0 0 I I #
coedge $-1 -1 $-1 $740 $455 $451 $618 forward $610 $-1 #
edge $745 -1 $-1 $457 -2.5 $619 7.5 $451 $746 forward @7 unknown #
vertex $-1 -1 $-1 $618 $747 #
straight-curve $-1 -1 $-1 10 10 0 0 0 1 I I #
point $-1 -1 $-1 10 10 10 #
coedge $-1 -1 $-1 $455 $740 $459 $626 forward $610 $-1 #
convexity-sys-attrib $-1 -1 $-1 $-1 $456 #
straight-curve $-1 -1 $-1 0 20 0 1 0 0 I I #
point $-1 -1 $-1 10 20 0 #
edge $748 -1 $-1 $742 -7.5 $460 2.5 $459 $749 forward @7 unknown #
point $-1 -1 $-1 -10 20 0 #
straight-curve $-1 -1 $-1 -10 17.5 10 0 1 0 I I #
model_id-kcp-attrib $-1 -1 $-1 $-1 $466 1 1021384619 1021384619 -2016608255 9 #
face $750 -1 $-1 $751 $752 $10 $-1 $753 forward single #
loop $-1 -1 $-1 $-1 $754 $466 #
plane-surface $-1 -1 $-1 35 20 5 -1 0 0 0 0 1 forward_v I I I I #
coedge $-1 -1 $-1 $755 $756 $757 $758 reversed $467 $-1 #
coedge $-1 -1 $-1 $759 $469 $756 $760 forward $292 $-1 #
coedge $-1 -1 $-1 $469 $759 $754 $761 reversed $292 $-1 #
coedge $-1 -1 $-1 $762 $757 $469 $637 forward $514 $-1 #
edge $763 -1 $-1 $764 5 $765 20 $636 $766 forward @7 unknown #
coedge $-1 -1 $-1 $767 $470 $768 $769 forward $98 $-1 #
coedge $-1 -1 $-1 $657 $762 $470 $640 reversed $514 $-1 #
edge $-1 -1 $-1 $641 10 $770 35 $639 $677 forward @7 unknown #
vertex $-1 -1 $-1 $658 $771 #
straight-curve $-1 -1 $-1 10 20 20 0 -1 0 I I #
coedge $-1 -1 $-1 $472 $767 $772 $773 forward $98 $-1 #
coedge $-1 -1 $-1 $774 $475 $472 $645 reversed $483 $-1 #
edge $-1 -1 $-1 $775 10 $478 40 $644 $671 forward @7 unknown #
convexity-sys-attrib $-1 -1 $-1 $473 $296 #
attrib_edge_convexity-kcp-attrib $-1 -1 $776 $-1 $476 1 #
straight-curve $-1 -1 $-1 40 -20 0 0 0 -1 I I #
convexity-sys-attrib $-1 -1 $-1 $477 $298 #
point $-1 -1 $-1 40 -20 20 #
face $777 -1 $-1 $-1 $483 $10 $-1 $778 reversed single #
convexity-sys-attrib $-1 -1 $-1 $484 $303 #
straight-curve $-1 -1 $-1 -40 -20 0 0 0 -1 I I #
model_id-kcp-attrib $-1 -1 $-1 $-1 $489 1 1021384619 1021384619 -2016608255 15 #
face $779 -1 $-1 $322 $780 $10 $-1 $502 forward single #
plane-surface $-1 -1 $-1 -40 20 0 1 0 0 0 0 -1 forward_v I I I I #
coedge $-1 -1 $-1 $495 $639 $492 $658 forward $514 $-1 #
edge $-1 -1 $-1 $641 -15 $498 5 $657 $781 forward @7 unknown #
attrib_edge_convexity-kcp-attrib $-1 -1 $782 $-1 $496 1 #
straight-curve $-1 -1 $-1 0 10 0 -1 0 0 I I #
convexity-sys-attrib $-1 -1 $-1 $497 $321 #
point $-1 -1 $-1 10 10 0 #
model_id-kcp-attrib $-1 -1 $-1 $-1 $501 1 1021384619 1021384619 -2016608255 18 #
face $783 -1 $-1 $196 $784 $10 $-1 $342 forward single #
loop $-1 -1 $-1 $-1 $785 $501 #
coedge $-1 -1 $-1 $509 $504 $786 $787 forward $189 $-1 #
coedge $-1 -1 $-1 $788 $789 $504 $668 reversed $784 $-1 #
edge $-1 -1 $-1 $670 -40 $790 -35 $504 $337 forward @7 unknown #
coedge $-1 -1 $-1 $505 $791 $788 $792 forward $483 $-1 #
vertex $-1 -1 $-1 $506 $793 #
straight-curve $-1 -1 $-1 0 -20 20 1 0 0 I I #
point $-1 -1 $-1 -40 -20 20 #
coedge $-1 -1 $-1 $794 $795 $509 $674 reversed $796 $-1 #
edge $-1 -1 $-1 $797 -35 $676 -10 $509 $798 forward @7 unknown #
coedge $-1 -1 $-1 $799 $510 $795 $800 reversed $514 $-1 #
vertex $-1 -1 $-1 $674 $801 #
straight-curve $-1 -1 $-1 0 10 20 1 0 0 I I #
model_id-kcp-attrib $-1 -1 $-1 $-1 $513 1 1021384619 1021384619 -2016608255 22 #
loop $-1 -1 $-1 $-1 $802 $513 #
plane-surface $-1 -1 $-1 0 20 -10 0 0 1 1 0 0 forward_v I I I I #
face $803 -1 $-1 $489 $514 $10 $-1 $804 reversed single #
straight-curve $-1 -1 $-1 -40 20 0 0 0 -1 I I #
point $-1 -1 $-1 -40 -20 -20 #
straight-curve $-1 -1 $-1 -40 0 -20 0 1 0 I I #
point $-1 -1 $-1 -40 20 -20 #
convexity-sys-attrib $-1 -1 $-1 $-1 $540 #
straight-curve $-1 -1 $-1 0 -15 -10 -1 0 0 I I #
point $-1 -1 $-1 -20 -15 -10 #
point $-1 -1 $-1 20 -15 -10 #
convexity-sys-attrib $-1 -1 $-1 $-1 $553 #
straight-curve $-1 -1 $-1 20 8.75 -10 0 -1 0 I I #
convexity-sys-attrib $-1 -1 $-1 $-1 $555 #
straight-curve $-1 -1 $-1 -20 8.75 -10 0 1 0 I I #
coedge $-1 -1 $-1 $570 $565 $561 $695 forward $558 $-1 #
edge $805 -1 $-1 $567 -10 $696 10 $561 $806 forward @7 unknown #
vertex $-1 -1 $-1 $574 $807 #
straight-curve $-1 -1 $-1 -10 -20 0 0 0 1 I I #
point $-1 -1 $-1 -10 -20 10 #
convexity-sys-attrib $-1 -1 $-1 $-1 $566 #
straight-curve $-1 -1 $-1 10 1.25 0 0 -1 0 I I #
point $-1 -1 $-1 10 -20 0 #
convexity-sys-attrib $-1 -1 $-1 $-1 $574 #
straight-curve $-1 -1 $-1 -10 1.25 0 0 1 0 I I #
face $-1 -1 $-1 $808 $809 $33 $-1 $810 forward single #
loop $-1 -1 $-1 $-1 $811 $577 #
plane-surface $-1 -1 $-1 -10 -15 10 0 -1 0 0 0 -1 forward_v I I I I #
coedge $-1 -1 $-1 $812 $813 $814 $815 forward $578 $-1 #
coedge $-1 -1 $-1 $816 $580 $813 $817 reversed $418 $-1 #
coedge $-1 -1 $-1 $580 $816 $581 $713 forward $418 $-1 #
coedge $-1 -1 $-1 $583 $814 $580 $711 reversed $269 $-1 #
edge $-1 -1 $-1 $714 -10 $818 10 $580 $819 forward @7 unknown #
coedge $-1 -1 $-1 $582 $581 $820 $821 reversed $257 $-1 #
edge $-1 -1 $-1 $822 0 $714 10 $709 $823 forward @7 unknown #
vertex $-1 -1 $-1 $713 $824 #
straight-curve $-1 -1 $-1 10 10 20 0 -1 0 I I #
coedge $-1 -1 $-1 $820 $589 $585 $717 forward $595 $-1 #
edge $825 -1 $-1 $591 -35 $718 -10 $585 $826 forward @7 unknown #
vertex $-1 -1 $-1 $717 $827 #
straight-curve $-1 -1 $-1 10 -15 10 0 0 1 I I #
point $-1 -1 $-1 10 -15 20 #
convexity-sys-attrib $-1 -1 $-1 $-1 $590 #
straight-curve $-1 -1 $-1 35 10 10 0 -1 0 I I #
point $-1 -1 $-1 35 -15 10 #
coedge $-1 -1 $-1 $594 $828 $829 $830 forward $595 $-1 #
coedge $-1 -1 $-1 $829 $604 $599 $726 reversed $735 $-1 #
edge $-1 -1 $-1 $728 0 $606 10 $599 $831 forward @7 unknown #
convexity-sys-attrib $-1 -1 $-1 $-1 $600 #
vertex $-1 -1 $-1 $600 $832 #
straight-curve $-1 -1 $-1 10 10 10 0 -1 0 I I #
plane-surface $-1 -1 $-1 10 20 10 1 0 0 0 0 -1 forward_v I I I I #
coedge $-1 -1 $-1 $833 $603 $834 $835 reversed $269 $-1 #
coedge $-1 -1 $-1 $836 $837 $603 $733 forward $838 $-1 #
edge $-1 -1 $-1 $839 0 $736 10 $732 $840 forward @7 unknown #
coedge $-1 -1 $-1 $604 $829 $836 $841 forward $735 $-1 #
loop $-1 -1 $-1 $-1 $604 $842 #
vertex $-1 -1 $-1 $841 $843 #
straight-curve $-1 -1 $-1 0 20 20 1 0 0 I I #
point $-1 -1 $-1 10 20 20 #
plane-surface $-1 -1 $-1 4.4408920985006262e-016 -1.1363636363636367 10 0 0 1 1 0 0 forward_v I I I I #
coedge $-1 -1 $-1 $622 $617 $613 $741 forward $610 $-1 #
edge $844 -1 $-1 $619 -20 $742 0 $613 $845 forward @7 unknown #
vertex $-1 -1 $-1 $626 $846 #
straight-curve $-1 -1 $-1 -10 10 0 0 0 1 I I #
point $-1 -1 $-1 -10 10 10 #
convexity-sys-attrib $-1 -1 $-1 $-1 $618 #
straight-curve $-1 -1 $-1 10 17.5 0 0 -1 0 I I #
point $-1 -1 $-1 10 10 0 #
convexity-sys-attrib $-1 -1 $-1 $-1 $626 #
straight-curve $-1 -1 $-1 -10 17.5 0 0 1 0 I I #
model_id-kcp-attrib $-1 -1 $-1 $-1 $630 1 1021384619 1021384619 -2016608255 10 #
face $847 -1 $-1 $848 $849 $10 $-1 $850 forward single #
loop $-1 -1 $-1 $-1 $851 $630 #
plane-surface $-1 -1 $-1 0 -15 5 0 1 0 0 0 1 forward_v I I I I #
coedge $-1 -1 $-1 $852 $853 $635 $761 forward $631 $-1 #
coedge $-1 -1 $-1 $854 $633 $802 $855 reversed $467 $-1 #
coedge $-1 -1 $-1 $633 $854 $634 $760 reversed $467 $-1 #
coedge $-1 -1 $-1 $636 $856 $633 $758 forward $514 $-1 #
edge $-1 -1 $-1 $857 -10 $764 10 $757 $858 forward @7 unknown #
coedge $-1 -1 $-1 $635 $634 $851 $859 reversed $292 $-1 #
edge $860 -1 $-1 $764 10 $861 35 $756 $862 forward @7 unknown #
edge $863 -1 $-1 $765 10 $864 35 $754 $865 forward @7 unknown #
coedge $-1 -1 $-1 $639 $636 $853 $866 reversed $514 $-1 #
attrib_edge_convexity-kcp-attrib $-1 -1 $867 $-1 $637 2 #
vertex $-1 -1 $-1 $637 $868 #
vertex $-1 -1 $-1 $866 $869 #
straight-curve $-1 -1 $-1 15 10 10 1 0 0 I I #
coedge $-1 -1 $-1 $643 $638 $870 $871 forward $98 $-1 #
coedge $-1 -1 $-1 $853 $852 $638 $769 reversed $631 $-1 #
edge $-1 -1 $-1 $770 10 $872 35 $638 $873 forward @7 unknown #
vertex $-1 -1 $-1 $769 $874 #
point $-1 -1 $-1 10 10 20 #
coedge $-1 -1 $-1 $785 $875 $643 $773 reversed $665 $-1 #
edge $-1 -1 $-1 $876 35 $775 40 $643 $642 forward @7 unknown #
coedge $-1 -1 $-1 $791 $644 $875 $877 forward $483 $-1 #
vertex $-1 -1 $-1 $877 $878 #
convexity-sys-attrib $-1 -1 $-1 $647 $476 #
model_id-kcp-attrib $-1 -1 $-1 $-1 $651 1 1021384619 1021384619 -2016608255 23 #
plane-surface $-1 -1 $-1 0 -20 0 0 1 0 0 0 1 forward_v I I I I #
model_id-kcp-attrib $-1 -1 $-1 $-1 $655 1 1021384619 1021384619 -2016608255 16 #
loop $-1 -1 $-1 $-1 $879 $655 #
straight-curve $-1 -1 $-1 10 10 5 0 0 -1 I I #
convexity-sys-attrib $-1 -1 $-1 $659 $496 #
model_id-kcp-attrib $-1 -1 $-1 $-1 $664 1 1021384619 1021384619 -2016608255 19 #
loop $-1 -1 $-1 $-1 $789 $664 #
coedge $-1 -1 $-1 $880 $772 $881 $882 reversed $665 $-1 #
coedge $-1 -1 $-1 $883 $884 $666 $787 reversed $752 $-1 #
edge $-1 -1 $-1 $790 10 $797 35 $666 $885 forward @7 unknown #
coedge $-1 -1 $-1 $886 $667 $669 $792 reversed $784 $-1 #
coedge $-1 -1 $-1 $667 $886 $883 $887 reversed $784 $-1 #
vertex $-1 -1 $-1 $668 $888 #
coedge $-1 -1 $-1 $669 $774 $889 $890 forward $483 $-1 #
edge $-1 -1 $-1 $891 -5 $670 15 $669 $892 forward @7 unknown #
point $-1 -1 $-1 -10 -20 20 #
coedge $-1 -1 $-1 $893 $673 $884 $894 forward $796 $-1 #
coedge $-1 -1 $-1 $673 $893 $675 $800 forward $796 $-1 #
loop $-1 -1 $-1 $-1 $893 $895 #
vertex $-1 -1 $-1 $787 $896 #
straight-curve $-1 -1 $-1 -35 20 20 0 1 0 I I #
coedge $-1 -1 $-1 $897 $675 $898 $899 forward $514 $-1 #
edge $-1 -1 $-1 $900 7.5 $676 17.5 $795 $901 forward @7 unknown #
point $-1 -1 $-1 -35 10 20 #
coedge $-1 -1 $-1 $902 $903 $755 $855 forward $679 $-1 #
model_id-kcp-attrib $-1 -1 $-1 $-1 $681 1 1021384619 1021384619 -2016608255 14 #
plane-surface $-1 -1 $-1 0 10 0 0 1 0 0 0 1 forward_v I I I I #
convexity-sys-attrib $-1 -1 $-1 $-1 $695 #
straight-curve $-1 -1 $-1 0 -20 0 -1 0 0 I I #
point $-1 -1 $-1 -10 -20 0 #
face $-1 -1 $-1 $904 $905 $33 $-1 $906 forward single #
loop $-1 -1 $-1 $-1 $907 $704 #
plane-surface $-1 -1 $-1 -35 -15 10 -1 0 0 0 0 1 forward_v I I I I #
coedge $-1 -1 $-1 $908 $909 $910 $911 forward $705 $-1 #
coedge $-1 -1 $-1 $912 $707 $909 $913 reversed $578 $-1 #
coedge $-1 -1 $-1 $707 $912 $708 $817 forward $578 $-1 #
coedge $-1 -1 $-1 $710 $910 $707 $815 reversed $269 $-1 #
edge $-1 -1 $-1 $818 -30 $914 -25 $707 $915 forward @7 unknown #
coedge $-1 -1 $-1 $709 $708 $916 $917 reversed $418 $-1 #
edge $-1 -1 $-1 $918 0 $818 10 $813 $919 forward @7 unknown #
vertex $-1 -1 $-1 $817 $920 #
straight-curve $-1 -1 $-1 0 -20 20 -1 0 0 I I #
coedge $-1 -1 $-1 $916 $716 $712 $821 forward $595 $-1 #
edge $921 -1 $-1 $718 25 $822 30 $712 $922 forward @7 unknown #
vertex $-1 -1 $-1 $821 $923 #
straight-curve $-1 -1 $-1 10 -20 10 0 0 1 I I #
point $-1 -1 $-1 10 -20 20 #
convexity-sys-attrib $-1 -1 $-1 $-1 $717 #
straight-curve $-1 -1 $-1 0 -15 10 -1 0 0 I I #
point $-1 -1 $-1 10 -15 10 #
coedge $-1 -1 $-1 $724 $924 $925 $926 forward $595 $-1 #
coedge $-1 -1 $-1 $734 $725 $724 $830 reversed $735 $-1 #
edge $927 -1 $-1 $928 -10 $728 10 $829 $929 forward @7 unknown #
straight-curve $-1 -1 $-1 10 20 10 0 0 1 I I #
point $-1 -1 $-1 10 20 10 #
coedge $-1 -1 $-1 $910 $731 $907 $930 reversed $269 $-1 #
coedge $-1 -1 $-1 $931 $932 $731 $835 forward $905 $-1 #
edge $-1 -1 $-1 $933 -35 $839 -10 $834 $934 forward @7 unknown #
coedge $-1 -1 $-1 $925 $732 $734 $841 reversed $838 $-1 #
coedge $-1 -1 $-1 $732 $925 $931 $935 forward $838 $-1 #
loop $-1 -1 $-1 $-1 $732 $904 #
vertex $-1 -1 $-1 $935 $936 #
straight-curve $-1 -1 $-1 -10 10 20 0 1 0 I I #
edge $-1 -1 $-1 $928 0 $736 10 $734 $937 forward @7 unknown #
face $-1 -1 $-1 $601 $735 $33 $-1 $938 forward single #
point $-1 -1 $-1 -10 20 20 #
convexity-sys-attrib $-1 -1 $-1 $-1 $741 #
straight-curve $-1 -1 $-1 -10 10 0 -1 0 0 I I #
point $-1 -1 $-1 -10 10 0 #
model_id-kcp-attrib $-1 -1 $-1 $-1 $751 1 1021384619 1021384619 -2016608255 11 #
face $939 -1 $-1 $895 $940 $10 $-1 $941 reversed single #
loop $-1 -1 $-1 $-1 $942 $751 #
plane-surface $-1 -1 $-1 -30 20 10 0 0 1 1 0 0 forward_v I I I I #
coedge $-1 -1 $-1 $943 $944 $759 $859 forward $752 $-1 #
coedge $-1 -1 $-1 $768 $754 $944 $945 reversed $631 $-1 #
coedge $-1 -1 $-1 $754 $768 $762 $866 forward $631 $-1 #
coedge $-1 -1 $-1 $756 $755 $943 $946 reversed $467 $-1 #
edge $947 -1 $-1 $948 -35 $857 -10 $802 $949 forward @7 unknown #
coedge $-1 -1 $-1 $757 $897 $902 $950 reversed $514 $-1 #
vertex $-1 -1 $-1 $855 $951 #
straight-curve $-1 -1 $-1 20 10 0 0 0 1 I I #
edge $952 -1 $-1 $864 -20 $861 -5 $851 $953 forward @7 unknown #
attrib_edge_convexity-kcp-attrib $-1 -1 $954 $-1 $760 1 #
vertex $-1 -1 $-1 $859 $955 #
straight-curve $-1 -1 $-1 20 20 10 0 -1 0 I I #
attrib_edge_convexity-kcp-attrib $-1 -1 $956 $-1 $761 2 #
vertex $-1 -1 $-1 $945 $957 #
straight-curve $-1 -1 $-1 35 20 10 0 -1 0 I I #
edge $-1 -1 $-1 $770 -17.5 $765 -7.5 $853 $958 forward @7 unknown #
convexity-sys-attrib $-1 -1 $-1 $763 $637 #
point $-1 -1 $-1 20 10 10 #
point $-1 -1 $-1 35 10 10 #
coedge $-1 -1 $-1 $944 $881 $767 $871 reversed $752 $-1 #
edge $-1 -1 $-1 $872 -35 $876 -10 $767 $885 forward @7 unknown #
vertex $-1 -1 $-1 $871 $959 #
straight-curve $-1 -1 $-1 35 20 20 0 -1 0 I I #
point $-1 -1 $-1 35 10 20 #
coedge $-1 -1 $-1 $772 $880 $774 $877 reversed $665 $-1 #
vertex $-1 -1 $-1 $871 $960 #
edge $-1 -1 $-1 $775 -15 $961 5 $774 $962 forward @7 unknown #
point $-1 -1 $-1 10 -20 20 #
coedge $-1 -1 $-1 $963 $964 $965 $966 reversed $780 $-1 #
coedge $-1 -1 $-1 $875 $785 $964 $967 forward $665 $-1 #
coedge $-1 -1 $-1 $870 $965 $785 $882 forward $752 $-1 #
edge $-1 -1 $-1 $968 -7.5 $876 12.5 $881 $969 forward @7 unknown #
coedge $-1 -1 $-1 $965 $786 $789 $887 forward $752 $-1 #
coedge $-1 -1 $-1 $786 $970 $794 $894 reversed $752 $-1 #
straight-curve $-1 -1 $-1 0 -15 20 -1 0 0 I I #
coedge $-1 -1 $-1 $789 $788 $963 $971 forward $784 $-1 #
edge $-1 -1 $-1 $790 -12.5 $972 7.5 $883 $973 forward @7 unknown #
point $-1 -1 $-1 -10 -15 20 #
coedge $-1 -1 $-1 $964 $963 $791 $890 reversed $780 $-1 #
edge $974 -1 $-1 $961 -10 $891 10 $791 $975 forward @7 unknown #
vertex $-1 -1 $-1 $890 $976 #
straight-curve $-1 -1 $-1 -10 -20 5 0 0 1 I I #
coedge $-1 -1 $-1 $795 $794 $977 $978 forward $796 $-1 #
edge $-1 -1 $-1 $797 -15 $979 -5 $794 $980 forward @7 unknown #
face $981 -1 $-1 $681 $796 $10 $-1 $982 forward single #
point $-1 -1 $-1 -35 -15 20 #
coedge $-1 -1 $-1 $856 $799 $983 $984 forward $514 $-1 #
coedge $-1 -1 $-1 $977 $985 $799 $899 reversed $849 $-1 #
edge $-1 -1 $-1 $900 -20 $986 -5 $799 $987 forward @7 unknown #
vertex $-1 -1 $-1 $899 $988 #
straight-curve $-1 -1 $-1 -35 10 2.5 0 0 1 I I #
coedge $-1 -1 $-1 $989 $802 $856 $950 forward $679 $-1 #
coedge $-1 -1 $-1 $802 $989 $990 $991 reversed $679 $-1 #
face $-1 -1 $-1 $842 $838 $33 $-1 $992 forward single #
loop $-1 -1 $-1 $-1 $834 $808 #
plane-surface $-1 -1 $-1 -35 10 10 0 1 0 0 0 1 forward_v I I I I #
coedge $-1 -1 $-1 $993 $994 $833 $930 forward $809 $-1 #
coedge $-1 -1 $-1 $995 $811 $994 $996 reversed $705 $-1 #
coedge $-1 -1 $-1 $811 $995 $812 $913 forward $705 $-1 #
coedge $-1 -1 $-1 $814 $833 $811 $911 reversed $269 $-1 #
edge $-1 -1 $-1 $914 10 $997 35 $811 $998 forward @7 unknown #
coedge $-1 -1 $-1 $813 $812 $999 $1000 reversed $578 $-1 #
edge $-1 -1 $-1 $1001 0 $914 10 $909 $1002 forward @7 unknown #
vertex $-1 -1 $-1 $913 $1003 #
straight-curve $-1 -1 $-1 -10 10 20 0 1 0 I I #
coedge $-1 -1 $-1 $999 $820 $816 $917 forward $595 $-1 #
edge $1004 -1 $-1 $822 -10 $918 10 $816 $1005 forward @7 unknown #
vertex $-1 -1 $-1 $917 $1006 #
straight-curve $-1 -1 $-1 -10 -20 10 0 0 1 I I #
point $-1 -1 $-1 -10 -20 20 #
convexity-sys-attrib $-1 -1 $-1 $-1 $821 #
straight-curve $-1 -1 $-1 10 10 10 0 -1 0 I I #
point $-1 -1 $-1 10 -20 10 #
coedge $-1 -1 $-1 $828 $1007 $1008 $1009 forward $595 $-1 #
coedge $-1 -1 $-1 $837 $836 $828 $926 reversed $838 $-1 #
edge $1010 -1 $-1 $1011 0 $928 10 $925 $1012 forward @7 unknown #
convexity-sys-attrib $-1 -1 $-1 $-1 $830 #
vertex $-1 -1 $-1 $926 $1013 #
straight-curve $-1 -1 $-1 0 20 10 1 0 0 I I #
edge $-1 -1 $-1 $997 -25 $933 0 $907 $1014 forward @7 unknown #
coedge $-1 -1 $-1 $1008 $834 $837 $935 reversed $905 $-1 #
coedge $-1 -1 $-1 $834 $1008 $993 $1015 forward $905 $-1 #
vertex $-1 -1 $-1 $1015 $1016 #
straight-curve $-1 -1 $-1 0 10 20 1 0 0 I I #
edge $-1 -1 $-1 $1011 0 $839 10 $837 $1017 forward @7 unknown #
point $-1 -1 $-1 -10 10 20 #
straight-curve $-1 -1 $-1 -10 20 10 0 0 1 I I #
plane-surface $-1 -1 $-1 -10 20 10 0 1 0 0 0 1 forward_v I I I I #
model_id-kcp-attrib $-1 -1 $-1 $-1 $848 1 1021384619 1021384619 -2016608255 12 #
loop $-1 -1 $-1 $-1 $1018 $848 #
plane-surface $-1 -1 $-1 -20 20 0 -1 0 0 0 0 1 forward_v I I I I #
coedge $-1 -1 $-1 $985 $977 $970 $1019 reversed $849 $-1 #
coedge $-1 -1 $-1 $990 $851 $854 $946 forward $752 $-1 #
coedge $-1 -1 $-1 $851 $870 $852 $945 forward $752 $-1 #
edge $-1 -1 $-1 $872 -15 $864 -5 $852 $1020 forward @7 unknown #
edge $-1 -1 $-1 $861 -7.5 $948 12.5 $943 $1021 forward @7 unknown #
attrib_edge_convexity-kcp-attrib $-1 -1 $1022 $-1 $855 2 #
vertex $-1 -1 $-1 $855 $1023 #
straight-curve $-1 -1 $-1 20 20 -10 0 1 0 I I #
edge $1024 -1 $-1 $857 -20 $1025 20 $902 $1026 forward @7 unknown #
point $-1 -1 $-1 20 10 -10 #
attrib_edge_convexity-kcp-attrib $-1 -1 $1027 $-1 $859 2 #
straight-curve $-1 -1 $-1 15 -15 10 -1 0 0 I I #
convexity-sys-attrib $-1 -1 $-1 $860 $760 #
point $-1 -1 $-1 20 -15 10 #
convexity-sys-attrib $-1 -1 $-1 $863 $761 #
point $-1 -1 $-1 35 -15 10 #
straight-curve $-1 -1 $-1 35 10 2.5 0 0 -1 I I #
point $-1 -1 $-1 35 -15 20 #
point $-1 -1 $-1 10 -15 20 #
vertex $-1 -1 $-1 $890 $1028 #
straight-curve $-1 -1 $-1 10 -20 5 0 0 -1 I I #
coedge $-1 -1 $-1 $889 $879 $886 $971 reversed $780 $-1 #
coedge $-1 -1 $-1 $879 $889 $880 $967 reversed $780 $-1 #
coedge $-1 -1 $-1 $881 $883 $879 $966 forward $752 $-1 #
edge $1029 -1 $-1 $972 -10 $968 10 $965 $1030 forward @7 unknown #
edge $1031 -1 $-1 $968 35 $961 40 $880 $499 forward @7 unknown #
vertex $-1 -1 $-1 $966 $1032 #
straight-curve $-1 -1 $-1 10 -15 7.5 0 0 1 I I #
coedge $-1 -1 $-1 $884 $1033 $942 $1019 forward $752 $-1 #
edge $1034 -1 $-1 $891 -40 $972 -35 $886 $340 forward @7 unknown #
vertex $-1 -1 $-1 $966 $1035 #
straight-curve $-1 -1 $-1 -10 -15 7.5 0 0 -1 I I #
attrib_edge_convexity-kcp-attrib $-1 -1 $1036 $-1 $890 1 #
straight-curve $-1 -1 $-1 0 -20 0 -1 0 0 I I #
point $-1 -1 $-1 -10 -20 0 #
coedge $-1 -1 $-1 $942 $898 $893 $978 reversed $849 $-1 #
edge $-1 -1 $-1 $979 -35 $900 -10 $893 $1037 forward @7 unknown #
vertex $-1 -1 $-1 $894 $1038 #
straight-curve $-1 -1 $-1 -35 -15 5 0 0 -1 I I #
model_id-kcp-attrib $-1 -1 $-1 $-1 $895 1 1021384619 1021384619 -2016608255 13 #
plane-surface $-1 -1 $-1 -35 20 5 1 0 0 0 0 -1 forward_v I I I I #
coedge $-1 -1 $-1 $1039 $1040 $897 $984 reversed $940 $-1 #
edge $-1 -1 $-1 $986 -10 $1025 10 $897 $1041 forward @7 unknown #
coedge $-1 -1 $-1 $898 $942 $1039 $1042 forward $849 $-1 #
vertex $-1 -1 $-1 $899 $1043 #
straight-curve $-1 -1 $-1 -15 10 10 1 0 0 I I #
point $-1 -1 $-1 -35 10 10 #
coedge $-1 -1 $-1 $903 $902 $1040 $1044 forward $679 $-1 #
coedge $-1 -1 $-1 $1033 $943 $903 $991 forward $752 $-1 #
edge $1045 -1 $-1 $948 -20 $1046 20 $990 $1047 forward @7 unknown #
plane-surface $-1 -1 $-1 -10 10 10 -1 0 0 0 0 1 forward_v I I I I #
coedge $-1 -1 $-1 $1048 $907 $932 $1015 reversed $809 $-1 #
coedge $-1 -1 $-1 $907 $1048 $908 $996 forward $809 $-1 #
coedge $-1 -1 $-1 $909 $908 $1049 $1050 reversed $705 $-1 #
edge $-1 -1 $-1 $1051 0 $997 10 $994 $1052 forward @7 unknown #
vertex $-1 -1 $-1 $996 $1053 #
straight-curve $-1 -1 $-1 0 -15 20 -1 0 0 I I #
coedge $-1 -1 $-1 $1049 $916 $912 $1000 forward $595 $-1 #
edge $1054 -1 $-1 $918 -30 $1001 -25 $912 $1055 forward @7 unknown #
vertex $-1 -1 $-1 $1000 $1056 #
straight-curve $-1 -1 $-1 -10 -15 10 0 0 1 I I #
point $-1 -1 $-1 -10 -15 20 #
convexity-sys-attrib $-1 -1 $-1 $-1 $917 #
straight-curve $-1 -1 $-1 0 -20 10 -1 0 0 I I #
point $-1 -1 $-1 -10 -20 10 #
coedge $-1 -1 $-1 $924 $1049 $1048 $1057 forward $595 $-1 #
coedge $-1 -1 $-1 $932 $931 $924 $1009 reversed $905 $-1 #
edge $1058 -1 $-1 $1059 -35 $1011 -10 $1008 $1060 forward @7 unknown #
convexity-sys-attrib $-1 -1 $-1 $-1 $926 #
vertex $-1 -1 $-1 $1009 $1061 #
straight-curve $-1 -1 $-1 -10 10 10 0 1 0 I I #
point $-1 -1 $-1 -10 20 10 #
straight-curve $-1 -1 $-1 -35 10 20 0 1 0 I I #
edge $-1 -1 $-1 $1059 0 $933 10 $932 $1062 forward @7 unknown #
point $-1 -1 $-1 -35 10 20 #
straight-curve $-1 -1 $-1 -10 10 10 0 0 1 I I #
coedge $-1 -1 $-1 $1040 $1039 $1033 $1063 reversed $940 $-1 #
edge $-1 -1 $-1 $1064 5 $979 20 $970 $1065 forward @7 unknown #
straight-curve $-1 -1 $-1 35 -15 5 0 0 -1 I I #
straight-curve $-1 -1 $-1 20 -15 2.5 0 0 -1 I I #
convexity-sys-attrib $-1 -1 $-1 $947 $855 #
point $-1 -1 $-1 20 -15 -10 #
attrib_edge_convexity-kcp-attrib $-1 -1 $1066 $-1 $950 2 #
vertex $-1 -1 $-1 $950 $1067 #
straight-curve $-1 -1 $-1 0 10 -10 -1 0 0 I I #
convexity-sys-attrib $-1 -1 $-1 $952 $859 #
point $-1 -1 $-1 10 -20 0 #
attrib_edge_convexity-kcp-attrib $-1 -1 $1068 $-1 $966 1 #
straight-curve $-1 -1 $-1 0 -15 0 1 0 0 I I #
attrib_edge_convexity-kcp-attrib $-1 -1 $1069 $-1 $967 2 #
point $-1 -1 $-1 10 -15 0 #
coedge $-1 -1 $-1 $970 $990 $1018 $1063 forward $752 $-1 #
attrib_edge_convexity-kcp-attrib $-1 -1 $1070 $-1 $971 2 #
point $-1 -1 $-1 -10 -15 0 #
convexity-sys-attrib $-1 -1 $-1 $974 $890 #
straight-curve $-1 -1 $-1 -35 20 10 0 1 0 I I #
point $-1 -1 $-1 -35 -15 10 #
coedge $-1 -1 $-1 $1018 $983 $985 $1042 reversed $940 $-1 #
coedge $-1 -1 $-1 $983 $1018 $989 $1044 reversed $940 $-1 #
straight-curve $-1 -1 $-1 -20 10 0 0 0 -1 I I #
edge $-1 -1 $-1 $1064 -35 $986 -10 $1039 $1071 forward @7 unknown #
point $-1 -1 $-1 -20 10 10 #
edge $1072 -1 $-1 $1025 10 $1046 35 $989 $1073 forward @7 unknown #
attrib_edge_convexity-kcp-attrib $-1 -1 $1074 $-1 $991 2 #
vertex $-1 -1 $-1 $991 $1075 #
straight-curve $-1 -1 $-1 0 -15 -10 -1 0 0 I I #
coedge $-1 -1 $-1 $994 $993 $1007 $1057 reversed $809 $-1 #
coedge $-1 -1 $-1 $1007 $999 $995 $1050 forward $595 $-1 #
edge $1076 -1 $-1 $1001 10 $1051 35 $995 $1077 forward @7 unknown #
vertex $-1 -1 $-1 $1050 $1078 #
straight-curve $-1 -1 $-1 -35 -15 10 0 0 1 I I #
point $-1 -1 $-1 -35 -15 20 #
convexity-sys-attrib $-1 -1 $-1 $-1 $1000 #
straight-curve $-1 -1 $-1 -10 10 10 0 1 0 I I #
point $-1 -1 $-1 -10 -15 10 #
edge $1079 -1 $-1 $1051 -25 $1059 0 $1048 $1080 forward @7 unknown #
convexity-sys-attrib $-1 -1 $-1 $-1 $1009 #
vertex $-1 -1 $-1 $1057 $1081 #
straight-curve $-1 -1 $-1 0 10 10 1 0 0 I I #
point $-1 -1 $-1 -10 10 10 #
straight-curve $-1 -1 $-1 -35 10 10 0 0 1 I I #
edge $-1 -1 $-1 $1046 -12.5 $1064 7.5 $1033 $1082 forward @7 unknown #
vertex $-1 -1 $-1 $1019 $1083 #
straight-curve $-1 -1 $-1 -15 -15 10 -1 0 0 I I #
convexity-sys-attrib $-1 -1 $-1 $1024 $950 #
point $-1 -1 $-1 -20 10 -10 #
convexity-sys-attrib $-1 -1 $-1 $1029 $966 #
convexity-sys-attrib $-1 -1 $-1 $1031 $967 #
convexity-sys-attrib $-1 -1 $-1 $1034 $971 #
straight-curve $-1 -1 $-1 -20 20 10 0 1 0 I I #
attrib_edge_convexity-kcp-attrib $-1 -1 $1084 $-1 $1044 2 #
straight-curve $-1 -1 $-1 -20 20 -10 0 -1 0 I I #
convexity-sys-attrib $-1 -1 $-1 $1045 $991 #
point $-1 -1 $-1 -20 -15 -10 #
convexity-sys-attrib $-1 -1 $-1 $-1 $1050 #
straight-curve $-1 -1 $-1 0 -15 10 -1 0 0 I I #
point $-1 -1 $-1 -35 -15 10 #
convexity-sys-attrib $-1 -1 $-1 $-1 $1057 #
straight-curve $-1 -1 $-1 -35 10 10 0 1 0 I I #
point $-1 -1 $-1 -35 10 10 #
straight-curve $-1 -1 $-1 -20 -15 2.5 0 0 1 I I #
point $-1 -1 $-1 -20 -15 10 #
convexity-sys-attrib $-1 -1 $-1 $1072 $1044 #
End-of-ACIS-data 