600 0 1 0           
81 GICL ACIS Healer - Source: /gicl/data5/repository/Heriot_Watt/ex07/ex07.sat - 6 0 18 ACIS 6.0.3 Solaris 24 Sat Apr 13 23:39:11 2002 
1 9.999999999999999547e-07 1.000000000000000036e-10 
body $-1 $1 $-1 $-1 #
lump $-1 $-1 $2 $0 #
shell $-1 $-1 $-1 $3 $-1 $1 #
face $-1 $4 $5 $2 $-1 $6 forward single #
face $-1 $7 $8 $2 $-1 $9 reversed single #
loop $-1 $-1 $10 $3 #
plane-surface $-1 0 20 0 0 1 0 0 0 1 forward_v I I I I #
face $-1 $11 $12 $2 $-1 $13 reversed single #
loop $-1 $-1 $14 $4 #
plane-surface $-1 0 20 -20 0 0 1 1 0 0 forward_v I I I I #
coedge $-1 $15 $16 $17 $18 reversed $5 $-1 #
face $-1 $19 $20 $2 $-1 $21 forward single #
loop $-1 $-1 $22 $7 #
plane-surface $-1 40 20 0 -1 0 0 0 0 1 forward_v I I I I #
coedge $-1 $23 $24 $25 $26 forward $8 $-1 #
coedge $-1 $27 $10 $28 $29 reversed $5 $-1 #
coedge $-1 $10 $30 $31 $32 reversed $5 $-1 #
coedge $-1 $33 $34 $10 $18 forward $35 $-1 #
edge $-1 $36 -5 $37 15 $17 $38 forward 7 unknown #
face $-1 $39 $40 $2 $-1 $41 forward single #
loop $-1 $-1 $42 $11 #
plane-surface $-1 0 20 20 0 0 1 1 0 0 forward_v I I I I #
coedge $-1 $43 $44 $45 $46 forward $12 $-1 #
coedge $-1 $47 $14 $44 $48 forward $8 $-1 #
coedge $-1 $14 $47 $49 $50 forward $8 $-1 #
coedge $-1 $30 $45 $14 $26 reversed $5 $-1 #
edge $-1 $51 -40 $52 40 $14 $53 forward 7 unknown #
coedge $-1 $54 $15 $55 $56 reversed $5 $-1 #
coedge $-1 $57 $58 $15 $29 forward $59 $-1 #
edge $-1 $60 -10 $36 10 $28 $61 forward 7 unknown #
coedge $-1 $16 $25 $62 $63 reversed $5 $-1 #
coedge $-1 $64 $65 $16 $32 forward $66 $-1 #
edge $-1 $37 10 $67 40 $31 $68 forward 7 unknown #
coedge $-1 $69 $17 $65 $70 reversed $35 $-1 #
coedge $-1 $17 $69 $57 $71 forward $35 $-1 #
loop $-1 $-1 $17 $72 #
vertex $-1 $71 $73 #
vertex $-1 $70 $74 #
straight-curve $-1 -10 20 5 0 0 1 I I #
face $-1 $75 $76 $2 $-1 $77 forward single #
loop $-1 $-1 $55 $19 #
plane-surface $-1 10 20 10 -1 0 0 0 0 1 forward_v I I I I #
coedge $-1 $78 $79 $54 $80 forward $20 $-1 #
coedge $-1 $81 $22 $79 $82 reversed $12 $-1 #
coedge $-1 $22 $81 $23 $48 reversed $12 $-1 #
coedge $-1 $25 $54 $22 $46 reversed $5 $-1 #
edge $-1 $52 -20 $83 20 $22 $84 forward 7 unknown #
coedge $-1 $24 $23 $85 $86 forward $8 $-1 #
edge $-1 $52 0 $87 40 $44 $88 forward 7 unknown #
coedge $-1 $89 $62 $24 $50 reversed $90 $-1 #
edge $-1 $91 -40 $51 0 $49 $92 forward 7 unknown #
vertex $-1 $50 $93 #
vertex $-1 $46 $94 #
straight-curve $-1 0 20 -20 1 0 0 I I #
coedge $-1 $45 $27 $42 $80 reversed $5 $-1 #
coedge $-1 $95 $96 $27 $56 forward $40 $-1 #
edge $-1 $97 -15 $60 5 $55 $98 forward 7 unknown #
coedge $-1 $99 $28 $34 $71 reversed $59 $-1 #
coedge $-1 $28 $99 $95 $100 reversed $59 $-1 #
loop $-1 $-1 $28 $101 #
vertex $-1 $29 $102 #
straight-curve $-1 0 20 0 -1 0 0 I I #
coedge $-1 $49 $103 $30 $63 forward $90 $-1 #
edge $-1 $67 -20 $51 20 $62 $104 forward 7 unknown #
coedge $-1 $105 $31 $103 $106 forward $66 $-1 #
coedge $-1 $31 $107 $33 $70 forward $66 $-1 #
loop $-1 $-1 $31 $108 #
vertex $-1 $32 $109 #
straight-curve $-1 0 20 20 -1 0 0 I I #
coedge $-1 $34 $33 $110 $111 reversed $35 $-1 #
edge $-1 $112 -10 $37 0 $65 $113 forward 7 unknown #
edge $-1 $114 -10 $36 0 $34 $115 forward 7 unknown #
face $-1 $108 $35 $2 $-1 $116 forward single #
point $-1 -10 20 0 #
point $-1 -10 20 20 #
face $-1 $117 $118 $2 $-1 $119 reversed single #
loop $-1 $-1 $120 $39 #
plane-surface $-1 30 20 10 0 0 1 1 0 0 forward_v I I I I #
coedge $-1 $121 $42 $96 $122 forward $20 $-1 #
coedge $-1 $42 $123 $43 $82 forward $20 $-1 #
edge $-1 $83 -40 $97 -10 $42 $124 forward 7 unknown #
coedge $-1 $44 $43 $125 $126 forward $12 $-1 #
edge $-1 $127 -40 $83 0 $43 $128 forward 7 unknown #
vertex $-1 $82 $129 #
straight-curve $-1 40 20 0 0 0 1 I I #
coedge $-1 $125 $130 $47 $86 reversed $131 $-1 #
edge $-1 $87 -40 $91 40 $85 $132 forward 7 unknown #
vertex $-1 $126 $133 #
straight-curve $-1 40 20 -20 0 -1 0 I I #
coedge $-1 $103 $49 $130 $134 reversed $90 $-1 #
loop $-1 $-1 $62 $135 #
vertex $-1 $50 $136 #
straight-curve $-1 -40 20 -20 0 1 0 I I #
point $-1 -40 20 -20 #
point $-1 40 20 -20 #
coedge $-1 $137 $55 $58 $100 forward $40 $-1 #
coedge $-1 $55 $137 $78 $122 reversed $40 $-1 #
vertex $-1 $56 $138 #
straight-curve $-1 10 20 5 0 0 -1 I I #
coedge $-1 $58 $57 $139 $140 reversed $59 $-1 #
edge $-1 $60 0 $141 10 $95 $142 forward 7 unknown #
face $-1 $143 $59 $2 $-1 $144 forward single #
point $-1 10 20 0 #
coedge $-1 $62 $89 $64 $106 reversed $90 $-1 #
straight-curve $-1 -40 20 0 0 0 -1 I I #
coedge $-1 $145 $64 $146 $147 forward $66 $-1 #
edge $-1 $67 0 $148 40 $103 $149 forward 7 unknown #
coedge $-1 $65 $150 $151 $152 forward $66 $-1 #
face $-1 $153 $66 $2 $-1 $21 forward single #
point $-1 -40 20 20 #
coedge $-1 $151 $139 $69 $111 forward $154 $-1 #
edge $-1 $114 -5 $112 15 $110 $155 forward 7 unknown #
vertex $-1 $152 $156 #
straight-curve $-1 -10 20 20 0 1 0 I I #
vertex $-1 $140 $157 #
straight-curve $-1 -10 20 0 0 1 0 I I #
plane-surface $-1 -10 20 10 1 0 0 0 0 -1 forward_v I I I I #
face $-1 $158 $159 $2 $-1 $160 forward single #
loop $-1 $-1 $161 $75 #
plane-surface $-1 20 20 0 1 0 0 0 0 -1 forward_v I I I I #
coedge $-1 $162 $163 $164 $165 reversed $76 $-1 #
coedge $-1 $166 $78 $167 $168 forward $20 $-1 #
edge $-1 $97 0 $169 10 $78 $170 forward 7 unknown #
coedge $-1 $79 $171 $172 $173 forward $20 $-1 #
straight-curve $-1 0 20 20 -1 0 0 I I #
coedge $-1 $172 $85 $81 $126 reversed $131 $-1 #
edge $-1 $127 -20 $87 20 $81 $174 forward 7 unknown #
vertex $-1 $82 $175 #
straight-curve $-1 40 20 20 0 1 0 I I #
point $-1 40 20 20 #
coedge $-1 $85 $146 $89 $134 forward $131 $-1 #
loop $-1 $-1 $125 $176 #
straight-curve $-1 0 -20 -20 -1 0 0 I I #
point $-1 40 -20 -20 #
edge $-1 $148 -20 $91 20 $89 $177 forward 7 unknown #
face $-1 $178 $90 $2 $-1 $179 reversed single #
point $-1 -40 -20 -20 #
coedge $-1 $96 $95 $180 $181 reversed $40 $-1 #
point $-1 10 20 20 #
coedge $-1 $110 $180 $99 $140 forward $154 $-1 #
edge $-1 $141 -10 $114 10 $139 $182 forward 7 unknown #
vertex $-1 $140 $183 #
straight-curve $-1 10 20 0 0 -1 0 I I #
face $-1 $184 $185 $2 $-1 $41 forward single #
plane-surface $-1 0 20 0 0 0 1 1 0 0 forward_v I I I I #
coedge $-1 $186 $105 $187 $188 forward $66 $-1 #
coedge $-1 $130 $189 $105 $147 reversed $131 $-1 #
edge $-1 $148 -40 $190 -10 $146 $191 forward 7 unknown #
vertex $-1 $106 $192 #
straight-curve $-1 -40 20 20 0 -1 0 I I #
coedge $-1 $107 $186 $193 $194 forward $66 $-1 #
coedge $-1 $195 $110 $107 $152 reversed $154 $-1 #
edge $-1 $196 -35 $112 -10 $151 $197 forward 7 unknown #
face $-1 $176 $198 $2 $-1 $199 forward single #
loop $-1 $-1 $164 $200 #
straight-curve $-1 -10 10 5 0 0 1 I I #
point $-1 -10 10 20 #
point $-1 -10 10 0 #
face $-1 $201 $202 $2 $-1 $203 forward single #
loop $-1 $-1 $204 $117 #
plane-surface $-1 35 20 5 -1 0 0 0 0 1 forward_v I I I I #
coedge $-1 $205 $206 $207 $208 reversed $118 $-1 #
coedge $-1 $209 $120 $206 $210 forward $76 $-1 #
coedge $-1 $120 $209 $204 $211 reversed $76 $-1 #
coedge $-1 $212 $207 $120 $165 forward $154 $-1 #
edge $-1 $213 5 $214 20 $164 $215 forward 7 unknown #
coedge $-1 $216 $121 $217 $218 forward $20 $-1 #
coedge $-1 $180 $212 $121 $168 reversed $154 $-1 #
edge $-1 $169 10 $219 35 $167 $197 forward 7 unknown #
vertex $-1 $181 $220 #
straight-curve $-1 10 20 20 0 -1 0 I I #
coedge $-1 $123 $216 $221 $222 forward $20 $-1 #
coedge $-1 $223 $125 $123 $173 reversed $131 $-1 #
edge $-1 $224 10 $127 40 $172 $191 forward 7 unknown #
straight-curve $-1 40 -20 0 0 0 -1 I I #
point $-1 40 -20 20 #
face $-1 $-1 $131 $2 $-1 $225 reversed single #
straight-curve $-1 -40 -20 0 0 0 -1 I I #
face $-1 $101 $226 $2 $-1 $144 forward single #
plane-surface $-1 -40 20 0 1 0 0 0 0 -1 forward_v I I I I #
coedge $-1 $139 $167 $137 $181 forward $154 $-1 #
edge $-1 $169 -15 $141 5 $180 $227 forward 7 unknown #
straight-curve $-1 0 10 0 -1 0 0 I I #
point $-1 10 10 0 #
face $-1 $72 $228 $2 $-1 $116 forward single #
loop $-1 $-1 $229 $143 #
coedge $-1 $150 $145 $230 $231 forward $66 $-1 #
coedge $-1 $232 $233 $145 $188 reversed $228 $-1 #
edge $-1 $190 -40 $234 -35 $145 $113 forward 7 unknown #
coedge $-1 $146 $235 $232 $236 forward $131 $-1 #
vertex $-1 $147 $237 #
straight-curve $-1 0 -20 20 1 0 0 I I #
point $-1 -40 -20 20 #
coedge $-1 $238 $239 $150 $194 reversed $240 $-1 #
edge $-1 $241 -35 $196 -10 $150 $242 forward 7 unknown #
coedge $-1 $243 $151 $239 $244 reversed $154 $-1 #
vertex $-1 $194 $245 #
straight-curve $-1 0 10 20 1 0 0 I I #
loop $-1 $-1 $246 $153 #
plane-surface $-1 0 20 -10 0 0 1 1 0 0 forward_v I I I I #
face $-1 $135 $154 $2 $-1 $247 reversed single #
face $-1 $248 $249 $2 $-1 $250 forward single #
loop $-1 $-1 $251 $158 #
plane-surface $-1 0 -15 5 0 1 0 0 0 1 forward_v I I I I #
coedge $-1 $252 $253 $163 $211 forward $159 $-1 #
coedge $-1 $254 $161 $246 $255 reversed $118 $-1 #
coedge $-1 $161 $254 $162 $210 reversed $118 $-1 #
coedge $-1 $164 $256 $161 $208 forward $154 $-1 #
edge $-1 $257 -10 $213 10 $207 $258 forward 7 unknown #
coedge $-1 $163 $162 $251 $259 reversed $76 $-1 #
edge $-1 $213 10 $260 35 $206 $261 forward 7 unknown #
edge $-1 $214 10 $262 35 $204 $263 forward 7 unknown #
coedge $-1 $167 $164 $253 $264 reversed $154 $-1 #
vertex $-1 $165 $265 #
vertex $-1 $264 $266 #
straight-curve $-1 15 10 10 1 0 0 I I #
coedge $-1 $171 $166 $267 $268 forward $20 $-1 #
coedge $-1 $253 $252 $166 $218 reversed $159 $-1 #
edge $-1 $219 10 $269 35 $166 $270 forward 7 unknown #
vertex $-1 $218 $271 #
point $-1 10 10 20 #
coedge $-1 $229 $272 $171 $222 reversed $185 $-1 #
edge $-1 $273 35 $224 40 $171 $170 forward 7 unknown #
coedge $-1 $235 $172 $272 $274 forward $131 $-1 #
vertex $-1 $274 $275 #
plane-surface $-1 0 -20 0 0 1 0 0 0 1 forward_v I I I I #
loop $-1 $-1 $276 $178 #
straight-curve $-1 10 10 5 0 0 -1 I I #
loop $-1 $-1 $233 $184 #
coedge $-1 $277 $221 $278 $279 reversed $185 $-1 #
coedge $-1 $280 $281 $186 $231 reversed $202 $-1 #
edge $-1 $234 10 $241 35 $186 $282 forward 7 unknown #
coedge $-1 $283 $187 $189 $236 reversed $228 $-1 #
coedge $-1 $187 $283 $280 $284 reversed $228 $-1 #
vertex $-1 $188 $285 #
coedge $-1 $189 $223 $286 $287 forward $131 $-1 #
edge $-1 $288 -5 $190 15 $189 $289 forward 7 unknown #
point $-1 -10 -20 20 #
coedge $-1 $290 $193 $281 $291 forward $240 $-1 #
coedge $-1 $193 $290 $195 $244 forward $240 $-1 #
loop $-1 $-1 $290 $292 #
vertex $-1 $231 $293 #
straight-curve $-1 -35 20 20 0 1 0 I I #
coedge $-1 $294 $195 $295 $296 forward $154 $-1 #
edge $-1 $297 7.5 $196 17.5 $239 $298 forward 7 unknown #
point $-1 -35 10 20 #
coedge $-1 $299 $300 $205 $255 forward $198 $-1 #
plane-surface $-1 0 10 0 0 1 0 0 0 1 forward_v I I I I #
face $-1 $292 $301 $2 $-1 $302 reversed single #
loop $-1 $-1 $303 $201 #
plane-surface $-1 -30 20 10 0 0 1 1 0 0 forward_v I I I I #
coedge $-1 $304 $305 $209 $259 forward $202 $-1 #
coedge $-1 $217 $204 $305 $306 reversed $159 $-1 #
coedge $-1 $204 $217 $212 $264 forward $159 $-1 #
coedge $-1 $206 $205 $304 $307 reversed $118 $-1 #
edge $-1 $308 -35 $257 -10 $246 $309 forward 7 unknown #
coedge $-1 $207 $294 $299 $310 reversed $154 $-1 #
vertex $-1 $255 $311 #
straight-curve $-1 20 10 0 0 0 1 I I #
edge $-1 $262 -20 $260 -5 $251 $312 forward 7 unknown #
vertex $-1 $259 $313 #
straight-curve $-1 20 20 10 0 -1 0 I I #
vertex $-1 $306 $314 #
straight-curve $-1 35 20 10 0 -1 0 I I #
edge $-1 $219 -17.5 $214 -7.5 $253 $315 forward 7 unknown #
point $-1 20 10 10 #
point $-1 35 10 10 #
coedge $-1 $305 $278 $216 $268 reversed $202 $-1 #
edge $-1 $269 -35 $273 -10 $216 $282 forward 7 unknown #
vertex $-1 $268 $316 #
straight-curve $-1 35 20 20 0 -1 0 I I #
point $-1 35 10 20 #
coedge $-1 $221 $277 $223 $274 reversed $185 $-1 #
vertex $-1 $268 $317 #
edge $-1 $224 -15 $318 5 $223 $319 forward 7 unknown #
point $-1 10 -20 20 #
coedge $-1 $320 $321 $322 $323 reversed $226 $-1 #
coedge $-1 $272 $229 $321 $324 forward $185 $-1 #
coedge $-1 $267 $322 $229 $279 forward $202 $-1 #
edge $-1 $325 -7.5 $273 12.5 $278 $326 forward 7 unknown #
coedge $-1 $322 $230 $233 $284 forward $202 $-1 #
coedge $-1 $230 $327 $238 $291 reversed $202 $-1 #
straight-curve $-1 0 -15 20 -1 0 0 I I #
coedge $-1 $233 $232 $320 $328 forward $228 $-1 #
edge $-1 $234 -12.5 $329 7.5 $280 $330 forward 7 unknown #
point $-1 -10 -15 20 #
coedge $-1 $321 $320 $235 $287 reversed $226 $-1 #
edge $-1 $318 -10 $288 10 $235 $331 forward 7 unknown #
vertex $-1 $287 $332 #
straight-curve $-1 -10 -20 5 0 0 1 I I #
coedge $-1 $239 $238 $333 $334 forward $240 $-1 #
edge $-1 $241 -15 $335 -5 $238 $336 forward 7 unknown #
face $-1 $200 $240 $2 $-1 $337 forward single #
point $-1 -35 -15 20 #
coedge $-1 $256 $243 $338 $339 forward $154 $-1 #
coedge $-1 $333 $340 $243 $296 reversed $249 $-1 #
edge $-1 $297 -20 $341 -5 $243 $342 forward 7 unknown #
vertex $-1 $296 $343 #
straight-curve $-1 -35 10 2.5 0 0 1 I I #
coedge $-1 $344 $246 $256 $310 forward $198 $-1 #
coedge $-1 $246 $344 $345 $346 reversed $198 $-1 #
loop $-1 $-1 $347 $248 #
plane-surface $-1 -20 20 0 -1 0 0 0 0 1 forward_v I I I I #
coedge $-1 $340 $333 $327 $348 reversed $249 $-1 #
coedge $-1 $345 $251 $254 $307 forward $202 $-1 #
coedge $-1 $251 $267 $252 $306 forward $202 $-1 #
edge $-1 $269 -15 $262 -5 $252 $349 forward 7 unknown #
edge $-1 $260 -7.5 $308 12.5 $304 $350 forward 7 unknown #
vertex $-1 $255 $351 #
straight-curve $-1 20 20 -10 0 1 0 I I #
edge $-1 $257 -20 $352 20 $299 $353 forward 7 unknown #
point $-1 20 10 -10 #
straight-curve $-1 15 -15 10 -1 0 0 I I #
point $-1 20 -15 10 #
point $-1 35 -15 10 #
straight-curve $-1 35 10 2.5 0 0 -1 I I #
point $-1 35 -15 20 #
point $-1 10 -15 20 #
vertex $-1 $287 $354 #
straight-curve $-1 10 -20 5 0 0 -1 I I #
coedge $-1 $286 $276 $283 $328 reversed $226 $-1 #
coedge $-1 $276 $286 $277 $324 reversed $226 $-1 #
coedge $-1 $278 $280 $276 $323 forward $202 $-1 #
edge $-1 $329 -10 $325 10 $322 $355 forward 7 unknown #
edge $-1 $325 35 $318 40 $277 $142 forward 7 unknown #
vertex $-1 $323 $356 #
straight-curve $-1 10 -15 7.5 0 0 1 I I #
coedge $-1 $281 $357 $303 $348 forward $202 $-1 #
edge $-1 $288 -40 $329 -35 $283 $115 forward 7 unknown #
vertex $-1 $323 $358 #
straight-curve $-1 -10 -15 7.5 0 0 -1 I I #
straight-curve $-1 0 -20 0 -1 0 0 I I #
point $-1 -10 -20 0 #
coedge $-1 $303 $295 $290 $334 reversed $249 $-1 #
edge $-1 $335 -35 $297 -10 $290 $359 forward 7 unknown #
vertex $-1 $291 $360 #
straight-curve $-1 -35 -15 5 0 0 -1 I I #
plane-surface $-1 -35 20 5 1 0 0 0 0 -1 forward_v I I I I #
coedge $-1 $361 $362 $294 $339 reversed $301 $-1 #
edge $-1 $341 -10 $352 10 $294 $363 forward 7 unknown #
coedge $-1 $295 $303 $361 $364 forward $249 $-1 #
vertex $-1 $296 $365 #
straight-curve $-1 -15 10 10 1 0 0 I I #
point $-1 -35 10 10 #
coedge $-1 $300 $299 $362 $366 forward $198 $-1 #
coedge $-1 $357 $304 $300 $346 forward $202 $-1 #
edge $-1 $308 -20 $367 20 $345 $368 forward 7 unknown #
coedge $-1 $362 $361 $357 $369 reversed $301 $-1 #
edge $-1 $370 5 $335 20 $327 $371 forward 7 unknown #
straight-curve $-1 35 -15 5 0 0 -1 I I #
straight-curve $-1 20 -15 2.5 0 0 -1 I I #
point $-1 20 -15 -10 #
vertex $-1 $310 $372 #
straight-curve $-1 0 10 -10 -1 0 0 I I #
point $-1 10 -20 0 #
straight-curve $-1 0 -15 0 1 0 0 I I #
point $-1 10 -15 0 #
coedge $-1 $327 $345 $347 $369 forward $202 $-1 #
point $-1 -10 -15 0 #
straight-curve $-1 -35 20 10 0 1 0 I I #
point $-1 -35 -15 10 #
coedge $-1 $347 $338 $340 $364 reversed $301 $-1 #
coedge $-1 $338 $347 $344 $366 reversed $301 $-1 #
straight-curve $-1 -20 10 0 0 0 -1 I I #
edge $-1 $370 -35 $341 -10 $361 $373 forward 7 unknown #
point $-1 -20 10 10 #
edge $-1 $352 10 $367 35 $344 $374 forward 7 unknown #
vertex $-1 $346 $375 #
straight-curve $-1 0 -15 -10 -1 0 0 I I #
edge $-1 $367 -12.5 $370 7.5 $357 $376 forward 7 unknown #
vertex $-1 $348 $377 #
straight-curve $-1 -15 -15 10 -1 0 0 I I #
point $-1 -20 10 -10 #
straight-curve $-1 -20 20 10 0 1 0 I I #
straight-curve $-1 -20 20 -10 0 -1 0 I I #
point $-1 -20 -15 -10 #
straight-curve $-1 -20 -15 2.5 0 0 1 I I #
point $-1 -20 -15 10 #
End-of-ACIS-data 