600 0 2 0           
24 FBMach with ACIS - 6.0.3 13 ACIS 6.0.3 NT 24 Wed May 23 20:25:42 2001 
1 9.9999999999999995e-007 1e-010 
body $2 $3 $-1 $4 #
bdycol-kcp $-1 1 5 $5 $6 $7 $8 $9 #
model_id-kcp-attrib $-1 $-1 $-1 $0 1 990663941 80 2052063233 1 #
lump $-1 $-1 $10 $0 #
transform $-1 1 0 0 0 1 0 0 0 1 0 20 0 1 rotate no_reflect no_shear #
body $11 $12 $-1 $13 #
body $14 $15 $-1 $16 #
body $17 $18 $-1 $19 #
body $20 $21 $-1 $22 #
body $23 $24 $-1 $25 #
shell $-1 $-1 $-1 $26 $-1 $3 #
model_id-kcp-attrib $-1 $-1 $-1 $5 1 990663941 80 2052063234 1 #
lump $-1 $-1 $27 $5 #
transform $-1 1 0 0 0 1 0 0 0 1 0 0 0 1 no_rotate no_reflect no_shear #
rgb_color-st-attrib $-1 $28 $-1 $6 1 0 0 #
lump $-1 $-1 $29 $6 #
transform $-1 1 0 0 0 1 0 0 0 1 0 0 0 1 no_rotate no_reflect no_shear #
rgb_color-st-attrib $-1 $30 $-1 $7 1 0 0 #
lump $-1 $-1 $31 $7 #
transform $-1 1 0 0 0 1 0 0 0 1 0 -17.5 97.979589711327122 1 no_rotate no_reflect no_shear #
rgb_color-st-attrib $-1 $32 $-1 $8 1 0 0 #
lump $-1 $-1 $33 $8 #
transform $-1 1 0 0 0 1 0 0 0 1 0 0 0 1 no_rotate no_reflect no_shear #
rgb_color-st-attrib $-1 $34 $-1 $9 0.59999999999999998 0.90000000000000002 1 #
lump $-1 $-1 $35 $9 #
transform $-1 1 0 0 0 1 0 0 0 1 0 0 0 1 no_rotate no_reflect no_shear #
face $36 $37 $38 $10 $-1 $39 forward single #
shell $-1 $-1 $-1 $40 $-1 $12 #
model_id-kcp-attrib $-1 $-1 $14 $6 1 990663941 380 2054946819 1 #
shell $-1 $-1 $-1 $41 $-1 $15 #
model_id-kcp-attrib $-1 $-1 $17 $7 1 990663941 500 2062811140 1 #
shell $-1 $-1 $-1 $42 $-1 $18 #
model_id-kcp-attrib $-1 $-1 $20 $8 1 990663941 721 2060517381 1 #
shell $-1 $-1 $-1 $43 $-1 $21 #
model_id-kcp-attrib $-1 $-1 $23 $9 1 990663941 961 2059468806 1 #
shell $-1 $-1 $-1 $44 $-1 $24 #
model_id-kcp-attrib $-1 $-1 $-1 $26 1 990663941 80 2052063233 2 #
face $45 $46 $47 $10 $-1 $48 reversed single #
loop $-1 $-1 $49 $26 #
plane-surface $-1 0 0 0 0 1 0 0 0 1 forward_v I I I I #
face $50 $51 $52 $27 $-1 $53 forward single #
face $-1 $54 $55 $29 $-1 $56 forward single #
face $-1 $57 $58 $31 $-1 $59 forward single #
face $-1 $60 $61 $33 $-1 $62 forward single #
face $-1 $63 $64 $35 $-1 $65 forward single #
model_id-kcp-attrib $-1 $-1 $-1 $37 1 990663941 80 2052063233 3 #
face $66 $67 $68 $10 $-1 $69 reversed single #
loop $-1 $-1 $70 $37 #
plane-surface $-1 0 0 -20 0 0 1 1 0 0 forward_v I I I I #
coedge $-1 $71 $72 $73 $74 reversed $38 $-1 #
model_id-kcp-attrib $-1 $75 $-1 $40 1 990663941 80 2052063234 7 #
face $76 $77 $78 $27 $-1 $79 reversed single #
loop $-1 $-1 $80 $40 #
plane-surface $-1 0 0 20 0 0 1 1 0 0 forward_v I I I I #
face $-1 $81 $82 $29 $-1 $83 forward single #
loop $-1 $-1 $84 $41 #
plane-surface $-1 -20 10 -10 0 1 0 0 0 1 forward_v I I I I #
face $-1 $85 $86 $31 $-1 $87 reversed single #
loop $-1 $-1 $88 $42 #
plane-surface $-1 0 0 -87.979589711327122 0 0 1 1 0 0 forward_v I I I I #
face $-1 $89 $90 $33 $-1 $91 forward single #
loop $-1 $-1 $92 $43 #
plane-surface $-1 -10 20 0 0 1 0 0 0 1 forward_v I I I I #
face $-1 $93 $94 $35 $-1 $95 forward single #
loop $-1 $-1 $96 $44 #
plane-surface $-1 10 10 10 0 1 0 0 0 1 forward_v I I I I #
model_id-kcp-attrib $-1 $-1 $-1 $46 1 990663941 80 2052063233 4 #
face $97 $98 $99 $10 $-1 $100 forward single #
loop $-1 $-1 $101 $46 #
plane-surface $-1 40 0 0 -1 0 0 0 0 1 forward_v I I I I #
coedge $-1 $102 $103 $104 $105 forward $47 $-1 #
coedge $-1 $106 $49 $107 $108 reversed $38 $-1 #
coedge $-1 $49 $109 $110 $111 reversed $38 $-1 #
coedge $-1 $112 $113 $49 $74 forward $114 $-1 #
edge $115 $116 -5 $117 15 $73 $118 forward 7 unknown #
model_id-kcp-attrib $-1 $-1 $50 $40 1 990663941 80 2052063234 5 #
model_id-kcp-attrib $-1 $-1 $-1 $51 1 990663941 80 2052063234 3 #
face $119 $120 $121 $27 $-1 $122 reversed single #
loop $-1 $-1 $123 $51 #
plane-surface $-1 0 0 -20 0 0 1 1 0 0 forward_v I I I I #
coedge $-1 $124 $125 $126 $127 forward $52 $-1 #
face $-1 $128 $129 $29 $-1 $130 forward single #
loop $-1 $-1 $131 $54 #
plane-surface $-1 20 -15 -10 0 -1 0 0 0 -1 forward_v I I I I #
coedge $-1 $132 $133 $134 $135 forward $55 $-1 #
face $-1 $136 $137 $31 $-1 $138 reversed single #
loop $-1 $-1 $139 $57 #
plane-surface $-1 0 -2.5 -97.979589711327122 0 1 0 0 0 1 forward_v I I I I #
coedge $-1 $140 $141 $142 $143 forward $58 $-1 #
face $-1 $144 $145 $33 $-1 $146 forward single #
loop $-1 $-1 $147 $60 #
plane-surface $-1 10 20 0 1 0 0 0 0 -1 forward_v I I I I #
coedge $-1 $148 $149 $150 $151 forward $61 $-1 #
face $-1 $152 $153 $35 $-1 $154 forward single #
loop $-1 $-1 $155 $63 #
plane-surface $-1 35 10 10 1 0 0 0 0 -1 forward_v I I I I #
coedge $-1 $156 $157 $158 $159 forward $64 $-1 #
model_id-kcp-attrib $-1 $-1 $-1 $67 1 990663941 80 2052063233 5 #
face $160 $161 $162 $10 $-1 $163 forward single #
loop $-1 $-1 $164 $67 #
plane-surface $-1 0 0 20 0 0 1 1 0 0 forward_v I I I I #
coedge $-1 $165 $166 $167 $168 forward $68 $-1 #
coedge $-1 $169 $70 $166 $170 forward $47 $-1 #
coedge $-1 $70 $169 $171 $172 forward $47 $-1 #
coedge $-1 $109 $167 $70 $105 reversed $38 $-1 #
edge $173 $174 -40 $175 40 $70 $176 forward 7 unknown #
coedge $-1 $177 $71 $178 $179 reversed $38 $-1 #
coedge $-1 $180 $181 $71 $108 forward $182 $-1 #
edge $183 $184 -10 $116 10 $107 $185 forward 7 unknown #
coedge $-1 $72 $104 $186 $187 reversed $38 $-1 #
coedge $-1 $188 $189 $72 $111 forward $190 $-1 #
edge $191 $117 10 $192 40 $110 $193 forward 7 unknown #
coedge $-1 $194 $73 $189 $195 reversed $114 $-1 #
coedge $-1 $73 $194 $180 $196 forward $114 $-1 #
loop $-1 $-1 $73 $197 #
attrib_edge_convexity-kcp-attrib $-1 $198 $-1 $74 1 #
vertex $-1 $196 $199 #
vertex $-1 $195 $200 #
straight-curve $-1 -10 0 5 0 0 1 I I #
model_id-kcp-attrib $-1 $-1 $-1 $77 1 990663941 80 2052063234 8 #
face $201 $202 $203 $27 $-1 $204 reversed single #
loop $-1 $-1 $205 $77 #
plane-surface $-1 0 -20 0 0 1 0 0 0 1 forward_v I I I I #
coedge $-1 $206 $207 $208 $209 forward $78 $-1 #
coedge $-1 $210 $80 $211 $212 forward $52 $-1 #
coedge $-1 $80 $210 $213 $214 forward $52 $-1 #
coedge $-1 $215 $216 $80 $127 reversed $217 $-1 #
edge $-1 $218 -20 $219 20 $126 $220 forward 7 unknown #
face $-1 $221 $222 $29 $-1 $223 forward single #
loop $-1 $-1 $224 $81 #
plane-surface $-1 -20 -15 -10 -1 0 0 0 0 1 forward_v I I I I #
coedge $-1 $225 $226 $227 $228 forward $82 $-1 #
coedge $-1 $229 $84 $230 $231 reversed $55 $-1 #
coedge $-1 $84 $229 $232 $233 forward $55 $-1 #
coedge $-1 $234 $235 $84 $135 reversed $236 $-1 #
edge $-1 $237 -20 $238 20 $84 $239 forward 7 unknown #
face $-1 $240 $241 $31 $-1 $242 reversed single #
loop $-1 $-1 $243 $85 #
plane-surface $-1 20 2.5 -107.97958971132712 0 -1 0 0 0 -1 forward_v I I I I #
coedge $-1 $244 $245 $246 $247 reversed $86 $-1 #
coedge $-1 $246 $88 $248 $249 forward $58 $-1 #
coedge $-1 $88 $246 $250 $251 forward $58 $-1 #
coedge $-1 $243 $252 $88 $143 reversed $137 $-1 #
edge $253 $254 -10 $255 10 $142 $256 forward 7 unknown #
face $-1 $257 $258 $33 $-1 $259 forward single #
loop $-1 $-1 $260 $89 #
plane-surface $-1 10 10 0 0 -1 0 0 0 -1 forward_v I I I I #
coedge $-1 $261 $262 $263 $264 forward $90 $-1 #
coedge $-1 $265 $92 $262 $266 reversed $61 $-1 #
coedge $-1 $92 $265 $267 $268 forward $61 $-1 #
coedge $-1 $269 $263 $92 $151 reversed $270 $-1 #
edge $-1 $271 -10 $272 10 $92 $273 forward 7 unknown #
face $-1 $274 $275 $35 $-1 $276 forward single #
loop $-1 $-1 $277 $93 #
plane-surface $-1 35 -15 10 0 -1 0 0 0 -1 forward_v I I I I #
coedge $-1 $278 $279 $280 $281 forward $94 $-1 #
coedge $-1 $282 $96 $279 $283 reversed $64 $-1 #
coedge $-1 $96 $282 $284 $285 forward $64 $-1 #
coedge $-1 $286 $280 $96 $159 reversed $287 $-1 #
edge $-1 $288 10 $289 35 $96 $290 forward 7 unknown #
model_id-kcp-attrib $-1 $-1 $-1 $98 1 990663941 80 2052063233 6 #
face $291 $292 $293 $10 $-1 $294 forward single #
loop $-1 $-1 $178 $98 #
plane-surface $-1 10 0 10 -1 0 0 0 0 1 forward_v I I I I #
coedge $-1 $295 $296 $177 $297 forward $99 $-1 #
coedge $-1 $298 $101 $296 $299 reversed $68 $-1 #
coedge $-1 $101 $298 $102 $170 reversed $68 $-1 #
coedge $-1 $104 $177 $101 $168 reversed $38 $-1 #
edge $300 $175 -20 $301 20 $101 $302 forward 7 unknown #
coedge $-1 $103 $102 $303 $304 forward $47 $-1 #
edge $305 $175 0 $306 40 $166 $307 forward 7 unknown #
coedge $-1 $308 $186 $103 $172 reversed $309 $-1 #
edge $310 $311 -40 $174 0 $171 $312 forward 7 unknown #
attrib_edge_convexity-kcp-attrib $-1 $313 $-1 $105 1 #
vertex $-1 $172 $314 #
vertex $-1 $168 $315 #
straight-curve $-1 0 0 -20 1 0 0 I I #
coedge $-1 $167 $106 $164 $297 reversed $38 $-1 #
coedge $-1 $316 $317 $106 $179 forward $162 $-1 #
edge $318 $319 -15 $184 5 $178 $320 forward 7 unknown #
coedge $-1 $321 $107 $113 $196 reversed $182 $-1 #
coedge $-1 $107 $321 $316 $322 reversed $182 $-1 #
loop $-1 $-1 $107 $323 #
attrib_edge_convexity-kcp-attrib $-1 $324 $-1 $108 1 #
vertex $-1 $108 $325 #
straight-curve $-1 0 0 0 -1 0 0 I I #
coedge $-1 $171 $326 $109 $187 forward $309 $-1 #
edge $327 $192 -20 $174 20 $186 $328 forward 7 unknown #
coedge $-1 $329 $110 $326 $330 forward $190 $-1 #
coedge $-1 $110 $331 $112 $195 forward $190 $-1 #
loop $-1 $-1 $110 $332 #
attrib_edge_convexity-kcp-attrib $-1 $333 $-1 $111 1 #
vertex $-1 $111 $334 #
straight-curve $-1 0 0 20 -1 0 0 I I #
coedge $-1 $113 $112 $335 $336 reversed $114 $-1 #
edge $-1 $337 -10 $117 0 $189 $338 forward 7 unknown #
edge $-1 $339 -10 $116 0 $113 $340 forward 7 unknown #
face $341 $332 $114 $10 $-1 $342 forward single #
convexity-sys-attrib $-1 $-1 $115 $74 #
point $-1 -10 0 0 #
point $-1 -10 0 20 #
model_id-kcp-attrib $-1 $-1 $-1 $120 1 990663941 80 2052063234 6 #
face $343 $344 $345 $27 $-1 $346 reversed single #
loop $-1 $-1 $347 $120 #
plane-surface $-1 -40 0 0 1 0 0 0 0 -1 forward_v I I I I #
coedge $-1 $348 $213 $349 $350 forward $121 $-1 #
coedge $-1 $351 $123 $348 $352 forward $78 $-1 #
coedge $-1 $123 $351 $353 $354 forward $78 $-1 #
coedge $-1 $216 $215 $123 $209 reversed $217 $-1 #
edge $-1 $355 -20 $356 20 $208 $357 forward 7 unknown #
coedge $-1 $125 $124 $358 $359 forward $52 $-1 #
coedge $-1 $360 $361 $124 $212 reversed $345 $-1 #
edge $-1 $219 -40 $362 40 $211 $363 forward 7 unknown #
coedge $-1 $205 $364 $125 $214 reversed $121 $-1 #
edge $-1 $365 -40 $218 40 $213 $366 forward 7 unknown #
coedge $-1 $208 $126 $364 $367 forward $217 $-1 #
coedge $-1 $126 $208 $360 $368 reversed $217 $-1 #
loop $-1 $-1 $215 $344 #
vertex $-1 $127 $369 #
vertex $-1 $127 $370 #
straight-curve $-1 40 0 20 0 1 0 I I #
face $-1 $371 $236 $29 $-1 $372 forward single #
loop $-1 $-1 $373 $128 #
plane-surface $-1 20 10 -10 1 0 0 0 0 -1 forward_v I I I I #
coedge $-1 $232 $374 $234 $375 forward $129 $-1 #
coedge $-1 $376 $131 $374 $377 reversed $82 $-1 #
coedge $-1 $131 $376 $378 $379 forward $82 $-1 #
coedge $-1 $235 $234 $131 $228 reversed $236 $-1 #
edge $-1 $380 -20 $381 20 $131 $382 forward 7 unknown #
coedge $-1 $133 $132 $383 $384 reversed $55 $-1 #
coedge $-1 $373 $385 $132 $231 forward $222 $-1 #
edge $386 $387 0 $238 20 $230 $388 forward 7 unknown #
coedge $-1 $389 $224 $133 $233 reversed $129 $-1 #
edge $390 $391 0 $237 20 $133 $392 forward 7 unknown #
coedge $-1 $227 $134 $224 $375 reversed $236 $-1 #
coedge $-1 $134 $227 $373 $393 reversed $236 $-1 #
loop $-1 $-1 $227 $221 #
vertex $-1 $233 $394 #
vertex $-1 $231 $395 #
straight-curve $-1 0 10 10 1 0 0 I I #
face $-1 $396 $397 $31 $-1 $398 reversed single #
loop $-1 $-1 $399 $136 #
plane-surface $-1 0 0 -97.979589711327122 0 0 1 1 0 0 forward_v I I I I #
coedge $-1 $400 $142 $401 $402 forward $137 $-1 #
coedge $-1 $403 $139 $404 $405 forward $86 $-1 #
coedge $-1 $139 $403 $406 $407 forward $86 $-1 #
coedge $-1 $141 $140 $139 $247 forward $58 $-1 #
edge $-1 $408 -10 $409 10 $139 $410 forward 7 unknown #
coedge $-1 $411 $404 $140 $249 reversed $412 $-1 #
edge $-1 $255 -2.5 $408 2.5 $248 $413 forward 7 unknown #
coedge $-1 $406 $401 $141 $251 reversed $397 $-1 #
edge $-1 $409 -2.5 $254 2.5 $250 $414 forward 7 unknown #
coedge $-1 $142 $400 $411 $415 forward $137 $-1 #
convexity-sys-attrib $-1 $-1 $-1 $143 #
vertex $-1 $251 $416 #
vertex $-1 $249 $417 #
straight-curve $-1 0 2.5 -87.979589711327122 -1 0 0 I I #
face $-1 $418 $270 $33 $-1 $419 forward single #
loop $-1 $-1 $420 $144 #
plane-surface $-1 -10 10 0 -1 0 0 0 0 1 forward_v I I I I #
coedge $-1 $421 $422 $423 $424 forward $145 $-1 #
coedge $-1 $425 $147 $422 $426 reversed $90 $-1 #
coedge $-1 $147 $425 $148 $266 forward $90 $-1 #
coedge $-1 $150 $423 $147 $264 reversed $270 $-1 #
edge $-1 $272 -2.5 $427 7.5 $147 $428 forward 7 unknown #
coedge $-1 $149 $148 $429 $430 reversed $61 $-1 #
edge $-1 $431 0 $272 10 $262 $432 forward 7 unknown #
coedge $-1 $433 $420 $149 $268 reversed $258 $-1 #
edge $-1 $434 0 $271 10 $149 $435 forward 7 unknown #
coedge $-1 $423 $150 $420 $436 reversed $270 $-1 #
loop $-1 $-1 $150 $257 #
vertex $-1 $268 $437 #
vertex $-1 $266 $438 #
straight-curve $-1 0 20 10 1 0 0 I I #
face $-1 $439 $440 $35 $-1 $441 forward single #
loop $-1 $-1 $442 $152 #
plane-surface $-1 10 -15 10 1 0 0 0 0 -1 forward_v I I I I #
coedge $-1 $443 $444 $445 $446 forward $153 $-1 #
coedge $-1 $447 $155 $444 $448 reversed $94 $-1 #
coedge $-1 $155 $447 $156 $283 forward $94 $-1 #
coedge $-1 $158 $445 $155 $281 reversed $287 $-1 #
edge $-1 $289 0 $449 25 $155 $450 forward 7 unknown #
coedge $-1 $157 $156 $451 $452 reversed $64 $-1 #
edge $453 $454 0 $289 10 $279 $455 forward 7 unknown #
coedge $-1 $456 $457 $157 $285 reversed $458 $-1 #
edge $-1 $459 0 $288 10 $157 $460 forward 7 unknown #
coedge $-1 $461 $158 $457 $462 reversed $287 $-1 #
loop $-1 $-1 $158 $463 #
vertex $-1 $285 $464 #
vertex $-1 $283 $465 #
straight-curve $-1 0 10 20 1 0 0 I I #
model_id-kcp-attrib $-1 $-1 $-1 $161 1 990663941 80 2052063233 7 #
face $466 $467 $468 $10 $-1 $469 reversed single #
loop $-1 $-1 $470 $161 #
plane-surface $-1 30 0 10 0 0 1 1 0 0 forward_v I I I I #
coedge $-1 $471 $164 $317 $472 forward $99 $-1 #
coedge $-1 $164 $473 $165 $299 forward $99 $-1 #
edge $474 $301 -40 $319 -10 $164 $475 forward 7 unknown #
coedge $-1 $166 $165 $476 $477 forward $68 $-1 #
edge $478 $479 -40 $301 0 $165 $480 forward 7 unknown #
attrib_edge_convexity-kcp-attrib $-1 $481 $-1 $168 1 #
vertex $-1 $299 $482 #
straight-curve $-1 40 0 0 0 0 1 I I #
coedge $-1 $476 $483 $169 $304 reversed $484 $-1 #
edge $485 $306 -40 $311 40 $303 $486 forward 7 unknown #
attrib_edge_convexity-kcp-attrib $-1 $487 $-1 $170 1 #
vertex $-1 $477 $488 #
straight-curve $-1 40 0 -20 0 -1 0 I I #
coedge $-1 $326 $171 $483 $489 reversed $309 $-1 #
loop $-1 $-1 $186 $490 #
attrib_edge_convexity-kcp-attrib $-1 $491 $-1 $172 1 #
vertex $-1 $172 $492 #
straight-curve $-1 -40 0 -20 0 1 0 I I #
convexity-sys-attrib $-1 $-1 $173 $105 #
point $-1 -40 0 -20 #
point $-1 40 0 -20 #
coedge $-1 $493 $178 $181 $322 forward $162 $-1 #
coedge $-1 $178 $493 $295 $472 reversed $162 $-1 #
attrib_edge_convexity-kcp-attrib $-1 $494 $-1 $179 1 #
vertex $-1 $179 $495 #
straight-curve $-1 10 0 5 0 0 -1 I I #
coedge $-1 $181 $180 $496 $497 reversed $182 $-1 #
edge $-1 $184 0 $498 10 $316 $499 forward 7 unknown #
face $500 $501 $182 $10 $-1 $502 forward single #
convexity-sys-attrib $-1 $-1 $183 $108 #
point $-1 10 0 0 #
coedge $-1 $186 $308 $188 $330 reversed $309 $-1 #
attrib_edge_convexity-kcp-attrib $-1 $503 $-1 $187 1 #
straight-curve $-1 -40 0 0 0 0 -1 I I #
coedge $-1 $504 $188 $505 $506 forward $190 $-1 #
edge $-1 $192 0 $507 40 $326 $508 forward 7 unknown #
coedge $-1 $189 $509 $510 $511 forward $190 $-1 #
face $512 $513 $190 $10 $-1 $100 forward single #
convexity-sys-attrib $-1 $-1 $191 $111 #
point $-1 -40 0 20 #
coedge $-1 $510 $496 $194 $336 forward $514 $-1 #
edge $-1 $339 -5 $337 15 $335 $515 forward 7 unknown #
vertex $-1 $511 $516 #
straight-curve $-1 -10 0 20 0 1 0 I I #
vertex $-1 $497 $517 #
straight-curve $-1 -10 0 0 0 1 0 I I #
model_id-kcp-attrib $-1 $-1 $-1 $197 1 990663941 80 2052063233 20 #
plane-surface $-1 -10 0 10 1 0 0 0 0 -1 forward_v I I I I #
model_id-kcp-attrib $-1 $-1 $-1 $202 1 990663941 80 2052063234 2 #
face $518 $-1 $217 $27 $-1 $519 reversed single #
loop $-1 $-1 $360 $202 #
plane-surface $-1 0 20 0 0 -1 0 0 0 -1 forward_v I I I I #
coedge $-1 $520 $358 $361 $521 forward $203 $-1 #
coedge $-1 $364 $205 $206 $352 reversed $121 $-1 #
coedge $-1 $358 $520 $205 $350 reversed $203 $-1 #
edge $-1 $365 -20 $522 20 $349 $523 forward 7 unknown #
coedge $-1 $207 $206 $520 $524 forward $78 $-1 #
edge $-1 $356 -40 $522 40 $348 $525 forward 7 unknown #
coedge $-1 $361 $360 $207 $354 reversed $345 $-1 #
edge $-1 $526 -40 $355 40 $353 $527 forward 7 unknown #
vertex $-1 $209 $528 #
vertex $-1 $367 $529 #
straight-curve $-1 40 0 -20 0 -1 0 I I #
coedge $-1 $347 $349 $210 $359 reversed $203 $-1 #
edge $-1 $362 -20 $365 20 $358 $530 forward 7 unknown #
coedge $-1 $353 $211 $216 $368 forward $345 $-1 #
coedge $-1 $211 $353 $347 $521 reversed $345 $-1 #
vertex $-1 $212 $531 #
straight-curve $-1 0 20 20 -1 0 0 I I #
coedge $-1 $213 $348 $215 $367 reversed $121 $-1 #
vertex $-1 $359 $532 #
straight-curve $-1 0 -20 20 1 0 0 I I #
edge $-1 $218 -20 $356 20 $215 $533 forward 7 unknown #
edge $-1 $219 -20 $355 20 $216 $534 forward 7 unknown #
point $-1 40 -20 20 #
point $-1 40 20 20 #
face $-1 $-1 $535 $29 $-1 $536 reversed single #
plane-surface $-1 0 -2.5000000000000004 10 0 0 1 1 0 0 forward_v I I I I #
coedge $-1 $378 $230 $235 $393 forward $222 $-1 #
coedge $-1 $224 $389 $225 $377 forward $129 $-1 #
edge $-1 $381 -23.75 $237 1.25 $224 $537 forward 7 unknown #
coedge $-1 $226 $225 $538 $539 reversed $82 $-1 #
edge $540 $541 0 $381 20 $374 $542 forward 7 unknown #
coedge $-1 $385 $373 $226 $379 reversed $222 $-1 #
edge $543 $544 0 $380 20 $226 $545 forward 7 unknown #
vertex $-1 $379 $546 #
vertex $-1 $377 $547 #
straight-curve $-1 0 -15 10 -1 0 0 I I #
coedge $-1 $548 $549 $229 $384 forward $535 $-1 #
edge $550 $391 -20 $387 20 $229 $551 forward 7 unknown #
coedge $-1 $230 $378 $548 $552 reversed $222 $-1 #
convexity-sys-attrib $-1 $-1 $-1 $231 #
vertex $-1 $552 $553 #
straight-curve $-1 20 10 -10 0 0 1 I I #
coedge $-1 $374 $232 $549 $554 reversed $129 $-1 #
convexity-sys-attrib $-1 $-1 $-1 $233 #
vertex $-1 $554 $555 #
straight-curve $-1 -20 10 -10 0 0 1 I I #
edge $-1 $238 -1.25 $380 23.75 $373 $556 forward 7 unknown #
point $-1 -20 10 10 #
point $-1 20 10 10 #
face $-1 $-1 $412 $31 $-1 $557 reversed single #
loop $-1 $-1 $401 $240 #
plane-surface $-1 10 0 0 -1 0 0 0 0 1 forward_v I I I I #
coedge $-1 $558 $559 $400 $560 reversed $241 $-1 #
coedge $-1 $252 $243 $399 $560 forward $137 $-1 #
coedge $-1 $250 $561 $243 $402 reversed $397 $-1 #
edge $-1 $254 33.989794855663561 $562 43.989794855663561 $401 $563 forward 7 unknown #
coedge $-1 $245 $244 $564 $565 forward $86 $-1 #
coedge $-1 $248 $566 $244 $405 reversed $412 $-1 #
edge $-1 $408 38.989794855663561 $567 48.989794855663561 $404 $568 forward 7 unknown #
coedge $-1 $561 $250 $245 $407 reversed $397 $-1 #
edge $-1 $569 -48.989794855663561 $409 -38.989794855663561 $406 $570 forward 7 unknown #
vertex $-1 $249 $571 #
vertex $-1 $251 $572 #
straight-curve $-1 0 -2.5 -87.979589711327122 1 0 0 I I #
coedge $-1 $566 $248 $252 $415 reversed $412 $-1 #
loop $-1 $-1 $411 $396 #
straight-curve $-1 -10 0 -87.979589711327122 0 -1 0 I I #
straight-curve $-1 10 0 -87.979589711327122 0 1 0 I I #
edge $-1 $573 -43.989794855663561 $255 -33.989794855663561 $411 $574 forward 7 unknown #
point $-1 10 2.5 -87.979589711327122 #
point $-1 -10 2.5 -87.979589711327122 #
face $-1 $-1 $575 $33 $-1 $576 reversed single #
plane-surface $-1 0 14.999999999999998 10 0 0 1 1 0 0 forward_v I I I I #
coedge $-1 $267 $577 $269 $436 forward $258 $-1 #
coedge $-1 $578 $260 $577 $579 reversed $145 $-1 #
coedge $-1 $260 $578 $261 $426 forward $145 $-1 #
coedge $-1 $263 $269 $260 $424 reversed $270 $-1 #
edge $-1 $427 -20 $580 0 $260 $581 forward 7 unknown #
coedge $-1 $262 $261 $582 $583 reversed $90 $-1 #
edge $-1 $584 0 $427 10 $422 $585 forward 7 unknown #
vertex $-1 $426 $586 #
straight-curve $-1 10 17.5 10 0 -1 0 I I #
coedge $-1 $582 $587 $265 $430 forward $575 $-1 #
edge $588 $434 -10 $431 10 $265 $589 forward 7 unknown #
vertex $-1 $430 $590 #
straight-curve $-1 10 20 0 0 0 1 I I #
coedge $-1 $577 $267 $587 $591 reversed $258 $-1 #
vertex $-1 $591 $592 #
straight-curve $-1 -10 20 0 0 0 1 I I #
edge $-1 $580 -7.5 $271 2.5 $420 $593 forward 7 unknown #
point $-1 -10 20 10 #
point $-1 10 20 10 #
face $-1 $594 $595 $35 $-1 $596 forward single #
loop $-1 $-1 $597 $274 #
plane-surface $-1 10 -20 10 0 -1 0 0 0 -1 forward_v I I I I #
coedge $-1 $598 $599 $600 $601 forward $275 $-1 #
coedge $-1 $602 $277 $599 $603 reversed $153 $-1 #
coedge $-1 $277 $602 $278 $448 forward $153 $-1 #
coedge $-1 $280 $600 $277 $446 reversed $287 $-1 #
edge $-1 $449 -35 $604 -10 $277 $605 forward 7 unknown #
coedge $-1 $279 $278 $606 $607 reversed $94 $-1 #
edge $-1 $608 0 $449 10 $444 $609 forward 7 unknown #
vertex $-1 $448 $610 #
straight-curve $-1 35 10 20 0 -1 0 I I #
coedge $-1 $606 $611 $282 $452 forward $612 $-1 #
edge $613 $459 10 $454 35 $282 $614 forward 7 unknown #
convexity-sys-attrib $-1 $-1 $-1 $283 #
vertex $-1 $452 $615 #
straight-curve $-1 35 10 10 0 0 1 I I #
coedge $-1 $616 $284 $611 $617 reversed $458 $-1 #
coedge $-1 $284 $616 $286 $462 forward $458 $-1 #
loop $-1 $-1 $457 $618 #
vertex $-1 $617 $619 #
straight-curve $-1 10 10 10 0 0 1 I I #
coedge $-1 $620 $286 $621 $622 reversed $287 $-1 #
edge $-1 $623 -10 $288 0 $457 $624 forward 7 unknown #
face $-1 $625 $287 $35 $-1 $626 forward single #
point $-1 10 10 20 #
point $-1 35 10 20 #
model_id-kcp-attrib $-1 $-1 $-1 $292 1 990663941 80 2052063233 8 #
face $627 $628 $629 $10 $-1 $630 forward single #
loop $-1 $-1 $631 $292 #
plane-surface $-1 20 0 0 1 0 0 0 0 -1 forward_v I I I I #
coedge $-1 $632 $633 $634 $635 reversed $293 $-1 #
coedge $-1 $636 $295 $637 $638 forward $99 $-1 #
edge $-1 $319 0 $639 10 $295 $640 forward 7 unknown #
coedge $-1 $296 $641 $642 $643 forward $99 $-1 #
attrib_edge_convexity-kcp-attrib $-1 $644 $-1 $297 1 #
straight-curve $-1 0 0 20 -1 0 0 I I #
coedge $-1 $642 $303 $298 $477 reversed $484 $-1 #
edge $645 $479 -20 $306 20 $298 $646 forward 7 unknown #
attrib_edge_convexity-kcp-attrib $-1 $647 $-1 $299 1 #
vertex $-1 $299 $648 #
straight-curve $-1 40 0 20 0 1 0 I I #
convexity-sys-attrib $-1 $-1 $300 $168 #
point $-1 40 0 20 #
coedge $-1 $303 $505 $308 $489 forward $484 $-1 #
loop $-1 $-1 $476 $649 #
attrib_edge_convexity-kcp-attrib $-1 $650 $-1 $304 1 #
straight-curve $-1 0 -40 -20 -1 0 0 I I #
convexity-sys-attrib $-1 $-1 $305 $170 #
point $-1 40 -40 -20 #
edge $-1 $507 -20 $311 20 $308 $651 forward 7 unknown #
face $652 $653 $309 $10 $-1 $654 reversed single #
convexity-sys-attrib $-1 $-1 $310 $172 #
point $-1 -40 -40 -20 #
coedge $-1 $317 $316 $655 $656 reversed $162 $-1 #
convexity-sys-attrib $-1 $-1 $318 $179 #
point $-1 10 0 20 #
coedge $-1 $335 $655 $321 $497 forward $514 $-1 #
edge $-1 $498 -10 $339 10 $496 $657 forward 7 unknown #
vertex $-1 $497 $658 #
straight-curve $-1 10 0 0 0 -1 0 I I #
model_id-kcp-attrib $-1 $-1 $-1 $323 1 990663941 80 2052063233 17 #
face $659 $660 $661 $10 $-1 $163 forward single #
plane-surface $-1 0 0 0 0 0 1 1 0 0 forward_v I I I I #
convexity-sys-attrib $-1 $-1 $327 $187 #
coedge $-1 $662 $329 $663 $664 forward $190 $-1 #
coedge $-1 $483 $665 $329 $506 reversed $484 $-1 #
edge $-1 $507 -40 $666 -10 $505 $667 forward 7 unknown #
vertex $-1 $330 $668 #
straight-curve $-1 -40 0 20 0 -1 0 I I #
coedge $-1 $331 $662 $669 $670 forward $190 $-1 #
coedge $-1 $671 $335 $331 $511 reversed $514 $-1 #
edge $-1 $672 -35 $337 -10 $510 $673 forward 7 unknown #
model_id-kcp-attrib $-1 $-1 $-1 $332 1 990663941 80 2052063233 21 #
face $674 $649 $675 $10 $-1 $676 forward single #
loop $-1 $-1 $634 $677 #
straight-curve $-1 -10 -10 5 0 0 1 I I #
point $-1 -10 -10 20 #
point $-1 -10 -10 0 #
model_id-kcp-attrib $-1 $-1 $-1 $344 1 990663941 80 2052063234 4 #
plane-surface $-1 40 0 0 -1 0 0 0 0 1 forward_v I I I I #
coedge $-1 $349 $347 $351 $524 reversed $203 $-1 #
edge $-1 $362 -20 $526 20 $361 $678 forward 7 unknown #
vertex $-1 $524 $679 #
straight-curve $-1 -40 -20 0 0 0 -1 I I #
edge $-1 $522 -20 $526 20 $520 $680 forward 7 unknown #
straight-curve $-1 0 -20 -20 -1 0 0 I I #
vertex $-1 $354 $681 #
straight-curve $-1 0 20 -20 1 0 0 I I #
point $-1 40 20 -20 #
point $-1 40 -20 -20 #
straight-curve $-1 -40 0 20 0 -1 0 I I #
point $-1 -40 20 20 #
point $-1 -40 -20 20 #
straight-curve $-1 40 -20 0 0 0 -1 I I #
straight-curve $-1 40 20 0 0 0 -1 I I #
loop $-1 $-1 $548 $371 #
plane-surface $-1 0 -2.5000000000000004 -10 0 0 1 1 0 0 forward_v I I I I #
straight-curve $-1 -20 8.75 10 0 1 0 I I #
coedge $-1 $549 $548 $376 $539 forward $535 $-1 #
edge $682 $544 -20 $541 20 $376 $683 forward 7 unknown #
convexity-sys-attrib $-1 $-1 $-1 $377 #
vertex $-1 $539 $684 #
straight-curve $-1 -20 -15 -10 0 0 1 I I #
convexity-sys-attrib $-1 $-1 $-1 $379 #
vertex $-1 $552 $685 #
straight-curve $-1 20 -15 -10 0 0 1 I I #
point $-1 20 -15 10 #
point $-1 -20 -15 10 #
coedge $-1 $538 $383 $385 $552 forward $535 $-1 #
coedge $-1 $383 $538 $389 $554 forward $535 $-1 #
convexity-sys-attrib $-1 $-1 $-1 $384 #
straight-curve $-1 0 10 -10 1 0 0 I I #
edge $686 $387 -1.25 $544 23.75 $385 $687 forward 7 unknown #
point $-1 20 10 -10 #
edge $688 $541 -23.75 $391 1.25 $389 $689 forward 7 unknown #
point $-1 -20 10 -10 #
straight-curve $-1 20 8.75 10 0 -1 0 I I #
plane-surface $-1 -10 0 0 1 0 0 0 0 -1 forward_v I I I I #
coedge $-1 $564 $399 $561 $690 forward $241 $-1 #
coedge $-1 $399 $564 $566 $691 forward $241 $-1 #
edge $692 $562 0 $573 20 $399 $693 forward 7 unknown #
coedge $-1 $401 $406 $558 $690 reversed $397 $-1 #
vertex $-1 $690 $694 #
straight-curve $-1 10 2.5 -53.989794855663561 0 0 -1 I I #
coedge $-1 $559 $558 $403 $565 reversed $241 $-1 #
edge $695 $567 -10 $569 10 $564 $696 forward 7 unknown #
coedge $-1 $404 $411 $559 $691 reversed $412 $-1 #
vertex $-1 $691 $697 #
straight-curve $-1 -10 -2.5 -48.989794855663561 0 0 -1 I I #
vertex $-1 $565 $698 #
straight-curve $-1 10 -2.5 -48.989794855663561 0 0 1 I I #
point $-1 -10 -2.5 -87.979589711327122 #
point $-1 10 -2.5 -87.979589711327122 #
vertex $-1 $560 $699 #
straight-curve $-1 -10 2.5 -53.989794855663561 0 0 1 I I #
loop $-1 $-1 $587 $418 #
plane-surface $-1 0 14.999999999999998 0 0 0 1 1 0 0 forward_v I I I I #
coedge $-1 $420 $433 $421 $579 forward $258 $-1 #
coedge $-1 $422 $421 $700 $701 reversed $145 $-1 #
edge $-1 $702 0 $580 10 $577 $703 forward 7 unknown #
vertex $-1 $579 $704 #
straight-curve $-1 -10 10 10 -1 0 0 I I #
coedge $-1 $700 $429 $425 $583 forward $575 $-1 #
edge $705 $431 -2.5 $584 7.5 $425 $706 forward 7 unknown #
vertex $-1 $583 $707 #
straight-curve $-1 10 10 0 0 0 1 I I #
point $-1 10 10 10 #
coedge $-1 $429 $700 $433 $591 forward $575 $-1 #
convexity-sys-attrib $-1 $-1 $-1 $430 #
straight-curve $-1 0 20 0 1 0 0 I I #
point $-1 10 20 0 #
edge $708 $702 -7.5 $434 2.5 $433 $709 forward 7 unknown #
point $-1 -10 20 0 #
straight-curve $-1 -10 17.5 10 0 1 0 I I #
face $-1 $710 $711 $35 $-1 $712 forward single #
loop $-1 $-1 $713 $439 #
plane-surface $-1 -10 -20 10 -1 0 0 0 0 1 forward_v I I I I #
coedge $-1 $714 $715 $716 $717 forward $440 $-1 #
coedge $-1 $718 $442 $715 $719 reversed $275 $-1 #
coedge $-1 $442 $718 $443 $603 forward $275 $-1 #
coedge $-1 $445 $716 $442 $601 reversed $287 $-1 #
edge $-1 $604 25 $720 30 $442 $721 forward 7 unknown #
coedge $-1 $444 $443 $722 $723 reversed $153 $-1 #
edge $-1 $724 0 $604 10 $599 $725 forward 7 unknown #
vertex $-1 $603 $726 #
straight-curve $-1 0 -15 20 -1 0 0 I I #
coedge $-1 $722 $451 $447 $607 forward $612 $-1 #
edge $727 $454 0 $608 25 $447 $728 forward 7 unknown #
vertex $-1 $607 $729 #
straight-curve $-1 35 -15 10 0 0 1 I I #
point $-1 35 -15 20 #
coedge $-1 $451 $730 $456 $617 forward $612 $-1 #
loop $-1 $-1 $611 $625 #
convexity-sys-attrib $-1 $-1 $-1 $452 #
straight-curve $-1 0 10 10 1 0 0 I I #
point $-1 35 10 10 #
coedge $-1 $457 $456 $731 $732 forward $458 $-1 #
edge $733 $734 -10 $459 0 $456 $735 forward 7 unknown #
face $-1 $463 $458 $35 $-1 $736 forward single #
point $-1 10 10 10 #
coedge $-1 $737 $461 $738 $739 reversed $287 $-1 #
coedge $-1 $731 $740 $461 $622 forward $741 $-1 #
edge $-1 $742 -10 $623 10 $621 $743 forward 7 unknown #
vertex $-1 $732 $744 #
straight-curve $-1 10 10 20 0 -1 0 I I #
face $-1 $-1 $612 $35 $-1 $745 reversed single #
plane-surface $-1 4.4408920985006262e-016 -1.1363636363636367 20 0 0 1 1 0 0 forward_v I I I I #
model_id-kcp-attrib $-1 $-1 $-1 $467 1 990663941 80 2052063233 9 #
face $746 $747 $748 $10 $-1 $749 forward single #
loop $-1 $-1 $750 $467 #
plane-surface $-1 35 0 5 -1 0 0 0 0 1 forward_v I I I I #
coedge $-1 $751 $752 $753 $754 reversed $468 $-1 #
coedge $-1 $755 $470 $752 $756 forward $293 $-1 #
coedge $-1 $470 $755 $750 $757 reversed $293 $-1 #
coedge $-1 $758 $753 $470 $635 forward $514 $-1 #
edge $-1 $759 5 $760 20 $634 $761 forward 7 unknown #
coedge $-1 $762 $471 $763 $764 forward $99 $-1 #
coedge $-1 $655 $758 $471 $638 reversed $514 $-1 #
edge $-1 $639 10 $765 35 $637 $673 forward 7 unknown #
vertex $-1 $656 $766 #
straight-curve $-1 10 0 20 0 -1 0 I I #
coedge $-1 $473 $762 $767 $768 forward $99 $-1 #
coedge $-1 $769 $476 $473 $643 reversed $484 $-1 #
edge $-1 $770 10 $479 40 $642 $667 forward 7 unknown #
convexity-sys-attrib $-1 $-1 $474 $297 #
attrib_edge_convexity-kcp-attrib $-1 $771 $-1 $477 1 #
straight-curve $-1 40 -40 0 0 0 -1 I I #
convexity-sys-attrib $-1 $-1 $478 $299 #
point $-1 40 -40 20 #
face $772 $-1 $484 $10 $-1 $773 reversed single #
convexity-sys-attrib $-1 $-1 $485 $304 #
straight-curve $-1 -40 -40 0 0 0 -1 I I #
model_id-kcp-attrib $-1 $-1 $-1 $490 1 990663941 80 2052063233 15 #
face $774 $323 $775 $10 $-1 $502 forward single #
plane-surface $-1 -40 0 0 1 0 0 0 0 -1 forward_v I I I I #
coedge $-1 $496 $637 $493 $656 forward $514 $-1 #
edge $-1 $639 -15 $498 5 $655 $776 forward 7 unknown #
straight-curve $-1 0 -10 0 -1 0 0 I I #
point $-1 10 -10 0 #
model_id-kcp-attrib $-1 $-1 $-1 $501 1 990663941 80 2052063233 18 #
face $777 $197 $778 $10 $-1 $342 forward single #
loop $-1 $-1 $779 $501 #
coedge $-1 $509 $504 $780 $781 forward $190 $-1 #
coedge $-1 $782 $783 $504 $664 reversed $778 $-1 #
edge $-1 $666 -40 $784 -35 $504 $338 forward 7 unknown #
coedge $-1 $505 $785 $782 $786 forward $484 $-1 #
vertex $-1 $506 $787 #
straight-curve $-1 0 -40 20 1 0 0 I I #
point $-1 -40 -40 20 #
coedge $-1 $788 $789 $509 $670 reversed $790 $-1 #
edge $-1 $791 -35 $672 -10 $509 $792 forward 7 unknown #
coedge $-1 $793 $510 $789 $794 reversed $514 $-1 #
vertex $-1 $670 $795 #
straight-curve $-1 0 -10 20 1 0 0 I I #
model_id-kcp-attrib $-1 $-1 $-1 $513 1 990663941 80 2052063233 22 #
loop $-1 $-1 $796 $513 #
plane-surface $-1 0 0 -10 0 0 1 1 0 0 forward_v I I I I #
face $797 $490 $514 $10 $-1 $798 reversed single #
straight-curve $-1 -40 20 0 0 0 -1 I I #
point $-1 -40 -20 -20 #
straight-curve $-1 -40 0 -20 0 1 0 I I #
point $-1 -40 20 -20 #
convexity-sys-attrib $-1 $-1 $-1 $539 #
straight-curve $-1 0 -15 -10 -1 0 0 I I #
point $-1 -20 -15 -10 #
point $-1 20 -15 -10 #
convexity-sys-attrib $-1 $-1 $-1 $552 #
straight-curve $-1 20 8.75 -10 0 -1 0 I I #
convexity-sys-attrib $-1 $-1 $-1 $554 #
straight-curve $-1 -20 8.75 -10 0 1 0 I I #
edge $799 $562 -2.5 $569 2.5 $561 $800 forward 7 unknown #
edge $801 $567 -2.5 $573 2.5 $566 $802 forward 7 unknown #
convexity-sys-attrib $-1 $-1 $-1 $560 #
straight-curve $-1 10 2.5 -97.979589711327122 -1 0 0 I I #
point $-1 10 2.5 -97.979589711327122 #
convexity-sys-attrib $-1 $-1 $-1 $565 #
straight-curve $-1 0 -2.5 -97.979589711327122 1 0 0 I I #
point $-1 -10 -2.5 -97.979589711327122 #
point $-1 10 -2.5 -97.979589711327122 #
point $-1 -10 2.5 -97.979589711327122 #
coedge $-1 $587 $582 $578 $701 forward $575 $-1 #
edge $803 $584 -20 $702 0 $578 $804 forward 7 unknown #
vertex $-1 $591 $805 #
straight-curve $-1 -10 10 0 0 0 1 I I #
point $-1 -10 10 10 #
convexity-sys-attrib $-1 $-1 $-1 $583 #
straight-curve $-1 10 17.5 0 0 -1 0 I I #
point $-1 10 10 0 #
convexity-sys-attrib $-1 $-1 $-1 $591 #
straight-curve $-1 -10 17.5 0 0 1 0 I I #
face $-1 $806 $807 $35 $-1 $808 forward single #
loop $-1 $-1 $809 $594 #
plane-surface $-1 -10 -15 10 0 -1 0 0 0 -1 forward_v I I I I #
coedge $-1 $810 $811 $812 $813 forward $595 $-1 #
coedge $-1 $814 $597 $811 $815 reversed $440 $-1 #
coedge $-1 $597 $814 $598 $719 forward $440 $-1 #
coedge $-1 $600 $812 $597 $717 reversed $287 $-1 #
edge $-1 $720 -10 $816 10 $597 $817 forward 7 unknown #
coedge $-1 $599 $598 $818 $819 reversed $275 $-1 #
edge $-1 $820 0 $720 10 $715 $821 forward 7 unknown #
vertex $-1 $719 $822 #
straight-curve $-1 10 10 20 0 -1 0 I I #
coedge $-1 $818 $606 $602 $723 forward $612 $-1 #
edge $823 $608 -35 $724 -10 $602 $824 forward 7 unknown #
vertex $-1 $723 $825 #
straight-curve $-1 10 -15 10 0 0 1 I I #
point $-1 10 -15 20 #
convexity-sys-attrib $-1 $-1 $-1 $607 #
straight-curve $-1 35 10 10 0 -1 0 I I #
point $-1 35 -15 10 #
coedge $-1 $611 $826 $827 $828 forward $612 $-1 #
coedge $-1 $827 $621 $616 $732 reversed $741 $-1 #
edge $-1 $734 0 $623 10 $616 $829 forward 7 unknown #
convexity-sys-attrib $-1 $-1 $-1 $617 #
vertex $-1 $617 $830 #
straight-curve $-1 10 10 10 0 -1 0 I I #
plane-surface $-1 10 20 10 1 0 0 0 0 -1 forward_v I I I I #
coedge $-1 $831 $620 $832 $833 reversed $287 $-1 #
coedge $-1 $834 $835 $620 $739 forward $836 $-1 #
edge $-1 $837 0 $742 10 $738 $838 forward 7 unknown #
coedge $-1 $621 $827 $834 $839 forward $741 $-1 #
loop $-1 $-1 $621 $840 #
vertex $-1 $839 $841 #
straight-curve $-1 0 20 20 1 0 0 I I #
point $-1 10 20 20 #
plane-surface $-1 4.4408920985006262e-016 -1.1363636363636367 10 0 0 1 1 0 0 forward_v I I I I #
model_id-kcp-attrib $-1 $-1 $-1 $628 1 990663941 80 2052063233 10 #
face $842 $843 $844 $10 $-1 $845 forward single #
loop $-1 $-1 $846 $628 #
plane-surface $-1 0 -35 5 0 1 0 0 0 1 forward_v I I I I #
coedge $-1 $847 $848 $633 $757 forward $629 $-1 #
coedge $-1 $849 $631 $796 $850 reversed $468 $-1 #
coedge $-1 $631 $849 $632 $756 reversed $468 $-1 #
coedge $-1 $634 $851 $631 $754 forward $514 $-1 #
edge $-1 $852 -10 $759 10 $753 $853 forward 7 unknown #
coedge $-1 $633 $632 $846 $854 reversed $293 $-1 #
edge $-1 $759 10 $855 35 $752 $856 forward 7 unknown #
edge $-1 $760 10 $857 35 $750 $858 forward 7 unknown #
coedge $-1 $637 $634 $848 $859 reversed $514 $-1 #
vertex $-1 $635 $860 #
vertex $-1 $859 $861 #
straight-curve $-1 15 -10 10 1 0 0 I I #
coedge $-1 $641 $636 $862 $863 forward $99 $-1 #
coedge $-1 $848 $847 $636 $764 reversed $629 $-1 #
edge $-1 $765 10 $864 35 $636 $865 forward 7 unknown #
vertex $-1 $764 $866 #
point $-1 10 -10 20 #
coedge $-1 $779 $867 $641 $768 reversed $661 $-1 #
edge $-1 $868 35 $770 40 $641 $640 forward 7 unknown #
coedge $-1 $785 $642 $867 $869 forward $484 $-1 #
vertex $-1 $869 $870 #
convexity-sys-attrib $-1 $-1 $645 $477 #
model_id-kcp-attrib $-1 $-1 $-1 $649 1 990663941 80 2052063233 23 #
plane-surface $-1 0 -40 0 0 1 0 0 0 1 forward_v I I I I #
model_id-kcp-attrib $-1 $-1 $-1 $653 1 990663941 80 2052063233 16 #
loop $-1 $-1 $871 $653 #
straight-curve $-1 10 -10 5 0 0 -1 I I #
model_id-kcp-attrib $-1 $-1 $-1 $660 1 990663941 80 2052063233 19 #
loop $-1 $-1 $783 $660 #
coedge $-1 $872 $767 $873 $874 reversed $661 $-1 #
coedge $-1 $875 $876 $662 $781 reversed $748 $-1 #
edge $-1 $784 10 $791 35 $662 $877 forward 7 unknown #
coedge $-1 $878 $663 $665 $786 reversed $778 $-1 #
coedge $-1 $663 $878 $875 $879 reversed $778 $-1 #
vertex $-1 $664 $880 #
coedge $-1 $665 $769 $881 $882 forward $484 $-1 #
edge $-1 $883 -5 $666 15 $665 $884 forward 7 unknown #
point $-1 -10 -40 20 #
coedge $-1 $885 $669 $876 $886 forward $790 $-1 #
coedge $-1 $669 $885 $671 $794 forward $790 $-1 #
loop $-1 $-1 $885 $887 #
vertex $-1 $781 $888 #
straight-curve $-1 -35 0 20 0 1 0 I I #
coedge $-1 $889 $671 $890 $891 forward $514 $-1 #
edge $-1 $892 7.5 $672 17.5 $789 $893 forward 7 unknown #
point $-1 -35 -10 20 #
coedge $-1 $894 $895 $751 $850 forward $675 $-1 #
model_id-kcp-attrib $-1 $-1 $-1 $677 1 990663941 80 2052063233 14 #
plane-surface $-1 0 -10 0 0 1 0 0 0 1 forward_v I I I I #
convexity-sys-attrib $-1 $-1 $-1 $690 #
straight-curve $-1 10 0 -97.979589711327122 0 -1 0 I I #
convexity-sys-attrib $-1 $-1 $-1 $691 #
straight-curve $-1 -10 0 -97.979589711327122 0 1 0 I I #
convexity-sys-attrib $-1 $-1 $-1 $701 #
straight-curve $-1 -10 10 0 -1 0 0 I I #
point $-1 -10 10 0 #
face $-1 $896 $897 $35 $-1 $898 forward single #
loop $-1 $-1 $899 $710 #
plane-surface $-1 -35 -15 10 -1 0 0 0 0 1 forward_v I I I I #
coedge $-1 $900 $901 $902 $903 forward $711 $-1 #
coedge $-1 $904 $713 $901 $905 reversed $595 $-1 #
coedge $-1 $713 $904 $714 $815 forward $595 $-1 #
coedge $-1 $716 $902 $713 $813 reversed $287 $-1 #
edge $-1 $816 -30 $906 -25 $713 $907 forward 7 unknown #
coedge $-1 $715 $714 $908 $909 reversed $440 $-1 #
edge $-1 $910 0 $816 10 $811 $911 forward 7 unknown #
vertex $-1 $815 $912 #
straight-curve $-1 0 -20 20 -1 0 0 I I #
coedge $-1 $908 $722 $718 $819 forward $612 $-1 #
edge $913 $724 25 $820 30 $718 $914 forward 7 unknown #
vertex $-1 $819 $915 #
straight-curve $-1 10 -20 10 0 0 1 I I #
point $-1 10 -20 20 #
convexity-sys-attrib $-1 $-1 $-1 $723 #
straight-curve $-1 0 -15 10 -1 0 0 I I #
point $-1 10 -15 10 #
coedge $-1 $730 $916 $917 $918 forward $612 $-1 #
coedge $-1 $740 $731 $730 $828 reversed $741 $-1 #
edge $919 $920 -10 $734 10 $827 $921 forward 7 unknown #
straight-curve $-1 10 20 10 0 0 1 I I #
point $-1 10 20 10 #
coedge $-1 $902 $737 $899 $922 reversed $287 $-1 #
coedge $-1 $923 $924 $737 $833 forward $897 $-1 #
edge $-1 $925 -35 $837 -10 $832 $926 forward 7 unknown #
coedge $-1 $917 $738 $740 $839 reversed $836 $-1 #
coedge $-1 $738 $917 $923 $927 forward $836 $-1 #
loop $-1 $-1 $738 $896 #
vertex $-1 $927 $928 #
straight-curve $-1 -10 10 20 0 1 0 I I #
edge $-1 $920 0 $742 10 $740 $929 forward 7 unknown #
face $-1 $618 $741 $35 $-1 $930 forward single #
point $-1 -10 20 20 #
model_id-kcp-attrib $-1 $-1 $-1 $747 1 990663941 80 2052063233 11 #
face $931 $887 $932 $10 $-1 $933 reversed single #
loop $-1 $-1 $934 $747 #
plane-surface $-1 -30 0 10 0 0 1 1 0 0 forward_v I I I I #
coedge $-1 $935 $936 $755 $854 forward $748 $-1 #
coedge $-1 $763 $750 $936 $937 reversed $629 $-1 #
coedge $-1 $750 $763 $758 $859 forward $629 $-1 #
coedge $-1 $752 $751 $935 $938 reversed $468 $-1 #
edge $-1 $939 -35 $852 -10 $796 $940 forward 7 unknown #
coedge $-1 $753 $889 $894 $941 reversed $514 $-1 #
vertex $-1 $850 $942 #
straight-curve $-1 20 -10 0 0 0 1 I I #
edge $-1 $857 -20 $855 -5 $846 $943 forward 7 unknown #
vertex $-1 $854 $944 #
straight-curve $-1 20 0 10 0 -1 0 I I #
vertex $-1 $937 $945 #
straight-curve $-1 35 0 10 0 -1 0 I I #
edge $-1 $765 -17.5 $760 -7.5 $848 $946 forward 7 unknown #
point $-1 20 -10 10 #
point $-1 35 -10 10 #
coedge $-1 $936 $873 $762 $863 reversed $748 $-1 #
edge $-1 $864 -35 $868 -10 $762 $877 forward 7 unknown #
vertex $-1 $863 $947 #
straight-curve $-1 35 0 20 0 -1 0 I I #
point $-1 35 -10 20 #
coedge $-1 $767 $872 $769 $869 reversed $661 $-1 #
vertex $-1 $863 $948 #
edge $-1 $770 -15 $949 5 $769 $950 forward 7 unknown #
point $-1 10 -40 20 #
coedge $-1 $951 $952 $953 $954 reversed $775 $-1 #
coedge $-1 $867 $779 $952 $955 forward $661 $-1 #
coedge $-1 $862 $953 $779 $874 forward $748 $-1 #
edge $-1 $956 -7.5 $868 12.5 $873 $957 forward 7 unknown #
coedge $-1 $953 $780 $783 $879 forward $748 $-1 #
coedge $-1 $780 $958 $788 $886 reversed $748 $-1 #
straight-curve $-1 0 -35 20 -1 0 0 I I #
coedge $-1 $783 $782 $951 $959 forward $778 $-1 #
edge $-1 $784 -12.5 $960 7.5 $875 $961 forward 7 unknown #
point $-1 -10 -35 20 #
coedge $-1 $952 $951 $785 $882 reversed $775 $-1 #
edge $-1 $949 -10 $883 10 $785 $962 forward 7 unknown #
vertex $-1 $882 $963 #
straight-curve $-1 -10 -40 5 0 0 1 I I #
coedge $-1 $789 $788 $964 $965 forward $790 $-1 #
edge $-1 $791 -15 $966 -5 $788 $967 forward 7 unknown #
face $968 $677 $790 $10 $-1 $969 forward single #
point $-1 -35 -35 20 #
coedge $-1 $851 $793 $970 $971 forward $514 $-1 #
coedge $-1 $964 $972 $793 $891 reversed $844 $-1 #
edge $-1 $892 -20 $973 -5 $793 $974 forward 7 unknown #
vertex $-1 $891 $975 #
straight-curve $-1 -35 -10 2.5 0 0 1 I I #
coedge $-1 $976 $796 $851 $941 forward $675 $-1 #
coedge $-1 $796 $976 $977 $978 reversed $675 $-1 #
face $-1 $840 $836 $35 $-1 $979 forward single #
loop $-1 $-1 $832 $806 #
plane-surface $-1 -35 10 10 0 1 0 0 0 1 forward_v I I I I #
coedge $-1 $980 $981 $831 $922 forward $807 $-1 #
coedge $-1 $982 $809 $981 $983 reversed $711 $-1 #
coedge $-1 $809 $982 $810 $905 forward $711 $-1 #
coedge $-1 $812 $831 $809 $903 reversed $287 $-1 #
edge $-1 $906 10 $984 35 $809 $985 forward 7 unknown #
coedge $-1 $811 $810 $986 $987 reversed $595 $-1 #
edge $-1 $988 0 $906 10 $901 $989 forward 7 unknown #
vertex $-1 $905 $990 #
straight-curve $-1 -10 10 20 0 1 0 I I #
coedge $-1 $986 $818 $814 $909 forward $612 $-1 #
edge $991 $820 -10 $910 10 $814 $992 forward 7 unknown #
vertex $-1 $909 $993 #
straight-curve $-1 -10 -20 10 0 0 1 I I #
point $-1 -10 -20 20 #
convexity-sys-attrib $-1 $-1 $-1 $819 #
straight-curve $-1 10 10 10 0 -1 0 I I #
point $-1 10 -20 10 #
coedge $-1 $826 $994 $995 $996 forward $612 $-1 #
coedge $-1 $835 $834 $826 $918 reversed $836 $-1 #
edge $997 $998 0 $920 10 $917 $999 forward 7 unknown #
convexity-sys-attrib $-1 $-1 $-1 $828 #
vertex $-1 $918 $1000 #
straight-curve $-1 0 20 10 1 0 0 I I #
edge $-1 $984 -25 $925 0 $899 $1001 forward 7 unknown #
coedge $-1 $995 $832 $835 $927 reversed $897 $-1 #
coedge $-1 $832 $995 $980 $1002 forward $897 $-1 #
vertex $-1 $1002 $1003 #
straight-curve $-1 0 10 20 1 0 0 I I #
edge $-1 $998 0 $837 10 $835 $1004 forward 7 unknown #
point $-1 -10 10 20 #
straight-curve $-1 -10 20 10 0 0 1 I I #
plane-surface $-1 -10 20 10 0 1 0 0 0 1 forward_v I I I I #
model_id-kcp-attrib $-1 $-1 $-1 $843 1 990663941 80 2052063233 12 #
loop $-1 $-1 $1005 $843 #
plane-surface $-1 -20 0 0 -1 0 0 0 0 1 forward_v I I I I #
coedge $-1 $972 $964 $958 $1006 reversed $844 $-1 #
coedge $-1 $977 $846 $849 $938 forward $748 $-1 #
coedge $-1 $846 $862 $847 $937 forward $748 $-1 #
edge $-1 $864 -15 $857 -5 $847 $1007 forward 7 unknown #
edge $-1 $855 -7.5 $939 12.5 $935 $1008 forward 7 unknown #
vertex $-1 $850 $1009 #
straight-curve $-1 20 0 -10 0 1 0 I I #
edge $-1 $852 -20 $1010 20 $894 $1011 forward 7 unknown #
point $-1 20 -10 -10 #
straight-curve $-1 15 -35 10 -1 0 0 I I #
point $-1 20 -35 10 #
point $-1 35 -35 10 #
straight-curve $-1 35 -10 2.5 0 0 -1 I I #
point $-1 35 -35 20 #
point $-1 10 -35 20 #
vertex $-1 $882 $1012 #
straight-curve $-1 10 -40 5 0 0 -1 I I #
coedge $-1 $881 $871 $878 $959 reversed $775 $-1 #
coedge $-1 $871 $881 $872 $955 reversed $775 $-1 #
coedge $-1 $873 $875 $871 $954 forward $748 $-1 #
edge $-1 $960 -10 $956 10 $953 $1013 forward 7 unknown #
edge $-1 $956 35 $949 40 $872 $499 forward 7 unknown #
vertex $-1 $954 $1014 #
straight-curve $-1 10 -35 7.5 0 0 1 I I #
coedge $-1 $876 $1015 $934 $1006 forward $748 $-1 #
edge $-1 $883 -40 $960 -35 $878 $340 forward 7 unknown #
vertex $-1 $954 $1016 #
straight-curve $-1 -10 -35 7.5 0 0 -1 I I #
straight-curve $-1 0 -40 0 -1 0 0 I I #
point $-1 -10 -40 0 #
coedge $-1 $934 $890 $885 $965 reversed $844 $-1 #
edge $-1 $966 -35 $892 -10 $885 $1017 forward 7 unknown #
vertex $-1 $886 $1018 #
straight-curve $-1 -35 -35 5 0 0 -1 I I #
model_id-kcp-attrib $-1 $-1 $-1 $887 1 990663941 80 2052063233 13 #
plane-surface $-1 -35 0 5 1 0 0 0 0 -1 forward_v I I I I #
coedge $-1 $1019 $1020 $889 $971 reversed $932 $-1 #
edge $-1 $973 -10 $1010 10 $889 $1021 forward 7 unknown #
coedge $-1 $890 $934 $1019 $1022 forward $844 $-1 #
vertex $-1 $891 $1023 #
straight-curve $-1 -15 -10 10 1 0 0 I I #
point $-1 -35 -10 10 #
coedge $-1 $895 $894 $1020 $1024 forward $675 $-1 #
coedge $-1 $1015 $935 $895 $978 forward $748 $-1 #
edge $-1 $939 -20 $1025 20 $977 $1026 forward 7 unknown #
plane-surface $-1 -10 10 10 -1 0 0 0 0 1 forward_v I I I I #
coedge $-1 $1027 $899 $924 $1002 reversed $807 $-1 #
coedge $-1 $899 $1027 $900 $983 forward $807 $-1 #
coedge $-1 $901 $900 $1028 $1029 reversed $711 $-1 #
edge $-1 $1030 0 $984 10 $981 $1031 forward 7 unknown #
vertex $-1 $983 $1032 #
straight-curve $-1 0 -15 20 -1 0 0 I I #
coedge $-1 $1028 $908 $904 $987 forward $612 $-1 #
edge $1033 $910 -30 $988 -25 $904 $1034 forward 7 unknown #
vertex $-1 $987 $1035 #
straight-curve $-1 -10 -15 10 0 0 1 I I #
point $-1 -10 -15 20 #
convexity-sys-attrib $-1 $-1 $-1 $909 #
straight-curve $-1 0 -20 10 -1 0 0 I I #
point $-1 -10 -20 10 #
coedge $-1 $916 $1028 $1027 $1036 forward $612 $-1 #
coedge $-1 $924 $923 $916 $996 reversed $897 $-1 #
edge $1037 $1038 -35 $998 -10 $995 $1039 forward 7 unknown #
convexity-sys-attrib $-1 $-1 $-1 $918 #
vertex $-1 $996 $1040 #
straight-curve $-1 -10 10 10 0 1 0 I I #
point $-1 -10 20 10 #
straight-curve $-1 -35 10 20 0 1 0 I I #
edge $-1 $1038 0 $925 10 $924 $1041 forward 7 unknown #
point $-1 -35 10 20 #
straight-curve $-1 -10 10 10 0 0 1 I I #
coedge $-1 $1020 $1019 $1015 $1042 reversed $932 $-1 #
edge $-1 $1043 5 $966 20 $958 $1044 forward 7 unknown #
straight-curve $-1 35 -35 5 0 0 -1 I I #
straight-curve $-1 20 -35 2.5 0 0 -1 I I #
point $-1 20 -35 -10 #
vertex $-1 $941 $1045 #
straight-curve $-1 0 -10 -10 -1 0 0 I I #
point $-1 10 -40 0 #
straight-curve $-1 0 -35 0 1 0 0 I I #
point $-1 10 -35 0 #
coedge $-1 $958 $977 $1005 $1042 forward $748 $-1 #
point $-1 -10 -35 0 #
straight-curve $-1 -35 0 10 0 1 0 I I #
point $-1 -35 -35 10 #
coedge $-1 $1005 $970 $972 $1022 reversed $932 $-1 #
coedge $-1 $970 $1005 $976 $1024 reversed $932 $-1 #
straight-curve $-1 -20 -10 0 0 0 -1 I I #
edge $-1 $1043 -35 $973 -10 $1019 $1046 forward 7 unknown #
point $-1 -20 -10 10 #
edge $-1 $1010 10 $1025 35 $976 $1047 forward 7 unknown #
vertex $-1 $978 $1048 #
straight-curve $-1 0 -35 -10 -1 0 0 I I #
coedge $-1 $981 $980 $994 $1036 reversed $807 $-1 #
coedge $-1 $994 $986 $982 $1029 forward $612 $-1 #
edge $1049 $988 10 $1030 35 $982 $1050 forward 7 unknown #
vertex $-1 $1029 $1051 #
straight-curve $-1 -35 -15 10 0 0 1 I I #
point $-1 -35 -15 20 #
convexity-sys-attrib $-1 $-1 $-1 $987 #
straight-curve $-1 -10 10 10 0 1 0 I I #
point $-1 -10 -15 10 #
edge $1052 $1030 -25 $1038 0 $1027 $1053 forward 7 unknown #
convexity-sys-attrib $-1 $-1 $-1 $996 #
vertex $-1 $1036 $1054 #
straight-curve $-1 0 10 10 1 0 0 I I #
point $-1 -10 10 10 #
straight-curve $-1 -35 10 10 0 0 1 I I #
edge $-1 $1025 -12.5 $1043 7.5 $1015 $1055 forward 7 unknown #
vertex $-1 $1006 $1056 #
straight-curve $-1 -15 -35 10 -1 0 0 I I #
point $-1 -20 -10 -10 #
straight-curve $-1 -20 0 10 0 1 0 I I #
straight-curve $-1 -20 0 -10 0 -1 0 I I #
point $-1 -20 -35 -10 #
convexity-sys-attrib $-1 $-1 $-1 $1029 #
straight-curve $-1 0 -15 10 -1 0 0 I I #
point $-1 -35 -15 10 #
convexity-sys-attrib $-1 $-1 $-1 $1036 #
straight-curve $-1 -35 10 10 0 1 0 I I #
point $-1 -35 10 10 #
straight-curve $-1 -20 -35 2.5 0 0 1 I I #
point $-1 -20 -35 10 #
End-of-ACIS-data 