**ABCDEFGHIJKLMNOPQRSTUVWXYZabcdefghijklmnopqrstuvwxyz**************************
**PARASOLID !"#$%&'()*+,-./:;<=>?@[\]^_`{|}~0123456789**************************
**PART1;MC=sun;MC_MODEL=Sun-3;MC_ID=unknown;OS=SunOS;OS_RELEASE=unknown;FRU=sdl_
parasolid_test_sun;APPL=unknown;SITE=sdl-cambridge-u.k.;USER=kramer;FORMAT=text;
GUISE=transmit;KEY=intermediate_1;FILE=intermediate_1.xmt_txt;DATE=16-oct-1990;
**PART2;SCH=SCH_210_1012;USFLD_SIZE=0;
**PART3;
**END_OF_HEADER*****************************************************************
T47 : TRANSMIT FILE created by modeller version 22012 SCH_210_10120 12 1 252 0 0
 0 0 0 1e3 1e-8 2 2 0 0 3 1 4 102 14 2 intermediate_113 4 2 0 1 0 5 6 7 8 9 10 1
4 5 111 0 11 0 12 4 8 -16 6 131 0 13 0 14 9 18 7 163 0 15 0 16 10 51 8 187 0 5 1
7 0 0 +3.26 1.54 0 0 0 1 .5 30 9 197 0 6 18 0 0 +5.26 3.95 0 0 0 1 29 10 229 0 7
 19 0 5.26 3.95 0 29 19 230 0 16 20 10 5.26 3.95 .5 18 16 164 0 21 7 22 19 29 20
 232 0 22 23 19 5.26 1.04 0 18 22 166 0 24 16 25 20 29 23 233 0 25 26 20 3.26 3.
95 0 18 25 167 0 27 22 28 23 29 26 235 0 28 29 23 2.76 1.54 0 18 28 169 0 30 25
 31 26 29 29 236 0 31 32 26 2.76 3.45 0 18 31 170 0 33 28 34 29 29 32 239 0 34 3
5 29 2.76 3.45 .5 18 34 173 0 36 31 37 32 29 35 240 0 37 38 32 2.76 1.54 .5 18 3
7 174 0 39 34 40 35 29 38 242 0 40 41 35 3.26 3.95 .5 18 40 176 0 42 37 43 38 29
 41 246 0 43 44 38 3.26 1.04 0 18 43 180 0 45 40 46 41 29 44 247 0 46 47 41 3.26
 1.04 .5 18 46 181 0 48 43 49 44 29 47 70 0 49 50 44 5.26 1.04 .5 18 49 68 0 51
 46 52 47 29 50 55 0 52 53 47 0 0 1.5 18 52 20 0 54 49 55 50 29 53 54 0 55 56 50
 0 4.99 1.5 18 55 18 0 57 52 58 53 29 56 53 0 58 59 53 5.26 4.99 1.5 18 58 16 0
 60 55 61 56 29 59 52 0 61 62 56 5.26 0 1.5 18 61 14 0 63 58 64 59 29 62 38 0 65
 66 59 0 0 0 18 65 8 0 67 68 69 62 29 66 37 0 68 70 62 0 4.99 0 18 68 10 0 71 64
 65 66 29 70 36 0 64 72 66 5.26 4.99 0 18 64 12 0 73 61 68 70 29 72 35 0 69 0 70
 5.26 0 0 18 69 7 0 74 65 0 72 17 74 75 63 76 69 77 78 15 75 29 0 63 79 0 17 63
 75 80 74 61 81 82 17 76 75 74 80 65 54 83 17 77 84 85 86 65 74 78 16 78 9 0 74
 87 88 89 16 87 11 0 67 90 78 91 16 88 3 0 92 78 0 93 30 89 39 0 78 0 93 0 +2.63
 0 0 1 0 0 30 93 40 0 88 89 94 0 +5.26 2.495 0 0 1 0 30 94 41 0 90 93 91 0 +2.63
 4.99 0 -1 0 0 16 90 13 0 71 82 87 94 30 91 42 0 87 94 95 0 +0 2.495 0 0 -1 0 30
 95 47 0 82 91 96 0 +5.26 0 0 0 0 1 16 82 15 0 63 97 90 95 30 96 48 0 97 95 98 0
 +5.26 4.99 0 0 0 1 16 97 17 0 60 99 82 96 30 98 49 0 99 96 100 0 +0 4.99 0 0 0
 1 16 99 19 0 57 83 97 98 30 100 50 0 83 98 101 0 +0 0 0 0 0 1 16 83 21 0 54 102
 99 100 30 101 56 0 102 100 103 0 +5.26 2.495 1.5 0 -1 0 16 102 22 0 104 105 83
 101 30 103 57 0 105 101 106 0 +2.63 4.99 1.5 1 0 0 16 105 25 0 107 108 102 103
 30 106 58 0 108 103 109 0 +0 2.495 1.5 0 1 0 16 108 28 0 110 111 105 106 30 109
 59 0 111 106 112 0 +2.63 0 1.5 -1 0 0 16 111 31 0 80 113 108 109 30 112 67 0 11
3 109 114 0 +5.26 2.495 0 0 1 0 16 113 65 0 73 115 111 112 30 114 75 0 115 112 1
16 0 +5.26 2.495 .5 0 -1 0 16 115 73 0 117 118 113 114 30 116 227 0 118 114 119
 0 +4.51 1.04 0 1 0 0 16 118 161 0 24 120 115 116 30 119 226 0 120 116 121 0 +3.
26 1.04 0 0 0 -1 16 120 160 0 122 123 118 119 30 121 223 0 123 119 124 0 +4.51 3
.95 .5 1 0 0 16 123 157 0 21 125 120 121 30 124 222 0 125 121 126 0 +2.76 2.495
 .5 0 1 0 16 125 156 0 127 128 123 124 31 126 221 0 128 124 129 0 +3.26 1.54 .5
 0 0 1 .5 16 128 155 0 130 131 125 126 31 129 220 0 131 126 132 0 +3.26 3.45 .5
 0 0 1 .5 16 131 154 0 133 134 128 129 30 132 214 0 134 129 135 0 +2.76 2.495 0
 0 -1 0 16 134 148 0 30 136 131 132 31 135 212 0 136 132 137 0 +3.26 1.54 0 0 0
 -1 .5 16 136 146 0 138 139 134 135 31 137 211 0 139 135 140 0 +3.26 3.45 0 0 0
 -1 .5 16 139 145 0 141 142 136 137 30 140 208 0 142 137 143 0 +3.26 3.95 0 0 0
 1 16 142 142 0 144 145 139 140 30 143 206 0 145 140 146 0 +2.76 1.54 0 0 0 1 16
 145 140 0 147 148 142 143 30 146 205 0 148 143 149 0 +2.76 3.45 0 0 0 -1 16 148
 139 0 150 151 145 146 30 149 203 0 151 146 152 0 +4.51 1.04 .5 -1 0 0 16 151 13
7 0 153 154 148 149 30 152 202 0 154 149 18 0 +5.26 1.04 0 0 0 -1 16 154 136 0 1
55 14 151 152 30 18 199 0 14 152 9 0 +4.51 3.95 0 -1 0 0 16 14 133 0 27 6 154 18
 17 27 84 33 156 25 157 14 15 84 98 0 27 158 0 17 33 84 30 27 31 141 139 17 156
 84 27 159 7 73 113 17 157 160 13 161 7 27 14 15 160 122 0 13 162 0 17 13 160 16
3 157 16 15 6 17 161 160 157 163 25 144 142 17 163 160 161 13 40 21 123 17 144 1
64 133 141 40 161 142 15 164 114 0 141 11 0 17 133 164 150 144 34 42 131 17 141
 164 144 150 25 33 139 17 150 164 141 133 31 36 148 17 36 165 166 167 34 150 148
 15 165 120 0 166 168 0 17 166 165 169 36 37 127 125 17 167 165 36 169 31 30 134
 17 169 165 167 166 28 147 145 17 30 84 45 33 28 167 134 17 45 84 24 30 43 138 1
36 17 24 84 86 45 22 170 118 17 138 12 147 122 28 45 136 15 12 112 0 138 5 0 17
 147 12 130 138 37 169 145 17 122 12 138 130 43 48 120 17 130 12 122 147 46 39 1
28 17 48 171 172 170 46 122 120 15 171 130 0 155 173 0 17 172 171 155 48 49 153
 151 17 170 171 48 155 43 24 118 17 155 171 170 172 22 51 154 17 51 174 175 92 4
9 155 154 15 174 77 0 15 176 0 17 175 174 15 51 16 117 115 17 92 174 51 81 22 86
 88 17 81 174 92 104 69 63 82 17 86 84 77 24 69 92 88 17 104 174 81 60 61 177 10
2 17 60 174 104 73 58 178 97 17 177 179 180 181 58 104 102 15 179 32 0 181 182 0
 17 180 179 183 177 55 107 105 17 181 179 177 183 61 80 111 17 183 179 181 180 5
2 110 108 17 80 75 76 63 52 181 111 17 110 184 185 54 55 183 108 15 184 26 0 54
 186 0 17 185 184 67 110 68 57 99 17 54 184 110 67 52 76 83 17 67 184 54 185 65
 85 87 17 85 84 159 77 68 67 87 17 159 84 156 85 64 71 90 17 71 187 57 178 68 15
9 90 15 187 23 0 57 188 0 17 57 187 107 71 55 185 99 17 178 187 71 107 64 60 97
 17 107 187 178 57 58 180 105 14 188 24 0 158 186 187 4 189 +14 158 6 0 176 188
 84 4 190 +14 186 27 0 188 79 184 4 191 +50 189 44 0 188 192 191 0 +2.63 4.99 0
 0 1 0 50 192 43 0 176 190 189 0 +5.26 2.495 0 1 0 0 50 191 45 0 186 189 193 0 +
0 2.495 0 -1 0 0 50 193 46 0 79 191 194 0 +2.63 0 0 0 -1 0 14 79 30 0 186 182 75
 4 193 +50 194 51 0 182 193 195 0 +2.63 2.495 1.5 0 0 1 14 182 33 0 79 173 179 4
 194 +50 195 196 0 173 194 196 0 +4.51 1.04 0 0 -1 0 14 173 129 0 182 197 171 4
 195 -50 196 195 0 197 195 198 0 +4.51 2.495 .5 0 0 1 14 197 127 0 173 162 199 4
 196 -50 198 192 0 162 196 200 0 +4.51 3.95 0 0 1 0 14 162 121 0 197 168 160 4 1
98 -50 200 191 0 168 198 17 0 +2.76 2.495 0 -1 0 0 14 168 119 0 162 11 165 4 200
 -51 17 188 0 11 200 8 0 +3.26 3.45 0 0 0 1 .5 14 11 113 0 168 5 164 4 17 -15 19
9 128 0 117 197 0 17 117 199 153 21 49 175 115 17 153 199 39 117 46 172 151 17 2
1 199 117 42 16 163 123 17 42 199 21 127 40 133 131 17 127 199 42 39 34 166 125
 17 39 199 127 153 37 130 128 14 176 1 0 0 158 174 4 192 +50 190 34 0 158 0 192
 0 +2.63 2.495 0 0 0 -1 17 73 174 60 15 64 156 113 17 15 174 73 175 7 13 6 1 0 
