  0
SECTION
  2
HEADER
  9
$ACADVER
  1
AC1009
  9
$INSBASE
 10
0.0
 20
0.0
 30
0.0
  9
$EXTMIN
 10
-1.0
 20
-1.0
 30
-0.148538
  9
$EXTMAX
 10
13.0
 20
8.0
 30
4.0
  9
$LIMMIN
 10
0.0
 20
0.0
  9
$LIMMAX
 10
12.0
 20
9.0
  9
$ORTHOMODE
 70
     0
  9
$REGENMODE
 70
     1
  9
$FILLMODE
 70
     1
  9
$QTEXTMODE
 70
     0
  9
$MIRRTEXT
 70
     1
  9
$DRAGMODE
 70
     2
  9
$LTSCALE
 40
1.0
  9
$OSMODE
 70
     0
  9
$ATTMODE
 70
     1
  9
$TEXTSIZE
 40
0.2
  9
$TRACEWID
 40
0.05
  9
$TEXTSTYLE
  7
STANDARD
  9
$CLAYER
  8
0
  9
$CELTYPE
  6
BYLAYER
  9
$CECOLOR
 62
   256
  9
$DIMSCALE
 40
1.0
  9
$DIMASZ
 40
0.18
  9
$DIMEXO
 40
0.0625
  9
$DIMDLI
 40
0.38
  9
$DIMRND
 40
0.0
  9
$DIMDLE
 40
0.0
  9
$DIMEXE
 40
0.18
  9
$DIMTP
 40
0.0
  9
$DIMTM
 40
0.0
  9
$DIMTXT
 40
0.18
  9
$DIMCEN
 40
0.09
  9
$DIMTSZ
 40
0.0
  9
$DIMTOL
 70
     0
  9
$DIMLIM
 70
     0
  9
$DIMTIH
 70
     1
  9
$DIMTOH
 70
     1
  9
$DIMSE1
 70
     0
  9
$DIMSE2
 70
     0
  9
$DIMTAD
 70
     0
  9
$DIMZIN
 70
     0
  9
$DIMBLK
  1

  9
$DIMASO
 70
     1
  9
$DIMSHO
 70
     1
  9
$DIMPOST
  1

  9
$DIMAPOST
  1

  9
$DIMALT
 70
     0
  9
$DIMALTD
 70
     2
  9
$DIMALTF
 40
25.4
  9
$DIMLFAC
 40
1.0
  9
$DIMTOFL
 70
     0
  9
$DIMTVP
 40
0.0
  9
$DIMTIX
 70
     0
  9
$DIMSOXD
 70
     0
  9
$DIMSAH
 70
     0
  9
$DIMBLK1
  1

  9
$DIMBLK2
  1

  9
$DIMSTYLE
  2
*UNNAMED
  9
$DIMCLRD
 70
     0
  9
$DIMCLRE
 70
     0
  9
$DIMCLRT
 70
     0
  9
$DIMTFAC
 40
1.0
  9
$DIMGAP
 40
0.09
  9
$LUNITS
 70
     2
  9
$LUPREC
 70
     4
  9
$SKETCHINC
 40
0.1
  9
$FILLETRAD
 40
0.0
  9
$AUNITS
 70
     0
  9
$AUPREC
 70
     0
  9
$MENU
  1
acad
  9
$ELEVATION
 40
0.0
  9
$PELEVATION
 40
0.0
  9
$THICKNESS
 40
0.0
  9
$LIMCHECK
 70
     0
  9
$BLIPMODE
 70
     1
  9
$CHAMFERA
 40
0.0
  9
$CHAMFERB
 40
0.0
  9
$SKPOLY
 70
     0
  9
$TDCREATE
 40
2449366.423633773
  9
$TDUPDATE
 40
2449366.423633773
  9
$TDINDWG
 40
0.0000000000
  9
$TDUSRTIMER
 40
0.0000000000
  9
$USRTIMER
 70
     1
  9
$ANGBASE
 50
0.0
  9
$ANGDIR
 70
     0
  9
$PDMODE
 70
     0
  9
$PDSIZE
 40
0.0
  9
$PLINEWID
 40
0.0
  9
$COORDS
 70
     1
  9
$SPLFRAME
 70
     0
  9
$SPLINETYPE
 70
     6
  9
$SPLINESEGS
 70
     8
  9
$ATTDIA
 70
     0
  9
$ATTREQ
 70
     1
  9
$HANDLING
 70
     1
  9
$HANDSEED
  5
182
  9
$SURFTAB1
 70
     6
  9
$SURFTAB2
 70
     6
  9
$SURFTYPE
 70
     6
  9
$SURFU
 70
     6
  9
$SURFV
 70
     6
  9
$UCSNAME
  2

  9
$UCSORG
 10
0.0
 20
0.0
 30
0.0
  9
$UCSXDIR
 10
1.0
 20
0.0
 30
0.0
  9
$UCSYDIR
 10
0.0
 20
1.0
 30
0.0
  9
$PUCSNAME
  2

  9
$PUCSORG
 10
0.0
 20
0.0
 30
0.0
  9
$PUCSXDIR
 10
1.0
 20
0.0
 30
0.0
  9
$PUCSYDIR
 10
0.0
 20
1.0
 30
0.0
  9
$USERI1
 70
     0
  9
$USERI2
 70
     0
  9
$USERI3
 70
     0
  9
$USERI4
 70
     0
  9
$USERI5
 70
     0
  9
$USERR1
 40
0.0
  9
$USERR2
 40
0.0
  9
$USERR3
 40
0.0
  9
$USERR4
 40
0.0
  9
$USERR5
 40
0.0
  9
$WORLDVIEW
 70
     1
  9
$SHADEDGE
 70
     3
  9
$SHADEDIF
 70
    70
  9
$TILEMODE
 70
     1
  9
$MAXACTVP
 70
    16
  9
$PINSBASE
 10
0.0
 20
0.0
 30
0.0
  9
$PLIMCHECK
 70
     0
  9
$PEXTMIN
 10
1.000000E+20
 20
1.000000E+20
 30
1.000000E+20
  9
$PEXTMAX
 10
-1.000000E+20
 20
-1.000000E+20
 30
-1.000000E+20
  9
$PLIMMIN
 10
0.0
 20
0.0
  9
$PLIMMAX
 10
12.0
 20
9.0
  9
$UNITMODE
 70
     0
  9
$VISRETAIN
 70
     0
  9
$PLINEGEN
 70
     0
  9
$PSLTSCALE
 70
     1
  9
$TREEDEPTH
 70
  3020
  9
$DWGCODEPAGE
  3
ascii
  0
ENDSEC
  0
SECTION
  2
TABLES
  0
TABLE
  2
VPORT
 70
     2
  0
VPORT
  2
*ACTIVE
 70
     0
 10
0.0
 20
0.0
 11
1.0
 21
1.0
 12
7.896686
 22
4.951264
 13
0.0
 23
0.0
 14
1.0
 24
1.0
 15
0.0
 25
0.0
 16
0.0
 26
0.0
 36
1.0
 17
0.0
 27
0.0
 37
0.0
 40
9.902529
 41
1.594883
 42
50.0
 43
0.0
 44
0.0
 50
0.0
 51
0.0
 71
     0
 72
   100
 73
     1
 74
     1
 75
     0
 76
     0
 77
     0
 78
     0
  0
ENDTAB
  0
TABLE
  2
LTYPE
 70
     1
  0
LTYPE
  2
CONTINUOUS
 70
    64
  3
Solid line
 72
    65
 73
     0
 40
0.0
  0
ENDTAB
  0
TABLE
  2
LAYER
 70
     2
  0
LAYER
  2
0
 70
    64
 62
     7
  6
CONTINUOUS
  0
LAYER
  2
AME_FRZ
 70
    65
 62
     7
  6
CONTINUOUS
  0
ENDTAB
  0
TABLE
  2
STYLE
 70
     1
  0
STYLE
  2
STANDARD
 70
     0
 40
0.0
 41
1.0
 50
0.0
 71
     0
 42
0.2
  3
txt
  4

  0
ENDTAB
  0
TABLE
  2
VIEW
 70
     0
  0
ENDTAB
  0
TABLE
  2
UCS
 70
     0
  0
ENDTAB
  0
TABLE
  2
APPID
 70
     3
  0
APPID
  2
ACAD
 70
    64
  0
APPID
  2
AME_SOL
 70
    64
  0
APPID
  2
AVE_INVOKE
 70
    64
  0
ENDTAB
  0
TABLE
  2
DIMSTYLE
 70
     0
  0
ENDTAB
  0
ENDSEC
  0
SECTION
  2
BLOCKS
  0
BLOCK
  8
0
  5
1
  2
AME_NIL
 70
    64
 10
0.0
 20
0.0
 30
0.0
  1
AME_NIL
  3
AME_NIL
  0
ENDBLK
  8
0
  5
2
  0
BLOCK
  8
0
  5
4
  2
AME_SOL
 70
    64
 10
0.0
 20
0.0
 30
0.0
  1
AME_SOL
  3
AME_SOL
  0
ENDBLK
  8
0
  5
5
  0
BLOCK
  8
0
  5
B5
  2
SOLAXES
 70
     0
 10
0.0
 20
0.0
 30
0.0
  1
SOLAXES
  3
SOLAXES
  0
LINE
  8
0
 62
     0
  5
B6
 10
0.0
 20
0.0
 30
0.0
 11
2.970759
 21
0.0
 31
0.0
  0
LINE
  8
0
 62
     0
  5
B7
 10
0.0
 20
0.0
 30
0.0
 11
0.0
 21
2.970759
 31
0.0
  0
LINE
  8
0
 62
     0
  5
B8
 10
0.0
 20
0.0
 30
0.0
 11
0.0
 21
0.0
 31
2.970759
  0
CIRCLE
  8
0
 62
     0
  5
B9
 10
0.0
 20
0.0
 30
2.673683
 40
0.148538
210
1.0
220
0.0
230
0.0
  0
LINE
  8
0
 62
     0
  5
BA
 10
2.673683
 20
0.148538
 30
0.0
 11
2.970759
 21
0.0
 31
0.0
  0
LINE
  8
0
 62
     0
  5
BB
 10
2.673683
 20
0.0
 30
0.148538
 11
2.970759
 21
0.0
 31
0.0
  0
LINE
  8
0
 62
     0
  5
BC
 10
2.673683
 20
-0.148538
 30
0.0
 11
2.970759
 21
0.0
 31
0.0
  0
LINE
  8
0
 62
     0
  5
BD
 10
2.673683
 20
0.0
 30
-0.148538
 11
2.970759
 21
0.0
 31
0.0
  0
CIRCLE
  8
0
 62
     0
  5
BE
 10
0.0
 20
0.0
 30
2.673683
 40
0.148538
210
0.0
220
1.0
230
0.0
  0
LINE
  8
0
 62
     0
  5
BF
 10
0.148538
 20
2.673683
 30
0.0
 11
0.0
 21
2.970759
 31
0.0
  0
LINE
  8
0
 62
     0
  5
C0
 10
0.0
 20
2.673683
 30
0.148538
 11
0.0
 21
2.970759
 31
0.0
  0
LINE
  8
0
 62
     0
  5
C1
 10
-0.148538
 20
2.673683
 30
0.0
 11
0.0
 21
2.970759
 31
0.0
  0
LINE
  8
0
 62
     0
  5
C2
 10
0.0
 20
2.673683
 30
-0.148538
 11
0.0
 21
2.970759
 31
0.0
  0
CIRCLE
  8
0
 62
     0
  5
C3
 10
0.0
 20
0.0
 30
2.376607
 40
0.148538
210
0.0
220
1.0
230
0.0
  0
LINE
  8
0
 62
     0
  5
C4
 10
0.148538
 20
2.376607
 30
0.0
 11
0.0
 21
2.673683
 31
0.0
  0
LINE
  8
0
 62
     0
  5
C5
 10
0.0
 20
2.376607
 30
0.148538
 11
0.0
 21
2.673683
 31
0.0
  0
LINE
  8
0
 62
     0
  5
C6
 10
-0.148538
 20
2.376607
 30
0.0
 11
0.0
 21
2.673683
 31
0.0
  0
LINE
  8
0
 62
     0
  5
C7
 10
0.0
 20
2.376607
 30
-0.148538
 11
0.0
 21
2.673683
 31
0.0
  0
CIRCLE
  8
0
 62
     0
  5
C8
 10
0.0
 20
0.0
 30
2.673683
 40
0.148538
  0
LINE
  8
0
 62
     0
  5
C9
 10
0.148538
 20
0.0
 30
2.673683
 11
0.0
 21
0.0
 31
2.970759
  0
LINE
  8
0
 62
     0
  5
CA
 10
0.0
 20
0.148538
 30
2.673683
 11
0.0
 21
0.0
 31
2.970759
  0
LINE
  8
0
 62
     0
  5
CB
 10
-0.148538
 20
0.0
 30
2.673683
 11
0.0
 21
0.0
 31
2.970759
  0
LINE
  8
0
 62
     0
  5
CC
 10
0.0
 20
-0.148538
 30
2.673683
 11
0.0
 21
0.0
 31
2.970759
  0
CIRCLE
  8
0
 62
     0
  5
CD
 10
0.0
 20
0.0
 30
2.376607
 40
0.148538
  0
LINE
  8
0
 62
     0
  5
CE
 10
0.148538
 20
0.0
 30
2.376607
 11
0.0
 21
0.0
 31
2.673683
  0
LINE
  8
0
 62
     0
  5
CF
 10
0.0
 20
0.148538
 30
2.376607
 11
0.0
 21
0.0
 31
2.673683
  0
LINE
  8
0
 62
     0
  5
D0
 10
-0.148538
 20
0.0
 30
2.376607
 11
0.0
 21
0.0
 31
2.673683
  0
LINE
  8
0
 62
     0
  5
D1
 10
0.0
 20
-0.148538
 30
2.376607
 11
0.0
 21
0.0
 31
2.673683
  0
CIRCLE
  8
0
 62
     0
  5
D2
 10
0.0
 20
0.0
 30
2.079531
 40
0.148538
  0
LINE
  8
0
 62
     0
  5
D3
 10
0.148538
 20
0.0
 30
2.079531
 11
0.0
 21
0.0
 31
2.376607
  0
LINE
  8
0
 62
     0
  5
D4
 10
0.0
 20
0.148538
 30
2.079531
 11
0.0
 21
0.0
 31
2.376607
  0
LINE
  8
0
 62
     0
  5
D5
 10
-0.148538
 20
0.0
 30
2.079531
 11
0.0
 21
0.0
 31
2.376607
  0
LINE
  8
0
 62
     0
  5
D6
 10
0.0
 20
-0.148538
 30
2.079531
 11
0.0
 21
0.0
 31
2.376607
  0
ENDBLK
  8
0
  5
D7
  0
BLOCK
  8
0
  5
109
  2
AME_JNK
 70
     0
 10
0.0
 20
0.0
 30
0.0
  1
AME_JNK
  3
AME_JNK
  0
ENDBLK
  8
0
  5
10A
  0
BLOCK
  8
0
  5
15A
  2
*U11
 70
    65
 10
0.0
 20
0.0
 30
0.0
  1
*U
  3
*U
  0
LINE
  8
0
 62
     7
  5
15B
 10
13.0
 20
8.0
 30
0.0
 11
13.0
 21
8.0
 31
4.0
1001
AME_SOL
1070
     1
1071
       41
  0
LINE
  8
0
 62
     7
  5
15C
 10
13.0
 20
8.0
 30
4.0
 11
13.0
 21
0.0
 31
4.0
1001
AME_SOL
1070
     1
1071
       40
  0
LINE
  8
0
 62
     7
  5
15D
 10
10.0
 20
8.0
 30
4.0
 11
13.0
 21
8.0
 31
4.0
1001
AME_SOL
1070
     1
1071
       39
  0
LINE
  8
0
 62
     7
  5
15E
 10
0.0
 20
8.0
 30
4.0
 11
3.0
 21
8.0
 31
4.0
1001
AME_SOL
1070
     1
1071
       38
  0
LINE
  8
0
 62
     7
  5
15F
 10
0.0
 20
8.0
 30
0.0
 11
0.0
 21
8.0
 31
4.0
1001
AME_SOL
1070
     1
1071
       37
  0
LINE
  8
0
 62
     7
  5
160
 10
0.0
 20
8.0
 30
4.0
 11
0.0
 21
0.0
 31
4.0
1001
AME_SOL
1070
     1
1071
       36
  0
LINE
  8
0
 62
     7
  5
161
 10
0.0
 20
0.0
 30
0.0
 11
0.0
 21
0.0
 31
4.0
1001
AME_SOL
1070
     1
1071
       35
  0
LINE
  8
0
 62
     7
  5
162
 10
13.0
 20
0.0
 30
4.0
 11
13.0
 21
0.0
 31
0.0
1001
AME_SOL
1070
     1
1071
       34
  0
LINE
  8
0
 62
     7
  5
163
 10
0.0
 20
0.0
 30
4.0
 11
13.0
 21
0.0
 31
4.0
1001
AME_SOL
1070
     1
1071
       33
  0
LINE
  8
0
 62
     7
  5
164
 10
0.0
 20
0.0
 30
0.0
 11
13.0
 21
0.0
 31
0.0
1001
AME_SOL
1070
     1
1071
       32
  0
LINE
  8
0
 62
     7
  5
165
 10
0.0
 20
8.0
 30
0.0
 11
0.0
 21
0.0
 31
0.0
1001
AME_SOL
1070
     1
1071
       31
  0
LINE
  8
0
 62
     7
  5
166
 10
13.0
 20
0.0
 30
0.0
 11
13.0
 21
8.0
 31
0.0
1001
AME_SOL
1070
     1
1071
       30
  0
LINE
  8
0
 62
     7
  5
167
 10
3.0
 20
8.0
 30
0.0
 11
0.0
 21
8.0
 31
0.0
1001
AME_SOL
1070
     1
1071
       29
  0
LINE
  8
0
 62
     7
  5
168
 10
13.0
 20
8.0
 30
0.0
 11
10.0
 21
8.0
 31
0.0
1001
AME_SOL
1070
     1
1071
       28
  0
ARC
  8
0
 62
     7
  5
169
 10
4.0
 20
4.0
 30
0.0
 40
1.0
 50
180.0
 51
270.0
1001
AME_SOL
1070
     1
1071
       27
  0
ARC
  8
0
 62
     7
  5
16A
 10
4.0
 20
4.0
 30
4.0
 40
1.0
 50
180.0
 51
270.0
1001
AME_SOL
1070
     1
1071
       26
  0
ARC
  8
0
 62
     7
  5
16B
 10
9.0
 20
4.0
 30
0.0
 40
1.0
 50
270.0
 51
0.0
1001
AME_SOL
1070
     1
1071
       25
  0
ARC
  8
0
 62
     7
  5
16C
 10
9.0
 20
4.0
 30
4.0
 40
1.0
 50
270.0
 51
0.0
1001
AME_SOL
1070
     1
1071
       24
  0
LINE
  8
0
 62
     7
  5
16D
 10
10.0
 20
8.0
 30
0.0
 11
10.0
 21
4.0
 31
0.0
1001
AME_SOL
1070
     1
1071
       23
  0
LINE
  8
0
 62
     7
  5
16E
 10
10.0
 20
4.0
 30
0.0
 11
10.0
 21
4.0
 31
4.0
1001
AME_SOL
1070
     1
1071
       22
  0
LINE
  8
0
 62
     7
  5
16F
 10
10.0
 20
8.0
 30
4.0
 11
10.0
 21
8.0
 31
0.0
1001
AME_SOL
1070
     1
1071
       21
  0
LINE
  8
0
 62
     7
  5
170
 10
10.0
 20
4.0
 30
4.0
 11
10.0
 21
8.0
 31
4.0
1001
AME_SOL
1070
     1
1071
       20
  0
LINE
  8
0
 62
     7
  5
171
 10
3.0
 20
4.0
 30
0.0
 11
3.0
 21
8.0
 31
0.0
1001
AME_SOL
1070
     1
1071
       19
  0
LINE
  8
0
 62
     7
  5
172
 10
3.0
 20
4.0
 30
0.0
 11
3.0
 21
4.0
 31
4.0
1001
AME_SOL
1070
     1
1071
       18
  0
LINE
  8
0
 62
     7
  5
173
 10
3.0
 20
8.0
 30
0.0
 11
3.0
 21
8.0
 31
4.0
1001
AME_SOL
1070
     1
1071
       17
  0
LINE
  8
0
 62
     7
  5
174
 10
3.0
 20
8.0
 30
4.0
 11
3.0
 21
4.0
 31
4.0
1001
AME_SOL
1070
     1
1071
       16
  0
LINE
  8
0
 62
     7
  5
175
 10
9.0
 20
3.0
 30
0.0
 11
4.0
 21
3.0
 31
0.0
1001
AME_SOL
1070
     1
1071
       15
  0
LINE
  8
0
 62
     7
  5
176
 10
4.0
 20
3.0
 30
0.0
 11
4.0
 21
3.0
 31
4.0
1001
AME_SOL
1070
     1
1071
       14
  0
LINE
  8
0
 62
     7
  5
177
 10
4.0
 20
3.0
 30
4.0
 11
9.0
 21
3.0
 31
4.0
1001
AME_SOL
1070
     1
1071
       13
  0
LINE
  8
0
 62
     7
  5
178
 10
9.0
 20
3.0
 30
0.0
 11
9.0
 21
3.0
 31
4.0
1001
AME_SOL
1070
     1
1071
       12
  0
LINE
  8
0
 62
     7
  5
179
 10
3.0
 20
4.0
 30
0.0
 11
3.0
 21
4.0
 31
4.0
1001
AME_SOL
1070
     0
1071
        5
  0
LINE
  8
0
 62
     7
  5
17A
 10
4.0
 20
3.0
 30
0.0
 11
4.0
 21
3.0
 31
4.0
1001
AME_SOL
1070
     0
1071
        5
  0
LINE
  8
0
 62
     7
  5
17B
 10
9.0
 20
3.0
 30
0.0
 11
9.0
 21
3.0
 31
4.0
1001
AME_SOL
1070
     0
1071
        4
  0
LINE
  8
0
 62
     7
  5
17C
 10
10.0
 20
4.0
 30
0.0
 11
10.0
 21
4.0
 31
4.0
1001
AME_SOL
1070
     0
1071
        4
  0
ENDBLK
  8
0
  5
17D
  0
ENDSEC
  0
SECTION
  2
ENTITIES
  0
INSERT
  8
AME_FRZ
  5
3
  2
AME_NIL
 10
0.0
 20
0.0
 30
0.0
  0
INSERT
  8
AME_FRZ
  5
6
  2
AME_SOL
 10
0.0
 20
0.0
 30
0.0
1001
AME_SOL
1000
R2.1
1000
AME2
1000
sq cm
1070
     3
1070
     0
1070
     3
1000
wire
1040
45.0
1000
U
1040
1.0
1000
cm
1000
gm
1000
MILD_STEEL
1070
    25
1000
CSG
1070
     1
1070
     3
1070
     3
1070
     3
1070
     0
1000
cu cm
1070
     1
1070
     0
1005
3
  0
INSERT
  8
AME_FRZ
  5
82
  2
AME_NIL
 10
4.0
 20
4.0
 30
0.0
1001
AME_SOL
1002
{
1070
     1
1071
  2413992
1070
  1538
1070
     1
1010
1.0
1020
1.0
1030
4.0
1005
0
1005
0
1005
EA
1040
0.0
1040
1.0
1070
     0
1000
MILD_STEEL
1000
0
1010
4.0
1020
4.0
1030
0.0
1010
0.0
1020
0.0
1030
1.0
1040
0.0
1002
}
  0
INSERT
  8
AME_FRZ
  5
B2
  2
AME_NIL
 10
9.0
 20
4.0
 30
0.0
1001
AME_SOL
1002
{
1070
     1
1071
  2420856
1070
  1538
1070
     1
1010
1.0
1020
1.0
1030
4.0
1005
0
1005
0
1005
EA
1040
0.0
1040
1.0
1070
     0
1000
MILD_STEEL
1000
0
1010
9.0
1020
4.0
1030
0.0
1010
0.0
1020
0.0
1030
1.0
1040
0.0
1002
}
  0
INSERT
  8
AME_FRZ
  5
E7
  2
AME_NIL
 10
0.0
 20
0.0
 30
0.0
1001
AME_SOL
1002
{
1070
     1
1071
  2433808
1070
  1536
1070
     1
1010
13.0
1020
8.0
1030
4.0
1005
0
1005
0
1005
106
1040
0.0
1040
1.0
1070
     0
1000
MILD_STEEL
1000
0
1010
0.0
1020
0.0
1030
0.0
1010
0.0
1020
0.0
1030
1.0
1040
0.0
1002
}
1001
AVE_INVOKE
1000
SOLAVEMESH
  0
INSERT
  8
AME_FRZ
  5
EA
  2
AME_NIL
 10
0.0
 20
0.0
 30
0.0
1001
AME_SOL
1002
{
1070
     1
1071
  2454208
1070
   775
1070
     0
1070
     2
1005
82
1005
B2
1005
0
1005
0
1005
106
1040
0.0
1040
1.0
1070
     0
1000
MILD_STEEL
1000
0
1010
0.0
1020
0.0
1030
0.0
1010
0.0
1020
0.0
1030
1.0
1040
0.0
1002
}
  0
INSERT
  8
AME_FRZ
  5
106
  2
AME_NIL
 10
0.0
 20
0.0
 30
0.0
1001
AME_SOL
1002
{
1070
     1
1071
  2456704
1070
  1543
1070
     1
1070
     0
1005
E7
1005
EA
1005
0
1005
0
1005
144
1040
0.0
1040
1.0
1070
     0
1000
MILD_STEEL
1000
0
1010
0.0
1020
0.0
1030
0.0
1010
0.0
1020
0.0
1030
1.0
1040
0.0
1002
}
1001
AVE_INVOKE
1000
SOLAVEMESH
  0
INSERT
  8
AME_FRZ
  5
11A
  2
AME_NIL
 10
3.0
 20
4.0
 30
0.0
1001
AME_SOL
1002
{
1070
     1
1071
  2442400
1070
  1536
1070
     1
1010
7.0
1020
4.0
1030
4.0
1005
0
1005
0
1005
144
1040
0.0
1040
1.0
1070
     0
1000
MILD_STEEL
1000
0
1010
3.0
1020
4.0
1030
0.0
1010
0.0
1020
0.0
1030
1.0
1040
0.0
1002
}
1001
AVE_INVOKE
1000
SOLAVEMESH
  0
INSERT
  8
AME_FRZ
  5
144
  2
AME_NIL
 10
0.0
 20
0.0
 30
0.0
1001
AME_SOL
1002
{
1070
     1
1071
  2489520
1070
  1543
1070
     1
1070
     0
1005
106
1005
11A
1005
0
1005
0
1005
17E
1040
0.0
1040
1.0
1070
     0
1000
MILD_STEEL
1000
0
1010
0.0
1020
0.0
1030
0.0
1010
0.0
1020
0.0
1030
1.0
1040
0.0
1002
}
1001
AVE_INVOKE
1000
SOLAVEMESH
  0
INSERT
  8
AME_FRZ
  5
156
  2
AME_NIL
 10
4.0
 20
3.0
 30
0.0
1001
AME_SOL
1002
{
1070
     1
1071
  2423992
1070
  1536
1070
     1
1010
5.0
1020
5.0
1030
4.0
1005
0
1005
0
1005
17E
1040
0.0
1040
1.0
1070
     0
1000
MILD_STEEL
1000
0
1010
4.0
1020
3.0
1030
0.0
1010
0.0
1020
0.0
1030
1.0
1040
0.0
1002
}
1001
AVE_INVOKE
1000
SOLAVEMESH
  0
INSERT
  8
0
  5
17E
  2
*U11
 10
0.0
 20
0.0
 30
0.0
1001
AME_SOL
1002
{
1070
     1
1071
  2486336
1070
  1543
1070
     1
1070
     0
1005
144
1005
156
1005
0
1005
17F
1005
0
1040
0.0
1040
1.0
1070
     0
1000
MILD_STEEL
1000
0
1002
}
1001
AVE_INVOKE
1000
SOLAVEMESH
  0
INSERT
  8
AME_FRZ
  5
17F
  2
AME_NIL
 10
1.0
 20
1.0
 30
1.0
1001
AME_SOL
1004
C7CF01000B018501840182017E01760169015A014801FB006A00490134010400FD0035014400FC005B014A013601A8005F0037011A002D004B010F003801270142001D011C00F800AB006A015C01800071005D01C0004C013901D800B0003A01EF0028011E01890048001F011101A9000A00280077011000
1004
6B015E018300DF005F014D01090088004E010C003B011D001F007F0178016C01600127004F01EE00A4006101500182003C011800E0009600FF0079016D014F00E2006E013F0062015101E8003D011400EA0052013E012901F9004D002A0120014300120112001900210113013300DD001401410078003F01
1004
2B012201150101010001850002010B00FA00160103011B0025000401F6003000230117010501CD00C80006018A00C60018010701C30091000801520094002C012401190109019500BC000A01BB0098001A010B019900B7000C01B6006F0025011B010D019A009B000E016C009C001C010F01B500B3001001
1004
A000B200830180017A016F01FE00010070016301750053014E00030054007B01710102006401540140012400870041012D012200BA002E01CC00C100550142012F01CB00B40007004301B80030019F00D50072012000260081017C017301BF00F0007401650184009000660156014401310158008E007000
1004
3B002A007D01400075016701570157006000580145010500860046013201F700F2003301C40026012900230068010800590121004701DB00D90000003DA59ED2C3F001181CA52E7EE7B0FC547922C6A0626D582458D40C4DAB048B1A8189B560414A41BBE6EE1052906EF9673F1A8189884E47803DA04B0D
1004
AA3CBC0D06730DAA3CBC0D56B89163503136AC082948377CAA381C7B80AAF02167CE7E350313109C8DA25360AE5E52E8CFD1DA257FB277FFFFFFFFEC9DF89DFBE77FBD3FFFFFFFFFED12BFD93BFFFFFFFFF64EFC4EFDF3BFDE9FFFFFFFFFD96001ED02586D51E5E06AB5CC36A8F2F03419C48B1A8189B560
1004
1C7B80AAF02167CE1052906EF9673F1A8189884E46D129CABAF297467EF476895FFFFFEC9DFFFB277FFEF9DF89DFEF4FFFFFFFFFFB44AFFFFFF64EFFFD93BFFF7CEFC4EFF7A7FFFFFFFFF658007B40965B18715F7B1EFB986D51E5E0683389163503136AC082948377CA87082948377CB39F8D40C4C42723
1004
6895555794BA33F6A3B44AFF84FD963F84FE13F84FD963F543BF59DF89CF4FFFFFFFFFFB44AFF84FD963F84FE13F84FD963F543BF59DF89CF4FFFFFFFFFECB000F68124B1F221D078787EE61B5479781AAD7122C6A0626D581052906EF950E58D40C4C47A73F1A8189884E467B4A572B2BCA5D1B0A67B4AF
1004
F64EFFFFFFFD93BFFF551DF89DFEF4FEC9DFB277FFFFF9ED2BFD93BFFFFFFF64EFFFD5477E277FBD3FB277EC9DFFFFFB2C1F27BF2693FD93BFFFFFFF64EFF40A5294AFCEFCF4EFF523CFF1C4B017F0C1A3CFF1C4B017F0C04A3FCF93DA3C9A4FF64EFFFFFFFD93BFFF543BF13BFD48F3FC712C05FC3068F3
1004
FC712C05FC3013FEA71E7F8E2580BF860DFFFC4E1E7F8E2580BF860251FFFF89CA4FB80A529FDD02951FFFF89C7C9ED4E4D27FB277FFFFFFEC9DFE814A5295F9DFBE77FA91E7F8E2580BF860D1E7F8E2580BF86027FD4E3CFF1C4B017F0C1BFFF89C3CFF1C4B017F0C04A3FFFF13949F614A53EE0294A8FF
1004
FFC4E3E4F697C9A4FF64EFFFFFFFD93BFFF59CFBE277FA91E7F8E2580BF860D1E7F8E2580BF860251FE00F6812C36A8F2F0355AE61B5479781AAD7122C6A0626D5858D40C4C47A72C6A062623D39F8D40C4C427233DA51E345E52E8DEFA5E7B4AFF64EFFFFFFFD93BFFF13BF13BFDE9FD93BF64EFFFFFF3D
1004
A57FB277FFFFFFEC9DFFF89DF89DFEF4FEC9DFB277FFFFECB07C9EFC9A4FF64EFFFFFFFD93BFC1D94A529419DF9E9DFEA479FE389602FE183479FE389602FE180947F9F27B479349FEC9DFFFFFFFB277FFE7A77E277FA91E7F8E2580BF860D1E7F8E2580BF860251FE7C9ED4E4D27FB277FFFFFFEC9DFE0E
1004
CA5294A0CEFDF3BFD48F3FC712C05FC3068F3FC712C05FC3013FEA71E7F8E2580BF860DFFFC4E1E7F8E2580BF860251FFFF89CA4FB40E529F614A547FFFE271F27B4BE4D27FB277FFFFFFEC9DFFFBE73EF89DFEA479FE389602FE183479FE389602FE1809FF538F3FC712C05FC306FFFE270F3FC712C05FC
1004
30128FFFFC4E527FA40A53ED0394A8FFFFC4E007B43F648B1A8189B5609163503136AC122C6A0626D581052906EF9BB8414A41BBE59C48B1A8189B5391B44A3C18BD1E8CFD497B44AFFFF64EFFFD93BFFFFFFFFFDE9FFFFFFFFFF6895FFFEC9DFFFB277FFFFFFFFFBD3FFFFFFFFFB27003DA04922C6A0626
1004
D582458D40C4DAB048B1A8189B560414A41BBE6EE2458D40C4DA9CFC6A062621391B44A08AC2F47A30F897B44AFF64EFFFFFFFFFD93BFFFFFDE9FFFFFFFFFF6895FEC9DFFFFFFFFFB277FFFFFBD3FFFFFFFFFB27003DA04922C6A0626D582458D40C4DAB048B1A8189B5609163503136A7082948377CB39F
1004
8D40C4C427236894F9565E8F463A97B44AFFFFFF64EFFFD93BFFFFFFFDE9FFFFFFFFFF6895FFFFFEC9DFFFB277FFFFFFFBD3FFFFFFFFFB27003DA1FB2458D40C4DAB048B1A8189B56186D51E5E068338414A41BBE6EE1052906EF9673F1A8189884E46D129B2F55E8F46A94BDA257FB2C7F09FC27F09FB2C
1004
7F09FB777EB3BF139E9FFFFFFFFFF6895FECB1FC27F09FC27ECB1FC27EDDDFACEFC4E7A7FFFFFFFFF64E007B5F49163503136AC12C7C88741E1E1FB89163503136AC082948377CDDC20A520DDF2CE7E350313109C8DA250EAA57A3D1BD52F6895FF09FC27ECB1FB2C7F09FC27EDDDFACEFC4E7A7FFFFFFFF
1004
FDA257FC27F09FB2C7ECB1FC27F09FB777EB3BF139E9FFFFFFFFFD93801ED02596C61C57DEC7BCE2458D40C4DAB048B1A8189B560414A41BBE6EE1052906EF9673F1A8189884E46D12830EAF47A33F0A5ED12BFE13F658FE13F84FE13F658FDBBBF59DF89CF4FFFFFFFFFFB44AFF84FD963F84FE13F84FD9
1004
63F6EEFD677E273D3FFFFFFFFFB27119112C7C88741E1E1FB986D51E5E06AB5C48B1A8189B560414A41BBE551C0E3DC0557810B3E73F1A8189884EFFFC4E524D207D0F8BD194A8DB0572F572B2BF52D82B97AB9595E5294A5294A4D27FB277FFFFFFEC9DFFFAA8EFDF3BFD4FFFE27119130DAA3CBC0D0673
1004
0DAA3CBC0D56B986D51E5E068338414A41BBE551C0E3DC0557810B3E73F1A8189884EFCFA837E4B3949348781F17E8CA56C15CBDB2F55FA96CBD57B60AE5E8F294A52693FFFFFD93BFFF658FFFDF9DFBE77E2729FCFA837E4B388C8986D51E5E06833986D51E5E06AB5C48B1A8189B561635031311E9C0E3
1004
DC0557810B3E73F1A8189884EFFFC4E524D21F9CFCCBD1A3295B0572F3C68BF5278D17B60AE5E5294A5294A4D27FB277FFFFFFEC9DFFF89DFBE77FA9FFFC4E232261B5479781A0CE61B5479781AAD7122C6A0626D581052906EF9547038F70155E042CF9C48B1A8189B53BF0741BF86524D238FC6BF4652B
1004
60AE5E78317EA4F062F6C15CBD1E5294A4D27FFFFFB2C7FFECB1FFFDDFBE77FA9FC1D06FE188C8986D51E5E06AB5CC36A8F2F03419CC36A8F2F03419C7D1EE02ABC0859F38414A41BBE59CFC6A0626213BF86FEE524D2128F443A3295CABAF6CBD57EA5B2F55EE55D7A3CA52949A4FFFFFF64EFD963FFFFF
1004
7CEFC94EFC4E53FC37F7119130DAA3CBC0D56B8963E443A0F0F0FDC3163503136AC1F47B80AAF02167CE1052906EF9673F1A8189884EFE1BFB9493487FE0CBF4652B9575E3AA95FA91D54AF72AEBD1E5294A4D27FFFB277FFECB1FFFFFBE77EB3BFB94FF0DFDC4644C36A8F2F0355AE61B5479781A0CE18B
1004
1A8189B560FA3DC0557810B3E72C6A062623D39F8D40C4C4277FFE27292691C7FC5E8CA546E55D79E345FA972AEBCF1A2F294A5294A52693FD93BFFFFFFF64EFFFDF3BF13BFD4FFFE27119130DAA3CBC0D56B986D51E5E06833862C6A0626D583E8F70155E042CF9C20A520DDF2CE18B1A8189B53BFBBF25
1004
3949348C9FF57E8CA572AEBCF062FD49E0C5EE55D7A3CA52949A4FFFFFF658FD963FFFFF7CEFEEFF53FDDF929C4644CB630E2BEF63DF730DAA3CBC0D06730DAA3CBC0D067082948377CA87082948377CB39F8D40C4C4277E20DFC2292690FD27F65FA3296AAAF6CBD57EA5B2F55F5557A3CA52949A4FFFFF
1004
F64EFD93BFFFFF543BF59DF89CA7F106FE108C8996C61C57DEC7BEE258F910E83C3C3F70C58D40C4DAB020A520DDF2A1C20A520DDF2CE7E350313109DFFF89CA49A4571FD57E8CA5AAABC7552BF523AA95F5557A3CA52949A4FFFF64EFFFD93BFFFFF543BF59DF89CA7FFF1388C8996C61C57DEC7BEE61B5
1004
479781A0CE18B1A8189B560414A41BBE5439635031311E9CFC6A0626213BFFF13949348F8FE4BD1A3296AAAF572B2BF52AE5657D555E5294A5294A4D27FB277FFFFFFEC9DFFFAA1DF89DFEA7FFF1388C8996C61C57DEC7BEE61B5479781A0CE18B1A8189B560414A41BBE5438414A41BBE59C3163503136A
1004
77E20DFC2292690947F15FA3296AAAF3C18BF5278317D555E8F294A52693FFFFFD963F64EFFFFFD50EFC4EFF53F8837F0846444B1F221D078787EE61B5479781AAD730DAA3CBC0D067082948377CA872C6A062623D39F8D40C4C42712816064C01F8F863FD481D20E9FFCFCBD194AAE5657B65EABF52D97A
1004
AF572B2BD1E5294A0749FEC9DFFFFFFFB277FFEAA3BF13BF13809FD93BF64E2502C0C9803F1F0C7F919112C7C88741E1E1FB986D51E5E06AB5CD163503136AC082948377CA872C6A062623D39A2C6A0626D4E2502C0C9803F1F0C7FA903A47C221CA546AE56579E0C5FA9572B2BCF062F294A54781D27FB2
1004
77FFFFFFEC9DFFFAA8EFC4EFF027F64EFD938940B032600FC7C31FE4644C36A8F2F0355AE61B5479781AAD730DAA3CBC0D0672C6A062623D39635031311E9CFC6A062621383F82C0C9803F0E062502C0C9803F1F0C2903A40E1FB17E8CA53C68BDB2F55FA96CBD579E345E8F294A503A4FF64EFFFFFFFD93
1004
BFFF13BF13BF13809FD93BF64E0FE0B032600FC3818940B032600FC7C304644C36A8F2F0355AE61B5479781AAD73458D40C4DAB0B1A818988F4E58D40C4C47A73458D40C4DA9C1FC16064C01F870312816064C01F8F861481D203B7B97E52A33C68BCF062FD49E345E7831794A52A3C0E93FD93BFFFFFFF6
1004
4EFFFC4EFC4EFF027F64EFD9383F82C0C9803F0E062502C0C9803F1F0C11913458D40C4DAB04B1F221D078787EE68B1A8189B560414A41BBE6EE1052906EF9673458D40C4DA9DF82837E3C19493484A3F5AFCA546783178EAA57EA4F062F1D54AF47A3C9A4FFFF64EFFFFFFFD963F053BF59DFEA7F0506FC
1004
78311913458D40C4DAB04B1F221D078787EE68B1A8189B560414A41BBE6EE1052906EF9673458D40C4DA9DF8F3BF053949348D81F590E52A33C18BC7552BF52783178EAA57A3D1E4D27FFFB277FFFFFFECB1F829DFACEFF53F8F3BF05388C8996C61C57DEC7BCE68B1A8189B561A2C6A0626D581052906EF
1004
9BB8414A41BBE59CD163503136A77E20DF89CA49A40FA0A21CA54678317861D5FA93C18BC30EAF47A3C9A4FF64EFFFFFFFFFD963F6EEFC4EFF53F8837E2711913458D40C4DAB0D163503136AC3458D40C4DAB0D163503136A7082948377CB39A2C6A0626D4EFD60DFC2292690FBCFC84394A8CF062F7CAB2
1004
FD49E0C5EF9565E8F479349FECB1FFFFFFFFFB2C7FFFFFA9FD60DFC211913458D40C4DAB0D163503136AC3458D40C4DAB020A520DDF3773458D40C4DA9CD163503136A77FFEDDCA49A40403A21CA54678317845617EA4F062F08AC2F47A3C9A4FFFF658FFFFFFFD963FFFFFD4FFFEDDC4644D163503136AC
1004
3458D40C4DAB0C36A8F2F03419C20A520DDF3773458D40C4DA9CFC6A0626213BF0506FC14E524D20707C4394A8C22B0BDB2F55FA908AC2F6CBD57A3D1E4D27FFFFFB277FFECB1FFF829DFFF89CA7F0506FC14E232265B18715F7B1EF39A2C6A0626D5868B1A8189B560414A41BBE6EE68B1A8189B539F8D4
1004
0C4C4277F0DFDCA49A47C3F21CA54611585E18757EA422B0BC30EAF47A3C9A4FF64EFFFFFFFD963FFF6EEFFFEE53FC37F711913458D40C4DAB0D163503136AC3458D40C4DAB0D163503136A73458D40C4DA9CFC6A0626213BFFF13949348AE3F82FCA54611585EF9565FA908AC2F7CAB2F47A3C9A4FF658F
1004
FFFFFFD963FFFFFFFD4FFFE2711913458D40C4DAB0D163503136AC30DAA3CBC0D0673458D40C4DA9C20A520DDF2CE7E350313109DF8837E27292690F09AFCA546F9565ED97AAFD4BE5597B65EABD1E8F2693FFFFFD93BF658FFFFFFFC4EFC4E53F8837E2711913458D40C4DAB04B1F221D078787EE68B1A8
1004
189B561A2C6A0626D4E1052906EF9673F1A8189884EFE1BFB9493484A3F9AFCA546F9565E3AA95FA97CAB2F1D54AF47A3C9A4FFFF64EFFFD963FFFFFFF59DFDCA7F86FEE232268B1A8189B560963E443A0F0F0FDCC36A8F2F03419C20A520DDF377082948377CB39F8D40C4C4277EDC37EA80CA49A40FA7F
1004
45F94A8DB2F55E3AA95FA96CBD578EAA57A3D1E4D27FFFB277FFFFFFEC9DFB777EB3BF1394FEDC37EA80C4644D163503136AC12C7C88741E1E1FB986D51E5E068338414A41BBE6EE1052906EF9673F1A8189884EFDF06FE11493487DE7F85F94A8DB2F55E3AA95FA96CBD578EAA57A3D1E4D27FFFB277FFF
1004
FFFEC9DFB777EB3BF1394FEF837F084644CB630E2BEF63DE73458D40C4DAB0C36A8F2F03419C20A520DDF377082948377CB39F8D40C4C4277FFEB3949348083FCAFCA546D97AAF0C3ABF52D97AAF0C3ABD1E8F2693FD93BFFFFFFFFF64EFDBBBF59DF89CA7FFF59C4644CB630E2BEF63DE712C7C88741E1E
1004
1FB9A2C6A0626D581052906EF9BB8414A41BBE59CFC6A0626213BF106FE11493481C3FDAFCA5463AA95E18757EA47552BC30EAF47A3C9A4FF64EFFFFFFFD93BFFF6EEFD677E2729FC41BF843EB039F83
1005
180
  0
INSERT
  8
AME_FRZ
  5
180
  2
AME_NIL
 10
1.0
 20
1.0
 30
1.0
1001
AME_SOL
1004

1005
0
  0
ENDSEC
  0
EOF
