600 0 1 0           
116 GICL Pro/E ACIS Translator - Source: f:/data5/repository/PTC/V20/web_demos/models/adv_turn_tools/turn_rp.prt.6 - 6 0 13 ACIS 6.0.3 NT 24 Thu Apr 04 13:09:40 2002 
1 9.9999999999999995e-007 1e-010 
body $-1 $1 $-1 $2 #
lump $-1 $-1 $3 $0 #
transform $-1 1 0 0 0 1 0 0 0 1 0 0 0 25.399999999999999 no_rotate no_reflect no_shear #
shell $-1 $-1 $-1 $4 $-1 $1 #
face $-1 $5 $6 $3 $-1 $7 reversed single #
face $-1 $8 $9 $3 $-1 $10 forward single #
loop $-1 $-1 $11 $4 #
plane-surface $-1 0 0 0 0 0 1 1 0 0 forward_v I I I I #
face $-1 $12 $13 $3 $-1 $14 forward single #
loop $-1 $-1 $15 $5 #
cone-surface $-1 0 0 0 0 0 1 4 0 0 1 I I 0 1 4 forward I I I I #
coedge $-1 $16 $16 $17 $18 reversed $6 $-1 #
face $-1 $19 $20 $3 $-1 $21 forward single #
loop $-1 $-1 $22 $8 #
cone-surface $-1 0 0 4.9499999999997035 0 0 1 1.0000000000000739 0 0 1 I I -0.70710678118657366 0.70710678118652137 1.0000000000000739 forward I I I I #
coedge $-1 $23 $24 $25 $26 reversed $9 $-1 #
coedge $-1 $11 $11 $27 $28 reversed $6 $-1 #
coedge $-1 $24 $23 $11 $18 forward $9 $-1 #
edge $-1 $29 0 $30 3.1415926535897931 $11 $31 forward 7 unknown #
face $-1 $32 $33 $3 $-1 $34 reversed single #
loop $-1 $-1 $35 $12 #
cone-surface $-1 0 0 4.9499999999997035 0 0 1 1.0000000000000739 0 0 1 I I -0.70710678118657366 0.70710678118652137 1.0000000000000739 forward I I I I #
coedge $-1 $36 $25 $37 $38 forward $13 $-1 #
coedge $-1 $17 $15 $39 $40 reversed $9 $-1 #
coedge $-1 $15 $17 $41 $42 forward $9 $-1 #
coedge $-1 $22 $43 $15 $26 forward $13 $-1 #
edge $-1 $44 0 $45 3.1415926535897927 $15 $46 forward 7 unknown #
coedge $-1 $39 $41 $16 $28 forward $47 $-1 #
edge $-1 $30 0 $29 3.1415926535897931 $16 $48 forward 7 unknown #
vertex $-1 $28 $49 #
vertex $-1 $28 $50 #
ellipse-curve $-1 0 0 0 0 0 1 -4 0 0 1 I I #
face $-1 $51 $52 $3 $-1 $53 forward single #
loop $-1 $54 $55 $19 #
plane-surface $-1 0 0 2.016120722071264 0 0 -1 1 0 0 forward_v I I I I #
coedge $-1 $56 $57 $43 $58 forward $20 $-1 #
coedge $-1 $43 $22 $59 $60 forward $13 $-1 #
coedge $-1 $57 $56 $22 $38 reversed $20 $-1 #
edge $-1 $45 4.7102773760511354e-016 $61 0.093508821907088091 $22 $62 forward 7 unknown #
coedge $-1 $63 $27 $23 $40 forward $47 $-1 #
edge $-1 $29 0 $44 1.9499999999999993 $39 $64 forward 7 unknown #
coedge $-1 $27 $63 $24 $42 reversed $47 $-1 #
edge $-1 $30 0 $45 1.95 $41 $65 forward 7 unknown #
coedge $-1 $25 $36 $35 $58 reversed $13 $-1 #
vertex $-1 $66 $67 #
vertex $-1 $42 $68 #
ellipse-curve $-1 4.4408920985006262e-016 6.6613381477509392e-016 1.9499999999999993 0 0 1 -4 -1.1559763563040448e-015 0 1 I I #
loop $-1 $-1 $27 $69 #
ellipse-curve $-1 0 0 0 0 0 1 4 0 0 1 I I #
point $-1 -4 0 0 #
point $-1 4 0 0 #
face $-1 $70 $71 $3 $-1 $72 forward single #
loop $-1 $-1 $73 $32 #
cone-surface $-1 0 0 10.4025 0 0 -1 3.75 0 0 1 I I 0 1 3.75 forward I I I I #
loop $-1 $-1 $74 $19 #
coedge $-1 $59 $59 $56 $75 forward $33 $-1 #
coedge $-1 $37 $35 $55 $75 reversed $20 $-1 #
coedge $-1 $35 $37 $63 $66 forward $20 $-1 #
edge $-1 $44 9.4205547521027895e-016 $76 0.093508821907089035 $43 $77 forward 7 unknown #
coedge $-1 $55 $55 $36 $60 reversed $33 $-1 #
edge $-1 $61 0 $76 3.1415926535897931 $36 $78 forward 7 unknown #
vertex $-1 $60 $79 #
straight-curve $-1 4 0 1.9499999999999993 -0.70710678118657611 0 0.70710678118651904 I I #
coedge $-1 $41 $39 $57 $66 reversed $47 $-1 #
straight-curve $-1 -4 4.898425415289509e-016 0 0 0 1 I I #
straight-curve $-1 4 0 0 0 0 1 I I #
edge $-1 $45 0 $44 3.1415926535897931 $63 $80 forward 7 unknown #
point $-1 -4 -4.898425415289509e-016 1.9499999999999993 #
point $-1 4 0 1.95 #
face $-1 $-1 $47 $3 $-1 $81 forward single #
face $-1 $82 $83 $3 $-1 $84 forward single #
loop $-1 $85 $86 $51 #
plane-surface $-1 0 0 2.3161207220712647 0 0 -1 1 0 0 forward_v I I I I #
coedge $-1 $87 $88 $89 $90 forward $52 $-1 #
coedge $-1 $91 $91 $92 $93 forward $54 $-1 #
edge $-1 $61 0 $76 3.1415926535897931 $55 $94 forward 7 unknown #
vertex $-1 $58 $95 #
straight-curve $-1 -4.0000000000000009 4.898425415289509e-016 1.9499999999999988 0.70710678118657844 -8.659274570719581e-017 0.70710678118651671 I I #
ellipse-curve $-1 1.1102230246251565e-016 -3.3306690738754696e-016 2.016120722071264 0 0 -1 3.9338792779287304 3.3306690738754696e-016 0 1 I I #
point $-1 3.9338792779287304 0 2.016120722071264 #
ellipse-curve $-1 -3.3306690738754696e-016 -4.4408920985006262e-016 1.9499999999999993 0 0 1 4 4.4408920985006262e-016 0 1 I I #
cone-surface $-1 0 0 0 0 0 1 4 0 0 1 I I 0 1 4 forward I I I I #
face $-1 $96 $97 $3 $-1 $98 forward single #
loop $-1 $-1 $99 $70 #
cone-surface $-1 0 0 10.4025 0 0 -1 3.75 0 0 1 I I 0 1 3.75 forward I I I I #
loop $-1 $-1 $100 $51 #
coedge $-1 $89 $89 $101 $102 forward $71 $-1 #
coedge $-1 $92 $73 $103 $104 reversed $52 $-1 #
coedge $-1 $73 $92 $105 $106 forward $52 $-1 #
coedge $-1 $86 $86 $73 $90 reversed $71 $-1 #
edge $-1 $107 0 $108 3.1415926535897931 $73 $109 forward 7 unknown #
coedge $-1 $74 $74 $99 $110 reversed $54 $-1 #
coedge $-1 $88 $87 $74 $93 reversed $52 $-1 #
edge $-1 $111 0 $112 3.1415926535897931 $74 $113 forward 7 unknown #
ellipse-curve $-1 1.1102230246251565e-016 3.3306690738754696e-016 2.016120722071264 0 0 1 3.9338792779287304 -3.3306690738754696e-016 0 1 I I #
point $-1 -3.9338792779287304 0 2.016120722071264 #
face $-1 $114 $115 $3 $-1 $116 forward single #
loop $-1 $-1 $117 $82 #
cone-surface $-1 0 0 -1.9140805911911301 0 0 -1 0.75214681850839293 0 0 1 I I -0.6010974733751796 0.79917571753774852 0.75214681850839293 forward I I I I #
coedge $-1 $103 $105 $91 $110 forward $83 $-1 #
coedge $-1 $118 $118 $119 $120 forward $85 $-1 #
coedge $-1 $105 $103 $86 $102 reversed $83 $-1 #
edge $-1 $107 0 $108 3.1415926535897931 $86 $121 forward 7 unknown #
coedge $-1 $101 $99 $87 $104 forward $83 $-1 #
edge $-1 $112 0 $108 0.30000000000000071 $87 $122 forward 7 unknown #
coedge $-1 $99 $101 $88 $106 reversed $83 $-1 #
edge $-1 $111 0 $107 0.30000000000000071 $88 $123 forward 7 unknown #
vertex $-1 $106 $124 #
vertex $-1 $104 $125 #
ellipse-curve $-1 0 0 2.3161207220712647 0 0 -1 3.75 0 0 1 I I #
edge $-1 $111 0 $112 3.1415926535897931 $91 $126 forward 7 unknown #
vertex $-1 $110 $127 #
vertex $-1 $110 $128 #
ellipse-curve $-1 -3.3306690738754696e-016 0 2.016120722071264 0 0 -1 3.7500000000000004 0 0 1 I I #
face $-1 $129 $130 $3 $-1 $131 forward single #
loop $-1 $-1 $132 $96 #
cone-surface $-1 0 0 -1.9140805911911301 0 0 -1 0.75214681850839293 0 0 1 I I -0.6010974733751796 0.79917571753774852 0.75214681850839293 forward I I I I #
coedge $-1 $119 $133 $134 $135 reversed $97 $-1 #
coedge $-1 $100 $100 $136 $137 reversed $85 $-1 #
coedge $-1 $138 $117 $100 $120 reversed $97 $-1 #
edge $-1 $139 0 $140 3.1415926535897931 $100 $141 forward 7 unknown #
ellipse-curve $-1 0 0 2.3161207220712647 0 0 1 3.75 0 0 1 I I #
straight-curve $-1 -3.75 4.5922738268339147e-016 2.016120722071264 0 0 1 I I #
straight-curve $-1 3.75 0 2.016120722071264 0 0 1 I I #
point $-1 3.75 0 2.3161207220712647 #
point $-1 -3.75 0 2.3161207220712647 #
ellipse-curve $-1 -3.3306690738754696e-016 0 2.016120722071264 0 0 1 3.7500000000000004 0 0 1 I I #
point $-1 3.75 0 2.016120722071264 #
point $-1 -3.75 4.5922738268339147e-016 2.016120722071264 #
face $-1 $142 $143 $3 $-1 $144 forward single #
loop $-1 $-1 $145 $114 #
cone-surface $-1 0 0 0 0 0 1 4 0 0 1 I I 0 1 4 forward I I I I #
coedge $-1 $136 $146 $138 $147 reversed $115 $-1 #
coedge $-1 $117 $138 $148 $149 reversed $97 $-1 #
coedge $-1 $146 $136 $117 $135 forward $115 $-1 #
edge $-1 $140 0 $150 0.10999999999999978 $117 $151 forward 7 unknown #
coedge $-1 $134 $132 $118 $137 forward $115 $-1 #
edge $-1 $139 0 $140 3.1415926535897931 $118 $152 forward 7 unknown #
coedge $-1 $133 $119 $132 $147 forward $97 $-1 #
vertex $-1 $137 $153 #
vertex $-1 $137 $154 #
ellipse-curve $-1 -1.1102230246251565e-016 1.1102230246251565e-016 2.3161207220712647 4.5155347022635119e-016 -1.2743783529591263e-032 -1 3.9338792779287299 -1.1102230246251565e-016 1.7763568394002505e-015 1 I I #
face $-1 $155 $156 $3 $-1 $157 reversed single #
loop $-1 $-1 $158 $129 #
cone-surface $-1 0 0 0 0 0 1 4 0 0 1 I I 0 1 4 forward I I I I #
coedge $-1 $159 $160 $161 $162 forward $130 $-1 #
coedge $-1 $132 $134 $160 $163 reversed $115 $-1 #
edge $-1 $139 0 $164 0.10999999999999978 $138 $165 forward 7 unknown #
coedge $-1 $158 $161 $133 $149 forward $143 $-1 #
edge $-1 $150 -2.449212707644755e-016 $164 3.1415926535897931 $148 $166 forward 7 unknown #
vertex $-1 $163 $167 #
straight-curve $-1 -3.9338792779287299 4.8174535589217086e-016 2.3161207220712665 -0.60109747337517971 7.3610778516182402e-017 0.79917571753774852 I I #
ellipse-curve $-1 -1.1102230246251565e-016 -1.1102230246251565e-016 2.3161207220712647 -4.5155347022635119e-016 -1.2743783529591263e-032 1 3.9338792779287299 1.1102230246251565e-016 1.7763568394002505e-015 1 I I #
point $-1 3.9338792779287299 0 2.3161207220712665 #
point $-1 -3.9338792779287299 4.8174535589217086e-016 2.3161207220712665 #
face $-1 $168 $169 $3 $-1 $170 forward single #
loop $-1 $171 $172 $142 #
plane-surface $-1 0 0 3.4125875890056836 0 0 -1 1 0 0 forward_v I I I I #
coedge $-1 $173 $148 $174 $175 forward $143 $-1 #
coedge $-1 $174 $145 $176 $177 reversed $130 $-1 #
coedge $-1 $145 $174 $146 $163 forward $130 $-1 #
coedge $-1 $148 $173 $145 $162 reversed $143 $-1 #
edge $-1 $150 0 $178 1.0085575380052649 $145 $179 forward 7 unknown #
edge $-1 $164 0 $150 3.1415926535897931 $160 $180 forward 7 unknown #
vertex $-1 $163 $181 #
straight-curve $-1 3.9338792779287299 0 2.3161207220712665 0.60109747337517971 0 0.79917571753774852 I I #
ellipse-curve $-1 -2.2204460492503131e-016 -3.3306690738754696e-016 2.4040300510004187 0 0 1 -3.9999999999999991 -1.5677563414140394e-016 0 1 I I #
point $-1 -3.9999999999999996 4.898425415289509e-016 2.4040300510004187 #
face $-1 $182 $183 $3 $-1 $184 forward single #
loop $-1 $-1 $185 $155 #
cone-surface $-1 0 0 10.4025 0 0 -1 3.6099999999999999 0 0 1 I I 0 1 3.6099999999999999 forward I I I I #
loop $-1 $-1 $186 $142 #
coedge $-1 $187 $187 $188 $189 forward $156 $-1 #
coedge $-1 $161 $158 $186 $190 reversed $143 $-1 #
coedge $-1 $160 $159 $158 $175 reversed $130 $-1 #
edge $-1 $164 0 $191 1.0085575380052649 $174 $192 forward 7 unknown #
coedge $-1 $186 $186 $159 $177 forward $171 $-1 #
edge $-1 $191 0 $178 3.1415926535897931 $159 $193 forward 7 unknown #
vertex $-1 $177 $194 #
straight-curve $-1 -4 4.898425415289509e-016 2.4040300510004187 0 0 1 I I #
ellipse-curve $-1 -2.2204460492503131e-016 -3.3306690738754696e-016 2.4040300510004187 0 0 1 4 3.3306690738754696e-016 0 1 I I #
point $-1 3.9999999999999996 0 2.4040300510004187 #
face $-1 $195 $196 $3 $-1 $197 forward single #
loop $-1 $198 $199 $168 #
plane-surface $-1 0 0 5.2125875890056799 0 0 -1 1 0 0 forward_v I I I I #
coedge $-1 $200 $201 $202 $203 forward $169 $-1 #
coedge $-1 $176 $176 $173 $190 forward $171 $-1 #
coedge $-1 $172 $172 $204 $205 reversed $156 $-1 #
coedge $-1 $201 $200 $172 $189 reversed $169 $-1 #
edge $-1 $206 0 $207 3.1415926535897931 $172 $208 forward 7 unknown #
edge $-1 $178 0 $191 3.1415926535897931 $173 $209 forward 7 unknown #
vertex $-1 $175 $210 #
straight-curve $-1 4 0 2.4040300510004187 0 0 1 I I #
ellipse-curve $-1 0 0 3.4125875890056836 0 0 1 4 0 0 1 I I #
point $-1 -4 0 3.4125875890056836 #
face $-1 $211 $212 $3 $-1 $213 forward single #
loop $-1 $-1 $204 $182 #
cone-surface $-1 0 0 10.4025 0 0 -1 3.6099999999999999 0 0 1 I I 0 1 3.6099999999999999 forward I I I I #
loop $-1 $-1 $214 $168 #
coedge $-1 $202 $202 $215 $216 forward $183 $-1 #
coedge $-1 $188 $185 $217 $218 reversed $169 $-1 #
coedge $-1 $185 $188 $219 $220 forward $169 $-1 #
coedge $-1 $199 $199 $185 $203 reversed $183 $-1 #
edge $-1 $221 0 $222 3.1415926535897931 $185 $223 forward 7 unknown #
coedge $-1 $217 $219 $187 $205 forward $196 $-1 #
edge $-1 $206 0 $207 3.1415926535897931 $187 $224 forward 7 unknown #
vertex $-1 $205 $225 #
vertex $-1 $205 $226 #
ellipse-curve $-1 0 -3.3306690738754696e-016 3.4125875890056836 0 0 -1 3.6099999999999999 3.3306690738754696e-016 0 1 I I #
ellipse-curve $-1 0 0 3.4125875890056836 0 0 1 -4 0 0 1 I I #
point $-1 4 0 3.4125875890056836 #
face $-1 $227 $228 $3 $-1 $229 forward single #
loop $-1 $-1 $230 $195 #
cone-surface $-1 0 0 0 0 0 1 4 0 0 1 I I 0 1 4 forward I I I I #
coedge $-1 $231 $231 $232 $233 reversed $198 $-1 #
coedge $-1 $219 $217 $199 $216 reversed $196 $-1 #
edge $-1 $221 0 $222 3.1415926535897931 $199 $234 forward 7 unknown #
coedge $-1 $215 $204 $200 $218 forward $196 $-1 #
edge $-1 $207 0 $222 1.7999999999999963 $200 $235 forward 7 unknown #
coedge $-1 $204 $215 $201 $220 reversed $196 $-1 #
edge $-1 $206 0 $221 1.7999999999999963 $201 $236 forward 7 unknown #
vertex $-1 $220 $237 #
vertex $-1 $218 $238 #
ellipse-curve $-1 0 0 5.2125875890056799 0 0 -1 3.6099999999999999 0 0 1 I I #
ellipse-curve $-1 0 3.3306690738754696e-016 3.4125875890056836 0 0 1 3.6099999999999999 -3.3306690738754696e-016 0 1 I I #
point $-1 3.6099999999999999 0 3.4125875890056836 #
point $-1 -3.6099999999999999 4.4208289372987818e-016 3.4125875890056836 #
face $-1 $239 $240 $3 $-1 $241 reversed single #
loop $-1 $-1 $242 $211 #
cone-surface $-1 0 0 0 0 0 1 4 0 0 1 I I 0 1 4 forward I I I I #
coedge $-1 $232 $243 $244 $245 reversed $212 $-1 #
coedge $-1 $214 $214 $246 $247 reversed $198 $-1 #
coedge $-1 $248 $230 $214 $233 forward $212 $-1 #
edge $-1 $249 0 $250 3.1415926535897931 $232 $251 forward 7 unknown #
ellipse-curve $-1 0 0 5.2125875890056799 0 0 1 3.6099999999999999 0 0 1 I I #
straight-curve $-1 -3.6099999999999999 4.4208289372987818e-016 3.4125875890056836 0 0 1 I I #
straight-curve $-1 3.6099999999999999 0 3.4125875890056836 0 0 1 I I #
point $-1 3.6099999999999999 0 5.2125875890056799 #
point $-1 -3.6099999999999999 0 5.2125875890056799 #
face $-1 $252 $253 $3 $-1 $254 forward single #
loop $-1 $255 $256 $227 #
plane-surface $-1 0 0 5.5125875890056806 0 0 -1 1 0 0 forward_v I I I I #
coedge $-1 $246 $257 $248 $258 reversed $228 $-1 #
coedge $-1 $230 $248 $259 $260 reversed $212 $-1 #
coedge $-1 $257 $246 $230 $245 forward $228 $-1 #
edge $-1 $249 0 $261 0.30000000000000071 $244 $262 forward 7 unknown #
coedge $-1 $244 $242 $231 $247 forward $228 $-1 #
edge $-1 $250 0 $249 3.1415926535897931 $246 $263 forward 7 unknown #
coedge $-1 $243 $232 $242 $258 forward $212 $-1 #
vertex $-1 $245 $264 #
vertex $-1 $247 $265 #
ellipse-curve $-1 0 0 5.2125875890056799 0 0 1 -4 0 0 1 I I #
face $-1 $266 $267 $3 $-1 $268 reversed single #
loop $-1 $-1 $269 $239 #
cone-surface $-1 0 0 10.4025 0 0 -1 3.9480172340878008 0 0 1 I I 0 1 3.9480172340878008 forward I I I I #
loop $-1 $-1 $259 $227 #
coedge $-1 $270 $270 $271 $272 forward $240 $-1 #
coedge $-1 $242 $244 $273 $274 reversed $228 $-1 #
edge $-1 $250 0 $275 0.30000000000000071 $242 $276 forward 7 unknown #
coedge $-1 $273 $273 $243 $260 forward $255 $-1 #
edge $-1 $261 0 $275 3.1415926535897931 $243 $277 forward 7 unknown #
vertex $-1 $274 $278 #
straight-curve $-1 -4 4.898425415289509e-016 5.2125875890056799 0 0 1 I I #
ellipse-curve $-1 0 0 5.2125875890056799 0 0 1 4 0 0 1 I I #
point $-1 -4 0 5.2125875890056799 #
point $-1 4 0 5.2125875890056799 #
face $-1 $279 $280 $3 $-1 $281 forward single #
loop $-1 $-1 $282 $252 #
cone-surface $-1 0 0 3.847742865744018 0 0 -1 1.0000000000000027 0 0 1 I I -0.70710678118654846 0.70710678118654657 1.0000000000000027 forward I I I I #
coedge $-1 $283 $284 $285 $286 forward $253 $-1 #
coedge $-1 $256 $256 $287 $288 reversed $240 $-1 #
coedge $-1 $284 $283 $256 $272 reversed $253 $-1 #
edge $-1 $289 0 $290 3.1415926535897931 $256 $291 forward 7 unknown #
coedge $-1 $259 $259 $257 $274 forward $255 $-1 #
edge $-1 $275 0 $261 3.1415926535897931 $257 $292 forward 7 unknown #
vertex $-1 $274 $293 #
straight-curve $-1 4 0 5.2125875890056799 0 0 1 I I #
ellipse-curve $-1 0 0 5.5125875890056806 0 0 1 -4 0 0 1 I I #
point $-1 -4 0 5.5125875890056806 #
face $-1 $294 $295 $3 $-1 $296 reversed single #
loop $-1 $-1 $297 $266 #
cone-surface $-1 0 0 10.4025 0 0 -1 3.625 0 0 1 I I 0 1 3.625 forward I I I I #
coedge $-1 $298 $299 $300 $301 forward $267 $-1 #
coedge $-1 $271 $269 $302 $303 reversed $253 $-1 #
coedge $-1 $269 $271 $304 $305 forward $253 $-1 #
coedge $-1 $299 $298 $269 $286 reversed $267 $-1 #
edge $-1 $306 0 $307 3.1415926535897931 $269 $308 forward 7 unknown #
coedge $-1 $302 $304 $270 $288 forward $309 $-1 #
edge $-1 $289 0 $290 3.1415926535897927 $270 $310 forward 7 unknown #
vertex $-1 $288 $311 #
vertex $-1 $288 $312 #
ellipse-curve $-1 -2.2204460492503131e-016 4.4408920985006262e-016 5.5125875890056806 0 0 -1 3.9480172340878008 -4.4408920985006262e-016 0 1 I I #
ellipse-curve $-1 0 0 5.5125875890056806 0 0 1 4 0 0 1 I I #
point $-1 4 0 5.5125875890056806 #
face $-1 $313 $314 $3 $-1 $315 forward single #
loop $-1 $-1 $316 $279 #
cone-surface $-1 0 0 11.097742865743996 0 0 1 1.0000000000000027 0 0 1 I I -0.70710678118654846 0.70710678118654657 1.0000000000000027 forward I I I I #
coedge $-1 $317 $318 $319 $320 forward $280 $-1 #
coedge $-1 $285 $282 $321 $322 reversed $267 $-1 #
coedge $-1 $282 $285 $323 $324 forward $267 $-1 #
coedge $-1 $318 $317 $282 $301 reversed $280 $-1 #
edge $-1 $325 0 $326 3.1415926535897931 $282 $327 forward 7 unknown #
coedge $-1 $328 $287 $283 $303 forward $309 $-1 #
edge $-1 $290 0 $307 1.2831725108261276 $283 $329 forward 7 unknown #
coedge $-1 $287 $328 $284 $305 reversed $309 $-1 #
edge $-1 $289 0 $306 1.2831725108261276 $284 $330 forward 7 unknown #
vertex $-1 $305 $331 #
vertex $-1 $303 $332 #
ellipse-curve $-1 -2.2204460492503131e-016 4.4408920985006262e-016 6.7957600998318082 0 0 -1 3.9480172340878008 -4.4408920985006262e-016 0 1 I I #
loop $-1 $-1 $287 $333 #
ellipse-curve $-1 -2.2204460492503131e-016 -4.4408920985006262e-016 5.5125875890056806 0 0 1 3.9480172340878008 4.4408920985006262e-016 0 1 I I #
point $-1 3.9480172340878008 0 5.5125875890056806 #
point $-1 -3.9480172340878008 4.834766989864169e-016 5.5125875890056806 #
face $-1 $334 $335 $3 $-1 $336 forward single #
loop $-1 $-1 $337 $294 #
cone-surface $-1 0 0 10.4025 0 0 -1 3.9480172340878008 0 0 1 I I 0 1 3.9480172340878008 forward I I I I #
coedge $-1 $338 $339 $340 $341 forward $295 $-1 #
coedge $-1 $300 $297 $342 $343 forward $280 $-1 #
coedge $-1 $297 $300 $344 $345 forward $280 $-1 #
coedge $-1 $339 $338 $297 $320 reversed $295 $-1 #
edge $-1 $346 1.5008055271743389e-032 $347 3.1415926535897931 $297 $348 forward 7 unknown #
coedge $-1 $349 $350 $298 $322 forward $351 $-1 #
edge $-1 $307 0 $326 0.45681535332721213 $298 $352 forward 7 unknown #
coedge $-1 $350 $349 $299 $324 reversed $351 $-1 #
edge $-1 $306 0 $325 0.45681535332721213 $299 $353 forward 7 unknown #
vertex $-1 $324 $354 #
vertex $-1 $322 $355 #
ellipse-curve $-1 0 -1.1102230246251565e-016 6.4727428657440083 0 0 -1 3.625 1.1102230246251565e-016 0 1 I I #
coedge $-1 $304 $302 $350 $356 reversed $309 $-1 #
straight-curve $-1 -3.9480172340878008 4.834766989864169e-016 5.5125875890056806 0 0 1 I I #
straight-curve $-1 3.9480172340878008 0 5.5125875890056806 0 0 1 I I #
point $-1 3.9480172340878008 0 6.7957600998318082 #
point $-1 -3.9480172340878008 4.834766989864169e-016 6.7957600998318082 #
face $-1 $357 $309 $3 $-1 $358 forward single #
face $-1 $359 $360 $3 $-1 $361 forward single #
loop $-1 $-1 $362 $313 #
cone-surface $-1 0 0 11.819214233691637 0 0 1 1.3295276605478932 0 0 1 I I -0.79917571753774985 0.60109747337517794 1.3295276605478932 forward I I I I #
coedge $-1 $363 $364 $365 $366 forward $314 $-1 #
coedge $-1 $319 $316 $367 $368 reversed $295 $-1 #
coedge $-1 $316 $319 $369 $370 forward $295 $-1 #
coedge $-1 $364 $363 $316 $341 reversed $314 $-1 #
edge $-1 $371 0 $372 3.1415926535897927 $316 $373 forward 7 unknown #
coedge $-1 $374 $375 $317 $343 reversed $376 $-1 #
edge $-1 $347 0 $326 1.9999999999999982 $317 $377 forward 7 unknown #
coedge $-1 $375 $374 $318 $345 reversed $376 $-1 #
edge $-1 $325 0 $346 1.9999999999999982 $318 $378 forward 7 unknown #
vertex $-1 $345 $379 #
vertex $-1 $343 $380 #
ellipse-curve $-1 0 -3.3306690738754696e-016 8.4727428657440065 0 0 -1 3.6249999999999996 3.3306690738754696e-016 0 1 I I #
coedge $-1 $323 $321 $375 $381 reversed $351 $-1 #
coedge $-1 $321 $323 $328 $356 forward $351 $-1 #
loop $-1 $-1 $350 $382 #
straight-curve $-1 -3.9480172340878008 4.834766989864169e-016 6.7957600998318082 0.70710678118654902 -8.6592745707193702e-017 -0.70710678118654613 I I #
straight-curve $-1 3.9480172340878008 0 6.7957600998318082 -0.70710678118654902 0 -0.70710678118654613 I I #
point $-1 3.625 0 6.4727428657440083 #
point $-1 -3.625 -4.4391980326061176e-016 6.4727428657440083 #
edge $-1 $306 0 $307 3.1415926535897927 $328 $383 forward 7 unknown #
face $-1 $69 $384 $3 $-1 $385 forward single #
cone-surface $-1 0 0 10.4025 0 0 -1 3.9480172340878008 0 0 1 I I 0 1 3.9480172340878008 forward I I I I #
face $-1 $386 $387 $3 $-1 $388 forward single #
loop $-1 $-1 $389 $334 #
cone-surface $-1 0 0 11.819214233691637 0 0 1 1.3295276605478932 0 0 1 I I -0.79917571753774985 0.60109747337517794 1.3295276605478932 forward I I I I #
coedge $-1 $365 $390 $391 $392 reversed $335 $-1 #
coedge $-1 $340 $337 $393 $394 reversed $314 $-1 #
coedge $-1 $337 $340 $395 $396 forward $314 $-1 #
coedge $-1 $397 $362 $337 $366 reversed $335 $-1 #
edge $-1 $398 0 $399 3.1415926535897931 $337 $400 forward 7 unknown #
coedge $-1 $401 $402 $338 $368 forward $403 $-1 #
edge $-1 $347 0 $372 0.4568153533272124 $338 $404 forward 7 unknown #
coedge $-1 $402 $401 $339 $370 reversed $403 $-1 #
edge $-1 $346 3.1401849173675543e-016 $371 0.4568153533272124 $339 $405 forward 7 unknown #
vertex $-1 $370 $406 #
vertex $-1 $368 $407 #
ellipse-curve $-1 -2.2204460492503131e-016 4.4408920985006262e-016 8.1497256316562066 0 0 -1 3.9480172340878008 -4.4408920985006262e-016 0 1 I I #
coedge $-1 $344 $342 $402 $408 reversed $376 $-1 #
coedge $-1 $342 $344 $349 $381 forward $376 $-1 #
loop $-1 $-1 $375 $409 #
straight-curve $-1 -3.625 4.4391980326061176e-016 8.4727428657440065 0 0 -1 I I #
straight-curve $-1 3.625 0 6.4727428657440083 0 0 1 I I #
point $-1 3.625 0 8.4727428657440065 #
point $-1 -3.6249999999999996 4.4391980326061176e-016 8.4727428657440065 #
edge $-1 $325 0 $326 3.1415926535897931 $349 $410 forward 7 unknown #
face $-1 $333 $351 $3 $-1 $411 reversed single #
ellipse-curve $-1 -2.2204460492503131e-016 -4.4408920985006262e-016 6.7957600998318082 0 0 1 3.9480172340878008 4.4408920985006262e-016 0 1 I I #
loop $-1 $-1 $412 $357 #
plane-surface $-1 0 0 10 0 0 1 1 0 0 forward_v I I I I #
face $-1 $409 $403 $3 $-1 $413 reversed single #
loop $-1 $-1 $414 $359 #
cone-surface $-1 0 0 10.4025 0 0 -1 3.9480172340878008 0 0 1 I I 0 1 3.9480172340878008 forward I I I I #
coedge $-1 $415 $416 $397 $417 reversed $360 $-1 #
coedge $-1 $362 $397 $418 $419 forward $335 $-1 #
coedge $-1 $416 $415 $362 $392 forward $360 $-1 #
edge $-1 $399 0 $420 0.24999999999999878 $362 $421 forward 7 unknown #
coedge $-1 $422 $414 $363 $394 forward $387 $-1 #
edge $-1 $372 0 $399 1.6999999999999993 $363 $423 forward 7 unknown #
coedge $-1 $414 $422 $364 $396 reversed $387 $-1 #
edge $-1 $371 0 $398 1.6999999999999993 $364 $424 forward 7 unknown #
coedge $-1 $390 $365 $389 $417 forward $335 $-1 #
vertex $-1 $396 $425 #
vertex $-1 $394 $426 #
ellipse-curve $-1 -2.2204460492503131e-016 4.4408920985006262e-016 9.8497256316562058 0 0 -1 3.9480172340878008 -4.4408920985006262e-016 0 1 I I #
coedge $-1 $369 $367 $414 $427 reversed $403 $-1 #
coedge $-1 $367 $369 $374 $408 forward $403 $-1 #
loop $-1 $-1 $402 $386 #
straight-curve $-1 -3.6249999999999996 4.4391980326061176e-016 8.4727428657440065 -0.70710678118654846 8.6592745707193542e-017 -0.70710678118654657 I I #
straight-curve $-1 3.6249999999999996 0 8.4727428657440065 0.70710678118654846 0 -0.70710678118654657 I I #
point $-1 3.9480172340878008 0 8.1497256316562066 #
point $-1 -3.9480172340878008 -4.834766989864169e-016 8.1497256316562066 #
edge $-1 $346 1.5008055271743389e-032 $347 3.1415926535897931 $374 $428 forward 7 unknown #
face $-1 $382 $376 $3 $-1 $429 forward single #
ellipse-curve $-1 0 1.1102230246251565e-016 6.4727428657440083 0 0 1 3.625 -1.1102230246251565e-016 0 1 I I #
cone-surface $-1 0 0 3.847742865744018 0 0 -1 1.0000000000000027 0 0 1 I I -0.70710678118654846 0.70710678118654657 1.0000000000000027 forward I I I I #
coedge $-1 $418 $418 $416 $430 reversed $384 $-1 #
cone-surface $-1 0 0 11.097742865743996 0 0 1 1.0000000000000027 0 0 1 I I -0.70710678118654846 0.70710678118654657 1.0000000000000027 forward I I I I #
coedge $-1 $393 $395 $401 $427 forward $387 $-1 #
coedge $-1 $391 $389 $422 $431 forward $360 $-1 #
coedge $-1 $389 $391 $412 $430 forward $360 $-1 #
edge $-1 $398 0 $432 0.24999999999999878 $397 $433 forward 7 unknown #
coedge $-1 $412 $412 $390 $419 reversed $384 $-1 #
edge $-1 $432 0 $420 3.1415926535897931 $418 $434 forward 7 unknown #
vertex $-1 $419 $435 #
straight-curve $-1 -3.9480172340878008 4.834766989864169e-016 9.8497256316562058 0.7991757175377493 -9.786756615172877e-017 0.60109747337517871 I I #
coedge $-1 $395 $393 $415 $431 reversed $387 $-1 #
straight-curve $-1 -3.9480172340878008 4.834766989864169e-016 8.1497256316562066 0 0 1 I I #
straight-curve $-1 3.9480172340878008 0 8.1497256316562066 0 0 1 I I #
point $-1 3.9480172340878008 0 9.8497256316562058 #
point $-1 -3.9480172340878008 4.834766989864169e-016 9.8497256316562058 #
edge $-1 $371 0 $372 3.1415926535897931 $401 $436 forward 7 unknown #
ellipse-curve $-1 0 3.3306690738754696e-016 8.4727428657440065 0 0 1 3.6249999999999996 -3.3306690738754696e-016 0 1 I I #
cone-surface $-1 0 0 10.4025 0 0 -1 3.625 0 0 1 I I 0 1 3.625 forward I I I I #
edge $-1 $420 0 $432 3.1415926535897931 $412 $437 forward 7 unknown #
edge $-1 $398 0 $399 3.1415926535897927 $422 $438 forward 7 unknown #
vertex $-1 $419 $439 #
straight-curve $-1 3.9480172340878008 0 9.8497256316562058 -0.7991757175377493 0 0.60109747337517871 I I #
ellipse-curve $-1 -1.1102230246251565e-016 -3.3306690738754696e-016 10 0 0 -1 3.7482233047033646 3.3306690738754696e-016 0 1 I I #
point $-1 -3.7482233047033646 0 10 #
ellipse-curve $-1 -2.2204460492503131e-016 -4.4408920985006262e-016 8.1497256316562066 0 0 1 3.9480172340878008 4.4408920985006262e-016 0 1 I I #
ellipse-curve $-1 0 0 10 0 0 -1 -3.7482233047033646 0 0 1 I I #
ellipse-curve $-1 -2.2204460492503131e-016 -4.4408920985006262e-016 9.8497256316562058 0 0 1 3.9480172340878008 4.4408920985006262e-016 0 1 I I #
point $-1 3.7482233047033646 0 10 #
End-of-ACIS-data 