**ABCDEFGHIJKLMNOPQRSTUVWXYZabcdefghijklmnopqrstuvwxyz**************************
**PARASOLID !"#$%&'()*+,-./:;<=>?@[\]^_`{|}~0123456789**************************
**PART1;MC=sun;MC_MODEL=Sun-3;MC_ID=unknown;OS=SunOS;OS_RELEASE=unknown;FRU=sdl_
parasolid_test_sun;APPL=unknown;SITE=sdl-cambridge-u.k.;USER=kramer;FORMAT=text;
GUISE=transmit;KEY=intermediate_6;FILE=intermediate_6.xmt_txt;DATE=16-oct-1990;
**PART2;SCH=SCH_210_1012;USFLD_SIZE=0;
**PART3;
**END_OF_HEADER*****************************************************************
T47 : TRANSMIT FILE created by modeller version 22012 SCH_210_10120 12 1 1755 0
 0 0 0 0 1e3 1e-8 2 2 0 0 3 1 4 102 14 2 intermediate_613 4 2 0 1 0 5 6 7 8 9 10
 14 5 1576 0 11 0 12 4 8 -16 6 1605 0 13 0 14 9 18 7 1642 0 15 0 16 10 50 8 1667
 0 5 17 0 0 +3.26 2.495 .48 0 0 -1 30 9 1683 0 6 18 0 0 +1.53 3.815 .48 1 0 0 29
 10 1720 0 7 19 0 2.771149307047645 1.435 .48 29 19 1722 0 16 20 10 2.9182764275
03165 1.175 .48 18 16 1644 0 21 7 22 19 29 20 1724 0 22 23 19 2.771149307047645
 3.555 .48 18 22 1646 0 24 16 25 20 29 23 1725 0 25 26 20 2.918276427503165 3.81
5 .48 18 25 1647 0 13 22 27 23 29 26 1728 0 27 28 23 2.76 1.435 1.24 18 27 1650
 0 29 25 30 26 29 28 1729 0 30 31 26 2.76 3.555 1.24 18 30 1651 0 32 27 33 28 29
 31 1730 0 33 34 28 2.76 1.175 .48 18 33 1652 0 35 30 36 31 29 34 1731 0 36 37 3
1 2.76 1.435 .48 18 36 1653 0 38 33 39 34 29 37 1732 0 39 40 34 2.76 3.555 .48 1
8 39 1654 0 41 36 42 37 29 40 1733 0 42 43 37 2.76 3.815 .48 18 42 1655 0 44 39
 45 40 29 43 1735 0 45 46 40 2.76 1.175 1.5 18 45 1657 0 47 42 48 43 29 46 1561
 0 48 49 43 2.76 3.895 .48 18 48 1559 0 50 45 51 46 29 49 1553 0 51 52 46 3.06 4
.353257569495585 .48 18 51 1551 0 53 48 54 49 29 52 1539 0 54 55 49 2.76 1.095 .
48 18 54 1537 0 56 51 57 52 29 55 1531 0 57 58 52 3.06 .636742430504416 .48 18 5
7 1529 0 59 54 60 55 29 58 1469 0 60 61 55 2.76 3.815 1.5 18 60 1467 0 62 57 63
 58 29 61 1433 0 63 64 58 3.06 3.908257569495585 .48 18 63 1345 0 65 60 66 61 29
 64 1434 0 66 67 61 0 4.99 .48 18 66 1346 0 68 63 69 64 29 67 1437 0 69 70 64 0
 3.815 .48 18 69 1349 0 71 66 72 67 29 70 1440 0 72 73 67 0 3.815 1.5 18 72 1352
 0 74 69 75 70 29 73 1194 0 75 76 70 3.06 4.99 .48 18 75 1192 0 77 72 78 73 29 7
6 1158 0 78 79 73 3.06 1.081742430504416 .48 18 78 1070 0 80 75 81 76 29 79 1162
 0 81 82 76 0 1.175 1.5 18 81 1074 0 83 78 84 79 29 82 1165 0 84 85 79 3.06 0 .4
8 18 84 1077 0 86 81 87 82 29 85 1166 0 87 88 82 0 0 .48 18 87 1078 0 89 84 90 8
5 29 88 927 0 90 91 85 0 1.175 .48 18 90 925 0 92 87 93 88 29 91 876 0 93 94 88
 3.26 3.95 .4 18 93 758 0 95 90 96 91 29 94 877 0 96 97 91 3.26 1.04 .4 18 96 75
9 0 98 93 99 94 29 97 878 0 99 100 94 3.06 0 .4 18 99 760 0 101 96 102 97 29 100
 879 0 102 103 97 3.06 1.081742430504416 .4 18 102 761 0 104 99 105 100 29 103 8
80 0 105 106 100 3.06 3.908257569495585 .4 18 105 762 0 107 102 108 103 29 106 8
81 0 108 109 103 3.06 4.99 .4 18 108 763 0 110 105 111 106 29 109 882 0 111 112
 106 5.26 4.99 .4 18 111 764 0 113 108 114 109 29 112 884 0 114 115 109 5.26 1.0
4 .4 18 114 766 0 116 111 117 112 29 115 885 0 117 118 112 5.26 0 .4 18 117 767
 0 119 114 120 115 29 118 507 0 120 121 115 5.26 3.95 .4 18 120 505 0 122 117 12
3 118 29 121 481 0 123 124 118 2.771149307047645 3.555 0 18 123 399 0 125 120 12
6 121 29 124 486 0 126 127 121 .56 3.555 0 18 126 404 0 128 123 129 124 29 127 4
88 0 129 130 124 .26 1.735 0 18 129 406 0 131 126 132 127 29 130 489 0 132 133 1
27 .26 3.255 0 18 132 407 0 134 129 135 130 29 133 492 0 135 136 130 .26 3.255 1
.24 18 135 410 0 137 132 138 133 29 136 493 0 138 139 133 .26 1.735 1.24 18 138
 411 0 140 135 141 136 29 139 495 0 141 142 136 .56 3.555 1.24 18 141 413 0 143
 138 144 139 29 142 499 0 144 145 139 .56 1.435 0 18 144 417 0 146 141 147 142 2
9 145 500 0 147 148 142 .56 1.435 1.24 18 147 418 0 149 144 150 145 29 148 259 0
 150 151 145 2.771149307047645 1.435 0 18 150 257 0 152 147 153 148 29 151 229 0
 153 154 148 5.26 3.95 0 18 153 163 0 155 150 156 151 29 154 232 0 156 157 151 5
.26 1.04 0 18 156 166 0 158 153 159 154 29 157 233 0 159 160 154 3.26 3.95 0 18
 159 167 0 161 156 162 157 29 160 246 0 162 163 157 3.26 1.04 0 18 162 180 0 164
 159 165 160 29 163 38 0 166 167 160 0 0 0 18 166 8 0 168 169 170 163 29 167 37
 0 169 171 163 0 4.99 0 18 169 10 0 172 165 166 167 29 171 36 0 165 173 167 5.26
 4.99 0 18 165 12 0 174 162 169 171 29 173 35 0 170 0 171 5.26 0 0 18 170 7 0 17
5 166 0 173 17 175 176 177 178 170 179 180 15 176 939 0 89 181 0 17 177 176 101
 175 117 182 183 17 178 176 175 89 166 184 185 17 179 186 187 188 166 175 180 16
 180 9 0 175 189 190 191 16 189 11 0 168 192 180 193 16 190 3 0 194 180 0 195 30
 191 39 0 180 0 195 0 +2.63 0 0 1 0 0 30 195 40 0 190 191 196 0 +5.26 2.495 0 0
 1 0 30 196 41 0 192 195 193 0 +2.63 4.99 0 -1 0 0 16 192 13 0 172 183 189 196 3
0 193 42 0 189 196 197 0 +0 2.495 0 0 -1 0 30 197 47 0 183 193 198 0 +5.26 0 0 0
 0 1 16 183 15 0 177 199 192 197 30 198 48 0 199 197 200 0 +5.26 4.99 0 0 0 1 16
 199 17 0 201 202 183 198 30 200 49 0 202 198 203 0 +0 4.99 0 0 0 1 16 202 19 0
 204 185 199 200 30 203 50 0 185 200 205 0 +0 0 0 0 0 1 16 185 21 0 184 206 202
 203 30 205 67 0 206 203 207 0 +5.26 2.495 0 0 1 0 16 206 65 0 174 208 185 205 3
0 207 227 0 208 205 209 0 +4.51 1.04 0 1 0 0 16 208 161 0 158 210 206 207 31 209
 212 0 210 207 211 0 +3.26 1.54 0 0 0 -1 .5 16 210 146 0 212 213 208 209 30 211
 208 0 213 209 214 0 +3.26 3.95 0 0 0 1 16 213 142 0 215 216 210 211 30 214 199
 0 216 211 217 0 +4.51 3.95 0 -1 0 0 16 216 133 0 161 218 213 214 30 217 197 0 2
18 214 219 0 +5.26 3.95 0 0 0 1 16 218 131 0 220 221 216 217 31 219 256 0 221 21
7 222 0 +3.26 3.45 0 0 0 -1 .5 16 221 254 0 223 224 218 219 30 222 318 0 224 219
 225 0 +2.771149307047645 1.435 0 0 0 1 16 224 316 0 226 227 221 222 30 225 474
 0 227 222 228 0 +1.76 1.435 0 1 0 0 16 227 392 0 152 229 224 225 30 228 473 0 2
29 225 230 0 +.56 1.435 0 0 0 -1 16 229 391 0 231 232 227 228 30 230 470 0 232 2
28 233 0 +1.76 3.555 1.24 1 0 0 16 232 388 0 234 235 229 230 30 233 469 0 235 23
0 236 0 +.26 2.495 1.24 0 1 0 16 235 387 0 237 238 232 233 31 236 468 0 238 233
 239 0 +.56 1.735 1.24 0 0 1 .3 16 238 386 0 240 241 235 236 31 239 467 0 241 23
6 242 0 +.56 3.255 1.24 0 0 1 .3 16 241 385 0 243 244 238 239 30 242 461 0 244 2
39 245 0 +.26 2.495 0 0 -1 0 16 244 379 0 131 246 241 242 31 245 459 0 246 242 2
47 0 +.56 1.735 0 0 0 -1 .3 16 246 377 0 248 249 244 245 31 247 458 0 249 245 25
0 0 +.56 3.255 0 0 0 -1 .3 16 249 376 0 251 252 246 247 30 250 455 0 252 247 253
 0 +.56 3.555 0 0 0 1 16 252 373 0 254 255 249 250 30 253 453 0 255 250 256 0 +.
26 1.735 0 0 0 1 16 255 371 0 257 258 252 253 30 256 452 0 258 253 259 0 +.26 3.
255 0 0 0 -1 16 258 370 0 260 261 255 256 30 259 446 0 261 256 262 0 +1.76 3.555
 0 -1 0 0 16 261 364 0 128 263 258 259 30 262 520 0 263 259 264 0 +5.26 1.04 0 0
 0 -1 16 263 518 0 265 266 261 262 30 264 565 0 266 262 267 0 +3.26 1.04 0 0 0 -
1 16 266 563 0 268 269 263 264 30 267 603 0 269 264 270 0 +4.51 3.95 .4 -1 0 0 1
6 269 601 0 95 271 266 267 30 270 837 0 271 267 272 0 +5.26 2.495 .4 0 1 0 16 27
1 719 0 273 274 269 270 30 272 835 0 274 270 275 0 +5.26 2.495 .4 0 1 0 16 274 7
17 0 276 277 271 272 30 275 833 0 277 272 278 0 +3.06 2.495 .4 0 -1 0 16 277 715
 0 279 280 274 275 30 278 831 0 280 275 281 0 +3.06 2.495 .4 0 -1 0 16 280 713 0
 282 283 277 278 30 281 829 0 283 278 284 0 +2.63 4.99 .4 -1 0 0 16 283 711 0 28
5 286 280 281 30 284 828 0 286 281 287 0 +2.63 0 .4 1 0 0 16 286 710 0 288 289 2
83 284 30 287 827 0 289 284 290 0 +4.51 1.04 .4 1 0 0 16 289 709 0 116 291 286 2
87 31 290 826 0 291 287 292 0 -3.26 1.54 .4 0 0 -1 .5 16 291 708 0 98 293 289 29
0 31 292 824 0 293 290 294 0 -3.26 3.45 .4 0 0 -1 .5 16 293 706 0 107 295 291 29
2 30 294 818 0 295 292 296 0 +3.06 4.99 0 0 0 1 16 295 700 0 297 298 293 294 30
 296 810 0 298 294 299 0 +3.06 3.908257569495585 0 0 0 1 16 298 692 0 300 301 29
5 296 30 299 924 0 301 296 302 0 +0 2.495 1.5 0 1 0 16 301 922 0 303 304 298 299
 30 302 931 0 304 299 305 0 +0 1.175 0 0 0 -1 16 304 929 0 306 307 301 302 30 30
5 937 0 307 302 308 0 +3.06 0 0 0 0 -1 16 307 935 0 309 310 304 305 30 308 968 0
 310 305 311 0 -3.06 1.081742430504416 0 0 0 1 16 310 966 0 104 312 307 308 30 3
11 1131 0 312 308 313 0 +1.53 0 .48 1 0 0 16 312 1043 0 314 315 310 311 30 313 1
125 0 315 311 316 0 +1.53 1.175 1.5 1 0 0 16 315 1037 0 317 318 312 313 30 316 1
119 0 318 313 319 0 +0 2.495 .48 0 -1 0 16 318 1031 0 320 321 315 316 31 319 111
8 0 321 316 322 0 -3.26 1.54 .48 0 0 -1 .5 16 321 1030 0 80 323 318 319 30 322 1
117 0 323 319 324 0 +3.06 2.495 .48 0 -1 0 16 323 1029 0 59 325 321 322 30 324 1
260 0 325 322 326 0 +3.06 2.495 .48 0 -1 0 16 325 1258 0 53 327 323 324 30 326 1
400 0 327 324 328 0 +1.53 3.815 .48 1 0 0 16 327 1312 0 329 330 325 326 30 328 1
398 0 330 326 331 0 +1.53 4.99 .48 -1 0 0 16 330 1310 0 332 333 327 328 30 331 1
396 0 333 328 334 0 +0 2.495 .48 0 -1 0 16 333 1308 0 335 336 330 331 31 334 139
5 0 336 331 337 0 -3.26 3.45 .48 0 0 -1 .5 16 336 1307 0 338 339 333 334 30 337
 1393 0 339 334 340 0 +0 3.815 0 0 0 1 16 339 1305 0 341 342 336 337 30 340 1470
 0 342 337 343 0 +1.53 3.815 1.5 -1 0 0 16 342 1468 0 74 344 339 340 30 343 1483
 0 344 340 345 0 -2.771149307047645 3.555 0 0 0 1 16 344 1481 0 125 346 342 343
 30 345 1501 0 346 343 347 0 +1.76 1.435 1.24 -1 0 0 16 346 1499 0 348 349 344 3
45 30 347 1532 0 349 345 350 0 +3.06 2.495 .48 0 -1 0 16 349 1530 0 86 351 346 3
47 30 350 1536 0 351 347 352 0 +1.53 1.175 .48 -1 0 0 16 351 1534 0 353 354 349
 350 30 352 1540 0 354 350 355 0 +2.76 .5875 .48 0 1 0 16 354 1538 0 356 357 351
 352 31 355 1543 0 357 352 358 0 +3.26 1.095 .48 0 0 -1 .5 16 357 1541 0 359 360
 354 355 30 358 1554 0 360 355 361 0 +3.06 2.495 .48 0 -1 0 16 360 1552 0 362 36
3 357 358 30 361 1562 0 363 358 364 0 +2.76 4.4025 .48 0 1 0 16 363 1560 0 50 36
5 360 361 31 364 1565 0 365 361 366 0 +3.26 3.895 .48 0 0 -1 .5 16 365 1563 0 36
7 368 363 364 30 366 1570 0 368 364 369 0 +2.76 3.815 .48 0 0 -1 16 368 1568 0 3
70 371 365 366 30 369 1705 0 371 366 372 0 +2.76 2.495 1.5 0 1 0 16 371 1627 0 6
2 373 368 369 30 372 1703 0 373 369 374 0 +2.76 2.495 .48 0 -1 0 16 373 1625 0 3
75 376 371 372 30 374 1701 0 376 372 377 0 +2.76 2.495 .48 0 -1 0 16 376 1623 0
 378 379 373 374 30 377 1699 0 379 374 380 0 +2.76 2.495 1.24 0 -1 0 16 379 1621
 0 29 381 376 377 30 380 1698 0 381 377 382 0 +2.76 1.435 0 0 0 -1 16 381 1620 0
 38 383 379 380 30 382 1697 0 383 380 384 0 +2.76 3.555 0 0 0 1 16 383 1619 0 32
 385 381 382 30 384 1696 0 385 382 386 0 +2.76 1.175 .48 0 0 1 16 385 1618 0 47
 387 383 384 31 386 1692 0 387 384 388 0 -3.26 3.45 .48 0 0 -1 .5 16 387 1614 0
 24 389 385 386 30 388 1690 0 389 386 390 0 +1.76 3.555 .48 -1 0 0 16 389 1612 0
 41 391 387 388 31 390 1687 0 391 388 392 0 -3.26 1.54 .48 0 0 -1 .5 16 391 1609
 0 21 393 389 390 30 392 1686 0 393 390 18 0 +1.76 1.435 .48 1 0 0 16 393 1608 0
 15 14 391 392 30 18 1684 0 14 392 9 0 +1.53 1.175 .48 -1 0 0 16 14 1606 0 35 6
 393 18 17 35 394 56 395 33 396 14 15 394 1542 0 397 398 0 17 56 394 397 35 54 3
56 354 17 395 394 35 399 16 80 321 17 396 400 401 378 16 35 14 15 400 1579 0 401
 11 0 17 401 400 402 396 7 21 391 17 378 400 396 402 33 403 376 17 402 400 378 4
01 36 15 393 17 403 404 405 406 36 378 376 15 404 1585 0 407 408 0 17 405 404 40
9 403 27 38 381 17 406 404 403 407 33 47 385 17 407 404 406 410 45 62 371 17 47
 411 83 412 45 406 385 15 411 990 0 412 413 0 17 83 411 306 47 81 317 315 17 412
 411 47 306 33 353 351 17 306 411 412 83 90 414 304 17 353 415 320 356 90 412 35
1 15 415 994 0 416 417 0 17 320 415 314 353 87 92 318 17 356 415 353 359 33 56 3
54 17 359 415 356 416 54 397 357 17 416 415 359 314 57 86 349 17 397 394 399 56
 57 359 357 17 399 394 395 397 78 59 323 17 59 418 86 419 57 399 323 15 418 649
 0 419 420 0 17 86 418 309 59 84 416 349 17 419 418 59 421 78 104 310 17 421 418
 419 309 102 282 280 17 104 422 98 80 102 419 310 15 422 112 0 226 423 0 17 98 4
22 268 104 96 424 291 17 80 422 104 21 78 395 321 17 21 422 80 226 16 401 391 17
 226 422 21 212 7 425 224 17 212 422 226 268 150 164 210 17 425 426 427 15 150 2
26 224 15 426 333 0 428 429 0 17 427 426 149 425 144 152 227 17 15 426 425 38 7
 402 393 17 38 426 15 428 36 405 381 17 428 426 38 149 27 348 346 17 149 426 428
 427 147 231 229 17 348 430 140 29 147 428 346 15 430 351 0 234 431 0 17 140 430
 237 348 138 240 238 17 29 430 348 234 27 409 379 17 234 430 29 143 30 432 232 1
7 409 404 433 405 30 29 379 17 433 404 434 409 39 32 383 17 434 404 410 433 42 3
75 373 17 32 435 432 41 30 433 383 15 435 331 0 41 436 0 17 432 435 437 32 141 2
34 232 17 41 435 32 438 39 439 389 17 438 435 41 440 22 125 344 17 439 12 441 37
5 22 41 389 15 12 1577 0 375 5 0 17 441 12 44 439 25 24 387 17 375 12 439 44 39
 434 373 17 44 12 375 441 42 13 6 17 13 442 65 443 25 44 6 15 442 1564 0 444 445
 0 17 65 442 446 13 63 338 336 17 443 442 13 444 42 50 363 17 444 442 443 446 48
 367 365 17 50 447 367 329 48 443 363 15 447 1273 0 50 448 0 17 367 447 449 50 5
1 444 365 17 329 447 50 335 42 450 327 17 335 447 329 332 69 68 333 17 450 451 3
41 370 69 329 327 15 451 1269 0 452 453 0 17 341 451 452 450 72 71 339 17 370 45
1 450 452 42 410 368 17 452 451 370 341 60 74 342 17 410 404 407 434 60 370 368
 17 74 454 455 62 72 452 342 15 454 1476 0 62 456 0 17 455 454 317 74 81 303 301
 17 62 454 74 317 60 407 371 17 317 454 62 455 45 83 315 17 303 457 71 414 72 45
5 301 15 457 1214 0 68 458 0 17 71 457 68 303 69 341 339 17 414 457 303 92 81 30
6 304 17 92 457 414 184 90 320 318 17 184 457 92 168 87 178 185 17 168 457 184 4
59 166 187 189 17 459 457 168 68 169 204 202 17 187 186 460 179 169 168 189 15 1
86 278 0 128 461 0 17 460 186 462 187 165 172 192 17 462 186 161 460 153 174 206
 17 172 463 204 464 169 460 192 15 463 1201 0 77 465 0 17 204 463 77 172 66 459
 202 17 464 463 172 113 165 201 199 17 113 463 464 110 111 285 283 17 201 466 12
2 174 111 464 199 15 466 522 0 122 467 0 17 122 466 155 201 120 276 274 17 174 4
66 201 155 165 462 206 17 155 466 174 122 153 220 218 17 220 468 95 469 120 155
 218 15 468 122 0 220 470 0 17 95 468 471 220 93 472 269 17 469 468 220 471 153
 161 216 17 471 468 469 95 159 215 213 17 161 186 473 462 159 469 216 17 473 186
 128 161 123 223 221 17 128 186 134 473 126 440 261 17 223 474 215 125 159 473 2
21 15 474 114 0 338 475 0 17 215 474 107 223 93 471 213 17 125 474 223 24 123 43
8 344 17 24 474 125 338 22 441 387 17 338 474 24 300 25 65 336 17 300 474 338 10
7 63 476 298 17 107 474 300 215 105 477 293 17 476 478 479 362 105 300 298 15 47
8 1254 0 297 480 0 17 479 478 297 476 108 279 277 17 362 478 476 53 63 446 360 1
7 53 478 362 297 51 449 325 17 446 442 444 65 51 362 360 17 297 478 53 479 75 11
0 295 17 449 447 332 367 75 53 325 17 332 447 335 449 66 77 330 17 77 463 110 20
4 75 332 330 17 110 463 113 77 108 297 295 17 279 481 477 285 105 479 277 15 481
 661 0 472 482 0 17 477 481 472 279 93 107 293 17 285 481 279 276 108 113 283 17
 276 481 285 472 111 122 274 17 472 481 276 477 120 95 269 14 482 660 0 483 420
 481 4 484 -14 483 662 0 485 482 486 4 487 -14 420 648 0 482 417 418 4 488 -50 4
84 794 0 482 487 488 0 +4.16 2.495 .4 0 0 -1 50 487 795 0 483 489 484 0 +4.16 2.
495 .4 0 0 -1 50 488 788 0 420 484 490 0 +3.06 2.495 .4 -1 0 0 50 490 1097 0 417
 488 491 0 +1.53 .5875 .48 0 0 -1 14 417 993 0 420 413 415 4 490 -50 491 1095 0
 413 490 492 0 +1.53 1.175 .48 0 1 0 14 413 989 0 417 480 411 4 491 -50 492 1257
 0 480 491 493 0 +3.06 2.495 .4 -1 0 0 14 480 1256 0 413 448 478 4 492 -50 493 1
374 0 448 492 494 0 +1.53 4.4025 .48 0 0 -1 14 448 1272 0 480 453 447 4 493 -50
 494 1372 0 453 493 495 0 +1.53 3.815 .48 0 -1 0 14 453 1268 0 448 398 451 4 494
 -50 495 1545 0 398 494 496 0 +1.53 .5875 .48 0 0 -1 14 398 1544 0 453 445 394 4
 495 -50 496 1567 0 445 495 497 0 +1.53 4.4025 .48 0 0 -1 14 445 1566 0 398 408
 442 4 496 -50 497 1671 0 408 496 17 0 +2.76 2.495 .48 -1 0 0 14 408 1584 0 445
 11 404 4 497 -50 17 1668 0 11 497 8 0 +3.26 2.495 .48 0 0 -1 14 11 1578 0 408 5
 400 4 17 -50 489 525 0 485 498 487 0 +5.26 2.495 0 1 0 0 14 485 524 0 436 483 4
99 4 489 +50 498 424 0 436 500 489 0 +1.76 3.555 0 0 1 0 14 436 330 0 429 485 43
5 4 498 -50 500 425 0 429 501 498 0 +1.76 1.435 0 0 -1 0 14 429 332 0 502 436 42
6 4 500 -51 501 426 0 502 503 500 0 +.56 1.735 0 0 0 1 .3 14 502 334 0 504 429 5
05 4 501 -51 503 427 0 504 506 501 0 +.56 3.255 0 0 0 1 .3 14 504 336 0 507 502
 508 4 503 -50 506 430 0 507 509 503 0 +.26 2.495 0 -1 0 0 14 507 342 0 431 504
 510 4 506 -50 509 434 0 431 511 506 0 +1.76 2.495 1.24 0 0 1 14 431 350 0 423 5
07 430 4 509 -51 511 187 0 423 512 509 0 +3.26 1.54 0 0 0 1 .5 14 423 111 0 475
 431 422 4 511 -51 512 188 0 475 513 511 0 +3.26 3.45 0 0 0 1 .5 14 475 113 0 47
0 423 474 4 512 -50 513 192 0 470 514 512 0 +4.51 3.95 0 0 1 0 14 470 121 0 515
 475 468 4 513 -50 514 196 0 515 516 513 0 +4.51 1.04 0 0 -1 0 14 515 129 0 456
 470 517 4 514 -50 516 51 0 456 518 514 0 +2.63 2.495 1.5 0 0 1 14 456 33 0 181
 515 454 4 516 +50 518 46 0 181 519 516 0 +2.63 0 0 0 -1 0 14 181 30 0 458 456 1
76 4 518 +50 519 45 0 458 520 518 0 +0 2.495 0 -1 0 0 14 458 27 0 465 181 457 4
 519 +50 520 44 0 465 521 519 0 +2.63 4.99 0 0 1 0 14 465 24 0 461 458 463 4 520
 +50 521 43 0 467 522 520 0 +5.26 2.495 0 1 0 0 14 467 1 0 0 461 466 4 521 +50 5
22 34 0 461 0 521 0 +2.63 2.495 0 0 0 -1 14 461 6 0 467 465 186 4 522 +15 517 13
0 0 523 515 0 17 523 517 116 524 96 268 266 17 116 517 265 523 114 525 289 17 52
4 517 523 265 162 158 208 17 268 422 212 98 162 523 266 17 265 517 524 116 156 5
26 263 17 158 186 188 164 156 524 208 17 188 186 179 158 170 194 190 17 164 186
 158 152 162 212 210 17 152 186 164 146 150 427 227 17 146 186 152 131 144 248 2
46 17 131 186 146 134 129 527 244 17 248 505 257 231 129 146 246 15 505 335 0 24
8 502 0 17 257 505 240 248 138 528 255 17 231 505 248 240 144 149 229 17 240 505
 231 257 147 140 238 17 528 510 527 529 129 257 255 15 510 343 0 529 507 0 17 52
7 510 137 528 132 131 244 17 529 510 528 137 138 237 235 17 137 510 529 527 135
 260 258 17 237 430 143 140 135 529 235 17 143 430 234 237 141 243 241 17 243 50
8 260 254 135 143 241 15 508 337 0 251 504 0 17 260 508 251 243 132 137 258 17 2
54 508 243 251 141 437 252 17 251 508 254 260 126 134 249 17 437 435 440 432 126
 254 252 17 440 435 438 437 123 128 261 17 134 186 131 128 132 251 249 17 194 49
9 526 182 156 188 190 15 499 527 0 119 485 0 17 526 499 119 194 114 265 263 17 1
82 499 194 119 170 177 183 17 119 499 182 526 117 273 271 17 273 486 525 288 114
 119 271 15 486 663 0 282 483 0 17 525 486 424 273 96 116 289 17 288 486 273 282
 117 101 286 17 282 486 288 424 99 421 280 17 101 176 530 177 99 288 286 17 530
 176 89 101 84 309 307 17 89 176 178 530 87 314 312 17 309 418 421 86 99 530 307
 17 314 415 416 320 84 89 312 17 424 486 282 525 102 98 291 17 68 457 459 71 66
 335 333 1 0 
