  0
SECTION
  2
HEADER
  9
$ACADVER
  1
AC1009
  9
$INSBASE
 10
0.0
 20
0.0
 30
0.0
  9
$EXTMIN
 10
-0.061237
 20
-2.0
 30
-2.0
  9
$EXTMAX
 10
3.0
 20
3.0
 30
2.0
  9
$LIMMIN
 10
0.0
 20
0.0
  9
$LIMMAX
 10
12.0
 20
9.0
  9
$ORTHOMODE
 70
     0
  9
$REGENMODE
 70
     1
  9
$FILLMODE
 70
     1
  9
$QTEXTMODE
 70
     0
  9
$MIRRTEXT
 70
     1
  9
$DRAGMODE
 70
     2
  9
$LTSCALE
 40
1.0
  9
$OSMODE
 70
     0
  9
$ATTMODE
 70
     1
  9
$TEXTSIZE
 40
0.2
  9
$TRACEWID
 40
0.05
  9
$TEXTSTYLE
  7
STANDARD
  9
$CLAYER
  8
0
  9
$CELTYPE
  6
BYLAYER
  9
$CECOLOR
 62
   256
  9
$DIMSCALE
 40
1.0
  9
$DIMASZ
 40
0.18
  9
$DIMEXO
 40
0.0625
  9
$DIMDLI
 40
0.38
  9
$DIMRND
 40
0.0
  9
$DIMDLE
 40
0.0
  9
$DIMEXE
 40
0.18
  9
$DIMTP
 40
0.0
  9
$DIMTM
 40
0.0
  9
$DIMTXT
 40
0.18
  9
$DIMCEN
 40
0.09
  9
$DIMTSZ
 40
0.0
  9
$DIMTOL
 70
     0
  9
$DIMLIM
 70
     0
  9
$DIMTIH
 70
     1
  9
$DIMTOH
 70
     1
  9
$DIMSE1
 70
     0
  9
$DIMSE2
 70
     0
  9
$DIMTAD
 70
     0
  9
$DIMZIN
 70
     0
  9
$DIMBLK
  1

  9
$DIMASO
 70
     1
  9
$DIMSHO
 70
     1
  9
$DIMPOST
  1

  9
$DIMAPOST
  1

  9
$DIMALT
 70
     0
  9
$DIMALTD
 70
     2
  9
$DIMALTF
 40
25.4
  9
$DIMLFAC
 40
1.0
  9
$DIMTOFL
 70
     0
  9
$DIMTVP
 40
0.0
  9
$DIMTIX
 70
     0
  9
$DIMSOXD
 70
     0
  9
$DIMSAH
 70
     0
  9
$DIMBLK1
  1

  9
$DIMBLK2
  1

  9
$DIMSTYLE
  2
*UNNAMED
  9
$DIMCLRD
 70
     0
  9
$DIMCLRE
 70
     0
  9
$DIMCLRT
 70
     0
  9
$DIMTFAC
 40
1.0
  9
$DIMGAP
 40
0.09
  9
$LUNITS
 70
     2
  9
$LUPREC
 70
     4
  9
$SKETCHINC
 40
0.1
  9
$FILLETRAD
 40
0.0
  9
$AUNITS
 70
     0
  9
$AUPREC
 70
     0
  9
$MENU
  1
acad
  9
$ELEVATION
 40
0.0
  9
$PELEVATION
 40
0.0
  9
$THICKNESS
 40
0.0
  9
$LIMCHECK
 70
     0
  9
$BLIPMODE
 70
     1
  9
$CHAMFERA
 40
0.0
  9
$CHAMFERB
 40
0.0
  9
$SKPOLY
 70
     0
  9
$TDCREATE
 40
2449373.085151423
  9
$TDUPDATE
 40
2449373.085151423
  9
$TDINDWG
 40
0.0000000000
  9
$TDUSRTIMER
 40
0.0000000000
  9
$USRTIMER
 70
     1
  9
$ANGBASE
 50
0.0
  9
$ANGDIR
 70
     0
  9
$PDMODE
 70
     0
  9
$PDSIZE
 40
0.0
  9
$PLINEWID
 40
0.0
  9
$COORDS
 70
     1
  9
$SPLFRAME
 70
     0
  9
$SPLINETYPE
 70
     6
  9
$SPLINESEGS
 70
     8
  9
$ATTDIA
 70
     0
  9
$ATTREQ
 70
     1
  9
$HANDLING
 70
     1
  9
$HANDSEED
  5
BA
  9
$SURFTAB1
 70
     6
  9
$SURFTAB2
 70
     6
  9
$SURFTYPE
 70
     6
  9
$SURFU
 70
     6
  9
$SURFV
 70
     6
  9
$UCSNAME
  2

  9
$UCSORG
 10
0.0
 20
0.0
 30
0.0
  9
$UCSXDIR
 10
1.0
 20
0.0
 30
0.0
  9
$UCSYDIR
 10
0.0
 20
1.0
 30
0.0
  9
$PUCSNAME
  2

  9
$PUCSORG
 10
0.0
 20
0.0
 30
0.0
  9
$PUCSXDIR
 10
1.0
 20
0.0
 30
0.0
  9
$PUCSYDIR
 10
0.0
 20
1.0
 30
0.0
  9
$USERI1
 70
     0
  9
$USERI2
 70
     0
  9
$USERI3
 70
     0
  9
$USERI4
 70
     0
  9
$USERI5
 70
     0
  9
$USERR1
 40
0.0
  9
$USERR2
 40
0.0
  9
$USERR3
 40
0.0
  9
$USERR4
 40
0.0
  9
$USERR5
 40
0.0
  9
$WORLDVIEW
 70
     1
  9
$SHADEDGE
 70
     3
  9
$SHADEDIF
 70
    70
  9
$TILEMODE
 70
     1
  9
$MAXACTVP
 70
    16
  9
$PINSBASE
 10
0.0
 20
0.0
 30
0.0
  9
$PLIMCHECK
 70
     0
  9
$PEXTMIN
 10
1.000000E+20
 20
1.000000E+20
 30
1.000000E+20
  9
$PEXTMAX
 10
-1.000000E+20
 20
-1.000000E+20
 30
-1.000000E+20
  9
$PLIMMIN
 10
0.0
 20
0.0
  9
$PLIMMAX
 10
12.0
 20
9.0
  9
$UNITMODE
 70
     0
  9
$VISRETAIN
 70
     0
  9
$PLINEGEN
 70
     0
  9
$PSLTSCALE
 70
     1
  9
$TREEDEPTH
 70
  3020
  9
$DWGCODEPAGE
  3
ascii
  0
ENDSEC
  0
SECTION
  2
TABLES
  0
TABLE
  2
VPORT
 70
     2
  0
VPORT
  2
*ACTIVE
 70
     0
 10
0.0
 20
0.0
 11
1.0
 21
1.0
 12
1.693267
 22
-0.803997
 13
0.0
 23
0.0
 14
1.0
 24
1.0
 15
0.0
 25
0.0
 16
1.0
 26
1.0
 36
1.0
 17
0.0
 27
0.0
 37
0.0
 40
6.556973
 41
1.594883
 42
50.0
 43
0.0
 44
0.0
 50
0.0
 51
0.0
 71
     0
 72
   100
 73
     1
 74
     1
 75
     0
 76
     0
 77
     0
 78
     0
  0
ENDTAB
  0
TABLE
  2
LTYPE
 70
     1
  0
LTYPE
  2
CONTINUOUS
 70
    64
  3
Solid line
 72
    65
 73
     0
 40
0.0
  0
ENDTAB
  0
TABLE
  2
LAYER
 70
     2
  0
LAYER
  2
0
 70
    64
 62
     7
  6
CONTINUOUS
  0
LAYER
  2
AME_FRZ
 70
    65
 62
     7
  6
CONTINUOUS
  0
ENDTAB
  0
TABLE
  2
STYLE
 70
     1
  0
STYLE
  2
STANDARD
 70
     0
 40
0.0
 41
1.0
 50
0.0
 71
     0
 42
0.2
  3
txt
  4

  0
ENDTAB
  0
TABLE
  2
VIEW
 70
     0
  0
ENDTAB
  0
TABLE
  2
UCS
 70
     0
  0
ENDTAB
  0
TABLE
  2
APPID
 70
     3
  0
APPID
  2
ACAD
 70
    64
  0
APPID
  2
AME_SOL
 70
    64
  0
APPID
  2
AVE_INVOKE
 70
    64
  0
ENDTAB
  0
TABLE
  2
DIMSTYLE
 70
     0
  0
ENDTAB
  0
ENDSEC
  0
SECTION
  2
BLOCKS
  0
BLOCK
  8
0
  5
1
  2
AME_NIL
 70
    64
 10
0.0
 20
0.0
 30
0.0
  1
AME_NIL
  3
AME_NIL
  0
ENDBLK
  8
0
  5
2
  0
BLOCK
  8
0
  5
4
  2
AME_SOL
 70
    64
 10
0.0
 20
0.0
 30
0.0
  1
AME_SOL
  3
AME_SOL
  0
ENDBLK
  8
0
  5
5
  0
BLOCK
  8
0
  5
25
  2
*U4
 70
    65
 10
0.0
 20
0.0
 30
0.0
  1
*U
  3
*U
  0
LINE
  8
0
 62
     7
  5
26
 10
2.0
 20
1.0
 30
2.0
 11
2.0
 21
0.0
 31
2.0
1001
AME_SOL
1070
     1
1071
       22
  0
LINE
  8
0
 62
     7
  5
27
 10
0.0
 20
2.0
 30
2.0
 11
1.0
 21
2.0
 31
2.0
1001
AME_SOL
1070
     1
1071
       21
  0
LINE
  8
0
 62
     7
  5
28
 10
0.0
 20
2.0
 30
0.0
 11
0.0
 21
2.0
 31
2.0
1001
AME_SOL
1070
     1
1071
       20
  0
LINE
  8
0
 62
     7
  5
29
 10
0.0
 20
2.0
 30
2.0
 11
0.0
 21
0.0
 31
2.0
1001
AME_SOL
1070
     1
1071
       19
  0
LINE
  8
0
 62
     7
  5
2A
 10
0.0
 20
0.0
 30
0.0
 11
0.0
 21
0.0
 31
2.0
1001
AME_SOL
1070
     1
1071
       18
  0
LINE
  8
0
 62
     7
  5
2B
 10
2.0
 20
0.0
 30
2.0
 11
2.0
 21
0.0
 31
0.0
1001
AME_SOL
1070
     1
1071
       17
  0
LINE
  8
0
 62
     7
  5
2C
 10
0.0
 20
0.0
 30
2.0
 11
2.0
 21
0.0
 31
2.0
1001
AME_SOL
1070
     1
1071
       16
  0
LINE
  8
0
 62
     7
  5
2D
 10
0.0
 20
0.0
 30
0.0
 11
2.0
 21
0.0
 31
0.0
1001
AME_SOL
1070
     1
1071
       15
  0
LINE
  8
0
 62
     7
  5
2E
 10
0.0
 20
2.0
 30
0.0
 11
0.0
 21
0.0
 31
0.0
1001
AME_SOL
1070
     1
1071
       14
  0
LINE
  8
0
 62
     7
  5
2F
 10
2.0
 20
0.0
 30
0.0
 11
2.0
 21
1.0
 31
0.0
1001
AME_SOL
1070
     1
1071
       13
  0
LINE
  8
0
 62
     7
  5
30
 10
1.0
 20
2.0
 30
0.0
 11
0.0
 21
2.0
 31
0.0
1001
AME_SOL
1070
     1
1071
       12
  0
ARC
  8
0
 62
     7
  5
31
 10
2.0
 20
2.0
 30
0.0
 40
1.0
 50
180.0
 51
270.0
1001
AME_SOL
1070
     1
1071
       11
  0
LINE
  8
0
 62
     7
  5
32
 10
2.0
 20
1.0
 30
0.0
 11
2.0
 21
1.0
 31
2.0
1001
AME_SOL
1070
     1
1071
       10
  0
LINE
  8
0
 62
     7
  5
33
 10
1.0
 20
2.0
 30
0.0
 11
1.0
 21
2.0
 31
2.0
1001
AME_SOL
1070
     1
1071
        9
  0
ARC
  8
0
 62
     7
  5
34
 10
2.0
 20
2.0
 30
2.0
 40
1.0
 50
180.0
 51
270.0
1001
AME_SOL
1070
     1
1071
        8
  0
LINE
  8
0
 62
     7
  5
35
 10
2.0
 20
1.0
 30
0.0
 11
2.0
 21
1.0
 31
2.0
1001
AME_SOL
1070
     0
1071
        1
  0
LINE
  8
0
 62
     7
  5
36
 10
1.0
 20
2.0
 30
0.0
 11
1.0
 21
2.0
 31
2.0
1001
AME_SOL
1070
     0
1071
        1
  0
ENDBLK
  8
0
  5
37
  0
BLOCK
  8
0
  5
3B
  2
AME_JNK
 70
     0
 10
0.0
 20
0.0
 30
0.0
  1
AME_JNK
  3
AME_JNK
  0
ENDBLK
  8
0
  5
3C
  0
BLOCK
  8
0
  5
3E
  2
SOLAXES
 70
     0
 10
0.0
 20
0.0
 30
0.0
  1
SOLAXES
  3
SOLAXES
  0
LINE
  8
0
 62
     0
  5
3F
 10
0.0
 20
0.0
 30
0.0
 11
1.224745
 21
0.0
 31
0.0
  0
LINE
  8
0
 62
     0
  5
40
 10
0.0
 20
0.0
 30
0.0
 11
0.0
 21
1.224745
 31
0.0
  0
LINE
  8
0
 62
     0
  5
41
 10
0.0
 20
0.0
 30
0.0
 11
0.0
 21
0.0
 31
1.224745
  0
CIRCLE
  8
0
 62
     0
  5
42
 10
0.0
 20
0.0
 30
1.10227
 40
0.061237
210
1.0
220
0.0
230
0.0
  0
LINE
  8
0
 62
     0
  5
43
 10
1.10227
 20
0.061237
 30
0.0
 11
1.224745
 21
0.0
 31
0.0
  0
LINE
  8
0
 62
     0
  5
44
 10
1.10227
 20
0.0
 30
0.061237
 11
1.224745
 21
0.0
 31
0.0
  0
LINE
  8
0
 62
     0
  5
45
 10
1.10227
 20
-0.061237
 30
0.0
 11
1.224745
 21
0.0
 31
0.0
  0
LINE
  8
0
 62
     0
  5
46
 10
1.10227
 20
0.0
 30
-0.061237
 11
1.224745
 21
0.0
 31
0.0
  0
CIRCLE
  8
0
 62
     0
  5
47
 10
0.0
 20
0.0
 30
1.10227
 40
0.061237
210
0.0
220
1.0
230
0.0
  0
LINE
  8
0
 62
     0
  5
48
 10
0.061237
 20
1.10227
 30
0.0
 11
0.0
 21
1.224745
 31
0.0
  0
LINE
  8
0
 62
     0
  5
49
 10
0.0
 20
1.10227
 30
0.061237
 11
0.0
 21
1.224745
 31
0.0
  0
LINE
  8
0
 62
     0
  5
4A
 10
-0.061237
 20
1.10227
 30
0.0
 11
0.0
 21
1.224745
 31
0.0
  0
LINE
  8
0
 62
     0
  5
4B
 10
0.0
 20
1.10227
 30
-0.061237
 11
0.0
 21
1.224745
 31
0.0
  0
CIRCLE
  8
0
 62
     0
  5
4C
 10
0.0
 20
0.0
 30
0.979796
 40
0.061237
210
0.0
220
1.0
230
0.0
  0
LINE
  8
0
 62
     0
  5
4D
 10
0.061237
 20
0.979796
 30
0.0
 11
0.0
 21
1.10227
 31
0.0
  0
LINE
  8
0
 62
     0
  5
4E
 10
0.0
 20
0.979796
 30
0.061237
 11
0.0
 21
1.10227
 31
0.0
  0
LINE
  8
0
 62
     0
  5
4F
 10
-0.061237
 20
0.979796
 30
0.0
 11
0.0
 21
1.10227
 31
0.0
  0
LINE
  8
0
 62
     0
  5
50
 10
0.0
 20
0.979796
 30
-0.061237
 11
0.0
 21
1.10227
 31
0.0
  0
CIRCLE
  8
0
 62
     0
  5
51
 10
0.0
 20
0.0
 30
1.10227
 40
0.061237
  0
LINE
  8
0
 62
     0
  5
52
 10
0.061237
 20
0.0
 30
1.10227
 11
0.0
 21
0.0
 31
1.224745
  0
LINE
  8
0
 62
     0
  5
53
 10
0.0
 20
0.061237
 30
1.10227
 11
0.0
 21
0.0
 31
1.224745
  0
LINE
  8
0
 62
     0
  5
54
 10
-0.061237
 20
0.0
 30
1.10227
 11
0.0
 21
0.0
 31
1.224745
  0
LINE
  8
0
 62
     0
  5
55
 10
0.0
 20
-0.061237
 30
1.10227
 11
0.0
 21
0.0
 31
1.224745
  0
CIRCLE
  8
0
 62
     0
  5
56
 10
0.0
 20
0.0
 30
0.979796
 40
0.061237
  0
LINE
  8
0
 62
     0
  5
57
 10
0.061237
 20
0.0
 30
0.979796
 11
0.0
 21
0.0
 31
1.10227
  0
LINE
  8
0
 62
     0
  5
58
 10
0.0
 20
0.061237
 30
0.979796
 11
0.0
 21
0.0
 31
1.10227
  0
LINE
  8
0
 62
     0
  5
59
 10
-0.061237
 20
0.0
 30
0.979796
 11
0.0
 21
0.0
 31
1.10227
  0
LINE
  8
0
 62
     0
  5
5A
 10
0.0
 20
-0.061237
 30
0.979796
 11
0.0
 21
0.0
 31
1.10227
  0
CIRCLE
  8
0
 62
     0
  5
5B
 10
0.0
 20
0.0
 30
0.857321
 40
0.061237
  0
LINE
  8
0
 62
     0
  5
5C
 10
0.061237
 20
0.0
 30
0.857321
 11
0.0
 21
0.0
 31
0.979796
  0
LINE
  8
0
 62
     0
  5
5D
 10
0.0
 20
0.061237
 30
0.857321
 11
0.0
 21
0.0
 31
0.979796
  0
LINE
  8
0
 62
     0
  5
5E
 10
-0.061237
 20
0.0
 30
0.857321
 11
0.0
 21
0.0
 31
0.979796
  0
LINE
  8
0
 62
     0
  5
5F
 10
0.0
 20
-0.061237
 30
0.857321
 11
0.0
 21
0.0
 31
0.979796
  0
ENDBLK
  8
0
  5
60
  0
BLOCK
  8
0
  5
63
  2
*U7
 70
    65
 10
0.0
 20
0.0
 30
0.0
  1
*U
  3
*U
  0
POLYLINE
  8
0
 62
     7
  5
64
 66
     1
 10
0.0
 20
0.0
 30
0.0
 70
    64
  0
VERTEX
  8
0
  5
65
 10
2.0
 20
1.0
 30
0.0
 70
   192
  0
VERTEX
  8
0
  5
66
 10
2.0
 20
1.0
 30
2.0
 70
   192
  0
VERTEX
  8
0
  5
67
 10
2.0
 20
0.0
 30
0.0
 70
   192
  0
VERTEX
  8
0
  5
68
 10
2.0
 20
0.0
 30
2.0
 70
   192
  0
VERTEX
  8
0
 62
     7
  5
69
 10
0.0
 20
0.0
 30
0.0
 70
   128
 71
     1
 72
    -2
 73
     3
  0
VERTEX
  8
0
 62
     7
  5
6A
 10
0.0
 20
0.0
 30
0.0
 70
   128
 71
     2
 72
     4
 73
    -3
  0
SEQEND
  8
0
 62
     7
  5
6B
  0
POLYLINE
  8
0
 62
     7
  5
6C
 66
     1
 10
0.0
 20
0.0
 30
0.0
 70
    64
  0
VERTEX
  8
0
  5
6D
 10
1.0
 20
2.0
 30
2.0
 70
   192
  0
VERTEX
  8
0
  5
6E
 10
0.0
 20
2.0
 30
0.0
 70
   192
  0
VERTEX
  8
0
  5
6F
 10
0.0
 20
2.0
 30
2.0
 70
   192
  0
VERTEX
  8
0
  5
70
 10
1.0
 20
2.0
 30
0.0
 70
   192
  0
VERTEX
  8
0
 62
     7
  5
71
 10
0.0
 20
0.0
 30
0.0
 70
   128
 71
    -1
 72
     2
 73
     3
  0
VERTEX
  8
0
 62
     7
  5
72
 10
0.0
 20
0.0
 30
0.0
 70
   128
 71
     1
 72
     4
 73
    -2
  0
SEQEND
  8
0
 62
     7
  5
73
  0
POLYLINE
  8
0
 62
     7
  5
74
 66
     1
 10
0.0
 20
0.0
 30
0.0
 70
    64
  0
VERTEX
  8
0
  5
75
 10
1.617317
 20
1.07612
 30
2.0
 70
   192
  0
VERTEX
  8
0
  5
76
 10
1.292893
 20
1.292893
 30
2.0
 70
   192
  0
VERTEX
  8
0
  5
77
 10
0.0
 20
2.0
 30
2.0
 70
   192
  0
VERTEX
  8
0
  5
78
 10
2.0
 20
0.0
 30
2.0
 70
   192
  0
VERTEX
  8
0
  5
79
 10
0.0
 20
0.0
 30
2.0
 70
   192
  0
VERTEX
  8
0
  5
7A
 10
1.07612
 20
1.617317
 30
2.0
 70
   192
  0
VERTEX
  8
0
  5
7B
 10
1.0
 20
2.0
 30
2.0
 70
   192
  0
VERTEX
  8
0
  5
7C
 10
2.0
 20
1.0
 30
2.0
 70
   192
  0
VERTEX
  8
0
 62
     7
  5
7D
 10
0.0
 20
0.0
 30
0.0
 70
   128
 71
     1
 72
    -2
 73
    -3
  0
VERTEX
  8
0
 62
     7
  5
7E
 10
0.0
 20
0.0
 30
0.0
 70
   128
 71
    -3
 72
    -4
 73
    -1
  0
VERTEX
  8
0
 62
     7
  5
7F
 10
0.0
 20
0.0
 30
0.0
 70
   128
 71
     3
 72
     5
 73
    -4
  0
VERTEX
  8
0
 62
     7
  5
80
 10
0.0
 20
0.0
 30
0.0
 70
   128
 71
     2
 72
    -6
 73
    -3
  0
VERTEX
  8
0
 62
     7
  5
81
 10
0.0
 20
0.0
 30
0.0
 70
   128
 71
     6
 72
     7
 73
    -3
  0
VERTEX
  8
0
 62
     7
  5
82
 10
0.0
 20
0.0
 30
0.0
 70
   128
 71
     4
 72
     8
 73
    -1
  0
SEQEND
  8
0
 62
     7
  5
83
  0
POLYLINE
  8
0
 62
     7
  5
84
 66
     1
 10
0.0
 20
0.0
 30
0.0
 70
    64
  0
VERTEX
  8
0
  5
85
 10
0.0
 20
0.0
 30
2.0
 70
   192
  0
VERTEX
  8
0
  5
86
 10
0.0
 20
2.0
 30
2.0
 70
   192
  0
VERTEX
  8
0
  5
87
 10
0.0
 20
2.0
 30
0.0
 70
   192
  0
VERTEX
  8
0
  5
88
 10
0.0
 20
0.0
 30
0.0
 70
   192
  0
VERTEX
  8
0
 62
     7
  5
89
 10
0.0
 20
0.0
 30
0.0
 70
   128
 71
     1
 72
     2
 73
    -3
  0
VERTEX
  8
0
 62
     7
  5
8A
 10
0.0
 20
0.0
 30
0.0
 70
   128
 71
     3
 72
     4
 73
    -1
  0
SEQEND
  8
0
 62
     7
  5
8B
  0
POLYLINE
  8
0
 62
     7
  5
8C
 66
     1
 10
0.0
 20
0.0
 30
0.0
 70
    64
  0
VERTEX
  8
0
  5
8D
 10
0.0
 20
0.0
 30
2.0
 70
   192
  0
VERTEX
  8
0
  5
8E
 10
0.0
 20
0.0
 30
0.0
 70
   192
  0
VERTEX
  8
0
  5
8F
 10
2.0
 20
0.0
 30
0.0
 70
   192
  0
VERTEX
  8
0
  5
90
 10
2.0
 20
0.0
 30
2.0
 70
   192
  0
VERTEX
  8
0
 62
     7
  5
91
 10
0.0
 20
0.0
 30
0.0
 70
   128
 71
     1
 72
     2
 73
    -3
  0
VERTEX
  8
0
 62
     7
  5
92
 10
0.0
 20
0.0
 30
0.0
 70
   128
 71
     3
 72
     4
 73
    -1
  0
SEQEND
  8
0
 62
     7
  5
93
  0
POLYLINE
  8
0
 62
     7
  5
94
 66
     1
 10
0.0
 20
0.0
 30
0.0
 70
    64
  0
VERTEX
  8
0
  5
95
 10
0.0
 20
0.0
 30
0.0
 70
   192
  0
VERTEX
  8
0
  5
96
 10
1.0
 20
2.0
 30
0.0
 70
   192
  0
VERTEX
  8
0
  5
97
 10
1.07612
 20
1.617317
 30
0.0
 70
   192
  0
VERTEX
  8
0
  5
98
 10
1.292893
 20
1.292893
 30
0.0
 70
   192
  0
VERTEX
  8
0
  5
99
 10
0.0
 20
2.0
 30
0.0
 70
   192
  0
VERTEX
  8
0
  5
9A
 10
2.0
 20
0.0
 30
0.0
 70
   192
  0
VERTEX
  8
0
  5
9B
 10
1.617317
 20
1.07612
 30
0.0
 70
   192
  0
VERTEX
  8
0
  5
9C
 10
2.0
 20
1.0
 30
0.0
 70
   192
  0
VERTEX
  8
0
 62
     7
  5
9D
 10
0.0
 20
0.0
 30
0.0
 70
   128
 71
    -1
 72
     2
 73
    -3
  0
VERTEX
  8
0
 62
     7
  5
9E
 10
0.0
 20
0.0
 30
0.0
 70
   128
 71
     3
 72
    -4
 73
    -1
  0
VERTEX
  8
0
 62
     7
  5
9F
 10
0.0
 20
0.0
 30
0.0
 70
   128
 71
     1
 72
     5
 73
    -2
  0
VERTEX
  8
0
 62
     7
  5
A0
 10
0.0
 20
0.0
 30
0.0
 70
   128
 71
    -4
 72
     6
 73
    -1
  0
VERTEX
  8
0
 62
     7
  5
A1
 10
0.0
 20
0.0
 30
0.0
 70
   128
 71
     4
 72
    -7
 73
    -6
  0
VERTEX
  8
0
 62
     7
  5
A2
 10
0.0
 20
0.0
 30
0.0
 70
   128
 71
     7
 72
     8
 73
    -6
  0
SEQEND
  8
0
 62
     7
  5
A3
  0
POLYLINE
  8
0
 62
     7
  5
A4
 66
     1
 10
0.0
 20
0.0
 30
0.0
 70
    64
  0
VERTEX
  8
0
  5
A5
 10
1.0
 20
2.0
 30
0.0
 70
   192
  0
VERTEX
  8
0
  5
A6
 10
1.07612
 20
1.617317
 30
0.0
 70
   192
  0
VERTEX
  8
0
  5
A7
 10
1.07612
 20
1.617317
 30
2.0
 70
   192
  0
VERTEX
  8
0
  5
A8
 10
1.0
 20
2.0
 30
2.0
 70
   192
  0
VERTEX
  8
0
  5
A9
 10
1.292893
 20
1.292893
 30
0.0
 70
   192
  0
VERTEX
  8
0
  5
AA
 10
1.292893
 20
1.292893
 30
2.0
 70
   192
  0
VERTEX
  8
0
  5
AB
 10
1.617317
 20
1.07612
 30
2.0
 70
   192
  0
VERTEX
  8
0
  5
AC
 10
1.617317
 20
1.07612
 30
0.0
 70
   192
  0
VERTEX
  8
0
  5
AD
 10
2.0
 20
1.0
 30
0.0
 70
   192
  0
VERTEX
  8
0
  5
AE
 10
2.0
 20
1.0
 30
2.0
 70
   192
  0
VERTEX
  8
0
 62
     7
  5
AF
 10
0.0
 20
0.0
 30
0.0
 70
   128
 71
    -1
 72
     3
 73
     2
  0
VERTEX
  8
0
 62
     7
  5
B0
 10
0.0
 20
0.0
 30
0.0
 70
   128
 71
    -3
 72
     1
 73
     4
  0
VERTEX
  8
0
 62
     7
  5
B1
 10
0.0
 20
0.0
 30
0.0
 70
   128
 71
     3
 72
     6
 73
    -5
  0
VERTEX
  8
0
 62
     7
  5
B2
 10
0.0
 20
0.0
 30
0.0
 70
   128
 71
    -3
 72
     5
 73
     2
  0
VERTEX
  8
0
 62
     7
  5
B3
 10
0.0
 20
0.0
 30
0.0
 70
   128
 71
     6
 72
    -7
 73
     5
  0
VERTEX
  8
0
 62
     7
  5
B4
 10
0.0
 20
0.0
 30
0.0
 70
   128
 71
    -5
 72
     7
 73
     8
  0
VERTEX
  8
0
 62
     7
  5
B5
 10
0.0
 20
0.0
 30
0.0
 70
   128
 71
    -7
 72
     9
 73
     8
  0
VERTEX
  8
0
 62
     7
  5
B6
 10
0.0
 20
0.0
 30
0.0
 70
   128
 71
    -9
 72
     7
 73
    10
  0
SEQEND
  8
0
 62
     7
  5
B7
  0
ENDBLK
  8
0
  5
B8
  0
ENDSEC
  0
SECTION
  2
ENTITIES
  0
INSERT
  8
AME_FRZ
  5
3
  2
AME_NIL
 10
0.0
 20
0.0
 30
0.0
  0
INSERT
  8
AME_FRZ
  5
15
  2
AME_NIL
 10
0.0
 20
0.0
 30
0.0
1001
AME_SOL
1002
{
1070
     1
1071
  2388720
1070
  1536
1070
     1
1010
2.0
1020
2.0
1030
2.0
1005
0
1005
0
1005
38
1040
0.0
1040
1.0
1070
     0
1000
MILD_STEEL
1000
0
1010
0.0
1020
0.0
1030
0.0
1010
0.0
1020
0.0
1030
1.0
1040
0.0
1002
}
1001
AVE_INVOKE
1000
SOLAVEMESH
  0
INSERT
  8
AME_FRZ
  5
21
  2
AME_NIL
 10
2.0
 20
2.0
 30
0.0
1001
AME_SOL
1002
{
1070
     1
1071
  2407032
1070
  1538
1070
     1
1010
1.0
1020
1.0
1030
2.0
1005
0
1005
0
1005
38
1040
0.0
1040
1.0
1070
     0
1000
MILD_STEEL
1000
0
1010
2.0
1020
2.0
1030
0.0
1010
0.0
1020
0.0
1030
1.0
1040
0.0
1002
}
1001
AVE_INVOKE
1000
SOLAVEMESH
  0
INSERT
  8
0
  5
38
  2
*U7
 10
0.0
 20
0.0
 30
0.0
210
0.0
220
-1.0
230
0.0000000000000001
1001
AME_SOL
1002
{
1070
     1
1071
  2420208
1070
  9223
1070
    41
1070
     0
1005
15
1005
21
1005
B9
1005
39
1005
0
1040
21.590711
1040
1.0
1070
     0
1000
MILD_STEEL
1000
0
1002
}
1001
AVE_INVOKE
1000
SOLAVEMESH
  0
INSERT
  8
AME_FRZ
  5
39
  2
AME_NIL
 10
1.0
 20
1.0
 30
1.0
1001
AME_SOL
1004
C7CF0100C500620161015F015B01FF0054014A01060040013201580021010400F200960002005C0155014B01A000FE00400056014C01640041013301EE00AF003401FB00ED00F00060015D0157014D0142013501F500F30036012201D900EF0023015400E700430137012401EB0044002501190109000C00
1004
1A01F9004D00380126011B0110012E00350011010101070000010201F800F7001C011201030119001C00040178001D00130105011F00220006012300260027011D011401070127008800080190002900150109012F0052000A01980030001E0116010B01310032000C01E8004C0017010D01D800CB000E01
1004
A900C8004E01A800180058014F012800440175002500500105004501390184002801E00048003A012901C000D6002A011A00EA005E015901510146013B012B012100A5002C012D0020008000BF003F005A015201010047013C0110004E003D012D01B50070002E01BC005C00530148013E012F017900E400
1004
300182001F010800FC000A00490124003F01A40031012001DF00180103000F01B80068005F0000005FBFA5FBFA47E3672F380068EA8CE8C9738D420904CC646A1048266323508241331945520688B3CC545520688B3CC57A903445A5739B0AC55423FDCA1D10856A11FEE50E8842B46A1048266328AA40D1
1004
16798A8AA40D116798AF520688B4AE57EEAC35EBE806E51F7AFDD7FCEDFFFFFFFCEDFFFE5FE5FF5BF9DBF9DBFFFFFEBF75FF3B7FFFFFFF3B7FFF97F97FD6FE76FE76FFFFFE765175FBFAE2D57F9DBFFFFFFF9DBFFF9DAE9F97FC777BB9E2F0793B451FC77BB9E2F0793B451FFFE3EEF773C5E0F2768A3F9F
1004
FFCAEF773C5E0F2768A3FDCFFFFCA3A3073462000E7FFFE545D7E3E2D57F9DBFFFFFFF9DBFE70000006FE76FF8EEF773C5E0F2768A3F8EF773C5E0F2768A3FFFC7DDEEE78BC1E4ED147F3FFF95DEEE78BC1E4ED147FB9FFFF947462000C27373FFFF2A2EBF738B55FE76FFFFFFFE76FFB9F798BFCBFE3BBD
1004
DCF1783C9DA28FE3BDDCF1783C9DA28FF73FA2EBFF16ABFCEDFFFFFFFCEDFF380000035CFBCC5FF1DDEEE78BC1E4ED147F1DEEE78BC1E4ED147FB9FCD856B46A104826632350824133191A84120998CBD481A22D2BD481A22D28D420904CC6B95C7574763EB9DCA3CB9AE3AFFFF9DBFFF9DBFFFFFFFFFEB7
1004
FFFFFFFFFD71D7FFFCEDFFFCEDFFFFFFFFFF5BFFFFFFFFF9DA6C2B1546A104826632350824133191A84120998CBD481A22D28D420904CC6BD481A22D2B95C75283EB9DCA3C39AE3AFF9DBFFFFFFFFF9DBFFFFFEB7FFFFFFFFFD71D7FCEDFFFFFFFFFCEDFFFFFF5BFFFFFFFFF9DA6C2B1546A104826632350
1004
824133191A84120998C8D420904CC6BD481A22D2BD481A22D2B95C755DBA2BB9DCA3BB9AE3AFFFFFF9DBFFF9DBFFFFFFFEB7FFFFFFFFFD71D7FFFFFCEDFFFCEDFFFFFFFF5BFFFFFFFFF9DA6C2B5A350824133191A84120998C9B9AD8A0A0035EA40D11695EA40D11695EA40D11695CAE3AA4FCFAE7728E8E
1004
6B8EBFE767FB1FEC7FB1FCECFF63FCBFCBFCAB7FFFFFFFFFD71D7FCECFF63FD8FF63F9D9FEC7F97F97F956FFFFFFFFFE769B0AC551A84120998C9B9AD8A0A00346A104826632F520688B4AF520688B4AF520688B4AE571D574C17D73B9460E6B8EBFF63FD8FE767F3B3FD8FF63FCBFCBFCAB7FFFFFFFFFD7
1004
1D7FEC7FB1FCECFE767FB1FEC7F97F97F956FFFFFFFFFE769B0AC553735B14140068D420904CC646A104826632F520688B4AF520688B4AF520688B4AE571D4EBE5773B96139AE3AFFD8FE767FB1FEC7FB1FCECFF2FF2FF2ADFFFFFFFFFF5C75FFB1FCECFF63FD8FF63F9D9FE5FE5FE55BFFFFFFFFF9DAFC6
1004
8847FB943A210AD423FDCA1D108569B9AD8A0A0035EA40D11695EA40D11695EA40D116954612250C6CC0451789B091286366022CC8EF3AA5E23DABEE40186BD7D49F9F71D27E7D61AF5F5CE0000F3AAFF3B7FFFFFFF3B7FFF97F97F9455FCEDFCED518489431B301145E26C244A18D9808B32FC68847FB94
1004
3A210AD3735B14140068D420904CC65EA40D11695EA40D11695EA40D11697FFF94716A8511A55F7200C35EBEAE982FB8EBA60BEB0D7AFAE7000016ABFCEDFFFFFFFCEDFFFCEDFE5FF1FFFF95F8D0DCD6C505001A847FB943A210AD1A84120998CBD481A22D2BD481A22D2BD481A22D2FFFF28E2D53FBA35A
1004
BE00E586BD7D3AF95F1D86BD7D3AF95C0001CE2D57F9DBFFFFFFF9DBFFFCBF9DBFE3FFFF2BF1A211FEE50E8842B508FF728744215A350824133197A903445A57A903445A51A84120998D518489431B301145E26C244A18D9808B323BCEA91C9D55F0072C35EBEBA3B1F71D86BD7D74763E800039DE755FE7
1004
6FFFFFFFE76FFFF2FF2FF8ABF9DBF9DAA30912863660228BC4D8489431B3011665F8D06A1048266326E6B6282800D1A84120998CBD481A22D2BD481A22D28D420904CC6FFFE768E2D50A2362BE00E5D1D8FABA60BEE3BA3B1F574C17D73B9C5AAFFFF3B7FFFFFFF3B3F9DBFCBFE3FFFE76BF1A1B9AD8A0A0
1004
0346A104826632350824133197A903445A57A903445A51A84120998DFCECFF8E2D53FBB0D5F0072E8EC7D3AF95F1DD1D8FA75F2BB9DCE2D57F9DBFFFFFFFFF9D9FE5FCEDFF1FF3B3FEFC68350824133191A84120998C8D420904CC646A104826635EA40D116946A104826637FAF3FB11C5AA46A602BE00E5
1004
D1D8FABB7457C774763EAEDD15DCEE716ABFCECFFFFFFFFFE767FFFFFC7FEBCFEC5F8D06A104826632350824133191A84120998CBD481A22D28D420904CC68D420904CC6FFFF28E2D5238A36ABE00E5D1D8FA507DC774763E941F5CEE716ABFFFCECFFFFFFFE767FFFFFC7FFFE57E341A84120998C8D4209
1004
04CC64DCD6C505001AF520688B4A3508241331AF520688B4BF9D9FCED1C5AA47646E57C01C941F527E7DC7283EA4FCFAE7738B55FFFFFE76FFFE767FFF3B7FFF947FCECFE76BF1A1B9AD8A0A00346A104826632350824133197A903445A51A84120998D7A903445A5FCECFE768E2D524F95F0072507D3AF9
1004
5F1CA0FA75F2BB9DCE2D57F9DBFFFFFFF9D9FFFE5FFFCED1FF3B3F9DAFC68350824133191A84120998C8D420904CC646A1048266346A104826635EA40D11697FFF94716A9FD95ABE00E4A0FABB7457C7283EAEDD15DCEE716ABFCECFFFFFFFE767FFFFFFFC7FFFE57E341A84120998C8D420904CC64DCD6C
1004
505001A3508241331AF520688B4AF520688B4BF9D9FCED1C5AA47F46F57C01CAEDD15D27E7DC75DBA2BA4FCFAE7738B55FFFFFE76FE767FFFFFFF3B7F947FCECFE76BF1A0D420904CC64DCD6C505001A350824133191A84120998D7A903445A57A903445A5FCECFE768E2D523E2382BE00E576E8AEBA60BE
1004
E3AEDD15D74C17D73B9C5AAFFFF3B7FFF3B3FFFFFFFCBF9DA3FE767F3B5F8D06A1048266326E6B6282800D3735B1414006BD481A22D2BD481A22D2BD481A22D2FF5E7E764716A91E9457C01CA4FCFABA60BEE3A4FCFABA60BEB9DCE2D57FFF9DBFFFFFFF9DBFCBFCBFCA3FF5E7E765F8D0DCD6C505001A35
1004
0824133193735B1414006BD481A22D2BD481A22D2BD481A22D2FE76FF28E2D5233239ABE00E527E7D3AF95F1D27E7D3AF95DCEE716ABFCEDFFFFFEC7FFF3B7F97F97F947FCEDFE546879D194
1005
3A
  0
INSERT
  8
AME_FRZ
  5
3A
  2
AME_NIL
 10
1.0
 20
1.0
 30
1.0
1001
AME_SOL
1004

1005
0
  0
INSERT
  8
AME_FRZ
  5
62
  2
AME_SOL
 10
0.0
 20
0.0
 30
0.0
1001
AME_SOL
1000
R2.1
1000
AME2
1000
sq cm
1070
     3
1070
     0
1070
     3
1000
wire
1040
45.0
1000
U
1040
1.0
1000
cm
1000
gm
1000
MILD_STEEL
1070
    25
1000
CSG
1070
     1
1070
     3
1070
     3
1070
     3
1070
     0
1000
cu cm
1070
     4
1070
     0
1005
3
  0
INSERT
  8
AME_FRZ
  5
B9
  2
*U4
 10
0.0
 20
0.0
 30
0.0
  0
ENDSEC
  0
EOF
