700 0 2 0           
24 FBMach with ACIS - 7.0.3 13 ACIS 7.0.3 NT 24 Wed May 15 15:05:21 2002 
1 9.9999999999999995e-007 1e-010 
body $2 -1 $-1 $3 $-1 $4 #
bdycol-kcp $-1 -1 1 2 $5 $6 #
model_id-kcp-attrib $-1 -1 $-1 $-1 $0 1 1021489520 1021489520 -347799551 1 #
lump $-1 -1 $-1 $-1 $7 $0 #
transform $-1 -1 1 0 0 0 1 0 0 0 1 0 0 0 1 rotate no_reflect no_shear #
body $8 -1 $-1 $9 $-1 $10 #
body $11 -1 $-1 $12 $-1 $13 #
shell $-1 -1 $-1 $-1 $-1 $14 $-1 $3 #
model_id-kcp-attrib $-1 -1 $-1 $-1 $5 1 1021489520 1021489520 -347799550 1 #
lump $-1 -1 $-1 $-1 $15 $5 #
transform $-1 -1 1 0 0 0 1 0 0 0 1 38.099999999999994 25.399999999999999 -257.0162499999999 1 no_rotate no_reflect no_shear #
rgb_color-st-attrib $-1 -1 $16 $-1 $6 0.5 1 1 #
lump $-1 -1 $-1 $17 $18 $6 #
transform $-1 -1 1 0 0 0 1 0 0 0 1 38.099999999999994 25.399999999999999 -257.0162499999999 1 no_rotate no_reflect no_shear #
face $19 -1 $-1 $20 $21 $7 $-1 $22 reversed single #
shell $-1 -1 $-1 $-1 $-1 $23 $-1 $9 #
model_id-kcp-attrib $-1 -1 $-1 $11 $6 1 1021489520 1021489521 -347865085 1 #
lump $-1 -1 $-1 $-1 $24 $6 #
shell $-1 -1 $-1 $-1 $-1 $25 $-1 $12 #
model_id-kcp-attrib $-1 -1 $-1 $-1 $14 1 1021489520 1021489520 -347799551 2 #
face $26 -1 $-1 $27 $28 $7 $-1 $29 forward single #
loop $-1 -1 $-1 $30 $31 $14 #
plane-surface $-1 -1 $-1 50.799999999999997 25.399999999999999 3.1749999999999998 0 0 -1 -25.399999999999999 0 0 forward_v I I I I #
face $32 -1 $-1 $33 $34 $15 $-1 $35 forward single #
shell $-1 -1 $-1 $-1 $-1 $36 $-1 $17 #
face $-1 -1 $-1 $37 $38 $18 $-1 $39 reversed single #
model_id-kcp-attrib $-1 -1 $-1 $-1 $20 1 1021489520 1021489520 -347799551 3 #
face $40 -1 $-1 $41 $42 $7 $-1 $43 forward single #
loop $-1 -1 $-1 $-1 $44 $20 #
cone-surface $-1 -1 $-1 50.799999999999997 25.399999999999999 3.1749999999999998 0 0 -1 -4.7624999999999993 0 0 1 I I 0 1 4.7624999999999993 forward I I I I #
loop $-1 -1 $-1 $-1 $45 $14 #
coedge $-1 -1 $-1 $46 $46 $47 $48 reversed $21 $-1 #
model_id-kcp-attrib $-1 -1 $-1 $-1 $23 1 1021489520 1021489520 -347799550 2 #
face $-1 -1 $-1 $49 $50 $15 $-1 $51 reversed single #
loop $-1 -1 $-1 $-1 $52 $23 #
plane-surface $-1 -1 $-1 0 0 260.19124999999997 0 0 1 1 0 0 forward_v I I I I #
face $-1 -1 $-1 $53 $54 $24 $-1 $55 reversed single #
face $-1 -1 $-1 $56 $57 $18 $-1 $39 reversed single #
loop $-1 -1 $-1 $-1 $58 $25 #
cone-surface $-1 -1 $-1 12.700000000000003 0 260.19124999999991 0 0 1 4.7624999999999993 0 0 1 I I 0 1 4.7624999999999993 forward I I I I #
model_id-kcp-attrib $-1 -1 $-1 $-1 $27 1 1021489520 1021489520 -347799551 4 #
face $59 -1 $-1 $60 $61 $7 $-1 $62 forward single #
loop $-1 -1 $-1 $-1 $63 $27 #
cone-surface $-1 -1 $-1 50.799999999999997 25.399999999999999 3.1749999999999998 0 0 -1 -4.7624999999999993 0 0 1 I I 0 1 4.7624999999999993 forward I I I I #
coedge $-1 -1 $-1 $64 $47 $65 $66 forward $28 $-1 #
coedge $-1 -1 $-1 $67 $67 $68 $69 reversed $30 $-1 #
coedge $-1 -1 $-1 $31 $31 $70 $71 reversed $21 $-1 #
coedge $-1 -1 $-1 $44 $72 $31 $48 forward $28 $-1 #
edge $73 -1 $-1 $74 0 $75 3.1415926535897931 $31 $76 forward @7 unknown #
face $-1 -1 $-1 $77 $78 $15 $-1 $79 reversed single #
loop $-1 -1 $-1 $-1 $80 $33 #
plane-surface $-1 -1 $-1 0 0 -260.19124999999997 0 0 1 1 0 0 forward_v I I I I #
coedge $-1 -1 $-1 $81 $82 $83 $84 forward $34 $-1 #
face $-1 -1 $-1 $85 $86 $24 $-1 $87 reversed single #
loop $-1 -1 $-1 $-1 $88 $36 #
plane-surface $-1 -1 $-1 -17.462500000000002 0 0 1 0 0 0 0 -1 forward_v I I I I #
face $-1 -1 $-1 $89 $90 $18 $-1 $91 reversed single #
loop $-1 -1 $-1 $-1 $92 $37 #
coedge $-1 -1 $-1 $93 $94 $95 $96 reversed $38 $-1 #
model_id-kcp-attrib $-1 -1 $-1 $-1 $41 1 1021489520 1021489520 -347799551 5 #
face $97 -1 $-1 $98 $99 $7 $-1 $100 forward single #
loop $-1 -1 $-1 $-1 $101 $41 #
torus-surface $-1 -1 $-1 38.099999999999994 25.399999999999999 -499.74499999999989 0 1 0 12.699999999999999 4.7624999999999993 -1 0 0 forward_v I I I I #
coedge $-1 -1 $-1 $102 $70 $72 $103 forward $42 $-1 #
coedge $-1 -1 $-1 $72 $44 $104 $105 reversed $28 $-1 #
coedge $-1 -1 $-1 $70 $102 $44 $66 reversed $42 $-1 #
edge $-1 -1 $-1 $75 0 $106 19.799999999999997 $65 $107 forward @7 unknown #
coedge $-1 -1 $-1 $45 $45 $108 $109 reversed $30 $-1 #
coedge $-1 -1 $-1 $110 $111 $45 $69 forward $112 $-1 #
edge $113 -1 $-1 $114 0 $115 3.1415926535897931 $45 $116 forward @7 unknown #
coedge $-1 -1 $-1 $63 $65 $46 $71 forward $42 $-1 #
edge $117 -1 $-1 $75 0 $74 3.1415926535897931 $46 $118 forward @7 unknown #
coedge $-1 -1 $-1 $47 $64 $63 $103 reversed $28 $-1 #
attrib_edge_convexity-kcp-attrib $-1 -1 $119 $-1 $48 1 #
vertex $-1 -1 $-1 $71 $120 #
vertex $-1 -1 $-1 $71 $121 #
ellipse-curve $-1 -1 $-1 50.799999999999997 25.399999999999999 3.1749999999999998 0 0 -1 4.7624999999999993 0 0 1 I I #
face $-1 -1 $-1 $122 $123 $15 $-1 $124 reversed single #
loop $-1 -1 $-1 $-1 $125 $49 #
plane-surface $-1 -1 $-1 0 -4.7624999999999993 0 0 1 0 0 0 1 forward_v I I I I #
coedge $-1 -1 $-1 $126 $127 $128 $129 forward $50 $-1 #
coedge $-1 -1 $-1 $130 $52 $131 $132 forward $34 $-1 #
coedge $-1 -1 $-1 $52 $130 $133 $134 forward $34 $-1 #
coedge $-1 -1 $-1 $135 $136 $52 $84 reversed $137 $-1 #
edge $-1 -1 $-1 $138 -4.7624999999999993 $139 4.7624999999999993 $83 $140 forward @7 unknown #
face $-1 -1 $-1 $141 $142 $24 $-1 $87 reversed single #
loop $-1 -1 $-1 $-1 $143 $53 #
plane-surface $-1 -1 $-1 0 0 -260.19124999999997 0 0 1 1 0 0 forward_v I I I I #
coedge $-1 -1 $-1 $144 $145 $146 $147 forward $54 $-1 #
face $-1 -1 $-1 $148 $149 $18 $-1 $150 reversed single #
loop $-1 -1 $-1 $-1 $151 $56 #
plane-surface $-1 -1 $-1 17.462500000000002 0 0 -1 0 0 0 0 1 forward_v I I I I #
coedge $-1 -1 $-1 $152 $153 $154 $155 reversed $57 $-1 #
coedge $-1 -1 $-1 $156 $58 $157 $158 reversed $38 $-1 #
coedge $-1 -1 $-1 $58 $156 $152 $159 forward $38 $-1 #
coedge $-1 -1 $-1 $160 $161 $58 $96 forward $162 $-1 #
edge $-1 -1 $-1 $163 -1.5707963267948966 $164 0 $95 $165 forward @7 unknown #
model_id-kcp-attrib $-1 -1 $-1 $-1 $60 1 1021489520 1021489520 -347799551 6 #
face $166 -1 $-1 $167 $168 $7 $-1 $169 forward single #
loop $-1 -1 $-1 $-1 $170 $60 #
torus-surface $-1 -1 $-1 38.099999999999994 25.399999999999999 -499.74499999999989 0 1 0 12.699999999999999 4.7624999999999993 -1 0 0 forward_v I I I I #
coedge $-1 -1 $-1 $171 $172 $173 $174 forward $61 $-1 #
coedge $-1 -1 $-1 $65 $63 $172 $175 reversed $42 $-1 #
edge $-1 -1 $-1 $74 0 $176 19.799999999999997 $63 $177 forward @7 unknown #
coedge $-1 -1 $-1 $170 $173 $64 $105 forward $99 $-1 #
edge $-1 -1 $-1 $176 0 $106 3.1415926535897931 $64 $178 forward @7 unknown #
vertex $-1 -1 $-1 $66 $179 #
straight-curve $-1 -1 $-1 46.037499999999994 25.399999999999999 3.1749999999999998 0 0 -25.399999999999999 I I #
coedge $-1 -1 $-1 $180 $181 $67 $109 forward $182 $-1 #
edge $183 -1 $-1 $115 0 $114 3.1415926535897931 $67 $184 forward @7 unknown #
coedge $-1 -1 $-1 $185 $68 $181 $186 forward $112 $-1 #
coedge $-1 -1 $-1 $68 $185 $180 $187 reversed $112 $-1 #
loop $-1 -1 $-1 $-1 $110 $188 #
attrib_edge_convexity-kcp-attrib $-1 -1 $189 $-1 $69 1 #
vertex $-1 -1 $-1 $109 $190 #
vertex $-1 -1 $-1 $109 $191 #
ellipse-curve $-1 -1 $-1 50.799999999999997 25.399999999999999 3.1749999999999998 0 0 1 3.7464999999999988 0 0 1 I I #
attrib_edge_convexity-kcp-attrib $-1 -1 $192 $-1 $71 1 #
ellipse-curve $-1 -1 $-1 50.799999999999997 25.399999999999999 3.1749999999999998 0 0 -1 -4.7624999999999993 0 0 1 I I #
convexity-sys-attrib $-1 -1 $-1 $73 $48 #
point $-1 -1 $-1 55.5625 25.399999999999999 3.1749999999999998 #
point $-1 -1 $-1 46.037499999999994 25.399999999999999 3.1749999999999998 #
face $-1 -1 $-1 $193 $194 $15 $-1 $195 reversed single #
loop $-1 -1 $-1 $-1 $196 $77 #
plane-surface $-1 -1 $-1 -17.462500000000002 0 0 1 0 0 0 0 -1 forward_v I I I I #
coedge $-1 -1 $-1 $197 $133 $198 $199 forward $78 $-1 #
coedge $-1 -1 $-1 $200 $80 $197 $201 forward $50 $-1 #
coedge $-1 -1 $-1 $80 $200 $202 $203 forward $50 $-1 #
coedge $-1 -1 $-1 $136 $135 $80 $129 reversed $137 $-1 #
edge $-1 -1 $-1 $204 -4.7624999999999993 $205 4.7624999999999993 $128 $206 forward @7 unknown #
coedge $-1 -1 $-1 $82 $81 $207 $208 forward $34 $-1 #
coedge $-1 -1 $-1 $209 $210 $81 $132 reversed $194 $-1 #
edge $-1 -1 $-1 $139 -17.462500000000002 $211 17.462500000000002 $131 $212 forward @7 unknown #
coedge $-1 -1 $-1 $125 $213 $82 $134 reversed $78 $-1 #
edge $-1 -1 $-1 $214 -17.462500000000002 $138 17.462500000000002 $133 $215 forward @7 unknown #
coedge $-1 -1 $-1 $128 $83 $213 $216 forward $137 $-1 #
coedge $-1 -1 $-1 $83 $128 $209 $217 reversed $137 $-1 #
loop $-1 -1 $-1 $-1 $135 $193 #
vertex $-1 -1 $-1 $84 $218 #
vertex $-1 -1 $-1 $84 $219 #
straight-curve $-1 -1 $-1 17.462500000000002 0 260.19124999999997 0 1 0 I I #
face $-1 -1 $-1 $220 $221 $24 $-1 $222 reversed single #
loop $-1 -1 $-1 $-1 $223 $85 #
coedge $-1 -1 $-1 $224 $225 $226 $227 forward $86 $-1 #
coedge $-1 -1 $-1 $228 $88 $229 $230 reversed $54 $-1 #
coedge $-1 -1 $-1 $88 $228 $231 $232 reversed $54 $-1 #
coedge $-1 -1 $-1 $233 $234 $235 $147 reversed $236 $-1 #
edge $-1 -1 $-1 $237 -520.38249999999994 $238 5.6843418860808015e-014 $88 $239 forward @7 unknown #
face $-1 -1 $-1 $240 $162 $18 $-1 $241 forward single #
loop $-1 -1 $-1 $-1 $242 $89 #
plane-surface $-1 -1 $-1 0 -4.7624999999999993 0 0 1 0 0 0 1 forward_v I I I I #
coedge $-1 -1 $-1 $243 $244 $94 $159 reversed $90 $-1 #
coedge $-1 -1 $-1 $245 $92 $246 $159 reversed $57 $-1 #
coedge $-1 -1 $-1 $92 $245 $242 $247 forward $57 $-1 #
coedge $-1 -1 $-1 $248 $249 $92 $155 forward $250 $-1 #
edge $-1 -1 $-1 $164 0 $251 1.5707963267948981 $154 $165 forward @7 unknown #
coedge $-1 -1 $-1 $94 $93 $252 $253 reversed $38 $-1 #
coedge $-1 -1 $-1 $254 $255 $93 $158 forward $256 $-1 #
edge $-1 -1 $-1 $257 -520.38249999999994 $163 5.6843418860808015e-014 $157 $258 forward @7 unknown #
edge $-1 -1 $-1 $259 -520.38249999999994 $164 5.6843418860808015e-014 $246 $260 forward @7 unknown #
coedge $-1 -1 $-1 $161 $95 $244 $261 forward $162 $-1 #
coedge $-1 -1 $-1 $95 $160 $254 $262 forward $162 $-1 #
loop $-1 -1 $-1 $-1 $95 $148 #
vertex $-1 -1 $-1 $158 $263 #
vertex $-1 -1 $-1 $261 $264 #
ellipse-curve $-1 -1 $-1 12.700000000000003 0 260.19124999999997 0 0 -1 4.7624999999999993 0 0 1 I I #
model_id-kcp-attrib $-1 -1 $-1 $-1 $98 1 1021489520 1021489520 -347799551 7 #
face $265 -1 $-1 $266 $267 $7 $-1 $268 forward single #
loop $-1 -1 $-1 $-1 $269 $98 #
cone-surface $-1 -1 $-1 25.399999999999999 25.399999999999999 -499.74499999999989 0 0 1 4.7624999999999993 0 0 1 I I 0 1 4.7624999999999993 forward I I I I #
coedge $-1 -1 $-1 $270 $104 $271 $272 forward $99 $-1 #
coedge $-1 -1 $-1 $271 $101 $273 $274 reversed $61 $-1 #
coedge $-1 -1 $-1 $101 $271 $102 $175 forward $61 $-1 #
coedge $-1 -1 $-1 $104 $270 $101 $174 reversed $99 $-1 #
edge $-1 -1 $-1 $176 0 $275 3.1415926535897931 $101 $276 forward @7 unknown #
edge $-1 -1 $-1 $106 1.5385767900317078e-016 $176 3.1415926535897918 $102 $277 forward @7 unknown #
vertex $-1 -1 $-1 $175 $278 #
straight-curve $-1 -1 $-1 55.5625 25.399999999999999 3.1749999999999998 0 0 -25.399999999999999 I I #
ellipse-curve $-1 -1 $-1 50.799999999999997 25.399999999999999 -499.74499999999989 0 0 -1 4.7624999999999993 0 0 1 I I #
point $-1 -1 $-1 46.037499999999994 25.399999999999999 -499.74499999999989 #
coedge $-1 -1 $-1 $279 $108 $111 $187 forward $182 $-1 #
coedge $-1 -1 $-1 $108 $279 $110 $186 reversed $182 $-1 #
loop $-1 -1 $-1 $-1 $180 $280 #
attrib_edge_convexity-kcp-attrib $-1 -1 $281 $-1 $109 1 #
ellipse-curve $-1 -1 $-1 50.799999999999997 25.399999999999999 3.1749999999999998 0 0 1 -3.7464999999999988 0 0 1 I I #
coedge $-1 -1 $-1 $111 $110 $282 $283 reversed $112 $-1 #
edge $-1 -1 $-1 $115 0 $284 19.799999999999997 $181 $285 forward @7 unknown #
edge $-1 -1 $-1 $114 0 $286 19.799999999999997 $180 $287 forward @7 unknown #
face $288 -1 $-1 $280 $112 $7 $-1 $289 reversed single #
convexity-sys-attrib $-1 -1 $-1 $113 $69 #
point $-1 -1 $-1 54.546499999999995 25.399999999999999 3.1749999999999998 #
point $-1 -1 $-1 47.0535 25.399999999999999 3.1749999999999998 #
convexity-sys-attrib $-1 -1 $-1 $117 $71 #
face $-1 -1 $-1 $-1 $137 $15 $-1 $290 reversed single #
loop $-1 -1 $-1 $-1 $209 $122 #
plane-surface $-1 -1 $-1 0 4.7624999999999993 0 0 -1 0 0 0 -1 forward_v I I I I #
coedge $-1 -1 $-1 $291 $207 $210 $292 forward $123 $-1 #
coedge $-1 -1 $-1 $213 $125 $126 $201 reversed $78 $-1 #
coedge $-1 -1 $-1 $207 $291 $125 $199 reversed $123 $-1 #
edge $-1 -1 $-1 $214 -260.19124999999997 $293 260.19124999999997 $198 $294 forward @7 unknown #
coedge $-1 -1 $-1 $127 $126 $291 $295 forward $50 $-1 #
edge $-1 -1 $-1 $205 -17.462500000000002 $293 17.462500000000002 $197 $296 forward @7 unknown #
coedge $-1 -1 $-1 $210 $209 $127 $203 reversed $194 $-1 #
edge $-1 -1 $-1 $297 -17.462500000000002 $204 17.462500000000002 $202 $298 forward @7 unknown #
vertex $-1 -1 $-1 $129 $299 #
vertex $-1 -1 $-1 $216 $300 #
straight-curve $-1 -1 $-1 17.462500000000002 0 -260.19124999999997 0 -1 0 I I #
coedge $-1 -1 $-1 $196 $198 $130 $208 reversed $123 $-1 #
edge $-1 -1 $-1 $211 -4.7624999999999993 $214 4.7624999999999993 $207 $301 forward @7 unknown #
coedge $-1 -1 $-1 $202 $131 $136 $217 forward $194 $-1 #
coedge $-1 -1 $-1 $131 $202 $196 $292 reversed $194 $-1 #
vertex $-1 -1 $-1 $132 $302 #
straight-curve $-1 -1 $-1 0 4.7624999999999993 260.19124999999997 -1 0 0 I I #
coedge $-1 -1 $-1 $133 $197 $135 $216 reversed $78 $-1 #
vertex $-1 -1 $-1 $208 $303 #
straight-curve $-1 -1 $-1 0 -4.7624999999999993 260.19124999999997 1 0 0 I I #
edge $-1 -1 $-1 $138 -260.19124999999997 $205 260.19124999999997 $135 $304 forward @7 unknown #
edge $-1 -1 $-1 $139 -260.19124999999997 $204 260.19124999999997 $136 $305 forward @7 unknown #
point $-1 -1 $-1 17.462500000000002 -4.7624999999999993 260.19124999999997 #
point $-1 -1 $-1 17.462500000000002 4.7624999999999993 260.19124999999997 #
face $-1 -1 $-1 $306 $307 $24 $-1 $241 forward single #
loop $-1 -1 $-1 $-1 $308 $141 #
plane-surface $-1 -1 $-1 0 4.7624999999999993 0 0 -1 0 0 0 -1 forward_v I I I I #
coedge $-1 -1 $-1 $231 $309 $310 $311 forward $142 $-1 #
coedge $-1 -1 $-1 $225 $143 $312 $313 forward $86 $-1 #
coedge $-1 -1 $-1 $143 $224 $233 $314 forward $86 $-1 #
coedge $-1 -1 $-1 $235 $315 $143 $227 reversed $316 $-1 #
edge $-1 -1 $-1 $237 1.5707963267948959 $317 3.1415926535897918 $143 $318 forward @7 unknown #
coedge $-1 -1 $-1 $145 $144 $319 $320 forward $54 $-1 #
coedge $-1 -1 $-1 $321 $322 $144 $230 forward $323 $-1 #
edge $-1 -1 $-1 $324 -4.7624999999999993 $238 0 $144 $325 forward @7 unknown #
coedge $-1 -1 $-1 $309 $223 $145 $232 forward $142 $-1 #
edge $-1 -1 $-1 $237 0 $326 4.7624999999999993 $145 $327 forward @7 unknown #
coedge $-1 -1 $-1 $328 $146 $225 $314 reversed $236 $-1 #
coedge $-1 -1 $-1 $146 $328 $329 $330 reversed $236 $-1 #
coedge $-1 -1 $-1 $331 $226 $332 $147 forward $316 $-1 #
loop $-1 -1 $-1 $-1 $146 $333 #
vertex $-1 -1 $-1 $232 $334 #
vertex $-1 -1 $-1 $330 $335 #
straight-curve $-1 -1 $-1 -17.462500000000002 0 260.19124999999991 0 0 1 I I #
face $-1 -1 $-1 $336 $337 $18 $-1 $87 reversed single #
plane-surface $-1 -1 $-1 0 0 260.19124999999997 0 0 1 1 0 0 forward_v I I I I #
coedge $-1 -1 $-1 $338 $339 $153 $247 reversed $149 $-1 #
coedge $-1 -1 $-1 $340 $151 $341 $342 reversed $90 $-1 #
coedge $-1 -1 $-1 $151 $340 $160 $261 reversed $90 $-1 #
coedge $-1 -1 $-1 $153 $152 $343 $344 reversed $57 $-1 #
coedge $-1 -1 $-1 $345 $346 $151 $159 forward $347 $-1 #
edge $-1 -1 $-1 $348 -520.38249999999994 $251 5.6843418860808015e-014 $242 $349 forward @7 unknown #
coedge $-1 -1 $-1 $249 $154 $339 $350 forward $250 $-1 #
coedge $-1 -1 $-1 $154 $248 $345 $351 forward $250 $-1 #
loop $-1 -1 $-1 $-1 $154 $336 #
vertex $-1 -1 $-1 $350 $352 #
coedge $-1 -1 $-1 $353 $341 $156 $253 forward $337 $-1 #
edge $-1 -1 $-1 $259 0 $257 1.5707963267948966 $252 $354 forward @7 unknown #
coedge $-1 -1 $-1 $355 $157 $161 $262 reversed $256 $-1 #
coedge $-1 -1 $-1 $157 $355 $353 $356 reversed $256 $-1 #
loop $-1 -1 $-1 $-1 $157 $357 #
vertex $-1 -1 $-1 $356 $358 #
straight-curve $-1 -1 $-1 12.700000000000003 4.7624999999999993 260.19124999999991 0 0 1 I I #
vertex $-1 -1 $-1 $359 $360 #
straight-curve $-1 -1 $-1 17.462500000000002 0 260.19124999999991 0 0 1 I I #
edge $-1 -1 $-1 $164 0 $361 4.7624999999999993 $244 $362 forward @7 unknown #
edge $-1 -1 $-1 $361 -17.462500000000002 $163 -12.700000000000003 $254 $363 forward @7 unknown #
point $-1 -1 $-1 12.700000000000003 4.7624999999999993 260.19124999999997 #
point $-1 -1 $-1 17.462500000000002 0 260.19124999999997 #
model_id-kcp-attrib $-1 -1 $-1 $-1 $167 1 1021489520 1021489520 -347799551 8 #
face $364 -1 $-1 $365 $366 $7 $-1 $367 forward single #
loop $-1 -1 $-1 $-1 $368 $167 #
cone-surface $-1 -1 $-1 25.399999999999999 25.399999999999999 -499.74499999999989 0 0 1 4.7624999999999993 0 0 1 I I 0 1 4.7624999999999993 forward I I I I #
coedge $-1 -1 $-1 $369 $370 $371 $372 forward $168 $-1 #
coedge $-1 -1 $-1 $173 $170 $370 $373 reversed $99 $-1 #
coedge $-1 -1 $-1 $172 $171 $170 $272 reversed $61 $-1 #
edge $-1 -1 $-1 $106 0 $374 3.1415926535897931 $271 $375 forward @7 unknown #
coedge $-1 -1 $-1 $368 $371 $171 $274 forward $267 $-1 #
edge $-1 -1 $-1 $374 0 $275 3.1415926535897931 $171 $376 forward @7 unknown #
vertex $-1 -1 $-1 $274 $377 #
ellipse-curve $-1 -1 $-1 38.099999999999994 25.399999999999999 -499.74499999999989 0 1 0 17.462499999999999 0 0 1 I I #
ellipse-curve $-1 -1 $-1 50.799999999999997 25.399999999999995 -499.74499999999989 0 0 -1 -4.7624999999999993 2.8199664825478975e-015 0 1 I I #
point $-1 -1 $-1 55.5625 25.399999999999999 -499.74499999999989 #
coedge $-1 -1 $-1 $181 $180 $378 $379 reversed $182 $-1 #
face $380 -1 $-1 $-1 $182 $7 $-1 $381 reversed single #
convexity-sys-attrib $-1 -1 $-1 $183 $109 #
coedge $-1 -1 $-1 $382 $383 $185 $283 forward $384 $-1 #
edge $-1 -1 $-1 $286 0 $284 3.1415926535897931 $185 $385 forward @7 unknown #
vertex $-1 -1 $-1 $186 $386 #
straight-curve $-1 -1 $-1 47.0535 25.399999999999999 3.1749999999999998 0 0 -25.399999999999999 I I #
vertex $-1 -1 $-1 $379 $387 #
straight-curve $-1 -1 $-1 54.546499999999995 25.399999999999999 3.1749999999999998 0 0 -25.399999999999999 I I #
model_id-kcp-attrib $-1 -1 $-1 $-1 $188 1 1021489520 1021489520 -347799551 14 #
cone-surface $-1 -1 $-1 50.799999999999997 25.399999999999999 3.1749999999999998 0 0 -1 -3.7464999999999997 0 0 1 I I 0 1 3.7464999999999997 forward I I I I #
plane-surface $-1 -1 $-1 17.462500000000002 0 0 -1 0 0 0 0 1 forward_v I I I I #
coedge $-1 -1 $-1 $198 $196 $200 $295 reversed $123 $-1 #
edge $-1 -1 $-1 $211 -260.19124999999997 $297 260.19124999999997 $210 $388 forward @7 unknown #
vertex $-1 -1 $-1 $295 $389 #
straight-curve $-1 -1 $-1 -17.462500000000002 -4.7624999999999993 0 0 0 -1 I I #
edge $-1 -1 $-1 $293 -4.7624999999999993 $297 4.7624999999999993 $291 $390 forward @7 unknown #
straight-curve $-1 -1 $-1 0 -4.7624999999999993 -260.19124999999997 -1 0 0 I I #
vertex $-1 -1 $-1 $203 $391 #
straight-curve $-1 -1 $-1 0 4.7624999999999993 -260.19124999999997 1 0 0 I I #
point $-1 -1 $-1 17.462500000000002 4.7624999999999993 -260.19124999999997 #
point $-1 -1 $-1 17.462500000000002 -4.7624999999999993 -260.19124999999997 #
straight-curve $-1 -1 $-1 -17.462500000000002 0 260.19124999999997 0 -1 0 I I #
point $-1 -1 $-1 -17.462500000000002 4.7624999999999993 260.19124999999997 #
point $-1 -1 $-1 -17.462500000000002 -4.7624999999999993 260.19124999999997 #
straight-curve $-1 -1 $-1 17.462500000000002 -4.7624999999999993 0 0 0 -1 I I #
straight-curve $-1 -1 $-1 17.462500000000002 4.7624999999999993 0 0 0 -1 I I #
face $-1 -1 $-1 $333 $323 $24 $-1 $241 forward single #
loop $-1 -1 $-1 $-1 $392 $220 #
coedge $-1 -1 $-1 $393 $394 $395 $396 reversed $221 $-1 #
coedge $-1 -1 $-1 $223 $231 $393 $397 forward $142 $-1 #
coedge $-1 -1 $-1 $395 $332 $223 $311 reversed $398 $-1 #
edge $-1 -1 $-1 $399 0 $237 1.5707963267948959 $223 $318 forward @7 unknown #
coedge $-1 -1 $-1 $400 $401 $224 $313 reversed $402 $-1 #
edge $-1 -1 $-1 $317 12.699999999999999 $403 17.462500000000002 $312 $404 forward @7 unknown #
edge $-1 -1 $-1 $403 -4.7624999999999993 $237 0 $233 $327 forward @7 unknown #
coedge $-1 -1 $-1 $226 $331 $400 $405 reversed $316 $-1 #
loop $-1 -1 $-1 $-1 $331 $406 #
vertex $-1 -1 $-1 $313 $407 #
ellipse-curve $-1 -1 $-1 -12.699999999999996 0 -260.19125000000003 0 0 1 -3.5527136788005009e-015 4.7624999999999993 0 1 I I #
coedge $-1 -1 $-1 $394 $393 $228 $320 reversed $221 $-1 #
edge $-1 -1 $-1 $324 -260.19124999999997 $326 260.19124999999997 $319 $408 forward @7 unknown #
coedge $-1 -1 $-1 $322 $229 $409 $410 forward $323 $-1 #
coedge $-1 -1 $-1 $229 $321 $394 $411 forward $323 $-1 #
loop $-1 -1 $-1 $-1 $321 $306 #
vertex $-1 -1 $-1 $411 $412 #
straight-curve $-1 -1 $-1 -17.462500000000002 0 260.19124999999997 0 -1 0 I I #
vertex $-1 -1 $-1 $397 $413 #
straight-curve $-1 -1 $-1 -17.462500000000002 0 -260.19124999999997 0 1 0 I I #
coedge $-1 -1 $-1 $234 $233 $401 $414 reversed $236 $-1 #
coedge $-1 -1 $-1 $415 $392 $234 $330 forward $307 $-1 #
edge $-1 -1 $-1 $238 0 $416 4.7624999999999993 $234 $325 forward @7 unknown #
coedge $-1 -1 $-1 $315 $235 $392 $417 reversed $316 $-1 #
coedge $-1 -1 $-1 $310 $409 $88 $147 reversed $398 $-1 #
face $-1 -1 $-1 $418 $236 $24 $-1 $55 reversed single #
point $-1 -1 $-1 -17.462500000000002 0 -260.19124999999997 #
point $-1 -1 $-1 -17.462500000000002 0 260.19124999999997 #
face $-1 -1 $-1 $419 $250 $18 $-1 $241 forward single #
loop $-1 -1 $-1 $-1 $252 $240 #
coedge $-1 -1 $-1 $420 $242 $421 $422 reversed $149 $-1 #
coedge $-1 -1 $-1 $242 $420 $248 $350 reversed $149 $-1 #
coedge $-1 -1 $-1 $244 $243 $355 $423 reversed $90 $-1 #
coedge $-1 -1 $-1 $252 $353 $243 $342 forward $337 $-1 #
edge $-1 -1 $-1 $424 -4.7624999999999993 $259 0 $243 $425 forward @7 unknown #
coedge $-1 -1 $-1 $426 $421 $245 $344 forward $427 $-1 #
edge $-1 -1 $-1 $348 -1.5707963267948981 $259 0 $343 $354 forward @7 unknown #
coedge $-1 -1 $-1 $428 $246 $249 $351 reversed $347 $-1 #
coedge $-1 -1 $-1 $246 $428 $426 $359 reversed $347 $-1 #
loop $-1 -1 $-1 $-1 $246 $429 #
vertex $-1 -1 $-1 $247 $430 #
straight-curve $-1 -1 $-1 12.700000000000003 -4.7624999999999993 260.19124999999991 0 0 1 I I #
edge $-1 -1 $-1 $251 12.699999999999996 $431 17.462500000000002 $339 $432 forward @7 unknown #
edge $-1 -1 $-1 $431 -4.7624999999999993 $164 0 $345 $362 forward @7 unknown #
point $-1 -1 $-1 12.699999999999996 -4.7624999999999993 260.19124999999997 #
coedge $-1 -1 $-1 $341 $252 $255 $356 forward $337 $-1 #
ellipse-curve $-1 -1 $-1 12.700000000000003 0 -260.19125000000003 0 0 1 4.7624999999999993 0 0 1 I I #
coedge $-1 -1 $-1 $255 $254 $340 $423 forward $256 $-1 #
edge $-1 -1 $-1 $257 12.700000000000003 $424 17.462500000000002 $255 $433 forward @7 unknown #
face $-1 -1 $-1 $429 $256 $18 $-1 $222 reversed single #
point $-1 -1 $-1 12.700000000000003 4.7624999999999993 -260.19125000000003 #
edge $-1 -1 $-1 $259 0 $434 4.7624999999999993 $346 $425 forward @7 unknown #
point $-1 -1 $-1 17.462500000000002 0 -260.19124999999997 #
vertex $-1 -1 $-1 $261 $435 #
straight-curve $-1 -1 $-1 17.462500000000002 0 260.19124999999997 0 1 0 I I #
straight-curve $-1 -1 $-1 0 4.7624999999999993 260.19124999999997 -1 0 0 I I #
model_id-kcp-attrib $-1 -1 $-1 $-1 $266 1 1021489520 1021489520 -347799551 9 #
face $436 -1 $-1 $437 $438 $7 $-1 $439 reversed single #
loop $-1 -1 $-1 $440 $441 $266 #
plane-surface $-1 -1 $-1 25.399999999999999 25.399999999999999 3.1749999999999998 0 0 1 25.399999999999999 0 0 forward_v I I I I #
coedge $-1 -1 $-1 $442 $273 $443 $444 forward $267 $-1 #
coedge $-1 -1 $-1 $443 $269 $441 $445 reversed $168 $-1 #
coedge $-1 -1 $-1 $269 $443 $270 $373 forward $168 $-1 #
coedge $-1 -1 $-1 $273 $442 $269 $372 reversed $267 $-1 #
edge $-1 -1 $-1 $374 0 $446 19.799999999999997 $371 $447 forward @7 unknown #
edge $-1 -1 $-1 $275 0 $374 3.1415926535897931 $270 $448 forward @7 unknown #
vertex $-1 -1 $-1 $272 $449 #
ellipse-curve $-1 -1 $-1 38.099999999999994 25.399999999999999 -499.74499999999989 0 1 0 7.9375 0 0 1 I I #
ellipse-curve $-1 -1 $-1 25.399999999999999 25.399999999999999 -499.74499999999989 0 0 1 4.7624999999999993 0 0 1 I I #
point $-1 -1 $-1 20.637499999999999 25.399999999999999 -499.74499999999989 #
coedge $-1 -1 $-1 $450 $451 $279 $379 forward $452 $-1 #
edge $-1 -1 $-1 $284 0 $286 3.1415926535897931 $279 $453 forward @7 unknown #
model_id-kcp-attrib $-1 -1 $-1 $-1 $280 1 1021489520 1021489520 -347799551 15 #
cone-surface $-1 -1 $-1 50.799999999999997 25.399999999999999 3.1749999999999998 0 0 -1 -3.7464999999999997 0 0 1 I I 0 1 3.7464999999999997 forward I I I I #
coedge $-1 -1 $-1 $454 $282 $451 $455 forward $384 $-1 #
coedge $-1 -1 $-1 $282 $454 $450 $456 reversed $384 $-1 #
loop $-1 -1 $-1 $-1 $382 $457 #
ellipse-curve $-1 -1 $-1 50.799999999999997 25.399999999999999 -499.74499999999989 0 0 1 3.7464999999999988 0 0 1 I I #
point $-1 -1 $-1 47.0535 25.399999999999999 -499.74499999999989 #
point $-1 -1 $-1 54.546499999999995 25.399999999999999 -499.74499999999989 #
straight-curve $-1 -1 $-1 -17.462500000000002 4.7624999999999993 0 0 0 -1 I I #
point $-1 -1 $-1 -17.462500000000002 -4.7624999999999993 -260.19124999999997 #
straight-curve $-1 -1 $-1 -17.462500000000002 0 -260.19124999999997 0 1 0 I I #
point $-1 -1 $-1 -17.462500000000002 4.7624999999999993 -260.19124999999997 #
coedge $-1 -1 $-1 $329 $415 $331 $417 forward $307 $-1 #
coedge $-1 -1 $-1 $319 $308 $309 $397 reversed $221 $-1 #
coedge $-1 -1 $-1 $308 $319 $322 $411 reversed $221 $-1 #
coedge $-1 -1 $-1 $409 $310 $308 $396 forward $398 $-1 #
edge $-1 -1 $-1 $399 -520.38249999999994 $458 5.6843418860808015e-014 $308 $459 forward @7 unknown #
edge $-1 -1 $-1 $326 -17.462500000000002 $399 -12.699999999999999 $393 $433 forward @7 unknown #
loop $-1 -1 $-1 $-1 $409 $460 #
vertex $-1 -1 $-1 $311 $461 #
coedge $-1 -1 $-1 $462 $312 $315 $405 forward $402 $-1 #
coedge $-1 -1 $-1 $312 $462 $328 $414 forward $402 $-1 #
loop $-1 -1 $-1 $-1 $400 $418 #
vertex $-1 -1 $-1 $314 $463 #
straight-curve $-1 -1 $-1 0 -4.7624999999999993 -260.19124999999997 -1 0 0 I I #
edge $-1 -1 $-1 $317 -520.38249999999994 $464 5.6843418860808015e-014 $400 $465 forward @7 unknown #
face $-1 -1 $-1 $460 $316 $24 $-1 $466 reversed single #
point $-1 -1 $-1 -12.699999999999999 -4.7624999999999993 -260.19125000000003 #
straight-curve $-1 -1 $-1 -17.462500000000002 4.7624999999999993 0 0 0 -1 I I #
coedge $-1 -1 $-1 $332 $395 $321 $410 reversed $398 $-1 #
edge $-1 -1 $-1 $238 -1.5707963267948959 $458 0 $321 $467 forward @7 unknown #
edge $-1 -1 $-1 $458 12.699999999999999 $324 17.462500000000002 $394 $363 forward @7 unknown #
point $-1 -1 $-1 -17.462500000000002 4.7624999999999993 260.19124999999997 #
point $-1 -1 $-1 -17.462500000000002 4.7624999999999993 -260.19124999999997 #
edge $-1 -1 $-1 $416 -260.19124999999997 $403 260.19124999999997 $328 $468 forward @7 unknown #
coedge $-1 -1 $-1 $392 $329 $462 $469 forward $307 $-1 #
vertex $-1 -1 $-1 $330 $470 #
edge $-1 -1 $-1 $464 -3.1415926535897918 $238 -1.5707963267948959 $392 $467 forward @7 unknown #
face $-1 -1 $-1 $406 $402 $24 $-1 $150 reversed single #
face $-1 -1 $-1 $357 $427 $18 $-1 $87 reversed single #
coedge $-1 -1 $-1 $339 $338 $428 $471 reversed $149 $-1 #
coedge $-1 -1 $-1 $343 $426 $338 $422 forward $427 $-1 #
edge $-1 -1 $-1 $434 -17.462500000000002 $348 -12.699999999999996 $338 $404 forward @7 unknown #
edge $-1 -1 $-1 $361 -260.19124999999997 $424 260.19124999999997 $340 $472 forward @7 unknown #
vertex $-1 -1 $-1 $342 $473 #
straight-curve $-1 -1 $-1 17.462500000000002 0 -260.19124999999997 0 -1 0 I I #
coedge $-1 -1 $-1 $421 $343 $346 $359 forward $427 $-1 #
loop $-1 -1 $-1 $-1 $343 $419 #
coedge $-1 -1 $-1 $346 $345 $420 $471 forward $347 $-1 #
face $-1 -1 $-1 $-1 $347 $18 $-1 $91 reversed single #
point $-1 -1 $-1 12.699999999999996 -4.7624999999999993 -260.19125000000003 #
vertex $-1 -1 $-1 $351 $474 #
straight-curve $-1 -1 $-1 0 -4.7624999999999993 260.19124999999997 1 0 0 I I #
straight-curve $-1 -1 $-1 0 4.7624999999999993 -260.19124999999997 1 0 0 I I #
vertex $-1 -1 $-1 $471 $475 #
point $-1 -1 $-1 17.462500000000002 4.7624999999999993 260.19124999999997 #
model_id-kcp-attrib $-1 -1 $-1 $-1 $365 1 1021489520 1021489520 -347799551 10 #
face $476 -1 $-1 $477 $478 $7 $-1 $479 reversed single #
loop $-1 -1 $-1 $-1 $480 $365 #
cone-surface $-1 -1 $-1 25.399999999999999 25.399999999999999 -499.74499999999989 0 0 1 3.7464999999999997 0 0 1 I I 0 1 3.7464999999999997 forward I I I I #
loop $-1 -1 $-1 $-1 $481 $266 #
coedge $-1 -1 $-1 $482 $482 $369 $445 forward $366 $-1 #
coedge $-1 -1 $-1 $371 $368 $482 $483 reversed $267 $-1 #
coedge $-1 -1 $-1 $370 $369 $368 $444 reversed $168 $-1 #
edge $-1 -1 $-1 $275 0 $484 19.799999999999997 $368 $485 forward @7 unknown #
edge $-1 -1 $-1 $484 0 $446 3.1415926535897931 $441 $486 forward @7 unknown #
vertex $-1 -1 $-1 $483 $487 #
straight-curve $-1 -1 $-1 30.162499999999998 25.399999999999999 -499.74499999999989 0 0 25.399999999999999 I I #
ellipse-curve $-1 -1 $-1 25.399999999999999 25.399999999999999 -499.74499999999989 0 0 1 -4.7624999999999993 0 0 1 I I #
point $-1 -1 $-1 30.162499999999998 25.399999999999999 -499.74499999999989 #
coedge $-1 -1 $-1 $488 $378 $383 $456 forward $452 $-1 #
coedge $-1 -1 $-1 $378 $488 $382 $455 reversed $452 $-1 #
loop $-1 -1 $-1 $-1 $450 $477 #
ellipse-curve $-1 -1 $-1 50.799999999999997 25.399999999999999 -499.74499999999989 0 0 1 -3.7464999999999988 0 0 1 I I #
coedge $-1 -1 $-1 $383 $382 $489 $490 reversed $384 $-1 #
edge $-1 -1 $-1 $284 0 $491 3.1415926535897931 $451 $492 forward @7 unknown #
edge $-1 -1 $-1 $286 0 $493 3.1415926535897931 $450 $494 forward @7 unknown #
face $495 -1 $-1 $188 $384 $7 $-1 $496 reversed single #
vertex $-1 -1 $-1 $411 $497 #
straight-curve $-1 -1 $-1 -12.699999999999996 4.7624999999999993 260.19124999999991 0 0 1 I I #
face $-1 -1 $-1 $-1 $398 $24 $-1 $466 reversed single #
point $-1 -1 $-1 -12.699999999999999 4.7624999999999993 -260.19125000000003 #
coedge $-1 -1 $-1 $401 $400 $415 $469 reversed $402 $-1 #
point $-1 -1 $-1 -17.462500000000002 -4.7624999999999993 -260.19124999999997 #
vertex $-1 -1 $-1 $417 $498 #
straight-curve $-1 -1 $-1 -12.699999999999996 -4.7624999999999993 260.19124999999991 0 0 1 I I #
cone-surface $-1 -1 $-1 -12.699999999999996 0 260.19124999999991 0 0 1 -3.5527136788005009e-015 4.7624999999999993 0 1 I I 0 1 4.7624999999999993 forward I I I I #
ellipse-curve $-1 -1 $-1 -12.699999999999996 0 260.19124999999997 0 0 -1 -3.5527136788005009e-015 4.7624999999999993 0 1 I I #
straight-curve $-1 -1 $-1 -17.462500000000002 -4.7624999999999993 0 0 0 -1 I I #
edge $-1 -1 $-1 $416 -17.462500000000002 $464 -12.699999999999999 $462 $432 forward @7 unknown #
point $-1 -1 $-1 -17.462500000000002 -4.7624999999999993 260.19124999999997 #
edge $-1 -1 $-1 $431 -260.19124999999997 $434 260.19124999999997 $428 $499 forward @7 unknown #
straight-curve $-1 -1 $-1 17.462500000000002 4.7624999999999993 0 0 0 -1 I I #
point $-1 -1 $-1 17.462500000000002 4.7624999999999993 -260.19124999999997 #
point $-1 -1 $-1 17.462500000000002 -4.7624999999999993 260.19124999999997 #
point $-1 -1 $-1 17.462500000000002 -4.7624999999999993 -260.19124999999997 #
model_id-kcp-attrib $-1 -1 $-1 $-1 $437 1 1021489520 1021489520 -347799551 11 #
face $500 -1 $-1 $457 $452 $7 $-1 $501 reversed single #
loop $-1 -1 $-1 $-1 $502 $437 #
cone-surface $-1 -1 $-1 25.399999999999999 25.399999999999999 -499.74499999999989 0 0 1 3.7464999999999997 0 0 1 I I 0 1 3.7464999999999997 forward I I I I #
coedge $-1 -1 $-1 $503 $489 $504 $505 forward $438 $-1 #
coedge $-1 -1 $-1 $506 $506 $503 $507 forward $440 $-1 #
coedge $-1 -1 $-1 $441 $441 $442 $483 forward $366 $-1 #
edge $-1 -1 $-1 $446 1.5385767900317135e-016 $484 3.1415926535897918 $482 $508 forward @7 unknown #
vertex $-1 -1 $-1 $483 $509 #
straight-curve $-1 -1 $-1 20.637499999999999 25.399999999999999 -499.74499999999989 0 0 25.399999999999999 I I #
ellipse-curve $-1 -1 $-1 25.399999999999999 25.399999999999999 3.1749999999999998 0 0 1 -4.7624999999999993 0 0 1 I I #
point $-1 -1 $-1 30.162499999999998 25.399999999999999 3.1749999999999998 #
coedge $-1 -1 $-1 $451 $450 $510 $511 reversed $452 $-1 #
coedge $-1 -1 $-1 $480 $512 $454 $490 forward $438 $-1 #
edge $-1 -1 $-1 $493 0 $491 3.1415926535897931 $454 $513 forward @7 unknown #
vertex $-1 -1 $-1 $455 $514 #
ellipse-curve $-1 -1 $-1 38.099999999999994 25.399999999999999 -499.74499999999989 0 1 0 8.9535 0 0 1 I I #
vertex $-1 -1 $-1 $511 $515 #
ellipse-curve $-1 -1 $-1 38.099999999999994 25.399999999999999 -499.74499999999989 0 1 0 16.446499999999997 0 0 1 I I #
model_id-kcp-attrib $-1 -1 $-1 $-1 $457 1 1021489520 1021489520 -347799551 13 #
torus-surface $-1 -1 $-1 38.099999999999994 25.399999999999999 -499.74499999999989 0 1 0 12.699999999999999 3.7464999999999997 -1 0 0 forward_v I I I I #
point $-1 -1 $-1 -12.699999999999999 4.7624999999999993 260.19124999999997 #
point $-1 -1 $-1 -12.699999999999999 -4.7624999999999993 260.19124999999997 #
straight-curve $-1 -1 $-1 17.462500000000002 -4.7624999999999993 0 0 0 -1 I I #
model_id-kcp-attrib $-1 -1 $-1 $-1 $477 1 1021489520 1021489520 -347799551 12 #
torus-surface $-1 -1 $-1 38.099999999999994 25.399999999999999 -499.74499999999989 0 1 0 12.699999999999999 3.7464999999999997 -1 0 0 forward_v I I I I #
coedge $-1 -1 $-1 $516 $510 $512 $517 forward $478 $-1 #
coedge $-1 -1 $-1 $512 $480 $481 $507 reversed $438 $-1 #
coedge $-1 -1 $-1 $510 $516 $480 $505 reversed $478 $-1 #
edge $-1 -1 $-1 $491 0 $518 19.799999999999997 $504 $519 forward @7 unknown #
coedge $-1 -1 $-1 $481 $481 $516 $520 forward $440 $-1 #
edge $-1 -1 $-1 $521 0 $518 3.1415926535897931 $481 $522 forward @7 unknown #
ellipse-curve $-1 -1 $-1 25.399999999999999 25.399999999999995 3.1749999999999998 0 0 1 4.7624999999999993 2.8199664825478975e-015 0 1 I I #
point $-1 -1 $-1 20.637499999999999 25.399999999999999 3.1749999999999998 #
coedge $-1 -1 $-1 $502 $504 $488 $511 forward $478 $-1 #
edge $-1 -1 $-1 $491 0 $493 3.1415926535897931 $488 $523 forward @7 unknown #
coedge $-1 -1 $-1 $489 $503 $502 $517 reversed $438 $-1 #
ellipse-curve $-1 -1 $-1 25.399999999999999 25.399999999999999 -499.74499999999989 0 0 -1 -3.7464999999999988 0 0 1 I I #
point $-1 -1 $-1 29.146499999999996 25.399999999999999 -499.74499999999989 #
point $-1 -1 $-1 21.653500000000001 25.399999999999999 -499.74499999999989 #
coedge $-1 -1 $-1 $504 $502 $506 $520 reversed $478 $-1 #
edge $-1 -1 $-1 $493 0 $521 19.799999999999997 $502 $524 forward @7 unknown #
vertex $-1 -1 $-1 $520 $525 #
straight-curve $-1 -1 $-1 29.146499999999996 25.399999999999999 -499.74499999999989 0 0 25.399999999999999 I I #
edge $-1 -1 $-1 $518 0 $521 3.1415926535897931 $506 $526 forward @7 unknown #
vertex $-1 -1 $-1 $520 $527 #
ellipse-curve $-1 -1 $-1 25.399999999999999 25.399999999999999 3.1749999999999998 0 0 -1 -3.7464999999999988 0 0 1 I I #
ellipse-curve $-1 -1 $-1 25.399999999999999 25.399999999999999 -499.74499999999989 0 0 -1 3.7464999999999988 0 0 1 I I #
straight-curve $-1 -1 $-1 21.653500000000001 25.399999999999999 -499.74499999999989 0 0 25.399999999999999 I I #
point $-1 -1 $-1 29.146499999999996 25.399999999999999 3.1749999999999998 #
ellipse-curve $-1 -1 $-1 25.399999999999999 25.399999999999999 3.1749999999999998 0 0 -1 3.7464999999999988 0 0 1 I I #
point $-1 -1 $-1 21.653500000000001 25.399999999999999 3.1749999999999998 #
End-of-ACIS-data 