600 0 1 0           
86 GICL ACIS Healer - Source: /gicl/data5/repository/PTC/V18/piping18/cond_tube.sat - 6 0 18 ACIS 6.0.3 Solaris 24 Sat Apr 13 21:19:30 2002 
1 9.999999999999999547e-07 1.000000000000000036e-10 
body $-1 $1 $-1 $-1 #
lump $-1 $-1 $2 $0 #
shell $-1 $-1 $-1 $3 $-1 $1 #
face $-1 $4 $5 $2 $-1 $6 reversed single #
face $-1 $7 $8 $2 $-1 $9 forward single #
loop $-1 $10 $11 $3 #
plane-surface $-1 50.79999999999999716 25.39999999999999858 3.174999999999999822 0 0 -1 -25.39999999999999858 0 0 forward_v I I I I #
face $-1 $12 $13 $2 $-1 $14 forward single #
loop $-1 $-1 $15 $4 #
cone-surface $-1 50.79999999999999716 25.39999999999999858 3.174999999999999822 0 0 -1 -4.762499999999999289 0 0 1 I I 0 1 4.762499999999999289 forward I I I I #
loop $-1 $-1 $16 $3 #
coedge $-1 $17 $17 $18 $19 reversed $5 $-1 #
face $-1 $20 $21 $2 $-1 $22 forward single #
loop $-1 $-1 $23 $7 #
cone-surface $-1 50.79999999999999716 25.39999999999999858 3.174999999999999822 0 0 -1 -4.762499999999999289 0 0 1 I I 0 1 4.762499999999999289 forward I I I I #
coedge $-1 $24 $18 $25 $26 forward $8 $-1 #
coedge $-1 $27 $27 $28 $29 reversed $10 $-1 #
coedge $-1 $11 $11 $30 $31 reversed $5 $-1 #
coedge $-1 $15 $32 $11 $19 forward $8 $-1 #
edge $-1 $33 0 $34 3.141592653589793116 $11 $35 forward 7 unknown #
face $-1 $36 $37 $2 $-1 $38 forward single #
loop $-1 $-1 $39 $12 #
torus-surface $-1 38.09999999999999432 25.39999999999999858 -499.7449999999998909 0 1 0 12.69999999999999929 4.762499999999999289 -1 0 0 forward_v I I I I #
coedge $-1 $40 $30 $32 $41 forward $13 $-1 #
coedge $-1 $32 $15 $42 $43 reversed $8 $-1 #
coedge $-1 $30 $40 $15 $26 reversed $13 $-1 #
edge $-1 $34 0 $44 19.79999999999999716 $25 $45 forward 7 unknown #
coedge $-1 $16 $16 $46 $47 reversed $10 $-1 #
coedge $-1 $48 $49 $16 $29 forward $50 $-1 #
edge $-1 $51 0 $52 3.141592653589793116 $16 $53 forward 7 unknown #
coedge $-1 $23 $25 $17 $31 forward $13 $-1 #
edge $-1 $34 0 $33 3.141592653589793116 $17 $54 forward 7 unknown #
coedge $-1 $18 $24 $23 $41 reversed $8 $-1 #
vertex $-1 $31 $55 #
vertex $-1 $31 $56 #
ellipse-curve $-1 50.79999999999999716 25.39999999999999858 3.174999999999999822 0 0 -1 4.762499999999999289 0 0 1 I I #
face $-1 $57 $58 $2 $-1 $59 forward single #
loop $-1 $-1 $60 $20 #
torus-surface $-1 38.09999999999999432 25.39999999999999858 -499.7449999999998909 0 1 0 12.69999999999999929 4.762499999999999289 -1 0 0 forward_v I I I I #
coedge $-1 $61 $62 $63 $64 forward $21 $-1 #
coedge $-1 $25 $23 $62 $65 reversed $13 $-1 #
edge $-1 $33 0 $66 19.79999999999999716 $23 $67 forward 7 unknown #
coedge $-1 $60 $63 $24 $43 forward $37 $-1 #
edge $-1 $66 0 $44 3.141592653589793116 $24 $68 forward 7 unknown #
vertex $-1 $26 $69 #
straight-curve $-1 46.03749999999999432 25.39999999999999858 3.174999999999999822 0 0 -25.39999999999999858 I I #
coedge $-1 $70 $71 $27 $47 forward $72 $-1 #
edge $-1 $52 0 $51 3.141592653589793116 $27 $73 forward 7 unknown #
coedge $-1 $74 $28 $71 $75 forward $50 $-1 #
coedge $-1 $28 $74 $70 $76 reversed $50 $-1 #
loop $-1 $-1 $48 $77 #
vertex $-1 $47 $78 #
vertex $-1 $47 $79 #
ellipse-curve $-1 50.79999999999999716 25.39999999999999858 3.174999999999999822 0 0 1 3.746499999999998831 0 0 1 I I #
ellipse-curve $-1 50.79999999999999716 25.39999999999999858 3.174999999999999822 0 0 -1 -4.762499999999999289 0 0 1 I I #
point $-1 55.5625 25.39999999999999858 3.174999999999999822 #
point $-1 46.03749999999999432 25.39999999999999858 3.174999999999999822 #
face $-1 $80 $81 $2 $-1 $82 forward single #
loop $-1 $-1 $83 $36 #
cone-surface $-1 25.39999999999999858 25.39999999999999858 -499.7449999999998909 0 0 1 4.762499999999999289 0 0 1 I I 0 1 4.762499999999999289 forward I I I I #
coedge $-1 $84 $42 $85 $86 forward $37 $-1 #
coedge $-1 $85 $39 $87 $88 reversed $21 $-1 #
coedge $-1 $39 $85 $40 $65 forward $21 $-1 #
coedge $-1 $42 $84 $39 $64 reversed $37 $-1 #
edge $-1 $66 0 $89 3.141592653589793116 $39 $90 forward 7 unknown #
edge $-1 $44 1.538576790031707803e-16 $66 3.141592653589791784 $40 $91 forward 7 unknown #
vertex $-1 $65 $92 #
straight-curve $-1 55.5625 25.39999999999999858 3.174999999999999822 0 0 -25.39999999999999858 I I #
ellipse-curve $-1 50.79999999999999716 25.39999999999999858 -499.7449999999998909 0 0 -1 4.762499999999999289 0 0 1 I I #
point $-1 46.03749999999999432 25.39999999999999858 -499.7449999999998909 #
coedge $-1 $93 $46 $49 $76 forward $72 $-1 #
coedge $-1 $46 $93 $48 $75 reversed $72 $-1 #
loop $-1 $-1 $70 $94 #
ellipse-curve $-1 50.79999999999999716 25.39999999999999858 3.174999999999999822 0 0 1 -3.746499999999998831 0 0 1 I I #
coedge $-1 $49 $48 $95 $96 reversed $50 $-1 #
edge $-1 $52 0 $97 19.79999999999999716 $71 $98 forward 7 unknown #
edge $-1 $51 0 $99 19.79999999999999716 $70 $100 forward 7 unknown #
face $-1 $94 $50 $2 $-1 $101 reversed single #
point $-1 54.54649999999999466 25.39999999999999858 3.174999999999999822 #
point $-1 47.05349999999999966 25.39999999999999858 3.174999999999999822 #
face $-1 $102 $103 $2 $-1 $104 forward single #
loop $-1 $-1 $105 $57 #
cone-surface $-1 25.39999999999999858 25.39999999999999858 -499.7449999999998909 0 0 1 4.762499999999999289 0 0 1 I I 0 1 4.762499999999999289 forward I I I I #
coedge $-1 $106 $107 $108 $109 forward $58 $-1 #
coedge $-1 $63 $60 $107 $110 reversed $37 $-1 #
coedge $-1 $62 $61 $60 $86 reversed $21 $-1 #
edge $-1 $44 0 $111 3.141592653589793116 $85 $112 forward 7 unknown #
coedge $-1 $105 $108 $61 $88 forward $81 $-1 #
edge $-1 $111 0 $89 3.141592653589793116 $61 $113 forward 7 unknown #
vertex $-1 $88 $114 #
ellipse-curve $-1 38.09999999999999432 25.39999999999999858 -499.7449999999998909 0 1 0 17.46249999999999858 0 0 1 I I #
ellipse-curve $-1 50.79999999999999716 25.39999999999999503 -499.7449999999998909 0 0 -1 -4.762499999999999289 2.819966482547897455e-15 0 1 I I #
point $-1 55.5625 25.39999999999999858 -499.7449999999998909 #
coedge $-1 $71 $70 $115 $116 reversed $72 $-1 #
face $-1 $-1 $72 $2 $-1 $117 reversed single #
coedge $-1 $118 $119 $74 $96 forward $120 $-1 #
edge $-1 $99 0 $97 3.141592653589793116 $74 $121 forward 7 unknown #
vertex $-1 $75 $122 #
straight-curve $-1 47.05349999999999966 25.39999999999999858 3.174999999999999822 0 0 -25.39999999999999858 I I #
vertex $-1 $116 $123 #
straight-curve $-1 54.54649999999999466 25.39999999999999858 3.174999999999999822 0 0 -25.39999999999999858 I I #
cone-surface $-1 50.79999999999999716 25.39999999999999858 3.174999999999999822 0 0 -1 -3.746499999999999719 0 0 1 I I 0 1 3.746499999999999719 forward I I I I #
face $-1 $124 $125 $2 $-1 $126 reversed single #
loop $-1 $127 $128 $80 #
plane-surface $-1 25.39999999999999858 25.39999999999999858 3.174999999999999822 0 0 1 25.39999999999999858 0 0 forward_v I I I I #
coedge $-1 $129 $87 $130 $131 forward $81 $-1 #
coedge $-1 $130 $83 $128 $132 reversed $58 $-1 #
coedge $-1 $83 $130 $84 $110 forward $58 $-1 #
coedge $-1 $87 $129 $83 $109 reversed $81 $-1 #
edge $-1 $111 0 $133 19.79999999999999716 $108 $134 forward 7 unknown #
edge $-1 $89 0 $111 3.141592653589793116 $84 $135 forward 7 unknown #
vertex $-1 $86 $136 #
ellipse-curve $-1 38.09999999999999432 25.39999999999999858 -499.7449999999998909 0 1 0 7.9375 0 0 1 I I #
ellipse-curve $-1 25.39999999999999858 25.39999999999999858 -499.7449999999998909 0 0 1 4.762499999999999289 0 0 1 I I #
point $-1 20.63749999999999929 25.39999999999999858 -499.7449999999998909 #
coedge $-1 $137 $138 $93 $116 forward $139 $-1 #
edge $-1 $97 0 $99 3.141592653589793116 $93 $140 forward 7 unknown #
cone-surface $-1 50.79999999999999716 25.39999999999999858 3.174999999999999822 0 0 -1 -3.746499999999999719 0 0 1 I I 0 1 3.746499999999999719 forward I I I I #
coedge $-1 $141 $95 $138 $142 forward $120 $-1 #
coedge $-1 $95 $141 $137 $143 reversed $120 $-1 #
loop $-1 $-1 $118 $144 #
ellipse-curve $-1 50.79999999999999716 25.39999999999999858 -499.7449999999998909 0 0 1 3.746499999999998831 0 0 1 I I #
point $-1 47.05349999999999966 25.39999999999999858 -499.7449999999998909 #
point $-1 54.54649999999999466 25.39999999999999858 -499.7449999999998909 #
face $-1 $145 $146 $2 $-1 $147 reversed single #
loop $-1 $-1 $148 $102 #
cone-surface $-1 25.39999999999999858 25.39999999999999858 -499.7449999999998909 0 0 1 3.746499999999999719 0 0 1 I I 0 1 3.746499999999999719 forward I I I I #
loop $-1 $-1 $149 $80 #
coedge $-1 $150 $150 $106 $132 forward $103 $-1 #
coedge $-1 $108 $105 $150 $151 reversed $81 $-1 #
coedge $-1 $107 $106 $105 $131 reversed $58 $-1 #
edge $-1 $89 0 $152 19.79999999999999716 $105 $153 forward 7 unknown #
edge $-1 $152 0 $133 3.141592653589793116 $128 $154 forward 7 unknown #
vertex $-1 $151 $155 #
straight-curve $-1 30.16249999999999787 25.39999999999999858 -499.7449999999998909 0 0 25.39999999999999858 I I #
ellipse-curve $-1 25.39999999999999858 25.39999999999999858 -499.7449999999998909 0 0 1 -4.762499999999999289 0 0 1 I I #
point $-1 30.16249999999999787 25.39999999999999858 -499.7449999999998909 #
coedge $-1 $156 $115 $119 $143 forward $139 $-1 #
coedge $-1 $115 $156 $118 $142 reversed $139 $-1 #
loop $-1 $-1 $137 $145 #
ellipse-curve $-1 50.79999999999999716 25.39999999999999858 -499.7449999999998909 0 0 1 -3.746499999999998831 0 0 1 I I #
coedge $-1 $119 $118 $157 $158 reversed $120 $-1 #
edge $-1 $97 0 $159 3.141592653589793116 $138 $160 forward 7 unknown #
edge $-1 $99 0 $161 3.141592653589793116 $137 $162 forward 7 unknown #
face $-1 $77 $120 $2 $-1 $163 reversed single #
face $-1 $144 $139 $2 $-1 $164 reversed single #
loop $-1 $-1 $165 $124 #
cone-surface $-1 25.39999999999999858 25.39999999999999858 -499.7449999999998909 0 0 1 3.746499999999999719 0 0 1 I I 0 1 3.746499999999999719 forward I I I I #
coedge $-1 $166 $157 $167 $168 forward $125 $-1 #
coedge $-1 $169 $169 $166 $170 forward $127 $-1 #
coedge $-1 $128 $128 $129 $151 forward $103 $-1 #
edge $-1 $133 1.538576790031713473e-16 $152 3.141592653589791784 $150 $171 forward 7 unknown #
vertex $-1 $151 $172 #
straight-curve $-1 20.63749999999999929 25.39999999999999858 -499.7449999999998909 0 0 25.39999999999999858 I I #
ellipse-curve $-1 25.39999999999999858 25.39999999999999858 3.174999999999999822 0 0 1 -4.762499999999999289 0 0 1 I I #
point $-1 30.16249999999999787 25.39999999999999858 3.174999999999999822 #
coedge $-1 $138 $137 $173 $174 reversed $139 $-1 #
coedge $-1 $148 $175 $141 $158 forward $125 $-1 #
edge $-1 $161 0 $159 3.141592653589793116 $141 $176 forward 7 unknown #
vertex $-1 $142 $177 #
ellipse-curve $-1 38.09999999999999432 25.39999999999999858 -499.7449999999998909 0 1 0 8.953500000000000014 0 0 1 I I #
vertex $-1 $174 $178 #
ellipse-curve $-1 38.09999999999999432 25.39999999999999858 -499.7449999999998909 0 1 0 16.44649999999999679 0 0 1 I I #
torus-surface $-1 38.09999999999999432 25.39999999999999858 -499.7449999999998909 0 1 0 12.69999999999999929 3.746499999999999719 -1 0 0 forward_v I I I I #
torus-surface $-1 38.09999999999999432 25.39999999999999858 -499.7449999999998909 0 1 0 12.69999999999999929 3.746499999999999719 -1 0 0 forward_v I I I I #
coedge $-1 $179 $173 $175 $180 forward $146 $-1 #
coedge $-1 $175 $148 $149 $170 reversed $125 $-1 #
coedge $-1 $173 $179 $148 $168 reversed $146 $-1 #
edge $-1 $159 0 $181 19.79999999999999716 $167 $182 forward 7 unknown #
coedge $-1 $149 $149 $179 $183 forward $127 $-1 #
edge $-1 $184 0 $181 3.141592653589793116 $149 $185 forward 7 unknown #
ellipse-curve $-1 25.39999999999999858 25.39999999999999503 3.174999999999999822 0 0 1 4.762499999999999289 2.819966482547897455e-15 0 1 I I #
point $-1 20.63749999999999929 25.39999999999999858 3.174999999999999822 #
coedge $-1 $165 $167 $156 $174 forward $146 $-1 #
edge $-1 $159 0 $161 3.141592653589793116 $156 $186 forward 7 unknown #
coedge $-1 $157 $166 $165 $180 reversed $125 $-1 #
ellipse-curve $-1 25.39999999999999858 25.39999999999999858 -499.7449999999998909 0 0 -1 -3.746499999999998831 0 0 1 I I #
point $-1 29.14649999999999608 25.39999999999999858 -499.7449999999998909 #
point $-1 21.65350000000000108 25.39999999999999858 -499.7449999999998909 #
coedge $-1 $167 $165 $169 $183 reversed $146 $-1 #
edge $-1 $161 0 $184 19.79999999999999716 $165 $187 forward 7 unknown #
vertex $-1 $183 $188 #
straight-curve $-1 29.14649999999999608 25.39999999999999858 -499.7449999999998909 0 0 25.39999999999999858 I I #
edge $-1 $181 0 $184 3.141592653589793116 $169 $189 forward 7 unknown #
vertex $-1 $183 $190 #
ellipse-curve $-1 25.39999999999999858 25.39999999999999858 3.174999999999999822 0 0 -1 -3.746499999999998831 0 0 1 I I #
ellipse-curve $-1 25.39999999999999858 25.39999999999999858 -499.7449999999998909 0 0 -1 3.746499999999998831 0 0 1 I I #
straight-curve $-1 21.65350000000000108 25.39999999999999858 -499.7449999999998909 0 0 25.39999999999999858 I I #
point $-1 29.14649999999999608 25.39999999999999858 3.174999999999999822 #
ellipse-curve $-1 25.39999999999999858 25.39999999999999858 3.174999999999999822 0 0 -1 3.746499999999998831 0 0 1 I I #
point $-1 21.65350000000000108 25.39999999999999858 3.174999999999999822 #
End-of-ACIS-data 