600 0 1 0           
98 GICL Pro/E ACIS Translator - Source: f:/data5/repository/PTC/V18/piping18/control_shroud.prt - 6 0 13 ACIS 6.0.3 NT 24 Thu Apr 04 13:31:42 2002 
1 9.9999999999999995e-007 1e-010 
body $-1 $1 $-1 $2 #
lump $-1 $3 $4 $0 #
transform $-1 1 0 0 0 1 0 0 0 1 0 0 0 25.399999999999999 no_rotate no_reflect no_shear #
lump $-1 $-1 $5 $0 #
shell $-1 $-1 $-1 $6 $-1 $1 #
shell $-1 $-1 $-1 $7 $-1 $3 #
face $-1 $8 $9 $4 $-1 $10 forward single #
face $-1 $11 $12 $5 $-1 $13 reversed single #
face $-1 $14 $15 $4 $-1 $16 reversed single #
loop $-1 $17 $18 $6 #
plane-surface $-1 22 0.099999999999999992 22 1 0 0 0 1 0 forward_v I I I I #
face $-1 $19 $20 $5 $-1 $21 forward single #
loop $-1 $-1 $22 $7 #
plane-surface $-1 19.724999999999998 10.699999999999999 22 0 0 -1 1 0 0 forward_v I I I I #
face $-1 $23 $24 $4 $-1 $25 reversed single #
loop $-1 $-1 $26 $8 #
cone-surface $-1 22 3.75 20 -1 0 0 0 -0.049999999999999996 0 1 I I 0 1 0.049999999999999996 forward I I I I #
loop $-1 $27 $28 $6 #
coedge $-1 $29 $29 $30 $31 forward $9 $-1 #
face $-1 $32 $33 $5 $-1 $34 forward single #
loop $-1 $-1 $35 $11 #
plane-surface $-1 13.399999999999999 4.6999999999999993 22 1 0 0 0 -1 0 forward_v I I I I #
coedge $-1 $36 $37 $38 $39 reversed $12 $-1 #
face $-1 $40 $41 $4 $-1 $42 reversed single #
loop $-1 $-1 $43 $14 #
cone-surface $-1 22 3.75 20 -1 0 0 0 -0.049999999999999996 0 1 I I 0 1 0.049999999999999996 forward I I I I #
coedge $-1 $44 $30 $45 $46 forward $15 $-1 #
loop $-1 $47 $48 $6 #
coedge $-1 $49 $49 $50 $51 forward $17 $-1 #
coedge $-1 $18 $18 $52 $53 forward $9 $-1 #
coedge $-1 $26 $54 $18 $31 reversed $15 $-1 #
edge $-1 $55 0 $56 3.1415926535897931 $18 $57 forward 7 unknown #
face $-1 $58 $59 $5 $-1 $60 forward single #
loop $-1 $-1 $61 $19 #
plane-surface $-1 13.399999999999999 0.099999999999999645 22 0 -1 0 -1 0 0 forward_v I I I I #
coedge $-1 $62 $63 $64 $65 forward $20 $-1 #
coedge $-1 $66 $22 $67 $68 reversed $12 $-1 #
coedge $-1 $22 $69 $70 $71 forward $12 $-1 #
coedge $-1 $72 $73 $22 $39 forward $20 $-1 #
edge $-1 $74 0 $75 3.3999999999999986 $22 $76 forward 7 unknown #
face $-1 $77 $78 $4 $-1 $79 reversed single #
loop $-1 $80 $81 $23 #
plane-surface $-1 21.899999999999999 0.099999999999999992 22 1 0 0 0 1 0 forward_v I I I I #
coedge $-1 $82 $52 $54 $83 forward $24 $-1 #
coedge $-1 $54 $26 $81 $84 forward $15 $-1 #
coedge $-1 $52 $82 $26 $46 reversed $24 $-1 #
edge $-1 $55 0 $85 0.10000000000000142 $45 $86 forward 7 unknown #
loop $-1 $-1 $87 $6 #
coedge $-1 $88 $89 $90 $91 forward $27 $-1 #
coedge $-1 $28 $28 $92 $93 forward $17 $-1 #
coedge $-1 $94 $95 $28 $51 reversed $78 $-1 #
edge $-1 $96 0 $97 3.1415926535897931 $28 $98 forward 7 unknown #
coedge $-1 $43 $45 $29 $53 reversed $24 $-1 #
edge $-1 $56 0 $55 3.1415926535897931 $29 $99 forward 7 unknown #
coedge $-1 $30 $44 $43 $83 reversed $15 $-1 #
vertex $-1 $53 $100 #
vertex $-1 $53 $101 #
ellipse-curve $-1 22 3.75 20 -1 0 0 0 0.049999999999999822 0 1 I I #
face $-1 $102 $103 $5 $-1 $104 reversed single #
loop $-1 $-1 $105 $32 #
plane-surface $-1 13.299999999999999 0.099999999999999645 22 -1 0 0 0 1 0 forward_v I I I I #
coedge $-1 $106 $107 $108 $109 forward $33 $-1 #
coedge $-1 $73 $35 $110 $111 reversed $20 $-1 #
coedge $-1 $35 $72 $112 $113 reversed $20 $-1 #
coedge $-1 $107 $106 $35 $65 reversed $33 $-1 #
edge $-1 $114 0 $115 3.6000000000000014 $35 $116 forward 7 unknown #
coedge $-1 $117 $36 $118 $119 reversed $12 $-1 #
coedge $-1 $120 $121 $36 $68 forward $122 $-1 #
edge $-1 $123 0 $74 4.1000000000000014 $36 $124 forward 7 unknown #
coedge $-1 $37 $117 $125 $126 reversed $12 $-1 #
coedge $-1 $127 $128 $37 $71 reversed $103 $-1 #
edge $-1 $129 0 $75 0.099999999999997868 $37 $130 forward 7 unknown #
coedge $-1 $63 $38 $128 $131 forward $20 $-1 #
coedge $-1 $38 $62 $120 $132 reversed $20 $-1 #
vertex $-1 $68 $133 #
vertex $-1 $71 $134 #
straight-curve $-1 13.399999999999999 4.6999999999999993 22 0 -1 0 I I #
face $-1 $135 $136 $4 $-1 $137 reversed single #
loop $-1 $-1 $94 $40 #
cone-surface $-1 22 5.75 20 -1 0 0 0 -0.049999999999999996 0 1 I I 0 1 0.049999999999999996 forward I I I I #
loop $-1 $138 $139 $23 #
coedge $-1 $140 $140 $44 $84 reversed $41 $-1 #
coedge $-1 $45 $43 $140 $141 forward $24 $-1 #
edge $-1 $56 0 $142 0.10000000000000142 $43 $143 forward 7 unknown #
edge $-1 $85 0 $142 3.141592653589651 $81 $144 forward 7 unknown #
vertex $-1 $141 $145 #
straight-curve $-1 22 3.7999999999999998 20 -1 0 0 I I #
coedge $-1 $146 $146 $147 $148 forward $47 $-1 #
coedge $-1 $149 $48 $150 $151 forward $27 $-1 #
coedge $-1 $48 $152 $153 $154 reversed $27 $-1 #
coedge $-1 $155 $156 $48 $91 reversed $157 $-1 #
edge $-1 $158 0 $159 3.1000000000000014 $48 $160 forward 7 unknown #
coedge $-1 $161 $162 $49 $93 reversed $136 $-1 #
edge $-1 $97 0 $96 3.1415926535897931 $49 $163 forward 7 unknown #
coedge $-1 $164 $50 $162 $165 forward $78 $-1 #
coedge $-1 $50 $164 $161 $166 reversed $78 $-1 #
vertex $-1 $93 $167 #
vertex $-1 $93 $168 #
ellipse-curve $-1 22 5.75 20 -1 0 0 0 0.049999999999998934 0 1 I I #
ellipse-curve $-1 22 3.75 20 -1 0 0 0 -0.050000000000000266 0 1 I I #
point $-1 22 3.7999999999999998 20 #
point $-1 22 3.6999999999999997 20 #
face $-1 $169 $170 $5 $-1 $171 reversed single #
loop $-1 $-1 $127 $58 #
plane-surface $-1 22 1.2999999999999998 21.599999999999998 0 1 0 0 0 1 forward_v I I I I #
coedge $-1 $125 $172 $127 $173 reversed $59 $-1 #
coedge $-1 $64 $61 $174 $175 reversed $33 $-1 #
coedge $-1 $61 $64 $176 $177 forward $33 $-1 #
coedge $-1 $172 $178 $61 $109 reversed $59 $-1 #
edge $-1 $179 0 $180 3.6000000000000014 $61 $181 forward 7 unknown #
coedge $-1 $174 $182 $62 $111 forward $183 $-1 #
edge $-1 $184 0 $115 4.5999999999999996 $110 $185 forward 7 unknown #
coedge $-1 $186 $176 $63 $113 forward $170 $-1 #
edge $-1 $114 0 $187 1.1999999999999997 $63 $188 forward 7 unknown #
vertex $-1 $113 $189 #
vertex $-1 $175 $190 #
straight-curve $-1 13.399999999999999 0.099999999999999645 21.600000000000001 0 0 -1 I I #
coedge $-1 $69 $66 $191 $192 reversed $12 $-1 #
coedge $-1 $193 $194 $66 $119 forward $195 $-1 #
edge $-1 $196 0 $123 0.10000000000000053 $66 $197 forward 7 unknown #
coedge $-1 $198 $67 $73 $132 forward $122 $-1 #
coedge $-1 $67 $198 $193 $199 reversed $122 $-1 #
loop $-1 $-1 $120 $200 #
vertex $-1 $119 $201 #
straight-curve $-1 17.499999999999996 4.6999999999999993 22 -1 0 0 I I #
coedge $-1 $202 $105 $69 $126 forward $59 $-1 #
edge $-1 $129 0 $203 3.4999999999999991 $69 $204 forward 7 unknown #
coedge $-1 $205 $70 $105 $173 forward $103 $-1 #
coedge $-1 $70 $205 $72 $131 reversed $103 $-1 #
vertex $-1 $71 $206 #
straight-curve $-1 13.299999999999997 1.2999999999999998 22 1 0 0 I I #
edge $-1 $75 0 $187 0.39999999999999858 $72 $207 forward 7 unknown #
edge $-1 $74 0 $184 4 $120 $208 forward 7 unknown #
point $-1 13.399999999999995 4.6999999999999993 22 #
point $-1 13.399999999999995 1.3000000000000007 22 #
face $-1 $209 $210 $4 $-1 $211 reversed single #
loop $-1 $-1 $161 $77 #
cone-surface $-1 22 5.75 20 -1 0 0 0 -0.049999999999999996 0 1 I I 0 1 0.049999999999999996 forward I I I I #
loop $-1 $212 $213 $23 #
coedge $-1 $214 $214 $164 $215 reversed $80 $-1 #
coedge $-1 $81 $81 $82 $141 reversed $41 $-1 #
edge $-1 $142 0 $85 3.141592653589651 $140 $216 forward 7 unknown #
vertex $-1 $141 $217 #
straight-curve $-1 22 3.7000000000000002 20 -1 0 0 I I #
ellipse-curve $-1 21.899999999999999 3.7499999999999996 20.000000000000004 -1 0 0 0 0.050000000000000266 -3.5527136788005009e-015 1 I I #
point $-1 21.899999999999999 3.7999999999999998 20 #
coedge $-1 $87 $87 $218 $219 forward $47 $-1 #
coedge $-1 $220 $221 $87 $148 reversed $222 $-1 #
edge $-1 $223 0 $224 3.1415926535897931 $87 $225 forward 7 unknown #
coedge $-1 $226 $88 $227 $228 reversed $27 $-1 #
coedge $-1 $229 $230 $88 $151 reversed $231 $-1 #
edge $-1 $159 0 $232 10.65 $88 $233 forward 7 unknown #
coedge $-1 $89 $226 $234 $235 forward $27 $-1 #
coedge $-1 $236 $237 $89 $154 forward $238 $-1 #
edge $-1 $158 0 $239 1.2 $89 $240 forward 7 unknown #
coedge $-1 $241 $90 $237 $242 reversed $157 $-1 #
coedge $-1 $90 $241 $229 $243 reversed $157 $-1 #
loop $-1 $-1 $241 $244 #
vertex $-1 $154 $245 #
vertex $-1 $151 $246 #
straight-curve $-1 22 0.099999999999999992 21.600000000000001 0 0 -1 I I #
coedge $-1 $247 $92 $95 $166 forward $136 $-1 #
coedge $-1 $92 $247 $94 $165 reversed $136 $-1 #
ellipse-curve $-1 22 5.75 20 -1 0 0 0 -0.050000000000000711 0 1 I I #
coedge $-1 $95 $94 $139 $215 forward $78 $-1 #
edge $-1 $96 0 $248 0.10000000000000142 $162 $249 forward 7 unknown #
edge $-1 $97 0 $250 0.10000000000000142 $161 $251 forward 7 unknown #
point $-1 22 5.7999999999999989 20 #
point $-1 22 5.6999999999999993 20 #
face $-1 $252 $253 $5 $-1 $254 forward single #
loop $-1 $-1 $186 $102 #
plane-surface $-1 22 0.099999999999999992 21.599999999999998 0 0 -1 0 1 0 forward_v I I I I #
coedge $-1 $105 $108 $255 $256 forward $59 $-1 #
edge $-1 $129 0 $257 0.39999999999999858 $105 $258 forward 7 unknown #
coedge $-1 $259 $110 $106 $175 forward $183 $-1 #
edge $-1 $115 0 $180 0.099999999999997868 $174 $260 forward 7 unknown #
coedge $-1 $112 $255 $107 $177 reversed $170 $-1 #
edge $-1 $114 0 $179 0.099999999999999645 $107 $261 forward 7 unknown #
coedge $-1 $108 $202 $259 $262 reversed $59 $-1 #
vertex $-1 $177 $263 #
vertex $-1 $262 $264 #
straight-curve $-1 13.299999999999999 0.099999999999999645 21.600000000000001 0 0 -1 I I #
coedge $-1 $110 $265 $198 $266 forward $183 $-1 #
loop $-1 $-1 $110 $267 #
vertex $-1 $266 $268 #
straight-curve $-1 13.399999999999999 4.6999999999999993 18 0 -1 0 I I #
coedge $-1 $255 $112 $205 $269 forward $170 $-1 #
vertex $-1 $113 $270 #
straight-curve $-1 13.399999999999999 0.099999999999999645 21.599999999999998 0 1 0 I I #
point $-1 13.399999999999999 0.099999999999999645 21.600000000000001 #
point $-1 13.399999999999995 0.099999999999999645 18 #
coedge $-1 $271 $272 $117 $192 forward $253 $-1 #
edge $-1 $203 0 $196 4.1999999999999993 $117 $273 forward 7 unknown #
coedge $-1 $274 $118 $121 $199 forward $195 $-1 #
coedge $-1 $118 $274 $271 $275 reversed $195 $-1 #
loop $-1 $-1 $193 $252 #
vertex $-1 $192 $276 #
straight-curve $-1 17.5 4.7999999999999998 22 0 -1 0 I I #
coedge $-1 $121 $120 $182 $266 reversed $122 $-1 #
edge $-1 $123 0 $277 4 $121 $278 forward 7 unknown #
face $-1 $267 $122 $5 $-1 $279 forward single #
point $-1 17.499999999999996 4.6999999999999993 22 #
coedge $-1 $178 $125 $272 $280 forward $59 $-1 #
vertex $-1 $126 $281 #
straight-curve $-1 13.299999999999999 1.3000000000000007 22 0 1 0 I I #
coedge $-1 $128 $127 $186 $269 reversed $103 $-1 #
point $-1 13.299999999999997 1.3000000000000007 22 #
straight-curve $-1 13.399999999999999 1.2999999999999998 22 0 0 -1 I I #
straight-curve $-1 13.399999999999999 4.6999999999999993 22 0 0 -1 I I #
face $-1 $282 $283 $4 $-1 $284 reversed single #
loop $-1 $-1 $285 $135 #
plane-surface $-1 22 1.2999999999999998 21.599999999999998 0 1 0 0 0 1 forward_v I I I I #
loop $-1 $-1 $286 $23 #
coedge $-1 $287 $288 $289 $290 reversed $138 $-1 #
coedge $-1 $139 $139 $247 $291 reversed $80 $-1 #
edge $-1 $248 0 $250 3.141592653589651 $139 $292 forward 7 unknown #
ellipse-curve $-1 21.899999999999999 3.7499999999999996 19.999999999999996 -1 0 0 0 -0.049999999999999822 3.5527136788005009e-015 1 I I #
point $-1 21.899999999999999 3.6999999999999997 20 #
coedge $-1 $293 $294 $146 $219 reversed $295 $-1 #
edge $-1 $224 0 $223 3.1415926535897931 $146 $296 forward 7 unknown #
coedge $-1 $297 $147 $294 $298 forward $222 $-1 #
coedge $-1 $147 $297 $293 $299 reversed $222 $-1 #
loop $-1 $-1 $220 $300 #
vertex $-1 $219 $301 #
vertex $-1 $219 $302 #
ellipse-curve $-1 22 7.75 20 -1 0 0 0 0.049999999999998934 0 1 I I #
coedge $-1 $152 $149 $303 $304 reversed $27 $-1 #
coedge $-1 $305 $306 $149 $228 forward $307 $-1 #
edge $-1 $308 0 $232 3.5 $149 $309 forward 7 unknown #
coedge $-1 $310 $150 $156 $243 forward $231 $-1 #
coedge $-1 $150 $310 $311 $312 reversed $231 $-1 #
loop $-1 $-1 $229 $313 #
vertex $-1 $228 $314 #
straight-curve $-1 22 0.099999999999999645 18.5 0 1 0 I I #
coedge $-1 $285 $315 $152 $235 reversed $210 $-1 #
edge $-1 $316 0 $239 0.39999999999999858 $152 $317 forward 7 unknown #
coedge $-1 $318 $153 $315 $319 forward $238 $-1 #
coedge $-1 $153 $318 $155 $242 forward $238 $-1 #
loop $-1 $-1 $236 $320 #
vertex $-1 $154 $321 #
straight-curve $-1 22 0.099999999999999992 21.599999999999998 0 1 0 I I #
coedge $-1 $156 $155 $322 $323 forward $157 $-1 #
edge $-1 $324 0 $158 0.10000000000000142 $155 $325 forward 7 unknown #
edge $-1 $159 0 $326 0.10000000000000142 $229 $327 forward 7 unknown #
face $-1 $320 $157 $4 $-1 $328 forward single #
point $-1 22 0.099999999999999992 21.600000000000001 #
point $-1 22 0.099999999999999645 18.5 #
coedge $-1 $162 $161 $214 $291 forward $136 $-1 #
vertex $-1 $291 $329 #
straight-curve $-1 22 5.7999999999999998 20 -1 0 0 I I #
vertex $-1 $291 $330 #
straight-curve $-1 22 5.7000000000000002 20 -1 0 0 I I #
face $-1 $200 $195 $5 $-1 $331 forward single #
loop $-1 $-1 $271 $169 #
plane-surface $-1 13.299999999999999 4.7999999999999998 22 0 1 0 1 0 0 forward_v I I I I #
coedge $-1 $176 $186 $172 $256 reversed $170 $-1 #
edge $-1 $179 0 $257 1.2 $172 $332 forward 7 unknown #
vertex $-1 $256 $333 #
straight-curve $-1 13.299999999999999 1.2999999999999998 22 0 0 -1 I I #
coedge $-1 $334 $174 $178 $262 forward $183 $-1 #
straight-curve $-1 13.399999999999995 0.099999999999999645 18 -1 0 0 I I #
straight-curve $-1 13.399999999999999 0.099999999999999645 21.599999999999998 -1 0 0 I I #
edge $-1 $180 0 $335 4.7000000000000002 $259 $336 forward 7 unknown #
point $-1 13.299999999999999 0.099999999999999645 21.600000000000001 #
point $-1 13.299999999999997 0.099999999999999645 18 #
coedge $-1 $182 $334 $274 $337 forward $183 $-1 #
edge $-1 $277 0 $184 4.1000000000000014 $182 $338 forward 7 unknown #
face $-1 $-1 $183 $5 $-1 $339 forward single #
point $-1 13.399999999999995 4.6999999999999993 18 #
edge $-1 $187 1.7763568394002505e-015 $257 0.10000000000000142 $186 $340 forward 7 unknown #
point $-1 13.399999999999999 1.2999999999999994 21.600000000000001 #
coedge $-1 $341 $191 $194 $275 forward $253 $-1 #
coedge $-1 $191 $341 $202 $280 reversed $253 $-1 #
straight-curve $-1 13.299999999999997 4.7999999999999998 22 1 0 0 I I #
coedge $-1 $194 $193 $265 $337 reversed $195 $-1 #
edge $-1 $196 0 $342 4 $271 $343 forward 7 unknown #
point $-1 17.499999999999996 4.7999999999999998 22 #
vertex $-1 $266 $344 #
straight-curve $-1 17.5 4.6999999999999993 22 0 0 -1 I I #
plane-surface $-1 17.5 4.6999999999999993 22 0 -1 0 -1 0 0 forward_v I I I I #
edge $-1 $203 0 $335 4 $202 $345 forward 7 unknown #
point $-1 13.299999999999997 4.7999999999999998 22 #
face $-1 $346 $347 $4 $-1 $348 reversed single #
loop $-1 $-1 $303 $209 #
plane-surface $-1 21.949999999999999 5.3999999999999995 22 0 0 -1 0 1 0 forward_v I I I I #
coedge $-1 $289 $234 $349 $350 reversed $210 $-1 #
coedge $-1 $351 $351 $297 $352 reversed $212 $-1 #
coedge $-1 $353 $213 $354 $355 forward $138 $-1 #
coedge $-1 $213 $322 $318 $356 forward $138 $-1 #
coedge $-1 $315 $285 $213 $290 forward $210 $-1 #
edge $-1 $357 0 $358 0.39999999999999858 $213 $359 forward 7 unknown #
edge $-1 $250 0 $248 3.141592653589651 $214 $360 forward 7 unknown #
ellipse-curve $-1 21.899999999999999 5.7499999999999991 20.000000000000004 -1 0 0 0 0.049999999999999822 -3.5527136788005009e-015 1 I I #
coedge $-1 $361 $218 $221 $299 forward $295 $-1 #
coedge $-1 $218 $361 $220 $298 reversed $295 $-1 #
loop $-1 $-1 $293 $362 #
ellipse-curve $-1 22 7.75 20 -1 0 0 0 -0.050000000000000711 0 1 I I #
coedge $-1 $221 $220 $286 $352 forward $222 $-1 #
edge $-1 $223 0 $363 0.10000000000000142 $294 $364 forward 7 unknown #
edge $-1 $224 0 $365 0.10000000000000142 $293 $366 forward 7 unknown #
face $-1 $362 $222 $4 $-1 $367 reversed single #
point $-1 22 7.7999999999999989 20 #
point $-1 22 7.6999999999999993 20 #
coedge $-1 $368 $349 $226 $304 forward $283 $-1 #
edge $-1 $316 0 $308 9.4499999999999993 $226 $369 forward 7 unknown #
coedge $-1 $370 $227 $371 $372 forward $307 $-1 #
coedge $-1 $227 $370 $373 $374 reversed $307 $-1 #
loop $-1 $-1 $227 $375 #
vertex $-1 $304 $376 #
straight-curve $-1 22 10.75 22 0 0 -1 I I #
coedge $-1 $230 $229 $377 $378 forward $231 $-1 #
coedge $-1 $379 $371 $230 $312 forward $380 $-1 #
edge $-1 $232 0 $381 0.14142135623731156 $230 $382 forward 7 unknown #
face $-1 $244 $231 $4 $-1 $383 forward single #
point $-1 22 10.75 18.5 #
coedge $-1 $234 $289 $236 $319 reversed $210 $-1 #
vertex $-1 $235 $384 #
straight-curve $-1 22 1.2999999999999998 22 0 0 -1 I I #
coedge $-1 $237 $236 $288 $356 reversed $238 $-1 #
edge $-1 $239 0 $358 0.10000000000000142 $236 $385 forward 7 unknown #
face $-1 $386 $238 $4 $-1 $387 reversed single #
point $-1 22 1.3 21.600000000000001 #
coedge $-1 $288 $377 $241 $323 reversed $138 $-1 #
edge $-1 $324 0 $326 3.1000000000000014 $241 $388 forward 7 unknown #
vertex $-1 $242 $389 #
straight-curve $-1 21.899999999999999 0.099999999999999992 21.599999999999998 1 0 0 I I #
vertex $-1 $378 $390 #
straight-curve $-1 22 0.099999999999999645 18.5 -1 0 0 I I #
plane-surface $-1 21.949999999999999 0.099999999999999992 20.25 0 -1 0 0 0 -1 forward_v I I I I #
point $-1 21.899999999999999 5.7999999999999989 20 #
point $-1 21.899999999999999 5.6999999999999993 20 #
plane-surface $-1 17.5 4.7999999999999998 22 1 0 0 0 -1 0 forward_v I I I I #
straight-curve $-1 13.299999999999999 0.099999999999999645 21.599999999999998 0 1 0 I I #
point $-1 13.299999999999999 1.2999999999999996 21.600000000000001 #
coedge $-1 $265 $259 $341 $391 forward $183 $-1 #
vertex $-1 $391 $392 #
straight-curve $-1 13.299999999999999 0.099999999999999645 18 0 1 0 I I #
edge $-1 $342 0 $277 0.10000000000000053 $265 $393 forward 7 unknown #
straight-curve $-1 17.499999999999996 4.6999999999999993 18 -1 0 0 I I #
plane-surface $-1 19.724999999999998 10.699999999999999 18 0 0 -1 1 0 0 forward_v I I I I #
straight-curve $-1 13.4 1.2999999999999998 21.599999999999998 -1 0 0 I I #
coedge $-1 $272 $271 $334 $391 reversed $253 $-1 #
vertex $-1 $337 $394 #
straight-curve $-1 17.5 4.7999999999999998 22 0 0 -1 I I #
point $-1 17.499999999999996 4.6999999999999993 18 #
straight-curve $-1 13.299999999999999 4.7999999999999998 22 0 0 -1 I I #
face $-1 $395 $396 $4 $-1 $397 reversed single #
loop $-1 $-1 $398 $282 #
plane-surface $-1 19.724999999999998 10.699999999999999 22 0 0 -1 -1 0 0 forward_v I I I I #
coedge $-1 $303 $354 $285 $350 forward $283 $-1 #
edge $-1 $357 0 $316 0.10000000000000142 $349 $399 forward 7 unknown #
coedge $-1 $286 $286 $361 $400 reversed $212 $-1 #
edge $-1 $363 0 $365 3.141592653589651 $286 $401 forward 7 unknown #
coedge $-1 $377 $287 $402 $403 forward $138 $-1 #
coedge $-1 $349 $368 $287 $355 reversed $283 $-1 #
edge $-1 $357 0 $404 9.3500000000000014 $354 $405 forward 7 unknown #
edge $-1 $324 0 $358 1.2 $288 $406 forward 7 unknown #
vertex $-1 $350 $407 #
vertex $-1 $356 $408 #
straight-curve $-1 21.899999999999999 1.2999999999999998 22 0 0 -1 I I #
ellipse-curve $-1 21.899999999999999 5.7499999999999991 19.999999999999996 -1 0 0 0 -0.049999999999999822 3.5527136788005009e-015 1 I I #
coedge $-1 $294 $293 $351 $400 forward $295 $-1 #
face $-1 $-1 $295 $4 $-1 $409 reversed single #
vertex $-1 $400 $410 #
straight-curve $-1 22 7.7999999999999998 20 -1 0 0 I I #
vertex $-1 $400 $411 #
straight-curve $-1 22 7.7000000000000002 20 -1 0 0 I I #
cone-surface $-1 22 7.75 20 -1 0 0 0 -0.049999999999999996 0 1 I I 0 1 0.049999999999999996 forward I I I I #
coedge $-1 $354 $303 $412 $413 forward $283 $-1 #
straight-curve $-1 22 1.2999999999999998 22 0 1 0 I I #
coedge $-1 $306 $305 $414 $415 reversed $307 $-1 #
coedge $-1 $311 $416 $305 $372 reversed $380 $-1 #
edge $-1 $232 -3.5527136788005009e-015 $417 4.4999999999999964 $305 $418 forward 7 unknown #
coedge $-1 $398 $412 $306 $374 forward $347 $-1 #
edge $-1 $308 0 $419 4.5 $306 $420 forward 7 unknown #
face $-1 $300 $307 $4 $-1 $421 forward single #
point $-1 21.999999999999996 10.75 22 #
coedge $-1 $322 $353 $310 $378 reversed $138 $-1 #
edge $-1 $326 0 $381 10.549999999999999 $310 $422 forward 7 unknown #
coedge $-1 $416 $311 $423 $424 forward $380 $-1 #
loop $-1 $-1 $311 $395 #
vertex $-1 $312 $425 #
straight-curve $-1 22 10.75 18.5 -0.70710678118654746 -0.70710678118654746 0 I I #
plane-surface $-1 21.949999999999999 5.3999999999999995 18.5 0 0 -1 0 1 0 forward_v I I I I #
point $-1 22 1.2999999999999998 22 #
straight-curve $-1 22 1.2999999999999998 21.599999999999998 -1 0 0 I I #
face $-1 $375 $426 $4 $-1 $427 reversed single #
plane-surface $-1 22 0.099999999999999992 21.599999999999998 0 0 -1 0 1 0 forward_v I I I I #
straight-curve $-1 21.899999999999999 0.099999999999999992 21.600000000000001 0 0 -1 I I #
point $-1 21.899999999999999 0.099999999999999992 21.600000000000001 #
point $-1 21.899999999999999 0.099999999999999645 18.5 #
edge $-1 $335 1.7763568394002505e-015 $342 4.1999999999999993 $334 $428 forward 7 unknown #
point $-1 13.299999999999999 4.7999999999999998 18 #
straight-curve $-1 17.5 4.7999999999999998 18 0 -1 0 I I #
point $-1 17.499999999999996 4.7999999999999998 18 #
face $-1 $313 $380 $4 $-1 $429 forward single #
loop $-1 $-1 $430 $346 #
plane-surface $-1 17.5 10.699999999999999 20.25 1 0 0 0 0 -1 forward_v I I I I #
coedge $-1 $431 $373 $432 $433 forward $347 $-1 #
straight-curve $-1 21.899999999999999 1.2999999999999998 22 1 0 0 I I #
edge $-1 $365 0 $363 3.141592653589651 $351 $434 forward 7 unknown #
ellipse-curve $-1 21.899999999999999 7.7499999999999991 20.000000000000004 -1 0 0 0 0.049999999999999822 -3.5527136788005009e-015 1 I I #
coedge $-1 $435 $423 $353 $403 reversed $426 $-1 #
edge $-1 $404 0 $381 3.5 $353 $436 forward 7 unknown #
vertex $-1 $355 $437 #
straight-curve $-1 21.899999999999999 1.2999999999999998 22 0 1 0 I I #
straight-curve $-1 21.899999999999999 0.099999999999999992 21.599999999999998 0 1 0 I I #
point $-1 21.899999999999999 1.2999999999999998 22 #
point $-1 21.899999999999999 1.3 21.600000000000001 #
cone-surface $-1 22 7.75 20 -1 0 0 0 -0.049999999999999996 0 1 I I 0 1 0.049999999999999996 forward I I I I #
point $-1 21.899999999999999 7.7999999999999989 20 #
point $-1 21.899999999999999 7.6999999999999993 20 #
coedge $-1 $373 $431 $368 $413 reversed $347 $-1 #
edge $-1 $308 0 $404 0.14142135623730773 $368 $438 forward 7 unknown #
coedge $-1 $430 $432 $370 $415 forward $396 $-1 #
edge $-1 $419 0 $417 3.5 $370 $439 forward 7 unknown #
coedge $-1 $371 $379 $430 $440 reversed $380 $-1 #
vertex $-1 $415 $441 #
straight-curve $-1 21.999999999999996 10.75 18.5 -1 0 0 I I #
vertex $-1 $374 $442 #
straight-curve $-1 21.999999999999996 10.75 22 -1 0 0 I I #
plane-surface $-1 22 10.75 22 0 1 0 -1 0 0 forward_v I I I I #
straight-curve $-1 21.899999999999999 0.099999999999999645 18.5 0 1 0 I I #
coedge $-1 $402 $443 $379 $424 reversed $426 $-1 #
edge $-1 $381 0 $444 4.4000000000000021 $379 $445 forward 7 unknown #
point $-1 21.899999999999999 10.649999999999999 18.5 #
loop $-1 $-1 $443 $386 #
plane-surface $-1 22 10.649999999999999 22 0 1 0 -1 0 0 forward_v I I I I #
straight-curve $-1 13.299999999999997 4.7999999999999998 18 1 0 0 I I #
plane-surface $-1 19.724999999999998 10.699999999999999 18.5 0 0 -1 -1 0 0 forward_v I I I I #
coedge $-1 $446 $414 $416 $440 forward $396 $-1 #
coedge $-1 $412 $398 $435 $447 reversed $347 $-1 #
coedge $-1 $414 $446 $398 $433 reversed $396 $-1 #
edge $-1 $419 0 $448 0.099999999999999645 $398 $449 forward 7 unknown #
ellipse-curve $-1 21.899999999999999 7.7499999999999991 19.999999999999996 -1 0 0 0 -0.049999999999999822 3.5527136788005009e-015 1 I I #
coedge $-1 $443 $402 $431 $447 forward $426 $-1 #
straight-curve $-1 21.899999999999999 10.649999999999999 22 0 0 -1 I I #
point $-1 21.899999999999999 10.65 22 #
straight-curve $-1 21.999999999999996 10.75 22 -0.70710678118654124 -0.70710678118655379 0 I I #
straight-curve $-1 17.5 10.75 22 0 0 -1 I I #
edge $-1 $417 0 $444 0.099999999999999645 $430 $450 forward 7 unknown #
point $-1 17.5 10.75 18.5 #
point $-1 17.499999999999996 10.75 22 #
coedge $-1 $423 $435 $446 $451 forward $426 $-1 #
vertex $-1 $451 $452 #
straight-curve $-1 21.899999999999999 10.649999999999999 18.5 -1 0 0 I I #
coedge $-1 $432 $430 $443 $451 reversed $396 $-1 #
edge $-1 $404 0 $448 4.3999999999999986 $431 $453 forward 7 unknown #
vertex $-1 $447 $454 #
straight-curve $-1 17.5 10.75 22 0 -1 0 I I #
straight-curve $-1 17.5 10.75 18.5 0 -1 0 I I #
edge $-1 $448 0 $444 3.5 $446 $455 forward 7 unknown #
point $-1 17.499999999999996 10.65 18.5 #
straight-curve $-1 21.899999999999999 10.649999999999999 22 -1 0 0 I I #
point $-1 17.5 10.65 22 #
straight-curve $-1 17.5 10.649999999999999 22 0 0 -1 I I #
End-of-ACIS-data 