600 0 1 0           
91 GICL ACIS Healer - Source: /gicl/data5/repository/PTC/V18/piping18/control_shroud.sat - 6 0 18 ACIS 6.0.3 Solaris 24 Sat Apr 13 21:20:29 2002 
1 9.999999999999999547e-07 1.000000000000000036e-10 
body $-1 $1 $-1 $-1 #
lump $-1 $2 $3 $0 #
lump $-1 $-1 $4 $0 #
shell $-1 $-1 $-1 $5 $-1 $1 #
shell $-1 $-1 $-1 $6 $-1 $2 #
face $-1 $7 $8 $3 $-1 $9 forward single #
face $-1 $10 $11 $4 $-1 $12 reversed single #
face $-1 $13 $14 $3 $-1 $15 reversed single #
loop $-1 $16 $17 $5 #
plane-surface $-1 558.7999999999999545 2.539999999999999591 558.7999999999999545 1 0 0 0 25.39999999999999858 0 forward_v I I I I #
face $-1 $18 $19 $4 $-1 $20 forward single #
loop $-1 $-1 $21 $6 #
plane-surface $-1 501.0149999999999295 271.7799999999999727 558.7999999999999545 0 0 -1 25.39999999999999858 0 0 forward_v I I I I #
face $-1 $22 $23 $3 $-1 $24 reversed single #
loop $-1 $-1 $25 $7 #
cone-surface $-1 558.7999999999999545 95.25 508 -1 0 0 0 -1.269999999999999796 0 1 I I 0 1 1.269999999999999796 forward I I I I #
loop $-1 $26 $27 $5 #
coedge $-1 $28 $28 $29 $30 forward $8 $-1 #
face $-1 $31 $32 $4 $-1 $33 forward single #
loop $-1 $-1 $34 $10 #
plane-surface $-1 340.3599999999999568 119.3799999999999812 558.7999999999999545 1 0 0 0 -25.39999999999999858 0 forward_v I I I I #
coedge $-1 $35 $36 $37 $38 reversed $11 $-1 #
face $-1 $39 $40 $3 $-1 $41 reversed single #
loop $-1 $-1 $42 $13 #
cone-surface $-1 558.7999999999999545 95.25 508 -1 0 0 0 -1.269999999999999796 0 1 I I 0 1 1.269999999999999796 forward I I I I #
coedge $-1 $43 $29 $44 $45 forward $14 $-1 #
loop $-1 $46 $47 $5 #
coedge $-1 $48 $48 $49 $50 forward $16 $-1 #
coedge $-1 $17 $17 $51 $52 forward $8 $-1 #
coedge $-1 $25 $53 $17 $30 reversed $14 $-1 #
edge $-1 $54 0 $55 3.141592653589793116 $17 $56 forward 7 unknown #
face $-1 $57 $58 $4 $-1 $59 forward single #
loop $-1 $-1 $60 $18 #
plane-surface $-1 340.3599999999999568 2.53999999999999071 558.7999999999999545 0 -1 0 -25.39999999999999858 0 0 forward_v I I I I #
coedge $-1 $61 $62 $63 $64 forward $19 $-1 #
coedge $-1 $65 $21 $66 $67 reversed $11 $-1 #
coedge $-1 $21 $68 $69 $70 forward $11 $-1 #
coedge $-1 $71 $72 $21 $38 forward $19 $-1 #
edge $-1 $73 0 $74 3.399999999999998579 $21 $75 forward 7 unknown #
face $-1 $76 $77 $3 $-1 $78 reversed single #
loop $-1 $79 $80 $22 #
plane-surface $-1 556.2599999999998772 2.539999999999999591 558.7999999999999545 1 0 0 0 25.39999999999999858 0 forward_v I I I I #
coedge $-1 $81 $51 $53 $82 forward $23 $-1 #
coedge $-1 $53 $25 $80 $83 forward $14 $-1 #
coedge $-1 $51 $81 $25 $45 reversed $23 $-1 #
edge $-1 $54 0 $84 0.1000000000000030448 $44 $85 forward 7 unknown #
loop $-1 $-1 $86 $5 #
coedge $-1 $87 $88 $89 $90 forward $26 $-1 #
coedge $-1 $27 $27 $91 $92 forward $16 $-1 #
coedge $-1 $93 $94 $27 $50 reversed $77 $-1 #
edge $-1 $95 0 $96 3.141592653589793116 $27 $97 forward 7 unknown #
coedge $-1 $42 $44 $28 $52 reversed $23 $-1 #
edge $-1 $55 0 $54 3.141592653589793116 $28 $98 forward 7 unknown #
coedge $-1 $29 $43 $42 $82 reversed $14 $-1 #
vertex $-1 $52 $99 #
vertex $-1 $52 $100 #
ellipse-curve $-1 558.7999999999999545 95.25 508 -1 0 0 0 1.269999999999995355 0 1 I I #
face $-1 $101 $102 $4 $-1 $103 reversed single #
loop $-1 $-1 $104 $31 #
plane-surface $-1 337.8199999999999363 2.53999999999999071 558.7999999999999545 -1 0 0 0 25.39999999999999858 0 forward_v I I I I #
coedge $-1 $105 $106 $107 $108 forward $32 $-1 #
coedge $-1 $72 $34 $109 $110 reversed $19 $-1 #
coedge $-1 $34 $71 $111 $112 reversed $19 $-1 #
coedge $-1 $106 $105 $34 $64 reversed $32 $-1 #
edge $-1 $113 0 $114 3.600000000000000089 $34 $115 forward 7 unknown #
coedge $-1 $116 $35 $117 $118 reversed $11 $-1 #
coedge $-1 $119 $120 $35 $67 forward $121 $-1 #
edge $-1 $122 0 $73 4.100000000000002309 $35 $123 forward 7 unknown #
coedge $-1 $36 $116 $124 $125 reversed $11 $-1 #
coedge $-1 $126 $127 $36 $70 reversed $102 $-1 #
edge $-1 $128 0 $74 0.09999999999999634182 $36 $129 forward 7 unknown #
coedge $-1 $62 $37 $127 $130 forward $19 $-1 #
coedge $-1 $37 $61 $119 $131 reversed $19 $-1 #
vertex $-1 $67 $132 #
vertex $-1 $70 $133 #
straight-curve $-1 340.3599999999999568 119.3799999999999812 558.7999999999999545 0 -25.39999999999999858 0 I I #
face $-1 $134 $135 $3 $-1 $136 reversed single #
loop $-1 $-1 $93 $39 #
cone-surface $-1 558.7999999999999545 146.0499999999999829 508 -1 0 0 0 -1.269999999999999796 0 1 I I 0 1 1.269999999999999796 forward I I I I #
loop $-1 $137 $138 $22 #
coedge $-1 $139 $139 $43 $83 reversed $40 $-1 #
coedge $-1 $44 $42 $139 $140 forward $23 $-1 #
edge $-1 $55 0 $141 0.1000000000000030448 $42 $142 forward 7 unknown #
edge $-1 $84 -2.629567604781471298e-14 $141 3.141592653589677209 $80 $143 forward 7 unknown #
vertex $-1 $140 $144 #
straight-curve $-1 558.7999999999999545 96.51999999999999602 508 -25.39999999999999858 0 0 I I #
coedge $-1 $145 $145 $146 $147 forward $46 $-1 #
coedge $-1 $148 $47 $149 $150 forward $26 $-1 #
coedge $-1 $47 $151 $152 $153 reversed $26 $-1 #
coedge $-1 $154 $155 $47 $90 reversed $156 $-1 #
edge $-1 $157 0 $158 3.100000000000000533 $47 $159 forward 7 unknown #
coedge $-1 $160 $161 $48 $92 reversed $135 $-1 #
edge $-1 $96 0 $95 3.141592653589793116 $48 $162 forward 7 unknown #
coedge $-1 $163 $49 $161 $164 forward $77 $-1 #
coedge $-1 $49 $163 $160 $165 reversed $77 $-1 #
vertex $-1 $92 $166 #
vertex $-1 $92 $167 #
ellipse-curve $-1 558.7999999999999545 146.0499999999999829 508 -1 0 0 0 1.269999999999972928 0 1 I I #
ellipse-curve $-1 558.7999999999999545 95.25 508 -1 0 0 0 -1.270000000000006679 0 1 I I #
point $-1 558.7999999999999545 96.51999999999999602 508 #
point $-1 558.7999999999999545 93.97999999999998977 508 #
face $-1 $168 $169 $4 $-1 $170 reversed single #
loop $-1 $-1 $126 $57 #
plane-surface $-1 558.7999999999999545 33.01999999999999602 548.6399999999998727 0 1 0 0 0 25.39999999999999858 forward_v I I I I #
coedge $-1 $124 $171 $126 $172 reversed $58 $-1 #
coedge $-1 $63 $60 $173 $174 reversed $32 $-1 #
coedge $-1 $60 $63 $175 $176 forward $32 $-1 #
coedge $-1 $171 $177 $60 $108 reversed $58 $-1 #
edge $-1 $178 0 $179 3.600000000000000089 $60 $180 forward 7 unknown #
coedge $-1 $173 $181 $61 $110 forward $182 $-1 #
edge $-1 $183 0 $114 4.599999999999999645 $109 $184 forward 7 unknown #
coedge $-1 $185 $175 $62 $112 forward $169 $-1 #
edge $-1 $113 0 $186 1.199999999999999734 $62 $187 forward 7 unknown #
vertex $-1 $112 $188 #
vertex $-1 $174 $189 #
straight-curve $-1 340.3599999999999568 2.53999999999999071 548.6399999999999864 0 0 -25.39999999999999858 I I #
coedge $-1 $68 $65 $190 $191 reversed $11 $-1 #
coedge $-1 $192 $193 $65 $118 forward $194 $-1 #
edge $-1 $195 0 $122 0.1000000000000002554 $65 $196 forward 7 unknown #
coedge $-1 $197 $66 $72 $131 forward $121 $-1 #
coedge $-1 $66 $197 $192 $198 reversed $121 $-1 #
loop $-1 $-1 $119 $199 #
vertex $-1 $118 $200 #
straight-curve $-1 444.4999999999998863 119.3799999999999812 558.7999999999999545 -25.39999999999999858 0 0 I I #
coedge $-1 $201 $104 $68 $125 forward $58 $-1 #
edge $-1 $128 0 $202 3.499999999999999112 $68 $203 forward 7 unknown #
coedge $-1 $204 $69 $104 $172 forward $102 $-1 #
coedge $-1 $69 $204 $71 $130 reversed $102 $-1 #
vertex $-1 $70 $205 #
straight-curve $-1 337.8199999999999363 33.01999999999999602 558.7999999999999545 25.39999999999999858 0 0 I I #
edge $-1 $74 0 $186 0.3999999999999987454 $71 $206 forward 7 unknown #
edge $-1 $73 0 $183 3.999999999999998668 $119 $207 forward 7 unknown #
point $-1 340.3599999999998431 119.3799999999999812 558.7999999999999545 #
point $-1 340.3599999999998431 33.02000000000001734 558.7999999999999545 #
face $-1 $208 $209 $3 $-1 $210 reversed single #
loop $-1 $-1 $160 $76 #
cone-surface $-1 558.7999999999999545 146.0499999999999829 508 -1 0 0 0 -1.269999999999999796 0 1 I I 0 1 1.269999999999999796 forward I I I I #
loop $-1 $211 $212 $22 #
coedge $-1 $213 $213 $163 $214 reversed $79 $-1 #
coedge $-1 $80 $80 $81 $140 reversed $40 $-1 #
edge $-1 $141 1.846292148038058317e-14 $84 3.1415926535896328 $139 $215 forward 7 unknown #
vertex $-1 $140 $216 #
straight-curve $-1 558.7999999999999545 93.98000000000000398 508 -25.39999999999999858 0 0 I I #
ellipse-curve $-1 556.2599999999998772 95.24999999999998579 508.0000000000000568 -1 0 0 0 1.270000000000006679 -9.023892744153271856e-14 1 I I #
point $-1 556.2599999999998772 96.51999999999999602 508 #
coedge $-1 $86 $86 $217 $218 forward $46 $-1 #
coedge $-1 $219 $220 $86 $147 reversed $221 $-1 #
edge $-1 $222 0 $223 3.141592653589793116 $86 $224 forward 7 unknown #
coedge $-1 $225 $87 $226 $227 reversed $26 $-1 #
coedge $-1 $228 $229 $87 $150 reversed $230 $-1 #
edge $-1 $158 0 $231 10.65000000000000213 $87 $232 forward 7 unknown #
coedge $-1 $88 $225 $233 $234 forward $26 $-1 #
coedge $-1 $235 $236 $88 $153 forward $237 $-1 #
edge $-1 $157 0 $238 1.199999999999999956 $88 $239 forward 7 unknown #
coedge $-1 $240 $89 $236 $241 reversed $156 $-1 #
coedge $-1 $89 $240 $228 $242 reversed $156 $-1 #
loop $-1 $-1 $240 $243 #
vertex $-1 $153 $244 #
vertex $-1 $150 $245 #
straight-curve $-1 558.7999999999999545 2.539999999999999591 548.6399999999999864 0 0 -25.39999999999999858 I I #
coedge $-1 $246 $91 $94 $165 forward $135 $-1 #
coedge $-1 $91 $246 $93 $164 reversed $135 $-1 #
ellipse-curve $-1 558.7999999999999545 146.0499999999999829 508 -1 0 0 0 -1.270000000000018003 0 1 I I #
coedge $-1 $94 $93 $138 $214 forward $77 $-1 #
edge $-1 $95 0 $247 0.1000000000000030448 $161 $248 forward 7 unknown #
edge $-1 $96 0 $249 0.1000000000000030448 $160 $250 forward 7 unknown #
point $-1 558.7999999999999545 147.3199999999999648 508 #
point $-1 558.7999999999999545 144.7799999999999727 508 #
face $-1 $251 $252 $4 $-1 $253 forward single #
loop $-1 $-1 $185 $101 #
plane-surface $-1 558.7999999999999545 2.539999999999999591 548.6399999999998727 0 0 -1 0 25.39999999999999858 0 forward_v I I I I #
coedge $-1 $104 $107 $254 $255 forward $58 $-1 #
edge $-1 $128 0 $256 0.3999999999999987454 $104 $257 forward 7 unknown #
coedge $-1 $258 $109 $105 $174 forward $182 $-1 #
edge $-1 $114 0 $179 0.09999999999999634182 $173 $259 forward 7 unknown #
coedge $-1 $111 $254 $106 $176 reversed $169 $-1 #
edge $-1 $113 0 $178 0.1000000000000008105 $106 $260 forward 7 unknown #
coedge $-1 $107 $201 $258 $261 reversed $58 $-1 #
vertex $-1 $176 $262 #
vertex $-1 $261 $263 #
straight-curve $-1 337.8199999999999363 2.53999999999999071 548.6399999999999864 0 0 -25.39999999999999858 I I #
coedge $-1 $109 $264 $197 $265 forward $182 $-1 #
loop $-1 $-1 $109 $266 #
vertex $-1 $265 $267 #
straight-curve $-1 340.3599999999999568 119.3799999999999812 457.1999999999999886 0 -25.39999999999999858 0 I I #
coedge $-1 $254 $111 $204 $268 forward $169 $-1 #
vertex $-1 $112 $269 #
straight-curve $-1 340.3599999999999568 2.53999999999999071 548.6399999999998727 0 25.39999999999999858 0 I I #
point $-1 340.3599999999999568 2.53999999999999071 548.6399999999999864 #
point $-1 340.3599999999998431 2.53999999999999071 457.1999999999999886 #
coedge $-1 $270 $271 $116 $191 forward $252 $-1 #
edge $-1 $202 0 $195 4.199999999999998401 $116 $272 forward 7 unknown #
coedge $-1 $273 $117 $120 $198 forward $194 $-1 #
coedge $-1 $117 $273 $270 $274 reversed $194 $-1 #
loop $-1 $-1 $192 $251 #
vertex $-1 $191 $275 #
straight-curve $-1 444.5 121.9199999999999875 558.7999999999999545 0 -25.39999999999999858 0 I I #
coedge $-1 $120 $119 $181 $265 reversed $121 $-1 #
edge $-1 $122 0 $276 3.999999999999998668 $120 $277 forward 7 unknown #
face $-1 $266 $121 $4 $-1 $278 forward single #
point $-1 444.4999999999998863 119.3799999999999812 558.7999999999999545 #
coedge $-1 $177 $124 $271 $279 forward $58 $-1 #
vertex $-1 $125 $280 #
straight-curve $-1 337.8199999999999363 33.02000000000001734 558.7999999999999545 0 25.39999999999999858 0 I I #
coedge $-1 $127 $126 $185 $268 reversed $102 $-1 #
point $-1 337.8199999999999363 33.02000000000001734 558.7999999999999545 #
straight-curve $-1 340.3599999999999568 33.01999999999999602 558.7999999999999545 0 0 -25.39999999999999858 I I #
straight-curve $-1 340.3599999999999568 119.3799999999999812 558.7999999999999545 0 0 -25.39999999999999858 I I #
face $-1 $281 $282 $3 $-1 $283 reversed single #
loop $-1 $-1 $284 $134 #
plane-surface $-1 558.7999999999999545 33.01999999999999602 548.6399999999998727 0 1 0 0 0 25.39999999999999858 forward_v I I I I #
loop $-1 $-1 $285 $22 #
coedge $-1 $286 $287 $288 $289 reversed $137 $-1 #
coedge $-1 $138 $138 $246 $290 reversed $79 $-1 #
edge $-1 $247 -2.629567604781434063e-14 $249 3.141592653589677209 $138 $291 forward 7 unknown #
ellipse-curve $-1 556.2599999999998772 95.24999999999998579 507.9999999999998863 -1 0 0 0 -1.269999999999995355 9.023892744153271856e-14 1 I I #
point $-1 556.2599999999998772 93.97999999999998977 508 #
coedge $-1 $292 $293 $145 $218 reversed $294 $-1 #
edge $-1 $223 0 $222 3.141592653589793116 $145 $295 forward 7 unknown #
coedge $-1 $296 $146 $293 $297 forward $221 $-1 #
coedge $-1 $146 $296 $292 $298 reversed $221 $-1 #
loop $-1 $-1 $219 $299 #
vertex $-1 $218 $300 #
vertex $-1 $218 $301 #
ellipse-curve $-1 558.7999999999999545 196.8499999999999943 508 -1 0 0 0 1.269999999999972928 0 1 I I #
coedge $-1 $151 $148 $302 $303 reversed $26 $-1 #
coedge $-1 $304 $305 $148 $227 forward $306 $-1 #
edge $-1 $307 0 $231 3.499999999999999112 $148 $308 forward 7 unknown #
coedge $-1 $309 $149 $155 $242 forward $230 $-1 #
coedge $-1 $149 $309 $310 $311 reversed $230 $-1 #
loop $-1 $-1 $228 $312 #
vertex $-1 $227 $313 #
straight-curve $-1 558.7999999999999545 2.53999999999999071 469.8999999999999773 0 25.39999999999999858 0 I I #
coedge $-1 $284 $314 $151 $234 reversed $209 $-1 #
edge $-1 $315 0 $238 0.3999999999999987454 $151 $316 forward 7 unknown #
coedge $-1 $317 $152 $314 $318 forward $237 $-1 #
coedge $-1 $152 $317 $154 $241 forward $237 $-1 #
loop $-1 $-1 $235 $319 #
vertex $-1 $153 $320 #
straight-curve $-1 558.7999999999999545 2.539999999999999591 548.6399999999998727 0 25.39999999999999858 0 I I #
coedge $-1 $155 $154 $321 $322 forward $156 $-1 #
edge $-1 $323 0 $157 0.1000000000000030448 $154 $324 forward 7 unknown #
edge $-1 $158 0 $325 0.1000000000000030448 $228 $326 forward 7 unknown #
face $-1 $319 $156 $3 $-1 $327 forward single #
point $-1 558.7999999999999545 2.539999999999999591 548.6399999999999864 #
point $-1 558.7999999999999545 2.53999999999999071 469.8999999999999773 #
coedge $-1 $161 $160 $213 $290 forward $135 $-1 #
vertex $-1 $290 $328 #
straight-curve $-1 558.7999999999999545 147.3199999999999932 508 -25.39999999999999858 0 0 I I #
vertex $-1 $290 $329 #
straight-curve $-1 558.7999999999999545 144.7800000000000011 508 -25.39999999999999858 0 0 I I #
face $-1 $199 $194 $4 $-1 $330 forward single #
loop $-1 $-1 $270 $168 #
plane-surface $-1 337.8199999999999363 121.9199999999999875 558.7999999999999545 0 1 0 25.39999999999999858 0 0 forward_v I I I I #
coedge $-1 $175 $185 $171 $255 reversed $169 $-1 #
edge $-1 $178 0 $256 1.199999999999999956 $171 $331 forward 7 unknown #
vertex $-1 $255 $332 #
straight-curve $-1 337.8199999999999363 33.01999999999999602 558.7999999999999545 0 0 -25.39999999999999858 I I #
coedge $-1 $333 $173 $177 $261 forward $182 $-1 #
straight-curve $-1 340.3599999999998431 2.53999999999999071 457.1999999999999886 -25.39999999999999858 0 0 I I #
straight-curve $-1 340.3599999999999568 2.53999999999999071 548.6399999999998727 -25.39999999999999858 0 0 I I #
edge $-1 $179 0 $334 4.700000000000000178 $258 $335 forward 7 unknown #
point $-1 337.8199999999999363 2.53999999999999071 548.6399999999999864 #
point $-1 337.8199999999999363 2.53999999999999071 457.1999999999999886 #
coedge $-1 $181 $333 $273 $336 forward $182 $-1 #
edge $-1 $276 0 $183 4.100000000000002309 $181 $337 forward 7 unknown #
face $-1 $-1 $182 $4 $-1 $338 forward single #
point $-1 340.3599999999998431 119.3799999999999812 457.1999999999999886 #
edge $-1 $186 2.237929876409764334e-15 $256 0.1000000000000030448 $185 $339 forward 7 unknown #
point $-1 340.3599999999999568 33.01999999999998181 548.6399999999999864 #
coedge $-1 $340 $190 $193 $274 forward $252 $-1 #
coedge $-1 $190 $340 $201 $279 reversed $252 $-1 #
straight-curve $-1 337.8199999999999363 121.9199999999999875 558.7999999999999545 25.39999999999999858 0 0 I I #
coedge $-1 $193 $192 $264 $336 reversed $194 $-1 #
edge $-1 $195 0 $341 3.999999999999998668 $270 $342 forward 7 unknown #
point $-1 444.4999999999998863 121.9199999999999875 558.7999999999999545 #
vertex $-1 $265 $343 #
straight-curve $-1 444.5 119.3799999999999812 558.7999999999999545 0 0 -25.39999999999999858 I I #
plane-surface $-1 444.5 119.3799999999999812 558.7999999999999545 0 -1 0 -25.39999999999999858 0 0 forward_v I I I I #
edge $-1 $202 0 $334 3.999999999999998668 $201 $344 forward 7 unknown #
point $-1 337.8199999999999363 121.9199999999999875 558.7999999999999545 #
face $-1 $345 $346 $3 $-1 $347 reversed single #
loop $-1 $-1 $302 $208 #
plane-surface $-1 557.5299999999999727 137.1599999999999682 558.7999999999999545 0 0 -1 0 25.39999999999999858 0 forward_v I I I I #
coedge $-1 $288 $233 $348 $349 reversed $209 $-1 #
coedge $-1 $350 $350 $296 $351 reversed $211 $-1 #
coedge $-1 $352 $212 $353 $354 forward $137 $-1 #
coedge $-1 $212 $321 $317 $355 forward $137 $-1 #
coedge $-1 $314 $284 $212 $289 forward $209 $-1 #
edge $-1 $356 0 $357 0.3999999999999987454 $212 $358 forward 7 unknown #
edge $-1 $249 1.846292148037957658e-14 $247 3.1415926535896328 $213 $359 forward 7 unknown #
ellipse-curve $-1 556.2599999999998772 146.0499999999999829 508.0000000000000568 -1 0 0 0 1.269999999999995355 -9.023892744153271856e-14 1 I I #
coedge $-1 $360 $217 $220 $298 forward $294 $-1 #
coedge $-1 $217 $360 $219 $297 reversed $294 $-1 #
loop $-1 $-1 $292 $361 #
ellipse-curve $-1 558.7999999999999545 196.8499999999999943 508 -1 0 0 0 -1.270000000000018003 0 1 I I #
coedge $-1 $220 $219 $285 $351 forward $221 $-1 #
edge $-1 $222 0 $362 0.1000000000000030448 $293 $363 forward 7 unknown #
edge $-1 $223 0 $364 0.1000000000000030448 $292 $365 forward 7 unknown #
face $-1 $361 $221 $3 $-1 $366 reversed single #
point $-1 558.7999999999999545 198.1199999999999477 508 #
point $-1 558.7999999999999545 195.5799999999999841 508 #
coedge $-1 $367 $348 $225 $303 forward $282 $-1 #
edge $-1 $315 0 $307 9.450000000000001066 $225 $368 forward 7 unknown #
coedge $-1 $369 $226 $370 $371 forward $306 $-1 #
coedge $-1 $226 $369 $372 $373 reversed $306 $-1 #
loop $-1 $-1 $226 $374 #
vertex $-1 $303 $375 #
straight-curve $-1 558.7999999999999545 273.0500000000000114 558.7999999999999545 0 0 -25.39999999999999858 I I #
coedge $-1 $229 $228 $376 $377 forward $230 $-1 #
coedge $-1 $378 $370 $229 $311 forward $379 $-1 #
edge $-1 $231 0 $380 0.1414213562373138611 $229 $381 forward 7 unknown #
face $-1 $243 $230 $3 $-1 $382 forward single #
point $-1 558.7999999999999545 273.0500000000000114 469.8999999999999773 #
coedge $-1 $233 $288 $235 $318 reversed $209 $-1 #
vertex $-1 $234 $383 #
straight-curve $-1 558.7999999999999545 33.01999999999999602 558.7999999999999545 0 0 -25.39999999999999858 I I #
coedge $-1 $236 $235 $287 $355 reversed $237 $-1 #
edge $-1 $238 0 $357 0.1000000000000030448 $235 $384 forward 7 unknown #
face $-1 $385 $237 $3 $-1 $386 reversed single #
point $-1 558.7999999999999545 33.01999999999999602 548.6399999999999864 #
coedge $-1 $287 $376 $240 $322 reversed $137 $-1 #
edge $-1 $323 0 $325 3.100000000000000533 $240 $387 forward 7 unknown #
vertex $-1 $241 $388 #
straight-curve $-1 556.2599999999998772 2.539999999999999591 548.6399999999998727 25.39999999999999858 0 0 I I #
vertex $-1 $377 $389 #
straight-curve $-1 558.7999999999999545 2.53999999999999071 469.8999999999999773 -25.39999999999999858 0 0 I I #
plane-surface $-1 557.5299999999999727 2.539999999999999591 514.3500000000000227 0 -1 0 0 0 -25.39999999999999858 forward_v I I I I #
point $-1 556.2599999999998772 147.3199999999999648 508 #
point $-1 556.2599999999998772 144.7799999999999727 508 #
plane-surface $-1 444.5 121.9199999999999875 558.7999999999999545 1 0 0 0 -25.39999999999999858 0 forward_v I I I I #
straight-curve $-1 337.8199999999999363 2.53999999999999071 548.6399999999998727 0 25.39999999999999858 0 I I #
point $-1 337.8199999999999363 33.01999999999998892 548.6399999999999864 #
coedge $-1 $264 $258 $340 $390 forward $182 $-1 #
vertex $-1 $390 $391 #
straight-curve $-1 337.8199999999999363 2.53999999999999071 457.1999999999999886 0 25.39999999999999858 0 I I #
edge $-1 $341 0 $276 0.1000000000000002554 $264 $392 forward 7 unknown #
straight-curve $-1 444.4999999999998863 119.3799999999999812 457.1999999999999886 -25.39999999999999858 0 0 I I #
plane-surface $-1 501.0149999999999295 271.7799999999999727 457.1999999999999886 0 0 -1 25.39999999999999858 0 0 forward_v I I I I #
straight-curve $-1 340.3600000000000136 33.01999999999999602 548.6399999999998727 -25.39999999999999858 0 0 I I #
coedge $-1 $271 $270 $333 $390 reversed $252 $-1 #
vertex $-1 $336 $393 #
straight-curve $-1 444.5 121.9199999999999875 558.7999999999999545 0 0 -25.39999999999999858 I I #
point $-1 444.4999999999998863 119.3799999999999812 457.1999999999999886 #
straight-curve $-1 337.8199999999999363 121.9199999999999875 558.7999999999999545 0 0 -25.39999999999999858 I I #
face $-1 $394 $395 $3 $-1 $396 reversed single #
loop $-1 $-1 $397 $281 #
plane-surface $-1 501.0149999999999295 271.7799999999999727 558.7999999999999545 0 0 -1 -25.39999999999999858 0 0 forward_v I I I I #
coedge $-1 $302 $353 $284 $349 forward $282 $-1 #
edge $-1 $356 0 $315 0.1000000000000030448 $348 $398 forward 7 unknown #
coedge $-1 $285 $285 $360 $399 reversed $211 $-1 #
edge $-1 $362 -2.629567604781434063e-14 $364 3.141592653589677209 $285 $400 forward 7 unknown #
coedge $-1 $376 $286 $401 $402 forward $137 $-1 #
coedge $-1 $348 $367 $286 $354 reversed $282 $-1 #
edge $-1 $356 0 $403 9.350000000000001421 $353 $404 forward 7 unknown #
edge $-1 $323 0 $357 1.199999999999999956 $287 $405 forward 7 unknown #
vertex $-1 $349 $406 #
vertex $-1 $355 $407 #
straight-curve $-1 556.2599999999998772 33.01999999999999602 558.7999999999999545 0 0 -25.39999999999999858 I I #
ellipse-curve $-1 556.2599999999998772 146.0499999999999829 507.9999999999998863 -1 0 0 0 -1.269999999999995355 9.023892744153271856e-14 1 I I #
coedge $-1 $293 $292 $350 $399 forward $294 $-1 #
face $-1 $-1 $294 $3 $-1 $408 reversed single #
vertex $-1 $399 $409 #
straight-curve $-1 558.7999999999999545 198.1199999999999761 508 -25.39999999999999858 0 0 I I #
vertex $-1 $399 $410 #
straight-curve $-1 558.7999999999999545 195.5799999999999841 508 -25.39999999999999858 0 0 I I #
cone-surface $-1 558.7999999999999545 196.8499999999999943 508 -1 0 0 0 -1.269999999999999796 0 1 I I 0 1 1.269999999999999796 forward I I I I #
coedge $-1 $353 $302 $411 $412 forward $282 $-1 #
straight-curve $-1 558.7999999999999545 33.01999999999999602 558.7999999999999545 0 25.39999999999999858 0 I I #
coedge $-1 $305 $304 $413 $414 reversed $306 $-1 #
coedge $-1 $310 $415 $304 $371 reversed $379 $-1 #
edge $-1 $231 -4.475859752819528668e-15 $416 4.499999999999993783 $304 $417 forward 7 unknown #
coedge $-1 $397 $411 $305 $373 forward $346 $-1 #
edge $-1 $307 0 $418 4.499999999999998224 $305 $419 forward 7 unknown #
face $-1 $299 $306 $3 $-1 $420 forward single #
point $-1 558.7999999999998408 273.0500000000000114 558.7999999999999545 #
coedge $-1 $321 $352 $309 $377 reversed $137 $-1 #
edge $-1 $325 0 $380 10.54999999999999893 $309 $421 forward 7 unknown #
coedge $-1 $415 $310 $422 $423 forward $379 $-1 #
loop $-1 $-1 $310 $394 #
vertex $-1 $311 $424 #
straight-curve $-1 558.7999999999999545 273.0500000000000114 469.8999999999999773 -17.96051224213830366 -17.96051224213830366 0 I I #
plane-surface $-1 557.5299999999999727 137.1599999999999682 469.8999999999999773 0 0 -1 0 25.39999999999999858 0 forward_v I I I I #
point $-1 558.7999999999999545 33.01999999999999602 558.7999999999999545 #
straight-curve $-1 558.7999999999999545 33.01999999999999602 548.6399999999998727 -25.39999999999999858 0 0 I I #
face $-1 $374 $425 $3 $-1 $426 reversed single #
plane-surface $-1 558.7999999999999545 2.539999999999999591 548.6399999999998727 0 0 -1 0 25.39999999999999858 0 forward_v I I I I #
straight-curve $-1 556.2599999999998772 2.539999999999999591 548.6399999999999864 0 0 -25.39999999999999858 I I #
point $-1 556.2599999999998772 2.539999999999999591 548.6399999999999864 #
point $-1 556.2599999999998772 2.53999999999999071 469.8999999999999773 #
edge $-1 $334 0 $341 4.199999999999998401 $333 $427 forward 7 unknown #
point $-1 337.8199999999999363 121.9199999999999875 457.1999999999999886 #
straight-curve $-1 444.5 121.9199999999999875 457.1999999999999886 0 -25.39999999999999858 0 I I #
point $-1 444.4999999999998863 121.9199999999999875 457.1999999999999886 #
face $-1 $312 $379 $3 $-1 $428 forward single #
loop $-1 $-1 $429 $345 #
plane-surface $-1 444.5 271.7799999999999727 514.3500000000000227 1 0 0 0 0 -25.39999999999999858 forward_v I I I I #
coedge $-1 $430 $372 $431 $432 forward $346 $-1 #
straight-curve $-1 556.2599999999998772 33.01999999999999602 558.7999999999999545 25.39999999999999858 0 0 I I #
edge $-1 $364 1.846292148038158975e-14 $362 3.1415926535896328 $350 $433 forward 7 unknown #
ellipse-curve $-1 556.2599999999998772 196.8499999999999659 508.0000000000000568 -1 0 0 0 1.269999999999995355 -9.023892744153271856e-14 1 I I #
coedge $-1 $434 $422 $352 $402 reversed $425 $-1 #
edge $-1 $403 0 $380 3.499999999999999112 $352 $435 forward 7 unknown #
vertex $-1 $354 $436 #
straight-curve $-1 556.2599999999998772 33.01999999999999602 558.7999999999999545 0 25.39999999999999858 0 I I #
straight-curve $-1 556.2599999999998772 2.539999999999999591 548.6399999999998727 0 25.39999999999999858 0 I I #
point $-1 556.2599999999998772 33.01999999999999602 558.7999999999999545 #
point $-1 556.2599999999998772 33.01999999999999602 548.6399999999999864 #
cone-surface $-1 558.7999999999999545 196.8499999999999943 508 -1 0 0 0 -1.269999999999999796 0 1 I I 0 1 1.269999999999999796 forward I I I I #
point $-1 556.2599999999998772 198.1199999999999477 508 #
point $-1 556.2599999999998772 195.5799999999999841 508 #
coedge $-1 $372 $430 $367 $412 reversed $346 $-1 #
edge $-1 $307 0 $403 0.1414213562373090594 $367 $437 forward 7 unknown #
coedge $-1 $429 $431 $369 $414 forward $395 $-1 #
edge $-1 $418 0 $416 3.499999999999999112 $369 $438 forward 7 unknown #
coedge $-1 $370 $378 $429 $439 reversed $379 $-1 #
vertex $-1 $414 $440 #
straight-curve $-1 558.7999999999998408 273.0500000000000114 469.8999999999999773 -25.39999999999999858 0 0 I I #
vertex $-1 $373 $441 #
straight-curve $-1 558.7999999999998408 273.0500000000000114 558.7999999999999545 -25.39999999999999858 0 0 I I #
plane-surface $-1 558.7999999999999545 273.0500000000000114 558.7999999999999545 0 1 0 -25.39999999999999858 0 0 forward_v I I I I #
straight-curve $-1 556.2599999999998772 2.53999999999999071 469.8999999999999773 0 25.39999999999999858 0 I I #
coedge $-1 $401 $442 $378 $423 reversed $425 $-1 #
edge $-1 $380 0 $443 4.399999999999999467 $378 $444 forward 7 unknown #
point $-1 556.2599999999998772 270.5099999999999341 469.8999999999999773 #
loop $-1 $-1 $442 $385 #
plane-surface $-1 558.7999999999999545 270.5099999999999341 558.7999999999999545 0 1 0 -25.39999999999999858 0 0 forward_v I I I I #
straight-curve $-1 337.8199999999999363 121.9199999999999875 457.1999999999999886 25.39999999999999858 0 0 I I #
plane-surface $-1 501.0149999999999295 271.7799999999999727 469.8999999999999773 0 0 -1 -25.39999999999999858 0 0 forward_v I I I I #
coedge $-1 $445 $413 $415 $439 forward $395 $-1 #
coedge $-1 $411 $397 $434 $446 reversed $346 $-1 #
coedge $-1 $413 $445 $397 $432 reversed $395 $-1 #
edge $-1 $418 0 $447 0.1000000000000008105 $397 $448 forward 7 unknown #
ellipse-curve $-1 556.2599999999998772 196.8499999999999659 507.9999999999998863 -1 0 0 0 -1.269999999999995355 9.023892744153271856e-14 1 I I #
coedge $-1 $442 $401 $430 $446 forward $425 $-1 #
straight-curve $-1 556.2599999999998772 270.5099999999999341 558.7999999999999545 0 0 -25.39999999999999858 I I #
point $-1 556.2599999999998772 270.5099999999999909 558.7999999999999545 #
straight-curve $-1 558.7999999999998408 273.0500000000000114 558.7999999999999545 -17.96051224213814734 -17.96051224213846353 0 I I #
straight-curve $-1 444.5 273.0500000000000114 558.7999999999999545 0 0 -25.39999999999999858 I I #
edge $-1 $416 0 $443 0.1000000000000008105 $429 $449 forward 7 unknown #
point $-1 444.5 273.0500000000000114 469.8999999999999773 #
point $-1 444.4999999999998863 273.0500000000000114 558.7999999999999545 #
coedge $-1 $422 $434 $445 $450 forward $425 $-1 #
vertex $-1 $450 $451 #
straight-curve $-1 556.2599999999998772 270.5099999999999341 469.8999999999999773 -25.39999999999999858 0 0 I I #
coedge $-1 $431 $429 $442 $450 reversed $395 $-1 #
edge $-1 $403 0 $447 4.399999999999995026 $430 $452 forward 7 unknown #
vertex $-1 $446 $453 #
straight-curve $-1 444.5 273.0500000000000114 558.7999999999999545 0 -25.39999999999999858 0 I I #
straight-curve $-1 444.5 273.0500000000000114 469.8999999999999773 0 -25.39999999999999858 0 I I #
edge $-1 $447 0 $443 3.499999999999999112 $445 $454 forward 7 unknown #
point $-1 444.4999999999998863 270.5099999999999909 469.8999999999999773 #
straight-curve $-1 556.2599999999998772 270.5099999999999341 558.7999999999999545 -25.39999999999999858 0 0 I I #
point $-1 444.5 270.5099999999999909 558.7999999999999545 #
straight-curve $-1 444.5 270.5099999999999341 558.7999999999999545 0 0 -25.39999999999999858 I I #
End-of-ACIS-data 