600 0 1 0           
87 GICL ACIS Healer - Source: /gicl/data5/repository/PTC/V18/piping18/elbow2.prt.sat - 6 0 18 ACIS 6.0.3 Solaris 24 Sat Apr 13 21:23:38 2002 
1 9.999999999999999547e-07 1.000000000000000036e-10 
body $-1 $1 $-1 $-1 #
lump $-1 $-1 $2 $0 #
shell $-1 $-1 $-1 $3 $-1 $1 #
face $-1 $4 $5 $2 $-1 $6 reversed single #
face $-1 $7 $8 $2 $-1 $9 forward single #
loop $-1 $10 $11 $3 #
plane-surface $-1 35.91559999999999775 0 0 0 0 1 25.39999999999999858 0 0 forward_v I I I I #
face $-1 $12 $13 $2 $-1 $14 forward single #
loop $-1 $-1 $15 $4 #
torus-surface $-1 35.91559999999999775 0 0.2540000000000000036 0 0 1 4.50849999999999973 0.2540000000000000036 1 0 0 forward_v I I I I #
loop $-1 $-1 $16 $3 #
coedge $-1 $17 $17 $18 $19 reversed $5 $-1 #
face $-1 $20 $21 $2 $-1 $22 forward single #
loop $-1 $-1 $23 $7 #
torus-surface $-1 35.91559999999999775 0 0.2540000000000000036 0 0 1 4.50849999999999973 0.2540000000000000036 1 0 0 forward_v I I I I #
coedge $-1 $24 $18 $25 $26 forward $8 $-1 #
coedge $-1 $27 $27 $28 $29 reversed $10 $-1 #
coedge $-1 $11 $11 $30 $31 reversed $5 $-1 #
coedge $-1 $15 $32 $11 $19 forward $8 $-1 #
edge $-1 $33 3.104747403619955209e-31 $34 3.141592653589794448 $11 $35 forward 7 unknown #
face $-1 $36 $37 $2 $-1 $38 forward single #
loop $-1 $-1 $39 $12 #
cone-surface $-1 35.91559999999999775 0 0 0 0 1 4.762499999999999289 0 0 1 I I 0 1 4.762499999999999289 forward I I I I #
coedge $-1 $40 $30 $32 $41 forward $13 $-1 #
coedge $-1 $32 $15 $42 $43 reversed $8 $-1 #
coedge $-1 $30 $40 $15 $26 reversed $13 $-1 #
edge $-1 $34 -1.06475911249371005e-30 $44 1.570796326794895004 $25 $45 forward 7 unknown #
coedge $-1 $16 $16 $46 $47 reversed $10 $-1 #
coedge $-1 $48 $49 $16 $29 forward $50 $-1 #
edge $-1 $51 0 $52 3.141592653589793116 $16 $53 forward 7 unknown #
coedge $-1 $23 $25 $17 $31 forward $13 $-1 #
edge $-1 $34 -3.104747403619957399e-31 $33 3.141592653589794448 $17 $54 forward 7 unknown #
coedge $-1 $18 $24 $23 $41 reversed $8 $-1 #
vertex $-1 $31 $55 #
vertex $-1 $31 $56 #
ellipse-curve $-1 35.91559999999999775 -2.819966482547897455e-15 0 0 0 1 -4.50849999999999973 3.372080257168716002e-15 0 1 I I #
face $-1 $57 $58 $2 $-1 $59 forward single #
loop $-1 $-1 $60 $20 #
cone-surface $-1 35.91559999999999775 0 0 0 0 1 4.762499999999999289 0 0 1 I I 0 1 4.762499999999999289 forward I I I I #
coedge $-1 $61 $62 $63 $64 forward $21 $-1 #
coedge $-1 $25 $23 $62 $65 reversed $13 $-1 #
edge $-1 $33 0 $66 1.570796326794895004 $23 $67 forward 7 unknown #
coedge $-1 $60 $63 $24 $43 forward $37 $-1 #
edge $-1 $66 8.695017589804550664e-32 $44 3.141592653589793116 $42 $68 forward 7 unknown #
vertex $-1 $65 $69 #
ellipse-curve $-1 40.4240999999999957 -1.104227549241637489e-15 0.2540000000000003921 -2.449212707644741204e-16 -1 0 0 0 -0.2540000000000003921 1 I I #
coedge $-1 $70 $71 $27 $47 forward $72 $-1 #
edge $-1 $52 0 $51 3.141592653589793116 $27 $73 forward 7 unknown #
coedge $-1 $74 $28 $71 $75 forward $50 $-1 #
coedge $-1 $28 $74 $70 $76 reversed $50 $-1 #
loop $-1 $-1 $48 $77 #
vertex $-1 $47 $78 #
vertex $-1 $47 $79 #
ellipse-curve $-1 35.91559999999999775 0 0 0 0 -1 -3.746499999999998831 0 0 1 I I #
ellipse-curve $-1 35.91559999999999775 3.348710198025628178e-15 0 0 0 1 4.50849999999999973 -3.348710198025628178e-15 0 1 I I #
point $-1 31.40709999999999624 5.521137746208187443e-16 0 #
point $-1 40.4240999999999957 0 0 #
face $-1 $80 $81 $2 $-1 $82 forward single #
loop $-1 $-1 $83 $36 #
torus-surface $-1 17.95779999999999887 0 5.079999999999999183 0 -1 0 17.95779999999999887 4.762499999999999289 -1 0 0 forward_v I I I I #
coedge $-1 $84 $42 $85 $86 forward $37 $-1 #
coedge $-1 $85 $39 $87 $88 reversed $21 $-1 #
coedge $-1 $39 $85 $40 $65 forward $21 $-1 #
coedge $-1 $42 $84 $39 $64 reversed $37 $-1 #
edge $-1 $66 -2.185478394931410482e-18 $89 0.19000000000000003 $39 $90 forward 7 unknown #
edge $-1 $44 0 $66 3.141592653589793116 $62 $91 forward 7 unknown #
vertex $-1 $65 $92 #
ellipse-curve $-1 31.40709999999999624 5.521137746208187443e-16 0.2540000000000003921 1.224606353822370602e-16 1 0 0 0 -0.2540000000000003921 1 I I #
ellipse-curve $-1 35.91559999999999775 0 0.2540000000000000036 0 0 1 -4.762499999999999289 5.832187760079070312e-16 0 1 I I #
point $-1 40.67809999999999349 0 0.2540000000000000036 #
coedge $-1 $93 $46 $49 $76 forward $72 $-1 #
coedge $-1 $46 $93 $48 $75 reversed $72 $-1 #
loop $-1 $-1 $70 $94 #
ellipse-curve $-1 35.91559999999999775 0 0 0 0 -1 3.746499999999998831 0 0 1 I I #
coedge $-1 $49 $48 $95 $96 reversed $50 $-1 #
edge $-1 $52 0 $97 0.2000000000000000944 $71 $98 forward 7 unknown #
edge $-1 $51 0 $99 0.2000000000000000389 $70 $100 forward 7 unknown #
face $-1 $94 $50 $2 $-1 $101 reversed single #
point $-1 32.16910000000000025 0 0 #
point $-1 39.66209999999999525 0 0 #
face $-1 $102 $103 $2 $-1 $104 forward single #
loop $-1 $-1 $105 $57 #
torus-surface $-1 17.95779999999999887 0 5.079999999999999183 0 -1 0 17.95779999999999887 4.762499999999999289 -1 0 0 forward_v I I I I #
coedge $-1 $106 $107 $108 $109 forward $58 $-1 #
coedge $-1 $63 $60 $107 $110 reversed $37 $-1 #
coedge $-1 $62 $61 $60 $86 reversed $21 $-1 #
edge $-1 $44 -2.185478394931410482e-18 $111 0.1900000000000000577 $85 $112 forward 7 unknown #
coedge $-1 $105 $108 $61 $88 forward $81 $-1 #
edge $-1 $111 2.086804221553095225e-31 $89 3.141592653589793116 $61 $113 forward 7 unknown #
vertex $-1 $88 $114 #
straight-curve $-1 31.15309999999999491 5.832187760079071298e-16 0.2540000000000000591 0 0 25.39999999999999858 I I #
ellipse-curve $-1 35.91559999999999775 0 0.2540000000000000036 0 0 1 4.762499999999999289 0 0 1 I I #
point $-1 31.15309999999999491 5.832187760079070312e-16 0.2540000000000000036 #
coedge $-1 $71 $70 $115 $116 reversed $72 $-1 #
face $-1 $-1 $72 $2 $-1 $117 reversed single #
coedge $-1 $118 $119 $74 $96 forward $120 $-1 #
edge $-1 $99 -1.124032724910098675e-31 $97 3.14159265358979356 $74 $121 forward 7 unknown #
vertex $-1 $75 $122 #
straight-curve $-1 39.66209999999999525 0 0 0 -4.587987704595536272e-15 25.39999999999999858 I I #
vertex $-1 $116 $123 #
straight-curve $-1 32.16910000000000025 4.587987704595535877e-16 0 0 0 25.39999999999999858 I I #
cone-surface $-1 35.91559999999999775 0 0 0 0 1 3.746499999999999719 0 0 1 I I 0 1 3.746499999999999719 forward I I I I #
face $-1 $124 $125 $2 $-1 $126 forward single #
loop $-1 $-1 $127 $80 #
cone-surface $-1 0 0 5.079999999999999183 0 0 -1 -4.762499999999999289 0 0 1 I I 0 1 4.762499999999999289 forward I I I I #
coedge $-1 $128 $87 $129 $130 forward $81 $-1 #
coedge $-1 $129 $83 $131 $132 reversed $58 $-1 #
coedge $-1 $83 $129 $84 $110 forward $58 $-1 #
coedge $-1 $87 $128 $83 $109 reversed $81 $-1 #
edge $-1 $111 -6.841072672786942823e-18 $133 3.141592653589793116 $108 $134 forward 7 unknown #
edge $-1 $89 2.173754397451137666e-33 $111 3.141592653589793116 $84 $135 forward 7 unknown #
vertex $-1 $86 $136 #
straight-curve $-1 40.67809999999999349 0 0.2540000000000000591 0 0 25.39999999999999858 I I #
ellipse-curve $-1 35.91559999999999775 -1.762479051592435909e-16 5.080000000000001847 -1.480297366166875305e-16 -4.173383193379118824e-32 1 4.762499999999999289 1.3426854571750579e-15 7.049916206369743637e-16 1 I I #
point $-1 31.15309999999999491 -5.832187760079071298e-16 5.080000000000000959 #
coedge $-1 $137 $138 $93 $116 forward $139 $-1 #
edge $-1 $97 -5.620163624550493374e-32 $99 3.141592653589793116 $93 $140 forward 7 unknown #
cone-surface $-1 35.91559999999999775 0 0 0 0 1 3.746499999999999719 0 0 1 I I 0 1 3.746499999999999719 forward I I I I #
coedge $-1 $141 $95 $138 $142 forward $120 $-1 #
coedge $-1 $95 $141 $137 $143 reversed $120 $-1 #
loop $-1 $-1 $118 $144 #
ellipse-curve $-1 35.91559999999999775 8.81239525796218004e-16 5.080000000000001847 1.881733940042638614e-16 6.730536615564922417e-32 -1 -3.746499999999998831 -1.340038296255771592e-15 -7.049916206369743637e-16 1 I I #
point $-1 39.66209999999999525 0 5.080000000000001847 #
point $-1 32.16910000000000025 -4.587987704595535877e-16 5.080000000000000959 #
face $-1 $145 $146 $2 $-1 $147 forward single #
loop $-1 $-1 $148 $102 #
cone-surface $-1 0 0 5.079999999999999183 0 0 -1 -4.762499999999999289 0 0 1 I I 0 1 4.762499999999999289 forward I I I I #
coedge $-1 $149 $150 $151 $152 forward $103 $-1 #
coedge $-1 $108 $105 $150 $153 reversed $81 $-1 #
coedge $-1 $107 $106 $105 $130 reversed $58 $-1 #
edge $-1 $89 2.776546180278599316e-17 $154 3.141592653589793116 $105 $155 forward 7 unknown #
coedge $-1 $148 $151 $106 $132 forward $125 $-1 #
edge $-1 $154 0 $133 3.141592653589793116 $106 $156 forward 7 unknown #
vertex $-1 $109 $157 #
ellipse-curve $-1 17.95779999999999887 1.16643755201581426e-15 5.079999999999999183 0 -1 0 22.72029999999999816 0 2.819966482547897455e-15 1 I I #
ellipse-curve $-1 35.91559999999999775 -5.287437154777307235e-16 5.080000000000001847 -1.480297366166875305e-16 -1.69321340944044474e-33 1 -4.762499999999999289 -5.447506053017636315e-17 -7.049916206369743637e-16 1 I I #
point $-1 40.67809999999999349 1.16643755201581426e-15 5.080000000000001847 #
coedge $-1 $158 $115 $119 $143 forward $139 $-1 #
coedge $-1 $115 $158 $118 $142 reversed $139 $-1 #
loop $-1 $-1 $137 $159 #
ellipse-curve $-1 35.91559999999999775 -5.287437154777307235e-16 5.080000000000001847 1.881733940042638614e-16 2.655691965831294227e-32 -1 3.746499999999998831 5.287437154777307235e-16 7.049916206369743637e-16 1 I I #
coedge $-1 $119 $118 $160 $161 reversed $120 $-1 #
edge $-1 $97 -7.161310129675756972e-18 $162 3.141592653589793116 $138 $163 forward 7 unknown #
edge $-1 $99 2.578044219222039004e-17 $164 3.141592653589793116 $137 $165 forward 7 unknown #
face $-1 $77 $120 $2 $-1 $166 reversed single #
face $-1 $167 $168 $2 $-1 $169 forward single #
loop $-1 $-1 $170 $124 #
torus-surface $-1 0 0 0.2540000000000002256 0 0 -1 4.50849999999999973 0.2540000000000000036 -1 0 0 forward_v I I I I #
coedge $-1 $171 $131 $172 $173 forward $125 $-1 #
coedge $-1 $172 $127 $174 $175 reversed $103 $-1 #
coedge $-1 $127 $172 $128 $153 forward $103 $-1 #
coedge $-1 $131 $171 $127 $152 reversed $125 $-1 #
edge $-1 $154 0 $176 0.1899999999999999745 $127 $177 forward 7 unknown #
edge $-1 $133 0 $154 3.141592653589793116 $128 $178 forward 7 unknown #
vertex $-1 $153 $179 #
ellipse-curve $-1 17.95779999999999887 -5.832187760079071298e-16 5.079999999999999183 0 -1 0 13.19529999999999781 0 1.409983241273948727e-15 1 I I #
ellipse-curve $-1 0 0 5.079999999999999183 0 0 -1 4.762499999999999289 5.832187760079071298e-16 0 1 I I #
point $-1 -4.762499999999999289 0 5.079999999999999183 #
coedge $-1 $138 $137 $180 $181 reversed $139 $-1 #
face $-1 $144 $139 $2 $-1 $182 reversed single #
coedge $-1 $183 $184 $141 $161 forward $185 $-1 #
edge $-1 $164 0 $162 3.141592653589793116 $141 $186 forward 7 unknown #
vertex $-1 $142 $187 #
ellipse-curve $-1 17.95779999999999887 0 5.079999999999999183 0 -1 0 21.70429999999999637 0 2.819966482547897455e-15 1 I I #
vertex $-1 $181 $188 #
ellipse-curve $-1 17.95779999999999887 -4.587987704595535877e-16 5.079999999999999183 0 -1 0 14.2112999999999996 0 1.409983241273948727e-15 1 I I #
torus-surface $-1 17.95779999999999887 0 5.079999999999999183 0 -1 0 17.95779999999999887 3.746499999999999719 -1 0 0 forward_v I I I I #
face $-1 $189 $190 $2 $-1 $191 forward single #
loop $-1 $-1 $192 $145 #
torus-surface $-1 0 0 0.2540000000000002256 0 0 -1 4.50849999999999973 0.2540000000000000036 -1 0 0 forward_v I I I I #
coedge $-1 $193 $194 $195 $196 forward $146 $-1 #
coedge $-1 $151 $148 $193 $197 reversed $125 $-1 #
coedge $-1 $150 $149 $148 $173 reversed $103 $-1 #
edge $-1 $133 0 $198 0.1899999999999999745 $172 $199 forward 7 unknown #
coedge $-1 $195 $192 $149 $175 forward $168 $-1 #
edge $-1 $198 0 $176 3.141592653589793116 $149 $200 forward 7 unknown #
vertex $-1 $175 $201 #
straight-curve $-1 4.762499999999999289 5.832187760079071298e-16 5.079999999999999183 0 0 -25.39999999999999858 I I #
ellipse-curve $-1 0 0 5.079999999999999183 0 0 -1 -4.762499999999999289 0 0 1 I I #
point $-1 4.762499999999999289 5.832187760079071298e-16 5.079999999999999183 #
coedge $-1 $202 $203 $158 $181 forward $204 $-1 #
edge $-1 $162 0 $164 3.141592653589793116 $158 $205 forward 7 unknown #
torus-surface $-1 17.95779999999999887 0 5.079999999999999183 0 -1 0 17.95779999999999887 3.746499999999999719 -1 0 0 forward_v I I I I #
coedge $-1 $206 $160 $203 $207 forward $185 $-1 #
coedge $-1 $160 $206 $202 $208 reversed $185 $-1 #
loop $-1 $-1 $183 $189 #
ellipse-curve $-1 0 0 5.079999999999999183 0 0 1 3.746499999999999719 4.587987704595535877e-16 0 1 I I #
point $-1 -3.746499999999999719 -9.175975409191071754e-16 5.079999999999999183 #
point $-1 3.746499999999999719 4.587987704595535877e-16 5.079999999999999183 #
face $-1 $209 $185 $2 $-1 $210 reversed single #
loop $-1 $211 $212 $167 #
plane-surface $-1 0 0 0 0 0 -1 -25.39999999999999858 0 0 forward_v I I I I #
coedge $-1 $174 $213 $214 $215 forward $168 $-1 #
coedge $-1 $214 $170 $171 $197 forward $146 $-1 #
coedge $-1 $170 $214 $212 $216 reversed $146 $-1 #
coedge $-1 $213 $174 $170 $196 reversed $168 $-1 #
edge $-1 $217 -7.212078703273652727e-16 $176 1.570796326794898778 $195 $218 forward 7 unknown #
edge $-1 $176 -1.739003517960911228e-32 $198 3.141592653589793116 $171 $219 forward 7 unknown #
vertex $-1 $173 $220 #
straight-curve $-1 -4.762499999999999289 0 5.079999999999999183 0 0 -25.39999999999999858 I I #
ellipse-curve $-1 0 0 0.2540000000000002256 0 0 -1 -4.762499999999999289 0 0 1 I I #
point $-1 4.762499999999999289 5.832187760079071298e-16 0.2540000000000002256 #
coedge $-1 $221 $180 $184 $208 forward $204 $-1 #
coedge $-1 $180 $221 $183 $207 reversed $204 $-1 #
loop $-1 $-1 $202 $209 #
ellipse-curve $-1 0 0 5.079999999999999183 0 0 1 -3.746499999999999719 -9.175975409191071754e-16 0 1 I I #
coedge $-1 $184 $183 $222 $223 reversed $185 $-1 #
edge $-1 $162 6.525398715828575239e-33 $224 0.1999999999999999833 $203 $225 forward 7 unknown #
edge $-1 $164 0 $226 0.1999999999999999833 $202 $227 forward 7 unknown #
face $-1 $159 $204 $2 $-1 $228 reversed single #
cone-surface $-1 0 0 5.079999999999999183 0 0 -1 -3.746499999999999719 0 0 1 I I 0 1 3.746499999999999719 forward I I I I #
loop $-1 $-1 $222 $167 #
coedge $-1 $229 $229 $194 $216 forward $190 $-1 #
coedge $-1 $192 $195 $229 $230 reversed $168 $-1 #
coedge $-1 $194 $193 $192 $215 reversed $146 $-1 #
edge $-1 $231 -7.212078703273660616e-16 $198 1.570796326794898778 $192 $232 forward 7 unknown #
edge $-1 $217 0 $231 3.141592653589793116 $212 $233 forward 7 unknown #
vertex $-1 $230 $234 #
ellipse-curve $-1 4.508500000000000618 5.521137746208185471e-16 0.2540000000000003921 1.224606353822378737e-16 -1 -9.561941247328812002e-31 -7.049916206369743637e-16 1.565395858797945214e-31 -0.2540000000000001701 1 I I #
ellipse-curve $-1 0 0 0.2540000000000002256 0 0 -1 4.762499999999999289 5.832187760079070312e-16 0 1 I I #
point $-1 -4.762499999999999289 0 0.2540000000000002256 #
coedge $-1 $203 $202 $235 $236 reversed $204 $-1 #
coedge $-1 $235 $235 $206 $223 forward $211 $-1 #
edge $-1 $226 0 $224 3.141592653589793116 $222 $237 forward 7 unknown #
vertex $-1 $236 $238 #
straight-curve $-1 -3.746499999999999719 0 5.079999999999999183 0 -4.587987704595536272e-15 -25.39999999999999858 I I #
vertex $-1 $236 $239 #
straight-curve $-1 3.746499999999999719 4.587987704595535877e-16 5.079999999999999183 0 0 -25.39999999999999858 I I #
cone-surface $-1 0 0 5.079999999999999183 0 0 -1 -3.746499999999999719 0 0 1 I I 0 1 3.746499999999999719 forward I I I I #
coedge $-1 $212 $212 $213 $230 forward $190 $-1 #
edge $-1 $231 -1.483202736889755778e-65 $217 3.141592653589793116 $229 $240 forward 7 unknown #
vertex $-1 $230 $241 #
ellipse-curve $-1 -4.508500000000000618 -1.104227549241637094e-15 0.2540000000000003921 -2.449212707644757475e-16 1 -1.9123882494657624e-30 7.049916206369743637e-16 -3.130791717595890428e-31 -0.2540000000000001701 1 I I #
ellipse-curve $-1 0 0 0 4.886545002751568933e-17 5.984094058608556874e-33 -1 4.50849999999999973 5.521137746208187443e-16 2.20309881449054501e-16 1 I I #
point $-1 4.50849999999999973 5.521137746208187443e-16 2.20309881449054501e-16 #
coedge $-1 $222 $222 $221 $236 forward $211 $-1 #
edge $-1 $224 0 $226 3.141592653589793116 $235 $242 forward 7 unknown #
ellipse-curve $-1 0 0 0 0 0 1 3.746499999999999719 0 0 1 I I #
point $-1 -3.746499999999999719 0 0 #
point $-1 3.746499999999999719 0 0 #
ellipse-curve $-1 0 1.762479051592435909e-16 0 -4.886545002751568933e-17 -1.910265765113306872e-33 -1 -4.50849999999999973 -1.762479051592435909e-16 2.20309881449054501e-16 1 I I #
point $-1 -4.50849999999999973 0 2.20309881449054501e-16 #
ellipse-curve $-1 0 0 0 0 0 1 -3.746499999999999719 0 0 1 I I #
End-of-ACIS-data 