700 0 2 0           
24 FBMach with ACIS - 7.0.3 13 ACIS 7.0.3 NT 24 Wed May 15 14:54:19 2002 
1 9.9999999999999995e-007 1e-010 
body $2 -1 $-1 $3 $-1 $4 #
bdycol-kcp $-1 -1 1 2 $5 $6 #
model_id-kcp-attrib $-1 -1 $-1 $-1 $0 1 1021488859 1021488859 1625423873 1 #
lump $-1 -1 $-1 $-1 $7 $0 #
transform $-1 -1 1 0 0 0 1 0 0 0 1 0 0 0 1 rotate no_reflect no_shear #
body $8 -1 $-1 $9 $-1 $10 #
body $11 -1 $-1 $12 $-1 $13 #
shell $-1 -1 $-1 $-1 $-1 $14 $-1 $3 #
model_id-kcp-attrib $-1 -1 $-1 $-1 $5 1 1021488859 1021488859 1625423874 1 #
lump $-1 -1 $-1 $-1 $15 $5 #
transform $-1 -1 1 0 0 0 1 0 0 0 1 17.957799999999999 -4.4408920985006262e-016 13.900149999999998 1 no_rotate no_reflect no_shear #
rgb_color-st-attrib $-1 -1 $16 $-1 $6 0.5 1 1 #
lump $-1 -1 $-1 $17 $18 $6 #
transform $-1 -1 1 0 0 0 1 0 0 0 1 17.957799999999999 -4.4408920985006262e-016 13.900149999999998 1 no_rotate no_reflect no_shear #
face $19 -1 $-1 $20 $21 $7 $-1 $22 reversed single #
shell $-1 -1 $-1 $-1 $-1 $23 $-1 $9 #
model_id-kcp-attrib $-1 -1 $-1 $11 $6 1 1021488859 1021488859 1625686019 1 #
lump $-1 -1 $-1 $-1 $24 $6 #
shell $-1 -1 $-1 $-1 $-1 $25 $-1 $12 #
model_id-kcp-attrib $-1 -1 $-1 $-1 $14 1 1021488859 1021488859 1625423873 2 #
face $26 -1 $-1 $27 $28 $7 $-1 $29 forward single #
loop $-1 -1 $-1 $30 $31 $14 #
plane-surface $-1 -1 $-1 35.915599999999998 0 0 0 0 1 25.399999999999999 0 0 forward_v I I I I #
face $-1 -1 $-1 $32 $33 $15 $-1 $34 forward single #
shell $-1 -1 $-1 $-1 $-1 $35 $-1 $17 #
face $-1 -1 $-1 $36 $37 $18 $-1 $38 reversed single #
model_id-kcp-attrib $-1 -1 $-1 $-1 $20 1 1021488859 1021488859 1625423873 3 #
face $39 -1 $-1 $40 $41 $7 $-1 $42 forward single #
loop $-1 -1 $-1 $-1 $43 $20 #
torus-surface $-1 -1 $-1 35.915599999999998 0 0.254 0 0 1 4.5084999999999997 0.254 1 0 0 forward_v I I I I #
loop $-1 -1 $-1 $-1 $44 $14 #
coedge $-1 -1 $-1 $45 $45 $46 $47 reversed $21 $-1 #
face $48 -1 $-1 $49 $50 $15 $-1 $51 reversed single #
loop $-1 -1 $-1 $-1 $52 $23 #
plane-surface $-1 -1 $-1 0 0 13.900149999999998 0 0 1 1 0 0 forward_v I I I I #
face $-1 -1 $-1 $53 $54 $24 $-1 $55 reversed single #
face $-1 -1 $-1 $56 $57 $18 $-1 $38 reversed single #
loop $-1 -1 $-1 $-1 $58 $25 #
cone-surface $-1 -1 $-1 17.957799999999999 0 -13.900149999999998 0 0 -1 4.7624999999999993 1.6105267618658779e-015 0 1 I I 0 1 4.7624999999999993 forward I I I I #
model_id-kcp-attrib $-1 -1 $-1 $-1 $27 1 1021488859 1021488859 1625423873 4 #
face $59 -1 $-1 $60 $61 $7 $-1 $62 forward single #
loop $-1 -1 $-1 $-1 $63 $27 #
torus-surface $-1 -1 $-1 35.915599999999998 0 0.254 0 0 1 4.5084999999999997 0.254 1 0 0 forward_v I I I I #
coedge $-1 -1 $-1 $64 $46 $65 $66 forward $28 $-1 #
coedge $-1 -1 $-1 $67 $67 $68 $69 reversed $30 $-1 #
coedge $-1 -1 $-1 $31 $31 $70 $71 reversed $21 $-1 #
coedge $-1 -1 $-1 $43 $72 $31 $47 forward $28 $-1 #
edge $73 -1 $-1 $74 3.1047474036199552e-031 $75 3.1415926535897944 $31 $76 forward @7 unknown #
model_id-kcp-attrib $-1 -1 $-1 $-1 $32 1 1021488859 1021488859 1625423874 2 #
face $-1 -1 $-1 $77 $78 $15 $-1 $79 reversed single #
loop $-1 -1 $-1 $-1 $80 $32 #
plane-surface $-1 -1 $-1 0 0 -13.900149999999998 0 0 1 1 0 0 forward_v I I I I #
coedge $-1 -1 $-1 $81 $82 $83 $84 forward $33 $-1 #
face $-1 -1 $-1 $85 $86 $24 $-1 $87 forward single #
loop $-1 -1 $-1 $-1 $88 $35 #
plane-surface $-1 -1 $-1 -22.720300000000002 0 0 1 0 0 0 0 -1 forward_v I I I I #
face $-1 -1 $-1 $89 $90 $18 $-1 $91 reversed single #
loop $-1 -1 $-1 $-1 $92 $36 #
coedge $-1 -1 $-1 $93 $94 $95 $96 reversed $37 $-1 #
model_id-kcp-attrib $-1 -1 $-1 $-1 $40 1 1021488859 1021488859 1625423873 5 #
face $97 -1 $-1 $98 $99 $7 $-1 $100 forward single #
loop $-1 -1 $-1 $-1 $101 $40 #
cone-surface $-1 -1 $-1 35.915599999999998 0 0 0 0 1 4.7624999999999993 0 0 1 I I 0 1 4.7624999999999993 forward I I I I #
coedge $-1 -1 $-1 $102 $70 $72 $103 forward $41 $-1 #
coedge $-1 -1 $-1 $72 $43 $104 $105 reversed $28 $-1 #
coedge $-1 -1 $-1 $70 $102 $43 $66 reversed $41 $-1 #
edge $-1 -1 $-1 $75 -1.0647591124937101e-030 $106 1.570796326794895 $65 $107 forward @7 unknown #
coedge $-1 -1 $-1 $44 $44 $108 $109 reversed $30 $-1 #
coedge $-1 -1 $-1 $110 $111 $44 $69 forward $112 $-1 #
edge $113 -1 $-1 $114 0 $115 3.1415926535897931 $44 $116 forward @7 unknown #
coedge $-1 -1 $-1 $63 $65 $45 $71 forward $41 $-1 #
edge $117 -1 $-1 $75 -3.1047474036199574e-031 $74 3.1415926535897944 $45 $118 forward @7 unknown #
coedge $-1 -1 $-1 $46 $64 $63 $103 reversed $28 $-1 #
attrib_edge_convexity-kcp-attrib $-1 -1 $119 $-1 $47 3 #
vertex $-1 -1 $-1 $71 $120 #
vertex $-1 -1 $-1 $71 $121 #
ellipse-curve $-1 -1 $-1 35.915599999999998 -2.8199664825478975e-015 0 0 0 1 -4.5084999999999997 3.372080257168716e-015 0 1 I I #
face $-1 -1 $-1 $122 $123 $15 $-1 $124 reversed single #
loop $-1 -1 $-1 $-1 $125 $49 #
plane-surface $-1 -1 $-1 0 -4.7624999999999993 0 0 1 0 0 0 1 forward_v I I I I #
coedge $-1 -1 $-1 $126 $127 $128 $129 forward $50 $-1 #
coedge $-1 -1 $-1 $130 $52 $131 $132 forward $33 $-1 #
coedge $-1 -1 $-1 $52 $130 $133 $134 forward $33 $-1 #
coedge $-1 -1 $-1 $135 $136 $52 $84 reversed $137 $-1 #
edge $-1 -1 $-1 $138 -4.7624999999999993 $139 4.7624999999999993 $83 $140 forward @7 unknown #
face $-1 -1 $-1 $141 $142 $24 $-1 $87 forward single #
loop $-1 -1 $-1 $-1 $143 $53 #
plane-surface $-1 -1 $-1 0 0 13.900149999999998 0 0 1 1 0 0 forward_v I I I I #
coedge $-1 -1 $-1 $144 $145 $146 $147 forward $54 $-1 #
face $-1 -1 $-1 $148 $149 $18 $-1 $150 reversed single #
loop $-1 -1 $-1 $-1 $151 $56 #
plane-surface $-1 -1 $-1 22.720300000000002 0 0 -1 0 0 0 0 1 forward_v I I I I #
coedge $-1 -1 $-1 $152 $153 $154 $155 reversed $57 $-1 #
coedge $-1 -1 $-1 $156 $58 $157 $158 reversed $37 $-1 #
coedge $-1 -1 $-1 $58 $156 $152 $159 forward $37 $-1 #
coedge $-1 -1 $-1 $160 $161 $58 $96 forward $162 $-1 #
edge $-1 -1 $-1 $163 -1.570796326794897 $164 -3.3816834894821593e-016 $95 $165 forward @7 unknown #
model_id-kcp-attrib $-1 -1 $-1 $-1 $60 1 1021488859 1021488859 1625423873 6 #
face $166 -1 $-1 $167 $168 $7 $-1 $169 forward single #
loop $-1 -1 $-1 $-1 $170 $60 #
cone-surface $-1 -1 $-1 35.915599999999998 0 0 0 0 1 4.7624999999999993 0 0 1 I I 0 1 4.7624999999999993 forward I I I I #
coedge $-1 -1 $-1 $171 $172 $173 $174 forward $61 $-1 #
coedge $-1 -1 $-1 $65 $63 $172 $175 reversed $41 $-1 #
edge $-1 -1 $-1 $74 0 $176 1.570796326794895 $63 $177 forward @7 unknown #
coedge $-1 -1 $-1 $170 $173 $64 $105 forward $99 $-1 #
edge $-1 -1 $-1 $176 8.6950175898045507e-032 $106 3.1415926535897931 $104 $178 forward @7 unknown #
vertex $-1 -1 $-1 $175 $179 #
ellipse-curve $-1 -1 $-1 40.424099999999996 -1.1042275492416375e-015 0.25400000000000039 -2.4492127076447412e-016 -1 0 0 0 -0.25400000000000039 1 I I #
coedge $-1 -1 $-1 $180 $181 $67 $109 forward $182 $-1 #
edge $183 -1 $-1 $115 0 $114 3.1415926535897931 $67 $184 forward @7 unknown #
coedge $-1 -1 $-1 $185 $68 $181 $186 forward $112 $-1 #
coedge $-1 -1 $-1 $68 $185 $180 $187 reversed $112 $-1 #
loop $-1 -1 $-1 $-1 $110 $188 #
attrib_edge_convexity-kcp-attrib $-1 -1 $189 $-1 $69 1 #
vertex $-1 -1 $-1 $109 $190 #
vertex $-1 -1 $-1 $109 $191 #
ellipse-curve $-1 -1 $-1 35.915599999999998 0 0 0 0 -1 -3.7464999999999988 0 0 1 I I #
attrib_edge_convexity-kcp-attrib $-1 -1 $192 $-1 $71 3 #
ellipse-curve $-1 -1 $-1 35.915599999999998 3.3487101980256282e-015 0 0 0 1 4.5084999999999997 -3.3487101980256282e-015 0 1 I I #
convexity-sys-attrib $-1 -1 $-1 $73 $47 #
point $-1 -1 $-1 31.407099999999996 5.5211377462081874e-016 0 #
point $-1 -1 $-1 40.424099999999996 0 0 #
face $-1 -1 $-1 $193 $194 $15 $-1 $195 reversed single #
loop $-1 -1 $-1 $-1 $196 $77 #
plane-surface $-1 -1 $-1 -22.720300000000002 0 0 1 0 0 0 0 -1 forward_v I I I I #
coedge $-1 -1 $-1 $197 $133 $198 $199 forward $78 $-1 #
coedge $-1 -1 $-1 $200 $80 $197 $201 forward $50 $-1 #
coedge $-1 -1 $-1 $80 $200 $202 $203 forward $50 $-1 #
coedge $-1 -1 $-1 $136 $135 $80 $129 reversed $137 $-1 #
edge $-1 -1 $-1 $204 -4.7624999999999993 $205 4.7624999999999993 $128 $206 forward @7 unknown #
coedge $-1 -1 $-1 $82 $81 $207 $208 forward $33 $-1 #
coedge $-1 -1 $-1 $209 $210 $81 $132 reversed $194 $-1 #
edge $-1 -1 $-1 $139 -22.720300000000002 $211 22.720300000000002 $131 $212 forward @7 unknown #
coedge $-1 -1 $-1 $125 $213 $82 $134 reversed $78 $-1 #
edge $-1 -1 $-1 $214 -22.720300000000002 $138 22.720300000000002 $133 $215 forward @7 unknown #
coedge $-1 -1 $-1 $128 $83 $213 $216 forward $137 $-1 #
coedge $-1 -1 $-1 $83 $128 $209 $217 reversed $137 $-1 #
loop $-1 -1 $-1 $-1 $135 $193 #
vertex $-1 -1 $-1 $84 $218 #
vertex $-1 -1 $-1 $84 $219 #
straight-curve $-1 -1 $-1 22.720300000000002 0 13.900149999999998 0 1 0 I I #
face $-1 -1 $-1 $220 $221 $24 $-1 $222 reversed single #
loop $-1 -1 $-1 $-1 $223 $85 #
coedge $-1 -1 $-1 $224 $225 $226 $227 forward $86 $-1 #
coedge $-1 -1 $-1 $228 $88 $229 $230 reversed $54 $-1 #
coedge $-1 -1 $-1 $88 $228 $231 $232 reversed $54 $-1 #
coedge $-1 -1 $-1 $233 $234 $235 $147 reversed $236 $-1 #
edge $-1 -1 $-1 $237 -27.8003 $238 0 $88 $239 forward @7 unknown #
face $-1 -1 $-1 $240 $162 $18 $-1 $241 reversed single #
loop $-1 -1 $-1 $-1 $242 $89 #
plane-surface $-1 -1 $-1 0 4.7624999999999993 0 0 -1 0 0 0 -1 forward_v I I I I #
coedge $-1 -1 $-1 $243 $244 $94 $159 reversed $90 $-1 #
coedge $-1 -1 $-1 $245 $92 $246 $159 reversed $57 $-1 #
coedge $-1 -1 $-1 $92 $245 $242 $247 forward $57 $-1 #
coedge $-1 -1 $-1 $248 $249 $92 $155 forward $250 $-1 #
edge $-1 -1 $-1 $164 -3.3816834894821593e-016 $251 1.5707963267948963 $154 $165 forward @7 unknown #
coedge $-1 -1 $-1 $94 $93 $252 $253 reversed $37 $-1 #
coedge $-1 -1 $-1 $254 $255 $93 $158 forward $256 $-1 #
edge $-1 -1 $-1 $257 -27.800299999999996 $163 0 $157 $258 forward @7 unknown #
edge $-1 -1 $-1 $259 -27.800299999999996 $164 0 $246 $260 forward @7 unknown #
coedge $-1 -1 $-1 $161 $95 $244 $261 forward $162 $-1 #
coedge $-1 -1 $-1 $95 $160 $254 $262 forward $162 $-1 #
loop $-1 -1 $-1 $-1 $95 $148 #
vertex $-1 -1 $-1 $158 $263 #
vertex $-1 -1 $-1 $261 $264 #
ellipse-curve $-1 -1 $-1 17.957799999999999 0 -13.900149999999998 0 0 1 4.7624999999999993 1.6105267618658779e-015 0 1 I I #
model_id-kcp-attrib $-1 -1 $-1 $-1 $98 1 1021488859 1021488859 1625423873 7 #
face $265 -1 $-1 $266 $267 $7 $-1 $268 forward single #
loop $-1 -1 $-1 $-1 $269 $98 #
torus-surface $-1 -1 $-1 17.957799999999999 0 5.0799999999999992 0 -1 0 17.957799999999999 4.7624999999999993 -1 0 0 forward_v I I I I #
coedge $-1 -1 $-1 $270 $104 $271 $272 forward $99 $-1 #
coedge $-1 -1 $-1 $271 $101 $273 $274 reversed $61 $-1 #
coedge $-1 -1 $-1 $101 $271 $102 $175 forward $61 $-1 #
coedge $-1 -1 $-1 $104 $270 $101 $174 reversed $99 $-1 #
edge $-1 -1 $-1 $176 -2.1854783949314105e-018 $275 0.19000000000000003 $101 $276 forward @7 unknown #
edge $-1 -1 $-1 $106 0 $176 3.1415926535897931 $172 $277 forward @7 unknown #
vertex $-1 -1 $-1 $175 $278 #
ellipse-curve $-1 -1 $-1 31.407099999999996 5.5211377462081874e-016 0.25400000000000039 1.2246063538223706e-016 1 0 0 0 -0.25400000000000039 1 I I #
ellipse-curve $-1 -1 $-1 35.915599999999998 0 0.254 0 0 1 -4.7624999999999993 5.8321877600790703e-016 0 1 I I #
point $-1 -1 $-1 40.678099999999993 0 0.254 #
coedge $-1 -1 $-1 $279 $108 $111 $187 forward $182 $-1 #
coedge $-1 -1 $-1 $108 $279 $110 $186 reversed $182 $-1 #
loop $-1 -1 $-1 $-1 $180 $280 #
attrib_edge_convexity-kcp-attrib $-1 -1 $281 $-1 $109 1 #
ellipse-curve $-1 -1 $-1 35.915599999999998 0 0 0 0 -1 3.7464999999999988 0 0 1 I I #
coedge $-1 -1 $-1 $111 $110 $282 $283 reversed $112 $-1 #
edge $-1 -1 $-1 $115 0 $284 0.20000000000000009 $181 $285 forward @7 unknown #
edge $-1 -1 $-1 $114 0 $286 0.20000000000000004 $180 $287 forward @7 unknown #
face $288 -1 $-1 $280 $112 $7 $-1 $289 reversed single #
convexity-sys-attrib $-1 -1 $-1 $113 $69 #
point $-1 -1 $-1 32.1691 0 0 #
point $-1 -1 $-1 39.662099999999995 0 0 #
convexity-sys-attrib $-1 -1 $-1 $117 $71 #
face $-1 -1 $-1 $-1 $137 $15 $-1 $290 reversed single #
loop $-1 -1 $-1 $-1 $209 $122 #
plane-surface $-1 -1 $-1 0 4.7624999999999993 0 0 -1 0 0 0 -1 forward_v I I I I #
coedge $-1 -1 $-1 $291 $207 $210 $292 forward $123 $-1 #
coedge $-1 -1 $-1 $213 $125 $126 $201 reversed $78 $-1 #
coedge $-1 -1 $-1 $207 $291 $125 $199 reversed $123 $-1 #
edge $-1 -1 $-1 $214 -13.900149999999998 $293 13.900149999999998 $198 $294 forward @7 unknown #
coedge $-1 -1 $-1 $127 $126 $291 $295 forward $50 $-1 #
edge $-1 -1 $-1 $205 -22.720300000000002 $293 22.720300000000002 $197 $296 forward @7 unknown #
coedge $-1 -1 $-1 $210 $209 $127 $203 reversed $194 $-1 #
edge $-1 -1 $-1 $297 -22.720300000000002 $204 22.720300000000002 $202 $298 forward @7 unknown #
vertex $-1 -1 $-1 $129 $299 #
vertex $-1 -1 $-1 $216 $300 #
straight-curve $-1 -1 $-1 22.720300000000002 0 -13.900149999999998 0 -1 0 I I #
coedge $-1 -1 $-1 $196 $198 $130 $208 reversed $123 $-1 #
edge $-1 -1 $-1 $211 -4.7624999999999993 $214 4.7624999999999993 $207 $301 forward @7 unknown #
coedge $-1 -1 $-1 $202 $131 $136 $217 forward $194 $-1 #
coedge $-1 -1 $-1 $131 $202 $196 $292 reversed $194 $-1 #
vertex $-1 -1 $-1 $132 $302 #
straight-curve $-1 -1 $-1 0 4.7624999999999993 13.900149999999998 -1 0 0 I I #
coedge $-1 -1 $-1 $133 $197 $135 $216 reversed $78 $-1 #
vertex $-1 -1 $-1 $208 $303 #
straight-curve $-1 -1 $-1 0 -4.7624999999999993 13.900149999999998 1 0 0 I I #
edge $-1 -1 $-1 $138 -13.900149999999998 $205 13.900149999999998 $135 $304 forward @7 unknown #
edge $-1 -1 $-1 $139 -13.900149999999998 $204 13.900149999999998 $136 $305 forward @7 unknown #
point $-1 -1 $-1 22.720300000000002 -4.7624999999999993 13.900149999999998 #
point $-1 -1 $-1 22.720300000000002 4.7624999999999993 13.900149999999998 #
face $-1 -1 $-1 $306 $307 $24 $-1 $241 reversed single #
loop $-1 -1 $-1 $-1 $308 $141 #
plane-surface $-1 -1 $-1 0 -4.7624999999999993 0 0 1 0 0 0 1 forward_v I I I I #
coedge $-1 -1 $-1 $231 $309 $310 $311 forward $142 $-1 #
coedge $-1 -1 $-1 $225 $143 $312 $313 forward $86 $-1 #
coedge $-1 -1 $-1 $143 $224 $233 $314 forward $86 $-1 #
coedge $-1 -1 $-1 $235 $315 $143 $227 reversed $316 $-1 #
edge $-1 -1 $-1 $237 1.5707963267948966 $317 3.1415926535897931 $143 $318 forward @7 unknown #
coedge $-1 -1 $-1 $145 $144 $319 $320 reversed $54 $-1 #
coedge $-1 -1 $-1 $321 $322 $144 $230 forward $323 $-1 #
edge $-1 -1 $-1 $324 -4.7624999999999993 $238 1.7763568394002505e-015 $144 $325 forward @7 unknown #
coedge $-1 -1 $-1 $309 $223 $145 $232 forward $142 $-1 #
edge $-1 -1 $-1 $237 -1.7763568394002505e-015 $326 4.7624999999999993 $145 $327 forward @7 unknown #
coedge $-1 -1 $-1 $328 $146 $225 $314 reversed $236 $-1 #
coedge $-1 -1 $-1 $146 $328 $329 $330 reversed $236 $-1 #
coedge $-1 -1 $-1 $331 $226 $332 $147 forward $316 $-1 #
loop $-1 -1 $-1 $-1 $146 $333 #
vertex $-1 -1 $-1 $232 $334 #
vertex $-1 -1 $-1 $330 $335 #
straight-curve $-1 -1 $-1 -22.720300000000002 1.7763568394002505e-015 -13.900149999999998 0 0 -1 I I #
face $-1 -1 $-1 $336 $337 $18 $-1 $87 forward single #
plane-surface $-1 -1 $-1 0 0 -13.900149999999998 0 0 1 1 0 0 forward_v I I I I #
coedge $-1 -1 $-1 $338 $339 $153 $247 reversed $149 $-1 #
coedge $-1 -1 $-1 $340 $151 $341 $342 reversed $90 $-1 #
coedge $-1 -1 $-1 $151 $340 $160 $261 reversed $90 $-1 #
coedge $-1 -1 $-1 $153 $152 $343 $344 reversed $57 $-1 #
coedge $-1 -1 $-1 $345 $346 $151 $159 forward $347 $-1 #
edge $-1 -1 $-1 $348 -27.800299999999996 $251 0 $242 $349 forward @7 unknown #
coedge $-1 -1 $-1 $249 $154 $339 $350 forward $250 $-1 #
coedge $-1 -1 $-1 $154 $248 $345 $351 forward $250 $-1 #
loop $-1 -1 $-1 $-1 $154 $352 #
vertex $-1 -1 $-1 $350 $353 #
coedge $-1 -1 $-1 $354 $341 $156 $253 forward $337 $-1 #
edge $-1 -1 $-1 $259 3.3816834894821593e-016 $257 1.570796326794897 $252 $355 forward @7 unknown #
coedge $-1 -1 $-1 $356 $157 $161 $262 reversed $256 $-1 #
coedge $-1 -1 $-1 $157 $356 $354 $357 reversed $256 $-1 #
loop $-1 -1 $-1 $-1 $157 $358 #
vertex $-1 -1 $-1 $357 $359 #
straight-curve $-1 -1 $-1 17.957799999999999 -4.7624999999999993 -13.900149999999998 0 0 -1 I I #
vertex $-1 -1 $-1 $360 $361 #
straight-curve $-1 -1 $-1 22.720300000000002 0 -13.900149999999998 0 0 -1 I I #
edge $-1 -1 $-1 $164 0 $362 4.7624999999999993 $244 $363 forward @7 unknown #
edge $-1 -1 $-1 $362 -22.720300000000002 $163 -17.957799999999999 $254 $364 forward @7 unknown #
point $-1 -1 $-1 17.957799999999999 -4.7624999999999993 -13.900149999999998 #
point $-1 -1 $-1 22.720300000000002 0 -13.900149999999998 #
model_id-kcp-attrib $-1 -1 $-1 $-1 $167 1 1021488859 1021488859 1625423873 8 #
face $365 -1 $-1 $366 $367 $7 $-1 $368 forward single #
loop $-1 -1 $-1 $-1 $369 $167 #
torus-surface $-1 -1 $-1 17.957799999999999 0 5.0799999999999992 0 -1 0 17.957799999999999 4.7624999999999993 -1 0 0 forward_v I I I I #
coedge $-1 -1 $-1 $370 $371 $372 $373 forward $168 $-1 #
coedge $-1 -1 $-1 $173 $170 $371 $374 reversed $99 $-1 #
coedge $-1 -1 $-1 $172 $171 $170 $272 reversed $61 $-1 #
edge $-1 -1 $-1 $106 -2.1854783949314105e-018 $375 0.19000000000000006 $271 $376 forward @7 unknown #
coedge $-1 -1 $-1 $369 $372 $171 $274 forward $267 $-1 #
edge $-1 -1 $-1 $375 2.0868042215530952e-031 $275 3.1415926535897931 $171 $377 forward @7 unknown #
vertex $-1 -1 $-1 $274 $378 #
straight-curve $-1 -1 $-1 31.153099999999995 5.8321877600790713e-016 0.25400000000000006 0 0 25.399999999999999 I I #
ellipse-curve $-1 -1 $-1 35.915599999999998 0 0.254 0 0 1 4.7624999999999993 0 0 1 I I #
point $-1 -1 $-1 31.153099999999995 5.8321877600790703e-016 0.254 #
coedge $-1 -1 $-1 $181 $180 $379 $380 reversed $182 $-1 #
face $381 -1 $-1 $-1 $182 $7 $-1 $382 reversed single #
convexity-sys-attrib $-1 -1 $-1 $183 $109 #
coedge $-1 -1 $-1 $383 $384 $185 $283 forward $385 $-1 #
edge $-1 -1 $-1 $286 -1.1240327249100987e-031 $284 3.1415926535897936 $185 $386 forward @7 unknown #
vertex $-1 -1 $-1 $186 $387 #
straight-curve $-1 -1 $-1 39.662099999999995 0 0 0 -4.5879877045955363e-015 25.399999999999999 I I #
vertex $-1 -1 $-1 $380 $388 #
straight-curve $-1 -1 $-1 32.1691 4.5879877045955359e-016 0 0 0 25.399999999999999 I I #
model_id-kcp-attrib $-1 -1 $-1 $-1 $188 1 1021488859 1021488859 1625423873 18 #
cone-surface $-1 -1 $-1 35.915599999999998 0 0 0 0 1 3.7464999999999997 0 0 1 I I 0 1 3.7464999999999997 forward I I I I #
plane-surface $-1 -1 $-1 22.720300000000002 0 0 -1 0 0 0 0 1 forward_v I I I I #
coedge $-1 -1 $-1 $198 $196 $200 $295 reversed $123 $-1 #
edge $-1 -1 $-1 $211 -13.900149999999998 $297 13.900149999999998 $210 $389 forward @7 unknown #
vertex $-1 -1 $-1 $295 $390 #
straight-curve $-1 -1 $-1 -22.720300000000002 -4.7624999999999993 0 0 0 -1 I I #
edge $-1 -1 $-1 $293 -4.7624999999999993 $297 4.7624999999999993 $291 $391 forward @7 unknown #
straight-curve $-1 -1 $-1 0 -4.7624999999999993 -13.900149999999998 -1 0 0 I I #
vertex $-1 -1 $-1 $203 $392 #
straight-curve $-1 -1 $-1 0 4.7624999999999993 -13.900149999999998 1 0 0 I I #
point $-1 -1 $-1 22.720300000000002 4.7624999999999993 -13.900149999999998 #
point $-1 -1 $-1 22.720300000000002 -4.7624999999999993 -13.900149999999998 #
straight-curve $-1 -1 $-1 -22.720300000000002 0 13.900149999999998 0 -1 0 I I #
point $-1 -1 $-1 -22.720300000000002 4.7624999999999993 13.900149999999998 #
point $-1 -1 $-1 -22.720300000000002 -4.7624999999999993 13.900149999999998 #
straight-curve $-1 -1 $-1 22.720300000000002 -4.7624999999999993 0 0 0 -1 I I #
straight-curve $-1 -1 $-1 22.720300000000002 4.7624999999999993 0 0 0 -1 I I #
face $-1 -1 $-1 $333 $323 $24 $-1 $241 reversed single #
loop $-1 -1 $-1 $-1 $393 $220 #
coedge $-1 -1 $-1 $394 $395 $396 $397 reversed $221 $-1 #
coedge $-1 -1 $-1 $223 $231 $394 $398 forward $142 $-1 #
coedge $-1 -1 $-1 $396 $332 $223 $311 reversed $399 $-1 #
edge $-1 -1 $-1 $400 0 $237 1.5707963267948966 $223 $318 forward @7 unknown #
coedge $-1 -1 $-1 $401 $402 $224 $313 reversed $403 $-1 #
edge $-1 -1 $-1 $317 17.957799999999999 $404 22.720300000000002 $312 $405 forward @7 unknown #
edge $-1 -1 $-1 $404 -4.7624999999999993 $237 -1.7763568394002505e-015 $233 $327 forward @7 unknown #
coedge $-1 -1 $-1 $226 $331 $401 $406 reversed $316 $-1 #
loop $-1 -1 $-1 $-1 $331 $407 #
vertex $-1 -1 $-1 $313 $408 #
ellipse-curve $-1 -1 $-1 -17.957799999999999 1.7763568394002505e-015 13.900149999999998 0 0 -1 0 -4.7625000000000011 0 1 I I #
coedge $-1 -1 $-1 $395 $394 $228 $320 forward $221 $-1 #
edge $-1 -1 $-1 $326 -13.900149999999998 $324 13.900149999999998 $228 $409 forward @7 unknown #
coedge $-1 -1 $-1 $322 $229 $410 $411 forward $323 $-1 #
coedge $-1 -1 $-1 $229 $321 $395 $412 forward $323 $-1 #
loop $-1 -1 $-1 $-1 $321 $306 #
vertex $-1 -1 $-1 $230 $413 #
straight-curve $-1 -1 $-1 -22.720300000000002 0 -13.900149999999998 0 1 0 I I #
vertex $-1 -1 $-1 $232 $414 #
straight-curve $-1 -1 $-1 -22.720300000000002 0 13.900149999999998 0 -1 0 I I #
coedge $-1 -1 $-1 $234 $233 $402 $415 forward $236 $-1 #
coedge $-1 -1 $-1 $416 $393 $234 $330 forward $307 $-1 #
edge $-1 -1 $-1 $238 1.7763568394002505e-015 $417 4.7624999999999993 $234 $325 forward @7 unknown #
coedge $-1 -1 $-1 $315 $235 $393 $418 reversed $316 $-1 #
coedge $-1 -1 $-1 $310 $410 $88 $147 reversed $399 $-1 #
face $-1 -1 $-1 $419 $236 $24 $-1 $55 reversed single #
point $-1 -1 $-1 -22.720300000000002 1.7763568394002505e-015 13.900150000000002 #
point $-1 -1 $-1 -22.720300000000002 1.7763568394002505e-015 -13.900149999999998 #
face $-1 -1 $-1 $352 $420 $18 $-1 $87 forward single #
loop $-1 -1 $-1 $-1 $252 $240 #
coedge $-1 -1 $-1 $421 $242 $422 $423 reversed $149 $-1 #
coedge $-1 -1 $-1 $242 $421 $248 $350 reversed $149 $-1 #
coedge $-1 -1 $-1 $244 $243 $356 $424 forward $90 $-1 #
coedge $-1 -1 $-1 $252 $354 $243 $342 forward $337 $-1 #
edge $-1 -1 $-1 $425 -4.7624999999999993 $259 0 $243 $426 forward @7 unknown #
coedge $-1 -1 $-1 $427 $422 $245 $344 forward $420 $-1 #
edge $-1 -1 $-1 $348 -1.5707963267948963 $259 3.3816834894821593e-016 $343 $355 forward @7 unknown #
coedge $-1 -1 $-1 $428 $246 $249 $351 reversed $347 $-1 #
coedge $-1 -1 $-1 $246 $428 $427 $360 reversed $347 $-1 #
loop $-1 -1 $-1 $-1 $246 $429 #
vertex $-1 -1 $-1 $247 $430 #
straight-curve $-1 -1 $-1 17.957799999999999 4.7624999999999993 -13.900149999999998 0 0 -1 I I #
edge $-1 -1 $-1 $251 17.957799999999999 $431 22.720300000000002 $339 $432 forward @7 unknown #
edge $-1 -1 $-1 $431 -4.7624999999999993 $164 0 $345 $363 forward @7 unknown #
face $-1 -1 $-1 $358 $250 $18 $-1 $241 reversed single #
point $-1 -1 $-1 17.957799999999999 4.7624999999999993 -13.900149999999998 #
coedge $-1 -1 $-1 $341 $252 $255 $357 forward $337 $-1 #
ellipse-curve $-1 -1 $-1 17.957799999999999 0 13.900149999999998 0 0 -1 4.7624999999999993 1.6105267618658779e-015 0 1 I I #
coedge $-1 -1 $-1 $255 $254 $340 $424 reversed $256 $-1 #
edge $-1 -1 $-1 $257 17.957799999999999 $425 22.720300000000002 $255 $433 forward @7 unknown #
face $-1 -1 $-1 $429 $256 $18 $-1 $222 reversed single #
point $-1 -1 $-1 17.957799999999999 -4.7624999999999993 13.900149999999998 #
edge $-1 -1 $-1 $259 0 $434 4.7624999999999993 $346 $426 forward @7 unknown #
point $-1 -1 $-1 22.720300000000002 0 13.900149999999998 #
vertex $-1 -1 $-1 $424 $435 #
straight-curve $-1 -1 $-1 22.720300000000002 0 -13.900149999999998 0 -1 0 I I #
straight-curve $-1 -1 $-1 0 -4.7624999999999993 -13.900149999999998 -1 0 0 I I #
model_id-kcp-attrib $-1 -1 $-1 $-1 $266 1 1021488859 1021488859 1625423873 9 #
face $436 -1 $-1 $437 $438 $7 $-1 $439 forward single #
loop $-1 -1 $-1 $-1 $440 $266 #
cone-surface $-1 -1 $-1 0 0 5.0799999999999992 0 0 -1 -4.7624999999999993 0 0 1 I I 0 1 4.7624999999999993 forward I I I I #
coedge $-1 -1 $-1 $441 $273 $442 $443 forward $267 $-1 #
coedge $-1 -1 $-1 $442 $269 $444 $445 reversed $168 $-1 #
coedge $-1 -1 $-1 $269 $442 $270 $374 forward $168 $-1 #
coedge $-1 -1 $-1 $273 $441 $269 $373 reversed $267 $-1 #
edge $-1 -1 $-1 $375 -6.8410726727869428e-018 $446 3.1415926535897931 $372 $447 forward @7 unknown #
edge $-1 -1 $-1 $275 2.1737543974511377e-033 $375 3.1415926535897931 $270 $448 forward @7 unknown #
vertex $-1 -1 $-1 $272 $449 #
straight-curve $-1 -1 $-1 40.678099999999993 0 0.25400000000000006 0 0 25.399999999999999 I I #
ellipse-curve $-1 -1 $-1 35.915599999999998 -1.7624790515924359e-016 5.0800000000000018 -1.4802973661668753e-016 -4.1733831933791188e-032 1 4.7624999999999993 1.3426854571750579e-015 7.0499162063697436e-016 1 I I #
point $-1 -1 $-1 31.153099999999995 -5.8321877600790713e-016 5.080000000000001 #
coedge $-1 -1 $-1 $450 $451 $279 $380 forward $452 $-1 #
edge $-1 -1 $-1 $284 -5.6201636245504934e-032 $286 3.1415926535897931 $279 $453 forward @7 unknown #
model_id-kcp-attrib $-1 -1 $-1 $-1 $280 1 1021488859 1021488859 1625423873 19 #
cone-surface $-1 -1 $-1 35.915599999999998 0 0 0 0 1 3.7464999999999997 0 0 1 I I 0 1 3.7464999999999997 forward I I I I #
coedge $-1 -1 $-1 $454 $282 $451 $455 forward $385 $-1 #
coedge $-1 -1 $-1 $282 $454 $450 $456 reversed $385 $-1 #
loop $-1 -1 $-1 $-1 $383 $457 #
ellipse-curve $-1 -1 $-1 35.915599999999998 8.81239525796218e-016 5.0800000000000018 1.8817339400426386e-016 6.7305366155649224e-032 -1 -3.7464999999999988 -1.3400382962557716e-015 -7.0499162063697436e-016 1 I I #
point $-1 -1 $-1 39.662099999999995 0 5.0800000000000018 #
point $-1 -1 $-1 32.1691 -4.5879877045955359e-016 5.080000000000001 #
straight-curve $-1 -1 $-1 -22.720300000000002 4.7624999999999993 0 0 0 -1 I I #
point $-1 -1 $-1 -22.720300000000002 -4.7624999999999993 -13.900149999999998 #
straight-curve $-1 -1 $-1 -22.720300000000002 0 -13.900149999999998 0 1 0 I I #
point $-1 -1 $-1 -22.720300000000002 4.7624999999999993 -13.900149999999998 #
coedge $-1 -1 $-1 $329 $416 $331 $418 forward $307 $-1 #
coedge $-1 -1 $-1 $319 $308 $309 $398 reversed $221 $-1 #
coedge $-1 -1 $-1 $308 $319 $322 $412 reversed $221 $-1 #
coedge $-1 -1 $-1 $410 $310 $308 $397 forward $399 $-1 #
edge $-1 -1 $-1 $400 -27.800299999999996 $458 0 $308 $459 forward @7 unknown #
edge $-1 -1 $-1 $326 -22.720300000000002 $400 -17.957799999999999 $394 $433 forward @7 unknown #
loop $-1 -1 $-1 $-1 $410 $460 #
vertex $-1 -1 $-1 $311 $461 #
coedge $-1 -1 $-1 $462 $312 $315 $406 forward $403 $-1 #
coedge $-1 -1 $-1 $312 $462 $328 $415 reversed $403 $-1 #
loop $-1 -1 $-1 $-1 $401 $419 #
vertex $-1 -1 $-1 $313 $463 #
straight-curve $-1 -1 $-1 0 4.7624999999999993 13.900149999999998 -1 0 0 I I #
edge $-1 -1 $-1 $317 -27.800299999999996 $464 0 $401 $465 forward @7 unknown #
face $-1 -1 $-1 $460 $316 $24 $-1 $466 reversed single #
point $-1 -1 $-1 -17.957799999999999 4.7624999999999993 13.900149999999998 #
straight-curve $-1 -1 $-1 -22.720300000000002 -4.7624999999999993 0 0 0 -1 I I #
coedge $-1 -1 $-1 $332 $396 $321 $411 reversed $399 $-1 #
edge $-1 -1 $-1 $238 -1.5707963267948966 $458 0 $321 $467 forward @7 unknown #
edge $-1 -1 $-1 $458 17.957799999999999 $324 22.720300000000002 $395 $364 forward @7 unknown #
point $-1 -1 $-1 -22.720300000000002 -4.7624999999999993 -13.900149999999998 #
point $-1 -1 $-1 -22.720300000000002 -4.7624999999999993 13.900149999999998 #
edge $-1 -1 $-1 $404 -13.900149999999998 $417 13.900149999999998 $402 $468 forward @7 unknown #
coedge $-1 -1 $-1 $393 $329 $462 $469 forward $307 $-1 #
vertex $-1 -1 $-1 $469 $470 #
edge $-1 -1 $-1 $464 -3.1415926535897931 $238 -1.5707963267948966 $393 $467 forward @7 unknown #
face $-1 -1 $-1 $407 $403 $24 $-1 $150 reversed single #
loop $-1 -1 $-1 $-1 $343 $336 #
coedge $-1 -1 $-1 $339 $338 $428 $471 forward $149 $-1 #
coedge $-1 -1 $-1 $343 $427 $338 $423 forward $420 $-1 #
edge $-1 -1 $-1 $434 -22.720300000000002 $348 -17.957799999999999 $338 $405 forward @7 unknown #
edge $-1 -1 $-1 $425 -13.900149999999998 $362 13.900149999999998 $340 $472 forward @7 unknown #
vertex $-1 -1 $-1 $342 $473 #
straight-curve $-1 -1 $-1 22.720300000000002 0 13.900149999999998 0 1 0 I I #
coedge $-1 -1 $-1 $422 $343 $346 $360 forward $420 $-1 #
coedge $-1 -1 $-1 $346 $345 $421 $471 reversed $347 $-1 #
face $-1 -1 $-1 $-1 $347 $18 $-1 $91 reversed single #
point $-1 -1 $-1 17.957799999999999 4.7624999999999993 13.900149999999998 #
vertex $-1 -1 $-1 $351 $474 #
straight-curve $-1 -1 $-1 0 4.7624999999999993 -13.900149999999998 1 0 0 I I #
straight-curve $-1 -1 $-1 0 -4.7624999999999993 13.900149999999998 1 0 0 I I #
vertex $-1 -1 $-1 $360 $475 #
point $-1 -1 $-1 22.720300000000002 -4.7624999999999993 -13.900149999999998 #
model_id-kcp-attrib $-1 -1 $-1 $-1 $366 1 1021488859 1021488859 1625423873 10 #
face $476 -1 $-1 $477 $478 $7 $-1 $479 forward single #
loop $-1 -1 $-1 $-1 $480 $366 #
cone-surface $-1 -1 $-1 0 0 5.0799999999999992 0 0 -1 -4.7624999999999993 0 0 1 I I 0 1 4.7624999999999993 forward I I I I #
coedge $-1 -1 $-1 $481 $482 $483 $484 forward $367 $-1 #
coedge $-1 -1 $-1 $372 $369 $482 $485 reversed $267 $-1 #
coedge $-1 -1 $-1 $371 $370 $369 $443 reversed $168 $-1 #
edge $-1 -1 $-1 $275 2.7765461802785993e-017 $486 3.1415926535897931 $369 $487 forward @7 unknown #
coedge $-1 -1 $-1 $480 $483 $370 $445 forward $438 $-1 #
edge $-1 -1 $-1 $486 0 $446 3.1415926535897931 $370 $488 forward @7 unknown #
vertex $-1 -1 $-1 $373 $489 #
ellipse-curve $-1 -1 $-1 17.957799999999999 1.1664375520158143e-015 5.0799999999999992 0 -1 0 22.720299999999998 0 2.8199664825478975e-015 1 I I #
ellipse-curve $-1 -1 $-1 35.915599999999998 -5.2874371547773072e-016 5.0800000000000018 -1.4802973661668753e-016 -1.6932134094404447e-033 1 -4.7624999999999993 -5.4475060530176363e-017 -7.0499162063697436e-016 1 I I #
point $-1 -1 $-1 40.678099999999993 1.1664375520158143e-015 5.0800000000000018 #
coedge $-1 -1 $-1 $490 $379 $384 $456 forward $452 $-1 #
coedge $-1 -1 $-1 $379 $490 $383 $455 reversed $452 $-1 #
loop $-1 -1 $-1 $-1 $450 $491 #
ellipse-curve $-1 -1 $-1 35.915599999999998 -5.2874371547773072e-016 5.0800000000000018 1.8817339400426386e-016 2.6556919658312942e-032 -1 3.7464999999999988 5.2874371547773072e-016 7.0499162063697436e-016 1 I I #
coedge $-1 -1 $-1 $384 $383 $492 $493 reversed $385 $-1 #
edge $-1 -1 $-1 $284 -7.161310129675757e-018 $494 3.1415926535897931 $451 $495 forward @7 unknown #
edge $-1 -1 $-1 $286 2.578044219222039e-017 $496 3.1415926535897931 $450 $497 forward @7 unknown #
face $498 -1 $-1 $188 $385 $7 $-1 $499 reversed single #
vertex $-1 -1 $-1 $412 $500 #
straight-curve $-1 -1 $-1 -17.957799999999999 -4.7624999999999993 -13.900149999999998 0 0 -1 I I #
face $-1 -1 $-1 $-1 $399 $24 $-1 $466 reversed single #
point $-1 -1 $-1 -17.957799999999999 -4.7624999999999993 13.900149999999998 #
coedge $-1 -1 $-1 $402 $401 $416 $469 reversed $403 $-1 #
point $-1 -1 $-1 -22.720300000000002 4.7624999999999993 13.900149999999998 #
vertex $-1 -1 $-1 $418 $501 #
straight-curve $-1 -1 $-1 -17.957799999999999 4.7624999999999993 -13.900149999999998 0 0 -1 I I #
cone-surface $-1 -1 $-1 -17.957799999999999 1.7763568394002505e-015 -13.900149999999998 0 0 -1 0 -4.7625000000000011 0 1 I I 0 1 4.7625000000000011 forward I I I I #
ellipse-curve $-1 -1 $-1 -17.957799999999999 1.7763568394002505e-015 -13.900149999999998 0 0 1 0 -4.7625000000000011 0 1 I I #
straight-curve $-1 -1 $-1 -22.720300000000002 4.7624999999999993 0 0 0 -1 I I #
edge $-1 -1 $-1 $417 -22.720300000000002 $464 -17.957799999999999 $462 $432 forward @7 unknown #
point $-1 -1 $-1 -22.720300000000002 4.7624999999999993 -13.900149999999998 #
edge $-1 -1 $-1 $434 -13.900149999999998 $431 13.900149999999998 $428 $502 forward @7 unknown #
straight-curve $-1 -1 $-1 22.720300000000002 -4.7624999999999993 0 0 0 -1 I I #
point $-1 -1 $-1 22.720300000000002 -4.7624999999999993 13.900149999999998 #
point $-1 -1 $-1 22.720300000000002 4.7624999999999993 -13.900149999999998 #
point $-1 -1 $-1 22.720300000000002 4.7624999999999993 13.900149999999998 #
model_id-kcp-attrib $-1 -1 $-1 $-1 $437 1 1021488859 1021488859 1625423873 11 #
face $503 -1 $-1 $504 $505 $7 $-1 $506 forward single #
loop $-1 -1 $-1 $-1 $507 $437 #
torus-surface $-1 -1 $-1 0 0 0.25400000000000023 0 0 -1 4.5084999999999997 0.254 -1 0 0 forward_v I I I I #
coedge $-1 -1 $-1 $508 $444 $509 $510 forward $438 $-1 #
coedge $-1 -1 $-1 $509 $440 $511 $512 reversed $367 $-1 #
coedge $-1 -1 $-1 $440 $509 $441 $485 forward $367 $-1 #
coedge $-1 -1 $-1 $444 $508 $440 $484 reversed $438 $-1 #
edge $-1 -1 $-1 $486 0 $513 0.18999999999999997 $440 $514 forward @7 unknown #
edge $-1 -1 $-1 $446 0 $486 3.1415926535897931 $441 $515 forward @7 unknown #
vertex $-1 -1 $-1 $485 $516 #
ellipse-curve $-1 -1 $-1 17.957799999999999 -5.8321877600790713e-016 5.0799999999999992 0 -1 0 13.195299999999998 0 1.4099832412739487e-015 1 I I #
ellipse-curve $-1 -1 $-1 0 0 5.0799999999999992 0 0 -1 4.7624999999999993 5.8321877600790713e-016 0 1 I I #
point $-1 -1 $-1 -4.7624999999999993 0 5.0799999999999992 #
coedge $-1 -1 $-1 $451 $450 $517 $518 reversed $452 $-1 #
face $519 -1 $-1 $457 $452 $7 $-1 $520 reversed single #
coedge $-1 -1 $-1 $521 $522 $454 $493 forward $523 $-1 #
edge $-1 -1 $-1 $496 0 $494 3.1415926535897931 $454 $524 forward @7 unknown #
vertex $-1 -1 $-1 $455 $525 #
ellipse-curve $-1 -1 $-1 17.957799999999999 0 5.0799999999999992 0 -1 0 21.704299999999996 0 2.8199664825478975e-015 1 I I #
vertex $-1 -1 $-1 $518 $526 #
ellipse-curve $-1 -1 $-1 17.957799999999999 -4.5879877045955359e-016 5.0799999999999992 0 -1 0 14.2113 0 1.4099832412739487e-015 1 I I #
model_id-kcp-attrib $-1 -1 $-1 $-1 $457 1 1021488859 1021488859 1625423873 17 #
torus-surface $-1 -1 $-1 17.957799999999999 0 5.0799999999999992 0 -1 0 17.957799999999999 3.7464999999999997 -1 0 0 forward_v I I I I #
point $-1 -1 $-1 -17.957799999999999 -4.7624999999999993 -13.900149999999998 #
point $-1 -1 $-1 -17.957799999999999 4.7624999999999993 -13.900149999999998 #
straight-curve $-1 -1 $-1 22.720300000000002 4.7624999999999993 0 0 0 -1 I I #
model_id-kcp-attrib $-1 -1 $-1 $-1 $477 1 1021488859 1021488859 1625423873 12 #
face $527 -1 $-1 $528 $529 $7 $-1 $530 forward single #
loop $-1 -1 $-1 $-1 $531 $477 #
torus-surface $-1 -1 $-1 0 0 0.25400000000000023 0 0 -1 4.5084999999999997 0.254 -1 0 0 forward_v I I I I #
coedge $-1 -1 $-1 $532 $533 $534 $535 forward $478 $-1 #
coedge $-1 -1 $-1 $483 $480 $532 $536 reversed $438 $-1 #
coedge $-1 -1 $-1 $482 $481 $480 $510 reversed $367 $-1 #
edge $-1 -1 $-1 $446 0 $537 0.18999999999999997 $509 $538 forward @7 unknown #
coedge $-1 -1 $-1 $534 $531 $481 $512 forward $505 $-1 #
edge $-1 -1 $-1 $537 0 $513 3.1415926535897931 $481 $539 forward @7 unknown #
vertex $-1 -1 $-1 $512 $540 #
straight-curve $-1 -1 $-1 4.7624999999999993 5.8321877600790713e-016 5.0799999999999992 0 0 -25.399999999999999 I I #
ellipse-curve $-1 -1 $-1 0 0 5.0799999999999992 0 0 -1 -4.7624999999999993 0 0 1 I I #
point $-1 -1 $-1 4.7624999999999993 5.8321877600790713e-016 5.0799999999999992 #
coedge $-1 -1 $-1 $541 $542 $490 $518 forward $543 $-1 #
edge $-1 -1 $-1 $494 0 $496 3.1415926535897931 $490 $544 forward @7 unknown #
model_id-kcp-attrib $-1 -1 $-1 $-1 $491 1 1021488859 1021488859 1625423873 16 #
torus-surface $-1 -1 $-1 17.957799999999999 0 5.0799999999999992 0 -1 0 17.957799999999999 3.7464999999999997 -1 0 0 forward_v I I I I #
coedge $-1 -1 $-1 $545 $492 $542 $546 forward $523 $-1 #
coedge $-1 -1 $-1 $492 $545 $541 $547 reversed $523 $-1 #
loop $-1 -1 $-1 $-1 $521 $528 #
ellipse-curve $-1 -1 $-1 0 0 5.0799999999999992 0 0 1 3.7464999999999997 4.5879877045955359e-016 0 1 I I #
point $-1 -1 $-1 -3.7464999999999997 -9.1759754091910718e-016 5.0799999999999992 #
point $-1 -1 $-1 3.7464999999999997 4.5879877045955359e-016 5.0799999999999992 #
model_id-kcp-attrib $-1 -1 $-1 $-1 $504 1 1021488859 1021488859 1625423873 13 #
face $548 -1 $-1 $549 $523 $7 $-1 $550 reversed single #
loop $-1 -1 $-1 $551 $552 $504 #
plane-surface $-1 -1 $-1 0 0 0 0 0 -1 -25.399999999999999 0 0 forward_v I I I I #
coedge $-1 -1 $-1 $511 $553 $554 $555 forward $505 $-1 #
coedge $-1 -1 $-1 $554 $507 $508 $536 forward $478 $-1 #
coedge $-1 -1 $-1 $507 $554 $552 $556 reversed $478 $-1 #
coedge $-1 -1 $-1 $553 $511 $507 $535 reversed $505 $-1 #
edge $-1 -1 $-1 $557 -7.2120787032736527e-016 $513 1.5707963267948988 $534 $558 forward @7 unknown #
edge $-1 -1 $-1 $513 -1.7390035179609112e-032 $537 3.1415926535897931 $508 $559 forward @7 unknown #
vertex $-1 -1 $-1 $510 $560 #
straight-curve $-1 -1 $-1 -4.7624999999999993 0 5.0799999999999992 0 0 -25.399999999999999 I I #
ellipse-curve $-1 -1 $-1 0 0 0.25400000000000023 0 0 -1 -4.7624999999999993 0 0 1 I I #
point $-1 -1 $-1 4.7624999999999993 5.8321877600790713e-016 0.25400000000000023 #
coedge $-1 -1 $-1 $561 $517 $522 $547 forward $543 $-1 #
coedge $-1 -1 $-1 $517 $561 $521 $546 reversed $543 $-1 #
loop $-1 -1 $-1 $-1 $541 $549 #
ellipse-curve $-1 -1 $-1 0 0 5.0799999999999992 0 0 1 -3.7464999999999997 -9.1759754091910718e-016 0 1 I I #
coedge $-1 -1 $-1 $522 $521 $562 $563 reversed $523 $-1 #
edge $-1 -1 $-1 $494 6.5253987158285752e-033 $564 0.19999999999999998 $542 $565 forward @7 unknown #
edge $-1 -1 $-1 $496 0 $566 0.19999999999999998 $541 $567 forward @7 unknown #
model_id-kcp-attrib $-1 -1 $-1 $-1 $528 1 1021488859 1021488859 1625423873 14 #
face $568 -1 $-1 $491 $543 $7 $-1 $569 reversed single #
cone-surface $-1 -1 $-1 0 0 5.0799999999999992 0 0 -1 -3.7464999999999997 0 0 1 I I 0 1 3.7464999999999997 forward I I I I #
loop $-1 -1 $-1 $-1 $562 $504 #
coedge $-1 -1 $-1 $570 $570 $533 $556 forward $529 $-1 #
coedge $-1 -1 $-1 $531 $534 $570 $571 reversed $505 $-1 #
coedge $-1 -1 $-1 $533 $532 $531 $555 reversed $478 $-1 #
edge $-1 -1 $-1 $572 -7.2120787032736606e-016 $537 1.5707963267948988 $531 $573 forward @7 unknown #
edge $-1 -1 $-1 $557 0 $572 3.1415926535897931 $552 $574 forward @7 unknown #
vertex $-1 -1 $-1 $571 $575 #
ellipse-curve $-1 -1 $-1 4.5085000000000006 5.5211377462081855e-016 0.25400000000000039 1.2246063538223787e-016 -1 -9.561941247328812e-031 -7.0499162063697436e-016 1.5653958587979452e-031 -0.25400000000000017 1 I I #
ellipse-curve $-1 -1 $-1 0 0 0.25400000000000023 0 0 -1 4.7624999999999993 5.8321877600790703e-016 0 1 I I #
point $-1 -1 $-1 -4.7624999999999993 0 0.25400000000000023 #
coedge $-1 -1 $-1 $542 $541 $576 $577 reversed $543 $-1 #
coedge $-1 -1 $-1 $576 $576 $545 $563 forward $551 $-1 #
edge $-1 -1 $-1 $566 0 $564 3.1415926535897931 $562 $578 forward @7 unknown #
vertex $-1 -1 $-1 $577 $579 #
straight-curve $-1 -1 $-1 -3.7464999999999997 0 5.0799999999999992 0 -4.5879877045955363e-015 -25.399999999999999 I I #
vertex $-1 -1 $-1 $577 $580 #
straight-curve $-1 -1 $-1 3.7464999999999997 4.5879877045955359e-016 5.0799999999999992 0 0 -25.399999999999999 I I #
model_id-kcp-attrib $-1 -1 $-1 $-1 $549 1 1021488859 1021488859 1625423873 15 #
cone-surface $-1 -1 $-1 0 0 5.0799999999999992 0 0 -1 -3.7464999999999997 0 0 1 I I 0 1 3.7464999999999997 forward I I I I #
coedge $-1 -1 $-1 $552 $552 $553 $571 forward $529 $-1 #
edge $-1 -1 $-1 $572 -1.4832027368897558e-065 $557 3.1415926535897931 $570 $581 forward @7 unknown #
vertex $-1 -1 $-1 $571 $582 #
ellipse-curve $-1 -1 $-1 -4.5085000000000006 -1.1042275492416371e-015 0.25400000000000039 -2.4492127076447575e-016 1 -1.9123882494657624e-030 7.0499162063697436e-016 -3.1307917175958904e-031 -0.25400000000000017 1 I I #
ellipse-curve $-1 -1 $-1 0 0 0 4.8865450027515689e-017 5.9840940586085569e-033 -1 4.5084999999999997 5.5211377462081874e-016 2.203098814490545e-016 1 I I #
point $-1 -1 $-1 4.5084999999999997 5.5211377462081874e-016 2.203098814490545e-016 #
coedge $-1 -1 $-1 $562 $562 $561 $577 forward $551 $-1 #
edge $-1 -1 $-1 $564 0 $566 3.1415926535897931 $576 $583 forward @7 unknown #
ellipse-curve $-1 -1 $-1 0 0 0 0 0 1 3.7464999999999997 0 0 1 I I #
point $-1 -1 $-1 -3.7464999999999997 0 0 #
point $-1 -1 $-1 3.7464999999999997 0 0 #
ellipse-curve $-1 -1 $-1 0 1.7624790515924359e-016 0 -4.8865450027515689e-017 -1.9102657651133069e-033 -1 -4.5084999999999997 -1.7624790515924359e-016 2.203098814490545e-016 1 I I #
point $-1 -1 $-1 -4.5084999999999997 0 2.203098814490545e-016 #
ellipse-curve $-1 -1 $-1 0 0 0 0 0 1 -3.7464999999999997 0 0 1 I I #
End-of-ACIS-data 