700 0 2 0           
24 FBMach with ACIS - 7.0.3 13 ACIS 7.0.3 NT 24 Wed May 15 15:09:22 2002 
1 9.9999999999999995e-007 1e-010 
body $2 -1 $-1 $3 $-1 $4 #
bdycol-kcp $-1 -1 1 2 $5 $6 #
model_id-kcp-attrib $-1 -1 $-1 $-1 $0 1 1021489761 1021489762 -2012348415 1 #
lump $-1 -1 $-1 $-1 $7 $0 #
transform $-1 -1 1 0 0 0 1 0 0 0 1 0 0 0 1 rotate no_reflect no_shear #
body $8 -1 $-1 $9 $-1 $10 #
body $11 -1 $-1 $12 $-1 $13 #
shell $-1 -1 $-1 $-1 $-1 $14 $-1 $3 #
rgb_color-st-attrib $-1 -1 $15 $-1 $5 0.5 1 1 #
lump $-1 -1 $-1 $16 $17 $5 #
transform $-1 -1 1 0 0 0 1 0 0 0 1 17.957799999999999 -4.4408920985006262e-016 13.900149999999998 1 no_rotate no_reflect no_shear #
model_id-kcp-attrib $-1 -1 $-1 $-1 $6 1 1021489761 1021489762 -2011693054 1 #
lump $-1 -1 $-1 $-1 $18 $6 #
transform $-1 -1 1 0 0 0 1 0 0 0 1 17.957799999999999 -4.4408920985006262e-016 13.900149999999998 1 no_rotate no_reflect no_shear #
face $19 -1 $-1 $20 $21 $7 $-1 $22 reversed single #
model_id-kcp-attrib $-1 -1 $-1 $8 $5 1 1021489761 1021489762 -2012020733 1 #
lump $-1 -1 $-1 $-1 $23 $5 #
shell $-1 -1 $-1 $-1 $-1 $24 $-1 $9 #
shell $-1 -1 $-1 $-1 $-1 $25 $-1 $12 #
model_id-kcp-attrib $-1 -1 $-1 $-1 $14 1 1021489761 1021489762 -2012348415 2 #
face $26 -1 $-1 $27 $28 $7 $-1 $29 forward single #
loop $-1 -1 $-1 $30 $31 $14 #
plane-surface $-1 -1 $-1 35.915599999999998 0 0 0 0 1 25.399999999999999 0 0 forward_v I I I I #
shell $-1 -1 $-1 $-1 $-1 $32 $-1 $16 #
face $-1 -1 $-1 $33 $34 $17 $-1 $35 reversed single #
face $-1 -1 $-1 $36 $37 $18 $-1 $38 forward single #
model_id-kcp-attrib $-1 -1 $-1 $-1 $20 1 1021489761 1021489762 -2012348415 3 #
face $39 -1 $-1 $40 $41 $7 $-1 $42 forward single #
loop $-1 -1 $-1 $-1 $43 $20 #
torus-surface $-1 -1 $-1 35.915599999999998 0 0.254 0 0 1 4.5084999999999997 0.254 1 0 0 forward_v I I I I #
loop $-1 -1 $-1 $-1 $44 $14 #
coedge $-1 -1 $-1 $45 $45 $46 $47 reversed $21 $-1 #
face $-1 -1 $-1 $48 $49 $23 $-1 $50 reversed single #
face $-1 -1 $-1 $51 $52 $17 $-1 $35 reversed single #
loop $-1 -1 $-1 $-1 $53 $24 #
cone-surface $-1 -1 $-1 17.957799999999999 0 -13.900149999999998 0 0 -1 4.7624999999999993 1.6105267618658779e-015 0 1 I I 0 1 4.7624999999999993 forward I I I I #
face $54 -1 $-1 $55 $56 $18 $-1 $57 reversed single #
loop $-1 -1 $-1 $-1 $58 $25 #
plane-surface $-1 -1 $-1 0 0 13.900149999999998 0 0 1 1 0 0 forward_v I I I I #
model_id-kcp-attrib $-1 -1 $-1 $-1 $27 1 1021489761 1021489762 -2012348415 4 #
face $59 -1 $-1 $60 $61 $7 $-1 $62 forward single #
loop $-1 -1 $-1 $-1 $63 $27 #
torus-surface $-1 -1 $-1 35.915599999999998 0 0.254 0 0 1 4.5084999999999997 0.254 1 0 0 forward_v I I I I #
coedge $-1 -1 $-1 $64 $46 $65 $66 forward $28 $-1 #
coedge $-1 -1 $-1 $67 $67 $68 $69 reversed $30 $-1 #
coedge $-1 -1 $-1 $31 $31 $70 $71 reversed $21 $-1 #
coedge $-1 -1 $-1 $43 $72 $31 $47 forward $28 $-1 #
edge $73 -1 $-1 $74 3.1047474036199552e-031 $75 3.1415926535897944 $31 $76 forward @7 unknown #
face $-1 -1 $-1 $77 $78 $23 $-1 $79 forward single #
loop $-1 -1 $-1 $-1 $80 $32 #
plane-surface $-1 -1 $-1 -22.720300000000002 0 0 1 0 0 0 0 -1 forward_v I I I I #
face $-1 -1 $-1 $81 $82 $17 $-1 $83 reversed single #
loop $-1 -1 $-1 $-1 $84 $33 #
coedge $-1 -1 $-1 $85 $86 $87 $88 reversed $34 $-1 #
model_id-kcp-attrib $-1 -1 $-1 $-1 $36 1 1021489761 1021489762 -2011693054 2 #
face $-1 -1 $-1 $89 $90 $18 $-1 $91 reversed single #
loop $-1 -1 $-1 $-1 $92 $36 #
plane-surface $-1 -1 $-1 0 0 -13.900149999999998 0 0 1 1 0 0 forward_v I I I I #
coedge $-1 -1 $-1 $93 $94 $95 $96 forward $37 $-1 #
model_id-kcp-attrib $-1 -1 $-1 $-1 $40 1 1021489761 1021489762 -2012348415 5 #
face $97 -1 $-1 $98 $99 $7 $-1 $100 forward single #
loop $-1 -1 $-1 $-1 $101 $40 #
cone-surface $-1 -1 $-1 35.915599999999998 0 0 0 0 1 4.7624999999999993 0 0 1 I I 0 1 4.7624999999999993 forward I I I I #
coedge $-1 -1 $-1 $102 $70 $72 $103 forward $41 $-1 #
coedge $-1 -1 $-1 $72 $43 $104 $105 reversed $28 $-1 #
coedge $-1 -1 $-1 $70 $102 $43 $66 reversed $41 $-1 #
edge $-1 -1 $-1 $75 -1.0647591124937101e-030 $106 1.570796326794895 $65 $107 forward @7 unknown #
coedge $-1 -1 $-1 $44 $44 $108 $109 reversed $30 $-1 #
coedge $-1 -1 $-1 $110 $111 $44 $69 forward $112 $-1 #
edge $113 -1 $-1 $114 0 $115 3.1415926535897931 $44 $116 forward @7 unknown #
coedge $-1 -1 $-1 $63 $65 $45 $71 forward $41 $-1 #
edge $117 -1 $-1 $75 -3.1047474036199574e-031 $74 3.1415926535897944 $45 $118 forward @7 unknown #
coedge $-1 -1 $-1 $46 $64 $63 $103 reversed $28 $-1 #
attrib_edge_convexity-kcp-attrib $-1 -1 $119 $-1 $47 3 #
vertex $-1 -1 $-1 $71 $120 #
vertex $-1 -1 $-1 $71 $121 #
ellipse-curve $-1 -1 $-1 35.915599999999998 -2.8199664825478975e-015 0 0 0 1 -4.5084999999999997 3.372080257168716e-015 0 1 I I #
face $-1 -1 $-1 $122 $123 $23 $-1 $79 forward single #
loop $-1 -1 $-1 $-1 $124 $48 #
plane-surface $-1 -1 $-1 0 0 13.900149999999998 0 0 1 1 0 0 forward_v I I I I #
coedge $-1 -1 $-1 $125 $126 $127 $128 forward $49 $-1 #
face $-1 -1 $-1 $129 $130 $17 $-1 $131 reversed single #
loop $-1 -1 $-1 $-1 $132 $51 #
plane-surface $-1 -1 $-1 22.720300000000002 0 0 -1 0 0 0 0 1 forward_v I I I I #
coedge $-1 -1 $-1 $133 $134 $135 $136 reversed $52 $-1 #
coedge $-1 -1 $-1 $137 $53 $138 $139 reversed $34 $-1 #
coedge $-1 -1 $-1 $53 $137 $133 $140 forward $34 $-1 #
coedge $-1 -1 $-1 $141 $142 $53 $88 forward $143 $-1 #
edge $-1 -1 $-1 $144 -1.570796326794897 $145 -3.3816834894821593e-016 $87 $146 forward @7 unknown #
face $-1 -1 $-1 $147 $148 $18 $-1 $149 reversed single #
loop $-1 -1 $-1 $-1 $150 $55 #
plane-surface $-1 -1 $-1 0 -4.7624999999999993 0 0 1 0 0 0 1 forward_v I I I I #
coedge $-1 -1 $-1 $151 $152 $153 $154 forward $56 $-1 #
coedge $-1 -1 $-1 $155 $58 $156 $157 forward $37 $-1 #
coedge $-1 -1 $-1 $58 $155 $158 $159 forward $37 $-1 #
coedge $-1 -1 $-1 $160 $161 $58 $96 reversed $162 $-1 #
edge $-1 -1 $-1 $163 -4.7624999999999993 $164 4.7624999999999993 $95 $165 forward @7 unknown #
model_id-kcp-attrib $-1 -1 $-1 $-1 $60 1 1021489761 1021489762 -2012348415 6 #
face $166 -1 $-1 $167 $168 $7 $-1 $169 forward single #
loop $-1 -1 $-1 $-1 $170 $60 #
cone-surface $-1 -1 $-1 35.915599999999998 0 0 0 0 1 4.7624999999999993 0 0 1 I I 0 1 4.7624999999999993 forward I I I I #
coedge $-1 -1 $-1 $171 $172 $173 $174 forward $61 $-1 #
coedge $-1 -1 $-1 $65 $63 $172 $175 reversed $41 $-1 #
edge $-1 -1 $-1 $74 0 $176 1.570796326794895 $63 $177 forward @7 unknown #
coedge $-1 -1 $-1 $170 $173 $64 $105 forward $99 $-1 #
edge $-1 -1 $-1 $176 8.6950175898045507e-032 $106 3.1415926535897931 $104 $178 forward @7 unknown #
vertex $-1 -1 $-1 $175 $179 #
ellipse-curve $-1 -1 $-1 40.424099999999996 -1.1042275492416375e-015 0.25400000000000039 -2.4492127076447412e-016 -1 0 0 0 -0.25400000000000039 1 I I #
coedge $-1 -1 $-1 $180 $181 $67 $109 forward $182 $-1 #
edge $183 -1 $-1 $115 0 $114 3.1415926535897931 $67 $184 forward @7 unknown #
coedge $-1 -1 $-1 $185 $68 $181 $186 forward $112 $-1 #
coedge $-1 -1 $-1 $68 $185 $180 $187 reversed $112 $-1 #
loop $-1 -1 $-1 $-1 $110 $188 #
attrib_edge_convexity-kcp-attrib $-1 -1 $189 $-1 $69 1 #
vertex $-1 -1 $-1 $109 $190 #
vertex $-1 -1 $-1 $109 $191 #
ellipse-curve $-1 -1 $-1 35.915599999999998 0 0 0 0 -1 -3.7464999999999988 0 0 1 I I #
attrib_edge_convexity-kcp-attrib $-1 -1 $192 $-1 $71 3 #
ellipse-curve $-1 -1 $-1 35.915599999999998 3.3487101980256282e-015 0 0 0 1 4.5084999999999997 -3.3487101980256282e-015 0 1 I I #
convexity-sys-attrib $-1 -1 $-1 $73 $47 #
point $-1 -1 $-1 31.407099999999996 5.5211377462081874e-016 0 #
point $-1 -1 $-1 40.424099999999996 0 0 #
face $-1 -1 $-1 $193 $194 $23 $-1 $195 reversed single #
loop $-1 -1 $-1 $-1 $196 $77 #
coedge $-1 -1 $-1 $197 $198 $199 $200 forward $78 $-1 #
coedge $-1 -1 $-1 $201 $80 $202 $203 reversed $49 $-1 #
coedge $-1 -1 $-1 $80 $201 $204 $205 reversed $49 $-1 #
coedge $-1 -1 $-1 $206 $207 $208 $128 reversed $209 $-1 #
edge $-1 -1 $-1 $210 -27.8003 $211 0 $80 $212 forward @7 unknown #
face $-1 -1 $-1 $213 $143 $17 $-1 $214 reversed single #
loop $-1 -1 $-1 $-1 $215 $81 #
plane-surface $-1 -1 $-1 0 4.7624999999999993 0 0 -1 0 0 0 -1 forward_v I I I I #
coedge $-1 -1 $-1 $216 $217 $86 $140 reversed $82 $-1 #
coedge $-1 -1 $-1 $218 $84 $219 $140 reversed $52 $-1 #
coedge $-1 -1 $-1 $84 $218 $215 $220 forward $52 $-1 #
coedge $-1 -1 $-1 $221 $222 $84 $136 forward $223 $-1 #
edge $-1 -1 $-1 $145 -3.3816834894821593e-016 $224 1.5707963267948963 $135 $146 forward @7 unknown #
coedge $-1 -1 $-1 $86 $85 $225 $226 reversed $34 $-1 #
coedge $-1 -1 $-1 $227 $228 $85 $139 forward $229 $-1 #
edge $-1 -1 $-1 $230 -27.800299999999996 $144 0 $138 $231 forward @7 unknown #
edge $-1 -1 $-1 $232 -27.800299999999996 $145 0 $219 $233 forward @7 unknown #
coedge $-1 -1 $-1 $142 $87 $217 $234 forward $143 $-1 #
coedge $-1 -1 $-1 $87 $141 $227 $235 forward $143 $-1 #
loop $-1 -1 $-1 $-1 $87 $129 #
vertex $-1 -1 $-1 $139 $236 #
vertex $-1 -1 $-1 $234 $237 #
ellipse-curve $-1 -1 $-1 17.957799999999999 0 -13.900149999999998 0 0 1 4.7624999999999993 1.6105267618658779e-015 0 1 I I #
face $-1 -1 $-1 $238 $239 $18 $-1 $240 reversed single #
loop $-1 -1 $-1 $-1 $241 $89 #
plane-surface $-1 -1 $-1 -22.720300000000002 0 0 1 0 0 0 0 -1 forward_v I I I I #
coedge $-1 -1 $-1 $242 $158 $243 $244 forward $90 $-1 #
coedge $-1 -1 $-1 $245 $92 $242 $246 forward $56 $-1 #
coedge $-1 -1 $-1 $92 $245 $247 $248 forward $56 $-1 #
coedge $-1 -1 $-1 $161 $160 $92 $154 reversed $162 $-1 #
edge $-1 -1 $-1 $249 -4.7624999999999993 $250 4.7624999999999993 $153 $251 forward @7 unknown #
coedge $-1 -1 $-1 $94 $93 $252 $253 forward $37 $-1 #
coedge $-1 -1 $-1 $254 $255 $93 $157 reversed $239 $-1 #
edge $-1 -1 $-1 $164 -22.720300000000002 $256 22.720300000000002 $156 $257 forward @7 unknown #
coedge $-1 -1 $-1 $150 $258 $94 $159 reversed $90 $-1 #
edge $-1 -1 $-1 $259 -22.720300000000002 $163 22.720300000000002 $158 $260 forward @7 unknown #
coedge $-1 -1 $-1 $153 $95 $258 $261 forward $162 $-1 #
coedge $-1 -1 $-1 $95 $153 $254 $262 reversed $162 $-1 #
loop $-1 -1 $-1 $-1 $160 $238 #
vertex $-1 -1 $-1 $96 $263 #
vertex $-1 -1 $-1 $96 $264 #
straight-curve $-1 -1 $-1 22.720300000000002 0 13.900149999999998 0 1 0 I I #
model_id-kcp-attrib $-1 -1 $-1 $-1 $98 1 1021489761 1021489762 -2012348415 7 #
face $265 -1 $-1 $266 $267 $7 $-1 $268 forward single #
loop $-1 -1 $-1 $-1 $269 $98 #
torus-surface $-1 -1 $-1 17.957799999999999 0 5.0799999999999992 0 -1 0 17.957799999999999 4.7624999999999993 -1 0 0 forward_v I I I I #
coedge $-1 -1 $-1 $270 $104 $271 $272 forward $99 $-1 #
coedge $-1 -1 $-1 $271 $101 $273 $274 reversed $61 $-1 #
coedge $-1 -1 $-1 $101 $271 $102 $175 forward $61 $-1 #
coedge $-1 -1 $-1 $104 $270 $101 $174 reversed $99 $-1 #
edge $-1 -1 $-1 $176 -2.1854783949314105e-018 $275 0.19000000000000003 $101 $276 forward @7 unknown #
edge $-1 -1 $-1 $106 0 $176 3.1415926535897931 $172 $277 forward @7 unknown #
vertex $-1 -1 $-1 $175 $278 #
ellipse-curve $-1 -1 $-1 31.407099999999996 5.5211377462081874e-016 0.25400000000000039 1.2246063538223706e-016 1 0 0 0 -0.25400000000000039 1 I I #
ellipse-curve $-1 -1 $-1 35.915599999999998 0 0.254 0 0 1 -4.7624999999999993 5.8321877600790703e-016 0 1 I I #
point $-1 -1 $-1 40.678099999999993 0 0.254 #
coedge $-1 -1 $-1 $279 $108 $111 $187 forward $182 $-1 #
coedge $-1 -1 $-1 $108 $279 $110 $186 reversed $182 $-1 #
loop $-1 -1 $-1 $-1 $180 $280 #
attrib_edge_convexity-kcp-attrib $-1 -1 $281 $-1 $109 1 #
ellipse-curve $-1 -1 $-1 35.915599999999998 0 0 0 0 -1 3.7464999999999988 0 0 1 I I #
coedge $-1 -1 $-1 $111 $110 $282 $283 reversed $112 $-1 #
edge $-1 -1 $-1 $115 0 $284 0.20000000000000009 $181 $285 forward @7 unknown #
edge $-1 -1 $-1 $114 0 $286 0.20000000000000004 $180 $287 forward @7 unknown #
face $288 -1 $-1 $280 $112 $7 $-1 $289 reversed single #
convexity-sys-attrib $-1 -1 $-1 $113 $69 #
point $-1 -1 $-1 32.1691 0 0 #
point $-1 -1 $-1 39.662099999999995 0 0 #
convexity-sys-attrib $-1 -1 $-1 $117 $71 #
face $-1 -1 $-1 $290 $291 $23 $-1 $214 reversed single #
loop $-1 -1 $-1 $-1 $292 $122 #
plane-surface $-1 -1 $-1 0 -4.7624999999999993 0 0 1 0 0 0 1 forward_v I I I I #
coedge $-1 -1 $-1 $204 $293 $294 $295 forward $123 $-1 #
coedge $-1 -1 $-1 $198 $124 $296 $297 forward $78 $-1 #
coedge $-1 -1 $-1 $124 $197 $206 $298 forward $78 $-1 #
coedge $-1 -1 $-1 $208 $299 $124 $200 reversed $300 $-1 #
edge $-1 -1 $-1 $210 1.5707963267948966 $301 3.1415926535897931 $124 $302 forward @7 unknown #
coedge $-1 -1 $-1 $126 $125 $303 $304 reversed $49 $-1 #
coedge $-1 -1 $-1 $305 $306 $125 $203 forward $307 $-1 #
edge $-1 -1 $-1 $308 -4.7624999999999993 $211 1.7763568394002505e-015 $125 $309 forward @7 unknown #
coedge $-1 -1 $-1 $293 $196 $126 $205 forward $123 $-1 #
edge $-1 -1 $-1 $210 -1.7763568394002505e-015 $310 4.7624999999999993 $126 $311 forward @7 unknown #
coedge $-1 -1 $-1 $312 $127 $198 $298 reversed $209 $-1 #
coedge $-1 -1 $-1 $127 $312 $313 $314 reversed $209 $-1 #
coedge $-1 -1 $-1 $315 $199 $316 $128 forward $300 $-1 #
loop $-1 -1 $-1 $-1 $127 $317 #
vertex $-1 -1 $-1 $205 $318 #
vertex $-1 -1 $-1 $314 $319 #
straight-curve $-1 -1 $-1 -22.720300000000002 1.7763568394002505e-015 -13.900149999999998 0 0 -1 I I #
face $-1 -1 $-1 $320 $321 $17 $-1 $79 forward single #
plane-surface $-1 -1 $-1 0 0 -13.900149999999998 0 0 1 1 0 0 forward_v I I I I #
coedge $-1 -1 $-1 $322 $323 $134 $220 reversed $130 $-1 #
coedge $-1 -1 $-1 $324 $132 $325 $326 reversed $82 $-1 #
coedge $-1 -1 $-1 $132 $324 $141 $234 reversed $82 $-1 #
coedge $-1 -1 $-1 $134 $133 $327 $328 reversed $52 $-1 #
coedge $-1 -1 $-1 $329 $330 $132 $140 forward $331 $-1 #
edge $-1 -1 $-1 $332 -27.800299999999996 $224 0 $215 $333 forward @7 unknown #
coedge $-1 -1 $-1 $222 $135 $323 $334 forward $223 $-1 #
coedge $-1 -1 $-1 $135 $221 $329 $335 forward $223 $-1 #
loop $-1 -1 $-1 $-1 $135 $336 #
vertex $-1 -1 $-1 $334 $337 #
coedge $-1 -1 $-1 $338 $325 $137 $226 forward $321 $-1 #
edge $-1 -1 $-1 $232 3.3816834894821593e-016 $230 1.570796326794897 $225 $339 forward @7 unknown #
coedge $-1 -1 $-1 $340 $138 $142 $235 reversed $229 $-1 #
coedge $-1 -1 $-1 $138 $340 $338 $341 reversed $229 $-1 #
loop $-1 -1 $-1 $-1 $138 $342 #
vertex $-1 -1 $-1 $341 $343 #
straight-curve $-1 -1 $-1 17.957799999999999 -4.7624999999999993 -13.900149999999998 0 0 -1 I I #
vertex $-1 -1 $-1 $344 $345 #
straight-curve $-1 -1 $-1 22.720300000000002 0 -13.900149999999998 0 0 -1 I I #
edge $-1 -1 $-1 $145 0 $346 4.7624999999999993 $217 $347 forward @7 unknown #
edge $-1 -1 $-1 $346 -22.720300000000002 $144 -17.957799999999999 $227 $348 forward @7 unknown #
point $-1 -1 $-1 17.957799999999999 -4.7624999999999993 -13.900149999999998 #
point $-1 -1 $-1 22.720300000000002 0 -13.900149999999998 #
face $-1 -1 $-1 $-1 $162 $18 $-1 $349 reversed single #
loop $-1 -1 $-1 $-1 $254 $147 #
plane-surface $-1 -1 $-1 0 4.7624999999999993 0 0 -1 0 0 0 -1 forward_v I I I I #
coedge $-1 -1 $-1 $350 $252 $255 $351 forward $148 $-1 #
coedge $-1 -1 $-1 $258 $150 $151 $246 reversed $90 $-1 #
coedge $-1 -1 $-1 $252 $350 $150 $244 reversed $148 $-1 #
edge $-1 -1 $-1 $259 -13.900149999999998 $352 13.900149999999998 $243 $353 forward @7 unknown #
coedge $-1 -1 $-1 $152 $151 $350 $354 forward $56 $-1 #
edge $-1 -1 $-1 $250 -22.720300000000002 $352 22.720300000000002 $242 $355 forward @7 unknown #
coedge $-1 -1 $-1 $255 $254 $152 $248 reversed $239 $-1 #
edge $-1 -1 $-1 $356 -22.720300000000002 $249 22.720300000000002 $247 $357 forward @7 unknown #
vertex $-1 -1 $-1 $154 $358 #
vertex $-1 -1 $-1 $261 $359 #
straight-curve $-1 -1 $-1 22.720300000000002 0 -13.900149999999998 0 -1 0 I I #
coedge $-1 -1 $-1 $241 $243 $155 $253 reversed $148 $-1 #
edge $-1 -1 $-1 $256 -4.7624999999999993 $259 4.7624999999999993 $252 $360 forward @7 unknown #
coedge $-1 -1 $-1 $247 $156 $161 $262 forward $239 $-1 #
coedge $-1 -1 $-1 $156 $247 $241 $351 reversed $239 $-1 #
vertex $-1 -1 $-1 $157 $361 #
straight-curve $-1 -1 $-1 0 4.7624999999999993 13.900149999999998 -1 0 0 I I #
coedge $-1 -1 $-1 $158 $242 $160 $261 reversed $90 $-1 #
vertex $-1 -1 $-1 $253 $362 #
straight-curve $-1 -1 $-1 0 -4.7624999999999993 13.900149999999998 1 0 0 I I #
edge $-1 -1 $-1 $163 -13.900149999999998 $250 13.900149999999998 $160 $363 forward @7 unknown #
edge $-1 -1 $-1 $164 -13.900149999999998 $249 13.900149999999998 $161 $364 forward @7 unknown #
point $-1 -1 $-1 22.720300000000002 -4.7624999999999993 13.900149999999998 #
point $-1 -1 $-1 22.720300000000002 4.7624999999999993 13.900149999999998 #
model_id-kcp-attrib $-1 -1 $-1 $-1 $167 1 1021489761 1021489762 -2012348415 8 #
face $365 -1 $-1 $366 $367 $7 $-1 $368 forward single #
loop $-1 -1 $-1 $-1 $369 $167 #
torus-surface $-1 -1 $-1 17.957799999999999 0 5.0799999999999992 0 -1 0 17.957799999999999 4.7624999999999993 -1 0 0 forward_v I I I I #
coedge $-1 -1 $-1 $370 $371 $372 $373 forward $168 $-1 #
coedge $-1 -1 $-1 $173 $170 $371 $374 reversed $99 $-1 #
coedge $-1 -1 $-1 $172 $171 $170 $272 reversed $61 $-1 #
edge $-1 -1 $-1 $106 -2.1854783949314105e-018 $375 0.19000000000000006 $271 $376 forward @7 unknown #
coedge $-1 -1 $-1 $369 $372 $171 $274 forward $267 $-1 #
edge $-1 -1 $-1 $375 2.0868042215530952e-031 $275 3.1415926535897931 $171 $377 forward @7 unknown #
vertex $-1 -1 $-1 $274 $378 #
straight-curve $-1 -1 $-1 31.153099999999995 5.8321877600790713e-016 0.25400000000000006 0 0 25.399999999999999 I I #
ellipse-curve $-1 -1 $-1 35.915599999999998 0 0.254 0 0 1 4.7624999999999993 0 0 1 I I #
point $-1 -1 $-1 31.153099999999995 5.8321877600790703e-016 0.254 #
coedge $-1 -1 $-1 $181 $180 $379 $380 reversed $182 $-1 #
face $381 -1 $-1 $-1 $182 $7 $-1 $382 reversed single #
convexity-sys-attrib $-1 -1 $-1 $183 $109 #
coedge $-1 -1 $-1 $383 $384 $185 $283 forward $385 $-1 #
edge $-1 -1 $-1 $286 -1.1240327249100987e-031 $284 3.1415926535897936 $185 $386 forward @7 unknown #
vertex $-1 -1 $-1 $186 $387 #
straight-curve $-1 -1 $-1 39.662099999999995 0 0 0 -4.5879877045955363e-015 25.399999999999999 I I #
vertex $-1 -1 $-1 $380 $388 #
straight-curve $-1 -1 $-1 32.1691 4.5879877045955359e-016 0 0 0 25.399999999999999 I I #
model_id-kcp-attrib $-1 -1 $-1 $-1 $188 1 1021489761 1021489762 -2012348415 18 #
cone-surface $-1 -1 $-1 35.915599999999998 0 0 0 0 1 3.7464999999999997 0 0 1 I I 0 1 3.7464999999999997 forward I I I I #
face $-1 -1 $-1 $317 $307 $23 $-1 $214 reversed single #
loop $-1 -1 $-1 $-1 $389 $193 #
coedge $-1 -1 $-1 $390 $391 $392 $393 reversed $194 $-1 #
coedge $-1 -1 $-1 $196 $204 $390 $394 forward $123 $-1 #
coedge $-1 -1 $-1 $392 $316 $196 $295 reversed $395 $-1 #
edge $-1 -1 $-1 $396 0 $210 1.5707963267948966 $196 $302 forward @7 unknown #
coedge $-1 -1 $-1 $397 $398 $197 $297 reversed $399 $-1 #
edge $-1 -1 $-1 $301 17.957799999999999 $400 22.720300000000002 $296 $401 forward @7 unknown #
edge $-1 -1 $-1 $400 -4.7624999999999993 $210 -1.7763568394002505e-015 $206 $311 forward @7 unknown #
coedge $-1 -1 $-1 $199 $315 $397 $402 reversed $300 $-1 #
loop $-1 -1 $-1 $-1 $315 $403 #
vertex $-1 -1 $-1 $297 $404 #
ellipse-curve $-1 -1 $-1 -17.957799999999999 1.7763568394002505e-015 13.900149999999998 0 0 -1 0 -4.7625000000000011 0 1 I I #
coedge $-1 -1 $-1 $391 $390 $201 $304 forward $194 $-1 #
edge $-1 -1 $-1 $310 -13.900149999999998 $308 13.900149999999998 $201 $405 forward @7 unknown #
coedge $-1 -1 $-1 $306 $202 $406 $407 forward $307 $-1 #
coedge $-1 -1 $-1 $202 $305 $391 $408 forward $307 $-1 #
loop $-1 -1 $-1 $-1 $305 $290 #
vertex $-1 -1 $-1 $203 $409 #
straight-curve $-1 -1 $-1 -22.720300000000002 0 -13.900149999999998 0 1 0 I I #
vertex $-1 -1 $-1 $205 $410 #
straight-curve $-1 -1 $-1 -22.720300000000002 0 13.900149999999998 0 -1 0 I I #
coedge $-1 -1 $-1 $207 $206 $398 $411 forward $209 $-1 #
coedge $-1 -1 $-1 $412 $389 $207 $314 forward $291 $-1 #
edge $-1 -1 $-1 $211 1.7763568394002505e-015 $413 4.7624999999999993 $207 $309 forward @7 unknown #
coedge $-1 -1 $-1 $299 $208 $389 $414 reversed $300 $-1 #
coedge $-1 -1 $-1 $294 $406 $80 $128 reversed $395 $-1 #
face $-1 -1 $-1 $415 $209 $23 $-1 $50 reversed single #
point $-1 -1 $-1 -22.720300000000002 1.7763568394002505e-015 13.900150000000002 #
point $-1 -1 $-1 -22.720300000000002 1.7763568394002505e-015 -13.900149999999998 #
face $-1 -1 $-1 $336 $416 $17 $-1 $79 forward single #
loop $-1 -1 $-1 $-1 $225 $213 #
coedge $-1 -1 $-1 $417 $215 $418 $419 reversed $130 $-1 #
coedge $-1 -1 $-1 $215 $417 $221 $334 reversed $130 $-1 #
coedge $-1 -1 $-1 $217 $216 $340 $420 forward $82 $-1 #
coedge $-1 -1 $-1 $225 $338 $216 $326 forward $321 $-1 #
edge $-1 -1 $-1 $421 -4.7624999999999993 $232 0 $216 $422 forward @7 unknown #
coedge $-1 -1 $-1 $423 $418 $218 $328 forward $416 $-1 #
edge $-1 -1 $-1 $332 -1.5707963267948963 $232 3.3816834894821593e-016 $327 $339 forward @7 unknown #
coedge $-1 -1 $-1 $424 $219 $222 $335 reversed $331 $-1 #
coedge $-1 -1 $-1 $219 $424 $423 $344 reversed $331 $-1 #
loop $-1 -1 $-1 $-1 $219 $425 #
vertex $-1 -1 $-1 $220 $426 #
straight-curve $-1 -1 $-1 17.957799999999999 4.7624999999999993 -13.900149999999998 0 0 -1 I I #
edge $-1 -1 $-1 $224 17.957799999999999 $427 22.720300000000002 $323 $428 forward @7 unknown #
edge $-1 -1 $-1 $427 -4.7624999999999993 $145 0 $329 $347 forward @7 unknown #
face $-1 -1 $-1 $342 $223 $17 $-1 $214 reversed single #
point $-1 -1 $-1 17.957799999999999 4.7624999999999993 -13.900149999999998 #
coedge $-1 -1 $-1 $325 $225 $228 $341 forward $321 $-1 #
ellipse-curve $-1 -1 $-1 17.957799999999999 0 13.900149999999998 0 0 -1 4.7624999999999993 1.6105267618658779e-015 0 1 I I #
coedge $-1 -1 $-1 $228 $227 $324 $420 reversed $229 $-1 #
edge $-1 -1 $-1 $230 17.957799999999999 $421 22.720300000000002 $228 $429 forward @7 unknown #
face $-1 -1 $-1 $425 $229 $17 $-1 $195 reversed single #
point $-1 -1 $-1 17.957799999999999 -4.7624999999999993 13.900149999999998 #
edge $-1 -1 $-1 $232 0 $430 4.7624999999999993 $330 $422 forward @7 unknown #
point $-1 -1 $-1 22.720300000000002 0 13.900149999999998 #
vertex $-1 -1 $-1 $420 $431 #
straight-curve $-1 -1 $-1 22.720300000000002 0 -13.900149999999998 0 -1 0 I I #
straight-curve $-1 -1 $-1 0 -4.7624999999999993 -13.900149999999998 -1 0 0 I I #
plane-surface $-1 -1 $-1 22.720300000000002 0 0 -1 0 0 0 0 1 forward_v I I I I #
coedge $-1 -1 $-1 $243 $241 $245 $354 reversed $148 $-1 #
edge $-1 -1 $-1 $256 -13.900149999999998 $356 13.900149999999998 $255 $432 forward @7 unknown #
vertex $-1 -1 $-1 $354 $433 #
straight-curve $-1 -1 $-1 -22.720300000000002 -4.7624999999999993 0 0 0 -1 I I #
edge $-1 -1 $-1 $352 -4.7624999999999993 $356 4.7624999999999993 $350 $434 forward @7 unknown #
straight-curve $-1 -1 $-1 0 -4.7624999999999993 -13.900149999999998 -1 0 0 I I #
vertex $-1 -1 $-1 $248 $435 #
straight-curve $-1 -1 $-1 0 4.7624999999999993 -13.900149999999998 1 0 0 I I #
point $-1 -1 $-1 22.720300000000002 4.7624999999999993 -13.900149999999998 #
point $-1 -1 $-1 22.720300000000002 -4.7624999999999993 -13.900149999999998 #
straight-curve $-1 -1 $-1 -22.720300000000002 0 13.900149999999998 0 -1 0 I I #
point $-1 -1 $-1 -22.720300000000002 4.7624999999999993 13.900149999999998 #
point $-1 -1 $-1 -22.720300000000002 -4.7624999999999993 13.900149999999998 #
straight-curve $-1 -1 $-1 22.720300000000002 -4.7624999999999993 0 0 0 -1 I I #
straight-curve $-1 -1 $-1 22.720300000000002 4.7624999999999993 0 0 0 -1 I I #
model_id-kcp-attrib $-1 -1 $-1 $-1 $266 1 1021489761 1021489762 -2012348415 9 #
face $436 -1 $-1 $437 $438 $7 $-1 $439 forward single #
loop $-1 -1 $-1 $-1 $440 $266 #
cone-surface $-1 -1 $-1 0 0 5.0799999999999992 0 0 -1 -4.7624999999999993 0 0 1 I I 0 1 4.7624999999999993 forward I I I I #
coedge $-1 -1 $-1 $441 $273 $442 $443 forward $267 $-1 #
coedge $-1 -1 $-1 $442 $269 $444 $445 reversed $168 $-1 #
coedge $-1 -1 $-1 $269 $442 $270 $374 forward $168 $-1 #
coedge $-1 -1 $-1 $273 $441 $269 $373 reversed $267 $-1 #
edge $-1 -1 $-1 $375 -6.8410726727869428e-018 $446 3.1415926535897931 $372 $447 forward @7 unknown #
edge $-1 -1 $-1 $275 2.1737543974511377e-033 $375 3.1415926535897931 $270 $448 forward @7 unknown #
vertex $-1 -1 $-1 $272 $449 #
straight-curve $-1 -1 $-1 40.678099999999993 0 0.25400000000000006 0 0 25.399999999999999 I I #
ellipse-curve $-1 -1 $-1 35.915599999999998 -1.7624790515924359e-016 5.0800000000000018 -1.4802973661668753e-016 -4.1733831933791188e-032 1 4.7624999999999993 1.3426854571750579e-015 7.0499162063697436e-016 1 I I #
point $-1 -1 $-1 31.153099999999995 -5.8321877600790713e-016 5.080000000000001 #
coedge $-1 -1 $-1 $450 $451 $279 $380 forward $452 $-1 #
edge $-1 -1 $-1 $284 -5.6201636245504934e-032 $286 3.1415926535897931 $279 $453 forward @7 unknown #
model_id-kcp-attrib $-1 -1 $-1 $-1 $280 1 1021489761 1021489762 -2012348415 19 #
cone-surface $-1 -1 $-1 35.915599999999998 0 0 0 0 1 3.7464999999999997 0 0 1 I I 0 1 3.7464999999999997 forward I I I I #
coedge $-1 -1 $-1 $454 $282 $451 $455 forward $385 $-1 #
coedge $-1 -1 $-1 $282 $454 $450 $456 reversed $385 $-1 #
loop $-1 -1 $-1 $-1 $383 $457 #
ellipse-curve $-1 -1 $-1 35.915599999999998 8.81239525796218e-016 5.0800000000000018 1.8817339400426386e-016 6.7305366155649224e-032 -1 -3.7464999999999988 -1.3400382962557716e-015 -7.0499162063697436e-016 1 I I #
point $-1 -1 $-1 39.662099999999995 0 5.0800000000000018 #
point $-1 -1 $-1 32.1691 -4.5879877045955359e-016 5.080000000000001 #
coedge $-1 -1 $-1 $313 $412 $315 $414 forward $291 $-1 #
coedge $-1 -1 $-1 $303 $292 $293 $394 reversed $194 $-1 #
coedge $-1 -1 $-1 $292 $303 $306 $408 reversed $194 $-1 #
coedge $-1 -1 $-1 $406 $294 $292 $393 forward $395 $-1 #
edge $-1 -1 $-1 $396 -27.800299999999996 $458 0 $292 $459 forward @7 unknown #
edge $-1 -1 $-1 $310 -22.720300000000002 $396 -17.957799999999999 $390 $429 forward @7 unknown #
loop $-1 -1 $-1 $-1 $406 $460 #
vertex $-1 -1 $-1 $295 $461 #
coedge $-1 -1 $-1 $462 $296 $299 $402 forward $399 $-1 #
coedge $-1 -1 $-1 $296 $462 $312 $411 reversed $399 $-1 #
loop $-1 -1 $-1 $-1 $397 $415 #
vertex $-1 -1 $-1 $297 $463 #
straight-curve $-1 -1 $-1 0 4.7624999999999993 13.900149999999998 -1 0 0 I I #
edge $-1 -1 $-1 $301 -27.800299999999996 $464 0 $397 $465 forward @7 unknown #
face $-1 -1 $-1 $460 $300 $23 $-1 $466 reversed single #
point $-1 -1 $-1 -17.957799999999999 4.7624999999999993 13.900149999999998 #
straight-curve $-1 -1 $-1 -22.720300000000002 -4.7624999999999993 0 0 0 -1 I I #
coedge $-1 -1 $-1 $316 $392 $305 $407 reversed $395 $-1 #
edge $-1 -1 $-1 $211 -1.5707963267948966 $458 0 $305 $467 forward @7 unknown #
edge $-1 -1 $-1 $458 17.957799999999999 $308 22.720300000000002 $391 $348 forward @7 unknown #
point $-1 -1 $-1 -22.720300000000002 -4.7624999999999993 -13.900149999999998 #
point $-1 -1 $-1 -22.720300000000002 -4.7624999999999993 13.900149999999998 #
edge $-1 -1 $-1 $400 -13.900149999999998 $413 13.900149999999998 $398 $468 forward @7 unknown #
coedge $-1 -1 $-1 $389 $313 $462 $469 forward $291 $-1 #
vertex $-1 -1 $-1 $469 $470 #
edge $-1 -1 $-1 $464 -3.1415926535897931 $211 -1.5707963267948966 $389 $467 forward @7 unknown #
face $-1 -1 $-1 $403 $399 $23 $-1 $131 reversed single #
loop $-1 -1 $-1 $-1 $327 $320 #
coedge $-1 -1 $-1 $323 $322 $424 $471 forward $130 $-1 #
coedge $-1 -1 $-1 $327 $423 $322 $419 forward $416 $-1 #
edge $-1 -1 $-1 $430 -22.720300000000002 $332 -17.957799999999999 $322 $401 forward @7 unknown #
edge $-1 -1 $-1 $421 -13.900149999999998 $346 13.900149999999998 $324 $472 forward @7 unknown #
vertex $-1 -1 $-1 $326 $473 #
straight-curve $-1 -1 $-1 22.720300000000002 0 13.900149999999998 0 1 0 I I #
coedge $-1 -1 $-1 $418 $327 $330 $344 forward $416 $-1 #
coedge $-1 -1 $-1 $330 $329 $417 $471 reversed $331 $-1 #
face $-1 -1 $-1 $-1 $331 $17 $-1 $83 reversed single #
point $-1 -1 $-1 17.957799999999999 4.7624999999999993 13.900149999999998 #
vertex $-1 -1 $-1 $335 $474 #
straight-curve $-1 -1 $-1 0 4.7624999999999993 -13.900149999999998 1 0 0 I I #
straight-curve $-1 -1 $-1 0 -4.7624999999999993 13.900149999999998 1 0 0 I I #
vertex $-1 -1 $-1 $344 $475 #
point $-1 -1 $-1 22.720300000000002 -4.7624999999999993 -13.900149999999998 #
straight-curve $-1 -1 $-1 -22.720300000000002 4.7624999999999993 0 0 0 -1 I I #
point $-1 -1 $-1 -22.720300000000002 -4.7624999999999993 -13.900149999999998 #
straight-curve $-1 -1 $-1 -22.720300000000002 0 -13.900149999999998 0 1 0 I I #
point $-1 -1 $-1 -22.720300000000002 4.7624999999999993 -13.900149999999998 #
model_id-kcp-attrib $-1 -1 $-1 $-1 $366 1 1021489761 1021489762 -2012348415 10 #
face $476 -1 $-1 $477 $478 $7 $-1 $479 forward single #
loop $-1 -1 $-1 $-1 $480 $366 #
cone-surface $-1 -1 $-1 0 0 5.0799999999999992 0 0 -1 -4.7624999999999993 0 0 1 I I 0 1 4.7624999999999993 forward I I I I #
coedge $-1 -1 $-1 $481 $482 $483 $484 forward $367 $-1 #
coedge $-1 -1 $-1 $372 $369 $482 $485 reversed $267 $-1 #
coedge $-1 -1 $-1 $371 $370 $369 $443 reversed $168 $-1 #
edge $-1 -1 $-1 $275 2.7765461802785993e-017 $486 3.1415926535897931 $369 $487 forward @7 unknown #
coedge $-1 -1 $-1 $480 $483 $370 $445 forward $438 $-1 #
edge $-1 -1 $-1 $486 0 $446 3.1415926535897931 $370 $488 forward @7 unknown #
vertex $-1 -1 $-1 $373 $489 #
ellipse-curve $-1 -1 $-1 17.957799999999999 1.1664375520158143e-015 5.0799999999999992 0 -1 0 22.720299999999998 0 2.8199664825478975e-015 1 I I #
ellipse-curve $-1 -1 $-1 35.915599999999998 -5.2874371547773072e-016 5.0800000000000018 -1.4802973661668753e-016 -1.6932134094404447e-033 1 -4.7624999999999993 -5.4475060530176363e-017 -7.0499162063697436e-016 1 I I #
point $-1 -1 $-1 40.678099999999993 1.1664375520158143e-015 5.0800000000000018 #
coedge $-1 -1 $-1 $490 $379 $384 $456 forward $452 $-1 #
coedge $-1 -1 $-1 $379 $490 $383 $455 reversed $452 $-1 #
loop $-1 -1 $-1 $-1 $450 $491 #
ellipse-curve $-1 -1 $-1 35.915599999999998 -5.2874371547773072e-016 5.0800000000000018 1.8817339400426386e-016 2.6556919658312942e-032 -1 3.7464999999999988 5.2874371547773072e-016 7.0499162063697436e-016 1 I I #
coedge $-1 -1 $-1 $384 $383 $492 $493 reversed $385 $-1 #
edge $-1 -1 $-1 $284 -7.161310129675757e-018 $494 3.1415926535897931 $451 $495 forward @7 unknown #
edge $-1 -1 $-1 $286 2.578044219222039e-017 $496 3.1415926535897931 $450 $497 forward @7 unknown #
face $498 -1 $-1 $188 $385 $7 $-1 $499 reversed single #
vertex $-1 -1 $-1 $408 $500 #
straight-curve $-1 -1 $-1 -17.957799999999999 -4.7624999999999993 -13.900149999999998 0 0 -1 I I #
face $-1 -1 $-1 $-1 $395 $23 $-1 $466 reversed single #
point $-1 -1 $-1 -17.957799999999999 -4.7624999999999993 13.900149999999998 #
coedge $-1 -1 $-1 $398 $397 $412 $469 reversed $399 $-1 #
point $-1 -1 $-1 -22.720300000000002 4.7624999999999993 13.900149999999998 #
vertex $-1 -1 $-1 $414 $501 #
straight-curve $-1 -1 $-1 -17.957799999999999 4.7624999999999993 -13.900149999999998 0 0 -1 I I #
cone-surface $-1 -1 $-1 -17.957799999999999 1.7763568394002505e-015 -13.900149999999998 0 0 -1 0 -4.7625000000000011 0 1 I I 0 1 4.7625000000000011 forward I I I I #
ellipse-curve $-1 -1 $-1 -17.957799999999999 1.7763568394002505e-015 -13.900149999999998 0 0 1 0 -4.7625000000000011 0 1 I I #
straight-curve $-1 -1 $-1 -22.720300000000002 4.7624999999999993 0 0 0 -1 I I #
edge $-1 -1 $-1 $413 -22.720300000000002 $464 -17.957799999999999 $462 $428 forward @7 unknown #
point $-1 -1 $-1 -22.720300000000002 4.7624999999999993 -13.900149999999998 #
edge $-1 -1 $-1 $430 -13.900149999999998 $427 13.900149999999998 $424 $502 forward @7 unknown #
straight-curve $-1 -1 $-1 22.720300000000002 -4.7624999999999993 0 0 0 -1 I I #
point $-1 -1 $-1 22.720300000000002 -4.7624999999999993 13.900149999999998 #
point $-1 -1 $-1 22.720300000000002 4.7624999999999993 -13.900149999999998 #
point $-1 -1 $-1 22.720300000000002 4.7624999999999993 13.900149999999998 #
model_id-kcp-attrib $-1 -1 $-1 $-1 $437 1 1021489761 1021489762 -2012348415 11 #
face $503 -1 $-1 $504 $505 $7 $-1 $506 forward single #
loop $-1 -1 $-1 $-1 $507 $437 #
torus-surface $-1 -1 $-1 0 0 0.25400000000000023 0 0 -1 4.5084999999999997 0.254 -1 0 0 forward_v I I I I #
coedge $-1 -1 $-1 $508 $444 $509 $510 forward $438 $-1 #
coedge $-1 -1 $-1 $509 $440 $511 $512 reversed $367 $-1 #
coedge $-1 -1 $-1 $440 $509 $441 $485 forward $367 $-1 #
coedge $-1 -1 $-1 $444 $508 $440 $484 reversed $438 $-1 #
edge $-1 -1 $-1 $486 0 $513 0.18999999999999997 $440 $514 forward @7 unknown #
edge $-1 -1 $-1 $446 0 $486 3.1415926535897931 $441 $515 forward @7 unknown #
vertex $-1 -1 $-1 $485 $516 #
ellipse-curve $-1 -1 $-1 17.957799999999999 -5.8321877600790713e-016 5.0799999999999992 0 -1 0 13.195299999999998 0 1.4099832412739487e-015 1 I I #
ellipse-curve $-1 -1 $-1 0 0 5.0799999999999992 0 0 -1 4.7624999999999993 5.8321877600790713e-016 0 1 I I #
point $-1 -1 $-1 -4.7624999999999993 0 5.0799999999999992 #
coedge $-1 -1 $-1 $451 $450 $517 $518 reversed $452 $-1 #
face $519 -1 $-1 $457 $452 $7 $-1 $520 reversed single #
coedge $-1 -1 $-1 $521 $522 $454 $493 forward $523 $-1 #
edge $-1 -1 $-1 $496 0 $494 3.1415926535897931 $454 $524 forward @7 unknown #
vertex $-1 -1 $-1 $455 $525 #
ellipse-curve $-1 -1 $-1 17.957799999999999 0 5.0799999999999992 0 -1 0 21.704299999999996 0 2.8199664825478975e-015 1 I I #
vertex $-1 -1 $-1 $518 $526 #
ellipse-curve $-1 -1 $-1 17.957799999999999 -4.5879877045955359e-016 5.0799999999999992 0 -1 0 14.2113 0 1.4099832412739487e-015 1 I I #
model_id-kcp-attrib $-1 -1 $-1 $-1 $457 1 1021489761 1021489762 -2012348415 17 #
torus-surface $-1 -1 $-1 17.957799999999999 0 5.0799999999999992 0 -1 0 17.957799999999999 3.7464999999999997 -1 0 0 forward_v I I I I #
point $-1 -1 $-1 -17.957799999999999 -4.7624999999999993 -13.900149999999998 #
point $-1 -1 $-1 -17.957799999999999 4.7624999999999993 -13.900149999999998 #
straight-curve $-1 -1 $-1 22.720300000000002 4.7624999999999993 0 0 0 -1 I I #
model_id-kcp-attrib $-1 -1 $-1 $-1 $477 1 1021489761 1021489762 -2012348415 12 #
face $527 -1 $-1 $528 $529 $7 $-1 $530 forward single #
loop $-1 -1 $-1 $-1 $531 $477 #
torus-surface $-1 -1 $-1 0 0 0.25400000000000023 0 0 -1 4.5084999999999997 0.254 -1 0 0 forward_v I I I I #
coedge $-1 -1 $-1 $532 $533 $534 $535 forward $478 $-1 #
coedge $-1 -1 $-1 $483 $480 $532 $536 reversed $438 $-1 #
coedge $-1 -1 $-1 $482 $481 $480 $510 reversed $367 $-1 #
edge $-1 -1 $-1 $446 0 $537 0.18999999999999997 $509 $538 forward @7 unknown #
coedge $-1 -1 $-1 $534 $531 $481 $512 forward $505 $-1 #
edge $-1 -1 $-1 $537 0 $513 3.1415926535897931 $481 $539 forward @7 unknown #
vertex $-1 -1 $-1 $512 $540 #
straight-curve $-1 -1 $-1 4.7624999999999993 5.8321877600790713e-016 5.0799999999999992 0 0 -25.399999999999999 I I #
ellipse-curve $-1 -1 $-1 0 0 5.0799999999999992 0 0 -1 -4.7624999999999993 0 0 1 I I #
point $-1 -1 $-1 4.7624999999999993 5.8321877600790713e-016 5.0799999999999992 #
coedge $-1 -1 $-1 $541 $542 $490 $518 forward $543 $-1 #
edge $-1 -1 $-1 $494 0 $496 3.1415926535897931 $490 $544 forward @7 unknown #
model_id-kcp-attrib $-1 -1 $-1 $-1 $491 1 1021489761 1021489762 -2012348415 16 #
torus-surface $-1 -1 $-1 17.957799999999999 0 5.0799999999999992 0 -1 0 17.957799999999999 3.7464999999999997 -1 0 0 forward_v I I I I #
coedge $-1 -1 $-1 $545 $492 $542 $546 forward $523 $-1 #
coedge $-1 -1 $-1 $492 $545 $541 $547 reversed $523 $-1 #
loop $-1 -1 $-1 $-1 $521 $528 #
ellipse-curve $-1 -1 $-1 0 0 5.0799999999999992 0 0 1 3.7464999999999997 4.5879877045955359e-016 0 1 I I #
point $-1 -1 $-1 -3.7464999999999997 -9.1759754091910718e-016 5.0799999999999992 #
point $-1 -1 $-1 3.7464999999999997 4.5879877045955359e-016 5.0799999999999992 #
model_id-kcp-attrib $-1 -1 $-1 $-1 $504 1 1021489761 1021489762 -2012348415 13 #
face $548 -1 $-1 $549 $523 $7 $-1 $550 reversed single #
loop $-1 -1 $-1 $551 $552 $504 #
plane-surface $-1 -1 $-1 0 0 0 0 0 -1 -25.399999999999999 0 0 forward_v I I I I #
coedge $-1 -1 $-1 $511 $553 $554 $555 forward $505 $-1 #
coedge $-1 -1 $-1 $554 $507 $508 $536 forward $478 $-1 #
coedge $-1 -1 $-1 $507 $554 $552 $556 reversed $478 $-1 #
coedge $-1 -1 $-1 $553 $511 $507 $535 reversed $505 $-1 #
edge $-1 -1 $-1 $557 -7.2120787032736527e-016 $513 1.5707963267948988 $534 $558 forward @7 unknown #
edge $-1 -1 $-1 $513 -1.7390035179609112e-032 $537 3.1415926535897931 $508 $559 forward @7 unknown #
vertex $-1 -1 $-1 $510 $560 #
straight-curve $-1 -1 $-1 -4.7624999999999993 0 5.0799999999999992 0 0 -25.399999999999999 I I #
ellipse-curve $-1 -1 $-1 0 0 0.25400000000000023 0 0 -1 -4.7624999999999993 0 0 1 I I #
point $-1 -1 $-1 4.7624999999999993 5.8321877600790713e-016 0.25400000000000023 #
coedge $-1 -1 $-1 $561 $517 $522 $547 forward $543 $-1 #
coedge $-1 -1 $-1 $517 $561 $521 $546 reversed $543 $-1 #
loop $-1 -1 $-1 $-1 $541 $549 #
ellipse-curve $-1 -1 $-1 0 0 5.0799999999999992 0 0 1 -3.7464999999999997 -9.1759754091910718e-016 0 1 I I #
coedge $-1 -1 $-1 $522 $521 $562 $563 reversed $523 $-1 #
edge $-1 -1 $-1 $494 6.5253987158285752e-033 $564 0.19999999999999998 $542 $565 forward @7 unknown #
edge $-1 -1 $-1 $496 0 $566 0.19999999999999998 $541 $567 forward @7 unknown #
model_id-kcp-attrib $-1 -1 $-1 $-1 $528 1 1021489761 1021489762 -2012348415 14 #
face $568 -1 $-1 $491 $543 $7 $-1 $569 reversed single #
cone-surface $-1 -1 $-1 0 0 5.0799999999999992 0 0 -1 -3.7464999999999997 0 0 1 I I 0 1 3.7464999999999997 forward I I I I #
loop $-1 -1 $-1 $-1 $562 $504 #
coedge $-1 -1 $-1 $570 $570 $533 $556 forward $529 $-1 #
coedge $-1 -1 $-1 $531 $534 $570 $571 reversed $505 $-1 #
coedge $-1 -1 $-1 $533 $532 $531 $555 reversed $478 $-1 #
edge $-1 -1 $-1 $572 -7.2120787032736606e-016 $537 1.5707963267948988 $531 $573 forward @7 unknown #
edge $-1 -1 $-1 $557 0 $572 3.1415926535897931 $552 $574 forward @7 unknown #
vertex $-1 -1 $-1 $571 $575 #
ellipse-curve $-1 -1 $-1 4.5085000000000006 5.5211377462081855e-016 0.25400000000000039 1.2246063538223787e-016 -1 -9.561941247328812e-031 -7.0499162063697436e-016 1.5653958587979452e-031 -0.25400000000000017 1 I I #
ellipse-curve $-1 -1 $-1 0 0 0.25400000000000023 0 0 -1 4.7624999999999993 5.8321877600790703e-016 0 1 I I #
point $-1 -1 $-1 -4.7624999999999993 0 0.25400000000000023 #
coedge $-1 -1 $-1 $542 $541 $576 $577 reversed $543 $-1 #
coedge $-1 -1 $-1 $576 $576 $545 $563 forward $551 $-1 #
edge $-1 -1 $-1 $566 0 $564 3.1415926535897931 $562 $578 forward @7 unknown #
vertex $-1 -1 $-1 $577 $579 #
straight-curve $-1 -1 $-1 -3.7464999999999997 0 5.0799999999999992 0 -4.5879877045955363e-015 -25.399999999999999 I I #
vertex $-1 -1 $-1 $577 $580 #
straight-curve $-1 -1 $-1 3.7464999999999997 4.5879877045955359e-016 5.0799999999999992 0 0 -25.399999999999999 I I #
model_id-kcp-attrib $-1 -1 $-1 $-1 $549 1 1021489761 1021489762 -2012348415 15 #
cone-surface $-1 -1 $-1 0 0 5.0799999999999992 0 0 -1 -3.7464999999999997 0 0 1 I I 0 1 3.7464999999999997 forward I I I I #
coedge $-1 -1 $-1 $552 $552 $553 $571 forward $529 $-1 #
edge $-1 -1 $-1 $572 -1.4832027368897558e-065 $557 3.1415926535897931 $570 $581 forward @7 unknown #
vertex $-1 -1 $-1 $571 $582 #
ellipse-curve $-1 -1 $-1 -4.5085000000000006 -1.1042275492416371e-015 0.25400000000000039 -2.4492127076447575e-016 1 -1.9123882494657624e-030 7.0499162063697436e-016 -3.1307917175958904e-031 -0.25400000000000017 1 I I #
ellipse-curve $-1 -1 $-1 0 0 0 4.8865450027515689e-017 5.9840940586085569e-033 -1 4.5084999999999997 5.5211377462081874e-016 2.203098814490545e-016 1 I I #
point $-1 -1 $-1 4.5084999999999997 5.5211377462081874e-016 2.203098814490545e-016 #
coedge $-1 -1 $-1 $562 $562 $561 $577 forward $551 $-1 #
edge $-1 -1 $-1 $564 0 $566 3.1415926535897931 $576 $583 forward @7 unknown #
ellipse-curve $-1 -1 $-1 0 0 0 0 0 1 3.7464999999999997 0 0 1 I I #
point $-1 -1 $-1 -3.7464999999999997 0 0 #
point $-1 -1 $-1 3.7464999999999997 0 0 #
ellipse-curve $-1 -1 $-1 0 1.7624790515924359e-016 0 -4.8865450027515689e-017 -1.9102657651133069e-033 -1 -4.5084999999999997 -1.7624790515924359e-016 2.203098814490545e-016 1 I I #
point $-1 -1 $-1 -4.5084999999999997 0 2.203098814490545e-016 #
ellipse-curve $-1 -1 $-1 0 0 0 0 0 1 -3.7464999999999997 0 0 1 I I #
End-of-ACIS-data 