600 0 1 0           
90 GICL Pro/E ACIS Translator - Source: f:/data5/repository/PTC/V18/piping18/elbow2.prt - 6 0 13 ACIS 6.0.3 NT 24 Thu Apr 04 09:57:59 2002 
1 9.9999999999999995e-007 1e-010 
body $-1 $1 $-1 $2 #
lump $-1 $-1 $3 $0 #
transform $-1 1 0 0 0 1 0 0 0 1 0 0 0 25.399999999999999 no_rotate no_reflect no_shear #
shell $-1 $-1 $-1 $4 $-1 $1 #
face $-1 $5 $6 $3 $-1 $7 reversed single #
face $-1 $8 $9 $3 $-1 $10 forward single #
loop $-1 $11 $12 $4 #
plane-surface $-1 1.4139999999999999 0 0 0 0 1 1 0 0 forward_v I I I I #
face $-1 $13 $14 $3 $-1 $15 forward single #
loop $-1 $-1 $16 $5 #
torus-surface $-1 1.4139999999999999 0 0.01 0 0 1 0.17749999999999999 0.01 1 0 0 forward_v I I I I #
loop $-1 $-1 $17 $4 #
coedge $-1 $18 $18 $19 $20 reversed $6 $-1 #
face $-1 $21 $22 $3 $-1 $23 forward single #
loop $-1 $-1 $24 $8 #
torus-surface $-1 1.4139999999999999 0 0.01 0 0 1 0.17749999999999999 0.01 1 0 0 forward_v I I I I #
coedge $-1 $25 $19 $26 $27 forward $9 $-1 #
coedge $-1 $28 $28 $29 $30 reversed $11 $-1 #
coedge $-1 $12 $12 $31 $32 reversed $6 $-1 #
coedge $-1 $16 $33 $12 $20 forward $9 $-1 #
edge $-1 $34 0 $35 3.1415926535897944 $12 $36 forward 7 unknown #
face $-1 $37 $38 $3 $-1 $39 forward single #
loop $-1 $-1 $40 $13 #
cone-surface $-1 1.4139999999999999 0 0 0 0 1 0.1875 0 0 1 I I 0 1 0.1875 forward I I I I #
coedge $-1 $41 $31 $33 $42 forward $14 $-1 #
coedge $-1 $33 $16 $43 $44 reversed $9 $-1 #
coedge $-1 $31 $41 $16 $27 reversed $14 $-1 #
edge $-1 $35 -1.0647591124937101e-030 $45 1.570796326794895 $26 $46 forward 7 unknown #
coedge $-1 $17 $17 $47 $48 reversed $11 $-1 #
coedge $-1 $49 $50 $17 $30 forward $51 $-1 #
edge $-1 $52 0 $53 3.1415926535897931 $17 $54 forward 7 unknown #
coedge $-1 $24 $26 $18 $32 forward $14 $-1 #
edge $-1 $35 0 $34 3.1415926535897944 $18 $55 forward 7 unknown #
coedge $-1 $19 $25 $24 $42 reversed $9 $-1 #
vertex $-1 $32 $56 #
vertex $-1 $32 $57 #
ellipse-curve $-1 1.4139999999999999 -1.1102230246251565e-016 0 0 0 1 -0.17749999999999999 1.3275906524286284e-016 0 1 I I #
face $-1 $58 $59 $3 $-1 $60 forward single #
loop $-1 $-1 $61 $21 #
cone-surface $-1 1.4139999999999999 0 0 0 0 1 0.1875 0 0 1 I I 0 1 0.1875 forward I I I I #
coedge $-1 $62 $63 $64 $65 forward $22 $-1 #
coedge $-1 $26 $24 $63 $66 reversed $14 $-1 #
edge $-1 $34 0 $67 1.570796326794895 $24 $68 forward 7 unknown #
coedge $-1 $61 $64 $25 $44 forward $38 $-1 #
edge $-1 $67 0 $45 3.1415926535897931 $43 $69 forward 7 unknown #
vertex $-1 $66 $70 #
ellipse-curve $-1 1.5914999999999999 -4.3473525560694389e-017 0.010000000000000016 -2.4492127076447412e-016 -1 0 0 0 -0.010000000000000016 1 I I #
coedge $-1 $71 $72 $28 $48 forward $73 $-1 #
edge $-1 $53 0 $52 3.1415926535897931 $28 $74 forward 7 unknown #
coedge $-1 $75 $29 $72 $76 forward $51 $-1 #
coedge $-1 $29 $75 $71 $77 reversed $51 $-1 #
loop $-1 $-1 $49 $78 #
vertex $-1 $48 $79 #
vertex $-1 $48 $80 #
ellipse-curve $-1 1.4139999999999999 0 0 0 0 -1 -0.14749999999999996 0 0 1 I I #
ellipse-curve $-1 1.4139999999999999 1.3183898417423734e-016 0 0 0 1 0.17749999999999999 -1.3183898417423734e-016 0 1 I I #
point $-1 1.2364999999999999 2.1736762780347195e-017 0 #
point $-1 1.5914999999999999 0 0 #
face $-1 $81 $82 $3 $-1 $83 forward single #
loop $-1 $-1 $84 $37 #
torus-surface $-1 0.70699999999999996 0 0.19999999999999998 0 -1 0 0.70699999999999996 0.1875 -1 0 0 forward_v I I I I #
coedge $-1 $85 $43 $86 $87 forward $38 $-1 #
coedge $-1 $86 $40 $88 $89 reversed $22 $-1 #
coedge $-1 $40 $86 $41 $66 forward $22 $-1 #
coedge $-1 $43 $85 $40 $65 reversed $38 $-1 #
edge $-1 $67 -1.7347234759768071e-018 $90 0.19000000000000003 $40 $91 forward 7 unknown #
edge $-1 $45 0 $67 3.1415926535897931 $63 $92 forward 7 unknown #
vertex $-1 $66 $93 #
ellipse-curve $-1 1.2364999999999999 2.1736762780347195e-017 0.010000000000000016 1.2246063538223706e-016 1 0 0 0 -0.010000000000000016 1 I I #
ellipse-curve $-1 1.4139999999999999 0 0.01 0 0 1 -0.1875 2.2961369134169571e-017 0 1 I I #
point $-1 1.6014999999999999 0 0.01 #
coedge $-1 $94 $47 $50 $77 forward $73 $-1 #
coedge $-1 $47 $94 $49 $76 reversed $73 $-1 #
loop $-1 $-1 $71 $95 #
ellipse-curve $-1 1.4139999999999999 0 0 0 0 -1 0.14749999999999996 0 0 1 I I #
coedge $-1 $50 $49 $96 $97 reversed $51 $-1 #
edge $-1 $53 0 $98 0.20000000000000009 $72 $99 forward 7 unknown #
edge $-1 $52 0 $100 0.20000000000000004 $71 $101 forward 7 unknown #
face $-1 $95 $51 $3 $-1 $102 reversed single #
point $-1 1.2665 0 0 #
point $-1 1.5614999999999999 0 0 #
face $-1 $103 $104 $3 $-1 $105 forward single #
loop $-1 $-1 $106 $58 #
torus-surface $-1 0.70699999999999996 0 0.19999999999999998 0 -1 0 0.70699999999999996 0.1875 -1 0 0 forward_v I I I I #
coedge $-1 $107 $108 $109 $110 forward $59 $-1 #
coedge $-1 $64 $61 $108 $111 reversed $38 $-1 #
coedge $-1 $63 $62 $61 $87 reversed $22 $-1 #
edge $-1 $45 -1.7347234759768071e-018 $112 0.19000000000000009 $86 $113 forward 7 unknown #
coedge $-1 $106 $109 $62 $89 forward $82 $-1 #
edge $-1 $112 0 $90 3.1415926535897931 $62 $114 forward 7 unknown #
vertex $-1 $89 $115 #
straight-curve $-1 1.2264999999999999 2.2961369134169574e-017 0.010000000000000002 0 0 1 I I #
ellipse-curve $-1 1.4139999999999999 0 0.01 0 0 1 0.1875 0 0 1 I I #
point $-1 1.2264999999999999 2.2961369134169571e-017 0.01 #
coedge $-1 $72 $71 $116 $117 reversed $73 $-1 #
face $-1 $-1 $73 $3 $-1 $118 reversed single #
coedge $-1 $119 $120 $75 $97 forward $121 $-1 #
edge $-1 $100 0 $98 3.1415926535897936 $75 $122 forward 7 unknown #
vertex $-1 $76 $123 #
straight-curve $-1 1.5614999999999999 0 0 0 -1.8062943718880065e-016 1 I I #
vertex $-1 $117 $124 #
straight-curve $-1 1.2665 1.8062943718880064e-017 0 0 0 1 I I #
cone-surface $-1 1.4139999999999999 0 0 0 0 1 0.14749999999999999 0 0 1 I I 0 1 0.14749999999999999 forward I I I I #
face $-1 $125 $126 $3 $-1 $127 forward single #
loop $-1 $-1 $128 $81 #
cone-surface $-1 0 0 0.19999999999999998 0 0 -1 -0.1875 0 0 1 I I 0 1 0.1875 forward I I I I #
coedge $-1 $129 $88 $130 $131 forward $82 $-1 #
coedge $-1 $130 $84 $132 $133 reversed $59 $-1 #
coedge $-1 $84 $130 $85 $111 forward $59 $-1 #
coedge $-1 $88 $129 $84 $110 reversed $82 $-1 #
edge $-1 $112 0 $134 3.1415926535897931 $109 $135 forward 7 unknown #
edge $-1 $90 0 $112 3.1415926535897931 $85 $136 forward 7 unknown #
vertex $-1 $87 $137 #
straight-curve $-1 1.6014999999999999 0 0.010000000000000002 0 0 1 I I #
ellipse-curve $-1 1.4139999999999999 -6.9388939039072284e-018 0.20000000000000007 -1.4802973661668753e-016 -4.1733831933791188e-032 1 0.1875 5.2861632172246376e-017 2.7755575615628914e-017 1 I I #
point $-1 1.2264999999999999 -2.2961369134169574e-017 0.20000000000000004 #
coedge $-1 $138 $139 $94 $117 forward $140 $-1 #
edge $-1 $98 0 $100 3.1415926535897931 $94 $141 forward 7 unknown #
cone-surface $-1 1.4139999999999999 0 0 0 0 1 0.14749999999999999 0 0 1 I I 0 1 0.14749999999999999 forward I I I I #
coedge $-1 $142 $96 $139 $143 forward $121 $-1 #
coedge $-1 $96 $142 $138 $144 reversed $121 $-1 #
loop $-1 $-1 $119 $145 #
ellipse-curve $-1 1.4139999999999999 3.4694469519536142e-017 0.20000000000000007 1.8817339400426386e-016 6.7305366155649224e-032 -1 -0.14749999999999996 -5.2757413238416206e-017 -2.7755575615628914e-017 1 I I #
point $-1 1.5614999999999999 0 0.20000000000000009 #
point $-1 1.2665 -1.8062943718880064e-017 0.20000000000000004 #
face $-1 $146 $147 $3 $-1 $148 forward single #
loop $-1 $-1 $149 $103 #
cone-surface $-1 0 0 0.19999999999999998 0 0 -1 -0.1875 0 0 1 I I 0 1 0.1875 forward I I I I #
coedge $-1 $150 $151 $152 $153 forward $104 $-1 #
coedge $-1 $109 $106 $151 $154 reversed $82 $-1 #
coedge $-1 $108 $107 $106 $131 reversed $59 $-1 #
edge $-1 $90 0 $155 3.1415926535897931 $106 $156 forward 7 unknown #
coedge $-1 $149 $152 $107 $133 forward $126 $-1 #
edge $-1 $155 0 $134 3.1415926535897931 $107 $157 forward 7 unknown #
vertex $-1 $110 $158 #
ellipse-curve $-1 0.70699999999999996 4.5922738268339147e-017 0.19999999999999998 0 -1 0 0.89449999999999996 0 1.1102230246251565e-016 1 I I #
ellipse-curve $-1 1.4139999999999999 -2.0816681711721685e-017 0.20000000000000007 -1.4802973661668753e-016 -1.6932134094404447e-033 1 -0.1875 -2.1446874224478885e-018 -2.7755575615628914e-017 1 I I #
point $-1 1.6014999999999999 4.5922738268339147e-017 0.20000000000000009 #
coedge $-1 $159 $116 $120 $144 forward $140 $-1 #
coedge $-1 $116 $159 $119 $143 reversed $140 $-1 #
loop $-1 $-1 $138 $160 #
ellipse-curve $-1 1.4139999999999999 -2.0816681711721685e-017 0.20000000000000007 1.8817339400426386e-016 2.6556919658312942e-032 -1 0.14749999999999996 2.0816681711721685e-017 2.7755575615628914e-017 1 I I #
coedge $-1 $120 $119 $161 $162 reversed $121 $-1 #
edge $-1 $98 0 $163 3.1415926535897931 $139 $164 forward 7 unknown #
edge $-1 $100 0 $165 3.1415926535897931 $138 $166 forward 7 unknown #
face $-1 $78 $121 $3 $-1 $167 reversed single #
face $-1 $168 $169 $3 $-1 $170 forward single #
loop $-1 $-1 $171 $125 #
torus-surface $-1 0 0 0.010000000000000009 0 0 -1 0.17749999999999999 0.01 -1 0 0 forward_v I I I I #
coedge $-1 $172 $132 $173 $174 forward $126 $-1 #
coedge $-1 $173 $128 $175 $176 reversed $104 $-1 #
coedge $-1 $128 $173 $129 $154 forward $104 $-1 #
coedge $-1 $132 $172 $128 $153 reversed $126 $-1 #
edge $-1 $155 0 $177 0.18999999999999997 $128 $178 forward 7 unknown #
edge $-1 $134 0 $155 3.1415926535897931 $129 $179 forward 7 unknown #
vertex $-1 $154 $180 #
ellipse-curve $-1 0.70699999999999996 -2.2961369134169574e-017 0.19999999999999998 0 -1 0 0.51949999999999996 0 5.5511151231257827e-017 1 I I #
ellipse-curve $-1 0 0 0.19999999999999998 0 0 -1 0.1875 2.2961369134169574e-017 0 1 I I #
point $-1 -0.1875 0 0.19999999999999998 #
coedge $-1 $139 $138 $181 $182 reversed $140 $-1 #
face $-1 $145 $140 $3 $-1 $183 reversed single #
coedge $-1 $184 $185 $142 $162 forward $186 $-1 #
edge $-1 $165 0 $163 3.1415926535897931 $142 $187 forward 7 unknown #
vertex $-1 $143 $188 #
ellipse-curve $-1 0.70699999999999996 0 0.19999999999999998 0 -1 0 0.85449999999999993 0 1.1102230246251565e-016 1 I I #
vertex $-1 $182 $189 #
ellipse-curve $-1 0.70699999999999996 -1.8062943718880064e-017 0.19999999999999998 0 -1 0 0.5595 0 5.5511151231257827e-017 1 I I #
torus-surface $-1 0.70699999999999996 0 0.19999999999999998 0 -1 0 0.70699999999999996 0.14749999999999999 -1 0 0 forward_v I I I I #
face $-1 $190 $191 $3 $-1 $192 forward single #
loop $-1 $-1 $193 $146 #
torus-surface $-1 0 0 0.010000000000000009 0 0 -1 0.17749999999999999 0.01 -1 0 0 forward_v I I I I #
coedge $-1 $194 $195 $196 $197 forward $147 $-1 #
coedge $-1 $152 $149 $194 $198 reversed $126 $-1 #
coedge $-1 $151 $150 $149 $174 reversed $104 $-1 #
edge $-1 $134 0 $199 0.18999999999999997 $173 $200 forward 7 unknown #
coedge $-1 $196 $193 $150 $176 forward $169 $-1 #
edge $-1 $199 0 $177 3.1415926535897931 $150 $201 forward 7 unknown #
vertex $-1 $176 $202 #
straight-curve $-1 0.1875 2.2961369134169574e-017 0.19999999999999998 0 0 -1 I I #
ellipse-curve $-1 0 0 0.19999999999999998 0 0 -1 -0.1875 0 0 1 I I #
point $-1 0.1875 2.2961369134169574e-017 0.19999999999999998 #
coedge $-1 $203 $204 $159 $182 forward $205 $-1 #
edge $-1 $163 0 $165 3.1415926535897931 $159 $206 forward 7 unknown #
torus-surface $-1 0.70699999999999996 0 0.19999999999999998 0 -1 0 0.70699999999999996 0.14749999999999999 -1 0 0 forward_v I I I I #
coedge $-1 $207 $161 $204 $208 forward $186 $-1 #
coedge $-1 $161 $207 $203 $209 reversed $186 $-1 #
loop $-1 $-1 $184 $190 #
ellipse-curve $-1 0 0 0.19999999999999998 0 0 1 0.14749999999999999 1.8062943718880064e-017 0 1 I I #
point $-1 -0.14749999999999999 -3.6125887437760128e-017 0.19999999999999998 #
point $-1 0.14749999999999999 1.8062943718880064e-017 0.19999999999999998 #
face $-1 $210 $186 $3 $-1 $211 reversed single #
loop $-1 $212 $213 $168 #
plane-surface $-1 0 0 0 0 0 -1 -1 0 0 forward_v I I I I #
coedge $-1 $175 $214 $215 $216 forward $169 $-1 #
coedge $-1 $215 $171 $172 $198 forward $147 $-1 #
coedge $-1 $171 $215 $213 $217 reversed $147 $-1 #
coedge $-1 $214 $175 $171 $197 reversed $169 $-1 #
edge $-1 $218 0 $177 1.5707963267948988 $196 $219 forward 7 unknown #
edge $-1 $177 -2.1912802922805882e-032 $199 3.1415926535897931 $172 $220 forward 7 unknown #
vertex $-1 $174 $221 #
straight-curve $-1 -0.1875 0 0.19999999999999998 0 0 -1 I I #
ellipse-curve $-1 0 0 0.010000000000000009 0 0 -1 -0.1875 0 0 1 I I #
point $-1 0.1875 2.2961369134169574e-017 0.010000000000000009 #
coedge $-1 $222 $181 $185 $209 forward $205 $-1 #
coedge $-1 $181 $222 $184 $208 reversed $205 $-1 #
loop $-1 $-1 $203 $210 #
ellipse-curve $-1 0 0 0.19999999999999998 0 0 1 -0.14749999999999999 -3.6125887437760128e-017 0 1 I I #
coedge $-1 $185 $184 $223 $224 reversed $186 $-1 #
edge $-1 $163 6.5253987158285752e-033 $225 0.19999999999999998 $204 $226 forward 7 unknown #
edge $-1 $165 0 $227 0.19999999999999998 $203 $228 forward 7 unknown #
face $-1 $160 $205 $3 $-1 $229 reversed single #
cone-surface $-1 0 0 0.19999999999999998 0 0 -1 -0.14749999999999999 0 0 1 I I 0 1 0.14749999999999999 forward I I I I #
loop $-1 $-1 $223 $168 #
coedge $-1 $230 $230 $195 $217 forward $191 $-1 #
coedge $-1 $193 $196 $230 $231 reversed $169 $-1 #
coedge $-1 $195 $194 $193 $216 reversed $147 $-1 #
edge $-1 $232 -1.4444474582904248e-030 $199 1.5707963267948988 $193 $233 forward 7 unknown #
edge $-1 $218 0 $232 3.1415926535897931 $213 $234 forward 7 unknown #
vertex $-1 $231 $235 #
ellipse-curve $-1 0.17750000000000002 2.1736762780347188e-017 0.010000000000000016 1.2246063538223787e-016 -1 -9.561941247328812e-031 -2.7755575615628914e-017 6.1629758220391547e-033 -0.010000000000000007 1 I I #
ellipse-curve $-1 0 0 0.010000000000000009 0 0 -1 0.1875 2.2961369134169571e-017 0 1 I I #
point $-1 -0.1875 0 0.010000000000000009 #
coedge $-1 $204 $203 $236 $237 reversed $205 $-1 #
coedge $-1 $236 $236 $207 $224 forward $212 $-1 #
edge $-1 $227 0 $225 3.1415926535897931 $223 $238 forward 7 unknown #
vertex $-1 $237 $239 #
straight-curve $-1 -0.14749999999999999 0 0.19999999999999998 0 -1.8062943718880065e-016 -1 I I #
vertex $-1 $237 $240 #
straight-curve $-1 0.14749999999999999 1.8062943718880064e-017 0.19999999999999998 0 0 -1 I I #
cone-surface $-1 0 0 0.19999999999999998 0 0 -1 -0.14749999999999999 0 0 1 I I 0 1 0.14749999999999999 forward I I I I #
coedge $-1 $213 $213 $214 $231 forward $191 $-1 #
edge $-1 $232 0 $218 3.1415926535897931 $230 $241 forward 7 unknown #
vertex $-1 $231 $242 #
ellipse-curve $-1 -0.17750000000000002 -4.3473525560694377e-017 0.010000000000000016 -2.4492127076447575e-016 1 -1.9123882494657624e-030 2.7755575615628914e-017 -1.2325951644078309e-032 -0.010000000000000007 1 I I #
ellipse-curve $-1 0 0 0 4.8865450027515689e-017 5.9840940586085569e-033 -1 0.17749999999999999 2.1736762780347195e-017 8.6736173798840355e-018 1 I I #
point $-1 0.17749999999999999 2.1736762780347195e-017 8.6736173798840355e-018 #
coedge $-1 $223 $223 $222 $237 forward $212 $-1 #
edge $-1 $225 0 $227 3.1415926535897931 $236 $243 forward 7 unknown #
ellipse-curve $-1 0 0 0 0 0 1 0.14749999999999999 0 0 1 I I #
point $-1 -0.14749999999999999 0 0 #
point $-1 0.14749999999999999 0 0 #
ellipse-curve $-1 0 6.9388939039072284e-018 0 -4.8865450027515689e-017 -1.9102657651133069e-033 -1 -0.17749999999999999 -6.9388939039072284e-018 8.6736173798840355e-018 1 I I #
point $-1 -0.17749999999999999 0 8.6736173798840355e-018 #
ellipse-curve $-1 0 0 0 0 0 1 -0.14749999999999999 0 0 1 I I #
End-of-ACIS-data 