700 0 2 0           
24 FBMach with ACIS - 7.0.3 13 ACIS 7.0.3 NT 24 Wed May 15 14:53:05 2002 
1 9.9999999999999995e-007 1e-010 
body $2 -1 $-1 $3 $-1 $-1 #
bdycol-kcp $-1 -1 1 1 $4 #
model_id-kcp-attrib $-1 -1 $-1 $-1 $0 1 1021488785 1021488785 1758199809 1 #
lump $-1 -1 $-1 $-1 $5 $0 #
body $6 -1 $-1 $7 $-1 $8 #
shell $-1 -1 $-1 $-1 $-1 $9 $-1 $3 #
model_id-kcp-attrib $-1 -1 $-1 $-1 $4 1 1021488785 1021488785 1759510530 1 #
lump $-1 -1 $-1 $-1 $10 $4 #
transform $-1 -1 1 0 0 0 1 0 0 0 1 38.099999999999994 25.399999999999999 -202.43816035762578 1 no_rotate no_reflect no_shear #
face $11 -1 $-1 $12 $13 $5 $-1 $14 forward single #
shell $-1 -1 $-1 $-1 $-1 $15 $-1 $7 #
model_id-kcp-attrib $-1 -1 $-1 $-1 $9 1 1021488785 1021488785 1758199809 2 #
face $16 -1 $-1 $17 $18 $5 $-1 $19 forward single #
loop $-1 -1 $-1 $-1 $20 $9 #
cone-surface $-1 -1 $-1 50.799999999999997 25.399999999999999 3.1749999999999998 0 0 -1 -4.7624999999999993 0 0 1 I I 0 1 4.7624999999999993 forward I I I I #
face $-1 -1 $-1 $21 $22 $10 $-1 $23 forward single #
model_id-kcp-attrib $-1 -1 $-1 $-1 $12 1 1021488785 1021488785 1758199809 3 #
face $24 -1 $-1 $25 $26 $5 $-1 $27 forward single #
loop $-1 -1 $-1 $-1 $28 $12 #
cone-surface $-1 -1 $-1 50.799999999999997 25.399999999999999 3.1749999999999998 0 0 -1 -4.7624999999999993 0 0 1 I I 0 1 4.7624999999999993 forward I I I I #
coedge $-1 -1 $-1 $29 $30 $31 $32 forward $13 $-1 #
face $-1 -1 $-1 $33 $34 $10 $-1 $35 reversed single #
loop $-1 -1 $-1 $-1 $36 $15 #
plane-surface $-1 -1 $-1 0 0 211.8993396423742 0 0 1 1 0 0 forward_v I I I I #
model_id-kcp-attrib $-1 -1 $-1 $-1 $17 1 1021488785 1021488785 1758199809 4 #
face $37 -1 $-1 $38 $39 $5 $-1 $40 forward single #
loop $-1 -1 $-1 $-1 $41 $17 #
torus-surface $-1 -1 $-1 38.099999999999994 25.399999999999999 -396.875 0 1 0 12.699999999999999 4.7624999999999993 -1 0 0 forward_v I I I I #
coedge $-1 -1 $-1 $42 $43 $44 $45 forward $18 $-1 #
coedge $-1 -1 $-1 $44 $20 $46 $47 reversed $13 $-1 #
coedge $-1 -1 $-1 $20 $44 $48 $49 reversed $13 $-1 #
coedge $-1 -1 $-1 $43 $42 $20 $32 reversed $18 $-1 #
edge $-1 -1 $-1 $50 0 $51 15.750000000000002 $20 $52 forward @7 unknown #
face $-1 -1 $-1 $53 $54 $10 $-1 $55 reversed single #
loop $-1 -1 $-1 $-1 $56 $21 #
plane-surface $-1 -1 $-1 0 0 -211.8993396423742 0 0 1 1 0 0 forward_v I I I I #
coedge $-1 -1 $-1 $57 $58 $59 $60 forward $22 $-1 #
model_id-kcp-attrib $-1 -1 $-1 $-1 $25 1 1021488785 1021488785 1758199809 5 #
face $61 -1 $-1 $62 $63 $5 $-1 $64 forward single #
loop $-1 -1 $-1 $-1 $65 $25 #
torus-surface $-1 -1 $-1 38.099999999999994 25.399999999999999 -396.875 0 1 0 12.699999999999999 4.7624999999999993 -1 0 0 forward_v I I I I #
coedge $-1 -1 $-1 $66 $67 $68 $69 forward $26 $-1 #
coedge $-1 -1 $-1 $31 $28 $67 $70 reversed $18 $-1 #
coedge $-1 -1 $-1 $28 $31 $71 $72 reversed $18 $-1 #
coedge $-1 -1 $-1 $30 $29 $28 $45 reversed $13 $-1 #
edge $-1 -1 $-1 $73 0 $74 15.750000000000002 $44 $75 forward @7 unknown #
coedge $-1 -1 $-1 $65 $68 $29 $47 forward $39 $-1 #
edge $-1 -1 $-1 $74 1.5385767900317078e-016 $51 3.1415926535897918 $29 $76 forward @7 unknown #
coedge $-1 -1 $-1 $77 $78 $30 $49 forward $79 $-1 #
edge $-1 -1 $-1 $50 0 $73 3.1415926535897931 $30 $80 forward @7 unknown #
vertex $-1 -1 $-1 $49 $81 #
vertex $-1 -1 $-1 $47 $82 #
straight-curve $-1 -1 $-1 55.5625 25.399999999999999 3.1749999999999998 0 0 -25.399999999999999 I I #
face $-1 -1 $-1 $83 $84 $10 $-1 $85 reversed single #
loop $-1 -1 $-1 $-1 $86 $33 #
plane-surface $-1 -1 $-1 0 -6.9943463273585067 0 0 1 0 0 0 1 forward_v I I I I #
coedge $-1 -1 $-1 $87 $88 $89 $90 forward $34 $-1 #
coedge $-1 -1 $-1 $91 $36 $92 $93 forward $22 $-1 #
coedge $-1 -1 $-1 $36 $91 $94 $95 forward $22 $-1 #
coedge $-1 -1 $-1 $96 $97 $36 $60 reversed $98 $-1 #
edge $-1 -1 $-1 $99 -6.9943463273585067 $100 6.9943463273585067 $59 $101 forward @7 unknown #
model_id-kcp-attrib $-1 -1 $-1 $-1 $38 1 1021488785 1021488785 1758199809 6 #
face $102 -1 $-1 $103 $104 $5 $-1 $105 forward single #
loop $-1 -1 $-1 $-1 $106 $38 #
cone-surface $-1 -1 $-1 25.399999999999999 25.399999999999999 -396.875 0 0 1 4.7624999999999993 0 0 1 I I 0 1 4.7624999999999993 forward I I I I #
coedge $-1 -1 $-1 $107 $46 $108 $109 forward $39 $-1 #
coedge $-1 -1 $-1 $108 $41 $110 $111 reversed $26 $-1 #
coedge $-1 -1 $-1 $41 $108 $42 $70 forward $26 $-1 #
coedge $-1 -1 $-1 $46 $107 $41 $69 reversed $39 $-1 #
edge $-1 -1 $-1 $74 0 $112 3.1415926535897931 $68 $113 forward @7 unknown #
edge $-1 -1 $-1 $51 0 $74 3.1415926535897931 $42 $114 forward @7 unknown #
coedge $-1 -1 $-1 $115 $116 $43 $72 forward $117 $-1 #
edge $-1 -1 $-1 $73 0 $50 3.1415926535897931 $43 $118 forward @7 unknown #
vertex $-1 -1 $-1 $49 $119 #
vertex $-1 -1 $-1 $45 $120 #
straight-curve $-1 -1 $-1 46.037499999999994 25.399999999999999 3.1749999999999998 0 0 -25.399999999999999 I I #
ellipse-curve $-1 -1 $-1 50.799999999999997 25.399999999999995 -396.875 0 0 -1 -4.7624999999999993 2.8199664825478975e-015 0 1 I I #
coedge $-1 -1 $-1 $121 $48 $116 $122 reversed $79 $-1 #
coedge $-1 -1 $-1 $48 $121 $115 $123 forward $79 $-1 #
loop $-1 -1 $-1 $-1 $77 $124 #
ellipse-curve $-1 -1 $-1 50.799999999999997 25.399999999999999 3.1749999999999998 0 0 1 4.7624999999999993 0 0 1 I I #
point $-1 -1 $-1 55.5625 25.399999999999999 3.1749999999999998 #
point $-1 -1 $-1 55.5625 25.399999999999999 -396.875 #
face $-1 -1 $-1 $125 $126 $10 $-1 $127 reversed single #
loop $-1 -1 $-1 $-1 $128 $53 #
plane-surface $-1 -1 $-1 -19.694346327358502 0 0 1 0 0 0 0 -1 forward_v I I I I #
coedge $-1 -1 $-1 $129 $94 $130 $131 forward $54 $-1 #
coedge $-1 -1 $-1 $132 $56 $129 $133 forward $34 $-1 #
coedge $-1 -1 $-1 $56 $132 $134 $135 forward $34 $-1 #
coedge $-1 -1 $-1 $97 $96 $56 $90 reversed $98 $-1 #
edge $-1 -1 $-1 $136 -6.9943463273585067 $137 6.9943463273585067 $89 $138 forward @7 unknown #
coedge $-1 -1 $-1 $58 $57 $139 $140 forward $22 $-1 #
coedge $-1 -1 $-1 $141 $142 $57 $93 reversed $126 $-1 #
edge $-1 -1 $-1 $100 -19.694346327358502 $143 19.694346327358502 $92 $144 forward @7 unknown #
coedge $-1 -1 $-1 $86 $145 $58 $95 reversed $54 $-1 #
edge $-1 -1 $-1 $146 -19.694346327358502 $99 19.694346327358502 $94 $147 forward @7 unknown #
coedge $-1 -1 $-1 $89 $59 $145 $148 forward $98 $-1 #
coedge $-1 -1 $-1 $59 $89 $141 $149 reversed $98 $-1 #
loop $-1 -1 $-1 $-1 $96 $125 #
vertex $-1 -1 $-1 $60 $150 #
vertex $-1 -1 $-1 $60 $151 #
straight-curve $-1 -1 $-1 19.694346327358502 0 211.8993396423742 0 1 0 I I #
model_id-kcp-attrib $-1 -1 $-1 $-1 $62 1 1021488785 1021488785 1758199809 7 #
face $152 -1 $-1 $153 $154 $5 $-1 $155 reversed single #
loop $-1 -1 $-1 $-1 $156 $62 #
cone-surface $-1 -1 $-1 25.399999999999999 25.399999999999999 -396.875 0 0 1 4.7624999999999993 0 0 1 I I 0 1 4.7624999999999993 forward I I I I #
coedge $-1 -1 $-1 $157 $158 $159 $160 reversed $63 $-1 #
coedge $-1 -1 $-1 $68 $65 $157 $161 reversed $39 $-1 #
coedge $-1 -1 $-1 $67 $66 $65 $109 reversed $26 $-1 #
edge $-1 -1 $-1 $51 0 $162 3.1415926535897931 $65 $163 forward @7 unknown #
coedge $-1 -1 $-1 $159 $156 $66 $111 forward $104 $-1 #
edge $-1 -1 $-1 $162 0 $112 3.1415926535897931 $66 $164 forward @7 unknown #
vertex $-1 -1 $-1 $69 $165 #
ellipse-curve $-1 -1 $-1 38.099999999999994 25.399999999999999 -396.875 0 1 0 7.9375 0 0 1 I I #
ellipse-curve $-1 -1 $-1 50.799999999999997 25.399999999999999 -396.875 0 0 -1 4.7624999999999993 0 0 1 I I #
coedge $-1 -1 $-1 $166 $71 $78 $123 reversed $117 $-1 #
coedge $-1 -1 $-1 $71 $166 $77 $122 forward $117 $-1 #
loop $-1 -1 $-1 $-1 $115 $167 #
ellipse-curve $-1 -1 $-1 50.799999999999997 25.399999999999999 3.1749999999999998 0 0 1 -4.7624999999999993 0 0 1 I I #
point $-1 -1 $-1 46.037499999999994 25.399999999999999 3.1749999999999998 #
point $-1 -1 $-1 46.037499999999994 25.399999999999999 -396.875 #
coedge $-1 -1 $-1 $78 $77 $168 $169 reversed $79 $-1 #
edge $-1 -1 $-1 $170 4.8948597471779076e-016 $73 0.78539816339744284 $77 $171 forward @7 unknown #
edge $-1 -1 $-1 $172 4.1606307851013716e-015 $50 0.7853981633974576 $78 $173 forward @7 unknown #
face $174 -1 $-1 $167 $79 $5 $-1 $175 reversed single #
face $-1 -1 $-1 $-1 $98 $10 $-1 $176 reversed single #
loop $-1 -1 $-1 $-1 $141 $83 #
plane-surface $-1 -1 $-1 0 6.9943463273585067 0 0 -1 0 0 0 -1 forward_v I I I I #
coedge $-1 -1 $-1 $177 $139 $142 $178 forward $84 $-1 #
coedge $-1 -1 $-1 $145 $86 $87 $133 reversed $54 $-1 #
coedge $-1 -1 $-1 $139 $177 $86 $131 reversed $84 $-1 #
edge $-1 -1 $-1 $146 -211.8993396423742 $179 211.8993396423742 $130 $180 forward @7 unknown #
coedge $-1 -1 $-1 $88 $87 $177 $181 forward $34 $-1 #
edge $-1 -1 $-1 $137 -19.694346327358502 $179 19.694346327358502 $129 $182 forward @7 unknown #
coedge $-1 -1 $-1 $142 $141 $88 $135 reversed $126 $-1 #
edge $-1 -1 $-1 $183 -19.694346327358502 $136 19.694346327358502 $134 $184 forward @7 unknown #
vertex $-1 -1 $-1 $90 $185 #
vertex $-1 -1 $-1 $148 $186 #
straight-curve $-1 -1 $-1 19.694346327358502 0 -211.8993396423742 0 -1 0 I I #
coedge $-1 -1 $-1 $128 $130 $91 $140 reversed $84 $-1 #
edge $-1 -1 $-1 $143 -6.9943463273585067 $146 6.9943463273585067 $139 $187 forward @7 unknown #
coedge $-1 -1 $-1 $134 $92 $97 $149 forward $126 $-1 #
coedge $-1 -1 $-1 $92 $134 $128 $178 reversed $126 $-1 #
vertex $-1 -1 $-1 $93 $188 #
straight-curve $-1 -1 $-1 0 6.9943463273585067 211.8993396423742 -1 0 0 I I #
coedge $-1 -1 $-1 $94 $129 $96 $148 reversed $54 $-1 #
vertex $-1 -1 $-1 $140 $189 #
straight-curve $-1 -1 $-1 0 -6.9943463273585067 211.8993396423742 1 0 0 I I #
edge $-1 -1 $-1 $99 -211.8993396423742 $137 211.8993396423742 $96 $190 forward @7 unknown #
edge $-1 -1 $-1 $100 -211.8993396423742 $136 211.8993396423742 $97 $191 forward @7 unknown #
point $-1 -1 $-1 19.694346327358502 -6.9943463273585067 211.8993396423742 #
point $-1 -1 $-1 19.694346327358502 6.9943463273585067 211.8993396423742 #
model_id-kcp-attrib $-1 -1 $-1 $-1 $103 1 1021488785 1021488785 1758199809 8 #
face $192 -1 $-1 $193 $194 $5 $-1 $195 reversed single #
loop $-1 -1 $-1 $-1 $196 $103 #
torus-surface $-1 -1 $-1 25.399999999999999 25.399999999999999 3.1749999999999998 0 0 1 12.382499999999999 7.6199999999999992 -1 0 0 forward_v I I I I #
coedge $-1 -1 $-1 $110 $197 $198 $199 reversed $104 $-1 #
coedge $-1 -1 $-1 $198 $106 $107 $161 forward $63 $-1 #
coedge $-1 -1 $-1 $106 $198 $200 $201 reversed $63 $-1 #
coedge $-1 -1 $-1 $197 $110 $106 $160 forward $104 $-1 #
edge $-1 -1 $-1 $112 0 $202 15.750000000000002 $106 $203 forward @7 unknown #
edge $-1 -1 $-1 $112 0 $162 3.1415926535897931 $107 $204 forward @7 unknown #
vertex $-1 -1 $-1 $161 $205 #
ellipse-curve $-1 -1 $-1 38.099999999999994 25.399999999999999 -396.875 0 1 0 17.462499999999999 0 0 1 I I #
ellipse-curve $-1 -1 $-1 25.399999999999999 25.399999999999999 -396.875 0 0 1 -4.7624999999999993 0 0 1 I I #
point $-1 -1 $-1 30.162499999999998 25.399999999999999 -396.875 #
coedge $-1 -1 $-1 $116 $115 $206 $207 forward $117 $-1 #
face $208 -1 $-1 $209 $117 $5 $-1 $210 reversed single #
coedge $-1 -1 $-1 $211 $212 $121 $169 forward $213 $-1 #
edge $-1 -1 $-1 $172 0 $170 3.1415926535897936 $168 $214 forward @7 unknown #
vertex $-1 -1 $-1 $215 $216 #
ellipse-curve $-1 -1 $-1 38.417499999999954 25.399999999999984 3.1749999999999821 -1.850911917149405e-015 1 -2.4254469442894515e-016 5.388153672641538 1.127986593019159e-014 5.3881536726415034 1 I I #
vertex $-1 -1 $-1 $217 $218 #
ellipse-curve $-1 -1 $-1 63.182499999999905 25.399999999999999 3.175000000000042 0 -1 0 -5.3881536726414021 0 5.388153672641443 1 I I #
model_id-kcp-attrib $-1 -1 $-1 $-1 $124 1 1021488785 1021488785 1758199809 25 #
torus-surface $-1 -1 $-1 50.799999999999997 25.399999999999999 3.1749999999999998 0 0 1 12.382499999999999 7.6199999999999992 -1 0 0 forward_v I I I I #
plane-surface $-1 -1 $-1 19.694346327358502 0 0 -1 0 0 0 0 1 forward_v I I I I #
coedge $-1 -1 $-1 $130 $128 $132 $181 reversed $84 $-1 #
edge $-1 -1 $-1 $143 -211.8993396423742 $183 211.8993396423742 $142 $219 forward @7 unknown #
vertex $-1 -1 $-1 $181 $220 #
straight-curve $-1 -1 $-1 -19.694346327358502 -6.9943463273585067 0 0 0 -1 I I #
edge $-1 -1 $-1 $179 -6.9943463273585067 $183 6.9943463273585067 $177 $221 forward @7 unknown #
straight-curve $-1 -1 $-1 0 -6.9943463273585067 -211.8993396423742 -1 0 0 I I #
vertex $-1 -1 $-1 $135 $222 #
straight-curve $-1 -1 $-1 0 6.9943463273585067 -211.8993396423742 1 0 0 I I #
point $-1 -1 $-1 19.694346327358502 6.9943463273585067 -211.8993396423742 #
point $-1 -1 $-1 19.694346327358502 -6.9943463273585067 -211.8993396423742 #
straight-curve $-1 -1 $-1 -19.694346327358502 0 211.8993396423742 0 -1 0 I I #
point $-1 -1 $-1 -19.694346327358502 6.9943463273585067 211.8993396423742 #
point $-1 -1 $-1 -19.694346327358502 -6.9943463273585067 211.8993396423742 #
straight-curve $-1 -1 $-1 19.694346327358502 -6.9943463273585067 0 0 0 -1 I I #
straight-curve $-1 -1 $-1 19.694346327358502 6.9943463273585067 0 0 0 -1 I I #
model_id-kcp-attrib $-1 -1 $-1 $-1 $153 1 1021488785 1021488785 1758199809 9 #
face $223 -1 $-1 $224 $225 $5 $-1 $226 forward single #
loop $-1 -1 $-1 $-1 $227 $153 #
torus-surface $-1 -1 $-1 25.399999999999999 25.399999999999999 3.1749999999999998 0 0 1 12.382499999999999 7.6199999999999992 -1 0 0 forward_v I I I I #
coedge $-1 -1 $-1 $228 $229 $230 $231 reversed $154 $-1 #
coedge $-1 -1 $-1 $156 $159 $229 $232 reversed $104 $-1 #
coedge $-1 -1 $-1 $158 $157 $156 $199 forward $63 $-1 #
edge $-1 -1 $-1 $162 0 $233 15.750000000000002 $198 $234 forward @7 unknown #
coedge $-1 -1 $-1 $227 $230 $158 $201 forward $194 $-1 #
edge $-1 -1 $-1 $202 0 $233 3.1415926535897931 $158 $235 forward @7 unknown #
vertex $-1 -1 $-1 $201 $236 #
straight-curve $-1 -1 $-1 30.162499999999998 25.399999999999999 -396.875 0 0 25.399999999999999 I I #
ellipse-curve $-1 -1 $-1 25.399999999999999 25.399999999999999 -396.875 0 0 1 4.7624999999999993 0 0 1 I I #
point $-1 -1 $-1 20.637499999999999 25.399999999999999 -396.875 #
coedge $-1 -1 $-1 $237 $238 $166 $207 reversed $239 $-1 #
edge $-1 -1 $-1 $172 0 $170 3.1415926535897927 $206 $240 forward @7 unknown #
model_id-kcp-attrib $-1 -1 $-1 $-1 $167 1 1021488785 1021488785 1758199809 26 #
face $241 -1 $-1 $-1 $239 $5 $-1 $242 forward single #
torus-surface $-1 -1 $-1 50.799999999999997 25.399999999999999 3.1749999999999998 0 0 1 12.382499999999999 7.6199999999999992 -1 0 0 forward_v I I I I #
coedge $-1 -1 $-1 $243 $168 $238 $215 reversed $213 $-1 #
coedge $-1 -1 $-1 $168 $243 $237 $217 forward $213 $-1 #
loop $-1 -1 $-1 $-1 $168 $244 #
ellipse-curve $-1 -1 $-1 50.799999999999997 25.399999999999999 8.5631536726414854 0 0 1 6.9943463273585023 0 0 1 I I #
edge $-1 -1 $-1 $245 0 $170 0.049999999999999989 $211 $246 forward @7 unknown #
point $-1 -1 $-1 43.805653672641498 25.399999999999995 8.5631536726414854 #
edge $-1 -1 $-1 $247 -4.9451730982167484e-017 $172 0.04999999999999994 $212 $248 forward @7 unknown #
point $-1 -1 $-1 57.794346327358475 25.399999999999999 8.5631536726414677 #
straight-curve $-1 -1 $-1 -19.694346327358502 6.9943463273585067 0 0 0 -1 I I #
point $-1 -1 $-1 -19.694346327358502 -6.9943463273585067 -211.8993396423742 #
straight-curve $-1 -1 $-1 -19.694346327358502 0 -211.8993396423742 0 1 0 I I #
point $-1 -1 $-1 -19.694346327358502 6.9943463273585067 -211.8993396423742 #
model_id-kcp-attrib $-1 -1 $-1 $-1 $193 1 1021488785 1021488785 1758199809 10 #
face $249 -1 $-1 $250 $251 $5 $-1 $252 forward single #
loop $-1 -1 $-1 $-1 $253 $193 #
cone-surface $-1 -1 $-1 25.399999999999999 25.399999999999999 -9.8425000000000047 0 0 1 -25.399999999999995 0 0 1 I I -0.70710678118654746 0.70710678118654757 25.399999999999995 forward I I I I #
coedge $-1 -1 $-1 $254 $200 $255 $256 reversed $194 $-1 #
coedge $-1 -1 $-1 $255 $196 $257 $258 forward $154 $-1 #
coedge $-1 -1 $-1 $196 $255 $197 $232 forward $154 $-1 #
coedge $-1 -1 $-1 $200 $254 $196 $231 forward $194 $-1 #
edge $-1 -1 $-1 $259 6.118574683972437e-016 $202 0.78539816339744728 $230 $260 forward @7 unknown #
edge $-1 -1 $-1 $233 0 $202 3.1415926535897931 $197 $261 forward @7 unknown #
vertex $-1 -1 $-1 $201 $262 #
straight-curve $-1 -1 $-1 20.637499999999999 25.399999999999999 -396.875 0 0 25.399999999999999 I I #
ellipse-curve $-1 -1 $-1 25.399999999999999 25.399999999999999 3.1749999999999998 0 0 1 4.7624999999999993 0 0 1 I I #
point $-1 -1 $-1 30.162499999999998 25.399999999999999 3.1749999999999998 #
coedge $-1 -1 $-1 $263 $206 $212 $217 reversed $239 $-1 #
coedge $-1 -1 $-1 $206 $263 $211 $215 forward $239 $-1 #
loop $-1 -1 $-1 $-1 $263 $209 #
ellipse-curve $-1 -1 $-1 50.799999999999997 25.399999999999999 8.5631536726414854 0 0 -1 6.9943463273585023 0 0 1 I I #
model_id-kcp-attrib $-1 -1 $-1 $-1 $209 1 1021488785 1021488785 1758199809 27 #
cone-surface $-1 -1 $-1 50.799999999999997 25.399999999999999 -9.8425000000000669 0 0 1 -25.400000000000073 0 0 1 I I -0.70710678118654857 0.70710678118654646 25.400000000000073 forward I I I I #
coedge $-1 -1 $-1 $212 $211 $264 $265 reversed $213 $-1 #
face $266 -1 $-1 $124 $213 $5 $-1 $267 forward single #
vertex $-1 -1 $-1 $268 $269 #
straight-curve $-1 -1 $-1 44.703679284748432 25.399999999999999 9.4611792847483809 -17.960512242138336 -5.6399329650957801e-014 -17.960512242138279 I I #
vertex $-1 -1 $-1 $270 $271 #
straight-curve $-1 -1 $-1 56.896320715251562 25.399999999999999 9.4611792847483827 17.960512242138275 0 -17.960512242138332 I I #
model_id-kcp-attrib $-1 -1 $-1 $-1 $224 1 1021488785 1021488785 1758199809 11 #
face $272 -1 $-1 $273 $274 $5 $-1 $275 forward single #
loop $-1 -1 $-1 $-1 $276 $224 #
cone-surface $-1 -1 $-1 25.399999999999999 25.399999999999999 -9.8425000000000047 0 0 1 -25.399999999999995 0 0 1 I I -0.70710678118654746 0.70710678118654757 25.399999999999995 forward I I I I #
coedge $-1 -1 $-1 $277 $278 $254 $279 forward $225 $-1 #
coedge $-1 -1 $-1 $230 $227 $253 $279 reversed $194 $-1 #
coedge $-1 -1 $-1 $229 $228 $227 $256 forward $154 $-1 #
edge $-1 -1 $-1 $280 -2.4474298735889735e-016 $233 0.78539816339744661 $227 $281 forward @7 unknown #
coedge $-1 -1 $-1 $282 $283 $228 $258 reversed $251 $-1 #
edge $-1 -1 $-1 $259 0 $280 3.1415926535897927 $257 $284 forward @7 unknown #
vertex $-1 -1 $-1 $285 $286 #
ellipse-curve $-1 -1 $-1 37.782500000000006 25.399999999999999 3.1749999999999949 0 -1 0 -5.388153672641498 0 5.3881536726414945 1 I I #
ellipse-curve $-1 -1 $-1 25.399999999999999 25.399999999999999 3.1749999999999998 0 0 1 -4.7624999999999993 0 0 1 I I #
point $-1 -1 $-1 20.637499999999999 25.399999999999999 3.1749999999999998 #
coedge $-1 -1 $-1 $238 $237 $287 $288 forward $239 $-1 #
coedge $-1 -1 $-1 $289 $290 $243 $265 forward $291 $-1 #
edge $-1 -1 $-1 $247 0 $245 3.1415926535897931 $264 $292 forward @7 unknown #
model_id-kcp-attrib $-1 -1 $-1 $-1 $244 1 1021488785 1021488785 1758199809 24 #
cone-surface $-1 -1 $-1 50.799999999999997 25.399999999999999 -9.8425000000000669 0 0 1 -25.400000000000073 0 0 1 I I -0.70710678118654857 0.70710678118654646 25.400000000000073 forward I I I I #
edge $-1 -1 $-1 $293 1.186402557248489e-017 $245 0.78539816339744384 $289 $294 forward @7 unknown #
point $-1 -1 $-1 44.703679284748432 25.399999999999999 9.4611792847483809 #
edge $-1 -1 $-1 $295 9.9907583768295573e-018 $247 0.78539816339743895 $290 $296 forward @7 unknown #
point $-1 -1 $-1 56.896320715251576 25.399999999999999 9.4611792847483986 #
model_id-kcp-attrib $-1 -1 $-1 $-1 $250 1 1021488785 1021488785 1758199809 12 #
face $297 -1 $-1 $298 $299 $5 $-1 $300 reversed single #
loop $-1 -1 $-1 $-1 $301 $250 #
torus-surface $-1 -1 $-1 25.399999999999999 25.399999999999999 3.1749999999999998 0 0 1 12.382499999999999 8.8899999999999988 -1 0 0 forward_v I I I I #
coedge $-1 -1 $-1 $283 $282 $302 $303 forward $251 $-1 #
coedge $-1 -1 $-1 $304 $253 $283 $305 reversed $225 $-1 #
coedge $-1 -1 $-1 $253 $304 $282 $285 forward $225 $-1 #
edge $-1 -1 $-1 $259 0 $280 3.1415926535897936 $253 $306 forward @7 unknown #
vertex $-1 -1 $-1 $305 $307 #
ellipse-curve $-1 -1 $-1 13.017499999999988 25.399999999999984 3.174999999999994 -1.8509119171494057e-015 1 -2.4254469442895585e-016 5.3881536726415069 1.127986593019159e-014 5.3881536726414954 1 I I #
coedge $-1 -1 $-1 $276 $257 $278 $285 reversed $251 $-1 #
coedge $-1 -1 $-1 $257 $276 $277 $305 forward $251 $-1 #
ellipse-curve $-1 -1 $-1 25.399999999999999 25.399999999999999 8.563153672641489 0 0 -1 6.9943463273585076 0 0 1 I I #
edge $-1 -1 $-1 $308 0 $259 0.049999999999999691 $278 $309 forward @7 unknown #
point $-1 -1 $-1 32.394346327358498 25.399999999999999 8.5631536726414925 #
coedge $-1 -1 $-1 $310 $311 $263 $288 reversed $312 $-1 #
edge $-1 -1 $-1 $247 0 $245 3.1415926535897931 $287 $313 forward @7 unknown #
coedge $-1 -1 $-1 $314 $264 $311 $268 reversed $291 $-1 #
coedge $-1 -1 $-1 $264 $314 $310 $270 forward $291 $-1 #
loop $-1 -1 $-1 $-1 $264 $315 #
ellipse-curve $-1 -1 $-1 50.799999999999997 25.399999999999999 9.4611792847483827 0 0 1 6.0963207152515659 0 0 1 I I #
vertex $-1 -1 $-1 $316 $317 #
ellipse-curve $-1 -1 $-1 38.417499999999997 25.399999999999999 3.1749999999999989 0 -1 0 8.8900000000000023 0 2.1149748619109229e-015 1 I I #
vertex $-1 -1 $-1 $270 $318 #
ellipse-curve $-1 -1 $-1 63.182500000000083 25.399999999999999 3.1749999999999785 0 1 0 -8.8900000000000805 0 2.255973186038318e-014 1 I I #
model_id-kcp-attrib $-1 -1 $-1 $-1 $273 1 1021488785 1021488785 1758199809 13 #
face $319 -1 $-1 $320 $321 $5 $-1 $322 forward single #
loop $-1 -1 $-1 $323 $324 $273 #
plane-surface $-1 -1 $-1 25.399999999999999 25.399999999999999 3.1749999999999998 0 0 1 -25.399999999999999 0 0 forward_v I I I I #
coedge $-1 -1 $-1 $325 $326 $324 $327 forward $274 $-1 #
coedge $-1 -1 $-1 $326 $325 $276 $303 reversed $274 $-1 #
edge $-1 -1 $-1 $308 0 $328 3.1415926535897931 $302 $329 forward @7 unknown #
coedge $-1 -1 $-1 $278 $277 $330 $331 reversed $225 $-1 #
edge $-1 -1 $-1 $328 0 $280 0.049999999999999996 $277 $332 forward @7 unknown #
ellipse-curve $-1 -1 $-1 25.399999999999999 25.399999999999999 8.563153672641489 0 0 1 6.9943463273585076 0 0 1 I I #
point $-1 -1 $-1 18.405653672641492 25.399999999999995 8.563153672641489 #
vertex $-1 -1 $-1 $333 $334 #
straight-curve $-1 -1 $-1 31.496320715251588 25.399999999999999 9.4611792847484022 17.960512242138336 0 -17.960512242138279 I I #
coedge $-1 -1 $-1 $335 $287 $290 $270 reversed $312 $-1 #
coedge $-1 -1 $-1 $287 $335 $289 $268 forward $312 $-1 #
loop $-1 -1 $-1 $-1 $335 $336 #
ellipse-curve $-1 -1 $-1 50.799999999999997 25.399999999999999 9.4611792847483809 4.6256859083758539e-016 0 -1 6.0963207152515659 0 2.8199664825478975e-015 1 I I #
coedge $-1 -1 $-1 $290 $289 $337 $316 reversed $291 $-1 #
face $338 -1 $-1 $244 $291 $5 $-1 $339 forward single #
edge $-1 -1 $-1 $295 0 $293 3.1415926535897931 $314 $340 forward @7 unknown #
point $-1 -1 $-1 47.307499999999997 25.399999999999999 3.1750000000000012 #
point $-1 -1 $-1 54.292500000000004 25.399999999999999 3.1750000000000012 #
model_id-kcp-attrib $-1 -1 $-1 $-1 $298 1 1021488785 1021488785 1758199809 14 #
face $341 -1 $-1 $342 $343 $5 $-1 $344 reversed single #
loop $-1 -1 $-1 $-1 $330 $298 #
torus-surface $-1 -1 $-1 25.399999999999999 25.399999999999999 3.1749999999999998 0 0 1 12.382499999999999 8.8899999999999988 -1 0 0 forward_v I I I I #
loop $-1 -1 $-1 $-1 $345 $273 #
coedge $-1 -1 $-1 $346 $346 $301 $327 reversed $299 $-1 #
coedge $-1 -1 $-1 $302 $301 $347 $348 forward $274 $-1 #
coedge $-1 -1 $-1 $301 $302 $349 $333 reversed $274 $-1 #
edge $-1 -1 $-1 $350 0 $351 3.1415926535897931 $324 $352 forward @7 unknown #
vertex $-1 -1 $-1 $348 $353 #
ellipse-curve $-1 -1 $-1 25.399999999999999 25.399999999999999 9.4611792847484022 0 0 -1 6.096320715251589 0 0 1 I I #
coedge $-1 -1 $-1 $347 $349 $304 $331 forward $321 $-1 #
edge $-1 -1 $-1 $308 0 $328 3.1415926535897931 $330 $354 forward @7 unknown #
straight-curve $-1 -1 $-1 19.303679284748409 25.399999999999999 9.4611792847484022 -17.960512242138304 -5.6399329650958243e-014 -17.960512242138304 I I #
edge $-1 -1 $-1 $350 -4.0587455905868236e-018 $308 0.78539816339744684 $349 $355 forward @7 unknown #
point $-1 -1 $-1 31.496320715251588 25.399999999999999 9.4611792847484022 #
coedge $-1 -1 $-1 $311 $310 $356 $357 forward $312 $-1 #
face $358 -1 $-1 $315 $312 $5 $-1 $359 forward single #
coedge $-1 -1 $-1 $356 $356 $314 $316 forward $360 $-1 #
model_id-kcp-attrib $-1 -1 $-1 $-1 $315 1 1021488785 1021488785 1758199809 23 #
torus-surface $-1 -1 $-1 50.799999999999997 25.399999999999999 3.1749999999999998 0 0 1 12.382499999999999 8.8899999999999988 -1 0 0 forward_v I I I I #
ellipse-curve $-1 -1 $-1 50.799999999999997 25.399999999999999 3.1749999999999998 -4.0371746350005642e-016 0 1 3.4925000000000042 0 1.4099832412739487e-015 1 I I #
model_id-kcp-attrib $-1 -1 $-1 $-1 $320 1 1021488785 1021488785 1758199809 15 #
face $361 -1 $-1 $362 $363 $5 $-1 $364 reversed single #
loop $-1 -1 $-1 $-1 $365 $320 #
cone-surface $-1 -1 $-1 25.399999999999999 25.399999999999999 -396.875 0 0 1 3.7464999999999997 0 0 1 I I 0 1 3.7464999999999997 forward I I I I #
coedge $-1 -1 $-1 $366 $366 $365 $367 reversed $323 $-1 #
coedge $-1 -1 $-1 $324 $324 $368 $369 forward $299 $-1 #
coedge $-1 -1 $-1 $368 $330 $325 $348 reversed $321 $-1 #
edge $-1 -1 $-1 $351 1.4986137565244183e-017 $328 0.78539816339744695 $347 $370 forward @7 unknown #
coedge $-1 -1 $-1 $330 $368 $326 $333 forward $321 $-1 #
vertex $-1 -1 $-1 $333 $371 #
vertex $-1 -1 $-1 $369 $372 #
ellipse-curve $-1 -1 $-1 25.399999999999999 25.399999999999999 3.1749999999999998 4.0371746350005701e-016 0 -1 3.4924999999999988 0 1.4099832412739487e-015 1 I I #
point $-1 -1 $-1 19.303679284748409 25.399999999999999 9.4611792847484022 #
ellipse-curve $-1 -1 $-1 25.399999999999999 25.399999999999999 9.4611792847484022 0 0 1 6.096320715251589 0 0 1 I I #
ellipse-curve $-1 -1 $-1 37.782500000000006 25.399999999999999 3.1749999999999945 0 1 0 -8.8900000000000077 0 6.6974203960512564e-015 1 I I #
coedge $-1 -1 $-1 $337 $337 $335 $357 reversed $360 $-1 #
edge $-1 -1 $-1 $295 4.1961185182682894e-016 $293 3.1415926535897896 $356 $373 forward @7 unknown #
model_id-kcp-attrib $-1 -1 $-1 $-1 $336 1 1021488785 1021488785 1758199809 22 #
torus-surface $-1 -1 $-1 50.799999999999997 25.399999999999999 3.1749999999999998 0 0 1 12.382499999999999 8.8899999999999988 -1 0 0 forward_v I I I I #
loop $-1 -1 $-1 $374 $356 $375 #
model_id-kcp-attrib $-1 -1 $-1 $-1 $342 1 1021488785 1021488785 1758199809 16 #
face $376 -1 $-1 $377 $378 $5 $-1 $379 reversed single #
loop $-1 -1 $-1 $-1 $380 $342 #
cone-surface $-1 -1 $-1 25.399999999999999 25.399999999999999 -396.875 0 0 1 3.7464999999999997 0 0 1 I I 0 1 3.7464999999999997 forward I I I I #
coedge $-1 -1 $-1 $381 $382 $345 $367 forward $343 $-1 #
coedge $-1 -1 $-1 $345 $345 $383 $384 reversed $323 $-1 #
edge $-1 -1 $-1 $385 0 $386 3.1415926535897931 $365 $387 forward @7 unknown #
coedge $-1 -1 $-1 $349 $347 $346 $369 reversed $321 $-1 #
edge $-1 -1 $-1 $350 0 $351 3.1415926535897931 $368 $388 forward @7 unknown #
ellipse-curve $-1 -1 $-1 13.017499999999993 25.399999999999999 3.1749999999999954 0 -1 0 8.8900000000000077 0 5.6399329650957949e-015 1 I I #
point $-1 -1 $-1 28.892499999999998 25.399999999999999 3.1750000000000012 #
point $-1 -1 $-1 21.907499999999999 25.399999999999999 3.1750000000000012 #
ellipse-curve $-1 -1 $-1 50.799999999999997 25.400000000000006 3.1749999999999998 4.0371746350005642e-016 -6.5195116133967753e-031 -1 3.4925000000000042 -5.6399329650957949e-015 1.4099832412739487e-015 1 I I #
loop $-1 -1 $-1 $-1 $389 $375 #
face $390 -1 $-1 $336 $360 $5 $-1 $391 reversed single #
model_id-kcp-attrib $-1 -1 $-1 $-1 $362 1 1021488785 1021488785 1758199809 17 #
face $392 -1 $-1 $393 $394 $5 $-1 $395 reversed single #
loop $-1 -1 $-1 $-1 $396 $362 #
torus-surface $-1 -1 $-1 38.099999999999994 25.399999999999999 -396.875 0 1 0 12.699999999999999 3.7464999999999997 -1 0 0 forward_v I I I I #
coedge $-1 -1 $-1 $397 $398 $399 $400 forward $363 $-1 #
coedge $-1 -1 $-1 $401 $365 $397 $402 reversed $343 $-1 #
coedge $-1 -1 $-1 $365 $401 $398 $403 forward $343 $-1 #
coedge $-1 -1 $-1 $398 $397 $366 $384 forward $363 $-1 #
edge $-1 -1 $-1 $386 0 $385 3.1415926535897931 $383 $404 forward @7 unknown #
vertex $-1 -1 $-1 $403 $405 #
vertex $-1 -1 $-1 $384 $406 #
ellipse-curve $-1 -1 $-1 25.399999999999999 25.399999999999999 3.1749999999999998 0 0 1 3.7464999999999988 0 0 1 I I #
ellipse-curve $-1 -1 $-1 25.399999999999999 25.399999999999999 3.1749999999999998 -4.0371746350005701e-016 0 1 3.4924999999999988 0 1.4099832412739487e-015 1 I I #
coedge $-1 -1 $-1 $407 $407 $408 $409 forward $374 $-1 #
model_id-kcp-attrib $-1 -1 $-1 $-1 $375 1 1021488785 1021488785 1758199809 21 #
plane-surface $-1 -1 $-1 50.799999999999997 25.399999999999999 3.1749999999999998 0 0 1 -25.399999999999999 0 0 forward_v I I I I #
model_id-kcp-attrib $-1 -1 $-1 $-1 $377 1 1021488785 1021488785 1758199809 18 #
face $410 -1 $-1 $411 $412 $5 $-1 $413 reversed single #
loop $-1 -1 $-1 $-1 $414 $377 #
torus-surface $-1 -1 $-1 38.099999999999994 25.399999999999999 -396.875 0 1 0 12.699999999999999 3.7464999999999997 -1 0 0 forward_v I I I I #
coedge $-1 -1 $-1 $399 $415 $416 $417 forward $378 $-1 #
coedge $-1 -1 $-1 $383 $380 $381 $402 forward $363 $-1 #
coedge $-1 -1 $-1 $380 $383 $382 $403 reversed $363 $-1 #
coedge $-1 -1 $-1 $418 $396 $380 $400 reversed $378 $-1 #
edge $-1 -1 $-1 $419 0 $420 3.1415926535897931 $399 $421 forward @7 unknown #
coedge $-1 -1 $-1 $382 $381 $422 $423 forward $343 $-1 #
edge $-1 -1 $-1 $420 0 $386 15.750000000000002 $397 $424 forward @7 unknown #
edge $-1 -1 $-1 $419 0 $385 15.750000000000002 $398 $425 forward @7 unknown #
ellipse-curve $-1 -1 $-1 25.399999999999999 25.399999999999999 3.1749999999999998 0 0 1 -3.7464999999999988 0 0 1 I I #
point $-1 -1 $-1 29.146499999999996 25.399999999999999 3.1749999999999998 #
point $-1 -1 $-1 21.653500000000001 25.399999999999999 3.1749999999999998 #
coedge $-1 -1 $-1 $389 $389 $426 $427 forward $374 $-1 #
coedge $-1 -1 $-1 $428 $429 $389 $409 reversed $412 $-1 #
edge $-1 -1 $-1 $430 0 $431 3.1415926535897931 $408 $432 forward @7 unknown #
model_id-kcp-attrib $-1 -1 $-1 $-1 $393 1 1021488785 1021488785 1758199809 19 #
face $433 -1 $-1 $375 $434 $5 $-1 $435 reversed single #
loop $-1 -1 $-1 $-1 $428 $393 #
cone-surface $-1 -1 $-1 50.799999999999997 25.399999999999999 3.1749999999999998 0 0 -1 -3.7464999999999997 0 0 1 I I 0 1 3.7464999999999997 forward I I I I #
coedge $-1 -1 $-1 $422 $436 $418 $437 forward $394 $-1 #
coedge $-1 -1 $-1 $396 $418 $438 $439 forward $378 $-1 #
coedge $-1 -1 $-1 $436 $422 $396 $417 reversed $394 $-1 #
edge $-1 -1 $-1 $440 0 $420 3.1415926535897931 $396 $441 forward @7 unknown #
coedge $-1 -1 $-1 $415 $399 $414 $437 reversed $378 $-1 #
vertex $-1 -1 $-1 $437 $442 #
vertex $-1 -1 $-1 $400 $443 #
ellipse-curve $-1 -1 $-1 25.399999999999999 25.399999999999999 -396.875 0 0 -1 3.7464999999999988 0 0 1 I I #
coedge $-1 -1 $-1 $416 $414 $401 $423 reversed $394 $-1 #
edge $-1 -1 $-1 $420 0 $419 3.1415926535897931 $422 $444 forward @7 unknown #
straight-curve $-1 -1 $-1 21.653500000000001 25.399999999999999 -396.875 0 0 25.399999999999999 I I #
straight-curve $-1 -1 $-1 29.146499999999996 25.399999999999999 -396.875 0 0 25.399999999999999 I I #
coedge $-1 -1 $-1 $445 $446 $407 $427 reversed $434 $-1 #
edge $-1 -1 $-1 $431 0 $430 3.1415926535897931 $426 $447 forward @7 unknown #
coedge $-1 -1 $-1 $448 $408 $446 $449 forward $412 $-1 #
coedge $-1 -1 $-1 $408 $448 $445 $450 reversed $412 $-1 #
vertex $-1 -1 $-1 $427 $451 #
vertex $-1 -1 $-1 $427 $452 #
ellipse-curve $-1 -1 $-1 50.799999999999997 25.399999999999999 3.1749999999999998 0 0 -1 -3.7464999999999988 0 0 1 I I #
model_id-kcp-attrib $-1 -1 $-1 $-1 $411 1 1021488785 1021488785 1758199809 20 #
loop $-1 -1 $-1 $-1 $445 $411 #
cone-surface $-1 -1 $-1 50.799999999999997 25.399999999999999 3.1749999999999998 0 0 -1 -3.7464999999999997 0 0 1 I I 0 1 3.7464999999999997 forward I I I I #
coedge $-1 -1 $-1 $414 $416 $448 $453 forward $394 $-1 #
edge $-1 -1 $-1 $454 0 $419 3.1415926535897931 $418 $455 forward @7 unknown #
coedge $-1 -1 $-1 $446 $445 $415 $439 reversed $434 $-1 #
edge $-1 -1 $-1 $454 -1.9558179534301478e-016 $440 3.1415926535897949 $438 $456 forward @7 unknown #
vertex $-1 -1 $-1 $439 $457 #
ellipse-curve $-1 -1 $-1 38.099999999999994 25.399999999999999 -396.875 0 1 0 16.446499999999997 0 0 1 I I #
point $-1 -1 $-1 29.146499999999996 25.399999999999999 -396.875 #
point $-1 -1 $-1 21.653500000000001 25.399999999999999 -396.875 #
ellipse-curve $-1 -1 $-1 25.399999999999999 25.399999999999999 -396.875 0 0 -1 -3.7464999999999988 0 0 1 I I #
coedge $-1 -1 $-1 $438 $426 $429 $450 forward $434 $-1 #
coedge $-1 -1 $-1 $426 $438 $428 $449 reversed $434 $-1 #
ellipse-curve $-1 -1 $-1 50.799999999999997 25.399999999999999 3.1749999999999998 0 0 -1 3.7464999999999988 0 0 1 I I #
coedge $-1 -1 $-1 $429 $428 $436 $453 reversed $412 $-1 #
edge $-1 -1 $-1 $430 0 $454 15.750000000000002 $446 $458 forward @7 unknown #
edge $-1 -1 $-1 $431 0 $440 15.750000000000002 $445 $459 forward @7 unknown #
point $-1 -1 $-1 47.0535 25.399999999999999 3.1749999999999998 #
point $-1 -1 $-1 54.546499999999995 25.399999999999999 3.1749999999999998 #
edge $-1 -1 $-1 $440 0 $454 3.1415926535897931 $448 $460 forward @7 unknown #
vertex $-1 -1 $-1 $449 $461 #
ellipse-curve $-1 -1 $-1 38.099999999999994 25.399999999999999 -396.875 0 1 0 8.9535 0 0 1 I I #
ellipse-curve $-1 -1 $-1 50.799999999999997 25.399999999999995 -396.875 0 0 1 -3.7464999999999988 2.8199664825478975e-015 0 1 I I #
point $-1 -1 $-1 54.546499999999995 25.399999999999999 -396.875 #
straight-curve $-1 -1 $-1 47.0535 25.399999999999999 3.1749999999999998 0 0 -25.399999999999999 I I #
straight-curve $-1 -1 $-1 54.546499999999995 25.399999999999999 3.1749999999999998 0 0 -25.399999999999999 I I #
ellipse-curve $-1 -1 $-1 50.799999999999997 25.399999999999999 -396.875 0 0 1 3.7464999999999988 0 0 1 I I #
point $-1 -1 $-1 47.0535 25.399999999999999 -396.875 #
End-of-ACIS-data 