600 0 1 0           
86 GICL ACIS Healer - Source: /gicl/data5/repository/PTC/V18/piping18/evap-tube.sat - 6 0 18 ACIS 6.0.3 Solaris 24 Sat Apr 13 21:20:25 2002 
1 9.999999999999999547e-07 1.000000000000000036e-10 
body $-1 $1 $-1 $-1 #
lump $-1 $-1 $2 $0 #
shell $-1 $-1 $-1 $3 $-1 $1 #
face $-1 $4 $5 $2 $-1 $6 forward single #
face $-1 $7 $8 $2 $-1 $9 forward single #
loop $-1 $-1 $10 $3 #
cone-surface $-1 50.79999999999999716 25.39999999999999858 3.174999999999999822 0 0 -1 -4.762499999999999289 0 0 1 I I 0 1 4.762499999999999289 forward I I I I #
face $-1 $11 $12 $2 $-1 $13 forward single #
loop $-1 $-1 $14 $4 #
cone-surface $-1 50.79999999999999716 25.39999999999999858 3.174999999999999822 0 0 -1 -4.762499999999999289 0 0 1 I I 0 1 4.762499999999999289 forward I I I I #
coedge $-1 $15 $16 $17 $18 forward $5 $-1 #
face $-1 $19 $20 $2 $-1 $21 forward single #
loop $-1 $-1 $22 $7 #
torus-surface $-1 38.09999999999999432 25.39999999999999858 -396.875 0 1 0 12.69999999999999929 4.762499999999999289 -1 0 0 forward_v I I I I #
coedge $-1 $23 $24 $25 $26 forward $8 $-1 #
coedge $-1 $25 $10 $27 $28 reversed $5 $-1 #
coedge $-1 $10 $25 $29 $30 reversed $5 $-1 #
coedge $-1 $24 $23 $10 $18 reversed $8 $-1 #
edge $-1 $31 0 $32 15.75000000000000178 $10 $33 forward 7 unknown #
face $-1 $34 $35 $2 $-1 $36 forward single #
loop $-1 $-1 $37 $11 #
torus-surface $-1 38.09999999999999432 25.39999999999999858 -396.875 0 1 0 12.69999999999999929 4.762499999999999289 -1 0 0 forward_v I I I I #
coedge $-1 $38 $39 $40 $41 forward $12 $-1 #
coedge $-1 $17 $14 $39 $42 reversed $8 $-1 #
coedge $-1 $14 $17 $43 $44 reversed $8 $-1 #
coedge $-1 $16 $15 $14 $26 reversed $5 $-1 #
edge $-1 $45 0 $46 15.75000000000000178 $25 $47 forward 7 unknown #
coedge $-1 $37 $40 $15 $28 forward $20 $-1 #
edge $-1 $46 1.538576790031707803e-16 $32 3.141592653589791784 $15 $48 forward 7 unknown #
coedge $-1 $49 $50 $16 $30 forward $51 $-1 #
edge $-1 $31 0 $45 3.141592653589793116 $16 $52 forward 7 unknown #
vertex $-1 $30 $53 #
vertex $-1 $28 $54 #
straight-curve $-1 55.5625 25.39999999999999858 3.174999999999999822 0 0 -25.39999999999999858 I I #
face $-1 $55 $56 $2 $-1 $57 forward single #
loop $-1 $-1 $58 $19 #
cone-surface $-1 25.39999999999999858 25.39999999999999858 -396.875 0 0 1 4.762499999999999289 0 0 1 I I 0 1 4.762499999999999289 forward I I I I #
coedge $-1 $59 $27 $60 $61 forward $20 $-1 #
coedge $-1 $60 $22 $62 $63 reversed $12 $-1 #
coedge $-1 $22 $60 $23 $42 forward $12 $-1 #
coedge $-1 $27 $59 $22 $41 reversed $20 $-1 #
edge $-1 $46 0 $64 3.141592653589793116 $40 $65 forward 7 unknown #
edge $-1 $32 0 $46 3.141592653589793116 $23 $66 forward 7 unknown #
coedge $-1 $67 $68 $24 $44 forward $69 $-1 #
edge $-1 $45 0 $31 3.141592653589793116 $24 $70 forward 7 unknown #
vertex $-1 $30 $71 #
vertex $-1 $26 $72 #
straight-curve $-1 46.03749999999999432 25.39999999999999858 3.174999999999999822 0 0 -25.39999999999999858 I I #
ellipse-curve $-1 50.79999999999999716 25.39999999999999503 -396.875 0 0 -1 -4.762499999999999289 2.819966482547897455e-15 0 1 I I #
coedge $-1 $73 $29 $68 $74 reversed $51 $-1 #
coedge $-1 $29 $73 $67 $75 forward $51 $-1 #
loop $-1 $-1 $49 $76 #
ellipse-curve $-1 50.79999999999999716 25.39999999999999858 3.174999999999999822 0 0 1 4.762499999999999289 0 0 1 I I #
point $-1 55.5625 25.39999999999999858 3.174999999999999822 #
point $-1 55.5625 25.39999999999999858 -396.875 #
face $-1 $77 $78 $2 $-1 $79 reversed single #
loop $-1 $-1 $80 $34 #
cone-surface $-1 25.39999999999999858 25.39999999999999858 -396.875 0 0 1 4.762499999999999289 0 0 1 I I 0 1 4.762499999999999289 forward I I I I #
coedge $-1 $81 $82 $83 $84 reversed $35 $-1 #
coedge $-1 $40 $37 $81 $85 reversed $20 $-1 #
coedge $-1 $39 $38 $37 $61 reversed $12 $-1 #
edge $-1 $32 0 $86 3.141592653589793116 $37 $87 forward 7 unknown #
coedge $-1 $83 $80 $38 $63 forward $56 $-1 #
edge $-1 $86 0 $64 3.141592653589793116 $38 $88 forward 7 unknown #
vertex $-1 $41 $89 #
ellipse-curve $-1 38.09999999999999432 25.39999999999999858 -396.875 0 1 0 7.9375 0 0 1 I I #
ellipse-curve $-1 50.79999999999999716 25.39999999999999858 -396.875 0 0 -1 4.762499999999999289 0 0 1 I I #
coedge $-1 $90 $43 $50 $75 reversed $69 $-1 #
coedge $-1 $43 $90 $49 $74 forward $69 $-1 #
loop $-1 $-1 $67 $91 #
ellipse-curve $-1 50.79999999999999716 25.39999999999999858 3.174999999999999822 0 0 1 -4.762499999999999289 0 0 1 I I #
point $-1 46.03749999999999432 25.39999999999999858 3.174999999999999822 #
point $-1 46.03749999999999432 25.39999999999999858 -396.875 #
coedge $-1 $50 $49 $92 $93 reversed $51 $-1 #
edge $-1 $94 4.894859747177907571e-16 $45 0.7853981633974428389 $49 $95 forward 7 unknown #
edge $-1 $96 4.160630785101371566e-15 $31 0.7853981633974576049 $50 $97 forward 7 unknown #
face $-1 $91 $51 $2 $-1 $98 reversed single #
face $-1 $99 $100 $2 $-1 $101 reversed single #
loop $-1 $-1 $102 $55 #
torus-surface $-1 25.39999999999999858 25.39999999999999858 3.174999999999999822 0 0 1 12.38249999999999851 7.619999999999999218 -1 0 0 forward_v I I I I #
coedge $-1 $62 $103 $104 $105 reversed $56 $-1 #
coedge $-1 $104 $58 $59 $85 forward $35 $-1 #
coedge $-1 $58 $104 $106 $107 reversed $35 $-1 #
coedge $-1 $103 $62 $58 $84 forward $56 $-1 #
edge $-1 $64 0 $108 15.75000000000000178 $58 $109 forward 7 unknown #
edge $-1 $64 0 $86 3.141592653589793116 $59 $110 forward 7 unknown #
vertex $-1 $85 $111 #
ellipse-curve $-1 38.09999999999999432 25.39999999999999858 -396.875 0 1 0 17.46249999999999858 0 0 1 I I #
ellipse-curve $-1 25.39999999999999858 25.39999999999999858 -396.875 0 0 1 -4.762499999999999289 0 0 1 I I #
point $-1 30.16249999999999787 25.39999999999999858 -396.875 #
coedge $-1 $68 $67 $112 $113 forward $69 $-1 #
face $-1 $114 $69 $2 $-1 $115 reversed single #
coedge $-1 $116 $117 $73 $93 forward $118 $-1 #
edge $-1 $96 0 $94 3.14159265358979356 $92 $119 forward 7 unknown #
vertex $-1 $120 $121 #
ellipse-curve $-1 38.41749999999995424 25.39999999999998437 3.174999999999982059 -1.850911917149404955e-15 1 -2.425446944289451542e-16 5.388153672641537995 1.127986593019158982e-14 5.388153672641503356 1 I I #
vertex $-1 $122 $123 #
ellipse-curve $-1 63.18249999999990507 25.39999999999999858 3.175000000000042011 0 -1 0 -5.388153672641402103 0 5.388153672641442959 1 I I #
torus-surface $-1 50.79999999999999716 25.39999999999999858 3.174999999999999822 0 0 1 12.38249999999999851 7.619999999999999218 -1 0 0 forward_v I I I I #
face $-1 $124 $125 $2 $-1 $126 forward single #
loop $-1 $-1 $127 $77 #
torus-surface $-1 25.39999999999999858 25.39999999999999858 3.174999999999999822 0 0 1 12.38249999999999851 7.619999999999999218 -1 0 0 forward_v I I I I #
coedge $-1 $128 $129 $130 $131 reversed $78 $-1 #
coedge $-1 $80 $83 $129 $132 reversed $56 $-1 #
coedge $-1 $82 $81 $80 $105 forward $35 $-1 #
edge $-1 $86 0 $133 15.75000000000000178 $104 $134 forward 7 unknown #
coedge $-1 $127 $130 $82 $107 forward $100 $-1 #
edge $-1 $108 0 $133 3.141592653589793116 $82 $135 forward 7 unknown #
vertex $-1 $107 $136 #
straight-curve $-1 30.16249999999999787 25.39999999999999858 -396.875 0 0 25.39999999999999858 I I #
ellipse-curve $-1 25.39999999999999858 25.39999999999999858 -396.875 0 0 1 4.762499999999999289 0 0 1 I I #
point $-1 20.63749999999999929 25.39999999999999858 -396.875 #
coedge $-1 $137 $138 $90 $113 reversed $139 $-1 #
edge $-1 $96 0 $94 3.141592653589792672 $112 $140 forward 7 unknown #
face $-1 $-1 $139 $2 $-1 $141 forward single #
torus-surface $-1 50.79999999999999716 25.39999999999999858 3.174999999999999822 0 0 1 12.38249999999999851 7.619999999999999218 -1 0 0 forward_v I I I I #
coedge $-1 $142 $92 $138 $120 reversed $118 $-1 #
coedge $-1 $92 $142 $137 $122 forward $118 $-1 #
loop $-1 $-1 $92 $143 #
ellipse-curve $-1 50.79999999999999716 25.39999999999999858 8.563153672641485414 0 0 1 6.994346327358502258 0 0 1 I I #
edge $-1 $144 -0 $94 0.0499999999999999889 $116 $145 forward 7 unknown #
point $-1 43.80565367264149756 25.39999999999999503 8.563153672641485414 #
edge $-1 $146 -4.945173098216748377e-17 $96 0.04999999999999994033 $117 $147 forward 7 unknown #
point $-1 57.79434632735847543 25.39999999999999858 8.563153672641467651 #
face $-1 $148 $149 $2 $-1 $150 forward single #
loop $-1 $-1 $151 $99 #
cone-surface $-1 25.39999999999999858 25.39999999999999858 -9.84250000000000469 0 0 1 -25.39999999999999503 0 0 1 I I -0.7071067811865474617 0.7071067811865475727 25.39999999999999503 forward I I I I #
coedge $-1 $152 $106 $153 $154 reversed $100 $-1 #
coedge $-1 $153 $102 $155 $156 forward $78 $-1 #
coedge $-1 $102 $153 $103 $132 forward $78 $-1 #
coedge $-1 $106 $152 $102 $131 forward $100 $-1 #
edge $-1 $157 6.118574683972436973e-16 $108 0.7853981633974472798 $130 $158 forward 7 unknown #
edge $-1 $133 0 $108 3.141592653589793116 $103 $159 forward 7 unknown #
vertex $-1 $107 $160 #
straight-curve $-1 20.63749999999999929 25.39999999999999858 -396.875 0 0 25.39999999999999858 I I #
ellipse-curve $-1 25.39999999999999858 25.39999999999999858 3.174999999999999822 0 0 1 4.762499999999999289 0 0 1 I I #
point $-1 30.16249999999999787 25.39999999999999858 3.174999999999999822 #
coedge $-1 $161 $112 $117 $122 reversed $139 $-1 #
coedge $-1 $112 $161 $116 $120 forward $139 $-1 #
loop $-1 $-1 $161 $114 #
ellipse-curve $-1 50.79999999999999716 25.39999999999999858 8.563153672641485414 0 0 -1 6.994346327358502258 0 0 1 I I #
cone-surface $-1 50.79999999999999716 25.39999999999999858 -9.842500000000066862 0 0 1 -25.40000000000007319 0 0 1 I I -0.7071067811865485719 0.7071067811865464625 25.40000000000007319 forward I I I I #
coedge $-1 $117 $116 $162 $163 reversed $118 $-1 #
face $-1 $76 $118 $2 $-1 $164 forward single #
vertex $-1 $165 $166 #
straight-curve $-1 44.70367928474843211 25.39999999999999858 9.46117928474838088 -17.96051224213833564 -5.639932965095780079e-14 -17.96051224213827879 I I #
vertex $-1 $167 $168 #
straight-curve $-1 56.89632071525156221 25.39999999999999858 9.461179284748382656 17.96051224213827524 0 -17.96051224213833208 I I #
face $-1 $169 $170 $2 $-1 $171 forward single #
loop $-1 $-1 $172 $124 #
cone-surface $-1 25.39999999999999858 25.39999999999999858 -9.84250000000000469 0 0 1 -25.39999999999999503 0 0 1 I I -0.7071067811865474617 0.7071067811865475727 25.39999999999999503 forward I I I I #
coedge $-1 $173 $174 $152 $175 forward $125 $-1 #
coedge $-1 $130 $127 $151 $175 reversed $100 $-1 #
coedge $-1 $129 $128 $127 $154 forward $78 $-1 #
edge $-1 $176 -2.447429873588973507e-16 $133 0.7853981633974466137 $127 $177 forward 7 unknown #
coedge $-1 $178 $179 $128 $156 reversed $149 $-1 #
edge $-1 $157 0 $176 3.141592653589792672 $155 $180 forward 7 unknown #
vertex $-1 $181 $182 #
ellipse-curve $-1 37.78250000000000597 25.39999999999999858 3.174999999999994937 0 -1 0 -5.388153672641498027 0 5.388153672641494474 1 I I #
ellipse-curve $-1 25.39999999999999858 25.39999999999999858 3.174999999999999822 0 0 1 -4.762499999999999289 0 0 1 I I #
point $-1 20.63749999999999929 25.39999999999999858 3.174999999999999822 #
coedge $-1 $138 $137 $183 $184 forward $139 $-1 #
coedge $-1 $185 $186 $142 $163 forward $187 $-1 #
edge $-1 $146 0 $144 3.141592653589793116 $162 $188 forward 7 unknown #
cone-surface $-1 50.79999999999999716 25.39999999999999858 -9.842500000000066862 0 0 1 -25.40000000000007319 0 0 1 I I -0.7071067811865485719 0.7071067811865464625 25.40000000000007319 forward I I I I #
edge $-1 $189 1.186402557248488956e-17 $144 0.7853981633974438381 $185 $190 forward 7 unknown #
point $-1 44.70367928474843211 25.39999999999999858 9.46117928474838088 #
edge $-1 $191 9.990758376829557304e-18 $146 0.7853981633974389531 $186 $192 forward 7 unknown #
point $-1 56.89632071525157642 25.39999999999999858 9.461179284748398644 #
face $-1 $193 $194 $2 $-1 $195 reversed single #
loop $-1 $-1 $196 $148 #
torus-surface $-1 25.39999999999999858 25.39999999999999858 3.174999999999999822 0 0 1 12.38249999999999851 8.889999999999998792 -1 0 0 forward_v I I I I #
coedge $-1 $179 $178 $197 $198 forward $149 $-1 #
coedge $-1 $199 $151 $179 $200 reversed $125 $-1 #
coedge $-1 $151 $199 $178 $181 forward $125 $-1 #
edge $-1 $157 0 $176 3.14159265358979356 $151 $201 forward 7 unknown #
vertex $-1 $200 $202 #
ellipse-curve $-1 13.01749999999998764 25.39999999999998437 3.174999999999994049 -1.850911917149405744e-15 1 -2.425446944289558531e-16 5.388153672641506908 1.127986593019158982e-14 5.388153672641495362 1 I I #
coedge $-1 $172 $155 $174 $181 reversed $149 $-1 #
coedge $-1 $155 $172 $173 $200 forward $149 $-1 #
ellipse-curve $-1 25.39999999999999858 25.39999999999999858 8.563153672641488967 0 0 -1 6.994346327358507587 0 0 1 I I #
edge $-1 $203 0 $157 0.04999999999999969053 $174 $204 forward 7 unknown #
point $-1 32.39434632735849817 25.39999999999999858 8.56315367264149252 #
coedge $-1 $205 $206 $161 $184 reversed $207 $-1 #
edge $-1 $146 0 $144 3.141592653589793116 $183 $208 forward 7 unknown #
coedge $-1 $209 $162 $206 $165 reversed $187 $-1 #
coedge $-1 $162 $209 $205 $167 forward $187 $-1 #
loop $-1 $-1 $162 $210 #
ellipse-curve $-1 50.79999999999999716 25.39999999999999858 9.461179284748382656 0 0 1 6.096320715251565936 0 0 1 I I #
vertex $-1 $211 $212 #
ellipse-curve $-1 38.41749999999999687 25.39999999999999858 3.174999999999998934 0 -1 0 8.890000000000002345 0 2.114974861910922894e-15 1 I I #
vertex $-1 $167 $213 #
ellipse-curve $-1 63.18250000000008271 25.39999999999999858 3.174999999999978506 0 1 0 -8.890000000000080504 0 2.255973186038317964e-14 1 I I #
face $-1 $214 $215 $2 $-1 $216 forward single #
loop $-1 $217 $218 $169 #
plane-surface $-1 25.39999999999999858 25.39999999999999858 3.174999999999999822 0 0 1 -25.39999999999999858 0 0 forward_v I I I I #
coedge $-1 $219 $220 $218 $221 forward $170 $-1 #
coedge $-1 $220 $219 $172 $198 reversed $170 $-1 #
edge $-1 $203 0 $222 3.141592653589793116 $197 $223 forward 7 unknown #
coedge $-1 $174 $173 $224 $225 reversed $125 $-1 #
edge $-1 $222 -0 $176 0.04999999999999999584 $173 $226 forward 7 unknown #
ellipse-curve $-1 25.39999999999999858 25.39999999999999858 8.563153672641488967 0 0 1 6.994346327358507587 0 0 1 I I #
point $-1 18.40565367264149188 25.39999999999999503 8.563153672641488967 #
vertex $-1 $227 $228 #
straight-curve $-1 31.4963207152515885 25.39999999999999858 9.461179284748402196 17.96051224213833564 0 -17.96051224213827879 I I #
coedge $-1 $229 $183 $186 $167 reversed $207 $-1 #
coedge $-1 $183 $229 $185 $165 forward $207 $-1 #
loop $-1 $-1 $229 $230 #
ellipse-curve $-1 50.79999999999999716 25.39999999999999858 9.46117928474838088 4.625685908375853901e-16 0 -1 6.096320715251565936 0 2.819966482547897455e-15 1 I I #
coedge $-1 $186 $185 $231 $211 reversed $187 $-1 #
face $-1 $143 $187 $2 $-1 $232 forward single #
edge $-1 $191 0 $189 3.141592653589793116 $209 $233 forward 7 unknown #
point $-1 47.30749999999999744 25.39999999999999858 3.175000000000001155 #
point $-1 54.29250000000000398 25.39999999999999858 3.175000000000001155 #
face $-1 $234 $235 $2 $-1 $236 reversed single #
loop $-1 $-1 $224 $193 #
torus-surface $-1 25.39999999999999858 25.39999999999999858 3.174999999999999822 0 0 1 12.38249999999999851 8.889999999999998792 -1 0 0 forward_v I I I I #
loop $-1 $-1 $237 $169 #
coedge $-1 $238 $238 $196 $221 reversed $194 $-1 #
coedge $-1 $197 $196 $239 $240 forward $170 $-1 #
coedge $-1 $196 $197 $241 $227 reversed $170 $-1 #
edge $-1 $242 0 $243 3.141592653589793116 $218 $244 forward 7 unknown #
vertex $-1 $240 $245 #
ellipse-curve $-1 25.39999999999999858 25.39999999999999858 9.461179284748402196 0 0 -1 6.096320715251589029 0 0 1 I I #
coedge $-1 $239 $241 $199 $225 forward $215 $-1 #
edge $-1 $203 0 $222 3.141592653589793116 $224 $246 forward 7 unknown #
straight-curve $-1 19.30367928474840866 25.39999999999999858 9.461179284748402196 -17.96051224213830366 -5.639932965095824255e-14 -17.96051224213830366 I I #
edge $-1 $242 -4.058745590586823632e-18 $203 0.7853981633974468357 $241 $247 forward 7 unknown #
point $-1 31.4963207152515885 25.39999999999999858 9.461179284748402196 #
coedge $-1 $206 $205 $248 $249 forward $207 $-1 #
face $-1 $210 $207 $2 $-1 $250 forward single #
coedge $-1 $248 $248 $209 $211 forward $251 $-1 #
torus-surface $-1 50.79999999999999716 25.39999999999999858 3.174999999999999822 0 0 1 12.38249999999999851 8.889999999999998792 -1 0 0 forward_v I I I I #
ellipse-curve $-1 50.79999999999999716 25.39999999999999858 3.174999999999999822 -4.037174635000564173e-16 0 1 3.492500000000004157 0 1.409983241273948727e-15 1 I I #
face $-1 $252 $253 $2 $-1 $254 reversed single #
loop $-1 $-1 $255 $214 #
cone-surface $-1 25.39999999999999858 25.39999999999999858 -396.875 0 0 1 3.746499999999999719 0 0 1 I I 0 1 3.746499999999999719 forward I I I I #
coedge $-1 $256 $256 $255 $257 reversed $217 $-1 #
coedge $-1 $218 $218 $258 $259 forward $194 $-1 #
coedge $-1 $258 $224 $219 $240 reversed $215 $-1 #
edge $-1 $243 1.498613756524418342e-17 $222 0.7853981633974469467 $239 $260 forward 7 unknown #
coedge $-1 $224 $258 $220 $227 forward $215 $-1 #
vertex $-1 $227 $261 #
vertex $-1 $259 $262 #
ellipse-curve $-1 25.39999999999999858 25.39999999999999858 3.174999999999999822 4.03717463500057009e-16 0 -1 3.492499999999998828 0 1.409983241273948727e-15 1 I I #
point $-1 19.30367928474840866 25.39999999999999858 9.461179284748402196 #
ellipse-curve $-1 25.39999999999999858 25.39999999999999858 9.461179284748402196 0 0 1 6.096320715251589029 0 0 1 I I #
ellipse-curve $-1 37.78250000000000597 25.39999999999999858 3.174999999999994493 0 1 0 -8.890000000000007674 0 6.697420396051256357e-15 1 I I #
coedge $-1 $231 $231 $229 $249 reversed $251 $-1 #
edge $-1 $191 4.196118518268289391e-16 $189 3.141592653589789563 $248 $263 forward 7 unknown #
torus-surface $-1 50.79999999999999716 25.39999999999999858 3.174999999999999822 0 0 1 12.38249999999999851 8.889999999999998792 -1 0 0 forward_v I I I I #
loop $-1 $264 $248 $265 #
face $-1 $266 $267 $2 $-1 $268 reversed single #
loop $-1 $-1 $269 $234 #
cone-surface $-1 25.39999999999999858 25.39999999999999858 -396.875 0 0 1 3.746499999999999719 0 0 1 I I 0 1 3.746499999999999719 forward I I I I #
coedge $-1 $270 $271 $237 $257 forward $235 $-1 #
coedge $-1 $237 $237 $272 $273 reversed $217 $-1 #
edge $-1 $274 0 $275 3.141592653589793116 $255 $276 forward 7 unknown #
coedge $-1 $241 $239 $238 $259 reversed $215 $-1 #
edge $-1 $242 0 $243 3.141592653589793116 $258 $277 forward 7 unknown #
ellipse-curve $-1 13.01749999999999297 25.39999999999999858 3.174999999999995381 0 -1 0 8.890000000000007674 0 5.63993296509579491e-15 1 I I #
point $-1 28.89249999999999829 25.39999999999999858 3.175000000000001155 #
point $-1 21.90749999999999886 25.39999999999999858 3.175000000000001155 #
ellipse-curve $-1 50.79999999999999716 25.40000000000000568 3.174999999999999822 4.037174635000564173e-16 -6.519511613396775321e-31 -1 3.492500000000004157 -5.63993296509579491e-15 1.409983241273948727e-15 1 I I #
loop $-1 $-1 $278 $265 #
face $-1 $230 $251 $2 $-1 $279 reversed single #
face $-1 $280 $281 $2 $-1 $282 reversed single #
loop $-1 $-1 $283 $252 #
torus-surface $-1 38.09999999999999432 25.39999999999999858 -396.875 0 1 0 12.69999999999999929 3.746499999999999719 -1 0 0 forward_v I I I I #
coedge $-1 $284 $285 $286 $287 forward $253 $-1 #
coedge $-1 $288 $255 $284 $289 reversed $235 $-1 #
coedge $-1 $255 $288 $285 $290 forward $235 $-1 #
coedge $-1 $285 $284 $256 $273 forward $253 $-1 #
edge $-1 $275 0 $274 3.141592653589793116 $272 $291 forward 7 unknown #
vertex $-1 $290 $292 #
vertex $-1 $273 $293 #
ellipse-curve $-1 25.39999999999999858 25.39999999999999858 3.174999999999999822 0 0 1 3.746499999999998831 0 0 1 I I #
ellipse-curve $-1 25.39999999999999858 25.39999999999999858 3.174999999999999822 -4.03717463500057009e-16 0 1 3.492499999999998828 0 1.409983241273948727e-15 1 I I #
coedge $-1 $294 $294 $295 $296 forward $264 $-1 #
plane-surface $-1 50.79999999999999716 25.39999999999999858 3.174999999999999822 0 0 1 -25.39999999999999858 0 0 forward_v I I I I #
face $-1 $297 $298 $2 $-1 $299 reversed single #
loop $-1 $-1 $300 $266 #
torus-surface $-1 38.09999999999999432 25.39999999999999858 -396.875 0 1 0 12.69999999999999929 3.746499999999999719 -1 0 0 forward_v I I I I #
coedge $-1 $286 $301 $302 $303 forward $267 $-1 #
coedge $-1 $272 $269 $270 $289 forward $253 $-1 #
coedge $-1 $269 $272 $271 $290 reversed $253 $-1 #
coedge $-1 $304 $283 $269 $287 reversed $267 $-1 #
edge $-1 $305 0 $306 3.141592653589793116 $286 $307 forward 7 unknown #
coedge $-1 $271 $270 $308 $309 forward $235 $-1 #
edge $-1 $306 0 $275 15.75000000000000178 $284 $310 forward 7 unknown #
edge $-1 $305 0 $274 15.75000000000000178 $285 $311 forward 7 unknown #
ellipse-curve $-1 25.39999999999999858 25.39999999999999858 3.174999999999999822 0 0 1 -3.746499999999998831 0 0 1 I I #
point $-1 29.14649999999999608 25.39999999999999858 3.174999999999999822 #
point $-1 21.65350000000000108 25.39999999999999858 3.174999999999999822 #
coedge $-1 $278 $278 $312 $313 forward $264 $-1 #
coedge $-1 $314 $315 $278 $296 reversed $298 $-1 #
edge $-1 $316 0 $317 3.141592653589793116 $295 $318 forward 7 unknown #
face $-1 $265 $319 $2 $-1 $320 reversed single #
loop $-1 $-1 $314 $280 #
cone-surface $-1 50.79999999999999716 25.39999999999999858 3.174999999999999822 0 0 -1 -3.746499999999999719 0 0 1 I I 0 1 3.746499999999999719 forward I I I I #
coedge $-1 $308 $321 $304 $322 forward $281 $-1 #
coedge $-1 $283 $304 $323 $324 forward $267 $-1 #
coedge $-1 $321 $308 $283 $303 reversed $281 $-1 #
edge $-1 $325 0 $306 3.141592653589793116 $283 $326 forward 7 unknown #
coedge $-1 $301 $286 $300 $322 reversed $267 $-1 #
vertex $-1 $322 $327 #
vertex $-1 $287 $328 #
ellipse-curve $-1 25.39999999999999858 25.39999999999999858 -396.875 0 0 -1 3.746499999999998831 0 0 1 I I #
coedge $-1 $302 $300 $288 $309 reversed $281 $-1 #
edge $-1 $306 0 $305 3.141592653589793116 $308 $329 forward 7 unknown #
straight-curve $-1 21.65350000000000108 25.39999999999999858 -396.875 0 0 25.39999999999999858 I I #
straight-curve $-1 29.14649999999999608 25.39999999999999858 -396.875 0 0 25.39999999999999858 I I #
coedge $-1 $330 $331 $294 $313 reversed $319 $-1 #
edge $-1 $317 0 $316 3.141592653589793116 $312 $332 forward 7 unknown #
coedge $-1 $333 $295 $331 $334 forward $298 $-1 #
coedge $-1 $295 $333 $330 $335 reversed $298 $-1 #
vertex $-1 $313 $336 #
vertex $-1 $313 $337 #
ellipse-curve $-1 50.79999999999999716 25.39999999999999858 3.174999999999999822 0 0 -1 -3.746499999999998831 0 0 1 I I #
loop $-1 $-1 $330 $297 #
cone-surface $-1 50.79999999999999716 25.39999999999999858 3.174999999999999822 0 0 -1 -3.746499999999999719 0 0 1 I I 0 1 3.746499999999999719 forward I I I I #
coedge $-1 $300 $302 $333 $338 forward $281 $-1 #
edge $-1 $339 0 $305 3.141592653589793116 $304 $340 forward 7 unknown #
coedge $-1 $331 $330 $301 $324 reversed $319 $-1 #
edge $-1 $339 -1.955817953430147788e-16 $325 3.141592653589794892 $323 $341 forward 7 unknown #
vertex $-1 $324 $342 #
ellipse-curve $-1 38.09999999999999432 25.39999999999999858 -396.875 0 1 0 16.44649999999999679 0 0 1 I I #
point $-1 29.14649999999999608 25.39999999999999858 -396.875 #
point $-1 21.65350000000000108 25.39999999999999858 -396.875 #
ellipse-curve $-1 25.39999999999999858 25.39999999999999858 -396.875 0 0 -1 -3.746499999999998831 0 0 1 I I #
coedge $-1 $323 $312 $315 $335 forward $319 $-1 #
coedge $-1 $312 $323 $314 $334 reversed $319 $-1 #
ellipse-curve $-1 50.79999999999999716 25.39999999999999858 3.174999999999999822 0 0 -1 3.746499999999998831 0 0 1 I I #
coedge $-1 $315 $314 $321 $338 reversed $298 $-1 #
edge $-1 $316 0 $339 15.75000000000000178 $331 $343 forward 7 unknown #
edge $-1 $317 0 $325 15.75000000000000178 $330 $344 forward 7 unknown #
point $-1 47.05349999999999966 25.39999999999999858 3.174999999999999822 #
point $-1 54.54649999999999466 25.39999999999999858 3.174999999999999822 #
edge $-1 $325 0 $339 3.141592653589793116 $333 $345 forward 7 unknown #
vertex $-1 $334 $346 #
ellipse-curve $-1 38.09999999999999432 25.39999999999999858 -396.875 0 1 0 8.953500000000000014 0 0 1 I I #
ellipse-curve $-1 50.79999999999999716 25.39999999999999503 -396.875 0 0 1 -3.746499999999998831 2.819966482547897455e-15 0 1 I I #
point $-1 54.54649999999999466 25.39999999999999858 -396.875 #
straight-curve $-1 47.05349999999999966 25.39999999999999858 3.174999999999999822 0 0 -25.39999999999999858 I I #
straight-curve $-1 54.54649999999999466 25.39999999999999858 3.174999999999999822 0 0 -25.39999999999999858 I I #
ellipse-curve $-1 50.79999999999999716 25.39999999999999858 -396.875 0 0 1 3.746499999999998831 0 0 1 I I #
point $-1 47.05349999999999966 25.39999999999999858 -396.875 #
End-of-ACIS-data 