600 0 1 0           
101 GICL Pro/E ACIS Translator - Source: f:/data5/repository/PTC/V18/piping18/evaporator_shroud.prt - 6 0 13 ACIS 6.0.3 NT 24 Thu Apr 04 13:31:39 2002 
1 9.9999999999999995e-007 1e-010 
body $-1 $1 $-1 $2 #
lump $-1 $-1 $3 $0 #
transform $-1 1 0 0 0 1 0 0 0 1 0 0 0 25.399999999999999 no_rotate no_reflect no_shear #
shell $-1 $-1 $-1 $4 $-1 $1 #
face $-1 $5 $6 $3 $-1 $7 forward single #
face $-1 $8 $9 $3 $-1 $10 reversed single #
loop $-1 $11 $12 $4 #
plane-surface $-1 17.5 14 0 -1 0 0 0 0 1 forward_v I I I I #
face $-1 $13 $14 $3 $-1 $15 reversed single #
loop $-1 $-1 $16 $5 #
cone-surface $-1 17.5 7 7.75 1 0 0 0 0 5.25 1 I I 0 1 5.25 forward I I I I #
loop $-1 $-1 $17 $4 #
coedge $-1 $18 $18 $16 $19 reversed $6 $-1 #
face $-1 $20 $21 $3 $-1 $22 forward single #
loop $-1 $-1 $23 $8 #
cone-surface $-1 17.5 7 7.75 1 0 0 0 0 5.25 1 I I 0 1 5.25 forward I I I I #
coedge $-1 $24 $25 $12 $19 forward $9 $-1 #
coedge $-1 $26 $27 $28 $29 forward $11 $-1 #
coedge $-1 $12 $12 $23 $30 reversed $6 $-1 #
edge $-1 $31 0 $32 3.1415926535897931 $12 $33 forward 7 unknown #
face $-1 $34 $35 $3 $-1 $36 forward single #
loop $-1 $37 $38 $13 #
plane-surface $-1 18.599999999999998 14 0 1 0 0 0 0 -1 forward_v I I I I #
coedge $-1 $39 $40 $18 $30 forward $14 $-1 #
coedge $-1 $41 $16 $40 $42 reversed $9 $-1 #
coedge $-1 $16 $41 $39 $43 reversed $9 $-1 #
coedge $-1 $44 $17 $45 $46 reversed $11 $-1 #
coedge $-1 $17 $47 $48 $49 reversed $11 $-1 #
coedge $-1 $50 $51 $17 $29 reversed $52 $-1 #
edge $-1 $53 0 $54 0.29999999999999999 $17 $55 forward 7 unknown #
edge $-1 $32 0 $31 3.1415926535897931 $18 $56 forward 7 unknown #
vertex $-1 $30 $57 #
vertex $-1 $30 $58 #
ellipse-curve $-1 17.5 7 7.75 -1 0 0 0 0 5.25 1 I I #
face $-1 $59 $60 $3 $-1 $61 forward single #
loop $-1 $-1 $62 $20 #
cone-surface $-1 17.599999999999998 7 7.75 1 0 0 0 0 -5.3499999999999996 1 I I 0 1 5.3499999999999996 forward I I I I #
loop $-1 $-1 $63 $13 #
coedge $-1 $64 $64 $65 $66 forward $21 $-1 #
coedge $-1 $67 $23 $25 $43 forward $14 $-1 #
coedge $-1 $23 $67 $24 $42 forward $14 $-1 #
coedge $-1 $25 $24 $63 $68 reversed $9 $-1 #
edge $-1 $69 0 $32 1.1000000000000014 $40 $70 forward 7 unknown #
edge $-1 $31 0 $71 1.1000000000000014 $39 $72 forward 7 unknown #
coedge $-1 $73 $26 $74 $75 forward $11 $-1 #
coedge $-1 $76 $77 $26 $46 forward $78 $-1 #
edge $-1 $79 0 $54 1.2999999999999989 $26 $80 forward 7 unknown #
coedge $-1 $27 $73 $81 $82 reversed $11 $-1 #
coedge $-1 $83 $84 $27 $49 forward $85 $-1 #
edge $-1 $53 0 $86 12.6 $27 $87 forward 7 unknown #
coedge $-1 $88 $28 $84 $89 forward $52 $-1 #
coedge $-1 $28 $90 $76 $91 forward $52 $-1 #
loop $-1 $-1 $50 $92 #
vertex $-1 $49 $93 #
vertex $-1 $46 $94 #
straight-curve $-1 17.5 1.4000000000000021 0.099999999999999992 0 0 1 I I #
ellipse-curve $-1 17.5 7 7.75 -1 0 0 0 0 -5.25 1 I I #
point $-1 17.5 7 13 #
point $-1 17.5 7 2.5 #
face $-1 $95 $96 $3 $-1 $97 reversed single #
loop $-1 $-1 $98 $34 #
cone-surface $-1 17.599999999999998 7 7.75 1 0 0 0 0 -5.3499999999999996 1 I I 0 1 5.3499999999999996 forward I I I I #
coedge $-1 $65 $99 $100 $101 forward $35 $-1 #
coedge $-1 $102 $102 $41 $68 forward $37 $-1 #
coedge $-1 $38 $38 $103 $104 forward $21 $-1 #
coedge $-1 $105 $62 $38 $66 reversed $35 $-1 #
edge $-1 $106 0 $107 3.1415926535897931 $38 $108 forward 7 unknown #
coedge $-1 $40 $39 $102 $109 reversed $14 $-1 #
edge $-1 $71 1.6917684184764289e-016 $69 3.1415926535897931 $41 $110 forward 7 unknown #
vertex $-1 $42 $111 #
straight-curve $-1 18.600000000000001 6.9999999999999991 2.5 -1 0 0 I I #
vertex $-1 $109 $112 #
straight-curve $-1 17.5 7 13 1 8.0743492700011283e-016 0 I I #
coedge $-1 $47 $44 $113 $114 reversed $11 $-1 #
coedge $-1 $115 $116 $44 $75 reversed $117 $-1 #
edge $-1 $79 0 $118 13.1 $44 $119 forward 7 unknown #
coedge $-1 $120 $45 $51 $91 reversed $78 $-1 #
coedge $-1 $45 $120 $115 $121 forward $78 $-1 #
loop $-1 $-1 $76 $122 #
vertex $-1 $75 $123 #
straight-curve $-1 17.5 0.10000000000000142 0.39999999999999997 0 1 0 I I #
coedge $-1 $124 $125 $47 $82 forward $126 $-1 #
edge $-1 $86 -5.4123372450476381e-016 $127 13.399999999999999 $47 $128 forward 7 unknown #
coedge $-1 $129 $48 $130 $131 reversed $85 $-1 #
coedge $-1 $48 $129 $50 $89 reversed $85 $-1 #
loop $-1 $-1 $48 $132 #
vertex $-1 $49 $133 #
straight-curve $-1 17.5 1.4000000000000004 0.099999999999999992 0 1 0 I I #
coedge $-1 $134 $50 $135 $136 forward $52 $-1 #
edge $-1 $53 0 $137 4.0999999999999996 $84 $138 forward 7 unknown #
coedge $-1 $51 $139 $140 $141 forward $52 $-1 #
edge $-1 $142 0 $54 0.099999999999997868 $51 $143 forward 7 unknown #
face $-1 $122 $52 $3 $-1 $144 reversed single #
point $-1 17.5 1.4000000000000004 0.099999999999999992 #
point $-1 17.5 1.4000000000000004 0.39999999999999997 #
face $-1 $145 $146 $3 $-1 $147 forward single #
loop $-1 $148 $149 $59 #
plane-surface $-1 17.599999999999998 14 0 -1 0 0 0 0 1 forward_v I I I I #
coedge $-1 $103 $150 $105 $151 forward $60 $-1 #
coedge $-1 $62 $105 $149 $152 forward $35 $-1 #
coedge $-1 $150 $103 $62 $101 reversed $60 $-1 #
edge $-1 $153 0 $107 1 $100 $154 forward 7 unknown #
coedge $-1 $63 $63 $67 $109 forward $37 $-1 #
coedge $-1 $100 $98 $64 $104 reversed $60 $-1 #
edge $-1 $107 0 $106 3.1415926535897927 $64 $155 forward 7 unknown #
coedge $-1 $99 $65 $98 $151 reversed $35 $-1 #
vertex $-1 $104 $156 #
vertex $-1 $104 $157 #
ellipse-curve $-1 18.599999999999998 7.0000000000000009 7.75 1 0 0 0 -8.8817841970012523e-016 5.3499999999999996 1 I I #
edge $-1 $69 1.6917684184764289e-016 $71 3.1415926535897931 $67 $158 forward 7 unknown #
ellipse-curve $-1 18.599999999999998 7 7.75 -1 0 0 0 0 5.25 1 I I #
point $-1 18.600000000000001 6.9999999999999991 2.5 #
point $-1 18.600000000000001 7.0000000000000009 13 #
coedge $-1 $159 $160 $73 $114 forward $161 $-1 #
edge $-1 $127 0 $118 13.899999999999999 $73 $162 forward 7 unknown #
coedge $-1 $163 $74 $77 $121 reversed $117 $-1 #
coedge $-1 $74 $163 $159 $164 forward $117 $-1 #
loop $-1 $-1 $163 $165 #
vertex $-1 $114 $166 #
straight-curve $-1 17.5 0.10000000000000142 0.40000000000000036 0 0 1 I I #
coedge $-1 $77 $76 $167 $168 reversed $78 $-1 #
edge $-1 $169 0 $79 0.10000000000000142 $115 $170 forward 7 unknown #
face $-1 $165 $78 $3 $-1 $171 reversed single #
point $-1 17.499999999999996 0.10000000000000142 0.40000000000000036 #
coedge $-1 $172 $81 $160 $173 reversed $126 $-1 #
coedge $-1 $81 $174 $175 $176 forward $126 $-1 #
loop $-1 $-1 $81 $177 #
vertex $-1 $82 $178 #
straight-curve $-1 17.5 14 0.10000000000000053 0 0 1 I I #
coedge $-1 $84 $83 $179 $180 reversed $85 $-1 #
coedge $-1 $175 $181 $83 $131 forward $182 $-1 #
edge $-1 $183 1.7763568394002505e-015 $86 4.1000000000000014 $130 $184 forward 7 unknown #
face $-1 $185 $85 $3 $-1 $186 reversed single #
point $-1 17.5 14 0.099999999999999992 #
coedge $-1 $187 $88 $188 $189 forward $52 $-1 #
coedge $-1 $179 $190 $88 $136 reversed $191 $-1 #
edge $-1 $137 0 $192 0.29999999999999999 $135 $193 forward 7 unknown #
vertex $-1 $89 $194 #
straight-curve $-1 17.5 1.4000000000000021 0.099999999999999992 -1 0 0 I I #
coedge $-1 $90 $195 $196 $197 reversed $52 $-1 #
coedge $-1 $198 $167 $90 $141 reversed $148 $-1 #
edge $-1 $199 0 $142 0.39999999999999997 $140 $200 forward 7 unknown #
vertex $-1 $141 $201 #
straight-curve $-1 17.599999999999998 1.4000000000000021 0.39999999999999997 -1 0 0 I I #
plane-surface $-1 17.599999999999998 1.4000000000000021 0 0 1 0 0 0 1 forward_v I I I I #
face $-1 $202 $203 $3 $-1 $204 forward single #
loop $-1 $-1 $205 $95 #
plane-surface $-1 17.549999999999997 7.0499999999999998 0 0 0 -1 0 -1 0 forward_v I I I I #
loop $-1 $-1 $198 $59 #
coedge $-1 $206 $206 $99 $152 reversed $96 $-1 #
coedge $-1 $98 $100 $206 $207 forward $60 $-1 #
edge $-1 $208 0 $106 1 $98 $209 forward 7 unknown #
edge $-1 $208 0 $153 3.1415926535897931 $149 $210 forward 7 unknown #
vertex $-1 $207 $211 #
straight-curve $-1 17.599999999999998 7 2.4000000000000004 1 -8.8817841970012523e-016 0 I I #
ellipse-curve $-1 18.599999999999998 6.9999999999999982 7.75 1 0 0 0 1.7763568394002505e-015 -5.3499999999999996 1 I I #
point $-1 18.599999999999998 7 13.1 #
point $-1 18.599999999999998 7 2.3999999999999999 #
ellipse-curve $-1 18.599999999999998 7 7.75 -1 0 0 0 0 -5.25 1 I I #
coedge $-1 $212 $113 $116 $164 reversed $161 $-1 #
coedge $-1 $113 $212 $124 $173 forward $161 $-1 #
loop $-1 $-1 $159 $213 #
straight-curve $-1 17.5 14 13.5 0 -1 0 I I #
coedge $-1 $116 $115 $214 $215 reversed $117 $-1 #
edge $-1 $216 0 $118 0.10000000000000142 $159 $217 forward 7 unknown #
face $-1 $213 $117 $3 $-1 $218 forward single #
point $-1 17.499999999999996 0.10000000000000053 13.5 #
coedge $-1 $140 $214 $120 $168 forward $148 $-1 #
edge $-1 $169 0 $142 1.2999999999999989 $167 $219 forward 7 unknown #
vertex $-1 $121 $220 #
straight-curve $-1 17.599999999999998 0.10000000000000142 0.39999999999999997 -1 0 0 I I #
plane-surface $-1 17.599999999999998 1.4000000000000021 0.39999999999999997 0 0 1 0 -1 0 forward_v I I I I #
coedge $-1 $174 $124 $221 $222 forward $126 $-1 #
edge $-1 $223 0 $127 0.10000000000000142 $124 $224 forward 7 unknown #
coedge $-1 $125 $172 $225 $226 forward $126 $-1 #
coedge $-1 $227 $130 $125 $176 reversed $182 $-1 #
edge $-1 $228 0 $86 0.099999999999999992 $125 $229 forward 7 unknown #
face $-1 $230 $126 $3 $-1 $231 reversed single #
point $-1 17.499999999999996 14 13.5 #
coedge $-1 $232 $135 $129 $180 forward $191 $-1 #
edge $-1 $137 0 $183 12.6 $129 $233 forward 7 unknown #
coedge $-1 $130 $227 $234 $235 reversed $182 $-1 #
loop $-1 $-1 $181 $185 #
vertex $-1 $131 $236 #
straight-curve $-1 13.399999999999999 14 0.099999999999999992 1 0 0 I I #
face $-1 $237 $182 $3 $-1 $238 reversed single #
plane-surface $-1 17.5 14 0.099999999999999992 0 0 -1 -1 0 0 forward_v I I I I #
coedge $-1 $195 $134 $239 $240 reversed $52 $-1 #
coedge $-1 $241 $242 $134 $189 reversed $243 $-1 #
edge $-1 $192 -3.5527136788005009e-015 $244 0.099999999999996092 $134 $245 forward 7 unknown #
coedge $-1 $135 $246 $241 $247 forward $191 $-1 #
loop $-1 $-1 $179 $248 #
vertex $-1 $136 $249 #
straight-curve $-1 13.399999999999999 1.4000000000000021 0.099999999999999992 0 0 1 I I #
point $-1 13.4 1.4000000000000004 0.099999999999999992 #
coedge $-1 $139 $187 $250 $251 reversed $52 $-1 #
coedge $-1 $205 $252 $139 $197 forward $146 $-1 #
edge $-1 $199 0 $253 0.099999999999997868 $196 $254 forward 7 unknown #
coedge $-1 $221 $140 $252 $255 forward $148 $-1 #
vertex $-1 $197 $256 #
straight-curve $-1 17.599999999999998 1.4000000000000021 0 0 0 1 I I #
point $-1 17.599999999999998 1.4000000000000004 0.39999999999999997 #
face $-1 $257 $258 $3 $-1 $259 forward single #
loop $-1 $-1 $260 $145 #
plane-surface $-1 17.5 14 0 0 0 -1 -1 0 0 forward_v I I I I #
coedge $-1 $225 $196 $261 $262 reversed $146 $-1 #
coedge $-1 $149 $149 $150 $207 reversed $96 $-1 #
edge $-1 $153 0 $208 3.1415926535897931 $206 $263 forward 7 unknown #
vertex $-1 $207 $264 #
straight-curve $-1 17.599999999999998 7.0000000000000009 13.1 1 0 0 I I #
ellipse-curve $-1 17.599999999999998 7 7.75 1 0 0 0 0 5.3499999999999996 1 I I #
point $-1 17.599999999999998 7 2.3999999999999999 #
coedge $-1 $160 $159 $265 $266 forward $161 $-1 #
face $-1 $177 $161 $3 $-1 $267 reversed single #
coedge $-1 $167 $265 $163 $215 forward $148 $-1 #
edge $-1 $216 0 $169 13.1 $163 $268 forward 7 unknown #
vertex $-1 $266 $269 #
straight-curve $-1 17.599999999999998 0.10000000000000142 13.5 -1 0 0 I I #
plane-surface $-1 17.549999999999997 0.10000000000000142 6.75 0 -1 0 0 0 1 forward_v I I I I #
straight-curve $-1 17.599999999999998 0.10000000000000142 0.39999999999999997 0 1 0 I I #
point $-1 17.599999999999998 0.10000000000000142 0.40000000000000036 #
coedge $-1 $265 $198 $172 $222 reversed $148 $-1 #
edge $-1 $223 0 $270 13.5 $172 $271 forward 7 unknown #
vertex $-1 $222 $272 #
straight-curve $-1 17.599999999999998 14 13.5 -1 0 0 I I #
coedge $-1 $252 $205 $174 $226 reversed $146 $-1 #
edge $-1 $270 0 $228 0.099999999999997868 $174 $273 forward 7 unknown #
coedge $-1 $181 $175 $274 $275 forward $182 $-1 #
vertex $-1 $176 $276 #
straight-curve $-1 17.499999999999996 14 0 0 0 1 I I #
face $-1 $277 $278 $3 $-1 $279 reversed single #
plane-surface $-1 17.549999999999997 14 6.75 0 -1 0 0 0 1 forward_v I I I I #
coedge $-1 $280 $179 $281 $282 reversed $191 $-1 #
straight-curve $-1 13.399999999999999 1.4000000000000004 0.099999999999999992 0 1 0 I I #
coedge $-1 $283 $281 $181 $235 forward $284 $-1 #
edge $-1 $183 0 $285 0.14142135623731092 $181 $286 forward 7 unknown #
point $-1 13.4 14 0.10000000000000053 #
face $-1 $287 $284 $3 $-1 $288 reversed single #
plane-surface $-1 15.424999999999999 14 0.049999999999999996 0 -1 0 -1 0 0 forward_v I I I I #
coedge $-1 $289 $290 $187 $240 forward $291 $-1 #
edge $-1 $292 0 $244 0.39999999999999997 $239 $293 forward 7 unknown #
coedge $-1 $294 $188 $190 $247 reversed $243 $-1 #
coedge $-1 $188 $294 $289 $295 forward $243 $-1 #
loop $-1 $-1 $188 $296 #
vertex $-1 $240 $297 #
straight-curve $-1 13.399999999999995 1.4000000000000021 0.39999999999999997 -1 0 0 I I #
coedge $-1 $190 $280 $298 $299 forward $191 $-1 #
edge $-1 $300 0 $192 1.2999999999999989 $190 $301 forward 7 unknown #
face $-1 $302 $303 $3 $-1 $304 reversed single #
point $-1 13.399999999999999 1.4000000000000004 0.39999999999999997 #
coedge $-1 $260 $261 $195 $251 forward $203 $-1 #
edge $-1 $253 0 $292 4.1999999999999993 $250 $305 forward 7 unknown #
coedge $-1 $196 $225 $198 $255 reversed $146 $-1 #
vertex $-1 $197 $306 #
straight-curve $-1 17.599999999999998 1.4000000000000021 0 -1 0 0 I I #
edge $-1 $199 0 $270 12.6 $252 $307 forward 7 unknown #
point $-1 17.599999999999998 1.4000000000000004 0 #
face $-1 $308 $309 $3 $-1 $310 reversed single #
loop $-1 $311 $312 $202 #
plane-surface $-1 13.299999999999999 14 0 -1 0 0 0 0 1 forward_v I I I I #
coedge $-1 $274 $250 $290 $313 reversed $203 $-1 #
coedge $-1 $250 $274 $205 $262 forward $203 $-1 #
edge $-1 $228 0 $253 12.6 $205 $314 forward 7 unknown #
ellipse-curve $-1 17.599999999999998 7 7.75 1 0 0 0 0 -5.3499999999999996 1 I I #
point $-1 17.599999999999998 7 13.1 #
coedge $-1 $214 $221 $212 $266 reversed $148 $-1 #
edge $-1 $216 -8.8817841970012523e-016 $223 13.899999999999999 $212 $315 forward 7 unknown #
plane-surface $-1 17.549999999999997 7.0499999999999998 13.5 0 0 -1 0 -1 0 forward_v I I I I #
straight-curve $-1 17.599999999999998 0.10000000000000142 13.5 0 0 -1 I I #
point $-1 17.599999999999998 0.10000000000000053 13.5 #
vertex $-1 $226 $316 #
straight-curve $-1 17.599999999999998 14 13.5 0 0 -1 I I #
point $-1 17.599999999999998 14 13.5 #
straight-curve $-1 17.599999999999998 14 0 -1 0 0 I I #
coedge $-1 $261 $260 $227 $275 reversed $203 $-1 #
edge $-1 $228 0 $285 4.2000000000000011 $274 $317 forward 7 unknown #
point $-1 17.5 14 0 #
face $-1 $318 $319 $3 $-1 $320 reversed single #
loop $-1 $-1 $321 $230 #
plane-surface $-1 13.299999999999999 14 13.399999999999999 0 0 1 1 0 0 forward_v I I I I #
coedge $-1 $246 $232 $322 $323 reversed $191 $-1 #
coedge $-1 $234 $324 $232 $282 forward $284 $-1 #
edge $-1 $325 -1.7763568394002505e-015 $183 13.299999999999997 $281 $326 forward 7 unknown #
coedge $-1 $324 $234 $327 $328 forward $284 $-1 #
loop $-1 $-1 $324 $237 #
vertex $-1 $275 $329 #
straight-curve $-1 13.4 14 0.10000000000000053 -0.70710678118654435 0 -0.70710678118655057 I I #
face $-1 $330 $331 $3 $-1 $332 reversed single #
plane-surface $-1 13.35 14 6.75 0 -1 0 0 0 1 forward_v I I I I #
coedge $-1 $333 $239 $242 $295 reversed $291 $-1 #
coedge $-1 $239 $327 $260 $313 forward $291 $-1 #
loop $-1 $-1 $289 $202 #
vertex $-1 $251 $334 #
straight-curve $-1 13.299999999999999 1.4000000000000021 0 0 0 1 I I #
coedge $-1 $242 $241 $335 $336 forward $243 $-1 #
edge $-1 $337 0 $244 1.2999999999999989 $289 $338 forward 7 unknown #
face $-1 $92 $243 $3 $-1 $339 reversed single #
point $-1 13.299999999999999 1.4000000000000004 0.39999999999999997 #
coedge $-1 $340 $335 $246 $299 reversed $341 $-1 #
edge $-1 $342 0 $300 12.999999999999998 $298 $343 forward 7 unknown #
vertex $-1 $336 $344 #
straight-curve $-1 13.399999999999999 0.10000000000000142 0.39999999999999997 0 1 0 I I #
face $-1 $345 $346 $3 $-1 $347 reversed single #
loop $-1 $348 $349 $248 #
plane-surface $-1 13.399999999999999 14 0 -1 0 0 0 0 1 forward_v I I I I #
straight-curve $-1 17.5 1.4000000000000021 0 -1 0 0 I I #
point $-1 17.5 1.4000000000000004 0 #
straight-curve $-1 17.599999999999998 1.4000000000000004 0 0 1 0 I I #
face $-1 $248 $350 $3 $-1 $351 reversed single #
loop $-1 $-1 $352 $257 #
cone-surface $-1 13.299999999999999 5.5857864376269042 9.1642135623730958 1 0 0 0 0 0.25 1 I I 0 1 0.25 forward I I I I #
loop $-1 $353 $354 $202 #
coedge $-1 $355 $355 $356 $357 reversed $258 $-1 #
edge $-1 $285 0 $292 12.6 $260 $358 forward 7 unknown #
straight-curve $-1 17.5 14 0 0 -1 0 I I #
straight-curve $-1 17.599999999999998 0.10000000000000142 13.5 0 1 0 I I #
point $-1 17.599999999999998 14 0 #
straight-curve $-1 17.5 14 0 -1 0 0 I I #
face $-1 $-1 $359 $3 $-1 $360 reversed single #
loop $-1 $-1 $361 $277 #
cone-surface $-1 17.599999999999998 10.142999999999994 17.636200421348224 1 0 0 0 0 -0.19999999999999998 1 I I 0 1 0.19999999999999998 forward I I I I #
coedge $-1 $362 $363 $364 $365 reversed $278 $-1 #
coedge $-1 $363 $362 $280 $323 forward $278 $-1 #
edge $-1 $342 0 $325 13.899999999999999 $280 $366 forward 7 unknown #
coedge $-1 $281 $283 $367 $368 reversed $284 $-1 #
vertex $-1 $282 $369 #
straight-curve $-1 13.399999999999999 14 13.399999999999999 0 0 -1 I I #
coedge $-1 $290 $370 $283 $328 reversed $291 $-1 #
edge $-1 $285 0 $371 13.5 $327 $372 forward 7 unknown #
point $-1 13.299999999999999 14 0 #
face $-1 $373 $374 $3 $-1 $375 reversed single #
loop $-1 $-1 $376 $287 #
plane-surface $-1 15.449999999999999 14 13.449999999999999 0 -1 0 1 0 0 forward_v I I I I #
coedge $-1 $370 $289 $377 $378 forward $291 $-1 #
point $-1 13.300000000000001 1.4000000000000004 0 #
coedge $-1 $298 $377 $294 $336 reversed $341 $-1 #
edge $-1 $300 0 $337 0.099999999999999645 $335 $379 forward 7 unknown #
vertex $-1 $378 $380 #
straight-curve $-1 13.299999999999999 0.10000000000000142 0.39999999999999997 0 1 0 I I #
plane-surface $-1 17.599999999999998 1.4000000000000021 0.39999999999999997 0 0 1 0 -1 0 forward_v I I I I #
coedge $-1 $377 $298 $381 $382 forward $341 $-1 #
loop $-1 $-1 $298 $383 #
vertex $-1 $382 $384 #
straight-curve $-1 13.399999999999999 0.10000000000000142 13.399999999999999 0 0 -1 I I #
point $-1 13.4 0.10000000000000142 0.40000000000000036 #
face $-1 $385 $386 $3 $-1 $387 reversed single #
loop $-1 $-1 $388 $302 #
cone-surface $-1 13.299999999999999 5.5857864376269042 6.3357864376269051 1 0 0 0 0 0.25 1 I I 0 1 0.25 forward I I I I #
loop $-1 $389 $390 $248 #
coedge $-1 $391 $391 $392 $393 forward $303 $-1 #
loop $-1 $-1 $394 $308 #
cone-surface $-1 13.299999999999999 5.5857864376269042 9.1642135623730958 1 0 0 0 0 0.25 1 I I 0 1 0.25 forward I I I I #
coedge $-1 $392 $356 $395 $396 reversed $309 $-1 #
loop $-1 $397 $398 $202 #
coedge $-1 $399 $399 $400 $401 reversed $311 $-1 #
coedge $-1 $312 $312 $402 $403 reversed $258 $-1 #
coedge $-1 $352 $404 $312 $357 forward $309 $-1 #
edge $-1 $405 0 $406 3.1415926535897931 $312 $407 forward 7 unknown #
straight-curve $-1 13.299999999999999 14 0 0 -1 0 I I #
loop $-1 $-1 $408 $318 #
cone-surface $-1 17.599999999999998 10.142999999999994 17.636200421348224 1 0 0 0 0 -0.19999999999999998 1 I I 0 1 0.19999999999999998 forward I I I I #
coedge $-1 $409 $410 $411 $412 reversed $319 $-1 #
coedge $-1 $322 $321 $413 $414 forward $278 $-1 #
coedge $-1 $321 $322 $415 $416 reversed $278 $-1 #
coedge $-1 $417 $418 $321 $365 forward $419 $-1 #
edge $-1 $420 0 $421 13.899999999999999 $321 $422 forward 7 unknown #
straight-curve $-1 13.399999999999999 0.10000000000000142 13.399999999999999 0 1 0 I I #
coedge $-1 $423 $415 $324 $368 forward $331 $-1 #
edge $-1 $325 0 $371 0.141421356237309 $324 $424 forward 7 unknown #
point $-1 13.399999999999999 14 13.4 #
coedge $-1 $327 $333 $425 $426 reversed $291 $-1 #
vertex $-1 $328 $427 #
straight-curve $-1 13.299999999999999 14 0 0 0 1 I I #
face $-1 $428 $429 $3 $-1 $430 reversed single #
loop $-1 $-1 $431 $330 #
plane-surface $-1 17.549999999999997 14 17.724999999999998 0 -1 0 0 0 1 forward_v I I I I #
coedge $-1 $415 $423 $432 $433 reversed $331 $-1 #
coedge $-1 $335 $340 $333 $378 reversed $341 $-1 #
edge $-1 $337 0 $434 13.1 $333 $435 forward 7 unknown #
straight-curve $-1 13.4 0.10000000000000142 0.39999999999999997 -1 0 0 I I #
point $-1 13.300000000000001 0.10000000000000142 0.40000000000000036 #
coedge $-1 $413 $436 $340 $382 reversed $437 $-1 #
edge $-1 $342 1.2560739669470089e-015 $434 0.1414213562373115 $340 $438 forward 7 unknown #
face $-1 $296 $341 $3 $-1 $439 forward single #
point $-1 13.399999999999999 0.10000000000000142 13.399999999999999 #
face $-1 $440 $441 $3 $-1 $442 reversed single #
loop $-1 $-1 $443 $345 #
cone-surface $-1 13.299999999999999 5.5857864376269042 6.3357864376269051 1 0 0 0 0 0.25 1 I I 0 1 0.25 forward I I I I #
coedge $-1 $444 $400 $445 $446 reversed $346 $-1 #
loop $-1 $447 $448 $248 #
coedge $-1 $449 $449 $444 $450 forward $348 $-1 #
coedge $-1 $349 $349 $451 $452 forward $303 $-1 #
coedge $-1 $404 $352 $349 $393 reversed $309 $-1 #
edge $-1 $453 0 $454 3.1415926535897931 $349 $455 forward 7 unknown #
coedge $-1 $451 $402 $404 $456 reversed $350 $-1 #
coedge $-1 $402 $451 $352 $396 forward $350 $-1 #
edge $-1 $454 0 $406 0.099999999999999645 $395 $457 forward 7 unknown #
loop $-1 $458 $459 $202 #
coedge $-1 $460 $460 $461 $462 reversed $353 $-1 #
coedge $-1 $354 $354 $463 $464 reversed $311 $-1 #
coedge $-1 $388 $465 $354 $401 forward $346 $-1 #
edge $-1 $466 0 $467 3.1415926535897931 $354 $468 forward 7 unknown #
coedge $-1 $394 $395 $355 $403 forward $350 $-1 #
edge $-1 $406 0 $405 3.1415926535897931 $355 $469 forward 7 unknown #
coedge $-1 $356 $392 $394 $456 forward $309 $-1 #
vertex $-1 $403 $470 #
vertex $-1 $403 $471 #
ellipse-curve $-1 13.299999999999999 5.5857864376269042 9.1642135623730958 -1 0 0 0 0 0.25 1 I I #
coedge $-1 $472 $473 $474 $475 reversed $359 $-1 #
coedge $-1 $474 $361 $476 $477 forward $319 $-1 #
coedge $-1 $361 $474 $478 $479 reversed $319 $-1 #
coedge $-1 $473 $472 $361 $412 forward $359 $-1 #
edge $-1 $480 0 $481 0.099999999999997868 $411 $482 forward 7 unknown #
coedge $-1 $483 $381 $362 $414 reversed $437 $-1 #
edge $-1 $420 0 $342 4.1999999999999993 $413 $484 forward 7 unknown #
coedge $-1 $367 $376 $363 $416 forward $331 $-1 #
edge $-1 $421 0 $325 4.1999999999999993 $415 $485 forward 7 unknown #
coedge $-1 $486 $364 $487 $488 reversed $419 $-1 #
coedge $-1 $364 $489 $490 $491 forward $419 $-1 #
loop $-1 $492 $418 $493 #
vertex $-1 $494 $495 #
vertex $-1 $416 $496 #
straight-curve $-1 17.599999999999998 0.10000000000000142 13.399999999999999 0 1 0 I I #
coedge $-1 $376 $367 $497 $498 forward $331 $-1 #
straight-curve $-1 13.399999999999999 14 13.4 -0.70710678118654757 0 0.70710678118654757 I I #
coedge $-1 $499 $497 $370 $426 forward $500 $-1 #
edge $-1 $371 0 $434 13.899999999999999 $370 $501 forward 7 unknown #
point $-1 13.299999999999999 14 13.5 #
face $-1 $502 $503 $3 $-1 $504 reversed single #
loop $-1 $-1 $505 $373 #
plane-surface $-1 17.549999999999997 7.0499999999999998 22 0 0 -1 0 -1 0 forward_v I I I I #
coedge $-1 $487 $506 $507 $508 reversed $374 $-1 #
coedge $-1 $506 $487 $376 $433 forward $374 $-1 #
edge $-1 $421 0 $509 0.141421356237309 $376 $510 forward 7 unknown #
vertex $-1 $426 $511 #
straight-curve $-1 13.299999999999999 0.10000000000000142 0.40000000000000036 0 0 1 I I #
coedge $-1 $381 $483 $499 $512 reversed $437 $-1 #
loop $-1 $-1 $381 $513 #
straight-curve $-1 13.4 0.10000000000000142 13.399999999999999 -0.70710678118654124 0 0.70710678118655379 I I #
plane-surface $-1 13.35 0.10000000000000142 6.75 0 -1 0 0 0 1 forward_v I I I I #
face $-1 $514 $515 $3 $-1 $516 reversed single #
loop $-1 $-1 $517 $385 #
cone-surface $-1 13.299999999999999 8.4142135623730958 6.3357864376269051 1 0 0 0 0 0.25 1 I I 0 1 0.25 forward I I I I #
coedge $-1 $518 $463 $465 $519 reversed $386 $-1 #
coedge $-1 $465 $388 $390 $450 reversed $346 $-1 #
coedge $-1 $463 $518 $388 $446 forward $386 $-1 #
edge $-1 $520 0 $467 0.099999999999999645 $445 $521 forward 7 unknown #
loop $-1 $522 $523 $248 #
coedge $-1 $524 $524 $525 $526 forward $389 $-1 #
coedge $-1 $390 $390 $518 $527 forward $348 $-1 #
edge $-1 $528 0 $520 3.1415926535897931 $390 $529 forward 7 unknown #
coedge $-1 $395 $394 $391 $452 reversed $350 $-1 #
edge $-1 $454 0 $453 3.1415926535897931 $391 $530 forward 7 unknown #
vertex $-1 $452 $531 #
vertex $-1 $452 $532 #
ellipse-curve $-1 13.399999999999999 5.5857864376269042 9.1642135623730958 -1 0 0 0 0 0.25 1 I I #
edge $-1 $453 0 $405 0.099999999999999645 $394 $533 forward 7 unknown #
straight-curve $-1 13.399999999999999 5.5857864376269042 8.9142135623730958 -1 0 0 I I #
loop $-1 $291 $534 $202 #
coedge $-1 $535 $535 $536 $537 reversed $397 $-1 #
coedge $-1 $398 $398 $538 $539 reversed $353 $-1 #
coedge $-1 $517 $540 $398 $462 forward $441 $-1 #
edge $-1 $541 0 $542 3.1415926535897931 $398 $543 forward 7 unknown #
coedge $-1 $443 $445 $399 $464 forward $386 $-1 #
edge $-1 $467 0 $466 3.1415926535897931 $399 $544 forward 7 unknown #
coedge $-1 $400 $444 $443 $519 forward $346 $-1 #
vertex $-1 $464 $545 #
vertex $-1 $464 $546 #
ellipse-curve $-1 13.299999999999999 5.5857864376269042 6.3357864376269051 -1 0 0 0 0 0.25 1 I I #
ellipse-curve $-1 13.299999999999999 5.5857864376269042 9.1642135623730958 -1 0 0 0 0 -0.25 1 I I #
point $-1 13.299999999999999 5.5857864376269042 9.4142135623730958 #
point $-1 13.299999999999999 5.5857864376269042 8.9142135623730958 #
coedge $-1 $411 $408 $547 $548 forward $359 $-1 #
coedge $-1 $408 $411 $549 $550 reversed $359 $-1 #
coedge $-1 $410 $409 $408 $475 forward $319 $-1 #
edge $-1 $551 0 $552 0.099999999999997868 $408 $553 forward 7 unknown #
coedge $-1 $547 $547 $409 $477 reversed $492 $-1 #
edge $-1 $480 0 $551 3.1415926535897931 $476 $554 forward 7 unknown #
coedge $-1 $549 $549 $410 $479 forward $555 $-1 #
edge $-1 $481 0 $552 3.1415926535898286 $478 $556 forward 7 unknown #
vertex $-1 $548 $557 #
vertex $-1 $550 $558 #
straight-curve $-1 17.599999999999998 9.9429999999999943 17.636200421348224 -1 0 0 I I #
coedge $-1 $436 $413 $559 $494 forward $437 $-1 #
straight-curve $-1 17.599999999999998 0.10000000000000142 13.399999999999999 -1 0 0 I I #
straight-curve $-1 17.599999999999998 14 13.399999999999999 -1 0 0 I I #
coedge $-1 $560 $417 $561 $562 reversed $419 $-1 #
coedge $-1 $432 $431 $417 $488 forward $374 $-1 #
edge $-1 $563 0 $421 8.5999999999999979 $487 $564 forward 7 unknown #
coedge $-1 $418 $565 $566 $567 reversed $419 $-1 #
coedge $-1 $568 $559 $418 $491 reversed $569 $-1 #
edge $-1 $570 -3.5527136788005009e-015 $420 8.1999999999999975 $490 $571 forward 7 unknown #
loop $-1 $-1 $476 $493 #
face $-1 $572 $419 $3 $-1 $573 reversed single #
edge $-1 $420 0 $574 0.14142135623730773 $483 $575 forward 7 unknown #
point $-1 17.599999999999998 0.10000000000000142 13.4 #
point $-1 17.599999999999998 14 13.399999999999999 #
coedge $-1 $425 $576 $423 $498 reversed $500 $-1 #
edge $-1 $371 0 $509 4.2000000000000011 $497 $577 forward 7 unknown #
coedge $-1 $576 $425 $436 $512 forward $500 $-1 #
loop $-1 $-1 $425 $578 #
straight-curve $-1 13.299999999999999 14 13.5 0 -1 0 I I #
face $-1 $579 $580 $3 $-1 $581 reversed single #
loop $-1 $-1 $582 $428 #
plane-surface $-1 17.5 10.75 18.5 0 1 0 0 0 1 forward_v I I I I #
coedge $-1 $561 $583 $584 $585 forward $429 $-1 #
coedge $-1 $431 $432 $586 $587 forward $374 $-1 #
coedge $-1 $583 $561 $431 $508 forward $429 $-1 #
edge $-1 $563 0 $588 0.10000000000000142 $431 $589 forward 7 unknown #
vertex $-1 $498 $590 #
straight-curve $-1 17.599999999999998 14 13.399999999999999 -0.70710678118655379 0 0.70710678118654124 I I #
point $-1 13.299999999999999 0.10000000000000142 13.5 #
edge $-1 $434 0 $574 4.2000000000000011 $499 $591 forward 7 unknown #
face $-1 $383 $437 $3 $-1 $592 forward single #
face $-1 $593 $594 $3 $-1 $595 reversed single #
loop $-1 $-1 $596 $440 #
cone-surface $-1 13.299999999999999 8.4142135623730958 6.3357864376269051 1 0 0 0 0 0.25 1 I I 0 1 0.25 forward I I I I #
coedge $-1 $525 $461 $597 $598 reversed $441 $-1 #
coedge $-1 $445 $443 $449 $527 reversed $386 $-1 #
edge $-1 $528 0 $466 0.099999999999999645 $443 $599 forward 7 unknown #
vertex $-1 $527 $600 #
straight-curve $-1 13.399999999999999 5.5857864376269042 6.0857864376269051 -1 0 0 I I #
loop $-1 $191 $601 $248 #
coedge $-1 $602 $602 $603 $604 forward $447 $-1 #
coedge $-1 $448 $448 $605 $606 forward $389 $-1 #
coedge $-1 $540 $517 $448 $526 reversed $441 $-1 #
edge $-1 $607 0 $608 3.1415926535897931 $448 $609 forward 7 unknown #
edge $-1 $520 0 $528 3.1415926535897931 $449 $610 forward 7 unknown #
vertex $-1 $527 $611 #
ellipse-curve $-1 13.399999999999999 5.5857864376269042 6.3357864376269051 -1 0 0 0 0 0.25 1 I I #
ellipse-curve $-1 13.399999999999999 5.5857864376269042 9.1642135623730958 -1 0 0 0 0 -0.25 1 I I #
point $-1 13.399999999999999 5.5857864376269042 9.4142135623730958 #
point $-1 13.399999999999999 5.5857864376269042 8.9142135623730958 #
straight-curve $-1 13.399999999999999 5.5857864376269042 9.4142135623730958 -1 0 0 I I #
coedge $-1 $612 $612 $613 $614 forward $458 $-1 #
coedge $-1 $459 $459 $615 $616 reversed $397 $-1 #
coedge $-1 $617 $618 $459 $537 forward $594 $-1 #
edge $-1 $619 0 $620 3.1415926535897931 $459 $621 forward 7 unknown #
coedge $-1 $596 $597 $460 $539 forward $515 $-1 #
edge $-1 $542 0 $541 3.1415926535897931 $460 $622 forward 7 unknown #
coedge $-1 $461 $525 $596 $623 forward $441 $-1 #
vertex $-1 $539 $624 #
vertex $-1 $539 $625 #
ellipse-curve $-1 13.299999999999999 8.4142135623730958 6.3357864376269051 -1 0 0 0 0 0.25 1 I I #
ellipse-curve $-1 13.299999999999999 5.5857864376269042 6.3357864376269051 -1 0 0 0 0 -0.25 1 I I #
point $-1 13.299999999999999 5.5857864376269042 6.5857864376269051 #
point $-1 13.299999999999999 5.5857864376269042 6.0857864376269051 #
coedge $-1 $476 $476 $472 $548 reversed $492 $-1 #
edge $-1 $551 0 $480 3.1415926535897931 $547 $626 forward 7 unknown #
coedge $-1 $478 $478 $473 $550 forward $555 $-1 #
edge $-1 $552 0 $481 3.1415926535898286 $549 $627 forward 7 unknown #
vertex $-1 $548 $628 #
vertex $-1 $550 $629 #
straight-curve $-1 17.599999999999998 10.342999999999993 17.636200421348224 -1 0 0 I I #
ellipse-curve $-1 17.599999999999998 10.142999999999994 17.636200421348224 1 0 0 0 -0.19999999999999929 0 1 I I #
loop $-1 $-1 $478 $630 #
ellipse-curve $-1 17.5 10.142999999999994 17.636200421348221 1 0 0 0 -0.19999999999999929 3.5527136788005009e-015 1 I I #
point $-1 17.599999999999998 9.9429999999999943 17.636200421348224 #
point $-1 17.5 9.9429999999999943 17.636200421348224 #
coedge $-1 $490 $631 $483 $494 reversed $569 $-1 #
coedge $-1 $632 $486 $633 $634 reversed $419 $-1 #
coedge $-1 $507 $505 $486 $562 forward $429 $-1 #
edge $-1 $635 0 $563 3.25 $561 $636 forward 7 unknown #
vertex $-1 $488 $637 #
straight-curve $-1 17.599999999999998 14 21.999999999999996 0 0 -1 I I #
coedge $-1 $489 $638 $639 $640 forward $419 $-1 #
coedge $-1 $641 $642 $489 $567 forward $643 $-1 #
edge $-1 $570 0 $644 1.1999999999999993 $489 $645 forward 7 unknown #
coedge $-1 $631 $490 $642 $646 forward $569 $-1 #
loop $-1 $-1 $631 $572 #
vertex $-1 $646 $647 #
straight-curve $-1 17.599999999999998 0.10000000000000142 21.599999999999998 0 0 -1 I I #
face $-1 $630 $569 $3 $-1 $648 forward single #
plane-surface $-1 17.599999999999998 14 13.5 -1 0 0 0 0 1 forward_v I I I I #
vertex $-1 $649 $650 #
straight-curve $-1 17.599999999999998 0.10000000000000142 13.4 -0.70710678118654124 0 0.70710678118655379 I I #
coedge $-1 $497 $499 $651 $649 reversed $500 $-1 #
straight-curve $-1 13.299999999999999 14 13.5 1 0 0 I I #
face $-1 $513 $500 $3 $-1 $652 forward single #
face $-1 $653 $654 $3 $-1 $655 reversed single #
loop $-1 $-1 $656 $502 #
plane-surface $-1 17.5 10.649999999999999 18.5 0 0 -1 0 1 0 forward_v I I I I #
coedge $-1 $633 $657 $658 $659 reversed $503 $-1 #
coedge $-1 $505 $507 $660 $661 reversed $429 $-1 #
coedge $-1 $657 $633 $505 $585 reversed $503 $-1 #
edge $-1 $662 0 $635 0.10000000000000142 $505 $663 forward 7 unknown #
coedge $-1 $651 $660 $506 $587 reversed $664 $-1 #
edge $-1 $509 1.7763568394002505e-015 $588 8.4999999999999982 $586 $665 forward 7 unknown #
vertex $-1 $587 $666 #
straight-curve $-1 17.599999999999998 14 22 -1 0 0 I I #
point $-1 17.5 14 13.5 #
straight-curve $-1 13.299999999999999 0.10000000000000142 13.5 1 0 0 I I #
plane-surface $-1 15.449999999999999 0.10000000000000142 13.449999999999999 0 -1 0 1 0 0 forward_v I I I I #
face $-1 $667 $668 $3 $-1 $669 reversed single #
loop $-1 $-1 $617 $514 #
cone-surface $-1 13.299999999999999 8.4142135623730958 9.164213562373094 1 0 0 0 0 0.25 1 I I 0 1 0.25 forward I I I I #
coedge $-1 $605 $538 $540 $623 reversed $515 $-1 #
coedge $-1 $538 $605 $517 $598 forward $515 $-1 #
edge $-1 $608 0 $542 0.099999999999999645 $597 $670 forward 7 unknown #
straight-curve $-1 13.399999999999999 5.5857864376269042 6.5857864376269051 -1 0 0 I I #
point $-1 13.399999999999999 5.5857864376269042 6.0857864376269051 #
coedge $-1 $671 $671 $672 $673 reversed $522 $-1 #
coedge $-1 $523 $523 $674 $675 forward $447 $-1 #
coedge $-1 $618 $617 $523 $604 reversed $594 $-1 #
edge $-1 $676 0 $677 3.1415926535897931 $523 $678 forward 7 unknown #
coedge $-1 $597 $596 $524 $606 reversed $515 $-1 #
edge $-1 $608 0 $607 3.1415926535897931 $524 $679 forward 7 unknown #
vertex $-1 $606 $680 #
vertex $-1 $606 $681 #
ellipse-curve $-1 13.399999999999999 8.4142135623730958 6.3357864376269051 -1 0 0 0 0 0.25 1 I I #
ellipse-curve $-1 13.399999999999999 5.5857864376269042 6.3357864376269051 -1 0 0 0 0 -0.25 1 I I #
point $-1 13.399999999999999 5.5857864376269042 6.5857864376269051 #
coedge $-1 $534 $534 $682 $683 forward $458 $-1 #
coedge $-1 $684 $685 $534 $614 reversed $686 $-1 #
edge $-1 $687 0 $688 3.1415926535897931 $534 $689 forward 7 unknown #
coedge $-1 $690 $691 $535 $616 forward $668 $-1 #
edge $-1 $620 0 $619 3.1415926535897931 $535 $692 forward 7 unknown #
coedge $-1 $603 $536 $691 $693 reversed $594 $-1 #
coedge $-1 $536 $603 $690 $694 forward $594 $-1 #
vertex $-1 $616 $695 #
vertex $-1 $616 $696 #
ellipse-curve $-1 13.299999999999999 8.4142135623730958 9.164213562373094 -1 0 0 0 0 0.25 1 I I #
ellipse-curve $-1 13.299999999999999 8.4142135623730958 6.3357864376269051 -1 0 0 0 0 -0.25 1 I I #
edge $-1 $607 0 $541 0.099999999999999645 $596 $697 forward 7 unknown #
point $-1 13.299999999999999 8.4142135623730958 6.5857864376269051 #
point $-1 13.299999999999999 8.4142135623730958 6.0857864376269051 #
ellipse-curve $-1 17.599999999999998 10.142999999999994 17.636200421348224 1 0 0 0 0.19999999999999929 0 1 I I #
ellipse-curve $-1 17.5 10.142999999999994 17.636200421348228 1 0 0 0 0.19999999999999929 -3.5527136788005009e-015 1 I I #
point $-1 17.599999999999998 10.342999999999993 17.636200421348224 #
point $-1 17.5 10.342999999999993 17.636200421348224 #
face $-1 $698 $664 $3 $-1 $699 forward single #
coedge $-1 $559 $568 $700 $701 reversed $569 $-1 #
coedge $-1 $702 $560 $703 $704 forward $419 $-1 #
coedge $-1 $584 $582 $560 $634 forward $503 $-1 #
edge $-1 $705 0 $635 3.5 $560 $706 forward 7 unknown #
vertex $-1 $562 $707 #
straight-curve $-1 17.599999999999998 10.75 22 0 1 0 I I #
point $-1 17.599999999999998 14 21.999999999999996 #
coedge $-1 $565 $708 $709 $710 reversed $419 $-1 #
coedge $-1 $711 $712 $565 $640 reversed $713 $-1 #
edge $-1 $714 0 $644 0.39999999999999858 $565 $715 forward 7 unknown #
coedge $-1 $716 $566 $712 $717 forward $643 $-1 #
coedge $-1 $566 $716 $568 $646 reversed $643 $-1 #
loop $-1 $-1 $642 $718 #
vertex $-1 $567 $719 #
straight-curve $-1 17.599999999999998 0.10000000000000142 21.599999999999998 0 1 0 I I #
edge $-1 $570 0 $720 0.099999999999997868 $568 $721 forward 7 unknown #
point $-1 17.599999999999998 0.10000000000000142 21.600000000000001 #
plane-surface $-1 17.549999999999997 0.10000000000000142 17.724999999999998 0 -1 0 0 0 1 forward_v I I I I #
edge $-1 $509 0 $574 13.899999999999999 $576 $722 forward 7 unknown #
point $-1 17.5 0.10000000000000142 13.5 #
coedge $-1 $700 $586 $576 $649 forward $664 $-1 #
plane-surface $-1 13.299999999999999 14 13.5 0 0 1 1 0 0 forward_v I I I I #
face $-1 $493 $723 $3 $-1 $724 reversed single #
loop $-1 $-1 $725 $579 #
plane-surface $-1 17.5 10.649999999999999 22 0 -1 0 0 0 -1 forward_v I I I I #
coedge $-1 $703 $726 $727 $728 reversed $580 $-1 #
coedge $-1 $582 $584 $729 $730 reversed $503 $-1 #
coedge $-1 $726 $703 $582 $659 forward $580 $-1 #
edge $-1 $705 0 $731 0.10000000000000142 $658 $732 forward 7 unknown #
coedge $-1 $586 $729 $583 $661 forward $664 $-1 #
edge $-1 $662 0 $588 3.25 $660 $733 forward 7 unknown #
vertex $-1 $661 $734 #
straight-curve $-1 17.499999999999996 10.75 22 1 0 0 I I #
loop $-1 $555 $735 $630 #
straight-curve $-1 17.5 14 13.499999999999998 0 0 1 I I #
point $-1 17.499999999999996 14 21.999999999999996 #
face $-1 $736 $686 $3 $-1 $737 reversed single #
loop $-1 $-1 $690 $593 #
cone-surface $-1 13.299999999999999 8.4142135623730958 9.164213562373094 1 0 0 0 0 0.25 1 I I 0 1 0.25 forward I I I I #
straight-curve $-1 13.399999999999999 8.4142135623730958 6.0857864376269051 -1 0 0 I I #
coedge $-1 $601 $601 $738 $739 reversed $522 $-1 #
coedge $-1 $685 $684 $601 $673 forward $686 $-1 #
edge $-1 $740 0 $741 3.1415926535897931 $601 $742 forward 7 unknown #
coedge $-1 $691 $690 $602 $675 reversed $668 $-1 #
edge $-1 $677 0 $676 3.1415926535897931 $602 $743 forward 7 unknown #
vertex $-1 $675 $744 #
vertex $-1 $675 $745 #
ellipse-curve $-1 13.399999999999999 8.4142135623730958 9.164213562373094 -1 0 0 0 0 0.25 1 I I #
ellipse-curve $-1 13.399999999999999 8.4142135623730958 6.3357864376269051 -1 0 0 0 0 -0.25 1 I I #
point $-1 13.399999999999999 8.4142135623730958 6.5857864376269051 #
point $-1 13.399999999999999 8.4142135623730958 6.0857864376269051 #
coedge $-1 $746 $747 $612 $683 reversed $748 $-1 #
edge $-1 $688 0 $687 3.1415926535897931 $612 $749 forward 7 unknown #
coedge $-1 $672 $613 $747 $750 forward $686 $-1 #
coedge $-1 $613 $672 $746 $751 reversed $686 $-1 #
loop $-1 $-1 $684 $667 #
vertex $-1 $683 $752 #
vertex $-1 $683 $753 #
ellipse-curve $-1 13.299999999999999 7 7.75 1 0 0 0 0 -1 1 I I #
coedge $-1 $674 $615 $618 $694 reversed $668 $-1 #
coedge $-1 $615 $674 $617 $693 forward $668 $-1 #
ellipse-curve $-1 13.299999999999999 8.4142135623730958 9.164213562373094 -1 0 0 0 0 -0.25 1 I I #
edge $-1 $677 0 $620 0.099999999999999645 $691 $754 forward 7 unknown #
edge $-1 $676 0 $619 0.099999999999999645 $690 $755 forward 7 unknown #
point $-1 13.299999999999999 8.4142135623730958 9.414213562373094 #
point $-1 13.299999999999999 8.4142135623730958 8.914213562373094 #
straight-curve $-1 13.399999999999999 8.4142135623730958 6.5857864376269051 -1 0 0 I I #
face $-1 $718 $713 $3 $-1 $756 reversed single #
plane-surface $-1 17.5 14 13.5 -1 0 0 0 0 1 forward_v I I I I #
coedge $-1 $757 $651 $631 $701 forward $664 $-1 #
edge $-1 $574 1.7763568394002505e-015 $720 8.1000000000000032 $700 $758 forward 7 unknown #
coedge $-1 $759 $632 $760 $761 forward $419 $-1 #
coedge $-1 $658 $656 $632 $704 reversed $580 $-1 #
edge $-1 $705 0 $762 0.099999999999999645 $632 $763 forward 7 unknown #
vertex $-1 $704 $764 #
straight-curve $-1 17.599999999999998 10.75 18.5 0 0 1 I I #
point $-1 17.599999999999998 10.75 22 #
coedge $-1 $638 $765 $766 $767 forward $419 $-1 #
coedge $-1 $768 $769 $638 $710 forward $770 $-1 #
edge $-1 $714 -8.8817841970012523e-016 $771 3.4000000000000004 $709 $772 forward 7 unknown #
coedge $-1 $773 $639 $769 $774 forward $713 $-1 #
coedge $-1 $639 $773 $641 $717 reversed $713 $-1 #
loop $-1 $-1 $712 $698 #
vertex $-1 $774 $775 #
straight-curve $-1 17.599999999999998 1.3000000000000007 22 0 0 -1 I I #
coedge $-1 $642 $641 $757 $776 reversed $643 $-1 #
edge $-1 $644 0 $777 0.099999999999997868 $641 $778 forward 7 unknown #
face $-1 $779 $643 $3 $-1 $780 reversed single #
point $-1 17.599999999999998 1.3000000000000007 21.600000000000001 #
vertex $-1 $776 $781 #
straight-curve $-1 17.599999999999998 0.10000000000000142 21.599999999999998 -1 0 0 I I #
straight-curve $-1 17.5 14 13.5 0 -1 0 I I #
loop $-1 $-1 $782 $653 #
plane-surface $-1 17.549999999999997 7.0499999999999998 22 0 0 -1 0 -1 0 forward_v I I I I #
coedge $-1 $760 $783 $784 $785 forward $654 $-1 #
coedge $-1 $656 $658 $786 $787 forward $580 $-1 #
coedge $-1 $783 $760 $656 $728 forward $654 $-1 #
edge $-1 $762 3.5527136788005009e-015 $788 0.10000000000000142 $727 $789 forward 7 unknown #
coedge $-1 $660 $786 $657 $730 forward $664 $-1 #
edge $-1 $731 0 $662 3.5 $729 $790 forward 7 unknown #
vertex $-1 $730 $791 #
straight-curve $-1 17.600000000000001 10.75 18.5 -1 0 0 I I #
straight-curve $-1 17.5 10.75 22 0 1 0 I I #
point $-1 17.499999999999996 10.75 22 #
coedge $-1 $792 $757 $773 $793 reversed $664 $-1 #
face $-1 $132 $748 $3 $-1 $794 reversed single #
cone-surface $-1 13.299999999999999 7 7.75 1 0 0 0 0 1 1 I I 0 1 1 forward I I I I #
coedge $-1 $747 $746 $671 $739 forward $748 $-1 #
edge $-1 $741 0 $740 3.1415926535897931 $671 $795 forward 7 unknown #
vertex $-1 $739 $796 #
vertex $-1 $739 $797 #
ellipse-curve $-1 13.399999999999999 7 7.75 1 0 0 0 0 -1 1 I I #
ellipse-curve $-1 13.399999999999999 8.4142135623730958 9.164213562373094 -1 0 0 0 0 -0.25 1 I I #
point $-1 13.399999999999999 8.4142135623730958 9.414213562373094 #
point $-1 13.399999999999999 8.4142135623730958 8.914213562373094 #
coedge $-1 $738 $682 $685 $751 forward $748 $-1 #
coedge $-1 $682 $738 $684 $750 reversed $748 $-1 #
loop $-1 $-1 $746 $736 #
ellipse-curve $-1 13.299999999999999 7 7.75 1 0 0 0 0 1 1 I I #
edge $-1 $687 0 $740 0.099999999999999645 $747 $798 forward 7 unknown #
edge $-1 $688 0 $741 0.099999999999999645 $746 $799 forward 7 unknown #
point $-1 13.299999999999999 7 6.75 #
point $-1 13.299999999999999 7 8.75 #
straight-curve $-1 13.399999999999999 8.4142135623730958 8.914213562373094 -1 0 0 I I #
straight-curve $-1 13.399999999999999 8.4142135623730958 9.414213562373094 -1 0 0 I I #
plane-surface $-1 17.599999999999998 1.3000000000000007 21.599999999999998 0 1 0 0 0 1 forward_v I I I I #
coedge $-1 $735 $700 $716 $776 forward $664 $-1 #
straight-curve $-1 17.5 0.10000000000000142 13.499999999999998 0 0 1 I I #
coedge $-1 $800 $702 $782 $801 reversed $419 $-1 #
coedge $-1 $727 $725 $702 $761 reversed $654 $-1 #
edge $-1 $762 0 $802 3.5 $702 $803 forward 7 unknown #
vertex $-1 $761 $804 #
straight-curve $-1 17.599999999999998 10.75 18.5 0 -1 0 I I #
point $-1 17.600000000000001 10.75 18.5 #
coedge $-1 $708 $800 $805 $806 forward $419 $-1 #
coedge $-1 $807 $808 $708 $767 reversed $809 $-1 #
edge $-1 $810 0 $771 4 $708 $811 forward 7 unknown #
coedge $-1 $812 $709 $808 $813 reversed $770 $-1 #
coedge $-1 $709 $812 $711 $774 reversed $770 $-1 #
loop $-1 $-1 $709 $779 #
vertex $-1 $813 $814 #
straight-curve $-1 17.599999999999998 1.3000000000000007 22 0 1 0 I I #
coedge $-1 $712 $711 $735 $793 forward $713 $-1 #
edge $-1 $714 0 $815 0.10000000000000142 $769 $816 forward 7 unknown #
point $-1 17.599999999999998 1.2999999999999998 22 #
edge $-1 $720 0 $777 1.1999999999999993 $757 $817 forward 7 unknown #
vertex $-1 $776 $818 #
straight-curve $-1 17.599999999999998 1.3000000000000007 21.599999999999998 -1 0 0 I I #
face $-1 $819 $770 $3 $-1 $820 reversed single #
plane-surface $-1 17.599999999999998 0 21.599999999999998 0 0 -1 0 1 0 forward_v I I I I #
point $-1 17.5 0.10000000000000142 21.600000000000001 #
coedge $-1 $784 $821 $759 $801 forward $723 $-1 #
coedge $-1 $725 $727 $822 $823 forward $654 $-1 #
coedge $-1 $824 $782 $725 $785 reversed $723 $-1 #
edge $-1 $825 3.5527136788005009e-015 $802 0.10000000000000142 $784 $826 forward 7 unknown #
coedge $-1 $729 $822 $726 $787 reversed $664 $-1 #
edge $-1 $731 0 $788 0.099999999999999645 $786 $827 forward 7 unknown #
vertex $-1 $787 $828 #
straight-curve $-1 17.600000000000001 10.649999999999999 18.5 -1 0 0 I I #
straight-curve $-1 17.5 10.75 18.5 0 0 1 I I #
point $-1 17.5 10.75 18.5 #
coedge $-1 $829 $735 $812 $830 forward $664 $-1 #
edge $-1 $815 0 $777 0.39999999999999858 $735 $831 forward 7 unknown #
cone-surface $-1 13.299999999999999 7 7.75 1 0 0 0 0 1 1 I I 0 1 1 forward I I I I #
ellipse-curve $-1 13.399999999999999 7 7.75 1 0 0 0 0 1 1 I I #
point $-1 13.399999999999999 7 6.75 #
point $-1 13.399999999999999 7 8.75 #
straight-curve $-1 13.299999999999999 7 6.75 1 0 0 I I #
straight-curve $-1 13.299999999999999 7 8.75 1 0 0 I I #
coedge $-1 $765 $759 $832 $833 reversed $419 $-1 #
edge $-1 $834 -8.8817841970012523e-016 $802 5.8499999999999979 $782 $835 forward 7 unknown #
vertex $-1 $785 $836 #
straight-curve $-1 17.599999999999998 10.649999999999999 18.5 0 0 1 I I #
point $-1 17.599999999999998 10.65 18.5 #
coedge $-1 $837 $838 $765 $806 reversed $839 $-1 #
edge $-1 $840 8.8817841970012523e-016 $810 0.10000000000000142 $765 $841 forward 7 unknown #
coedge $-1 $842 $766 $838 $843 forward $809 $-1 #
coedge $-1 $766 $842 $768 $813 forward $809 $-1 #
loop $-1 $-1 $808 $819 #
vertex $-1 $767 $844 #
straight-curve $-1 17.599999999999998 4.6999999999999993 18 0 0 1 I I #
coedge $-1 $769 $768 $792 $830 reversed $770 $-1 #
edge $-1 $845 3.5527136788005009e-015 $771 0.10000000000000142 $768 $846 forward 7 unknown #
point $-1 17.599999999999998 4.7000000000000011 22 #
vertex $-1 $830 $847 #
straight-curve $-1 17.599999999999998 1.3000000000000007 22 -1 0 0 I I #
straight-curve $-1 17.5 0.10000000000000142 21.599999999999998 0 1 0 I I #
point $-1 17.5 1.3000000000000007 21.600000000000001 #
face $-1 $848 $809 $3 $-1 $849 reversed single #
plane-surface $-1 17.549999999999997 7.0499999999999998 22 0 0 -1 0 -1 0 forward_v I I I I #
coedge $-1 $782 $824 $850 $851 forward $723 $-1 #
coedge $-1 $786 $852 $783 $823 reversed $664 $-1 #
edge $-1 $788 0 $825 3.5 $822 $853 forward 7 unknown #
coedge $-1 $821 $784 $852 $854 reversed $723 $-1 #
vertex $-1 $823 $855 #
straight-curve $-1 17.499999999999996 10.649999999999999 22 1 0 0 I I #
straight-curve $-1 17.5 10.75 18.5 0 -1 0 I I #
point $-1 17.5 10.65 18.5 #
coedge $-1 $856 $792 $842 $857 reversed $664 $-1 #
edge $-1 $815 -8.8817841970012523e-016 $845 3.4000000000000004 $792 $858 forward 7 unknown #
straight-curve $-1 17.5 1.3000000000000007 22 0 0 -1 I I #
coedge $-1 $850 $859 $800 $833 forward $860 $-1 #
edge $-1 $840 0 $834 4 $800 $861 forward 7 unknown #
vertex $-1 $851 $862 #
straight-curve $-1 17.599999999999998 4.8000000000000007 22 0 1 0 I I #
point $-1 17.599999999999998 10.649999999999999 22 #
coedge $-1 $863 $805 $859 $864 forward $839 $-1 #
coedge $-1 $805 $863 $807 $843 reversed $839 $-1 #
loop $-1 $-1 $838 $848 #
vertex $-1 $806 $865 #
straight-curve $-1 17.599999999999998 4.8000000000000007 18 0 -1 0 I I #
coedge $-1 $808 $807 $829 $857 forward $809 $-1 #
edge $-1 $810 0 $866 0.10000000000000142 $807 $867 forward 7 unknown #
point $-1 17.600000000000001 4.6999999999999993 18 #
vertex $-1 $857 $868 #
straight-curve $-1 17.499999999999996 4.6999999999999993 22 1 0 0 I I #
point $-1 17.499999999999996 1.2999999999999998 22 #
face $-1 $869 $839 $3 $-1 $870 reversed single #
plane-surface $-1 17.5 4.6999999999999993 22 0 -1 0 0 0 -1 forward_v I I I I #
coedge $-1 $871 $832 $821 $851 reversed $860 $-1 #
edge $-1 $872 0 $834 0.10000000000000142 $821 $873 forward 7 unknown #
coedge $-1 $822 $874 $824 $854 forward $664 $-1 #
straight-curve $-1 17.5 10.649999999999999 18.5 0 0 1 I I #
edge $-1 $872 -8.8817841970012523e-016 $825 5.8499999999999996 $852 $875 forward 7 unknown #
point $-1 17.5 10.65 22 #
coedge $-1 $874 $829 $863 $876 reversed $664 $-1 #
edge $-1 $866 0 $845 4 $829 $877 forward 7 unknown #
straight-curve $-1 17.5 1.3000000000000007 22 0 1 0 I I #
coedge $-1 $832 $871 $837 $864 reversed $860 $-1 #
loop $-1 $-1 $859 $869 #
straight-curve $-1 17.599999999999998 4.7999999999999998 18 0 0 1 I I #
point $-1 17.599999999999998 4.7999999999999998 22 #
coedge $-1 $838 $837 $856 $876 forward $839 $-1 #
edge $-1 $840 0 $878 0.10000000000000142 $837 $879 forward 7 unknown #
point $-1 17.600000000000001 4.7999999999999998 18 #
vertex $-1 $876 $880 #
straight-curve $-1 17.600000000000001 4.6999999999999993 18 -1 0 0 I I #
point $-1 17.5 4.7000000000000011 22 #
face $-1 $578 $860 $3 $-1 $881 reversed single #
plane-surface $-1 17.5 4.6999999999999993 18 0 0 -1 0 1 0 forward_v I I I I #
coedge $-1 $859 $850 $874 $882 reversed $860 $-1 #
vertex $-1 $854 $883 #
straight-curve $-1 17.499999999999996 4.7999999999999998 22 1 0 0 I I #
coedge $-1 $852 $856 $871 $882 forward $664 $-1 #
straight-curve $-1 17.5 4.8000000000000007 22 0 1 0 I I #
edge $-1 $878 0 $866 0.099999999999999645 $856 $884 forward 7 unknown #
straight-curve $-1 17.5 4.6999999999999993 18 0 0 1 I I #
vertex $-1 $882 $885 #
straight-curve $-1 17.600000000000001 4.7999999999999998 18 -1 0 0 I I #
point $-1 17.5 4.7000000000000011 18 #
plane-surface $-1 17.5 4.7999999999999998 18 0 1 0 0 0 1 forward_v I I I I #
edge $-1 $878 0 $872 4 $874 $886 forward 7 unknown #
point $-1 17.499999999999996 4.7999999999999998 22 #
straight-curve $-1 17.5 4.8000000000000007 18 0 -1 0 I I #
point $-1 17.5 4.8000000000000007 18 #
straight-curve $-1 17.5 4.7999999999999998 18 0 0 1 I I #
End-of-ACIS-data 