600 0 1 0           
93 GICL Pro/E ACIS Translator - Source: f:/data5/repository/PTC/V18/piping18/evap-tube.prt - 6 0 13 ACIS 6.0.3 NT 24 Thu Apr 04 13:31:41 2002 
1 9.9999999999999995e-007 1e-010 
body $-1 $1 $-1 $2 #
lump $-1 $-1 $3 $0 #
transform $-1 1 0 0 0 1 0 0 0 1 0 0 0 25.399999999999999 no_rotate no_reflect no_shear #
shell $-1 $-1 $-1 $4 $-1 $1 #
face $-1 $5 $6 $3 $-1 $7 forward single #
face $-1 $8 $9 $3 $-1 $10 forward single #
loop $-1 $-1 $11 $4 #
cone-surface $-1 2 1 0.125 0 0 -1 -0.1875 0 0 1 I I 0 1 0.1875 forward I I I I #
face $-1 $12 $13 $3 $-1 $14 forward single #
loop $-1 $-1 $15 $5 #
cone-surface $-1 2 1 0.125 0 0 -1 -0.1875 0 0 1 I I 0 1 0.1875 forward I I I I #
coedge $-1 $16 $17 $18 $19 forward $6 $-1 #
face $-1 $20 $21 $3 $-1 $22 forward single #
loop $-1 $-1 $23 $8 #
torus-surface $-1 1.5 1 -15.625 0 1 0 0.5 0.1875 -1 0 0 forward_v I I I I #
coedge $-1 $24 $25 $26 $27 forward $9 $-1 #
coedge $-1 $26 $11 $28 $29 reversed $6 $-1 #
coedge $-1 $11 $26 $30 $31 reversed $6 $-1 #
coedge $-1 $25 $24 $11 $19 reversed $9 $-1 #
edge $-1 $32 0 $33 15.75 $11 $34 forward 7 unknown #
face $-1 $35 $36 $3 $-1 $37 forward single #
loop $-1 $-1 $38 $12 #
torus-surface $-1 1.5 1 -15.625 0 1 0 0.5 0.1875 -1 0 0 forward_v I I I I #
coedge $-1 $39 $40 $41 $42 forward $13 $-1 #
coedge $-1 $18 $15 $40 $43 reversed $9 $-1 #
coedge $-1 $15 $18 $44 $45 reversed $9 $-1 #
coedge $-1 $17 $16 $15 $27 reversed $6 $-1 #
edge $-1 $46 0 $47 15.75 $26 $48 forward 7 unknown #
coedge $-1 $38 $41 $16 $29 forward $21 $-1 #
edge $-1 $47 0 $33 3.1415926535897922 $16 $49 forward 7 unknown #
coedge $-1 $50 $51 $17 $31 forward $52 $-1 #
edge $-1 $32 0 $46 3.1415926535897931 $17 $53 forward 7 unknown #
vertex $-1 $31 $54 #
vertex $-1 $29 $55 #
straight-curve $-1 2.1875 1 0.125 0 0 -1 I I #
face $-1 $56 $57 $3 $-1 $58 forward single #
loop $-1 $-1 $59 $20 #
cone-surface $-1 1 1 -15.625 0 0 1 0.1875 0 0 1 I I 0 1 0.1875 forward I I I I #
coedge $-1 $60 $28 $61 $62 forward $21 $-1 #
coedge $-1 $61 $23 $63 $64 reversed $13 $-1 #
coedge $-1 $23 $61 $24 $43 forward $13 $-1 #
coedge $-1 $28 $60 $23 $42 reversed $21 $-1 #
edge $-1 $47 0 $65 3.1415926535897931 $41 $66 forward 7 unknown #
edge $-1 $33 0 $47 3.1415926535897931 $24 $67 forward 7 unknown #
coedge $-1 $68 $69 $25 $45 forward $70 $-1 #
edge $-1 $46 0 $32 3.1415926535897931 $25 $71 forward 7 unknown #
vertex $-1 $31 $72 #
vertex $-1 $27 $73 #
straight-curve $-1 1.8125 1 0.125 0 0 -1 I I #
ellipse-curve $-1 2 0.99999999999999989 -15.625 0 0 -1 -0.1875 1.1102230246251565e-016 0 1 I I #
coedge $-1 $74 $30 $69 $75 reversed $52 $-1 #
coedge $-1 $30 $74 $68 $76 forward $52 $-1 #
loop $-1 $-1 $50 $77 #
ellipse-curve $-1 2 1 0.125 0 0 1 0.1875 0 0 1 I I #
point $-1 2.1875 1 0.125 #
point $-1 2.1875 1 -15.625 #
face $-1 $78 $79 $3 $-1 $80 reversed single #
loop $-1 $-1 $81 $35 #
cone-surface $-1 1 1 -15.625 0 0 1 0.1875 0 0 1 I I 0 1 0.1875 forward I I I I #
coedge $-1 $82 $83 $84 $85 reversed $36 $-1 #
coedge $-1 $41 $38 $82 $86 reversed $21 $-1 #
coedge $-1 $40 $39 $38 $62 reversed $13 $-1 #
edge $-1 $33 0 $87 3.1415926535897931 $38 $88 forward 7 unknown #
coedge $-1 $84 $81 $39 $64 forward $57 $-1 #
edge $-1 $87 0 $65 3.1415926535897931 $39 $89 forward 7 unknown #
vertex $-1 $42 $90 #
ellipse-curve $-1 1.5 1 -15.625 0 1 0 0.3125 0 0 1 I I #
ellipse-curve $-1 2 1 -15.625 0 0 -1 0.1875 0 0 1 I I #
coedge $-1 $91 $44 $51 $76 reversed $70 $-1 #
coedge $-1 $44 $91 $50 $75 forward $70 $-1 #
loop $-1 $-1 $68 $92 #
ellipse-curve $-1 2 1 0.125 0 0 1 -0.1875 0 0 1 I I #
point $-1 1.8125 1 0.125 #
point $-1 1.8125 1 -15.625 #
coedge $-1 $51 $50 $93 $94 reversed $52 $-1 #
edge $-1 $95 0 $46 0.78539816339744273 $50 $96 forward 7 unknown #
edge $-1 $97 3.7778422365718088e-015 $32 0.7853981633974576 $51 $98 forward 7 unknown #
face $-1 $92 $52 $3 $-1 $99 reversed single #
face $-1 $100 $101 $3 $-1 $102 reversed single #
loop $-1 $-1 $103 $56 #
torus-surface $-1 1 1 0.125 0 0 1 0.48749999999999999 0.29999999999999999 -1 0 0 forward_v I I I I #
coedge $-1 $63 $104 $105 $106 reversed $57 $-1 #
coedge $-1 $105 $59 $60 $86 forward $36 $-1 #
coedge $-1 $59 $105 $107 $108 reversed $36 $-1 #
coedge $-1 $104 $63 $59 $85 forward $57 $-1 #
edge $-1 $65 0 $109 15.75 $59 $110 forward 7 unknown #
edge $-1 $65 0 $87 3.1415926535897931 $60 $111 forward 7 unknown #
vertex $-1 $86 $112 #
ellipse-curve $-1 1.5 1 -15.625 0 1 0 0.6875 0 0 1 I I #
ellipse-curve $-1 1 1 -15.625 0 0 1 -0.1875 0 0 1 I I #
point $-1 1.1875 1 -15.625 #
coedge $-1 $69 $68 $113 $114 forward $70 $-1 #
face $-1 $115 $70 $3 $-1 $116 reversed single #
coedge $-1 $117 $118 $74 $94 forward $119 $-1 #
edge $-1 $97 0 $95 3.1415926535897936 $93 $120 forward 7 unknown #
vertex $-1 $121 $122 #
ellipse-curve $-1 1.5124999999999984 0.99999999999999944 0.12499999999999929 -1.850911917149405e-015 1 -2.4254469442894515e-016 0.21213203435596606 4.4408920985006262e-016 0.21213203435596473 1 I I #
vertex $-1 $123 $124 #
ellipse-curve $-1 2.4874999999999963 1 0.12500000000000167 0 -1 0 -0.21213203435596073 0 0.21213203435596234 1 I I #
torus-surface $-1 2 1 0.125 0 0 1 0.48749999999999999 0.29999999999999999 -1 0 0 forward_v I I I I #
face $-1 $125 $126 $3 $-1 $127 forward single #
loop $-1 $-1 $128 $78 #
torus-surface $-1 1 1 0.125 0 0 1 0.48749999999999999 0.29999999999999999 -1 0 0 forward_v I I I I #
coedge $-1 $129 $130 $131 $132 reversed $79 $-1 #
coedge $-1 $81 $84 $130 $133 reversed $57 $-1 #
coedge $-1 $83 $82 $81 $106 forward $36 $-1 #
edge $-1 $87 0 $134 15.75 $105 $135 forward 7 unknown #
coedge $-1 $128 $131 $83 $108 forward $101 $-1 #
edge $-1 $109 0 $134 3.1415926535897931 $83 $136 forward 7 unknown #
vertex $-1 $108 $137 #
straight-curve $-1 1.1875 1 -15.625 0 0 1 I I #
ellipse-curve $-1 1 1 -15.625 0 0 1 0.1875 0 0 1 I I #
point $-1 0.8125 1 -15.625 #
coedge $-1 $138 $139 $91 $114 reversed $140 $-1 #
edge $-1 $97 0 $95 3.1415926535897927 $113 $141 forward 7 unknown #
face $-1 $-1 $140 $3 $-1 $142 forward single #
torus-surface $-1 2 1 0.125 0 0 1 0.48749999999999999 0.29999999999999999 -1 0 0 forward_v I I I I #
coedge $-1 $143 $93 $139 $121 reversed $119 $-1 #
coedge $-1 $93 $143 $138 $123 forward $119 $-1 #
loop $-1 $-1 $93 $144 #
ellipse-curve $-1 2 1 0.33713203435596401 0 0 1 0.27536796564403554 0 0 1 I I #
edge $-1 $145 0 $95 0.050000000000000017 $117 $146 forward 7 unknown #
point $-1 1.7246320343559645 0.99999999999999989 0.33713203435596401 #
edge $-1 $147 -1.1775693440128435e-016 $97 0.049999999999999996 $118 $148 forward 7 unknown #
point $-1 2.2753679656440347 1 0.33713203435596328 #
face $-1 $149 $150 $3 $-1 $151 forward single #
loop $-1 $-1 $152 $100 #
cone-surface $-1 1 1 -0.38750000000000018 0 0 1 -0.99999999999999989 0 0 1 I I -0.70710678118654746 0.70710678118654757 0.99999999999999989 forward I I I I #
coedge $-1 $153 $107 $154 $155 reversed $101 $-1 #
coedge $-1 $154 $103 $156 $157 forward $79 $-1 #
coedge $-1 $103 $154 $104 $133 forward $79 $-1 #
coedge $-1 $107 $153 $103 $132 forward $101 $-1 #
edge $-1 $158 2.312964634635737e-016 $109 0.78539816339744728 $131 $159 forward 7 unknown #
edge $-1 $134 0 $109 3.1415926535897931 $104 $160 forward 7 unknown #
vertex $-1 $108 $161 #
straight-curve $-1 0.8125 1 -15.625 0 0 1 I I #
ellipse-curve $-1 1 1 0.125 0 0 1 0.1875 0 0 1 I I #
point $-1 1.1875 1 0.125 #
coedge $-1 $162 $113 $118 $123 reversed $140 $-1 #
coedge $-1 $113 $162 $117 $121 forward $140 $-1 #
loop $-1 $-1 $162 $115 #
ellipse-curve $-1 2 1 0.33713203435596401 0 0 -1 0.27536796564403554 0 0 1 I I #
cone-surface $-1 2 1 -0.38750000000000262 0 0 1 -1.0000000000000029 0 0 1 I I -0.70710678118654857 0.70710678118654646 1.0000000000000029 forward I I I I #
coedge $-1 $118 $117 $163 $164 reversed $119 $-1 #
face $-1 $77 $119 $3 $-1 $165 forward single #
vertex $-1 $166 $167 #
straight-curve $-1 1.7599873734152927 1 0.37248737341529059 -0.70710678118654868 -2.2204460492503072e-015 -0.70710678118654646 I I #
vertex $-1 $168 $169 #
straight-curve $-1 2.2400126265847073 1 0.3724873734152907 0.70710678118654635 0 -0.70710678118654857 I I #
face $-1 $170 $171 $3 $-1 $172 forward single #
loop $-1 $-1 $173 $125 #
cone-surface $-1 1 1 -0.38750000000000018 0 0 1 -0.99999999999999989 0 0 1 I I -0.70710678118654746 0.70710678118654757 0.99999999999999989 forward I I I I #
coedge $-1 $174 $175 $153 $176 forward $126 $-1 #
coedge $-1 $131 $128 $152 $176 reversed $101 $-1 #
coedge $-1 $130 $129 $128 $155 forward $79 $-1 #
edge $-1 $177 0 $134 0.78539816339744672 $128 $178 forward 7 unknown #
coedge $-1 $179 $180 $129 $157 reversed $150 $-1 #
edge $-1 $158 0 $177 3.1415926535897927 $156 $181 forward 7 unknown #
vertex $-1 $182 $183 #
ellipse-curve $-1 1.4875000000000003 1 0.12499999999999981 0 -1 0 -0.2121320343559645 0 0.21213203435596437 1 I I #
ellipse-curve $-1 1 1 0.125 0 0 1 -0.1875 0 0 1 I I #
point $-1 0.8125 1 0.125 #
coedge $-1 $139 $138 $184 $185 forward $140 $-1 #
coedge $-1 $186 $187 $143 $164 forward $188 $-1 #
edge $-1 $147 0 $145 3.1415926535897931 $163 $189 forward 7 unknown #
cone-surface $-1 2 1 -0.38750000000000262 0 0 1 -1.0000000000000029 0 0 1 I I -0.70710678118654857 0.70710678118654646 1.0000000000000029 forward I I I I #
edge $-1 $190 0 $145 0.78539816339744395 $186 $191 forward 7 unknown #
point $-1 1.7599873734152927 1 0.37248737341529059 #
edge $-1 $192 0 $147 0.78539816339743873 $187 $193 forward 7 unknown #
point $-1 2.2400126265847078 1 0.37248737341529131 #
face $-1 $194 $195 $3 $-1 $196 reversed single #
loop $-1 $-1 $197 $149 #
torus-surface $-1 1 1 0.125 0 0 1 0.48749999999999999 0.34999999999999998 -1 0 0 forward_v I I I I #
coedge $-1 $180 $179 $198 $199 forward $150 $-1 #
coedge $-1 $200 $152 $180 $201 reversed $126 $-1 #
coedge $-1 $152 $200 $179 $182 forward $126 $-1 #
edge $-1 $158 0 $177 3.1415926535897936 $152 $202 forward 7 unknown #
vertex $-1 $201 $203 #
ellipse-curve $-1 0.51249999999999951 0.99999999999999944 0.12499999999999978 -1.8509119171494057e-015 1 -2.4254469442895585e-016 0.21213203435596484 4.4408920985006262e-016 0.21213203435596439 1 I I #
coedge $-1 $173 $156 $175 $182 reversed $150 $-1 #
coedge $-1 $156 $173 $174 $201 forward $150 $-1 #
ellipse-curve $-1 1 1 0.33713203435596417 0 0 -1 0.27536796564403576 0 0 1 I I #
edge $-1 $204 0 $158 0.049999999999999822 $175 $205 forward 7 unknown #
point $-1 1.2753679656440355 1 0.33713203435596428 #
coedge $-1 $206 $207 $162 $185 reversed $208 $-1 #
edge $-1 $147 0 $145 3.1415926535897931 $184 $209 forward 7 unknown #
coedge $-1 $210 $163 $207 $166 reversed $188 $-1 #
coedge $-1 $163 $210 $206 $168 forward $188 $-1 #
loop $-1 $-1 $163 $211 #
ellipse-curve $-1 2 1 0.3724873734152907 0 0 1 0.24001262658470734 0 0 1 I I #
vertex $-1 $212 $213 #
ellipse-curve $-1 1.5125 1 0.12499999999999997 0 -1 0 0.35000000000000009 0 8.3266726846886741e-017 1 I I #
vertex $-1 $168 $214 #
ellipse-curve $-1 2.4875000000000034 1 0.12499999999999917 0 1 0 -0.3500000000000032 0 8.8817841970012523e-016 1 I I #
face $-1 $215 $216 $3 $-1 $217 forward single #
loop $-1 $218 $219 $170 #
plane-surface $-1 1 1 0.125 0 0 1 -1 0 0 forward_v I I I I #
coedge $-1 $220 $221 $219 $222 forward $171 $-1 #
coedge $-1 $221 $220 $173 $199 reversed $171 $-1 #
edge $-1 $204 0 $223 3.1415926535897931 $198 $224 forward 7 unknown #
coedge $-1 $175 $174 $225 $226 reversed $126 $-1 #
edge $-1 $223 0 $177 0.049999999999999913 $174 $227 forward 7 unknown #
ellipse-curve $-1 1 1 0.33713203435596417 0 0 1 0.27536796564403576 0 0 1 I I #
point $-1 0.72463203435596435 0.99999999999999989 0.33713203435596417 #
vertex $-1 $228 $229 #
straight-curve $-1 1.2400126265847082 1 0.37248737341529148 0.70710678118654868 0 -0.70710678118654646 I I #
coedge $-1 $230 $184 $187 $168 reversed $208 $-1 #
coedge $-1 $184 $230 $186 $166 forward $208 $-1 #
loop $-1 $-1 $230 $231 #
ellipse-curve $-1 2 1 0.37248737341529059 4.6256859083758539e-016 0 -1 0.24001262658470734 0 1.1102230246251565e-016 1 I I #
coedge $-1 $187 $186 $232 $212 reversed $188 $-1 #
face $-1 $144 $188 $3 $-1 $233 forward single #
edge $-1 $192 0 $190 3.1415926535897931 $210 $234 forward 7 unknown #
point $-1 1.8625 1 0.12500000000000006 #
point $-1 2.1375000000000002 1 0.12500000000000006 #
face $-1 $235 $236 $3 $-1 $237 reversed single #
loop $-1 $-1 $225 $194 #
torus-surface $-1 1 1 0.125 0 0 1 0.48749999999999999 0.34999999999999998 -1 0 0 forward_v I I I I #
loop $-1 $-1 $238 $170 #
coedge $-1 $239 $239 $197 $222 reversed $195 $-1 #
coedge $-1 $198 $197 $240 $241 forward $171 $-1 #
coedge $-1 $197 $198 $242 $228 reversed $171 $-1 #
edge $-1 $243 0 $244 3.1415926535897931 $219 $245 forward 7 unknown #
vertex $-1 $241 $246 #
ellipse-curve $-1 1 1 0.37248737341529148 0 0 -1 0.24001262658470823 0 0 1 I I #
coedge $-1 $240 $242 $200 $226 forward $216 $-1 #
edge $-1 $204 0 $223 3.1415926535897931 $225 $247 forward 7 unknown #
straight-curve $-1 0.75998737341529166 1 0.37248737341529148 -0.70710678118654746 -2.2204460492503245e-015 -0.70710678118654746 I I #
edge $-1 $243 0 $204 0.78539816339744684 $242 $248 forward 7 unknown #
point $-1 1.2400126265847082 1 0.37248737341529148 #
coedge $-1 $207 $206 $249 $250 forward $208 $-1 #
face $-1 $211 $208 $3 $-1 $251 forward single #
coedge $-1 $249 $249 $210 $212 forward $252 $-1 #
torus-surface $-1 2 1 0.125 0 0 1 0.48749999999999999 0.34999999999999998 -1 0 0 forward_v I I I I #
ellipse-curve $-1 2 1 0.125 -4.0371746350005642e-016 0 1 0.13750000000000018 0 5.5511151231257827e-017 1 I I #
face $-1 $253 $254 $3 $-1 $255 reversed single #
loop $-1 $-1 $256 $215 #
cone-surface $-1 1 1 -15.625 0 0 1 0.14749999999999999 0 0 1 I I 0 1 0.14749999999999999 forward I I I I #
coedge $-1 $257 $257 $256 $258 reversed $218 $-1 #
coedge $-1 $219 $219 $259 $260 forward $195 $-1 #
coedge $-1 $259 $225 $220 $241 reversed $216 $-1 #
edge $-1 $244 0 $223 0.78539816339744706 $240 $261 forward 7 unknown #
coedge $-1 $225 $259 $221 $228 forward $216 $-1 #
vertex $-1 $228 $262 #
vertex $-1 $260 $263 #
ellipse-curve $-1 1 1 0.125 4.0371746350005701e-016 0 -1 0.13749999999999996 0 5.5511151231257827e-017 1 I I #
point $-1 0.75998737341529166 1 0.37248737341529148 #
ellipse-curve $-1 1 1 0.37248737341529148 0 0 1 0.24001262658470823 0 0 1 I I #
ellipse-curve $-1 1.4875000000000003 1 0.12499999999999979 0 1 0 -0.35000000000000031 0 2.6367796834847468e-016 1 I I #
coedge $-1 $232 $232 $230 $250 reversed $252 $-1 #
edge $-1 $192 0 $190 3.14159265358979 $249 $264 forward 7 unknown #
torus-surface $-1 2 1 0.125 0 0 1 0.48749999999999999 0.34999999999999998 -1 0 0 forward_v I I I I #
loop $-1 $265 $249 $266 #
face $-1 $267 $268 $3 $-1 $269 reversed single #
loop $-1 $-1 $270 $235 #
cone-surface $-1 1 1 -15.625 0 0 1 0.14749999999999999 0 0 1 I I 0 1 0.14749999999999999 forward I I I I #
coedge $-1 $271 $272 $238 $258 forward $236 $-1 #
coedge $-1 $238 $238 $273 $274 reversed $218 $-1 #
edge $-1 $275 0 $276 3.1415926535897931 $256 $277 forward 7 unknown #
coedge $-1 $242 $240 $239 $260 reversed $216 $-1 #
edge $-1 $243 0 $244 3.1415926535897931 $259 $278 forward 7 unknown #
ellipse-curve $-1 0.51249999999999973 1 0.12499999999999983 0 -1 0 0.35000000000000031 0 2.2204460492503131e-016 1 I I #
point $-1 1.1375 1 0.12500000000000006 #
point $-1 0.86250000000000004 1 0.12500000000000006 #
ellipse-curve $-1 2 1.0000000000000002 0.125 4.0371746350005642e-016 -6.5195116133967753e-031 -1 0.13750000000000018 -2.2204460492503131e-016 5.5511151231257827e-017 1 I I #
loop $-1 $-1 $279 $266 #
face $-1 $231 $252 $3 $-1 $280 reversed single #
face $-1 $281 $282 $3 $-1 $283 reversed single #
loop $-1 $-1 $284 $253 #
torus-surface $-1 1.5 1 -15.625 0 1 0 0.5 0.14749999999999999 -1 0 0 forward_v I I I I #
coedge $-1 $285 $286 $287 $288 forward $254 $-1 #
coedge $-1 $289 $256 $285 $290 reversed $236 $-1 #
coedge $-1 $256 $289 $286 $291 forward $236 $-1 #
coedge $-1 $286 $285 $257 $274 forward $254 $-1 #
edge $-1 $276 0 $275 3.1415926535897931 $273 $292 forward 7 unknown #
vertex $-1 $291 $293 #
vertex $-1 $274 $294 #
ellipse-curve $-1 1 1 0.125 0 0 1 0.14749999999999996 0 0 1 I I #
ellipse-curve $-1 1 1 0.125 -4.0371746350005701e-016 0 1 0.13749999999999996 0 5.5511151231257827e-017 1 I I #
coedge $-1 $295 $295 $296 $297 forward $265 $-1 #
plane-surface $-1 2 1 0.125 0 0 1 -1 0 0 forward_v I I I I #
face $-1 $298 $299 $3 $-1 $300 reversed single #
loop $-1 $-1 $301 $267 #
torus-surface $-1 1.5 1 -15.625 0 1 0 0.5 0.14749999999999999 -1 0 0 forward_v I I I I #
coedge $-1 $287 $302 $303 $304 forward $268 $-1 #
coedge $-1 $273 $270 $271 $290 forward $254 $-1 #
coedge $-1 $270 $273 $272 $291 reversed $254 $-1 #
coedge $-1 $305 $284 $270 $288 reversed $268 $-1 #
edge $-1 $306 0 $307 3.1415926535897931 $287 $308 forward 7 unknown #
coedge $-1 $272 $271 $309 $310 forward $236 $-1 #
edge $-1 $307 0 $276 15.75 $285 $311 forward 7 unknown #
edge $-1 $306 0 $275 15.75 $286 $312 forward 7 unknown #
ellipse-curve $-1 1 1 0.125 0 0 1 -0.14749999999999996 0 0 1 I I #
point $-1 1.1475 1 0.125 #
point $-1 0.85250000000000004 1 0.125 #
coedge $-1 $279 $279 $313 $314 forward $265 $-1 #
coedge $-1 $315 $316 $279 $297 reversed $299 $-1 #
edge $-1 $317 0 $318 3.1415926535897931 $296 $319 forward 7 unknown #
face $-1 $266 $320 $3 $-1 $321 reversed single #
loop $-1 $-1 $315 $281 #
cone-surface $-1 2 1 0.125 0 0 -1 -0.14749999999999999 0 0 1 I I 0 1 0.14749999999999999 forward I I I I #
coedge $-1 $309 $322 $305 $323 forward $282 $-1 #
coedge $-1 $284 $305 $324 $325 forward $268 $-1 #
coedge $-1 $322 $309 $284 $304 reversed $282 $-1 #
edge $-1 $326 0 $307 3.1415926535897931 $284 $327 forward 7 unknown #
coedge $-1 $302 $287 $301 $323 reversed $268 $-1 #
vertex $-1 $323 $328 #
vertex $-1 $288 $329 #
ellipse-curve $-1 1 1 -15.625 0 0 -1 0.14749999999999996 0 0 1 I I #
coedge $-1 $303 $301 $289 $310 reversed $282 $-1 #
edge $-1 $307 0 $306 3.1415926535897931 $309 $330 forward 7 unknown #
straight-curve $-1 0.85250000000000004 1 -15.625 0 0 1 I I #
straight-curve $-1 1.1475 1 -15.625 0 0 1 I I #
coedge $-1 $331 $332 $295 $314 reversed $320 $-1 #
edge $-1 $318 0 $317 3.1415926535897931 $313 $333 forward 7 unknown #
coedge $-1 $334 $296 $332 $335 forward $299 $-1 #
coedge $-1 $296 $334 $331 $336 reversed $299 $-1 #
vertex $-1 $314 $337 #
vertex $-1 $314 $338 #
ellipse-curve $-1 2 1 0.125 0 0 -1 -0.14749999999999996 0 0 1 I I #
loop $-1 $-1 $331 $298 #
cone-surface $-1 2 1 0.125 0 0 -1 -0.14749999999999999 0 0 1 I I 0 1 0.14749999999999999 forward I I I I #
coedge $-1 $301 $303 $334 $339 forward $282 $-1 #
edge $-1 $340 0 $306 3.1415926535897931 $305 $341 forward 7 unknown #
coedge $-1 $332 $331 $302 $325 reversed $320 $-1 #
edge $-1 $340 0 $326 3.1415926535897944 $324 $342 forward 7 unknown #
vertex $-1 $325 $343 #
ellipse-curve $-1 1.5 1 -15.625 0 1 0 0.64749999999999996 0 0 1 I I #
point $-1 1.1475 1 -15.625 #
point $-1 0.85250000000000004 1 -15.625 #
ellipse-curve $-1 1 1 -15.625 0 0 -1 -0.14749999999999996 0 0 1 I I #
coedge $-1 $324 $313 $316 $336 forward $320 $-1 #
coedge $-1 $313 $324 $315 $335 reversed $320 $-1 #
ellipse-curve $-1 2 1 0.125 0 0 -1 0.14749999999999996 0 0 1 I I #
coedge $-1 $316 $315 $322 $339 reversed $299 $-1 #
edge $-1 $317 0 $340 15.75 $332 $344 forward 7 unknown #
edge $-1 $318 0 $326 15.75 $331 $345 forward 7 unknown #
point $-1 1.8525 1 0.125 #
point $-1 2.1475 1 0.125 #
edge $-1 $326 0 $340 3.1415926535897931 $334 $346 forward 7 unknown #
vertex $-1 $335 $347 #
ellipse-curve $-1 1.5 1 -15.625 0 1 0 0.35250000000000004 0 0 1 I I #
ellipse-curve $-1 2 0.99999999999999989 -15.625 0 0 1 -0.14749999999999996 1.1102230246251565e-016 0 1 I I #
point $-1 2.1475 1 -15.625 #
straight-curve $-1 1.8525 1 0.125 0 0 -1 I I #
straight-curve $-1 2.1475 1 0.125 0 0 -1 I I #
ellipse-curve $-1 2 1 -15.625 0 0 1 0.14749999999999996 0 0 1 I I #
point $-1 1.8525 1 -15.625 #
End-of-ACIS-data 