600 0 1 0           
85 GICL ACIS Healer - Source: /gicl/data5/repository/PTC/V18/piping18/fan_ring.sat - 6 0 18 ACIS 6.0.3 Solaris 24 Sat Apr 13 21:20:30 2002 
1 9.999999999999999547e-07 1.000000000000000036e-10 
body $-1 $1 $-1 $-1 #
lump $-1 $-1 $2 $0 #
shell $-1 $-1 $-1 $3 $-1 $1 #
face $-1 $4 $5 $2 $-1 $6 reversed single #
face $-1 $7 $8 $2 $-1 $9 forward single #
loop $-1 $10 $11 $3 #
plane-surface $-1 110.23599999999999 0 0 1 0 0 0 0 -25.39999999999999858 forward_v I I I I #
face $-1 $12 $13 $2 $-1 $14 forward single #
loop $-1 $-1 $15 $4 #
cone-surface $-1 110.23599999999999 177.7999999999999829 196.8499999999999943 1 0 0 0 0 -146.0499999999999829 1 I I 0 1 146.0499999999999829 forward I I I I #
loop $-1 $16 $17 $3 #
coedge $-1 $18 $18 $19 $20 reversed $5 $-1 #
face $-1 $21 $22 $2 $-1 $23 forward single #
loop $-1 $-1 $24 $7 #
cone-surface $-1 110.23599999999999 177.7999999999999829 196.8499999999999943 1 0 0 0 0 -146.0499999999999829 1 I I 0 1 146.0499999999999829 forward I I I I #
coedge $-1 $25 $19 $26 $27 forward $8 $-1 #
loop $-1 $28 $29 $3 #
coedge $-1 $30 $31 $32 $33 reversed $10 $-1 #
coedge $-1 $11 $11 $34 $35 reversed $5 $-1 #
coedge $-1 $15 $36 $11 $20 forward $8 $-1 #
edge $-1 $37 0 $38 3.141592653589793116 $11 $39 forward 7 unknown #
face $-1 $40 $41 $2 $-1 $42 reversed single #
loop $-1 $43 $44 $12 #
plane-surface $-1 135.6359999999999957 0 0 1 0 0 0 0 -25.39999999999999858 forward_v I I I I #
coedge $-1 $45 $34 $36 $46 forward $13 $-1 #
coedge $-1 $36 $15 $44 $47 reversed $8 $-1 #
coedge $-1 $34 $45 $15 $27 reversed $13 $-1 #
edge $-1 $38 0 $48 1.000000000000000222 $26 $49 forward 7 unknown #
loop $-1 $50 $51 $3 #
coedge $-1 $52 $53 $54 $55 forward $16 $-1 #
coedge $-1 $56 $17 $57 $58 forward $10 $-1 #
coedge $-1 $17 $59 $60 $61 forward $10 $-1 #
coedge $-1 $62 $63 $17 $33 forward $64 $-1 #
edge $-1 $65 0 $66 1.670963747956454748 $17 $67 forward 7 unknown #
coedge $-1 $24 $26 $18 $35 forward $13 $-1 #
edge $-1 $38 0 $37 3.141592653589793116 $18 $68 forward 7 unknown #
coedge $-1 $19 $25 $24 $46 reversed $8 $-1 #
vertex $-1 $35 $69 #
vertex $-1 $35 $70 #
ellipse-curve $-1 110.23599999999999 177.7999999999999829 196.8499999999999943 1 0 0 0 0 146.0499999999999829 1 I I #
face $-1 $71 $72 $2 $-1 $73 reversed single #
loop $-1 $-1 $74 $21 #
cone-surface $-1 135.6359999999999957 177.7999999999999829 196.8499999999999943 1 0 0 0 0 -133.3499999999999943 1 I I 0 1 133.3499999999999943 forward I I I I #
loop $-1 $-1 $75 $12 #
coedge $-1 $76 $76 $25 $47 forward $22 $-1 #
coedge $-1 $26 $24 $76 $77 reversed $13 $-1 #
edge $-1 $37 0 $78 1.000000000000000222 $24 $79 forward 7 unknown #
edge $-1 $78 0 $48 3.141592653589793116 $25 $80 forward 7 unknown #
vertex $-1 $27 $81 #
straight-curve $-1 110.23599999999999 177.7999999999999829 50.79999999999999716 25.39999999999999858 0 0 I I #
loop $-1 $82 $83 $3 #
coedge $-1 $84 $85 $86 $87 forward $28 $-1 #
coedge $-1 $88 $29 $89 $90 reversed $16 $-1 #
coedge $-1 $29 $91 $92 $93 reversed $16 $-1 #
coedge $-1 $94 $95 $29 $55 reversed $96 $-1 #
edge $-1 $97 1.894310722157865975e-15 $98 1.670963747956461409 $29 $99 forward 7 unknown #
coedge $-1 $100 $30 $101 $102 reversed $10 $-1 #
coedge $-1 $103 $104 $30 $58 reversed $105 $-1 #
edge $-1 $65 0 $106 3.038445512429390316 $30 $107 forward 7 unknown #
coedge $-1 $31 $108 $109 $110 reversed $10 $-1 #
coedge $-1 $111 $112 $31 $61 reversed $72 $-1 #
edge $-1 $113 -1.278657240079143021e-17 $66 1.37046148447177818 $31 $114 forward 7 unknown #
coedge $-1 $115 $32 $112 $116 reversed $64 $-1 #
coedge $-1 $32 $115 $103 $117 forward $64 $-1 #
loop $-1 $-1 $32 $71 #
vertex $-1 $58 $118 #
vertex $-1 $61 $119 #
ellipse-curve $-1 110.23599999999999 304.1634045125406942 184.1499999999999773 -1 0 0 0 0 6.349999999999999645 1 I I #
ellipse-curve $-1 110.23599999999999 177.7999999999999829 196.8499999999999943 1 0 0 0 0 -146.0499999999999829 1 I I #
point $-1 110.23599999999999 177.7999999999999829 342.8999999999999773 #
point $-1 110.23599999999999 177.7999999999999829 50.79999999999999716 #
face $-1 $120 $64 $2 $-1 $121 reversed single #
loop $-1 $-1 $112 $40 #
cone-surface $-1 135.6359999999999957 177.7999999999999829 196.8499999999999943 1 0 0 0 0 -133.3499999999999943 1 I I 0 1 133.3499999999999943 forward I I I I #
coedge $-1 $122 $123 $124 $125 reversed $41 $-1 #
coedge $-1 $126 $126 $122 $127 reversed $43 $-1 #
coedge $-1 $44 $44 $45 $77 forward $22 $-1 #
edge $-1 $48 0 $78 3.141592653589793116 $45 $128 forward 7 unknown #
vertex $-1 $77 $129 #
straight-curve $-1 110.23599999999999 177.8000000000000114 342.8999999999999773 25.39999999999999858 0 0 I I #
ellipse-curve $-1 135.6359999999999957 177.7999999999999829 196.8499999999999943 1 0 0 0 0 146.0499999999999829 1 I I #
point $-1 135.6359999999999957 177.7999999999999829 50.79999999999999716 #
loop $-1 $-1 $130 $3 #
coedge $-1 $131 $132 $133 $134 reversed $50 $-1 #
coedge $-1 $135 $51 $136 $137 reversed $28 $-1 #
coedge $-1 $51 $138 $139 $140 reversed $28 $-1 #
coedge $-1 $141 $142 $51 $87 reversed $143 $-1 #
edge $-1 $144 7.819538446116528814e-15 $145 1.670963747956420553 $51 $146 forward 7 unknown #
coedge $-1 $147 $52 $148 $149 forward $16 $-1 #
coedge $-1 $150 $151 $52 $90 forward $152 $-1 #
edge $-1 $153 0 $98 3.03844551242939076 $52 $154 forward 7 unknown #
coedge $-1 $53 $155 $156 $157 forward $16 $-1 #
coedge $-1 $158 $159 $53 $93 forward $41 $-1 #
edge $-1 $97 0 $160 1.370461484471776847 $53 $161 forward 7 unknown #
coedge $-1 $162 $54 $159 $163 reversed $96 $-1 #
coedge $-1 $54 $162 $150 $164 forward $96 $-1 #
loop $-1 $-1 $162 $165 #
vertex $-1 $93 $166 #
vertex $-1 $90 $167 #
ellipse-curve $-1 110.23599999999999 165.0999999999999943 70.48659548745926884 1 0 0 0 -0.6350000000000315392 -6.318170225627044445 1 I I #
coedge $-1 $168 $56 $169 $170 reversed $10 $-1 #
coedge $-1 $171 $172 $56 $102 forward $173 $-1 #
edge $-1 $174 -6.608060658690283049e-16 $106 1.318116071652820631 $56 $175 forward 7 unknown #
coedge $-1 $176 $57 $63 $117 reversed $105 $-1 #
coedge $-1 $57 $176 $171 $177 forward $105 $-1 #
loop $-1 $-1 $103 $178 #
vertex $-1 $102 $179 #
straight-curve $-1 110.23599999999999 304.1634045125406942 190.5 0 -25.39999999999999858 0 I I #
coedge $-1 $59 $168 $180 $181 forward $10 $-1 #
coedge $-1 $182 $183 $59 $110 forward $184 $-1 #
edge $-1 $113 3.92078265748954966e-15 $185 1.670963747956454526 $59 $186 forward 7 unknown #
coedge $-1 $187 $60 $183 $188 reversed $72 $-1 #
coedge $-1 $60 $189 $62 $116 forward $72 $-1 #
vertex $-1 $61 $190 #
ellipse-curve $-1 110.23599999999999 177.8000000000000682 196.8499999999999091 1 0 0 0 13.33499999999989605 -132.6815747381676829 1 I I #
coedge $-1 $63 $62 $191 $192 reversed $64 $-1 #
edge $-1 $193 0 $66 0.249999999999999778 $112 $194 forward 7 unknown #
edge $-1 $195 0 $65 0.249999999999999778 $103 $196 forward 7 unknown #
point $-1 110.23599999999999 304.1634045125406942 190.5 #
point $-1 110.23599999999999 310.4815747381677511 183.5149999999999864 #
face $-1 $197 $198 $2 $-1 $199 forward single #
cone-surface $-1 116.5859999999999843 304.1634045125406942 184.1499999999999773 -1 0 0 0 4.511946372076635928e-14 6.349999999999999645 1 I I 0 1 6.349999999999999645 forward I I I I #
coedge $-1 $200 $74 $75 $127 forward $41 $-1 #
coedge $-1 $74 $201 $202 $203 reversed $41 $-1 #
coedge $-1 $204 $205 $74 $125 forward $72 $-1 #
edge $-1 $206 0 $207 0.7500000000000004441 $124 $208 forward 7 unknown #
coedge $-1 $75 $75 $205 $209 reversed $43 $-1 #
edge $-1 $206 0 $210 3.141592653589793116 $122 $211 forward 7 unknown #
ellipse-curve $-1 135.6359999999999957 177.7999999999999829 196.8499999999999943 1 0 0 0 0 -146.0499999999999829 1 I I #
point $-1 135.6359999999999957 177.7999999999999829 342.8999999999999773 #
coedge $-1 $212 $212 $213 $214 reversed $82 $-1 #
coedge $-1 $215 $83 $216 $217 forward $50 $-1 #
coedge $-1 $83 $218 $219 $220 forward $50 $-1 #
coedge $-1 $221 $222 $83 $134 forward $223 $-1 #
edge $-1 $224 -4.615730370095158414e-16 $225 1.67096374795645275 $83 $226 forward 7 unknown #
coedge $-1 $227 $84 $228 $229 forward $28 $-1 #
coedge $-1 $230 $231 $84 $137 forward $232 $-1 #
edge $-1 $233 0 $145 3.038445512429389428 $84 $234 forward 7 unknown #
coedge $-1 $85 $235 $236 $237 forward $28 $-1 #
coedge $-1 $238 $239 $85 $140 forward $72 $-1 #
edge $-1 $144 -3.83597172023742968e-17 $240 1.370461484471778624 $85 $241 forward 7 unknown #
coedge $-1 $242 $86 $239 $243 reversed $143 $-1 #
coedge $-1 $86 $242 $230 $244 forward $143 $-1 #
loop $-1 $-1 $242 $245 #
vertex $-1 $140 $246 #
vertex $-1 $137 $247 #
ellipse-curve $-1 110.23599999999999 190.5000000000001137 323.2134045125405919 1 0 0 0 0.634999999999896203 6.318170225627145697 1 I I #
coedge $-1 $248 $88 $249 $250 forward $16 $-1 #
coedge $-1 $251 $252 $88 $149 reversed $253 $-1 #
edge $-1 $153 3.552713678800512762e-15 $254 1.318116071652829291 $88 $255 forward 7 unknown #
coedge $-1 $256 $89 $95 $164 reversed $152 $-1 #
coedge $-1 $89 $256 $251 $257 forward $152 $-1 #
loop $-1 $-1 $150 $258 #
vertex $-1 $149 $259 #
straight-curve $-1 110.23599999999999 171.4499999999999886 147.6631115031657941 0 0 -25.39999999999999858 I I #
coedge $-1 $91 $248 $260 $261 reversed $16 $-1 #
coedge $-1 $262 $263 $91 $157 reversed $264 $-1 #
edge $-1 $265 -4.615730370095096291e-16 $160 1.670963747956461409 $91 $266 forward 7 unknown #
coedge $-1 $267 $92 $263 $268 reversed $41 $-1 #
coedge $-1 $92 $269 $94 $163 forward $41 $-1 #
vertex $-1 $93 $270 #
ellipse-curve $-1 110.23599999999999 177.7999999999999829 196.8499999999999943 -1 0 0 0 -13.33500000000000796 -132.6815747381677681 1 I I #
coedge $-1 $95 $94 $271 $272 forward $96 $-1 #
edge $-1 $273 0 $97 0.249999999999999778 $159 $274 forward 7 unknown #
edge $-1 $275 0 $98 0.249999999999999778 $150 $276 forward 7 unknown #
face $-1 $258 $96 $2 $-1 $277 reversed single #
point $-1 110.23599999999999 164.464999999999975 64.16842526183222617 #
point $-1 110.23599999999999 171.4499999999999886 70.48659548745926884 #
coedge $-1 $108 $100 $278 $279 reversed $10 $-1 #
coedge $-1 $280 $281 $100 $170 forward $282 $-1 #
edge $-1 $283 4.31546818526707115e-16 $174 1.065435816510735156 $100 $284 forward 7 unknown #
coedge $-1 $285 $101 $104 $177 reversed $173 $-1 #
coedge $-1 $101 $285 $280 $286 forward $173 $-1 #
loop $-1 $-1 $101 $287 #
vertex $-1 $170 $288 #
ellipse-curve $-1 110.23599999999999 226.9868884968341831 184.1500000000000057 -1 0 0 0 -6.148361062104255481 1.587499999999977263 1 I I #
coedge $-1 $104 $103 $289 $290 forward $105 $-1 #
edge $-1 $291 0 $106 0.249999999999999778 $104 $292 forward 7 unknown #
face $-1 $-1 $105 $2 $-1 $293 reversed single #
point $-1 110.23599999999999 226.9868884968341831 190.5 #
coedge $-1 $294 $295 $108 $181 reversed $296 $-1 #
edge $-1 $297 0 $185 3.03844551242939076 $108 $298 forward 7 unknown #
coedge $-1 $299 $109 $295 $300 reversed $184 $-1 #
coedge $-1 $109 $299 $111 $188 forward $184 $-1 #
loop $-1 $-1 $109 $301 #
vertex $-1 $110 $302 #
ellipse-curve $-1 110.23599999999999 190.5 70.48659548745926884 -1 0 0 0 0.6349999999999864642 -6.318170225627032899 1 I I #
coedge $-1 $303 $111 $304 $305 reversed $72 $-1 #
edge $-1 $306 0 $113 0.249999999999999778 $111 $307 forward 7 unknown #
coedge $-1 $112 $238 $308 $309 reversed $72 $-1 #
point $-1 110.23599999999999 191.1349999999999625 64.16842526183222617 #
coedge $-1 $308 $289 $115 $192 forward $198 $-1 #
edge $-1 $195 1.846292148038048772e-15 $193 1.670963747956447643 $191 $310 forward 7 unknown #
vertex $-1 $309 $311 #
straight-curve $-1 116.5859999999999843 310.4815747381677511 183.5149999999999864 -25.39999999999999858 0 0 I I #
vertex $-1 $192 $312 #
straight-curve $-1 116.5859999999999843 304.1634045125407511 190.5 -25.39999999999999858 -1.804778548830654371e-13 0 I I #
face $-1 $313 $314 $2 $-1 $315 reversed single #
loop $-1 $-1 $316 $120 #
plane-surface $-1 116.5859999999999843 0 0 1 0 0 0 0 -25.39999999999999858 forward_v I I I I #
coedge $-1 $269 $122 $303 $317 forward $41 $-1 #
coedge $-1 $123 $219 $318 $319 reversed $41 $-1 #
coedge $-1 $320 $321 $123 $203 forward $322 $-1 #
edge $-1 $207 9.324707818371788601e-18 $323 0.1001674211615472404 $202 $324 forward 7 unknown #
coedge $-1 $239 $124 $321 $325 reversed $72 $-1 #
coedge $-1 $124 $303 $126 $209 forward $72 $-1 #
vertex $-1 $125 $326 #
vertex $-1 $203 $327 #
straight-curve $-1 135.6359999999999957 177.8000000000000114 330.1999999999999886 -25.39999999999999858 0 0 I I #
edge $-1 $210 0 $206 3.141592653589793116 $205 $328 forward 7 unknown #
vertex $-1 $209 $329 #
ellipse-curve $-1 135.6359999999999957 177.7999999999999829 196.8499999999999943 1 0 0 0 0 133.3499999999999943 1 I I #
coedge $-1 $130 $130 $330 $331 reversed $82 $-1 #
coedge $-1 $332 $333 $130 $214 forward $334 $-1 #
edge $-1 $335 0 $336 3.141592653589793116 $130 $337 forward 7 unknown #
coedge $-1 $338 $131 $339 $340 reversed $50 $-1 #
coedge $-1 $341 $342 $131 $217 reversed $343 $-1 #
edge $-1 $224 0 $344 3.038445512429391648 $131 $345 forward 7 unknown #
coedge $-1 $132 $346 $347 $348 reversed $50 $-1 #
coedge $-1 $201 $349 $132 $220 reversed $41 $-1 #
edge $-1 $350 5.114628960316572085e-17 $225 1.370461484471778402 $132 $351 forward 7 unknown #
coedge $-1 $352 $133 $349 $353 reversed $223 $-1 #
coedge $-1 $133 $352 $341 $354 forward $223 $-1 #
loop $-1 $-1 $133 $355 #
vertex $-1 $217 $356 #
vertex $-1 $220 $357 #
ellipse-curve $-1 110.23599999999999 51.43659548745925036 209.5499999999999829 -1 0 0 0 1.127986593019158982e-14 -6.349999999999999645 1 I I #
coedge $-1 $358 $135 $359 $360 forward $28 $-1 #
coedge $-1 $361 $362 $135 $229 reversed $363 $-1 #
edge $-1 $233 -6.32215190085764962e-15 $364 1.318116071652838173 $135 $365 forward 7 unknown #
coedge $-1 $366 $136 $142 $244 reversed $232 $-1 #
coedge $-1 $136 $366 $361 $367 forward $232 $-1 #
loop $-1 $-1 $230 $368 #
vertex $-1 $229 $369 #
straight-curve $-1 110.23599999999999 184.1499999999999773 246.0368884968342229 0 0 25.39999999999999858 I I #
coedge $-1 $138 $358 $370 $371 reversed $28 $-1 #
coedge $-1 $372 $373 $138 $237 reversed $374 $-1 #
edge $-1 $375 1.846292148038033783e-15 $240 1.670963747956433432 $138 $376 forward 7 unknown #
coedge $-1 $189 $139 $373 $377 reversed $72 $-1 #
coedge $-1 $139 $204 $141 $243 forward $72 $-1 #
vertex $-1 $140 $378 #
ellipse-curve $-1 110.23599999999999 177.8000000000000682 196.8500000000000796 -1 0 0 0 13.33499999999989605 132.6815747381676545 1 I I #
coedge $-1 $142 $141 $379 $380 forward $143 $-1 #
edge $-1 $381 0 $144 0.249999999999999778 $239 $382 forward 7 unknown #
edge $-1 $383 0 $145 0.249999999999999778 $230 $384 forward 7 unknown #
face $-1 $385 $143 $2 $-1 $386 reversed single #
point $-1 110.23599999999999 191.1349999999999625 329.5315747381677625 #
point $-1 110.23599999999999 184.1499999999999773 323.2134045125407056 #
coedge $-1 $155 $147 $387 $388 forward $16 $-1 #
coedge $-1 $389 $390 $147 $250 reversed $391 $-1 #
edge $-1 $254 4.603166064284899099e-16 $392 1.065435816510738043 $147 $393 forward 7 unknown #
coedge $-1 $394 $148 $151 $257 reversed $253 $-1 #
coedge $-1 $148 $394 $389 $395 forward $253 $-1 #
loop $-1 $-1 $394 $396 #
vertex $-1 $250 $397 #
ellipse-curve $-1 110.23599999999999 165.1000000000000227 147.6631115031657941 1 0 0 0 6.34999999999997744 -2.255973186038317964e-14 1 I I #
coedge $-1 $151 $150 $398 $399 reversed $152 $-1 #
edge $-1 $400 0 $153 0.249999999999999778 $151 $401 forward 7 unknown #
face $-1 $301 $152 $2 $-1 $402 forward single #
point $-1 110.23599999999999 171.4499999999999886 147.6631115031657941 #
coedge $-1 $403 $404 $155 $261 forward $405 $-1 #
edge $-1 $265 0 $406 3.038445512429390316 $155 $407 forward 7 unknown #
coedge $-1 $408 $156 $404 $409 reversed $264 $-1 #
coedge $-1 $156 $408 $158 $268 forward $264 $-1 #
loop $-1 $-1 $408 $410 #
vertex $-1 $157 $411 #
ellipse-curve $-1 110.23599999999999 51.43659548745926458 184.1500000000000057 1 0 0 0 1.127986593019158982e-14 6.34999999999997744 1 I I #
coedge $-1 $349 $158 $412 $413 reversed $41 $-1 #
edge $-1 $414 0 $160 0.249999999999999778 $158 $415 forward 7 unknown #
coedge $-1 $159 $200 $416 $417 reversed $41 $-1 #
point $-1 110.23599999999999 45.11842526183223612 183.5149999999999864 #
coedge $-1 $416 $398 $162 $272 reversed $418 $-1 #
edge $-1 $273 1.894310722157865975e-15 $275 1.670963747956461409 $271 $419 forward 7 unknown #
vertex $-1 $417 $420 #
straight-curve $-1 116.5859999999999843 164.4649999999999466 64.16842526183222617 -25.39999999999999858 0 0 I I #
vertex $-1 $399 $421 #
straight-curve $-1 116.5859999999999843 171.4499999999999886 70.48659548745926884 -25.39999999999999858 0 0 I I #
cone-surface $-1 116.5859999999999843 165.0999999999999943 70.48659548745926884 1 0 0 0 -0.6350000000000316502 -6.318170225627033787 1 I I 0 1 6.349999999999999645 forward I I I I #
coedge $-1 $422 $423 $168 $279 forward $424 $-1 #
edge $-1 $297 1.846292148038019189e-15 $283 1.318116071652803534 $168 $425 forward 7 unknown #
coedge $-1 $426 $169 $172 $286 reversed $282 $-1 #
coedge $-1 $169 $427 $422 $428 forward $282 $-1 #
loop $-1 $-1 $429 $430 #
vertex $-1 $279 $431 #
ellipse-curve $-1 110.23599999999999 177.7999999999998408 196.850000000000108 1 0 0 0 11.11250000000013394 -43.03852743473004239 1 I I #
coedge $-1 $172 $171 $432 $433 reversed $173 $-1 #
edge $-1 $434 0 $174 0.249999999999999778 $280 $435 forward 7 unknown #
face $-1 $178 $173 $2 $-1 $436 reversed single #
point $-1 110.23599999999999 220.8385274347299116 185.7374999999999829 #
coedge $-1 $191 $432 $176 $290 reversed $198 $-1 #
edge $-1 $195 -2.237929876409764334e-15 $291 3.038445512429390316 $289 $437 forward 7 unknown #
vertex $-1 $290 $438 #
straight-curve $-1 116.5859999999999843 226.9868884968342115 190.5 -25.39999999999999858 0 0 I I #
plane-surface $-1 116.5859999999999843 310.9987237176092663 190.5 0 0 1 0 -25.39999999999999858 0 forward_v I I I I #
coedge $-1 $439 $180 $423 $440 reversed $296 $-1 #
coedge $-1 $180 $439 $182 $300 forward $296 $-1 #
loop $-1 $-1 $294 $441 #
vertex $-1 $181 $442 #
straight-curve $-1 110.23599999999999 184.1499999999999773 147.6631115031657941 0 0 -25.39999999999999858 I I #
coedge $-1 $183 $182 $443 $444 reversed $184 $-1 #
edge $-1 $445 0 $185 0.249999999999999778 $295 $446 forward 7 unknown #
face $-1 $441 $184 $2 $-1 $447 reversed single #
point $-1 110.23599999999999 184.1499999999999773 70.48659548745926884 #
coedge $-1 $205 $187 $200 $317 reversed $72 $-1 #
coedge $-1 $443 $416 $187 $305 forward $418 $-1 #
edge $-1 $448 -1.451990217432602301e-16 $306 0.1001674211615647958 $304 $449 forward 7 unknown #
vertex $-1 $444 $450 #
straight-curve $-1 116.5859999999999843 191.1349999999999625 64.16842526183222617 -25.39999999999999858 0 0 I I #
coedge $-1 $451 $191 $189 $309 forward $198 $-1 #
edge $-1 $193 3.835971720237801307e-17 $452 0.200334842323129203 $308 $453 forward 7 unknown #
ellipse-curve $-1 116.5859999999999843 304.1634045125406942 184.1499999999999773 -1 0 0 0 4.511946372076635928e-14 6.350000000000021849 1 I I #
point $-1 116.5859999999999843 310.4815747381677511 183.5149999999999864 #
point $-1 116.5859999999999843 304.1634045125407511 190.5 #
face $-1 $454 $455 $2 $-1 $456 forward single #
loop $-1 $-1 $457 $197 #
cone-surface $-1 116.5859999999999843 226.9868884968341831 209.5499999999999829 1 0 0 0 -6.148361062104273245 -1.587499999999999911 1 I I 0 1 6.349999999999998757 forward I I I I #
coedge $-1 $458 $459 $457 $460 reversed $198 $-1 #
edge $-1 $210 0 $448 0.7500000000000004441 $303 $461 forward 7 unknown #
coedge $-1 $347 $462 $201 $319 forward $463 $-1 #
edge $-1 $323 0 $350 0.249999999999999778 $201 $464 forward 7 unknown #
coedge $-1 $465 $202 $462 $466 forward $322 $-1 #
coedge $-1 $202 $379 $204 $325 forward $322 $-1 #
loop $-1 $-1 $467 $468 #
vertex $-1 $466 $469 #
ellipse-curve $-1 116.5859999999999843 177.800000000000864 196.8499999999831971 1 0 0 0 -8.798295425549439744e-13 133.3500000000167631 1 I I #
edge $-1 $381 -3.83597172023757451e-17 $207 0.1001674211615617843 $321 $470 forward 7 unknown #
point $-1 135.6359999999999957 177.7999999999999829 330.1999999999999886 #
point $-1 116.5859999999999843 177.7999999999999829 330.1999999999999886 #
ellipse-curve $-1 135.6359999999999957 177.7999999999999829 196.8499999999999943 1 0 0 0 0 -133.3499999999999943 1 I I #
point $-1 135.6359999999999957 177.7999999999999829 63.5 #
coedge $-1 $471 $472 $212 $331 forward $473 $-1 #
edge $-1 $336 0 $335 3.141592653589793116 $212 $474 forward 7 unknown #
coedge $-1 $475 $213 $472 $476 reversed $334 $-1 #
coedge $-1 $213 $475 $471 $477 forward $334 $-1 #
loop $-1 $-1 $332 $478 #
vertex $-1 $331 $479 #
vertex $-1 $331 $480 #
ellipse-curve $-1 110.23599999999999 177.7999999999999829 196.8499999999999943 -1 0 0 0 9.524999999999998579 0 1 I I #
coedge $-1 $481 $215 $482 $483 reversed $50 $-1 #
coedge $-1 $484 $485 $215 $340 forward $486 $-1 #
edge $-1 $487 2.731331738925269938e-15 $344 1.31811607165280309 $215 $488 forward 7 unknown #
coedge $-1 $489 $216 $222 $354 reversed $343 $-1 #
coedge $-1 $216 $489 $484 $490 forward $343 $-1 #
loop $-1 $-1 $341 $491 #
vertex $-1 $340 $492 #
straight-curve $-1 110.23599999999999 51.43659548745926458 203.1999999999999886 0 25.39999999999999858 0 I I #
coedge $-1 $218 $481 $493 $494 forward $50 $-1 #
coedge $-1 $495 $318 $218 $348 forward $463 $-1 #
edge $-1 $350 -2.180660017367739399e-15 $496 1.670963747956433876 $218 $497 forward 7 unknown #
coedge $-1 $219 $267 $221 $353 forward $41 $-1 #
vertex $-1 $220 $498 #
ellipse-curve $-1 110.23599999999999 177.7999999999999261 196.8500000000000796 1 0 0 0 -13.33499999999994046 132.6815747381676545 1 I I #
coedge $-1 $222 $221 $499 $500 reversed $223 $-1 #
edge $-1 $501 0 $225 0.249999999999999778 $349 $502 forward 7 unknown #
edge $-1 $503 9.938405105146605285e-31 $224 0.249999999999999778 $341 $504 forward 7 unknown #
face $-1 $505 $223 $2 $-1 $506 reversed single #
point $-1 110.23599999999999 51.43659548745926458 203.1999999999999886 #
point $-1 110.23599999999999 45.11842526183222901 210.1849999999999454 #
coedge $-1 $235 $227 $507 $508 forward $28 $-1 #
coedge $-1 $509 $510 $227 $360 reversed $282 $-1 #
edge $-1 $364 -1.438489395089034974e-16 $511 1.06543581651074093 $227 $512 forward 7 unknown #
coedge $-1 $513 $228 $231 $367 reversed $363 $-1 #
coedge $-1 $228 $513 $509 $514 forward $363 $-1 #
loop $-1 $-1 $513 $515 #
vertex $-1 $360 $516 #
ellipse-curve $-1 110.23599999999999 190.4999999999998863 246.0368884968341376 1 0 0 0 -6.349999999999886846 4.511946372076635928e-14 1 I I #
coedge $-1 $231 $230 $517 $518 reversed $232 $-1 #
edge $-1 $519 0 $233 0.249999999999999778 $231 $520 forward 7 unknown #
face $-1 $245 $232 $2 $-1 $521 forward single #
point $-1 110.23599999999999 184.1499999999999773 246.0368884968342229 #
coedge $-1 $522 $523 $235 $371 forward $455 $-1 #
edge $-1 $375 0 $524 3.038445512429390316 $235 $525 forward 7 unknown #
coedge $-1 $526 $236 $523 $527 reversed $374 $-1 #
coedge $-1 $236 $526 $238 $377 forward $374 $-1 #
loop $-1 $-1 $526 $454 #
vertex $-1 $237 $528 #
ellipse-curve $-1 110.23599999999999 304.1634045125406374 209.5500000000000398 1 0 0 0 4.511946372076635928e-14 -6.350000000000044942 1 I I #
edge $-1 $452 0 $240 0.249999999999999778 $238 $529 forward 7 unknown #
point $-1 110.23599999999999 310.4815747381677511 210.1849999999999454 #
coedge $-1 $321 $517 $242 $380 reversed $322 $-1 #
edge $-1 $381 3.348084067069610725e-15 $383 1.670963747956420553 $379 $530 forward 7 unknown #
vertex $-1 $325 $531 #
straight-curve $-1 116.5859999999999843 191.1349999999999909 329.5315747381677625 -25.39999999999999858 0 0 I I #
vertex $-1 $380 $532 #
straight-curve $-1 116.5859999999999843 184.1499999999999773 323.2134045125407624 -25.39999999999999858 0 0 I I #
face $-1 $491 $486 $2 $-1 $533 reversed single #
cone-surface $-1 116.5859999999999843 190.5 323.2134045125407056 1 0 0 0 0.6350000000000070033 6.318170225627034675 1 I I 0 1 6.349999999999998757 forward I I I I #
coedge $-1 $534 $535 $248 $388 reversed $536 $-1 #
edge $-1 $392 -2.555116788026873671e-15 $406 1.318116071652811083 $248 $537 forward 7 unknown #
coedge $-1 $538 $249 $252 $395 reversed $391 $-1 #
coedge $-1 $249 $539 $534 $540 forward $391 $-1 #
loop $-1 $-1 $541 $542 #
vertex $-1 $388 $543 #
ellipse-curve $-1 110.23599999999999 177.8000000000000398 196.8500000000000227 -1 0 0 0 -11.11250000000004512 -43.03852743472995002 1 I I #
coedge $-1 $252 $251 $544 $545 forward $253 $-1 #
edge $-1 $546 0 $254 0.249999999999999778 $389 $547 forward 7 unknown #
face $-1 $548 $253 $2 $-1 $549 reversed single #
point $-1 110.23599999999999 166.6874999999999716 153.8114725652700656 #
coedge $-1 $271 $544 $256 $399 forward $418 $-1 #
edge $-1 $400 0 $275 3.03844551242939076 $398 $550 forward 7 unknown #
vertex $-1 $399 $551 #
straight-curve $-1 116.5859999999999843 171.4499999999999886 147.6631115031657941 -25.39999999999999858 0 0 I I #
plane-surface $-1 116.5859999999999843 171.4499999999999886 152.8559094877505231 0 -1 0 0 0 -25.39999999999999858 forward_v I I I I #
coedge $-1 $552 $260 $535 $553 reversed $405 $-1 #
coedge $-1 $260 $552 $262 $409 forward $405 $-1 #
loop $-1 $-1 $403 $554 #
vertex $-1 $261 $555 #
straight-curve $-1 110.23599999999999 51.43659548745927879 190.5 0 25.39999999999999858 0 I I #
coedge $-1 $263 $262 $556 $557 forward $264 $-1 #
edge $-1 $558 0 $265 0.249999999999999778 $404 $559 forward 7 unknown #
face $-1 $554 $264 $2 $-1 $560 reversed single #
point $-1 110.23599999999999 51.43659548745927879 190.5 #
coedge $-1 $556 $499 $267 $413 forward $561 $-1 #
edge $-1 $501 8.950600680554114548e-17 $414 0.2003348423231205988 $412 $562 forward 7 unknown #
vertex $-1 $557 $563 #
straight-curve $-1 116.5859999999999843 45.11842526183223612 183.5150000000000148 -25.39999999999999858 0 0 I I #
coedge $-1 $304 $271 $269 $417 forward $418 $-1 #
edge $-1 $273 1.27865724007903178e-17 $448 0.100167421161555581 $416 $564 forward 7 unknown #
loop $-1 $-1 $271 $548 #
ellipse-curve $-1 116.5859999999999843 165.0999999999999943 70.48659548745926884 1 0 0 0 -0.6350000000000315392 -6.318170225627044445 1 I I #
point $-1 116.5859999999999843 164.464999999999975 64.16842526183222617 #
point $-1 116.5859999999999843 171.4499999999999886 70.48659548745926884 #
coedge $-1 $565 $278 $281 $428 reversed $424 $-1 #
coedge $-1 $278 $565 $294 $440 forward $424 $-1 #
loop $-1 $-1 $278 $566 #
ellipse-curve $-1 110.23599999999999 190.5000000000000568 147.6631115031657373 -1 0 0 0 -6.350000000000067146 4.511946372076635928e-14 1 I I #
coedge $-1 $510 $280 $458 $567 reversed $282 $-1 #
coedge $-1 $281 $429 $568 $569 reversed $282 $-1 #
edge $-1 $570 0 $283 0.249999999999999778 $281 $571 forward 7 unknown #
coedge $-1 $427 $572 $573 $574 forward $282 $-1 #
face $-1 $542 $282 $2 $-1 $575 forward single #
point $-1 110.23599999999999 188.9124999999999943 153.8114725652700656 #
coedge $-1 $289 $458 $285 $433 forward $198 $-1 #
edge $-1 $434 -6.608060658690283049e-16 $291 1.318116071652820631 $432 $576 forward 7 unknown #
vertex $-1 $433 $577 #
straight-curve $-1 116.5859999999999843 220.8385274347299116 185.7374999999999829 -25.39999999999999858 0 0 I I #
cone-surface $-1 116.5859999999999843 226.9868884968341831 184.1499999999999773 -1 0 0 0 -6.148361062104273245 1.587499999999999911 1 I I 0 1 6.349999999999998757 forward I I I I #
straight-curve $-1 116.5859999999999843 304.1634045125406942 190.5 0 -25.39999999999999858 0 I I #
point $-1 116.5859999999999843 226.9868884968341831 190.5 #
coedge $-1 $295 $294 $578 $579 forward $296 $-1 #
edge $-1 $580 0 $297 0.249999999999999778 $294 $581 forward 7 unknown #
face $-1 $566 $296 $2 $-1 $582 reversed single #
point $-1 110.23599999999999 184.1499999999999773 147.6631115031657941 #
coedge $-1 $578 $304 $299 $444 forward $418 $-1 #
edge $-1 $306 3.92078265748954966e-15 $445 1.670963747956454526 $443 $583 forward 7 unknown #
vertex $-1 $579 $584 #
straight-curve $-1 116.5859999999999843 184.1499999999999773 70.48659548745926884 -25.39999999999999858 0 0 I I #
cone-surface $-1 116.5859999999999843 190.5 70.48659548745926884 -1 0 0 0 0.6349999999999869083 -6.318170225627038228 1 I I 0 1 6.349999999999999645 forward I I I I #
vertex $-1 $305 $585 #
ellipse-curve $-1 116.5859999999999843 177.8000000000002956 196.8499999999929457 1 0 0 0 -2.932765141849813416e-13 -133.3499999999929457 1 I I #
point $-1 116.5859999999999843 191.1349999999999625 64.16842526183222617 #
coedge $-1 $459 $308 $526 $586 reversed $198 $-1 #
vertex $-1 $586 $587 #
ellipse-curve $-1 116.5859999999999843 177.8000000000065768 196.8499999999999659 1 0 0 0 132.6815747381611743 -13.33499999999998487 1 I I #
face $-1 $430 $374 $2 $-1 $588 reversed single #
loop $-1 $-1 $522 $313 #
plane-surface $-1 116.5859999999999843 310.9987237176092663 203.1999999999999886 0 0 1 0 -25.39999999999999858 0 forward_v I I I I #
coedge $-1 $589 $590 $316 $460 forward $314 $-1 #
coedge $-1 $432 $316 $426 $567 forward $198 $-1 #
coedge $-1 $316 $451 $591 $592 forward $198 $-1 #
edge $-1 $593 2.026471935331674614e-15 $594 1.318116071652810417 $316 $595 forward 7 unknown #
straight-curve $-1 135.6359999999999957 177.7999999999999829 63.5 -25.39999999999999858 0 0 I I #
coedge $-1 $318 $495 $320 $466 reversed $463 $-1 #
loop $-1 $-1 $347 $596 #
straight-curve $-1 116.5859999999999843 164.4650000000000034 329.5315747381677625 -25.39999999999999858 0 0 I I #
coedge $-1 $467 $320 $597 $598 reversed $322 $-1 #
edge $-1 $323 -2.180660017367739399e-15 $599 1.670963747956433876 $320 $600 forward 7 unknown #
coedge $-1 $601 $465 $602 $603 forward $322 $-1 #
face $-1 $604 $322 $2 $-1 $605 forward single #
point $-1 116.5859999999999843 164.464999999999975 329.5315747381677625 #
ellipse-curve $-1 116.5859999999999843 177.8000000000000682 196.8500000000026091 1 0 0 0 13.33499999999991736 132.6815747381651533 1 I I #
coedge $-1 $606 $330 $333 $477 reversed $473 $-1 #
coedge $-1 $330 $606 $332 $476 forward $473 $-1 #
loop $-1 $-1 $471 $607 #
ellipse-curve $-1 110.23599999999999 177.7999999999999829 196.8499999999999943 -1 0 0 0 -9.524999999999998579 0 1 I I #
coedge $-1 $333 $332 $608 $609 reversed $334 $-1 #
edge $-1 $610 0 $336 0.500000000000000111 $472 $611 forward 7 unknown #
edge $-1 $612 0 $335 0.500000000000000111 $471 $613 forward 7 unknown #
face $-1 $607 $334 $2 $-1 $614 reversed single #
point $-1 110.23599999999999 187.3249999999999886 196.8499999999999943 #
point $-1 110.23599999999999 168.2749999999999773 196.8499999999999943 #
coedge $-1 $346 $338 $615 $616 reversed $50 $-1 #
coedge $-1 $617 $618 $338 $483 forward $391 $-1 #
edge $-1 $619 -4.315468185267122426e-16 $487 1.065435816510742928 $338 $620 forward 7 unknown #
coedge $-1 $621 $339 $342 $490 reversed $486 $-1 #
coedge $-1 $339 $621 $617 $622 forward $486 $-1 #
loop $-1 $-1 $339 $385 #
vertex $-1 $483 $623 #
ellipse-curve $-1 110.23599999999999 128.6131115031657544 209.5500000000000398 -1 0 0 0 6.148361062104300778 -1.587500000000044986 1 I I #
coedge $-1 $342 $341 $624 $625 forward $343 $-1 #
edge $-1 $626 0 $344 0.249999999999999778 $342 $627 forward 7 unknown #
face $-1 $355 $343 $2 $-1 $628 reversed single #
point $-1 110.23599999999999 128.6131115031658112 203.1999999999999886 #
coedge $-1 $629 $630 $346 $494 reversed $631 $-1 #
edge $-1 $632 0 $496 3.038445512429391648 $346 $633 forward 7 unknown #
coedge $-1 $462 $347 $630 $634 reversed $463 $-1 #
vertex $-1 $348 $635 #
ellipse-curve $-1 110.23599999999999 165.0999999999999091 323.2134045125406487 -1 0 0 0 -0.6349999999999187406 6.3181702256271004 1 I I #
point $-1 110.23599999999999 164.464999999999975 329.5315747381677625 #
coedge $-1 $412 $624 $352 $500 forward $561 $-1 #
edge $-1 $503 2.237929876409766306e-15 $501 1.670963747956450307 $499 $636 forward 7 unknown #
vertex $-1 $413 $637 #
straight-curve $-1 116.5859999999999843 45.11842526183222901 210.1850000000000023 -25.39999999999999858 0 0 I I #
vertex $-1 $625 $638 #
straight-curve $-1 116.5859999999999843 51.43659548745927879 203.1999999999999886 -25.39999999999999858 -4.511946372076635928e-14 0 I I #
face $-1 $410 $561 $2 $-1 $639 forward single #
cone-surface $-1 116.5859999999999843 51.43659548745926458 209.5499999999999829 -1 0 0 0 1.127986593019158982e-14 -6.349999999999999645 1 I I 0 1 6.349999999999999645 forward I I I I #
coedge $-1 $590 $589 $358 $508 reversed $314 $-1 #
edge $-1 $511 2.026471935331674614e-15 $524 1.318116071652810417 $358 $640 forward 7 unknown #
coedge $-1 $641 $359 $362 $514 reversed $282 $-1 #
coedge $-1 $359 $426 $590 $642 forward $282 $-1 #
vertex $-1 $508 $643 #
ellipse-curve $-1 110.23599999999999 177.8000000000000398 196.8500000000000227 -1 0 0 0 11.11249999999995453 43.03852743472990028 1 I I #
coedge $-1 $362 $361 $644 $645 forward $363 $-1 #
edge $-1 $646 0 $364 0.249999999999999778 $509 $647 forward 7 unknown #
face $-1 $368 $363 $2 $-1 $648 reversed single #
point $-1 110.23599999999999 188.9124999999999943 239.8885274347299514 #
coedge $-1 $379 $644 $366 $518 forward $322 $-1 #
edge $-1 $519 -2.237929876409764334e-15 $383 3.038445512429389428 $517 $649 forward 7 unknown #
vertex $-1 $518 $650 #
straight-curve $-1 116.5859999999999843 184.1499999999999773 246.0368884968341661 -25.39999999999999858 0 0 I I #
plane-surface $-1 116.5859999999999843 184.1499999999999773 240.8440905122494655 0 1 0 0 0 25.39999999999999858 forward_v I I I I #
coedge $-1 $591 $370 $589 $651 reversed $455 $-1 #
coedge $-1 $370 $591 $372 $527 forward $455 $-1 #
vertex $-1 $371 $652 #
straight-curve $-1 110.23599999999999 304.1634045125406942 203.1999999999999886 0 -25.39999999999999858 0 I I #
coedge $-1 $373 $372 $451 $586 forward $374 $-1 #
edge $-1 $653 0 $375 0.249999999999999778 $523 $654 forward 7 unknown #
point $-1 110.23599999999999 304.1634045125406942 203.1999999999999886 #
straight-curve $-1 116.5859999999999843 310.4815747381677511 210.1850000000000023 -25.39999999999999858 0 0 I I #
ellipse-curve $-1 116.5859999999999843 190.5000000000001137 323.2134045125405919 1 0 0 0 0.634999999999896203 6.318170225627145697 1 I I #
point $-1 116.5859999999999843 191.1349999999999909 329.5315747381677625 #
point $-1 116.5859999999999843 184.1499999999999773 323.2134045125407056 #
cone-surface $-1 116.5859999999999843 128.6131115031657828 209.5499999999999829 -1 0 0 0 6.148361062104275021 -1.587499999999999911 1 I I 0 1 6.350000000000001421 forward I I I I #
coedge $-1 $655 $387 $390 $540 reversed $536 $-1 #
coedge $-1 $387 $655 $403 $553 forward $536 $-1 #
loop $-1 $-1 $655 $656 #
ellipse-curve $-1 110.23599999999999 128.6131115031657544 184.1499999999999773 1 0 0 0 6.148361062104300778 1.58750000000002256 1 I I #
coedge $-1 $573 $389 $657 $658 reversed $391 $-1 #
coedge $-1 $390 $617 $659 $660 reversed $391 $-1 #
edge $-1 $661 0 $392 0.249999999999999778 $390 $662 forward 7 unknown #
coedge $-1 $663 $664 $665 $666 forward $391 $-1 #
face $-1 $468 $391 $2 $-1 $667 forward single #
point $-1 110.23599999999999 134.7614725652700542 185.7374999999999829 #
coedge $-1 $398 $657 $394 $545 reversed $418 $-1 #
edge $-1 $400 3.552713678800500929e-15 $546 1.318116071652820631 $544 $668 forward 7 unknown #
vertex $-1 $545 $669 #
straight-curve $-1 116.5859999999999843 166.6875 153.8114725652700656 -25.39999999999999858 -1.804778548830654371e-13 0 I I #
face $-1 $165 $418 $2 $-1 $670 forward single #
cone-surface $-1 116.5859999999999843 165.0999999999999943 147.6631115031657941 1 0 0 0 6.349999999999999645 0 1 I I 0 1 6.349999999999999645 forward I I I I #
straight-curve $-1 116.5859999999999843 171.4499999999999886 147.6631115031657941 0 0 -25.39999999999999858 I I #
point $-1 116.5859999999999843 171.4499999999999886 147.6631115031657941 #
coedge $-1 $404 $403 $671 $672 reversed $405 $-1 #
edge $-1 $673 0 $406 0.249999999999999778 $403 $674 forward 7 unknown #
face $-1 $656 $405 $2 $-1 $675 forward single #
point $-1 110.23599999999999 128.6131115031657828 190.5 #
coedge $-1 $671 $412 $408 $557 reversed $561 $-1 #
edge $-1 $558 -4.615730370095096291e-16 $414 1.670963747956456968 $556 $676 forward 7 unknown #
vertex $-1 $672 $677 #
straight-curve $-1 116.5859999999999843 51.43659548745927879 190.5 -25.39999999999999858 0 0 I I #
cone-surface $-1 116.5859999999999843 51.43659548745927879 184.1499999999999773 1 0 0 0 0 6.349999999999999645 1 I I 0 1 6.349999999999999645 forward I I I I #
loop $-1 $-1 $499 $505 #
ellipse-curve $-1 116.5859999999999843 177.7999999999990735 196.8499999999999943 1 0 0 0 -132.6815747381668302 13.33499999999996355 1 I I #
point $-1 116.5859999999999843 45.11842526183223612 183.5150000000000148 #
ellipse-curve $-1 116.5859999999999843 177.800000000000324 196.8500000000057071 1 0 0 0 -13.33500000000034724 -132.6815747381734525 1 I I #
coedge $-1 $423 $422 $678 $679 reversed $424 $-1 #
face $-1 $680 $424 $2 $-1 $681 reversed single #
edge $-1 $593 3.452374548213564624e-16 $434 0.5053605102841487451 $458 $682 forward 7 unknown #
coedge $-1 $657 $678 $427 $569 forward $418 $-1 #
edge $-1 $570 0 $683 0.2526802551420788689 $568 $684 forward 7 unknown #
vertex $-1 $569 $685 #
straight-curve $-1 116.5859999999999843 188.9124999999999943 153.8114725652700656 -25.39999999999999858 0 0 I I #
coedge $-1 $429 $665 $686 $687 reversed $282 $-1 #
coedge $-1 $664 $538 $429 $574 reversed $391 $-1 #
edge $-1 $688 0 $683 0.2500000000000003331 $573 $689 forward 7 unknown #
cone-surface $-1 135.6359999999999957 177.7999999999999829 196.8499999999999943 1 0 0 0 0 -44.44999999999999574 1 I I 0 1 44.44999999999999574 forward I I I I #
ellipse-curve $-1 116.5859999999999843 226.9868884968341831 184.1500000000000057 -1 0 0 0 -6.148361062104255481 1.587499999999977263 1 I I #
point $-1 116.5859999999999843 220.8385274347299116 185.7374999999999829 #
coedge $-1 $678 $443 $439 $579 reversed $418 $-1 #
edge $-1 $580 0 $445 3.03844551242939076 $578 $690 forward 7 unknown #
vertex $-1 $679 $691 #
straight-curve $-1 116.5859999999999843 184.1499999999999773 147.6631115031657941 -25.39999999999999858 0 0 I I #
plane-surface $-1 116.5859999999999843 184.1499999999999773 152.8559094877505231 0 -1 0 0 0 -25.39999999999999858 forward_v I I I I #
ellipse-curve $-1 116.5859999999999843 190.5 70.48659548745926884 -1 0 0 0 0.6349999999999864642 -6.318170225627032899 1 I I #
point $-1 116.5859999999999843 184.1499999999999773 70.48659548745926884 #
point $-1 116.5859999999999843 177.7999999999999829 63.5 #
edge $-1 $653 1.846292148038033783e-15 $452 1.670963747956433432 $451 $692 forward 7 unknown #
point $-1 116.5859999999999843 310.4815747381677511 210.1849999999999454 #
cone-surface $-1 116.5859999999999843 304.1634045125406942 209.5499999999999829 1 0 0 0 0 -6.349999999999999645 1 I I 0 1 6.349999999999999645 forward I I I I #
coedge $-1 $507 $457 $522 $651 forward $314 $-1 #
coedge $-1 $457 $507 $510 $642 reversed $314 $-1 #
coedge $-1 $523 $522 $459 $592 reversed $455 $-1 #
edge $-1 $653 0 $594 3.038445512429390316 $459 $693 forward 7 unknown #
vertex $-1 $567 $694 #
vertex $-1 $592 $695 #
ellipse-curve $-1 116.5859999999999843 226.9868884968341831 209.5500000000000398 1 0 0 0 -6.148361062104255481 -1.587500000000044986 1 I I #
face $-1 $515 $463 $2 $-1 $696 reversed single #
coedge $-1 $630 $629 $465 $598 forward $631 $-1 #
edge $-1 $697 0 $599 3.038445512429391648 $465 $698 forward 7 unknown #
vertex $-1 $598 $699 #
ellipse-curve $-1 116.5859999999999843 165.0999999999999091 323.2134045125406487 -1 0 0 0 -0.6349999999999187406 6.3181702256271004 1 I I #
coedge $-1 $700 $467 $663 $701 forward $322 $-1 #
coedge $-1 $702 $703 $467 $603 reversed $704 $-1 #
edge $-1 $697 2.629567604781510662e-15 $705 1.318116071652834842 $467 $706 forward 7 unknown #
face $-1 $707 $704 $2 $-1 $708 reversed single #
plane-surface $-1 116.5859999999999843 0 0 1 0 0 0 0 -25.39999999999999858 forward_v I I I I #
coedge $-1 $472 $471 $709 $710 reversed $473 $-1 #
face $-1 $287 $473 $2 $-1 $711 reversed single #
coedge $-1 $709 $709 $475 $609 forward $712 $-1 #
edge $-1 $612 0 $610 3.141592653589793116 $608 $713 forward 7 unknown #
vertex $-1 $710 $714 #
straight-curve $-1 122.9359999999999928 168.2749999999999773 196.8499999999999943 -25.39999999999999858 0 0 I I #
vertex $-1 $710 $715 #
straight-curve $-1 122.9359999999999928 187.3249999999999886 196.8499999999999943 -25.39999999999999858 0 0 I I #
cone-surface $-1 122.9359999999999928 177.7999999999999829 196.8499999999999943 -1 0 0 0 -9.524999999999998579 0 1 I I 0 1 9.524999999999998579 forward I I I I #
coedge $-1 $703 $702 $481 $616 forward $704 $-1 #
edge $-1 $632 2.629567604781510662e-15 $619 1.318116071652834842 $481 $716 forward 7 unknown #
coedge $-1 $539 $482 $485 $622 reversed $391 $-1 #
coedge $-1 $482 $663 $703 $717 forward $391 $-1 #
vertex $-1 $616 $718 #
ellipse-curve $-1 110.23599999999999 177.7999999999998693 196.8500000000000796 1 0 0 0 -11.11249999999988702 43.03852743472983633 1 I I #
coedge $-1 $485 $484 $719 $720 reversed $486 $-1 #
edge $-1 $721 0 $487 0.249999999999999778 $617 $722 forward 7 unknown #
point $-1 110.23599999999999 134.7614725652700542 207.9624999999999773 #
coedge $-1 $499 $719 $489 $625 reversed $561 $-1 #
edge $-1 $503 0 $626 3.038445512429391648 $624 $723 forward 7 unknown #
vertex $-1 $625 $724 #
straight-curve $-1 116.5859999999999843 128.6131115031657828 203.1999999999999886 -25.39999999999999858 0 0 I I #
plane-surface $-1 116.5859999999999843 44.60127628239072806 203.1999999999999886 0 0 -1 0 25.39999999999999858 0 forward_v I I I I #
coedge $-1 $597 $493 $702 $725 reversed $631 $-1 #
coedge $-1 $493 $597 $495 $634 forward $631 $-1 #
loop $-1 $-1 $629 $707 #
vertex $-1 $494 $726 #
straight-curve $-1 110.23599999999999 171.4499999999999886 246.0368884968341661 0 0 25.39999999999999858 I I #
edge $-1 $599 0 $496 0.249999999999999778 $630 $727 forward 7 unknown #
point $-1 110.23599999999999 171.4499999999999886 323.2134045125407056 #
ellipse-curve $-1 116.5859999999999843 51.43659548745927879 209.5499999999999829 -1 0 0 0 0 -6.349999999999999645 1 I I #
point $-1 116.5859999999999843 45.11842526183222901 210.1849999999999454 #
point $-1 116.5859999999999843 51.43659548745926458 203.1999999999999886 #
plane-surface $-1 116.5859999999999843 0 0 1 0 0 0 0 -25.39999999999999858 forward_v I I I I #
ellipse-curve $-1 110.23599999999999 226.9868884968341831 209.5500000000000398 1 0 0 0 -6.148361062104255481 -1.587500000000044986 1 I I #
coedge $-1 $665 $509 $700 $728 reversed $282 $-1 #
edge $-1 $593 0 $511 0.249999999999999778 $510 $729 forward 7 unknown #
point $-1 110.23599999999999 220.8385274347299116 207.9624999999999773 #
coedge $-1 $517 $700 $513 $645 reversed $322 $-1 #
edge $-1 $519 2.629567604781535511e-15 $646 1.318116071652838173 $644 $730 forward 7 unknown #
vertex $-1 $645 $731 #
straight-curve $-1 116.5859999999999843 188.9124999999999943 239.8885274347299514 -25.39999999999999858 0 0 I I #
cone-surface $-1 116.5859999999999843 190.5 246.0368884968342229 1 0 0 0 -6.349999999999999645 -4.511946372076635928e-14 1 I I 0 1 6.349999999999999645 forward I I I I #
straight-curve $-1 116.5859999999999843 184.1499999999999773 246.0368884968342229 0 0 25.39999999999999858 I I #
point $-1 116.5859999999999843 184.1499999999999773 246.0368884968341661 #
edge $-1 $594 0 $524 0.249999999999999778 $522 $732 forward 7 unknown #
point $-1 110.23599999999999 226.9868884968341831 203.1999999999999886 #
vertex $-1 $592 $733 #
straight-curve $-1 116.5859999999999843 304.1634045125406942 203.1999999999999886 -25.39999999999999858 0 0 I I #
coedge $-1 $535 $534 $734 $735 forward $536 $-1 #
face $-1 $396 $536 $2 $-1 $736 reversed single #
coedge $-1 $544 $568 $538 $658 forward $418 $-1 #
edge $-1 $683 1.998151675365792515e-17 $546 0.2526802551420719856 $657 $737 forward 7 unknown #
coedge $-1 $719 $734 $539 $660 forward $561 $-1 #
edge $-1 $661 -2.589280911160173468e-16 $721 0.505360510284148301 $659 $738 forward 7 unknown #
vertex $-1 $660 $739 #
straight-curve $-1 116.5859999999999843 134.7614725652700542 185.7374999999999829 -25.39999999999999858 0 0 I I #
coedge $-1 $618 $541 $601 $701 reversed $391 $-1 #
coedge $-1 $541 $573 $740 $741 reversed $391 $-1 #
coedge $-1 $572 $641 $541 $666 reversed $282 $-1 #
edge $-1 $742 0 $743 0.2500000000000003331 $541 $744 forward 7 unknown #
cone-surface $-1 135.6359999999999957 177.7999999999999829 196.8499999999999943 1 0 0 0 0 -44.44999999999999574 1 I I 0 1 44.44999999999999574 forward I I I I #
ellipse-curve $-1 116.5859999999999843 165.0999999999999943 147.6631115031657941 1 0 0 0 6.349999999999999645 -2.255973186038317964e-14 1 I I #
point $-1 116.5859999999999843 166.6875 153.8114725652700656 #
plane-surface $-1 116.5859999999999843 0 0 1 0 0 0 0 -25.39999999999999858 forward_v I I I I #
coedge $-1 $734 $556 $552 $672 forward $561 $-1 #
edge $-1 $558 0 $673 3.038445512429390316 $671 $745 forward 7 unknown #
vertex $-1 $735 $746 #
straight-curve $-1 116.5859999999999843 128.6131115031657828 190.5 -25.39999999999999858 0 0 I I #
plane-surface $-1 116.5859999999999843 44.60127628239072806 190.5 0 0 -1 0 25.39999999999999858 0 forward_v I I I I #
ellipse-curve $-1 116.5859999999999843 51.43659548745926458 184.1500000000000057 1 0 0 0 1.127986593019158982e-14 6.34999999999997744 1 I I #
point $-1 116.5859999999999843 51.43659548745927879 190.5 #
coedge $-1 $568 $578 $565 $679 forward $418 $-1 #
edge $-1 $580 1.846292148038019189e-15 $570 1.318116071652803534 $678 $747 forward 7 unknown #
face $-1 $478 $748 $2 $-1 $749 forward single #
cone-surface $-1 116.5859999999999843 190.5 147.6631115031657941 -1 0 0 0 -6.349999999999999645 0 1 I I 0 1 6.349999999999999645 forward I I I I #
ellipse-curve $-1 116.5859999999999843 177.7999999999992156 196.8499999999999943 -1 0 0 0 43.03852743473069609 11.11249999999999893 1 I I #
vertex $-1 $658 $750 #
ellipse-curve $-1 116.5859999999999843 177.8000000000000398 196.8499999999999943 -1 0 0 0 11.11249999999995453 -43.0385274347299287 1 I I #
point $-1 116.5859999999999843 188.9124999999999943 153.8114725652700656 #
coedge $-1 $740 $740 $572 $687 forward $748 $-1 #
edge $-1 $688 -1.318780105741465486e-16 $742 3.141592653589794004 $572 $751 forward 7 unknown #
vertex $-1 $741 $752 #
straight-curve $-1 122.9359999999999928 177.7999999999999829 152.3999999999999773 -25.39999999999999858 0 0 I I #
straight-curve $-1 116.5859999999999843 184.1499999999999773 147.6631115031657941 0 0 -25.39999999999999858 I I #
point $-1 116.5859999999999843 184.1499999999999773 147.6631115031657941 #
ellipse-curve $-1 116.5859999999999843 304.1634045125406374 209.5500000000000398 1 0 0 0 4.511946372076635928e-14 -6.350000000000044942 1 I I #
straight-curve $-1 116.5859999999999843 304.1634045125406942 203.1999999999999886 0 -25.39999999999999858 0 I I #
point $-1 116.5859999999999843 220.8385274347299116 207.9624999999999773 #
point $-1 116.5859999999999843 226.9868884968341831 203.1999999999999886 #
cone-surface $-1 116.5859999999999843 165.0999999999999943 323.2134045125407056 -1 0 0 0 -0.6349999999999846878 6.318170225627038228 1 I I 0 1 6.349999999999999645 forward I I I I #
vertex $-1 $598 $753 #
straight-curve $-1 116.5859999999999843 171.4499999999999886 246.0368884968341661 0 0 25.39999999999999858 I I #
point $-1 116.5859999999999843 171.4499999999999886 323.2134045125407056 #
coedge $-1 $644 $601 $641 $728 forward $322 $-1 #
edge $-1 $705 3.164676669195803235e-16 $743 0.2526802551420756493 $601 $754 forward 7 unknown #
coedge $-1 $615 $602 $629 $725 forward $704 $-1 #
coedge $-1 $602 $615 $618 $717 reversed $704 $-1 #
loop $-1 $-1 $615 $604 #
vertex $-1 $701 $755 #
ellipse-curve $-1 116.5859999999999843 165.1000000000000796 246.0368884968341376 -1 0 0 0 6.349999999999909051 4.511946372076635928e-14 1 I I #
face $-1 $596 $631 $2 $-1 $756 reversed single #
cone-surface $-1 116.5859999999999843 165.0999999999999943 246.0368884968341661 -1 0 0 0 6.349999999999999645 0 1 I I 0 1 6.349999999999999645 forward I I I I #
coedge $-1 $608 $608 $606 $710 forward $712 $-1 #
edge $-1 $610 0 $612 3.141592653589793116 $709 $757 forward 7 unknown #
cone-surface $-1 122.9359999999999928 177.7999999999999829 196.8499999999999943 -1 0 0 0 -9.524999999999998579 0 1 I I 0 1 9.524999999999998579 forward I I I I #
loop $-1 $-1 $608 $680 #
ellipse-curve $-1 122.9359999999999928 177.7999999999999829 196.8499999999999943 -1 0 0 0 9.524999999999998579 0 1 I I #
point $-1 122.9359999999999928 168.2749999999999773 196.8499999999999943 #
point $-1 122.9359999999999928 187.3249999999999886 196.8499999999999943 #
ellipse-curve $-1 110.23599999999999 165.1000000000000796 246.0368884968341376 -1 0 0 0 6.349999999999909051 4.511946372076635928e-14 1 I I #
edge $-1 $705 0 $619 0.249999999999999778 $618 $758 forward 7 unknown #
point $-1 110.23599999999999 166.6875 239.888527434729923 #
coedge $-1 $624 $659 $621 $720 forward $561 $-1 #
edge $-1 $721 8.370210167674095838e-16 $626 1.318116071652793764 $719 $759 forward 7 unknown #
vertex $-1 $720 $760 #
straight-curve $-1 116.5859999999999843 134.7614725652700542 207.9624999999999773 -25.39999999999999858 0 0 I I #
straight-curve $-1 116.5859999999999843 51.43659548745926458 203.1999999999999886 0 25.39999999999999858 0 I I #
point $-1 116.5859999999999843 128.6131115031658112 203.1999999999999886 #
edge $-1 $697 0 $632 0.249999999999999778 $629 $761 forward 7 unknown #
point $-1 110.23599999999999 171.4499999999999886 246.0368884968341661 #
straight-curve $-1 116.5859999999999843 171.4499999999999886 323.2134045125407056 -25.39999999999999858 0 0 I I #
edge $-1 $743 -7.193346031316529129e-17 $646 0.2526802551420624376 $700 $762 forward 7 unknown #
straight-curve $-1 116.5859999999999843 220.8385274347299116 207.9624999999999773 -25.39999999999999858 0 0 I I #
ellipse-curve $-1 116.5859999999999843 190.4999999999998863 246.0368884968341376 1 0 0 0 -6.349999999999886846 4.511946372076635928e-14 1 I I #
point $-1 116.5859999999999843 188.9124999999999943 239.8885274347299514 #
straight-curve $-1 116.5859999999999843 226.9868884968341831 203.1999999999999886 -25.39999999999999858 0 0 I I #
point $-1 116.5859999999999843 304.1634045125406942 203.1999999999999886 #
coedge $-1 $659 $671 $655 $735 reversed $561 $-1 #
edge $-1 $661 -2.555116788026873671e-15 $673 1.318116071652811083 $734 $763 forward 7 unknown #
cone-surface $-1 116.5859999999999843 128.6131115031657828 184.1499999999999773 1 0 0 0 6.148361062104275021 1.587499999999999911 1 I I 0 1 6.350000000000001421 forward I I I I #
ellipse-curve $-1 116.5859999999999843 177.8000000000000966 196.8500000000011028 -1 0 0 0 -1.127986593019159045e-13 -44.4500000000011255 1 I I #
ellipse-curve $-1 116.5859999999999843 177.8000000000007503 196.8499999999999943 -1 0 0 0 -43.03852743473069609 -11.11249999999999893 1 I I #
point $-1 116.5859999999999843 134.7614725652700542 185.7374999999999829 #
coedge $-1 $686 $686 $664 $741 forward $748 $-1 #
edge $-1 $742 0 $688 3.141592653589793116 $664 $764 forward 7 unknown #
vertex $-1 $741 $765 #
vertex $-1 $728 $766 #
straight-curve $-1 122.9359999999999928 177.7999999999999829 241.2999999999999829 -25.39999999999999858 0 0 I I #
straight-curve $-1 116.5859999999999843 51.43659548745927879 190.5 0 25.39999999999999858 0 I I #
point $-1 116.5859999999999843 128.6131115031657828 190.5 #
ellipse-curve $-1 116.5859999999999843 190.5000000000000568 147.6631115031657373 -1 0 0 0 -6.350000000000067146 4.511946372076635928e-14 1 I I #
loop $-1 $712 $686 $680 #
plane-surface $-1 122.9359999999999928 0 0 1 0 0 0 0 -25.39999999999999858 forward_v I I I I #
point $-1 116.5859999999999843 177.7999999999999829 152.3999999999999773 #
ellipse-curve $-1 122.9359999999999928 177.8000000000000114 196.8499999999999943 1 0 0 0 -2.255973186038317964e-14 -44.44999999999999574 1 I I #
point $-1 122.9359999999999928 177.7999999999999829 152.3999999999999773 #
point $-1 116.5859999999999843 171.4499999999999886 246.0368884968341661 #
ellipse-curve $-1 116.5859999999999843 177.8000000000000114 196.8499999999994827 -1 0 0 0 -11.11250000000002203 43.03852743473042608 1 I I #
point $-1 116.5859999999999843 166.6875 239.888527434729923 #
plane-surface $-1 116.5859999999999843 171.4499999999999886 240.8440905122494655 0 1 0 0 0 25.39999999999999858 forward_v I I I I #
ellipse-curve $-1 122.9359999999999928 177.7999999999999829 196.8499999999999943 -1 0 0 0 -9.524999999999998579 0 1 I I #
straight-curve $-1 116.5859999999999843 166.6875 239.888527434729923 -25.39999999999999858 0 0 I I #
ellipse-curve $-1 116.5859999999999843 128.6131115031657259 209.5500000000000682 -1 0 0 0 6.148361062104346075 -1.587500000000090061 1 I I #
point $-1 116.5859999999999843 134.7614725652700542 207.9624999999999773 #
straight-curve $-1 116.5859999999999843 171.4499999999999886 246.0368884968341661 -25.39999999999999858 0 0 I I #
ellipse-curve $-1 116.5859999999999843 177.7999999999996703 196.8499999999971521 -1 0 0 0 3.158362460453645023e-13 44.45000000000283791 1 I I #
ellipse-curve $-1 116.5859999999999843 128.6131115031657544 184.1499999999999773 1 0 0 0 6.148361062104300778 1.58750000000002256 1 I I #
ellipse-curve $-1 122.9359999999999928 177.7999999999999829 196.8499999999999943 1 0 0 0 0 44.44999999999999574 1 I I #
point $-1 122.9359999999999928 177.7999999999999829 241.2999999999999829 #
point $-1 116.5859999999999843 177.7999999999999829 241.2999999999999829 #
End-of-ACIS-data 