700 0 2 0           
24 FBMach with ACIS - 7.0.3 13 ACIS 7.0.3 NT 24 Wed May 15 14:54:21 2002 
1 9.9999999999999995e-007 1e-010 
body $2 -1 $-1 $3 $-1 $4 #
bdycol-kcp $-1 -1 1 2 $5 $6 #
model_id-kcp-attrib $-1 -1 $-1 $-1 $0 1 1021488861 1021488861 -616628223 1 #
lump $-1 -1 $-1 $-1 $7 $0 #
transform $-1 -1 1 0 0 0 1 0 0 0 1 0 0 0 1 rotate no_reflect no_shear #
body $8 -1 $-1 $9 $-1 $10 #
body $11 -1 $-1 $12 $-1 $13 #
shell $-1 -1 $-1 $-1 $-1 $14 $-1 $3 #
model_id-kcp-attrib $-1 -1 $-1 $-1 $5 1 1021488861 1021488861 -616628222 1 #
lump $-1 -1 $-1 $-1 $15 $5 #
transform $-1 -1 1 0 0 0 1 0 0 0 1 0 0 1.27 1 no_rotate no_reflect no_shear #
rgb_color-st-attrib $-1 -1 $16 $-1 $6 0.5 1 1 #
lump $-1 -1 $-1 $-1 $17 $6 #
transform $-1 -1 1 0 0 0 1 0 0 0 1 0 0 0 1 no_rotate no_reflect no_shear #
face $18 -1 $-1 $19 $20 $7 $-1 $21 reversed single #
shell $-1 -1 $-1 $-1 $-1 $22 $-1 $9 #
model_id-kcp-attrib $-1 -1 $-1 $11 $6 1 1021488861 1021488861 -609419261 1 #
shell $-1 -1 $-1 $-1 $-1 $23 $-1 $12 #
model_id-kcp-attrib $-1 -1 $-1 $-1 $14 1 1021488861 1021488861 -616628223 2 #
face $24 -1 $-1 $25 $26 $7 $-1 $27 forward single #
loop $-1 -1 $-1 $-1 $28 $14 #
cone-surface $-1 -1 $-1 0 0 -1.5240000000000014 0 0 1 0 -1.5874999999999999 0 1 I I 0 1 1.5874999999999999 forward I I I I #
face $29 -1 $-1 $30 $31 $15 $-1 $32 forward single #
face $-1 -1 $-1 $33 $34 $17 $-1 $35 forward single #
model_id-kcp-attrib $-1 -1 $-1 $-1 $19 1 1021488861 1021488861 -616628223 3 #
face $36 -1 $-1 $37 $38 $7 $-1 $39 forward single #
loop $-1 -1 $-1 $40 $41 $19 #
plane-surface $-1 -1 $-1 0 0 3.8099999999999996 0 0 1 0 -25.399999999999999 0 forward_v I I I I #
coedge $-1 -1 $-1 $42 $43 $44 $45 forward $20 $-1 #
model_id-kcp-attrib $-1 -1 $-1 $-1 $22 1 1021488861 1021488861 -616628222 2 #
face $46 -1 $-1 $47 $48 $15 $-1 $49 reversed single #
loop $-1 -1 $-1 $-1 $50 $22 #
plane-surface $-1 -1 $-1 0 0 2.54 0 0 1 1 0 0 forward_v I I I I #
face $-1 -1 $-1 $51 $52 $17 $-1 $53 reversed single #
loop $-1 -1 $-1 $54 $55 $23 #
cone-surface $-1 -1 $-1 4.4061976289810898e-017 0 3.8099999999999996 0 0 -1 -4.4061976289810898e-017 1.5874999999999999 0 1 I I 0 1 1.5874999999999999 forward I I I I #
model_id-kcp-attrib $-1 -1 $-1 $-1 $25 1 1021488861 1021488861 -616628223 4 #
face $56 -1 $-1 $57 $58 $7 $-1 $59 forward single #
loop $-1 -1 $-1 $-1 $60 $25 #
torus-surface $-1 -1 $-1 0 0 2.5399999999999996 0 0 1 4.4449999999999994 1.2699999999999998 0 -1 0 forward_v I I I I #
loop $-1 -1 $-1 $-1 $44 $19 #
coedge $-1 -1 $-1 $61 $61 $62 $63 reversed $26 $-1 #
coedge $-1 -1 $-1 $64 $28 $65 $66 reversed $20 $-1 #
coedge $-1 -1 $-1 $28 $64 $67 $68 forward $20 $-1 #
coedge $-1 -1 $-1 $69 $69 $28 $45 reversed $40 $-1 #
edge $70 -1 $-1 $71 1.224606353822377e-016 $72 3.1415926535897931 $28 $73 forward @7 unknown #
model_id-kcp-attrib $-1 -1 $-1 $-1 $30 1 1021488861 1021488861 -616628222 3 #
face $-1 -1 $-1 $74 $75 $15 $-1 $76 reversed single #
loop $-1 -1 $-1 $-1 $77 $30 #
plane-surface $-1 -1 $-1 0 0 -2.54 0 0 1 1 0 0 forward_v I I I I #
coedge $-1 -1 $-1 $78 $79 $80 $81 forward $31 $-1 #
face $-1 -1 $-1 $-1 $82 $17 $-1 $83 forward single #
loop $-1 -1 $-1 $-1 $84 $33 #
plane-surface $-1 -1 $-1 0 6.0557619525008546e-017 -1.2700000000000005 3.521482123870844e-032 4.6953094984944592e-032 1 1 0 -3.521482123870844e-032 forward_v I I I I #
loop $-1 -1 $-1 $-1 $85 $23 #
coedge $-1 -1 $-1 $55 $55 $84 $86 forward $34 $-1 #
model_id-kcp-attrib $-1 -1 $-1 $-1 $37 1 1021488861 1021488861 -616628223 5 #
face $87 -1 $-1 $88 $89 $7 $-1 $90 reversed single #
loop $-1 -1 $-1 $-1 $91 $37 #
torus-surface $-1 -1 $-1 0 0 2.5399999999999996 0 0 1 4.4449999999999994 1.2699999999999998 0 -1 0 forward_v I I I I #
coedge $-1 -1 $-1 $62 $92 $93 $94 forward $38 $-1 #
coedge $-1 -1 $-1 $41 $41 $95 $96 forward $26 $-1 #
coedge $-1 -1 $-1 $97 $60 $41 $63 forward $38 $-1 #
edge $98 -1 $-1 $99 0 $100 3.1415926535897931 $41 $101 forward @7 unknown #
coedge $-1 -1 $-1 $43 $42 $102 $103 reversed $20 $-1 #
coedge $-1 -1 $-1 $104 $105 $42 $66 forward $106 $-1 #
edge $-1 -1 $-1 $107 0 $72 0.20000000000000001 $42 $108 forward @7 unknown #
coedge $-1 -1 $-1 $105 $104 $43 $68 reversed $106 $-1 #
edge $-1 -1 $-1 $109 0 $71 0.20000000000000001 $43 $110 forward @7 unknown #
coedge $-1 -1 $-1 $44 $44 $104 $111 forward $40 $-1 #
attrib_edge_convexity-kcp-attrib $-1 -1 $112 $-1 $45 1 #
vertex $-1 -1 $-1 $68 $113 #
vertex $-1 -1 $-1 $66 $114 #
ellipse-curve $-1 -1 $-1 4.4061976289810898e-017 0 3.8099999999999996 0 0 1 -4.4061976289810898e-017 1.5874999999999999 0 1 I I #
face $-1 -1 $-1 $115 $116 $15 $-1 $117 reversed single #
loop $-1 -1 $-1 $-1 $118 $47 #
plane-surface $-1 -1 $-1 0 -5.714999999999999 0 0 1 0 0 0 1 forward_v I I I I #
coedge $-1 -1 $-1 $119 $120 $121 $122 forward $48 $-1 #
coedge $-1 -1 $-1 $123 $50 $124 $125 forward $31 $-1 #
coedge $-1 -1 $-1 $50 $123 $126 $127 forward $31 $-1 #
coedge $-1 -1 $-1 $128 $129 $50 $81 reversed $130 $-1 #
edge $-1 -1 $-1 $131 -5.714999999999999 $132 5.714999999999999 $80 $133 forward @7 unknown #
loop $-1 -1 $-1 $-1 $134 $51 #
plane-surface $-1 -1 $-1 0 6.0557619525008546e-017 3.8099999999999996 3.521482123870844e-032 4.6953094984944592e-032 1 1 0 -3.521482123870844e-032 forward_v I I I I #
coedge $-1 -1 $-1 $84 $84 $55 $86 reversed $52 $-1 #
coedge $-1 -1 $-1 $85 $85 $134 $135 reversed $54 $-1 #
edge $-1 -1 $-1 $136 1.2246063538223773e-016 $136 6.2831853071795862 $55 $137 forward @7 unknown #
model_id-kcp-attrib $-1 -1 $-1 $-1 $57 1 1021488861 1021488861 -616628223 6 #
face $138 -1 $-1 $139 $140 $7 $-1 $141 forward single #
loop $-1 -1 $-1 $142 $143 $57 #
plane-surface $-1 -1 $-1 0 0 2.5399999999999996 0 0 1 0 -25.399999999999999 0 forward_v I I I I #
coedge $-1 -1 $-1 $95 $144 $97 $145 forward $58 $-1 #
coedge $-1 -1 $-1 $60 $97 $146 $147 reversed $38 $-1 #
coedge $-1 -1 $-1 $144 $95 $60 $94 reversed $58 $-1 #
edge $-1 -1 $-1 $148 -7.2120787032736579e-017 $99 1.570796326794897 $93 $149 forward @7 unknown #
coedge $-1 -1 $-1 $93 $91 $61 $96 reversed $58 $-1 #
edge $150 -1 $-1 $99 0 $100 3.1415926535897931 $61 $151 forward @7 unknown #
coedge $-1 -1 $-1 $92 $62 $91 $145 reversed $38 $-1 #
attrib_edge_convexity-kcp-attrib $-1 -1 $152 $-1 $63 3 #
vertex $-1 -1 $-1 $96 $153 #
vertex $-1 -1 $-1 $96 $154 #
ellipse-curve $-1 -1 $-1 0 0 3.8099999999999996 0 0 -1 -5.4433752427404665e-016 4.4449999999999994 0 1 I I #
coedge $-1 -1 $-1 $155 $155 $64 $103 forward $156 $-1 #
edge $-1 -1 $-1 $109 0 $107 3.1415926535897931 $64 $157 forward @7 unknown #
coedge $-1 -1 $-1 $67 $65 $69 $111 reversed $106 $-1 #
coedge $-1 -1 $-1 $65 $67 $155 $158 forward $106 $-1 #
loop $-1 -1 $-1 $-1 $105 $159 #
vertex $-1 -1 $-1 $103 $160 #
straight-curve $-1 -1 $-1 3.8881251733860477e-016 -1.5874999999999999 -1.27 0 0 25.399999999999999 I I #
vertex $-1 -1 $-1 $68 $161 #
straight-curve $-1 -1 $-1 -1.9440625866930238e-016 1.5874999999999999 -1.27 0 0 25.399999999999999 I I #
edge $162 -1 $-1 $71 -1.2246063538223773e-016 $72 3.1415926535897931 $69 $163 forward @7 unknown #
convexity-sys-attrib $-1 -1 $-1 $70 $45 #
point $-1 -1 $-1 -1.9440625866930238e-016 1.5874999999999999 3.8100000000000005 #
point $-1 -1 $-1 0 -1.5874999999999999 3.8099999999999996 #
face $-1 -1 $-1 $164 $165 $15 $-1 $166 reversed single #
loop $-1 -1 $-1 $-1 $167 $74 #
plane-surface $-1 -1 $-1 -5.714999999999999 0 0 1 0 0 0 0 -1 forward_v I I I I #
coedge $-1 -1 $-1 $168 $126 $169 $170 forward $75 $-1 #
coedge $-1 -1 $-1 $171 $77 $168 $172 forward $48 $-1 #
coedge $-1 -1 $-1 $77 $171 $173 $174 forward $48 $-1 #
coedge $-1 -1 $-1 $129 $128 $77 $122 reversed $130 $-1 #
edge $-1 -1 $-1 $175 -5.714999999999999 $176 5.714999999999999 $121 $177 forward @7 unknown #
coedge $-1 -1 $-1 $79 $78 $178 $179 forward $31 $-1 #
coedge $-1 -1 $-1 $180 $181 $78 $125 reversed $165 $-1 #
edge $-1 -1 $-1 $132 -5.714999999999999 $182 5.714999999999999 $124 $183 forward @7 unknown #
coedge $-1 -1 $-1 $118 $184 $79 $127 reversed $75 $-1 #
edge $-1 -1 $-1 $185 -5.714999999999999 $131 5.714999999999999 $126 $186 forward @7 unknown #
coedge $-1 -1 $-1 $121 $80 $184 $187 forward $130 $-1 #
coedge $-1 -1 $-1 $80 $121 $180 $188 reversed $130 $-1 #
loop $-1 -1 $-1 $-1 $128 $164 #
vertex $-1 -1 $-1 $81 $189 #
vertex $-1 -1 $-1 $81 $190 #
straight-curve $-1 -1 $-1 5.714999999999999 0 2.54 0 1 0 I I #
coedge $-1 -1 $-1 $134 $134 $85 $135 forward $82 $-1 #
edge $-1 -1 $-1 $191 -3.1415926535897931 $191 3.1415926535897931 $85 $192 forward @7 unknown #
vertex $-1 -1 $-1 $86 $193 #
ellipse-curve $-1 -1 $-1 -4.4061976289810898e-017 0 -1.2700000000000005 0 0 1 4.4061976289810898e-017 1.5874999999999999 0 1 I I #
model_id-kcp-attrib $-1 -1 $-1 $-1 $88 1 1021488861 1021488861 -616628223 7 #
face $194 -1 $-1 $195 $196 $7 $-1 $197 forward single #
loop $-1 -1 $-1 $-1 $198 $88 #
cone-surface $-1 -1 $-1 0 0 -1.5240000000000014 0 0 1 0 -3.1749999999999998 0 1 I I 0 1 3.1749999999999998 forward I I I I #
loop $-1 -1 $-1 $-1 $199 $57 #
coedge $-1 -1 $-1 $200 $200 $198 $201 reversed $89 $-1 #
coedge $-1 -1 $-1 $91 $93 $199 $202 forward $58 $-1 #
edge $-1 -1 $-1 $203 -7.2120787032736579e-017 $100 1.570796326794897 $91 $204 forward @7 unknown #
coedge $-1 -1 $-1 $199 $199 $92 $147 forward $142 $-1 #
edge $-1 -1 $-1 $148 0 $203 3.1415926535897931 $146 $205 forward @7 unknown #
vertex $-1 -1 $-1 $147 $206 #
ellipse-curve $-1 -1 $-1 -5.4433752427404675e-016 4.4449999999999994 2.54 1 1.224606353822377e-016 -3.4872046439400958e-032 -1.555250069354418e-016 1.2699999999999996 -3.5249581031848718e-016 1 I I #
attrib_edge_convexity-kcp-attrib $-1 -1 $207 $-1 $96 3 #
ellipse-curve $-1 -1 $-1 0 -1.7624790515924359e-016 3.8099999999999996 0 0 1 -5.4433752427404665e-016 4.4449999999999994 0 1 I I #
convexity-sys-attrib $-1 -1 $-1 $98 $63 #
point $-1 -1 $-1 -5.4433752427404665e-016 4.4449999999999994 3.8099999999999996 #
point $-1 -1 $-1 0 -4.4449999999999994 3.8099999999999996 #
coedge $-1 -1 $-1 $102 $102 $105 $158 reversed $156 $-1 #
loop $-1 -1 $-1 $208 $155 $209 #
ellipse-curve $-1 -1 $-1 4.4061976289810898e-017 -4.4061976289810898e-017 -1.2699999999999998 -1.667734961217822e-032 1.1102230246251565e-016 1 -2.3846823495911327e-016 1.5874999999999999 -1.7624790515924359e-016 1 I I #
edge $-1 -1 $-1 $109 0 $107 3.1415926535897931 $155 $210 forward @7 unknown #
face $211 -1 $-1 $-1 $106 $7 $-1 $212 reversed single #
point $-1 -1 $-1 0 -1.5874999999999999 -1.27 #
point $-1 -1 $-1 -1.9440625866930238e-016 1.5874999999999999 -1.27 #
attrib_edge_convexity-kcp-attrib $-1 -1 $213 $-1 $111 1 #
ellipse-curve $-1 -1 $-1 -4.4061976289810898e-017 0 3.8099999999999996 0 0 -1 4.4061976289810898e-017 1.5874999999999999 0 1 I I #
face $-1 -1 $-1 $-1 $130 $15 $-1 $214 reversed single #
loop $-1 -1 $-1 $-1 $180 $115 #
plane-surface $-1 -1 $-1 0 5.714999999999999 0 0 -1 0 0 0 -1 forward_v I I I I #
coedge $-1 -1 $-1 $215 $178 $181 $216 forward $116 $-1 #
coedge $-1 -1 $-1 $184 $118 $119 $172 reversed $75 $-1 #
coedge $-1 -1 $-1 $178 $215 $118 $170 reversed $116 $-1 #
edge $-1 -1 $-1 $185 -2.54 $217 2.54 $169 $218 forward @7 unknown #
coedge $-1 -1 $-1 $120 $119 $215 $219 forward $48 $-1 #
edge $-1 -1 $-1 $176 -5.714999999999999 $217 5.714999999999999 $168 $220 forward @7 unknown #
coedge $-1 -1 $-1 $181 $180 $120 $174 reversed $165 $-1 #
edge $-1 -1 $-1 $221 -5.714999999999999 $175 5.714999999999999 $173 $222 forward @7 unknown #
vertex $-1 -1 $-1 $122 $223 #
vertex $-1 -1 $-1 $187 $224 #
straight-curve $-1 -1 $-1 5.714999999999999 0 -2.54 0 -1 0 I I #
coedge $-1 -1 $-1 $167 $169 $123 $179 reversed $116 $-1 #
edge $-1 -1 $-1 $182 -5.714999999999999 $185 5.714999999999999 $178 $225 forward @7 unknown #
coedge $-1 -1 $-1 $173 $124 $129 $188 forward $165 $-1 #
coedge $-1 -1 $-1 $124 $173 $167 $216 reversed $165 $-1 #
vertex $-1 -1 $-1 $125 $226 #
straight-curve $-1 -1 $-1 0 5.714999999999999 2.54 -1 0 0 I I #
coedge $-1 -1 $-1 $126 $168 $128 $187 reversed $75 $-1 #
vertex $-1 -1 $-1 $179 $227 #
straight-curve $-1 -1 $-1 0 -5.714999999999999 2.54 1 0 0 I I #
edge $-1 -1 $-1 $131 -2.54 $176 2.54 $128 $228 forward @7 unknown #
edge $-1 -1 $-1 $132 -2.54 $175 2.54 $129 $229 forward @7 unknown #
point $-1 -1 $-1 5.714999999999999 -5.714999999999999 2.54 #
point $-1 -1 $-1 5.714999999999999 5.714999999999999 2.54 #
vertex $-1 -1 $-1 $135 $230 #
ellipse-curve $-1 -1 $-1 4.4061976289810898e-017 0 3.8099999999999996 0 0 1 -4.4061976289810898e-017 1.5874999999999999 0 1 I I #
point $-1 -1 $-1 -1.9440625866930238e-016 1.5874999999999999 -1.2699999999999996 #
model_id-kcp-attrib $-1 -1 $-1 $-1 $139 1 1021488861 1021488861 -616628223 8 #
face $231 -1 $-1 $232 $233 $7 $-1 $234 forward single #
loop $-1 -1 $-1 $-1 $235 $139 #
cone-surface $-1 -1 $-1 0 0 -1.5240000000000014 0 0 1 0 -3.1749999999999998 0 1 I I 0 1 3.1749999999999998 forward I I I I #
coedge $-1 -1 $-1 $236 $237 $143 $201 forward $140 $-1 #
coedge $-1 -1 $-1 $146 $146 $144 $202 reversed $142 $-1 #
coedge $-1 -1 $-1 $143 $143 $238 $239 forward $89 $-1 #
edge $-1 -1 $-1 $240 -9.7818947885301236e-033 $241 3.1415926535897931 $143 $242 forward @7 unknown #
edge $-1 -1 $-1 $148 1.2076413319172996e-032 $203 3.1415926535897931 $199 $243 forward @7 unknown #
vertex $-1 -1 $-1 $147 $244 #
ellipse-curve $-1 -1 $-1 1.0886750485480935e-015 -4.4449999999999994 2.54 -1 -2.449212707644754e-016 -6.9744092878801917e-032 3.1105001387088361e-016 -1.2699999999999996 -3.5249581031848718e-016 1 I I #
ellipse-curve $-1 -1 $-1 1.7624790515924359e-016 0 2.5399999999999996 0 0 -1 -8.7611043636873212e-016 5.714999999999999 0 1 I I #
point $-1 -1 $-1 -6.9986253120948858e-016 5.714999999999999 2.5399999999999996 #
convexity-sys-attrib $-1 -1 $-1 $150 $96 #
loop $-1 -1 $-1 $-1 $245 $209 #
face $246 -1 $-1 $159 $156 $7 $-1 $247 reversed single #
ellipse-curve $-1 -1 $-1 -8.8123952579621795e-017 -4.4061976289810898e-017 -1.2699999999999998 7.4328858791194884e-033 -1.1102230246251565e-016 -1 -1.0628230608968059e-016 1.5874999999999999 -1.7624790515924359e-016 1 I I #
model_id-kcp-attrib $-1 -1 $-1 $-1 $159 1 1021488861 1021488861 -616628223 13 #
cone-surface $-1 -1 $-1 0 0 -1.5240000000000014 0 0 1 0 -1.5874999999999999 0 1 I I 0 1 1.5874999999999999 forward I I I I #
convexity-sys-attrib $-1 -1 $-1 $162 $111 #
plane-surface $-1 -1 $-1 5.714999999999999 0 0 -1 0 0 0 0 1 forward_v I I I I #
coedge $-1 -1 $-1 $169 $167 $171 $219 reversed $116 $-1 #
edge $-1 -1 $-1 $182 -2.54 $221 2.54 $181 $248 forward @7 unknown #
vertex $-1 -1 $-1 $219 $249 #
straight-curve $-1 -1 $-1 -5.714999999999999 -5.714999999999999 0 0 0 -1 I I #
edge $-1 -1 $-1 $217 -5.714999999999999 $221 5.714999999999999 $215 $250 forward @7 unknown #
straight-curve $-1 -1 $-1 0 -5.714999999999999 -2.54 -1 0 0 I I #
vertex $-1 -1 $-1 $174 $251 #
straight-curve $-1 -1 $-1 0 5.714999999999999 -2.54 1 0 0 I I #
point $-1 -1 $-1 5.714999999999999 5.714999999999999 -2.54 #
point $-1 -1 $-1 5.714999999999999 -5.714999999999999 -2.54 #
straight-curve $-1 -1 $-1 -5.714999999999999 0 2.54 0 -1 0 I I #
point $-1 -1 $-1 -5.714999999999999 5.714999999999999 2.54 #
point $-1 -1 $-1 -5.714999999999999 -5.714999999999999 2.54 #
straight-curve $-1 -1 $-1 5.714999999999999 -5.714999999999999 0 0 0 -1 I I #
straight-curve $-1 -1 $-1 5.714999999999999 5.714999999999999 0 0 0 -1 I I #
point $-1 -1 $-1 0 -1.5874999999999999 3.8099999999999996 #
model_id-kcp-attrib $-1 -1 $-1 $-1 $195 1 1021488861 1021488861 -616628223 9 #
face $252 -1 $-1 $253 $254 $7 $-1 $255 forward single #
loop $-1 -1 $-1 $256 $257 $195 #
plane-surface $-1 -1 $-1 0 0 0 0 0 1 0 -25.399999999999999 0 forward_v I I I I #
coedge $-1 -1 $-1 $258 $259 $260 $261 forward $196 $-1 #
coedge $-1 -1 $-1 $262 $198 $258 $263 forward $140 $-1 #
coedge $-1 -1 $-1 $198 $262 $259 $264 reversed $140 $-1 #
coedge $-1 -1 $-1 $259 $258 $200 $239 reversed $196 $-1 #
edge $-1 -1 $-1 $240 0 $241 3.1415926535897931 $200 $265 forward @7 unknown #
vertex $-1 -1 $-1 $239 $266 #
vertex $-1 -1 $-1 $239 $267 #
ellipse-curve $-1 -1 $-1 -5.2874371547773072e-016 -1.7624790515924359e-016 2.5399999999999996 4.8930657649588211e-033 1.1102230246251565e-016 -1 1.39931198139126e-016 3.1749999999999998 3.5249581031848718e-016 1 I I #
ellipse-curve $-1 -1 $-1 -1.7624790515924359e-016 0 2.5399999999999996 0 0 1 -5.2361462605024494e-016 5.714999999999999 0 1 I I #
point $-1 -1 $-1 1.3997250624189772e-015 -5.714999999999999 2.5399999999999996 #
coedge $-1 -1 $-1 $268 $268 $269 $270 reversed $208 $-1 #
model_id-kcp-attrib $-1 -1 $-1 $-1 $209 1 1021488861 1021488861 -616628223 12 #
plane-surface $-1 -1 $-1 0 0 -1.2699999999999998 0 0 1 0 -25.399999999999999 0 forward_v I I I I #
straight-curve $-1 -1 $-1 -5.714999999999999 5.714999999999999 0 0 0 -1 I I #
point $-1 -1 $-1 -5.714999999999999 -5.714999999999999 -2.54 #
straight-curve $-1 -1 $-1 -5.714999999999999 0 -2.54 0 1 0 I I #
point $-1 -1 $-1 -5.714999999999999 5.714999999999999 -2.54 #
model_id-kcp-attrib $-1 -1 $-1 $-1 $232 1 1021488861 1021488861 -616628223 10 #
face $271 -1 $-1 $209 $272 $7 $-1 $273 forward single #
loop $-1 -1 $-1 $-1 $274 $232 #
torus-surface $-1 -1 $-1 0 0 0 0 0 1 4.4449999999999994 1.2699999999999998 0 -1 0 forward_v I I I I #
loop $-1 -1 $-1 $-1 $260 $195 #
coedge $-1 -1 $-1 $275 $275 $276 $277 reversed $233 $-1 #
coedge $-1 -1 $-1 $238 $235 $236 $263 reversed $196 $-1 #
coedge $-1 -1 $-1 $235 $238 $237 $264 forward $196 $-1 #
coedge $-1 -1 $-1 $278 $278 $235 $261 reversed $256 $-1 #
edge $-1 -1 $-1 $279 1.2246063538223773e-016 $280 3.1415926535897931 $235 $281 forward @7 unknown #
coedge $-1 -1 $-1 $237 $236 $278 $282 reversed $140 $-1 #
edge $-1 -1 $-1 $241 0 $280 0.10000000000000001 $258 $283 forward @7 unknown #
edge $-1 -1 $-1 $240 0 $279 0.10000000000000001 $259 $284 forward @7 unknown #
ellipse-curve $-1 -1 $-1 8.8123952579621795e-017 -8.8123952579621795e-017 2.5399999999999996 1.667734961217822e-032 -1.1102230246251565e-016 1 -4.7693646991822654e-016 3.1749999999999998 3.5249581031848718e-016 1 I I #
point $-1 -1 $-1 -3.8881251733860477e-016 3.1749999999999998 2.54 #
point $-1 -1 $-1 0 -3.1749999999999998 2.54 #
coedge $-1 -1 $-1 $245 $245 $285 $286 forward $208 $-1 #
coedge $-1 -1 $-1 $287 $288 $245 $270 forward $272 $-1 #
edge $-1 -1 $-1 $289 0 $290 3.1415926535897931 $245 $291 forward @7 unknown #
model_id-kcp-attrib $-1 -1 $-1 $-1 $253 1 1021488861 1021488861 -616628223 11 #
loop $-1 -1 $-1 $-1 $287 $253 #
torus-surface $-1 -1 $-1 0 0 0 0 0 1 4.4449999999999994 1.2699999999999998 0 -1 0 forward_v I I I I #
coedge $-1 -1 $-1 $276 $285 $288 $292 forward $254 $-1 #
coedge $-1 -1 $-1 $257 $257 $293 $294 forward $233 $-1 #
coedge $-1 -1 $-1 $295 $274 $257 $277 forward $254 $-1 #
edge $-1 -1 $-1 $296 0 $297 3.1415926535897931 $257 $298 forward @7 unknown #
coedge $-1 -1 $-1 $260 $260 $262 $282 forward $256 $-1 #
vertex $-1 -1 $-1 $264 $299 #
vertex $-1 -1 $-1 $263 $300 #
ellipse-curve $-1 -1 $-1 0 -8.8123952579621795e-017 0 0 0 1 0 3.1749999999999998 0 1 I I #
edge $-1 -1 $-1 $279 -1.2246063538223773e-016 $280 3.1415926535897931 $278 $301 forward @7 unknown #
straight-curve $-1 -1 $-1 7.7762503467720954e-016 -3.1749999999999998 2.54 0 0 -25.399999999999999 I I #
straight-curve $-1 -1 $-1 -3.8881251733860477e-016 3.1749999999999998 2.54 0 0 -25.399999999999999 I I #
coedge $-1 -1 $-1 $274 $295 $268 $286 reversed $254 $-1 #
edge $-1 -1 $-1 $289 0 $290 3.1415926535897931 $268 $302 forward @7 unknown #
coedge $-1 -1 $-1 $293 $269 $295 $303 forward $272 $-1 #
coedge $-1 -1 $-1 $269 $293 $274 $292 reversed $272 $-1 #
vertex $-1 -1 $-1 $286 $304 #
vertex $-1 -1 $-1 $286 $305 #
ellipse-curve $-1 -1 $-1 0 -1.7624790515924359e-016 -1.2699999999999998 0 0 1 -5.4433752427404665e-016 4.4449999999999994 0 1 I I #
edge $-1 -1 $-1 $289 1.4424157406547323e-016 $296 1.5707963267948957 $274 $306 forward @7 unknown #
coedge $-1 -1 $-1 $288 $287 $275 $294 reversed $272 $-1 #
edge $-1 -1 $-1 $296 1.2076413319172996e-032 $297 3.1415926535897931 $275 $307 forward @7 unknown #
coedge $-1 -1 $-1 $285 $276 $287 $303 reversed $254 $-1 #
vertex $-1 -1 $-1 $294 $308 #
vertex $-1 -1 $-1 $294 $309 #
ellipse-curve $-1 -1 $-1 1.7624790515924359e-016 0 0 0 0 -1 -8.7611043636873212e-016 5.714999999999999 0 1 I I #
point $-1 -1 $-1 -3.8881251733860477e-016 3.1749999999999998 0 #
point $-1 -1 $-1 0 -3.1749999999999998 0 #
ellipse-curve $-1 -1 $-1 0 -8.8123952579621795e-017 0 0 0 -1 0 3.1749999999999998 0 1 I I #
ellipse-curve $-1 -1 $-1 0 0 -1.2699999999999998 0 0 -1 -5.4433752427404665e-016 4.4449999999999994 0 1 I I #
edge $-1 -1 $-1 $290 1.4424157406547323e-016 $297 1.5707963267948957 $295 $310 forward @7 unknown #
point $-1 -1 $-1 -5.4433752427404665e-016 4.4449999999999994 -1.2699999999999998 #
point $-1 -1 $-1 1.0886750485480933e-015 -4.4449999999999994 -1.2699999999999998 #
ellipse-curve $-1 -1 $-1 -5.4433752427404655e-016 4.4449999999999985 4.8468173918791986e-016 1 1.224606353822377e-016 6.3495502854016532e-033 -7.8269792939897261e-032 7.0499162063697436e-016 -1.2700000000000005 1 I I #
ellipse-curve $-1 -1 $-1 -1.7624790515924359e-016 0 0 0 0 1 -5.2361462605024494e-016 5.714999999999999 0 1 I I #
point $-1 -1 $-1 -6.9986253120948858e-016 5.714999999999999 0 #
point $-1 -1 $-1 0 -5.714999999999999 0 #
ellipse-curve $-1 -1 $-1 0 -4.4449999999999985 4.8468173918791986e-016 -1 0 0 0 -7.0499162063697436e-016 -1.2700000000000005 1 I I #
End-of-ACIS-data 