600 0 1 0           
91 GICL Pro/E ACIS Translator - Source: f:/data5/repository/PTC/V18/piping18/grommet.prt - 6 0 13 ACIS 6.0.3 NT 24 Thu Apr 04 09:57:59 2002 
1 9.9999999999999995e-007 1e-010 
body $-1 $1 $-1 $2 #
lump $-1 $-1 $3 $0 #
transform $-1 1 0 0 0 1 0 0 0 1 0 0 0 25.399999999999999 no_rotate no_reflect no_shear #
shell $-1 $-1 $-1 $4 $-1 $1 #
face $-1 $5 $6 $3 $-1 $7 reversed single #
face $-1 $8 $9 $3 $-1 $10 forward single #
loop $-1 $-1 $11 $4 #
cone-surface $-1 0 0 -0.060000000000000053 0 0 1 0 -0.0625 0 1 I I 0 1 0.0625 forward I I I I #
face $-1 $12 $13 $3 $-1 $14 forward single #
loop $-1 $15 $16 $5 #
plane-surface $-1 0 0 0.14999999999999999 0 0 1 0 -1 0 forward_v I I I I #
coedge $-1 $17 $18 $19 $20 forward $6 $-1 #
face $-1 $21 $22 $3 $-1 $23 forward single #
loop $-1 $-1 $24 $8 #
torus-surface $-1 0 0 0.099999999999999992 0 0 1 0.17499999999999999 0.049999999999999996 0 -1 0 forward_v I I I I #
loop $-1 $-1 $19 $5 #
coedge $-1 $25 $25 $26 $27 reversed $9 $-1 #
coedge $-1 $28 $11 $29 $30 reversed $6 $-1 #
coedge $-1 $11 $28 $31 $32 forward $6 $-1 #
coedge $-1 $33 $33 $11 $20 reversed $15 $-1 #
edge $-1 $34 1.2246063538223773e-016 $35 3.1415926535897931 $11 $36 forward 7 unknown #
face $-1 $37 $38 $3 $-1 $39 reversed single #
loop $-1 $-1 $40 $12 #
torus-surface $-1 0 0 0.099999999999999992 0 0 1 0.17499999999999999 0.049999999999999996 0 -1 0 forward_v I I I I #
coedge $-1 $26 $41 $42 $43 forward $13 $-1 #
coedge $-1 $16 $16 $44 $45 forward $9 $-1 #
coedge $-1 $46 $24 $16 $27 forward $13 $-1 #
edge $-1 $47 0 $48 3.1415926535897931 $16 $49 forward 7 unknown #
coedge $-1 $18 $17 $50 $51 reversed $6 $-1 #
coedge $-1 $52 $53 $17 $30 forward $54 $-1 #
edge $-1 $55 0 $35 0.20000000000000001 $17 $56 forward 7 unknown #
coedge $-1 $53 $52 $18 $32 reversed $54 $-1 #
edge $-1 $57 0 $34 0.20000000000000001 $18 $58 forward 7 unknown #
coedge $-1 $19 $19 $52 $59 forward $15 $-1 #
vertex $-1 $32 $60 #
vertex $-1 $30 $61 #
ellipse-curve $-1 1.7347234759768071e-018 0 0.14999999999999999 0 0 1 -1.7347234759768071e-018 0.0625 0 1 I I #
face $-1 $62 $63 $3 $-1 $64 forward single #
loop $-1 $65 $66 $21 #
plane-surface $-1 0 0 0.099999999999999992 0 0 1 0 -1 0 forward_v I I I I #
coedge $-1 $44 $67 $46 $68 forward $22 $-1 #
coedge $-1 $24 $46 $69 $70 reversed $13 $-1 #
coedge $-1 $67 $44 $24 $43 reversed $22 $-1 #
edge $-1 $71 -1.0805830781564446e-049 $47 1.570796326794897 $42 $72 forward 7 unknown #
coedge $-1 $42 $40 $25 $45 reversed $22 $-1 #
edge $-1 $47 0 $48 3.1415926535897931 $25 $73 forward 7 unknown #
coedge $-1 $41 $26 $40 $68 reversed $13 $-1 #
vertex $-1 $45 $74 #
vertex $-1 $45 $75 #
ellipse-curve $-1 0 0 0.14999999999999999 0 0 -1 -2.1430611191891601e-017 0.17499999999999999 0 1 I I #
coedge $-1 $76 $76 $28 $51 forward $77 $-1 #
edge $-1 $57 0 $55 3.1415926535897931 $28 $78 forward 7 unknown #
coedge $-1 $31 $29 $33 $59 reversed $54 $-1 #
coedge $-1 $29 $31 $76 $79 forward $54 $-1 #
loop $-1 $-1 $53 $80 #
vertex $-1 $51 $81 #
straight-curve $-1 1.5307579422779716e-017 -0.0625 -0.050000000000000003 0 0 1 I I #
vertex $-1 $32 $82 #
straight-curve $-1 -7.6537897113898579e-018 0.0625 -0.050000000000000003 0 0 1 I I #
edge $-1 $34 -1.2246063538223773e-016 $35 3.1415926535897931 $33 $83 forward 7 unknown #
point $-1 -7.6537897113898579e-018 0.0625 0.15000000000000002 #
point $-1 0 -0.0625 0.14999999999999999 #
face $-1 $84 $85 $3 $-1 $86 forward single #
loop $-1 $-1 $87 $37 #
cone-surface $-1 0 0 -0.060000000000000053 0 0 1 0 -0.125 0 1 I I 0 1 0.125 forward I I I I #
loop $-1 $-1 $88 $21 #
coedge $-1 $89 $89 $87 $90 reversed $38 $-1 #
coedge $-1 $40 $42 $88 $91 forward $22 $-1 #
edge $-1 $92 -4.3223323126257784e-049 $48 1.570796326794897 $40 $93 forward 7 unknown #
coedge $-1 $88 $88 $41 $70 forward $65 $-1 #
edge $-1 $71 0 $92 3.1415926535897931 $69 $94 forward 7 unknown #
vertex $-1 $70 $95 #
ellipse-curve $-1 -2.1430611191891604e-017 0.17499999999999999 0.10000000000000001 1 1.224606353822377e-016 -3.4872046439400958e-032 -6.1230317691118826e-018 0.049999999999999989 -1.3877787807814457e-017 1 I I #
ellipse-curve $-1 0 -6.9388939039072284e-018 0.14999999999999999 0 0 1 -2.1430611191891601e-017 0.17499999999999999 0 1 I I #
point $-1 -2.1430611191891601e-017 0.17499999999999999 0.14999999999999999 #
point $-1 0 -0.17499999999999999 0.14999999999999999 #
coedge $-1 $50 $50 $53 $79 reversed $77 $-1 #
loop $-1 $96 $76 $97 #
ellipse-curve $-1 1.7347234759768071e-018 -1.7347234759768071e-018 -0.049999999999999996 -1.667734961217822e-032 1.1102230246251565e-016 1 -9.388513187366665e-018 0.0625 -6.9388939039072284e-018 1 I I #
edge $-1 $57 0 $55 3.1415926535897931 $76 $98 forward 7 unknown #
face $-1 $-1 $54 $3 $-1 $99 reversed single #
point $-1 0 -0.0625 -0.050000000000000003 #
point $-1 -7.6537897113898579e-018 0.0625 -0.050000000000000003 #
ellipse-curve $-1 -1.7347234759768071e-018 0 0.14999999999999999 0 0 -1 1.7347234759768071e-018 0.0625 0 1 I I #
face $-1 $100 $101 $3 $-1 $102 forward single #
loop $-1 $-1 $103 $62 #
cone-surface $-1 0 0 -0.060000000000000053 0 0 1 0 -0.125 0 1 I I 0 1 0.125 forward I I I I #
coedge $-1 $104 $105 $66 $90 forward $63 $-1 #
coedge $-1 $69 $69 $67 $91 reversed $65 $-1 #
coedge $-1 $66 $66 $106 $107 forward $38 $-1 #
edge $-1 $108 0 $109 3.1415926535897931 $66 $110 forward 7 unknown #
edge $-1 $71 0 $92 3.1415926535897931 $88 $111 forward 7 unknown #
vertex $-1 $70 $112 #
ellipse-curve $-1 4.2861222383783209e-017 -0.17499999999999999 0.10000000000000001 -1 -2.449212707644754e-016 -6.9744092878801917e-032 1.2246063538223765e-017 -0.049999999999999989 -1.3877787807814457e-017 1 I I #
ellipse-curve $-1 6.9388939039072284e-018 0 0.099999999999999992 0 0 -1 -3.4492536864910715e-017 0.22499999999999998 0 1 I I #
point $-1 -2.7553642961003487e-017 0.22499999999999998 0.099999999999999992 #
loop $-1 $-1 $113 $97 #
face $-1 $80 $77 $3 $-1 $114 reversed single #
ellipse-curve $-1 -3.4694469519536142e-018 -1.7347234759768071e-018 -0.049999999999999996 7.4328858791194884e-033 -1.1102230246251565e-016 -1 -4.1843427594362437e-018 0.0625 -6.9388939039072284e-018 1 I I #
cone-surface $-1 0 0 -0.060000000000000053 0 0 1 0 -0.0625 0 1 I I 0 1 0.0625 forward I I I I #
face $-1 $115 $116 $3 $-1 $117 forward single #
loop $-1 $118 $119 $84 #
plane-surface $-1 0 0 0 0 0 1 0 -1 0 forward_v I I I I #
coedge $-1 $120 $121 $122 $123 forward $85 $-1 #
coedge $-1 $124 $87 $120 $125 forward $63 $-1 #
coedge $-1 $87 $124 $121 $126 reversed $63 $-1 #
coedge $-1 $121 $120 $89 $107 reversed $85 $-1 #
edge $-1 $108 0 $109 3.1415926535897931 $89 $127 forward 7 unknown #
vertex $-1 $107 $128 #
vertex $-1 $107 $129 #
ellipse-curve $-1 -2.0816681711721685e-017 -6.9388939039072284e-018 0.099999999999999992 4.8930657649588211e-033 1.1102230246251565e-016 -1 5.5091022889419694e-018 0.125 1.3877787807814457e-017 1 I I #
ellipse-curve $-1 -6.9388939039072284e-018 0 0.099999999999999992 0 0 1 -2.0614749057096259e-017 0.22499999999999998 0 1 I I #
point $-1 5.5107285922006974e-017 -0.22499999999999998 0.099999999999999992 #
coedge $-1 $130 $130 $131 $132 reversed $96 $-1 #
plane-surface $-1 0 0 -0.049999999999999996 0 0 1 0 -1 0 forward_v I I I I #
face $-1 $97 $133 $3 $-1 $134 forward single #
loop $-1 $-1 $135 $100 #
torus-surface $-1 0 0 0 0 0 1 0.17499999999999999 0.049999999999999996 0 -1 0 forward_v I I I I #
loop $-1 $-1 $122 $84 #
coedge $-1 $136 $136 $137 $138 reversed $101 $-1 #
coedge $-1 $106 $103 $104 $125 reversed $85 $-1 #
coedge $-1 $103 $106 $105 $126 forward $85 $-1 #
coedge $-1 $139 $139 $103 $123 reversed $118 $-1 #
edge $-1 $140 1.2246063538223773e-016 $141 3.1415926535897931 $103 $142 forward 7 unknown #
coedge $-1 $105 $104 $139 $143 reversed $63 $-1 #
edge $-1 $109 0 $141 0.10000000000000001 $120 $144 forward 7 unknown #
edge $-1 $108 0 $140 0.10000000000000001 $121 $145 forward 7 unknown #
ellipse-curve $-1 3.4694469519536142e-018 -3.4694469519536142e-018 0.099999999999999992 1.667734961217822e-032 -1.1102230246251565e-016 1 -1.877702637473333e-017 0.125 1.3877787807814457e-017 1 I I #
point $-1 -1.5307579422779716e-017 0.125 0.10000000000000001 #
point $-1 0 -0.125 0.10000000000000001 #
coedge $-1 $113 $113 $146 $147 forward $96 $-1 #
coedge $-1 $148 $149 $113 $132 forward $133 $-1 #
edge $-1 $150 0 $151 3.1415926535897931 $113 $152 forward 7 unknown #
loop $-1 $-1 $148 $115 #
torus-surface $-1 0 0 0 0 0 1 0.17499999999999999 0.049999999999999996 0 -1 0 forward_v I I I I #
coedge $-1 $137 $146 $149 $153 forward $116 $-1 #
coedge $-1 $119 $119 $154 $155 forward $101 $-1 #
coedge $-1 $156 $135 $119 $138 forward $116 $-1 #
edge $-1 $157 0 $158 3.1415926535897931 $119 $159 forward 7 unknown #
coedge $-1 $122 $122 $124 $143 forward $118 $-1 #
vertex $-1 $126 $160 #
vertex $-1 $125 $161 #
ellipse-curve $-1 0 -3.4694469519536142e-018 0 0 0 1 0 0.125 0 1 I I #
edge $-1 $140 -1.2246063538223773e-016 $141 3.1415926535897931 $139 $162 forward 7 unknown #
straight-curve $-1 3.0615158845559431e-017 -0.125 0.10000000000000001 0 0 -1 I I #
straight-curve $-1 -1.5307579422779716e-017 0.125 0.10000000000000001 0 0 -1 I I #
coedge $-1 $135 $156 $130 $147 reversed $116 $-1 #
edge $-1 $150 0 $151 3.1415926535897931 $130 $163 forward 7 unknown #
coedge $-1 $154 $131 $156 $164 forward $133 $-1 #
coedge $-1 $131 $154 $135 $153 reversed $133 $-1 #
vertex $-1 $147 $165 #
vertex $-1 $147 $166 #
ellipse-curve $-1 0 -6.9388939039072284e-018 -0.049999999999999996 0 0 1 -2.1430611191891601e-017 0.17499999999999999 0 1 I I #
edge $-1 $150 7.5472193501228326e-048 $157 1.5707963267948957 $135 $167 forward 7 unknown #
coedge $-1 $149 $148 $136 $155 reversed $133 $-1 #
edge $-1 $157 0 $158 3.1415926535897931 $136 $168 forward 7 unknown #
coedge $-1 $146 $137 $148 $164 reversed $116 $-1 #
vertex $-1 $155 $169 #
vertex $-1 $155 $170 #
ellipse-curve $-1 6.9388939039072284e-018 0 0 0 0 -1 -3.4492536864910715e-017 0.22499999999999998 0 1 I I #
point $-1 -1.5307579422779716e-017 0.125 0 #
point $-1 0 -0.125 0 #
ellipse-curve $-1 0 -3.4694469519536142e-018 0 0 0 -1 0 0.125 0 1 I I #
ellipse-curve $-1 0 0 -0.049999999999999996 0 0 -1 -2.1430611191891601e-017 0.17499999999999999 0 1 I I #
edge $-1 $151 0 $158 1.5707963267948957 $156 $171 forward 7 unknown #
point $-1 -2.1430611191891601e-017 0.17499999999999999 -0.049999999999999996 #
point $-1 4.2861222383783203e-017 -0.17499999999999999 -0.049999999999999996 #
ellipse-curve $-1 -2.1430611191891598e-017 0.17499999999999996 1.9081958235744878e-017 1 1.224606353822377e-016 6.3495502854016532e-033 -3.0814879110195774e-033 2.7755575615628914e-017 -0.050000000000000017 1 I I #
ellipse-curve $-1 -6.9388939039072284e-018 0 0 0 0 1 -2.0614749057096259e-017 0.22499999999999998 0 1 I I #
point $-1 -2.7553642961003487e-017 0.22499999999999998 0 #
point $-1 0 -0.22499999999999998 0 #
ellipse-curve $-1 0 -0.17499999999999996 1.9081958235744878e-017 -1 0 0 0 -2.7755575615628914e-017 -0.050000000000000017 1 I I #
End-of-ACIS-data 