600 0 1 0           
92 GICL Pro/E ACIS Translator - Source: f:/data5/repository/PTC/V18/piping18/hose_end.prt - 6 0 13 ACIS 6.0.3 NT 24 Thu Apr 04 13:31:50 2002 
1 9.9999999999999995e-007 1e-010 
body $-1 $1 $-1 $2 #
lump $-1 $-1 $3 $0 #
transform $-1 1 0 0 0 1 0 0 0 1 0 0 0 25.399999999999999 no_rotate no_reflect no_shear #
shell $-1 $-1 $-1 $4 $-1 $1 #
face $-1 $5 $6 $3 $-1 $7 reversed single #
face $-1 $8 $9 $3 $-1 $10 forward single #
loop $-1 $11 $12 $4 #
plane-surface $-1 0 0 0 0 0 -1 -1 0 0 forward_v I I I I #
face $-1 $13 $14 $3 $-1 $15 forward single #
loop $-1 $-1 $16 $5 #
cone-surface $-1 0 0 0 0 0 -1 -0.17499999999999999 0 0 1 I I 0 1 0.17499999999999999 forward I I I I #
loop $-1 $-1 $17 $4 #
coedge $-1 $18 $18 $19 $20 reversed $6 $-1 #
face $-1 $21 $22 $3 $-1 $23 reversed single #
loop $-1 $-1 $24 $8 #
cone-surface $-1 0 0 0 0 0 -1 -0.17499999999999999 0 0 1 I I 0 1 0.17499999999999999 forward I I I I #
coedge $-1 $19 $25 $26 $27 reversed $9 $-1 #
coedge $-1 $28 $28 $29 $30 reversed $11 $-1 #
coedge $-1 $12 $12 $31 $32 reversed $6 $-1 #
coedge $-1 $33 $16 $12 $20 forward $9 $-1 #
edge $-1 $34 0 $35 3.1415926535897931 $12 $36 forward 7 unknown #
face $-1 $37 $38 $3 $-1 $39 forward single #
loop $-1 $40 $41 $13 #
plane-surface $-1 0 0 -0.125 0 0 -1 0 -1 0 forward_v I I I I #
coedge $-1 $31 $42 $33 $43 reversed $14 $-1 #
coedge $-1 $16 $33 $44 $45 reversed $9 $-1 #
coedge $-1 $42 $31 $16 $27 forward $14 $-1 #
edge $-1 $34 0 $46 0.125 $26 $47 forward 7 unknown #
coedge $-1 $17 $17 $48 $49 reversed $11 $-1 #
coedge $-1 $50 $51 $17 $30 forward $52 $-1 #
edge $-1 $53 0 $54 3.1415926535897931 $17 $55 forward 7 unknown #
coedge $-1 $26 $24 $18 $32 forward $14 $-1 #
edge $-1 $35 0 $34 3.1415926535897931 $18 $56 forward 7 unknown #
coedge $-1 $25 $19 $24 $43 forward $9 $-1 #
vertex $-1 $32 $57 #
vertex $-1 $32 $58 #
ellipse-curve $-1 0 0 0 0 0 -1 0.17499999999999999 0 0 1 I I #
face $-1 $59 $60 $3 $-1 $61 forward single #
loop $-1 $62 $63 $21 #
cone-surface $-1 0 0 -0.12000000000000011 0 0 -1 0 -0.20499999999999999 0 1 I I 0 1 0.20499999999999999 forward I I I I #
loop $-1 $-1 $44 $13 #
coedge $-1 $64 $64 $63 $65 reversed $22 $-1 #
coedge $-1 $24 $26 $66 $67 reversed $14 $-1 #
edge $-1 $35 0 $68 0.125 $24 $69 forward 7 unknown #
coedge $-1 $66 $66 $25 $45 forward $40 $-1 #
edge $-1 $46 0 $68 3.1415926535897931 $25 $70 forward 7 unknown #
vertex $-1 $67 $71 #
straight-curve $-1 0.17499999999999999 2.1430611191891601e-017 0 0 0 -1 I I #
coedge $-1 $72 $73 $28 $49 forward $74 $-1 #
edge $-1 $54 0 $53 3.1415926535897931 $28 $75 forward 7 unknown #
coedge $-1 $76 $29 $73 $77 forward $52 $-1 #
coedge $-1 $29 $76 $72 $78 reversed $52 $-1 #
loop $-1 $-1 $50 $79 #
vertex $-1 $49 $80 #
vertex $-1 $49 $81 #
ellipse-curve $-1 0 0 0 0 0 1 0.125 0 0 1 I I #
ellipse-curve $-1 0 0 0 0 0 -1 -0.17499999999999999 0 0 1 I I #
point $-1 0.17499999999999999 0 0 #
point $-1 -0.17499999999999999 0 0 #
face $-1 $82 $83 $3 $-1 $84 forward single #
loop $-1 $-1 $85 $37 #
cone-surface $-1 0 0 -0.12000000000000011 0 0 -1 0 -0.20499999999999999 0 1 I I 0 1 0.20499999999999999 forward I I I I #
loop $-1 $-1 $86 $21 #
coedge $-1 $87 $88 $41 $65 forward $38 $-1 #
coedge $-1 $41 $41 $89 $90 forward $22 $-1 #
edge $-1 $91 0 $92 3.1415926535897931 $41 $93 forward 7 unknown #
coedge $-1 $44 $44 $42 $67 forward $40 $-1 #
edge $-1 $68 0 $46 3.1415926535897931 $42 $94 forward 7 unknown #
vertex $-1 $67 $95 #
straight-curve $-1 -0.17499999999999999 0 0 0 0 -1 I I #
ellipse-curve $-1 -6.9388939039072284e-018 6.9388939039072284e-018 -0.125 0 0 -1 0.17499999999999999 1.4491717287984373e-017 0 1 I I #
point $-1 0.17499999999999999 2.1430611191891601e-017 -0.125 #
coedge $-1 $96 $48 $51 $78 forward $74 $-1 #
coedge $-1 $48 $96 $50 $77 reversed $74 $-1 #
loop $-1 $-1 $72 $97 #
ellipse-curve $-1 0 0 0 0 0 1 -0.125 0 0 1 I I #
coedge $-1 $51 $50 $98 $99 reversed $52 $-1 #
edge $-1 $54 0 $100 0.69999999999999996 $73 $101 forward 7 unknown #
edge $-1 $53 0 $102 0.69999999999999996 $72 $103 forward 7 unknown #
face $-1 $97 $52 $3 $-1 $104 reversed single #
point $-1 0.125 0 0 #
point $-1 -0.125 0 0 #
face $-1 $105 $106 $3 $-1 $107 forward single #
loop $-1 $108 $109 $59 #
plane-surface $-1 0 0 -0.22499999999999998 0 0 -1 0 -1 0 forward_v I I I I #
coedge $-1 $110 $111 $109 $112 forward $60 $-1 #
coedge $-1 $113 $113 $114 $115 reversed $62 $-1 #
coedge $-1 $116 $63 $110 $117 reversed $38 $-1 #
coedge $-1 $63 $116 $111 $118 forward $38 $-1 #
coedge $-1 $111 $110 $64 $90 reversed $60 $-1 #
edge $-1 $91 0 $92 3.1415926535897931 $64 $119 forward 7 unknown #
vertex $-1 $90 $120 #
vertex $-1 $90 $121 #
ellipse-curve $-1 0 0 -0.125 0 0 -1 0 0.20499999999999999 0 1 I I #
ellipse-curve $-1 -6.9388939039072284e-018 0 -0.125 0 0 -1 -0.17499999999999999 0 0 1 I I #
point $-1 -0.17499999999999999 0 -0.125 #
coedge $-1 $73 $72 $122 $123 reversed $74 $-1 #
face $-1 $124 $74 $3 $-1 $125 reversed single #
coedge $-1 $122 $122 $76 $99 forward $126 $-1 #
edge $-1 $102 0 $100 3.1415926535897931 $98 $127 forward 7 unknown #
vertex $-1 $123 $128 #
straight-curve $-1 -0.125 0 0 0 -4.3735941207942048e-017 -1 I I #
vertex $-1 $123 $129 #
straight-curve $-1 0.125 1.5307579422779716e-017 0 0 0 -1 I I #
cone-surface $-1 0 0 0 0 0 -1 -0.125 0 0 1 I I 0 1 0.125 forward I I I I #
face $-1 $130 $131 $3 $-1 $132 forward single #
loop $-1 $-1 $133 $82 #
cone-surface $-1 0 0 0 0 0 -1 -0.17499999999999999 0 0 1 I I 0 1 0.17499999999999999 forward I I I I #
loop $-1 $-1 $134 $59 #
coedge $-1 $135 $135 $85 $112 reversed $83 $-1 #
coedge $-1 $89 $85 $87 $117 forward $60 $-1 #
coedge $-1 $85 $89 $88 $118 reversed $60 $-1 #
edge $-1 $136 0 $137 3.1415926535897931 $109 $138 forward 7 unknown #
coedge $-1 $86 $86 $139 $140 reversed $62 $-1 #
coedge $-1 $139 $139 $86 $115 forward $141 $-1 #
edge $-1 $142 0 $143 1 $86 $144 forward 7 unknown #
coedge $-1 $88 $87 $135 $145 reversed $38 $-1 #
edge $-1 $137 0 $92 0.099999999999999978 $87 $146 forward 7 unknown #
edge $-1 $136 0 $91 0.099999999999999978 $88 $147 forward 7 unknown #
ellipse-curve $-1 0 0 -0.125 0 0 1 0 0.20499999999999999 0 1 I I #
point $-1 0 0.20499999999999999 -0.125 #
point $-1 0 -0.20499999999999999 -0.125 #
coedge $-1 $98 $98 $96 $123 forward $126 $-1 #
edge $-1 $100 0 $102 3.1415926535897931 $122 $148 forward 7 unknown #
face $-1 $149 $150 $3 $-1 $151 forward single #
cone-surface $-1 0 0 0 0 0 -1 -0.125 0 0 1 I I 0 1 0.125 forward I I I I #
loop $-1 $-1 $98 $152 #
ellipse-curve $-1 0 0 -0.69999999999999996 0 0 1 0.125 0 0 1 I I #
point $-1 -0.125 0 -0.69999999999999996 #
point $-1 0.125 0 -0.69999999999999996 #
face $-1 $153 $154 $3 $-1 $155 reversed single #
loop $-1 $-1 $156 $105 #
cone-surface $-1 0 0 0 0 0 -1 -0.17499999999999999 0 0 1 I I 0 1 0.17499999999999999 forward I I I I #
coedge $-1 $157 $158 $159 $160 reversed $106 $-1 #
coedge $-1 $161 $161 $157 $162 forward $108 $-1 #
coedge $-1 $109 $109 $116 $145 forward $83 $-1 #
vertex $-1 $145 $163 #
vertex $-1 $145 $164 #
ellipse-curve $-1 -1.3877787807814457e-017 6.9388939039072284e-018 -0.22499999999999998 0 0 1 3.8982218061173192e-017 0.20499999999999999 0 1 I I #
coedge $-1 $114 $114 $113 $140 forward $141 $-1 #
edge $-1 $143 0 $142 1 $113 $165 forward 7 unknown #
loop $-1 $-1 $114 $166 #
vertex $-1 $140 $167 #
vertex $-1 $140 $168 #
intcurve-curve $-1 forward { surfintcur full nurbs 3 open 17 
	0 3 0.063988307873971181 1 0.12751036644074493 1 0.1905537609038826 1 0.2531911054416891 1 
	0.3154120153233585 1 0.37721213274534326 1 0.43874209006708126 1 0.50007034904004244 1 0.56135655356677405 1 
	0.6228464139487756 1 0.6846496684280502 1 0.74677958100369124 1 0.80938737582684384 1 0.8724609297360334 1 
	0.93601302305679779 1 1 3 
	0.20339673609664549 -0.025588429909463892 -0.13176611939013749 1 
	0.20272991418148031 -0.030616463152465846 -0.13237526453628773 0.99999999999999989 
	0.20121459396105659 -0.040084287982677318 -0.13393144767366991 1.0000000000000004 
	0.19822739518911187 -0.052703446076479525 -0.13730604262784923 0.99999999999999956 
	0.19504465795707859 -0.063390821879668005 -0.14160294382661018 1.0000000000000004 
	0.19186687471845226 -0.07236386319564489 -0.14687396690409529 0.99999999999999989 
	0.18904496335001922 -0.07937616629982043 -0.15298994025643917 1.0000000000000002 
	0.18689821964377823 -0.084261978743369589 -0.15949305130632208 0.99999999999999989 
	0.18546737323012288 -0.087341523620888817 -0.16646940287328554 1.0000000000000002 
	0.18488753225748172 -0.088551926501455894 -0.17346270313624179 0.99999999999999989 
	0.18510341601281854 -0.088103069374615373 -0.18038381918732255 1.0000000000000002 
	0.1861758407910736 -0.085836325001419564 -0.18757022719760486 0.99999999999999978 
	0.18816019455969379 -0.081435400533221014 -0.19465134720237595 0.99999999999999978 
	0.19079126495030316 -0.075131344079982704 -0.20101232307085556 1 
	0.19398906299772753 -0.066542019165489366 -0.20679507224304114 1.0000000000000002 
	0.19732901392112209 -0.055973579728878252 -0.21157283765169335 0.99999999999999989 
	0.20052352731653655 -0.043405172354852417 -0.21533029474490251 0.99999999999999978 
	0.20218968089844133 -0.03400320814219595 -0.2170899911089112 0.99999999999999989 
	0.20293684382308422 -0.029010987903294993 -0.21778657374032634 1 
	0.001 
	cone 0 0 -0.12000000000000011 0 0 -1 0 -0.20499999999999999 0 1 I I 0 1 0.20499999999999999 forward I I I I 
	cone 0.245 -0.099999999999999992 -0.17499999999999999 0 1 0 0 0 -0.059999999999999998 1 I I 0 1 0.059999999999999998 forward I I I I 
	nullbs 
	nullbs 
	I I 
	0 
	0 
	0 
	} I I #
edge $-1 $136 0 $137 3.1415926535897931 $135 $169 forward 7 unknown #
straight-curve $-1 -5.0208860506717464e-017 -0.20499999999999999 -0.22499999999999998 0 0 1 I I #
straight-curve $-1 2.5104430253358732e-017 0.20499999999999999 -0.22499999999999998 0 0 1 I I #
ellipse-curve $-1 0 0 -0.69999999999999996 0 0 1 -0.125 0 0 1 I I #
face $-1 $170 $171 $3 $-1 $172 forward single #
loop $-1 $173 $174 $124 #
cone-surface $-1 0.245 -0.099999999999999992 -0.54999999999999993 0 1 0 0 0 -0.059999999999999998 1 I I 0 1 0.059999999999999998 forward I I I I #
face $-1 $79 $175 $3 $-1 $176 forward single #
face $-1 $177 $178 $3 $-1 $179 forward single #
loop $-1 $180 $181 $130 #
plane-surface $-1 0 0 -0.5 0 0 -1 0 -1 0 forward_v I I I I #
coedge $-1 $182 $183 $184 $185 reversed $131 $-1 #
coedge $-1 $184 $133 $134 $162 reversed $106 $-1 #
coedge $-1 $133 $184 $186 $187 reversed $106 $-1 #
coedge $-1 $183 $182 $133 $160 forward $131 $-1 #
edge $-1 $188 0 $189 0.27500000000000002 $159 $190 forward 7 unknown #
coedge $-1 $134 $134 $182 $191 forward $108 $-1 #
edge $-1 $192 -2.4492127076447545e-016 $188 3.1415926535897931 $157 $193 forward 7 unknown #
point $-1 2.5104430253358732e-017 0.20499999999999999 -0.22499999999999998 #
point $-1 0 -0.20499999999999999 -0.22499999999999998 #
intcurve-curve $-1 forward { surfintcur full nurbs 3 open 23 
	0 3 0.046703745986304557 1 0.093086106368476196 1 0.13915431038595372 1 0.18494498706881571 1 
	0.23049801419812707 1 0.27582783543533917 1 0.32098562300130684 1 0.36596830155913218 1 0.41076918037557886 1 
	0.45545265262878998 1 0.50004902890190583 1 0.54461903321944583 1 0.58927408735616593 1 0.63407128658622514 1 
	0.67901867853911568 1 0.72416837049465288 1 0.76950079214876421 1 0.81504314533455258 1 0.86082925723664272 1 
	0.90688248480208589 1 0.95326575577191608 1 1 3 
	0.20293684382308422 -0.029010987903294993 -0.21778657374032634 1 
	0.20388690843314516 -0.021932792629983985 -0.21868084693752576 1 
	0.20516298525974755 -0.0084277150948882228 -0.21988559088019066 1.0000000000000002 
	0.2049907802134783 0.010127852501251229 -0.21971142979868813 0.99999999999999989 
	0.20347944124716097 0.02646875439309988 -0.21834326752719616 1 
	0.20106008321692656 0.040763345579086965 -0.21592180487426438 1 
	0.19809048141647695 0.053214951916010098 -0.21251758133394966 1.0000000000000002 
	0.19494531787576699 0.06368209449055473 -0.20824648055456552 0.99999999999999978 
	0.19180494647730925 0.072525154462634259 -0.2030055751317896 1 
	0.18900367344382851 0.079472941644899348 -0.19690386204068619 1 
	0.18687196441580795 0.084319679473480291 -0.19040617281741881 1 
	0.18545258238340914 0.087372676335060018 -0.18343295135784404 0.99999999999999989 
	0.18488440846882473 0.088558426875751481 -0.17640993595441778 1 
	0.18511341101533452 0.088082150691344369 -0.16954300322435359 1 
	0.18617553525496661 0.085836373718444464 -0.16244665179357501 1.0000000000000002 
	0.18813897132496199 0.081483290427416505 -0.15541208625313158 0.99999999999999978 
	0.19076178625996762 0.07520587010548864 -0.14905026576344318 1 
	0.19393395859518611 0.066691956753457862 -0.14329680345815307 1.0000000000000002 
	0.19720802477240271 0.056384421961687775 -0.13859646686877708 0.99999999999999978 
	0.20033234943854114 0.044189437962598978 -0.13486069854092297 1 
	0.20299077120084916 0.02997289742362327 -0.13212152123748452 1 
	0.20476978262798146 0.013827321497847015 -0.13048149710146617 1.0000000000000002 
	0.20528858311081219 -0.0047174943694918469 -0.13001044141935161 1 
	0.20423371321499481 -0.018386787692587125 -0.13099010665349353 1 
	0.20339673609664549 -0.025588429909463892 -0.13176611939013749 1 
	0.001 
	cone 0 0 -0.12000000000000011 0 0 -1 0 -0.20499999999999999 0 1 I I 0 1 0.20499999999999999 forward I I I I 
	cone 0.245 -0.099999999999999992 -0.17499999999999999 0 1 0 0 0 -0.059999999999999998 1 I I 0 1 0.059999999999999998 forward I I I I 
	nullbs 
	nullbs 
	I I 
	0 
	0 
	0 
	} I I #
face $-1 $194 $195 $3 $-1 $196 forward single #
point $-1 0.20339673609664549 -0.025588429909463892 -0.13176611939013749 #
point $-1 0.20293684382308422 -0.029010987903294993 -0.21778657374032634 #
ellipse-curve $-1 -2.0816681711721685e-017 0 -0.22499999999999998 0 0 -1 4.592111196508042e-017 0.20499999999999999 0 1 I I #
face $-1 $197 $198 $3 $-1 $199 forward single #
loop $-1 $-1 $200 $149 #
cone-surface $-1 0.245 -0.099999999999999992 -0.54999999999999993 0 1 0 0 0 -0.059999999999999998 1 I I 0 1 0.059999999999999998 forward I I I I #
loop $-1 $-1 $201 $124 #
coedge $-1 $202 $203 $204 $205 forward $150 $-1 #
loop $-1 $126 $206 $152 #
plane-surface $-1 0 0 -0.69999999999999996 0 0 -1 -1 0 0 forward_v I I I I #
face $-1 $207 $208 $3 $-1 $209 forward single #
loop $-1 $210 $211 $153 #
cone-surface $-1 0 0 -0.49500000000000011 0 0 -1 0 -0.20499999999999999 0 1 I I 0 1 0.20499999999999999 forward I I I I #
loop $-1 $-1 $186 $130 #
coedge $-1 $212 $212 $211 $213 reversed $154 $-1 #
coedge $-1 $159 $156 $161 $191 reversed $131 $-1 #
coedge $-1 $156 $159 $214 $215 reversed $131 $-1 #
coedge $-1 $158 $157 $156 $185 forward $106 $-1 #
edge $-1 $192 0 $216 0.27500000000000002 $156 $217 forward 7 unknown #
coedge $-1 $214 $214 $158 $187 forward $180 $-1 #
edge $-1 $189 0 $216 3.1415926535897931 $158 $218 forward 7 unknown #
vertex $-1 $160 $219 #
vertex $-1 $215 $220 #
straight-curve $-1 0.17499999999999999 2.1430611191891601e-017 -0.22499999999999998 0 0 -1 I I #
edge $-1 $188 0 $192 3.1415926535897931 $182 $221 forward 7 unknown #
vertex $-1 $191 $222 #
ellipse-curve $-1 -6.9388939039072284e-018 1.3877787807814457e-017 -0.22499999999999998 0 0 1 -0.17499999999999999 -5.6739010191597666e-017 0 1 I I #
face $-1 $223 $224 $3 $-1 $225 forward single #
loop $-1 $141 $226 $166 #
cone-surface $-1 0.245 -0.099999999999999992 -0.17499999999999999 0 1 0 0 0 -0.059999999999999998 1 I I 0 1 0.059999999999999998 forward I I I I #
face $-1 $166 $227 $3 $-1 $228 reversed single #
loop $-1 $-1 $229 $170 #
plane-surface $-1 0 0.099999999999999992 0 0 1 0 0 0 -1 forward_v I I I I #
coedge $-1 $230 $231 $232 $233 forward $171 $-1 #
coedge $-1 $234 $234 $235 $236 forward $173 $-1 #
coedge $-1 $232 $174 $237 $238 reversed $150 $-1 #
coedge $-1 $174 $232 $239 $240 forward $150 $-1 #
coedge $-1 $231 $230 $174 $205 reversed $171 $-1 #
edge $-1 $241 0 $242 0.19999999999999998 $174 $243 forward 7 unknown #
coedge $-1 $244 $244 $245 $246 forward $175 $-1 #
face $-1 $247 $248 $3 $-1 $249 forward single #
loop $-1 $-1 $250 $177 #
cone-surface $-1 0 0 -0.49500000000000011 0 0 -1 0 -0.20499999999999999 0 1 I I 0 1 0.20499999999999999 forward I I I I #
loop $-1 $-1 $235 $153 #
coedge $-1 $251 $252 $181 $213 forward $178 $-1 #
coedge $-1 $181 $181 $253 $254 forward $154 $-1 #
edge $-1 $255 0 $256 3.1415926535897931 $181 $257 forward 7 unknown #
coedge $-1 $186 $186 $183 $215 forward $180 $-1 #
edge $-1 $216 0 $189 3.1415926535897931 $183 $258 forward 7 unknown #
vertex $-1 $215 $259 #
straight-curve $-1 -0.17499999999999999 0 -0.22499999999999998 0 0 -1 I I #
ellipse-curve $-1 -6.9388939039072284e-018 6.9388939039072284e-018 -0.5 0 0 -1 0.17499999999999999 1.4491717287984373e-017 0 1 I I #
point $-1 0.17499999999999999 2.1430611191891601e-017 -0.22499999999999998 #
point $-1 0.17499999999999999 2.1430611191891601e-017 -0.5 #
ellipse-curve $-1 6.9388939039072284e-018 -6.9388939039072284e-018 -0.22499999999999998 0 0 1 0.17499999999999999 2.8369505095798833e-017 0 1 I I #
point $-1 -0.17499999999999999 0 -0.22499999999999998 #
face $-1 $260 $261 $3 $-1 $262 forward single #
loop $-1 $-1 $263 $194 #
cone-surface $-1 0.245 -0.099999999999999992 -0.17499999999999999 0 1 0 0 0 -0.059999999999999998 1 I I 0 1 0.059999999999999998 forward I I I I #
coedge $-1 $264 $265 $266 $267 forward $195 $-1 #
loop $-1 $-1 $268 $197 #
plane-surface $-1 0 -0.099999999999999992 0 0 1 0 0 0 -1 forward_v I I I I #
coedge $-1 $237 $237 $230 $269 forward $198 $-1 #
coedge $-1 $204 $200 $229 $269 reversed $171 $-1 #
coedge $-1 $200 $204 $268 $270 forward $171 $-1 #
coedge $-1 $203 $202 $200 $233 reversed $150 $-1 #
edge $-1 $271 0 $272 0.19999999999999998 $232 $273 forward 7 unknown #
coedge $-1 $201 $201 $274 $275 forward $173 $-1 #
coedge $-1 $274 $274 $201 $236 reversed $210 $-1 #
edge $-1 $276 0 $277 1 $235 $278 forward 7 unknown #
coedge $-1 $229 $229 $202 $238 forward $198 $-1 #
edge $-1 $272 0 $242 3.1415926535897918 $237 $279 forward 7 unknown #
coedge $-1 $268 $268 $203 $240 reversed $227 $-1 #
edge $-1 $271 0 $241 3.1415926535897936 $239 $280 forward 7 unknown #
vertex $-1 $240 $281 #
vertex $-1 $238 $282 #
straight-curve $-1 0.245 -0.099999999999999992 -0.48999999999999994 0 1 0 I I #
coedge $-1 $206 $206 $283 $284 forward $175 $-1 #
coedge $-1 $285 $286 $206 $246 reversed $287 $-1 #
edge $-1 $288 0 $289 3.1415926535897931 $206 $290 forward 7 unknown #
face $-1 $291 $287 $3 $-1 $292 forward single #
loop $-1 $293 $294 $207 #
plane-surface $-1 0 0 -0.59999999999999998 0 0 -1 0 -1 0 forward_v I I I I #
coedge $-1 $295 $296 $294 $297 forward $208 $-1 #
coedge $-1 $298 $211 $295 $299 reversed $178 $-1 #
coedge $-1 $211 $298 $296 $300 forward $178 $-1 #
coedge $-1 $296 $295 $212 $254 reversed $208 $-1 #
edge $-1 $255 0 $256 3.1415926535897931 $212 $301 forward 7 unknown #
vertex $-1 $254 $302 #
vertex $-1 $254 $303 #
ellipse-curve $-1 0 0 -0.5 0 0 -1 0 0.20499999999999999 0 1 I I #
ellipse-curve $-1 -6.9388939039072284e-018 0 -0.5 0 0 -1 -0.17499999999999999 0 0 1 I I #
point $-1 -0.17499999999999999 0 -0.5 #
face $-1 $-1 $304 $3 $-1 $305 reversed single #
loop $-1 $-1 $306 $223 #
plane-surface $-1 0 0.099999999999999992 0 0 1 0 0 0 -1 forward_v I I I I #
coedge $-1 $307 $308 $309 $310 forward $224 $-1 #
coedge $-1 $309 $226 $311 $312 reversed $195 $-1 #
coedge $-1 $226 $309 $313 $314 forward $195 $-1 #
coedge $-1 $308 $307 $226 $267 reversed $224 $-1 #
edge $-1 $315 0 $316 0.19999999999999998 $226 $317 forward 7 unknown #
coedge $-1 $239 $239 $231 $270 reversed $227 $-1 #
edge $-1 $242 0 $272 3.1415926535897918 $229 $318 forward 7 unknown #
edge $-1 $241 0 $271 3.1415926535897927 $268 $319 forward 7 unknown #
vertex $-1 $240 $320 #
vertex $-1 $238 $321 #
straight-curve $-1 0.245 -0.099999999999999992 -0.60999999999999988 0 1 0 I I #
coedge $-1 $235 $235 $234 $275 reversed $210 $-1 #
edge $-1 $277 0 $276 1 $274 $322 forward 7 unknown #
vertex $-1 $275 $323 #
vertex $-1 $275 $324 #
intcurve-curve $-1 forward { surfintcur full nurbs 3 open 17 
	0 3 0.063978911909938013 1 0.12749941496289377 1 0.19054683042937318 1 0.25319056539060258 1 
	0.31542243082955262 1 0.37723225120384285 1 0.43876939640580148 1 0.50010414768748945 1 0.56139654143438533 1 
	0.62289251397440271 1 0.68469966635665303 1 0.7468300429359227 1 0.80943466238433115 1 0.87249924125836453 1 
	0.93603604016471498 1 1 3 
	0.20344179830769565 -0.025227657468161264 -0.50672280193795183 1 
	0.20278375749841651 -0.030261090853024253 -0.50732224609677368 1 
	0.20128217674878071 -0.03974651346080723 -0.50886049335234418 0.99999999999999978 
	0.19830542375808541 -0.052413493242213241 -0.51221019980215543 1.0000000000000002 
	0.19511982813630874 -0.063162290831296902 -0.51649129393134907 1 
	0.19193130370683681 -0.072195537308844704 -0.52175193937974373 1.0000000000000002 
	0.1890869072491273 -0.079278050324297328 -0.52788072833158672 0.99999999999999978 
	0.18691971385806291 -0.084215022977380774 -0.53440815618889703 1 
	0.18547373622363483 -0.087328245971857663 -0.54141500872530834 1 
	0.18488640757344996 -0.088554256557220642 -0.54844713415475821 1.0000000000000002 
	0.18510397879800719 -0.088101940067524753 -0.55540744146877863 1 
	0.1861873690079196 -0.085811811626200676 -0.56263025305963177 1 
	0.18818700938423752 -0.081374360537645324 -0.56973034073440887 1 
	0.19083007178288947 -0.075034092194792998 -0.5760930906688948 0.99999999999999989 
	0.1940346895930701 -0.06641024725499671 -0.58186751616239407 0.99999999999999989 
	0.1973723413254832 -0.055821647353945902 -0.58662826964950576 1 
	0.20055722348147959 -0.043247514351908142 -0.59036673510401672 1 
	0.20221463899351919 -0.033855915763205326 -0.5921150132448495 0.99999999999999989 
	0.20295662228690664 -0.028872295888791238 -0.59280600881271417 1 
	0.001 
	cone 0 0 -0.49500000000000011 0 0 -1 0 -0.20499999999999999 0 1 I I 0 1 0.20499999999999999 forward I I I I 
	cone 0.245 -0.099999999999999992 -0.54999999999999993 0 1 0 0 0 -0.059999999999999998 1 I I 0 1 0.059999999999999998 forward I I I I 
	nullbs 
	nullbs 
	I I 
	0 
	0 
	0 
	} I I #
ellipse-curve $-1 0.24500000000000005 0.099999999999999992 -0.55000000000000016 0 1 0 -2.7755575615628914e-017 0 -0.059999999999999942 1 I I #
ellipse-curve $-1 0.245 -0.099999999999999992 -0.54999999999999993 0 1 0 2.7755575615628914e-017 0 -0.060000000000000164 1 I I #
point $-1 0.245 -0.099999999999999992 -0.49000000000000005 #
point $-1 0.245 0.099999999999999992 -0.49000000000000005 #
coedge $-1 $325 $326 $244 $284 reversed $327 $-1 #
edge $-1 $289 0 $288 3.1415926535897931 $244 $328 forward 7 unknown #
coedge $-1 $329 $245 $326 $330 reversed $287 $-1 #
coedge $-1 $245 $329 $325 $331 forward $287 $-1 #
loop $-1 $-1 $286 $247 #
vertex $-1 $284 $332 #
vertex $-1 $284 $333 #
ellipse-curve $-1 0 0 -0.69999999999999996 0 0 -1 0.17499999999999999 0 0 1 I I #
face $-1 $152 $327 $3 $-1 $334 forward single #
cone-surface $-1 0 0 0 0 0 -1 -0.17499999999999999 0 0 1 I I 0 1 0.17499999999999999 forward I I I I #
loop $-1 $-1 $335 $207 #
coedge $-1 $336 $336 $250 $297 reversed $248 $-1 #
coedge $-1 $253 $250 $251 $299 forward $208 $-1 #
coedge $-1 $250 $253 $252 $300 reversed $208 $-1 #
edge $-1 $337 0 $338 3.1415926535897931 $294 $339 forward 7 unknown #
coedge $-1 $252 $251 $336 $340 reversed $178 $-1 #
edge $-1 $338 0 $256 0.099999999999999978 $251 $341 forward 7 unknown #
edge $-1 $337 0 $255 0.099999999999999978 $252 $342 forward 7 unknown #
ellipse-curve $-1 0 0 -0.5 0 0 1 0 0.20499999999999999 0 1 I I #
point $-1 0 0.20499999999999999 -0.5 #
point $-1 0 -0.20499999999999999 -0.5 #
loop $-1 $-1 $343 $260 #
plane-surface $-1 0 -0.099999999999999992 0 0 1 0 0 0 -1 forward_v I I I I #
coedge $-1 $311 $311 $307 $344 forward $261 $-1 #
coedge $-1 $266 $263 $306 $344 reversed $224 $-1 #
coedge $-1 $263 $266 $343 $345 forward $224 $-1 #
coedge $-1 $265 $264 $263 $310 reversed $195 $-1 #
edge $-1 $346 0 $347 0.19999999999999998 $309 $348 forward 7 unknown #
coedge $-1 $306 $306 $264 $312 forward $261 $-1 #
edge $-1 $347 0 $316 3.1415926535897936 $311 $349 forward 7 unknown #
coedge $-1 $343 $343 $265 $314 reversed $304 $-1 #
edge $-1 $346 0 $315 3.1415926535897936 $313 $350 forward 7 unknown #
vertex $-1 $314 $351 #
vertex $-1 $312 $352 #
straight-curve $-1 0.245 -0.099999999999999992 -0.11499999999999999 0 1 0 I I #
ellipse-curve $-1 0.24499999999999997 0.099999999999999992 -0.55000000000000016 0 1 0 2.7755575615628914e-017 0 0.060000000000000109 1 I I #
ellipse-curve $-1 0.245 -0.099999999999999992 -0.54999999999999993 0 1 0 0 0 0.059999999999999887 1 I I #
point $-1 0.24500000000000002 -0.099999999999999992 -0.6100000000000001 #
point $-1 0.24500000000000002 0.099999999999999992 -0.6100000000000001 #
intcurve-curve $-1 forward { surfintcur full nurbs 3 open 23 
	0 3 0.046693215130308163 1 0.093068867472641911 1 0.13913393323369216 1 0.18492466522692202 1 
	0.23048023667857703 1 0.27581447836065975 1 0.32097800263357407 1 0.36596818980850432 1 0.41077640076212879 1 
	0.45546635755683162 1 0.50006924437755762 1 0.54464567315790324 1 0.589307290655813 1 0.63411053201055267 1 
	0.67906264765699331 1 0.72421537590181539 1 0.76954834514658921 1 0.8150888143772741 1 0.86087022797763124 1 
	0.90691447642866574 1 0.95328397860631309 1 1 3 
	0.20295662228690664 -0.028872295888791238 -0.59280600881271417 1 
	0.20389748529927912 -0.021832076292496585 -0.59369118248114094 1 
	0.20516102601651001 -0.008394064108827046 -0.59488347632829686 1 
	0.20499127788837318 0.01008413574537201 -0.59471191159786196 0.99999999999999978 
	0.20349052153221278 0.026376304711175247 -0.59335349115222069 1 
	0.20108305994667755 0.040648423647313671 -0.59094586043059982 0.99999999999999978 
	0.19812206089630785 0.053097679699228205 -0.58755643165638738 1.0000000000000002 
	0.19497931877629179 0.063578845397021314 -0.58329704609506705 1 
	0.19183604089517275 0.072444081440025301 -0.57806471285398753 1 
	0.18902326860422192 0.079427316528879563 -0.57195574905442459 0.99999999999999978 
	0.18688024358612085 0.08430170652520555 -0.56544044825709594 1.0000000000000002 
	0.18545348599431202 0.087370852816263445 -0.55844663654822868 1.0000000000000002 
	0.18488287824830368 0.088561600652989347 -0.55139391559052831 0.99999999999999978 
	0.18511638648990864 0.08807597747970658 -0.54449903371894637 1.0000000000000002 
	0.18618904981487031 0.085807483875535093 -0.53737989974448841 1.0000000000000002 
	0.18816452416444002 0.081424976658823339 -0.53033774849974746 0.99999999999999978 
	0.19079430026648547 0.075124043438680205 -0.52398328686782158 1.0000000000000002 
	0.19396616649335727 0.066598279748132524 -0.51824622357569239 1 
	0.19723162412333994 0.056300279715643754 -0.51356663017825277 0.99999999999999978 
	0.20034332736507601 0.044135467464789198 -0.50984922144933187 1.0000000000000002 
	0.20298925527769887 0.029971399684531212 -0.50712340949760792 1 
	0.20476119857053376 0.013912470822881608 -0.5054890406128637 1 
	0.20528830410237203 -0.0045080600949359848 -0.50501135927261342 0.99999999999999978 
	0.20426057671881812 -0.018079718006195622 -0.50596454903539989 0.99999999999999989 
	0.20344179830769565 -0.025227657468161264 -0.50672280193795183 1 
	0.001 
	cone 0 0 -0.49500000000000011 0 0 -1 0 -0.20499999999999999 0 1 I I 0 1 0.20499999999999999 forward I I I I 
	cone 0.245 -0.099999999999999992 -0.54999999999999993 0 1 0 0 0 -0.059999999999999998 1 I I 0 1 0.059999999999999998 forward I I I I 
	nullbs 
	nullbs 
	I I 
	0 
	0 
	0 
	} I I #
point $-1 0.20344179830769565 -0.025227657468161264 -0.50672280193795183 #
point $-1 0.20295662228690664 -0.028872295888791238 -0.59280600881271417 #
coedge $-1 $353 $283 $286 $331 reversed $327 $-1 #
coedge $-1 $283 $353 $285 $330 forward $327 $-1 #
loop $-1 $-1 $326 $291 #
ellipse-curve $-1 0 0 -0.69999999999999996 0 0 -1 -0.17499999999999999 0 0 1 I I #
coedge $-1 $286 $285 $335 $354 reversed $287 $-1 #
edge $-1 $355 0 $288 0.099999999999999978 $326 $356 forward 7 unknown #
edge $-1 $357 0 $289 0.099999999999999978 $325 $358 forward 7 unknown #
point $-1 0.17499999999999999 0 -0.69999999999999996 #
point $-1 -0.17499999999999999 0 -0.69999999999999996 #
cone-surface $-1 0 0 0 0 0 -1 -0.17499999999999999 0 0 1 I I 0 1 0.17499999999999999 forward I I I I #
coedge $-1 $359 $359 $329 $354 forward $293 $-1 #
coedge $-1 $294 $294 $298 $340 forward $248 $-1 #
vertex $-1 $340 $360 #
vertex $-1 $340 $361 #
ellipse-curve $-1 -1.3877787807814457e-017 6.9388939039072284e-018 -0.59999999999999998 0 0 1 3.8982218061173192e-017 0.20499999999999999 0 1 I I #
edge $-1 $337 0 $338 3.1415926535897931 $336 $362 forward 7 unknown #
straight-curve $-1 -5.0208860506717464e-017 -0.20499999999999999 -0.59999999999999998 0 0 1 I I #
straight-curve $-1 2.5104430253358732e-017 0.20499999999999999 -0.59999999999999998 0 0 1 I I #
coedge $-1 $313 $313 $308 $345 reversed $304 $-1 #
edge $-1 $316 0 $347 3.1415926535897936 $306 $363 forward 7 unknown #
edge $-1 $315 0 $346 3.1415926535897927 $343 $364 forward 7 unknown #
vertex $-1 $314 $365 #
vertex $-1 $312 $366 #
straight-curve $-1 0.245 -0.099999999999999992 -0.23499999999999999 0 1 0 I I #
ellipse-curve $-1 0.245 0.099999999999999992 -0.17499999999999993 0 1 0 2.7755575615628914e-017 0 -0.059999999999999998 1 I I #
ellipse-curve $-1 0.245 -0.099999999999999992 -0.17499999999999999 0 1 0 2.7755575615628914e-017 0 -0.059999999999999942 1 I I #
point $-1 0.245 -0.099999999999999992 -0.11499999999999994 #
point $-1 0.245 0.099999999999999992 -0.11499999999999994 #
coedge $-1 $326 $325 $359 $367 reversed $327 $-1 #
edge $-1 $357 -2.4492127076447545e-016 $355 3.1415926535897931 $329 $368 forward 7 unknown #
vertex $-1 $367 $369 #
straight-curve $-1 0.17499999999999999 2.1430611191891601e-017 -0.59999999999999998 0 0 -1 I I #
vertex $-1 $367 $370 #
straight-curve $-1 -0.17499999999999999 0 -0.59999999999999998 0 0 -1 I I #
coedge $-1 $335 $335 $353 $367 forward $293 $-1 #
point $-1 2.5104430253358732e-017 0.20499999999999999 -0.59999999999999998 #
point $-1 0 -0.20499999999999999 -0.59999999999999998 #
ellipse-curve $-1 -2.0816681711721685e-017 0 -0.59999999999999998 0 0 -1 4.592111196508042e-017 0.20499999999999999 0 1 I I #
ellipse-curve $-1 0.24500000000000002 0.099999999999999992 -0.17499999999999993 0 1 0 -2.7755575615628914e-017 0 0.059999999999999998 1 I I #
ellipse-curve $-1 0.245 -0.099999999999999992 -0.17499999999999999 0 1 0 0 0 0.060000000000000053 1 I I #
point $-1 0.24500000000000002 -0.099999999999999992 -0.23499999999999993 #
point $-1 0.24500000000000002 0.099999999999999992 -0.23499999999999993 #
edge $-1 $355 0 $357 3.1415926535897931 $353 $371 forward 7 unknown #
ellipse-curve $-1 -6.9388939039072284e-018 1.3877787807814457e-017 -0.59999999999999998 0 0 1 -0.17499999999999999 -5.6739010191597666e-017 0 1 I I #
point $-1 0.17499999999999999 2.1430611191891601e-017 -0.59999999999999998 #
point $-1 -0.17499999999999999 0 -0.59999999999999998 #
ellipse-curve $-1 -6.9388939039072284e-018 -6.9388939039072284e-018 -0.59999999999999998 0 0 1 0.17499999999999999 2.8369505095798833e-017 0 1 I I #
End-of-ACIS-data 