600 0 1 0           
89 GICL ACIS Healer - Source: /gicl/data5/repository/PTC/V18/piping18/hose_end.prt.sat - 6 0 18 ACIS 6.0.3 Solaris 24 Sat Apr 13 21:24:31 2002 
1 9.999999999999999547e-07 1.000000000000000036e-10 
body $-1 $1 $-1 $-1 #
lump $-1 $-1 $2 $0 #
shell $-1 $-1 $-1 $3 $-1 $1 #
face $-1 $4 $5 $2 $-1 $6 reversed single #
face $-1 $7 $8 $2 $-1 $9 forward single #
loop $-1 $10 $11 $3 #
plane-surface $-1 0 0 0 0 0 -1 -25.39999999999999858 0 0 forward_v I I I I #
face $-1 $12 $13 $2 $-1 $14 forward single #
loop $-1 $-1 $15 $4 #
cone-surface $-1 0 0 0 0 0 -1 -4.444999999999999396 0 0 1 I I 0 1 4.444999999999999396 forward I I I I #
loop $-1 $-1 $16 $3 #
coedge $-1 $17 $17 $18 $19 reversed $5 $-1 #
face $-1 $20 $21 $2 $-1 $22 reversed single #
loop $-1 $-1 $23 $7 #
cone-surface $-1 0 0 0 0 0 -1 -4.444999999999999396 0 0 1 I I 0 1 4.444999999999999396 forward I I I I #
coedge $-1 $18 $24 $25 $26 reversed $8 $-1 #
coedge $-1 $27 $27 $28 $29 reversed $10 $-1 #
coedge $-1 $11 $11 $30 $31 reversed $5 $-1 #
coedge $-1 $32 $15 $11 $19 forward $8 $-1 #
edge $-1 $33 0 $34 3.141592653589793116 $11 $35 forward 7 unknown #
face $-1 $36 $37 $2 $-1 $38 forward single #
loop $-1 $39 $40 $12 #
plane-surface $-1 0 0 -3.174999999999999822 0 0 -1 0 -25.39999999999999858 0 forward_v I I I I #
coedge $-1 $30 $41 $32 $42 reversed $13 $-1 #
coedge $-1 $15 $32 $43 $44 reversed $8 $-1 #
coedge $-1 $41 $30 $15 $26 forward $13 $-1 #
edge $-1 $33 0 $45 0.125 $25 $46 forward 7 unknown #
coedge $-1 $16 $16 $47 $48 reversed $10 $-1 #
coedge $-1 $49 $50 $16 $29 forward $51 $-1 #
edge $-1 $52 0 $53 3.141592653589793116 $16 $54 forward 7 unknown #
coedge $-1 $25 $23 $17 $31 forward $13 $-1 #
edge $-1 $34 0 $33 3.141592653589793116 $17 $55 forward 7 unknown #
coedge $-1 $24 $18 $23 $42 forward $8 $-1 #
vertex $-1 $31 $56 #
vertex $-1 $31 $57 #
ellipse-curve $-1 0 0 0 0 0 -1 4.444999999999999396 0 0 1 I I #
face $-1 $58 $59 $2 $-1 $60 forward single #
loop $-1 $61 $62 $20 #
cone-surface $-1 0 0 -3.048000000000002707 0 0 -1 0 -5.206999999999998963 0 1 I I 0 1 5.206999999999998963 forward I I I I #
loop $-1 $-1 $43 $12 #
coedge $-1 $63 $63 $62 $64 reversed $21 $-1 #
coedge $-1 $23 $25 $65 $66 reversed $13 $-1 #
edge $-1 $34 0 $67 0.125 $23 $68 forward 7 unknown #
coedge $-1 $65 $65 $24 $44 forward $39 $-1 #
edge $-1 $45 0 $67 3.141592653589793116 $24 $69 forward 7 unknown #
vertex $-1 $66 $70 #
straight-curve $-1 4.444999999999999396 5.443375242740466479e-16 0 0 0 -25.39999999999999858 I I #
coedge $-1 $71 $72 $27 $48 forward $73 $-1 #
edge $-1 $53 0 $52 3.141592653589793116 $27 $74 forward 7 unknown #
coedge $-1 $75 $28 $72 $76 forward $51 $-1 #
coedge $-1 $28 $75 $71 $77 reversed $51 $-1 #
loop $-1 $-1 $49 $78 #
vertex $-1 $48 $79 #
vertex $-1 $48 $80 #
ellipse-curve $-1 0 0 0 0 0 1 3.174999999999999822 0 0 1 I I #
ellipse-curve $-1 0 0 0 0 0 -1 -4.444999999999999396 0 0 1 I I #
point $-1 4.444999999999999396 0 0 #
point $-1 -4.444999999999999396 0 0 #
face $-1 $81 $82 $2 $-1 $83 forward single #
loop $-1 $-1 $84 $36 #
cone-surface $-1 0 0 -3.048000000000002707 0 0 -1 0 -5.206999999999998963 0 1 I I 0 1 5.206999999999998963 forward I I I I #
loop $-1 $-1 $85 $20 #
coedge $-1 $86 $87 $40 $64 forward $37 $-1 #
coedge $-1 $40 $40 $88 $89 forward $21 $-1 #
edge $-1 $90 0 $91 3.141592653589793116 $40 $92 forward 7 unknown #
coedge $-1 $43 $43 $41 $66 forward $39 $-1 #
edge $-1 $67 0 $45 3.141592653589793116 $41 $93 forward 7 unknown #
vertex $-1 $66 $94 #
straight-curve $-1 -4.444999999999999396 0 0 0 0 -25.39999999999999858 I I #
ellipse-curve $-1 -1.762479051592435909e-16 1.762479051592435909e-16 -3.174999999999999822 0 0 -1 4.444999999999999396 3.68089619114803057e-16 0 1 I I #
point $-1 4.444999999999999396 5.443375242740466479e-16 -3.174999999999999822 #
coedge $-1 $95 $47 $50 $77 forward $73 $-1 #
coedge $-1 $47 $95 $49 $76 reversed $73 $-1 #
loop $-1 $-1 $71 $96 #
ellipse-curve $-1 0 0 0 0 0 1 -3.174999999999999822 0 0 1 I I #
coedge $-1 $50 $49 $97 $98 reversed $51 $-1 #
edge $-1 $53 0 $99 0.6999999999999999556 $72 $100 forward 7 unknown #
edge $-1 $52 0 $101 0.6999999999999999556 $71 $102 forward 7 unknown #
face $-1 $96 $51 $2 $-1 $103 reversed single #
point $-1 3.174999999999999822 0 0 #
point $-1 -3.174999999999999822 0 0 #
face $-1 $104 $105 $2 $-1 $106 forward single #
loop $-1 $107 $108 $58 #
plane-surface $-1 0 0 -5.71499999999999897 0 0 -1 0 -25.39999999999999858 0 forward_v I I I I #
coedge $-1 $109 $110 $108 $111 forward $59 $-1 #
coedge $-1 $112 $112 $113 $114 reversed $61 $-1 #
coedge $-1 $115 $62 $109 $116 reversed $37 $-1 #
coedge $-1 $62 $115 $110 $117 forward $37 $-1 #
coedge $-1 $110 $109 $63 $89 reversed $59 $-1 #
edge $-1 $90 0 $91 3.141592653589793116 $63 $118 forward 7 unknown #
vertex $-1 $89 $119 #
vertex $-1 $89 $120 #
ellipse-curve $-1 0 0 -3.174999999999999822 0 0 -1 0 5.206999999999998963 0 1 I I #
ellipse-curve $-1 -1.762479051592435909e-16 0 -3.174999999999999822 0 0 -1 -4.444999999999999396 0 0 1 I I #
point $-1 -4.444999999999999396 0 -3.174999999999999822 #
coedge $-1 $72 $71 $121 $122 reversed $73 $-1 #
face $-1 $123 $73 $2 $-1 $124 reversed single #
coedge $-1 $121 $121 $75 $98 forward $125 $-1 #
edge $-1 $101 0 $99 3.141592653589793116 $97 $126 forward 7 unknown #
vertex $-1 $122 $127 #
straight-curve $-1 -3.174999999999999822 0 0 0 -1.110892906681727857e-15 -25.39999999999999858 I I #
vertex $-1 $122 $128 #
straight-curve $-1 3.174999999999999822 3.888125173386047696e-16 0 0 0 -25.39999999999999858 I I #
cone-surface $-1 0 0 0 0 0 -1 -3.174999999999999822 0 0 1 I I 0 1 3.174999999999999822 forward I I I I #
face $-1 $129 $130 $2 $-1 $131 forward single #
loop $-1 $-1 $132 $81 #
cone-surface $-1 0 0 0 0 0 -1 -4.444999999999999396 0 0 1 I I 0 1 4.444999999999999396 forward I I I I #
loop $-1 $-1 $133 $58 #
coedge $-1 $134 $134 $84 $111 reversed $82 $-1 #
coedge $-1 $88 $84 $86 $116 forward $59 $-1 #
coedge $-1 $84 $88 $87 $117 reversed $59 $-1 #
edge $-1 $135 0 $136 3.141592653589793116 $108 $137 forward 7 unknown #
coedge $-1 $85 $85 $138 $139 reversed $61 $-1 #
coedge $-1 $138 $138 $85 $114 forward $140 $-1 #
edge $-1 $141 0 $142 1 $85 $143 forward 7 unknown #
coedge $-1 $87 $86 $134 $144 reversed $37 $-1 #
edge $-1 $136 0 $91 0.0999999999999999778 $86 $145 forward 7 unknown #
edge $-1 $135 0 $90 0.0999999999999999778 $87 $146 forward 7 unknown #
ellipse-curve $-1 0 0 -3.174999999999999822 0 0 1 0 5.206999999999998963 0 1 I I #
point $-1 0 5.206999999999998963 -3.174999999999999822 #
point $-1 0 -5.206999999999998963 -3.174999999999999822 #
coedge $-1 $97 $97 $95 $122 forward $125 $-1 #
edge $-1 $99 0 $101 3.141592653589793116 $121 $147 forward 7 unknown #
face $-1 $148 $149 $2 $-1 $150 forward single #
cone-surface $-1 0 0 0 0 0 -1 -3.174999999999999822 0 0 1 I I 0 1 3.174999999999999822 forward I I I I #
loop $-1 $-1 $97 $151 #
ellipse-curve $-1 0 0 -17.77999999999999758 0 0 1 3.174999999999999822 0 0 1 I I #
point $-1 -3.174999999999999822 0 -17.77999999999999758 #
point $-1 3.174999999999999822 0 -17.77999999999999758 #
face $-1 $152 $153 $2 $-1 $154 reversed single #
loop $-1 $-1 $155 $104 #
cone-surface $-1 0 0 0 0 0 -1 -4.444999999999999396 0 0 1 I I 0 1 4.444999999999999396 forward I I I I #
coedge $-1 $156 $157 $158 $159 reversed $105 $-1 #
coedge $-1 $160 $160 $156 $161 forward $107 $-1 #
coedge $-1 $108 $108 $115 $144 forward $82 $-1 #
vertex $-1 $144 $162 #
vertex $-1 $144 $163 #
ellipse-curve $-1 -3.524958103184871819e-16 1.762479051592435909e-16 -5.71499999999999897 0 0 1 9.901483387537989863e-16 5.206999999999998963 0 1 I I #
coedge $-1 $113 $113 $112 $139 forward $140 $-1 #
edge $-1 $142 0 $141 1 $112 $164 forward 7 unknown #
loop $-1 $-1 $113 $165 #
vertex $-1 $139 $166 #
vertex $-1 $139 $167 #
intcurve-curve $-1 forward { surfintcur full nurbs 3 open 17 
	0 3 0.06398830787397118136 1 0.1275103664407449267 1 0.1905537609038825964 1 0.2531911054416891016 1 
	0.3154120153233584967 1 0.3772121327453432649 1 0.4387420900670812585 1 0.5000703490400424389 1 0.5613565535667740525 1 
	0.6228464139487756013 1 0.6846496684280501954 1 0.7467795810036912396 1 0.8093873758268438356 1 0.872460929736033397 1 
	0.9360130230567977883 1 1 3 
	5.166277096854795303 -0.6499461197003828516 -3.346859432509492027 1 
	5.149339820209600127 -0.7776581640726324407 -3.362331719221708148 0.999999999999999889 
	5.110850686610836746 -1.01814091476000379 -3.401858770911215579 1.000000000000000444 
	5.034975837803441046 -1.338667530342579903 -3.487573482747370335 0.9999999999999995559 
	4.954134312109795601 -1.610126875743567165 -3.596714773195898385 1.000000000000000444 
	4.873418617848686907 -1.838042125169380148 -3.730598759364020189 0.999999999999999889 
	4.801742069090487952 -2.016154624015438657 -3.885944482513554732 1.000000000000000222 
	4.74721477895196653 -2.140254260081587478 -4.051123503180580343 0.999999999999999889 
	4.710871280045121345 -2.218474699970575781 -4.228322832981452173 1.000000000000000222 
	4.696143319340035482 -2.249218933136979626 -4.405952659660541393 0.999999999999999889 
	4.701626766725590656 -2.237817962115230319 -4.581749007357992731 1.000000000000000222 
	4.728866356093269552 -2.180242655036056743 -4.764283770819162989 0.999999999999999778 
	4.779268941816222416 -2.068459173543813812 -4.944144218940349056 0.999999999999999778 
	4.846098129737700155 -1.908336139631560568 -5.105713005999731102 1 
	4.927322200142278952 -1.690167286803429869 -5.252594834973244531 1.000000000000000222 
	5.012156953596500486 -1.421728925113507458 -5.373950076353010807 0.999999999999999889 
	5.093297593840028448 -1.102491377813251239 -5.469389486520523036 0.999999999999999778 
	5.135617894820409646 -0.8636814868117770327 -5.514085774166344045 0.999999999999999889 
	5.154595833106339064 -0.7368790927436927873 -5.53177897300428878 1 
	0.02539999999999999897 
	cone 0 0 -3.048000000000002707 0 0 -1 0 -5.206999999999998963 0 1 I I 0 1 5.206999999999998963 forward I I I I 
	cone 6.222999999999999865 -2.539999999999999591 -4.444999999999999396 0 1 0 0 0 -1.523999999999999799 1 I I 0 1 1.523999999999999799 forward I I I I 
	nullbs 
	nullbs 
	I I 
	0 
	0 
	0 
	} I I #
edge $-1 $135 -5.81909267610358568e-32 $136 3.141592653589793116 $134 $168 forward 7 unknown #
straight-curve $-1 -1.275305056870623609e-15 -5.206999999999998963 -5.71499999999999897 0 0 25.39999999999999858 I I #
straight-curve $-1 6.376525284353118044e-16 5.206999999999998963 -5.71499999999999897 0 0 25.39999999999999858 I I #
ellipse-curve $-1 0 0 -17.77999999999999758 0 0 1 -3.174999999999999822 0 0 1 I I #
face $-1 $169 $170 $2 $-1 $171 forward single #
loop $-1 $172 $173 $123 #
cone-surface $-1 6.222999999999999865 -2.539999999999999591 -13.96999999999999709 0 1 0 0 0 -1.523999999999999799 1 I I 0 1 1.523999999999999799 forward I I I I #
face $-1 $78 $174 $2 $-1 $175 forward single #
face $-1 $176 $177 $2 $-1 $178 forward single #
loop $-1 $179 $180 $129 #
plane-surface $-1 0 0 -12.69999999999999929 0 0 -1 0 -25.39999999999999858 0 forward_v I I I I #
coedge $-1 $181 $182 $183 $184 reversed $130 $-1 #
coedge $-1 $183 $132 $133 $161 reversed $105 $-1 #
coedge $-1 $132 $183 $185 $186 reversed $105 $-1 #
coedge $-1 $182 $181 $132 $159 forward $130 $-1 #
edge $-1 $187 0 $188 0.2750000000000000222 $158 $189 forward 7 unknown #
coedge $-1 $133 $133 $181 $190 forward $107 $-1 #
edge $-1 $191 -2.449212707644755009e-16 $187 3.141592653589793116 $156 $192 forward 7 unknown #
point $-1 6.376525284353118044e-16 5.206999999999998963 -5.71499999999999897 #
point $-1 0 -5.206999999999998963 -5.71499999999999897 #
intcurve-curve $-1 forward { surfintcur full nurbs 3 open 23 
	0 3 0.04670374598630455676 1 0.09308610636847619579 1 0.1391543103859537167 1 0.1849449870688157083 1 
	0.2304980141981270714 1 0.2758278354353391748 1 0.3209856230013068412 1 0.3659683015591321809 1 0.4107691803755788573 1 
	0.4554526526287899779 1 0.5000490289019058343 1 0.544619033219445825 1 0.5892740873561659321 1 0.6340712865862251357 1 
	0.6790186785391156832 1 0.7241683704946528799 1 0.7695007921487642122 1 0.8150431453345525767 1 0.8608292572366427198 1 
	0.9068824848020858864 1 0.953265755771916079 1 1 3 
	5.154595833106339064 -0.7368790927436927873 -5.53177897300428878 1 
	5.178727474201886949 -0.5570929328015932214 -5.55449351221315446 1 
	5.211139825597587816 -0.2140639634101608457 -5.58509400835684211 1.000000000000000222 
	5.206765817422348341 0.2572474535317811895 -5.580670316886678251 0.999999999999999889 
	5.168377807677888569 0.672306361584736889 -5.545918995190781686 1 
	5.106926113709934434 1.035388977708808778 -5.484413843806314581 1 
	5.031498227978514315 1.351659778666656431 -5.397946565882320691 1.000000000000000222 
	4.95161107404448142 1.617525200060090151 -5.28946060608596369 0.999999999999999778 
	4.871845640523654986 1.842138923350910007 -5.156341608347455363 1 
	4.80069330547324391 2.018612717780443155 -5.001358095833428941 1 
	4.746547896161521507 2.141719858626399464 -4.836316789562437712 1 
	4.710495592538592291 2.21926597891052424 -4.659196964489238368 0.999999999999999889 
	4.696063975108147659 2.249384042644087423 -4.480812373242211599 1 
	4.701880639789496108 2.237286627560146623 -4.306392281898580698 1 
	4.728858595476151727 2.180243892448489262 -4.126144955556805272 1.000000000000000222 
	4.778729871654034511 2.069675576856379262 -3.947466990829541889 0.999999999999999778 
	4.845349371003177197 1.910229100679411429 -3.785876750391456547 1 
	4.925922548317727134 1.693975701537829615 -3.639738807837087808 1.000000000000000222 
	5.009083829219028061 1.432164317826869482 -3.520350258466937721 0.999999999999999778 
	5.088441675738944348 1.122411724250014009 -3.425461742939443166 1 
	5.155965588501568497 0.7613115945600310575 -3.355886639432106744 1 
	5.201152478750728392 0.3512139660453141854 -3.314230026377240623 1.000000000000000222 
	5.214330011014629562 -0.119824356985092903 -3.302265212051530785 1 
	5.187536315660867814 -0.4670244073917129146 -3.327148708998735493 1 
	5.166277096854795303 -0.6499461197003828516 -3.346859432509492027 1 
	0.02539999999999999897 
	cone 0 0 -3.048000000000002707 0 0 -1 0 -5.206999999999998963 0 1 I I 0 1 5.206999999999998963 forward I I I I 
	cone 6.222999999999999865 -2.539999999999999591 -4.444999999999999396 0 1 0 0 0 -1.523999999999999799 1 I I 0 1 1.523999999999999799 forward I I I I 
	nullbs 
	nullbs 
	I I 
	0 
	0 
	0 
	} I I #
face $-1 $193 $194 $2 $-1 $195 forward single #
point $-1 5.166277096854795303 -0.6499461197003828516 -3.346859432509492027 #
point $-1 5.154595833106339064 -0.7368790927436927873 -5.53177897300428878 #
ellipse-curve $-1 -5.287437154777307235e-16 0 -5.71499999999999897 0 0 -1 1.166396243913042627e-15 5.206999999999998963 0 1 I I #
face $-1 $196 $197 $2 $-1 $198 forward single #
loop $-1 $-1 $199 $148 #
cone-surface $-1 6.222999999999999865 -2.539999999999999591 -13.96999999999999709 0 1 0 0 0 -1.523999999999999799 1 I I 0 1 1.523999999999999799 forward I I I I #
loop $-1 $-1 $200 $123 #
coedge $-1 $201 $202 $203 $204 forward $149 $-1 #
loop $-1 $125 $205 $151 #
plane-surface $-1 0 0 -17.77999999999999758 0 0 -1 -25.39999999999999858 0 0 forward_v I I I I #
face $-1 $206 $207 $2 $-1 $208 forward single #
loop $-1 $209 $210 $152 #
cone-surface $-1 0 0 -12.57300000000000217 0 0 -1 0 -5.206999999999998963 0 1 I I 0 1 5.206999999999998963 forward I I I I #
loop $-1 $-1 $185 $129 #
coedge $-1 $211 $211 $210 $212 reversed $153 $-1 #
coedge $-1 $158 $155 $160 $190 reversed $130 $-1 #
coedge $-1 $155 $158 $213 $214 reversed $130 $-1 #
coedge $-1 $157 $156 $155 $184 forward $105 $-1 #
edge $-1 $191 0 $215 0.2750000000000000222 $155 $216 forward 7 unknown #
coedge $-1 $213 $213 $157 $186 forward $179 $-1 #
edge $-1 $188 0 $215 3.141592653589793116 $157 $217 forward 7 unknown #
vertex $-1 $159 $218 #
vertex $-1 $214 $219 #
straight-curve $-1 4.444999999999999396 5.443375242740466479e-16 -5.71499999999999897 0 0 -25.39999999999999858 I I #
edge $-1 $187 -1.996305058883699102e-32 $191 3.141592653589793116 $181 $220 forward 7 unknown #
vertex $-1 $190 $221 #
ellipse-curve $-1 -1.762479051592435909e-16 3.524958103184871819e-16 -5.71499999999999897 0 0 1 -4.444999999999999396 -1.441170858866580576e-15 0 1 I I #
face $-1 $222 $223 $2 $-1 $224 forward single #
loop $-1 $140 $225 $165 #
cone-surface $-1 6.222999999999999865 -2.539999999999999591 -4.444999999999999396 0 1 0 0 0 -1.523999999999999799 1 I I 0 1 1.523999999999999799 forward I I I I #
face $-1 $165 $226 $2 $-1 $227 reversed single #
loop $-1 $-1 $228 $169 #
plane-surface $-1 0 2.539999999999999591 0 0 1 0 0 0 -25.39999999999999858 forward_v I I I I #
coedge $-1 $229 $230 $231 $232 forward $170 $-1 #
coedge $-1 $233 $233 $234 $235 forward $172 $-1 #
coedge $-1 $231 $173 $236 $237 reversed $149 $-1 #
coedge $-1 $173 $231 $238 $239 forward $149 $-1 #
coedge $-1 $230 $229 $173 $204 reversed $170 $-1 #
edge $-1 $240 0 $241 0.1999999999999999833 $173 $242 forward 7 unknown #
coedge $-1 $243 $243 $244 $245 forward $174 $-1 #
face $-1 $246 $247 $2 $-1 $248 forward single #
loop $-1 $-1 $249 $176 #
cone-surface $-1 0 0 -12.57300000000000217 0 0 -1 0 -5.206999999999998963 0 1 I I 0 1 5.206999999999998963 forward I I I I #
loop $-1 $-1 $234 $152 #
coedge $-1 $250 $251 $180 $212 forward $177 $-1 #
coedge $-1 $180 $180 $252 $253 forward $153 $-1 #
edge $-1 $254 0 $255 3.141592653589793116 $180 $256 forward 7 unknown #
coedge $-1 $185 $185 $182 $214 forward $179 $-1 #
edge $-1 $215 0 $188 3.141592653589793116 $182 $257 forward 7 unknown #
vertex $-1 $214 $258 #
straight-curve $-1 -4.444999999999999396 0 -5.71499999999999897 0 0 -25.39999999999999858 I I #
ellipse-curve $-1 -1.762479051592435909e-16 1.762479051592435909e-16 -12.69999999999999929 0 0 -1 4.444999999999999396 3.68089619114803057e-16 0 1 I I #
point $-1 4.444999999999999396 5.443375242740466479e-16 -5.71499999999999897 #
point $-1 4.444999999999999396 5.443375242740466479e-16 -12.69999999999999929 #
ellipse-curve $-1 1.762479051592435909e-16 -1.762479051592435909e-16 -5.71499999999999897 0 0 1 4.444999999999999396 7.205854294332902881e-16 0 1 I I #
point $-1 -4.444999999999999396 0 -5.71499999999999897 #
face $-1 $259 $260 $2 $-1 $261 forward single #
loop $-1 $-1 $262 $193 #
cone-surface $-1 6.222999999999999865 -2.539999999999999591 -4.444999999999999396 0 1 0 0 0 -1.523999999999999799 1 I I 0 1 1.523999999999999799 forward I I I I #
coedge $-1 $263 $264 $265 $266 forward $194 $-1 #
loop $-1 $-1 $267 $196 #
plane-surface $-1 0 -2.539999999999999591 0 0 1 0 0 0 -25.39999999999999858 forward_v I I I I #
coedge $-1 $236 $236 $229 $268 forward $197 $-1 #
coedge $-1 $203 $199 $228 $268 reversed $170 $-1 #
coedge $-1 $199 $203 $267 $269 forward $170 $-1 #
coedge $-1 $202 $201 $199 $232 reversed $149 $-1 #
edge $-1 $270 0 $271 0.1999999999999999833 $231 $272 forward 7 unknown #
coedge $-1 $200 $200 $273 $274 forward $172 $-1 #
coedge $-1 $273 $273 $200 $235 reversed $209 $-1 #
edge $-1 $275 0 $276 1 $234 $277 forward 7 unknown #
coedge $-1 $228 $228 $201 $237 forward $197 $-1 #
edge $-1 $271 1.202013117212275126e-16 $241 3.141592653589792228 $236 $278 forward 7 unknown #
coedge $-1 $267 $267 $202 $239 reversed $226 $-1 #
edge $-1 $270 4.625929269271472109e-16 $240 3.14159265358979356 $238 $279 forward 7 unknown #
vertex $-1 $239 $280 #
vertex $-1 $237 $281 #
straight-curve $-1 6.222999999999999865 -2.539999999999999591 -12.44599999999999795 0 25.39999999999999858 0 I I #
coedge $-1 $205 $205 $282 $283 forward $174 $-1 #
coedge $-1 $284 $285 $205 $245 reversed $286 $-1 #
edge $-1 $287 0 $288 3.141592653589793116 $205 $289 forward 7 unknown #
face $-1 $290 $286 $2 $-1 $291 forward single #
loop $-1 $292 $293 $206 #
plane-surface $-1 0 0 -15.23999999999999844 0 0 -1 0 -25.39999999999999858 0 forward_v I I I I #
coedge $-1 $294 $295 $293 $296 forward $207 $-1 #
coedge $-1 $297 $210 $294 $298 reversed $177 $-1 #
coedge $-1 $210 $297 $295 $299 forward $177 $-1 #
coedge $-1 $295 $294 $211 $253 reversed $207 $-1 #
edge $-1 $254 0 $255 3.141592653589793116 $211 $300 forward 7 unknown #
vertex $-1 $253 $301 #
vertex $-1 $253 $302 #
ellipse-curve $-1 0 0 -12.69999999999999929 0 0 -1 0 5.206999999999998963 0 1 I I #
ellipse-curve $-1 -1.762479051592435909e-16 0 -12.69999999999999929 0 0 -1 -4.444999999999999396 0 0 1 I I #
point $-1 -4.444999999999999396 0 -12.69999999999999929 #
face $-1 $-1 $303 $2 $-1 $304 reversed single #
loop $-1 $-1 $305 $222 #
plane-surface $-1 0 2.539999999999999591 0 0 1 0 0 0 -25.39999999999999858 forward_v I I I I #
coedge $-1 $306 $307 $308 $309 forward $223 $-1 #
coedge $-1 $308 $225 $310 $311 reversed $194 $-1 #
coedge $-1 $225 $308 $312 $313 forward $194 $-1 #
coedge $-1 $307 $306 $225 $266 reversed $223 $-1 #
edge $-1 $314 0 $315 0.1999999999999999833 $225 $316 forward 7 unknown #
coedge $-1 $238 $238 $230 $269 reversed $226 $-1 #
edge $-1 $241 1.202013117212273893e-16 $271 3.141592653589792228 $228 $317 forward 7 unknown #
edge $-1 $240 0 $270 3.141592653589793116 $267 $318 forward 7 unknown #
vertex $-1 $239 $319 #
vertex $-1 $237 $320 #
straight-curve $-1 6.222999999999999865 -2.539999999999999591 -15.49399999999999622 0 25.39999999999999858 0 I I #
coedge $-1 $234 $234 $233 $274 reversed $209 $-1 #
edge $-1 $276 0 $275 1 $273 $321 forward 7 unknown #
vertex $-1 $274 $322 #
vertex $-1 $274 $323 #
intcurve-curve $-1 forward { surfintcur full nurbs 3 open 17 
	0 3 0.06397891190993801325 1 0.1274994149628937701 1 0.1905468304293731763 1 0.2531905653906025844 1 
	0.3154224308295526247 1 0.3772322512038428499 1 0.4387693964058014817 1 0.5001041476874894531 1 0.5613965414343853322 1 
	0.6228925139744027062 1 0.684699666356653025 1 0.7468300429359227 1 0.8094346623843311495 1 0.8724992412583645329 1 
	0.9360360401647149775 1 1 3 
	5.167421677015469506 -0.6407824996912960813 -12.87075916922397489 1 
	5.150707440459779463 -0.7686317076668159887 -12.88598505085805002 1 
	5.112567289419029493 -1.009561441904503587 -12.92505653114954178 0.999999999999999778 
	5.036957763455369275 -1.331302728352216302 -13.01013907497474698 1.000000000000000222 
	4.95604363466224207 -1.604322187114941123 -13.11887886585626539 1 
	4.875055114153655111 -1.833766647644655468 -13.25249926024548941 1.000000000000000222 
	4.802807444127832781 -2.013662478237152165 -13.40817049962230278 0.999999999999999778 
	4.747760731994797645 -2.139061583625471386 -13.57396716719798313 1 
	4.711032900080324382 -2.218137447685184505 -13.75194122162283072 1 
	4.69611475236562903 -2.24927811655340415 -13.93055720753085858 1.000000000000000222 
	4.701641061469381988 -2.237789277715128478 -14.1073490133069761 1 
	4.729159172801157496 -2.179620015305497205 -14.2908084277146461 1 
	4.779950038359632281 -2.066908757656191309 -14.47115065465398409 1 
	4.847083823285392334 -1.905865941747741932 -14.63276450298992692 0.999999999999999889 
	4.928481115663980283 -1.686820280276916328 -14.77943491052480773 0.999999999999999889 
	5.013257469667273369 -1.417869842790225876 -14.90035804909744499 1 
	5.094153476429581495 -1.098486864538466667 -14.9953150716420236 1 
	5.1362518304353868 -0.8599402603854152671 -15.03972133641917708 0.999999999999999889 
	5.155098206087428636 -0.7333563155752973461 -15.0572726238429393 1 
	0.02539999999999999897 
	cone 0 0 -12.57300000000000217 0 0 -1 0 -5.206999999999998963 0 1 I I 0 1 5.206999999999998963 forward I I I I 
	cone 6.222999999999999865 -2.539999999999999591 -13.96999999999999709 0 1 0 0 0 -1.523999999999999799 1 I I 0 1 1.523999999999999799 forward I I I I 
	nullbs 
	nullbs 
	I I 
	0 
	0 
	0 
	} I I #
ellipse-curve $-1 6.223000000000000753 2.539999999999999591 -13.97000000000000242 0 1 0 -7.049916206369743637e-16 0 -1.523999999999998467 1 I I #
ellipse-curve $-1 6.222999999999999865 -2.539999999999999591 -13.96999999999999709 0 1 0 7.049916206369743637e-16 0 -1.524000000000004018 1 I I #
point $-1 6.222999999999999865 -2.539999999999999591 -12.44599999999999973 #
point $-1 6.222999999999999865 2.539999999999999591 -12.44599999999999973 #
coedge $-1 $324 $325 $243 $283 reversed $326 $-1 #
edge $-1 $288 0 $287 3.141592653589793116 $243 $327 forward 7 unknown #
coedge $-1 $328 $244 $325 $329 reversed $286 $-1 #
coedge $-1 $244 $328 $324 $330 forward $286 $-1 #
loop $-1 $-1 $285 $246 #
vertex $-1 $283 $331 #
vertex $-1 $283 $332 #
ellipse-curve $-1 0 0 -17.77999999999999758 0 0 -1 4.444999999999999396 0 0 1 I I #
face $-1 $151 $326 $2 $-1 $333 forward single #
cone-surface $-1 0 0 0 0 0 -1 -4.444999999999999396 0 0 1 I I 0 1 4.444999999999999396 forward I I I I #
loop $-1 $-1 $334 $206 #
coedge $-1 $335 $335 $249 $296 reversed $247 $-1 #
coedge $-1 $252 $249 $250 $298 forward $207 $-1 #
coedge $-1 $249 $252 $251 $299 reversed $207 $-1 #
edge $-1 $336 0 $337 3.141592653589793116 $293 $338 forward 7 unknown #
coedge $-1 $251 $250 $335 $339 reversed $177 $-1 #
edge $-1 $337 0 $255 0.0999999999999999778 $250 $340 forward 7 unknown #
edge $-1 $336 0 $254 0.0999999999999999778 $251 $341 forward 7 unknown #
ellipse-curve $-1 0 0 -12.69999999999999929 0 0 1 0 5.206999999999998963 0 1 I I #
point $-1 0 5.206999999999998963 -12.69999999999999929 #
point $-1 0 -5.206999999999998963 -12.69999999999999929 #
loop $-1 $-1 $342 $259 #
plane-surface $-1 0 -2.539999999999999591 0 0 1 0 0 0 -25.39999999999999858 forward_v I I I I #
coedge $-1 $310 $310 $306 $343 forward $260 $-1 #
coedge $-1 $265 $262 $305 $343 reversed $223 $-1 #
coedge $-1 $262 $265 $342 $344 forward $223 $-1 #
coedge $-1 $264 $263 $262 $309 reversed $194 $-1 #
edge $-1 $345 0 $346 0.1999999999999999833 $308 $347 forward 7 unknown #
coedge $-1 $305 $305 $263 $311 forward $260 $-1 #
edge $-1 $346 4.625929269271485914e-16 $315 3.14159265358979356 $310 $348 forward 7 unknown #
coedge $-1 $342 $342 $264 $313 reversed $303 $-1 #
edge $-1 $345 4.625929269271489858e-16 $314 3.14159265358979356 $312 $349 forward 7 unknown #
vertex $-1 $313 $350 #
vertex $-1 $311 $351 #
straight-curve $-1 6.222999999999999865 -2.539999999999999591 -2.920999999999999819 0 25.39999999999999858 0 I I #
ellipse-curve $-1 6.222999999999998977 2.539999999999999591 -13.97000000000000242 0 1 0 7.049916206369743637e-16 0 1.524000000000002686 1 I I #
ellipse-curve $-1 6.222999999999999865 -2.539999999999999591 -13.96999999999999709 0 1 0 0 0 1.523999999999997135 1 I I #
point $-1 6.222999999999999865 -2.539999999999999591 -15.49400000000000155 #
point $-1 6.222999999999999865 2.539999999999999591 -15.49400000000000155 #
intcurve-curve $-1 forward { surfintcur full nurbs 3 open 23 
	0 3 0.04669321513030816329 1 0.09306886747264191129 1 0.1391339332336921641 1 0.1849246652269220248 1 
	0.2304802366785770329 1 0.2758144783606597539 1 0.3209780026335740666 1 0.3659681898085043183 1 0.4107764007621287905 1 
	0.4554663575568316247 1 0.5000692443775576201 1 0.5446456731579032429 1 0.5893072906558129986 1 0.6341105320105526744 1 
	0.6790626476569933123 1 0.7242153759018153947 1 0.7695483451465892077 1 0.8150888143772740957 1 0.8608702279776312416 1 
	0.906914476428665739 1 0.9532839786063130871 1 1 3 
	5.155098206087428636 -0.7333563155752973461 -15.0572726238429393 1 
	5.178996126601689731 -0.5545347378294132046 -15.07975603502097961 1 
	5.211090060819354441 -0.2132092283642069708 -15.11004029873874011 1 
	5.206778458364678563 0.2561370479324490135 -15.10568255458569276 0.999999999999999778 
	5.168659246918203998 0.6699581396638512043 -15.07117867526640431 1 
	5.107509722645609429 1.032469960641767104 -15.01002485493723526 0.999999999999999778 
	5.032300346766219512 1.348681064360396364 -14.92393336407223892 1.000000000000000222 
	4.952474696917811059 1.614902673084341211 -14.81574497081470199 1 
	4.872635438737387581 1.840079668576642513 -14.68284370649128157 1 
	4.801191022547236287 2.017453839833540652 -14.52767602598238383 0.999999999999999778 
	4.746758187087468883 2.141263345740220814 -14.36218738573023579 1.000000000000000222 
	4.710518544255525519 2.219219661533091248 -14.18454456832500732 1.000000000000000222 
	4.696025107506913265 2.249464656585929312 -14.00540545599941744 0.999999999999999778 
	4.701956216843679037 2.23712982798454707 -13.83027545646123713 1.000000000000000222 
	4.729201865297705254 2.179510090438591341 -13.64944945351000527 1.000000000000000222 
	4.779378913776776372 2.068194407134112733 -13.47057881189358497 0.999999999999999778 
	4.846175226768730582 1.908150703342477161 -13.30917548644266724 1.000000000000000222 
	4.926740628931274735 1.691596305602566019 -13.16345407882258556 1 
	5.009683252732834546 1.430027104777351177 -13.0445924065276202 0.999999999999999778 
	5.088720515072930439 1.121040873605645638 -12.9501702248130286 1.000000000000000222 
	5.155927084053550935 0.7612735519870927892 -12.88093460123924139 1 
	5.200934443691557441 0.3533767589011928001 -12.83942163156673821 1 
	5.214322924200248899 -0.1145047264113740054 -12.8272885255243807 0.999999999999999778 
	5.18821864865797977 -0.4592248373573687981 -12.85149954549915563 0.999999999999999889 
	5.167421677015469506 -0.6407824996912960813 -12.87075916922397489 1 
	0.02539999999999999897 
	cone 0 0 -12.57300000000000217 0 0 -1 0 -5.206999999999998963 0 1 I I 0 1 5.206999999999998963 forward I I I I 
	cone 6.222999999999999865 -2.539999999999999591 -13.96999999999999709 0 1 0 0 0 -1.523999999999999799 1 I I 0 1 1.523999999999999799 forward I I I I 
	nullbs 
	nullbs 
	I I 
	0 
	0 
	0 
	} I I #
point $-1 5.167421677015469506 -0.6407824996912960813 -12.87075916922397489 #
point $-1 5.155098206087428636 -0.7333563155752973461 -15.0572726238429393 #
coedge $-1 $352 $282 $285 $330 reversed $326 $-1 #
coedge $-1 $282 $352 $284 $329 forward $326 $-1 #
loop $-1 $-1 $325 $290 #
ellipse-curve $-1 0 0 -17.77999999999999758 0 0 -1 -4.444999999999999396 0 0 1 I I #
coedge $-1 $285 $284 $334 $353 reversed $286 $-1 #
edge $-1 $354 0 $287 0.0999999999999999778 $325 $355 forward 7 unknown #
edge $-1 $356 0 $288 0.0999999999999999778 $324 $357 forward 7 unknown #
point $-1 4.444999999999999396 0 -17.77999999999999758 #
point $-1 -4.444999999999999396 0 -17.77999999999999758 #
cone-surface $-1 0 0 0 0 0 -1 -4.444999999999999396 0 0 1 I I 0 1 4.444999999999999396 forward I I I I #
coedge $-1 $358 $358 $328 $353 forward $292 $-1 #
coedge $-1 $293 $293 $297 $339 forward $247 $-1 #
vertex $-1 $339 $359 #
vertex $-1 $339 $360 #
ellipse-curve $-1 -3.524958103184871819e-16 1.762479051592435909e-16 -15.23999999999999844 0 0 1 9.901483387537989863e-16 5.206999999999998963 0 1 I I #
edge $-1 $336 -5.81909267610358568e-32 $337 3.141592653589793116 $335 $361 forward 7 unknown #
straight-curve $-1 -1.275305056870623609e-15 -5.206999999999998963 -15.23999999999999844 0 0 25.39999999999999858 I I #
straight-curve $-1 6.376525284353118044e-16 5.206999999999998963 -15.23999999999999844 0 0 25.39999999999999858 I I #
coedge $-1 $312 $312 $307 $344 reversed $303 $-1 #
edge $-1 $315 4.625929269271485914e-16 $346 3.14159265358979356 $305 $362 forward 7 unknown #
edge $-1 $314 0 $345 3.141592653589793116 $342 $363 forward 7 unknown #
vertex $-1 $313 $364 #
vertex $-1 $311 $365 #
straight-curve $-1 6.222999999999999865 -2.539999999999999591 -5.968999999999999417 0 25.39999999999999858 0 I I #
ellipse-curve $-1 6.222999999999999865 2.539999999999999591 -4.44499999999999762 0 1 0 7.049916206369743637e-16 0 -1.523999999999999799 1 I I #
ellipse-curve $-1 6.222999999999999865 -2.539999999999999591 -4.444999999999999396 0 1 0 7.049916206369743637e-16 0 -1.523999999999998467 1 I I #
point $-1 6.222999999999999865 -2.539999999999999591 -2.920999999999998042 #
point $-1 6.222999999999999865 2.539999999999999591 -2.920999999999998042 #
coedge $-1 $325 $324 $358 $366 reversed $326 $-1 #
edge $-1 $356 -2.449212707644755009e-16 $354 3.141592653589793116 $328 $367 forward 7 unknown #
vertex $-1 $366 $368 #
straight-curve $-1 4.444999999999999396 5.443375242740466479e-16 -15.23999999999999844 0 0 -25.39999999999999858 I I #
vertex $-1 $366 $369 #
straight-curve $-1 -4.444999999999999396 0 -15.23999999999999844 0 0 -25.39999999999999858 I I #
coedge $-1 $334 $334 $352 $366 forward $292 $-1 #
point $-1 6.376525284353118044e-16 5.206999999999998963 -15.23999999999999844 #
point $-1 0 -5.206999999999998963 -15.23999999999999844 #
ellipse-curve $-1 -5.287437154777307235e-16 0 -15.23999999999999844 0 0 -1 1.166396243913042627e-15 5.206999999999998963 0 1 I I #
ellipse-curve $-1 6.222999999999999865 2.539999999999999591 -4.44499999999999762 0 1 0 -7.049916206369743637e-16 0 1.523999999999999799 1 I I #
ellipse-curve $-1 6.222999999999999865 -2.539999999999999591 -4.444999999999999396 0 1 0 0 0 1.524000000000001354 1 I I #
point $-1 6.222999999999999865 -2.539999999999999591 -5.968999999999997641 #
point $-1 6.222999999999999865 2.539999999999999591 -5.968999999999997641 #
edge $-1 $354 -1.996305058883699102e-32 $356 3.141592653589793116 $352 $370 forward 7 unknown #
ellipse-curve $-1 -1.762479051592435909e-16 3.524958103184871819e-16 -15.23999999999999844 0 0 1 -4.444999999999999396 -1.441170858866580576e-15 0 1 I I #
point $-1 4.444999999999999396 5.443375242740466479e-16 -15.23999999999999844 #
point $-1 -4.444999999999999396 0 -15.23999999999999844 #
ellipse-curve $-1 -1.762479051592435909e-16 -1.762479051592435909e-16 -15.23999999999999844 0 0 1 4.444999999999999396 7.205854294332902881e-16 0 1 I I #
End-of-ACIS-data 