600 0 1 0           
85 GICL ACIS Healer - Source: /gicl/data5/repository/PTC/V18/piping18/manifold.sat - 6 0 18 ACIS 6.0.3 Solaris 24 Sat Apr 13 21:21:42 2002 
1 9.999999999999999547e-07 1.000000000000000036e-10 
body $-1 $1 $-1 $-1 #
lump $-1 $-1 $2 $0 #
shell $-1 $-1 $-1 $3 $-1 $1 #
face $-1 $4 $5 $2 $-1 $6 forward single #
face $-1 $7 $8 $2 $-1 $9 forward single #
loop $-1 $-1 $10 $3 #
sphere-surface $-1 -72.89799999999998192 0 0 13.96999999999999709 1 0 0 0 0 1 forward_v I I I I #
face $-1 $11 $12 $2 $-1 $13 forward single #
loop $-1 $-1 $14 $4 #
cone-surface $-1 37.14749999999999375 0 0 -1 0 0 0 0 13.96999999999999709 1 I I 0 1 13.96999999999999709 forward I I I I #
coedge $-1 $15 $16 $17 $18 forward $5 $-1 #
face $-1 $19 $20 $2 $-1 $13 forward single #
loop $-1 $-1 $21 $7 #
torus-surface $-1 19.81200000000000117 0 0 -1 0 0 11.42999999999999794 2.539999999999999591 0 0 1 forward_v I I I I #
coedge $-1 $22 $23 $24 $25 forward $8 $-1 #
coedge $-1 $16 $10 $26 $27 reversed $5 $-1 #
coedge $-1 $10 $15 $28 $29 forward $5 $-1 #
coedge $-1 $23 $22 $10 $18 reversed $8 $-1 #
edge $-1 $30 -3.141592653589793116 $31 2.449212707644754516e-16 $10 $32 forward 7 unknown #
face $-1 $33 $34 $2 $-1 $9 forward single #
loop $-1 $-1 $35 $11 #
coedge $-1 $24 $36 $37 $38 forward $12 $-1 #
coedge $-1 $17 $14 $39 $40 reversed $8 $-1 #
coedge $-1 $14 $17 $41 $42 forward $8 $-1 #
coedge $-1 $43 $21 $14 $25 reversed $12 $-1 #
edge $-1 $44 -3.141592653589793116 $45 2.449212707644754516e-16 $14 $46 forward 7 unknown #
coedge $-1 $47 $28 $15 $27 forward $48 $-1 #
edge $-1 $49 -1.224606353822377258e-16 $31 1.570796326794896558 $15 $50 forward 7 unknown #
coedge $-1 $26 $47 $16 $29 reversed $48 $-1 #
edge $-1 $49 -8.084210569033162931e-33 $30 1.570796326794896558 $16 $51 forward 7 unknown #
vertex $-1 $29 $52 #
vertex $-1 $27 $53 #
ellipse-curve $-1 -72.89799999999998192 0 0 -1 0 0 0 0 13.96999999999999709 1 I I #
face $-1 $54 $48 $2 $-1 $6 forward single #
loop $-1 $55 $56 $19 #
coedge $-1 $57 $58 $43 $59 forward $20 $-1 #
coedge $-1 $21 $43 $60 $61 forward $12 $-1 #
coedge $-1 $58 $57 $21 $38 reversed $20 $-1 #
edge $-1 $62 1.442415740654731581e-16 $45 1.570796326794899 $37 $63 forward 7 unknown #
coedge $-1 $64 $56 $22 $40 forward $34 $-1 #
edge $-1 $31 0 $45 3.649999999999999467 $22 $65 forward 7 unknown #
coedge $-1 $56 $64 $23 $42 reversed $34 $-1 #
edge $-1 $30 0 $44 3.649999999999999467 $23 $66 forward 7 unknown #
coedge $-1 $36 $24 $35 $59 reversed $12 $-1 #
vertex $-1 $42 $67 #
vertex $-1 $40 $68 #
ellipse-curve $-1 19.81200000000000117 0 0 -1 0 0 0 0 13.96999999999999709 1 I I #
coedge $-1 $28 $26 $56 $69 reversed $48 $-1 #
loop $-1 $-1 $26 $33 #
vertex $-1 $29 $70 #
ellipse-curve $-1 -72.89799999999998192 0 0 6.785729908597710771e-48 1 -2.44921270764475353e-16 -13.96999999999999531 2.095026028385525793e-31 8.553875381449303058e-16 1 I I #
ellipse-curve $-1 -72.89799999999998192 0 0 3.392864954298855385e-48 -1 1.224606353822376765e-16 -13.96999999999999531 -1.047513014192762896e-31 -8.553875381449303058e-16 1 I I #
point $-1 -72.89799999999998192 -1.710775076289860612e-15 -13.96999999999999709 #
point $-1 -72.89799999999998192 3.421550152579721223e-15 13.96999999999999709 #
face $-1 $71 $72 $2 $-1 $73 forward single #
loop $-1 $74 $75 $19 #
coedge $-1 $39 $41 $47 $69 forward $34 $-1 #
coedge $-1 $37 $35 $64 $76 forward $20 $-1 #
coedge $-1 $35 $37 $77 $78 reversed $20 $-1 #
edge $-1 $79 1.442415740654731581e-16 $44 1.570796326794899 $35 $80 forward 7 unknown #
coedge $-1 $77 $77 $36 $61 reversed $81 $-1 #
edge $-1 $79 -3.141592653589792672 $62 0 $60 $82 forward 7 unknown #
vertex $-1 $61 $83 #
ellipse-curve $-1 19.81200000000000117 0 11.42999999999999616 0 -1 0 2.539999999999999147 0 1.409983241273948727e-15 1 I I #
coedge $-1 $41 $39 $57 $76 reversed $34 $-1 #
straight-curve $-1 -72.89799999999998192 3.421550152579721223e-15 13.96999999999999709 25.39999999999999858 0 0 I I #
straight-curve $-1 -72.89799999999998192 -1.710775076289860612e-15 -13.96999999999999709 25.39999999999999858 0 0 I I #
point $-1 19.81199999999999406 -1.710775076289860612e-15 -13.96999999999999709 #
point $-1 19.81199999999999406 3.421550152579721223e-15 13.96999999999999709 #
edge $-1 $30 -3.141592653589793116 $31 -2.449212707644754516e-16 $47 $84 reversed 7 unknown #
point $-1 -86.86799999999998079 -1.047513014192762896e-31 -8.553875381449303058e-16 #
face $-1 $85 $86 $2 $-1 $87 forward single #
loop $-1 $-1 $88 $54 #
cone-surface $-1 -39.70019999999999527 0 8.889999999999998792 0 1 0 4.762499999999999289 0 0 1 I I 0 1 4.762499999999999289 forward I I I I #
loop $-1 $-1 $89 $19 #
coedge $-1 $90 $90 $91 $92 reversed $55 $-1 #
edge $-1 $44 -3.141592653589793116 $45 -2.449212707644754516e-16 $64 $93 reversed 7 unknown #
coedge $-1 $60 $60 $58 $78 forward $81 $-1 #
edge $-1 $79 -3.14159265358979356 $62 -0 $77 $94 reversed 7 unknown #
vertex $-1 $61 $95 #
ellipse-curve $-1 19.81200000000000117 4.115099860162636472e-15 -11.42999999999999616 4.169592358727491181e-15 1 -2.293651549784455417e-15 2.539999999999999147 -1.059076459116782821e-14 -1.409983241273948727e-15 1 I I #
loop $-1 $96 $77 $97 #
ellipse-curve $-1 22.35200000000000031 0 0 -1 0 0 0 -0 11.42999999999999794 1 I I #
point $-1 22.35200000000000031 0 11.42999999999999794 #
ellipse-curve $-1 -72.89799999999998192 0 0 -1 0 0 0 0 13.96999999999999709 1 I I #
face $-1 $98 $99 $2 $-1 $87 forward single #
loop $-1 $-1 $100 $71 #
torus-surface $-1 -39.70019999999999527 24.16049070224483941 8.889999999999998792 0 1 0 4.50849999999999973 0.2540000000000000036 1 0 0 forward_v I I I I #
coedge $-1 $101 $102 $103 $104 reversed $72 $-1 #
coedge $-1 $105 $105 $106 $107 reversed $74 $-1 #
coedge $-1 $75 $75 $108 $109 reversed $55 $-1 #
coedge $-1 $102 $101 $75 $92 forward $72 $-1 #
edge $-1 $110 4.863334401709797028 $111 26.11317577247826449 $75 $112 forward 7 unknown #
ellipse-curve $-1 19.81200000000000117 0 0 -1 0 0 0 0 13.96999999999999709 1 I I #
ellipse-curve $-1 22.35200000000000031 0 0 -1 0 0 0 -0 11.42999999999999794 1 I I #
point $-1 22.35200000000000031 -6.47566473100519253e-15 -11.42999999999999794 #
loop $-1 $-1 $113 $97 #
face $-1 $114 $81 $2 $-1 $115 reversed single #
face $-1 $116 $117 $2 $-1 $73 forward single #
loop $-1 $-1 $118 $85 #
coedge $-1 $103 $119 $120 $121 forward $86 $-1 #
coedge $-1 $91 $88 $122 $123 reversed $72 $-1 #
coedge $-1 $88 $91 $124 $125 forward $72 $-1 #
coedge $-1 $126 $100 $88 $104 forward $86 $-1 #
edge $-1 $127 -3.141592653589792672 $128 0 $88 $129 forward 7 unknown #
coedge $-1 $89 $89 $130 $131 reversed $74 $-1 #
coedge $-1 $132 $133 $89 $107 forward $134 $-1 #
edge $-1 $135 4.587414256505748078 $136 27.24983429847035055 $89 $137 forward 7 unknown #
coedge $-1 $122 $124 $90 $109 forward $117 $-1 #
edge $-1 $111 3.085900463193095078 $110 18.60575384972432289 $90 $138 forward 7 unknown #
vertex $-1 $109 $139 #
vertex $-1 $109 $140 #
intcurve-curve $-1 forward { surfintcur full nubs 3 open 23 
	4.863334401709797028 3 5.815848470743166132 2 6.785398521583377196 2 8.130547890957515733 2 9.475697260331653382 2 
	10.82084662970579103 2 12.16599599907992868 2 12.99656077108345187 2 13.82712554308697506 2 14.65769031509049825 2 
	15.07297270109226162 2 15.48825508709402321 2 15.9035374730957848 2 16.31881985909754817 2 17.14938463110107492 2 
	17.9799494031045981 2 18.81051417510812485 2 20.15566354448226249 2 21.50081291385640014 2 22.84596228323053424 2 
	24.19111165260467189 2 25.16066170344488029 2 26.11317577247826449 3 
	-44.46269979196753752 10.7763071848826435 8.889999867664295508 
	-44.46269218146446178 10.55857961950896673 9.153913570173308756 
	-44.44054582407072473 10.33044072739864205 9.410380771492654617 
	-44.36121079952117441 9.863052157133850528 9.899370160825791132 
	-44.30346516108273391 9.62368844142408264 10.13140340117981175 
	-44.1409576408366533 9.065215549936151973 10.6383690392844823 
	-44.0168568300324381 8.717699219712457648 10.92551499304009432 
	-43.71770635036591557 7.993298605063758444 11.46613862388431926 
	-43.54277097840564181 7.616397228894077998 11.71965663764291143 
	-43.1552440538753217 6.85325949615951302 12.18165366658867832 
	-42.94267823482396551 6.466849542264564654 12.39026632232321212 
	-42.49395247558322097 5.707486613911709306 12.75787752879269377 
	-42.25792893836876374 5.334474022850182351 12.91691941574813995 
	-41.86662885310236959 4.764000911318323261 13.13466903638762773 
	-41.70496215566420517 4.53931560252479116 13.21395638237616055 
	-41.36330113851568058 4.100915872786884186 13.35651595164592464 
	-41.183488662828168 3.88707420547163629 13.41983258745873542 
	-40.80771299056192447 3.499610105544407546 13.52604826452658315 
	-40.61485077180240211 3.327557524976044512 13.56860222014283579 
	-40.30192531071394768 3.127846733579948246 13.61551139165162638 
	-40.19396793880796537 3.071357638454391914 13.62825999422188517 
	-39.962250733610162 2.988335113974313728 13.64670515233995651 
	-39.83862746200058069 2.961442849355691465 13.65249999999999631 
	-39.56177253799940985 2.961442849355692353 13.65249999999999986 
	-39.43814926638982854 2.988335113974311064 13.64670515233995651 
	-39.20643206119201807 3.071357638454390582 13.62825999422188339 
	-39.09847468928604286 3.127846733579946914 13.61551139165162638 
	-38.78554922819758843 3.327557524976049841 13.56860222014283401 
	-38.59268700943805186 3.499610105544423533 13.5260482645265796 
	-38.21691133717181543 3.887074205471657162 13.41983258745873009 
	-38.03709886148429575 4.100915872786900174 13.35651595164591932 
	-37.69543784433577116 4.539315602524803595 13.21395638237615699 
	-37.53377114689760674 4.764000911318321485 13.13466903638763128 
	-37.14247106163121259 5.334474022850182351 12.91691941574813995 
	-36.90644752441676957 5.707486613911711082 12.75787752879269199 
	-36.45772176517602503 6.466849542264568207 12.39026632232320857 
	-36.24515594612466884 6.853259496159519237 12.18165366658867299 
	-35.85762902159434873 7.616397228894083327 11.71965663764290611 
	-35.68269364963406076 7.99329860506376022 11.46613862388431748 
	-35.38354316996753823 8.717699219712459424 10.92551499304009255 
	-35.25944235916333724 9.065215549936151973 10.63836903928448052 
	-35.09693483891725663 9.623688441424079087 10.13140340117981175 
	-35.03918920047881613 9.863052157133848752 9.899370160825792908 
	-34.9598541759292587 10.33044072739864383 9.41038077149265284 
	-34.93770781853553586 10.55857961950897206 9.153913570173298098 
	-34.93770020803246723 10.7763071848826506 8.889999867664284849 
	0.0004610851019864713185 
	cone -39.70019999999999527 0 8.889999999999998792 0 1 0 4.762499999999999289 0 0 1 I I 0 1 4.762499999999999289 forward I I I I 
	cone 37.14749999999999375 0 0 -1 0 0 0 0 13.96999999999999709 1 I I -0 -1 13.96999999999999709 forward I I I I 
	nullbs 
	nullbs 
	I I 
	0 
	0 
	0 
	} I I #
coedge $-1 $141 $141 $142 $143 forward $96 $-1 #
face $-1 $144 $145 $2 $-1 $146 forward single #
plane-surface $-1 22.35200000000000031 0 0 -1 0 0 0 0 25.39999999999999858 forward_v I I I I #
face $-1 $147 $148 $2 $-1 $149 forward single #
loop $-1 $-1 $122 $98 #
coedge $-1 $150 $151 $126 $152 forward $99 $-1 #
coedge $-1 $100 $126 $153 $154 reversed $86 $-1 #
coedge $-1 $151 $150 $100 $121 reversed $99 $-1 #
edge $-1 $155 0 $127 1.570796326794896558 $100 $156 forward 7 unknown #
coedge $-1 $157 $108 $101 $123 forward $117 $-1 #
edge $-1 $110 -5.594824691024410835e-16 $127 0.5269363526362933481 $122 $158 forward 7 unknown #
coedge $-1 $108 $157 $102 $125 reversed $117 $-1 #
edge $-1 $111 -2.09805925913415431e-16 $128 0.5269363526362933481 $124 $159 forward 7 unknown #
coedge $-1 $119 $103 $118 $152 reversed $86 $-1 #
vertex $-1 $160 $161 #
vertex $-1 $125 $162 #
ellipse-curve $-1 -39.70019999999999527 24.16049070224483941 8.889999999999998792 0 1 0 4.762499999999999289 0 0 1 I I #
coedge $-1 $163 $164 $105 $131 forward $165 $-1 #
edge $-1 $136 3.035602889157656747 $135 18.62948840906372538 $105 $166 forward 7 unknown #
coedge $-1 $167 $106 $164 $168 forward $134 $-1 #
coedge $-1 $106 $167 $163 $169 reversed $134 $-1 #
loop $-1 $-1 $132 $170 #
vertex $-1 $131 $171 #
vertex $-1 $131 $172 #
intcurve-curve $-1 forward { surfintcur full nubs 3 open 29 
	4.587414256505748078 3 4.810100224534517466 2 5.785241794756960765 2 6.760383364979404064 2 8.162471341256832602 2 
	9.564559317534262917 2 10.96664729381169323 2 12.36873527008912177 2 13.25620752193885643 2 14.14367977378859109 2 
	14.58741589971345931 2 15.03115202563832753 2 15.47488815156319575 2 15.69675621452562808 2 15.91862427748806219 2 
	16.1404923404504963 2 16.36236040341292863 2 16.80609652933779685 2 17.24983265526266507 2 17.69356878118753329 2 
	18.58104103303726973 2 19.46851328488700617 2 20.87060126116443115 2 22.27268923744185258 2 23.67477721371927757 2 
	25.07686518999670255 2 26.05200676021914319 2 27.02714833044158738 2 27.24983429847035055 3 
	-52.89552777409211615 10.6271141173941146 -9.067786010927584073 
	-52.89551457709771398 10.57520968246543447 -9.128631686343679164 
	-52.89666651417917365 10.52271158881149304 -9.189116126928691841 
	-52.90896878349371946 10.23748975299398367 -9.51197680447234184 
	-52.94067770033315412 9.994997973668676039 -9.766179294887898266 
	-53.03667156469401789 9.504328438479076269 -10.2443146888326595 
	-53.10089555311703435 9.256161102099728311 -10.46827052129751578 
	-53.27920113677833314 8.666310446167212689 -10.96646394865197749 
	-53.41407764319004059 8.294254013738511233 -11.25110319933167524 
	-53.73325590789775674 7.518991625763330688 -11.78332456314541865 
	-53.91744921125899737 7.1157690382881853 -12.03094748434266137 
	-54.32017897611920887 6.29857537611354168 -12.47821333221447659 
	-54.53870893821095933 5.884412908212716786 -12.67798857352470598 
	-54.99385276151598134 5.068161822829886809 -13.02579921662261597 
	-55.23034388517919524 4.666020052721037814 -13.17387047859680038 
	-55.61925471013185529 4.040986681654089807 -13.37520517390334263 
	-55.78013378242794573 3.791274609608906498 -13.44808329469311658 
	-56.11326299271290452 3.302626885339456031 -13.57635308388782747 
	-56.2853140366869269 3.063565028671430213 -13.63178092837957323 
	-56.54817927499610875 2.735242595594556292 -13.70006726902914629 
	-56.63563322834281166 2.632110549645043207 -13.72014576352993664 
	-56.81266843049396442 2.440356468654635957 -13.75554673635551239 
	-56.90216012154446901 2.351653469819392051 -13.77087842549923735 
	-57.08831339026184537 2.192964303004882431 -13.79703860315799346 
	-57.18326965964688924 2.123563035704205237 -13.80776816150051545 
	-57.34196535728928268 2.041210693632057094 -13.82009874918556847 
	-57.39747002106084039 2.017562138928122639 -13.82355449355386412 
	-57.51853108161547823 1.982385299227333419 -13.82864289638231625 
	-57.58404397901252025 1.970711016359254497 -13.83030000000000648 
	-57.73195602098748225 1.970711016359256273 -13.8303000000000047 
	-57.79746891838453138 1.982385299227339415 -13.82864289638231625 
	-57.918529978939155 2.01756213892812708 -13.82355449355386412 
	-57.97403464271071272 2.041210693632062423 -13.82009874918556847 
	-58.13273034035310616 2.123563035704209234 -13.80776816150051545 
	-58.22768660973814292 2.192964303004882431 -13.79703860315799346 
	-58.41383987845551928 2.351653469819389386 -13.77087842549923735 
	-58.50333156950603097 2.440356468654639066 -13.75554673635551239 
	-58.68036677165718373 2.632110549645050757 -13.72014576352993487 
	-58.76782072500388665 2.735242595594571391 -13.70006726902914274 
	-59.0306859633130756 3.063565028671446644 -13.63178092837956967 
	-59.20273700728709798 3.302626885339470686 -13.57635308388782391 
	-59.53586621757206387 3.791274609608921153 -13.44808329469311303 
	-59.69674528986814011 4.040986681654116452 -13.37520517390333374 
	-60.08565611482080726 4.666020052721064459 -13.17387047859678972 
	-60.32214723848402826 5.068161822829917895 -13.02579921662260709 
	-60.77729106178905027 5.884412908212742543 -12.67798857352469533 
	-60.99582102388077942 6.298575376113560331 -12.47821333221446416 
	-61.39855078874100514 7.115769038288199511 -12.03094748434265426 
	-61.58274409210223155 7.518991625763338682 -11.78332456314541332 
	-61.9019223568099477 8.294254013738516562 -11.25110319933166991 
	-62.03679886322165515 8.666310446167223347 -10.96646394865197038 
	-62.21510444688295394 9.25616110209973364 -10.46827052129751046 
	-62.2793284353059704 9.504328438479083374 -10.24431468883265417 
	-62.37532229966683417 9.994997973668681368 -9.766179294887894713 
	-62.40703121650626883 10.23748975299398722 -9.511976804472340064 
	-62.41933348582081464 10.5227115888114966 -9.189116126928690065 
	-62.4204854229022672 10.57520968246543447 -9.128631686343679164 
	-62.42047222590786504 10.6271141173941146 -9.067786010927584073 
	0.0002993383098451844076 
	cone -57.65799999999999415 0 -9.067800000000007188 0 1 0 4.762499999999999289 0 0 1 I I 0 1 4.762499999999999289 forward I I I I 
	cone 37.14749999999999375 0 0 -1 0 0 0 0 13.96999999999999709 1 I I -0 -1 13.96999999999999709 forward I I I I 
	nullbs 
	nullbs 
	I I 
	0 
	0 
	0 
	} I I #
intcurve-curve $-1 forward { surfintcur full nubs 3 open 21 
	3.085900463193095078 3 4.579814610559060029 2 6.106419480745413075 2 6.714212081788863529 2 7.322004682832313094 2 
	7.929797283875763547 2 8.537589884919214001 2 9.114649202804002925 2 9.69170852068879185 2 10.26876783857358078 2 
	10.84582715645837148 2 11.42288647434316218 2 11.9999457922279511 2 12.57700511011274003 2 13.15406442799752895 2 
	13.76185702904097852 2 14.36964963008442631 2 14.97744223112787409 2 15.58523483217132366 2 17.1118397023576776 2 
	18.60575384972432289 3 
	-34.93770070472307054 10.77630666995026409 8.889999442972339239 
	-34.937721714307024 11.10746475590681115 8.488534224057671551 
	-34.98895113310852167 11.41314042344991009 8.071385448858716671 
	-35.21395776646532738 11.96290083135251692 7.232353085075325261 
	-35.39039999282373827 12.205592366883252 6.810633891666540762 
	-35.72893285841118427 12.49285240999682145 6.254701535257750855 
	-35.84023735595771143 12.57243934170213606 6.093053046615279911 
	-36.09098187692092097 12.72112704647895498 5.776197113638124492 
	-36.23044038888798468 12.79024693844896632 5.621013272976874475 
	-36.53163594382230883 12.9149304236933915 5.328299800490563953 
	-36.69351210336036218 12.97057875928029702 5.190658749494423851 
	-37.02996686357359124 13.06774888797291112 4.940930135487473507 
	-37.20454350488633111 13.10930117295627184 4.82885179816166854 
	-37.54420879848318293 13.17755788391011507 4.639235033370828987 
	-37.72304933764898749 13.2076331246937464 4.552559067101483059 
	-38.09886577543912978 13.25916856962794554 4.400206319830650692 
	-38.29584219052449612 13.28065171008897849 4.33453857233543971 
	-38.69731074392689152 13.31442129656861439 4.229671360317762918 
	-38.90196147233532997 13.32673595997209581 4.190432519707949943 
	-39.30722974976309558 13.34269138863012749 4.139348083502878417 
	-39.50784689403840133 13.34633446868464901 4.127499999999999503 
	-39.89255310596158921 13.34633446868464723 4.127499999999999503 
	-40.09317025023689496 13.34269138863012572 4.139348083502879305 
	-40.49843852766465346 13.32673595997209581 4.190432519707948167 
	-40.70308925607309902 13.31442129656861262 4.229671360317764695 
	-41.10455780947549442 13.28065171008897671 4.334538572335441486 
	-41.30153422456086076 13.25916856962794554 4.400206319830653356 
	-41.67735066235100305 13.2076331246937464 4.552559067101485724 
	-41.85619120151680761 13.17755788391011684 4.63923503337082721 
	-42.19585649511365943 13.10930117295627184 4.828851798161664988 
	-42.37043313642637798 13.06774888797291645 4.940930135487461961 
	-42.70688789663962126 12.97057875928030235 5.190658749494411417 
	-42.86876405617768171 12.9149304236933915 5.328299800490563953 
	-43.16995961111200586 12.79024693844896987 5.621013272976872699 
	-43.30941812307906247 12.72112704647895853 5.776197113638116498 
	-43.56016264404227201 12.57243934170214139 6.093053046615271029 
	-43.67146714158880627 12.492852409996825 6.254701535257741085 
	-44.01000000717625227 12.2055923668832591 6.810633891666531881 
	-44.18644223353466316 11.96290083135252047 7.232353085075312826 
	-44.41144886689151861 11.4131404234497893 8.071385448858892531 
	-44.46267828569300207 11.10746475590654114 8.488534224058041033 
	-44.46269929527692 10.77630666994981823 8.889999442972877475 
	0.0002597946641940740214 
	cone -39.70019999999999527 0 8.889999999999998792 0 1 0 4.762499999999999289 0 0 1 I I 0 1 4.762499999999999289 forward I I I I 
	cone 37.14749999999999375 0 0 -1 0 0 0 0 13.96999999999999709 1 I I -0 -1 13.96999999999999709 forward I I I I 
	nullbs 
	nullbs 
	I I 
	0 
	0 
	0 
	} I I #
point $-1 -44.46270000000000522 10.77630734528297474 8.890000000000005898 #
point $-1 -34.93769999999999953 10.77630734528298362 8.889999999999995239 #
coedge $-1 $113 $113 $173 $174 reversed $96 $-1 #
coedge $-1 $175 $176 $113 $143 reversed $145 $-1 #
edge $-1 $177 -3.141592653589793116 $178 2.449212707644754023e-16 $113 $179 forward 7 unknown #
face $-1 $180 $181 $2 $-1 $182 forward single #
loop $-1 $-1 $183 $114 #
cone-surface $-1 37.14749999999999375 0 0 -1 0 0 0 0 5.079999999999999183 1 I I 0 1 5.079999999999999183 forward I I I I #
face $-1 $184 $185 $2 $-1 $186 reversed single #
loop $-1 $187 $153 $116 #
plane-surface $-1 0 24.41449070224484075 0 0 1 0 25.39999999999999858 0 0 forward_v I I I I #
coedge $-1 $120 $118 $157 $160 forward $99 $-1 #
coedge $-1 $118 $120 $188 $189 reversed $99 $-1 #
edge $-1 $190 0 $128 1.570796326794896558 $126 $191 forward 7 unknown #
coedge $-1 $188 $188 $119 $154 forward $148 $-1 #
edge $-1 $155 -1.570796326794896558 $190 1.570796326794896558 $153 $192 forward 7 unknown #
vertex $-1 $189 $193 #
ellipse-curve $-1 -44.20869999999999322 24.16049070224483941 8.889999999999998792 0 0 1 0 0.2540000000000002256 0 1 I I #
coedge $-1 $124 $122 $150 $160 reversed $117 $-1 #
straight-curve $-1 -44.46269999999999811 10.77630734528298895 8.889999999999998792 0 25.39999999999999858 2.675813187341735379e-15 I I #
straight-curve $-1 -34.93769999999999953 10.77630734528298895 8.889999999999998792 0 25.39999999999999858 0 I I #
edge $-1 $128 0 $127 3.14159265358979356 $157 $194 forward 7 unknown #
point $-1 -44.46269999999999811 24.16049070224483941 8.890000000000000568 #
point $-1 -34.93769999999999953 24.16049070224483941 8.889999999999998792 #
coedge $-1 $195 $130 $133 $169 forward $165 $-1 #
coedge $-1 $130 $195 $132 $168 reversed $165 $-1 #
loop $-1 $-1 $163 $196 #
intcurve-curve $-1 forward { surfintcur full nubs 3 open 23 
	3.035602889157656747 3 3.061142288254969035 2 4.591713432382453774 2 6.12228457650993807 2 6.727288096176287979 2 
	7.332291615842638777 2 7.937295135508989574 2 8.542298655175340372 2 9.114860403659175603 2 9.687422152143010834 2 
	10.25998390062684607 2 10.8325456491106813 2 11.40510739759452008 2 11.97766914607835886 2 12.55023089456219765 2 
	13.12279264304603466 2 13.72779616271238368 2 14.33279968237873447 2 14.93780320204508527 2 15.54280672171143429 2 
	17.07337786583892125 2 18.60394900996640999 2 18.62948840906372538 3 
	-62.42049966589060261 10.6271301142694945 -9.067799650918315635 
	-62.42049988464420096 10.63291321016294866 -9.061022616776329031 
	-62.42048553331248684 10.6386887799918668 -9.054241015433230899 
	-62.41871918102715 10.99013041927660694 -8.640765022567652665 
	-62.36428371840278828 11.30914402085113224 -8.217182406609504497 
	-62.13066859557788746 11.87595501436847378 -7.374314722500917796 
	-61.95148544884214914 12.12385484203179686 -6.955099511158700842 
	-61.60991603613513234 12.41712860452983591 -6.403680465681270917 
	-61.49837782892409876 12.49807649887942951 -6.244131427006689883 
	-61.24745924424665589 12.64951827727224654 -5.931338870869620195 
	-61.10805996712116439 12.72003051756600911 -5.778119402883110212 
	-60.80724774533329935 12.84740088465828123 -5.489091942101779864 
	-60.64569666359064826 12.90434375307179948 -5.353175766831800075 
	-60.31009308292286875 13.00389534202244413 -5.106592251218579293 
	-60.13604243227497648 13.04653404453361887 -4.995934500783514309 
	-59.79803444674736568 13.11652865473298668 -4.809053027022115678 
	-59.62041153499913548 13.14737321688895832 -4.723748484165177786 
	-59.24724025668494676 13.20029166282456501 -4.573786424955095242 
	-59.05169124417263049 13.22238776678399219 -4.509138358004543434 
	-58.65319264152511636 13.25714752916409722 -4.405894480445493144 
	-58.45008665719452523 13.26983935887728094 -4.367260404473637614 
	-58.04791708570405007 13.28628683991921733 -4.316964449455109154 
	-57.84885391616128203 13.29004484228702054 -4.305300000000007898 
	-57.46714608383872047 13.29004484228702054 -4.305300000000007898 
	-57.26808291429595954 13.2862868399192191 -4.316964449455106489 
	-56.86591334280549148 13.2698393588772845 -4.367260404473632285 
	-56.66280735847490746 13.257147529164099 -4.405894480445485151 
	-56.26430875582738622 13.22238776678399397 -4.509138358004533664 
	-56.06875974331506285 13.20029166282456501 -4.57378642495508636 
	-55.69558846500085991 13.14737321688895832 -4.723748484165174233 
	-55.51796555325262261 13.11652865473298846 -4.809053027022110349 
	-55.17995756772501181 13.04653404453361887 -4.99593450078350898 
	-55.00590691707711954 13.00389534202244413 -5.106592251218583733 
	-54.67030333640934003 12.90434375307179948 -5.353175766831803628 
	-54.50875225466670315 12.84740088465828478 -5.489091942101772759 
	-54.207940032878831 12.72003051756601266 -5.778119402883106659 
	-54.06854075575333951 12.64951827727224654 -5.931338870869624635 
	-53.81762217107588953 12.49807649887943128 -6.244131427006691659 
	-53.70608396386485595 12.41712860452983946 -6.403680465681262923 
	-53.36451455115782494 12.12385484203179864 -6.955099511158693737 
	-53.18533140442210083 11.87595501436847378 -7.374314722500918684 
	-52.95171628159720001 11.30914402085113402 -8.217182406609504497 
	-52.89728081897283118 10.9901304192766105 -8.640765022567649112 
	-52.89551446668750145 10.63868877999187035 -9.054241015433227346 
	-52.89550011535578733 10.63291321016295221 -9.061022616776325478 
	-52.89550033410938568 10.62713011426949805 -9.067799650918313858 
	0.0002596264488378959381 
	cone -57.65799999999999415 0 -9.067800000000007188 0 1 0 4.762499999999999289 0 0 1 I I 0 1 4.762499999999999289 forward I I I I 
	cone 37.14749999999999375 0 0 -1 0 0 0 0 13.96999999999999709 1 I I -0 -1 13.96999999999999709 forward I I I I 
	nullbs 
	nullbs 
	I I 
	0 
	0 
	0 
	} I I #
coedge $-1 $133 $132 $197 $198 reversed $134 $-1 #
edge $-1 $136 7.286262380446754515e-33 $199 0.5328094558625896537 $132 $200 forward 7 unknown #
edge $-1 $135 -6.993530863780513543e-17 $201 0.5328094558625896537 $133 $202 forward 7 unknown #
face $-1 $196 $134 $2 $-1 $203 forward single #
point $-1 -52.89549999999999841 10.62713052333506525 -9.067800000000005411 #
point $-1 -62.42049999999999699 10.62713052333506525 -9.067800000000005411 #
coedge $-1 $204 $205 $141 $174 forward $206 $-1 #
edge $-1 $177 -3.141592653589793116 $178 -2.449212707644754023e-16 $141 $207 reversed 7 unknown #
coedge $-1 $183 $142 $205 $208 forward $145 $-1 #
coedge $-1 $142 $183 $204 $209 reversed $145 $-1 #
vertex $-1 $174 $210 #
vertex $-1 $174 $211 #
ellipse-curve $-1 22.35200000000000031 0 0 -1 0 0 0 0 5.079999999999999183 1 I I #
face $-1 $212 $206 $2 $-1 $146 forward single #
loop $-1 $213 $214 $144 #
plane-surface $-1 24.89199999999999946 0 0 -1 0 0 0 0 25.39999999999999858 forward_v I I I I #
coedge $-1 $176 $175 $215 $216 forward $145 $-1 #
face $-1 $217 $218 $2 $-1 $186 reversed single #
loop $-1 $-1 $219 $147 #
cone-surface $-1 -39.70019999999999527 0 8.889999999999998792 0 1 0 3.746499999999999719 0 0 1 I I 0 1 3.746499999999999719 forward I I I I #
loop $-1 $-1 $220 $116 #
coedge $-1 $153 $153 $151 $189 forward $148 $-1 #
edge $-1 $190 1.570796326794896558 $155 4.712388980384689674 $188 $221 forward 7 unknown #
vertex $-1 $189 $222 #
ellipse-curve $-1 -35.19169999999999732 24.16049070224483941 8.889999999999998792 0 0 -1 0 0.2540000000000002256 0 1 I I #
ellipse-curve $-1 -39.70019999999999527 24.41449070224484075 8.889999999999998792 0 1 0 0 0 4.50849999999999973 1 I I #
point $-1 -44.20869999999999322 24.41449070224484075 8.889999999999998792 #
ellipse-curve $-1 -39.70019999999999527 24.16049070224483941 8.889999999999998792 0 1 0 4.762499999999999289 0 0 1 I I #
coedge $-1 $164 $163 $223 $224 reversed $165 $-1 #
face $-1 $225 $165 $2 $-1 $203 forward single #
coedge $-1 $226 $227 $167 $198 forward $228 $-1 #
edge $-1 $201 0 $199 3.14159265358979356 $167 $229 forward 7 unknown #
vertex $-1 $198 $230 #
straight-curve $-1 -62.42049999999999699 10.62713052333506525 -9.067800000000007188 0 25.39999999999999858 2.64631797682956284e-15 I I #
vertex $-1 $169 $231 #
straight-curve $-1 -52.89549999999999841 10.62713052333506702 -9.067800000000007188 0 25.39999999999999858 0 I I #
cone-surface $-1 -57.65799999999999415 0 -9.067800000000007188 0 1 0 4.762499999999999289 0 0 1 I I 0 1 4.762499999999999289 forward I I I I #
coedge $-1 $232 $173 $176 $209 forward $206 $-1 #
coedge $-1 $173 $232 $175 $208 reversed $206 $-1 #
loop $-1 $-1 $173 $180 #
ellipse-curve $-1 22.35200000000000031 0 0 -1 0 0 0 0 5.079999999999999183 1 I I #
edge $-1 $177 0 $233 0.0999999999999999778 $175 $234 forward 7 unknown #
edge $-1 $178 0 $235 0.0999999999999999778 $176 $236 forward 7 unknown #
point $-1 22.35200000000000031 -6.221000277417675131e-16 -5.079999999999999183 #
point $-1 22.35200000000000031 1.244200055483535026e-15 5.079999999999999183 #
face $-1 $237 $238 $2 $-1 $239 forward single #
loop $-1 $-1 $240 $144 #
coedge $-1 $215 $215 $232 $241 forward $181 $-1 #
coedge $-1 $214 $214 $183 $216 reversed $181 $-1 #
edge $-1 $233 -3.141592653589793116 $235 -0 $183 $242 reversed 7 unknown #
face $-1 $170 $243 $2 $-1 $244 forward single #
loop $-1 $-1 $245 $184 #
coedge $-1 $246 $247 $248 $249 forward $185 $-1 #
coedge $-1 $250 $250 $246 $251 forward $187 $-1 #
ellipse-curve $-1 -39.70019999999999527 24.41449070224484075 8.889999999999998792 0 1 0 0 0 4.50849999999999973 1 I I #
point $-1 -35.19169999999999732 24.41449070224484075 8.889999999999998792 #
coedge $-1 $252 $253 $195 $224 forward $254 $-1 #
edge $-1 $199 -3.141592653589792672 $201 0 $195 $255 forward 7 unknown #
face $-1 $256 $254 $2 $-1 $257 forward single #
coedge $-1 $258 $197 $253 $259 reversed $228 $-1 #
coedge $-1 $197 $258 $252 $260 forward $228 $-1 #
loop $-1 $-1 $227 $256 #
ellipse-curve $-1 -57.65799999999999415 24.16049070224483941 -9.067800000000007188 0 1 0 4.762499999999999289 0 0 1 I I #
point $-1 -62.42049999999999699 24.16049070224484296 -9.067800000000005411 #
point $-1 -52.89549999999999841 24.16049070224484296 -9.067800000000007188 #
coedge $-1 $205 $204 $214 $241 reversed $206 $-1 #
vertex $-1 $208 $261 #
straight-curve $-1 22.35200000000000031 -6.221000277417675131e-16 -5.079999999999999183 25.39999999999999858 0 0 I I #
vertex $-1 $209 $262 #
straight-curve $-1 22.35200000000000031 1.244200055483535026e-15 5.079999999999999183 25.39999999999999858 0 0 I I #
face $-1 $263 $264 $2 $-1 $265 reversed single #
loop $-1 $-1 $266 $212 #
cone-surface $-1 37.14749999999999375 0 0 -1 0 0 0 0 6.349999999999999645 1 I I 0 1 6.349999999999999645 forward I I I I #
coedge $-1 $267 $267 $268 $269 forward $213 $-1 #
edge $-1 $233 -3.141592653589793116 $235 -0 $214 $270 reversed 7 unknown #
ellipse-curve $-1 24.89199999999999946 0 0 1 -0 -0 0 0 5.079999999999999183 1 I I #
loop $-1 $-1 $271 $217 #
cone-surface $-1 37.14749999999999375 0 0 -1 0 0 0 0 13.96999999999999709 1 I I 0 1 13.96999999999999709 forward I I I I #
coedge $-1 $272 $248 $271 $273 forward $218 $-1 #
coedge $-1 $274 $219 $220 $251 reversed $185 $-1 #
coedge $-1 $219 $274 $275 $276 forward $185 $-1 #
coedge $-1 $245 $277 $219 $249 reversed $218 $-1 #
edge $-1 $278 -4.196118518268308619e-16 $279 0.536936352636293579 $248 $280 forward 7 unknown #
coedge $-1 $220 $220 $277 $281 forward $187 $-1 #
edge $-1 $282 -3.141592653589793116 $279 -0 $220 $283 reversed 7 unknown #
coedge $-1 $284 $223 $227 $260 reversed $254 $-1 #
coedge $-1 $223 $284 $226 $259 forward $254 $-1 #
loop $-1 $-1 $253 $225 #
ellipse-curve $-1 -57.65799999999999415 24.16049070224483941 -9.067800000000007188 0 1 0 4.762499999999999289 0 0 1 I I #
face $-1 $285 $228 $2 $-1 $257 forward single #
torus-surface $-1 -57.65799999999999415 24.16049070224483941 -9.067800000000007188 0 1 0 4.50849999999999973 0.2540000000000000036 1 0 0 forward_v I I I I #
coedge $-1 $227 $226 $286 $287 reversed $228 $-1 #
edge $-1 $288 0 $199 1.570796326794896558 $253 $289 forward 7 unknown #
edge $-1 $290 0 $201 1.570796326794896558 $252 $291 forward 7 unknown #
point $-1 24.89199999999999946 -6.221000277417675131e-16 -5.079999999999999183 #
point $-1 24.89199999999999946 0 5.079999999999999183 #
face $-1 $292 $293 $2 $-1 $239 forward single #
loop $-1 $294 $295 $237 #
plane-surface $-1 31.24199999999999733 0 0 -1 0 0 0 0 25.39999999999999858 forward_v I I I I #
coedge $-1 $296 $297 $295 $298 forward $238 $-1 #
coedge $-1 $240 $240 $299 $300 reversed $213 $-1 #
coedge $-1 $297 $296 $240 $269 reversed $238 $-1 #
edge $-1 $301 -3.141592653589793116 $302 2.449212707644754516e-16 $240 $303 forward 7 unknown #
ellipse-curve $-1 24.89199999999999946 0 0 -1 0 0 0 0 5.079999999999999183 1 I I #
coedge $-1 $275 $275 $245 $273 reversed $243 $-1 #
coedge $-1 $277 $245 $274 $304 forward $218 $-1 #
edge $-1 $278 -21.15857839287696152 $305 -6.17012907414074796 $271 $306 reversed 7 unknown #
coedge $-1 $247 $246 $272 $304 reversed $185 $-1 #
coedge $-1 $271 $271 $247 $276 reversed $243 $-1 #
edge $-1 $305 -15.46563646739139486 $278 -3.127063383397942431 $275 $307 reversed 7 unknown #
coedge $-1 $248 $272 $250 $281 reversed $218 $-1 #
vertex $-1 $276 $308 #
vertex $-1 $281 $309 #
straight-curve $-1 -35.95369999999999777 10.77630734528298539 8.890000000000000568 0 25.39999999999999858 0 I I #
edge $-1 $279 -0 $282 3.141592653589793116 $250 $310 reversed 7 unknown #
vertex $-1 $281 $311 #
ellipse-curve $-1 -39.70019999999999527 24.41449070224484075 8.889999999999998792 0 1 0 3.746499999999999719 0 0 1 I I #
coedge $-1 $253 $252 $312 $313 reversed $254 $-1 #
face $-1 $314 $315 $2 $-1 $316 forward single #
coedge $-1 $312 $312 $258 $287 forward $315 $-1 #
edge $-1 $290 1.570796326794896558 $288 4.712388980384689674 $286 $317 forward 7 unknown #
vertex $-1 $287 $318 #
ellipse-curve $-1 -62.1664999999999992 24.16049070224484296 -9.067800000000007188 0 0 1 0 0.2539999999999973945 0 1 I I #
vertex $-1 $287 $319 #
ellipse-curve $-1 -53.14949999999998909 24.16049070224484296 -9.067800000000007188 0 0 -1 0 0.2539999999999973945 0 1 I I #
face $-1 $320 $321 $2 $-1 $322 reversed single #
loop $-1 $-1 $299 $263 #
loop $-1 $-1 $323 $237 #
coedge $-1 $324 $324 $266 $298 reversed $264 $-1 #
coedge $-1 $268 $266 $325 $326 reversed $238 $-1 #
coedge $-1 $266 $268 $327 $328 forward $238 $-1 #
edge $-1 $329 -3.141592653589793116 $330 -0 $266 $331 reversed 7 unknown #
coedge $-1 $325 $327 $267 $300 forward $293 $-1 #
edge $-1 $301 -3.141592653589793116 $302 -2.449212707644754516e-16 $267 $332 reversed 7 unknown #
vertex $-1 $300 $333 #
vertex $-1 $300 $334 #
ellipse-curve $-1 24.89199999999999946 0 0 -1 0 0 0 0 6.349999999999999645 1 I I #
edge $-1 $305 -2.09805925913415431e-16 $282 0.5369363526362938011 $272 $335 forward 7 unknown #
vertex $-1 $276 $336 #
intcurve-curve $-1 forward { surfintcur full nubs 3 open 17 
	6.17012907414074796 3 7.267080742731582887 2 8.364032411322417815 2 9.460984079913252742 2 10.55793574850408767 2 
	11.33454024475527788 2 12.11114474100646987 2 12.88774923725766186 2 13.66435373350885385 2 14.44095822976004584 2 
	15.21756272601123605 2 15.99416722226242626 2 16.77077171851361825 2 17.86772338710445496 2 18.96467505569528811 2 
	20.06162672428612481 2 21.15857839287696152 3 
	-43.44669999999999277 10.77630734528298007 8.889999999999997016 
	-43.44669999999999277 10.54362062770310615 9.172058895816171287 
	-43.41451662590868921 10.29184844729889825 9.454264296979459914 
	-43.28950688179737938 9.762755758187767086 9.999692888160948812 
	-43.19679658177419412 9.485427462912635832 10.26293512116769335 
	-42.96020059025383375 8.921912572737277003 10.75642340405794961 
	-42.81633717416451645 8.635573362782569262 10.98684174727006813 
	-42.48872643430996732 8.073587173119877392 11.40618292974575709 
	-42.30502825177141801 7.797944240868481813 11.59514958230835546 
	-41.96698855512790516 7.35585448453852031 11.87853879256109835 
	-41.80962984481536182 7.167815284745691962 11.99278028420879316 
	-41.4643379594025987 6.80679450209007797 12.20130745031166875 
	-41.27648378203939217 6.63377627998721664 12.29566048635112097 
	-40.87342929081751208 6.330240684283918284 12.45464989857503291 
	-40.65863497832243212 6.199857460293758393 12.51932333222185889 
	-40.20141843233601975 6.01301225645524795 12.61012977129224311 
	-39.95906816541705808 5.956489549222759194 12.63649999999999807 
	-39.44133183458293246 5.956489549222759194 12.63649999999999807 
	-39.19898156766397079 6.013012256455247062 12.61012977129224311 
	-38.74176502167755842 6.199857460293757505 12.51932333222185889 
	-38.52697070918247846 6.330240684283916508 12.45464989857503291 
	-38.12391621796060548 6.633776279987214863 12.29566048635112097 
	-37.93606204059739184 6.806794502090075305 12.20130745031167052 
	-37.59077015518462161 7.167815284745694626 11.99278028420879316 
	-37.43341144487208538 7.355854484538516758 11.8785387925611019 
	-37.09537174822857253 7.797944240868479149 11.59514958230835724 
	-36.91167356569002322 8.073587173119873839 11.40618292974576065 
	-36.58406282583547409 8.635573362782567486 10.9868417472700699 
	-36.44019940974615679 8.921912572737275227 10.75642340405794961 
	-36.20360341822579642 9.485427462912632279 10.26293512116769691 
	-36.11089311820261116 9.762755758187763533 9.999692888160950588 
	-35.98588337409130133 10.29184844729889647 9.45426429697946169 
	-35.95369999999999777 10.54362062770310615 9.172058895816174839 
	-35.95369999999999777 10.77630734528298007 8.890000000000000568 
	0.0002081572113828495849 
	cone -39.70019999999999527 0 8.889999999999998792 0 1 0 3.746499999999999719 0 0 1 I I 0 1 3.746499999999999719 forward I I I I 
	cone 37.14749999999999375 0 0 -1 0 0 0 0 13.96999999999999709 1 I I -0 -1 13.96999999999999709 forward I I I I 
	nullbs 
	nullbs 
	I I 
	0 
	0 
	0 
	} I I #
intcurve-curve $-1 forward { surfintcur full nubs 3 open 21 
	3.127063383397942431 3 3.929251082263909289 2 5.239001443018545423 2 5.768622688956796196 2 6.298243934895046081 2 
	6.827865180833295966 2 7.357486426771545851 2 7.842202301427326994 2 8.326918176083108136 2 8.811634050738890167 2 
	9.296349925394672198 2 9.7810658000504489 2 10.26578167470622738 2 10.75049754936200586 2 11.23521342401778256 2 
	11.76483466995603422 2 12.29445591589428766 2 12.82407716183254109 2 13.35369840777079276 2 14.66344876852542889 2 
	15.46563646739139486 3 
	-35.95374772727141277 10.77624480195564871 8.889948420393579909 
	-35.95376657992440528 10.95313282430211643 8.67547866246449928 
	-35.97215369845172006 11.12245409668162033 8.457260928270217804 
	-36.07383068302307549 11.54294037037841925 7.88143110886022491 
	-36.19078108792980686 11.778153744990842 7.523010566351320705 
	-36.43769236193320182 12.06660065899892231 7.041602133540637354 
	-36.52179566940847621 12.14854122765294697 6.899242844323210555 
	-36.71588116793870427 12.30368228994077207 6.618610722187867168 
	-36.8258844525762683 12.37689378981302113 6.480358563048662646 
	-37.06774678195555595 12.51063240555884803 6.218249229724515104 
	-37.19973641665120567 12.57124659614308548 6.094281874308166813 
	-37.47791085185433246 12.67824336202636282 5.868445943890317373 
	-37.62409828083652741 12.72464996593058828 5.766591991703830189 
	-37.90665904705402056 12.80012084098605385 5.5969348741167817 
	-38.05344654498496482 12.83313986427247677 5.520576199033485842 
	-38.36344560779833301 12.89019271282433365 5.386016354466889311 
	-38.52665801707625093 12.91424456609674465 5.327824774883093362 
	-38.86050242799525734 12.95227089104076157 5.234702295173093489 
	-39.03129181144318238 12.96627546886270466 5.199731059059244487 
	-39.3703546726270659 12.984469459689997 5.154129943156106286 
	-39.53862804178140067 12.98866073735086424 5.143499999999999517 
	-39.86177195821858277 12.98866073735086246 5.143499999999999517 
	-40.03004532737291754 12.98446945968999877 5.154129943156105398 
	-40.36910818855679395 12.96627546886270643 5.199731059059240934 
	-40.5398975720047261 12.95227089104075979 5.234702295173093489 
	-40.87374198292373251 12.91424456609674465 5.327824774883092473 
	-41.03695439220163621 12.89019271282433543 5.386016354466882206 
	-41.34695345501500441 12.83313986427248032 5.520576199033476961 
	-41.49374095294595577 12.80012084098605563 5.5969348741167817 
	-41.77630171916344892 12.72464996593059006 5.766591991703828413 
	-41.92248914814564387 12.67824336202636637 5.868445943890313821 
	-42.20066358334878487 12.57124659614308371 6.094281874308171254 
	-42.3326532180444417 12.51063240555885159 6.218249229724508886 
	-42.57451554742372224 12.37689378981302113 6.480358563048659981 
	-42.68451883206130049 12.30368228994076674 6.618610722187877826 
	-42.87860433059152854 12.14854122765294164 6.899242844323221213 
	-42.96270763806678872 12.06660065899892231 7.041602133540635577 
	-43.20961891207018368 11.778153744990842 7.523010566351318928 
	-43.32656931697691505 11.54294037037841747 7.881431108860225798 
	-43.42824630154827048 11.12245409668161855 8.45726092827021958 
	-43.44663342007557816 10.95313282430211643 8.675478662464502833 
	-43.44665227272856356 10.77624480195564871 8.889948420393579909 
	0.0002003173264875205447 
	cone -39.70019999999999527 0 8.889999999999998792 0 1 0 3.746499999999999719 0 0 1 I I 0 1 3.746499999999999719 forward I I I I 
	cone 37.14749999999999375 0 0 -1 0 0 0 0 13.96999999999999709 1 I I -0 -1 13.96999999999999709 forward I I I I 
	nullbs 
	nullbs 
	I I 
	0 
	0 
	0 
	} I I #
point $-1 -35.95370000000000488 10.77630734528297474 8.890000000000005898 #
point $-1 -35.95369999999999777 24.41449070224484075 8.889999999999998792 #
ellipse-curve $-1 -39.70019999999999527 24.41449070224484075 8.889999999999998792 0 1 0 3.746499999999999719 0 0 1 I I #
point $-1 -43.44669999999999277 24.41449070224484075 8.889999999999998792 #
coedge $-1 $286 $286 $284 $313 forward $315 $-1 #
edge $-1 $288 -1.570796326794896558 $290 1.570796326794896558 $312 $337 forward 7 unknown #
face $-1 $338 $339 $2 $-1 $340 reversed single #
loop $-1 $341 $312 $285 #
plane-surface $-1 0 24.41449070224484075 0 0 1 0 25.39999999999999858 0 0 forward_v I I I I #
ellipse-curve $-1 -57.65799999999999415 24.41449070224484075 -9.067800000000007188 0 1 0 0 0 4.50849999999999973 1 I I #
point $-1 -62.1664999999999992 24.41449070224484075 -9.067800000000007188 #
point $-1 -53.14949999999998909 24.41449070224484075 -9.067800000000007188 #
face $-1 $342 $343 $2 $-1 $322 reversed single #
loop $-1 $-1 $344 $292 #
cone-surface $-1 31.24199999999999733 0 0 1 0 0 0 0 -4.762499999999999289 1 I I 0 1 4.762499999999999289 forward I I I I #
coedge $-1 $345 $345 $346 $347 reversed $294 $-1 #
coedge $-1 $295 $295 $348 $349 forward $264 $-1 #
coedge $-1 $348 $299 $296 $326 forward $293 $-1 #
edge $-1 $302 0 $330 0.2499999999999999167 $296 $350 forward 7 unknown #
coedge $-1 $299 $348 $297 $328 reversed $293 $-1 #
edge $-1 $301 0 $329 0.2499999999999999167 $297 $351 forward 7 unknown #
vertex $-1 $328 $352 #
vertex $-1 $326 $353 #
ellipse-curve $-1 31.24199999999999733 0 0 1 -0 -0 0 0 6.349999999999999645 1 I I #
ellipse-curve $-1 24.89199999999999946 0 0 -1 0 0 0 0 6.349999999999999645 1 I I #
point $-1 24.89199999999999946 -7.776250346772095392e-16 -6.349999999999999645 #
point $-1 24.89199999999999946 1.555250069354419078e-15 6.349999999999999645 #
straight-curve $-1 -43.44669999999999277 10.77630734528298007 8.889999999999998792 0 25.39999999999999858 0 I I #
point $-1 -43.44669999999999987 10.77630734528297474 8.890000000000005898 #
ellipse-curve $-1 -57.65799999999999415 24.41449070224484075 -9.067800000000007188 0 1 0 0 0 4.50849999999999973 1 I I #
face $-1 $354 $355 $2 $-1 $340 reversed single #
loop $-1 $-1 $356 $314 #
cone-surface $-1 -57.65799999999999415 0 -9.067800000000007188 0 1 0 3.746499999999999719 0 0 1 I I 0 1 3.746499999999999719 forward I I I I #
loop $-1 $-1 $357 $285 #
face $-1 $-1 $358 $2 $-1 $359 forward single #
loop $-1 $-1 $360 $320 #
coedge $-1 $361 $346 $362 $363 forward $321 $-1 #
coedge $-1 $323 $323 $364 $365 reversed $294 $-1 #
coedge $-1 $344 $366 $323 $347 forward $321 $-1 #
edge $-1 $367 -3.141592653589793116 $368 -0 $323 $369 reversed 7 unknown #
coedge $-1 $327 $325 $324 $349 reversed $293 $-1 #
edge $-1 $329 -3.141592653589793116 $330 -0 $324 $370 reversed 7 unknown #
straight-curve $-1 24.89199999999999946 1.555250069354419078e-15 6.349999999999999645 25.39999999999999858 0 0 I I #
straight-curve $-1 24.89199999999999946 -7.776250346772095392e-16 -6.349999999999999645 25.39999999999999858 0 0 I I #
point $-1 31.24199999999999733 -7.776250346772095392e-16 -6.349999999999999645 #
point $-1 31.24199999999999733 0 6.349999999999999645 #
face $-1 $97 $371 $2 $-1 $372 forward single #
loop $-1 $-1 $373 $338 #
coedge $-1 $374 $375 $376 $377 forward $339 $-1 #
coedge $-1 $378 $378 $374 $379 forward $341 $-1 #
loop $-1 $-1 $380 $342 #
plane-surface $-1 21.08199999999999719 0 0 1 0 0 0 0 -25.39999999999999858 forward_v I I I I #
coedge $-1 $381 $364 $366 $382 forward $343 $-1 #
coedge $-1 $366 $344 $380 $383 reversed $321 $-1 #
coedge $-1 $364 $381 $344 $363 reversed $343 $-1 #
edge $-1 $368 0 $384 0.4000000000000000222 $362 $385 forward 7 unknown #
coedge $-1 $360 $362 $345 $365 forward $343 $-1 #
edge $-1 $368 -0 $367 3.141592653589793116 $345 $386 reversed 7 unknown #
coedge $-1 $346 $361 $360 $382 reversed $321 $-1 #
vertex $-1 $365 $387 #
vertex $-1 $365 $388 #
ellipse-curve $-1 31.24199999999999733 0 0 -1 0 0 0 0 -4.762499999999999289 1 I I #
ellipse-curve $-1 31.24199999999999733 0 0 -1 0 0 0 0 6.349999999999999645 1 I I #
loop $-1 $-1 $389 $354 #
cone-surface $-1 37.14749999999999375 0 0 -1 0 0 0 0 13.96999999999999709 1 I I 0 1 13.96999999999999709 forward I I I I #
coedge $-1 $390 $391 $392 $393 forward $355 $-1 #
coedge $-1 $392 $356 $357 $379 reversed $339 $-1 #
coedge $-1 $356 $392 $389 $394 forward $339 $-1 #
coedge $-1 $391 $390 $356 $377 reversed $355 $-1 #
edge $-1 $395 -6.993530863780513543e-17 $396 0.5428094558625895516 $376 $397 forward 7 unknown #
coedge $-1 $357 $357 $390 $398 forward $341 $-1 #
edge $-1 $399 -3.141592653589793116 $396 4.741376856800351491e-16 $357 $400 reversed 7 unknown #
coedge $-1 $401 $401 $361 $383 forward $358 $-1 #
coedge $-1 $362 $360 $401 $402 reversed $343 $-1 #
edge $-1 $367 0 $403 0.4000000000000000222 $360 $404 forward 7 unknown #
edge $-1 $403 -3.141592653589793116 $384 0 $380 $405 forward 7 unknown #
vertex $-1 $402 $406 #
straight-curve $-1 31.24199999999999733 0 -4.762499999999999289 -25.39999999999999858 0 0 I I #
ellipse-curve $-1 31.24199999999999733 0 0 -1 0 0 0 0 -4.762499999999999289 1 I I #
point $-1 31.24199999999999733 0 4.762499999999999289 #
point $-1 31.24199999999999733 0 -4.762499999999999289 #
coedge $-1 $407 $407 $375 $394 reversed $371 $-1 #
coedge $-1 $376 $373 $378 $398 reversed $355 $-1 #
coedge $-1 $373 $376 $407 $408 forward $355 $-1 #
coedge $-1 $375 $374 $373 $393 reversed $339 $-1 #
edge $-1 $409 -6.993530863780513543e-17 $399 0.5428094558625895516 $373 $410 forward 7 unknown #
edge $-1 $409 -20.76789971733132134 $395 -5.498368453952073409 $389 $411 reversed 7 unknown #
vertex $-1 $408 $412 #
vertex $-1 $398 $413 #
straight-curve $-1 -53.91149999999999665 10.62713052333506702 -9.067800000000005411 0 25.39999999999999858 0 I I #
edge $-1 $396 4.741376856800351491e-16 $399 3.141592653589793116 $378 $414 reversed 7 unknown #
vertex $-1 $398 $415 #
ellipse-curve $-1 -57.65799999999999415 24.41449070224484075 -9.067800000000007188 0 1 0 3.746499999999999719 0 0 1 I I #
coedge $-1 $380 $380 $381 $402 forward $358 $-1 #
edge $-1 $384 0 $403 3.141592653589793116 $401 $416 forward 7 unknown #
vertex $-1 $402 $417 #
straight-curve $-1 31.24199999999999733 5.832187760079071298e-16 4.762499999999999289 -25.39999999999999858 0 0 I I #
ellipse-curve $-1 21.08199999999999719 0 0 1 0 0 0 0 -4.762499999999999289 1 I I #
point $-1 21.08199999999999719 0 -4.762499999999999289 #
coedge $-1 $389 $389 $391 $408 reversed $371 $-1 #
edge $-1 $395 -15.47310261861625591 $409 -3.070069048632952047 $407 $418 reversed 7 unknown #
vertex $-1 $408 $419 #
straight-curve $-1 -61.40449999999999875 10.62713052333506702 -9.067800000000007188 0 25.39999999999999858 0 I I #
intcurve-curve $-1 forward { surfintcur full nubs 3 open 19 
	5.498368453952073409 3 5.956785213758319486 2 7.033481462729119116 2 8.110177711699918746 2 9.186873960670720152 2 
	10.26357020964151978 2 10.98096117864144361 2 11.69835214764136566 2 12.41574311664128771 2 13.13313408564121154 2 
	13.85052505464113182 2 14.56791602364105032 2 15.28530699264097059 2 16.00269796164089087 2 17.07939421061168872 2 
	18.15609045958248302 2 19.23278670855327732 2 20.30948295752407518 2 20.76789971733132134 3 
	-53.91154028458022651 10.62710192005798149 -9.067775590225442883 
	-53.9115457273790355 10.52412835921409595 -9.188448583193080665 
	-53.9173494173344352 10.42058558316583294 -9.305672128074228056 
	-53.95277256399263166 10.07643366110547589 -9.682694651233354932 
	-54.00619951521439788 9.817094107425972993 -9.946004972686331769 
	-54.16673442467619992 9.275740307104054949 -10.45270268293091398 
	-54.27373085777204409 8.993715724862781258 -10.69611435677324351 
	-54.53283978561083956 8.423649767744217698 -11.15060116975292814 
	-54.68491983047312033 8.135478280379064842 -11.36181445443634708 
	-55.02434804137145363 7.572302821614666613 -11.74466110658005391 
	-55.21162734193848109 7.297288201540913732 -11.91633986057238381 
	-55.54545763722104113 6.868717988403995278 -12.16638721230044951 
	-55.69428836153097251 6.693025773033539849 -12.26379367546210197 
	-56.01895739104383409 6.355949657903440908 -12.44182997994887963 
	-56.19473035809193107 6.194531077760299986 -12.52251330061038459 
	-56.57056158981316685 5.911511937501781055 -12.65857727372128849 
	-56.7702793635118681 5.790026815085642653 -12.7139908016149441 
	-57.19445389579029637 5.616123322797779593 -12.79176029558001559 
	-57.41886967700003197 5.563687222517072151 -12.81430000000000646 
	-57.89713032299997053 5.563687222517073927 -12.81430000000000646 
	-58.12154610420971323 5.61612332279778137 -12.79176029558001204 
	-58.5457206364881344 5.790026815085645318 -12.71399080161493877 
	-58.74543841018681434 5.911511937501774838 -12.65857727372128849 
	-59.12126964190805012 6.194531077760293769 -12.52251330061038459 
	-59.29704260895616841 6.355949657903445349 -12.44182997994887607 
	-59.62171163846902999 6.693025773033546955 -12.26379367546209842 
	-59.77054236277894717 6.868717988404002384 -12.16638721230044418 
	-60.10437265806150009 7.29728820154091995 -11.91633986057238026 
	-60.29165195862853466 7.572302821614679935 -11.74466110658004503 
	-60.63108016952686796 8.135478280379071947 -11.36181445443634175 
	-60.78316021438914163 8.423649767744215922 -11.15060116975292814 
	-61.0422691422279371 8.993715724862777705 -10.69611435677324351 
	-61.14926557532378837 9.275740307104051396 -10.45270268293091398 
	-61.30980048478559041 9.817094107425965888 -9.946004972686333545 
	-61.36322743600734952 10.07643366110547589 -9.682694651233358485 
	-61.3986505826655673 10.42058558316605676 -9.305672128073986471 
	-61.404454272620967 10.52412835921454715 -9.188448583192570851 
	-61.40445971541975467 10.62710192005865473 -9.067775590224655957 
	0.0001813727204318512309 
	cone -57.65799999999999415 0 -9.067800000000007188 0 1 0 3.746499999999999719 0 0 1 I I 0 1 3.746499999999999719 forward I I I I 
	cone 37.14749999999999375 0 0 -1 0 0 0 0 13.96999999999999709 1 I I -0 -1 13.96999999999999709 forward I I I I 
	nullbs 
	nullbs 
	I I 
	0 
	0 
	0 
	} I I #
point $-1 -53.91149999999999665 10.62713052333506525 -9.067800000000005411 #
point $-1 -53.91149999999999665 24.41449070224484075 -9.067800000000005411 #
ellipse-curve $-1 -57.65799999999999415 24.41449070224484075 -9.067800000000007188 0 1 0 3.746499999999999719 0 0 1 I I #
point $-1 -61.40449999999999875 24.41449070224484075 -9.067800000000007188 #
ellipse-curve $-1 21.08199999999999719 0 0 1 0 0 0 0 -4.762499999999999289 1 I I #
point $-1 21.08199999999999719 0 4.762499999999999289 #
intcurve-curve $-1 forward { surfintcur full nubs 3 open 21 
	3.070069048632952047 3 3.935035233721890346 2 5.246713644962520462 2 5.77313767256557675 2 6.299561700168633038 2 
	6.825985727771689326 2 7.352409755374745615 2 7.832203774937209317 2 8.31199779449967302 2 8.791791814062136723 2 
	9.271585833624600426 2 9.751379853187064128 2 10.23117387274952605 2 10.71096789231198976 2 11.19076191187445346 2 
	11.71718593947750975 2 12.24360996708056426 2 12.77003399468361877 2 13.29645802228667506 2 14.60813643352730651 2 
	15.47310261861625591 3 
	-61.40445677264161617 10.62707552792194754 -9.067753093530727782 
	-61.40442942239013036 10.82201681444626473 -8.839219706184438863 
	-61.38353929507790951 11.00821644759367857 -8.606117045019114897 
	-61.27249600828599085 11.44838087558708217 -8.018189134368379101 
	-61.15219382469075526 11.68773162954026645 -7.662703061199858112 
	-60.90160197108762929 11.98081215240205033 -7.186562518698146107 
	-60.81697787717727977 12.0637063740799384 -7.046497078428286542 
	-60.6222213693018972 12.22081270962180533 -6.770366996799686454 
	-60.51206751358412816 12.29503513582896446 -6.634323346659945386 
	-60.27026107235036534 12.4307515224735603 -6.376405846129740596 
	-60.13847918336225007 12.49233186768961978 -6.254425972573475434 
	-59.86101133567190402 12.6011195782103762 -6.032245445359817104 
	-59.71532260341915332 12.64835029600093641 -5.932059690525274043 
	-59.43444135814349494 12.7250463870944639 -5.765564552320673108 
	-59.28891177893054021 12.75857434973932314 -5.690770206981198953 
	-58.98168680638685402 12.81655978918815819 -5.558945957254487702 
	-58.81999035332280812 12.84103445704696256 -5.501926085215126605 
	-58.4893276343440931 12.87975025837010534 -5.41067367942258759 
	-58.32020679612199388 12.89402122909482529 -5.376402302974224057 
	-57.98450858404892472 12.9125634313043065 -5.331715559920816361 
	-57.81793133985415523 12.91683654421622762 -5.321300000000007913 
	-57.49806866014584728 12.91683654421622762 -5.321300000000007913 
	-57.33149141595106357 12.9125634313043065 -5.331715559920817249 
	-56.99579320387799442 12.89402122909482529 -5.376402302974224945 
	-56.8266723656559094 12.87975025837010712 -5.410673679422583149 
	-56.49600964667719438 12.84103445704696256 -5.501926085215121276 
	-56.33431319361314848 12.81655978918815819 -5.558945957254484149 
	-56.02708822106946229 12.75857434973932314 -5.690770206981193624 
	-55.88155864185650756 12.72504638709446567 -5.765564552320666891 
	-55.60067739658084918 12.64835029600093819 -5.932059690525266049 
	-55.45498866432811269 12.60111957821038686 -6.032245445359802893 
	-55.17752081663775954 12.49233186768963044 -6.254425972573458559 
	-55.04573892764963716 12.43075152247356741 -6.376405846129731714 
	-54.80393248641588144 12.29503513582897156 -6.634323346659932064 
	-54.6937786306981053 12.22081270962181243 -6.770366996799671355 
	-54.49902212282272274 12.0637063740799455 -7.04649707842827322 
	-54.41439802891237321 11.98081215240205566 -7.186562518698136337 
	-54.16380617530924724 11.68773162954027356 -7.662703061199847454 
	-54.04350399171399744 11.4483808755870875 -8.018189134368368443 
	-53.93246070492207878 11.00821644759368212 -8.606117045019107792 
	-53.91157057760985793 10.82201681444626651 -8.839219706184437086 
	-53.91154322735837212 10.62707552792194932 -9.067753093530729558 
	0.0002003109738822190752 
	cone -57.65799999999999415 0 -9.067800000000007188 0 1 0 3.746499999999999719 0 0 1 I I 0 1 3.746499999999999719 forward I I I I 
	cone 37.14749999999999375 0 0 -1 0 0 0 0 13.96999999999999709 1 I I -0 -1 13.96999999999999709 forward I I I I 
	nullbs 
	nullbs 
	I I 
	0 
	0 
	0 
	} I I #
point $-1 -61.40449999999999875 10.62713052333506525 -9.067800000000005411 #
End-of-ACIS-data 