600 0 1 0           
92 GICL Pro/E ACIS Translator - Source: f:/data5/repository/PTC/V18/piping18/manifold.prt - 6 0 13 ACIS 6.0.3 NT 24 Thu Apr 04 09:58:04 2002 
1 9.9999999999999995e-007 1e-010 
body $-1 $1 $-1 $2 #
lump $-1 $-1 $3 $0 #
transform $-1 1 0 0 0 1 0 0 0 1 0 0 0 25.399999999999999 no_rotate no_reflect no_shear #
shell $-1 $-1 $-1 $4 $-1 $1 #
face $-1 $5 $6 $3 $-1 $7 forward single #
face $-1 $8 $9 $3 $-1 $10 forward single #
loop $-1 $-1 $11 $4 #
sphere-surface $-1 -2.8699999999999997 0 0 0.54999999999999993 1 0 0 0 0 1 forward_v I I I I #
face $-1 $12 $13 $3 $-1 $14 forward single #
loop $-1 $-1 $15 $5 #
cone-surface $-1 1.4624999999999999 0 0 -1 0 0 0 0 0.54999999999999993 1 I I 0 1 0.54999999999999993 forward I I I I #
coedge $-1 $16 $17 $18 $19 forward $6 $-1 #
face $-1 $20 $21 $3 $-1 $22 forward single #
loop $-1 $-1 $23 $8 #
torus-surface $-1 0.78000000000000003 0 0 -1 0 0 0.44999999999999996 0.099999999999999992 0 0 1 forward_v I I I I #
coedge $-1 $24 $25 $26 $27 forward $9 $-1 #
coedge $-1 $17 $11 $28 $29 reversed $6 $-1 #
coedge $-1 $11 $16 $30 $31 forward $6 $-1 #
coedge $-1 $25 $24 $11 $19 reversed $9 $-1 #
edge $-1 $32 0 $33 3.1415926535897931 $11 $34 forward 7 unknown #
face $-1 $35 $36 $3 $-1 $37 forward single #
loop $-1 $-1 $38 $12 #
torus-surface $-1 0.78000000000000003 0 0 -1 0 0 0.44999999999999996 0.099999999999999992 0 0 1 forward_v I I I I #
coedge $-1 $26 $39 $40 $41 forward $13 $-1 #
coedge $-1 $18 $15 $42 $43 reversed $9 $-1 #
coedge $-1 $15 $18 $44 $45 forward $9 $-1 #
coedge $-1 $46 $23 $15 $27 reversed $13 $-1 #
edge $-1 $47 -2.0373473791864978e-032 $48 3.1415926535897931 $15 $49 forward 7 unknown #
coedge $-1 $50 $30 $16 $29 forward $51 $-1 #
edge $-1 $52 -1.2246063538223773e-016 $33 1.5707963267948966 $16 $53 forward 7 unknown #
coedge $-1 $28 $50 $17 $31 reversed $51 $-1 #
edge $-1 $52 0 $32 1.5707963267948966 $17 $54 forward 7 unknown #
vertex $-1 $31 $55 #
vertex $-1 $29 $56 #
ellipse-curve $-1 -2.8699999999999997 0 0 -1 0 0 0 -6.7353349460230739e-017 -0.54999999999999993 1 I I #
face $-1 $57 $51 $3 $-1 $58 forward single #
loop $-1 $59 $60 $20 #
cone-surface $-1 1.4624999999999999 0 0 -1 0 0 0 0 0.54999999999999993 1 I I 0 1 0.54999999999999993 forward I I I I #
coedge $-1 $61 $62 $46 $63 forward $21 $-1 #
coedge $-1 $23 $46 $64 $65 forward $13 $-1 #
coedge $-1 $62 $61 $23 $41 reversed $21 $-1 #
edge $-1 $66 0 $48 1.5707963267948983 $40 $67 forward 7 unknown #
coedge $-1 $68 $60 $24 $43 forward $36 $-1 #
edge $-1 $33 0 $48 3.6499999999999995 $24 $69 forward 7 unknown #
coedge $-1 $60 $68 $25 $45 reversed $36 $-1 #
edge $-1 $32 0 $47 3.6499999999999995 $25 $70 forward 7 unknown #
coedge $-1 $39 $26 $38 $63 reversed $13 $-1 #
vertex $-1 $45 $71 #
vertex $-1 $43 $72 #
ellipse-curve $-1 0.7799999999999998 0 0 -1 0 0 0 -6.7353349460230752e-017 -0.54999999999999993 1 I I #
coedge $-1 $30 $28 $60 $73 reversed $51 $-1 #
loop $-1 $-1 $28 $35 #
vertex $-1 $31 $74 #
ellipse-curve $-1 -2.8699999999999997 0 0 6.7857299085977108e-048 1 -2.4492127076447535e-016 -0.54999999999999982 8.2481339700217554e-033 3.367667473011537e-017 1 I I #
ellipse-curve $-1 -2.8699999999999997 0 0 3.3928649542988554e-048 -1 1.2246063538223768e-016 -0.54999999999999982 -4.1240669850108777e-033 -3.367667473011537e-017 1 I I #
point $-1 -2.8699999999999997 -6.7353349460230739e-017 -0.54999999999999993 #
point $-1 -2.8699999999999997 1.3470669892046148e-016 0.54999999999999993 #
face $-1 $75 $76 $3 $-1 $77 forward single #
sphere-surface $-1 -2.8699999999999997 0 0 0.54999999999999993 1 0 0 0 0 1 forward_v I I I I #
loop $-1 $78 $79 $20 #
coedge $-1 $42 $44 $50 $73 forward $36 $-1 #
coedge $-1 $40 $38 $68 $80 forward $21 $-1 #
coedge $-1 $38 $40 $81 $82 reversed $21 $-1 #
edge $-1 $83 -7.7037197775489478e-032 $47 1.5707963267948983 $38 $84 forward 7 unknown #
coedge $-1 $81 $81 $39 $65 reversed $85 $-1 #
edge $-1 $83 0 $66 3.1415926535897927 $64 $86 forward 7 unknown #
vertex $-1 $65 $87 #
ellipse-curve $-1 0.78000000000000003 0 0.4499999999999999 0 -1 0 0.099999999999999978 0 5.5511151231257827e-017 1 I I #
coedge $-1 $44 $42 $61 $80 reversed $36 $-1 #
straight-curve $-1 -2.8699999999999997 1.3470669892046148e-016 0.54999999999999993 1 0 0 I I #
straight-curve $-1 -2.8699999999999997 -6.7353349460230739e-017 -0.54999999999999993 1 0 0 I I #
point $-1 0.7799999999999998 -6.7353349460230739e-017 -0.54999999999999993 #
point $-1 0.7799999999999998 1.3470669892046148e-016 0.54999999999999993 #
edge $-1 $32 0 $33 3.1415926535897931 $50 $88 forward 7 unknown #
point $-1 -3.4199999999999995 -4.1240669850108777e-033 -3.367667473011537e-017 #
face $-1 $89 $90 $3 $-1 $91 forward single #
loop $-1 $-1 $92 $57 #
cone-surface $-1 -1.5629999999999999 0 0.34999999999999998 0 1 0 0.1875 0 0 1 I I 0 1 0.1875 forward I I I I #
loop $-1 $-1 $93 $20 #
coedge $-1 $94 $94 $95 $96 reversed $59 $-1 #
edge $-1 $47 2.0373473791864978e-032 $48 3.1415926535897931 $68 $97 forward 7 unknown #
coedge $-1 $64 $64 $62 $82 forward $85 $-1 #
edge $-1 $83 -4.4408920985006262e-016 $66 3.1415926535897931 $81 $98 forward 7 unknown #
vertex $-1 $65 $99 #
ellipse-curve $-1 0.78000000000000003 1.6201180551821403e-016 -0.4499999999999999 4.1695923587274912e-015 1 -2.2936515497844554e-015 0.099999999999999978 -4.1695923587274918e-016 -5.5511151231257827e-017 1 I I #
loop $-1 $100 $81 $101 #
ellipse-curve $-1 0.88 0 0 -1 0 0 0 -2.5494743035453514e-016 -0.44999999999999996 1 I I #
point $-1 0.88 0 0.44999999999999996 #
ellipse-curve $-1 -2.8699999999999997 0 0 1 0 0 0 -6.7353349460230739e-017 -0.54999999999999993 1 I I #
face $-1 $102 $103 $3 $-1 $104 forward single #
loop $-1 $-1 $105 $75 #
torus-surface $-1 -1.5629999999999999 0.95120042134822214 0.34999999999999998 0 1 0 0.17749999999999999 0.01 1 0 0 forward_v I I I I #
coedge $-1 $106 $107 $108 $109 reversed $76 $-1 #
coedge $-1 $110 $110 $111 $112 reversed $78 $-1 #
coedge $-1 $79 $79 $113 $114 reversed $59 $-1 #
coedge $-1 $107 $106 $79 $96 forward $76 $-1 #
edge $-1 $115 0 $116 1 $79 $117 forward 7 unknown #
ellipse-curve $-1 0.7799999999999998 0 0 1 0 0 0 -6.7353349460230752e-017 -0.54999999999999993 1 I I #
ellipse-curve $-1 0.88 1.3877787807814457e-017 0 1 0 0 0 -6.8985073729821431e-017 -0.44999999999999996 1 I I #
point $-1 0.88 -2.5494743035453514e-016 -0.44999999999999996 #
loop $-1 $-1 $118 $101 #
face $-1 $119 $85 $3 $-1 $120 reversed single #
face $-1 $121 $122 $3 $-1 $123 forward single #
loop $-1 $-1 $124 $89 #
torus-surface $-1 -1.5629999999999999 0.95120042134822214 0.34999999999999998 0 1 0 0.17749999999999999 0.01 1 0 0 forward_v I I I I #
coedge $-1 $108 $125 $126 $127 forward $90 $-1 #
coedge $-1 $95 $92 $128 $129 reversed $76 $-1 #
coedge $-1 $92 $95 $130 $131 forward $76 $-1 #
coedge $-1 $132 $105 $92 $109 forward $90 $-1 #
edge $-1 $133 2.9605947323337506e-016 $134 3.1415926535897931 $92 $135 forward 7 unknown #
coedge $-1 $93 $93 $136 $137 reversed $78 $-1 #
coedge $-1 $138 $139 $93 $112 forward $140 $-1 #
edge $-1 $141 0 $142 1 $93 $143 forward 7 unknown #
coedge $-1 $128 $130 $94 $114 forward $122 $-1 #
edge $-1 $116 0 $115 1 $94 $144 forward 7 unknown #
vertex $-1 $114 $145 #
vertex $-1 $114 $146 #
intcurve-curve $-1 forward { surfintcur full nurbs 3 open 31 
	0 3 0.034192500708478325 1 0.068237656588827439 1 0.10211983117497436 1 0.13584075274729662 1 
	0.16942030962478513 1 0.20286823111956909 1 0.23620154651489431 1 0.26943595716105423 1 0.30258891309456137 1 
	0.33567890337945444 1 0.36870956205184874 1 0.40166492049037261 1 0.43455629880198826 1 0.46739660839614422 1 
	0.50020376247904452 1 0.53302842775744086 1 0.56588996890605203 1 0.59876860513887953 1 0.63168514065877746 1 
	0.66465656858181021 1 0.69769715142663769 1 0.73082095063363517 1 0.76404039492181097 1 0.79736414139316536 1 
	0.83079412854370338 1 0.8643417313086218 1 0.89802284093900686 1 0.93186054447015076 1 0.96585733363451642 1 
	1 3 
	-1.7505000000000002 0.42426406871192818 0.35000000000000026 1 
	-1.7501423413111232 0.41271175693568474 0.36378028647397942 1.0000000000000002 
	-1.7476721778417961 0.38976762597002701 0.38918003697734982 1.0000000000000002 
	-1.737461351376929 0.35500851425738894 0.42083766370996784 1 
	-1.7246192252352313 0.3222332721473295 0.44628465448663174 1.0000000000000002 
	-1.7105040764022221 0.29198271833910655 0.46651215783215022 1 
	-1.6959653160093946 0.26415877679808603 0.4827247589950126 1 
	-1.6815991482951897 0.23897390058036155 0.49560642429780516 0.99999999999999989 
	-1.6675788105217813 0.21616823840768271 0.50592061821592149 1.0000000000000004 
	-1.6539695870140145 0.19558134800855692 0.51419177346011558 0.99999999999999967 
	-1.6406664956026633 0.1769677829360343 0.52086373654960916 1.0000000000000002 
	-1.6273773693015805 0.16002654777254724 0.52629500626904957 0.99999999999999989 
	-1.6138554692524085 0.14483826508104186 0.53065152120732562 0.99999999999999978 
	-1.6004978419100757 0.1323390105072858 0.53388175367648028 1.0000000000000002 
	-1.5867701616060117 0.12265244850624452 0.53616983684879493 1 
	-1.5722221856534828 0.11675885399715576 0.53746633119642961 1.0000000000000002 
	-1.5575042209632712 0.11607711285357608 0.53761118332988156 0.99999999999999978 
	-1.5429486806738217 0.12069081964536423 0.53660991472160136 1.0000000000000002 
	-1.529198980938316 0.12943753725929097 0.53458415135043036 1 
	-1.5169720107756202 0.14010452941450743 0.53190036181891309 1 
	-1.5050836917847932 0.15256818352014875 0.52847604767919043 1 
	-1.4932051459972573 0.1667751256909365 0.52418458674993074 1.0000000000000002 
	-1.4810356494141439 0.18284345657229006 0.51882265697013019 0.99999999999999978 
	-1.4683912555240728 0.20095955715132202 0.51210958571461074 1.0000000000000002 
	-1.4551938580856103 0.22128837657665743 0.50370103566988811 0.99999999999999978 
	-1.4414818935686966 0.24395132928488217 0.49317374051966695 1 
	-1.4275541178387128 0.26875030957048024 0.48017311511939309 1.0000000000000002 
	-1.4136284530930556 0.29581515215908338 0.46407120937119517 0.99999999999999967 
	-1.4001492731836152 0.32516086013147921 0.44412800299016897 1.0000000000000002 
	-1.3879035905129142 0.3569550180923915 0.41914843306282284 1.0000000000000002 
	-1.378188826893016 0.39067761527839179 0.3882085799462045 0.99999999999999978 
	-1.3758387914556602 0.41300849782655813 0.36343082081611583 1 
	-1.3755000000000002 0.42426406871192851 0.34999999999999987 1 
	0.001 
	cone 1.4624999999999999 0 0 -1 0 0 0 0 0.54999999999999993 1 I I 0 1 0.54999999999999993 forward I I I I 
	cone -1.5629999999999999 0 0.34999999999999998 0 1 0 0.1875 0 0 1 I I 0 1 0.1875 forward I I I I 
	nullbs 
	nullbs 
	I I 
	0 
	0 
	0 
	} I I #
coedge $-1 $147 $147 $148 $149 forward $100 $-1 #
face $-1 $150 $151 $3 $-1 $152 forward single #
plane-surface $-1 0.88 0 0 -1 0 0 0 0 1 forward_v I I I I #
face $-1 $153 $154 $3 $-1 $155 forward single #
loop $-1 $-1 $128 $102 #
cone-surface $-1 -1.5629999999999999 0 0.34999999999999998 0 1 0 0.1875 0 0 1 I I 0 1 0.1875 forward I I I I #
coedge $-1 $156 $157 $132 $158 forward $103 $-1 #
coedge $-1 $105 $132 $159 $160 reversed $90 $-1 #
coedge $-1 $157 $156 $105 $127 reversed $103 $-1 #
edge $-1 $161 0 $133 1.5707963267948966 $105 $162 forward 7 unknown #
coedge $-1 $163 $113 $106 $129 forward $122 $-1 #
edge $-1 $115 -5.5511151231257827e-016 $133 0.52693635263629335 $128 $164 forward 7 unknown #
coedge $-1 $113 $163 $107 $131 reversed $122 $-1 #
edge $-1 $116 -2.2204460492503131e-016 $134 0.52693635263629335 $130 $165 forward 7 unknown #
coedge $-1 $125 $108 $124 $158 reversed $90 $-1 #
vertex $-1 $166 $167 #
vertex $-1 $131 $168 #
ellipse-curve $-1 -1.5629999999999999 0.95120042134822214 0.34999999999999998 0 1 0 -0.1875 0 0 1 I I #
coedge $-1 $169 $170 $110 $137 forward $171 $-1 #
edge $-1 $142 0 $141 1 $110 $172 forward 7 unknown #
coedge $-1 $173 $111 $170 $174 forward $140 $-1 #
coedge $-1 $111 $173 $169 $175 reversed $140 $-1 #
loop $-1 $-1 $138 $176 #
vertex $-1 $137 $177 #
vertex $-1 $137 $178 #
intcurve-curve $-1 forward { surfintcur full nurbs 3 open 37 
	0 3 0.028571109311636506 1 0.056995878088214665 1 0.085272818083627855 1 0.11341753647243846 1 
	0.14145114986907265 1 0.16938593718338812 1 0.19723559208220445 1 0.22500920238882732 1 0.25271641244499293 1 
	0.28036726768839898 1 0.30797215494654412 1 0.33553880128840891 1 0.36306691477200986 1 0.39055720436361113 1 
	0.41801192386242159 1 0.44542210302304763 1 0.47279464170602714 1 0.50014365031162922 1 0.52750358525874474 1 
	0.55488047756702374 1 0.58228045665991335 1 0.6097110641060407 1 0.6371789458617706 1 0.66468990661696192 1 
	0.69224688890565067 1 0.71984820451542575 1 0.74749218253969474 1 0.7751917175397246 1 0.80295630281242536 1 
	0.83079387572112773 1 0.858711902133108 1 0.88672256766200386 1 0.91483842321630293 1 0.94308291941425471 1 
	0.97147023844809655 1 1 3 
	-2.0825 0.41839096548563254 -0.35700000000000021 1 
	-2.0828949362445446 0.40643326968912724 -0.3707534081907255 1 
	-2.0853046821283137 0.38293429976259585 -0.39591278272505404 1 
	-2.0950837037226262 0.34815030764178062 -0.42648749785553602 0.99999999999999978 
	-2.1069595469508551 0.31595253153249747 -0.45072002996819621 1 
	-2.1198252042741972 0.28637996783854852 -0.469947001405077 0.99999999999999978 
	-2.1329048829845654 0.25922218527877572 -0.48537688835133674 1.0000000000000002 
	-2.1457310086624921 0.23448497562996404 -0.49773808030322031 0.99999999999999989 
	-2.1581429565153529 0.2118727983279354 -0.50773172829887825 1.0000000000000002 
	-2.1699987723248069 0.19129614925970312 -0.51580160358477789 1 
	-2.1812937553437997 0.17254651713204816 -0.52234655902706073 0.99999999999999978 
	-2.1920895076139573 0.15541078514839712 -0.52767864042304446 1.0000000000000002 
	-2.2025203402424633 0.13964870081809314 -0.53205270679844185 1 
	-2.2127609267046826 0.12506559349213436 -0.53565552417028861 1 
	-2.222811115481345 0.11182903817034506 -0.53856138366690376 0.99999999999999956 
	-2.2327445824745493 0.10007754942951536 -0.54085712691863619 1 
	-2.2429361378610242 0.08988489944971155 -0.5426313537893428 1 
	-2.2531701932814103 0.082147079955147959 -0.54384272099851338 1 
	-2.2640033634404984 0.077521374877533217 -0.54451049171394028 1 
	-2.2748912949003635 0.077299959195981829 -0.54454136722744584 1.0000000000000002 
	-2.2855372831601235 0.081437328311363147 -0.54394730745670827 0.99999999999999978 
	-2.2950898670388931 0.088262743701840618 -0.54289058353932074 1 
	-2.3041416634212322 0.096809166972917526 -0.54144030303371549 1 
	-2.3130785649794121 0.10683083550103525 -0.53956177367905322 0.99999999999999989 
	-2.3221731891502784 0.11827354987825812 -0.53718058706128491 1.0000000000000002 
	-2.331610585845481 0.13118896677722597 -0.53418647958907917 1 
	-2.3414717450621754 0.14559042232858019 -0.53045779326809916 0.99999999999999989 
	-2.3517202835032553 0.16137618780990468 -0.52588477549080748 1.0000000000000002 
	-2.3622238675577303 0.1783082381833728 -0.52040587461202037 1 
	-2.3732550768555987 0.19686122895448357 -0.51370153260495344 0.99999999999999978 
	-2.3848217194978636 0.21718174541442042 -0.50548020836528484 1.0000000000000002 
	-2.3968927786737959 0.23943848043514682 -0.49536835137416091 1.0000000000000002 
	-2.4093051082694505 0.26367910639843201 -0.48295996958683135 1.0000000000000002 
	-2.4218849851188917 0.29015597640519908 -0.46760739152704178 1 
	-2.4341923835379049 0.31886810025951312 -0.44863690733857181 1.0000000000000002 
	-2.4455414291676116 0.35015938172920374 -0.42480478111881481 0.99999999999999978 
	-2.4548398818729114 0.38391206608214729 -0.39490531367091708 0.99999999999999978 
	-2.4571289531067135 0.40676012364682601 -0.37038541267127295 1 
	-2.4575 0.41839096548563254 -0.35700000000000021 1 
	0.001 
	cone 1.4624999999999999 0 0 -1 0 0 0 0 0.54999999999999993 1 I I 0 1 0.54999999999999993 forward I I I I 
	cone -2.27 0 -0.35700000000000032 0 1 0 0.1875 0 0 1 I I 0 1 0.1875 forward I I I I 
	nullbs 
	nullbs 
	I I 
	0 
	0 
	0 
	} I I #
intcurve-curve $-1 forward { surfintcur full nurbs 3 open 15 
	0 3 0.072357744236219795 1 0.14431365365766932 1 0.21580903685850641 1 0.28696698633119488 1 
	0.35802413050159965 1 0.42900477491648592 1 0.50000430396301032 1 0.57100091267527497 1 0.64198168365194686 1 
	0.71304344453678548 1 0.78420259418692506 1 0.85568696127150035 1 0.92763576920930257 1 1 3 
	-1.3755000000000002 0.42426406871192851 0.34999999999999987 1 
	-1.3755159289823145 0.43620422500856948 0.33524025969338622 1 
	-1.3788156041867046 0.45764179775958602 0.30666302837754578 1.0000000000000002 
	-1.3941035138494773 0.48278350680159882 0.26469372202828501 0.99999999999999978 
	-1.4177377611199988 0.50043942818230991 0.2290630831045895 1 
	-1.4472743823447489 0.51235782131231644 0.20056880281281886 1.0000000000000002 
	-1.482786881713307 0.52021364316319052 0.17885883733405089 0.99999999999999989 
	-1.5215823968325619 0.52450164422680456 0.16559557126716345 1.0000000000000004 
	-1.5630500139966115 0.52591966098850251 0.16094861608958469 0.99999999999999989 
	-1.6044622229490324 0.52449736861783469 0.16560923243708839 1 
	-1.6432576318171039 0.52020760062581883 0.17887679261663697 1 
	-1.6788087585124805 0.51233650597476421 0.20062677202587295 1 
	-1.7083427709280883 0.50039128674300781 0.22916705574542737 1 
	-1.73188330667433 0.48277937860978015 0.2646926398491774 0.99999999999999978 
	-1.7471722151796611 0.45768829165897068 0.30659589293115508 1 
	-1.7504762585815163 0.43622673536112583 0.3352068599526612 1 
	-1.7505000000000002 0.42426406871192818 0.35000000000000026 1 
	0.001 
	cone 1.4624999999999999 0 0 -1 0 0 0 0 0.54999999999999993 1 I I 0 1 0.54999999999999993 forward I I I I 
	cone -1.5629999999999999 0 0.34999999999999998 0 1 0 0.1875 0 0 1 I I 0 1 0.1875 forward I I I I 
	nullbs 
	nullbs 
	I I 
	0 
	0 
	0 
	} I I #
point $-1 -1.7505000000000002 0.42426406871192818 0.35000000000000026 #
point $-1 -1.3755000000000002 0.42426406871192851 0.34999999999999987 #
coedge $-1 $118 $118 $179 $180 reversed $100 $-1 #
coedge $-1 $181 $182 $118 $149 reversed $151 $-1 #
edge $-1 $183 0 $184 3.1415926535897931 $118 $185 forward 7 unknown #
face $-1 $186 $187 $3 $-1 $188 forward single #
loop $-1 $-1 $189 $119 #
cone-surface $-1 1.4624999999999999 0 0 -1 0 0 0 0 0.19999999999999998 1 I I 0 1 0.19999999999999998 forward I I I I #
face $-1 $190 $191 $3 $-1 $192 reversed single #
loop $-1 $193 $159 $121 #
plane-surface $-1 0 0.96120042134822214 0 0 1 0 1 0 0 forward_v I I I I #
coedge $-1 $126 $124 $163 $166 forward $103 $-1 #
coedge $-1 $124 $126 $194 $195 reversed $103 $-1 #
edge $-1 $196 0 $134 1.5707963267948966 $132 $197 forward 7 unknown #
coedge $-1 $194 $194 $125 $160 forward $154 $-1 #
edge $-1 $161 0 $196 3.1415926535897944 $159 $198 forward 7 unknown #
vertex $-1 $195 $199 #
ellipse-curve $-1 -1.7404999999999999 0.95120042134822214 0.34999999999999998 0 0 1 0 0.010000000000000009 0 1 I I #
coedge $-1 $130 $128 $156 $166 reversed $122 $-1 #
straight-curve $-1 -1.7504999999999999 0.42426406871192873 0.34999999999999998 0 1 1.0534697587959589e-016 I I #
straight-curve $-1 -1.3754999999999999 0.42426406871192873 0.34999999999999998 0 1 0 I I #
edge $-1 $134 0 $133 3.1415926535897931 $163 $200 forward 7 unknown #
point $-1 -1.7504999999999999 0.95120042134822214 0.35000000000000003 #
point $-1 -1.3754999999999999 0.95120042134822214 0.34999999999999998 #
coedge $-1 $201 $136 $139 $175 forward $171 $-1 #
coedge $-1 $136 $201 $138 $174 reversed $171 $-1 #
loop $-1 $-1 $169 $202 #
intcurve-curve $-1 forward { surfintcur full nurbs 3 open 15 
	0 3 0.072319045969273771 1 0.14427216333605311 1 0.21578188744912166 1 0.28695845189391134 1 
	0.35805877363265404 1 0.42906708441873043 1 0.49999250095843539 1 0.57091709846462957 1 0.64193104508357701 1 
	0.71304008768821658 1 0.78422144971198671 1 0.85572136464701731 1 0.92766987179354454 1 1 3 
	-2.4575 0.41839096548563254 -0.35700000000000021 1 
	-2.4575141301798058 0.43052388609570708 -0.34251853638993174 1 
	-2.4542966606868379 0.45239594776579384 -0.31434869152304912 1 
	-2.439313730905968 0.47842613106706433 -0.27252139139385911 0.99999999999999989 
	-2.4157960068429229 0.49688691550987873 -0.23669422710174953 1 
	-2.3862639281418292 0.50941330142875185 -0.20795714738262241 1 
	-2.350305150081236 0.51776921002457021 -0.18583081007402266 1.0000000000000002 
	-2.310817835302005 0.52228389056446134 -0.17246033029840305 1.0000000000000002 
	-2.2700671849126626 0.52369995256924617 -0.16802990290495939 1 
	-2.2293470624281171 0.52229580246372009 -0.17242371184730149 1 
	-2.1897830023600795 0.51778663105186484 -0.18578208680360966 1 
	-2.1537407863714102 0.50942058788368227 -0.20794325919496753 1 
	-2.1241668636740285 0.49686292744417915 -0.23674367774835225 1 
	-2.1007277551219725 0.47845503297370928 -0.2724620000914903 0.99999999999999978 
	-2.0857207497529582 0.45247154999491396 -0.3142445685449044 1.0000000000000002 
	-2.0824944514991652 0.4305583361827201 -0.34247082858921651 1 
	-2.0825 0.41839096548563254 -0.35700000000000021 1 
	0.001 
	cone 1.4624999999999999 0 0 -1 0 0 0 0 0.54999999999999993 1 I I 0 1 0.54999999999999993 forward I I I I 
	cone -2.27 0 -0.35700000000000032 0 1 0 0.1875 0 0 1 I I 0 1 0.1875 forward I I I I 
	nullbs 
	nullbs 
	I I 
	0 
	0 
	0 
	} I I #
coedge $-1 $139 $138 $203 $204 reversed $140 $-1 #
edge $-1 $142 5.5511151231257839e-017 $205 0.53280945586258976 $138 $206 forward 7 unknown #
edge $-1 $141 -5.5511151231257827e-017 $207 0.53280945586258965 $139 $208 forward 7 unknown #
face $-1 $202 $140 $3 $-1 $209 forward single #
point $-1 -2.0825 0.41839096548563254 -0.35700000000000021 #
point $-1 -2.4575 0.41839096548563254 -0.35700000000000021 #
coedge $-1 $210 $211 $147 $180 forward $212 $-1 #
edge $-1 $183 0 $184 3.1415926535897931 $147 $213 forward 7 unknown #
coedge $-1 $189 $148 $211 $214 forward $151 $-1 #
coedge $-1 $148 $189 $210 $215 reversed $151 $-1 #
vertex $-1 $180 $216 #
vertex $-1 $180 $217 #
ellipse-curve $-1 0.88 6.9388939039072284e-018 -6.9388939039072284e-018 -1 -8.7238607949665585e-032 -5.5511151231257827e-016 1.1102230246251565e-016 -3.1431020980354771e-017 -0.19999999999999998 1 I I #
face $-1 $218 $212 $3 $-1 $219 forward single #
loop $-1 $220 $221 $150 #
plane-surface $-1 0.97999999999999998 0 0 -1 0 0 0 0 1 forward_v I I I I #
coedge $-1 $182 $181 $222 $223 forward $151 $-1 #
face $-1 $224 $225 $3 $-1 $226 reversed single #
loop $-1 $-1 $227 $153 #
cone-surface $-1 -1.5629999999999999 0 0.34999999999999998 0 1 0 0.14749999999999999 0 0 1 I I 0 1 0.14749999999999999 forward I I I I #
loop $-1 $-1 $228 $121 #
coedge $-1 $159 $159 $157 $195 forward $154 $-1 #
edge $-1 $196 0 $161 3.1415926535897944 $194 $229 forward 7 unknown #
vertex $-1 $195 $230 #
ellipse-curve $-1 -1.3855 0.95120042134822214 0.34999999999999998 0 0 -1 0 0.010000000000000009 0 1 I I #
ellipse-curve $-1 -1.5629999999999999 0.96120042134822214 0.35000000000000009 0 1 0 -0.17749999999999999 0 -1.1102230246251565e-016 1 I I #
point $-1 -1.7404999999999999 0.96120042134822214 0.34999999999999998 #
ellipse-curve $-1 -1.5629999999999999 0.95120042134822214 0.34999999999999998 0 1 0 0.1875 0 0 1 I I #
coedge $-1 $170 $169 $231 $232 reversed $171 $-1 #
face $-1 $233 $171 $3 $-1 $234 forward single #
coedge $-1 $235 $236 $173 $204 forward $237 $-1 #
edge $-1 $207 0 $205 3.1415926535897931 $173 $238 forward 7 unknown #
vertex $-1 $204 $239 #
straight-curve $-1 -2.4575 0.41839096548563248 -0.35700000000000032 0 1 1.0418574711927413e-016 I I #
vertex $-1 $175 $240 #
straight-curve $-1 -2.0825 0.41839096548563259 -0.35700000000000032 0 1 0 I I #
cone-surface $-1 -2.27 0 -0.35700000000000032 0 1 0 0.1875 0 0 1 I I 0 1 0.1875 forward I I I I #
coedge $-1 $241 $179 $182 $215 forward $212 $-1 #
coedge $-1 $179 $241 $181 $214 reversed $212 $-1 #
loop $-1 $-1 $179 $186 #
ellipse-curve $-1 0.88 -6.9388939039072284e-018 0 1 4.8720009061920857e-032 5.5511151231257827e-016 1.1102230246251565e-016 -1.7553233172540314e-017 -0.19999999999999998 1 I I #
edge $-1 $183 0 $242 0.099999999999999867 $181 $243 forward 7 unknown #
edge $-1 $184 0 $244 0.099999999999999867 $182 $245 forward 7 unknown #
point $-1 0.88000000000000012 -2.4492127076447543e-017 -0.19999999999999998 #
point $-1 0.88000000000000012 4.8984254152895085e-017 0.19999999999999998 #
face $-1 $246 $247 $3 $-1 $248 forward single #
cone-surface $-1 1.4624999999999999 0 0 -1 0 0 0 0 0.19999999999999998 1 I I 0 1 0.19999999999999998 forward I I I I #
loop $-1 $-1 $249 $150 #
coedge $-1 $222 $222 $241 $250 forward $187 $-1 #
coedge $-1 $221 $221 $189 $223 reversed $187 $-1 #
edge $-1 $242 1.224606353822377e-016 $244 3.1415926535897931 $189 $251 forward 7 unknown #
face $-1 $176 $252 $3 $-1 $253 forward single #
loop $-1 $-1 $254 $190 #
cone-surface $-1 -1.5629999999999999 0 0.34999999999999998 0 1 0 0.14749999999999999 0 0 1 I I 0 1 0.14749999999999999 forward I I I I #
coedge $-1 $255 $256 $257 $258 forward $191 $-1 #
coedge $-1 $259 $259 $255 $260 forward $193 $-1 #
ellipse-curve $-1 -1.5629999999999999 0.96120042134822214 0.34999999999999987 0 1 0 0.17749999999999999 0 1.1102230246251565e-016 1 I I #
point $-1 -1.3855 0.96120042134822214 0.34999999999999998 #
coedge $-1 $261 $262 $201 $232 forward $263 $-1 #
edge $-1 $205 2.9605947323337506e-016 $207 3.1415926535897931 $201 $264 forward 7 unknown #
face $-1 $265 $263 $3 $-1 $266 forward single #
cone-surface $-1 -2.27 0 -0.35700000000000032 0 1 0 0.1875 0 0 1 I I 0 1 0.1875 forward I I I I #
coedge $-1 $267 $203 $262 $268 reversed $237 $-1 #
coedge $-1 $203 $267 $261 $269 forward $237 $-1 #
loop $-1 $-1 $236 $265 #
ellipse-curve $-1 -2.27 0.95120042134822225 -0.35700000000000032 0 1 0 0.1875 0 0 1 I I #
point $-1 -2.4575 0.95120042134822225 -0.35700000000000026 #
point $-1 -2.0825 0.95120042134822225 -0.35700000000000032 #
coedge $-1 $211 $210 $221 $250 reversed $212 $-1 #
vertex $-1 $214 $270 #
straight-curve $-1 0.88000000000000012 -2.4492127076447543e-017 -0.19999999999999998 1 0 0 I I #
vertex $-1 $215 $271 #
straight-curve $-1 0.88000000000000012 4.8984254152895085e-017 0.19999999999999998 1 0 0 I I #
face $-1 $272 $273 $3 $-1 $274 reversed single #
loop $-1 $-1 $275 $218 #
cone-surface $-1 1.4624999999999999 0 0 -1 0 0 0 0 0.25 1 I I 0 1 0.25 forward I I I I #
coedge $-1 $276 $276 $277 $278 forward $220 $-1 #
edge $-1 $242 -1.224606353822377e-016 $244 3.1415926535897931 $221 $279 forward 7 unknown #
ellipse-curve $-1 0.97999999999999998 0 1.3877787807814457e-017 -1 0 0 0 0 -0.20000000000000001 1 I I #
loop $-1 $-1 $280 $224 #
cone-surface $-1 1.4624999999999999 0 0 -1 0 0 0 0 0.54999999999999993 1 I I 0 1 0.54999999999999993 forward I I I I #
coedge $-1 $281 $257 $280 $282 forward $225 $-1 #
coedge $-1 $283 $227 $228 $260 reversed $191 $-1 #
coedge $-1 $227 $283 $284 $285 forward $191 $-1 #
coedge $-1 $254 $286 $227 $258 reversed $225 $-1 #
edge $-1 $287 -3.8857805861880479e-016 $288 0.53693635263629358 $257 $289 forward 7 unknown #
coedge $-1 $228 $228 $286 $290 forward $193 $-1 #
edge $-1 $291 0 $288 3.1415926535897931 $228 $292 forward 7 unknown #
coedge $-1 $293 $231 $236 $269 reversed $263 $-1 #
coedge $-1 $231 $293 $235 $268 forward $263 $-1 #
loop $-1 $-1 $262 $233 #
ellipse-curve $-1 -2.27 0.95120042134822225 -0.35700000000000032 0 1 0 -0.1875 0 0 1 I I #
face $-1 $294 $237 $3 $-1 $295 forward single #
torus-surface $-1 -2.27 0.95120042134822214 -0.35700000000000032 0 1 0 0.17750000000000021 0.01 1 0 0 forward_v I I I I #
coedge $-1 $236 $235 $296 $297 reversed $237 $-1 #
edge $-1 $298 0 $205 1.5707963267948966 $262 $299 forward 7 unknown #
edge $-1 $300 0 $207 1.5707963267948966 $261 $301 forward 7 unknown #
point $-1 0.97999999999999998 -2.4492127076447543e-017 -0.19999999999999998 #
point $-1 0.97999999999999998 0 0.19999999999999998 #
face $-1 $302 $303 $3 $-1 $304 forward single #
loop $-1 $305 $306 $246 #
plane-surface $-1 1.23 0 0 -1 0 0 0 0 1 forward_v I I I I #
coedge $-1 $307 $308 $306 $309 forward $247 $-1 #
coedge $-1 $249 $249 $310 $311 reversed $220 $-1 #
coedge $-1 $308 $307 $249 $278 reversed $247 $-1 #
edge $-1 $312 0 $313 3.1415926535897931 $249 $314 forward 7 unknown #
ellipse-curve $-1 0.97999999999999998 0 1.3877787807814457e-017 1 0 0 0 0 -0.20000000000000001 1 I I #
coedge $-1 $284 $284 $254 $282 reversed $252 $-1 #
coedge $-1 $286 $254 $283 $315 forward $225 $-1 #
edge $-1 $287 0 $316 1 $280 $317 forward 7 unknown #
coedge $-1 $256 $255 $281 $315 reversed $191 $-1 #
coedge $-1 $280 $280 $256 $285 reversed $252 $-1 #
edge $-1 $316 0 $287 1 $284 $318 forward 7 unknown #
coedge $-1 $257 $281 $259 $290 reversed $225 $-1 #
vertex $-1 $285 $319 #
vertex $-1 $290 $320 #
straight-curve $-1 -1.4155 0.42426406871192857 0.35000000000000003 0 1 0 I I #
edge $-1 $288 0 $291 3.1415926535897931 $259 $321 forward 7 unknown #
vertex $-1 $290 $322 #
ellipse-curve $-1 -1.5629999999999999 0.96120042134822214 0.34999999999999998 0 -1 0 -0.14749999999999996 0 0 1 I I #
coedge $-1 $262 $261 $323 $324 reversed $263 $-1 #
face $-1 $325 $326 $3 $-1 $327 forward single #
torus-surface $-1 -2.27 0.95120042134822214 -0.35700000000000032 0 1 0 0.17750000000000021 0.01 1 0 0 forward_v I I I I #
coedge $-1 $323 $323 $267 $297 forward $326 $-1 #
edge $-1 $300 0 $298 3.1415926535897931 $296 $328 forward 7 unknown #
vertex $-1 $297 $329 #
ellipse-curve $-1 -2.4475000000000002 0.95120042134822225 -0.35700000000000032 0 0 1 0 0.0099999999999998979 0 1 I I #
vertex $-1 $297 $330 #
ellipse-curve $-1 -2.0924999999999998 0.95120042134822225 -0.35700000000000032 0 0 -1 0 0.0099999999999998979 0 1 I I #
face $-1 $331 $332 $3 $-1 $333 reversed single #
loop $-1 $-1 $310 $272 #
cone-surface $-1 1.4624999999999999 0 0 -1 0 0 0 0 0.25 1 I I 0 1 0.25 forward I I I I #
loop $-1 $-1 $334 $246 #
coedge $-1 $335 $335 $275 $309 reversed $273 $-1 #
coedge $-1 $277 $275 $336 $337 reversed $247 $-1 #
coedge $-1 $275 $277 $338 $339 forward $247 $-1 #
edge $-1 $340 1.2246063538223773e-016 $341 3.1415926535897931 $275 $342 forward 7 unknown #
coedge $-1 $336 $338 $276 $311 forward $303 $-1 #
edge $-1 $312 0 $313 3.1415926535897931 $276 $343 forward 7 unknown #
vertex $-1 $311 $344 #
vertex $-1 $311 $345 #
ellipse-curve $-1 0.97999999999999998 -6.9388939039072284e-018 -6.9388939039072284e-018 -1 0 0 0 -2.3676264941652203e-017 -0.25 1 I I #
edge $-1 $316 -1.6653345369377348e-016 $291 0.5369363526362938 $281 $346 forward 7 unknown #
vertex $-1 $285 $347 #
intcurve-curve $-1 forward { surfintcur full nurbs 3 open 20 
	0 3 0.053571879135446226 1 0.10703310325407084 1 0.16027383993316408 1 0.21321726217813197 1 
	0.26586309950348769 1 0.31822532021373967 1 0.37032462047642895 1 0.42225772624209057 1 0.47402639691145648 1 
	0.52571798390904823 1 0.57749629032920224 1 0.62944506369856934 1 0.68155883170545706 1 0.73394390971784174 1 
	0.78661596551069568 1 0.83957936513599019 1 0.89284877190235501 1 0.94635433810575909 1 1 3 
	-1.4155000000000002 0.42426406871192818 0.35000000000000026 1 
	-1.4157033760865476 0.41477720910814209 0.36140774225826472 1 
	-1.417990170061572 0.39565061616346492 0.38287329211840943 0.99999999999999978 
	-1.4279234131199754 0.36563478006910166 0.4114955435958883 1 
	-1.4416486058746441 0.33693249759373278 0.43517568710583243 1.0000000000000002 
	-1.4575665949305563 0.31087464752219285 0.45403615364778738 0.99999999999999989 
	-1.4747082423739752 0.28793031060045798 0.46883142119123056 0.99999999999999989 
	-1.4926820327031312 0.2684135226336069 0.480194314269696 1 
	-1.5109205911264267 0.25289303200482849 0.4884914968496098 1.0000000000000002 
	-1.5306992255527059 0.24100977449587957 0.49441824297365511 0.99999999999999978 
	-1.5511204754813728 0.23451808611386563 0.49749741136336195 1 
	-1.5717132923745707 0.23402139858035112 0.49772866553808903 1 
	-1.5925783082867175 0.23975433899098963 0.49502391939165663 1.0000000000000002 
	-1.6129057947759513 0.25130374292674817 0.48930798684813748 0.99999999999999978 
	-1.6315342462930156 0.26668128928376994 0.48115714111796826 1.0000000000000002 
	-1.6499372563570975 0.28627333308738095 0.46984781710674145 1 
	-1.6674580099232805 0.30942096623215665 0.45503063555123607 1.0000000000000002 
	-1.683637950106716 0.3356098267520678 0.43620098814153702 0.99999999999999978 
	-1.6976605231222801 0.3645872402132373 0.41243290007403033 0.99999999999999978 
	-1.7078943420979384 0.39500256242777138 0.38357315929416602 1.0000000000000002 
	-1.7102709339345425 0.41453947967129151 0.3616785299677302 1 
	-1.7105000000000001 0.42426406871192818 0.35000000000000026 1 
	0.001 
	cone -1.5629999999999999 0 0.34999999999999998 0 1 0 0.14749999999999999 0 0 1 I I 0 1 0.14749999999999999 forward I I I I 
	cone 1.4624999999999999 0 0 -1 0 0 0 0 0.54999999999999993 1 I I 0 1 0.54999999999999993 forward I I I I 
	nullbs 
	nullbs 
	I I 
	0 
	0 
	0 
	} I I #
intcurve-curve $-1 forward { surfintcur full nurbs 3 open 14 
	0 3 0.077916144786541838 1 0.15538449355048189 1 0.2323323228442925 1 0.3089770650257509 1 
	0.38553337068422061 1 0.46189796074575745 1 0.53809580906794618 1 0.61447425809970546 1 0.69103232061203301 1 
	0.76766862010639891 1 0.84462499553170212 1 0.9221019340915414 1 1 3 
	-1.7105000000000001 0.42426406871192818 0.35000000000000026 1 
	-1.7104707020120873 0.43437066717920741 0.33754107582777176 1 
	-1.7075167390021242 0.45264209489014412 0.31355198034495024 1 
	-1.6938342753851099 0.47465577852540874 0.27866017993190234 1 
	-1.6729457111626047 0.4903814114635347 0.24961543901114822 1 
	-1.6462650887954084 0.50134610389325251 0.22651453875868299 0.99999999999999989 
	-1.6140290678008002 0.50836090966397485 0.21005744349868985 1 
	-1.5797643319958079 0.51150085301111448 0.20215825728877343 1.0000000000000002 
	-1.5463001409125312 0.51150688804073086 0.20214278389223933 1.0000000000000002 
	-1.5118979980170246 0.5083543923640601 0.21007476763933572 0.99999999999999978 
	-1.479670542889777 0.5013218898043138 0.22656697593849018 1 
	-1.4530715010987885 0.4903885903089209 0.2495998224549647 1 
	-1.4321249719136961 0.47463069525417095 0.27871033927498967 1 
	-1.4184570047043239 0.45254923009027909 0.31368234864885791 1.0000000000000002 
	-1.4155175847056263 0.43432900747726128 0.33759942314758362 1 
	-1.4155000000000002 0.42426406871192818 0.35000000000000026 1 
	0.001 
	cone -1.5629999999999999 0 0.34999999999999998 0 1 0 0.14749999999999999 0 0 1 I I 0 1 0.14749999999999999 forward I I I I 
	cone 1.4624999999999999 0 0 -1 0 0 0 0 0.54999999999999993 1 I I 0 1 0.54999999999999993 forward I I I I 
	nullbs 
	nullbs 
	I I 
	0 
	0 
	0 
	} I I #
point $-1 -1.4155000000000002 0.42426406871192818 0.35000000000000026 #
point $-1 -1.4155 0.96120042134822214 0.34999999999999998 #
ellipse-curve $-1 -1.5629999999999999 0.96120042134822214 0.34999999999999998 0 -1 0 0.14749999999999996 0 0 1 I I #
point $-1 -1.7104999999999999 0.96120042134822214 0.34999999999999998 #
coedge $-1 $296 $296 $293 $324 forward $326 $-1 #
edge $-1 $298 0 $300 3.1415926535897931 $323 $348 forward 7 unknown #
face $-1 $349 $350 $3 $-1 $351 reversed single #
loop $-1 $352 $323 $294 #
plane-surface $-1 0 0.96120042134822214 0 0 1 0 1 0 0 forward_v I I I I #
ellipse-curve $-1 -2.27 0.96120042134822214 -0.35700000000000032 0 1 0 0.17750000000000021 0 0 1 I I #
point $-1 -2.4475000000000002 0.96120042134822214 -0.35700000000000032 #
point $-1 -2.0924999999999998 0.96120042134822214 -0.35700000000000032 #
face $-1 $353 $354 $3 $-1 $355 reversed single #
loop $-1 $-1 $356 $302 #
cone-surface $-1 1.23 0 0 1 0 0 0 0 -0.1875 1 I I 0 1 0.1875 forward I I I I #
coedge $-1 $357 $357 $358 $359 reversed $305 $-1 #
coedge $-1 $306 $306 $360 $361 forward $273 $-1 #
coedge $-1 $360 $310 $307 $337 forward $303 $-1 #
edge $-1 $313 0 $341 0.25 $307 $362 forward 7 unknown #
coedge $-1 $310 $360 $308 $339 reversed $303 $-1 #
edge $-1 $312 0 $340 0.25 $308 $363 forward 7 unknown #
vertex $-1 $339 $364 #
vertex $-1 $337 $365 #
ellipse-curve $-1 1.23 0 -6.9388939039072284e-018 -1 0 0 0 0 -0.25 1 I I #
ellipse-curve $-1 0.97999999999999998 -2.0816681711721685e-017 -6.9388939039072284e-018 1 0 0 0 -9.7984771338377463e-018 -0.25 1 I I #
point $-1 0.97999999999999998 -3.0615158845559431e-017 -0.25 #
point $-1 0.97999999999999998 6.1230317691118863e-017 0.25 #
straight-curve $-1 -1.7104999999999999 0.42426406871192834 0.34999999999999998 0 1 0 I I #
point $-1 -1.7105000000000001 0.42426406871192818 0.35000000000000026 #
ellipse-curve $-1 -2.27 0.96120042134822214 -0.35700000000000032 0 1 0 -0.17750000000000021 0 0 1 I I #
face $-1 $366 $367 $3 $-1 $368 reversed single #
loop $-1 $-1 $369 $325 #
cone-surface $-1 -2.27 0 -0.35700000000000032 0 1 0 0.14749999999999999 0 0 1 I I 0 1 0.14749999999999999 forward I I I I #
loop $-1 $-1 $370 $294 #
face $-1 $-1 $371 $3 $-1 $372 forward single #
loop $-1 $-1 $373 $331 #
cone-surface $-1 1.23 0 0 1 0 0 0 0 -0.1875 1 I I 0 1 0.1875 forward I I I I #
coedge $-1 $374 $358 $375 $376 forward $332 $-1 #
coedge $-1 $334 $334 $377 $378 reversed $305 $-1 #
coedge $-1 $356 $379 $334 $359 forward $332 $-1 #
edge $-1 $380 0 $381 3.1415926535897931 $334 $382 forward 7 unknown #
coedge $-1 $338 $336 $335 $361 reversed $303 $-1 #
edge $-1 $340 -1.2246063538223773e-016 $341 3.1415926535897931 $335 $383 forward 7 unknown #
straight-curve $-1 0.97999999999999998 6.1230317691118863e-017 0.25 1 0 0 I I #
straight-curve $-1 0.97999999999999998 -3.0615158845559431e-017 -0.25 1 0 0 I I #
point $-1 1.23 -3.0615158845559431e-017 -0.25 #
point $-1 1.23 0 0.25 #
face $-1 $101 $384 $3 $-1 $385 forward single #
loop $-1 $-1 $386 $349 #
cone-surface $-1 -2.27 0 -0.35700000000000032 0 1 0 0.14749999999999999 0 0 1 I I 0 1 0.14749999999999999 forward I I I I #
coedge $-1 $387 $388 $389 $390 forward $350 $-1 #
coedge $-1 $391 $391 $387 $392 forward $352 $-1 #
loop $-1 $-1 $393 $353 #
plane-surface $-1 0.82999999999999996 0 0 1 0 0 0 0 -1 forward_v I I I I #
coedge $-1 $394 $377 $379 $395 forward $354 $-1 #
coedge $-1 $379 $356 $393 $396 reversed $332 $-1 #
coedge $-1 $377 $394 $356 $376 reversed $354 $-1 #
edge $-1 $381 0 $397 0.40000000000000002 $375 $398 forward 7 unknown #
coedge $-1 $373 $375 $357 $378 forward $354 $-1 #
edge $-1 $381 0 $380 3.1415926535897931 $357 $399 forward 7 unknown #
coedge $-1 $358 $374 $373 $395 reversed $332 $-1 #
vertex $-1 $378 $400 #
vertex $-1 $378 $401 #
ellipse-curve $-1 1.23 0 0 1 0 0 0 0 0.1875 1 I I #
ellipse-curve $-1 1.23 0 -6.9388939039072284e-018 1 0 0 0 0 -0.25 1 I I #
loop $-1 $-1 $402 $366 #
cone-surface $-1 1.4624999999999999 0 0 -1 0 0 0 0 0.54999999999999993 1 I I 0 1 0.54999999999999993 forward I I I I #
coedge $-1 $403 $404 $405 $406 forward $367 $-1 #
coedge $-1 $405 $369 $370 $392 reversed $350 $-1 #
coedge $-1 $369 $405 $402 $407 forward $350 $-1 #
coedge $-1 $404 $403 $369 $390 reversed $367 $-1 #
edge $-1 $408 -5.5511151231257827e-017 $409 0.54280945586258955 $389 $410 forward 7 unknown #
coedge $-1 $370 $370 $403 $411 forward $352 $-1 #
edge $-1 $412 0 $409 3.1415926535897936 $370 $413 forward 7 unknown #
coedge $-1 $414 $414 $374 $396 forward $371 $-1 #
coedge $-1 $375 $373 $414 $415 reversed $354 $-1 #
edge $-1 $380 0 $416 0.40000000000000002 $373 $417 forward 7 unknown #
edge $-1 $416 0 $397 3.1415926535897931 $393 $418 forward 7 unknown #
vertex $-1 $415 $419 #
straight-curve $-1 1.23 0 -0.1875 -1 0 0 I I #
ellipse-curve $-1 1.23 0 0 1 0 0 0 0 -0.1875 1 I I #
point $-1 1.23 0 0.1875 #
point $-1 1.23 0 -0.1875 #
coedge $-1 $420 $420 $388 $407 reversed $384 $-1 #
coedge $-1 $389 $386 $391 $411 reversed $367 $-1 #
coedge $-1 $386 $389 $420 $421 forward $367 $-1 #
coedge $-1 $388 $387 $386 $406 reversed $350 $-1 #
edge $-1 $422 -5.5511151231257827e-017 $412 0.54280945586258955 $386 $423 forward 7 unknown #
edge $-1 $422 0 $408 0.99999999999999978 $402 $424 forward 7 unknown #
vertex $-1 $421 $425 #
vertex $-1 $411 $426 #
straight-curve $-1 -2.1225000000000001 0.41839096548563259 -0.35700000000000026 0 1 0 I I #
edge $-1 $409 0 $412 3.1415926535897927 $391 $427 forward 7 unknown #
vertex $-1 $411 $428 #
ellipse-curve $-1 -2.27 0.96120042134822214 -0.35700000000000032 0 -1 0 -0.14749999999999996 0 0 1 I I #
coedge $-1 $393 $393 $394 $415 forward $371 $-1 #
edge $-1 $397 0 $416 3.1415926535897931 $414 $429 forward 7 unknown #
vertex $-1 $415 $430 #
straight-curve $-1 1.23 2.2961369134169574e-017 0.1875 -1 0 0 I I #
ellipse-curve $-1 0.82999999999999996 -1.3877787807814457e-017 -2.0816681711721685e-017 1 0 0 0 1.3877787807814457e-017 0.18750000000000003 1 I I #
point $-1 0.82999999999999996 0 -0.1875 #
coedge $-1 $402 $402 $404 $421 reversed $384 $-1 #
edge $-1 $408 0 $422 1 $420 $431 forward 7 unknown #
vertex $-1 $421 $432 #
straight-curve $-1 -2.4175 0.41839096548563259 -0.35700000000000032 0 1 0 I I #
intcurve-curve $-1 forward { surfintcur full nurbs 3 open 21 
	0 3 0.051011472547233136 1 0.10184315322645429 1 0.15242596269417474 1 0.20272508156186658 1 
	0.25276557079293377 1 0.30255606745147223 1 0.35210711621149993 1 0.40149816971718594 1 0.45074556158823775 1 
	0.49987619218349283 1 0.5490109347735288 1 0.59827060634405282 1 0.64767655780590516 1 0.69724062485800919 1 
	0.74705262151335594 1 0.79711526271463384 1 0.8474340014476891 1 0.89804399243414967 1 0.94891843047919711 1 
	0.99999999999999978 3 
	-2.4175 0.41839096548563254 -0.35700000000000021 1 
	-2.4172461161350425 0.4084334016531056 -0.36854269401643086 1.0000000000000002 
	-2.414962646776317 0.38858861316721383 -0.39006192034655179 0.99999999999999978 
	-2.4052510649483221 0.3582331206029607 -0.41793275684633252 1 
	-2.3922800582553712 0.32963232808978499 -0.44071501382413136 1 
	-2.3774530218544423 0.30370075532039931 -0.45885973096561383 1 
	-2.3615030958991743 0.28051936138754263 -0.47330773274924154 0.99999999999999978 
	-2.3448556716036459 0.26042855022857264 -0.48458104935238122 1 
	-2.3280343969922108 0.24394600710377926 -0.49303325269306075 0.99999999999999978 
	-2.3100992765480242 0.23058728154567462 -0.49938088754776117 1.0000000000000002 
	-2.2910732971328347 0.22154915983719967 -0.5034184589929579 1.0000000000000002 
	-2.2716700040774991 0.21806849731655548 -0.50491955622637619 1.0000000000000002 
	-2.2520097623501703 0.22056260401791875 -0.5038473520983151 0.99999999999999989 
	-2.2324339261950428 0.229031840038215 -0.5000927284262543 1.0000000000000002 
	-2.2139996280097023 0.2421868640253691 -0.49389754001965952 0.99999999999999989 
	-2.1968331126407361 0.25857776275658689 -0.48557078139669502 1 
	-2.1797831088534596 0.27879811597755438 -0.47432657809343176 0.99999999999999989 
	-2.16350795398218 0.30216229046747078 -0.45987686786686083 0.99999999999999978 
	-2.1484180209006332 0.32825935539937789 -0.44174364633856933 1.0000000000000002 
	-2.1351651335372659 0.35713838216290483 -0.41887745311789376 0.99999999999999944 
	-2.1251530704247199 0.38791846034502525 -0.39076048212128733 1.0000000000000002 
	-2.1227802160632745 0.40818760314827018 -0.36881295493767807 1 
	-2.1225000000000001 0.41839096548563254 -0.35700000000000021 1 
	0.001 
	cone -2.27 0 -0.35700000000000032 0 1 0 0.14749999999999999 0 0 1 I I 0 1 0.14749999999999999 forward I I I I 
	cone 1.4624999999999999 0 0 -1 0 0 0 0 0.54999999999999993 1 I I 0 1 0.54999999999999993 forward I I I I 
	nullbs 
	nullbs 
	I I 
	0 
	0 
	0 
	} I I #
point $-1 -2.1225000000000001 0.41839096548563254 -0.35700000000000021 #
point $-1 -2.1225000000000001 0.96120042134822214 -0.35700000000000026 #
ellipse-curve $-1 -2.27 0.96120042134822214 -0.35700000000000032 0 -1 0 0.14749999999999996 0 5.5511151231257827e-017 1 I I #
point $-1 -2.4175 0.96120042134822214 -0.35700000000000032 #
ellipse-curve $-1 0.82999999999999996 1.3877787807814457e-017 0 1 0 0 0 -1.3877787807814457e-017 -0.1875 1 I I #
point $-1 0.82999999999999996 0 0.1875 #
intcurve-curve $-1 forward { surfintcur full nurbs 3 open 14 
	0 3 0.077970167674155558 1 0.15546318107155688 1 0.23241363444351687 1 0.30904801255992947 1 
	0.38558185617322499 1 0.46191515801745447 1 0.53807928886915701 1 0.61442668037492187 1 0.69096242236259442 1 
	0.76758812711696189 1 0.84454671494854949 1 0.92204826767790582 1 1 3 
	-2.1225000000000001 0.41839096548563254 -0.35700000000000021 1 
	-2.1225308217450691 0.42885695172305172 -0.3445194166093708 0.99999999999999978 
	-2.1254923183205472 0.44777045195910481 -0.32049963088774386 1 
	-2.139203438713376 0.47052610974730275 -0.28559011594976563 1.0000000000000002 
	-2.1601073345333757 0.48678997877839619 -0.25655673182044453 0.99999999999999989 
	-2.1868106991280776 0.49815014341005165 -0.23346277384959416 1.0000000000000004 
	-2.2190476127733039 0.50542287015079879 -0.21703222114077303 0.99999999999999989 
	-2.253268837211432 0.50867822851166666 -0.20915911147538774 1 
	-2.2866708906050239 0.508684368741121 -0.2091439853156862 1 
	-2.3210320176719059 0.50541516424168176 -0.21705173523217566 0.99999999999999989 
	-2.3532603299387733 0.49812296659126132 -0.23351969827226743 0.99999999999999989 
	-2.3798790706129531 0.48679502448343082 -0.25654556212152574 0.99999999999999978 
	-2.4008381416572298 0.47049905802163361 -0.28564202932061949 1 
	-2.4145343665527332 0.44767323680934956 -0.32063171594579792 1 
	-2.4174809573672591 0.42881341475394108 -0.34457838815705633 1.0000000000000002 
	-2.4175 0.41839096548563254 -0.35700000000000021 1 
	0.001 
	cone -2.27 0 -0.35700000000000032 0 1 0 0.14749999999999999 0 0 1 I I 0 1 0.14749999999999999 forward I I I I 
	cone 1.4624999999999999 0 0 -1 0 0 0 0 0.54999999999999993 1 I I 0 1 0.54999999999999993 forward I I I I 
	nullbs 
	nullbs 
	I I 
	0 
	0 
	0 
	} I I #
point $-1 -2.4175 0.41839096548563254 -0.35700000000000021 #
End-of-ACIS-data 