600 0 1 0           
82 GICL ACIS Healer - Source: /gicl/data5/repository/PTC/V18/piping18/motor.sat - 6 0 18 ACIS 6.0.3 Solaris 24 Sat Apr 13 21:19:50 2002 
1 9.999999999999999547e-07 1.000000000000000036e-10 
body $-1 $1 $-1 $-1 #
lump $-1 $-1 $2 $0 #
shell $-1 $-1 $-1 $3 $-1 $1 #
face $-1 $4 $5 $2 $-1 $6 forward single #
face $-1 $7 $8 $2 $-1 $9 reversed single #
loop $-1 $10 $11 $3 #
plane-surface $-1 337.8199999999999363 0 0 1 0 0 0 0 -25.39999999999999858 forward_v I I I I #
face $-1 $12 $13 $2 $-1 $14 reversed single #
loop $-1 $-1 $15 $4 #
plane-surface $-1 337.8199999999999363 140.9982260183864753 186.9889943815939262 0 -0.2588190451025217387 0.9659258262890680902 0 -24.53451598774232423 -6.574003745604050764 forward_v I I I I #
loop $-1 $16 $17 $3 #
coedge $-1 $18 $19 $20 $21 reversed $5 $-1 #
face $-1 $22 $23 $2 $-1 $24 reversed single #
loop $-1 $-1 $25 $7 #
cone-surface $-1 337.8199999999999363 177.7999999999999829 196.8499999999999943 1 0 0 0 -63.5 0 1 I I 0 1 63.5 forward I I I I #
coedge $-1 $26 $20 $27 $28 forward $8 $-1 #
loop $-1 $29 $30 $3 #
coedge $-1 $31 $32 $33 $34 reversed $10 $-1 #
coedge $-1 $35 $11 $36 $37 forward $5 $-1 #
coedge $-1 $11 $35 $38 $39 reversed $5 $-1 #
coedge $-1 $15 $40 $11 $21 forward $8 $-1 #
edge $-1 $41 0 $42 0.9999999999999983347 $11 $43 forward 7 unknown #
face $-1 $44 $45 $2 $-1 $46 forward single #
loop $-1 $-1 $47 $12 #
plane-surface $-1 337.8199999999999363 161.3649906359899262 135.5137100306441766 0 0.9659258262890683122 -0.258819045102520906 0 6.574003745604029447 24.53451598774232778 forward_v I I I I #
coedge $-1 $48 $38 $49 $50 forward $13 $-1 #
coedge $-1 $40 $15 $51 $52 reversed $8 $-1 #
coedge $-1 $38 $48 $15 $28 reversed $13 $-1 #
edge $-1 $42 0 $53 0.4999999999999995559 $27 $54 forward 7 unknown #
loop $-1 $55 $56 $3 #
coedge $-1 $57 $58 $59 $60 reversed $16 $-1 #
coedge $-1 $61 $17 $62 $63 forward $10 $-1 #
coedge $-1 $17 $61 $64 $65 reversed $10 $-1 #
coedge $-1 $66 $67 $17 $34 forward $68 $-1 #
edge $-1 $69 0 $70 0.9999999999999972244 $17 $71 forward 7 unknown #
coedge $-1 $19 $18 $72 $73 reversed $5 $-1 #
coedge $-1 $74 $75 $18 $37 reversed $45 $-1 #
edge $-1 $41 3.915887797742368261e-16 $76 1.047197551196598297 $18 $77 forward 7 unknown #
coedge $-1 $25 $27 $19 $39 forward $13 $-1 #
edge $-1 $42 2.537495292937058301e-16 $78 1.047197551196597187 $19 $79 forward 7 unknown #
coedge $-1 $20 $26 $74 $80 reversed $8 $-1 #
vertex $-1 $37 $81 #
vertex $-1 $39 $82 #
straight-curve $-1 337.8199999999999363 140.9982260183864753 186.9889943815939262 0 -24.53451598774232423 -6.574003745604056093 I I #
face $-1 $83 $84 $2 $-1 $85 forward single #
loop $-1 $-1 $74 $22 #
cone-surface $-1 337.8199999999999363 177.7999999999999829 196.8499999999999943 1 0 0 0 -38.09999999999999432 0 1 I I 0 1 38.09999999999999432 forward I I I I #
coedge $-1 $86 $72 $75 $87 forward $23 $-1 #
coedge $-1 $27 $25 $88 $89 reversed $13 $-1 #
coedge $-1 $72 $86 $25 $50 reversed $23 $-1 #
edge $-1 $78 0 $90 0.4999999999999995559 $25 $91 forward 7 unknown #
coedge $-1 $88 $92 $26 $52 forward $84 $-1 #
edge $-1 $93 0 $53 0.9999999999999990008 $51 $94 forward 7 unknown #
vertex $-1 $89 $95 #
straight-curve $-1 337.8199999999999363 116.4637100306441653 180.4149906359898807 -25.39999999999999858 0 0 I I #
loop $-1 $96 $97 $3 #
coedge $-1 $98 $98 $99 $100 reversed $29 $-1 #
coedge $-1 $101 $30 $102 $103 forward $16 $-1 #
coedge $-1 $30 $101 $104 $105 reversed $16 $-1 #
coedge $-1 $106 $107 $30 $60 forward $108 $-1 #
edge $-1 $109 0 $110 0.9999999999999990008 $30 $111 forward 7 unknown #
coedge $-1 $32 $31 $112 $113 reversed $10 $-1 #
coedge $-1 $114 $115 $31 $63 reversed $116 $-1 #
edge $-1 $69 -3.524299017968131928e-16 $117 1.047197551196598297 $31 $118 forward 7 unknown #
coedge $-1 $119 $120 $32 $65 forward $121 $-1 #
edge $-1 $70 -1.691663528624707013e-16 $122 1.047197551196597187 $32 $123 forward 7 unknown #
coedge $-1 $124 $33 $120 $125 forward $68 $-1 #
coedge $-1 $33 $124 $114 $126 reversed $68 $-1 #
loop $-1 $-1 $66 $127 #
vertex $-1 $63 $128 #
vertex $-1 $65 $129 #
straight-curve $-1 337.8199999999999363 167.9389943815939432 233.651773981613502 0 -6.574003745604061422 24.53451598774232423 I I #
coedge $-1 $47 $49 $35 $73 forward $23 $-1 #
edge $-1 $78 0 $76 0.9999999999999991118 $35 $130 forward 7 unknown #
coedge $-1 $131 $36 $40 $80 forward $45 $-1 #
coedge $-1 $36 $131 $47 $87 reversed $45 $-1 #
vertex $-1 $73 $132 #
ellipse-curve $-1 337.8199999999999363 177.7999999999999829 196.8499999999999943 1 0 0 0 -36.80177398161350055 -9.861005618406050388 1 I I #
vertex $-1 $39 $133 #
ellipse-curve $-1 337.8199999999999363 177.7999999999999829 196.8499999999999943 1 0 0 0 -61.33628996935579636 -16.43500936401009938 1 I I #
edge $-1 $41 0 $93 0.4999999999999995559 $74 $134 forward 7 unknown #
point $-1 337.8199999999999363 140.9982260183864753 186.9889943815939262 #
point $-1 337.8199999999999363 116.4637100306441937 180.4149906359898807 #
face $-1 $135 $136 $2 $-1 $137 forward single #
loop $-1 $138 $139 $44 #
plane-surface $-1 325.1199999999999477 -19.04999999999999716 374.6499999999999773 1 0 0 0 -25.39999999999999858 0 forward_v I I I I #
coedge $-1 $49 $47 $139 $140 reversed $23 $-1 #
edge $-1 $76 0 $141 0.4999999999999995559 $47 $142 forward 7 unknown #
coedge $-1 $139 $51 $48 $89 forward $84 $-1 #
edge $-1 $53 -5.638878428749006943e-17 $90 1.047197551196596521 $88 $143 forward 7 unknown #
vertex $-1 $89 $144 #
straight-curve $-1 337.8199999999999363 161.3649906359899262 135.5137100306441766 -25.39999999999999858 0 0 I I #
coedge $-1 $51 $139 $131 $145 forward $84 $-1 #
vertex $-1 $52 $146 #
straight-curve $-1 325.1199999999999477 140.9982260183864753 186.9889943815939262 0 -24.53451598774232778 -6.574003745604051652 I I #
point $-1 325.1199999999999477 116.4637100306441653 180.4149906359898807 #
loop $-1 $-1 $147 $3 #
coedge $-1 $148 $148 $149 $150 reversed $55 $-1 #
coedge $-1 $56 $56 $151 $152 reversed $29 $-1 #
coedge $-1 $153 $154 $56 $100 forward $155 $-1 #
edge $-1 $156 0 $157 3.141592653589793116 $56 $158 forward 7 unknown #
coedge $-1 $58 $57 $159 $160 reversed $16 $-1 #
coedge $-1 $161 $162 $57 $103 reversed $163 $-1 #
edge $-1 $109 3.915887797742360249e-17 $164 1.047197551196598297 $57 $165 forward 7 unknown #
coedge $-1 $166 $167 $58 $105 forward $168 $-1 #
edge $-1 $110 2.819439214374503472e-17 $169 1.047197551196596743 $58 $170 forward 7 unknown #
coedge $-1 $171 $59 $167 $172 forward $108 $-1 #
coedge $-1 $59 $171 $161 $173 reversed $108 $-1 #
loop $-1 $-1 $106 $174 #
vertex $-1 $103 $175 #
vertex $-1 $105 $176 #
straight-curve $-1 337.8199999999999363 214.6017739816135474 206.7110056184060056 0 24.53451598774232778 6.574003745604051652 I I #
coedge $-1 $177 $178 $61 $113 forward $179 $-1 #
edge $-1 $122 0 $117 0.9999999999999990008 $61 $180 forward 7 unknown #
coedge $-1 $181 $62 $67 $126 forward $116 $-1 #
coedge $-1 $62 $181 $177 $182 reversed $116 $-1 #
loop $-1 $-1 $114 $183 #
vertex $-1 $113 $184 #
ellipse-curve $-1 337.8199999999999363 177.7999999999999829 196.8499999999999943 1 0 0 0 -9.861005618406050388 36.80177398161350055 1 I I #
coedge $-1 $185 $64 $178 $186 forward $121 $-1 #
coedge $-1 $64 $185 $66 $125 reversed $121 $-1 #
loop $-1 $-1 $119 $187 #
vertex $-1 $65 $188 #
ellipse-curve $-1 337.8199999999999363 177.7999999999999829 196.8499999999999943 1 0 0 0 -16.43500936401009938 61.33628996935577504 1 I I #
coedge $-1 $67 $66 $189 $190 reversed $68 $-1 #
edge $-1 $70 0 $191 0.4999999999999995559 $120 $192 forward 7 unknown #
edge $-1 $69 0 $193 0.4999999999999995559 $114 $194 forward 7 unknown #
face $-1 $187 $68 $2 $-1 $195 reversed single #
point $-1 337.8199999999999363 167.9389943815939432 233.651773981613502 #
point $-1 337.8199999999999363 161.3649906359898978 258.1862899693557551 #
straight-curve $-1 337.8199999999999363 161.3649906359899262 135.5137100306441766 0 6.574003745604030335 24.53451598774233489 I I #
coedge $-1 $75 $74 $92 $145 reversed $45 $-1 #
point $-1 337.8199999999999363 167.9389943815939716 160.0482260183864867 #
point $-1 337.8199999999999363 161.3649906359899262 135.5137100306441766 #
straight-curve $-1 337.8199999999999363 140.9982260183864753 186.9889943815939262 -25.39999999999999858 0 0 I I #
face $-1 $196 $197 $2 $-1 $198 forward single #
loop $-1 $-1 $199 $83 #
cone-surface $-1 325.1199999999999477 141.8789755157233685 160.9289755157233799 1 0 0 0 0 -6.349999999999999645 1 I I 0 1 6.349999999999999645 forward I I I I #
loop $-1 $-1 $200 $44 #
coedge $-1 $92 $88 $86 $140 forward $84 $-1 #
edge $-1 $90 0 $141 0.9999999999999991118 $139 $201 forward 7 unknown #
vertex $-1 $145 $202 #
straight-curve $-1 337.8199999999999363 167.9389943815939716 160.0482260183864867 -25.39999999999999858 0 0 I I #
ellipse-curve $-1 325.1199999999999477 177.8000000000000114 196.8500000000000227 1 0 0 0 -61.3362899693558461 -16.43500936401014556 1 I I #
point $-1 325.1199999999999477 161.3649906359899262 135.5137100306441766 #
edge $-1 $141 -1.566355119096944593e-16 $93 1.047197551196596521 $92 $203 forward 7 unknown #
point $-1 325.1199999999999477 140.9982260183864753 186.9889943815939262 #
coedge $-1 $204 $205 $206 $207 reversed $96 $-1 #
coedge $-1 $97 $97 $208 $209 reversed $55 $-1 #
coedge $-1 $210 $211 $97 $150 forward $212 $-1 #
edge $-1 $213 0 $214 3.141592653589793116 $97 $215 forward 7 unknown #
coedge $-1 $216 $217 $98 $152 forward $218 $-1 #
edge $-1 $157 0 $156 3.141592653589793116 $98 $219 forward 7 unknown #
coedge $-1 $220 $99 $217 $221 reversed $155 $-1 #
coedge $-1 $99 $222 $216 $223 forward $155 $-1 #
loop $-1 $-1 $224 $225 #
vertex $-1 $152 $226 #
vertex $-1 $152 $227 #
ellipse-curve $-1 337.8199999999999363 177.7999999999999829 196.8499999999999943 -1 0 0 0 0 -76.19999999999998863 1 I I #
coedge $-1 $228 $229 $101 $160 forward $230 $-1 #
edge $-1 $169 0 $164 0.9999999999999974465 $101 $231 forward 7 unknown #
coedge $-1 $232 $102 $107 $173 forward $163 $-1 #
coedge $-1 $102 $232 $228 $233 reversed $163 $-1 #
loop $-1 $-1 $161 $234 #
vertex $-1 $160 $235 #
ellipse-curve $-1 337.8199999999999363 177.7999999999999829 196.8499999999999943 1 0 0 0 36.80177398161355029 9.861005618406005979 1 I I #
coedge $-1 $236 $104 $229 $237 forward $168 $-1 #
coedge $-1 $104 $236 $106 $172 reversed $168 $-1 #
loop $-1 $-1 $166 $238 #
vertex $-1 $105 $239 #
ellipse-curve $-1 337.8199999999999363 177.7999999999999829 196.8499999999999943 1 0 0 0 61.33628996935586741 16.43500936401005319 1 I I #
coedge $-1 $107 $106 $240 $241 reversed $108 $-1 #
edge $-1 $110 0 $242 0.4999999999999995559 $167 $243 forward 7 unknown #
edge $-1 $109 7.950724084117284228e-30 $244 0.4999999999999995559 $161 $245 forward 7 unknown #
face $-1 $238 $108 $2 $-1 $246 reversed single #
point $-1 337.8199999999999363 214.6017739816135474 206.7110056184060056 #
point $-1 337.8199999999999363 239.1362899693558575 213.2850093640100511 #
coedge $-1 $247 $112 $115 $182 forward $179 $-1 #
coedge $-1 $112 $247 $119 $186 reversed $179 $-1 #
loop $-1 $-1 $177 $248 #
straight-curve $-1 337.8199999999999363 116.4637100306441653 213.2850093640100511 0 24.53451598774232778 -6.574003745604051652 I I #
coedge $-1 $115 $114 $249 $250 reversed $116 $-1 #
edge $-1 $117 0 $251 0.4999999999999995559 $177 $252 forward 7 unknown #
face $-1 $253 $116 $2 $-1 $254 forward single #
point $-1 337.8199999999999363 140.9982260183864753 206.7110056184060056 #
coedge $-1 $120 $119 $255 $256 reversed $121 $-1 #
edge $-1 $122 0 $257 0.4999999999999995559 $119 $258 forward 7 unknown #
face $-1 $248 $121 $2 $-1 $259 reversed single #
point $-1 337.8199999999999363 116.4637100306441653 213.2850093640100511 #
coedge $-1 $255 $249 $124 $190 forward $260 $-1 #
edge $-1 $193 0 $191 0.9999999999999990008 $189 $261 forward 7 unknown #
vertex $-1 $256 $262 #
straight-curve $-1 337.8199999999999363 161.3649906359898978 258.186289969355812 -25.39999999999999858 0 0 I I #
vertex $-1 $190 $263 #
straight-curve $-1 337.8199999999999363 167.9389943815939432 233.651773981613502 -25.39999999999999858 0 0 I I #
plane-surface $-1 337.8199999999999363 167.9389943815939432 233.651773981613502 0 0.9659258262890680902 0.2588190451025217387 0 -6.574003745604050764 24.53451598774232423 forward_v I I I I #
face $-1 $127 $264 $2 $-1 $265 forward single #
loop $-1 $-1 $266 $135 #
cone-surface $-1 325.1199999999999477 141.8789755157233685 160.9289755157233799 1 0 0 0 0 -6.349999999999999645 1 I I 0 1 6.349999999999999645 forward I I I I #
coedge $-1 $267 $268 $269 $270 forward $136 $-1 #
coedge $-1 $271 $271 $268 $272 reversed $138 $-1 #
straight-curve $-1 325.1199999999999477 161.3649906359899262 135.5137100306441766 0 6.574003745604030335 24.53451598774233489 I I #
point $-1 325.1199999999999477 167.9389943815939716 160.0482260183864867 #
ellipse-curve $-1 325.1199999999999477 177.8000000000000114 196.8500000000000227 -1 0 0 0 -9.861005618406050388 -36.80177398161355029 1 I I #
coedge $-1 $273 $147 $274 $275 forward $96 $-1 #
coedge $-1 $147 $273 $276 $277 reversed $96 $-1 #
coedge $-1 $278 $279 $147 $207 forward $280 $-1 #
edge $-1 $281 0 $282 0.9999999999999990008 $147 $283 forward 7 unknown #
coedge $-1 $284 $285 $148 $209 forward $286 $-1 #
edge $-1 $214 0 $213 3.141592653589793116 $148 $287 forward 7 unknown #
coedge $-1 $288 $149 $285 $289 forward $212 $-1 #
coedge $-1 $149 $288 $284 $290 reversed $212 $-1 #
loop $-1 $-1 $210 $291 #
vertex $-1 $209 $292 #
vertex $-1 $209 $293 #
ellipse-curve $-1 337.8199999999999363 177.7999999999999829 196.8499999999999943 1 0 0 0 0 25.39999999999999858 1 I I #
coedge $-1 $294 $151 $154 $223 reversed $218 $-1 #
coedge $-1 $151 $295 $153 $221 forward $218 $-1 #
loop $-1 $-1 $296 $297 #
ellipse-curve $-1 337.8199999999999363 177.7999999999999829 196.8499999999999943 -1 0 0 0 0 76.19999999999998863 1 I I #
coedge $-1 $298 $153 $299 $300 reversed $155 $-1 #
edge $-1 $301 0 $157 1.999999999999998224 $217 $302 forward 7 unknown #
coedge $-1 $154 $224 $303 $304 reversed $155 $-1 #
edge $-1 $305 1.118964938204882167e-15 $156 5.999999999999999112 $216 $306 forward 7 unknown #
coedge $-1 $222 $307 $308 $309 reversed $155 $-1 #
face $-1 $297 $155 $2 $-1 $310 forward single #
point $-1 337.8199999999999363 177.7999999999999829 120.6499999999999915 #
point $-1 337.8199999999999363 177.7999999999999829 273.0500000000000114 #
coedge $-1 $311 $159 $162 $233 forward $230 $-1 #
coedge $-1 $159 $311 $166 $237 reversed $230 $-1 #
loop $-1 $-1 $228 $312 #
straight-curve $-1 337.8199999999999363 194.235009364010125 258.1862899693557551 0 -6.574003745604040105 -24.53451598774232778 I I #
coedge $-1 $162 $161 $313 $314 reversed $163 $-1 #
edge $-1 $164 0 $315 0.4999999999999995559 $228 $316 forward 7 unknown #
face $-1 $317 $163 $2 $-1 $318 forward single #
point $-1 337.8199999999999363 187.6610056184060511 233.651773981613502 #
coedge $-1 $167 $166 $319 $320 reversed $168 $-1 #
edge $-1 $169 7.950724084117284228e-30 $321 0.4999999999999995559 $166 $322 forward 7 unknown #
face $-1 $312 $168 $2 $-1 $323 reversed single #
point $-1 337.8199999999999363 194.235009364010125 258.1862899693557551 #
coedge $-1 $319 $313 $171 $241 forward $324 $-1 #
edge $-1 $244 0 $242 0.9999999999999987788 $240 $325 forward 7 unknown #
vertex $-1 $320 $326 #
straight-curve $-1 337.8199999999999363 239.1362899693558006 213.2850093640100511 -25.39999999999999858 0 0 I I #
vertex $-1 $241 $327 #
straight-curve $-1 337.8199999999999363 214.6017739816134906 206.7110056184060056 -25.39999999999999858 9.023892744153271856e-14 0 I I #
plane-surface $-1 337.8199999999999363 214.6017739816135474 206.7110056184060056 0 0.2588190451025212946 -0.9659258262890682012 0 24.53451598774232423 6.574003745604039217 forward_v I I I I #
coedge $-1 $178 $177 $328 $329 reversed $179 $-1 #
face $-1 $183 $179 $2 $-1 $330 reversed single #
coedge $-1 $189 $328 $181 $250 forward $260 $-1 #
edge $-1 $251 2.349532678645435748e-16 $193 1.047197551196602072 $249 $331 forward 7 unknown #
vertex $-1 $250 $332 #
straight-curve $-1 337.8199999999999363 140.9982260183864753 206.711005618406034 -25.39999999999999858 0 0 I I #
face $-1 $333 $260 $2 $-1 $334 forward single #
cone-surface $-1 337.8199999999999363 177.7999999999999829 196.8499999999999943 1 0 0 0 0 38.09999999999999432 1 I I 0 1 38.09999999999999432 forward I I I I #
coedge $-1 $328 $189 $185 $256 forward $260 $-1 #
edge $-1 $191 5.638878428749031595e-17 $257 1.047197551196598742 $255 $335 forward 7 unknown #
vertex $-1 $256 $336 #
straight-curve $-1 337.8199999999999363 116.4637100306441653 213.2850093640100511 -25.39999999999999858 0 0 I I #
cone-surface $-1 337.8199999999999363 177.7999999999999829 196.8499999999999943 1 0 0 0 0 63.5 1 I I 0 1 63.5 forward I I I I #
loop $-1 $337 $328 $253 #
straight-curve $-1 325.1199999999999477 167.9389943815939432 233.651773981613502 0 -6.574003745604051652 24.53451598774232778 I I #
point $-1 325.1199999999999477 161.3649906359898978 258.186289969355812 #
point $-1 325.1199999999999477 167.9389943815939432 233.651773981613502 #
loop $-1 $-1 $338 $196 #
plane-surface $-1 350.519999999999925 0 0 1 0 0 0 0 -25.39999999999999858 forward_v I I I I #
coedge $-1 $339 $340 $341 $342 forward $197 $-1 #
coedge $-1 $341 $199 $338 $343 reversed $136 $-1 #
coedge $-1 $199 $341 $200 $272 forward $136 $-1 #
coedge $-1 $340 $339 $199 $270 reversed $197 $-1 #
edge $-1 $344 0 $345 0.9999999999999991118 $269 $346 forward 7 unknown #
coedge $-1 $200 $200 $340 $347 reversed $138 $-1 #
edge $-1 $348 2.209955752954635229e-15 $344 3.141592653589835304 $200 $349 forward 7 unknown #
coedge $-1 $205 $204 $350 $351 reversed $96 $-1 #
coedge $-1 $352 $353 $204 $275 reversed $354 $-1 #
edge $-1 $281 3.915887797742368261e-16 $355 1.047197551196597631 $204 $356 forward 7 unknown #
coedge $-1 $357 $358 $205 $277 forward $359 $-1 #
edge $-1 $282 2.537495292937056329e-16 $360 1.047197551196597409 $205 $361 forward 7 unknown #
coedge $-1 $362 $206 $358 $363 forward $280 $-1 #
coedge $-1 $206 $362 $352 $364 reversed $280 $-1 #
loop $-1 $-1 $278 $365 #
vertex $-1 $275 $366 #
vertex $-1 $277 $367 #
straight-curve $-1 337.8199999999999363 187.6610056184060511 160.0482260183864867 0 6.574003745604051652 -24.53451598774232778 I I #
coedge $-1 $368 $208 $211 $290 forward $286 $-1 #
coedge $-1 $208 $368 $210 $289 reversed $286 $-1 #
loop $-1 $-1 $284 $369 #
ellipse-curve $-1 337.8199999999999363 177.7999999999999829 196.8499999999999943 1 0 0 0 0 -25.39999999999999858 1 I I #
coedge $-1 $211 $210 $370 $371 reversed $212 $-1 #
edge $-1 $214 0 $372 0.4999999999999995559 $285 $373 forward 7 unknown #
edge $-1 $213 0 $374 0.4999999999999995559 $284 $375 forward 7 unknown #
face $-1 $369 $212 $2 $-1 $376 forward single #
point $-1 337.8199999999999363 177.7999999999999829 222.25 #
point $-1 337.8199999999999363 177.7999999999999829 171.4499999999999886 #
coedge $-1 $308 $216 $377 $378 reversed $218 $-1 #
coedge $-1 $217 $296 $379 $380 reversed $218 $-1 #
coedge $-1 $295 $381 $382 $383 forward $218 $-1 #
face $-1 $384 $385 $2 $-1 $386 forward single #
coedge $-1 $307 $220 $387 $388 reversed $155 $-1 #
coedge $-1 $379 $389 $220 $300 forward $390 $-1 #
edge $-1 $391 -2.05584109381207181e-16 $301 0.08343008661056046382 $220 $392 forward 7 unknown #
vertex $-1 $221 $393 #
straight-curve $-1 287.0199999999999818 177.7999999999999829 273.0500000000000114 25.39999999999999858 0 0 I I #
coedge $-1 $377 $377 $222 $304 forward $394 $-1 #
edge $-1 $305 0 $395 3.141592653589793116 $303 $396 forward 7 unknown #
vertex $-1 $378 $397 #
straight-curve $-1 185.4199999999999591 177.7999999999999829 120.6499999999999915 25.39999999999999858 0 0 I I #
coedge $-1 $224 $298 $398 $399 forward $155 $-1 #
coedge $-1 $381 $294 $224 $309 forward $218 $-1 #
edge $-1 $395 1.118964938204882167e-15 $400 2.999999999999999556 $308 $401 forward 7 unknown #
cone-surface $-1 337.8199999999999363 177.7999999999999829 196.8499999999999943 1 0 0 0 0 -76.19999999999998863 1 I I 0 1 76.19999999999998863 forward I I I I #
coedge $-1 $229 $228 $402 $403 reversed $230 $-1 #
face $-1 $234 $230 $2 $-1 $404 reversed single #
coedge $-1 $240 $402 $232 $314 forward $324 $-1 #
edge $-1 $315 0 $244 1.047197551196597409 $313 $405 forward 7 unknown #
vertex $-1 $314 $406 #
straight-curve $-1 337.8199999999999363 187.6610056184060795 233.651773981613502 -25.39999999999999858 0 0 I I #
face $-1 $407 $324 $2 $-1 $408 forward single #
cone-surface $-1 337.8199999999999363 177.7999999999999829 196.8499999999999943 1 0 0 0 38.09999999999999432 0 1 I I 0 1 38.09999999999999432 forward I I I I #
coedge $-1 $402 $240 $236 $320 forward $324 $-1 #
edge $-1 $242 0 $321 1.047197551196596299 $319 $409 forward 7 unknown #
vertex $-1 $320 $410 #
straight-curve $-1 337.8199999999999363 194.235009364010125 258.186289969355812 -25.39999999999999858 -4.511946372076635928e-14 -9.023892744153271856e-14 I I #
cone-surface $-1 337.8199999999999363 177.7999999999999829 196.8499999999999943 1 0 0 0 63.5 0 1 I I 0 1 63.5 forward I I I I #
loop $-1 $411 $402 $317 #
straight-curve $-1 325.1199999999999477 214.6017739816134906 206.7110056184060056 0 24.53451598774233844 6.574003745604009907 I I #
point $-1 325.1199999999999477 239.1362899693558006 213.2850093640099942 #
point $-1 325.1199999999999477 214.6017739816134906 206.7110056184060056 #
coedge $-1 $249 $255 $247 $329 forward $260 $-1 #
edge $-1 $257 0 $251 0.9999999999999990008 $328 $412 forward 7 unknown #
plane-surface $-1 337.8199999999999363 116.4637100306441653 213.2850093640100511 0 -0.258819045102520906 -0.9659258262890683122 0 24.53451598774232778 -6.574003745604029447 forward_v I I I I #
ellipse-curve $-1 325.1199999999999477 177.7999999999998977 196.8500000000000796 -1 0 0 0 -36.80177398161341529 9.861005618405915385 1 I I #
point $-1 325.1199999999999477 140.9982260183864753 206.7110056184060056 #
face $-1 $413 $414 $2 $-1 $415 forward single #
plane-surface $-1 325.1199999999999477 355.5999999999999659 393.6999999999999886 1 0 0 0 0 25.39999999999999858 forward_v I I I I #
ellipse-curve $-1 325.1199999999999477 177.7999999999999545 196.8500000000000796 1 0 0 0 -16.43500936401005319 61.33628996935573241 1 I I #
point $-1 325.1199999999999477 116.4637100306441653 213.2850093640100511 #
loop $-1 $-1 $416 $253 #
coedge $-1 $417 $417 $267 $343 forward $264 $-1 #
coedge $-1 $269 $266 $417 $418 reversed $197 $-1 #
coedge $-1 $266 $269 $271 $347 forward $197 $-1 #
coedge $-1 $268 $267 $266 $342 reversed $136 $-1 #
edge $-1 $348 0 $419 0.9999999999999991118 $266 $420 forward 7 unknown #
edge $-1 $419 0 $345 3.141592653589793116 $338 $421 forward 7 unknown #
vertex $-1 $347 $422 #
vertex $-1 $418 $423 #
straight-curve $-1 325.1199999999999477 141.8789755157233685 154.5789755157233856 25.39999999999999858 0 0 I I #
edge $-1 $344 -3.692584296076196151e-15 $348 3.141592653589749151 $271 $424 forward 7 unknown #
vertex $-1 $347 $425 #
ellipse-curve $-1 325.1199999999999477 141.8789755157233685 160.9289755157233799 1 0 0 0 3.835154416265140349e-13 6.350000000000021849 1 I I #
coedge $-1 $426 $427 $273 $351 forward $428 $-1 #
edge $-1 $360 0 $355 0.9999999999999988898 $273 $429 forward 7 unknown #
coedge $-1 $430 $274 $279 $364 forward $354 $-1 #
coedge $-1 $274 $430 $426 $431 reversed $354 $-1 #
loop $-1 $-1 $352 $432 #
vertex $-1 $351 $433 #
ellipse-curve $-1 337.8199999999999363 177.7999999999999829 196.8499999999999943 1 0 0 0 9.861005618406050388 -36.80177398161350055 1 I I #
coedge $-1 $434 $276 $427 $435 forward $359 $-1 #
coedge $-1 $276 $434 $278 $363 reversed $359 $-1 #
loop $-1 $-1 $357 $436 #
vertex $-1 $277 $437 #
ellipse-curve $-1 337.8199999999999363 177.7999999999999829 196.8499999999999943 1 0 0 0 16.43500936401009938 -61.33628996935582478 1 I I #
coedge $-1 $279 $278 $438 $439 reversed $280 $-1 #
edge $-1 $282 0 $440 0.4999999999999995559 $358 $441 forward 7 unknown #
edge $-1 $281 0 $442 0.4999999999999995559 $352 $443 forward 7 unknown #
face $-1 $436 $280 $2 $-1 $444 reversed single #
point $-1 337.8199999999999363 187.6610056184060511 160.0482260183864867 #
point $-1 337.8199999999999363 194.2350093640100965 135.5137100306441766 #
coedge $-1 $285 $284 $445 $446 reversed $286 $-1 #
face $-1 $447 $286 $2 $-1 $448 forward single #
coedge $-1 $445 $445 $288 $371 forward $449 $-1 #
edge $-1 $374 0 $372 3.141592653589793116 $370 $450 forward 7 unknown #
vertex $-1 $446 $451 #
straight-curve $-1 337.8199999999999363 177.7999999999999829 171.4499999999999886 25.39999999999999858 0 0 I I #
vertex $-1 $446 $452 #
straight-curve $-1 337.8199999999999363 177.7999999999999829 222.25 25.39999999999999858 0 0 I I #
cone-surface $-1 337.8199999999999363 177.7999999999999829 196.8499999999999943 1 0 0 0 0 -25.39999999999999858 1 I I 0 1 25.39999999999999858 forward I I I I #
coedge $-1 $303 $303 $294 $378 forward $394 $-1 #
edge $-1 $395 0 $305 3.141592653589793116 $377 $453 forward 7 unknown #
coedge $-1 $454 $299 $295 $380 forward $390 $-1 #
edge $-1 $301 -1.328770864117464216e-16 $455 0.08343008661055814623 $295 $456 forward 7 unknown #
coedge $-1 $296 $308 $457 $458 forward $218 $-1 #
coedge $-1 $459 $460 $296 $383 reversed $461 $-1 #
edge $-1 $462 0 $455 1.000000000000001332 $296 $463 forward 7 unknown #
face $-1 $464 $465 $2 $-1 $466 reversed single #
loop $-1 $218 $467 $297 #
cone-surface $-1 337.8199999999999363 177.7999999999999829 196.8499999999999943 1 0 0 0 0 -76.19999999999998863 1 I I 0 1 76.19999999999998863 forward I I I I #
coedge $-1 $468 $469 $298 $388 forward $470 $-1 #
edge $-1 $471 0 $391 1.000000000000001332 $298 $472 forward 7 unknown #
coedge $-1 $299 $473 $468 $474 forward $390 $-1 #
loop $-1 $-1 $454 $475 #
vertex $-1 $388 $476 #
ellipse-curve $-1 287.0199999999999818 177.8000000000014893 196.8499999999504553 -1 0 0 0 -6.350000000001488232 75.93495571874346695 1 I I #
point $-1 287.0199999999999818 177.7999999999999829 273.0500000000000114 #
loop $-1 $477 $303 $478 #
vertex $-1 $378 $479 #
ellipse-curve $-1 185.4199999999999875 177.7999999999999829 196.8499999999999943 -1 0 0 0 0 -76.19999999999998863 1 I I #
point $-1 185.4199999999999875 177.7999999999999829 120.6499999999999915 #
coedge $-1 $480 $457 $307 $399 reversed $481 $-1 #
edge $-1 $471 -1.468457924151479055e-16 $400 0.08343008661056046382 $307 $482 forward 7 unknown #
vertex $-1 $458 $483 #
straight-curve $-1 185.4199999999999591 177.7999999999999829 273.0500000000000114 25.39999999999999858 0 0 I I #
coedge $-1 $313 $319 $311 $403 forward $324 $-1 #
edge $-1 $321 8.688283104281681283e-16 $315 1.000000000000001998 $402 $484 forward 7 unknown #
plane-surface $-1 337.8199999999999363 194.235009364010125 258.1862899693557551 0 -0.9659258262890682012 0.2588190451025213501 0 -6.574003745604040105 -24.53451598774232423 forward_v I I I I #
ellipse-curve $-1 325.1199999999999477 177.8000000000000398 196.8499999999999091 -1 0 0 0 9.861005618405982887 36.80177398161347924 1 I I #
point $-1 325.1199999999999477 187.6610056184060227 233.6517739816133883 #
face $-1 $485 $486 $2 $-1 $487 forward single #
plane-surface $-1 325.1199999999999477 374.6499999999999773 19.04999999999992966 1 0 0 0 25.39999999999999858 0 forward_v I I I I #
ellipse-curve $-1 325.1199999999999477 177.7999999999999261 196.8499999999998522 1 0 0 0 61.33628996935588873 16.43500936401014556 1 I I #
point $-1 325.1199999999999477 194.2350093640100397 258.1862899693557551 #
loop $-1 $-1 $488 $317 #
straight-curve $-1 325.1199999999999477 116.4637100306441653 213.2850093640100511 0 24.53451598774232778 -6.574003745604051652 I I #
face $-1 $489 $490 $2 $-1 $491 forward single #
loop $-1 $-1 $492 $333 #
cone-surface $-1 325.1199999999999477 141.8789755157233685 232.7710244842766087 1 0 0 0 0 -6.349999999999999645 1 I I 0 1 6.349999999999999645 forward I I I I #
coedge $-1 $493 $493 $494 $495 reversed $337 $-1 #
coedge $-1 $338 $338 $339 $418 forward $264 $-1 #
edge $-1 $345 0 $419 3.141592653589793116 $417 $496 forward 7 unknown #
vertex $-1 $418 $497 #
straight-curve $-1 325.1199999999999477 141.8789755157233685 167.2789755157233742 25.39999999999999858 0 0 I I #
ellipse-curve $-1 350.519999999999925 141.8789755157233685 160.9289755157233799 1 0 0 0 0 6.349999999999999645 1 I I #
point $-1 325.1199999999999477 141.8789755157232548 154.5789755157234993 #
point $-1 350.519999999999925 141.8789755157233685 154.5789755157233856 #
ellipse-curve $-1 325.1199999999999477 141.8789755157233685 160.9289755157233799 1 0 0 0 -9.023892744153271856e-14 -6.349999999999886846 1 I I #
point $-1 325.1199999999999477 141.878975515723738 167.2789755157234026 #
coedge $-1 $498 $350 $353 $431 forward $428 $-1 #
coedge $-1 $350 $498 $357 $435 reversed $428 $-1 #
loop $-1 $-1 $426 $499 #
straight-curve $-1 337.8199999999999363 239.1362899693558006 180.4149906359899376 0 -24.53451598774233489 6.574003745604030335 I I #
coedge $-1 $353 $352 $500 $501 reversed $354 $-1 #
edge $-1 $355 0 $502 0.4999999999999995559 $426 $503 forward 7 unknown #
face $-1 $504 $354 $2 $-1 $505 forward single #
point $-1 337.8199999999999363 214.6017739816134906 186.9889943815939546 #
coedge $-1 $358 $357 $506 $507 reversed $359 $-1 #
edge $-1 $360 0 $508 0.4999999999999995559 $357 $509 forward 7 unknown #
face $-1 $499 $359 $2 $-1 $510 reversed single #
point $-1 337.8199999999999363 239.1362899693558006 180.4149906359899376 #
coedge $-1 $506 $500 $362 $439 forward $511 $-1 #
edge $-1 $442 0 $440 0.9999999999999990008 $438 $512 forward 7 unknown #
vertex $-1 $507 $513 #
straight-curve $-1 337.8199999999999363 194.2350093640100965 135.5137100306441766 -25.39999999999999858 0 0 I I #
vertex $-1 $439 $514 #
straight-curve $-1 337.8199999999999363 187.6610056184060511 160.0482260183864867 -25.39999999999999858 0 0 I I #
plane-surface $-1 337.8199999999999363 187.6610056184060511 160.0482260183864867 0 -0.9659258262890680902 -0.2588190451025217387 0 6.574003745604051652 -24.53451598774232778 forward_v I I I I #
coedge $-1 $370 $370 $368 $446 forward $449 $-1 #
edge $-1 $372 0 $374 3.141592653589793116 $445 $515 forward 7 unknown #
face $-1 $516 $449 $2 $-1 $517 forward single #
cone-surface $-1 337.8199999999999363 177.7999999999999829 196.8499999999999943 1 0 0 0 0 -25.39999999999999858 1 I I 0 1 25.39999999999999858 forward I I I I #
loop $-1 $518 $370 $447 #
ellipse-curve $-1 350.519999999999925 177.7999999999999829 196.8499999999999943 1 0 0 0 0 25.39999999999999858 1 I I #
point $-1 350.519999999999925 177.7999999999999829 171.4499999999999886 #
point $-1 350.519999999999925 177.7999999999999829 222.25 #
ellipse-curve $-1 185.4199999999999875 177.7999999999999829 196.8499999999999943 -1 0 0 0 0 76.19999999999998863 1 I I #
coedge $-1 $473 $379 $460 $519 forward $390 $-1 #
vertex $-1 $380 $520 #
ellipse-curve $-1 287.0199999999999818 177.7999999999983913 196.8499999999483236 -1 0 0 0 1.601740962087205723e-12 76.2000000000516593 1 I I #
coedge $-1 $398 $521 $381 $458 reversed $481 $-1 #
edge $-1 $400 -1.328770864117464216e-16 $462 0.08343008661055814623 $381 $522 forward 7 unknown #
coedge $-1 $523 $382 $521 $524 forward $461 $-1 #
coedge $-1 $382 $523 $454 $519 reversed $461 $-1 #
loop $-1 $-1 $459 $525 #
vertex $-1 $458 $526 #
straight-curve $-1 261.6199999999999477 184.1499999999999773 272.7849557186938796 25.39999999999999858 0 0 I I #
face $-1 $527 $528 $2 $-1 $529 forward single #
loop $-1 $-1 $530 $384 #
plane-surface $-1 271.1449999999999818 247.6499999999999773 227.3035301730357673 0 -1 0 0 0 -25.39999999999999858 forward_v I I I I #
coedge $-1 $531 $532 $533 $534 reversed $385 $-1 #
coedge $-1 $535 $387 $389 $474 reversed $470 $-1 #
coedge $-1 $387 $535 $480 $536 forward $470 $-1 #
loop $-1 $-1 $468 $537 #
vertex $-1 $399 $538 #
straight-curve $-1 261.6199999999999477 171.4499999999999886 272.7849557186938796 25.39999999999999858 0 0 I I #
coedge $-1 $389 $454 $539 $540 forward $390 $-1 #
edge $-1 $541 0 $391 0.4895651857753509639 $389 $542 forward 7 unknown #
face $-1 $543 $390 $2 $-1 $544 reversed single #
point $-1 287.0199999999999818 171.4499999999999886 272.7849557186938796 #
loop $-1 $-1 $545 $478 #
face $-1 $546 $394 $2 $-1 $547 reversed single #
point $-1 185.4199999999999875 177.7999999999999829 273.0500000000000114 #
coedge $-1 $548 $398 $469 $536 reversed $481 $-1 #
loop $-1 $-1 $398 $549 #
ellipse-curve $-1 261.6199999999999477 177.8000000000014893 196.8499999999504553 -1 0 0 0 -6.350000000001488232 75.93495571874346695 1 I I #
point $-1 261.6199999999999477 177.7999999999999829 273.0500000000000114 #
straight-curve $-1 325.1199999999999477 194.235009364010125 258.1862899693557551 0 -6.574003745604040105 -24.53451598774233133 I I #
face $-1 $550 $551 $2 $-1 $552 forward single #
loop $-1 $-1 $553 $407 #
cone-surface $-1 325.1199999999999477 213.7210244842766258 232.7710244842765803 1 0 0 0 0 -6.349999999999999645 1 I I 0 1 6.349999999999999645 forward I I I I #
coedge $-1 $554 $554 $555 $556 reversed $411 $-1 #
face $-1 $174 $557 $2 $-1 $558 forward single #
loop $-1 $-1 $559 $413 #
cone-surface $-1 325.1199999999999477 141.8789755157233685 232.7710244842766087 1 0 0 0 0 -6.349999999999999645 1 I I 0 1 6.349999999999999645 forward I I I I #
coedge $-1 $560 $494 $561 $562 forward $414 $-1 #
coedge $-1 $416 $416 $563 $564 reversed $337 $-1 #
coedge $-1 $492 $565 $416 $495 forward $414 $-1 #
edge $-1 $566 -4.112196147902851097e-15 $567 3.141592653589878381 $416 $568 forward 7 unknown #
ellipse-curve $-1 350.519999999999925 141.8789755157233685 160.9289755157233799 1 0 0 0 0 -6.349999999999999645 1 I I #
point $-1 350.519999999999925 141.8789755157233685 167.2789755157233742 #
coedge $-1 $427 $426 $569 $570 reversed $428 $-1 #
face $-1 $432 $428 $2 $-1 $571 reversed single #
coedge $-1 $438 $569 $430 $501 forward $511 $-1 #
edge $-1 $502 5.482242916839305705e-16 $442 1.047197551196596521 $500 $572 forward 7 unknown #
vertex $-1 $501 $573 #
straight-curve $-1 337.8199999999999363 214.6017739816134906 186.9889943815939546 -25.39999999999999858 0 0 I I #
face $-1 $574 $511 $2 $-1 $575 forward single #
cone-surface $-1 337.8199999999999363 177.7999999999999829 196.8499999999999943 1 0 0 0 0 -38.09999999999999432 1 I I 0 1 38.09999999999999432 forward I I I I #
coedge $-1 $569 $438 $434 $507 forward $511 $-1 #
edge $-1 $440 2.819439214374502855e-17 $508 1.047197551196596521 $506 $576 forward 7 unknown #
vertex $-1 $507 $577 #
straight-curve $-1 337.8199999999999363 239.1362899693558006 180.4149906359899376 -25.39999999999999858 0 0 I I #
cone-surface $-1 337.8199999999999363 177.7999999999999829 196.8499999999999943 1 0 0 0 0 -63.5 1 I I 0 1 63.5 forward I I I I #
loop $-1 $578 $569 $504 #
straight-curve $-1 325.1199999999999477 187.6610056184060511 160.0482260183864867 0 6.574003745604051652 -24.53451598774232778 I I #
point $-1 325.1199999999999477 194.2350093640100965 135.5137100306441766 #
point $-1 325.1199999999999477 187.6610056184060511 160.0482260183864867 #
ellipse-curve $-1 350.519999999999925 177.7999999999999829 196.8499999999999943 1 0 0 0 0 -25.39999999999999858 1 I I #
face $-1 $579 $580 $2 $-1 $581 forward single #
plane-surface $-1 350.519999999999925 0 0 1 0 0 0 0 -25.39999999999999858 forward_v I I I I #
loop $-1 $-1 $582 $447 #
edge $-1 $455 0 $583 0.4895651857753531844 $454 $584 forward 7 unknown #
point $-1 287.0199999999999818 184.1499999999999773 272.7849557186939364 #
coedge $-1 $457 $548 $459 $524 reversed $481 $-1 #
ellipse-curve $-1 261.6199999999999477 177.7999999999983913 196.8499999999483236 -1 0 0 0 1.601740962087205723e-12 76.2000000000516593 1 I I #
coedge $-1 $460 $459 $585 $586 reversed $461 $-1 #
edge $-1 $462 0 $587 0.4895651857753531844 $521 $588 forward 7 unknown #
face $-1 $549 $461 $2 $-1 $589 reversed single #
point $-1 261.6199999999999477 184.1499999999999773 272.7849557186939364 #
face $-1 $525 $590 $2 $-1 $591 reversed single #
loop $-1 $-1 $592 $464 #
plane-surface $-1 252.0949999999999704 0 0 1 0 0 0 0 -25.39999999999999858 forward_v I I I I #
coedge $-1 $533 $593 $592 $594 reversed $465 $-1 #
coedge $-1 $595 $467 $596 $597 reversed $385 $-1 #
coedge $-1 $467 $595 $598 $599 forward $385 $-1 #
coedge $-1 $600 $530 $467 $534 forward $465 $-1 #
edge $-1 $601 0 $602 0.7500000000000004441 $467 $603 forward 7 unknown #
coedge $-1 $469 $468 $604 $605 forward $470 $-1 #
edge $-1 $606 0 $471 0.4895651857753531844 $480 $607 forward 7 unknown #
face $-1 $475 $470 $2 $-1 $608 reversed single #
point $-1 261.6199999999999477 171.4499999999999886 272.7849557186939364 #
coedge $-1 $585 $604 $473 $540 reversed $609 $-1 #
edge $-1 $583 0 $541 0.4999999999999995559 $473 $610 forward 7 unknown #
vertex $-1 $474 $611 #
straight-curve $-1 287.0199999999999818 171.4499999999999886 260.3499999999999659 0 0 25.39999999999999858 I I #
face $-1 $478 $609 $2 $-1 $612 reversed single #
plane-surface $-1 287.0199999999999818 0 0 1 0 0 0 0 -25.39999999999999858 forward_v I I I I #
coedge $-1 $613 $613 $614 $615 forward $477 $-1 #
face $-1 $616 $617 $2 $-1 $618 forward single #
plane-surface $-1 185.4199999999999875 0 0 1 0 0 0 0 -25.39999999999999858 forward_v I I I I #
coedge $-1 $521 $480 $619 $620 reversed $481 $-1 #
face $-1 $537 $481 $2 $-1 $621 forward single #
face $-1 $225 $622 $2 $-1 $623 forward single #
loop $-1 $-1 $624 $485 #
cone-surface $-1 325.1199999999999477 213.7210244842766258 232.7710244842765803 1 0 0 0 0 -6.349999999999999645 1 I I 0 1 6.349999999999999645 forward I I I I #
coedge $-1 $625 $555 $626 $627 forward $486 $-1 #
coedge $-1 $488 $488 $628 $629 reversed $411 $-1 #
coedge $-1 $553 $630 $488 $556 forward $486 $-1 #
edge $-1 $631 5.59482469102598264e-16 $632 3.141592653589726503 $488 $633 forward 7 unknown #
loop $-1 $-1 $634 $489 #
plane-surface $-1 350.519999999999925 0 0 1 0 0 0 0 -25.39999999999999858 forward_v I I I I #
coedge $-1 $635 $563 $565 $636 forward $490 $-1 #
coedge $-1 $565 $492 $634 $637 reversed $414 $-1 #
coedge $-1 $563 $635 $492 $562 reversed $490 $-1 #
edge $-1 $567 0 $638 0.9999999999999991118 $561 $639 forward 7 unknown #
coedge $-1 $559 $561 $493 $564 forward $490 $-1 #
edge $-1 $567 1.398706172756122677e-16 $566 3.141592653589703854 $493 $640 forward 7 unknown #
coedge $-1 $494 $560 $559 $636 reversed $414 $-1 #
vertex $-1 $564 $641 #
vertex $-1 $564 $642 #
ellipse-curve $-1 325.1199999999999477 141.8789755157233685 232.7710244842766087 1 0 0 0 4.286349053472804068e-13 6.350000000000044942 1 I I #
coedge $-1 $500 $506 $498 $570 forward $511 $-1 #
edge $-1 $508 0 $502 0.9999999999999988898 $569 $643 forward 7 unknown #
plane-surface $-1 337.8199999999999363 239.1362899693558006 180.4149906359899376 0 0.258819045102520906 0.9659258262890683122 0 -24.53451598774233489 6.574003745604030335 forward_v I I I I #
ellipse-curve $-1 325.1199999999999477 177.7999999999999545 196.8500000000000227 -1 0 0 0 36.80177398161355029 -9.861005618406050388 1 I I #
point $-1 325.1199999999999477 214.6017739816134906 186.9889943815939546 #
face $-1 $644 $645 $2 $-1 $646 forward single #
plane-surface $-1 325.1199999999999477 0 0 1 0 0 0 0 -25.39999999999999858 forward_v I I I I #
ellipse-curve $-1 325.1199999999999477 177.7999999999999545 196.8500000000000227 1 0 0 0 16.43500936401014556 -61.33628996935586741 1 I I #
point $-1 325.1199999999999477 239.1362899693558006 180.4149906359899376 #
loop $-1 $-1 $647 $504 #
face $-1 $648 $649 $2 $-1 $650 forward single #
loop $-1 $-1 $651 $516 #
cone-surface $-1 444.5 177.7999999999999829 196.8499999999999943 1 0 0 0 0 -9.524999999999998579 1 I I 0 1 9.524999999999998579 forward I I I I #
coedge $-1 $652 $652 $653 $654 reversed $518 $-1 #
vertex $-1 $540 $655 #
straight-curve $-1 287.0199999999999818 184.1499999999999773 272.7849557186939364 0 0 -25.39999999999999858 I I #
coedge $-1 $619 $539 $523 $586 forward $609 $-1 #
edge $-1 $583 0 $587 1.000000000000001332 $585 $656 forward 7 unknown #
vertex $-1 $524 $657 #
straight-curve $-1 261.6199999999999477 184.1499999999999773 272.7849557186939364 0 0 -25.39999999999999858 I I #
plane-surface $-1 261.6199999999999477 184.1499999999999773 260.3499999999999659 0 1 0 0 0 25.39999999999999858 forward_v I I I I #
loop $-1 $-1 $658 $527 #
plane-surface $-1 271.1449999999999818 0 0 1 0 0 0 0 -25.39999999999999858 forward_v I I I I #
coedge $-1 $596 $596 $530 $594 forward $528 $-1 #
coedge $-1 $530 $600 $595 $659 reversed $465 $-1 #
edge $-1 $601 0 $660 2.397915766161552664 $592 $661 forward 7 unknown #
coedge $-1 $532 $531 $593 $659 forward $385 $-1 #
coedge $-1 $592 $592 $531 $597 forward $528 $-1 #
edge $-1 $660 0 $601 0.8222757231429644875 $531 $662 forward 7 unknown #
coedge $-1 $658 $658 $532 $599 reversed $590 $-1 #
edge $-1 $663 0 $602 0.8222757231429644875 $532 $664 forward 7 unknown #
coedge $-1 $593 $533 $658 $665 forward $465 $-1 #
vertex $-1 $597 $666 #
vertex $-1 $599 $667 #
straight-curve $-1 252.0949999999999704 247.6499999999999773 227.3035301730357673 25.39999999999999858 0 0 I I #
coedge $-1 $539 $619 $535 $605 reversed $609 $-1 #
edge $-1 $541 0 $606 1.000000000000001332 $535 $668 forward 7 unknown #
vertex $-1 $620 $669 #
straight-curve $-1 261.6199999999999477 171.4499999999999886 260.3499999999999659 0 0 25.39999999999999858 I I #
plane-surface $-1 261.6199999999999477 171.4499999999999886 272.7849557186938796 0 -1 0 0 0 -25.39999999999999858 forward_v I I I I #
loop $-1 $-1 $604 $543 #
straight-curve $-1 287.0199999999999818 184.1499999999999773 260.3499999999999659 0 -25.39999999999999858 0 I I #
point $-1 287.0199999999999818 171.4499999999999886 260.3499999999999659 #
plane-surface $-1 261.6199999999999477 171.4499999999999886 260.3499999999999659 0 0 -1 0 25.39999999999999858 0 forward_v I I I I #
coedge $-1 $545 $545 $670 $671 forward $477 $-1 #
coedge $-1 $672 $673 $545 $615 reversed $617 $-1 #
edge $-1 $674 0 $675 3.141592653589793116 $545 $676 forward 7 unknown #
face $-1 $677 $678 $2 $-1 $679 forward single #
loop $-1 $-1 $672 $546 #
cone-surface $-1 444.5 177.7999999999999829 196.8499999999999943 1 0 0 0 0 -9.524999999999998579 1 I I 0 1 9.524999999999998579 forward I I I I #
coedge $-1 $604 $585 $548 $620 forward $609 $-1 #
edge $-1 $587 0 $606 0.4999999999999995559 $548 $680 forward 7 unknown #
plane-surface $-1 261.6199999999999477 0 0 1 0 0 0 0 -25.39999999999999858 forward_v I I I I #
loop $-1 $-1 $681 $550 #
plane-surface $-1 350.519999999999925 0 0 1 0 0 0 0 -25.39999999999999858 forward_v I I I I #
coedge $-1 $682 $628 $630 $683 forward $551 $-1 #
coedge $-1 $630 $553 $681 $684 reversed $486 $-1 #
coedge $-1 $628 $682 $553 $627 reversed $551 $-1 #
edge $-1 $632 0 $685 0.9999999999999991118 $626 $686 forward 7 unknown #
coedge $-1 $624 $626 $554 $629 forward $551 $-1 #
edge $-1 $632 -2.629567604781417971e-15 $631 3.141592653589857509 $554 $687 forward 7 unknown #
coedge $-1 $555 $625 $624 $683 reversed $486 $-1 #
vertex $-1 $629 $688 #
vertex $-1 $629 $689 #
ellipse-curve $-1 325.1199999999999477 213.7210244842766258 232.7710244842765803 1 0 0 0 -4.51194637207663618e-13 6.349999999999864642 1 I I #
coedge $-1 $690 $690 $560 $637 forward $557 $-1 #
coedge $-1 $561 $559 $690 $691 reversed $490 $-1 #
edge $-1 $566 0 $692 0.9999999999999991118 $559 $693 forward 7 unknown #
edge $-1 $692 0 $638 3.141592653589793116 $634 $694 forward 7 unknown #
vertex $-1 $691 $695 #
straight-curve $-1 325.1199999999999477 141.8789755157233685 226.4210244842766144 25.39999999999999858 0 0 I I #
ellipse-curve $-1 325.1199999999999477 141.8789755157233685 232.7710244842766087 1 0 0 0 1.127986593019159045e-13 -6.349999999999909051 1 I I #
point $-1 325.1199999999999477 141.8789755157238233 239.1210244842766599 #
point $-1 325.1199999999999477 141.8789755157234822 226.4210244842766997 #
straight-curve $-1 325.1199999999999477 239.1362899693558006 180.4149906359899376 0 -24.53451598774233489 6.574003745604030335 I I #
face $-1 $696 $697 $2 $-1 $698 forward single #
loop $-1 $-1 $699 $574 #
cone-surface $-1 325.1199999999999477 213.7210244842766258 160.9289755157233799 1 0 0 0 0 -6.349999999999999645 1 I I 0 1 6.349999999999999645 forward I I I I #
coedge $-1 $700 $700 $701 $702 reversed $578 $-1 #
face $-1 $365 $703 $2 $-1 $704 forward single #
loop $-1 $-1 $705 $579 #
cone-surface $-1 444.5 177.7999999999999829 196.8499999999999943 1 0 0 0 0 -9.524999999999998579 1 I I 0 1 9.524999999999998579 forward I I I I #
coedge $-1 $706 $653 $707 $708 reversed $580 $-1 #
coedge $-1 $582 $582 $709 $710 reversed $518 $-1 #
coedge $-1 $651 $711 $582 $654 forward $580 $-1 #
edge $-1 $712 0 $713 3.141592653589793116 $582 $714 forward 7 unknown #
point $-1 287.0199999999999818 184.1499999999999773 260.3499999999999659 #
straight-curve $-1 287.0199999999999818 184.1499999999999773 260.3499999999999659 -25.39999999999999858 0 0 I I #
point $-1 261.6199999999999477 184.1499999999999773 260.3499999999999659 #
coedge $-1 $598 $598 $600 $665 reversed $590 $-1 #
edge $-1 $660 0 $663 0.7500000000000004441 $595 $715 forward 7 unknown #
vertex $-1 $659 $716 #
straight-curve $-1 252.0949999999999704 247.6499999999999773 227.3035302302517664 0 0 -25.39999999999999858 I I #
ellipse-curve $-1 252.0949999999999704 177.7999997256019356 196.8500000000000512 1 0 0 0 69.85000027439805592 -30.45353023025172234 1 I I #
vertex $-1 $599 $717 #
ellipse-curve $-1 271.1449999999999818 177.7999997256019356 196.8500000000000512 1 0 0 0 69.85000027439805592 -30.45353023025172234 1 I I #
edge $-1 $602 0 $663 2.397915766161552664 $658 $718 forward 7 unknown #
point $-1 252.0949999999999704 247.6499999999999773 227.3035302302517664 #
point $-1 271.1449999999999818 247.6499999999999773 227.3035302302517664 #
straight-curve $-1 287.0199999999999818 171.4499999999999886 260.3499999999999659 -25.39999999999999858 0 0 I I #
point $-1 261.6199999999999477 171.4499999999999886 260.3499999999999659 #
coedge $-1 $719 $720 $613 $671 reversed $678 $-1 #
edge $-1 $675 0 $674 3.141592653589793116 $613 $721 forward 7 unknown #
coedge $-1 $722 $614 $720 $723 forward $617 $-1 #
coedge $-1 $614 $722 $719 $724 reversed $617 $-1 #
vertex $-1 $671 $725 #
vertex $-1 $671 $726 #
ellipse-curve $-1 185.4199999999999875 177.7999999999999829 196.8499999999999943 1 0 0 0 0 9.524999999999998579 1 I I #
face $-1 $291 $727 $2 $-1 $728 reversed single #
loop $-1 $-1 $719 $616 #
cone-surface $-1 444.5 177.7999999999999829 196.8499999999999943 1 0 0 0 0 -9.524999999999998579 1 I I 0 1 9.524999999999998579 forward I I I I #
straight-curve $-1 261.6199999999999477 184.1499999999999773 260.3499999999999659 0 -25.39999999999999858 0 I I #
coedge $-1 $729 $729 $625 $684 forward $622 $-1 #
coedge $-1 $626 $624 $729 $730 reversed $551 $-1 #
edge $-1 $631 0 $731 0.9999999999999991118 $624 $732 forward 7 unknown #
edge $-1 $731 0 $685 3.141592653589793116 $681 $733 forward 7 unknown #
vertex $-1 $730 $734 #
straight-curve $-1 325.1199999999999477 213.7210244842766258 226.421024484276586 25.39999999999999858 0 0 I I #
ellipse-curve $-1 325.1199999999999477 213.7210244842766258 232.7710244842765803 1 0 0 0 4.511946372076635928e-14 -6.350000000000134648 1 I I #
point $-1 325.1199999999999477 213.7210244842761711 239.1210244842764325 #
point $-1 325.1199999999999477 213.7210244842766542 226.4210244842764439 #
coedge $-1 $634 $634 $635 $691 forward $557 $-1 #
edge $-1 $638 0 $692 3.141592653589793116 $690 $735 forward 7 unknown #
vertex $-1 $691 $736 #
straight-curve $-1 325.1199999999999477 141.8789755157233685 239.1210244842766315 25.39999999999999858 0 0 I I #
ellipse-curve $-1 350.519999999999925 141.8789755157233685 232.7710244842766087 1 0 0 0 0 6.349999999999999645 1 I I #
point $-1 350.519999999999925 141.8789755157233685 226.4210244842766144 #
face $-1 $-1 $737 $2 $-1 $738 forward single #
loop $-1 $-1 $739 $644 #
cone-surface $-1 325.1199999999999477 213.7210244842766258 160.9289755157233799 1 0 0 0 0 -6.349999999999999645 1 I I 0 1 6.349999999999999645 forward I I I I #
coedge $-1 $740 $701 $741 $742 forward $645 $-1 #
coedge $-1 $647 $647 $743 $744 reversed $578 $-1 #
coedge $-1 $699 $745 $647 $702 forward $645 $-1 #
edge $-1 $746 0 $747 3.141592653589793116 $647 $748 forward 7 unknown #
loop $-1 $-1 $749 $648 #
plane-surface $-1 444.5 0 0 1 0 0 0 0 -25.39999999999999858 forward_v I I I I #
coedge $-1 $750 $709 $711 $751 reversed $649 $-1 #
coedge $-1 $711 $651 $749 $752 reversed $580 $-1 #
coedge $-1 $709 $750 $651 $708 forward $649 $-1 #
edge $-1 $753 0 $713 3.700000000000003286 $707 $754 forward 7 unknown #
coedge $-1 $705 $707 $652 $710 forward $649 $-1 #
edge $-1 $713 0 $712 3.141592653589793116 $652 $755 forward 7 unknown #
coedge $-1 $653 $706 $705 $751 forward $580 $-1 #
vertex $-1 $710 $756 #
vertex $-1 $710 $757 #
ellipse-curve $-1 350.519999999999925 177.7999999999999829 196.8499999999999943 1 0 0 0 0 9.524999999999998579 1 I I #
straight-curve $-1 252.0949999999999704 247.6499999999999773 166.3964698269642213 25.39999999999999858 0 0 I I #
point $-1 252.0949999999999704 247.6499999999999773 166.3964697697483359 #
point $-1 271.1449999999999818 247.6499999999999773 166.3964697697483359 #
straight-curve $-1 271.1449999999999818 247.6499999999999773 227.3035302302517664 0 0 -25.39999999999999858 I I #
coedge $-1 $758 $670 $673 $724 forward $678 $-1 #
coedge $-1 $670 $758 $672 $723 reversed $678 $-1 #
ellipse-curve $-1 185.4199999999999875 177.7999999999999829 196.8499999999999943 1 0 0 0 0 -9.524999999999998579 1 I I #
coedge $-1 $673 $672 $759 $760 forward $617 $-1 #
edge $-1 $674 1.118964938204882167e-15 $761 2.960000000000001297 $720 $762 forward 7 unknown #
edge $-1 $675 1.118964938204882167e-15 $763 2.960000000000001297 $719 $764 forward 7 unknown #
point $-1 185.4199999999999875 177.7999999999999829 206.375 #
point $-1 185.4199999999999875 177.7999999999999829 187.3249999999999886 #
loop $-1 $-1 $759 $677 #
plane-surface $-1 110.23599999999999 0 0 1 0 0 0 25.39999999999999858 0 forward_v I I I I #
coedge $-1 $681 $681 $682 $730 forward $622 $-1 #
edge $-1 $685 0 $731 3.141592653589793116 $729 $765 forward 7 unknown #
vertex $-1 $730 $766 #
straight-curve $-1 325.1199999999999477 213.7210244842766258 239.1210244842765746 25.39999999999999858 0 0 I I #
ellipse-curve $-1 350.519999999999925 213.7210244842766258 232.7710244842765803 1 0 0 0 0 6.349999999999999645 1 I I #
point $-1 350.519999999999925 213.7210244842766258 226.421024484276586 #
ellipse-curve $-1 350.519999999999925 141.8789755157233685 232.7710244842766087 1 0 0 0 0 -6.349999999999999645 1 I I #
point $-1 350.519999999999925 141.8789755157233685 239.1210244842766315 #
loop $-1 $-1 $767 $696 #
plane-surface $-1 350.519999999999925 0 0 1 0 0 0 0 -25.39999999999999858 forward_v I I I I #
coedge $-1 $768 $743 $745 $769 forward $697 $-1 #
coedge $-1 $745 $699 $767 $770 reversed $645 $-1 #
coedge $-1 $743 $768 $699 $742 reversed $697 $-1 #
edge $-1 $747 0 $771 0.9999999999999991118 $741 $772 forward 7 unknown #
coedge $-1 $739 $741 $700 $744 forward $697 $-1 #
edge $-1 $747 0 $746 3.141592653589793116 $700 $773 forward 7 unknown #
coedge $-1 $701 $740 $739 $769 reversed $645 $-1 #
vertex $-1 $744 $774 #
vertex $-1 $744 $775 #
ellipse-curve $-1 325.1199999999999477 213.7210244842766258 160.9289755157233799 1 0 0 0 0 6.349999999999999645 1 I I #
coedge $-1 $776 $776 $706 $752 forward $703 $-1 #
coedge $-1 $707 $705 $776 $777 reversed $649 $-1 #
edge $-1 $778 0 $712 3.700000000000003286 $705 $779 forward 7 unknown #
edge $-1 $778 0 $753 3.141592653589793116 $749 $780 forward 7 unknown #
vertex $-1 $777 $781 #
straight-curve $-1 444.5 177.7999999999999829 187.3249999999999886 -25.39999999999999858 0 0 I I #
ellipse-curve $-1 350.519999999999925 177.7999999999999829 196.8499999999999943 1 0 0 0 0 -9.524999999999998579 1 I I #
point $-1 350.519999999999925 177.7999999999999829 206.375 #
point $-1 350.519999999999925 177.7999999999999829 187.3249999999999886 #
coedge $-1 $720 $719 $782 $783 forward $678 $-1 #
coedge $-1 $782 $782 $722 $760 reversed $727 $-1 #
edge $-1 $761 0 $763 3.141592653589793116 $759 $784 forward 7 unknown #
vertex $-1 $783 $785 #
straight-curve $-1 185.4200000000000159 177.7999999999999829 206.375 -25.39999999999999858 0 0 I I #
vertex $-1 $783 $786 #
straight-curve $-1 185.4200000000000159 177.7999999999999829 187.3249999999999886 -25.39999999999999858 0 0 I I #
ellipse-curve $-1 350.519999999999925 213.7210244842766258 232.7710244842765803 1 0 0 0 0 -6.349999999999999645 1 I I #
point $-1 350.519999999999925 213.7210244842766258 239.1210244842765746 #
coedge $-1 $787 $787 $740 $770 forward $737 $-1 #
coedge $-1 $741 $739 $787 $788 reversed $697 $-1 #
edge $-1 $746 0 $789 0.9999999999999991118 $739 $790 forward 7 unknown #
edge $-1 $789 0 $771 3.141592653589793116 $767 $791 forward 7 unknown #
vertex $-1 $788 $792 #
straight-curve $-1 325.1199999999999477 213.7210244842766258 154.5789755157233856 25.39999999999999858 0 0 I I #
ellipse-curve $-1 325.1199999999999477 213.7210244842766258 160.9289755157233799 1 0 0 0 0 -6.349999999999999645 1 I I #
point $-1 325.1199999999999477 213.7210244842766258 167.2789755157233742 #
point $-1 325.1199999999999477 213.7210244842766258 154.5789755157233856 #
coedge $-1 $749 $749 $750 $777 forward $703 $-1 #
edge $-1 $753 0 $778 3.141592653589793116 $776 $793 forward 7 unknown #
vertex $-1 $777 $794 #
straight-curve $-1 444.5 177.7999999999999829 206.375 -25.39999999999999858 0 0 I I #
ellipse-curve $-1 444.5 177.7999999999999829 196.8499999999999943 1 0 0 0 0 9.524999999999998579 1 I I #
point $-1 444.5 177.7999999999999829 187.3249999999999886 #
coedge $-1 $759 $759 $758 $783 reversed $727 $-1 #
edge $-1 $763 0 $761 3.141592653589793116 $782 $795 forward 7 unknown #
ellipse-curve $-1 110.23599999999999 177.7999999999999829 196.8499999999999943 1 0 0 0 0 9.524999999999998579 1 I I #
point $-1 110.23599999999999 177.7999999999999829 206.375 #
point $-1 110.23599999999999 177.7999999999999829 187.3249999999999886 #
coedge $-1 $767 $767 $768 $788 forward $737 $-1 #
edge $-1 $771 0 $789 3.141592653589793116 $787 $796 forward 7 unknown #
vertex $-1 $788 $797 #
straight-curve $-1 325.1199999999999477 213.7210244842766258 167.2789755157233742 25.39999999999999858 0 0 I I #
ellipse-curve $-1 350.519999999999925 213.7210244842766258 160.9289755157233799 1 0 0 0 0 6.349999999999999645 1 I I #
point $-1 350.519999999999925 213.7210244842766258 154.5789755157233856 #
ellipse-curve $-1 444.5 177.7999999999999829 196.8499999999999943 1 0 0 0 0 -9.524999999999998579 1 I I #
point $-1 444.5 177.7999999999999829 206.375 #
ellipse-curve $-1 110.23599999999999 177.7999999999999829 196.8499999999999943 1 0 0 0 0 -9.524999999999998579 1 I I #
ellipse-curve $-1 350.519999999999925 213.7210244842766258 160.9289755157233799 1 0 0 0 0 -6.349999999999999645 1 I I #
point $-1 350.519999999999925 213.7210244842766258 167.2789755157233742 #
End-of-ACIS-data 