700 0 2 0           
24 FBMach with ACIS - 7.0.3 13 ACIS 7.0.3 NT 24 Wed May 15 15:04:24 2002 
1 9.9999999999999995e-007 1e-010 
body $2 -1 $-1 $3 $-1 $4 #
bdycol-kcp $-1 -1 1 2 $5 $6 #
model_id-kcp-attrib $-1 -1 $-1 $-1 $0 1 1021489464 1021489464 110886913 1 #
lump $-1 -1 $-1 $-1 $7 $0 #
transform $-1 -1 1 0 0 0 1 0 0 0 1 0 0 0 1 rotate no_reflect no_shear #
body $8 -1 $-1 $9 $-1 $10 #
body $11 -1 $-1 $12 $-1 $13 #
shell $-1 -1 $-1 $-1 $-1 $14 $-1 $3 #
rgb_color-st-attrib $-1 -1 $15 $-1 $5 0.5 1 1 #
lump $-1 -1 $-1 $-1 $16 $5 #
transform $-1 -1 1 0 0 0 1 0 0 0 1 25.399999999999995 -25.399999999999995 -3.6407204242656492 1 no_rotate no_reflect no_shear #
model_id-kcp-attrib $-1 -1 $-1 $-1 $6 1 1021489464 1021489464 110886914 1 #
lump $-1 -1 $-1 $-1 $17 $6 #
transform $-1 -1 1 0 0 0 1 0 0 0 1 25.399999999999995 -25.399999999999995 -3.6407204242656492 1 no_rotate no_reflect no_shear #
face $18 -1 $-1 $19 $20 $7 $-1 $21 reversed single #
model_id-kcp-attrib $-1 -1 $-1 $8 $5 1 1021489464 1021489464 101318659 1 #
shell $-1 -1 $-1 $-1 $-1 $22 $-1 $9 #
shell $-1 -1 $-1 $-1 $-1 $23 $-1 $12 #
model_id-kcp-attrib $-1 -1 $-1 $-1 $14 1 1021489464 1021489464 110886913 2 #
face $24 -1 $-1 $25 $26 $7 $-1 $27 forward single #
loop $-1 -1 $-1 $-1 $28 $14 #
plane-surface $-1 -1 $-1 0 0 -2.5399999999999996 0 0 -1 -25.399999999999999 0 0 forward_v I I I I #
face $-1 -1 $-1 $29 $30 $16 $-1 $31 reversed single #
face $32 -1 $-1 $33 $34 $17 $-1 $35 forward single #
model_id-kcp-attrib $-1 -1 $-1 $-1 $19 1 1021489464 1021489464 110886913 3 #
face $36 -1 $-1 $37 $38 $7 $-1 $39 forward single #
loop $-1 -1 $-1 $-1 $40 $19 #
cone-surface $-1 -1 $-1 25.399999999999999 -25.399999999999999 -2.5399999999999996 0 0 -1 -2.5399999999999996 0 0 1 I I 0 1 2.5399999999999996 forward I I I I #
coedge $-1 -1 $-1 $41 $41 $42 $43 reversed $20 $-1 #
face $-1 -1 $-1 $44 $45 $16 $-1 $31 reversed single #
loop $-1 -1 $-1 $-1 $46 $22 #
cone-surface $-1 -1 $-1 -3.5527136788005009e-015 3.5527136788005009e-015 1.1007204242656496 0 0 1 2.5400000000000023 -7.1054273576010003e-015 0 1 I I 0 1 2.5400000000000023 forward I I I I #
model_id-kcp-attrib $-1 -1 $-1 $-1 $23 1 1021489464 1021489464 110886914 2 #
face $47 -1 $-1 $48 $49 $17 $-1 $50 reversed single #
loop $-1 -1 $-1 $-1 $51 $23 #
plane-surface $-1 -1 $-1 0 0 1.1007204242656499 0 0 1 1 0 0 forward_v I I I I #
model_id-kcp-attrib $-1 -1 $-1 $-1 $25 1 1021489464 1021489464 110886913 4 #
face $52 -1 $-1 $-1 $53 $7 $-1 $54 forward single #
loop $-1 -1 $-1 $-1 $55 $25 #
cone-surface $-1 -1 $-1 25.399999999999999 -25.399999999999999 -2.5399999999999996 0 0 -1 -2.5399999999999996 0 0 1 I I 0 1 2.5399999999999996 forward I I I I #
coedge $-1 -1 $-1 $56 $42 $57 $58 forward $26 $-1 #
coedge $-1 -1 $-1 $28 $28 $59 $60 reversed $20 $-1 #
coedge $-1 -1 $-1 $40 $61 $28 $43 forward $26 $-1 #
edge $62 -1 $-1 $63 0 $64 3.1415926535897931 $28 $65 forward @7 unknown #
face $-1 -1 $-1 $66 $67 $16 $-1 $31 reversed single #
loop $-1 -1 $-1 $-1 $68 $29 #
coedge $-1 -1 $-1 $69 $70 $71 $72 reversed $30 $-1 #
model_id-kcp-attrib $-1 -1 $-1 $-1 $33 1 1021489464 1021489464 110886914 3 #
face $-1 -1 $-1 $73 $74 $17 $-1 $75 reversed single #
loop $-1 -1 $-1 $-1 $76 $33 #
plane-surface $-1 -1 $-1 0 0 -1.1007204242656499 0 0 1 1 0 0 forward_v I I I I #
coedge $-1 -1 $-1 $77 $78 $79 $80 forward $34 $-1 #
model_id-kcp-attrib $-1 -1 $-1 $-1 $37 1 1021489464 1021489464 110886913 5 #
loop $-1 -1 $-1 $-1 $81 $37 #
plane-surface $-1 -1 $-1 0 0 -4.7414408485312993 0 0 -1 -25.399999999999999 0 0 forward_v I I I I #
coedge $-1 -1 $-1 $82 $59 $61 $83 forward $38 $-1 #
coedge $-1 -1 $-1 $61 $40 $81 $84 reversed $26 $-1 #
coedge $-1 -1 $-1 $59 $82 $40 $58 reversed $38 $-1 #
edge $-1 -1 $-1 $64 0 $85 0.086670899548476371 $57 $86 forward @7 unknown #
coedge $-1 -1 $-1 $55 $57 $41 $60 forward $38 $-1 #
edge $87 -1 $-1 $64 0 $63 3.1415926535897931 $41 $88 forward @7 unknown #
coedge $-1 -1 $-1 $42 $56 $55 $83 reversed $26 $-1 #
attrib_edge_convexity-kcp-attrib $-1 -1 $89 $-1 $43 1 #
vertex $-1 -1 $-1 $60 $90 #
vertex $-1 -1 $-1 $60 $91 #
ellipse-curve $-1 -1 $-1 25.399999999999999 -25.399999999999999 -2.5399999999999996 0 0 -1 2.5399999999999965 0 0 1 I I #
face $-1 -1 $-1 $92 $93 $16 $-1 $31 reversed single #
loop $-1 -1 $-1 $-1 $94 $44 #
coedge $-1 -1 $-1 $95 $96 $97 $98 reversed $45 $-1 #
coedge $-1 -1 $-1 $99 $46 $100 $101 reversed $30 $-1 #
coedge $-1 -1 $-1 $46 $99 $102 $103 reversed $30 $-1 #
coedge $-1 -1 $-1 $104 $105 $106 $72 forward $107 $-1 #
edge $-1 -1 $-1 $108 -2.2014408485312993 $109 2.2204460492503131e-016 $71 $110 forward @7 unknown #
face $-1 -1 $-1 $111 $112 $17 $-1 $113 reversed single #
loop $-1 -1 $-1 $-1 $114 $48 #
plane-surface $-1 -1 $-1 0 -2.5399999999999991 0 0 1 0 0 0 1 forward_v I I I I #
coedge $-1 -1 $-1 $115 $116 $117 $118 forward $49 $-1 #
coedge $-1 -1 $-1 $119 $51 $120 $121 forward $34 $-1 #
coedge $-1 -1 $-1 $51 $119 $122 $123 forward $34 $-1 #
coedge $-1 -1 $-1 $124 $125 $51 $80 reversed $126 $-1 #
edge $-1 -1 $-1 $127 -2.5399999999999991 $128 2.5399999999999991 $79 $129 forward @7 unknown #
coedge $-1 -1 $-1 $130 $130 $56 $84 forward $53 $-1 #
coedge $-1 -1 $-1 $57 $55 $130 $131 reversed $38 $-1 #
edge $-1 -1 $-1 $63 0 $132 0.086670899548476371 $55 $133 forward @7 unknown #
edge $-1 -1 $-1 $132 5.7696629626189165e-016 $85 3.1415926535897882 $81 $134 forward @7 unknown #
vertex $-1 -1 $-1 $131 $135 #
straight-curve $-1 -1 $-1 22.859999999999999 -25.399999999999999 -2.5399999999999996 0 0 -25.399999999999999 I I #
attrib_edge_convexity-kcp-attrib $-1 -1 $136 $-1 $60 1 #
ellipse-curve $-1 -1 $-1 25.399999999999999 -25.399999999999999 -2.5399999999999996 0 0 -1 -2.5400000000000023 0 0 1 I I #
convexity-sys-attrib $-1 -1 $-1 $62 $43 #
point $-1 -1 $-1 27.939999999999994 -25.399999999999999 -2.5399999999999996 #
point $-1 -1 $-1 22.859999999999996 -25.399999999999999 -2.5399999999999996 #
face $-1 -1 $-1 $137 $138 $16 $-1 $139 reversed single #
loop $-1 -1 $-1 $-1 $140 $66 #
coedge $-1 -1 $-1 $141 $142 $143 $144 reversed $67 $-1 #
coedge $-1 -1 $-1 $145 $68 $146 $147 reversed $45 $-1 #
coedge $-1 -1 $-1 $68 $145 $46 $72 forward $45 $-1 #
coedge $-1 -1 $-1 $148 $149 $68 $98 forward $150 $-1 #
edge $-1 -1 $-1 $151 -3.1415926535897958 $109 -1.5707963267948994 $97 $152 forward @7 unknown #
coedge $-1 -1 $-1 $70 $69 $142 $153 forward $30 $-1 #
coedge $-1 -1 $-1 $154 $155 $69 $101 forward $156 $-1 #
edge $-1 -1 $-1 $157 2.7974123455122029e-015 $108 1.5707963267948994 $100 $158 forward @7 unknown #
coedge $-1 -1 $-1 $159 $160 $70 $103 forward $161 $-1 #
edge $-1 -1 $-1 $109 -1.5707963267948994 $162 -2.7974123455122029e-015 $102 $152 forward @7 unknown #
coedge $-1 -1 $-1 $163 $71 $160 $164 reversed $107 $-1 #
coedge $-1 -1 $-1 $71 $163 $154 $165 reversed $107 $-1 #
coedge $-1 -1 $-1 $166 $167 $96 $72 reversed $168 $-1 #
loop $-1 -1 $-1 $-1 $71 $169 #
vertex $-1 -1 $-1 $165 $170 #
vertex $-1 -1 $-1 $171 $172 #
straight-curve $-1 -1 $-1 -3.5527136788005009e-015 2.5399999999999991 1.1007204242656496 0 0 1 I I #
face $-1 -1 $-1 $173 $174 $17 $-1 $175 reversed single #
loop $-1 -1 $-1 $-1 $176 $73 #
plane-surface $-1 -1 $-1 -2.5400000000000063 0 0 1 0 0 0 0 -1 forward_v I I I I #
coedge $-1 -1 $-1 $177 $122 $178 $179 forward $74 $-1 #
coedge $-1 -1 $-1 $180 $76 $177 $181 forward $49 $-1 #
coedge $-1 -1 $-1 $76 $180 $182 $183 forward $49 $-1 #
coedge $-1 -1 $-1 $125 $124 $76 $118 reversed $126 $-1 #
edge $-1 -1 $-1 $184 -2.5399999999999991 $185 2.5399999999999991 $117 $186 forward @7 unknown #
coedge $-1 -1 $-1 $78 $77 $187 $188 forward $34 $-1 #
coedge $-1 -1 $-1 $189 $190 $77 $121 reversed $174 $-1 #
edge $-1 -1 $-1 $128 -2.5400000000000063 $191 2.5400000000000063 $120 $192 forward @7 unknown #
coedge $-1 -1 $-1 $114 $193 $78 $123 reversed $74 $-1 #
edge $-1 -1 $-1 $194 -2.5400000000000063 $127 2.5400000000000063 $122 $195 forward @7 unknown #
coedge $-1 -1 $-1 $117 $79 $193 $196 forward $126 $-1 #
coedge $-1 -1 $-1 $79 $117 $189 $197 reversed $126 $-1 #
loop $-1 -1 $-1 $-1 $124 $173 #
vertex $-1 -1 $-1 $80 $198 #
vertex $-1 -1 $-1 $80 $199 #
straight-curve $-1 -1 $-1 2.5400000000000063 0 1.1007204242656499 0 1 0 I I #
coedge $-1 -1 $-1 $81 $81 $82 $131 forward $53 $-1 #
edge $-1 -1 $-1 $85 -2.8848314813094725e-016 $132 3.1415926535897953 $130 $200 forward @7 unknown #
vertex $-1 -1 $-1 $131 $201 #
straight-curve $-1 -1 $-1 27.940000000000001 -25.399999999999999 -2.5399999999999996 0 0 -25.399999999999999 I I #
ellipse-curve $-1 -1 $-1 25.399999999999991 -25.399999999999991 -4.7414408485312993 0 0 -1 2.5400000000000023 -5.6399329650957949e-015 0 1 I I #
point $-1 -1 $-1 22.859999999999996 -25.399999999999999 -4.7414408485312993 #
convexity-sys-attrib $-1 -1 $-1 $87 $60 #
face $-1 -1 $-1 $202 $168 $16 $-1 $203 reversed single #
loop $-1 -1 $-1 $-1 $204 $92 #
plane-surface $-1 -1 $-1 2.5400000000000063 0 0 -1 0 0 0 0 1 forward_v I I I I #
coedge $-1 -1 $-1 $205 $206 $207 $208 reversed $93 $-1 #
coedge $-1 -1 $-1 $209 $94 $206 $210 forward $67 $-1 #
coedge $-1 -1 $-1 $94 $209 $211 $153 reversed $67 $-1 #
coedge $-1 -1 $-1 $212 $213 $94 $144 forward $214 $-1 #
edge $-1 -1 $-1 $215 -1.5707963267948939 $157 2.7974123455122029e-015 $143 $158 forward @7 unknown #
coedge $-1 -1 $-1 $96 $95 $216 $217 reversed $45 $-1 #
coedge $-1 -1 $-1 $218 $219 $220 $147 forward $221 $-1 #
edge $-1 -1 $-1 $222 -2.2014408485312993 $151 2.2204460492503131e-016 $146 $223 forward @7 unknown #
coedge $-1 -1 $-1 $149 $97 $167 $171 forward $150 $-1 #
coedge $-1 -1 $-1 $97 $148 $218 $224 forward $150 $-1 #
loop $-1 -1 $-1 $-1 $97 $225 #
vertex $-1 -1 $-1 $226 $227 #
ellipse-curve $-1 -1 $-1 -3.5527136788005009e-015 3.5527136788005009e-015 1.1007204242656499 0 0 -1 2.5400000000000023 -7.1054273576010003e-015 0 1 I I #
edge $-1 -1 $-1 $157 -2.2014408485312993 $162 2.2204460492503131e-016 $211 $228 forward @7 unknown #
coedge $-1 -1 $-1 $155 $100 $105 $165 forward $156 $-1 #
coedge $-1 -1 $-1 $100 $154 $229 $230 forward $156 $-1 #
loop $-1 -1 $-1 $-1 $100 $231 #
vertex $-1 -1 $-1 $232 $233 #
ellipse-curve $-1 -1 $-1 -3.5527136788005009e-015 3.5527136788005009e-015 -1.1007204242656496 0 0 1 2.5400000000000023 -7.1054273576010003e-015 0 1 I I #
coedge $-1 -1 $-1 $160 $102 $234 $235 forward $161 $-1 #
coedge $-1 -1 $-1 $102 $159 $104 $164 forward $161 $-1 #
loop $-1 -1 $-1 $-1 $102 $236 #
vertex $-1 -1 $-1 $235 $237 #
coedge $-1 -1 $-1 $105 $104 $238 $239 forward $107 $-1 #
edge $-1 -1 $-1 $240 -2.5400000000000063 $109 3.5527136788005009e-015 $104 $241 forward @7 unknown #
edge $-1 -1 $-1 $108 -3.5527136788005009e-015 $242 2.5400000000000063 $105 $243 forward @7 unknown #
coedge $-1 -1 $-1 $244 $106 $245 $246 reversed $168 $-1 #
coedge $-1 -1 $-1 $106 $244 $148 $171 reversed $168 $-1 #
loop $-1 -1 $-1 $-1 $106 $137 #
face $-1 -1 $-1 $247 $107 $16 $-1 $203 reversed single #
point $-1 -1 $-1 -3.5527136788005009e-015 2.5399999999999991 -1.1007204242656496 #
edge $-1 -1 $-1 $109 3.5527136788005009e-015 $248 2.5400000000000063 $167 $241 forward @7 unknown #
point $-1 -1 $-1 -3.5527136788005009e-015 2.5399999999999991 1.1007204242656499 #
face $-1 -1 $-1 $-1 $126 $17 $-1 $249 reversed single #
loop $-1 -1 $-1 $-1 $189 $111 #
plane-surface $-1 -1 $-1 0 2.5399999999999991 0 0 -1 0 0 0 -1 forward_v I I I I #
coedge $-1 -1 $-1 $250 $187 $190 $251 forward $112 $-1 #
coedge $-1 -1 $-1 $193 $114 $115 $181 reversed $74 $-1 #
coedge $-1 -1 $-1 $187 $250 $114 $179 reversed $112 $-1 #
edge $-1 -1 $-1 $194 -1.1007204242656499 $252 1.1007204242656499 $178 $253 forward @7 unknown #
coedge $-1 -1 $-1 $116 $115 $250 $254 forward $49 $-1 #
edge $-1 -1 $-1 $185 -2.5400000000000063 $252 2.5400000000000063 $177 $255 forward @7 unknown #
coedge $-1 -1 $-1 $190 $189 $116 $183 reversed $174 $-1 #
edge $-1 -1 $-1 $256 -2.5400000000000063 $184 2.5400000000000063 $182 $257 forward @7 unknown #
vertex $-1 -1 $-1 $118 $258 #
vertex $-1 -1 $-1 $196 $259 #
straight-curve $-1 -1 $-1 2.5400000000000063 0 -1.1007204242656499 0 -1 0 I I #
coedge $-1 -1 $-1 $176 $178 $119 $188 reversed $112 $-1 #
edge $-1 -1 $-1 $191 -2.5399999999999991 $194 2.5399999999999991 $187 $260 forward @7 unknown #
coedge $-1 -1 $-1 $182 $120 $125 $197 forward $174 $-1 #
coedge $-1 -1 $-1 $120 $182 $176 $251 reversed $174 $-1 #
vertex $-1 -1 $-1 $121 $261 #
straight-curve $-1 -1 $-1 0 2.5399999999999991 1.1007204242656499 -1 0 0 I I #
coedge $-1 -1 $-1 $122 $177 $124 $196 reversed $74 $-1 #
vertex $-1 -1 $-1 $188 $262 #
straight-curve $-1 -1 $-1 0 -2.5399999999999991 1.1007204242656499 1 0 0 I I #
edge $-1 -1 $-1 $127 -1.1007204242656499 $185 1.1007204242656499 $124 $263 forward @7 unknown #
edge $-1 -1 $-1 $128 -1.1007204242656499 $184 1.1007204242656499 $125 $264 forward @7 unknown #
point $-1 -1 $-1 2.5400000000000063 -2.5399999999999991 1.1007204242656499 #
point $-1 -1 $-1 2.5400000000000063 2.5399999999999991 1.1007204242656499 #
ellipse-curve $-1 -1 $-1 25.399999999999991 -25.399999999999995 -4.7414408485312993 0 0 -1 -2.5399999999999965 -2.8199664825478975e-015 0 1 I I #
point $-1 -1 $-1 27.939999999999994 -25.399999999999999 -4.7414408485312993 #
face $-1 -1 $-1 $265 $266 $16 $-1 $267 reversed single #
plane-surface $-1 -1 $-1 0 2.5399999999999991 0 0 -1 0 0 0 -1 forward_v I I I I #
coedge $-1 -1 $-1 $229 $234 $99 $153 reversed $138 $-1 #
coedge $-1 -1 $-1 $268 $140 $95 $147 forward $93 $-1 #
coedge $-1 -1 $-1 $140 $268 $269 $210 reversed $93 $-1 #
coedge $-1 -1 $-1 $270 $271 $140 $208 forward $272 $-1 #
edge $-1 -1 $-1 $222 -3.1415926535897905 $215 -1.5707963267948939 $207 $158 forward @7 unknown #
coedge $-1 -1 $-1 $142 $141 $273 $274 reversed $67 $-1 #
edge $-1 -1 $-1 $215 -2.2014408485312993 $275 2.2204460492503131e-016 $269 $276 forward @7 unknown #
coedge $-1 -1 $-1 $277 $278 $204 $153 forward $279 $-1 #
coedge $-1 -1 $-1 $213 $143 $278 $232 forward $214 $-1 #
coedge $-1 -1 $-1 $143 $212 $280 $281 forward $214 $-1 #
loop $-1 -1 $-1 $-1 $143 $282 #
vertex $-1 -1 $-1 $283 $284 #
coedge $-1 -1 $-1 $285 $245 $145 $217 forward $286 $-1 #
edge $-1 -1 $-1 $108 1.5707963267948994 $222 3.1415926535897958 $216 $158 forward @7 unknown #
coedge $-1 -1 $-1 $287 $146 $149 $224 reversed $221 $-1 #
coedge $-1 -1 $-1 $146 $287 $285 $288 reversed $221 $-1 #
coedge $-1 -1 $-1 $289 $290 $205 $147 reversed $266 $-1 #
loop $-1 -1 $-1 $-1 $146 $291 #
vertex $-1 -1 $-1 $288 $292 #
straight-curve $-1 -1 $-1 -2.5400000000000063 3.5527136788005009e-015 1.1007204242656496 0 0 1 I I #
edge $-1 -1 $-1 $248 -2.5399999999999991 $151 -3.5527136788005009e-015 $218 $293 forward @7 unknown #
face $-1 -1 $-1 $236 $150 $16 $-1 $294 forward single #
edge $-1 -1 $-1 $151 -3.5527136788005009e-015 $295 2.5399999999999991 $290 $293 forward @7 unknown #
point $-1 -1 $-1 -2.5400000000000063 3.5527136788005009e-015 1.1007204242656499 #
straight-curve $-1 -1 $-1 2.5400000000000063 3.5527136788005009e-015 1.1007204242656496 0 0 1 I I #
coedge $-1 -1 $-1 $238 $204 $155 $230 reversed $138 $-1 #
edge $-1 -1 $-1 $242 -2.5399999999999991 $157 -3.5527136788005009e-015 $229 $296 forward @7 unknown #
face $-1 -1 $-1 $297 $156 $16 $-1 $298 reversed single #
edge $-1 -1 $-1 $157 -3.5527136788005009e-015 $299 2.5399999999999991 $278 $296 forward @7 unknown #
point $-1 -1 $-1 2.5400000000000063 3.5527136788005009e-015 -1.1007204242656496 #
coedge $-1 -1 $-1 $204 $238 $159 $235 reversed $138 $-1 #
edge $-1 -1 $-1 $162 3.5527136788005009e-015 $240 2.5399999999999991 $234 $300 forward @7 unknown #
face $-1 -1 $-1 $301 $161 $16 $-1 $294 forward single #
point $-1 -1 $-1 2.5400000000000063 3.5527136788005009e-015 1.1007204242656499 #
coedge $-1 -1 $-1 $234 $229 $163 $239 reversed $138 $-1 #
edge $-1 -1 $-1 $240 -1.1007204242656499 $242 1.1007204242656499 $238 $302 forward @7 unknown #
vertex $-1 -1 $-1 $235 $303 #
straight-curve $-1 -1 $-1 0 2.5399999999999991 1.1007204242656499 -1 0 0 I I #
vertex $-1 -1 $-1 $230 $304 #
straight-curve $-1 -1 $-1 0 2.5399999999999991 -1.1007204242656499 1 0 0 I I #
coedge $-1 -1 $-1 $167 $166 $287 $305 reversed $168 $-1 #
coedge $-1 -1 $-1 $216 $285 $166 $246 forward $286 $-1 #
edge $-1 -1 $-1 $306 -2.5400000000000063 $108 -3.5527136788005009e-015 $166 $243 forward @7 unknown #
face $-1 -1 $-1 $-1 $279 $16 $-1 $139 reversed single #
vertex $-1 -1 $-1 $171 $307 #
plane-surface $-1 -1 $-1 2.5400000000000063 0 0 -1 0 0 0 0 1 forward_v I I I I #
coedge $-1 -1 $-1 $178 $176 $180 $254 reversed $112 $-1 #
edge $-1 -1 $-1 $191 -1.1007204242656499 $256 1.1007204242656499 $190 $308 forward @7 unknown #
vertex $-1 -1 $-1 $254 $309 #
straight-curve $-1 -1 $-1 -2.5400000000000063 -2.5399999999999991 0 0 0 -1 I I #
edge $-1 -1 $-1 $252 -2.5399999999999991 $256 2.5399999999999991 $250 $310 forward @7 unknown #
straight-curve $-1 -1 $-1 0 -2.5399999999999991 -1.1007204242656499 -1 0 0 I I #
vertex $-1 -1 $-1 $183 $311 #
straight-curve $-1 -1 $-1 0 2.5399999999999991 -1.1007204242656499 1 0 0 I I #
point $-1 -1 $-1 2.5400000000000063 2.5399999999999991 -1.1007204242656499 #
point $-1 -1 $-1 2.5400000000000063 -2.5399999999999991 -1.1007204242656499 #
straight-curve $-1 -1 $-1 -2.5400000000000063 0 1.1007204242656499 0 -1 0 I I #
point $-1 -1 $-1 -2.5400000000000063 2.5399999999999991 1.1007204242656499 #
point $-1 -1 $-1 -2.5400000000000063 -2.5399999999999991 1.1007204242656499 #
straight-curve $-1 -1 $-1 2.5400000000000063 -2.5399999999999991 0 0 0 -1 I I #
straight-curve $-1 -1 $-1 2.5400000000000063 2.5399999999999991 0 0 0 -1 I I #
face $-1 -1 $-1 $225 $312 $16 $-1 $294 forward single #
loop $-1 -1 $-1 $-1 $220 $202 #
plane-surface $-1 -1 $-1 -2.5400000000000063 0 0 1 0 0 0 0 -1 forward_v I I I I #
coedge $-1 -1 $-1 $206 $205 $313 $314 reversed $93 $-1 #
coedge $-1 -1 $-1 $315 $316 $317 $210 forward $318 $-1 #
coedge $-1 -1 $-1 $271 $207 $316 $283 forward $272 $-1 #
coedge $-1 -1 $-1 $207 $270 $289 $319 forward $272 $-1 #
loop $-1 -1 $-1 $-1 $207 $320 #
coedge $-1 -1 $-1 $321 $322 $209 $274 forward $323 $-1 #
edge $-1 -1 $-1 $162 -2.7974123455122029e-015 $275 1.5707963267948939 $273 $152 forward @7 unknown #
vertex $-1 -1 $-1 $324 $325 #
straight-curve $-1 -1 $-1 -3.5527136788005009e-015 -2.5399999999999991 1.1007204242656496 0 0 1 I I #
coedge $-1 -1 $-1 $326 $211 $322 $327 reversed $279 $-1 #
coedge $-1 -1 $-1 $211 $326 $212 $232 reversed $279 $-1 #
loop $-1 -1 $-1 $-1 $211 $247 #
coedge $-1 -1 $-1 $328 $317 $213 $281 reversed $329 $-1 #
edge $-1 -1 $-1 $299 -2.5400000000000063 $215 3.5527136788005009e-015 $280 $330 forward @7 unknown #
face $-1 -1 $-1 $231 $214 $16 $-1 $298 reversed single #
edge $-1 -1 $-1 $215 3.5527136788005009e-015 $331 2.5400000000000063 $316 $330 forward @7 unknown #
point $-1 -1 $-1 -3.5527136788005009e-015 -2.5399999999999991 -1.1007204242656496 #
coedge $-1 -1 $-1 $245 $216 $219 $288 forward $286 $-1 #
loop $-1 -1 $-1 $-1 $216 $297 #
coedge $-1 -1 $-1 $219 $218 $244 $305 forward $221 $-1 #
edge $-1 -1 $-1 $222 3.5527136788005009e-015 $306 2.5399999999999991 $219 $332 forward @7 unknown #
coedge $-1 -1 $-1 $333 $220 $271 $319 reversed $266 $-1 #
coedge $-1 -1 $-1 $220 $333 $334 $226 reversed $266 $-1 #
face $-1 -1 $-1 $169 $221 $16 $-1 $267 reversed single #
point $-1 -1 $-1 -2.5400000000000063 3.5527136788005009e-015 -1.1007204242656496 #
straight-curve $-1 -1 $-1 -2.5400000000000063 0 1.1007204242656499 0 -1 0 I I #
plane-surface $-1 -1 $-1 0 0 1.1007204242656499 0 0 1 1 0 0 forward_v I I I I #
vertex $-1 -1 $-1 $226 $335 #
straight-curve $-1 -1 $-1 2.5400000000000063 0 -1.1007204242656499 0 -1 0 I I #
face $-1 -1 $-1 $336 $286 $16 $-1 $298 reversed single #
plane-surface $-1 -1 $-1 0 0 -1.1007204242656499 0 0 1 1 0 0 forward_v I I I I #
vertex $-1 -1 $-1 $337 $338 #
straight-curve $-1 -1 $-1 2.5400000000000063 0 1.1007204242656499 0 1 0 I I #
face $-1 -1 $-1 $339 $323 $16 $-1 $294 forward single #
straight-curve $-1 -1 $-1 2.5400000000000063 2.5399999999999991 0 0 0 -1 I I #
point $-1 -1 $-1 2.5400000000000063 2.5399999999999991 1.1007204242656499 #
point $-1 -1 $-1 2.5400000000000063 2.5399999999999991 -1.1007204242656499 #
edge $-1 -1 $-1 $248 -1.1007204242656499 $306 1.1007204242656499 $244 $340 forward @7 unknown #
vertex $-1 -1 $-1 $246 $341 #
point $-1 -1 $-1 -2.5400000000000063 2.5399999999999991 1.1007204242656499 #
straight-curve $-1 -1 $-1 -2.5400000000000063 2.5399999999999991 0 0 0 -1 I I #
point $-1 -1 $-1 -2.5400000000000063 -2.5399999999999991 -1.1007204242656499 #
straight-curve $-1 -1 $-1 -2.5400000000000063 0 -1.1007204242656499 0 1 0 I I #
point $-1 -1 $-1 -2.5400000000000063 2.5399999999999991 -1.1007204242656499 #
loop $-1 -1 $-1 $-1 $313 $265 #
coedge $-1 -1 $-1 $334 $342 $268 $314 forward $312 $-1 #
edge $-1 -1 $-1 $275 1.5707963267948939 $151 3.1415926535897905 $313 $152 forward @7 unknown #
coedge $-1 -1 $-1 $343 $269 $342 $344 reversed $318 $-1 #
coedge $-1 -1 $-1 $269 $343 $270 $283 reversed $318 $-1 #
coedge $-1 -1 $-1 $280 $345 $141 $210 reversed $329 $-1 #
loop $-1 -1 $-1 $-1 $269 $336 #
edge $-1 -1 $-1 $331 -2.5399999999999991 $222 3.5527136788005009e-015 $289 $332 forward @7 unknown #
face $-1 -1 $-1 $282 $272 $16 $-1 $298 reversed single #
coedge $-1 -1 $-1 $322 $273 $345 $324 forward $323 $-1 #
coedge $-1 -1 $-1 $273 $321 $277 $327 forward $323 $-1 #
loop $-1 -1 $-1 $-1 $273 $301 #
edge $-1 -1 $-1 $275 -3.5527136788005009e-015 $346 2.5400000000000063 $345 $347 forward @7 unknown #
point $-1 -1 $-1 -3.5527136788005009e-015 -2.5399999999999991 1.1007204242656499 #
coedge $-1 -1 $-1 $278 $277 $328 $337 forward $279 $-1 #
edge $-1 -1 $-1 $346 -2.5399999999999991 $162 3.5527136788005009e-015 $277 $300 forward @7 unknown #
coedge $-1 -1 $-1 $345 $280 $326 $337 reversed $329 $-1 #
loop $-1 -1 $-1 $-1 $317 $339 #
straight-curve $-1 -1 $-1 0 -2.5399999999999991 -1.1007204242656499 -1 0 0 I I #
vertex $-1 -1 $-1 $319 $348 #
straight-curve $-1 -1 $-1 -2.5400000000000063 0 -1.1007204242656499 0 1 0 I I #
coedge $-1 -1 $-1 $290 $289 $343 $349 reversed $266 $-1 #
coedge $-1 -1 $-1 $342 $313 $290 $226 forward $312 $-1 #
point $-1 -1 $-1 -2.5400000000000063 -2.5399999999999991 1.1007204242656499 #
face $-1 -1 $-1 $291 $318 $16 $-1 $350 reversed single #
edge $-1 -1 $-1 $346 -1.1007204242656499 $299 1.1007204242656499 $326 $351 forward @7 unknown #
point $-1 -1 $-1 2.5400000000000063 -2.5399999999999991 -1.1007204242656499 #
face $-1 -1 $-1 $320 $329 $16 $-1 $350 reversed single #
straight-curve $-1 -1 $-1 -2.5400000000000063 2.5399999999999991 0 0 0 -1 I I #
point $-1 -1 $-1 -2.5400000000000063 2.5399999999999991 -1.1007204242656499 #
coedge $-1 -1 $-1 $313 $334 $315 $344 forward $312 $-1 #
coedge $-1 -1 $-1 $316 $315 $333 $349 forward $318 $-1 #
edge $-1 -1 $-1 $295 -2.5400000000000063 $275 -3.5527136788005009e-015 $315 $347 forward @7 unknown #
coedge $-1 -1 $-1 $317 $328 $321 $324 reversed $329 $-1 #
vertex $-1 -1 $-1 $327 $352 #
straight-curve $-1 -1 $-1 0 -2.5399999999999991 1.1007204242656499 1 0 0 I I #
point $-1 -1 $-1 -2.5400000000000063 -2.5399999999999991 -1.1007204242656499 #
edge $-1 -1 $-1 $295 -1.1007204242656499 $331 1.1007204242656499 $333 $353 forward @7 unknown #
plane-surface $-1 -1 $-1 0 -2.5399999999999991 0 0 1 0 0 0 1 forward_v I I I I #
straight-curve $-1 -1 $-1 2.5400000000000063 -2.5399999999999991 0 0 0 -1 I I #
point $-1 -1 $-1 2.5400000000000063 -2.5399999999999991 1.1007204242656499 #
straight-curve $-1 -1 $-1 -2.5400000000000063 -2.5399999999999991 0 0 0 -1 I I #
End-of-ACIS-data 