600 0 1 0           
92 GICL Pro/E ACIS Translator - Source: f:/data5/repository/PTC/V18/piping18/py452566.prt - 6 0 13 ACIS 6.0.3 NT 24 Thu Apr 04 09:58:07 2002 
1 9.9999999999999995e-007 1e-010 
body $-1 $1 $-1 $2 #
lump $-1 $-1 $3 $0 #
transform $-1 1 0 0 0 1 0 0 0 1 0 0 0 25.399999999999999 no_rotate no_reflect no_shear #
shell $-1 $-1 $-1 $4 $-1 $1 #
face $-1 $5 $6 $3 $-1 $7 reversed single #
face $-1 $8 $9 $3 $-1 $10 forward single #
loop $-1 $-1 $11 $4 #
plane-surface $-1 0 0 -0.099999999999999992 0 0 -1 -1 0 0 forward_v I I I I #
face $-1 $12 $13 $3 $-1 $14 forward single #
loop $-1 $-1 $15 $5 #
cone-surface $-1 1 -1 -0.099999999999999992 0 0 -1 -0.099999999999999992 0 0 1 I I 0 1 0.099999999999999992 forward I I I I #
coedge $-1 $16 $16 $17 $18 reversed $6 $-1 #
face $-1 $-1 $19 $3 $-1 $20 forward single #
loop $-1 $-1 $21 $8 #
cone-surface $-1 1 -1 -0.099999999999999992 0 0 -1 -0.099999999999999992 0 0 1 I I 0 1 0.099999999999999992 forward I I I I #
coedge $-1 $22 $17 $23 $24 forward $9 $-1 #
coedge $-1 $11 $11 $25 $26 reversed $6 $-1 #
coedge $-1 $15 $27 $11 $18 forward $9 $-1 #
edge $-1 $28 0 $29 3.1415926535897931 $11 $30 forward 7 unknown #
loop $-1 $-1 $31 $12 #
plane-surface $-1 0 0 -0.18667089954847638 0 0 -1 -1 0 0 forward_v I I I I #
coedge $-1 $32 $25 $27 $33 forward $13 $-1 #
coedge $-1 $27 $15 $31 $34 reversed $9 $-1 #
coedge $-1 $25 $32 $15 $24 reversed $13 $-1 #
edge $-1 $29 0 $35 0.086670899548476385 $23 $36 forward 7 unknown #
coedge $-1 $21 $23 $16 $26 forward $13 $-1 #
edge $-1 $29 0 $28 3.1415926535897931 $16 $37 forward 7 unknown #
coedge $-1 $17 $22 $21 $33 reversed $9 $-1 #
vertex $-1 $26 $38 #
vertex $-1 $26 $39 #
ellipse-curve $-1 1 -1 -0.099999999999999992 0 0 -1 0.099999999999999867 0 0 1 I I #
coedge $-1 $40 $40 $22 $34 forward $19 $-1 #
coedge $-1 $23 $21 $40 $41 reversed $13 $-1 #
edge $-1 $28 0 $42 0.086670899548476385 $21 $43 forward 7 unknown #
edge $-1 $42 0 $35 3.1415926535897887 $31 $44 forward 7 unknown #
vertex $-1 $41 $45 #
straight-curve $-1 0.90000000000000002 -1 -0.099999999999999992 0 0 -1 I I #
ellipse-curve $-1 1 -1 -0.099999999999999992 0 0 -1 -0.10000000000000009 0 0 1 I I #
point $-1 1.0999999999999999 -1 -0.099999999999999992 #
point $-1 0.89999999999999991 -1 -0.099999999999999992 #
coedge $-1 $31 $31 $32 $41 forward $19 $-1 #
edge $-1 $35 0 $42 3.1415926535897953 $40 $46 forward 7 unknown #
vertex $-1 $41 $47 #
straight-curve $-1 1.1000000000000001 -1 -0.099999999999999992 0 0 -1 I I #
ellipse-curve $-1 0.99999999999999978 -0.99999999999999978 -0.18667089954847638 0 0 -1 0.10000000000000009 -2.2204460492503131e-016 0 1 I I #
point $-1 0.89999999999999991 -1 -0.18667089954847638 #
ellipse-curve $-1 0.99999999999999978 -0.99999999999999989 -0.18667089954847638 0 0 -1 -0.099999999999999867 -1.1102230246251565e-016 0 1 I I #
point $-1 1.0999999999999999 -1 -0.18667089954847638 #
End-of-ACIS-data 