600 0 1 0           
89 GICL ACIS Healer - Source: /gicl/data5/repository/PTC/V18/piping18/py452566.prt.sat - 6 0 18 ACIS 6.0.3 Solaris 24 Sat Apr 13 21:24:56 2002 
1 9.999999999999999547e-07 1.000000000000000036e-10 
body $-1 $1 $-1 $-1 #
lump $-1 $-1 $2 $0 #
shell $-1 $-1 $-1 $3 $-1 $1 #
face $-1 $4 $5 $2 $-1 $6 reversed single #
face $-1 $7 $8 $2 $-1 $9 forward single #
loop $-1 $-1 $10 $3 #
plane-surface $-1 0 0 -2.539999999999999591 0 0 -1 -25.39999999999999858 0 0 forward_v I I I I #
face $-1 $11 $12 $2 $-1 $13 forward single #
loop $-1 $-1 $14 $4 #
cone-surface $-1 25.39999999999999858 -25.39999999999999858 -2.539999999999999591 0 0 -1 -2.539999999999999591 0 0 1 I I 0 1 2.539999999999999591 forward I I I I #
coedge $-1 $15 $15 $16 $17 reversed $5 $-1 #
face $-1 $-1 $18 $2 $-1 $19 forward single #
loop $-1 $-1 $20 $7 #
cone-surface $-1 25.39999999999999858 -25.39999999999999858 -2.539999999999999591 0 0 -1 -2.539999999999999591 0 0 1 I I 0 1 2.539999999999999591 forward I I I I #
coedge $-1 $21 $16 $22 $23 forward $8 $-1 #
coedge $-1 $10 $10 $24 $25 reversed $5 $-1 #
coedge $-1 $14 $26 $10 $17 forward $8 $-1 #
edge $-1 $27 0 $28 3.141592653589793116 $10 $29 forward 7 unknown #
loop $-1 $-1 $30 $11 #
plane-surface $-1 0 0 -4.741440848531299324 0 0 -1 -25.39999999999999858 0 0 forward_v I I I I #
coedge $-1 $31 $24 $26 $32 forward $12 $-1 #
coedge $-1 $26 $14 $30 $33 reversed $8 $-1 #
coedge $-1 $24 $31 $14 $23 reversed $12 $-1 #
edge $-1 $28 0 $34 0.08667089954847637112 $22 $35 forward 7 unknown #
coedge $-1 $20 $22 $15 $25 forward $12 $-1 #
edge $-1 $28 0 $27 3.141592653589793116 $15 $36 forward 7 unknown #
coedge $-1 $16 $21 $20 $32 reversed $8 $-1 #
vertex $-1 $25 $37 #
vertex $-1 $25 $38 #
ellipse-curve $-1 25.39999999999999858 -25.39999999999999858 -2.539999999999999591 0 0 -1 2.539999999999996483 0 0 1 I I #
coedge $-1 $39 $39 $21 $33 forward $18 $-1 #
coedge $-1 $22 $20 $39 $40 reversed $12 $-1 #
edge $-1 $27 0 $41 0.08667089954847637112 $20 $42 forward 7 unknown #
edge $-1 $41 5.769662962618916463e-16 $34 3.141592653589788231 $30 $43 forward 7 unknown #
vertex $-1 $40 $44 #
straight-curve $-1 22.85999999999999943 -25.39999999999999858 -2.539999999999999591 0 0 -25.39999999999999858 I I #
ellipse-curve $-1 25.39999999999999858 -25.39999999999999858 -2.539999999999999591 0 0 -1 -2.540000000000002256 0 0 1 I I #
point $-1 27.93999999999999417 -25.39999999999999858 -2.539999999999999591 #
point $-1 22.85999999999999588 -25.39999999999999858 -2.539999999999999591 #
coedge $-1 $30 $30 $31 $40 forward $18 $-1 #
edge $-1 $34 -2.884831481309472529e-16 $41 3.141592653589795336 $39 $45 forward 7 unknown #
vertex $-1 $40 $46 #
straight-curve $-1 27.94000000000000128 -25.39999999999999858 -2.539999999999999591 0 0 -25.39999999999999858 I I #
ellipse-curve $-1 25.39999999999999147 -25.39999999999999147 -4.741440848531299324 0 0 -1 2.540000000000002256 -5.63993296509579491e-15 0 1 I I #
point $-1 22.85999999999999588 -25.39999999999999858 -4.741440848531299324 #
ellipse-curve $-1 25.39999999999999147 -25.39999999999999503 -4.741440848531299324 0 0 -1 -2.539999999999996483 -2.819966482547897455e-15 0 1 I I #
point $-1 27.93999999999999417 -25.39999999999999858 -4.741440848531299324 #
End-of-ACIS-data 