600 0 1 0           
89 GICL ACIS Healer - Source: /gicl/data5/repository/PTC/V18/piping18/return-3.prt.sat - 6 0 18 ACIS 6.0.3 Solaris 24 Sat Apr 13 21:24:38 2002 
1 9.999999999999999547e-07 1.000000000000000036e-10 
body $-1 $1 $-1 $-1 #
lump $-1 $-1 $2 $0 #
shell $-1 $-1 $-1 $3 $-1 $1 #
face $-1 $4 $5 $2 $-1 $6 reversed single #
face $-1 $7 $8 $2 $-1 $9 forward single #
loop $-1 $10 $11 $3 #
plane-surface $-1 17.95508775786167277 17.96051224213827169 0.3081536726415037841 0 0 1 25.39999999999999858 0 0 forward_v I I I I #
face $-1 $12 $13 $2 $-1 $14 forward single #
loop $-1 $-1 $15 $4 #
cone-surface $-1 17.95508775786167277 17.96051224213827169 0.3081536726415037841 0 0 1 4.762499999999999289 0 0 1 I I 0 1 4.762499999999999289 forward I I I I #
loop $-1 $-1 $16 $3 #
coedge $-1 $17 $17 $18 $19 reversed $5 $-1 #
face $-1 $20 $21 $2 $-1 $22 forward single #
loop $-1 $-1 $23 $7 #
cone-surface $-1 17.95508775786167277 17.96051224213827169 0.3081536726415037841 0 0 1 4.762499999999999289 0 0 1 I I 0 1 4.762499999999999289 forward I I I I #
coedge $-1 $24 $18 $25 $26 forward $8 $-1 #
coedge $-1 $27 $27 $28 $29 reversed $10 $-1 #
coedge $-1 $11 $11 $30 $31 reversed $5 $-1 #
coedge $-1 $15 $32 $11 $19 forward $8 $-1 #
edge $-1 $33 -3.141592653589793116 $34 0 $11 $35 forward 7 unknown #
face $-1 $36 $37 $2 $-1 $38 forward single #
loop $-1 $-1 $39 $12 #
torus-surface $-1 17.95508775786167277 11.61051224213827027 7.224322745705642035 1 0 0 6.349999999999999645 4.762499999999999289 0 -1 0 forward_v I I I I #
coedge $-1 $40 $30 $32 $41 forward $13 $-1 #
coedge $-1 $32 $15 $42 $43 reversed $8 $-1 #
coedge $-1 $30 $40 $15 $26 reversed $13 $-1 #
edge $-1 $34 0 $44 0.2722901209867771288 $25 $45 forward 7 unknown #
coedge $-1 $16 $16 $46 $47 reversed $10 $-1 #
coedge $-1 $48 $49 $16 $29 forward $50 $-1 #
edge $-1 $51 -3.141592653589793116 $52 -0 $16 $53 reversed 7 unknown #
coedge $-1 $23 $25 $17 $31 forward $13 $-1 #
edge $-1 $34 0 $33 3.141592653589793116 $17 $54 forward 7 unknown #
coedge $-1 $18 $24 $23 $41 reversed $8 $-1 #
vertex $-1 $31 $55 #
vertex $-1 $31 $56 #
ellipse-curve $-1 17.95508775786167277 17.96051224213827169 0.3081536726415037841 0 0 1 4.762499999999999289 0 0 1 I I #
face $-1 $57 $58 $2 $-1 $59 forward single #
loop $-1 $-1 $60 $20 #
torus-surface $-1 17.95508775786167277 11.61051224213827027 7.224322745705642035 1 0 0 6.349999999999999645 4.762499999999999289 0 -1 0 forward_v I I I I #
coedge $-1 $61 $62 $63 $64 forward $21 $-1 #
coedge $-1 $25 $23 $62 $65 reversed $13 $-1 #
edge $-1 $33 0 $66 0.2722901209867771288 $23 $67 forward 7 unknown #
coedge $-1 $60 $63 $24 $43 forward $37 $-1 #
edge $-1 $66 1.570796326794896558 $44 4.712388980384689674 $24 $68 forward 7 unknown #
vertex $-1 $26 $69 #
straight-curve $-1 22.71758775786167206 17.96051224213827169 0.3081536726415037841 0 0 25.39999999999999858 I I #
coedge $-1 $70 $71 $27 $47 forward $72 $-1 #
edge $-1 $52 -0 $51 3.141592653589793116 $27 $73 reversed 7 unknown #
coedge $-1 $74 $28 $71 $75 forward $50 $-1 #
coedge $-1 $28 $74 $70 $76 reversed $50 $-1 #
loop $-1 $-1 $48 $77 #
vertex $-1 $47 $78 #
vertex $-1 $47 $79 #
ellipse-curve $-1 17.95508775786167277 17.96051224213827169 0.3081536726415037841 0 0 1 3.746499999999999719 0 0 1 I I #
ellipse-curve $-1 17.95508775786167277 17.96051224213827169 0.3081536726415037841 0 0 1 4.762499999999999289 0 0 1 I I #
point $-1 13.1925877578616717 17.96051224213827169 0.3081536726415037841 #
point $-1 22.71758775786167206 17.96051224213827169 0.3081536726415037841 #
face $-1 $80 $81 $2 $-1 $82 forward single #
loop $-1 $-1 $83 $36 #
cone-surface $-1 17.95508775786167277 15.33222752472764761 12.3693529064861103 0 -0.810240970201648536 0.5860968948959645042 4.762499999999999289 0 0 1 I I 0 1 4.762499999999999289 forward I I I I #
coedge $-1 $84 $42 $85 $86 forward $37 $-1 #
coedge $-1 $85 $39 $87 $88 reversed $21 $-1 #
coedge $-1 $39 $85 $40 $65 forward $21 $-1 #
coedge $-1 $42 $84 $39 $64 reversed $37 $-1 #
edge $-1 $66 -8.217398764942106187e-17 $89 0.9445631423548024319 $39 $90 forward 7 unknown #
edge $-1 $44 -1.570796326794896558 $66 1.570796326794896558 $40 $91 forward 7 unknown #
vertex $-1 $65 $92 #
straight-curve $-1 13.1925877578616717 17.96051224213827169 0.3081536726415037841 0 0 25.39999999999999858 I I #
ellipse-curve $-1 17.95508775786167277 17.96051224213827169 7.224322745705642035 0 0 1 0 4.762499999999999289 0 1 I I #
point $-1 22.71758775786167206 17.96051224213827169 7.224322745705642923 #
coedge $-1 $93 $46 $49 $76 forward $72 $-1 #
coedge $-1 $46 $93 $48 $75 reversed $72 $-1 #
loop $-1 $-1 $70 $94 #
ellipse-curve $-1 17.95508775786167277 17.96051224213827169 0.3081536726415037841 0 0 1 3.746499999999999719 0 0 1 I I #
coedge $-1 $49 $48 $95 $96 reversed $50 $-1 #
edge $-1 $52 0 $97 0.2722901209867771288 $71 $98 forward 7 unknown #
edge $-1 $51 0 $99 0.2722901209867771288 $70 $100 forward 7 unknown #
face $-1 $-1 $50 $2 $-1 $101 reversed single #
point $-1 14.2085877578616735 17.96051224213827169 0.3081536726415037841 #
point $-1 21.70158775786167027 17.96051224213827169 0.3081536726415037841 #
face $-1 $102 $103 $2 $-1 $104 forward single #
loop $-1 $-1 $105 $57 #
cone-surface $-1 17.95508775786167277 15.33222752472764761 12.3693529064861103 0 -0.810240970201648536 0.5860968948959645042 4.762499999999999289 0 0 1 I I 0 1 4.762499999999999289 forward I I I I #
coedge $-1 $106 $107 $108 $109 reversed $58 $-1 #
coedge $-1 $63 $60 $106 $110 reversed $37 $-1 #
coedge $-1 $62 $61 $60 $86 reversed $21 $-1 #
edge $-1 $44 -8.217398764942106187e-17 $111 0.9445631423548024319 $85 $112 forward 7 unknown #
coedge $-1 $108 $113 $61 $88 forward $81 $-1 #
edge $-1 $111 -1.570796326794896558 $89 1.570796326794896558 $61 $114 forward 7 unknown #
vertex $-1 $88 $115 #
ellipse-curve $-1 13.1925877578616717 11.61051224213827027 7.224322745705642035 1 0 0 0 6.349999999999999645 1.409983241273948727e-15 1 I I #
ellipse-curve $-1 17.95508775786167277 17.96051224213827169 7.224322745705642035 0 0 1 0 4.762499999999999289 0 1 I I #
point $-1 13.19258775786167348 17.96051224213827169 7.224322745705642923 #
coedge $-1 $71 $70 $116 $117 reversed $72 $-1 #
face $-1 $77 $72 $2 $-1 $118 reversed single #
coedge $-1 $119 $120 $74 $96 forward $121 $-1 #
edge $-1 $99 -1.57079632679489567 $97 1.57079632679489567 $74 $122 reversed 7 unknown #
vertex $-1 $75 $123 #
straight-curve $-1 21.70158775786167027 17.96051224213827169 0.3081536726415037841 0 0 25.39999999999999858 I I #
vertex $-1 $117 $124 #
straight-curve $-1 14.2085877578616735 17.96051224213827169 0.3081536726415037841 0 0 25.39999999999999858 I I #
cone-surface $-1 17.95508775786167277 17.96051224213827169 0.3081536726415037841 0 0 1 3.746499999999999719 0 0 1 I I 0 1 3.746499999999999719 forward I I I I #
face $-1 $125 $126 $2 $-1 $127 reversed single #
loop $-1 $-1 $128 $80 #
plane-surface $-1 17.95508775786167277 0 23.46009167997084788 0 -0.810240970201648536 0.5860968948959646152 25.39999999999999858 0 0 forward_v I I I I #
coedge $-1 $113 $129 $130 $131 reversed $81 $-1 #
coedge $-1 $132 $83 $84 $110 forward $58 $-1 #
coedge $-1 $83 $133 $134 $135 forward $58 $-1 #
coedge $-1 $129 $87 $83 $109 forward $81 $-1 #
edge $-1 $89 9.765331955825548268e-17 $136 0.5887962981611573055 $108 $137 forward 7 unknown #
edge $-1 $89 1.570796326794896558 $111 4.712388980384689674 $84 $138 forward 7 unknown #
vertex $-1 $86 $139 #
ellipse-curve $-1 22.71758775786167206 11.61051224213827027 7.224322745705642035 1 0 0 0 6.349999999999999645 1.409983241273948727e-15 1 I I #
coedge $-1 $87 $105 $132 $140 reversed $81 $-1 #
ellipse-curve $-1 17.95508775786167277 15.33222752472764583 12.36935290648611208 0 -0.810240970201648647 0.5860968948959645042 0 2.791286461942029895 3.858772620585350754 1 I I #
point $-1 13.19258775786167348 15.33222752472764583 12.36935290648611208 #
coedge $-1 $141 $142 $93 $117 forward $143 $-1 #
edge $-1 $97 -4.712388980384690562 $99 -1.57079632679489567 $93 $144 reversed 7 unknown #
cone-surface $-1 17.95508775786167277 17.96051224213827169 0.3081536726415037841 0 0 1 3.746499999999999719 0 0 1 I I 0 1 3.746499999999999719 forward I I I I #
coedge $-1 $145 $95 $142 $146 forward $121 $-1 #
coedge $-1 $95 $145 $141 $147 reversed $121 $-1 #
loop $-1 $-1 $119 $148 #
ellipse-curve $-1 17.95508775786167277 17.96051224213827169 7.224322745705642035 0 0 1 0 3.746499999999999719 0 1 I I #
point $-1 21.70158775786167382 17.96051224213827524 7.224322745705642923 #
point $-1 14.2085877578616735 17.96051224213827524 7.224322745705642923 #
face $-1 $149 $150 $2 $-1 $151 forward single #
loop $-1 $-1 $152 $102 #
cone-surface $-1 19.98979999999999535 0 23.46009167997084788 -1 0 0 0 -3.746499999999999719 0 1 I I 0 1 3.746499999999999719 forward I I I I #
coedge $-1 $153 $154 $155 $156 forward $103 $-1 #
coedge $-1 $105 $108 $157 $158 forward $81 $-1 #
coedge $-1 $159 $160 $105 $131 forward $103 $-1 #
edge $-1 $161 2.186072919264454514e-16 $162 2.244634305289926246 $130 $163 forward 7 unknown #
coedge $-1 $133 $106 $113 $140 forward $58 $-1 #
coedge $-1 $107 $132 $160 $164 reversed $58 $-1 #
coedge $-1 $165 $157 $107 $135 reversed $166 $-1 #
edge $-1 $167 2.14408464982405178 $136 8.370849991485670216 $107 $168 reversed 7 unknown #
vertex $-1 $158 $169 #
straight-curve $-1 13.1925877578616717 15.33222752472764761 12.3693529064861103 0 -20.58012064312186951 14.88686113035750402 I I #
ellipse-curve $-1 17.95508775786167277 15.33222752472764583 12.36935290648611208 0 -0.810240970201648647 0.5860968948959645042 0 2.791286461942029895 3.858772620585350754 1 I I #
point $-1 22.71758775786167206 15.33222752472764583 12.36935290648611208 #
edge $-1 $111 9.765331955825548268e-17 $161 0.7450018292216312732 $113 $170 forward 7 unknown #
coedge $-1 $171 $116 $120 $147 forward $143 $-1 #
coedge $-1 $116 $171 $119 $146 reversed $143 $-1 #
loop $-1 $-1 $141 $172 #
ellipse-curve $-1 17.95508775786167277 17.96051224213827169 7.224322745705642035 0 0 1 0 3.746499999999999719 0 1 I I #
coedge $-1 $120 $119 $173 $174 reversed $121 $-1 #
edge $-1 $97 -8.217398764942113582e-17 $175 0.9445631423548024319 $142 $176 forward 7 unknown #
edge $-1 $99 -8.217398764942113582e-17 $177 0.9445631423548024319 $141 $178 forward 7 unknown #
face $-1 $172 $121 $2 $-1 $179 reversed single #
face $-1 $180 $181 $2 $-1 $182 reversed single #
loop $-1 $-1 $183 $125 #
plane-surface $-1 19.98979999999999535 0 23.46009167997084788 -1 0 0 0 -25.39999999999999858 0 forward_v I I I I #
coedge $-1 $184 $155 $185 $186 reversed $126 $-1 #
coedge $-1 $187 $128 $188 $189 forward $103 $-1 #
coedge $-1 $128 $190 $191 $192 reversed $103 $-1 #
coedge $-1 $152 $184 $128 $156 reversed $126 $-1 #
edge $-1 $193 -0 $194 2.034712242138329685 $128 $195 reversed 7 unknown #
coedge $-1 $134 $196 $129 $158 reversed $166 $-1 #
edge $-1 $136 3.016042105459586509 $162 9.60226069272242988 $129 $197 reversed 7 unknown #
coedge $-1 $198 $130 $196 $199 forward $103 $-1 #
coedge $-1 $130 $187 $133 $164 forward $103 $-1 #
vertex $-1 $131 $200 #
vertex $-1 $199 $201 #
ellipse-curve $-1 17.95508775786167277 -1.776356839400250465e-15 23.46009167997084788 0 -0.810240970201648536 0.5860968948959646152 4.762499999999999289 0 0 1 I I #
edge $-1 $167 -2.22385789854413396 $161 2.186072919264454514e-16 $160 $202 forward 7 unknown #
coedge $-1 $203 $134 $187 $204 reversed $166 $-1 #
loop $-1 $-1 $205 $206 #
vertex $-1 $164 $207 #
intcurve-curve $-1 forward { surfintcur full nubs 3 open 8 
	-8.370849991485670216 3 -7.61554528169989986 2 -6.813286096850947438 2 -5.550159294333496973 2 -3.888001319556736668 2 
	-2.952756750717320244 2 -2.163715903352718684 2 -2.14408464982405178 3 
	13.19261793322739251 3.214748112321963891 21.13467049579132606 
	13.19265221718753267 3.080665657085624787 20.90071068210895788 
	13.21530807245256511 2.921164802506103886 20.68401043465665623 
	13.30905463104548758 2.538269096047291118 20.28457083712922682 
	13.38103450173439413 2.319003398742484734 20.11270687055421291 
	13.61251325301811832 1.707472966075282095 19.75655391689709006 
	13.79302231184644789 1.302218316298499712 19.63001557632954075 
	14.23024798349056219 0.3504200617534772855 19.50194924652361905 
	14.4933333733724492 -0.1983118290219009205 19.55251989537634216 
	14.80701145151577869 -0.9775594532709799278 19.75246523487539108 
	14.90764173612783949 -1.260585635203864907 19.85372246921568973 
	15.03108131428987626 -1.765853101211729559 20.09697171285335671 
	15.06277739848025021 -1.988390592374273069 20.22864209290311877 
	15.06141999224879946 -2.206370189030594453 20.38760165899288523 
	15.06136658769130321 -2.211649359567962492 20.39147036973258409 
	15.0612928254187679 -2.216916065572950068 20.39534889914263616 
	0.000203071254309100316 
	cone 17.95508775786167277 15.33222752472764761 12.3693529064861103 0 -0.810240970201648536 0.5860968948959645042 4.762499999999999289 0 0 1 I I 0 1 4.762499999999999289 forward I I I I 
	torus 15.92579999999999707 0 12.03009167997084994 0 -1 0 11.42999999999999794 3.746499999999999719 0 0 -1 forward_v I I I I 
	nullbs 
	nullbs 
	I I 
	0 
	0 
	0 
	} I I #
point $-1 13.19258775786167703 3.214728674347466786 21.1346816312798218 #
straight-curve $-1 22.71758775786167206 15.33222752472764761 12.3693529064861103 0 -20.58012064312187306 14.88686113035749692 I I #
coedge $-1 $142 $141 $208 $209 reversed $143 $-1 #
face $-1 $94 $143 $2 $-1 $210 reversed single #
coedge $-1 $211 $212 $145 $174 forward $213 $-1 #
edge $-1 $177 -1.570796326794896558 $175 1.570796326794896558 $145 $214 reversed 7 unknown #
vertex $-1 $146 $215 #
ellipse-curve $-1 21.70158775786167027 11.61051224213827027 7.224322745705642035 1 0 0 0 6.349999999999999645 1.409983241273948727e-15 1 I I #
vertex $-1 $209 $216 #
ellipse-curve $-1 14.2085877578616735 11.61051224213827027 7.224322745705642035 1 0 0 0 6.349999999999999645 1.409983241273948727e-15 1 I I #
torus-surface $-1 17.95508775786167277 11.61051224213827027 7.224322745705642035 1 0 0 6.349999999999999645 3.746499999999999719 0 -1 0 forward_v I I I I #
face $-1 $217 $213 $2 $-1 $218 reversed single #
loop $-1 $-1 $219 $149 #
cone-surface $-1 17.95508775786167277 15.33222752472764761 12.3693529064861103 0 -0.810240970201648536 0.5860968948959646152 3.746499999999999719 0 0 1 I I 0 1 3.746499999999999719 forward I I I I #
coedge $-1 $185 $191 $220 $221 reversed $150 $-1 #
coedge $-1 $155 $152 $222 $223 reversed $126 $-1 #
coedge $-1 $191 $183 $152 $186 forward $150 $-1 #
edge $-1 $224 -1.518684012486439583 $193 -0.944563142354802654 $185 $225 forward 7 unknown #
coedge $-1 $160 $153 $165 $204 forward $103 $-1 #
coedge $-1 $226 $227 $153 $189 reversed $228 $-1 #
edge $-1 $194 2.034712242138329685 $229 4.06399999999999828 $153 $230 reversed 7 unknown #
coedge $-1 $154 $231 $219 $232 forward $103 $-1 #
coedge $-1 $183 $185 $154 $192 forward $150 $-1 #
edge $-1 $193 -3.746500000000000163 $233 -3.145823952749490005 $154 $234 reversed 7 unknown #
vertex $-1 $192 $235 #
vertex $-1 $189 $236 #
straight-curve $-1 19.98979999999999535 -2.195812016727731297 20.42452388511037142 1 -0 -0 I I #
coedge $-1 $157 $205 $159 $199 reversed $166 $-1 #
intcurve-curve $-1 forward { surfintcur full nubs 3 open 6 
	-9.60226069272242988 3 -8.926478141735932681 2 -7.461711303104328508 2 -5.459114317204825539 2 -4.089380720353718246 2 
	-3.016042105459586509 3 
	14.98327188786311481 2.181244217839015676 26.47552045371726948 
	14.98421112917800002 2.341656037069839158 26.36056643319966852 
	14.96427500023862933 2.4905512342886027 26.23322304480217326 
	14.8419511618407487 2.928972655773421252 25.79162665059475046 
	14.67676447880637269 3.16183534570317315 25.44857235976723686 
	14.25432718662149867 3.568795586801033703 24.60404742867312322 
	13.95655541493786167 3.71756044327324231 24.03469743503977085 
	13.53909562769254649 3.759968108925125119 22.98932733061467104 
	13.39591895785128806 3.718839260196168617 22.54876238998938476 
	13.23230357723964978 3.520951510085534863 21.7755923488105374 
	13.19267741758131152 3.391807240777580112 21.4434013663258014 
	13.19260769366742814 3.214748146372299331 21.13467045945021283 
	0.0004760027532718794432 
	cone 17.95508775786167277 15.33222752472764761 12.3693529064861103 0 -0.810240970201648536 0.5860968948959645042 4.762499999999999289 0 0 1 I I 0 1 4.762499999999999289 forward I I I I 
	torus 15.92579999999999707 0 12.03009167997084994 0 -1 0 11.42999999999999794 3.746499999999999719 0 0 -1 forward_v I I I I 
	nullbs 
	nullbs 
	I I 
	0 
	0 
	0 
	} I I #
coedge $-1 $237 $159 $238 $239 reversed $103 $-1 #
edge $-1 $162 -0.9209883940346871301 $240 -0 $159 $241 reversed 7 unknown #
point $-1 22.71758775786167206 0 23.46009167997084788 #
point $-1 14.98333682700372194 2.181202147972230776 26.47546227819359643 #
ellipse-curve $-1 17.95508775786167277 -1.776356839400250465e-15 23.46009167997084788 0 -0.810240970201648536 0.5860968948959646152 4.762499999999999289 0 0 1 I I #
coedge $-1 $242 $165 $227 $243 reversed $166 $-1 #
edge $-1 $229 -27.47729679057163565 $167 -26.62808363872965245 $187 $244 reversed 7 unknown #
coedge $-1 $196 $245 $246 $247 reversed $166 $-1 #
face $-1 $248 $166 $2 $-1 $249 reversed single #
point $-1 15.06129353915005531 -2.216915767584348274 20.39534931735908785 #
coedge $-1 $250 $251 $171 $209 forward $181 $-1 #
edge $-1 $175 -4.712388980384689674 $177 -1.570796326794896558 $171 $252 reversed 7 unknown #
torus-surface $-1 17.95508775786167277 11.61051224213827027 7.224322745705642035 1 0 0 6.349999999999999645 3.746499999999999719 0 -1 0 forward_v I I I I #
coedge $-1 $253 $173 $251 $254 forward $213 $-1 #
coedge $-1 $173 $255 $250 $256 reversed $213 $-1 #
loop $-1 $-1 $257 $180 #
ellipse-curve $-1 17.95508775786167277 15.33222752472764583 12.36935290648611208 0 -0.810240970201648647 0.5860968948959645042 0 2.195812016727730409 3.03556779486047601 1 I I #
point $-1 21.70158775786167382 15.33222752472764583 12.36935290648611208 #
point $-1 14.2085877578616735 15.33222752472764583 12.36935290648611208 #
face $-1 $258 $259 $2 $-1 $260 reversed single #
cone-surface $-1 17.95508775786167277 15.33222752472764761 12.3693529064861103 0 -0.810240970201648536 0.5860968948959646152 3.746499999999999719 0 0 1 I I 0 1 3.746499999999999719 forward I I I I #
coedge $-1 $251 $220 $190 $232 reversed $181 $-1 #
coedge $-1 $219 $222 $183 $221 forward $181 $-1 #
edge $-1 $224 16.88833422009111374 $233 18.92304646222943632 $220 $261 reversed 7 unknown #
coedge $-1 $220 $262 $184 $223 forward $181 $-1 #
edge $-1 $194 -1.570796326794897002 $224 -0.9966754566632584078 $222 $263 forward 7 unknown #
vertex $-1 $221 $264 #
ellipse-curve $-1 19.98979999999999535 0 23.46009167997084788 -1 0 0 0 -3.746499999999999719 0 1 I I #
coedge $-1 $227 $188 $262 $265 reversed $228 $-1 #
coedge $-1 $188 $226 $203 $243 forward $228 $-1 #
loop $-1 $-1 $226 $248 #
vertex $-1 $204 $266 #
straight-curve $-1 19.98979999999999535 -2.195812016727731297 20.42452388511037142 1 -0 -0 I I #
coedge $-1 $190 $267 $253 $268 forward $103 $-1 #
edge $-1 $269 4.904409315788844613e-16 $233 0.996675456663259185 $190 $270 reversed 7 unknown #
vertex $-1 $192 $271 #
straight-curve $-1 19.98979999999999535 0 23.46009167997084788 -0 -0.5860968948959646152 -0.810240970201648536 I I #
point $-1 19.98979999999999535 -2.195812016727731297 20.42452388511037142 #
point $-1 17.95508775786166566 -2.195812016727730409 20.42452388511037498 #
coedge $-1 $267 $198 $272 $273 reversed $103 $-1 #
coedge $-1 $246 $274 $198 $239 forward $275 $-1 #
edge $-1 $276 2.034712242138319027 $240 4.06399999999999828 $198 $277 forward 7 unknown #
vertex $-1 $239 $278 #
intcurve-curve $-1 forward { surfintcur full nubs 3 open 2 
	0 3 0.9209883940346871301 3 
	15.92579999999999707 2.195812016727730409 26.49565947483132078 
	15.6188038686551014 2.195812016727730409 26.49565947483132078 
	15.30364923370326835 2.191117311635639275 26.48916934932178435 
	14.98333950848446605 2.181172480112409051 26.47542126430027309 
	0.0003032249152342796354 
	torus 15.92579999999999707 0 12.03009167997084994 0 -1 0 11.42999999999999794 -3.746499999999999719 0 0 -1 forward_v I I I I 
	plane 17.95508775786167277 0 23.46009167997084788 0 -0.810240970201648536 0.5860968948959646152 25.39999999999999858 0 0 forward_v I I I I 
	nullbs 
	nullbs 
	I I 
	0 
	0 
	0 
	} I I #
coedge $-1 $245 $203 $279 $280 reversed $166 $-1 #
edge $-1 $281 -3.087756954426207123 $229 -2.515359469149699212 $227 $282 forward 7 unknown #
intcurve-curve $-1 forward { surfintcur full nubs 3 open 2 
	26.62808363872965245 3 27.47729679057163565 3 
	15.06130963199774442 -2.217029297154796907 20.39519237008619612 
	15.35376301189082326 -2.202788988841513529 20.41487867336506312 
	15.64272894938600444 -2.195812016727730853 20.42452388511037498 
	15.92579999999999885 -2.195812016727730853 20.42452388511037498 
	0.0003032249152342796354 
	torus 15.92579999999999707 0 12.03009167997084994 0 -1 0 11.42999999999999794 -3.746499999999999719 0 0 -1 forward_v I I I I 
	plane 17.95508775786167277 0 23.46009167997084788 0 -0.810240970201648536 0.5860968948959646152 25.39999999999999858 0 0 forward_v I I I I 
	nullbs 
	nullbs 
	I I 
	0 
	0 
	0 
	} I I #
coedge $-1 $205 $242 $255 $283 reversed $166 $-1 #
coedge $-1 $274 $238 $205 $247 forward $275 $-1 #
edge $-1 $240 0.626233184440093904 $284 1.198630669716602704 $246 $285 forward 7 unknown #
face $-1 $148 $228 $2 $-1 $286 reversed single #
torus-surface $-1 15.92579999999999707 0 12.03009167997084994 0 -1 0 11.42999999999999794 3.746499999999999719 0 0 -1 forward_v I I I I #
coedge $-1 $279 $208 $212 $256 forward $181 $-1 #
coedge $-1 $208 $219 $211 $254 reversed $181 $-1 #
ellipse-curve $-1 17.95508775786167277 15.33222752472764583 12.36935290648611208 0 -0.810240970201648647 0.5860968948959645042 0 2.195812016727730409 3.03556779486047601 1 I I #
coedge $-1 $287 $211 $231 $268 reversed $213 $-1 #
edge $-1 $175 9.765331955825548268e-17 $269 0.7450018292216311622 $251 $288 forward 7 unknown #
coedge $-1 $212 $289 $245 $283 forward $213 $-1 #
edge $-1 $177 9.765331955825548268e-17 $290 0.5939154273592076594 $250 $291 forward 7 unknown #
coedge $-1 $289 $287 $292 $293 forward $213 $-1 #
face $-1 $294 $295 $2 $-1 $296 forward single #
loop $-1 $-1 $292 $217 #
cone-surface $-1 19.98979999999999535 0 23.46009167997084788 -1 0 0 0 -3.746499999999999719 0 1 I I 0 1 3.746499999999999719 forward I I I I #
straight-curve $-1 19.98979999999999535 13.48846987413182319 9.820477454926777483 -0 0.810240970201648425 -0.5860968948959645042 I I #
coedge $-1 $222 $279 $226 $265 forward $181 $-1 #
ellipse-curve $-1 17.95508775786167277 -3.552713678800500929e-15 23.46009167997085143 0.7071067811865474617 -0.5729268844247528136 0.4144330888133161972 3.746499999999999719 3.035567794860475122 -2.195812016727730853 0.7071067811865476838 I I #
point $-1 19.9897999999999989 -0.195150429444502338 19.71867770128744013 #
edge $-1 $281 -2.143193812071404913 $194 -1.57079632679489789 $262 $297 forward 7 unknown #
point $-1 15.92579999999999707 -2.195812016727732185 20.42452388511037142 #
coedge $-1 $231 $237 $298 $299 reversed $103 $-1 #
edge $-1 $300 -0.9966754566632599621 $269 4.904409315788844613e-16 $231 $301 reversed 7 unknown #
vertex $-1 $232 $302 #
ellipse-curve $-1 17.95508775786167277 -1.776356839400250465e-15 23.46009167997085143 0 -0.810240970201648536 0.5860968948959646152 3.746499999999999719 0 0 1 I I #
point $-1 19.98979999999999535 -1.843757650595829078 20.91121622841151861 #
coedge $-1 $292 $303 $237 $273 forward $259 $-1 #
edge $-1 $304 0 $276 2.034712242138319027 $237 $305 forward 7 unknown #
coedge $-1 $238 $246 $289 $306 reversed $275 $-1 #
loop $-1 $-1 $246 $294 #
vertex $-1 $273 $307 #
straight-curve $-1 19.98979999999999535 2.195812016727731297 26.49565947483132433 -1 0 0 I I #
point $-1 15.92579999999999707 2.195812016727731297 26.49565947483132433 #
coedge $-1 $262 $250 $242 $280 forward $181 $-1 #
edge $-1 $290 -3.134241440367314002 $281 -1.258687879021601397 $279 $308 forward 7 unknown #
vertex $-1 $265 $309 #
ellipse-curve $-1 15.92579999999999707 0 23.46009167997084788 -1 0 0 0 0 3.746499999999999719 1 I I #
edge $-1 $284 -6.004241187922845668 $290 -1.773553604265329042 $255 $310 forward 7 unknown #
vertex $-1 $283 $311 #
ellipse-curve $-1 15.92579999999999707 0 23.46009167997084788 -1 0 0 0 0 3.746499999999999719 1 I I #
cone-surface $-1 19.98979999999999535 0 23.46009167997084788 -1 0 0 0 -3.746499999999999719 0 1 I I 0 1 3.746499999999999719 forward I I I I #
coedge $-1 $257 $253 $312 $313 reversed $213 $-1 #
straight-curve $-1 21.70158775786167027 15.33222752472764761 12.3693529064861103 0 -20.58012064312186951 14.88686113035750047 I I #
coedge $-1 $255 $257 $274 $306 forward $213 $-1 #
vertex $-1 $280 $314 #
straight-curve $-1 14.2085877578616735 15.33222752472764761 12.3693529064861103 0 -20.58012064312186595 14.88686113035750402 I I #
coedge $-1 $303 $272 $257 $293 reversed $259 $-1 #
edge $-1 $315 0.9966754566632587409 $276 1.570796326794895448 $257 $316 forward 7 unknown #
face $-1 $206 $275 $2 $-1 $317 reversed single #
loop $-1 $-1 $318 $258 #
plane-surface $-1 19.98979999999999535 0 23.46009167997084788 -1 0 0 0 -25.39999999999999858 0 forward_v I I I I #
ellipse-curve $-1 17.95508775786167277 -1.776356839400250465e-15 23.46009167997085143 -0.7071067811865479058 -0.5729268844247524806 0.4144330888133159752 3.746499999999999719 -3.035567794860478674 2.195812016727733074 0.7071067811865472397 I I #
coedge $-1 $318 $312 $267 $299 forward $295 $-1 #
edge $-1 $300 3.145823952749494445 $304 3.746500000000000163 $267 $319 reversed 7 unknown #
vertex $-1 $268 $320 #
ellipse-curve $-1 17.95508775786167277 -1.776356839400250465e-15 23.46009167997085143 0 -0.810240970201648536 0.5860968948959646152 3.746499999999999719 0 0 1 I I #
point $-1 21.70158775786167027 0 23.46009167997084788 #
coedge $-1 $272 $292 $318 $321 reversed $259 $-1 #
vertex $-1 $299 $322 #
straight-curve $-1 19.98979999999999535 2.195812016727731297 26.49565947483132433 -1 0 0 I I #
edge $-1 $276 1.57079632679489678 $284 2.143193812071405802 $289 $323 forward 7 unknown #
point $-1 17.95508775786167632 2.19581201672773263 26.49565947483132433 #
intcurve-curve $-1 forward { surfintcur full nubs 3 open 5 
	-3.134241440367314002 3 -3.056683087232574092 2 -2.612742282020397155 2 -2.050352400727219582 2 -1.258687879021601397 3 
	14.20859063019777757 3.1093804473191895 21.21088670773706042 
	14.20858900223942989 3.076546067444354104 21.16119477802758908 
	14.21000547076313225 3.042363104715345656 21.11224197706142292 
	14.22925541253254167 2.803321648480249895 20.78857633923141535 
	14.29190599229797343 2.565252393853364232 20.55389996762630034 
	14.52223526052264013 1.961876329357538973 20.11944636893176153 
	14.70645224143299501 1.596713370939228493 19.95809366732779822 
	15.22263128588480185 0.7160954516861481878 19.71550678499891518 
	15.57711196460191339 0.2122400391133402731 19.69708597946173967 
	15.92575047348328532 -0.2016341482237561378 19.71912482439581993 
	0.0004169394126006531476 
	cone 17.95508775786167277 15.33222752472764761 12.3693529064861103 0 -0.810240970201648536 0.5860968948959646152 3.746499999999999719 0 0 1 I I 0 1 3.746499999999999719 forward I I I I 
	torus 15.92579999999999707 0 12.03009167997084994 0 -1 0 11.42999999999999794 3.746499999999999719 0 0 -1 forward_v I I I I 
	nullbs 
	nullbs 
	I I 
	0 
	0 
	0 
	} I I #
point $-1 15.92579999999999707 -0.2015980326366486608 19.71901957651748205 #
intcurve-curve $-1 forward { surfintcur full nubs 3 open 5 
	-6.004241187922845668 3 -5.64697988480320312 2 -4.02793403030082775 2 -2.835441732291436701 2 -1.773553604265329042 3 
	15.92590334327847756 3.490084659438585923 24.82237627968311955 
	15.8520111313430867 3.521997352747850751 24.74059083761331834 
	15.77726906310650534 3.551776536167932097 24.6551198983168689 
	15.36256751474986082 3.70239567665337832 24.16099325239753881 
	15.0472533024372801 3.762964892169057496 23.71144888215708946 
	14.60707105942998396 3.727762534590760346 22.88269238136740213 
	14.45326413305421021 3.66852037390085961 22.51513915263709364 
	14.25840178007098835 3.449887389911950653 21.8235435868779426 
	14.20859371077043853 3.30386898722780975 21.50523673079487352 
	14.20858813848588298 3.109377197744251475 21.21088885502056343 
	0.0007532006953158103387 
	cone 17.95508775786167277 15.33222752472764761 12.3693529064861103 0 -0.810240970201648536 0.5860968948959646152 3.746499999999999719 0 0 1 I I 0 1 3.746499999999999719 forward I I I I 
	torus 15.92579999999999707 0 12.03009167997084994 0 -1 0 11.42999999999999794 3.746499999999999719 0 0 -1 forward_v I I I I 
	nullbs 
	nullbs 
	I I 
	0 
	0 
	0 
	} I I #
point $-1 15.92579999999999352 3.490022196132991361 24.82244527595797479 #
coedge $-1 $298 $318 $287 $313 forward $295 $-1 #
edge $-1 $315 16.88833422009111018 $300 18.92304646222943276 $287 $324 forward 7 unknown #
point $-1 14.20858775786166461 3.109376377863876773 21.21088939675957263 #
vertex $-1 $313 $325 #
ellipse-curve $-1 17.95508775786167277 -3.552713678800500929e-15 23.46009167997085143 0.7071067811865474617 -0.5729268844247528136 0.4144330888133161972 3.746499999999999719 3.035567794860475122 -2.195812016727730853 0.7071067811865476838 I I #
cone-surface $-1 19.98979999999999535 0 23.46009167997084788 -1 0 0 0 -3.746499999999999719 0 1 I I 0 1 3.746499999999999719 forward I I I I #
coedge $-1 $312 $298 $303 $321 forward $295 $-1 #
straight-curve $-1 19.98979999999999535 0 23.46009167997084788 -0 -0.5860968948959646152 -0.810240970201648536 I I #
point $-1 19.9897999999999918 1.843757650595826192 26.00896713153018425 #
edge $-1 $304 2.197029511234990462 $315 2.771150381366627613 $318 $326 forward 7 unknown #
point $-1 19.98979999999999535 2.195812016727731297 26.49565947483132433 #
ellipse-curve $-1 17.95508775786167277 -1.776356839400250465e-15 23.46009167997085143 -0.7071067811865479058 -0.5729268844247524806 0.4144330888133159752 3.746499999999999719 -3.035567794860478674 2.195812016727733074 0.7071067811865472397 I I #
straight-curve $-1 19.98979999999999535 17.17598517532347557 14.91822835804544312 0 -0.810240970201648425 0.5860968948959645042 I I #
point $-1 19.98979999999999535 3.492364871747151156 24.81642860440610576 #
ellipse-curve $-1 19.98979999999999535 0 23.46009167997084788 -1 0 0 0 -3.746499999999999719 0 1 I I #
End-of-ACIS-data 