600 0 1 0           
93 GICL Pro/E ACIS Translator - Source: f:/data5/repository/PTC/V18/piping18/return_20.prt - 6 0 13 ACIS 6.0.3 NT 24 Thu Apr 04 09:58:05 2002 
1 9.9999999999999995e-007 1e-010 
body $-1 $1 $-1 $2 #
lump $-1 $-1 $3 $0 #
transform $-1 1 0 0 0 1 0 0 0 1 0 0 0 25.399999999999999 no_rotate no_reflect no_shear #
shell $-1 $-1 $-1 $4 $-1 $1 #
face $-1 $5 $6 $3 $-1 $7 reversed single #
face $-1 $8 $9 $3 $-1 $10 forward single #
loop $-1 $11 $12 $4 #
plane-surface $-1 1.4139999999999999 0 0 0 0 1 1 0 0 forward_v I I I I #
face $-1 $13 $14 $3 $-1 $15 forward single #
loop $-1 $-1 $16 $5 #
torus-surface $-1 1.4139999999999999 0 0.01 0 0 1 0.17749999999999999 0.01 1 0 0 forward_v I I I I #
loop $-1 $-1 $17 $4 #
coedge $-1 $18 $18 $19 $20 reversed $6 $-1 #
face $-1 $21 $22 $3 $-1 $23 forward single #
loop $-1 $-1 $24 $8 #
torus-surface $-1 1.4139999999999999 0 0.01 0 0 1 0.17749999999999999 0.01 1 0 0 forward_v I I I I #
coedge $-1 $25 $19 $26 $27 forward $9 $-1 #
coedge $-1 $28 $28 $29 $30 reversed $11 $-1 #
coedge $-1 $12 $12 $31 $32 reversed $6 $-1 #
coedge $-1 $16 $33 $12 $20 forward $9 $-1 #
edge $-1 $34 0 $35 3.1415926535897944 $12 $36 forward 7 unknown #
face $-1 $37 $38 $3 $-1 $39 forward single #
loop $-1 $-1 $40 $13 #
cone-surface $-1 1.4139999999999999 0 0 0 0 1 0.1875 0 0 1 I I 0 1 0.1875 forward I I I I #
coedge $-1 $41 $31 $33 $42 forward $14 $-1 #
coedge $-1 $33 $16 $43 $44 reversed $9 $-1 #
coedge $-1 $31 $41 $16 $27 reversed $14 $-1 #
edge $-1 $35 0 $45 1.570796326794895 $16 $46 forward 7 unknown #
coedge $-1 $17 $17 $47 $48 reversed $11 $-1 #
coedge $-1 $49 $50 $17 $30 forward $51 $-1 #
edge $-1 $52 0 $53 3.1415926535897931 $17 $54 forward 7 unknown #
coedge $-1 $24 $26 $18 $32 forward $14 $-1 #
edge $-1 $35 0 $34 3.1415926535897944 $18 $55 forward 7 unknown #
coedge $-1 $19 $25 $24 $42 reversed $9 $-1 #
vertex $-1 $32 $56 #
vertex $-1 $32 $57 #
ellipse-curve $-1 1.4139999999999999 -1.1102230246251565e-016 0 0 0 1 -0.17749999999999999 1.3275906524286284e-016 0 1 I I #
face $-1 $58 $59 $3 $-1 $60 forward single #
loop $-1 $-1 $61 $21 #
cone-surface $-1 1.4139999999999999 0 0 0 0 1 0.1875 0 0 1 I I 0 1 0.1875 forward I I I I #
coedge $-1 $62 $63 $64 $65 forward $22 $-1 #
coedge $-1 $26 $24 $63 $66 reversed $14 $-1 #
edge $-1 $34 0 $67 1.570796326794895 $33 $68 forward 7 unknown #
coedge $-1 $61 $64 $25 $44 forward $38 $-1 #
edge $-1 $67 0 $45 3.1415926535897931 $43 $69 forward 7 unknown #
vertex $-1 $66 $70 #
ellipse-curve $-1 1.5914999999999999 0 0.010000000000000016 0 -1 0 0 0 -0.010000000000000016 1 I I #
coedge $-1 $71 $72 $28 $48 forward $73 $-1 #
edge $-1 $53 0 $52 3.1415926535897931 $28 $74 forward 7 unknown #
coedge $-1 $75 $29 $72 $76 forward $51 $-1 #
coedge $-1 $29 $75 $71 $77 reversed $51 $-1 #
loop $-1 $-1 $49 $78 #
vertex $-1 $48 $79 #
vertex $-1 $48 $80 #
ellipse-curve $-1 1.4139999999999999 0 0 0 0 -1 -0.14749999999999996 0 0 1 I I #
ellipse-curve $-1 1.4139999999999999 1.3183898417423734e-016 0 0 0 1 0.17749999999999999 -1.3183898417423734e-016 0 1 I I #
point $-1 1.2364999999999999 2.1736762780347195e-017 0 #
point $-1 1.5914999999999999 0 0 #
face $-1 $81 $82 $3 $-1 $83 forward single #
loop $-1 $-1 $84 $37 #
torus-surface $-1 0.66399999999999992 0 0.19999999999999998 0 -1 0 0.75 0.1875 -1 0 0 forward_v I I I I #
coedge $-1 $85 $43 $86 $87 forward $38 $-1 #
coedge $-1 $86 $40 $88 $89 reversed $22 $-1 #
coedge $-1 $40 $86 $41 $66 forward $22 $-1 #
coedge $-1 $43 $85 $40 $65 reversed $38 $-1 #
edge $-1 $67 -1.7347234759768071e-018 $90 0.19000000000000003 $40 $91 forward 7 unknown #
edge $-1 $45 0 $67 3.1415926535897931 $63 $92 forward 7 unknown #
vertex $-1 $66 $93 #
ellipse-curve $-1 1.2364999999999999 2.1736762780347195e-017 0.010000000000000016 1.2246063538223706e-016 1 0 0 0 -0.010000000000000016 1 I I #
ellipse-curve $-1 1.4139999999999999 0 0.01 0 0 1 -0.1875 2.2961369134169571e-017 0 1 I I #
point $-1 1.6014999999999999 0 0.01 #
coedge $-1 $94 $47 $50 $77 forward $73 $-1 #
coedge $-1 $47 $94 $49 $76 reversed $73 $-1 #
loop $-1 $-1 $71 $95 #
ellipse-curve $-1 1.4139999999999999 0 0 0 0 -1 0.14749999999999996 0 0 1 I I #
coedge $-1 $50 $49 $96 $97 reversed $51 $-1 #
edge $-1 $53 0 $98 0.20000000000000009 $72 $99 forward 7 unknown #
edge $-1 $52 0 $100 0.20000000000000004 $71 $101 forward 7 unknown #
face $-1 $-1 $51 $3 $-1 $102 reversed single #
point $-1 1.2665 0 0 #
point $-1 1.5614999999999999 0 0 #
face $-1 $103 $104 $3 $-1 $105 forward single #
loop $-1 $-1 $106 $58 #
torus-surface $-1 0.66399999999999992 0 0.19999999999999998 0 -1 0 0.75 0.1875 -1 0 0 forward_v I I I I #
coedge $-1 $107 $108 $109 $110 forward $59 $-1 #
coedge $-1 $64 $61 $108 $111 reversed $38 $-1 #
coedge $-1 $63 $62 $61 $87 reversed $22 $-1 #
edge $-1 $45 -1.7347234759768071e-018 $112 0.19000000000000009 $86 $113 forward 7 unknown #
coedge $-1 $106 $109 $62 $89 forward $82 $-1 #
edge $-1 $112 0 $90 3.1415926535897931 $62 $114 forward 7 unknown #
vertex $-1 $89 $115 #
straight-curve $-1 1.2264999999999999 2.2961369134169574e-017 0.010000000000000002 0 0 1 I I #
ellipse-curve $-1 1.4139999999999999 0 0.01 0 0 1 0.1875 0 0 1 I I #
point $-1 1.2264999999999999 2.2961369134169571e-017 0.01 #
coedge $-1 $72 $71 $116 $117 reversed $73 $-1 #
face $-1 $78 $73 $3 $-1 $118 reversed single #
coedge $-1 $119 $120 $75 $97 forward $121 $-1 #
edge $-1 $100 0 $98 3.1415926535897936 $75 $122 forward 7 unknown #
vertex $-1 $76 $123 #
straight-curve $-1 1.5614999999999999 0 0 0 -1.8062943718880065e-016 1 I I #
vertex $-1 $117 $124 #
straight-curve $-1 1.2665 1.8062943718880064e-017 0 0 0 1 I I #
cone-surface $-1 1.4139999999999999 0 0 0 0 1 0.14749999999999999 0 0 1 I I 0 1 0.14749999999999999 forward I I I I #
face $-1 $125 $126 $3 $-1 $127 forward single #
loop $-1 $-1 $128 $81 #
torus-surface $-1 0.78699999999999992 0 0.47362565669176554 0 -1 0 0.45000000000000012 0.1875 -0.40999999999999948 0 -0.9120855223058858 forward_v I I I I #
coedge $-1 $129 $88 $130 $131 forward $82 $-1 #
coedge $-1 $130 $84 $132 $133 reversed $59 $-1 #
coedge $-1 $84 $130 $85 $111 forward $59 $-1 #
coedge $-1 $88 $129 $84 $110 reversed $82 $-1 #
edge $-1 $112 0 $134 1.1483422646081412 $109 $135 forward 7 unknown #
edge $-1 $90 0 $112 3.1415926535897931 $85 $136 forward 7 unknown #
vertex $-1 $87 $137 #
straight-curve $-1 1.6014999999999999 0 0.010000000000000002 0 0 1 I I #
ellipse-curve $-1 1.4139999999999999 -6.9388939039072284e-018 0.20000000000000007 -1.4802973661668753e-016 -4.1733831933791188e-032 1 0.1875 5.2861632172246376e-017 2.7755575615628914e-017 1 I I #
point $-1 1.2264999999999999 -2.2961369134169574e-017 0.20000000000000004 #
coedge $-1 $138 $139 $94 $117 forward $140 $-1 #
edge $-1 $98 0 $100 3.1415926535897931 $94 $141 forward 7 unknown #
cone-surface $-1 1.4139999999999999 0 0 0 0 1 0.14749999999999999 0 0 1 I I 0 1 0.14749999999999999 forward I I I I #
coedge $-1 $142 $96 $139 $143 forward $121 $-1 #
coedge $-1 $96 $142 $138 $144 reversed $121 $-1 #
loop $-1 $-1 $119 $145 #
ellipse-curve $-1 1.4139999999999999 3.4694469519536142e-017 0.20000000000000007 1.8817339400426386e-016 6.7305366155649224e-032 -1 -0.14749999999999996 -5.2757413238416206e-017 -2.7755575615628914e-017 1 I I #
point $-1 1.5614999999999999 0 0.20000000000000009 #
point $-1 1.2665 -1.8062943718880064e-017 0.20000000000000004 #
face $-1 $146 $147 $3 $-1 $148 reversed single #
loop $-1 $-1 $149 $103 #
torus-surface $-1 0.78699999999999992 0 0.47362565669176554 0 -1 0 0.45000000000000012 0.1875 -0.40999999999999948 0 -0.9120855223058858 forward_v I I I I #
coedge $-1 $150 $151 $152 $153 reversed $104 $-1 #
coedge $-1 $109 $106 $150 $154 reversed $82 $-1 #
coedge $-1 $108 $107 $106 $131 reversed $59 $-1 #
edge $-1 $90 0 $155 1.1483422646081409 $106 $156 forward 7 unknown #
coedge $-1 $152 $157 $107 $133 forward $126 $-1 #
edge $-1 $155 -7.6694810229820561e-032 $134 3.1415926535897922 $107 $158 forward 7 unknown #
vertex $-1 $110 $159 #
ellipse-curve $-1 0.66399999999999992 4.5922738268339147e-017 0.19999999999999998 0 -1 0 0.9375 0 1.1102230246251565e-016 1 I I #
ellipse-curve $-1 1.4139999999999999 -2.0816681711721685e-017 0.20000000000000007 -1.4802973661668753e-016 -1.6932134094404447e-033 1 -0.1875 -2.1446874224478885e-018 -2.7755575615628914e-017 1 I I #
point $-1 1.6014999999999999 4.5922738268339147e-017 0.20000000000000009 #
coedge $-1 $160 $116 $120 $144 forward $140 $-1 #
coedge $-1 $116 $160 $119 $143 reversed $140 $-1 #
loop $-1 $-1 $138 $161 #
ellipse-curve $-1 1.4139999999999999 -2.0816681711721685e-017 0.20000000000000007 1.8817339400426386e-016 2.6556919658312942e-032 -1 0.14749999999999996 2.0816681711721685e-017 2.7755575615628914e-017 1 I I #
coedge $-1 $120 $119 $162 $163 reversed $121 $-1 #
edge $-1 $98 0 $164 1.1483422646081412 $139 $165 forward 7 unknown #
edge $-1 $100 0 $166 1.1483422646081412 $138 $167 forward 7 unknown #
face $-1 $161 $121 $3 $-1 $168 reversed single #
face $-1 $169 $170 $3 $-1 $171 forward single #
loop $-1 $-1 $172 $125 #
cone-surface $-1 0.70689321881345168 0.60363100491053734 0.48698239789315401 0 -0.81024097020164865 0.5860968948959645 0 -0.10989316779299332 -0.15192018191280909 1 I I 0 1 0.18749999999999997 forward I I I I #
coedge $-1 $157 $173 $172 $174 forward $126 $-1 #
coedge $-1 $175 $128 $129 $154 forward $104 $-1 #
coedge $-1 $128 $176 $177 $178 reversed $104 $-1 #
coedge $-1 $173 $132 $128 $153 forward $126 $-1 #
edge $-1 $134 0 $179 0.4224540621867553 $128 $180 forward 7 unknown #
edge $-1 $134 2.1912802922805866e-032 $155 3.1415926535897918 $129 $181 forward 7 unknown #
vertex $-1 $154 $182 #
ellipse-curve $-1 0.66399999999999992 -2.2961369134169574e-017 0.19999999999999998 0 -1 0 0.5625 0 5.5511151231257827e-017 1 I I #
coedge $-1 $132 $149 $175 $183 reversed $126 $-1 #
ellipse-curve $-1 0.97149999999999959 1.1102230246251565e-016 0.88406414172941428 -0.91208552230588613 2.2299586597622151e-016 0.40999999999999892 -0.076874999999999805 -1.3398367159668523e-016 -0.17101603543235366 1 I I #
point $-1 1.0483749999999996 4.5922738268339147e-017 1.0550801771617679 #
coedge $-1 $139 $138 $184 $185 reversed $140 $-1 #
face $-1 $95 $140 $3 $-1 $186 reversed single #
coedge $-1 $187 $188 $142 $163 forward $189 $-1 #
edge $-1 $166 -2.2130766381927454e-032 $164 3.1415926535897927 $142 $190 forward 7 unknown #
vertex $-1 $143 $191 #
ellipse-curve $-1 0.66399999999999992 0 0.19999999999999998 0 -1 0 0.89749999999999996 0 1.1102230246251565e-016 1 I I #
vertex $-1 $185 $192 #
ellipse-curve $-1 0.66399999999999992 -1.8062943718880064e-017 0.19999999999999998 0 -1 0 0.60250000000000004 0 5.5511151231257827e-017 1 I I #
torus-surface $-1 0.66399999999999992 0 0.19999999999999998 0 -1 0 0.75 0.14749999999999999 -1 0 0 forward_v I I I I #
face $-1 $193 $194 $3 $-1 $195 reversed single #
loop $-1 $-1 $196 $146 #
cone-surface $-1 0.78699999999999981 0 0.92362565669176566 -1 0 0 0 0 0.1875 1 I I 0 1 0.1875 forward I I I I #
coedge $-1 $197 $198 $149 $174 reversed $147 $-1 #
coedge $-1 $149 $152 $199 $200 reversed $126 $-1 #
edge $-1 $201 0 $202 1 $149 $203 forward 7 unknown #
coedge $-1 $176 $150 $157 $183 forward $104 $-1 #
coedge $-1 $151 $175 $198 $204 forward $104 $-1 #
coedge $-1 $196 $199 $151 $178 forward $170 $-1 #
edge $-1 $179 0 $205 1.0676668811279675 $151 $206 forward 7 unknown #
vertex $-1 $178 $207 #
ellipse-curve $-1 0.78699999999999992 4.5922738268339147e-017 0.47362565669176554 0 -1 0 0.26137499999999969 0 0.58145452047000235 1 I I #
ellipse-curve $-1 0.9714999999999997 -1.1102230246251565e-016 0.88406414172941428 -0.91208552230588591 -9.9109273767209634e-017 0.40999999999999942 0.076874999999999916 1.569450407308548e-016 0.17101603543235366 1 I I #
point $-1 0.89462499999999978 -2.2961369134169574e-017 0.71304810629706061 #
edge $-1 $155 0 $202 0.31528013272251126 $175 $208 forward 7 unknown #
coedge $-1 $209 $210 $160 $185 forward $211 $-1 #
edge $-1 $164 -5.3113839316625885e-032 $166 3.1415926535897922 $160 $212 forward 7 unknown #
torus-surface $-1 0.66399999999999992 0 0.19999999999999998 0 -1 0 0.75 0.14749999999999999 -1 0 0 forward_v I I I I #
coedge $-1 $213 $162 $210 $214 forward $189 $-1 #
coedge $-1 $162 $215 $209 $216 reversed $189 $-1 #
loop $-1 $-1 $217 $218 #
ellipse-curve $-1 0.9714999999999997 -4.8572257327350599e-017 0.88406414172941428 0.91208552230588569 -1.7704613105541962e-032 -0.40999999999999975 -0.060474999999999945 3.0509313608470535e-017 -0.13453261454011811 1 I I #
point $-1 1.0319749999999996 0 1.0185967562695324 #
point $-1 0.91102499999999975 -1.8062943718880064e-017 0.74953152718929617 #
face $-1 $219 $220 $3 $-1 $221 reversed single #
loop $-1 $-1 $222 $169 #
cone-surface $-1 0.70689321881345168 0.60363100491053734 0.48698239789315401 0 -0.81024097020164865 0.5860968948959645 0 -0.10989316779299332 -0.15192018191280909 1 I I 0 1 0.18749999999999997 forward I I I I #
coedge $-1 $223 $177 $224 $225 forward $170 $-1 #
coedge $-1 $226 $172 $227 $228 reversed $147 $-1 #
coedge $-1 $172 $224 $176 $204 reversed $147 $-1 #
coedge $-1 $177 $227 $173 $200 forward $170 $-1 #
edge $-1 $201 0 $179 2.956793165837567 $173 $229 forward 7 unknown #
vertex $-1 $200 $230 #
vertex $-1 $204 $231 #
intcurve-curve $-1 forward { surfintcur full nurbs 3 open 4 
	0 3 0.32958218652839333 1 0.66294725490167417 1 1 3 
	0.78699999999999992 -0.034453019826474231 0.73931819774113983 1 
	0.79011981787842278 -0.031046632645584962 0.73866768000574157 0.99999999999999989 
	0.79637189396385599 -0.023943151046045882 0.73744708895227662 0.99999999999999989 
	0.80571984569156785 -0.012422184854700487 0.73579033325915943 0.99999999999999978 
	0.81195481874257003 -0.0042381070813355525 0.73497145706945821 1.0000000000000002 
	0.81507932999002808 -2.2961369134169574e-017 0.7346195287027979 1 
	0.001 
	cone 0.70689321881345168 0.60363100491053734 0.48698239789315401 0 -0.81024097020164865 0.5860968948959645 0 -0.10989316779299332 -0.15192018191280909 1 I I 0 1 0.18749999999999997 forward I I I I 
	torus 0.78699999999999992 0 0.47362565669176554 0 -1 0 0.45000000000000012 0.1875 -0.40999999999999948 0 -0.9120855223058858 forward_v I I I I 
	nullbs 
	nullbs 
	I I 
	0 
	0 
	0 
	} I I #
edge $-1 $202 0 $205 1 $176 $232 forward 7 unknown #
vertex $-1 $178 $233 #
ellipse-curve $-1 0.78699999999999981 0 0.92362565669176566 -1 0 0 0 0 0.18750000000000011 1 I I #
point $-1 0.78699999999999981 0 1.1111256566917658 #
ellipse-curve $-1 0.78699999999999992 -2.2961369134169574e-017 0.47362565669176554 0 -1 0 0.10762499999999986 0 0.23942244960529507 1 I I #
coedge $-1 $234 $184 $188 $216 forward $211 $-1 #
coedge $-1 $184 $235 $187 $214 reversed $211 $-1 #
loop $-1 $-1 $210 $236 #
ellipse-curve $-1 0.9714999999999997 5.5511151231257827e-017 0.88406414172941428 0.91208552230588569 -1.7704613105541962e-032 -0.40999999999999975 0.060474999999999945 -5.5511151231257827e-017 0.13453261454011811 1 I I #
coedge $-1 $217 $187 $237 $238 reversed $189 $-1 #
edge $-1 $164 0 $239 0.42245406218675535 $210 $240 forward 7 unknown #
coedge $-1 $188 $217 $241 $242 forward $189 $-1 #
edge $-1 $166 0 $243 0.22219579281406443 $209 $244 forward 7 unknown #
coedge $-1 $215 $213 $245 $246 forward $189 $-1 #
face $-1 $145 $189 $3 $-1 $247 reversed single #
face $-1 $248 $249 $3 $-1 $250 reversed single #
loop $-1 $-1 $251 $193 #
plane-surface $-1 0.70689321881345168 0 0.92362565669176533 0 -0.81024097020164865 0.5860968948959645 0 -0.58609689489596439 -0.81024097020164854 forward_v I I I I #
coedge $-1 $252 $253 $254 $255 forward $194 $-1 #
coedge $-1 $256 $196 $253 $257 forward $170 $-1 #
coedge $-1 $198 $258 $196 $225 reversed $147 $-1 #
edge $-1 $205 0 $259 1 $196 $260 forward 7 unknown #
coedge $-1 $261 $197 $262 $263 forward $147 $-1 #
coedge $-1 $199 $264 $197 $228 forward $170 $-1 #
edge $-1 $265 0 $201 1 $227 $266 forward 7 unknown #
ellipse-curve $-1 0.78699999999999981 0 0.92362565669176566 -1 0 0 0 -0.034453019826474307 -0.18430745895062561 1 I I #
point $-1 0.78699999999999981 -0.034453019826474307 0.73931819774114005 #
point $-1 0.81507932999002819 -2.2961369134169574e-017 0.7346195287027979 #
intcurve-curve $-1 forward { surfintcur full nurbs 3 open 15 
	0 3 0.072159376577789772 1 0.14368556394078719 1 0.21469514678158735 1 0.28525276460976179 1 
	0.35552433705828856 1 0.4259054734986969 1 0.49651757563232268 1 0.5673383205463286 1 0.63829139906743071 1 
	0.70960122695141192 1 0.7813964182894193 1 0.85373750939998749 1 0.92667450505687077 1 1 3 
	0.81507932999002819 -2.2961369134169574e-017 0.7346195287027979 1 
	0.82275982958477689 0.010589475144709556 0.73378293777058456 1 
	0.8368351748684596 0.030837994784472113 0.73337705961130473 1.0000000000000002 
	0.8539499726796721 0.058681642804235282 0.73654385969983183 0.99999999999999989 
	0.86794564595730894 0.083705639269387191 0.74332957251231702 1.0000000000000002 
	0.87876274892856254 0.10554214882122777 0.75337460005566503 0.99999999999999989 
	0.88669834610619813 0.12428748460890406 0.76601715285437932 1.0000000000000002 
	0.89247088084881465 0.1421384645297212 0.78293859398376531 0.99999999999999989 
	0.89503922390841761 0.15809401434694281 0.80444209141265122 1 
	0.89351534025614876 0.17104847763164305 0.82979238019537416 1 
	0.88797396554441888 0.1801592749341947 0.85655035166718985 0.99999999999999978 
	0.87806407996791802 0.18607236746813602 0.88584013870282052 0.99999999999999989 
	0.86316865071967963 0.1882242250902891 0.91725685430052561 1.0000000000000002 
	0.84309401801388462 0.18602930682026397 0.9498845294403615 0.99999999999999989 
	0.81707163973481822 0.17858317211371019 0.98331558433908006 1.0000000000000002 
	0.797500744965149 0.16968032828023058 1.0039477507846812 0.99999999999999989 
	0.78700000000000014 0.16426461204311416 1.0140324442152986 1 
	0.001 
	cone 0.70689321881345168 0.60363100491053734 0.48698239789315401 0 -0.81024097020164865 0.5860968948959645 0 -0.10989316779299332 -0.15192018191280909 1 I I 0 1 0.18749999999999997 forward I I I I 
	torus 0.78699999999999992 0 0.47362565669176554 0 -1 0 0.45000000000000012 0.1875 -0.40999999999999948 0 -0.9120855223058858 forward_v I I I I 
	nullbs 
	nullbs 
	I I 
	0 
	0 
	0 
	} I I #
point $-1 0.78699999999999981 0.16426461204311443 1.0140324442152979 #
coedge $-1 $267 $209 $261 $268 forward $211 $-1 #
coedge $-1 $210 $267 $269 $270 reversed $211 $-1 #
face $-1 $218 $211 $3 $-1 $271 reversed single #
coedge $-1 $269 $272 $213 $238 forward $249 $-1 #
edge $-1 $273 0 $239 0.62623318444009779 $213 $274 forward 7 unknown #
vertex $-1 $270 $275 #
ellipse-curve $-1 0.78699999999999992 0 0.47362565669176554 0 -1 0 0.24497499999999972 0 0.54497109957776679 1 I I #
coedge $-1 $258 $261 $215 $242 reversed $147 $-1 #
edge $-1 $276 0 $243 1 $215 $277 forward 7 unknown #
vertex $-1 $268 $278 #
ellipse-curve $-1 0.78699999999999992 -1.8062943718880064e-017 0.47362565669176554 0 -1 0 0.12402499999999983 0 0.27590587049753063 1 I I #
coedge $-1 $251 $279 $217 $246 reversed $220 $-1 #
edge $-1 $273 3.4452295853635964e-021 $276 0.052612578912743659 $217 $280 forward 7 unknown #
torus-surface $-1 0.78699999999999992 0 0.47362565669176554 0 -1 0 0.45000000000000012 0.14749999999999999 -0.40999999999999948 0 -0.9120855223058858 forward_v I I I I #
face $-1 $281 $282 $3 $-1 $283 reversed single #
loop $-1 $-1 $284 $219 #
cone-surface $-1 0.78699999999999981 0 0.92362565669176566 -1 0 0 0 0 0.14749999999999999 1 I I 0 1 0.14749999999999999 forward I I I I #
coedge $-1 $285 $245 $272 $286 forward $220 $-1 #
coedge $-1 $287 $222 $288 $289 reversed $194 $-1 #
coedge $-1 $222 $290 $223 $257 reversed $194 $-1 #
coedge $-1 $279 $285 $222 $255 reversed $220 $-1 #
edge $-1 $259 5.9211894646675278e-016 $291 0.67383797849503091 $254 $292 forward 7 unknown #
coedge $-1 $293 $223 $294 $295 reversed $170 $-1 #
edge $-1 $259 0 $296 1 $223 $297 forward 7 unknown #
coedge $-1 $224 $241 $279 $298 forward $147 $-1 #
vertex $-1 $257 $299 #
intcurve-curve $-1 forward { surfintcur full nurbs 3 open 4 
	0 3 0.33017339067832729 1 0.66347968400895097 1 1 3 
	0.78699999999999981 0.16426461204311443 1.0140324442152979 1 
	0.7788292798683043 0.15990928802606041 1.0219523943378783 1 
	0.76197955962889774 0.15007585199933479 1.0371073415318468 0.99999999999999989 
	0.73510455696453036 0.13191561325392864 1.0578561858101534 1 
	0.71645549493554583 0.11762231840270025 1.069915708736993 1 
	0.70689321881345157 0.10989316779299335 1.0755458386045746 1 
	0.001 
	cone 0.70689321881345168 0.60363100491053734 0.48698239789315401 0 -0.81024097020164865 0.5860968948959645 0 -0.10989316779299332 -0.15192018191280909 1 I I 0 1 0.18749999999999997 forward I I I I 
	cone 0.78699999999999981 0 0.92362565669176566 -1 0 0 0 0 0.1875 1 I I 0 1 0.1875 forward I I I I 
	nullbs 
	nullbs 
	I F 0.99999170507316593 
	0 
	1 0.99999170507316593 
	0 
	} I I #
coedge $-1 $241 $226 $234 $268 reversed $147 $-1 #
coedge $-1 $300 $301 $226 $263 reversed $282 $-1 #
edge $-1 $265 -2.8048387741191908e-030 $302 0.65320180398866334 $262 $303 forward 7 unknown #
coedge $-1 $227 $293 $304 $305 forward $170 $-1 #
vertex $-1 $228 $306 #
intcurve-curve $-1 forward { surfintcur full nurbs 3 open 4 
	0 3 0.33652031599104926 1 0.66982660932167282 1 1 3 
	0.70689321881345168 -0.10989316779299316 0.77170547477895646 1 
	0.71645549493554594 -0.10212682263769675 0.76612676395994372 1 
	0.73510455696453114 -0.086199649265494852 0.7563259721909632 0.99999999999999967 
	0.76197955962889719 -0.060809431545003706 0.74557210524545692 1.0000000000000004 
	0.77882927986830441 -0.043338200222922486 0.74097591501506122 0.99999999999999989 
	0.78699999999999981 -0.034453019826474307 0.73931819774114005 1 
	0.001 
	cone 0.70689321881345168 0.60363100491053734 0.48698239789315401 0 -0.81024097020164865 0.5860968948959645 0 -0.10989316779299332 -0.15192018191280909 1 I I 0 1 0.18749999999999997 forward I I I I 
	cone 0.78699999999999981 0 0.92362565669176566 -1 0 0 0 0 0.1875 1 I I 0 1 0.1875 forward I I I I 
	nullbs 
	nullbs 
	F 8.2949268340258063e-006 I 
	0 
	1 8.2949268340258063e-006 
	0 
	} I I #
coedge $-1 $235 $234 $301 $307 forward $211 $-1 #
edge $-1 $243 0 $302 1.0000000000000002 $234 $308 forward 7 unknown #
coedge $-1 $284 $237 $235 $270 forward $249 $-1 #
edge $-1 $239 0 $309 2.5153594691497032 $235 $310 forward 7 unknown #
torus-surface $-1 0.78699999999999992 0 0.47362565669176554 0 -1 0 0.45000000000000012 0.14749999999999999 -0.40999999999999948 0 -0.9120855223058858 forward_v I I I I #
coedge $-1 $237 $311 $251 $286 reversed $249 $-1 #
vertex $-1 $238 $312 #
ellipse-curve $-1 0.78699999999999981 0 0.92362565669176566 1 0 0 0 0.086449291997155203 0.11951054310474285 1 I I #
point $-1 0.78699999999999981 -3.6125887437760128e-017 1.0711256566917657 #
vertex $-1 $242 $313 #
intcurve-curve $-1 forward { surfintcur full nurbs 3 open 17 
	0 3 0.06155180377461765 1 0.12333784253035013 1 0.18544210666872796 1 0.24790773715532027 1 
	0.31073273459932277 1 0.37388901074983222 1 0.43715714701250064 1 0.50009022459496555 1 0.56276530686916948 1 
	0.62514696859471952 1 0.68726242071579446 1 0.74921783566221201 1 0.8112862379186373 1 0.87370754493925162 1 
	0.93659842020217798 1 1 3 
	0.82387615087459587 0.085881183404923025 1.0423508264888548 1 
	0.82383293799932267 0.090856246637760499 1.0388294636642201 1 
	0.82480639034468828 0.10045125463835297 1.0308902267961009 0.99999999999999978 
	0.82952293561274471 0.1139479990817288 1.0163575102157369 1.0000000000000002 
	0.83736711277893106 0.125976129540321 0.99893693700412522 0.99999999999999978 
	0.84773773599880287 0.13606956204860024 0.97843076286024544 1 
	0.8596603103020517 0.14357280092636562 0.95476281498149518 1.0000000000000002 
	0.87203011083224857 0.14778920115814334 0.92778699918607543 1 
	0.88301606692248791 0.14752692880113716 0.8984420869551254 1 
	0.89026229923719002 0.14301090899940816 0.87174639832233547 1 
	0.89422843750773195 0.13461286270435807 0.84664763748566141 1.0000000000000002 
	0.89472234342255941 0.12300795556746134 0.82501864749162557 0.99999999999999978 
	0.8923385678725716 0.1090427874374546 0.80727554799921297 1 
	0.88779578598643005 0.093528260747796327 0.79340301402468361 1 
	0.88114879377074729 0.075572301289395682 0.78224085195550563 1 
	0.87208526486225468 0.054139025803350831 0.77388866007725321 0.99999999999999978 
	0.86053151085879853 0.0289782339991554 0.76914597452453148 1 
	0.85183752045529215 0.010053606924644951 0.76926150800327475 1 
	0.84717403971733862 -1.8062943718880064e-017 0.77008026526463991 1 
	0.001 
	torus 0.78699999999999992 0 0.47362565669176554 0 -1 0 0.45000000000000012 0.14749999999999999 -0.40999999999999948 0 -0.9120855223058858 forward_v I I I I 
	cone 0.70689321881345168 0.60363100491053734 0.48698239789315401 0 -0.81024097020164865 0.5860968948959645 0 -0.10989316779299332 -0.15192018191280909 1 I I 0 1 0.18749999999999997 forward I I I I 
	nullbs 
	nullbs 
	I I 
	0 
	0 
	0 
	} I I #
point $-1 0.84717403971733862 -1.8062943718880064e-017 0.77008026526463991 #
coedge $-1 $245 $254 $258 $298 reversed $220 $-1 #
ellipse-curve $-1 0.78701881661201023 -0.32453524859742799 0.47497670977166823 8.6130739634089903e-021 0.81024097020164831 -0.58609689489596473 -1.8816612010419398e-005 0.41098454059458311 0.56815949002484034 1 I I #
face $-1 $314 $315 $3 $-1 $316 reversed single #
loop $-1 $-1 $262 $248 #
plane-surface $-1 0.70689321881345168 0 0.92362565669176533 0 -0.81024097020164865 0.5860968948959645 0 -0.58609689489596439 -0.81024097020164854 forward_v I I I I #
coedge $-1 $317 $269 $318 $319 forward $249 $-1 #
coedge $-1 $254 $251 $320 $321 reversed $220 $-1 #
edge $-1 $273 5.5370485901136665e-032 $322 0.15999999999999992 $272 $323 forward 7 unknown #
coedge $-1 $324 $252 $325 $326 reversed $194 $-1 #
coedge $-1 $320 $327 $252 $289 forward $328 $-1 #
edge $-1 $329 0 $291 1 $288 $330 forward 7 unknown #
coedge $-1 $253 $331 $332 $333 reversed $194 $-1 #
vertex $-1 $321 $334 #
ellipse-curve $-1 0.70689321881345157 4.6411517796352088e-016 0.92362565669176599 8.7651211691224317e-032 -0.81024097020164854 0.5860968948959645 1.1102230246251565e-016 0.10989316779299287 0.15192018191280843 1 I I #
coedge $-1 $264 $256 $335 $336 reversed $170 $-1 #
coedge $-1 $332 $337 $256 $295 forward $338 $-1 #
edge $-1 $339 0 $296 1.0664074957094165 $256 $340 forward 7 unknown #
vertex $-1 $295 $341 #
intcurve-curve $-1 forward { surfintcur full nurbs 3 open 4 
	0 3 0.33650626090527225 1 0.66981269373857999 1 1 3 
	0.70689321881345157 0.10989316779299335 1.0755458386045746 1 
	0.69735967167286184 0.11759922231341174 1.0699327973511767 1 
	0.67876445664892371 0.13185362037192991 1.0579113760252463 1 
	0.65196211870031462 0.14997566199543319 1.0372337074228595 0.99999999999999978 
	0.63515255444678309 0.15979763369639002 1.0221314257859189 1 
	0.62700000000000067 0.16415062481720516 1.0142392449228976 1 
	0.001 
	cone 0.70689321881345168 0.60363100491053734 0.48698239789315401 0 -0.81024097020164865 0.5860968948959645 0 -0.10989316779299332 -0.15192018191280909 1 I I 0 1 0.18749999999999997 forward I I I I 
	cone 0.78699999999999981 0 0.92362565669176566 -1 0 0 0 0 0.1875 1 I I 0 1 0.1875 forward I I I I 
	nullbs 
	nullbs 
	F 8.3195760998174831e-006 I 
	0 
	1 8.3195760998174831e-006 
	0 
	} I I #
edge $-1 $276 1.6776703483224627e-015 $259 0.67373467790397279 $279 $342 forward 7 unknown #
point $-1 0.70689321881345157 0.10989316779299335 1.0755458386045746 #
coedge $-1 $343 $262 $324 $344 reversed $282 $-1 #
coedge $-1 $262 $318 $267 $307 reversed $282 $-1 #
vertex $-1 $307 $345 #
ellipse-curve $-1 0.70689321881345202 -6.3391622154808741e-016 0.92362565669176444 0 -0.81024097020164854 0.5860968948959645 -3.3306690738754696e-016 -0.10989316779299269 -0.15192018191280821 1 I I #
coedge $-1 $331 $324 $264 $305 reversed $194 $-1 #
edge $-1 $346 0 $265 1 $264 $347 forward 7 unknown #
point $-1 0.70689321881345168 -0.10989316779299316 0.77170547477895646 #
edge $-1 $302 0 $309 0.082576306010108708 $267 $348 forward 7 unknown #
intcurve-curve $-1 forward { surfintcur full nurbs 3 open 5 
	0 3 0.25870062440187008 1 0.51151304256241859 1 0.75888260495138882 1 1.0000000000000002 3 
	0.84717403971733896 -1.8062943718880064e-017 0.77008026526463991 1 
	0.8429288763030518 -0.0091355302099036129 0.77101758291500799 1 
	0.8354722674311813 -0.026440780569727176 0.77394111404026267 1 
	0.82672308068016864 -0.049878076120239791 0.78162778662234278 1.0000000000000002 
	0.82164390493867601 -0.07067512772138955 0.79172956372258707 1 
	0.82072264968053099 -0.082106460690985886 0.79909352079633134 1 
	0.82084300699148482 -0.087270783691579687 0.80297945456323228 1 
	0.001 
	torus 0.78699999999999992 0 0.47362565669176554 0 -1 0 0.45000000000000012 0.14749999999999999 -0.40999999999999948 0 -0.9120855223058858 forward_v I I I I 
	cone 0.70689321881345168 0.60363100491053734 0.48698239789315401 0 -0.81024097020164865 0.5860968948959645 0 -0.10989316779299332 -0.15192018191280909 1 I I 0 1 0.18749999999999997 forward I I I I 
	nullbs 
	nullbs 
	I I 
	0 
	0 
	0 
	} I I #
vertex $-1 $270 $349 #
ellipse-curve $-1 0.78699999999999981 0 0.92362565669176566 1 0 0 0 -3.6125887437760128e-017 0.14750000000000008 1 I I #
coedge $-1 $272 $317 $350 $351 reversed $249 $-1 #
point $-1 0.78699999999999981 0.086449291997155203 1.0431361997965085 #
point $-1 0.82387615087459587 0.085881183404923025 1.0423508264888548 #
face $-1 $352 $328 $3 $-1 $353 reversed single #
loop $-1 $-1 $354 $281 #
torus-surface $-1 0.62699999999999989 0 0.47362565669176576 0 -1 0 0.44999999999999996 0.14749999999999999 0 0 -1 forward_v I I I I #
coedge $-1 $311 $284 $355 $356 reversed $249 $-1 #
coedge $-1 $301 $343 $284 $319 reversed $282 $-1 #
edge $-1 $309 -5.7777898331617163e-032 $357 0.15999999999999992 $284 $358 forward 7 unknown #
coedge $-1 $350 $288 $285 $321 forward $328 $-1 #
edge $-1 $291 -7.056245750416409e-018 $322 0.052940735190871162 $320 $359 forward 7 unknown #
vertex $-1 $286 $360 #
straight-curve $-1 0.78699999999999981 0.086449291997154912 1.0431361997965087 -1 -8.6736173798845995e-016 -1.387778780781536e-015 I I #
coedge $-1 $304 $287 $300 $344 forward $194 $-1 #
coedge $-1 $361 $354 $287 $326 forward $315 $-1 #
edge $-1 $362 0 $329 0.99999999999999989 $325 $363 forward 7 unknown #
coedge $-1 $288 $364 $361 $365 reversed $328 $-1 #
loop $-1 $-1 $366 $314 #
vertex $-1 $365 $367 #
intcurve-curve $-1 forward { surfintcur full nurbs 3 open 17 
	0 3 0.063401494804274913 1 0.12628836671324423 1 0.18870527519803321 1 0.25077425577394069 1 
	0.31273528669022604 1 0.37485274743789915 1 0.43723231133077911 1 0.49990059709555668 1 0.56282649888634251 1 
	0.62609866063908259 1 0.68925820053593778 1 0.75208474273011516 1 0.81455234322258074 1 0.8766589429503342 1 
	0.93844703285481257 1 1 3 
	0.56663962538724777 -1.8062943718880064e-017 0.77004238222628785 1 
	0.56197409873943738 0.010058310813362465 0.76922156046089318 1 
	0.55327851185475041 0.028985043378300962 0.76910010742107038 1 
	0.5417334196071687 0.054120806230933502 0.77383215821165319 1 
	0.53267595929635891 0.075526279655866058 0.78216023895646047 1.0000000000000002 
	0.52601658738301171 0.093491273713323081 0.79330955382079082 0.99999999999999978 
	0.52145375015164763 0.10904927999250114 0.80721409191849125 1.0000000000000002 
	0.5190655272792879 0.12301855352065703 0.82497051193148108 0.99999999999999989 
	0.51955522130923271 0.13461492997225472 0.84659323497156347 0.99999999999999989 
	0.52350802360906201 0.14299740815605727 0.87165084460497955 1.0000000000000002 
	0.5307196863682172 0.1475170726108318 0.89828269705979791 0.99999999999999989 
	0.54171109217945157 0.1477960506537695 0.92768574387571945 1 
	0.55408476871469081 0.14358268200486266 0.9546847280441334 1.0000000000000002 
	0.56600988893892246 0.13608437611932014 0.97836662056608703 0.99999999999999978 
	0.57638862466698182 0.1259912654437074 0.99888991806438188 1.0000000000000002 
	0.58424243243708274 0.11395808598635136 1.0163280392715228 0.99999999999999989 
	0.5889650182809405 0.1004517046345829 1.0308748884206707 1.0000000000000002 
	0.58993891767493789 0.090851668244535444 1.0388185092732054 1 
	0.58989515066943798 0.085874100313867857 1.0423410345745507 1 
	0.001 
	torus 0.62699999999999989 0 0.47362565669176576 0 -1 0 0.44999999999999996 0.14749999999999999 0 0 -1 forward_v I I I I 
	cone 0.70689321881345168 0.60363100491053734 0.48698239789315401 0 -0.81024097020164865 0.5860968948959645 0 -0.10989316779299332 -0.15192018191280909 1 I I 0 1 0.18749999999999997 forward I I I I 
	nullbs 
	nullbs 
	I I 
	0 
	0 
	0 
	} I I #
coedge $-1 $290 $304 $368 $369 reversed $194 $-1 #
coedge $-1 $370 $294 $290 $333 forward $338 $-1 #
edge $-1 $296 0 $371 1 $332 $372 forward 7 unknown #
point $-1 0.58989515066943798 0.085874100313867857 1.0423410345745507 #
coedge $-1 $373 $368 $293 $336 forward $374 $-1 #
edge $-1 $346 0 $339 2.9555337804190223 $293 $375 forward 7 unknown #
coedge $-1 $294 $376 $373 $377 reversed $338 $-1 #
loop $-1 $-1 $332 $378 #
vertex $-1 $336 $379 #
ellipse-curve $-1 0.627 3.5735303605122226e-016 0.92362565669176644 -1 9.8348682571215117e-031 -5.9211894646675229e-016 -1.1102230246251565e-016 -3.1143029778288311e-016 0.18749999999999933 1 I I #
point $-1 0.62700000000000033 0.16415062481720522 1.0142392449228976 #
ellipse-curve $-1 0.7068932188134518 1.3881454957023361e-016 0.92362565669176555 -9.8686491077791971e-017 -0.81024097020164876 0.58609689489596428 0.1169829320611443 0.085881183404922484 0.11872516979708925 1 I I #
coedge $-1 $318 $300 $354 $380 reversed $282 $-1 #
edge $-1 $362 -1.0855514018557428e-015 $265 0.65306157174924739 $300 $381 forward 7 unknown #
point $-1 0.82084300699148482 -0.087270783691579687 0.80297945456323228 #
vertex $-1 $305 $382 #
intcurve-curve $-1 forward { surfintcur full nurbs 3 open 4 
	0 3 0.3301873062614209 1 0.66349373909472775 1 1 3 
	0.62699999999999989 -0.034685106569317961 0.73936173352101842 1 
	0.63515255444678242 -0.0435431826976687 0.74102592635145637 1.0000000000000002 
	0.65196211870031417 -0.060960806295609189 0.74562771154161411 1 
	0.67876445664892304 -0.086271469278411936 0.75636757703449042 1.0000000000000002 
	0.69735967167286161 -0.10215028134410206 0.76614335127946609 1 
	0.70689321881345168 -0.10989316779299316 0.77170547477895646 1 
	0.001 
	cone 0.70689321881345168 0.60363100491053734 0.48698239789315401 0 -0.81024097020164865 0.5860968948959645 0 -0.10989316779299332 -0.15192018191280909 1 I I 0 1 0.18749999999999997 forward I I I I 
	cone 0.78699999999999981 0 0.92362565669176566 -1 0 0 0 0 0.1875 1 I I 0 1 0.1875 forward I I I I 
	nullbs 
	nullbs 
	I F 0.99999168042390019 
	0 
	1 0.99999168042390019 
	0 
	} I I #
ellipse-curve $-1 0.78695738002358284 -0.3269290097296953 0.47166749015434961 6.6976977009503011e-017 -0.81024097020164809 0.58609689489596528 0.033885626967901983 0.2396582260381156 0.33131196440888266 1 I I #
point $-1 0.78699999999999981 -0.086449291997154273 0.80411511358702215 #
coedge $-1 $366 $320 $311 $351 forward $328 $-1 #
edge $-1 $322 0 $383 0.62623318444009324 $311 $384 forward 7 unknown #
face $-1 $385 $386 $3 $-1 $387 reversed single #
torus-surface $-1 0.62699999999999989 0 0.47362565669176576 0 -1 0 0.44999999999999996 0.14749999999999999 0 0 -1 forward_v I I I I #
coedge $-1 $325 $355 $343 $380 forward $315 $-1 #
coedge $-1 $354 $388 $317 $356 forward $315 $-1 #
edge $-1 $383 0 $357 2.5153594691497045 $317 $389 forward 7 unknown #
vertex $-1 $356 $390 #
straight-curve $-1 0.78699999999999981 -0.086449291997154537 0.80411511358702237 -1 -1.3877787807814473e-015 -1.3877787807814473e-015 I I #
ellipse-curve $-1 0.62698083279374894 -0.3245231464706575 0.47499344017754719 2.8224983001665636e-017 0.81024097020164831 -0.58609689489596495 -0.037085682124310959 0.41039724678452538 0.56734759439700355 1 I I #
point $-1 0.62699999999999989 0.08644929199715537 1.0431361997965085 #
coedge $-1 $391 $325 $327 $365 forward $315 $-1 #
vertex $-1 $326 $392 #
intcurve-curve $-1 forward { surfintcur full nurbs 3 open 5 
	0 3 0.24111784628032748 1 0.48848735084087391 1 0.74129971334125788 1 0.99999999999999989 3 
	0.59296431256496285 -0.087280148330091997 0.80296650855744423 1 
	0.59308550862795806 -0.082115340400568546 0.79907951771713903 1 
	0.59216588283402138 -0.070682910671639079 0.79171291468802407 1 
	0.58708935236729098 -0.049884017209306381 0.78160556147250926 1 
	0.57834187993465747 -0.026444054094435725 0.77391150285084542 1.0000000000000002 
	0.57088513470459823 -0.0091366932626898798 0.77098258957563359 1 
	0.56663962538724777 -1.8062943718880064e-017 0.77004238222628785 1 
	0.001 
	torus 0.62699999999999989 0 0.47362565669176576 0 -1 0 0.44999999999999996 0.14749999999999999 0 0 -1 forward_v I I I I 
	cone 0.70689321881345168 0.60363100491053734 0.48698239789315401 0 -0.81024097020164865 0.5860968948959645 0 -0.10989316779299332 -0.15192018191280909 1 I I 0 1 0.18749999999999997 forward I I I I 
	nullbs 
	nullbs 
	I I 
	0 
	0 
	0 
	} I I #
coedge $-1 $327 $366 $393 $394 reversed $328 $-1 #
edge $-1 $329 0 $395 0.22156720823404594 $361 $396 forward 7 unknown #
coedge $-1 $364 $350 $388 $397 forward $328 $-1 #
point $-1 0.56663962538724777 -1.8062943718880064e-017 0.77004238222628785 #
coedge $-1 $335 $398 $331 $369 forward $374 $-1 #
edge $-1 $371 0 $346 1 $368 $399 forward 7 unknown #
coedge $-1 $376 $332 $398 $400 forward $338 $-1 #
vertex $-1 $400 $401 #
intcurve-curve $-1 forward { surfintcur full nurbs 3 open 15 
	0 3 0.073316899499375573 1 0.14625995352190108 1 0.21860431040821271 1 0.29040039408924562 1 
	0.36171233116343893 1 0.4326640775890816 1 0.503489823852179 1 0.57411053264888234 1 0.64450044235759285 1 
	0.71476968791499595 1 0.78532321489551993 1 0.85632907390859647 1 0.92784917474922612 1 1 3 
	0.62700000000000033 0.16415062481720522 1.0142392449228976 1 
	0.6165088867714893 0.16957290570113773 1.0041810715241439 1 
	0.59694016183354681 0.17849399325477672 0.98358024419759771 1 
	0.5708319962477939 0.18599870665838725 0.95009453069579108 1 
	0.55071579883134825 0.18822398083873437 0.9174370816087164 1.0000000000000002 
	0.53578853237586999 0.18610215678756803 0.88600242588277967 1 
	0.52584528646970341 0.18020526602335571 0.8566617679887697 1.0000000000000002 
	0.52028766361805778 0.17112317943582844 0.82990318999250345 0.99999999999999967 
	0.51874193572317373 0.15816453153376492 0.80447969714943413 1.0000000000000004 
	0.52131202144647504 0.1421753002082172 0.78290155381430537 0.99999999999999978 
	0.52711842264991537 0.1242481926376925 0.76591514272169503 1.0000000000000002 
	0.53506162290466297 0.10551039649375166 0.75329593728266941 0.99999999999999978 
	0.54588342264639711 0.083676808772917777 0.74326294322822939 1 
	0.55988629894005393 0.058648775825062803 0.73649132616309854 1 
	0.57699559459957817 0.030817849838750338 0.73334184579421979 1.0000000000000002 
	0.59105860952632672 0.010581612856477227 0.73375761457856159 1 
	0.59873064003927645 -2.2961369134169574e-017 0.73459901412008843 1 
	0.001 
	cone 0.70689321881345168 0.60363100491053734 0.48698239789315401 0 -0.81024097020164865 0.5860968948959645 0 -0.10989316779299332 -0.15192018191280909 1 I I 0 1 0.18749999999999997 forward I I I I 
	torus 0.62699999999999989 0 0.47362565669176576 0 -1 0 0.44999999999999996 0.1875 0 0 -1 forward_v I I I I 
	nullbs 
	nullbs 
	I I 
	0 
	0 
	0 
	} I I #
coedge $-1 $402 $335 $337 $377 forward $374 $-1 #
loop $-1 $-1 $373 $403 #
ellipse-curve $-1 0.62699999999999989 -6.9388939039072284e-017 0.92362565669176577 -1 0 0 0 -0.034685106569317808 -0.18426392317074725 1 I I #
coedge $-1 $337 $370 $404 $405 reversed $338 $-1 #
edge $-1 $339 0 $406 0.42245406218675674 $337 $407 forward 7 unknown #
face $-1 $403 $338 $3 $-1 $408 forward single #
point $-1 0.62699999999999989 4.5922738268339147e-017 1.1111256566917658 #
edge $-1 $357 0 $362 0.083041905768318922 $354 $409 forward 7 unknown #
ellipse-curve $-1 0.7068932188134508 -1.6217359890411541e-015 0.92362565669176311 4.9343245538897335e-017 -0.81024097020164865 0.58609689489596439 -0.11392890624848795 -0.08728014833009079 -0.12065914813431899 1 I I #
point $-1 0.62699999999999989 -0.034685106569317878 0.73936173352101853 #
vertex $-1 $351 $410 #
ellipse-curve $-1 0.62699999999999989 -3.4520997171938461e-016 0.92362565669176444 1 0 0 0 0.086449291997155717 0.11951054310474407 1 I I #
face $-1 $411 $412 $3 $-1 $413 reversed single #
loop $-1 $-1 $414 $352 #
torus-surface $-1 0.75 0 0.19999999999999998 0 -1 0 0.75 0.14749999999999999 0.41000000000000053 0 -0.91208552230588535 forward_v I I I I #
coedge $-1 $355 $391 $366 $397 reversed $315 $-1 #
ellipse-curve $-1 0.62699999999999989 -7.6327832942979512e-017 0.92362565669176577 1 0 0 0 7.6327832942979512e-017 0.14749999999999996 1 I I #
point $-1 0.62699999999999989 -0.086449291997154232 0.80411511358702226 #
coedge $-1 $388 $361 $415 $416 reversed $315 $-1 #
point $-1 0.59296431256496285 -0.087280148330091997 0.80296650855744423 #
coedge $-1 $414 $417 $364 $394 forward $386 $-1 #
edge $-1 $395 -1.7704613105541941e-032 $418 3.1415926535897931 $364 $419 forward 7 unknown #
vertex $-1 $416 $420 #
ellipse-curve $-1 0.62699999999999989 -1.8062943718880064e-017 0.47362565669176576 0 -1 0 -0.060360374612752121 0 0.29641672553452209 1 I I #
edge $-1 $383 0 $418 0.42245406218675685 $388 $421 forward 7 unknown #
coedge $-1 $368 $402 $370 $400 reversed $374 $-1 #
intcurve-curve $-1 forward { surfintcur full nurbs 3 open 4 
	0 3 0.33706367921768932 1 0.67042972120163247 1 1 3 
	0.59873064003927667 -2.2961369134169574e-017 0.73459901412008843 1 
	0.60187596198185789 -0.0042684066967099473 0.73495578373069637 1 
	0.60815266442132221 -0.012509885613950814 0.73578588757449115 0.99999999999999978 
	0.61756363025311789 -0.024109072612690262 0.73746564884526689 1.0000000000000002 
	0.62385864097706312 -0.031257766287124879 0.73870258281389356 0.99999999999999989 
	0.62699999999999989 -0.034685106569317878 0.73936173352101853 1 
	0.001 
	cone 0.70689321881345168 0.60363100491053734 0.48698239789315401 0 -0.81024097020164865 0.5860968948959645 0 -0.10989316779299332 -0.15192018191280909 1 I I 0 1 0.18749999999999997 forward I I I I 
	torus 0.62699999999999989 0 0.47362565669176576 0 -1 0 0.44999999999999996 0.1875 0 0 -1 forward_v I I I I 
	nullbs 
	nullbs 
	I I 
	0 
	0 
	0 
	} I I #
edge $-1 $371 0 $422 0.31455200286461671 $370 $423 forward 7 unknown #
point $-1 0.59873064003927667 -2.2961369134169574e-017 0.73459901412008843 #
coedge $-1 $398 $373 $424 $425 reversed $374 $-1 #
face $-1 $236 $374 $3 $-1 $426 forward single #
coedge $-1 $427 $428 $376 $405 forward $429 $-1 #
edge $-1 $406 1.3147681753683523e-031 $422 3.1415926535897922 $376 $430 forward 7 unknown #
vertex $-1 $377 $431 #
ellipse-curve $-1 0.62699999999999989 4.5922738268339147e-017 0.47362565669176576 0 -1 0 0 0 0.63749999999999996 1 I I #
torus-surface $-1 0.62699999999999989 0 0.47362565669176576 0 -1 0 0.44999999999999996 0.1875 0 0 -1 forward_v I I I I #
ellipse-curve $-1 0.62704335467191452 -0.32694526404069546 0.47164501962289068 -9.0551579650434771e-020 -0.81024097020164809 0.58609689489596517 -4.3354671914630494e-005 0.24049597204354123 0.33247009396413157 1 I I #
point $-1 0.62699999999999989 0 1.0711256566917657 #
face $-1 $432 $433 $3 $-1 $434 reversed single #
loop $-1 $-1 $435 $385 #
torus-surface $-1 0.75 0 0.19999999999999998 0 -1 0 0.75 0.14749999999999999 0.41000000000000053 0 -0.91208552230588535 forward_v I I I I #
coedge $-1 $436 $393 $437 $438 forward $386 $-1 #
coedge $-1 $435 $437 $391 $416 forward $412 $-1 #
edge $-1 $418 -8.8523065527709812e-033 $395 3.1415926535897931 $391 $439 forward 7 unknown #
coedge $-1 $393 $436 $435 $440 reversed $386 $-1 #
vertex $-1 $397 $441 #
ellipse-curve $-1 0.44249999999999945 6.9388939039072284e-018 0.88406414172941394 0.91208552230588513 -1.5946897796971507e-016 0.41000000000000097 0.060475000000000168 -2.5001837622787292e-017 -0.13453261454011811 1 I I #
point $-1 0.50297499999999962 -1.8062943718880064e-017 0.74953152718929583 #
ellipse-curve $-1 0.62699999999999989 0 0.47362565669176576 0 -1 0 0 0 0.59749999999999992 1 I I #
vertex $-1 $405 $442 #
ellipse-curve $-1 0.62699999999999989 -2.2961369134169574e-017 0.47362565669176576 0 -1 0 -0.028269359960723217 0 0.26097335742832267 1 I I #
coedge $-1 $443 $444 $402 $425 forward $445 $-1 #
edge $-1 $422 -2.1912802922805866e-032 $406 3.1415926535897922 $402 $446 forward 7 unknown #
torus-surface $-1 0.62699999999999989 0 0.47362565669176576 0 -1 0 0.44999999999999996 0.1875 0 0 -1 forward_v I I I I #
coedge $-1 $447 $404 $444 $448 forward $429 $-1 #
coedge $-1 $404 $447 $443 $449 reversed $429 $-1 #
loop $-1 $-1 $427 $450 #
ellipse-curve $-1 0.44249999999999945 -6.9388939039072284e-017 0.88406414172941394 -0.91208552230588547 1.2388659220901229e-016 -0.41000000000000031 -0.076875000000000082 1.1531167730741143e-016 0.17101603543235355 1 I I #
point $-1 0.36562499999999937 4.5922738268339147e-017 1.0550801771617675 #
face $-1 $451 $452 $3 $-1 $453 reversed single #
loop $-1 $-1 $454 $411 #
cone-surface $-1 0 0 0.19999999999999998 0 0 -1 -0.14749999999999999 0 0 1 I I 0 1 0.14749999999999999 forward I I I I #
coedge $-1 $455 $415 $417 $440 forward $412 $-1 #
coedge $-1 $417 $414 $456 $457 reversed $386 $-1 #
coedge $-1 $415 $455 $414 $438 reversed $412 $-1 #
edge $-1 $418 0 $458 1.14834226460814 $437 $459 forward 7 unknown #
ellipse-curve $-1 0.44249999999999956 -1.3877787807814457e-017 0.88406414172941394 0.91208552230588502 1.5946897796971519e-016 0.41000000000000125 -0.060475000000000168 1.3877787807814457e-017 0.134532614540118 1 I I #
edge $-1 $395 0 $460 1.1483422646081403 $435 $461 forward 7 unknown #
point $-1 0.38202499999999939 0 1.0185967562695319 #
point $-1 0.51937499999999959 -2.2961369134169574e-017 0.71304810629706039 #
coedge $-1 $462 $424 $428 $449 forward $445 $-1 #
coedge $-1 $424 $462 $427 $448 reversed $445 $-1 #
loop $-1 $-1 $443 $463 #
ellipse-curve $-1 0.44249999999999945 9.0205620750793969e-017 0.88406414172941394 -0.91208552230588524 -1.7344122909261715e-016 -0.41000000000000059 0.076875000000000138 -1.1316698988496354e-016 -0.17101603543235355 1 I I #
coedge $-1 $428 $427 $464 $465 reversed $429 $-1 #
edge $-1 $422 0 $466 1.14834226460814 $427 $467 forward 7 unknown #
edge $-1 $406 0 $468 1.1483422646081403 $428 $469 forward 7 unknown #
face $-1 $378 $429 $3 $-1 $470 forward single #
face $-1 $471 $472 $3 $-1 $473 forward single #
loop $-1 $-1 $474 $432 #
cone-surface $-1 0 0 0.19999999999999998 0 0 -1 -0.14749999999999999 0 0 1 I I 0 1 0.14749999999999999 forward I I I I #
coedge $-1 $475 $476 $477 $478 forward $433 $-1 #
coedge $-1 $437 $435 $476 $479 reversed $412 $-1 #
coedge $-1 $474 $477 $436 $457 forward $452 $-1 #
edge $-1 $460 0 $458 3.1415926535897931 $436 $480 forward 7 unknown #
vertex $-1 $438 $481 #
ellipse-curve $-1 0.75 0 0.19999999999999998 0 -1 0 -0.36797500000000061 0 0.81859675626953199 1 I I #
vertex $-1 $479 $482 #
ellipse-curve $-1 0.75 -1.8062943718880064e-017 0.19999999999999998 0 -1 0 -0.24702500000000038 0 0.54953152718929588 1 I I #
coedge $-1 $444 $443 $483 $484 reversed $445 $-1 #
face $-1 $450 $445 $3 $-1 $485 forward single #
coedge $-1 $486 $487 $447 $465 forward $488 $-1 #
edge $-1 $468 0 $466 3.1415926535897931 $447 $489 forward 7 unknown #
vertex $-1 $465 $490 #
ellipse-curve $-1 0.75 -2.2961369134169574e-017 0.19999999999999998 0 -1 0 -0.23062500000000041 0 0.51304810629706044 1 I I #
vertex $-1 $449 $491 #
ellipse-curve $-1 0.75 4.5922738268339147e-017 0.19999999999999998 0 -1 0 -0.38437500000000063 0 0.85508017716176754 1 I I #
torus-surface $-1 0.75 0 0.19999999999999998 0 -1 0 0.75 0.1875 0.41000000000000053 0 -0.91208552230588535 forward_v I I I I #
face $-1 $492 $493 $3 $-1 $494 forward single #
loop $-1 $495 $496 $451 #
plane-surface $-1 0 0 0 0 0 -1 -1 0 0 forward_v I I I I #
coedge $-1 $497 $456 $498 $499 forward $452 $-1 #
coedge $-1 $498 $454 $500 $501 reversed $433 $-1 #
coedge $-1 $454 $498 $455 $479 forward $433 $-1 #
coedge $-1 $456 $497 $454 $478 reversed $452 $-1 #
edge $-1 $460 0 $502 0.19999999999999998 $454 $503 forward 7 unknown #
edge $-1 $458 0 $460 3.1415926535897931 $455 $504 forward 7 unknown #
ellipse-curve $-1 0 0 0.19999999999999998 0 0 1 0.14749999999999999 1.8062943718880064e-017 0 1 I I #
point $-1 -0.14749999999999999 -3.6125887437760128e-017 0.19999999999999998 #
point $-1 0.14749999999999999 1.8062943718880064e-017 0.19999999999999998 #
coedge $-1 $505 $506 $462 $484 forward $507 $-1 #
edge $-1 $466 0 $468 3.1415926535897931 $462 $508 forward 7 unknown #
torus-surface $-1 0.75 0 0.19999999999999998 0 -1 0 0.75 0.1875 0.41000000000000053 0 -0.91208552230588535 forward_v I I I I #
coedge $-1 $509 $464 $506 $510 forward $488 $-1 #
coedge $-1 $464 $509 $505 $511 reversed $488 $-1 #
loop $-1 $-1 $486 $512 #
ellipse-curve $-1 0 0 0.19999999999999998 0 0 -1 -0.1875 0 0 1 I I #
point $-1 0.1875 2.2961369134169574e-017 0.19999999999999998 #
point $-1 -0.1875 0 0.19999999999999998 #
face $-1 $512 $513 $3 $-1 $514 forward single #
loop $-1 $-1 $515 $471 #
torus-surface $-1 0 0 0.010000000000000009 0 0 -1 0.17749999999999999 0.01 -1 0 0 forward_v I I I I #
loop $-1 $-1 $516 $451 #
coedge $-1 $517 $517 $518 $519 forward $472 $-1 #
coedge $-1 $477 $474 $516 $520 reversed $452 $-1 #
coedge $-1 $476 $475 $474 $499 reversed $433 $-1 #
edge $-1 $458 6.5253987158285752e-033 $521 0.19999999999999998 $498 $522 forward 7 unknown #
coedge $-1 $516 $516 $475 $501 forward $495 $-1 #
edge $-1 $521 0 $502 3.1415926535897931 $500 $523 forward 7 unknown #
vertex $-1 $501 $524 #
straight-curve $-1 0.14749999999999999 1.8062943718880064e-017 0.19999999999999998 0 0 -1 I I #
ellipse-curve $-1 0 0 0.19999999999999998 0 0 1 -0.14749999999999999 -3.6125887437760128e-017 0 1 I I #
coedge $-1 $525 $483 $487 $511 forward $507 $-1 #
coedge $-1 $483 $525 $486 $510 reversed $507 $-1 #
loop $-1 $-1 $505 $526 #
ellipse-curve $-1 0 0 0.19999999999999998 0 0 -1 0.1875 2.2961369134169574e-017 0 1 I I #
coedge $-1 $487 $486 $527 $528 reversed $488 $-1 #
edge $-1 $466 0 $529 0.18999999999999997 $486 $530 forward 7 unknown #
edge $-1 $468 0 $531 0.18999999999999997 $487 $532 forward 7 unknown #
face $-1 $526 $488 $3 $-1 $533 forward single #
loop $-1 $-1 $534 $492 #
torus-surface $-1 0 0 0.010000000000000009 0 0 -1 0.17749999999999999 0.01 -1 0 0 forward_v I I I I #
coedge $-1 $535 $518 $536 $537 forward $493 $-1 #
coedge $-1 $500 $500 $497 $520 forward $495 $-1 #
coedge $-1 $496 $496 $538 $539 forward $472 $-1 #
coedge $-1 $515 $540 $496 $519 reversed $493 $-1 #
edge $-1 $541 0 $542 3.1415926535897931 $496 $543 forward 7 unknown #
edge $-1 $502 0 $521 3.1415926535897931 $516 $544 forward 7 unknown #
vertex $-1 $501 $545 #
straight-curve $-1 -0.14749999999999999 0 0.19999999999999998 0 -1.8062943718880065e-016 -1 I I #
ellipse-curve $-1 0 0 0 0 0 1 -0.14749999999999999 0 0 1 I I #
point $-1 0.14749999999999999 0 0 #
coedge $-1 $506 $505 $535 $546 reversed $507 $-1 #
face $-1 $463 $507 $3 $-1 $547 forward single #
coedge $-1 $536 $534 $509 $528 forward $513 $-1 #
edge $-1 $531 0 $529 3.1415926535897931 $509 $548 forward 7 unknown #
vertex $-1 $528 $549 #
straight-curve $-1 0.1875 2.2961369134169574e-017 0.19999999999999998 0 0 -1 I I #
vertex $-1 $511 $550 #
straight-curve $-1 -0.1875 0 0.19999999999999998 0 0 -1 I I #
cone-surface $-1 0 0 0.19999999999999998 0 0 -1 -0.1875 0 0 1 I I 0 1 0.1875 forward I I I I #
coedge $-1 $527 $538 $540 $551 forward $513 $-1 #
coedge $-1 $540 $515 $525 $546 forward $493 $-1 #
coedge $-1 $538 $527 $515 $537 reversed $513 $-1 #
edge $-1 $541 0 $529 1.5707963267948988 $515 $552 forward 7 unknown #
coedge $-1 $534 $536 $517 $539 reversed $513 $-1 #
edge $-1 $542 0 $541 3.1415926535897931 $517 $553 forward 7 unknown #
coedge $-1 $518 $535 $534 $551 reversed $493 $-1 #
vertex $-1 $539 $554 #
vertex $-1 $539 $555 #
ellipse-curve $-1 0 0 0 4.8865450027515689e-017 5.9840940586085569e-033 -1 0.17749999999999999 2.1736762780347195e-017 8.6736173798840355e-018 1 I I #
ellipse-curve $-1 0 0 0 0 0 1 0.14749999999999999 0 0 1 I I #
point $-1 -0.14749999999999999 0 0 #
edge $-1 $529 -2.1912802922805882e-032 $531 3.1415926535897931 $525 $556 forward 7 unknown #
cone-surface $-1 0 0 0.19999999999999998 0 0 -1 -0.1875 0 0 1 I I 0 1 0.1875 forward I I I I #
ellipse-curve $-1 0 0 0.010000000000000009 0 0 -1 -0.1875 0 0 1 I I #
point $-1 0.1875 2.2961369134169574e-017 0.010000000000000009 #
point $-1 -0.1875 0 0.010000000000000009 #
edge $-1 $542 0 $531 1.5707963267948988 $540 $557 forward 7 unknown #
ellipse-curve $-1 0.17750000000000002 2.1736762780347188e-017 0.010000000000000016 1.2246063538223787e-016 -1 -9.561941247328812e-031 -2.7755575615628914e-017 6.1629758220391547e-033 -0.010000000000000007 1 I I #
ellipse-curve $-1 0 6.9388939039072284e-018 0 -4.8865450027515689e-017 -1.9102657651133069e-033 -1 -0.17749999999999999 -6.9388939039072284e-018 8.6736173798840355e-018 1 I I #
point $-1 0.17749999999999999 2.1736762780347195e-017 8.6736173798840355e-018 #
point $-1 -0.17749999999999999 0 8.6736173798840355e-018 #
ellipse-curve $-1 0 0 0.010000000000000009 0 0 -1 0.1875 2.2961369134169571e-017 0 1 I I #
ellipse-curve $-1 -0.17750000000000002 0 0.010000000000000016 0 1 0 2.7755575615628914e-017 0 -0.010000000000000007 1 I I #
End-of-ACIS-data 