600 0 1 0           
86 GICL ACIS Healer - Source: /gicl/data5/repository/PTC/V18/piping18/return_20.sat - 6 0 18 ACIS 6.0.3 Solaris 24 Sat Apr 13 21:21:46 2002 
1 9.999999999999999547e-07 1.000000000000000036e-10 
body $-1 $1 $-1 $-1 #
lump $-1 $-1 $2 $0 #
shell $-1 $-1 $-1 $3 $-1 $1 #
face $-1 $4 $5 $2 $-1 $6 reversed single #
face $-1 $7 $8 $2 $-1 $9 forward single #
loop $-1 $10 $11 $3 #
plane-surface $-1 35.91559999999999775 0 0 0 0 1 25.39999999999999858 0 0 forward_v I I I I #
face $-1 $12 $13 $2 $-1 $14 forward single #
loop $-1 $-1 $15 $4 #
torus-surface $-1 35.91559999999999775 0 0.2540000000000000036 0 0 1 4.50849999999999973 0.2540000000000000036 1 0 0 forward_v I I I I #
loop $-1 $-1 $16 $3 #
coedge $-1 $17 $17 $18 $19 reversed $5 $-1 #
face $-1 $20 $21 $2 $-1 $22 forward single #
loop $-1 $-1 $23 $7 #
torus-surface $-1 35.91559999999999775 0 0.2540000000000000036 0 0 1 4.50849999999999973 0.2540000000000000036 1 0 0 forward_v I I I I #
coedge $-1 $24 $18 $25 $26 forward $8 $-1 #
coedge $-1 $27 $27 $28 $29 reversed $10 $-1 #
coedge $-1 $11 $11 $30 $31 reversed $5 $-1 #
coedge $-1 $15 $32 $11 $19 forward $8 $-1 #
edge $-1 $33 -3.141592653589793116 $34 0 $11 $35 forward 7 unknown #
face $-1 $36 $37 $2 $-1 $38 forward single #
loop $-1 $-1 $39 $12 #
cone-surface $-1 35.91559999999999775 0 0 0 0 1 4.762499999999999289 0 0 1 I I 0 1 4.762499999999999289 forward I I I I #
coedge $-1 $40 $30 $32 $41 forward $13 $-1 #
coedge $-1 $32 $15 $42 $43 reversed $8 $-1 #
coedge $-1 $30 $40 $15 $26 reversed $13 $-1 #
edge $-1 $34 0 $44 1.570796326794895004 $15 $45 forward 7 unknown #
coedge $-1 $16 $16 $46 $47 reversed $10 $-1 #
coedge $-1 $48 $49 $16 $29 forward $50 $-1 #
edge $-1 $51 -3.141592653589793116 $52 -0 $16 $53 reversed 7 unknown #
coedge $-1 $23 $25 $17 $31 forward $13 $-1 #
edge $-1 $34 0 $33 3.141592653589793116 $17 $54 forward 7 unknown #
coedge $-1 $18 $24 $23 $41 reversed $8 $-1 #
vertex $-1 $31 $55 #
vertex $-1 $31 $56 #
ellipse-curve $-1 35.91559999999999775 0 0 0 0 1 4.50849999999999973 0 0 1 I I #
face $-1 $57 $58 $2 $-1 $59 forward single #
loop $-1 $-1 $60 $20 #
cone-surface $-1 35.91559999999999775 0 0 0 0 1 4.762499999999999289 0 0 1 I I 0 1 4.762499999999999289 forward I I I I #
coedge $-1 $61 $62 $63 $64 forward $21 $-1 #
coedge $-1 $25 $23 $62 $65 reversed $13 $-1 #
edge $-1 $33 0 $66 1.570796326794895004 $32 $67 forward 7 unknown #
coedge $-1 $60 $63 $24 $43 forward $37 $-1 #
edge $-1 $66 -3.141592653589793116 $44 0 $42 $68 forward 7 unknown #
vertex $-1 $65 $69 #
ellipse-curve $-1 40.4240999999999957 0 0.2540000000000003921 0 -1 0 0 0 -0.2540000000000003921 1 I I #
coedge $-1 $70 $71 $27 $47 forward $72 $-1 #
edge $-1 $52 -0 $51 3.141592653589793116 $27 $73 reversed 7 unknown #
coedge $-1 $74 $28 $71 $75 forward $50 $-1 #
coedge $-1 $28 $74 $70 $76 reversed $50 $-1 #
loop $-1 $-1 $48 $77 #
vertex $-1 $47 $78 #
vertex $-1 $47 $79 #
ellipse-curve $-1 35.91559999999999775 0 0 0 0 1 3.746499999999999719 0 0 1 I I #
ellipse-curve $-1 35.91559999999999775 0 0 0 0 1 4.50849999999999973 0 0 1 I I #
point $-1 31.40709999999999624 5.521137746208187443e-16 0 #
point $-1 40.4240999999999957 0 0 #
face $-1 $80 $81 $2 $-1 $82 forward single #
loop $-1 $-1 $83 $36 #
torus-surface $-1 16.86559999999999704 0 5.079999999999999183 0 -1 0 19.04999999999999716 4.762499999999999289 -1 0 0 forward_v I I I I #
coedge $-1 $84 $42 $85 $86 forward $37 $-1 #
coedge $-1 $85 $39 $87 $88 reversed $21 $-1 #
coedge $-1 $39 $85 $40 $65 forward $21 $-1 #
coedge $-1 $42 $84 $39 $64 reversed $37 $-1 #
edge $-1 $66 -2.185478394931410482e-18 $89 0.19000000000000003 $39 $90 forward 7 unknown #
edge $-1 $44 0 $66 3.141592653589793116 $62 $91 forward 7 unknown #
vertex $-1 $65 $92 #
ellipse-curve $-1 31.40709999999999624 5.521137746208187443e-16 0.2540000000000003921 1.224606353822370602e-16 1 0 0 0 -0.2540000000000003921 1 I I #
ellipse-curve $-1 35.91559999999999775 0 0.2540000000000000036 0 0 1 4.762499999999999289 0 0 1 I I #
point $-1 40.67809999999999349 0 0.2540000000000000036 #
coedge $-1 $93 $46 $49 $76 forward $72 $-1 #
coedge $-1 $46 $93 $48 $75 reversed $72 $-1 #
loop $-1 $-1 $70 $94 #
ellipse-curve $-1 35.91559999999999775 0 0 0 0 1 3.746499999999999719 0 0 1 I I #
coedge $-1 $49 $48 $95 $96 reversed $50 $-1 #
edge $-1 $52 0 $97 0.2000000000000000944 $71 $98 forward 7 unknown #
edge $-1 $51 0 $99 0.2000000000000000389 $70 $100 forward 7 unknown #
face $-1 $-1 $50 $2 $-1 $101 reversed single #
point $-1 32.16910000000000025 0 0 #
point $-1 39.66209999999999525 0 0 #
face $-1 $102 $103 $2 $-1 $104 forward single #
loop $-1 $-1 $105 $57 #
torus-surface $-1 16.86559999999999704 0 5.079999999999999183 0 -1 0 19.04999999999999716 4.762499999999999289 -1 0 0 forward_v I I I I #
coedge $-1 $106 $107 $108 $109 forward $58 $-1 #
coedge $-1 $63 $60 $107 $110 reversed $37 $-1 #
coedge $-1 $62 $61 $60 $86 reversed $21 $-1 #
edge $-1 $44 -2.185478394931410482e-18 $111 0.1900000000000000577 $85 $112 forward 7 unknown #
coedge $-1 $105 $108 $61 $88 forward $81 $-1 #
edge $-1 $111 2.449212707644756489e-16 $89 3.141592653589793116 $61 $113 forward 7 unknown #
vertex $-1 $88 $114 #
straight-curve $-1 31.15309999999999491 5.832187760079071298e-16 0.2540000000000000591 0 0 25.39999999999999858 I I #
ellipse-curve $-1 35.91559999999999775 0 0.2540000000000000036 0 0 1 4.762499999999999289 0 0 1 I I #
point $-1 31.15309999999999491 5.832187760079070312e-16 0.2540000000000000036 #
coedge $-1 $71 $70 $115 $116 reversed $72 $-1 #
face $-1 $77 $72 $2 $-1 $117 reversed single #
coedge $-1 $118 $119 $74 $96 forward $120 $-1 #
edge $-1 $99 -3.141592653589793116 $97 -0 $74 $121 reversed 7 unknown #
vertex $-1 $75 $122 #
straight-curve $-1 39.66209999999999525 0 0 0 -4.587987704595536272e-15 25.39999999999999858 I I #
vertex $-1 $116 $123 #
straight-curve $-1 32.16910000000000025 4.587987704595535877e-16 0 0 0 25.39999999999999858 I I #
cone-surface $-1 35.91559999999999775 0 0 0 0 1 3.746499999999999719 0 0 1 I I 0 1 3.746499999999999719 forward I I I I #
face $-1 $124 $125 $2 $-1 $126 forward single #
loop $-1 $-1 $127 $80 #
torus-surface $-1 19.98979999999999535 0 12.03009167997084461 0 -1 0 11.43000000000000327 4.762499999999999289 -0.409999999999999476 0 -0.9120855223058857986 forward_v I I I I #
coedge $-1 $128 $87 $129 $130 forward $81 $-1 #
coedge $-1 $129 $83 $131 $132 reversed $58 $-1 #
coedge $-1 $83 $129 $84 $110 forward $58 $-1 #
coedge $-1 $87 $128 $83 $109 reversed $81 $-1 #
edge $-1 $111 -6.527295472861787218e-18 $133 1.14834226460814115 $108 $134 forward 7 unknown #
edge $-1 $89 -3.141592653589793116 $111 2.449212707644756489e-16 $84 $135 forward 7 unknown #
vertex $-1 $86 $136 #
straight-curve $-1 40.67809999999999349 0 0.2540000000000000591 0 0 25.39999999999999858 I I #
ellipse-curve $-1 35.91559999999999775 0 5.079999999999999183 -0 0 1 4.762499999999999289 0 0 1 I I #
point $-1 31.15309999999999491 -5.832187760079071298e-16 5.080000000000000959 #
coedge $-1 $137 $138 $93 $116 forward $139 $-1 #
edge $-1 $97 -0 $99 3.141592653589793116 $93 $140 reversed 7 unknown #
cone-surface $-1 35.91559999999999775 0 0 0 0 1 3.746499999999999719 0 0 1 I I 0 1 3.746499999999999719 forward I I I I #
coedge $-1 $141 $95 $138 $142 forward $120 $-1 #
coedge $-1 $95 $141 $137 $143 reversed $120 $-1 #
loop $-1 $-1 $118 $144 #
ellipse-curve $-1 35.91559999999999775 0 5.079999999999999183 -0 0 1 3.746499999999999719 0 0 1 I I #
point $-1 39.66209999999999525 0 5.080000000000001847 #
point $-1 32.16910000000000025 -4.587987704595535877e-16 5.080000000000000959 #
face $-1 $145 $146 $2 $-1 $147 reversed single #
loop $-1 $-1 $148 $102 #
torus-surface $-1 19.98979999999999535 0 12.03009167997084461 0 -1 0 11.43000000000000327 4.762499999999999289 -0.409999999999999476 0 -0.9120855223058857986 forward_v I I I I #
coedge $-1 $149 $150 $151 $152 reversed $103 $-1 #
coedge $-1 $108 $105 $149 $153 reversed $81 $-1 #
coedge $-1 $107 $106 $105 $130 reversed $58 $-1 #
edge $-1 $89 2.564294650052857431e-17 $154 1.148342264608140928 $105 $155 forward 7 unknown #
coedge $-1 $151 $156 $106 $132 forward $125 $-1 #
edge $-1 $154 -3.141592653589793116 $133 2.449212707644750079e-16 $106 $157 forward 7 unknown #
vertex $-1 $109 $158 #
ellipse-curve $-1 16.86559999999999704 1.16643755201581426e-15 5.079999999999999183 0 -1 0 23.8125 0 2.819966482547897455e-15 1 I I #
ellipse-curve $-1 35.91559999999999775 0 5.079999999999999183 -0 0 1 4.762499999999999289 0 0 1 I I #
point $-1 40.67809999999999349 1.16643755201581426e-15 5.080000000000001847 #
coedge $-1 $159 $115 $119 $143 forward $139 $-1 #
coedge $-1 $115 $159 $118 $142 reversed $139 $-1 #
loop $-1 $-1 $137 $160 #
ellipse-curve $-1 35.91559999999999775 0 5.079999999999999183 -0 0 1 3.746499999999999719 0 0 1 I I #
coedge $-1 $119 $118 $161 $162 reversed $120 $-1 #
edge $-1 $97 -6.818205577501881592e-18 $163 1.14834226460814115 $138 $164 forward 7 unknown #
edge $-1 $99 2.394051021833575789e-17 $165 1.14834226460814115 $137 $166 forward 7 unknown #
face $-1 $160 $120 $2 $-1 $167 reversed single #
face $-1 $168 $169 $2 $-1 $170 forward single #
loop $-1 $-1 $171 $124 #
cone-surface $-1 17.95508775786167277 15.33222752472764761 12.3693529064861103 0 -0.810240970201648647 0.5860968948959645042 0 -2.791286461942030339 -3.858772620585350754 1 I I 0 1 4.762499999999999289 forward I I I I #
coedge $-1 $156 $172 $171 $173 forward $125 $-1 #
coedge $-1 $174 $127 $128 $153 forward $103 $-1 #
coedge $-1 $127 $175 $176 $177 reversed $103 $-1 #
coedge $-1 $172 $131 $127 $152 forward $125 $-1 #
edge $-1 $133 -5.419913906909851859e-17 $178 0.4224540621867551304 $127 $179 forward 7 unknown #
edge $-1 $133 2.449212707644750079e-16 $154 3.141592653589793116 $128 $180 forward 7 unknown #
vertex $-1 $153 $181 #
ellipse-curve $-1 16.86559999999999704 -5.832187760079071298e-16 5.079999999999999183 0 -1 0 14.28749999999999964 0 1.409983241273948727e-15 1 I I #
coedge $-1 $131 $148 $174 $182 reversed $125 $-1 #
ellipse-curve $-1 24.67609999999999459 0 22.45522919992711408 -0.9120855223058854655 0 0.4099999999999999201 1.952624999999999833 0 4.343807299981779835 1 I I #
point $-1 26.62872499999998865 1.16643755201581426e-15 26.79903649990890457 #
coedge $-1 $138 $137 $183 $184 reversed $139 $-1 #
face $-1 $94 $139 $2 $-1 $185 reversed single #
coedge $-1 $186 $187 $141 $162 forward $188 $-1 #
edge $-1 $165 -3.141592653589793116 $163 -0 $141 $189 reversed 7 unknown #
vertex $-1 $142 $190 #
ellipse-curve $-1 16.86559999999999704 0 5.079999999999999183 0 -1 0 22.79649999999999821 0 2.819966482547897455e-15 1 I I #
vertex $-1 $184 $191 #
ellipse-curve $-1 16.86559999999999704 -4.587987704595535877e-16 5.079999999999999183 0 -1 0 15.30349999999999966 0 1.409983241273948727e-15 1 I I #
torus-surface $-1 16.86559999999999704 0 5.079999999999999183 0 -1 0 19.04999999999999716 3.746499999999999719 -1 0 0 forward_v I I I I #
face $-1 $192 $193 $2 $-1 $194 reversed single #
loop $-1 $-1 $195 $145 #
cone-surface $-1 19.98979999999999535 0 23.46009167997084788 -1 0 0 0 0 4.762499999999999289 1 I I 0 1 4.762499999999999289 forward I I I I #
coedge $-1 $196 $197 $148 $173 reversed $146 $-1 #
coedge $-1 $148 $151 $198 $199 reversed $125 $-1 #
edge $-1 $200 -2.721797561290014933 $201 -1.511714950859735618 $148 $202 reversed 7 unknown #
coedge $-1 $175 $149 $156 $182 forward $103 $-1 #
coedge $-1 $150 $174 $197 $203 forward $103 $-1 #
coedge $-1 $195 $198 $150 $177 forward $169 $-1 #
edge $-1 $178 0 $204 1.067666881127963485 $150 $205 forward 7 unknown #
vertex $-1 $177 $206 #
ellipse-curve $-1 19.98979999999999535 1.16643755201581426e-15 12.03009167997084461 0 -1 0 6.638924999999991527 0 14.76894481993805819 1 I I #
ellipse-curve $-1 24.67609999999999459 0 22.45522919992711408 -0.9120855223058854655 0 0.4099999999999999201 1.952624999999999833 0 4.343807299981779835 1 I I #
point $-1 22.72347499999999343 -5.832187760079071298e-16 18.1114218999453378 #
edge $-1 $154 -3.995803875247314854e-16 $201 0.3152801327225109307 $174 $207 forward 7 unknown #
coedge $-1 $208 $209 $159 $184 forward $210 $-1 #
edge $-1 $163 -0 $165 3.141592653589793116 $159 $211 reversed 7 unknown #
torus-surface $-1 16.86559999999999704 0 5.079999999999999183 0 -1 0 19.04999999999999716 3.746499999999999719 -1 0 0 forward_v I I I I #
coedge $-1 $212 $161 $209 $213 forward $188 $-1 #
coedge $-1 $161 $214 $208 $215 reversed $188 $-1 #
loop $-1 $-1 $216 $217 #
ellipse-curve $-1 24.67609999999999459 0 22.45522919992711408 -0.9120855223058854655 0 0.4099999999999999201 1.536065000000000014 0 3.417128409319000415 1 I I #
point $-1 26.21216499999998817 0 25.87235760924612293 #
point $-1 23.14003499999999391 -4.587987704595535877e-16 19.03810079060812299 #
face $-1 $218 $219 $2 $-1 $220 reversed single #
loop $-1 $-1 $221 $168 #
cone-surface $-1 17.95508775786167277 15.33222752472764761 12.3693529064861103 0 -0.810240970201648647 0.5860968948959645042 0 -2.791286461942030339 -3.858772620585350754 1 I I 0 1 4.762499999999999289 forward I I I I #
coedge $-1 $222 $176 $223 $224 forward $169 $-1 #
coedge $-1 $225 $171 $226 $227 reversed $146 $-1 #
coedge $-1 $171 $223 $175 $203 reversed $146 $-1 #
coedge $-1 $176 $226 $172 $199 forward $169 $-1 #
edge $-1 $200 -2.956793165837565684 $178 0 $172 $228 forward 7 unknown #
vertex $-1 $199 $229 #
vertex $-1 $203 $230 #
intcurve-curve $-1 forward { surfintcur full nubs 3 open 3 
	1.511714950859735618 3 1.623477931649095485 2 2.721797561290014933 3 
	20.70302252545921107 -4.954654162326460609e-06 18.65934382441121286 
	20.68094020300233637 -0.02989684977660798243 18.66171429722839292 
	20.6587873846353105 -0.05964402934167103987 18.66426587020765382 
	20.41822633210276905 -0.3800257279006041822 18.69374112776299768 
	20.20069836187013124 -0.6464009186681469732 18.73623662676109447 
	19.99013370708858872 -0.8753459406811102683 18.77904418620290627 
	0.0006298206680956686425 
	torus 19.98979999999999535 0 12.03009167997084461 0 -1 0 11.43000000000000327 4.762499999999999289 -0.409999999999999476 0 -0.9120855223058857986 forward_v I I I I 
	cone 17.95508775786167277 15.33222752472764761 12.3693529064861103 0 -0.810240970201648647 0.5860968948959645042 0 -2.791286461942030339 -3.858772620585350754 1 I I 0 1 4.762499999999999289 forward I I I I 
	nullbs 
	nullbs 
	I I 
	0 
	0 
	0 
	} I I #
edge $-1 $201 -21.92813759203000501 $204 -9.330725655689914078 $175 $231 reversed 7 unknown #
vertex $-1 $177 $232 #
ellipse-curve $-1 19.98979999999999535 0 23.46009167997084788 -1 0 0 0 0 4.762499999999999289 1 I I #
point $-1 19.98979999999999535 0 28.22259167997085072 #
ellipse-curve $-1 19.98979999999999535 -5.832187760079071298e-16 12.03009167997084461 0 -1 0 2.733674999999996302 0 6.081330219974494966 1 I I #
coedge $-1 $233 $183 $187 $215 forward $210 $-1 #
coedge $-1 $183 $234 $186 $213 reversed $210 $-1 #
loop $-1 $-1 $209 $235 #
ellipse-curve $-1 24.67609999999999459 0 22.45522919992711408 -0.9120855223058854655 0 0.4099999999999999201 1.536065000000000014 0 3.417128409319000415 1 I I #
coedge $-1 $216 $186 $236 $237 reversed $188 $-1 #
edge $-1 $163 0 $238 0.4224540621867551859 $209 $239 forward 7 unknown #
coedge $-1 $187 $216 $240 $241 forward $188 $-1 #
edge $-1 $165 -3.008929562502671325e-16 $242 0.2221957928140642635 $208 $243 forward 7 unknown #
coedge $-1 $214 $212 $244 $245 forward $188 $-1 #
face $-1 $144 $188 $2 $-1 $246 reversed single #
face $-1 $247 $248 $2 $-1 $249 reversed single #
loop $-1 $-1 $250 $192 #
plane-surface $-1 17.95508775786167277 0 23.46009167997083722 0 -0.810240970201648647 0.5860968948959645042 0 -14.88686113035749514 -20.58012064312187306 forward_v I I I I #
coedge $-1 $251 $252 $253 $254 forward $193 $-1 #
coedge $-1 $255 $195 $252 $256 forward $169 $-1 #
coedge $-1 $197 $257 $195 $224 reversed $146 $-1 #
edge $-1 $204 -2.012230023482765695 $258 -1.570796326794896558 $195 $259 reversed 7 unknown #
coedge $-1 $260 $196 $261 $262 forward $146 $-1 #
coedge $-1 $198 $263 $196 $227 forward $169 $-1 #
edge $-1 $264 1.570796326794896558 $200 2.012230023482763919 $226 $265 reversed 7 unknown #
ellipse-curve $-1 19.98979999999999535 0 23.46009167997084788 -1 0 0 0 0 4.762499999999999289 1 I I #
point $-1 19.98979999999999535 -0.875106703592453572 18.77868222262495834 #
point $-1 20.70301498174671551 -5.832187760079071298e-16 18.65933602905106525 #
intcurve-curve $-1 forward { surfintcur full nubs 3 open 11 
	9.330725655689914078 3 9.44503787803851047 2 11.20740270527747384 2 13.56562074008561858 2 15.32559833019215034 2 
	16.61799883397959121 2 17.4084917117796607 2 18.19191351193123296 2 19.46010617533272224 2 21.12263612620042252 2 
	21.92813759203000501 3 
	19.98978159788839193 4.172332356131555287 25.75641124522677217 
	20.0151018073688185 4.185822200406250637 25.73189614518900115 
	20.04059077215277895 4.199183435008743359 25.70703483659057298 
	20.46151963158273546 4.41628994923253515 25.29307635432906309 
	20.85035378357758162 4.566121271641528701 24.86140893212548875 
	21.66986811853049488 4.781550214191977233 23.76360666421819801 
	22.0410455129520706 4.794133410243929916 23.1088975705512425 
	22.48918444742673728 4.638419375779748499 21.99319245738249151 
	22.62577269837042593 4.511644506777158448 21.50314021371068662 
	22.72822280803800865 4.156613332910048086 20.6872214145850748 
	22.72896413239693558 3.966969899157759993 20.35951691972975652 
	22.65673727499448376 3.591136933934495623 19.88310225672890397 
	22.61292677362162351 3.435226201762454856 19.71819913806064406 
	22.49575444336031183 3.099306230814500296 19.42362908398759203 
	22.42375141512528458 2.922574318410450456 19.29634143878671892 
	22.20573528021891363 2.439342251933305228 19.01055740321130827 
	22.04437263902403643 2.126105662334717206 18.88505452234966953 
	21.63549706558306696 1.395115416884962656 18.68681928308096118 
	21.37495656842374814 0.9719218646134735184 18.64182339420161583 
	20.97052920738363468 0.3711693964946718438 18.63684089475398764 
	20.83678920325231942 0.1810888429496510521 18.64497771053363095 
	20.70306045131448514 -2.682826231173440767e-05 18.65942060832531979 
	0.0006451129368848013872 
	torus 19.98979999999999535 0 12.03009167997084461 0 -1 0 11.43000000000000327 4.762499999999999289 -0.409999999999999476 0 -0.9120855223058857986 forward_v I I I I 
	cone 17.95508775786167277 15.33222752472764761 12.3693529064861103 0 -0.810240970201648647 0.5860968948959645042 0 -2.791286461942030339 -3.858772620585350754 1 I I 0 1 4.762499999999999289 forward I I I I 
	nullbs 
	nullbs 
	I I 
	0 
	0 
	0 
	} I I #
point $-1 19.9897999999999918 4.172321145895097949 25.756424083068584 #
coedge $-1 $266 $208 $260 $267 forward $210 $-1 #
coedge $-1 $209 $266 $268 $269 reversed $210 $-1 #
face $-1 $217 $210 $2 $-1 $270 reversed single #
coedge $-1 $268 $271 $212 $237 forward $248 $-1 #
edge $-1 $272 -0.6262331844400954584 $238 2.44921270764475353e-16 $212 $273 reversed 7 unknown #
vertex $-1 $269 $274 #
ellipse-curve $-1 19.98979999999999535 0 12.03009167997084461 0 -1 0 6.222364999999992818 0 13.84226592927527655 1 I I #
coedge $-1 $257 $260 $214 $241 reversed $146 $-1 #
edge $-1 $275 4.303227575236582503 $242 15.38466361887207512 $214 $276 forward 7 unknown #
vertex $-1 $267 $277 #
ellipse-curve $-1 19.98979999999999535 -4.587987704595535877e-16 12.03009167997084461 0 -1 0 3.150234999999995456 0 7.008009110637277495 1 I I #
coedge $-1 $250 $278 $216 $245 reversed $219 $-1 #
edge $-1 $272 0 $275 0.9140656501341367646 $216 $279 forward 7 unknown #
torus-surface $-1 19.98979999999999535 0 12.03009167997084461 0 -1 0 11.43000000000000327 3.746499999999999719 -0.409999999999999476 0 -0.9120855223058857986 forward_v I I I I #
face $-1 $280 $281 $2 $-1 $282 reversed single #
loop $-1 $-1 $283 $218 #
cone-surface $-1 19.98979999999999535 0 23.46009167997084788 -1 0 0 0 0 3.746499999999999719 1 I I 0 1 3.746499999999999719 forward I I I I #
coedge $-1 $284 $244 $271 $285 forward $219 $-1 #
coedge $-1 $286 $221 $287 $288 reversed $193 $-1 #
coedge $-1 $221 $289 $222 $256 reversed $193 $-1 #
coedge $-1 $278 $284 $221 $254 reversed $219 $-1 #
edge $-1 $258 -3.141592653589793116 $290 -2.467754675094762984 $253 $291 forward 7 unknown #
coedge $-1 $292 $222 $293 $294 reversed $169 $-1 #
edge $-1 $258 1.570796326794896558 $295 2.010970638064218718 $222 $296 forward 7 unknown #
coedge $-1 $223 $240 $278 $297 forward $146 $-1 #
vertex $-1 $256 $298 #
ellipse-curve $-1 17.95508775786167277 0 23.46009167997084788 -0.7071067811865477948 0.5729268844247530357 -0.4144330888133154756 -4.762499999999995737 -3.858772620585351198 2.791286461942029451 0.7071067811865477948 I I #
coedge $-1 $240 $225 $233 $267 reversed $146 $-1 #
coedge $-1 $299 $300 $225 $262 reversed $281 $-1 #
edge $-1 $264 0 $301 0.653201803988657459 $261 $302 forward 7 unknown #
coedge $-1 $226 $292 $303 $304 forward $169 $-1 #
vertex $-1 $227 $305 #
ellipse-curve $-1 17.95508775786167277 0 23.46009167997084788 -0.7071067811865477948 0.5729268844247530357 -0.4144330888133154756 -4.762499999999995737 -3.858772620585351198 2.791286461942029451 0.7071067811865477948 I I #
coedge $-1 $234 $233 $300 $306 forward $210 $-1 #
edge $-1 $242 1.389306326645300071 $301 3.951297918952190624 $233 $307 forward 7 unknown #
coedge $-1 $283 $236 $234 $269 forward $248 $-1 #
edge $-1 $238 2.44921270764475353e-16 $308 2.515359469149700544 $234 $309 reversed 7 unknown #
torus-surface $-1 19.98979999999999535 0 12.03009167997084461 0 -1 0 11.43000000000000327 3.746499999999999719 -0.409999999999999476 0 -0.9120855223058857986 forward_v I I I I #
coedge $-1 $236 $310 $250 $285 reversed $248 $-1 #
vertex $-1 $237 $311 #
ellipse-curve $-1 19.98979999999999535 0 23.46009167997084788 -1 0 0 0 0 3.746499999999999719 1 I I #
point $-1 19.98979999999999535 -9.175975409191071754e-16 27.20659167997084893 #
vertex $-1 $241 $312 #
intcurve-curve $-1 forward { surfintcur full nubs 3 open 11 
	4.303227575236582503 3 4.947403017714380624 2 6.355738796808088509 2 8.064216856520598498 2 9.843114743962397384 2 
	11.15567187193885346 2 11.98235398438271027 2 12.62047342574926034 2 13.43361217693803766 2 14.40189571639965926 2 
	15.38466361887207512 3 
	20.92647731792544619 2.181397232580486012 26.47573196864864187 
	20.92560314757745488 2.328977595420701263 26.36993317609123721 
	20.94244656941429739 2.466685400607456558 26.25380399051354985 
	21.04666292240986536 2.876651824130317614 25.85176322921250502 
	21.18980996466715894 3.100365109104129324 25.5406403509517439 
	21.54393768754555083 3.478701550609846205 24.82277066056901305 
	21.78112517814691174 3.627740499842965871 24.37409251261906462 
	22.23196357406440882 3.773947372436296632 23.37147620385382396 
	22.43672645695784951 3.762816933582242562 22.82765837289851163 
	22.66227040935815396 3.563972800671046492 21.89281909371809931 
	22.71711768281279475 3.423359033652809913 21.50120048944477702 
	22.71787888089652441 3.086631247616705931 20.91225983171238667 
	22.69671418980015432 2.933076944336695746 20.70184908809860858 
	22.62197584457962662 2.618970785069947294 20.36784271202023433 
	22.57757818348681056 2.470703384198818853 20.23828466929620973 
	22.45364750144116073 2.109941292920286315 19.98059392509453502 
	22.36926798439780484 1.895093776397277052 19.86553598585244274 
	22.16335589800362982 1.40560810603720121 19.67183841780073905 
	22.03880579738021694 1.129815498962162934 19.60529024312689117 
	21.78166119366914799 0.570935680127166667 19.53604920869957695 
	21.64686085125318371 0.2838017577844414996 19.53393442076640696 
	21.5181961885137234 1.168268954290091477e-05 19.56004537864330928 
	0.0004717039786953981274 
	torus 19.98979999999999535 0 12.03009167997084461 0 -1 0 11.43000000000000327 3.746499999999999719 -0.409999999999999476 0 -0.9120855223058857986 forward_v I I I I 
	cone 17.95508775786167277 15.33222752472764761 12.3693529064861103 0 -0.810240970201648647 0.5860968948959645042 0 -2.791286461942030339 -3.858772620585350754 1 I I 0 1 4.762499999999999289 forward I I I I 
	nullbs 
	nullbs 
	I I 
	0 
	0 
	0 
	} I I #
point $-1 21.51822060882039978 -4.587987704595535877e-16 19.56003873772185386 #
coedge $-1 $244 $253 $257 $297 reversed $219 $-1 #
intcurve-curve $-1 forward { surfintcur full nubs 3 open 2 
	0 3 0.9140656501341367646 3 
	19.98979999999999535 2.19581201672773485 26.49565947483132078 
	20.29448855004470786 2.19581201672773485 26.49565947483132078 
	20.60778634519378727 2.191185878750794735 26.48926413891440035 
	20.92645189211285839 2.181355999318185468 26.47567496770772522 
	0.0001467686467303650096 
	torus 19.98979999999999535 0 12.03009167997084461 0 -1 0 11.43000000000000327 3.746499999999999719 -0.409999999999999476 0 -0.9120855223058857986 forward_v I I I I 
	plane 17.95508775786167277 0 23.46009167997083722 0 -0.810240970201648647 0.5860968948959645042 0 -14.88686113035749514 -20.58012064312187306 forward_v I I I I 
	nullbs 
	nullbs 
	I I 
	0 
	0 
	0 
	} I I #
face $-1 $313 $314 $2 $-1 $315 reversed single #
loop $-1 $-1 $261 $247 #
plane-surface $-1 17.95508775786167277 0 23.46009167997083722 0 -0.810240970201648647 0.5860968948959645042 0 -14.88686113035749514 -20.58012064312187306 forward_v I I I I #
coedge $-1 $316 $268 $317 $318 forward $248 $-1 #
coedge $-1 $253 $250 $319 $320 reversed $219 $-1 #
edge $-1 $272 -1.065814103640150279e-14 $321 4.06399999999999828 $271 $322 reversed 7 unknown #
coedge $-1 $323 $251 $324 $325 reversed $193 $-1 #
coedge $-1 $319 $326 $251 $288 forward $327 $-1 #
edge $-1 $328 1.386847471162554024 $290 11.44218315847782286 $287 $329 forward 7 unknown #
coedge $-1 $252 $330 $331 $332 reversed $193 $-1 #
vertex $-1 $320 $333 #
ellipse-curve $-1 17.95508775786167277 0 23.46009167997084432 0 -0.810240970201648647 0.5860968948959645042 0 -2.791286461942030339 -3.858772620585350754 1 I I #
coedge $-1 $263 $255 $334 $335 reversed $169 $-1 #
coedge $-1 $331 $336 $255 $294 forward $337 $-1 #
edge $-1 $338 2.449212707644753037e-16 $295 1.066407495709415176 $255 $339 forward 7 unknown #
vertex $-1 $294 $340 #
ellipse-curve $-1 17.95508775786167277 0 23.46009167997084788 -0.7071067811865477948 -0.5729268844247530357 0.4144330888133154756 4.762499999999995737 -3.858772620585351198 2.791286461942029451 0.7071067811865477948 I I #
edge $-1 $275 2.467857975685822325 $258 3.141592653589793116 $278 $341 forward 7 unknown #
point $-1 17.95508775786167277 2.791286461942029451 27.31886430055619996 #
coedge $-1 $342 $261 $323 $343 reversed $281 $-1 #
coedge $-1 $261 $317 $266 $306 reversed $281 $-1 #
vertex $-1 $306 $344 #
ellipse-curve $-1 17.95508775786167277 0 23.46009167997084432 0 -0.810240970201648647 0.5860968948959645042 0 -2.791286461942030339 -3.858772620585350754 1 I I #
coedge $-1 $330 $323 $263 $304 reversed $193 $-1 #
edge $-1 $345 -2.010970638064218718 $264 -1.570796326794896558 $263 $346 forward 7 unknown #
point $-1 17.95508775786167277 -2.791286461942030339 19.60131905938549579 #
edge $-1 $301 26.61730807450982894 $308 27.46178389321472224 $266 $347 forward 7 unknown #
intcurve-curve $-1 forward { surfintcur full nubs 3 open 4 
	1.389306326645300071 3 1.453909131648069675 2 3.02665108123885318 2 3.951297918952190624 3 
	21.5182169192741064 1.73989625772835721e-06 19.56003946337894206 
	21.50936876263501674 -0.01951014723075765456 19.56183545250262057 
	21.50055199382347837 -0.03899861694465905915 19.56376436493494708 
	21.27797800397264538 -0.5322629011801019994 19.61597557061222474 
	21.07261272422546483 -1.014802649558111503 19.74665171478485703 
	20.88491555816207068 -1.72629198418902452 20.07349775024257355 
	20.84630274265321503 -1.978054159119399191 20.2197928012782242 
	20.84945011947368343 -2.216695022564538764 20.39565424325039089 
	0.0003564876247577715624 
	torus 19.98979999999999535 0 12.03009167997084461 0 -1 0 11.43000000000000327 3.746499999999999719 -0.409999999999999476 0 -0.9120855223058857986 forward_v I I I I 
	cone 17.95508775786167277 15.33222752472764761 12.3693529064861103 0 -0.810240970201648647 0.5860968948959645042 0 -2.791286461942030339 -3.858772620585350754 1 I I 0 1 4.762499999999999289 forward I I I I 
	nullbs 
	nullbs 
	I I 
	0 
	0 
	0 
	} I I #
vertex $-1 $269 $348 #
ellipse-curve $-1 19.98979999999999535 0 23.46009167997084788 -1 0 0 0 0 3.746499999999999719 1 I I #
coedge $-1 $271 $316 $349 $350 reversed $248 $-1 #
point $-1 19.98980000000000601 2.195812016727735294 26.49565947483132078 #
point $-1 20.92645423221473777 2.181382058485033415 26.47571099281691787 #
face $-1 $351 $327 $2 $-1 $352 reversed single #
loop $-1 $-1 $353 $280 #
torus-surface $-1 15.92579999999999707 0 12.03009167997084994 0 -1 0 11.42999999999999794 3.746499999999999719 0 0 -1 forward_v I I I I #
coedge $-1 $310 $283 $354 $355 reversed $248 $-1 #
coedge $-1 $300 $342 $283 $318 reversed $281 $-1 #
edge $-1 $308 0 $356 4.06399999999999828 $283 $357 forward 7 unknown #
coedge $-1 $349 $287 $284 $320 forward $327 $-1 #
edge $-1 $290 -0.9196192373885280213 $321 0 $319 $358 forward 7 unknown #
vertex $-1 $285 $359 #
straight-curve $-1 19.98979999999999535 2.195812016727736626 26.49565947483132078 1 -0 -0 I I #
coedge $-1 $303 $286 $299 $343 forward $193 $-1 #
coedge $-1 $360 $353 $286 $325 forward $314 $-1 #
edge $-1 $361 1.916028118146424486 $328 4.396631224858484899 $324 $362 forward 7 unknown #
coedge $-1 $287 $363 $360 $364 reversed $327 $-1 #
loop $-1 $-1 $365 $313 #
vertex $-1 $364 $366 #
intcurve-curve $-1 forward { surfintcur full nubs 3 open 11 
	1.386847471162554024 3 2.772993685308875911 2 3.664454229192426915 2 4.248461614524043917 2 4.882063550301120713 2 
	6.020587303970997617 2 7.22985670813703063 2 8.997335292334833312 2 10.54907574912929746 2 11.38596365202791461 2 
	11.44218315847782286 3 
	14.39266128355445318 6.527060643711501964e-06 19.55907452045949313 
	14.19839801165529458 0.4284018213668532304 19.51949610420167858 
	13.98360879962706527 0.8788413145919784508 19.54282936102947232 
	13.6643951596353137 1.597914399344540604 19.7336997307457942 
	13.54879531463937248 1.871803735049047068 19.84626394982952746 
	13.38997623883344801 2.298678758097260744 20.10581491516901664 
	13.3364541162133623 2.458413654752784616 20.22609995825697737 
	13.24908221786392026 2.768992340522037132 20.51416362584980035 
	13.21825860787437712 2.914604782149122109 20.68201815985369407 
	13.1762154017079709 3.275828312952346444 21.19573598854949736 
	13.2016325784352393 3.44564028196372707 21.5632148354272033 
	13.34419827340436626 3.682639524251497765 22.35086477533037197 
	13.4657094946862923 3.74099506665540682 22.76627626501116453 
	13.83309371456395631 3.753634953497846816 23.76077925158299919 
	14.10588306270302361 3.647743120605301037 24.31324164017473421 
	14.56379557239271882 3.297766563170910992 25.22121634793310463 
	14.76460386753942089 3.065045951177206796 25.61089989436048597 
	14.9425527777530931 2.604627890296669523 26.12963779278173959 
	14.97987487383748473 2.424020080056743964 26.2964049653641041 
	14.9833564083448838 2.208481703412357611 26.4557486167712419 
	14.98342082441511991 2.194866644945137057 26.46566420376185391 
	14.98333246229792692 2.181204455996332836 26.47546545605145951 
	0.0004188795487394332182 
	torus 15.92579999999999707 0 12.03009167997084994 0 -1 0 11.42999999999999794 3.746499999999999719 0 0 -1 forward_v I I I I 
	cone 17.95508775786167277 15.33222752472764761 12.3693529064861103 0 -0.810240970201648647 0.5860968948959645042 0 -2.791286461942030339 -3.858772620585350754 1 I I 0 1 4.762499999999999289 forward I I I I 
	nullbs 
	nullbs 
	I I 
	0 
	0 
	0 
	} I I #
coedge $-1 $289 $303 $367 $368 reversed $193 $-1 #
coedge $-1 $369 $293 $289 $332 forward $337 $-1 #
edge $-1 $295 -9.015604444723654964 $370 -1.376371562762444212 $331 $371 reversed 7 unknown #
point $-1 14.98333682700371838 2.181202147972234329 26.47546227819359288 #
coedge $-1 $372 $367 $292 $335 forward $373 $-1 #
edge $-1 $345 -2.955533780419021372 $338 2.449212707644753037e-16 $292 $374 forward 7 unknown #
coedge $-1 $293 $375 $372 $376 reversed $337 $-1 #
loop $-1 $-1 $331 $377 #
vertex $-1 $335 $378 #
ellipse-curve $-1 15.92579999999999707 0 23.46009167997084788 -1 0 0 0 0 4.762499999999999289 1 I I #
point $-1 15.92579999999999707 4.169425870357018837 25.76167682104158629 #
ellipse-curve $-1 17.95508775786167277 0 23.46009167997084432 0 -0.810240970201648647 0.5860968948959645042 0 -2.791286461942030339 -3.858772620585350754 1 I I #
coedge $-1 $317 $299 $353 $379 reversed $281 $-1 #
edge $-1 $361 -0.6530615717492377348 $264 0 $299 $380 forward 7 unknown #
point $-1 20.84941237758370747 -2.216677905766132994 20.3956781459061034 #
vertex $-1 $304 $381 #
ellipse-curve $-1 17.95508775786167277 0 23.46009167997084788 -0.7071067811865477948 -0.5729268844247530357 0.4144330888133154756 4.762499999999995737 -3.858772620585351198 2.791286461942029451 0.7071067811865477948 I I #
intcurve-curve $-1 forward { surfintcur full nubs 3 open 2 
	26.61730807450982894 3 27.46178389321472224 3 
	20.84939634297575139 -2.216791656644581998 20.39552089268923396 
	20.55861318024528828 -2.202711363924365173 20.41498598478186466 
	20.27129193956829312 -2.195812016727727745 20.42452388511036787 
	19.98979999999999535 -2.195812016727727745 20.42452388511036787 
	0.0003032249152415650404 
	torus 19.98979999999999535 0 12.03009167997084461 0 -1 0 11.43000000000000327 3.746499999999999719 -0.409999999999999476 0 -0.9120855223058857986 forward_v I I I I 
	plane 17.95508775786167277 0 23.46009167997083722 0 -0.810240970201648647 0.5860968948959645042 0 -14.88686113035749514 -20.58012064312187306 forward_v I I I I 
	nullbs 
	nullbs 
	I I 
	0 
	0 
	0 
	} I I #
point $-1 19.98979999999999535 -2.195812016727726856 20.42452388511036787 #
coedge $-1 $365 $319 $310 $350 forward $327 $-1 #
edge $-1 $321 -0.6262331844400957914 $382 -0 $310 $383 reversed 7 unknown #
face $-1 $384 $385 $2 $-1 $386 reversed single #
torus-surface $-1 15.92579999999999707 0 12.03009167997084994 0 -1 0 11.42999999999999794 3.746499999999999719 0 0 -1 forward_v I I I I #
coedge $-1 $324 $354 $342 $379 forward $314 $-1 #
coedge $-1 $353 $387 $316 $355 forward $314 $-1 #
edge $-1 $382 -0 $356 2.515359469149700988 $316 $388 reversed 7 unknown #
vertex $-1 $355 $389 #
straight-curve $-1 19.98979999999999535 -2.19581201672772508 20.42452388511036787 -1 0 0 I I #
intcurve-curve $-1 forward { surfintcur full nubs 3 open 2 
	-0.9196192373885280213 3 0 3 
	14.98333916686761036 2.181176252764442047 26.47542647974717411 
	15.30400633114635767 2.191129493942341355 26.48918619057121049 
	15.61926025420381947 2.195812016727733074 26.49565947483132078 
	15.92579999999999707 2.195812016727733074 26.49565947483132078 
	0.0001467686467341882046 
	torus 15.92579999999999707 0 12.03009167997084994 0 -1 0 11.42999999999999794 3.746499999999999719 0 0 -1 forward_v I I I I 
	plane 17.95508775786167277 0 23.46009167997083722 0 -0.810240970201648647 0.5860968948959645042 0 -14.88686113035749514 -20.58012064312187306 forward_v I I I I 
	nullbs 
	nullbs 
	I I 
	0 
	0 
	0 
	} I I #
point $-1 15.92579999999999707 2.195812016727736626 26.49565947483132078 #
coedge $-1 $390 $324 $326 $364 forward $314 $-1 #
vertex $-1 $325 $391 #
intcurve-curve $-1 forward { surfintcur full nubs 3 open 4 
	1.916028118146424486 3 2.249808718420791109 2 3.60423898098893325 2 4.396631224858484899 3 
	15.06116459065640356 -2.21698650814566367 20.39525067900498101 
	15.06243178468960053 -2.12872159437235231 20.33029306324692698 
	15.05807400343439717 -2.037379651444373607 20.26849580604227441 
	15.00685560543932162 -1.559224607927732098 19.9713335072130036 
	14.87589407441189593 -1.153942021948600072 19.80208640448844903 
	14.6138761888151123 -0.4950803331557191989 19.62644110519132212 
	14.50489761479621187 -0.2471207552578731925 19.58191022200777809 
	14.39270282453313854 2.574244024294847222e-05 19.55907831012503451 
	0.0003950615299982229256 
	torus 15.92579999999999707 0 12.03009167997084994 0 -1 0 11.42999999999999794 3.746499999999999719 0 0 -1 forward_v I I I I 
	cone 17.95508775786167277 15.33222752472764761 12.3693529064861103 0 -0.810240970201648647 0.5860968948959645042 0 -2.791286461942030339 -3.858772620585350754 1 I I 0 1 4.762499999999999289 forward I I I I 
	nullbs 
	nullbs 
	I I 
	0 
	0 
	0 
	} I I #
coedge $-1 $326 $365 $392 $393 reversed $327 $-1 #
edge $-1 $328 1.203571825001070256e-16 $394 0.2215672082340460758 $360 $395 forward 7 unknown #
coedge $-1 $363 $349 $387 $396 forward $327 $-1 #
point $-1 14.39264648483609221 -4.587987704595535877e-16 19.55907650854771163 #
coedge $-1 $334 $397 $330 $368 forward $373 $-1 #
edge $-1 $370 -1.851912585797519828 $345 -1.305468399013002045 $367 $398 reversed 7 unknown #
coedge $-1 $375 $331 $397 $399 forward $337 $-1 #
vertex $-1 $399 $400 #
intcurve-curve $-1 forward { surfintcur full nubs 3 open 9 
	1.376371562762444212 3 2.984206739356264571 2 3.633893006325151998 2 4.073478863170067577 2 4.548656537668589017 2 
	5.435463575961888338 2 6.373806809593264511 2 7.670892796329510155 2 9.015604444723654964 3 
	15.20775815320703472 -7.304677904131778865e-08 18.65881500330525 
	14.76084307608618218 0.6054199412995128204 18.61040838373792639 
	14.30432876394789332 1.322415202638497211 18.63162229103495449 
	13.77963219773833359 2.294988064260361948 18.95148871425138992 
	13.64293434921070514 2.569888299620322503 19.07688730960728662 
	13.45100657372599251 3.009499613266886975 19.35574867691622813 
	13.38481821344796607 3.178739794043068834 19.48550565036876847 
	13.27497788449610816 3.510945118645091068 19.79302608421460263 
	13.23473812528388827 3.668905066857920172 19.97069248120710583 
	13.17125772968515385 4.078746738517106785 20.5263663742135023 
	13.1949278715758318 4.282565936619255886 20.92923459833594535 
	13.36132828942595019 4.590509797409692005 21.79079652205925299 
	13.50912551639349068 4.685375009180253514 22.24265302118040211 
	13.9653726683532291 4.793105938872517235 23.28402165772917698 
	14.31453068893145897 4.761774043274178858 23.86281603860250655 
	15.11539639827586434 4.551514959658860882 24.93627676836731055 
	15.54252050342810776 4.374946197372334922 25.38908187940587879 
	15.92637931814534014 4.169554253122929488 25.76115001540640748 
	0.001068218091291648839 
	torus 15.92579999999999707 0 12.03009167997084994 0 -1 0 11.42999999999999794 4.762499999999999289 0 0 -1 forward_v I I I I 
	cone 17.95508775786167277 15.33222752472764761 12.3693529064861103 0 -0.810240970201648647 0.5860968948959645042 0 -2.791286461942030339 -3.858772620585350754 1 I I 0 1 4.762499999999999289 forward I I I I 
	nullbs 
	nullbs 
	I I 
	0 
	0 
	0 
	} I I #
coedge $-1 $401 $334 $336 $376 forward $373 $-1 #
loop $-1 $-1 $372 $402 #
ellipse-curve $-1 15.92579999999999707 0 23.46009167997084788 -1 0 0 0 0 4.762499999999999289 1 I I #
coedge $-1 $336 $369 $403 $404 reversed $337 $-1 #
edge $-1 $338 0 $405 0.4224540621867566847 $336 $406 forward 7 unknown #
face $-1 $402 $337 $2 $-1 $407 forward single #
point $-1 15.92579999999999707 1.16643755201581426e-15 28.22259167997085072 #
edge $-1 $356 27.46178389321471869 $361 28.31099704505669834 $353 $408 forward 7 unknown #
ellipse-curve $-1 17.95508775786167277 0 23.46009167997084432 0 -0.810240970201648647 0.5860968948959645042 0 -2.791286461942030339 -3.858772620585350754 1 I I #
point $-1 15.92579999999999707 -0.8810017068606734725 18.77978803143386699 #
vertex $-1 $350 $409 #
ellipse-curve $-1 15.92579999999999707 0 23.46009167997084788 -1 0 0 0 0 3.746499999999999719 1 I I #
face $-1 $410 $411 $2 $-1 $412 reversed single #
loop $-1 $-1 $413 $351 #
torus-surface $-1 19.04999999999999716 0 5.079999999999999183 0 -1 0 19.04999999999999716 3.746499999999999719 0.4100000000000005307 0 -0.9120855223058853545 forward_v I I I I #
coedge $-1 $354 $390 $365 $396 reversed $314 $-1 #
ellipse-curve $-1 15.92579999999999707 0 23.46009167997084788 -1 0 0 0 0 3.746499999999999719 1 I I #
point $-1 15.92579999999999707 -2.195812016727725968 20.42452388511036787 #
coedge $-1 $387 $360 $414 $415 reversed $314 $-1 #
point $-1 15.06129353915005531 -2.216915767584344721 20.3953493173590843 #
coedge $-1 $413 $416 $363 $393 forward $385 $-1 #
edge $-1 $394 -3.141592653589793116 $417 -0 $363 $418 reversed 7 unknown #
vertex $-1 $415 $419 #
ellipse-curve $-1 15.92579999999999707 -4.587987704595535877e-16 12.03009167997084994 0 -1 0 -1.533153515163903746 0 7.528984828576860799 1 I I #
edge $-1 $382 0 $417 0.4224540621867568513 $387 $420 forward 7 unknown #
coedge $-1 $367 $401 $369 $399 reversed $373 $-1 #
intcurve-curve $-1 forward { surfintcur full nubs 3 open 3 
	1.305468399013002045 3 1.674337895030468371 2 1.851912585797519828 3 
	15.92577744341957313 -0.8810155963021191194 18.77982456846257975 
	15.76899623455117805 -0.7107159584304013622 18.74777267098243527 
	15.60739880409730596 -0.5188165512760452014 18.71578974322893174 
	15.36524691468689241 -0.2102665089430564016 18.67805592609131082 
	15.28638968516525765 -0.1065504020290488074 18.66734434440317614 
	15.20773000995869673 -1.947726134018945565e-05 18.6588322248840015 
	0.0001035495076904384301 
	torus 15.92579999999999707 0 12.03009167997084994 0 -1 0 11.42999999999999794 4.762499999999999289 0 0 -1 forward_v I I I I 
	cone 17.95508775786167277 15.33222752472764761 12.3693529064861103 0 -0.810240970201648647 0.5860968948959645042 0 -2.791286461942030339 -3.858772620585350754 1 I I 0 1 4.762499999999999289 forward I I I I 
	nullbs 
	nullbs 
	I I 
	0 
	0 
	0 
	} I I #
edge $-1 $370 5.993705812870973514e-17 $421 0.3145520028646168198 $369 $422 forward 7 unknown #
point $-1 15.20775825699762684 -5.832187760079071298e-16 18.65881495865024675 #
coedge $-1 $397 $372 $423 $424 reversed $373 $-1 #
face $-1 $235 $373 $2 $-1 $425 forward single #
coedge $-1 $426 $427 $375 $404 forward $428 $-1 #
edge $-1 $405 2.44921270764475353e-16 $421 3.141592653589793116 $375 $429 forward 7 unknown #
vertex $-1 $376 $430 #
ellipse-curve $-1 15.92579999999999707 1.16643755201581426e-15 12.03009167997084994 0 -1 0 0 0 16.19249999999999901 1 I I #
torus-surface $-1 15.92579999999999707 0 12.03009167997084994 0 -1 0 11.42999999999999794 4.762499999999999289 0 0 -1 forward_v I I I I #
intcurve-curve $-1 forward { surfintcur full nubs 3 open 2 
	27.46178389321471869 3 28.31099704505669834 3 
	15.92579999999999529 -2.195812016727725968 20.42452388511036787 
	15.64272894938600444 -2.195812016727725968 20.42452388511036787 
	15.35376301189082326 -2.2027889888415082 20.41487867336505602 
	15.06130963199774797 -2.217029297154791134 20.39519237008618546 
	0.0003032249152405879574 
	torus 15.92579999999999707 0 12.03009167997084994 0 -1 0 11.42999999999999794 3.746499999999999719 0 0 -1 forward_v I I I I 
	plane 17.95508775786167277 0 23.46009167997083722 0 -0.810240970201648647 0.5860968948959645042 0 -14.88686113035749514 -20.58012064312187306 forward_v I I I I 
	nullbs 
	nullbs 
	I I 
	0 
	0 
	0 
	} I I #
point $-1 15.92579999999999707 0 27.20659167997084893 #
face $-1 $431 $432 $2 $-1 $433 reversed single #
loop $-1 $-1 $434 $384 #
torus-surface $-1 19.04999999999999716 0 5.079999999999999183 0 -1 0 19.04999999999999716 3.746499999999999719 0.4100000000000005307 0 -0.9120855223058853545 forward_v I I I I #
coedge $-1 $435 $392 $436 $437 forward $385 $-1 #
coedge $-1 $434 $436 $390 $415 forward $411 $-1 #
edge $-1 $417 -0 $394 3.141592653589793116 $390 $438 reversed 7 unknown #
coedge $-1 $392 $435 $434 $439 reversed $385 $-1 #
vertex $-1 $396 $440 #
ellipse-curve $-1 11.2394999999999996 0 22.45522919992711763 -0.9120855223058855765 -0 -0.4099999999999999756 -1.53606499999999957 0 3.417128409318999527 1 I I #
point $-1 12.77556499999998962 -4.587987704595535877e-16 19.03810079060811233 #
ellipse-curve $-1 15.92579999999999707 0 12.03009167997084994 0 -1 0 0 0 15.17649999999999721 1 I I #
vertex $-1 $404 $441 #
ellipse-curve $-1 15.92579999999999707 -5.832187760079071298e-16 12.03009167997084994 0 -1 0 -0.7180417430023696701 0 6.628723278679395925 1 I I #
coedge $-1 $442 $443 $401 $424 forward $444 $-1 #
edge $-1 $421 -3.141592653589793116 $405 2.44921270764475353e-16 $401 $445 forward 7 unknown #
torus-surface $-1 15.92579999999999707 0 12.03009167997084994 0 -1 0 11.42999999999999794 4.762499999999999289 0 0 -1 forward_v I I I I #
coedge $-1 $446 $403 $443 $447 forward $428 $-1 #
coedge $-1 $403 $446 $442 $448 reversed $428 $-1 #
loop $-1 $-1 $426 $449 #
ellipse-curve $-1 11.2394999999999996 0 22.45522919992711763 -0.9120855223058855765 -0 -0.4099999999999999756 -1.952624999999999389 0 4.343807299981778947 1 I I #
point $-1 9.286874999999984226 1.16643755201581426e-15 26.79903649990889392 #
face $-1 $450 $451 $2 $-1 $452 reversed single #
loop $-1 $-1 $453 $410 #
cone-surface $-1 0 0 5.079999999999999183 0 0 -1 -3.746499999999999719 0 0 1 I I 0 1 3.746499999999999719 forward I I I I #
coedge $-1 $454 $414 $416 $439 forward $411 $-1 #
coedge $-1 $416 $413 $455 $456 reversed $385 $-1 #
coedge $-1 $414 $454 $413 $437 reversed $411 $-1 #
edge $-1 $417 -5.469074600551102889e-17 $457 1.14834226460814004 $436 $458 forward 7 unknown #
ellipse-curve $-1 11.2394999999999996 0 22.45522919992711763 -0.9120855223058855765 -0 -0.4099999999999999756 -1.53606499999999957 0 3.417128409318999527 1 I I #
edge $-1 $394 -1.213580695224990342e-16 $459 1.148342264608140262 $434 $460 forward 7 unknown #
point $-1 9.703434999999984711 0 25.87235760924610872 #
point $-1 13.19212499999998833 -5.832187760079071298e-16 18.11142189994533425 #
coedge $-1 $461 $423 $427 $448 forward $444 $-1 #
coedge $-1 $423 $461 $426 $447 reversed $444 $-1 #
loop $-1 $-1 $442 $462 #
ellipse-curve $-1 11.2394999999999996 0 22.45522919992711763 -0.9120855223058855765 -0 -0.4099999999999999756 -1.952624999999999389 0 4.343807299981778947 1 I I #
coedge $-1 $427 $426 $463 $464 reversed $428 $-1 #
edge $-1 $421 -2.088473492129263976e-16 $465 1.14834226460814004 $426 $466 forward 7 unknown #
edge $-1 $405 -5.012336381110232434e-17 $467 1.148342264608140262 $427 $468 forward 7 unknown #
face $-1 $377 $428 $2 $-1 $469 forward single #
face $-1 $470 $471 $2 $-1 $472 forward single #
loop $-1 $-1 $473 $431 #
cone-surface $-1 0 0 5.079999999999999183 0 0 -1 -3.746499999999999719 0 0 1 I I 0 1 3.746499999999999719 forward I I I I #
coedge $-1 $474 $475 $476 $477 forward $432 $-1 #
coedge $-1 $436 $434 $475 $478 reversed $411 $-1 #
coedge $-1 $473 $476 $435 $456 forward $451 $-1 #
edge $-1 $459 -3.141592653589793116 $457 2.449212707644754516e-16 $435 $479 reversed 7 unknown #
vertex $-1 $437 $480 #
ellipse-curve $-1 19.04999999999999716 0 5.079999999999999183 0 -1 0 -9.346565000000014223 0 20.79235760924611043 1 I I #
vertex $-1 $478 $481 #
ellipse-curve $-1 19.04999999999999716 -4.587987704595535877e-16 5.079999999999999183 0 -1 0 -6.27443500000000931 0 13.95810079060811404 1 I I #
coedge $-1 $443 $442 $482 $483 reversed $444 $-1 #
face $-1 $449 $444 $2 $-1 $484 forward single #
coedge $-1 $485 $486 $446 $464 forward $487 $-1 #
edge $-1 $467 0 $465 3.141592653589793116 $446 $488 forward 7 unknown #
vertex $-1 $464 $489 #
ellipse-curve $-1 19.04999999999999716 -5.832187760079071298e-16 5.079999999999999183 0 -1 0 -5.857875000000010601 0 13.03142189994533418 1 I I #
vertex $-1 $448 $490 #
ellipse-curve $-1 19.04999999999999716 1.16643755201581426e-15 5.079999999999999183 0 -1 0 -9.763125000000014708 0 21.71903649990889562 1 I I #
torus-surface $-1 19.04999999999999716 0 5.079999999999999183 0 -1 0 19.04999999999999716 4.762499999999999289 0.4100000000000005307 0 -0.9120855223058853545 forward_v I I I I #
face $-1 $491 $492 $2 $-1 $493 forward single #
loop $-1 $494 $495 $450 #
plane-surface $-1 0 0 0 0 0 -1 -25.39999999999999858 0 0 forward_v I I I I #
coedge $-1 $496 $455 $497 $498 forward $451 $-1 #
coedge $-1 $497 $453 $499 $500 reversed $432 $-1 #
coedge $-1 $453 $497 $454 $478 forward $432 $-1 #
coedge $-1 $455 $496 $453 $477 reversed $451 $-1 #
edge $-1 $459 0 $501 0.1999999999999999833 $453 $502 forward 7 unknown #
edge $-1 $457 2.449212707644754516e-16 $459 3.141592653589793116 $454 $503 reversed 7 unknown #
ellipse-curve $-1 0 0 5.079999999999999183 -0 -0 -1 -3.746499999999999719 0 0 1 I I #
point $-1 -3.746499999999999719 -9.175975409191071754e-16 5.079999999999999183 #
point $-1 3.746499999999999719 4.587987704595535877e-16 5.079999999999999183 #
coedge $-1 $504 $505 $461 $483 forward $506 $-1 #
edge $-1 $465 -3.141592653589793116 $467 0 $461 $507 forward 7 unknown #
torus-surface $-1 19.04999999999999716 0 5.079999999999999183 0 -1 0 19.04999999999999716 4.762499999999999289 0.4100000000000005307 0 -0.9120855223058853545 forward_v I I I I #
coedge $-1 $508 $463 $505 $509 forward $487 $-1 #
coedge $-1 $463 $508 $504 $510 reversed $487 $-1 #
loop $-1 $-1 $485 $511 #
ellipse-curve $-1 0 0 5.079999999999999183 -0 -0 -1 -4.762499999999999289 0 0 1 I I #
point $-1 4.762499999999999289 5.832187760079071298e-16 5.079999999999999183 #
point $-1 -4.762499999999999289 0 5.079999999999999183 #
face $-1 $511 $512 $2 $-1 $513 forward single #
loop $-1 $-1 $514 $470 #
torus-surface $-1 0 0 0.2540000000000002256 0 0 -1 4.50849999999999973 0.2540000000000000036 -1 0 0 forward_v I I I I #
loop $-1 $-1 $515 $450 #
coedge $-1 $516 $516 $517 $518 forward $471 $-1 #
coedge $-1 $476 $473 $515 $519 reversed $451 $-1 #
coedge $-1 $475 $474 $473 $498 reversed $432 $-1 #
edge $-1 $457 6.525398715828575239e-33 $520 0.1999999999999999833 $497 $521 forward 7 unknown #
coedge $-1 $515 $515 $474 $500 forward $494 $-1 #
edge $-1 $520 -0 $501 3.141592653589793116 $499 $522 reversed 7 unknown #
vertex $-1 $500 $523 #
straight-curve $-1 3.746499999999999719 4.587987704595535877e-16 5.079999999999999183 0 0 -25.39999999999999858 I I #
ellipse-curve $-1 0 0 5.079999999999999183 -0 -0 -1 -3.746499999999999719 0 0 1 I I #
coedge $-1 $524 $482 $486 $510 forward $506 $-1 #
coedge $-1 $482 $524 $485 $509 reversed $506 $-1 #
loop $-1 $-1 $504 $525 #
ellipse-curve $-1 0 0 5.079999999999999183 -0 -0 -1 -4.762499999999999289 0 0 1 I I #
coedge $-1 $486 $485 $526 $527 reversed $487 $-1 #
edge $-1 $465 0 $528 0.1899999999999999745 $485 $529 forward 7 unknown #
edge $-1 $467 0 $530 0.1899999999999999745 $486 $531 forward 7 unknown #
face $-1 $525 $487 $2 $-1 $532 forward single #
loop $-1 $-1 $533 $491 #
torus-surface $-1 0 0 0.2540000000000002256 0 0 -1 4.50849999999999973 0.2540000000000000036 -1 0 0 forward_v I I I I #
coedge $-1 $534 $517 $535 $536 forward $492 $-1 #
coedge $-1 $499 $499 $496 $519 forward $494 $-1 #
coedge $-1 $495 $495 $537 $538 forward $471 $-1 #
coedge $-1 $514 $539 $495 $518 reversed $492 $-1 #
edge $-1 $540 -3.141592653589793116 $541 0 $495 $542 forward 7 unknown #
edge $-1 $501 -3.141592653589793116 $520 -0 $515 $543 reversed 7 unknown #
vertex $-1 $500 $544 #
straight-curve $-1 -3.746499999999999719 0 5.079999999999999183 0 -4.587987704595536272e-15 -25.39999999999999858 I I #
ellipse-curve $-1 0 0 0 0 0 -1 -3.746499999999999719 0 0 1 I I #
point $-1 3.746499999999999719 0 0 #
coedge $-1 $505 $504 $534 $545 reversed $506 $-1 #
face $-1 $462 $506 $2 $-1 $546 forward single #
coedge $-1 $535 $533 $508 $527 forward $512 $-1 #
edge $-1 $530 0 $528 3.141592653589793116 $508 $547 forward 7 unknown #
vertex $-1 $527 $548 #
straight-curve $-1 4.762499999999999289 5.832187760079071298e-16 5.079999999999999183 0 0 -25.39999999999999858 I I #
vertex $-1 $510 $549 #
straight-curve $-1 -4.762499999999999289 0 5.079999999999999183 0 0 -25.39999999999999858 I I #
cone-surface $-1 0 0 5.079999999999999183 0 0 -1 -4.762499999999999289 0 0 1 I I 0 1 4.762499999999999289 forward I I I I #
coedge $-1 $526 $537 $539 $550 forward $512 $-1 #
coedge $-1 $539 $514 $524 $545 forward $492 $-1 #
coedge $-1 $537 $526 $514 $536 reversed $512 $-1 #
edge $-1 $540 -7.212078703273652727e-16 $528 1.570796326794898778 $514 $551 forward 7 unknown #
coedge $-1 $533 $535 $516 $538 reversed $512 $-1 #
edge $-1 $541 0 $540 3.141592653589793116 $516 $552 forward 7 unknown #
coedge $-1 $517 $534 $533 $550 reversed $492 $-1 #
vertex $-1 $538 $553 #
vertex $-1 $538 $554 #
ellipse-curve $-1 0 0 0 0 0 -1 -4.50849999999999973 0 0 1 I I #
ellipse-curve $-1 0 0 0 0 0 -1 -3.746499999999999719 0 0 1 I I #
point $-1 -3.746499999999999719 0 0 #
edge $-1 $528 -3.141592653589793116 $530 0 $524 $555 forward 7 unknown #
cone-surface $-1 0 0 5.079999999999999183 0 0 -1 -4.762499999999999289 0 0 1 I I 0 1 4.762499999999999289 forward I I I I #
ellipse-curve $-1 0 0 0.2540000000000002256 0 0 -1 -4.762499999999999289 0 0 1 I I #
point $-1 4.762499999999999289 5.832187760079071298e-16 0.2540000000000002256 #
point $-1 -4.762499999999999289 0 0.2540000000000002256 #
edge $-1 $541 -7.212078703273652727e-16 $530 1.570796326794898778 $539 $556 forward 7 unknown #
ellipse-curve $-1 4.508500000000000618 5.521137746208185471e-16 0.2540000000000003921 1.224606353822378737e-16 -1 -9.561941247328812002e-31 -7.049916206369743637e-16 1.565395858797945214e-31 -0.2540000000000001701 1 I I #
ellipse-curve $-1 0 0 0 0 0 -1 -4.50849999999999973 0 0 1 I I #
point $-1 4.50849999999999973 5.521137746208187443e-16 2.20309881449054501e-16 #
point $-1 -4.50849999999999973 0 2.20309881449054501e-16 #
ellipse-curve $-1 0 0 0.2540000000000002256 0 0 -1 -4.762499999999999289 0 0 1 I I #
ellipse-curve $-1 -4.508500000000000618 0 0.2540000000000003921 0 1 0 7.049916206369743637e-16 0 -0.2540000000000001701 1 I I #
End-of-ACIS-data 