600 0 1 0           
92 GICL Pro/E ACIS Translator - Source: f:/data5/repository/PTC/V18/piping18/return-3.prt - 6 0 13 ACIS 6.0.3 NT 24 Thu Apr 04 13:31:51 2002 
1 9.9999999999999995e-007 1e-010 
body $-1 $1 $-1 $2 #
lump $-1 $-1 $3 $0 #
transform $-1 1 0 0 0 1 0 0 0 1 0 0 0 25.399999999999999 no_rotate no_reflect no_shear #
shell $-1 $-1 $-1 $4 $-1 $1 #
face $-1 $5 $6 $3 $-1 $7 reversed single #
face $-1 $8 $9 $3 $-1 $10 forward single #
loop $-1 $11 $12 $4 #
plane-surface $-1 0.70689321881345168 0.70710678118654613 0.012132034355964716 0 0 1 1 0 0 forward_v I I I I #
face $-1 $13 $14 $3 $-1 $15 forward single #
loop $-1 $-1 $16 $5 #
cone-surface $-1 0.70689321881345168 0.70710678118654613 0.012132034355964716 0 0 1 0.1875 0 0 1 I I 0 1 0.1875 forward I I I I #
loop $-1 $-1 $17 $4 #
coedge $-1 $18 $18 $19 $20 reversed $6 $-1 #
face $-1 $21 $22 $3 $-1 $23 forward single #
loop $-1 $-1 $24 $8 #
cone-surface $-1 0.70689321881345168 0.70710678118654613 0.012132034355964716 0 0 1 0.1875 0 0 1 I I 0 1 0.1875 forward I I I I #
coedge $-1 $25 $19 $26 $27 forward $9 $-1 #
coedge $-1 $28 $28 $29 $30 reversed $11 $-1 #
coedge $-1 $12 $12 $31 $32 reversed $6 $-1 #
coedge $-1 $16 $33 $12 $20 forward $9 $-1 #
edge $-1 $34 0 $35 3.1415926535897931 $12 $36 forward 7 unknown #
face $-1 $37 $38 $3 $-1 $39 forward single #
loop $-1 $-1 $40 $13 #
torus-surface $-1 0.70689321881345168 0.45710678118654613 0.28442215534274184 1 0 0 0.25 0.1875 0 -1 0 forward_v I I I I #
coedge $-1 $41 $31 $33 $42 forward $14 $-1 #
coedge $-1 $33 $16 $43 $44 reversed $9 $-1 #
coedge $-1 $31 $41 $16 $27 reversed $14 $-1 #
edge $-1 $35 0 $45 0.27229012098677718 $26 $46 forward 7 unknown #
coedge $-1 $17 $17 $47 $48 reversed $11 $-1 #
coedge $-1 $49 $50 $17 $30 forward $51 $-1 #
edge $-1 $52 0 $53 3.1415926535897931 $17 $54 forward 7 unknown #
coedge $-1 $24 $26 $18 $32 forward $14 $-1 #
edge $-1 $35 0 $34 3.1415926535897931 $18 $55 forward 7 unknown #
coedge $-1 $19 $25 $24 $42 reversed $9 $-1 #
vertex $-1 $32 $56 #
vertex $-1 $32 $57 #
ellipse-curve $-1 0.70689321881345168 0.70710678118654613 0.012132034355964716 0 0 1 -0.1875 0 0 1 I I #
face $-1 $58 $59 $3 $-1 $60 forward single #
loop $-1 $-1 $61 $21 #
torus-surface $-1 0.70689321881345168 0.45710678118654613 0.28442215534274184 1 0 0 0.25 0.1875 0 -1 0 forward_v I I I I #
coedge $-1 $62 $63 $64 $65 forward $22 $-1 #
coedge $-1 $26 $24 $63 $66 reversed $14 $-1 #
edge $-1 $34 0 $67 0.27229012098677718 $24 $68 forward 7 unknown #
coedge $-1 $61 $64 $25 $44 forward $38 $-1 #
edge $-1 $67 0 $45 3.1415926535897931 $25 $69 forward 7 unknown #
vertex $-1 $27 $70 #
straight-curve $-1 0.89439321881345168 0.70710678118654613 0.012132034355964716 0 0 1 I I #
coedge $-1 $71 $72 $28 $48 forward $73 $-1 #
edge $-1 $53 0 $52 3.1415926535897931 $28 $74 forward 7 unknown #
coedge $-1 $75 $29 $72 $76 forward $51 $-1 #
coedge $-1 $29 $75 $71 $77 reversed $51 $-1 #
loop $-1 $-1 $49 $78 #
vertex $-1 $48 $79 #
vertex $-1 $48 $80 #
ellipse-curve $-1 0.70689321881345168 0.70710678118654613 0.012132034355964716 0 0 -1 -0.14749999999999996 0 0 1 I I #
ellipse-curve $-1 0.70689321881345168 0.70710678118654613 0.012132034355964716 0 0 1 0.1875 0 0 1 I I #
point $-1 0.51939321881345168 0.70710678118654613 0.012132034355964716 #
point $-1 0.89439321881345168 0.70710678118654613 0.012132034355964716 #
face $-1 $81 $82 $3 $-1 $83 forward single #
loop $-1 $-1 $84 $37 #
cone-surface $-1 0.70689321881345168 0.60363100491053734 0.48698239789315401 0 -0.81024097020164854 0.5860968948959645 0.1875 0 0 1 I I 0 1 0.1875 forward I I I I #
coedge $-1 $85 $43 $86 $87 forward $38 $-1 #
coedge $-1 $86 $40 $88 $89 reversed $22 $-1 #
coedge $-1 $40 $86 $41 $66 forward $22 $-1 #
coedge $-1 $43 $85 $40 $65 reversed $38 $-1 #
edge $-1 $67 0 $90 0.94456314235480221 $40 $91 forward 7 unknown #
edge $-1 $45 0 $67 3.1415926535897931 $41 $92 forward 7 unknown #
vertex $-1 $66 $93 #
straight-curve $-1 0.51939321881345168 0.70710678118654613 0.012132034355964716 0 0 1 I I #
ellipse-curve $-1 0.7068932188134518 0.70710678118654613 0.28442215534274184 2.9605947323337491e-016 0 1 -0.18750000000000011 0 5.5511151231257827e-017 1 I I #
point $-1 0.89439321881345168 0.70710678118654613 0.2844221553427419 #
coedge $-1 $94 $47 $50 $77 forward $73 $-1 #
coedge $-1 $47 $94 $49 $76 reversed $73 $-1 #
loop $-1 $-1 $71 $95 #
ellipse-curve $-1 0.70689321881345168 0.70710678118654613 0.012132034355964716 0 0 -1 0.14749999999999996 0 0 1 I I #
coedge $-1 $50 $49 $96 $97 reversed $51 $-1 #
edge $-1 $53 0 $98 0.27229012098677718 $72 $99 forward 7 unknown #
edge $-1 $52 0 $100 0.27229012098677718 $71 $101 forward 7 unknown #
face $-1 $-1 $51 $3 $-1 $102 reversed single #
point $-1 0.55939321881345172 0.70710678118654613 0.012132034355964716 #
point $-1 0.85439321881345165 0.70710678118654613 0.012132034355964716 #
face $-1 $103 $104 $3 $-1 $105 forward single #
loop $-1 $-1 $106 $58 #
cone-surface $-1 0.70689321881345168 0.60363100491053734 0.48698239789315401 0 -0.81024097020164854 0.5860968948959645 0.1875 0 0 1 I I 0 1 0.1875 forward I I I I #
coedge $-1 $107 $108 $109 $110 reversed $59 $-1 #
coedge $-1 $64 $61 $107 $111 reversed $38 $-1 #
coedge $-1 $63 $62 $61 $87 reversed $22 $-1 #
edge $-1 $45 0 $112 0.94456314235480221 $86 $113 forward 7 unknown #
coedge $-1 $109 $114 $62 $89 forward $82 $-1 #
edge $-1 $112 0 $90 3.1415926535897931 $62 $115 forward 7 unknown #
vertex $-1 $89 $116 #
ellipse-curve $-1 0.51939321881345168 0.45710678118654613 0.28442215534274184 1 0 0 0 0.25 5.5511151231257827e-017 1 I I #
ellipse-curve $-1 0.70689321881345168 0.70710678118654613 0.28442215534274196 2.9605947323337506e-016 0 1 0.1875 0 -5.5511151231257827e-017 1 I I #
point $-1 0.51939321881345168 0.70710678118654613 0.2844221553427419 #
coedge $-1 $72 $71 $117 $118 reversed $73 $-1 #
face $-1 $78 $73 $3 $-1 $119 reversed single #
coedge $-1 $120 $121 $75 $97 forward $122 $-1 #
edge $-1 $100 0 $98 3.1415926535897944 $75 $123 forward 7 unknown #
vertex $-1 $76 $124 #
straight-curve $-1 0.85439321881345165 0.70710678118654613 0.012132034355964716 0 0 1 I I #
vertex $-1 $118 $125 #
straight-curve $-1 0.55939321881345172 0.70710678118654613 0.012132034355964716 0 0 1 I I #
cone-surface $-1 0.70689321881345168 0.70710678118654613 0.012132034355964716 0 0 1 0.14749999999999999 0 0 1 I I 0 1 0.14749999999999999 forward I I I I #
face $-1 $126 $127 $3 $-1 $128 reversed single #
loop $-1 $-1 $129 $81 #
plane-surface $-1 0.70689321881345168 0 0.92362565669176566 0 -0.81024097020164854 0.58609689489596462 1 0 0 forward_v I I I I #
coedge $-1 $114 $130 $131 $132 reversed $82 $-1 #
coedge $-1 $133 $84 $85 $111 forward $59 $-1 #
coedge $-1 $84 $134 $135 $136 forward $59 $-1 #
coedge $-1 $130 $88 $84 $110 forward $82 $-1 #
edge $-1 $90 0 $137 0.58879629816115742 $109 $138 forward 7 unknown #
edge $-1 $90 0 $112 3.1415926535897931 $85 $139 forward 7 unknown #
vertex $-1 $87 $140 #
ellipse-curve $-1 0.89439321881345168 0.45710678118654613 0.28442215534274184 1 0 0 0 0.25 5.5511151231257827e-017 1 I I #
coedge $-1 $88 $106 $133 $141 reversed $82 $-1 #
ellipse-curve $-1 0.70689321881345168 0.60363100491053734 0.48698239789315401 0 -0.81024097020164854 0.5860968948959645 0.1875 0 0 1 I I #
point $-1 0.51939321881345168 0.60363100491053734 0.48698239789315401 #
coedge $-1 $142 $143 $94 $118 forward $144 $-1 #
edge $-1 $98 0 $100 3.1415926535897944 $94 $145 forward 7 unknown #
cone-surface $-1 0.70689321881345168 0.70710678118654613 0.012132034355964716 0 0 1 0.14749999999999999 0 0 1 I I 0 1 0.14749999999999999 forward I I I I #
coedge $-1 $146 $96 $143 $147 forward $122 $-1 #
coedge $-1 $96 $146 $142 $148 reversed $122 $-1 #
loop $-1 $-1 $120 $149 #
ellipse-curve $-1 0.70689321881345168 0.70710678118654624 0.28442215534274196 3.7634678800852772e-016 2.832738096886714e-031 -1 -0.14749999999999996 -1.1102230246251565e-016 -5.5511151231257827e-017 1 I I #
point $-1 0.85439321881345165 0.70710678118654613 0.2844221553427419 #
point $-1 0.55939321881345172 0.70710678118654613 0.2844221553427419 #
face $-1 $150 $151 $3 $-1 $152 forward single #
loop $-1 $-1 $153 $103 #
cone-surface $-1 0.78699999999999981 0 0.92362565669176566 -1 0 0 0 -0.14749999999999999 0 1 I I 0 1 0.14749999999999999 forward I I I I #
coedge $-1 $154 $155 $156 $157 forward $104 $-1 #
coedge $-1 $106 $109 $158 $159 forward $82 $-1 #
coedge $-1 $160 $161 $106 $132 forward $104 $-1 #
edge $-1 $162 -8.7651211691223431e-032 $163 2.2446343052899245 $131 $164 forward 7 unknown #
coedge $-1 $134 $107 $114 $141 forward $59 $-1 #
coedge $-1 $108 $133 $161 $165 reversed $59 $-1 #
coedge $-1 $166 $158 $108 $136 reversed $167 $-1 #
edge $-1 $168 0 $137 0.99999999999999989 $108 $169 forward 7 unknown #
vertex $-1 $159 $170 #
straight-curve $-1 0.51939321881345168 0.60363100491053734 0.48698239789315401 0 -0.81024097020164842 0.58609689489596473 I I #
ellipse-curve $-1 0.70689321881345168 0.60363100491053734 0.48698239789315401 0 -0.81024097020164854 0.5860968948959645 -0.1875 0 0 1 I I #
point $-1 0.89439321881345168 0.60363100491053734 0.48698239789315401 #
edge $-1 $112 0 $162 0.74500182922163116 $114 $171 forward 7 unknown #
coedge $-1 $172 $117 $121 $148 forward $144 $-1 #
coedge $-1 $117 $172 $120 $147 reversed $144 $-1 #
loop $-1 $-1 $142 $173 #
ellipse-curve $-1 0.7068932188134518 0.70710678118654602 0.28442215534274184 3.7634678800852802e-016 2.8327380968867188e-031 -1 0.14749999999999985 1.1102230246251565e-016 5.5511151231257827e-017 1 I I #
coedge $-1 $121 $120 $174 $175 reversed $122 $-1 #
edge $-1 $98 0 $176 0.9445631423548021 $143 $177 forward 7 unknown #
edge $-1 $100 0 $178 0.94456314235480221 $142 $179 forward 7 unknown #
face $-1 $173 $122 $3 $-1 $180 reversed single #
face $-1 $181 $182 $3 $-1 $183 reversed single #
loop $-1 $-1 $184 $126 #
plane-surface $-1 0.78699999999999981 0 0.92362565669176566 -1 0 0 0 -1 0 forward_v I I I I #
coedge $-1 $185 $156 $186 $187 reversed $127 $-1 #
coedge $-1 $188 $129 $189 $190 forward $104 $-1 #
coedge $-1 $129 $191 $192 $193 reversed $104 $-1 #
coedge $-1 $153 $185 $129 $157 reversed $127 $-1 #
edge $-1 $194 6.731769476202359e-032 $195 0.080106781186548126 $129 $196 forward 7 unknown #
coedge $-1 $135 $197 $130 $159 reversed $167 $-1 #
edge $-1 $137 0 $163 0.99999999999999989 $130 $198 forward 7 unknown #
coedge $-1 $199 $131 $197 $200 forward $104 $-1 #
coedge $-1 $131 $188 $134 $165 forward $104 $-1 #
vertex $-1 $132 $201 #
vertex $-1 $200 $202 #
ellipse-curve $-1 0.70689321881345157 -7.4174427710398827e-017 0.92362565669176555 -2.6510221148028969e-017 -0.81024097020164854 0.58609689489596462 0.18750000000000011 7.4174427710398827e-017 1.1102230246251565e-016 1 I I #
edge $-1 $168 9.8686491077791576e-017 $162 2.223857898544134 $161 $203 forward 7 unknown #
coedge $-1 $204 $135 $188 $205 reversed $167 $-1 #
loop $-1 $-1 $206 $207 #
vertex $-1 $165 $208 #
intcurve-curve $-1 forward { surfintcur full nurbs 3 open 12 
	0 3 0.089375644615404995 1 0.17975390224113436 1 0.2709460797297451 1 0.36295142676169534 1 
	0.45558837379204803 1 0.54772204091582977 1 0.63906246837087433 1 0.72996390730663763 1 0.82037923730457896 1 
	0.91033956363539892 1 0.99999999999999989 3 
	0.59296431256496285 -0.087280148330092566 0.80296650855744434 1 
	0.59310604001745826 -0.08263782605550489 0.79944680505889276 1 
	0.59233548821046722 -0.072259872302663022 0.79269974677622723 1 
	0.58799161044114889 -0.053006463081601209 0.78294913711551084 1 
	0.58030592279561621 -0.031267758100600083 0.7753198458434869 1.0000000000000002 
	0.57000043551551816 -0.0071386561726272026 0.77019733594501094 1 
	0.55765860275228663 0.019532726427256952 0.76866599831076121 1.0000000000000002 
	0.54624408684476722 0.044152977000486419 0.77149790900170301 1 
	0.53667786773890802 0.065824180987425346 0.77784600807861726 1.0000000000000002 
	0.52876600989888767 0.085648261628896369 0.78783776333402333 0.99999999999999978 
	0.52320308463635312 0.1024843555673014 0.80076511188845012 1.0000000000000002 
	0.52005543521963671 0.1161376780878607 0.81570177918249231 1 
	0.51936996327459439 0.12340729401107089 0.82645605818659573 0.99999999999999989 
	0.51939321881345168 0.12656412103730202 0.83207407997164706 1 
	0.001 
	torus 0.62699999999999989 0 0.47362565669176576 0 -1 0 0.44999999999999996 0.14749999999999999 0 0 -1 forward_v I I I I 
	cone 0.70689321881345168 0.60363100491053734 0.48698239789315401 0 -0.81024097020164854 0.5860968948959645 0.1875 0 0 1 I I 0 1 0.1875 forward I I I I 
	nullbs 
	nullbs 
	I I 
	0 
	0 
	0 
	} I I #
point $-1 0.51939321881345191 0.12656412103730186 0.83207407997164662 #
straight-curve $-1 0.89439321881345168 0.60363100491053734 0.48698239789315401 0 -0.81024097020164854 0.5860968948959645 I I #
coedge $-1 $143 $142 $209 $210 reversed $144 $-1 #
face $-1 $95 $144 $3 $-1 $211 reversed single #
coedge $-1 $212 $213 $146 $175 forward $214 $-1 #
edge $-1 $178 0 $176 3.1415926535897931 $146 $215 forward 7 unknown #
vertex $-1 $147 $216 #
ellipse-curve $-1 0.85439321881345165 0.45710678118654613 0.28442215534274184 1 0 0 0 0.25 5.5511151231257827e-017 1 I I #
vertex $-1 $210 $217 #
ellipse-curve $-1 0.55939321881345172 0.45710678118654613 0.28442215534274184 1 0 0 0 0.25 5.5511151231257827e-017 1 I I #
torus-surface $-1 0.70689321881345168 0.45710678118654613 0.28442215534274184 1 0 0 0.25 0.14749999999999999 0 -1 0 forward_v I I I I #
face $-1 $218 $214 $3 $-1 $219 reversed single #
loop $-1 $-1 $220 $150 #
cone-surface $-1 0.70689321881345168 0.60363100491053734 0.48698239789315401 0 -0.81024097020164854 0.58609689489596462 0.14749999999999999 0 0 1 I I 0 1 0.14749999999999999 forward I I I I #
coedge $-1 $186 $192 $221 $222 reversed $151 $-1 #
coedge $-1 $156 $153 $223 $224 reversed $127 $-1 #
coedge $-1 $192 $184 $153 $187 forward $151 $-1 #
edge $-1 $225 0 $194 0.57412087013163737 $186 $226 forward 7 unknown #
coedge $-1 $161 $154 $166 $205 forward $104 $-1 #
coedge $-1 $227 $228 $154 $190 reversed $229 $-1 #
edge $-1 $195 0 $230 0.079893218813447797 $154 $231 forward 7 unknown #
coedge $-1 $155 $232 $220 $233 forward $104 $-1 #
coedge $-1 $184 $186 $155 $193 forward $151 $-1 #
edge $-1 $194 0 $234 0.023648663277579043 $155 $235 forward 7 unknown #
vertex $-1 $193 $236 #
vertex $-1 $190 $237 #
straight-curve $-1 0.78699999999999981 -0.086449291997154676 0.80411511358702248 -1 -6.9296444581872049e-016 1.385928891637441e-015 I I #
coedge $-1 $158 $206 $160 $200 reversed $167 $-1 #
intcurve-curve $-1 forward { surfintcur full nurbs 3 open 11 
	0 3 0.098934409758651906 1 0.19864871857899513 1 0.29936829498386264 1 0.40123291215169277 1 
	0.5036685082923783 1 0.60521938431114819 1 0.70545588658686642 1 0.80455506575302382 1 0.90261778056305997 1 
	0.99999999999999989 3 
	0.51939321881345191 0.12656412103730186 0.83207407997164662 1 
	0.51935506194396996 0.13008239253451098 0.83813873327454169 1 
	0.52018446333632717 0.13630952304074859 0.85120978595004637 1 
	0.52402708176239721 0.14338924551900431 0.87368462357327048 0.99999999999999989 
	0.53100268484686053 0.1474936680145221 0.898990410950958 1.0000000000000002 
	0.54141611336424522 0.14785556221869556 0.92699600970177409 1 
	0.55457647250649689 0.14344365189195793 0.95576888971406704 1 
	0.56712131138139843 0.13523469479853187 0.9805227830498997 1 
	0.57741105280697114 0.12473949472433885 1.0009903084309808 0.99999999999999989 
	0.58490611038144957 0.11251603823527284 1.0180592595639586 1 
	0.58908700500832634 0.099516659635459595 1.0316708025706931 1.0000000000000002 
	0.58995481435268549 0.090488033052706418 1.0390903981216548 1 
	0.58989515066943798 0.085874100313867482 1.042341034574551 1 
	0.001 
	torus 0.62699999999999989 0 0.47362565669176576 0 -1 0 0.44999999999999996 0.14749999999999999 0 0 -1 forward_v I I I I 
	cone 0.70689321881345168 0.60363100491053734 0.48698239789315401 0 -0.81024097020164854 0.5860968948959645 0.1875 0 0 1 I I 0 1 0.1875 forward I I I I 
	nullbs 
	nullbs 
	I I 
	0 
	0 
	0 
	} I I #
coedge $-1 $238 $160 $239 $240 reversed $104 $-1 #
edge $-1 $163 4.7982300566954947e-016 $241 0.052940641089695276 $160 $242 forward 7 unknown #
point $-1 0.89439321881345168 0 0.92362565669176566 #
point $-1 0.58989515066943798 0.085874100313867482 1.042341034574551 #
ellipse-curve $-1 0.7068932188134518 -2.3835764626410025e-018 0.92362565669176566 -4.9343245538895807e-017 -0.81024097020164854 0.58609689489596462 -0.11392890624848895 -0.087280148330092497 -0.12065914813432133 1 I I #
coedge $-1 $243 $166 $228 $244 reversed $167 $-1 #
edge $-1 $230 0 $168 0.083042112409063798 $188 $245 forward 7 unknown #
coedge $-1 $197 $246 $247 $248 reversed $167 $-1 #
face $-1 $249 $167 $3 $-1 $250 reversed single #
point $-1 0.59296431256496285 -0.087280148330092566 0.80296650855744434 #
coedge $-1 $251 $252 $172 $210 forward $182 $-1 #
edge $-1 $176 0 $178 3.1415926535897931 $172 $253 forward 7 unknown #
torus-surface $-1 0.70689321881345168 0.45710678118654613 0.28442215534274184 1 0 0 0.25 0.14749999999999999 0 -1 0 forward_v I I I I #
coedge $-1 $254 $174 $252 $255 forward $214 $-1 #
coedge $-1 $174 $256 $251 $257 reversed $214 $-1 #
loop $-1 $-1 $258 $181 #
ellipse-curve $-1 0.70689321881345168 0.60363100491053734 0.48698239789315401 0 0.81024097020164854 -0.58609689489596462 -0.14749999999999996 0 0 1 I I #
point $-1 0.85439321881345165 0.60363100491053734 0.48698239789315395 #
point $-1 0.55939321881345172 0.60363100491053734 0.48698239789315401 #
face $-1 $259 $260 $3 $-1 $261 reversed single #
cone-surface $-1 0.70689321881345168 0.60363100491053734 0.48698239789315401 0 -0.81024097020164854 0.58609689489596462 0.14749999999999999 0 0 1 I I 0 1 0.14749999999999999 forward I I I I #
coedge $-1 $252 $221 $191 $233 reversed $182 $-1 #
coedge $-1 $220 $223 $184 $222 forward $182 $-1 #
edge $-1 $225 0 $234 0.08010678118654814 $221 $262 forward 7 unknown #
coedge $-1 $221 $263 $185 $224 forward $182 $-1 #
edge $-1 $195 0 $225 1 $223 $264 forward 7 unknown #
vertex $-1 $222 $265 #
ellipse-curve $-1 0.78699999999999981 0 0.92362565669176566 -1 0 0 0 -0.0076830877734055418 -0.14729976294029179 1 I I #
coedge $-1 $228 $189 $263 $266 reversed $229 $-1 #
coedge $-1 $189 $227 $204 $244 forward $229 $-1 #
loop $-1 $-1 $227 $249 #
vertex $-1 $205 $267 #
straight-curve $-1 0.70689321881345168 -0.086449291997154731 0.80411511358702259 -1 -6.9481680742989502e-016 -1.38963361485979e-015 I I #
coedge $-1 $191 $268 $254 $269 forward $104 $-1 #
edge $-1 $270 -6.0986317329660479e-016 $234 0.99667545666325585 $191 $271 forward 7 unknown #
vertex $-1 $193 $272 #
straight-curve $-1 0.78699999999999981 -0.086449291997154773 0.80411511358702248 0 0.58609689489596495 0.81024097020164831 I I #
point $-1 0.78699999999999981 -0.086449291997154773 0.80411511358702248 #
point $-1 0.70689321881345168 -0.086449291997154731 0.80411511358702259 #
coedge $-1 $268 $199 $273 $274 reversed $104 $-1 #
coedge $-1 $247 $275 $199 $240 forward $276 $-1 #
edge $-1 $277 0 $241 0.079893218813466449 $199 $278 forward 7 unknown #
vertex $-1 $240 $279 #
ellipse-curve $-1 0.62698086575171286 -0.32452387679759764 0.47499243054788798 -3.5281103358055113e-018 0.81024097020164854 -0.5860968948959645 -0.037085715082275206 0.41039797711146497 0.56734860402666298 1 I I #
coedge $-1 $246 $204 $280 $281 reversed $167 $-1 #
edge $-1 $282 0 $230 0.57239748527650902 $228 $283 forward 7 unknown #
ellipse-curve $-1 0.62704331216825371 -0.3269446659407298 0.47164584645732877 0 -0.81024097020164854 0.58609689489596462 -4.3312168249820537e-005 0.24049537394357501 0.33246926712969371 1 I I #
coedge $-1 $206 $243 $256 $284 reversed $167 $-1 #
coedge $-1 $275 $239 $206 $248 forward $276 $-1 #
edge $-1 $241 -1.3554863127426218e-015 $285 0.5723974852765169 $247 $286 forward 7 unknown #
face $-1 $149 $229 $3 $-1 $287 reversed single #
torus-surface $-1 0.62699999999999989 0 0.47362565669176576 0 -1 0 0.44999999999999996 0.14749999999999999 0 0 -1 forward_v I I I I #
coedge $-1 $280 $209 $213 $257 forward $182 $-1 #
coedge $-1 $209 $220 $212 $255 reversed $182 $-1 #
ellipse-curve $-1 0.70689321881345168 0.60363100491053734 0.48698239789315401 -2.2057568385586793e-016 0.81024097020164854 -0.58609689489596462 0.14749999999999996 0 -5.5511151231257827e-017 1 I I #
coedge $-1 $288 $212 $232 $269 reversed $214 $-1 #
edge $-1 $176 -3.2534913368740528e-017 $270 0.7450018292216315 $252 $289 forward 7 unknown #
coedge $-1 $213 $290 $246 $284 forward $214 $-1 #
edge $-1 $178 0 $291 0.59391542735920755 $251 $292 forward 7 unknown #
coedge $-1 $290 $288 $293 $294 forward $214 $-1 #
face $-1 $295 $296 $3 $-1 $297 forward single #
loop $-1 $-1 $293 $218 #
cone-surface $-1 0.78699999999999981 0 0.92362565669176566 -1 0 0 0 -0.14749999999999999 0 1 I I 0 1 0.14749999999999999 forward I I I I #
straight-curve $-1 0.78699999999999981 -0.0076830877734055418 0.77632589375147387 0 -0.81024097020164787 0.58609689489596539 I I #
coedge $-1 $223 $280 $227 $266 forward $182 $-1 #
intcurve-curve $-1 forward { surfintcur full nurbs 3 open 4 
	0 3 0.33734784984711341 1 0.67228336901117614 1 1 3 
	0.70689321881345168 -0.086449291997154787 0.80411511358702259 1 
	0.71665624659718763 -0.078526297947717899 0.79841043671987788 0.99999999999999978 
	0.73561488438589773 -0.062098068652600896 0.78877412334725261 1 
	0.76337287240777141 -0.034650389030771049 0.7793580122854854 1.0000000000000002 
	0.77944947400236619 -0.016689963662458274 0.77675719809893495 0.99999999999999989 
	0.7869999999999997 -0.0076830877734056502 0.77632589375147409 1 
	0.001 
	cone 0.70689321881345168 0.60363100491053734 0.48698239789315401 0 -0.81024097020164854 0.58609689489596462 0.14749999999999999 0 0 1 I I 0 1 0.14749999999999999 forward I I I I 
	cone 0.78699999999999981 0 0.92362565669176566 -1 0 0 0 -0.14749999999999999 0 1 I I 0 1 0.14749999999999999 forward I I I I 
	nullbs 
	nullbs 
	F 8.144354015257903e-006 I 
	0 
	1 8.144354015257903e-006 
	0 
	} I I #
point $-1 0.78699999999999981 -0.0076830877734055418 0.77632589375147387 #
edge $-1 $282 0 $195 1 $263 $298 forward 7 unknown #
point $-1 0.62700000000000389 -0.086449291997154773 0.80411511358702248 #
coedge $-1 $232 $238 $299 $300 reversed $104 $-1 #
edge $-1 $301 -9.5681386781830277e-016 $270 0.99667545666326485 $232 $302 forward 7 unknown #
vertex $-1 $233 $303 #
ellipse-curve $-1 0.70689321881345113 9.3243039411526831e-017 0.92362565669176577 7.1047484609254144e-017 0.81024097020164854 -0.58609689489596473 0.14750000000000052 -9.3243039411526831e-017 -1.1102230246251565e-016 1 I I #
point $-1 0.78699999999999981 -0.072588883881725463 0.82327622946502022 #
coedge $-1 $293 $304 $238 $274 forward $260 $-1 #
edge $-1 $305 2.4042033843579853e-032 $277 0.080106781186548126 $238 $306 forward 7 unknown #
coedge $-1 $239 $247 $290 $307 reversed $276 $-1 #
loop $-1 $-1 $247 $295 #
vertex $-1 $274 $308 #
straight-curve $-1 0.70689321881345168 0.086449291997154717 1.0431361997965087 -1 -3.474084037148664e-016 0 I I #
point $-1 0.62699999999998524 0.086449291997154676 1.0431361997965087 #
coedge $-1 $263 $251 $243 $281 forward $182 $-1 #
edge $-1 $291 0 $282 1 $280 $309 forward 7 unknown #
vertex $-1 $266 $310 #
ellipse-curve $-1 0.62699999999999989 -1.1449174941446927e-016 0.92362565669176566 -1 0 0 0 -0.0079369304187654095 -0.14728630328556569 1 I I #
edge $-1 $285 0 $291 1 $256 $311 forward 7 unknown #
vertex $-1 $284 $312 #
ellipse-curve $-1 0.62699999999999989 1.9359513991901167e-015 0.92362565669176711 -1 0 0 0 0.086449291997152983 0.11951054310474163 1 I I #
cone-surface $-1 0.78699999999999981 0 0.92362565669176566 -1 0 0 0 -0.14749999999999999 0 1 I I 0 1 0.14749999999999999 forward I I I I #
coedge $-1 $258 $254 $313 $314 reversed $214 $-1 #
straight-curve $-1 0.85439321881345165 0.60363100491053734 0.48698239789315401 0 -0.81024097020164842 0.58609689489596462 I I #
coedge $-1 $256 $258 $275 $307 forward $214 $-1 #
vertex $-1 $281 $315 #
straight-curve $-1 0.55939321881345172 0.60363100491053734 0.48698239789315401 0 -0.81024097020164831 0.58609689489596473 I I #
coedge $-1 $304 $273 $258 $294 reversed $260 $-1 #
edge $-1 $316 0 $277 1 $258 $317 forward 7 unknown #
face $-1 $207 $276 $3 $-1 $318 reversed single #
loop $-1 $-1 $319 $259 #
plane-surface $-1 0.78699999999999981 0 0.92362565669176566 -1 0 0 0 -1 0 forward_v I I I I #
intcurve-curve $-1 forward { surfintcur full nurbs 3 open 4 
	0 3 0.32771395107068768 1 0.66265968849733647 1 1 3 
	0.62699999999999834 -0.0079369304187636436 0.77633935340619975 1 
	0.63453270135586193 -0.016912073544109615 0.77678411379403778 1 
	0.6505698604070892 -0.034811274786378577 0.77940226939974033 1 
	0.67825627373586794 -0.06217326934326671 0.78881471358839705 1.0000000000000002 
	0.69715989966956082 -0.078550551831693766 0.79842759625347826 0.99999999999999989 
	0.70689321881345168 -0.086449291997154787 0.80411511358702259 1 
	0.001 
	cone 0.70689321881345168 0.60363100491053734 0.48698239789315401 0 -0.81024097020164854 0.58609689489596462 0.14749999999999999 0 0 1 I I 0 1 0.14749999999999999 forward I I I I 
	cone 0.78699999999999981 0 0.92362565669176566 -1 0 0 0 -0.14749999999999999 0 1 I I 0 1 0.14749999999999999 forward I I I I 
	nullbs 
	nullbs 
	I F 0.99999183096960498 
	0 
	1 0.99999183096960498 
	0 
	} I I #
coedge $-1 $319 $313 $268 $300 forward $296 $-1 #
edge $-1 $301 2.6124691954435046e-016 $305 0.023648663277579109 $268 $320 forward 7 unknown #
vertex $-1 $269 $321 #
ellipse-curve $-1 0.70689321881345268 2.392083183696835e-016 0.92362565669176599 -2.3920346695457614e-016 0.81024097020164831 -0.58609689489596495 0.080106781186547127 0.072588883881725172 0.10034942722674489 1 I I #
point $-1 0.85439321881345165 0 0.92362565669176577 #
coedge $-1 $273 $293 $319 $322 reversed $260 $-1 #
vertex $-1 $300 $323 #
straight-curve $-1 0.78699999999999981 0.086449291997154745 1.0431361997965087 -1 -3.4648222290936024e-016 0 I I #
edge $-1 $277 0 $285 1 $290 $324 forward 7 unknown #
point $-1 0.70689321881345168 0.086449291997154717 1.0431361997965087 #
intcurve-curve $-1 forward { surfintcur full nurbs 3 open 8 
	0 3 0.13845488838335518 1 0.27799283986928008 1 0.41896314673564838 1 0.56147601748015485 1 
	0.70545527873299663 1 0.85158515124918699 1 1 3 
	0.55939321881345172 0.12241639282928624 0.83507438569919556 1 
	0.55935332763281265 0.11921911800684362 0.83012972233512428 1.0000000000000002 
	0.56010926964568797 0.11190138504652983 0.82057452406875753 0.99999999999999978 
	0.56362022694483582 0.098238808486310239 0.80699852677580586 1 
	0.57006367090394461 0.081504700891764481 0.79505633997739189 1 
	0.57959160312695135 0.061953403026759495 0.78560587291820072 1.0000000000000002 
	0.59183750080112141 0.040644089691552587 0.77926686692618907 0.99999999999999989 
	0.60735087483364325 0.01693514381806116 0.77595657872892421 1.0000000000000002 
	0.62004186535175554 0.00053113277373940265 0.7758529673633795 0.99999999999999989 
	0.62699999999999834 -0.0079369304187636436 0.77633935340619975 1 
	0.001 
	cone 0.70689321881345168 0.60363100491053734 0.48698239789315401 0 -0.81024097020164854 0.58609689489596462 0.14749999999999999 0 0 1 I I 0 1 0.14749999999999999 forward I I I I 
	torus 0.62699999999999989 0 0.47362565669176576 0 -1 0 0.44999999999999996 0.14749999999999999 0 0 -1 forward_v I I I I 
	nullbs 
	nullbs 
	I I 
	0 
	0 
	0 
	} I I #
point $-1 0.62699999999999989 -0.007936930418765524 0.77633935340619997 #
intcurve-curve $-1 forward { surfintcur full nurbs 3 open 8 
	0 3 0.14818546409992306 1 0.29454895437988815 1 0.43891101622693318 1 0.58134480153338852 1 
	0.72208690429967437 1 0.86149349485581106 1 1 3 
	0.62699999999999989 0.13740244866665322 0.97726162503771552 1 
	0.62010057876866709 0.14031055734603612 0.96961912343444678 0.99999999999999989 
	0.60740091822753073 0.14485267214212996 0.95433971982768384 1.0000000000000002 
	0.59124096876846766 0.14778755609089816 0.93089171880231603 0.99999999999999978 
	0.57869067669800134 0.14743562525845932 0.90831591460704275 1 
	0.56953740583663937 0.14430505529716037 0.8871557142226284 0.99999999999999989 
	0.56346930383000715 0.13890524975495933 0.86780657864766675 1.0000000000000002 
	0.56010523624956421 0.13161434186687032 0.85038139255612166 1 
	0.55936832300884498 0.12566861730119164 0.83997404695508526 0.99999999999999989 
	0.55939321881345139 0.1224163928292865 0.83507438569919579 1 
	0.001 
	cone 0.70689321881345168 0.60363100491053734 0.48698239789315401 0 -0.81024097020164854 0.58609689489596462 0.14749999999999999 0 0 1 I I 0 1 0.14749999999999999 forward I I I I 
	torus 0.62699999999999989 0 0.47362565669176576 0 -1 0 0.44999999999999996 0.14749999999999999 0 0 -1 forward_v I I I I 
	nullbs 
	nullbs 
	I I 
	0 
	0 
	0 
	} I I #
point $-1 0.62699999999999989 0.13740244866665322 0.97726162503771552 #
coedge $-1 $299 $319 $288 $314 forward $296 $-1 #
edge $-1 $316 0 $301 0.080106781186547876 $288 $325 forward 7 unknown #
point $-1 0.55939321881345139 0.1224163928292865 0.83507438569919579 #
vertex $-1 $314 $326 #
intcurve-curve $-1 forward { surfintcur full nurbs 3 open 4 
	0 3 0.3278328774153545 1 0.6627494330808541 1 1 3 
	0.78699999999999981 0.13749467999004528 0.97702474820496499 1 
	0.77943219508338757 0.13425709629980276 0.98546120642438406 1 
	0.76333325596248758 0.12615331850124747 1.0017263093759905 1 
	0.73558287712895742 0.10861730077845418 1.0248316677873259 1 
	0.71664221386834981 0.094336466167718999 1.0374059469457644 0.99999999999999989 
	0.70689321881345168 0.086449291997154676 1.043136199796509 1 
	0.001 
	cone 0.70689321881345168 0.60363100491053734 0.48698239789315401 0 -0.81024097020164854 0.58609689489596462 0.14749999999999999 0 0 1 I I 0 1 0.14749999999999999 forward I I I I 
	cone 0.78699999999999981 0 0.92362565669176566 -1 0 0 0 -0.14749999999999999 0 1 I I 0 1 0.14749999999999999 forward I I I I 
	nullbs 
	nullbs 
	I F 0.99999184627391213 
	0 
	1 0.99999184627391213 
	0 
	} I I #
cone-surface $-1 0.78699999999999981 0 0.92362565669176566 -1 0 0 0 -0.14749999999999999 0 1 I I 0 1 0.14749999999999999 forward I I I I #
coedge $-1 $313 $299 $304 $322 forward $296 $-1 #
straight-curve $-1 0.78699999999999981 0.072588883881725408 1.0239750839185109 0 0.58609689489596151 0.81024097020165076 I I #
point $-1 0.78699999999999981 0.072588883881725547 1.0239750839185111 #
edge $-1 $305 -1.1162828457880067e-015 $316 0.57412087013163471 $319 $327 forward 7 unknown #
point $-1 0.78699999999999981 0.086449291997154676 1.0431361997965087 #
intcurve-curve $-1 forward { surfintcur full nurbs 3 open 4 
	0 3 0.33725443450398918 1 0.6721821443187046 1 1 3 
	0.70689321881345168 0.086449291997154676 1.043136199796509 1 
	0.69717219978556788 0.094313880242477291 1.0374224561358278 0.99999999999999978 
	0.67828436876643128 0.10855808556761944 1.0248876818677508 1 
	0.65060524689844401 0.12606316171642018 1.0018611275500982 1 
	0.63454814799773629 0.13416294568211043 0.98566189127260784 1.0000000000000002 
	0.626999999999999 0.13740244866665352 0.97726162503771485 1 
	0.001 
	cone 0.70689321881345168 0.60363100491053734 0.48698239789315401 0 -0.81024097020164854 0.58609689489596462 0.14749999999999999 0 0 1 I I 0 1 0.14749999999999999 forward I I I I 
	cone 0.78699999999999981 0 0.92362565669176566 -1 0 0 0 -0.14749999999999999 0 1 I I 0 1 0.14749999999999999 forward I I I I 
	nullbs 
	nullbs 
	F 8.177285463915723e-006 I 
	0 
	1 8.177285463915723e-006 
	0 
	} I I #
straight-curve $-1 0.78699999999999981 0.1374946799900453 0.97702474820496499 0 -0.81024097020164909 0.58609689489596384 I I #
point $-1 0.78699999999999981 0.1374946799900453 0.97702474820496499 #
ellipse-curve $-1 0.78699999999999981 0 0.92362565669176566 -1 0 0 0 0.086449291997154884 0.11951054310474307 1 I I #
End-of-ACIS-data 