700 0 2 0           
24 FBMach with ACIS - 7.0.3 13 ACIS 7.0.3 NT 24 Wed May 15 15:04:14 2002 
1 9.9999999999999995e-007 1e-010 
body $2 -1 $-1 $3 $-1 $4 #
bdycol-kcp $-1 -1 1 3 $5 $6 $7 #
model_id-kcp-attrib $-1 -1 $-1 $-1 $0 1 1021489453 1021489453 -1202782207 1 #
lump $-1 -1 $-1 $-1 $8 $0 #
transform $-1 -1 1 0 0 0 1 0 0 0 1 0 0 0 1 rotate no_reflect no_shear #
body $9 -1 $-1 $10 $-1 $11 #
body $12 -1 $-1 $13 $-1 $14 #
body $15 -1 $-1 $16 $-1 $17 #
shell $-1 -1 $-1 $-1 $-1 $18 $-1 $3 #
model_id-kcp-attrib $-1 -1 $-1 $-1 $5 1 1021489453 1021489453 -1202782206 1 #
lump $-1 -1 $-1 $-1 $19 $5 #
transform $-1 -1 1 0 0 0 1 0 0 0 1 -1.2699999999999998 6.3499999999999996 -6.6613381477509392e-016 1 no_rotate no_reflect no_shear #
rgb_color-st-attrib $-1 -1 $20 $-1 $6 0.5 1 1 #
lump $-1 -1 $-1 $-1 $21 $6 #
transform $-1 -1 1 0 0 0 1 0 0 0 1 0 0 0 1 no_rotate no_reflect no_shear #
rgb_color-st-attrib $-1 -1 $22 $-1 $7 0.5 1 1 #
lump $-1 -1 $-1 $-1 $23 $7 #
transform $-1 -1 1 0 0 0 1 0 0 0 1 -1.2699999999999998 6.3499999999999996 -6.6613381477509392e-016 1 no_rotate no_reflect no_shear #
face $24 -1 $-1 $25 $26 $8 $-1 $27 reversed single #
shell $-1 -1 $-1 $-1 $-1 $28 $-1 $10 #
model_id-kcp-attrib $-1 -1 $-1 $12 $6 1 1021489453 1021489453 -1202520060 1 #
shell $-1 -1 $-1 $-1 $-1 $29 $-1 $13 #
model_id-kcp-attrib $-1 -1 $-1 $15 $7 1 1021489453 1021489453 -1192296445 1 #
shell $-1 -1 $-1 $-1 $-1 $30 $-1 $16 #
model_id-kcp-attrib $-1 -1 $-1 $-1 $18 1 1021489453 1021489453 -1202782207 2 #
face $31 -1 $-1 $32 $33 $8 $-1 $34 forward single #
loop $-1 -1 $-1 $35 $36 $18 #
plane-surface $-1 -1 $-1 0 0 0 0 1 0 25.399999999999999 0 0 forward_v I I I I #
face $37 -1 $-1 $38 $39 $19 $-1 $40 forward single #
face $-1 -1 $-1 $41 $42 $21 $-1 $43 forward single #
face $-1 -1 $-1 $44 $45 $23 $-1 $46 reversed single #
model_id-kcp-attrib $-1 -1 $-1 $-1 $25 1 1021489453 1021489453 -1202782207 3 #
face $47 -1 $-1 $48 $49 $8 $-1 $50 forward single #
loop $-1 -1 $-1 $-1 $51 $25 #
plane-surface $-1 -1 $-1 -3.8099999999999996 0 -2.5399999999999996 0 0 -1 -25.399999999999999 0 0 forward_v I I I I #
loop $-1 -1 $-1 $-1 $52 $18 #
coedge $-1 -1 $-1 $53 $54 $55 $56 reversed $26 $-1 #
model_id-kcp-attrib $-1 -1 $-1 $-1 $28 1 1021489453 1021489453 -1202782206 5 #
face $57 -1 $-1 $58 $59 $19 $-1 $60 reversed single #
loop $-1 -1 $-1 $-1 $61 $28 #
plane-surface $-1 -1 $-1 0 0 2.54 0 0 1 1 0 0 forward_v I I I I #
face $-1 -1 $-1 $62 $63 $21 $-1 $64 forward single #
loop $-1 -1 $-1 $65 $66 $29 #
cone-surface $-1 -1 $-1 0 0 -4.4061976289810898e-017 0 1 0 -1.5874999999999999 0 4.4061976289810898e-017 1 I I 0 1 1.5874999999999999 forward I I I I #
face $-1 -1 $-1 $67 $68 $23 $-1 $46 reversed single #
loop $-1 -1 $-1 $-1 $69 $30 #
cone-surface $-1 -1 $-1 1.2699999999999996 -6.3499999999999996 -4.3513166749012872e-016 0 -1 0 -1.9957142857142862 0 1.5712175182946235 1 I I 0 1 2.54 forward I I I I #
model_id-kcp-attrib $-1 -1 $-1 $-1 $32 1 1021489453 1021489453 -1202782207 4 #
face $70 -1 $-1 $71 $72 $8 $-1 $73 forward single #
loop $-1 -1 $-1 $-1 $74 $32 #
plane-surface $-1 -1 $-1 -5.0799999999999992 0 -2.5399999999999996 -1 0 0 0 0 25.399999999999999 forward_v I I I I #
coedge $-1 -1 $-1 $75 $55 $76 $77 forward $33 $-1 #
coedge $-1 -1 $-1 $78 $78 $79 $80 reversed $35 $-1 #
coedge $-1 -1 $-1 $81 $36 $82 $83 reversed $26 $-1 #
coedge $-1 -1 $-1 $36 $84 $85 $86 reversed $26 $-1 #
coedge $-1 -1 $-1 $51 $87 $36 $56 forward $33 $-1 #
edge $88 -1 $-1 $89 0 $90 0.049999999999999989 $36 $91 forward @7 unknown #
model_id-kcp-attrib $-1 -1 $-1 $-1 $38 1 1021489453 1021489453 -1202782206 3 #
face $92 -1 $-1 $93 $94 $19 $-1 $95 reversed single #
loop $-1 -1 $-1 $-1 $96 $38 #
plane-surface $-1 -1 $-1 0 0 -2.54 0 0 1 1 0 0 forward_v I I I I #
coedge $-1 -1 $-1 $97 $98 $99 $100 forward $39 $-1 #
face $-1 -1 $-1 $-1 $101 $21 $-1 $102 reversed single #
loop $-1 -1 $-1 $-1 $103 $41 #
plane-surface $-1 -1 $-1 0 12.699999999999999 0 0 1 0 0 0 1 forward_v I I I I #
loop $-1 -1 $-1 $-1 $104 $29 #
coedge $-1 -1 $-1 $66 $66 $103 $105 forward $42 $-1 #
face $-1 -1 $-1 $106 $107 $23 $-1 $46 reversed single #
loop $-1 -1 $-1 $-1 $108 $44 #
coedge $-1 -1 $-1 $109 $110 $111 $112 reversed $45 $-1 #
model_id-kcp-attrib $-1 -1 $-1 $-1 $48 1 1021489453 1021489453 -1202782207 5 #
face $113 -1 $-1 $114 $115 $8 $-1 $116 forward single #
loop $-1 -1 $-1 $-1 $117 $48 #
plane-surface $-1 -1 $-1 -5.0799999999999992 0 2.5399999999999996 0 0 1 25.399999999999999 0 0 forward_v I I I I #
coedge $-1 -1 $-1 $118 $85 $119 $120 forward $49 $-1 #
coedge $-1 -1 $-1 $87 $51 $121 $122 reversed $33 $-1 #
coedge $-1 -1 $-1 $85 $118 $51 $77 reversed $49 $-1 #
edge $123 -1 $-1 $90 0 $124 0.5 $76 $125 forward @7 unknown #
coedge $-1 -1 $-1 $52 $52 $126 $127 reversed $35 $-1 #
coedge $-1 -1 $-1 $128 $129 $52 $80 forward $130 $-1 #
edge $131 -1 $-1 $132 0 $133 3.1415926535897931 $52 $134 forward @7 unknown #
coedge $-1 -1 $-1 $135 $53 $136 $137 reversed $26 $-1 #
coedge $-1 -1 $-1 $138 $139 $53 $83 forward $140 $-1 #
edge $141 -1 $-1 $142 0 $89 0.013397459621556106 $53 $143 forward @7 unknown #
coedge $-1 -1 $-1 $54 $144 $145 $146 reversed $26 $-1 #
coedge $-1 -1 $-1 $74 $76 $54 $86 forward $49 $-1 #
edge $147 -1 $-1 $90 0 $148 0.19999999999999998 $54 $149 forward @7 unknown #
coedge $-1 -1 $-1 $55 $75 $138 $150 reversed $33 $-1 #
attrib_edge_convexity-kcp-attrib $-1 -1 $151 $-1 $56 1 #
vertex $-1 -1 $-1 $83 $152 #
vertex $-1 -1 $-1 $86 $153 #
straight-curve $-1 -1 $-1 -3.8099999999999996 0 -2.5399999999999996 -25.399999999999999 0 0 I I #
model_id-kcp-attrib $-1 -1 $-1 $-1 $58 1 1021489453 1021489453 -1202782206 2 #
face $154 -1 $-1 $155 $156 $19 $-1 $157 reversed single #
loop $-1 -1 $-1 $-1 $158 $58 #
plane-surface $-1 -1 $-1 0 -6.3499999999999996 0 0 1 0 0 0 1 forward_v I I I I #
coedge $-1 -1 $-1 $159 $160 $161 $162 forward $59 $-1 #
coedge $-1 -1 $-1 $163 $61 $164 $165 forward $39 $-1 #
coedge $-1 -1 $-1 $61 $163 $166 $167 forward $39 $-1 #
coedge $-1 -1 $-1 $168 $169 $61 $100 reversed $170 $-1 #
edge $-1 -1 $-1 $171 -6.3499999999999996 $172 6.3499999999999996 $99 $173 forward @7 unknown #
loop $-1 -1 $-1 $-1 $174 $62 #
plane-surface $-1 -1 $-1 0 0 0 0 1 0 0 0 1 forward_v I I I I #
coedge $-1 -1 $-1 $103 $103 $66 $105 reversed $63 $-1 #
coedge $-1 -1 $-1 $104 $104 $174 $175 reversed $65 $-1 #
edge $-1 -1 $-1 $176 -3.1415926535897931 $176 3.1415926535897931 $66 $177 forward @7 unknown #
face $-1 -1 $-1 $178 $179 $23 $-1 $180 reversed single #
loop $-1 -1 $-1 $-1 $181 $67 #
coedge $-1 -1 $-1 $182 $183 $184 $185 reversed $68 $-1 #
coedge $-1 -1 $-1 $186 $69 $187 $188 forward $45 $-1 #
coedge $-1 -1 $-1 $69 $186 $189 $190 forward $45 $-1 #
coedge $-1 -1 $-1 $191 $192 $69 $112 forward $193 $-1 #
edge $-1 -1 $-1 $194 -0.90384998229123281 $195 1.3766793038938017e-016 $111 $196 forward @7 unknown #
model_id-kcp-attrib $-1 -1 $-1 $-1 $71 1 1021489453 1021489453 -1202782207 6 #
face $197 -1 $-1 $198 $199 $8 $-1 $200 reversed single #
loop $-1 -1 $-1 $-1 $201 $71 #
plane-surface $-1 -1 $-1 -3.8099999999999996 0 2.5399999999999996 1 0 0 0 0 -25.399999999999999 forward_v I I I I #
coedge $-1 -1 $-1 $202 $145 $203 $204 forward $72 $-1 #
coedge $-1 -1 $-1 $76 $74 $205 $206 reversed $49 $-1 #
coedge $-1 -1 $-1 $145 $202 $74 $120 reversed $72 $-1 #
edge $207 -1 $-1 $148 0 $208 0.5 $74 $209 forward @7 unknown #
coedge $-1 -1 $-1 $205 $210 $75 $122 forward $211 $-1 #
edge $212 -1 $-1 $213 0 $124 0.049999999999999989 $121 $214 forward @7 unknown #
attrib_edge_convexity-kcp-attrib $-1 -1 $215 $-1 $77 1 #
vertex $-1 -1 $-1 $206 $216 #
straight-curve $-1 -1 $-1 -5.0799999999999992 0 -2.5399999999999996 0 25.399999999999999 0 I I #
coedge $-1 -1 $-1 $217 $218 $78 $127 forward $219 $-1 #
edge $220 -1 $-1 $133 0 $132 3.1415926535897931 $78 $221 forward @7 unknown #
coedge $-1 -1 $-1 $222 $79 $218 $223 reversed $130 $-1 #
coedge $-1 -1 $-1 $79 $222 $217 $224 forward $130 $-1 #
loop $-1 -1 $-1 $-1 $128 $225 #
attrib_edge_convexity-kcp-attrib $-1 -1 $226 $-1 $80 1 #
vertex $-1 -1 $-1 $127 $227 #
vertex $-1 -1 $-1 $127 $228 #
ellipse-curve $-1 -1 $-1 0 0 -4.4061976289810898e-017 0 -1 0 -1.5874999999999999 0 4.4061976289810898e-017 1 I I #
coedge $-1 -1 $-1 $229 $81 $230 $231 reversed $26 $-1 #
coedge $-1 -1 $-1 $232 $233 $81 $137 forward $234 $-1 #
edge $235 -1 $-1 $236 -2.1510614123340699e-016 $142 2.4746463090861162 $81 $237 forward @7 unknown #
coedge $-1 -1 $-1 $238 $82 $87 $150 forward $140 $-1 #
coedge $-1 -1 $-1 $82 $238 $232 $239 reversed $140 $-1 #
loop $-1 -1 $-1 $-1 $138 $240 #
attrib_edge_convexity-kcp-attrib $-1 -1 $241 $-1 $83 1 #
vertex $-1 -1 $-1 $137 $242 #
straight-curve $-1 -1 $-1 -3.8099999999999996 0 -2.1997045256124745 0 0 -25.399999999999999 I I #
coedge $-1 -1 $-1 $84 $229 $243 $244 reversed $26 $-1 #
coedge $-1 -1 $-1 $117 $119 $84 $146 forward $72 $-1 #
edge $245 -1 $-1 $148 0 $246 0.049999999999999989 $84 $247 forward @7 unknown #
attrib_edge_convexity-kcp-attrib $-1 -1 $248 $-1 $86 1 #
vertex $-1 -1 $-1 $86 $249 #
straight-curve $-1 -1 $-1 -5.0799999999999992 0 -2.5399999999999996 0 0 25.399999999999999 I I #
edge $250 -1 $-1 $89 0 $213 0.5 $138 $251 forward @7 unknown #
convexity-sys-attrib $-1 -1 $-1 $88 $56 #
point $-1 -1 $-1 -3.8099999999999996 0 -2.5399999999999996 #
point $-1 -1 $-1 -5.0799999999999992 0 -2.5399999999999996 #
model_id-kcp-attrib $-1 -1 $-1 $-1 $93 1 1021489453 1021489453 -1202782206 4 #
face $252 -1 $-1 $253 $254 $19 $-1 $255 reversed single #
loop $-1 -1 $-1 $-1 $256 $93 #
plane-surface $-1 -1 $-1 -3.8099999999999996 0 0 1 0 0 0 0 -1 forward_v I I I I #
coedge $-1 -1 $-1 $257 $166 $258 $259 forward $94 $-1 #
coedge $-1 -1 $-1 $260 $96 $257 $261 forward $59 $-1 #
coedge $-1 -1 $-1 $96 $260 $262 $263 forward $59 $-1 #
coedge $-1 -1 $-1 $169 $168 $96 $162 reversed $170 $-1 #
edge $-1 -1 $-1 $264 -6.3499999999999996 $265 6.3499999999999996 $161 $266 forward @7 unknown #
coedge $-1 -1 $-1 $98 $97 $267 $268 forward $39 $-1 #
coedge $-1 -1 $-1 $269 $270 $97 $165 reversed $254 $-1 #
edge $-1 -1 $-1 $172 -3.8099999999999996 $271 3.8099999999999996 $164 $272 forward @7 unknown #
coedge $-1 -1 $-1 $158 $273 $98 $167 reversed $94 $-1 #
edge $-1 -1 $-1 $274 -3.8099999999999996 $171 3.8099999999999996 $166 $275 forward @7 unknown #
coedge $-1 -1 $-1 $161 $99 $273 $276 forward $170 $-1 #
coedge $-1 -1 $-1 $99 $161 $269 $277 reversed $170 $-1 #
loop $-1 -1 $-1 $-1 $168 $253 #
vertex $-1 -1 $-1 $100 $278 #
vertex $-1 -1 $-1 $100 $279 #
straight-curve $-1 -1 $-1 3.8099999999999996 0 2.54 0 1 0 I I #
coedge $-1 -1 $-1 $174 $174 $104 $175 forward $101 $-1 #
edge $-1 -1 $-1 $280 -3.1415926535897931 $280 3.1415926535897931 $104 $281 forward @7 unknown #
vertex $-1 -1 $-1 $105 $282 #
ellipse-curve $-1 -1 $-1 8.8123952579621795e-017 12.699999999999999 0 0 -1 0 1.5874999999999999 0 0 1 I I #
face $-1 -1 $-1 $283 $284 $23 $-1 $285 reversed single #
loop $-1 -1 $-1 $-1 $286 $106 #
plane-surface $-1 -1 $-1 -2.5399999999999991 -6.3499999999999996 -2.1997045256124732 1 0 0 0 1 0 forward_v I I I I #
coedge $-1 -1 $-1 $287 $187 $288 $289 reversed $107 $-1 #
coedge $-1 -1 $-1 $290 $108 $291 $292 reversed $68 $-1 #
coedge $-1 -1 $-1 $108 $290 $293 $294 forward $68 $-1 #
coedge $-1 -1 $-1 $295 $296 $108 $185 forward $297 $-1 #
edge $-1 -1 $-1 $298 -2.2377426712985606 $299 -1.3338926890073279 $184 $300 forward @7 unknown #
coedge $-1 -1 $-1 $110 $109 $301 $302 reversed $45 $-1 #
coedge $-1 -1 $-1 $181 $303 $304 $188 reversed $107 $-1 #
edge $-1 -1 $-1 $194 -12.699999999999999 $305 0 $304 $306 forward @7 unknown #
coedge $-1 -1 $-1 $307 $308 $110 $190 reversed $309 $-1 #
edge $-1 -1 $-1 $310 0 $195 12.699999999999999 $189 $311 forward @7 unknown #
coedge $-1 -1 $-1 $312 $111 $308 $313 forward $193 $-1 #
coedge $-1 -1 $-1 $111 $312 $314 $315 reversed $193 $-1 #
loop $-1 -1 $-1 $-1 $312 $316 #
vertex $-1 -1 $-1 $315 $317 #
vertex $-1 -1 $-1 $313 $318 #
ellipse-curve $-1 -1 $-1 1.2699999999999996 6.3499999999999996 -4.3513166749012872e-016 0 -1 0 -1.9957142857142862 0 1.5712175182946235 1 I I #
model_id-kcp-attrib $-1 -1 $-1 $-1 $114 1 1021489453 1021489453 -1202782207 7 #
face $319 -1 $-1 $320 $321 $8 $-1 $322 forward single #
loop $-1 -1 $-1 $-1 $323 $114 #
cone-surface $-1 -1 $-1 -2.7939999999999996 0 2.1997045256124745 0 1 0 1.016 0 0 1 I I 0 1 1.016 forward I I I I #
coedge $-1 -1 $-1 $324 $243 $325 $326 forward $115 $-1 #
coedge $-1 -1 $-1 $119 $117 $327 $328 reversed $72 $-1 #
coedge $-1 -1 $-1 $243 $324 $117 $204 reversed $115 $-1 #
edge $-1 -1 $-1 $246 0 $329 0.5 $117 $330 forward @7 unknown #
coedge $-1 -1 $-1 $327 $121 $118 $206 forward $211 $-1 #
edge $331 -1 $-1 $124 0 $208 0.19999999999999998 $205 $332 forward @7 unknown #
attrib_edge_convexity-kcp-attrib $-1 -1 $333 $-1 $120 1 #
vertex $-1 -1 $-1 $206 $334 #
straight-curve $-1 -1 $-1 -5.0799999999999992 0 2.5399999999999996 0 25.399999999999999 0 I I #
coedge $-1 -1 $-1 $121 $335 $238 $336 forward $211 $-1 #
loop $-1 -1 $-1 $337 $327 $338 #
model_id-kcp-attrib $-1 -1 $339 $-1 $122 1 1021489453 1021489453 -1202782207 17 #
vertex $-1 -1 $-1 $122 $340 #
straight-curve $-1 -1 $-1 -3.8099999999999996 12.699999999999999 -2.5399999999999996 -25.399999999999999 0 0 I I #
convexity-sys-attrib $-1 -1 $-1 $123 $77 #
point $-1 -1 $-1 -5.0799999999999992 12.699999999999999 -2.5399999999999996 #
coedge $-1 -1 $-1 $341 $126 $129 $224 reversed $219 $-1 #
coedge $-1 -1 $-1 $126 $341 $128 $223 forward $219 $-1 #
loop $-1 -1 $-1 $-1 $217 $342 #
attrib_edge_convexity-kcp-attrib $-1 -1 $343 $-1 $127 1 #
ellipse-curve $-1 -1 $-1 8.8123952579621795e-017 0 0 0 -1 0 1.5874999999999999 0 0 1 I I #
coedge $-1 -1 $-1 $129 $128 $344 $345 reversed $130 $-1 #
edge $-1 -1 $-1 $346 0 $133 0.5 $218 $347 forward @7 unknown #
edge $-1 -1 $-1 $348 0 $132 0.5 $217 $349 forward @7 unknown #
face $350 -1 $-1 $342 $130 $8 $-1 $351 reversed single #
convexity-sys-attrib $-1 -1 $-1 $131 $80 #
point $-1 -1 $-1 -1.5874999999999999 0 0 #
point $-1 -1 $-1 1.5874999999999999 0 0 #
coedge $-1 -1 $-1 $144 $135 $352 $353 reversed $26 $-1 #
coedge $-1 -1 $-1 $354 $355 $135 $231 forward $321 $-1 #
edge $356 -1 $-1 $357 0 $236 4.9492926181722581 $135 $358 forward @7 unknown #
coedge $-1 -1 $-1 $359 $136 $139 $239 forward $234 $-1 #
coedge $-1 -1 $-1 $136 $359 $354 $360 reversed $234 $-1 #
loop $-1 -1 $-1 $-1 $232 $320 #
attrib_edge_convexity-kcp-attrib $-1 -1 $361 $-1 $137 1 #
vertex $-1 -1 $-1 $231 $362 #
ellipse-curve $-1 -1 $-1 -2.7939999999999996 0 -2.1997045256124745 0 -1 0 0.79828571428570549 0 0.62848700731785923 1 I I #
coedge $-1 -1 $-1 $139 $138 $210 $336 reversed $140 $-1 #
edge $-1 -1 $-1 $142 0 $363 0.5 $232 $364 forward @7 unknown #
face $365 -1 $-1 $338 $140 $8 $-1 $366 forward single #
convexity-sys-attrib $-1 -1 $-1 $141 $83 #
point $-1 -1 $-1 -3.8099999999999996 0 -2.1997045256124745 #
coedge $-1 -1 $-1 $201 $203 $144 $244 forward $115 $-1 #
edge $367 -1 $-1 $246 0 $368 0.013397459621556106 $144 $369 forward @7 unknown #
attrib_edge_convexity-kcp-attrib $-1 -1 $370 $-1 $146 1 #
vertex $-1 -1 $-1 $146 $371 #
straight-curve $-1 -1 $-1 -5.0799999999999992 0 2.5399999999999996 25.399999999999999 0 0 I I #
convexity-sys-attrib $-1 -1 $-1 $147 $86 #
point $-1 -1 $-1 -5.0799999999999992 0 2.5399999999999996 #
attrib_edge_convexity-kcp-attrib $-1 -1 $372 $-1 $150 1 #
straight-curve $-1 -1 $-1 -3.8099999999999996 0 -2.5399999999999996 0 25.399999999999999 0 I I #
model_id-kcp-attrib $-1 -1 $-1 $-1 $155 1 1021489453 1021489453 -1202782206 6 #
face $-1 -1 $-1 $-1 $170 $19 $-1 $373 reversed single #
loop $-1 -1 $-1 $-1 $269 $155 #
plane-surface $-1 -1 $-1 0 6.3499999999999996 0 0 -1 0 0 0 -1 forward_v I I I I #
coedge $-1 -1 $-1 $374 $267 $270 $375 forward $156 $-1 #
coedge $-1 -1 $-1 $273 $158 $159 $261 reversed $94 $-1 #
coedge $-1 -1 $-1 $267 $374 $158 $259 reversed $156 $-1 #
edge $-1 -1 $-1 $274 -2.54 $376 2.54 $258 $377 forward @7 unknown #
coedge $-1 -1 $-1 $160 $159 $374 $378 forward $59 $-1 #
edge $-1 -1 $-1 $265 -3.8099999999999996 $376 3.8099999999999996 $257 $379 forward @7 unknown #
coedge $-1 -1 $-1 $270 $269 $160 $263 reversed $254 $-1 #
edge $-1 -1 $-1 $380 -3.8099999999999996 $264 3.8099999999999996 $262 $381 forward @7 unknown #
vertex $-1 -1 $-1 $162 $382 #
vertex $-1 -1 $-1 $276 $383 #
straight-curve $-1 -1 $-1 3.8099999999999996 0 -2.54 0 -1 0 I I #
coedge $-1 -1 $-1 $256 $258 $163 $268 reversed $156 $-1 #
edge $-1 -1 $-1 $271 -6.3499999999999996 $274 6.3499999999999996 $267 $384 forward @7 unknown #
coedge $-1 -1 $-1 $262 $164 $169 $277 forward $254 $-1 #
coedge $-1 -1 $-1 $164 $262 $256 $375 reversed $254 $-1 #
vertex $-1 -1 $-1 $165 $385 #
straight-curve $-1 -1 $-1 0 6.3499999999999996 2.54 -1 0 0 I I #
coedge $-1 -1 $-1 $166 $257 $168 $276 reversed $94 $-1 #
vertex $-1 -1 $-1 $268 $386 #
straight-curve $-1 -1 $-1 0 -6.3499999999999996 2.54 1 0 0 I I #
edge $-1 -1 $-1 $171 -2.54 $265 2.54 $168 $387 forward @7 unknown #
edge $-1 -1 $-1 $172 -2.54 $264 2.54 $169 $388 forward @7 unknown #
point $-1 -1 $-1 3.8099999999999996 -6.3499999999999996 2.54 #
point $-1 -1 $-1 3.8099999999999996 6.3499999999999996 2.54 #
vertex $-1 -1 $-1 $175 $389 #
ellipse-curve $-1 -1 $-1 0 0 -4.4061976289810898e-017 0 -1 0 -1.5874999999999999 0 4.4061976289810898e-017 1 I I #
point $-1 -1 $-1 -1.5874999999999999 12.699999999999999 0 #
face $-1 -1 $-1 $390 $309 $23 $-1 $391 reversed single #
loop $-1 -1 $-1 $-1 $392 $178 #
plane-surface $-1 -1 $-1 -2.54 -6.3499999999999996 2.54 1 0 0 0 1 0 forward_v I I I I #
coedge $-1 -1 $-1 $393 $394 $395 $396 reversed $179 $-1 #
coedge $-1 -1 $-1 $303 $181 $397 $398 forward $107 $-1 #
coedge $-1 -1 $-1 $399 $400 $181 $289 forward $401 $-1 #
edge $-1 -1 $-1 $402 -2.4746463090861295 $194 -0.90384998229123281 $288 $196 forward @7 unknown #
coedge $-1 -1 $-1 $183 $182 $403 $404 reversed $68 $-1 #
coedge $-1 -1 $-1 $405 $406 $407 $292 forward $408 $-1 #
edge $-1 -1 $-1 $409 -12.699999999999999 $298 0 $291 $410 forward @7 unknown #
coedge $-1 -1 $-1 $411 $412 $183 $294 reversed $413 $-1 #
edge $-1 -1 $-1 $414 -12.699999999999999 $299 0 $293 $415 forward @7 unknown #
coedge $-1 -1 $-1 $395 $184 $412 $416 forward $297 $-1 #
coedge $-1 -1 $-1 $184 $395 $405 $417 reversed $297 $-1 #
loop $-1 -1 $-1 $-1 $395 $418 #
vertex $-1 -1 $-1 $417 $419 #
vertex $-1 -1 $-1 $185 $420 #
ellipse-curve $-1 -1 $-1 1.2699999999999996 -6.3499999999999996 -4.3513166749012872e-016 0 1 0 -1.9957142857142862 0 1.5712175182946235 1 I I #
coedge $-1 -1 $-1 $421 $422 $186 $302 forward $423 $-1 #
edge $-1 -1 $-1 $310 -1.3766793038938017e-016 $305 0.90384998229123281 $301 $300 forward @7 unknown #
coedge $-1 -1 $-1 $187 $287 $424 $425 reversed $107 $-1 #
coedge $-1 -1 $-1 $426 $427 $428 $188 forward $429 $-1 #
vertex $-1 -1 $-1 $430 $431 #
straight-curve $-1 -1 $-1 1.2699999999999996 -6.3499999999999996 2.54 0 -1 0 I I #
coedge $-1 -1 $-1 $432 $189 $422 $433 reversed $309 $-1 #
coedge $-1 -1 $-1 $189 $432 $191 $313 reversed $309 $-1 #
loop $-1 -1 $-1 $-1 $308 $283 #
vertex $-1 -1 $-1 $433 $434 #
straight-curve $-1 -1 $-1 -0.72571428571428709 -6.3499999999999996 1.5712175182946231 0 1 0 I I #
coedge $-1 -1 $-1 $192 $191 $392 $435 forward $193 $-1 #
edge $-1 -1 $-1 $195 -2.4746463090861246 $436 1.9105263258847875e-031 $191 $437 forward @7 unknown #
coedge $-1 -1 $-1 $438 $428 $192 $315 forward $439 $-1 #
edge $-1 -1 $-1 $194 -1.2699999999999996 $440 2.54 $192 $441 forward @7 unknown #
face $-1 -1 $-1 $442 $193 $23 $-1 $443 reversed single #
point $-1 -1 $-1 1.2699999999999996 6.3499999999999996 2.54 #
point $-1 -1 $-1 -0.72571428571428709 6.3499999999999996 1.5712175182946231 #
model_id-kcp-attrib $-1 -1 $-1 $-1 $198 1 1021489453 1021489453 -1202782207 8 #
face $444 -1 $-1 $240 $234 $8 $-1 $445 reversed single #
loop $-1 -1 $-1 $-1 $354 $198 #
cone-surface $-1 -1 $-1 0 0 0 0 1 0 2.5399999999999996 0 0 1 I I 0 1 2.5399999999999996 forward I I I I #
coedge $-1 -1 $-1 $446 $352 $355 $447 forward $199 $-1 #
coedge $-1 -1 $-1 $203 $201 $448 $449 reversed $115 $-1 #
coedge $-1 -1 $-1 $352 $446 $201 $326 reversed $199 $-1 #
edge $-1 -1 $-1 $368 0 $450 0.5 $201 $451 forward @7 unknown #
coedge $-1 -1 $-1 $448 $205 $202 $328 forward $211 $-1 #
edge $452 -1 $-1 $208 0 $329 0.049999999999999989 $327 $453 forward @7 unknown #
vertex $-1 -1 $-1 $449 $454 #
straight-curve $-1 -1 $-1 -3.8099999999999996 0 2.5399999999999996 0 25.399999999999999 0 I I #
model_id-kcp-attrib $-1 -1 $455 $-1 $206 1 1021489453 1021489453 -1202782207 16 #
straight-curve $-1 -1 $-1 -5.0799999999999992 12.699999999999999 -2.5399999999999996 0 0 25.399999999999999 I I #
convexity-sys-attrib $-1 -1 $-1 $207 $120 #
point $-1 -1 $-1 -5.0799999999999992 12.699999999999999 2.5399999999999996 #
coedge $-1 -1 $-1 $210 $456 $359 $457 forward $211 $-1 #
edge $-1 -1 $-1 $363 0 $213 0.013397459621556106 $210 $458 forward @7 unknown #
loop $-1 -1 $-1 $-1 $344 $338 #
face $459 -1 $-1 $225 $211 $8 $-1 $460 forward single #
attrib_edge_convexity-kcp-attrib $-1 -1 $461 $212 $122 1 #
point $-1 -1 $-1 -3.8099999999999996 12.699999999999999 -2.5399999999999996 #
coedge $-1 -1 $-1 $218 $217 $462 $463 reversed $219 $-1 #
face $464 -1 $-1 $-1 $219 $8 $-1 $465 reversed single #
convexity-sys-attrib $-1 -1 $-1 $220 $127 #
coedge $-1 -1 $-1 $462 $462 $222 $345 forward $337 $-1 #
edge $-1 -1 $-1 $348 0 $346 3.1415926535897931 $344 $466 forward @7 unknown #
vertex $-1 -1 $-1 $463 $467 #
straight-curve $-1 -1 $-1 1.5874999999999999 12.699999999999999 0 0 -25.399999999999999 0 I I #
vertex $-1 -1 $-1 $463 $468 #
straight-curve $-1 -1 $-1 -1.5874999999999999 12.699999999999999 1.9440625866930238e-016 0 -25.399999999999999 0 I I #
model_id-kcp-attrib $-1 -1 $-1 $-1 $225 1 1021489453 1021489453 -1202782207 12 #
cone-surface $-1 -1 $-1 0 12.699999999999999 0 0 -1 0 1.5874999999999999 0 0 1 I I 0 1 1.5874999999999999 forward I I I I #
coedge $-1 -1 $-1 $323 $325 $229 $353 forward $199 $-1 #
edge $469 -1 $-1 $368 0 $357 2.4746463090861384 $229 $470 forward @7 unknown #
coedge $-1 -1 $-1 $471 $230 $233 $360 forward $321 $-1 #
coedge $-1 -1 $-1 $230 $471 $323 $447 reversed $321 $-1 #
attrib_edge_convexity-kcp-attrib $-1 -1 $472 $-1 $231 1 #
vertex $-1 -1 $-1 $353 $473 #
ellipse-curve $-1 -1 $-1 0 0 0 0 1 0 -1.9957142857142789 0 1.571217518294632 1 I I #
coedge $-1 -1 $-1 $233 $232 $335 $457 reversed $234 $-1 #
edge $-1 -1 $-1 $236 1.5164802711710519e-032 $474 0.5 $354 $475 forward @7 unknown #
convexity-sys-attrib $-1 -1 $-1 $235 $137 #
point $-1 -1 $-1 -1.995714285714294 0 -1.5712175182946155 #
vertex $-1 -1 $-1 $336 $476 #
straight-curve $-1 -1 $-1 -3.8099999999999996 0 -2.1997045256124745 0 25.399999999999999 0 I I #
model_id-kcp-attrib $-1 -1 $-1 $-1 $240 1 1021489453 1021489453 -1202782207 10 #
plane-surface $-1 -1 $-1 -3.8099999999999996 0 -2.1997045256124745 1 0 0 0 0 -25.399999999999999 forward_v I I I I #
attrib_edge_convexity-kcp-attrib $-1 -1 $477 $-1 $244 1 #
vertex $-1 -1 $-1 $244 $478 #
straight-curve $-1 -1 $-1 -3.8099999999999996 0 2.5399999999999996 0 0 -25.399999999999999 I I #
convexity-sys-attrib $-1 -1 $-1 $245 $146 #
point $-1 -1 $-1 -3.8099999999999996 0 2.5399999999999996 #
convexity-sys-attrib $-1 -1 $-1 $250 $150 #
plane-surface $-1 -1 $-1 3.8099999999999996 0 0 -1 0 0 0 0 1 forward_v I I I I #
coedge $-1 -1 $-1 $258 $256 $260 $378 reversed $156 $-1 #
edge $-1 -1 $-1 $271 -2.54 $380 2.54 $270 $479 forward @7 unknown #
vertex $-1 -1 $-1 $378 $480 #
straight-curve $-1 -1 $-1 -3.8099999999999996 -6.3499999999999996 0 0 0 -1 I I #
edge $-1 -1 $-1 $376 -6.3499999999999996 $380 6.3499999999999996 $374 $481 forward @7 unknown #
straight-curve $-1 -1 $-1 0 -6.3499999999999996 -2.54 -1 0 0 I I #
vertex $-1 -1 $-1 $263 $482 #
straight-curve $-1 -1 $-1 0 6.3499999999999996 -2.54 1 0 0 I I #
point $-1 -1 $-1 3.8099999999999996 6.3499999999999996 -2.54 #
point $-1 -1 $-1 3.8099999999999996 -6.3499999999999996 -2.54 #
straight-curve $-1 -1 $-1 -3.8099999999999996 0 2.54 0 -1 0 I I #
point $-1 -1 $-1 -3.8099999999999996 6.3499999999999996 2.54 #
point $-1 -1 $-1 -3.8099999999999996 -6.3499999999999996 2.54 #
straight-curve $-1 -1 $-1 3.8099999999999996 -6.3499999999999996 0 0 0 -1 I I #
straight-curve $-1 -1 $-1 3.8099999999999996 6.3499999999999996 0 0 0 -1 I I #
point $-1 -1 $-1 1.5874999999999999 0 0 #
face $-1 -1 $-1 $483 $484 $23 $-1 $46 reversed single #
cone-surface $-1 -1 $-1 -1.5239999999999994 -6.3499999999999996 2.1997045256124759 0 -1 0 -1.0160000000000005 0 -8.8817841970012523e-016 1 I I 0 -1 1.0160000000000005 forward I I I I #
coedge $-1 -1 $-1 $485 $486 $312 $435 reversed $284 $-1 #
coedge $-1 -1 $-1 $487 $286 $488 $489 forward $179 $-1 #
coedge $-1 -1 $-1 $286 $487 $490 $491 reversed $179 $-1 #
coedge $-1 -1 $-1 $296 $295 $286 $396 forward $297 $-1 #
edge $-1 -1 $-1 $492 1.0998522628062366 $493 1.4401477371937634 $395 $494 forward @7 unknown #
coedge $-1 -1 $-1 $495 $496 $497 $398 reversed $484 $-1 #
edge $-1 -1 $-1 $402 -12.699999999999999 $498 0 $497 $499 forward @7 unknown #
coedge $-1 -1 $-1 $400 $288 $427 $500 reversed $401 $-1 #
coedge $-1 -1 $-1 $288 $399 $501 $502 forward $401 $-1 #
loop $-1 -1 $-1 $-1 $288 $503 #
vertex $-1 -1 $-1 $504 $505 #
coedge $-1 -1 $-1 $506 $507 $290 $404 forward $508 $-1 #
edge $-1 -1 $-1 $414 1.3338926890073279 $409 2.2377426712985606 $403 $196 forward @7 unknown #
coedge $-1 -1 $-1 $490 $291 $296 $417 forward $408 $-1 #
coedge $-1 -1 $-1 $291 $490 $506 $509 forward $408 $-1 #
coedge $-1 -1 $-1 $510 $511 $512 $292 reversed $513 $-1 #
loop $-1 -1 $-1 $-1 $490 $514 #
vertex $-1 -1 $-1 $515 $516 #
straight-curve $-1 -1 $-1 1.2699999999999996 -6.3499999999999996 -2.54 0 -1 0 I I #
coedge $-1 -1 $-1 $488 $293 $507 $517 reversed $413 $-1 #
coedge $-1 -1 $-1 $293 $488 $295 $416 reversed $413 $-1 #
loop $-1 -1 $-1 $-1 $412 $483 #
vertex $-1 -1 $-1 $404 $518 #
straight-curve $-1 -1 $-1 -0.7257142857142862 -6.3499999999999996 -1.5712175182946249 0 -1 0 I I #
edge $-1 -1 $-1 $299 0 $492 2.4746463090861295 $295 $519 forward @7 unknown #
edge $-1 -1 $-1 $298 -1.2699999999999996 $493 2.5399999999999991 $296 $520 forward @7 unknown #
face $-1 -1 $-1 $521 $297 $23 $-1 $522 reversed single #
point $-1 -1 $-1 1.2699999999999996 -6.3499999999999996 -2.54 #
point $-1 -1 $-1 -0.7257142857142862 -6.3499999999999996 -1.5712175182946249 #
coedge $-1 -1 $-1 $523 $301 $524 $525 reversed $423 $-1 #
coedge $-1 -1 $-1 $301 $523 $307 $433 forward $423 $-1 #
loop $-1 -1 $-1 $-1 $523 $521 #
coedge $-1 -1 $-1 $526 $527 $303 $425 forward $528 $-1 #
edge $-1 -1 $-1 $305 0.90384998229123281 $498 2.4746463090861295 $424 $300 forward @7 unknown #
coedge $-1 -1 $-1 $529 $304 $527 $430 forward $429 $-1 #
coedge $-1 -1 $-1 $304 $529 $399 $500 forward $429 $-1 #
coedge $-1 -1 $-1 $314 $524 $109 $188 reversed $439 $-1 #
loop $-1 -1 $-1 $-1 $304 $530 #
edge $-1 -1 $-1 $305 1.2699999999999996 $531 3.8099999999999996 $527 $532 forward @7 unknown #
point $-1 -1 $-1 1.2699999999999996 -6.3499999999999996 2.54 #
coedge $-1 -1 $-1 $308 $307 $485 $533 forward $309 $-1 #
edge $-1 -1 $-1 $534 -1.9105263258847875e-031 $310 2.4746463090861246 $422 $535 forward @7 unknown #
point $-1 -1 $-1 -0.72571428571428709 -6.3499999999999996 1.5712175182946231 #
edge $-1 -1 $-1 $436 0.92970452561247496 $440 1.27 $312 $536 forward @7 unknown #
vertex $-1 -1 $-1 $435 $537 #
ellipse-curve $-1 -1 $-1 -1.5239999999999994 6.3499999999999996 2.1997045256124759 0 1 0 -1.0160000000000005 0 -8.8817841970012523e-016 1 I I #
coedge $-1 -1 $-1 $524 $314 $486 $538 forward $439 $-1 #
loop $-1 -1 $-1 $-1 $438 $539 #
vertex $-1 -1 $-1 $435 $540 #
straight-curve $-1 -1 $-1 0 6.3499999999999996 2.54 -1 0 0 I I #
face $-1 -1 $-1 $-1 $541 $23 $-1 $542 reversed single #
plane-surface $-1 -1 $-1 0 6.3499999999999996 0 0 -1 0 0 0 -1 forward_v I I I I #
model_id-kcp-attrib $-1 -1 $-1 $-1 $320 1 1021489453 1021489453 -1202782207 9 #
cone-surface $-1 -1 $-1 -2.7939999999999996 0 -2.1997045256124745 0 1 0 1.016 0 0 1 I I 0 1 1.016 forward I I I I #
coedge $-1 -1 $-1 $325 $323 $543 $544 reversed $199 $-1 #
edge $-1 -1 $-1 $357 3.7608710725042094e-033 $545 0.49999999999999994 $323 $546 forward @7 unknown #
coedge $-1 -1 $-1 $543 $327 $324 $449 forward $211 $-1 #
edge $-1 -1 $-1 $329 0 $450 0.013397459621556106 $448 $547 forward @7 unknown #
vertex $-1 -1 $-1 $544 $548 #
straight-curve $-1 -1 $-1 -3.8099999999999996 0 2.1997045256124745 0 25.399999999999999 0 I I #
model_id-kcp-attrib $-1 -1 $-1 $-1 $328 1 1021489453 1021489453 -1202782207 15 #
straight-curve $-1 -1 $-1 -5.0799999999999992 12.699999999999999 2.5399999999999996 25.399999999999999 0 0 I I #
point $-1 -1 $-1 -3.8099999999999996 12.699999999999999 2.5399999999999996 #
attrib_edge_convexity-kcp-attrib $-1 -1 $549 $331 $206 1 #
coedge $-1 -1 $-1 $335 $543 $471 $550 forward $211 $-1 #
edge $-1 -1 $-1 $474 -1.258370926215429e-014 $363 2.4746463090861175 $335 $551 forward @7 unknown #
straight-curve $-1 -1 $-1 -3.8099999999999996 12.699999999999999 -2.1997045256124745 0 0 -25.399999999999999 I I #
model_id-kcp-attrib $-1 -1 $-1 $-1 $338 1 1021489453 1021489453 -1202782207 11 #
plane-surface $-1 -1 $-1 0 12.699999999999999 0 0 1 0 25.399999999999999 0 0 forward_v I I I I #
convexity-sys-attrib $-1 -1 $-1 $339 $122 #
coedge $-1 -1 $-1 $344 $344 $341 $463 forward $337 $-1 #
edge $-1 -1 $-1 $346 0 $348 3.1415926535897931 $462 $552 forward @7 unknown #
model_id-kcp-attrib $-1 -1 $-1 $-1 $342 1 1021489453 1021489453 -1202782207 13 #
cone-surface $-1 -1 $-1 0 12.699999999999999 0 0 -1 0 1.5874999999999999 0 0 1 I I 0 1 1.5874999999999999 forward I I I I #
ellipse-curve $-1 -1 $-1 0 12.699999999999999 0 0 -1 0 -1.5874999999999999 0 0 1 I I #
point $-1 -1 $-1 1.5874999999999999 12.699999999999999 0 #
point $-1 -1 $-1 -1.5874999999999999 12.699999999999999 0 #
attrib_edge_convexity-kcp-attrib $-1 -1 $553 $-1 $353 1 #
ellipse-curve $-1 -1 $-1 -2.7939999999999996 0 2.1997045256124745 0 -1 0 -1.0160000000000002 0 0 1 I I #
coedge $-1 -1 $-1 $355 $354 $456 $550 reversed $321 $-1 #
convexity-sys-attrib $-1 -1 $-1 $356 $231 #
point $-1 -1 $-1 -1.9957142857142789 0 1.571217518294632 #
vertex $-1 -1 $-1 $457 $554 #
straight-curve $-1 -1 $-1 -1.9957142857142849 0 -1.5712175182946251 -7.0499162063697436e-016 25.399999999999999 3.5249581031848718e-016 I I #
point $-1 -1 $-1 -3.8099999999999996 12.699999999999999 -2.1997045256124745 #
convexity-sys-attrib $-1 -1 $-1 $367 $244 #
point $-1 -1 $-1 -3.8099999999999996 0 2.1997045256124745 #
straight-curve $-1 -1 $-1 -3.8099999999999996 6.3499999999999996 0 0 0 -1 I I #
point $-1 -1 $-1 -3.8099999999999996 -6.3499999999999996 -2.54 #
straight-curve $-1 -1 $-1 -3.8099999999999996 0 -2.54 0 1 0 I I #
point $-1 -1 $-1 -3.8099999999999996 6.3499999999999996 -2.54 #
face $-1 -1 $-1 $530 $413 $23 $-1 $555 reversed single #
loop $-1 -1 $-1 $-1 $495 $390 #
coedge $-1 -1 $-1 $556 $392 $432 $533 reversed $284 $-1 #
coedge $-1 -1 $-1 $392 $556 $438 $538 reversed $284 $-1 #
coedge $-1 -1 $-1 $394 $393 $557 $558 reversed $179 $-1 #
coedge $-1 -1 $-1 $412 $411 $393 $489 reversed $413 $-1 #
edge $-1 -1 $-1 $492 0 $559 12.699999999999999 $488 $560 forward @7 unknown #
coedge $-1 -1 $-1 $406 $405 $394 $491 forward $408 $-1 #
edge $-1 -1 $-1 $493 -3.1749999999999998 $561 9.5249999999999986 $490 $562 forward @7 unknown #
vertex $-1 -1 $-1 $396 $563 #
vertex $-1 -1 $-1 $396 $564 #
straight-curve $-1 -1 $-1 -2.5399999999999991 -6.3499999999999996 -1.0998522628062366 0 0 -1 I I #
coedge $-1 -1 $-1 $512 $397 $565 $566 reversed $484 $-1 #
coedge $-1 -1 $-1 $397 $512 $567 $568 reversed $484 $-1 #
coedge $-1 -1 $-1 $569 $570 $571 $398 forward $572 $-1 #
vertex $-1 -1 $-1 $573 $574 #
straight-curve $-1 -1 $-1 3.8099999999999996 -6.3499999999999996 -4.3513166749012872e-016 0 -1 0 I I #
edge $-1 -1 $-1 $575 -3.8099999999999996 $194 -1.2699999999999996 $399 $441 forward @7 unknown #
coedge $-1 -1 $-1 $576 $571 $400 $502 reversed $541 $-1 #
edge $-1 -1 $-1 $575 -2.54 $402 4.3513166749012872e-016 $501 $577 forward @7 unknown #
face $-1 -1 $-1 $578 $401 $23 $-1 $443 reversed single #
edge $-1 -1 $-1 $402 4.3513166749012872e-016 $579 2.54 $570 $577 forward @7 unknown #
point $-1 -1 $-1 3.8099999999999996 6.3499999999999996 -4.3513166749012872e-016 #
coedge $-1 -1 $-1 $557 $403 $406 $509 reversed $508 $-1 #
coedge $-1 -1 $-1 $403 $557 $411 $517 forward $508 $-1 #
loop $-1 -1 $-1 $-1 $557 $578 #
edge $-1 -1 $-1 $561 -2.5399999999999991 $409 1.2699999999999996 $506 $580 forward @7 unknown #
coedge $-1 -1 $-1 $581 $407 $582 $515 forward $513 $-1 #
coedge $-1 -1 $-1 $407 $581 $583 $584 forward $513 $-1 #
coedge $-1 -1 $-1 $496 $495 $182 $292 forward $484 $-1 #
loop $-1 -1 $-1 $-1 $407 $585 #
face $-1 -1 $-1 $316 $408 $23 $-1 $586 reversed single #
edge $-1 -1 $-1 $409 1.2699999999999996 $579 3.8099999999999996 $582 $580 forward @7 unknown #
point $-1 -1 $-1 1.2699999999999996 6.3499999999999996 -2.54 #
edge $-1 -1 $-1 $559 -2.4746463090861295 $414 0 $507 $587 forward @7 unknown #
point $-1 -1 $-1 -0.7257142857142862 6.3499999999999996 -1.5712175182946249 #
ellipse-curve $-1 -1 $-1 -1.5239999999999998 -6.3499999999999996 -2.1997045256124732 0 -1 0 0.79828571428571382 0 0.62848700731784857 1 I I #
straight-curve $-1 -1 $-1 0 -6.3499999999999996 -2.54 -1 0 0 I I #
face $-1 -1 $-1 $585 $423 $23 $-1 $522 reversed single #
plane-surface $-1 -1 $-1 0 -6.3499999999999996 0 0 1 0 0 0 1 forward_v I I I I #
coedge $-1 -1 $-1 $422 $421 $556 $588 forward $423 $-1 #
coedge $-1 -1 $-1 $428 $438 $421 $525 forward $439 $-1 #
edge $-1 -1 $-1 $589 -2.54 $305 1.2699999999999996 $421 $532 forward @7 unknown #
coedge $-1 -1 $-1 $527 $424 $590 $591 reversed $528 $-1 #
coedge $-1 -1 $-1 $424 $526 $426 $430 reversed $528 $-1 #
loop $-1 -1 $-1 $-1 $424 $592 #
coedge $-1 -1 $-1 $427 $426 $576 $593 forward $429 $-1 #
face $-1 -1 $-1 $539 $429 $23 $-1 $594 forward single #
vertex $-1 -1 $-1 $593 $595 #
straight-curve $-1 -1 $-1 0 -6.3499999999999996 2.54 1 0 0 I I #
edge $-1 -1 $-1 $534 0 $436 12.699999999999999 $485 $596 forward @7 unknown #
vertex $-1 -1 $-1 $588 $597 #
ellipse-curve $-1 -1 $-1 -1.5239999999999994 -6.3499999999999996 2.1997045256124759 0 -1 0 -1.0160000000000005 0 -8.8817841970012523e-016 1 I I #
straight-curve $-1 -1 $-1 -2.54 6.3499999999999996 1.27 0 0 1 I I #
point $-1 -1 $-1 -2.54 6.3499999999999996 2.199704525612475 #
edge $-1 -1 $-1 $440 -9.5249999999999986 $589 3.1749999999999998 $438 $598 forward @7 unknown #
face $-1 -1 $-1 $599 $439 $23 $-1 $594 forward single #
point $-1 -1 $-1 -2.54 6.3499999999999996 2.54 #
loop $-1 -1 $-1 $-1 $571 $442 #
plane-surface $-1 -1 $-1 3.8099999999999996 0 0 -1 0 0 0 0 1 forward_v I I I I #
coedge $-1 -1 $-1 $456 $448 $446 $544 forward $211 $-1 #
edge $-1 -1 $-1 $450 1.8030196758184132e-016 $545 2.4746463090861246 $543 $600 forward @7 unknown #
vertex $-1 -1 $-1 $550 $601 #
straight-curve $-1 -1 $-1 -1.9957142857142869 0 1.5712175182946229 7.0499162063697456e-016 25.399999999999999 -3.5249581031848728e-016 I I #
straight-curve $-1 -1 $-1 -3.8099999999999996 12.699999999999999 2.5399999999999996 0 0 -25.399999999999999 I I #
point $-1 -1 $-1 -3.8099999999999996 12.699999999999999 2.1997045256124745 #
convexity-sys-attrib $-1 -1 $-1 $455 $206 #
edge $-1 -1 $-1 $545 -4.6807096332389268e-015 $474 4.9492926181722536 $456 $602 forward @7 unknown #
ellipse-curve $-1 -1 $-1 -2.794 12.699999999999999 -2.1997045256124741 0 -1 0 0.79828571428570616 0 0.62848700731785856 1 I I #
ellipse-curve $-1 -1 $-1 0 12.699999999999999 0 0 -1 0 1.5874999999999999 0 0 1 I I #
convexity-sys-attrib $-1 -1 $-1 $469 $353 #
point $-1 -1 $-1 -1.9957142857142851 12.699999999999999 -1.5712175182946249 #
cone-surface $-1 -1 $-1 -1.5239999999999998 -6.3499999999999996 -2.1997045256124732 0 -1 0 0.79828571428571382 0 0.62848700731784857 1 I I 0 -1 1.0159999999999989 forward I I I I #
coedge $-1 -1 $-1 $486 $485 $523 $588 reversed $284 $-1 #
coedge $-1 -1 $-1 $507 $506 $487 $558 forward $508 $-1 #
edge $-1 -1 $-1 $561 -1.4401477371937634 $559 -1.0998522628062366 $557 $603 forward @7 unknown #
vertex $-1 -1 $-1 $558 $604 #
straight-curve $-1 -1 $-1 -2.5399999999999991 -6.3499999999999996 -2.1997045256124732 0 1 0 I I #
vertex $-1 -1 $-1 $509 $605 #
straight-curve $-1 -1 $-1 -2.5399999999999991 -3.1749999999999998 -2.54 0 1 0 I I #
point $-1 -1 $-1 -2.5399999999999991 -6.3499999999999996 -2.1997045256124732 #
point $-1 -1 $-1 -2.5399999999999991 -6.3499999999999996 -2.54 #
coedge $-1 -1 $-1 $606 $582 $495 $566 forward $607 $-1 #
edge $-1 -1 $-1 $409 2.2377426712985606 $402 3.8085389980934568 $565 $196 forward @7 unknown #
coedge $-1 -1 $-1 $583 $608 $496 $568 forward $609 $-1 #
edge $-1 -1 $-1 $498 2.4746463090861295 $298 4.0454426358810256 $567 $300 forward @7 unknown #
coedge $-1 -1 $-1 $610 $497 $608 $573 forward $572 $-1 #
coedge $-1 -1 $-1 $497 $610 $606 $504 reversed $572 $-1 #
coedge $-1 -1 $-1 $501 $590 $287 $398 reversed $541 $-1 #
loop $-1 -1 $-1 $-1 $497 $599 #
edge $-1 -1 $-1 $498 4.3513166749012872e-016 $611 2.54 $569 $612 forward @7 unknown #
point $-1 -1 $-1 3.8099999999999996 -6.3499999999999996 -4.3513166749012872e-016 #
vertex $-1 -1 $-1 $593 $613 #
coedge $-1 -1 $-1 $590 $501 $529 $593 reversed $541 $-1 #
straight-curve $-1 -1 $-1 3.8099999999999996 6.3499999999999996 0 0 0 -1 I I #
face $-1 -1 $-1 $592 $508 $23 $-1 $443 reversed single #
vertex $-1 -1 $-1 $614 $615 #
straight-curve $-1 -1 $-1 0 6.3499999999999996 -2.54 1 0 0 I I #
coedge $-1 -1 $-1 $511 $510 $610 $614 forward $513 $-1 #
coedge $-1 -1 $-1 $565 $606 $510 $515 reversed $607 $-1 #
coedge $-1 -1 $-1 $608 $567 $511 $584 reversed $609 $-1 #
edge $-1 -1 $-1 $611 -3.8099999999999996 $298 -1.2699999999999996 $583 $520 forward @7 unknown #
face $-1 -1 $-1 $514 $513 $23 $-1 $586 reversed single #
plane-surface $-1 -1 $-1 0 0 -2.54 0 0 1 1 0 0 forward_v I I I I #
ellipse-curve $-1 -1 $-1 -1.5239999999999998 6.3499999999999996 -2.1997045256124732 0 1 0 0.79828571428571382 0 0.62848700731784857 1 I I #
edge $-1 -1 $-1 $589 -1.27 $534 -0.92970452561247496 $523 $616 forward @7 unknown #
vertex $-1 -1 $-1 $525 $617 #
coedge $-1 -1 $-1 $571 $576 $526 $591 forward $541 $-1 #
edge $-1 -1 $-1 $531 -2.54 $498 4.3513166749012872e-016 $590 $612 forward @7 unknown #
face $-1 -1 $-1 $618 $528 $23 $-1 $522 reversed single #
edge $-1 -1 $-1 $531 -6.3499999999999996 $575 6.3499999999999996 $576 $619 forward @7 unknown #
plane-surface $-1 -1 $-1 0 0 2.54 0 0 1 1 0 0 forward_v I I I I #
point $-1 -1 $-1 3.8099999999999996 -6.3499999999999996 2.54 #
straight-curve $-1 -1 $-1 -2.54 -6.3499999999999996 2.199704525612475 0 1 0 I I #
point $-1 -1 $-1 -2.54 -6.3499999999999996 2.199704525612475 #
straight-curve $-1 -1 $-1 -2.54 -3.1749999999999998 2.54 0 -1 0 I I #
face $-1 -1 $-1 $620 $572 $23 $-1 $542 reversed single #
ellipse-curve $-1 -1 $-1 -2.7939999999999992 12.699999999999999 2.1997045256124754 0 -1 0 -1.0160000000000005 0 -7.0499162063697436e-016 1 I I #
point $-1 -1 $-1 -1.9957142857142867 12.699999999999998 1.5712175182946226 #
ellipse-curve $-1 -1 $-1 -1.5421691701433814e-016 12.699999999999999 -1.1015494072452725e-015 0 1 0 -1.9957142857142789 0 1.5712175182946329 1 I I #
straight-curve $-1 -1 $-1 -2.5399999999999991 6.3499999999999996 -1.0998522628062366 0 0 1 I I #
point $-1 -1 $-1 -2.5399999999999991 6.3499999999999996 -2.1997045256124732 #
point $-1 -1 $-1 -2.5399999999999991 6.3499999999999996 -2.54 #
coedge $-1 -1 $-1 $582 $565 $570 $504 forward $607 $-1 #
loop $-1 -1 $-1 $-1 $565 $620 #
coedge $-1 -1 $-1 $567 $583 $569 $573 reversed $609 $-1 #
loop $-1 -1 $-1 $-1 $567 $618 #
coedge $-1 -1 $-1 $570 $569 $581 $614 reversed $572 $-1 #
vertex $-1 -1 $-1 $573 $621 #
straight-curve $-1 -1 $-1 3.8099999999999996 -6.3499999999999996 0 0 0 -1 I I #
point $-1 -1 $-1 3.8099999999999996 6.3499999999999996 2.54 #
edge $-1 -1 $-1 $579 -6.3499999999999996 $611 6.3499999999999996 $610 $622 forward @7 unknown #
point $-1 -1 $-1 3.8099999999999996 6.3499999999999996 -2.54 #
straight-curve $-1 -1 $-1 -2.54 -6.3499999999999996 1.27 0 0 -1 I I #
point $-1 -1 $-1 -2.54 -6.3499999999999996 2.54 #
face $-1 -1 $-1 $418 $609 $23 $-1 $522 reversed single #
straight-curve $-1 -1 $-1 3.8099999999999996 0 2.54 0 1 0 I I #
face $-1 -1 $-1 $503 $607 $23 $-1 $443 reversed single #
point $-1 -1 $-1 3.8099999999999996 -6.3499999999999996 -2.54 #
straight-curve $-1 -1 $-1 3.8099999999999996 0 -2.54 0 -1 0 I I #
End-of-ACIS-data 