600 0 1 0           
91 GICL Pro/E ACIS Translator - Source: f:/data5/repository/PTC/V18/piping18/suction.prt - 6 0 13 ACIS 6.0.3 NT 24 Thu Apr 04 09:57:49 2002 
1 9.9999999999999995e-007 1e-010 
body $-1 $1 $-1 $2 #
lump $-1 $-1 $3 $0 #
transform $-1 1 0 0 0 1 0 0 0 1 0 0 0 25.399999999999999 no_rotate no_reflect no_shear #
shell $-1 $-1 $-1 $4 $-1 $1 #
face $-1 $5 $6 $3 $-1 $7 reversed single #
face $-1 $8 $9 $3 $-1 $10 forward single #
loop $-1 $11 $12 $4 #
plane-surface $-1 8.5999999999999996 12.1 17.5 0 1 0 -1 0 0 forward_v I I I I #
face $-1 $13 $14 $3 $-1 $15 forward single #
loop $-1 $-1 $16 $5 #
cone-surface $-1 8.5999999999999996 12.1 17.5 0 1 0 -0.1875 0 0 1 I I 0 1 0.1875 forward I I I I #
loop $-1 $-1 $17 $4 #
coedge $-1 $18 $18 $19 $20 reversed $6 $-1 #
face $-1 $21 $22 $3 $-1 $23 forward single #
loop $-1 $-1 $24 $8 #
cone-surface $-1 8.5999999999999996 12.1 17.5 0 1 0 -0.1875 0 0 1 I I 0 1 0.1875 forward I I I I #
coedge $-1 $25 $19 $26 $27 forward $9 $-1 #
coedge $-1 $28 $28 $29 $30 reversed $11 $-1 #
coedge $-1 $12 $12 $31 $32 reversed $6 $-1 #
coedge $-1 $16 $33 $12 $20 forward $9 $-1 #
edge $-1 $34 0 $35 3.1415926535897931 $12 $36 forward 7 unknown #
face $-1 $37 $38 $3 $-1 $39 forward single #
loop $-1 $-1 $40 $13 #
torus-surface $-1 9.0999999999999996 12.6 17.5 0 0 -1 0.5 0.1875 1 0 0 forward_v I I I I #
coedge $-1 $41 $31 $33 $42 forward $14 $-1 #
coedge $-1 $33 $16 $43 $44 reversed $9 $-1 #
coedge $-1 $31 $41 $16 $27 reversed $14 $-1 #
edge $-1 $35 0 $45 0.5 $26 $46 forward 7 unknown #
coedge $-1 $17 $17 $47 $48 reversed $11 $-1 #
coedge $-1 $49 $50 $17 $30 forward $51 $-1 #
edge $-1 $52 0 $53 3.1415926535897931 $17 $54 forward 7 unknown #
coedge $-1 $24 $26 $18 $32 forward $14 $-1 #
edge $-1 $35 0 $34 3.1415926535897931 $18 $55 forward 7 unknown #
coedge $-1 $19 $25 $24 $42 reversed $9 $-1 #
vertex $-1 $32 $56 #
vertex $-1 $32 $57 #
ellipse-curve $-1 8.5999999999999996 12.1 17.5 0 1 0 0.1875 0 0 1 I I #
face $-1 $58 $59 $3 $-1 $60 forward single #
loop $-1 $-1 $61 $21 #
torus-surface $-1 9.0999999999999996 12.6 17.5 0 0 -1 0.5 0.1875 1 0 0 forward_v I I I I #
coedge $-1 $62 $63 $64 $65 forward $22 $-1 #
coedge $-1 $26 $24 $63 $66 reversed $14 $-1 #
edge $-1 $34 0 $67 0.5 $24 $68 forward 7 unknown #
coedge $-1 $61 $64 $25 $44 forward $38 $-1 #
edge $-1 $67 0 $45 3.1415926535897931 $25 $69 forward 7 unknown #
vertex $-1 $27 $70 #
straight-curve $-1 8.4124999999999996 12.1 17.5 0 1 0 I I #
coedge $-1 $71 $72 $28 $48 forward $73 $-1 #
edge $-1 $53 0 $52 3.1415926535897931 $28 $74 forward 7 unknown #
coedge $-1 $75 $29 $72 $76 forward $51 $-1 #
coedge $-1 $29 $75 $71 $77 reversed $51 $-1 #
loop $-1 $-1 $49 $78 #
vertex $-1 $48 $79 #
vertex $-1 $48 $80 #
ellipse-curve $-1 8.5999999999999996 12.1 17.5 0 -1 0 0.14750000000000085 0 0 1 I I #
ellipse-curve $-1 8.5999999999999996 12.1 17.5 0 1 0 -0.1875 0 0 1 I I #
point $-1 8.7874999999999996 12.1 17.5 #
point $-1 8.4124999999999996 12.1 17.5 #
face $-1 $81 $82 $3 $-1 $83 forward single #
loop $-1 $-1 $84 $37 #
cone-surface $-1 9.0999999999999996 13.1 17.5 1 1.1513189798342652e-015 0 -2.1587230871892472e-016 0.1875 0 1 I I 0 1 0.1875 forward I I I I #
coedge $-1 $85 $43 $86 $87 forward $38 $-1 #
coedge $-1 $86 $40 $88 $89 reversed $22 $-1 #
coedge $-1 $40 $86 $41 $66 forward $22 $-1 #
coedge $-1 $43 $85 $40 $65 reversed $38 $-1 #
edge $-1 $67 0 $90 1.5707963267948966 $40 $91 forward 7 unknown #
edge $-1 $45 0 $67 3.1415926535897931 $41 $92 forward 7 unknown #
vertex $-1 $66 $93 #
straight-curve $-1 8.7874999999999996 12.1 17.5 0 1 0 I I #
ellipse-curve $-1 8.5999999999999996 12.6 17.5 0 1 0 0.1875 0 0 1 I I #
point $-1 8.4124999999999996 12.6 17.5 #
coedge $-1 $94 $47 $50 $77 forward $73 $-1 #
coedge $-1 $47 $94 $49 $76 reversed $73 $-1 #
loop $-1 $-1 $71 $95 #
ellipse-curve $-1 8.5999999999999996 12.1 17.5 0 -1 0 -0.14750000000000085 0 0 1 I I #
coedge $-1 $50 $49 $96 $97 reversed $51 $-1 #
edge $-1 $53 0 $98 0.5 $72 $99 forward 7 unknown #
edge $-1 $52 0 $100 0.5 $71 $101 forward 7 unknown #
face $-1 $95 $51 $3 $-1 $102 reversed single #
point $-1 8.7475000000000005 12.1 17.5 #
point $-1 8.4524999999999988 12.1 17.5 #
face $-1 $103 $104 $3 $-1 $105 forward single #
loop $-1 $-1 $106 $58 #
cone-surface $-1 9.0999999999999996 13.1 17.5 1 1.1513189798342652e-015 0 -2.1587230871892472e-016 0.1875 0 1 I I 0 1 0.1875 forward I I I I #
coedge $-1 $107 $108 $109 $110 forward $59 $-1 #
coedge $-1 $64 $61 $108 $111 reversed $38 $-1 #
coedge $-1 $63 $62 $61 $87 reversed $22 $-1 #
edge $-1 $45 0 $112 1.5707963267948966 $86 $113 forward 7 unknown #
coedge $-1 $106 $109 $62 $89 forward $82 $-1 #
edge $-1 $112 0 $90 3.1415926535897931 $62 $114 forward 7 unknown #
vertex $-1 $89 $115 #
ellipse-curve $-1 9.0999999999999996 12.6 17.5 0 0 -1 -0.3125 0 0 1 I I #
ellipse-curve $-1 8.5999999999999996 12.6 17.5 0 1 0 -0.1875 0 0 1 I I #
point $-1 8.7874999999999996 12.6 17.5 #
coedge $-1 $72 $71 $116 $117 reversed $73 $-1 #
face $-1 $-1 $73 $3 $-1 $118 reversed single #
coedge $-1 $119 $120 $75 $97 forward $121 $-1 #
edge $-1 $100 0 $98 3.1415926535897931 $75 $122 forward 7 unknown #
vertex $-1 $76 $123 #
straight-curve $-1 8.4524999999999988 12.1 17.5 0 1 0 I I #
vertex $-1 $117 $124 #
straight-curve $-1 8.7475000000000005 12.1 17.5 0 1 0 I I #
cone-surface $-1 8.5999999999999996 12.1 17.5 0 1 0 -0.14749999999999999 0 0 1 I I 0 1 0.14749999999999999 forward I I I I #
face $-1 $125 $126 $3 $-1 $127 forward single #
loop $-1 $-1 $128 $81 #
torus-surface $-1 13.728665566659799 12.6005295462516 17.523005778238595 0 -0.046011556477189623 -0.99894090749680808 0.49999999999999989 0.1875 0 -0.99894090749680808 0.046011556477189623 forward_v I I I I #
coedge $-1 $129 $88 $130 $131 forward $82 $-1 #
coedge $-1 $130 $84 $132 $133 reversed $59 $-1 #
coedge $-1 $84 $130 $85 $111 forward $59 $-1 #
coedge $-1 $88 $129 $84 $110 reversed $82 $-1 #
edge $-1 $112 0 $134 4.6286655666597998 $109 $135 forward 7 unknown #
edge $-1 $90 0 $112 3.1415926535897931 $85 $136 forward 7 unknown #
vertex $-1 $87 $137 #
ellipse-curve $-1 9.0999999999999996 12.6 17.5 0 0 -1 -0.6875 0 0 1 I I #
ellipse-curve $-1 9.0999999999999996 13.1 17.5 1 0 0 0 0.1875 0 1 I I #
point $-1 9.0999999999999996 12.9125 17.5 #
coedge $-1 $138 $139 $94 $117 forward $140 $-1 #
edge $-1 $98 0 $100 3.1415926535897931 $94 $141 forward 7 unknown #
cone-surface $-1 8.5999999999999996 12.1 17.5 0 1 0 -0.14749999999999999 0 0 1 I I 0 1 0.14749999999999999 forward I I I I #
coedge $-1 $142 $96 $139 $143 forward $121 $-1 #
coedge $-1 $96 $142 $138 $144 reversed $121 $-1 #
loop $-1 $-1 $119 $145 #
ellipse-curve $-1 8.5999999999999996 12.6 17.5 0 -1 0 0.14750000000000085 0 0 1 I I #
point $-1 8.4524999999999988 12.6 17.5 #
point $-1 8.7475000000000005 12.6 17.5 #
face $-1 $146 $147 $3 $-1 $148 forward single #
loop $-1 $-1 $149 $103 #
torus-surface $-1 13.728665566659799 12.6005295462516 17.523005778238595 0 -0.046011556477189623 -0.99894090749680808 0.49999999999999989 0.1875 0 -0.99894090749680808 0.046011556477189623 forward_v I I I I #
coedge $-1 $150 $151 $152 $153 forward $104 $-1 #
coedge $-1 $109 $106 $151 $154 reversed $82 $-1 #
coedge $-1 $108 $107 $106 $131 reversed $59 $-1 #
edge $-1 $90 0 $155 4.6286655666597998 $106 $156 forward 7 unknown #
coedge $-1 $149 $152 $107 $133 forward $126 $-1 #
edge $-1 $155 0 $134 3.1415926535897931 $107 $157 forward 7 unknown #
vertex $-1 $110 $158 #
straight-curve $-1 9.0999999999999996 13.2875 17.5 1 1.1513189798342652e-015 0 I I #
ellipse-curve $-1 9.0999999999999996 13.1 17.5 1 0 0 0 -0.1875 0 1 I I #
point $-1 9.0999999999999996 13.2875 17.5 #
coedge $-1 $159 $116 $120 $144 forward $140 $-1 #
coedge $-1 $116 $159 $119 $143 reversed $140 $-1 #
loop $-1 $-1 $138 $160 #
ellipse-curve $-1 8.5999999999999996 12.6 17.5 0 -1 0 -0.14750000000000085 0 0 1 I I #
coedge $-1 $120 $119 $161 $162 reversed $121 $-1 #
edge $-1 $98 0 $163 1.5707963267948966 $139 $164 forward 7 unknown #
edge $-1 $100 0 $165 1.5707963267948966 $138 $166 forward 7 unknown #
face $-1 $78 $121 $3 $-1 $167 reversed single #
face $-1 $168 $169 $3 $-1 $170 forward single #
loop $-1 $-1 $171 $125 #
cone-surface $-1 14.125108716438616 12.904891659556492 17.508986756231643 0.60936960539052643 -0.79204655962188653 0.036481932752083203 0.14850872992910372 0.11441186150143574 0.0033664644095575793 1 I I 0 1 0.1875 forward I I I I #
coedge $-1 $172 $132 $173 $174 forward $126 $-1 #
coedge $-1 $173 $128 $175 $176 reversed $104 $-1 #
coedge $-1 $128 $173 $129 $154 forward $104 $-1 #
coedge $-1 $132 $172 $128 $153 reversed $126 $-1 #
edge $-1 $155 0 $177 0.91553104207349412 $128 $178 forward 7 unknown #
edge $-1 $134 0 $155 3.1415926535897931 $129 $179 forward 7 unknown #
vertex $-1 $154 $180 #
straight-curve $-1 9.0999999999999996 12.9125 17.5 1 1.1513189798342652e-015 0 I I #
ellipse-curve $-1 13.728665566659799 13.100000000000005 17.5 1 0 0 0 -0.1875 0 1 I I #
point $-1 13.728665566659799 13.287500000000005 17.5 #
coedge $-1 $139 $138 $181 $182 reversed $140 $-1 #
face $-1 $145 $140 $3 $-1 $183 reversed single #
coedge $-1 $184 $185 $142 $162 forward $186 $-1 #
edge $-1 $165 0 $163 3.1415926535897931 $142 $187 forward 7 unknown #
vertex $-1 $143 $188 #
ellipse-curve $-1 9.0999999999999996 12.6 17.5 0 0 -1 -0.64750000000000085 0 0 1 I I #
vertex $-1 $182 $189 #
ellipse-curve $-1 9.0999999999999996 12.6 17.5 0 0 -1 -0.35249999999999915 0 0 1 I I #
torus-surface $-1 9.0999999999999996 12.6 17.5 0 0 -1 0.5 0.14749999999999999 1 0 0 forward_v I I I I #
face $-1 $190 $191 $3 $-1 $192 forward single #
loop $-1 $-1 $193 $146 #
cone-surface $-1 14.125108716438616 12.904891659556492 17.508986756231643 0.60936960539052643 -0.79204655962188653 0.036481932752083203 0.14850872992910372 0.11441186150143574 0.0033664644095575793 1 I I 0 1 0.1875 forward I I I I #
coedge $-1 $194 $195 $196 $197 forward $147 $-1 #
coedge $-1 $152 $149 $195 $198 reversed $126 $-1 #
coedge $-1 $151 $150 $149 $174 reversed $104 $-1 #
edge $-1 $134 0 $199 0.9155310420734889 $173 $200 forward 7 unknown #
coedge $-1 $193 $196 $150 $176 forward $169 $-1 #
edge $-1 $199 -6.1679056923619858e-018 $177 3.1415926535897931 $150 $201 forward 7 unknown #
vertex $-1 $176 $202 #
ellipse-curve $-1 13.728665566659799 12.600132596877328 17.514387748366843 0 -0.046011556477183489 -0.99894090749680831 0 0.31236740312267663 -0.014387748366843311 1 I I #
ellipse-curve $-1 13.728665566659799 13.100000000000005 17.5 1 0 0 0 0.1875 0 1 I I #
point $-1 13.728665566659799 12.912500000000005 17.5 #
coedge $-1 $203 $204 $159 $182 forward $205 $-1 #
edge $-1 $163 0 $165 3.1415926535897931 $159 $206 forward 7 unknown #
torus-surface $-1 9.0999999999999996 12.6 17.5 0 0 -1 0.5 0.14749999999999999 1 0 0 forward_v I I I I #
coedge $-1 $207 $161 $204 $208 forward $186 $-1 #
coedge $-1 $161 $207 $203 $209 reversed $186 $-1 #
loop $-1 $-1 $184 $210 #
ellipse-curve $-1 9.0999999999999996 13.1 17.5 -1 0 0 0 -0.14750000000000085 0 1 I I #
point $-1 9.0999999999999996 13.2475 17.5 #
point $-1 9.0999999999999996 12.952499999999999 17.5 #
face $-1 $211 $212 $3 $-1 $213 forward single #
loop $-1 $-1 $214 $168 #
torus-surface $-1 16.496334433340198 10.6424704537484 17.613194643109633 -3.1190328098062976e-015 0.046011556477183718 0.99894090749680831 0.50000000000000011 0.1875 0.79288629955763101 0.60872422660978509 -0.028038044013902915 forward_v I I I I #
coedge $-1 $215 $175 $216 $217 forward $169 $-1 #
coedge $-1 $216 $171 $218 $219 reversed $147 $-1 #
coedge $-1 $171 $216 $172 $198 forward $147 $-1 #
coedge $-1 $175 $215 $171 $197 reversed $169 $-1 #
edge $-1 $199 0 $220 3.2406975169974048 $196 $221 forward 7 unknown #
edge $-1 $177 -6.1679056923619858e-018 $199 3.1415926535897931 $172 $222 forward 7 unknown #
vertex $-1 $174 $223 #
ellipse-curve $-1 13.728665566659799 12.600926495625872 17.531623808110339 0 -0.046011556477182088 -0.99894090749680842 0 0.68657350437413278 -0.031623808110339269 1 I I #
ellipse-curve $-1 14.125108716438616 12.904891659556492 17.508986756231643 0.60936960539052831 -0.79204655962188519 0.036481932752083238 0.14850872992910347 0.11441186150143601 0.0033664644095559026 1 I I #
point $-1 13.976599986509513 12.790479798055056 17.505620291822087 #
coedge $-1 $224 $181 $185 $209 forward $205 $-1 #
coedge $-1 $181 $224 $184 $208 reversed $205 $-1 #
loop $-1 $-1 $203 $225 #
ellipse-curve $-1 9.0999999999999996 13.1 17.5 -1 0 0 0 0.14750000000000085 0 1 I I #
coedge $-1 $185 $184 $226 $227 reversed $186 $-1 #
edge $-1 $163 0 $228 4.6286655666597998 $204 $229 forward 7 unknown #
edge $-1 $165 0 $230 4.6286655666597998 $203 $231 forward 7 unknown #
face $-1 $225 $186 $3 $-1 $232 reversed single #
face $-1 $233 $234 $3 $-1 $235 forward single #
loop $-1 $-1 $236 $190 #
torus-surface $-1 16.496334433340198 10.6424704537484 17.613194643109633 -3.1190328098062976e-015 0.046011556477183718 0.99894090749680831 0.50000000000000011 0.1875 0.79288629955763101 0.60872422660978509 -0.028038044013902915 forward_v I I I I #
coedge $-1 $237 $238 $239 $240 forward $191 $-1 #
coedge $-1 $196 $193 $238 $241 reversed $169 $-1 #
coedge $-1 $195 $194 $193 $217 reversed $147 $-1 #
edge $-1 $177 0 $242 3.2406975169974039 $193 $243 forward 7 unknown #
coedge $-1 $236 $239 $194 $219 forward $212 $-1 #
edge $-1 $242 0 $220 3.1415926535898313 $194 $244 forward 7 unknown #
vertex $-1 $197 $245 #
straight-curve $-1 14.273617446367719 13.019303521057928 17.512353220641199 0.60936960539052665 -0.79204655962188641 0.036481932752083189 I I #
ellipse-curve $-1 14.125108716438616 12.904891659556492 17.508986756231643 0.60936960539052831 -0.79204655962188519 0.036481932752083238 -0.14850872992910347 -0.11441186150143601 -0.0033664644095559026 1 I I #
point $-1 14.273617446367719 13.019303521057928 17.512353220641199 #
coedge $-1 $204 $203 $246 $247 reversed $205 $-1 #
face $-1 $160 $205 $3 $-1 $248 reversed single #
coedge $-1 $249 $250 $207 $227 forward $251 $-1 #
edge $-1 $230 0 $228 3.1415926535897931 $207 $252 forward 7 unknown #
vertex $-1 $208 $253 #
straight-curve $-1 9.0999999999999996 13.2475 17.5 1 1.1513189798342652e-015 0 I I #
vertex $-1 $247 $254 #
straight-curve $-1 9.0999999999999996 12.952499999999999 17.5 1 1.1513189798342652e-015 0 I I #
cone-surface $-1 9.0999999999999996 13.1 17.5 1 1.1513189798342652e-015 0 -1.698195495255541e-016 0.14749999999999999 0 1 I I 0 1 0.14749999999999999 forward I I I I #
face $-1 $255 $256 $3 $-1 $257 forward single #
loop $-1 $-1 $258 $211 #
cone-surface $-1 16.496334433340198 10.142999999999994 17.636200421348224 1 0 0 0 0.1875 0 1 I I 0 1 0.1875 forward I I I I #
coedge $-1 $259 $218 $260 $261 forward $212 $-1 #
coedge $-1 $260 $214 $262 $263 reversed $191 $-1 #
coedge $-1 $214 $260 $215 $241 forward $191 $-1 #
coedge $-1 $218 $259 $214 $240 reversed $212 $-1 #
edge $-1 $242 1.1751295617271083e-016 $264 0.91553104207348901 $214 $265 forward 7 unknown #
edge $-1 $220 0 $242 3.1415926535898304 $215 $266 forward 7 unknown #
vertex $-1 $241 $267 #
straight-curve $-1 13.976599986509513 12.790479798055056 17.505620291822087 0.60936960539052631 -0.79204655962188653 0.036481932752083196 I I #
ellipse-curve $-1 16.099891283561384 10.338108340443508 17.627213665116582 0.60936960539052276 -0.7920465596218893 0.03648193275208312 -0.14850872992910347 -0.11441186150143423 -0.0033664644095523499 1 I I #
point $-1 16.248400013490485 10.452520201944942 17.630580129526141 #
coedge $-1 $268 $269 $224 $247 forward $270 $-1 #
edge $-1 $228 0 $230 3.1415926535897931 $224 $271 forward 7 unknown #
cone-surface $-1 9.0999999999999996 13.1 17.5 1 1.1513189798342652e-015 0 -1.698195495255541e-016 0.14749999999999999 0 1 I I 0 1 0.14749999999999999 forward I I I I #
coedge $-1 $272 $226 $269 $273 forward $251 $-1 #
coedge $-1 $226 $272 $268 $274 reversed $251 $-1 #
loop $-1 $-1 $249 $275 #
ellipse-curve $-1 13.728665566659799 13.100000000000005 17.5 -1 0 0 0 -0.14750000000000085 0 1 I I #
point $-1 13.728665566659799 13.247500000000006 17.5 #
point $-1 13.728665566659799 12.952500000000004 17.5 #
face $-1 $276 $277 $3 $-1 $278 forward single #
loop $-1 $-1 $279 $233 #
cone-surface $-1 16.496334433340198 10.142999999999994 17.636200421348224 1 0 0 0 0.1875 0 1 I I 0 1 0.1875 forward I I I I #
coedge $-1 $280 $281 $282 $283 forward $234 $-1 #
coedge $-1 $239 $236 $281 $284 reversed $212 $-1 #
coedge $-1 $238 $237 $236 $261 reversed $191 $-1 #
edge $-1 $220 -1.4192811184183041e-016 $285 0.91553104207348968 $260 $286 forward 7 unknown #
coedge $-1 $279 $282 $237 $263 forward $256 $-1 #
edge $-1 $285 0 $264 3.1415926535897931 $237 $287 forward 7 unknown #
vertex $-1 $263 $288 #
ellipse-curve $-1 16.496334433340198 10.642073504374128 17.604576613237882 3.3454469710418621e-015 0.046011556477188686 0.99894090749680808 -0.54495187970791825 -0.41837702543205424 0.019270587469147671 1 I I #
ellipse-curve $-1 16.099891283561384 10.338108340443508 17.627213665116589 0.60936960539052742 -0.79204655962188586 0.036481932752083231 0.14850872992910169 0.11441186150143423 0.0033664644095523499 1 I I #
point $-1 15.95138255363228 10.223696478942074 17.623847200707029 #
coedge $-1 $289 $246 $250 $274 forward $270 $-1 #
coedge $-1 $246 $289 $249 $273 reversed $270 $-1 #
loop $-1 $-1 $268 $290 #
ellipse-curve $-1 13.728665566659799 13.100000000000005 17.5 -1 0 0 0 0.14750000000000085 0 1 I I #
coedge $-1 $250 $249 $291 $292 reversed $251 $-1 #
edge $-1 $228 0 $293 0.91553104207348879 $269 $294 forward 7 unknown #
edge $-1 $230 0 $295 0.91553104207349267 $268 $296 forward 7 unknown #
face $-1 $210 $251 $3 $-1 $297 reversed single #
face $-1 $298 $299 $3 $-1 $300 reversed single #
loop $-1 $301 $302 $255 #
plane-surface $-1 17.25 10.142999999999994 17.636200421348224 1 0 0 0 1 0 forward_v I I I I #
coedge $-1 $303 $262 $304 $305 forward $256 $-1 #
coedge $-1 $304 $258 $302 $306 reversed $234 $-1 #
coedge $-1 $258 $304 $259 $284 forward $234 $-1 #
coedge $-1 $262 $303 $258 $283 reversed $256 $-1 #
edge $-1 $285 0 $307 0.75366556665980156 $282 $308 forward 7 unknown #
edge $-1 $264 0 $285 3.1415926535897931 $259 $309 forward 7 unknown #
vertex $-1 $261 $310 #
ellipse-curve $-1 16.496334433340198 10.642867403122672 17.621812672981385 -1.4228293212143502e-014 0.04601155647717519 0.99894090749680875 -0.24793441984971309 -0.19034720117772963 0.0087674565447564135 1 I I #
ellipse-curve $-1 16.496334433340198 10.142999999999994 17.636200421348224 1 0 0 0 0.1875 0 1 I I #
point $-1 16.496334433340198 9.9554999999999936 17.636200421348224 #
coedge $-1 $269 $268 $311 $312 reversed $270 $-1 #
face $-1 $275 $270 $3 $-1 $313 reversed single #
coedge $-1 $314 $315 $272 $292 forward $316 $-1 #
edge $-1 $295 0 $293 3.1415926535897931 $272 $317 forward 7 unknown #
vertex $-1 $273 $318 #
ellipse-curve $-1 13.728665566659799 12.600841813092694 17.529785295071036 0 -0.046011556477187389 -0.99894090749680819 0 0.64665818690731136 -0.029785295071036444 1 I I #
vertex $-1 $312 $319 #
ellipse-curve $-1 13.728665566659799 12.600217279410506 17.516226261406153 0 -0.046011556477193731 -0.99894090749680786 0 0.35228272058949806 -0.016226261406153242 1 I I #
torus-surface $-1 13.728665566659799 12.6005295462516 17.523005778238595 0 -0.046011556477189623 -0.99894090749680808 0.49999999999999989 0.14749999999999999 0 -0.99894090749680808 0.046011556477189623 forward_v I I I I #
face $-1 $320 $321 $3 $-1 $322 reversed single #
loop $-1 $-1 $323 $276 #
cone-surface $-1 16.496334433340198 10.142999999999994 17.636200421348224 1 0 0 0 0.14749999999999999 0 1 I I 0 1 0.14749999999999999 forward I I I I #
loop $-1 $-1 $324 $255 #
coedge $-1 $325 $325 $280 $306 forward $277 $-1 #
coedge $-1 $282 $279 $325 $326 reversed $256 $-1 #
coedge $-1 $281 $280 $279 $305 reversed $234 $-1 #
edge $-1 $264 0 $327 0.75366556665980156 $279 $328 forward 7 unknown #
edge $-1 $327 0 $307 3.1415926535897931 $302 $329 forward 7 unknown #
vertex $-1 $326 $330 #
straight-curve $-1 16.496334433340198 10.330499999999994 17.636200421348224 1 0 0 I I #
ellipse-curve $-1 16.496334433340198 10.142999999999994 17.636200421348224 1 0 0 0 -0.1875 0 1 I I #
point $-1 16.496334433340198 10.330499999999994 17.636200421348224 #
coedge $-1 $331 $332 $289 $312 forward $333 $-1 #
edge $-1 $293 0 $295 3.1415926535897931 $289 $334 forward 7 unknown #
torus-surface $-1 13.728665566659799 12.6005295462516 17.523005778238595 0 -0.046011556477189623 -0.99894090749680808 0.49999999999999989 0.14749999999999999 0 -0.99894090749680808 0.046011556477189623 forward_v I I I I #
coedge $-1 $335 $291 $332 $336 forward $316 $-1 #
coedge $-1 $291 $335 $331 $337 reversed $316 $-1 #
loop $-1 $-1 $314 $338 #
ellipse-curve $-1 14.125108716438616 12.904891659556492 17.508986756231643 -0.60936960539052942 0.79204655962188419 -0.036481932752083258 -0.11682686754422811 -0.090003997714463324 -0.0026482853355176417 1 I I #
point $-1 14.241935583982844 12.994895657270956 17.51163504156716 #
point $-1 14.008281848894388 12.814887661842029 17.506338470896125 #
face $-1 $339 $340 $3 $-1 $341 reversed single #
loop $-1 $-1 $342 $298 #
cone-surface $-1 16.496334433340198 10.142999999999994 17.636200421348224 1 0 0 0 0.14749999999999999 0 1 I I 0 1 0.14749999999999999 forward I I I I #
coedge $-1 $343 $344 $345 $346 forward $299 $-1 #
coedge $-1 $347 $347 $343 $348 forward $301 $-1 #
coedge $-1 $302 $302 $303 $326 forward $277 $-1 #
edge $-1 $307 0 $327 3.1415926535897931 $325 $349 forward 7 unknown #
vertex $-1 $326 $350 #
straight-curve $-1 16.496334433340198 9.9554999999999936 17.636200421348224 1 0 0 I I #
ellipse-curve $-1 17.25 10.142999999999994 17.636200421348224 1 0 0 0 -0.1875 0 1 I I #
point $-1 17.25 10.330499999999994 17.636200421348224 #
coedge $-1 $351 $311 $315 $337 forward $333 $-1 #
coedge $-1 $311 $351 $314 $336 reversed $333 $-1 #
loop $-1 $-1 $331 $352 #
ellipse-curve $-1 14.125108716438616 12.904891659556492 17.508986756231643 -0.60936960539052942 0.79204655962188419 -0.036481932752083258 0.11682686754422811 0.090003997714463324 0.0026482853355176417 1 I I #
coedge $-1 $315 $314 $353 $354 reversed $316 $-1 #
edge $-1 $293 0 $355 3.2406975169974039 $332 $356 forward 7 unknown #
edge $-1 $295 0 $357 3.2406975169974053 $331 $358 forward 7 unknown #
face $-1 $352 $316 $3 $-1 $359 reversed single #
face $-1 $338 $360 $3 $-1 $361 reversed single #
loop $-1 $-1 $362 $320 #
torus-surface $-1 16.496334433340198 10.6424704537484 17.613194643109633 -3.1190328098062976e-015 0.046011556477183718 0.99894090749680831 0.50000000000000011 0.14749999999999999 0.79288629955763101 0.60872422660978509 -0.028038044013902915 forward_v I I I I #
coedge $-1 $363 $364 $365 $366 forward $321 $-1 #
coedge $-1 $365 $323 $324 $348 reversed $299 $-1 #
coedge $-1 $323 $365 $367 $368 forward $299 $-1 #
coedge $-1 $364 $363 $323 $346 reversed $321 $-1 #
edge $-1 $369 0 $370 0.75366556665980156 $345 $371 forward 7 unknown #
coedge $-1 $324 $324 $363 $372 forward $301 $-1 #
edge $-1 $373 0 $370 3.1415926535897931 $324 $374 forward 7 unknown #
ellipse-curve $-1 17.25 10.142999999999994 17.636200421348224 1 0 0 0 0.1875 0 1 I I #
point $-1 17.25 9.9554999999999936 17.636200421348224 #
coedge $-1 $332 $331 $375 $376 reversed $333 $-1 #
face $-1 $290 $333 $3 $-1 $377 reversed single #
coedge $-1 $378 $379 $335 $354 forward $360 $-1 #
edge $-1 $357 0 $355 3.1415926535897927 $335 $380 forward 7 unknown #
vertex $-1 $336 $381 #
straight-curve $-1 14.241935583982844 12.994895657270956 17.51163504156716 0.60936960539052665 -0.79204655962188641 0.036481932752083189 I I #
vertex $-1 $376 $382 #
straight-curve $-1 14.008281848894388 12.814887661842029 17.506338470896125 0.60936960539052631 -0.79204655962188653 0.036481932752083196 I I #
cone-surface $-1 14.125108716438616 12.904891659556492 17.508986756231643 0.60936960539052643 -0.79204655962188664 0.036481932752083203 0.11682686754422826 0.090003997714462783 0.0026482853355186292 1 I I 0 1 0.14749999999999999 forward I I I I #
loop $-1 $-1 $378 $339 #
torus-surface $-1 16.496334433340198 10.6424704537484 17.613194643109633 -3.1190328098062976e-015 0.046011556477183718 0.99894090749680831 0.50000000000000011 0.14749999999999999 0.79288629955763101 0.60872422660978509 -0.028038044013902915 forward_v I I I I #
coedge $-1 $383 $375 $379 $384 forward $340 $-1 #
coedge $-1 $345 $342 $347 $372 reversed $321 $-1 #
coedge $-1 $342 $345 $383 $385 forward $321 $-1 #
coedge $-1 $344 $343 $342 $366 reversed $299 $-1 #
edge $-1 $386 0 $373 0.75366556665980156 $342 $387 forward 7 unknown #
coedge $-1 $379 $378 $344 $368 reversed $360 $-1 #
edge $-1 $386 0 $369 3.1415926535897931 $367 $388 forward 7 unknown #
vertex $-1 $389 $390 #
vertex $-1 $372 $391 #
straight-curve $-1 16.496334433340198 10.290499999999994 17.636200421348224 1 0 0 I I #
edge $-1 $370 0 $373 3.1415926535897931 $347 $392 forward 7 unknown #
vertex $-1 $372 $393 #
ellipse-curve $-1 17.25 10.142999999999994 17.636200421348224 -1 0 0 0 -0.14750000000000085 0 1 I I #
coedge $-1 $362 $394 $351 $376 forward $340 $-1 #
edge $-1 $355 0 $357 3.1415926535897936 $351 $395 forward 7 unknown #
cone-surface $-1 14.125108716438616 12.904891659556492 17.508986756231643 0.60936960539052643 -0.79204655962188664 0.036481932752083203 0.11682686754422826 0.090003997714462783 0.0026482853355186292 1 I I 0 1 0.14749999999999999 forward I I I I #
coedge $-1 $367 $353 $394 $389 forward $360 $-1 #
coedge $-1 $353 $367 $362 $384 reversed $360 $-1 #
ellipse-curve $-1 16.099891283561384 10.338108340443508 17.627213665116585 -0.60936960539052942 0.79204655962188419 -0.036481932752083258 -0.11682686754422811 -0.090003997714463324 -0.0026482853355176417 1 I I #
point $-1 16.21671815110561 10.428112338157971 17.629861950452103 #
point $-1 15.983064416017156 10.248104342729045 17.624565379781068 #
coedge $-1 $394 $362 $364 $385 reversed $340 $-1 #
edge $-1 $357 0 $386 0.91553104207348723 $362 $396 forward 7 unknown #
edge $-1 $369 0 $386 3.1415926535897931 $383 $397 forward 7 unknown #
vertex $-1 $385 $398 #
straight-curve $-1 16.496334433340198 9.9954999999999927 17.636200421348224 1 0 0 I I #
ellipse-curve $-1 16.496334433340198 10.142999999999994 17.636200421348224 -1 0 0 0 -0.14750000000000085 0 1 I I #
edge $-1 $355 5.579395660995524e-017 $369 0.91553104207349312 $394 $399 forward 7 unknown #
point $-1 16.496334433340198 10.290499999999994 17.636200421348224 #
point $-1 17.25 10.290499999999994 17.636200421348224 #
ellipse-curve $-1 17.25 10.142999999999994 17.636200421348224 -1 0 0 0 0.14750000000000085 0 1 I I #
point $-1 17.25 9.9954999999999927 17.636200421348224 #
coedge $-1 $375 $383 $378 $389 reversed $340 $-1 #
ellipse-curve $-1 16.099891283561384 10.338108340443508 17.627213665116585 -0.60936960539053531 0.79204655962187975 -0.036481932752083411 0.11682686754422633 0.090003997714463324 0.0026482853355176417 1 I I #
ellipse-curve $-1 16.496334433340198 10.642158186907306 17.606415126277192 -1.6434284409064541e-015 0.046011556477184863 0.99894090749680831 -0.51327001732304289 -0.39405384417826106 0.018150253503876002 1 I I #
ellipse-curve $-1 16.496334433340198 10.142999999999994 17.636200421348224 -1 0 0 0 0.14750000000000085 0 1 I I #
point $-1 16.496334433340198 9.9954999999999927 17.636200421348224 #
ellipse-curve $-1 16.496334433340198 10.642782720589494 17.619974159942078 -1.1068126142499874e-014 0.046011556477177626 0.99894090749680864 -0.27961628223458845 -0.21467038243152281 0.00988779051002453 1 I I #
End-of-ACIS-data 