700 0 2 0           
24 FBMach with ACIS - 7.0.3 13 ACIS 7.0.3 NT 24 Wed May 15 15:06:19 2002 
1 9.9999999999999995e-007 1e-010 
body $2 -1 $-1 $3 $-1 $4 #
bdycol-kcp $-1 -1 1 1 $5 #
model_id-kcp-attrib $-1 -1 $-1 $-1 $0 1 1021489579 1021489579 -749404159 1 #
lump $-1 -1 $-1 $-1 $6 $0 #
transform $-1 -1 1 0 0 0 1 0 0 0 1 0 0 0 1 rotate no_reflect no_shear #
body $7 -1 $-1 $8 $-1 $9 #
shell $-1 -1 $-1 $-1 $-1 $10 $-1 $3 #
model_id-kcp-attrib $-1 -1 $-1 $-1 $5 1 1021489579 1021489579 -748683262 1 #
lump $-1 -1 $-1 $-1 $11 $5 #
transform $-1 -1 1 0 0 0 1 0 0 0 1 325.91374999999999 295.18609999999995 446.22974535112246 1 no_rotate no_reflect no_shear #
face $12 -1 $-1 $13 $14 $6 $-1 $15 reversed single #
shell $-1 -1 $-1 $-1 $-1 $16 $-1 $8 #
model_id-kcp-attrib $-1 -1 $-1 $-1 $10 1 1021489579 1021489579 -749404159 2 #
face $17 -1 $-1 $18 $19 $6 $-1 $20 forward single #
loop $-1 -1 $-1 $21 $22 $10 #
plane-surface $-1 -1 $-1 218.43999999999997 307.33999999999997 444.5 0 1 0 -25.399999999999999 0 0 forward_v I I I I #
face $-1 -1 $-1 $23 $24 $11 $-1 $25 forward single #
model_id-kcp-attrib $-1 -1 $-1 $-1 $13 1 1021489579 1021489579 -749404159 3 #
face $26 -1 $-1 $27 $28 $6 $-1 $29 forward single #
loop $-1 -1 $-1 $-1 $30 $13 #
cone-surface $-1 -1 $-1 218.43999999999997 307.33999999999997 444.5 0 1 0 -4.7624999999999993 0 0 1 I I 0 1 4.7624999999999993 forward I I I I #
loop $-1 -1 $-1 $-1 $31 $10 #
coedge $-1 -1 $-1 $32 $32 $33 $34 reversed $14 $-1 #
face $-1 -1 $-1 $35 $36 $11 $-1 $37 reversed single #
loop $-1 -1 $-1 $-1 $38 $16 #
plane-surface $-1 -1 $-1 0 0 6.4922453511224205 0 0 1 1 0 0 forward_v I I I I #
model_id-kcp-attrib $-1 -1 $-1 $-1 $18 1 1021489579 1021489579 -749404159 4 #
face $39 -1 $-1 $40 $41 $6 $-1 $42 forward single #
loop $-1 -1 $-1 $-1 $43 $18 #
cone-surface $-1 -1 $-1 218.43999999999997 307.33999999999997 444.5 0 1 0 -4.7624999999999993 0 0 1 I I 0 1 4.7624999999999993 forward I I I I #
coedge $-1 -1 $-1 $44 $33 $45 $46 forward $19 $-1 #
coedge $-1 -1 $-1 $47 $47 $48 $49 reversed $21 $-1 #
coedge $-1 -1 $-1 $22 $22 $50 $51 reversed $14 $-1 #
coedge $-1 -1 $-1 $30 $52 $22 $34 forward $19 $-1 #
edge $-1 -1 $-1 $53 0 $54 3.1415926535897931 $22 $55 forward @7 unknown #
face $-1 -1 $-1 $56 $57 $11 $-1 $58 reversed single #
loop $-1 -1 $-1 $-1 $59 $23 #
plane-surface $-1 -1 $-1 0 0 -6.4922453511224205 0 0 1 1 0 0 forward_v I I I I #
coedge $-1 -1 $-1 $60 $61 $62 $63 forward $24 $-1 #
model_id-kcp-attrib $-1 -1 $-1 $-1 $27 1 1021489579 1021489579 -749404159 5 #
face $64 -1 $-1 $65 $66 $6 $-1 $67 forward single #
loop $-1 -1 $-1 $-1 $68 $27 #
torus-surface $-1 -1 $-1 231.13999999999999 320.03999999999996 444.5 0 0 -1 12.699999999999999 4.7624999999999993 1 0 0 forward_v I I I I #
coedge $-1 -1 $-1 $69 $50 $52 $70 forward $28 $-1 #
coedge $-1 -1 $-1 $52 $30 $71 $72 reversed $19 $-1 #
coedge $-1 -1 $-1 $50 $69 $30 $46 reversed $28 $-1 #
edge $-1 -1 $-1 $54 0 $73 0.49999999999999956 $45 $74 forward @7 unknown #
coedge $-1 -1 $-1 $31 $31 $75 $76 reversed $21 $-1 #
coedge $-1 -1 $-1 $77 $78 $31 $49 forward $79 $-1 #
edge $-1 -1 $-1 $80 0 $81 3.1415926535897931 $31 $82 forward @7 unknown #
coedge $-1 -1 $-1 $43 $45 $32 $51 forward $28 $-1 #
edge $-1 -1 $-1 $54 0 $53 3.1415926535897931 $32 $83 forward @7 unknown #
coedge $-1 -1 $-1 $33 $44 $43 $70 reversed $19 $-1 #
vertex $-1 -1 $-1 $51 $84 #
vertex $-1 -1 $-1 $51 $85 #
ellipse-curve $-1 -1 $-1 218.43999999999997 307.33999999999997 444.5 0 1 0 4.7624999999999993 0 0 1 I I #
face $-1 -1 $-1 $86 $87 $11 $-1 $88 reversed single #
loop $-1 -1 $-1 $-1 $89 $35 #
plane-surface $-1 -1 $-1 0 -42.316400000000144 0 0 1 0 0 0 1 forward_v I I I I #
coedge $-1 -1 $-1 $90 $91 $92 $93 forward $36 $-1 #
coedge $-1 -1 $-1 $94 $38 $95 $96 forward $24 $-1 #
coedge $-1 -1 $-1 $38 $94 $97 $98 forward $24 $-1 #
coedge $-1 -1 $-1 $99 $100 $38 $63 reversed $101 $-1 #
edge $-1 -1 $-1 $102 -42.316400000000144 $103 42.316400000000144 $62 $104 forward @7 unknown #
model_id-kcp-attrib $-1 -1 $-1 $-1 $40 1 1021489579 1021489579 -749404159 6 #
face $105 -1 $-1 $106 $107 $6 $-1 $108 forward single #
loop $-1 -1 $-1 $-1 $109 $40 #
torus-surface $-1 -1 $-1 231.13999999999999 320.03999999999996 444.5 0 0 -1 12.699999999999999 4.7624999999999993 1 0 0 forward_v I I I I #
coedge $-1 -1 $-1 $110 $111 $112 $113 forward $41 $-1 #
coedge $-1 -1 $-1 $45 $43 $111 $114 reversed $28 $-1 #
edge $-1 -1 $-1 $53 0 $115 0.49999999999999956 $43 $116 forward @7 unknown #
coedge $-1 -1 $-1 $109 $112 $44 $72 forward $66 $-1 #
edge $-1 -1 $-1 $115 0 $73 3.1415926535897931 $44 $117 forward @7 unknown #
vertex $-1 -1 $-1 $46 $118 #
straight-curve $-1 -1 $-1 213.67749999999998 307.33999999999997 444.5 0 25.399999999999999 0 I I #
coedge $-1 -1 $-1 $119 $120 $47 $76 forward $121 $-1 #
edge $-1 -1 $-1 $81 0 $80 3.1415926535897931 $47 $122 forward @7 unknown #
coedge $-1 -1 $-1 $123 $48 $120 $124 forward $79 $-1 #
coedge $-1 -1 $-1 $48 $123 $119 $125 reversed $79 $-1 #
loop $-1 -1 $-1 $-1 $77 $126 #
vertex $-1 -1 $-1 $76 $127 #
vertex $-1 -1 $-1 $76 $128 #
ellipse-curve $-1 -1 $-1 218.43999999999997 307.33999999999997 444.5 0 -1 0 3.7465000000000215 0 0 1 I I #
ellipse-curve $-1 -1 $-1 218.43999999999997 307.33999999999997 444.5 0 1 0 -4.7624999999999993 0 0 1 I I #
point $-1 -1 $-1 223.20249999999999 307.33999999999997 444.5 #
point $-1 -1 $-1 213.67749999999998 307.33999999999997 444.5 #
face $-1 -1 $-1 $129 $130 $11 $-1 $131 reversed single #
loop $-1 -1 $-1 $-1 $132 $56 #
plane-surface $-1 -1 $-1 -112.23625 0 0 1 0 0 0 0 -1 forward_v I I I I #
coedge $-1 -1 $-1 $133 $97 $134 $135 forward $57 $-1 #
coedge $-1 -1 $-1 $136 $59 $133 $137 forward $36 $-1 #
coedge $-1 -1 $-1 $59 $136 $138 $139 forward $36 $-1 #
coedge $-1 -1 $-1 $100 $99 $59 $93 reversed $101 $-1 #
edge $-1 -1 $-1 $140 -42.316400000000144 $141 42.316400000000144 $92 $142 forward @7 unknown #
coedge $-1 -1 $-1 $61 $60 $143 $144 forward $24 $-1 #
coedge $-1 -1 $-1 $145 $146 $60 $96 reversed $130 $-1 #
edge $-1 -1 $-1 $103 -112.23625 $147 112.23625 $95 $148 forward @7 unknown #
coedge $-1 -1 $-1 $89 $149 $61 $98 reversed $57 $-1 #
edge $-1 -1 $-1 $150 -112.23625 $102 112.23625 $97 $151 forward @7 unknown #
coedge $-1 -1 $-1 $92 $62 $149 $152 forward $101 $-1 #
coedge $-1 -1 $-1 $62 $92 $145 $153 reversed $101 $-1 #
loop $-1 -1 $-1 $-1 $99 $129 #
vertex $-1 -1 $-1 $63 $154 #
vertex $-1 -1 $-1 $63 $155 #
straight-curve $-1 -1 $-1 112.23625 0 6.4922453511224205 0 1 0 I I #
model_id-kcp-attrib $-1 -1 $-1 $-1 $65 1 1021489579 1021489579 -749404159 7 #
face $156 -1 $-1 $157 $158 $6 $-1 $159 forward single #
loop $-1 -1 $-1 $-1 $160 $65 #
cone-surface $-1 -1 $-1 231.13999999999999 332.73999999999995 444.5 1 1.1513189798342652e-015 0 -5.4831566414606875e-015 4.7624999999999993 0 1 I I 0 1 4.7624999999999993 forward I I I I #
coedge $-1 -1 $-1 $161 $71 $162 $163 forward $66 $-1 #
coedge $-1 -1 $-1 $162 $68 $164 $165 reversed $41 $-1 #
coedge $-1 -1 $-1 $68 $162 $69 $114 forward $41 $-1 #
coedge $-1 -1 $-1 $71 $161 $68 $113 reversed $66 $-1 #
edge $-1 -1 $-1 $115 0 $166 1.5707963267948966 $68 $167 forward @7 unknown #
edge $-1 -1 $-1 $73 0 $115 3.1415926535897931 $69 $168 forward @7 unknown #
vertex $-1 -1 $-1 $114 $169 #
straight-curve $-1 -1 $-1 223.20249999999999 307.33999999999997 444.5 0 25.399999999999999 0 I I #
ellipse-curve $-1 -1 $-1 218.43999999999997 320.03999999999996 444.5 0 1 0 4.7624999999999993 0 0 1 I I #
point $-1 -1 $-1 213.67749999999998 320.03999999999996 444.5 #
coedge $-1 -1 $-1 $170 $75 $78 $125 forward $121 $-1 #
coedge $-1 -1 $-1 $75 $170 $77 $124 reversed $121 $-1 #
loop $-1 -1 $-1 $-1 $119 $171 #
ellipse-curve $-1 -1 $-1 218.43999999999997 307.33999999999997 444.5 0 -1 0 -3.7465000000000215 0 0 1 I I #
coedge $-1 -1 $-1 $78 $77 $172 $173 reversed $79 $-1 #
edge $-1 -1 $-1 $81 0 $174 0.49999999999999956 $120 $175 forward @7 unknown #
edge $-1 -1 $-1 $80 0 $176 0.49999999999999956 $119 $177 forward @7 unknown #
face $178 -1 $-1 $171 $79 $6 $-1 $179 reversed single #
point $-1 -1 $-1 222.1865 307.33999999999997 444.5 #
point $-1 -1 $-1 214.69349999999994 307.33999999999997 444.5 #
face $180 -1 $-1 $-1 $101 $11 $-1 $181 reversed single #
loop $-1 -1 $-1 $-1 $145 $86 #
plane-surface $-1 -1 $-1 0 42.316400000000144 0 0 -1 0 0 0 -1 forward_v I I I I #
coedge $-1 -1 $-1 $182 $143 $146 $183 forward $87 $-1 #
coedge $-1 -1 $-1 $149 $89 $90 $137 reversed $57 $-1 #
coedge $-1 -1 $-1 $143 $182 $89 $135 reversed $87 $-1 #
edge $-1 -1 $-1 $150 -6.4922453511224205 $184 6.4922453511224205 $134 $185 forward @7 unknown #
coedge $-1 -1 $-1 $91 $90 $182 $186 forward $36 $-1 #
edge $-1 -1 $-1 $141 -112.23625 $184 112.23625 $133 $187 forward @7 unknown #
coedge $-1 -1 $-1 $146 $145 $91 $139 reversed $130 $-1 #
edge $-1 -1 $-1 $188 -112.23625 $140 112.23625 $138 $189 forward @7 unknown #
vertex $-1 -1 $-1 $93 $190 #
vertex $-1 -1 $-1 $152 $191 #
straight-curve $-1 -1 $-1 112.23625 0 -6.4922453511224205 0 -1 0 I I #
coedge $-1 -1 $-1 $132 $134 $94 $144 reversed $87 $-1 #
edge $-1 -1 $-1 $147 -42.316400000000144 $150 42.316400000000144 $143 $192 forward @7 unknown #
coedge $-1 -1 $-1 $138 $95 $100 $153 forward $130 $-1 #
coedge $-1 -1 $-1 $95 $138 $132 $183 reversed $130 $-1 #
vertex $-1 -1 $-1 $96 $193 #
straight-curve $-1 -1 $-1 0 42.316400000000144 6.4922453511224205 -1 0 0 I I #
coedge $-1 -1 $-1 $97 $133 $99 $152 reversed $57 $-1 #
vertex $-1 -1 $-1 $144 $194 #
straight-curve $-1 -1 $-1 0 -42.316400000000144 6.4922453511224205 1 0 0 I I #
edge $-1 -1 $-1 $102 -6.4922453511224205 $141 6.4922453511224205 $99 $195 forward @7 unknown #
edge $-1 -1 $-1 $103 -6.4922453511224205 $140 6.4922453511224205 $100 $196 forward @7 unknown #
point $-1 -1 $-1 112.23625 -42.316400000000144 6.4922453511224205 #
point $-1 -1 $-1 112.23625 42.316400000000144 6.4922453511224205 #
model_id-kcp-attrib $-1 -1 $-1 $-1 $106 1 1021489579 1021489579 -749404159 8 #
face $197 -1 $-1 $198 $199 $6 $-1 $200 forward single #
loop $-1 -1 $-1 $-1 $201 $106 #
cone-surface $-1 -1 $-1 231.13999999999999 332.73999999999995 444.5 1 1.1513189798342652e-015 0 -5.4831566414606875e-015 4.7624999999999993 0 1 I I 0 1 4.7624999999999993 forward I I I I #
coedge $-1 -1 $-1 $202 $203 $204 $205 forward $107 $-1 #
coedge $-1 -1 $-1 $112 $109 $203 $206 reversed $66 $-1 #
coedge $-1 -1 $-1 $111 $110 $109 $163 reversed $41 $-1 #
edge $-1 -1 $-1 $73 0 $207 1.5707963267948966 $162 $208 forward @7 unknown #
coedge $-1 -1 $-1 $201 $204 $110 $165 forward $158 $-1 #
edge $-1 -1 $-1 $207 0 $166 3.1415926535897931 $110 $209 forward @7 unknown #
vertex $-1 -1 $-1 $165 $210 #
ellipse-curve $-1 -1 $-1 231.13999999999999 320.03999999999996 444.5 0 0 -1 -7.9375 0 0 1 I I #
ellipse-curve $-1 -1 $-1 218.43999999999997 320.03999999999996 444.5 0 1 0 -4.7624999999999993 0 0 1 I I #
point $-1 -1 $-1 223.20249999999999 320.03999999999996 444.5 #
coedge $-1 -1 $-1 $120 $119 $211 $212 reversed $121 $-1 #
face $213 -1 $-1 $-1 $121 $6 $-1 $214 reversed single #
coedge $-1 -1 $-1 $215 $216 $123 $173 forward $217 $-1 #
edge $-1 -1 $-1 $176 0 $174 3.1415926535897931 $123 $218 forward @7 unknown #
vertex $-1 -1 $-1 $124 $219 #
straight-curve $-1 -1 $-1 214.69349999999994 307.33999999999997 444.5 0 25.399999999999999 0 I I #
vertex $-1 -1 $-1 $212 $220 #
straight-curve $-1 -1 $-1 222.1865 307.33999999999997 444.5 0 25.399999999999999 0 I I #
model_id-kcp-attrib $-1 -1 $-1 $-1 $126 1 1021489579 1021489579 -749404159 30 #
cone-surface $-1 -1 $-1 218.43999999999997 307.33999999999997 444.5 0 1 0 -3.7464999999999997 0 0 1 I I 0 1 3.7464999999999997 forward I I I I #
model_id-kcp-attrib $-1 -1 $-1 $-1 $129 1 1021489579 1021489579 -748683262 2 #
plane-surface $-1 -1 $-1 112.23625 0 0 -1 0 0 0 0 1 forward_v I I I I #
coedge $-1 -1 $-1 $134 $132 $136 $186 reversed $87 $-1 #
edge $-1 -1 $-1 $147 -6.4922453511224205 $188 6.4922453511224205 $146 $221 forward @7 unknown #
vertex $-1 -1 $-1 $186 $222 #
straight-curve $-1 -1 $-1 -112.23625 -42.316400000000144 0 0 0 -1 I I #
edge $-1 -1 $-1 $184 -42.316400000000144 $188 42.316400000000144 $182 $223 forward @7 unknown #
straight-curve $-1 -1 $-1 0 -42.316400000000144 -6.4922453511224205 -1 0 0 I I #
vertex $-1 -1 $-1 $139 $224 #
straight-curve $-1 -1 $-1 0 42.316400000000144 -6.4922453511224205 1 0 0 I I #
point $-1 -1 $-1 112.23625 42.316400000000144 -6.4922453511224205 #
point $-1 -1 $-1 112.23625 -42.316400000000144 -6.4922453511224205 #
straight-curve $-1 -1 $-1 -112.23625 0 6.4922453511224205 0 -1 0 I I #
point $-1 -1 $-1 -112.23625 42.316400000000144 6.4922453511224205 #
point $-1 -1 $-1 -112.23625 -42.316400000000144 6.4922453511224205 #
straight-curve $-1 -1 $-1 112.23625 -42.316400000000144 0 0 0 -1 I I #
straight-curve $-1 -1 $-1 112.23625 42.316400000000144 0 0 0 -1 I I #
model_id-kcp-attrib $-1 -1 $-1 $-1 $157 1 1021489579 1021489579 -749404159 9 #
face $225 -1 $-1 $226 $227 $6 $-1 $228 forward single #
loop $-1 -1 $-1 $-1 $229 $157 #
torus-surface $-1 -1 $-1 348.70810539315886 320.05345047479062 445.08434676726029 0 -0.046011556477189623 -0.99894090749680808 12.699999999999996 4.7624999999999993 0 -0.99894090749680808 0.046011556477189623 forward_v I I I I #
coedge $-1 -1 $-1 $230 $164 $231 $232 forward $158 $-1 #
coedge $-1 -1 $-1 $231 $160 $233 $234 reversed $107 $-1 #
coedge $-1 -1 $-1 $160 $231 $161 $206 forward $107 $-1 #
coedge $-1 -1 $-1 $164 $230 $160 $205 reversed $158 $-1 #
edge $-1 -1 $-1 $207 0 $235 4.628665566659798 $204 $236 forward @7 unknown #
edge $-1 -1 $-1 $166 0 $207 3.1415926535897931 $161 $237 forward @7 unknown #
vertex $-1 -1 $-1 $163 $238 #
ellipse-curve $-1 -1 $-1 231.13999999999999 320.03999999999996 444.5 0 0 -1 -17.462499999999999 0 0 1 I I #
ellipse-curve $-1 -1 $-1 231.13999999999999 332.73999999999995 444.5 1 0 0 0 4.7624999999999993 0 1 I I #
point $-1 -1 $-1 231.13999999999999 327.97749999999996 444.5 #
coedge $-1 -1 $-1 $239 $240 $170 $212 forward $241 $-1 #
edge $-1 -1 $-1 $174 0 $176 3.1415926535897931 $170 $242 forward @7 unknown #
model_id-kcp-attrib $-1 -1 $-1 $-1 $171 1 1021489579 1021489579 -749404159 31 #
cone-surface $-1 -1 $-1 218.43999999999997 307.33999999999997 444.5 0 1 0 -3.7464999999999997 0 0 1 I I 0 1 3.7464999999999997 forward I I I I #
coedge $-1 -1 $-1 $243 $172 $240 $244 forward $217 $-1 #
coedge $-1 -1 $-1 $172 $243 $239 $245 reversed $217 $-1 #
loop $-1 -1 $-1 $-1 $215 $246 #
ellipse-curve $-1 -1 $-1 218.43999999999997 320.03999999999996 444.5 0 -1 0 3.7465000000000215 0 0 1 I I #
point $-1 -1 $-1 214.69349999999994 320.03999999999996 444.5 #
point $-1 -1 $-1 222.1865 320.03999999999996 444.5 #
straight-curve $-1 -1 $-1 -112.23625 42.316400000000144 0 0 0 -1 I I #
point $-1 -1 $-1 -112.23625 -42.316400000000144 -6.4922453511224205 #
straight-curve $-1 -1 $-1 -112.23625 0 -6.4922453511224205 0 1 0 I I #
point $-1 -1 $-1 -112.23625 42.316400000000144 -6.4922453511224205 #
model_id-kcp-attrib $-1 -1 $-1 $-1 $198 1 1021489579 1021489579 -749404159 10 #
face $247 -1 $-1 $248 $249 $6 $-1 $250 forward single #
loop $-1 -1 $-1 $-1 $251 $198 #
torus-surface $-1 -1 $-1 348.70810539315886 320.05345047479062 445.08434676726029 0 -0.046011556477189623 -0.99894090749680808 12.699999999999996 4.7624999999999993 0 -0.99894090749680808 0.046011556477189623 forward_v I I I I #
coedge $-1 -1 $-1 $252 $253 $254 $255 forward $199 $-1 #
coedge $-1 -1 $-1 $204 $201 $253 $256 reversed $158 $-1 #
coedge $-1 -1 $-1 $203 $202 $201 $232 reversed $107 $-1 #
edge $-1 -1 $-1 $166 0 $257 4.628665566659798 $201 $258 forward @7 unknown #
coedge $-1 -1 $-1 $251 $254 $202 $234 forward $227 $-1 #
edge $-1 -1 $-1 $257 0 $235 3.1415926535897931 $202 $259 forward @7 unknown #
vertex $-1 -1 $-1 $205 $260 #
straight-curve $-1 -1 $-1 231.13999999999999 337.5025 444.5 25.399999999999999 2.9243502087790334e-014 0 I I #
ellipse-curve $-1 -1 $-1 231.13999999999999 332.73999999999995 444.5 1 0 0 0 -4.7624999999999993 0 1 I I #
point $-1 -1 $-1 231.13999999999999 337.5025 444.5 #
coedge $-1 -1 $-1 $261 $211 $216 $245 forward $241 $-1 #
coedge $-1 -1 $-1 $211 $261 $215 $244 reversed $241 $-1 #
loop $-1 -1 $-1 $-1 $239 $262 #
ellipse-curve $-1 -1 $-1 218.43999999999997 320.03999999999996 444.5 0 -1 0 -3.7465000000000215 0 0 1 I I #
coedge $-1 -1 $-1 $216 $215 $263 $264 reversed $217 $-1 #
edge $-1 -1 $-1 $174 0 $265 1.5707963267948966 $240 $266 forward @7 unknown #
edge $-1 -1 $-1 $176 0 $267 1.5707963267948966 $239 $268 forward @7 unknown #
face $269 -1 $-1 $126 $217 $6 $-1 $270 reversed single #
model_id-kcp-attrib $-1 -1 $-1 $-1 $226 1 1021489579 1021489579 -749404159 11 #
face $271 -1 $-1 $272 $273 $6 $-1 $274 forward single #
loop $-1 -1 $-1 $-1 $275 $226 #
cone-surface $-1 -1 $-1 358.77776139754081 327.7842481527349 444.72826360828373 0.60936960539052643 -0.79204655962188653 0.036481932752083203 3.7721217401992342 2.9060612821364677 0.085508196002762507 1 I I 0 1 4.7624999999999993 forward I I I I #
coedge $-1 -1 $-1 $276 $233 $277 $278 forward $227 $-1 #
coedge $-1 -1 $-1 $277 $229 $279 $280 reversed $199 $-1 #
coedge $-1 -1 $-1 $229 $277 $230 $256 forward $199 $-1 #
coedge $-1 -1 $-1 $233 $276 $229 $255 reversed $227 $-1 #
edge $-1 -1 $-1 $257 0 $281 0.91553104207349367 $229 $282 forward @7 unknown #
edge $-1 -1 $-1 $235 0 $257 3.1415926535897931 $230 $283 forward @7 unknown #
vertex $-1 -1 $-1 $256 $284 #
straight-curve $-1 -1 $-1 231.13999999999999 327.97749999999996 444.5 25.399999999999999 2.9243502087790334e-014 0 I I #
ellipse-curve $-1 -1 $-1 348.70810539315886 332.74000000000012 444.5 1 0 0 0 -4.7624999999999993 0 1 I I #
point $-1 -1 $-1 348.70810539315886 337.50250000000011 444.5 #
coedge $-1 -1 $-1 $240 $239 $285 $286 reversed $241 $-1 #
face $287 -1 $-1 $246 $241 $6 $-1 $288 reversed single #
coedge $-1 -1 $-1 $289 $290 $243 $264 forward $291 $-1 #
edge $-1 -1 $-1 $267 0 $265 3.1415926535897931 $243 $292 forward @7 unknown #
vertex $-1 -1 $-1 $244 $293 #
ellipse-curve $-1 -1 $-1 231.13999999999999 320.03999999999996 444.5 0 0 -1 -16.446500000000022 0 0 1 I I #
vertex $-1 -1 $-1 $286 $294 #
ellipse-curve $-1 -1 $-1 231.13999999999999 320.03999999999996 444.5 0 0 -1 -8.9534999999999787 0 0 1 I I #
model_id-kcp-attrib $-1 -1 $-1 $-1 $246 1 1021489579 1021489579 -749404159 29 #
torus-surface $-1 -1 $-1 231.13999999999999 320.03999999999996 444.5 0 0 -1 12.699999999999999 3.7464999999999997 1 0 0 forward_v I I I I #
model_id-kcp-attrib $-1 -1 $-1 $-1 $248 1 1021489579 1021489579 -749404159 12 #
face $295 -1 $-1 $296 $297 $6 $-1 $298 forward single #
loop $-1 -1 $-1 $-1 $299 $248 #
cone-surface $-1 -1 $-1 358.77776139754081 327.7842481527349 444.72826360828373 0.60936960539052643 -0.79204655962188653 0.036481932752083203 3.7721217401992342 2.9060612821364677 0.085508196002762507 1 I I 0 1 4.7624999999999993 forward I I I I #
coedge $-1 -1 $-1 $300 $301 $302 $303 forward $249 $-1 #
coedge $-1 -1 $-1 $254 $251 $301 $304 reversed $227 $-1 #
coedge $-1 -1 $-1 $253 $252 $251 $278 reversed $199 $-1 #
edge $-1 -1 $-1 $235 0 $305 0.91553104207348734 $277 $306 forward @7 unknown #
coedge $-1 -1 $-1 $299 $302 $252 $280 forward $273 $-1 #
edge $-1 -1 $-1 $305 -2.7949649156386198e-015 $281 3.141592653589802 $252 $307 forward @7 unknown #
vertex $-1 -1 $-1 $280 $308 #
ellipse-curve $-1 -1 $-1 348.70810539315886 320.04336796068412 444.86544880851778 0 -0.046011556477183489 -0.99894090749680831 0 7.934132039315986 -0.36544880851782008 1 I I #
ellipse-curve $-1 -1 $-1 348.70810539315886 332.74000000000012 444.5 1 0 0 0 4.7624999999999993 0 1 I I #
point $-1 -1 $-1 348.70810539315886 327.97750000000013 444.5 #
coedge $-1 -1 $-1 $309 $310 $261 $286 forward $311 $-1 #
edge $-1 -1 $-1 $265 0 $267 3.1415926535897931 $261 $312 forward @7 unknown #
model_id-kcp-attrib $-1 -1 $-1 $-1 $262 1 1021489579 1021489579 -749404159 28 #
torus-surface $-1 -1 $-1 231.13999999999999 320.03999999999996 444.5 0 0 -1 12.699999999999999 3.7464999999999997 1 0 0 forward_v I I I I #
coedge $-1 -1 $-1 $313 $263 $310 $314 forward $291 $-1 #
coedge $-1 -1 $-1 $263 $313 $309 $315 reversed $291 $-1 #
loop $-1 -1 $-1 $-1 $289 $316 #
ellipse-curve $-1 -1 $-1 231.13999999999999 332.73999999999995 444.5 -1 0 0 0 -3.7465000000000215 0 1 I I #
point $-1 -1 $-1 231.13999999999999 336.48649999999998 444.5 #
point $-1 -1 $-1 231.13999999999999 328.99349999999993 444.5 #
model_id-kcp-attrib $-1 -1 $-1 $-1 $272 1 1021489579 1021489579 -749404159 13 #
face $317 -1 $-1 $318 $319 $6 $-1 $320 forward single #
loop $-1 -1 $-1 $-1 $321 $272 #
torus-surface $-1 -1 $-1 419.006894606841 270.31874952520934 447.37514393498464 -3.1190328098062976e-015 0.046011556477183718 0.99894090749680831 12.700000000000003 4.7624999999999993 0.79288629955763112 0.6087242266097852 -0.028038044013902919 forward_v I I I I #
coedge $-1 -1 $-1 $322 $279 $323 $324 forward $273 $-1 #
coedge $-1 -1 $-1 $323 $275 $325 $326 reversed $249 $-1 #
coedge $-1 -1 $-1 $275 $323 $276 $304 forward $249 $-1 #
coedge $-1 -1 $-1 $279 $322 $275 $303 reversed $273 $-1 #
edge $-1 -1 $-1 $305 0 $327 3.2406975169974066 $302 $328 forward @7 unknown #
edge $-1 -1 $-1 $281 9.1289134284869076e-015 $305 3.1415926535897905 $276 $329 forward @7 unknown #
vertex $-1 -1 $-1 $278 $330 #
ellipse-curve $-1 -1 $-1 348.70810539315886 320.06353298889712 445.30324472600262 0 -0.046011556477182088 -0.99894090749680842 0 17.438967011102971 -0.80324472600261743 1 I I #
ellipse-curve $-1 -1 $-1 358.77776139754081 327.7842481527349 444.72826360828373 0.60936960539052831 -0.79204655962188519 0.036481932752083238 3.772121740199228 2.9060612821364744 0.085508196002719916 1 I I #
point $-1 -1 $-1 355.00563965734159 324.87818687059843 444.64275541228096 #
coedge $-1 -1 $-1 $331 $285 $290 $315 forward $311 $-1 #
coedge $-1 -1 $-1 $285 $331 $289 $314 reversed $311 $-1 #
loop $-1 -1 $-1 $-1 $309 $332 #
ellipse-curve $-1 -1 $-1 231.13999999999999 332.73999999999995 444.5 -1 0 0 0 3.7465000000000215 0 1 I I #
coedge $-1 -1 $-1 $290 $289 $333 $334 reversed $291 $-1 #
edge $-1 -1 $-1 $265 0 $335 4.628665566659798 $310 $336 forward @7 unknown #
edge $-1 -1 $-1 $267 0 $337 4.628665566659798 $309 $338 forward @7 unknown #
face $339 -1 $-1 $332 $291 $6 $-1 $340 reversed single #
model_id-kcp-attrib $-1 -1 $-1 $-1 $296 1 1021489579 1021489579 -749404159 14 #
face $341 -1 $-1 $342 $343 $6 $-1 $344 forward single #
loop $-1 -1 $-1 $-1 $345 $296 #
torus-surface $-1 -1 $-1 419.006894606841 270.31874952520934 447.37514393498464 -3.1190328098062976e-015 0.046011556477183718 0.99894090749680831 12.700000000000003 4.7624999999999993 0.79288629955763112 0.6087242266097852 -0.028038044013902919 forward_v I I I I #
coedge $-1 -1 $-1 $346 $347 $348 $349 forward $297 $-1 #
coedge $-1 -1 $-1 $302 $299 $347 $350 reversed $273 $-1 #
coedge $-1 -1 $-1 $301 $300 $299 $324 reversed $249 $-1 #
edge $-1 -1 $-1 $281 0 $351 3.2406975169974044 $299 $352 forward @7 unknown #
coedge $-1 -1 $-1 $345 $348 $300 $326 forward $319 $-1 #
edge $-1 -1 $-1 $351 -7.5478737301484757e-015 $327 3.1415926535898331 $300 $353 forward @7 unknown #
vertex $-1 -1 $-1 $303 $354 #
straight-curve $-1 -1 $-1 362.54988313774004 330.69030943487138 444.81377180428643 15.477987976919376 -20.117982614395913 0.92664109190291299 I I #
ellipse-curve $-1 -1 $-1 358.77776139754081 327.7842481527349 444.72826360828373 0.60936960539052831 -0.79204655962188519 0.036481932752083238 -3.772121740199228 -2.9060612821364744 -0.085508196002719916 1 I I #
point $-1 -1 $-1 362.54988313774004 330.69030943487138 444.81377180428643 #
coedge $-1 -1 $-1 $310 $309 $355 $356 reversed $311 $-1 #
face $357 -1 $-1 $262 $311 $6 $-1 $358 reversed single #
coedge $-1 -1 $-1 $359 $360 $313 $334 forward $361 $-1 #
edge $-1 -1 $-1 $337 0 $335 3.1415926535897931 $313 $362 forward @7 unknown #
vertex $-1 -1 $-1 $314 $363 #
straight-curve $-1 -1 $-1 231.13999999999999 336.48649999999998 444.5 25.399999999999999 2.9243502087790334e-014 0 I I #
vertex $-1 -1 $-1 $356 $364 #
straight-curve $-1 -1 $-1 231.13999999999999 328.99349999999993 444.5 25.399999999999999 2.9243502087790334e-014 0 I I #
model_id-kcp-attrib $-1 -1 $-1 $-1 $316 1 1021489579 1021489579 -749404159 26 #
cone-surface $-1 -1 $-1 231.13999999999999 332.73999999999995 444.5 1 1.1513189798342652e-015 0 -4.3134165579490741e-015 3.7464999999999997 0 1 I I 0 1 3.7464999999999997 forward I I I I #
model_id-kcp-attrib $-1 -1 $-1 $-1 $318 1 1021489579 1021489579 -749404159 15 #
face $365 -1 $-1 $366 $367 $6 $-1 $368 forward single #
loop $-1 -1 $-1 $-1 $369 $318 #
cone-surface $-1 -1 $-1 419.006894606841 257.63219999999984 447.95949070224486 1 0 0 0 4.7624999999999993 0 1 I I 0 1 4.7624999999999993 forward I I I I #
coedge $-1 -1 $-1 $370 $325 $371 $372 forward $319 $-1 #
coedge $-1 -1 $-1 $371 $321 $373 $374 reversed $297 $-1 #
coedge $-1 -1 $-1 $321 $371 $322 $350 forward $297 $-1 #
coedge $-1 -1 $-1 $325 $370 $321 $349 reversed $319 $-1 #
edge $-1 -1 $-1 $351 1.097062023417814e-015 $375 0.9155310420734889 $321 $376 forward @7 unknown #
edge $-1 -1 $-1 $327 3.8155431729253068e-015 $351 3.1415926535898211 $322 $377 forward @7 unknown #
vertex $-1 -1 $-1 $350 $378 #
straight-curve $-1 -1 $-1 355.00563965734159 324.87818687059843 444.64275541228096 15.477987976919367 -20.117982614395917 0.92664109190291311 I I #
ellipse-curve $-1 -1 $-1 408.9372386024591 262.58795184726512 447.73122709396114 0.60936960539052276 -0.7920465596218893 0.03648193275208312 -3.772121740199228 -2.9060612821364291 -0.085508196002629683 1 I I #
point $-1 -1 $-1 412.70936034265833 265.49401312940154 447.81673528996396 #
coedge $-1 -1 $-1 $379 $380 $331 $356 forward $381 $-1 #
edge $-1 -1 $-1 $335 0 $337 3.1415926535897931 $331 $382 forward @7 unknown #
model_id-kcp-attrib $-1 -1 $-1 $-1 $332 1 1021489579 1021489579 -749404159 27 #
cone-surface $-1 -1 $-1 231.13999999999999 332.73999999999995 444.5 1 1.1513189798342652e-015 0 -4.3134165579490741e-015 3.7464999999999997 0 1 I I 0 1 3.7464999999999997 forward I I I I #
coedge $-1 -1 $-1 $383 $333 $380 $384 forward $361 $-1 #
coedge $-1 -1 $-1 $333 $383 $379 $385 reversed $361 $-1 #
loop $-1 -1 $-1 $-1 $359 $386 #
ellipse-curve $-1 -1 $-1 348.70810539315886 332.74000000000012 444.5 -1 0 0 0 -3.7465000000000215 0 1 I I #
point $-1 -1 $-1 348.70810539315886 336.48650000000015 444.5 #
point $-1 -1 $-1 348.70810539315886 328.9935000000001 444.5 #
model_id-kcp-attrib $-1 -1 $-1 $-1 $342 1 1021489579 1021489579 -749404159 16 #
face $387 -1 $-1 $388 $389 $6 $-1 $390 forward single #
loop $-1 -1 $-1 $-1 $391 $342 #
cone-surface $-1 -1 $-1 419.006894606841 257.63219999999984 447.95949070224486 1 0 0 0 4.7624999999999993 0 1 I I 0 1 4.7624999999999993 forward I I I I #
coedge $-1 -1 $-1 $392 $393 $394 $395 forward $343 $-1 #
coedge $-1 -1 $-1 $348 $345 $393 $396 reversed $319 $-1 #
coedge $-1 -1 $-1 $347 $346 $345 $372 reversed $297 $-1 #
edge $-1 -1 $-1 $327 6.753662709318962e-017 $397 0.91553104207348956 $371 $398 forward @7 unknown #
coedge $-1 -1 $-1 $391 $394 $346 $374 forward $367 $-1 #
edge $-1 -1 $-1 $397 0 $375 3.1415926535897931 $346 $399 forward @7 unknown #
vertex $-1 -1 $-1 $374 $400 #
ellipse-curve $-1 -1 $-1 419.006894606841 270.30866701110284 447.15624597624219 3.3454469710418621e-015 0.046011556477188686 0.99894090749680808 -13.841777744581123 -10.626776445974176 0.48947292171635082 1 I I #
ellipse-curve $-1 -1 $-1 408.9372386024591 262.58795184726512 447.73122709396131 0.60936960539052742 -0.79204655962188586 0.036481932752083231 3.7721217401991827 2.9060612821364291 0.085508196002629683 1 I I #
point $-1 -1 $-1 405.16511686225988 259.68189056512864 447.64571889795855 #
coedge $-1 -1 $-1 $401 $355 $360 $385 forward $381 $-1 #
coedge $-1 -1 $-1 $355 $401 $359 $384 reversed $381 $-1 #
loop $-1 -1 $-1 $-1 $379 $402 #
ellipse-curve $-1 -1 $-1 348.70810539315886 332.74000000000012 444.5 -1 0 0 0 3.7465000000000215 0 1 I I #
coedge $-1 -1 $-1 $360 $359 $403 $404 reversed $361 $-1 #
edge $-1 -1 $-1 $335 0 $405 0.91553104207349101 $380 $406 forward @7 unknown #
edge $-1 -1 $-1 $337 0 $407 0.91553104207349612 $379 $408 forward @7 unknown #
face $409 -1 $-1 $316 $361 $6 $-1 $410 reversed single #
model_id-kcp-attrib $-1 -1 $-1 $-1 $366 1 1021489579 1021489579 -749404159 17 #
face $411 -1 $-1 $412 $413 $6 $-1 $414 reversed single #
loop $-1 -1 $-1 $415 $416 $366 #
plane-surface $-1 -1 $-1 438.14999999999998 257.63219999999984 447.95949070224486 1 0 0 0 25.399999999999999 0 forward_v I I I I #
coedge $-1 -1 $-1 $417 $373 $418 $419 forward $367 $-1 #
coedge $-1 -1 $-1 $418 $369 $416 $420 reversed $343 $-1 #
coedge $-1 -1 $-1 $369 $418 $370 $396 forward $343 $-1 #
coedge $-1 -1 $-1 $373 $417 $369 $395 reversed $367 $-1 #
edge $-1 -1 $-1 $397 0 $421 0.75366556665980222 $394 $422 forward @7 unknown #
edge $-1 -1 $-1 $375 0 $397 3.1415926535897931 $370 $423 forward @7 unknown #
vertex $-1 -1 $-1 $372 $424 #
ellipse-curve $-1 -1 $-1 419.006894606841 270.32883203931584 447.59404189372714 -1.4228293212143502e-014 0.04601155647717519 0.99894090749680875 -6.2975342641827119 -4.8348189099143326 0.22269339623681289 1 I I #
ellipse-curve $-1 -1 $-1 419.006894606841 257.63219999999984 447.95949070224486 1 0 0 0 4.7624999999999993 0 1 I I #
point $-1 -1 $-1 419.006894606841 252.86969999999982 447.95949070224486 #
coedge $-1 -1 $-1 $380 $379 $425 $426 reversed $381 $-1 #
face $427 -1 $-1 $386 $381 $6 $-1 $428 reversed single #
coedge $-1 -1 $-1 $429 $430 $383 $404 forward $431 $-1 #
edge $-1 -1 $-1 $407 -6.5610771765578767e-015 $405 3.141592653589802 $383 $432 forward @7 unknown #
vertex $-1 -1 $-1 $384 $433 #
ellipse-curve $-1 -1 $-1 348.70810539315886 320.06138205255445 445.2565464948043 0 -0.046011556477187389 -0.99894090749680819 0 16.425117947445706 -0.75654649480432568 1 I I #
vertex $-1 -1 $-1 $426 $434 #
ellipse-curve $-1 -1 $-1 348.70810539315886 320.04551889702685 444.91214703971627 0 -0.046011556477193731 -0.99894090749680786 0 8.9479811029732499 -0.4121470397162923 1 I I #
model_id-kcp-attrib $-1 -1 $-1 $-1 $386 1 1021489579 1021489579 -749404159 25 #
torus-surface $-1 -1 $-1 348.70810539315886 320.05345047479062 445.08434676726029 0 -0.046011556477189623 -0.99894090749680808 12.699999999999996 3.7464999999999997 0 -0.99894090749680808 0.046011556477189623 forward_v I I I I #
model_id-kcp-attrib $-1 -1 $-1 $-1 $388 1 1021489579 1021489579 -749404159 18 #
face $435 -1 $-1 $436 $437 $6 $-1 $438 reversed single #
loop $-1 -1 $-1 $-1 $439 $388 #
cone-surface $-1 -1 $-1 419.006894606841 257.63219999999984 447.95949070224486 1 0 0 0 3.7464999999999997 0 1 I I 0 1 3.7464999999999997 forward I I I I #
loop $-1 -1 $-1 $-1 $440 $366 #
coedge $-1 -1 $-1 $441 $441 $392 $420 forward $389 $-1 #
coedge $-1 -1 $-1 $394 $391 $441 $442 reversed $367 $-1 #
coedge $-1 -1 $-1 $393 $392 $391 $419 reversed $343 $-1 #
edge $-1 -1 $-1 $375 0 $443 0.75366556665980222 $391 $444 forward @7 unknown #
edge $445 -1 $-1 $443 0 $421 3.1415926535897931 $416 $446 forward @7 unknown #
vertex $-1 -1 $-1 $442 $447 #
straight-curve $-1 -1 $-1 419.006894606841 262.39469999999983 447.95949070224486 25.399999999999999 0 0 I I #
ellipse-curve $-1 -1 $-1 419.006894606841 257.63219999999984 447.95949070224486 1 0 0 0 -4.7624999999999993 0 1 I I #
point $-1 -1 $-1 419.006894606841 262.39469999999983 447.95949070224486 #
coedge $-1 -1 $-1 $448 $449 $401 $426 forward $450 $-1 #
edge $-1 -1 $-1 $405 8.8707028975403591e-015 $407 3.1415926535897869 $401 $451 forward @7 unknown #
model_id-kcp-attrib $-1 -1 $-1 $-1 $402 1 1021489579 1021489579 -749404159 24 #
torus-surface $-1 -1 $-1 348.70810539315886 320.05345047479062 445.08434676726029 0 -0.046011556477189623 -0.99894090749680808 12.699999999999996 3.7464999999999997 0 -0.99894090749680808 0.046011556477189623 forward_v I I I I #
coedge $-1 -1 $-1 $452 $403 $449 $453 forward $431 $-1 #
coedge $-1 -1 $-1 $403 $452 $448 $454 reversed $431 $-1 #
loop $-1 -1 $-1 $-1 $429 $455 #
ellipse-curve $-1 -1 $-1 358.77776139754081 327.7842481527349 444.72826360828373 -0.60936960539052942 0.79204655962188419 -0.036481932752083258 -2.9674024356233937 -2.2861015419473683 -0.067266447522148096 1 I I #
point $-1 -1 $-1 361.74516383316421 330.07034969468225 444.79553005580584 #
point $-1 -1 $-1 355.81035896191742 325.4981466107875 444.66099716076155 #
model_id-kcp-attrib $-1 -1 $-1 $-1 $412 1 1021489579 1021489579 -749404159 19 #
face $456 -1 $-1 $457 $458 $6 $-1 $459 reversed single #
loop $-1 -1 $-1 $-1 $460 $412 #
cone-surface $-1 -1 $-1 419.006894606841 257.63219999999984 447.95949070224486 1 0 0 0 3.7464999999999997 0 1 I I 0 1 3.7464999999999997 forward I I I I #
coedge $-1 -1 $-1 $461 $462 $463 $464 forward $413 $-1 #
coedge $-1 -1 $-1 $465 $465 $461 $466 forward $415 $-1 #
coedge $-1 -1 $-1 $416 $416 $417 $442 forward $389 $-1 #
edge $467 -1 $-1 $421 0 $443 3.1415926535897931 $441 $468 forward @7 unknown #
vertex $-1 -1 $-1 $442 $469 #
straight-curve $-1 -1 $-1 419.006894606841 252.86969999999982 447.95949070224486 25.399999999999999 0 0 I I #
attrib_edge_convexity-kcp-attrib $-1 -1 $470 $-1 $420 1 #
ellipse-curve $-1 -1 $-1 438.14999999999998 257.63219999999984 447.95949070224486 1 0 0 0 -4.7624999999999993 0 1 I I #
point $-1 -1 $-1 438.14999999999998 262.39469999999983 447.95949070224486 #
coedge $-1 -1 $-1 $471 $425 $430 $454 forward $450 $-1 #
coedge $-1 -1 $-1 $425 $471 $429 $453 reversed $450 $-1 #
loop $-1 -1 $-1 $-1 $448 $472 #
ellipse-curve $-1 -1 $-1 358.77776139754081 327.7842481527349 444.72826360828373 -0.60936960539052942 0.79204655962188419 -0.036481932752083258 2.9674024356233937 2.2861015419473683 0.067266447522148096 1 I I #
coedge $-1 -1 $-1 $430 $429 $473 $474 reversed $431 $-1 #
edge $-1 -1 $-1 $405 0 $475 3.240697516997403 $449 $476 forward @7 unknown #
edge $-1 -1 $-1 $407 0 $477 3.2406975169974044 $448 $478 forward @7 unknown #
face $479 -1 $-1 $472 $431 $6 $-1 $480 reversed single #
model_id-kcp-attrib $-1 -1 $-1 $-1 $436 1 1021489579 1021489579 -749404159 20 #
face $481 -1 $-1 $455 $482 $6 $-1 $483 reversed single #
loop $-1 -1 $-1 $-1 $484 $436 #
torus-surface $-1 -1 $-1 419.006894606841 270.31874952520934 447.37514393498464 -3.1190328098062976e-015 0.046011556477183718 0.99894090749680831 12.700000000000003 3.7464999999999997 0.79288629955763112 0.6087242266097852 -0.028038044013902919 forward_v I I I I #
coedge $-1 -1 $-1 $485 $486 $487 $488 forward $437 $-1 #
coedge $-1 -1 $-1 $487 $439 $440 $466 reversed $413 $-1 #
coedge $-1 -1 $-1 $439 $487 $489 $490 forward $413 $-1 #
coedge $-1 -1 $-1 $486 $485 $439 $464 reversed $437 $-1 #
edge $-1 -1 $-1 $491 0 $492 0.75366556665980222 $463 $493 forward @7 unknown #
coedge $-1 -1 $-1 $440 $440 $485 $494 forward $415 $-1 #
edge $495 -1 $-1 $496 0 $492 3.1415926535897931 $440 $497 forward @7 unknown #
attrib_edge_convexity-kcp-attrib $-1 -1 $498 $-1 $442 1 #
ellipse-curve $-1 -1 $-1 438.14999999999998 257.63219999999984 447.95949070224486 1 0 0 0 4.7624999999999993 0 1 I I #
point $-1 -1 $-1 438.14999999999998 252.86969999999982 447.95949070224486 #
convexity-sys-attrib $-1 -1 $-1 $445 $420 #
coedge $-1 -1 $-1 $449 $448 $499 $500 reversed $450 $-1 #
face $501 -1 $-1 $402 $450 $6 $-1 $502 reversed single #
coedge $-1 -1 $-1 $503 $504 $452 $474 forward $482 $-1 #
edge $-1 -1 $-1 $477 -6.5610771765578767e-015 $475 3.1415926535898011 $452 $505 forward @7 unknown #
vertex $-1 -1 $-1 $453 $506 #
straight-curve $-1 -1 $-1 361.74516383316421 330.07034969468225 444.79553005580584 15.477987976919376 -20.117982614395913 0.92664109190291299 I I #
vertex $-1 -1 $-1 $500 $507 #
straight-curve $-1 -1 $-1 355.81035896191742 325.4981466107875 444.66099716076155 15.477987976919367 -20.117982614395917 0.92664109190291311 I I #
model_id-kcp-attrib $-1 -1 $-1 $-1 $455 1 1021489579 1021489579 -749404159 22 #
cone-surface $-1 -1 $-1 358.77776139754081 327.7842481527349 444.72826360828373 0.60936960539052643 -0.79204655962188664 0.036481932752083203 2.9674024356233977 2.2861015419473545 0.067266447522173173 1 I I 0 1 3.7464999999999997 forward I I I I #
model_id-kcp-attrib $-1 -1 $-1 $-1 $457 1 1021489579 1021489579 -749404159 21 #
loop $-1 -1 $-1 $-1 $503 $457 #
torus-surface $-1 -1 $-1 419.006894606841 270.31874952520934 447.37514393498464 -3.1190328098062976e-015 0.046011556477183718 0.99894090749680831 12.700000000000003 3.7464999999999997 0.79288629955763112 0.6087242266097852 -0.028038044013902919 forward_v I I I I #
coedge $-1 -1 $-1 $508 $499 $504 $509 forward $458 $-1 #
coedge $-1 -1 $-1 $463 $460 $465 $494 reversed $437 $-1 #
coedge $-1 -1 $-1 $460 $463 $508 $510 forward $437 $-1 #
coedge $-1 -1 $-1 $462 $461 $460 $488 reversed $413 $-1 #
edge $-1 -1 $-1 $511 0 $496 0.75366556665980222 $460 $512 forward @7 unknown #
coedge $-1 -1 $-1 $504 $503 $462 $490 reversed $482 $-1 #
edge $-1 -1 $-1 $511 0 $491 3.1415926535897931 $489 $513 forward @7 unknown #
vertex $-1 -1 $-1 $514 $515 #
vertex $-1 -1 $-1 $494 $516 #
straight-curve $-1 -1 $-1 419.006894606841 261.37869999999987 447.95949070224486 25.399999999999999 0 0 I I #
edge $517 -1 $-1 $492 0 $496 3.1415926535897931 $465 $518 forward @7 unknown #
attrib_edge_convexity-kcp-attrib $-1 -1 $519 $-1 $466 1 #
vertex $-1 -1 $-1 $494 $520 #
ellipse-curve $-1 -1 $-1 438.14999999999998 257.63219999999984 447.95949070224486 -1 0 0 0 -3.7465000000000215 0 1 I I #
convexity-sys-attrib $-1 -1 $-1 $467 $442 #
coedge $-1 -1 $-1 $484 $521 $471 $500 forward $458 $-1 #
edge $-1 -1 $-1 $475 8.7599674177674178e-015 $477 3.1415926535897869 $471 $522 forward @7 unknown #
model_id-kcp-attrib $-1 -1 $-1 $-1 $472 1 1021489579 1021489579 -749404159 23 #
cone-surface $-1 -1 $-1 358.77776139754081 327.7842481527349 444.72826360828373 0.60936960539052643 -0.79204655962188664 0.036481932752083203 2.9674024356233977 2.2861015419473545 0.067266447522173173 1 I I 0 1 3.7464999999999997 forward I I I I #
coedge $-1 -1 $-1 $489 $473 $521 $514 forward $482 $-1 #
coedge $-1 -1 $-1 $473 $489 $484 $509 reversed $482 $-1 #
ellipse-curve $-1 -1 $-1 408.9372386024591 262.58795184726512 447.73122709396125 -0.60936960539052942 0.79204655962188419 -0.036481932752083258 -2.9674024356233937 -2.2861015419473683 -0.067266447522148096 1 I I #
point $-1 -1 $-1 411.90464103808245 264.87405338921246 447.79849354148337 #
point $-1 -1 $-1 405.96983616683571 260.30185030531771 447.66396064643908 #
coedge $-1 -1 $-1 $521 $484 $486 $510 reversed $458 $-1 #
edge $-1 -1 $-1 $477 1.0818599293993305e-015 $511 0.91553104207348734 $484 $523 forward @7 unknown #
edge $-1 -1 $-1 $491 0 $511 3.1415926535897931 $508 $524 forward @7 unknown #
vertex $-1 -1 $-1 $510 $525 #
straight-curve $-1 -1 $-1 419.006894606841 253.88569999999982 447.95949070224486 25.399999999999999 0 0 I I #
ellipse-curve $-1 -1 $-1 419.006894606841 257.63219999999984 447.95949070224486 -1 0 0 0 -3.7465000000000215 0 1 I I #
edge $-1 -1 $-1 $475 -3.459232228281687e-015 $491 0.91553104207349312 $521 $526 forward @7 unknown #
point $-1 -1 $-1 419.006894606841 261.37869999999987 447.95949070224486 #
point $-1 -1 $-1 438.14999999999998 261.37869999999987 447.95949070224486 #
attrib_edge_convexity-kcp-attrib $-1 -1 $527 $-1 $494 1 #
ellipse-curve $-1 -1 $-1 438.14999999999998 257.63219999999984 447.95949070224486 -1 0 0 0 3.7465000000000215 0 1 I I #
convexity-sys-attrib $-1 -1 $-1 $495 $466 #
point $-1 -1 $-1 438.14999999999998 253.88569999999982 447.95949070224486 #
coedge $-1 -1 $-1 $499 $508 $503 $514 reversed $458 $-1 #
ellipse-curve $-1 -1 $-1 408.9372386024591 262.58795184726512 447.73122709396125 -0.60936960539053531 0.79204655962187975 -0.036481932752083411 2.9674024356233488 2.2861015419473683 0.067266447522148096 1 I I #
ellipse-curve $-1 -1 $-1 419.006894606841 270.31081794744557 447.20294420744062 -1.6434284409064541e-015 0.046011556477184863 0.99894090749680831 -13.037058440005289 -10.00896764212783 0.46101643899845041 1 I I #
ellipse-curve $-1 -1 $-1 419.006894606841 257.63219999999984 447.95949070224486 -1 0 0 0 3.7465000000000215 0 1 I I #
point $-1 -1 $-1 419.006894606841 253.88569999999982 447.95949070224486 #
ellipse-curve $-1 -1 $-1 419.006894606841 270.32668110297311 447.54734366252876 -1.1068126142499874e-014 0.046011556477177626 0.99894090749680864 -7.1022535687585462 -5.4526277137606787 0.25114987895462304 1 I I #
convexity-sys-attrib $-1 -1 $-1 $517 $494 #
End-of-ACIS-data 