600 0 1 0           
84 GICL ACIS Healer - Source: /gicl/data5/repository/PTC/V18/piping18/suction.sat - 6 0 18 ACIS 6.0.3 Solaris 24 Sat Apr 13 21:19:48 2002 
1 9.999999999999999547e-07 1.000000000000000036e-10 
body $-1 $1 $-1 $-1 #
lump $-1 $-1 $2 $0 #
shell $-1 $-1 $-1 $3 $-1 $1 #
face $-1 $4 $5 $2 $-1 $6 reversed single #
face $-1 $7 $8 $2 $-1 $9 forward single #
loop $-1 $10 $11 $3 #
plane-surface $-1 218.4399999999999693 307.339999999999975 444.5 0 1 0 -25.39999999999999858 0 0 forward_v I I I I #
face $-1 $12 $13 $2 $-1 $14 forward single #
loop $-1 $-1 $15 $4 #
cone-surface $-1 218.4399999999999693 307.339999999999975 444.5 0 1 0 -4.762499999999999289 0 0 1 I I 0 1 4.762499999999999289 forward I I I I #
loop $-1 $-1 $16 $3 #
coedge $-1 $17 $17 $18 $19 reversed $5 $-1 #
face $-1 $20 $21 $2 $-1 $22 forward single #
loop $-1 $-1 $23 $7 #
cone-surface $-1 218.4399999999999693 307.339999999999975 444.5 0 1 0 -4.762499999999999289 0 0 1 I I 0 1 4.762499999999999289 forward I I I I #
coedge $-1 $24 $18 $25 $26 forward $8 $-1 #
coedge $-1 $27 $27 $28 $29 reversed $10 $-1 #
coedge $-1 $11 $11 $30 $31 reversed $5 $-1 #
coedge $-1 $15 $32 $11 $19 forward $8 $-1 #
edge $-1 $33 0 $34 3.141592653589793116 $11 $35 forward 7 unknown #
face $-1 $36 $37 $2 $-1 $38 forward single #
loop $-1 $-1 $39 $12 #
torus-surface $-1 231.1399999999999864 320.0399999999999636 444.5 0 0 -1 12.69999999999999929 4.762499999999999289 1 0 0 forward_v I I I I #
coedge $-1 $40 $30 $32 $41 forward $13 $-1 #
coedge $-1 $32 $15 $42 $43 reversed $8 $-1 #
coedge $-1 $30 $40 $15 $26 reversed $13 $-1 #
edge $-1 $34 0 $44 0.4999999999999995559 $25 $45 forward 7 unknown #
coedge $-1 $16 $16 $46 $47 reversed $10 $-1 #
coedge $-1 $48 $49 $16 $29 forward $50 $-1 #
edge $-1 $51 0 $52 3.141592653589793116 $16 $53 forward 7 unknown #
coedge $-1 $23 $25 $17 $31 forward $13 $-1 #
edge $-1 $34 0 $33 3.141592653589793116 $17 $54 forward 7 unknown #
coedge $-1 $18 $24 $23 $41 reversed $8 $-1 #
vertex $-1 $31 $55 #
vertex $-1 $31 $56 #
ellipse-curve $-1 218.4399999999999693 307.339999999999975 444.5 0 1 0 4.762499999999999289 0 0 1 I I #
face $-1 $57 $58 $2 $-1 $59 forward single #
loop $-1 $-1 $60 $20 #
torus-surface $-1 231.1399999999999864 320.0399999999999636 444.5 0 0 -1 12.69999999999999929 4.762499999999999289 1 0 0 forward_v I I I I #
coedge $-1 $61 $62 $63 $64 forward $21 $-1 #
coedge $-1 $25 $23 $62 $65 reversed $13 $-1 #
edge $-1 $33 0 $66 0.4999999999999995559 $23 $67 forward 7 unknown #
coedge $-1 $60 $63 $24 $43 forward $37 $-1 #
edge $-1 $66 0 $44 3.141592653589793116 $24 $68 forward 7 unknown #
vertex $-1 $26 $69 #
straight-curve $-1 213.6774999999999807 307.339999999999975 444.5 0 25.39999999999999858 0 I I #
coedge $-1 $70 $71 $27 $47 forward $72 $-1 #
edge $-1 $52 0 $51 3.141592653589793116 $27 $73 forward 7 unknown #
coedge $-1 $74 $28 $71 $75 forward $50 $-1 #
coedge $-1 $28 $74 $70 $76 reversed $50 $-1 #
loop $-1 $-1 $48 $77 #
vertex $-1 $47 $78 #
vertex $-1 $47 $79 #
ellipse-curve $-1 218.4399999999999693 307.339999999999975 444.5 0 -1 0 3.74650000000002148 0 0 1 I I #
ellipse-curve $-1 218.4399999999999693 307.339999999999975 444.5 0 1 0 -4.762499999999999289 0 0 1 I I #
point $-1 223.2024999999999864 307.339999999999975 444.5 #
point $-1 213.6774999999999807 307.339999999999975 444.5 #
face $-1 $80 $81 $2 $-1 $82 forward single #
loop $-1 $-1 $83 $36 #
cone-surface $-1 231.1399999999999864 332.7399999999999523 444.5 1 1.151318979834265182e-15 0 -5.483156641460687544e-15 4.762499999999999289 0 1 I I 0 1 4.762499999999999289 forward I I I I #
coedge $-1 $84 $42 $85 $86 forward $37 $-1 #
coedge $-1 $85 $39 $87 $88 reversed $21 $-1 #
coedge $-1 $39 $85 $40 $65 forward $21 $-1 #
coedge $-1 $42 $84 $39 $64 reversed $37 $-1 #
edge $-1 $66 0 $89 1.570796326794896558 $39 $90 forward 7 unknown #
edge $-1 $44 0 $66 3.141592653589793116 $40 $91 forward 7 unknown #
vertex $-1 $65 $92 #
straight-curve $-1 223.2024999999999864 307.339999999999975 444.5 0 25.39999999999999858 0 I I #
ellipse-curve $-1 218.4399999999999693 320.0399999999999636 444.5 0 1 0 4.762499999999999289 0 0 1 I I #
point $-1 213.6774999999999807 320.0399999999999636 444.5 #
coedge $-1 $93 $46 $49 $76 forward $72 $-1 #
coedge $-1 $46 $93 $48 $75 reversed $72 $-1 #
loop $-1 $-1 $70 $94 #
ellipse-curve $-1 218.4399999999999693 307.339999999999975 444.5 0 -1 0 -3.74650000000002148 0 0 1 I I #
coedge $-1 $49 $48 $95 $96 reversed $50 $-1 #
edge $-1 $52 0 $97 0.4999999999999995559 $71 $98 forward 7 unknown #
edge $-1 $51 0 $99 0.4999999999999995559 $70 $100 forward 7 unknown #
face $-1 $94 $50 $2 $-1 $101 reversed single #
point $-1 222.1864999999999952 307.339999999999975 444.5 #
point $-1 214.6934999999999434 307.339999999999975 444.5 #
face $-1 $102 $103 $2 $-1 $104 forward single #
loop $-1 $-1 $105 $57 #
cone-surface $-1 231.1399999999999864 332.7399999999999523 444.5 1 1.151318979834265182e-15 0 -5.483156641460687544e-15 4.762499999999999289 0 1 I I 0 1 4.762499999999999289 forward I I I I #
coedge $-1 $106 $107 $108 $109 forward $58 $-1 #
coedge $-1 $63 $60 $107 $110 reversed $37 $-1 #
coedge $-1 $62 $61 $60 $86 reversed $21 $-1 #
edge $-1 $44 0 $111 1.570796326794896558 $85 $112 forward 7 unknown #
coedge $-1 $105 $108 $61 $88 forward $81 $-1 #
edge $-1 $111 0 $89 3.141592653589793116 $61 $113 forward 7 unknown #
vertex $-1 $88 $114 #
ellipse-curve $-1 231.1399999999999864 320.0399999999999636 444.5 0 0 -1 -7.9375 0 0 1 I I #
ellipse-curve $-1 218.4399999999999693 320.0399999999999636 444.5 0 1 0 -4.762499999999999289 0 0 1 I I #
point $-1 223.2024999999999864 320.0399999999999636 444.5 #
coedge $-1 $71 $70 $115 $116 reversed $72 $-1 #
face $-1 $-1 $72 $2 $-1 $117 reversed single #
coedge $-1 $118 $119 $74 $96 forward $120 $-1 #
edge $-1 $99 0 $97 3.141592653589793116 $74 $121 forward 7 unknown #
vertex $-1 $75 $122 #
straight-curve $-1 214.6934999999999434 307.339999999999975 444.5 0 25.39999999999999858 0 I I #
vertex $-1 $116 $123 #
straight-curve $-1 222.1864999999999952 307.339999999999975 444.5 0 25.39999999999999858 0 I I #
cone-surface $-1 218.4399999999999693 307.339999999999975 444.5 0 1 0 -3.746499999999999719 0 0 1 I I 0 1 3.746499999999999719 forward I I I I #
face $-1 $124 $125 $2 $-1 $126 forward single #
loop $-1 $-1 $127 $80 #
torus-surface $-1 348.7081053931588599 320.0534504747906226 445.0843467672602856 0 -0.04601155647718962322 -0.9989409074968080837 12.69999999999999574 4.762499999999999289 0 -0.9989409074968080837 0.04601155647718962322 forward_v I I I I #
coedge $-1 $128 $87 $129 $130 forward $81 $-1 #
coedge $-1 $129 $83 $131 $132 reversed $58 $-1 #
coedge $-1 $83 $129 $84 $110 forward $58 $-1 #
coedge $-1 $87 $128 $83 $109 reversed $81 $-1 #
edge $-1 $111 0 $133 4.628665566659798003 $108 $134 forward 7 unknown #
edge $-1 $89 0 $111 3.141592653589793116 $84 $135 forward 7 unknown #
vertex $-1 $86 $136 #
ellipse-curve $-1 231.1399999999999864 320.0399999999999636 444.5 0 0 -1 -17.46249999999999858 0 0 1 I I #
ellipse-curve $-1 231.1399999999999864 332.7399999999999523 444.5 1 0 0 0 4.762499999999999289 0 1 I I #
point $-1 231.1399999999999864 327.9774999999999636 444.5 #
coedge $-1 $137 $138 $93 $116 forward $139 $-1 #
edge $-1 $97 0 $99 3.141592653589793116 $93 $140 forward 7 unknown #
cone-surface $-1 218.4399999999999693 307.339999999999975 444.5 0 1 0 -3.746499999999999719 0 0 1 I I 0 1 3.746499999999999719 forward I I I I #
coedge $-1 $141 $95 $138 $142 forward $120 $-1 #
coedge $-1 $95 $141 $137 $143 reversed $120 $-1 #
loop $-1 $-1 $118 $144 #
ellipse-curve $-1 218.4399999999999693 320.0399999999999636 444.5 0 -1 0 3.74650000000002148 0 0 1 I I #
point $-1 214.6934999999999434 320.0399999999999636 444.5 #
point $-1 222.1864999999999952 320.0399999999999636 444.5 #
face $-1 $145 $146 $2 $-1 $147 forward single #
loop $-1 $-1 $148 $102 #
torus-surface $-1 348.7081053931588599 320.0534504747906226 445.0843467672602856 0 -0.04601155647718962322 -0.9989409074968080837 12.69999999999999574 4.762499999999999289 0 -0.9989409074968080837 0.04601155647718962322 forward_v I I I I #
coedge $-1 $149 $150 $151 $152 forward $103 $-1 #
coedge $-1 $108 $105 $150 $153 reversed $81 $-1 #
coedge $-1 $107 $106 $105 $130 reversed $58 $-1 #
edge $-1 $89 0 $154 4.628665566659798003 $105 $155 forward 7 unknown #
coedge $-1 $148 $151 $106 $132 forward $125 $-1 #
edge $-1 $154 0 $133 3.141592653589793116 $106 $156 forward 7 unknown #
vertex $-1 $109 $157 #
straight-curve $-1 231.1399999999999864 337.5024999999999977 444.5 25.39999999999999858 2.924350208779033357e-14 0 I I #
ellipse-curve $-1 231.1399999999999864 332.7399999999999523 444.5 1 0 0 0 -4.762499999999999289 0 1 I I #
point $-1 231.1399999999999864 337.5024999999999977 444.5 #
coedge $-1 $158 $115 $119 $143 forward $139 $-1 #
coedge $-1 $115 $158 $118 $142 reversed $139 $-1 #
loop $-1 $-1 $137 $159 #
ellipse-curve $-1 218.4399999999999693 320.0399999999999636 444.5 0 -1 0 -3.74650000000002148 0 0 1 I I #
coedge $-1 $119 $118 $160 $161 reversed $120 $-1 #
edge $-1 $97 0 $162 1.570796326794896558 $138 $163 forward 7 unknown #
edge $-1 $99 0 $164 1.570796326794896558 $137 $165 forward 7 unknown #
face $-1 $77 $120 $2 $-1 $166 reversed single #
face $-1 $167 $168 $2 $-1 $169 forward single #
loop $-1 $-1 $170 $124 #
cone-surface $-1 358.7777613975408144 327.7842481527349037 444.7282636082837257 0.6093696053905264254 -0.7920465596218865256 0.03648193275208320291 3.772121740199234186 2.906061282136467749 0.08550819600276250709 1 I I 0 1 4.762499999999999289 forward I I I I #
coedge $-1 $171 $131 $172 $173 forward $125 $-1 #
coedge $-1 $172 $127 $174 $175 reversed $103 $-1 #
coedge $-1 $127 $172 $128 $153 forward $103 $-1 #
coedge $-1 $131 $171 $127 $152 reversed $125 $-1 #
edge $-1 $154 0 $176 0.9155310420734936727 $127 $177 forward 7 unknown #
edge $-1 $133 0 $154 3.141592653589793116 $128 $178 forward 7 unknown #
vertex $-1 $153 $179 #
straight-curve $-1 231.1399999999999864 327.9774999999999636 444.5 25.39999999999999858 2.924350208779033357e-14 0 I I #
ellipse-curve $-1 348.7081053931588599 332.7400000000001228 444.5 1 0 0 0 -4.762499999999999289 0 1 I I #
point $-1 348.7081053931588599 337.5025000000001114 444.5 #
coedge $-1 $138 $137 $180 $181 reversed $139 $-1 #
face $-1 $144 $139 $2 $-1 $182 reversed single #
coedge $-1 $183 $184 $141 $161 forward $185 $-1 #
edge $-1 $164 0 $162 3.141592653589793116 $141 $186 forward 7 unknown #
vertex $-1 $142 $187 #
ellipse-curve $-1 231.1399999999999864 320.0399999999999636 444.5 0 0 -1 -16.44650000000002166 0 0 1 I I #
vertex $-1 $181 $188 #
ellipse-curve $-1 231.1399999999999864 320.0399999999999636 444.5 0 0 -1 -8.953499999999978698 0 0 1 I I #
torus-surface $-1 231.1399999999999864 320.0399999999999636 444.5 0 0 -1 12.69999999999999929 3.746499999999999719 1 0 0 forward_v I I I I #
face $-1 $189 $190 $2 $-1 $191 forward single #
loop $-1 $-1 $192 $145 #
cone-surface $-1 358.7777613975408144 327.7842481527349037 444.7282636082837257 0.6093696053905264254 -0.7920465596218865256 0.03648193275208320291 3.772121740199234186 2.906061282136467749 0.08550819600276250709 1 I I 0 1 4.762499999999999289 forward I I I I #
coedge $-1 $193 $194 $195 $196 forward $146 $-1 #
coedge $-1 $151 $148 $194 $197 reversed $125 $-1 #
coedge $-1 $150 $149 $148 $173 reversed $103 $-1 #
edge $-1 $133 0 $198 0.9155310420734873444 $172 $199 forward 7 unknown #
coedge $-1 $192 $195 $149 $175 forward $168 $-1 #
edge $-1 $198 -2.794964915638619845e-15 $176 3.141592653589801998 $149 $200 forward 7 unknown #
vertex $-1 $175 $201 #
ellipse-curve $-1 348.7081053931588599 320.0433679606841224 444.8654488085177832 0 -0.04601155647718348923 -0.9989409074968083058 0 7.934132039315985985 -0.3654488085178200785 1 I I #
ellipse-curve $-1 348.7081053931588599 332.7400000000001228 444.5 1 0 0 0 4.762499999999999289 0 1 I I #
point $-1 348.7081053931588599 327.9775000000001342 444.5 #
coedge $-1 $202 $203 $158 $181 forward $204 $-1 #
edge $-1 $162 0 $164 3.141592653589793116 $158 $205 forward 7 unknown #
torus-surface $-1 231.1399999999999864 320.0399999999999636 444.5 0 0 -1 12.69999999999999929 3.746499999999999719 1 0 0 forward_v I I I I #
coedge $-1 $206 $160 $203 $207 forward $185 $-1 #
coedge $-1 $160 $206 $202 $208 reversed $185 $-1 #
loop $-1 $-1 $183 $209 #
ellipse-curve $-1 231.1399999999999864 332.7399999999999523 444.5 -1 0 0 0 -3.74650000000002148 0 1 I I #
point $-1 231.1399999999999864 336.4864999999999782 444.5 #
point $-1 231.1399999999999864 328.9934999999999263 444.5 #
face $-1 $210 $211 $2 $-1 $212 forward single #
loop $-1 $-1 $213 $167 #
torus-surface $-1 419.0068946068410014 270.3187495252093413 447.3751439349846351 -3.119032809806297578e-15 0.04601155647718371822 0.9989409074968083058 12.70000000000000284 4.762499999999999289 0.7928862995576311246 0.6087242266097852017 -0.02803804401390291856 forward_v I I I I #
coedge $-1 $214 $174 $215 $216 forward $168 $-1 #
coedge $-1 $215 $170 $217 $218 reversed $146 $-1 #
coedge $-1 $170 $215 $171 $197 forward $146 $-1 #
coedge $-1 $174 $214 $170 $196 reversed $168 $-1 #
edge $-1 $198 0 $219 3.240697516997406602 $195 $220 forward 7 unknown #
edge $-1 $176 9.128913428486907632e-15 $198 3.141592653589790451 $171 $221 forward 7 unknown #
vertex $-1 $173 $222 #
ellipse-curve $-1 348.7081053931588599 320.0635329888971228 445.3032447260026174 0 -0.04601155647718208758 -0.9989409074968084168 0 17.43896701110297087 -0.8032447260026174263 1 I I #
ellipse-curve $-1 358.7777613975408144 327.7842481527349037 444.7282636082837257 0.6093696053905283128 -0.7920465596218851934 0.0364819327520832376 3.772121740199227968 2.906061282136474411 0.08550819600271991616 1 I I #
point $-1 355.0056396573415896 324.8781868705984266 444.6427554122809624 #
coedge $-1 $223 $180 $184 $208 forward $204 $-1 #
coedge $-1 $180 $223 $183 $207 reversed $204 $-1 #
loop $-1 $-1 $202 $224 #
ellipse-curve $-1 231.1399999999999864 332.7399999999999523 444.5 -1 0 0 0 3.74650000000002148 0 1 I I #
coedge $-1 $184 $183 $225 $226 reversed $185 $-1 #
edge $-1 $162 0 $227 4.628665566659798003 $203 $228 forward 7 unknown #
edge $-1 $164 0 $229 4.628665566659798003 $202 $230 forward 7 unknown #
face $-1 $224 $185 $2 $-1 $231 reversed single #
face $-1 $232 $233 $2 $-1 $234 forward single #
loop $-1 $-1 $235 $189 #
torus-surface $-1 419.0068946068410014 270.3187495252093413 447.3751439349846351 -3.119032809806297578e-15 0.04601155647718371822 0.9989409074968083058 12.70000000000000284 4.762499999999999289 0.7928862995576311246 0.6087242266097852017 -0.02803804401390291856 forward_v I I I I #
coedge $-1 $236 $237 $238 $239 forward $190 $-1 #
coedge $-1 $195 $192 $237 $240 reversed $168 $-1 #
coedge $-1 $194 $193 $192 $216 reversed $146 $-1 #
edge $-1 $176 0 $241 3.240697516997404382 $192 $242 forward 7 unknown #
coedge $-1 $235 $238 $193 $218 forward $211 $-1 #
edge $-1 $241 -7.547873730148475689e-15 $219 3.141592653589833084 $193 $243 forward 7 unknown #
vertex $-1 $196 $244 #
straight-curve $-1 362.5498831377400393 330.6903094348713807 444.8137718042864321 15.47798797691937622 -20.11798261439591329 0.9266410919029129944 I I #
ellipse-curve $-1 358.7777613975408144 327.7842481527349037 444.7282636082837257 0.6093696053905283128 -0.7920465596218851934 0.0364819327520832376 -3.772121740199227968 -2.906061282136474411 -0.08550819600271991616 1 I I #
point $-1 362.5498831377400393 330.6903094348713807 444.8137718042864321 #
coedge $-1 $203 $202 $245 $246 reversed $204 $-1 #
face $-1 $159 $204 $2 $-1 $247 reversed single #
coedge $-1 $248 $249 $206 $226 forward $250 $-1 #
edge $-1 $229 0 $227 3.141592653589793116 $206 $251 forward 7 unknown #
vertex $-1 $207 $252 #
straight-curve $-1 231.1399999999999864 336.4864999999999782 444.5 25.39999999999999858 2.924350208779033357e-14 0 I I #
vertex $-1 $246 $253 #
straight-curve $-1 231.1399999999999864 328.9934999999999263 444.5 25.39999999999999858 2.924350208779033357e-14 0 I I #
cone-surface $-1 231.1399999999999864 332.7399999999999523 444.5 1 1.151318979834265182e-15 0 -4.313416557949074075e-15 3.746499999999999719 0 1 I I 0 1 3.746499999999999719 forward I I I I #
face $-1 $254 $255 $2 $-1 $256 forward single #
loop $-1 $-1 $257 $210 #
cone-surface $-1 419.0068946068410014 257.6321999999998411 447.9594907022448638 1 0 0 0 4.762499999999999289 0 1 I I 0 1 4.762499999999999289 forward I I I I #
coedge $-1 $258 $217 $259 $260 forward $211 $-1 #
coedge $-1 $259 $213 $261 $262 reversed $190 $-1 #
coedge $-1 $213 $259 $214 $240 forward $190 $-1 #
coedge $-1 $217 $258 $213 $239 reversed $211 $-1 #
edge $-1 $241 1.097062023417813979e-15 $263 0.9155310420734888988 $213 $264 forward 7 unknown #
edge $-1 $219 3.815543172925306757e-15 $241 3.141592653589821094 $214 $265 forward 7 unknown #
vertex $-1 $240 $266 #
straight-curve $-1 355.0056396573415896 324.8781868705984266 444.6427554122809624 15.47798797691936734 -20.11798261439591684 0.9266410919029131055 I I #
ellipse-curve $-1 408.9372386024591037 262.5879518472651171 447.7312270939611381 0.6093696053905227616 -0.7920465596218893012 0.03648193275208311964 -3.772121740199227968 -2.906061282136429114 -0.08550819600262968279 1 I I #
point $-1 412.7093603426583286 265.4940131294015373 447.8167352899639582 #
coedge $-1 $267 $268 $223 $246 forward $269 $-1 #
edge $-1 $227 0 $229 3.141592653589793116 $223 $270 forward 7 unknown #
cone-surface $-1 231.1399999999999864 332.7399999999999523 444.5 1 1.151318979834265182e-15 0 -4.313416557949074075e-15 3.746499999999999719 0 1 I I 0 1 3.746499999999999719 forward I I I I #
coedge $-1 $271 $225 $268 $272 forward $250 $-1 #
coedge $-1 $225 $271 $267 $273 reversed $250 $-1 #
loop $-1 $-1 $248 $274 #
ellipse-curve $-1 348.7081053931588599 332.7400000000001228 444.5 -1 0 0 0 -3.74650000000002148 0 1 I I #
point $-1 348.7081053931588599 336.4865000000001487 444.5 #
point $-1 348.7081053931588599 328.9935000000000969 444.5 #
face $-1 $275 $276 $2 $-1 $277 forward single #
loop $-1 $-1 $278 $232 #
cone-surface $-1 419.0068946068410014 257.6321999999998411 447.9594907022448638 1 0 0 0 4.762499999999999289 0 1 I I 0 1 4.762499999999999289 forward I I I I #
coedge $-1 $279 $280 $281 $282 forward $233 $-1 #
coedge $-1 $238 $235 $280 $283 reversed $211 $-1 #
coedge $-1 $237 $236 $235 $260 reversed $190 $-1 #
edge $-1 $219 6.753662709318962015e-17 $284 0.9155310420734895649 $259 $285 forward 7 unknown #
coedge $-1 $278 $281 $236 $262 forward $255 $-1 #
edge $-1 $284 0 $263 3.141592653589793116 $236 $286 forward 7 unknown #
vertex $-1 $262 $287 #
ellipse-curve $-1 419.0068946068410014 270.3086670111028411 447.1562459762421895 3.345446971041862119e-15 0.04601155647718868646 0.9989409074968080837 -13.84177774458112253 -10.62677644597417626 0.4894729217163508173 1 I I #
ellipse-curve $-1 408.9372386024591037 262.5879518472651171 447.7312270939613086 0.6093696053905274246 -0.7920465596218858595 0.03648193275208323066 3.772121740199182671 2.906061282136429114 0.08550819600262968279 1 I I #
point $-1 405.1651168622598789 259.68189056512864 447.6457188979585453 #
coedge $-1 $288 $245 $249 $273 forward $269 $-1 #
coedge $-1 $245 $288 $248 $272 reversed $269 $-1 #
loop $-1 $-1 $267 $289 #
ellipse-curve $-1 348.7081053931588599 332.7400000000001228 444.5 -1 0 0 0 3.74650000000002148 0 1 I I #
coedge $-1 $249 $248 $290 $291 reversed $250 $-1 #
edge $-1 $227 0 $292 0.9155310420734910082 $268 $293 forward 7 unknown #
edge $-1 $229 0 $294 0.9155310420734961152 $267 $295 forward 7 unknown #
face $-1 $209 $250 $2 $-1 $296 reversed single #
face $-1 $297 $298 $2 $-1 $299 reversed single #
loop $-1 $300 $301 $254 #
plane-surface $-1 438.1499999999999773 257.6321999999998411 447.9594907022448638 1 0 0 0 25.39999999999999858 0 forward_v I I I I #
coedge $-1 $302 $261 $303 $304 forward $255 $-1 #
coedge $-1 $303 $257 $301 $305 reversed $233 $-1 #
coedge $-1 $257 $303 $258 $283 forward $233 $-1 #
coedge $-1 $261 $302 $257 $282 reversed $255 $-1 #
edge $-1 $284 0 $306 0.7536655666598022218 $281 $307 forward 7 unknown #
edge $-1 $263 0 $284 3.141592653589793116 $258 $308 forward 7 unknown #
vertex $-1 $260 $309 #
ellipse-curve $-1 419.0068946068410014 270.3288320393158415 447.5940418937271374 -1.422829321214350165e-14 0.04601155647717519032 0.9989409074968087499 -6.297534264182711894 -4.834818909914332608 0.2226933962368128905 1 I I #
ellipse-curve $-1 419.0068946068410014 257.6321999999998411 447.9594907022448638 1 0 0 0 4.762499999999999289 0 1 I I #
point $-1 419.0068946068410014 252.8696999999998241 447.9594907022448638 #
coedge $-1 $268 $267 $310 $311 reversed $269 $-1 #
face $-1 $274 $269 $2 $-1 $312 reversed single #
coedge $-1 $313 $314 $271 $291 forward $315 $-1 #
edge $-1 $294 -6.56107717655787666e-15 $292 3.141592653589801998 $271 $316 forward 7 unknown #
vertex $-1 $272 $317 #
ellipse-curve $-1 348.7081053931588599 320.0613820525544497 445.2565464948042973 0 -0.04601155647718738889 -0.9989409074968081947 0 16.42511794744570608 -0.7565464948043256754 1 I I #
vertex $-1 $311 $318 #
ellipse-curve $-1 348.7081053931588599 320.0455188970268523 444.9121470397162739 0 -0.04601155647719373104 -0.9989409074968078617 0 8.947981102973249889 -0.4121470397162922961 1 I I #
torus-surface $-1 348.7081053931588599 320.0534504747906226 445.0843467672602856 0 -0.04601155647718962322 -0.9989409074968080837 12.69999999999999574 3.746499999999999719 0 -0.9989409074968080837 0.04601155647718962322 forward_v I I I I #
face $-1 $319 $320 $2 $-1 $321 reversed single #
loop $-1 $-1 $322 $275 #
cone-surface $-1 419.0068946068410014 257.6321999999998411 447.9594907022448638 1 0 0 0 3.746499999999999719 0 1 I I 0 1 3.746499999999999719 forward I I I I #
loop $-1 $-1 $323 $254 #
coedge $-1 $324 $324 $279 $305 forward $276 $-1 #
coedge $-1 $281 $278 $324 $325 reversed $255 $-1 #
coedge $-1 $280 $279 $278 $304 reversed $233 $-1 #
edge $-1 $263 0 $326 0.7536655666598022218 $278 $327 forward 7 unknown #
edge $-1 $326 0 $306 3.141592653589793116 $301 $328 forward 7 unknown #
vertex $-1 $325 $329 #
straight-curve $-1 419.0068946068410014 262.3946999999998297 447.9594907022448638 25.39999999999999858 0 0 I I #
ellipse-curve $-1 419.0068946068410014 257.6321999999998411 447.9594907022448638 1 0 0 0 -4.762499999999999289 0 1 I I #
point $-1 419.0068946068410014 262.3946999999998297 447.9594907022448638 #
coedge $-1 $330 $331 $288 $311 forward $332 $-1 #
edge $-1 $292 8.870702897540359139e-15 $294 3.141592653589786899 $288 $333 forward 7 unknown #
torus-surface $-1 348.7081053931588599 320.0534504747906226 445.0843467672602856 0 -0.04601155647718962322 -0.9989409074968080837 12.69999999999999574 3.746499999999999719 0 -0.9989409074968080837 0.04601155647718962322 forward_v I I I I #
coedge $-1 $334 $290 $331 $335 forward $315 $-1 #
coedge $-1 $290 $334 $330 $336 reversed $315 $-1 #
loop $-1 $-1 $313 $337 #
ellipse-curve $-1 358.7777613975408144 327.7842481527349037 444.7282636082837257 -0.609369605390529423 0.7920465596218841942 -0.03648193275208325842 -2.967402435623393675 -2.286101541947368254 -0.06726644752214809564 1 I I #
point $-1 361.745163833164213 330.0703496946822497 444.7955300558058411 #
point $-1 355.8103589619174159 325.4981466107875008 444.6609971607615535 #
face $-1 $338 $339 $2 $-1 $340 reversed single #
loop $-1 $-1 $341 $297 #
cone-surface $-1 419.0068946068410014 257.6321999999998411 447.9594907022448638 1 0 0 0 3.746499999999999719 0 1 I I 0 1 3.746499999999999719 forward I I I I #
coedge $-1 $342 $343 $344 $345 forward $298 $-1 #
coedge $-1 $346 $346 $342 $347 forward $300 $-1 #
coedge $-1 $301 $301 $302 $325 forward $276 $-1 #
edge $-1 $306 0 $326 3.141592653589793116 $324 $348 forward 7 unknown #
vertex $-1 $325 $349 #
straight-curve $-1 419.0068946068410014 252.8696999999998241 447.9594907022448638 25.39999999999999858 0 0 I I #
ellipse-curve $-1 438.1499999999999773 257.6321999999998411 447.9594907022448638 1 0 0 0 -4.762499999999999289 0 1 I I #
point $-1 438.1499999999999773 262.3946999999998297 447.9594907022448638 #
coedge $-1 $350 $310 $314 $336 forward $332 $-1 #
coedge $-1 $310 $350 $313 $335 reversed $332 $-1 #
loop $-1 $-1 $330 $351 #
ellipse-curve $-1 358.7777613975408144 327.7842481527349037 444.7282636082837257 -0.609369605390529423 0.7920465596218841942 -0.03648193275208325842 2.967402435623393675 2.286101541947368254 0.06726644752214809564 1 I I #
coedge $-1 $314 $313 $352 $353 reversed $315 $-1 #
edge $-1 $292 0 $354 3.240697516997403049 $331 $355 forward 7 unknown #
edge $-1 $294 0 $356 3.240697516997404382 $330 $357 forward 7 unknown #
face $-1 $351 $315 $2 $-1 $358 reversed single #
face $-1 $337 $359 $2 $-1 $360 reversed single #
loop $-1 $-1 $361 $319 #
torus-surface $-1 419.0068946068410014 270.3187495252093413 447.3751439349846351 -3.119032809806297578e-15 0.04601155647718371822 0.9989409074968083058 12.70000000000000284 3.746499999999999719 0.7928862995576311246 0.6087242266097852017 -0.02803804401390291856 forward_v I I I I #
coedge $-1 $362 $363 $364 $365 forward $320 $-1 #
coedge $-1 $364 $322 $323 $347 reversed $298 $-1 #
coedge $-1 $322 $364 $366 $367 forward $298 $-1 #
coedge $-1 $363 $362 $322 $345 reversed $320 $-1 #
edge $-1 $368 0 $369 0.7536655666598022218 $344 $370 forward 7 unknown #
coedge $-1 $323 $323 $362 $371 forward $300 $-1 #
edge $-1 $372 0 $369 3.141592653589793116 $323 $373 forward 7 unknown #
ellipse-curve $-1 438.1499999999999773 257.6321999999998411 447.9594907022448638 1 0 0 0 4.762499999999999289 0 1 I I #
point $-1 438.1499999999999773 252.8696999999998241 447.9594907022448638 #
coedge $-1 $331 $330 $374 $375 reversed $332 $-1 #
face $-1 $289 $332 $2 $-1 $376 reversed single #
coedge $-1 $377 $378 $334 $353 forward $359 $-1 #
edge $-1 $356 -6.56107717655787666e-15 $354 3.14159265358980111 $334 $379 forward 7 unknown #
vertex $-1 $335 $380 #
straight-curve $-1 361.745163833164213 330.0703496946822497 444.7955300558058411 15.47798797691937622 -20.11798261439591329 0.9266410919029129944 I I #
vertex $-1 $375 $381 #
straight-curve $-1 355.8103589619174159 325.4981466107875008 444.6609971607615535 15.47798797691936734 -20.11798261439591684 0.9266410919029131055 I I #
cone-surface $-1 358.7777613975408144 327.7842481527349037 444.7282636082837257 0.6093696053905264254 -0.7920465596218866366 0.03648193275208320291 2.967402435623397672 2.286101541947354487 0.0672664475221731728 1 I I 0 1 3.746499999999999719 forward I I I I #
loop $-1 $-1 $377 $338 #
torus-surface $-1 419.0068946068410014 270.3187495252093413 447.3751439349846351 -3.119032809806297578e-15 0.04601155647718371822 0.9989409074968083058 12.70000000000000284 3.746499999999999719 0.7928862995576311246 0.6087242266097852017 -0.02803804401390291856 forward_v I I I I #
coedge $-1 $382 $374 $378 $383 forward $339 $-1 #
coedge $-1 $344 $341 $346 $371 reversed $320 $-1 #
coedge $-1 $341 $344 $382 $384 forward $320 $-1 #
coedge $-1 $343 $342 $341 $365 reversed $298 $-1 #
edge $-1 $385 0 $372 0.7536655666598022218 $341 $386 forward 7 unknown #
coedge $-1 $378 $377 $343 $367 reversed $359 $-1 #
edge $-1 $385 0 $368 3.141592653589793116 $366 $387 forward 7 unknown #
vertex $-1 $388 $389 #
vertex $-1 $371 $390 #
straight-curve $-1 419.0068946068410014 261.378699999999867 447.9594907022448638 25.39999999999999858 0 0 I I #
edge $-1 $369 0 $372 3.141592653589793116 $346 $391 forward 7 unknown #
vertex $-1 $371 $392 #
ellipse-curve $-1 438.1499999999999773 257.6321999999998411 447.9594907022448638 -1 0 0 0 -3.74650000000002148 0 1 I I #
coedge $-1 $361 $393 $350 $375 forward $339 $-1 #
edge $-1 $354 8.759967417767417835e-15 $356 3.141592653589786899 $350 $394 forward 7 unknown #
cone-surface $-1 358.7777613975408144 327.7842481527349037 444.7282636082837257 0.6093696053905264254 -0.7920465596218866366 0.03648193275208320291 2.967402435623397672 2.286101541947354487 0.0672664475221731728 1 I I 0 1 3.746499999999999719 forward I I I I #
coedge $-1 $366 $352 $393 $388 forward $359 $-1 #
coedge $-1 $352 $366 $361 $383 reversed $359 $-1 #
ellipse-curve $-1 408.9372386024591037 262.5879518472651171 447.7312270939612517 -0.609369605390529423 0.7920465596218841942 -0.03648193275208325842 -2.967402435623393675 -2.286101541947368254 -0.06726644752214809564 1 I I #
point $-1 411.9046410380824454 264.8740533892124631 447.7984935414833672 #
point $-1 405.9698361668357052 260.3018503053177142 447.6639606464390795 #
coedge $-1 $393 $361 $363 $384 reversed $339 $-1 #
edge $-1 $356 1.081859929399330546e-15 $385 0.9155310420734873444 $361 $395 forward 7 unknown #
edge $-1 $368 0 $385 3.141592653589793116 $382 $396 forward 7 unknown #
vertex $-1 $384 $397 #
straight-curve $-1 419.0068946068410014 253.8856999999998152 447.9594907022448638 25.39999999999999858 0 0 I I #
ellipse-curve $-1 419.0068946068410014 257.6321999999998411 447.9594907022448638 -1 0 0 0 -3.74650000000002148 0 1 I I #
edge $-1 $354 -3.459232228281687003e-15 $368 0.9155310420734931176 $393 $398 forward 7 unknown #
point $-1 419.0068946068410014 261.378699999999867 447.9594907022448638 #
point $-1 438.1499999999999773 261.378699999999867 447.9594907022448638 #
ellipse-curve $-1 438.1499999999999773 257.6321999999998411 447.9594907022448638 -1 0 0 0 3.74650000000002148 0 1 I I #
point $-1 438.1499999999999773 253.8856999999998152 447.9594907022448638 #
coedge $-1 $374 $382 $377 $388 reversed $339 $-1 #
ellipse-curve $-1 408.9372386024591037 262.5879518472651171 447.7312270939612517 -0.6093696053905353072 0.7920465596218797533 -0.03648193275208341108 2.967402435623348822 2.286101541947368254 0.06726644752214809564 1 I I #
ellipse-curve $-1 419.0068946068410014 270.310817947445571 447.2029442074406234 -1.643428440906454082e-15 0.04601155647718486313 0.9989409074968083058 -13.03705844000528913 -10.00896764212783019 0.4610164389984504063 1 I I #
ellipse-curve $-1 419.0068946068410014 257.6321999999998411 447.9594907022448638 -1 0 0 0 3.74650000000002148 0 1 I I #
point $-1 419.0068946068410014 253.8856999999998152 447.9594907022448638 #
ellipse-curve $-1 419.0068946068410014 270.3266811029731116 447.5473436625287604 -1.106812614249987354e-14 0.04601155647717762587 0.9989409074968086388 -7.102253568758546187 -5.452627713760678674 0.2511498789546230404 1 I I #
End-of-ACIS-data 