700 0 2 0           
24 FBMach with ACIS - 7.0.3 13 ACIS 7.0.3 NT 24 Wed May 15 14:54:23 2002 
1 9.9999999999999995e-007 1e-010 
body $2 -1 $-1 $3 $-1 $4 #
bdycol-kcp $-1 -1 1 3 $5 $6 $7 #
model_id-kcp-attrib $-1 -1 $-1 $-1 $0 1 1021488862 1021488863 -1222705151 1 #
lump $-1 -1 $-1 $-1 $8 $0 #
transform $-1 -1 1 0 0 0 1 0 0 0 1 0 0 0 1 rotate no_reflect no_shear #
body $9 -1 $-1 $10 $-1 $11 #
body $12 -1 $-1 $13 $-1 $14 #
body $15 -1 $-1 $16 $-1 $17 #
shell $-1 -1 $-1 $-1 $-1 $18 $-1 $3 #
rgb_color-st-attrib $-1 -1 $19 $-1 $5 0.5 1 1 #
lump $-1 -1 $-1 $-1 $20 $5 #
transform $-1 -1 1 0 0 0 1 0 0 0 1 0 0 0 1 no_rotate no_reflect no_shear #
model_id-kcp-attrib $-1 -1 $-1 $-1 $6 1 1021488862 1021488863 -1222705150 1 #
lump $-1 -1 $-1 $-1 $21 $6 #
transform $-1 -1 1 0 0 0 1 0 0 0 1 -0.6349999999999989 6.3499999999999996 0 1 no_rotate no_reflect no_shear #
rgb_color-st-attrib $-1 -1 $22 $-1 $7 0.5 1 1 #
lump $-1 -1 $-1 $-1 $23 $7 #
transform $-1 -1 1 0 0 0 1 0 0 0 1 -0.6349999999999989 6.3499999999999996 0 1 no_rotate no_reflect no_shear #
face $24 -1 $-1 $25 $26 $8 $-1 $27 reversed single #
model_id-kcp-attrib $-1 -1 $-1 $9 $5 1 1021488862 1021488863 -1224343548 1 #
shell $-1 -1 $-1 $-1 $-1 $28 $-1 $10 #
shell $-1 -1 $-1 $-1 $-1 $29 $-1 $13 #
model_id-kcp-attrib $-1 -1 $-1 $15 $7 1 1021488862 1021488863 -1212809213 1 #
shell $-1 -1 $-1 $-1 $-1 $30 $-1 $16 #
model_id-kcp-attrib $-1 -1 $-1 $-1 $18 1 1021488862 1021488863 -1222705151 2 #
face $31 -1 $-1 $32 $33 $8 $-1 $34 forward single #
loop $-1 -1 $-1 $35 $36 $18 #
plane-surface $-1 -1 $-1 0 0 0 0 1 0 25.399999999999999 0 0 forward_v I I I I #
face $-1 -1 $-1 $37 $38 $20 $-1 $39 forward single #
face $40 -1 $-1 $41 $42 $21 $-1 $43 forward single #
face $-1 -1 $-1 $44 $45 $23 $-1 $46 reversed single #
model_id-kcp-attrib $-1 -1 $-1 $-1 $25 1 1021488862 1021488863 -1222705151 3 #
face $47 -1 $-1 $48 $49 $8 $-1 $50 forward single #
loop $-1 -1 $-1 $-1 $51 $25 #
plane-surface $-1 -1 $-1 -6.3499999999999996 0 -10.159999999999998 0 0 -1 -25.399999999999999 0 0 forward_v I I I I #
loop $-1 -1 $-1 $-1 $52 $18 #
coedge $-1 -1 $-1 $53 $54 $55 $56 reversed $26 $-1 #
face $-1 -1 $-1 $57 $58 $20 $-1 $59 forward single #
loop $-1 -1 $-1 $60 $61 $28 #
cone-surface $-1 -1 $-1 3.5249581031848718e-016 0 -1.7624790515924359e-016 0 1 0 -4.7624999999999993 0 1.7624790515924359e-016 1 I I 0 1 4.7624999999999993 forward I I I I #
model_id-kcp-attrib $-1 -1 $-1 $-1 $29 1 1021488862 1021488863 -1222705150 5 #
face $62 -1 $-1 $63 $64 $21 $-1 $65 reversed single #
loop $-1 -1 $-1 $-1 $66 $29 #
plane-surface $-1 -1 $-1 0 0 10.159999999999998 0 0 1 1 0 0 forward_v I I I I #
face $-1 -1 $-1 $67 $68 $23 $-1 $69 reversed single #
loop $-1 -1 $-1 $-1 $70 $30 #
plane-surface $-1 -1 $-1 -5.7149999999999999 -6.3499999999999996 10.159999999999998 1 0 0 0 1 0 forward_v I I I I #
model_id-kcp-attrib $-1 -1 $-1 $-1 $32 1 1021488862 1021488863 -1222705151 4 #
face $71 -1 $-1 $72 $73 $8 $-1 $74 forward single #
loop $-1 -1 $-1 $-1 $75 $32 #
plane-surface $-1 -1 $-1 -8.8899999999999988 0 -10.159999999999998 -1 0 0 0 0 25.399999999999999 forward_v I I I I #
coedge $-1 -1 $-1 $76 $55 $77 $78 forward $33 $-1 #
coedge $-1 -1 $-1 $79 $79 $80 $81 reversed $35 $-1 #
coedge $-1 -1 $-1 $82 $36 $83 $84 reversed $26 $-1 #
coedge $-1 -1 $-1 $36 $85 $86 $87 reversed $26 $-1 #
coedge $-1 -1 $-1 $51 $88 $36 $56 forward $33 $-1 #
edge $89 -1 $-1 $90 0 $91 0.099999999999999978 $36 $92 forward @7 unknown #
face $-1 -1 $-1 $-1 $93 $20 $-1 $94 reversed single #
loop $-1 -1 $-1 $-1 $95 $37 #
plane-surface $-1 -1 $-1 1.6148698540002277e-016 12.699999999999999 0 0 1 0 0 0 1 forward_v I I I I #
loop $-1 -1 $-1 $-1 $96 $28 #
coedge $-1 -1 $-1 $61 $61 $95 $97 forward $38 $-1 #
model_id-kcp-attrib $-1 -1 $-1 $-1 $41 1 1021488862 1021488863 -1222705150 3 #
face $98 -1 $-1 $99 $100 $21 $-1 $101 reversed single #
loop $-1 -1 $-1 $-1 $102 $41 #
plane-surface $-1 -1 $-1 0 0 -10.159999999999998 0 0 1 1 0 0 forward_v I I I I #
coedge $-1 -1 $-1 $103 $104 $105 $106 forward $42 $-1 #
face $-1 -1 $-1 $107 $108 $23 $-1 $109 reversed single #
loop $-1 -1 $-1 $-1 $110 $44 #
cone-surface $-1 -1 $-1 -4.4450000000000029 -6.3499999999999996 7.2955945611032913 0 -1 0 -1.2699999999999978 0 2.6645352591003757e-015 1 I I 0 -1 1.2699999999999978 forward I I I I #
coedge $-1 -1 $-1 $111 $112 $113 $114 reversed $45 $-1 #
model_id-kcp-attrib $-1 -1 $-1 $-1 $48 1 1021488862 1021488863 -1222705151 5 #
face $115 -1 $-1 $116 $117 $8 $-1 $118 forward single #
loop $-1 -1 $-1 $-1 $119 $48 #
plane-surface $-1 -1 $-1 -8.8899999999999988 0 10.159999999999998 0 0 1 25.399999999999999 0 0 forward_v I I I I #
coedge $-1 -1 $-1 $120 $86 $121 $122 forward $49 $-1 #
coedge $-1 -1 $-1 $88 $51 $123 $124 reversed $33 $-1 #
coedge $-1 -1 $-1 $86 $120 $51 $78 reversed $49 $-1 #
edge $125 -1 $-1 $91 0 $126 0.5 $77 $127 forward @7 unknown #
coedge $-1 -1 $-1 $52 $52 $128 $129 reversed $35 $-1 #
coedge $-1 -1 $-1 $130 $131 $52 $81 forward $132 $-1 #
edge $133 -1 $-1 $134 0 $135 3.1415926535897931 $52 $136 forward @7 unknown #
coedge $-1 -1 $-1 $137 $53 $138 $139 reversed $26 $-1 #
coedge $-1 -1 $-1 $140 $141 $53 $84 forward $142 $-1 #
edge $143 -1 $-1 $144 0 $90 0.1127718676730986 $53 $145 forward @7 unknown #
coedge $-1 -1 $-1 $54 $146 $147 $148 reversed $26 $-1 #
coedge $-1 -1 $-1 $75 $77 $54 $87 forward $49 $-1 #
edge $149 -1 $-1 $91 0 $150 0.79999999999999993 $54 $151 forward @7 unknown #
coedge $-1 -1 $-1 $55 $76 $140 $152 reversed $33 $-1 #
attrib_edge_convexity-kcp-attrib $-1 -1 $153 $-1 $56 1 #
vertex $-1 -1 $-1 $84 $154 #
vertex $-1 -1 $-1 $87 $155 #
straight-curve $-1 -1 $-1 -6.3499999999999996 0 -10.159999999999998 -25.399999999999999 0 0 I I #
loop $-1 -1 $-1 $-1 $156 $57 #
plane-surface $-1 -1 $-1 1.6148698540002277e-016 0 0 0 1 0 0 0 1 forward_v I I I I #
coedge $-1 -1 $-1 $95 $95 $61 $97 reversed $58 $-1 #
coedge $-1 -1 $-1 $96 $96 $156 $157 reversed $60 $-1 #
edge $-1 -1 $-1 $158 -3.1415926535897931 $158 3.1415926535897931 $61 $159 forward @7 unknown #
model_id-kcp-attrib $-1 -1 $-1 $-1 $63 1 1021488862 1021488863 -1222705150 2 #
face $160 -1 $-1 $161 $162 $21 $-1 $163 reversed single #
loop $-1 -1 $-1 $-1 $164 $63 #
plane-surface $-1 -1 $-1 0 -6.3499999999999996 0 0 1 0 0 0 1 forward_v I I I I #
coedge $-1 -1 $-1 $165 $166 $167 $168 forward $64 $-1 #
coedge $-1 -1 $-1 $169 $66 $170 $171 forward $42 $-1 #
coedge $-1 -1 $-1 $66 $169 $172 $173 forward $42 $-1 #
coedge $-1 -1 $-1 $174 $175 $66 $106 reversed $176 $-1 #
edge $-1 -1 $-1 $177 -6.3499999999999996 $178 6.3499999999999996 $105 $179 forward @7 unknown #
face $-1 -1 $-1 $180 $181 $23 $-1 $182 reversed single #
loop $-1 -1 $-1 $-1 $183 $67 #
plane-surface $-1 -1 $-1 -5.7150000000000016 -6.3499999999999996 -7.295594561103294 1 0 0 0 1 0 forward_v I I I I #
coedge $-1 -1 $-1 $184 $185 $186 $187 reversed $68 $-1 #
coedge $-1 -1 $-1 $188 $70 $189 $190 reversed $45 $-1 #
coedge $-1 -1 $-1 $70 $188 $184 $191 reversed $45 $-1 #
coedge $-1 -1 $-1 $186 $192 $70 $114 forward $193 $-1 #
edge $-1 -1 $-1 $194 -5.0799999999999992 $195 -2.2155945611032957 $113 $196 forward @7 unknown #
model_id-kcp-attrib $-1 -1 $-1 $-1 $72 1 1021488862 1021488863 -1222705151 6 #
face $197 -1 $-1 $198 $199 $8 $-1 $200 reversed single #
loop $-1 -1 $-1 $-1 $201 $72 #
plane-surface $-1 -1 $-1 -6.3499999999999996 0 10.159999999999998 1 0 0 0 0 -25.399999999999999 forward_v I I I I #
coedge $-1 -1 $-1 $202 $147 $203 $204 forward $73 $-1 #
coedge $-1 -1 $-1 $77 $75 $205 $206 reversed $49 $-1 #
coedge $-1 -1 $-1 $147 $202 $75 $122 reversed $73 $-1 #
edge $207 -1 $-1 $150 0 $208 0.5 $75 $209 forward @7 unknown #
coedge $-1 -1 $-1 $205 $210 $76 $124 forward $211 $-1 #
edge $212 -1 $-1 $213 0 $126 0.099999999999999978 $123 $214 forward @7 unknown #
attrib_edge_convexity-kcp-attrib $-1 -1 $215 $-1 $78 1 #
vertex $-1 -1 $-1 $206 $216 #
straight-curve $-1 -1 $-1 -8.8899999999999988 0 -10.159999999999998 0 25.399999999999999 0 I I #
coedge $-1 -1 $-1 $217 $218 $79 $129 forward $219 $-1 #
edge $220 -1 $-1 $135 0 $134 3.1415926535897931 $79 $221 forward @7 unknown #
coedge $-1 -1 $-1 $222 $80 $218 $223 reversed $132 $-1 #
coedge $-1 -1 $-1 $80 $222 $217 $224 forward $132 $-1 #
loop $-1 -1 $-1 $-1 $130 $225 #
attrib_edge_convexity-kcp-attrib $-1 -1 $226 $-1 $81 1 #
vertex $-1 -1 $-1 $129 $227 #
vertex $-1 -1 $-1 $129 $228 #
ellipse-curve $-1 -1 $-1 3.5249581031848718e-016 0 -1.7624790515924359e-016 0 -1 0 -4.7624999999999993 0 1.7624790515924359e-016 1 I I #
coedge $-1 -1 $-1 $229 $82 $230 $231 reversed $26 $-1 #
coedge $-1 -1 $-1 $232 $233 $82 $139 forward $234 $-1 #
edge $235 -1 $-1 $236 -6.8833965194690676e-017 $144 2.1790419057050761 $82 $237 forward @7 unknown #
coedge $-1 -1 $-1 $238 $83 $88 $152 forward $142 $-1 #
coedge $-1 -1 $-1 $83 $238 $232 $239 reversed $142 $-1 #
loop $-1 -1 $-1 $-1 $140 $240 #
attrib_edge_convexity-kcp-attrib $-1 -1 $241 $-1 $84 1 #
vertex $-1 -1 $-1 $139 $242 #
straight-curve $-1 -1 $-1 -6.3499999999999996 0 -7.295594561103294 0 0 -25.399999999999999 I I #
coedge $-1 -1 $-1 $85 $229 $243 $244 reversed $26 $-1 #
coedge $-1 -1 $-1 $119 $121 $85 $148 forward $73 $-1 #
edge $245 -1 $-1 $150 0 $246 0.099999999999999978 $85 $247 forward @7 unknown #
attrib_edge_convexity-kcp-attrib $-1 -1 $248 $-1 $87 1 #
vertex $-1 -1 $-1 $87 $249 #
straight-curve $-1 -1 $-1 -8.8899999999999988 0 -10.159999999999998 0 0 25.399999999999999 I I #
edge $250 -1 $-1 $90 0 $213 0.5 $140 $251 forward @7 unknown #
convexity-sys-attrib $-1 -1 $-1 $89 $56 #
point $-1 -1 $-1 -6.3499999999999996 0 -10.159999999999998 #
point $-1 -1 $-1 -8.8899999999999988 0 -10.159999999999998 #
coedge $-1 -1 $-1 $156 $156 $96 $157 forward $93 $-1 #
edge $-1 -1 $-1 $252 -3.1415926535897931 $252 3.1415926535897931 $96 $253 forward @7 unknown #
vertex $-1 -1 $-1 $97 $254 #
ellipse-curve $-1 -1 $-1 0 12.699999999999999 5.2874371547773072e-016 0 -1 0 4.7624999999999993 0 -5.2874371547773072e-016 1 I I #
model_id-kcp-attrib $-1 -1 $-1 $-1 $99 1 1021488862 1021488863 -1222705150 4 #
face $255 -1 $-1 $256 $257 $21 $-1 $258 reversed single #
loop $-1 -1 $-1 $-1 $259 $99 #
plane-surface $-1 -1 $-1 -8.254999999999999 0 0 1 0 0 0 0 -1 forward_v I I I I #
coedge $-1 -1 $-1 $260 $172 $261 $262 forward $100 $-1 #
coedge $-1 -1 $-1 $263 $102 $260 $264 forward $64 $-1 #
coedge $-1 -1 $-1 $102 $263 $265 $266 forward $64 $-1 #
coedge $-1 -1 $-1 $175 $174 $102 $168 reversed $176 $-1 #
edge $-1 -1 $-1 $267 -6.3499999999999996 $268 6.3499999999999996 $167 $269 forward @7 unknown #
coedge $-1 -1 $-1 $104 $103 $270 $271 forward $42 $-1 #
coedge $-1 -1 $-1 $272 $273 $103 $171 reversed $257 $-1 #
edge $-1 -1 $-1 $178 -8.254999999999999 $274 8.254999999999999 $170 $275 forward @7 unknown #
coedge $-1 -1 $-1 $164 $276 $104 $173 reversed $100 $-1 #
edge $-1 -1 $-1 $277 -8.254999999999999 $177 8.254999999999999 $172 $278 forward @7 unknown #
coedge $-1 -1 $-1 $167 $105 $276 $279 forward $176 $-1 #
coedge $-1 -1 $-1 $105 $167 $272 $280 reversed $176 $-1 #
loop $-1 -1 $-1 $-1 $174 $256 #
vertex $-1 -1 $-1 $106 $281 #
vertex $-1 -1 $-1 $106 $282 #
straight-curve $-1 -1 $-1 8.254999999999999 0 10.159999999999998 0 1 0 I I #
face $-1 -1 $-1 $283 $284 $23 $-1 $182 reversed single #
loop $-1 -1 $-1 $-1 $285 $107 #
cone-surface $-1 -1 $-1 0.63499999999999801 -6.3499999999999996 -2.7204130651450133e-015 0 -1 0 -4.3542857142857212 0 6.2533667666599655 1 I I 0 1 7.620000000000001 forward I I I I #
coedge $-1 -1 $-1 $286 $287 $288 $289 reversed $108 $-1 #
coedge $-1 -1 $-1 $290 $110 $112 $191 forward $68 $-1 #
coedge $-1 -1 $-1 $110 $290 $291 $292 reversed $68 $-1 #
coedge $-1 -1 $-1 $293 $113 $110 $187 forward $193 $-1 #
edge $-1 -1 $-1 $195 -6.9935308637805259e-016 $294 2.1790419057051045 $186 $295 forward @7 unknown #
coedge $-1 -1 $-1 $112 $111 $296 $297 reversed $45 $-1 #
coedge $-1 -1 $-1 $298 $299 $111 $190 forward $300 $-1 #
edge $-1 -1 $-1 $301 -9.5249999999999986 $194 3.1749999999999998 $189 $302 forward @7 unknown #
edge $-1 -1 $-1 $195 0 $303 12.699999999999999 $112 $304 forward @7 unknown #
coedge $-1 -1 $-1 $113 $305 $298 $306 reversed $193 $-1 #
loop $-1 -1 $-1 $-1 $113 $307 #
vertex $-1 -1 $-1 $306 $308 #
vertex $-1 -1 $-1 $114 $309 #
straight-curve $-1 -1 $-1 -5.7149999999999999 -6.3499999999999996 5.0799999999999992 0 0 -1 I I #
model_id-kcp-attrib $-1 -1 $-1 $-1 $116 1 1021488862 1021488863 -1222705151 7 #
face $310 -1 $-1 $311 $312 $8 $-1 $313 forward single #
loop $-1 -1 $-1 $-1 $314 $116 #
cone-surface $-1 -1 $-1 -5.0799999999999992 0 7.295594561103294 0 1 0 1.2699999999999998 0 0 1 I I 0 1 1.2699999999999998 forward I I I I #
coedge $-1 -1 $-1 $315 $243 $316 $317 forward $117 $-1 #
coedge $-1 -1 $-1 $121 $119 $318 $319 reversed $73 $-1 #
coedge $-1 -1 $-1 $243 $315 $119 $204 reversed $117 $-1 #
edge $-1 -1 $-1 $246 0 $320 0.5 $119 $321 forward @7 unknown #
coedge $-1 -1 $-1 $318 $123 $120 $206 forward $211 $-1 #
edge $322 -1 $-1 $126 0 $208 0.79999999999999993 $205 $323 forward @7 unknown #
attrib_edge_convexity-kcp-attrib $-1 -1 $324 $-1 $122 1 #
vertex $-1 -1 $-1 $206 $325 #
straight-curve $-1 -1 $-1 -8.8899999999999988 0 10.159999999999998 0 25.399999999999999 0 I I #
coedge $-1 -1 $-1 $123 $326 $238 $327 forward $211 $-1 #
loop $-1 -1 $-1 $328 $318 $329 #
model_id-kcp-attrib $-1 -1 $330 $-1 $124 1 1021488862 1021488863 -1222705151 17 #
vertex $-1 -1 $-1 $124 $331 #
straight-curve $-1 -1 $-1 -6.3499999999999996 12.699999999999999 -10.159999999999998 -25.399999999999999 0 0 I I #
convexity-sys-attrib $-1 -1 $-1 $125 $78 #
point $-1 -1 $-1 -8.8899999999999988 12.699999999999999 -10.159999999999998 #
coedge $-1 -1 $-1 $332 $128 $131 $224 reversed $219 $-1 #
coedge $-1 -1 $-1 $128 $332 $130 $223 forward $219 $-1 #
loop $-1 -1 $-1 $-1 $217 $333 #
attrib_edge_convexity-kcp-attrib $-1 -1 $334 $-1 $129 1 #
ellipse-curve $-1 -1 $-1 0 0 5.2874371547773072e-016 0 -1 0 4.7624999999999993 0 -5.2874371547773072e-016 1 I I #
coedge $-1 -1 $-1 $131 $130 $335 $336 reversed $132 $-1 #
edge $-1 -1 $-1 $337 0 $135 0.5 $218 $338 forward @7 unknown #
edge $-1 -1 $-1 $339 0 $134 0.5 $217 $340 forward @7 unknown #
face $341 -1 $-1 $333 $132 $8 $-1 $342 reversed single #
convexity-sys-attrib $-1 -1 $-1 $133 $81 #
point $-1 -1 $-1 -4.7624999999999993 0 0 #
point $-1 -1 $-1 4.7624999999999993 0 0 #
coedge $-1 -1 $-1 $146 $137 $343 $344 reversed $26 $-1 #
coedge $-1 -1 $-1 $345 $346 $137 $231 forward $312 $-1 #
edge $347 -1 $-1 $348 0 $236 4.3580838114102196 $137 $349 forward @7 unknown #
coedge $-1 -1 $-1 $350 $138 $141 $239 forward $234 $-1 #
coedge $-1 -1 $-1 $138 $350 $345 $351 reversed $234 $-1 #
loop $-1 -1 $-1 $-1 $232 $311 #
attrib_edge_convexity-kcp-attrib $-1 -1 $352 $-1 $139 1 #
vertex $-1 -1 $-1 $231 $353 #
ellipse-curve $-1 -1 $-1 -5.0799999999999992 0 -7.295594561103294 0 -1 0 0.72571428571425134 0 1.0422277944433456 1 I I #
coedge $-1 -1 $-1 $141 $140 $210 $327 reversed $142 $-1 #
edge $-1 -1 $-1 $144 1.9410947470989463e-033 $354 0.5 $232 $355 forward @7 unknown #
face $356 -1 $-1 $329 $142 $8 $-1 $357 forward single #
convexity-sys-attrib $-1 -1 $-1 $143 $84 #
point $-1 -1 $-1 -6.3499999999999996 0 -7.295594561103294 #
coedge $-1 -1 $-1 $201 $203 $146 $244 forward $117 $-1 #
edge $358 -1 $-1 $246 0 $359 0.1127718676730986 $146 $360 forward @7 unknown #
attrib_edge_convexity-kcp-attrib $-1 -1 $361 $-1 $148 1 #
vertex $-1 -1 $-1 $148 $362 #
straight-curve $-1 -1 $-1 -8.8899999999999988 0 10.159999999999998 25.399999999999999 0 0 I I #
convexity-sys-attrib $-1 -1 $-1 $149 $87 #
point $-1 -1 $-1 -8.8899999999999988 0 10.159999999999998 #
attrib_edge_convexity-kcp-attrib $-1 -1 $363 $-1 $152 1 #
straight-curve $-1 -1 $-1 -6.3499999999999996 0 -10.159999999999998 0 25.399999999999999 0 I I #
vertex $-1 -1 $-1 $157 $364 #
ellipse-curve $-1 -1 $-1 3.5249581031848718e-016 0 -1.7624790515924359e-016 0 -1 0 -4.7624999999999993 0 1.7624790515924359e-016 1 I I #
point $-1 -1 $-1 -4.7624999999999993 12.699999999999999 0 #
model_id-kcp-attrib $-1 -1 $-1 $-1 $161 1 1021488862 1021488863 -1222705150 6 #
face $-1 -1 $-1 $-1 $176 $21 $-1 $365 reversed single #
loop $-1 -1 $-1 $-1 $272 $161 #
plane-surface $-1 -1 $-1 0 6.3499999999999996 0 0 -1 0 0 0 -1 forward_v I I I I #
coedge $-1 -1 $-1 $366 $270 $273 $367 forward $162 $-1 #
coedge $-1 -1 $-1 $276 $164 $165 $264 reversed $100 $-1 #
coedge $-1 -1 $-1 $270 $366 $164 $262 reversed $162 $-1 #
edge $-1 -1 $-1 $277 -10.159999999999998 $368 10.159999999999998 $261 $369 forward @7 unknown #
coedge $-1 -1 $-1 $166 $165 $366 $370 forward $64 $-1 #
edge $-1 -1 $-1 $268 -8.254999999999999 $368 8.254999999999999 $260 $371 forward @7 unknown #
coedge $-1 -1 $-1 $273 $272 $166 $266 reversed $257 $-1 #
edge $-1 -1 $-1 $372 -8.254999999999999 $267 8.254999999999999 $265 $373 forward @7 unknown #
vertex $-1 -1 $-1 $168 $374 #
vertex $-1 -1 $-1 $279 $375 #
straight-curve $-1 -1 $-1 8.254999999999999 0 -10.159999999999998 0 -1 0 I I #
coedge $-1 -1 $-1 $259 $261 $169 $271 reversed $162 $-1 #
edge $-1 -1 $-1 $274 -6.3499999999999996 $277 6.3499999999999996 $270 $376 forward @7 unknown #
coedge $-1 -1 $-1 $265 $170 $175 $280 forward $257 $-1 #
coedge $-1 -1 $-1 $170 $265 $259 $367 reversed $257 $-1 #
vertex $-1 -1 $-1 $171 $377 #
straight-curve $-1 -1 $-1 0 6.3499999999999996 10.159999999999998 -1 0 0 I I #
coedge $-1 -1 $-1 $172 $260 $174 $279 reversed $100 $-1 #
vertex $-1 -1 $-1 $271 $378 #
straight-curve $-1 -1 $-1 0 -6.3499999999999996 10.159999999999998 1 0 0 I I #
edge $-1 -1 $-1 $177 -10.159999999999998 $268 10.159999999999998 $174 $379 forward @7 unknown #
edge $-1 -1 $-1 $178 -10.159999999999998 $267 10.159999999999998 $175 $380 forward @7 unknown #
point $-1 -1 $-1 8.254999999999999 -6.3499999999999996 10.159999999999998 #
point $-1 -1 $-1 8.254999999999999 6.3499999999999996 10.159999999999998 #
face $-1 -1 $-1 $381 $382 $23 $-1 $383 reversed single #
loop $-1 -1 $-1 $-1 $384 $180 #
coedge $-1 -1 $-1 $385 $386 $387 $388 reversed $181 $-1 #
coedge $-1 -1 $-1 $389 $183 $390 $391 forward $108 $-1 #
coedge $-1 -1 $-1 $183 $389 $392 $393 reversed $108 $-1 #
coedge $-1 -1 $-1 $394 $395 $183 $289 forward $396 $-1 #
edge $-1 -1 $-1 $397 3.647797280551647 $398 6.5122027194483518 $288 $399 forward @7 unknown #
coedge $-1 -1 $-1 $185 $184 $400 $401 reversed $68 $-1 #
coedge $-1 -1 $-1 $402 $384 $185 $292 forward $284 $-1 #
edge $-1 -1 $-1 $294 0 $403 12.699999999999999 $185 $404 forward @7 unknown #
coedge $-1 -1 $-1 $305 $186 $384 $405 forward $193 $-1 #
vertex $-1 -1 $-1 $187 $406 #
ellipse-curve $-1 -1 $-1 -4.4450000000000029 -6.3499999999999996 7.2955945611032913 0 -1 0 -1.2699999999999978 0 2.6645352591003757e-015 1 I I #
coedge $-1 -1 $-1 $407 $400 $188 $297 forward $408 $-1 #
edge $-1 -1 $-1 $303 2.2155945611032957 $301 5.0799999999999992 $296 $409 forward @7 unknown #
coedge $-1 -1 $-1 $410 $189 $192 $306 forward $300 $-1 #
coedge $-1 -1 $-1 $189 $410 $407 $411 forward $300 $-1 #
loop $-1 -1 $-1 $-1 $189 $412 #
vertex $-1 -1 $-1 $297 $413 #
straight-curve $-1 -1 $-1 -5.7149999999999999 -3.1749999999999998 10.159999999999998 0 -1 0 I I #
vertex $-1 -1 $-1 $297 $414 #
straight-curve $-1 -1 $-1 -5.7150000000000007 -6.3499999999999996 7.2955945611032949 0 1 0 I I #
coedge $-1 -1 $-1 $192 $293 $415 $416 reversed $193 $-1 #
edge $-1 -1 $-1 $194 -5.7149999999999999 $417 8.254999999999999 $192 $418 forward @7 unknown #
face $-1 -1 $-1 $419 $193 $23 $-1 $420 reversed single #
point $-1 -1 $-1 -5.7149999999999999 -6.3499999999999996 10.159999999999998 #
point $-1 -1 $-1 -5.7150000000000007 -6.3499999999999996 7.2955945611032949 #
model_id-kcp-attrib $-1 -1 $-1 $-1 $198 1 1021488862 1021488863 -1222705151 8 #
face $421 -1 $-1 $240 $234 $8 $-1 $422 reversed single #
loop $-1 -1 $-1 $-1 $345 $198 #
cone-surface $-1 -1 $-1 0 0 0 0 1 0 7.6199999999999992 0 0 1 I I 0 1 7.6199999999999992 forward I I I I #
coedge $-1 -1 $-1 $423 $343 $346 $424 forward $199 $-1 #
coedge $-1 -1 $-1 $203 $201 $425 $426 reversed $117 $-1 #
coedge $-1 -1 $-1 $343 $423 $201 $317 reversed $199 $-1 #
edge $-1 -1 $-1 $359 0 $427 0.49999999999999994 $201 $428 forward @7 unknown #
coedge $-1 -1 $-1 $425 $205 $202 $319 forward $211 $-1 #
edge $429 -1 $-1 $208 0 $320 0.099999999999999978 $318 $430 forward @7 unknown #
vertex $-1 -1 $-1 $426 $431 #
straight-curve $-1 -1 $-1 -6.3499999999999996 0 10.159999999999998 0 25.399999999999999 0 I I #
model_id-kcp-attrib $-1 -1 $432 $-1 $206 1 1021488862 1021488863 -1222705151 16 #
straight-curve $-1 -1 $-1 -8.8899999999999988 12.699999999999999 -10.159999999999998 0 0 25.399999999999999 I I #
convexity-sys-attrib $-1 -1 $-1 $207 $122 #
point $-1 -1 $-1 -8.8899999999999988 12.699999999999999 10.159999999999998 #
coedge $-1 -1 $-1 $210 $433 $350 $434 forward $211 $-1 #
edge $-1 -1 $-1 $354 0 $213 0.1127718676730986 $210 $435 forward @7 unknown #
loop $-1 -1 $-1 $-1 $335 $329 #
face $436 -1 $-1 $225 $211 $8 $-1 $437 forward single #
attrib_edge_convexity-kcp-attrib $-1 -1 $438 $212 $124 1 #
point $-1 -1 $-1 -6.3499999999999996 12.699999999999999 -10.159999999999998 #
coedge $-1 -1 $-1 $218 $217 $439 $440 reversed $219 $-1 #
face $441 -1 $-1 $-1 $219 $8 $-1 $442 reversed single #
convexity-sys-attrib $-1 -1 $-1 $220 $129 #
coedge $-1 -1 $-1 $439 $439 $222 $336 forward $328 $-1 #
edge $-1 -1 $-1 $339 0 $337 3.1415926535897931 $335 $443 forward @7 unknown #
vertex $-1 -1 $-1 $440 $444 #
straight-curve $-1 -1 $-1 4.7624999999999993 12.699999999999999 0 0 -25.399999999999999 0 I I #
vertex $-1 -1 $-1 $440 $445 #
straight-curve $-1 -1 $-1 -4.7624999999999993 12.699999999999999 5.8321877600790713e-016 0 -25.399999999999999 0 I I #
model_id-kcp-attrib $-1 -1 $-1 $-1 $225 1 1021488862 1021488863 -1222705151 12 #
cone-surface $-1 -1 $-1 0 12.699999999999999 0 0 -1 0 4.7624999999999993 0 0 1 I I 0 1 4.7624999999999993 forward I I I I #
coedge $-1 -1 $-1 $314 $316 $229 $344 forward $199 $-1 #
edge $446 -1 $-1 $359 0 $348 2.1790419057050943 $229 $447 forward @7 unknown #
coedge $-1 -1 $-1 $448 $230 $233 $351 forward $312 $-1 #
coedge $-1 -1 $-1 $230 $448 $314 $424 reversed $312 $-1 #
attrib_edge_convexity-kcp-attrib $-1 -1 $449 $-1 $231 1 #
vertex $-1 -1 $-1 $344 $450 #
ellipse-curve $-1 -1 $-1 0 0 0 0 1 0 -4.3542857142857274 0 6.2533667666599593 1 I I #
coedge $-1 -1 $-1 $233 $232 $326 $434 reversed $234 $-1 #
edge $-1 -1 $-1 $236 2.0381494844538944e-031 $451 0.49999999999999994 $345 $452 forward @7 unknown #
convexity-sys-attrib $-1 -1 $-1 $235 $139 #
point $-1 -1 $-1 -4.3542857142857478 0 -6.2533667666599486 #
vertex $-1 -1 $-1 $327 $453 #
straight-curve $-1 -1 $-1 -6.3499999999999988 0 -7.295594561103294 -1.4099832412739487e-015 25.399999999999999 0 I I #
model_id-kcp-attrib $-1 -1 $-1 $-1 $240 1 1021488862 1021488863 -1222705151 10 #
plane-surface $-1 -1 $-1 -6.3499999999999996 0 -7.295594561103294 1 0 0 0 0 -25.399999999999999 forward_v I I I I #
attrib_edge_convexity-kcp-attrib $-1 -1 $454 $-1 $244 1 #
vertex $-1 -1 $-1 $244 $455 #
straight-curve $-1 -1 $-1 -6.3499999999999996 0 10.159999999999998 0 0 -25.399999999999999 I I #
convexity-sys-attrib $-1 -1 $-1 $245 $148 #
point $-1 -1 $-1 -6.3499999999999996 0 10.159999999999998 #
convexity-sys-attrib $-1 -1 $-1 $250 $152 #
point $-1 -1 $-1 4.7624999999999993 0 0 #
plane-surface $-1 -1 $-1 8.254999999999999 0 0 -1 0 0 0 0 1 forward_v I I I I #
coedge $-1 -1 $-1 $261 $259 $263 $370 reversed $162 $-1 #
edge $-1 -1 $-1 $274 -10.159999999999998 $372 10.159999999999998 $273 $456 forward @7 unknown #
vertex $-1 -1 $-1 $370 $457 #
straight-curve $-1 -1 $-1 -8.254999999999999 -6.3499999999999996 0 0 0 -1 I I #
edge $-1 -1 $-1 $368 -6.3499999999999996 $372 6.3499999999999996 $366 $458 forward @7 unknown #
straight-curve $-1 -1 $-1 0 -6.3499999999999996 -10.159999999999998 -1 0 0 I I #
vertex $-1 -1 $-1 $266 $459 #
straight-curve $-1 -1 $-1 0 6.3499999999999996 -10.159999999999998 1 0 0 I I #
point $-1 -1 $-1 8.254999999999999 6.3499999999999996 -10.159999999999998 #
point $-1 -1 $-1 8.254999999999999 -6.3499999999999996 -10.159999999999998 #
straight-curve $-1 -1 $-1 -8.254999999999999 0 10.159999999999998 0 -1 0 I I #
point $-1 -1 $-1 -8.254999999999999 6.3499999999999996 10.159999999999998 #
point $-1 -1 $-1 -8.254999999999999 -6.3499999999999996 10.159999999999998 #
straight-curve $-1 -1 $-1 8.254999999999999 -6.3499999999999996 0 0 0 -1 I I #
straight-curve $-1 -1 $-1 8.254999999999999 6.3499999999999996 0 0 0 -1 I I #
face $-1 -1 $-1 $307 $396 $23 $-1 $420 reversed single #
loop $-1 -1 $-1 $-1 $460 $283 #
cone-surface $-1 -1 $-1 -4.4450000000000065 -6.3499999999999996 -7.2955945611032913 0 -1 0 0.72571428571428864 0 1.0422277944433205 1 I I 0 -1 1.2699999999999954 forward I I I I #
coedge $-1 -1 $-1 $291 $461 $293 $405 reversed $284 $-1 #
coedge $-1 -1 $-1 $462 $285 $463 $464 reversed $181 $-1 #
coedge $-1 -1 $-1 $285 $462 $465 $466 forward $181 $-1 #
coedge $-1 -1 $-1 $395 $467 $285 $388 forward $396 $-1 #
edge $-1 -1 $-1 $468 2.1790419057051071 $469 4.3580838114102134 $387 $470 forward @7 unknown #
coedge $-1 -1 $-1 $287 $286 $471 $472 reversed $108 $-1 #
coedge $-1 -1 $-1 $460 $473 $286 $391 reversed $382 $-1 #
edge $-1 -1 $-1 $397 0 $474 12.699999999999999 $390 $475 forward @7 unknown #
coedge $-1 -1 $-1 $476 $477 $287 $393 forward $478 $-1 #
edge $-1 -1 $-1 $398 -3.1749999999999998 $479 9.5249999999999986 $392 $480 forward @7 unknown #
coedge $-1 -1 $-1 $467 $288 $477 $481 reversed $396 $-1 #
coedge $-1 -1 $-1 $288 $387 $460 $482 forward $396 $-1 #
loop $-1 -1 $-1 $-1 $288 $381 #
vertex $-1 -1 $-1 $289 $483 #
vertex $-1 -1 $-1 $393 $484 #
straight-curve $-1 -1 $-1 -5.7150000000000016 -6.3499999999999996 -3.647797280551647 0 0 -1 I I #
coedge $-1 -1 $-1 $296 $485 $290 $401 forward $408 $-1 #
edge $-1 -1 $-1 $403 -2.1790419057051045 $303 6.9935308637805259e-016 $400 $486 forward @7 unknown #
coedge $-1 -1 $-1 $461 $291 $485 $487 reversed $284 $-1 #
vertex $-1 -1 $-1 $401 $488 #
straight-curve $-1 -1 $-1 -3.7192857142857223 -6.3499999999999996 6.2533667666599619 0 1 0 I I #
edge $-1 -1 $-1 $294 0 $468 2.1790419057051071 $293 $470 forward @7 unknown #
point $-1 -1 $-1 -3.7192857142857223 -6.3499999999999996 6.2533667666599619 #
coedge $-1 -1 $-1 $489 $296 $299 $411 reversed $408 $-1 #
loop $-1 -1 $-1 $-1 $296 $490 #
straight-curve $-1 -1 $-1 -5.7149999999999999 6.3499999999999996 5.0799999999999992 0 0 1 I I #
coedge $-1 -1 $-1 $299 $298 $491 $492 forward $300 $-1 #
edge $-1 -1 $-1 $493 -8.254999999999999 $301 5.7149999999999999 $407 $494 forward @7 unknown #
face $-1 -1 $-1 $490 $300 $23 $-1 $495 forward single #
point $-1 -1 $-1 -5.7149999999999999 6.3499999999999996 10.159999999999998 #
point $-1 -1 $-1 -5.7150000000000007 6.3499999999999996 7.2955945611032949 #
coedge $-1 -1 $-1 $496 $491 $305 $416 forward $497 $-1 #
edge $-1 -1 $-1 $417 -10.159999999999998 $468 2.7204130651450133e-015 $415 $498 forward @7 unknown #
vertex $-1 -1 $-1 $492 $499 #
straight-curve $-1 -1 $-1 0 -6.3499999999999996 10.159999999999998 1 0 0 I I #
face $-1 -1 $-1 $500 $478 $23 $-1 $501 reversed single #
plane-surface $-1 -1 $-1 0 -6.3499999999999996 0 0 1 0 0 0 1 forward_v I I I I #
model_id-kcp-attrib $-1 -1 $-1 $-1 $311 1 1021488862 1021488863 -1222705151 9 #
cone-surface $-1 -1 $-1 -5.0799999999999992 0 -7.295594561103294 0 1 0 1.2699999999999998 0 0 1 I I 0 1 1.2699999999999998 forward I I I I #
coedge $-1 -1 $-1 $316 $314 $502 $503 reversed $199 $-1 #
edge $-1 -1 $-1 $348 7.7643789883957854e-033 $504 0.5 $314 $505 forward @7 unknown #
coedge $-1 -1 $-1 $502 $318 $315 $426 forward $211 $-1 #
edge $-1 -1 $-1 $320 0 $427 0.1127718676730986 $425 $506 forward @7 unknown #
vertex $-1 -1 $-1 $503 $507 #
straight-curve $-1 -1 $-1 -6.3499999999999996 0 7.295594561103294 0 25.399999999999999 0 I I #
model_id-kcp-attrib $-1 -1 $-1 $-1 $319 1 1021488862 1021488863 -1222705151 15 #
straight-curve $-1 -1 $-1 -8.8899999999999988 12.699999999999999 10.159999999999998 25.399999999999999 0 0 I I #
point $-1 -1 $-1 -6.3499999999999996 12.699999999999999 10.159999999999998 #
attrib_edge_convexity-kcp-attrib $-1 -1 $508 $322 $206 1 #
coedge $-1 -1 $-1 $326 $502 $448 $509 forward $211 $-1 #
edge $-1 -1 $-1 $451 -3.0149276755274364e-014 $354 2.1790419057050827 $326 $510 forward @7 unknown #
straight-curve $-1 -1 $-1 -6.3499999999999996 12.699999999999999 -7.295594561103294 0 0 -25.399999999999999 I I #
model_id-kcp-attrib $-1 -1 $-1 $-1 $329 1 1021488862 1021488863 -1222705151 11 #
plane-surface $-1 -1 $-1 0 12.699999999999999 0 0 1 0 25.399999999999999 0 0 forward_v I I I I #
convexity-sys-attrib $-1 -1 $-1 $330 $124 #
coedge $-1 -1 $-1 $335 $335 $332 $440 forward $328 $-1 #
edge $-1 -1 $-1 $337 0 $339 3.1415926535897931 $439 $511 forward @7 unknown #
model_id-kcp-attrib $-1 -1 $-1 $-1 $333 1 1021488862 1021488863 -1222705151 13 #
cone-surface $-1 -1 $-1 0 12.699999999999999 0 0 -1 0 4.7624999999999993 0 0 1 I I 0 1 4.7624999999999993 forward I I I I #
ellipse-curve $-1 -1 $-1 0 12.699999999999999 0 0 -1 0 -4.7624999999999993 0 0 1 I I #
point $-1 -1 $-1 4.7624999999999993 12.699999999999999 0 #
point $-1 -1 $-1 -4.7624999999999993 12.699999999999999 0 #
attrib_edge_convexity-kcp-attrib $-1 -1 $512 $-1 $344 1 #
ellipse-curve $-1 -1 $-1 -5.0799999999999992 0 7.295594561103294 0 -1 0 -1.2700000000000005 0 0 1 I I #
coedge $-1 -1 $-1 $346 $345 $433 $509 reversed $312 $-1 #
convexity-sys-attrib $-1 -1 $-1 $347 $231 #
point $-1 -1 $-1 -4.3542857142857274 0 6.2533667666599593 #
vertex $-1 -1 $-1 $434 $513 #
straight-curve $-1 -1 $-1 -4.3542857142857132 0 -6.2533667666599682 -1.4099832412739491e-015 25.399999999999999 4.2299497238218466e-015 I I #
point $-1 -1 $-1 -6.3499999999999996 12.699999999999999 -7.295594561103294 #
convexity-sys-attrib $-1 -1 $-1 $358 $244 #
point $-1 -1 $-1 -6.3499999999999996 0 7.295594561103294 #
straight-curve $-1 -1 $-1 -8.254999999999999 6.3499999999999996 0 0 0 -1 I I #
point $-1 -1 $-1 -8.254999999999999 -6.3499999999999996 -10.159999999999998 #
straight-curve $-1 -1 $-1 -8.254999999999999 0 -10.159999999999998 0 1 0 I I #
point $-1 -1 $-1 -8.254999999999999 6.3499999999999996 -10.159999999999998 #
coedge $-1 -1 $-1 $465 $390 $395 $482 reversed $382 $-1 #
coedge $-1 -1 $-1 $384 $402 $385 $464 forward $284 $-1 #
coedge $-1 -1 $-1 $386 $385 $514 $515 reversed $181 $-1 #
coedge $-1 -1 $-1 $516 $517 $496 $464 forward $518 $-1 #
edge $-1 -1 $-1 $519 -12.699999999999999 $468 0 $463 $520 forward @7 unknown #
coedge $-1 -1 $-1 $473 $460 $386 $466 reversed $382 $-1 #
edge $-1 -1 $-1 $521 -12.699999999999999 $469 0 $465 $522 forward @7 unknown #
coedge $-1 -1 $-1 $387 $394 $516 $523 reversed $396 $-1 #
vertex $-1 -1 $-1 $523 $524 #
vertex $-1 -1 $-1 $388 $525 #
ellipse-curve $-1 -1 $-1 0.63499999999999801 -6.3499999999999996 -2.7204130651450133e-015 0 1 0 -4.3542857142857212 0 6.2533667666599655 1 I I #
coedge $-1 -1 $-1 $526 $527 $389 $472 forward $528 $-1 #
edge $-1 -1 $-1 $479 -6.5122027194483518 $474 -3.647797280551647 $471 $529 forward @7 unknown #
coedge $-1 -1 $-1 $390 $465 $526 $530 reversed $382 $-1 #
vertex $-1 -1 $-1 $472 $531 #
straight-curve $-1 -1 $-1 -5.7150000000000016 -6.3499999999999996 -7.295594561103294 0 1 0 I I #
coedge $-1 -1 $-1 $532 $392 $527 $533 forward $478 $-1 #
coedge $-1 -1 $-1 $392 $532 $394 $481 forward $478 $-1 #
loop $-1 -1 $-1 $-1 $392 $419 #
vertex $-1 -1 $-1 $533 $534 #
straight-curve $-1 -1 $-1 -5.7150000000000016 -3.1749999999999998 -10.159999999999998 0 1 0 I I #
edge $-1 -1 $-1 $535 -8.254999999999999 $398 5.7150000000000016 $394 $536 forward @7 unknown #
edge $-1 -1 $-1 $469 0 $397 2.1790419057051138 $395 $537 forward @7 unknown #
point $-1 -1 $-1 -5.7150000000000016 -6.3499999999999996 -7.295594561103294 #
point $-1 -1 $-1 -5.7150000000000016 -6.3499999999999996 -10.159999999999998 #
coedge $-1 -1 $-1 $400 $489 $402 $487 forward $408 $-1 #
ellipse-curve $-1 -1 $-1 -4.4450000000000029 6.3499999999999996 7.2955945611032913 0 1 0 -1.2699999999999978 0 2.6645352591003757e-015 1 I I #
edge $-1 -1 $-1 $519 -2.1790419057051071 $403 0 $485 $538 forward @7 unknown #
point $-1 -1 $-1 -3.7192857142857223 6.3499999999999996 6.2533667666599619 #
coedge $-1 -1 $-1 $485 $407 $539 $540 forward $408 $-1 #
face $-1 -1 $-1 $541 $408 $23 $-1 $542 reversed single #
coedge $-1 -1 $-1 $415 $539 $410 $492 reversed $497 $-1 #
edge $-1 -1 $-1 $417 -6.3499999999999996 $493 6.3499999999999996 $491 $543 forward @7 unknown #
vertex $-1 -1 $-1 $492 $544 #
straight-curve $-1 -1 $-1 0 6.3499999999999996 10.159999999999998 -1 0 0 I I #
plane-surface $-1 -1 $-1 0 0 10.159999999999998 0 0 1 1 0 0 forward_v I I I I #
coedge $-1 -1 $-1 $539 $415 $461 $464 reversed $497 $-1 #
loop $-1 -1 $-1 $-1 $496 $545 #
straight-curve $-1 -1 $-1 8.254999999999999 -6.3499999999999996 0 0 0 -1 I I #
point $-1 -1 $-1 8.254999999999999 -6.3499999999999996 10.159999999999998 #
face $-1 -1 $-1 $545 $528 $23 $-1 $542 reversed single #
plane-surface $-1 -1 $-1 0 0 -10.159999999999998 0 0 1 1 0 0 forward_v I I I I #
coedge $-1 -1 $-1 $433 $425 $423 $503 forward $211 $-1 #
edge $-1 -1 $-1 $427 1.2238679011615798e-016 $504 2.1790419057051049 $502 $546 forward @7 unknown #
vertex $-1 -1 $-1 $509 $547 #
straight-curve $-1 -1 $-1 -4.3542857142857203 0 6.2533667666599611 -1.4099832412739487e-015 25.399999999999999 2.8199664825478975e-015 I I #
straight-curve $-1 -1 $-1 -6.3499999999999996 12.699999999999999 10.159999999999998 0 0 -25.399999999999999 I I #
point $-1 -1 $-1 -6.3499999999999988 12.699999999999998 7.295594561103294 #
convexity-sys-attrib $-1 -1 $-1 $432 $206 #
edge $-1 -1 $-1 $504 9.1778620259586767e-016 $451 4.3580838114102143 $433 $548 forward @7 unknown #
ellipse-curve $-1 -1 $-1 -5.0800000000000045 12.699999999999999 -7.2955945611032913 0 -1 0 0.72571428571425634 0 1.0422277944433429 1 I I #
ellipse-curve $-1 -1 $-1 0 12.699999999999999 0 0 -1 0 4.7624999999999993 0 0 1 I I #
convexity-sys-attrib $-1 -1 $-1 $446 $344 #
point $-1 -1 $-1 -4.3542857142857141 12.699999999999998 -6.2533667666599664 #
coedge $-1 -1 $-1 $549 $526 $462 $515 forward $528 $-1 #
edge $-1 -1 $-1 $521 1.9251014957693728 $519 4.1041434014744791 $514 $538 forward @7 unknown #
coedge $-1 -1 $-1 $550 $463 $467 $523 forward $518 $-1 #
coedge $-1 -1 $-1 $463 $550 $549 $551 reversed $518 $-1 #
loop $-1 -1 $-1 $-1 $463 $541 #
vertex $-1 -1 $-1 $551 $552 #
straight-curve $-1 -1 $-1 8.254999999999999 -6.3499999999999996 -2.7204130651450133e-015 0 -1 0 I I #
vertex $-1 -1 $-1 $515 $553 #
straight-curve $-1 -1 $-1 -3.7192857142857179 -6.3499999999999996 -6.2533667666599708 0 -1 0 I I #
edge $-1 -1 $-1 $468 2.7204130651450133e-015 $535 10.159999999999998 $516 $498 forward @7 unknown #
point $-1 -1 $-1 8.254999999999999 -6.3499999999999996 -2.7204130651450133e-015 #
point $-1 -1 $-1 -3.7192857142857179 -6.3499999999999996 -6.2533667666599708 #
coedge $-1 -1 $-1 $514 $471 $473 $530 forward $528 $-1 #
coedge $-1 -1 $-1 $471 $549 $476 $533 reversed $528 $-1 #
loop $-1 -1 $-1 $-1 $471 $500 #
straight-curve $-1 -1 $-1 -5.7150000000000016 6.3499999999999996 -3.647797280551647 0 0 1 I I #
edge $-1 -1 $-1 $474 -2.1790419057051138 $521 0 $526 $554 forward @7 unknown #
point $-1 -1 $-1 -5.7150000000000016 6.3499999999999996 -7.295594561103294 #
coedge $-1 -1 $-1 $477 $476 $550 $555 forward $478 $-1 #
edge $-1 -1 $-1 $479 -5.7150000000000016 $556 8.254999999999999 $527 $557 forward @7 unknown #
point $-1 -1 $-1 -5.7150000000000016 6.3499999999999996 -10.159999999999998 #
vertex $-1 -1 $-1 $523 $558 #
straight-curve $-1 -1 $-1 0 -6.3499999999999996 -10.159999999999998 -1 0 0 I I #
ellipse-curve $-1 -1 $-1 -4.4450000000000065 -6.3499999999999996 -7.2955945611032913 0 -1 0 0.72571428571428864 0 1.0422277944433205 1 I I #
ellipse-curve $-1 -1 $-1 0.63499999999999801 6.3499999999999996 -2.7204130651450133e-015 0 -1 0 -4.3542857142857212 0 6.2533667666599655 1 I I #
coedge $-1 -1 $-1 $491 $496 $489 $540 reversed $497 $-1 #
edge $-1 -1 $-1 $493 -10.159999999999998 $519 2.7204130651450133e-015 $539 $559 forward @7 unknown #
face $-1 -1 $-1 $-1 $518 $23 $-1 $560 reversed single #
plane-surface $-1 -1 $-1 0 6.3499999999999996 0 0 -1 0 0 0 -1 forward_v I I I I #
straight-curve $-1 -1 $-1 8.254999999999999 0 10.159999999999998 0 1 0 I I #
point $-1 -1 $-1 8.254999999999999 6.3499999999999996 10.159999999999998 #
face $-1 -1 $-1 $412 $497 $23 $-1 $560 reversed single #
ellipse-curve $-1 -1 $-1 -5.0800000000000018 12.699999999999999 7.2955945611032913 0 -1 0 -1.2699999999999976 0 2.8199664825478975e-015 1 I I #
point $-1 -1 $-1 -4.3542857142857212 12.699999999999999 6.2533667666599628 #
ellipse-curve $-1 -1 $-1 -1.0574874309554614e-015 12.699999999999999 -2.1149748619109229e-015 0 1 0 -4.3542857142857265 0 6.2533667666599611 1 I I #
coedge $-1 -1 $-1 $527 $514 $517 $551 forward $528 $-1 #
coedge $-1 -1 $-1 $517 $516 $532 $555 reversed $518 $-1 #
edge $-1 -1 $-1 $519 2.7204130651450133e-015 $556 10.159999999999998 $517 $559 forward @7 unknown #
point $-1 -1 $-1 8.254999999999999 6.3499999999999996 -2.7204130651450133e-015 #
point $-1 -1 $-1 -3.7192857142857179 6.3499999999999996 -6.2533667666599708 #
ellipse-curve $-1 -1 $-1 -4.4450000000000065 6.3499999999999996 -7.2955945611032913 0 1 0 0.72571428571428864 0 1.0422277944433205 1 I I #
edge $-1 -1 $-1 $556 -6.3499999999999996 $535 6.3499999999999996 $550 $561 forward @7 unknown #
vertex $-1 -1 $-1 $555 $562 #
straight-curve $-1 -1 $-1 0 6.3499999999999996 -10.159999999999998 1 0 0 I I #
point $-1 -1 $-1 8.254999999999999 -6.3499999999999996 -10.159999999999998 #
straight-curve $-1 -1 $-1 8.254999999999999 6.3499999999999996 0 0 0 -1 I I #
plane-surface $-1 -1 $-1 8.254999999999999 0 0 -1 0 0 0 0 1 forward_v I I I I #
straight-curve $-1 -1 $-1 8.254999999999999 0 -10.159999999999998 0 -1 0 I I #
point $-1 -1 $-1 8.254999999999999 6.3499999999999996 -10.159999999999998 #
End-of-ACIS-data 