600 0 1 0           
91 GICL Pro/E ACIS Translator - Source: f:/data5/repository/PTC/V18/piping18/support.prt - 6 0 13 ACIS 6.0.3 NT 24 Thu Apr 04 09:58:00 2002 
1 9.9999999999999995e-007 1e-010 
body $-1 $1 $-1 $2 #
lump $-1 $-1 $3 $0 #
transform $-1 1 0 0 0 1 0 0 0 1 0 0 0 25.399999999999999 no_rotate no_reflect no_shear #
shell $-1 $-1 $-1 $4 $-1 $1 #
face $-1 $5 $6 $3 $-1 $7 reversed single #
face $-1 $8 $9 $3 $-1 $10 forward single #
loop $-1 $11 $12 $4 #
plane-surface $-1 0 0 0 0 1 0 1 0 0 forward_v I I I I #
face $-1 $13 $14 $3 $-1 $15 forward single #
loop $-1 $-1 $16 $5 #
plane-surface $-1 -0.25 0 -0.39999999999999997 0 0 -1 -1 0 0 forward_v I I I I #
loop $-1 $-1 $17 $4 #
coedge $-1 $18 $19 $20 $21 reversed $6 $-1 #
face $-1 $22 $23 $3 $-1 $24 forward single #
loop $-1 $-1 $25 $8 #
plane-surface $-1 -0.34999999999999998 0 -0.39999999999999997 -1 0 0 0 0 1 forward_v I I I I #
coedge $-1 $26 $20 $27 $28 forward $9 $-1 #
coedge $-1 $29 $29 $30 $31 reversed $11 $-1 #
coedge $-1 $32 $12 $33 $34 reversed $6 $-1 #
coedge $-1 $12 $35 $36 $37 reversed $6 $-1 #
coedge $-1 $16 $38 $12 $21 forward $9 $-1 #
edge $-1 $39 0 $40 0.099999999999999978 $12 $41 forward 7 unknown #
face $-1 $42 $43 $3 $-1 $44 forward single #
loop $-1 $-1 $45 $13 #
plane-surface $-1 -0.34999999999999998 0 0.39999999999999997 0 0 1 1 0 0 forward_v I I I I #
coedge $-1 $46 $36 $47 $48 forward $14 $-1 #
coedge $-1 $38 $16 $49 $50 reversed $9 $-1 #
coedge $-1 $36 $46 $16 $28 reversed $14 $-1 #
edge $-1 $40 0 $51 0.5 $27 $52 forward 7 unknown #
coedge $-1 $17 $17 $53 $54 reversed $11 $-1 #
coedge $-1 $55 $56 $17 $31 forward $57 $-1 #
edge $-1 $58 0 $59 3.1415926535897931 $17 $60 forward 7 unknown #
coedge $-1 $61 $18 $62 $63 reversed $6 $-1 #
coedge $-1 $64 $65 $18 $34 forward $66 $-1 #
edge $-1 $67 0 $39 0.1127718676730986 $18 $68 forward 7 unknown #
coedge $-1 $19 $69 $70 $71 reversed $6 $-1 #
coedge $-1 $25 $27 $19 $37 forward $14 $-1 #
edge $-1 $40 0 $72 0.79999999999999993 $19 $73 forward 7 unknown #
coedge $-1 $20 $26 $64 $74 reversed $9 $-1 #
vertex $-1 $34 $75 #
vertex $-1 $37 $76 #
straight-curve $-1 -0.25 0 -0.39999999999999997 -1 0 0 I I #
face $-1 $77 $78 $3 $-1 $79 reversed single #
loop $-1 $-1 $80 $22 #
plane-surface $-1 -0.25 0 0.39999999999999997 1 0 0 0 0 -1 forward_v I I I I #
coedge $-1 $81 $70 $82 $83 forward $23 $-1 #
coedge $-1 $27 $25 $84 $85 reversed $14 $-1 #
coedge $-1 $70 $81 $25 $48 reversed $23 $-1 #
edge $-1 $72 0 $86 0.5 $25 $87 forward 7 unknown #
coedge $-1 $84 $88 $26 $50 forward $89 $-1 #
edge $-1 $90 0 $51 0.099999999999999978 $49 $91 forward 7 unknown #
vertex $-1 $85 $92 #
straight-curve $-1 -0.34999999999999998 0 -0.39999999999999997 0 1 0 I I #
coedge $-1 $93 $94 $29 $54 forward $95 $-1 #
edge $-1 $59 0 $58 3.1415926535897931 $29 $96 forward 7 unknown #
coedge $-1 $97 $30 $94 $98 reversed $57 $-1 #
coedge $-1 $30 $97 $93 $99 forward $57 $-1 #
loop $-1 $-1 $55 $100 #
vertex $-1 $54 $101 #
vertex $-1 $54 $102 #
ellipse-curve $-1 1.3877787807814457e-017 0 -6.9388939039072284e-018 0 -1 0 -0.1875 0 6.9388939039072284e-018 1 I I #
coedge $-1 $103 $32 $104 $105 reversed $6 $-1 #
coedge $-1 $106 $107 $32 $63 forward $108 $-1 #
edge $-1 $109 0 $67 2.1790419057050761 $32 $110 forward 7 unknown #
coedge $-1 $111 $33 $38 $74 forward $66 $-1 #
coedge $-1 $33 $111 $106 $112 reversed $66 $-1 #
loop $-1 $-1 $64 $113 #
vertex $-1 $63 $114 #
straight-curve $-1 -0.25 0 -0.28722813232690136 0 0 -1 I I #
coedge $-1 $35 $103 $115 $116 reversed $6 $-1 #
coedge $-1 $45 $47 $35 $71 forward $23 $-1 #
edge $-1 $72 0 $117 0.099999999999999978 $35 $118 forward 7 unknown #
vertex $-1 $37 $119 #
straight-curve $-1 -0.34999999999999998 0 -0.39999999999999997 0 0 1 I I #
edge $-1 $39 0 $90 0.5 $64 $120 forward 7 unknown #
point $-1 -0.25 0 -0.39999999999999997 #
point $-1 -0.34999999999999998 0 -0.39999999999999997 #
face $-1 $121 $122 $3 $-1 $123 forward single #
loop $-1 $-1 $124 $42 #
cone-surface $-1 -0.19999999999999998 0 0.28722813232690136 0 1 0 0.049999999999999996 0 0 1 I I 0 1 0.049999999999999996 forward I I I I #
coedge $-1 $125 $115 $126 $127 forward $43 $-1 #
coedge $-1 $47 $45 $128 $129 reversed $23 $-1 #
coedge $-1 $115 $125 $45 $83 reversed $43 $-1 #
edge $-1 $117 0 $130 0.5 $45 $131 forward 7 unknown #
coedge $-1 $128 $49 $46 $85 forward $89 $-1 #
edge $-1 $51 0 $86 0.79999999999999993 $84 $132 forward 7 unknown #
vertex $-1 $85 $133 #
straight-curve $-1 -0.34999999999999998 0 0.39999999999999997 0 1 0 I I #
coedge $-1 $49 $134 $111 $135 forward $89 $-1 #
loop $-1 $136 $128 $137 #
vertex $-1 $50 $138 #
straight-curve $-1 -0.25 0.5 -0.39999999999999997 -1 0 0 I I #
point $-1 -0.34999999999999998 0.5 -0.39999999999999997 #
coedge $-1 $139 $53 $56 $99 reversed $95 $-1 #
coedge $-1 $53 $139 $55 $98 forward $95 $-1 #
loop $-1 $-1 $93 $140 #
ellipse-curve $-1 0 0 2.0816681711721685e-017 0 -1 0 0.1875 0 -2.0816681711721685e-017 1 I I #
coedge $-1 $56 $55 $141 $142 reversed $57 $-1 #
edge $-1 $143 0 $59 0.5 $94 $144 forward 7 unknown #
edge $-1 $145 0 $58 0.5 $93 $146 forward 7 unknown #
face $-1 $140 $57 $3 $-1 $147 reversed single #
point $-1 -0.1875 0 0 #
point $-1 0.1875 0 0 #
coedge $-1 $69 $61 $148 $149 reversed $6 $-1 #
coedge $-1 $150 $151 $61 $105 forward $122 $-1 #
edge $-1 $152 0 $109 4.3580838114102196 $61 $153 forward 7 unknown #
coedge $-1 $154 $62 $65 $112 forward $108 $-1 #
coedge $-1 $62 $154 $150 $155 reversed $108 $-1 #
loop $-1 $-1 $106 $121 #
vertex $-1 $105 $156 #
ellipse-curve $-1 -0.19999999999999998 0 -0.28722813232690136 0 -1 0 0.028571428571427221 0 0.041032590332415186 1 I I #
coedge $-1 $65 $64 $88 $135 reversed $66 $-1 #
edge $-1 $67 1.5407439555097887e-033 $157 0.5 $106 $158 forward 7 unknown #
face $-1 $137 $66 $3 $-1 $159 forward single #
point $-1 -0.25 0 -0.28722813232690136 #
coedge $-1 $80 $82 $69 $116 forward $43 $-1 #
edge $-1 $117 0 $160 0.1127718676730986 $69 $161 forward 7 unknown #
vertex $-1 $71 $162 #
straight-curve $-1 -0.34999999999999998 0 0.39999999999999997 1 0 0 I I #
point $-1 -0.34999999999999998 0 0.39999999999999997 #
straight-curve $-1 -0.25 0 -0.39999999999999997 0 1 0 I I #
face $-1 $113 $108 $3 $-1 $163 reversed single #
loop $-1 $-1 $150 $77 #
cone-surface $-1 0 0 0 0 1 0 0.29999999999999999 0 0 1 I I 0 1 0.29999999999999999 forward I I I I #
coedge $-1 $164 $148 $151 $165 forward $78 $-1 #
coedge $-1 $82 $80 $166 $167 reversed $43 $-1 #
coedge $-1 $148 $164 $80 $127 reversed $78 $-1 #
edge $-1 $160 0 $168 0.49999999999999994 $80 $169 forward 7 unknown #
coedge $-1 $166 $84 $81 $129 forward $89 $-1 #
edge $-1 $86 0 $130 0.099999999999999978 $128 $170 forward 7 unknown #
vertex $-1 $167 $171 #
straight-curve $-1 -0.25 0 0.39999999999999997 0 1 0 I I #
straight-curve $-1 -0.34999999999999998 0.5 -0.39999999999999997 0 0 1 I I #
point $-1 -0.34999999999999998 0.5 0.39999999999999997 #
coedge $-1 $88 $172 $154 $173 forward $89 $-1 #
edge $-1 $157 0 $90 0.1127718676730986 $88 $174 forward 7 unknown #
loop $-1 $-1 $141 $137 #
face $-1 $100 $89 $3 $-1 $175 forward single #
point $-1 -0.25 0.5 -0.39999999999999997 #
coedge $-1 $94 $93 $176 $177 reversed $95 $-1 #
face $-1 $-1 $95 $3 $-1 $178 reversed single #
coedge $-1 $176 $176 $97 $142 forward $136 $-1 #
edge $-1 $145 0 $143 3.1415926535897931 $141 $179 forward 7 unknown #
vertex $-1 $177 $180 #
straight-curve $-1 0.1875 0.5 0 0 -1 0 I I #
vertex $-1 $177 $181 #
straight-curve $-1 -0.1875 0.5 2.2961369134169574e-017 0 -1 0 I I #
cone-surface $-1 0 0.5 0 0 -1 0 0.1875 0 0 1 I I 0 1 0.1875 forward I I I I #
coedge $-1 $124 $126 $103 $149 forward $78 $-1 #
edge $-1 $160 0 $152 2.1790419057050938 $103 $182 forward 7 unknown #
coedge $-1 $183 $104 $107 $155 forward $122 $-1 #
coedge $-1 $104 $183 $124 $165 reversed $122 $-1 #
vertex $-1 $149 $184 #
ellipse-curve $-1 0 0 0 0 1 0 -0.17142857142857196 0 0.24619554199448659 1 I I #
coedge $-1 $107 $106 $134 $173 reversed $108 $-1 #
edge $-1 $109 2.0491894608280194e-031 $185 0.49999999999999994 $150 $186 forward 7 unknown #
point $-1 -0.17142857142857276 0 -0.24619554199448618 #
vertex $-1 $135 $187 #
straight-curve $-1 -0.24999999999999997 0 -0.28722813232690136 -5.5511151231257827e-017 1 0 I I #
plane-surface $-1 -0.25 0 -0.28722813232690136 1 0 0 0 0 -1 forward_v I I I I #
vertex $-1 $116 $188 #
straight-curve $-1 -0.25 0 0.39999999999999997 0 0 -1 I I #
point $-1 -0.25 0 0.39999999999999997 #
cone-surface $-1 -0.19999999999999998 0 -0.28722813232690136 0 1 0 0.049999999999999996 0 0 1 I I 0 1 0.049999999999999996 forward I I I I #
coedge $-1 $126 $124 $189 $190 reversed $78 $-1 #
edge $-1 $152 6.1629758220391547e-033 $191 0.5 $124 $192 forward 7 unknown #
coedge $-1 $189 $128 $125 $167 forward $89 $-1 #
edge $-1 $130 0 $168 0.1127718676730986 $166 $193 forward 7 unknown #
vertex $-1 $190 $194 #
straight-curve $-1 -0.25 0 0.28722813232690136 0 1 0 I I #
straight-curve $-1 -0.34999999999999998 0.5 0.39999999999999997 1 0 0 I I #
point $-1 -0.25 0.5 0.39999999999999997 #
coedge $-1 $134 $189 $183 $195 forward $89 $-1 #
edge $-1 $185 -2.9750507613002343e-014 $157 2.1790419057050827 $134 $196 forward 7 unknown #
straight-curve $-1 -0.25 0.5 -0.28722813232690136 0 0 -1 I I #
plane-surface $-1 0 0.5 0 0 1 0 1 0 0 forward_v I I I I #
coedge $-1 $141 $141 $139 $177 forward $136 $-1 #
edge $-1 $143 0 $145 3.1415926535897931 $176 $197 forward 7 unknown #
cone-surface $-1 0 0.5 0 0 -1 0 0.1875 0 0 1 I I 0 1 0.1875 forward I I I I #
ellipse-curve $-1 0 0.5 0 0 -1 0 -0.1875 0 0 1 I I #
point $-1 0.1875 0.5 0 #
point $-1 -0.1875 0.5 0 #
ellipse-curve $-1 -0.19999999999999998 0 0.28722813232690136 0 -1 0 -0.050000000000000017 0 0 1 I I #
coedge $-1 $151 $150 $172 $195 reversed $122 $-1 #
point $-1 -0.17142857142857196 0 0.24619554199448659 #
vertex $-1 $173 $198 #
straight-curve $-1 -0.1714285714285714 0 -0.24619554199448695 -5.5511151231257839e-017 1 1.6653345369377351e-016 I I #
point $-1 -0.25 0.5 -0.28722813232690136 #
point $-1 -0.25 0 0.28722813232690136 #
coedge $-1 $172 $166 $164 $190 forward $89 $-1 #
edge $-1 $168 -1.2325951644078362e-030 $191 2.1790419057051049 $189 $199 forward 7 unknown #
vertex $-1 $195 $200 #
straight-curve $-1 -0.17142857142857168 0 0.24619554199448668 -5.5511151231257827e-017 1 1.1102230246251565e-016 I I #
straight-curve $-1 -0.25 0.5 0.39999999999999997 0 0 -1 I I #
point $-1 -0.24999999999999997 0.49999999999999994 0.28722813232690136 #
edge $-1 $191 1.0022846750088216e-015 $185 4.3580838114102143 $172 $201 forward 7 unknown #
ellipse-curve $-1 -0.20000000000000018 0.5 -0.28722813232690125 0 -1 0 0.028571428571427415 0 0.041032590332415075 1 I I #
ellipse-curve $-1 0 0.5 0 0 -1 0 0.1875 0 0 1 I I #
point $-1 -0.17142857142857143 0.49999999999999994 -0.24619554199448687 #
ellipse-curve $-1 -0.20000000000000009 0.5 0.28722813232690125 0 -1 0 -0.049999999999999906 0 1.1102230246251565e-016 1 I I #
point $-1 -0.17142857142857171 0.5 0.24619554199448673 #
ellipse-curve $-1 -4.163336342344337e-017 0.5 -8.3266726846886741e-017 0 1 0 -0.17142857142857193 0 0.24619554199448668 1 I I #
End-of-ACIS-data 