600 0 1 0           
89 GICL ACIS Healer - Source: /gicl/data5/repository/PTC/V18/piping18/tube_end.prt.sat - 6 0 18 ACIS 6.0.3 Solaris 24 Sat Apr 13 21:24:28 2002 
1 9.999999999999999547e-07 1.000000000000000036e-10 
body $-1 $1 $-1 $-1 #
lump $-1 $-1 $2 $0 #
shell $-1 $-1 $-1 $3 $-1 $1 #
face $-1 $4 $5 $2 $-1 $6 reversed single #
face $-1 $7 $8 $2 $-1 $9 forward single #
loop $-1 $10 $11 $3 #
plane-surface $-1 0 0 0 1 0 0 0 0 -25.39999999999999858 forward_v I I I I #
face $-1 $12 $13 $2 $-1 $14 forward single #
loop $-1 $-1 $15 $4 #
cone-surface $-1 0 0 0 -1 0 0 0 0 5.079999999999999183 1 I I 0 1 5.079999999999999183 forward I I I I #
loop $-1 $-1 $16 $3 #
coedge $-1 $17 $17 $18 $19 reversed $5 $-1 #
face $-1 $20 $21 $2 $-1 $22 forward single #
loop $-1 $-1 $23 $7 #
cone-surface $-1 -22.42820000000000036 0 0 1 0 0 0 -25.40000000000000924 0 1 I I -0.7071067811865476838 0.7071067811865473507 25.40000000000000924 forward I I I I #
coedge $-1 $24 $25 $23 $26 reversed $8 $-1 #
coedge $-1 $27 $28 $29 $30 forward $10 $-1 #
coedge $-1 $11 $11 $31 $32 reversed $5 $-1 #
coedge $-1 $33 $24 $11 $19 forward $8 $-1 #
edge $-1 $34 0 $35 3.141592653589793116 $11 $36 forward 7 unknown #
face $-1 $37 $38 $2 $-1 $39 forward single #
loop $-1 $-1 $40 $12 #
cone-surface $-1 -22.42820000000000036 0 0 1 0 0 0 -25.40000000000000924 0 1 I I -0.7071067811865476838 0.7071067811865473507 25.40000000000000924 forward I I I I #
coedge $-1 $41 $42 $15 $26 forward $13 $-1 #
coedge $-1 $18 $15 $43 $44 reversed $8 $-1 #
coedge $-1 $15 $33 $45 $46 reversed $8 $-1 #
edge $-1 $47 6.123031769111862872e-17 $48 1.570796326794898556 $15 $49 forward 7 unknown #
coedge $-1 $50 $16 $51 $52 forward $10 $-1 #
coedge $-1 $16 $53 $54 $55 forward $10 $-1 #
coedge $-1 $56 $57 $16 $30 reversed $58 $-1 #
edge $-1 $59 -1.561451006306781199e-15 $60 1.047197551196601406 $16 $61 forward 7 unknown #
coedge $-1 $43 $62 $17 $32 forward $63 $-1 #
edge $-1 $35 0 $34 3.141592653589793116 $17 $64 forward 7 unknown #
coedge $-1 $25 $18 $62 $65 forward $8 $-1 #
vertex $-1 $32 $66 #
vertex $-1 $32 $67 #
ellipse-curve $-1 0 0 0 -1 0 0 0 0 -5.079999999999999183 1 I I #
face $-1 $68 $69 $2 $-1 $70 forward single #
loop $-1 $-1 $71 $20 #
cone-surface $-1 -8.695690000000000808 0 0 1 0 0 0 -6.349999999999999645 0 1 I I 0 1 6.349999999999999645 forward I I I I #
coedge $-1 $72 $73 $74 $75 forward $21 $-1 #
coedge $-1 $76 $23 $77 $78 forward $13 $-1 #
coedge $-1 $23 $74 $79 $80 forward $13 $-1 #
coedge $-1 $79 $31 $24 $44 forward $63 $-1 #
edge $-1 $34 0 $47 0.08300000000000005984 $43 $81 forward 7 unknown #
coedge $-1 $73 $77 $25 $46 forward $21 $-1 #
edge $-1 $48 0 $82 1.570796326794897668 $25 $83 forward 7 unknown #
vertex $-1 $80 $84 #
vertex $-1 $46 $85 #
ellipse-curve $-1 -2.10820000000000185 -3.877453913503358902e-15 -4.229949723821845788e-15 -1 0 0 0 4.810603955116011256e-15 -5.079999999999997407 1 I I #
coedge $-1 $86 $27 $87 $88 forward $10 $-1 #
coedge $-1 $89 $90 $27 $52 reversed $91 $-1 #
edge $-1 $60 0 $92 1.047197551196600296 $27 $93 forward 7 unknown #
coedge $-1 $28 $86 $94 $95 forward $10 $-1 #
coedge $-1 $96 $97 $28 $55 reversed $98 $-1 #
edge $-1 $99 -5.204836687689077722e-17 $59 1.047197551196579424 $28 $100 forward 7 unknown #
coedge $-1 $57 $29 $101 $102 forward $58 $-1 #
coedge $-1 $29 $56 $103 $104 forward $58 $-1 #
loop $-1 $-1 $29 $105 #
vertex $-1 $55 $106 #
vertex $-1 $52 $107 #
ellipse-curve $-1 0 -2.15022444294277174e-14 -1.101549407245272505e-14 -1 0 0 0 -2.920999999999980279 -5.059320408908676292 1 I I #
coedge $-1 $31 $108 $33 $65 reversed $63 $-1 #
loop $-1 $-1 $62 $109 #
ellipse-curve $-1 0 0 0 -1 0 0 0 0 5.079999999999999183 1 I I #
edge $-1 $35 0 $82 0.08300000000000007372 $62 $110 forward 7 unknown #
point $-1 0 0 -5.079999999999999183 #
point $-1 0 0 5.079999999999999183 #
face $-1 $111 $112 $2 $-1 $113 forward single #
loop $-1 $-1 $114 $37 #
cone-surface $-1 11.93799999999999351 0 0 -1 0 0 0 -25.39999999999997016 0 1 I I -0.7071067811865471286 0.7071067811865479058 25.39999999999997016 forward I I I I #
coedge $-1 $115 $116 $117 $118 forward $38 $-1 #
coedge $-1 $77 $40 $119 $120 forward $21 $-1 #
coedge $-1 $40 $45 $108 $121 forward $21 $-1 #
coedge $-1 $42 $76 $40 $75 reversed $13 $-1 #
edge $-1 $122 0 $123 0.07071067811865461294 $40 $124 forward 7 unknown #
coedge $-1 $74 $41 $125 $126 reversed $13 $-1 #
coedge $-1 $45 $72 $41 $78 reversed $21 $-1 #
edge $-1 $48 -8.483362127036372739e-33 $127 0.07071067811865461294 $77 $128 forward 7 unknown #
coedge $-1 $108 $43 $42 $80 reversed $63 $-1 #
edge $-1 $122 0 $47 1.570796326794899445 $79 $129 forward 7 unknown #
straight-curve $-1 0 6.221000277417675131e-16 -5.079999999999999183 -25.39999999999999858 0 0 I I #
vertex $-1 $121 $130 #
ellipse-curve $-1 -2.10820000000000185 -2.291222767070166731e-15 2.291222767070166731e-15 -1 0 0 0 -5.079999999999999183 -2.291222767070166731e-15 1 I I #
point $-1 -2.108200000000001406 6.221000277417675131e-16 -5.079999999999999183 #
point $-1 -2.10820000000000185 -5.080000000000001847 0 #
coedge $-1 $53 $50 $131 $132 forward $10 $-1 #
coedge $-1 $133 $134 $50 $88 reversed $135 $-1 #
edge $-1 $92 1.197112438168500054e-15 $136 1.047197551196587417 $50 $137 forward 7 unknown #
coedge $-1 $90 $51 $138 $139 forward $91 $-1 #
coedge $-1 $51 $89 $140 $141 forward $91 $-1 #
loop $-1 $-1 $51 $142 #
vertex $-1 $88 $143 #
ellipse-curve $-1 0 -1.550981565401343561e-14 7.931155732165962036e-15 -1 0 0 0 -5.841999999999984539 -7.931155732165962036e-15 1 I I #
coedge $-1 $144 $145 $53 $95 reversed $146 $-1 #
edge $-1 $147 -1.206764157201262222e-16 $99 1.047197551196599408 $53 $148 forward 7 unknown #
coedge $-1 $97 $54 $149 $150 forward $98 $-1 #
coedge $-1 $54 $96 $151 $152 forward $98 $-1 #
loop $-1 $-1 $54 $153 #
vertex $-1 $55 $154 #
ellipse-curve $-1 0 -7.049916206369744032e-15 1.057487430955461605e-13 -1 -2.413528314402448023e-16 4.180353666051181422e-16 -2.819966482547897455e-15 2.92100000000000648 -5.059320408908786426 1 I I #
coedge $-1 $151 $155 $56 $102 reversed $156 $-1 #
edge $-1 $59 0 $157 1.000000000000000222 $101 $158 forward 7 unknown #
coedge $-1 $159 $138 $57 $104 reversed $160 $-1 #
edge $-1 $157 0 $60 1.000000000000000222 $103 $161 forward 7 unknown #
face $-1 $153 $58 $2 $-1 $162 forward single #
point $-1 -2.819966482547897455e-15 -2.920999999999994046 -5.059320408908692279 #
point $-1 0 -5.841999999999999638 0 #
coedge $-1 $62 $79 $73 $121 reversed $63 $-1 #
face $-1 $-1 $63 $2 $-1 $163 forward single #
straight-curve $-1 0 0 5.079999999999999183 -25.39999999999999858 0 0 I I #
face $-1 $164 $165 $2 $-1 $166 forward single #
loop $-1 $-1 $167 $68 #
cone-surface $-1 11.93799999999999351 0 0 -1 0 0 0 -25.39999999999997016 0 1 I I -0.7071067811865471286 0.7071067811865479058 25.39999999999997016 forward I I I I #
coedge $-1 $117 $168 $169 $170 reversed $69 $-1 #
coedge $-1 $119 $71 $171 $172 reversed $38 $-1 #
coedge $-1 $71 $119 $173 $174 forward $38 $-1 #
coedge $-1 $175 $114 $71 $118 reversed $69 $-1 #
edge $-1 $176 -3.91275791541205601e-32 $177 3.141592653589793116 $71 $178 forward 7 unknown #
coedge $-1 $116 $115 $72 $120 reversed $38 $-1 #
edge $-1 $123 1.956378957706024721e-32 $127 3.141592653589793116 $72 $179 forward 7 unknown #
edge $-1 $82 0 $122 1.570796326794896114 $108 $180 forward 7 unknown #
vertex $-1 $121 $181 #
vertex $-1 $120 $182 #
straight-curve $-1 -2.10820000000000185 5.080000000000001847 6.221000277417679075e-16 -17.9605122421382859 17.96051224213832853 2.199455740962717197e-15 I I #
coedge $-1 $171 $173 $76 $126 forward $165 $-1 #
edge $-1 $123 0 $127 3.141592653589793116 $76 $183 forward 7 unknown #
vertex $-1 $78 $184 #
straight-curve $-1 -2.10820000000000185 -5.080000000000001847 -1.244200055483535815e-15 -17.9605122421382859 -17.96051224213832853 -4.398911481925434394e-15 I I #
ellipse-curve $-1 -2.10820000000000185 7.049916206369744032e-15 -7.226164111528986686e-15 -1 0 0 0 5.079999999999994742 7.848264139270754396e-15 1 I I #
point $-1 -2.10820000000000185 -3.110500138708839537e-16 5.080000000000001847 #
coedge $-1 $185 $186 $86 $132 reversed $187 $-1 #
edge $-1 $136 3.122902012613554116e-16 $147 1.047197551196600296 $86 $188 forward 7 unknown #
coedge $-1 $134 $87 $189 $190 forward $135 $-1 #
coedge $-1 $87 $133 $191 $192 forward $135 $-1 #
loop $-1 $-1 $87 $193 #
vertex $-1 $132 $194 #
ellipse-curve $-1 0 -5.63993296509579491e-15 -7.190914530497138155e-14 -1 2.413528314402469716e-16 -4.18035366605120065e-16 -2.819966482547897455e-15 -2.920999999999999819 5.059320408908752675 1 I I #
coedge $-1 $103 $195 $89 $139 reversed $160 $-1 #
edge $-1 $60 0 $196 1.000000000000000222 $138 $197 forward 7 unknown #
coedge $-1 $198 $189 $90 $141 reversed $199 $-1 #
edge $-1 $196 0 $92 1.000000000000000222 $140 $200 forward 7 unknown #
face $-1 $105 $91 $2 $-1 $201 forward single #
point $-1 0 -2.921000000000002483 5.059320408908689615 #
coedge $-1 $145 $94 $202 $203 forward $146 $-1 #
coedge $-1 $94 $144 $204 $205 forward $146 $-1 #
loop $-1 $-1 $94 $206 #
vertex $-1 $95 $207 #
ellipse-curve $-1 0 1.233735336114705206e-14 -7.57865992184747515e-15 -1 0 0 0 5.841999999999988091 7.57865992184747515e-15 1 I I #
coedge $-1 $204 $208 $96 $150 reversed $209 $-1 #
edge $-1 $99 0 $210 0.999999999999999889 $149 $211 forward 7 unknown #
coedge $-1 $212 $101 $97 $152 reversed $156 $-1 #
edge $-1 $210 0 $59 0.999999999999999889 $151 $213 forward 7 unknown #
face $-1 $206 $98 $2 $-1 $214 forward single #
point $-1 -2.819966482547897455e-15 2.920999999999999819 -5.059320408908680733 #
coedge $-1 $101 $215 $159 $216 reversed $156 $-1 #
loop $-1 $-1 $215 $217 #
vertex $-1 $216 $218 #
intcurve-curve $-1 forward { surfintcur full nurbs 3 open 5 
	0 3 0.2496208235471208403 1 0.499106781924577525 1 0.7488669575467192807 1 1.000000000000000222 3 
	0 -2.921000000000003372 -5.059320408908685174 1 
	0.0001955179449823034321 -3.163752803421104431 -4.919167012506975745 1 
	0.01078171160585410238 -3.648307272904497189 -4.639409359113701115 1 
	0.05840963824434003415 -4.372471808187055053 -4.221312769730738879 0.999999999999999778 
	0.1344675289457603895 -5.096451080004234413 -3.803323142259379619 1 
	0.2031409816440266358 -5.591747914580816214 -3.517363381487820462 1 
	0.2421619082405548351 -5.841999999999999638 -3.372880272605789376 1 
	0.02539999999999999897 
	cone 23.83464081781738031 0 0 -1 0 0 0 0 -94.79409051224948257 1 I I -0.9659258262890683122 0.2588190451025207395 94.79409051224948257 forward I I I I 
	plane 0 -5.841999999999999638 -3.372880272605789376 0 -0.500000000000000111 -0.8660254037844387076 0 21.9970452561247356 -12.69999999999999929 forward_v I I I I 
	nullbs 
	nullbs 
	I I 
	0 
	0 
	0 
	} I I #
coedge $-1 $219 $103 $155 $216 forward $160 $-1 #
loop $-1 $-1 $220 $221 #
intcurve-curve $-1 forward { surfintcur full nurbs 3 open 5 
	0 3 0.2511330424532808858 1 0.5008932180754224195 1 0.7503791764528793262 1 1.000000000000000222 3 
	0.2421619082405547518 -5.841999999999999638 -3.372880272605789376 1 
	0.2031409816440266358 -5.842000000000000526 -3.083914054841728092 1 
	0.134467528945760445 -5.841999999999998749 -2.511994533298609333 0.999999999999999889 
	0.05840963824434016599 -5.841999999999999638 -1.676015278355893923 1.000000000000000222 
	0.01078171160585460892 -5.842000000000000526 -0.839822099589965565 0.9999999999999995559 
	0.0001955179449825195678 -5.841999999999999638 -0.2803067928034184697 1.000000000000000222 
	0 -5.841999999999999638 0 1 
	0.02539999999999999897 
	cone 23.83464081781738031 0 0 -1 0 0 0 0 -94.79409051224948257 1 I I -0.9659258262890683122 0.2588190451025207395 94.79409051224948257 forward I I I I 
	plane 0 -5.841999999999999638 3.372880272605792484 0 -1 0 0 0 -25.39999999999999858 forward_v I I I I 
	nullbs 
	nullbs 
	I I 
	0 
	0 
	0 
	} I I #
cone-surface $-1 23.83464081781738031 0 0 -1 0 0 0 0 -94.79409051224948257 1 I I -0.9659258262890683122 0.2588190451025207395 94.79409051224948257 forward I I I I #
cone-surface $-1 0 0 0 -1 0 0 0 0 5.079999999999999183 1 I I 0 1 5.079999999999999183 forward I I I I #
face $-1 $222 $223 $2 $-1 $224 reversed single #
loop $-1 $-1 $125 $111 #
cone-surface $-1 -8.695690000000000808 0 0 1 0 0 0 -6.349999999999999645 0 1 I I 0 1 6.349999999999999645 forward I I I I #
coedge $-1 $225 $226 $175 $227 reversed $112 $-1 #
coedge $-1 $114 $175 $228 $229 reversed $69 $-1 #
coedge $-1 $226 $225 $114 $170 forward $112 $-1 #
edge $-1 $177 0 $230 0.07071067811865440478 $114 $231 forward 7 unknown #
coedge $-1 $232 $125 $115 $172 forward $165 $-1 #
edge $-1 $127 0 $177 0.1470000000000002971 $115 $233 forward 7 unknown #
coedge $-1 $125 $232 $116 $174 reversed $165 $-1 #
edge $-1 $123 0 $176 0.1470000000000000195 $116 $234 forward 7 unknown #
coedge $-1 $168 $117 $167 $227 forward $69 $-1 #
vertex $-1 $174 $235 #
vertex $-1 $172 $236 #
ellipse-curve $-1 -7.112000000000006317 7.049916206369743637e-16 -3.524958103184871819e-16 1 0 0 0 6.349999999999990763 1.130120844995695735e-15 1 I I #
ellipse-curve $-1 -3.378199999999999203 1.762479051592435909e-16 1.762479051592435909e-16 1 0 0 0 6.349999999999999645 6.01377129517965899e-16 1 I I #
ellipse-curve $-1 -2.10820000000000185 -8.81239525796218004e-16 -1.057487430955461447e-15 -1 0 0 0 5.701895119253340502e-16 5.080000000000002736 1 I I #
point $-1 -2.10820000000000185 5.080000000000001847 6.221000277417679075e-16 #
point $-1 -3.378199999999999203 6.349999999999999645 7.776250346772095392e-16 #
ellipse-curve $-1 -3.378199999999999203 0 0 -1 0 0 0 6.349999999999999645 7.776250346772095392e-16 1 I I #
point $-1 -3.378199999999999203 -6.349999999999999645 0 #
coedge $-1 $186 $131 $237 $238 forward $187 $-1 #
coedge $-1 $131 $185 $239 $240 forward $187 $-1 #
loop $-1 $-1 $131 $241 #
ellipse-curve $-1 0 1.339484079210251271e-14 8.724271305382557924e-15 -1 0 0 0 2.92099999999998694 5.059320408908682509 1 I I #
coedge $-1 $140 $242 $133 $190 reversed $199 $-1 #
edge $-1 $92 0 $243 1.000000000000000222 $189 $244 forward 7 unknown #
coedge $-1 $245 $237 $134 $192 reversed $246 $-1 #
edge $-1 $243 0 $136 1 $191 $247 forward 7 unknown #
face $-1 $142 $135 $2 $-1 $248 forward single #
point $-1 0 2.921000000000001595 5.059320408908689615 #
coedge $-1 $138 $220 $198 $249 reversed $160 $-1 #
vertex $-1 $249 $250 #
intcurve-curve $-1 forward { surfintcur full nurbs 3 open 5 
	0 3 0.2496208235471208958 1 0.499106781924577525 1 0.7488669575467190587 1 1.000000000000000222 3 
	0 -5.841999999999999638 0 1 
	0.0001955179449824810515 -5.841999999999999638 0.2803067928034192469 1 
	0.01078171160585451524 -5.841999999999999638 0.8398220995899670083 0.999999999999999778 
	0.05840963824434049906 -5.841999999999999638 1.676015278355896809 1.000000000000000222 
	0.1344675289457603062 -5.842000000000000526 2.511994533298608889 0.999999999999999778 
	0.2031409816440268024 -5.841999999999999638 3.08391405484172898 1 
	0.2421619082405551959 -5.841999999999999638 3.372880272605792484 1 
	0.02539999999999999897 
	cone 23.83464081781738031 0 0 -1 0 0 0 0 -94.79409051224948257 1 I I -0.9659258262890683122 0.2588190451025207395 94.79409051224948257 forward I I I I 
	plane 0 -5.841999999999999638 3.372880272605792484 0 -1 0 0 0 -25.39999999999999858 forward_v I I I I 
	nullbs 
	nullbs 
	I I 
	0 
	0 
	0 
	} I I #
coedge $-1 $251 $140 $195 $249 forward $199 $-1 #
loop $-1 $-1 $252 $253 #
intcurve-curve $-1 forward { surfintcur full nurbs 3 open 5 
	0 3 0.2511330424532808858 1 0.5008932180754226415 1 0.7503791764528793262 1 1.000000000000000222 3 
	0.2421619082405550571 -5.841999999999999638 3.372880272605793817 1 
	0.2031409816440268301 -5.591747914580815326 3.517363381487824459 1 
	0.1344675289457605005 -5.096451080004234413 3.803323142259384504 0.999999999999999778 
	0.05840963824434005497 -4.372471808187055053 4.221312769730742431 1 
	0.01078171160585423768 -3.648307272904494081 4.639409359113709108 1 
	0.0001955179449823557449 -3.163752803421103099 4.919167012506980186 1 
	0 -2.921000000000002483 5.059320408908689615 1 
	0.02539999999999999897 
	cone 23.83464081781738031 0 0 -1 0 0 0 0 -94.79409051224948257 1 I I -0.9659258262890683122 0.2588190451025207395 94.79409051224948257 forward I I I I 
	plane 0 0 6.745760545211587633 0 -0.500000000000000111 0.8660254037844387076 0 -21.99704525612473915 -12.69999999999999929 forward_v I I I I 
	nullbs 
	nullbs 
	I I 
	0 
	0 
	0 
	} I I #
cone-surface $-1 23.83464081781738031 0 0 -1 0 0 0 0 -94.79409051224948257 1 I I -0.9659258262890683122 0.2588190451025207395 94.79409051224948257 forward I I I I #
coedge $-1 $239 $254 $144 $203 reversed $255 $-1 #
edge $-1 $147 0 $256 1.000000000000000222 $202 $257 forward 7 unknown #
coedge $-1 $258 $149 $145 $205 reversed $209 $-1 #
edge $-1 $256 0 $99 1.000000000000000222 $204 $259 forward 7 unknown #
face $-1 $109 $146 $2 $-1 $260 forward single #
point $-1 0 5.841999999999999638 7.049916206369743637e-16 #
coedge $-1 $149 $261 $212 $262 reversed $209 $-1 #
loop $-1 $-1 $261 $263 #
vertex $-1 $262 $264 #
intcurve-curve $-1 forward { surfintcur full nurbs 3 open 5 
	0 3 0.2496208235471208681 1 0.4991067819245774695 1 0.7488669575467189476 1 0.999999999999999889 3 
	0 2.920999999999999375 -5.059320408908690503 1 
	0.0001955179449826559062 2.678247196578896983 -5.19947380531040082 1 
	0.01078171160585491943 2.193692727095503781 -5.479231458703673674 0.999999999999999778 
	0.05840963824434013824 1.469528191812946583 -5.897328048086637686 1.000000000000000222 
	0.1344675289457603617 0.7455489199957692215 -6.315317675557995614 0.999999999999999778 
	0.2031409816440270522 0.2502520854191851996 -6.601277436329556103 1 
	0.2421619082405556678 0 -6.745760545211587633 1 
	0.02539999999999999897 
	cone 23.83464081781738031 0 0 -1 0 0 0 0 -94.79409051224948257 1 I I -0.9659258262890683122 0.2588190451025207395 94.79409051224948257 forward I I I I 
	plane 0 0 -6.745760545211587633 0 0.500000000000000111 -0.8660254037844387076 0 21.99704525612473915 12.69999999999999929 forward_v I I I I 
	nullbs 
	nullbs 
	I I 
	0 
	0 
	0 
	} I I #
coedge $-1 $265 $151 $208 $262 forward $156 $-1 #
intcurve-curve $-1 forward { surfintcur full nurbs 3 open 5 
	0 3 0.2511330424532810524 1 0.5008932180754224195 1 0.7503791764528789932 1 0.999999999999999889 3 
	0.242161908240555418 1.409983241273948727e-15 -6.745760545211584969 1 
	0.2031409816440268024 -0.2502520854191842559 -6.601277436329551662 1.000000000000000222 
	0.1344675289457601119 -0.7455489199957693325 -6.315317675557991173 1 
	0.05840963824434008966 -1.469528191812945694 -5.89732804808663591 1 
	0.01078171160585433483 -2.193692727095504669 -5.479231458703670121 0.9999999999999995559 
	0.0001955179449824067024 -2.678247196578900535 -5.199473805310394603 1 
	0 -2.921000000000003372 -5.059320408908685174 1 
	0.02539999999999999897 
	cone 23.83464081781738031 0 0 -1 0 0 0 0 -94.79409051224948257 1 I I -0.9659258262890683122 0.2588190451025207395 94.79409051224948257 forward I I I I 
	plane 0 -5.841999999999999638 -3.372880272605789376 0 -0.500000000000000111 -0.8660254037844387076 0 21.9970452561247356 -12.69999999999999929 forward_v I I I I 
	nullbs 
	nullbs 
	I I 
	0 
	0 
	0 
	} I I #
cone-surface $-1 23.83464081781738031 0 0 -1 0 0 0 0 -94.79409051224948257 1 I I -0.9659258262890683122 0.2588190451025207395 94.79409051224948257 forward I I I I #
coedge $-1 $155 $265 $266 $267 forward $156 $-1 #
edge $-1 $157 -3.278217592397116109e-18 $268 0.1809321332094050438 $159 $269 forward 7 unknown #
face $-1 $270 $156 $2 $-1 $271 forward single #
point $-1 0.2421619082405547518 -5.841999999999999638 -3.372880272605789376 #
coedge $-1 $220 $159 $272 $273 forward $160 $-1 #
coedge $-1 $195 $219 $274 $275 forward $160 $-1 #
face $-1 $276 $160 $2 $-1 $277 forward single #
face $-1 $278 $279 $2 $-1 $280 reversed single #
loop $-1 $-1 $281 $164 #
cone-surface $-1 -6.941819999999998991 0 0 -1 0 0 0 5.079999999999999183 0 1 I I 0 1 5.079999999999999183 forward I I I I #
coedge $-1 $169 $167 $232 $282 forward $112 $-1 #
coedge $-1 $167 $169 $281 $283 reversed $112 $-1 #
edge $-1 $176 -4.45065578839495145e-16 $284 0.07071067811865440478 $175 $285 forward 7 unknown #
coedge $-1 $286 $287 $168 $229 forward $279 $-1 #
edge $-1 $230 0 $284 3.141592653589792672 $168 $288 forward 7 unknown #
vertex $-1 $229 $289 #
straight-curve $-1 -7.112000000000006317 -6.349999999999990763 -1.555250069354417106e-15 -17.96051224213832853 17.9605122421382859 4.398911481925428083e-15 I I #
coedge $-1 $173 $171 $225 $282 reversed $165 $-1 #
straight-curve $-1 -3.378199999999999203 -6.349999999999999645 -1.555250069354419078e-15 -25.39999999999999858 0 0 I I #
straight-curve $-1 -3.378199999999999203 6.349999999999999645 7.776250346772095392e-16 -25.39999999999999858 0 0 I I #
point $-1 -7.111999999999999211 6.349999999999999645 7.776250346772095392e-16 #
point $-1 -7.112000000000006317 -6.349999999999990763 -1.555250069354417106e-15 #
coedge $-1 $191 $290 $185 $238 reversed $246 $-1 #
edge $-1 $136 0 $291 1.000000000000000222 $237 $292 forward 7 unknown #
coedge $-1 $293 $202 $186 $240 reversed $255 $-1 #
edge $-1 $291 0 $147 1.000000000000000222 $239 $294 forward 7 unknown #
face $-1 $193 $187 $2 $-1 $295 forward single #
coedge $-1 $189 $252 $245 $296 reversed $199 $-1 #
vertex $-1 $190 $297 #
intcurve-curve $-1 forward { surfintcur full nurbs 3 open 5 
	0 3 0.2496208235471208958 1 0.499106781924577636 1 0.7488669575467192807 1 1.000000000000000222 3 
	0 -2.921000000000002483 5.059320408908689615 1 
	0.0001955179449824466281 -2.678247196578900091 5.199473805310399044 1 
	0.01078171160585445799 -2.193692727095505557 5.479231458703673674 1 
	0.05840963824434024232 -1.469528191812945694 5.897328048086638574 1.000000000000000222 
	0.1344675289457606115 -0.7455489199957661128 6.315317675557995614 1 
	0.2031409816440271077 -0.2502520854191836452 6.601277436329556991 1 
	0.2421619082405554457 0 6.745760545211587633 1 
	0.02539999999999999897 
	cone 23.83464081781738031 0 0 -1 0 0 0 0 -94.79409051224948257 1 I I -0.9659258262890683122 0.2588190451025207395 94.79409051224948257 forward I I I I 
	plane 0 0 6.745760545211587633 0 -0.500000000000000111 0.8660254037844387076 0 -21.99704525612473915 -12.69999999999999929 forward_v I I I I 
	nullbs 
	nullbs 
	I I 
	0 
	0 
	0 
	} I I #
coedge $-1 $298 $191 $242 $296 forward $246 $-1 #
loop $-1 $-1 $299 $300 #
intcurve-curve $-1 forward { surfintcur full nurbs 3 open 5 
	0 3 0.2511330424532809968 1 0.5008932180754223085 1 0.7503791764528789932 1 1 3 
	0.2421619082405553625 0 6.745760545211587633 1 
	0.2031409816440269689 0.2502520854191855326 6.601277436329556103 0.999999999999999889 
	0.1344675289457604728 0.7455489199957701096 6.315317675557993837 1 
	0.0584096382443405962 1.469528191812945028 5.897328048086640351 1 
	0.01078171160585460198 2.193692727095504225 5.479231458703673674 1 
	0.0001955179449825127102 2.678247196578899203 5.199473805310399044 1 
	0 2.921000000000001595 5.059320408908689615 1 
	0.02539999999999999897 
	cone 23.83464081781738031 0 0 -1 0 0 0 0 -94.79409051224948257 1 I I -0.9659258262890683122 0.2588190451025207395 94.79409051224948257 forward I I I I 
	plane 0 5.841999999999999638 3.372880272605792928 0 0.500000000000000111 0.8660254037844387076 0 -21.99704525612473915 12.69999999999999929 forward_v I I I I 
	nullbs 
	nullbs 
	I I 
	0 
	0 
	0 
	} I I #
cone-surface $-1 23.83464081781738031 0 0 -1 0 0 0 0 -94.79409051224948257 1 I I -0.9659258262890683122 0.2588190451025207395 94.79409051224948257 forward I I I I #
edge $-1 $196 -5.463695987328526591e-18 $301 0.1809321332094050438 $198 $302 forward 7 unknown #
point $-1 0.2421619082405550571 -5.841999999999999638 3.372880272605793817 #
coedge $-1 $252 $198 $303 $304 forward $199 $-1 #
coedge $-1 $242 $251 $305 $306 forward $199 $-1 #
face $-1 $307 $199 $2 $-1 $308 forward single #
coedge $-1 $202 $309 $258 $310 reversed $255 $-1 #
loop $-1 $-1 $309 $311 #
vertex $-1 $310 $312 #
intcurve-curve $-1 forward { surfintcur full nurbs 3 open 5 
	0 3 0.2496208235471208403 1 0.499106781924577525 1 0.7488669575467190587 1 1.000000000000000222 3 
	0 5.841999999999999638 7.049916206369743637e-16 1 
	0.0001955179449825140926 5.842000000000000526 -0.2803067928034183587 1 
	0.01078171160585461065 5.842000000000000526 -0.8398220995899661201 1 
	0.05840963824434016599 5.841999999999999638 -1.676015278355896143 1 
	0.134467528945760556 5.842000000000001414 -2.511994533298611998 0.999999999999999778 
	0.2031409816440268856 5.842000000000000526 -3.083914054841730756 1 
	0.2421619082405551959 5.841999999999999638 -3.372880272605792928 1 
	0.02539999999999999897 
	cone 23.83464081781738031 0 0 -1 0 0 0 0 -94.79409051224948257 1 I I -0.9659258262890683122 0.2588190451025207395 94.79409051224948257 forward I I I I 
	plane 0 5.841999999999999638 -3.372880272605792928 0 1 0 0 0 25.39999999999999858 forward_v I I I I 
	nullbs 
	nullbs 
	I I 
	0 
	0 
	0 
	} I I #
coedge $-1 $313 $204 $254 $310 forward $209 $-1 #
intcurve-curve $-1 forward { surfintcur full nurbs 3 open 5 
	0 3 0.2511330424532808858 1 0.5008932180754224195 1 0.7503791764528793262 1 1.000000000000000222 3 
	0.2421619082405552792 5.841999999999999638 -3.372880272605793817 1 
	0.2031409816440268856 5.591747914580815326 -3.517363381487824459 1 
	0.134467528945760445 5.096451080004234413 -3.803323142259385836 0.999999999999999889 
	0.05840963824434016599 4.372471808187055942 -4.221312769730740655 1 
	0.01078171160585460545 3.648307272904495413 -4.63940935911370822 1 
	0.0001955179449825210315 3.163752803421101767 -4.919167012506981962 0.999999999999999778 
	0 2.920999999999999375 -5.059320408908690503 1 
	0.02539999999999999897 
	cone 23.83464081781738031 0 0 -1 0 0 0 0 -94.79409051224948257 1 I I -0.9659258262890683122 0.2588190451025207395 94.79409051224948257 forward I I I I 
	plane 0 0 -6.745760545211587633 0 0.500000000000000111 -0.8660254037844387076 0 21.99704525612473915 12.69999999999999929 forward_v I I I I 
	nullbs 
	nullbs 
	I I 
	0 
	0 
	0 
	} I I #
cone-surface $-1 23.83464081781738031 0 0 -1 0 0 0 0 -94.79409051224948257 1 I I -0.9659258262890683122 0.2588190451025207395 94.79409051224948257 forward I I I I #
coedge $-1 $208 $313 $314 $315 forward $209 $-1 #
edge $-1 $210 -9.834652777191348326e-18 $316 0.1809321332094050161 $212 $317 forward 7 unknown #
face $-1 $318 $209 $2 $-1 $319 forward single #
point $-1 0.242161908240555418 1.409983241273948727e-15 -6.745760545211584969 #
coedge $-1 $215 $212 $320 $321 forward $156 $-1 #
coedge $-1 $322 $272 $215 $267 reversed $323 $-1 #
edge $-1 $324 0 $268 0.999999999999999889 $215 $325 forward 7 unknown #
vertex $-1 $273 $326 #
straight-curve $-1 0.2421619082405548351 -5.841999999999999638 -3.372880272605789376 25.39999999999999858 0 0 I I #
face $-1 $221 $323 $2 $-1 $327 forward single #
plane-surface $-1 0 -5.841999999999999638 -3.372880272605789376 0 -0.500000000000000111 -0.8660254037844387076 0 21.9970452561247356 -12.69999999999999929 forward_v I I I I #
coedge $-1 $266 $322 $219 $273 reversed $323 $-1 #
edge $-1 $268 0 $328 1.000000000000000222 $219 $329 forward 7 unknown #
coedge $-1 $330 $303 $220 $275 reversed $331 $-1 #
edge $-1 $328 0 $301 1.000000000000000222 $220 $332 forward 7 unknown #
face $-1 $253 $331 $2 $-1 $333 forward single #
plane-surface $-1 0 -5.841999999999999638 3.372880272605792484 0 -1 0 0 0 -25.39999999999999858 forward_v I I I I #
face $-1 $334 $335 $2 $-1 $336 forward single #
loop $-1 $-1 $337 $222 #
cone-surface $-1 -6.941819999999998991 0 0 -1 0 0 0 5.079999999999999183 0 1 I I 0 1 5.079999999999999183 forward I I I I #
coedge $-1 $338 $339 $226 $283 forward $223 $-1 #
edge $-1 $176 -6.847326351971098154e-32 $177 3.141592653589793116 $232 $340 forward 7 unknown #
edge $-1 $284 0 $230 3.141592653589792228 $226 $341 forward 7 unknown #
vertex $-1 $229 $342 #
straight-curve $-1 -7.112000000000006317 6.349999999999990763 7.776250346772085532e-16 -17.96051224213832853 -17.9605122421382859 -2.199455740962714042e-15 I I #
coedge $-1 $337 $228 $339 $343 reversed $279 $-1 #
coedge $-1 $228 $337 $338 $344 forward $279 $-1 #
ellipse-curve $-1 -8.38200000000000145 5.287437154777307235e-16 -1.233735336114705087e-15 -1 0 0 0 -5.079999999999999183 1.233735336114705087e-15 1 I I #
point $-1 -8.38200000000000145 -5.079999999999998295 0 #
coedge $-1 $237 $299 $293 $345 reversed $246 $-1 #
vertex $-1 $345 $346 #
intcurve-curve $-1 forward { surfintcur full nurbs 3 open 5 
	0 3 0.2496208235471208403 1 0.499106781924577525 1 0.7488669575467190587 1 1.000000000000000222 3 
	0 2.921000000000001595 5.059320408908689615 1 
	0.0001955179449825870594 3.163752803421102655 4.919167012506980186 1 
	0.01078171160585477024 3.648307272904495413 4.639409359113709108 1 
	0.05840963824433981905 4.372471808187053277 4.221312769730740655 1 
	0.1344675289457604728 5.096451080004232637 3.803323142259385836 0.999999999999999778 
	0.2031409816440268856 5.591747914580814438 3.517363381487824459 1 
	0.2421619082405552237 5.841999999999999638 3.372880272605792928 1 
	0.02539999999999999897 
	cone 23.83464081781738031 0 0 -1 0 0 0 0 -94.79409051224948257 1 I I -0.9659258262890683122 0.2588190451025207395 94.79409051224948257 forward I I I I 
	plane 0 5.841999999999999638 3.372880272605792928 0 0.500000000000000111 0.8660254037844387076 0 -21.99704525612473915 12.69999999999999929 forward_v I I I I 
	nullbs 
	nullbs 
	I I 
	0 
	0 
	0 
	} I I #
coedge $-1 $347 $239 $290 $345 forward $255 $-1 #
intcurve-curve $-1 forward { surfintcur full nurbs 3 open 5 
	0 3 0.2511330424532809968 1 0.5008932180754226415 1 0.7503791764528793262 1 1.000000000000000222 3 
	0.2421619082405552792 5.841999999999999638 3.372880272605792928 1 
	0.2031409816440269411 5.842000000000000526 3.083914054841729868 1 
	0.134467528945760556 5.842000000000001414 2.511994533298611998 0.999999999999999778 
	0.05840963824434016599 5.841999999999999638 1.676015278355894367 1 
	0.01078171160585460198 5.842000000000001414 0.8398220995899673413 1 
	0.0001955179449825099726 5.842000000000000526 0.2803067928034196354 1 
	0 5.841999999999999638 7.049916206369743637e-16 1 
	0.02539999999999999897 
	cone 23.83464081781738031 0 0 -1 0 0 0 0 -94.79409051224948257 1 I I -0.9659258262890683122 0.2588190451025207395 94.79409051224948257 forward I I I I 
	plane 0 5.841999999999999638 -3.372880272605792928 0 1 0 0 0 25.39999999999999858 forward_v I I I I 
	nullbs 
	nullbs 
	I I 
	0 
	0 
	0 
	} I I #
cone-surface $-1 23.83464081781738031 0 0 -1 0 0 0 0 -94.79409051224948257 1 I I -0.9659258262890683122 0.2588190451025207395 94.79409051224948257 forward I I I I #
edge $-1 $243 -3.278217592397116109e-18 $348 0.1809321332094050438 $242 $349 forward 7 unknown #
point $-1 0.2421619082405553625 0 6.745760545211587633 #
coedge $-1 $299 $245 $350 $351 forward $246 $-1 #
coedge $-1 $290 $298 $352 $353 forward $246 $-1 #
face $-1 $354 $246 $2 $-1 $355 forward single #
vertex $-1 $304 $356 #
straight-curve $-1 0.2421619082405551959 -5.842000000000001414 3.372880272605792928 25.39999999999999858 0 0 I I #
coedge $-1 $274 $330 $251 $304 reversed $331 $-1 #
edge $-1 $301 0 $357 1 $251 $358 forward 7 unknown #
coedge $-1 $359 $350 $252 $306 reversed $360 $-1 #
edge $-1 $357 0 $348 1 $252 $361 forward 7 unknown #
face $-1 $300 $360 $2 $-1 $362 forward single #
plane-surface $-1 0 0 6.745760545211587633 0 -0.500000000000000111 0.8660254037844387076 0 -21.99704525612473915 -12.69999999999999929 forward_v I I I I #
coedge $-1 $254 $347 $363 $364 forward $255 $-1 #
edge $-1 $256 3.278217592397116109e-18 $365 0.1809321332094050438 $258 $366 forward 7 unknown #
face $-1 $263 $255 $2 $-1 $367 forward single #
point $-1 0.2421619082405552792 5.841999999999999638 -3.372880272605793817 #
coedge $-1 $261 $258 $368 $369 forward $209 $-1 #
coedge $-1 $370 $320 $261 $315 reversed $371 $-1 #
edge $-1 $372 0 $316 1 $261 $373 forward 7 unknown #
vertex $-1 $321 $374 #
straight-curve $-1 0.2421619082405556678 1.409983241273948727e-15 -6.745760545211584969 25.39999999999999858 0 0 I I #
face $-1 $217 $371 $2 $-1 $375 forward single #
plane-surface $-1 0 0 -6.745760545211587633 0 0.500000000000000111 -0.8660254037844387076 0 21.99704525612473915 12.69999999999999929 forward_v I I I I #
coedge $-1 $314 $370 $265 $321 reversed $371 $-1 #
edge $-1 $316 0 $324 1.000000000000000222 $265 $376 forward 7 unknown #
coedge $-1 $272 $266 $377 $378 forward $323 $-1 #
loop $-1 $-1 $266 $270 #
vertex $-1 $379 $380 #
intcurve-curve $-1 forward { surfintcur full nurbs 3 open 5 
	0 3 0.2496208235471208681 1 0.4991067819245774695 1 0.7488669575467189476 1 0.999999999999999889 3 
	5.079999999999999183 -2.921000000000001595 -5.059320408908686062 1 
	5.079804482055017445 -3.163752803421103543 -4.919167012506976633 1 
	5.069218288394146121 -3.648307272904497189 -4.639409359113703779 0.999999999999999889 
	5.021590361755658094 -4.372471808187054165 -4.221312769730736214 1.000000000000000444 
	4.945532471054240098 -5.096451080004234413 -3.803323142259380951 0.999999999999999778 
	4.876859018355970576 -5.591747914580814438 -3.517363381487820462 1.000000000000000222 
	4.837838091759443238 -5.841999999999999638 -3.372880272605789376 1 
	0.02539999999999999897 
	plane 0 -5.841999999999999638 -3.372880272605789376 0 -0.500000000000000111 -0.8660254037844387076 0 21.9970452561247356 -12.69999999999999929 forward_v I I I I 
	cone -18.75464081781737491 0 0 1 0 0 0 0 -94.79409051224922678 1 I I -0.9659258262890680902 0.2588190451025214056 94.79409051224922678 forward I I I I 
	nullbs 
	nullbs 
	I I 
	0 
	0 
	0 
	} I I #
point $-1 4.837838091759443238 -5.841999999999999638 -3.372880272605789376 #
cone-surface $-1 -18.75464081781737491 0 0 1 0 0 0 0 -94.79409051224922678 1 I I -0.9659258262890680902 0.2588190451025214056 94.79409051224922678 forward I I I I #
vertex $-1 $378 $381 #
intcurve-curve $-1 forward { surfintcur full nurbs 3 open 5 
	0 3 0.2511330424532808303 1 0.5008932180754224195 1 0.7503791764528793262 1 1.000000000000000222 3 
	4.837838091759443238 -5.841999999999999638 -3.372880272605789376 1 
	4.876859018355971465 -5.841999999999998749 -3.083914054841727648 1.000000000000000222 
	4.94553247105423921 -5.842000000000000526 -2.511994533298610222 1 
	5.021590361755658982 -5.841999999999999638 -1.676015278355893923 1.000000000000000222 
	5.069218288394143457 -5.841999999999999638 -0.8398220995899645658 0.999999999999999889 
	5.079804482055015669 -5.841999999999999638 -0.2803067928034180256 1.000000000000000222 
	5.079999999999999183 -5.841999999999999638 0 1 
	0.02539999999999999897 
	plane 0 -5.841999999999999638 3.372880272605792484 0 -1 0 0 0 -25.39999999999999858 forward_v I I I I 
	cone -18.75464081781737491 0 0 1 0 0 0 0 -94.79409051224922678 1 I I -0.9659258262890680902 0.2588190451025214056 94.79409051224922678 forward I I I I 
	nullbs 
	nullbs 
	I I 
	0 
	0 
	0 
	} I I #
coedge $-1 $303 $274 $382 $383 forward $331 $-1 #
loop $-1 $-1 $274 $276 #
intcurve-curve $-1 forward { surfintcur full nurbs 3 open 5 
	0 3 0.2496208235471208403 1 0.499106781924577525 1 0.7488669575467190587 1 1.000000000000000222 3 
	5.079999999999999183 -5.841999999999999638 0 1 
	5.079804482055017445 -5.842000000000001414 0.2803067928034175815 0.999999999999999889 
	5.069218288394144345 -5.841999999999999638 0.8398220995899632335 1.000000000000000222 
	5.021590361755658982 -5.841999999999999638 1.676015278355896143 0.999999999999999778 
	4.94553247105423921 -5.841999999999999638 2.511994533298607557 1.000000000000000222 
	4.876859018355973241 -5.841999999999999638 3.083914054841729424 1 
	4.837838091759443238 -5.841999999999999638 3.372880272605792484 1 
	0.02539999999999999897 
	plane 0 -5.841999999999999638 3.372880272605792484 0 -1 0 0 0 -25.39999999999999858 forward_v I I I I 
	cone -18.75464081781737491 0 0 1 0 0 0 0 -94.79409051224922678 1 I I -0.9659258262890680902 0.2588190451025214056 94.79409051224922678 forward I I I I 
	nullbs 
	nullbs 
	I I 
	0 
	0 
	0 
	} I I #
cone-surface $-1 -18.75464081781737491 0 0 1 0 0 0 0 -94.79409051224922678 1 I I -0.9659258262890680902 0.2588190451025214056 94.79409051224922678 forward I I I I #
face $-1 $384 $385 $2 $-1 $386 reversed single #
loop $-1 $387 $388 $278 #
plane-surface $-1 -7.010400000000000631 0 0 -1 0 0 0 25.39999999999999858 0 forward_v I I I I #
coedge $-1 $287 $286 $389 $390 forward $279 $-1 #
coedge $-1 $391 $281 $287 $344 reversed $223 $-1 #
coedge $-1 $281 $391 $286 $343 forward $223 $-1 #
ellipse-curve $-1 -7.112000000000006317 5.287437154777307235e-16 3.524958103184871819e-16 -1 0 0 0 6.349999999999990763 4.251292243587213713e-16 1 I I #
ellipse-curve $-1 -8.382000000000003226 -1.762479051592435909e-16 2.819966482547897455e-15 -1 2.775557561562892337e-16 -1.200847412980823262e-31 1.409983241273948727e-15 5.079999999999998295 -2.197866454806129745e-15 1 I I #
point $-1 -8.38200000000000145 5.079999999999998295 6.221000277417675131e-16 #
edge $-1 $392 0 $284 0.05400000000000003408 $339 $393 forward 7 unknown #
edge $-1 $394 0 $230 0.05400000000000003408 $338 $395 forward 7 unknown #
edge $-1 $291 2.185478394931410482e-18 $396 0.1809321332094050438 $293 $397 forward 7 unknown #
point $-1 0.2421619082405552792 5.841999999999999638 3.372880272605792928 #
coedge $-1 $309 $293 $398 $399 forward $255 $-1 #
vertex $-1 $296 $400 #
straight-curve $-1 0.2421619082405554457 -1.409983241273948727e-15 6.745760545211587633 25.39999999999999858 0 0 I I #
coedge $-1 $305 $359 $298 $351 reversed $360 $-1 #
edge $-1 $348 0 $401 1.000000000000000222 $298 $402 forward 7 unknown #
coedge $-1 $403 $398 $299 $353 reversed $404 $-1 #
edge $-1 $401 0 $396 1.000000000000000222 $299 $405 forward 7 unknown #
face $-1 $241 $404 $2 $-1 $406 forward single #
plane-surface $-1 0 5.841999999999999638 3.372880272605792928 0 0.500000000000000111 0.8660254037844387076 0 -21.99704525612473915 12.69999999999999929 forward_v I I I I #
point $-1 4.837838091759443238 -5.841999999999999638 3.372880272605793817 #
vertex $-1 $383 $407 #
intcurve-curve $-1 forward { surfintcur full nurbs 3 open 5 
	0 3 0.2511330424532807748 1 0.5008932180754223085 1 0.7503791764528789932 1 1 3 
	4.837838091759443238 -5.841999999999999638 3.372880272605793817 1 
	4.876859018355971465 -5.591747914580817103 3.517363381487824459 1 
	4.945532471054236545 -5.096451080004232637 3.803323142259383172 1.000000000000000222 
	5.021590361755660759 -4.37247180818705683 4.221312769730741543 0.999999999999999889 
	5.069218288394143457 -3.648307272904497189 4.639409359113706444 1.000000000000000222 
	5.079804482055016557 -3.163752803421103099 4.919167012506981074 1 
	5.079999999999999183 -2.921000000000000707 5.059320408908690503 1 
	0.02539999999999999897 
	plane 0 0 6.745760545211587633 0 -0.500000000000000111 0.8660254037844387076 0 -21.99704525612473915 -12.69999999999999929 forward_v I I I I 
	cone -18.75464081781737491 0 0 1 0 0 0 0 -94.79409051224922678 1 I I -0.9659258262890680902 0.2588190451025214056 94.79409051224922678 forward I I I I 
	nullbs 
	nullbs 
	I I 
	0 
	0 
	0 
	} I I #
coedge $-1 $350 $305 $408 $409 reversed $360 $-1 #
loop $-1 $-1 $359 $307 #
intcurve-curve $-1 forward { surfintcur full nurbs 3 open 5 
	0 3 0.2496208235471205628 1 0.4991067819245773585 1 0.7488669575467190587 1 1 3 
	5.079999999999999183 -2.921000000000000707 5.059320408908690503 1 
	5.079804482055017445 -2.678247196578900535 5.199473805310398156 1 
	5.069218288394144345 -2.193692727095509554 5.479231458703671009 1 
	5.021590361755658982 -1.469528191812948137 5.897328048086637686 0.999999999999999889 
	4.94553247105423921 -0.7455489199957675561 6.315317675557996502 1.000000000000000222 
	4.876859018355972353 -0.2502520854191840893 6.601277436329556103 1 
	4.837838091759443238 0 6.745760545211587633 1 
	0.02539999999999999897 
	plane 0 0 6.745760545211587633 0 -0.500000000000000111 0.8660254037844387076 0 -21.99704525612473915 -12.69999999999999929 forward_v I I I I 
	cone -18.75464081781737491 0 0 1 0 0 0 0 -94.79409051224922678 1 I I -0.9659258262890680902 0.2588190451025214056 94.79409051224922678 forward I I I I 
	nullbs 
	nullbs 
	I I 
	0 
	0 
	0 
	} I I #
cone-surface $-1 -18.75464081781737491 0 0 1 0 0 0 0 -94.79409051224922678 1 I I -0.9659258262890680902 0.2588190451025214056 94.79409051224922678 forward I I I I #
coedge $-1 $410 $368 $309 $364 reversed $411 $-1 #
edge $-1 $412 0 $365 1.000000000000000222 $309 $413 forward 7 unknown #
vertex $-1 $369 $414 #
straight-curve $-1 0.2421619082405551959 5.842000000000001414 -3.372880272605792928 25.39999999999999858 0 0 I I #
plane-surface $-1 0 5.841999999999999638 -3.372880272605792928 0 1 0 0 0 25.39999999999999858 forward_v I I I I #
coedge $-1 $363 $410 $313 $369 reversed $411 $-1 #
edge $-1 $365 0 $372 1.000000000000000222 $313 $415 forward 7 unknown #
coedge $-1 $320 $314 $416 $379 reversed $371 $-1 #
loop $-1 $-1 $320 $318 #
vertex $-1 $379 $417 #
intcurve-curve $-1 forward { surfintcur full nurbs 3 open 5 
	0 3 0.2496208235471207293 1 0.4991067819245773585 1 0.7488669575467190587 1 1 3 
	5.079999999999999183 2.921000000000001151 -5.059320408908689615 1 
	5.079804482055016557 2.678247196578899203 -5.199473805310399044 1 
	5.069218288394144345 2.193692727095505113 -5.479231458703672786 1 
	5.021590361755658982 1.469528191812948581 -5.897328048086639463 0.999999999999999778 
	4.945532471054237433 0.745548919995767001 -6.315317675557996502 1.000000000000000222 
	4.876859018355971465 0.2502520854191842004 -6.601277436329556103 1 
	4.837838091759443238 0 -6.745760545211587633 1 
	0.02539999999999999897 
	plane 0 0 -6.745760545211587633 0 0.500000000000000111 -0.8660254037844387076 0 21.99704525612473915 12.69999999999999929 forward_v I I I I 
	cone -18.75464081781737491 0 0 1 0 0 0 0 -94.79409051224922678 1 I I -0.9659258262890680902 0.2588190451025214056 94.79409051224922678 forward I I I I 
	nullbs 
	nullbs 
	I I 
	0 
	0 
	0 
	} I I #
point $-1 4.837838091759443238 1.409983241273948727e-15 -6.745760545211584969 #
cone-surface $-1 -18.75464081781737491 0 0 1 0 0 0 0 -94.79409051224922678 1 I I -0.9659258262890680902 0.2588190451025214056 94.79409051224922678 forward I I I I #
intcurve-curve $-1 forward { surfintcur full nurbs 3 open 5 
	0 3 0.2511330424532811079 1 0.5008932180754226415 1 0.7503791764528793262 1 1.000000000000000222 3 
	4.837838091759443238 1.409983241273948727e-15 -6.745760545211584969 1 
	4.876859018355970576 -0.2502520854191841448 -6.601277436329551662 1.000000000000000222 
	4.945532471054240098 -0.7455489199957689994 -6.315317675557990285 1 
	5.021590361755658094 -1.469528191812946805 -5.897328048086635022 1 
	5.06921828839414701 -2.193692727095506445 -5.479231458703669233 1 
	5.079804482055017445 -2.678247196578900091 -5.199473805310395491 1 
	5.079999999999999183 -2.921000000000001595 -5.059320408908686062 1 
	0.02539999999999999897 
	plane 0 -5.841999999999999638 -3.372880272605789376 0 -0.500000000000000111 -0.8660254037844387076 0 21.9970452561247356 -12.69999999999999929 forward_v I I I I 
	cone -18.75464081781737491 0 0 1 0 0 0 0 -94.79409051224922678 1 I I -0.9659258262890680902 0.2588190451025214056 94.79409051224922678 forward I I I I 
	nullbs 
	nullbs 
	I I 
	0 
	0 
	0 
	} I I #
coedge $-1 $416 $382 $322 $378 reversed $418 $-1 #
edge $-1 $324 -1.457354272552982783e-15 $328 1.047197551196596299 $377 $419 forward 7 unknown #
edge $-1 $324 1.040967337537839827e-16 $372 1.047197551196593857 $416 $420 forward 7 unknown #
point $-1 5.080000000000001847 -2.920999999999994046 -5.059320408908692279 #
point $-1 5.079999999999999183 -5.841999999999999638 0 #
coedge $-1 $377 $408 $330 $383 reversed $418 $-1 #
edge $-1 $328 2.311411812034526436e-32 $357 1.047197551196597187 $382 $421 forward 7 unknown #
face $-1 $422 $423 $2 $-1 $424 reversed single #
loop $-1 $-1 $425 $334 #
cone-surface $-1 -8.381999999999999673 0 0 1 0 0 0 4.762499999999999289 0 1 I I 0 1 4.762499999999999289 forward I I I I #
loop $-1 $-1 $426 $278 #
coedge $-1 $389 $389 $391 $427 forward $335 $-1 #
coedge $-1 $388 $388 $337 $390 reversed $335 $-1 #
edge $-1 $392 0 $394 3.141592653589793116 $389 $428 forward 7 unknown #
coedge $-1 $339 $338 $388 $427 reversed $223 $-1 #
vertex $-1 $390 $429 #
straight-curve $-1 -7.010400000000000631 5.079999999999999183 0 -25.39999999999999858 0 0 I I #
vertex $-1 $390 $430 #
straight-curve $-1 -7.010400000000000631 -5.079999999999999183 6.221000277417675131e-16 -25.39999999999999858 0 0 I I #
vertex $-1 $399 $431 #
straight-curve $-1 0.2421619082405552237 5.841999999999999638 3.372880272605792928 25.39999999999999858 0 0 I I #
coedge $-1 $352 $403 $347 $399 reversed $404 $-1 #
edge $-1 $396 0 $412 1.000000000000000222 $347 $432 forward 7 unknown #
point $-1 4.837838091759443238 0 6.745760545211587633 #
vertex $-1 $409 $433 #
intcurve-curve $-1 forward { surfintcur full nurbs 3 open 5 
	0 3 0.2511330424532811079 1 0.5008932180754226415 1 0.7503791764528793262 1 1.000000000000000222 3 
	4.837838091759443238 0 6.745760545211587633 1 
	4.876859018355971465 0.2502520854191851996 6.601277436329554327 1 
	4.945532471054237433 0.7455489199957694435 6.315317675557992949 1.000000000000000222 
	5.021590361755658982 1.469528191812947915 5.897328048086636798 1 
	5.069218288394145233 2.19369272709550911 5.479231458703671898 1 
	5.079804482055017445 2.678247196578900535 5.199473805310399044 0.999999999999999778 
	5.079999999999999183 2.920999999999999375 5.059320408908690503 1 
	0.02539999999999999897 
	plane 0 5.841999999999999638 3.372880272605792928 0 0.500000000000000111 0.8660254037844387076 0 -21.99704525612473915 12.69999999999999929 forward_v I I I I 
	cone -18.75464081781737491 0 0 1 0 0 0 0 -94.79409051224922678 1 I I -0.9659258262890680902 0.2588190451025214056 94.79409051224922678 forward I I I I 
	nullbs 
	nullbs 
	I I 
	0 
	0 
	0 
	} I I #
coedge $-1 $398 $352 $434 $435 forward $404 $-1 #
loop $-1 $-1 $352 $354 #
intcurve-curve $-1 forward { surfintcur full nurbs 3 open 5 
	0 3 0.2496208235471207293 1 0.4991067819245771919 1 0.7488669575467186146 1 1.000000000000000222 3 
	5.079999999999999183 2.920999999999999375 5.059320408908690503 1 
	5.079804482055016557 3.163752803421099991 4.919167012506981074 1 
	5.069218288394144345 3.64830727290449186 4.639409359113709108 1 
	5.02159036175565987 4.372471808187048836 4.221312769730744208 1 
	4.94553247105423921 5.096451080004227308 3.803323142259388501 1 
	4.876859018355973241 5.591747914580812662 3.517363381487826235 1 
	4.837838091759443238 5.841999999999999638 3.372880272605792928 1 
	0.02539999999999999897 
	plane 0 5.841999999999999638 3.372880272605792928 0 0.500000000000000111 0.8660254037844387076 0 -21.99704525612473915 12.69999999999999929 forward_v I I I I 
	cone -18.75464081781737491 0 0 1 0 0 0 0 -94.79409051224922678 1 I I -0.9659258262890680902 0.2588190451025214056 94.79409051224922678 forward I I I I 
	nullbs 
	nullbs 
	I I 
	0 
	0 
	0 
	} I I #
cone-surface $-1 -18.75464081781737491 0 0 1 0 0 0 0 -94.79409051224922678 1 I I -0.9659258262890680902 0.2588190451025214056 94.79409051224922678 forward I I I I #
point $-1 5.079999999999999183 -2.921000000000000707 5.059320408908690503 #
coedge $-1 $382 $434 $359 $409 forward $418 $-1 #
edge $-1 $401 1.561451006306732487e-15 $357 1.047197551196585641 $408 $436 forward 7 unknown #
coedge $-1 $368 $363 $437 $438 forward $411 $-1 #
loop $-1 $-1 $363 $439 #
vertex $-1 $435 $440 #
intcurve-curve $-1 forward { surfintcur full nurbs 3 open 5 
	0 3 0.2496208235471207293 1 0.499106781924577525 1 0.7488669575467190587 1 1.000000000000000222 3 
	5.079999999999999183 5.841999999999999638 7.049916206369743637e-16 1 
	5.079804482055017445 5.842000000000000526 -0.2803067928034166933 1 
	5.069218288394143457 5.841999999999997861 -0.8398220995899620123 1.000000000000000222 
	5.021590361755658982 5.841999999999999638 -1.676015278355896809 0.999999999999999889 
	4.94553247105423921 5.842000000000001414 -2.511994533298610666 1 
	4.876859018355972353 5.842000000000000526 -3.083914054841729868 1 
	4.837838091759443238 5.841999999999999638 -3.372880272605792928 1 
	0.02539999999999999897 
	plane 0 5.841999999999999638 -3.372880272605792928 0 1 0 0 0 25.39999999999999858 forward_v I I I I 
	cone -18.75464081781737491 0 0 1 0 0 0 0 -94.79409051224922678 1 I I -0.9659258262890680902 0.2588190451025214056 94.79409051224922678 forward I I I I 
	nullbs 
	nullbs 
	I I 
	0 
	0 
	0 
	} I I #
point $-1 4.837838091759443238 5.841999999999999638 -3.372880272605793817 #
intcurve-curve $-1 forward { surfintcur full nurbs 3 open 5 
	0 3 0.2511330424532808858 1 0.5008932180754224195 1 0.7503791764528793262 1 1.000000000000000222 3 
	4.837838091759443238 5.841999999999999638 -3.372880272605793817 1 
	4.876859018355972353 5.591747914580816214 -3.517363381487824459 1 
	4.945532471054237433 5.096451080004234413 -3.803323142259384504 0.999999999999999889 
	5.021590361755658982 4.372471808187055942 -4.221312769730740655 1.000000000000000222 
	5.069218288394146121 3.648307272904493637 -4.639409359113709108 0.9999999999999995559 
	5.079804482055015669 3.163752803421101767 -4.919167012506980186 1.000000000000000222 
	5.079999999999999183 2.921000000000001151 -5.059320408908689615 1 
	0.02539999999999999897 
	plane 0 0 -6.745760545211587633 0 0.500000000000000111 -0.8660254037844387076 0 21.99704525612473915 12.69999999999999929 forward_v I I I I 
	cone -18.75464081781737491 0 0 1 0 0 0 0 -94.79409051224922678 1 I I -0.9659258262890680902 0.2588190451025214056 94.79409051224922678 forward I I I I 
	nullbs 
	nullbs 
	I I 
	0 
	0 
	0 
	} I I #
coedge $-1 $437 $377 $370 $379 forward $418 $-1 #
point $-1 5.080000000000007176 2.921000000000005148 -5.059320408908680733 #
loop $-1 $441 $437 $422 #
ellipse-curve $-1 5.079999999999999183 4.229949723821845788e-15 4.141825771242224461e-15 -1 0 0 0 -2.921000000000006036 -5.059320408908692279 1 I I #
ellipse-curve $-1 5.079999999999999183 -3.965577866082981018e-15 2.537969834293107788e-14 1 1.810146235801868311e-16 3.135265249538416511e-16 2.114974861910922894e-15 -2.920999999999990049 -5.059320408908717148 1 I I #
ellipse-curve $-1 5.079999999999999183 2.114974861910922894e-15 -1.057487430955461447e-15 -1 0 0 0 -5.842000000000002302 1.057487430955461447e-15 1 I I #
face $-1 $439 $418 $2 $-1 $442 forward single #
loop $-1 $-1 $443 $384 #
cone-surface $-1 -8.381999999999999673 0 0 1 0 0 0 4.762499999999999289 0 1 I I 0 1 4.762499999999999289 forward I I I I #
coedge $-1 $444 $445 $446 $447 forward $385 $-1 #
coedge $-1 $448 $448 $445 $449 forward $387 $-1 #
edge $-1 $392 0 $394 3.14159265358979356 $388 $450 forward 7 unknown #
ellipse-curve $-1 -7.010400000000000631 0 8.81239525796218004e-16 1 0 0 0 5.079999999999999183 -8.81239525796218004e-16 1 I I #
point $-1 -7.010400000000000631 5.079999999999999183 0 #
point $-1 -7.010400000000000631 -5.079999999999999183 6.221000277417675131e-16 #
point $-1 4.837838091759443238 5.841999999999999638 3.372880272605792928 #
intcurve-curve $-1 forward { surfintcur full nurbs 3 open 5 
	0 3 0.2511330424532811079 1 0.5008932180754226415 1 0.7503791764528793262 1 1.000000000000000222 3 
	4.837838091759443238 5.841999999999999638 3.372880272605792928 1 
	4.876859018355971465 5.841999999999999638 3.083914054841729424 1 
	4.945532471054237433 5.841999999999998749 2.511994533298608445 1.000000000000000222 
	5.021590361755658982 5.842000000000000526 1.676015278355896143 1 
	5.069218288394145233 5.841999999999999638 0.8398220995899631225 1 
	5.079804482055017445 5.842000000000002302 0.2803067928034179146 0.999999999999999778 
	5.079999999999999183 5.841999999999999638 7.049916206369743637e-16 1 
	0.02539999999999999897 
	plane 0 5.841999999999999638 -3.372880272605792928 0 1 0 0 0 25.39999999999999858 forward_v I I I I 
	cone -18.75464081781737491 0 0 1 0 0 0 0 -94.79409051224922678 1 I I -0.9659258262890680902 0.2588190451025214056 94.79409051224922678 forward I I I I 
	nullbs 
	nullbs 
	I I 
	0 
	0 
	0 
	} I I #
point $-1 5.079999999999999183 2.920999999999999375 5.059320408908690503 #
coedge $-1 $408 $437 $403 $435 reversed $418 $-1 #
edge $-1 $401 -2.081934675075689514e-16 $412 1.047197551196596521 $434 $451 forward 7 unknown #
ellipse-curve $-1 5.079999999999999183 5.551809012516172794e-15 -8.036904475261507944e-14 1 -1.810146235801843413e-16 -3.135265249538391366e-16 2.114974861910922894e-15 2.921000000000005148 5.059320408908772215 1 I I #
coedge $-1 $434 $416 $410 $438 reversed $418 $-1 #
edge $-1 $412 -1.206764157201255566e-16 $372 1.047197551196595189 $437 $452 forward 7 unknown #
face $-1 $311 $411 $2 $-1 $453 forward single #
point $-1 5.079999999999999183 5.841999999999999638 7.049916206369743637e-16 #
loop $-1 $-1 $454 $422 #
plane-surface $-1 5.079999999999999183 0 0 1 0 0 0 0 -25.39999999999999858 forward_v I I I I #
coedge $-1 $455 $456 $457 $458 forward $423 $-1 #
coedge $-1 $457 $425 $454 $459 forward $385 $-1 #
coedge $-1 $425 $457 $426 $449 reversed $385 $-1 #
coedge $-1 $456 $455 $425 $447 reversed $423 $-1 #
edge $-1 $460 0 $461 0.4759999999999999787 $446 $462 forward 7 unknown #
coedge $-1 $426 $426 $456 $463 forward $387 $-1 #
edge $-1 $460 0 $464 3.141592653589793116 $445 $465 forward 7 unknown #
ellipse-curve $-1 -7.010400000000000631 0 -8.81239525796218004e-16 -1 0 0 0 5.079999999999999183 8.81239525796218004e-16 1 I I #
ellipse-curve $-1 5.079999999999999183 -4.934941344458820349e-15 -2.996214387707140898e-15 -1 0 0 0 2.921000000000005592 5.059320408908693167 1 I I #
ellipse-curve $-1 5.079999999999999183 -4.582445534140333463e-15 2.467470672229410174e-15 -1 0 0 0 5.842000000000004967 -2.467470672229410174e-15 1 I I #
cone-surface $-1 -18.75464081781737491 0 0 1 0 0 0 0 -94.79409051224922678 1 I I -0.9659258262890680902 0.2588190451025214056 94.79409051224922678 forward I I I I #
coedge $-1 $466 $466 $444 $459 reversed $441 $-1 #
coedge $-1 $446 $443 $466 $467 forward $423 $-1 #
coedge $-1 $443 $446 $448 $463 reversed $423 $-1 #
coedge $-1 $445 $444 $443 $458 reversed $385 $-1 #
edge $-1 $464 0 $468 0.4759999999999999787 $443 $469 forward 7 unknown #
edge $-1 $461 0 $468 3.141592653589793116 $454 $470 forward 7 unknown #
vertex $-1 $463 $471 #
vertex $-1 $467 $472 #
straight-curve $-1 -7.010400000000000631 -4.762499999999999289 5.832187760079071298e-16 25.39999999999999858 0 0 I I #
edge $-1 $464 0 $460 3.141592653589793116 $456 $473 forward 7 unknown #
vertex $-1 $463 $474 #
ellipse-curve $-1 -7.010400000000000631 0 0 1 0 0 0 -4.762499999999999289 0 1 I I #
coedge $-1 $454 $454 $455 $467 reversed $441 $-1 #
edge $-1 $468 0 $461 3.141592653589793116 $466 $475 forward 7 unknown #
vertex $-1 $467 $476 #
straight-curve $-1 -7.010400000000000631 4.762499999999999289 0 25.39999999999999858 0 0 I I #
ellipse-curve $-1 5.079999999999999183 0 0 1 0 0 0 -4.762499999999999289 0 1 I I #
point $-1 -7.010400000000000631 -4.762499999999999289 0 #
point $-1 5.079999999999999183 -4.762499999999999289 0 #
ellipse-curve $-1 -7.010400000000000631 0 0 1 0 0 0 4.762499999999999289 0 1 I I #
point $-1 -7.010400000000000631 4.762499999999999289 0 #
ellipse-curve $-1 5.079999999999999183 0 0 1 0 0 0 4.762499999999999289 0 1 I I #
point $-1 5.079999999999999183 4.762499999999999289 0 #
End-of-ACIS-data 