600 0 1 0           
92 GICL Pro/E ACIS Translator - Source: f:/data5/repository/PTC/V18/piping18/tube_end.prt - 6 0 13 ACIS 6.0.3 NT 24 Thu Apr 04 13:31:48 2002 
1 9.9999999999999995e-007 1e-010 
body $-1 $1 $-1 $2 #
lump $-1 $-1 $3 $0 #
transform $-1 1 0 0 0 1 0 0 0 1 0 0 0 25.399999999999999 no_rotate no_reflect no_shear #
shell $-1 $-1 $-1 $4 $-1 $1 #
face $-1 $5 $6 $3 $-1 $7 reversed single #
face $-1 $8 $9 $3 $-1 $10 forward single #
loop $-1 $11 $12 $4 #
plane-surface $-1 0 0 0 1 0 0 0 0 -1 forward_v I I I I #
face $-1 $13 $14 $3 $-1 $15 forward single #
loop $-1 $-1 $16 $5 #
cone-surface $-1 0 0 0 -1 0 0 0 0 0.19999999999999998 1 I I 0 1 0.19999999999999998 forward I I I I #
loop $-1 $-1 $17 $4 #
coedge $-1 $18 $18 $19 $20 reversed $6 $-1 #
face $-1 $21 $22 $3 $-1 $23 forward single #
loop $-1 $-1 $24 $8 #
cone-surface $-1 -0.88300000000000001 0 0 1 0 0 0 -1.0000000000000004 0 1 I I -0.70710678118654768 0.70710678118654735 1.0000000000000004 forward I I I I #
coedge $-1 $25 $26 $24 $27 reversed $9 $-1 #
coedge $-1 $28 $29 $30 $31 forward $11 $-1 #
coedge $-1 $12 $12 $32 $33 reversed $6 $-1 #
coedge $-1 $34 $25 $12 $20 forward $9 $-1 #
edge $-1 $35 0 $36 3.1415926535897931 $12 $37 forward 7 unknown #
face $-1 $38 $39 $3 $-1 $40 forward single #
loop $-1 $-1 $41 $13 #
cone-surface $-1 -0.88300000000000001 0 0 1 0 0 0 -1.0000000000000004 0 1 I I -0.70710678118654768 0.70710678118654735 1.0000000000000004 forward I I I I #
coedge $-1 $42 $43 $16 $27 forward $14 $-1 #
coedge $-1 $19 $16 $44 $45 reversed $9 $-1 #
coedge $-1 $16 $34 $46 $47 reversed $9 $-1 #
edge $-1 $48 6.1230317691118727e-017 $49 1.5707963267948983 $16 $50 forward 7 unknown #
coedge $-1 $51 $17 $52 $53 forward $11 $-1 #
coedge $-1 $17 $54 $55 $56 forward $11 $-1 #
coedge $-1 $57 $58 $17 $31 reversed $59 $-1 #
edge $-1 $60 -1.5084551965015829e-015 $61 1.0471975511966014 $17 $62 forward 7 unknown #
coedge $-1 $44 $63 $18 $33 forward $64 $-1 #
edge $-1 $36 0 $35 3.1415926535897931 $18 $65 forward 7 unknown #
coedge $-1 $26 $19 $63 $66 forward $9 $-1 #
vertex $-1 $33 $67 #
vertex $-1 $33 $68 #
ellipse-curve $-1 0 0 0 -1 0 0 0 0 -0.19999999999999998 1 I I #
face $-1 $69 $70 $3 $-1 $71 forward single #
loop $-1 $-1 $72 $21 #
cone-surface $-1 -0.34235000000000004 0 0 1 0 0 0 -0.25 0 1 I I 0 1 0.25 forward I I I I #
coedge $-1 $73 $74 $75 $76 forward $22 $-1 #
coedge $-1 $77 $24 $78 $79 forward $14 $-1 #
coedge $-1 $24 $75 $80 $81 forward $14 $-1 #
coedge $-1 $80 $32 $25 $45 forward $64 $-1 #
edge $-1 $35 0 $48 0.08300000000000006 $44 $82 forward 7 unknown #
coedge $-1 $74 $78 $26 $47 forward $22 $-1 #
edge $-1 $49 0 $83 1.5707963267948974 $26 $84 forward 7 unknown #
vertex $-1 $81 $85 #
vertex $-1 $47 $86 #
ellipse-curve $-1 -0.083000000000000074 -1.5265566588595902e-016 -1.6653345369377348e-016 -1 0 0 0 1.8939385650063038e-016 -0.1999999999999999 1 I I #
coedge $-1 $87 $28 $88 $89 forward $11 $-1 #
coedge $-1 $90 $91 $28 $53 reversed $92 $-1 #
edge $-1 $61 0 $93 1.0471975511966003 $28 $94 forward 7 unknown #
coedge $-1 $29 $87 $95 $96 forward $11 $-1 #
coedge $-1 $97 $98 $29 $56 reversed $99 $-1 #
edge $-1 $100 1.2934362302147103e-047 $60 1.0471975511965794 $29 $101 forward 7 unknown #
coedge $-1 $58 $30 $102 $103 forward $59 $-1 #
coedge $-1 $30 $57 $104 $105 forward $59 $-1 #
loop $-1 $-1 $30 $106 #
vertex $-1 $56 $107 #
vertex $-1 $53 $108 #
ellipse-curve $-1 0 -8.4654505627668186e-016 -4.3368086899420177e-016 -1 0 0 0 -0.11499999999999923 -0.19918584287042035 1 I I #
coedge $-1 $32 $109 $34 $66 reversed $64 $-1 #
loop $-1 $-1 $63 $110 #
ellipse-curve $-1 0 0 0 -1 0 0 0 0 0.19999999999999998 1 I I #
edge $-1 $36 0 $83 0.083000000000000074 $63 $111 forward 7 unknown #
point $-1 0 0 -0.19999999999999998 #
point $-1 0 0 0.19999999999999998 #
face $-1 $112 $113 $3 $-1 $114 forward single #
loop $-1 $-1 $115 $38 #
cone-surface $-1 0.46999999999999975 0 0 -1 0 0 0 -0.99999999999999889 0 1 I I -0.70710678118654713 0.70710678118654791 0.99999999999999889 forward I I I I #
coedge $-1 $116 $117 $118 $119 forward $39 $-1 #
coedge $-1 $78 $41 $120 $121 forward $22 $-1 #
coedge $-1 $41 $46 $109 $122 forward $22 $-1 #
coedge $-1 $43 $77 $41 $76 reversed $14 $-1 #
edge $-1 $123 0 $124 0.070710678118654641 $41 $125 forward 7 unknown #
coedge $-1 $75 $42 $126 $127 reversed $14 $-1 #
coedge $-1 $46 $73 $42 $79 reversed $22 $-1 #
edge $-1 $49 -8.4833621270363755e-033 $128 0.070710678118654641 $78 $129 forward 7 unknown #
coedge $-1 $109 $44 $43 $81 reversed $64 $-1 #
edge $-1 $123 0 $48 1.5707963267948994 $80 $130 forward 7 unknown #
straight-curve $-1 0 2.4492127076447543e-017 -0.19999999999999998 -1 0 0 I I #
vertex $-1 $122 $131 #
ellipse-curve $-1 -0.083000000000000074 -9.0205620750793969e-017 9.0205620750793969e-017 -1 0 0 0 -0.19999999999999998 -9.0205620750793969e-017 1 I I #
point $-1 -0.08300000000000006 2.4492127076447543e-017 -0.19999999999999998 #
point $-1 -0.083000000000000074 -0.20000000000000007 0 #
coedge $-1 $54 $51 $132 $133 forward $11 $-1 #
coedge $-1 $134 $135 $51 $89 reversed $136 $-1 #
edge $-1 $93 1.1805301537838156e-015 $137 1.0471975511965874 $51 $138 forward 7 unknown #
coedge $-1 $91 $52 $139 $140 forward $92 $-1 #
coedge $-1 $52 $90 $141 $142 forward $92 $-1 #
loop $-1 $-1 $52 $143 #
vertex $-1 $89 $144 #
ellipse-curve $-1 0 -6.106226635438361e-016 3.1225022567582528e-016 -1 0 0 0 -0.2299999999999994 -3.1225022567582528e-016 1 I I #
coedge $-1 $145 $146 $54 $96 reversed $147 $-1 #
edge $-1 $148 -1.2067641572012595e-016 $100 1.0471975511965994 $54 $149 forward 7 unknown #
coedge $-1 $98 $55 $150 $151 forward $99 $-1 #
coedge $-1 $55 $97 $152 $153 forward $99 $-1 #
loop $-1 $-1 $55 $154 #
vertex $-1 $56 $155 #
ellipse-curve $-1 0 -2.7755575615628914e-016 4.163336342344337e-015 -1 -2.413528314402448e-016 4.1803536660511814e-016 -1.1102230246251565e-016 0.11500000000000027 -0.19918584287042468 1 I I #
coedge $-1 $152 $156 $57 $103 reversed $157 $-1 #
edge $-1 $60 0 $158 1.0000000000000002 $102 $159 forward 7 unknown #
coedge $-1 $160 $139 $58 $105 reversed $161 $-1 #
edge $-1 $158 0 $61 1.0000000000000002 $104 $162 forward 7 unknown #
face $-1 $154 $59 $3 $-1 $163 forward single #
point $-1 -1.1102230246251565e-016 -0.11499999999999977 -0.19918584287042096 #
point $-1 0 -0.23000000000000001 0 #
coedge $-1 $63 $80 $74 $122 reversed $64 $-1 #
face $-1 $-1 $64 $3 $-1 $164 forward single #
straight-curve $-1 0 0 0.19999999999999998 -1 0 0 I I #
face $-1 $165 $166 $3 $-1 $167 forward single #
loop $-1 $-1 $168 $69 #
cone-surface $-1 0.46999999999999975 0 0 -1 0 0 0 -0.99999999999999889 0 1 I I -0.70710678118654713 0.70710678118654791 0.99999999999999889 forward I I I I #
coedge $-1 $118 $169 $170 $171 reversed $70 $-1 #
coedge $-1 $120 $72 $172 $173 reversed $39 $-1 #
coedge $-1 $72 $120 $174 $175 forward $39 $-1 #
coedge $-1 $176 $115 $72 $119 reversed $70 $-1 #
edge $-1 $177 -7.3955709864469966e-032 $178 3.1415926535897931 $72 $179 forward 7 unknown #
coedge $-1 $117 $116 $73 $121 reversed $39 $-1 #
edge $-1 $124 0 $128 3.1415926535897931 $73 $180 forward 7 unknown #
edge $-1 $83 0 $123 1.5707963267948961 $109 $181 forward 7 unknown #
vertex $-1 $122 $182 #
vertex $-1 $121 $183 #
straight-curve $-1 -0.083000000000000074 0.20000000000000007 2.4492127076447555e-017 -0.7071067811865468 0.70710678118654835 8.6592745707193591e-017 I I #
coedge $-1 $172 $174 $77 $127 forward $166 $-1 #
edge $-1 $124 0 $128 3.1415926535897931 $77 $184 forward 7 unknown #
vertex $-1 $79 $185 #
straight-curve $-1 -0.083000000000000074 -0.20000000000000007 -4.898425415289511e-017 -0.7071067811865468 -0.70710678118654835 -1.7318549141438718e-016 I I #
ellipse-curve $-1 -0.083000000000000074 2.7755575615628914e-016 -2.8449465006019636e-016 -1 0 0 0 0.19999999999999979 3.0898677713664392e-016 1 I I #
point $-1 -0.083000000000000074 -1.2246063538223778e-017 0.20000000000000007 #
coedge $-1 $186 $187 $87 $133 reversed $188 $-1 #
edge $-1 $137 3.2792504271773443e-016 $148 1.0471975511966003 $87 $189 forward 7 unknown #
coedge $-1 $135 $88 $190 $191 forward $136 $-1 #
coedge $-1 $88 $134 $192 $193 forward $136 $-1 #
loop $-1 $-1 $88 $194 #
vertex $-1 $133 $195 #
ellipse-curve $-1 0 -2.2204460492503131e-016 -2.8310687127941492e-015 -1 2.4135283144024697e-016 -4.1803536660512007e-016 -1.1102230246251565e-016 -0.11499999999999999 0.19918584287042335 1 I I #
coedge $-1 $104 $196 $90 $140 reversed $161 $-1 #
edge $-1 $61 0 $197 1.0000000000000002 $139 $198 forward 7 unknown #
coedge $-1 $199 $190 $91 $142 reversed $200 $-1 #
edge $-1 $197 0 $93 1.0000000000000002 $141 $201 forward 7 unknown #
face $-1 $106 $92 $3 $-1 $202 forward single #
point $-1 0 -0.1150000000000001 0.19918584287042085 #
coedge $-1 $146 $95 $203 $204 forward $147 $-1 #
coedge $-1 $95 $145 $205 $206 forward $147 $-1 #
loop $-1 $-1 $95 $207 #
vertex $-1 $96 $208 #
ellipse-curve $-1 0 4.8572257327350599e-016 -2.9837243786801082e-016 -1 0 0 0 0.22999999999999954 2.9837243786801082e-016 1 I I #
coedge $-1 $205 $209 $97 $151 reversed $210 $-1 #
edge $-1 $100 0 $211 0.99999999999999989 $150 $212 forward 7 unknown #
coedge $-1 $213 $102 $98 $153 reversed $157 $-1 #
edge $-1 $211 0 $60 0.99999999999999989 $152 $214 forward 7 unknown #
face $-1 $207 $99 $3 $-1 $215 forward single #
point $-1 -1.1102230246251565e-016 0.11499999999999999 -0.19918584287042052 #
coedge $-1 $102 $216 $160 $217 reversed $157 $-1 #
loop $-1 $-1 $216 $218 #
vertex $-1 $217 $219 #
intcurve-curve $-1 forward { surfintcur full nurbs 3 open 5 
	0 3 0.24962082354712084 1 0.49910678192457753 1 0.74886695754671928 1 1.0000000000000002 3 
	0 -0.11500000000000014 -0.19918584287042068 1 
	7.6975568890670643e-006 -0.12455719698508286 -0.19366799261838488 1 
	0.00042447683487614578 -0.14363414460253926 -0.18265391177612997 1 
	0.0022995920568637811 -0.17214455937744313 -0.16619341613113145 0.99999999999999978 
	0.0052939972025889924 -0.20064768031512736 -0.14973713158501495 1 
	0.007997676442678214 -0.22014755569215813 -0.13847887328692207 1 
	0.0095339333952974351 -0.23000000000000001 -0.13279056191361377 1 
	0.001 
	cone 0.93837168574084173 0 0 -1 0 0 0 0 -3.7320508075688776 1 I I -0.96592582628906831 0.25881904510252074 3.7320508075688776 forward I I I I 
	plane 0 -0.23000000000000001 -0.13279056191361377 0 -0.50000000000000011 -0.86602540378443871 0 0.86602540378443849 -0.5 forward_v I I I I 
	nullbs 
	nullbs 
	I I 
	0 
	0 
	0 
	} I I #
coedge $-1 $220 $104 $156 $217 forward $161 $-1 #
loop $-1 $-1 $221 $222 #
intcurve-curve $-1 forward { surfintcur full nurbs 3 open 5 
	0 3 0.25113304245328089 1 0.50089321807542242 1 0.75037917645287933 1 1.0000000000000002 3 
	0.0095339333952974316 -0.23000000000000001 -0.13279056191361377 1 
	0.007997676442678214 -0.23000000000000004 -0.12141393916699718 1 
	0.0052939972025889941 -0.22999999999999995 -0.098897422570811397 0.99999999999999989 
	0.0022995920568637863 -0.23000000000000001 -0.065984853478578506 1.0000000000000002 
	0.00042447683487616572 -0.23000000000000004 -0.033063862188581324 0.99999999999999956 
	7.6975568890755735e-006 -0.23000000000000001 -0.011035700504071594 1.0000000000000002 
	0 -0.23000000000000001 0 1 
	0.001 
	cone 0.93837168574084173 0 0 -1 0 0 0 0 -3.7320508075688776 1 I I -0.96592582628906831 0.25881904510252074 3.7320508075688776 forward I I I I 
	plane 0 -0.23000000000000001 0.13279056191361388 0 -1 0 0 0 -1 forward_v I I I I 
	nullbs 
	nullbs 
	I I 
	0 
	0 
	0 
	} I I #
cone-surface $-1 0.93837168574084173 0 0 -1 0 0 0 0 -3.7320508075688776 1 I I -0.96592582628906831 0.25881904510252074 3.7320508075688776 forward I I I I #
cone-surface $-1 0 0 0 -1 0 0 0 0 0.19999999999999998 1 I I 0 1 0.19999999999999998 forward I I I I #
face $-1 $223 $224 $3 $-1 $225 reversed single #
loop $-1 $-1 $126 $112 #
cone-surface $-1 -0.34235000000000004 0 0 1 0 0 0 -0.25 0 1 I I 0 1 0.25 forward I I I I #
coedge $-1 $226 $227 $176 $228 reversed $113 $-1 #
coedge $-1 $115 $176 $229 $230 reversed $70 $-1 #
coedge $-1 $227 $226 $115 $171 forward $113 $-1 #
edge $-1 $178 0 $231 0.070710678118654419 $115 $232 forward 7 unknown #
coedge $-1 $233 $126 $116 $173 forward $166 $-1 #
edge $-1 $128 0 $178 0.14700000000000027 $116 $234 forward 7 unknown #
coedge $-1 $126 $233 $117 $175 reversed $166 $-1 #
edge $-1 $124 0 $177 0.14699999999999999 $117 $235 forward 7 unknown #
coedge $-1 $169 $118 $168 $228 forward $70 $-1 #
vertex $-1 $175 $236 #
vertex $-1 $173 $237 #
ellipse-curve $-1 -0.28000000000000025 2.7755575615628914e-017 -1.3877787807814457e-017 1 0 0 0 0.24999999999999964 4.4492946653373851e-017 1 I I #
ellipse-curve $-1 -0.13299999999999998 6.9388939039072284e-018 6.9388939039072284e-018 1 0 0 0 0.25 2.3676264941652203e-017 1 I I #
ellipse-curve $-1 -0.083000000000000074 -3.4694469519536142e-017 -4.163336342344337e-017 -1 0 0 0 2.2448405981312364e-017 0.20000000000000012 1 I I #
point $-1 -0.083000000000000074 0.20000000000000007 2.4492127076447555e-017 #
point $-1 -0.13299999999999998 0.25 3.0615158845559431e-017 #
ellipse-curve $-1 -0.13299999999999998 0 0 -1 0 0 0 0.25 3.0615158845559431e-017 1 I I #
point $-1 -0.13299999999999998 -0.25 0 #
coedge $-1 $187 $132 $238 $239 forward $188 $-1 #
coedge $-1 $132 $186 $240 $241 forward $188 $-1 #
loop $-1 $-1 $132 $242 #
ellipse-curve $-1 0 5.2735593669694936e-016 3.434752482434078e-016 -1 0 0 0 0.11499999999999949 0.19918584287042057 1 I I #
coedge $-1 $141 $243 $134 $191 reversed $200 $-1 #
edge $-1 $93 0 $244 1.0000000000000002 $190 $245 forward 7 unknown #
coedge $-1 $246 $238 $135 $193 reversed $247 $-1 #
edge $-1 $244 0 $137 1 $192 $248 forward 7 unknown #
face $-1 $143 $136 $3 $-1 $249 forward single #
point $-1 0 0.11500000000000007 0.19918584287042085 #
coedge $-1 $139 $221 $199 $250 reversed $161 $-1 #
vertex $-1 $250 $251 #
intcurve-curve $-1 forward { surfintcur full nurbs 3 open 5 
	0 3 0.2496208235471209 1 0.49910678192457753 1 0.74886695754671906 1 1.0000000000000002 3 
	0 -0.23000000000000001 0 1 
	7.6975568890740574e-006 -0.23000000000000001 0.011035700504071624 1 
	0.00042447683487616204 -0.22999999999999998 0.033063862188581379 0.99999999999999978 
	0.0022995920568637993 -0.23000000000000001 0.065984853478578617 1.0000000000000002 
	0.0052939972025889889 -0.23000000000000004 0.098897422570811383 0.99999999999999978 
	0.0079976764426782209 -0.22999999999999998 0.12141393916699721 1 
	0.0095339333952974489 -0.23000000000000001 0.13279056191361388 1 
	0.001 
	cone 0.93837168574084173 0 0 -1 0 0 0 0 -3.7320508075688776 1 I I -0.96592582628906831 0.25881904510252074 3.7320508075688776 forward I I I I 
	plane 0 -0.23000000000000001 0.13279056191361388 0 -1 0 0 0 -1 forward_v I I I I 
	nullbs 
	nullbs 
	I I 
	0 
	0 
	0 
	} I I #
coedge $-1 $252 $141 $196 $250 forward $200 $-1 #
loop $-1 $-1 $253 $254 #
intcurve-curve $-1 forward { surfintcur full nurbs 3 open 5 
	0 3 0.25113304245328089 1 0.50089321807542264 1 0.75037917645287933 1 1.0000000000000002 3 
	0.0095339333952974437 -0.23000000000000001 0.13279056191361394 1 
	0.0079976764426782226 -0.2201475556921581 0.13847887328692224 1 
	0.0052939972025889967 -0.20064768031512734 0.14973713158501514 0.99999999999999978 
	0.002299592056863782 -0.17214455937744313 0.16619341613113159 1 
	0.00042447683487615109 -0.14363414460253915 0.18265391177613027 1 
	7.6975568890691242e-006 -0.1245571969850828 0.19366799261838505 1 
	0 -0.1150000000000001 0.19918584287042085 1 
	0.001 
	cone 0.93837168574084173 0 0 -1 0 0 0 0 -3.7320508075688776 1 I I -0.96592582628906831 0.25881904510252074 3.7320508075688776 forward I I I I 
	plane 0 0 0.26558112382722787 0 -0.50000000000000011 0.86602540378443871 0 -0.8660254037844386 -0.5 forward_v I I I I 
	nullbs 
	nullbs 
	I I 
	0 
	0 
	0 
	} I I #
cone-surface $-1 0.93837168574084173 0 0 -1 0 0 0 0 -3.7320508075688776 1 I I -0.96592582628906831 0.25881904510252074 3.7320508075688776 forward I I I I #
coedge $-1 $240 $255 $145 $204 reversed $256 $-1 #
edge $-1 $148 0 $257 1.0000000000000002 $203 $258 forward 7 unknown #
coedge $-1 $259 $150 $146 $206 reversed $210 $-1 #
edge $-1 $257 0 $100 1.0000000000000002 $205 $260 forward 7 unknown #
face $-1 $110 $147 $3 $-1 $261 forward single #
point $-1 0 0.23000000000000001 2.7755575615628914e-017 #
coedge $-1 $150 $262 $213 $263 reversed $210 $-1 #
loop $-1 $-1 $262 $264 #
vertex $-1 $263 $265 #
intcurve-curve $-1 forward { surfintcur full nurbs 3 open 5 
	0 3 0.24962082354712087 1 0.49910678192457747 1 0.74886695754671895 1 0.99999999999999989 3 
	0 0.11499999999999998 -0.1991858428704209 1 
	7.697556889080942e-006 0.10544280301491721 -0.20470369312245673 1 
	0.00042447683487617792 0.086365855397460778 -0.21571777396471159 0.99999999999999978 
	0.002299592056863785 0.057855440622556958 -0.23217826960971016 1.0000000000000002 
	0.0052939972025889907 0.029352319684872806 -0.24863455415582661 0.99999999999999978 
	0.0079976764426782313 0.0098524443078419378 -0.25989281245391954 1 
	0.009533933395297468 0 -0.26558112382722787 1 
	0.001 
	cone 0.93837168574084173 0 0 -1 0 0 0 0 -3.7320508075688776 1 I I -0.96592582628906831 0.25881904510252074 3.7320508075688776 forward I I I I 
	plane 0 0 -0.26558112382722787 0 0.50000000000000011 -0.86602540378443871 0 0.8660254037844386 0.5 forward_v I I I I 
	nullbs 
	nullbs 
	I I 
	0 
	0 
	0 
	} I I #
coedge $-1 $266 $152 $209 $263 forward $157 $-1 #
intcurve-curve $-1 forward { surfintcur full nurbs 3 open 5 
	0 3 0.25113304245328105 1 0.50089321807542242 1 0.75037917645287899 1 0.99999999999999989 3 
	0.0095339333952974576 5.5511151231257827e-017 -0.26558112382722776 1 
	0.0079976764426782209 -0.0098524443078419014 -0.25989281245391938 1.0000000000000002 
	0.0052939972025889811 -0.029352319684872809 -0.24863455415582644 1 
	0.0022995920568637833 -0.057855440622556924 -0.23217826960971008 1 
	0.00042447683487615494 -0.08636585539746082 -0.21571777396471145 0.99999999999999956 
	7.69755688907113e-006 -0.10544280301491735 -0.20470369312245651 1 
	0 -0.11500000000000014 -0.19918584287042068 1 
	0.001 
	cone 0.93837168574084173 0 0 -1 0 0 0 0 -3.7320508075688776 1 I I -0.96592582628906831 0.25881904510252074 3.7320508075688776 forward I I I I 
	plane 0 -0.23000000000000001 -0.13279056191361377 0 -0.50000000000000011 -0.86602540378443871 0 0.86602540378443849 -0.5 forward_v I I I I 
	nullbs 
	nullbs 
	I I 
	0 
	0 
	0 
	} I I #
cone-surface $-1 0.93837168574084173 0 0 -1 0 0 0 0 -3.7320508075688776 1 I I -0.96592582628906831 0.25881904510252074 3.7320508075688776 forward I I I I #
coedge $-1 $156 $266 $267 $268 forward $157 $-1 #
edge $-1 $158 -3.4694469519536142e-018 $269 0.18093213320940507 $160 $270 forward 7 unknown #
face $-1 $271 $157 $3 $-1 $272 forward single #
point $-1 0.0095339333952974316 -0.23000000000000001 -0.13279056191361377 #
coedge $-1 $221 $160 $273 $274 forward $161 $-1 #
coedge $-1 $196 $220 $275 $276 forward $161 $-1 #
face $-1 $277 $161 $3 $-1 $278 forward single #
face $-1 $279 $280 $3 $-1 $281 reversed single #
loop $-1 $-1 $282 $165 #
cone-surface $-1 -0.27329999999999999 0 0 -1 0 0 0 0.19999999999999998 0 1 I I 0 1 0.19999999999999998 forward I I I I #
coedge $-1 $170 $168 $233 $283 forward $113 $-1 #
coedge $-1 $168 $170 $282 $284 reversed $113 $-1 #
edge $-1 $177 -4.3177542613803808e-016 $285 0.070710678118654419 $176 $286 forward 7 unknown #
coedge $-1 $287 $288 $169 $230 forward $280 $-1 #
edge $-1 $231 0 $285 3.1415926535897927 $169 $289 forward 7 unknown #
vertex $-1 $230 $290 #
straight-curve $-1 -0.28000000000000025 -0.24999999999999967 -6.1230317691118789e-017 -0.70710678118654835 0.7071067811865468 1.7318549141438694e-016 I I #
coedge $-1 $174 $172 $226 $283 reversed $166 $-1 #
straight-curve $-1 -0.13299999999999998 -0.25 -6.1230317691118863e-017 -1 0 0 I I #
straight-curve $-1 -0.13299999999999998 0.25 3.0615158845559431e-017 -1 0 0 I I #
point $-1 -0.27999999999999997 0.25 3.0615158845559431e-017 #
point $-1 -0.28000000000000025 -0.24999999999999967 -6.1230317691118789e-017 #
coedge $-1 $192 $291 $186 $239 reversed $247 $-1 #
edge $-1 $137 0 $292 1.0000000000000002 $238 $293 forward 7 unknown #
coedge $-1 $294 $203 $187 $241 reversed $256 $-1 #
edge $-1 $292 0 $148 1.0000000000000002 $240 $295 forward 7 unknown #
face $-1 $194 $188 $3 $-1 $296 forward single #
coedge $-1 $190 $253 $246 $297 reversed $200 $-1 #
vertex $-1 $191 $298 #
intcurve-curve $-1 forward { surfintcur full nurbs 3 open 5 
	0 3 0.2496208235471209 1 0.49910678192457764 1 0.74886695754671928 1 1.0000000000000002 3 
	0 -0.1150000000000001 0.19918584287042085 1 
	7.6975568890727021e-006 -0.10544280301491733 0.20470369312245668 1 
	0.00042447683487615982 -0.086365855397460861 0.21571777396471159 1 
	0.0022995920568637893 -0.057855440622556917 0.23217826960971019 1.0000000000000002 
	0.0052939972025890011 -0.029352319684872681 0.24863455415582661 1 
	0.007997676442678233 -0.0098524443078418771 0.2598928124539196 1 
	0.0095339333952974593 0 0.26558112382722787 1 
	0.001 
	cone 0.93837168574084173 0 0 -1 0 0 0 0 -3.7320508075688776 1 I I -0.96592582628906831 0.25881904510252074 3.7320508075688776 forward I I I I 
	plane 0 0 0.26558112382722787 0 -0.50000000000000011 0.86602540378443871 0 -0.8660254037844386 -0.5 forward_v I I I I 
	nullbs 
	nullbs 
	I I 
	0 
	0 
	0 
	} I I #
coedge $-1 $299 $192 $243 $297 forward $247 $-1 #
loop $-1 $-1 $300 $301 #
intcurve-curve $-1 forward { surfintcur full nurbs 3 open 5 
	0 3 0.251133042453281 1 0.50089321807542231 1 0.75037917645287899 1 1 3 
	0.0095339333952974559 0 0.26558112382722787 1 
	0.0079976764426782278 0.00985244430784195 0.25989281245391954 0.99999999999999989 
	0.005293997202588995 0.029352319684872841 0.24863455415582655 1 
	0.0022995920568638032 0.057855440622556896 0.23217826960971025 1 
	0.00042447683487616545 0.086365855397460806 0.21571777396471156 1 
	7.6975568890753042e-006 0.10544280301491729 0.20470369312245668 1 
	0 0.11500000000000007 0.19918584287042085 1 
	0.001 
	cone 0.93837168574084173 0 0 -1 0 0 0 0 -3.7320508075688776 1 I I -0.96592582628906831 0.25881904510252074 3.7320508075688776 forward I I I I 
	plane 0 0.23000000000000001 0.13279056191361391 0 0.50000000000000011 0.86602540378443871 0 -0.8660254037844386 0.5 forward_v I I I I 
	nullbs 
	nullbs 
	I I 
	0 
	0 
	0 
	} I I #
cone-surface $-1 0.93837168574084173 0 0 -1 0 0 0 0 -3.7320508075688776 1 I I -0.96592582628906831 0.25881904510252074 3.7320508075688776 forward I I I I #
edge $-1 $197 -5.2041704279304213e-018 $302 0.18093213320940504 $199 $303 forward 7 unknown #
point $-1 0.0095339333952974437 -0.23000000000000001 0.13279056191361394 #
coedge $-1 $253 $199 $304 $305 forward $200 $-1 #
coedge $-1 $243 $252 $306 $307 forward $200 $-1 #
face $-1 $308 $200 $3 $-1 $309 forward single #
coedge $-1 $203 $310 $259 $311 reversed $256 $-1 #
loop $-1 $-1 $310 $312 #
vertex $-1 $311 $313 #
intcurve-curve $-1 forward { surfintcur full nurbs 3 open 5 
	0 3 0.24962082354712084 1 0.49910678192457753 1 0.74886695754671906 1 1.0000000000000002 3 
	0 0.23000000000000001 2.7755575615628914e-017 1 
	7.6975568890753584e-006 0.23000000000000004 -0.011035700504071589 1 
	0.00042447683487616578 0.23000000000000004 -0.033063862188581344 1 
	0.0022995920568637863 0.23000000000000001 -0.06598485347857859 1 
	0.0052939972025889985 0.23000000000000007 -0.098897422570811494 0.99999999999999978 
	0.0079976764426782244 0.23000000000000004 -0.12141393916699728 1 
	0.0095339333952974489 0.23000000000000001 -0.13279056191361391 1 
	0.001 
	cone 0.93837168574084173 0 0 -1 0 0 0 0 -3.7320508075688776 1 I I -0.96592582628906831 0.25881904510252074 3.7320508075688776 forward I I I I 
	plane 0 0.23000000000000001 -0.13279056191361391 0 1 0 0 0 1 forward_v I I I I 
	nullbs 
	nullbs 
	I I 
	0 
	0 
	0 
	} I I #
coedge $-1 $314 $205 $255 $311 forward $210 $-1 #
intcurve-curve $-1 forward { surfintcur full nurbs 3 open 5 
	0 3 0.25113304245328089 1 0.50089321807542242 1 0.75037917645287933 1 1.0000000000000002 3 
	0.0095339333952974524 0.23000000000000001 -0.13279056191361394 1 
	0.0079976764426782244 0.2201475556921581 -0.13847887328692224 1 
	0.0052939972025889941 0.20064768031512734 -0.1497371315850152 0.99999999999999989 
	0.0022995920568637863 0.17214455937744316 -0.16619341613113153 1 
	0.00042447683487616556 0.1436341446025392 -0.18265391177613025 1 
	7.6975568890756311e-006 0.12455719698508276 -0.19366799261838513 0.99999999999999978 
	0 0.11499999999999998 -0.1991858428704209 1 
	0.001 
	cone 0.93837168574084173 0 0 -1 0 0 0 0 -3.7320508075688776 1 I I -0.96592582628906831 0.25881904510252074 3.7320508075688776 forward I I I I 
	plane 0 0 -0.26558112382722787 0 0.50000000000000011 -0.86602540378443871 0 0.8660254037844386 0.5 forward_v I I I I 
	nullbs 
	nullbs 
	I I 
	0 
	0 
	0 
	} I I #
cone-surface $-1 0.93837168574084173 0 0 -1 0 0 0 0 -3.7320508075688776 1 I I -0.96592582628906831 0.25881904510252074 3.7320508075688776 forward I I I I #
coedge $-1 $209 $314 $315 $316 forward $210 $-1 #
edge $-1 $211 -1.0408340855860843e-017 $317 0.18093213320940504 $213 $318 forward 7 unknown #
face $-1 $319 $210 $3 $-1 $320 forward single #
point $-1 0.0095339333952974576 5.5511151231257827e-017 -0.26558112382722776 #
coedge $-1 $216 $213 $321 $322 forward $157 $-1 #
coedge $-1 $323 $273 $216 $268 reversed $324 $-1 #
edge $-1 $325 0 $269 0.99999999999999989 $216 $326 forward 7 unknown #
vertex $-1 $274 $327 #
straight-curve $-1 0.0095339333952974351 -0.23000000000000001 -0.13279056191361377 1 0 0 I I #
face $-1 $222 $324 $3 $-1 $328 forward single #
plane-surface $-1 0 -0.23000000000000001 -0.13279056191361377 0 -0.50000000000000011 -0.86602540378443871 0 0.86602540378443849 -0.5 forward_v I I I I #
coedge $-1 $267 $323 $220 $274 reversed $324 $-1 #
edge $-1 $269 0 $329 1.0000000000000002 $220 $330 forward 7 unknown #
coedge $-1 $331 $304 $221 $276 reversed $332 $-1 #
edge $-1 $329 0 $302 1.0000000000000002 $221 $333 forward 7 unknown #
face $-1 $254 $332 $3 $-1 $334 forward single #
plane-surface $-1 0 -0.23000000000000001 0.13279056191361388 0 -1 0 0 0 -1 forward_v I I I I #
face $-1 $335 $336 $3 $-1 $337 forward single #
loop $-1 $-1 $338 $223 #
cone-surface $-1 -0.27329999999999999 0 0 -1 0 0 0 0.19999999999999998 0 1 I I 0 1 0.19999999999999998 forward I I I I #
coedge $-1 $339 $340 $227 $284 forward $224 $-1 #
edge $-1 $177 -6.1629758220391646e-032 $178 3.1415926535897931 $233 $341 forward 7 unknown #
edge $-1 $285 0 $231 3.1415926535897922 $227 $342 forward 7 unknown #
vertex $-1 $230 $343 #
straight-curve $-1 -0.28000000000000025 0.24999999999999967 3.0615158845559394e-017 -0.70710678118654835 -0.7071067811865468 -8.6592745707193468e-017 I I #
coedge $-1 $338 $229 $340 $344 reversed $280 $-1 #
coedge $-1 $229 $338 $339 $345 forward $280 $-1 #
ellipse-curve $-1 -0.33000000000000007 2.0816681711721685e-017 -4.8572257327350599e-017 -1 0 0 0 -0.19999999999999998 4.8572257327350599e-017 1 I I #
point $-1 -0.33000000000000007 -0.19999999999999996 0 #
coedge $-1 $238 $300 $294 $346 reversed $247 $-1 #
vertex $-1 $346 $347 #
intcurve-curve $-1 forward { surfintcur full nurbs 3 open 5 
	0 3 0.24962082354712084 1 0.49910678192457753 1 0.74886695754671906 1 1.0000000000000002 3 
	0 0.11500000000000007 0.19918584287042085 1 
	7.6975568890782315e-006 0.12455719698508279 0.19366799261838505 1 
	0.00042447683487617207 0.1436341446025392 0.18265391177613027 1 
	0.0022995920568637724 0.17214455937744305 0.16619341613113153 1 
	0.005293997202588995 0.20064768031512728 0.1497371315850152 0.99999999999999978 
	0.0079976764426782244 0.22014755569215805 0.13847887328692224 1 
	0.0095339333952974507 0.23000000000000001 0.13279056191361391 1 
	0.001 
	cone 0.93837168574084173 0 0 -1 0 0 0 0 -3.7320508075688776 1 I I -0.96592582628906831 0.25881904510252074 3.7320508075688776 forward I I I I 
	plane 0 0.23000000000000001 0.13279056191361391 0 0.50000000000000011 0.86602540378443871 0 -0.8660254037844386 0.5 forward_v I I I I 
	nullbs 
	nullbs 
	I I 
	0 
	0 
	0 
	} I I #
coedge $-1 $348 $240 $291 $346 forward $256 $-1 #
intcurve-curve $-1 forward { surfintcur full nurbs 3 open 5 
	0 3 0.251133042453281 1 0.50089321807542264 1 0.75037917645287933 1 1.0000000000000002 3 
	0.0095339333952974524 0.23000000000000001 0.13279056191361391 1 
	0.0079976764426782261 0.23000000000000004 0.12141393916699725 1 
	0.0052939972025889985 0.23000000000000007 0.098897422570811494 0.99999999999999978 
	0.0022995920568637863 0.23000000000000001 0.06598485347857852 1 
	0.00042447683487616545 0.23000000000000007 0.033063862188581393 1 
	7.6975568890751958e-006 0.23000000000000004 0.011035700504071639 1 
	0 0.23000000000000001 2.7755575615628914e-017 1 
	0.001 
	cone 0.93837168574084173 0 0 -1 0 0 0 0 -3.7320508075688776 1 I I -0.96592582628906831 0.25881904510252074 3.7320508075688776 forward I I I I 
	plane 0 0.23000000000000001 -0.13279056191361391 0 1 0 0 0 1 forward_v I I I I 
	nullbs 
	nullbs 
	I I 
	0 
	0 
	0 
	} I I #
cone-surface $-1 0.93837168574084173 0 0 -1 0 0 0 0 -3.7320508075688776 1 I I -0.96592582628906831 0.25881904510252074 3.7320508075688776 forward I I I I #
edge $-1 $244 -3.4694469519536142e-018 $349 0.18093213320940504 $243 $350 forward 7 unknown #
point $-1 0.0095339333952974559 0 0.26558112382722787 #
coedge $-1 $300 $246 $351 $352 forward $247 $-1 #
coedge $-1 $291 $299 $353 $354 forward $247 $-1 #
face $-1 $355 $247 $3 $-1 $356 forward single #
vertex $-1 $305 $357 #
straight-curve $-1 0.0095339333952974489 -0.23000000000000007 0.13279056191361391 1 0 0 I I #
coedge $-1 $275 $331 $252 $305 reversed $332 $-1 #
edge $-1 $302 0 $358 1 $252 $359 forward 7 unknown #
coedge $-1 $360 $351 $253 $307 reversed $361 $-1 #
edge $-1 $358 0 $349 1 $253 $362 forward 7 unknown #
face $-1 $301 $361 $3 $-1 $363 forward single #
plane-surface $-1 0 0 0.26558112382722787 0 -0.50000000000000011 0.86602540378443871 0 -0.8660254037844386 -0.5 forward_v I I I I #
coedge $-1 $255 $348 $364 $365 forward $256 $-1 #
edge $-1 $257 3.4694469519536142e-018 $366 0.18093213320940504 $259 $367 forward 7 unknown #
face $-1 $264 $256 $3 $-1 $368 forward single #
point $-1 0.0095339333952974524 0.23000000000000001 -0.13279056191361394 #
coedge $-1 $262 $259 $369 $370 forward $210 $-1 #
coedge $-1 $371 $321 $262 $316 reversed $372 $-1 #
edge $-1 $373 0 $317 1 $262 $374 forward 7 unknown #
vertex $-1 $322 $375 #
straight-curve $-1 0.009533933395297468 5.5511151231257827e-017 -0.26558112382722776 1 0 0 I I #
face $-1 $218 $372 $3 $-1 $376 forward single #
plane-surface $-1 0 0 -0.26558112382722787 0 0.50000000000000011 -0.86602540378443871 0 0.8660254037844386 0.5 forward_v I I I I #
coedge $-1 $315 $371 $266 $322 reversed $372 $-1 #
edge $-1 $317 0 $325 1.0000000000000002 $266 $377 forward 7 unknown #
coedge $-1 $273 $267 $378 $379 forward $324 $-1 #
loop $-1 $-1 $267 $271 #
vertex $-1 $380 $381 #
intcurve-curve $-1 forward { surfintcur full nurbs 3 open 5 
	0 3 0.24962082354712087 1 0.49910678192457747 1 0.74886695754671895 1 0.99999999999999989 3 
	0.19999999999999998 -0.11500000000000007 -0.19918584287042071 1 
	0.19999230244311092 -0.12455719698508283 -0.19366799261838491 1 
	0.19957552316512389 -0.14363414460253926 -0.18265391177613008 0.99999999999999989 
	0.19770040794313615 -0.17214455937744308 -0.16619341613113137 1.0000000000000004 
	0.19470600279741104 -0.20064768031512734 -0.149737131585015 0.99999999999999978 
	0.19200232355732169 -0.22014755569215805 -0.13847887328692207 1.0000000000000002 
	0.1904660666047025 -0.23000000000000001 -0.13279056191361377 1 
	0.001 
	plane 0 -0.23000000000000001 -0.13279056191361377 0 -0.50000000000000011 -0.86602540378443871 0 0.86602540378443849 -0.5 forward_v I I I I 
	cone -0.73837168574084155 0 0 1 0 0 0 0 -3.7320508075688674 1 I I -0.96592582628906809 0.25881904510252141 3.7320508075688674 forward I I I I 
	nullbs 
	nullbs 
	I I 
	0 
	0 
	0 
	} I I #
point $-1 0.1904660666047025 -0.23000000000000001 -0.13279056191361377 #
cone-surface $-1 -0.73837168574084155 0 0 1 0 0 0 0 -3.7320508075688674 1 I I -0.96592582628906809 0.25881904510252141 3.7320508075688674 forward I I I I #
vertex $-1 $379 $382 #
intcurve-curve $-1 forward { surfintcur full nurbs 3 open 5 
	0 3 0.25113304245328083 1 0.50089321807542242 1 0.75037917645287933 1 1.0000000000000002 3 
	0.1904660666047025 -0.23000000000000001 -0.13279056191361377 1 
	0.19200232355732172 -0.22999999999999995 -0.12141393916699716 1.0000000000000002 
	0.19470600279741102 -0.23000000000000004 -0.098897422570811425 1 
	0.1977004079431362 -0.22999999999999998 -0.065984853478578506 1.0000000000000002 
	0.19957552316512378 -0.23000000000000001 -0.033063862188581282 0.99999999999999989 
	0.19999230244311086 -0.23000000000000001 -0.011035700504071577 1.0000000000000002 
	0.19999999999999998 -0.23000000000000001 0 1 
	0.001 
	plane 0 -0.23000000000000001 0.13279056191361388 0 -1 0 0 0 -1 forward_v I I I I 
	cone -0.73837168574084155 0 0 1 0 0 0 0 -3.7320508075688674 1 I I -0.96592582628906809 0.25881904510252141 3.7320508075688674 forward I I I I 
	nullbs 
	nullbs 
	I I 
	0 
	0 
	0 
	} I I #
coedge $-1 $304 $275 $383 $384 forward $332 $-1 #
loop $-1 $-1 $275 $277 #
intcurve-curve $-1 forward { surfintcur full nurbs 3 open 5 
	0 3 0.24962082354712084 1 0.49910678192457753 1 0.74886695754671906 1 1.0000000000000002 3 
	0.19999999999999998 -0.23000000000000001 0 1 
	0.19999230244311092 -0.23000000000000007 0.01103570050407156 0.99999999999999989 
	0.19957552316512381 -0.22999999999999998 0.033063862188581233 1.0000000000000002 
	0.19770040794313617 -0.23000000000000001 0.06598485347857859 0.99999999999999978 
	0.19470600279741099 -0.22999999999999998 0.098897422570811327 1.0000000000000002 
	0.19200232355732177 -0.22999999999999998 0.12141393916699722 1 
	0.1904660666047025 -0.23000000000000001 0.13279056191361388 1 
	0.001 
	plane 0 -0.23000000000000001 0.13279056191361388 0 -1 0 0 0 -1 forward_v I I I I 
	cone -0.73837168574084155 0 0 1 0 0 0 0 -3.7320508075688674 1 I I -0.96592582628906809 0.25881904510252141 3.7320508075688674 forward I I I I 
	nullbs 
	nullbs 
	I I 
	0 
	0 
	0 
	} I I #
cone-surface $-1 -0.73837168574084155 0 0 1 0 0 0 0 -3.7320508075688674 1 I I -0.96592582628906809 0.25881904510252141 3.7320508075688674 forward I I I I #
face $-1 $385 $386 $3 $-1 $387 reversed single #
loop $-1 $388 $389 $279 #
plane-surface $-1 -0.27600000000000002 0 0 -1 0 0 0 1 0 forward_v I I I I #
coedge $-1 $288 $287 $390 $391 forward $280 $-1 #
coedge $-1 $392 $282 $288 $345 reversed $224 $-1 #
coedge $-1 $282 $392 $287 $344 forward $224 $-1 #
ellipse-curve $-1 -0.28000000000000025 2.0816681711721685e-017 1.3877787807814457e-017 -1 0 0 0 0.24999999999999964 1.6737371037744938e-017 1 I I #
ellipse-curve $-1 -0.33000000000000013 -6.9388939039072284e-018 1.1102230246251565e-016 -1 2.7755575615628923e-016 -1.2008474129808233e-031 5.5511151231257827e-017 0.19999999999999996 -8.6530175386068111e-017 1 I I #
point $-1 -0.33000000000000007 0.19999999999999996 2.4492127076447543e-017 #
edge $-1 $393 0 $285 0.054000000000000048 $340 $394 forward 7 unknown #
edge $-1 $395 0 $231 0.054000000000000048 $339 $396 forward 7 unknown #
edge $-1 $292 1.7347234759768071e-018 $397 0.18093213320940504 $294 $398 forward 7 unknown #
point $-1 0.0095339333952974524 0.23000000000000001 0.13279056191361391 #
coedge $-1 $310 $294 $399 $400 forward $256 $-1 #
vertex $-1 $297 $401 #
straight-curve $-1 0.0095339333952974593 -5.5511151231257827e-017 0.26558112382722787 1 0 0 I I #
coedge $-1 $306 $360 $299 $352 reversed $361 $-1 #
edge $-1 $349 0 $402 1.0000000000000002 $299 $403 forward 7 unknown #
coedge $-1 $404 $399 $300 $354 reversed $405 $-1 #
edge $-1 $402 0 $397 1.0000000000000002 $300 $406 forward 7 unknown #
face $-1 $242 $405 $3 $-1 $407 forward single #
plane-surface $-1 0 0.23000000000000001 0.13279056191361391 0 0.50000000000000011 0.86602540378443871 0 -0.8660254037844386 0.5 forward_v I I I I #
point $-1 0.1904660666047025 -0.23000000000000001 0.13279056191361394 #
vertex $-1 $384 $408 #
intcurve-curve $-1 forward { surfintcur full nurbs 3 open 5 
	0 3 0.25113304245328077 1 0.50089321807542231 1 0.75037917645287899 1 1 3 
	0.1904660666047025 -0.23000000000000001 0.13279056191361394 1 
	0.19200232355732172 -0.22014755569215816 0.13847887328692224 1 
	0.1947060027974109 -0.20064768031512728 0.14973713158501509 1.0000000000000002 
	0.19770040794313626 -0.17214455937744319 0.16619341613113156 0.99999999999999989 
	0.19957552316512375 -0.14363414460253926 0.18265391177613019 1.0000000000000002 
	0.19999230244311089 -0.1245571969850828 0.19366799261838508 1 
	0.19999999999999998 -0.11500000000000003 0.1991858428704209 1 
	0.001 
	plane 0 0 0.26558112382722787 0 -0.50000000000000011 0.86602540378443871 0 -0.8660254037844386 -0.5 forward_v I I I I 
	cone -0.73837168574084155 0 0 1 0 0 0 0 -3.7320508075688674 1 I I -0.96592582628906809 0.25881904510252141 3.7320508075688674 forward I I I I 
	nullbs 
	nullbs 
	I I 
	0 
	0 
	0 
	} I I #
coedge $-1 $351 $306 $409 $410 reversed $361 $-1 #
loop $-1 $-1 $360 $308 #
intcurve-curve $-1 forward { surfintcur full nurbs 3 open 5 
	0 3 0.24962082354712056 1 0.49910678192457736 1 0.74886695754671906 1 1 3 
	0.19999999999999998 -0.11500000000000003 0.1991858428704209 1 
	0.19999230244311092 -0.10544280301491735 0.20470369312245665 1 
	0.19957552316512381 -0.086365855397461014 0.21571777396471148 1 
	0.19770040794313617 -0.057855440622557014 0.23217826960971016 0.99999999999999989 
	0.19470600279741099 -0.02935231968487274 0.24863455415582666 1.0000000000000002 
	0.19200232355732175 -0.0098524443078418945 0.25989281245391954 1 
	0.1904660666047025 0 0.26558112382722787 1 
	0.001 
	plane 0 0 0.26558112382722787 0 -0.50000000000000011 0.86602540378443871 0 -0.8660254037844386 -0.5 forward_v I I I I 
	cone -0.73837168574084155 0 0 1 0 0 0 0 -3.7320508075688674 1 I I -0.96592582628906809 0.25881904510252141 3.7320508075688674 forward I I I I 
	nullbs 
	nullbs 
	I I 
	0 
	0 
	0 
	} I I #
cone-surface $-1 -0.73837168574084155 0 0 1 0 0 0 0 -3.7320508075688674 1 I I -0.96592582628906809 0.25881904510252141 3.7320508075688674 forward I I I I #
coedge $-1 $411 $369 $310 $365 reversed $412 $-1 #
edge $-1 $413 0 $366 1.0000000000000002 $310 $414 forward 7 unknown #
vertex $-1 $370 $415 #
straight-curve $-1 0.0095339333952974489 0.23000000000000007 -0.13279056191361391 1 0 0 I I #
plane-surface $-1 0 0.23000000000000001 -0.13279056191361391 0 1 0 0 0 1 forward_v I I I I #
coedge $-1 $364 $411 $314 $370 reversed $412 $-1 #
edge $-1 $366 0 $373 1.0000000000000002 $314 $416 forward 7 unknown #
coedge $-1 $321 $315 $417 $380 reversed $372 $-1 #
loop $-1 $-1 $321 $319 #
vertex $-1 $380 $418 #
intcurve-curve $-1 forward { surfintcur full nurbs 3 open 5 
	0 3 0.24962082354712073 1 0.49910678192457736 1 0.74886695754671906 1 1 3 
	0.19999999999999998 0.11500000000000005 -0.19918584287042088 1 
	0.19999230244311089 0.10544280301491729 -0.20470369312245668 1 
	0.19957552316512381 0.086365855397460833 -0.21571777396471153 1 
	0.1977004079431362 0.057855440622557035 -0.23217826960971022 0.99999999999999978 
	0.19470600279741093 0.029352319684872719 -0.24863455415582666 1.0000000000000002 
	0.19200232355732172 0.0098524443078418979 -0.25989281245391954 1 
	0.1904660666047025 0 -0.26558112382722787 1 
	0.001 
	plane 0 0 -0.26558112382722787 0 0.50000000000000011 -0.86602540378443871 0 0.8660254037844386 0.5 forward_v I I I I 
	cone -0.73837168574084155 0 0 1 0 0 0 0 -3.7320508075688674 1 I I -0.96592582628906809 0.25881904510252141 3.7320508075688674 forward I I I I 
	nullbs 
	nullbs 
	I I 
	0 
	0 
	0 
	} I I #
point $-1 0.1904660666047025 5.5511151231257827e-017 -0.26558112382722776 #
cone-surface $-1 -0.73837168574084155 0 0 1 0 0 0 0 -3.7320508075688674 1 I I -0.96592582628906809 0.25881904510252141 3.7320508075688674 forward I I I I #
intcurve-curve $-1 forward { surfintcur full nurbs 3 open 5 
	0 3 0.25113304245328111 1 0.50089321807542264 1 0.75037917645287933 1 1.0000000000000002 3 
	0.1904660666047025 5.5511151231257827e-017 -0.26558112382722776 1 
	0.19200232355732169 -0.0098524443078418962 -0.25989281245391938 1.0000000000000002 
	0.19470600279741104 -0.029352319684872799 -0.24863455415582641 1 
	0.19770040794313615 -0.057855440622556965 -0.23217826960971005 1 
	0.19957552316512392 -0.086365855397460889 -0.2157177739647114 1 
	0.19999230244311092 -0.10544280301491733 -0.20470369312245654 1 
	0.19999999999999998 -0.11500000000000007 -0.19918584287042071 1 
	0.001 
	plane 0 -0.23000000000000001 -0.13279056191361377 0 -0.50000000000000011 -0.86602540378443871 0 0.86602540378443849 -0.5 forward_v I I I I 
	cone -0.73837168574084155 0 0 1 0 0 0 0 -3.7320508075688674 1 I I -0.96592582628906809 0.25881904510252141 3.7320508075688674 forward I I I I 
	nullbs 
	nullbs 
	I I 
	0 
	0 
	0 
	} I I #
coedge $-1 $417 $383 $323 $379 reversed $419 $-1 #
edge $-1 $325 -1.5740402050451153e-015 $329 1.0471975511965963 $378 $420 forward 7 unknown #
edge $-1 $325 0 $373 1.0471975511965941 $417 $421 forward 7 unknown #
point $-1 0.20000000000000007 -0.11499999999999977 -0.19918584287042096 #
point $-1 0.19999999999999998 -0.23000000000000001 0 #
coedge $-1 $378 $409 $331 $384 reversed $419 $-1 #
edge $-1 $329 0 $358 1.0471975511965974 $383 $422 forward 7 unknown #
face $-1 $423 $424 $3 $-1 $425 reversed single #
loop $-1 $-1 $426 $335 #
cone-surface $-1 -0.33000000000000002 0 0 1 0 0 0 0.1875 0 1 I I 0 1 0.1875 forward I I I I #
loop $-1 $-1 $427 $279 #
coedge $-1 $390 $390 $392 $428 forward $336 $-1 #
coedge $-1 $389 $389 $338 $391 reversed $336 $-1 #
edge $-1 $393 0 $395 3.1415926535897931 $390 $429 forward 7 unknown #
coedge $-1 $340 $339 $389 $428 reversed $224 $-1 #
vertex $-1 $391 $430 #
straight-curve $-1 -0.27600000000000002 0.19999999999999998 0 -1 0 0 I I #
vertex $-1 $391 $431 #
straight-curve $-1 -0.27600000000000002 -0.19999999999999998 2.4492127076447543e-017 -1 0 0 I I #
vertex $-1 $400 $432 #
straight-curve $-1 0.0095339333952974507 0.23000000000000001 0.13279056191361391 1 0 0 I I #
coedge $-1 $353 $404 $348 $400 reversed $405 $-1 #
edge $-1 $397 0 $413 1.0000000000000002 $348 $433 forward 7 unknown #
point $-1 0.1904660666047025 0 0.26558112382722787 #
vertex $-1 $410 $434 #
intcurve-curve $-1 forward { surfintcur full nurbs 3 open 5 
	0 3 0.25113304245328111 1 0.50089321807542264 1 0.75037917645287933 1 1.0000000000000002 3 
	0.1904660666047025 0 0.26558112382722787 1 
	0.19200232355732172 0.0098524443078419378 0.25989281245391949 1 
	0.19470600279741093 0.029352319684872813 0.2486345541558265 1.0000000000000002 
	0.19770040794313617 0.057855440622557007 0.23217826960971014 1 
	0.19957552316512384 0.086365855397460986 0.21571777396471151 1 
	0.19999230244311095 0.10544280301491735 0.20470369312245668 0.99999999999999978 
	0.19999999999999998 0.11499999999999998 0.1991858428704209 1 
	0.001 
	plane 0 0.23000000000000001 0.13279056191361391 0 0.50000000000000011 0.86602540378443871 0 -0.8660254037844386 0.5 forward_v I I I I 
	cone -0.73837168574084155 0 0 1 0 0 0 0 -3.7320508075688674 1 I I -0.96592582628906809 0.25881904510252141 3.7320508075688674 forward I I I I 
	nullbs 
	nullbs 
	I I 
	0 
	0 
	0 
	} I I #
coedge $-1 $399 $353 $435 $436 forward $405 $-1 #
loop $-1 $-1 $353 $355 #
intcurve-curve $-1 forward { surfintcur full nurbs 3 open 5 
	0 3 0.24962082354712073 1 0.49910678192457719 1 0.74886695754671861 1 1.0000000000000002 3 
	0.19999999999999998 0.11499999999999998 0.1991858428704209 1 
	0.19999230244311089 0.12455719698508269 0.1936679926183851 1 
	0.19957552316512381 0.14363414460253907 0.18265391177613027 1 
	0.19770040794313623 0.17214455937744289 0.16619341613113167 1 
	0.19470600279741099 0.20064768031512709 0.14973713158501531 1 
	0.19200232355732177 0.22014755569215799 0.13847887328692229 1 
	0.1904660666047025 0.23000000000000001 0.13279056191361391 1 
	0.001 
	plane 0 0.23000000000000001 0.13279056191361391 0 0.50000000000000011 0.86602540378443871 0 -0.8660254037844386 0.5 forward_v I I I I 
	cone -0.73837168574084155 0 0 1 0 0 0 0 -3.7320508075688674 1 I I -0.96592582628906809 0.25881904510252141 3.7320508075688674 forward I I I I 
	nullbs 
	nullbs 
	I I 
	0 
	0 
	0 
	} I I #
cone-surface $-1 -0.73837168574084155 0 0 1 0 0 0 0 -3.7320508075688674 1 I I -0.96592582628906809 0.25881904510252141 3.7320508075688674 forward I I I I #
point $-1 0.19999999999999998 -0.11500000000000003 0.1991858428704209 #
coedge $-1 $383 $435 $360 $410 forward $419 $-1 #
edge $-1 $402 1.5740402050450798e-015 $358 1.0471975511965856 $409 $437 forward 7 unknown #
coedge $-1 $369 $364 $438 $439 forward $412 $-1 #
loop $-1 $-1 $364 $440 #
vertex $-1 $436 $441 #
intcurve-curve $-1 forward { surfintcur full nurbs 3 open 5 
	0 3 0.24962082354712073 1 0.49910678192457753 1 0.74886695754671906 1 1.0000000000000002 3 
	0.19999999999999998 0.23000000000000001 2.7755575615628914e-017 1 
	0.19999230244311095 0.23000000000000004 -0.011035700504071525 1 
	0.19957552316512378 0.22999999999999993 -0.033063862188581185 1.0000000000000002 
	0.19770040794313617 0.23000000000000001 -0.065984853478578617 0.99999999999999989 
	0.19470600279741099 0.23000000000000007 -0.098897422570811452 1 
	0.19200232355732175 0.23000000000000004 -0.12141393916699725 1 
	0.1904660666047025 0.23000000000000001 -0.13279056191361391 1 
	0.001 
	plane 0 0.23000000000000001 -0.13279056191361391 0 1 0 0 0 1 forward_v I I I I 
	cone -0.73837168574084155 0 0 1 0 0 0 0 -3.7320508075688674 1 I I -0.96592582628906809 0.25881904510252141 3.7320508075688674 forward I I I I 
	nullbs 
	nullbs 
	I I 
	0 
	0 
	0 
	} I I #
point $-1 0.1904660666047025 0.23000000000000001 -0.13279056191361394 #
intcurve-curve $-1 forward { surfintcur full nurbs 3 open 5 
	0 3 0.25113304245328089 1 0.50089321807542242 1 0.75037917645287933 1 1.0000000000000002 3 
	0.1904660666047025 0.23000000000000001 -0.13279056191361394 1 
	0.19200232355732175 0.22014755569215813 -0.13847887328692224 1 
	0.19470600279741093 0.20064768031512734 -0.14973713158501514 0.99999999999999989 
	0.19770040794313617 0.17214455937744316 -0.16619341613113153 1.0000000000000002 
	0.19957552316512386 0.14363414460253912 -0.1826539117761303 0.99999999999999956 
	0.19999230244311086 0.12455719698508275 -0.19366799261838505 1.0000000000000002 
	0.19999999999999998 0.11500000000000005 -0.19918584287042088 1 
	0.001 
	plane 0 0 -0.26558112382722787 0 0.50000000000000011 -0.86602540378443871 0 0.8660254037844386 0.5 forward_v I I I I 
	cone -0.73837168574084155 0 0 1 0 0 0 0 -3.7320508075688674 1 I I -0.96592582628906809 0.25881904510252141 3.7320508075688674 forward I I I I 
	nullbs 
	nullbs 
	I I 
	0 
	0 
	0 
	} I I #
coedge $-1 $438 $378 $371 $380 forward $419 $-1 #
point $-1 0.20000000000000029 0.11500000000000021 -0.19918584287042052 #
loop $-1 $442 $438 $423 #
ellipse-curve $-1 0.19999999999999998 1.6653345369377348e-016 1.6306400674181987e-016 -1 0 0 0 -0.11500000000000024 -0.19918584287042096 1 I I #
ellipse-curve $-1 0.19999999999999998 -1.5612511283791264e-016 9.9920072216264089e-016 1 1.8101462358018683e-016 3.1352652495384165e-016 8.3266726846886741e-017 -0.11499999999999962 -0.19918584287042196 1 I I #
ellipse-curve $-1 0.19999999999999998 8.3266726846886741e-017 -4.163336342344337e-017 -1 0 0 0 -0.23000000000000009 4.163336342344337e-017 1 I I #
face $-1 $440 $419 $3 $-1 $443 forward single #
loop $-1 $-1 $444 $385 #
cone-surface $-1 -0.33000000000000002 0 0 1 0 0 0 0.1875 0 1 I I 0 1 0.1875 forward I I I I #
coedge $-1 $445 $446 $447 $448 forward $386 $-1 #
coedge $-1 $449 $449 $446 $450 forward $388 $-1 #
edge $-1 $393 0 $395 3.1415926535897936 $389 $451 forward 7 unknown #
ellipse-curve $-1 -0.27600000000000002 0 3.4694469519536142e-017 1 0 0 0 0.19999999999999998 -3.4694469519536142e-017 1 I I #
point $-1 -0.27600000000000002 0.19999999999999998 0 #
point $-1 -0.27600000000000002 -0.19999999999999998 2.4492127076447543e-017 #
point $-1 0.1904660666047025 0.23000000000000001 0.13279056191361391 #
intcurve-curve $-1 forward { surfintcur full nurbs 3 open 5 
	0 3 0.25113304245328111 1 0.50089321807542264 1 0.75037917645287933 1 1.0000000000000002 3 
	0.1904660666047025 0.23000000000000001 0.13279056191361391 1 
	0.19200232355732172 0.22999999999999998 0.12141393916699722 1 
	0.19470600279741093 0.22999999999999995 0.098897422570811355 1.0000000000000002 
	0.19770040794313617 0.23000000000000004 0.06598485347857859 1 
	0.19957552316512384 0.22999999999999998 0.033063862188581226 1 
	0.19999230244311095 0.23000000000000009 0.011035700504071572 0.99999999999999978 
	0.19999999999999998 0.23000000000000001 2.7755575615628914e-017 1 
	0.001 
	plane 0 0.23000000000000001 -0.13279056191361391 0 1 0 0 0 1 forward_v I I I I 
	cone -0.73837168574084155 0 0 1 0 0 0 0 -3.7320508075688674 1 I I -0.96592582628906809 0.25881904510252141 3.7320508075688674 forward I I I I 
	nullbs 
	nullbs 
	I I 
	0 
	0 
	0 
	} I I #
point $-1 0.19999999999999998 0.11499999999999998 0.1991858428704209 #
coedge $-1 $409 $438 $404 $436 reversed $419 $-1 #
edge $-1 $402 -2.6234003417418592e-016 $413 1.0471975511965965 $435 $452 forward 7 unknown #
ellipse-curve $-1 0.19999999999999998 2.1857515797307769e-016 -3.1641356201816961e-015 1 -1.8101462358018434e-016 -3.1352652495383914e-016 8.3266726846886741e-017 0.11500000000000021 0.19918584287042412 1 I I #
coedge $-1 $435 $417 $411 $439 reversed $419 $-1 #
edge $-1 $413 -1.2067641572012561e-016 $373 1.0471975511965952 $438 $453 forward 7 unknown #
face $-1 $312 $412 $3 $-1 $454 forward single #
point $-1 0.19999999999999998 0.23000000000000001 2.7755575615628914e-017 #
loop $-1 $-1 $455 $423 #
plane-surface $-1 0.19999999999999998 0 0 1 0 0 0 0 -1 forward_v I I I I #
coedge $-1 $456 $457 $458 $459 forward $424 $-1 #
coedge $-1 $458 $426 $455 $460 forward $386 $-1 #
coedge $-1 $426 $458 $427 $450 reversed $386 $-1 #
coedge $-1 $457 $456 $426 $448 reversed $424 $-1 #
edge $-1 $461 0 $462 0.47599999999999998 $447 $463 forward 7 unknown #
coedge $-1 $427 $427 $457 $464 forward $388 $-1 #
edge $-1 $461 0 $465 3.1415926535897931 $446 $466 forward 7 unknown #
ellipse-curve $-1 -0.27600000000000002 0 -3.4694469519536142e-017 -1 0 0 0 0.19999999999999998 3.4694469519536142e-017 1 I I #
ellipse-curve $-1 0.19999999999999998 -1.9428902930940239e-016 -1.1796119636642288e-016 -1 0 0 0 0.11500000000000023 0.19918584287042099 1 I I #
ellipse-curve $-1 0.19999999999999998 -1.8041124150158794e-016 9.7144514654701197e-017 -1 0 0 0 0.2300000000000002 -9.7144514654701197e-017 1 I I #
cone-surface $-1 -0.73837168574084155 0 0 1 0 0 0 0 -3.7320508075688674 1 I I -0.96592582628906809 0.25881904510252141 3.7320508075688674 forward I I I I #
coedge $-1 $467 $467 $445 $460 reversed $442 $-1 #
coedge $-1 $447 $444 $467 $468 forward $424 $-1 #
coedge $-1 $444 $447 $449 $464 reversed $424 $-1 #
coedge $-1 $446 $445 $444 $459 reversed $386 $-1 #
edge $-1 $465 0 $469 0.47599999999999998 $444 $470 forward 7 unknown #
edge $-1 $462 0 $469 3.1415926535897931 $455 $471 forward 7 unknown #
vertex $-1 $464 $472 #
vertex $-1 $468 $473 #
straight-curve $-1 -0.27600000000000002 -0.1875 2.2961369134169574e-017 1 0 0 I I #
edge $-1 $465 0 $461 3.1415926535897931 $457 $474 forward 7 unknown #
vertex $-1 $464 $475 #
ellipse-curve $-1 -0.27600000000000002 0 0 1 0 0 0 -0.1875 0 1 I I #
coedge $-1 $455 $455 $456 $468 reversed $442 $-1 #
edge $-1 $469 0 $462 3.1415926535897931 $467 $476 forward 7 unknown #
vertex $-1 $468 $477 #
straight-curve $-1 -0.27600000000000002 0.1875 0 1 0 0 I I #
ellipse-curve $-1 0.19999999999999998 0 0 1 0 0 0 -0.1875 0 1 I I #
point $-1 -0.27600000000000002 -0.1875 0 #
point $-1 0.19999999999999998 -0.1875 0 #
ellipse-curve $-1 -0.27600000000000002 0 0 1 0 0 0 0.1875 0 1 I I #
point $-1 -0.27600000000000002 0.1875 0 #
ellipse-curve $-1 0.19999999999999998 0 0 1 0 0 0 0.1875 0 1 I I #
point $-1 0.19999999999999998 0.1875 0 #
End-of-ACIS-data 