106 0 1 0           
body $-1 $1 $-1 $-1 #
lump $-1 $-1 $2 $0 #
shell $-1 $-1 $-1 $3 $1 #
face $-1 $4 $5 $2 $-1 $6 forward single #
face $-1 $7 $8 $2 $-1 $9 forward single #
loop $-1 $10 $11 $3 #
cone-surface $-1 0 20 0 0 -1 6.1232329394368592e-17 10 0 0 1 I I 0 1 0 I I I I #
face $-1 $12 $13 $2 $-1 $14 forward single #
loop $-1 $-1 $15 $4 #
plane-surface $-1 0 40 -1.2246465878873718e-15 0 1 -6.1232329394368592e-17 -1 0 0 0 I I I I #
loop $-1 $-1 $16 $3 #
coedge $-1 $11 $11 $15 $17 1 $5 $-1 #
face $-1 $18 $19 $2 $-1 $20 forward single #
loop $-1 $21 $22 $7 #
cone-surface $-1 0 0 0 0 0 1 20 0 0 1 I I 0 1 0 I I I I #
coedge $-1 $15 $15 $11 $17 0 $8 $-1 #
coedge $-1 $16 $16 $22 $23 1 $10 $-1 #
edge $-1 $24 $24 $15 $25 0 #
face $-1 $-1 $26 $2 $-1 $27 forward single #
loop $-1 $-1 $28 $12 #
plane-surface $-1 0 0 -40 0 0 -1 -1 0 0 0 I I I I #
loop $-1 $29 $30 $7 #
coedge $-1 $22 $22 $16 $23 0 $13 $-1 #
edge $-1 $31 $31 $22 $32 0 #
vertex $-1 $17 $33 #
ellipse-curve $-1 0 40 -1.2246465878873718e-15 0 1 -6.1232329394368592e-17 10 0 0 1 I I #
loop $-1 $-1 $34 $18 #
plane-surface $-1 0 0 40 0 0 1 1 0 0 0 I I I I #
coedge $-1 $28 $28 $30 $35 0 $19 $-1 #
loop $-1 $-1 $36 $7 #
coedge $-1 $30 $30 $28 $35 1 $21 $-1 #
vertex $-1 $23 $37 #
intcurve-curve $-1 0 { surfintcur nubs 3 periodic 33 
	0 3 1.9245760044073656 2 3.8491520088147313 2 5.7737280132220974 2 7.6983040176294626 2 
	9.6176335342597952 2 11.53696305089013 2 13.456292567520464 2 15.375622084150796 2 17.294951600781133 2 
	19.214281117411467 2 21.133610634041801 2 23.052940150672136 2 24.977516155079503 2 26.90209215948687 2 
	28.826668163894233 2 30.7512441683016 2 32.675820172708974 2 34.600396177116345 2 36.524972181523722 2 
	38.449548185931093 2 40.368877702561434 2 42.288207219191776 2 44.207536735822117 2 46.126866252452459 2 
	48.0461957690828 2 49.965525285713142 2 51.884854802343483 2 53.804184318973832 2 55.728760323381167 2 
	57.653336327788509 2 59.577912332195851 2 61.502488336603186 3 
	10 17.320508075688775 1.6407153211897552e-16 
	10 17.320508075688775 0.64152533480245533 
	9.937297088530503 17.357194406307162 1.300193291272592 
	9.6783506437679634 17.502902610803599 2.601904098897716 
	9.4822136579162581 17.611680800798716 3.2449954082441943 
	8.9689292842135941 17.878533683337437 4.4722141994668743 
	8.6513731845627682 18.036476079466389 5.0575325310707919 
	7.9216168715599089 18.368688397564327 6.1378236758419238 
	7.5093130465879092 18.54264580467904 6.63282257714304 
	6.6340172549640517 18.873476517287344 7.5081183687668975 
	6.1396104531032822 19.042633643078826 7.9202514409750648 
	5.0590770098487177 19.357749155887145 8.65048780346185 
	4.4729183745799492 19.503466228672725 8.9686478641071741 
	3.2439399614523516 19.745101865228602 9.48264199382991 
	2.5999485047637774 19.841072982240171 9.6788867241116137 
	1.297879333731397 19.968560753093946 9.9376098576292762 
	0.63977650554344467 20 10 
	-0.63977650554344467 20 10 
	-1.2978793337313979 19.968560753093946 9.9376098576292762 
	-2.5999485047637783 19.841072982240171 9.6788867241116137 
	-3.2439399614523521 19.745101865228602 9.48264199382991 
	-4.4729183745799492 19.503466228672725 8.9686478641071741 
	-5.0590770098487168 19.357749155887145 8.65048780346185 
	-6.1396104531032814 19.042633643078826 7.920251440975064 
	-6.6340172549640517 18.873476517287344 7.5081183687668993 
	-7.5093130465879092 18.54264580467904 6.6328225771430418 
	-7.9216168715599089 18.368688397564327 6.1378236758419247 
	-8.6513731845627682 18.036476079466389 5.0575325310707919 
	-8.9689292842135941 17.878533683337437 4.4722141994668734 
	-9.4822136579162581 17.611680800798716 3.2449954082441943 
	-9.6783506437679634 17.502902610803599 2.6019040988977165 
	-9.937297088530503 17.357194406307162 1.3001932912725929 
	-10 17.320508075688775 0.64152533480245577 
	-10 17.320508075688775 -0.64152533480245799 
	-9.9372970885305048 17.357194406307162 -1.3001932912725978 
	-9.6783506437679616 17.502902610803599 -2.6019040988977258 
	-9.4822136579162581 17.61168080079872 -3.2449954082442067 
	-8.968929284213587 17.878533683337441 -4.4722141994668911 
	-8.6513731845627557 18.036476079466393 -5.0575325310708088 
	-7.9216168715598894 18.368688397564338 -6.1378236758419451 
	-7.5093130465878879 18.542645804679044 -6.6328225771430649 
	-6.6340172549640251 18.873476517287351 -7.5081183687669224 
	-6.1396104531032503 19.04263364307884 -7.9202514409750897 
	-5.0590770098486786 19.357749155887159 -8.6504878034618748 
	-4.4729183745799048 19.503466228672728 -8.9686478641071972 
	-3.2439399614522997 19.745101865228605 -9.4826419938299296 
	-2.5999485047637214 19.841072982240174 -9.6788867241116279 
	-1.2978793337313346 19.96856075309395 -9.9376098576292833 
	-0.63977650554337817 20 -10.000000000000004 
	0.6397765055435165 20 -9.9999999999999964 
	1.2978793337314718 19.968560753093943 -9.9376098576292673 
	2.5999485047638542 19.84107298224016 -9.6788867241115941 
	3.2439399614524289 19.745101865228587 -9.4826419938298834 
	4.4729183745800256 19.503466228672703 -8.9686478641071332 
	5.059077009848794 19.357749155887124 -8.6504878034618038 
	6.1396104531033568 19.042633643078805 -7.9202514409750053 
	6.6340172549641263 18.873476517287315 -7.5081183687668318 
	7.5093130465879705 18.542645804679012 -6.632822577142969 
	7.9216168715599569 18.368688397564306 -6.1378236758418563 
	8.6513731845628001 18.036476079466372 -5.0575325310707324 
	8.968929284213619 17.878533683337423 -4.4722141994668201 
	9.4822136579162759 17.611680800798709 -3.2449954082441512 
	9.678350643767974 17.502902610803588 -2.6019040988976778 
	9.9372970885305065 17.357194406307158 -1.3001932912725709 
	10 17.320508075688775 -0.641525334802445 
	10 17.320508075688775 1.6407153211897552e-16 
	0.001 
	cone 0 20 0 0 -1 6.1232329394368592e-17 10 0 0 1 I I 0 1 0 I I I I 
	cone 0 0 0 0 0 1 20 0 0 1 I I 0 1 0 I I I I 
	nullbs 
	nullbs 
	} I I #
point $-1 10 40 -1.2246465878873718e-15 #
coedge $-1 $34 $34 $36 $38 0 $26 $-1 #
edge $-1 $39 $39 $28 $40 0 #
coedge $-1 $36 $36 $34 $38 1 $29 $-1 #
point $-1 10 17.320508075688775 1.6407153211897552e-16 #
edge $-1 $41 $41 $34 $42 0 #
vertex $-1 $35 $43 #
ellipse-curve $-1 0 0 -40 0 0 -1 20 0 0 1 I I #
vertex $-1 $38 $44 #
ellipse-curve $-1 0 0 40 0 0 1 20 0 0 1 I I #
point $-1 20 0 -40 #
point $-1 20 0 40 #
End-of-ACIS-data 