600 0 1 0           
81 GICL ACIS Healer - Source: /gicl/data5/repository/Heriot_Watt/ex45/ex45.sat - 6 0 18 ACIS 6.0.3 Solaris 24 Sat Apr 13 23:38:21 2002 
1 9.999999999999999547e-07 1.000000000000000036e-10 
body $-1 $1 $-1 $-1 #
lump $-1 $-1 $2 $0 #
shell $-1 $-1 $-1 $3 $-1 $1 #
face $-1 $4 $5 $2 $-1 $6 forward single #
face $-1 $7 $8 $2 $-1 $9 forward single #
loop $-1 $10 $11 $3 #
cone-surface $-1 0 20 0 0 -1 6.123232939436859187e-17 10 0 0 1 I I 0 1 10 forward I I I I #
face $-1 $12 $13 $2 $-1 $14 forward single #
loop $-1 $-1 $15 $4 #
plane-surface $-1 0 40 -1.224646587887371837e-15 0 1 -6.123232939436859187e-17 -1 0 0 forward_v I I I I #
loop $-1 $-1 $16 $3 #
coedge $-1 $11 $11 $15 $17 reversed $5 $-1 #
face $-1 $18 $19 $2 $-1 $20 forward single #
loop $-1 $21 $22 $7 #
cone-surface $-1 0 0 0 0 0 1 20 0 0 1 I I 0 1 20 forward I I I I #
coedge $-1 $15 $15 $11 $17 forward $8 $-1 #
coedge $-1 $16 $16 $22 $23 reversed $10 $-1 #
edge $-1 $24 0 $24 6.283185307179586232 $15 $25 forward 7 unknown #
face $-1 $-1 $26 $2 $-1 $27 forward single #
loop $-1 $-1 $28 $12 #
plane-surface $-1 0 0 -40 0 0 -1 -1 0 0 forward_v I I I I #
loop $-1 $29 $30 $7 #
coedge $-1 $22 $22 $16 $23 forward $13 $-1 #
edge $-1 $31 0 $31 61.50248833660318581 $22 $32 forward 7 unknown #
vertex $-1 $17 $33 #
ellipse-curve $-1 0 40 -1.224646587887371837e-15 0 1 -6.123232939436859187e-17 10 0 0 1 I I #
loop $-1 $-1 $34 $18 #
plane-surface $-1 0 0 40 0 0 1 1 0 0 forward_v I I I I #
coedge $-1 $28 $28 $30 $35 forward $19 $-1 #
loop $-1 $-1 $36 $7 #
coedge $-1 $30 $30 $28 $35 reversed $21 $-1 #
vertex $-1 $23 $37 #
intcurve-curve $-1 forward { surfintcur full nubs 3 periodic 33 
	0 3 1.924576004407365648 2 3.849152008814731296 2 5.773728013222097388 2 7.698304017629462592 2 
	9.617633534259795169 2 11.53696305089012952 2 13.45629256752046388 2 15.37562208415079645 2 17.29495160078113258 2 
	19.21428111741146694 2 21.13361063404180129 2 23.05294015067213564 2 24.97751615507950262 2 26.9020921594868696 2 
	28.82666816389423303 2 30.75124416830160001 2 32.6758201727089741 2 34.60039617711634463 2 36.52497218152372227 2 
	38.4495481859310928 2 40.36887770256143426 2 42.28820721919177572 2 44.20753673582211718 2 46.12686625245245864 2 
	48.0461957690828001 2 49.96552528571314156 2 51.88485480234348302 2 53.80418431897383158 2 55.72876032338116659 2 
	57.6533363277885087 2 59.57791233219585081 2 61.50248833660318581 3 
	10 17.3205080756887746 1.640715321189755155e-16 
	10 17.3205080756887746 0.641525334802455327 
	9.937297088530502975 17.35719440630716193 1.300193291272591978 
	9.67835064376796339 17.50290261080359855 2.601904098897716011 
	9.482213657916258143 17.61168080079871601 3.244995408244194302 
	8.968929284213594144 17.87853368333743731 4.472214199466874263 
	8.651373184562768159 18.03647607946638942 5.057532531070791926 
	7.921616871559908901 18.36868839756432692 6.137823675841923787 
	7.509313046587909213 18.54264580467904011 6.632822577143040021 
	6.634017254964051702 18.87347651728734377 7.508118368766897532 
	6.139610453103282239 19.04263364307882611 7.920251440975064838 
	5.059077009848717665 19.35774915588714506 8.650487803461849978 
	4.47291837457994923 19.50346622867272472 8.968647864107174073 
	3.243939961452351639 19.74510186522860167 9.482641993829910021 
	2.599948504763777368 19.84107298224017057 9.67888672411161366 
	1.297879333731396967 19.9685607530939464 9.937609857629276178 
	0.6397765055434446735 20 10 
	-0.6397765055434446735 20 10 
	-1.297879333731397855 19.9685607530939464 9.937609857629276178 
	-2.599948504763778256 19.84107298224017057 9.67888672411161366 
	-3.243939961452352083 19.74510186522860167 9.482641993829910021 
	-4.47291837457994923 19.50346622867272472 8.968647864107174073 
	-5.059077009848716777 19.35774915588714506 8.650487803461849978 
	-6.139610453103281351 19.04263364307882611 7.92025144097506395 
	-6.634017254964051702 18.87347651728734377 7.508118368766899309 
	-7.509313046587909213 18.54264580467904011 6.632822577143041798 
	-7.921616871559908901 18.36868839756432692 6.137823675841924675 
	-8.651373184562768159 18.03647607946638942 5.057532531070791926 
	-8.968929284213594144 17.87853368333743731 4.472214199466873374 
	-9.482213657916258143 17.61168080079871601 3.244995408244194302 
	-9.67835064376796339 17.50290261080359855 2.601904098897716455 
	-9.937297088530502975 17.35719440630716193 1.300193291272592866 
	-10 17.3205080756887746 0.6415253348024557711 
	-10 17.3205080756887746 -0.6415253348024579916 
	-9.937297088530504752 17.35719440630716193 -1.300193291272597751 
	-9.678350643767961614 17.50290261080359855 -2.601904098897725781 
	-9.482213657916258143 17.61168080079871956 -3.244995408244206736 
	-8.968929284213587039 17.87853368333744086 -4.472214199466891138 
	-8.651373184562755725 18.03647607946639297 -5.057532531070808801 
	-7.921616871559889361 18.36868839756433758 -6.137823675841945104 
	-7.509313046587887897 18.54264580467904366 -6.63282257714306489 
	-6.634017254964025057 18.87347651728735087 -7.508118368766922401 
	-6.139610453103250265 19.04263364307884032 -7.920251440975089707 
	-5.059077009848678586 19.35774915588715928 -8.650487803461874847 
	-4.472918374579904821 19.50346622867272828 -8.968647864107197165 
	-3.243939961452299681 19.74510186522860522 -9.482641993829929561 
	-2.599948504763721413 19.84107298224017413 -9.678886724111627871 
	-1.297879333731334572 19.96856075309394996 -9.937609857629283283 
	-0.6397765055433781711 20 -10.00000000000000355 
	0.6397765055435165049 20 -9.999999999999996447 
	1.297879333731471796 19.96856075309394285 -9.937609857629267296 
	2.599948504763854196 19.84107298224015992 -9.67888672411159412 
	3.243939961452428911 19.74510186522858746 -9.482641993829883376 
	4.472918374580025613 19.50346622867270341 -8.968647864107133216 
	5.059077009848794049 19.35774915588712375 -8.650487803461803793 
	6.139610453103356846 19.04263364307880479 -7.92025144097500533 
	6.634017254964126309 18.87347651728731535 -7.508118368766831807 
	7.509313046587970497 18.54264580467901169 -6.632822577142968967 
	7.921616871559956863 18.3686883975643056 -6.137823675841856286 
	8.651373184562800134 18.03647607946637166 -5.057532531070732418 
	8.968929284213619013 17.8785336833374231 -4.472214199466820084 
	9.482213657916275906 17.6116808007987089 -3.244995408244151225 
	9.678350643767974049 17.50290261080358789 -2.601904098897677819 
	9.937297088530506528 17.35719440630715837 -1.300193291272570884 
	10 17.3205080756887746 -0.641525334802445002 
	10 17.3205080756887746 1.640715321189755155e-16 
	0.001000000000000000021 
	cone 0 20 0 0 -1 6.123232939436859187e-17 10 0 0 1 I I 0 1 10 forward I I I I 
	cone 0 0 0 0 0 1 20 0 0 1 I I 0 1 20 forward I I I I 
	nullbs 
	nullbs 
	I I 
	0 
	0 
	0 
	} I I #
point $-1 10 40 -1.224646587887371837e-15 #
coedge $-1 $34 $34 $36 $38 forward $26 $-1 #
edge $-1 $39 0 $39 6.283185307179586232 $28 $40 forward 7 unknown #
coedge $-1 $36 $36 $34 $38 reversed $29 $-1 #
point $-1 10 17.3205080756887746 1.640715321189755155e-16 #
edge $-1 $41 0 $41 6.283185307179586232 $34 $42 forward 7 unknown #
vertex $-1 $35 $43 #
ellipse-curve $-1 0 0 -40 0 0 -1 20 0 0 1 I I #
vertex $-1 $38 $44 #
ellipse-curve $-1 0 0 40 0 0 1 20 0 0 1 I I #
point $-1 20 0 -40 #
point $-1 20 0 40 #
End-of-ACIS-data 