600 0 2 0           
24 FBMach with ACIS - 6.0.3 13 ACIS 6.0.3 NT 24 Wed May 23 20:17:56 2001 
1 9.9999999999999995e-007 1e-010 
body $2 $3 $-1 $4 #
bdycol-kcp $-1 1 1 $5 #
model_id-kcp-attrib $-1 $-1 $-1 $0 1 990663476 90 -1873149951 1 #
lump $-1 $-1 $6 $0 #
transform $-1 1 0 0 0 1 0 0 0 1 0 0 0 1 no_rotate no_reflect no_shear #
body $7 $8 $-1 $9 #
shell $-1 $-1 $-1 $10 $-1 $3 #
model_id-kcp-attrib $-1 $-1 $-1 $5 1 990663476 90 -1873149950 1 #
lump $-1 $-1 $11 $5 #
transform $-1 1 0 0 0 1 0 0 0 1 0 10 0 1 no_rotate no_reflect no_shear #
face $12 $13 $14 $6 $-1 $15 forward single #
shell $-1 $-1 $-1 $16 $-1 $8 #
model_id-kcp-attrib $-1 $-1 $-1 $10 1 990663476 90 -1873149951 2 #
face $17 $18 $19 $6 $-1 $20 forward single #
loop $-1 $21 $22 $10 #
cone-surface $-1 0 20 0 0 -1 6.1232329394368592e-017 10 0 0 1 I I 0 1 10 forward I I I I #
face $23 $24 $25 $11 $-1 $26 forward single #
model_id-kcp-attrib $-1 $-1 $-1 $13 1 990663476 90 -1873149951 3 #
face $27 $28 $29 $6 $-1 $30 forward single #
loop $-1 $-1 $31 $13 #
plane-surface $-1 0 40 -1.2246465878873718e-015 0 1 -6.1232329394368592e-017 -1 0 0 forward_v I I I I #
loop $-1 $-1 $32 $10 #
coedge $-1 $22 $22 $31 $33 reversed $14 $-1 #
model_id-kcp-attrib $-1 $-1 $-1 $16 1 990663476 90 -1873149950 4 #
face $34 $35 $36 $11 $-1 $37 reversed single #
loop $-1 $-1 $38 $16 #
plane-surface $-1 0 0 40 0 0 1 1 0 0 forward_v I I I I #
model_id-kcp-attrib $-1 $-1 $-1 $18 1 990663476 90 -1873149951 4 #
face $39 $40 $41 $6 $-1 $42 forward single #
loop $-1 $43 $44 $18 #
cone-surface $-1 0 0 0 0 0 1 20 0 0 1 I I 0 1 20 forward I I I I #
coedge $-1 $31 $31 $22 $33 forward $19 $-1 #
coedge $-1 $32 $32 $44 $45 reversed $21 $-1 #
edge $46 $47 0 $47 6.2831853071795862 $31 $48 forward 7 unknown #
model_id-kcp-attrib $-1 $-1 $-1 $24 1 990663476 90 -1873149950 3 #
face $-1 $49 $50 $11 $-1 $51 reversed single #
loop $-1 $-1 $52 $24 #
plane-surface $-1 0 0 -40 0 0 1 1 0 0 forward_v I I I I #
coedge $-1 $53 $54 $55 $56 forward $25 $-1 #
model_id-kcp-attrib $-1 $-1 $-1 $28 1 990663476 90 -1873149951 5 #
face $57 $-1 $58 $6 $-1 $59 forward single #
loop $-1 $-1 $60 $28 #
plane-surface $-1 0 0 -40 0 0 -1 -1 0 0 forward_v I I I I #
loop $-1 $61 $62 $18 #
coedge $-1 $44 $44 $32 $45 forward $29 $-1 #
edge $-1 $63 0 $63 61.502488336603186 $44 $64 forward 7 unknown #
attrib_edge_convexity-kcp-attrib $-1 $65 $-1 $33 1 #
vertex $-1 $33 $66 #
ellipse-curve $-1 0 40 -1.2246465878873718e-015 0 1 -6.1232329394368592e-017 10 0 0 1 I I #
face $-1 $67 $68 $11 $-1 $69 reversed single #
loop $-1 $-1 $70 $35 #
plane-surface $-1 0 -30 0 0 1 0 0 0 1 forward_v I I I I #
coedge $-1 $71 $72 $73 $74 forward $36 $-1 #
coedge $-1 $75 $38 $76 $77 forward $25 $-1 #
coedge $-1 $38 $75 $78 $79 forward $25 $-1 #
coedge $-1 $80 $81 $38 $56 reversed $82 $-1 #
edge $-1 $83 -30 $84 30 $55 $85 forward 7 unknown #
model_id-kcp-attrib $-1 $-1 $-1 $40 1 990663476 90 -1873149951 6 #
loop $-1 $-1 $86 $40 #
plane-surface $-1 0 0 40 0 0 1 1 0 0 forward_v I I I I #
coedge $-1 $60 $60 $62 $87 forward $41 $-1 #
loop $-1 $-1 $88 $18 #
coedge $-1 $62 $62 $60 $87 reversed $43 $-1 #
vertex $-1 $45 $89 #
intcurve-curve $-1 forward { surfintcur full nubs 3 periodic 33 
	0 3 1.9245760044073656 2 3.8491520088147313 2 5.7737280132220974 2 7.6983040176294626 2 
	9.6176335342597952 2 11.53696305089013 2 13.456292567520464 2 15.375622084150796 2 17.294951600781133 2 
	19.214281117411467 2 21.133610634041801 2 23.052940150672136 2 24.977516155079503 2 26.90209215948687 2 
	28.826668163894233 2 30.7512441683016 2 32.675820172708974 2 34.600396177116345 2 36.524972181523722 2 
	38.449548185931093 2 40.368877702561434 2 42.288207219191776 2 44.207536735822117 2 46.126866252452459 2 
	48.0461957690828 2 49.965525285713142 2 51.884854802343483 2 53.804184318973832 2 55.728760323381167 2 
	57.653336327788509 2 59.577912332195851 2 61.502488336603186 3 
	10 17.320508075688775 1.6407153211897552e-016 
	10 17.320508075688775 0.64152533480245533 
	9.937297088530503 17.357194406307162 1.300193291272592 
	9.6783506437679634 17.502902610803599 2.601904098897716 
	9.4822136579162581 17.611680800798716 3.2449954082441943 
	8.9689292842135941 17.878533683337437 4.4722141994668743 
	8.6513731845627682 18.036476079466389 5.0575325310707919 
	7.9216168715599089 18.368688397564327 6.1378236758419238 
	7.5093130465879092 18.54264580467904 6.63282257714304 
	6.6340172549640517 18.873476517287344 7.5081183687668975 
	6.1396104531032822 19.042633643078826 7.9202514409750648 
	5.0590770098487177 19.357749155887145 8.65048780346185 
	4.4729183745799492 19.503466228672725 8.9686478641071741 
	3.2439399614523516 19.745101865228602 9.48264199382991 
	2.5999485047637774 19.841072982240171 9.6788867241116137 
	1.297879333731397 19.968560753093946 9.9376098576292762 
	0.63977650554344467 20 10 
	-0.63977650554344467 20 10 
	-1.2978793337313979 19.968560753093946 9.9376098576292762 
	-2.5999485047637783 19.841072982240171 9.6788867241116137 
	-3.2439399614523521 19.745101865228602 9.48264199382991 
	-4.4729183745799492 19.503466228672725 8.9686478641071741 
	-5.0590770098487168 19.357749155887145 8.65048780346185 
	-6.1396104531032814 19.042633643078826 7.920251440975064 
	-6.6340172549640517 18.873476517287344 7.5081183687668993 
	-7.5093130465879092 18.54264580467904 6.6328225771430418 
	-7.9216168715599089 18.368688397564327 6.1378236758419247 
	-8.6513731845627682 18.036476079466389 5.0575325310707919 
	-8.9689292842135941 17.878533683337437 4.4722141994668734 
	-9.4822136579162581 17.611680800798716 3.2449954082441943 
	-9.6783506437679634 17.502902610803599 2.6019040988977165 
	-9.937297088530503 17.357194406307162 1.3001932912725929 
	-10 17.320508075688775 0.64152533480245577 
	-10 17.320508075688775 -0.64152533480245799 
	-9.9372970885305048 17.357194406307162 -1.3001932912725978 
	-9.6783506437679616 17.502902610803599 -2.6019040988977258 
	-9.4822136579162581 17.61168080079872 -3.2449954082442067 
	-8.968929284213587 17.878533683337441 -4.4722141994668911 
	-8.6513731845627557 18.036476079466393 -5.0575325310708088 
	-7.9216168715598894 18.368688397564338 -6.1378236758419451 
	-7.5093130465878879 18.542645804679044 -6.6328225771430649 
	-6.6340172549640251 18.873476517287351 -7.5081183687669224 
	-6.1396104531032503 19.04263364307884 -7.9202514409750897 
	-5.0590770098486786 19.357749155887159 -8.6504878034618748 
	-4.4729183745799048 19.503466228672728 -8.9686478641071972 
	-3.2439399614522997 19.745101865228605 -9.4826419938299296 
	-2.5999485047637214 19.841072982240174 -9.6788867241116279 
	-1.2978793337313346 19.96856075309395 -9.9376098576292833 
	-0.63977650554337817 20 -10.000000000000004 
	0.6397765055435165 20 -9.9999999999999964 
	1.2978793337314718 19.968560753093943 -9.9376098576292673 
	2.5999485047638542 19.84107298224016 -9.6788867241115941 
	3.2439399614524289 19.745101865228587 -9.4826419938298834 
	4.4729183745800256 19.503466228672703 -8.9686478641071332 
	5.059077009848794 19.357749155887124 -8.6504878034618038 
	6.1396104531033568 19.042633643078805 -7.9202514409750053 
	6.6340172549641263 18.873476517287315 -7.5081183687668318 
	7.5093130465879705 18.542645804679012 -6.632822577142969 
	7.9216168715599569 18.368688397564306 -6.1378236758418563 
	8.6513731845628001 18.036476079466372 -5.0575325310707324 
	8.968929284213619 17.878533683337423 -4.4722141994668201 
	9.4822136579162759 17.611680800798709 -3.2449954082441512 
	9.678350643767974 17.502902610803588 -2.6019040988976778 
	9.9372970885305065 17.357194406307158 -1.3001932912725709 
	10 17.320508075688775 -0.641525334802445 
	10 17.320508075688775 1.6407153211897552e-016 
	0.001 
	cone 0 20 0 0 -1 6.1232329394368592e-017 10 0 0 1 I I 0 1 10 forward I I I I 
	cone 0 0 0 0 0 1 20 0 0 1 I I 0 1 20 forward I I I I 
	nullbs 
	nullbs 
	I I 
	0 
	0 
	0 
	} I I #
convexity-sys-attrib $-1 $-1 $46 $33 #
point $-1 10 40 -1.2246465878873718e-015 #
face $90 $91 $92 $11 $-1 $93 reversed single #
loop $-1 $-1 $94 $49 #
plane-surface $-1 -20 0 0 1 0 0 0 0 -1 forward_v I I I I #
coedge $-1 $95 $78 $96 $97 forward $50 $-1 #
coedge $-1 $98 $52 $95 $99 forward $36 $-1 #
coedge $-1 $52 $98 $100 $101 forward $36 $-1 #
coedge $-1 $81 $80 $52 $74 reversed $82 $-1 #
edge $-1 $102 -30 $103 30 $73 $104 forward 7 unknown #
coedge $-1 $54 $53 $105 $106 forward $25 $-1 #
coedge $-1 $107 $108 $53 $77 reversed $92 $-1 #
edge $-1 $84 -20 $109 20 $76 $110 forward 7 unknown #
coedge $-1 $70 $111 $54 $79 reversed $50 $-1 #
edge $-1 $112 -20 $83 20 $78 $113 forward 7 unknown #
coedge $-1 $73 $55 $111 $114 forward $82 $-1 #
coedge $-1 $55 $73 $107 $115 reversed $82 $-1 #
loop $-1 $-1 $80 $91 #
vertex $-1 $56 $116 #
vertex $-1 $56 $117 #
straight-curve $-1 20 0 40 0 1 0 I I #
coedge $-1 $86 $86 $88 $118 forward $58 $-1 #
edge $119 $120 0 $120 6.2831853071795862 $60 $121 forward 7 unknown #
coedge $-1 $88 $88 $86 $118 reversed $61 $-1 #
point $-1 10 17.320508075688775 1.6407153211897552e-016 #
model_id-kcp-attrib $-1 $-1 $-1 $67 1 990663476 90 -1873149950 2 #
face $-1 $-1 $82 $11 $-1 $122 reversed single #
loop $-1 $-1 $107 $67 #
plane-surface $-1 0 30 0 0 -1 0 0 0 -1 forward_v I I I I #
coedge $-1 $123 $105 $108 $124 forward $68 $-1 #
coedge $-1 $111 $70 $71 $99 reversed $50 $-1 #
coedge $-1 $105 $123 $70 $97 reversed $68 $-1 #
edge $-1 $112 -40 $125 40 $96 $126 forward 7 unknown #
coedge $-1 $72 $71 $123 $127 forward $36 $-1 #
edge $-1 $103 -20 $125 20 $95 $128 forward 7 unknown #
coedge $-1 $108 $107 $72 $101 reversed $92 $-1 #
edge $-1 $129 -20 $102 20 $100 $130 forward 7 unknown #
vertex $-1 $74 $131 #
vertex $-1 $114 $132 #
straight-curve $-1 20 0 -40 0 -1 0 I I #
coedge $-1 $94 $96 $75 $106 reversed $68 $-1 #
edge $-1 $109 -30 $112 30 $105 $133 forward 7 unknown #
coedge $-1 $100 $76 $81 $115 forward $92 $-1 #
coedge $-1 $76 $100 $94 $124 reversed $92 $-1 #
vertex $-1 $77 $134 #
straight-curve $-1 0 30 40 -1 0 0 I I #
coedge $-1 $78 $95 $80 $114 reversed $50 $-1 #
vertex $-1 $106 $135 #
straight-curve $-1 0 -30 40 1 0 0 I I #
edge $-1 $83 -40 $103 40 $80 $136 forward 7 unknown #
edge $-1 $84 -40 $102 40 $81 $137 forward 7 unknown #
point $-1 20 -30 40 #
point $-1 20 30 40 #
edge $-1 $138 0 $138 6.2831853071795862 $86 $139 forward 7 unknown #
attrib_edge_convexity-kcp-attrib $-1 $140 $-1 $87 1 #
vertex $-1 $87 $141 #
ellipse-curve $-1 0 0 -40 0 0 -1 20 0 0 1 I I #
plane-surface $-1 20 0 0 -1 0 0 0 0 1 forward_v I I I I #
coedge $-1 $96 $94 $98 $127 reversed $68 $-1 #
edge $-1 $109 -40 $129 40 $108 $142 forward 7 unknown #
vertex $-1 $127 $143 #
straight-curve $-1 -20 -30 0 0 0 -1 I I #
edge $-1 $125 -30 $129 30 $123 $144 forward 7 unknown #
straight-curve $-1 0 -30 -40 -1 0 0 I I #
vertex $-1 $101 $145 #
straight-curve $-1 0 30 -40 1 0 0 I I #
point $-1 20 30 -40 #
point $-1 20 -30 -40 #
straight-curve $-1 -20 0 40 0 -1 0 I I #
point $-1 -20 30 40 #
point $-1 -20 -30 40 #
straight-curve $-1 20 -30 0 0 0 -1 I I #
straight-curve $-1 20 30 0 0 0 -1 I I #
vertex $-1 $118 $146 #
ellipse-curve $-1 0 0 40 0 0 1 20 0 0 1 I I #
convexity-sys-attrib $-1 $-1 $119 $87 #
point $-1 20 0 -40 #
straight-curve $-1 -20 30 0 0 0 -1 I I #
point $-1 -20 -30 -40 #
straight-curve $-1 -20 0 -40 0 1 0 I I #
point $-1 -20 30 -40 #
point $-1 20 0 40 #
End-of-ACIS-data 