600 0 1 0           
93 GICL ACIS Healer - Source: /gicl/data5/repository/new/Models/VDS_IronCAD/gland_bush.sat - 6 0 18 ACIS 6.0.3 Solaris 24 Sat Apr 13 20:27:24 2002 
1 9.999999999999999547e-07 1.000000000000000036e-10 
body $-1 $1 $-1 $-1 #
lump $-1 $-1 $2 $0 #
shell $-1 $-1 $-1 $3 $-1 $1 #
face $-1 $4 $5 $2 $-1 $6 forward single #
face $-1 $7 $8 $2 $-1 $9 forward single #
loop $-1 $10 $11 $3 #
cone-surface $-1 -406.1592617130051508 275.0195987115319554 166.211960110351356 1.73185491414387059e-16 1 -3.828588921589437533e-16 -70 1.212298439900710695e-14 8.628166150854816622e-31 1 I I 0 1 7.000000000000000888 forward I I I I #
face $-1 $12 $13 $2 $-1 $14 forward single #
loop $-1 $15 $16 $4 #
cone-surface $-1 -406.1592617130051508 277.5140452120668328 166.211960110351356 1.73185491414387059e-16 1 -3.828588921589437533e-16 -57.00000000000002842 9.871573010620078435e-15 7.025792437124639895e-31 1 I I -0.8660254037844387076 -0.5 5.700000000000001954 forward I I I I #
loop $-1 $-1 $17 $3 #
coedge $-1 $11 $11 $18 $19 reversed $5 $-1 #
face $-1 $20 $21 $2 $-1 $22 forward single #
loop $-1 $23 $24 $7 #
cone-surface $-1 -406.1592617130051508 230.0140452120668044 166.2119601103513844 1.73185491414387059e-16 1 -3.828588921589437533e-16 -44.00000000000002132 7.620161622233043611e-15 5.42341872339445879e-31 1 I I 0 -1 4.400000000000002132 forward I I I I #
loop $-1 $-1 $18 $4 #
coedge $-1 $16 $16 $25 $26 reversed $8 $-1 #
coedge $-1 $17 $17 $27 $28 forward $10 $-1 #
coedge $-1 $18 $18 $11 $19 forward $15 $-1 #
edge $-1 $29 -7.863155702499287198e-32 $29 6.283185307179586232 $18 $30 forward 7 unknown #
face $-1 $31 $32 $2 $-1 $33 forward single #
loop $-1 $34 $35 $12 #
plane-surface $-1 -455.1592617130052076 190.0195987115319554 166.2119601103514128 -1.73185491414387059e-16 -1 3.828588921589437533e-16 10 -1.731854914143872562e-15 -1.232595164407830946e-31 forward_v I I I I #
loop $-1 $-1 $25 $7 #
coedge $-1 $24 $24 $36 $37 reversed $13 $-1 #
coedge $-1 $25 $25 $16 $26 forward $23 $-1 #
edge $-1 $38 4.159822696017290749e-31 $38 6.283185307179586232 $25 $39 forward 7 unknown #
coedge $-1 $27 $27 $17 $28 reversed $40 $-1 #
edge $-1 $41 -7.863155702499287198e-32 $41 6.283185307179586232 $17 $42 forward 7 unknown #
vertex $-1 $19 $43 #
ellipse-curve $-1 -406.1592617130051508 285.0195987115319554 166.211960110351356 1.73185491414387059e-16 1 -3.828588921589437533e-16 -70 1.212298439900710695e-14 8.628166150854816622e-31 1 I I #
face $-1 $-1 $40 $2 $-1 $44 forward single #
loop $-1 $45 $46 $20 #
cone-surface $-1 -406.1592617130051508 227.5195987115319554 166.2119601103513844 1.73185491414387059e-16 1 -3.828588921589437533e-16 -54.00000000000002132 9.352016536376915582e-15 6.656013887802289736e-31 1 I I 0 1 5.400000000000002132 forward I I I I #
loop $-1 $-1 $36 $12 #
coedge $-1 $35 $35 $47 $48 reversed $21 $-1 #
coedge $-1 $36 $36 $24 $37 forward $34 $-1 #
edge $-1 $49 6.459479416000901099e-16 $49 6.28318530717958712 $36 $50 forward 7 unknown #
vertex $-1 $26 $51 #
ellipse-curve $-1 -406.1592617130051508 270.0084917126016535 166.211960110351356 1.73185491414387059e-16 1 -3.828588921589437533e-16 -44.00000000000002132 7.620161622233043611e-15 5.42341872339445879e-31 1 I I #
loop $-1 $52 $27 $31 #
vertex $-1 $28 $53 #
ellipse-curve $-1 -406.1592617130051508 265.0195987115319554 166.211960110351356 1.73185491414387059e-16 1 -3.828588921589437533e-16 -70 1.212298439900710695e-14 8.628166150854816622e-31 1 I I #
point $-1 -476.1592617130051508 285.0195987115319554 166.211960110351356 #
plane-surface $-1 -468.1592617130051508 265.0195987115319554 166.211960110351356 -1.73185491414387059e-16 -1 3.828588921589437533e-16 10 -1.731854914143872562e-15 -1.232595164407830946e-31 forward_v I I I I #
loop $-1 $-1 $47 $20 #
coedge $-1 $46 $46 $54 $55 reversed $32 $-1 #
coedge $-1 $47 $47 $35 $48 forward $45 $-1 #
edge $-1 $56 5.263279524148884057e-16 $56 6.28318530717958712 $47 $57 forward 7 unknown #
vertex $-1 $37 $58 #
ellipse-curve $-1 -406.1592617130051508 190.0195987115319554 166.2119601103513844 1.73185491414387059e-16 1 -3.828588921589437533e-16 -44.00000000000002132 7.620161622233043611e-15 5.42341872339445879e-31 1 I I #
point $-1 -450.1592617130051508 270.0084917126017103 166.211960110351356 #
loop $-1 $-1 $54 $31 #
point $-1 -476.1592617130051508 265.0195987115319554 166.211960110351356 #
coedge $-1 $54 $54 $46 $55 forward $52 $-1 #
edge $-1 $59 -7.863155702499287198e-32 $59 6.283185307179586232 $54 $60 forward 7 unknown #
vertex $-1 $48 $61 #
ellipse-curve $-1 -406.1592617130051508 190.0195987115319554 166.2119601103513844 1.73185491414387059e-16 1 -3.828588921589437533e-16 -54.00000000000002132 9.352016536376915582e-15 6.656013887802289736e-31 1 I I #
point $-1 -450.1592617130052076 190.0195987115319554 166.2119601103514128 #
vertex $-1 $55 $62 #
ellipse-curve $-1 -406.1592617130051508 265.0195987115319554 166.211960110351356 1.73185491414387059e-16 1 -3.828588921589437533e-16 -54.00000000000002132 9.352016536376915582e-15 6.656013887802289736e-31 1 I I #
point $-1 -460.1592617130052076 190.0195987115319554 166.2119601103514128 #
point $-1 -460.1592617130051508 265.0195987115319554 166.211960110351356 #
End-of-ACIS-data 