400 0 1 0           
7 Unknown 13 ACIS 4.0.1 NT 24 Wed Aug 26 17:15:26 1998 
1 9.9999999999999995e-007 1e-010 
body $-1 $1 $-1 $2 #
lump $-1 $-1 $3 $0 #
transform $-1 4.9960036108132044e-016 -2.2759572004815709e-015 1 1 -1.5543122344752194e-015 -4.4408920985006262e-016 1.6098233857064768e-015 1 2.2759572004815709e-015 -406.15926171300509 215.01959871153207 166.2119601103513 10 rotate no_reflect no_shear #
shell $-1 $-1 $-1 $4 $-1 $1 #
face $-1 $5 $6 $3 $-1 $7 forward single #
face $-1 $8 $9 $3 $-1 $10 forward single #
loop $-1 $11 $12 $4 #
cone-surface $-1 -2.6645352591003757e-015 8.8817841970012523e-016 1.1999999999999889 0 -1.2246063538223773e-016 -1 7.0000000000000036 0 0 1 I I 0 1 0.70000000000000029 forward I I I I #
face $-1 $13 $14 $3 $-1 $15 forward single #
loop $-1 $16 $17 $5 #
plane-surface $-1 7 0 -2.5000000000000115 0 -1.2246063538223773e-016 -1 1 0 0 forward_v I I I I #
loop $-1 $-1 $18 $4 #
coedge $-1 $12 $12 $17 $19 forward $6 $-1 #
face $-1 $20 $21 $3 $-1 $22 forward single #
loop $-1 $23 $24 $8 #
cone-surface $-1 11.25 0 1.1999999999999997 0 0 1 -0.79999999999999982 0 0 1 I I 0 -1 0.079999999999999988 forward I I I I #
loop $-1 $-1 $25 $5 #
coedge $-1 $17 $17 $12 $19 reversed $9 $-1 #
coedge $-1 $18 $18 $26 $27 reversed $11 $-1 #
edge $-1 $28 $28 $12 $29 forward #
face $-1 $30 $31 $3 $-1 $32 forward single #
loop $-1 $33 $34 $13 #
cone-surface $-1 -11.25 0 1.1999999999999997 0 0 1 -0.80000000000000004 0 0 1 I I 0 -1 0.080000000000000016 forward I I I I #
loop $-1 $-1 $35 $8 #
coedge $-1 $24 $24 $36 $37 forward $14 $-1 #
coedge $-1 $25 $25 $38 $39 reversed $16 $-1 #
coedge $-1 $26 $26 $18 $27 forward $40 $-1 #
edge $-1 $41 $41 $26 $42 forward #
vertex $-1 $19 $43 #
ellipse-curve $-1 -2.6645352591003757e-015 0 -2.5000000000000115 0 1.2246063538223773e-016 1 7.0000000000000036 0 0 1 I I #
face $-1 $44 $45 $3 $-1 $46 forward single #
loop $-1 $47 $38 $20 #
cone-surface $-1 0 0 1.1999999999999997 0 0 1 -5.4000000000000004 0 0 1 I I 0 -1 0.54000000000000004 forward I I I I #
loop $-1 $-1 $48 $13 #
coedge $-1 $34 $34 $49 $50 forward $21 $-1 #
coedge $-1 $35 $35 $51 $52 forward $23 $-1 #
coedge $-1 $36 $36 $24 $37 reversed $53 $-1 #
edge $-1 $54 $54 $24 $55 forward #
coedge $-1 $38 $38 $25 $39 forward $31 $-1 #
edge $-1 $56 $56 $38 $57 forward #
loop $-1 $58 $26 $59 #
vertex $-1 $27 $60 #
ellipse-curve $-1 -2.6645352591003757e-015 8.8817841970012661e-016 1.1999999999999997 0 0 1 7.0000000000000036 0 0 1 I I #
point $-1 7 0 -2.5000000000000115 #
face $-1 $61 $62 $3 $-1 $63 forward single #
loop $-1 $-1 $64 $30 #
cone-surface $-1 -11.250000059199984 3.5527136788005009e-015 1.1999999999999997 0 0 1 1.5999999571128971 0 0 1 I I 0 1 0.15999999571128973 forward I I I I #
loop $-1 $-1 $65 $20 #
coedge $-1 $48 $48 $66 $67 forward $33 $-1 #
coedge $-1 $49 $49 $34 $50 reversed $68 $-1 #
edge $-1 $69 $69 $34 $70 forward #
coedge $-1 $51 $51 $35 $52 reversed $71 $-1 #
edge $-1 $72 $72 $35 $73 forward #
loop $-1 $-1 $36 $74 #
vertex $-1 $37 $75 #
ellipse-curve $-1 11.25 0 5 0 0 1 -0.79999999999999982 0 0 1 I I #
vertex $-1 $39 $76 #
ellipse-curve $-1 -2.6645352591003757e-015 0 -2.5000000000000115 0 -1.2246063538223773e-016 -1 -5.3999999999999995 0 0 1 I I #
loop $-1 $77 $78 $59 #
face $-1 $74 $40 $3 $-1 $79 reversed single #
point $-1 7 8.8817841970012523e-016 1.1999999999999889 #
face $-1 $80 $81 $3 $-1 $82 forward single #
loop $-1 $-1 $83 $44 #
plane-surface $-1 -12.409111111111109 1.1029331040905248 1.1999999999999997 -0.72444444444444456 0.68933319005657934 0 0 0 1 forward_v I I I I #
coedge $-1 $84 $85 $86 $87 forward $45 $-1 #
coedge $-1 $65 $65 $88 $89 forward $47 $-1 #
coedge $-1 $66 $66 $48 $67 reversed $77 $-1 #
edge $-1 $90 $90 $48 $91 forward #
loop $-1 $53 $49 $74 #
vertex $-1 $50 $92 #
ellipse-curve $-1 -11.25 0 5 0 0 1 -0.80000000000000004 0 0 1 I I #
loop $-1 $-1 $51 $59 #
vertex $-1 $52 $93 #
ellipse-curve $-1 11.25 0 1.1999999999999997 0 0 -1 -0.79999999999999982 0 0 1 I I #
face $-1 $-1 $94 $3 $-1 $95 reversed single #
point $-1 12.049999999999999 0 5 #
point $-1 5.3999999999999986 8.8817841970012523e-016 -2.5000000000000115 #
loop $-1 $71 $66 $59 #
coedge $-1 $96 $97 $98 $99 reversed $58 $-1 #
plane-surface $-1 -1.5130561692444644e-008 -8.2248092780901061e-009 1.1999999999999997 0 0 1 1 0 0 forward_v I I I I #
face $-1 $100 $101 $3 $-1 $102 forward single #
loop $-1 $-1 $103 $61 #
cone-surface $-1 1.7763568394002505e-015 1.4210854715202004e-014 1.1999999999999997 0 0 1 9.7499999999999929 0 0 1 I I 0 1 0.9749999999999992 forward I I I I #
coedge $-1 $104 $105 $106 $107 forward $62 $-1 #
coedge $-1 $108 $64 $105 $109 reversed $45 $-1 #
coedge $-1 $64 $108 $110 $111 forward $45 $-1 #
coedge $-1 $112 $106 $64 $87 reversed $94 $-1 #
edge $-1 $113 $114 $64 $115 forward #
coedge $-1 $88 $88 $65 $89 reversed $116 $-1 #
edge $-1 $117 $117 $65 $118 forward #
vertex $-1 $67 $119 #
ellipse-curve $-1 -11.25 0 1.1999999999999997 0 0 -1 -0.80000000000000004 0 0 1 I I #
point $-1 -10.450000000000003 0 5 #
point $-1 12.049999999999999 0 1.1999999999999997 #
loop $-1 $116 $86 $74 #
plane-surface $-1 -12.409111111111109 -1.1029331040905213 5 0 0 -1 -1 0 0 forward_v I I I I #
coedge $-1 $120 $78 $108 $121 reversed $58 $-1 #
coedge $-1 $78 $122 $123 $124 reversed $58 $-1 #
coedge $-1 $125 $110 $78 $99 forward $126 $-1 #
edge $-1 $127 $128 $98 $129 forward #
face $-1 $130 $131 $3 $-1 $132 forward single #
loop $-1 $-1 $133 $80 #
plane-surface $-1 7.0633333333333388 6.7209986030516475 1.1999999999999997 0.724444444444445 0.68933319005657889 0 0 0 -1 forward_v I I I I #
coedge $-1 $134 $135 $136 $137 forward $81 $-1 #
coedge $-1 $138 $83 $135 $139 reversed $62 $-1 #
coedge $-1 $83 $138 $84 $109 forward $62 $-1 #
coedge $-1 $86 $136 $83 $107 reversed $94 $-1 #
edge $-1 $114 $140 $83 $141 forward #
coedge $-1 $85 $84 $96 $121 forward $45 $-1 #
edge $-1 $142 $114 $105 $143 forward #
coedge $-1 $98 $144 $85 $111 reversed $126 $-1 #
edge $-1 $127 $113 $85 $145 forward #
coedge $-1 $146 $86 $144 $147 reversed $94 $-1 #
vertex $-1 $111 $148 #
vertex $-1 $109 $149 #
ellipse-curve $-1 -11.250000059199984 3.5527136788005009e-015 5 0 0 -1 1.5999999571128971 0 0 1 F -3.9021608851086391 F -2.3810244220709613 #
loop $-1 $68 $88 $74 #
vertex $-1 $89 $150 #
ellipse-curve $-1 0 0 5 0 0 1 -5.4000000000000004 0 0 1 I I #
point $-1 -10.450000000000003 0 1.1999999999999997 #
coedge $-1 $151 $96 $138 $152 reversed $58 $-1 #
edge $-1 $142 $127 $108 $153 forward #
coedge $-1 $97 $154 $155 $156 reversed $58 $-1 #
coedge $-1 $157 $158 $97 $124 forward $159 $-1 #
edge $-1 $128 $160 $123 $161 forward #
coedge $-1 $144 $98 $158 $162 forward $126 $-1 #
loop $-1 $-1 $144 $163 #
vertex $-1 $99 $164 #
vertex $-1 $99 $165 #
straight-curve $-1 -12.409111111111109 -1.1029331040905213 1.1999999999999997 0.68933319005657889 -0.72444444444444511 0 I I #
face $-1 $166 $167 $3 $-1 $168 forward single #
loop $-1 $-1 $169 $100 #
cone-surface $-1 11.249999935149667 0 1.1999999999999997 0 0 1 1.6000000469804601 0 0 1 I I 0 1 0.16000000469804601 forward I I I I #
coedge $-1 $170 $171 $172 $173 forward $101 $-1 #
coedge $-1 $174 $103 $171 $175 reversed $81 $-1 #
coedge $-1 $103 $174 $104 $139 forward $81 $-1 #
coedge $-1 $106 $172 $103 $137 reversed $94 $-1 #
edge $-1 $140 $176 $103 $177 forward #
coedge $-1 $105 $104 $120 $152 forward $62 $-1 #
edge $-1 $178 $140 $135 $179 forward #
vertex $-1 $139 $180 #
straight-curve $-1 -7.0633333333333299 6.7209986030516546 5 0.68933319005657934 0.72444444444444456 0 I I #
vertex $-1 $152 $181 #
straight-curve $-1 -12.409111111111109 1.1029331040905248 1.1999999999999997 0 0 1 I I #
coedge $-1 $110 $125 $112 $147 forward $126 $-1 #
straight-curve $-1 -12.409111111111109 -1.1029331040905213 1.1999999999999997 0 0 1 I I #
coedge $-1 $182 $112 $183 $184 reversed $94 $-1 #
edge $-1 $185 $113 $144 $186 forward #
point $-1 -12.409111111111109 -1.1029331040905213 5 #
point $-1 -12.409111111111109 1.1029331040905248 5 #
point $-1 5.3999999999999986 0 5 #
coedge $-1 $187 $120 $174 $188 reversed $58 $-1 #
edge $-1 $178 $142 $138 $189 forward #
ellipse-curve $-1 -11.250000059199984 3.5527136788005009e-015 1.1999999999999997 0 0 1 1.5999999571128971 0 0 1 F 2.3810244220709613 F 3.9021608851086391 #
coedge $-1 $122 $187 $190 $191 reversed $58 $-1 #
coedge $-1 $192 $193 $122 $156 forward $167 $-1 #
edge $-1 $160 $194 $155 $195 forward #
coedge $-1 $183 $123 $193 $196 forward $159 $-1 #
coedge $-1 $123 $183 $125 $162 reversed $159 $-1 #
loop $-1 $-1 $183 $166 #
vertex $-1 $124 $197 #
ellipse-curve $-1 5.3290705182007514e-015 5.3290705182007514e-015 1.1999999999999997 0 0 1 9.7500000000000089 0 0 1 F -2.3810244475762827 F -0.76056823046669841 #
edge $-1 $128 $185 $125 $198 forward #
face $-1 $59 $126 $3 $-1 $199 forward single #
point $-1 -12.409111111111109 -1.1029331040905213 1.1999999999999997 #
point $-1 -7.0633333333333397 -6.7209986030516449 1.1999999999999997 #
face $-1 $163 $159 $3 $-1 $200 forward single #
loop $-1 $-1 $201 $130 #
plane-surface $-1 12.409111111111109 -1.1029331040905213 1.1999999999999997 0.72444444444444545 -0.68933319005657834 0 0 0 -1 forward_v I I I I #
coedge $-1 $202 $203 $204 $205 forward $131 $-1 #
coedge $-1 $206 $133 $203 $207 reversed $101 $-1 #
coedge $-1 $133 $206 $134 $175 forward $101 $-1 #
coedge $-1 $136 $204 $133 $173 reversed $94 $-1 #
edge $-1 $176 $208 $133 $209 forward #
coedge $-1 $135 $134 $151 $188 forward $81 $-1 #
edge $-1 $210 $176 $171 $211 forward #
vertex $-1 $175 $212 #
ellipse-curve $-1 1.7763568394002505e-015 1.4210854715202004e-014 5 0 0 -1 9.7499999999999929 0 0 1 F -2.3810244475762827 F -0.7605682060135095 #
vertex $-1 $188 $213 #
straight-curve $-1 -7.0633333333333299 6.7209986030516546 1.1999999999999997 0 0 1 I I #
point $-1 -7.0633333333333299 6.7209986030516546 5 #
point $-1 -12.409111111111109 1.1029331040905248 1.1999999999999997 #
coedge $-1 $204 $146 $201 $214 reversed $94 $-1 #
coedge $-1 $158 $157 $146 $184 forward $159 $-1 #
edge $-1 $215 $185 $183 $216 forward #
vertex $-1 $162 $217 #
straight-curve $-1 -12.409111111111109 -1.1029331040905213 5 -0.68933319005657889 0.72444444444444511 0 I I #
coedge $-1 $154 $151 $206 $218 reversed $58 $-1 #
edge $-1 $210 $178 $174 $219 forward #
straight-curve $-1 -7.0633333333333299 6.7209986030516546 1.1999999999999997 -0.68933319005657934 -0.72444444444444456 0 I I #
coedge $-1 $203 $202 $154 $191 forward $131 $-1 #
edge $-1 $194 $220 $190 $221 forward #
coedge $-1 $201 $155 $202 $222 forward $167 $-1 #
coedge $-1 $155 $201 $157 $196 reversed $167 $-1 #
vertex $-1 $156 $223 #
straight-curve $-1 7.0633331689835037 -6.7209987757726628 1.1999999999999997 0.68933319005657845 0.72444444444444545 0 I I #
edge $-1 $160 $215 $157 $224 forward #
point $-1 7.0633331689835037 -6.7209987757726628 1.1999999999999997 #
straight-curve $-1 -7.0633333333333397 -6.7209986030516449 1.1999999999999997 0 0 1 I I #
plane-surface $-1 -7.0633333333333397 -6.7209986030516449 1.1999999999999997 -0.72444444444444511 -0.68933319005657878 0 0 0 1 forward_v I I I I #
cone-surface $-1 5.3290705182007514e-015 5.3290705182007514e-015 1.1999999999999997 0 0 1 9.7500000000000089 0 0 1 I I 0 1 0.97500000000000098 forward I I I I #
coedge $-1 $193 $192 $182 $214 forward $167 $-1 #
coedge $-1 $190 $169 $192 $222 reversed $131 $-1 #
coedge $-1 $169 $190 $170 $207 forward $131 $-1 #
coedge $-1 $172 $182 $169 $205 reversed $94 $-1 #
edge $-1 $208 $225 $169 $226 forward #
coedge $-1 $171 $170 $187 $218 forward $101 $-1 #
edge $-1 $220 $208 $203 $227 forward #
vertex $-1 $207 $228 #
straight-curve $-1 12.409111111111109 1.1029331040905248 5 0.68933319005657889 -0.724444444444445 0 I I #
vertex $-1 $218 $229 #
straight-curve $-1 7.0633333333333388 6.7209986030516475 1.1999999999999997 0 0 1 I I #
point $-1 7.0633333333333388 6.7209986030516475 5 #
point $-1 -7.0633333333333299 6.7209986030516546 1.1999999999999997 #
edge $-1 $225 $215 $201 $230 forward #
vertex $-1 $196 $231 #
ellipse-curve $-1 5.3290705182007514e-015 5.3290705182007514e-015 5 0 0 -1 9.7500000000000089 0 0 1 F 0.76056823046669841 F 2.3810244475762827 #
point $-1 -7.0633333333333397 -6.7209986030516449 5 #
edge $-1 $220 $210 $206 $232 forward #
ellipse-curve $-1 1.7763568394002505e-015 1.4210854715202004e-014 1.1999999999999997 0 0 1 9.7499999999999929 0 0 1 F 0.7605682060135095 F 2.3810244475762827 #
vertex $-1 $191 $233 #
ellipse-curve $-1 11.249999935149667 0 1.1999999999999997 0 0 1 1.6000000469804601 0 0 1 F -0.76056817807383159 F 0.76056817807383159 #
edge $-1 $194 $225 $192 $234 forward #
point $-1 12.409111111111109 -1.1029331040905213 1.1999999999999997 #
straight-curve $-1 7.0633331689835037 -6.7209987757726628 1.1999999999999997 0 0 1 I I #
vertex $-1 $222 $235 #
ellipse-curve $-1 11.249999935149667 0 5 0 0 -1 1.6000000469804601 0 0 1 F -0.76056817807383159 F 0.76056817807383159 #
straight-curve $-1 12.409111111111109 1.1029331040905248 1.1999999999999997 0 0 1 I I #
point $-1 12.409111111111109 1.1029331040905248 5 #
point $-1 7.0633333333333388 6.7209986030516475 1.1999999999999997 #
straight-curve $-1 7.0633331689835037 -6.7209987757726628 5 -0.68933319005657845 -0.72444444444444545 0 I I #
point $-1 7.0633331689835037 -6.7209987757726628 5 #
straight-curve $-1 12.409111111111109 1.1029331040905248 1.1999999999999997 -0.68933319005657889 0.724444444444445 0 I I #
point $-1 12.409111111111109 1.1029331040905248 1.1999999999999997 #
straight-curve $-1 12.409111111111109 -1.1029331040905213 1.1999999999999997 0 0 1 I I #
point $-1 12.409111111111109 -1.1029331040905213 5 #
End-of-ACIS-data 