600 0 2 0           
24 FBMach with ACIS - 6.0.3 13 ACIS 6.0.3 NT 24 Wed May 23 10:33:45 2001 
1 9.9999999999999995e-007 1e-010 
body $2 $3 $-1 $4 #
bdycol-kcp $-1 1 3 $5 $6 $7 #
model_id-kcp-attrib $-1 $-1 $-1 $0 1 990628424 50 254935041 1 #
lump $-1 $-1 $8 $0 #
transform $-1 -1 1.7318549141438706e-016 0 6.6305605380914497e-032 3.8285889215894375e-016 1 1.7318549141438706e-016 1 -3.8285889215894375e-016 -406.15926171300521 190.01959871153193 166.21196011035138 1 rotate no_reflect no_shear #
body $9 $10 $-1 $11 #
body $12 $13 $-1 $14 #
body $15 $16 $-1 $17 #
shell $-1 $-1 $-1 $18 $-1 $3 #
model_id-kcp-attrib $-1 $-1 $-1 $5 1 990628424 50 254935042 1 #
lump $-1 $-1 $19 $5 #
transform $-1 1 0 0 0 1 0 0 0 1 -406.15926171300515 237.51959871153196 166.21196011035138 1 no_rotate no_reflect no_shear #
rgb_color-st-attrib $-1 $20 $-1 $6 0.5 1 1 #
lump $-1 $-1 $21 $6 #
transform $-1 1 0 0 0 1 0 0 0 1 -406.15926171300515 237.51959871153196 166.21196011035138 1 no_rotate no_reflect no_shear #
rgb_color-st-attrib $-1 $22 $-1 $7 1 0.5 1 #
lump $-1 $-1 $23 $7 #
transform $-1 1 0 0 0 1 0 0 0 1 -406.15926171300515 237.51959871153196 166.21196011035138 1 no_rotate no_reflect no_shear #
face $24 $25 $26 $8 $-1 $27 forward single #
shell $-1 $-1 $-1 $28 $-1 $10 #
model_id-kcp-attrib $-1 $-1 $12 $6 1 990628424 130 260177923 1 #
shell $-1 $-1 $-1 $29 $-1 $13 #
model_id-kcp-attrib $-1 $-1 $15 $7 1 990628424 230 266731524 1 #
shell $-1 $-1 $-1 $30 $-1 $16 #
model_id-kcp-attrib $-1 $-1 $-1 $18 1 990628424 50 254935041 2 #
face $31 $32 $33 $8 $-1 $34 forward single #
loop $-1 $35 $36 $18 #
cone-surface $-1 -5.6843418860808015e-014 -2.8165946137914685e-015 85.000000000000014 -1.3285635002638593e-048 0 1 70 8.6281661508548709e-031 1.3805065841367707e-029 1 I I 0 1 7.0000000000000009 forward I I I I #
face $-1 $37 $38 $19 $-1 $39 forward single #
face $-1 $40 $41 $21 $-1 $42 reversed single #
face $-1 $43 $44 $23 $-1 $45 forward single #
model_id-kcp-attrib $-1 $-1 $-1 $25 1 990628424 50 254935041 3 #
face $46 $47 $48 $8 $-1 $49 forward single #
loop $-1 $50 $51 $25 #
cone-surface $-1 -5.6843418860808015e-014 -2.9693303654827182e-015 87.494446500534877 -1.3285635002638593e-048 0 1 57.000000000000028 7.0257924371246837e-031 1.1241267899399424e-029 1 I I -0.86602540378443871 -0.5 5.700000000000002 forward I I I I #
loop $-1 $-1 $52 $18 #
coedge $-1 $36 $36 $53 $54 reversed $26 $-1 #
face $-1 $55 $56 $19 $-1 $57 reversed single #
loop $-1 $-1 $58 $28 #
plane-surface $-1 0 0 70.000000000000028 0 0 1 1 0 0 forward_v I I I I #
face $-1 $59 $60 $21 $-1 $42 reversed single #
loop $-1 $-1 $61 $29 #
cone-surface $-1 0 -47.500000000000028 0 -1.7318549141438706e-016 -1 3.8285889215894375e-016 70 -1.2122984399007091e-014 8.5722444767566408e-015 1 I I 0 1 70 forward I I I I #
face $-1 $62 $63 $23 $-1 $64 forward single #
loop $-1 $65 $66 $30 #
cone-surface $-1 6.2346776909179448e-015 27.500000000000032 -1.369107464118532e-014 0 -1 3.7895612573872012e-016 -54.000000000000021 0 4.2096053432500688e-030 1 I I 0 -1 54.000000000000021 forward I I I I #
model_id-kcp-attrib $-1 $-1 $-1 $32 1 990628424 50 254935041 4 #
face $67 $68 $69 $8 $-1 $70 forward single #
loop $-1 $71 $72 $32 #
cone-surface $-1 -5.6843418860808015e-014 -6.0890275154572661e-017 39.994446500534892 -1.3285635002638593e-048 0 1 44.000000000000021 5.4234187233944929e-031 8.6774699574311341e-030 1 I I 0 -1 4.4000000000000021 forward I I I I #
loop $-1 $-1 $53 $25 #
coedge $-1 $51 $51 $73 $74 reversed $33 $-1 #
coedge $-1 $52 $52 $75 $76 forward $35 $-1 #
coedge $-1 $53 $53 $36 $54 forward $50 $-1 #
edge $-1 $77 0 $77 6.2831853071795862 $53 $78 forward 7 unknown #
face $79 $80 $81 $19 $-1 $82 reversed single #
loop $-1 $-1 $83 $37 #
plane-surface $-1 0 0 -70.000000000000028 0 0 1 1 0 0 forward_v I I I I #
coedge $-1 $84 $85 $86 $87 forward $38 $-1 #
face $-1 $88 $89 $21 $-1 $42 reversed single #
loop $-1 $-1 $90 $40 #
coedge $-1 $91 $92 $93 $94 reversed $41 $-1 #
face $-1 $95 $96 $23 $-1 $97 reversed single #
loop $-1 $98 $99 $43 #
cone-surface $-1 1.298891185607904e-014 27.500000000000028 -2.87144169119208e-014 0 -1 3.7895612573872012e-016 70 3.1554436208840472e-030 8.5722444767566361e-015 1 I I 0 1 70 forward I I I I #
loop $-1 $-1 $100 $30 #
coedge $-1 $66 $66 $101 $102 forward $44 $-1 #
model_id-kcp-attrib $-1 $103 $-1 $47 1 990628424 50 254935041 8 #
face $104 $105 $106 $8 $-1 $107 forward single #
loop $-1 $108 $109 $47 #
plane-surface $-1 48.999999999999964 2.3879823899536349e-015 2.1316282072803006e-014 1.3285635002638593e-048 0 -1 -10 -1.2325951644078386e-031 -1.9721522630525295e-030 forward_v I I I I #
loop $-1 $-1 $73 $32 #
coedge $-1 $72 $72 $110 $111 reversed $48 $-1 #
coedge $-1 $73 $73 $51 $74 forward $71 $-1 #
edge $-1 $112 0 $112 6.2831853071795862 $73 $113 forward 7 unknown #
coedge $-1 $75 $75 $52 $76 reversed $114 $-1 #
edge $-1 $115 0 $115 6.2831853071795862 $52 $116 forward 7 unknown #
vertex $-1 $54 $117 #
ellipse-curve $-1 -5.6843418860808015e-014 -3.4288977907026571e-015 95.000000000000014 -1.3285635002638593e-048 0 1 70 8.6281661508548709e-031 1.3805065841367707e-029 1 I I #
model_id-kcp-attrib $-1 $-1 $-1 $55 1 990628424 50 254935042 2 #
face $-1 $118 $119 $19 $-1 $120 reversed single #
loop $-1 $-1 $121 $55 #
plane-surface $-1 0 -47.500000000000057 0 0 1 0 0 0 1 forward_v I I I I #
coedge $-1 $122 $123 $124 $125 forward $56 $-1 #
coedge $-1 $126 $58 $127 $128 forward $38 $-1 #
coedge $-1 $58 $126 $129 $130 forward $38 $-1 #
coedge $-1 $131 $132 $58 $87 reversed $133 $-1 #
edge $-1 $134 -47.500000000000057 $135 47.500000000000057 $86 $136 forward 7 unknown #
face $-1 $137 $138 $21 $-1 $42 reversed single #
loop $-1 $-1 $139 $59 #
coedge $-1 $140 $141 $142 $143 reversed $60 $-1 #
coedge $-1 $144 $61 $145 $146 forward $41 $-1 #
coedge $-1 $61 $144 $147 $148 reversed $41 $-1 #
coedge $-1 $149 $150 $61 $94 forward $151 $-1 #
edge $-1 $152 -1.224606353822378e-016 $153 1.5707963267948966 $93 $154 forward 7 unknown #
face $-1 $-1 $155 $23 $-1 $156 forward single #
loop $-1 $157 $158 $62 #
plane-surface $-1 -5.7302052785923632 -47.499999999999964 7.0985453962341952e-015 1.7512133411125412e-016 1 -3.7598441072561324e-016 0 3.7598441072561324e-016 1 forward_v I I I I #
loop $-1 $-1 $159 $43 #
coedge $-1 $99 $99 $158 $160 forward $63 $-1 #
coedge $-1 $100 $100 $161 $162 reversed $65 $-1 #
coedge $-1 $101 $101 $66 $102 reversed $157 $-1 #
edge $-1 $163 4.2521053952165846e-017 $163 6.2831853071795862 $66 $164 forward 7 unknown #
model_id-kcp-attrib $-1 $-1 $67 $47 1 990628424 50 254935041 5 #
model_id-kcp-attrib $-1 $-1 $-1 $68 1 990628424 50 254935041 6 #
face $165 $-1 $114 $8 $-1 $166 forward single #
loop $-1 $167 $168 $68 #
cone-surface $-1 -5.6843418860808015e-014 9.1845476536677148e-017 37.500000000000021 -1.3285635002638593e-048 0 1 54.000000000000021 6.6560138878023309e-031 1.0649622220483664e-029 1 I I 0 1 5.4000000000000021 forward I I I I #
loop $-1 $-1 $110 $47 #
coedge $-1 $109 $109 $169 $170 reversed $69 $-1 #
coedge $-1 $110 $110 $72 $111 forward $108 $-1 #
edge $171 $172 2.0185873175002838e-016 $172 6.2831853071795862 $110 $173 forward 7 unknown #
vertex $-1 $74 $174 #
ellipse-curve $-1 -5.6843418860808015e-014 -2.5097629402627793e-015 79.988893001069755 -1.3285635002638593e-048 0 1 44.000000000000021 5.4234187233944929e-031 8.6774699574311341e-030 1 I I #
loop $-1 $175 $75 $105 #
vertex $-1 $76 $176 #
ellipse-curve $-1 -5.6843418860808015e-014 -2.2042914368802799e-015 75.000000000000014 -1.3285635002638593e-048 0 1 70 8.6281661508548709e-031 1.3805065841367707e-029 1 I I #
point $-1 69.999999999999943 -3.4288977907026563e-015 95.000000000000014 #
face $-1 $177 $178 $19 $-1 $179 reversed single #
loop $-1 $-1 $180 $80 #
plane-surface $-1 -70 0 0 1 0 0 0 0 -1 forward_v I I I I #
coedge $-1 $181 $129 $182 $183 forward $81 $-1 #
coedge $-1 $184 $83 $181 $185 forward $56 $-1 #
coedge $-1 $83 $184 $186 $187 forward $56 $-1 #
coedge $-1 $132 $131 $83 $125 reversed $133 $-1 #
edge $-1 $188 -47.500000000000057 $189 47.500000000000057 $124 $190 forward 7 unknown #
coedge $-1 $85 $84 $191 $192 forward $38 $-1 #
coedge $-1 $193 $194 $84 $128 reversed $178 $-1 #
edge $-1 $135 -70 $195 70 $127 $196 forward 7 unknown #
coedge $-1 $121 $197 $85 $130 reversed $81 $-1 #
edge $-1 $198 -70 $134 70 $129 $199 forward 7 unknown #
coedge $-1 $124 $86 $197 $200 forward $133 $-1 #
coedge $-1 $86 $124 $193 $201 reversed $133 $-1 #
loop $-1 $-1 $131 $177 #
vertex $-1 $87 $202 #
vertex $-1 $87 $203 #
straight-curve $-1 70 0 70.000000000000028 0 1 0 I I #
face $-1 $204 $205 $21 $-1 $206 forward single #
loop $-1 $-1 $207 $88 #
coedge $-1 $208 $209 $207 $210 forward $89 $-1 #
coedge $-1 $211 $90 $212 $213 reversed $60 $-1 #
coedge $-1 $90 $211 $92 $148 forward $60 $-1 #
coedge $-1 $214 $215 $90 $143 forward $216 $-1 #
edge $-1 $217 -3.1415926535897931 $218 -1.5707963267948966 $142 $219 forward 7 unknown #
coedge $-1 $92 $91 $220 $221 reversed $41 $-1 #
coedge $-1 $209 $208 $222 $146 reversed $89 $-1 #
edge $-1 $152 -95.000000000000099 $223 1.4210854715202004e-014 $222 $224 forward 7 unknown #
coedge $-1 $225 $226 $227 $148 forward $228 $-1 #
edge $-1 $153 -95.000000000000057 $218 5.6843418860808015e-014 $147 $229 forward 7 unknown #
coedge $-1 $150 $93 $226 $230 reversed $151 $-1 #
coedge $-1 $93 $149 $231 $232 forward $151 $-1 #
loop $-1 $-1 $93 $233 #
vertex $-1 $234 $235 #
vertex $-1 $236 $237 #
ellipse-curve $-1 1.6452621684366787e-014 47.500000000000057 -3.6371594755099688e-014 0 -1 0 70 -1.2122984399007091e-014 8.5722444767566408e-015 1 I I #
loop $-1 $238 $239 $95 #
plane-surface $-1 -5.7302052785923632 27.500000000000036 -2.1323164034169812e-014 1.7512133411125412e-016 1 -3.7598441072561324e-016 0 3.7598441072561324e-016 1 forward_v I I I I #
loop $-1 $-1 $101 $62 #
coedge $-1 $158 $158 $99 $160 reversed $96 $-1 #
coedge $-1 $159 $159 $239 $240 reversed $98 $-1 #
edge $-1 $241 -3.1415926535897931 $241 3.1415926535897931 $99 $242 forward 7 unknown #
coedge $-1 $161 $161 $100 $162 forward $238 $-1 #
edge $-1 $243 4.2521053952165889e-017 $243 6.2831853071795862 $100 $244 forward 7 unknown #
vertex $-1 $102 $245 #
ellipse-curve $-1 6.2346776909179448e-015 -47.499999999999972 1.4730634789218685e-014 -1.7318549141438706e-016 -1 3.8285889215894375e-016 -54.000000000000021 9.3520165363769156e-015 6.6560138878022897e-031 1 I I #
model_id-kcp-attrib $-1 $-1 $-1 $105 1 990628424 50 254935041 7 #
plane-surface $-1 61.999999999999972 -2.2042914368802791e-015 75.000000000000014 1.3285635002638593e-048 0 -1 -10 -1.2325951644078386e-031 -1.9721522630525295e-030 forward_v I I I I #
loop $-1 $-1 $169 $68 #
coedge $-1 $168 $168 $246 $247 reversed $106 $-1 #
coedge $-1 $169 $169 $109 $170 forward $167 $-1 #
edge $248 $249 1.6447748512965276e-016 $249 6.2831853071795862 $169 $250 forward 7 unknown #
attrib_edge_convexity-kcp-attrib $-1 $251 $-1 $111 1 #
vertex $-1 $111 $252 #
ellipse-curve $-1 -5.6843418860808015e-014 -6.4938018070476182e-015 2.1316282072803006e-014 -1.3285635002638593e-048 0 1 44.000000000000021 5.4234187233944929e-031 8.6774699574311341e-030 1 I I #
point $-1 43.999999999999964 -2.5097629402627789e-015 79.988893001069755 #
loop $-1 $-1 $246 $105 #
point $-1 69.999999999999943 -2.2042914368802791e-015 75.000000000000014 #
face $-1 $-1 $133 $19 $-1 $253 reversed single #
loop $-1 $-1 $193 $118 #
plane-surface $-1 0 47.500000000000057 0 0 -1 0 0 0 -1 forward_v I I I I #
coedge $-1 $254 $191 $194 $255 forward $119 $-1 #
coedge $-1 $197 $121 $122 $185 reversed $81 $-1 #
coedge $-1 $191 $254 $121 $183 reversed $119 $-1 #
edge $-1 $198 -70.000000000000028 $256 70.000000000000028 $182 $257 forward 7 unknown #
coedge $-1 $123 $122 $254 $258 forward $56 $-1 #
edge $-1 $189 -70 $256 70 $181 $259 forward 7 unknown #
coedge $-1 $194 $193 $123 $187 reversed $178 $-1 #
edge $-1 $260 -70 $188 70 $186 $261 forward 7 unknown #
vertex $-1 $125 $262 #
vertex $-1 $200 $263 #
straight-curve $-1 70 0 -70.000000000000028 0 -1 0 I I #
coedge $-1 $180 $182 $126 $192 reversed $119 $-1 #
edge $-1 $195 -47.500000000000057 $198 47.500000000000057 $191 $264 forward 7 unknown #
coedge $-1 $186 $127 $132 $201 forward $178 $-1 #
coedge $-1 $127 $186 $180 $255 reversed $178 $-1 #
vertex $-1 $128 $265 #
straight-curve $-1 0 47.500000000000057 70.000000000000028 -1 0 0 I I #
coedge $-1 $129 $181 $131 $200 reversed $81 $-1 #
vertex $-1 $192 $266 #
straight-curve $-1 0 -47.500000000000057 70.000000000000028 1 0 0 I I #
edge $-1 $134 -70.000000000000028 $189 70.000000000000028 $131 $267 forward 7 unknown #
edge $-1 $135 -70.000000000000028 $188 70.000000000000028 $132 $268 forward 7 unknown #
point $-1 70 -47.500000000000057 70.000000000000028 #
point $-1 70 47.500000000000057 70.000000000000028 #
face $-1 $269 $270 $21 $-1 $271 reversed single #
loop $-1 $-1 $227 $137 #
plane-surface $-1 0 0 70.000000000000028 0 0 1 1 0 0 forward_v I I I I #
coedge $-1 $272 $273 $274 $210 reversed $138 $-1 #
coedge $-1 $145 $139 $275 $276 reversed $89 $-1 #
coedge $-1 $139 $145 $277 $278 reversed $89 $-1 #
edge $-1 $279 -95.000000000000114 $280 -7.7107897517296833e-046 $274 $281 forward 7 unknown #
coedge $-1 $141 $140 $282 $283 reversed $60 $-1 #
coedge $-1 $284 $285 $286 $213 forward $287 $-1 #
edge $-1 $288 -95.000000000000071 $217 4.2632564145606011e-014 $212 $289 forward 7 unknown #
coedge $-1 $215 $142 $290 $291 reversed $216 $-1 #
coedge $-1 $142 $214 $284 $292 forward $216 $-1 #
loop $-1 $-1 $142 $293 #
vertex $-1 $294 $295 #
vertex $-1 $296 $297 #
ellipse-curve $-1 -4.9222277145414369e-030 -47.500000000000057 1.0881504185787883e-029 0 1 0 70 -1.2122984399007091e-014 8.5722444767566408e-015 1 I I #
coedge $-1 $298 $299 $144 $221 forward $300 $-1 #
edge $-1 $218 -1.5707963267948966 $223 1.224606353822378e-016 $220 $219 forward 7 unknown #
coedge $-1 $301 $302 $303 $146 forward $270 $-1 #
vertex $-1 $304 $305 #
straight-curve $-1 70 -47.500000000000043 4.7331654313260708e-030 -1.7318549141438706e-016 -1 3.8285889215894375e-016 I I #
coedge $-1 $306 $147 $299 $296 forward $228 $-1 #
coedge $-1 $147 $306 $149 $230 forward $228 $-1 #
coedge $-1 $307 $290 $141 $148 reversed $205 $-1 #
loop $-1 $-1 $147 $308 #
straight-curve $-1 4.7331654313260708e-030 -47.5 70.000000000000028 -1.7318549141438706e-016 -1 3.8285889215894375e-016 I I #
edge $-1 $309 -70 $153 -1.6452621684366781e-014 $149 $310 forward 7 unknown #
coedge $-1 $311 $303 $150 $232 reversed $312 $-1 #
edge $-1 $309 -70.000000000000028 $152 3.6371594755099694e-014 $231 $313 forward 7 unknown #
face $-1 $314 $151 $21 $-1 $315 reversed single #
edge $-1 $152 3.6371594755099694e-014 $316 70.000000000000028 $302 $313 forward 7 unknown #
point $-1 70 47.500000000000057 -3.6371594755099694e-014 #
edge $-1 $153 -1.6452621684366781e-014 $317 70 $318 $310 forward 7 unknown #
point $-1 1.6452621684366781e-014 47.500000000000057 70.000000000000014 #
loop $-1 $-1 $161 $95 #
coedge $-1 $239 $239 $159 $240 forward $155 $-1 #
edge $319 $320 -3.1415926535897931 $320 3.1415926535897931 $159 $321 forward 7 unknown #
vertex $-1 $160 $322 #
ellipse-curve $-1 1.298891185607904e-014 -47.499999999999972 -2.9270748151679299e-016 1.7318549141438706e-016 1 -3.8285889215894375e-016 70 -1.2122984399007091e-014 8.5722444767566408e-015 1 I I #
vertex $-1 $162 $323 #
ellipse-curve $-1 6.2346776909179448e-015 27.500000000000032 -1.369107464118532e-014 -1.7318549141438706e-016 -1 3.8285889215894375e-016 -54.000000000000021 9.3520165363769156e-015 6.6560138878022897e-031 1 I I #
point $-1 -54.000000000000014 -47.500000000000007 1.2434497875801747e-014 #
coedge $-1 $246 $246 $168 $247 forward $175 $-1 #
edge $-1 $324 0 $324 6.2831853071795862 $246 $325 forward 7 unknown #
attrib_edge_convexity-kcp-attrib $-1 $326 $-1 $170 1 #
vertex $-1 $170 $327 #
ellipse-curve $-1 -5.6843418860808015e-014 -6.4938018070476182e-015 2.1316282072803006e-014 -1.3285635002638593e-048 0 1 54.000000000000021 6.6560138878023309e-031 1.0649622220483664e-029 1 I I #
convexity-sys-attrib $-1 $-1 $171 $111 #
point $-1 43.999999999999964 2.3879823899536349e-015 2.1316282072803006e-014 #
plane-surface $-1 70 0 0 -1 0 0 0 0 1 forward_v I I I I #
coedge $-1 $182 $180 $184 $258 reversed $119 $-1 #
edge $-1 $195 -70.000000000000028 $260 70.000000000000028 $194 $328 forward 7 unknown #
vertex $-1 $258 $329 #
straight-curve $-1 -70 -47.500000000000057 0 0 0 -1 I I #
edge $-1 $256 -47.500000000000057 $260 47.500000000000057 $254 $330 forward 7 unknown #
straight-curve $-1 0 -47.500000000000057 -70.000000000000028 -1 0 0 I I #
vertex $-1 $187 $331 #
straight-curve $-1 0 47.500000000000057 -70.000000000000028 1 0 0 I I #
point $-1 70 47.500000000000057 -70.000000000000028 #
point $-1 70 -47.500000000000057 -70.000000000000028 #
straight-curve $-1 -70 0 70.000000000000028 0 -1 0 I I #
point $-1 -70 47.500000000000057 70.000000000000028 #
point $-1 -70 -47.500000000000057 70.000000000000028 #
straight-curve $-1 70 -47.500000000000057 0 0 0 -1 I I #
straight-curve $-1 70 47.500000000000057 0 0 0 -1 I I #
face $-1 $332 $333 $21 $-1 $334 reversed single #
loop $-1 $-1 $222 $204 #
plane-surface $-1 70 0 0 -1 0 0 0 0 1 forward_v I I I I #
coedge $-1 $335 $207 $336 $337 reversed $138 $-1 #
coedge $-1 $207 $335 $338 $339 reversed $138 $-1 #
coedge $-1 $340 $341 $342 $210 forward $343 $-1 #
coedge $-1 $344 $345 $208 $276 forward $346 $-1 #
edge $-1 $223 1.224606353822378e-016 $280 1.5707963267948968 $275 $219 forward 7 unknown #
coedge $-1 $347 $348 $209 $278 forward $349 $-1 #
edge $-1 $279 -1.5707963267948968 $152 -1.224606353822378e-016 $277 $154 forward 7 unknown #
vertex $-1 $350 $351 #
vertex $-1 $352 $353 #
straight-curve $-1 -4.7331654313260708e-030 -47.500000000000057 -70.000000000000028 -1.7318549141438706e-016 -1 3.8285889215894375e-016 I I #
coedge $-1 $354 $318 $211 $283 forward $355 $-1 #
edge $-1 $153 1.5707963267948966 $288 3.1415926535897931 $282 $154 forward 7 unknown #
coedge $-1 $356 $212 $215 $292 reversed $287 $-1 #
coedge $-1 $212 $356 $354 $357 forward $287 $-1 #
coedge $-1 $358 $359 $335 $213 reversed $333 $-1 #
loop $-1 $-1 $212 $360 #
vertex $-1 $361 $362 #
straight-curve $-1 -70 -47.500000000000014 -4.7331654313260708e-030 -1.7318549141438706e-016 -1 3.8285889215894375e-016 I I #
coedge $-1 $227 $363 $214 $291 forward $205 $-1 #
edge $-1 $364 -70 $218 -9.5636200912054527e-030 $214 $365 forward 7 unknown #
edge $-1 $364 -70.000000000000028 $217 -1.5522896562451898e-029 $284 $366 forward 7 unknown #
face $-1 $367 $216 $21 $-1 $368 reversed single #
edge $-1 $217 -1.5522896562451898e-029 $369 70.000000000000028 $359 $366 forward 7 unknown #
point $-1 -70 -47.500000000000057 1.5522896562451898e-029 #
edge $-1 $218 -9.5636200912054527e-030 $370 70 $299 $365 forward 7 unknown #
point $-1 -9.5636200912054527e-030 -47.500000000000057 70.000000000000028 #
coedge $-1 $299 $220 $371 $372 reversed $300 $-1 #
coedge $-1 $220 $298 $225 $296 reversed $300 $-1 #
loop $-1 $-1 $220 $367 #
coedge $-1 $373 $222 $345 $304 forward $270 $-1 #
coedge $-1 $222 $373 $347 $234 reversed $270 $-1 #
coedge $-1 $231 $371 $91 $146 reversed $312 $-1 #
edge $-1 $223 -6.2401118091238682e-030 $374 70.000000000000028 $301 $375 forward 7 unknown #
point $-1 70 -47.500000000000057 6.2401118091238682e-030 #
coedge $-1 $226 $225 $311 $376 forward $228 $-1 #
coedge $-1 $363 $227 $318 $236 forward $205 $-1 #
face $-1 $377 $228 $21 $-1 $206 forward single #
vertex $-1 $376 $378 #
straight-curve $-1 0 47.500000000000057 70.000000000000028 -1 0 0 I I #
coedge $-1 $371 $231 $306 $376 reversed $312 $-1 #
loop $-1 $-1 $303 $379 #
straight-curve $-1 70 47.500000000000057 0 0 0 -1 I I #
face $-1 $380 $355 $21 $-1 $315 reversed single #
plane-surface $-1 0 47.500000000000057 0 0 -1 0 0 0 -1 forward_v I I I I #
vertex $-1 $381 $382 #
vertex $-1 $236 $383 #
coedge $-1 $282 $354 $307 $236 reversed $355 $-1 #
convexity-sys-attrib $-1 $-1 $-1 $240 #
vertex $-1 $240 $384 #
ellipse-curve $-1 1.298891185607904e-014 27.500000000000028 -2.87144169119208e-014 1.7318549141438706e-016 1 -3.8285889215894375e-016 70 -1.2122984399007091e-014 8.5722444767566408e-015 1 I I #
point $-1 -69.999999999999986 -47.499999999999957 -2.9270748151679299e-016 #
point $-1 -54.000000000000014 27.499999999999993 -1.598721155460226e-014 #
vertex $-1 $247 $385 #
ellipse-curve $-1 -5.6843418860808015e-014 -2.2042914368802799e-015 75.000000000000014 -1.3285635002638593e-048 0 1 54.000000000000021 6.6560138878023309e-031 1.0649622220483664e-029 1 I I #
convexity-sys-attrib $-1 $-1 $248 $170 #
point $-1 53.999999999999964 2.3879823899536349e-015 2.1316282072803006e-014 #
straight-curve $-1 -70 47.500000000000057 0 0 0 -1 I I #
point $-1 -70 -47.500000000000057 -70.000000000000028 #
straight-curve $-1 -70 0 -70.000000000000028 0 1 0 I I #
point $-1 -70 47.500000000000057 -70.000000000000028 #
face $-1 $293 $386 $21 $-1 $368 reversed single #
loop $-1 $-1 $286 $269 #
plane-surface $-1 -70 0 0 1 0 0 0 0 -1 forward_v I I I I #
coedge $-1 $273 $272 $140 $213 forward $138 $-1 #
coedge $-1 $387 $388 $272 $337 forward $389 $-1 #
edge $-1 $288 -3.1415926535897931 $279 -1.5707963267948968 $336 $154 forward 7 unknown #
coedge $-1 $390 $391 $273 $339 forward $386 $-1 #
edge $-1 $280 1.5707963267948968 $217 3.1415926535897931 $338 $219 forward 7 unknown #
coedge $-1 $392 $274 $391 $352 forward $343 $-1 #
coedge $-1 $274 $392 $387 $393 forward $343 $-1 #
coedge $-1 $394 $395 $139 $210 reversed $396 $-1 #
loop $-1 $-1 $274 $377 #
coedge $-1 $345 $275 $395 $397 reversed $346 $-1 #
coedge $-1 $275 $344 $301 $304 reversed $346 $-1 #
loop $-1 $-1 $275 $398 #
coedge $-1 $348 $277 $302 $234 forward $349 $-1 #
coedge $-1 $277 $347 $394 $350 reversed $349 $-1 #
loop $-1 $-1 $277 $399 #
edge $-1 $279 1.645262168436679e-014 $316 70 $348 $400 forward 7 unknown #
point $-1 1.645262168436679e-014 47.500000000000057 -70.000000000000043 #
edge $-1 $280 2.808353378774205e-031 $369 70 $391 $401 forward 7 unknown #
point $-1 -2.808353378774205e-031 -47.500000000000057 -70.000000000000028 #
coedge $-1 $318 $282 $285 $357 reversed $355 $-1 #
loop $-1 $-1 $282 $314 #
coedge $-1 $285 $284 $363 $402 reversed $287 $-1 #
edge $-1 $317 -70.000000000000028 $288 3.6371594755099682e-014 $354 $403 forward 7 unknown #
coedge $-1 $404 $286 $388 $361 forward $333 $-1 #
coedge $-1 $286 $404 $390 $294 reversed $333 $-1 #
face $-1 $379 $287 $21 $-1 $334 reversed single #
edge $-1 $288 3.6371594755099682e-014 $405 70.000000000000028 $388 $403 forward 7 unknown #
point $-1 -70 47.500000000000057 -3.6371594755099682e-014 #
coedge $-1 $290 $307 $356 $402 forward $205 $-1 #
vertex $-1 $402 $406 #
straight-curve $-1 0 -47.500000000000057 70.000000000000028 1 0 0 I I #
straight-curve $-1 -70 -47.500000000000057 0 0 0 -1 I I #
face $-1 $398 $300 $21 $-1 $368 reversed single #
plane-surface $-1 0 -47.500000000000057 0 0 1 0 0 0 1 forward_v I I I I #
vertex $-1 $407 $408 #
vertex $-1 $376 $409 #
coedge $-1 $303 $311 $298 $372 forward $312 $-1 #
edge $-1 $370 -70.000000000000028 $223 -6.2401118091238682e-030 $371 $375 forward 7 unknown #
coedge $-1 $302 $301 $410 $381 reversed $270 $-1 #
vertex $-1 $304 $411 #
straight-curve $-1 70 -47.500000000000057 0 0 0 -1 I I #
edge $-1 $370 -47.500000000000057 $309 47.500000000000057 $311 $412 forward 7 unknown #
face $-1 $360 $343 $21 $-1 $413 reversed single #
point $-1 70 47.500000000000057 70.000000000000028 #
face $-1 $-1 $312 $21 $-1 $271 reversed single #
face $-1 $414 $389 $21 $-1 $315 reversed single #
edge $-1 $316 -47.500000000000057 $374 47.500000000000057 $373 $415 forward 7 unknown #
point $-1 70 47.500000000000057 -70.000000000000028 #
point $-1 -70 47.500000000000057 70.000000000000028 #
point $-1 -69.999999999999986 27.500000000000039 -2.87144169119208e-014 #
point $-1 53.999999999999964 -2.2042914368802791e-015 75.000000000000014 #
loop $-1 $-1 $338 $332 #
coedge $-1 $388 $336 $341 $393 reversed $389 $-1 #
coedge $-1 $336 $387 $358 $361 reversed $389 $-1 #
loop $-1 $-1 $336 $380 #
coedge $-1 $391 $338 $359 $294 forward $386 $-1 #
coedge $-1 $338 $390 $340 $352 reversed $386 $-1 #
coedge $-1 $341 $340 $404 $407 forward $343 $-1 #
edge $-1 $405 -70 $279 1.645262168436679e-014 $387 $400 forward 7 unknown #
coedge $-1 $410 $342 $348 $350 forward $396 $-1 #
coedge $-1 $342 $410 $344 $397 forward $396 $-1 #
loop $-1 $-1 $342 $414 #
edge $-1 $374 -70 $280 2.808353378774205e-031 $344 $401 forward 7 unknown #
face $-1 $399 $346 $21 $-1 $368 reversed single #
face $-1 $233 $349 $21 $-1 $315 reversed single #
straight-curve $-1 0 47.500000000000057 -70.000000000000028 1 0 0 I I #
straight-curve $-1 0 -47.500000000000057 -70.000000000000028 -1 0 0 I I #
edge $-1 $317 -47.500000000000057 $364 47.500000000000057 $356 $416 forward 7 unknown #
straight-curve $-1 -70 47.500000000000057 0 0 0 -1 I I #
coedge $-1 $359 $358 $392 $407 reversed $333 $-1 #
vertex $-1 $393 $417 #
point $-1 -70 -47.500000000000057 70.000000000000028 #
edge $-1 $369 -47.500000000000057 $405 47.500000000000057 $404 $418 forward 7 unknown #
point $-1 -70 -47.500000000000057 -70.000000000000028 #
point $-1 70 -47.500000000000057 70.000000000000028 #
coedge $-1 $395 $394 $373 $381 forward $396 $-1 #
point $-1 70 -47.500000000000057 -70.000000000000028 #
straight-curve $-1 70 0 70.000000000000028 0 1 0 I I #
plane-surface $-1 0 0 -70.000000000000028 0 0 1 1 0 0 forward_v I I I I #
face $-1 $308 $396 $21 $-1 $413 reversed single #
straight-curve $-1 70 0 -70.000000000000028 0 -1 0 I I #
straight-curve $-1 -70 0 70.000000000000028 0 -1 0 I I #
point $-1 -70 47.500000000000057 -70.000000000000028 #
straight-curve $-1 -70 0 -70.000000000000028 0 1 0 I I #
End-of-ACIS-data 