400 0 1 0           
7 Unknown 13 ACIS 4.0.1 NT 24 Wed Aug 26 17:16:59 1998 
1 9.9999999999999995e-007 1e-010 
body $-1 $1 $-1 $2 #
lump $-1 $-1 $3 $0 #
transform $-1 7.2736413246621506e-016 3.3581133638589189e-015 1 -3.6051119737099925e-016 1 -3.3581133638589189e-015 -1 -3.6051119737099629e-016 7.2736413246621624e-016 -661.15926171300498 497.01959871153059 166.21196011035232 10 rotate no_reflect no_shear #
shell $-1 $-1 $-1 $4 $-1 $1 #
face $-1 $5 $6 $3 $-1 $7 reversed single #
face $-1 $8 $9 $3 $-1 $10 forward single #
loop $-1 $11 $12 $4 #
cone-surface $-1 0 12.334183114356589 2.4999999999999769 0 -1 1.8375871570913693e-015 0.60000000000000009 0 0 1 I I 0 1 0.060000000000000012 forward I I I I #
face $-1 $13 $14 $3 $-1 $15 forward single #
loop $-1 $16 $17 $5 #
torus-surface $-1 0 -8.8817841970012523e-016 1 0 0 1 4 1 1 0 0 forward_v I I I I #
loop $-1 $-1 $18 $4 #
coedge $-1 $12 $12 $19 $20 reversed $6 $-1 #
face $-1 $21 $22 $3 $-1 $23 reversed single #
loop $-1 $24 $19 $8 #
cone-surface $-1 0 -8.8817841970012523e-016 0 0 0 1 5 0 0 1 I I 0 1 0.5 forward I I I I #
loop $-1 $-1 $25 $5 #
coedge $-1 $17 $17 $26 $27 forward $9 $-1 #
coedge $-1 $18 $18 $28 $29 reversed $11 $-1 #
coedge $-1 $19 $19 $12 $20 forward $14 $-1 #
edge $-1 $30 $30 $19 $31 forward #
face $-1 $32 $33 $3 $-1 $34 forward single #
loop $-1 $35 $36 $13 #
plane-surface $-1 7.1054273576010019e-015 -1.0658141036401503e-014 0 0 0 1 1 0 0 forward_v I I I I #
loop $-1 $37 $38 $8 #
coedge $-1 $25 $25 $39 $40 forward $16 $-1 #
coedge $-1 $26 $26 $17 $27 reversed $35 $-1 #
edge $-1 $41 $41 $26 $42 forward #
coedge $-1 $28 $28 $18 $29 forward $33 $-1 #
edge $-1 $43 $43 $28 $44 forward #
vertex $-1 $20 $45 #
intcurve-curve $-1 forward { surfintcur nubs 3 periodic 17 
	0 3 0.22624701691580199 2 0.45249403383160397 2 0.67873944726210833 2 0.90498486069261275 2 
	1.1312302741231171 2 1.3574756875536216 2 1.5837227044694191 2 1.8099697213852166 2 2.0362167383010217 2 
	2.2624637552168267 2 2.4887091686473299 2 2.7149545820778331 2 2.9411999955083363 2 3.1674454089388395 2 
	3.3936924258546357 2 3.6199394427704323 3 
	0.60000000000000009 4.9638694583963421 2.4999999999999902 
	0.60000000000000009 4.9638694583963421 2.5754156723052577 
	0.58491326437965852 4.965765417478484 2.6558080337923435 
	0.52365858033029811 4.9725980526868305 2.8036138476155283 
	0.47749457954719965 4.9774343755441421 2.8710335578766486 
	0.37103393513838701 4.9865005579931889 2.9774942022854605 
	0.30361406060934698 4.9913216421319184 3.0236584984796213 
	0.1558076916450912 4.998119365930318 3.0849133997549583 
	0.075415137810163915 4.9999999999999991 3.0999999999999908 
	-0.075415137810172311 5 3.0999999999999908 
	-0.15580769164509878 4.998119365930318 3.0849133997549565 
	-0.30361406060935414 4.9913216421319166 3.0236584984796169 
	-0.37103393513839361 4.9865005579931889 2.9774942022854556 
	-0.47749457954720365 4.9774343755441421 2.8710335578766428 
	-0.52365858033030066 4.9725980526868305 2.803613847615523 
	-0.58491326437965874 4.965765417478484 2.6558080337923418 
	-0.60000000000000009 4.9638694583963421 2.5754156723052564 
	-0.60000000000000009 4.9638694583963421 2.4245843276947223 
	-0.58491326437965807 4.965765417478484 2.3441919662076347 
	-0.52365858033029589 4.9725980526868305 2.1963861523844486 
	-0.47749457954719632 4.9774343755441421 2.1289664421233279 
	-0.37103393513838212 4.9865005579931889 2.0225057977145164 
	-0.30361406060934204 4.9913216421319184 1.9763415015203565 
	-0.15580769164508612 4.998119365930318 1.9150866002450209 
	-0.075415137810159308 5 1.8999999999999895 
	0.075415137810176114 5 1.8999999999999915 
	0.15580769164510255 4.998119365930318 1.9150866002450255 
	0.3036140606093567 4.9913216421319158 1.9763415015203649 
	0.37103393513839555 4.9865005579931889 2.0225057977145271 
	0.47749457954720465 4.9774343755441413 2.128966442123339 
	0.52365858033030122 4.9725980526868305 2.1963861523844588 
	0.58491326437965929 4.965765417478484 2.3441919662076405 
	0.60000000000000009 4.9638694583963421 2.4245843276947245 
	0.60000000000000009 4.9638694583963421 2.4999999999999902 
	0.00026876637323663787 
	cone 0 12.334183114356589 2.4999999999999769 0 -1 1.8375871570913693e-015 0.60000000000000009 0 0 1 I I 0 1 0.060000000000000012 forward I I I I 
	cone 0 -8.8817841970012523e-016 0 0 0 1 5 0 0 1 I I 0 1 0.5 forward I I I I 
	nullbs 
	nullbs 
	I I 
	0 
	0 
	0 
	} I I #
face $-1 $-1 $46 $3 $-1 $47 forward single #
loop $-1 $48 $28 $21 #
cone-surface $-1 0 -8.8817841970012523e-016 0 0 0 1 -2.5 0 0 1 I I 0 -1 0.25 forward I I I I #
loop $-1 $-1 $26 $13 #
coedge $-1 $36 $36 $49 $50 reversed $22 $-1 #
loop $-1 $-1 $39 $8 #
coedge $-1 $38 $38 $51 $52 forward $24 $-1 #
coedge $-1 $39 $39 $25 $40 reversed $37 $-1 #
edge $-1 $53 $53 $39 $54 forward #
vertex $-1 $27 $55 #
ellipse-curve $-1 0 -8.8817841970012523e-016 0 0 0 1 -4 -2.7931866888875057e-014 0 1 I I #
vertex $-1 $29 $56 #
intcurve-curve $-1 forward { surfintcur nubs 3 periodic 17 
	0 3 0.22698248367528695 2 0.4539649673505739 2 0.68092062448280866 2 0.90787628161504341 2 
	1.1348319387472783 2 1.3617875958795129 2 1.5887700795547957 2 1.8157525632300784 2 2.0427350469053689 2 
	2.2697175305806589 2 2.4966731877128927 2 2.723628844845126 2 2.9505845019773593 2 3.1775401591095931 2 
	3.4045226427848747 2 3.6315051264601563 3 
	0.60000000000000009 2.4269322199023189 2.4999999999999951 
	0.60000000000000009 2.4269322199023189 2.4243391721082332 
	0.58481848808250469 2.430838540169447 2.3438470347403917 
	0.52349695598888779 2.4447780235517986 2.1961128839266055 
	0.47737208511482837 2.4545916140621298 2.1288439476909669 
	0.37116232902459168 2.4728813029676147 2.02263419160073 
	0.30389076746504529 2.4825700436216582 1.9765044214439407 
	0.15614734794964294 2.4962214696238689 1.9151793184724477 
	0.075651885710740718 2.4999999999999996 1.8999999999999944 
	-0.07565188571074917 2.4999999999999996 1.8999999999999955 
	-0.15614734794965118 2.4962214696238685 1.9151793184724497 
	-0.30389076746505261 2.4825700436216573 1.9765044214439449 
	-0.37116232902459834 2.4728813029676129 2.0226341916007353 
	-0.47737208511483253 2.4545916140621289 2.1288439476909717 
	-0.52349695598889034 2.4447780235517982 2.19611288392661 
	-0.58481848808250536 2.4308385401694466 2.3438470347403944 
	-0.60000000000000009 2.4269322199023189 2.4243391721082341 
	-0.60000000000000009 2.4269322199023189 2.5756608278917592 
	-0.58481848808250436 2.430838540169447 2.6561529652596012 
	-0.52349695598888546 2.4447780235518 2.8038871160733891 
	-0.47737208511482526 2.4545916140621311 2.8711560523090291 
	-0.37116232902458679 2.4728813029676155 2.9773658083992638 
	-0.30389076746504062 2.4825700436216587 3.0234955785560524 
	-0.15614734794963844 2.4962214696238689 3.0848206815275443 
	-0.075651885710736055 2.4999999999999996 3.0999999999999961 
	0.075651885710752875 2.4999999999999987 3.0999999999999943 
	0.1561473479496549 2.4962214696238685 3.0848206815275399 
	0.30389076746505544 2.4825700436216573 3.023495578556044 
	0.37116232902460022 2.4728813029676129 2.9773658083992531 
	0.4773720851148337 2.4545916140621289 2.871156052309018 
	0.52349695598889079 2.4447780235517991 2.8038871160733794 
	0.58481848808250547 2.4308385401694474 2.6561529652595954 
	0.60000000000000009 2.4269322199023189 2.5756608278917561 
	0.60000000000000009 2.4269322199023189 2.4999999999999951 
	0.00027997608972201831 
	cone 0 12.334183114356589 2.4999999999999769 0 -1 1.8375871570913693e-015 0.60000000000000009 0 0 1 I I 0 1 0.060000000000000012 forward I I I I 
	cone 0 -8.8817841970012523e-016 0 0 0 1 -2.5 0 0 1 I I 0 -1 0.25 forward I I I I 
	nullbs 
	nullbs 
	I I 
	0 
	0 
	0 
	} I I #
point $-1 0.60000000000000009 4.9638694583963421 2.4999999999999902 #
loop $-1 $57 $51 $32 #
plane-surface $-1 5 -8.8817841970012523e-016 5 0 0 1 1 0 0 forward_v I I I I #
loop $-1 $58 $59 $21 #
coedge $-1 $49 $49 $36 $50 forward $58 $-1 #
edge $-1 $60 $60 $49 $61 forward #
coedge $-1 $51 $51 $38 $52 reversed $46 $-1 #
edge $-1 $62 $62 $38 $63 forward #
vertex $-1 $40 $64 #
ellipse-curve $-1 0 -8.8817841970012523e-016 1 0 0 -1 -5 -3.4914833611093821e-014 0 1 I I #
point $-1 4 -8.8817841970012523e-016 0 #
point $-1 0.60000000000000009 2.4269322199023189 2.4999999999999951 #
loop $-1 $-1 $65 $32 #
loop $-1 $-1 $49 $21 #
coedge $-1 $59 $59 $65 $66 forward $48 $-1 #
vertex $-1 $50 $67 #
ellipse-curve $-1 0 -8.8817841970012523e-016 0 0 0 -1 -2.5 0 0 1 I I #
vertex $-1 $52 $68 #
ellipse-curve $-1 0 -8.8817841970012523e-016 5 0 0 -1 5 0 0 1 I I #
point $-1 5 -8.8817841970012523e-016 1 #
coedge $-1 $65 $65 $59 $66 reversed $57 $-1 #
edge $-1 $69 $69 $59 $70 forward #
point $-1 2.5 -8.8817841970012523e-016 0 #
point $-1 5 -8.8817841970012523e-016 5 #
vertex $-1 $66 $71 #
ellipse-curve $-1 0 -8.8817841970012523e-016 5 0 0 1 -2.5 0 0 1 I I #
point $-1 2.5 -8.8817841970012523e-016 5 #
End-of-ACIS-data 