600 0 2 0           
24 FBMach with ACIS - 6.0.3 13 ACIS 6.0.3 NT 24 Wed May 23 10:33:45 2001 
1 9.9999999999999995e-007 1e-010 
body $2 $3 $-1 $4 #
bdycol-kcp $-1 1 2 $5 $6 #
model_id-kcp-attrib $-1 $-1 $-1 $0 1 990628425 60 725352449 1 #
lump $-1 $-1 $7 $0 #
transform $-1 3.6051119737099629e-016 -1 0 7.2736413246621624e-016 2.6222291432011159e-031 1 -1 -3.6051119737099629e-016 7.2736413246621624e-016 -661.15926171300498 497.01959871153059 166.21196011035232 1 rotate no_reflect no_shear #
body $8 $9 $-1 $10 #
body $11 $12 $-1 $13 #
shell $-1 $-1 $-1 $14 $-1 $3 #
model_id-kcp-attrib $-1 $-1 $-1 $5 1 990628425 60 725352450 1 #
lump $-1 $-1 $15 $5 #
transform $-1 1 0 0 0 1 0 0 0 1 -686.15926171300498 497.02094254339676 166.21196011035232 1 no_rotate no_reflect no_shear #
rgb_color-st-attrib $-1 $16 $-1 $6 0.5 1 1 #
lump $-1 $-1 $17 $6 #
transform $-1 1 0 0 0 1 0 0 0 1 -686.15926171300498 497.02094254339676 166.21196011035232 1 no_rotate no_reflect no_shear #
face $18 $19 $20 $7 $-1 $21 reversed single #
shell $-1 $-1 $-1 $22 $-1 $9 #
model_id-kcp-attrib $-1 $-1 $11 $6 1 990628425 270 722337795 1 #
shell $-1 $-1 $-1 $23 $-1 $12 #
model_id-kcp-attrib $-1 $-1 $-1 $14 1 990628425 60 725352449 2 #
face $24 $25 $26 $7 $-1 $27 forward single #
loop $-1 $28 $29 $14 #
cone-surface $-1 -123.3418311435659 -4.1419585148603883e-013 24.999999999999769 1 3.3581133638589189e-015 1.8375871570913689e-015 -2.0148680183153515e-014 6.0000000000000009 -1.6407667128483119e-031 1 I I 0 1 0.60000000000000009 forward I I I I #
face $-1 $30 $31 $15 $-1 $32 forward single #
face $-1 $33 $34 $17 $-1 $35 reversed single #
model_id-kcp-attrib $-1 $-1 $-1 $19 1 990628425 60 725352449 3 #
face $36 $37 $38 $7 $-1 $39 forward single #
loop $-1 $40 $41 $19 #
torus-surface $-1 8.8817841970012523e-015 2.982603820686086e-029 10 0 -9.4534296819655597e-047 1 40 10 -3.3581133638589185e-015 1 -2.7346111880805194e-032 forward_v I I I I #
loop $-1 $-1 $42 $14 #
coedge $-1 $29 $29 $43 $44 reversed $20 $-1 #
face $-1 $45 $46 $15 $-1 $47 reversed single #
loop $-1 $-1 $48 $22 #
plane-surface $-1 0 0 50.000000000000185 0 0 1 1 0 0 forward_v I I I I #
face $-1 $49 $50 $17 $-1 $35 reversed single #
loop $-1 $-1 $51 $23 #
cone-surface $-1 25 -0.0013438318661656012 0 1 3.6051119737099629e-016 -7.2736413246621624e-016 -1.3531120425600679e-014 49.638694583963442 5.9999999999998233 1 I I 0 1 49.999999999999993 forward I I I I #
model_id-kcp-attrib $-1 $-1 $-1 $25 1 990628425 60 725352449 4 #
face $52 $53 $54 $7 $-1 $55 reversed single #
loop $-1 $56 $43 $25 #
cone-surface $-1 8.8817841970012523e-015 2.982603820686086e-029 -4.3790577010150533e-045 0 -9.4534296819655597e-047 1 -1.6790566819294592e-013 50 -1.3673055940402597e-030 1 I I 0 1 5 forward I I I I #
loop $-1 $-1 $57 $19 #
coedge $-1 $41 $41 $58 $59 forward $26 $-1 #
coedge $-1 $42 $42 $60 $61 reversed $28 $-1 #
coedge $-1 $43 $43 $29 $44 forward $38 $-1 #
edge $-1 $62 0 $62 3.6199394427704323 $43 $63 forward 7 unknown #
face $-1 $64 $65 $15 $-1 $66 reversed single #
loop $-1 $-1 $67 $30 #
plane-surface $-1 0 0 -50.000000000000185 0 0 1 1 0 0 forward_v I I I I #
coedge $-1 $68 $69 $70 $71 forward $31 $-1 #
face $-1 $72 $73 $17 $-1 $35 reversed single #
loop $-1 $-1 $74 $33 #
coedge $-1 $75 $76 $77 $78 reversed $34 $-1 #
model_id-kcp-attrib $-1 $79 $-1 $37 1 990628425 60 725352449 8 #
face $80 $81 $82 $7 $-1 $83 forward single #
loop $-1 $84 $85 $37 #
plane-surface $-1 1.0658141036401479e-013 7.1054273576010385e-014 -5.4491750526999548e-044 0 -9.4534296819655597e-047 1 -3.3581133638589187e-014 10 -2.7346111880805194e-031 forward_v I I I I #
loop $-1 $86 $87 $25 #
coedge $-1 $57 $57 $88 $89 forward $40 $-1 #
coedge $-1 $58 $58 $41 $59 reversed $84 $-1 #
edge $90 $91 -3.1415926535897998 $91 3.1415926535897865 $58 $92 forward 7 unknown #
coedge $-1 $60 $60 $42 $61 forward $82 $-1 #
edge $-1 $93 0 $93 3.6315051264601563 $60 $94 forward 7 unknown #
vertex $-1 $44 $95 #
intcurve-curve $-1 forward { surfintcur full nubs 3 periodic 17 
	0 3 0.22624701691580199 2 0.45249403383160397 2 0.67873944726210833 2 0.90498486069261275 2 
	1.1312302741231171 2 1.3574756875536216 2 1.5837227044694191 2 1.8099697213852166 2 2.0362167383010217 2 
	2.2624637552168267 2 2.4887091686473299 2 2.7149545820778331 2 2.9411999955083363 2 3.1674454089388395 2 
	3.3936924258546357 2 3.6199394427704323 3 
	-49.638694583963442 5.9999999999998348 24.999999999999901 
	-49.638694583963442 5.9999999999998348 25.754156723052578 
	-49.657654174784859 5.8491326437964188 26.558080337923435 
	-49.725980526868327 5.2365858033028143 28.036138476155283 
	-49.774343755441436 4.7749457954718295 28.710335578766486 
	-49.865005579931896 3.7103393513837024 29.774942022854603 
	-49.913216421319191 3.0361406060933023 30.236584984796213 
	-49.981193659303187 1.558076916450744 30.849133997549583 
	-49.999999999999993 0.75415137810147126 30.999999999999908 
	-50 -0.75415137810189103 30.999999999999908 
	-49.981193659303173 -1.5580769164511556 30.849133997549565 
	-49.913216421319156 -3.0361406060937091 30.236584984796167 
	-49.865005579931882 -3.7103393513841039 29.774942022854557 
	-49.774343755441407 -4.7749457954722034 28.710335578766429 
	-49.725980526868284 -5.2365858033031731 28.03613847615523 
	-49.657654174784824 -5.8491326437967537 26.558080337923418 
	-49.6386945839634 -6.000000000000167 25.754156723052564 
	-49.6386945839634 -6.000000000000167 24.245843276947223 
	-49.657654174784824 -5.8491326437967475 23.441919662076348 
	-49.725980526868284 -5.2365858033031252 21.963861523844486 
	-49.774343755441407 -4.7749457954721306 21.28966442123328 
	-49.865005579931882 -3.7103393513839888 20.225057977145163 
	-49.913216421319177 -3.0361406060935883 19.763415015203563 
	-49.981193659303173 -1.5580769164510291 19.150866002450208 
	-50 -0.75415137810176103 18.999999999999893 
	-50 0.75415137810159316 18.999999999999915 
	-49.981193659303187 1.5580769164508577 19.150866002450254 
	-49.913216421319163 3.0361406060933991 19.763415015203648 
	-49.865005579931896 3.7103393513837881 20.225057977145269 
	-49.774343755441429 4.7749457954718793 21.28966442123339 
	-49.725980526868327 5.2365858033028454 21.963861523844589 
	-49.657654174784859 5.8491326437964268 23.441919662076405 
	-49.638694583963442 5.9999999999998348 24.245843276947245 
	-49.638694583963442 5.9999999999998348 24.999999999999901 
	0.0026876637323663788 
	cone -123.3418311435659 -4.1419585148603883e-013 24.999999999999769 1 3.3581133638589189e-015 1.8375871570913689e-015 -2.0148680183153515e-014 6.0000000000000009 -1.6407667128483119e-031 1 I I 0 1 0.60000000000000009 forward I I I I 
	cone 8.8817841970012523e-015 2.982603820686086e-029 -4.3790577010150533e-045 0 -9.4534296819655597e-047 1 -1.6790566819294592e-013 50 -1.3673055940402597e-030 1 I I 0 1 5 forward I I I I 
	nullbs 
	nullbs 
	I I 
	0 
	0 
	0 
	} I I #
face $96 $97 $98 $15 $-1 $99 reversed single #
loop $-1 $-1 $100 $45 #
plane-surface $-1 0 -50.001343831866336 0 0 1 0 0 0 1 forward_v I I I I #
coedge $-1 $101 $102 $103 $104 forward $46 $-1 #
coedge $-1 $105 $48 $106 $107 forward $31 $-1 #
coedge $-1 $48 $105 $108 $109 forward $31 $-1 #
coedge $-1 $110 $111 $48 $71 reversed $112 $-1 #
edge $-1 $113 -50.001343831866336 $114 50.001343831866336 $70 $115 forward 7 unknown #
face $-1 $116 $117 $17 $-1 $118 reversed single #
loop $-1 $-1 $119 $49 #
coedge $-1 $120 $121 $119 $122 forward $50 $-1 #
coedge $-1 $123 $51 $124 $125 reversed $34 $-1 #
coedge $-1 $51 $123 $126 $127 forward $34 $-1 #
coedge $-1 $128 $129 $51 $78 forward $130 $-1 #
edge $-1 $131 -1.4505064444001121 $132 1.6910862091896812 $77 $133 forward 7 unknown #
model_id-kcp-attrib $-1 $-1 $52 $37 1 990628425 60 725352449 5 #
model_id-kcp-attrib $-1 $-1 $-1 $53 1 990628425 60 725352449 6 #
face $134 $-1 $135 $7 $-1 $136 forward single #
loop $-1 $137 $60 $53 #
cone-surface $-1 8.8817841970012523e-015 2.982603820686086e-029 -4.3790577010150533e-045 0 -9.4534296819655597e-047 1 8.3952834096472961e-014 -25 6.8365279702012985e-031 1 I I 0 -1 2.5 forward I I I I #
loop $-1 $-1 $58 $37 #
coedge $-1 $85 $85 $138 $139 reversed $54 $-1 #
loop $-1 $-1 $88 $25 #
coedge $-1 $87 $87 $140 $141 forward $56 $-1 #
coedge $-1 $88 $88 $57 $89 reversed $86 $-1 #
edge $-1 $142 -3.1415926535897865 $142 3.1415926535897998 $88 $143 forward 7 unknown #
attrib_edge_convexity-kcp-attrib $-1 $144 $-1 $59 3 #
vertex $-1 $59 $145 #
ellipse-curve $-1 8.8817841970012523e-015 2.982603820686086e-029 -4.3790577010150533e-045 0 -9.4534296819655597e-047 1 4.1364320344310726e-013 -40 1.0938444752320701e-030 1 I I #
vertex $-1 $61 $146 #
intcurve-curve $-1 forward { surfintcur full nubs 3 periodic 17 
	0 3 0.22698248367528695 2 0.4539649673505739 2 0.68092062448280866 2 0.90787628161504341 2 
	1.1348319387472783 2 1.3617875958795129 2 1.5887700795547957 2 1.8157525632300784 2 2.0427350469053689 2 
	2.2697175305806589 2 2.4966731877128927 2 2.723628844845126 2 2.9505845019773593 2 3.1775401591095931 2 
	3.4045226427848747 2 3.6315051264601563 3 
	-24.269322199023211 5.9999999999999201 24.99999999999995 
	-24.269322199023211 5.9999999999999201 24.243391721082332 
	-24.308385401694487 5.8481848808249648 23.438470347403918 
	-24.447780235518003 5.2349695598887962 21.961128839266056 
	-24.545916140621316 4.7737208511482017 21.288439476909669 
	-24.728813029676161 3.7116232902458335 20.2263419160073 
	-24.825700436216593 3.0389076746503694 19.765044214439406 
	-24.962214696238693 1.5614734794963456 19.151793184724475 
	-25 0.75651885710732325 18.999999999999943 
	-24.999999999999993 -0.7565188571075756 18.999999999999954 
	-24.962214696238682 -1.5614734794965957 19.151793184724497 
	-24.825700436216565 -3.0389076746506092 19.765044214439449 
	-24.728813029676115 -3.7116232902460666 20.226341916007353 
	-24.545916140621273 -4.7737208511484077 21.288439476909716 
	-24.447780235517964 -5.2349695598889854 21.961128839266099 
	-24.308385401694448 -5.8481848808251353 23.438470347403943 
	-24.269322199023165 -6.0000000000000817 24.24339172108234 
	-24.269322199023165 -6.0000000000000817 25.756608278917593 
	-24.308385401694451 -5.8481848808251256 26.561529652596011 
	-24.447780235517982 -5.2349695598889365 28.038871160733891 
	-24.545916140621294 -4.7737208511483349 28.711560523090291 
	-24.728813029676143 -3.7116232902459512 29.773658083992636 
	-24.825700436216579 -3.0389076746504893 30.234955785560523 
	-24.962214696238686 -1.5614734794964682 30.848206815275443 
	-24.999999999999993 -0.75651885710744449 30.999999999999961 
	-24.999999999999993 0.75651885710744482 30.999999999999943 
	-24.962214696238689 1.5614734794964651 30.848206815275397 
	-24.825700436216582 3.0389076746504711 30.234955785560441 
	-24.728813029676143 3.7116232902459192 29.77365808399253 
	-24.545916140621308 4.773720851148255 28.711560523090181 
	-24.44778023551801 5.2349695598888255 28.038871160733795 
	-24.308385401694494 5.8481848808249728 26.561529652595954 
	-24.269322199023211 5.9999999999999201 25.756608278917561 
	-24.269322199023211 5.9999999999999201 24.99999999999995 
	0.0027997608972201832 
	cone -123.3418311435659 -4.1419585148603883e-013 24.999999999999769 1 3.3581133638589189e-015 1.8375871570913689e-015 -2.0148680183153515e-014 6.0000000000000009 -1.6407667128483119e-031 1 I I 0 1 0.60000000000000009 forward I I I I 
	cone 8.8817841970012523e-015 2.982603820686086e-029 -4.3790577010150533e-045 0 -9.4534296819655597e-047 1 8.3952834096472961e-014 -25 6.8365279702012985e-031 1 I I 0 -1 2.5 forward I I I I 
	nullbs 
	nullbs 
	I I 
	0 
	0 
	0 
	} I I #
point $-1 -49.638694583963442 5.9999999999998348 24.999999999999901 #
model_id-kcp-attrib $-1 $-1 $-1 $64 1 990628425 60 725352450 3 #
face $-1 $147 $148 $15 $-1 $149 reversed single #
loop $-1 $-1 $150 $64 #
plane-surface $-1 -25 0 0 1 0 0 0 0 -1 forward_v I I I I #
coedge $-1 $151 $108 $152 $153 forward $65 $-1 #
coedge $-1 $154 $67 $151 $155 forward $46 $-1 #
coedge $-1 $67 $154 $156 $157 forward $46 $-1 #
coedge $-1 $111 $110 $67 $104 reversed $112 $-1 #
edge $-1 $158 -50.001343831866336 $159 50.001343831866336 $103 $160 forward 7 unknown #
coedge $-1 $69 $68 $161 $162 forward $31 $-1 #
coedge $-1 $163 $164 $68 $107 reversed $148 $-1 #
edge $-1 $114 -25 $165 25 $106 $166 forward 7 unknown #
coedge $-1 $100 $167 $69 $109 reversed $65 $-1 #
edge $-1 $168 -25 $113 25 $108 $169 forward 7 unknown #
coedge $-1 $103 $70 $167 $170 forward $112 $-1 #
coedge $-1 $70 $103 $163 $171 reversed $112 $-1 #
loop $-1 $-1 $110 $147 #
vertex $-1 $71 $172 #
vertex $-1 $71 $173 #
straight-curve $-1 25 0 50.000000000000185 0 1 0 I I #
face $-1 $174 $175 $17 $-1 $176 forward single #
loop $-1 $-1 $177 $72 #
plane-surface $-1 0 0 -50.000000000000185 0 0 1 1 0 0 forward_v I I I I #
coedge $-1 $178 $179 $180 $122 reversed $73 $-1 #
coedge $-1 $126 $74 $181 $182 reversed $50 $-1 #
coedge $-1 $74 $126 $183 $184 reversed $50 $-1 #
edge $-1 $185 -50.000000000000028 $186 -1.7763568394002505e-014 $180 $187 forward 7 unknown #
coedge $-1 $76 $75 $188 $189 reversed $34 $-1 #
coedge $-1 $190 $191 $192 $125 forward $193 $-1 #
edge $-1 $194 -50.000000000000036 $131 -3.5527136788005009e-014 $124 $195 forward 7 unknown #
coedge $-1 $121 $120 $177 $127 reversed $50 $-1 #
edge $-1 $196 -49.999999999999964 $132 3.5527136788005009e-014 $177 $197 forward 7 unknown #
coedge $-1 $198 $77 $199 $200 reversed $130 $-1 #
coedge $-1 $77 $198 $190 $201 reversed $130 $-1 #
loop $-1 $-1 $77 $202 #
vertex $-1 $201 $203 #
vertex $-1 $204 $205 #
ellipse-curve $-1 25 -0.0013438318661656012 -3.5238350830217811e-034 -1 0 0 -1.3531120425600679e-014 49.638694583963442 5.9999999999998233 1 I I #
model_id-kcp-attrib $-1 $-1 $-1 $81 1 990628425 60 725352449 7 #
loop $-1 $206 $140 $81 #
plane-surface $-1 -1.5902388399594467e-013 50 50 0 -9.4534296819655597e-047 1 -3.3581133638589187e-014 10 -2.7346111880805194e-031 forward_v I I I I #
loop $-1 $207 $208 $53 #
coedge $-1 $138 $138 $85 $139 forward $207 $-1 #
edge $209 $210 -3.1415926535897931 $210 3.1415926535897931 $138 $211 forward 7 unknown #
coedge $-1 $140 $140 $87 $141 reversed $135 $-1 #
edge $-1 $212 0 $212 6.2831853071795862 $87 $213 forward 7 unknown #
vertex $-1 $89 $214 #
ellipse-curve $-1 8.8817841970012523e-015 2.982603820686086e-029 10 0 9.4534296819655597e-047 -1 5.1705400430388413e-013 -50 1.3673055940400877e-030 1 I I #
convexity-sys-attrib $-1 $-1 $90 $59 #
point $-1 -1.254427503573555e-013 40 -1.0938444752322121e-030 #
point $-1 -24.269322199023211 5.9999999999999201 24.99999999999995 #
face $215 $-1 $112 $15 $-1 $216 reversed single #
loop $-1 $-1 $163 $97 #
plane-surface $-1 0 50.001343831866336 0 0 -1 0 0 0 -1 forward_v I I I I #
coedge $-1 $217 $161 $164 $218 forward $98 $-1 #
coedge $-1 $167 $100 $101 $155 reversed $65 $-1 #
coedge $-1 $161 $217 $100 $153 reversed $98 $-1 #
edge $-1 $168 -50.000000000000185 $219 50.000000000000185 $152 $220 forward 7 unknown #
coedge $-1 $102 $101 $217 $221 forward $46 $-1 #
edge $-1 $159 -25 $219 25 $151 $222 forward 7 unknown #
coedge $-1 $164 $163 $102 $157 reversed $148 $-1 #
edge $-1 $223 -25 $158 25 $156 $224 forward 7 unknown #
vertex $-1 $104 $225 #
vertex $-1 $170 $226 #
straight-curve $-1 25 0 -50.000000000000185 0 -1 0 I I #
coedge $-1 $150 $152 $105 $162 reversed $98 $-1 #
edge $-1 $165 -50.001343831866336 $168 50.001343831866336 $161 $227 forward 7 unknown #
coedge $-1 $156 $106 $111 $171 forward $148 $-1 #
coedge $-1 $106 $156 $150 $218 reversed $148 $-1 #
vertex $-1 $107 $228 #
straight-curve $-1 0 50.001343831866336 50.000000000000185 -1 0 0 I I #
coedge $-1 $108 $151 $110 $170 reversed $65 $-1 #
vertex $-1 $162 $229 #
straight-curve $-1 0 -50.001343831866336 50.000000000000185 1 0 0 I I #
edge $-1 $113 -50.000000000000185 $159 50.000000000000185 $110 $230 forward 7 unknown #
edge $-1 $114 -50.000000000000185 $158 50.000000000000185 $111 $231 forward 7 unknown #
point $-1 25 -50.001343831866336 50.000000000000185 #
point $-1 25 50.001343831866336 50.000000000000185 #
face $-1 $202 $232 $17 $-1 $233 reversed single #
loop $-1 $-1 $192 $116 #
plane-surface $-1 0 0 50.000000000000185 0 0 1 1 0 0 forward_v I I I I #
coedge $-1 $234 $235 $236 $127 forward $117 $-1 #
coedge $-1 $237 $119 $238 $239 reversed $73 $-1 #
coedge $-1 $119 $237 $240 $241 reversed $73 $-1 #
coedge $-1 $242 $243 $244 $122 forward $245 $-1 #
coedge $-1 $246 $247 $120 $182 forward $248 $-1 #
edge $-1 $132 1.6910862091896812 $186 3.2618825359845776 $181 $133 forward 7 unknown #
coedge $-1 $249 $250 $121 $184 forward $251 $-1 #
edge $-1 $185 3.0213027711950087 $196 4.5920990979899052 $183 $252 forward 7 unknown #
vertex $-1 $253 $254 #
vertex $-1 $255 $256 #
straight-curve $-1 25.000000000000018 -50.001343831866336 -1.2621774483536189e-029 1 3.6051119737099629e-016 -7.2736413246621634e-016 I I #
coedge $-1 $257 $258 $123 $189 forward $259 $-1 #
edge $-1 $196 -1.6910862091896812 $194 1.4505064444001121 $188 $252 forward 7 unknown #
coedge $-1 $260 $124 $129 $201 forward $193 $-1 #
coedge $-1 $124 $260 $257 $261 forward $193 $-1 #
coedge $-1 $262 $263 $237 $125 reversed $175 $-1 #
loop $-1 $-1 $124 $264 #
vertex $-1 $265 $266 #
straight-curve $-1 25.000000000000036 -0.0013438318661656012 50.000000000000185 1 3.6051119737099629e-016 -7.2736413246621634e-016 I I #
vertex $-1 $267 $268 #
straight-curve $-1 24.999999999999964 -0.0013438318661656012 -50.000000000000185 1 3.6051119737099629e-016 -7.2736413246621634e-016 I I #
coedge $-1 $129 $128 $269 $270 reversed $130 $-1 #
coedge $-1 $236 $271 $128 $200 forward $272 $-1 #
edge $-1 $273 -50.001343831866336 $132 0.0013438318661656012 $128 $274 forward 7 unknown #
edge $-1 $131 -0.0013438318661656012 $275 50.001343831866336 $129 $276 forward 7 unknown #
face $-1 $277 $130 $17 $-1 $233 reversed single #
point $-1 25 -0.0013438318661656012 50.000000000000185 #
edge $-1 $132 0.0013438318661656012 $278 50.001343831866336 $247 $274 forward 7 unknown #
point $-1 25 -0.0013438318661656012 -50.000000000000185 #
loop $-1 $-1 $279 $81 #
loop $-1 $-1 $138 $53 #
coedge $-1 $208 $208 $279 $280 forward $137 $-1 #
attrib_edge_convexity-kcp-attrib $-1 $281 $-1 $139 1 #
vertex $-1 $139 $282 #
ellipse-curve $-1 8.8817841970012523e-015 2.982603820686086e-029 -4.3790577010150533e-045 0 9.4534296819655597e-047 -1 8.3952834096472961e-014 -25 6.8365279702012985e-031 1 I I #
vertex $-1 $141 $283 #
ellipse-curve $-1 8.8817841970012523e-015 2.982603820686086e-029 50 0 9.4534296819655597e-047 -1 -1.6790566819294592e-013 50 -1.3673055940402597e-030 1 I I #
point $-1 -1.5902388399594467e-013 50 10 #
model_id-kcp-attrib $-1 $-1 $-1 $147 1 990628425 60 725352450 2 #
plane-surface $-1 25 0 0 -1 0 0 0 0 1 forward_v I I I I #
coedge $-1 $152 $150 $154 $221 reversed $98 $-1 #
edge $-1 $165 -50.000000000000185 $223 50.000000000000185 $164 $284 forward 7 unknown #
vertex $-1 $221 $285 #
straight-curve $-1 -25 -50.001343831866336 0 0 0 -1 I I #
edge $-1 $219 -50.001343831866336 $223 50.001343831866336 $217 $286 forward 7 unknown #
straight-curve $-1 0 -50.001343831866336 -50.000000000000185 -1 0 0 I I #
vertex $-1 $157 $287 #
straight-curve $-1 0 50.001343831866336 -50.000000000000185 1 0 0 I I #
point $-1 25 50.001343831866336 -50.000000000000185 #
point $-1 25 -50.001343831866336 -50.000000000000185 #
straight-curve $-1 -25 0 50.000000000000185 0 -1 0 I I #
point $-1 -25 50.001343831866336 50.000000000000185 #
point $-1 -25 -50.001343831866336 50.000000000000185 #
straight-curve $-1 25 -50.001343831866336 0 0 0 -1 I I #
straight-curve $-1 25 50.001343831866336 0 0 0 -1 I I #
loop $-1 $-1 $240 $174 #
plane-surface $-1 25 0 0 -1 0 0 0 0 1 forward_v I I I I #
coedge $-1 $288 $177 $247 $204 forward $117 $-1 #
coedge $-1 $177 $288 $249 $289 forward $117 $-1 #
coedge $-1 $290 $199 $76 $127 reversed $272 $-1 #
coedge $-1 $179 $178 $75 $125 forward $73 $-1 #
coedge $-1 $291 $292 $178 $239 forward $293 $-1 #
edge $-1 $194 1.4505064444001121 $185 3.0213027711950087 $238 $252 forward 7 unknown #
coedge $-1 $294 $295 $179 $241 forward $232 $-1 #
edge $-1 $186 -3.0213027711950087 $131 -1.4505064444001121 $240 $133 forward 7 unknown #
coedge $-1 $296 $180 $295 $297 reversed $245 $-1 #
coedge $-1 $180 $296 $291 $298 forward $245 $-1 #
coedge $-1 $299 $300 $74 $122 reversed $301 $-1 #
loop $-1 $-1 $180 $302 #
coedge $-1 $247 $181 $300 $255 forward $248 $-1 #
coedge $-1 $181 $246 $234 $204 reversed $248 $-1 #
loop $-1 $-1 $181 $277 #
coedge $-1 $250 $183 $235 $289 reversed $251 $-1 #
coedge $-1 $183 $249 $299 $253 reversed $251 $-1 #
loop $-1 $-1 $183 $303 #
ellipse-curve $-1 -25 -0.0013438318661836268 3.636820662331081e-014 1 0 0 -1.3531120425600679e-014 49.638694583963442 5.9999999999998233 1 I I #
edge $-1 $185 -3.6368206623310829e-014 $304 50.000000000000185 $250 $305 forward 7 unknown #
point $-1 -25.000000000000007 -50.001343831866343 3.6368206623310829e-014 #
edge $-1 $186 -1.3111145716005626e-029 $278 50.000000000000185 $246 $306 forward 7 unknown #
point $-1 25 -50.001343831866336 1.3111145716005626e-029 #
coedge $-1 $307 $188 $191 $261 reversed $259 $-1 #
coedge $-1 $188 $307 $290 $267 reversed $259 $-1 #
loop $-1 $-1 $188 $308 #
coedge $-1 $191 $190 $309 $310 forward $193 $-1 #
edge $-1 $311 -50.001343831866336 $194 0.0013438318661836268 $257 $312 forward 7 unknown #
coedge $-1 $313 $192 $292 $265 forward $175 $-1 #
coedge $-1 $192 $313 $294 $314 forward $175 $-1 #
face $-1 $315 $193 $17 $-1 $176 forward single #
edge $-1 $194 0.0013438318661836268 $316 50.001343831866336 $292 $312 forward 7 unknown #
point $-1 -25 -0.0013438318661836268 50.000000000000185 #
edge $-1 $196 -0.0013438318661836268 $317 50.001343831866336 $258 $318 forward 7 unknown #
point $-1 -25 -0.0013438318661836268 -50.000000000000185 #
coedge $-1 $319 $309 $198 $270 forward $320 $-1 #
edge $-1 $275 -50.000000000000185 $273 50.000000000000185 $198 $321 forward 7 unknown #
coedge $-1 $199 $290 $319 $322 forward $272 $-1 #
loop $-1 $-1 $236 $315 #
vertex $-1 $200 $323 #
straight-curve $-1 25 0 -50.000000000000185 0 -1 0 I I #
vertex $-1 $201 $324 #
straight-curve $-1 25 0 50.000000000000185 0 1 0 I I #
face $-1 $303 $248 $17 $-1 $233 reversed single #
vertex $-1 $255 $325 #
coedge $-1 $279 $279 $208 $280 reversed $206 $-1 #
edge $-1 $326 -3.1415926535897931 $326 3.1415926535897931 $208 $327 forward 7 unknown #
convexity-sys-attrib $-1 $-1 $209 $139 #
point $-1 -7.5071049899471709e-014 25 -6.8365279702013423e-031 #
point $-1 -1.5902388399594467e-013 50 50 #
straight-curve $-1 -25 50.001343831866336 0 0 0 -1 I I #
point $-1 -25 -50.001343831866336 -50.000000000000185 #
straight-curve $-1 -25 0 -50.000000000000185 0 1 0 I I #
point $-1 -25 50.001343831866336 -50.000000000000185 #
coedge $-1 $235 $234 $328 $329 forward $117 $-1 #
edge $-1 $304 -50.001343831866336 $196 -0.0013438318661836268 $249 $318 forward 7 unknown #
coedge $-1 $271 $236 $258 $267 forward $272 $-1 #
coedge $-1 $292 $238 $243 $298 reversed $293 $-1 #
coedge $-1 $238 $291 $262 $265 reversed $293 $-1 #
loop $-1 $-1 $238 $330 #
coedge $-1 $295 $240 $263 $314 reversed $232 $-1 #
coedge $-1 $240 $294 $242 $297 forward $232 $-1 #
coedge $-1 $243 $242 $313 $331 reversed $245 $-1 #
edge $-1 $332 -50.000000000000185 $186 -1.3111145716005626e-029 $295 $306 forward 7 unknown #
edge $-1 $316 -50.000000000000185 $185 -3.6368206623310829e-014 $291 $305 forward 7 unknown #
coedge $-1 $328 $244 $250 $253 forward $301 $-1 #
coedge $-1 $244 $328 $246 $255 reversed $301 $-1 #
loop $-1 $-1 $244 $333 #
face $-1 $334 $245 $17 $-1 $335 reversed single #
face $-1 $308 $251 $17 $-1 $336 reversed single #
vertex $-1 $289 $337 #
straight-curve $-1 -25 -50.001343831866336 0 0 0 -1 I I #
straight-curve $-1 25 -50.001343831866336 0 0 0 -1 I I #
coedge $-1 $258 $257 $338 $339 forward $259 $-1 #
face $-1 $330 $259 $17 $-1 $336 reversed single #
coedge $-1 $269 $338 $260 $310 reversed $320 $-1 #
edge $-1 $275 -25 $311 25 $309 $340 forward 7 unknown #
vertex $-1 $310 $341 #
straight-curve $-1 -25 0 50.000000000000185 0 -1 0 I I #
coedge $-1 $263 $262 $296 $331 forward $175 $-1 #
edge $-1 $332 -50.001343831866336 $131 -0.0013438318661656012 $294 $276 forward 7 unknown #
face $-1 $302 $272 $17 $-1 $118 reversed single #
vertex $-1 $265 $342 #
vertex $-1 $322 $343 #
straight-curve $-1 -25 0 -50.000000000000185 0 1 0 I I #
coedge $-1 $338 $269 $271 $322 reversed $320 $-1 #
loop $-1 $-1 $269 $334 #
straight-curve $-1 25 50.001343831866336 0 0 0 -1 I I #
edge $-1 $317 -25 $273 25 $319 $344 forward 7 unknown #
point $-1 25 50.001343831866336 -50.000000000000185 #
point $-1 25 50.001343831866336 50.000000000000185 #
point $-1 25 -50.001343831866336 -50.000000000000185 #
vertex $-1 $280 $345 #
ellipse-curve $-1 8.8817841970012523e-015 2.982603820686086e-029 50 0 -9.4534296819655597e-047 1 8.3952834096472961e-014 -25 6.8365279702012985e-031 1 I I #
coedge $-1 $300 $299 $288 $329 reversed $301 $-1 #
edge $-1 $278 -25 $304 25 $328 $346 forward 7 unknown #
face $-1 $333 $293 $17 $-1 $336 reversed single #
edge $-1 $316 -25 $332 25 $296 $347 forward 7 unknown #
vertex $-1 $314 $348 #
face $-1 $264 $301 $17 $-1 $335 reversed single #
face $-1 $-1 $320 $17 $-1 $349 reversed single #
plane-surface $-1 0 -50.001343831866336 0 0 1 0 0 0 1 forward_v I I I I #
plane-surface $-1 -25 0 0 1 0 0 0 0 -1 forward_v I I I I #
point $-1 -25 -50.001343831866336 -50.000000000000185 #
coedge $-1 $309 $319 $307 $339 reversed $320 $-1 #
edge $-1 $311 -50.000000000000185 $317 50.000000000000185 $338 $350 forward 7 unknown #
straight-curve $-1 0 50.001343831866336 50.000000000000185 -1 0 0 I I #
point $-1 -25 50.001343831866336 50.000000000000185 #
point $-1 -25 -50.001343831866336 50.000000000000185 #
point $-1 -25 50.001343831866336 -50.000000000000185 #
straight-curve $-1 0 50.001343831866336 -50.000000000000185 1 0 0 I I #
point $-1 -7.5071049899471709e-014 25 50 #
straight-curve $-1 0 -50.001343831866336 -50.000000000000185 -1 0 0 I I #
straight-curve $-1 0 -50.001343831866336 50.000000000000185 1 0 0 I I #
point $-1 25 -50.001343831866336 50.000000000000185 #
plane-surface $-1 0 50.001343831866336 0 0 -1 0 0 0 -1 forward_v I I I I #
straight-curve $-1 -25 50.001343831866336 0 0 0 -1 I I #
End-of-ACIS-data 