600 0 1 0           
90 GICL ACIS Healer - Source: /gicl/data5/repository/new/Models/VDS_IronCAD/spindle.sat - 6 0 18 ACIS 6.0.3 Solaris 24 Sat Apr 13 20:27:32 2002 
1 9.999999999999999547e-07 1.000000000000000036e-10 
body $-1 $1 $-1 $-1 #
lump $-1 $-1 $2 $0 #
shell $-1 $-1 $-1 $3 $-1 $1 #
face $-1 $4 $5 $2 $-1 $6 reversed single #
face $-1 $7 $8 $2 $-1 $9 reversed single #
loop $-1 $10 $11 $3 #
cone-surface $-1 -406.1592624535023788 -917.9804012884699205 166.2119767061151094 -7.657177843178875065e-16 1 2.664535259100363864e-15 -1.479927291825333416e-13 -1.14575016141316155e-13 43 1 I I 0 -1 4.299999999999999822 forward I I I I #
face $-1 $12 $13 $2 $-1 $14 reversed single #
loop $-1 $15 $16 $4 #
plane-surface $-1 -406.1592624535026061 -232.9804012884696363 80.08511190108605149 -7.657177843178875065e-16 1 2.664535259100363864e-15 3.441691376337985275e-14 2.664535259100375697e-14 -10 forward_v I I I I #
loop $-1 $-1 $17 $3 #
coedge $-1 $11 $11 $18 $19 reversed $5 $-1 #
face $-1 $20 $21 $2 $-1 $22 reversed single #
loop $-1 $-1 $23 $7 #
cone-surface $-1 -372.1592624534357583 304.5195987115272374 166.2119767061184632 1 -8.466022479412804724e-14 3.441691376337766761e-15 4.302114220422472128e-14 3.330669073875462679e-14 -12.49999999999997335 1 I I 0 1 1.249999999999997335 forward I I I I #
loop $-1 $-1 $18 $4 #
coedge $-1 $16 $16 $24 $25 reversed $8 $-1 #
coedge $-1 $17 $17 $26 $27 reversed $10 $-1 #
coedge $-1 $18 $18 $11 $19 forward $15 $-1 #
edge $-1 $28 -3.141592653589792228 $28 3.141592653589794004 $11 $29 forward 7 unknown #
face $-1 $30 $31 $2 $-1 $32 reversed single #
loop $-1 $-1 $33 $12 #
plane-surface $-1 -372.1592624534357583 304.5195987115271805 178.7119767061184916 -3.441691376337985275e-15 -2.664535259100375697e-15 1 10 -8.466022479412804724e-13 3.441691376337766919e-14 forward_v I I I I #
coedge $-1 $34 $35 $36 $37 reversed $13 $-1 #
coedge $-1 $24 $24 $16 $25 forward $38 $-1 #
edge $-1 $39 -3.141592653589766471 $39 3.141592653589819761 $24 $40 reversed 7 unknown #
coedge $-1 $26 $26 $17 $27 forward $41 $-1 #
edge $-1 $42 -3.141592653589794004 $42 3.141592653589792228 $26 $43 reversed 7 unknown #
vertex $-1 $19 $44 #
ellipse-curve $-1 -406.1592624535028904 -232.9804012884699205 166.2119767061169284 -7.657177843178875065e-16 1 2.664535259100363864e-15 -1.479927291825333416e-13 -1.14575016141316155e-13 43 1 I I #
face $-1 $45 $46 $2 $-1 $47 forward single #
loop $-1 $-1 $48 $20 #
plane-surface $-1 -372.1592624534249012 432.0195987115272374 153.7119767061188327 3.441691376337970681e-15 2.490382626729024515e-15 -1 -10 8.466022479412804724e-13 -3.441691376337766919e-14 forward_v I I I I #
coedge $-1 $49 $50 $51 $52 reversed $21 $-1 #
coedge $-1 $53 $23 $54 $55 reversed $13 $-1 #
coedge $-1 $23 $56 $57 $58 reversed $13 $-1 #
coedge $-1 $57 $59 $23 $37 forward $60 $-1 #
edge $-1 $61 -37.89482080110566642 $62 -18.94741040055284031 $36 $63 reversed 7 unknown #
loop $-1 $64 $24 $65 #
vertex $-1 $25 $66 #
ellipse-curve $-1 -406.1592624535020946 -232.9804012884698636 166.2119767061169284 7.657177843178875065e-16 -1 -2.664535259100363864e-15 1.514344205588715541e-13 1.172395514004166821e-13 -44.00000000000005684 1 I I #
loop $-1 $-1 $26 $67 #
vertex $-1 $27 $68 #
ellipse-curve $-1 -406.1592624535023788 -917.9804012884700342 166.2119767061151094 2.603304941409256834e-15 1 2.664535259100375303e-15 -1.479927291825333416e-13 -1.14575016141316155e-13 43 1 I I #
point $-1 -406.1592624535027767 -232.9804012884697499 123.2119767061169284 #
face $-1 $69 $70 $2 $-1 $71 forward single #
loop $-1 $-1 $72 $30 #
plane-surface $-1 -372.1592624534316656 353.0195988663846265 166.2119766286899107 1 -8.466022479412804724e-14 3.441691376337766761e-15 3.441691376337985275e-14 2.664535259100375697e-14 -10 forward_v I I I I #
coedge $-1 $73 $54 $59 $74 reversed $31 $-1 #
coedge $-1 $75 $33 $56 $76 reversed $21 $-1 #
coedge $-1 $33 $75 $77 $78 reversed $21 $-1 #
coedge $-1 $79 $57 $33 $52 forward $60 $-1 #
edge $-1 $80 79.99999999999658939 $81 207.5000000000000568 $51 $82 reversed 7 unknown #
coedge $-1 $56 $34 $83 $84 reversed $13 $-1 #
coedge $-1 $48 $85 $34 $55 forward $31 $-1 #
edge $-1 $86 0 $61 8.187083331208498294 $34 $87 forward 7 unknown #
coedge $-1 $35 $53 $49 $76 forward $13 $-1 #
coedge $-1 $51 $36 $35 $58 forward $60 $-1 #
edge $-1 $62 -18.94741040055284031 $80 -0 $57 $88 reversed 7 unknown #
coedge $-1 $36 $79 $48 $74 forward $60 $-1 #
loop $-1 $-1 $59 $45 #
vertex $-1 $37 $89 #
vertex $-1 $37 $90 #
intcurve-curve $-1 forward { surfintcur full nubs 3 open 9 
	18.94741040055284031 3 21.31555558047177357 2 23.68370076039070682 2 26.05184594030964007 2 28.41999112022857332 2 
	30.7886985404478466 2 33.15740596066711987 2 35.52611338088639314 2 37.89482080110566642 3 
	-362.1592624535030041 292.0195987115263847 166.2119767061184348 
	-362.1592624535030041 292.0195987115263847 165.422594979478788 
	-362.1810537391556863 292.0955806809704995 164.6076205022736474 
	-362.2699643662491553 292.4140682030359244 162.9891962358503577 
	-362.3370273598721951 292.6564911555236677 162.1857270979118084 
	-362.5057300701000713 293.2956991922053476 160.6470791303877377 
	-362.6073684784078068 293.6929919839690228 159.9105947565054748 
	-362.8260621632499578 294.6092913605998547 158.5498206190601707 
	-362.9429116207287507 295.1283637745412989 157.9255421134399739 
	-363.1694919075896451 296.2332952685940199 156.8206106193873381 
	-363.287300506740678 296.8576353116432642 156.3015229763811078 
	-363.509468952742111 298.2183728329549695 155.3852815196224242 
	-363.6136014565890946 298.954759084553757 154.988055922670469 
	-363.7873658013743352 300.4932133344483418 154.3489227435826479 
	-363.8569561321091896 301.2965898684366266 154.1065077122386526 
	-363.9494044575701537 302.9149872714146454 153.7879923346822295 
	-363.9721791222272032 303.7300295714535423 153.7119767061184916 
	-363.9721791222272032 304.5195987115266121 153.7119767061184916 
	0.0003553305508973451043 
	cone -372.1592624534357583 304.5195987115272374 166.2119767061184632 1 -8.466022479412804724e-14 3.441691376337766761e-15 4.302114220422472128e-14 3.330669073875462679e-14 -12.49999999999997335 1 I I 0 1 1.249999999999997335 forward I I I I 
	cone -406.1592624535032314 224.5195987115300795 166.2119767061181506 -2.603304941409256834e-15 -1 -2.664535259100375303e-15 1.514344205588715541e-13 1.172395514004166821e-13 -44.00000000000005684 1 I I -0 -1 4.400000000000005684 forward I I I I 
	nullbs 
	nullbs 
	I I 
	0 
	0 
	0 
	} I I #
loop $-1 $-1 $91 $65 #
face $-1 $67 $38 $2 $-1 $92 forward single #
point $-1 -406.1592624535010714 -232.980401288470091 210.2119767061170137 #
face $-1 $93 $41 $2 $-1 $94 forward single #
point $-1 -406.1592624535022651 -917.9804012884699205 123.2119767061151094 #
face $-1 $95 $96 $2 $-1 $97 forward single #
loop $-1 $60 $98 $45 #
cone-surface $-1 -406.1592624535032314 224.5195987115300795 166.2119767061181506 -2.603304941409256834e-15 -1 -2.664535259100375303e-15 1.514344205588715541e-13 1.172395514004166821e-13 -44.00000000000005684 1 I I 0 1 4.400000000000005684 forward I I I I #
coedge $-1 $99 $83 $85 $100 forward $46 $-1 #
coedge $-1 $85 $48 $101 $102 reversed $31 $-1 #
edge $-1 $103 -207.5000000000000568 $61 -79.99999999999658939 $59 $104 reversed 7 unknown #
coedge $-1 $50 $49 $105 $106 reversed $21 $-1 #
edge $-1 $107 -5.684341886080801487e-14 $80 8.187083331208498294 $49 $108 forward 7 unknown #
coedge $-1 $109 $110 $50 $78 forward $111 $-1 #
edge $-1 $81 -25.18708333124021692 $112 -17.00000000004212097 $77 $113 reversed 7 unknown #
coedge $-1 $59 $51 $110 $114 forward $60 $-1 #
vertex $-1 $58 $115 #
vertex $-1 $114 $116 #
straight-curve $-1 -363.9721791222275442 224.519598711529909 178.7119767061182927 -2.603304941409256834e-15 -1 -2.664535259100375303e-15 I I #
coedge $-1 $72 $105 $53 $84 forward $46 $-1 #
edge $-1 $107 -3.14159265358979134 $86 -2.664535259100282217e-15 $53 $117 reversed 7 unknown #
coedge $-1 $54 $73 $72 $100 reversed $31 $-1 #
vertex $-1 $100 $118 #
straight-curve $-1 -372.1592624534357014 304.5195987115272374 153.7119767061184916 1 -8.466022479412804724e-14 3.441691376337766761e-15 I I #
intcurve-curve $-1 forward { surfintcur full nubs 3 open 9 
	0 3 2.368707420219276827 2 4.737414840438553654 2 7.106122260657830481 2 9.474829680877107307 2 
	11.84297486079604056 2 14.21112004071497381 2 16.57926522063390706 2 18.94741040055284031 3 
	-363.9721791222273168 304.5195987115264984 178.7119767061184348 
	-363.9721791222273168 303.7300295714534286 178.7119767061184348 
	-363.9494044575702674 302.914987271414418 178.6359610775547253 
	-363.8569561321093033 301.2965898684363992 178.3174456999983022 
	-363.7873658013744489 300.4932133344482281 178.0750306686542785 
	-363.6136014565892083 298.9547590845536433 177.4358974895664574 
	-363.5094689527421679 298.2183728329547989 177.0386718926144454 
	-363.2873005067407348 296.8576353116430937 176.1224304358557617 
	-363.1694919075897587 296.2332952685939063 175.6033427928495598 
	-362.9429116207288644 295.1283637745411852 174.4984112987968956 
	-362.8260621632500715 294.6092913605997978 173.8741327931766989 
	-362.6073684784079205 293.692991983968966 172.5133586557313947 
	-362.505730070100185 293.2956991922052339 171.7768742818491319 
	-362.3370273598721951 292.6564911555236677 170.238226314325118 
	-362.2699643662491553 292.4140682030359244 169.4347571763865403 
	-362.1810537391556863 292.0955806809704995 167.8163329099632222 
	-362.1592624535030041 292.0195987115263847 167.0013584327580816 
	-362.1592624535030041 292.0195987115263847 166.2119767061184348 
	0.0003553305508973451043 
	cone -372.1592624534357583 304.5195987115272374 166.2119767061184632 1 -8.466022479412804724e-14 3.441691376337766761e-15 4.302114220422472128e-14 3.330669073875462679e-14 -12.49999999999997335 1 I I 0 1 1.249999999999997335 forward I I I I 
	cone -406.1592624535032314 224.5195987115300795 166.2119767061181506 -2.603304941409256834e-15 -1 -2.664535259100375303e-15 1.514344205588715541e-13 1.172395514004166821e-13 -44.00000000000005684 1 I I -0 -1 4.400000000000005684 forward I I I I 
	nullbs 
	nullbs 
	I I 
	0 
	0 
	0 
	} I I #
point $-1 -363.9721791222272032 304.5195987115266121 153.71197670611852 #
point $-1 -362.1592624534367815 292.0195987115264415 166.2119767061184916 #
coedge $-1 $91 $91 $119 $120 forward $64 $-1 #
cone-surface $-1 -406.1592624535027198 -467.9804012884702047 166.2119767061163031 -2.603304941409256834e-15 -1 -2.664535259100375303e-15 1.514344205588715541e-13 1.172395514004166821e-13 -44.00000000000005684 1 I I 0 1 4.400000000000005684 forward I I I I #
face $-1 $121 $111 $2 $-1 $122 forward single #
plane-surface $-1 -406.1592624535023219 -917.9804012884699205 144.2119767061152231 -2.603304941409256834e-15 -1 -2.664535259100375303e-15 3.441691376337985275e-14 2.664535259100375697e-14 -10 forward_v I I I I #
face $-1 $65 $123 $2 $-1 $124 forward single #
loop $-1 $125 $126 $69 #
cone-surface $-1 -406.1592624535030609 -0.4804012884699204733 166.2119767061175537 -2.603304941409256834e-15 -1 -2.664535259100375303e-15 2.151057110211240797e-13 1.665334536937734811e-13 -62.5 1 I I 0 1 6.25 forward I I I I #
coedge $-1 $98 $98 $127 $128 reversed $70 $-1 #
coedge $-1 $105 $72 $109 $129 reversed $46 $-1 #
edge $-1 $86 -88.00000007742869457 $130 39.4999999225741476 $85 $131 reversed 7 unknown #
coedge $-1 $110 $109 $73 $102 forward $111 $-1 #
edge $-1 $130 17.00000000003683454 $103 25.18708333123493048 $101 $132 reversed 7 unknown #
vertex $-1 $102 $133 #
straight-curve $-1 -363.9721791222274305 224.5195987115300227 153.7119767061183495 2.603304941409256834e-15 1 2.664535259100375303e-15 I I #
coedge $-1 $83 $99 $75 $106 forward $46 $-1 #
edge $-1 $112 -103.2499999225740908 $107 24.25000007742875141 $75 $134 reversed 7 unknown #
vertex $-1 $106 $135 #
straight-curve $-1 -372.1592624534357583 304.5195987115271805 178.7119767061184916 1 -8.466022479412804724e-14 3.441691376337766761e-15 I I #
coedge $-1 $101 $77 $99 $129 forward $111 $-1 #
coedge $-1 $77 $101 $79 $114 reversed $111 $-1 #
loop $-1 $-1 $101 $93 #
vertex $-1 $78 $136 #
straight-curve $-1 -389.1592624534671359 432.0195987115300795 178.7119767061187758 1 -2.603304941409265906e-15 3.441691376337978176e-15 I I #
edge $-1 $81 1.858854464089201963 $103 7.565923496680177607 $79 $137 forward 7 unknown #
point $-1 -363.97217912222726 304.5195987115264984 178.7119767061184632 #
point $-1 -363.9721791222269189 432.0195987115299658 178.7119767061188327 #
ellipse-curve $-1 -372.1592624534357583 304.5195987115272374 166.2119767061184632 -1 8.466022479412804724e-14 -3.441691376337766761e-15 4.302114220422472128e-14 3.330669073875462679e-14 -12.49999999999997335 1 I I #
point $-1 -372.1592624534357014 304.5195987115272374 153.7119767061184916 #
coedge $-1 $119 $119 $91 $120 reversed $123 $-1 #
edge $-1 $138 -6.283185307179550705 $138 3.531518511966745761e-14 $91 $139 reversed 7 unknown #
face $-1 $-1 $140 $2 $-1 $141 forward single #
plane-surface $-1 -406.1592624534987408 432.0195987115301932 144.2119767061188327 2.603304941409256834e-15 1 2.664535259100375303e-15 -3.441691376337985275e-14 -2.664535259100375697e-14 10 forward_v I I I I #
loop $-1 $142 $119 $95 #
plane-surface $-1 -406.1592624534998208 -17.980401288470091 112.961976706117639 -2.603304941409256834e-15 -1 -2.664535259100375303e-15 3.441691376337985275e-14 2.664535259100375697e-14 -10 forward_v I I I I #
loop $-1 $-1 $143 $69 #
coedge $-1 $126 $126 $144 $145 reversed $96 $-1 #
coedge $-1 $127 $127 $98 $128 forward $146 $-1 #
edge $-1 $147 -6.283185307179498302 $147 8.828291633087482848e-14 $127 $148 reversed 7 unknown #
edge $-1 $112 -23.50000003871429044 $130 1.49999996128570956 $109 $149 forward 7 unknown #
vertex $-1 $102 $150 #
straight-curve $-1 -372.159262453428255 392.5195987889559319 153.7119767061187474 -8.466022479412803462e-14 -1 -2.490382626729315999e-15 I I #
straight-curve $-1 -389.1592624534617926 432.0195987115301364 153.7119767061187758 -1 2.603304941409265906e-15 -3.44169137633796437e-15 I I #
point $-1 -363.9721791222268621 432.0195987115300795 153.7119767061188611 #
straight-curve $-1 -372.1592624534337688 328.7695987889559319 178.7119767061185485 8.466022479412803462e-14 1 2.664535259100667181e-15 I I #
point $-1 -372.1592624534358151 304.5195987115271805 178.7119767061184916 #
point $-1 -372.1592624534250149 432.0195987115300227 178.7119767061188327 #
ellipse-curve $-1 -406.159262453502663 432.0195987115301364 166.2119767061186906 -2.603304941409256834e-15 -1 -2.664535259100375303e-15 1.514344205588715541e-13 1.172395514004166821e-13 -44.00000000000005684 1 I I #
vertex $-1 $120 $151 #
ellipse-curve $-1 -406.1592624535015261 -17.98040128847020469 166.2119767061174969 2.603304941409256834e-15 1 2.664535259100375303e-15 1.514344205588715541e-13 1.172395514004166821e-13 -44.00000000000005684 1 I I #
loop $-1 $146 $152 $121 #
plane-surface $-1 -406.1592624534997071 17.019598711529909 112.9619767061177242 2.603304941409256834e-15 1 2.664535259100375303e-15 -3.441691376337985275e-14 -2.664535259100375697e-14 10 forward_v I I I I #
loop $-1 $-1 $144 $95 #
coedge $-1 $143 $143 $152 $153 forward $125 $-1 #
coedge $-1 $144 $144 $126 $145 forward $142 $-1 #
edge $-1 $154 5.021849602826479056e-14 $154 6.283185307179636858 $144 $155 forward 7 unknown #
loop $-1 $-1 $127 $121 #
vertex $-1 $128 $156 #
ellipse-curve $-1 -406.1592624535037999 17.01959871152976689 166.2119767061176105 2.603304941409256834e-15 1 2.664535259100375303e-15 1.514344205588715541e-13 1.172395514004166821e-13 -44.00000000000005684 1 I I #
straight-curve $-1 -372.159262453424958 432.0195987115300795 155.2119766674045422 3.441691376337992375e-15 2.664535259100366231e-15 -1 I I #
point $-1 -372.159262453424958 432.0195987115300795 153.7119767061188327 #
point $-1 -406.1592624534998208 -17.980401288470091 122.2119767061174684 #
coedge $-1 $152 $152 $143 $153 reversed $140 $-1 #
edge $-1 $157 4.93090013264918552e-14 $157 6.28318530717963597 $143 $158 forward 7 unknown #
vertex $-1 $145 $159 #
ellipse-curve $-1 -406.1592624535031177 -17.98040128847023311 166.2119767061174969 -2.603304941409256834e-15 -1 -2.664535259100375303e-15 2.151057110211240797e-13 1.665334536937734811e-13 -62.5 1 I I #
point $-1 -406.159262453499764 17.019598711529909 122.2119767061175537 #
vertex $-1 $153 $160 #
ellipse-curve $-1 -406.1592624535030041 17.01959871152976689 166.2119767061176105 -2.603304941409256834e-15 -1 -2.664535259100375303e-15 2.151057110211240797e-13 1.665334536937734811e-13 -62.5 1 I I #
point $-1 -406.159262453499764 -17.98040128846974994 103.7119767061175253 #
point $-1 -406.1592624534997071 17.019598711529909 103.7119767061176105 #
End-of-ACIS-data 