105 282 1 0                             
body $-1 $1 $-1 $-1 #
lump $-1 $-1 $2 $0 #
shell $-1 $-1 $-1 $3 $1 #
face $-1 $4 $5 $2 $-1 $6 forward single #
face $-1 $7 $8 $2 $-1 $9 forward single #
loop $-1 $10 $11 $3 #
plane-surface $-1 -27.3622047244094 0 0 0 0 -1 -1 0 0 0 #
face $-1 $12 $13 $2 $-1 $14 forward single #
loop $-1 $-1 $15 $4 #
plane-surface $-1 0 0 0 0 -1 0 0 0 -1 0 #
loop $-1 $16 $17 $3 #
coedge $-1 $18 $19 $20 $21 1 $5 $-1 #
face $-1 $22 $23 $2 $-1 $24 forward single #
loop $-1 $-1 $25 $7 #
plane-surface $-1 0 0 0 1 0 0 0 0 -1 0 #
coedge $-1 $26 $27 $28 $29 1 $8 $-1 #
loop $-1 $-1 $30 $3 #
coedge $-1 $17 $17 $31 $32 1 $10 $-1 #
coedge $-1 $33 $11 $34 $35 1 $5 $-1 #
coedge $-1 $11 $36 $37 $38 1 $5 $-1 #
coedge $-1 $39 $40 $11 $21 0 $41 $-1 #
edge $-1 $42 $43 $11 $44 0 #
face $-1 $45 $46 $2 $-1 $47 forward single #
loop $-1 $-1 $48 $12 #
plane-surface $-1 -27.3622047244094 0 0 -1 0 0 0 -0 1 0 #
coedge $-1 $49 $50 $51 $52 1 $13 $-1 #
coedge $-1 $51 $15 $53 $54 1 $8 $-1 #
coedge $-1 $15 $51 $55 $56 0 $8 $-1 #
coedge $-1 $57 $58 $15 $29 0 $23 $-1 #
edge $-1 $59 $60 $15 $61 0 #
coedge $-1 $30 $30 $62 $63 1 $16 $-1 #
coedge $-1 $31 $31 $17 $32 0 $64 $-1 #
edge $-1 $65 $65 $17 $66 0 #
coedge $-1 $67 $18 $68 $69 0 $5 $-1 #
coedge $-1 $70 $71 $18 $35 0 $72 $-1 #
edge $-1 $73 $42 $18 $74 0 #
coedge $-1 $19 $75 $76 $77 0 $5 $-1 #
coedge $-1 $78 $79 $19 $38 0 $80 $-1 #
edge $-1 $43 $81 $19 $82 0 #
coedge $-1 $83 $20 $79 $84 0 $41 $-1 #
coedge $-1 $20 $83 $70 $85 0 $41 $-1 #
loop $-1 $-1 $40 $86 #
vertex $-1 $21 $87 #
vertex $-1 $21 $88 #
ellipse-curve $-1 -13.6811023622047 10.8267716535433 0 0 0 -1 7.23216613669697e-16 -3.93700787401575 0 1 #
face $-1 $89 $90 $2 $-1 $91 forward single #
loop $-1 $-1 $92 $22 #
cone-surface $-1 -22.8346456692913 9.05511811023622 0 0 0 -1 -4.52755905511811 0 0 1 0 1 0 #
coedge $-1 $58 $57 $92 $93 1 $23 $-1 #
coedge $-1 $94 $25 $95 $96 1 $13 $-1 #
coedge $-1 $25 $94 $97 $98 0 $13 $-1 #
coedge $-1 $27 $26 $25 $52 0 $8 $-1 #
edge $-1 $99 $100 $51 $101 0 #
coedge $-1 $102 $95 $26 $54 0 $5 $-1 #
edge $-1 $99 $59 $53 $103 0 #
coedge $-1 $97 $104 $27 $56 1 $105 $-1 #
edge $-1 $100 $60 $27 $106 0 #
coedge $-1 $48 $28 $104 $107 0 $23 $-1 #
coedge $-1 $28 $48 $102 $108 1 $23 $-1 #
vertex $-1 $54 $109 #
vertex $-1 $29 $110 #
straight-curve $-1 -27.3622047244094 0 0 0 0 1 #
coedge $-1 $62 $62 $30 $63 0 $111 $-1 #
edge $-1 $112 $112 $30 $113 0 #
loop $-1 $-1 $31 $114 #
vertex $-1 $32 $115 #
ellipse-curve $-1 -5.80708661417323 6.49606299212599 0 0 0 -1 -1.72366626257944e-16 2.81496062992126 0 1 #
coedge $-1 $95 $33 $116 $117 1 $5 $-1 #
coedge $-1 $118 $119 $33 $69 1 $120 $-1 #
edge $-1 $73 $121 $33 $122 0 #
coedge $-1 $123 $34 $40 $85 1 $72 $-1 #
coedge $-1 $34 $123 $118 $124 1 $72 $-1 #
loop $-1 $-1 $123 $125 #
vertex $-1 $35 $126 #
straight-curve $-1 -9.74409448818898 0 0 0 -1 0 #
coedge $-1 $36 $102 $127 $128 1 $5 $-1 #
coedge $-1 $129 $130 $36 $77 1 $120 $-1 #
edge $-1 $131 $81 $36 $132 0 #
coedge $-1 $133 $37 $130 $134 0 $80 $-1 #
coedge $-1 $37 $133 $39 $84 1 $80 $-1 #
loop $-1 $-1 $37 $135 #
vertex $-1 $77 $136 #
straight-curve $-1 -17.6181102362205 0 0 0 1 0 #
coedge $-1 $40 $39 $137 $138 1 $41 $-1 #
edge $-1 $43 $139 $39 $140 0 #
edge $-1 $141 $42 $40 $142 0 #
face $-1 $125 $41 $2 $-1 $143 reversed single #
point $-1 -9.74409448818898 10.8267716535433 0 #
point $-1 -17.6181102362205 10.8267716535433 0 #
face $-1 $144 $120 $2 $-1 $145 forward single #
loop $-1 $-1 $146 $45 #
cone-surface $-1 -4.52755905511811 9.05511811023622 0 0 0 -1 -4.52755905511811 0 0 1 0 1 0 #
coedge $-1 $147 $127 $48 $93 0 $46 $-1 #
edge $-1 $148 $149 $48 $150 0 #
coedge $-1 $50 $49 $151 $152 0 $13 $-1 #
coedge $-1 $53 $67 $49 $96 0 $5 $-1 #
edge $-1 $153 $99 $95 $154 0 #
coedge $-1 $155 $55 $50 $98 1 $105 $-1 #
edge $-1 $156 $100 $50 $157 0 #
vertex $-1 $96 $158 #
vertex $-1 $52 $159 #
straight-curve $-1 0 0 0 0 0 1 #
coedge $-1 $75 $53 $58 $108 0 $5 $-1 #
straight-curve $-1 -27.3622047244094 0 0 -1 0 0 #
coedge $-1 $55 $160 $57 $107 1 $105 $-1 #
loop $-1 $-1 $104 $161 #
straight-curve $-1 -27.3622047244094 0 11.6141732283465 -1 0 0 #
edge $-1 $60 $149 $57 $162 0 #
edge $-1 $59 $148 $102 $163 0 #
point $-1 -27.3622047244094 0 0 #
point $-1 -27.3622047244094 0 11.6141732283465 #
loop $-1 $-1 $62 $164 #
vertex $-1 $63 $165 #
ellipse-curve $-1 -21.5551181102362 6.49606299212599 0 0 0 -1 -1.72366626257944e-16 2.81496062992126 0 1 #
face $-1 $164 $166 $2 $-1 $167 reversed single #
point $-1 -5.80708661417323 9.31102362204724 0 #
coedge $-1 $146 $151 $67 $117 0 $90 $-1 #
edge $-1 $153 $121 $67 $168 0 #
coedge $-1 $169 $68 $71 $124 0 $120 $-1 #
coedge $-1 $68 $170 $146 $171 1 $120 $-1 #
loop $-1 $-1 $118 $89 #
vertex $-1 $69 $172 #
straight-curve $-1 0 13.5826771653543 0 1 0 0 #
coedge $-1 $71 $70 $173 $174 1 $72 $-1 #
edge $-1 $73 $175 $118 $176 0 #
face $-1 $177 $72 $2 $-1 $178 reversed single #
point $-1 -9.74409448818898 13.5826771653543 0 #
coedge $-1 $92 $179 $75 $128 0 $46 $-1 #
edge $-1 $131 $148 $75 $180 0 #
coedge $-1 $170 $76 $179 $181 0 $120 $-1 #
coedge $-1 $76 $169 $78 $134 1 $120 $-1 #
vertex $-1 $128 $182 #
straight-curve $-1 0 13.5826771653543 0 1 0 0 #
coedge $-1 $79 $78 $183 $184 0 $80 $-1 #
edge $-1 $81 $185 $130 $186 0 #
face $-1 $114 $80 $2 $-1 $187 reversed single #
point $-1 -17.6181102362205 13.5826771653543 0 #
coedge $-1 $188 $188 $83 $138 0 $189 $-1 #
edge $-1 $141 $139 $137 $190 0 #
vertex $-1 $191 $192 #
straight-curve $-1 -17.6181102362205 10.8267716535433 0 0 0 1 #
vertex $-1 $191 $193 #
straight-curve $-1 -9.74409448818898 10.8267716535433 0 0 0 -1 #
cone-surface $-1 -13.6811023622047 10.8267716535433 0 0 0 1 3.93700787401575 0 0 1 0 1 0 #
face $-1 $86 $189 $2 $-1 $194 forward single #
plane-surface $-1 0 13.5826771653543 0 0 1 0 0 0 1 0 #
coedge $-1 $195 $116 $119 $171 0 $90 $-1 #
coedge $-1 $179 $92 $160 $196 0 $46 $-1 #
vertex $-1 $108 $197 #
vertex $-1 $93 $198 #
straight-curve $-1 -27.3622047244094 9.05511811023622 11.6141732283465 0 0 1 #
coedge $-1 $116 $195 $94 $152 1 $90 $-1 #
edge $-1 $153 $156 $94 $199 0 #
vertex $-1 $117 $200 #
straight-curve $-1 0 0 0 0 -1 0 #
coedge $-1 $201 $97 $195 $202 1 $105 $-1 #
vertex $-1 $152 $203 #
straight-curve $-1 0 0 11.6141732283465 0 -1 0 #
point $-1 0 0 0 #
point $-1 0 0 11.6141732283465 #
coedge $-1 $104 $201 $147 $196 1 $105 $-1 #
face $-1 $204 $205 $2 $-1 $206 reversed single #
straight-curve $-1 -27.3622047244094 0 11.6141732283465 0 1 0 #
straight-curve $-1 -27.3622047244094 0 0 0 1 0 #
face $-1 $161 $207 $2 $-1 $208 reversed single #
point $-1 -21.5551181102362 9.31102362204724 0 #
loop $-1 $64 $209 $114 #
cone-surface $-1 -5.80708661417323 6.49606299212599 0 0 0 1 2.81496062992126 0 0 1 0 1 0 #
ellipse-curve $-1 -4.52755905511811 9.05511811023622 0 0 0 1 3.20146771009657 3.20146771009657 0 1 #
coedge $-1 $130 $118 $210 $211 0 $120 $-1 #
coedge $-1 $119 $129 $201 $212 0 $120 $-1 #
edge $-1 $121 $213 $146 $214 0 #
point $-1 -4.52755905511811 13.5826771653543 0 #
coedge $-1 $215 $210 $123 $174 0 $216 $-1 #
edge $-1 $175 $141 $123 $217 0 #
vertex $-1 $124 $218 #
straight-curve $-1 -9.74409448818898 13.5826771653543 0 0 0 1 #
face $-1 $135 $216 $2 $-1 $219 reversed single #
plane-surface $-1 -9.74409448818898 0 0 1 0 0 0 0 -1 0 #
coedge $-1 $127 $147 $129 $181 1 $46 $-1 #
ellipse-curve $-1 -22.8346456692913 9.05511811023622 0 0 0 1 -3.20146771009657 3.20146771009657 0 1 #
edge $-1 $131 $220 $179 $221 0 #
point $-1 -22.8346456692913 13.5826771653543 0 #
coedge $-1 $210 $215 $133 $184 1 $216 $-1 #
edge $-1 $185 $139 $183 $222 0 #
vertex $-1 $211 $223 #
straight-curve $-1 -17.6181102362205 13.5826771653543 0 0 0 1 #
plane-surface $-1 -17.6181102362205 0 8.46456692913386 -1 0 0 0 -0 1 0 #
coedge $-1 $137 $137 $215 $191 1 $189 $-1 #
loop $-1 $-1 $188 $144 #
ellipse-curve $-1 -13.6811023622047 10.8267716535433 8.46456692913386 0 0 -1 7.23216613669697e-16 -3.93700787401575 0 1 #
edge $-1 $141 $139 $188 $224 0 #
point $-1 -17.6181102362205 10.8267716535433 8.46456692913386 #
point $-1 -9.74409448818898 10.8267716535433 8.46456692913386 #
plane-surface $-1 -13.6811023622047 10.8267716535433 8.46456692913386 0 0 -1 -1 0 0 0 #
coedge $-1 $151 $146 $155 $202 0 $90 $-1 #
edge $-1 $149 $220 $147 $225 0 #
point $-1 -27.3622047244094 9.05511811023622 0 #
point $-1 -27.3622047244094 9.05511811023622 11.6141732283465 #
straight-curve $-1 0 9.05511811023622 0 0 0 1 #
point $-1 0 9.05511811023622 0 #
coedge $-1 $160 $155 $170 $212 1 $105 $-1 #
edge $-1 $213 $156 $195 $226 0 #
point $-1 0 9.05511811023622 11.6141732283465 #
face $-1 $227 $228 $2 $-1 $229 reversed single #
loop $-1 $230 $231 $161 #
plane-surface $-1 -27.3622047244094 0 11.6141732283465 0 0 -1 -1 0 0 0 #
loop $-1 $111 $232 $164 #
cone-surface $-1 -21.5551181102362 6.49606299212599 0 0 0 1 2.81496062992126 0 0 1 0 1 0 #
coedge $-1 $209 $209 $233 $234 1 $166 $-1 #
coedge $-1 $173 $183 $169 $211 1 $216 $-1 #
edge $-1 $175 $185 $169 $235 0 #
edge $-1 $220 $213 $170 $236 0 #
vertex $-1 $171 $237 #
straight-curve $-1 -4.52755905511811 13.5826771653543 11.6141732283465 0 0 1 #
coedge $-1 $183 $173 $188 $191 0 $216 $-1 #
loop $-1 $-1 $173 $177 #
straight-curve $-1 -9.74409448818898 -1.45807411046074 4.2350700303839 0 -0.945530770203964 -0.325532736598793 #
point $-1 -9.74409448818898 13.5826771653543 9.41338582677165 #
plane-surface $-1 -9.74409448818898 -1.45807411046074 4.2350700303839 0 -0.325532736598793 0.945530770203964 1 0 -0 0 #
vertex $-1 $196 $238 #
straight-curve $-1 -22.8346456692913 13.5826771653543 0 0 0 1 #
straight-curve $-1 -17.6181102362205 -1.45807411046074 4.2350700303839 0 -0.945530770203964 -0.325532736598793 #
point $-1 -17.6181102362205 13.5826771653543 9.41338582677165 #
straight-curve $-1 0 10.8267716535433 8.46456692913386 -1 0 0 #
ellipse-curve $-1 -22.8346456692913 9.05511811023622 11.6141732283465 0 0 -1 -3.20146771009657 3.20146771009657 0 1 #
ellipse-curve $-1 -4.52755905511811 9.05511811023622 11.6141732283465 0 0 -1 3.20146771009657 3.20146771009657 0 1 #
face $-1 $239 $240 $2 $-1 $241 reversed single #
loop $-1 $242 $233 $204 #
plane-surface $-1 -5.80708661417323 6.49606299212599 6.2992125984252 0 0 -1 -1 0 0 0 #
loop $-1 $105 $243 $161 #
coedge $-1 $231 $231 $244 $245 0 $205 $-1 #
coedge $-1 $232 $232 $246 $247 1 $207 $-1 #
coedge $-1 $233 $233 $209 $234 0 $228 $-1 #
edge $-1 $248 $248 $209 $249 0 #
straight-curve $-1 0 13.5826771653543 9.41338582677165 -1 0 0 #
straight-curve $-1 0 13.5826771653543 11.6141732283465 1 0 0 #
point $-1 -4.52755905511811 13.5826771653543 11.6141732283465 #
point $-1 -22.8346456692913 13.5826771653543 11.6141732283465 #
face $-1 $250 $251 $2 $-1 $252 reversed single #
loop $-1 $253 $254 $227 #
cone-surface $-1 -5.80708661417323 6.49606299212599 6.2992125984252 0 0 1 4.29133858267717 0 0 1 0 1 0 #
loop $-1 $-1 $255 $204 #
coedge $-1 $243 $243 $256 $257 0 $230 $-1 #
coedge $-1 $244 $244 $231 $245 1 $258 $-1 #
edge $-1 $259 $259 $231 $260 0 #
coedge $-1 $246 $246 $232 $247 0 $251 $-1 #
edge $-1 $261 $261 $232 $262 0 #
vertex $-1 $234 $263 #
ellipse-curve $-1 -5.80708661417323 6.49606299212599 6.2992125984252 0 0 -1 -1.25888866449791 2.51777732899583 0 1 #
face $-1 $-1 $264 $2 $-1 $265 reversed single #
loop $-1 $266 $246 $239 #
plane-surface $-1 -21.5551181102362 6.49606299212599 6.2992125984252 0 0 -1 -1 0 0 0 #
loop $-1 $-1 $256 $227 #
coedge $-1 $254 $254 $255 $267 0 $240 $-1 #
coedge $-1 $255 $255 $254 $267 1 $242 $-1 #
coedge $-1 $256 $256 $243 $257 1 $253 $-1 #
edge $-1 $268 $268 $243 $269 0 #
loop $-1 $-1 $244 $250 #
vertex $-1 $245 $270 #
ellipse-curve $-1 -21.5551181102362 6.49606299212599 11.6141732283465 0 0 -1 -2.62768702966657e-16 4.29133858267717 0 1 #
vertex $-1 $247 $271 #
ellipse-curve $-1 -21.5551181102362 6.49606299212599 6.2992125984252 0 0 -1 -1.2588886644979 2.51777732899583 0 1 #
point $-1 -7.06597527867114 9.01384032112181 6.2992125984252 #
loop $-1 $258 $272 $250 #
cone-surface $-1 -21.5551181102362 6.49606299212599 6.2992125984252 0 0 1 4.29133858267717 0 0 1 0 1 0 #
loop $-1 $-1 $273 $239 #
edge $-1 $274 $274 $255 $275 0 #
vertex $-1 $257 $276 #
ellipse-curve $-1 -5.80708661417323 6.49606299212599 11.6141732283465 0 0 -1 -2.62768702966657e-16 4.29133858267717 0 1 #
point $-1 -21.5551181102362 10.7874015748031 11.6141732283465 #
point $-1 -22.8140067747341 9.01384032112181 6.2992125984252 #
coedge $-1 $272 $272 $273 $277 0 $264 $-1 #
coedge $-1 $273 $273 $272 $277 1 $266 $-1 #
vertex $-1 $267 $278 #
ellipse-curve $-1 -5.80708661417323 6.49606299212599 6.2992125984252 0 0 -1 -2.62768702966657e-16 4.29133858267717 0 1 #
point $-1 -5.80708661417323 10.7874015748031 11.6141732283465 #
edge $-1 $279 $279 $273 $280 0 #
point $-1 -5.80708661417323 10.7874015748031 6.2992125984252 #
vertex $-1 $277 $281 #
ellipse-curve $-1 -21.5551181102362 6.49606299212599 6.2992125984252 0 0 -1 -2.62768702966657e-16 4.29133858267717 0 1 #
point $-1 -21.5551181102362 10.7874015748031 6.2992125984252 #
