**ABCDEFGHIJKLMNOPQRSTUVWXYZabcdefghijklmnopqrstuvwxyz**************************
**PARASOLID !"#$%&'()*+,-./:;<=>?@[\]^_`{|}~0123456789**************************
**PART1;MC=sparc;MC_MODEL=sun4c;MC_ID=chaos;OS=SunOS;OS_RELEASE=4.1.2;FRU=sdl_pa
rasolid_test_sparc;APPL=unknown;SITE=sdl-cambridge-u.k.;USER=brown;FORMAT=text;G
UISE=transmit;KEY=retainer;FILE=retainer.xmt_txt;DATE=13-feb-1992;
**PART2;SCH=SCH_401021_4039;USFLD_SIZE=0;
**PART3;
**END_OF_HEADER*****************************************************************
T50 : TRANSMIT FILE created by modeller version 40102115 SCH_401021_40390 12 1 1
82 2 3 0 0 0 1e3 1e-8 4 2 0 5 0 1 6 1e-8 0 0 81 1 2 182 7 1 0 0 0 0 8 70 3 0 1 0
 0 4 1 20 4 9 9 1 102 8 4 retainer13 6 1 0 1 0 10 11 12 13 14 15 14 10 -1 0 16 0
 17 6 18 +16 11 -2 0 19 0 20 21 18 12 -3 0 22 0 23 24 51 13 181 0 25 26 0 0 +-.5
475 .165 .16 0 0 1 .109 1 0 0 31 14 162 0 27 28 0 0 +1e-8 -.5475 .165 .16 0 0 -1
 -1 0 0 .109 29 15 123 0 29 30 0 -.5475 .274 .16 18 29 -207 0 31 32 0 15 29 30 1
22 0 32 33 15 -.5475 .274 .295 18 32 -203 0 34 35 29 30 29 33 121 0 35 36 30 -.5
79475772078247 .228951544156494 .16 18 35 -199 0 37 38 32 33 29 36 120 0 38 39 3
3 -.1475 .274 .16 18 38 -195 0 40 41 35 36 29 39 119 0 41 42 36 -.1475 .274 .295
 18 41 -191 0 43 44 38 39 29 42 118 0 44 45 39 -.179475772078247 .22895154415649
4 .16 18 44 -187 0 46 47 41 42 29 45 117 0 47 48 42 -.5475 .2365 0 18 47 -167 0
 49 50 44 45 29 48 116 0 50 51 45 -.1475 .2365 0 18 50 -159 0 52 53 47 48 29 51
 115 0 53 54 48 -.2475 .345 .2391 18 53 -131 0 55 56 50 51 29 54 114 0 56 57 51
 -.2475 .275 .215 18 56 -127 0 58 59 53 54 29 57 113 0 59 60 54 -.4475 .275 .215
 18 59 -123 0 61 62 56 57 29 60 112 0 62 63 57 -.4475 .345 .2391 18 62 -119 0 64
 65 59 60 29 63 111 0 65 66 60 -.4475 .345 0 18 65 -103 0 67 68 62 63 29 66 110
 0 68 69 63 -.2475 .345 0 18 68 -99 0 70 71 65 66 29 69 109 0 71 72 66 -.4475 .2
75 0 18 71 -79 0 73 74 68 69 29 72 108 0 74 75 69 -.2475 .275 0 18 74 -75 0 76 7
7 71 72 29 75 107 0 77 78 72 -.115 .345 0 18 77 -47 0 79 80 74 75 29 78 106 0 80
 81 75 0 .23 .295 18 80 -43 0 82 83 77 78 29 81 105 0 83 84 78 -.695 .23 0 18 83
 -39 0 19 85 80 81 29 84 104 0 85 86 81 -.58 .345 .295 18 85 -35 0 87 88 83 84 2
9 86 103 0 88 89 84 -.695 0 .295 18 88 -31 0 90 91 85 86 29 89 102 0 91 92 86 -.
695 .23 .295 18 91 -27 0 93 94 88 89 29 92 101 0 94 95 89 -.115 .345 .295 18 94
 -23 0 96 97 91 92 29 95 100 0 97 98 92 0 0 .295 18 97 -19 0 99 100 94 95 29 98
 99 0 100 101 95 0 0 0 18 100 -15 0 102 103 97 98 29 101 98 0 103 104 98 0 .23 0
 18 103 -11 0 105 23 100 101 29 104 97 0 23 24 101 -.58 .345 0 18 23 -7 0 106 12
 103 104 29 24 96 0 12 0 104 -.695 0 0 17 106 17 67 19 23 107 108 0 15 17 67 0 7
6 10 109 17 67 17 73 106 65 110 111 0 17 19 17 106 22 83 112 11 0 17 107 113 114
 115 83 106 108 0 16 108 -58 0 107 116 117 118 16 116 -54 0 87 119 108 120 16 11
7 -62 0 96 108 121 122 31 118 138 0 108 120 122 0 +1e-8 -.58 .23 0 0 0 1 1 0 0 .
115 31 120 137 0 116 123 118 0 +1e-8 -.58 .23 .295 0 0 -1 -1 0 0 .115 30 122 139
 0 117 118 124 0 +1e-8 -.115 .345 .295 0 0 1 31 124 140 0 121 122 125 0 +1e-8 -.
115 .23 .295 0 0 -1 -1 0 0 .115 16 121 -66 0 126 117 127 124 31 125 141 0 127 12
4 128 0 +1e-8 -.115 .23 0 0 0 1 1 0 0 .115 16 127 -70 0 129 121 111 125 30 128 1
42 0 111 125 130 0 +1e-8 0 .345 0 1 0 0 16 111 -86 0 67 127 131 128 31 130 143 0
 131 128 132 0 +1e-8 -.3475 .275 0 0 0 -1 -1 0 0 .1 16 131 -110 0 133 111 134 13
0 30 132 144 0 134 130 135 0 +1e-8 -.4475 0 0 0 1 0 16 134 -118 0 136 131 137 13
2 30 135 145 0 137 132 138 0 +1e-8 -.2475 .345 0 0 0 1 16 137 -122 0 55 134 139
 135 30 138 146 0 139 135 140 0 +1e-8 -.2475 0 0 0 -1 0 16 139 -126 0 141 137 14
2 138 31 140 147 0 142 138 143 0 +1e-8 -.3475 .275 .215 0 0 -1 -1 0 0 .1 16 142
 -130 0 61 139 144 140 30 143 148 0 144 140 145 0 +1e-8 -.4475 .275 0 0 0 1 16 1
44 -134 0 146 142 147 143 30 145 149 0 147 143 148 0 +1e-8 -.2475 .275 0 0 0 -1
 16 147 -138 0 149 144 150 145 30 148 150 0 150 145 151 0 +1e-8 0 .275 .215 -1 0
 0 16 150 -166 0 152 147 153 148 30 151 151 0 153 148 154 0 +1e-8 0 .345 .2391 -
1 0 0 16 153 -170 0 64 150 155 151 30 154 152 0 155 151 156 0 +1e-8 -.4475 .345
 0 0 0 1 16 155 -178 0 157 153 158 154 30 156 153 0 158 154 159 0 +1e-8 -.4475 -
.0370350824057027 .107570778771751 0 -.945530770203964 -.325532736598793 16 158
 -190 0 160 155 161 156 30 159 154 0 161 156 162 0 +1e-8 -.2475 -.03703508240570
27 .107570778771751 0 -.945530770203964 -.325532736598793 16 161 -194 0 163 158
 164 159 31 162 155 0 164 159 165 0 +1e-8 -.1475 .165 0 0 0 -1 -1 0 0 .0715 16 1
64 -218 0 166 161 167 162 31 165 156 0 167 162 168 0 +1e-8 -.5475 .165 0 0 0 -1
 -1 0 0 .0715 16 167 -226 0 169 164 170 165 31 168 157 0 170 165 171 0 +1e-8 -.1
475 .165 .295 0 0 -1 -1 0 0 .109 16 170 -246 0 43 167 172 168 31 171 158 0 172 1
68 173 0 +1e-8 -.1475 .165 .16 0 0 -1 -1 0 0 .0715 16 172 -250 0 174 170 175 171
 31 173 159 0 175 171 176 0 +1e-8 -.1475 .165 .16 0 0 -1 -1 0 0 .109 16 175 -254
 0 177 172 178 173 31 176 160 0 178 173 28 0 +1e-8 -.5475 .165 .295 0 0 -1 -1 0
 0 .109 16 178 -258 0 34 175 179 176 31 28 161 0 179 176 14 0 +1e-8 -.5475 .165
 .16 0 0 -1 -1 0 0 .0715 16 179 -262 0 180 178 27 28 17 180 181 180 180 35 37 17
9 0 16 27 -266 0 182 179 0 14 17 182 183 182 182 29 31 27 0 15 183 94 0 182 25 1
84 17 31 185 31 31 29 182 27 0 15 185 93 0 31 186 0 14 186 -125 0 25 187 181 6 2
6 -14 25 -129 0 0 186 183 6 13 -14 187 -121 0 186 188 189 6 190 -15 181 92 0 180
 186 185 50 26 180 0 186 190 13 0 +-.5475 .165 .16 0 0 -1 -1 0 0 51 190 179 0 18
7 191 26 0 +-.1475 .165 .16 0 0 1 .109 1 0 0 50 191 178 0 188 192 190 0 +-.1475
 .165 .16 0 0 -1 -1 0 0 14 188 -117 0 187 193 194 6 191 -50 192 177 0 193 195 19
1 0 +-.695 0 .295 0 0 -1 -1 0 0 14 193 -113 0 188 196 197 6 192 -51 195 176 0 19
6 198 192 0 +-.5475 .165 0 0 0 1 .0715 1 0 0 14 196 -109 0 193 199 200 6 195 -51
 198 175 0 199 201 195 0 +-.1475 .165 0 0 0 1 .0715 1 0 0 14 199 -101 0 196 202
 203 6 198 -50 201 174 0 202 204 198 0 +-.4475 0 .215 -1 0 0 0 0 1 14 202 -69 0
 199 205 206 6 201 -50 204 173 0 205 207 201 0 +-.2475 -.0370350824057028 .10757
0778771751 0 -.325532736598793 .945530770203964 0 -.945530770203964 -.3255327365
98793 14 205 -65 0 202 208 209 6 204 -50 207 172 0 208 210 204 0 +-.2475 0 0 1 0
 0 0 0 -1 14 208 -53 0 205 211 212 6 207 -51 210 171 0 211 213 207 0 +-.3475 .27
5 0 0 0 1 .1 1 0 0 14 211 -45 0 208 214 215 6 210 -50 213 170 0 214 216 210 0 +-
.3475 .275 .215 0 0 -1 -1 0 0 14 214 -41 0 211 217 218 6 213 +50 216 169 0 217 2
19 213 0 +0 .345 0 0 1 0 0 0 1 14 217 -37 0 214 220 221 6 216 +51 219 168 0 220
 222 216 0 +-.115 .23 0 0 0 -1 .115 -1 0 0 14 220 -29 0 217 223 224 6 219 +51 22
2 167 0 223 225 219 0 +-.58 .23 0 0 0 -1 .115 -1 0 0 14 223 -25 0 220 226 113 6
 222 +50 225 166 0 226 227 222 0 +-.695 0 0 -1 0 0 0 0 1 14 226 -21 0 223 228 22
9 6 225 +50 227 165 0 228 230 225 0 +0 0 0 1 0 0 0 0 -1 14 228 -13 0 226 16 231
 6 227 +50 230 164 0 16 18 227 0 +0 0 0 0 -1 0 0 0 -1 14 16 -9 0 228 10 232 6 23
0 +50 18 163 0 10 0 230 0 +-.695 0 0 0 0 -1 -1 0 0 15 232 70 0 233 16 0 17 233 2
32 234 90 12 235 236 0 17 234 232 99 233 100 22 237 0 17 90 232 233 99 88 238 23
9 0 17 235 229 93 112 88 233 236 0 16 236 -46 0 235 240 119 241 16 240 -42 0 242
 243 236 244 16 119 -50 0 114 236 116 123 30 241 135 0 236 244 123 0 +1e-8 -.695
 0 0 0 0 1 30 244 134 0 240 245 241 0 +1e-8 -.58 .345 0 0 0 1 30 123 136 0 119 2
41 120 0 +1e-8 -.695 .23 .295 0 0 1 30 245 133 0 243 246 244 0 +1e-8 -.695 0 .29
5 0 1 0 16 243 -38 0 93 247 240 245 30 246 132 0 247 248 245 0 +1e-8 0 .23 0 0 0
 1 16 247 -34 0 82 249 243 246 30 248 131 0 249 250 246 0 +1e-8 0 .345 .295 1 0
 0 16 249 -30 0 251 252 247 248 30 250 130 0 252 253 248 0 +1e-8 0 0 0 0 0 1 16
 252 -26 0 99 254 249 250 30 253 129 0 254 255 250 0 +1e-8 0 0 .295 0 -1 0 16 25
4 -22 0 256 239 252 253 30 255 128 0 239 257 253 0 +1e-8 -.695 0 .295 -1 0 0 16
 239 -18 0 90 237 254 255 30 257 127 0 237 258 255 0 +1e-8 -.695 0 0 -1 0 0 16 2
37 -14 0 22 259 239 257 30 258 126 0 259 260 257 0 +1e-8 0 0 0 0 -1 0 16 259 -10
 0 102 20 237 258 30 260 125 0 20 21 258 0 +1e-8 0 .345 0 1 0 0 16 20 -6 0 79 11
 259 260 30 21 124 0 11 0 260 0 +1e-8 -.695 0 0 0 1 0 17 79 17 105 70 77 261 20
 0 17 105 17 102 79 103 129 127 0 17 70 17 79 76 68 141 139 0 17 261 221 55 262
 68 79 20 0 15 221 75 0 55 217 0 17 55 221 64 261 53 263 137 0 17 262 221 261 25
1 77 96 117 0 17 251 221 262 242 94 264 249 0 17 96 224 126 129 94 262 117 0 15
 224 74 0 96 220 0 17 126 224 265 96 80 266 121 0 17 129 224 96 265 77 105 127 0
 17 265 224 129 126 103 82 247 0 17 82 231 256 267 80 265 247 0 15 231 71 0 268
 228 0 17 256 231 268 82 97 269 254 0 17 267 231 82 268 103 102 259 0 17 268 231
 267 256 100 99 252 0 17 102 17 22 105 100 267 259 0 17 22 17 19 102 12 234 237
 0 17 99 232 90 234 97 268 252 0 17 269 270 266 238 80 256 254 0 15 270 87 0 271
 193 0 17 266 270 264 269 94 126 121 0 17 238 270 269 271 97 90 239 0 17 271 270
 238 272 88 93 243 0 17 272 270 271 264 91 87 116 0 17 93 229 273 235 91 271 243
 0 15 229 72 0 273 226 0 17 273 229 112 93 83 114 119 0 17 112 229 235 273 12 19
 11 0 17 114 113 87 107 91 273 119 0 15 113 73 0 114 223 0 17 87 113 115 114 85
 272 116 0 17 115 113 107 87 23 242 240 0 17 242 221 251 110 85 115 240 0 17 110
 221 242 274 23 67 111 0 17 274 221 110 64 65 157 155 0 17 64 221 274 55 62 275
 153 0 17 157 206 160 136 62 274 155 0 15 206 80 0 136 202 0 17 160 206 276 157
 59 277 158 0 17 136 206 157 276 65 73 134 0 17 276 206 136 160 71 146 144 0 17
 73 17 76 67 71 136 134 0 17 76 17 70 73 74 133 131 0 17 133 215 146 149 71 76 1
31 0 15 215 77 0 149 211 0 17 146 215 278 133 59 276 144 0 17 149 215 133 278 74
 279 147 0 17 278 215 149 146 56 61 142 0 17 279 212 280 141 56 149 147 0 15 212
 78 0 280 208 0 17 280 212 263 279 53 163 161 0 17 141 212 279 263 74 70 139 0 1
7 263 212 141 280 68 55 137 0 17 163 209 152 275 56 280 161 0 15 209 79 0 163 20
5 0 17 152 209 277 163 59 58 150 0 17 275 209 163 277 53 64 153 0 17 277 209 275
 152 62 160 158 0 17 58 218 61 61 56 152 150 0 15 218 76 0 58 214 0 17 61 218 58
 58 59 278 142 0 17 264 270 272 266 85 251 249 0 15 203 81 0 46 199 281 17 46 20
3 46 46 44 174 172 0 15 281 82 0 166 199 0 17 166 281 166 166 50 52 164 0 17 52
 109 52 52 50 166 164 0 15 109 68 0 52 10 282 15 282 69 0 49 10 0 17 49 282 49 4
9 47 169 167 0 17 169 283 169 169 47 49 167 0 15 283 84 0 169 196 0 17 174 194 1
74 174 44 46 172 0 15 194 88 0 174 188 284 15 284 89 0 40 188 0 17 40 284 40 40
 38 177 175 0 17 177 189 177 177 38 40 175 0 15 189 90 0 177 187 285 15 285 91 0
 286 187 0 17 286 285 286 286 41 43 170 0 17 43 287 43 43 41 286 170 0 15 287 86
 0 43 193 270 15 200 83 0 37 196 283 17 37 200 37 37 35 180 179 0 15 197 85 0 34
 193 287 17 34 197 34 34 32 288 178 0 17 288 184 288 288 32 34 178 0 15 184 95 0
 288 25 0 74 20 9 1 0 2 0 0 0 0 0 0 0 0 0 0 0 0 0 0 0 0 0 0 0 80 1 7 289 8017 29
0 0 0 0 0 0 0 0 0 TTTTTTTTTTTT3 84 3 8 RET79 13 290 SDL/TYSA_NAME1 0 
