600 0 1 0           
103 GICL ACIS Healer - Source: /gicl/data5/repository/Parasolid/NIST/Pete_Brown/retainer/retainer.sat - 6 0 18 ACIS 6.0.3 Solaris 24 Sun Apr 14 00:31:50 2002 
1 9.999999999999999547e-07 1.000000000000000036e-10 
body $-1 $1 $-1 $-1 #
lump $-1 $-1 $2 $0 #
shell $-1 $-1 $-1 $3 $-1 $1 #
face $-1 $4 $5 $2 $-1 $6 forward single #
face $-1 $7 $8 $2 $-1 $9 forward single #
loop $-1 $10 $11 $3 #
plane-surface $-1 -27.36220472440939844 0 0 0 0 -1 -1 0 0 forward_v I I I I #
face $-1 $12 $13 $2 $-1 $14 forward single #
loop $-1 $-1 $15 $4 #
plane-surface $-1 0 0 0 0 -1 0 0 0 -1 forward_v I I I I #
loop $-1 $16 $17 $3 #
coedge $-1 $18 $19 $20 $21 reversed $5 $-1 #
face $-1 $22 $23 $2 $-1 $24 forward single #
loop $-1 $-1 $25 $7 #
plane-surface $-1 0 0 0 1 0 0 0 0 -1 forward_v I I I I #
coedge $-1 $26 $27 $28 $29 reversed $8 $-1 #
loop $-1 $-1 $30 $3 #
coedge $-1 $17 $17 $31 $32 reversed $10 $-1 #
coedge $-1 $33 $11 $34 $35 reversed $5 $-1 #
coedge $-1 $11 $36 $37 $38 reversed $5 $-1 #
coedge $-1 $39 $40 $11 $21 forward $41 $-1 #
edge $-1 $42 -1.570796326794896336 $43 1.570796326794897002 $11 $44 forward 7 unknown #
face $-1 $45 $46 $2 $-1 $47 forward single #
loop $-1 $-1 $48 $12 #
plane-surface $-1 -27.36220472440939844 0 0 -1 0 0 0 -0 1 forward_v I I I I #
coedge $-1 $49 $50 $51 $52 reversed $13 $-1 #
coedge $-1 $51 $15 $53 $54 reversed $8 $-1 #
coedge $-1 $15 $51 $55 $56 forward $8 $-1 #
coedge $-1 $57 $58 $15 $29 forward $23 $-1 #
edge $-1 $59 0 $60 11.61417322834650001 $15 $61 forward 7 unknown #
coedge $-1 $30 $30 $62 $63 reversed $16 $-1 #
coedge $-1 $31 $31 $17 $32 forward $64 $-1 #
edge $-1 $65 6.123233995736751245e-17 $65 6.283185307179586232 $17 $66 forward 7 unknown #
coedge $-1 $67 $18 $68 $69 forward $5 $-1 #
coedge $-1 $70 $71 $18 $35 forward $72 $-1 #
edge $-1 $73 -13.58267716535429948 $42 -10.82677165354330029 $18 $74 forward 7 unknown #
coedge $-1 $19 $75 $76 $77 forward $5 $-1 #
coedge $-1 $78 $79 $19 $38 forward $80 $-1 #
edge $-1 $43 10.82677165354330029 $81 13.58267716535429948 $19 $82 forward 7 unknown #
coedge $-1 $83 $20 $79 $84 forward $41 $-1 #
coedge $-1 $20 $83 $70 $85 forward $41 $-1 #
loop $-1 $-1 $40 $86 #
vertex $-1 $21 $87 #
vertex $-1 $21 $88 #
ellipse-curve $-1 -13.68110236220469922 10.82677165354330029 0 0 0 -1 7.232166136696969813e-16 -3.93700787401574992 0 1 I I #
face $-1 $89 $90 $2 $-1 $91 forward single #
loop $-1 $-1 $92 $22 #
cone-surface $-1 -22.83464566929130157 9.055118110236220375 0 0 0 -1 -4.527559055118110187 0 0 1 I I 0 1 4.527559055118110187 forward I I I I #
coedge $-1 $58 $57 $92 $93 reversed $23 $-1 #
coedge $-1 $94 $25 $95 $96 reversed $13 $-1 #
coedge $-1 $25 $94 $97 $98 forward $13 $-1 #
coedge $-1 $27 $26 $25 $52 forward $8 $-1 #
edge $-1 $99 0 $100 11.61417322834650001 $51 $101 forward 7 unknown #
coedge $-1 $102 $95 $26 $54 forward $5 $-1 #
edge $-1 $99 -27.36220472440939844 $59 0 $53 $103 forward 7 unknown #
coedge $-1 $97 $104 $27 $56 reversed $105 $-1 #
edge $-1 $100 -27.36220472440939844 $60 0 $27 $106 forward 7 unknown #
coedge $-1 $48 $28 $104 $107 forward $23 $-1 #
coedge $-1 $28 $48 $102 $108 reversed $23 $-1 #
vertex $-1 $54 $109 #
vertex $-1 $29 $110 #
straight-curve $-1 -27.36220472440939844 0 0 0 0 1 I I #
coedge $-1 $62 $62 $30 $63 forward $111 $-1 #
edge $-1 $112 6.123233995736751245e-17 $112 6.283185307179586232 $30 $113 forward 7 unknown #
loop $-1 $-1 $31 $114 #
vertex $-1 $32 $115 #
ellipse-curve $-1 -5.807086614173229577 6.496062992125989588 0 0 0 -1 -1.723666262579439964e-16 2.814960629921260171 0 1 I I #
coedge $-1 $95 $33 $116 $117 reversed $5 $-1 #
coedge $-1 $118 $119 $33 $69 reversed $120 $-1 #
edge $-1 $73 -9.744094488188979497 $121 -4.527559055118110187 $33 $122 forward 7 unknown #
coedge $-1 $123 $34 $40 $85 reversed $72 $-1 #
coedge $-1 $34 $123 $118 $124 reversed $72 $-1 #
loop $-1 $-1 $123 $125 #
vertex $-1 $35 $126 #
straight-curve $-1 -9.744094488188979497 0 0 0 -1 0 I I #
coedge $-1 $36 $102 $127 $128 reversed $5 $-1 #
coedge $-1 $129 $130 $36 $77 reversed $120 $-1 #
edge $-1 $131 -22.83464566929130157 $81 -17.61811023622049888 $36 $132 forward 7 unknown #
coedge $-1 $133 $37 $130 $134 forward $80 $-1 #
coedge $-1 $37 $133 $39 $84 reversed $80 $-1 #
loop $-1 $-1 $37 $135 #
vertex $-1 $77 $136 #
straight-curve $-1 -17.61811023622049888 0 0 0 1 0 I I #
coedge $-1 $40 $39 $137 $138 reversed $41 $-1 #
edge $-1 $43 0 $139 8.464566929133859219 $39 $140 forward 7 unknown #
edge $-1 $141 -8.464566929133859219 $42 0 $40 $142 forward 7 unknown #
face $-1 $125 $41 $2 $-1 $143 reversed single #
point $-1 -9.744094488188979497 10.82677165354330029 0 #
point $-1 -17.61811023622049888 10.82677165354330029 0 #
face $-1 $144 $120 $2 $-1 $145 forward single #
loop $-1 $-1 $146 $45 #
cone-surface $-1 -4.527559055118110187 9.055118110236220375 0 0 0 -1 -4.527559055118110187 0 0 1 I I 0 1 4.527559055118110187 forward I I I I #
coedge $-1 $147 $127 $48 $93 forward $46 $-1 #
edge $-1 $148 -11.61417322834650001 $149 0 $48 $150 forward 7 unknown #
coedge $-1 $50 $49 $151 $152 forward $13 $-1 #
coedge $-1 $53 $67 $49 $96 forward $5 $-1 #
edge $-1 $153 -9.055118110236220375 $99 0 $95 $154 forward 7 unknown #
coedge $-1 $155 $55 $50 $98 reversed $105 $-1 #
edge $-1 $156 -9.055118110236220375 $100 0 $50 $157 forward 7 unknown #
vertex $-1 $96 $158 #
vertex $-1 $52 $159 #
straight-curve $-1 0 0 0 0 0 1 I I #
coedge $-1 $75 $53 $58 $108 forward $5 $-1 #
straight-curve $-1 -27.36220472440939844 0 0 -1 0 0 I I #
coedge $-1 $55 $160 $57 $107 reversed $105 $-1 #
loop $-1 $-1 $104 $161 #
straight-curve $-1 -27.36220472440939844 0 11.61417322834650001 -1 0 0 I I #
edge $-1 $60 0 $149 9.055118110236220375 $57 $162 forward 7 unknown #
edge $-1 $59 0 $148 9.055118110236220375 $102 $163 forward 7 unknown #
point $-1 -27.36220472440939844 0 0 #
point $-1 -27.36220472440939844 0 11.61417322834650001 #
loop $-1 $-1 $62 $164 #
vertex $-1 $63 $165 #
ellipse-curve $-1 -21.55511811023620083 6.496062992125989588 0 0 0 -1 -1.723666262579439964e-16 2.814960629921260171 0 1 I I #
face $-1 $164 $166 $2 $-1 $167 reversed single #
point $-1 -5.807086614173229577 9.311023622047240877 0 #
coedge $-1 $146 $151 $67 $117 forward $90 $-1 #
edge $-1 $153 -0.785398163397448279 $121 0.785398163397448279 $67 $168 forward 7 unknown #
coedge $-1 $169 $68 $71 $124 forward $120 $-1 #
coedge $-1 $68 $170 $146 $171 reversed $120 $-1 #
loop $-1 $-1 $118 $89 #
vertex $-1 $69 $172 #
straight-curve $-1 0 13.58267716535429948 0 1 0 0 I I #
coedge $-1 $71 $70 $173 $174 reversed $72 $-1 #
edge $-1 $73 0 $175 9.413385826771650144 $118 $176 forward 7 unknown #
face $-1 $177 $72 $2 $-1 $178 reversed single #
point $-1 -9.744094488188979497 13.58267716535429948 0 #
coedge $-1 $92 $179 $75 $128 forward $46 $-1 #
edge $-1 $131 -0.785398163397448279 $148 0.785398163397448279 $75 $180 forward 7 unknown #
coedge $-1 $170 $76 $179 $181 forward $120 $-1 #
coedge $-1 $76 $169 $78 $134 reversed $120 $-1 #
vertex $-1 $128 $182 #
straight-curve $-1 0 13.58267716535429948 0 1 0 0 I I #
coedge $-1 $79 $78 $183 $184 forward $80 $-1 #
edge $-1 $81 0 $185 9.413385826771650144 $130 $186 forward 7 unknown #
face $-1 $114 $80 $2 $-1 $187 reversed single #
point $-1 -17.61811023622049888 13.58267716535429948 0 #
coedge $-1 $188 $188 $83 $138 forward $189 $-1 #
edge $-1 $141 -1.570796326794896336 $139 1.570796326794897002 $137 $190 forward 7 unknown #
vertex $-1 $191 $192 #
straight-curve $-1 -17.61811023622049888 10.82677165354330029 0 0 0 1 I I #
vertex $-1 $191 $193 #
straight-curve $-1 -9.744094488188979497 10.82677165354330029 0 0 0 -1 I I #
cone-surface $-1 -13.68110236220469922 10.82677165354330029 0 0 0 1 3.93700787401574992 0 0 1 I I 0 1 3.93700787401574992 forward I I I I #
face $-1 $86 $189 $2 $-1 $194 forward single #
plane-surface $-1 0 13.58267716535429948 0 0 1 0 0 0 1 forward_v I I I I #
coedge $-1 $195 $116 $119 $171 forward $90 $-1 #
coedge $-1 $179 $92 $160 $196 forward $46 $-1 #
vertex $-1 $108 $197 #
vertex $-1 $93 $198 #
straight-curve $-1 -27.36220472440939844 9.055118110236220375 11.61417322834650001 0 0 1 I I #
coedge $-1 $116 $195 $94 $152 reversed $90 $-1 #
edge $-1 $153 0 $156 11.61417322834650001 $94 $199 forward 7 unknown #
vertex $-1 $117 $200 #
straight-curve $-1 0 0 0 0 -1 0 I I #
coedge $-1 $201 $97 $195 $202 reversed $105 $-1 #
vertex $-1 $152 $203 #
straight-curve $-1 0 0 11.61417322834650001 0 -1 0 I I #
point $-1 0 0 0 #
point $-1 0 0 11.61417322834650001 #
coedge $-1 $104 $201 $147 $196 reversed $105 $-1 #
face $-1 $204 $205 $2 $-1 $206 reversed single #
straight-curve $-1 -27.36220472440939844 0 11.61417322834650001 0 1 0 I I #
straight-curve $-1 -27.36220472440939844 0 0 0 1 0 I I #
face $-1 $161 $207 $2 $-1 $208 reversed single #
point $-1 -21.55511811023620083 9.311023622047240877 0 #
loop $-1 $64 $209 $114 #
cone-surface $-1 -5.807086614173229577 6.496062992125989588 0 0 0 1 2.814960629921260171 0 0 1 I I 0 1 2.814960629921260171 forward I I I I #
ellipse-curve $-1 -4.527559055118110187 9.055118110236220375 0 0 0 1 3.201467710096570052 3.201467710096570052 0 1 I I #
coedge $-1 $130 $118 $210 $211 forward $120 $-1 #
coedge $-1 $119 $129 $201 $212 forward $120 $-1 #
edge $-1 $121 -11.61417322834650001 $213 0 $146 $214 forward 7 unknown #
point $-1 -4.527559055118110187 13.58267716535429948 0 #
coedge $-1 $215 $210 $123 $174 forward $216 $-1 #
edge $-1 $175 -15.90720445043850617 $141 -12.99253937696181893 $123 $217 forward 7 unknown #
vertex $-1 $124 $218 #
straight-curve $-1 -9.744094488188979497 13.58267716535429948 0 0 0 1 I I #
face $-1 $135 $216 $2 $-1 $219 reversed single #
plane-surface $-1 -9.744094488188979497 0 0 1 0 0 0 0 -1 forward_v I I I I #
coedge $-1 $127 $147 $129 $181 reversed $46 $-1 #
ellipse-curve $-1 -22.83464566929130157 9.055118110236220375 0 0 0 1 -3.201467710096570052 3.201467710096570052 0 1 I I #
edge $-1 $131 0 $220 11.61417322834650001 $179 $221 forward 7 unknown #
point $-1 -22.83464566929130157 13.58267716535429948 0 #
coedge $-1 $210 $215 $133 $184 reversed $216 $-1 #
edge $-1 $185 -15.90720445043850617 $139 -12.99253937696181893 $183 $222 forward 7 unknown #
vertex $-1 $211 $223 #
straight-curve $-1 -17.61811023622049888 13.58267716535429948 0 0 0 1 I I #
plane-surface $-1 -17.61811023622049888 0 8.464566929133859219 -1 0 0 0 -0 1 forward_v I I I I #
coedge $-1 $137 $137 $215 $191 reversed $189 $-1 #
loop $-1 $-1 $188 $144 #
ellipse-curve $-1 -13.68110236220469922 10.82677165354330029 8.464566929133859219 0 0 -1 7.232166136696969813e-16 -3.93700787401574992 0 1 I I #
edge $-1 $141 9.744094488188979497 $139 17.61811023622049888 $188 $224 forward 7 unknown #
point $-1 -17.61811023622049888 10.82677165354330029 8.464566929133859219 #
point $-1 -9.744094488188979497 10.82677165354330029 8.464566929133859219 #
plane-surface $-1 -13.68110236220469922 10.82677165354330029 8.464566929133859219 0 0 -1 -1 0 0 forward_v I I I I #
coedge $-1 $151 $146 $155 $202 forward $90 $-1 #
edge $-1 $149 -0.785398163397448279 $220 0.785398163397448279 $147 $225 forward 7 unknown #
point $-1 -27.36220472440939844 9.055118110236220375 0 #
point $-1 -27.36220472440939844 9.055118110236220375 11.61417322834650001 #
straight-curve $-1 0 9.055118110236220375 0 0 0 1 I I #
point $-1 0 9.055118110236220375 0 #
coedge $-1 $160 $155 $170 $212 reversed $105 $-1 #
edge $-1 $213 -0.785398163397448279 $156 0.785398163397448279 $195 $226 forward 7 unknown #
point $-1 0 9.055118110236220375 11.61417322834650001 #
face $-1 $227 $228 $2 $-1 $229 reversed single #
loop $-1 $230 $231 $161 #
plane-surface $-1 -27.36220472440939844 0 11.61417322834650001 0 0 -1 -1 0 0 forward_v I I I I #
loop $-1 $111 $232 $164 #
cone-surface $-1 -21.55511811023620083 6.496062992125989588 0 0 0 1 2.814960629921260171 0 0 1 I I 0 1 2.814960629921260171 forward I I I I #
coedge $-1 $209 $209 $233 $234 reversed $166 $-1 #
coedge $-1 $173 $183 $169 $211 reversed $216 $-1 #
edge $-1 $175 9.744094488188979497 $185 17.61811023622049888 $169 $235 forward 7 unknown #
edge $-1 $220 -22.83464566929130157 $213 -4.527559055118110187 $170 $236 forward 7 unknown #
vertex $-1 $171 $237 #
straight-curve $-1 -4.527559055118110187 13.58267716535429948 11.61417322834650001 0 0 1 I I #
coedge $-1 $183 $173 $188 $191 forward $216 $-1 #
loop $-1 $-1 $173 $177 #
straight-curve $-1 -9.744094488188979497 -1.458074110460739981 4.235070030383900175 0 -0.9455307702039640327 -0.3255327365987930044 I I #
point $-1 -9.744094488188979497 13.58267716535429948 9.413385826771650144 #
plane-surface $-1 -9.744094488188979497 -1.458074110460739981 4.235070030383900175 0 -0.3255327365987929489 0.9455307702039638107 1 0 -0 forward_v I I I I #
vertex $-1 $196 $238 #
straight-curve $-1 -22.83464566929130157 13.58267716535429948 0 0 0 1 I I #
straight-curve $-1 -17.61811023622049888 -1.458074110460739981 4.235070030383900175 0 -0.9455307702039640327 -0.3255327365987930044 I I #
point $-1 -17.61811023622049888 13.58267716535429948 9.413385826771650144 #
straight-curve $-1 0 10.82677165354330029 8.464566929133859219 -1 0 0 I I #
ellipse-curve $-1 -22.83464566929130157 9.055118110236220375 11.61417322834650001 0 0 -1 -3.201467710096570052 3.201467710096570052 0 1 I I #
ellipse-curve $-1 -4.527559055118110187 9.055118110236220375 11.61417322834650001 0 0 -1 3.201467710096570052 3.201467710096570052 0 1 I I #
face $-1 $239 $240 $2 $-1 $241 reversed single #
loop $-1 $242 $233 $204 #
plane-surface $-1 -5.807086614173229577 6.496062992125989588 6.299212598425199872 0 0 -1 -1 0 0 forward_v I I I I #
loop $-1 $105 $243 $161 #
coedge $-1 $231 $231 $244 $245 forward $205 $-1 #
coedge $-1 $232 $232 $246 $247 reversed $207 $-1 #
coedge $-1 $233 $233 $209 $234 forward $228 $-1 #
edge $-1 $248 -1.737349784034988978e-15 $248 6.283185307179584456 $209 $249 forward 7 unknown #
straight-curve $-1 0 13.58267716535429948 9.413385826771650144 -1 0 0 I I #
straight-curve $-1 0 13.58267716535429948 11.61417322834650001 1 0 0 I I #
point $-1 -4.527559055118110187 13.58267716535429948 11.61417322834650001 #
point $-1 -22.83464566929130157 13.58267716535429948 11.61417322834650001 #
face $-1 $250 $251 $2 $-1 $252 reversed single #
loop $-1 $253 $254 $227 #
cone-surface $-1 -5.807086614173229577 6.496062992125989588 6.299212598425199872 0 0 1 4.291338582677170166 0 0 1 I I 0 1 4.291338582677170166 forward I I I I #
loop $-1 $-1 $255 $204 #
coedge $-1 $243 $243 $256 $257 forward $230 $-1 #
coedge $-1 $244 $244 $231 $245 reversed $258 $-1 #
edge $-1 $259 6.123233995736769734e-17 $259 6.283185307179586232 $231 $260 forward 7 unknown #
coedge $-1 $246 $246 $232 $247 forward $251 $-1 #
edge $-1 $261 -1.176914369830157685e-15 $261 6.283185307179585344 $232 $262 forward 7 unknown #
vertex $-1 $234 $263 #
ellipse-curve $-1 -5.807086614173229577 6.496062992125989588 6.299212598425199872 0 0 -1 -1.258888664497910037 2.517777328995829844 0 1 I I #
face $-1 $-1 $264 $2 $-1 $265 reversed single #
loop $-1 $266 $246 $239 #
plane-surface $-1 -21.55511811023620083 6.496062992125989588 6.299212598425199872 0 0 -1 -1 0 0 forward_v I I I I #
loop $-1 $-1 $256 $227 #
coedge $-1 $254 $254 $255 $267 forward $240 $-1 #
coedge $-1 $255 $255 $254 $267 reversed $242 $-1 #
coedge $-1 $256 $256 $243 $257 reversed $253 $-1 #
edge $-1 $268 6.123233995736769734e-17 $268 6.283185307179586232 $243 $269 forward 7 unknown #
loop $-1 $-1 $244 $250 #
vertex $-1 $245 $270 #
ellipse-curve $-1 -21.55511811023620083 6.496062992125989588 11.61417322834650001 0 0 -1 -2.627687029666569942e-16 4.291338582677170166 0 1 I I #
vertex $-1 $247 $271 #
ellipse-curve $-1 -21.55511811023620083 6.496062992125989588 6.299212598425199872 0 0 -1 -1.258888664497900045 2.517777328995829844 0 1 I I #
point $-1 -7.065975278671140281 9.013840321121810106 6.299212598425199872 #
loop $-1 $258 $272 $250 #
cone-surface $-1 -21.55511811023620083 6.496062992125989588 6.299212598425199872 0 0 1 4.291338582677170166 0 0 1 I I 0 1 4.291338582677170166 forward I I I I #
loop $-1 $-1 $273 $239 #
edge $-1 $274 6.123233995736769734e-17 $274 6.283185307179586232 $255 $275 forward 7 unknown #
vertex $-1 $257 $276 #
ellipse-curve $-1 -5.807086614173229577 6.496062992125989588 11.61417322834650001 0 0 -1 -2.627687029666569942e-16 4.291338582677170166 0 1 I I #
point $-1 -21.55511811023620083 10.78740157480310025 11.61417322834650001 #
point $-1 -22.81400677473409999 9.013840321121810106 6.299212598425199872 #
coedge $-1 $272 $272 $273 $277 forward $264 $-1 #
coedge $-1 $273 $273 $272 $277 reversed $266 $-1 #
vertex $-1 $267 $278 #
ellipse-curve $-1 -5.807086614173229577 6.496062992125989588 6.299212598425199872 0 0 -1 -2.627687029666569942e-16 4.291338582677170166 0 1 I I #
point $-1 -5.807086614173229577 10.78740157480310025 11.61417322834650001 #
edge $-1 $279 6.123233995736769734e-17 $279 6.283185307179586232 $273 $280 forward 7 unknown #
point $-1 -5.807086614173229577 10.78740157480310025 6.299212598425199872 #
vertex $-1 $277 $281 #
ellipse-curve $-1 -21.55511811023620083 6.496062992125989588 6.299212598425199872 0 0 -1 -2.627687029666569942e-16 4.291338582677170166 0 1 I I #
point $-1 -21.55511811023620083 10.78740157480310025 6.299212598425199872 #
End-of-ACIS-data 