600 0 2 0           
24 FBMach with ACIS - 6.0.3 13 ACIS 6.0.3 NT 24 Tue May 22 12:25:22 2001 
1 9.9999999999999995e-007 1e-010 
body $2 $3 $-1 $4 #
bdycol-kcp $-1 1 5 $5 $6 $7 $8 $9 #
model_id-kcp-attrib $-1 $-1 $-1 $0 1 990548721 50 1748107265 1 #
lump $-1 $-1 $10 $0 #
transform $-1 0.98480775301220846 0.17364817766693105 0 -0.17364817766693105 0.98480775301220846 0 0 0 1 7.1054273576010019e-015 5.3290705182007514e-015 0 1 rotate no_reflect no_shear #
body $11 $12 $-1 $13 #
body $14 $15 $-1 $16 #
body $17 $18 $-1 $19 #
body $20 $21 $-1 $22 #
body $23 $24 $-1 $25 #
shell $-1 $-1 $-1 $26 $-1 $3 #
model_id-kcp-attrib $-1 $-1 $-1 $5 1 990548721 60 1748762626 1 #
lump $-1 $-1 $27 $5 #
transform $-1 1 0 0 0 1 0 0 0 1 0 0 0 1 no_rotate no_reflect no_shear #
rgb_color-st-attrib $-1 $28 $-1 $6 0.5 1 1 #
lump $-1 $-1 $29 $6 #
transform $-1 1 0 0 0 1 0 0 0 1 0 0 0 1 no_rotate no_reflect no_shear #
rgb_color-st-attrib $-1 $30 $-1 $7 0 0 1 #
lump $-1 $-1 $31 $7 #
transform $-1 1 0 0 0 1 0 0 0 1 0 0 0 1 no_rotate no_reflect no_shear #
rgb_color-st-attrib $-1 $32 $-1 $8 1 0.5 1 #
lump $-1 $-1 $33 $8 #
transform $-1 1 0 0 0 1 0 0 0 1 0 0 0 1 no_rotate no_reflect no_shear #
rgb_color-st-attrib $-1 $34 $-1 $9 1 0.5 1 #
lump $-1 $-1 $35 $9 #
transform $-1 1 0 0 0 1 0 0 0 1 0 0 0 1 no_rotate no_reflect no_shear #
face $36 $37 $38 $10 $-1 $39 reversed single #
shell $-1 $-1 $-1 $40 $-1 $12 #
model_id-kcp-attrib $-1 $-1 $14 $6 1 990548721 170 1755971587 1 #
shell $-1 $-1 $-1 $41 $-1 $15 #
model_id-kcp-attrib $-1 $-1 $17 $7 1 990548721 440 1756889092 1 #
shell $-1 $-1 $-1 $42 $-1 $18 #
model_id-kcp-attrib $-1 $-1 $20 $8 1 990548721 721 1758527493 1 #
shell $-1 $-1 $-1 $43 $-1 $21 #
model_id-kcp-attrib $-1 $-1 $23 $9 1 990548721 821 1748303878 1 #
shell $-1 $-1 $-1 $44 $-1 $24 #
model_id-kcp-attrib $-1 $-1 $-1 $26 1 990548721 50 1748107265 2 #
face $45 $46 $47 $10 $-1 $48 forward single #
loop $-1 $-1 $49 $26 #
cone-surface $-1 15 15 20 0 0 1 5 0 0 1 I I 0 1 5 forward I I I I #
face $50 $51 $52 $27 $-1 $53 forward single #
face $-1 $54 $55 $29 $-1 $56 reversed single #
face $-1 $57 $58 $31 $-1 $59 forward single #
face $-1 $60 $61 $33 $-1 $62 forward single #
face $-1 $63 $64 $35 $-1 $65 forward single #
model_id-kcp-attrib $-1 $-1 $-1 $37 1 990548721 50 1748107265 3 #
face $66 $67 $68 $10 $-1 $69 reversed single #
loop $-1 $-1 $70 $37 #
plane-surface $-1 15 0 20 -1 0 0 0 0 1 forward_v I I I I #
coedge $-1 $71 $72 $73 $74 reversed $38 $-1 #
model_id-kcp-attrib $-1 $75 $-1 $40 1 990548721 60 1748762626 3 #
face $76 $77 $78 $27 $-1 $79 reversed single #
loop $-1 $-1 $80 $40 #
plane-surface $-1 0 0 50 0 0 1 1 0 0 forward_v I I I I #
face $-1 $81 $82 $29 $-1 $83 reversed single #
loop $-1 $-1 $84 $41 #
plane-surface $-1 53.581592092283685 -15.93778494195865 50 0.173648177666931 -0.98480775301220802 0 0 0 1 forward_v I I I I #
face $-1 $85 $86 $31 $-1 $87 forward single #
loop $-1 $-1 $88 $42 #
plane-surface $-1 -12.452800195126045 13.035634518513811 -30 -0.173648177666931 0.98480775301220802 0 0 0 1 forward_v I I I I #
face $-1 $89 $90 $33 $-1 $91 forward single #
loop $-1 $-1 $92 $43 #
plane-surface $-1 1.4270328247344501 25.637289686500932 -25 -0.17364817766693097 0.98480775301220802 0 0 0 1 forward_v I I I I #
face $-1 $93 $94 $35 $-1 $95 forward single #
loop $-1 $-1 $96 $44 #
plane-surface $-1 -1.4270328247344501 -25.637289686500932 -25 0.173648177666931 -0.98480775301220802 0 0 0 -1 forward_v I I I I #
model_id-kcp-attrib $-1 $-1 $-1 $46 1 990548721 50 1748107265 4 #
face $97 $98 $99 $10 $-1 $100 forward single #
loop $-1 $-1 $101 $46 #
cone-surface $-1 15 -15 20 0 0 1 5 0 0 1 I I 0 1 5 forward I I I I #
coedge $-1 $102 $103 $104 $105 reversed $47 $-1 #
coedge $-1 $106 $49 $107 $108 forward $38 $-1 #
coedge $-1 $49 $109 $102 $110 forward $38 $-1 #
coedge $-1 $104 $111 $49 $74 forward $112 $-1 #
edge $113 $114 -3.1415926535897931 $115 1.5707963267948966 $73 $116 forward 7 unknown #
model_id-kcp-attrib $-1 $-1 $50 $40 1 990548721 60 1748762626 2 #
model_id-kcp-attrib $-1 $-1 $-1 $51 1 990548721 60 1748762626 4 #
face $-1 $117 $118 $27 $-1 $119 reversed single #
loop $-1 $-1 $120 $51 #
plane-surface $-1 0 0 -50 0 0 1 1 0 0 forward_v I I I I #
coedge $-1 $121 $122 $123 $124 forward $52 $-1 #
face $-1 $125 $126 $29 $-1 $127 reversed single #
loop $-1 $-1 $128 $54 #
plane-surface $-1 -44.899183208937117 -33.302602708651747 50 -0.98480775301220802 -0.17364817766693105 0 0 0 1 forward_v I I I I #
coedge $-1 $129 $130 $131 $132 reversed $55 $-1 #
face $-1 $133 $134 $31 $-1 $135 forward single #
loop $-1 $-1 $136 $57 #
cone-surface $-1 12.167393630179156 17.376838960187087 -30 0 0 1 4.9240387650610398 0.86824088833465496 0 1 I I 0 1 5 forward I I I I #
coedge $-1 $137 $138 $139 $140 forward $58 $-1 #
face $-1 $141 $142 $33 $-1 $143 forward single #
loop $-1 $-1 $144 $60 #
plane-surface $-1 20.278989383631924 28.961398266978474 -25 0.98480775301220802 0.173648177666931 0 0 0 -1 forward_v I I I I #
coedge $-1 $145 $146 $147 $148 forward $61 $-1 #
face $-1 $149 $150 $35 $-1 $151 forward single #
loop $-1 $-1 $152 $63 #
plane-surface $-1 -20.278989383631924 -28.961398266978474 -25 -0.98480775301220802 -0.173648177666931 0 0 0 1 forward_v I I I I #
coedge $-1 $153 $154 $155 $156 forward $64 $-1 #
model_id-kcp-attrib $-1 $-1 $-1 $67 1 990548721 50 1748107265 5 #
face $157 $158 $159 $10 $-1 $160 reversed single #
loop $-1 $-1 $161 $67 #
plane-surface $-1 0 -15 20 0 1 0 0 0 1 forward_v I I I I #
coedge $-1 $162 $163 $164 $165 reversed $68 $-1 #
coedge $-1 $166 $70 $72 $110 reversed $47 $-1 #
coedge $-1 $70 $166 $162 $167 reversed $47 $-1 #
coedge $-1 $164 $73 $70 $105 forward $112 $-1 #
edge $168 $115 -10 $169 10 $104 $170 forward 7 unknown #
coedge $-1 $109 $71 $171 $172 forward $38 $-1 #
coedge $-1 $173 $174 $71 $108 reversed $175 $-1 #
edge $-1 $114 45 $176 50 $107 $177 forward 7 unknown #
coedge $-1 $72 $106 $178 $179 forward $38 $-1 #
edge $-1 $180 -50 $115 -45 $102 $181 forward 7 unknown #
coedge $-1 $73 $182 $173 $183 forward $112 $-1 #
loop $-1 $184 $185 $186 #
attrib_edge_convexity-kcp-attrib $-1 $187 $-1 $74 1 #
vertex $-1 $183 $188 #
vertex $-1 $74 $189 #
ellipse-curve $-1 15 15 -25 0 0 -1 5 0 0 1 I I #
face $-1 $190 $191 $27 $-1 $192 reversed single #
loop $-1 $-1 $193 $77 #
plane-surface $-1 0 -33.302602708651747 0 0 1 0 0 0 1 forward_v I I I I #
coedge $-1 $194 $195 $196 $197 forward $78 $-1 #
coedge $-1 $198 $80 $199 $200 forward $52 $-1 #
coedge $-1 $80 $198 $201 $202 forward $52 $-1 #
coedge $-1 $203 $204 $80 $124 reversed $205 $-1 #
edge $-1 $206 -33.302602708651747 $207 33.302602708651747 $123 $208 forward 7 unknown #
face $-1 $209 $210 $29 $-1 $211 reversed single #
loop $-1 $-1 $212 $81 #
plane-surface $-1 -53.581592092283685 15.93778494195865 50 -0.17364817766693097 0.98480775301220802 0 0 0 -1 forward_v I I I I #
coedge $-1 $213 $214 $215 $216 reversed $82 $-1 #
coedge $-1 $217 $84 $218 $219 forward $55 $-1 #
coedge $-1 $84 $217 $213 $220 forward $55 $-1 #
coedge $-1 $221 $222 $84 $132 forward $223 $-1 #
edge $-1 $224 -25.000000000000007 $225 75 $131 $226 forward 7 unknown #
face $-1 $227 $228 $31 $-1 $229 forward single #
loop $-1 $-1 $230 $85 #
plane-surface $-1 13.03563451851381 12.452800195126045 -30 0.98480775301220802 0.173648177666931 0 0 0 -1 forward_v I I I I #
coedge $-1 $231 $232 $233 $234 forward $86 $-1 #
coedge $-1 $235 $88 $232 $236 reversed $58 $-1 #
coedge $-1 $88 $235 $237 $238 forward $58 $-1 #
coedge $-1 $239 $233 $88 $140 reversed $240 $-1 #
edge $-1 $241 -10.000000000000002 $242 10.000000000000002 $88 $243 forward 7 unknown #
face $-1 $244 $245 $33 $-1 $246 forward single #
loop $-1 $-1 $247 $89 #
plane-surface $-1 28.961398266978478 -20.278989383631924 -25 0.173648177666931 -0.98480775301220802 0 0 0 -1 forward_v I I I I #
coedge $-1 $248 $249 $250 $251 forward $90 $-1 #
coedge $-1 $252 $92 $249 $253 reversed $61 $-1 #
coedge $-1 $92 $252 $254 $255 forward $61 $-1 #
coedge $-1 $256 $250 $92 $148 reversed $257 $-1 #
edge $-1 $258 25.347003476841941 $259 44.489781852860446 $92 $260 forward 7 unknown #
face $-1 $261 $262 $35 $-1 $263 forward single #
loop $-1 $-1 $264 $93 #
plane-surface $-1 -28.961398266978478 20.278989383631924 -25 -0.17364817766693097 0.98480775301220802 0 0 0 1 forward_v I I I I #
coedge $-1 $265 $266 $267 $268 forward $94 $-1 #
coedge $-1 $269 $96 $266 $270 reversed $64 $-1 #
coedge $-1 $96 $269 $271 $272 forward $64 $-1 #
coedge $-1 $273 $267 $96 $156 reversed $274 $-1 #
edge $-1 $275 25.347003476841945 $276 44.48978185286046 $96 $277 forward 7 unknown #
model_id-kcp-attrib $-1 $-1 $-1 $98 1 990548721 50 1748107265 6 #
face $278 $279 $175 $10 $-1 $280 forward single #
loop $-1 $-1 $281 $98 #
cone-surface $-1 -15 15 20 0 0 1 5 0 0 1 I I 0 1 5 forward I I I I #
coedge $-1 $282 $283 $284 $285 reversed $99 $-1 #
coedge $-1 $286 $101 $103 $167 forward $68 $-1 #
coedge $-1 $101 $287 $282 $288 forward $68 $-1 #
coedge $-1 $284 $104 $101 $165 forward $112 $-1 #
edge $289 $169 -1.5707963267948966 $290 3.1415926535897931 $164 $291 forward 7 unknown #
coedge $-1 $103 $102 $292 $293 forward $47 $-1 #
edge $-1 $169 45 $294 50 $103 $295 forward 7 unknown #
attrib_edge_convexity-kcp-attrib $-1 $296 $-1 $105 1 #
vertex $-1 $105 $297 #
straight-curve $-1 15 0 -25 0 -1 0 I I #
coedge $-1 $298 $178 $106 $172 reversed $299 $-1 #
edge $-1 $176 -3.1415926535897931 $300 0 $171 $301 forward 7 unknown #
coedge $-1 $302 $107 $111 $183 reversed $175 $-1 #
coedge $-1 $107 $302 $298 $303 forward $175 $-1 #
loop $-1 $-1 $173 $158 #
vertex $-1 $303 $304 #
straight-curve $-1 10 15 20 0 0 -1 I I #
coedge $-1 $171 $292 $109 $179 reversed $299 $-1 #
edge $-1 $300 0 $180 1.5707963267948966 $178 $301 forward 7 unknown #
vertex $-1 $293 $305 #
straight-curve $-1 15 10 20 0 0 1 I I #
coedge $-1 $111 $306 $281 $307 forward $112 $-1 #
edge $308 $309 -10 $114 10 $111 $310 forward 7 unknown #
loop $-1 $-1 $311 $186 #
coedge $-1 $306 $284 $312 $313 forward $112 $-1 #
face $314 $315 $112 $10 $-1 $316 forward single #
convexity-sys-attrib $-1 $-1 $113 $74 #
point $-1 10 15 -25 #
point $-1 15 10 -25 #
face $-1 $317 $318 $27 $-1 $319 reversed single #
loop $-1 $-1 $320 $117 #
plane-surface $-1 -53.581592092283678 0 0 1 0 0 0 0 -1 forward_v I I I I #
coedge $-1 $321 $201 $322 $323 forward $118 $-1 #
coedge $-1 $324 $120 $321 $325 forward $78 $-1 #
coedge $-1 $120 $324 $326 $327 forward $78 $-1 #
coedge $-1 $204 $203 $120 $197 reversed $205 $-1 #
edge $-1 $328 -33.302602708651747 $329 33.302602708651747 $196 $330 forward 7 unknown #
coedge $-1 $122 $121 $331 $332 forward $52 $-1 #
coedge $-1 $333 $334 $121 $200 reversed $318 $-1 #
edge $-1 $207 -53.581592092283678 $335 53.581592092283678 $199 $336 forward 7 unknown #
coedge $-1 $193 $337 $122 $202 reversed $118 $-1 #
edge $-1 $338 -53.581592092283678 $206 53.581592092283678 $201 $339 forward 7 unknown #
coedge $-1 $196 $123 $337 $340 forward $205 $-1 #
coedge $-1 $123 $196 $333 $341 reversed $205 $-1 #
loop $-1 $-1 $203 $317 #
vertex $-1 $124 $342 #
vertex $-1 $124 $343 #
straight-curve $-1 53.581592092283678 0 50 0 1 0 I I #
face $-1 $344 $345 $29 $-1 $346 reversed single #
loop $-1 $-1 $347 $125 #
plane-surface $-1 44.899183208937117 33.302602708651747 50 0.98480775301220802 0.1736481776669308 0 0 0 -1 forward_v I I I I #
coedge $-1 $348 $349 $350 $351 reversed $126 $-1 #
coedge $-1 $352 $128 $353 $220 reversed $82 $-1 #
coedge $-1 $128 $352 $354 $355 reversed $82 $-1 #
coedge $-1 $356 $357 $128 $216 forward $358 $-1 #
edge $-1 $225 -12.499999999999998 $359 37.500000000000014 $215 $360 forward 7 unknown #
coedge $-1 $130 $129 $361 $362 reversed $55 $-1 #
coedge $-1 $347 $363 $364 $219 reversed $210 $-1 #
edge $-1 $224 -25 $365 75 $364 $366 forward 7 unknown #
edge $-1 $367 -75 $225 25 $353 $368 forward 7 unknown #
coedge $-1 $222 $131 $369 $370 forward $223 $-1 #
coedge $-1 $131 $221 $371 $372 forward $223 $-1 #
loop $-1 $-1 $131 $373 #
vertex $-1 $374 $375 #
vertex $-1 $370 $376 #
straight-curve $-1 28.961398266978481 -20.278989383631931 50 -0.98480775301220802 -0.173648177666931 0 I I #
face $-1 $377 $378 $31 $-1 $379 forward single #
loop $-1 $-1 $380 $133 #
cone-surface $-1 17.376838960187087 -12.167393630179156 -30 0 0 1 4.9240387650610398 0.86824088833465496 0 1 I I 0 1 5 forward I I I I #
coedge $-1 $381 $382 $383 $384 forward $134 $-1 #
coedge $-1 $385 $136 $382 $386 reversed $86 $-1 #
coedge $-1 $136 $385 $137 $236 forward $86 $-1 #
coedge $-1 $139 $383 $136 $234 reversed $240 $-1 #
edge $-1 $242 -3.1415926535897931 $387 1.570796326794897 $136 $388 forward 7 unknown #
coedge $-1 $138 $137 $389 $390 reversed $58 $-1 #
edge $391 $392 0 $242 5 $232 $393 forward 7 unknown #
coedge $-1 $394 $395 $138 $238 reversed $396 $-1 #
edge $-1 $397 0 $241 5 $138 $398 forward 7 unknown #
coedge $-1 $399 $139 $395 $400 reversed $240 $-1 #
loop $-1 $-1 $139 $401 #
vertex $-1 $238 $402 #
vertex $-1 $236 $403 #
straight-curve $-1 -2.6047226650039654 14.772116295183123 -24.999999999999996 0.98480775301220802 0.173648177666931 0 I I #
face $-1 $404 $257 $33 $-1 $405 forward single #
loop $-1 $-1 $406 $141 #
plane-surface $-1 1.4270328247344506 -25.134040907786332 -25 -1 0 0 0 0 1 forward_v I I I I #
coedge $-1 $407 $408 $409 $410 forward $142 $-1 #
coedge $-1 $411 $144 $408 $412 reversed $90 $-1 #
coedge $-1 $144 $411 $145 $253 forward $90 $-1 #
coedge $-1 $147 $409 $144 $251 reversed $257 $-1 #
edge $-1 $259 -25 $413 25.000000000000004 $144 $414 forward 7 unknown #
coedge $-1 $146 $145 $415 $416 reversed $61 $-1 #
edge $-1 $417 0 $259 75 $249 $418 forward 7 unknown #
coedge $-1 $419 $406 $146 $255 reversed $245 $-1 #
edge $-1 $420 0 $258 75 $146 $421 forward 7 unknown #
coedge $-1 $409 $147 $406 $422 reversed $257 $-1 #
loop $-1 $-1 $147 $244 #
vertex $-1 $255 $423 #
vertex $-1 $253 $424 #
straight-curve $-1 -23.534892714886883 21.235828723429961 50 0.98480775301220802 0.17364817766693097 0 I I #
face $-1 $425 $274 $35 $-1 $426 forward single #
loop $-1 $-1 $427 $149 #
plane-surface $-1 -1.4270328247344506 25.134040907786332 -25 1 0 0 0 0 -1 forward_v I I I I #
coedge $-1 $428 $429 $430 $431 forward $150 $-1 #
coedge $-1 $432 $152 $429 $433 reversed $94 $-1 #
coedge $-1 $152 $432 $153 $270 forward $94 $-1 #
coedge $-1 $155 $430 $152 $268 reversed $274 $-1 #
edge $-1 $276 -25 $434 25.000000000000004 $152 $435 forward 7 unknown #
coedge $-1 $154 $153 $436 $437 reversed $64 $-1 #
edge $-1 $438 0 $276 75 $266 $439 forward 7 unknown #
coedge $-1 $440 $427 $154 $272 reversed $262 $-1 #
edge $-1 $441 0 $275 75 $154 $442 forward 7 unknown #
coedge $-1 $430 $155 $427 $443 reversed $274 $-1 #
loop $-1 $-1 $155 $261 #
vertex $-1 $272 $444 #
vertex $-1 $270 $445 #
straight-curve $-1 23.534892714886887 -21.235828723429961 50 -0.98480775301220802 -0.173648177666931 0 I I #
model_id-kcp-attrib $-1 $-1 $-1 $158 1 990548721 50 1748107265 7 #
face $446 $447 $299 $10 $-1 $448 forward single #
plane-surface $-1 0 15 20 0 -1 0 0 0 -1 forward_v I I I I #
coedge $-1 $449 $450 $182 $307 reversed $159 $-1 #
coedge $-1 $451 $161 $163 $288 reversed $99 $-1 #
coedge $-1 $161 $451 $452 $453 reversed $99 $-1 #
coedge $-1 $185 $164 $161 $285 forward $112 $-1 #
edge $454 $290 -10 $455 10 $284 $456 forward 7 unknown #
coedge $-1 $287 $162 $457 $458 forward $68 $-1 #
coedge $-1 $163 $286 $459 $460 forward $68 $-1 #
edge $-1 $461 -50 $290 -45 $282 $462 forward 7 unknown #
attrib_edge_convexity-kcp-attrib $-1 $463 $-1 $165 1 #
vertex $-1 $165 $464 #
ellipse-curve $-1 15 -15 -25 0 0 -1 5 0 0 1 I I #
coedge $-1 $178 $457 $166 $293 reversed $299 $-1 #
edge $-1 $180 -10 $294 10 $166 $465 forward 7 unknown #
vertex $-1 $293 $466 #
straight-curve $-1 15 -10 20 0 0 -1 I I #
convexity-sys-attrib $-1 $-1 $168 $105 #
point $-1 15 -10 -25 #
coedge $-1 $467 $171 $174 $303 reversed $299 $-1 #
loop $-1 $-1 $298 $279 #
vertex $-1 $172 $468 #
ellipse-curve $-1 15 15 -30 0 0 -1 5 0 0 1 I I #
coedge $-1 $174 $173 $450 $469 reversed $175 $-1 #
edge $-1 $470 -10 $176 10 $174 $471 forward 7 unknown #
point $-1 10 15 -30 #
point $-1 15 10 -30 #
coedge $-1 $182 $185 $472 $473 forward $112 $-1 #
edge $474 $475 1.5707963267948966 $309 6.2831853071795862 $182 $476 forward 7 unknown #
attrib_edge_convexity-kcp-attrib $-1 $477 $-1 $183 1 #
vertex $-1 $307 $478 #
straight-curve $-1 0 15 -25 1 0 0 I I #
coedge $-1 $479 $480 $481 $482 reversed $184 $-1 #
coedge $-1 $452 $483 $185 $313 reversed $484 $-1 #
edge $485 $455 0 $486 4.7123889803846897 $185 $487 forward 7 unknown #
model_id-kcp-attrib $-1 $-1 $-1 $186 1 990548721 50 1748107265 12 #
face $488 $489 $490 $10 $-1 $491 forward single #
plane-surface $-1 0 0 -25 0 0 1 1 0 0 forward_v I I I I #
face $-1 $-1 $205 $27 $-1 $492 reversed single #
loop $-1 $-1 $333 $190 #
plane-surface $-1 0 33.302602708651747 0 0 -1 0 0 0 -1 forward_v I I I I #
coedge $-1 $493 $331 $334 $494 forward $191 $-1 #
coedge $-1 $337 $193 $194 $325 reversed $118 $-1 #
coedge $-1 $331 $493 $193 $323 reversed $191 $-1 #
edge $-1 $338 -50 $495 50 $322 $496 forward 7 unknown #
coedge $-1 $195 $194 $493 $497 forward $78 $-1 #
edge $-1 $329 -53.581592092283678 $495 53.581592092283678 $321 $498 forward 7 unknown #
coedge $-1 $334 $333 $195 $327 reversed $318 $-1 #
edge $-1 $499 -53.581592092283678 $328 53.581592092283678 $326 $500 forward 7 unknown #
vertex $-1 $197 $501 #
vertex $-1 $340 $502 #
straight-curve $-1 53.581592092283678 0 -50 0 -1 0 I I #
coedge $-1 $320 $322 $198 $332 reversed $191 $-1 #
edge $-1 $335 -33.302602708651747 $338 33.302602708651747 $331 $503 forward 7 unknown #
coedge $-1 $326 $199 $204 $341 forward $318 $-1 #
coedge $-1 $199 $326 $320 $494 reversed $318 $-1 #
vertex $-1 $200 $504 #
straight-curve $-1 0 33.302602708651747 50 -1 0 0 I I #
coedge $-1 $201 $321 $203 $340 reversed $118 $-1 #
vertex $-1 $332 $505 #
straight-curve $-1 0 -33.302602708651747 50 1 0 0 I I #
edge $-1 $206 -50 $329 50 $203 $506 forward 7 unknown #
edge $-1 $207 -50 $328 50 $204 $507 forward 7 unknown #
point $-1 53.581592092283678 -33.302602708651747 50 #
point $-1 53.581592092283678 33.302602708651747 50 #
face $-1 $508 $509 $29 $-1 $510 reversed single #
loop $-1 $-1 $364 $209 #
plane-surface $-1 53.581592092283678 0 0 -1 0 0 0 0 1 forward_v I I I I #
coedge $-1 $511 $218 $512 $513 reversed $210 $-1 #
coedge $-1 $514 $212 $214 $355 forward $126 $-1 #
coedge $-1 $212 $514 $515 $516 reversed $126 $-1 #
coedge $-1 $517 $518 $212 $351 forward $519 $-1 #
edge $-1 $359 -25.000000000000007 $520 75 $350 $521 forward 7 unknown #
coedge $-1 $214 $213 $522 $523 reversed $82 $-1 #
coedge $-1 $524 $525 $526 $220 forward $527 $-1 #
coedge $-1 $528 $529 $530 $355 forward $531 $-1 #
edge $-1 $359 -25 $532 75 $354 $533 forward 7 unknown #
coedge $-1 $357 $215 $529 $534 forward $358 $-1 #
coedge $-1 $215 $356 $524 $535 forward $358 $-1 #
loop $-1 $-1 $215 $536 #
vertex $-1 $534 $537 #
straight-curve $-1 -47.069785429773759 -20.992505795999151 50 -0.17364817766693105 0.98480775301220802 0 I I #
coedge $-1 $538 $539 $217 $362 forward $540 $-1 #
edge $-1 $367 -75 $365 25.000000000000007 $361 $541 forward 7 unknown #
coedge $-1 $218 $511 $542 $543 reversed $210 $-1 #
coedge $-1 $544 $545 $546 $219 forward $345 $-1 #
vertex $-1 $547 $548 #
straight-curve $-1 53.581592092283678 -15.93778494195876 25 0 0 -1 I I #
vertex $-1 $549 $550 #
straight-curve $-1 -44.899183208937124 -33.302602708651747 25 0 0 1 I I #
coedge $-1 $526 $551 $221 $370 reversed $552 $-1 #
edge $-1 $225 -44.899183208937117 $553 53.581592092283678 $369 $554 forward 7 unknown #
coedge $-1 $555 $546 $222 $372 reversed $556 $-1 #
edge $-1 $553 -33.302602708651747 $224 -15.93778494195865 $371 $557 forward 7 unknown #
face $-1 $536 $223 $29 $-1 $558 forward single #
edge $-1 $224 -15.93778494195865 $559 33.302602708651747 $545 $557 forward 7 unknown #
point $-1 53.581592092283685 -15.93778494195865 50 #
point $-1 -44.899183208937117 -33.302602708651747 50 #
face $-1 $560 $561 $31 $-1 $562 forward single #
loop $-1 $-1 $563 $227 #
plane-surface $-1 12.452800195126045 -13.03563451851381 -30 0.173648177666931 -0.98480775301220802 0 0 0 -1 forward_v I I I I #
coedge $-1 $564 $565 $566 $567 forward $228 $-1 #
coedge $-1 $568 $230 $565 $569 reversed $134 $-1 #
coedge $-1 $230 $568 $231 $386 forward $134 $-1 #
coedge $-1 $233 $566 $230 $384 reversed $240 $-1 #
edge $-1 $387 -10.000000000000002 $570 10.000000000000002 $230 $571 forward 7 unknown #
coedge $-1 $232 $231 $572 $573 reversed $86 $-1 #
edge $-1 $574 0 $387 5 $382 $575 forward 7 unknown #
vertex $-1 $386 $576 #
ellipse-curve $-1 12.167393630179156 17.376838960187087 -25 0 0 -1 4.9240387650610398 0.86824088833465496 0 1 I I #
coedge $-1 $572 $577 $235 $390 forward $578 $-1 #
edge $579 $397 -10.000000000000002 $392 10.000000000000002 $235 $580 forward 7 unknown #
convexity-sys-attrib $-1 $-1 $-1 $236 #
vertex $-1 $390 $581 #
straight-curve $-1 7.2433548651181141 16.508598071852433 -30 0 0 1 I I #
coedge $-1 $582 $237 $577 $583 reversed $396 $-1 #
coedge $-1 $237 $582 $239 $400 forward $396 $-1 #
loop $-1 $-1 $395 $584 #
vertex $-1 $583 $585 #
straight-curve $-1 -12.452800195126045 13.035634518513811 -30 0 0 1 I I #
coedge $-1 $586 $239 $587 $588 reversed $240 $-1 #
edge $-1 $589 1.570796326794897 $241 6.2831853071795862 $395 $590 forward 7 unknown #
face $-1 $591 $240 $31 $-1 $592 forward single #
point $-1 -12.452800195126045 13.035634518513811 -25 #
point $-1 7.2433548651181141 16.508598071852433 -25 #
face $-1 $-1 $593 $33 $-1 $594 reversed single #
plane-surface $-1 13.09253715272766 0.7950489997156116 50 -1.0763135855658814e-016 -1.4645836131191606e-017 1 1 0 1.0763135855658814e-016 forward_v I I I I #
coedge $-1 $254 $595 $256 $422 forward $245 $-1 #
coedge $-1 $596 $247 $595 $597 reversed $142 $-1 #
coedge $-1 $247 $596 $248 $412 forward $142 $-1 #
coedge $-1 $250 $256 $247 $410 reversed $257 $-1 #
edge $-1 $413 5.5102181471395495 $598 33.469345558581345 $247 $599 forward 7 unknown #
coedge $-1 $249 $248 $600 $601 reversed $90 $-1 #
edge $-1 $602 0 $413 75 $408 $603 forward 7 unknown #
vertex $-1 $412 $604 #
straight-curve $-1 24.620193825305201 4.3412044416732769 50 0.173648177666931 -0.98480775301220802 0 I I #
coedge $-1 $600 $605 $252 $416 forward $593 $-1 #
edge $606 $420 25.347003476841941 $417 44.489781852860453 $252 $607 forward 7 unknown #
vertex $-1 $416 $608 #
straight-curve $-1 20.278989383631924 28.961398266978474 -25 0 0 1 I I #
coedge $-1 $595 $254 $605 $609 reversed $245 $-1 #
vertex $-1 $609 $610 #
straight-curve $-1 1.4270328247344501 25.637289686500932 -25 0 0 1 I I #
edge $-1 $598 -26.090880247584369 $258 24.680450346702894 $406 $611 forward 7 unknown #
point $-1 1.4270328247344501 25.637289686500932 50 #
point $-1 20.278989383631924 28.961398266978474 50 #
face $-1 $-1 $612 $35 $-1 $613 reversed single #
plane-surface $-1 -13.092537152727658 -0.79504899971561249 50.000000000000007 1.0763135855658814e-016 1.46458361311916e-017 1 1 0 -1.0763135855658814e-016 forward_v I I I I #
coedge $-1 $271 $614 $273 $443 forward $262 $-1 #
coedge $-1 $615 $264 $614 $616 reversed $150 $-1 #
coedge $-1 $264 $615 $265 $433 forward $150 $-1 #
coedge $-1 $267 $273 $264 $431 reversed $274 $-1 #
edge $-1 $434 5.5102181471395486 $617 33.469345558581345 $264 $618 forward 7 unknown #
coedge $-1 $266 $265 $619 $620 reversed $94 $-1 #
edge $-1 $621 0 $434 75 $429 $622 forward 7 unknown #
vertex $-1 $433 $623 #
straight-curve $-1 -24.620193825305201 -4.3412044416732769 50 -0.173648177666931 0.98480775301220802 0 I I #
coedge $-1 $619 $624 $269 $437 forward $612 $-1 #
edge $625 $441 25.347003476841945 $438 44.48978185286046 $269 $626 forward 7 unknown #
vertex $-1 $437 $627 #
straight-curve $-1 -20.278989383631924 -28.961398266978474 -25 0 0 1 I I #
coedge $-1 $614 $271 $624 $628 reversed $262 $-1 #
vertex $-1 $628 $629 #
straight-curve $-1 -1.4270328247344501 -25.637289686500932 -25 0 0 1 I I #
edge $-1 $617 -26.090880247584369 $275 24.680450346702894 $427 $630 forward 7 unknown #
point $-1 -1.4270328247344501 -25.637289686500932 50 #
point $-1 -20.278989383631924 -28.961398266978474 50 #
model_id-kcp-attrib $-1 $-1 $-1 $279 1 990548721 50 1748107265 8 #
face $631 $632 $484 $10 $-1 $633 reversed single #
plane-surface $-1 0 0 -30 0 0 1 1 0 0 forward_v I I I I #
coedge $-1 $634 $281 $635 $636 forward $159 $-1 #
coedge $-1 $281 $634 $302 $469 forward $159 $-1 #
coedge $-1 $283 $282 $637 $638 forward $99 $-1 #
coedge $-1 $639 $312 $283 $453 forward $484 $-1 #
edge $-1 $455 45 $640 50 $283 $641 forward 7 unknown #
attrib_edge_convexity-kcp-attrib $-1 $642 $-1 $285 1 #
vertex $-1 $313 $643 #
straight-curve $-1 0 -15 -25 -1 0 0 I I #
coedge $-1 $292 $459 $286 $458 reversed $299 $-1 #
edge $-1 $294 -1.5707963267948966 $644 0 $457 $645 forward 7 unknown #
coedge $-1 $457 $637 $287 $460 reversed $299 $-1 #
edge $-1 $644 0 $461 3.1415926535897931 $459 $645 forward 7 unknown #
vertex $-1 $638 $646 #
straight-curve $-1 10 -15 20 0 0 1 I I #
convexity-sys-attrib $-1 $-1 $289 $165 #
point $-1 10 -15 -25 #
straight-curve $-1 15 0 -30 0 -1 0 I I #
point $-1 15 -10 -30 #
coedge $-1 $647 $298 $634 $648 reversed $299 $-1 #
point $-1 20 15 -30 #
edge $-1 $470 -50 $309 -45 $302 $649 forward 7 unknown #
vertex $-1 $303 $650 #
straight-curve $-1 0 15 -30 1 0 0 I I #
coedge $-1 $651 $635 $306 $473 reversed $652 $-1 #
edge $653 $486 -10 $475 10 $306 $654 forward 7 unknown #
attrib_edge_convexity-kcp-attrib $-1 $655 $-1 $307 1 #
vertex $-1 $307 $656 #
ellipse-curve $-1 -15 15 -25 0 0 -1 5 0 0 1 I I #
convexity-sys-attrib $-1 $-1 $308 $183 #
point $-1 -10 15 -25 #
coedge $-1 $657 $311 $658 $659 reversed $184 $-1 #
coedge $-1 $311 $657 $660 $661 reversed $184 $-1 #
coedge $-1 $662 $663 $311 $482 forward $664 $-1 #
edge $665 $666 -25 $667 25 $481 $668 forward 7 unknown #
coedge $-1 $312 $639 $651 $669 forward $484 $-1 #
loop $-1 $-1 $312 $447 #
attrib_edge_convexity-kcp-attrib $-1 $670 $-1 $313 1 #
vertex $-1 $313 $671 #
ellipse-curve $-1 -15 -15 -25 0 0 -1 5 0 0 1 I I #
model_id-kcp-attrib $-1 $-1 $-1 $315 1 990548721 50 1748107265 13 #
face $672 $673 $674 $10 $-1 $675 forward single #
loop $-1 $-1 $676 $315 #
plane-surface $-1 -25 0 25 1 0 0 0 0 -1 forward_v I I I I #
plane-surface $-1 53.581592092283678 0 0 -1 0 0 0 0 1 forward_v I I I I #
coedge $-1 $322 $320 $324 $497 reversed $191 $-1 #
edge $-1 $335 -50 $499 50 $334 $677 forward 7 unknown #
vertex $-1 $497 $678 #
straight-curve $-1 -53.581592092283678 -33.302602708651747 0 0 0 -1 I I #
edge $-1 $495 -33.302602708651747 $499 33.302602708651747 $493 $679 forward 7 unknown #
straight-curve $-1 0 -33.302602708651747 -50 -1 0 0 I I #
vertex $-1 $327 $680 #
straight-curve $-1 0 33.302602708651747 -50 1 0 0 I I #
point $-1 53.581592092283678 33.302602708651747 -50 #
point $-1 53.581592092283678 -33.302602708651747 -50 #
straight-curve $-1 -53.581592092283678 0 50 0 -1 0 I I #
point $-1 -53.581592092283678 33.302602708651747 50 #
point $-1 -53.581592092283678 -33.302602708651747 50 #
straight-curve $-1 53.581592092283678 -33.302602708651747 0 0 0 -1 I I #
straight-curve $-1 53.581592092283678 33.302602708651747 0 0 0 -1 I I #
face $-1 $681 $552 $29 $-1 $682 reversed single #
loop $-1 $-1 $515 $344 #
plane-surface $-1 0 33.302602708651747 0 0 -1 0 0 0 -1 forward_v I I I I #
coedge $-1 $363 $347 $349 $516 forward $210 $-1 #
coedge $-1 $683 $684 $347 $513 forward $685 $-1 #
edge $-1 $520 -12.500000000000005 $224 37.499999999999993 $512 $686 forward 7 unknown #
coedge $-1 $349 $348 $687 $688 reversed $126 $-1 #
coedge $-1 $689 $690 $691 $516 forward $509 $-1 #
edge $-1 $520 -25 $692 75 $515 $693 forward 7 unknown #
coedge $-1 $518 $350 $690 $694 forward $519 $-1 #
coedge $-1 $350 $517 $695 $696 forward $519 $-1 #
loop $-1 $-1 $350 $681 #
vertex $-1 $694 $697 #
straight-curve $-1 -28.961398266978481 20.278989383631927 50 0.98480775301220802 0.17364817766693097 0 I I #
coedge $-1 $698 $699 $352 $523 forward $700 $-1 #
edge $-1 $532 -37.500000000000014 $367 12.499999999999998 $522 $701 forward 7 unknown #
coedge $-1 $702 $353 $357 $535 reversed $527 $-1 #
coedge $-1 $353 $702 $698 $549 reversed $527 $-1 #
coedge $-1 $703 $369 $130 $220 reversed $552 $-1 #
loop $-1 $-1 $353 $704 #
coedge $-1 $705 $354 $699 $706 reversed $531 $-1 #
coedge $-1 $354 $705 $356 $534 reversed $531 $-1 #
coedge $-1 $695 $707 $348 $355 reversed $708 $-1 #
loop $-1 $-1 $354 $709 #
vertex $-1 $710 $711 #
straight-curve $-1 -53.581592092283678 15.937784941958668 25 0 0 -1 I I #
edge $-1 $359 -15.93778494195865 $712 33.302602708651747 $529 $713 forward 7 unknown #
edge $-1 $712 -53.581592092283678 $225 -44.899183208937117 $524 $554 forward 7 unknown #
face $-1 $709 $358 $29 $-1 $558 forward single #
point $-1 -53.581592092283685 15.93778494195865 50 #
coedge $-1 $539 $361 $714 $547 forward $540 $-1 #
coedge $-1 $361 $538 $703 $715 forward $540 $-1 #
loop $-1 $-1 $361 $716 #
straight-curve $-1 28.961398266978481 -20.278989383631931 -49.999999999999993 0.98480775301220802 0.173648177666931 0 I I #
coedge $-1 $717 $718 $363 $543 forward $719 $-1 #
edge $-1 $365 -37.499999999999993 $692 12.500000000000005 $542 $720 forward 7 unknown #
coedge $-1 $721 $364 $718 $722 reversed $345 $-1 #
coedge $-1 $364 $721 $683 $374 reversed $345 $-1 #
coedge $-1 $371 $714 $129 $219 reversed $556 $-1 #
edge $-1 $365 15.93778494195865 $723 33.302602708651747 $714 $724 forward 7 unknown #
point $-1 53.581592092283685 -15.93778494195865 -50 #
edge $-1 $367 44.899183208937117 $725 53.581592092283678 $525 $726 forward 7 unknown #
point $-1 -44.899183208937117 -33.302602708651747 -50 #
coedge $-1 $369 $703 $555 $727 reversed $552 $-1 #
loop $-1 $-1 $526 $508 #
vertex $-1 $372 $728 #
straight-curve $-1 0 -33.302602708651747 50 1 0 0 I I #
coedge $-1 $714 $371 $551 $727 forward $556 $-1 #
loop $-1 $-1 $546 $729 #
straight-curve $-1 53.581592092283678 0 50 0 1 0 I I #
plane-surface $-1 0 0 50 0 0 1 1 0 0 forward_v I I I I #
vertex $-1 $374 $730 #
face $-1 $584 $731 $31 $-1 $732 forward single #
loop $-1 $-1 $733 $377 #
cone-surface $-1 -12.167393630179156 -17.376838960187087 -30 0 0 1 4.9240387650610398 0.86824088833465496 0 1 I I 0 1 5 forward I I I I #
coedge $-1 $734 $735 $736 $737 forward $378 $-1 #
coedge $-1 $738 $380 $735 $739 reversed $228 $-1 #
coedge $-1 $380 $738 $381 $569 forward $228 $-1 #
coedge $-1 $383 $736 $380 $567 reversed $240 $-1 #
edge $-1 $570 -1.5707963267948963 $740 3.1415926535897931 $380 $741 forward 7 unknown #
coedge $-1 $382 $381 $742 $743 reversed $134 $-1 #
edge $-1 $744 0 $570 5 $565 $745 forward 7 unknown #
vertex $-1 $569 $746 #
straight-curve $-1 14.772116295183123 2.6047226650039654 -24.999999999999996 0.173648177666931 -0.98480775301220802 0 I I #
coedge $-1 $742 $389 $385 $573 forward $578 $-1 #
edge $747 $392 -3.1415926535897931 $574 1.5707963267948966 $385 $748 forward 7 unknown #
vertex $-1 $573 $749 #
straight-curve $-1 13.03563451851381 12.452800195126045 -30 0 0 1 I I #
point $-1 13.03563451851381 12.452800195126045 -25 #
coedge $-1 $389 $750 $394 $583 forward $578 $-1 #
loop $-1 $-1 $577 $591 #
convexity-sys-attrib $-1 $-1 $-1 $390 #
straight-curve $-1 -2.6047226650039654 14.772116295183123 -29.999999999999996 0.98480775301220802 0.173648177666931 0 I I #
point $-1 7.2433548651181141 16.508598071852433 -30 #
coedge $-1 $395 $394 $751 $752 forward $396 $-1 #
edge $753 $754 1.570796326794897 $397 6.2831853071795862 $394 $755 forward 7 unknown #
face $-1 $401 $396 $31 $-1 $756 forward single #
point $-1 -12.452800195126045 13.035634518513811 -30 #
coedge $-1 $736 $399 $733 $757 reversed $240 $-1 #
coedge $-1 $751 $758 $399 $588 forward $731 $-1 #
edge $-1 $759 -10.000000000000002 $589 10.000000000000002 $587 $760 forward 7 unknown #
vertex $-1 $752 $761 #
ellipse-curve $-1 -17.376838960187087 12.167393630179156 -25 0 0 -1 4.9240387650610398 0.86824088833465496 0 1 I I #
face $-1 $-1 $578 $31 $-1 $762 reversed single #
plane-surface $-1 1.6653345369377348e-016 2.2204460492503131e-016 -24.999999999999996 -2.7772989627575118e-018 2.9072862055013248e-018 1 1 0 2.7772989627575118e-018 forward_v I I I I #
loop $-1 $-1 $605 $404 #
plane-surface $-1 13.09253715272766 0.7950489997156116 -25 -1.0763135855658814e-016 -1.4645836131191606e-017 1 1 0 1.0763135855658814e-016 forward_v I I I I #
coedge $-1 $406 $419 $407 $597 forward $245 $-1 #
coedge $-1 $408 $407 $763 $764 reversed $142 $-1 #
edge $-1 $765 0 $598 75 $595 $766 forward 7 unknown #
vertex $-1 $597 $767 #
straight-curve $-1 34.387903819070068 -19.32215004383389 50 -0.98480775301220802 -0.173648177666931 0 I I #
coedge $-1 $763 $415 $411 $601 forward $593 $-1 #
edge $768 $417 -25.000000000000004 $602 25.000000000000004 $411 $769 forward 7 unknown #
vertex $-1 $601 $770 #
straight-curve $-1 28.961398266978478 -20.278989383631924 -25 0 0 1 I I #
point $-1 28.961398266978478 -20.278989383631924 50 #
coedge $-1 $415 $763 $419 $609 forward $593 $-1 #
convexity-sys-attrib $-1 $-1 $-1 $416 #
straight-curve $-1 -23.534892714886883 21.235828723429961 -25 0.98480775301220802 0.17364817766693097 0 I I #
point $-1 20.278989383631924 28.961398266978478 -25 #
edge $771 $765 -26.090880247584369 $420 24.680450346702898 $419 $772 forward 7 unknown #
point $-1 1.4270328247344501 25.637289686500935 -25 #
straight-curve $-1 1.4270328247344484 0.95683933979803815 50 0 1 0 I I #
loop $-1 $-1 $624 $425 #
plane-surface $-1 -13.092537152727658 -0.79504899971561249 -24.999999999999993 1.0763135855658814e-016 1.46458361311916e-017 1 1 0 -1.0763135855658814e-016 forward_v I I I I #
coedge $-1 $427 $440 $428 $616 forward $262 $-1 #
coedge $-1 $429 $428 $773 $774 reversed $150 $-1 #
edge $-1 $775 0 $617 75 $614 $776 forward 7 unknown #
vertex $-1 $616 $777 #
straight-curve $-1 -34.387903819070068 19.32215004383389 50 0.98480775301220802 0.17364817766693097 0 I I #
coedge $-1 $773 $436 $432 $620 forward $612 $-1 #
edge $778 $438 -25.000000000000004 $621 25.000000000000004 $432 $779 forward 7 unknown #
vertex $-1 $620 $780 #
straight-curve $-1 -28.961398266978478 20.278989383631924 -25 0 0 1 I I #
point $-1 -28.961398266978478 20.278989383631924 50 #
coedge $-1 $436 $773 $440 $628 forward $612 $-1 #
convexity-sys-attrib $-1 $-1 $-1 $437 #
straight-curve $-1 23.534892714886887 -21.235828723429961 -25 -0.98480775301220802 -0.173648177666931 0 I I #
point $-1 -20.278989383631924 -28.961398266978478 -25 #
edge $781 $775 -26.090880247584369 $441 24.680450346702898 $440 $782 forward 7 unknown #
point $-1 -1.4270328247344501 -25.637289686500935 -25 #
straight-curve $-1 -1.4270328247344484 -0.95683933979803815 50 0 -1 0 I I #
model_id-kcp-attrib $-1 $-1 $-1 $447 1 990548721 50 1748107265 9 #
face $783 $784 $652 $10 $-1 $785 forward single #
cone-surface $-1 -15 -15 20 0 0 1 5 0 0 1 I I 0 1 5 forward I I I I #
coedge $-1 $450 $449 $467 $648 forward $159 $-1 #
coedge $-1 $472 $786 $449 $636 reversed $652 $-1 #
edge $-1 $475 45 $787 50 $635 $788 forward 7 unknown #
coedge $-1 $459 $789 $451 $638 reversed $299 $-1 #
edge $-1 $461 -10 $640 10 $451 $790 forward 7 unknown #
coedge $-1 $483 $452 $789 $791 forward $484 $-1 #
vertex $-1 $638 $792 #
straight-curve $-1 -10 -15 20 0 0 -1 I I #
convexity-sys-attrib $-1 $-1 $454 $285 #
point $-1 -10 -15 -25 #
vertex $-1 $458 $793 #
ellipse-curve $-1 15 -15 -30 0 0 -1 5 0 0 1 I I #
point $-1 10 -15 -30 #
coedge $-1 $789 $467 $786 $794 reversed $299 $-1 #
edge $-1 $787 1.5707963267948966 $470 6.2831853071795862 $467 $795 forward 7 unknown #
straight-curve $-1 -10 15 20 0 0 1 I I #
point $-1 -10 15 -30 #
coedge $-1 $786 $472 $483 $669 reversed $652 $-1 #
loop $-1 $-1 $472 $632 #
attrib_edge_convexity-kcp-attrib $-1 $796 $-1 $473 1 #
straight-curve $-1 -15 0 -25 0 1 0 I I #
convexity-sys-attrib $-1 $-1 $474 $307 #
point $-1 -15 10 -25 #
coedge $-1 $480 $479 $797 $798 reversed $184 $-1 #
coedge $-1 $799 $800 $479 $659 forward $801 $-1 #
edge $802 $803 -25 $666 25 $658 $804 forward 7 unknown #
coedge $-1 $805 $806 $480 $661 forward $807 $-1 #
edge $808 $667 -25 $809 25 $660 $810 forward 7 unknown #
coedge $-1 $811 $481 $806 $812 reversed $664 $-1 #
coedge $-1 $481 $811 $799 $813 reversed $664 $-1 #
loop $-1 $-1 $811 $784 #
attrib_edge_convexity-kcp-attrib $-1 $814 $-1 $482 2 #
vertex $-1 $659 $815 #
vertex $-1 $661 $816 #
straight-curve $-1 25 0 -25 0 -1 0 I I #
edge $-1 $817 -50 $486 -45 $651 $818 forward 7 unknown #
convexity-sys-attrib $-1 $-1 $485 $313 #
point $-1 -15 -10 -25 #
model_id-kcp-attrib $-1 $819 $-1 $489 1 990548721 50 1748107265 21 #
face $820 $821 $822 $10 $-1 $675 forward single #
loop $-1 $-1 $823 $489 #
plane-surface $-1 0 0 50 0 0 1 1 0 0 forward_v I I I I #
coedge $-1 $824 $825 $823 $826 reversed $490 $-1 #
straight-curve $-1 -53.581592092283678 33.302602708651747 0 0 0 -1 I I #
point $-1 -53.581592092283678 -33.302602708651747 -50 #
straight-curve $-1 -53.581592092283678 0 -50 0 1 0 I I #
point $-1 -53.581592092283678 33.302602708651747 -50 #
face $-1 $827 $519 $29 $-1 $558 forward single #
plane-surface $-1 0 -33.302602708651747 0 0 1 0 0 0 1 forward_v I I I I #
coedge $-1 $684 $512 $545 $374 forward $685 $-1 #
coedge $-1 $512 $683 $828 $829 forward $685 $-1 #
loop $-1 $-1 $512 $827 #
straight-curve $-1 47.069785429773759 20.992505795999143 50 0.1736481776669308 -0.98480775301220802 0 I I #
coedge $-1 $830 $831 $514 $688 forward $832 $-1 #
edge $-1 $692 -75 $532 25.000000000000007 $687 $833 forward 7 unknown #
coedge $-1 $834 $515 $831 $835 reversed $509 $-1 #
coedge $-1 $515 $834 $517 $694 reversed $509 $-1 #
coedge $-1 $828 $836 $511 $516 reversed $837 $-1 #
vertex $-1 $838 $839 #
straight-curve $-1 44.899183208937131 33.302602708651747 25 0 0 -1 I I #
edge $-1 $520 -44.899183208937117 $840 53.581592092283678 $690 $841 forward 7 unknown #
coedge $-1 $842 $530 $518 $696 reversed $708 $-1 #
edge $-1 $840 -33.302602708651747 $359 -15.93778494195865 $695 $713 forward 7 unknown #
point $-1 44.899183208937117 33.302602708651747 50 #
coedge $-1 $699 $522 $525 $549 forward $700 $-1 #
coedge $-1 $522 $698 $528 $706 forward $700 $-1 #
loop $-1 $-1 $522 $843 #
straight-curve $-1 -47.069785429773759 -20.992505795999151 -49.999999999999993 0.17364817766693105 -0.98480775301220802 0 I I #
coedge $-1 $525 $524 $705 $844 forward $527 $-1 #
coedge $-1 $551 $526 $539 $715 reversed $552 $-1 #
face $-1 $845 $527 $29 $-1 $682 reversed single #
coedge $-1 $529 $528 $702 $844 reversed $531 $-1 #
edge $-1 $725 -33.302602708651747 $532 15.93778494195865 $528 $846 forward 7 unknown #
coedge $-1 $530 $842 $830 $710 reversed $708 $-1 #
loop $-1 $-1 $530 $845 #
face $-1 $843 $531 $29 $-1 $847 reversed single #
edge $-1 $532 15.93778494195865 $848 33.302602708651747 $707 $846 forward 7 unknown #
point $-1 -53.581592092283685 15.93778494195865 -50 #
vertex $-1 $534 $849 #
straight-curve $-1 -53.581592092283678 0 50 0 -1 0 I I #
coedge $-1 $546 $555 $538 $547 reversed $556 $-1 #
edge $-1 $723 -53.581592092283678 $367 44.899183208937117 $703 $726 forward 7 unknown #
face $-1 $850 $540 $29 $-1 $851 reversed single #
coedge $-1 $718 $542 $836 $838 forward $719 $-1 #
coedge $-1 $542 $717 $544 $722 forward $719 $-1 #
loop $-1 $-1 $542 $850 #
straight-curve $-1 47.069785429773759 20.992505795999143 -50 -0.1736481776669308 0.98480775301220802 0 I I #
coedge $-1 $545 $544 $852 $853 reversed $345 $-1 #
edge $-1 $854 -33.302602708651747 $365 15.93778494195865 $544 $724 forward 7 unknown #
vertex $-1 $727 $855 #
straight-curve $-1 53.581592092283678 0 -50 0 -1 0 I I #
vertex $-1 $706 $856 #
straight-curve $-1 0 -33.302602708651747 -50 -1 0 0 I I #
edge $-1 $553 -50 $723 50 $555 $857 forward 7 unknown #
point $-1 53.581592092283678 -33.302602708651747 50 #
face $-1 $-1 $556 $29 $-1 $346 reversed single #
point $-1 53.581592092283678 33.302602708651747 50 #
loop $-1 $-1 $587 $560 #
plane-surface $-1 -13.035634518513811 -12.452800195126045 -30 -0.98480775301220802 -0.173648177666931 0 0 0 1 forward_v I I I I #
coedge $-1 $858 $859 $586 $757 forward $561 $-1 #
coedge $-1 $860 $563 $859 $861 reversed $378 $-1 #
coedge $-1 $563 $860 $564 $739 forward $378 $-1 #
coedge $-1 $566 $586 $563 $737 reversed $240 $-1 #
edge $-1 $740 -10.000000000000002 $862 10.000000000000002 $563 $863 forward 7 unknown #
coedge $-1 $565 $564 $864 $865 reversed $228 $-1 #
edge $-1 $866 0 $740 5 $735 $867 forward 7 unknown #
vertex $-1 $739 $868 #
ellipse-curve $-1 17.376838960187087 -12.167393630179156 -25 0 0 -1 4.9240387650610398 0.86824088833465496 0 1 I I #
coedge $-1 $864 $572 $568 $743 forward $578 $-1 #
edge $869 $574 -10.000000000000002 $744 10.000000000000002 $568 $870 forward 7 unknown #
vertex $-1 $743 $871 #
straight-curve $-1 16.508598071852433 -7.2433548651181141 -30 0 0 1 I I #
point $-1 16.508598071852433 -7.2433548651181141 -25 #
convexity-sys-attrib $-1 $-1 $-1 $573 #
ellipse-curve $-1 12.167393630179156 17.376838960187087 -30 0 0 -1 4.9240387650610398 0.86824088833465496 0 1 I I #
point $-1 13.035634518513811 12.452800195126045 -30 #
coedge $-1 $577 $872 $873 $874 forward $578 $-1 #
coedge $-1 $873 $587 $582 $752 reversed $731 $-1 #
edge $-1 $754 0 $589 5 $582 $875 forward 7 unknown #
convexity-sys-attrib $-1 $-1 $-1 $583 #
vertex $-1 $583 $876 #
ellipse-curve $-1 -17.376838960187087 12.167393630179156 -30 0 0 -1 4.9240387650610398 0.86824088833465496 0 1 I I #
cone-surface $-1 -17.376838960187087 12.167393630179156 -30 0 0 1 4.9240387650610398 0.86824088833465496 0 1 I I 0 1 5 forward I I I I #
edge $-1 $862 2.8421709430403993e-016 $759 4.7123889803846897 $733 $877 forward 7 unknown #
coedge $-1 $587 $873 $858 $878 forward $731 $-1 #
vertex $-1 $878 $879 #
straight-curve $-1 -14.772116295183123 -2.6047226650039654 -24.999999999999996 -0.173648177666931 0.98480775301220802 0 I I #
point $-1 -16.508598071852433 7.2433548651181141 -25 #
plane-surface $-1 1.6653345369377348e-016 2.2204460492503131e-016 -29.999999999999996 -2.7772989627575118e-018 2.9072862055013248e-018 1 1 0 2.7772989627575118e-018 forward_v I I I I #
coedge $-1 $605 $600 $596 $764 forward $593 $-1 #
edge $880 $602 5.5102181471395495 $765 33.469345558581345 $596 $881 forward 7 unknown #
vertex $-1 $609 $882 #
straight-curve $-1 1.4270328247344506 -25.134040907786332 -25 0 0 1 I I #
point $-1 1.4270328247344506 -25.134040907786332 50 #
convexity-sys-attrib $-1 $-1 $-1 $601 #
straight-curve $-1 24.620193825305201 4.3412044416732769 -24.999999999999996 0.173648177666931 -0.98480775301220802 0 I I #
point $-1 28.961398266978478 -20.278989383631924 -25 #
convexity-sys-attrib $-1 $-1 $-1 $609 #
straight-curve $-1 1.4270328247344484 0.95683933979803815 -25 0 1 0 I I #
coedge $-1 $624 $619 $615 $774 forward $612 $-1 #
edge $883 $621 5.5102181471395486 $775 33.469345558581345 $615 $884 forward 7 unknown #
vertex $-1 $628 $885 #
straight-curve $-1 -1.4270328247344506 25.134040907786332 -25 0 0 1 I I #
point $-1 -1.4270328247344506 25.134040907786332 50 #
convexity-sys-attrib $-1 $-1 $-1 $620 #
straight-curve $-1 -24.620193825305201 -4.3412044416732769 -24.999999999999996 -0.173648177666931 0.98480775301220802 0 I I #
point $-1 -28.961398266978478 20.278989383631924 -25 #
convexity-sys-attrib $-1 $-1 $-1 $628 #
straight-curve $-1 -1.4270328247344484 -0.95683933979803815 -25 0 -1 0 I I #
model_id-kcp-attrib $-1 $-1 $-1 $632 1 990548721 50 1748107265 10 #
face $886 $186 $664 $10 $-1 $887 forward single #
plane-surface $-1 -15 0 20 1 0 0 0 0 -1 forward_v I I I I #
coedge $-1 $635 $651 $647 $794 forward $652 $-1 #
vertex $-1 $794 $888 #
straight-curve $-1 -15 10 20 0 0 -1 I I #
coedge $-1 $637 $647 $639 $791 reversed $299 $-1 #
straight-curve $-1 0 -15 -30 -1 0 0 I I #
edge $-1 $640 0 $817 4.7123889803846897 $789 $889 forward 7 unknown #
point $-1 -10 -15 -30 #
point $-1 20 -15 -30 #
edge $-1 $817 -10 $787 10 $786 $890 forward 7 unknown #
ellipse-curve $-1 -15 15 -30 0 0 -1 5 0 0 1 I I #
convexity-sys-attrib $-1 $-1 $653 $473 #
coedge $-1 $825 $824 $657 $798 forward $490 $-1 #
edge $891 $809 -25 $803 25 $797 $892 forward 7 unknown #
coedge $-1 $893 $658 $663 $813 forward $801 $-1 #
coedge $-1 $658 $894 $825 $895 forward $801 $-1 #
loop $-1 $-1 $799 $896 #
attrib_edge_convexity-kcp-attrib $-1 $897 $-1 $659 1 #
vertex $-1 $659 $898 #
straight-curve $-1 0 25 -25 1 0 0 I I #
coedge $-1 $899 $660 $824 $900 forward $807 $-1 #
coedge $-1 $660 $901 $662 $812 forward $807 $-1 #
loop $-1 $-1 $805 $902 #
attrib_edge_convexity-kcp-attrib $-1 $903 $-1 $661 1 #
vertex $-1 $661 $904 #
straight-curve $-1 0 -25 -25 -1 0 0 I I #
coedge $-1 $663 $662 $905 $906 reversed $664 $-1 #
edge $907 $908 -37.5 $667 37.5 $806 $909 forward 7 unknown #
edge $-1 $666 -37.5 $910 37.5 $799 $911 forward 7 unknown #
convexity-sys-attrib $-1 $-1 $665 $482 #
point $-1 25 25 -25 #
point $-1 25 -25 -25 #
vertex $-1 $794 $912 #
straight-curve $-1 -15 -10 20 0 0 1 I I #
model_id-kcp-attrib $-1 $-1 $672 $489 1 990548721 50 1748107265 14 #
model_id-kcp-attrib $-1 $-1 $-1 $673 1 990548721 50 1748107265 15 #
face $913 $902 $914 $10 $-1 $915 reversed single #
loop $-1 $-1 $905 $673 #
coedge $-1 $916 $917 $676 $826 forward $674 $-1 #
coedge $-1 $797 $676 $805 $900 reversed $490 $-1 #
coedge $-1 $676 $797 $800 $895 reversed $490 $-1 #
edge $918 $919 -25 $920 25 $823 $921 forward 7 unknown #
face $-1 $373 $685 $29 $-1 $558 forward single #
coedge $-1 $852 $691 $684 $829 reversed $837 $-1 #
edge $-1 $559 -53.581592092283678 $520 -44.899183208937117 $828 $841 forward 7 unknown #
coedge $-1 $831 $687 $707 $710 forward $832 $-1 #
coedge $-1 $687 $830 $689 $835 forward $832 $-1 #
loop $-1 $-1 $687 $922 #
straight-curve $-1 -28.961398266978481 20.278989383631927 -49.999999999999993 -0.98480775301220802 -0.17364817766693097 0 I I #
coedge $-1 $690 $689 $842 $923 reversed $509 $-1 #
edge $-1 $848 -53.581592092283678 $692 44.899183208937117 $689 $924 forward 7 unknown #
coedge $-1 $691 $852 $717 $838 reversed $837 $-1 #
loop $-1 $-1 $691 $925 #
edge $-1 $692 44.899183208937117 $854 53.581592092283678 $836 $924 forward 7 unknown #
point $-1 44.899183208937117 33.302602708651747 -50 #
vertex $-1 $694 $926 #
straight-curve $-1 0 33.302602708651747 50 -1 0 0 I I #
coedge $-1 $707 $695 $834 $923 forward $708 $-1 #
face $-1 $716 $700 $29 $-1 $851 reversed single #
edge $-1 $712 -50 $725 50 $705 $927 forward 7 unknown #
face $-1 $925 $708 $29 $-1 $847 reversed single #
straight-curve $-1 -53.581592092283678 0 -50 0 1 0 I I #
plane-surface $-1 -53.581592092283678 0 0 1 0 0 0 0 -1 forward_v I I I I #
vertex $-1 $835 $928 #
point $-1 -53.581592092283678 -33.302602708651747 50 #
face $-1 $922 $719 $29 $-1 $851 reversed single #
plane-surface $-1 0 0 -50 0 0 1 1 0 0 forward_v I I I I #
coedge $-1 $836 $828 $721 $853 forward $837 $-1 #
edge $-1 $559 -50 $854 50 $721 $929 forward 7 unknown #
vertex $-1 $722 $930 #
point $-1 53.581592092283678 -33.302602708651747 -50 #
point $-1 -53.581592092283678 -33.302602708651747 -50 #
straight-curve $-1 53.581592092283678 -33.302602708651747 0 0 0 -1 I I #
coedge $-1 $931 $733 $758 $878 reversed $561 $-1 #
coedge $-1 $733 $931 $734 $861 forward $561 $-1 #
coedge $-1 $735 $734 $932 $933 reversed $378 $-1 #
edge $-1 $934 0 $862 5 $859 $935 forward 7 unknown #
vertex $-1 $861 $936 #
straight-curve $-1 2.6047226650039654 -14.772116295183123 -24.999999999999996 -0.98480775301220802 -0.173648177666931 0 I I #
coedge $-1 $932 $742 $738 $865 forward $578 $-1 #
edge $937 $744 -1.5707963267948963 $866 3.1415926535897931 $738 $938 forward 7 unknown #
vertex $-1 $865 $939 #
straight-curve $-1 12.452800195126045 -13.03563451851381 -30 0 0 1 I I #
point $-1 12.452800195126045 -13.03563451851381 -25 #
convexity-sys-attrib $-1 $-1 $-1 $743 #
straight-curve $-1 14.772116295183123 2.6047226650039654 -29.999999999999996 0.173648177666931 -0.98480775301220802 0 I I #
point $-1 16.508598071852433 -7.2433548651181141 -30 #
coedge $-1 $750 $932 $931 $940 forward $578 $-1 #
coedge $-1 $758 $751 $750 $874 reversed $731 $-1 #
edge $941 $942 -10.000000000000002 $754 10.000000000000002 $873 $943 forward 7 unknown #
straight-curve $-1 -16.508598071852433 7.2433548651181141 -30 0 0 1 I I #
point $-1 -16.508598071852433 7.2433548651181141 -30 #
ellipse-curve $-1 -12.167393630179156 -17.376838960187087 -25 0 0 -1 4.9240387650610398 0.86824088833465496 0 1 I I #
edge $-1 $942 0 $759 5 $758 $944 forward 7 unknown #
point $-1 -13.035634518513811 -12.452800195126045 -25 #
convexity-sys-attrib $-1 $-1 $-1 $764 #
straight-curve $-1 34.387903819070068 -19.32215004383389 -25 -0.98480775301220802 -0.173648177666931 0 I I #
point $-1 1.4270328247344506 -25.134040907786332 -25 #
convexity-sys-attrib $-1 $-1 $-1 $774 #
straight-curve $-1 -34.387903819070068 19.32215004383389 -25 0.98480775301220802 0.17364817766693097 0 I I #
point $-1 -1.4270328247344506 25.134040907786332 -25 #
model_id-kcp-attrib $-1 $-1 $-1 $784 1 990548721 50 1748107265 11 #
plane-surface $-1 25 0 25 -1 0 0 0 0 1 forward_v I I I I #
point $-1 -15 10 -30 #
ellipse-curve $-1 -15 -15 -30 0 0 -1 5 0 0 1 I I #
straight-curve $-1 -15 0 -30 0 1 0 I I #
attrib_edge_convexity-kcp-attrib $-1 $945 $-1 $798 2 #
straight-curve $-1 -25 0 -25 0 1 0 I I #
coedge $-1 $946 $799 $947 $948 reversed $801 $-1 #
coedge $-1 $800 $949 $916 $950 reversed $801 $-1 #
edge $-1 $920 -37.5 $803 37.5 $800 $951 forward 7 unknown #
face $952 $953 $801 $10 $-1 $954 reversed single #
convexity-sys-attrib $-1 $-1 $802 $659 #
point $-1 -25 25 -25 #
coedge $-1 $955 $805 $917 $956 reversed $807 $-1 #
edge $957 $809 -37.5 $919 37.5 $805 $958 forward 7 unknown #
coedge $-1 $806 $959 $960 $961 reversed $807 $-1 #
face $962 $963 $807 $10 $-1 $964 reversed single #
convexity-sys-attrib $-1 $-1 $808 $661 #
point $-1 -25 -25 -25 #
coedge $-1 $960 $947 $811 $906 forward $822 $-1 #
edge $-1 $910 -25 $908 25 $905 $965 forward 7 unknown #
attrib_edge_convexity-kcp-attrib $-1 $966 $-1 $812 1 #
vertex $-1 $812 $967 #
straight-curve $-1 25 -25 12.5 0 0 -1 I I #
vertex $-1 $948 $968 #
straight-curve $-1 25 25 12.5 0 0 1 I I #
point $-1 -15 -10 -30 #
model_id-kcp-attrib $-1 $-1 $-1 $821 1 990548721 50 1748107265 16 #
loop $-1 $-1 $969 $821 #
plane-surface $-1 0 0 -50 0 0 1 1 0 0 forward_v I I I I #
coedge $-1 $970 $823 $894 $950 forward $674 $-1 #
coedge $-1 $823 $970 $899 $956 forward $674 $-1 #
attrib_edge_convexity-kcp-attrib $-1 $971 $-1 $826 1 #
vertex $-1 $956 $972 #
vertex $-1 $826 $973 #
straight-curve $-1 -25 0 50 0 1 0 I I #
face $-1 $704 $832 $29 $-1 $851 reversed single #
edge $-1 $840 -50 $848 50 $834 $974 forward 7 unknown #
straight-curve $-1 0 33.302602708651747 -50 1 0 0 I I #
face $-1 $729 $837 $29 $-1 $510 reversed single #
point $-1 -53.581592092283678 33.302602708651747 50 #
straight-curve $-1 -53.581592092283678 -33.302602708651747 0 0 0 -1 I I #
point $-1 -53.581592092283678 33.302602708651747 -50 #
straight-curve $-1 53.581592092283678 33.302602708651747 0 0 0 -1 I I #
point $-1 53.581592092283678 33.302602708651747 -50 #
coedge $-1 $859 $858 $872 $940 reversed $561 $-1 #
coedge $-1 $872 $864 $860 $933 forward $578 $-1 #
edge $975 $866 -10.000000000000002 $934 10.000000000000002 $860 $976 forward 7 unknown #
vertex $-1 $933 $977 #
straight-curve $-1 -7.2433548651181141 -16.508598071852433 -30 0 0 1 I I #
point $-1 -7.2433548651181141 -16.508598071852433 -25 #
convexity-sys-attrib $-1 $-1 $-1 $865 #
ellipse-curve $-1 17.376838960187087 -12.167393630179156 -30 0 0 -1 4.9240387650610398 0.86824088833465496 0 1 I I #
point $-1 12.452800195126045 -13.035634518513811 -30 #
edge $978 $934 2.8421709430403993e-016 $942 4.7123889803846897 $931 $979 forward 7 unknown #
convexity-sys-attrib $-1 $-1 $-1 $874 #
vertex $-1 $940 $980 #
straight-curve $-1 -14.772116295183123 -2.6047226650039654 -29.999999999999996 -0.173648177666931 0.98480775301220802 0 I I #
straight-curve $-1 -13.035634518513811 -12.452800195126045 -30 0 0 1 I I #
convexity-sys-attrib $-1 $-1 $891 $798 #
coedge $-1 $981 $893 $982 $983 forward $801 $-1 #
coedge $-1 $905 $984 $893 $948 forward $822 $-1 #
edge $-1 $985 -50 $910 -25 $893 $986 forward 7 unknown #
coedge $-1 $894 $981 $987 $988 reversed $801 $-1 #
edge $989 $920 25 $990 50 $894 $986 forward 7 unknown #
straight-curve $-1 -25 25 12.5 0 0 -1 I I #
model_id-kcp-attrib $-1 $-1 $-1 $896 1 990548721 50 1748107265 19 #
face $991 $-1 $992 $10 $-1 $993 reversed single #
plane-surface $-1 0 25 0 0 -1 0 0 0 -1 forward_v I I I I #
coedge $-1 $994 $899 $995 $996 forward $807 $-1 #
edge $997 $998 -50 $919 -25 $899 $999 forward 7 unknown #
attrib_edge_convexity-kcp-attrib $-1 $1000 $-1 $900 1 #
straight-curve $-1 -25 -25 12.5 0 0 1 I I #
coedge $-1 $901 $994 $1001 $1002 reversed $807 $-1 #
coedge $-1 $984 $905 $901 $961 forward $822 $-1 #
edge $1003 $908 25 $1004 50 $901 $999 forward 7 unknown #
model_id-kcp-attrib $-1 $-1 $-1 $902 1 990548721 50 1748107265 17 #
face $1005 $896 $1006 $10 $-1 $1007 reversed single #
plane-surface $-1 0 -25 0 0 1 0 0 0 1 forward_v I I I I #
straight-curve $-1 25 0 50 0 -1 0 I I #
convexity-sys-attrib $-1 $-1 $907 $812 #
point $-1 25 -25 50 #
point $-1 25 25 50 #
coedge $-1 $1008 $1009 $1010 $1011 forward $914 $-1 #
coedge $-1 $917 $916 $1012 $1013 forward $674 $-1 #
convexity-sys-attrib $-1 $-1 $918 $826 #
point $-1 -25 -25 50 #
point $-1 -25 25 50 #
straight-curve $-1 -53.581592092283678 33.302602708651747 0 0 0 -1 I I #
convexity-sys-attrib $-1 $-1 $-1 $933 #
straight-curve $-1 2.6047226650039654 -14.772116295183123 -29.999999999999996 -0.98480775301220802 -0.173648177666931 0 I I #
point $-1 -7.2433548651181141 -16.508598071852433 -30 #
convexity-sys-attrib $-1 $-1 $-1 $940 #
ellipse-curve $-1 -12.167393630179156 -17.376838960187087 -30 0 0 -1 4.9240387650610398 0.86824088833465496 0 1 I I #
point $-1 -13.035634518513811 -12.452800195126045 -30 #
coedge $-1 $949 $946 $1009 $1014 reversed $801 $-1 #
coedge $-1 $1015 $1010 $946 $983 reversed $992 $-1 #
edge $-1 $985 -50 $1016 50 $982 $1017 forward 7 unknown #
coedge $-1 $947 $960 $1015 $1018 forward $822 $-1 #
vertex $-1 $1018 $1019 #
straight-curve $-1 0 25 50 -1 0 0 I I #
coedge $-1 $1020 $1012 $949 $988 forward $1006 $-1 #
edge $1021 $990 -50 $1022 50 $949 $1023 forward 7 unknown #
attrib_edge_convexity-kcp-attrib $-1 $1024 $-1 $950 1 #
vertex $-1 $950 $1025 #
model_id-kcp-attrib $-1 $-1 $-1 $953 1 990548721 50 1748107265 20 #
loop $-1 $-1 $1001 $953 #
plane-surface $-1 50 0 0 -1 0 0 0 0 1 forward_v I I I I #
coedge $-1 $959 $955 $1008 $1026 reversed $807 $-1 #
coedge $-1 $1012 $1020 $955 $996 reversed $1006 $-1 #
edge $1027 $998 -50 $1028 50 $995 $1029 forward 7 unknown #
attrib_edge_convexity-kcp-attrib $-1 $1030 $-1 $956 1 #
vertex $-1 $1013 $1031 #
straight-curve $-1 0 -25 50 1 0 0 I I #
convexity-sys-attrib $-1 $-1 $957 $900 #
coedge $-1 $1010 $1015 $959 $1002 forward $992 $-1 #
edge $1032 $1004 -50 $1033 50 $1001 $1034 forward 7 unknown #
attrib_edge_convexity-kcp-attrib $-1 $1035 $-1 $961 1 #
vertex $-1 $1018 $1036 #
model_id-kcp-attrib $-1 $-1 $-1 $963 1 990548721 50 1748107265 18 #
loop $-1 $-1 $987 $963 #
plane-surface $-1 -50 0 0 1 0 0 0 0 -1 forward_v I I I I #
coedge $-1 $1037 $969 $994 $1026 forward $914 $-1 #
coedge $-1 $969 $1037 $981 $1014 forward $914 $-1 #
coedge $-1 $982 $1001 $969 $1011 reversed $992 $-1 #
edge $-1 $1016 -25 $1033 25 $1010 $1038 forward 7 unknown #
coedge $-1 $987 $995 $970 $1013 reversed $1006 $-1 #
edge $1039 $990 -25 $998 25 $1012 $1040 forward 7 unknown #
edge $-1 $1022 -50 $1016 50 $981 $1041 forward 7 unknown #
coedge $-1 $1001 $982 $984 $1018 reversed $992 $-1 #
vertex $-1 $1011 $1042 #
straight-curve $-1 50 25 0 0 0 -1 I I #
edge $-1 $1004 -25 $985 25 $1015 $1043 forward 7 unknown #
point $-1 50 25 50 #
coedge $-1 $995 $987 $1037 $1044 reversed $1006 $-1 #
attrib_edge_convexity-kcp-attrib $-1 $1045 $-1 $988 1 #
vertex $-1 $1014 $1046 #
straight-curve $-1 -50 25 0 0 0 -1 I I #
convexity-sys-attrib $-1 $-1 $989 $950 #
point $-1 -50 25 50 #
edge $1047 $1033 -50 $1028 50 $994 $1048 forward 7 unknown #
attrib_edge_convexity-kcp-attrib $-1 $1049 $-1 $996 1 #
vertex $-1 $1044 $1050 #
straight-curve $-1 -50 -25 0 0 0 -1 I I #
convexity-sys-attrib $-1 $-1 $997 $956 #
point $-1 -50 -25 50 #
attrib_edge_convexity-kcp-attrib $-1 $1051 $-1 $1002 1 #
vertex $-1 $1002 $1052 #
straight-curve $-1 50 -25 0 0 0 -1 I I #
convexity-sys-attrib $-1 $-1 $1003 $961 #
point $-1 50 -25 50 #
coedge $-1 $1009 $1008 $1020 $1044 forward $914 $-1 #
straight-curve $-1 50 0 -50 0 -1 0 I I #
attrib_edge_convexity-kcp-attrib $-1 $1053 $-1 $1013 1 #
straight-curve $-1 -50 0 50 0 -1 0 I I #
straight-curve $-1 0 25 -50 1 0 0 I I #
point $-1 50 25 -50 #
straight-curve $-1 50 0 50 0 1 0 I I #
edge $1054 $1028 -25 $1022 25 $1020 $1055 forward 7 unknown #
convexity-sys-attrib $-1 $-1 $1021 $988 #
point $-1 -50 25 -50 #
attrib_edge_convexity-kcp-attrib $-1 $1056 $-1 $1026 1 #
straight-curve $-1 0 -25 -50 -1 0 0 I I #
convexity-sys-attrib $-1 $-1 $1027 $996 #
point $-1 -50 -25 -50 #
convexity-sys-attrib $-1 $-1 $1032 $1002 #
point $-1 50 -25 -50 #
convexity-sys-attrib $-1 $-1 $1039 $1013 #
attrib_edge_convexity-kcp-attrib $-1 $1057 $-1 $1044 1 #
straight-curve $-1 -50 0 -50 0 1 0 I I #
convexity-sys-attrib $-1 $-1 $1047 $1026 #
convexity-sys-attrib $-1 $-1 $1054 $1044 #
End-of-ACIS-data 