105 325 1 0                             
body $-1 $1 $-1 $2 #
lump $-1 $-1 $3 $0 #
transform $-1 0.984807753012208 0.173648177666931 0 -0.173648177666931 0.984807753012208 0 0 0 1 0 0 0 1 1 0 0 #
shell $-1 $-1 $-1 $4 $1 #
face $-1 $5 $6 $3 $-1 $7 reversed single #
face $-1 $8 $9 $3 $-1 $10 forward single #
loop $-1 $-1 $11 $4 #
cone-surface $-1 15 15 20 0 0 1 5 0 0 1 0 1 0 #
face $-1 $12 $13 $3 $-1 $14 reversed single #
loop $-1 $-1 $15 $5 #
plane-surface $-1 15 0 20 -1 0 0 0 0 1 0 #
coedge $-1 $16 $17 $18 $19 1 $6 $-1 #
face $-1 $20 $21 $3 $-1 $22 forward single #
loop $-1 $-1 $23 $8 #
cone-surface $-1 15 -15 20 0 0 1 5 0 0 1 0 1 0 #
coedge $-1 $24 $25 $26 $27 1 $9 $-1 #
coedge $-1 $28 $11 $29 $30 0 $6 $-1 #
coedge $-1 $11 $31 $24 $32 0 $6 $-1 #
coedge $-1 $26 $33 $11 $19 0 $34 $-1 #
edge $-1 $35 $36 $18 $37 0 #
face $-1 $38 $39 $3 $-1 $40 reversed single #
loop $-1 $-1 $41 $12 #
plane-surface $-1 0 -15 20 0 1 0 0 0 1 0 #
coedge $-1 $42 $43 $44 $45 1 $13 $-1 #
coedge $-1 $46 $15 $17 $32 1 $9 $-1 #
coedge $-1 $15 $46 $42 $47 1 $9 $-1 #
coedge $-1 $44 $18 $15 $27 0 $34 $-1 #
edge $-1 $36 $48 $26 $49 0 #
coedge $-1 $31 $16 $50 $51 0 $6 $-1 #
coedge $-1 $52 $53 $16 $30 1 $54 $-1 #
edge $-1 $35 $55 $29 $56 0 #
coedge $-1 $17 $28 $57 $58 0 $6 $-1 #
edge $-1 $59 $36 $24 $60 0 #
coedge $-1 $18 $61 $52 $62 0 $34 $-1 #
loop $-1 $63 $64 $65 #
vertex $-1 $62 $66 #
vertex $-1 $19 $67 #
ellipse-curve $-1 15 15 -25 -0 -0 -1 5 0 0 1 #
face $-1 $68 $54 $3 $-1 $69 forward single #
loop $-1 $-1 $70 $20 #
cone-surface $-1 -15 15 20 0 0 1 5 0 0 1 0 1 0 #
coedge $-1 $71 $72 $73 $74 1 $21 $-1 #
coedge $-1 $75 $23 $25 $47 0 $13 $-1 #
coedge $-1 $23 $76 $71 $77 0 $13 $-1 #
coedge $-1 $73 $26 $23 $45 0 $34 $-1 #
edge $-1 $48 $78 $44 $79 0 #
coedge $-1 $25 $24 $80 $81 0 $9 $-1 #
edge $-1 $48 $82 $25 $83 0 #
vertex $-1 $27 $84 #
straight-curve $-1 15 0 -25 0 -1 0 #
coedge $-1 $85 $57 $28 $51 1 $86 $-1 #
edge $-1 $55 $87 $50 $88 0 #
coedge $-1 $89 $29 $33 $62 1 $54 $-1 #
coedge $-1 $29 $89 $85 $90 0 $54 $-1 #
loop $-1 $-1 $52 $38 #
vertex $-1 $90 $91 #
straight-curve $-1 10 15 20 -0 -0 -1 #
coedge $-1 $50 $80 $31 $58 1 $86 $-1 #
edge $-1 $87 $59 $57 $88 0 #
vertex $-1 $81 $92 #
straight-curve $-1 15 10 20 0 0 1 #
coedge $-1 $33 $93 $70 $94 0 $34 $-1 #
edge $-1 $95 $35 $33 $96 0 #
loop $-1 $-1 $97 $65 #
coedge $-1 $93 $73 $98 $99 0 $34 $-1 #
face $-1 $100 $34 $3 $-1 $101 forward single #
point $-1 10 15 -25 #
point $-1 15 10 -25 #
face $-1 $102 $86 $3 $-1 $103 forward single #
plane-surface $-1 0 15 20 0 -1 0 0 0 -1 0 #
coedge $-1 $104 $105 $61 $94 1 $39 $-1 #
coedge $-1 $106 $41 $43 $77 1 $21 $-1 #
coedge $-1 $41 $106 $107 $108 1 $21 $-1 #
coedge $-1 $64 $44 $41 $74 0 $34 $-1 #
edge $-1 $78 $109 $73 $110 0 #
coedge $-1 $76 $42 $111 $112 0 $13 $-1 #
coedge $-1 $43 $75 $113 $114 0 $13 $-1 #
edge $-1 $115 $78 $71 $116 0 #
vertex $-1 $45 $117 #
ellipse-curve $-1 15 -15 -25 -0 -0 -1 5 0 0 1 #
coedge $-1 $57 $111 $46 $81 1 $86 $-1 #
edge $-1 $59 $82 $46 $118 0 #
vertex $-1 $81 $119 #
straight-curve $-1 15 -10 20 -0 -0 -1 #
point $-1 15 -10 -25 #
coedge $-1 $120 $50 $53 $90 1 $86 $-1 #
loop $-1 $-1 $85 $68 #
vertex $-1 $51 $121 #
ellipse-curve $-1 15 15 -30 0 0 -1 5 0 0 1 #
coedge $-1 $53 $52 $105 $122 1 $54 $-1 #
edge $-1 $123 $55 $53 $124 0 #
point $-1 10 15 -30 #
point $-1 15 10 -30 #
coedge $-1 $61 $64 $125 $126 0 $34 $-1 #
edge $-1 $127 $95 $61 $128 0 #
vertex $-1 $94 $129 #
straight-curve $-1 0 15 -25 1 0 -0 #
coedge $-1 $130 $131 $132 $133 1 $63 $-1 #
coedge $-1 $107 $134 $64 $99 1 $135 $-1 #
edge $-1 $109 $136 $64 $137 0 #
face $-1 $138 $139 $3 $-1 $140 forward single #
plane-surface $-1 0 0 -25 0 0 1 1 0 0 0 #
face $-1 $141 $135 $3 $-1 $142 reversed single #
plane-surface $-1 0 0 -30 0 0 1 1 0 0 0 #
coedge $-1 $143 $70 $144 $145 0 $39 $-1 #
coedge $-1 $70 $143 $89 $122 0 $39 $-1 #
coedge $-1 $72 $71 $146 $147 0 $21 $-1 #
coedge $-1 $148 $98 $72 $108 0 $135 $-1 #
edge $-1 $109 $149 $72 $150 0 #
vertex $-1 $99 $151 #
straight-curve $-1 0 -15 -25 -1 0 0 #
coedge $-1 $80 $113 $75 $112 1 $86 $-1 #
edge $-1 $82 $152 $111 $153 0 #
coedge $-1 $111 $146 $76 $114 1 $86 $-1 #
edge $-1 $152 $115 $113 $153 0 #
vertex $-1 $147 $154 #
straight-curve $-1 10 -15 20 0 0 1 #
point $-1 10 -15 -25 #
straight-curve $-1 15 0 -30 0 -1 0 #
point $-1 15 -10 -30 #
coedge $-1 $155 $85 $143 $156 1 $86 $-1 #
point $-1 20 15 -30 #
edge $-1 $123 $95 $89 $157 0 #
vertex $-1 $90 $158 #
straight-curve $-1 0 15 -30 1 0 0 #
coedge $-1 $159 $144 $93 $126 1 $160 $-1 #
edge $-1 $136 $127 $93 $161 0 #
vertex $-1 $94 $162 #
ellipse-curve $-1 -15 15 -25 -0 -0 -1 5 0 0 1 #
point $-1 -10 15 -25 #
coedge $-1 $163 $97 $164 $165 1 $63 $-1 #
coedge $-1 $97 $163 $166 $167 1 $63 $-1 #
coedge $-1 $168 $169 $97 $133 0 $170 $-1 #
edge $-1 $171 $172 $132 $173 0 #
coedge $-1 $98 $148 $159 $174 0 $135 $-1 #
loop $-1 $-1 $98 $102 #
vertex $-1 $99 $175 #
ellipse-curve $-1 -15 -15 -25 -0 -0 -1 5 0 0 1 #
face $-1 $176 $177 $3 $-1 $178 forward single #
loop $-1 $-1 $179 $100 #
plane-surface $-1 -25 0 25 1 0 0 0 0 -1 0 #
face $-1 $180 $160 $3 $-1 $181 forward single #
cone-surface $-1 -15 -15 20 0 0 1 5 0 0 1 0 1 0 #
coedge $-1 $105 $104 $120 $156 0 $39 $-1 #
coedge $-1 $125 $182 $104 $145 1 $160 $-1 #
edge $-1 $127 $183 $144 $184 0 #
coedge $-1 $113 $185 $106 $147 1 $86 $-1 #
edge $-1 $115 $149 $106 $186 0 #
coedge $-1 $134 $107 $185 $187 0 $135 $-1 #
vertex $-1 $147 $188 #
straight-curve $-1 -10 -15 20 -0 -0 -1 #
point $-1 -10 -15 -25 #
vertex $-1 $112 $189 #
ellipse-curve $-1 15 -15 -30 0 0 -1 5 0 0 1 #
point $-1 10 -15 -30 #
coedge $-1 $185 $120 $182 $190 1 $86 $-1 #
edge $-1 $183 $123 $120 $191 0 #
straight-curve $-1 -10 15 20 0 0 1 #
point $-1 -10 15 -30 #
coedge $-1 $182 $125 $134 $174 1 $160 $-1 #
loop $-1 $-1 $125 $141 #
straight-curve $-1 -15 0 -25 0 1 0 #
point $-1 -15 10 -25 #
coedge $-1 $131 $130 $192 $193 1 $63 $-1 #
coedge $-1 $194 $195 $130 $165 0 $196 $-1 #
edge $-1 $197 $171 $164 $198 0 #
coedge $-1 $199 $200 $131 $167 0 $201 $-1 #
edge $-1 $172 $202 $166 $203 0 #
coedge $-1 $204 $132 $200 $205 1 $170 $-1 #
coedge $-1 $132 $204 $194 $206 1 $170 $-1 #
loop $-1 $-1 $204 $180 #
vertex $-1 $165 $207 #
vertex $-1 $167 $208 #
straight-curve $-1 25 0 -25 0 -1 0 #
edge $-1 $209 $136 $159 $210 0 #
point $-1 -15 -10 -25 #
face $-1 $211 $212 $3 $-1 $178 forward single #
loop $-1 $-1 $213 $138 #
plane-surface $-1 0 0 50 0 0 1 1 0 0 0 #
coedge $-1 $214 $215 $213 $216 1 $139 $-1 #
face $-1 $65 $170 $3 $-1 $217 forward single #
plane-surface $-1 -15 0 20 1 0 0 0 0 -1 0 #
coedge $-1 $144 $159 $155 $190 0 $160 $-1 #
vertex $-1 $190 $218 #
straight-curve $-1 -15 10 20 -0 -0 -1 #
coedge $-1 $146 $155 $148 $187 1 $86 $-1 #
straight-curve $-1 0 -15 -30 -1 0 0 #
edge $-1 $149 $209 $185 $219 0 #
point $-1 -10 -15 -30 #
point $-1 20 -15 -30 #
edge $-1 $209 $183 $182 $220 0 #
ellipse-curve $-1 -15 15 -30 0 0 -1 5 0 0 1 #
coedge $-1 $215 $214 $163 $193 0 $139 $-1 #
edge $-1 $202 $197 $192 $221 0 #
coedge $-1 $222 $164 $169 $206 0 $196 $-1 #
coedge $-1 $164 $223 $215 $224 0 $196 $-1 #
loop $-1 $-1 $194 $225 #
vertex $-1 $165 $226 #
straight-curve $-1 0 25 -25 1 0 -0 #
coedge $-1 $227 $166 $214 $228 0 $201 $-1 #
coedge $-1 $166 $229 $168 $205 0 $201 $-1 #
loop $-1 $-1 $199 $230 #
vertex $-1 $167 $231 #
straight-curve $-1 0 -25 -25 -1 0 0 #
coedge $-1 $169 $168 $232 $233 1 $170 $-1 #
edge $-1 $234 $172 $200 $235 0 #
edge $-1 $171 $236 $194 $237 0 #
point $-1 25 25 -25 #
point $-1 25 -25 -25 #
vertex $-1 $190 $238 #
straight-curve $-1 -15 -10 20 0 0 1 #
face $-1 $230 $239 $3 $-1 $240 reversed single #
loop $-1 $-1 $232 $176 #
coedge $-1 $241 $242 $179 $216 0 $177 $-1 #
coedge $-1 $192 $179 $199 $228 1 $139 $-1 #
coedge $-1 $179 $192 $195 $224 1 $139 $-1 #
edge $-1 $243 $244 $213 $245 0 #
plane-surface $-1 25 0 25 -1 0 0 0 0 1 0 #
point $-1 -15 10 -30 #
ellipse-curve $-1 -15 -15 -30 0 0 -1 5 0 0 1 #
straight-curve $-1 -15 0 -30 0 1 0 #
straight-curve $-1 -25 0 -25 0 1 0 #
coedge $-1 $246 $194 $247 $248 1 $196 $-1 #
coedge $-1 $195 $249 $241 $250 1 $196 $-1 #
edge $-1 $244 $197 $195 $251 0 #
face $-1 $252 $196 $3 $-1 $253 reversed single #
point $-1 -25 25 -25 #
coedge $-1 $254 $199 $242 $255 1 $201 $-1 #
edge $-1 $202 $243 $199 $256 0 #
coedge $-1 $200 $257 $258 $259 1 $201 $-1 #
face $-1 $260 $201 $3 $-1 $261 reversed single #
point $-1 -25 -25 -25 #
coedge $-1 $258 $247 $204 $233 0 $212 $-1 #
edge $-1 $236 $234 $232 $262 0 #
vertex $-1 $205 $263 #
straight-curve $-1 25 -25 12.5 -0 0 -1 #
vertex $-1 $248 $264 #
straight-curve $-1 25 25 12.5 0 0 1 #
point $-1 -15 -10 -30 #
loop $-1 $-1 $265 $211 #
plane-surface $-1 0 0 -50 0 0 1 1 0 0 0 #
coedge $-1 $266 $213 $223 $250 0 $177 $-1 #
coedge $-1 $213 $266 $227 $255 0 $177 $-1 #
vertex $-1 $255 $267 #
vertex $-1 $216 $268 #
straight-curve $-1 -25 0 50 0 1 0 #
coedge $-1 $269 $222 $270 $271 0 $196 $-1 #
coedge $-1 $232 $272 $222 $248 0 $212 $-1 #
edge $-1 $273 $236 $222 $274 0 #
coedge $-1 $223 $269 $275 $276 1 $196 $-1 #
edge $-1 $244 $277 $223 $274 0 #
straight-curve $-1 -25 25 12.5 0 0 -1 #
face $-1 $-1 $278 $3 $-1 $279 reversed single #
plane-surface $-1 0 25 0 0 -1 0 0 0 -1 0 #
coedge $-1 $280 $227 $281 $282 0 $201 $-1 #
edge $-1 $283 $243 $227 $284 0 #
straight-curve $-1 -25 -25 12.5 -0 0 1 #
coedge $-1 $229 $280 $285 $286 1 $201 $-1 #
coedge $-1 $272 $232 $229 $259 0 $212 $-1 #
edge $-1 $234 $287 $229 $284 0 #
face $-1 $225 $288 $3 $-1 $289 reversed single #
plane-surface $-1 0 -25 0 0 1 -0 -0 0 1 0 #
straight-curve $-1 25 0 50 0 -1 0 #
point $-1 25 -25 50 #
point $-1 25 25 50 #
coedge $-1 $290 $291 $292 $293 0 $239 $-1 #
coedge $-1 $242 $241 $294 $295 0 $177 $-1 #
point $-1 -25 -25 50 #
point $-1 -25 25 50 #
coedge $-1 $249 $246 $291 $296 1 $196 $-1 #
coedge $-1 $297 $292 $246 $271 1 $278 $-1 #
edge $-1 $273 $298 $270 $299 0 #
coedge $-1 $247 $258 $297 $300 0 $212 $-1 #
vertex $-1 $300 $301 #
straight-curve $-1 0 25 50 -1 0 0 #
coedge $-1 $302 $294 $249 $276 0 $288 $-1 #
edge $-1 $277 $303 $249 $304 0 #
vertex $-1 $250 $305 #
loop $-1 $-1 $285 $252 #
plane-surface $-1 50 0 0 -1 0 0 0 -0 1 0 #
coedge $-1 $257 $254 $290 $306 1 $201 $-1 #
coedge $-1 $294 $302 $254 $282 1 $288 $-1 #
edge $-1 $283 $307 $281 $308 0 #
vertex $-1 $295 $309 #
straight-curve $-1 0 -25 50 1 0 0 #
coedge $-1 $292 $297 $257 $286 0 $278 $-1 #
edge $-1 $287 $310 $285 $311 0 #
vertex $-1 $300 $312 #
loop $-1 $-1 $275 $260 #
plane-surface $-1 -50 0 0 1 0 0 0 0 -1 0 #
coedge $-1 $313 $265 $280 $306 0 $239 $-1 #
coedge $-1 $265 $313 $269 $296 0 $239 $-1 #
coedge $-1 $270 $285 $265 $293 1 $278 $-1 #
edge $-1 $298 $310 $292 $314 0 #
coedge $-1 $275 $281 $266 $295 1 $288 $-1 #
edge $-1 $277 $283 $294 $315 0 #
edge $-1 $303 $298 $269 $316 0 #
coedge $-1 $285 $270 $272 $300 1 $278 $-1 #
vertex $-1 $293 $317 #
straight-curve $-1 50 25 0 0 0 -1 #
edge $-1 $287 $273 $297 $318 0 #
point $-1 50 25 50 #
coedge $-1 $281 $275 $313 $319 1 $288 $-1 #
vertex $-1 $296 $320 #
straight-curve $-1 -50 25 0 0 0 -1 #
point $-1 -50 25 50 #
edge $-1 $310 $307 $280 $321 0 #
vertex $-1 $319 $322 #
straight-curve $-1 -50 -25 0 0 0 -1 #
point $-1 -50 -25 50 #
vertex $-1 $286 $323 #
straight-curve $-1 50 -25 0 0 0 -1 #
point $-1 50 -25 50 #
coedge $-1 $291 $290 $302 $319 0 $239 $-1 #
straight-curve $-1 50 0 -50 0 -1 0 #
straight-curve $-1 -50 0 50 0 -1 0 #
straight-curve $-1 0 25 -50 1 0 0 #
point $-1 50 25 -50 #
straight-curve $-1 50 0 50 0 1 0 #
edge $-1 $307 $303 $302 $324 0 #
point $-1 -50 25 -50 #
straight-curve $-1 0 -25 -50 -1 0 0 #
point $-1 -50 -25 -50 #
point $-1 50 -25 -50 #
straight-curve $-1 -50 0 -50 0 1 0 #
