600 0 1 0           
89 GICL ACIS Healer - Source: /gicl/data5/repository/UMD/access-prob2/access-prob2.sat - 6 0 18 ACIS 6.0.3 Solaris 24 Sun Apr 14 00:34:23 2002 
1 9.999999999999999547e-07 1.000000000000000036e-10 
body $-1 $1 $-1 $-1 #
lump $-1 $-1 $2 $0 #
shell $-1 $-1 $-1 $3 $-1 $1 #
face $-1 $4 $5 $2 $-1 $6 reversed single #
face $-1 $7 $8 $2 $-1 $9 forward single #
loop $-1 $-1 $10 $3 #
cone-surface $-1 12.16739363017915565 17.37683896018708651 20 0 0 1 4.924038765061039769 0.8682408883346549588 0 1 I I 0 1 5 forward I I I I #
face $-1 $11 $12 $2 $-1 $13 reversed single #
loop $-1 $-1 $14 $4 #
plane-surface $-1 14.77211629518312108 2.604722665003964988 20 -0.9848077530122080203 -0.1736481776669309973 0 0 0 1 forward_v I I I I #
coedge $-1 $15 $16 $17 $18 reversed $5 $-1 #
face $-1 $19 $20 $2 $-1 $21 forward single #
loop $-1 $-1 $22 $7 #
cone-surface $-1 17.37683896018708651 -12.16739363017915565 20 0 0 1 4.924038765061039769 0.8682408883346549588 0 1 I I 0 1 5 forward I I I I #
coedge $-1 $23 $24 $25 $26 reversed $8 $-1 #
coedge $-1 $27 $10 $28 $29 forward $5 $-1 #
coedge $-1 $10 $30 $23 $31 forward $5 $-1 #
coedge $-1 $25 $32 $10 $18 forward $33 $-1 #
edge $-1 $34 -3.141592653589793116 $35 1.570796326794896558 $17 $36 forward 7 unknown #
face $-1 $37 $38 $2 $-1 $39 reversed single #
loop $-1 $-1 $40 $11 #
plane-surface $-1 2.604722665003964988 -14.77211629518312108 20 -0.1736481776669309973 0.9848077530122080203 0 0 0 1 forward_v I I I I #
coedge $-1 $41 $42 $43 $44 reversed $12 $-1 #
coedge $-1 $45 $14 $16 $31 reversed $8 $-1 #
coedge $-1 $14 $45 $41 $46 reversed $8 $-1 #
coedge $-1 $43 $17 $14 $26 forward $33 $-1 #
edge $-1 $35 -10.00000000000000178 $47 10.00000000000000178 $25 $48 forward 7 unknown #
coedge $-1 $30 $15 $49 $50 forward $5 $-1 #
coedge $-1 $51 $52 $15 $29 reversed $53 $-1 #
edge $-1 $34 45 $54 50 $28 $55 forward 7 unknown #
coedge $-1 $16 $27 $56 $57 forward $5 $-1 #
edge $-1 $58 -50 $35 -45 $23 $59 forward 7 unknown #
coedge $-1 $17 $60 $51 $61 forward $33 $-1 #
loop $-1 $62 $63 $64 #
vertex $-1 $61 $65 #
vertex $-1 $18 $66 #
ellipse-curve $-1 12.16739363017915565 17.37683896018708651 -25 0 -0 -1 4.924038765061039769 0.8682408883346549588 0 1 I I #
face $-1 $67 $53 $2 $-1 $68 forward single #
loop $-1 $-1 $69 $19 #
cone-surface $-1 -17.37683896018708651 12.16739363017915565 20 0 0 1 4.924038765061039769 0.8682408883346549588 0 1 I I 0 1 5 forward I I I I #
coedge $-1 $70 $71 $72 $73 reversed $20 $-1 #
coedge $-1 $74 $22 $24 $46 forward $12 $-1 #
coedge $-1 $22 $75 $70 $76 forward $12 $-1 #
coedge $-1 $72 $25 $22 $44 forward $33 $-1 #
edge $-1 $47 -1.570796326794896336 $77 3.141592653589793116 $43 $78 forward 7 unknown #
coedge $-1 $24 $23 $79 $80 forward $8 $-1 #
edge $-1 $47 45 $81 50 $24 $82 forward 7 unknown #
vertex $-1 $26 $83 #
straight-curve $-1 14.77211629518312108 2.604722665003964988 -25 0.1736481776669309973 -0.9848077530122080203 0 I I #
coedge $-1 $84 $56 $27 $50 reversed $85 $-1 #
edge $-1 $54 -3.141592653589793116 $86 1.421085471520200894e-16 $49 $87 forward 7 unknown #
coedge $-1 $88 $28 $32 $61 reversed $53 $-1 #
coedge $-1 $28 $88 $84 $89 forward $53 $-1 #
loop $-1 $-1 $51 $37 #
vertex $-1 $89 $90 #
straight-curve $-1 7.243354865118114105 16.50859807185243255 20 0 -0 -1 I I #
coedge $-1 $49 $79 $30 $57 reversed $85 $-1 #
edge $-1 $86 1.421085471520200894e-16 $58 1.570796326794896558 $56 $87 forward 7 unknown #
vertex $-1 $80 $91 #
straight-curve $-1 13.03563451851381139 12.45280019512604497 20 0 0 1 I I #
coedge $-1 $32 $92 $69 $93 forward $33 $-1 #
edge $-1 $94 -10.00000000000000178 $34 10.00000000000000178 $32 $95 forward 7 unknown #
loop $-1 $-1 $96 $64 #
coedge $-1 $92 $72 $97 $98 forward $33 $-1 #
face $-1 $99 $33 $2 $-1 $100 forward single #
point $-1 7.243354865118114105 16.50859807185243255 -25 #
point $-1 13.03563451851381139 12.45280019512604497 -25 #
face $-1 $101 $85 $2 $-1 $102 forward single #
plane-surface $-1 -2.604722665003964988 14.77211629518312108 20 0.1736481776669309973 -0.9848077530122080203 0 0 0 -1 forward_v I I I I #
coedge $-1 $103 $104 $60 $93 reversed $38 $-1 #
coedge $-1 $105 $40 $42 $76 reversed $20 $-1 #
coedge $-1 $40 $105 $106 $107 reversed $20 $-1 #
coedge $-1 $63 $43 $40 $73 forward $33 $-1 #
edge $-1 $77 -10.00000000000000178 $108 10.00000000000000178 $72 $109 forward 7 unknown #
coedge $-1 $75 $41 $110 $111 forward $12 $-1 #
coedge $-1 $42 $74 $112 $113 forward $12 $-1 #
edge $-1 $114 -50 $77 -45 $70 $115 forward 7 unknown #
vertex $-1 $44 $116 #
ellipse-curve $-1 17.37683896018708651 -12.16739363017915565 -25 0 -0 -1 4.924038765061039769 0.8682408883346549588 0 1 I I #
coedge $-1 $56 $110 $45 $80 reversed $85 $-1 #
edge $-1 $58 -10.00000000000000178 $81 10.00000000000000178 $45 $117 forward 7 unknown #
vertex $-1 $80 $118 #
straight-curve $-1 16.50859807185243255 -7.243354865118114105 20 0 -0 -1 I I #
point $-1 16.50859807185243255 -7.243354865118114105 -25 #
coedge $-1 $119 $49 $52 $89 reversed $85 $-1 #
loop $-1 $-1 $84 $67 #
vertex $-1 $50 $120 #
ellipse-curve $-1 12.16739363017915565 17.37683896018708651 -30 0 0 -1 4.924038765061039769 0.8682408883346549588 0 1 I I #
coedge $-1 $52 $51 $104 $121 reversed $53 $-1 #
edge $-1 $122 -10.00000000000000178 $54 10.00000000000000178 $52 $123 forward 7 unknown #
point $-1 7.243354865118114105 16.50859807185243255 -30 #
point $-1 13.03563451851381139 12.45280019512604497 -30 #
coedge $-1 $60 $63 $124 $125 forward $33 $-1 #
edge $-1 $126 1.570796326794897002 $94 6.283185307179586232 $60 $127 forward 7 unknown #
vertex $-1 $93 $128 #
straight-curve $-1 -2.604722665003964988 14.77211629518312108 -25 0.9848077530122080203 0.1736481776669309973 0 I I #
coedge $-1 $129 $130 $131 $132 reversed $62 $-1 #
coedge $-1 $106 $133 $63 $98 reversed $134 $-1 #
edge $-1 $108 2.842170943040399324e-16 $135 4.712388980384689674 $63 $136 forward 7 unknown #
face $-1 $137 $138 $2 $-1 $139 forward single #
plane-surface $-1 0 0 -25 0 0 1 0.9848077530122080203 0.1736481776669309973 0 forward_v I I I I #
face $-1 $140 $134 $2 $-1 $141 reversed single #
plane-surface $-1 0 0 -30 0 0 1 0.9848077530122080203 0.1736481776669309973 0 forward_v I I I I #
coedge $-1 $142 $69 $143 $144 forward $38 $-1 #
coedge $-1 $69 $142 $88 $121 forward $38 $-1 #
coedge $-1 $71 $70 $145 $146 forward $20 $-1 #
coedge $-1 $147 $97 $71 $107 forward $134 $-1 #
edge $-1 $108 45 $148 50 $71 $149 forward 7 unknown #
vertex $-1 $98 $150 #
straight-curve $-1 2.604722665003964988 -14.77211629518312108 -25 -0.9848077530122080203 -0.1736481776669309973 0 I I #
coedge $-1 $79 $112 $74 $111 reversed $85 $-1 #
edge $-1 $81 -1.570796326794896336 $151 1.421085471520200894e-16 $110 $152 forward 7 unknown #
coedge $-1 $110 $145 $75 $113 reversed $85 $-1 #
edge $-1 $151 1.421085471520200894e-16 $114 3.141592653589793116 $112 $152 forward 7 unknown #
vertex $-1 $146 $153 #
straight-curve $-1 12.45280019512604497 -13.03563451851381139 20 0 0 1 I I #
point $-1 12.45280019512604497 -13.03563451851381139 -25 #
straight-curve $-1 14.77211629518312108 2.604722665003964988 -30 0.1736481776669309973 -0.9848077530122080203 0 I I #
point $-1 16.50859807185243255 -7.243354865118114105 -30 #
coedge $-1 $154 $84 $142 $155 reversed $85 $-1 #
point $-1 17.09143239524019364 18.24507984852174047 -30 #
edge $-1 $122 -50 $94 -45 $88 $156 forward 7 unknown #
vertex $-1 $89 $157 #
straight-curve $-1 -2.604722665003964988 14.77211629518312108 -30 0.9848077530122080203 0.1736481776669309973 0 I I #
coedge $-1 $158 $143 $92 $125 reversed $159 $-1 #
edge $-1 $135 -10.00000000000000178 $126 10.00000000000000178 $92 $160 forward 7 unknown #
vertex $-1 $93 $161 #
ellipse-curve $-1 -17.37683896018708651 12.16739363017915565 -25 0 -0 -1 4.924038765061039769 0.8682408883346549588 0 1 I I #
point $-1 -12.45280019512604497 13.03563451851381139 -25 #
coedge $-1 $162 $96 $163 $164 reversed $62 $-1 #
coedge $-1 $96 $162 $165 $166 reversed $62 $-1 #
coedge $-1 $167 $168 $96 $132 forward $169 $-1 #
edge $-1 $170 -25.00000000000000355 $171 25.00000000000000355 $131 $172 forward 7 unknown #
coedge $-1 $97 $147 $158 $173 forward $134 $-1 #
loop $-1 $-1 $97 $101 #
vertex $-1 $98 $174 #
ellipse-curve $-1 -12.16739363017915565 -17.37683896018708651 -25 0 -0 -1 4.924038765061039769 0.8682408883346549588 0 1 I I #
face $-1 $175 $176 $2 $-1 $177 forward single #
loop $-1 $-1 $178 $99 #
plane-surface $-1 -24.62019382530520062 -4.341204441673275127 25 0.9848077530122080203 0.1736481776669309973 0 0 0 -1 forward_v I I I I #
face $-1 $179 $159 $2 $-1 $180 forward single #
cone-surface $-1 -12.16739363017915565 -17.37683896018708651 20 0 0 1 4.924038765061039769 0.8682408883346549588 0 1 I I 0 1 5 forward I I I I #
coedge $-1 $104 $103 $119 $155 forward $38 $-1 #
coedge $-1 $124 $181 $103 $144 reversed $159 $-1 #
edge $-1 $126 45 $182 50 $143 $183 forward 7 unknown #
coedge $-1 $112 $184 $105 $146 reversed $85 $-1 #
edge $-1 $114 -10.00000000000000178 $148 10.00000000000000178 $105 $185 forward 7 unknown #
coedge $-1 $133 $106 $184 $186 forward $134 $-1 #
vertex $-1 $146 $187 #
straight-curve $-1 -7.243354865118114105 -16.50859807185243255 20 0 -0 -1 I I #
point $-1 -7.243354865118114105 -16.50859807185243255 -25 #
vertex $-1 $111 $188 #
ellipse-curve $-1 17.37683896018708651 -12.16739363017915565 -30 0 0 -1 4.924038765061039769 0.8682408883346549588 0 1 I I #
point $-1 12.45280019512604497 -13.03563451851381139 -30 #
coedge $-1 $184 $119 $181 $189 reversed $85 $-1 #
edge $-1 $182 1.570796326794897002 $122 6.283185307179586232 $119 $190 forward 7 unknown #
straight-curve $-1 -12.45280019512604497 13.03563451851381139 20 0 0 1 I I #
point $-1 -12.45280019512604497 13.03563451851381139 -30 #
coedge $-1 $181 $124 $133 $173 reversed $159 $-1 #
loop $-1 $-1 $124 $140 #
straight-curve $-1 -14.77211629518312108 -2.604722665003964988 -25 -0.1736481776669309973 0.9848077530122080203 0 I I #
point $-1 -16.50859807185243255 7.243354865118114105 -25 #
coedge $-1 $130 $129 $191 $192 reversed $62 $-1 #
coedge $-1 $193 $194 $129 $164 forward $195 $-1 #
edge $-1 $196 -25.00000000000000355 $170 25.00000000000000355 $163 $197 forward 7 unknown #
coedge $-1 $198 $199 $130 $166 forward $200 $-1 #
edge $-1 $171 -25.00000000000000355 $201 25.00000000000000355 $165 $202 forward 7 unknown #
coedge $-1 $203 $131 $199 $204 reversed $169 $-1 #
coedge $-1 $131 $203 $193 $205 reversed $169 $-1 #
loop $-1 $-1 $203 $179 #
vertex $-1 $164 $206 #
vertex $-1 $166 $207 #
straight-curve $-1 24.62019382530520062 4.341204441673275127 -25 0.1736481776669309973 -0.9848077530122080203 0 I I #
edge $-1 $208 -50 $135 -45 $158 $209 forward 7 unknown #
point $-1 -13.03563451851381139 -12.45280019512604497 -25 #
face $-1 $210 $211 $2 $-1 $177 forward single #
loop $-1 $-1 $212 $137 #
plane-surface $-1 0 0 50 0 0 1 0.9848077530122080203 0.1736481776669309973 0 forward_v I I I I #
coedge $-1 $213 $214 $212 $215 reversed $138 $-1 #
face $-1 $64 $169 $2 $-1 $216 forward single #
plane-surface $-1 -14.77211629518312108 -2.604722665003964988 20 0.9848077530122080203 0.1736481776669309973 0 0 0 -1 forward_v I I I I #
coedge $-1 $143 $158 $154 $189 forward $159 $-1 #
vertex $-1 $189 $217 #
straight-curve $-1 -16.50859807185243255 7.243354865118114105 20 0 -0 -1 I I #
coedge $-1 $145 $154 $147 $186 reversed $85 $-1 #
straight-curve $-1 2.604722665003964988 -14.77211629518312108 -30 -0.9848077530122080203 -0.1736481776669309973 0 I I #
edge $-1 $148 2.842170943040399324e-16 $208 4.712388980384689674 $184 $218 forward 7 unknown #
point $-1 -7.243354865118114105 -16.50859807185243255 -30 #
point $-1 22.30087772524812451 -11.29915274184450169 -30 #
edge $-1 $208 -10.00000000000000178 $182 10.00000000000000178 $181 $219 forward 7 unknown #
ellipse-curve $-1 -17.37683896018708651 12.16739363017915565 -30 0 0 -1 4.924038765061039769 0.8682408883346549588 0 1 I I #
coedge $-1 $214 $213 $162 $192 forward $138 $-1 #
edge $-1 $201 -25.00000000000000355 $196 25.00000000000000355 $191 $220 forward 7 unknown #
coedge $-1 $221 $163 $168 $205 forward $195 $-1 #
coedge $-1 $163 $222 $214 $223 forward $195 $-1 #
loop $-1 $-1 $193 $224 #
vertex $-1 $164 $225 #
straight-curve $-1 -4.341204441673275127 24.62019382530520062 -25 0.9848077530122080203 0.1736481776669309973 0 I I #
coedge $-1 $226 $165 $213 $227 forward $200 $-1 #
coedge $-1 $165 $228 $167 $204 forward $200 $-1 #
loop $-1 $-1 $198 $229 #
vertex $-1 $166 $230 #
straight-curve $-1 4.341204441673275127 -24.62019382530520062 -25 -0.9848077530122080203 -0.1736481776669309973 0 I I #
coedge $-1 $168 $167 $231 $232 reversed $169 $-1 #
edge $-1 $233 -37.5 $171 37.5 $199 $234 forward 7 unknown #
edge $-1 $170 -37.5 $235 37.5 $193 $236 forward 7 unknown #
point $-1 20.27898938363192372 28.96139826697847752 -25 #
point $-1 28.96139826697847752 -20.27898938363192372 -25 #
vertex $-1 $189 $237 #
straight-curve $-1 -13.03563451851381139 -12.45280019512604497 20 0 0 1 I I #
face $-1 $229 $238 $2 $-1 $239 reversed single #
loop $-1 $-1 $231 $175 #
coedge $-1 $240 $241 $178 $215 forward $176 $-1 #
coedge $-1 $191 $178 $198 $227 reversed $138 $-1 #
coedge $-1 $178 $191 $194 $223 reversed $138 $-1 #
edge $-1 $242 -25.00000000000000355 $243 25.00000000000000355 $212 $244 forward 7 unknown #
plane-surface $-1 24.62019382530520062 4.341204441673275127 25 -0.9848077530122080203 -0.1736481776669309973 0 0 0 1 forward_v I I I I #
point $-1 -16.50859807185243255 7.243354865118114105 -30 #
ellipse-curve $-1 -12.16739363017915565 -17.37683896018708651 -30 0 0 -1 4.924038765061039769 0.8682408883346549588 0 1 I I #
straight-curve $-1 -14.77211629518312108 -2.604722665003964988 -30 -0.1736481776669309973 0.9848077530122080203 0 I I #
straight-curve $-1 -24.62019382530520062 -4.341204441673275127 -25 -0.1736481776669309973 0.9848077530122080203 0 I I #
coedge $-1 $245 $193 $246 $247 reversed $195 $-1 #
coedge $-1 $194 $248 $240 $249 reversed $195 $-1 #
edge $-1 $243 -37.5 $196 37.5 $194 $250 forward 7 unknown #
face $-1 $251 $195 $2 $-1 $252 reversed single #
point $-1 -28.96139826697847752 20.27898938363192372 -25 #
coedge $-1 $253 $198 $241 $254 reversed $200 $-1 #
edge $-1 $201 -37.5 $242 37.5 $198 $255 forward 7 unknown #
coedge $-1 $199 $256 $257 $258 reversed $200 $-1 #
face $-1 $259 $200 $2 $-1 $260 reversed single #
point $-1 -20.27898938363192372 -28.96139826697847752 -25 #
coedge $-1 $257 $246 $203 $232 forward $211 $-1 #
edge $-1 $235 -25.00000000000000355 $233 25.00000000000000355 $231 $261 forward 7 unknown #
vertex $-1 $204 $262 #
straight-curve $-1 28.96139826697847752 -20.27898938363192372 12.5 -0 0 -1 I I #
vertex $-1 $247 $263 #
straight-curve $-1 20.27898938363192372 28.96139826697847752 12.5 0 0 1 I I #
point $-1 -13.03563451851381139 -12.45280019512604497 -30 #
loop $-1 $-1 $264 $210 #
plane-surface $-1 0 0 -50 0 0 1 0.9848077530122080203 0.1736481776669309973 0 forward_v I I I I #
coedge $-1 $265 $212 $222 $249 forward $176 $-1 #
coedge $-1 $212 $265 $226 $254 forward $176 $-1 #
vertex $-1 $254 $266 #
vertex $-1 $215 $267 #
straight-curve $-1 -24.62019382530520062 -4.341204441673275127 50 -0.1736481776669309973 0.9848077530122080203 0 I I #
coedge $-1 $268 $221 $269 $270 forward $195 $-1 #
coedge $-1 $231 $271 $221 $247 forward $211 $-1 #
edge $-1 $272 -50.00000000000000711 $235 -25.00000000000000355 $221 $273 forward 7 unknown #
coedge $-1 $222 $268 $274 $275 reversed $195 $-1 #
edge $-1 $243 25.00000000000000355 $276 50.00000000000000711 $222 $273 forward 7 unknown #
straight-curve $-1 -28.96139826697847752 20.27898938363192372 12.5 0 0 -1 I I #
face $-1 $-1 $277 $2 $-1 $278 reversed single #
plane-surface $-1 -4.341204441673275127 24.62019382530520062 0 0.1736481776669309973 -0.9848077530122080203 0 0 0 -1 forward_v I I I I #
coedge $-1 $279 $226 $280 $281 forward $200 $-1 #
edge $-1 $282 -50.00000000000000711 $242 -25.00000000000000355 $226 $283 forward 7 unknown #
straight-curve $-1 -20.27898938363192372 -28.96139826697847752 12.5 0 0 1 I I #
coedge $-1 $228 $279 $284 $285 reversed $200 $-1 #
coedge $-1 $271 $231 $228 $258 forward $211 $-1 #
edge $-1 $233 25.00000000000000355 $286 50.00000000000000711 $228 $283 forward 7 unknown #
face $-1 $224 $287 $2 $-1 $288 reversed single #
plane-surface $-1 4.341204441673275127 -24.62019382530520062 0 -0.1736481776669309973 0.9848077530122080203 0 0 0 1 forward_v I I I I #
straight-curve $-1 24.62019382530520062 4.341204441673275127 50 0.1736481776669309973 -0.9848077530122080203 0 I I #
point $-1 28.96139826697847752 -20.27898938363192372 50 #
point $-1 20.27898938363192372 28.96139826697847752 50 #
coedge $-1 $289 $290 $291 $292 forward $238 $-1 #
coedge $-1 $241 $240 $293 $294 forward $176 $-1 #
point $-1 -20.27898938363192372 -28.96139826697847752 50 #
point $-1 -28.96139826697847752 20.27898938363192372 50 #
coedge $-1 $248 $245 $290 $295 reversed $195 $-1 #
coedge $-1 $296 $291 $245 $270 reversed $277 $-1 #
edge $-1 $272 -50 $297 50 $269 $298 forward 7 unknown #
coedge $-1 $246 $257 $296 $299 forward $211 $-1 #
vertex $-1 $299 $300 #
straight-curve $-1 -4.341204441673275127 24.62019382530520062 50 -0.9848077530122080203 -0.1736481776669309973 0 I I #
coedge $-1 $301 $293 $248 $275 forward $287 $-1 #
edge $-1 $276 -50 $302 50 $248 $303 forward 7 unknown #
vertex $-1 $249 $304 #
loop $-1 $-1 $284 $251 #
plane-surface $-1 49.24038765061040124 8.682408883346550255 0 -0.9848077530122080203 -0.1736481776669309973 0 0 0 1 forward_v I I I I #
coedge $-1 $256 $253 $289 $305 reversed $200 $-1 #
coedge $-1 $293 $301 $253 $281 reversed $287 $-1 #
edge $-1 $282 -50 $306 50 $280 $307 forward 7 unknown #
vertex $-1 $294 $308 #
straight-curve $-1 4.341204441673275127 -24.62019382530520062 50 0.9848077530122080203 0.1736481776669309973 0 I I #
coedge $-1 $291 $296 $256 $285 forward $277 $-1 #
edge $-1 $286 -50 $309 50 $284 $310 forward 7 unknown #
vertex $-1 $299 $311 #
loop $-1 $-1 $274 $259 #
plane-surface $-1 -49.24038765061040124 -8.682408883346550255 0 0.9848077530122080203 0.1736481776669309973 0 0 0 -1 forward_v I I I I #
coedge $-1 $312 $264 $279 $305 forward $238 $-1 #
coedge $-1 $264 $312 $268 $295 forward $238 $-1 #
coedge $-1 $269 $284 $264 $292 reversed $277 $-1 #
edge $-1 $297 -25 $309 25.00000000000000355 $291 $313 forward 7 unknown #
coedge $-1 $274 $280 $265 $294 reversed $287 $-1 #
edge $-1 $276 -25.00000000000000355 $282 25 $293 $314 forward 7 unknown #
edge $-1 $302 -50.00000000000000711 $297 50.00000000000000711 $268 $315 forward 7 unknown #
coedge $-1 $284 $269 $271 $299 reversed $277 $-1 #
vertex $-1 $292 $316 #
straight-curve $-1 44.89918320893712433 33.30260270865174732 0 0 0 -1 I I #
edge $-1 $286 -25.00000000000000355 $272 25 $296 $317 forward 7 unknown #
point $-1 44.89918320893712433 33.30260270865174732 50 #
coedge $-1 $280 $274 $312 $318 reversed $287 $-1 #
vertex $-1 $295 $319 #
straight-curve $-1 -53.58159209228367814 15.93778494195865036 0 0 0 -1 I I #
point $-1 -53.58159209228367814 15.93778494195865036 50 #
edge $-1 $309 -50.00000000000000711 $306 50.00000000000000711 $279 $320 forward 7 unknown #
vertex $-1 $318 $321 #
straight-curve $-1 -44.89918320893712433 -33.30260270865174732 0 0 0 -1 I I #
point $-1 -44.89918320893712433 -33.30260270865174732 50 #
vertex $-1 $285 $322 #
straight-curve $-1 53.58159209228367814 -15.93778494195865036 0 0 0 -1 I I #
point $-1 53.58159209228367814 -15.93778494195865036 50 #
coedge $-1 $290 $289 $301 $318 forward $238 $-1 #
straight-curve $-1 49.24038765061040124 8.682408883346550255 -50 0.1736481776669309973 -0.9848077530122080203 0 I I #
straight-curve $-1 -49.24038765061040124 -8.682408883346550255 50 0.1736481776669309973 -0.9848077530122080203 0 I I #
straight-curve $-1 -4.341204441673275127 24.62019382530520062 -50 0.9848077530122080203 0.1736481776669309973 0 I I #
point $-1 44.89918320893712433 33.30260270865174732 -50 #
straight-curve $-1 49.24038765061040124 8.682408883346550255 50 -0.1736481776669309973 0.9848077530122080203 0 I I #
edge $-1 $306 -25 $302 25.00000000000000355 $301 $323 forward 7 unknown #
point $-1 -53.58159209228367814 15.93778494195865036 -50 #
straight-curve $-1 4.341204441673275127 -24.62019382530520062 -50 -0.9848077530122080203 -0.1736481776669309973 0 I I #
point $-1 -44.89918320893712433 -33.30260270865174732 -50 #
point $-1 53.58159209228367814 -15.93778494195865036 -50 #
straight-curve $-1 -49.24038765061040124 -8.682408883346550255 -50 -0.1736481776669309973 0.9848077530122080203 0 I I #
End-of-ACIS-data 