**ABCDEFGHIJKLMNOPQRSTUVWXYZabcdefghijklmnopqrstuvwxyz**************************
**PARASOLID !"#$%&'()*+,-./:;<=>?@[\]^_`{|}~0123456789**************************
**PART1;MC=sun;MC_MODEL=sun3;MC_ID=cosmos;OS=SunOS;OS_RELEASE=4.1;FRU=sdl_paraso
lid_test_sun;APPL=unknown;SITE=sdl-cambridge-u.k.;USER=kramer;FORMAT=text;GUISE=
transmit;KEY=cylinder_cutoff2;FILE=cylinder_cutoff2.xmt_txt;DATE=4-dec-1991;
**PART2;SCH=SCH_301017_3000;USFLD_SIZE=0;
**PART3;
**END_OF_HEADER*****************************************************************
T50 : TRANSMIT FILE created by modeller version 30101715 SCH_301017_30000 12 1 2
11 0 0 0 0 0 1e3 1e-8 2 2 0 0 0 1 3 102 16 2 cylinder_cutoff213 3 2 0 1 0 4 5 6
 7 8 9 14 4 133 0 10 0 11 3 7 -16 5 141 0 12 0 13 8 18 6 159 0 14 0 15 9 50 7 17
5 0 4 16 0 0 +1 0 0 -1 0 0 0 0 1 30 8 179 0 5 17 0 0 -1 -1.732050807568875 0 0 0
 1 29 9 197 0 6 18 0 1 -1.732050807568875 3 29 18 198 0 15 19 9 1 1.732050807568
875 3 18 15 160 0 20 6 21 18 29 19 199 0 21 22 18 1 -1.732050807568875 0 18 21 1
61 0 23 15 24 19 29 22 102 0 24 0 19 1 1.732050807568875 0 18 24 101 0 25 21 0 2
2 17 25 26 27 28 24 29 30 15 26 110 0 14 31 0 17 27 26 14 25 21 32 33 17 28 26 2
5 14 15 34 35 17 29 11 36 37 15 25 30 16 30 143 0 29 13 38 39 16 13 142 0 20 5 3
0 17 16 38 114 0 37 30 35 40 30 39 181 0 30 40 17 0 +1 1.732050807568875 0 0 0 1
 30 40 116 0 38 41 39 0 +1 0 0 0 1 0 30 17 180 0 13 39 8 0 +1 0 3 0 1 0 32 41 10
0 0 35 42 40 0 -0 0 4 -.707106781186548 0 -.707106781186548 -.707106781186548 0
 .707106781186548 2.82842712474619 2 16 35 98 0 34 38 33 41 31 42 7 0 33 0 41 0
 +0 0 0 0 0 1 1 0 0 2 16 33 3 0 27 35 0 42 17 34 43 20 20 6 28 35 15 43 39 0 34
 10 0 17 20 43 34 34 15 36 13 17 36 11 12 29 6 20 13 15 11 134 0 12 4 0 17 12 11
 37 36 21 14 5 17 37 11 29 12 24 23 38 17 14 26 28 27 6 12 5 17 23 44 32 32 21 3
7 38 15 44 115 0 23 45 0 17 32 44 23 23 24 27 33 14 45 6 0 31 10 44 3 46 +14 31
 1 0 0 45 26 3 47 +14 10 38 0 45 4 43 3 16 -50 46 8 0 45 0 47 0 +0 0 0 0 0 -1 -1
 0 0 51 47 15 0 31 46 16 0 +0 0 0 0 0 1 2 1 0 0 50 16 70 0 10 47 7 0 +0 0 4 -.70
7106781186548 0 -.707106781186548 -.707106781186548 0 .707106781186548 1 0 
