600 0 1 0           
125 GICL ACIS Healer - Source: /gicl/data5/repository/Sandia/Randy_Wilson/discriminator/sh-r38502-000-u/sh-r38502-000-u.sat - 6 0 18 ACIS 6.0.3 Solaris 24 Sat Apr 13 23:38:07 2002 
1 9.999999999999999547e-07 1.000000000000000036e-10 
body $-1 $1 $-1 $2 #
lump $-1 $-1 $3 $0 #
transform $-1 1 0 0 0 1 0 0 0 1 0 0 0 1 no_rotate no_reflect no_shear #
shell $-1 $-1 $-1 $4 $-1 $1 #
face $5 $6 $7 $3 $-1 $8 forward single #
pid_name-sg-attrib $-1 $-1 $-1 $4 7 rwilson 784252905 212 1 #
face $9 $10 $11 $3 $-1 $12 reversed single #
loop $-1 $-1 $13 $4 #
plane-surface $-1 0 0 0.2200000000000000011 0 0 1 1 0 0 forward_v I I I I #
pid_name-sg-attrib $-1 $-1 $-1 $6 7 rwilson 784252905 213 1 #
face $14 $15 $16 $3 $-1 $17 reversed single #
loop $-1 $18 $19 $6 #
cone-surface $-1 -0.07000000000000000666 0.2099999999999999922 0 0 0 1 0.0362499999999999975 0 0 1 I I 0 1 0.0362499999999999975 forward I I I I #
coedge $-1 $13 $13 $20 $21 reversed $7 $-1 #
pid_name-sg-attrib $-1 $-1 $-1 $10 7 rwilson 784252905 214 1 #
face $22 $23 $24 $3 $-1 $25 forward single #
loop $-1 $26 $27 $10 #
cone-surface $-1 -0.07000000000000000666 0 0 0 0 1 0.0362499999999999975 0 0 1 I I 0 1 0.0362499999999999975 forward I I I I #
loop $-1 $-1 $28 $6 #
coedge $-1 $19 $19 $29 $30 forward $11 $-1 #
coedge $-1 $20 $20 $13 $21 forward $31 $-1 #
edge $-1 $32 -6.283185307179586232 $32 -0 $13 $33 reversed 7 unknown #
pid_name-sg-attrib $-1 $-1 $-1 $15 7 rwilson 784252905 215 1 #
face $34 $35 $36 $3 $-1 $8 forward single #
loop $-1 $37 $38 $15 #
cone-surface $-1 -0.1549999999999999989 0.1489999999999999936 0.1199999999999999956 0 0 1 0.01565000000000000072 0 0 1 I I 0 1 0.01565000000000000072 forward I I I I #
loop $-1 $-1 $39 $10 #
coedge $-1 $27 $27 $40 $41 forward $16 $-1 #
coedge $-1 $28 $28 $42 $43 forward $18 $-1 #
coedge $-1 $29 $29 $19 $30 reversed $44 $-1 #
edge $-1 $45 -3.141592653589793116 $45 3.141592653589793116 $29 $46 forward 7 unknown #
loop $-1 $-1 $20 $35 #
vertex $-1 $21 $47 #
ellipse-curve $-1 -0.1549999999999999989 0.06099999999999999867 0.2200000000000000011 0 0 1 -0.01565000000000000072 0 0 1 I I #
pid_name-sg-attrib $-1 $-1 $-1 $23 7 rwilson 784252905 216 1 #
face $48 $49 $50 $3 $-1 $51 forward single #
loop $-1 $-1 $52 $23 #
loop $-1 $-1 $53 $15 #
coedge $-1 $38 $38 $54 $55 forward $24 $-1 #
coedge $-1 $39 $39 $56 $57 forward $26 $-1 #
coedge $-1 $40 $40 $27 $41 reversed $58 $-1 #
edge $-1 $59 -3.141592653589793116 $59 3.141592653589793116 $40 $60 forward 7 unknown #
coedge $-1 $42 $42 $28 $43 reversed $61 $-1 #
edge $-1 $62 -6.283185307179586232 $62 -0 $42 $63 reversed 7 unknown #
loop $-1 $-1 $29 $64 #
vertex $-1 $30 $65 #
ellipse-curve $-1 -0.07000000000000000666 0.2099999999999999922 0 0 0 -1 -0.0362499999999999975 0 0 1 I I #
point $-1 -0.1706499999999999961 0.06099999999999999867 0.2200000000000000011 #
pid_name-sg-attrib $-1 $-1 $-1 $35 7 rwilson 784252905 217 1 #
face $66 $67 $68 $3 $-1 $69 forward single #
loop $-1 $31 $70 $35 #
cone-surface $-1 -0.1549999999999999989 0.06099999999999999867 0.1199999999999999956 0 0 1 0.01565000000000000072 0 0 1 I I 0 1 0.01565000000000000072 forward I I I I #
coedge $-1 $52 $52 $53 $71 reversed $36 $-1 #
coedge $-1 $53 $53 $52 $71 forward $37 $-1 #
coedge $-1 $54 $54 $38 $55 reversed $72 $-1 #
edge $-1 $73 -3.141592653589793116 $73 3.141592653589793116 $54 $74 forward 7 unknown #
coedge $-1 $56 $56 $39 $57 reversed $75 $-1 #
edge $-1 $76 -6.283185307179586232 $76 -2.449212707644752544e-16 $56 $77 reversed 7 unknown #
loop $-1 $44 $40 $64 #
vertex $-1 $41 $78 #
ellipse-curve $-1 -0.07000000000000000666 0 0 0 0 -1 -0.0362499999999999975 0 0 1 I I #
loop $-1 $-1 $42 $49 #
vertex $-1 $43 $79 #
ellipse-curve $-1 -0.07000000000000000666 0.2099999999999999922 0.1199999999999999956 -1.148506577198439997e-15 0 -1 0.0362499999999999975 0 -4.163336342344340108e-17 1 I I #
face $80 $-1 $81 $3 $-1 $82 reversed single #
point $-1 -0.03375000000000000222 0.2099999999999999922 0 #
pid_name-sg-attrib $-1 $-1 $-1 $49 7 rwilson 784252905 218 1 #
face $83 $84 $85 $3 $-1 $86 forward single #
loop $-1 $72 $87 $49 #
plane-surface $-1 0 0 0.1199999999999999956 0 0 1 1 0 0 forward_v I I I I #
coedge $-1 $70 $70 $87 $88 forward $50 $-1 #
edge $-1 $89 -6.283185307179586232 $89 -0 $52 $90 reversed 7 unknown #
loop $-1 $91 $54 $49 #
vertex $-1 $55 $92 #
ellipse-curve $-1 -0.1549999999999999989 0.1489999999999999936 0.1199999999999999956 0 0 1 -0.01565000000000000072 0 0 1 I I #
loop $-1 $61 $56 $49 #
vertex $-1 $57 $93 #
ellipse-curve $-1 -0.07000000000000000666 0 0.1199999999999999956 -1.148506577198439997e-15 0 -1 0.0362499999999999975 0 -4.163336342344340108e-17 1 I I #
point $-1 -0.03375000000000000222 -8.878396065212230685e-18 0 #
point $-1 -0.03375000000000000222 0.2099999999999999922 0.1199999999999999956 #
pid_name-sg-attrib $-1 $-1 $-1 $64 7 rwilson 784252905 244 1 #
loop $-1 $58 $94 $64 #
plane-surface $-1 0 0 0 0 0 1 1 0 0 forward_v I I I I #
pid_name-sg-attrib $-1 $-1 $-1 $67 7 rwilson 784252905 219 1 #
face $95 $96 $97 $3 $-1 $98 forward single #
loop $-1 $-1 $99 $67 #
plane-surface $-1 -0.1901271372139519966 0.02977366125924769957 0 -0.7473858981691849923 -0.6643901859734540061 0 0 0 1 forward_v I I I I #
coedge $-1 $87 $87 $70 $88 reversed $68 $-1 #
edge $-1 $100 -3.141592653589793116 $100 3.141592653589793116 $87 $101 forward 7 unknown #
vertex $-1 $71 $102 #
ellipse-curve $-1 -0.1549999999999999989 0.1489999999999999936 0.2200000000000000011 0 0 1 0.01565000000000000072 0 0 1 I I #
loop $-1 $75 $103 $49 #
point $-1 -0.1393500000000000016 0.1489999999999999936 0.1199999999999999956 #
point $-1 -0.03375000000000000222 -8.878396065212230685e-18 0.1199999999999999956 #
coedge $-1 $104 $105 $106 $107 reversed $81 $-1 #
pid_name-sg-attrib $-1 $-1 $-1 $84 7 rwilson 784252905 220 1 #
face $108 $109 $110 $3 $-1 $111 forward single #
loop $-1 $-1 $112 $84 #
cone-surface $-1 -0.1549999999999999989 0.06099999999999999867 0 0 0 1 0.04700000000000000011 0 0 1 I I 0 1 0.04700000000000000011 forward I I I I #
coedge $-1 $113 $114 $115 $116 reversed $85 $-1 #
vertex $-1 $88 $117 #
ellipse-curve $-1 -0.1549999999999999989 0.06099999999999999867 0.1199999999999999956 0 0 1 -0.01565000000000000072 0 0 1 I I #
point $-1 -0.1393500000000000016 0.1489999999999999936 0.2200000000000000011 #
coedge $-1 $118 $119 $120 $121 reversed $91 $-1 #
coedge $-1 $122 $94 $114 $123 reversed $81 $-1 #
coedge $-1 $94 $124 $125 $126 reversed $81 $-1 #
coedge $-1 $127 $115 $94 $107 forward $128 $-1 #
edge $-1 $129 -8.850629979473500834e-16 $130 2.414915061064557555 $94 $131 forward 7 unknown #
pid_name-sg-attrib $-1 $-1 $-1 $96 7 rwilson 784252905 221 1 #
face $132 $133 $134 $3 $-1 $135 forward single #
loop $-1 $-1 $136 $96 #
plane-surface $-1 -0.2020000000000000129 0.1489999999999999936 0 -1 0 0 0 0 1 forward_v I I I I #
coedge $-1 $137 $138 $139 $140 reversed $97 $-1 #
coedge $-1 $139 $99 $141 $142 forward $85 $-1 #
coedge $-1 $99 $139 $104 $123 forward $85 $-1 #
coedge $-1 $106 $143 $99 $116 forward $128 $-1 #
edge $-1 $144 -0.1199999999999999956 $129 -0 $99 $145 reversed 7 unknown #
point $-1 -0.1393500000000000016 0.06099999999999999867 0.1199999999999999956 #
coedge $-1 $146 $103 $147 $148 reversed $91 $-1 #
coedge $-1 $103 $149 $150 $151 reversed $91 $-1 #
coedge $-1 $152 $153 $103 $121 forward $154 $-1 #
edge $-1 $155 -2.414915061064556223 $156 -0 $103 $157 reversed 7 unknown #
coedge $-1 $158 $104 $138 $159 reversed $81 $-1 #
edge $-1 $160 -7.519745606374960368e-17 $129 0.1020637055960640083 $104 $161 forward 7 unknown #
coedge $-1 $105 $162 $163 $164 reversed $81 $-1 #
coedge $-1 $165 $166 $105 $126 forward $167 $-1 #
edge $-1 $130 -1.714448895351329961e-17 $168 0.2099999999999999922 $105 $169 forward 7 unknown #
coedge $-1 $143 $106 $166 $170 forward $128 $-1 #
loop $-1 $-1 $127 $171 #
vertex $-1 $116 $172 #
vertex $-1 $170 $173 #
ellipse-curve $-1 -0.07000000000000000666 0 0 0 0 1 -0.0523170128718428995 -0.04650731301814180207 0 1 I I #
pid_name-sg-attrib $-1 $-1 $-1 $109 7 rwilson 784252905 222 1 #
face $174 $175 $176 $3 $-1 $177 forward single #
loop $-1 $-1 $178 $109 #
cone-surface $-1 -0.1549999999999999989 0.1489999999999999936 0 0 0 1 0.04700000000000000011 0 0 1 I I 0 1 0.04700000000000000011 forward I I I I #
coedge $-1 $179 $180 $181 $182 reversed $110 $-1 #
coedge $-1 $181 $112 $183 $184 forward $97 $-1 #
coedge $-1 $112 $181 $122 $159 forward $97 $-1 #
coedge $-1 $114 $113 $112 $140 forward $85 $-1 #
edge $-1 $185 -0.1199999999999999956 $160 -0 $112 $186 reversed 7 unknown #
coedge $-1 $149 $183 $113 $142 reversed $91 $-1 #
edge $-1 $144 -0.1020637055960640083 $185 7.519745606374960368e-17 $141 $187 reversed 7 unknown #
coedge $-1 $115 $127 $149 $188 forward $128 $-1 #
vertex $-1 $116 $189 #
straight-curve $-1 -0.1223170128718430033 -0.04650731301814180207 0 0 0 1 I I #
coedge $-1 $190 $118 $191 $192 reversed $91 $-1 #
coedge $-1 $193 $194 $118 $148 forward $176 $-1 #
edge $-1 $195 -0.1020637055960644524 $155 -0 $118 $196 reversed 7 unknown #
coedge $-1 $119 $141 $143 $188 reversed $91 $-1 #
coedge $-1 $166 $165 $119 $151 forward $167 $-1 #
edge $-1 $156 -0.2099999999999999922 $197 1.714448895351329961e-17 $119 $198 reversed 7 unknown #
coedge $-1 $163 $120 $165 $199 forward $154 $-1 #
coedge $-1 $120 $163 $193 $200 reversed $154 $-1 #
loop $-1 $-1 $153 $175 #
vertex $-1 $200 $201 #
vertex $-1 $199 $202 #
ellipse-curve $-1 -0.07000000000000000666 0.2099999999999999922 0.1199999999999999956 3.96508223080413022e-16 0 1 0.07000000000000000666 0 -2.775557561562890118e-17 1 I I #
coedge $-1 $203 $122 $180 $204 reversed $81 $-1 #
edge $-1 $205 1.476360405086644802e-16 $160 0.7266775925252302315 $122 $206 forward 7 unknown #
vertex $-1 $140 $207 #
straight-curve $-1 -0.1901271372139519966 0.02977366125924759896 0 0.6643901859734540061 -0.7473858981691849923 0 I I #
coedge $-1 $124 $203 $208 $209 reversed $81 $-1 #
coedge $-1 $153 $152 $124 $164 forward $154 $-1 #
edge $-1 $168 0 $210 2.414915061064556223 $124 $211 forward 7 unknown #
coedge $-1 $150 $125 $152 $199 reversed $167 $-1 #
coedge $-1 $125 $150 $127 $170 reversed $167 $-1 #
loop $-1 $-1 $165 $212 #
vertex $-1 $199 $213 #
straight-curve $-1 0 0 0 0 1 0 I I #
edge $-1 $130 0 $197 0.1199999999999999956 $166 $214 forward 7 unknown #
face $215 $64 $128 $3 $-1 $216 forward single #
point $-1 -0.1223170128718430033 -0.04650731301814180207 0 #
point $-1 0 -1.714448895351329961e-17 0 #
pid_name-sg-attrib $-1 $-1 $-1 $133 7 rwilson 784252905 223 1 #
face $217 $218 $154 $3 $-1 $219 forward single #
loop $-1 $-1 $194 $133 #
plane-surface $-1 -0.1223170128718430033 0.2565073130181420025 0 -0.7473858981691849923 0.6643901859734540061 0 0 0 1 forward_v I I I I #
coedge $-1 $191 $220 $221 $222 reversed $134 $-1 #
coedge $-1 $221 $136 $190 $223 forward $110 $-1 #
coedge $-1 $136 $221 $158 $204 forward $110 $-1 #
coedge $-1 $138 $137 $136 $182 forward $97 $-1 #
edge $-1 $224 -0.1199999999999999956 $205 -0 $136 $225 reversed 7 unknown #
coedge $-1 $141 $190 $137 $184 reversed $91 $-1 #
edge $-1 $185 -0.7266775925252302315 $224 -1.476360405086644802e-16 $183 $226 reversed 7 unknown #
vertex $-1 $140 $227 #
straight-curve $-1 -0.1901271372139519966 0.02977366125924769957 0 0 0 1 I I #
straight-curve $-1 -0.1901271372139519966 0.02977366125924759896 0.1199999999999999956 0.6643901859734540061 -0.7473858981691849923 0 I I #
edge $-1 $197 -2.414915061064557555 $144 8.850629979473500834e-16 $149 $228 reversed 7 unknown #
point $-1 -0.1223170128718430033 -0.04650731301814180207 0.1199999999999999956 #
coedge $-1 $183 $146 $179 $223 reversed $91 $-1 #
coedge $-1 $229 $178 $146 $192 forward $134 $-1 #
edge $-1 $230 -0.7266775925252342283 $195 -8.834603487885507042e-15 $146 $231 reversed 7 unknown #
coedge $-1 $208 $147 $153 $200 forward $176 $-1 #
coedge $-1 $147 $208 $229 $232 reversed $176 $-1 #
vertex $-1 $232 $233 #
straight-curve $-1 -0.1223170128718430033 0.2565073130181420025 0.1199999999999999956 -0.6643901859734540061 -0.7473858981691849923 0 I I #
vertex $-1 $170 $234 #
straight-curve $-1 0 0 0.1199999999999999956 0 1 0 I I #
edge $-1 $156 -0.1199999999999999956 $168 -0 $165 $235 reversed 7 unknown #
edge $-1 $155 -0.1199999999999999956 $210 -0 $153 $236 reversed 7 unknown #
point $-1 -0.1223170128718430033 0.2565073130181420025 0.1199999999999999956 #
point $-1 0 0.2099999999999999922 0.1199999999999999956 #
coedge $-1 $162 $158 $220 $237 reversed $81 $-1 #
edge $-1 $238 0 $205 0.08799999999999999489 $158 $239 forward 7 unknown #
vertex $-1 $182 $240 #
ellipse-curve $-1 -0.1549999999999999989 0.06099999999999999867 0 0 0 1 -0.04700000000000000011 6.938893903907229918e-18 0 1 I I #
point $-1 -0.1901271372139519966 0.02977366125924769957 0 #
coedge $-1 $194 $193 $162 $209 forward $176 $-1 #
edge $-1 $210 0 $241 0.1020637055960644524 $162 $242 forward 7 unknown #
vertex $-1 $200 $243 #
ellipse-curve $-1 -0.07000000000000000666 0.2099999999999999922 0 0 0 1 0.07000000000000000666 0 0 1 I I #
face $244 $171 $245 $3 $-1 $246 forward single #
point $-1 0 0.2099999999999999922 0 #
straight-curve $-1 0 -1.714448895351329961e-17 0 0 0 1 I I #
pid_name-sg-attrib $-1 $-1 $-1 $171 7 rwilson 784252905 243 1 #
cone-surface $-1 -0.07000000000000000666 0 0 0 0 1 0.07000000000000000666 0 0 1 I I 0 1 0.07000000000000000666 forward I I I I #
pid_name-sg-attrib $-1 $-1 $-1 $175 7 rwilson 784252905 224 1 #
face $247 $248 $249 $3 $-1 $250 forward single #
cone-surface $-1 -0.07000000000000000666 0.2099999999999999922 0 0 0 1 0.07000000000000000666 0 0 1 I I 0 1 0.07000000000000000666 forward I I I I #
coedge $-1 $178 $229 $203 $237 forward $134 $-1 #
coedge $-1 $180 $179 $178 $222 forward $110 $-1 #
edge $-1 $230 -0.1199999999999999956 $238 -0 $178 $251 reversed 7 unknown #
edge $-1 $224 -0.08799999999999999489 $230 -0 $190 $252 reversed 7 unknown #
vertex $-1 $182 $253 #
straight-curve $-1 -0.2020000000000000129 0.06099999999999999867 0 0 0 1 I I #
ellipse-curve $-1 -0.1549999999999999989 0.06099999999999999867 0.1199999999999999956 0 0 1 -0.04700000000000000011 6.938893903907229918e-18 0 1 I I #
point $-1 -0.1901271372139519966 0.02977366125924769957 0.1199999999999999956 #
ellipse-curve $-1 -0.07000000000000000666 0 0.1199999999999999956 -2.963446544384220004e-16 -2.634361720723989778e-16 1 -0.0523170128718428995 -0.04650731301814180207 -2.775557561562890118e-17 1 I I #
coedge $-1 $220 $191 $194 $232 forward $134 $-1 #
vertex $-1 $222 $254 #
ellipse-curve $-1 -0.1549999999999999989 0.1489999999999999936 0.1199999999999999956 0 0 1 -0.03512713721395169936 0.03122633874075229909 0 1 I I #
edge $-1 $195 -0.1199999999999999956 $241 -0 $194 $255 reversed 7 unknown #
point $-1 -0.1901271372139519966 0.1802263387407520012 0.1199999999999999956 #
point $-1 0 -1.714448895351329961e-17 0.1199999999999999956 #
straight-curve $-1 0 0.2099999999999999922 0 0 0 1 I I #
straight-curve $-1 -0.1223170128718430033 0.2565073130181420025 0 0 0 1 I I #
edge $-1 $241 8.834603487885507042e-15 $238 0.7266775925252342283 $203 $256 forward 7 unknown #
vertex $-1 $222 $257 #
straight-curve $-1 -0.2020000000000000129 0.1489999999999999936 0 0 -1 0 I I #
point $-1 -0.2020000000000000129 0.06099999999999999867 0 #
vertex $-1 $232 $258 #
straight-curve $-1 -0.1223170128718430033 0.2565073130181420025 0 -0.6643901859734540061 -0.7473858981691849923 0 I I #
point $-1 -0.1223170128718430033 0.2565073130181420025 0 #
pid_name-sg-attrib $-1 $-1 $-1 $212 7 rwilson 784252905 242 1 #
loop $-1 $259 $260 $212 #
plane-surface $-1 0 0 0 1 0 0 0 0 -1 forward_v I I I I #
pid_name-sg-attrib $-1 $-1 $-1 $218 7 rwilson 784252905 225 1 #
face $261 $262 $263 $3 $-1 $264 reversed single #
loop $-1 $-1 $265 $218 #
cone-surface $-1 0.2029190075645219971 0.1529999999999999971 0.04499999999999999833 0 0 1 0.02199999999999999872 0 0 1 I I 0 1 0.02199999999999999872 forward I I I I #
straight-curve $-1 -0.2020000000000000129 0.1489999999999999936 0 0 0 1 I I #
straight-curve $-1 -0.2020000000000000129 0.1489999999999999936 0.1199999999999999956 0 -1 0 I I #
point $-1 -0.2020000000000000129 0.06099999999999999867 0.1199999999999999956 #
point $-1 -0.2020000000000000129 0.1489999999999999936 0.1199999999999999956 #
straight-curve $-1 -0.1901271372139519966 0.1802263387407520012 0 0 0 1 I I #
ellipse-curve $-1 -0.1549999999999999989 0.1489999999999999936 0 0 0 1 -0.03512713721395169936 0.03122633874075229909 0 1 I I #
point $-1 -0.2020000000000000129 0.1489999999999999936 0 #
point $-1 -0.1901271372139519966 0.1802263387407520012 0 #
loop $-1 $167 $266 $212 #
coedge $-1 $260 $260 $267 $268 reversed $245 $-1 #
pid_name-sg-attrib $-1 $-1 $-1 $248 7 rwilson 784252905 226 1 #
face $269 $270 $271 $3 $-1 $272 forward single #
loop $-1 $-1 $273 $248 #
cone-surface $-1 0.2399999999999999911 0.1380000000000000115 0.04499999999999999833 0 0 1 0.01799999999999999864 0 0 1 I I 0 1 0.01799999999999999864 forward I I I I #
coedge $-1 $274 $275 $276 $277 reversed $249 $-1 #
coedge $-1 $278 $279 $280 $281 reversed $259 $-1 #
coedge $-1 $267 $267 $260 $268 forward $282 $-1 #
edge $-1 $283 -3.141592653589793116 $283 3.141592653589793116 $260 $284 forward 7 unknown #
pid_name-sg-attrib $-1 $-1 $-1 $262 7 rwilson 784252905 227 1 #
face $285 $286 $287 $3 $-1 $288 forward single #
loop $-1 $-1 $289 $262 #
cone-surface $-1 0.2770809924354780129 0.1529999999999999971 0.04499999999999999833 0 0 1 0.02199999999999999872 0 0 1 I I 0 1 0.02199999999999999872 forward I I I I #
coedge $-1 $290 $291 $292 $293 reversed $263 $-1 #
coedge $-1 $294 $265 $295 $296 forward $249 $-1 #
coedge $-1 $265 $294 $297 $298 forward $249 $-1 #
coedge $-1 $291 $290 $265 $277 forward $263 $-1 #
edge $-1 $299 -0.02999999999999999889 $300 -0 $265 $301 reversed 7 unknown #
coedge $-1 $302 $266 $303 $304 reversed $259 $-1 #
coedge $-1 $266 $302 $305 $306 reversed $259 $-1 #
coedge $-1 $307 $308 $266 $281 forward $309 $-1 #
edge $-1 $310 -0.007000000000000006217 $311 -0 $266 $312 reversed 7 unknown #
loop $-1 $313 $267 $314 #
vertex $-1 $268 $315 #
ellipse-curve $-1 0 0.08799999999999999489 0.05999999999999999778 1 0 0 0 0 0.007000000000000009687 1 I I #
pid_name-sg-attrib $-1 $-1 $-1 $270 7 rwilson 784252905 228 1 #
face $316 $317 $318 $3 $-1 $319 forward single #
loop $-1 $-1 $320 $270 #
plane-surface $-1 0.2770809924354780129 0.1310000000000000053 0.04499999999999999833 0 -1 0 0 0 -1 forward_v I I I I #
coedge $-1 $321 $322 $323 $324 reversed $271 $-1 #
coedge $-1 $276 $273 $325 $326 forward $263 $-1 #
coedge $-1 $273 $276 $327 $328 forward $263 $-1 #
coedge $-1 $322 $321 $273 $293 forward $271 $-1 #
edge $-1 $329 -0.02999999999999999889 $330 -0 $273 $331 reversed 7 unknown #
coedge $-1 $275 $274 $332 $333 forward $249 $-1 #
coedge $-1 $325 $307 $274 $296 reversed $309 $-1 #
edge $-1 $299 -1.186399552299256088 $334 -0 $295 $335 reversed 7 unknown #
coedge $-1 $336 $327 $275 $298 reversed $337 $-1 #
edge $-1 $338 0 $300 1.186399552299256088 $297 $339 forward 7 unknown #
vertex $-1 $277 $340 #
vertex $-1 $277 $341 #
straight-curve $-1 0.2233135534040349979 0.1447499999999999898 0.04499999999999999833 0 0 1 I I #
coedge $-1 $279 $278 $342 $343 reversed $259 $-1 #
coedge $-1 $344 $345 $278 $304 forward $346 $-1 #
edge $-1 $347 0 $310 0.02999999999999999889 $278 $348 forward 7 unknown #
coedge $-1 $349 $350 $279 $306 forward $351 $-1 #
edge $-1 $311 -0.02999999999999999889 $352 -0 $279 $353 reversed 7 unknown #
coedge $-1 $295 $280 $350 $354 reversed $309 $-1 #
coedge $-1 $280 $355 $344 $356 reversed $309 $-1 #
loop $-1 $-1 $307 $357 #
vertex $-1 $356 $358 #
vertex $-1 $354 $359 #
straight-curve $-1 0 0.1310000000000000053 0.07499999999999999722 0 1 0 I I #
loop $-1 $-1 $360 $314 #
face $361 $212 $282 $3 $-1 $362 forward single #
point $-1 0 0.08799999999999999489 0.0529999999999999985 #
pid_name-sg-attrib $-1 $-1 $-1 $286 7 rwilson 784252905 229 1 #
face $363 $364 $365 $3 $-1 $366 forward single #
loop $-1 $-1 $367 $286 #
plane-surface $-1 0.3380000000000000226 0.1310000000000000053 0.04499999999999999833 -1 0 0 0 0 1 forward_v I I I I #
coedge $-1 $368 $369 $370 $371 reversed $287 $-1 #
coedge $-1 $292 $289 $372 $373 forward $271 $-1 #
coedge $-1 $289 $292 $374 $375 forward $271 $-1 #
coedge $-1 $369 $368 $289 $324 forward $287 $-1 #
edge $-1 $376 -0.02999999999999999889 $377 -0 $289 $378 reversed 7 unknown #
coedge $-1 $372 $295 $290 $326 reversed $309 $-1 #
edge $-1 $329 -2.372799104598509956 $299 -2.677042401198817099e-15 $325 $379 reversed 7 unknown #
coedge $-1 $297 $374 $291 $328 reversed $337 $-1 #
edge $-1 $300 2.677042401198817099e-15 $330 2.372799104598509956 $327 $380 forward 7 unknown #
vertex $-1 $293 $381 #
vertex $-1 $293 $382 #
straight-curve $-1 0.2566864465959650121 0.1447499999999999898 0.04499999999999999833 0 0 1 I I #
coedge $-1 $350 $349 $294 $333 reversed $351 $-1 #
edge $-1 $334 -0.02999999999999999889 $338 -0 $332 $383 reversed 7 unknown #
vertex $-1 $333 $384 #
ellipse-curve $-1 0.2029190075645219971 0.1529999999999999971 0.07499999999999999722 0 0 1 0 -0.02199999999999999872 0 1 I I #
coedge $-1 $342 $297 $349 $385 reversed $337 $-1 #
loop $-1 $-1 $386 $387 #
vertex $-1 $333 $388 #
ellipse-curve $-1 0.2029190075645219971 0.1529999999999999971 0.04499999999999999833 0 0 1 0 -0.02199999999999999872 0 1 I I #
point $-1 0.2233135534040349979 0.1447499999999999898 0.07499999999999999722 #
point $-1 0.2233135534040349979 0.1447499999999999898 0.04499999999999999833 #
coedge $-1 $386 $336 $302 $343 forward $337 $-1 #
edge $-1 $352 0 $347 0.007000000000000006217 $302 $389 forward 7 unknown #
coedge $-1 $390 $303 $308 $356 forward $346 $-1 #
coedge $-1 $303 $390 $386 $391 forward $346 $-1 #
loop $-1 $-1 $344 $392 #
vertex $-1 $391 $393 #
straight-curve $-1 0 0.1380000000000000115 0.04499999999999999833 0 0 1 I I #
coedge $-1 $332 $305 $336 $385 forward $351 $-1 #
coedge $-1 $305 $332 $307 $354 forward $351 $-1 #
loop $-1 $-1 $349 $394 #
vertex $-1 $385 $395 #
straight-curve $-1 0 0.1310000000000000053 0.04499999999999999833 0 0 1 I I #
edge $-1 $334 -0.2029190075645219971 $311 -0 $307 $396 reversed 7 unknown #
coedge $-1 $308 $397 $398 $399 reversed $309 $-1 #
edge $-1 $310 -0.2029190075645219971 $400 -0 $308 $401 reversed 7 unknown #
face $402 $403 $309 $3 $-1 $404 forward single #
point $-1 0 0.1380000000000000115 0.07499999999999999722 #
point $-1 0 0.1310000000000000053 0.07499999999999999722 #
coedge $-1 $360 $360 $405 $406 forward $313 $-1 #
pid_name-sg-attrib $-1 $-1 $-1 $314 7 rwilson 784252905 241 1 #
cone-surface $-1 0 0.08799999999999999489 0.05999999999999999778 1 0 0 0 0 -0.007000000000000000146 1 I I 0 1 0.007000000000000000146 forward I I I I #
pid_name-sg-attrib $-1 $-1 $-1 $317 7 rwilson 784252905 230 1 #
face $407 $408 $409 $3 $-1 $410 forward single #
loop $-1 $-1 $411 $317 #
plane-surface $-1 0.3380000000000000226 0.1199999999999999956 0.04499999999999999833 0 -1 0 0 0 -1 forward_v I I I I #
coedge $-1 $412 $413 $414 $415 reversed $318 $-1 #
coedge $-1 $323 $320 $416 $417 forward $287 $-1 #
coedge $-1 $320 $323 $418 $419 forward $287 $-1 #
coedge $-1 $413 $412 $320 $371 forward $318 $-1 #
edge $-1 $420 -0.02999999999999999889 $421 -0 $320 $422 reversed 7 unknown #
coedge $-1 $416 $325 $321 $373 reversed $309 $-1 #
edge $-1 $376 -1.186399552299257643 $329 -1.568060993264161771e-15 $372 $423 reversed 7 unknown #
coedge $-1 $327 $418 $322 $375 reversed $337 $-1 #
edge $-1 $330 1.568060993264161771e-15 $377 1.186399552299257643 $374 $424 forward 7 unknown #
vertex $-1 $324 $425 #
vertex $-1 $324 $426 #
straight-curve $-1 0.2770809924354780129 0.1310000000000000053 0.04499999999999999833 0 0 1 I I #
ellipse-curve $-1 0.2399999999999999911 0.1380000000000000115 0.07499999999999999722 0 0 -1 -0.01668644659596520141 0.006750000000000010332 0 1 I I #
ellipse-curve $-1 0.2399999999999999911 0.1380000000000000115 0.04499999999999999833 0 0 -1 -0.01668644659596520141 0.006750000000000010332 0 1 I I #
point $-1 0.2566864465959650121 0.1447499999999999898 0.07499999999999999722 #
point $-1 0.2566864465959650121 0.1447499999999999898 0.04499999999999999833 #
straight-curve $-1 0.2029190075645219971 0.1310000000000000053 0.04499999999999999833 0 0 1 I I #
point $-1 0.2029190075645219971 0.1310000000000000053 0.07499999999999999722 #
edge $-1 $352 0 $338 0.2029190075645219971 $336 $427 forward 7 unknown #
coedge $-1 $428 $342 $345 $391 reversed $337 $-1 #
face $429 $394 $337 $3 $-1 $430 reversed single #
point $-1 0.2029190075645219971 0.1310000000000000053 0.04499999999999999833 #
straight-curve $-1 0 0.1310000000000000053 0.04499999999999999833 0 1 0 I I #
coedge $-1 $345 $344 $431 $432 forward $346 $-1 #
edge $-1 $433 0 $347 0.2029190075645219971 $386 $434 forward 7 unknown #
face $435 $387 $346 $3 $-1 $436 forward single #
point $-1 0 0.1380000000000000115 0.04499999999999999833 #
face $437 $357 $351 $3 $-1 $438 forward single #
point $-1 0 0.1310000000000000053 0.04499999999999999833 #
straight-curve $-1 0 0.1310000000000000053 0.07499999999999999722 1 0 0 I I #
coedge $-1 $355 $439 $440 $441 reversed $309 $-1 #
coedge $-1 $442 $431 $355 $399 forward $443 $-1 #
edge $-1 $400 -1.186399552299258975 $444 -9.818053006396715024e-15 $355 $445 reversed 7 unknown #
vertex $-1 $432 $446 #
straight-curve $-1 0.2029190075645219971 0.1380000000000000115 0.07499999999999999722 -1 0 0 I I #
pid_name-sg-attrib $-1 $-1 $-1 $357 7 rwilson 784252905 239 1 #
face $447 $314 $448 $3 $-1 $449 forward single #
plane-surface $-1 0 0 0.07499999999999999722 0 0 1 1 0 0 forward_v I I I I #
coedge $-1 $405 $405 $360 $406 reversed $448 $-1 #
edge $-1 $450 -6.283185307179586232 $450 -0 $405 $451 reversed 7 unknown #
pid_name-sg-attrib $-1 $-1 $-1 $364 7 rwilson 784252905 231 1 #
face $452 $453 $454 $3 $-1 $455 forward single #
loop $-1 $-1 $456 $364 #
plane-surface $-1 0.3449999999999999734 0.1199999999999999956 0.04499999999999999833 1 0 0 0 0 -1 forward_v I I I I #
coedge $-1 $457 $458 $459 $460 reversed $365 $-1 #
coedge $-1 $370 $367 $461 $462 forward $318 $-1 #
coedge $-1 $367 $370 $463 $464 forward $318 $-1 #
coedge $-1 $458 $457 $367 $415 forward $365 $-1 #
edge $-1 $465 -0.02999999999999999889 $466 -0 $367 $467 reversed 7 unknown #
coedge $-1 $461 $372 $368 $417 reversed $309 $-1 #
edge $-1 $420 -0.06091900756452200971 $376 -0 $416 $468 reversed 7 unknown #
coedge $-1 $374 $463 $369 $419 reversed $337 $-1 #
edge $-1 $377 0 $421 0.06091900756452200971 $418 $469 forward 7 unknown #
vertex $-1 $371 $470 #
vertex $-1 $371 $471 #
straight-curve $-1 0.3380000000000000226 0.1310000000000000053 0.04499999999999999833 0 0 1 I I #
ellipse-curve $-1 0.2770809924354780129 0.1529999999999999971 0.07499999999999999722 0 0 1 -0.02039454583951310143 -0.008250000000000010797 0 1 I I #
ellipse-curve $-1 0.2770809924354780129 0.1529999999999999971 0.04499999999999999833 0 0 1 -0.02039454583951310143 -0.008250000000000010797 0 1 I I #
point $-1 0.2770809924354780129 0.1310000000000000053 0.07499999999999999722 #
point $-1 0.2770809924354780129 0.1310000000000000053 0.04499999999999999833 #
straight-curve $-1 0 0.1310000000000000053 0.04499999999999999833 1 0 0 I I #
coedge $-1 $472 $386 $473 $474 reversed $337 $-1 #
pid_name-sg-attrib $-1 $-1 $-1 $387 7 rwilson 784252905 237 1 #
plane-surface $-1 0 0 0.04499999999999999833 0 0 1 1 0 0 forward_v I I I I #
coedge $-1 $398 $473 $390 $432 reversed $443 $-1 #
edge $-1 $400 -0.02999999999999999889 $433 -0 $431 $475 reversed 7 unknown #
vertex $-1 $432 $476 #
straight-curve $-1 0.2029190075645219971 0.1380000000000000115 0.04499999999999999833 -1 0 0 I I #
pid_name-sg-attrib $-1 $-1 $-1 $392 7 rwilson 784252905 236 1 #
plane-surface $-1 0.2029190075645219971 0.1380000000000000115 0.04499999999999999833 0 1 0 0 0 1 forward_v I I I I #
pid_name-sg-attrib $-1 $-1 $-1 $394 7 rwilson 784252905 238 1 #
plane-surface $-1 0 0.1310000000000000053 0.04499999999999999833 0 -1 0 0 0 -1 forward_v I I I I #
coedge $-1 $397 $477 $478 $479 reversed $309 $-1 #
coedge $-1 $480 $481 $397 $441 forward $482 $-1 #
edge $-1 $444 -2.372799104598517062 $483 -4.618537419039306298e-46 $397 $484 reversed 7 unknown #
coedge $-1 $473 $398 $481 $485 forward $443 $-1 #
loop $-1 $-1 $431 $486 #
vertex $-1 $485 $487 #
ellipse-curve $-1 0.2029190075645219971 0.1529999999999999971 0.07499999999999999722 0 0 -1 0.01390537216330440043 -0.005624999999999990251 0 1 I I #
point $-1 0.2029190075645219971 0.1380000000000000115 0.07499999999999999722 #
pid_name-sg-attrib $-1 $-1 $-1 $403 7 rwilson 784252905 240 1 #
loop $-1 $-1 $405 $403 #
plane-surface $-1 0.3850000000000000089 0 0 1 0 0 0 0 -1 forward_v I I I I #
vertex $-1 $406 $488 #
ellipse-curve $-1 0.3850000000000000089 0.08799999999999999489 0.05999999999999999778 1 0 0 0 0 0.007000000000000009687 1 I I #
pid_name-sg-attrib $-1 $-1 $-1 $408 7 rwilson 784252905 232 1 #
face $489 $490 $491 $3 $-1 $492 reversed single #
loop $-1 $-1 $493 $408 #
plane-surface $-1 0.3449999999999999734 0.1380000000000000115 0.04499999999999999833 0 1 0 0 0 1 forward_v I I I I #
coedge $-1 $494 $495 $496 $497 reversed $409 $-1 #
coedge $-1 $414 $411 $498 $499 forward $365 $-1 #
coedge $-1 $411 $414 $500 $501 forward $365 $-1 #
coedge $-1 $495 $494 $411 $460 forward $409 $-1 #
edge $-1 $502 -0.02999999999999999889 $503 -0 $411 $504 reversed 7 unknown #
coedge $-1 $498 $416 $412 $462 reversed $309 $-1 #
edge $-1 $465 -0.01100000000000000977 $420 -0 $461 $505 reversed 7 unknown #
coedge $-1 $418 $500 $413 $464 reversed $337 $-1 #
edge $-1 $421 0 $466 0.01100000000000000977 $463 $506 forward 7 unknown #
vertex $-1 $415 $507 #
vertex $-1 $415 $508 #
straight-curve $-1 0.3380000000000000226 0.1199999999999999956 0.04499999999999999833 0 0 1 I I #
straight-curve $-1 0.2770809924354780129 0.1310000000000000053 0.07499999999999999722 1 0 0 I I #
straight-curve $-1 0.2770809924354780129 0.1310000000000000053 0.04499999999999999833 1 0 0 I I #
point $-1 0.3380000000000000226 0.1310000000000000053 0.07499999999999999722 #
point $-1 0.3380000000000000226 0.1310000000000000053 0.04499999999999999833 #
coedge $-1 $509 $428 $510 $511 reversed $337 $-1 #
coedge $-1 $431 $442 $428 $474 forward $443 $-1 #
edge $-1 $512 9.818053006396715024e-15 $433 1.186399552299258975 $428 $513 forward 7 unknown #
straight-curve $-1 0.2029190075645219971 0.1380000000000000115 0.04499999999999999833 0 0 1 I I #
point $-1 0.2029190075645219971 0.1380000000000000115 0.04499999999999999833 #
coedge $-1 $439 $514 $515 $516 reversed $309 $-1 #
coedge $-1 $517 $518 $439 $479 forward $491 $-1 #
edge $-1 $483 -1.186399552299248983 $519 -0 $439 $520 reversed 7 unknown #
coedge $-1 $510 $440 $518 $521 forward $482 $-1 #
coedge $-1 $440 $510 $442 $485 reversed $482 $-1 #
loop $-1 $-1 $481 $490 #
vertex $-1 $521 $522 #
ellipse-curve $-1 0.2399999999999999911 0.1380000000000000115 0.07499999999999999722 5.146021447227409591e-16 2.081668171172169992e-16 1 0.02317562027217399956 0.009374999999999989245 -1.38777878078144999e-17 1 I I #
edge $-1 $444 -0.02999999999999999889 $512 -0 $481 $523 reversed 7 unknown #
face $524 $392 $443 $3 $-1 $525 reversed single #
point $-1 0.2168243797278260054 0.147375000000000006 0.07499999999999999722 #
point $-1 0.3850000000000000089 0.08799999999999999489 0.067000000000000004 #
pid_name-sg-attrib $-1 $-1 $-1 $453 7 rwilson 784252905 233 1 #
face $526 $486 $482 $3 $-1 $527 forward single #
loop $-1 $-1 $518 $453 #
cone-surface $-1 0.2770809924354780129 0.1529999999999999971 0.04499999999999999833 0 0 1 0.01499999999999999944 0 0 1 I I 0 1 0.01499999999999999944 forward I I I I #
coedge $-1 $515 $528 $517 $529 reversed $454 $-1 #
coedge $-1 $459 $456 $514 $530 forward $409 $-1 #
coedge $-1 $456 $459 $531 $532 forward $409 $-1 #
coedge $-1 $528 $515 $456 $497 forward $454 $-1 #
edge $-1 $533 -0.02999999999999999889 $534 -0 $456 $535 reversed 7 unknown #
coedge $-1 $514 $461 $457 $499 reversed $309 $-1 #
edge $-1 $502 -0.006999999999999950706 $465 -0 $498 $536 reversed 7 unknown #
coedge $-1 $463 $531 $458 $501 reversed $337 $-1 #
edge $-1 $466 0 $503 0.006999999999999950706 $500 $537 forward 7 unknown #
vertex $-1 $460 $538 #
vertex $-1 $460 $539 #
straight-curve $-1 0.3449999999999999734 0.1199999999999999956 0.04499999999999999833 0 0 1 I I #
straight-curve $-1 0.3380000000000000226 0.1310000000000000053 0.07499999999999999722 0 -1 0 I I #
straight-curve $-1 0.3380000000000000226 0.1310000000000000053 0.04499999999999999833 0 -1 0 I I #
point $-1 0.3380000000000000226 0.1199999999999999956 0.07499999999999999722 #
point $-1 0.3380000000000000226 0.1199999999999999956 0.04499999999999999833 #
coedge $-1 $540 $472 $541 $542 reversed $337 $-1 #
coedge $-1 $481 $480 $472 $511 forward $482 $-1 #
edge $-1 $543 0 $512 2.372799104598517062 $472 $544 forward 7 unknown #
vertex $-1 $485 $545 #
ellipse-curve $-1 0.2029190075645219971 0.1529999999999999971 0.04499999999999999833 0 0 -1 0.01390537216330440043 -0.005624999999999990251 0 1 I I #
coedge $-1 $477 $498 $494 $530 reversed $309 $-1 #
coedge $-1 $496 $493 $477 $516 forward $454 $-1 #
edge $-1 $519 -0.06791900756452196042 $533 -0 $477 $546 reversed 7 unknown #
coedge $-1 $541 $478 $493 $529 forward $491 $-1 #
coedge $-1 $478 $541 $480 $521 reversed $491 $-1 #
vertex $-1 $529 $547 #
ellipse-curve $-1 0.2770809924354780129 0.1529999999999999971 0.07499999999999999722 0 0 -1 0 -0.01499999999999999944 0 1 I I #
edge $-1 $483 -0.02999999999999999889 $543 -0 $518 $548 reversed 7 unknown #
point $-1 0.2631756202721740046 0.147375000000000006 0.07499999999999999722 #
straight-curve $-1 0.2168243797278260054 0.147375000000000006 0.04499999999999999833 0 0 1 I I #
pid_name-sg-attrib $-1 $-1 $-1 $486 7 rwilson 784252905 235 1 #
cone-surface $-1 0.2029190075645219971 0.1529999999999999971 0.04499999999999999833 0 0 1 0.01499999999999999944 0 0 1 I I 0 1 0.01499999999999999944 forward I I I I #
pid_name-sg-attrib $-1 $-1 $-1 $490 7 rwilson 784252905 234 1 #
cone-surface $-1 0.2399999999999999911 0.1380000000000000115 0.04499999999999999833 0 0 1 0.02500000000000000139 0 0 1 I I 0 1 0.02500000000000000139 forward I I I I #
coedge $-1 $493 $496 $540 $549 forward $454 $-1 #
edge $-1 $519 -0.02999999999999999889 $550 -0 $493 $551 reversed 7 unknown #
edge $-1 $533 -0.01800000000000001599 $502 -0 $514 $552 reversed 7 unknown #
coedge $-1 $500 $540 $495 $532 reversed $337 $-1 #
edge $-1 $503 0 $534 0.01800000000000001599 $531 $553 forward 7 unknown #
vertex $-1 $497 $554 #
vertex $-1 $497 $555 #
straight-curve $-1 0.3449999999999999734 0.1380000000000000115 0.04499999999999999833 0 0 1 I I #
straight-curve $-1 0.3380000000000000226 0.1199999999999999956 0.07499999999999999722 1 0 0 I I #
straight-curve $-1 0.3380000000000000226 0.1199999999999999956 0.04499999999999999833 1 0 0 I I #
point $-1 0.3449999999999999734 0.1199999999999999956 0.07499999999999999722 #
point $-1 0.3449999999999999734 0.1199999999999999956 0.04499999999999999833 #
coedge $-1 $531 $509 $528 $549 reversed $337 $-1 #
coedge $-1 $518 $517 $509 $542 forward $491 $-1 #
edge $-1 $550 0 $543 1.186399552299248983 $509 $556 forward 7 unknown #
vertex $-1 $521 $557 #
ellipse-curve $-1 0.2399999999999999911 0.1380000000000000115 0.04499999999999999833 0 0 1 0.02317562027217399956 0.009374999999999989245 0 1 I I #
point $-1 0.2168243797278260054 0.147375000000000006 0.04499999999999999833 #
straight-curve $-1 0.3449999999999999734 0.1380000000000000115 0.07499999999999999722 -1 0 0 I I #
point $-1 0.2770809924354780129 0.1380000000000000115 0.07499999999999999722 #
straight-curve $-1 0.2631756202721740046 0.147375000000000006 0.04499999999999999833 0 0 1 I I #
edge $-1 $534 0 $550 0.06791900756452196042 $540 $558 forward 7 unknown #
vertex $-1 $529 $559 #
straight-curve $-1 0.2770809924354780129 0.1380000000000000115 0.04499999999999999833 0 0 1 I I #
straight-curve $-1 0.3449999999999999734 0.1199999999999999956 0.07499999999999999722 0 1 0 I I #
straight-curve $-1 0.3449999999999999734 0.1199999999999999956 0.04499999999999999833 0 1 0 I I #
point $-1 0.3449999999999999734 0.1380000000000000115 0.07499999999999999722 #
point $-1 0.3449999999999999734 0.1380000000000000115 0.04499999999999999833 #
ellipse-curve $-1 0.2770809924354780129 0.1529999999999999971 0.04499999999999999833 0 0 -1 0 -0.01499999999999999944 0 1 I I #
point $-1 0.2631756202721740046 0.147375000000000006 0.04499999999999999833 #
straight-curve $-1 0.3449999999999999734 0.1380000000000000115 0.04499999999999999833 -1 0 0 I I #
point $-1 0.2770809924354780129 0.1380000000000000115 0.04499999999999999833 #
End-of-ACIS-data 