105 560 1 0                             
body $-1 $1 $-1 $2 #
lump $-1 $-1 $3 $0 #
transform $-1 1 0 0 0 1 0 0 0 1 0 0 0 1 0 0 0 #
shell $-1 $-1 $-1 $4 $1 #
face $5 $6 $7 $3 $-1 $8 forward single #
pid_name-sg-attrib $-1 $-1 $-1 $4 7 114 119 105 108 115 111 110 784252905 212 1 #
face $9 $10 $11 $3 $-1 $12 reversed single #
loop $-1 $-1 $13 $4 #
plane-surface $-1 0 0 0.22 0 0 1 1 0 0 0 #
pid_name-sg-attrib $-1 $-1 $-1 $6 7 114 119 105 108 115 111 110 784252905 213 1 #
face $14 $15 $16 $3 $-1 $17 reversed single #
loop $-1 $18 $19 $6 #
cone-surface $-1 -0.07 0.21 0 0 0 1 0.03625 0 0 1 0 1 0 #
coedge $-1 $13 $13 $20 $21 1 $7 $-1 #
pid_name-sg-attrib $-1 $-1 $-1 $10 7 114 119 105 108 115 111 110 784252905 214 1 #
face $22 $23 $24 $3 $-1 $25 forward single #
loop $-1 $26 $27 $10 #
cone-surface $-1 -0.07 0 0 0 0 1 0.03625 0 0 1 0 1 0 #
loop $-1 $-1 $28 $6 #
coedge $-1 $19 $19 $29 $30 0 $11 $-1 #
coedge $-1 $20 $20 $13 $21 0 $31 $-1 #
edge $-1 $32 $32 $13 $33 1 #
pid_name-sg-attrib $-1 $-1 $-1 $15 7 114 119 105 108 115 111 110 784252905 215 1 #
face $34 $35 $36 $3 $-1 $8 forward single #
loop $-1 $37 $38 $15 #
cone-surface $-1 -0.155 0.149 0.12 0 0 1 0.01565 0 0 1 0 1 0 #
loop $-1 $-1 $39 $10 #
coedge $-1 $27 $27 $40 $41 0 $16 $-1 #
coedge $-1 $28 $28 $42 $43 0 $18 $-1 #
coedge $-1 $29 $29 $19 $30 1 $44 $-1 #
edge $-1 $45 $45 $29 $46 0 #
loop $-1 $-1 $20 $35 #
vertex $-1 $21 $47 #
ellipse-curve $-1 -0.155 0.061 0.22 0 0 1 -0.01565 0 0 1 #
pid_name-sg-attrib $-1 $-1 $-1 $23 7 114 119 105 108 115 111 110 784252905 216 1 #
face $48 $49 $50 $3 $-1 $51 forward single #
loop $-1 $-1 $52 $23 #
loop $-1 $-1 $53 $15 #
coedge $-1 $38 $38 $54 $55 0 $24 $-1 #
coedge $-1 $39 $39 $56 $57 0 $26 $-1 #
coedge $-1 $40 $40 $27 $41 1 $58 $-1 #
edge $-1 $59 $59 $40 $60 0 #
coedge $-1 $42 $42 $28 $43 1 $61 $-1 #
edge $-1 $62 $62 $42 $63 1 #
loop $-1 $-1 $29 $64 #
vertex $-1 $30 $65 #
ellipse-curve $-1 -0.07 0.21 0 0 0 -1 -0.03625 0 0 1 #
point $-1 -0.17065 0.061 0.22 #
pid_name-sg-attrib $-1 $-1 $-1 $35 7 114 119 105 108 115 111 110 784252905 217 1 #
face $66 $67 $68 $3 $-1 $69 forward single #
loop $-1 $31 $70 $35 #
cone-surface $-1 -0.155 0.061 0.12 0 0 1 0.01565 0 0 1 0 1 0 #
coedge $-1 $52 $52 $53 $71 1 $36 $-1 #
coedge $-1 $53 $53 $52 $71 0 $37 $-1 #
coedge $-1 $54 $54 $38 $55 1 $72 $-1 #
edge $-1 $73 $73 $54 $74 0 #
coedge $-1 $56 $56 $39 $57 1 $75 $-1 #
edge $-1 $76 $76 $56 $77 1 #
loop $-1 $44 $40 $64 #
vertex $-1 $41 $78 #
ellipse-curve $-1 -0.07 0 0 0 0 -1 -0.03625 0 0 1 #
loop $-1 $-1 $42 $49 #
vertex $-1 $43 $79 #
ellipse-curve $-1 -0.07 0.21 0.12 -1.14850657719844e-15 0 -1 0.03625 0 -4.16333634234434e-17 1 #
face $80 $-1 $81 $3 $-1 $82 reversed single #
point $-1 -0.03375 0.21 0 #
pid_name-sg-attrib $-1 $-1 $-1 $49 7 114 119 105 108 115 111 110 784252905 218 1 #
face $83 $84 $85 $3 $-1 $86 forward single #
loop $-1 $72 $87 $49 #
plane-surface $-1 0 0 0.12 0 0 1 1 0 0 0 #
coedge $-1 $70 $70 $87 $88 0 $50 $-1 #
edge $-1 $89 $89 $52 $90 1 #
loop $-1 $91 $54 $49 #
vertex $-1 $55 $92 #
ellipse-curve $-1 -0.155 0.149 0.12 0 0 1 -0.01565 0 0 1 #
loop $-1 $61 $56 $49 #
vertex $-1 $57 $93 #
ellipse-curve $-1 -0.07 0 0.12 -1.14850657719844e-15 0 -1 0.03625 0 -4.16333634234434e-17 1 #
point $-1 -0.03375 -8.87839606521223e-18 0 #
point $-1 -0.03375 0.21 0.12 #
pid_name-sg-attrib $-1 $-1 $-1 $64 7 114 119 105 108 115 111 110 784252905 244 1 #
loop $-1 $58 $94 $64 #
plane-surface $-1 0 0 0 0 0 1 1 0 0 0 #
pid_name-sg-attrib $-1 $-1 $-1 $67 7 114 119 105 108 115 111 110 784252905 219 1 #
face $95 $96 $97 $3 $-1 $98 forward single #
loop $-1 $-1 $99 $67 #
plane-surface $-1 -0.190127137213952 0.0297736612592477 0 -0.747385898169185 -0.664390185973454 0 0 0 1 0 #
coedge $-1 $87 $87 $70 $88 1 $68 $-1 #
edge $-1 $100 $100 $87 $101 0 #
vertex $-1 $71 $102 #
ellipse-curve $-1 -0.155 0.149 0.22 0 0 1 0.01565 0 0 1 #
loop $-1 $75 $103 $49 #
point $-1 -0.13935 0.149 0.12 #
point $-1 -0.03375 -8.87839606521223e-18 0.12 #
coedge $-1 $104 $105 $106 $107 1 $81 $-1 #
pid_name-sg-attrib $-1 $-1 $-1 $84 7 114 119 105 108 115 111 110 784252905 220 1 #
face $108 $109 $110 $3 $-1 $111 forward single #
loop $-1 $-1 $112 $84 #
cone-surface $-1 -0.155 0.061 0 0 0 1 0.047 0 0 1 0 1 0 #
coedge $-1 $113 $114 $115 $116 1 $85 $-1 #
vertex $-1 $88 $117 #
ellipse-curve $-1 -0.155 0.061 0.12 0 0 1 -0.01565 0 0 1 #
point $-1 -0.13935 0.149 0.22 #
coedge $-1 $118 $119 $120 $121 1 $91 $-1 #
coedge $-1 $122 $94 $114 $123 1 $81 $-1 #
coedge $-1 $94 $124 $125 $126 1 $81 $-1 #
coedge $-1 $127 $115 $94 $107 0 $128 $-1 #
edge $-1 $129 $130 $94 $131 0 #
pid_name-sg-attrib $-1 $-1 $-1 $96 7 114 119 105 108 115 111 110 784252905 221 1 #
face $132 $133 $134 $3 $-1 $135 forward single #
loop $-1 $-1 $136 $96 #
plane-surface $-1 -0.202 0.149 0 -1 0 0 0 0 1 0 #
coedge $-1 $137 $138 $139 $140 1 $97 $-1 #
coedge $-1 $139 $99 $141 $142 0 $85 $-1 #
coedge $-1 $99 $139 $104 $123 0 $85 $-1 #
coedge $-1 $106 $143 $99 $116 0 $128 $-1 #
edge $-1 $144 $129 $99 $145 1 #
point $-1 -0.13935 0.061 0.12 #
coedge $-1 $146 $103 $147 $148 1 $91 $-1 #
coedge $-1 $103 $149 $150 $151 1 $91 $-1 #
coedge $-1 $152 $153 $103 $121 0 $154 $-1 #
edge $-1 $155 $156 $103 $157 1 #
coedge $-1 $158 $104 $138 $159 1 $81 $-1 #
edge $-1 $160 $129 $104 $161 0 #
coedge $-1 $105 $162 $163 $164 1 $81 $-1 #
coedge $-1 $165 $166 $105 $126 0 $167 $-1 #
edge $-1 $130 $168 $105 $169 0 #
coedge $-1 $143 $106 $166 $170 0 $128 $-1 #
loop $-1 $-1 $127 $171 #
vertex $-1 $116 $172 #
vertex $-1 $170 $173 #
ellipse-curve $-1 -0.07 0 0 0 0 1 -0.0523170128718429 -0.0465073130181418 0 1 #
pid_name-sg-attrib $-1 $-1 $-1 $109 7 114 119 105 108 115 111 110 784252905 222 1 #
face $174 $175 $176 $3 $-1 $177 forward single #
loop $-1 $-1 $178 $109 #
cone-surface $-1 -0.155 0.149 0 0 0 1 0.047 0 0 1 0 1 0 #
coedge $-1 $179 $180 $181 $182 1 $110 $-1 #
coedge $-1 $181 $112 $183 $184 0 $97 $-1 #
coedge $-1 $112 $181 $122 $159 0 $97 $-1 #
coedge $-1 $114 $113 $112 $140 0 $85 $-1 #
edge $-1 $185 $160 $112 $186 1 #
coedge $-1 $149 $183 $113 $142 1 $91 $-1 #
edge $-1 $144 $185 $141 $187 1 #
coedge $-1 $115 $127 $149 $188 0 $128 $-1 #
vertex $-1 $116 $189 #
straight-curve $-1 -0.122317012871843 -0.0465073130181418 0 0 0 1 #
coedge $-1 $190 $118 $191 $192 1 $91 $-1 #
coedge $-1 $193 $194 $118 $148 0 $176 $-1 #
edge $-1 $195 $155 $118 $196 1 #
coedge $-1 $119 $141 $143 $188 1 $91 $-1 #
coedge $-1 $166 $165 $119 $151 0 $167 $-1 #
edge $-1 $156 $197 $119 $198 1 #
coedge $-1 $163 $120 $165 $199 0 $154 $-1 #
coedge $-1 $120 $163 $193 $200 1 $154 $-1 #
loop $-1 $-1 $153 $175 #
vertex $-1 $200 $201 #
vertex $-1 $199 $202 #
ellipse-curve $-1 -0.07 0.21 0.12 3.96508223080413e-16 0 1 0.07 0 -2.77555756156289e-17 1 #
coedge $-1 $203 $122 $180 $204 1 $81 $-1 #
edge $-1 $205 $160 $122 $206 0 #
vertex $-1 $140 $207 #
straight-curve $-1 -0.190127137213952 0.0297736612592476 0 0.664390185973454 -0.747385898169185 0 #
coedge $-1 $124 $203 $208 $209 1 $81 $-1 #
coedge $-1 $153 $152 $124 $164 0 $154 $-1 #
edge $-1 $168 $210 $124 $211 0 #
coedge $-1 $150 $125 $152 $199 1 $167 $-1 #
coedge $-1 $125 $150 $127 $170 1 $167 $-1 #
loop $-1 $-1 $165 $212 #
vertex $-1 $199 $213 #
straight-curve $-1 0 0 0 0 1 0 #
edge $-1 $130 $197 $166 $214 0 #
face $215 $64 $128 $3 $-1 $216 forward single #
point $-1 -0.122317012871843 -0.0465073130181418 0 #
point $-1 0 -1.71444889535133e-17 0 #
pid_name-sg-attrib $-1 $-1 $-1 $133 7 114 119 105 108 115 111 110 784252905 223 1 #
face $217 $218 $154 $3 $-1 $219 forward single #
loop $-1 $-1 $194 $133 #
plane-surface $-1 -0.122317012871843 0.256507313018142 0 -0.747385898169185 0.664390185973454 0 0 0 1 0 #
coedge $-1 $191 $220 $221 $222 1 $134 $-1 #
coedge $-1 $221 $136 $190 $223 0 $110 $-1 #
coedge $-1 $136 $221 $158 $204 0 $110 $-1 #
coedge $-1 $138 $137 $136 $182 0 $97 $-1 #
edge $-1 $224 $205 $136 $225 1 #
coedge $-1 $141 $190 $137 $184 1 $91 $-1 #
edge $-1 $185 $224 $183 $226 1 #
vertex $-1 $140 $227 #
straight-curve $-1 -0.190127137213952 0.0297736612592477 0 0 0 1 #
straight-curve $-1 -0.190127137213952 0.0297736612592476 0.12 0.664390185973454 -0.747385898169185 0 #
edge $-1 $197 $144 $149 $228 1 #
point $-1 -0.122317012871843 -0.0465073130181418 0.12 #
coedge $-1 $183 $146 $179 $223 1 $91 $-1 #
coedge $-1 $229 $178 $146 $192 0 $134 $-1 #
edge $-1 $230 $195 $146 $231 1 #
coedge $-1 $208 $147 $153 $200 0 $176 $-1 #
coedge $-1 $147 $208 $229 $232 1 $176 $-1 #
vertex $-1 $232 $233 #
straight-curve $-1 -0.122317012871843 0.256507313018142 0.12 -0.664390185973454 -0.747385898169185 0 #
vertex $-1 $170 $234 #
straight-curve $-1 0 0 0.12 0 1 0 #
edge $-1 $156 $168 $165 $235 1 #
edge $-1 $155 $210 $153 $236 1 #
point $-1 -0.122317012871843 0.256507313018142 0.12 #
point $-1 0 0.21 0.12 #
coedge $-1 $162 $158 $220 $237 1 $81 $-1 #
edge $-1 $238 $205 $158 $239 0 #
vertex $-1 $182 $240 #
ellipse-curve $-1 -0.155 0.061 0 0 0 1 -0.047 6.93889390390723e-18 0 1 #
point $-1 -0.190127137213952 0.0297736612592477 0 #
coedge $-1 $194 $193 $162 $209 0 $176 $-1 #
edge $-1 $210 $241 $162 $242 0 #
vertex $-1 $200 $243 #
ellipse-curve $-1 -0.07 0.21 0 0 0 1 0.07 0 0 1 #
face $244 $171 $245 $3 $-1 $246 forward single #
point $-1 0 0.21 0 #
straight-curve $-1 0 -1.71444889535133e-17 0 0 0 1 #
pid_name-sg-attrib $-1 $-1 $-1 $171 7 114 119 105 108 115 111 110 784252905 243 1 #
cone-surface $-1 -0.07 0 0 0 0 1 0.07 0 0 1 0 1 0 #
pid_name-sg-attrib $-1 $-1 $-1 $175 7 114 119 105 108 115 111 110 784252905 224 1 #
face $247 $248 $249 $3 $-1 $250 forward single #
cone-surface $-1 -0.07 0.21 0 0 0 1 0.07 0 0 1 0 1 0 #
coedge $-1 $178 $229 $203 $237 0 $134 $-1 #
coedge $-1 $180 $179 $178 $222 0 $110 $-1 #
edge $-1 $230 $238 $178 $251 1 #
edge $-1 $224 $230 $190 $252 1 #
vertex $-1 $182 $253 #
straight-curve $-1 -0.202 0.061 0 0 0 1 #
ellipse-curve $-1 -0.155 0.061 0.12 0 0 1 -0.047 6.93889390390723e-18 0 1 #
point $-1 -0.190127137213952 0.0297736612592477 0.12 #
ellipse-curve $-1 -0.07 0 0.12 -2.96344654438422e-16 -2.63436172072399e-16 1 -0.0523170128718429 -0.0465073130181418 -2.77555756156289e-17 1 #
coedge $-1 $220 $191 $194 $232 0 $134 $-1 #
vertex $-1 $222 $254 #
ellipse-curve $-1 -0.155 0.149 0.12 0 0 1 -0.0351271372139517 0.0312263387407523 0 1 #
edge $-1 $195 $241 $194 $255 1 #
point $-1 -0.190127137213952 0.180226338740752 0.12 #
point $-1 0 -1.71444889535133e-17 0.12 #
straight-curve $-1 0 0.21 0 0 0 1 #
straight-curve $-1 -0.122317012871843 0.256507313018142 0 0 0 1 #
edge $-1 $241 $238 $203 $256 0 #
vertex $-1 $222 $257 #
straight-curve $-1 -0.202 0.149 0 0 -1 0 #
point $-1 -0.202 0.061 0 #
vertex $-1 $232 $258 #
straight-curve $-1 -0.122317012871843 0.256507313018142 0 -0.664390185973454 -0.747385898169185 0 #
point $-1 -0.122317012871843 0.256507313018142 0 #
pid_name-sg-attrib $-1 $-1 $-1 $212 7 114 119 105 108 115 111 110 784252905 242 1 #
loop $-1 $259 $260 $212 #
plane-surface $-1 0 0 0 1 0 0 0 0 -1 0 #
pid_name-sg-attrib $-1 $-1 $-1 $218 7 114 119 105 108 115 111 110 784252905 225 1 #
face $261 $262 $263 $3 $-1 $264 reversed single #
loop $-1 $-1 $265 $218 #
cone-surface $-1 0.202919007564522 0.153 0.045 0 0 1 0.022 0 0 1 0 1 0 #
straight-curve $-1 -0.202 0.149 0 0 0 1 #
straight-curve $-1 -0.202 0.149 0.12 0 -1 0 #
point $-1 -0.202 0.061 0.12 #
point $-1 -0.202 0.149 0.12 #
straight-curve $-1 -0.190127137213952 0.180226338740752 0 0 0 1 #
ellipse-curve $-1 -0.155 0.149 0 0 0 1 -0.0351271372139517 0.0312263387407523 0 1 #
point $-1 -0.202 0.149 0 #
point $-1 -0.190127137213952 0.180226338740752 0 #
loop $-1 $167 $266 $212 #
coedge $-1 $260 $260 $267 $268 1 $245 $-1 #
pid_name-sg-attrib $-1 $-1 $-1 $248 7 114 119 105 108 115 111 110 784252905 226 1 #
face $269 $270 $271 $3 $-1 $272 forward single #
loop $-1 $-1 $273 $248 #
cone-surface $-1 0.24 0.138 0.045 0 0 1 0.018 0 0 1 0 1 0 #
coedge $-1 $274 $275 $276 $277 1 $249 $-1 #
coedge $-1 $278 $279 $280 $281 1 $259 $-1 #
coedge $-1 $267 $267 $260 $268 0 $282 $-1 #
edge $-1 $283 $283 $260 $284 0 #
pid_name-sg-attrib $-1 $-1 $-1 $262 7 114 119 105 108 115 111 110 784252905 227 1 #
face $285 $286 $287 $3 $-1 $288 forward single #
loop $-1 $-1 $289 $262 #
cone-surface $-1 0.277080992435478 0.153 0.045 0 0 1 0.022 0 0 1 0 1 0 #
coedge $-1 $290 $291 $292 $293 1 $263 $-1 #
coedge $-1 $294 $265 $295 $296 0 $249 $-1 #
coedge $-1 $265 $294 $297 $298 0 $249 $-1 #
coedge $-1 $291 $290 $265 $277 0 $263 $-1 #
edge $-1 $299 $300 $265 $301 1 #
coedge $-1 $302 $266 $303 $304 1 $259 $-1 #
coedge $-1 $266 $302 $305 $306 1 $259 $-1 #
coedge $-1 $307 $308 $266 $281 0 $309 $-1 #
edge $-1 $310 $311 $266 $312 1 #
loop $-1 $313 $267 $314 #
vertex $-1 $268 $315 #
ellipse-curve $-1 0 0.088 0.06 1 0 0 0 0 0.00700000000000001 1 #
pid_name-sg-attrib $-1 $-1 $-1 $270 7 114 119 105 108 115 111 110 784252905 228 1 #
face $316 $317 $318 $3 $-1 $319 forward single #
loop $-1 $-1 $320 $270 #
plane-surface $-1 0.277080992435478 0.131 0.045 0 -1 0 0 0 -1 0 #
coedge $-1 $321 $322 $323 $324 1 $271 $-1 #
coedge $-1 $276 $273 $325 $326 0 $263 $-1 #
coedge $-1 $273 $276 $327 $328 0 $263 $-1 #
coedge $-1 $322 $321 $273 $293 0 $271 $-1 #
edge $-1 $329 $330 $273 $331 1 #
coedge $-1 $275 $274 $332 $333 0 $249 $-1 #
coedge $-1 $325 $307 $274 $296 1 $309 $-1 #
edge $-1 $299 $334 $295 $335 1 #
coedge $-1 $336 $327 $275 $298 1 $337 $-1 #
edge $-1 $338 $300 $297 $339 0 #
vertex $-1 $277 $340 #
vertex $-1 $277 $341 #
straight-curve $-1 0.223313553404035 0.14475 0.045 0 0 1 #
coedge $-1 $279 $278 $342 $343 1 $259 $-1 #
coedge $-1 $344 $345 $278 $304 0 $346 $-1 #
edge $-1 $347 $310 $278 $348 0 #
coedge $-1 $349 $350 $279 $306 0 $351 $-1 #
edge $-1 $311 $352 $279 $353 1 #
coedge $-1 $295 $280 $350 $354 1 $309 $-1 #
coedge $-1 $280 $355 $344 $356 1 $309 $-1 #
loop $-1 $-1 $307 $357 #
vertex $-1 $356 $358 #
vertex $-1 $354 $359 #
straight-curve $-1 0 0.131 0.075 0 1 0 #
loop $-1 $-1 $360 $314 #
face $361 $212 $282 $3 $-1 $362 forward single #
point $-1 0 0.088 0.053 #
pid_name-sg-attrib $-1 $-1 $-1 $286 7 114 119 105 108 115 111 110 784252905 229 1 #
face $363 $364 $365 $3 $-1 $366 forward single #
loop $-1 $-1 $367 $286 #
plane-surface $-1 0.338 0.131 0.045 -1 0 0 0 0 1 0 #
coedge $-1 $368 $369 $370 $371 1 $287 $-1 #
coedge $-1 $292 $289 $372 $373 0 $271 $-1 #
coedge $-1 $289 $292 $374 $375 0 $271 $-1 #
coedge $-1 $369 $368 $289 $324 0 $287 $-1 #
edge $-1 $376 $377 $289 $378 1 #
coedge $-1 $372 $295 $290 $326 1 $309 $-1 #
edge $-1 $329 $299 $325 $379 1 #
coedge $-1 $297 $374 $291 $328 1 $337 $-1 #
edge $-1 $300 $330 $327 $380 0 #
vertex $-1 $293 $381 #
vertex $-1 $293 $382 #
straight-curve $-1 0.256686446595965 0.14475 0.045 0 0 1 #
coedge $-1 $350 $349 $294 $333 1 $351 $-1 #
edge $-1 $334 $338 $332 $383 1 #
vertex $-1 $333 $384 #
ellipse-curve $-1 0.202919007564522 0.153 0.075 0 0 1 0 -0.022 0 1 #
coedge $-1 $342 $297 $349 $385 1 $337 $-1 #
loop $-1 $-1 $386 $387 #
vertex $-1 $333 $388 #
ellipse-curve $-1 0.202919007564522 0.153 0.045 0 0 1 0 -0.022 0 1 #
point $-1 0.223313553404035 0.14475 0.075 #
point $-1 0.223313553404035 0.14475 0.045 #
coedge $-1 $386 $336 $302 $343 0 $337 $-1 #
edge $-1 $352 $347 $302 $389 0 #
coedge $-1 $390 $303 $308 $356 0 $346 $-1 #
coedge $-1 $303 $390 $386 $391 0 $346 $-1 #
loop $-1 $-1 $344 $392 #
vertex $-1 $391 $393 #
straight-curve $-1 0 0.138 0.045 0 0 1 #
coedge $-1 $332 $305 $336 $385 0 $351 $-1 #
coedge $-1 $305 $332 $307 $354 0 $351 $-1 #
loop $-1 $-1 $349 $394 #
vertex $-1 $385 $395 #
straight-curve $-1 0 0.131 0.045 0 0 1 #
edge $-1 $334 $311 $307 $396 1 #
coedge $-1 $308 $397 $398 $399 1 $309 $-1 #
edge $-1 $310 $400 $308 $401 1 #
face $402 $403 $309 $3 $-1 $404 forward single #
point $-1 0 0.138 0.075 #
point $-1 0 0.131 0.075 #
coedge $-1 $360 $360 $405 $406 0 $313 $-1 #
pid_name-sg-attrib $-1 $-1 $-1 $314 7 114 119 105 108 115 111 110 784252905 241 1 #
cone-surface $-1 0 0.088 0.06 1 0 0 0 0 -0.007 1 0 1 0 #
pid_name-sg-attrib $-1 $-1 $-1 $317 7 114 119 105 108 115 111 110 784252905 230 1 #
face $407 $408 $409 $3 $-1 $410 forward single #
loop $-1 $-1 $411 $317 #
plane-surface $-1 0.338 0.12 0.045 0 -1 0 0 0 -1 0 #
coedge $-1 $412 $413 $414 $415 1 $318 $-1 #
coedge $-1 $323 $320 $416 $417 0 $287 $-1 #
coedge $-1 $320 $323 $418 $419 0 $287 $-1 #
coedge $-1 $413 $412 $320 $371 0 $318 $-1 #
edge $-1 $420 $421 $320 $422 1 #
coedge $-1 $416 $325 $321 $373 1 $309 $-1 #
edge $-1 $376 $329 $372 $423 1 #
coedge $-1 $327 $418 $322 $375 1 $337 $-1 #
edge $-1 $330 $377 $374 $424 0 #
vertex $-1 $324 $425 #
vertex $-1 $324 $426 #
straight-curve $-1 0.277080992435478 0.131 0.045 0 0 1 #
ellipse-curve $-1 0.24 0.138 0.075 0 0 -1 -0.0166864465959652 0.00675000000000001 0 1 #
ellipse-curve $-1 0.24 0.138 0.045 0 0 -1 -0.0166864465959652 0.00675000000000001 0 1 #
point $-1 0.256686446595965 0.14475 0.075 #
point $-1 0.256686446595965 0.14475 0.045 #
straight-curve $-1 0.202919007564522 0.131 0.045 0 0 1 #
point $-1 0.202919007564522 0.131 0.075 #
edge $-1 $352 $338 $336 $427 0 #
coedge $-1 $428 $342 $345 $391 1 $337 $-1 #
face $429 $394 $337 $3 $-1 $430 reversed single #
point $-1 0.202919007564522 0.131 0.045 #
straight-curve $-1 0 0.131 0.045 0 1 0 #
coedge $-1 $345 $344 $431 $432 0 $346 $-1 #
edge $-1 $433 $347 $386 $434 0 #
face $435 $387 $346 $3 $-1 $436 forward single #
point $-1 0 0.138 0.045 #
face $437 $357 $351 $3 $-1 $438 forward single #
point $-1 0 0.131 0.045 #
straight-curve $-1 0 0.131 0.075 1 0 0 #
coedge $-1 $355 $439 $440 $441 1 $309 $-1 #
coedge $-1 $442 $431 $355 $399 0 $443 $-1 #
edge $-1 $400 $444 $355 $445 1 #
vertex $-1 $432 $446 #
straight-curve $-1 0.202919007564522 0.138 0.075 -1 0 0 #
pid_name-sg-attrib $-1 $-1 $-1 $357 7 114 119 105 108 115 111 110 784252905 239 1 #
face $447 $314 $448 $3 $-1 $449 forward single #
plane-surface $-1 0 0 0.075 0 0 1 1 0 0 0 #
coedge $-1 $405 $405 $360 $406 1 $448 $-1 #
edge $-1 $450 $450 $405 $451 1 #
pid_name-sg-attrib $-1 $-1 $-1 $364 7 114 119 105 108 115 111 110 784252905 231 1 #
face $452 $453 $454 $3 $-1 $455 forward single #
loop $-1 $-1 $456 $364 #
plane-surface $-1 0.345 0.12 0.045 1 0 0 0 0 -1 0 #
coedge $-1 $457 $458 $459 $460 1 $365 $-1 #
coedge $-1 $370 $367 $461 $462 0 $318 $-1 #
coedge $-1 $367 $370 $463 $464 0 $318 $-1 #
coedge $-1 $458 $457 $367 $415 0 $365 $-1 #
edge $-1 $465 $466 $367 $467 1 #
coedge $-1 $461 $372 $368 $417 1 $309 $-1 #
edge $-1 $420 $376 $416 $468 1 #
coedge $-1 $374 $463 $369 $419 1 $337 $-1 #
edge $-1 $377 $421 $418 $469 0 #
vertex $-1 $371 $470 #
vertex $-1 $371 $471 #
straight-curve $-1 0.338 0.131 0.045 0 0 1 #
ellipse-curve $-1 0.277080992435478 0.153 0.075 0 0 1 -0.0203945458395131 -0.00825000000000001 0 1 #
ellipse-curve $-1 0.277080992435478 0.153 0.045 0 0 1 -0.0203945458395131 -0.00825000000000001 0 1 #
point $-1 0.277080992435478 0.131 0.075 #
point $-1 0.277080992435478 0.131 0.045 #
straight-curve $-1 0 0.131 0.045 1 0 0 #
coedge $-1 $472 $386 $473 $474 1 $337 $-1 #
pid_name-sg-attrib $-1 $-1 $-1 $387 7 114 119 105 108 115 111 110 784252905 237 1 #
plane-surface $-1 0 0 0.045 0 0 1 1 0 0 0 #
coedge $-1 $398 $473 $390 $432 1 $443 $-1 #
edge $-1 $400 $433 $431 $475 1 #
vertex $-1 $432 $476 #
straight-curve $-1 0.202919007564522 0.138 0.045 -1 0 0 #
pid_name-sg-attrib $-1 $-1 $-1 $392 7 114 119 105 108 115 111 110 784252905 236 1 #
plane-surface $-1 0.202919007564522 0.138 0.045 0 1 0 0 0 1 0 #
pid_name-sg-attrib $-1 $-1 $-1 $394 7 114 119 105 108 115 111 110 784252905 238 1 #
plane-surface $-1 0 0.131 0.045 0 -1 0 0 0 -1 0 #
coedge $-1 $397 $477 $478 $479 1 $309 $-1 #
coedge $-1 $480 $481 $397 $441 0 $482 $-1 #
edge $-1 $444 $483 $397 $484 1 #
coedge $-1 $473 $398 $481 $485 0 $443 $-1 #
loop $-1 $-1 $431 $486 #
vertex $-1 $485 $487 #
ellipse-curve $-1 0.202919007564522 0.153 0.075 0 0 -1 0.0139053721633044 -0.00562499999999999 0 1 #
point $-1 0.202919007564522 0.138 0.075 #
pid_name-sg-attrib $-1 $-1 $-1 $403 7 114 119 105 108 115 111 110 784252905 240 1 #
loop $-1 $-1 $405 $403 #
plane-surface $-1 0.385 0 0 1 0 0 0 0 -1 0 #
vertex $-1 $406 $488 #
ellipse-curve $-1 0.385 0.088 0.06 1 0 0 0 0 0.00700000000000001 1 #
pid_name-sg-attrib $-1 $-1 $-1 $408 7 114 119 105 108 115 111 110 784252905 232 1 #
face $489 $490 $491 $3 $-1 $492 reversed single #
loop $-1 $-1 $493 $408 #
plane-surface $-1 0.345 0.138 0.045 0 1 0 0 0 1 0 #
coedge $-1 $494 $495 $496 $497 1 $409 $-1 #
coedge $-1 $414 $411 $498 $499 0 $365 $-1 #
coedge $-1 $411 $414 $500 $501 0 $365 $-1 #
coedge $-1 $495 $494 $411 $460 0 $409 $-1 #
edge $-1 $502 $503 $411 $504 1 #
coedge $-1 $498 $416 $412 $462 1 $309 $-1 #
edge $-1 $465 $420 $461 $505 1 #
coedge $-1 $418 $500 $413 $464 1 $337 $-1 #
edge $-1 $421 $466 $463 $506 0 #
vertex $-1 $415 $507 #
vertex $-1 $415 $508 #
straight-curve $-1 0.338 0.12 0.045 0 0 1 #
straight-curve $-1 0.277080992435478 0.131 0.075 1 0 0 #
straight-curve $-1 0.277080992435478 0.131 0.045 1 0 0 #
point $-1 0.338 0.131 0.075 #
point $-1 0.338 0.131 0.045 #
coedge $-1 $509 $428 $510 $511 1 $337 $-1 #
coedge $-1 $431 $442 $428 $474 0 $443 $-1 #
edge $-1 $512 $433 $428 $513 0 #
straight-curve $-1 0.202919007564522 0.138 0.045 0 0 1 #
point $-1 0.202919007564522 0.138 0.045 #
coedge $-1 $439 $514 $515 $516 1 $309 $-1 #
coedge $-1 $517 $518 $439 $479 0 $491 $-1 #
edge $-1 $483 $519 $439 $520 1 #
coedge $-1 $510 $440 $518 $521 0 $482 $-1 #
coedge $-1 $440 $510 $442 $485 1 $482 $-1 #
loop $-1 $-1 $481 $490 #
vertex $-1 $521 $522 #
ellipse-curve $-1 0.24 0.138 0.075 5.14602144722741e-16 2.08166817117217e-16 1 0.023175620272174 0.00937499999999999 -1.38777878078145e-17 1 #
edge $-1 $444 $512 $481 $523 1 #
face $524 $392 $443 $3 $-1 $525 reversed single #
point $-1 0.216824379727826 0.147375 0.075 #
point $-1 0.385 0.088 0.067 #
pid_name-sg-attrib $-1 $-1 $-1 $453 7 114 119 105 108 115 111 110 784252905 233 1 #
face $526 $486 $482 $3 $-1 $527 forward single #
loop $-1 $-1 $518 $453 #
cone-surface $-1 0.277080992435478 0.153 0.045 0 0 1 0.015 0 0 1 0 1 0 #
coedge $-1 $515 $528 $517 $529 1 $454 $-1 #
coedge $-1 $459 $456 $514 $530 0 $409 $-1 #
coedge $-1 $456 $459 $531 $532 0 $409 $-1 #
coedge $-1 $528 $515 $456 $497 0 $454 $-1 #
edge $-1 $533 $534 $456 $535 1 #
coedge $-1 $514 $461 $457 $499 1 $309 $-1 #
edge $-1 $502 $465 $498 $536 1 #
coedge $-1 $463 $531 $458 $501 1 $337 $-1 #
edge $-1 $466 $503 $500 $537 0 #
vertex $-1 $460 $538 #
vertex $-1 $460 $539 #
straight-curve $-1 0.345 0.12 0.045 0 0 1 #
straight-curve $-1 0.338 0.131 0.075 0 -1 0 #
straight-curve $-1 0.338 0.131 0.045 0 -1 0 #
point $-1 0.338 0.12 0.075 #
point $-1 0.338 0.12 0.045 #
coedge $-1 $540 $472 $541 $542 1 $337 $-1 #
coedge $-1 $481 $480 $472 $511 0 $482 $-1 #
edge $-1 $543 $512 $472 $544 0 #
vertex $-1 $485 $545 #
ellipse-curve $-1 0.202919007564522 0.153 0.045 0 0 -1 0.0139053721633044 -0.00562499999999999 0 1 #
coedge $-1 $477 $498 $494 $530 1 $309 $-1 #
coedge $-1 $496 $493 $477 $516 0 $454 $-1 #
edge $-1 $519 $533 $477 $546 1 #
coedge $-1 $541 $478 $493 $529 0 $491 $-1 #
coedge $-1 $478 $541 $480 $521 1 $491 $-1 #
vertex $-1 $529 $547 #
ellipse-curve $-1 0.277080992435478 0.153 0.075 0 0 -1 0 -0.015 0 1 #
edge $-1 $483 $543 $518 $548 1 #
point $-1 0.263175620272174 0.147375 0.075 #
straight-curve $-1 0.216824379727826 0.147375 0.045 0 0 1 #
pid_name-sg-attrib $-1 $-1 $-1 $486 7 114 119 105 108 115 111 110 784252905 235 1 #
cone-surface $-1 0.202919007564522 0.153 0.045 0 0 1 0.015 0 0 1 0 1 0 #
pid_name-sg-attrib $-1 $-1 $-1 $490 7 114 119 105 108 115 111 110 784252905 234 1 #
cone-surface $-1 0.24 0.138 0.045 0 0 1 0.025 0 0 1 0 1 0 #
coedge $-1 $493 $496 $540 $549 0 $454 $-1 #
edge $-1 $519 $550 $493 $551 1 #
edge $-1 $533 $502 $514 $552 1 #
coedge $-1 $500 $540 $495 $532 1 $337 $-1 #
edge $-1 $503 $534 $531 $553 0 #
vertex $-1 $497 $554 #
vertex $-1 $497 $555 #
straight-curve $-1 0.345 0.138 0.045 0 0 1 #
straight-curve $-1 0.338 0.12 0.075 1 0 0 #
straight-curve $-1 0.338 0.12 0.045 1 0 0 #
point $-1 0.345 0.12 0.075 #
point $-1 0.345 0.12 0.045 #
coedge $-1 $531 $509 $528 $549 1 $337 $-1 #
coedge $-1 $518 $517 $509 $542 0 $491 $-1 #
edge $-1 $550 $543 $509 $556 0 #
vertex $-1 $521 $557 #
ellipse-curve $-1 0.24 0.138 0.045 0 0 1 0.023175620272174 0.00937499999999999 0 1 #
point $-1 0.216824379727826 0.147375 0.045 #
straight-curve $-1 0.345 0.138 0.075 -1 0 0 #
point $-1 0.277080992435478 0.138 0.075 #
straight-curve $-1 0.263175620272174 0.147375 0.045 0 0 1 #
edge $-1 $534 $550 $540 $558 0 #
vertex $-1 $529 $559 #
straight-curve $-1 0.277080992435478 0.138 0.045 0 0 1 #
straight-curve $-1 0.345 0.12 0.075 0 1 0 #
straight-curve $-1 0.345 0.12 0.045 0 1 0 #
point $-1 0.345 0.138 0.075 #
point $-1 0.345 0.138 0.045 #
ellipse-curve $-1 0.277080992435478 0.153 0.045 0 0 -1 0 -0.015 0 1 #
point $-1 0.263175620272174 0.147375 0.045 #
straight-curve $-1 0.345 0.138 0.045 -1 0 0 #
point $-1 0.277080992435478 0.138 0.045 #
