106 0 1 0           
-0 body $-1 $1 $-1 $-1 #
-1 lump $-1 $-1 $2 $0 #
-2 shell $-1 $-1 $-1 $3 $1 #
-3 face $-1 $4 $5 $2 $-1 $6 reversed single #
-4 face $-1 $7 $8 $2 $-1 $9 forward single #
-5 loop $-1 $10 $11 $3 #
-6 cone-surface $-1 0.033350200000000003 0.047472599999999997 0.0128524 0 0 -1 0.0024130000000000002 0 0 1 I I 0 1 0 I I I I #
-7 face $-1 $12 $13 $2 $-1 $14 forward single #
-8 loop $-1 $-1 $15 $4 #
-9 plane-surface $-1 0.033350200000000003 0.047472599999999997 0.0067564000000000001 0 0 1 1 0 0 0 I I I I #
-10 loop $-1 $-1 $16 $3 #
-11 coedge $-1 $11 $11 $17 $18 1 $5 $-1 #
-12 face $-1 $19 $20 $2 $-1 $21 reversed single #
-13 loop $-1 $22 $23 $7 #
-14 plane-surface $-1 0.038100000000000002 0.01174267417565 0.0128524 0 0 1 1 0 0 0 I I I I #
-15 coedge $-1 $15 $15 $16 $24 0 $8 $-1 #
-16 coedge $-1 $16 $16 $15 $24 1 $10 $-1 #
-17 coedge $-1 $17 $17 $11 $18 0 $25 $-1 #
-18 edge $-1 $26 $26 $11 $27 0 #
-19 face $-1 $28 $29 $2 $-1 $30 forward single #
-20 loop $-1 $31 $32 $12 #
-21 cone-surface $-1 0.026060400000000001 0.0211328 0.0128524 0 0 -1 0.0024130000000000002 0 0 1 I I 0 1 0 I I I I #
-22 loop $-1 $25 $33 $7 #
-23 coedge $-1 $23 $23 $32 $34 0 $13 $-1 #
-24 edge $-1 $35 $35 $16 $36 0 #
-25 loop $-1 $-1 $17 $7 #
-26 vertex $-1 $18 $37 #
-27 ellipse-curve $-1 0.033350200000000003 0.047472599999999997 0.0128524 0 0 -1 0.0024130000000000002 0 0 1 I I #
-28 face $-1 $38 $39 $2 $-1 $40 reversed single #
-29 loop $-1 $-1 $41 $19 #
-30 plane-surface $-1 0.026060400000000001 0.0211328 0.0067564000000000001 0 0 1 1 0 0 0 I I I I #
-31 loop $-1 $-1 $42 $12 #
-32 coedge $-1 $32 $32 $23 $34 1 $20 $-1 #
-33 coedge $-1 $43 $44 $45 $46 1 $22 $-1 #
-34 edge $-1 $47 $47 $23 $48 0 #
-35 vertex $-1 $24 $49 #
-36 ellipse-curve $-1 0.033350200000000003 0.047472599999999997 0.0067564000000000001 0 0 1 0.0024130000000000002 0 0 1 I I #
-37 point $-1 0.035763200000000002 0.047472599999999997 0.0128524 #
-38 face $-1 $50 $51 $2 $-1 $52 reversed single #
-39 loop $-1 $53 $54 $28 #
-40 cone-surface $-1 0.026111200000000001 0.056108600000000002 0.0050800000000000003 0 0 -1 0.0025146000000000001 0 0 1 I I 0 1 0 I I I I #
-41 coedge $-1 $41 $41 $42 $55 0 $29 $-1 #
-42 coedge $-1 $42 $42 $41 $55 1 $31 $-1 #
-43 coedge $-1 $56 $33 $57 $58 0 $22 $-1 #
-44 coedge $-1 $33 $59 $60 $61 0 $22 $-1 #
-45 coedge $-1 $62 $63 $33 $46 0 $64 $-1 #
-46 edge $-1 $65 $66 $33 $67 0 #
-47 vertex $-1 $34 $68 #
-48 ellipse-curve $-1 0.026060400000000001 0.0211328 0.0128524 0 0 -1 0.0024130000000000002 0 0 1 I I #
-49 point $-1 0.035763200000000002 0.047472599999999997 0.0067564000000000001 #
-50 face $-1 $69 $70 $2 $-1 $71 forward single #
-51 loop $-1 $72 $73 $38 #
-52 plane-surface $-1 0.0050800000000000003 0.0050800000000000003 0 0 0 1 1 0 0 0 I I I I #
-53 loop $-1 $-1 $74 $28 #
-54 coedge $-1 $54 $54 $75 $76 1 $39 $-1 #
-55 edge $-1 $77 $77 $42 $78 0 #
-56 coedge $-1 $79 $43 $80 $81 1 $22 $-1 #
-57 coedge $-1 $82 $83 $43 $58 1 $84 $-1 #
-58 edge $-1 $65 $85 $43 $86 0 #
-59 coedge $-1 $44 $79 $87 $88 1 $22 $-1 #
-60 coedge $-1 $89 $90 $44 $61 1 $91 $-1 #
-61 edge $-1 $92 $66 $44 $93 0 #
-62 coedge $-1 $94 $45 $90 $95 0 $64 $-1 #
-63 coedge $-1 $45 $96 $82 $97 1 $64 $-1 #
-64 loop $-1 $-1 $98 $99 #
-65 vertex $-1 $46 $100 #
-66 vertex $-1 $46 $101 #
-67 straight-curve $-1 0.038100000000000002 0.038864008573909002 0.0128524 0 -1 0 I I #
-68 point $-1 0.028473399999999999 0.0211328 0.0128524 #
-69 face $-1 $102 $103 $2 $-1 $104 reversed single #
-70 loop $-1 $105 $106 $50 #
-71 plane-surface $-1 0.0050800000000000003 0.0050800000000000003 0.0050800000000000003 0 0 1 1 0 0 0 I I I I #
-72 loop $-1 $107 $108 $38 #
-73 coedge $-1 $109 $110 $111 $112 1 $51 $-1 #
-74 coedge $-1 $74 $74 $113 $114 0 $53 $-1 #
-75 coedge $-1 $75 $75 $54 $76 0 $115 $-1 #
-76 edge $-1 $116 $116 $54 $117 0 #
-77 vertex $-1 $55 $118 #
-78 ellipse-curve $-1 0.026060400000000001 0.0211328 0.0067564000000000001 0 0 1 0.0024130000000000002 0 0 1 I I #
-79 coedge $-1 $59 $56 $119 $120 1 $22 $-1 #
-80 coedge $-1 $121 $122 $56 $81 0 $123 $-1 #
-81 edge $-1 $124 $85 $56 $125 0 #
-82 coedge $-1 $126 $57 $63 $97 0 $84 $-1 #
-83 coedge $-1 $57 $126 $121 $127 1 $84 $-1 #
-84 loop $-1 $-1 $126 $128 #
-85 vertex $-1 $58 $129 #
-86 straight-curve $-1 0.038100000000000002 0.038864008573909002 0.0128524 -0.13917310096006405 0.99026806874157047 0 I I #
-87 coedge $-1 $130 $131 $59 $88 0 $132 $-1 #
-88 edge $-1 $92 $133 $59 $134 0 #
-89 coedge $-1 $135 $60 $131 $136 0 $91 $-1 #
-90 coedge $-1 $60 $135 $62 $95 1 $91 $-1 #
-91 loop $-1 $-1 $90 $137 #
-92 vertex $-1 $88 $138 #
-93 straight-curve $-1 0.024004484907142999 0.0097616787189400006 0.0128524 0.99026806874157036 0.13917310096006505 0 I I #
-94 coedge $-1 $98 $62 $139 $140 1 $64 $-1 #
-95 edge $-1 $66 $141 $62 $142 0 #
-96 coedge $-1 $63 $98 $143 $144 0 $64 $-1 #
-97 edge $-1 $65 $145 $82 $146 0 #
-98 coedge $-1 $96 $94 $147 $148 0 $64 $-1 #
-99 face $-1 $149 $64 $2 $-1 $150 forward single #
-100 point $-1 0.038100000000000002 0.038864008573909002 0.0128524 #
-101 point $-1 0.038100000000000002 0.01174267417565 0.0128524 #
-102 face $-1 $151 $152 $2 $-1 $153 forward single #
-103 loop $-1 $154 $155 $69 #
-104 cone-surface $-1 0.031826199999999999 0.0050800000000000003 0.0050800000000000003 0 0 -1 0.0025146000000000001 0 0 1 I I 0 1 0 I I I I #
-105 loop $-1 $156 $139 $50 #
-106 coedge $-1 $106 $106 $155 $157 0 $70 $-1 #
-107 loop $-1 $-1 $113 $38 #
-108 coedge $-1 $108 $108 $158 $159 1 $72 $-1 #
-109 coedge $-1 $160 $73 $161 $162 1 $51 $-1 #
-110 coedge $-1 $73 $163 $164 $165 1 $51 $-1 #
-111 coedge $-1 $166 $166 $73 $112 0 $154 $-1 #
-112 edge $-1 $167 $168 $73 $169 0 #
-113 coedge $-1 $113 $113 $74 $114 1 $107 $-1 #
-114 edge $-1 $170 $170 $74 $171 0 #
-115 loop $-1 $-1 $75 $50 #
-116 vertex $-1 $76 $172 #
-117 ellipse-curve $-1 0.026111200000000001 0.056108600000000002 0.0050800000000000003 0 0 -1 0.0025146000000000001 0 0 1 I I #
-118 point $-1 0.028473399999999999 0.0211328 0.0067564000000000001 #
-119 coedge $-1 $173 $174 $79 $120 0 $175 $-1 #
-120 edge $-1 $133 $124 $79 $176 0 #
-121 coedge $-1 $177 $80 $83 $127 0 $123 $-1 #
-122 coedge $-1 $80 $178 $173 $179 1 $123 $-1 #
-123 loop $-1 $-1 $121 $180 #
-124 vertex $-1 $81 $181 #
-125 straight-curve $-1 0.035471507816465998 0.051745766108432997 0.0128524 0.57357643635104716 -0.81915204428899113 0 I I #
-126 coedge $-1 $83 $82 $182 $183 1 $84 $-1 #
-127 edge $-1 $85 $184 $121 $185 0 #
-128 face $-1 $99 $84 $2 $-1 $186 reversed single #
-129 point $-1 0.036495019199486001 0.050284040366895003 0.0128524 #
-130 coedge $-1 $187 $87 $174 $188 0 $132 $-1 #
-131 coedge $-1 $87 $187 $89 $136 1 $132 $-1 #
-132 loop $-1 $-1 $131 $189 #
-133 vertex $-1 $120 $190 #
-134 straight-curve $-1 0.024004484907142999 0.0097616787189400006 0.0128524 -0.13917310096006405 0.99026806874157047 0 I I #
-135 coedge $-1 $90 $89 $191 $192 1 $91 $-1 #
-136 edge $-1 $92 $193 $89 $194 0 #
-137 face $-1 $189 $91 $2 $-1 $195 reversed single #
-138 point $-1 0.024004484907142999 0.0097616787189400006 0.0128524 #
-139 coedge $-1 $191 $196 $94 $140 0 $105 $-1 #
-140 edge $-1 $197 $141 $139 $198 0 #
-141 vertex $-1 $140 $199 #
-142 straight-curve $-1 0.038100000000000002 0.01174267417565 0.0128524 0 0 -1 I I #
-143 coedge $-1 $200 $182 $96 $144 1 $152 $-1 #
-144 edge $-1 $201 $145 $143 $202 0 #
-145 vertex $-1 $183 $203 #
-146 straight-curve $-1 0.038100000000000002 0.038864008573909002 0.0128524 0 0 -1 I I #
-147 coedge $-1 $204 $205 $98 $148 1 $206 $-1 #
-148 edge $-1 $197 $201 $98 $207 0 #
-149 face $-1 $208 $206 $2 $-1 $209 forward single #
-150 plane-surface $-1 0.038100000000000002 0.025303341374779999 0.0128524 1 0 0 0 0 -1 0 I I I I #
-151 face $-1 $180 $210 $2 $-1 $211 reversed single #
-152 loop $-1 $-1 $161 $102 #
-153 plane-surface $-1 0.033782 0.054158633328894 0 0.70710678118654802 0 -0.70710678118654702 -0.70710678118654702 0 -0.70710678118654802 0 I I I I #
-154 loop $-1 $-1 $111 $69 #
-155 coedge $-1 $155 $155 $106 $157 1 $103 $-1 #
-156 loop $-1 $115 $212 $50 #
-157 edge $-1 $213 $213 $106 $214 0 #
-158 coedge $-1 $158 $158 $108 $159 0 $215 $-1 #
-159 edge $-1 $216 $216 $108 $217 0 #
-160 coedge $-1 $218 $109 $219 $220 1 $51 $-1 #
-161 coedge $-1 $221 $222 $109 $162 0 $152 $-1 #
-162 edge $-1 $223 $167 $109 $224 0 #
-163 coedge $-1 $110 $225 $226 $227 1 $51 $-1 #
-164 coedge $-1 $228 $221 $110 $165 0 $152 $-1 #
-165 edge $-1 $168 $229 $110 $230 0 #
-166 coedge $-1 $111 $111 $221 $231 1 $154 $-1 #
-167 vertex $-1 $112 $232 #
-168 vertex $-1 $112 $233 #
-169 ellipse-curve $-1 0.031826199999999999 0.0050800000000000003 0 0 0 -1 0.0025146000000000001 0 0 1 I I #
-170 vertex $-1 $114 $234 #
-171 ellipse-curve $-1 0.026111200000000001 0.056108600000000002 0 0 0 -1 0.0025146000000000001 0 0 1 I I #
-172 point $-1 0.0286258 0.056108600000000002 0.0050800000000000003 #
-173 coedge $-1 $235 $119 $122 $179 0 $175 $-1 #
-174 coedge $-1 $119 $235 $130 $188 1 $175 $-1 #
-175 loop $-1 $-1 $174 $236 #
-176 straight-curve $-1 0.018440399999999999 0.049352199999999999 0.0128524 0.99026806874157036 0.13917310096006505 0 I I #
-177 coedge $-1 $226 $121 $228 $237 0 $123 $-1 #
-178 coedge $-1 $122 $238 $239 $240 1 $123 $-1 #
-179 edge $-1 $124 $241 $122 $242 0 #
-180 face $-1 $128 $123 $2 $-1 $243 forward single #
-181 point $-1 0.035471507816465998 0.051745766108432997 0.0128524 #
-182 coedge $-1 $143 $228 $126 $183 0 $152 $-1 #
-183 edge $-1 $184 $145 $182 $244 0 #
-184 vertex $-1 $237 $245 #
-185 straight-curve $-1 0.036495019199486001 0.050284040366895003 0.0050800000000000003 0 0 -1 I I #
-186 plane-surface $-1 0.037297509599742998 0.044574024470401999 0.0128524 -0.99026806874157047 -0.13917310096006405 0 0 0 1 0 I I I I #
-187 coedge $-1 $131 $130 $246 $247 0 $132 $-1 #
-188 edge $-1 $133 $248 $130 $249 0 #
-189 face $-1 $236 $132 $2 $-1 $250 forward single #
-190 point $-1 0.018440399999999999 0.049352199999999999 0.0128524 #
-191 coedge $-1 $246 $139 $135 $192 0 $105 $-1 #
-192 edge $-1 $141 $193 $191 $251 0 #
-193 vertex $-1 $192 $252 #
-194 straight-curve $-1 0.024004484907142999 0.0097616787189400006 0.0128524 0 0 -1 I I #
-195 plane-surface $-1 0.031052242453572 0.010752176447295 0.0128524 -0.13917310096006505 0.99026806874157036 0 0 0 1 0 I I I I #
-196 coedge $-1 $139 $253 $204 $254 1 $105 $-1 #
-197 vertex $-1 $140 $255 #
-198 straight-curve $-1 0.038100000000000002 0.0058072199476170002 0.0050800000000000003 0 1 0 I I #
-199 point $-1 0.038100000000000002 0.01174267417565 0.0050800000000000003 #
-200 coedge $-1 $222 $143 $205 $256 1 $152 $-1 #
-201 vertex $-1 $144 $257 #
-202 straight-curve $-1 0.038100000000000002 0.025303341374779999 0.0043179999999999998 0 1 0 I I #
-203 point $-1 0.038100000000000002 0.038864008573909002 0.0043179999999999998 #
-204 coedge $-1 $258 $147 $196 $254 0 $206 $-1 #
-205 coedge $-1 $147 $258 $200 $256 0 $206 $-1 #
-206 loop $-1 $-1 $258 $149 #
-207 straight-curve $-1 0.038100000000000002 0.0058072199476170002 0.0050800000000000003 0 0 -1 I I #
-208 face $-1 $137 $259 $2 $-1 $260 forward single #
-209 plane-surface $-1 0.036536241454557999 0.0030987106961420001 0.0050800000000000003 0.86602540378443849 -0.50000000000000033 0 0 0 -1 0 I I I I #
-210 loop $-1 $215 $261 $151 #
-211 cone-surface $-1 0.0050800000000000003 0.0050800000000000003 0.0050800000000000003 0 0 -1 0.0025146000000000001 0 0 1 I I 0 1 0 I I I I #
-212 coedge $-1 $212 $212 $261 $262 0 $156 $-1 #
-213 vertex $-1 $157 $263 #
-214 ellipse-curve $-1 0.031826199999999999 0.0050800000000000003 0.0050800000000000003 0 0 -1 0.0025146000000000001 0 0 1 I I #
-215 loop $-1 $-1 $158 $151 #
-216 vertex $-1 $159 $264 #
-217 ellipse-curve $-1 0.0050800000000000003 0.0050800000000000003 0 0 0 -1 0.0025146000000000001 0 0 1 I I #
-218 coedge $-1 $265 $160 $266 $267 1 $51 $-1 #
-219 coedge $-1 $268 $269 $160 $220 0 $259 $-1 #
-220 edge $-1 $270 $223 $160 $271 0 #
-221 coedge $-1 $164 $161 $166 $231 0 $152 $-1 #
-222 coedge $-1 $161 $200 $268 $272 0 $152 $-1 #
-223 vertex $-1 $162 $273 #
-224 straight-curve $-1 0.033782 0.0050800000000000003 0 0 1 0 I I #
-225 coedge $-1 $163 $274 $275 $276 0 $51 $-1 #
-226 coedge $-1 $238 $177 $163 $227 0 $123 $-1 #
-227 edge $-1 $229 $277 $163 $278 0 #
-228 coedge $-1 $182 $164 $177 $237 1 $152 $-1 #
-229 vertex $-1 $227 $279 #
-230 straight-curve $-1 0.033782 0.0050800000000000003 0 0 1 0 I I #
-231 edge $-1 $167 $168 $166 $280 0 #
-232 point $-1 0.033782 0.0034994749226919999 0 #
-233 point $-1 0.033782 0.0066605250773079999 0 #
-234 point $-1 0.0286258 0.056108600000000002 0 #
-235 coedge $-1 $174 $173 $281 $282 0 $175 $-1 #
-236 face $-1 $283 $175 $2 $-1 $284 forward single #
-237 edge $-1 $184 $229 $228 $285 0 #
-238 coedge $-1 $178 $226 $286 $287 1 $123 $-1 #
-239 coedge $-1 $288 $281 $178 $240 0 $105 $-1 #
-240 edge $-1 $241 $289 $239 $290 0 #
-241 vertex $-1 $282 $291 #
-242 straight-curve $-1 0.035471507816465998 0.051745766108432997 0.0128524 0 0 -1 I I #
-243 plane-surface $-1 0.035983263507976003 0.051014903237664 0.0128524 0.81915204428899113 0.57357643635104716 0 0 0 -1 0 I I I I #
-244 straight-curve $-1 0.037474920942138001 0.043311677176317002 0.0036929209421380001 0.13784453749162709 -0.98081484846398959 0.13784453749162709 I I #
-245 point $-1 0.036495019199486001 0.050284040366895003 0.0027130191994859999 #
-246 coedge $-1 $281 $191 $187 $247 1 $105 $-1 #
-247 edge $-1 $248 $193 $246 $292 0 #
-248 vertex $-1 $247 $293 #
-249 straight-curve $-1 0.018440399999999999 0.049352199999999999 0.0128524 0 0 -1 I I #
-250 plane-surface $-1 0.021222442453572 0.02955693935947 0.0128524 -0.99026806874157047 -0.13917310096006405 0 0 0 1 0 I I I I #
-251 straight-curve $-1 0.0048013284538349996 0.0070628510820710004 0.0050800000000000003 -0.99026806874157036 -0.13917310096006505 0 I I #
-252 point $-1 0.024004484907142999 0.0097616787189400006 0.0050800000000000003 #
-253 coedge $-1 $196 $294 $295 $296 0 $105 $-1 #
-254 edge $-1 $197 $297 $196 $298 0 #
-255 point $-1 0.038100000000000002 0.0058072199476170002 0.0050800000000000003 #
-256 edge $-1 $299 $201 $200 $300 0 #
-257 point $-1 0.038100000000000002 0.0058072199476170002 0.0043179999999999998 #
-258 coedge $-1 $205 $204 $301 $302 0 $206 $-1 #
-259 loop $-1 $-1 $268 $208 #
-260 cone-surface $-1 0.033020000000000001 0.0050800000000000003 0.0050800000000000003 0 0 -1 0.0050800000000000003 0 0 1 I I 0 1 0 I I I I #
-261 coedge $-1 $261 $261 $212 $262 1 $210 $-1 #
-262 edge $-1 $303 $303 $212 $304 0 #
-263 point $-1 0.034340799999999998 0.0050800000000000003 0.0050800000000000003 #
-264 point $-1 0.0075946 0.0050800000000000003 0 #
-265 coedge $-1 $305 $218 $306 $307 0 $51 $-1 #
-266 coedge $-1 $308 $309 $218 $267 0 $310 $-1 #
-267 edge $-1 $311 $270 $218 $312 0 #
-268 coedge $-1 $301 $219 $222 $272 1 $259 $-1 #
-269 coedge $-1 $219 $295 $308 $313 0 $259 $-1 #
-270 vertex $-1 $220 $314 #
-271 ellipse-curve $-1 0.033020000000000001 0.0050800000000000003 0 0 0 1 0.0050800000000000003 0 0 1 I I #
-272 edge $-1 $299 $223 $222 $315 0 #
-273 point $-1 0.033782 5.7475136945999999e-005 0 #
-274 coedge $-1 $225 $316 $317 $318 1 $51 $-1 #
-275 coedge $-1 $319 $286 $225 $276 1 $320 $-1 #
-276 edge $-1 $321 $277 $225 $322 0 #
-277 vertex $-1 $276 $323 #
-278 straight-curve $-1 0.036495019199486001 0.050284040366895003 0 -0.57357643635104716 0.81915204428899113 0 I I #
-279 point $-1 0.033782 0.054158633328894 0 #
-280 ellipse-curve $-1 0.031826199999999999 0.0050800000000000003 -0.0019558000000000002 -0.70710678118654802 0 0.70710678118654702 -0.002514599999999726 0 -0.0025145999999997295 0.70710678118662407 I I #
-281 coedge $-1 $239 $246 $235 $282 1 $105 $-1 #
-282 edge $-1 $241 $248 $281 $324 0 #
-283 face $-1 $325 $326 $2 $-1 $327 forward single #
-284 plane-surface $-1 0.026955953908233 0.050548983054215998 0.0128524 -0.13917310096006505 0.99026806874157036 0 0 0 1 0 I I I I #
-285 straight-curve $-1 0.038619940097093998 0.047249338822491001 0.0048379400970940001 -0.49754281216452301 0.71056477546162899 -0.49754281216452401 I I #
-286 coedge $-1 $275 $328 $238 $287 0 $320 $-1 #
-287 edge $-1 $289 $277 $238 $329 0 #
-288 coedge $-1 $330 $239 $328 $331 1 $105 $-1 #
-289 vertex $-1 $240 $332 #
-290 straight-curve $-1 0.036495019199486001 0.050284040366895003 0.0050800000000000003 -0.57357643635104716 0.81915204428899113 0 I I #
-291 point $-1 0.035471507816465998 0.051745766108432997 0.0050800000000000003 #
-292 straight-curve $-1 0.024283156453307999 0.0077788276368679996 0.0050800000000000003 0.13917310096006405 -0.99026806874157047 0 I I #
-293 point $-1 0.018440399999999999 0.049352199999999999 0.0050800000000000003 #
-294 coedge $-1 $253 $333 $334 $335 0 $105 $-1 #
-295 coedge $-1 $269 $301 $253 $296 1 $259 $-1 #
-296 edge $-1 $336 $297 $253 $337 0 #
-297 vertex $-1 $296 $338 #
-298 straight-curve $-1 0.038100000000000002 0.0058072199476170002 0.0050800000000000003 -0.50000000000000033 -0.86602540378443849 0 I I #
-299 vertex $-1 $256 $339 #
-300 straight-curve $-1 0.037001393163646999 0.0039043770895100002 0.0032193931636470001 0.44721359549995887 0.77459666924148174 0.44721359549995987 I I #
-301 coedge $-1 $295 $268 $258 $302 1 $259 $-1 #
-302 edge $-1 $297 $299 $258 $340 0 #
-303 vertex $-1 $262 $341 #
-304 ellipse-curve $-1 0.0050800000000000003 0.0050800000000000003 0.0050800000000000003 0 0 -1 0.0025146000000000001 0 0 1 I I #
-305 coedge $-1 $342 $265 $343 $344 1 $51 $-1 #
-306 coedge $-1 $345 $346 $265 $307 1 $347 $-1 #
-307 edge $-1 $311 $348 $265 $349 0 #
-308 coedge $-1 $334 $266 $269 $313 1 $310 $-1 #
-309 coedge $-1 $266 $334 $345 $350 0 $310 $-1 #
-310 loop $-1 $-1 $308 $351 #
-311 vertex $-1 $267 $352 #
-312 straight-curve $-1 0.031284226967503 0 0 1 0 0 I I #
-313 edge $-1 $336 $270 $269 $353 0 #
-314 point $-1 0.033020000000000001 0 0 #
-315 ellipse-curve $-1 0.033020000000000001 0.0050800000000000003 -0.00076199999999999998 0.70710678118654802 0 -0.70710678118654702 -0.0050799999999997679 0 -0.0050799999999997748 0.70710678118657944 I I #
-316 coedge $-1 $274 $354 $355 $356 0 $51 $-1 #
-317 coedge $-1 $357 $358 $274 $318 0 $359 $-1 #
-318 edge $-1 $321 $360 $274 $361 0 #
-319 coedge $-1 $328 $275 $358 $362 1 $320 $-1 #
-320 loop $-1 $-1 $319 $363 #
-321 vertex $-1 $318 $364 #
-322 straight-curve $-1 0.021971000000000001 0.061594999999999997 0 1 0 0 I I #
-323 point $-1 0.028575 0.061594999999999997 0 #
-324 straight-curve $-1 -0.00076275645330800004 0.046653372363132002 0.0050800000000000003 -0.99026806874157036 -0.13917310096006505 0 I I #
-325 face $-1 $365 $366 $2 $-1 $367 forward single #
-326 loop $-1 $-1 $368 $283 #
-327 cone-surface $-1 0.0050800000000000003 0.0050800000000000003 0.0050800000000000003 0 0 -1 0.0050800000000000003 0 0 1 I I 0 1 0 I I I I #
-328 coedge $-1 $286 $319 $288 $331 0 $320 $-1 #
-329 straight-curve $-1 0.028575 0.061594999999999997 0.0050800000000000003 0 0 -1 I I #
-330 coedge $-1 $369 $288 $370 $371 0 $105 $-1 #
-331 edge $-1 $372 $289 $288 $373 0 #
-332 point $-1 0.028575 0.061594999999999997 0.0050800000000000003 #
-333 coedge $-1 $294 $374 $375 $376 1 $105 $-1 #
-334 coedge $-1 $309 $308 $294 $335 1 $310 $-1 #
-335 edge $-1 $377 $336 $294 $378 0 #
-336 vertex $-1 $335 $379 #
-337 ellipse-curve $-1 0.033020000000000001 0.0050800000000000003 0.0050800000000000003 0 0 1 0.0050800000000000003 0 0 1 I I #
-338 point $-1 0.034972482909115997 0.000390201444666 0.0050800000000000003 #
-339 point $-1 0.034972482909115997 0.000390201444666 0.001190482909116 #
-340 straight-curve $-1 0.034972482909115997 0.000390201444666 0.0050800000000000003 0 0 -1 I I #
-341 point $-1 0.0075946 0.0050800000000000003 0.0050800000000000003 #
-342 coedge $-1 $380 $305 $381 $382 1 $51 $-1 #
-343 coedge $-1 $383 $384 $305 $344 0 $385 $-1 #
-344 edge $-1 $386 $348 $305 $387 0 #
-345 coedge $-1 $375 $306 $309 $350 1 $347 $-1 #
-346 coedge $-1 $306 $375 $383 $388 0 $347 $-1 #
-347 loop $-1 $-1 $345 $389 #
-348 vertex $-1 $307 $390 #
-349 ellipse-curve $-1 0.022859999999999998 -0.012699999999999999 0 0 0 1 0.01524 0 0 1 I I #
-350 edge $-1 $377 $311 $309 $391 0 #
-351 face $-1 $389 $310 $2 $-1 $392 reversed single #
-352 point $-1 0.031284226967503 0 0 #
-353 straight-curve $-1 0.033020000000000001 0 0.0050800000000000003 0 0 -1 I I #
-354 coedge $-1 $316 $393 $394 $395 0 $51 $-1 #
-355 coedge $-1 $396 $397 $316 $356 1 $398 $-1 #
-356 edge $-1 $399 $360 $316 $400 0 #
-357 coedge $-1 $370 $317 $397 $401 1 $359 $-1 #
-358 coedge $-1 $317 $370 $319 $362 0 $359 $-1 #
-359 loop $-1 $-1 $357 $402 #
-360 vertex $-1 $356 $403 #
-361 ellipse-curve $-1 0.021971000000000001 0.056515000000000003 0 0 0 1 0.0050800000000000003 0 0 1 I I #
-362 edge $-1 $372 $321 $358 $404 0 #
-363 face $-1 $351 $320 $2 $-1 $405 forward single #
-364 point $-1 0.021971000000000001 0.061594999999999997 0 #
-365 face $-1 $406 $407 $2 $-1 $408 forward single #
-366 loop $-1 $-1 $409 $325 #
-367 plane-surface $-1 0 0.012064999999999999 0.0050800000000000003 -1 0 0 0 0 1 0 I I I I #
-368 coedge $-1 $410 $381 $384 $411 1 $326 $-1 #
-369 coedge $-1 $412 $330 $413 $414 1 $105 $-1 #
-370 coedge $-1 $358 $357 $330 $371 1 $359 $-1 #
-371 edge $-1 $372 $415 $330 $416 0 #
-372 vertex $-1 $331 $417 #
-373 straight-curve $-1 0.021971000000000001 0.061594999999999997 0.0050800000000000003 1 0 0 I I #
-374 coedge $-1 $333 $418 $419 $420 0 $105 $-1 #
-375 coedge $-1 $346 $345 $333 $376 0 $347 $-1 #
-376 edge $-1 $377 $421 $333 $422 0 #
-377 vertex $-1 $376 $423 #
-378 straight-curve $-1 0.031284226967503 0 0.0050800000000000003 1 0 0 I I #
-379 point $-1 0.033020000000000001 0 0.0050800000000000003 #
-380 coedge $-1 $393 $342 $424 $425 0 $51 $-1 #
-381 coedge $-1 $368 $426 $342 $382 0 $326 $-1 #
-382 edge $-1 $427 $386 $342 $428 0 #
-383 coedge $-1 $419 $343 $346 $388 1 $385 $-1 #
-384 coedge $-1 $343 $419 $368 $411 0 $385 $-1 #
-385 loop $-1 $-1 $419 $429 #
-386 vertex $-1 $344 $430 #
-387 straight-curve $-1 0.0050800000000000003 0 0 1 0 0 I I #
-388 edge $-1 $421 $348 $346 $431 0 #
-389 face $-1 $429 $347 $2 $-1 $432 reversed single #
-390 point $-1 0.014435773032497001 0 0 #
-391 straight-curve $-1 0.031284226967503 0 0.0050800000000000003 0 0 -1 I I #
-392 plane-surface $-1 0.032152113483751001 0 0.0050800000000000003 0 1 0 0 0 1 0 I I I I #
-393 coedge $-1 $354 $380 $433 $434 0 $51 $-1 #
-394 coedge $-1 $435 $436 $354 $395 1 $437 $-1 #
-395 edge $-1 $438 $399 $354 $439 0 #
-396 coedge $-1 $413 $355 $436 $440 1 $398 $-1 #
-397 coedge $-1 $355 $413 $357 $401 0 $398 $-1 #
-398 loop $-1 $-1 $396 $441 #
-399 vertex $-1 $395 $442 #
-400 straight-curve $-1 0.016891 0.024129999999999999 0 0 1 0 I I #
-401 edge $-1 $415 $360 $397 $443 0 #
-402 face $-1 $363 $359 $2 $-1 $444 forward single #
-403 point $-1 0.016891 0.056515000000000003 0 #
-404 straight-curve $-1 0.021971000000000001 0.061594999999999997 0.0050800000000000003 0 0 -1 I I #
-405 plane-surface $-1 0.025273 0.061594999999999997 0.0050800000000000003 0 1 0 0 0 1 0 I I I I #
-406 face $-1 $441 $437 $2 $-1 $445 reversed single #
-407 loop $-1 $-1 $446 $365 #
-408 plane-surface $-1 0.0059055000000000002 0.019050000000000001 0.0050800000000000003 0 1 0 0 0 1 0 I I I I #
-409 coedge $-1 $447 $424 $426 $448 1 $366 $-1 #
-410 coedge $-1 $426 $368 $418 $449 1 $326 $-1 #
-411 edge $-1 $450 $386 $368 $451 0 #
-412 coedge $-1 $452 $369 $453 $454 1 $105 $-1 #
-413 coedge $-1 $397 $396 $369 $414 0 $398 $-1 #
-414 edge $-1 $455 $415 $369 $456 0 #
-415 vertex $-1 $371 $457 #
-416 ellipse-curve $-1 0.021971000000000001 0.056515000000000003 0.0050800000000000003 0 0 1 0.0050800000000000003 0 0 1 I I #
-417 point $-1 0.021971000000000001 0.061594999999999997 0.0050800000000000003 #
-418 coedge $-1 $374 $458 $410 $449 0 $105 $-1 #
-419 coedge $-1 $384 $383 $374 $420 1 $385 $-1 #
-420 edge $-1 $450 $421 $374 $459 0 #
-421 vertex $-1 $420 $460 #
-422 ellipse-curve $-1 0.022859999999999998 -0.012699999999999999 0.0050800000000000003 0 0 1 0.01524 0 0 1 I I #
-423 point $-1 0.031284226967503 0 0.0050800000000000003 #
-424 coedge $-1 $409 $461 $380 $425 1 $366 $-1 #
-425 edge $-1 $427 $462 $380 $463 0 #
-426 coedge $-1 $381 $410 $409 $448 0 $326 $-1 #
-427 vertex $-1 $382 $464 #
-428 ellipse-curve $-1 0.0050800000000000003 0.0050800000000000003 0 0 0 1 0.0050800000000000003 0 0 1 I I #
-429 face $-1 $-1 $385 $2 $-1 $465 reversed single #
-430 point $-1 0.0050800000000000003 0 0 #
-431 straight-curve $-1 0.014435773032497001 0 0.0050800000000000003 0 0 -1 I I #
-432 cone-surface $-1 0.022859999999999998 -0.012699999999999999 0.0050800000000000003 0 0 -1 0.01524 0 0 1 I I 0 1 0 I I I I #
-433 coedge $-1 $446 $466 $393 $434 1 $407 $-1 #
-434 edge $-1 $462 $438 $393 $467 0 #
-435 coedge $-1 $453 $394 $466 $468 1 $437 $-1 #
-436 coedge $-1 $394 $453 $396 $440 0 $437 $-1 #
-437 loop $-1 $-1 $435 $406 #
-438 vertex $-1 $434 $469 #
-439 ellipse-curve $-1 0.011811 0.024129999999999999 0 0 0 1 0.0050800000000000003 0 0 1 I I #
-440 edge $-1 $455 $399 $436 $470 0 #
-441 face $-1 $402 $398 $2 $-1 $471 forward single #
-442 point $-1 0.016891 0.024129999999999999 0 #
-443 straight-curve $-1 0.016891 0.056515000000000003 0.0050800000000000003 0 0 -1 I I #
-444 cone-surface $-1 0.021971000000000001 0.056515000000000003 0.0050800000000000003 0 0 -1 0.0050800000000000003 0 0 1 I I 0 1 0 I I I I #
-445 cone-surface $-1 0.011811 0.024129999999999999 0.0050800000000000003 0 0 -1 0.0050800000000000003 0 0 1 I I 0 1 0 I I I I #
-446 coedge $-1 $472 $433 $461 $473 1 $407 $-1 #
-447 coedge $-1 $461 $409 $458 $474 0 $366 $-1 #
-448 edge $-1 $475 $427 $426 $476 0 #
-449 edge $-1 $475 $450 $418 $477 0 #
-450 vertex $-1 $449 $478 #
-451 straight-curve $-1 0.0050800000000000003 0 0.0050800000000000003 0 0 -1 I I #
-452 coedge $-1 $458 $412 $472 $479 1 $105 $-1 #
-453 coedge $-1 $436 $435 $412 $454 0 $437 $-1 #
-454 edge $-1 $480 $455 $412 $481 0 #
-455 vertex $-1 $414 $482 #
-456 straight-curve $-1 0.016891 0.024129999999999999 0.0050800000000000003 0 1 0 I I #
-457 point $-1 0.016891 0.056515000000000003 0.0050800000000000003 #
-458 coedge $-1 $418 $452 $447 $474 1 $105 $-1 #
-459 straight-curve $-1 0.0050800000000000003 0 0.0050800000000000003 1 0 0 I I #
-460 point $-1 0.014435773032497001 0 0.0050800000000000003 #
-461 coedge $-1 $424 $447 $446 $473 0 $366 $-1 #
-462 vertex $-1 $425 $483 #
-463 straight-curve $-1 0 0.0050800000000000003 0 0 1 0 I I #
-464 point $-1 0 0.0050800000000000003 0 #
-465 plane-surface $-1 0.0097578865162490005 0 0.0050800000000000003 -1.0000000000000001e-015 1 0 0 0 1 0 I I I I #
-466 coedge $-1 $433 $472 $435 $468 0 $407 $-1 #
-467 straight-curve $-1 0 0.019050000000000001 0 1 0 0 I I #
-468 edge $-1 $480 $438 $466 $484 0 #
-469 point $-1 0.011811 0.019050000000000001 0 #
-470 straight-curve $-1 0.016891 0.024129999999999999 0.0050800000000000003 0 0 -1 I I #
-471 plane-surface $-1 0.016891 0.040322499999999997 0.0050800000000000003 -1 0 0 0 0 1 0 I I I I #
-472 coedge $-1 $466 $446 $452 $479 0 $407 $-1 #
-473 edge $-1 $485 $462 $461 $486 0 #
-474 edge $-1 $475 $485 $458 $487 0 #
-475 vertex $-1 $474 $488 #
-476 straight-curve $-1 0 0.0050800000000000003 0.0050800000000000003 0 0 -1 I I #
-477 ellipse-curve $-1 0.0050800000000000003 0.0050800000000000003 0.0050800000000000003 0 0 1 0.0050800000000000003 0 0 1 I I #
-478 point $-1 0.0050800000000000003 0 0.0050800000000000003 #
-479 edge $-1 $485 $480 $452 $489 0 #
-480 vertex $-1 $454 $490 #
-481 ellipse-curve $-1 0.011811 0.024129999999999999 0.0050800000000000003 0 0 1 0.0050800000000000003 0 0 1 I I #
-482 point $-1 0.016891 0.024129999999999999 0.0050800000000000003 #
-483 point $-1 0 0.019050000000000001 0 #
-484 straight-curve $-1 0.011811 0.019050000000000001 0.0050800000000000003 0 0 -1 I I #
-485 vertex $-1 $479 $491 #
-486 straight-curve $-1 0 0.019050000000000001 0.0050800000000000003 0 0 -1 I I #
-487 straight-curve $-1 0 0.0050800000000000003 0.0050800000000000003 0 1 0 I I #
-488 point $-1 0 0.0050800000000000003 0.0050800000000000003 #
-489 straight-curve $-1 0 0.019050000000000001 0.0050800000000000003 1 0 0 I I #
-490 point $-1 0.011811 0.019050000000000001 0.0050800000000000003 #
-491 point $-1 0 0.019050000000000001 0.0050800000000000003 #
End-of-ACIS-data 