600 0 1 0           
85 GICL Pro/E ACIS Translator - Source: f:/data5/repository/PTC/V18/cmm18/paa1.prt - 6 0 13 ACIS 6.0.3 NT 24 Thu Apr 04 13:39:01 2002 
1 9.9999999999999995e-007 1e-010 
body $-1 $1 $-1 $-1 #
lump $-1 $-1 $2 $0 #
shell $-1 $-1 $-1 $3 $-1 $1 #
face $-1 $4 $5 $2 $-1 $6 forward single #
face $-1 $7 $8 $2 $-1 $9 forward single #
loop $-1 $-1 $10 $3 #
plane-surface $-1 0 0 0 0 -1 0 -1 0 0 forward_v I I I I #
face $-1 $11 $12 $2 $-1 $13 forward single #
loop $-1 $-1 $14 $4 #
cone-surface $-1 0 31.5 0 0 -1 0 -8.8999999999999986 0 0 1 I I 0 1 8.8999999999999986 forward I I I I #
coedge $-1 $15 $15 $14 $16 reversed $5 $-1 #
face $-1 $17 $18 $2 $-1 $19 forward single #
loop $-1 $-1 $20 $7 #
cone-surface $-1 0 31.5 0 0 -1 0 -8.8999999999999986 0 0 1 I I 0 1 8.8999999999999986 forward I I I I #
coedge $-1 $21 $22 $10 $16 forward $8 $-1 #
coedge $-1 $10 $10 $23 $24 forward $5 $-1 #
edge $-1 $25 0 $26 3.1415926535897931 $10 $27 forward 7 unknown #
face $-1 $28 $29 $2 $-1 $30 forward single #
loop $-1 $-1 $31 $11 #
cone-surface $-1 0 0.90277777777777501 0 0 -1 0 -0.65454545454545421 0 0 1 I I -0.54765917469438785 0.83670151689420402 0.65454545454545421 forward I I I I #
coedge $-1 $32 $33 $34 $35 forward $12 $-1 #
coedge $-1 $36 $14 $32 $37 forward $8 $-1 #
coedge $-1 $14 $36 $33 $38 reversed $8 $-1 #
coedge $-1 $33 $32 $15 $24 reversed $12 $-1 #
edge $-1 $25 0 $26 3.1415926535897931 $15 $39 forward 7 unknown #
vertex $-1 $24 $40 #
vertex $-1 $24 $41 #
ellipse-curve $-1 0 0 -4.4408920985006262e-016 0 1 0 8.8999999999999986 0 1.5339888647519783e-015 1 I I #
face $-1 $42 $43 $2 $-1 $44 reversed single #
loop $-1 $-1 $45 $17 #
cone-surface $-1 0 31.5 0 0 -1 0 -12.5 0 0 1 I I 0 1 12.5 forward I I I I #
coedge $-1 $46 $47 $48 $49 forward $18 $-1 #
coedge $-1 $23 $20 $21 $37 reversed $12 $-1 #
coedge $-1 $20 $23 $22 $38 forward $12 $-1 #
coedge $-1 $47 $46 $20 $35 reversed $18 $-1 #
edge $-1 $50 -3.9836430007373421e-032 $51 3.1415926535897931 $20 $52 forward 7 unknown #
coedge $-1 $22 $21 $53 $54 reversed $8 $-1 #
edge $-1 $26 0 $51 13.499999999999998 $32 $55 forward 7 unknown #
edge $-1 $25 0 $50 13.5 $33 $56 forward 7 unknown #
ellipse-curve $-1 0 0 0 0 -1 0 8.8999999999999986 0 1.0898996549019157e-015 1 I I #
point $-1 8.8999999999999986 0 1.0898996549019157e-015 #
point $-1 -8.8999999999999986 0 0 #
face $-1 $57 $58 $2 $-1 $59 forward single #
loop $-1 $-1 $60 $28 #
plane-surface $-1 0 30 0 0 -1 0 -1 0 0 forward_v I I I I #
coedge $-1 $61 $62 $60 $63 forward $29 $-1 #
coedge $-1 $34 $31 $64 $65 reversed $18 $-1 #
coedge $-1 $31 $34 $66 $67 forward $18 $-1 #
coedge $-1 $62 $61 $31 $49 reversed $29 $-1 #
edge $-1 $68 -2.0194839173657909e-032 $69 3.1415926535897931 $31 $70 forward 7 unknown #
vertex $-1 $38 $71 #
vertex $-1 $37 $72 #
ellipse-curve $-1 0 13.499999999999998 -1.7763568394002505e-015 0 -1 0 8.8999999999999968 0 2.8662564943021658e-015 1 I I #
coedge $-1 $64 $66 $36 $54 forward $73 $-1 #
edge $-1 $50 0 $51 3.1415926535897931 $36 $74 forward 7 unknown #
straight-curve $-1 -8.8999999999999986 0 -2.1797993098038314e-015 0 1 0 I I #
straight-curve $-1 8.8999999999999986 0 1.0898996549019157e-015 0 1 0 I I #
face $-1 $-1 $73 $2 $-1 $75 forward single #
loop $-1 $-1 $76 $42 #
cone-surface $-1 0 31.5 0 0 -1 0 -12.5 0 0 1 I I 0 1 12.5 forward I I I I #
coedge $-1 $77 $77 $45 $63 reversed $43 $-1 #
coedge $-1 $48 $45 $78 $79 reversed $29 $-1 #
coedge $-1 $45 $48 $80 $81 forward $29 $-1 #
edge $-1 $82 1.2246063538223773e-016 $83 3.1415926535897931 $45 $84 forward 7 unknown #
coedge $-1 $85 $53 $46 $65 forward $73 $-1 #
edge $-1 $51 0 $69 6.5734313718179216 $46 $86 forward 7 unknown #
coedge $-1 $53 $85 $47 $67 reversed $73 $-1 #
edge $-1 $50 2.4591185827002562e-015 $68 6.5734313718179163 $47 $87 forward 7 unknown #
vertex $-1 $67 $88 #
vertex $-1 $65 $89 #
ellipse-curve $-1 0 19 4.4408920985006262e-016 0 -1 0 12.5 0 1.086668732427909e-015 1 I I #
point $-1 8.8999999999999986 13.5 1.0898996549019157e-015 #
point $-1 -8.8999999999999968 13.499999999999998 -2.1797993098038306e-015 #
loop $-1 $-1 $53 $57 #
ellipse-curve $-1 -4.4408920985006262e-016 13.499999999999998 -8.8817841970012523e-016 0 1 0 8.8999999999999968 0 1.9780780746020405e-015 1 I I #
cone-surface $-1 0 0.90277777777777501 0 0 -1 0 -0.65454545454545421 0 0 1 I I -0.54765917469438785 0.83670151689420402 0.65454545454545421 forward I I I I #
coedge $-1 $78 $80 $85 $90 forward $58 $-1 #
coedge $-1 $60 $60 $91 $92 forward $43 $-1 #
coedge $-1 $91 $76 $61 $79 forward $58 $-1 #
edge $-1 $69 0 $83 11 $61 $93 forward 7 unknown #
coedge $-1 $76 $91 $62 $81 reversed $58 $-1 #
edge $-1 $68 -3.5527136788005009e-015 $82 11 $62 $94 forward 7 unknown #
vertex $-1 $81 $95 #
vertex $-1 $79 $96 #
ellipse-curve $-1 0 30 0 0 -1 0 12.5 0 0 1 I I #
coedge $-1 $66 $64 $76 $90 reversed $73 $-1 #
straight-curve $-1 -8.8999999999999968 13.499999999999998 -2.1797993098038306e-015 -0.54765917469438796 0.83670151689420402 -1.3413338101197333e-016 I I #
straight-curve $-1 8.8999999999999968 13.499999999999998 1.0898996549019153e-015 0.54765917469438796 0.83670151689420402 6.7066690505986665e-017 I I #
point $-1 12.499999999999995 18.999999999999996 1.5307579422779708e-015 #
point $-1 -12.5 19 -3.0615158845559431e-015 #
edge $-1 $68 0 $69 3.1415926535897931 $85 $97 forward 7 unknown #
coedge $-1 $80 $78 $77 $92 reversed $58 $-1 #
edge $-1 $82 -1.2246063538223773e-016 $83 3.1415926535897931 $77 $98 forward 7 unknown #
straight-curve $-1 -12.5 19 -3.0615158845559431e-015 0 1 0 I I #
straight-curve $-1 12.5 19 1.5307579422779716e-015 0 1 0 I I #
point $-1 12.5 30 1.5307579422779716e-015 #
point $-1 -12.5 30 0 #
ellipse-curve $-1 0 19 -4.4408920985006262e-016 0 1 0 12.5 0 1.9748471521280342e-015 1 I I #
ellipse-curve $-1 0 30 0 0 1 0 12.5 0 0 1 I I #
End-of-ACIS-data 