700 0 2 0           
24 FBMach with ACIS - 7.0.3 13 ACIS 7.0.3 NT 24 Wed May 15 23:14:53 2002 
1 9.9999999999999995e-007 1e-010 
body $2 -1 $-1 $3 $-1 $4 #
bdycol-kcp $-1 -1 1 2 $5 $6 #
model_id-kcp-attrib $-1 -1 $-1 $-1 $0 1 1021518893 1021518893 -1982267391 1 #
lump $-1 -1 $-1 $-1 $7 $0 #
transform $-1 -1 1 0 0 0 1 0 0 0 1 0 0 0 1 rotate no_reflect no_shear #
body $8 -1 $-1 $9 $-1 $10 #
body $11 -1 $-1 $12 $-1 $13 #
shell $-1 -1 $-1 $-1 $-1 $14 $-1 $3 #
rgb_color-st-attrib $-1 -1 $15 $-1 $5 0.5 1 1 #
lump $-1 -1 $-1 $-1 $16 $5 #
transform $-1 -1 1 0 0 0 1 0 0 0 1 0 15 0 1 no_rotate no_reflect no_shear #
model_id-kcp-attrib $-1 -1 $-1 $-1 $6 1 1021518893 1021518893 -1982267390 1 #
lump $-1 -1 $-1 $-1 $17 $6 #
transform $-1 -1 1 0 0 0 1 0 0 0 1 0 15 0 1 no_rotate no_reflect no_shear #
face $18 -1 $-1 $19 $20 $7 $-1 $21 forward single #
model_id-kcp-attrib $-1 -1 $-1 $8 $5 1 1021518893 1021518893 -1991835645 1 #
shell $-1 -1 $-1 $-1 $-1 $22 $-1 $9 #
shell $-1 -1 $-1 $-1 $-1 $23 $-1 $12 #
model_id-kcp-attrib $-1 -1 $-1 $-1 $14 1 1021518893 1021518893 -1982267391 2 #
face $24 -1 $-1 $25 $26 $7 $-1 $27 forward single #
loop $-1 -1 $-1 $-1 $28 $14 #
plane-surface $-1 -1 $-1 0 0 0 0 -1 0 -1 0 0 forward_v I I I I #
face $-1 -1 $-1 $29 $30 $16 $-1 $31 reversed single #
face $-1 -1 $-1 $32 $33 $17 $-1 $34 forward single #
model_id-kcp-attrib $-1 -1 $-1 $-1 $19 1 1021518893 1021518893 -1982267391 3 #
face $35 -1 $-1 $36 $37 $7 $-1 $38 forward single #
loop $-1 -1 $-1 $-1 $39 $19 #
cone-surface $-1 -1 $-1 0 31.5 0 0 -1 0 -8.8999999999999986 0 0 1 I I 0 1 8.8999999999999986 forward I I I I #
coedge $-1 -1 $-1 $40 $40 $39 $41 reversed $20 $-1 #
face $-1 -1 $-1 $42 $43 $16 $-1 $31 reversed single #
loop $-1 -1 $-1 $-1 $44 $22 #
cone-surface $-1 -1 $-1 0 -15 0 0 -1 0 12.5 0 1.5307579422779716e-015 1 I I 0 1 12.5 forward I I I I #
face $-1 -1 $-1 $45 $46 $17 $-1 $47 reversed single #
loop $-1 -1 $-1 $-1 $48 $23 #
plane-surface $-1 -1 $-1 0 0 12.5 0 0 1 1 0 0 forward_v I I I I #
model_id-kcp-attrib $-1 -1 $-1 $-1 $25 1 1021518893 1021518893 -1982267391 4 #
face $49 -1 $-1 $50 $51 $7 $-1 $52 forward single #
loop $-1 -1 $-1 $-1 $53 $25 #
cone-surface $-1 -1 $-1 0 31.5 0 0 -1 0 -8.8999999999999986 0 0 1 I I 0 1 8.8999999999999986 forward I I I I #
coedge $-1 -1 $-1 $54 $55 $28 $41 forward $26 $-1 #
coedge $-1 -1 $-1 $28 $28 $56 $57 forward $20 $-1 #
edge $58 -1 $-1 $59 0 $60 3.1415926535897931 $28 $61 forward @7 unknown #
face $-1 -1 $-1 $62 $63 $16 $-1 $31 reversed single #
loop $-1 -1 $-1 $-1 $64 $29 #
coedge $-1 -1 $-1 $65 $66 $67 $68 reversed $30 $-1 #
face $69 -1 $-1 $70 $71 $17 $-1 $72 reversed single #
loop $-1 -1 $-1 $-1 $73 $32 #
plane-surface $-1 -1 $-1 0 0 -12.5 0 0 1 1 0 0 forward_v I I I I #
coedge $-1 -1 $-1 $74 $75 $76 $77 forward $33 $-1 #
model_id-kcp-attrib $-1 -1 $-1 $-1 $36 1 1021518893 1021518893 -1982267391 5 #
face $78 -1 $-1 $79 $80 $7 $-1 $81 forward single #
loop $-1 -1 $-1 $-1 $82 $36 #
cone-surface $-1 -1 $-1 0 0.90277777777777501 0 0 -1 0 -0.65454545454545421 0 0 1 I I -0.54765917469438785 0.83670151689420402 0.65454545454545421 forward I I I I #
coedge $-1 -1 $-1 $83 $84 $85 $86 forward $37 $-1 #
coedge $-1 -1 $-1 $87 $39 $83 $88 forward $26 $-1 #
coedge $-1 -1 $-1 $39 $87 $84 $89 reversed $26 $-1 #
coedge $-1 -1 $-1 $84 $83 $40 $57 reversed $37 $-1 #
edge $90 -1 $-1 $59 0 $60 3.1415926535897931 $40 $91 forward @7 unknown #
attrib_edge_convexity-kcp-attrib $-1 -1 $92 $-1 $41 1 #
vertex $-1 -1 $-1 $57 $93 #
vertex $-1 -1 $-1 $57 $94 #
ellipse-curve $-1 -1 $-1 0 0 -4.4408920985006262e-016 0 1 0 8.8999999999999986 0 1.5339888647519783e-015 1 I I #
face $-1 -1 $-1 $95 $96 $16 $-1 $31 reversed single #
loop $-1 -1 $-1 $-1 $97 $42 #
coedge $-1 -1 $-1 $98 $99 $100 $101 reversed $43 $-1 #
coedge $-1 -1 $-1 $102 $44 $103 $104 forward $30 $-1 #
coedge $-1 -1 $-1 $44 $102 $105 $106 reversed $30 $-1 #
coedge $-1 -1 $-1 $107 $108 $44 $68 forward $109 $-1 #
edge $-1 -1 $-1 $110 -1.2246063538223773e-016 $111 1.5707963267948966 $67 $112 forward @7 unknown #
model_id-kcp-attrib $-1 -1 $-1 $-1 $45 1 1021518893 1021518893 -1982267390 2 #
face $-1 -1 $-1 $113 $114 $17 $-1 $115 reversed single #
loop $-1 -1 $-1 $-1 $116 $45 #
plane-surface $-1 -1 $-1 0 -15 0 0 1 0 0 0 1 forward_v I I I I #
coedge $-1 -1 $-1 $117 $118 $119 $120 forward $46 $-1 #
coedge $-1 -1 $-1 $121 $48 $122 $123 forward $33 $-1 #
coedge $-1 -1 $-1 $48 $121 $124 $125 forward $33 $-1 #
coedge $-1 -1 $-1 $126 $127 $48 $77 reversed $128 $-1 #
edge $-1 -1 $-1 $129 -15 $130 15 $76 $131 forward @7 unknown #
model_id-kcp-attrib $-1 -1 $-1 $-1 $50 1 1021518893 1021518893 -1982267391 6 #
face $132 -1 $-1 $133 $134 $7 $-1 $135 reversed single #
loop $-1 -1 $-1 $-1 $136 $50 #
cone-surface $-1 -1 $-1 0 31.5 0 0 -1 0 -12.5 0 0 1 I I 0 1 12.5 forward I I I I #
coedge $-1 -1 $-1 $137 $138 $139 $140 forward $51 $-1 #
coedge $-1 -1 $-1 $56 $53 $54 $88 reversed $37 $-1 #
coedge $-1 -1 $-1 $53 $56 $55 $89 forward $37 $-1 #
coedge $-1 -1 $-1 $138 $137 $53 $86 reversed $51 $-1 #
edge $-1 -1 $-1 $141 -3.9836430007373421e-032 $142 3.1415926535897931 $53 $143 forward @7 unknown #
coedge $-1 -1 $-1 $55 $54 $144 $145 reversed $26 $-1 #
edge $-1 -1 $-1 $60 0 $142 13.499999999999998 $83 $146 forward @7 unknown #
edge $-1 -1 $-1 $59 0 $141 13.5 $84 $147 forward @7 unknown #
attrib_edge_convexity-kcp-attrib $-1 -1 $148 $-1 $57 1 #
ellipse-curve $-1 -1 $-1 0 0 0 0 -1 0 8.8999999999999986 0 1.0898996549019157e-015 1 I I #
convexity-sys-attrib $-1 -1 $-1 $58 $41 #
point $-1 -1 $-1 8.8999999999999986 0 1.0898996549019157e-015 #
point $-1 -1 $-1 -8.8999999999999986 0 0 #
face $-1 -1 $-1 $149 $150 $16 $-1 $151 forward single #
loop $-1 -1 $-1 $-1 $152 $62 #
coedge $-1 -1 $-1 $153 $154 $152 $155 forward $63 $-1 #
coedge $-1 -1 $-1 $156 $64 $157 $158 reversed $43 $-1 #
coedge $-1 -1 $-1 $64 $156 $66 $106 forward $43 $-1 #
coedge $-1 -1 $-1 $159 $160 $64 $101 forward $161 $-1 #
edge $-1 -1 $-1 $162 -3.1415926535897931 $163 -1.5707963267948966 $100 $164 forward @7 unknown #
coedge $-1 -1 $-1 $66 $65 $165 $166 reversed $30 $-1 #
coedge $-1 -1 $-1 $154 $153 $167 $104 reversed $63 $-1 #
edge $-1 -1 $-1 $110 -30 $168 0 $167 $169 forward @7 unknown #
coedge $-1 -1 $-1 $170 $171 $172 $106 forward $173 $-1 #
edge $-1 -1 $-1 $111 -30 $163 0 $105 $174 forward @7 unknown #
coedge $-1 -1 $-1 $108 $67 $171 $175 reversed $109 $-1 #
coedge $-1 -1 $-1 $67 $107 $176 $177 forward $109 $-1 #
loop $-1 -1 $-1 $-1 $67 $178 #
vertex $-1 -1 $-1 $179 $180 #
vertex $-1 -1 $-1 $181 $182 #
ellipse-curve $-1 -1 $-1 0 15 0 0 -1 0 12.5 0 1.5307579422779716e-015 1 I I #
face $183 -1 $-1 $184 $185 $17 $-1 $186 reversed single #
loop $-1 -1 $-1 $-1 $187 $70 #
plane-surface $-1 -1 $-1 -12.5 0 0 1 0 0 0 0 -1 forward_v I I I I #
coedge $-1 -1 $-1 $188 $124 $189 $190 forward $71 $-1 #
coedge $-1 -1 $-1 $191 $73 $188 $192 forward $46 $-1 #
coedge $-1 -1 $-1 $73 $191 $193 $194 forward $46 $-1 #
coedge $-1 -1 $-1 $127 $126 $73 $120 reversed $128 $-1 #
edge $-1 -1 $-1 $195 -15 $196 15 $119 $197 forward @7 unknown #
coedge $-1 -1 $-1 $75 $74 $198 $199 forward $33 $-1 #
coedge $-1 -1 $-1 $200 $201 $74 $123 reversed $185 $-1 #
edge $-1 -1 $-1 $130 -12.5 $202 12.5 $122 $203 forward @7 unknown #
coedge $-1 -1 $-1 $116 $204 $75 $125 reversed $71 $-1 #
edge $-1 -1 $-1 $205 -12.5 $129 12.5 $124 $206 forward @7 unknown #
coedge $-1 -1 $-1 $119 $76 $204 $207 forward $128 $-1 #
coedge $-1 -1 $-1 $76 $119 $200 $208 reversed $128 $-1 #
loop $-1 -1 $-1 $-1 $126 $184 #
vertex $-1 -1 $-1 $77 $209 #
vertex $-1 -1 $-1 $77 $210 #
straight-curve $-1 -1 $-1 12.5 0 12.5 0 1 0 I I #
model_id-kcp-attrib $-1 -1 $-1 $-1 $79 1 1021518893 1021518893 -1982267391 7 #
face $211 -1 $-1 $212 $213 $7 $-1 $214 forward single #
loop $-1 -1 $-1 $-1 $215 $79 #
plane-surface $-1 -1 $-1 0 30 0 0 -1 0 -1 0 0 forward_v I I I I #
coedge $-1 -1 $-1 $216 $217 $215 $218 forward $80 $-1 #
coedge $-1 -1 $-1 $85 $82 $219 $220 reversed $51 $-1 #
coedge $-1 -1 $-1 $82 $85 $221 $222 forward $51 $-1 #
coedge $-1 -1 $-1 $217 $216 $82 $140 reversed $80 $-1 #
edge $-1 -1 $-1 $223 -2.0194839173657909e-032 $224 3.1415926535897931 $82 $225 forward @7 unknown #
vertex $-1 -1 $-1 $89 $226 #
vertex $-1 -1 $-1 $88 $227 #
ellipse-curve $-1 -1 $-1 0 13.499999999999998 -1.7763568394002505e-015 0 -1 0 8.8999999999999968 0 2.8662564943021658e-015 1 I I #
coedge $-1 -1 $-1 $219 $221 $87 $145 forward $228 $-1 #
edge $-1 -1 $-1 $141 0 $142 3.1415926535897931 $87 $229 forward @7 unknown #
straight-curve $-1 -1 $-1 -8.8999999999999986 0 -2.1797993098038314e-015 0 1 0 I I #
straight-curve $-1 -1 $-1 8.8999999999999986 0 1.0898996549019157e-015 0 1 0 I I #
convexity-sys-attrib $-1 -1 $-1 $90 $57 #
face $-1 -1 $-1 $230 $231 $16 $-1 $232 reversed single #
loop $-1 -1 $-1 $-1 $172 $95 #
plane-surface $-1 -1 $-1 0 0 12.5 0 0 1 1 0 0 forward_v I I I I #
coedge $-1 -1 $-1 $233 $234 $235 $155 reversed $96 $-1 #
coedge $-1 -1 $-1 $103 $97 $236 $237 reversed $63 $-1 #
coedge $-1 -1 $-1 $97 $103 $238 $239 reversed $63 $-1 #
edge $-1 -1 $-1 $240 -30 $241 0 $235 $242 forward @7 unknown #
coedge $-1 -1 $-1 $99 $98 $243 $244 reversed $43 $-1 #
coedge $-1 -1 $-1 $245 $246 $247 $158 forward $248 $-1 #
edge $-1 -1 $-1 $249 -30 $162 0 $157 $250 forward @7 unknown #
coedge $-1 -1 $-1 $160 $100 $251 $252 reversed $161 $-1 #
coedge $-1 -1 $-1 $100 $159 $245 $253 forward $161 $-1 #
loop $-1 -1 $-1 $-1 $100 $254 #
vertex $-1 -1 $-1 $255 $256 #
vertex $-1 -1 $-1 $257 $258 #
ellipse-curve $-1 -1 $-1 0 -15 0 0 1 0 12.5 0 1.5307579422779716e-015 1 I I #
coedge $-1 -1 $-1 $259 $260 $102 $166 forward $261 $-1 #
edge $-1 -1 $-1 $163 -1.5707963267948966 $168 1.2246063538223773e-016 $165 $164 forward @7 unknown #
coedge $-1 -1 $-1 $262 $263 $264 $104 forward $231 $-1 #
vertex $-1 -1 $-1 $265 $266 #
straight-curve $-1 -1 $-1 12.5 -15 0 0 -1 0 I I #
coedge $-1 -1 $-1 $267 $105 $260 $257 forward $173 $-1 #
coedge $-1 -1 $-1 $105 $267 $107 $175 forward $173 $-1 #
coedge $-1 -1 $-1 $268 $251 $99 $106 reversed $150 $-1 #
loop $-1 -1 $-1 $-1 $105 $269 #
straight-curve $-1 -1 $-1 0 -15 12.5 0 -1 0 I I #
edge $-1 -1 $-1 $270 -12.5 $111 0 $107 $271 forward @7 unknown #
coedge $-1 -1 $-1 $272 $264 $108 $177 reversed $273 $-1 #
edge $-1 -1 $-1 $270 -12.5 $110 0 $176 $274 forward @7 unknown #
face $-1 -1 $-1 $275 $109 $16 $-1 $276 reversed single #
edge $-1 -1 $-1 $110 0 $277 12.5 $263 $274 forward @7 unknown #
point $-1 -1 $-1 12.5 15 0 #
edge $-1 -1 $-1 $111 0 $278 12.5 $279 $271 forward @7 unknown #
point $-1 -1 $-1 0 15 12.5 #
model_id-kcp-attrib $-1 -1 $-1 $-1 $113 1 1021518893 1021518893 -1982267390 3 #
face $-1 -1 $-1 $-1 $128 $17 $-1 $280 reversed single #
loop $-1 -1 $-1 $-1 $200 $113 #
plane-surface $-1 -1 $-1 0 15 0 0 -1 0 0 0 -1 forward_v I I I I #
coedge $-1 -1 $-1 $281 $198 $201 $282 forward $114 $-1 #
coedge $-1 -1 $-1 $204 $116 $117 $192 reversed $71 $-1 #
coedge $-1 -1 $-1 $198 $281 $116 $190 reversed $114 $-1 #
edge $-1 -1 $-1 $205 -12.5 $283 12.5 $189 $284 forward @7 unknown #
coedge $-1 -1 $-1 $118 $117 $281 $285 forward $46 $-1 #
edge $-1 -1 $-1 $196 -12.5 $283 12.5 $188 $286 forward @7 unknown #
coedge $-1 -1 $-1 $201 $200 $118 $194 reversed $185 $-1 #
edge $-1 -1 $-1 $287 -12.5 $195 12.5 $193 $288 forward @7 unknown #
vertex $-1 -1 $-1 $120 $289 #
vertex $-1 -1 $-1 $207 $290 #
straight-curve $-1 -1 $-1 12.5 0 -12.5 0 -1 0 I I #
coedge $-1 -1 $-1 $187 $189 $121 $199 reversed $114 $-1 #
edge $-1 -1 $-1 $202 -15 $205 15 $198 $291 forward @7 unknown #
coedge $-1 -1 $-1 $193 $122 $127 $208 forward $185 $-1 #
coedge $-1 -1 $-1 $122 $193 $187 $282 reversed $185 $-1 #
vertex $-1 -1 $-1 $123 $292 #
straight-curve $-1 -1 $-1 0 15 12.5 -1 0 0 I I #
coedge $-1 -1 $-1 $124 $188 $126 $207 reversed $71 $-1 #
vertex $-1 -1 $-1 $199 $293 #
straight-curve $-1 -1 $-1 0 -15 12.5 1 0 0 I I #
edge $-1 -1 $-1 $129 -12.5 $196 12.5 $126 $294 forward @7 unknown #
edge $-1 -1 $-1 $130 -12.5 $195 12.5 $127 $295 forward @7 unknown #
point $-1 -1 $-1 12.5 -15 12.5 #
point $-1 -1 $-1 12.5 15 12.5 #
model_id-kcp-attrib $-1 -1 $-1 $-1 $133 1 1021518893 1021518893 -1982267391 8 #
face $296 -1 $-1 $-1 $228 $7 $-1 $297 forward single #
loop $-1 -1 $-1 $-1 $298 $133 #
cone-surface $-1 -1 $-1 0 31.5 0 0 -1 0 -12.5 0 0 1 I I 0 1 12.5 forward I I I I #
coedge $-1 -1 $-1 $299 $299 $136 $218 reversed $134 $-1 #
coedge $-1 -1 $-1 $139 $136 $300 $301 reversed $80 $-1 #
coedge $-1 -1 $-1 $136 $139 $302 $303 forward $80 $-1 #
edge $-1 -1 $-1 $304 1.2246063538223773e-016 $305 3.1415926535897931 $136 $306 forward @7 unknown #
coedge $-1 -1 $-1 $307 $144 $137 $220 forward $228 $-1 #
edge $-1 -1 $-1 $142 0 $224 6.5734313718179216 $137 $308 forward @7 unknown #
coedge $-1 -1 $-1 $144 $307 $138 $222 reversed $228 $-1 #
edge $-1 -1 $-1 $141 2.4591185827002562e-015 $223 6.5734313718179163 $138 $309 forward @7 unknown #
vertex $-1 -1 $-1 $222 $310 #
vertex $-1 -1 $-1 $220 $311 #
ellipse-curve $-1 -1 $-1 0 19 4.4408920985006262e-016 0 -1 0 12.5 0 1.086668732427909e-015 1 I I #
point $-1 -1 $-1 8.8999999999999986 13.5 1.0898996549019157e-015 #
point $-1 -1 $-1 -8.8999999999999968 13.499999999999998 -2.1797993098038306e-015 #
loop $-1 -1 $-1 $-1 $144 $212 #
ellipse-curve $-1 -1 $-1 -4.4408920985006262e-016 13.499999999999998 -8.8817841970012523e-016 0 1 0 8.8999999999999968 0 1.9780780746020405e-015 1 I I #
face $-1 -1 $-1 $312 $313 $16 $-1 $314 reversed single #
loop $-1 -1 $-1 $-1 $167 $149 #
plane-surface $-1 -1 $-1 12.5 0 0 -1 0 0 0 0 1 forward_v I I I I #
coedge $-1 -1 $-1 $315 $152 $316 $317 reversed $96 $-1 #
coedge $-1 -1 $-1 $152 $315 $318 $319 reversed $96 $-1 #
coedge $-1 -1 $-1 $320 $321 $322 $155 forward $323 $-1 #
coedge $-1 -1 $-1 $324 $325 $153 $237 forward $326 $-1 #
edge $-1 -1 $-1 $168 1.2246063538223773e-016 $241 1.5707963267948968 $236 $164 forward @7 unknown #
coedge $-1 -1 $-1 $327 $328 $154 $239 forward $329 $-1 #
edge $-1 -1 $-1 $240 -1.5707963267948968 $110 -1.2246063538223773e-016 $238 $112 forward @7 unknown #
vertex $-1 -1 $-1 $330 $331 #
vertex $-1 -1 $-1 $332 $333 #
straight-curve $-1 -1 $-1 0 -15 -12.5 0 -1 0 I I #
coedge $-1 -1 $-1 $334 $279 $156 $244 forward $335 $-1 #
edge $-1 -1 $-1 $111 1.5707963267948966 $249 3.1415926535897931 $243 $112 forward @7 unknown #
coedge $-1 -1 $-1 $336 $157 $160 $253 reversed $248 $-1 #
coedge $-1 -1 $-1 $157 $336 $334 $337 forward $248 $-1 #
coedge $-1 -1 $-1 $338 $339 $315 $158 reversed $313 $-1 #
loop $-1 -1 $-1 $-1 $157 $340 #
vertex $-1 -1 $-1 $341 $342 #
straight-curve $-1 -1 $-1 -12.5 -15 0 0 -1 0 I I #
coedge $-1 -1 $-1 $172 $343 $159 $252 forward $150 $-1 #
edge $-1 -1 $-1 $344 -12.5 $163 0 $159 $345 forward @7 unknown #
edge $-1 -1 $-1 $344 -12.5 $162 0 $245 $346 forward @7 unknown #
face $-1 -1 $-1 $347 $161 $16 $-1 $348 reversed single #
edge $-1 -1 $-1 $162 0 $349 12.5 $339 $346 forward @7 unknown #
point $-1 -1 $-1 -12.5 -15 0 #
edge $-1 -1 $-1 $163 0 $350 12.5 $260 $345 forward @7 unknown #
point $-1 -1 $-1 0 -15 12.5 #
coedge $-1 -1 $-1 $260 $165 $351 $352 reversed $261 $-1 #
coedge $-1 -1 $-1 $165 $259 $170 $257 reversed $261 $-1 #
loop $-1 -1 $-1 $-1 $165 $347 #
coedge $-1 -1 $-1 $353 $167 $325 $265 forward $231 $-1 #
coedge $-1 -1 $-1 $167 $353 $327 $179 reversed $231 $-1 #
coedge $-1 -1 $-1 $176 $351 $65 $104 reversed $273 $-1 #
edge $-1 -1 $-1 $168 0 $354 12.5 $262 $355 forward @7 unknown #
point $-1 -1 $-1 12.5 -15 0 #
coedge $-1 -1 $-1 $171 $170 $272 $356 forward $173 $-1 #
coedge $-1 -1 $-1 $343 $172 $279 $181 forward $150 $-1 #
face $-1 -1 $-1 $357 $173 $16 $-1 $151 forward single #
vertex $-1 -1 $-1 $356 $358 #
straight-curve $-1 -1 $-1 0 15 12.5 -1 0 0 I I #
coedge $-1 -1 $-1 $351 $176 $267 $356 reversed $273 $-1 #
loop $-1 -1 $-1 $-1 $264 $359 #
straight-curve $-1 -1 $-1 12.5 15 0 0 0 -1 I I #
face $-1 -1 $-1 $360 $335 $16 $-1 $276 reversed single #
plane-surface $-1 -1 $-1 0 15 0 0 -1 0 0 0 -1 forward_v I I I I #
vertex $-1 -1 $-1 $361 $362 #
vertex $-1 -1 $-1 $181 $363 #
coedge $-1 -1 $-1 $243 $334 $268 $181 reversed $335 $-1 #
plane-surface $-1 -1 $-1 12.5 0 0 -1 0 0 0 0 1 forward_v I I I I #
coedge $-1 -1 $-1 $189 $187 $191 $285 reversed $114 $-1 #
edge $-1 -1 $-1 $202 -12.5 $287 12.5 $201 $364 forward @7 unknown #
vertex $-1 -1 $-1 $285 $365 #
straight-curve $-1 -1 $-1 -12.5 -15 0 0 0 -1 I I #
edge $-1 -1 $-1 $283 -15 $287 15 $281 $366 forward @7 unknown #
straight-curve $-1 -1 $-1 0 -15 -12.5 -1 0 0 I I #
vertex $-1 -1 $-1 $194 $367 #
straight-curve $-1 -1 $-1 0 15 -12.5 1 0 0 I I #
point $-1 -1 $-1 12.5 15 -12.5 #
point $-1 -1 $-1 12.5 -15 -12.5 #
straight-curve $-1 -1 $-1 -12.5 0 12.5 0 -1 0 I I #
point $-1 -1 $-1 -12.5 15 12.5 #
point $-1 -1 $-1 -12.5 -15 12.5 #
straight-curve $-1 -1 $-1 12.5 -15 0 0 0 -1 I I #
straight-curve $-1 -1 $-1 12.5 15 0 0 0 -1 I I #
model_id-kcp-attrib $-1 -1 $-1 $-1 $212 1 1021518893 1021518893 -1982267391 9 #
cone-surface $-1 -1 $-1 0 0.90277777777777501 0 0 -1 0 -0.65454545454545421 0 0 1 I I -0.54765917469438785 0.83670151689420402 0.65454545454545421 forward I I I I #
coedge $-1 -1 $-1 $300 $302 $307 $368 forward $213 $-1 #
coedge $-1 -1 $-1 $215 $215 $369 $370 forward $134 $-1 #
coedge $-1 -1 $-1 $369 $298 $216 $301 forward $213 $-1 #
edge $-1 -1 $-1 $224 0 $305 11 $216 $371 forward @7 unknown #
coedge $-1 -1 $-1 $298 $369 $217 $303 reversed $213 $-1 #
edge $-1 -1 $-1 $223 -3.5527136788005009e-015 $304 11 $217 $372 forward @7 unknown #
vertex $-1 -1 $-1 $303 $373 #
vertex $-1 -1 $-1 $301 $374 #
ellipse-curve $-1 -1 $-1 0 30 0 0 -1 0 12.5 0 0 1 I I #
coedge $-1 -1 $-1 $221 $219 $298 $368 reversed $228 $-1 #
straight-curve $-1 -1 $-1 -8.8999999999999968 13.499999999999998 -2.1797993098038306e-015 -0.54765917469438796 0.83670151689420402 -1.3413338101197333e-016 I I #
straight-curve $-1 -1 $-1 8.8999999999999968 13.499999999999998 1.0898996549019153e-015 0.54765917469438796 0.83670151689420402 6.7066690505986665e-017 I I #
point $-1 -1 $-1 12.499999999999995 18.999999999999996 1.5307579422779708e-015 #
point $-1 -1 $-1 -12.5 19 -3.0615158845559431e-015 #
face $-1 -1 $-1 $254 $375 $16 $-1 $348 reversed single #
loop $-1 -1 $-1 $-1 $247 $230 #
plane-surface $-1 -1 $-1 -12.5 0 0 1 0 0 0 0 -1 forward_v I I I I #
coedge $-1 -1 $-1 $234 $233 $98 $158 forward $96 $-1 #
coedge $-1 -1 $-1 $376 $377 $233 $317 forward $378 $-1 #
edge $-1 -1 $-1 $249 -3.1415926535897931 $240 -1.5707963267948968 $316 $112 forward @7 unknown #
coedge $-1 -1 $-1 $379 $380 $234 $319 forward $375 $-1 #
edge $-1 -1 $-1 $241 1.5707963267948968 $162 3.1415926535897931 $318 $164 forward @7 unknown #
coedge $-1 -1 $-1 $381 $235 $380 $332 forward $323 $-1 #
coedge $-1 -1 $-1 $235 $381 $376 $382 forward $323 $-1 #
coedge $-1 -1 $-1 $383 $384 $97 $155 reversed $385 $-1 #
loop $-1 -1 $-1 $-1 $235 $357 #
coedge $-1 -1 $-1 $325 $236 $384 $386 reversed $326 $-1 #
coedge $-1 -1 $-1 $236 $324 $262 $265 reversed $326 $-1 #
loop $-1 -1 $-1 $-1 $236 $387 #
coedge $-1 -1 $-1 $328 $238 $263 $179 forward $329 $-1 #
coedge $-1 -1 $-1 $238 $327 $383 $330 reversed $329 $-1 #
loop $-1 -1 $-1 $-1 $238 $388 #
edge $-1 -1 $-1 $240 0 $277 12.5 $328 $389 forward @7 unknown #
point $-1 -1 $-1 0 15 -12.5 #
edge $-1 -1 $-1 $241 0 $349 12.5 $380 $390 forward @7 unknown #
point $-1 -1 $-1 0 -15 -12.5 #
coedge $-1 -1 $-1 $279 $243 $246 $337 reversed $335 $-1 #
loop $-1 -1 $-1 $-1 $243 $275 #
coedge $-1 -1 $-1 $246 $245 $343 $391 reversed $248 $-1 #
edge $-1 -1 $-1 $278 -12.5 $249 0 $334 $392 forward @7 unknown #
coedge $-1 -1 $-1 $393 $247 $377 $341 forward $313 $-1 #
coedge $-1 -1 $-1 $247 $393 $379 $255 reversed $313 $-1 #
face $-1 -1 $-1 $359 $248 $16 $-1 $314 reversed single #
edge $-1 -1 $-1 $249 0 $394 12.5 $377 $392 forward @7 unknown #
point $-1 -1 $-1 -12.5 15 0 #
coedge $-1 -1 $-1 $251 $268 $336 $391 forward $150 $-1 #
vertex $-1 -1 $-1 $391 $395 #
straight-curve $-1 -1 $-1 0 -15 12.5 1 0 0 I I #
straight-curve $-1 -1 $-1 -12.5 -15 0 0 0 -1 I I #
face $-1 -1 $-1 $387 $261 $16 $-1 $348 reversed single #
plane-surface $-1 -1 $-1 0 -15 0 0 1 0 0 0 1 forward_v I I I I #
vertex $-1 -1 $-1 $396 $397 #
vertex $-1 -1 $-1 $356 $398 #
coedge $-1 -1 $-1 $264 $272 $259 $352 forward $273 $-1 #
edge $-1 -1 $-1 $350 -12.5 $168 0 $351 $355 forward @7 unknown #
coedge $-1 -1 $-1 $263 $262 $399 $361 reversed $231 $-1 #
vertex $-1 -1 $-1 $265 $400 #
straight-curve $-1 -1 $-1 12.5 -15 0 0 0 -1 I I #
edge $-1 -1 $-1 $350 -15 $270 15 $272 $401 forward @7 unknown #
face $-1 -1 $-1 $340 $323 $16 $-1 $402 reversed single #
point $-1 -1 $-1 12.5 15 12.5 #
face $-1 -1 $-1 $-1 $273 $16 $-1 $232 reversed single #
face $-1 -1 $-1 $403 $378 $16 $-1 $276 reversed single #
edge $-1 -1 $-1 $277 -15 $354 15 $353 $404 forward @7 unknown #
point $-1 -1 $-1 12.5 15 -12.5 #
point $-1 -1 $-1 -12.5 15 12.5 #
straight-curve $-1 -1 $-1 -12.5 15 0 0 0 -1 I I #
point $-1 -1 $-1 -12.5 -15 -12.5 #
straight-curve $-1 -1 $-1 -12.5 0 -12.5 0 1 0 I I #
point $-1 -1 $-1 -12.5 15 -12.5 #
edge $-1 -1 $-1 $223 0 $224 3.1415926535897931 $307 $405 forward @7 unknown #
coedge $-1 -1 $-1 $302 $300 $299 $370 reversed $213 $-1 #
edge $-1 -1 $-1 $304 -1.2246063538223773e-016 $305 3.1415926535897931 $299 $406 forward @7 unknown #
straight-curve $-1 -1 $-1 -12.5 19 -3.0615158845559431e-015 0 1 0 I I #
straight-curve $-1 -1 $-1 12.5 19 1.5307579422779716e-015 0 1 0 I I #
point $-1 -1 $-1 12.5 30 1.5307579422779716e-015 #
point $-1 -1 $-1 -12.5 30 0 #
loop $-1 -1 $-1 $-1 $318 $312 #
coedge $-1 -1 $-1 $377 $316 $321 $382 reversed $378 $-1 #
coedge $-1 -1 $-1 $316 $376 $338 $341 reversed $378 $-1 #
loop $-1 -1 $-1 $-1 $316 $360 #
coedge $-1 -1 $-1 $380 $318 $339 $255 forward $375 $-1 #
coedge $-1 -1 $-1 $318 $379 $320 $332 reversed $375 $-1 #
coedge $-1 -1 $-1 $321 $320 $393 $396 forward $323 $-1 #
edge $-1 -1 $-1 $394 -12.5 $240 0 $376 $389 forward @7 unknown #
coedge $-1 -1 $-1 $399 $322 $328 $330 forward $385 $-1 #
coedge $-1 -1 $-1 $322 $399 $324 $386 forward $385 $-1 #
loop $-1 -1 $-1 $-1 $322 $403 #
edge $-1 -1 $-1 $354 -12.5 $241 0 $324 $390 forward @7 unknown #
face $-1 -1 $-1 $388 $326 $16 $-1 $348 reversed single #
face $-1 -1 $-1 $178 $329 $16 $-1 $276 reversed single #
straight-curve $-1 -1 $-1 0 15 -12.5 1 0 0 I I #
straight-curve $-1 -1 $-1 0 -15 -12.5 -1 0 0 I I #
edge $-1 -1 $-1 $278 -15 $344 15 $336 $407 forward @7 unknown #
straight-curve $-1 -1 $-1 -12.5 15 0 0 0 -1 I I #
coedge $-1 -1 $-1 $339 $338 $381 $396 reversed $313 $-1 #
vertex $-1 -1 $-1 $382 $408 #
point $-1 -1 $-1 -12.5 -15 12.5 #
edge $-1 -1 $-1 $349 -15 $394 15 $393 $409 forward @7 unknown #
point $-1 -1 $-1 -12.5 -15 -12.5 #
point $-1 -1 $-1 12.5 -15 12.5 #
coedge $-1 -1 $-1 $384 $383 $353 $361 forward $385 $-1 #
point $-1 -1 $-1 12.5 -15 -12.5 #
straight-curve $-1 -1 $-1 12.5 0 12.5 0 1 0 I I #
plane-surface $-1 -1 $-1 0 0 -12.5 0 0 1 1 0 0 forward_v I I I I #
face $-1 -1 $-1 $269 $385 $16 $-1 $402 reversed single #
straight-curve $-1 -1 $-1 12.5 0 -12.5 0 -1 0 I I #
ellipse-curve $-1 -1 $-1 0 19 -4.4408920985006262e-016 0 1 0 12.5 0 1.9748471521280342e-015 1 I I #
ellipse-curve $-1 -1 $-1 0 30 0 0 1 0 12.5 0 0 1 I I #
straight-curve $-1 -1 $-1 -12.5 0 12.5 0 -1 0 I I #
point $-1 -1 $-1 -12.5 15 -12.5 #
straight-curve $-1 -1 $-1 -12.5 0 -12.5 0 1 0 I I #
End-of-ACIS-data 