600 0 1 0           
82 GICL ACIS Healer - Source: /gicl/data5/repository/PTC/V18/cmm18/paa1.prt.sat - 6 0 18 ACIS 6.0.3 Solaris 24 Sat Apr 13 22:22:44 2002 
1 9.999999999999999547e-07 1.000000000000000036e-10 
body $-1 $1 $-1 $-1 #
lump $-1 $-1 $2 $0 #
shell $-1 $-1 $-1 $3 $-1 $1 #
face $-1 $4 $5 $2 $-1 $6 forward single #
face $-1 $7 $8 $2 $-1 $9 forward single #
loop $-1 $-1 $10 $3 #
plane-surface $-1 0 0 0 0 -1 0 -1 0 0 forward_v I I I I #
face $-1 $11 $12 $2 $-1 $13 forward single #
loop $-1 $-1 $14 $4 #
cone-surface $-1 0 31.5 0 0 -1 0 -8.899999999999998579 0 0 1 I I 0 1 8.899999999999998579 forward I I I I #
coedge $-1 $15 $15 $14 $16 reversed $5 $-1 #
face $-1 $17 $18 $2 $-1 $19 forward single #
loop $-1 $-1 $20 $7 #
cone-surface $-1 0 31.5 0 0 -1 0 -8.899999999999998579 0 0 1 I I 0 1 8.899999999999998579 forward I I I I #
coedge $-1 $21 $22 $10 $16 forward $8 $-1 #
coedge $-1 $10 $10 $23 $24 forward $5 $-1 #
edge $-1 $25 0 $26 3.141592653589793116 $10 $27 forward 7 unknown #
face $-1 $28 $29 $2 $-1 $30 forward single #
loop $-1 $-1 $31 $11 #
cone-surface $-1 0 0.9027777777777750146 0 0 -1 0 -0.6545454545454542084 0 0 1 I I -0.5476591746943878514 0.8367015168942040226 0.6545454545454542084 forward I I I I #
coedge $-1 $32 $33 $34 $35 forward $12 $-1 #
coedge $-1 $36 $14 $32 $37 forward $8 $-1 #
coedge $-1 $14 $36 $33 $38 reversed $8 $-1 #
coedge $-1 $33 $32 $15 $24 reversed $12 $-1 #
edge $-1 $25 0 $26 3.141592653589793116 $15 $39 forward 7 unknown #
vertex $-1 $24 $40 #
vertex $-1 $24 $41 #
ellipse-curve $-1 0 0 -4.440892098500626162e-16 0 1 0 8.899999999999998579 0 1.533988864751978297e-15 1 I I #
face $-1 $42 $43 $2 $-1 $44 reversed single #
loop $-1 $-1 $45 $17 #
cone-surface $-1 0 31.5 0 0 -1 0 -12.5 0 0 1 I I 0 1 12.5 forward I I I I #
coedge $-1 $46 $47 $48 $49 forward $18 $-1 #
coedge $-1 $23 $20 $21 $37 reversed $12 $-1 #
coedge $-1 $20 $23 $22 $38 forward $12 $-1 #
coedge $-1 $47 $46 $20 $35 reversed $18 $-1 #
edge $-1 $50 -3.983643000737342114e-32 $51 3.141592653589793116 $20 $52 forward 7 unknown #
coedge $-1 $22 $21 $53 $54 reversed $8 $-1 #
edge $-1 $26 0 $51 13.49999999999999822 $32 $55 forward 7 unknown #
edge $-1 $25 0 $50 13.5 $33 $56 forward 7 unknown #
ellipse-curve $-1 0 0 0 0 -1 0 8.899999999999998579 0 1.089899654901915681e-15 1 I I #
point $-1 8.899999999999998579 0 1.089899654901915681e-15 #
point $-1 -8.899999999999998579 0 0 #
face $-1 $57 $58 $2 $-1 $59 forward single #
loop $-1 $-1 $60 $28 #
plane-surface $-1 0 30 0 0 -1 0 -1 0 0 forward_v I I I I #
coedge $-1 $61 $62 $60 $63 forward $29 $-1 #
coedge $-1 $34 $31 $64 $65 reversed $18 $-1 #
coedge $-1 $31 $34 $66 $67 forward $18 $-1 #
coedge $-1 $62 $61 $31 $49 reversed $29 $-1 #
edge $-1 $68 -2.019483917365790866e-32 $69 3.141592653589793116 $31 $70 forward 7 unknown #
vertex $-1 $38 $71 #
vertex $-1 $37 $72 #
ellipse-curve $-1 0 13.49999999999999822 -1.776356839400250465e-15 0 -1 0 8.899999999999996803 0 2.866256494302165751e-15 1 I I #
coedge $-1 $64 $66 $36 $54 forward $73 $-1 #
edge $-1 $50 0 $51 3.141592653589793116 $36 $74 forward 7 unknown #
straight-curve $-1 -8.899999999999998579 0 -2.179799309803831362e-15 0 1 0 I I #
straight-curve $-1 8.899999999999998579 0 1.089899654901915681e-15 0 1 0 I I #
face $-1 $-1 $73 $2 $-1 $75 forward single #
loop $-1 $-1 $76 $42 #
cone-surface $-1 0 31.5 0 0 -1 0 -12.5 0 0 1 I I 0 1 12.5 forward I I I I #
coedge $-1 $77 $77 $45 $63 reversed $43 $-1 #
coedge $-1 $48 $45 $78 $79 reversed $29 $-1 #
coedge $-1 $45 $48 $80 $81 forward $29 $-1 #
edge $-1 $82 1.224606353822377258e-16 $83 3.141592653589793116 $45 $84 forward 7 unknown #
coedge $-1 $85 $53 $46 $65 forward $73 $-1 #
edge $-1 $51 0 $69 6.573431371817921587 $46 $86 forward 7 unknown #
coedge $-1 $53 $85 $47 $67 reversed $73 $-1 #
edge $-1 $50 2.459118582700256157e-15 $68 6.573431371817916258 $47 $87 forward 7 unknown #
vertex $-1 $67 $88 #
vertex $-1 $65 $89 #
ellipse-curve $-1 0 19 4.440892098500626162e-16 0 -1 0 12.5 0 1.086668732427908957e-15 1 I I #
point $-1 8.899999999999998579 13.5 1.089899654901915681e-15 #
point $-1 -8.899999999999996803 13.49999999999999822 -2.179799309803830573e-15 #
loop $-1 $-1 $53 $57 #
ellipse-curve $-1 -4.440892098500626162e-16 13.49999999999999822 -8.881784197001252323e-16 0 1 0 8.899999999999996803 0 1.978078074602040519e-15 1 I I #
cone-surface $-1 0 0.9027777777777750146 0 0 -1 0 -0.6545454545454542084 0 0 1 I I -0.5476591746943878514 0.8367015168942040226 0.6545454545454542084 forward I I I I #
coedge $-1 $78 $80 $85 $90 forward $58 $-1 #
coedge $-1 $60 $60 $91 $92 forward $43 $-1 #
coedge $-1 $91 $76 $61 $79 forward $58 $-1 #
edge $-1 $69 0 $83 11 $61 $93 forward 7 unknown #
coedge $-1 $76 $91 $62 $81 reversed $58 $-1 #
edge $-1 $68 -3.552713678800500929e-15 $82 11 $62 $94 forward 7 unknown #
vertex $-1 $81 $95 #
vertex $-1 $79 $96 #
ellipse-curve $-1 0 30 0 0 -1 0 12.5 0 0 1 I I #
coedge $-1 $66 $64 $76 $90 reversed $73 $-1 #
straight-curve $-1 -8.899999999999996803 13.49999999999999822 -2.179799309803830573e-15 -0.5476591746943879624 0.8367015168942040226 -1.341333810119733308e-16 I I #
straight-curve $-1 8.899999999999996803 13.49999999999999822 1.089899654901915286e-15 0.5476591746943879624 0.8367015168942040226 6.70666905059866654e-17 I I #
point $-1 12.49999999999999467 18.99999999999999645 1.530757942277970784e-15 #
point $-1 -12.5 19 -3.061515884555943146e-15 #
edge $-1 $68 0 $69 3.141592653589793116 $85 $97 forward 7 unknown #
coedge $-1 $80 $78 $77 $92 reversed $58 $-1 #
edge $-1 $82 -1.224606353822377258e-16 $83 3.141592653589793116 $77 $98 forward 7 unknown #
straight-curve $-1 -12.5 19 -3.061515884555943146e-15 0 1 0 I I #
straight-curve $-1 12.5 19 1.530757942277971573e-15 0 1 0 I I #
point $-1 12.5 30 1.530757942277971573e-15 #
point $-1 -12.5 30 0 #
ellipse-curve $-1 0 19 -4.440892098500626162e-16 0 1 0 12.5 0 1.974847152128034189e-15 1 I I #
ellipse-curve $-1 0 30 0 0 1 0 12.5 0 0 1 I I #
End-of-ACIS-data 