700 0 2 0           
24 FBMach with ACIS - 7.0.3 13 ACIS 7.0.3 NT 24 Wed May 15 22:14:42 2002 
1 9.9999999999999995e-007 1e-010 
body $2 -1 $-1 $3 $-1 $4 #
bdycol-kcp $-1 -1 1 2 $5 $6 #
model_id-kcp-attrib $-1 -1 $-1 $-1 $0 1 1021515282 1021515282 -956104703 1 #
lump $-1 -1 $-1 $-1 $7 $0 #
transform $-1 -1 1 0 0 0 1 0 0 0 1 0 0 0 1 rotate no_reflect no_shear #
body $8 -1 $-1 $9 $-1 $10 #
body $11 -1 $-1 $12 $-1 $13 #
shell $-1 -1 $-1 $-1 $-1 $14 $-1 $3 #
model_id-kcp-attrib $-1 -1 $-1 $-1 $5 1 1021515282 1021515282 -956104702 1 #
lump $-1 -1 $-1 $-1 $15 $5 #
transform $-1 -1 1 0 0 0 1 0 0 0 1 0 15 0 1 no_rotate no_reflect no_shear #
rgb_color-st-attrib $-1 -1 $16 $-1 $6 0.5 1 1 #
lump $-1 -1 $-1 $-1 $17 $6 #
transform $-1 -1 1 0 0 0 1 0 0 0 1 0 15 0 1 no_rotate no_reflect no_shear #
face $18 -1 $-1 $19 $20 $7 $-1 $21 forward single #
shell $-1 -1 $-1 $-1 $-1 $22 $-1 $9 #
model_id-kcp-attrib $-1 -1 $-1 $11 $6 1 1021515282 1021515282 -948895741 1 #
shell $-1 -1 $-1 $-1 $-1 $23 $-1 $12 #
model_id-kcp-attrib $-1 -1 $-1 $-1 $14 1 1021515282 1021515282 -956104703 2 #
face $24 -1 $-1 $25 $26 $7 $-1 $27 forward single #
loop $-1 -1 $-1 $-1 $28 $14 #
plane-surface $-1 -1 $-1 0 0 0 0 -1 0 -1 0 0 forward_v I I I I #
face $-1 -1 $-1 $29 $30 $15 $-1 $31 forward single #
face $-1 -1 $-1 $32 $33 $17 $-1 $34 reversed single #
model_id-kcp-attrib $-1 -1 $-1 $-1 $19 1 1021515282 1021515282 -956104703 3 #
face $35 -1 $-1 $36 $37 $7 $-1 $38 forward single #
loop $-1 -1 $-1 $-1 $39 $19 #
cone-surface $-1 -1 $-1 0 31.5 0 0 -1 0 -8.8999999999999986 0 0 1 I I 0 1 8.8999999999999986 forward I I I I #
coedge $-1 -1 $-1 $40 $40 $39 $41 reversed $20 $-1 #
face $-1 -1 $-1 $42 $43 $15 $-1 $44 reversed single #
loop $-1 -1 $-1 $-1 $45 $22 #
plane-surface $-1 -1 $-1 0 0 12.5 0 0 1 1 0 0 forward_v I I I I #
face $-1 -1 $-1 $46 $47 $17 $-1 $34 reversed single #
loop $-1 -1 $-1 $-1 $48 $23 #
cone-surface $-1 -1 $-1 0 -15 0 0 -1 0 12.5 0 1.5307579422779716e-015 1 I I 0 1 12.5 forward I I I I #
model_id-kcp-attrib $-1 -1 $-1 $-1 $25 1 1021515282 1021515282 -956104703 4 #
face $49 -1 $-1 $50 $51 $7 $-1 $52 forward single #
loop $-1 -1 $-1 $-1 $53 $25 #
cone-surface $-1 -1 $-1 0 31.5 0 0 -1 0 -8.8999999999999986 0 0 1 I I 0 1 8.8999999999999986 forward I I I I #
coedge $-1 -1 $-1 $54 $55 $28 $41 forward $26 $-1 #
coedge $-1 -1 $-1 $28 $28 $56 $57 forward $20 $-1 #
edge $58 -1 $-1 $59 0 $60 3.1415926535897931 $28 $61 forward @7 unknown #
face $62 -1 $-1 $63 $64 $15 $-1 $65 reversed single #
loop $-1 -1 $-1 $-1 $66 $29 #
plane-surface $-1 -1 $-1 0 0 -12.5 0 0 1 1 0 0 forward_v I I I I #
coedge $-1 -1 $-1 $67 $68 $69 $70 forward $30 $-1 #
face $-1 -1 $-1 $71 $72 $17 $-1 $34 reversed single #
loop $-1 -1 $-1 $-1 $73 $32 #
coedge $-1 -1 $-1 $74 $75 $76 $77 reversed $33 $-1 #
model_id-kcp-attrib $-1 -1 $-1 $-1 $36 1 1021515282 1021515282 -956104703 5 #
face $78 -1 $-1 $79 $80 $7 $-1 $81 forward single #
loop $-1 -1 $-1 $-1 $82 $36 #
cone-surface $-1 -1 $-1 0 0.90277777777777501 0 0 -1 0 -0.65454545454545421 0 0 1 I I -0.54765917469438785 0.83670151689420402 0.65454545454545421 forward I I I I #
coedge $-1 -1 $-1 $83 $84 $85 $86 forward $37 $-1 #
coedge $-1 -1 $-1 $87 $39 $83 $88 forward $26 $-1 #
coedge $-1 -1 $-1 $39 $87 $84 $89 reversed $26 $-1 #
coedge $-1 -1 $-1 $84 $83 $40 $57 reversed $37 $-1 #
edge $90 -1 $-1 $59 0 $60 3.1415926535897931 $40 $91 forward @7 unknown #
attrib_edge_convexity-kcp-attrib $-1 -1 $92 $-1 $41 1 #
vertex $-1 -1 $-1 $57 $93 #
vertex $-1 -1 $-1 $57 $94 #
ellipse-curve $-1 -1 $-1 0 0 -4.4408920985006262e-016 0 1 0 8.8999999999999986 0 1.5339888647519783e-015 1 I I #
model_id-kcp-attrib $-1 -1 $-1 $-1 $42 1 1021515282 1021515282 -956104702 2 #
face $-1 -1 $-1 $95 $96 $15 $-1 $97 reversed single #
loop $-1 -1 $-1 $-1 $98 $42 #
plane-surface $-1 -1 $-1 0 -15 0 0 1 0 0 0 1 forward_v I I I I #
coedge $-1 -1 $-1 $99 $100 $101 $102 forward $43 $-1 #
coedge $-1 -1 $-1 $103 $45 $104 $105 forward $30 $-1 #
coedge $-1 -1 $-1 $45 $103 $106 $107 forward $30 $-1 #
coedge $-1 -1 $-1 $108 $109 $45 $70 reversed $110 $-1 #
edge $-1 -1 $-1 $111 -15 $112 15 $69 $113 forward @7 unknown #
face $-1 -1 $-1 $114 $115 $17 $-1 $34 reversed single #
loop $-1 -1 $-1 $-1 $116 $46 #
coedge $-1 -1 $-1 $117 $118 $119 $120 reversed $47 $-1 #
coedge $-1 -1 $-1 $121 $48 $122 $123 forward $33 $-1 #
coedge $-1 -1 $-1 $48 $121 $124 $125 reversed $33 $-1 #
coedge $-1 -1 $-1 $126 $127 $48 $77 forward $128 $-1 #
edge $-1 -1 $-1 $129 -1.2246063538223773e-016 $130 1.5707963267948966 $76 $131 forward @7 unknown #
model_id-kcp-attrib $-1 -1 $-1 $-1 $50 1 1021515282 1021515282 -956104703 6 #
face $132 -1 $-1 $133 $134 $7 $-1 $135 reversed single #
loop $-1 -1 $-1 $-1 $136 $50 #
cone-surface $-1 -1 $-1 0 31.5 0 0 -1 0 -12.5 0 0 1 I I 0 1 12.5 forward I I I I #
coedge $-1 -1 $-1 $137 $138 $139 $140 forward $51 $-1 #
coedge $-1 -1 $-1 $56 $53 $54 $88 reversed $37 $-1 #
coedge $-1 -1 $-1 $53 $56 $55 $89 forward $37 $-1 #
coedge $-1 -1 $-1 $138 $137 $53 $86 reversed $51 $-1 #
edge $-1 -1 $-1 $141 -3.9836430007373421e-032 $142 3.1415926535897931 $53 $143 forward @7 unknown #
coedge $-1 -1 $-1 $55 $54 $144 $145 reversed $26 $-1 #
edge $-1 -1 $-1 $60 0 $142 13.499999999999998 $83 $146 forward @7 unknown #
edge $-1 -1 $-1 $59 0 $141 13.5 $84 $147 forward @7 unknown #
attrib_edge_convexity-kcp-attrib $-1 -1 $148 $-1 $57 1 #
ellipse-curve $-1 -1 $-1 0 0 0 0 -1 0 8.8999999999999986 0 1.0898996549019157e-015 1 I I #
convexity-sys-attrib $-1 -1 $-1 $58 $41 #
point $-1 -1 $-1 8.8999999999999986 0 1.0898996549019157e-015 #
point $-1 -1 $-1 -8.8999999999999986 0 0 #
face $149 -1 $-1 $150 $151 $15 $-1 $152 reversed single #
loop $-1 -1 $-1 $-1 $153 $63 #
plane-surface $-1 -1 $-1 -12.5 0 0 1 0 0 0 0 -1 forward_v I I I I #
coedge $-1 -1 $-1 $154 $106 $155 $156 forward $64 $-1 #
coedge $-1 -1 $-1 $157 $66 $154 $158 forward $43 $-1 #
coedge $-1 -1 $-1 $66 $157 $159 $160 forward $43 $-1 #
coedge $-1 -1 $-1 $109 $108 $66 $102 reversed $110 $-1 #
edge $-1 -1 $-1 $161 -15 $162 15 $101 $163 forward @7 unknown #
coedge $-1 -1 $-1 $68 $67 $164 $165 forward $30 $-1 #
coedge $-1 -1 $-1 $166 $167 $67 $105 reversed $151 $-1 #
edge $-1 -1 $-1 $112 -12.5 $168 12.5 $104 $169 forward @7 unknown #
coedge $-1 -1 $-1 $98 $170 $68 $107 reversed $64 $-1 #
edge $-1 -1 $-1 $171 -12.5 $111 12.5 $106 $172 forward @7 unknown #
coedge $-1 -1 $-1 $101 $69 $170 $173 forward $110 $-1 #
coedge $-1 -1 $-1 $69 $101 $166 $174 reversed $110 $-1 #
loop $-1 -1 $-1 $-1 $108 $150 #
vertex $-1 -1 $-1 $70 $175 #
vertex $-1 -1 $-1 $70 $176 #
straight-curve $-1 -1 $-1 12.5 0 12.5 0 1 0 I I #
face $-1 -1 $-1 $177 $178 $17 $-1 $179 forward single #
loop $-1 -1 $-1 $-1 $180 $71 #
coedge $-1 -1 $-1 $181 $182 $180 $183 forward $72 $-1 #
coedge $-1 -1 $-1 $184 $73 $185 $186 reversed $47 $-1 #
coedge $-1 -1 $-1 $73 $184 $75 $125 forward $47 $-1 #
coedge $-1 -1 $-1 $187 $188 $73 $120 forward $189 $-1 #
edge $-1 -1 $-1 $190 -3.1415926535897931 $191 -1.5707963267948966 $119 $192 forward @7 unknown #
coedge $-1 -1 $-1 $75 $74 $193 $194 reversed $33 $-1 #
coedge $-1 -1 $-1 $182 $181 $195 $123 reversed $72 $-1 #
edge $-1 -1 $-1 $129 -30 $196 0 $195 $197 forward @7 unknown #
coedge $-1 -1 $-1 $198 $199 $200 $125 forward $201 $-1 #
edge $-1 -1 $-1 $130 -30 $191 0 $124 $202 forward @7 unknown #
coedge $-1 -1 $-1 $127 $76 $199 $203 reversed $128 $-1 #
coedge $-1 -1 $-1 $76 $126 $204 $205 forward $128 $-1 #
loop $-1 -1 $-1 $-1 $76 $206 #
vertex $-1 -1 $-1 $207 $208 #
vertex $-1 -1 $-1 $209 $210 #
ellipse-curve $-1 -1 $-1 0 15 0 0 -1 0 12.5 0 1.5307579422779716e-015 1 I I #
model_id-kcp-attrib $-1 -1 $-1 $-1 $79 1 1021515282 1021515282 -956104703 7 #
face $211 -1 $-1 $212 $213 $7 $-1 $214 forward single #
loop $-1 -1 $-1 $-1 $215 $79 #
plane-surface $-1 -1 $-1 0 30 0 0 -1 0 -1 0 0 forward_v I I I I #
coedge $-1 -1 $-1 $216 $217 $215 $218 forward $80 $-1 #
coedge $-1 -1 $-1 $85 $82 $219 $220 reversed $51 $-1 #
coedge $-1 -1 $-1 $82 $85 $221 $222 forward $51 $-1 #
coedge $-1 -1 $-1 $217 $216 $82 $140 reversed $80 $-1 #
edge $-1 -1 $-1 $223 -2.0194839173657909e-032 $224 3.1415926535897931 $82 $225 forward @7 unknown #
vertex $-1 -1 $-1 $89 $226 #
vertex $-1 -1 $-1 $88 $227 #
ellipse-curve $-1 -1 $-1 0 13.499999999999998 -1.7763568394002505e-015 0 -1 0 8.8999999999999968 0 2.8662564943021658e-015 1 I I #
coedge $-1 -1 $-1 $219 $221 $87 $145 forward $228 $-1 #
edge $-1 -1 $-1 $141 0 $142 3.1415926535897931 $87 $229 forward @7 unknown #
straight-curve $-1 -1 $-1 -8.8999999999999986 0 -2.1797993098038314e-015 0 1 0 I I #
straight-curve $-1 -1 $-1 8.8999999999999986 0 1.0898996549019157e-015 0 1 0 I I #
convexity-sys-attrib $-1 -1 $-1 $90 $57 #
model_id-kcp-attrib $-1 -1 $-1 $-1 $95 1 1021515282 1021515282 -956104702 3 #
face $-1 -1 $-1 $-1 $110 $15 $-1 $230 reversed single #
loop $-1 -1 $-1 $-1 $166 $95 #
plane-surface $-1 -1 $-1 0 15 0 0 -1 0 0 0 -1 forward_v I I I I #
coedge $-1 -1 $-1 $231 $164 $167 $232 forward $96 $-1 #
coedge $-1 -1 $-1 $170 $98 $99 $158 reversed $64 $-1 #
coedge $-1 -1 $-1 $164 $231 $98 $156 reversed $96 $-1 #
edge $-1 -1 $-1 $171 -12.5 $233 12.5 $155 $234 forward @7 unknown #
coedge $-1 -1 $-1 $100 $99 $231 $235 forward $43 $-1 #
edge $-1 -1 $-1 $162 -12.5 $233 12.5 $154 $236 forward @7 unknown #
coedge $-1 -1 $-1 $167 $166 $100 $160 reversed $151 $-1 #
edge $-1 -1 $-1 $237 -12.5 $161 12.5 $159 $238 forward @7 unknown #
vertex $-1 -1 $-1 $102 $239 #
vertex $-1 -1 $-1 $173 $240 #
straight-curve $-1 -1 $-1 12.5 0 -12.5 0 -1 0 I I #
coedge $-1 -1 $-1 $153 $155 $103 $165 reversed $96 $-1 #
edge $-1 -1 $-1 $168 -15 $171 15 $164 $241 forward @7 unknown #
coedge $-1 -1 $-1 $159 $104 $109 $174 forward $151 $-1 #
coedge $-1 -1 $-1 $104 $159 $153 $232 reversed $151 $-1 #
vertex $-1 -1 $-1 $105 $242 #
straight-curve $-1 -1 $-1 0 15 12.5 -1 0 0 I I #
coedge $-1 -1 $-1 $106 $154 $108 $173 reversed $64 $-1 #
vertex $-1 -1 $-1 $165 $243 #
straight-curve $-1 -1 $-1 0 -15 12.5 1 0 0 I I #
edge $-1 -1 $-1 $111 -12.5 $162 12.5 $108 $244 forward @7 unknown #
edge $-1 -1 $-1 $112 -12.5 $161 12.5 $109 $245 forward @7 unknown #
point $-1 -1 $-1 12.5 -15 12.5 #
point $-1 -1 $-1 12.5 15 12.5 #
face $-1 -1 $-1 $246 $247 $17 $-1 $248 reversed single #
loop $-1 -1 $-1 $-1 $200 $114 #
plane-surface $-1 -1 $-1 0 0 12.5 0 0 1 1 0 0 forward_v I I I I #
coedge $-1 -1 $-1 $249 $250 $251 $183 reversed $115 $-1 #
coedge $-1 -1 $-1 $122 $116 $252 $253 reversed $72 $-1 #
coedge $-1 -1 $-1 $116 $122 $254 $255 reversed $72 $-1 #
edge $-1 -1 $-1 $256 -30 $257 0 $251 $258 forward @7 unknown #
coedge $-1 -1 $-1 $118 $117 $259 $260 reversed $47 $-1 #
coedge $-1 -1 $-1 $261 $262 $263 $186 forward $264 $-1 #
edge $-1 -1 $-1 $265 -30 $190 0 $185 $266 forward @7 unknown #
coedge $-1 -1 $-1 $188 $119 $267 $268 reversed $189 $-1 #
coedge $-1 -1 $-1 $119 $187 $261 $269 forward $189 $-1 #
loop $-1 -1 $-1 $-1 $119 $270 #
vertex $-1 -1 $-1 $271 $272 #
vertex $-1 -1 $-1 $273 $274 #
ellipse-curve $-1 -1 $-1 0 -15 0 0 1 0 12.5 0 1.5307579422779716e-015 1 I I #
coedge $-1 -1 $-1 $275 $276 $121 $194 forward $277 $-1 #
edge $-1 -1 $-1 $191 -1.5707963267948966 $196 1.2246063538223773e-016 $193 $192 forward @7 unknown #
coedge $-1 -1 $-1 $278 $279 $280 $123 forward $247 $-1 #
vertex $-1 -1 $-1 $281 $282 #
straight-curve $-1 -1 $-1 12.5 -15 0 0 -1 0 I I #
coedge $-1 -1 $-1 $283 $124 $276 $273 forward $201 $-1 #
coedge $-1 -1 $-1 $124 $283 $126 $203 forward $201 $-1 #
coedge $-1 -1 $-1 $284 $267 $118 $125 reversed $178 $-1 #
loop $-1 -1 $-1 $-1 $124 $285 #
straight-curve $-1 -1 $-1 0 -15 12.5 0 -1 0 I I #
edge $-1 -1 $-1 $286 -12.5 $130 0 $126 $287 forward @7 unknown #
coedge $-1 -1 $-1 $288 $280 $127 $205 reversed $289 $-1 #
edge $-1 -1 $-1 $286 -12.5 $129 0 $204 $290 forward @7 unknown #
face $-1 -1 $-1 $291 $128 $17 $-1 $292 reversed single #
edge $-1 -1 $-1 $129 0 $293 12.5 $279 $290 forward @7 unknown #
point $-1 -1 $-1 12.5 15 0 #
edge $-1 -1 $-1 $130 0 $294 12.5 $295 $287 forward @7 unknown #
point $-1 -1 $-1 0 15 12.5 #
model_id-kcp-attrib $-1 -1 $-1 $-1 $133 1 1021515282 1021515282 -956104703 8 #
face $296 -1 $-1 $-1 $228 $7 $-1 $297 forward single #
loop $-1 -1 $-1 $-1 $298 $133 #
cone-surface $-1 -1 $-1 0 31.5 0 0 -1 0 -12.5 0 0 1 I I 0 1 12.5 forward I I I I #
coedge $-1 -1 $-1 $299 $299 $136 $218 reversed $134 $-1 #
coedge $-1 -1 $-1 $139 $136 $300 $301 reversed $80 $-1 #
coedge $-1 -1 $-1 $136 $139 $302 $303 forward $80 $-1 #
edge $-1 -1 $-1 $304 1.2246063538223773e-016 $305 3.1415926535897931 $136 $306 forward @7 unknown #
coedge $-1 -1 $-1 $307 $144 $137 $220 forward $228 $-1 #
edge $-1 -1 $-1 $142 0 $224 6.5734313718179216 $137 $308 forward @7 unknown #
coedge $-1 -1 $-1 $144 $307 $138 $222 reversed $228 $-1 #
edge $-1 -1 $-1 $141 2.4591185827002562e-015 $223 6.5734313718179163 $138 $309 forward @7 unknown #
vertex $-1 -1 $-1 $222 $310 #
vertex $-1 -1 $-1 $220 $311 #
ellipse-curve $-1 -1 $-1 0 19 4.4408920985006262e-016 0 -1 0 12.5 0 1.086668732427909e-015 1 I I #
point $-1 -1 $-1 8.8999999999999986 13.5 1.0898996549019157e-015 #
point $-1 -1 $-1 -8.8999999999999968 13.499999999999998 -2.1797993098038306e-015 #
loop $-1 -1 $-1 $-1 $144 $212 #
ellipse-curve $-1 -1 $-1 -4.4408920985006262e-016 13.499999999999998 -8.8817841970012523e-016 0 1 0 8.8999999999999968 0 1.9780780746020405e-015 1 I I #
plane-surface $-1 -1 $-1 12.5 0 0 -1 0 0 0 0 1 forward_v I I I I #
coedge $-1 -1 $-1 $155 $153 $157 $235 reversed $96 $-1 #
edge $-1 -1 $-1 $168 -12.5 $237 12.5 $167 $312 forward @7 unknown #
vertex $-1 -1 $-1 $235 $313 #
straight-curve $-1 -1 $-1 -12.5 -15 0 0 0 -1 I I #
edge $-1 -1 $-1 $233 -15 $237 15 $231 $314 forward @7 unknown #
straight-curve $-1 -1 $-1 0 -15 -12.5 -1 0 0 I I #
vertex $-1 -1 $-1 $160 $315 #
straight-curve $-1 -1 $-1 0 15 -12.5 1 0 0 I I #
point $-1 -1 $-1 12.5 15 -12.5 #
point $-1 -1 $-1 12.5 -15 -12.5 #
straight-curve $-1 -1 $-1 -12.5 0 12.5 0 -1 0 I I #
point $-1 -1 $-1 -12.5 15 12.5 #
point $-1 -1 $-1 -12.5 -15 12.5 #
straight-curve $-1 -1 $-1 12.5 -15 0 0 0 -1 I I #
straight-curve $-1 -1 $-1 12.5 15 0 0 0 -1 I I #
face $-1 -1 $-1 $316 $317 $17 $-1 $318 reversed single #
loop $-1 -1 $-1 $-1 $195 $177 #
plane-surface $-1 -1 $-1 12.5 0 0 -1 0 0 0 0 1 forward_v I I I I #
coedge $-1 -1 $-1 $319 $180 $320 $321 reversed $115 $-1 #
coedge $-1 -1 $-1 $180 $319 $322 $323 reversed $115 $-1 #
coedge $-1 -1 $-1 $324 $325 $326 $183 forward $327 $-1 #
coedge $-1 -1 $-1 $328 $329 $181 $253 forward $330 $-1 #
edge $-1 -1 $-1 $196 1.2246063538223773e-016 $257 1.5707963267948968 $252 $192 forward @7 unknown #
coedge $-1 -1 $-1 $331 $332 $182 $255 forward $333 $-1 #
edge $-1 -1 $-1 $256 -1.5707963267948968 $129 -1.2246063538223773e-016 $254 $131 forward @7 unknown #
vertex $-1 -1 $-1 $334 $335 #
vertex $-1 -1 $-1 $336 $337 #
straight-curve $-1 -1 $-1 0 -15 -12.5 0 -1 0 I I #
coedge $-1 -1 $-1 $338 $295 $184 $260 forward $339 $-1 #
edge $-1 -1 $-1 $130 1.5707963267948966 $265 3.1415926535897931 $259 $131 forward @7 unknown #
coedge $-1 -1 $-1 $340 $185 $188 $269 reversed $264 $-1 #
coedge $-1 -1 $-1 $185 $340 $338 $341 forward $264 $-1 #
coedge $-1 -1 $-1 $342 $343 $319 $186 reversed $317 $-1 #
loop $-1 -1 $-1 $-1 $185 $344 #
vertex $-1 -1 $-1 $345 $346 #
straight-curve $-1 -1 $-1 -12.5 -15 0 0 -1 0 I I #
coedge $-1 -1 $-1 $200 $347 $187 $268 forward $178 $-1 #
edge $-1 -1 $-1 $348 -12.5 $191 0 $187 $349 forward @7 unknown #
edge $-1 -1 $-1 $348 -12.5 $190 0 $261 $350 forward @7 unknown #
face $-1 -1 $-1 $351 $189 $17 $-1 $352 reversed single #
edge $-1 -1 $-1 $190 0 $353 12.5 $343 $350 forward @7 unknown #
point $-1 -1 $-1 -12.5 -15 0 #
edge $-1 -1 $-1 $191 0 $354 12.5 $276 $349 forward @7 unknown #
point $-1 -1 $-1 0 -15 12.5 #
coedge $-1 -1 $-1 $276 $193 $355 $356 reversed $277 $-1 #
coedge $-1 -1 $-1 $193 $275 $198 $273 reversed $277 $-1 #
loop $-1 -1 $-1 $-1 $193 $351 #
coedge $-1 -1 $-1 $357 $195 $329 $281 forward $247 $-1 #
coedge $-1 -1 $-1 $195 $357 $331 $207 reversed $247 $-1 #
coedge $-1 -1 $-1 $204 $355 $74 $123 reversed $289 $-1 #
edge $-1 -1 $-1 $196 0 $358 12.5 $278 $359 forward @7 unknown #
point $-1 -1 $-1 12.5 -15 0 #
coedge $-1 -1 $-1 $199 $198 $288 $360 forward $201 $-1 #
coedge $-1 -1 $-1 $347 $200 $295 $209 forward $178 $-1 #
face $-1 -1 $-1 $361 $201 $17 $-1 $179 forward single #
vertex $-1 -1 $-1 $360 $362 #
straight-curve $-1 -1 $-1 0 15 12.5 -1 0 0 I I #
coedge $-1 -1 $-1 $355 $204 $283 $360 reversed $289 $-1 #
loop $-1 -1 $-1 $-1 $280 $363 #
straight-curve $-1 -1 $-1 12.5 15 0 0 0 -1 I I #
face $-1 -1 $-1 $364 $339 $17 $-1 $292 reversed single #
plane-surface $-1 -1 $-1 0 15 0 0 -1 0 0 0 -1 forward_v I I I I #
vertex $-1 -1 $-1 $365 $366 #
vertex $-1 -1 $-1 $209 $367 #
coedge $-1 -1 $-1 $259 $338 $284 $209 reversed $339 $-1 #
model_id-kcp-attrib $-1 -1 $-1 $-1 $212 1 1021515282 1021515282 -956104703 9 #
cone-surface $-1 -1 $-1 0 0.90277777777777501 0 0 -1 0 -0.65454545454545421 0 0 1 I I -0.54765917469438785 0.83670151689420402 0.65454545454545421 forward I I I I #
coedge $-1 -1 $-1 $300 $302 $307 $368 forward $213 $-1 #
coedge $-1 -1 $-1 $215 $215 $369 $370 forward $134 $-1 #
coedge $-1 -1 $-1 $369 $298 $216 $301 forward $213 $-1 #
edge $-1 -1 $-1 $224 0 $305 11 $216 $371 forward @7 unknown #
coedge $-1 -1 $-1 $298 $369 $217 $303 reversed $213 $-1 #
edge $-1 -1 $-1 $223 -3.5527136788005009e-015 $304 11 $217 $372 forward @7 unknown #
vertex $-1 -1 $-1 $303 $373 #
vertex $-1 -1 $-1 $301 $374 #
ellipse-curve $-1 -1 $-1 0 30 0 0 -1 0 12.5 0 0 1 I I #
coedge $-1 -1 $-1 $221 $219 $298 $368 reversed $228 $-1 #
straight-curve $-1 -1 $-1 -8.8999999999999968 13.499999999999998 -2.1797993098038306e-015 -0.54765917469438796 0.83670151689420402 -1.3413338101197333e-016 I I #
straight-curve $-1 -1 $-1 8.8999999999999968 13.499999999999998 1.0898996549019153e-015 0.54765917469438796 0.83670151689420402 6.7066690505986665e-017 I I #
point $-1 -1 $-1 12.499999999999995 18.999999999999996 1.5307579422779708e-015 #
point $-1 -1 $-1 -12.5 19 -3.0615158845559431e-015 #
straight-curve $-1 -1 $-1 -12.5 15 0 0 0 -1 I I #
point $-1 -1 $-1 -12.5 -15 -12.5 #
straight-curve $-1 -1 $-1 -12.5 0 -12.5 0 1 0 I I #
point $-1 -1 $-1 -12.5 15 -12.5 #
face $-1 -1 $-1 $270 $375 $17 $-1 $352 reversed single #
loop $-1 -1 $-1 $-1 $263 $246 #
plane-surface $-1 -1 $-1 -12.5 0 0 1 0 0 0 0 -1 forward_v I I I I #
coedge $-1 -1 $-1 $250 $249 $117 $186 forward $115 $-1 #
coedge $-1 -1 $-1 $376 $377 $249 $321 forward $378 $-1 #
edge $-1 -1 $-1 $265 -3.1415926535897931 $256 -1.5707963267948968 $320 $131 forward @7 unknown #
coedge $-1 -1 $-1 $379 $380 $250 $323 forward $375 $-1 #
edge $-1 -1 $-1 $257 1.5707963267948968 $190 3.1415926535897931 $322 $192 forward @7 unknown #
coedge $-1 -1 $-1 $381 $251 $380 $336 forward $327 $-1 #
coedge $-1 -1 $-1 $251 $381 $376 $382 forward $327 $-1 #
coedge $-1 -1 $-1 $383 $384 $116 $183 reversed $385 $-1 #
loop $-1 -1 $-1 $-1 $251 $361 #
coedge $-1 -1 $-1 $329 $252 $384 $386 reversed $330 $-1 #
coedge $-1 -1 $-1 $252 $328 $278 $281 reversed $330 $-1 #
loop $-1 -1 $-1 $-1 $252 $387 #
coedge $-1 -1 $-1 $332 $254 $279 $207 forward $333 $-1 #
coedge $-1 -1 $-1 $254 $331 $383 $334 reversed $333 $-1 #
loop $-1 -1 $-1 $-1 $254 $388 #
edge $-1 -1 $-1 $256 0 $293 12.5 $332 $389 forward @7 unknown #
point $-1 -1 $-1 0 15 -12.5 #
edge $-1 -1 $-1 $257 0 $353 12.5 $380 $390 forward @7 unknown #
point $-1 -1 $-1 0 -15 -12.5 #
coedge $-1 -1 $-1 $295 $259 $262 $341 reversed $339 $-1 #
loop $-1 -1 $-1 $-1 $259 $291 #
coedge $-1 -1 $-1 $262 $261 $347 $391 reversed $264 $-1 #
edge $-1 -1 $-1 $294 -12.5 $265 0 $338 $392 forward @7 unknown #
coedge $-1 -1 $-1 $393 $263 $377 $345 forward $317 $-1 #
coedge $-1 -1 $-1 $263 $393 $379 $271 reversed $317 $-1 #
face $-1 -1 $-1 $363 $264 $17 $-1 $318 reversed single #
edge $-1 -1 $-1 $265 0 $394 12.5 $377 $392 forward @7 unknown #
point $-1 -1 $-1 -12.5 15 0 #
coedge $-1 -1 $-1 $267 $284 $340 $391 forward $178 $-1 #
vertex $-1 -1 $-1 $391 $395 #
straight-curve $-1 -1 $-1 0 -15 12.5 1 0 0 I I #
straight-curve $-1 -1 $-1 -12.5 -15 0 0 0 -1 I I #
face $-1 -1 $-1 $387 $277 $17 $-1 $352 reversed single #
plane-surface $-1 -1 $-1 0 -15 0 0 1 0 0 0 1 forward_v I I I I #
vertex $-1 -1 $-1 $396 $397 #
vertex $-1 -1 $-1 $360 $398 #
coedge $-1 -1 $-1 $280 $288 $275 $356 forward $289 $-1 #
edge $-1 -1 $-1 $354 -12.5 $196 0 $355 $359 forward @7 unknown #
coedge $-1 -1 $-1 $279 $278 $399 $365 reversed $247 $-1 #
vertex $-1 -1 $-1 $281 $400 #
straight-curve $-1 -1 $-1 12.5 -15 0 0 0 -1 I I #
edge $-1 -1 $-1 $354 -15 $286 15 $288 $401 forward @7 unknown #
face $-1 -1 $-1 $344 $327 $17 $-1 $402 reversed single #
point $-1 -1 $-1 12.5 15 12.5 #
face $-1 -1 $-1 $-1 $289 $17 $-1 $248 reversed single #
face $-1 -1 $-1 $403 $378 $17 $-1 $292 reversed single #
edge $-1 -1 $-1 $293 -15 $358 15 $357 $404 forward @7 unknown #
point $-1 -1 $-1 12.5 15 -12.5 #
point $-1 -1 $-1 -12.5 15 12.5 #
edge $-1 -1 $-1 $223 0 $224 3.1415926535897931 $307 $405 forward @7 unknown #
coedge $-1 -1 $-1 $302 $300 $299 $370 reversed $213 $-1 #
edge $-1 -1 $-1 $304 -1.2246063538223773e-016 $305 3.1415926535897931 $299 $406 forward @7 unknown #
straight-curve $-1 -1 $-1 -12.5 19 -3.0615158845559431e-015 0 1 0 I I #
straight-curve $-1 -1 $-1 12.5 19 1.5307579422779716e-015 0 1 0 I I #
point $-1 -1 $-1 12.5 30 1.5307579422779716e-015 #
point $-1 -1 $-1 -12.5 30 0 #
loop $-1 -1 $-1 $-1 $322 $316 #
coedge $-1 -1 $-1 $377 $320 $325 $382 reversed $378 $-1 #
coedge $-1 -1 $-1 $320 $376 $342 $345 reversed $378 $-1 #
loop $-1 -1 $-1 $-1 $320 $364 #
coedge $-1 -1 $-1 $380 $322 $343 $271 forward $375 $-1 #
coedge $-1 -1 $-1 $322 $379 $324 $336 reversed $375 $-1 #
coedge $-1 -1 $-1 $325 $324 $393 $396 forward $327 $-1 #
edge $-1 -1 $-1 $394 -12.5 $256 0 $376 $389 forward @7 unknown #
coedge $-1 -1 $-1 $399 $326 $332 $334 forward $385 $-1 #
coedge $-1 -1 $-1 $326 $399 $328 $386 forward $385 $-1 #
loop $-1 -1 $-1 $-1 $326 $403 #
edge $-1 -1 $-1 $358 -12.5 $257 0 $328 $390 forward @7 unknown #
face $-1 -1 $-1 $388 $330 $17 $-1 $352 reversed single #
face $-1 -1 $-1 $206 $333 $17 $-1 $292 reversed single #
straight-curve $-1 -1 $-1 0 15 -12.5 1 0 0 I I #
straight-curve $-1 -1 $-1 0 -15 -12.5 -1 0 0 I I #
edge $-1 -1 $-1 $294 -15 $348 15 $340 $407 forward @7 unknown #
straight-curve $-1 -1 $-1 -12.5 15 0 0 0 -1 I I #
coedge $-1 -1 $-1 $343 $342 $381 $396 reversed $317 $-1 #
vertex $-1 -1 $-1 $382 $408 #
point $-1 -1 $-1 -12.5 -15 12.5 #
edge $-1 -1 $-1 $353 -15 $394 15 $393 $409 forward @7 unknown #
point $-1 -1 $-1 -12.5 -15 -12.5 #
point $-1 -1 $-1 12.5 -15 12.5 #
coedge $-1 -1 $-1 $384 $383 $357 $365 forward $385 $-1 #
point $-1 -1 $-1 12.5 -15 -12.5 #
straight-curve $-1 -1 $-1 12.5 0 12.5 0 1 0 I I #
plane-surface $-1 -1 $-1 0 0 -12.5 0 0 1 1 0 0 forward_v I I I I #
face $-1 -1 $-1 $285 $385 $17 $-1 $402 reversed single #
straight-curve $-1 -1 $-1 12.5 0 -12.5 0 -1 0 I I #
ellipse-curve $-1 -1 $-1 0 19 -4.4408920985006262e-016 0 1 0 12.5 0 1.9748471521280342e-015 1 I I #
ellipse-curve $-1 -1 $-1 0 30 0 0 1 0 12.5 0 0 1 I I #
straight-curve $-1 -1 $-1 -12.5 0 12.5 0 -1 0 I I #
point $-1 -1 $-1 -12.5 15 -12.5 #
straight-curve $-1 -1 $-1 -12.5 0 -12.5 0 1 0 I I #
End-of-ACIS-data 