600 0 1 0           
85 GICL Pro/E ACIS Translator - Source: f:/data5/repository/PTC/V18/cmm18/ph9a.prt - 6 0 13 ACIS 6.0.3 NT 24 Thu Apr 04 10:02:10 2002 
1 9.9999999999999995e-007 1e-010 
body $-1 $1 $-1 $-1 #
lump $-1 $-1 $2 $0 #
shell $-1 $-1 $-1 $3 $-1 $1 #
face $-1 $4 $5 $2 $-1 $6 forward single #
face $-1 $7 $8 $2 $-1 $9 reversed single #
loop $-1 $-1 $10 $3 #
sphere-surface $-1 0 0 0 31 1 0 0 0 0 1 forward_v I I I I #
face $-1 $11 $12 $2 $-1 $13 reversed single #
loop $-1 $-1 $14 $4 #
plane-surface $-1 15 0 0 1 0 0 0 0 -1 forward_v I I I I #
coedge $-1 $15 $16 $17 $18 forward $5 $-1 #
face $-1 $19 $20 $2 $-1 $21 reversed single #
loop $-1 $-1 $22 $7 #
cone-surface $-1 -7.1054273576010019e-015 0 0 0 -0.2419218955996677 0.97029572627599658 0 14.554435894139949 3.6288284339950163 1 I I 0 1 15.000000000000002 forward I I I I #
coedge $-1 $17 $23 $24 $25 forward $8 $-1 #
coedge $-1 $26 $10 $27 $28 forward $5 $-1 #
coedge $-1 $10 $29 $30 $31 forward $5 $-1 #
coedge $-1 $32 $14 $10 $18 reversed $8 $-1 #
edge $-1 $33 -1.0156407543409915e-016 $34 1.815142422074103 $10 $35 forward 7 unknown #
face $-1 $36 $37 $2 $-1 $38 reversed single #
loop $-1 $-1 $39 $11 #
plane-surface $-1 -15 0 -27.129319932501073 -1 0 0 0 0 1 forward_v I I I I #
coedge $-1 $40 $41 $42 $43 forward $12 $-1 #
coedge $-1 $14 $32 $44 $45 forward $8 $-1 #
coedge $-1 $46 $27 $14 $25 reversed $12 $-1 #
edge $-1 $47 8.5947922769828616e-016 $34 5.8925593509057768 $14 $48 forward 7 unknown #
coedge $-1 $49 $15 $50 $51 reversed $5 $-1 #
coedge $-1 $24 $52 $15 $28 reversed $12 $-1 #
edge $-1 $34 0 $53 0.78804716779222361 $15 $54 forward 7 unknown #
coedge $-1 $16 $55 $56 $57 forward $5 $-1 #
coedge $-1 $58 $59 $16 $31 reversed $37 $-1 #
edge $-1 $60 0 $33 3.1415926535897931 $16 $61 forward 7 unknown #
coedge $-1 $23 $17 $59 $62 reversed $8 $-1 #
vertex $-1 $31 $63 #
vertex $-1 $28 $64 #
ellipse-curve $-1 15 0 0 1 0 0 0 -27.129319932501073 0 1 I I #
face $-1 $65 $66 $2 $-1 $67 reversed single #
loop $-1 $-1 $58 $19 #
cone-surface $-1 0 0 0 0 1 0 0 0 -15 1 I I 0 1 15 forward I I I I #
coedge $-1 $56 $68 $58 $69 forward $20 $-1 #
coedge $-1 $52 $22 $55 $70 reversed $12 $-1 #
coedge $-1 $22 $71 $72 $73 forward $12 $-1 #
coedge $-1 $68 $56 $22 $43 reversed $20 $-1 #
edge $-1 $74 0 $75 5.8925589887456997 $42 $76 forward 7 unknown #
coedge $-1 $77 $78 $23 $45 reversed $66 $-1 #
edge $-1 $79 0 $47 1.815142422074103 $44 $80 forward 7 unknown #
coedge $-1 $71 $24 $78 $81 forward $12 $-1 #
vertex $-1 $45 $82 #
straight-curve $-1 15 5.1376373762958334 -20.605938032268465 0 0.2419218955996677 -0.97029572627599647 I I #
coedge $-1 $83 $26 $84 $85 forward $5 $-1 #
coedge $-1 $86 $87 $26 $51 forward $88 $-1 #
edge $-1 $89 0 $53 1.151777740834943 $26 $90 forward 7 unknown #
coedge $-1 $27 $40 $86 $91 reversed $12 $-1 #
vertex $-1 $51 $92 #
ellipse-curve $-1 1.7319479184152442e-013 6.5631765044005608 -26.323463187279984 1.7436677578746073e-016 -0.24192189559966765 0.97029572627599647 14.999999999999822 -4.6185277824406512e-014 -1.4210854715202004e-014 1 I I #
coedge $-1 $29 $83 $40 $70 forward $5 $-1 #
coedge $-1 $42 $39 $29 $57 reversed $20 $-1 #
edge $-1 $75 0 $60 1.8151424220741035 $29 $93 forward 7 unknown #
coedge $-1 $94 $30 $39 $69 reversed $37 $-1 #
coedge $-1 $30 $94 $32 $62 forward $37 $-1 #
vertex $-1 $31 $95 #
ellipse-curve $-1 1.3322676295501878e-015 -27.129319932501073 8.8817841970012523e-016 0 1 0 -15.000000000000002 0 -1.8066331850669082e-015 1 I I #
edge $-1 $79 0 $33 5.8925593509057705 $59 $96 forward 7 unknown #
point $-1 15 -27.129319932501073 2.7553642961003488e-015 #
point $-1 14.999999999999995 6.5631765044005146 -26.323463187279998 #
face $-1 $97 $98 $2 $-1 $99 reversed single #
loop $-1 $-1 $100 $36 #
sphere-surface $-1 0 0 0 26 1 0 0 0 0 1 forward_v I I I I #
coedge $-1 $39 $42 $100 $101 forward $20 $-1 #
edge $-1 $102 0 $60 5.8925593509057705 $39 $103 forward 7 unknown #
edge $-1 $104 -1.7684619201140468e-015 $75 0.78804716779221617 $55 $105 forward 7 unknown #
coedge $-1 $41 $46 $106 $107 forward $12 $-1 #
coedge $-1 $108 $100 $41 $73 reversed $66 $-1 #
edge $-1 $109 0 $74 0.77577934779438118 $72 $110 forward 7 unknown #
vertex $-1 $73 $111 #
vertex $-1 $57 $112 #
straight-curve $-1 -15 5.1376369327766636 -20.605938516097339 0 0.2419219857359946 -0.97029570380248165 I I #
coedge $-1 $100 $44 $94 $113 reversed $66 $-1 #
coedge $-1 $44 $114 $46 $81 reversed $66 $-1 #
vertex $-1 $113 $115 #
ellipse-curve $-1 15 -3.5527136788005009e-015 -3.1086244689504383e-015 1 0 0 0 -21.236760581595298 3.1086244689504383e-015 1 I I #
edge $-1 $47 -2.2981219328149297e-016 $116 0.77577925316112195 $78 $117 forward 7 unknown #
point $-1 15 5.1376373762958369 -20.605938032268465 #
coedge $-1 $55 $49 $118 $119 reversed $5 $-1 #
coedge $-1 $120 $121 $49 $85 reversed $122 $-1 #
edge $-1 $89 0 $123 3.1415926535897931 $49 $124 forward 7 unknown #
coedge $-1 $118 $50 $52 $91 forward $88 $-1 #
coedge $-1 $50 $125 $120 $126 reversed $88 $-1 #
loop $-1 $-1 $118 $127 #
vertex $-1 $85 $128 #
ellipse-curve $-1 -7.9936057773011271e-015 16.881943016134116 6.6613381477509392e-015 0 1 0 26.000000000000007 0 -3.4773616278127584e-015 1 I I #
edge $-1 $53 0 $104 1 $86 $129 forward 7 unknown #
point $-1 10.578467601664821 16.881943016134137 -23.750705741104358 #
ellipse-curve $-1 -15 -1.2434497875801753e-014 -7.1054273576010019e-015 -1 0 0 0 6.5631765044005199 -26.32346318727998 1 I I #
coedge $-1 $59 $58 $77 $113 forward $37 $-1 #
point $-1 -15 -27.129319932501073 -9.1845476536678294e-016 #
straight-curve $-1 15 -21.236760581595302 0 0 -1 0 I I #
face $-1 $130 $131 $2 $-1 $132 reversed single #
loop $-1 $-1 $133 $65 #
cone-surface $-1 0 95.524999999999991 0 0 -1 0 -21 0 0 1 I I 0 1 21 forward I I I I #
coedge $-1 $72 $77 $68 $101 reversed $66 $-1 #
edge $-1 $74 0 $102 1.8151423657049344 $100 $134 forward 7 unknown #
vertex $-1 $113 $135 #
straight-curve $-1 -15 -21.236760581595302 0 0 -1 0 I I #
vertex $-1 $70 $136 #
ellipse-curve $-1 -1.056932319443149e-013 6.5631765044005217 -26.323463187279987 -3.6316628716627774e-016 -0.24192189559966731 0.97029572627599658 -10.578467601664755 10.318766511733577 2.5727574461756184 1 I I #
coedge $-1 $133 $137 $71 $107 reversed $98 $-1 #
edge $-1 $116 0 $109 0.99999999999999989 $106 $138 forward 7 unknown #
coedge $-1 $139 $72 $137 $140 forward $66 $-1 #
vertex $-1 $140 $141 #
ellipse-curve $-1 -9.9504178052711723e-007 5.1376379769495433 -20.60593790877698 1.2130186580941654e-009 -0.2419218967542269 0.97029572598813263 -10.708132423507513 10.192071739806352 2.5411689179886459 1 I I #
point $-1 -15 5.1376369327766636 -20.605938516097339 #
point $-1 -15 6.5631765044005075 -26.323463187279987 #
edge $-1 $102 6.1230317691118863e-017 $79 3.1415926535897931 $77 $142 forward 7 unknown #
coedge $-1 $78 $139 $133 $143 forward $66 $-1 #
point $-1 15 -21.236760581595302 0 #
vertex $-1 $81 $144 #
ellipse-curve $-1 -3.730349362740526e-014 5.1376373762958156 -20.605938032268476 -2.8834627358527896e-016 -0.2419218955996677 0.97029572627599658 15.000000000000037 2.4868995751603507e-014 1.0658141036401503e-014 1 I I #
coedge $-1 $145 $86 $83 $119 forward $88 $-1 #
edge $-1 $104 9.2496687495397735e-016 $123 1.1517777408349437 $83 $146 forward 7 unknown #
coedge $-1 $147 $84 $87 $126 forward $122 $-1 #
coedge $-1 $84 $147 $145 $148 reversed $122 $-1 #
loop $-1 $-1 $147 $149 #
vertex $-1 $119 $150 #
ellipse-curve $-1 8.8817841970012523e-016 16.881943016134116 0 0 -1 0 26 0 3.1839765199381809e-015 1 I I #
coedge $-1 $87 $145 $151 $152 reversed $88 $-1 #
edge $-1 $89 0 $153 5.618056983865884 $120 $154 forward 7 unknown #
face $-1 $149 $88 $2 $-1 $155 forward single #
point $-1 26 16.881943016134116 3.1839765199381809e-015 #
intcurve-curve $-1 forward { surfintcur full nurbs 3 open 10 
	0 3 0.1129952405623583 1 0.22470930837225847 1 0.33529948434113288 1 0.44518054031200593 1 
	0.55481964038129972 1 0.66470051535434227 1 0.77529074164291711 1 0.88700480276080951 1 1 3 
	10.578467601664821 16.881943016134137 -23.750705741104358 1 
	9.8566413359440794 17.68504633388703 -24.074945735040625 0.99999999999999989 
	8.3758816155599067 19.085724339097723 -24.653634768701469 1 
	5.9758010985628935 20.582304267169356 -25.344819185839086 1.0000000000000004 
	3.577028010111321 21.514571788646048 -25.790217256542309 0.99999999999999967 
	1.1885939743229295 21.960364326867996 -26.009172559399985 1 
	-1.1886487818686504 21.960355083346421 -26.009168032649789 1 
	-3.577012085549967 21.51457515991488 -25.790218893299151 1.0000000000000002 
	-5.9758193552711658 20.582297174029794 -25.344815793174956 0.99999999999999978 
	-8.3758882840281892 19.085717345307582 -24.653631779464934 1.0000000000000002 
	-9.8566448630655561 17.685043077941579 -24.074944339469305 1 
	-10.578467601664849 16.881943016134123 -23.750705741104351 1 
	0.001 
	cone -7.1054273576010019e-015 0 0 0 -0.2419218955996677 0.97029572627599658 0 14.554435894139949 3.6288284339950163 1 I I 0 1 15.000000000000002 forward I I I I 
	cone 0 95.524999999999991 0 0 -1 0 -26 0 0 1 I I 0 1 26 forward I I I I 
	nullbs 
	nullbs 
	I I 
	0 
	0 
	0 
	} I I #
face $-1 $156 $157 $2 $-1 $158 reversed single #
loop $-1 $-1 $159 $97 #
cone-surface $-1 0 95.524999999999991 0 0 -1 0 -21 0 0 1 I I 0 1 21 forward I I I I #
coedge $-1 $160 $106 $114 $143 reversed $98 $-1 #
ellipse-curve $-1 -15 4.3488264500624041e-007 1.8337725649075765e-007 -1 0 0 0 5.1376364978940181 -20.605938699474596 1 I I #
point $-1 -15 -21.236760581595302 0 #
point $-1 -10.578467601664849 16.881943016134123 -23.750705741104351 #
coedge $-1 $106 $161 $108 $140 reversed $98 $-1 #
intcurve-curve $-1 forward { surfintcur full nurbs 3 open 11 
	0 3 0.10202417730064972 1 0.20269906356540798 1 0.30239359613140371 1 0.40136996524374424 1 
	0.4999999999416378 1 0.59863003531479742 1 0.69760640303210986 1 0.79730093536398772 1 0.89797582173925117 1 
	0.99999999999999989 3 
	10.708133418549284 15.32970971675589 -18.064768990788341 1 
	10.035996898505767 16.1162360754745 -18.462724834148716 1 
	8.6687079270381879 17.497147138920539 -19.174140103150105 1.0000000000000002 
	6.5146726387382792 18.984984592708475 -20.007651656110479 0.99999999999999978 
	4.3286264352720742 19.99689480813533 -20.589087496548245 1 
	2.1616169000532217 20.569906162721004 -20.925959594897815 0.99999999999999978 
	1.0717298831004945e-007 20.757575980145184 -21.036955328184522 1.0000000000000002 
	-2.1616172498439474 20.569906102536365 -20.925959559582051 0.99999999999999978 
	-4.3286260883130074 19.996894902176326 -20.589087551503813 1 
	-6.5146724115491956 18.984984733992693 -20.007651736900058 1.0000000000000002 
	-8.6687077048833512 17.497147334659985 -19.174140207425395 0.99999999999999978 
	-10.035996812824278 16.116236159434671 -18.462724878613056 1 
	-10.708133418549293 15.329709716755893 -18.06476899078833 1 
	0.001 
	cone -7.1054273576010019e-015 0 0 0 -0.2419218955996677 0.97029572627599658 0 14.554435894139949 3.6288284339950163 1 I I 0 1 15.000000000000002 forward I I I I 
	cone 0 95.524999999999991 0 0 -1 0 -21 0 0 1 I I 0 1 21 forward I I I I 
	nullbs 
	nullbs 
	I I 
	0 
	0 
	0 
	} I I #
coedge $-1 $114 $108 $159 $162 reversed $66 $-1 #
edge $-1 $109 1.1600697726695506e-015 $163 1.0357148668536735 $108 $164 forward 7 unknown #
point $-1 -10.708133418549293 15.329709716755895 -18.064768990788334 #
ellipse-curve $-1 4.4408920985006262e-016 -21.236760581595302 8.8817841970012523e-016 0 1 0 -15 0 -1.8066331850669082e-015 1 I I #
edge $-1 $165 0 $116 1.0357148668536733 $114 $166 forward 7 unknown #
point $-1 10.708133418549284 15.32970971675589 -18.064768990788341 #
coedge $-1 $125 $118 $121 $148 forward $88 $-1 #
ellipse-curve $-1 -1.2434497875801753e-014 16.881943016134116 -6.2172489379008766e-015 0 1 0 -10.578467601664814 0 -23.750705741104351 1 I I #
coedge $-1 $121 $120 $167 $168 forward $122 $-1 #
edge $-1 $123 0 $169 5.6180569838659054 $121 $170 forward 7 unknown #
face $-1 $171 $122 $2 $-1 $172 forward single #
point $-1 -26 16.881943016134116 0 #
coedge $-1 $173 $174 $125 $152 forward $175 $-1 #
edge $-1 $153 8.4020688130048509e-032 $169 3.1415926535897931 $125 $176 forward 7 unknown #
vertex $-1 $126 $177 #
straight-curve $-1 26 16.881943016134116 3.1839765199381809e-015 0 1 0 I I #
cone-surface $-1 0 95.524999999999991 0 0 -1 0 -26 0 0 1 I I 0 1 26 forward I I I I #
face $-1 $178 $179 $2 $-1 $180 forward single #
loop $-1 $-1 $181 $130 #
sphere-surface $-1 0 54.201734968294716 0 36 1 0 0 0 0 1 forward_v I I I I #
coedge $-1 $182 $183 $139 $162 forward $131 $-1 #
coedge $-1 $184 $133 $183 $185 forward $98 $-1 #
coedge $-1 $137 $184 $182 $186 reversed $98 $-1 #
edge $-1 $165 0 $163 3.1415926535897931 $139 $187 forward 7 unknown #
vertex $-1 $162 $188 #
ellipse-curve $-1 3.5527136788005009e-015 15.329709716755875 1.7763568394002505e-015 2.5879545626190994e-016 1 4.3659150950982903e-016 -10.708133418549277 1.0658141036401503e-014 -18.064768990788352 1 I I #
vertex $-1 $143 $189 #
ellipse-curve $-1 -4.4408920985006262e-015 15.329709716755872 1.3322676295501878e-015 0 1 0 21.000000000000004 0 1.2394057134768044e-015 1 I I #
coedge $-1 $190 $191 $147 $168 reversed $192 $-1 #
edge $-1 $153 0 $169 3.1415926535897931 $147 $193 forward 7 unknown #
vertex $-1 $148 $194 #
straight-curve $-1 -26 16.881943016134116 -6.3679530398763617e-015 0 1 0 I I #
face $-1 $195 $192 $2 $-1 $196 forward single #
cone-surface $-1 0 95.524999999999991 0 0 -1 0 -26 0 0 1 I I 0 1 26 forward I I I I #
coedge $-1 $197 $151 $191 $198 forward $175 $-1 #
coedge $-1 $151 $199 $190 $200 reversed $175 $-1 #
loop $-1 $-1 $201 $202 #
ellipse-curve $-1 -8.8817841970012523e-016 22.500000000000021 1.7763568394002505e-015 0 1 0 26.000000000000028 0 1.407619680537934e-015 1 I I #
point $-1 26 22.5 3.1839765199381809e-015 #
face $-1 $203 $204 $2 $-1 $205 forward single #
loop $-1 $-1 $206 $156 #
plane-surface $-1 23 79.5 25 0 0 -1 -1 0 0 forward_v I I I I #
coedge $-1 $207 $208 $209 $210 reversed $157 $-1 #
coedge $-1 $211 $159 $161 $186 forward $131 $-1 #
coedge $-1 $159 $211 $160 $185 reversed $131 $-1 #
coedge $-1 $161 $160 $212 $213 forward $98 $-1 #
edge $-1 $165 0 $214 9.6316422171119314 $183 $215 forward 7 unknown #
edge $-1 $163 0 $216 9.6316422171119527 $182 $217 forward 7 unknown #
ellipse-curve $-1 0 15.329709716755872 0 0 -1 0 21 0 2.5716733430269922e-015 1 I I #
point $-1 -21 15.329709716755872 -5.1433466860539845e-015 #
point $-1 21 15.329709716755872 2.5716733430269922e-015 #
coedge $-1 $218 $167 $174 $200 forward $192 $-1 #
coedge $-1 $167 $219 $173 $198 reversed $192 $-1 #
loop $-1 $-1 $219 $171 #
ellipse-curve $-1 0 22.500000000000021 0 0 -1 0 26.000000000000028 0 3.1839765199381844e-015 1 I I #
point $-1 -26.000000000000028 22.500000000000021 -6.3679530398763688e-015 #
face $-1 $220 $221 $2 $-1 $222 reversed single #
sphere-surface $-1 0 54.201734968294716 0 41 1 0 0 0 0 1 forward_v I I I I #
coedge $-1 $201 $173 $223 $224 forward $175 $-1 #
edge $-1 $169 0 $225 0.13391941267233509 $191 $226 forward 7 unknown #
coedge $-1 $174 $227 $228 $229 forward $175 $-1 #
edge $-1 $153 -8.7919624650863076e-016 $230 0.13391941267233509 $190 $231 forward 7 unknown #
coedge $-1 $232 $197 $233 $234 forward $175 $-1 #
face $-1 $235 $175 $2 $-1 $236 forward single #
face $-1 $237 $238 $2 $-1 $239 forward single #
loop $-1 $-1 $240 $178 #
plane-surface $-1 26.464466094067262 79.5 19.464466094067262 -0.70710678118654757 0 -0.70710678118654757 -0.70710678118654757 0 0.70710678118654757 forward_v I I I I #
coedge $-1 $209 $241 $242 $243 forward $179 $-1 #
coedge $-1 $244 $181 $245 $246 reversed $157 $-1 #
coedge $-1 $181 $247 $248 $249 reversed $157 $-1 #
coedge $-1 $250 $206 $181 $210 forward $179 $-1 #
edge $-1 $251 0 $252 1.8813379253626916 $181 $253 forward 7 unknown #
coedge $-1 $183 $182 $254 $255 reversed $131 $-1 #
coedge $-1 $256 $257 $184 $213 reversed $258 $-1 #
edge $-1 $214 0 $216 3.1415926535897931 $184 $259 forward 7 unknown #
vertex $-1 $185 $260 #
straight-curve $-1 21 15.329709716755872 2.5716733430269922e-015 0 1 0 I I #
vertex $-1 $255 $261 #
straight-curve $-1 -21 15.329709716755872 -5.1433466860539845e-015 0 1 0 I I #
coedge $-1 $262 $190 $263 $264 forward $192 $-1 #
coedge $-1 $191 $265 $266 $267 forward $192 $-1 #
face $-1 $268 $269 $2 $-1 $270 reversed single #
loop $-1 $-1 $271 $195 #
plane-surface $-1 -30 79.5 23 1 0 0 0 0 -1 forward_v I I I I #
coedge $-1 $266 $272 $197 $224 reversed $221 $-1 #
edge $-1 $225 -1.2748814909830824e-062 $273 0.96668058231004828 $197 $274 forward 7 unknown #
vertex $-1 $198 $275 #
ellipse-curve $-1 0 54.201734968294716 0 2.4492127076447535e-016 1.0511888326561965e-031 -1 -26.000000000000028 -31.701734968294694 -6.3679530398763688e-015 1 I I #
coedge $-1 $199 $232 $276 $277 forward $175 $-1 #
coedge $-1 $278 $263 $199 $229 reversed $279 $-1 #
edge $-1 $280 0 $230 0.96668058231004705 $199 $281 forward 7 unknown #
vertex $-1 $264 $282 #
ellipse-curve $-1 0 54.201734968294716 0 -1.224606353822377e-016 3.0033966647319904e-032 1 26.000000000000028 -31.701734968294694 3.1839765199381844e-015 1 I I #
coedge $-1 $227 $201 $283 $284 forward $175 $-1 #
coedge $-1 $285 $286 $201 $234 reversed $287 $-1 #
edge $-1 $273 5.1395496257513522e-017 $288 0.60450275484142313 $201 $289 forward 7 unknown #
face $-1 $290 $287 $2 $-1 $291 reversed single #
sphere-surface $-1 0 54.201734968294716 0 41 1 0 0 0 0 1 forward_v I I I I #
face $-1 $292 $293 $2 $-1 $294 reversed single #
loop $-1 $-1 $295 $203 #
plane-surface $-1 25 79.5 -23 -1 0 0 0 0 1 forward_v I I I I #
coedge $-1 $245 $296 $295 $297 forward $204 $-1 #
coedge $-1 $206 $298 $299 $300 forward $179 $-1 #
coedge $-1 $296 $245 $206 $243 reversed $204 $-1 #
edge $-1 $301 4.2632564145606011e-014 $251 30.527351504148925 $242 $302 forward 7 unknown #
coedge $-1 $303 $207 $304 $305 reversed $157 $-1 #
coedge $-1 $242 $240 $207 $246 forward $204 $-1 #
edge $-1 $306 -2.9450522921351257e-017 $251 0.3728144841956102 $207 $307 forward 7 unknown #
coedge $-1 $208 $308 $309 $310 reversed $157 $-1 #
coedge $-1 $311 $312 $208 $249 forward $313 $-1 #
edge $-1 $252 4.417578438202022e-017 $314 0.37281448419558177 $208 $315 forward 7 unknown #
coedge $-1 $316 $209 $312 $317 reversed $179 $-1 #
vertex $-1 $246 $318 #
vertex $-1 $249 $319 #
ellipse-curve $-1 -1.4210854715202004e-014 54.201734968294687 25 5.5405740437759934e-016 -4.0407950546326679e-016 -1 20.928932188134546 -15.26367575207442 1.7763568394002505e-014 1 I I #
coedge $-1 $308 $303 $211 $255 forward $157 $-1 #
edge $-1 $214 0 $216 3.1415926535897931 $211 $320 forward 7 unknown #
coedge $-1 $321 $212 $303 $322 forward $258 $-1 #
coedge $-1 $212 $323 $308 $324 reversed $258 $-1 #
loop $-1 $-1 $257 $325 #
ellipse-curve $-1 0 24.961351933867824 -8.8817841970012523e-016 0 1 0 21 0 3.4598517627271175e-015 1 I I #
point $-1 21 24.961351933867803 2.5716733430269922e-015 #
point $-1 -21 24.961351933867824 0 #
coedge $-1 $326 $218 $327 $328 forward $192 $-1 #
coedge $-1 $228 $329 $218 $264 reversed $279 $-1 #
edge $-1 $230 2.5497629819661786e-062 $330 0.96668058231005094 $218 $331 forward 7 unknown #
coedge $-1 $219 $326 $332 $333 forward $192 $-1 #
coedge $-1 $334 $223 $219 $267 reversed $221 $-1 #
edge $-1 $335 0 $225 0.96668058231004217 $219 $336 forward 7 unknown #
face $-1 $337 $338 $2 $-1 $339 forward single #
loop $-1 $340 $341 $220 #
plane-surface $-1 0 79.5 0 0 -1 0 -1 0 0 forward_v I I I I #
coedge $-1 $342 $343 $344 $345 forward $221 $-1 #
coedge $-1 $223 $342 $285 $346 forward $221 $-1 #
vertex $-1 $224 $347 #
ellipse-curve $-1 -30 54.201734968294659 -4.9737991503207013e-014 1 -2.542521808964135e-016 3.8566142971391235e-031 -7.1054273576010019e-015 -27.946377224964174 4.2390353380272749e-014 1 I I #
point $-1 -30.000000000000007 26.255357743330485 -7.3476381229342651e-015 #
coedge $-1 $348 $349 $227 $277 reversed $350 $-1 #
edge $-1 $351 -2.5697748128756792e-017 $280 0.60450275484142357 $227 $352 forward 7 unknown #
coedge $-1 $353 $228 $349 $354 reversed $279 $-1 #
loop $-1 $-1 $228 $355 #
vertex $-1 $229 $356 #
ellipse-curve $-1 30 54.20173496829468 7.1054273576010019e-015 -1 -1.4442402366489399e-016 -2.0925074164510023e-016 7.1054273576010019e-015 -15.874507866387503 -23.000000000000007 1 I I #
point $-1 30.000000000000007 26.255357743330485 3.6738190614671326e-015 #
coedge $-1 $357 $358 $232 $284 reversed $359 $-1 #
edge $-1 $288 0 $351 1.9333611646200921 $232 $360 forward 7 unknown #
coedge $-1 $361 $233 $272 $346 reversed $287 $-1 #
coedge $-1 $233 $361 $357 $362 forward $287 $-1 #
loop $-1 $-1 $286 $235 #
vertex $-1 $284 $363 #
ellipse-curve $-1 -26.500000000000007 54.201734968294431 -26.499999999999993 0.70710678118654746 -1.5418648877254053e-016 0.70710678118654757 -3.4999999999999858 -15.874507866387255 3.4999999999999822 1 I I #
face $-1 $364 $359 $2 $-1 $365 reversed single #
plane-surface $-1 -30 79.5 -23 0.70710678118654757 0 0.70710678118654757 0.70710678118654757 0 -0.70710678118654757 forward_v I I I I #
face $-1 $366 $367 $2 $-1 $368 forward single #
loop $-1 $-1 $369 $237 #
sphere-surface $-1 0 54.201734968294716 0 36 1 0 0 0 0 1 forward_v I I I I #
coedge $-1 $370 $304 $240 $297 reversed $238 $-1 #
coedge $-1 $240 $242 $369 $371 forward $204 $-1 #
edge $-1 $372 4.2632564145606011e-014 $306 30.527351504148925 $295 $373 forward 7 unknown #
coedge $-1 $241 $316 $374 $375 reversed $179 $-1 #
coedge $-1 $376 $369 $241 $300 reversed $293 $-1 #
edge $-1 $377 0 $301 0.27032146975129856 $299 $378 forward 7 unknown #
vertex $-1 $300 $379 #
straight-curve $-1 20.928932188134524 69.465410720369192 25 0 -1 0 I I #
coedge $-1 $254 $244 $256 $322 reversed $157 $-1 #
coedge $-1 $295 $380 $244 $305 forward $238 $-1 #
edge $-1 $381 0 $306 0.94066896268135147 $244 $382 forward 7 unknown #
vertex $-1 $305 $383 #
ellipse-curve $-1 22.964466094067262 54.201734968291873 22.964466094067262 -0.70710678118654735 -1.1043946095506721e-015 -0.70710678118654768 2.035533905932752 -15.263675752071606 -2.0355339059327271 1 I I #
coedge $-1 $247 $254 $257 $324 forward $157 $-1 #
coedge $-1 $384 $385 $247 $310 forward $386 $-1 #
edge $-1 $314 0 $387 0.94066896268135003 $247 $388 forward 7 unknown #
coedge $-1 $389 $248 $385 $390 reversed $313 $-1 #
coedge $-1 $248 $389 $250 $317 forward $313 $-1 #
loop $-1 $-1 $312 $391 #
vertex $-1 $249 $392 #
ellipse-curve $-1 -22.964466094067156 54.201734968293039 22.964466094067369 0.70710678118654746 4.7120836674154901e-016 -0.70710678118654757 2.0355339059326383 -15.263675752072828 2.0355339059326276 1 I I #
coedge $-1 $298 $250 $393 $394 forward $179 $-1 #
edge $-1 $395 4.2632564145606011e-014 $252 30.527351504148982 $312 $396 forward 7 unknown #
point $-1 20.928932188134532 38.938059216220267 25.000000000000018 #
point $-1 -20.928932188134517 38.938059216220211 24.999999999999996 #
ellipse-curve $-1 0 24.961351933867824 0 0 -1 0 21 0 2.5716733430269922e-015 1 I I #
coedge $-1 $397 $256 $380 $398 reversed $258 $-1 #
edge $-1 $214 -3.508853016099259e-016 $381 0.14482093599602849 $303 $399 forward 7 unknown #
coedge $-1 $257 $400 $384 $401 reversed $258 $-1 #
edge $-1 $216 0 $387 0.14482093599602849 $308 $402 forward 7 unknown #
face $-1 $403 $258 $2 $-1 $404 reversed single #
coedge $-1 $265 $262 $405 $406 forward $192 $-1 #
coedge $-1 $407 $408 $262 $328 reversed $409 $-1 #
edge $-1 $330 -2.5697748128756444e-017 $410 0.60450275484142157 $262 $411 forward 7 unknown #
coedge $-1 $263 $412 $407 $413 forward $279 $-1 #
vertex $-1 $328 $414 #
ellipse-curve $-1 30 54.201734968294588 8.1712414612411521e-014 -1 -2.5425218089641419e-016 -7.0998408678162043e-031 7.1054273576010019e-015 -27.946377224964102 -7.803859555094439e-014 1 I I #
coedge $-1 $415 $416 $265 $333 reversed $417 $-1 #
edge $-1 $418 2.5697748128758949e-017 $335 0.60450275484145088 $265 $419 forward 7 unknown #
coedge $-1 $343 $266 $416 $420 reversed $221 $-1 #
vertex $-1 $333 $421 #
ellipse-curve $-1 -30 54.201734968294815 -7.460698725481052e-014 1 0 0 0 -15.874507866387638 23.000000000000075 1 I I #
face $-1 $422 $423 $2 $-1 $424 forward single #
loop $-1 $-1 $425 $268 #
cone-surface $-1 0 95.524999999999991 0 0 -1 0 -9 0 0 1 I I 0 1 9 forward I I I I #
loop $-1 $-1 $426 $220 #
coedge $-1 $427 $427 $425 $428 reversed $269 $-1 #
coedge $-1 $272 $271 $429 $430 reversed $221 $-1 #
coedge $-1 $271 $334 $431 $432 reversed $221 $-1 #
coedge $-1 $426 $433 $271 $345 reversed $340 $-1 #
edge $-1 $434 0 $435 23.748497753382019 $344 $436 forward 7 unknown #
edge $-1 $437 2.8421709430404007e-014 $273 31.749015732775085 $272 $438 forward 7 unknown #
point $-1 -29.999999999999993 38.327227101907177 -23.000000000000011 #
coedge $-1 $439 $276 $358 $440 reversed $350 $-1 #
coedge $-1 $276 $439 $278 $354 forward $350 $-1 #
loop $-1 $-1 $349 $441 #
vertex $-1 $277 $442 #
ellipse-curve $-1 26.500000000000018 54.201734968294417 -26.499999999999982 -0.70710678118654768 -2.8267522941632479e-016 0.70710678118654746 -3.4999999999999822 -15.874507866387241 -3.4999999999999893 1 I I #
coedge $-1 $443 $278 $444 $445 reversed $279 $-1 #
edge $-1 $446 1.4210854715202004e-014 $280 31.749015732775071 $349 $447 forward 7 unknown #
face $-1 $202 $279 $2 $-1 $448 reversed single #
point $-1 30.000000000000007 38.327227101907177 -23 #
coedge $-1 $449 $283 $286 $362 reversed $359 $-1 #
coedge $-1 $283 $450 $348 $440 forward $359 $-1 #
loop $-1 $-1 $450 $290 #
ellipse-curve $-1 7.1054273576010019e-015 54.20173496829473 -30 4.1850148329019948e-016 2.8884804732978788e-016 1 -23.000000000000032 -15.874507866387553 1.4210854715202004e-014 1 I I #
coedge $-1 $286 $285 $451 $452 reversed $287 $-1 #
edge $-1 $453 4.2632564145606011e-014 $288 31.749015732775099 $286 $454 forward 7 unknown #
point $-1 -23.000000000000025 38.327227101907177 -29.999999999999986 #
face $-1 $441 $455 $2 $-1 $456 forward single #
plane-surface $-1 -23 79.5 -30 0 0 1 1 0 0 forward_v I I I I #
face $-1 $457 $458 $2 $-1 $459 reversed single #
loop $-1 $460 $461 $292 #
plane-surface $-1 0 74.5 0 0 -1 0 -1 0 0 forward_v I I I I #
coedge $-1 $299 $462 $296 $371 reversed $293 $-1 #
coedge $-1 $463 $295 $462 $464 forward $238 $-1 #
edge $-1 $301 0 $372 0.37281448419561092 $369 $465 forward 7 unknown #
vertex $-1 $464 $466 #
straight-curve $-1 25 69.465410720369192 20.928932188134524 0 -1 0 I I #
coedge $-1 $467 $468 $298 $375 forward $460 $-1 #
edge $-1 $377 -2.8421709430404007e-014 $469 32.185738251756845 $374 $470 forward 7 unknown #
coedge $-1 $462 $299 $468 $471 reversed $293 $-1 #
vertex $-1 $375 $472 #
ellipse-curve $-1 1.3855583347321954e-012 54.201734968296137 25 1.7041238830002499e-016 2.1494463139810169e-016 -1 16.092869125877048 20.298265031703835 7.1054273576010019e-015 1 I I #
point $-1 20.928932188134535 69.46541072036915 25.000000000000021 #
coedge $-1 $304 $473 $321 $398 forward $238 $-1 #
vertex $-1 $322 $474 #
ellipse-curve $-1 25 54.201734968294573 6.7501559897209518e-014 -1 -4.1145297115124937e-016 -1.0235634537686888e-030 1.0658141036401503e-014 -25.903667693977084 -6.4440044012653575e-014 1 I I #
point $-1 25.000000000000014 38.938059216220267 20.928932188134535 #
coedge $-1 $475 $309 $323 $401 forward $386 $-1 #
coedge $-1 $309 $476 $311 $390 forward $386 $-1 #
loop $-1 $-1 $385 $477 #
vertex $-1 $310 $478 #
ellipse-curve $-1 -25 54.201734968294616 4.2632564145606011e-014 1 -4.0407950546326768e-016 5.5405740437760161e-016 -1.7763568394002505e-014 -15.263675752074349 20.928932188134489 1 I I #
coedge $-1 $312 $311 $479 $480 forward $313 $-1 #
edge $-1 $481 4.2632564145606011e-014 $314 30.527351504148925 $311 $482 forward 7 unknown #
face $-1 $483 $313 $2 $-1 $484 forward single #
point $-1 -25.000000000000018 38.938059216220267 20.928932188134532 #
coedge $-1 $479 $485 $316 $394 reversed $486 $-1 #
edge $-1 $395 0 $469 0.27032146975127591 $393 $487 forward 7 unknown #
vertex $-1 $480 $488 #
straight-curve $-1 -20.928932188134524 69.465410720369192 25 0 -1 0 I I #
coedge $-1 $489 $321 $490 $491 reversed $258 $-1 #
edge $-1 $492 0 $381 0.94066896268134981 $321 $493 forward 7 unknown #
ellipse-curve $-1 0 54.201734968294716 0 -1.2246063538223785e-016 -8.7651211691223529e-032 1 21 -29.240383034426891 2.5716733430269922e-015 1 I I #
coedge $-1 $323 $489 $494 $495 reversed $258 $-1 #
edge $-1 $387 8.903270740308173e-062 $496 0.94066896268135269 $323 $497 forward 7 unknown #
ellipse-curve $-1 0 54.201734968294716 0 2.449212707644757e-016 -1.7530242338244706e-031 -1 -21 -29.240383034426891 -5.1433466860539845e-015 1 I I #
face $-1 $498 $499 $2 $-1 $500 forward single #
sphere-surface $-1 0 54.201734968294716 0 36 1 0 0 0 0 1 forward_v I I I I #
coedge $-1 $501 $502 $326 $406 reversed $503 $-1 #
edge $-1 $410 0 $418 1.9333611646200943 $326 $504 forward 7 unknown #
coedge $-1 $505 $327 $329 $413 reversed $409 $-1 #
coedge $-1 $327 $505 $501 $506 forward $409 $-1 #
loop $-1 $-1 $408 $507 #
vertex $-1 $406 $508 #
ellipse-curve $-1 26.5 54.201734968294531 26.5 -0.70710678118654746 -2.8267522941632094e-016 -0.70710678118654757 3.5 -15.874507866387354 -3.4999999999999929 1 I I #
coedge $-1 $329 $443 $509 $510 reversed $279 $-1 #
edge $-1 $511 2.8421709430404007e-014 $330 31.749015732775085 $329 $512 forward 7 unknown #
point $-1 30 38.327227101907177 23.000000000000007 #
coedge $-1 $513 $332 $502 $514 reversed $417 $-1 #
coedge $-1 $332 $513 $334 $420 forward $417 $-1 #
loop $-1 $-1 $416 $515 #
vertex $-1 $333 $516 #
ellipse-curve $-1 -26.500000000000007 54.201734968293685 26.499999999999993 0.70710678118654757 -1.2848874064379476e-016 -0.70710678118654757 3.4999999999999893 -15.874507866386509 3.4999999999999929 1 I I #
edge $-1 $517 2.8421709430404007e-014 $335 31.749015732775085 $416 $518 forward 7 unknown #
point $-1 -30 38.327227101907177 23 #
face $-1 $519 $520 $2 $-1 $521 reversed single #
loop $-1 $-1 $522 $337 #
cone-surface $-1 0 95.524999999999991 0 0 -1 0 -9 0 0 1 I I 0 1 9 forward I I I I #
coedge $-1 $523 $524 $341 $428 forward $338 $-1 #
coedge $-1 $525 $344 $526 $527 reversed $340 $-1 #
coedge $-1 $341 $341 $528 $529 forward $269 $-1 #
edge $-1 $530 0 $531 3.1415926535897931 $341 $532 forward 7 unknown #
coedge $-1 $533 $451 $342 $430 forward $534 $-1 #
edge $-1 $437 0 $435 0.52783576106357022 $429 $535 forward 7 unknown #
coedge $-1 $536 $526 $343 $432 forward $537 $-1 #
edge $-1 $434 -4.3669719995497832e-016 $517 0.52783576106356822 $431 $538 forward 7 unknown #
coedge $-1 $344 $539 $533 $540 forward $340 $-1 #
vertex $-1 $345 $541 #
vertex $-1 $345 $542 #
straight-curve $-1 -30 79.5 11.874248876691006 0 0 -1 I I #
vertex $-1 $430 $543 #
straight-curve $-1 -30 70.076242834682262 -23 0 -1 0 I I #
coedge $-1 $349 $348 $544 $545 reversed $350 $-1 #
edge $-1 $546 2.8421709430404007e-014 $351 31.749015732775085 $358 $547 forward 7 unknown #
face $-1 $548 $350 $2 $-1 $549 reversed single #
point $-1 23.000000000000036 38.327227101907177 -29.999999999999972 #
coedge $-1 $412 $353 $550 $551 forward $279 $-1 #
coedge $-1 $544 $552 $353 $445 forward $455 $-1 #
edge $-1 $553 -2.1834859997748913e-016 $446 0.52783576106356822 $444 $554 forward 7 unknown #
vertex $-1 $545 $555 #
straight-curve $-1 30 70.076242834682247 -23 0 -1 0 I I #
plane-surface $-1 30 79.5 -23 -1 0 0 0 0 1 forward_v I I I I #
coedge $-1 $556 $357 $557 $558 reversed $359 $-1 #
coedge $-1 $358 $556 $559 $560 reversed $359 $-1 #
coedge $-1 $429 $557 $361 $452 forward $534 $-1 #
edge $-1 $453 -2.5697748128758616e-017 $437 0.60450275484144589 $451 $561 forward 7 unknown #
vertex $-1 $452 $562 #
straight-curve $-1 -23 70.076242834682276 -30 0 -1 0 I I #
loop $-1 $-1 $552 $364 #
sphere-surface $-1 0 54.201734968294716 0 41 1 0 0 0 0 1 forward_v I I I I #
face $-1 $563 $564 $2 $-1 $565 forward single #
loop $-1 $-1 $566 $366 #
cone-surface $-1 0 95.524999999999991 0 0 -1 0 -4 0 0 1 I I 0 1 4 forward I I I I #
loop $-1 $-1 $567 $292 #
coedge $-1 $568 $568 $569 $570 forward $367 $-1 #
coedge $-1 $369 $376 $370 $464 reversed $293 $-1 #
coedge $-1 $571 $370 $572 $573 reversed $238 $-1 #
edge $-1 $372 0 $574 0.27032146975127114 $462 $575 forward 7 unknown #
ellipse-curve $-1 22.964466094067262 54.201734968297572 22.964466094067262 -0.70710678118654768 1.4430756231462167e-015 -0.70710678118654735 -2.0355339059327271 15.263675752071578 2.0355339059327591 1 I I #
point $-1 25.000000000000018 69.46541072036915 20.928932188134539 #
coedge $-1 $576 $374 $485 $577 forward $460 $-1 #
coedge $-1 $374 $572 $376 $471 forward $460 $-1 #
vertex $-1 $577 $578 #
straight-curve $-1 16.092869125878405 74.5 25 -1 0 0 I I #
edge $-1 $574 8.3595113026135553e-016 $377 0.42690816585136215 $468 $579 forward 7 unknown #
point $-1 16.092869125878433 74.499999999999972 25.000000000000007 #
coedge $-1 $380 $571 $580 $581 forward $238 $-1 #
point $-1 25.000000000000011 28.298067274317489 3.0615158845559443e-015 #
coedge $-1 $582 $384 $583 $584 reversed $386 $-1 #
coedge $-1 $385 $585 $586 $587 forward $386 $-1 #
face $-1 $391 $386 $2 $-1 $588 forward single #
point $-1 -25.000000000000011 28.298067274317489 -6.1230317691118887e-015 #
coedge $-1 $586 $393 $389 $480 reversed $486 $-1 #
edge $-1 $481 -1.4725261460675761e-017 $395 0.37281448419561203 $479 $589 forward 7 unknown #
vertex $-1 $480 $590 #
straight-curve $-1 -25 69.465410720369192 20.928932188134524 0 -1 0 I I #
face $-1 $325 $486 $2 $-1 $591 reversed single #
plane-surface $-1 -19.464466094067262 79.5 26.464466094067262 0.70710678118654757 0 -0.70710678118654757 -0.70710678118654757 0 -0.70710678118654757 forward_v I I I I #
coedge $-1 $393 $586 $467 $577 reversed $486 $-1 #
loop $-1 $-1 $586 $483 #
ellipse-curve $-1 1.6342482922482304e-013 54.201734968294637 25 -4.432459235020765e-016 3.2326360437061082e-016 -1 -20.928932188134706 15.263675752074512 1.4210854715202004e-014 1 I I #
point $-1 -20.928932188134542 69.46541072036915 25.000000000000014 #
coedge $-1 $400 $397 $592 $593 reversed $258 $-1 #
coedge $-1 $580 $594 $397 $491 forward $499 $-1 #
edge $-1 $595 0 $492 0.37281448419561053 $397 $596 forward 7 unknown #
vertex $-1 $491 $597 #
ellipse-curve $-1 25 54.201734968294616 -3.907985046680551e-014 -1 -4.8489540655592123e-016 -6.648688852531219e-016 2.1316282072803006e-014 -15.263675752074349 -20.928932188134489 1 I I #
coedge $-1 $598 $583 $400 $495 forward $599 $-1 #
edge $-1 $496 0 $600 0.37281448419561181 $400 $601 forward 7 unknown #
vertex $-1 $401 $602 #
ellipse-curve $-1 -25 54.201734968294538 -8.8817841970012523e-014 1 -4.1145297115124997e-016 1.3135215351708875e-030 -1.0658141036401503e-014 -25.903667693977049 8.2694810200900637e-014 1 I I #
face $-1 $603 $604 $2 $-1 $605 forward single #
loop $-1 $-1 $594 $403 #
plane-surface $-1 19.464466094067262 79.5 -26.464466094067262 -0.70710678118654757 0 0.70710678118654757 0.70710678118654757 0 0.70710678118654757 forward_v I I I I #
coedge $-1 $606 $405 $408 $506 reversed $503 $-1 #
coedge $-1 $405 $607 $415 $514 forward $503 $-1 #
loop $-1 $-1 $608 $609 #
ellipse-curve $-1 -7.1054273576010019e-015 54.20173496829468 30 0 0 -1 23.000000000000007 -15.874507866387503 0 1 I I #
coedge $-1 $408 $407 $610 $611 reversed $409 $-1 #
edge $-1 $612 2.8421709430404007e-014 $410 31.749015732775085 $408 $613 forward 7 unknown #
face $-1 $355 $409 $2 $-1 $614 reversed single #
point $-1 23 38.327227101907177 30 #
coedge $-1 $615 $610 $412 $510 forward $616 $-1 #
edge $-1 $511 -3.5884723798329742e-048 $617 0.52783576106356822 $509 $618 forward 7 unknown #
vertex $-1 $510 $619 #
straight-curve $-1 30 70.076242834682262 23 0 -1 0 I I #
coedge $-1 $416 $415 $536 $620 reversed $417 $-1 #
edge $-1 $621 -2.8421709430404007e-014 $418 31.749015732775099 $415 $622 forward 7 unknown #
face $-1 $507 $417 $2 $-1 $623 reversed single #
point $-1 -23.000000000000018 38.327227101907177 29.999999999999986 #
vertex $-1 $620 $624 #
straight-curve $-1 -30 70.076242834682262 23 0 -1 0 I I #
face $-1 $609 $537 $2 $-1 $625 forward single #
loop $-1 $-1 $626 $422 #
plane-surface $-1 0 89.5 0 0 -1 0 -1 0 0 forward_v I I I I #
coedge $-1 $627 $628 $626 $629 forward $423 $-1 #
coedge $-1 $630 $425 $627 $631 forward $338 $-1 #
coedge $-1 $425 $630 $628 $632 reversed $338 $-1 #
coedge $-1 $633 $426 $608 $634 reversed $340 $-1 #
coedge $-1 $431 $635 $426 $527 forward $537 $-1 #
edge $-1 $636 0 $434 0.81702107827612824 $426 $637 forward 7 unknown #
coedge $-1 $628 $627 $427 $529 reversed $423 $-1 #
edge $-1 $530 0 $531 3.1415926535897931 $427 $638 forward 7 unknown #
vertex $-1 $529 $639 #
vertex $-1 $529 $640 #
ellipse-curve $-1 0 79.5 -4.4408920985006262e-016 0 1 0 9 0 1.5462349282902021e-015 1 I I #
coedge $-1 $557 $429 $433 $540 reversed $534 $-1 #
loop $-1 $-1 $533 $548 #
ellipse-curve $-1 -30 54.201734968294446 2.2026824808563106e-013 1 0 0 0 15.874507866387788 -23.000000000000234 1 I I #
coedge $-1 $635 $431 $513 $620 forward $537 $-1 #
loop $-1 $-1 $635 $519 #
ellipse-curve $-1 -30 54.201734968294389 -2.8066438062523957e-013 1 2.3016003131384958e-016 1.0803023408374242e-016 -7.1054273576010019e-015 25.298265031705597 11.874248876691292 1 I I #
coedge $-1 $433 $641 $556 $642 reversed $340 $-1 #
edge $-1 $643 0 $435 0.81702107827612802 $433 $644 forward 7 unknown #
point $-1 -30 79.5 11.874248876691006 #
point $-1 -30 79.5 -11.874248876691013 #
point $-1 -30 70.076242834682233 -23.000000000000014 #
coedge $-1 $559 $444 $439 $545 forward $455 $-1 #
edge $-1 $446 5.139549625751645e-017 $546 0.60450275484144367 $544 $645 forward 7 unknown #
vertex $-1 $560 $646 #
straight-curve $-1 23 70.076242834682262 -30 0 -1 0 I I #
face $-1 $647 $534 $2 $-1 $648 forward single #
plane-surface $-1 23 79.5 -30 -0.70710678118654757 0 0.70710678118654757 0.70710678118654757 0 0.70710678118654757 forward_v I I I I #
coedge $-1 $641 $633 $443 $551 reversed $340 $-1 #
edge $-1 $553 0 $617 23.748497753382036 $550 $649 forward 7 unknown #
coedge $-1 $444 $559 $641 $650 reversed $455 $-1 #
vertex $-1 $650 $651 #
ellipse-curve $-1 30 54.201734968294389 2.8066438062523957e-013 -1 1.1508001565692477e-016 -5.4015117041871216e-017 3.5527136788005009e-015 25.298265031705597 -11.874248876691295 1 I I #
point $-1 30.000000000000014 70.076242834682233 -23.000000000000004 #
coedge $-1 $450 $449 $539 $642 forward $359 $-1 #
coedge $-1 $451 $533 $449 $558 forward $534 $-1 #
edge $-1 $643 -3.6391433329582456e-016 $453 0.5278357610635761 $557 $652 forward 7 unknown #
coedge $-1 $552 $544 $450 $560 forward $455 $-1 #
edge $-1 $546 0 $653 0.52783576106357988 $559 $654 forward 7 unknown #
ellipse-curve $-1 -26.500000000000007 54.201734968295611 -26.499999999999993 0.70710678118654779 1.002212177021586e-015 0.70710678118654735 3.4999999999999751 15.874507866386622 -3.5 1 I I #
point $-1 -23.000000000000032 70.076242834682233 -29.999999999999993 #
face $-1 $655 $656 $2 $-1 $657 reversed single #
loop $-1 $-1 $658 $457 #
plane-surface $-1 0 84.5 0 0 -1 0 -1 0 0 forward_v I I I I #
coedge $-1 $659 $660 $661 $662 forward $458 $-1 #
coedge $-1 $663 $576 $664 $665 reversed $460 $-1 #
coedge $-1 $461 $461 $666 $667 reversed $367 $-1 #
coedge $-1 $660 $659 $461 $570 reversed $458 $-1 #
edge $-1 $668 0 $669 3.1415926535897931 $461 $670 forward 7 unknown #
coedge $-1 $473 $463 $671 $672 forward $238 $-1 #
coedge $-1 $468 $673 $463 $573 forward $460 $-1 #
edge $-1 $674 0 $574 32.185738251756845 $572 $675 forward 7 unknown #
vertex $-1 $471 $676 #
ellipse-curve $-1 25 54.201734968294318 -5.0448534238967113e-013 -1 4.0407950546325757e-016 5.5405740437758485e-016 1.7763568394002505e-014 15.263675752074832 20.928932188135043 1 I I #
coedge $-1 $567 $467 $585 $677 forward $460 $-1 #
edge $-1 $469 8.3595113026135701e-016 $678 0.42690816585136326 $467 $679 forward 7 unknown #
point $-1 -16.092869125878444 74.499999999999972 25.000000000000007 #
ellipse-curve $-1 5.3290705182007514e-014 74.5 4.9737991503207013e-014 0 -1 0 24.999999999999947 0 16.092869125878355 1 I I #
coedge $-1 $680 $490 $473 $581 reversed $499 $-1 #
edge $-1 $681 4.2632564145606011e-014 $492 30.527351504148925 $580 $682 forward 7 unknown #
coedge $-1 $585 $475 $683 $684 forward $386 $-1 #
coedge $-1 $494 $685 $475 $584 forward $599 $-1 #
edge $-1 $686 4.2632564145606011e-014 $496 30.527351504148925 $475 $687 forward 7 unknown #
coedge $-1 $476 $582 $576 $677 reversed $386 $-1 #
coedge $-1 $485 $479 $476 $587 reversed $486 $-1 #
edge $-1 $678 -1.6942896828858866e-016 $481 0.27032146975131127 $586 $688 forward 7 unknown #
plane-surface $-1 -25 79.5 23 1 0 0 0 0 -1 forward_v I I I I #
ellipse-curve $-1 -22.964466094067269 54.201734968297615 22.964466094067255 0.70710678118654735 1.2810977470787913e-015 -0.70710678118654768 -2.0355339059327555 15.263675752071535 -2.0355339059327271 1 I I #
point $-1 -25.000000000000025 69.46541072036915 20.928932188134528 #
sphere-surface $-1 0 54.201734968294716 0 36 1 0 0 0 0 1 forward_v I I I I #
coedge $-1 $689 $690 $489 $593 forward $604 $-1 #
edge $-1 $600 0 $595 1.8813379253626958 $489 $691 forward 7 unknown #
coedge $-1 $490 $680 $689 $692 forward $499 $-1 #
vertex $-1 $593 $693 #
ellipse-curve $-1 22.964466094067266 54.201734968291873 -22.964466094067259 -0.70710678118654768 -1.1191198710113476e-015 0.70710678118654746 -2.0355339059327306 -15.263675752071606 -2.0355339059327555 1 I I #
point $-1 25.000000000000021 38.938059216220267 -20.928932188134528 #
coedge $-1 $685 $494 $690 $694 reversed $599 $-1 #
loop $-1 $-1 $583 $695 #
vertex $-1 $495 $696 #
ellipse-curve $-1 -22.964466094067259 54.201734968291817 -22.964466094067266 0.70710678118654735 -1.2810977470787888e-015 0.70710678118654768 -2.0355339059327555 -15.263675752071549 2.0355339059327271 1 I I #
point $-1 -25.000000000000014 38.938059216220267 -20.928932188134539 #
face $-1 $127 $697 $2 $-1 $698 reversed single #
loop $-1 $-1 $699 $498 #
plane-surface $-1 -23 79.5 -25 0 0 1 1 0 0 forward_v I I I I #
coedge $-1 $608 $501 $700 $701 reversed $503 $-1 #
coedge $-1 $502 $608 $635 $702 reversed $503 $-1 #
coedge $-1 $607 $606 $525 $634 forward $503 $-1 #
face $-1 $515 $503 $2 $-1 $703 reversed single #
coedge $-1 $509 $700 $505 $611 forward $616 $-1 #
edge $-1 $612 0 $511 0.60450275484144356 $610 $704 forward 7 unknown #
vertex $-1 $611 $705 #
straight-curve $-1 23 70.076242834682262 30 0 -1 0 I I #
plane-surface $-1 30 79.5 23 -0.70710678118654757 0 -0.70710678118654757 -0.70710678118654757 0 0.70710678118654757 forward_v I I I I #
coedge $-1 $700 $509 $633 $706 forward $616 $-1 #
loop $-1 $-1 $615 $647 #
vertex $-1 $551 $707 #
ellipse-curve $-1 30 54.201734968294389 -2.7355895326763857e-013 -1 1.4442402366489273e-016 2.0925074164509646e-016 7.1054273576010019e-015 15.874507866387845 23.000000000000284 1 I I #
point $-1 30.000000000000007 70.076242834682233 23.000000000000011 #
edge $-1 $517 2.5697748128755636e-017 $621 0.6045027548414138 $536 $708 forward 7 unknown #
vertex $-1 $620 $709 #
straight-curve $-1 -23 70.076242834682276 30 0 -1 0 I I #
plane-surface $-1 -23 79.5 30 0.70710678118654757 0 -0.70710678118654757 -0.70710678118654757 0 -0.70710678118654757 forward_v I I I I #
point $-1 -30.000000000000014 70.076242834682233 23 #
sphere-surface $-1 0 54.201734968294716 0 41 1 0 0 0 0 1 forward_v I I I I #
coedge $-1 $710 $710 $522 $629 reversed $520 $-1 #
coedge $-1 $528 $522 $523 $631 reversed $423 $-1 #
coedge $-1 $522 $528 $524 $632 forward $423 $-1 #
edge $-1 $711 1.2246063538223773e-016 $712 3.1415926535897931 $522 $713 forward 7 unknown #
coedge $-1 $524 $523 $710 $714 reversed $338 $-1 #
edge $-1 $531 0 $712 10 $627 $715 forward 7 unknown #
edge $-1 $530 0 $711 9.9999999999999858 $628 $716 forward 7 unknown #
coedge $-1 $550 $525 $615 $706 reversed $340 $-1 #
edge $-1 $717 -7.1054273576010019e-015 $636 23.748497753382015 $525 $718 forward 7 unknown #
coedge $-1 $526 $536 $607 $702 forward $537 $-1 #
vertex $-1 $634 $719 #
ellipse-curve $-1 4.6185277824406512e-014 79.5 -4.6185277824406512e-014 0 -1 0 -11.874248876691052 0 30.000000000000046 1 I I #
ellipse-curve $-1 0 79.5 0 0 -1 0 9 0 1.1021457184401395e-015 1 I I #
point $-1 9 79.5 1.1021457184401395e-015 #
point $-1 -9 79.5 0 #
coedge $-1 $539 $550 $552 $650 forward $340 $-1 #
edge $-1 $643 0 $653 23.748497753382033 $539 $720 forward 7 unknown #
vertex $-1 $540 $721 #
ellipse-curve $-1 4.2632564145606011e-014 79.5 4.6185277824406512e-014 0 1 0 -11.87424887669105 0 -30.000000000000046 1 I I #
ellipse-curve $-1 26.500000000000004 54.201734968295483 -26.499999999999996 -0.70710678118654735 7.1953694760523011e-016 0.70710678118654768 3.5000000000000107 15.87450786638675 3.4999999999999929 1 I I #
point $-1 23.000000000000014 70.076242834682233 -30.000000000000007 #
face $-1 $-1 $616 $2 $-1 $722 forward single #
sphere-surface $-1 0 54.201734968294716 0 41 1 0 0 0 0 1 forward_v I I I I #
straight-curve $-1 30 79.5 -11.874248876691015 0 0 1 I I #
edge $-1 $553 0 $653 0.81702107827612813 $641 $723 forward 7 unknown #
point $-1 30 79.5 -11.874248876691015 #
ellipse-curve $-1 -3.5527136788005009e-015 54.201734968294652 -30 -1.0803023408374262e-016 2.3016003131385308e-016 1 -11.874248876691009 25.298265031705334 -7.1054273576010019e-015 1 I I #
vertex $-1 $642 $724 #
ellipse-curve $-1 1.2789769243681803e-013 54.201734968294858 -30 2.0925074164510174e-016 1.4442402366489461e-016 1 22.999999999999886 15.874507866387376 -7.1054273576010019e-015 1 I I #
face $-1 $695 $725 $2 $-1 $726 reversed single #
loop $-1 $-1 $666 $563 #
cone-surface $-1 0 95.524999999999991 0 0 -1 0 -4 0 0 1 I I 0 1 4 forward I I I I #
coedge $-1 $661 $661 $727 $728 forward $564 $-1 #
coedge $-1 $569 $566 $729 $730 reversed $458 $-1 #
coedge $-1 $566 $569 $731 $732 forward $458 $-1 #
coedge $-1 $658 $658 $566 $662 reversed $564 $-1 #
edge $-1 $733 -1.2246063538223773e-016 $734 3.1415926535897931 $661 $735 forward 7 unknown #
coedge $-1 $673 $567 $736 $737 forward $460 $-1 #
coedge $-1 $683 $738 $567 $665 forward $725 $-1 #
edge $-1 $739 0 $740 0.42690816585136182 $567 $741 forward 7 unknown #
coedge $-1 $729 $731 $568 $667 forward $656 $-1 #
edge $-1 $668 0 $669 3.1415926535897931 $568 $742 forward 7 unknown #
vertex $-1 $667 $743 #
vertex $-1 $667 $744 #
ellipse-curve $-1 -4.4408920985006262e-016 74.5 -2.2204460492503131e-016 0 1 0 4 0 7.1188714645398221e-016 1 I I #
coedge $-1 $745 $746 $571 $672 reversed $697 $-1 #
edge $-1 $674 -1.5248607145971307e-015 $681 0.27032146975129501 $671 $747 forward 7 unknown #
coedge $-1 $572 $663 $745 $748 reversed $460 $-1 #
vertex $-1 $573 $749 #
straight-curve $-1 25 74.5 -16.092869125878405 0 0 1 I I #
point $-1 25.000000000000007 74.499999999999972 16.09286912587844 #
edge $-1 $678 0 $740 32.18573825175681 $576 $750 forward 7 unknown #
vertex $-1 $677 $751 #
ellipse-curve $-1 -7.638334409421077e-014 74.5 7.2830630415410269e-014 0 -1 0 -16.09286912587833 0 24.999999999999929 1 I I #
coedge $-1 $594 $580 $746 $752 forward $499 $-1 #
vertex $-1 $672 $753 #
straight-curve $-1 25 69.465410720369192 -20.928932188134524 0 -1 0 I I #
coedge $-1 $754 $664 $582 $684 reversed $725 $-1 #
edge $-1 $686 0 $740 0.27032146975129573 $683 $755 forward 7 unknown #
coedge $-1 $583 $598 $754 $756 forward $599 $-1 #
vertex $-1 $684 $757 #
straight-curve $-1 -25 69.465410720369192 -20.928932188134524 0 -1 0 I I #
ellipse-curve $-1 -25 54.201734968296833 2.2453150450019166e-012 1 1.1821954726896203e-015 9.3726813565016504e-016 -3.907985046680551e-014 20.298265031703139 16.092869125876142 1 I I #
coedge $-1 $758 $592 $594 $692 reversed $604 $-1 #
coedge $-1 $592 $699 $598 $694 forward $604 $-1 #
ellipse-curve $-1 3.5527136788005009e-015 54.201734968294652 -25 -6.6486888525312042e-016 -4.8489540655592025e-016 1 -20.928932188134532 -15.263675752074384 -2.1316282072803006e-014 1 I I #
edge $-1 $759 4.2632564145606011e-014 $595 30.527351504148925 $689 $760 forward 7 unknown #
point $-1 20.928932188134535 38.938059216220267 -25.000000000000014 #
edge $-1 $761 4.2632564145606011e-014 $600 30.527351504148925 $598 $762 forward 7 unknown #
face $-1 $477 $599 $2 $-1 $763 forward single #
point $-1 -20.928932188134528 38.938059216220267 -25.000000000000021 #
loop $-1 $-1 $746 $603 #
sphere-surface $-1 0 54.201734968294716 0 36 1 0 0 0 0 1 forward_v I I I I #
coedge $-1 $690 $736 $738 $764 forward $604 $-1 #
coedge $-1 $610 $615 $606 $701 forward $616 $-1 #
edge $-1 $717 0 $612 0.52783576106356289 $700 $765 forward 7 unknown #
edge $-1 $621 0 $636 0.52783576106357788 $635 $766 forward 7 unknown #
plane-surface $-1 23 79.5 30 0 0 -1 -1 0 0 forward_v I I I I #
ellipse-curve $-1 26.499999999999996 54.201734968295483 26.500000000000004 -0.70710678118654757 4.368617181888897e-016 -0.70710678118654746 -3.4999999999999929 15.87450786638675 3.5000000000000036 1 I I #
point $-1 23.000000000000004 70.076242834682233 30.000000000000007 #
edge $-1 $617 3.822332162753188e-016 $717 0.8170210782761278 $633 $767 forward 7 unknown #
point $-1 30.000000000000004 79.499999999999986 11.874248876691022 #
ellipse-curve $-1 -26.499999999999918 54.201734968294645 26.500000000000082 0.70710678118654746 5.6535045883262393e-016 -0.70710678118654768 -3.5000000000000959 15.874507866387589 -3.5000000000000817 1 I I #
point $-1 -22.999999999999968 70.076242834682304 29.999999999999993 #
coedge $-1 $626 $626 $630 $714 forward $520 $-1 #
vertex $-1 $632 $768 #
vertex $-1 $631 $769 #
ellipse-curve $-1 0 89.5 0 0 -1 0 9 0 0 1 I I #
edge $-1 $711 -1.2246063538223773e-016 $712 3.1415926535897931 $710 $770 forward 7 unknown #
straight-curve $-1 -9 79.5 -2.2042914368802791e-015 0 1 0 I I #
straight-curve $-1 9 79.5 1.1021457184401395e-015 0 1 0 I I #
vertex $-1 $706 $771 #
straight-curve $-1 11.874248876691009 79.5 30 -1 0 0 I I #
point $-1 -11.874248876691006 79.5 30 #
straight-curve $-1 -11.874248876691007 79.5 -30 1 0 0 I I #
point $-1 -11.874248876691007 79.5 -30 #
sphere-surface $-1 0 54.201734968294716 0 41 1 0 0 0 0 1 forward_v I I I I #
ellipse-curve $-1 -2.3092638912203256e-014 79.5 2.6645352591003757e-014 0 1 0 30.000000000000021 0 -11.874248876691041 1 I I #
point $-1 11.874248876691023 79.499999999999986 -30.000000000000004 #
loop $-1 $-1 $754 $655 #
sphere-surface $-1 0 54.201734968294716 0 36 1 0 0 0 0 1 forward_v I I I I #
coedge $-1 $731 $729 $658 $728 reversed $656 $-1 #
edge $-1 $733 1.2246063538223773e-016 $734 3.1415926535897931 $727 $772 forward 7 unknown #
coedge $-1 $727 $666 $659 $730 forward $656 $-1 #
edge $-1 $669 0 $734 10 $729 $773 forward 7 unknown #
coedge $-1 $666 $727 $660 $732 reversed $656 $-1 #
edge $-1 $668 0 $733 9.9999999999999858 $731 $774 forward 7 unknown #
vertex $-1 $732 $775 #
vertex $-1 $728 $776 #
ellipse-curve $-1 0 84.5 0 0 1 0 4 0 0 1 I I #
coedge $-1 $699 $758 $663 $737 reversed $604 $-1 #
edge $-1 $739 0 $777 32.185738251756845 $663 $778 forward 7 unknown #
coedge $-1 $664 $754 $699 $764 reversed $725 $-1 #
vertex $-1 $737 $779 #
vertex $-1 $677 $780 #
ellipse-curve $-1 -7.1054273576010019e-015 74.5 -5.3290705182007514e-015 0 1 0 -16.092869125878398 0 -24.999999999999993 1 I I #
ellipse-curve $-1 -3.3306690738754696e-016 74.5 0 0 -1 0 4 0 4.898425415289509e-016 1 I I #
point $-1 4 74.5 4.898425415289509e-016 #
point $-1 -4 74.5 0 #
coedge $-1 $781 $671 $673 $748 forward $697 $-1 #
coedge $-1 $671 $781 $680 $752 reversed $697 $-1 #
ellipse-curve $-1 25 54.201734968295909 -1.1439738045737613e-012 -1 3.2241694709714799e-016 -2.5561858245003489e-016 1.0658141036401503e-014 20.298265031704062 -16.092869125877289 1 I I #
edge $-1 $674 0 $777 0.42690816585136188 $673 $782 forward 7 unknown #
point $-1 25 74.5 -16.092869125878405 #
straight-curve $-1 -25 74.5 16.092869125878405 0 0 -1 I I #
point $-1 -25 74.5 16.092869125878405 #
edge $-1 $681 0 $759 0.37281448419561053 $746 $783 forward 7 unknown #
point $-1 25.000000000000025 69.46541072036915 -20.928932188134532 #
coedge $-1 $738 $683 $685 $756 reversed $725 $-1 #
ellipse-curve $-1 -25 54.201734968295753 -1.1510792319313623e-012 1 4.0407950546328765e-016 -5.5405740437763445e-016 -1.7763568394002505e-014 15.263675752073397 -20.928932188133391 1 I I #
edge $-1 $761 2.9450522921351472e-017 $686 0.37281448419561181 $754 $784 forward 7 unknown #
point $-1 -25.000000000000018 69.46541072036915 -20.928932188134542 #
coedge $-1 $736 $689 $781 $785 forward $604 $-1 #
vertex $-1 $785 $786 #
straight-curve $-1 20.928932188134524 69.465410720369192 -25 0 -1 0 I I #
vertex $-1 $764 $787 #
straight-curve $-1 -20.928932188134524 69.465410720369192 -25 0 -1 0 I I #
plane-surface $-1 -26.464466094067262 79.5 -19.464466094067262 0.70710678118654757 0 0.70710678118654757 0.70710678118654757 0 -0.70710678118654757 forward_v I I I I #
edge $-1 $739 -1.5248607145971892e-015 $761 0.27032146975130028 $738 $788 forward 7 unknown #
ellipse-curve $-1 -4.6895820560166612e-013 54.201734968294176 30 5.4015117041871025e-017 1.1508001565692349e-016 -1 11.874248876691485 25.29826503170581 3.5527136788005009e-015 1 I I #
ellipse-curve $-1 -1.4566126083082054e-013 54.201734968294872 30 2.0925074164510144e-016 -1.4442402366489535e-016 -1 -22.999999999999822 15.874507866387432 -7.1054273576010019e-015 1 I I #
ellipse-curve $-1 -5.3290705182007514e-014 79.5 -5.1514348342607263e-014 0 -1 0 30.000000000000053 0 11.874248876691059 1 I I #
point $-1 9 89.499999999999986 1.1021457184401395e-015 #
point $-1 -9 89.5 0 #
ellipse-curve $-1 0 89.5 0 0 1 0 9 0 0 1 I I #
point $-1 11.874248876691016 79.499999999999986 30.000000000000004 #
ellipse-curve $-1 1.1102230246251565e-016 84.5 0 0 -1 0 4 0 0 1 I I #
straight-curve $-1 -4 74.5 -9.7968508305790181e-016 0 1 0 I I #
straight-curve $-1 4 74.5 4.898425415289509e-016 0 1 0 I I #
point $-1 4 84.499999999999986 4.898425415289509e-016 #
point $-1 -4 84.5 0 #
vertex $-1 $748 $789 #
straight-curve $-1 -16.092869125878405 74.5 -25 1 0 0 I I #
point $-1 -16.092869125878405 74.5 -25 #
point $-1 -25 74.5 -16.092869125878405 #
coedge $-1 $746 $745 $758 $785 reversed $697 $-1 #
ellipse-curve $-1 5.5067062021407764e-014 74.5 -5.3290705182007514e-014 0 1 0 24.999999999999943 0 -16.092869125878352 1 I I #
ellipse-curve $-1 22.964466094067266 54.201734968297544 -22.964466094067259 -0.70710678118654735 1.4283503616855358e-015 0.70710678118654768 2.0355339059327591 15.263675752071606 2.0355339059327271 1 I I #
ellipse-curve $-1 -22.964466094067259 54.2017349682976 -22.964466094067266 0.70710678118654768 1.428350361685546e-015 0.70710678118654735 2.0355339059327271 15.263675752071549 -2.0355339059327591 1 I I #
edge $-1 $759 0 $777 0.2703214697512758 $781 $790 forward 7 unknown #
point $-1 20.928932188134539 69.46541072036915 -25.000000000000018 #
point $-1 -20.928932188134532 69.46541072036915 -25.000000000000025 #
ellipse-curve $-1 -1.5063505998114124e-012 54.201734968296257 -25 -2.5561858245003893e-016 3.2241694709715489e-016 1 -16.092869125876927 20.298265031703714 -1.0658141036401503e-014 1 I I #
point $-1 16.09286912587844 74.499999999999972 -25.000000000000007 #
ellipse-curve $-1 -1.8118839761882555e-013 54.201734968294623 -25 5.540574043775952e-016 4.0407950546326329e-016 1 20.92893218813472 15.263675752074526 -1.7763568394002505e-014 1 I I #
End-of-ACIS-data 