600 0 1 0           
78 GICL ACIS Healer - Source: /gicl/data5/repository/PTC/V18/cmm18/ph9a.sat - 6 0 18 ACIS 6.0.3 Solaris 24 Sat Apr 13 22:21:42 2002 
1 9.999999999999999547e-07 1.000000000000000036e-10 
body $-1 $1 $-1 $-1 #
lump $-1 $-1 $2 $0 #
shell $-1 $-1 $-1 $3 $-1 $1 #
face $-1 $4 $5 $2 $-1 $6 forward single #
face $-1 $7 $8 $2 $-1 $9 reversed single #
loop $-1 $-1 $10 $3 #
sphere-surface $-1 0 0 0 31 1 0 0 0 0 1 forward_v I I I I #
face $-1 $11 $12 $2 $-1 $13 reversed single #
loop $-1 $-1 $14 $4 #
plane-surface $-1 15 0 0 1 0 0 0 0 -1 forward_v I I I I #
coedge $-1 $15 $16 $17 $18 forward $5 $-1 #
face $-1 $19 $20 $2 $-1 $21 reversed single #
loop $-1 $-1 $22 $7 #
cone-surface $-1 -7.105427357601001859e-15 0 0 0 -0.2419218955996677023 0.970295726275996584 0 14.55443589413994943 3.628828433995016312 1 I I 0 1 15.00000000000000178 forward I I I I #
coedge $-1 $17 $23 $24 $25 forward $8 $-1 #
coedge $-1 $26 $10 $27 $28 forward $5 $-1 #
coedge $-1 $10 $29 $30 $31 forward $5 $-1 #
coedge $-1 $32 $14 $10 $18 reversed $8 $-1 #
edge $-1 $33 -4.712388980384689674 $34 -2.897246558310587083 $10 $35 reversed 7 unknown #
face $-1 $36 $37 $2 $-1 $38 reversed single #
loop $-1 $-1 $39 $11 #
plane-surface $-1 -15 0 -27.12931993250107254 -1 0 0 0 0 1 forward_v I I I I #
coedge $-1 $40 $41 $42 $43 forward $12 $-1 #
coedge $-1 $14 $32 $44 $45 forward $8 $-1 #
coedge $-1 $46 $27 $14 $25 reversed $12 $-1 #
edge $-1 $47 21.23676058159529845 $34 27.1293199325010761 $14 $48 reversed 7 unknown #
coedge $-1 $49 $15 $50 $51 reversed $5 $-1 #
coedge $-1 $24 $52 $15 $28 reversed $12 $-1 #
edge $-1 $34 -1.570796326794896558 $53 -0.7827491590026831592 $15 $54 reversed 7 unknown #
coedge $-1 $16 $55 $56 $57 forward $5 $-1 #
coedge $-1 $58 $59 $16 $31 reversed $37 $-1 #
edge $-1 $60 -4.712388980384689674 $33 -1.570796326794896558 $16 $61 reversed 7 unknown #
coedge $-1 $23 $17 $59 $62 reversed $8 $-1 #
vertex $-1 $31 $63 #
vertex $-1 $28 $64 #
ellipse-curve $-1 15 0 0 -1 -0 -0 0 0 27.12931993250107254 1 I I #
face $-1 $65 $66 $2 $-1 $67 reversed single #
loop $-1 $-1 $58 $19 #
cone-surface $-1 0 0 0 0 1 0 0 0 -15.00000000000000178 1 I I 0 1 15 forward I I I I #
coedge $-1 $56 $68 $58 $69 forward $20 $-1 #
coedge $-1 $52 $22 $55 $70 reversed $12 $-1 #
coedge $-1 $22 $71 $72 $73 forward $12 $-1 #
coedge $-1 $68 $56 $22 $43 reversed $20 $-1 #
edge $-1 $74 21.236760581595302 $75 27.12931993250107254 $42 $76 reversed 7 unknown #
coedge $-1 $77 $78 $23 $45 reversed $66 $-1 #
edge $-1 $79 -4.712388980384689674 $47 -2.897246558310587083 $44 $80 reversed 7 unknown #
coedge $-1 $71 $24 $78 $81 forward $12 $-1 #
vertex $-1 $45 $82 #
straight-curve $-1 15 0 0 0 -0.2419218955996676745 0.9702957262759964729 I I #
coedge $-1 $83 $26 $84 $85 forward $5 $-1 #
coedge $-1 $86 $87 $26 $51 forward $88 $-1 #
edge $-1 $89 -3.141592653589793116 $53 -1.989814912754850784 $26 $90 forward 7 unknown #
coedge $-1 $27 $40 $86 $91 reversed $12 $-1 #
vertex $-1 $51 $92 #
ellipse-curve $-1 -7.105427357601001859e-15 6.563176504400509259 -26.32346318728000156 -0 0.2419218955996677023 -0.970295726275996584 0 14.55443589413994943 3.628828433995021641 1 I I #
coedge $-1 $29 $83 $40 $70 forward $5 $-1 #
coedge $-1 $42 $39 $29 $57 reversed $20 $-1 #
edge $-1 $75 -0.2443460952792061436 $60 1.570796326794896558 $29 $93 reversed 7 unknown #
coedge $-1 $94 $30 $39 $69 reversed $37 $-1 #
coedge $-1 $30 $94 $32 $62 forward $37 $-1 #
vertex $-1 $31 $95 #
ellipse-curve $-1 0 -27.12931993250107254 0 -0 -1 -0 0 0 -15.00000000000000178 1 I I #
edge $-1 $79 21.23676058159529845 $33 27.12931993250107254 $59 $96 reversed 7 unknown #
point $-1 15.00000000000000178 -27.12931993250107254 -9.184850993605149917e-16 #
point $-1 14.99999999999999822 6.563176504400510147 -26.32346318728000156 #
face $-1 $97 $98 $2 $-1 $99 reversed single #
loop $-1 $-1 $100 $36 #
sphere-surface $-1 0 0 0 26 1 0 0 0 0 1 forward_v I I I I #
coedge $-1 $39 $42 $100 $101 forward $20 $-1 #
edge $-1 $102 21.23676058159529845 $60 27.12931993250107254 $39 $103 reversed 7 unknown #
edge $-1 $104 0.782749159002682493 $75 1.570796326794896558 $55 $105 reversed 7 unknown #
coedge $-1 $41 $46 $106 $107 forward $12 $-1 #
coedge $-1 $108 $100 $41 $73 reversed $66 $-1 #
edge $-1 $109 0.7950170736337724975 $74 1.570796326794896558 $72 $110 reversed 7 unknown #
vertex $-1 $73 $111 #
vertex $-1 $57 $112 #
straight-curve $-1 -15 0 2.553512956637860043e-15 0 -0.2419218955996676745 0.9702957262759964729 I I #
coedge $-1 $100 $44 $94 $113 reversed $66 $-1 #
coedge $-1 $44 $114 $46 $81 reversed $66 $-1 #
vertex $-1 $113 $115 #
ellipse-curve $-1 15 0 0 -1 -0 -0 0 0 21.236760581595302 1 I I #
edge $-1 $47 -1.570796326794896558 $116 -0.7950170736337732746 $78 $117 reversed 7 unknown #
point $-1 15 5.137637376295837832 -20.60593803226846532 #
coedge $-1 $55 $49 $118 $119 reversed $5 $-1 #
coedge $-1 $120 $121 $49 $85 reversed $122 $-1 #
edge $-1 $89 -3.141592653589793116 $123 -0 $49 $124 reversed 7 unknown #
coedge $-1 $118 $50 $52 $91 forward $88 $-1 #
coedge $-1 $50 $125 $120 $126 reversed $88 $-1 #
loop $-1 $-1 $118 $127 #
vertex $-1 $85 $128 #
ellipse-curve $-1 0 16.88194301613413018 0 -0 1 -0 -26 3.552713678800500929e-15 0 1 I I #
edge $-1 $53 -28.72818333930813139 $104 -5.226388060988789164 $86 $129 reversed 7 unknown #
point $-1 10.57846760166483335 16.88194301613413018 -23.75070574110435473 #
ellipse-curve $-1 -15 0 0 1 -0 -0 0 0 -27.12931993250107254 1 I I #
coedge $-1 $59 $58 $77 $113 forward $37 $-1 #
point $-1 -15.00000000000000178 -27.12931993250107254 -9.184850993605149917e-16 #
straight-curve $-1 15 0 0 0 1 0 I I #
face $-1 $130 $131 $2 $-1 $99 reversed single #
loop $-1 $-1 $132 $65 #
cone-surface $-1 0 95.52499999999999147 0 0 -1 0 -21 0 0 1 I I 0 1 21 forward I I I I #
coedge $-1 $72 $77 $68 $101 reversed $66 $-1 #
edge $-1 $74 -0.2443460952792061436 $102 1.570796326794896558 $100 $133 reversed 7 unknown #
vertex $-1 $113 $134 #
straight-curve $-1 -15 0 0 0 1 0 I I #
vertex $-1 $70 $135 #
ellipse-curve $-1 -7.105427357601001859e-15 6.563176504400509259 -26.32346318728000156 -0 0.2419218955996677023 -0.970295726275996584 0 14.55443589413994943 3.628828433995021641 1 I I #
coedge $-1 $132 $136 $71 $107 reversed $98 $-1 #
edge $-1 $116 -28.83955133435809515 $109 -4.526744248354899192 $106 $137 reversed 7 unknown #
coedge $-1 $138 $72 $136 $139 forward $66 $-1 #
vertex $-1 $139 $140 #
ellipse-curve $-1 -7.105427357601001859e-15 5.137637376295836056 -20.60593803226846532 -0 0.2419218955996677023 -0.970295726275996584 0 14.55443589413994943 3.628828433995018088 1 I I #
point $-1 -15.00000000000001243 5.137637376295836944 -20.60593803226846532 #
point $-1 -15 6.563176504400508371 -26.32346318727999446 #
edge $-1 $102 -4.712388980384689674 $79 -1.570796326794896558 $77 $141 reversed 7 unknown #
coedge $-1 $78 $138 $132 $142 forward $66 $-1 #
point $-1 15.00000000000000178 -21.23676058159529845 -9.184850993605149917e-16 #
vertex $-1 $81 $143 #
ellipse-curve $-1 -7.105427357601001859e-15 5.137637376295836056 -20.60593803226846532 -0 0.2419218955996677023 -0.970295726275996584 0 14.55443589413994943 3.628828433995018088 1 I I #
coedge $-1 $144 $86 $83 $119 forward $88 $-1 #
edge $-1 $104 -1.151777740834942554 $123 0 $83 $145 forward 7 unknown #
coedge $-1 $146 $84 $87 $126 forward $122 $-1 #
coedge $-1 $84 $146 $144 $147 reversed $122 $-1 #
loop $-1 $-1 $146 $148 #
vertex $-1 $119 $149 #
ellipse-curve $-1 0 16.88194301613413018 0 -0 1 -0 -26 3.552713678800500929e-15 0 1 I I #
coedge $-1 $87 $144 $150 $151 reversed $88 $-1 #
edge $-1 $89 0 $152 5.618056983865884035 $120 $153 forward 7 unknown #
face $-1 $148 $88 $2 $-1 $154 forward single #
point $-1 26 16.88194301613411596 3.183976519938180871e-15 #
intcurve-curve $-1 forward { surfintcur full nubs 3 open 13 
	5.226388060988789164 3 6.930888413093850176 2 9.241184550791800234 2 11.17520983813096613 2 13.10923512547013203 2 
	15.04326041280929793 2 16.97728570014846383 2 18.91131098748763151 2 20.84533627482679563 2 22.77936156216595975 2 
	24.71338684950512743 2 27.02368298720307749 2 28.72818333930813139 3 
	-10.57841246618731645 16.88189991323944383 -23.75069187206193888 
	-10.18950266023408879 17.3236570405080812 -23.92386294312580119 
	-9.778881177686702841 17.74358192901043552 -24.09528604628972204 
	-8.77335445724259344 18.66660333672900407 -24.48290859144888643 
	-8.164703694619133145 19.14614457308613993 -24.69323559719602912 
	-7.027697954471730846 19.91419220681258651 -25.03806266687020354 
	-6.462587833538345983 20.2479357553514987 -25.19154279583840506 
	-5.263246586662364557 20.84202989419363661 -25.4691402547288881 
	-4.628946057678186676 21.10229695309254083 -25.5931364775338821 
	-3.324211362896714483 21.5223529468992183 -25.79506534976842147 
	-2.652924460475619473 21.68230380822810588 -25.87302377195589642 
	-1.31316092448227284 21.89201508332212853 -25.97550722670618839 
	-0.6446750957797190429 21.94173251417117854 -26 
	0.6446750957797253712 21.94173251417117854 -26 
	1.313160924482279057 21.89201508332212498 -25.97550722670618839 
	2.652924460475627022 21.68230380822810233 -25.87302377195589642 
	3.324211362896721589 21.52235294689921119 -25.79506534976842147 
	4.628946057678192005 21.10229695309253373 -25.593136477533875 
	5.263246586662367221 20.84202989419362595 -25.4691402547288881 
	6.462587833538345983 20.24793575535148804 -25.19154279583840506 
	7.027697954471731734 19.91419220681257229 -25.03806266687020354 
	8.164703694619133145 19.14614457308612572 -24.69323559719602912 
	8.773354457242596993 18.66660333672898986 -24.48290859144888643 
	9.778881177686701065 17.74358192901042486 -24.09528604628972559 
	10.18950266023408524 17.32365704050807409 -23.92386294312581185 
	10.5784124661873129 16.88189991323944028 -23.75069187206194954 
	0.0002969607439706087814 
	cone -7.105427357601001859e-15 0 0 0 -0.2419218955996677023 0.970295726275996584 0 14.55443589413994943 3.628828433995016312 1 I I 0 1 15.00000000000000178 forward I I I I 
	cone 0 95.52499999999999147 0 0 -1 0 -26 0 0 1 I I -0 -1 26 forward I I I I 
	nullbs 
	nullbs 
	I I 
	0 
	0 
	0 
	} I I #
face $-1 $155 $156 $2 $-1 $157 reversed single #
loop $-1 $-1 $158 $97 #
coedge $-1 $159 $106 $114 $142 reversed $98 $-1 #
ellipse-curve $-1 -15 0 0 1 -0 -0 0 0 -21.236760581595302 1 I I #
point $-1 -15.00000000000000178 -21.23676058159529845 -9.184850993605149917e-16 #
point $-1 -10.57846760166484046 16.88194301613413728 -23.75070574110435828 #
coedge $-1 $106 $160 $108 $139 reversed $98 $-1 #
intcurve-curve $-1 forward { surfintcur full nubs 3 open 15 
	4.526744248354899192 3 4.669201290456410192 2 7.003801935684615287 2 9.338402580912820383 2 11.17458888352374125 2 
	13.01077518613466211 2 14.84696148874558297 2 16.68314779135650383 2 18.51933409396742647 2 20.35552039657834911 2 
	22.19170669918926819 2 24.02789300180019083 2 26.36249364702839415 2 28.69709429225660102 2 28.83955133435809515 3 
	-10.70812966012150724 15.32970679028767158 -18.06476856767035954 
	-10.67733612722751069 15.36661518116141423 -18.08302348957241534 
	-10.64638598837794703 15.40339826229297771 -18.10126418270229465 
	-10.1055255033600222 16.04073271271033363 -18.41812667077689269 
	-9.553752419283704 16.60690911951836313 -18.71202989409717432 
	-8.389901423382482903 17.63924858205699309 -19.26197814791191476 
	-7.777689928241573014 18.10532352979093318 -19.51790585181016979 
	-6.662118182799130039 18.82987630758304931 -19.92207445537161092 
	-6.126733091942154097 19.13519678739676877 -20.09502852262023609 
	-4.990572706002982528 19.68013994209718476 -20.40689133057901117 
	-4.389720557457065908 19.91966737371449625 -20.54568648716759327 
	-3.153365353007234084 20.30696017142991394 -20.77140265216258186 
	-2.517030023107786896 20.4548629986757966 -20.85836672840584072 
	-1.246383473124329289 20.64895204979191234 -20.9726829698312045 
	-0.612062100870302217 20.69509249995526545 -21 
	0.612062100870311987 20.69509249995526545 -21 
	1.246383473124340391 20.64895204979190879 -20.9726829698312045 
	2.517030023107797998 20.45486299867578595 -20.85836672840584072 
	3.153365353007244742 20.30696017142991039 -20.77140265216258541 
	4.38972055745707479 19.91966737371448914 -20.54568648716759682 
	4.990572706002986969 19.68013994209717765 -20.40689133057901117 
	6.126733091942161202 19.13519678739675811 -20.09502852262023609 
	6.662118182799138033 18.82987630758303865 -19.92207445537160737 
	7.77768992824158012 18.10532352979092252 -19.51790585181016979 
	8.389901423382486456 17.63924858205698598 -19.26197814791191476 
	9.553752419283707553 16.60690911951834892 -18.71202989409717432 
	10.10552550336002753 16.04073271271031587 -18.41812667077689269 
	10.64638598837794703 15.40339826229296705 -18.10126418270229465 
	10.67733612722750713 15.36661518116140712 -18.0830234895724189 
	10.70812966012150014 15.32970679028766803 -18.0647685676703631 
	0.0002935780610112934705 
	cone -7.105427357601001859e-15 0 0 0 -0.2419218955996677023 0.970295726275996584 0 14.55443589413994943 3.628828433995016312 1 I I 0 1 15.00000000000000178 forward I I I I 
	cone 0 95.52499999999999147 0 0 -1 0 -21 0 0 1 I I -0 -1 21 forward I I I I 
	nullbs 
	nullbs 
	I I 
	0 
	0 
	0 
	} I I #
coedge $-1 $114 $108 $158 $161 reversed $66 $-1 #
edge $-1 $109 -1.035714866853672644 $162 -2.449212707644754516e-16 $108 $163 forward 7 unknown #
point $-1 -10.70813341854929668 15.32970971675588956 -18.06476899078833398 #
ellipse-curve $-1 0 -21.23676058159529845 0 -0 -1 -0 0 0 -15.00000000000000178 1 I I #
edge $-1 $164 -3.141592653589793116 $116 -2.10587778673612025 $114 $165 forward 7 unknown #
point $-1 10.70813341854929135 15.32970971675588601 -18.06476899078833753 #
coedge $-1 $125 $118 $121 $147 forward $88 $-1 #
ellipse-curve $-1 0 16.88194301613413018 0 -0 1 -0 -26 3.552713678800500929e-15 0 1 I I #
coedge $-1 $121 $120 $166 $167 forward $122 $-1 #
edge $-1 $123 0 $168 5.618056983865884035 $121 $169 forward 7 unknown #
face $-1 $170 $122 $2 $-1 $154 forward single #
point $-1 -26 16.88194301613411596 0 #
coedge $-1 $171 $172 $125 $151 forward $173 $-1 #
edge $-1 $152 -3.141592653589793116 $168 -2.449212707644754516e-16 $125 $174 forward 7 unknown #
vertex $-1 $126 $175 #
straight-curve $-1 26 16.88194301613411596 3.183976519938180871e-15 0 1 0 I I #
cone-surface $-1 0 95.52499999999999147 0 0 -1 0 -26 0 0 1 I I 0 1 26 forward I I I I #
face $-1 $176 $177 $2 $-1 $178 forward single #
loop $-1 $-1 $179 $130 #
sphere-surface $-1 0 54.2017349682947156 0 36 1 0 0 0 0 1 forward_v I I I I #
coedge $-1 $180 $181 $138 $161 forward $131 $-1 #
coedge $-1 $182 $132 $181 $183 forward $98 $-1 #
coedge $-1 $136 $182 $180 $184 reversed $98 $-1 #
edge $-1 $164 -3.141592653589793116 $162 2.449212707644754516e-16 $138 $185 reversed 7 unknown #
vertex $-1 $161 $186 #
ellipse-curve $-1 0 15.32970971675588601 0 -0 1 -0 -21 5.329070518200751394e-15 0 1 I I #
vertex $-1 $142 $187 #
ellipse-curve $-1 0 15.32970971675588601 0 -0 1 -0 -21 5.329070518200751394e-15 0 1 I I #
coedge $-1 $188 $189 $146 $167 reversed $190 $-1 #
edge $-1 $152 -3.141592653589793116 $168 2.449212707644754516e-16 $146 $191 reversed 7 unknown #
vertex $-1 $147 $192 #
straight-curve $-1 -26 16.88194301613411596 -6.367953039876361743e-15 0 1 0 I I #
face $-1 $193 $190 $2 $-1 $194 forward single #
coedge $-1 $195 $150 $189 $196 forward $173 $-1 #
coedge $-1 $150 $197 $188 $198 reversed $173 $-1 #
loop $-1 $-1 $199 $200 #
ellipse-curve $-1 0 22.5 0 -0 1 -0 -26 0 0 1 I I #
point $-1 26 22.5 3.183976519938180871e-15 #
face $-1 $201 $202 $2 $-1 $203 forward single #
loop $-1 $-1 $204 $155 #
plane-surface $-1 23 79.5 25 0 0 -1 -1 0 0 forward_v I I I I #
coedge $-1 $205 $206 $207 $208 reversed $156 $-1 #
coedge $-1 $209 $158 $160 $184 forward $131 $-1 #
coedge $-1 $158 $209 $159 $183 reversed $131 $-1 #
coedge $-1 $160 $159 $210 $211 forward $98 $-1 #
edge $-1 $164 0 $212 9.63164221711194557 $181 $213 forward 7 unknown #
edge $-1 $162 0 $214 9.63164221711194557 $180 $215 forward 7 unknown #
ellipse-curve $-1 0 15.32970971675588601 0 -0 1 -0 -21 5.329070518200751394e-15 0 1 I I #
point $-1 -21 15.3297097167558718 -5.143346686053984484e-15 #
point $-1 21 15.3297097167558718 2.571673343026992242e-15 #
coedge $-1 $216 $166 $172 $198 forward $190 $-1 #
coedge $-1 $166 $217 $171 $196 reversed $190 $-1 #
loop $-1 $-1 $217 $170 #
ellipse-curve $-1 0 22.5 0 -0 1 -0 -26 0 0 1 I I #
point $-1 -26 22.5 -6.367953039876361743e-15 #
face $-1 $218 $219 $2 $-1 $220 reversed single #
sphere-surface $-1 0 54.2017349682947156 0 41 1 0 0 0 0 1 forward_v I I I I #
coedge $-1 $199 $171 $221 $222 forward $173 $-1 #
edge $-1 $168 -8.79196246508630763e-16 $223 0.1339194126723350919 $189 $224 forward 7 unknown #
coedge $-1 $172 $225 $226 $227 forward $173 $-1 #
edge $-1 $152 -8.79196246508630763e-16 $228 0.1339194126723350919 $188 $229 forward 7 unknown #
coedge $-1 $230 $195 $231 $232 forward $173 $-1 #
face $-1 $233 $173 $2 $-1 $194 forward single #
face $-1 $234 $235 $2 $-1 $236 forward single #
loop $-1 $-1 $237 $176 #
plane-surface $-1 26.46446609406726225 79.5 19.46446609406726225 -0.7071067811865475727 0 -0.7071067811865475727 -0.7071067811865475727 0 0.7071067811865475727 forward_v I I I I #
coedge $-1 $207 $238 $239 $240 forward $177 $-1 #
coedge $-1 $241 $179 $242 $243 reversed $156 $-1 #
coedge $-1 $179 $244 $245 $246 reversed $156 $-1 #
coedge $-1 $247 $204 $179 $208 forward $177 $-1 #
edge $-1 $248 -0.9406689626813450333 $249 0.9406689626813450333 $179 $250 reversed 7 unknown #
coedge $-1 $181 $180 $251 $252 reversed $131 $-1 #
coedge $-1 $253 $254 $182 $211 reversed $255 $-1 #
edge $-1 $212 -3.141592653589793116 $214 0 $182 $256 forward 7 unknown #
vertex $-1 $183 $257 #
straight-curve $-1 21 15.3297097167558718 2.571673343026992242e-15 0 1 0 I I #
vertex $-1 $252 $258 #
straight-curve $-1 -21 15.3297097167558718 -5.143346686053984484e-15 0 1 0 I I #
coedge $-1 $259 $188 $260 $261 forward $190 $-1 #
coedge $-1 $189 $262 $263 $264 forward $190 $-1 #
face $-1 $265 $266 $2 $-1 $267 reversed single #
loop $-1 $-1 $268 $193 #
plane-surface $-1 -30 79.5 23 1 0 0 0 0 -1 forward_v I I I I #
coedge $-1 $263 $269 $195 $222 reversed $219 $-1 #
edge $-1 $223 1.570796326794897002 $270 2.537476909104942724 $195 $271 reversed 7 unknown #
vertex $-1 $196 $272 #
ellipse-curve $-1 0 54.2017349682947156 0 2.44921270764475353e-16 1.05118883265619649e-31 -1 -26.00000000000002842 -31.70173496829469428 -6.367953039876368842e-15 1 I I #
coedge $-1 $197 $230 $273 $274 forward $173 $-1 #
coedge $-1 $275 $260 $197 $227 reversed $276 $-1 #
edge $-1 $277 0.6041157444848507252 $228 1.57079632679489678 $197 $278 reversed 7 unknown #
vertex $-1 $261 $279 #
ellipse-curve $-1 0 54.2017349682947156 0 -1.224606353822377012e-16 3.003396664731990361e-32 1 26.00000000000002842 -31.70173496829469428 3.183976519938184421e-15 1 I I #
coedge $-1 $225 $199 $280 $281 forward $173 $-1 #
coedge $-1 $282 $283 $199 $232 reversed $284 $-1 #
edge $-1 $270 -3.443844031010500295 $285 -2.839341276169085937 $199 $286 reversed 7 unknown #
face $-1 $287 $284 $2 $-1 $288 reversed single #
face $-1 $289 $290 $2 $-1 $291 reversed single #
loop $-1 $-1 $292 $201 #
plane-surface $-1 25 79.5 -23 -1 0 0 0 0 1 forward_v I I I I #
coedge $-1 $242 $293 $292 $294 forward $202 $-1 #
coedge $-1 $204 $295 $296 $297 forward $177 $-1 #
coedge $-1 $293 $242 $204 $240 reversed $202 $-1 #
edge $-1 $298 10.03458927963080782 $248 40.56194078377976098 $239 $299 forward 7 unknown #
coedge $-1 $300 $205 $301 $302 reversed $156 $-1 #
coedge $-1 $239 $237 $205 $243 forward $202 $-1 #
edge $-1 $303 -0.1864072420977701539 $248 0.1864072420977702371 $205 $304 reversed 7 unknown #
coedge $-1 $206 $305 $306 $307 reversed $156 $-1 #
coedge $-1 $308 $309 $206 $246 forward $310 $-1 #
edge $-1 $249 -0.1864072420977702371 $311 0.1864072420977702371 $206 $312 reversed 7 unknown #
coedge $-1 $313 $207 $309 $314 reversed $177 $-1 #
vertex $-1 $243 $315 #
vertex $-1 $246 $316 #
ellipse-curve $-1 0 54.2017349682947156 25 -0 -0 1 0 -25.90366769397723701 0 1 I I #
coedge $-1 $305 $300 $209 $252 forward $156 $-1 #
edge $-1 $212 -3.141592653589793116 $214 -0 $209 $317 reversed 7 unknown #
coedge $-1 $318 $210 $300 $319 forward $255 $-1 #
coedge $-1 $210 $320 $305 $321 reversed $255 $-1 #
loop $-1 $-1 $254 $322 #
ellipse-curve $-1 0 24.96135193386781737 0 -0 1 -0 -21 7.105427357601001859e-15 0 1 I I #
point $-1 21 24.96135193386781737 2.571673343026992242e-15 #
point $-1 -21 24.96135193386781737 0 #
coedge $-1 $323 $216 $324 $325 forward $190 $-1 #
coedge $-1 $226 $326 $216 $261 reversed $276 $-1 #
edge $-1 $228 1.57079632679489678 $327 2.53747690910494228 $216 $328 reversed 7 unknown #
coedge $-1 $217 $323 $329 $330 forward $190 $-1 #
coedge $-1 $331 $221 $217 $264 reversed $219 $-1 #
edge $-1 $332 0.6041157444848507252 $223 1.570796326794897002 $217 $333 reversed 7 unknown #
face $-1 $334 $335 $2 $-1 $336 forward single #
loop $-1 $337 $338 $218 #
plane-surface $-1 0 79.5 0 0 -1 0 -1 0 0 forward_v I I I I #
coedge $-1 $339 $340 $341 $342 forward $219 $-1 #
coedge $-1 $221 $339 $282 $343 forward $219 $-1 #
vertex $-1 $222 $344 #
ellipse-curve $-1 -30 54.2017349682947156 0 -1 -0 -0 0 0 27.94637722496424104 1 I I #
point $-1 -30.00000000000000711 26.25535774333048522 -7.347638122934265127e-15 #
coedge $-1 $345 $346 $225 $274 reversed $347 $-1 #
edge $-1 $348 -3.443844031010500295 $277 -2.839341276169085937 $225 $349 reversed 7 unknown #
coedge $-1 $350 $226 $346 $351 reversed $276 $-1 #
loop $-1 $-1 $226 $352 #
vertex $-1 $227 $353 #
ellipse-curve $-1 30 54.2017349682947156 0 1 -0 -0 0 0 -27.94637722496424104 1 I I #
point $-1 30.00000000000000711 26.25535774333048522 3.673819061467132563e-15 #
coedge $-1 $354 $355 $230 $281 reversed $356 $-1 #
edge $-1 $285 -4.108273235899838838 $348 -2.174912071279747394 $230 $357 reversed 7 unknown #
coedge $-1 $358 $231 $269 $343 reversed $284 $-1 #
coedge $-1 $231 $358 $354 $359 forward $284 $-1 #
loop $-1 $-1 $283 $233 #
vertex $-1 $281 $360 #
ellipse-curve $-1 -26.50000000000000355 54.2017349682947156 -26.50000000000000355 -0.7071067811865475727 -0 -0.7071067811865475727 0 16.62828914831588278 0 1 I I #
face $-1 $361 $356 $2 $-1 $362 reversed single #
plane-surface $-1 -30 79.5 -23 0.7071067811865475727 0 0.7071067811865475727 0.7071067811865475727 0 -0.7071067811865475727 forward_v I I I I #
face $-1 $363 $364 $2 $-1 $365 forward single #
loop $-1 $-1 $366 $234 #
sphere-surface $-1 0 54.2017349682947156 0 36 1 0 0 0 0 1 forward_v I I I I #
coedge $-1 $367 $301 $237 $294 reversed $235 $-1 #
coedge $-1 $237 $239 $366 $368 forward $202 $-1 #
edge $-1 $369 10.03458927963080782 $303 40.56194078377975387 $292 $370 forward 7 unknown #
coedge $-1 $238 $313 $371 $372 reversed $177 $-1 #
coedge $-1 $373 $366 $238 $297 reversed $290 $-1 #
edge $-1 $374 -2.471245160659726547 $298 -2.200923690908448194 $296 $375 reversed 7 unknown #
vertex $-1 $297 $376 #
straight-curve $-1 20.92893218813452449 79.5 25 0 -1 -0 I I #
coedge $-1 $251 $241 $253 $319 reversed $156 $-1 #
coedge $-1 $292 $377 $241 $302 forward $235 $-1 #
edge $-1 $378 1.57079632679489678 $303 2.511465289476241924 $241 $379 reversed 7 unknown #
vertex $-1 $302 $380 #
ellipse-curve $-1 22.9644660940672658 54.2017349682947156 22.9644660940672658 0.7071067811865475727 -0 0.7071067811865475727 0 -15.53275873851357503 -0 1 I I #
coedge $-1 $244 $251 $254 $321 forward $156 $-1 #
coedge $-1 $381 $382 $244 $307 forward $383 $-1 #
edge $-1 $311 0.6301273641135516357 $384 1.570796326794897002 $244 $385 reversed 7 unknown #
coedge $-1 $386 $245 $382 $387 reversed $310 $-1 #
coedge $-1 $245 $386 $247 $314 forward $310 $-1 #
loop $-1 $-1 $309 $388 #
vertex $-1 $246 $389 #
ellipse-curve $-1 -22.9644660940672658 54.2017349682947156 22.9644660940672658 -0.7071067811865475727 -0 0.7071067811865475727 0 -15.53275873851357503 0 1 I I #
coedge $-1 $295 $247 $390 $391 forward $177 $-1 #
edge $-1 $392 10.03458927963080782 $249 40.56194078377976098 $309 $393 reversed 7 unknown #
point $-1 20.9289321881345316 38.93805921622023902 25 #
point $-1 -20.9289321881345316 38.93805921622023902 25 #
ellipse-curve $-1 0 24.96135193386781737 0 -0 1 -0 -21 7.105427357601001859e-15 0 1 I I #
coedge $-1 $394 $253 $377 $395 reversed $255 $-1 #
edge $-1 $212 -8.772132540248147491e-17 $378 0.1448209359960284937 $300 $396 forward 7 unknown #
coedge $-1 $254 $397 $381 $398 reversed $255 $-1 #
edge $-1 $214 -8.772132540248146258e-17 $384 0.1448209359960284937 $305 $399 forward 7 unknown #
face $-1 $400 $255 $2 $-1 $157 reversed single #
coedge $-1 $262 $259 $401 $402 forward $190 $-1 #
coedge $-1 $403 $404 $259 $325 reversed $405 $-1 #
edge $-1 $327 -0.3022513774207076787 $406 0.3022513774207075121 $259 $407 reversed 7 unknown #
coedge $-1 $260 $408 $403 $409 forward $276 $-1 #
vertex $-1 $325 $410 #
ellipse-curve $-1 30 54.2017349682947156 0 1 -0 -0 0 0 -27.94637722496424104 1 I I #
coedge $-1 $411 $412 $262 $330 reversed $413 $-1 #
edge $-1 $414 -0.3022513774207076787 $332 0.3022513774207076787 $262 $415 reversed 7 unknown #
coedge $-1 $340 $263 $412 $416 reversed $219 $-1 #
vertex $-1 $330 $417 #
ellipse-curve $-1 -30 54.2017349682947156 0 -1 -0 -0 0 0 27.94637722496424104 1 I I #
face $-1 $418 $419 $2 $-1 $336 forward single #
loop $-1 $-1 $420 $265 #
cone-surface $-1 0 95.52499999999999147 0 0 -1 0 -9 0 0 1 I I 0 1 9 forward I I I I #
loop $-1 $-1 $421 $218 #
coedge $-1 $422 $422 $420 $423 reversed $266 $-1 #
coedge $-1 $269 $268 $424 $425 reversed $219 $-1 #
coedge $-1 $268 $331 $426 $427 reversed $219 $-1 #
coedge $-1 $421 $428 $268 $342 reversed $337 $-1 #
edge $-1 $429 -0.3742488766910039288 $430 23.37424887669101281 $341 $431 reversed 7 unknown #
edge $-1 $432 9.423757165317752538 $270 41.17277289809281626 $269 $433 forward 7 unknown #
point $-1 -30 38.32722710190718374 -23.00000000000000711 #
coedge $-1 $434 $273 $355 $435 reversed $347 $-1 #
coedge $-1 $273 $434 $275 $351 forward $347 $-1 #
loop $-1 $-1 $346 $436 #
vertex $-1 $274 $437 #
ellipse-curve $-1 26.50000000000000355 54.2017349682947156 -26.50000000000000355 0.7071067811865475727 -0 -0.7071067811865475727 0 16.62828914831588278 -0 1 I I #
coedge $-1 $438 $275 $439 $440 reversed $276 $-1 #
edge $-1 $441 9.423757165317752538 $277 41.17277289809282337 $346 $442 forward 7 unknown #
face $-1 $200 $276 $2 $-1 $443 reversed single #
point $-1 30 38.32722710190717663 -23.00000000000000355 #
coedge $-1 $444 $280 $283 $359 reversed $356 $-1 #
coedge $-1 $280 $445 $345 $435 forward $356 $-1 #
loop $-1 $-1 $445 $287 #
ellipse-curve $-1 0 54.2017349682947156 -30 -0 -0 -1 0 27.94637722496424104 0 1 I I #
coedge $-1 $283 $282 $446 $447 reversed $284 $-1 #
edge $-1 $448 9.423757165317752538 $285 41.17277289809282337 $283 $449 forward 7 unknown #
point $-1 -23.00000000000000355 38.32722710190717663 -30 #
face $-1 $436 $450 $2 $-1 $451 forward single #
plane-surface $-1 -23 79.5 -30 0 0 1 1 0 0 forward_v I I I I #
face $-1 $452 $453 $2 $-1 $454 reversed single #
loop $-1 $455 $456 $289 #
plane-surface $-1 0 74.5 0 0 -1 0 -1 0 0 forward_v I I I I #
coedge $-1 $296 $457 $293 $368 reversed $290 $-1 #
coedge $-1 $458 $292 $457 $459 forward $235 $-1 #
edge $-1 $298 -3.327999895687563381 $369 -2.955185411492023295 $366 $460 reversed 7 unknown #
vertex $-1 $459 $461 #
straight-curve $-1 25 79.5 20.92893218813452449 -0 -1 0 I I #
coedge $-1 $462 $463 $295 $372 forward $455 $-1 #
edge $-1 $374 -4.592869125878401348 $464 27.59286912587840135 $371 $465 reversed 7 unknown #
coedge $-1 $457 $296 $463 $466 reversed $290 $-1 #
vertex $-1 $372 $467 #
ellipse-curve $-1 0 54.2017349682947156 25 -0 -0 1 0 -25.90366769397723701 0 1 I I #
point $-1 20.9289321881345316 69.46541072036919218 25 #
coedge $-1 $301 $468 $318 $395 forward $235 $-1 #
vertex $-1 $319 $469 #
ellipse-curve $-1 25 54.2017349682947156 0 1 -0 -0 0 0 -25.90366769397723701 1 I I #
point $-1 25 38.93805921622024613 20.92893218813453515 #
coedge $-1 $470 $306 $320 $398 forward $383 $-1 #
coedge $-1 $306 $471 $308 $387 forward $383 $-1 #
loop $-1 $-1 $382 $472 #
vertex $-1 $307 $473 #
ellipse-curve $-1 -25 54.2017349682947156 0 -1 -0 -0 0 0 25.90366769397723701 1 I I #
coedge $-1 $309 $308 $474 $475 forward $310 $-1 #
edge $-1 $476 10.03458927963080782 $311 40.56194078377976098 $308 $477 forward 7 unknown #
face $-1 $478 $310 $2 $-1 $479 forward single #
point $-1 -25 38.93805921622023902 20.9289321881345316 #
coedge $-1 $474 $480 $313 $391 reversed $481 $-1 #
edge $-1 $392 2.200923690908448194 $464 2.471245160659726547 $390 $482 reversed 7 unknown #
vertex $-1 $475 $483 #
straight-curve $-1 -20.92893218813452449 79.5 25 0 1 0 I I #
coedge $-1 $484 $318 $485 $486 reversed $255 $-1 #
edge $-1 $487 0.6301273641135516357 $378 1.57079632679489678 $318 $488 reversed 7 unknown #
ellipse-curve $-1 0 54.2017349682947156 0 -1.224606353822378491e-16 -8.765121169122352907e-32 1 21 -29.24038303442689113 2.571673343026992242e-15 1 I I #
coedge $-1 $320 $484 $489 $490 reversed $255 $-1 #
edge $-1 $384 1.570796326794897002 $491 2.51146528947624148 $320 $492 reversed 7 unknown #
ellipse-curve $-1 0 54.2017349682947156 0 2.449212707644756982e-16 -1.753024233824470581e-31 -1 -21 -29.24038303442689113 -5.143346686053984484e-15 1 I I #
face $-1 $493 $494 $2 $-1 $495 forward single #
coedge $-1 $496 $497 $323 $402 reversed $498 $-1 #
edge $-1 $406 -0.9666805823100459438 $414 0.9666805823100459438 $323 $499 reversed 7 unknown #
coedge $-1 $500 $324 $326 $409 reversed $405 $-1 #
coedge $-1 $324 $500 $496 $501 forward $405 $-1 #
loop $-1 $-1 $404 $502 #
vertex $-1 $402 $503 #
ellipse-curve $-1 26.50000000000000355 54.2017349682947156 26.50000000000000355 0.7071067811865475727 -0 0.7071067811865475727 0 -16.62828914831588278 -0 1 I I #
coedge $-1 $326 $438 $504 $505 reversed $276 $-1 #
edge $-1 $506 9.423757165317752538 $327 41.17277289809282337 $326 $507 forward 7 unknown #
point $-1 30.00000000000000355 38.32722710190717663 23.00000000000000355 #
coedge $-1 $508 $329 $497 $509 reversed $413 $-1 #
coedge $-1 $329 $508 $331 $416 forward $413 $-1 #
loop $-1 $-1 $412 $510 #
vertex $-1 $330 $511 #
ellipse-curve $-1 -26.50000000000000355 54.2017349682947156 26.50000000000000355 -0.7071067811865475727 -0 0.7071067811865475727 0 -16.62828914831588278 0 1 I I #
edge $-1 $512 9.423757165317738327 $332 41.17277289809282337 $412 $513 forward 7 unknown #
point $-1 -30.00000000000000355 38.32722710190717663 23.00000000000000355 #
face $-1 $514 $515 $2 $-1 $516 reversed single #
loop $-1 $-1 $517 $334 #
coedge $-1 $518 $519 $338 $423 forward $335 $-1 #
coedge $-1 $520 $341 $521 $522 reversed $337 $-1 #
coedge $-1 $338 $338 $523 $524 forward $266 $-1 #
edge $-1 $525 -3.141592653589793116 $526 -0 $338 $527 reversed 7 unknown #
coedge $-1 $528 $446 $339 $425 forward $529 $-1 #
edge $-1 $432 -2.537476909104942724 $430 -2.009641148041366954 $424 $530 reversed 7 unknown #
coedge $-1 $531 $521 $340 $427 forward $532 $-1 #
edge $-1 $429 -1.131951505548426828 $512 -0.6041157444848508362 $426 $533 reversed 7 unknown #
coedge $-1 $341 $534 $528 $535 forward $337 $-1 #
vertex $-1 $342 $536 #
vertex $-1 $342 $537 #
straight-curve $-1 -30 79.5 11.5 -0 0 1 I I #
vertex $-1 $425 $538 #
straight-curve $-1 -30 79.5 -22.99999999999999645 0 -1 0 I I #
coedge $-1 $346 $345 $539 $540 reversed $347 $-1 #
edge $-1 $541 9.423757165317752538 $348 41.17277289809282337 $355 $542 forward 7 unknown #
face $-1 $543 $347 $2 $-1 $544 reversed single #
point $-1 23.00000000000000711 38.32722710190717663 -30 #
coedge $-1 $408 $350 $545 $546 forward $276 $-1 #
coedge $-1 $539 $547 $350 $440 forward $450 $-1 #
edge $-1 $548 -1.13195150554842705 $441 -0.6041157444848503921 $439 $549 reversed 7 unknown #
vertex $-1 $540 $550 #
straight-curve $-1 30 79.5 -23 0 -1 0 I I #
plane-surface $-1 30 79.5 -23 -1 0 0 0 0 1 forward_v I I I I #
coedge $-1 $551 $354 $552 $553 reversed $356 $-1 #
coedge $-1 $355 $551 $554 $555 reversed $356 $-1 #
coedge $-1 $424 $552 $358 $447 forward $529 $-1 #
edge $-1 $448 -0.3022513774207075121 $432 0.3022513774207075121 $446 $556 reversed 7 unknown #
vertex $-1 $447 $557 #
straight-curve $-1 -23 79.5 -30 0 -1 0 I I #
loop $-1 $-1 $547 $361 #
sphere-surface $-1 0 54.2017349682947156 0 41 1 0 0 0 0 1 forward_v I I I I #
face $-1 $558 $559 $2 $-1 $560 forward single #
loop $-1 $-1 $561 $363 #
cone-surface $-1 0 95.52499999999999147 0 0 -1 0 -4 0 0 1 I I 0 1 4 forward I I I I #
loop $-1 $-1 $562 $289 #
coedge $-1 $563 $563 $564 $565 forward $364 $-1 #
coedge $-1 $366 $373 $367 $459 reversed $290 $-1 #
coedge $-1 $566 $367 $567 $568 reversed $235 $-1 #
edge $-1 $369 -2.51146528947624148 $569 -2.241143819724963571 $457 $570 reversed 7 unknown #
ellipse-curve $-1 22.9644660940672658 54.2017349682947156 22.9644660940672658 0.7071067811865475727 -0 0.7071067811865475727 0 -15.53275873851357503 -0 1 I I #
point $-1 25 69.46541072036919218 20.92893218813453515 #
coedge $-1 $571 $371 $480 $572 forward $455 $-1 #
coedge $-1 $371 $567 $373 $466 forward $455 $-1 #
vertex $-1 $572 $573 #
straight-curve $-1 11.5 74.5 25 1 0 0 I I #
edge $-1 $569 -0.9988522463231291892 $374 -0.5719440804717672577 $463 $574 forward 7 unknown #
point $-1 16.09286912587840135 74.5 25 #
coedge $-1 $377 $566 $575 $576 forward $235 $-1 #
point $-1 25.00000000000001066 28.29806727431748925 3.061515884555944329e-15 #
coedge $-1 $577 $381 $578 $579 reversed $383 $-1 #
coedge $-1 $382 $580 $581 $582 forward $383 $-1 #
face $-1 $388 $383 $2 $-1 $583 forward single #
point $-1 -25.00000000000001066 28.29806727431748925 -6.123031769111888658e-15 #
coedge $-1 $581 $390 $386 $475 reversed $481 $-1 #
edge $-1 $476 -3.327999895687563381 $392 -2.955185411492022851 $474 $584 reversed 7 unknown #
vertex $-1 $475 $585 #
straight-curve $-1 -25 79.5 20.92893218813452449 0 -1 0 I I #
face $-1 $322 $481 $2 $-1 $586 reversed single #
plane-surface $-1 -19.46446609406726225 79.5 26.46446609406726225 0.7071067811865475727 0 -0.7071067811865475727 -0.7071067811865475727 0 -0.7071067811865475727 forward_v I I I I #
coedge $-1 $390 $581 $462 $572 reversed $481 $-1 #
loop $-1 $-1 $581 $478 #
ellipse-curve $-1 0 54.2017349682947156 25 -0 -0 1 0 -25.90366769397723701 0 1 I I #
point $-1 -20.9289321881345316 69.46541072036919218 25 #
coedge $-1 $397 $394 $587 $588 reversed $255 $-1 #
coedge $-1 $575 $589 $394 $486 forward $494 $-1 #
edge $-1 $590 -3.327999895687563381 $487 -2.955185411492022851 $394 $591 reversed 7 unknown #
vertex $-1 $486 $592 #
ellipse-curve $-1 25 54.2017349682947156 0 1 -0 -0 0 0 -25.90366769397723701 1 I I #
coedge $-1 $593 $578 $397 $490 forward $594 $-1 #
edge $-1 $491 -3.327999895687563381 $595 -2.955185411492022851 $397 $596 reversed 7 unknown #
vertex $-1 $398 $597 #
ellipse-curve $-1 -25 54.2017349682947156 0 -1 -0 -0 0 0 25.90366769397723701 1 I I #
face $-1 $598 $599 $2 $-1 $600 forward single #
loop $-1 $-1 $589 $400 #
plane-surface $-1 19.46446609406726225 79.5 -26.46446609406726225 -0.7071067811865475727 0 0.7071067811865475727 0.7071067811865475727 0 0.7071067811865475727 forward_v I I I I #
coedge $-1 $601 $401 $404 $501 reversed $498 $-1 #
coedge $-1 $401 $602 $411 $509 forward $498 $-1 #
loop $-1 $-1 $603 $604 #
ellipse-curve $-1 0 54.2017349682947156 30 -0 -0 1 0 -27.94637722496424104 0 1 I I #
coedge $-1 $404 $403 $605 $606 reversed $405 $-1 #
edge $-1 $607 9.423757165317752538 $406 41.17277289809282337 $404 $608 forward 7 unknown #
face $-1 $352 $405 $2 $-1 $609 reversed single #
point $-1 23.00000000000000355 38.32722710190717663 30 #
coedge $-1 $610 $605 $408 $505 forward $611 $-1 #
edge $-1 $506 -2.537476909104942724 $612 -2.009641148041366066 $504 $613 reversed 7 unknown #
vertex $-1 $505 $614 #
straight-curve $-1 30 79.5 22.99999999999999645 -0 -1 0 I I #
coedge $-1 $412 $411 $531 $615 reversed $413 $-1 #
edge $-1 $616 9.423757165317752538 $414 41.17277289809282337 $411 $617 reversed 7 unknown #
face $-1 $502 $413 $2 $-1 $618 reversed single #
point $-1 -23.00000000000000355 38.32722710190717663 30.00000000000000355 #
vertex $-1 $615 $619 #
straight-curve $-1 -30 79.5 23 0 -1 0 I I #
face $-1 $604 $532 $2 $-1 $620 forward single #
loop $-1 $-1 $621 $418 #
plane-surface $-1 0 89.5 0 0 -1 0 -1 0 0 forward_v I I I I #
coedge $-1 $622 $623 $621 $624 forward $419 $-1 #
coedge $-1 $625 $420 $622 $626 forward $335 $-1 #
coedge $-1 $420 $625 $623 $627 reversed $335 $-1 #
coedge $-1 $628 $421 $603 $629 reversed $337 $-1 #
coedge $-1 $426 $630 $421 $522 forward $532 $-1 #
edge $-1 $631 0.3768876242593831027 $429 1.193908702535513289 $421 $632 forward 7 unknown #
coedge $-1 $623 $622 $422 $524 reversed $419 $-1 #
edge $-1 $525 -3.141592653589793116 $526 0 $422 $633 forward 7 unknown #
vertex $-1 $524 $634 #
vertex $-1 $524 $635 #
ellipse-curve $-1 0 79.5 0 0 -1 0 -9 0 0 1 I I #
coedge $-1 $552 $424 $428 $535 reversed $529 $-1 #
loop $-1 $-1 $528 $543 #
ellipse-curve $-1 -30 54.2017349682947156 0 -1 -0 -0 0 0 27.94637722496424104 1 I I #
coedge $-1 $630 $426 $508 $615 forward $532 $-1 #
loop $-1 $-1 $630 $514 #
ellipse-curve $-1 -30 54.2017349682947156 0 -1 -0 -0 0 0 27.94637722496424104 1 I I #
coedge $-1 $428 $636 $551 $637 reversed $337 $-1 #
edge $-1 $638 -2.764705029330410291 $430 -1.947683951054280271 $428 $639 reversed 7 unknown #
point $-1 -30 79.5 11.87424887669100393 #
point $-1 -29.99999999999999645 79.5 -11.87424887669101281 #
point $-1 -30 70.07624283468224746 -23.00000000000000711 #
coedge $-1 $554 $439 $434 $540 forward $450 $-1 #
edge $-1 $441 -0.3022513774207075121 $541 0.3022513774207075121 $539 $640 reversed 7 unknown #
vertex $-1 $555 $641 #
straight-curve $-1 22.99999999999999645 79.5 -30 0 -1 0 I I #
face $-1 $642 $529 $2 $-1 $643 forward single #
plane-surface $-1 23 79.5 -30 -0.7071067811865475727 0 0.7071067811865475727 0.7071067811865475727 0 0.7071067811865475727 forward_v I I I I #
coedge $-1 $636 $628 $438 $546 reversed $337 $-1 #
edge $-1 $548 -0.3742488766910003761 $612 23.37424887669099149 $545 $644 reversed 7 unknown #
coedge $-1 $439 $554 $636 $645 reversed $450 $-1 #
vertex $-1 $645 $646 #
ellipse-curve $-1 30 54.2017349682947156 0 1 -0 -0 0 0 -27.94637722496424104 1 I I #
point $-1 30 70.07624283468224746 -23.00000000000000711 #
coedge $-1 $445 $444 $534 $637 forward $356 $-1 #
coedge $-1 $446 $528 $444 $553 forward $529 $-1 #
edge $-1 $638 0.4388448212464693965 $448 0.9666805823100462769 $552 $647 reversed 7 unknown #
coedge $-1 $547 $539 $445 $555 forward $450 $-1 #
edge $-1 $541 -0.9666805823100462769 $648 -0.4388448212464693965 $554 $649 reversed 7 unknown #
ellipse-curve $-1 -26.50000000000000355 54.2017349682947156 -26.50000000000000355 -0.7071067811865475727 -0 -0.7071067811865475727 0 16.62828914831588278 0 1 I I #
point $-1 -23.00000000000000711 70.07624283468224746 -30 #
face $-1 $650 $651 $2 $-1 $454 reversed single #
loop $-1 $-1 $652 $452 #
plane-surface $-1 0 84.5 0 0 -1 0 -1 0 0 forward_v I I I I #
coedge $-1 $653 $654 $655 $656 forward $453 $-1 #
coedge $-1 $657 $571 $658 $659 reversed $455 $-1 #
coedge $-1 $456 $456 $660 $661 reversed $364 $-1 #
coedge $-1 $654 $653 $456 $565 reversed $453 $-1 #
edge $-1 $662 -3.141592653589793116 $663 -0 $456 $664 reversed 7 unknown #
coedge $-1 $468 $458 $665 $666 forward $235 $-1 #
coedge $-1 $463 $667 $458 $568 forward $455 $-1 #
edge $-1 $668 -4.592869125878408454 $569 27.5928691258784049 $567 $669 reversed 7 unknown #
vertex $-1 $466 $670 #
ellipse-curve $-1 25 54.2017349682947156 0 1 -0 -0 0 0 -25.90366769397723701 1 I I #
coedge $-1 $562 $462 $580 $671 forward $455 $-1 #
edge $-1 $464 0.5719440804717672577 $672 0.9988522463231291892 $462 $673 forward 7 unknown #
point $-1 -16.09286912587840135 74.5 25 #
ellipse-curve $-1 0 74.5 0 0 -1 0 -0 0 29.73180850036960621 1 I I #
coedge $-1 $674 $485 $468 $576 reversed $494 $-1 #
edge $-1 $675 10.03458927963080782 $487 40.56194078377976098 $575 $676 forward 7 unknown #
coedge $-1 $580 $470 $677 $678 forward $383 $-1 #
coedge $-1 $489 $679 $470 $579 forward $594 $-1 #
edge $-1 $680 10.03458927963080782 $491 40.56194078377976098 $470 $681 forward 7 unknown #
coedge $-1 $471 $577 $571 $671 reversed $383 $-1 #
coedge $-1 $480 $474 $471 $582 reversed $481 $-1 #
edge $-1 $672 -0.9004488338648297674 $476 -0.6301273641135516357 $581 $682 reversed 7 unknown #
plane-surface $-1 -25 79.5 23 1 0 0 0 0 -1 forward_v I I I I #
ellipse-curve $-1 -22.9644660940672658 54.2017349682947156 22.9644660940672658 -0.7071067811865475727 -0 0.7071067811865475727 0 -15.53275873851357503 0 1 I I #
point $-1 -25 69.46541072036919218 20.9289321881345316 #
sphere-surface $-1 0 54.2017349682947156 0 36 1 0 0 0 0 1 forward_v I I I I #
coedge $-1 $683 $684 $484 $588 forward $599 $-1 #
edge $-1 $595 -4.082261616271138038 $590 -2.200923690908448194 $484 $685 reversed 7 unknown #
coedge $-1 $485 $674 $683 $686 forward $494 $-1 #
vertex $-1 $588 $687 #
ellipse-curve $-1 22.9644660940672658 54.2017349682947156 -22.9644660940672658 0.7071067811865475727 -0 -0.7071067811865475727 0 15.53275873851357503 -0 1 I I #
point $-1 25 38.93805921622023902 -20.9289321881345316 #
coedge $-1 $679 $489 $684 $688 reversed $594 $-1 #
loop $-1 $-1 $578 $689 #
vertex $-1 $490 $690 #
ellipse-curve $-1 -22.9644660940672658 54.2017349682947156 -22.9644660940672658 -0.7071067811865475727 -0 -0.7071067811865475727 0 15.53275873851357503 0 1 I I #
point $-1 -25 38.93805921622023902 -20.92893218813452805 #
face $-1 $127 $691 $2 $-1 $692 reversed single #
loop $-1 $-1 $693 $493 #
plane-surface $-1 -23 79.5 -25 0 0 1 1 0 0 forward_v I I I I #
coedge $-1 $603 $496 $694 $695 reversed $498 $-1 #
coedge $-1 $497 $603 $630 $696 reversed $498 $-1 #
coedge $-1 $602 $601 $520 $629 forward $498 $-1 #
face $-1 $510 $498 $2 $-1 $697 reversed single #
coedge $-1 $504 $694 $500 $606 forward $611 $-1 #
edge $-1 $607 -3.443844031010500739 $506 -2.839341276169085937 $605 $698 reversed 7 unknown #
vertex $-1 $606 $699 #
straight-curve $-1 23 79.5 30 0 -1 -0 I I #
plane-surface $-1 30 79.5 23 -0.7071067811865475727 0 -0.7071067811865475727 -0.7071067811865475727 0 0.7071067811865475727 forward_v I I I I #
coedge $-1 $694 $504 $628 $700 forward $611 $-1 #
loop $-1 $-1 $610 $642 #
vertex $-1 $546 $701 #
ellipse-curve $-1 30 54.2017349682947156 0 1 -0 -0 0 0 -27.94637722496424104 1 I I #
point $-1 30 70.07624283468224746 23.00000000000000711 #
edge $-1 $512 -3.443844031010500295 $616 -2.839341276169085493 $531 $702 reversed 7 unknown #
vertex $-1 $615 $703 #
straight-curve $-1 -23 79.5 30 0 1 0 I I #
plane-surface $-1 -23 79.5 30 0.7071067811865475727 0 -0.7071067811865475727 -0.7071067811865475727 0 -0.7071067811865475727 forward_v I I I I #
point $-1 -30 70.07624283468226167 23.00000000000000711 #
sphere-surface $-1 0 54.2017349682947156 0 41 1 0 0 0 0 1 forward_v I I I I #
coedge $-1 $704 $704 $517 $624 reversed $515 $-1 #
coedge $-1 $523 $517 $518 $626 reversed $419 $-1 #
coedge $-1 $517 $523 $519 $627 forward $419 $-1 #
edge $-1 $705 -3.141592653589793116 $706 -0 $517 $707 reversed 7 unknown #
coedge $-1 $519 $518 $704 $708 reversed $335 $-1 #
edge $-1 $526 0 $706 10 $622 $709 forward 7 unknown #
edge $-1 $525 0 $705 9.999999999999985789 $623 $710 forward 7 unknown #
coedge $-1 $545 $520 $610 $700 reversed $337 $-1 #
edge $-1 $711 -0.3742488766909968234 $631 23.3742488766909986 $520 $712 reversed 7 unknown #
coedge $-1 $521 $531 $602 $696 forward $532 $-1 #
vertex $-1 $629 $713 #
ellipse-curve $-1 0 79.5 0 0 -1 0 -0 0 32.26449730563917484 1 I I #
ellipse-curve $-1 0 79.5 0 0 -1 0 -9 0 0 1 I I #
point $-1 9 79.5 1.102145718440139532e-15 #
point $-1 -9 79.5 0 #
coedge $-1 $534 $545 $547 $645 forward $337 $-1 #
edge $-1 $638 -0.3742488766909932707 $648 23.37424887669099149 $534 $714 reversed 7 unknown #
vertex $-1 $535 $715 #
ellipse-curve $-1 0 79.5 0 0 -1 0 -0 0 32.26449730563917484 1 I I #
ellipse-curve $-1 26.50000000000000355 54.2017349682947156 -26.50000000000000355 0.7071067811865475727 -0 -0.7071067811865475727 0 16.62828914831588278 -0 1 I I #
point $-1 23.00000000000000711 70.07624283468224746 -30 #
face $-1 $-1 $611 $2 $-1 $716 forward single #
sphere-surface $-1 0 54.2017349682947156 0 41 1 0 0 0 0 1 forward_v I I I I #
straight-curve $-1 30 79.5 -11.5 -0 -0 -1 I I #
edge $-1 $548 1.947683951054279827 $648 2.764705029330410291 $636 $717 reversed 7 unknown #
point $-1 30.00000000000000355 79.5 -11.87424887669100038 #
ellipse-curve $-1 0 54.2017349682947156 -30 -0 -0 -1 0 27.94637722496424104 0 1 I I #
vertex $-1 $637 $718 #
ellipse-curve $-1 0 54.2017349682947156 -30 -0 -0 -1 0 27.94637722496424104 0 1 I I #
face $-1 $689 $719 $2 $-1 $720 reversed single #
loop $-1 $-1 $660 $558 #
coedge $-1 $655 $655 $721 $722 forward $559 $-1 #
coedge $-1 $564 $561 $723 $724 reversed $453 $-1 #
coedge $-1 $561 $564 $725 $726 forward $453 $-1 #
coedge $-1 $652 $652 $561 $656 reversed $559 $-1 #
edge $-1 $727 -3.141592653589793116 $728 -0 $655 $729 reversed 7 unknown #
coedge $-1 $667 $562 $730 $731 forward $455 $-1 #
coedge $-1 $677 $732 $562 $659 forward $719 $-1 #
edge $-1 $733 -2.569648573118025858 $734 -2.14274040726666426 $562 $735 reversed 7 unknown #
coedge $-1 $723 $725 $563 $661 forward $651 $-1 #
edge $-1 $662 -3.141592653589793116 $663 0 $563 $736 forward 7 unknown #
vertex $-1 $661 $737 #
vertex $-1 $661 $738 #
ellipse-curve $-1 0 74.5 0 0 -1 0 -4 0 0 1 I I #
coedge $-1 $739 $740 $566 $666 reversed $691 $-1 #
edge $-1 $668 -0.9004488338648295453 $675 -0.6301273641135516357 $665 $741 reversed 7 unknown #
coedge $-1 $567 $657 $739 $742 reversed $455 $-1 #
vertex $-1 $568 $743 #
straight-curve $-1 25 74.5 -11.5 -0 -0 -1 I I #
point $-1 25 74.5 16.0928691258784049 #
edge $-1 $672 -4.592869125878404901 $734 27.59286912587840845 $571 $744 reversed 7 unknown #
vertex $-1 $671 $745 #
ellipse-curve $-1 0 74.5 0 0 -1 0 -0 0 29.73180850036960621 1 I I #
coedge $-1 $589 $575 $740 $746 forward $494 $-1 #
vertex $-1 $666 $747 #
straight-curve $-1 25 79.5 -20.92893218813452449 0 -1 0 I I #
coedge $-1 $748 $658 $577 $678 reversed $719 $-1 #
edge $-1 $680 -2.51146528947624148 $734 -2.241143819724963571 $677 $749 reversed 7 unknown #
coedge $-1 $578 $593 $748 $750 forward $594 $-1 #
vertex $-1 $678 $751 #
straight-curve $-1 -25 79.5 -20.92893218813452449 0 -1 0 I I #
ellipse-curve $-1 -25 54.2017349682947156 0 -1 -0 -0 0 0 25.90366769397723701 1 I I #
coedge $-1 $752 $587 $589 $686 reversed $599 $-1 #
coedge $-1 $587 $693 $593 $688 forward $599 $-1 #
ellipse-curve $-1 0 54.2017349682947156 -25 -0 -0 -1 0 25.90366769397723701 0 1 I I #
edge $-1 $753 10.03458927963080782 $590 40.56194078377976098 $683 $754 forward 7 unknown #
point $-1 20.9289321881345316 38.93805921622023902 -25 #
edge $-1 $755 10.03458927963080782 $595 40.56194078377976098 $593 $756 forward 7 unknown #
face $-1 $472 $594 $2 $-1 $757 forward single #
point $-1 -20.9289321881345316 38.93805921622023902 -25 #
loop $-1 $-1 $740 $598 #
sphere-surface $-1 0 54.2017349682947156 0 36 1 0 0 0 0 1 forward_v I I I I #
coedge $-1 $684 $730 $732 $758 forward $599 $-1 #
coedge $-1 $605 $610 $601 $695 forward $611 $-1 #
edge $-1 $711 -2.702747832343323608 $607 -2.17491207127974695 $694 $759 reversed 7 unknown #
edge $-1 $616 2.17491207127974695 $631 2.702747832343323608 $630 $760 reversed 7 unknown #
plane-surface $-1 23 79.5 30 0 0 -1 -1 0 0 forward_v I I I I #
ellipse-curve $-1 26.50000000000000355 54.2017349682947156 26.50000000000000355 0.7071067811865475727 -0 0.7071067811865475727 0 -16.62828914831588278 -0 1 I I #
point $-1 23.00000000000000355 70.07624283468224746 30.00000000000000355 #
edge $-1 $612 -1.193908702535513733 $711 -0.3768876242593831027 $628 $761 forward 7 unknown #
point $-1 30.00000000000000711 79.5 11.87424887669098972 #
ellipse-curve $-1 -26.50000000000000355 54.2017349682947156 26.50000000000000355 -0.7071067811865475727 -0 0.7071067811865475727 0 -16.62828914831588278 0 1 I I #
point $-1 -23.00000000000000355 70.07624283468224746 30.00000000000000355 #
coedge $-1 $621 $621 $625 $708 forward $515 $-1 #
vertex $-1 $627 $762 #
vertex $-1 $626 $763 #
ellipse-curve $-1 0 89.5 0 -0 1 -0 -9 0 0 1 I I #
edge $-1 $705 -3.141592653589793116 $706 -0 $704 $764 reversed 7 unknown #
straight-curve $-1 -9 79.5 -2.204291436880279065e-15 0 1 0 I I #
straight-curve $-1 9 79.5 1.102145718440139532e-15 0 1 0 I I #
vertex $-1 $700 $765 #
straight-curve $-1 11.5 79.5 30 1 0 0 I I #
point $-1 -11.87424887669099682 79.5 30.00000000000000355 #
straight-curve $-1 -11.5 79.5 -30 -1 0 0 I I #
point $-1 -11.87424887669099327 79.5 -30.00000000000000711 #
sphere-surface $-1 0 54.2017349682947156 0 41 1 0 0 0 0 1 forward_v I I I I #
ellipse-curve $-1 0 79.5 0 0 -1 0 -0 0 32.26449730563917484 1 I I #
point $-1 11.87424887669099327 79.5 -30.00000000000000711 #
loop $-1 $-1 $748 $650 #
sphere-surface $-1 0 54.2017349682947156 0 36 1 0 0 0 0 1 forward_v I I I I #
coedge $-1 $725 $723 $652 $722 reversed $651 $-1 #
edge $-1 $727 -3.141592653589793116 $728 -0 $721 $766 reversed 7 unknown #
coedge $-1 $721 $660 $653 $724 forward $651 $-1 #
edge $-1 $663 0 $728 10 $723 $767 forward 7 unknown #
coedge $-1 $660 $721 $654 $726 reversed $651 $-1 #
edge $-1 $662 0 $727 9.999999999999985789 $725 $768 forward 7 unknown #
vertex $-1 $726 $769 #
vertex $-1 $722 $770 #
ellipse-curve $-1 0 84.5 0 0 -1 0 -4 0 0 1 I I #
coedge $-1 $693 $752 $657 $731 reversed $599 $-1 #
edge $-1 $733 -4.592869125878404901 $771 27.5928691258784049 $657 $772 reversed 7 unknown #
coedge $-1 $658 $748 $693 $758 reversed $719 $-1 #
vertex $-1 $731 $773 #
vertex $-1 $671 $774 #
ellipse-curve $-1 0 74.5 0 0 -1 0 -0 0 29.73180850036960621 1 I I #
ellipse-curve $-1 0 74.5 0 0 -1 0 -4 0 0 1 I I #
point $-1 4 74.5 4.898425415289509033e-16 #
point $-1 -4 74.5 0 #
coedge $-1 $775 $665 $667 $742 forward $691 $-1 #
coedge $-1 $665 $775 $674 $746 reversed $691 $-1 #
ellipse-curve $-1 25 54.2017349682947156 0 1 -0 -0 0 0 -25.90366769397723701 1 I I #
edge $-1 $668 2.14274040726666426 $771 2.569648573118025858 $667 $776 reversed 7 unknown #
point $-1 24.99999999999999289 74.5 -16.09286912587840845 #
straight-curve $-1 -25 74.5 11.5 -0 0 1 I I #
point $-1 -25 74.5 16.0928691258784049 #
edge $-1 $675 -0.1864072420977703759 $753 0.1864072420977702371 $740 $777 reversed 7 unknown #
point $-1 25 69.46541072036919218 -20.92893218813452805 #
coedge $-1 $732 $677 $679 $750 reversed $719 $-1 #
ellipse-curve $-1 -25 54.2017349682947156 0 -1 -0 -0 0 0 25.90366769397723701 1 I I #
edge $-1 $755 -0.1864072420977702371 $680 0.1864072420977700706 $748 $778 reversed 7 unknown #
point $-1 -25 69.46541072036919218 -20.92893218813453515 #
coedge $-1 $730 $683 $775 $779 forward $599 $-1 #
vertex $-1 $779 $780 #
straight-curve $-1 20.92893218813452449 79.5 -25 0 -1 0 I I #
vertex $-1 $758 $781 #
straight-curve $-1 -20.92893218813452449 79.5 -25 0 -1 0 I I #
plane-surface $-1 -26.46446609406726225 79.5 -19.46446609406726225 0.7071067811865475727 0 0.7071067811865475727 0.7071067811865475727 0 -0.7071067811865475727 forward_v I I I I #
edge $-1 $733 0.6703474929300670127 $755 0.9406689626813450333 $732 $782 reversed 7 unknown #
ellipse-curve $-1 0 54.2017349682947156 30 -0 -0 1 0 -27.94637722496424104 0 1 I I #
ellipse-curve $-1 0 54.2017349682947156 30 -0 -0 1 0 -27.94637722496424104 0 1 I I #
ellipse-curve $-1 0 79.5 0 0 -1 0 -0 0 32.26449730563917484 1 I I #
point $-1 9 89.49999999999998579 1.102145718440139532e-15 #
point $-1 -9 89.5 0 #
ellipse-curve $-1 0 89.5 0 0 -1 0 -9 0 0 1 I I #
point $-1 11.87424887669099682 79.5 30.00000000000000355 #
ellipse-curve $-1 0 84.5 0 -0 1 -0 -4 0 0 1 I I #
straight-curve $-1 -4 74.5 -9.796850830579018066e-16 0 1 0 I I #
straight-curve $-1 4 74.5 4.898425415289509033e-16 0 1 0 I I #
point $-1 4 84.49999999999998579 4.898425415289509033e-16 #
point $-1 -4 84.5 0 #
vertex $-1 $742 $783 #
straight-curve $-1 -11.5 74.5 -25 -1 0 0 I I #
point $-1 -16.0928691258784049 74.5 -25 #
point $-1 -24.99999999999999289 74.5 -16.09286912587840845 #
coedge $-1 $740 $739 $752 $779 reversed $691 $-1 #
ellipse-curve $-1 0 74.5 0 0 -1 0 -0 0 29.73180850036960621 1 I I #
ellipse-curve $-1 22.9644660940672658 54.2017349682947156 -22.9644660940672658 0.7071067811865475727 -0 -0.7071067811865475727 0 15.53275873851357503 -0 1 I I #
ellipse-curve $-1 -22.9644660940672658 54.2017349682947156 -22.9644660940672658 -0.7071067811865475727 -0 -0.7071067811865475727 0 15.53275873851357503 0 1 I I #
edge $-1 $753 -0.9406689626813450333 $771 -0.6703474929300670127 $775 $784 reversed 7 unknown #
point $-1 20.9289321881345316 69.46541072036919218 -25 #
point $-1 -20.9289321881345316 69.46541072036919218 -25 #
ellipse-curve $-1 0 54.2017349682947156 -25 -0 -0 -1 0 25.90366769397723701 0 1 I I #
point $-1 16.0928691258784049 74.5 -25 #
ellipse-curve $-1 0 54.2017349682947156 -25 -0 -0 -1 0 25.90366769397723701 0 1 I I #
End-of-ACIS-data 