600 0 1 0           
82 GICL ACIS Healer - Source: /gicl/data5/repository/PTC/V18/cmm18/ph9b.prt.sat - 6 0 18 ACIS 6.0.3 Solaris 24 Sat Apr 13 22:22:16 2002 
1 9.999999999999999547e-07 1.000000000000000036e-10 
body $-1 $1 $-1 $-1 #
lump $-1 $-1 $2 $0 #
shell $-1 $-1 $-1 $3 $-1 $1 #
face $-1 $4 $5 $2 $-1 $6 forward single #
face $-1 $7 $8 $2 $-1 $6 forward single #
loop $-1 $-1 $9 $3 #
sphere-surface $-1 0 0 0 26 1 0 0 0 0 1 forward_v I I I I #
face $-1 $10 $11 $2 $-1 $12 forward single #
loop $-1 $-1 $13 $4 #
coedge $-1 $14 $15 $16 $17 reversed $5 $-1 #
face $-1 $18 $19 $2 $-1 $20 forward single #
loop $-1 $-1 $21 $7 #
cone-surface $-1 0 29.22499999999999787 0 0 -1 0 -12.5 0 0 1 I I 0 1 12.5 forward I I I I #
coedge $-1 $16 $22 $23 $24 forward $8 $-1 #
coedge $-1 $15 $9 $25 $26 reversed $5 $-1 #
coedge $-1 $9 $14 $22 $27 forward $5 $-1 #
coedge $-1 $22 $13 $9 $17 forward $8 $-1 #
edge $-1 $28 -9.24966874953976564e-16 $29 2.640060883028154226 $9 $30 forward 7 unknown #
face $-1 $-1 $31 $2 $-1 $12 forward single #
loop $-1 $-1 $32 $10 #
plane-surface $-1 0 -38.5 0 0 -1 0 -1 0 0 forward_v I I I I #
coedge $-1 $33 $34 $35 $36 forward $11 $-1 #
coedge $-1 $13 $16 $15 $27 reversed $8 $-1 #
coedge $-1 $34 $33 $13 $24 reversed $11 $-1 #
edge $-1 $37 -3.141592653589793116 $28 -2.449212707644754516e-16 $13 $38 reversed 7 unknown #
coedge $-1 $39 $40 $14 $26 forward $31 $-1 #
edge $-1 $37 -3.141592653589793116 $28 2.449212707644754516e-16 $14 $41 forward 7 unknown #
edge $-1 $37 -9.24966874953976564e-16 $29 2.640060883028153782 $15 $42 forward 7 unknown #
vertex $-1 $26 $43 #
vertex $-1 $27 $44 #
ellipse-curve $-1 0 0 0 2.449212707644755009e-16 -1.867126402889969e-32 -1 -12.50000000000001954 -22.7980262303559833 -3.061515884555947879e-15 1 I I #
loop $-1 $-1 $25 $18 #
coedge $-1 $35 $35 $45 $46 forward $19 $-1 #
coedge $-1 $23 $21 $39 $47 forward $11 $-1 #
coedge $-1 $21 $23 $40 $48 reversed $11 $-1 #
coedge $-1 $32 $32 $21 $36 reversed $19 $-1 #
edge $-1 $49 -3.141592653589793116 $50 -2.449212707644754516e-16 $35 $51 reversed 7 unknown #
vertex $-1 $27 $52 #
ellipse-curve $-1 0 -22.79802623035599751 0 0 -1 0 -12.5 3.552713678800500929e-15 0 1 I I #
coedge $-1 $45 $25 $33 $47 reversed $31 $-1 #
coedge $-1 $25 $45 $34 $48 forward $31 $-1 #
ellipse-curve $-1 0 -22.79802623035599751 0 0 -1 0 -12.5 3.552713678800500929e-15 0 1 I I #
ellipse-curve $-1 0 0 0 -1.224606353822377505e-16 -9.335632014449845001e-33 1 12.50000000000001954 -22.7980262303559833 1.530757942277973939e-15 1 I I #
point $-1 -12.5 -22.79802623035599751 -3.061515884555943146e-15 #
point $-1 7.959941299845452178e-15 26 9.747794691843893357e-31 #
coedge $-1 $40 $39 $32 $46 reversed $31 $-1 #
edge $-1 $49 -3.141592653589793116 $50 2.449212707644754516e-16 $32 $53 forward 7 unknown #
edge $-1 $50 0 $28 15.70197376964400249 $39 $54 forward 7 unknown #
edge $-1 $49 0 $37 15.70197376964400249 $40 $55 forward 7 unknown #
vertex $-1 $36 $56 #
vertex $-1 $36 $57 #
ellipse-curve $-1 0 -38.5 0 0 -1 0 -12.5 0 0 1 I I #
point $-1 12.5 -22.79802623035599751 1.530757942277971573e-15 #
ellipse-curve $-1 0 -38.5 0 0 -1 0 -12.5 0 0 1 I I #
straight-curve $-1 -12.5 -38.5 -3.061515884555943146e-15 0 1 0 I I #
straight-curve $-1 12.5 -38.5 1.530757942277971573e-15 0 1 0 I I #
point $-1 12.5 -38.5 1.530757942277971573e-15 #
point $-1 -12.5 -38.5 -3.061515884555943146e-15 #
End-of-ACIS-data 