700 0 2 0           
24 FBMach with ACIS - 7.0.3 13 ACIS 7.0.3 NT 24 Wed May 15 23:08:03 2002 
1 9.9999999999999995e-007 1e-010 
body $2 -1 $-1 $3 $-1 $4 #
bdycol-kcp $-1 -1 1 1 $5 #
model_id-kcp-attrib $-1 -1 $-1 $-1 $0 1 1021518483 1021518483 1554120705 1 #
lump $-1 -1 $-1 $-1 $6 $0 #
transform $-1 -1 1 0 0 0 1 0 0 0 1 0 0 0 1 rotate no_reflect no_shear #
body $7 -1 $-1 $8 $-1 $9 #
shell $-1 -1 $-1 $-1 $-1 $10 $-1 $3 #
model_id-kcp-attrib $-1 -1 $-1 $-1 $5 1 1021518483 1021518483 1554120706 1 #
lump $-1 -1 $-1 $-1 $11 $5 #
transform $-1 -1 1 0 0 0 1 0 0 0 1 0 -6.25 0 1 no_rotate no_reflect no_shear #
face $12 -1 $-1 $13 $14 $6 $-1 $15 forward single #
shell $-1 -1 $-1 $-1 $-1 $16 $-1 $8 #
model_id-kcp-attrib $-1 -1 $-1 $-1 $10 1 1021518483 1021518483 1554120705 2 #
face $17 -1 $-1 $18 $19 $6 $-1 $15 forward single #
loop $-1 -1 $-1 $-1 $20 $10 #
sphere-surface $-1 -1 $-1 0 0 0 26 1 0 0 0 0 1 forward_v I I I I #
face $-1 -1 $-1 $21 $22 $11 $-1 $23 forward single #
model_id-kcp-attrib $-1 -1 $-1 $-1 $13 1 1021518483 1021518483 1554120705 3 #
face $24 -1 $-1 $25 $26 $6 $-1 $27 forward single #
loop $-1 -1 $-1 $-1 $28 $13 #
coedge $-1 -1 $-1 $29 $30 $31 $32 reversed $14 $-1 #
face $-1 -1 $-1 $33 $34 $11 $-1 $35 reversed single #
loop $-1 -1 $-1 $-1 $36 $16 #
plane-surface $-1 -1 $-1 0 0 26 0 0 1 1 0 0 forward_v I I I I #
model_id-kcp-attrib $-1 -1 $-1 $-1 $18 1 1021518483 1021518483 1554120705 4 #
face $37 -1 $-1 $38 $39 $6 $-1 $40 forward single #
loop $-1 -1 $-1 $-1 $41 $18 #
cone-surface $-1 -1 $-1 0 29.224999999999998 0 0 -1 0 -12.5 0 0 1 I I 0 1 12.5 forward I I I I #
coedge $-1 -1 $-1 $31 $42 $43 $44 forward $19 $-1 #
coedge $-1 -1 $-1 $30 $20 $45 $46 reversed $14 $-1 #
coedge $-1 -1 $-1 $20 $29 $42 $47 forward $14 $-1 #
coedge $-1 -1 $-1 $42 $28 $20 $32 forward $19 $-1 #
edge $-1 -1 $-1 $48 -9.2496687495397656e-016 $49 2.6400608830281542 $20 $50 forward @7 unknown #
face $51 -1 $-1 $52 $53 $11 $-1 $54 reversed single #
loop $-1 -1 $-1 $-1 $55 $21 #
plane-surface $-1 -1 $-1 0 0 -26 0 0 1 1 0 0 forward_v I I I I #
coedge $-1 -1 $-1 $56 $57 $58 $59 forward $22 $-1 #
model_id-kcp-attrib $-1 -1 $-1 $-1 $25 1 1021518483 1021518483 1554120705 5 #
face $60 -1 $-1 $-1 $61 $6 $-1 $27 forward single #
loop $-1 -1 $-1 $-1 $62 $25 #
plane-surface $-1 -1 $-1 0 -38.5 0 0 -1 0 -1 0 0 forward_v I I I I #
coedge $-1 -1 $-1 $63 $64 $65 $66 forward $26 $-1 #
coedge $-1 -1 $-1 $28 $31 $30 $47 reversed $19 $-1 #
coedge $-1 -1 $-1 $64 $63 $28 $44 reversed $26 $-1 #
edge $-1 -1 $-1 $67 -3.1415926535897931 $48 -2.4492127076447545e-016 $28 $68 reversed @7 unknown #
coedge $-1 -1 $-1 $69 $70 $29 $46 forward $61 $-1 #
edge $-1 -1 $-1 $67 -3.1415926535897931 $48 2.4492127076447545e-016 $29 $71 forward @7 unknown #
edge $-1 -1 $-1 $67 -9.2496687495397656e-016 $49 2.6400608830281538 $30 $72 forward @7 unknown #
vertex $-1 -1 $-1 $46 $73 #
vertex $-1 -1 $-1 $47 $74 #
ellipse-curve $-1 -1 $-1 0 0 0 2.449212707644755e-016 -1.867126402889969e-032 -1 -12.50000000000002 -22.798026230355983 -3.0615158845559479e-015 1 I I #
model_id-kcp-attrib $-1 -1 $-1 $-1 $33 1 1021518483 1021518483 1554120706 2 #
face $-1 -1 $-1 $75 $76 $11 $-1 $77 reversed single #
loop $-1 -1 $-1 $-1 $78 $33 #
plane-surface $-1 -1 $-1 0 -32.25 0 0 1 0 0 0 1 forward_v I I I I #
coedge $-1 -1 $-1 $79 $80 $81 $82 forward $34 $-1 #
coedge $-1 -1 $-1 $83 $36 $84 $85 forward $22 $-1 #
coedge $-1 -1 $-1 $36 $83 $86 $87 forward $22 $-1 #
coedge $-1 -1 $-1 $88 $89 $36 $59 reversed $90 $-1 #
edge $-1 -1 $-1 $91 -32.25 $92 32.25 $58 $93 forward @7 unknown #
model_id-kcp-attrib $-1 -1 $-1 $-1 $38 1 1021518483 1021518483 1554120705 6 #
loop $-1 -1 $-1 $-1 $45 $38 #
coedge $-1 -1 $-1 $65 $65 $94 $95 forward $39 $-1 #
coedge $-1 -1 $-1 $43 $41 $69 $96 forward $26 $-1 #
coedge $-1 -1 $-1 $41 $43 $70 $97 reversed $26 $-1 #
coedge $-1 -1 $-1 $62 $62 $41 $66 reversed $39 $-1 #
edge $98 -1 $-1 $99 -3.1415926535897931 $100 -2.4492127076447545e-016 $65 $101 reversed @7 unknown #
vertex $-1 -1 $-1 $47 $102 #
ellipse-curve $-1 -1 $-1 0 -22.798026230355998 0 0 -1 0 -12.5 3.5527136788005009e-015 0 1 I I #
coedge $-1 -1 $-1 $94 $45 $63 $96 reversed $61 $-1 #
coedge $-1 -1 $-1 $45 $94 $64 $97 forward $61 $-1 #
ellipse-curve $-1 -1 $-1 0 -22.798026230355998 0 0 -1 0 -12.5 3.5527136788005009e-015 0 1 I I #
ellipse-curve $-1 -1 $-1 0 0 0 -1.2246063538223775e-016 -9.335632014449845e-033 1 12.50000000000002 -22.798026230355983 1.5307579422779739e-015 1 I I #
point $-1 -1 $-1 -12.5 -22.798026230355998 -3.0615158845559431e-015 #
point $-1 -1 $-1 7.9599412998454522e-015 26 9.7477946918438934e-031 #
face $-1 -1 $-1 $103 $104 $11 $-1 $105 reversed single #
loop $-1 -1 $-1 $-1 $106 $52 #
plane-surface $-1 -1 $-1 -26 0 0 1 0 0 0 0 -1 forward_v I I I I #
coedge $-1 -1 $-1 $107 $86 $108 $109 forward $53 $-1 #
coedge $-1 -1 $-1 $110 $55 $107 $111 forward $34 $-1 #
coedge $-1 -1 $-1 $55 $110 $112 $113 forward $34 $-1 #
coedge $-1 -1 $-1 $89 $88 $55 $82 reversed $90 $-1 #
edge $-1 -1 $-1 $114 -32.25 $115 32.25 $81 $116 forward @7 unknown #
coedge $-1 -1 $-1 $57 $56 $117 $118 forward $22 $-1 #
coedge $-1 -1 $-1 $119 $120 $56 $85 reversed $104 $-1 #
edge $-1 -1 $-1 $92 -26 $121 26 $84 $122 forward @7 unknown #
coedge $-1 -1 $-1 $78 $123 $57 $87 reversed $53 $-1 #
edge $-1 -1 $-1 $124 -26 $91 26 $86 $125 forward @7 unknown #
coedge $-1 -1 $-1 $81 $58 $123 $126 forward $90 $-1 #
coedge $-1 -1 $-1 $58 $81 $119 $127 reversed $90 $-1 #
loop $-1 -1 $-1 $-1 $88 $103 #
vertex $-1 -1 $-1 $59 $128 #
vertex $-1 -1 $-1 $59 $129 #
straight-curve $-1 -1 $-1 26 0 26 0 1 0 I I #
coedge $-1 -1 $-1 $70 $69 $62 $95 reversed $61 $-1 #
edge $130 -1 $-1 $99 -3.1415926535897931 $100 2.4492127076447545e-016 $62 $131 forward @7 unknown #
edge $-1 -1 $-1 $100 0 $48 15.701973769644002 $69 $132 forward @7 unknown #
edge $-1 -1 $-1 $99 0 $67 15.701973769644002 $70 $133 forward @7 unknown #
attrib_edge_convexity-kcp-attrib $-1 -1 $134 $-1 $66 1 #
vertex $-1 -1 $-1 $66 $135 #
vertex $-1 -1 $-1 $66 $136 #
ellipse-curve $-1 -1 $-1 0 -38.5 0 0 -1 0 -12.5 0 0 1 I I #
point $-1 -1 $-1 12.5 -22.798026230355998 1.5307579422779716e-015 #
face $-1 -1 $-1 $-1 $90 $11 $-1 $137 reversed single #
loop $-1 -1 $-1 $-1 $119 $75 #
plane-surface $-1 -1 $-1 0 32.25 0 0 -1 0 0 0 -1 forward_v I I I I #
coedge $-1 -1 $-1 $138 $117 $120 $139 forward $76 $-1 #
coedge $-1 -1 $-1 $123 $78 $79 $111 reversed $53 $-1 #
coedge $-1 -1 $-1 $117 $138 $78 $109 reversed $76 $-1 #
edge $-1 -1 $-1 $124 -26 $140 26 $108 $141 forward @7 unknown #
coedge $-1 -1 $-1 $80 $79 $138 $142 forward $34 $-1 #
edge $-1 -1 $-1 $115 -26 $140 26 $107 $143 forward @7 unknown #
coedge $-1 -1 $-1 $120 $119 $80 $113 reversed $104 $-1 #
edge $-1 -1 $-1 $144 -26 $114 26 $112 $145 forward @7 unknown #
vertex $-1 -1 $-1 $82 $146 #
vertex $-1 -1 $-1 $126 $147 #
straight-curve $-1 -1 $-1 26 0 -26 0 -1 0 I I #
coedge $-1 -1 $-1 $106 $108 $83 $118 reversed $76 $-1 #
edge $-1 -1 $-1 $121 -32.25 $124 32.25 $117 $148 forward @7 unknown #
coedge $-1 -1 $-1 $112 $84 $89 $127 forward $104 $-1 #
coedge $-1 -1 $-1 $84 $112 $106 $139 reversed $104 $-1 #
vertex $-1 -1 $-1 $85 $149 #
straight-curve $-1 -1 $-1 0 32.25 26 -1 0 0 I I #
coedge $-1 -1 $-1 $86 $107 $88 $126 reversed $53 $-1 #
vertex $-1 -1 $-1 $118 $150 #
straight-curve $-1 -1 $-1 0 -32.25 26 1 0 0 I I #
edge $-1 -1 $-1 $91 -26 $115 26 $88 $151 forward @7 unknown #
edge $-1 -1 $-1 $92 -26 $114 26 $89 $152 forward @7 unknown #
point $-1 -1 $-1 26 -32.25 26 #
point $-1 -1 $-1 26 32.25 26 #
attrib_edge_convexity-kcp-attrib $-1 -1 $153 $-1 $95 1 #
ellipse-curve $-1 -1 $-1 0 -38.5 0 0 -1 0 -12.5 0 0 1 I I #
straight-curve $-1 -1 $-1 -12.5 -38.5 -3.0615158845559431e-015 0 1 0 I I #
straight-curve $-1 -1 $-1 12.5 -38.5 1.5307579422779716e-015 0 1 0 I I #
convexity-sys-attrib $-1 -1 $-1 $98 $66 #
point $-1 -1 $-1 12.5 -38.5 1.5307579422779716e-015 #
point $-1 -1 $-1 -12.5 -38.5 -3.0615158845559431e-015 #
plane-surface $-1 -1 $-1 26 0 0 -1 0 0 0 0 1 forward_v I I I I #
coedge $-1 -1 $-1 $108 $106 $110 $142 reversed $76 $-1 #
edge $-1 -1 $-1 $121 -26 $144 26 $120 $154 forward @7 unknown #
vertex $-1 -1 $-1 $142 $155 #
straight-curve $-1 -1 $-1 -26 -32.25 0 0 0 -1 I I #
edge $-1 -1 $-1 $140 -32.25 $144 32.25 $138 $156 forward @7 unknown #
straight-curve $-1 -1 $-1 0 -32.25 -26 -1 0 0 I I #
vertex $-1 -1 $-1 $113 $157 #
straight-curve $-1 -1 $-1 0 32.25 -26 1 0 0 I I #
point $-1 -1 $-1 26 32.25 -26 #
point $-1 -1 $-1 26 -32.25 -26 #
straight-curve $-1 -1 $-1 -26 0 26 0 -1 0 I I #
point $-1 -1 $-1 -26 32.25 26 #
point $-1 -1 $-1 -26 -32.25 26 #
straight-curve $-1 -1 $-1 26 -32.25 0 0 0 -1 I I #
straight-curve $-1 -1 $-1 26 32.25 0 0 0 -1 I I #
convexity-sys-attrib $-1 -1 $-1 $130 $95 #
straight-curve $-1 -1 $-1 -26 32.25 0 0 0 -1 I I #
point $-1 -1 $-1 -26 -32.25 -26 #
straight-curve $-1 -1 $-1 -26 0 -26 0 1 0 I I #
point $-1 -1 $-1 -26 32.25 -26 #
End-of-ACIS-data 