600 0 1 0           
85 GICL Pro/E ACIS Translator - Source: f:/data5/repository/PTC/V18/cmm18/ph9b.prt - 6 0 13 ACIS 6.0.3 NT 24 Thu Apr 04 13:38:57 2002 
1 9.9999999999999995e-007 1e-010 
body $-1 $1 $-1 $-1 #
lump $-1 $-1 $2 $0 #
shell $-1 $-1 $-1 $3 $-1 $1 #
face $-1 $4 $5 $2 $-1 $6 forward single #
face $-1 $7 $8 $2 $-1 $9 forward single #
loop $-1 $-1 $10 $3 #
sphere-surface $-1 0 0 0 26 1 0 0 0 0 1 forward_v I I I I #
face $-1 $11 $12 $2 $-1 $13 forward single #
loop $-1 $-1 $14 $4 #
sphere-surface $-1 0 0 0 26 1 0 0 0 0 1 forward_v I I I I #
coedge $-1 $15 $16 $17 $18 reversed $5 $-1 #
face $-1 $19 $20 $2 $-1 $21 forward single #
loop $-1 $-1 $22 $7 #
cone-surface $-1 0 29.224999999999998 0 0 -1 0 -12.5 0 0 1 I I 0 1 12.5 forward I I I I #
coedge $-1 $17 $23 $24 $25 forward $8 $-1 #
coedge $-1 $16 $10 $26 $27 reversed $5 $-1 #
coedge $-1 $10 $15 $23 $28 forward $5 $-1 #
coedge $-1 $23 $14 $10 $18 forward $8 $-1 #
edge $-1 $29 0 $30 2.6400608830281542 $10 $31 forward 7 unknown #
face $-1 $-1 $32 $2 $-1 $33 forward single #
loop $-1 $-1 $34 $11 #
plane-surface $-1 0 -38.5 0 0 -1 0 -1 0 0 forward_v I I I I #
coedge $-1 $35 $36 $37 $38 forward $12 $-1 #
coedge $-1 $14 $17 $16 $28 reversed $8 $-1 #
coedge $-1 $36 $35 $14 $25 reversed $12 $-1 #
edge $-1 $39 0 $29 3.1415926535897931 $14 $40 forward 7 unknown #
coedge $-1 $41 $42 $15 $27 forward $32 $-1 #
edge $-1 $39 0 $29 3.1415926535897931 $15 $43 forward 7 unknown #
edge $-1 $39 0 $30 2.6400608830281538 $16 $44 forward 7 unknown #
vertex $-1 $27 $45 #
vertex $-1 $28 $46 #
ellipse-curve $-1 0 0 0 2.449212707644755e-016 -1.867126402889969e-032 -1 -12.50000000000002 -22.798026230355983 -3.0615158845559479e-015 1 I I #
loop $-1 $-1 $26 $19 #
cone-surface $-1 0 29.224999999999998 0 0 -1 0 -12.5 0 0 1 I I 0 1 12.5 forward I I I I #
coedge $-1 $37 $37 $47 $48 forward $20 $-1 #
coedge $-1 $24 $22 $41 $49 forward $12 $-1 #
coedge $-1 $22 $24 $42 $50 reversed $12 $-1 #
coedge $-1 $34 $34 $22 $38 reversed $20 $-1 #
edge $-1 $51 0 $52 3.1415926535897931 $37 $53 forward 7 unknown #
vertex $-1 $28 $54 #
ellipse-curve $-1 8.8817841970012523e-016 -22.798026230355983 -1.3322676295501878e-015 0 1 0 12.500000000000018 0 2.8630255718281618e-015 1 I I #
coedge $-1 $47 $26 $35 $49 reversed $32 $-1 #
coedge $-1 $26 $47 $36 $50 forward $32 $-1 #
ellipse-curve $-1 0 -22.798026230355983 -2.2204460492503131e-015 0 -1 0 12.50000000000002 0 3.751203991528287e-015 1 I I #
ellipse-curve $-1 0 0 0 -1.2246063538223775e-016 -9.335632014449845e-033 1 12.50000000000002 -22.798026230355983 1.5307579422779739e-015 1 I I #
point $-1 -12.50000000000002 -22.798026230355983 -3.0615158845559479e-015 #
point $-1 7.9599412998454522e-015 26 9.7477946918438934e-031 #
coedge $-1 $42 $41 $34 $48 reversed $32 $-1 #
edge $-1 $51 0 $52 3.1415926535897931 $34 $55 forward 7 unknown #
edge $-1 $52 0 $29 15.701973769644017 $41 $56 forward 7 unknown #
edge $-1 $51 0 $39 15.701973769644017 $42 $57 forward 7 unknown #
vertex $-1 $38 $58 #
vertex $-1 $38 $59 #
ellipse-curve $-1 0 -38.5 -4.4408920985006262e-016 0 1 0 12.5 0 1.9748471521280342e-015 1 I I #
point $-1 12.50000000000002 -22.798026230355983 1.5307579422779739e-015 #
ellipse-curve $-1 0 -38.5 4.4408920985006262e-016 0 -1 0 12.5 0 1.086668732427909e-015 1 I I #
straight-curve $-1 -12.5 -38.5 -3.0615158845559431e-015 0 1 0 I I #
straight-curve $-1 12.5 -38.5 1.5307579422779716e-015 0 1 0 I I #
point $-1 12.5 -38.5 1.5307579422779716e-015 #
point $-1 -12.5 -38.5 -3.0615158845559431e-015 #
End-of-ACIS-data 