600 0 1 0           
87 GICL Pro/E ACIS Translator - Source: f:/data5/repository/PTC/V18/cmm18/ps_17r.prt - 6 0 13 ACIS 6.0.3 NT 24 Thu Apr 04 13:38:55 2002 
1 9.9999999999999995e-007 1e-010 
body $-1 $1 $-1 $-1 #
lump $-1 $-1 $2 $0 #
shell $-1 $-1 $-1 $3 $-1 $1 #
face $-1 $4 $5 $2 $-1 $6 forward single #
face $-1 $7 $8 $2 $-1 $9 forward single #
loop $-1 $-1 $10 $3 #
cone-surface $-1 0 21 0 0 -1 0 -0.15000000000000002 0 0 1 I I -0.14834045293024464 0.98893635286829751 0.15000000000000002 forward I I I I #
face $-1 $11 $12 $2 $-1 $13 reversed single #
loop $-1 $-1 $14 $4 #
cone-surface $-1 0 36.824999999999996 0 0 -1 0 -1.5 0 0 1 I I 0 1 1.5 forward I I I I #
coedge $-1 $15 $16 $17 $18 forward $5 $-1 #
face $-1 $19 $20 $2 $-1 $21 forward single #
loop $-1 $-1 $22 $7 #
plane-surface $-1 0 35 0 0 -1 0 -1 0 0 forward_v I I I I #
coedge $-1 $23 $24 $22 $25 forward $8 $-1 #
coedge $-1 $26 $10 $27 $28 reversed $5 $-1 #
coedge $-1 $10 $26 $29 $30 forward $5 $-1 #
coedge $-1 $24 $23 $10 $18 reversed $8 $-1 #
edge $-1 $31 0 $32 3.1415926535897931 $10 $33 forward 7 unknown #
face $-1 $34 $35 $2 $-1 $36 forward single #
loop $-1 $-1 $37 $11 #
cone-surface $-1 0 36.824999999999996 0 0 -1 0 -1.5 0 0 1 I I 0 1 1.5 forward I I I I #
coedge $-1 $38 $38 $14 $25 reversed $12 $-1 #
coedge $-1 $17 $14 $39 $40 reversed $8 $-1 #
coedge $-1 $14 $17 $41 $42 forward $8 $-1 #
edge $-1 $43 1.2246063538223773e-016 $44 3.1415926535897931 $14 $45 forward 7 unknown #
coedge $-1 $16 $15 $46 $47 reversed $5 $-1 #
coedge $-1 $48 $49 $15 $28 forward $35 $-1 #
edge $-1 $50 -6.6738105215038036e-033 $32 5.0559371040391641 $15 $51 forward 7 unknown #
coedge $-1 $49 $48 $16 $30 reversed $35 $-1 #
edge $-1 $52 0 $31 5.0559371040391703 $16 $53 forward 7 unknown #
vertex $-1 $30 $54 #
vertex $-1 $28 $55 #
ellipse-curve $-1 0 29.999999999999993 5.5511151231257827e-017 0 -1 0 1.5 0 1.2817980184209876e-016 1 I I #
face $-1 $56 $57 $2 $-1 $58 forward single #
loop $-1 $-1 $49 $19 #
cone-surface $-1 0 21 0 0 -1 0 -0.15000000000000002 0 0 1 I I -0.14834045293024464 0.98893635286829751 0.15000000000000002 forward I I I I #
coedge $-1 $39 $41 $48 $59 forward $20 $-1 #
coedge $-1 $22 $22 $60 $61 forward $12 $-1 #
coedge $-1 $60 $37 $23 $40 forward $20 $-1 #
edge $-1 $32 0 $44 5.0000000000000071 $23 $62 forward 7 unknown #
coedge $-1 $37 $60 $24 $42 reversed $20 $-1 #
edge $-1 $31 7.1054273576010019e-015 $43 5 $24 $63 forward 7 unknown #
vertex $-1 $42 $64 #
vertex $-1 $40 $65 #
ellipse-curve $-1 0 35 0 0 -1 0 1.5 0 0 1 I I #
coedge $-1 $66 $67 $26 $47 forward $68 $-1 #
edge $-1 $52 0 $50 3.1415926535897931 $26 $69 forward 7 unknown #
coedge $-1 $29 $27 $37 $59 reversed $35 $-1 #
coedge $-1 $27 $29 $70 $71 forward $35 $-1 #
vertex $-1 $47 $72 #
straight-curve $-1 -0.75000000000000011 25 -1.8369095307335659e-016 -0.14834045293024462 0.98893635286829751 -3.6331732237453371e-017 I I #
vertex $-1 $30 $73 #
straight-curve $-1 0.75000000000000011 25 9.1845476536678294e-017 0.14834045293024462 0.98893635286829751 1.8165866118726686e-017 I I #
point $-1 1.5 30 1.8369095307335659e-016 #
point $-1 -1.5 29.999999999999993 -3.6738190614671318e-016 #
face $-1 $74 $75 $2 $-1 $76 forward single #
loop $-1 $-1 $77 $34 #
cone-surface $-1 0 36.824999999999996 0 0 -1 0 -0.75 0 0 1 I I 0 1 0.75 forward I I I I #
edge $-1 $31 0 $32 3.1415926535897931 $48 $78 forward 7 unknown #
coedge $-1 $41 $39 $38 $61 reversed $20 $-1 #
edge $-1 $43 -1.2246063538223773e-016 $44 3.1415926535897931 $38 $79 forward 7 unknown #
straight-curve $-1 -1.5 29.999999999999993 -3.6738190614671318e-016 0 1 0 I I #
straight-curve $-1 1.5 29.999999999999993 1.8369095307335659e-016 0 1 0 I I #
point $-1 1.5 34.999999999999993 1.8369095307335659e-016 #
point $-1 -1.5 35 0 #
coedge $-1 $80 $46 $81 $82 reversed $68 $-1 #
coedge $-1 $46 $80 $83 $84 forward $68 $-1 #
loop $-1 $-1 $46 $85 #
ellipse-curve $-1 0 25 2.7755575615628914e-017 0 -1 0 0.75000000000000011 0 6.4089900921049381e-017 1 I I #
coedge $-1 $83 $81 $49 $71 reversed $57 $-1 #
edge $-1 $52 0 $50 3.1415926535897931 $49 $86 forward 7 unknown #
point $-1 -0.75000000000000011 25 0 #
point $-1 0.75000000000000011 25 9.1845476536678294e-017 #
face $-1 $85 $87 $2 $-1 $88 forward single #
loop $-1 $-1 $89 $56 #
sphere-surface $-1 0 0 0 1.5 1 0 0 0 0 1 forward_v I I I I #
coedge $-1 $81 $83 $90 $91 forward $57 $-1 #
ellipse-curve $-1 -5.5511151231257827e-017 29.999999999999993 -5.5511151231257827e-017 0 1 0 1.5 0 2.3920210430461442e-016 1 I I #
ellipse-curve $-1 0 35 0 0 1 0 1.5 0 0 1 I I #
coedge $-1 $67 $66 $92 $93 reversed $68 $-1 #
coedge $-1 $70 $77 $66 $82 forward $57 $-1 #
edge $-1 $94 0 $50 23.700961894323349 $66 $95 forward 7 unknown #
coedge $-1 $77 $70 $67 $84 reversed $57 $-1 #
edge $-1 $96 7.3274719625260332e-015 $52 23.700961894323349 $67 $97 forward 7 unknown #
face $-1 $-1 $68 $2 $-1 $98 forward single #
ellipse-curve $-1 0 25 2.7755575615628914e-017 0 1 0 0.75000000000000011 0 6.4089900921049381e-017 1 I I #
loop $-1 $-1 $92 $74 #
sphere-surface $-1 0 0 0 1.5 1 0 0 0 0 1 forward_v I I I I #
coedge $-1 $90 $99 $100 $101 forward $75 $-1 #
coedge $-1 $99 $89 $77 $91 reversed $75 $-1 #
edge $-1 $96 -2.1912802922805896e-032 $94 3.1415926535897931 $90 $102 forward 7 unknown #
coedge $-1 $100 $103 $80 $93 forward $87 $-1 #
edge $-1 $96 -1.0956401461402948e-032 $94 3.1415926535897931 $92 $104 forward 7 unknown #
vertex $-1 $101 $105 #
straight-curve $-1 -0.75 1.2990381056766509 -1.8369095307335659e-016 0 1 0 I I #
vertex $-1 $106 $107 #
straight-curve $-1 0.75 1.2990381056766509 9.1845476536678294e-017 0 1 0 I I #
cone-surface $-1 0 36.824999999999996 0 0 -1 0 -0.75 0 0 1 I I 0 1 0.75 forward I I I I #
coedge $-1 $89 $90 $103 $106 reversed $75 $-1 #
coedge $-1 $103 $92 $89 $101 reversed $87 $-1 #
edge $-1 $108 -1.2246063538223773e-016 $94 2.6179938779914917 $100 $109 forward 7 unknown #
ellipse-curve $-1 -2.7755575615628914e-017 1.2990381056766509 -2.7755575615628914e-017 0 1 0 0.75 0 1.1960105215230721e-016 1 I I #
coedge $-1 $92 $100 $99 $106 forward $87 $-1 #
ellipse-curve $-1 0 1.2990381056766509 2.7755575615628914e-017 0 -1 0 0.75 0 6.4089900921049381e-017 1 I I #
point $-1 -0.75 1.2990381056766509 -1.8369095307335659e-016 #
edge $-1 $108 0 $96 2.6179938779914949 $103 $110 forward 7 unknown #
point $-1 0.74999999999999956 1.2990381056766582 9.1845476536678245e-017 #
vertex $-1 $106 $111 #
ellipse-curve $-1 0 0 0 2.4492127076447545e-016 0 -1 -9.1845476536678294e-017 -1.5 -2.2494910827332062e-032 1 I I #
ellipse-curve $-1 0 0 0 -1.2246063538223773e-016 0 1 9.1845476536678294e-017 -1.5 1.1247455413666031e-032 1 I I #
point $-1 9.1845476536678294e-017 -1.5 1.1247455413666031e-032 #
End-of-ACIS-data 