600 0 1 0           
84 GICL ACIS Healer - Source: /gicl/data5/repository/PTC/V18/cmm18/ps_17r.prt.sat - 6 0 18 ACIS 6.0.3 Solaris 24 Sat Apr 13 22:22:45 2002 
1 9.999999999999999547e-07 1.000000000000000036e-10 
body $-1 $1 $-1 $-1 #
lump $-1 $-1 $2 $0 #
shell $-1 $-1 $-1 $3 $-1 $1 #
face $-1 $4 $5 $2 $-1 $6 forward single #
face $-1 $7 $8 $2 $-1 $9 forward single #
loop $-1 $-1 $10 $3 #
cone-surface $-1 0 21 0 0 -1 0 -0.1500000000000000222 0 0 1 I I -0.1483404529302446428 0.988936352868297508 0.1500000000000000222 forward I I I I #
face $-1 $11 $12 $2 $-1 $13 reversed single #
loop $-1 $-1 $14 $4 #
cone-surface $-1 0 36.82499999999999574 0 0 -1 0 -1.5 0 0 1 I I 0 1 1.5 forward I I I I #
coedge $-1 $15 $16 $17 $18 forward $5 $-1 #
face $-1 $19 $20 $2 $-1 $9 forward single #
loop $-1 $-1 $21 $7 #
plane-surface $-1 0 35 0 0 -1 0 -1 0 0 forward_v I I I I #
coedge $-1 $22 $23 $21 $24 forward $8 $-1 #
coedge $-1 $25 $10 $26 $27 reversed $5 $-1 #
coedge $-1 $10 $25 $28 $29 forward $5 $-1 #
coedge $-1 $23 $22 $10 $18 reversed $8 $-1 #
edge $-1 $30 -3.141592653589793116 $31 2.449212707644754516e-16 $10 $32 forward 7 unknown #
face $-1 $33 $34 $2 $-1 $6 forward single #
loop $-1 $-1 $35 $11 #
coedge $-1 $36 $36 $14 $24 reversed $12 $-1 #
coedge $-1 $17 $14 $37 $38 reversed $8 $-1 #
coedge $-1 $14 $17 $39 $40 forward $8 $-1 #
edge $-1 $41 -3.141592653589793116 $42 -0 $14 $43 reversed 7 unknown #
coedge $-1 $16 $15 $44 $45 reversed $5 $-1 #
coedge $-1 $46 $47 $15 $27 forward $34 $-1 #
edge $-1 $48 -3.293819726529637456e-17 $31 5.055937104039170293 $15 $49 forward 7 unknown #
coedge $-1 $47 $46 $16 $29 reversed $34 $-1 #
edge $-1 $50 -3.29381972652963684e-17 $30 5.055937104039170293 $16 $51 forward 7 unknown #
vertex $-1 $29 $52 #
vertex $-1 $27 $53 #
ellipse-curve $-1 0 30 0 0 -1 0 -1.5 0 0 1 I I #
face $-1 $54 $55 $2 $-1 $56 forward single #
loop $-1 $-1 $47 $19 #
coedge $-1 $37 $39 $46 $57 forward $20 $-1 #
coedge $-1 $21 $21 $58 $59 forward $12 $-1 #
coedge $-1 $58 $35 $22 $38 forward $20 $-1 #
edge $-1 $31 7.105427357601001859e-15 $42 5.000000000000007105 $22 $60 forward 7 unknown #
coedge $-1 $35 $58 $23 $40 reversed $20 $-1 #
edge $-1 $30 7.105427357601001859e-15 $41 5 $23 $61 forward 7 unknown #
vertex $-1 $40 $62 #
vertex $-1 $38 $63 #
ellipse-curve $-1 0 35 0 -0 1 -0 -1.5 0 0 1 I I #
coedge $-1 $64 $65 $25 $45 forward $66 $-1 #
edge $-1 $50 -3.141592653589793116 $48 0 $25 $67 forward 7 unknown #
coedge $-1 $28 $26 $35 $57 reversed $34 $-1 #
coedge $-1 $26 $28 $68 $69 forward $34 $-1 #
vertex $-1 $45 $70 #
straight-curve $-1 -0.750000000000000111 25 -1.836909530733565887e-16 -0.1483404529302446151 0.988936352868297508 -3.633173223745337132e-17 I I #
vertex $-1 $29 $71 #
straight-curve $-1 0.750000000000000111 25 9.184547653667829437e-17 0.1483404529302446151 0.988936352868297508 1.816586611872668566e-17 I I #
point $-1 1.5 30 1.836909530733565887e-16 #
point $-1 -1.5 30 -3.673819061467131775e-16 #
face $-1 $72 $73 $2 $-1 $74 forward single #
loop $-1 $-1 $75 $33 #
cone-surface $-1 0 36.82499999999999574 0 0 -1 0 -0.75 0 0 1 I I 0 1 0.75 forward I I I I #
edge $-1 $30 -3.141592653589793116 $31 -2.449212707644754516e-16 $46 $76 reversed 7 unknown #
coedge $-1 $39 $37 $36 $59 reversed $20 $-1 #
edge $-1 $41 -3.141592653589793116 $42 -0 $36 $77 reversed 7 unknown #
straight-curve $-1 -1.5 29.99999999999999289 -3.673819061467131775e-16 0 1 0 I I #
straight-curve $-1 1.5 29.99999999999999289 1.836909530733565887e-16 0 1 0 I I #
point $-1 1.5 34.99999999999999289 1.836909530733565887e-16 #
point $-1 -1.5 35 0 #
coedge $-1 $78 $44 $79 $80 reversed $66 $-1 #
coedge $-1 $44 $78 $81 $82 forward $66 $-1 #
loop $-1 $-1 $44 $83 #
ellipse-curve $-1 0 25 0 0 -1 0 -0.75 0 0 1 I I #
coedge $-1 $81 $79 $47 $69 reversed $55 $-1 #
edge $-1 $50 -3.141592653589793116 $48 -0 $47 $84 reversed 7 unknown #
point $-1 -0.749999999999999889 25 0 #
point $-1 0.749999999999999889 25 9.184547653667826971e-17 #
face $-1 $83 $85 $2 $-1 $74 forward single #
loop $-1 $-1 $86 $54 #
sphere-surface $-1 0 0 0 1.5 1 0 0 0 0 1 forward_v I I I I #
coedge $-1 $79 $81 $87 $88 forward $55 $-1 #
ellipse-curve $-1 0 30 0 0 -1 0 -1.5 0 0 1 I I #
ellipse-curve $-1 0 35 0 0 -1 0 -1.5 0 0 1 I I #
coedge $-1 $65 $64 $89 $90 reversed $66 $-1 #
coedge $-1 $68 $75 $64 $80 forward $55 $-1 #
edge $-1 $91 7.105427357601001859e-15 $48 23.7009618943233491 $64 $92 forward 7 unknown #
coedge $-1 $75 $68 $65 $82 reversed $55 $-1 #
edge $-1 $93 7.105427357601001859e-15 $50 23.7009618943233491 $65 $94 forward 7 unknown #
face $-1 $-1 $66 $2 $-1 $56 forward single #
ellipse-curve $-1 0 25 0 0 -1 0 -0.75 0 0 1 I I #
loop $-1 $-1 $89 $72 #
coedge $-1 $87 $95 $96 $97 forward $73 $-1 #
coedge $-1 $95 $86 $75 $88 reversed $73 $-1 #
edge $-1 $93 -3.141592653589793116 $91 -2.449212707644754516e-16 $87 $98 forward 7 unknown #
coedge $-1 $96 $99 $78 $90 forward $85 $-1 #
edge $-1 $93 -3.141592653589793116 $91 2.449212707644754516e-16 $89 $100 reversed 7 unknown #
vertex $-1 $97 $101 #
straight-curve $-1 -0.75 1.2990381056766509 -1.836909530733565887e-16 0 1 0 I I #
vertex $-1 $102 $103 #
straight-curve $-1 0.75 1.2990381056766509 9.184547653667829437e-17 0 1 0 I I #
coedge $-1 $86 $87 $99 $102 reversed $73 $-1 #
coedge $-1 $99 $89 $86 $97 reversed $85 $-1 #
edge $-1 $104 -1.224606353822377258e-16 $91 2.617993877991494411 $96 $105 forward 7 unknown #
ellipse-curve $-1 0 1.299038105676658006 0 -0 1 -0 -0.75 0 0 1 I I #
coedge $-1 $89 $96 $95 $102 forward $85 $-1 #
ellipse-curve $-1 0 1.299038105676658006 0 -0 1 -0 -0.75 0 0 1 I I #
point $-1 -0.75 1.299038105676658006 -1.836909530733565887e-16 #
edge $-1 $104 9.182470242606210586e-49 $93 2.617993877991494411 $99 $106 forward 7 unknown #
point $-1 0.749999999999999889 1.299038105676658006 9.184547653667828204e-17 #
vertex $-1 $102 $107 #
ellipse-curve $-1 0 0 0 2.449212707644754516e-16 0 -1 -9.184547653667829437e-17 -1.5 -2.249491082733206159e-32 1 I I #
ellipse-curve $-1 0 0 0 -1.224606353822377258e-16 0 1 9.184547653667829437e-17 -1.5 1.12474554136660308e-32 1 I I #
point $-1 9.184547653667829437e-17 -1.5 1.12474554136660308e-32 #
End-of-ACIS-data 