700 0 2 0           
24 FBMach with ACIS - 7.0.3 13 ACIS 7.0.3 NT 24 Wed May 15 23:14:54 2002 
1 9.9999999999999995e-007 1e-010 
body $2 -1 $-1 $3 $-1 $4 #
bdycol-kcp $-1 -1 1 2 $5 $6 #
model_id-kcp-attrib $-1 -1 $-1 $-1 $0 1 1021518894 1021518894 728825857 1 #
lump $-1 -1 $-1 $-1 $7 $0 #
transform $-1 -1 1 0 0 0 1 0 0 0 1 0 0 0 1 rotate no_reflect no_shear #
body $8 -1 $-1 $9 $-1 $10 #
body $11 -1 $-1 $12 $-1 $13 #
shell $-1 -1 $-1 $-1 $-1 $14 $-1 $3 #
model_id-kcp-attrib $-1 -1 $-1 $-1 $5 1 1021518894 1021518894 728825858 1 #
lump $-1 -1 $-1 $-1 $15 $5 #
transform $-1 -1 1 0 0 0 1 0 0 0 1 0 16.75 0 1 no_rotate no_reflect no_shear #
rgb_color-st-attrib $-1 -1 $16 $-1 $6 0.5 1 1 #
lump $-1 -1 $-1 $-1 $17 $6 #
transform $-1 -1 1 0 0 0 1 0 0 0 1 0 16.75 0 1 no_rotate no_reflect no_shear #
face $18 -1 $-1 $19 $20 $7 $-1 $21 forward single #
shell $-1 -1 $-1 $-1 $-1 $22 $-1 $9 #
model_id-kcp-attrib $-1 -1 $-1 $11 $6 1 1021518894 1021518894 736034819 1 #
shell $-1 -1 $-1 $-1 $-1 $23 $-1 $12 #
model_id-kcp-attrib $-1 -1 $-1 $-1 $14 1 1021518894 1021518894 728825857 2 #
face $24 -1 $-1 $25 $26 $7 $-1 $27 forward single #
loop $-1 -1 $-1 $-1 $28 $14 #
cone-surface $-1 -1 $-1 0 21 0 0 -1 0 -0.15000000000000002 0 0 1 I I -0.14834045293024464 0.98893635286829751 0.15000000000000002 forward I I I I #
face $-1 -1 $-1 $29 $30 $15 $-1 $31 forward single #
face $-1 -1 $-1 $32 $33 $17 $-1 $34 reversed single #
model_id-kcp-attrib $-1 -1 $-1 $-1 $19 1 1021518894 1021518894 728825857 3 #
face $35 -1 $-1 $36 $37 $7 $-1 $38 reversed single #
loop $-1 -1 $-1 $-1 $39 $19 #
cone-surface $-1 -1 $-1 0 36.824999999999996 0 0 -1 0 -1.5 0 0 1 I I 0 1 1.5 forward I I I I #
coedge $-1 -1 $-1 $40 $41 $42 $43 forward $20 $-1 #
face $-1 -1 $-1 $44 $45 $15 $-1 $46 reversed single #
loop $-1 -1 $-1 $-1 $47 $22 #
plane-surface $-1 -1 $-1 0 0 1.5 0 0 1 1 0 0 forward_v I I I I #
face $-1 -1 $-1 $48 $49 $17 $-1 $34 reversed single #
loop $-1 -1 $-1 $-1 $50 $23 #
cone-surface $-1 -1 $-1 2.9554242234175489e-033 18.25 0 0 1 0 -1.5 0 -2.4122143085086867e-016 1 I I 0 1 1.5 forward I I I I #
model_id-kcp-attrib $-1 -1 $-1 $-1 $25 1 1021518894 1021518894 728825857 4 #
face $51 -1 $-1 $52 $53 $7 $-1 $27 forward single #
loop $-1 -1 $-1 $-1 $54 $25 #
plane-surface $-1 -1 $-1 0 35 0 0 -1 0 -1 0 0 forward_v I I I I #
coedge $-1 -1 $-1 $55 $56 $54 $57 forward $26 $-1 #
coedge $-1 -1 $-1 $58 $28 $59 $60 reversed $20 $-1 #
coedge $-1 -1 $-1 $28 $58 $61 $62 forward $20 $-1 #
coedge $-1 -1 $-1 $56 $55 $28 $43 reversed $26 $-1 #
edge $-1 -1 $-1 $63 -3.1415926535897931 $64 2.4492127076447545e-016 $28 $65 forward @7 unknown #
face $-1 -1 $-1 $66 $67 $15 $-1 $68 reversed single #
loop $-1 -1 $-1 $-1 $69 $29 #
plane-surface $-1 -1 $-1 0 0 -1.5 0 0 1 1 0 0 forward_v I I I I #
coedge $-1 -1 $-1 $70 $71 $72 $73 forward $30 $-1 #
face $-1 -1 $-1 $74 $75 $17 $-1 $34 reversed single #
loop $-1 -1 $-1 $-1 $76 $32 #
coedge $-1 -1 $-1 $77 $78 $79 $80 reversed $33 $-1 #
model_id-kcp-attrib $-1 -1 $-1 $-1 $36 1 1021518894 1021518894 728825857 5 #
face $81 -1 $-1 $82 $83 $7 $-1 $21 forward single #
loop $-1 -1 $-1 $-1 $84 $36 #
coedge $-1 -1 $-1 $85 $85 $39 $57 reversed $37 $-1 #
coedge $-1 -1 $-1 $42 $39 $86 $87 reversed $26 $-1 #
coedge $-1 -1 $-1 $39 $42 $88 $89 forward $26 $-1 #
edge $90 -1 $-1 $91 -3.1415926535897931 $92 0 $39 $93 reversed @7 unknown #
coedge $-1 -1 $-1 $41 $40 $94 $95 reversed $20 $-1 #
coedge $-1 -1 $-1 $96 $97 $40 $60 forward $83 $-1 #
edge $-1 -1 $-1 $98 -3.2938197265296375e-017 $64 5.0559371040391703 $40 $99 forward @7 unknown #
coedge $-1 -1 $-1 $97 $96 $41 $62 reversed $83 $-1 #
edge $-1 -1 $-1 $100 -3.2938197265296368e-017 $63 5.0559371040391703 $41 $101 forward @7 unknown #
vertex $-1 -1 $-1 $62 $102 #
vertex $-1 -1 $-1 $60 $103 #
ellipse-curve $-1 -1 $-1 0 30 0 0 -1 0 -1.5 0 0 1 I I #
face $-1 -1 $-1 $104 $105 $15 $-1 $106 reversed single #
loop $-1 -1 $-1 $-1 $107 $44 #
plane-surface $-1 -1 $-1 0 -18.25 0 0 1 0 0 0 1 forward_v I I I I #
coedge $-1 -1 $-1 $108 $109 $110 $111 forward $45 $-1 #
coedge $-1 -1 $-1 $112 $47 $113 $114 forward $30 $-1 #
coedge $-1 -1 $-1 $47 $112 $115 $116 forward $30 $-1 #
coedge $-1 -1 $-1 $117 $118 $47 $73 reversed $119 $-1 #
edge $-1 -1 $-1 $120 -18.25 $121 18.25 $72 $122 forward @7 unknown #
face $-1 -1 $-1 $123 $124 $17 $-1 $34 reversed single #
loop $-1 -1 $-1 $-1 $125 $48 #
coedge $-1 -1 $-1 $126 $127 $128 $129 reversed $49 $-1 #
coedge $-1 -1 $-1 $130 $50 $131 $132 forward $33 $-1 #
coedge $-1 -1 $-1 $50 $130 $133 $134 reversed $33 $-1 #
coedge $-1 -1 $-1 $135 $136 $50 $80 forward $137 $-1 #
edge $-1 -1 $-1 $138 1.6081428723391245e-016 $139 1.5707963267948968 $79 $140 forward @7 unknown #
model_id-kcp-attrib $-1 -1 $-1 $-1 $52 1 1021518894 1021518894 728825857 6 #
face $141 -1 $-1 $142 $143 $7 $-1 $144 forward single #
loop $-1 -1 $-1 $-1 $97 $52 #
coedge $-1 -1 $-1 $86 $88 $96 $145 forward $53 $-1 #
coedge $-1 -1 $-1 $54 $54 $146 $147 forward $37 $-1 #
coedge $-1 -1 $-1 $146 $84 $55 $87 forward $53 $-1 #
edge $-1 -1 $-1 $64 7.1054273576010019e-015 $92 5.0000000000000071 $55 $148 forward @7 unknown #
coedge $-1 -1 $-1 $84 $146 $56 $89 reversed $53 $-1 #
edge $-1 -1 $-1 $63 7.1054273576010019e-015 $91 5 $56 $149 forward @7 unknown #
attrib_edge_convexity-kcp-attrib $-1 -1 $150 $-1 $57 1 #
vertex $-1 -1 $-1 $89 $151 #
vertex $-1 -1 $-1 $87 $152 #
ellipse-curve $-1 -1 $-1 0 35 0 0 1 0 -1.5 0 0 1 I I #
coedge $-1 -1 $-1 $153 $154 $58 $95 forward $155 $-1 #
edge $-1 -1 $-1 $100 -3.1415926535897931 $98 0 $58 $156 forward @7 unknown #
coedge $-1 -1 $-1 $61 $59 $84 $145 reversed $83 $-1 #
coedge $-1 -1 $-1 $59 $61 $157 $158 forward $83 $-1 #
vertex $-1 -1 $-1 $95 $159 #
straight-curve $-1 -1 $-1 -0.75000000000000011 25 -1.8369095307335659e-016 -0.14834045293024462 0.98893635286829751 -3.6331732237453371e-017 I I #
vertex $-1 -1 $-1 $62 $160 #
straight-curve $-1 -1 $-1 0.75000000000000011 25 9.1845476536678294e-017 0.14834045293024462 0.98893635286829751 1.8165866118726686e-017 I I #
point $-1 -1 $-1 1.5 30 1.8369095307335659e-016 #
point $-1 -1 $-1 -1.5 30 -3.6738190614671318e-016 #
face $161 -1 $-1 $162 $163 $15 $-1 $164 reversed single #
loop $-1 -1 $-1 $-1 $165 $66 #
plane-surface $-1 -1 $-1 -1.5 0 0 1 0 0 0 0 -1 forward_v I I I I #
coedge $-1 -1 $-1 $166 $115 $167 $168 forward $67 $-1 #
coedge $-1 -1 $-1 $169 $69 $166 $170 forward $45 $-1 #
coedge $-1 -1 $-1 $69 $169 $171 $172 forward $45 $-1 #
coedge $-1 -1 $-1 $118 $117 $69 $111 reversed $119 $-1 #
edge $-1 -1 $-1 $173 -18.25 $174 18.25 $110 $175 forward @7 unknown #
coedge $-1 -1 $-1 $71 $70 $176 $177 forward $30 $-1 #
coedge $-1 -1 $-1 $178 $179 $70 $114 reversed $163 $-1 #
edge $-1 -1 $-1 $121 -1.5 $180 1.5 $113 $181 forward @7 unknown #
coedge $-1 -1 $-1 $107 $182 $71 $116 reversed $67 $-1 #
edge $-1 -1 $-1 $183 -1.5 $120 1.5 $115 $184 forward @7 unknown #
coedge $-1 -1 $-1 $110 $72 $182 $185 forward $119 $-1 #
coedge $-1 -1 $-1 $72 $110 $178 $186 reversed $119 $-1 #
loop $-1 -1 $-1 $-1 $117 $162 #
vertex $-1 -1 $-1 $73 $187 #
vertex $-1 -1 $-1 $73 $188 #
straight-curve $-1 -1 $-1 1.5 0 1.5 0 1 0 I I #
face $-1 -1 $-1 $189 $190 $17 $-1 $191 forward single #
loop $-1 -1 $-1 $-1 $192 $74 #
coedge $-1 -1 $-1 $193 $194 $192 $195 forward $75 $-1 #
coedge $-1 -1 $-1 $196 $76 $197 $198 reversed $49 $-1 #
coedge $-1 -1 $-1 $76 $196 $78 $134 forward $49 $-1 #
coedge $-1 -1 $-1 $199 $200 $76 $129 forward $201 $-1 #
edge $-1 -1 $-1 $202 -3.1415926535897931 $203 -1.5707963267948968 $128 $204 forward @7 unknown #
coedge $-1 -1 $-1 $78 $77 $205 $206 reversed $33 $-1 #
coedge $-1 -1 $-1 $194 $193 $207 $132 reversed $75 $-1 #
edge $-1 -1 $-1 $138 -36.5 $208 0 $207 $209 forward @7 unknown #
coedge $-1 -1 $-1 $210 $211 $212 $134 forward $213 $-1 #
edge $-1 -1 $-1 $139 -36.5 $203 0 $133 $214 forward @7 unknown #
coedge $-1 -1 $-1 $136 $79 $211 $215 reversed $137 $-1 #
coedge $-1 -1 $-1 $79 $135 $216 $217 forward $137 $-1 #
loop $-1 -1 $-1 $-1 $79 $218 #
vertex $-1 -1 $-1 $219 $220 #
vertex $-1 -1 $-1 $221 $222 #
ellipse-curve $-1 -1 $-1 2.9554242234175489e-033 -18.25 0 0 1 0 -1.5 0 -2.4122143085086867e-016 1 I I #
model_id-kcp-attrib $-1 -1 $-1 $-1 $82 1 1021518894 1021518894 728825857 7 #
face $223 -1 $-1 $224 $225 $7 $-1 $226 forward single #
loop $-1 -1 $-1 $-1 $227 $82 #
cone-surface $-1 -1 $-1 0 36.824999999999996 0 0 -1 0 -0.75 0 0 1 I I 0 1 0.75 forward I I I I #
edge $-1 -1 $-1 $63 -3.1415926535897931 $64 -2.4492127076447545e-016 $96 $228 reversed @7 unknown #
coedge $-1 -1 $-1 $88 $86 $85 $147 reversed $53 $-1 #
edge $229 -1 $-1 $91 -3.1415926535897931 $92 0 $85 $230 reversed @7 unknown #
straight-curve $-1 -1 $-1 -1.5 29.999999999999993 -3.6738190614671318e-016 0 1 0 I I #
straight-curve $-1 -1 $-1 1.5 29.999999999999993 1.8369095307335659e-016 0 1 0 I I #
convexity-sys-attrib $-1 -1 $-1 $90 $57 #
point $-1 -1 $-1 1.5 34.999999999999993 1.8369095307335659e-016 #
point $-1 -1 $-1 -1.5 35 0 #
coedge $-1 -1 $-1 $231 $94 $232 $233 reversed $155 $-1 #
coedge $-1 -1 $-1 $94 $231 $234 $235 forward $155 $-1 #
loop $-1 -1 $-1 $-1 $94 $236 #
ellipse-curve $-1 -1 $-1 0 25 0 0 -1 0 -0.75 0 0 1 I I #
coedge $-1 -1 $-1 $234 $232 $97 $158 reversed $143 $-1 #
edge $-1 -1 $-1 $100 -3.1415926535897931 $98 0 $97 $237 reversed @7 unknown #
point $-1 -1 $-1 -0.74999999999999989 25 0 #
point $-1 -1 $-1 0.74999999999999989 25 9.184547653667827e-017 #
model_id-kcp-attrib $-1 -1 $-1 $-1 $104 1 1021518894 1021518894 728825858 2 #
face $-1 -1 $-1 $-1 $119 $15 $-1 $238 reversed single #
loop $-1 -1 $-1 $-1 $178 $104 #
plane-surface $-1 -1 $-1 0 18.25 0 0 -1 0 0 0 -1 forward_v I I I I #
coedge $-1 -1 $-1 $239 $176 $179 $240 forward $105 $-1 #
coedge $-1 -1 $-1 $182 $107 $108 $170 reversed $67 $-1 #
coedge $-1 -1 $-1 $176 $239 $107 $168 reversed $105 $-1 #
edge $-1 -1 $-1 $183 -1.5 $241 1.5 $167 $242 forward @7 unknown #
coedge $-1 -1 $-1 $109 $108 $239 $243 forward $45 $-1 #
edge $-1 -1 $-1 $174 -1.5 $241 1.5 $166 $244 forward @7 unknown #
coedge $-1 -1 $-1 $179 $178 $109 $172 reversed $163 $-1 #
edge $-1 -1 $-1 $245 -1.5 $173 1.5 $171 $246 forward @7 unknown #
vertex $-1 -1 $-1 $111 $247 #
vertex $-1 -1 $-1 $185 $248 #
straight-curve $-1 -1 $-1 1.5 0 -1.5 0 -1 0 I I #
coedge $-1 -1 $-1 $165 $167 $112 $177 reversed $105 $-1 #
edge $-1 -1 $-1 $180 -18.25 $183 18.25 $176 $249 forward @7 unknown #
coedge $-1 -1 $-1 $171 $113 $118 $186 forward $163 $-1 #
coedge $-1 -1 $-1 $113 $171 $165 $240 reversed $163 $-1 #
vertex $-1 -1 $-1 $114 $250 #
straight-curve $-1 -1 $-1 0 18.25 1.5 -1 0 0 I I #
coedge $-1 -1 $-1 $115 $166 $117 $185 reversed $67 $-1 #
vertex $-1 -1 $-1 $177 $251 #
straight-curve $-1 -1 $-1 0 -18.25 1.5 1 0 0 I I #
edge $-1 -1 $-1 $120 -1.5 $174 1.5 $117 $252 forward @7 unknown #
edge $-1 -1 $-1 $121 -1.5 $173 1.5 $118 $253 forward @7 unknown #
point $-1 -1 $-1 1.5 -18.25 1.5 #
point $-1 -1 $-1 1.5 18.25 1.5 #
face $-1 -1 $-1 $254 $255 $17 $-1 $256 reversed single #
loop $-1 -1 $-1 $-1 $212 $123 #
plane-surface $-1 -1 $-1 0 0 1.5 0 0 1 1 0 0 forward_v I I I I #
coedge $-1 -1 $-1 $257 $258 $259 $195 reversed $124 $-1 #
coedge $-1 -1 $-1 $131 $125 $260 $261 reversed $75 $-1 #
coedge $-1 -1 $-1 $125 $131 $262 $263 reversed $75 $-1 #
edge $-1 -1 $-1 $264 -36.5 $265 0 $259 $266 forward @7 unknown #
coedge $-1 -1 $-1 $127 $126 $267 $268 reversed $49 $-1 #
coedge $-1 -1 $-1 $269 $270 $271 $198 forward $272 $-1 #
edge $-1 -1 $-1 $273 -36.5 $202 0 $197 $274 forward @7 unknown #
coedge $-1 -1 $-1 $200 $128 $275 $276 reversed $201 $-1 #
coedge $-1 -1 $-1 $128 $199 $269 $277 forward $201 $-1 #
loop $-1 -1 $-1 $-1 $128 $278 #
vertex $-1 -1 $-1 $279 $280 #
vertex $-1 -1 $-1 $281 $282 #
ellipse-curve $-1 -1 $-1 2.9554242234175489e-033 18.25 0 0 -1 0 -1.5 0 -2.4122143085086867e-016 1 I I #
coedge $-1 -1 $-1 $283 $284 $130 $206 forward $285 $-1 #
edge $-1 -1 $-1 $203 -1.5707963267948968 $208 -1.6081428723391245e-016 $205 $204 forward @7 unknown #
coedge $-1 -1 $-1 $286 $287 $288 $132 forward $255 $-1 #
vertex $-1 -1 $-1 $289 $290 #
straight-curve $-1 -1 $-1 -1.5 18.25 0 0 1 0 I I #
coedge $-1 -1 $-1 $291 $133 $284 $281 forward $213 $-1 #
coedge $-1 -1 $-1 $133 $291 $135 $215 forward $213 $-1 #
coedge $-1 -1 $-1 $292 $275 $127 $134 reversed $190 $-1 #
loop $-1 -1 $-1 $-1 $133 $293 #
straight-curve $-1 -1 $-1 2.9554242234175489e-033 18.25 1.5 0 1 0 I I #
edge $-1 -1 $-1 $294 -1.5 $139 2.9554242234175489e-033 $135 $295 forward @7 unknown #
coedge $-1 -1 $-1 $296 $288 $136 $217 reversed $297 $-1 #
edge $-1 -1 $-1 $294 -1.5 $138 0 $216 $298 forward @7 unknown #
face $-1 -1 $-1 $299 $137 $17 $-1 $300 reversed single #
edge $-1 -1 $-1 $138 0 $301 1.5 $287 $298 forward @7 unknown #
point $-1 -1 $-1 -1.5 -18.25 0 #
edge $-1 -1 $-1 $139 2.9554242234175489e-033 $302 1.5 $303 $295 forward @7 unknown #
point $-1 -1 $-1 2.9554242234175489e-033 -18.25 1.5 #
model_id-kcp-attrib $-1 -1 $-1 $-1 $142 1 1021518894 1021518894 728825857 8 #
face $304 -1 $-1 $236 $305 $7 $-1 $226 forward single #
loop $-1 -1 $-1 $-1 $306 $142 #
sphere-surface $-1 -1 $-1 0 0 0 1.5 1 0 0 0 0 1 forward_v I I I I #
coedge $-1 -1 $-1 $232 $234 $307 $308 forward $143 $-1 #
ellipse-curve $-1 -1 $-1 0 30 0 0 -1 0 -1.5 0 0 1 I I #
attrib_edge_convexity-kcp-attrib $-1 -1 $309 $-1 $147 1 #
ellipse-curve $-1 -1 $-1 0 35 0 0 -1 0 -1.5 0 0 1 I I #
coedge $-1 -1 $-1 $154 $153 $310 $311 reversed $155 $-1 #
coedge $-1 -1 $-1 $157 $227 $153 $233 forward $143 $-1 #
edge $-1 -1 $-1 $312 7.1054273576010019e-015 $98 23.700961894323349 $153 $313 forward @7 unknown #
coedge $-1 -1 $-1 $227 $157 $154 $235 reversed $143 $-1 #
edge $-1 -1 $-1 $314 7.1054273576010019e-015 $100 23.700961894323349 $154 $315 forward @7 unknown #
face $316 -1 $-1 $-1 $155 $7 $-1 $144 forward single #
ellipse-curve $-1 -1 $-1 0 25 0 0 -1 0 -0.75 0 0 1 I I #
plane-surface $-1 -1 $-1 1.5 0 0 -1 0 0 0 0 1 forward_v I I I I #
coedge $-1 -1 $-1 $167 $165 $169 $243 reversed $105 $-1 #
edge $-1 -1 $-1 $180 -1.5 $245 1.5 $179 $317 forward @7 unknown #
vertex $-1 -1 $-1 $243 $318 #
straight-curve $-1 -1 $-1 -1.5 -18.25 0 0 0 -1 I I #
edge $-1 -1 $-1 $241 -18.25 $245 18.25 $239 $319 forward @7 unknown #
straight-curve $-1 -1 $-1 0 -18.25 -1.5 -1 0 0 I I #
vertex $-1 -1 $-1 $172 $320 #
straight-curve $-1 -1 $-1 0 18.25 -1.5 1 0 0 I I #
point $-1 -1 $-1 1.5 18.25 -1.5 #
point $-1 -1 $-1 1.5 -18.25 -1.5 #
straight-curve $-1 -1 $-1 -1.5 0 1.5 0 -1 0 I I #
point $-1 -1 $-1 -1.5 18.25 1.5 #
point $-1 -1 $-1 -1.5 -18.25 1.5 #
straight-curve $-1 -1 $-1 1.5 -18.25 0 0 0 -1 I I #
straight-curve $-1 -1 $-1 1.5 18.25 0 0 0 -1 I I #
face $-1 -1 $-1 $321 $322 $17 $-1 $323 reversed single #
loop $-1 -1 $-1 $-1 $207 $189 #
plane-surface $-1 -1 $-1 -1.5 0 0 1 0 0 0 0 -1 forward_v I I I I #
coedge $-1 -1 $-1 $324 $192 $325 $326 reversed $124 $-1 #
coedge $-1 -1 $-1 $192 $324 $327 $328 reversed $124 $-1 #
coedge $-1 -1 $-1 $329 $330 $331 $195 forward $332 $-1 #
coedge $-1 -1 $-1 $333 $334 $193 $261 forward $335 $-1 #
edge $-1 -1 $-1 $208 -1.6081428723391245e-016 $265 1.5707963267948966 $260 $204 forward @7 unknown #
coedge $-1 -1 $-1 $336 $337 $194 $263 forward $338 $-1 #
edge $-1 -1 $-1 $264 -1.5707963267948966 $138 1.6081428723391245e-016 $262 $140 forward @7 unknown #
vertex $-1 -1 $-1 $339 $340 #
vertex $-1 -1 $-1 $341 $342 #
straight-curve $-1 -1 $-1 2.9554242234175489e-033 18.25 -1.5 0 1 0 I I #
coedge $-1 -1 $-1 $343 $303 $196 $268 forward $344 $-1 #
edge $-1 -1 $-1 $139 1.5707963267948968 $273 3.1415926535897931 $267 $140 forward @7 unknown #
coedge $-1 -1 $-1 $345 $197 $200 $277 reversed $272 $-1 #
coedge $-1 -1 $-1 $197 $345 $343 $346 forward $272 $-1 #
coedge $-1 -1 $-1 $347 $348 $324 $198 reversed $322 $-1 #
loop $-1 -1 $-1 $-1 $197 $349 #
vertex $-1 -1 $-1 $350 $351 #
straight-curve $-1 -1 $-1 1.5 18.25 0 0 1 0 I I #
coedge $-1 -1 $-1 $212 $352 $199 $276 forward $190 $-1 #
edge $-1 -1 $-1 $353 -1.5 $203 -2.9554242234175489e-033 $199 $354 forward @7 unknown #
edge $-1 -1 $-1 $353 -1.5 $202 0 $269 $355 forward @7 unknown #
face $-1 -1 $-1 $356 $201 $17 $-1 $357 reversed single #
edge $-1 -1 $-1 $202 0 $358 1.5 $348 $355 forward @7 unknown #
point $-1 -1 $-1 1.5 18.25 0 #
edge $-1 -1 $-1 $203 -2.9554242234175489e-033 $359 1.5 $284 $354 forward @7 unknown #
point $-1 -1 $-1 2.9554242234175489e-033 18.25 1.5 #
coedge $-1 -1 $-1 $284 $205 $360 $361 reversed $285 $-1 #
coedge $-1 -1 $-1 $205 $283 $210 $281 reversed $285 $-1 #
loop $-1 -1 $-1 $-1 $205 $356 #
coedge $-1 -1 $-1 $362 $207 $334 $289 forward $255 $-1 #
coedge $-1 -1 $-1 $207 $362 $336 $219 reversed $255 $-1 #
coedge $-1 -1 $-1 $216 $360 $77 $132 reversed $297 $-1 #
edge $-1 -1 $-1 $208 0 $363 1.5 $334 $364 forward @7 unknown #
point $-1 -1 $-1 -1.5 18.25 0 #
coedge $-1 -1 $-1 $211 $210 $296 $365 forward $213 $-1 #
coedge $-1 -1 $-1 $352 $212 $303 $221 forward $190 $-1 #
face $-1 -1 $-1 $366 $213 $17 $-1 $191 forward single #
vertex $-1 -1 $-1 $365 $367 #
straight-curve $-1 -1 $-1 0 -18.25 1.5 1 0 0 I I #
coedge $-1 -1 $-1 $360 $216 $291 $365 reversed $297 $-1 #
loop $-1 -1 $-1 $-1 $288 $368 #
straight-curve $-1 -1 $-1 -1.5 -18.25 0 0 0 -1 I I #
face $-1 -1 $-1 $369 $344 $17 $-1 $300 reversed single #
plane-surface $-1 -1 $-1 0 -18.25 0 0 1 0 0 0 1 forward_v I I I I #
vertex $-1 -1 $-1 $370 $371 #
vertex $-1 -1 $-1 $372 $373 #
coedge $-1 -1 $-1 $267 $343 $292 $221 reversed $344 $-1 #
model_id-kcp-attrib $-1 -1 $-1 $-1 $224 1 1021518894 1021518894 728825857 9 #
loop $-1 -1 $-1 $-1 $310 $224 #
coedge $-1 -1 $-1 $307 $374 $375 $376 forward $225 $-1 #
coedge $-1 -1 $-1 $374 $306 $227 $308 reversed $225 $-1 #
edge $-1 -1 $-1 $314 -3.1415926535897931 $312 -2.4492127076447545e-016 $307 $377 forward @7 unknown #
convexity-sys-attrib $-1 -1 $-1 $229 $147 #
coedge $-1 -1 $-1 $375 $378 $231 $311 forward $305 $-1 #
edge $-1 -1 $-1 $314 -3.1415926535897931 $312 2.4492127076447545e-016 $310 $379 reversed @7 unknown #
vertex $-1 -1 $-1 $376 $380 #
straight-curve $-1 -1 $-1 -0.75 1.2990381056766509 -1.8369095307335659e-016 0 1 0 I I #
vertex $-1 -1 $-1 $381 $382 #
straight-curve $-1 -1 $-1 0.75 1.2990381056766509 9.1845476536678294e-017 0 1 0 I I #
model_id-kcp-attrib $-1 -1 $-1 $-1 $236 1 1021518894 1021518894 728825857 10 #
straight-curve $-1 -1 $-1 -1.5 18.25 0 0 0 -1 I I #
point $-1 -1 $-1 -1.5 -18.25 -1.5 #
straight-curve $-1 -1 $-1 -1.5 0 -1.5 0 1 0 I I #
point $-1 -1 $-1 -1.5 18.25 -1.5 #
face $-1 -1 $-1 $278 $383 $17 $-1 $357 reversed single #
loop $-1 -1 $-1 $-1 $271 $254 #
plane-surface $-1 -1 $-1 1.5 0 0 -1 0 0 0 0 1 forward_v I I I I #
coedge $-1 -1 $-1 $258 $257 $126 $198 forward $124 $-1 #
coedge $-1 -1 $-1 $384 $385 $257 $326 forward $386 $-1 #
edge $-1 -1 $-1 $273 -3.1415926535897931 $264 -1.5707963267948966 $325 $140 forward @7 unknown #
coedge $-1 -1 $-1 $387 $388 $258 $328 forward $383 $-1 #
edge $-1 -1 $-1 $265 1.5707963267948966 $202 3.1415926535897931 $327 $204 forward @7 unknown #
coedge $-1 -1 $-1 $389 $259 $388 $341 forward $332 $-1 #
coedge $-1 -1 $-1 $259 $389 $384 $390 forward $332 $-1 #
coedge $-1 -1 $-1 $391 $392 $125 $195 reversed $393 $-1 #
loop $-1 -1 $-1 $-1 $259 $366 #
coedge $-1 -1 $-1 $334 $260 $392 $394 reversed $335 $-1 #
coedge $-1 -1 $-1 $260 $333 $286 $289 reversed $335 $-1 #
loop $-1 -1 $-1 $-1 $260 $395 #
coedge $-1 -1 $-1 $337 $262 $287 $219 forward $338 $-1 #
coedge $-1 -1 $-1 $262 $336 $391 $339 reversed $338 $-1 #
loop $-1 -1 $-1 $-1 $262 $396 #
edge $-1 -1 $-1 $264 -2.9554242234175489e-033 $301 1.5 $337 $397 forward @7 unknown #
point $-1 -1 $-1 2.9554242234175489e-033 -18.25 -1.5 #
edge $-1 -1 $-1 $265 2.9554242234175489e-033 $358 1.5 $388 $398 forward @7 unknown #
point $-1 -1 $-1 2.9554242234175489e-033 18.25 -1.5 #
coedge $-1 -1 $-1 $303 $267 $270 $346 reversed $344 $-1 #
loop $-1 -1 $-1 $-1 $267 $299 #
coedge $-1 -1 $-1 $270 $269 $352 $372 reversed $272 $-1 #
edge $-1 -1 $-1 $302 -1.5 $273 0 $270 $399 forward @7 unknown #
coedge $-1 -1 $-1 $400 $271 $385 $350 forward $322 $-1 #
coedge $-1 -1 $-1 $271 $400 $387 $279 reversed $322 $-1 #
face $-1 -1 $-1 $-1 $272 $17 $-1 $323 reversed single #
edge $-1 -1 $-1 $273 0 $401 1.5 $347 $399 forward @7 unknown #
point $-1 -1 $-1 1.5 -18.25 0 #
coedge $-1 -1 $-1 $275 $292 $345 $372 forward $190 $-1 #
vertex $-1 -1 $-1 $372 $402 #
straight-curve $-1 -1 $-1 0 18.25 1.5 -1 0 0 I I #
straight-curve $-1 -1 $-1 1.5 18.25 0 0 0 -1 I I #
face $-1 -1 $-1 $395 $285 $17 $-1 $357 reversed single #
plane-surface $-1 -1 $-1 0 18.25 0 0 -1 0 0 0 -1 forward_v I I I I #
vertex $-1 -1 $-1 $403 $404 #
vertex $-1 -1 $-1 $281 $405 #
coedge $-1 -1 $-1 $288 $296 $283 $361 forward $297 $-1 #
edge $-1 -1 $-1 $359 -1.5 $208 0 $283 $364 forward @7 unknown #
coedge $-1 -1 $-1 $287 $286 $406 $370 reversed $255 $-1 #
vertex $-1 -1 $-1 $394 $407 #
straight-curve $-1 -1 $-1 -1.5 18.25 0 0 0 -1 I I #
edge $-1 -1 $-1 $359 -18.25 $294 18.25 $296 $408 forward @7 unknown #
face $-1 -1 $-1 $368 $332 $17 $-1 $409 reversed single #
point $-1 -1 $-1 -1.5 -18.25 1.5 #
face $-1 -1 $-1 $349 $297 $17 $-1 $256 reversed single #
face $-1 -1 $-1 $410 $386 $17 $-1 $300 reversed single #
edge $-1 -1 $-1 $301 -18.25 $363 18.25 $362 $411 forward @7 unknown #
point $-1 -1 $-1 -1.5 -18.25 -1.5 #
edge $-1 -1 $-1 $302 -18.25 $353 18.25 $345 $412 forward @7 unknown #
point $-1 -1 $-1 1.5 -18.25 1.5 #
coedge $-1 -1 $-1 $306 $307 $378 $381 reversed $225 $-1 #
coedge $-1 -1 $-1 $378 $310 $306 $376 reversed $305 $-1 #
edge $-1 -1 $-1 $413 -1.2246063538223773e-016 $312 2.6179938779914944 $375 $414 forward @7 unknown #
ellipse-curve $-1 -1 $-1 0 1.299038105676658 0 0 1 0 -0.75 0 0 1 I I #
coedge $-1 -1 $-1 $310 $375 $374 $381 forward $305 $-1 #
ellipse-curve $-1 -1 $-1 0 1.299038105676658 0 0 1 0 -0.75 0 0 1 I I #
point $-1 -1 $-1 -0.75 1.299038105676658 -1.8369095307335659e-016 #
edge $-1 -1 $-1 $413 9.1824702426062106e-049 $314 2.6179938779914944 $378 $415 forward @7 unknown #
point $-1 -1 $-1 0.74999999999999989 1.299038105676658 9.1845476536678282e-017 #
loop $-1 -1 $-1 $-1 $327 $321 #
coedge $-1 -1 $-1 $385 $325 $330 $390 reversed $386 $-1 #
coedge $-1 -1 $-1 $325 $384 $347 $350 reversed $386 $-1 #
loop $-1 -1 $-1 $-1 $325 $369 #
coedge $-1 -1 $-1 $388 $327 $348 $279 forward $383 $-1 #
coedge $-1 -1 $-1 $327 $387 $329 $341 reversed $383 $-1 #
coedge $-1 -1 $-1 $330 $329 $400 $403 forward $332 $-1 #
edge $-1 -1 $-1 $401 -1.5 $264 -2.9554242234175489e-033 $384 $397 forward @7 unknown #
coedge $-1 -1 $-1 $406 $331 $337 $339 forward $393 $-1 #
coedge $-1 -1 $-1 $331 $406 $333 $394 forward $393 $-1 #
loop $-1 -1 $-1 $-1 $331 $410 #
edge $-1 -1 $-1 $363 -1.5 $265 2.9554242234175489e-033 $333 $398 forward @7 unknown #
face $-1 -1 $-1 $396 $335 $17 $-1 $357 reversed single #
face $-1 -1 $-1 $218 $338 $17 $-1 $300 reversed single #
straight-curve $-1 -1 $-1 0 -18.25 -1.5 -1 0 0 I I #
straight-curve $-1 -1 $-1 0 18.25 -1.5 1 0 0 I I #
straight-curve $-1 -1 $-1 1.5 -18.25 0 0 0 -1 I I #
coedge $-1 -1 $-1 $348 $347 $389 $403 reversed $322 $-1 #
vertex $-1 -1 $-1 $350 $416 #
point $-1 -1 $-1 1.5 18.25 1.5 #
edge $-1 -1 $-1 $358 -18.25 $401 18.25 $400 $417 forward @7 unknown #
point $-1 -1 $-1 1.5 18.25 -1.5 #
point $-1 -1 $-1 -1.5 18.25 1.5 #
coedge $-1 -1 $-1 $392 $391 $362 $370 forward $393 $-1 #
point $-1 -1 $-1 -1.5 18.25 -1.5 #
straight-curve $-1 -1 $-1 -1.5 0 1.5 0 -1 0 I I #
plane-surface $-1 -1 $-1 0 0 -1.5 0 0 1 1 0 0 forward_v I I I I #
face $-1 -1 $-1 $293 $393 $17 $-1 $409 reversed single #
straight-curve $-1 -1 $-1 -1.5 0 -1.5 0 1 0 I I #
straight-curve $-1 -1 $-1 1.5 0 1.5 0 1 0 I I #
vertex $-1 -1 $-1 $381 $418 #
ellipse-curve $-1 -1 $-1 0 0 0 2.4492127076447545e-016 0 -1 -9.1845476536678294e-017 -1.5 -2.2494910827332062e-032 1 I I #
ellipse-curve $-1 -1 $-1 0 0 0 -1.2246063538223773e-016 0 1 9.1845476536678294e-017 -1.5 1.1247455413666031e-032 1 I I #
point $-1 -1 $-1 1.5 -18.25 -1.5 #
straight-curve $-1 -1 $-1 1.5 0 -1.5 0 -1 0 I I #
point $-1 -1 $-1 9.1845476536678294e-017 -1.5 1.1247455413666031e-032 #
End-of-ACIS-data 