600 0 1 0           
83 GICL ACIS Healer - Source: /gicl/data5/repository/PTC/V18/cmm18/tp25w.prt.sat - 6 0 18 ACIS 6.0.3 Solaris 24 Sat Apr 13 22:22:46 2002 
1 9.999999999999999547e-07 1.000000000000000036e-10 
body $-1 $1 $-1 $-1 #
lump $-1 $-1 $2 $0 #
shell $-1 $-1 $-1 $3 $-1 $1 #
face $-1 $4 $5 $2 $-1 $6 forward single #
face $-1 $7 $8 $2 $-1 $9 forward single #
loop $-1 $-1 $10 $3 #
plane-surface $-1 0 0 0 0 -1 0 -1 0 0 forward_v I I I I #
face $-1 $11 $12 $2 $-1 $13 forward single #
loop $-1 $-1 $14 $4 #
cone-surface $-1 0 29.39999999999999858 0 0 -1 0 -2.199999999999999734 0 0 1 I I 0 1 2.199999999999999734 forward I I I I #
coedge $-1 $15 $15 $14 $16 reversed $5 $-1 #
face $-1 $17 $18 $2 $-1 $19 forward single #
loop $-1 $-1 $20 $7 #
cone-surface $-1 0 29.39999999999999858 0 0 -1 0 -2.199999999999999734 0 0 1 I I 0 1 2.199999999999999734 forward I I I I #
coedge $-1 $21 $22 $10 $16 forward $8 $-1 #
coedge $-1 $10 $10 $23 $24 forward $5 $-1 #
edge $-1 $25 0 $26 3.141592653589793116 $10 $27 forward 7 unknown #
face $-1 $28 $29 $2 $-1 $30 forward single #
loop $-1 $31 $32 $11 #
plane-surface $-1 0 3 0 0 -1 0 -1 0 0 forward_v I I I I #
coedge $-1 $33 $34 $35 $36 forward $12 $-1 #
coedge $-1 $37 $14 $33 $38 forward $8 $-1 #
coedge $-1 $14 $37 $34 $39 reversed $8 $-1 #
coedge $-1 $34 $33 $15 $24 reversed $12 $-1 #
edge $-1 $25 0 $26 3.141592653589793116 $15 $40 forward 7 unknown #
vertex $-1 $24 $41 #
vertex $-1 $24 $42 #
ellipse-curve $-1 5.551115123125782702e-17 0 -1.11022302462515654e-16 0 1 0 2.199999999999999734 0 3.804357003034386114e-16 1 I I #
face $-1 $43 $44 $2 $-1 $45 forward single #
loop $-1 $-1 $46 $17 #
cone-surface $-1 0 -11.33333333333333215 0 0 -1 0 -0.3749999999999999445 0 0 1 I I -0.3511234415883916493 0.9363291775690445462 0.3749999999999999445 forward I I I I #
loop $-1 $-1 $35 $11 #
coedge $-1 $47 $47 $46 $48 reversed $18 $-1 #
coedge $-1 $23 $20 $21 $38 reversed $12 $-1 #
coedge $-1 $20 $23 $22 $39 forward $12 $-1 #
coedge $-1 $49 $49 $20 $36 reversed $31 $-1 #
edge $-1 $50 1.224606353822377258e-16 $51 3.14159265358979356 $20 $52 forward 7 unknown #
coedge $-1 $22 $21 $49 $53 reversed $8 $-1 #
edge $-1 $26 0 $51 3 $33 $54 forward 7 unknown #
edge $-1 $25 0 $50 3 $34 $55 forward 7 unknown #
ellipse-curve $-1 -5.551115123125782702e-17 0 -1.11022302462515654e-16 0 -1 0 2.199999999999999734 0 3.804357003034386114e-16 1 I I #
point $-1 2.199999999999999734 0 2.694133978409229574e-16 #
point $-1 -2.199999999999999734 0 0 #
face $-1 $56 $57 $2 $-1 $58 forward single #
loop $-1 $-1 $59 $28 #
cone-surface $-1 0 -11.33333333333333215 0 0 -1 0 -0.3749999999999999445 0 0 1 I I -0.3511234415883916493 0.9363291775690445462 0.3749999999999999445 forward I I I I #
coedge $-1 $60 $61 $32 $48 forward $29 $-1 #
coedge $-1 $32 $32 $62 $63 forward $18 $-1 #
edge $-1 $64 0 $65 3.14159265358979356 $32 $66 forward 7 unknown #
coedge $-1 $35 $35 $37 $53 forward $31 $-1 #
vertex $-1 $39 $67 #
vertex $-1 $38 $68 #
ellipse-curve $-1 5.551115123125782702e-17 3 4.440892098500626162e-16 0 -1 0 2.199999999999999734 0 -4.440892098500626162e-16 1 I I #
edge $-1 $50 -1.224606353822377258e-16 $51 3.14159265358979356 $49 $69 forward 7 unknown #
straight-curve $-1 -2.199999999999999734 0 -5.388267956818459147e-16 0 1 0 I I #
straight-curve $-1 2.199999999999999734 0 2.694133978409229574e-16 0 1 0 I I #
face $-1 $70 $71 $2 $-1 $72 reversed single #
loop $-1 $-1 $73 $43 #
cone-surface $-1 0 29.39999999999999858 0 0 -1 0 -6.5 0 0 1 I I 0 1 6.5 forward I I I I #
coedge $-1 $74 $75 $76 $77 forward $44 $-1 #
coedge $-1 $78 $46 $74 $79 forward $29 $-1 #
coedge $-1 $46 $78 $75 $80 reversed $29 $-1 #
coedge $-1 $75 $74 $47 $63 reversed $44 $-1 #
edge $-1 $64 0 $65 3.141592653589793116 $47 $81 forward 7 unknown #
vertex $-1 $63 $82 #
vertex $-1 $63 $83 #
ellipse-curve $-1 -2.220446049250313081e-16 3 -8.881784197001252323e-16 -3.089316242435218607e-16 1 -8.555133722339869049e-32 5.749999999999999112 1.776356839400250465e-15 1.592327073147992156e-15 1 I I #
point $-1 2.199999999999999734 3 2.694133978409229574e-16 #
point $-1 -2.199999999999999734 3 0 #
ellipse-curve $-1 5.551115123125782702e-17 3 -4.440892098500626162e-16 0 1 0 2.199999999999999734 0 4.440892098500626162e-16 1 I I #
face $-1 $-1 $84 $2 $-1 $85 forward single #
loop $-1 $-1 $86 $56 #
plane-surface $-1 0 28 0 0 -1 0 -1 0 0 forward_v I I I I #
coedge $-1 $87 $88 $86 $89 forward $57 $-1 #
coedge $-1 $62 $59 $60 $79 reversed $44 $-1 #
coedge $-1 $59 $62 $61 $80 forward $44 $-1 #
coedge $-1 $88 $87 $59 $77 reversed $57 $-1 #
edge $-1 $90 1.867126402889969274e-32 $91 3.141592653589793116 $59 $92 forward 7 unknown #
coedge $-1 $61 $60 $93 $94 reversed $29 $-1 #
edge $-1 $65 -1.211101877880577245e-31 $91 2.136000936329381705 $74 $95 forward 7 unknown #
edge $-1 $64 0 $90 2.136000936329380817 $75 $96 forward 7 unknown #
ellipse-curve $-1 0 3 0 3.089316242435218607e-16 -1 3.783196299452840438e-32 5.749999999999999112 1.776356839400250465e-15 7.041486534478669235e-16 1 I I #
point $-1 5.749999999999999112 3.000000000000001776 7.041486534478669235e-16 #
point $-1 -5.749999999999999112 3.000000000000001776 0 #
loop $-1 $-1 $93 $70 #
cone-surface $-1 0 29.39999999999999858 0 0 -1 0 -6.5 0 0 1 I I 0 1 6.5 forward I I I I #
coedge $-1 $97 $97 $73 $89 reversed $71 $-1 #
coedge $-1 $76 $73 $98 $99 reversed $57 $-1 #
coedge $-1 $73 $76 $100 $101 forward $57 $-1 #
edge $-1 $102 1.224606353822377258e-16 $103 3.141592653589793116 $73 $104 forward 7 unknown #
vertex $-1 $80 $105 #
vertex $-1 $79 $106 #
ellipse-curve $-1 2.220446049250313081e-16 5 0 0 -1 0 6.5 0 7.959941299845452178e-16 1 I I #
coedge $-1 $98 $100 $78 $94 forward $84 $-1 #
edge $-1 $90 -3.734252805779938548e-32 $91 3.141592653589793116 $78 $107 forward 7 unknown #
straight-curve $-1 -5.749999999999999112 3.000000000000001776 -1.408297306895733847e-15 -0.3511234415883915938 0.9363291775690445462 -8.599759950902494639e-17 I I #
straight-curve $-1 5.749999999999999112 3.000000000000001776 7.041486534478669235e-16 0.3511234415883915938 0.9363291775690445462 4.29987997545124732e-17 I I #
coedge $-1 $86 $86 $108 $109 forward $71 $-1 #
coedge $-1 $108 $93 $87 $99 forward $84 $-1 #
edge $-1 $91 0 $103 23 $87 $110 forward 7 unknown #
coedge $-1 $93 $108 $88 $101 reversed $84 $-1 #
edge $-1 $90 0 $102 23 $88 $111 forward 7 unknown #
vertex $-1 $101 $112 #
vertex $-1 $99 $113 #
ellipse-curve $-1 2.220446049250313081e-16 28 -2.220446049250313081e-16 0 -1 0 6.5 0 2.220446049250313081e-16 1 I I #
point $-1 6.499999999999998224 5 7.959941299845451192e-16 #
point $-1 -6.5 5 -1.591988259969090436e-15 #
ellipse-curve $-1 -4.440892098500626162e-16 5 -2.220446049250313081e-16 0 1 0 6.5 0 1.018038734909576526e-15 1 I I #
coedge $-1 $100 $98 $97 $109 reversed $84 $-1 #
edge $-1 $102 -1.224606353822377258e-16 $103 3.141592653589793116 $97 $114 forward 7 unknown #
straight-curve $-1 -6.5 5 -1.591988259969090436e-15 0 1 0 I I #
straight-curve $-1 6.5 5 7.959941299845452178e-16 0 1 0 I I #
point $-1 6.5 28 7.959941299845452178e-16 #
point $-1 -6.5 28 0 #
ellipse-curve $-1 2.220446049250313081e-16 28 2.220446049250313081e-16 0 1 0 6.5 0 -2.220446049250313081e-16 1 I I #
End-of-ACIS-data 