700 0 2 0           
24 FBMach with ACIS - 7.0.3 13 ACIS 7.0.3 NT 24 Wed May 15 20:51:37 2002 
1 9.9999999999999995e-007 1e-010 
body $2 -1 $-1 $3 $-1 $4 #
bdycol-kcp $-1 -1 1 3 $5 $6 $7 #
model_id-kcp-attrib $-1 -1 $-1 $-1 $0 1 1021510297 1021510297 1808072705 1 #
lump $-1 -1 $-1 $-1 $8 $0 #
transform $-1 -1 1 0 0 0 1 0 0 0 1 0 0 0 1 rotate no_reflect no_shear #
body $9 -1 $-1 $10 $-1 $11 #
body $12 -1 $-1 $13 $-1 $14 #
body $15 -1 $-1 $16 $-1 $17 #
shell $-1 -1 $-1 $-1 $-1 $18 $-1 $3 #
rgb_color-st-attrib $-1 -1 $19 $-1 $5 0.5 1 1 #
lump $-1 -1 $-1 $-1 $20 $5 #
transform $-1 -1 1 0 0 0 1 0 0 0 1 0 14 0 1 no_rotate no_reflect no_shear #
rgb_color-st-attrib $-1 -1 $21 $-1 $6 1 0.5 1 #
lump $-1 -1 $-1 $-1 $22 $6 #
transform $-1 -1 1 0 0 0 1 0 0 0 1 0 14 0 1 no_rotate no_reflect no_shear #
model_id-kcp-attrib $-1 -1 $-1 $-1 $7 1 1021510297 1021510297 1808072706 1 #
lump $-1 -1 $-1 $-1 $23 $7 #
transform $-1 -1 1 0 0 0 1 0 0 0 1 0 14 0 1 no_rotate no_reflect no_shear #
face $24 -1 $-1 $25 $26 $8 $-1 $27 forward single #
model_id-kcp-attrib $-1 -1 $-1 $9 $5 1 1021510297 1021510297 1797193731 1 #
shell $-1 -1 $-1 $-1 $-1 $28 $-1 $10 #
model_id-kcp-attrib $-1 -1 $-1 $12 $6 1 1021510297 1021510297 1805058052 1 #
shell $-1 -1 $-1 $-1 $-1 $29 $-1 $13 #
shell $-1 -1 $-1 $-1 $-1 $30 $-1 $16 #
model_id-kcp-attrib $-1 -1 $-1 $-1 $18 1 1021510297 1021510297 1808072705 2 #
face $31 -1 $-1 $32 $33 $8 $-1 $34 forward single #
loop $-1 -1 $-1 $-1 $35 $18 #
plane-surface $-1 -1 $-1 0 0 0 0 -1 0 -1 0 0 forward_v I I I I #
face $-1 -1 $-1 $36 $37 $20 $-1 $38 reversed single #
face $-1 -1 $-1 $39 $40 $22 $-1 $41 forward single #
face $-1 -1 $-1 $42 $43 $23 $-1 $44 forward single #
model_id-kcp-attrib $-1 -1 $-1 $-1 $25 1 1021510297 1021510297 1808072705 3 #
face $45 -1 $-1 $46 $47 $8 $-1 $48 forward single #
loop $-1 -1 $-1 $-1 $49 $25 #
cone-surface $-1 -1 $-1 0 29.399999999999999 0 0 -1 0 -2.1999999999999997 0 0 1 I I 0 1 2.1999999999999997 forward I I I I #
coedge $-1 -1 $-1 $50 $50 $49 $51 reversed $26 $-1 #
face $-1 -1 $-1 $52 $53 $20 $-1 $38 reversed single #
loop $-1 -1 $-1 $-1 $54 $28 #
cone-surface $-1 -1 $-1 1.731254494483119e-048 -14 2.2204460492503128e-016 0 -1 0 6.5 0 5.7394952505951391e-016 1 I I 0 1 6.5 forward I I I I #
face $-1 -1 $-1 $55 $56 $22 $-1 $57 forward single #
loop $-1 -1 $-1 $58 $59 $29 #
cone-surface $-1 -1 $-1 0 -11 0 0 -1 0 -2.1999999999999997 0 0 1 I I 0 -1 2.1999999999999997 forward I I I I #
face $-1 -1 $-1 $60 $61 $23 $-1 $62 reversed single #
loop $-1 -1 $-1 $-1 $63 $30 #
plane-surface $-1 -1 $-1 0 0 6.5 0 0 1 1 0 0 forward_v I I I I #
model_id-kcp-attrib $-1 -1 $-1 $-1 $32 1 1021510297 1021510297 1808072705 4 #
face $64 -1 $-1 $65 $66 $8 $-1 $67 forward single #
loop $-1 -1 $-1 $-1 $68 $32 #
cone-surface $-1 -1 $-1 0 29.399999999999999 0 0 -1 0 -2.1999999999999997 0 0 1 I I 0 1 2.1999999999999997 forward I I I I #
coedge $-1 -1 $-1 $69 $70 $35 $51 forward $33 $-1 #
coedge $-1 -1 $-1 $35 $35 $71 $72 forward $26 $-1 #
edge $73 -1 $-1 $74 0 $75 3.1415926535897931 $35 $76 forward @7 unknown #
face $-1 -1 $-1 $77 $78 $20 $-1 $38 reversed single #
loop $-1 -1 $-1 $-1 $79 $36 #
coedge $-1 -1 $-1 $80 $81 $82 $83 reversed $37 $-1 #
face $-1 -1 $-1 $84 $85 $22 $-1 $86 reversed single #
loop $-1 -1 $-1 $87 $88 $39 #
cone-surface $-1 -1 $-1 1.731254494483119e-048 -11 2.2204460492503128e-016 0 -1 0 6.5 0 5.7394952505951391e-016 1 I I 0 1 6.5 forward I I I I #
loop $-1 -1 $-1 $-1 $89 $29 #
coedge $-1 -1 $-1 $59 $59 $90 $91 forward $40 $-1 #
face $92 -1 $-1 $93 $94 $23 $-1 $95 reversed single #
loop $-1 -1 $-1 $-1 $96 $42 #
plane-surface $-1 -1 $-1 0 0 -6.5 0 0 1 1 0 0 forward_v I I I I #
coedge $-1 -1 $-1 $97 $98 $99 $100 forward $43 $-1 #
model_id-kcp-attrib $-1 -1 $-1 $-1 $46 1 1021510297 1021510297 1808072705 5 #
face $101 -1 $-1 $102 $103 $8 $-1 $104 forward single #
loop $-1 -1 $-1 $105 $106 $46 #
plane-surface $-1 -1 $-1 0 3 0 0 -1 0 -1 0 0 forward_v I I I I #
coedge $-1 -1 $-1 $107 $108 $109 $110 forward $47 $-1 #
coedge $-1 -1 $-1 $111 $49 $107 $112 forward $33 $-1 #
coedge $-1 -1 $-1 $49 $111 $108 $113 reversed $33 $-1 #
coedge $-1 -1 $-1 $108 $107 $50 $72 reversed $47 $-1 #
edge $114 -1 $-1 $74 0 $75 3.1415926535897931 $50 $115 forward @7 unknown #
attrib_edge_convexity-kcp-attrib $-1 -1 $116 $-1 $51 1 #
vertex $-1 -1 $-1 $72 $117 #
vertex $-1 -1 $-1 $72 $118 #
ellipse-curve $-1 -1 $-1 5.5511151231257827e-017 0 -1.1102230246251565e-016 0 1 0 2.1999999999999997 0 3.8043570030343861e-016 1 I I #
face $-1 -1 $-1 $119 $120 $20 $-1 $38 reversed single #
loop $-1 -1 $-1 $-1 $121 $52 #
coedge $-1 -1 $-1 $122 $123 $124 $125 reversed $53 $-1 #
coedge $-1 -1 $-1 $126 $54 $127 $128 forward $37 $-1 #
coedge $-1 -1 $-1 $54 $126 $129 $130 reversed $37 $-1 #
coedge $-1 -1 $-1 $131 $132 $54 $83 forward $133 $-1 #
edge $-1 -1 $-1 $134 -8.8299926932232907e-017 $135 1.5707963267948966 $82 $136 forward @7 unknown #
face $-1 -1 $-1 $-1 $137 $22 $-1 $138 forward single #
loop $-1 -1 $-1 $139 $140 $55 #
plane-surface $-1 -1 $-1 -0.44148380355276901 -14 -1.3877787807814457e-016 0 1 0 0 0 1 forward_v I I I I #
loop $-1 -1 $-1 $-1 $141 $39 #
coedge $-1 -1 $-1 $88 $88 $140 $142 forward $56 $-1 #
coedge $-1 -1 $-1 $89 $89 $143 $144 reversed $58 $-1 #
coedge $-1 -1 $-1 $90 $90 $59 $91 reversed $139 $-1 #
edge $-1 -1 $-1 $145 0 $145 6.2831853071795862 $59 $146 forward @7 unknown #
model_id-kcp-attrib $-1 -1 $-1 $-1 $60 1 1021510297 1021510297 1808072706 2 #
face $-1 -1 $-1 $147 $148 $23 $-1 $149 reversed single #
loop $-1 -1 $-1 $-1 $150 $60 #
plane-surface $-1 -1 $-1 0 -14 0 0 1 0 0 0 1 forward_v I I I I #
coedge $-1 -1 $-1 $151 $152 $153 $154 forward $61 $-1 #
coedge $-1 -1 $-1 $155 $63 $156 $157 forward $43 $-1 #
coedge $-1 -1 $-1 $63 $155 $158 $159 forward $43 $-1 #
coedge $-1 -1 $-1 $160 $161 $63 $100 reversed $162 $-1 #
edge $-1 -1 $-1 $163 -14 $164 14 $99 $165 forward @7 unknown #
model_id-kcp-attrib $-1 -1 $-1 $-1 $65 1 1021510297 1021510297 1808072705 6 #
face $166 -1 $-1 $167 $168 $8 $-1 $169 forward single #
loop $-1 -1 $-1 $-1 $170 $65 #
cone-surface $-1 -1 $-1 0 -11.333333333333332 0 0 -1 0 -0.37499999999999994 0 0 1 I I -0.35112344158839165 0.93632917756904455 0.37499999999999994 forward I I I I #
loop $-1 -1 $-1 $-1 $109 $46 #
coedge $-1 -1 $-1 $171 $171 $170 $172 reversed $66 $-1 #
coedge $-1 -1 $-1 $71 $68 $69 $112 reversed $47 $-1 #
coedge $-1 -1 $-1 $68 $71 $70 $113 forward $47 $-1 #
coedge $-1 -1 $-1 $173 $173 $68 $110 reversed $105 $-1 #
edge $174 -1 $-1 $175 1.2246063538223773e-016 $176 3.1415926535897936 $68 $177 forward @7 unknown #
coedge $-1 -1 $-1 $70 $69 $173 $178 reversed $33 $-1 #
edge $-1 -1 $-1 $75 0 $176 3 $107 $179 forward @7 unknown #
edge $-1 -1 $-1 $74 0 $175 3 $108 $180 forward @7 unknown #
attrib_edge_convexity-kcp-attrib $-1 -1 $181 $-1 $72 1 #
ellipse-curve $-1 -1 $-1 -5.5511151231257827e-017 0 -1.1102230246251565e-016 0 -1 0 2.1999999999999997 0 3.8043570030343861e-016 1 I I #
convexity-sys-attrib $-1 -1 $-1 $73 $51 #
point $-1 -1 $-1 2.1999999999999997 0 2.6941339784092296e-016 #
point $-1 -1 $-1 -2.1999999999999997 0 0 #
face $-1 -1 $-1 $182 $183 $20 $-1 $184 forward single #
loop $-1 -1 $-1 $-1 $185 $77 #
coedge $-1 -1 $-1 $186 $187 $185 $188 forward $78 $-1 #
coedge $-1 -1 $-1 $189 $79 $190 $191 reversed $53 $-1 #
coedge $-1 -1 $-1 $79 $189 $81 $130 forward $53 $-1 #
coedge $-1 -1 $-1 $192 $193 $79 $125 forward $194 $-1 #
edge $-1 -1 $-1 $195 -3.1415926535897931 $196 -1.5707963267948966 $124 $197 forward @7 unknown #
coedge $-1 -1 $-1 $81 $80 $198 $199 reversed $37 $-1 #
coedge $-1 -1 $-1 $187 $186 $200 $128 reversed $78 $-1 #
edge $-1 -1 $-1 $134 -28 $201 0 $200 $202 forward @7 unknown #
coedge $-1 -1 $-1 $203 $204 $205 $130 forward $206 $-1 #
edge $-1 -1 $-1 $135 -28 $196 0 $129 $207 forward @7 unknown #
coedge $-1 -1 $-1 $132 $82 $204 $208 reversed $133 $-1 #
coedge $-1 -1 $-1 $82 $131 $209 $210 forward $133 $-1 #
loop $-1 -1 $-1 $-1 $82 $211 #
vertex $-1 -1 $-1 $212 $213 #
vertex $-1 -1 $-1 $214 $215 #
ellipse-curve $-1 -1 $-1 1.731254494483119e-048 14 2.2204460492503128e-016 0 -1 0 6.5 0 5.7394952505951391e-016 1 I I #
loop $-1 -1 $-1 $216 $217 $84 #
plane-surface $-1 -1 $-1 -0.44148380355276901 -11 -1.3877787807814457e-016 0 1 0 0 0 1 forward_v I I I I #
loop $-1 -1 $-1 $-1 $90 $55 #
coedge $-1 -1 $-1 $140 $140 $88 $142 reversed $85 $-1 #
coedge $-1 -1 $-1 $141 $141 $217 $218 reversed $87 $-1 #
edge $-1 -1 $-1 $219 -3.1415926535897931 $219 3.1415926535897931 $88 $220 forward @7 unknown #
coedge $-1 -1 $-1 $143 $143 $89 $144 forward $216 $-1 #
edge $221 -1 $-1 $222 -3.1415926535897931 $222 3.1415926535897931 $89 $223 forward @7 unknown #
vertex $-1 -1 $-1 $91 $224 #
ellipse-curve $-1 -1 $-1 0 -14 0 0 -1 0 -2.1999999999999997 0 0 1 I I #
face $225 -1 $-1 $226 $227 $23 $-1 $228 reversed single #
loop $-1 -1 $-1 $-1 $229 $93 #
plane-surface $-1 -1 $-1 -6.5 0 0 1 0 0 0 0 -1 forward_v I I I I #
coedge $-1 -1 $-1 $230 $158 $231 $232 forward $94 $-1 #
coedge $-1 -1 $-1 $233 $96 $230 $234 forward $61 $-1 #
coedge $-1 -1 $-1 $96 $233 $235 $236 forward $61 $-1 #
coedge $-1 -1 $-1 $161 $160 $96 $154 reversed $162 $-1 #
edge $-1 -1 $-1 $237 -14 $238 14 $153 $239 forward @7 unknown #
coedge $-1 -1 $-1 $98 $97 $240 $241 forward $43 $-1 #
coedge $-1 -1 $-1 $242 $243 $97 $157 reversed $227 $-1 #
edge $-1 -1 $-1 $164 -6.5 $244 6.5 $156 $245 forward @7 unknown #
coedge $-1 -1 $-1 $150 $246 $98 $159 reversed $94 $-1 #
edge $-1 -1 $-1 $247 -6.5 $163 6.5 $158 $248 forward @7 unknown #
coedge $-1 -1 $-1 $153 $99 $246 $249 forward $162 $-1 #
coedge $-1 -1 $-1 $99 $153 $242 $250 reversed $162 $-1 #
loop $-1 -1 $-1 $-1 $160 $226 #
vertex $-1 -1 $-1 $100 $251 #
vertex $-1 -1 $-1 $100 $252 #
straight-curve $-1 -1 $-1 6.5 0 6.5 0 1 0 I I #
model_id-kcp-attrib $-1 -1 $-1 $-1 $102 1 1021510297 1021510297 1808072705 7 #
face $253 -1 $-1 $254 $255 $8 $-1 $256 forward single #
loop $-1 -1 $-1 $-1 $257 $102 #
cone-surface $-1 -1 $-1 0 -11.333333333333332 0 0 -1 0 -0.37499999999999994 0 0 1 I I -0.35112344158839165 0.93632917756904455 0.37499999999999994 forward I I I I #
coedge $-1 -1 $-1 $258 $259 $106 $172 forward $103 $-1 #
coedge $-1 -1 $-1 $106 $106 $260 $261 forward $66 $-1 #
edge $262 -1 $-1 $263 0 $264 3.1415926535897936 $106 $265 forward @7 unknown #
coedge $-1 -1 $-1 $109 $109 $111 $178 forward $105 $-1 #
attrib_edge_convexity-kcp-attrib $-1 -1 $266 $-1 $110 2 #
vertex $-1 -1 $-1 $113 $267 #
vertex $-1 -1 $-1 $112 $268 #
ellipse-curve $-1 -1 $-1 5.5511151231257827e-017 3 4.4408920985006262e-016 0 -1 0 2.1999999999999997 0 -4.4408920985006262e-016 1 I I #
edge $269 -1 $-1 $175 -1.2246063538223773e-016 $176 3.1415926535897936 $173 $270 forward @7 unknown #
straight-curve $-1 -1 $-1 -2.1999999999999997 0 -5.3882679568184591e-016 0 1 0 I I #
straight-curve $-1 -1 $-1 2.1999999999999997 0 2.6941339784092296e-016 0 1 0 I I #
convexity-sys-attrib $-1 -1 $-1 $114 $72 #
face $-1 -1 $-1 $271 $272 $20 $-1 $273 reversed single #
loop $-1 -1 $-1 $-1 $205 $119 #
plane-surface $-1 -1 $-1 0 0 6.5 0 0 1 1 0 0 forward_v I I I I #
coedge $-1 -1 $-1 $274 $275 $276 $188 reversed $120 $-1 #
coedge $-1 -1 $-1 $127 $121 $277 $278 reversed $78 $-1 #
coedge $-1 -1 $-1 $121 $127 $279 $280 reversed $78 $-1 #
edge $-1 -1 $-1 $281 -28 $282 0 $276 $283 forward @7 unknown #
coedge $-1 -1 $-1 $123 $122 $284 $285 reversed $53 $-1 #
coedge $-1 -1 $-1 $286 $287 $288 $191 forward $289 $-1 #
edge $-1 -1 $-1 $290 -28 $195 0 $190 $291 forward @7 unknown #
coedge $-1 -1 $-1 $193 $124 $292 $293 reversed $194 $-1 #
coedge $-1 -1 $-1 $124 $192 $286 $294 forward $194 $-1 #
loop $-1 -1 $-1 $-1 $124 $295 #
vertex $-1 -1 $-1 $296 $297 #
vertex $-1 -1 $-1 $298 $299 #
ellipse-curve $-1 -1 $-1 1.731254494483119e-048 -14 2.2204460492503128e-016 0 1 0 6.5 0 5.7394952505951391e-016 1 I I #
coedge $-1 -1 $-1 $300 $301 $126 $199 forward $302 $-1 #
edge $-1 -1 $-1 $196 -1.5707963267948966 $201 8.8299926932232907e-017 $198 $197 forward @7 unknown #
coedge $-1 -1 $-1 $303 $304 $305 $128 forward $272 $-1 #
vertex $-1 -1 $-1 $306 $307 #
straight-curve $-1 -1 $-1 6.5 -14 2.2204460492503128e-016 0 -1 0 I I #
coedge $-1 -1 $-1 $308 $129 $301 $298 forward $206 $-1 #
coedge $-1 -1 $-1 $129 $308 $131 $208 forward $206 $-1 #
coedge $-1 -1 $-1 $309 $292 $123 $130 reversed $183 $-1 #
loop $-1 -1 $-1 $-1 $129 $310 #
straight-curve $-1 -1 $-1 1.731254494483119e-048 -14 6.5 0 -1 0 I I #
edge $-1 -1 $-1 $311 -6.5 $135 -1.731254494483119e-048 $131 $312 forward @7 unknown #
coedge $-1 -1 $-1 $313 $305 $132 $210 reversed $314 $-1 #
edge $-1 -1 $-1 $311 -6.5 $134 -2.2204460492503128e-016 $209 $315 forward @7 unknown #
face $-1 -1 $-1 $316 $133 $20 $-1 $317 reversed single #
edge $-1 -1 $-1 $134 -2.2204460492503128e-016 $318 6.5 $304 $315 forward @7 unknown #
point $-1 -1 $-1 6.5 14 2.2204460492503128e-016 #
edge $-1 -1 $-1 $135 -1.731254494483119e-048 $319 6.5 $320 $312 forward @7 unknown #
point $-1 -1 $-1 1.731254494483119e-048 14 6.5 #
loop $-1 -1 $-1 $-1 $143 $84 #
coedge $-1 -1 $-1 $217 $217 $141 $218 forward $137 $-1 #
edge $321 -1 $-1 $322 -3.1415926535897931 $322 3.1415926535897931 $141 $323 forward @7 unknown #
vertex $-1 -1 $-1 $142 $324 #
ellipse-curve $-1 -1 $-1 1.731254494483119e-048 -14 2.2204460492503128e-016 0 1 0 6.5 0 5.7394952505951391e-016 1 I I #
convexity-sys-attrib $-1 -1 $-1 $-1 $144 #
vertex $-1 -1 $-1 $144 $325 #
ellipse-curve $-1 -1 $-1 0 -11 0 0 -1 0 -2.1999999999999997 0 0 1 I I #
point $-1 -1 $-1 -2.1999999999999993 -14 0 #
model_id-kcp-attrib $-1 -1 $-1 $-1 $147 1 1021510297 1021510297 1808072706 3 #
face $-1 -1 $-1 $-1 $162 $23 $-1 $326 reversed single #
loop $-1 -1 $-1 $-1 $242 $147 #
plane-surface $-1 -1 $-1 0 14 0 0 -1 0 0 0 -1 forward_v I I I I #
coedge $-1 -1 $-1 $327 $240 $243 $328 forward $148 $-1 #
coedge $-1 -1 $-1 $246 $150 $151 $234 reversed $94 $-1 #
coedge $-1 -1 $-1 $240 $327 $150 $232 reversed $148 $-1 #
edge $-1 -1 $-1 $247 -6.5 $329 6.5 $231 $330 forward @7 unknown #
coedge $-1 -1 $-1 $152 $151 $327 $331 forward $61 $-1 #
edge $-1 -1 $-1 $238 -6.5 $329 6.5 $230 $332 forward @7 unknown #
coedge $-1 -1 $-1 $243 $242 $152 $236 reversed $227 $-1 #
edge $-1 -1 $-1 $333 -6.5 $237 6.5 $235 $334 forward @7 unknown #
vertex $-1 -1 $-1 $154 $335 #
vertex $-1 -1 $-1 $249 $336 #
straight-curve $-1 -1 $-1 6.5 0 -6.5 0 -1 0 I I #
coedge $-1 -1 $-1 $229 $231 $155 $241 reversed $148 $-1 #
edge $-1 -1 $-1 $244 -14 $247 14 $240 $337 forward @7 unknown #
coedge $-1 -1 $-1 $235 $156 $161 $250 forward $227 $-1 #
coedge $-1 -1 $-1 $156 $235 $229 $328 reversed $227 $-1 #
vertex $-1 -1 $-1 $157 $338 #
straight-curve $-1 -1 $-1 0 14 6.5 -1 0 0 I I #
coedge $-1 -1 $-1 $158 $230 $160 $249 reversed $94 $-1 #
vertex $-1 -1 $-1 $241 $339 #
straight-curve $-1 -1 $-1 0 -14 6.5 1 0 0 I I #
edge $-1 -1 $-1 $163 -6.5 $238 6.5 $160 $340 forward @7 unknown #
edge $-1 -1 $-1 $164 -6.5 $237 6.5 $161 $341 forward @7 unknown #
point $-1 -1 $-1 6.5 -14 6.5 #
point $-1 -1 $-1 6.5 14 6.5 #
model_id-kcp-attrib $-1 -1 $-1 $-1 $167 1 1021510297 1021510297 1808072705 8 #
face $342 -1 $-1 $343 $344 $8 $-1 $345 reversed single #
loop $-1 -1 $-1 $-1 $346 $167 #
cone-surface $-1 -1 $-1 0 29.399999999999999 0 0 -1 0 -6.5 0 0 1 I I 0 1 6.5 forward I I I I #
coedge $-1 -1 $-1 $347 $348 $349 $350 forward $168 $-1 #
coedge $-1 -1 $-1 $351 $170 $347 $352 forward $103 $-1 #
coedge $-1 -1 $-1 $170 $351 $348 $353 reversed $103 $-1 #
coedge $-1 -1 $-1 $348 $347 $171 $261 reversed $168 $-1 #
edge $354 -1 $-1 $263 0 $264 3.1415926535897931 $171 $355 forward @7 unknown #
attrib_edge_convexity-kcp-attrib $-1 -1 $356 $-1 $172 1 #
vertex $-1 -1 $-1 $261 $357 #
vertex $-1 -1 $-1 $261 $358 #
ellipse-curve $-1 -1 $-1 -2.2204460492503131e-016 3 -8.8817841970012523e-016 -3.0893162424352186e-016 1 -8.555133722339869e-032 5.7499999999999991 1.7763568394002505e-015 1.5923270731479922e-015 1 I I #
convexity-sys-attrib $-1 -1 $-1 $174 $110 #
point $-1 -1 $-1 2.1999999999999997 3 2.6941339784092296e-016 #
point $-1 -1 $-1 -2.1999999999999997 3 0 #
attrib_edge_convexity-kcp-attrib $-1 -1 $359 $-1 $178 2 #
ellipse-curve $-1 -1 $-1 5.5511151231257827e-017 3 -4.4408920985006262e-016 0 1 0 2.1999999999999997 0 4.4408920985006262e-016 1 I I #
face $-1 -1 $-1 $360 $361 $20 $-1 $362 reversed single #
loop $-1 -1 $-1 $-1 $200 $182 #
plane-surface $-1 -1 $-1 6.5 0 0 -1 0 0 0 0 1 forward_v I I I I #
coedge $-1 -1 $-1 $363 $185 $364 $365 reversed $120 $-1 #
coedge $-1 -1 $-1 $185 $363 $366 $367 reversed $120 $-1 #
coedge $-1 -1 $-1 $368 $369 $370 $188 forward $371 $-1 #
coedge $-1 -1 $-1 $372 $373 $186 $278 forward $374 $-1 #
edge $-1 -1 $-1 $201 8.8299926932232907e-017 $282 1.5707963267948968 $277 $197 forward @7 unknown #
coedge $-1 -1 $-1 $375 $376 $187 $280 forward $377 $-1 #
edge $-1 -1 $-1 $281 -1.5707963267948968 $134 -8.8299926932232907e-017 $279 $136 forward @7 unknown #
vertex $-1 -1 $-1 $378 $379 #
vertex $-1 -1 $-1 $380 $381 #
straight-curve $-1 -1 $-1 1.731254494483119e-048 -14 -6.5 0 -1 0 I I #
coedge $-1 -1 $-1 $382 $320 $189 $285 forward $383 $-1 #
edge $-1 -1 $-1 $135 1.5707963267948966 $290 3.1415926535897931 $284 $136 forward @7 unknown #
coedge $-1 -1 $-1 $384 $190 $193 $294 reversed $289 $-1 #
coedge $-1 -1 $-1 $190 $384 $382 $385 forward $289 $-1 #
coedge $-1 -1 $-1 $386 $387 $363 $191 reversed $361 $-1 #
loop $-1 -1 $-1 $-1 $190 $388 #
vertex $-1 -1 $-1 $389 $390 #
straight-curve $-1 -1 $-1 -6.5 -14 2.2204460492503128e-016 0 -1 0 I I #
coedge $-1 -1 $-1 $205 $391 $192 $293 forward $183 $-1 #
edge $-1 -1 $-1 $392 -6.5 $196 1.731254494483119e-048 $192 $393 forward @7 unknown #
edge $-1 -1 $-1 $392 -6.5 $195 -2.2204460492503128e-016 $286 $394 forward @7 unknown #
face $-1 -1 $-1 $395 $194 $20 $-1 $396 reversed single #
edge $-1 -1 $-1 $195 -2.2204460492503128e-016 $397 6.5 $387 $394 forward @7 unknown #
point $-1 -1 $-1 -6.5 -14 2.2204460492503128e-016 #
edge $-1 -1 $-1 $196 1.731254494483119e-048 $398 6.5 $301 $393 forward @7 unknown #
point $-1 -1 $-1 1.731254494483119e-048 -14 6.5 #
coedge $-1 -1 $-1 $301 $198 $399 $400 reversed $302 $-1 #
coedge $-1 -1 $-1 $198 $300 $203 $298 reversed $302 $-1 #
loop $-1 -1 $-1 $-1 $198 $395 #
coedge $-1 -1 $-1 $401 $200 $373 $306 forward $272 $-1 #
coedge $-1 -1 $-1 $200 $401 $375 $212 reversed $272 $-1 #
coedge $-1 -1 $-1 $209 $399 $80 $128 reversed $314 $-1 #
edge $-1 -1 $-1 $201 -2.2204460492503128e-016 $402 6.5 $303 $403 forward @7 unknown #
point $-1 -1 $-1 6.5 -14 2.2204460492503128e-016 #
coedge $-1 -1 $-1 $204 $203 $313 $404 forward $206 $-1 #
coedge $-1 -1 $-1 $391 $205 $320 $214 forward $183 $-1 #
face $-1 -1 $-1 $405 $206 $20 $-1 $184 forward single #
vertex $-1 -1 $-1 $404 $406 #
straight-curve $-1 -1 $-1 0 14 6.5 -1 0 0 I I #
coedge $-1 -1 $-1 $399 $209 $308 $404 reversed $314 $-1 #
loop $-1 -1 $-1 $-1 $305 $407 #
straight-curve $-1 -1 $-1 6.5 14 0 0 0 -1 I I #
face $-1 -1 $-1 $408 $383 $20 $-1 $317 reversed single #
plane-surface $-1 -1 $-1 0 14 0 0 -1 0 0 0 -1 forward_v I I I I #
vertex $-1 -1 $-1 $409 $410 #
vertex $-1 -1 $-1 $214 $411 #
coedge $-1 -1 $-1 $284 $382 $309 $214 reversed $383 $-1 #
convexity-sys-attrib $-1 -1 $-1 $-1 $218 #
vertex $-1 -1 $-1 $218 $412 #
ellipse-curve $-1 -1 $-1 1.731254494483119e-048 -11 2.2204460492503128e-016 0 1 0 6.5 0 5.7394952505951391e-016 1 I I #
point $-1 -1 $-1 -6.5 -14 4.4408920985006262e-016 #
point $-1 -1 $-1 2.1999999999999997 -11 2.6941339784092296e-016 #
plane-surface $-1 -1 $-1 6.5 0 0 -1 0 0 0 0 1 forward_v I I I I #
coedge $-1 -1 $-1 $231 $229 $233 $331 reversed $148 $-1 #
edge $-1 -1 $-1 $244 -6.5 $333 6.5 $243 $413 forward @7 unknown #
vertex $-1 -1 $-1 $331 $414 #
straight-curve $-1 -1 $-1 -6.5 -14 0 0 0 -1 I I #
edge $-1 -1 $-1 $329 -14 $333 14 $327 $415 forward @7 unknown #
straight-curve $-1 -1 $-1 0 -14 -6.5 -1 0 0 I I #
vertex $-1 -1 $-1 $236 $416 #
straight-curve $-1 -1 $-1 0 14 -6.5 1 0 0 I I #
point $-1 -1 $-1 6.5 14 -6.5 #
point $-1 -1 $-1 6.5 -14 -6.5 #
straight-curve $-1 -1 $-1 -6.5 0 6.5 0 -1 0 I I #
point $-1 -1 $-1 -6.5 14 6.5 #
point $-1 -1 $-1 -6.5 -14 6.5 #
straight-curve $-1 -1 $-1 6.5 -14 0 0 0 -1 I I #
straight-curve $-1 -1 $-1 6.5 14 0 0 0 -1 I I #
model_id-kcp-attrib $-1 -1 $-1 $-1 $254 1 1021510297 1021510297 1808072705 9 #
face $417 -1 $-1 $-1 $418 $8 $-1 $419 forward single #
loop $-1 -1 $-1 $-1 $420 $254 #
plane-surface $-1 -1 $-1 0 28 0 0 -1 0 -1 0 0 forward_v I I I I #
coedge $-1 -1 $-1 $421 $422 $420 $423 forward $255 $-1 #
coedge $-1 -1 $-1 $260 $257 $258 $352 reversed $168 $-1 #
coedge $-1 -1 $-1 $257 $260 $259 $353 forward $168 $-1 #
coedge $-1 -1 $-1 $422 $421 $257 $350 reversed $255 $-1 #
edge $-1 -1 $-1 $424 1.8671264028899693e-032 $425 3.1415926535897931 $257 $426 forward @7 unknown #
coedge $-1 -1 $-1 $259 $258 $427 $428 reversed $103 $-1 #
edge $-1 -1 $-1 $264 -1.2111018778805772e-031 $425 2.1360009363293817 $347 $429 forward @7 unknown #
edge $-1 -1 $-1 $263 0 $424 2.1360009363293808 $348 $430 forward @7 unknown #
attrib_edge_convexity-kcp-attrib $-1 -1 $431 $-1 $261 1 #
ellipse-curve $-1 -1 $-1 0 3 0 3.0893162424352186e-016 -1 3.7831962994528404e-032 5.7499999999999991 1.7763568394002505e-015 7.0414865344786692e-016 1 I I #
convexity-sys-attrib $-1 -1 $-1 $262 $172 #
point $-1 -1 $-1 5.7499999999999991 3.0000000000000018 7.0414865344786692e-016 #
point $-1 -1 $-1 -5.7499999999999991 3.0000000000000018 0 #
convexity-sys-attrib $-1 -1 $-1 $269 $178 #
face $-1 -1 $-1 $295 $432 $20 $-1 $396 reversed single #
loop $-1 -1 $-1 $-1 $288 $271 #
plane-surface $-1 -1 $-1 -6.5 0 0 1 0 0 0 0 -1 forward_v I I I I #
coedge $-1 -1 $-1 $275 $274 $122 $191 forward $120 $-1 #
coedge $-1 -1 $-1 $433 $434 $274 $365 forward $435 $-1 #
edge $-1 -1 $-1 $290 -3.1415926535897931 $281 -1.5707963267948968 $364 $136 forward @7 unknown #
coedge $-1 -1 $-1 $436 $437 $275 $367 forward $432 $-1 #
edge $-1 -1 $-1 $282 1.5707963267948968 $195 3.1415926535897931 $366 $197 forward @7 unknown #
coedge $-1 -1 $-1 $438 $276 $437 $380 forward $371 $-1 #
coedge $-1 -1 $-1 $276 $438 $433 $439 forward $371 $-1 #
coedge $-1 -1 $-1 $440 $441 $121 $188 reversed $442 $-1 #
loop $-1 -1 $-1 $-1 $276 $405 #
coedge $-1 -1 $-1 $373 $277 $441 $443 reversed $374 $-1 #
coedge $-1 -1 $-1 $277 $372 $303 $306 reversed $374 $-1 #
loop $-1 -1 $-1 $-1 $277 $444 #
coedge $-1 -1 $-1 $376 $279 $304 $212 forward $377 $-1 #
coedge $-1 -1 $-1 $279 $375 $440 $378 reversed $377 $-1 #
loop $-1 -1 $-1 $-1 $279 $445 #
edge $-1 -1 $-1 $281 1.731254494483119e-048 $318 6.5 $376 $446 forward @7 unknown #
point $-1 -1 $-1 1.731254494483119e-048 14 -6.5 #
edge $-1 -1 $-1 $282 -1.731254494483119e-048 $397 6.5 $437 $447 forward @7 unknown #
point $-1 -1 $-1 1.731254494483119e-048 -14 -6.5 #
coedge $-1 -1 $-1 $320 $284 $287 $385 reversed $383 $-1 #
loop $-1 -1 $-1 $-1 $284 $316 #
coedge $-1 -1 $-1 $287 $286 $391 $448 reversed $289 $-1 #
edge $-1 -1 $-1 $319 -6.5 $290 -2.2204460492503128e-016 $382 $449 forward @7 unknown #
coedge $-1 -1 $-1 $450 $288 $434 $389 forward $361 $-1 #
coedge $-1 -1 $-1 $288 $450 $436 $296 reversed $361 $-1 #
face $-1 -1 $-1 $407 $289 $20 $-1 $362 reversed single #
edge $-1 -1 $-1 $290 -2.2204460492503128e-016 $451 6.5 $434 $449 forward @7 unknown #
point $-1 -1 $-1 -6.5 14 2.2204460492503128e-016 #
coedge $-1 -1 $-1 $292 $309 $384 $448 forward $183 $-1 #
vertex $-1 -1 $-1 $448 $452 #
straight-curve $-1 -1 $-1 0 -14 6.5 1 0 0 I I #
straight-curve $-1 -1 $-1 -6.5 -14 0 0 0 -1 I I #
face $-1 -1 $-1 $444 $302 $20 $-1 $396 reversed single #
plane-surface $-1 -1 $-1 0 -14 0 0 1 0 0 0 1 forward_v I I I I #
vertex $-1 -1 $-1 $453 $454 #
vertex $-1 -1 $-1 $404 $455 #
coedge $-1 -1 $-1 $305 $313 $300 $400 forward $314 $-1 #
edge $-1 -1 $-1 $398 -6.5 $201 -2.2204460492503128e-016 $399 $403 forward @7 unknown #
coedge $-1 -1 $-1 $304 $303 $456 $409 reversed $272 $-1 #
vertex $-1 -1 $-1 $306 $457 #
straight-curve $-1 -1 $-1 6.5 -14 0 0 0 -1 I I #
edge $-1 -1 $-1 $398 -14 $311 14 $313 $458 forward @7 unknown #
face $-1 -1 $-1 $388 $371 $20 $-1 $459 reversed single #
point $-1 -1 $-1 6.5 14 6.5 #
face $-1 -1 $-1 $-1 $314 $20 $-1 $273 reversed single #
face $-1 -1 $-1 $460 $435 $20 $-1 $317 reversed single #
edge $-1 -1 $-1 $318 -14 $402 14 $401 $461 forward @7 unknown #
point $-1 -1 $-1 6.5 14 -6.5 #
point $-1 -1 $-1 -6.5 14 6.5 #
point $-1 -1 $-1 -6.5 -11 4.4408920985006262e-016 #
straight-curve $-1 -1 $-1 -6.5 14 0 0 0 -1 I I #
point $-1 -1 $-1 -6.5 -14 -6.5 #
straight-curve $-1 -1 $-1 -6.5 0 -6.5 0 1 0 I I #
point $-1 -1 $-1 -6.5 14 -6.5 #
model_id-kcp-attrib $-1 -1 $-1 $-1 $343 1 1021510297 1021510297 1808072705 10 #
loop $-1 -1 $-1 $-1 $427 $343 #
cone-surface $-1 -1 $-1 0 29.399999999999999 0 0 -1 0 -6.5 0 0 1 I I 0 1 6.5 forward I I I I #
coedge $-1 -1 $-1 $462 $462 $346 $423 reversed $344 $-1 #
coedge $-1 -1 $-1 $349 $346 $463 $464 reversed $255 $-1 #
coedge $-1 -1 $-1 $346 $349 $465 $466 forward $255 $-1 #
edge $-1 -1 $-1 $467 1.2246063538223773e-016 $468 3.1415926535897931 $346 $469 forward @7 unknown #
vertex $-1 -1 $-1 $353 $470 #
vertex $-1 -1 $-1 $352 $471 #
ellipse-curve $-1 -1 $-1 2.2204460492503131e-016 5 0 0 -1 0 6.5 0 7.9599412998454522e-016 1 I I #
coedge $-1 -1 $-1 $463 $465 $351 $428 forward $418 $-1 #
edge $-1 -1 $-1 $424 -3.7342528057799385e-032 $425 3.1415926535897931 $351 $472 forward @7 unknown #
straight-curve $-1 -1 $-1 -5.7499999999999991 3.0000000000000018 -1.4082973068957338e-015 -0.35112344158839159 0.93632917756904455 -8.5997599509024946e-017 I I #
straight-curve $-1 -1 $-1 5.7499999999999991 3.0000000000000018 7.0414865344786692e-016 0.35112344158839159 0.93632917756904455 4.2998799754512473e-017 I I #
convexity-sys-attrib $-1 -1 $-1 $354 $261 #
loop $-1 -1 $-1 $-1 $366 $360 #
coedge $-1 -1 $-1 $434 $364 $369 $439 reversed $435 $-1 #
coedge $-1 -1 $-1 $364 $433 $386 $389 reversed $435 $-1 #
loop $-1 -1 $-1 $-1 $364 $408 #
coedge $-1 -1 $-1 $437 $366 $387 $296 forward $432 $-1 #
coedge $-1 -1 $-1 $366 $436 $368 $380 reversed $432 $-1 #
coedge $-1 -1 $-1 $369 $368 $450 $453 forward $371 $-1 #
edge $-1 -1 $-1 $451 -6.5 $281 1.731254494483119e-048 $433 $446 forward @7 unknown #
coedge $-1 -1 $-1 $456 $370 $376 $378 forward $442 $-1 #
coedge $-1 -1 $-1 $370 $456 $372 $443 forward $442 $-1 #
loop $-1 -1 $-1 $-1 $370 $460 #
edge $-1 -1 $-1 $402 -6.5 $282 -1.731254494483119e-048 $372 $447 forward @7 unknown #
face $-1 -1 $-1 $445 $374 $20 $-1 $396 reversed single #
face $-1 -1 $-1 $211 $377 $20 $-1 $317 reversed single #
straight-curve $-1 -1 $-1 0 14 -6.5 1 0 0 I I #
straight-curve $-1 -1 $-1 0 -14 -6.5 -1 0 0 I I #
edge $-1 -1 $-1 $319 -14 $392 14 $384 $473 forward @7 unknown #
straight-curve $-1 -1 $-1 -6.5 14 0 0 0 -1 I I #
coedge $-1 -1 $-1 $387 $386 $438 $453 reversed $361 $-1 #
vertex $-1 -1 $-1 $439 $474 #
point $-1 -1 $-1 -6.5 -14 6.5 #
edge $-1 -1 $-1 $397 -14 $451 14 $450 $475 forward @7 unknown #
point $-1 -1 $-1 -6.5 -14 -6.5 #
point $-1 -1 $-1 6.5 -14 6.5 #
coedge $-1 -1 $-1 $441 $440 $401 $409 forward $442 $-1 #
point $-1 -1 $-1 6.5 -14 -6.5 #
straight-curve $-1 -1 $-1 6.5 0 6.5 0 1 0 I I #
plane-surface $-1 -1 $-1 0 0 -6.5 0 0 1 1 0 0 forward_v I I I I #
face $-1 -1 $-1 $310 $442 $20 $-1 $459 reversed single #
straight-curve $-1 -1 $-1 6.5 0 -6.5 0 -1 0 I I #
coedge $-1 -1 $-1 $420 $420 $476 $477 forward $344 $-1 #
coedge $-1 -1 $-1 $476 $427 $421 $464 forward $418 $-1 #
edge $-1 -1 $-1 $425 0 $468 23 $421 $478 forward @7 unknown #
coedge $-1 -1 $-1 $427 $476 $422 $466 reversed $418 $-1 #
edge $-1 -1 $-1 $424 0 $467 23 $422 $479 forward @7 unknown #
vertex $-1 -1 $-1 $466 $480 #
vertex $-1 -1 $-1 $464 $481 #
ellipse-curve $-1 -1 $-1 2.2204460492503131e-016 28 -2.2204460492503131e-016 0 -1 0 6.5 0 2.2204460492503131e-016 1 I I #
point $-1 -1 $-1 6.4999999999999982 5 7.9599412998454512e-016 #
point $-1 -1 $-1 -6.5 5 -1.5919882599690904e-015 #
ellipse-curve $-1 -1 $-1 -4.4408920985006262e-016 5 -2.2204460492503131e-016 0 1 0 6.5 0 1.0180387349095765e-015 1 I I #
straight-curve $-1 -1 $-1 -6.5 0 6.5 0 -1 0 I I #
point $-1 -1 $-1 -6.5 14 -6.5 #
straight-curve $-1 -1 $-1 -6.5 0 -6.5 0 1 0 I I #
coedge $-1 -1 $-1 $465 $463 $462 $477 reversed $418 $-1 #
edge $-1 -1 $-1 $467 -1.2246063538223773e-016 $468 3.1415926535897931 $462 $482 forward @7 unknown #
straight-curve $-1 -1 $-1 -6.5 5 -1.5919882599690904e-015 0 1 0 I I #
straight-curve $-1 -1 $-1 6.5 5 7.9599412998454522e-016 0 1 0 I I #
point $-1 -1 $-1 6.5 28 7.9599412998454522e-016 #
point $-1 -1 $-1 -6.5 28 0 #
ellipse-curve $-1 -1 $-1 2.2204460492503131e-016 28 2.2204460492503131e-016 0 1 0 6.5 0 -2.2204460492503131e-016 1 I I #
End-of-ACIS-data 