600 0 1 0           
86 GICL Pro/E ACIS Translator - Source: f:/data5/repository/PTC/V18/cmm18/tp25w.prt - 6 0 13 ACIS 6.0.3 NT 24 Thu Apr 04 13:38:56 2002 
1 9.9999999999999995e-007 1e-010 
body $-1 $1 $-1 $-1 #
lump $-1 $-1 $2 $0 #
shell $-1 $-1 $-1 $3 $-1 $1 #
face $-1 $4 $5 $2 $-1 $6 forward single #
face $-1 $7 $8 $2 $-1 $9 forward single #
loop $-1 $-1 $10 $3 #
plane-surface $-1 0 0 0 0 -1 0 -1 0 0 forward_v I I I I #
face $-1 $11 $12 $2 $-1 $13 forward single #
loop $-1 $-1 $14 $4 #
cone-surface $-1 0 29.399999999999999 0 0 -1 0 -2.1999999999999997 0 0 1 I I 0 1 2.1999999999999997 forward I I I I #
coedge $-1 $15 $15 $14 $16 reversed $5 $-1 #
face $-1 $17 $18 $2 $-1 $19 forward single #
loop $-1 $-1 $20 $7 #
cone-surface $-1 0 29.399999999999999 0 0 -1 0 -2.1999999999999997 0 0 1 I I 0 1 2.1999999999999997 forward I I I I #
coedge $-1 $21 $22 $10 $16 forward $8 $-1 #
coedge $-1 $10 $10 $23 $24 forward $5 $-1 #
edge $-1 $25 0 $26 3.1415926535897931 $10 $27 forward 7 unknown #
face $-1 $28 $29 $2 $-1 $30 forward single #
loop $-1 $31 $32 $11 #
plane-surface $-1 0 3 0 0 -1 0 -1 0 0 forward_v I I I I #
coedge $-1 $33 $34 $35 $36 forward $12 $-1 #
coedge $-1 $37 $14 $33 $38 forward $8 $-1 #
coedge $-1 $14 $37 $34 $39 reversed $8 $-1 #
coedge $-1 $34 $33 $15 $24 reversed $12 $-1 #
edge $-1 $25 0 $26 3.1415926535897931 $15 $40 forward 7 unknown #
vertex $-1 $24 $41 #
vertex $-1 $24 $42 #
ellipse-curve $-1 5.5511151231257827e-017 0 -1.1102230246251565e-016 0 1 0 2.1999999999999997 0 3.8043570030343861e-016 1 I I #
face $-1 $43 $44 $2 $-1 $45 forward single #
loop $-1 $-1 $46 $17 #
cone-surface $-1 0 -11.333333333333332 0 0 -1 0 -0.37499999999999994 0 0 1 I I -0.35112344158839165 0.93632917756904455 0.37499999999999994 forward I I I I #
loop $-1 $-1 $35 $11 #
coedge $-1 $47 $47 $46 $48 reversed $18 $-1 #
coedge $-1 $23 $20 $21 $38 reversed $12 $-1 #
coedge $-1 $20 $23 $22 $39 forward $12 $-1 #
coedge $-1 $49 $49 $20 $36 reversed $31 $-1 #
edge $-1 $50 1.2246063538223773e-016 $51 3.1415926535897936 $20 $52 forward 7 unknown #
coedge $-1 $22 $21 $49 $53 reversed $8 $-1 #
edge $-1 $26 0 $51 3 $33 $54 forward 7 unknown #
edge $-1 $25 0 $50 3 $34 $55 forward 7 unknown #
ellipse-curve $-1 -5.5511151231257827e-017 0 -1.1102230246251565e-016 0 -1 0 2.1999999999999997 0 3.8043570030343861e-016 1 I I #
point $-1 2.1999999999999997 0 2.6941339784092296e-016 #
point $-1 -2.1999999999999997 0 0 #
face $-1 $56 $57 $2 $-1 $58 forward single #
loop $-1 $-1 $59 $28 #
cone-surface $-1 0 -11.333333333333332 0 0 -1 0 -0.37499999999999994 0 0 1 I I -0.35112344158839165 0.93632917756904455 0.37499999999999994 forward I I I I #
coedge $-1 $60 $61 $32 $48 forward $29 $-1 #
coedge $-1 $32 $32 $62 $63 forward $18 $-1 #
edge $-1 $64 0 $65 3.1415926535897936 $32 $66 forward 7 unknown #
coedge $-1 $35 $35 $37 $53 forward $31 $-1 #
vertex $-1 $39 $67 #
vertex $-1 $38 $68 #
ellipse-curve $-1 5.5511151231257827e-017 3 4.4408920985006262e-016 0 -1 0 2.1999999999999997 0 -4.4408920985006262e-016 1 I I #
edge $-1 $50 -1.2246063538223773e-016 $51 3.1415926535897936 $49 $69 forward 7 unknown #
straight-curve $-1 -2.1999999999999997 0 -5.3882679568184591e-016 0 1 0 I I #
straight-curve $-1 2.1999999999999997 0 2.6941339784092296e-016 0 1 0 I I #
face $-1 $70 $71 $2 $-1 $72 reversed single #
loop $-1 $-1 $73 $43 #
cone-surface $-1 0 29.399999999999999 0 0 -1 0 -6.5 0 0 1 I I 0 1 6.5 forward I I I I #
coedge $-1 $74 $75 $76 $77 forward $44 $-1 #
coedge $-1 $78 $46 $74 $79 forward $29 $-1 #
coedge $-1 $46 $78 $75 $80 reversed $29 $-1 #
coedge $-1 $75 $74 $47 $63 reversed $44 $-1 #
edge $-1 $64 0 $65 3.1415926535897931 $47 $81 forward 7 unknown #
vertex $-1 $63 $82 #
vertex $-1 $63 $83 #
ellipse-curve $-1 -2.2204460492503131e-016 3 -8.8817841970012523e-016 -3.0893162424352186e-016 1 -8.555133722339869e-032 5.7499999999999991 1.7763568394002505e-015 1.5923270731479922e-015 1 I I #
point $-1 2.1999999999999997 3 2.6941339784092296e-016 #
point $-1 -2.1999999999999997 3 0 #
ellipse-curve $-1 5.5511151231257827e-017 3 -4.4408920985006262e-016 0 1 0 2.1999999999999997 0 4.4408920985006262e-016 1 I I #
face $-1 $-1 $84 $2 $-1 $85 forward single #
loop $-1 $-1 $86 $56 #
plane-surface $-1 0 28 0 0 -1 0 -1 0 0 forward_v I I I I #
coedge $-1 $87 $88 $86 $89 forward $57 $-1 #
coedge $-1 $62 $59 $60 $79 reversed $44 $-1 #
coedge $-1 $59 $62 $61 $80 forward $44 $-1 #
coedge $-1 $88 $87 $59 $77 reversed $57 $-1 #
edge $-1 $90 1.8671264028899693e-032 $91 3.1415926535897931 $59 $92 forward 7 unknown #
coedge $-1 $61 $60 $93 $94 reversed $29 $-1 #
edge $-1 $65 -1.2111018778805772e-031 $91 2.1360009363293817 $74 $95 forward 7 unknown #
edge $-1 $64 0 $90 2.1360009363293808 $75 $96 forward 7 unknown #
ellipse-curve $-1 0 3 0 3.0893162424352186e-016 -1 3.7831962994528404e-032 5.7499999999999991 1.7763568394002505e-015 7.0414865344786692e-016 1 I I #
point $-1 5.7499999999999991 3.0000000000000018 7.0414865344786692e-016 #
point $-1 -5.7499999999999991 3.0000000000000018 0 #
loop $-1 $-1 $93 $70 #
cone-surface $-1 0 29.399999999999999 0 0 -1 0 -6.5 0 0 1 I I 0 1 6.5 forward I I I I #
coedge $-1 $97 $97 $73 $89 reversed $71 $-1 #
coedge $-1 $76 $73 $98 $99 reversed $57 $-1 #
coedge $-1 $73 $76 $100 $101 forward $57 $-1 #
edge $-1 $102 1.2246063538223773e-016 $103 3.1415926535897931 $73 $104 forward 7 unknown #
vertex $-1 $80 $105 #
vertex $-1 $79 $106 #
ellipse-curve $-1 2.2204460492503131e-016 5 0 0 -1 0 6.5 0 7.9599412998454522e-016 1 I I #
coedge $-1 $98 $100 $78 $94 forward $84 $-1 #
edge $-1 $90 -3.7342528057799385e-032 $91 3.1415926535897931 $78 $107 forward 7 unknown #
straight-curve $-1 -5.7499999999999991 3.0000000000000018 -1.4082973068957338e-015 -0.35112344158839159 0.93632917756904455 -8.5997599509024946e-017 I I #
straight-curve $-1 5.7499999999999991 3.0000000000000018 7.0414865344786692e-016 0.35112344158839159 0.93632917756904455 4.2998799754512473e-017 I I #
coedge $-1 $86 $86 $108 $109 forward $71 $-1 #
coedge $-1 $108 $93 $87 $99 forward $84 $-1 #
edge $-1 $91 0 $103 23 $87 $110 forward 7 unknown #
coedge $-1 $93 $108 $88 $101 reversed $84 $-1 #
edge $-1 $90 0 $102 23 $88 $111 forward 7 unknown #
vertex $-1 $101 $112 #
vertex $-1 $99 $113 #
ellipse-curve $-1 2.2204460492503131e-016 28 -2.2204460492503131e-016 0 -1 0 6.5 0 2.2204460492503131e-016 1 I I #
point $-1 6.4999999999999982 5 7.9599412998454512e-016 #
point $-1 -6.5 5 -1.5919882599690904e-015 #
ellipse-curve $-1 -4.4408920985006262e-016 5 -2.2204460492503131e-016 0 1 0 6.5 0 1.0180387349095765e-015 1 I I #
coedge $-1 $100 $98 $97 $109 reversed $84 $-1 #
edge $-1 $102 -1.2246063538223773e-016 $103 3.1415926535897931 $97 $114 forward 7 unknown #
straight-curve $-1 -6.5 5 -1.5919882599690904e-015 0 1 0 I I #
straight-curve $-1 6.5 5 7.9599412998454522e-016 0 1 0 I I #
point $-1 6.5 28 7.9599412998454522e-016 #
point $-1 -6.5 28 0 #
ellipse-curve $-1 2.2204460492503131e-016 28 2.2204460492503131e-016 0 1 0 6.5 0 -2.2204460492503131e-016 1 I I #
End-of-ACIS-data 