700 0 2 0           
24 FBMach with ACIS - 7.0.3 13 ACIS 7.0.3 NT 24 Wed May 15 23:14:56 2002 
1 9.9999999999999995e-007 1e-010 
body $2 -1 $-1 $3 $-1 $4 #
bdycol-kcp $-1 -1 1 3 $5 $6 $7 #
model_id-kcp-attrib $-1 -1 $-1 $-1 $0 1 1021518895 1021518895 -871890943 1 #
lump $-1 -1 $-1 $-1 $8 $0 #
transform $-1 -1 1 0 0 0 1 0 0 0 1 0 0 0 1 rotate no_reflect no_shear #
body $9 -1 $-1 $10 $-1 $11 #
body $12 -1 $-1 $13 $-1 $14 #
body $15 -1 $-1 $16 $-1 $17 #
shell $-1 -1 $-1 $-1 $-1 $18 $-1 $3 #
model_id-kcp-attrib $-1 -1 $-1 $-1 $5 1 1021518895 1021518895 -871890942 1 #
lump $-1 -1 $-1 $-1 $19 $5 #
transform $-1 -1 1 0 0 0 1 0 0 0 1 0 14 0 1 no_rotate no_reflect no_shear #
rgb_color-st-attrib $-1 -1 $20 $-1 $6 0.5 1 1 #
lump $-1 -1 $-1 $-1 $21 $6 #
transform $-1 -1 1 0 0 0 1 0 0 0 1 0 14 0 1 no_rotate no_reflect no_shear #
rgb_color-st-attrib $-1 -1 $22 $-1 $7 1 0.5 1 #
lump $-1 -1 $-1 $-1 $23 $7 #
transform $-1 -1 1 0 0 0 1 0 0 0 1 0 14 0 1 no_rotate no_reflect no_shear #
face $24 -1 $-1 $25 $26 $8 $-1 $27 forward single #
shell $-1 -1 $-1 $-1 $-1 $28 $-1 $10 #
model_id-kcp-attrib $-1 -1 $-1 $12 $6 1 1021518895 1021518895 -865927165 1 #
shell $-1 -1 $-1 $-1 $-1 $29 $-1 $13 #
model_id-kcp-attrib $-1 -1 $-1 $15 $7 1 1021518895 1021518895 -858062844 1 #
shell $-1 -1 $-1 $-1 $-1 $30 $-1 $16 #
model_id-kcp-attrib $-1 -1 $-1 $-1 $18 1 1021518895 1021518895 -871890943 2 #
face $31 -1 $-1 $32 $33 $8 $-1 $34 forward single #
loop $-1 -1 $-1 $-1 $35 $18 #
plane-surface $-1 -1 $-1 0 0 0 0 -1 0 -1 0 0 forward_v I I I I #
face $-1 -1 $-1 $36 $37 $19 $-1 $38 forward single #
face $-1 -1 $-1 $39 $40 $21 $-1 $41 reversed single #
face $-1 -1 $-1 $42 $43 $23 $-1 $44 forward single #
model_id-kcp-attrib $-1 -1 $-1 $-1 $25 1 1021518895 1021518895 -871890943 3 #
face $45 -1 $-1 $46 $47 $8 $-1 $48 forward single #
loop $-1 -1 $-1 $-1 $49 $25 #
cone-surface $-1 -1 $-1 0 29.399999999999999 0 0 -1 0 -2.1999999999999997 0 0 1 I I 0 1 2.1999999999999997 forward I I I I #
coedge $-1 -1 $-1 $50 $50 $49 $51 reversed $26 $-1 #
face $-1 -1 $-1 $52 $53 $19 $-1 $54 reversed single #
loop $-1 -1 $-1 $-1 $55 $28 #
plane-surface $-1 -1 $-1 0 0 6.5 0 0 1 1 0 0 forward_v I I I I #
face $-1 -1 $-1 $56 $57 $21 $-1 $41 reversed single #
loop $-1 -1 $-1 $-1 $58 $29 #
cone-surface $-1 -1 $-1 1.731254494483119e-048 -14 2.2204460492503128e-016 0 -1 0 6.5 0 5.7394952505951391e-016 1 I I 0 1 6.5 forward I I I I #
face $-1 -1 $-1 $59 $60 $23 $-1 $61 forward single #
loop $-1 -1 $-1 $62 $63 $30 #
cone-surface $-1 -1 $-1 0 -11 0 0 -1 0 -2.1999999999999997 0 0 1 I I 0 -1 2.1999999999999997 forward I I I I #
model_id-kcp-attrib $-1 -1 $-1 $-1 $32 1 1021518895 1021518895 -871890943 4 #
face $64 -1 $-1 $65 $66 $8 $-1 $67 forward single #
loop $-1 -1 $-1 $-1 $68 $32 #
cone-surface $-1 -1 $-1 0 29.399999999999999 0 0 -1 0 -2.1999999999999997 0 0 1 I I 0 1 2.1999999999999997 forward I I I I #
coedge $-1 -1 $-1 $69 $70 $35 $51 forward $33 $-1 #
coedge $-1 -1 $-1 $35 $35 $71 $72 forward $26 $-1 #
edge $73 -1 $-1 $74 0 $75 3.1415926535897931 $35 $76 forward @7 unknown #
face $77 -1 $-1 $78 $79 $19 $-1 $80 reversed single #
loop $-1 -1 $-1 $-1 $81 $36 #
plane-surface $-1 -1 $-1 0 0 -6.5 0 0 1 1 0 0 forward_v I I I I #
coedge $-1 -1 $-1 $82 $83 $84 $85 forward $37 $-1 #
face $-1 -1 $-1 $86 $87 $21 $-1 $41 reversed single #
loop $-1 -1 $-1 $-1 $88 $39 #
coedge $-1 -1 $-1 $89 $90 $91 $92 reversed $40 $-1 #
face $-1 -1 $-1 $93 $94 $23 $-1 $95 reversed single #
loop $-1 -1 $-1 $96 $97 $42 #
cone-surface $-1 -1 $-1 1.731254494483119e-048 -11 2.2204460492503128e-016 0 -1 0 6.5 0 5.7394952505951391e-016 1 I I 0 1 6.5 forward I I I I #
loop $-1 -1 $-1 $-1 $98 $30 #
coedge $-1 -1 $-1 $63 $63 $99 $100 forward $43 $-1 #
model_id-kcp-attrib $-1 -1 $-1 $-1 $46 1 1021518895 1021518895 -871890943 5 #
face $101 -1 $-1 $102 $103 $8 $-1 $104 forward single #
loop $-1 -1 $-1 $105 $106 $46 #
plane-surface $-1 -1 $-1 0 3 0 0 -1 0 -1 0 0 forward_v I I I I #
coedge $-1 -1 $-1 $107 $108 $109 $110 forward $47 $-1 #
coedge $-1 -1 $-1 $111 $49 $107 $112 forward $33 $-1 #
coedge $-1 -1 $-1 $49 $111 $108 $113 reversed $33 $-1 #
coedge $-1 -1 $-1 $108 $107 $50 $72 reversed $47 $-1 #
edge $114 -1 $-1 $74 0 $75 3.1415926535897931 $50 $115 forward @7 unknown #
attrib_edge_convexity-kcp-attrib $-1 -1 $116 $-1 $51 1 #
vertex $-1 -1 $-1 $72 $117 #
vertex $-1 -1 $-1 $72 $118 #
ellipse-curve $-1 -1 $-1 5.5511151231257827e-017 0 -1.1102230246251565e-016 0 1 0 2.1999999999999997 0 3.8043570030343861e-016 1 I I #
model_id-kcp-attrib $-1 -1 $-1 $-1 $52 1 1021518895 1021518895 -871890942 2 #
face $-1 -1 $-1 $119 $120 $19 $-1 $121 reversed single #
loop $-1 -1 $-1 $-1 $122 $52 #
plane-surface $-1 -1 $-1 0 -14 0 0 1 0 0 0 1 forward_v I I I I #
coedge $-1 -1 $-1 $123 $124 $125 $126 forward $53 $-1 #
coedge $-1 -1 $-1 $127 $55 $128 $129 forward $37 $-1 #
coedge $-1 -1 $-1 $55 $127 $130 $131 forward $37 $-1 #
coedge $-1 -1 $-1 $132 $133 $55 $85 reversed $134 $-1 #
edge $-1 -1 $-1 $135 -14 $136 14 $84 $137 forward @7 unknown #
face $-1 -1 $-1 $138 $139 $21 $-1 $41 reversed single #
loop $-1 -1 $-1 $-1 $140 $56 #
coedge $-1 -1 $-1 $141 $142 $143 $144 reversed $57 $-1 #
coedge $-1 -1 $-1 $145 $58 $146 $147 forward $40 $-1 #
coedge $-1 -1 $-1 $58 $145 $148 $149 reversed $40 $-1 #
coedge $-1 -1 $-1 $150 $151 $58 $92 forward $152 $-1 #
edge $-1 -1 $-1 $153 -8.8299926932232907e-017 $154 1.5707963267948966 $91 $155 forward @7 unknown #
face $-1 -1 $-1 $-1 $156 $23 $-1 $157 forward single #
loop $-1 -1 $-1 $158 $159 $59 #
plane-surface $-1 -1 $-1 -0.44148380355276901 -14 -1.3877787807814457e-016 0 1 0 0 0 1 forward_v I I I I #
loop $-1 -1 $-1 $-1 $160 $42 #
coedge $-1 -1 $-1 $97 $97 $159 $161 forward $60 $-1 #
coedge $-1 -1 $-1 $98 $98 $162 $163 reversed $62 $-1 #
coedge $-1 -1 $-1 $99 $99 $63 $100 reversed $158 $-1 #
edge $-1 -1 $-1 $164 0 $164 6.2831853071795862 $63 $165 forward @7 unknown #
model_id-kcp-attrib $-1 -1 $-1 $-1 $65 1 1021518895 1021518895 -871890943 6 #
face $166 -1 $-1 $167 $168 $8 $-1 $169 forward single #
loop $-1 -1 $-1 $-1 $170 $65 #
cone-surface $-1 -1 $-1 0 -11.333333333333332 0 0 -1 0 -0.37499999999999994 0 0 1 I I -0.35112344158839165 0.93632917756904455 0.37499999999999994 forward I I I I #
loop $-1 -1 $-1 $-1 $109 $46 #
coedge $-1 -1 $-1 $171 $171 $170 $172 reversed $66 $-1 #
coedge $-1 -1 $-1 $71 $68 $69 $112 reversed $47 $-1 #
coedge $-1 -1 $-1 $68 $71 $70 $113 forward $47 $-1 #
coedge $-1 -1 $-1 $173 $173 $68 $110 reversed $105 $-1 #
edge $174 -1 $-1 $175 1.2246063538223773e-016 $176 3.1415926535897936 $68 $177 forward @7 unknown #
coedge $-1 -1 $-1 $70 $69 $173 $178 reversed $33 $-1 #
edge $-1 -1 $-1 $75 0 $176 3 $107 $179 forward @7 unknown #
edge $-1 -1 $-1 $74 0 $175 3 $108 $180 forward @7 unknown #
attrib_edge_convexity-kcp-attrib $-1 -1 $181 $-1 $72 1 #
ellipse-curve $-1 -1 $-1 -5.5511151231257827e-017 0 -1.1102230246251565e-016 0 -1 0 2.1999999999999997 0 3.8043570030343861e-016 1 I I #
convexity-sys-attrib $-1 -1 $-1 $73 $51 #
point $-1 -1 $-1 2.1999999999999997 0 2.6941339784092296e-016 #
point $-1 -1 $-1 -2.1999999999999997 0 0 #
face $182 -1 $-1 $183 $184 $19 $-1 $185 reversed single #
loop $-1 -1 $-1 $-1 $186 $78 #
plane-surface $-1 -1 $-1 -6.5 0 0 1 0 0 0 0 -1 forward_v I I I I #
coedge $-1 -1 $-1 $187 $130 $188 $189 forward $79 $-1 #
coedge $-1 -1 $-1 $190 $81 $187 $191 forward $53 $-1 #
coedge $-1 -1 $-1 $81 $190 $192 $193 forward $53 $-1 #
coedge $-1 -1 $-1 $133 $132 $81 $126 reversed $134 $-1 #
edge $-1 -1 $-1 $194 -14 $195 14 $125 $196 forward @7 unknown #
coedge $-1 -1 $-1 $83 $82 $197 $198 forward $37 $-1 #
coedge $-1 -1 $-1 $199 $200 $82 $129 reversed $184 $-1 #
edge $-1 -1 $-1 $136 -6.5 $201 6.5 $128 $202 forward @7 unknown #
coedge $-1 -1 $-1 $122 $203 $83 $131 reversed $79 $-1 #
edge $-1 -1 $-1 $204 -6.5 $135 6.5 $130 $205 forward @7 unknown #
coedge $-1 -1 $-1 $125 $84 $203 $206 forward $134 $-1 #
coedge $-1 -1 $-1 $84 $125 $199 $207 reversed $134 $-1 #
loop $-1 -1 $-1 $-1 $132 $183 #
vertex $-1 -1 $-1 $85 $208 #
vertex $-1 -1 $-1 $85 $209 #
straight-curve $-1 -1 $-1 6.5 0 6.5 0 1 0 I I #
face $-1 -1 $-1 $210 $211 $21 $-1 $212 forward single #
loop $-1 -1 $-1 $-1 $213 $86 #
coedge $-1 -1 $-1 $214 $215 $213 $216 forward $87 $-1 #
coedge $-1 -1 $-1 $217 $88 $218 $219 reversed $57 $-1 #
coedge $-1 -1 $-1 $88 $217 $90 $149 forward $57 $-1 #
coedge $-1 -1 $-1 $220 $221 $88 $144 forward $222 $-1 #
edge $-1 -1 $-1 $223 -3.1415926535897931 $224 -1.5707963267948966 $143 $225 forward @7 unknown #
coedge $-1 -1 $-1 $90 $89 $226 $227 reversed $40 $-1 #
coedge $-1 -1 $-1 $215 $214 $228 $147 reversed $87 $-1 #
edge $-1 -1 $-1 $153 -28 $229 0 $228 $230 forward @7 unknown #
coedge $-1 -1 $-1 $231 $232 $233 $149 forward $234 $-1 #
edge $-1 -1 $-1 $154 -28 $224 0 $148 $235 forward @7 unknown #
coedge $-1 -1 $-1 $151 $91 $232 $236 reversed $152 $-1 #
coedge $-1 -1 $-1 $91 $150 $237 $238 forward $152 $-1 #
loop $-1 -1 $-1 $-1 $91 $239 #
vertex $-1 -1 $-1 $240 $241 #
vertex $-1 -1 $-1 $242 $243 #
ellipse-curve $-1 -1 $-1 1.731254494483119e-048 14 2.2204460492503128e-016 0 -1 0 6.5 0 5.7394952505951391e-016 1 I I #
loop $-1 -1 $-1 $244 $245 $93 #
plane-surface $-1 -1 $-1 -0.44148380355276901 -11 -1.3877787807814457e-016 0 1 0 0 0 1 forward_v I I I I #
loop $-1 -1 $-1 $-1 $99 $59 #
coedge $-1 -1 $-1 $159 $159 $97 $161 reversed $94 $-1 #
coedge $-1 -1 $-1 $160 $160 $245 $246 reversed $96 $-1 #
edge $-1 -1 $-1 $247 -3.1415926535897931 $247 3.1415926535897931 $97 $248 forward @7 unknown #
coedge $-1 -1 $-1 $162 $162 $98 $163 forward $244 $-1 #
edge $249 -1 $-1 $250 -3.1415926535897931 $250 3.1415926535897931 $98 $251 forward @7 unknown #
vertex $-1 -1 $-1 $100 $252 #
ellipse-curve $-1 -1 $-1 0 -14 0 0 -1 0 -2.1999999999999997 0 0 1 I I #
model_id-kcp-attrib $-1 -1 $-1 $-1 $102 1 1021518895 1021518895 -871890943 7 #
face $253 -1 $-1 $254 $255 $8 $-1 $256 forward single #
loop $-1 -1 $-1 $-1 $257 $102 #
cone-surface $-1 -1 $-1 0 -11.333333333333332 0 0 -1 0 -0.37499999999999994 0 0 1 I I -0.35112344158839165 0.93632917756904455 0.37499999999999994 forward I I I I #
coedge $-1 -1 $-1 $258 $259 $106 $172 forward $103 $-1 #
coedge $-1 -1 $-1 $106 $106 $260 $261 forward $66 $-1 #
edge $262 -1 $-1 $263 0 $264 3.1415926535897936 $106 $265 forward @7 unknown #
coedge $-1 -1 $-1 $109 $109 $111 $178 forward $105 $-1 #
attrib_edge_convexity-kcp-attrib $-1 -1 $266 $-1 $110 2 #
vertex $-1 -1 $-1 $113 $267 #
vertex $-1 -1 $-1 $112 $268 #
ellipse-curve $-1 -1 $-1 5.5511151231257827e-017 3 4.4408920985006262e-016 0 -1 0 2.1999999999999997 0 -4.4408920985006262e-016 1 I I #
edge $269 -1 $-1 $175 -1.2246063538223773e-016 $176 3.1415926535897936 $173 $270 forward @7 unknown #
straight-curve $-1 -1 $-1 -2.1999999999999997 0 -5.3882679568184591e-016 0 1 0 I I #
straight-curve $-1 -1 $-1 2.1999999999999997 0 2.6941339784092296e-016 0 1 0 I I #
convexity-sys-attrib $-1 -1 $-1 $114 $72 #
model_id-kcp-attrib $-1 -1 $-1 $-1 $119 1 1021518895 1021518895 -871890942 3 #
face $-1 -1 $-1 $-1 $134 $19 $-1 $271 reversed single #
loop $-1 -1 $-1 $-1 $199 $119 #
plane-surface $-1 -1 $-1 0 14 0 0 -1 0 0 0 -1 forward_v I I I I #
coedge $-1 -1 $-1 $272 $197 $200 $273 forward $120 $-1 #
coedge $-1 -1 $-1 $203 $122 $123 $191 reversed $79 $-1 #
coedge $-1 -1 $-1 $197 $272 $122 $189 reversed $120 $-1 #
edge $-1 -1 $-1 $204 -6.5 $274 6.5 $188 $275 forward @7 unknown #
coedge $-1 -1 $-1 $124 $123 $272 $276 forward $53 $-1 #
edge $-1 -1 $-1 $195 -6.5 $274 6.5 $187 $277 forward @7 unknown #
coedge $-1 -1 $-1 $200 $199 $124 $193 reversed $184 $-1 #
edge $-1 -1 $-1 $278 -6.5 $194 6.5 $192 $279 forward @7 unknown #
vertex $-1 -1 $-1 $126 $280 #
vertex $-1 -1 $-1 $206 $281 #
straight-curve $-1 -1 $-1 6.5 0 -6.5 0 -1 0 I I #
coedge $-1 -1 $-1 $186 $188 $127 $198 reversed $120 $-1 #
edge $-1 -1 $-1 $201 -14 $204 14 $197 $282 forward @7 unknown #
coedge $-1 -1 $-1 $192 $128 $133 $207 forward $184 $-1 #
coedge $-1 -1 $-1 $128 $192 $186 $273 reversed $184 $-1 #
vertex $-1 -1 $-1 $129 $283 #
straight-curve $-1 -1 $-1 0 14 6.5 -1 0 0 I I #
coedge $-1 -1 $-1 $130 $187 $132 $206 reversed $79 $-1 #
vertex $-1 -1 $-1 $198 $284 #
straight-curve $-1 -1 $-1 0 -14 6.5 1 0 0 I I #
edge $-1 -1 $-1 $135 -6.5 $195 6.5 $132 $285 forward @7 unknown #
edge $-1 -1 $-1 $136 -6.5 $194 6.5 $133 $286 forward @7 unknown #
point $-1 -1 $-1 6.5 -14 6.5 #
point $-1 -1 $-1 6.5 14 6.5 #
face $-1 -1 $-1 $287 $288 $21 $-1 $289 reversed single #
loop $-1 -1 $-1 $-1 $233 $138 #
plane-surface $-1 -1 $-1 0 0 6.5 0 0 1 1 0 0 forward_v I I I I #
coedge $-1 -1 $-1 $290 $291 $292 $216 reversed $139 $-1 #
coedge $-1 -1 $-1 $146 $140 $293 $294 reversed $87 $-1 #
coedge $-1 -1 $-1 $140 $146 $295 $296 reversed $87 $-1 #
edge $-1 -1 $-1 $297 -28 $298 0 $292 $299 forward @7 unknown #
coedge $-1 -1 $-1 $142 $141 $300 $301 reversed $57 $-1 #
coedge $-1 -1 $-1 $302 $303 $304 $219 forward $305 $-1 #
edge $-1 -1 $-1 $306 -28 $223 0 $218 $307 forward @7 unknown #
coedge $-1 -1 $-1 $221 $143 $308 $309 reversed $222 $-1 #
coedge $-1 -1 $-1 $143 $220 $302 $310 forward $222 $-1 #
loop $-1 -1 $-1 $-1 $143 $311 #
vertex $-1 -1 $-1 $312 $313 #
vertex $-1 -1 $-1 $314 $315 #
ellipse-curve $-1 -1 $-1 1.731254494483119e-048 -14 2.2204460492503128e-016 0 1 0 6.5 0 5.7394952505951391e-016 1 I I #
coedge $-1 -1 $-1 $316 $317 $145 $227 forward $318 $-1 #
edge $-1 -1 $-1 $224 -1.5707963267948966 $229 8.8299926932232907e-017 $226 $225 forward @7 unknown #
coedge $-1 -1 $-1 $319 $320 $321 $147 forward $288 $-1 #
vertex $-1 -1 $-1 $322 $323 #
straight-curve $-1 -1 $-1 6.5 -14 2.2204460492503128e-016 0 -1 0 I I #
coedge $-1 -1 $-1 $324 $148 $317 $314 forward $234 $-1 #
coedge $-1 -1 $-1 $148 $324 $150 $236 forward $234 $-1 #
coedge $-1 -1 $-1 $325 $308 $142 $149 reversed $211 $-1 #
loop $-1 -1 $-1 $-1 $148 $326 #
straight-curve $-1 -1 $-1 1.731254494483119e-048 -14 6.5 0 -1 0 I I #
edge $-1 -1 $-1 $327 -6.5 $154 -1.731254494483119e-048 $150 $328 forward @7 unknown #
coedge $-1 -1 $-1 $329 $321 $151 $238 reversed $330 $-1 #
edge $-1 -1 $-1 $327 -6.5 $153 -2.2204460492503128e-016 $237 $331 forward @7 unknown #
face $-1 -1 $-1 $332 $152 $21 $-1 $333 reversed single #
edge $-1 -1 $-1 $153 -2.2204460492503128e-016 $334 6.5 $320 $331 forward @7 unknown #
point $-1 -1 $-1 6.5 14 2.2204460492503128e-016 #
edge $-1 -1 $-1 $154 -1.731254494483119e-048 $335 6.5 $336 $328 forward @7 unknown #
point $-1 -1 $-1 1.731254494483119e-048 14 6.5 #
loop $-1 -1 $-1 $-1 $162 $93 #
coedge $-1 -1 $-1 $245 $245 $160 $246 forward $156 $-1 #
edge $337 -1 $-1 $338 -3.1415926535897931 $338 3.1415926535897931 $160 $339 forward @7 unknown #
vertex $-1 -1 $-1 $161 $340 #
ellipse-curve $-1 -1 $-1 1.731254494483119e-048 -14 2.2204460492503128e-016 0 1 0 6.5 0 5.7394952505951391e-016 1 I I #
convexity-sys-attrib $-1 -1 $-1 $-1 $163 #
vertex $-1 -1 $-1 $163 $341 #
ellipse-curve $-1 -1 $-1 0 -11 0 0 -1 0 -2.1999999999999997 0 0 1 I I #
point $-1 -1 $-1 -2.1999999999999993 -14 0 #
model_id-kcp-attrib $-1 -1 $-1 $-1 $167 1 1021518895 1021518895 -871890943 8 #
face $342 -1 $-1 $343 $344 $8 $-1 $345 reversed single #
loop $-1 -1 $-1 $-1 $346 $167 #
cone-surface $-1 -1 $-1 0 29.399999999999999 0 0 -1 0 -6.5 0 0 1 I I 0 1 6.5 forward I I I I #
coedge $-1 -1 $-1 $347 $348 $349 $350 forward $168 $-1 #
coedge $-1 -1 $-1 $351 $170 $347 $352 forward $103 $-1 #
coedge $-1 -1 $-1 $170 $351 $348 $353 reversed $103 $-1 #
coedge $-1 -1 $-1 $348 $347 $171 $261 reversed $168 $-1 #
edge $354 -1 $-1 $263 0 $264 3.1415926535897931 $171 $355 forward @7 unknown #
attrib_edge_convexity-kcp-attrib $-1 -1 $356 $-1 $172 1 #
vertex $-1 -1 $-1 $261 $357 #
vertex $-1 -1 $-1 $261 $358 #
ellipse-curve $-1 -1 $-1 -2.2204460492503131e-016 3 -8.8817841970012523e-016 -3.0893162424352186e-016 1 -8.555133722339869e-032 5.7499999999999991 1.7763568394002505e-015 1.5923270731479922e-015 1 I I #
convexity-sys-attrib $-1 -1 $-1 $174 $110 #
point $-1 -1 $-1 2.1999999999999997 3 2.6941339784092296e-016 #
point $-1 -1 $-1 -2.1999999999999997 3 0 #
attrib_edge_convexity-kcp-attrib $-1 -1 $359 $-1 $178 2 #
ellipse-curve $-1 -1 $-1 5.5511151231257827e-017 3 -4.4408920985006262e-016 0 1 0 2.1999999999999997 0 4.4408920985006262e-016 1 I I #
plane-surface $-1 -1 $-1 6.5 0 0 -1 0 0 0 0 1 forward_v I I I I #
coedge $-1 -1 $-1 $188 $186 $190 $276 reversed $120 $-1 #
edge $-1 -1 $-1 $201 -6.5 $278 6.5 $200 $360 forward @7 unknown #
vertex $-1 -1 $-1 $276 $361 #
straight-curve $-1 -1 $-1 -6.5 -14 0 0 0 -1 I I #
edge $-1 -1 $-1 $274 -14 $278 14 $272 $362 forward @7 unknown #
straight-curve $-1 -1 $-1 0 -14 -6.5 -1 0 0 I I #
vertex $-1 -1 $-1 $193 $363 #
straight-curve $-1 -1 $-1 0 14 -6.5 1 0 0 I I #
point $-1 -1 $-1 6.5 14 -6.5 #
point $-1 -1 $-1 6.5 -14 -6.5 #
straight-curve $-1 -1 $-1 -6.5 0 6.5 0 -1 0 I I #
point $-1 -1 $-1 -6.5 14 6.5 #
point $-1 -1 $-1 -6.5 -14 6.5 #
straight-curve $-1 -1 $-1 6.5 -14 0 0 0 -1 I I #
straight-curve $-1 -1 $-1 6.5 14 0 0 0 -1 I I #
face $-1 -1 $-1 $364 $365 $21 $-1 $366 reversed single #
loop $-1 -1 $-1 $-1 $228 $210 #
plane-surface $-1 -1 $-1 6.5 0 0 -1 0 0 0 0 1 forward_v I I I I #
coedge $-1 -1 $-1 $367 $213 $368 $369 reversed $139 $-1 #
coedge $-1 -1 $-1 $213 $367 $370 $371 reversed $139 $-1 #
coedge $-1 -1 $-1 $372 $373 $374 $216 forward $375 $-1 #
coedge $-1 -1 $-1 $376 $377 $214 $294 forward $378 $-1 #
edge $-1 -1 $-1 $229 8.8299926932232907e-017 $298 1.5707963267948968 $293 $225 forward @7 unknown #
coedge $-1 -1 $-1 $379 $380 $215 $296 forward $381 $-1 #
edge $-1 -1 $-1 $297 -1.5707963267948968 $153 -8.8299926932232907e-017 $295 $155 forward @7 unknown #
vertex $-1 -1 $-1 $382 $383 #
vertex $-1 -1 $-1 $384 $385 #
straight-curve $-1 -1 $-1 1.731254494483119e-048 -14 -6.5 0 -1 0 I I #
coedge $-1 -1 $-1 $386 $336 $217 $301 forward $387 $-1 #
edge $-1 -1 $-1 $154 1.5707963267948966 $306 3.1415926535897931 $300 $155 forward @7 unknown #
coedge $-1 -1 $-1 $388 $218 $221 $310 reversed $305 $-1 #
coedge $-1 -1 $-1 $218 $388 $386 $389 forward $305 $-1 #
coedge $-1 -1 $-1 $390 $391 $367 $219 reversed $365 $-1 #
loop $-1 -1 $-1 $-1 $218 $392 #
vertex $-1 -1 $-1 $393 $394 #
straight-curve $-1 -1 $-1 -6.5 -14 2.2204460492503128e-016 0 -1 0 I I #
coedge $-1 -1 $-1 $233 $395 $220 $309 forward $211 $-1 #
edge $-1 -1 $-1 $396 -6.5 $224 1.731254494483119e-048 $220 $397 forward @7 unknown #
edge $-1 -1 $-1 $396 -6.5 $223 -2.2204460492503128e-016 $302 $398 forward @7 unknown #
face $-1 -1 $-1 $399 $222 $21 $-1 $400 reversed single #
edge $-1 -1 $-1 $223 -2.2204460492503128e-016 $401 6.5 $391 $398 forward @7 unknown #
point $-1 -1 $-1 -6.5 -14 2.2204460492503128e-016 #
edge $-1 -1 $-1 $224 1.731254494483119e-048 $402 6.5 $317 $397 forward @7 unknown #
point $-1 -1 $-1 1.731254494483119e-048 -14 6.5 #
coedge $-1 -1 $-1 $317 $226 $403 $404 reversed $318 $-1 #
coedge $-1 -1 $-1 $226 $316 $231 $314 reversed $318 $-1 #
loop $-1 -1 $-1 $-1 $226 $399 #
coedge $-1 -1 $-1 $405 $228 $377 $322 forward $288 $-1 #
coedge $-1 -1 $-1 $228 $405 $379 $240 reversed $288 $-1 #
coedge $-1 -1 $-1 $237 $403 $89 $147 reversed $330 $-1 #
edge $-1 -1 $-1 $229 -2.2204460492503128e-016 $406 6.5 $319 $407 forward @7 unknown #
point $-1 -1 $-1 6.5 -14 2.2204460492503128e-016 #
coedge $-1 -1 $-1 $232 $231 $329 $408 forward $234 $-1 #
coedge $-1 -1 $-1 $395 $233 $336 $242 forward $211 $-1 #
face $-1 -1 $-1 $409 $234 $21 $-1 $212 forward single #
vertex $-1 -1 $-1 $408 $410 #
straight-curve $-1 -1 $-1 0 14 6.5 -1 0 0 I I #
coedge $-1 -1 $-1 $403 $237 $324 $408 reversed $330 $-1 #
loop $-1 -1 $-1 $-1 $321 $411 #
straight-curve $-1 -1 $-1 6.5 14 0 0 0 -1 I I #
face $-1 -1 $-1 $412 $387 $21 $-1 $333 reversed single #
plane-surface $-1 -1 $-1 0 14 0 0 -1 0 0 0 -1 forward_v I I I I #
vertex $-1 -1 $-1 $413 $414 #
vertex $-1 -1 $-1 $242 $415 #
coedge $-1 -1 $-1 $300 $386 $325 $242 reversed $387 $-1 #
convexity-sys-attrib $-1 -1 $-1 $-1 $246 #
vertex $-1 -1 $-1 $246 $416 #
ellipse-curve $-1 -1 $-1 1.731254494483119e-048 -11 2.2204460492503128e-016 0 1 0 6.5 0 5.7394952505951391e-016 1 I I #
point $-1 -1 $-1 -6.5 -14 4.4408920985006262e-016 #
point $-1 -1 $-1 2.1999999999999997 -11 2.6941339784092296e-016 #
model_id-kcp-attrib $-1 -1 $-1 $-1 $254 1 1021518895 1021518895 -871890943 9 #
face $417 -1 $-1 $-1 $418 $8 $-1 $419 forward single #
loop $-1 -1 $-1 $-1 $420 $254 #
plane-surface $-1 -1 $-1 0 28 0 0 -1 0 -1 0 0 forward_v I I I I #
coedge $-1 -1 $-1 $421 $422 $420 $423 forward $255 $-1 #
coedge $-1 -1 $-1 $260 $257 $258 $352 reversed $168 $-1 #
coedge $-1 -1 $-1 $257 $260 $259 $353 forward $168 $-1 #
coedge $-1 -1 $-1 $422 $421 $257 $350 reversed $255 $-1 #
edge $-1 -1 $-1 $424 1.8671264028899693e-032 $425 3.1415926535897931 $257 $426 forward @7 unknown #
coedge $-1 -1 $-1 $259 $258 $427 $428 reversed $103 $-1 #
edge $-1 -1 $-1 $264 -1.2111018778805772e-031 $425 2.1360009363293817 $347 $429 forward @7 unknown #
edge $-1 -1 $-1 $263 0 $424 2.1360009363293808 $348 $430 forward @7 unknown #
attrib_edge_convexity-kcp-attrib $-1 -1 $431 $-1 $261 1 #
ellipse-curve $-1 -1 $-1 0 3 0 3.0893162424352186e-016 -1 3.7831962994528404e-032 5.7499999999999991 1.7763568394002505e-015 7.0414865344786692e-016 1 I I #
convexity-sys-attrib $-1 -1 $-1 $262 $172 #
point $-1 -1 $-1 5.7499999999999991 3.0000000000000018 7.0414865344786692e-016 #
point $-1 -1 $-1 -5.7499999999999991 3.0000000000000018 0 #
convexity-sys-attrib $-1 -1 $-1 $269 $178 #
straight-curve $-1 -1 $-1 -6.5 14 0 0 0 -1 I I #
point $-1 -1 $-1 -6.5 -14 -6.5 #
straight-curve $-1 -1 $-1 -6.5 0 -6.5 0 1 0 I I #
point $-1 -1 $-1 -6.5 14 -6.5 #
face $-1 -1 $-1 $311 $432 $21 $-1 $400 reversed single #
loop $-1 -1 $-1 $-1 $304 $287 #
plane-surface $-1 -1 $-1 -6.5 0 0 1 0 0 0 0 -1 forward_v I I I I #
coedge $-1 -1 $-1 $291 $290 $141 $219 forward $139 $-1 #
coedge $-1 -1 $-1 $433 $434 $290 $369 forward $435 $-1 #
edge $-1 -1 $-1 $306 -3.1415926535897931 $297 -1.5707963267948968 $368 $155 forward @7 unknown #
coedge $-1 -1 $-1 $436 $437 $291 $371 forward $432 $-1 #
edge $-1 -1 $-1 $298 1.5707963267948968 $223 3.1415926535897931 $370 $225 forward @7 unknown #
coedge $-1 -1 $-1 $438 $292 $437 $384 forward $375 $-1 #
coedge $-1 -1 $-1 $292 $438 $433 $439 forward $375 $-1 #
coedge $-1 -1 $-1 $440 $441 $140 $216 reversed $442 $-1 #
loop $-1 -1 $-1 $-1 $292 $409 #
coedge $-1 -1 $-1 $377 $293 $441 $443 reversed $378 $-1 #
coedge $-1 -1 $-1 $293 $376 $319 $322 reversed $378 $-1 #
loop $-1 -1 $-1 $-1 $293 $444 #
coedge $-1 -1 $-1 $380 $295 $320 $240 forward $381 $-1 #
coedge $-1 -1 $-1 $295 $379 $440 $382 reversed $381 $-1 #
loop $-1 -1 $-1 $-1 $295 $445 #
edge $-1 -1 $-1 $297 1.731254494483119e-048 $334 6.5 $380 $446 forward @7 unknown #
point $-1 -1 $-1 1.731254494483119e-048 14 -6.5 #
edge $-1 -1 $-1 $298 -1.731254494483119e-048 $401 6.5 $437 $447 forward @7 unknown #
point $-1 -1 $-1 1.731254494483119e-048 -14 -6.5 #
coedge $-1 -1 $-1 $336 $300 $303 $389 reversed $387 $-1 #
loop $-1 -1 $-1 $-1 $300 $332 #
coedge $-1 -1 $-1 $303 $302 $395 $448 reversed $305 $-1 #
edge $-1 -1 $-1 $335 -6.5 $306 -2.2204460492503128e-016 $386 $449 forward @7 unknown #
coedge $-1 -1 $-1 $450 $304 $434 $393 forward $365 $-1 #
coedge $-1 -1 $-1 $304 $450 $436 $312 reversed $365 $-1 #
face $-1 -1 $-1 $411 $305 $21 $-1 $366 reversed single #
edge $-1 -1 $-1 $306 -2.2204460492503128e-016 $451 6.5 $434 $449 forward @7 unknown #
point $-1 -1 $-1 -6.5 14 2.2204460492503128e-016 #
coedge $-1 -1 $-1 $308 $325 $388 $448 forward $211 $-1 #
vertex $-1 -1 $-1 $448 $452 #
straight-curve $-1 -1 $-1 0 -14 6.5 1 0 0 I I #
straight-curve $-1 -1 $-1 -6.5 -14 0 0 0 -1 I I #
face $-1 -1 $-1 $444 $318 $21 $-1 $400 reversed single #
plane-surface $-1 -1 $-1 0 -14 0 0 1 0 0 0 1 forward_v I I I I #
vertex $-1 -1 $-1 $453 $454 #
vertex $-1 -1 $-1 $408 $455 #
coedge $-1 -1 $-1 $321 $329 $316 $404 forward $330 $-1 #
edge $-1 -1 $-1 $402 -6.5 $229 -2.2204460492503128e-016 $403 $407 forward @7 unknown #
coedge $-1 -1 $-1 $320 $319 $456 $413 reversed $288 $-1 #
vertex $-1 -1 $-1 $322 $457 #
straight-curve $-1 -1 $-1 6.5 -14 0 0 0 -1 I I #
edge $-1 -1 $-1 $402 -14 $327 14 $329 $458 forward @7 unknown #
face $-1 -1 $-1 $392 $375 $21 $-1 $459 reversed single #
point $-1 -1 $-1 6.5 14 6.5 #
face $-1 -1 $-1 $-1 $330 $21 $-1 $289 reversed single #
face $-1 -1 $-1 $460 $435 $21 $-1 $333 reversed single #
edge $-1 -1 $-1 $334 -14 $406 14 $405 $461 forward @7 unknown #
point $-1 -1 $-1 6.5 14 -6.5 #
point $-1 -1 $-1 -6.5 14 6.5 #
point $-1 -1 $-1 -6.5 -11 4.4408920985006262e-016 #
model_id-kcp-attrib $-1 -1 $-1 $-1 $343 1 1021518895 1021518895 -871890943 10 #
loop $-1 -1 $-1 $-1 $427 $343 #
cone-surface $-1 -1 $-1 0 29.399999999999999 0 0 -1 0 -6.5 0 0 1 I I 0 1 6.5 forward I I I I #
coedge $-1 -1 $-1 $462 $462 $346 $423 reversed $344 $-1 #
coedge $-1 -1 $-1 $349 $346 $463 $464 reversed $255 $-1 #
coedge $-1 -1 $-1 $346 $349 $465 $466 forward $255 $-1 #
edge $-1 -1 $-1 $467 1.2246063538223773e-016 $468 3.1415926535897931 $346 $469 forward @7 unknown #
vertex $-1 -1 $-1 $353 $470 #
vertex $-1 -1 $-1 $352 $471 #
ellipse-curve $-1 -1 $-1 2.2204460492503131e-016 5 0 0 -1 0 6.5 0 7.9599412998454522e-016 1 I I #
coedge $-1 -1 $-1 $463 $465 $351 $428 forward $418 $-1 #
edge $-1 -1 $-1 $424 -3.7342528057799385e-032 $425 3.1415926535897931 $351 $472 forward @7 unknown #
straight-curve $-1 -1 $-1 -5.7499999999999991 3.0000000000000018 -1.4082973068957338e-015 -0.35112344158839159 0.93632917756904455 -8.5997599509024946e-017 I I #
straight-curve $-1 -1 $-1 5.7499999999999991 3.0000000000000018 7.0414865344786692e-016 0.35112344158839159 0.93632917756904455 4.2998799754512473e-017 I I #
convexity-sys-attrib $-1 -1 $-1 $354 $261 #
loop $-1 -1 $-1 $-1 $370 $364 #
coedge $-1 -1 $-1 $434 $368 $373 $439 reversed $435 $-1 #
coedge $-1 -1 $-1 $368 $433 $390 $393 reversed $435 $-1 #
loop $-1 -1 $-1 $-1 $368 $412 #
coedge $-1 -1 $-1 $437 $370 $391 $312 forward $432 $-1 #
coedge $-1 -1 $-1 $370 $436 $372 $384 reversed $432 $-1 #
coedge $-1 -1 $-1 $373 $372 $450 $453 forward $375 $-1 #
edge $-1 -1 $-1 $451 -6.5 $297 1.731254494483119e-048 $433 $446 forward @7 unknown #
coedge $-1 -1 $-1 $456 $374 $380 $382 forward $442 $-1 #
coedge $-1 -1 $-1 $374 $456 $376 $443 forward $442 $-1 #
loop $-1 -1 $-1 $-1 $374 $460 #
edge $-1 -1 $-1 $406 -6.5 $298 -1.731254494483119e-048 $376 $447 forward @7 unknown #
face $-1 -1 $-1 $445 $378 $21 $-1 $400 reversed single #
face $-1 -1 $-1 $239 $381 $21 $-1 $333 reversed single #
straight-curve $-1 -1 $-1 0 14 -6.5 1 0 0 I I #
straight-curve $-1 -1 $-1 0 -14 -6.5 -1 0 0 I I #
edge $-1 -1 $-1 $335 -14 $396 14 $388 $473 forward @7 unknown #
straight-curve $-1 -1 $-1 -6.5 14 0 0 0 -1 I I #
coedge $-1 -1 $-1 $391 $390 $438 $453 reversed $365 $-1 #
vertex $-1 -1 $-1 $439 $474 #
point $-1 -1 $-1 -6.5 -14 6.5 #
edge $-1 -1 $-1 $401 -14 $451 14 $450 $475 forward @7 unknown #
point $-1 -1 $-1 -6.5 -14 -6.5 #
point $-1 -1 $-1 6.5 -14 6.5 #
coedge $-1 -1 $-1 $441 $440 $405 $413 forward $442 $-1 #
point $-1 -1 $-1 6.5 -14 -6.5 #
straight-curve $-1 -1 $-1 6.5 0 6.5 0 1 0 I I #
plane-surface $-1 -1 $-1 0 0 -6.5 0 0 1 1 0 0 forward_v I I I I #
face $-1 -1 $-1 $326 $442 $21 $-1 $459 reversed single #
straight-curve $-1 -1 $-1 6.5 0 -6.5 0 -1 0 I I #
coedge $-1 -1 $-1 $420 $420 $476 $477 forward $344 $-1 #
coedge $-1 -1 $-1 $476 $427 $421 $464 forward $418 $-1 #
edge $-1 -1 $-1 $425 0 $468 23 $421 $478 forward @7 unknown #
coedge $-1 -1 $-1 $427 $476 $422 $466 reversed $418 $-1 #
edge $-1 -1 $-1 $424 0 $467 23 $422 $479 forward @7 unknown #
vertex $-1 -1 $-1 $466 $480 #
vertex $-1 -1 $-1 $464 $481 #
ellipse-curve $-1 -1 $-1 2.2204460492503131e-016 28 -2.2204460492503131e-016 0 -1 0 6.5 0 2.2204460492503131e-016 1 I I #
point $-1 -1 $-1 6.4999999999999982 5 7.9599412998454512e-016 #
point $-1 -1 $-1 -6.5 5 -1.5919882599690904e-015 #
ellipse-curve $-1 -1 $-1 -4.4408920985006262e-016 5 -2.2204460492503131e-016 0 1 0 6.5 0 1.0180387349095765e-015 1 I I #
straight-curve $-1 -1 $-1 -6.5 0 6.5 0 -1 0 I I #
point $-1 -1 $-1 -6.5 14 -6.5 #
straight-curve $-1 -1 $-1 -6.5 0 -6.5 0 1 0 I I #
coedge $-1 -1 $-1 $465 $463 $462 $477 reversed $418 $-1 #
edge $-1 -1 $-1 $467 -1.2246063538223773e-016 $468 3.1415926535897931 $462 $482 forward @7 unknown #
straight-curve $-1 -1 $-1 -6.5 5 -1.5919882599690904e-015 0 1 0 I I #
straight-curve $-1 -1 $-1 6.5 5 7.9599412998454522e-016 0 1 0 I I #
point $-1 -1 $-1 6.5 28 7.9599412998454522e-016 #
point $-1 -1 $-1 -6.5 28 0 #
ellipse-curve $-1 -1 $-1 2.2204460492503131e-016 28 2.2204460492503131e-016 0 1 0 6.5 0 -2.2204460492503131e-016 1 I I #
End-of-ACIS-data 