  0
SECTION
  2
HEADER
  9
$ACADVER
  1
AC1009
  9
$INSBASE
 10
0.0
 20
0.0
 30
0.0
  9
$EXTMIN
 10
0.0
 20
0.0
 30
0.0
  9
$EXTMAX
 10
4.0
 20
4.0
 30
6.0
  9
$LIMMIN
 10
0.0
 20
0.0
  9
$LIMMAX
 10
12.0
 20
9.0
  9
$ORTHOMODE
 70
     0
  9
$REGENMODE
 70
     1
  9
$FILLMODE
 70
     1
  9
$QTEXTMODE
 70
     0
  9
$MIRRTEXT
 70
     1
  9
$DRAGMODE
 70
     2
  9
$LTSCALE
 40
1.0
  9
$OSMODE
 70
     0
  9
$ATTMODE
 70
     1
  9
$TEXTSIZE
 40
0.2
  9
$TRACEWID
 40
0.05
  9
$TEXTSTYLE
  7
STANDARD
  9
$CLAYER
  8
0
  9
$CELTYPE
  6
BYLAYER
  9
$CECOLOR
 62
   256
  9
$DIMSCALE
 40
1.0
  9
$DIMASZ
 40
0.18
  9
$DIMEXO
 40
0.0625
  9
$DIMDLI
 40
0.38
  9
$DIMRND
 40
0.0
  9
$DIMDLE
 40
0.0
  9
$DIMEXE
 40
0.18
  9
$DIMTP
 40
0.0
  9
$DIMTM
 40
0.0
  9
$DIMTXT
 40
0.18
  9
$DIMCEN
 40
0.09
  9
$DIMTSZ
 40
0.0
  9
$DIMTOL
 70
     0
  9
$DIMLIM
 70
     0
  9
$DIMTIH
 70
     1
  9
$DIMTOH
 70
     1
  9
$DIMSE1
 70
     0
  9
$DIMSE2
 70
     0
  9
$DIMTAD
 70
     0
  9
$DIMZIN
 70
     0
  9
$DIMBLK
  1

  9
$DIMASO
 70
     1
  9
$DIMSHO
 70
     1
  9
$DIMPOST
  1

  9
$DIMAPOST
  1

  9
$DIMALT
 70
     0
  9
$DIMALTD
 70
     2
  9
$DIMALTF
 40
25.4
  9
$DIMLFAC
 40
1.0
  9
$DIMTOFL
 70
     0
  9
$DIMTVP
 40
0.0
  9
$DIMTIX
 70
     0
  9
$DIMSOXD
 70
     0
  9
$DIMSAH
 70
     0
  9
$DIMBLK1
  1

  9
$DIMBLK2
  1

  9
$DIMSTYLE
  2
*UNNAMED
  9
$DIMCLRD
 70
     0
  9
$DIMCLRE
 70
     0
  9
$DIMCLRT
 70
     0
  9
$DIMTFAC
 40
1.0
  9
$DIMGAP
 40
0.09
  9
$LUNITS
 70
     2
  9
$LUPREC
 70
     4
  9
$SKETCHINC
 40
0.1
  9
$FILLETRAD
 40
0.0
  9
$AUNITS
 70
     0
  9
$AUPREC
 70
     0
  9
$MENU
  1
acad
  9
$ELEVATION
 40
0.0
  9
$PELEVATION
 40
0.0
  9
$THICKNESS
 40
0.0
  9
$LIMCHECK
 70
     0
  9
$BLIPMODE
 70
     1
  9
$CHAMFERA
 40
0.0
  9
$CHAMFERB
 40
0.0
  9
$SKPOLY
 70
     0
  9
$TDCREATE
 40
2449373.550470416
  9
$TDUPDATE
 40
2449373.555236817
  9
$TDINDWG
 40
0.0047664005
  9
$TDUSRTIMER
 40
0.0047664005
  9
$USRTIMER
 70
     1
  9
$ANGBASE
 50
0.0
  9
$ANGDIR
 70
     0
  9
$PDMODE
 70
     0
  9
$PDSIZE
 40
0.0
  9
$PLINEWID
 40
0.0
  9
$COORDS
 70
     1
  9
$SPLFRAME
 70
     0
  9
$SPLINETYPE
 70
     6
  9
$SPLINESEGS
 70
     8
  9
$ATTDIA
 70
     0
  9
$ATTREQ
 70
     1
  9
$HANDLING
 70
     1
  9
$HANDSEED
  5
F5
  9
$SURFTAB1
 70
     6
  9
$SURFTAB2
 70
     6
  9
$SURFTYPE
 70
     6
  9
$SURFU
 70
     6
  9
$SURFV
 70
     6
  9
$UCSNAME
  2

  9
$UCSORG
 10
0.0
 20
0.0
 30
0.0
  9
$UCSXDIR
 10
1.0
 20
0.0
 30
0.0
  9
$UCSYDIR
 10
0.0
 20
1.0
 30
0.0
  9
$PUCSNAME
  2

  9
$PUCSORG
 10
0.0
 20
0.0
 30
0.0
  9
$PUCSXDIR
 10
1.0
 20
0.0
 30
0.0
  9
$PUCSYDIR
 10
0.0
 20
1.0
 30
0.0
  9
$USERI1
 70
     0
  9
$USERI2
 70
     0
  9
$USERI3
 70
     0
  9
$USERI4
 70
     0
  9
$USERI5
 70
     0
  9
$USERR1
 40
0.0
  9
$USERR2
 40
0.0
  9
$USERR3
 40
0.0
  9
$USERR4
 40
0.0
  9
$USERR5
 40
0.0
  9
$WORLDVIEW
 70
     1
  9
$SHADEDGE
 70
     3
  9
$SHADEDIF
 70
    70
  9
$TILEMODE
 70
     1
  9
$MAXACTVP
 70
    16
  9
$PINSBASE
 10
0.0
 20
0.0
 30
0.0
  9
$PLIMCHECK
 70
     0
  9
$PEXTMIN
 10
1.000000E+20
 20
1.000000E+20
 30
1.000000E+20
  9
$PEXTMAX
 10
-1.000000E+20
 20
-1.000000E+20
 30
-1.000000E+20
  9
$PLIMMIN
 10
0.0
 20
0.0
  9
$PLIMMAX
 10
12.0
 20
9.0
  9
$UNITMODE
 70
     0
  9
$VISRETAIN
 70
     0
  9
$PLINEGEN
 70
     0
  9
$PSLTSCALE
 70
     1
  9
$TREEDEPTH
 70
  3020
  9
$DWGCODEPAGE
  3
ascii
  0
ENDSEC
  0
SECTION
  2
TABLES
  0
TABLE
  2
VPORT
 70
     2
  0
VPORT
  2
*ACTIVE
 70
     0
 10
0.0
 20
0.0
 11
1.0
 21
1.0
 12
2.537164
 22
1.643168
 13
0.0
 23
0.0
 14
1.0
 24
1.0
 15
0.0
 25
0.0
 16
1.0
 26
2.0
 36
1.0
 17
0.0
 27
0.0
 37
0.0
 40
7.668116
 41
1.594883
 42
50.0
 43
0.0
 44
0.0
 50
0.0
 51
0.0
 71
     0
 72
   100
 73
     1
 74
     1
 75
     0
 76
     0
 77
     0
 78
     0
  0
ENDTAB
  0
TABLE
  2
LTYPE
 70
     1
  0
LTYPE
  2
CONTINUOUS
 70
    64
  3
Solid line
 72
    65
 73
     0
 40
0.0
  0
ENDTAB
  0
TABLE
  2
LAYER
 70
     2
  0
LAYER
  2
0
 70
    64
 62
     7
  6
CONTINUOUS
  0
LAYER
  2
AME_FRZ
 70
    65
 62
     7
  6
CONTINUOUS
  0
ENDTAB
  0
TABLE
  2
STYLE
 70
     1
  0
STYLE
  2
STANDARD
 70
     0
 40
0.0
 41
1.0
 50
0.0
 71
     0
 42
0.2
  3
txt
  4

  0
ENDTAB
  0
TABLE
  2
VIEW
 70
     0
  0
ENDTAB
  0
TABLE
  2
UCS
 70
     0
  0
ENDTAB
  0
TABLE
  2
APPID
 70
     3
  0
APPID
  2
ACAD
 70
    64
  0
APPID
  2
AME_SOL
 70
    64
  0
APPID
  2
AVE_INVOKE
 70
    64
  0
ENDTAB
  0
TABLE
  2
DIMSTYLE
 70
     0
  0
ENDTAB
  0
ENDSEC
  0
SECTION
  2
BLOCKS
  0
BLOCK
  8
0
  5
1
  2
AME_NIL
 70
    64
 10
0.0
 20
0.0
 30
0.0
  1
AME_NIL
  3
AME_NIL
  0
ENDBLK
  8
0
  5
2
  0
BLOCK
  8
0
  5
4
  2
AME_SOL
 70
    64
 10
0.0
 20
0.0
 30
0.0
  1
AME_SOL
  3
AME_SOL
  0
ENDBLK
  8
0
  5
5
  0
BLOCK
  8
0
  5
25
  2
*U4
 70
    65
 10
0.0
 20
0.0
 30
0.0
  1
*U
  3
*U
  0
LINE
  8
0
 62
     7
  5
26
 10
4.0
 20
4.0
 30
0.0
 11
4.0
 21
4.0
 31
6.0
1001
AME_SOL
1070
     1
1071
       23
  0
LINE
  8
0
 62
     7
  5
27
 10
4.0
 20
4.0
 30
6.0
 11
4.0
 21
0.0
 31
6.0
1001
AME_SOL
1070
     1
1071
       22
  0
LINE
  8
0
 62
     7
  5
28
 10
0.0
 20
4.0
 30
6.0
 11
4.0
 21
4.0
 31
6.0
1001
AME_SOL
1070
     1
1071
       21
  0
LINE
  8
0
 62
     7
  5
29
 10
0.0
 20
4.0
 30
0.0
 11
0.0
 21
4.0
 31
6.0
1001
AME_SOL
1070
     1
1071
       20
  0
LINE
  8
0
 62
     7
  5
2A
 10
0.0
 20
4.0
 30
6.0
 11
0.0
 21
0.0
 31
6.0
1001
AME_SOL
1070
     1
1071
       19
  0
LINE
  8
0
 62
     7
  5
2B
 10
0.0
 20
0.0
 30
0.0
 11
0.0
 21
0.0
 31
6.0
1001
AME_SOL
1070
     1
1071
       18
  0
LINE
  8
0
 62
     7
  5
2C
 10
4.0
 20
0.0
 30
6.0
 11
4.0
 21
0.0
 31
0.0
1001
AME_SOL
1070
     1
1071
       17
  0
LINE
  8
0
 62
     7
  5
2D
 10
0.0
 20
0.0
 30
6.0
 11
4.0
 21
0.0
 31
6.0
1001
AME_SOL
1070
     1
1071
       16
  0
LINE
  8
0
 62
     7
  5
2E
 10
0.0
 20
0.0
 30
0.0
 11
4.0
 21
0.0
 31
0.0
1001
AME_SOL
1070
     1
1071
       15
  0
LINE
  8
0
 62
     7
  5
2F
 10
0.0
 20
4.0
 30
0.0
 11
0.0
 21
0.0
 31
0.0
1001
AME_SOL
1070
     1
1071
       14
  0
LINE
  8
0
 62
     7
  5
30
 10
4.0
 20
0.0
 30
0.0
 11
4.0
 21
4.0
 31
0.0
1001
AME_SOL
1070
     1
1071
       13
  0
LINE
  8
0
 62
     7
  5
31
 10
4.0
 20
4.0
 30
0.0
 11
0.0
 21
4.0
 31
0.0
1001
AME_SOL
1070
     1
1071
       12
  0
CIRCLE
  8
0
 62
     7
  5
32
 10
2.0
 20
2.0
 30
2.0
 40
1.0
1001
AME_SOL
1070
     1
1071
       11
  0
CIRCLE
  8
0
 62
     7
  5
33
 10
2.0
 20
2.0
 30
4.0
 40
1.0
1001
AME_SOL
1070
     1
1071
       10
  0
LINE
  8
0
 62
     7
  5
34
 10
2.0
 20
3.0
 30
2.0
 11
2.0
 21
3.0
 31
4.0
1001
AME_SOL
1070
     0
1071
        1
  0
LINE
  8
0
 62
     7
  5
35
 10
3.0
 20
2.0
 30
2.0
 11
3.0
 21
2.0
 31
4.0
1001
AME_SOL
1070
     0
1071
        1
  0
LINE
  8
0
 62
     7
  5
36
 10
2.0
 20
1.0
 30
2.0
 11
2.0
 21
1.0
 31
4.0
1001
AME_SOL
1070
     0
1071
        1
  0
LINE
  8
0
 62
     7
  5
37
 10
1.0
 20
2.0
 30
2.0
 11
1.0
 21
2.0
 31
4.0
1001
AME_SOL
1070
     0
1071
        1
  0
ENDBLK
  8
0
  5
38
  0
BLOCK
  8
0
  5
3C
  2
AME_JNK
 70
     0
 10
0.0
 20
0.0
 30
0.0
  1
AME_JNK
  3
AME_JNK
  0
ENDBLK
  8
0
  5
3D
  0
BLOCK
  8
0
  5
40
  2
*U6
 70
    65
 10
0.0
 20
0.0
 30
0.0
  1
*U
  3
*U
  0
POLYLINE
  8
0
 62
     7
  5
41
 66
     1
 10
0.0
 20
0.0
 30
0.0
 70
    64
  0
VERTEX
  8
0
  5
42
 10
4.0
 20
4.0
 30
6.0
 70
   192
  0
VERTEX
  8
0
  5
43
 10
4.0
 20
0.0
 30
6.0
 70
   192
  0
VERTEX
  8
0
  5
44
 10
4.0
 20
4.0
 30
0.0
 70
   192
  0
VERTEX
  8
0
  5
45
 10
4.0
 20
0.0
 30
0.0
 70
   192
  0
VERTEX
  8
0
 62
     7
  5
46
 10
0.0
 20
0.0
 30
0.0
 70
   128
 71
     1
 72
    -2
 73
     3
  0
VERTEX
  8
0
 62
     7
  5
47
 10
0.0
 20
0.0
 30
0.0
 70
   128
 71
     2
 72
     4
 73
    -3
  0
SEQEND
  8
0
 62
     7
  5
48
  0
POLYLINE
  8
0
 62
     7
  5
49
 66
     1
 10
0.0
 20
0.0
 30
0.0
 70
    64
  0
VERTEX
  8
0
  5
4A
 10
0.0
 20
4.0
 30
6.0
 70
   192
  0
VERTEX
  8
0
  5
4B
 10
4.0
 20
4.0
 30
0.0
 70
   192
  0
VERTEX
  8
0
  5
4C
 10
0.0
 20
4.0
 30
0.0
 70
   192
  0
VERTEX
  8
0
  5
4D
 10
4.0
 20
4.0
 30
6.0
 70
   192
  0
VERTEX
  8
0
 62
     7
  5
4E
 10
0.0
 20
0.0
 30
0.0
 70
   128
 71
    -1
 72
     2
 73
     3
  0
VERTEX
  8
0
 62
     7
  5
4F
 10
0.0
 20
0.0
 30
0.0
 70
   128
 71
     1
 72
     4
 73
    -2
  0
SEQEND
  8
0
 62
     7
  5
50
  0
POLYLINE
  8
0
 62
     7
  5
51
 66
     1
 10
0.0
 20
0.0
 30
0.0
 70
    64
  0
VERTEX
  8
0
  5
52
 10
4.0
 20
4.0
 30
6.0
 70
   192
  0
VERTEX
  8
0
  5
53
 10
0.0
 20
4.0
 30
6.0
 70
   192
  0
VERTEX
  8
0
  5
54
 10
0.0
 20
0.0
 30
6.0
 70
   192
  0
VERTEX
  8
0
  5
55
 10
4.0
 20
0.0
 30
6.0
 70
   192
  0
VERTEX
  8
0
 62
     7
  5
56
 10
0.0
 20
0.0
 30
0.0
 70
   128
 71
     1
 72
     2
 73
    -3
  0
VERTEX
  8
0
 62
     7
  5
57
 10
0.0
 20
0.0
 30
0.0
 70
   128
 71
     3
 72
     4
 73
    -1
  0
SEQEND
  8
0
 62
     7
  5
58
  0
POLYLINE
  8
0
 62
     7
  5
59
 66
     1
 10
0.0
 20
0.0
 30
0.0
 70
    64
  0
VERTEX
  8
0
  5
5A
 10
0.0
 20
0.0
 30
0.0
 70
   192
  0
VERTEX
  8
0
  5
5B
 10
0.0
 20
0.0
 30
6.0
 70
   192
  0
VERTEX
  8
0
  5
5C
 10
0.0
 20
4.0
 30
6.0
 70
   192
  0
VERTEX
  8
0
  5
5D
 10
0.0
 20
4.0
 30
0.0
 70
   192
  0
VERTEX
  8
0
 62
     7
  5
5E
 10
0.0
 20
0.0
 30
0.0
 70
   128
 71
     1
 72
     2
 73
    -3
  0
VERTEX
  8
0
 62
     7
  5
5F
 10
0.0
 20
0.0
 30
0.0
 70
   128
 71
     3
 72
     4
 73
    -1
  0
SEQEND
  8
0
 62
     7
  5
60
  0
POLYLINE
  8
0
 62
     7
  5
61
 66
     1
 10
0.0
 20
0.0
 30
0.0
 70
    64
  0
VERTEX
  8
0
  5
62
 10
0.0
 20
0.0
 30
6.0
 70
   192
  0
VERTEX
  8
0
  5
63
 10
0.0
 20
0.0
 30
0.0
 70
   192
  0
VERTEX
  8
0
  5
64
 10
4.0
 20
0.0
 30
6.0
 70
   192
  0
VERTEX
  8
0
  5
65
 10
4.0
 20
0.0
 30
0.0
 70
   192
  0
VERTEX
  8
0
 62
     7
  5
66
 10
0.0
 20
0.0
 30
0.0
 70
   128
 71
     1
 72
    -2
 73
     3
  0
VERTEX
  8
0
 62
     7
  5
67
 10
0.0
 20
0.0
 30
0.0
 70
   128
 71
     2
 72
     4
 73
    -3
  0
SEQEND
  8
0
 62
     7
  5
68
  0
POLYLINE
  8
0
 62
     7
  5
69
 66
     1
 10
0.0
 20
0.0
 30
0.0
 70
    64
  0
VERTEX
  8
0
  5
6A
 10
4.0
 20
0.0
 30
0.0
 70
   192
  0
VERTEX
  8
0
  5
6B
 10
0.0
 20
4.0
 30
0.0
 70
   192
  0
VERTEX
  8
0
  5
6C
 10
4.0
 20
4.0
 30
0.0
 70
   192
  0
VERTEX
  8
0
  5
6D
 10
0.0
 20
0.0
 30
0.0
 70
   192
  0
VERTEX
  8
0
 62
     7
  5
6E
 10
0.0
 20
0.0
 30
0.0
 70
   128
 71
    -1
 72
     2
 73
     3
  0
VERTEX
  8
0
 62
     7
  5
6F
 10
0.0
 20
0.0
 30
0.0
 70
   128
 71
     1
 72
     4
 73
    -2
  0
SEQEND
  8
0
 62
     7
  5
70
  0
POLYLINE
  8
0
 62
     7
  5
71
 66
     1
 10
0.0
 20
0.0
 30
0.0
 70
    64
  0
VERTEX
  8
0
  5
72
 10
2.707107
 20
1.292893
 30
4.0
 70
   192
  0
VERTEX
  8
0
  5
73
 10
2.707107
 20
2.707107
 30
4.0
 70
   192
  0
VERTEX
  8
0
  5
74
 10
1.292893
 20
2.707107
 30
4.0
 70
   192
  0
VERTEX
  8
0
  5
75
 10
1.292893
 20
1.292893
 30
4.0
 70
   192
  0
VERTEX
  8
0
  5
76
 10
2.0
 20
3.0
 30
4.0
 70
   192
  0
VERTEX
  8
0
  5
77
 10
3.0
 20
2.0
 30
4.0
 70
   192
  0
VERTEX
  8
0
  5
78
 10
2.0
 20
1.0
 30
4.0
 70
   192
  0
VERTEX
  8
0
  5
79
 10
1.0
 20
2.0
 30
4.0
 70
   192
  0
VERTEX
  8
0
  5
7A
 10
1.07612
 20
2.382683
 30
4.0
 70
   192
  0
VERTEX
  8
0
  5
7B
 10
1.617317
 20
2.92388
 30
4.0
 70
   192
  0
VERTEX
  8
0
  5
7C
 10
2.382683
 20
2.92388
 30
4.0
 70
   192
  0
VERTEX
  8
0
  5
7D
 10
2.92388
 20
2.382683
 30
4.0
 70
   192
  0
VERTEX
  8
0
  5
7E
 10
2.92388
 20
1.617317
 30
4.0
 70
   192
  0
VERTEX
  8
0
  5
7F
 10
2.382683
 20
1.07612
 30
4.0
 70
   192
  0
VERTEX
  8
0
  5
80
 10
1.617317
 20
1.07612
 30
4.0
 70
   192
  0
VERTEX
  8
0
  5
81
 10
1.07612
 20
1.617317
 30
4.0
 70
   192
  0
VERTEX
  8
0
 62
     7
  5
82
 10
0.0
 20
0.0
 30
0.0
 70
   128
 71
    -1
 72
    -3
 73
    -2
  0
VERTEX
  8
0
 62
     7
  5
83
 10
0.0
 20
0.0
 30
0.0
 70
   128
 71
    -3
 72
    -1
 73
    -4
  0
VERTEX
  8
0
 62
     7
  5
84
 10
0.0
 20
0.0
 30
0.0
 70
   128
 71
    -2
 72
    -3
 73
    -5
  0
VERTEX
  8
0
 62
     7
  5
85
 10
0.0
 20
0.0
 30
0.0
 70
   128
 71
    -1
 72
    -2
 73
    -6
  0
VERTEX
  8
0
 62
     7
  5
86
 10
0.0
 20
0.0
 30
0.0
 70
   128
 71
    -4
 72
    -1
 73
    -7
  0
VERTEX
  8
0
 62
     7
  5
87
 10
0.0
 20
0.0
 30
0.0
 70
   128
 71
    -3
 72
    -4
 73
    -8
  0
VERTEX
  8
0
 62
     7
  5
88
 10
0.0
 20
0.0
 30
0.0
 70
   128
 71
    -3
 72
     8
 73
     9
  0
VERTEX
  8
0
 62
     7
  5
89
 10
0.0
 20
0.0
 30
0.0
 70
   128
 71
    -5
 72
     3
 73
    10
  0
VERTEX
  8
0
 62
     7
  5
8A
 10
0.0
 20
0.0
 30
0.0
 70
   128
 71
    -2
 72
     5
 73
    11
  0
VERTEX
  8
0
 62
     7
  5
8B
 10
0.0
 20
0.0
 30
0.0
 70
   128
 71
    -6
 72
     2
 73
    12
  0
VERTEX
  8
0
 62
     7
  5
8C
 10
0.0
 20
0.0
 30
0.0
 70
   128
 71
    -1
 72
     6
 73
    13
  0
VERTEX
  8
0
 62
     7
  5
8D
 10
0.0
 20
0.0
 30
0.0
 70
   128
 71
    -7
 72
     1
 73
    14
  0
VERTEX
  8
0
 62
     7
  5
8E
 10
0.0
 20
0.0
 30
0.0
 70
   128
 71
    -4
 72
     7
 73
    15
  0
VERTEX
  8
0
 62
     7
  5
8F
 10
0.0
 20
0.0
 30
0.0
 70
   128
 71
    -8
 72
     4
 73
    16
  0
SEQEND
  8
0
 62
     7
  5
90
  0
POLYLINE
  8
0
 62
     7
  5
91
 66
     1
 10
0.0
 20
0.0
 30
0.0
 70
    64
  0
VERTEX
  8
0
  5
92
 10
2.382683
 20
2.92388
 30
2.0
 70
   192
  0
VERTEX
  8
0
  5
93
 10
2.92388
 20
1.617317
 30
2.0
 70
   192
  0
VERTEX
  8
0
  5
94
 10
1.617317
 20
1.07612
 30
2.0
 70
   192
  0
VERTEX
  8
0
  5
95
 10
1.07612
 20
2.382683
 30
2.0
 70
   192
  0
VERTEX
  8
0
  5
96
 10
1.07612
 20
1.617317
 30
2.0
 70
   192
  0
VERTEX
  8
0
  5
97
 10
2.382683
 20
1.07612
 30
2.0
 70
   192
  0
VERTEX
  8
0
  5
98
 10
2.92388
 20
2.382683
 30
2.0
 70
   192
  0
VERTEX
  8
0
  5
99
 10
1.617317
 20
2.92388
 30
2.0
 70
   192
  0
VERTEX
  8
0
  5
9A
 10
1.0
 20
2.0
 30
2.0
 70
   192
  0
VERTEX
  8
0
  5
9B
 10
1.292893
 20
1.292893
 30
2.0
 70
   192
  0
VERTEX
  8
0
  5
9C
 10
2.0
 20
1.0
 30
2.0
 70
   192
  0
VERTEX
  8
0
  5
9D
 10
2.707107
 20
1.292893
 30
2.0
 70
   192
  0
VERTEX
  8
0
  5
9E
 10
3.0
 20
2.0
 30
2.0
 70
   192
  0
VERTEX
  8
0
  5
9F
 10
2.707107
 20
2.707107
 30
2.0
 70
   192
  0
VERTEX
  8
0
  5
A0
 10
2.0
 20
3.0
 30
2.0
 70
   192
  0
VERTEX
  8
0
  5
A1
 10
1.292893
 20
2.707107
 30
2.0
 70
   192
  0
VERTEX
  8
0
 62
     7
  5
A2
 10
0.0
 20
0.0
 30
0.0
 70
   128
 71
    -1
 72
    -3
 73
    -2
  0
VERTEX
  8
0
 62
     7
  5
A3
 10
0.0
 20
0.0
 30
0.0
 70
   128
 71
    -3
 72
    -1
 73
    -4
  0
VERTEX
  8
0
 62
     7
  5
A4
 10
0.0
 20
0.0
 30
0.0
 70
   128
 71
    -3
 72
    -4
 73
    -5
  0
VERTEX
  8
0
 62
     7
  5
A5
 10
0.0
 20
0.0
 30
0.0
 70
   128
 71
    -2
 72
    -3
 73
    -6
  0
VERTEX
  8
0
 62
     7
  5
A6
 10
0.0
 20
0.0
 30
0.0
 70
   128
 71
    -1
 72
    -2
 73
    -7
  0
VERTEX
  8
0
 62
     7
  5
A7
 10
0.0
 20
0.0
 30
0.0
 70
   128
 71
    -4
 72
    -1
 73
    -8
  0
VERTEX
  8
0
 62
     7
  5
A8
 10
0.0
 20
0.0
 30
0.0
 70
   128
 71
    -5
 72
     4
 73
     9
  0
VERTEX
  8
0
 62
     7
  5
A9
 10
0.0
 20
0.0
 30
0.0
 70
   128
 71
    -3
 72
     5
 73
    10
  0
VERTEX
  8
0
 62
     7
  5
AA
 10
0.0
 20
0.0
 30
0.0
 70
   128
 71
    -6
 72
     3
 73
    11
  0
VERTEX
  8
0
 62
     7
  5
AB
 10
0.0
 20
0.0
 30
0.0
 70
   128
 71
    -2
 72
     6
 73
    12
  0
VERTEX
  8
0
 62
     7
  5
AC
 10
0.0
 20
0.0
 30
0.0
 70
   128
 71
    -7
 72
     2
 73
    13
  0
VERTEX
  8
0
 62
     7
  5
AD
 10
0.0
 20
0.0
 30
0.0
 70
   128
 71
    -1
 72
     7
 73
    14
  0
VERTEX
  8
0
 62
     7
  5
AE
 10
0.0
 20
0.0
 30
0.0
 70
   128
 71
    -8
 72
     1
 73
    15
  0
VERTEX
  8
0
 62
     7
  5
AF
 10
0.0
 20
0.0
 30
0.0
 70
   128
 71
    -4
 72
     8
 73
    16
  0
SEQEND
  8
0
 62
     7
  5
B0
  0
POLYLINE
  8
0
 62
     7
  5
B1
 66
     1
 10
0.0
 20
0.0
 30
0.0
 70
    64
  0
VERTEX
  8
0
  5
B2
 10
1.0
 20
2.0
 30
4.0
 70
   192
  0
VERTEX
  8
0
  5
B3
 10
1.0
 20
2.0
 30
2.0
 70
   192
  0
VERTEX
  8
0
  5
B4
 10
1.07612
 20
1.617317
 30
4.0
 70
   192
  0
VERTEX
  8
0
  5
B5
 10
1.07612
 20
1.617317
 30
2.0
 70
   192
  0
VERTEX
  8
0
  5
B6
 10
1.292893
 20
1.292893
 30
2.0
 70
   192
  0
VERTEX
  8
0
  5
B7
 10
1.292893
 20
1.292893
 30
4.0
 70
   192
  0
VERTEX
  8
0
  5
B8
 10
1.617317
 20
1.07612
 30
2.0
 70
   192
  0
VERTEX
  8
0
  5
B9
 10
1.617317
 20
1.07612
 30
4.0
 70
   192
  0
VERTEX
  8
0
  5
BA
 10
2.0
 20
1.0
 30
2.0
 70
   192
  0
VERTEX
  8
0
  5
BB
 10
2.0
 20
1.0
 30
4.0
 70
   192
  0
VERTEX
  8
0
  5
BC
 10
2.382683
 20
1.07612
 30
4.0
 70
   192
  0
VERTEX
  8
0
  5
BD
 10
2.382683
 20
1.07612
 30
2.0
 70
   192
  0
VERTEX
  8
0
  5
BE
 10
2.707107
 20
1.292893
 30
2.0
 70
   192
  0
VERTEX
  8
0
  5
BF
 10
2.707107
 20
1.292893
 30
4.0
 70
   192
  0
VERTEX
  8
0
  5
C0
 10
2.92388
 20
1.617317
 30
2.0
 70
   192
  0
VERTEX
  8
0
  5
C1
 10
2.92388
 20
1.617317
 30
4.0
 70
   192
  0
VERTEX
  8
0
  5
C2
 10
3.0
 20
2.0
 30
2.0
 70
   192
  0
VERTEX
  8
0
  5
C3
 10
3.0
 20
2.0
 30
4.0
 70
   192
  0
VERTEX
  8
0
  5
C4
 10
2.92388
 20
2.382683
 30
4.0
 70
   192
  0
VERTEX
  8
0
  5
C5
 10
2.92388
 20
2.382683
 30
2.0
 70
   192
  0
VERTEX
  8
0
  5
C6
 10
2.707107
 20
2.707107
 30
2.0
 70
   192
  0
VERTEX
  8
0
  5
C7
 10
2.707107
 20
2.707107
 30
4.0
 70
   192
  0
VERTEX
  8
0
  5
C8
 10
2.382683
 20
2.92388
 30
2.0
 70
   192
  0
VERTEX
  8
0
  5
C9
 10
2.382683
 20
2.92388
 30
4.0
 70
   192
  0
VERTEX
  8
0
  5
CA
 10
2.0
 20
3.0
 30
2.0
 70
   192
  0
VERTEX
  8
0
  5
CB
 10
2.0
 20
3.0
 30
4.0
 70
   192
  0
VERTEX
  8
0
  5
CC
 10
1.617317
 20
2.92388
 30
4.0
 70
   192
  0
VERTEX
  8
0
  5
CD
 10
1.617317
 20
2.92388
 30
2.0
 70
   192
  0
VERTEX
  8
0
  5
CE
 10
1.292893
 20
2.707107
 30
2.0
 70
   192
  0
VERTEX
  8
0
  5
CF
 10
1.292893
 20
2.707107
 30
4.0
 70
   192
  0
VERTEX
  8
0
  5
D0
 10
1.07612
 20
2.382683
 30
2.0
 70
   192
  0
VERTEX
  8
0
  5
D1
 10
1.07612
 20
2.382683
 30
4.0
 70
   192
  0
VERTEX
  8
0
 62
     7
  5
D2
 10
0.0
 20
0.0
 30
0.0
 70
   128
 71
     1
 72
    -3
 73
     2
  0
VERTEX
  8
0
 62
     7
  5
D3
 10
0.0
 20
0.0
 30
0.0
 70
   128
 71
    -2
 72
     3
 73
     4
  0
VERTEX
  8
0
 62
     7
  5
D4
 10
0.0
 20
0.0
 30
0.0
 70
   128
 71
    -3
 72
     5
 73
     4
  0
VERTEX
  8
0
 62
     7
  5
D5
 10
0.0
 20
0.0
 30
0.0
 70
   128
 71
    -5
 72
     3
 73
     6
  0
VERTEX
  8
0
 62
     7
  5
D6
 10
0.0
 20
0.0
 30
0.0
 70
   128
 71
    -5
 72
     8
 73
     7
  0
VERTEX
  8
0
 62
     7
  5
D7
 10
0.0
 20
0.0
 30
0.0
 70
   128
 71
    -8
 72
     5
 73
     6
  0
VERTEX
  8
0
 62
     7
  5
D8
 10
0.0
 20
0.0
 30
0.0
 70
   128
 71
     8
 72
    10
 73
    -9
  0
VERTEX
  8
0
 62
     7
  5
D9
 10
0.0
 20
0.0
 30
0.0
 70
   128
 71
    -8
 72
     9
 73
     7
  0
VERTEX
  8
0
 62
     7
  5
DA
 10
0.0
 20
0.0
 30
0.0
 70
   128
 71
    10
 72
   -11
 73
     9
  0
VERTEX
  8
0
 62
     7
  5
DB
 10
0.0
 20
0.0
 30
0.0
 70
   128
 71
    -9
 72
    11
 73
    12
  0
VERTEX
  8
0
 62
     7
  5
DC
 10
0.0
 20
0.0
 30
0.0
 70
   128
 71
   -11
 72
    13
 73
    12
  0
VERTEX
  8
0
 62
     7
  5
DD
 10
0.0
 20
0.0
 30
0.0
 70
   128
 71
   -13
 72
    11
 73
    14
  0
VERTEX
  8
0
 62
     7
  5
DE
 10
0.0
 20
0.0
 30
0.0
 70
   128
 71
   -13
 72
    16
 73
    15
  0
VERTEX
  8
0
 62
     7
  5
DF
 10
0.0
 20
0.0
 30
0.0
 70
   128
 71
   -16
 72
    13
 73
    14
  0
VERTEX
  8
0
 62
     7
  5
E0
 10
0.0
 20
0.0
 30
0.0
 70
   128
 71
    16
 72
    18
 73
   -17
  0
VERTEX
  8
0
 62
     7
  5
E1
 10
0.0
 20
0.0
 30
0.0
 70
   128
 71
   -16
 72
    17
 73
    15
  0
VERTEX
  8
0
 62
     7
  5
E2
 10
0.0
 20
0.0
 30
0.0
 70
   128
 71
    18
 72
   -19
 73
    17
  0
VERTEX
  8
0
 62
     7
  5
E3
 10
0.0
 20
0.0
 30
0.0
 70
   128
 71
   -17
 72
    19
 73
    20
  0
VERTEX
  8
0
 62
     7
  5
E4
 10
0.0
 20
0.0
 30
0.0
 70
   128
 71
   -19
 72
    21
 73
    20
  0
VERTEX
  8
0
 62
     7
  5
E5
 10
0.0
 20
0.0
 30
0.0
 70
   128
 71
   -21
 72
    19
 73
    22
  0
VERTEX
  8
0
 62
     7
  5
E6
 10
0.0
 20
0.0
 30
0.0
 70
   128
 71
   -21
 72
    24
 73
    23
  0
VERTEX
  8
0
 62
     7
  5
E7
 10
0.0
 20
0.0
 30
0.0
 70
   128
 71
   -24
 72
    21
 73
    22
  0
VERTEX
  8
0
 62
     7
  5
E8
 10
0.0
 20
0.0
 30
0.0
 70
   128
 71
    24
 72
    26
 73
   -25
  0
VERTEX
  8
0
 62
     7
  5
E9
 10
0.0
 20
0.0
 30
0.0
 70
   128
 71
   -24
 72
    25
 73
    23
  0
VERTEX
  8
0
 62
     7
  5
EA
 10
0.0
 20
0.0
 30
0.0
 70
   128
 71
    26
 72
   -27
 73
    25
  0
VERTEX
  8
0
 62
     7
  5
EB
 10
0.0
 20
0.0
 30
0.0
 70
   128
 71
   -25
 72
    27
 73
    28
  0
VERTEX
  8
0
 62
     7
  5
EC
 10
0.0
 20
0.0
 30
0.0
 70
   128
 71
   -27
 72
    29
 73
    28
  0
VERTEX
  8
0
 62
     7
  5
ED
 10
0.0
 20
0.0
 30
0.0
 70
   128
 71
   -29
 72
    27
 73
    30
  0
VERTEX
  8
0
 62
     7
  5
EE
 10
0.0
 20
0.0
 30
0.0
 70
   128
 71
   -29
 72
    32
 73
    31
  0
VERTEX
  8
0
 62
     7
  5
EF
 10
0.0
 20
0.0
 30
0.0
 70
   128
 71
   -32
 72
    29
 73
    30
  0
VERTEX
  8
0
 62
     7
  5
F0
 10
0.0
 20
0.0
 30
0.0
 70
   128
 71
    32
 72
     1
 73
    -2
  0
VERTEX
  8
0
 62
     7
  5
F1
 10
0.0
 20
0.0
 30
0.0
 70
   128
 71
   -32
 72
     2
 73
    31
  0
SEQEND
  8
0
 62
     7
  5
F2
  0
ENDBLK
  8
0
  5
F3
  0
ENDSEC
  0
SECTION
  2
ENTITIES
  0
INSERT
  8
AME_FRZ
  5
3
  2
AME_NIL
 10
0.0
 20
0.0
 30
0.0
  0
INSERT
  8
AME_FRZ
  5
15
  2
AME_NIL
 10
0.0
 20
0.0
 30
0.0
1001
AME_SOL
1002
{
1070
     1
1071
  2390864
1070
  1536
1070
     1
1010
4.0
1020
4.0
1030
6.0
1005
0
1005
0
1005
39
1040
0.0
1040
1.0
1070
     0
1000
MILD_STEEL
1000
0
1010
0.0
1020
0.0
1030
0.0
1010
0.0
1020
0.0
1030
1.0
1040
0.0
1002
}
1001
AVE_INVOKE
1000
SOLAVEMESH
  0
INSERT
  8
AME_FRZ
  5
21
  2
AME_NIL
 10
2.0
 20
2.0
 30
2.0
1001
AME_SOL
1002
{
1070
     1
1071
  2448432
1070
  1538
1070
     1
1010
1.0
1020
1.0
1030
2.0
1005
0
1005
0
1005
39
1040
0.0
1040
1.0
1070
     0
1000
MILD_STEEL
1000
0
1010
2.0
1020
2.0
1030
2.0
1010
0.0
1020
0.0
1030
1.0
1040
0.0
1002
}
1001
AVE_INVOKE
1000
SOLAVEMESH
  0
INSERT
  8
0
  5
39
  2
*U6
 10
0.0
 20
0.0
 30
0.0
1001
AME_SOL
1002
{
1070
     1
1071
  2445808
1070
  9223
1070
    41
1070
     0
1005
15
1005
21
1005
F4
1005
3A
1005
0
1040
146.608716
1040
1.0
1070
     0
1000
MILD_STEEL
1000
0
1002
}
1001
AVE_INVOKE
1000
SOLAVEMESH
  0
INSERT
  8
AME_FRZ
  5
3A
  2
AME_NIL
 10
1.0
 20
1.0
 30
1.0
1001
AME_SOL
1004
C7CF0100D7006B016A01680164015C014F010700FD0050013C007F005D01510142011800C000030052012500020065015E01530143013001EE0070007500440131018200E40032015A00790054014501330158001D012800540034011E01DF0035001F014400150120004D0046013501200116010C01F100
1004
30000D01B00001010001F70017010E0102011900EC00030178002B000F0104012E002F00050131003200BC00360121011801100106013400DC0007016000380011010801D100CB000901CA00C900090004005F01FF0055010F00470137010500FB003801F8002201C100E800690166016001560110004801
1004
390123012D00DB002401D800B8003A012501D700190112010A014800BB000B015200A900170088005701240049013B012601D0001F002701EA00C3003C012801B500E00029011A0176008300A8006101F00058014A017C0089004B013D0108002A01EF00FE008000670162015901BF003F00400063015A01
1004
4C013E0184002B0112001E003F012C01DA00E2002D011B01FC001301E900E100ED0001005B014D015F0040014E0096004E0141012E01F200A0002F01A4001C011401D600C50021007E0000004D0A9A151ACF5DB98631B46A2C72EDDE284A04319FB0284A04319FB0284A04319FB072C33C5A020D39619E2D
1004
01069CB0CF168021AEF3D7C0F474C97D389B5D328E992FA7136BA65F69C3AF7239B332E33E5DB0E23971AE33E5DB0E23971A72C33C5A020D769A7A4FA7D298DBB2E5E9A7AFF533FFFFFFFA99FFFEDFEDFED3CFEA67F533FFFFFE9A7AFF533FFFFFFFA99FFFEDFEDFED3CFEA67F533FFFFFA982BD342F7B23
1004
FEA67FFFFFFF533FFFA9943F6FF68F262D25272421282A131692939210943CF1FFF13FFFDAEFD068FC98B4949C9084A0A9FC4BBF41A4C5A4A4E484250F1DFFFFDA3CAA6318AA6319DFFFFDA57A687EF647FD4CFFFFFFFEA67FCB018C6318CCFEA67FB479316929392109415098B4949C9084A1E78FFF89FE
1004
BFFB5DFA0D1F93169293921094153F8977E83498B4949C9084A1E3BFFAFFED1E55318C55318CEFFEBFFB4AF4D3BDEC8FFA99FFFFFFFD4CFFFEB8DFEDFED1E4C5A4A4E48425054262D252724212879E3FFE27FFFB5DFA0D1F93169293921094153F8977E83498B4949C9084A1E3BFFFFB47954C63154C633B
1004
FFFFB4AF4D7BD91FF533FFFFFFFA99FF2C06318C6333FAE37FB479316929392109415098B4949C9084A1E78FFF89FFFED77E8347E4C5A4A4E48425054FE25DFA0D262D252724212878EFFFFED1E55318C55318CEFFFFED3D7C3B474C97D389B5D328E992FA7136BA65F69C3AF7239B332E33E5DB0E23971A
1004
E33E5DB0E23971AE33E5DB0E23AD76E0F45739A4A636ECB9BB83D7FA99FFFFFEBFF531FD7FF6FF6FF69E7FFFFFFFFFDC1EBFD4CFFFFFF5FFA98FEBFFB7FB7FB4F3FFFFFFFFFA983D7C3B474C97D389B5D328E992FA7136BA65CA03AD73A8E6B8CF976C388E5C6B8CF976C388E5C69CB0CF1680835DB83D2F
1004
7D894C6DD973F707AFF533FFFFFFFA99FFFEDFEDFD069E7FFFFFFFFFDC1EBFD4CFFFFFFFEA67FFFB7FB7F41A79FFFFFFFFFD4C1EBE0BE284A04319FB0284A04319FB0284A04319FB072C33C5A020D39619E2D01068A12810C67ECBB707A3F9F92BBDD967BBB83D7FFFA99FFFD4CFFFFFFFFFF9E7FFFFFFFF
1004
FDC1EBFFFD4CFFFEA67FFFFFFFFFCF3FFFFFFFFFA993D7C17C509408633F60509408633F60509408633F60E58678B4041A284A04319FB272C33C5A0086BB707A47462577BB2CE77707AFF533FFFFFFFFFA99FFFFFF3CFFFFFFFFFFB83D7FA99FFFFFFFFFD4CFFFFFF9E7FFFFFFFFF5327AF82F8A12810C67
1004
EC0A12810C67EC0A12810C67EC0A12810C67EC9CB0CF1680834E58678B4010D76E0F4F9452577BB2C2EEE0F5FFFFFEA67FFF533FFFFFFFE79FFFFFFFFFF707AFFFFFF533FFFA99FFFFFFFF3CFFFFFFFFFEA64F5F05F14250218CFD814250218CFD87C27B7CA787C8DB4E58678B4041A72C33C5A020D39619
1004
E2D00435DB83D27584AEF7659AEEE0F5FEA63FAFFEBFFAFFD4C7F5FFA0DFD06FE21A79FFFFFFFFFF707AFF531FD7FF5FFD7FEA63FAFFD06FE837F10D3CFFFFFFFFFEA64F5F05F14250218CFD87280EB5CEA39A284A04319FB072C33C5A020D39619E2D01069CB0CF168021AEDC1E916E44AEF76598EEE0F5
1004
FF5FFD7FEA63F531FD7FF5FFA0DFD06FE21A79FFFFFFFFFF707AFFAFFEBFF531FA98FEBFFAFFD06FE837F10D3CFFFFFFFFFEA64F5F05F7280EB5CEA39A284A04319FB0284A04319FB072C33C5A020D39619E2D01069CB0CF168021AEDC1E930894AEF768877707AFFAFFD4C7F5FFD7FF5FFA98FD06FE837F
1004
10D3CFFFFFFFFFFB83D7FD7FEA63FAFFEBFFAFFD4C7E837F41BF8869E7FFFFFFFFF532FA20474C97D389B5D328E992FA7136BA65CA03AD73A8E6B8CF976C388E5C6B8CF976C388E5C69CB0CF1680834A4882B14CF5F72E8929220AC533D7DCBAD1EE6112C459637766327D3E957BEC4B8F5EFB12A7D3E94C
1004
6318C6319CC23FEA67FFFFFFF533FFFDBFDBFA0D2FFEA67F5325244158A67AFB97449491056299EBEE5D6BE8811D325F4E26D74CA3A64BE9C4DAE997DA70EBDC8E6CCCB8CF976C388E5C6B8CF976C388E5C6B8CF976C388EB4A4882B14CF5F72E8929220AC533D7DCBAD1EE6115E5C037319DA7D3E94AE73
1004
4971E9F4FA52B9CD25318C6318C67308FFA99FFFFFFFD4CFFFF6FF6FF697FF533FA9929220AC533D7DCBA24A4882B14CF5F72EB5F440284A04319FB0E501D6B9D4734509408633F60E58678B4041A72C33C5A020D14250218CFD9FE27FB47BD913E2E44B98CECFE7E4A8B7225C79FCFC9516E44AEF77BD91
1004
FFFF533FFFFFFFA98FEDFD06FF8FFE27FB5F440E501D6B9D4734509408633F60509408633F60E58678B4041A72C33C5A020D14250218CFD9FE27FB47BD914F970A5CC6767F3F254C2252E3CFE7E4A9844A577BBDEC8FFA99FFFFFFFFFD4C7E837FB7FC7FF13FDAFA2014250218CFD814250218CFD8142502
1004
18CFD814250218CFD939619E2D01068A12810C67ECFE809FEBC7BD912E34EA5CC6767F3F257CA292E3CFE7E4AF9452577BBDEC8FFA98FFFFFFFFFD4C7FFFFF8FFD013FD7BE880509408633F60509408633F60509408633F60E58678B4041A284A04319FB2284A04319FB3FFFA0D1EF6457A34A5CC6767F3F
1004
25474625C79FCFC951D1895DEEF7B23FFFEA63FFFFFFF531FFFFFE3FFFF41AFA2014250218CFD814250218CFD87C27B7CA787C8DB4E58678B4041A284A04319FB272C33C5A0086FF13FDA3DEC89622D4B98CED1D18953AC25C7A3A312A7584AEF77BD91FFFFFF533FFFA98FFFEDFFFC4347FF13FDAFA2072
1004
80EB5CEA39A284A04319FB0284A04319FB072C33C5A020D14250218CFD939619E2D00437F5C13FAE347BD914C2692E633B4746254C2252E3D1D189530894AEF77BD91FF533FFFFFFFA98FFFD06FFFEB8D1FFAE09FD71AFA2014250218CFD814250218CFD814250218CFD814250218CFD914250218CFD9396
1004
19E2D00437FFF10D1EF64659297319DA3A312BE514971E8E8C4AF9452577BBDEC8FFA98FFFFFFFD4C7FFFFFFF8FFFFC435F440284A04319FB0284A04319FB0F84F6F94F0F91B68A12810C67EC9CB0CF1680834E58678B4010DFE27FB47BD912C2E74B98CEDF28A4A9D612E3DF28A4A9D612BBDDEF647FFFF
1004
FD4CFEA63FFFFFFFB7F10D1FFC4FF6BE880509408633F61CA03AD73A8E68A12810C67EC0A12810C67EC9CB0CF1680834E58678B4010DFD704FEB8D1EF644B88812E633B7CA292A2DC8971EF9452545B912BBDDEF647FFFD4CFFFEA63FFFFFFF41BFAE347FEB827F5C6BE880509408633F61CA03AD73A8E6B
1004
E13DBE53C3E46DA72C33C5A020D39619E2D01069CB0CF168021BFA027FAF1EF644AE5D25CC6769D612A2DC8971E9D612A2DC895DEEF7B23FFFEA67FFFFFFF533FA0DFD06FE21A3FF404FF5EFA207280EB5CEA39A284A04319FB0F84F6F94F0F91B69CB0CF1680834E58678B4041A72C33C5A0086FFFE8347
1004
BD91468325CC6769D612A6112971E9D612A611295DEEF7B23FEA67FFFFFAFFFFD4CFE837F41BF8868FFFFD06BE881CA03AD73A8E6B94075AE751CD14250218CFD839619E2D01069CB0CF1680834E58678B4010DFC409FEBC7BD912CA8DCC6768B72254C2252E3D16E44A9844A577BBDEC8FFA99FFFFFFFD4
1004
CFFFE837F41BF8868FFC409FEBCB21CC2C6D
1005
3B
  0
INSERT
  8
AME_FRZ
  5
3B
  2
AME_NIL
 10
1.0
 20
1.0
 30
1.0
1001
AME_SOL
1004

1005
0
  0
INSERT
  8
AME_FRZ
  5
3F
  2
AME_SOL
 10
0.0
 20
0.0
 30
0.0
1001
AME_SOL
1000
R2.1
1000
AME2
1000
sq cm
1070
     3
1070
     0
1070
     3
1000
wire
1040
45.0
1000
U
1040
1.0
1000
cm
1000
gm
1000
MILD_STEEL
1070
    25
1000
CSG
1070
     1
1070
     3
1070
     3
1070
     3
1070
     0
1000
cu cm
1070
     4
1070
     0
1005
3
  0
INSERT
  8
AME_FRZ
  5
F4
  2
*U4
 10
0.0
 20
0.0
 30
0.0
  0
ENDSEC
  0
EOF
