**ABCDEFGHIJKLMNOPQRSTUVWXYZabcdefghijklmnopqrstuvwxyz**************************
**PARASOLID !"#$%&'()*+,-./:;<=>?@[\]^_`{|}~0123456789**************************
**PART1;MC=sun;MC_MODEL=Sun-3;MC_ID=unknown;OS=SunOS;OS_RELEASE=unknown;FRU=sdl_
parasolid_test_sun;APPL=unknown;SITE=sdl-cambridge-u.k.;USER=kramer;FORMAT=text;
GUISE=transmit;KEY=rectangular_pocket3;FILE=rectangular_pocket3.xmt_txt;DATE=16-
oct-1990;
**PART2;SCH=SCH_210_1012;USFLD_SIZE=0;
**PART3;
**END_OF_HEADER*****************************************************************
T47 : TRANSMIT FILE created by modeller version 22012 SCH_210_10120 12 1 267 0 0
 0 0 0 1e3 1e-8 2 2 0 3 0 1 4 102 19 2 rectangular_pocket313 4 2 0 1 0 5 6 7 8 9
 10 14 5 256 0 11 0 12 4 8 +16 6 203 0 13 0 14 9 18 7 164 0 15 0 16 10 51 8 266
 0 5 17 0 0 +3.56 -.00499999999999989 .4 0 0 1 .5 30 9 205 0 6 18 0 0 +3.06 4.99
5 .4 0 0 -1 29 10 166 0 7 19 0 3.56 5.495 .4 29 19 162 0 16 20 10 4.76 5.495 .4
 18 16 160 0 21 7 22 19 29 20 158 0 22 23 19 3.06 -.00499999999999989 .4 18 22 1
56 0 24 16 25 20 29 23 154 0 25 26 20 3.06 4.995 .4 18 25 152 0 27 22 28 23 29 2
6 140 0 28 29 23 5.26 4.995 .4 18 28 138 0 30 25 31 26 29 29 136 0 31 32 26 5.26
 -.00499999999999989 .4 18 31 134 0 33 28 34 29 29 32 112 0 34 35 29 3.06 4.995
 1.5 18 34 110 0 36 31 37 32 29 35 108 0 37 38 32 3.06 -.00499999999999989 1.5 1
8 37 106 0 39 34 40 35 29 38 104 0 40 41 35 4.76 5.495 1.5 18 40 102 0 42 37 43
 38 29 41 100 0 43 44 38 3.56 5.495 1.5 18 43 98 0 45 40 46 41 29 44 96 0 46 47
 41 5.26 -.00499999999999989 1.5 18 46 94 0 48 43 49 44 29 47 92 0 49 50 44 5.26
 4.995 1.5 18 49 90 0 51 46 52 47 29 50 78 0 52 53 47 4.76 -.505 .4 18 52 76 0 5
4 49 55 50 29 53 74 0 55 56 50 3.56 -.505 .4 18 55 72 0 57 52 58 53 29 56 70 0 5
8 59 53 3.56 -.505 1.5 18 58 68 0 60 55 61 56 29 59 66 0 61 0 56 4.76 -.505 1.5
 18 61 64 0 62 58 0 59 17 62 63 54 48 61 64 65 15 63 212 0 33 66 0 17 54 63 33 6
2 52 67 68 17 48 63 62 33 46 69 70 17 64 71 72 73 46 62 65 16 65 129 0 64 74 75
 76 16 74 135 0 77 78 65 79 16 75 124 0 80 65 81 82 31 76 131 0 65 82 79 0 +4.76
 -.00499999999999989 1.5 0 0 1 .5 31 82 126 0 75 83 76 0 +4.76 4.995 1.5 0 0 1 .
5 30 79 137 0 74 76 84 0 +5.26 2.495 .4 0 1 0 30 84 144 0 78 79 85 0 +5.26 4.995
 .4 0 0 1 16 78 142 0 86 70 74 84 30 85 149 0 70 84 87 0 +5.26 -.004999999999999
89 .4 0 0 -1 16 70 147 0 69 88 78 85 30 87 155 0 88 85 89 0 +3.06 2.495 .4 0 -1
 0 16 88 153 0 90 91 70 87 30 89 163 0 91 87 92 0 +4.16 5.495 .4 -1 0 0 16 91 16
1 0 93 94 88 89 31 92 170 0 94 89 95 0 +3.56 -.00499999999999989 .4 0 0 -1 .5 16
 94 168 0 96 97 91 92 31 95 175 0 97 92 98 0 +3.56 4.995 .4 0 0 -1 .5 16 97 173
 0 99 100 94 95 31 98 180 0 100 95 101 0 +4.76 4.995 .4 0 0 -1 .5 16 100 178 0 1
02 103 97 98 31 101 185 0 103 98 104 0 +4.76 -.00499999999999989 .4 0 0 -1 .5 16
 103 183 0 105 106 100 101 30 104 190 0 106 101 107 0 +3.56 5.495 .4 0 0 1 16 10
6 188 0 108 109 103 104 30 107 195 0 109 104 18 0 +4.76 5.495 .4 0 0 -1 16 109 1
93 0 110 14 106 107 30 18 200 0 14 107 9 0 +3.06 -.00499999999999989 .4 0 0 1 16
 14 198 0 111 6 109 18 17 111 112 113 90 37 24 14 15 112 26 0 113 114 0 17 113 1
12 13 111 34 115 116 17 90 112 111 13 22 117 88 17 24 12 57 39 22 111 14 15 12 2
57 0 57 5 0 17 57 12 60 24 55 96 94 17 39 12 24 60 37 118 119 17 60 12 39 57 58
 120 121 17 118 71 73 115 58 39 119 16 119 114 0 118 81 116 122 16 81 119 0 123
 75 119 83 16 116 107 0 113 119 124 125 31 122 116 0 119 125 83 0 +3.56 -.004999
99999999989 1.5 0 0 1 .5 30 125 109 0 116 126 122 0 +3.06 2.495 1.5 0 1 0 31 83
 121 0 81 122 82 0 +3.56 4.995 1.5 0 0 1 .5 30 126 101 0 124 127 125 0 +4.16 5.4
95 1.5 1 0 0 16 124 99 0 128 116 129 126 30 127 93 0 129 130 126 0 +5.26 2.495 1
.5 0 -1 0 16 129 91 0 131 124 68 127 30 130 87 0 68 132 127 0 +4.76 -.505 .4 0 0
 1 16 68 85 0 67 129 121 130 30 132 82 0 121 133 130 0 +3.56 -.505 .4 0 0 -1 16
 121 80 0 120 68 134 132 30 133 75 0 134 135 132 0 +4.16 -.505 .4 1 0 0 16 134 7
3 0 136 121 137 133 30 135 67 0 137 0 133 0 +4.16 -.505 1.5 -1 0 0 16 137 65 0 1
38 134 0 135 17 138 139 120 67 58 73 137 15 139 29 0 136 140 0 17 120 139 136 13
8 55 60 121 17 67 139 138 136 61 54 68 17 73 71 64 118 61 138 137 15 71 32 0 73
 141 0 14 141 132 0 140 142 71 4 143 +14 140 88 0 0 141 139 4 144 +14 142 150 0
 141 145 146 4 147 +50 143 133 0 141 144 147 0 +4.16 2.495 1.5 0 0 1 50 144 89 0
 140 0 143 0 +4.16 -.505 .4 0 -1 0 50 147 151 0 142 143 148 0 +5.26 2.495 .4 1 0
 0 50 148 187 0 145 147 149 0 +4.16 2.495 .4 0 0 -1 14 145 186 0 142 150 151 4 1
48 +50 149 197 0 150 148 152 0 +4.16 5.495 .4 0 1 0 14 150 196 0 145 114 153 4 1
49 +50 152 207 0 114 149 154 0 +3.06 2.495 .4 -1 0 0 14 114 206 0 150 66 112 4 1
52 +51 154 221 0 66 152 155 0 +4.76 -.00499999999999989 .4 0 0 1 .5 14 66 211 0
 114 156 63 4 154 +51 155 236 0 156 154 17 0 +4.76 4.995 .4 0 0 1 .5 14 156 226
 0 66 11 157 4 155 +51 17 251 0 11 155 8 0 +3.56 4.995 .4 0 0 1 .5 14 11 241 0 1
56 5 158 4 17 +15 158 242 0 27 11 0 17 27 158 36 15 25 99 97 17 36 158 45 27 34
 13 6 17 15 158 27 45 7 108 106 17 99 151 159 117 7 27 97 15 151 5 0 160 145 0 1
7 159 151 102 99 16 93 91 17 117 151 99 96 25 90 88 17 96 151 117 161 22 57 94 1
7 161 151 96 105 55 136 134 17 105 151 161 160 52 33 103 17 136 139 67 120 52 16
1 134 17 160 151 105 102 31 77 74 17 33 63 48 54 31 105 103 17 102 151 160 159 2
8 21 100 17 77 146 86 69 28 160 74 15 146 4 0 131 142 0 17 86 146 131 77 49 30 7
8 17 69 146 77 131 31 48 70 17 131 146 69 86 46 72 129 17 72 71 80 64 49 131 129
 17 80 71 162 72 40 51 75 17 162 71 123 80 43 128 124 17 51 157 30 42 49 80 75 1
5 157 227 0 21 156 0 17 30 157 21 51 28 86 78 17 42 157 51 21 40 110 109 17 21 1
57 42 30 16 102 100 17 110 153 93 128 16 42 109 15 153 23 0 128 150 0 17 93 153
 108 110 7 159 91 17 128 153 110 108 40 162 124 17 108 153 128 93 43 15 106 17 1
23 71 115 162 34 45 81 17 115 71 118 123 37 113 116 17 45 158 15 36 43 123 81 17
 13 112 90 113 25 36 6 1 0 
