600 0 1 0           
117 GICL Pro/E ACIS Translator - Source: f:/data5/repository/PTC/V20/NC_Training_Rel20/exercise_4/part_multi_22.prt - 6 0 13 ACIS 6.0.3 NT 24 Thu Apr 04 13:14:13 2002 
1 9.9999999999999995e-007 1e-010 
body $-1 $1 $-1 $2 #
lump $-1 $-1 $3 $0 #
transform $-1 1 0 0 0 1 0 0 0 1 0 0 0 25.399999999999999 no_rotate no_reflect no_shear #
shell $-1 $-1 $-1 $4 $-1 $1 #
face $-1 $5 $6 $3 $-1 $7 reversed single #
face $-1 $8 $9 $3 $-1 $10 reversed single #
loop $-1 $-1 $11 $4 #
plane-surface $-1 0 0.19999999999999998 0 0 -1 0 1 0 0 forward_v I I I I #
face $-1 $12 $13 $3 $-1 $14 forward single #
loop $-1 $-1 $15 $5 #
plane-surface $-1 1 0.099999999999999992 2 0 0 -1 1 0 0 forward_v I I I I #
coedge $-1 $16 $17 $18 $19 forward $6 $-1 #
face $-1 $20 $21 $3 $-1 $22 forward single #
loop $-1 $-1 $23 $8 #
plane-surface $-1 0 0 0 0 -1 0 1 0 0 forward_v I I I I #
coedge $-1 $24 $25 $26 $27 forward $9 $-1 #
coedge $-1 $17 $11 $28 $29 reversed $6 $-1 #
coedge $-1 $11 $16 $30 $31 forward $6 $-1 #
coedge $-1 $25 $24 $11 $19 reversed $9 $-1 #
edge $-1 $32 0 $33 2 $11 $34 forward 7 unknown #
face $-1 $-1 $35 $3 $-1 $36 forward single #
loop $-1 $-1 $28 $12 #
plane-surface $-1 2 0.099999999999999992 1 1 0 0 0 0 1 forward_v I I I I #
coedge $-1 $26 $37 $38 $39 forward $13 $-1 #
coedge $-1 $18 $15 $40 $41 forward $9 $-1 #
coedge $-1 $15 $18 $42 $43 forward $9 $-1 #
coedge $-1 $37 $23 $15 $27 reversed $13 $-1 #
edge $-1 $44 0 $45 2 $26 $46 forward 7 unknown #
coedge $-1 $40 $47 $16 $29 forward $21 $-1 #
edge $-1 $48 0 $33 2 $16 $49 forward 7 unknown #
coedge $-1 $50 $42 $17 $31 reversed $35 $-1 #
edge $-1 $48 0 $32 2.8284271247461907 $17 $51 forward 7 unknown #
vertex $-1 $31 $52 #
vertex $-1 $29 $53 #
straight-curve $-1 0 0.19999999999999998 2 1 0 0 I I #
loop $-1 $-1 $50 $20 #
plane-surface $-1 1 0.099999999999999992 1 -0.70710678118654757 0 -0.70710678118654757 -0.70710678118654746 0 0.70710678118654746 forward_v I I I I #
coedge $-1 $23 $26 $54 $55 reversed $13 $-1 #
coedge $-1 $47 $40 $23 $39 reversed $21 $-1 #
edge $-1 $56 0 $45 2 $23 $57 forward 7 unknown #
coedge $-1 $38 $28 $24 $41 reversed $21 $-1 #
edge $-1 $45 0 $33 0.19999999999999998 $40 $58 forward 7 unknown #
coedge $-1 $30 $54 $25 $43 reversed $35 $-1 #
edge $-1 $32 0 $44 0.19999999999999998 $25 $59 forward 7 unknown #
vertex $-1 $55 $60 #
vertex $-1 $27 $61 #
straight-curve $-1 0 0 2 1 0 0 I I #
coedge $-1 $28 $38 $50 $62 reversed $21 $-1 #
vertex $-1 $31 $63 #
straight-curve $-1 2 0.19999999999999998 0 0 0 1 I I #
coedge $-1 $54 $30 $47 $62 forward $35 $-1 #
straight-curve $-1 2 0.19999999999999998 0 -0.70710678118654746 0 0.70710678118654746 I I #
point $-1 0 0.19999999999999998 2 #
point $-1 2 0.19999999999999998 2 #
coedge $-1 $42 $50 $37 $55 forward $35 $-1 #
edge $-1 $56 0 $44 2.8284271247461907 $37 $64 forward 7 unknown #
vertex $-1 $55 $65 #
straight-curve $-1 2 0 0 0 0 1 I I #
straight-curve $-1 2 0 2 0 1 0 I I #
straight-curve $-1 2.2204460492503131e-016 0.19999999999999998 2 0 -1 0 I I #
point $-1 0 0 2 #
point $-1 2 0 2 #
edge $-1 $48 0 $56 0.19999999999999998 $47 $66 forward 7 unknown #
point $-1 2 0.19999999999999998 0 #
straight-curve $-1 2 0 0 -0.70710678118654746 0 0.70710678118654746 I I #
point $-1 2 0 0 #
straight-curve $-1 2 0.19999999999999998 0 0 -1 0 I I #
End-of-ACIS-data 