700 0 2 0           
24 FBMach with ACIS - 7.0.3 13 ACIS 7.0.3 NT 24 Wed May 15 10:58:47 2002 
1 9.9999999999999995e-007 1e-010 
body $2 -1 $-1 $3 $-1 $4 #
bdycol-kcp $-1 -1 1 3 $5 $6 $7 #
model_id-kcp-attrib $-1 -1 $-1 $-1 $0 1 1021474727 1021474727 745668609 1 #
lump $-1 -1 $-1 $-1 $8 $0 #
transform $-1 -1 1 0 0 0 1 0 0 0 1 -1.4210854715202004e-014 0 -2.8421709430404007e-014 1 rotate no_reflect no_shear #
body $9 -1 $-1 $10 $-1 $11 #
body $12 -1 $-1 $13 $-1 $14 #
body $15 -1 $-1 $16 $-1 $17 #
shell $-1 -1 $-1 $-1 $-1 $18 $-1 $3 #
rgb_color-st-attrib $-1 -1 $19 $-1 $5 0.5 1 1 #
lump $-1 -1 $-1 $-1 $20 $5 #
transform $-1 -1 1 0 0 0 1 0 0 0 1 88.900000000000006 2.5399999999999996 76.199999999999989 1 no_rotate no_reflect no_shear #
rgb_color-st-attrib $-1 -1 $21 $-1 $6 0.5 1 1 #
lump $-1 -1 $-1 $-1 $22 $6 #
transform $-1 -1 1 0 0 0 1 0 0 0 1 0 0 0 1 no_rotate no_reflect no_shear #
model_id-kcp-attrib $-1 -1 $-1 $-1 $7 1 1021474727 1021474727 745668610 1 #
lump $-1 -1 $-1 $-1 $23 $7 #
transform $-1 -1 1 0 0 0 1 0 0 0 1 88.900000000000006 2.5399999999999996 76.199999999999989 1 no_rotate no_reflect no_shear #
face $24 -1 $-1 $25 $26 $8 $-1 $27 reversed single #
model_id-kcp-attrib $-1 -1 $-1 $9 $5 1 1021474727 1021474727 739377155 1 #
shell $-1 -1 $-1 $-1 $-1 $28 $-1 $10 #
model_id-kcp-attrib $-1 -1 $-1 $12 $6 1 1021474727 1021474727 743309316 1 #
shell $-1 -1 $-1 $-1 $-1 $29 $-1 $13 #
shell $-1 -1 $-1 $-1 $-1 $30 $-1 $16 #
model_id-kcp-attrib $-1 -1 $-1 $-1 $18 1 1021474727 1021474727 745668609 2 #
face $31 -1 $-1 $32 $33 $8 $-1 $34 forward single #
loop $-1 -1 $-1 $35 $36 $18 #
plane-surface $-1 -1 $-1 0 5.0799999999999992 0 0 -1 0 25.399999999999999 0 0 forward_v I I I I #
face $-1 -1 $-1 $37 $38 $20 $-1 $39 reversed single #
face $-1 -1 $-1 $40 $41 $22 $-1 $42 forward single #
face $43 -1 $-1 $44 $45 $23 $-1 $46 forward single #
model_id-kcp-attrib $-1 -1 $-1 $-1 $25 1 1021474727 1021474727 745668609 3 #
face $47 -1 $-1 $48 $49 $8 $-1 $50 forward single #
loop $-1 -1 $-1 $-1 $51 $25 #
plane-surface $-1 -1 $-1 44.449999999999996 2.5399999999999996 139.69999999999999 0 0 1 25.399999999999999 0 0 forward_v I I I I #
loop $-1 -1 $-1 $-1 $52 $18 #
coedge $-1 -1 $-1 $53 $54 $55 $56 forward $26 $-1 #
face $-1 -1 $-1 $57 $58 $20 $-1 $59 reversed single #
loop $-1 -1 $-1 $-1 $60 $28 #
plane-surface $-1 -1 $-1 76.199999999999989 2.5399999999999996 -25.399999999999991 0.70710678118654735 0 0.70710678118654779 0 1 0 forward_v I I I I #
face $-1 -1 $-1 $61 $62 $22 $-1 $63 forward single #
loop $-1 -1 $-1 $-1 $64 $29 #
plane-surface $-1 -1 $-1 152.33384813091229 5.0799999999999992 23.239785364768686 0 0 -1 -1 0 0 forward_v I I I I #
model_id-kcp-attrib $-1 -1 $-1 $-1 $30 1 1021474727 1021474727 745668610 3 #
face $65 -1 $-1 $66 $67 $23 $-1 $68 reversed single #
loop $-1 -1 $-1 $-1 $69 $30 #
plane-surface $-1 -1 $-1 0 0 63.499999999999993 0 0 1 1 0 0 forward_v I I I I #
model_id-kcp-attrib $-1 -1 $-1 $-1 $32 1 1021474727 1021474727 745668609 4 #
face $70 -1 $-1 $71 $72 $8 $-1 $73 forward single #
loop $-1 -1 $-1 $-1 $74 $32 #
plane-surface $-1 -1 $-1 12.699999999999999 2.5399999999999996 76.199999999999989 -1 0 0 0 0 25.399999999999999 forward_v I I I I #
coedge $-1 -1 $-1 $75 $55 $76 $77 forward $33 $-1 #
coedge $-1 -1 $-1 $78 $79 $80 $81 forward $35 $-1 #
coedge $-1 -1 $-1 $82 $36 $83 $84 forward $26 $-1 #
coedge $-1 -1 $-1 $36 $85 $86 $87 forward $26 $-1 #
coedge $-1 -1 $-1 $51 $88 $36 $56 reversed $33 $-1 #
edge $89 -1 $-1 $90 0 $91 2.5000000000000009 $36 $92 forward @7 unknown #
face $-1 -1 $-1 $93 $94 $20 $-1 $95 reversed single #
loop $-1 -1 $-1 $-1 $96 $37 #
plane-surface $-1 -1 $-1 0 2.5399999999999996 0 0 -1 0 0 0 -1 forward_v I I I I #
coedge $-1 -1 $-1 $97 $98 $96 $99 reversed $38 $-1 #
face $-1 -1 $-1 $100 $101 $22 $-1 $102 forward single #
loop $-1 -1 $-1 $-1 $103 $40 #
plane-surface $-1 -1 $-1 25.738967971530229 5.0799999999999992 23.239785364768686 -1 0 0 0 0 1 forward_v I I I I #
coedge $-1 -1 $-1 $104 $105 $106 $107 forward $41 $-1 #
model_id-kcp-attrib $-1 -1 $-1 $-1 $44 1 1021474727 1021474727 745668610 5 #
face $108 -1 $-1 $109 $110 $23 $-1 $111 reversed single #
loop $-1 -1 $-1 $-1 $112 $44 #
plane-surface $-1 -1 $-1 0 0 -63.499999999999993 0 0 1 1 0 0 forward_v I I I I #
coedge $-1 -1 $-1 $113 $114 $115 $116 forward $45 $-1 #
model_id-kcp-attrib $-1 -1 $-1 $-1 $48 1 1021474727 1021474727 745668609 5 #
face $117 -1 $-1 $118 $119 $8 $-1 $120 forward single #
loop $-1 -1 $-1 $-1 $121 $48 #
plane-surface $-1 -1 $-1 88.899999999999991 2.5399999999999996 12.699999999999999 0 0 -1 -25.399999999999999 0 0 forward_v I I I I #
coedge $-1 -1 $-1 $122 $86 $123 $124 forward $49 $-1 #
coedge $-1 -1 $-1 $88 $51 $125 $126 forward $33 $-1 #
coedge $-1 -1 $-1 $86 $122 $51 $77 reversed $49 $-1 #
edge $127 -1 $-1 $90 0 $128 0.19999999999999998 $76 $129 forward @7 unknown #
coedge $-1 -1 $-1 $130 $52 $131 $132 forward $35 $-1 #
coedge $-1 -1 $-1 $52 $130 $133 $134 forward $35 $-1 #
coedge $-1 -1 $-1 $135 $136 $52 $81 reversed $137 $-1 #
edge $138 -1 $-1 $139 0 $140 5.3019418843317414 $52 $141 forward @7 unknown #
coedge $-1 -1 $-1 $85 $53 $142 $143 forward $26 $-1 #
coedge $-1 -1 $-1 $144 $145 $53 $84 reversed $146 $-1 #
edge $147 -1 $-1 $91 3.9561384785732927e-016 $148 4.9497474683058327 $53 $149 forward @7 unknown #
coedge $-1 -1 $-1 $54 $82 $150 $151 forward $26 $-1 #
coedge $-1 -1 $-1 $74 $76 $54 $87 reversed $49 $-1 #
edge $152 -1 $-1 $153 0 $90 5 $54 $154 forward @7 unknown #
coedge $-1 -1 $-1 $55 $75 $144 $155 reversed $33 $-1 #
attrib_edge_convexity-kcp-attrib $-1 -1 $156 $-1 $56 1 #
vertex $-1 -1 $-1 $87 $157 #
vertex $-1 -1 $-1 $84 $158 #
straight-curve $-1 -1 $-1 12.699999999999976 5.0799999999999992 139.69999999999999 25.399999999999999 0 0 I I #
face $-1 -1 $-1 $159 $160 $20 $-1 $161 forward single #
loop $-1 -1 $-1 $-1 $162 $57 #
plane-surface $-1 -1 $-1 0 -2.5399999999999996 0 0 1 0 0 0 1 forward_v I I I I #
coedge $-1 -1 $-1 $163 $164 $60 $99 forward $58 $-1 #
coedge $-1 -1 $-1 $165 $60 $166 $167 reversed $38 $-1 #
coedge $-1 -1 $-1 $60 $165 $168 $169 reversed $38 $-1 #
edge $-1 -1 $-1 $170 -35.921024484276614 $171 89.80256121069155 $96 $172 forward @7 unknown #
face $-1 -1 $-1 $173 $174 $22 $-1 $175 forward single #
loop $-1 -1 $-1 $-1 $176 $61 #
plane-surface $-1 -1 $-1 25.738967971530229 5.0799999999999992 128.77181383451955 0 0 1 1 0 0 forward_v I I I I #
coedge $-1 -1 $-1 $177 $178 $179 $180 forward $62 $-1 #
coedge $-1 -1 $-1 $181 $64 $178 $182 reversed $41 $-1 #
coedge $-1 -1 $-1 $64 $181 $183 $184 forward $41 $-1 #
coedge $-1 -1 $-1 $185 $179 $64 $107 reversed $186 $-1 #
edge $-1 -1 $-1 $187 -4.984050399975672 $188 -2.7974123455122054e-016 $64 $189 forward @7 unknown #
model_id-kcp-attrib $-1 -1 $-1 $-1 $66 1 1021474727 1021474727 745668610 7 #
face $190 -1 $-1 $191 $192 $23 $-1 $193 reversed single #
loop $-1 -1 $-1 $-1 $194 $66 #
plane-surface $-1 -1 $-1 0 -2.5399999999999996 0 0 1 0 0 0 1 forward_v I I I I #
coedge $-1 -1 $-1 $195 $196 $197 $198 forward $67 $-1 #
coedge $-1 -1 $-1 $199 $69 $200 $201 forward $45 $-1 #
coedge $-1 -1 $-1 $69 $199 $202 $203 forward $45 $-1 #
coedge $-1 -1 $-1 $204 $205 $69 $116 reversed $206 $-1 #
edge $-1 -1 $-1 $207 -2.5399999999999996 $208 2.5399999999999996 $115 $209 forward @7 unknown #
model_id-kcp-attrib $-1 -1 $-1 $-1 $71 1 1021474727 1021474727 745668609 6 #
face $210 -1 $-1 $211 $146 $8 $-1 $212 forward single #
loop $-1 -1 $-1 $-1 $213 $71 #
plane-surface $-1 -1 $-1 165.09999999999999 2.5399999999999996 31.75 1 0 0 0 0 -25.399999999999999 forward_v I I I I #
coedge $-1 -1 $-1 $214 $150 $215 $216 forward $72 $-1 #
coedge $-1 -1 $-1 $76 $74 $217 $218 forward $49 $-1 #
coedge $-1 -1 $-1 $150 $214 $74 $124 reversed $72 $-1 #
edge $219 -1 $-1 $153 0 $220 0.19999999999999998 $74 $221 forward @7 unknown #
coedge $-1 -1 $-1 $217 $222 $75 $126 reversed $223 $-1 #
edge $224 -1 $-1 $128 0 $225 2.5000000000000009 $75 $226 forward @7 unknown #
attrib_edge_convexity-kcp-attrib $-1 -1 $227 $-1 $77 1 #
vertex $-1 -1 $-1 $77 $228 #
straight-curve $-1 -1 $-1 12.699999999999999 5.0799999999999992 139.69999999999999 0 -25.399999999999999 0 I I #
coedge $-1 -1 $-1 $79 $78 $229 $230 forward $35 $-1 #
coedge $-1 -1 $-1 $231 $232 $78 $132 reversed $233 $-1 #
edge $234 -1 $-1 $140 0 $235 1.6903914590747329 $78 $236 forward @7 unknown #
coedge $-1 -1 $-1 $237 $238 $79 $134 reversed $239 $-1 #
edge $240 -1 $-1 $241 0 $139 4.984050399975672 $79 $242 forward @7 unknown #
coedge $-1 -1 $-1 $243 $80 $238 $244 forward $137 $-1 #
coedge $-1 -1 $-1 $80 $243 $231 $245 reversed $137 $-1 #
loop $-1 -1 $-1 $-1 $135 $246 #
attrib_edge_convexity-kcp-attrib $-1 -1 $247 $-1 $81 1 #
vertex $-1 -1 $-1 $134 $248 #
vertex $-1 -1 $-1 $132 $249 #
straight-curve $-1 -1 $-1 152.33384813091229 5.0799999999999992 23.239785364768686 -15.778923821498706 0 19.904410642753046 I I #
coedge $-1 -1 $-1 $213 $215 $82 $143 reversed $119 $-1 #
edge $250 -1 $-1 $148 0 $251 1.4999999999999998 $82 $252 forward @7 unknown #
coedge $-1 -1 $-1 $253 $83 $88 $155 forward $146 $-1 #
coedge $-1 -1 $-1 $83 $253 $213 $254 reversed $146 $-1 #
loop $-1 -1 $-1 $-1 $144 $118 #
attrib_edge_convexity-kcp-attrib $-1 -1 $255 $-1 $84 1 #
vertex $-1 -1 $-1 $143 $256 #
straight-curve $-1 -1 $-1 76.199999999999974 5.0799999999999992 139.69999999999999 17.960512242138311 0 -17.9605122421383 I I #
coedge $-1 -1 $-1 $121 $123 $85 $151 reversed $72 $-1 #
edge $257 -1 $-1 $251 0 $153 6.0000000000000009 $85 $258 forward @7 unknown #
attrib_edge_convexity-kcp-attrib $-1 -1 $259 $-1 $87 1 #
vertex $-1 -1 $-1 $87 $260 #
straight-curve $-1 -1 $-1 12.699999999999999 5.0799999999999992 12.699999999999999 0 0 25.399999999999999 I I #
edge $261 -1 $-1 $91 0 $225 0.19999999999999998 $144 $262 forward @7 unknown #
convexity-sys-attrib $-1 -1 $-1 $89 $56 #
point $-1 -1 $-1 12.699999999999976 5.0799999999999992 139.69999999999999 #
point $-1 -1 $-1 76.199999999999989 5.0799999999999992 139.69999999999999 #
face $-1 -1 $-1 $-1 $263 $20 $-1 $264 reversed single #
loop $-1 -1 $-1 $-1 $168 $93 #
plane-surface $-1 -1 $-1 0 0 63.499999999999993 0 0 1 1 0 0 forward_v I I I I #
coedge $-1 -1 $-1 $265 $266 $165 $267 forward $94 $-1 #
coedge $-1 -1 $-1 $164 $96 $268 $269 reversed $58 $-1 #
coedge $-1 -1 $-1 $96 $163 $270 $271 forward $58 $-1 #
coedge $-1 -1 $-1 $98 $97 $162 $267 reversed $38 $-1 #
coedge $-1 -1 $-1 $270 $272 $97 $167 forward $263 $-1 #
edge $-1 -1 $-1 $273 -3.8099999999999996 $170 1.2699999999999998 $166 $274 forward @7 unknown #
coedge $-1 -1 $-1 $275 $268 $98 $169 forward $160 $-1 #
edge $-1 -1 $-1 $171 -1.2699999999999998 $276 3.8099999999999996 $168 $277 forward @7 unknown #
vertex $-1 -1 $-1 $99 $278 #
vertex $-1 -1 $-1 $99 $279 #
straight-curve $-1 -1 $-1 50.799999999999983 2.5399999999999996 1.7763568394002505e-015 -0.70710678118654779 0 0.70710678118654735 I I #
face $-1 -1 $-1 $280 $186 $22 $-1 $281 reversed single #
loop $-1 -1 $-1 $-1 $282 $100 #
plane-surface $-1 -1 $-1 68.674911032028433 5.0799999999999992 128.77181383451955 0.78363821428161595 0 0.62121747328735055 0.62121747328735055 0 -0.78363821428161595 forward_v I I I I #
coedge $-1 -1 $-1 $283 $284 $285 $286 forward $101 $-1 #
coedge $-1 -1 $-1 $287 $103 $284 $288 reversed $62 $-1 #
coedge $-1 -1 $-1 $103 $287 $104 $182 forward $62 $-1 #
coedge $-1 -1 $-1 $106 $285 $103 $180 reversed $186 $-1 #
edge $-1 -1 $-1 $188 -4.1548042704626322 $289 0 $103 $290 forward @7 unknown #
coedge $-1 -1 $-1 $105 $104 $291 $292 forward $41 $-1 #
edge $-1 -1 $-1 $293 0 $188 5.0799999999999992 $178 $294 forward @7 unknown #
coedge $-1 -1 $-1 $295 $282 $105 $184 reversed $174 $-1 #
edge $-1 -1 $-1 $296 0 $187 5.0799999999999992 $105 $297 forward @7 unknown #
coedge $-1 -1 $-1 $285 $106 $282 $298 reversed $186 $-1 #
loop $-1 -1 $-1 $-1 $106 $173 #
vertex $-1 -1 $-1 $184 $299 #
vertex $-1 -1 $-1 $182 $300 #
straight-curve $-1 -1 $-1 25.738967971530222 0 23.239785364768686 -25.399999999999999 0 0 I I #
model_id-kcp-attrib $-1 -1 $-1 $-1 $109 1 1021474727 1021474727 745668610 4 #
face $301 -1 $-1 $302 $303 $23 $-1 $304 reversed single #
loop $-1 -1 $-1 $-1 $305 $109 #
plane-surface $-1 -1 $-1 -76.200000000000017 0 0 1 0 0 0 0 -1 forward_v I I I I #
coedge $-1 -1 $-1 $306 $202 $307 $308 forward $110 $-1 #
coedge $-1 -1 $-1 $309 $112 $306 $310 forward $67 $-1 #
coedge $-1 -1 $-1 $112 $309 $311 $312 forward $67 $-1 #
coedge $-1 -1 $-1 $205 $204 $112 $198 reversed $206 $-1 #
edge $-1 -1 $-1 $313 -2.5399999999999996 $314 2.5399999999999996 $197 $315 forward @7 unknown #
coedge $-1 -1 $-1 $114 $113 $316 $317 forward $45 $-1 #
coedge $-1 -1 $-1 $318 $319 $113 $201 reversed $303 $-1 #
edge $-1 -1 $-1 $208 -76.200000000000017 $320 76.200000000000017 $200 $321 forward @7 unknown #
coedge $-1 -1 $-1 $194 $322 $114 $203 reversed $110 $-1 #
edge $-1 -1 $-1 $323 -76.200000000000017 $207 76.200000000000017 $202 $324 forward @7 unknown #
coedge $-1 -1 $-1 $197 $115 $322 $325 forward $206 $-1 #
coedge $-1 -1 $-1 $115 $197 $318 $326 reversed $206 $-1 #
loop $-1 -1 $-1 $-1 $204 $302 #
vertex $-1 -1 $-1 $116 $327 #
vertex $-1 -1 $-1 $116 $328 #
straight-curve $-1 -1 $-1 76.200000000000017 0 63.499999999999993 0 1 0 I I #
model_id-kcp-attrib $-1 -1 $-1 $-1 $118 1 1021474727 1021474727 745668609 7 #
face $329 -1 $-1 $330 $223 $8 $-1 $331 forward single #
plane-surface $-1 -1 $-1 120.64999999999999 2.5399999999999996 95.25 0.70710678118654735 0 0.70710678118654779 17.960512242138314 0 -17.9605122421383 forward_v I I I I #
coedge $-1 -1 $-1 $332 $142 $145 $254 forward $119 $-1 #
coedge $-1 -1 $-1 $123 $121 $333 $334 forward $72 $-1 #
coedge $-1 -1 $-1 $142 $332 $121 $216 reversed $119 $-1 #
edge $-1 -1 $-1 $251 0 $335 0.19999999999999998 $121 $336 forward @7 unknown #
coedge $-1 -1 $-1 $333 $125 $122 $218 reversed $223 $-1 #
edge $337 -1 $-1 $220 0 $128 5 $122 $338 forward @7 unknown #
attrib_edge_convexity-kcp-attrib $-1 -1 $339 $-1 $124 1 #
vertex $-1 -1 $-1 $218 $340 #
straight-curve $-1 -1 $-1 12.699999999999999 5.0799999999999992 12.699999999999999 0 -25.399999999999999 0 I I #
coedge $-1 -1 $-1 $125 $341 $253 $342 reversed $223 $-1 #
loop $-1 -1 $-1 $343 $333 $211 #
model_id-kcp-attrib $-1 -1 $344 $-1 $126 1 1021474727 1021474727 745668609 15 #
vertex $-1 -1 $-1 $342 $345 #
straight-curve $-1 -1 $-1 12.699999999999976 0 139.69999999999999 25.399999999999999 0 0 I I #
convexity-sys-attrib $-1 -1 $-1 $127 $77 #
point $-1 -1 $-1 12.699999999999976 0 139.69999999999999 #
coedge $-1 -1 $-1 $346 $347 $130 $230 reversed $348 $-1 #
edge $349 -1 $-1 $235 0 $241 4.1548042704626322 $130 $350 forward @7 unknown #
coedge $-1 -1 $-1 $351 $131 $136 $245 forward $233 $-1 #
coedge $-1 -1 $-1 $131 $351 $346 $352 reversed $233 $-1 #
loop $-1 -1 $-1 $-1 $231 $353 #
attrib_edge_convexity-kcp-attrib $-1 -1 $354 $-1 $132 1 #
vertex $-1 -1 $-1 $230 $355 #
straight-curve $-1 -1 $-1 68.674911032028433 5.0799999999999992 128.77181383451955 -25.399999999999999 0 0 I I #
coedge $-1 -1 $-1 $356 $133 $347 $357 forward $239 $-1 #
coedge $-1 -1 $-1 $133 $356 $135 $244 reversed $239 $-1 #
loop $-1 -1 $-1 $-1 $237 $358 #
attrib_edge_convexity-kcp-attrib $-1 -1 $359 $-1 $134 1 #
vertex $-1 -1 $-1 $134 $360 #
straight-curve $-1 -1 $-1 25.738967971530222 5.0799999999999992 23.239785364768686 25.399999999999999 0 0 I I #
coedge $-1 -1 $-1 $136 $135 $361 $362 forward $137 $-1 #
edge $-1 -1 $-1 $139 0 $363 0.19999999999999998 $238 $364 forward @7 unknown #
edge $-1 -1 $-1 $140 0 $365 0.19999999999999998 $231 $366 forward @7 unknown #
face $367 -1 $-1 $358 $137 $8 $-1 $368 forward single #
convexity-sys-attrib $-1 -1 $-1 $138 $81 #
point $-1 -1 $-1 152.33384813091229 5.0799999999999992 23.239785364768686 #
point $-1 -1 $-1 68.674911032028433 5.0799999999999992 128.77181383451955 #
attrib_edge_convexity-kcp-attrib $-1 -1 $369 $-1 $143 1 #
vertex $-1 -1 $-1 $151 $370 #
straight-curve $-1 -1 $-1 165.09999999999999 5.0799999999999992 50.799999999999997 0 0 -25.399999999999999 I I #
coedge $-1 -1 $-1 $145 $144 $222 $342 forward $146 $-1 #
edge $371 -1 $-1 $148 0 $372 0.19999999999999998 $213 $373 forward @7 unknown #
convexity-sys-attrib $-1 -1 $-1 $147 $84 #
point $-1 -1 $-1 165.09999999999999 5.0799999999999992 50.799999999999997 #
attrib_edge_convexity-kcp-attrib $-1 -1 $374 $-1 $151 1 #
straight-curve $-1 -1 $-1 165.09999999999999 5.0799999999999992 12.699999999999999 -25.399999999999999 0 0 I I #
convexity-sys-attrib $-1 -1 $-1 $152 $87 #
point $-1 -1 $-1 12.699999999999999 5.0799999999999992 12.699999999999999 #
attrib_edge_convexity-kcp-attrib $-1 -1 $375 $-1 $155 1 #
straight-curve $-1 -1 $-1 76.199999999999974 5.0799999999999992 139.69999999999999 0 -25.399999999999999 0 I I #
loop $-1 -1 $-1 $-1 $166 $159 #
plane-surface $-1 -1 $-1 76.200000000000017 0 0 -1 0 0 0 0 1 forward_v I I I I #
coedge $-1 -1 $-1 $266 $162 $272 $376 reversed $94 $-1 #
coedge $-1 -1 $-1 $162 $265 $275 $377 reversed $94 $-1 #
edge $-1 -1 $-1 $276 -89.80256121069155 $273 35.921024484276614 $162 $378 forward @7 unknown #
coedge $-1 -1 $-1 $168 $379 $163 $269 forward $160 $-1 #
edge $-1 -1 $-1 $380 -76.200000000000017 $171 12.700000000000044 $163 $381 forward @7 unknown #
coedge $-1 -1 $-1 $382 $166 $164 $271 reversed $263 $-1 #
edge $-1 -1 $-1 $380 -63.499999999999993 $170 25.399999999999991 $270 $383 forward @7 unknown #
coedge $-1 -1 $-1 $166 $382 $265 $376 forward $263 $-1 #
vertex $-1 -1 $-1 $267 $384 #
straight-curve $-1 -1 $-1 76.200000000000017 1.2699999999999998 -25.400000000000023 0 1 0 I I #
coedge $-1 -1 $-1 $379 $168 $266 $377 forward $160 $-1 #
vertex $-1 -1 $-1 $377 $385 #
straight-curve $-1 -1 $-1 -12.700000000000053 1.2699999999999998 63.499999999999986 0 -1 0 I I #
point $-1 -1 $-1 76.199999999999989 2.5399999999999996 -25.399999999999991 #
point $-1 -1 $-1 -12.700000000000044 2.5399999999999996 63.499999999999993 #
face $-1 -1 $-1 $-1 $386 $22 $-1 $387 forward single #
plane-surface $-1 -1 $-1 75.405997624569153 0 65.232057801380805 4.4158821410473259e-032 1 1.4605861433049482e-031 0 -1.4605861433049482e-031 1 forward_v I I I I #
coedge $-1 -1 $-1 $183 $388 $185 $298 forward $174 $-1 #
coedge $-1 -1 $-1 $389 $176 $388 $390 reversed $101 $-1 #
coedge $-1 -1 $-1 $176 $389 $177 $288 forward $101 $-1 #
coedge $-1 -1 $-1 $179 $185 $176 $286 reversed $186 $-1 #
edge $-1 -1 $-1 $289 -1.6903914590747324 $391 0 $176 $392 forward @7 unknown #
coedge $-1 -1 $-1 $178 $177 $393 $394 forward $62 $-1 #
edge $-1 -1 $-1 $395 0 $289 5.0799999999999992 $284 $396 forward @7 unknown #
vertex $-1 -1 $-1 $288 $397 #
straight-curve $-1 -1 $-1 25.738967971530222 0 128.77181383451955 0 0 25.399999999999999 I I #
coedge $-1 -1 $-1 $393 $398 $181 $292 reversed $386 $-1 #
edge $-1 -1 $-1 $293 0 $296 4.984050399975672 $181 $399 forward @7 unknown #
vertex $-1 -1 $-1 $394 $400 #
straight-curve $-1 -1 $-1 25.738967971530229 5.0799999999999992 23.239785364768686 0 -1 0 I I #
coedge $-1 -1 $-1 $388 $183 $398 $401 forward $174 $-1 #
vertex $-1 -1 $-1 $401 $402 #
straight-curve $-1 -1 $-1 152.33384813091229 5.0799999999999992 23.239785364768686 0 -1 0 I I #
edge $-1 -1 $-1 $391 -5.3019418843317414 $187 0 $282 $403 forward @7 unknown #
point $-1 -1 $-1 152.33384813091229 0 23.239785364768686 #
point $-1 -1 $-1 25.738967971530229 0 23.239785364768686 #
model_id-kcp-attrib $-1 -1 $-1 $-1 $191 1 1021474727 1021474727 745668610 2 #
face $404 -1 $-1 $-1 $206 $23 $-1 $405 reversed single #
loop $-1 -1 $-1 $-1 $318 $191 #
plane-surface $-1 -1 $-1 0 2.5399999999999996 0 0 -1 0 0 0 -1 forward_v I I I I #
coedge $-1 -1 $-1 $406 $316 $319 $407 forward $192 $-1 #
coedge $-1 -1 $-1 $322 $194 $195 $310 reversed $110 $-1 #
coedge $-1 -1 $-1 $316 $406 $194 $308 reversed $192 $-1 #
edge $-1 -1 $-1 $323 -63.499999999999993 $408 63.499999999999993 $307 $409 forward @7 unknown #
coedge $-1 -1 $-1 $196 $195 $406 $410 forward $67 $-1 #
edge $-1 -1 $-1 $314 -76.200000000000017 $408 76.200000000000017 $306 $411 forward @7 unknown #
coedge $-1 -1 $-1 $319 $318 $196 $312 reversed $303 $-1 #
edge $-1 -1 $-1 $412 -76.200000000000017 $313 76.200000000000017 $311 $413 forward @7 unknown #
vertex $-1 -1 $-1 $198 $414 #
vertex $-1 -1 $-1 $325 $415 #
straight-curve $-1 -1 $-1 76.200000000000017 0 -63.499999999999993 0 -1 0 I I #
coedge $-1 -1 $-1 $305 $307 $199 $317 reversed $192 $-1 #
edge $-1 -1 $-1 $320 -2.5399999999999996 $323 2.5399999999999996 $316 $416 forward @7 unknown #
coedge $-1 -1 $-1 $311 $200 $205 $326 forward $303 $-1 #
coedge $-1 -1 $-1 $200 $311 $305 $407 reversed $303 $-1 #
vertex $-1 -1 $-1 $201 $417 #
straight-curve $-1 -1 $-1 0 2.5399999999999996 63.499999999999993 -1 0 0 I I #
coedge $-1 -1 $-1 $202 $306 $204 $325 reversed $110 $-1 #
vertex $-1 -1 $-1 $317 $418 #
straight-curve $-1 -1 $-1 0 -2.5399999999999996 63.499999999999993 1 0 0 I I #
edge $-1 -1 $-1 $207 -63.499999999999993 $314 63.499999999999993 $204 $419 forward @7 unknown #
edge $-1 -1 $-1 $208 -63.499999999999993 $313 63.499999999999993 $205 $420 forward @7 unknown #
point $-1 -1 $-1 76.200000000000017 -2.5399999999999996 63.499999999999993 #
point $-1 -1 $-1 76.200000000000017 2.5399999999999996 63.499999999999993 #
model_id-kcp-attrib $-1 -1 $-1 $-1 $211 1 1021474727 1021474727 745668609 8 #
face $421 -1 $-1 $353 $348 $8 $-1 $422 forward single #
plane-surface $-1 -1 $-1 0 0 0 0 -1 0 25.399999999999999 0 0 forward_v I I I I #
coedge $-1 -1 $-1 $215 $213 $341 $423 forward $119 $-1 #
coedge $-1 -1 $-1 $341 $217 $214 $334 reversed $223 $-1 #
edge $424 -1 $-1 $335 0 $220 6.0000000000000009 $214 $425 forward @7 unknown #
vertex $-1 -1 $-1 $334 $426 #
straight-curve $-1 -1 $-1 165.09999999999999 5.0799999999999992 12.699999999999999 0 -25.399999999999999 0 I I #
model_id-kcp-attrib $-1 -1 $427 $-1 $218 1 1021474727 1021474727 745668609 14 #
straight-curve $-1 -1 $-1 12.699999999999999 0 12.699999999999999 0 0 25.399999999999999 I I #
convexity-sys-attrib $-1 -1 $-1 $219 $124 #
point $-1 -1 $-1 12.699999999999999 0 12.699999999999999 #
coedge $-1 -1 $-1 $222 $333 $332 $423 reversed $223 $-1 #
edge $428 -1 $-1 $225 3.9561384785732927e-016 $372 4.9497474683058336 $253 $429 forward @7 unknown #
loop $-1 -1 $-1 $-1 $430 $211 #
attrib_edge_convexity-kcp-attrib $-1 -1 $431 $224 $126 1 #
point $-1 -1 $-1 76.199999999999989 0 139.69999999999999 #
coedge $-1 -1 $-1 $432 $229 $232 $352 forward $348 $-1 #
coedge $-1 -1 $-1 $229 $432 $237 $357 reversed $348 $-1 #
loop $-1 -1 $-1 $-1 $346 $330 #
attrib_edge_convexity-kcp-attrib $-1 -1 $433 $-1 $230 1 #
straight-curve $-1 -1 $-1 25.738967971530222 5.0799999999999992 128.77181383451955 0 0 -25.399999999999999 I I #
coedge $-1 -1 $-1 $232 $231 $434 $435 forward $233 $-1 #
edge $-1 -1 $-1 $235 0 $436 0.19999999999999998 $346 $437 forward @7 unknown #
face $438 -1 $-1 $246 $233 $8 $-1 $439 forward single #
convexity-sys-attrib $-1 -1 $-1 $234 $132 #
point $-1 -1 $-1 25.738967971530222 5.0799999999999992 128.77181383451955 #
coedge $-1 -1 $-1 $238 $237 $440 $441 forward $239 $-1 #
edge $-1 -1 $-1 $241 0 $442 0.19999999999999998 $237 $443 forward @7 unknown #
face $444 -1 $-1 $-1 $239 $8 $-1 $445 forward single #
convexity-sys-attrib $-1 -1 $-1 $240 $134 #
point $-1 -1 $-1 25.738967971530222 5.0799999999999992 23.239785364768686 #
coedge $-1 -1 $-1 $440 $434 $243 $362 reversed $343 $-1 #
edge $-1 -1 $-1 $363 0 $365 5.3019418843317423 $361 $446 forward @7 unknown #
vertex $-1 -1 $-1 $441 $447 #
straight-curve $-1 -1 $-1 152.33384813091229 5.0799999999999992 23.239785364768686 0 -25.399999999999999 0 I I #
vertex $-1 -1 $-1 $362 $448 #
straight-curve $-1 -1 $-1 68.674911032028419 5.0799999999999992 128.77181383451955 0 -25.399999999999999 0 I I #
model_id-kcp-attrib $-1 -1 $-1 $-1 $246 1 1021474727 1021474727 745668609 11 #
plane-surface $-1 -1 $-1 110.50437958147036 2.5399999999999996 76.005799599644121 -0.78363821428161595 0 -0.62121747328735055 -15.778923821498703 0 19.904410642753046 forward_v I I I I #
convexity-sys-attrib $-1 -1 $-1 $250 $143 #
point $-1 -1 $-1 165.09999999999999 5.0799999999999992 12.699999999999999 #
attrib_edge_convexity-kcp-attrib $-1 -1 $449 $-1 $254 1 #
vertex $-1 -1 $-1 $423 $450 #
straight-curve $-1 -1 $-1 165.09999999999999 5.0799999999999992 50.799999999999997 0 -25.399999999999999 0 I I #
convexity-sys-attrib $-1 -1 $-1 $257 $151 #
convexity-sys-attrib $-1 -1 $-1 $261 $155 #
edge $-1 -1 $-1 $451 -63.499999999999993 $273 25.399999999999991 $272 $452 forward @7 unknown #
edge $-1 -1 $-1 $276 -12.700000000000044 $451 76.200000000000017 $266 $453 forward @7 unknown #
straight-curve $-1 -1 $-1 50.799999999999983 -2.54 1.7763568394002505e-015 0.70710678118654779 0 -0.70710678118654735 I I #
coedge $-1 -1 $-1 $268 $275 $382 $454 forward $160 $-1 #
vertex $-1 -1 $-1 $454 $455 #
straight-curve $-1 -1 $-1 0 2.5399999999999996 63.499999999999993 -1 0 0 I I #
coedge $-1 -1 $-1 $272 $270 $379 $454 reversed $263 $-1 #
straight-curve $-1 -1 $-1 76.200000000000017 2.5399999999999996 0 0 0 -1 I I #
point $-1 -1 $-1 76.199999999999989 -2.5399999999999996 -25.399999999999991 #
point $-1 -1 $-1 -12.700000000000044 -2.5399999999999996 63.499999999999993 #
loop $-1 -1 $-1 $-1 $398 $280 #
plane-surface $-1 -1 $-1 75.405997624569153 5.0799999999999992 65.232057801380805 4.4158821410473259e-032 1 1.4605861433049482e-031 0 -1.4605861433049482e-031 1 forward_v I I I I #
coedge $-1 -1 $-1 $282 $295 $283 $390 forward $174 $-1 #
coedge $-1 -1 $-1 $284 $283 $456 $457 forward $101 $-1 #
edge $-1 -1 $-1 $458 0 $391 5.0799999999999992 $388 $459 forward @7 unknown #
vertex $-1 -1 $-1 $390 $460 #
straight-curve $-1 -1 $-1 68.674911032028433 0 128.77181383451955 25.399999999999999 0 0 I I #
coedge $-1 -1 $-1 $456 $291 $287 $394 reversed $386 $-1 #
edge $-1 -1 $-1 $395 0 $293 4.1548042704626322 $287 $461 forward @7 unknown #
vertex $-1 -1 $-1 $457 $462 #
straight-curve $-1 -1 $-1 25.738967971530229 5.0799999999999992 128.77181383451955 0 -1 0 I I #
point $-1 -1 $-1 25.738967971530229 0 128.77181383451955 #
coedge $-1 -1 $-1 $291 $456 $295 $401 reversed $386 $-1 #
straight-curve $-1 -1 $-1 25.738967971530222 5.0799999999999992 23.239785364768686 25.399999999999999 0 0 I I #
point $-1 -1 $-1 25.738967971530222 5.0799999999999992 23.239785364768686 #
edge $-1 -1 $-1 $296 0 $458 5.3019418843317414 $295 $463 forward @7 unknown #
point $-1 -1 $-1 152.33384813091229 5.0799999999999992 23.239785364768686 #
straight-curve $-1 -1 $-1 152.33384813091229 0 23.239785364768686 15.778923821498706 0 -19.904410642753046 I I #
model_id-kcp-attrib $-1 -1 $-1 $-1 $302 1 1021474727 1021474727 745668610 6 #
plane-surface $-1 -1 $-1 76.200000000000017 0 0 -1 0 0 0 0 1 forward_v I I I I #
coedge $-1 -1 $-1 $307 $305 $309 $410 reversed $192 $-1 #
edge $-1 -1 $-1 $320 -63.499999999999993 $412 63.499999999999993 $319 $464 forward @7 unknown #
vertex $-1 -1 $-1 $410 $465 #
straight-curve $-1 -1 $-1 -76.200000000000017 -2.5399999999999996 0 0 0 -1 I I #
edge $-1 -1 $-1 $408 -2.5399999999999996 $412 2.5399999999999996 $406 $466 forward @7 unknown #
straight-curve $-1 -1 $-1 0 -2.5399999999999996 -63.499999999999993 -1 0 0 I I #
vertex $-1 -1 $-1 $312 $467 #
straight-curve $-1 -1 $-1 0 2.5399999999999996 -63.499999999999993 1 0 0 I I #
point $-1 -1 $-1 76.200000000000017 2.5399999999999996 -63.499999999999993 #
point $-1 -1 $-1 76.200000000000017 -2.5399999999999996 -63.499999999999993 #
straight-curve $-1 -1 $-1 -76.200000000000017 0 63.499999999999993 0 -1 0 I I #
point $-1 -1 $-1 -76.200000000000017 2.5399999999999996 63.499999999999993 #
point $-1 -1 $-1 -76.200000000000017 -2.5399999999999996 63.499999999999993 #
straight-curve $-1 -1 $-1 76.200000000000017 -2.5399999999999996 0 0 0 -1 I I #
straight-curve $-1 -1 $-1 76.200000000000017 2.5399999999999996 0 0 0 -1 I I #
model_id-kcp-attrib $-1 -1 $-1 $-1 $330 1 1021474727 1021474727 745668609 9 #
plane-surface $-1 -1 $-1 25.738967971530222 2.5399999999999996 76.005799599644121 1 0 0 0 0 -25.399999999999999 forward_v I I I I #
edge $468 -1 $-1 $372 0 $335 1.4999999999999998 $332 $469 forward @7 unknown #
model_id-kcp-attrib $-1 -1 $-1 $-1 $334 1 1021474727 1021474727 745668609 17 #
straight-curve $-1 -1 $-1 165.09999999999999 0 12.699999999999999 -25.399999999999999 0 0 I I #
point $-1 -1 $-1 165.09999999999999 0 12.699999999999999 #
attrib_edge_convexity-kcp-attrib $-1 -1 $470 $337 $218 1 #
attrib_edge_convexity-kcp-attrib $-1 -1 $471 $-1 $342 1 #
straight-curve $-1 -1 $-1 76.199999999999974 0 139.69999999999999 17.960512242138311 0 -17.9605122421383 I I #
coedge $-1 -1 $-1 $434 $440 $432 $472 reversed $343 $-1 #
convexity-sys-attrib $-1 -1 $-1 $344 $126 #
coedge $-1 -1 $-1 $347 $346 $430 $472 forward $348 $-1 #
convexity-sys-attrib $-1 -1 $-1 $349 $230 #
coedge $-1 -1 $-1 $361 $430 $351 $435 reversed $343 $-1 #
edge $-1 -1 $-1 $365 5.5948246910244108e-016 $436 1.6903914590747329 $434 $473 forward @7 unknown #
vertex $-1 -1 $-1 $435 $474 #
straight-curve $-1 -1 $-1 25.738967971530222 5.0799999999999992 128.77181383451955 0 -25.399999999999999 0 I I #
model_id-kcp-attrib $-1 -1 $-1 $-1 $353 1 1021474727 1021474727 745668609 10 #
plane-surface $-1 -1 $-1 47.206939501779324 2.5399999999999996 128.77181383451955 0 0 -1 -25.399999999999999 0 0 forward_v I I I I #
coedge $-1 -1 $-1 $430 $361 $356 $441 reversed $343 $-1 #
edge $-1 -1 $-1 $442 0 $363 4.984050399975672 $440 $475 forward @7 unknown #
vertex $-1 -1 $-1 $441 $476 #
straight-curve $-1 -1 $-1 25.738967971530222 5.0799999999999992 23.239785364768686 0 -25.399999999999999 0 I I #
model_id-kcp-attrib $-1 -1 $-1 $-1 $358 1 1021474727 1021474727 745668609 12 #
plane-surface $-1 -1 $-1 89.036408051221258 2.5399999999999996 23.239785364768686 0 0 1 25.399999999999999 0 0 forward_v I I I I #
straight-curve $-1 -1 $-1 152.33384813091229 0 23.239785364768686 -15.778923821498706 0 19.904410642753046 I I #
point $-1 -1 $-1 152.33384813091229 0 23.239785364768686 #
point $-1 -1 $-1 68.674911032028419 0 128.77181383451955 #
convexity-sys-attrib $-1 -1 $-1 $371 $254 #
point $-1 -1 $-1 165.10000000000002 0 50.799999999999997 #
vertex $-1 -1 $-1 $454 $477 #
straight-curve $-1 -1 $-1 76.200000000000017 -2.5399999999999996 0 0 0 -1 I I #
straight-curve $-1 -1 $-1 0 -2.5399999999999996 63.499999999999993 1 0 0 I I #
edge $-1 -1 $-1 $451 -2.5399999999999996 $380 2.5399999999999996 $382 $478 forward @7 unknown #
point $-1 -1 $-1 76.200000000000017 2.5399999999999996 63.499999999999993 #
coedge $-1 -1 $-1 $398 $393 $389 $457 reversed $386 $-1 #
edge $-1 -1 $-1 $458 0 $395 1.6903914590747329 $389 $479 forward @7 unknown #
vertex $-1 -1 $-1 $401 $480 #
straight-curve $-1 -1 $-1 68.674911032028433 5.0799999999999992 128.77181383451955 0 -1 0 I I #
point $-1 -1 $-1 68.674911032028433 0 128.77181383451955 #
straight-curve $-1 -1 $-1 25.738967971530222 5.0799999999999992 128.77181383451955 0 0 -25.399999999999999 I I #
point $-1 -1 $-1 25.738967971530222 5.0799999999999992 128.77181383451955 #
straight-curve $-1 -1 $-1 152.33384813091229 5.0799999999999992 23.239785364768686 -15.778923821498706 0 19.904410642753046 I I #
straight-curve $-1 -1 $-1 -76.200000000000017 2.5399999999999996 0 0 0 -1 I I #
point $-1 -1 $-1 -76.200000000000017 -2.5399999999999996 -63.499999999999993 #
straight-curve $-1 -1 $-1 -76.200000000000017 0 -63.499999999999993 0 1 0 I I #
point $-1 -1 $-1 -76.200000000000017 2.5399999999999996 -63.499999999999993 #
model_id-kcp-attrib $-1 -1 $-1 $-1 $423 1 1021474727 1021474727 745668609 16 #
straight-curve $-1 -1 $-1 165.09999999999999 0 50.799999999999997 0 0 -25.399999999999999 I I #
convexity-sys-attrib $-1 -1 $-1 $427 $218 #
convexity-sys-attrib $-1 -1 $-1 $428 $342 #
edge $-1 -1 $-1 $436 0 $442 4.1548042704626322 $430 $481 forward @7 unknown #
straight-curve $-1 -1 $-1 68.674911032028433 0 128.77181383451955 -25.399999999999999 0 0 I I #
point $-1 -1 $-1 25.738967971530222 0 128.77181383451955 #
straight-curve $-1 -1 $-1 25.738967971530222 0 23.239785364768686 25.399999999999999 0 0 I I #
point $-1 -1 $-1 25.738967971530222 0 23.239785364768686 #
point $-1 -1 $-1 76.200000000000017 -2.5399999999999996 63.499999999999993 #
straight-curve $-1 -1 $-1 76.200000000000017 0 63.499999999999993 0 1 0 I I #
straight-curve $-1 -1 $-1 68.674911032028433 5.0799999999999992 128.77181383451955 -25.399999999999999 0 0 I I #
point $-1 -1 $-1 68.674911032028433 5.0799999999999992 128.77181383451955 #
straight-curve $-1 -1 $-1 25.738967971530222 0 128.77181383451955 0 0 -25.399999999999999 I I #
End-of-ACIS-data 