600 0 1 0           
117 GICL Pro/E ACIS Translator - Source: f:/data5/repository/PTC/V20/NC_Training_Rel20/exercise_4/part_multi_12.prt - 6 0 13 ACIS 6.0.3 NT 24 Thu Apr 04 13:14:13 2002 
1 9.9999999999999995e-007 1e-010 
body $-1 $1 $-1 $2 #
lump $-1 $-1 $3 $0 #
transform $-1 1 0 0 0 1 0 0 0 1 0 0 0 25.399999999999999 no_rotate no_reflect no_shear #
shell $-1 $-1 $-1 $4 $-1 $1 #
face $-1 $5 $6 $3 $-1 $7 reversed single #
face $-1 $8 $9 $3 $-1 $10 forward single #
loop $-1 $-1 $11 $4 #
plane-surface $-1 0 0.19999999999999998 0 0 -1 0 1 0 0 forward_v I I I I #
face $-1 $12 $13 $3 $-1 $14 forward single #
loop $-1 $-1 $15 $5 #
plane-surface $-1 2.7999999999999998 0.099999999999999992 2.25 0.6055218324832623 0 0.79582869412085921 0.79582869412085921 0 -0.6055218324832623 forward_v I I I I #
coedge $-1 $16 $17 $18 $19 forward $6 $-1 #
face $-1 $20 $21 $3 $-1 $22 forward single #
loop $-1 $-1 $23 $8 #
plane-surface $-1 0.5 0.099999999999999992 2.25 -1 0 0 0 0 1 forward_v I I I I #
coedge $-1 $24 $18 $25 $26 forward $9 $-1 #
coedge $-1 $17 $11 $27 $28 forward $6 $-1 #
coedge $-1 $11 $16 $29 $30 forward $6 $-1 #
coedge $-1 $15 $31 $11 $19 reversed $9 $-1 #
edge $-1 $32 3.5341893594813949e-016 $33 5.78013840664737 $11 $34 forward 7 unknown #
face $-1 $-1 $35 $3 $-1 $36 forward single #
loop $-1 $-1 $37 $12 #
plane-surface $-1 2.7999999999999998 0.099999999999999992 0.5 0 0 -1 -1 0 0 forward_v I I I I #
coedge $-1 $38 $29 $39 $40 forward $13 $-1 #
coedge $-1 $31 $15 $41 $42 forward $9 $-1 #
coedge $-1 $29 $38 $15 $26 reversed $13 $-1 #
edge $-1 $32 0 $43 0.19999999999999998 $25 $44 forward 7 unknown #
coedge $-1 $37 $39 $16 $28 reversed $21 $-1 #
edge $-1 $33 0 $45 4.5999999999999996 $16 $46 forward 7 unknown #
coedge $-1 $23 $25 $17 $30 reversed $13 $-1 #
edge $-1 $45 0 $32 3.5 $17 $47 forward 7 unknown #
coedge $-1 $18 $24 $37 $48 reversed $9 $-1 #
vertex $-1 $30 $49 #
vertex $-1 $28 $50 #
straight-curve $-1 0.49999999999999956 0.19999999999999998 4 0.7958286941208591 0 -0.60552183248326241 I I #
loop $-1 $-1 $51 $20 #
plane-surface $-1 0 0 0 0 -1 0 1 0 0 forward_v I I I I #
coedge $-1 $52 $27 $31 $48 forward $21 $-1 #
coedge $-1 $25 $23 $53 $54 forward $13 $-1 #
coedge $-1 $27 $52 $23 $40 reversed $21 $-1 #
edge $-1 $45 0 $55 0.19999999999999998 $23 $56 forward 7 unknown #
coedge $-1 $53 $51 $24 $42 reversed $35 $-1 #
edge $-1 $43 3.5341893594813949e-016 $57 5.78013840664737 $41 $58 forward 7 unknown #
vertex $-1 $54 $59 #
straight-curve $-1 0.49999999999999956 0.19999999999999998 4 0 -1 0 I I #
vertex $-1 $30 $60 #
straight-curve $-1 5.0999999999999996 0.19999999999999998 0.5 -1 0 0 I I #
straight-curve $-1 0.5 0.19999999999999998 0.5 0 0 1 I I #
edge $-1 $33 0 $57 0.19999999999999998 $37 $61 forward 7 unknown #
point $-1 0.5 0.19999999999999998 4 #
point $-1 5.0999999999999996 0.19999999999999998 0.5 #
coedge $-1 $41 $53 $52 $62 reversed $35 $-1 #
coedge $-1 $39 $37 $51 $62 forward $21 $-1 #
coedge $-1 $51 $41 $38 $54 reversed $35 $-1 #
edge $-1 $55 0 $43 3.5 $53 $63 forward 7 unknown #
vertex $-1 $54 $64 #
straight-curve $-1 0.5 0.19999999999999998 0.5 0 -1 0 I I #
vertex $-1 $42 $65 #
straight-curve $-1 0.49999999999999956 0 4 0.7958286941208591 0 -0.60552183248326241 I I #
point $-1 0.5 0 4 #
point $-1 0.5 0.19999999999999998 0.5 #
straight-curve $-1 5.0999999999999996 0.19999999999999998 0.5 0 -1 0 I I #
edge $-1 $57 0 $55 4.5999999999999996 $51 $66 forward 7 unknown #
straight-curve $-1 0.5 0 0.5 0 0 1 I I #
point $-1 0.5 0 0.5 #
point $-1 5.0999999999999996 0 0.50000000000000022 #
straight-curve $-1 5.0999999999999996 0 0.5 -1 0 0 I I #
End-of-ACIS-data 