600 0 1 0           
119 GICL ACIS Healer - Source: /gicl/data5/repository/ICEM-CDC/Fixture_Models/SupportCylinder10/SupportCylinder10.sat - 6 0 18 ACIS 6.0.3 Solaris 24 Sat Apr 13 23:06:20 2002 
1 9.999999999999999547e-07 1.000000000000000036e-10 
body $-1 $1 $-1 $2 #
lump $-1 $-1 $3 $0 #
transform $-1 1 0 0 0 1 0 0 0 1 0 0 0 1 no_rotate no_reflect no_shear #
shell $-1 $-1 $-1 $4 $-1 $1 #
face $5 $6 $7 $3 $-1 $8 reversed single #
face_name-twe-attrib $-1 $-1 $-1 $4 1 #
face $9 $10 $11 $3 $-1 $12 reversed single #
loop $13 $14 $15 $4 #
plane-surface $16 1 0.25 0 0 -1 0 0 0 -1 forward_v I I I I #
face_name-twe-attrib $-1 $-1 $-1 $6 2 #
face $17 $18 $19 $3 $-1 $20 forward single #
loop $21 $22 $23 $6 #
plane-surface $24 1 0 0 0 -1 0 0 0 -1 forward_v I I I I #
loop_type-twe-attrib $-1 $-1 $-1 $7 1 #
loop $25 $-1 $26 $4 #
coedge $-1 $15 $15 $27 $28 reversed $7 $-1 #
surf-twe-attrib $-1 $-1 $-1 $8 4 #
face_name-twe-attrib $-1 $-1 $-1 $10 3 #
face $29 $30 $31 $3 $-1 $32 reversed single #
loop $33 $34 $35 $10 #
plane-surface $36 1 -1 0 0 -1 0 0 0 -1 forward_v I I I I #
loop_type-twe-attrib $-1 $-1 $-1 $11 1 #
loop $37 $-1 $38 $6 #
coedge $-1 $23 $23 $39 $40 forward $11 $-1 #
surf-twe-attrib $-1 $-1 $-1 $12 6 #
loop_type-twe-attrib $-1 $-1 $-1 $14 0 #
coedge $-1 $26 $26 $41 $42 reversed $14 $-1 #
coedge $-1 $27 $27 $15 $28 forward $43 $-1 #
edge $44 $45 0 $45 6.283185307179586232 $27 $46 forward 7 unknown #
face_name-twe-attrib $-1 $-1 $-1 $18 4 #
face $47 $48 $49 $3 $-1 $50 forward single #
loop $51 $52 $53 $18 #
plane-surface $54 1 -0.4375 0 0 -1 0 0 0 -1 forward_v I I I I #
loop_type-twe-attrib $-1 $-1 $-1 $19 0 #
loop $55 $-1 $56 $10 #
coedge $-1 $35 $35 $57 $58 forward $19 $-1 #
surf-twe-attrib $-1 $-1 $-1 $20 10 #
loop_type-twe-attrib $-1 $-1 $-1 $22 0 #
coedge $-1 $38 $38 $59 $60 reversed $22 $-1 #
coedge $-1 $39 $39 $23 $40 reversed $61 $-1 #
edge $62 $63 -3.141592653589793116 $63 3.141592653589793116 $39 $64 forward 7 unknown #
coedge $-1 $41 $41 $26 $42 forward $49 $-1 #
edge $65 $66 0 $66 6.283185307179586232 $41 $67 forward 7 unknown #
loop $68 $-1 $27 $69 #
edge_name-twe-attrib $-1 $-1 $-1 $28 14 8704 #
vertex $-1 $28 $70 #
ellipse-curve $71 1 0.25 0 0 1 0 -0.5 0 0 1 I I #
face_name-twe-attrib $-1 $-1 $-1 $30 5 #
face $72 $73 $74 $3 $-1 $75 forward single #
loop $76 $77 $41 $30 #
cone-surface $78 1 0.23000000000000001 0 0 -1 0 -1 0 0 1 I I 0.7071067811865470176 0.7071067811865480168 1 forward I I I I #
loop_type-twe-attrib $-1 $-1 $-1 $31 1 #
loop $79 $-1 $80 $18 #
coedge $-1 $53 $53 $81 $82 forward $31 $-1 #
surf-twe-attrib $-1 $-1 $-1 $32 18 #
loop_type-twe-attrib $-1 $-1 $-1 $34 1 #
coedge $-1 $56 $56 $83 $84 reversed $34 $-1 #
coedge $-1 $57 $57 $35 $58 reversed $85 $-1 #
edge $86 $87 -3.141592653589793116 $87 3.141592653589793116 $57 $88 forward 7 unknown #
coedge $-1 $59 $59 $38 $60 forward $89 $-1 #
edge $90 $91 0 $91 6.283185307179586232 $59 $92 forward 7 unknown #
loop $93 $-1 $39 $94 #
edge_name-twe-attrib $-1 $-1 $-1 $40 6 8448 #
vertex $-1 $40 $95 #
ellipse-curve $96 1 0 0 0 -1 0 -1.056568542494920049 0 0 1 I I #
edge_name-twe-attrib $-1 $-1 $-1 $42 1 8448 #
vertex $-1 $42 $97 #
ellipse-curve $98 1 0.25 0 0 -1 0 -0.9799999999999999822 0 0 1 I I #
loop_type-twe-attrib $-1 $-1 $-1 $43 1 #
face $99 $-1 $100 $3 $-1 $101 reversed single #
point $-1 0.5 0.25 0 #
cur-twe-attrib $-1 $-1 $-1 $46 28 #
face_name-twe-attrib $-1 $-1 $-1 $48 6 #
face $102 $103 $104 $3 $-1 $105 forward single #
loop $106 $107 $108 $48 #
cone-surface $109 1 0.3125 0 0 -1 0 -1 0 0 1 I I 0 1 1 forward I I I I #
loop_type-twe-attrib $-1 $-1 $-1 $49 0 #
loop $110 $-1 $111 $30 #
surf-twe-attrib $-1 $-1 $-1 $50 30 #
loop_type-twe-attrib $-1 $-1 $-1 $52 0 #
coedge $-1 $80 $80 $112 $113 reversed $52 $-1 #
coedge $-1 $81 $81 $53 $82 reversed $114 $-1 #
edge $115 $116 -3.141592653589793116 $116 3.141592653589793116 $81 $117 forward 7 unknown #
coedge $-1 $83 $83 $56 $84 forward $118 $-1 #
edge $119 $120 0 $120 6.283185307179586232 $83 $121 forward 7 unknown #
loop $122 $-1 $57 $123 #
edge_name-twe-attrib $-1 $-1 $-1 $58 10 8448 #
vertex $-1 $58 $124 #
ellipse-curve $125 1 -1 0 0 -1 0 -1.417499999999999982 0 0 1 I I #
loop $126 $127 $59 $128 #
edge_name-twe-attrib $-1 $-1 $-1 $60 7 8448 #
vertex $-1 $60 $129 #
ellipse-curve $130 1 0 0 0 -1 0 -1.417499999999999982 0 0 1 I I #
loop_type-twe-attrib $-1 $-1 $-1 $61 1 #
face $131 $128 $132 $3 $-1 $133 reversed single #
point $-1 2.056568542494920049 0 -1.293923060435539889e-16 #
cur-twe-attrib $-1 $-1 $-1 $64 40 #
point $-1 0.02000000000000010103 0.25 0 #
cur-twe-attrib $-1 $-1 $-1 $67 42 #
face_name-twe-attrib $-1 $-1 $-1 $69 14 #
loop $134 $43 $112 $69 #
cone-surface $135 1 0.3125 0 0 -1 0 -0.5 0 0 1 I I 0 1 0.5 forward I I I I #
face_name-twe-attrib $-1 $-1 $-1 $73 7 #
face $136 $94 $137 $3 $-1 $138 reversed single #
loop $139 $140 $141 $73 #
cone-surface $142 1 0.05656854249492399705 0 0 1 0 -1 0 0 1 I I 0.7071067811865470176 0.707106781186549016 1 forward I I I I #
loop_type-twe-attrib $-1 $-1 $-1 $74 0 #
loop $143 $-1 $144 $48 #
coedge $-1 $108 $108 $111 $145 forward $74 $-1 #
surf-twe-attrib $-1 $-1 $-1 $75 48 #
loop_type-twe-attrib $-1 $-1 $-1 $77 1 #
coedge $-1 $111 $111 $108 $145 reversed $77 $-1 #
coedge $-1 $112 $112 $80 $113 forward $100 $-1 #
edge $146 $147 0 $147 6.283185307179586232 $112 $148 forward 7 unknown #
loop $149 $-1 $81 $150 #
edge_name-twe-attrib $-1 $-1 $-1 $82 12 8704 #
vertex $-1 $82 $151 #
ellipse-curve $152 1 -0.4375 0 0 -1 0 -0.3125 0 0 1 I I #
loop $153 $114 $83 $150 #
edge_name-twe-attrib $-1 $-1 $-1 $84 11 8704 #
vertex $-1 $84 $154 #
ellipse-curve $155 1 -1 0 0 -1 0 -0.3125 0 0 1 I I #
loop_type-twe-attrib $-1 $-1 $-1 $85 1 #
face $156 $150 $157 $3 $-1 $158 forward single #
point $-1 2.417499999999999982 -1 -1.735936538330349905e-16 #
cur-twe-attrib $-1 $-1 $-1 $88 58 #
loop_type-twe-attrib $-1 $-1 $-1 $89 0 #
loop $159 $-1 $160 $128 #
face $161 $162 $89 $3 $-1 $163 forward single #
point $-1 -0.4174999999999999822 0 0 #
cur-twe-attrib $-1 $-1 $-1 $92 60 #
face_name-twe-attrib $-1 $-1 $-1 $94 9 #
loop $164 $61 $165 $94 #
cone-surface $166 1 0 0 0 1 0 -1.056568542494920049 0 0 1 I I 0.7071067811865470176 0.707106781186549016 1.056568542494920049 forward I I I I #
loop_type-twe-attrib $-1 $-1 $-1 $100 0 #
surf-twe-attrib $-1 $-1 $-1 $101 69 #
face_name-twe-attrib $-1 $-1 $-1 $103 8 #
loop $167 $168 $169 $103 #
torus-surface $170 1 0 0 0 -1 0 1 0.04000000000000000083 0 0 -1 forward_v I I I I #
loop_type-twe-attrib $-1 $-1 $-1 $104 0 #
loop $171 $-1 $172 $73 #
coedge $-1 $141 $141 $144 $173 forward $104 $-1 #
surf-twe-attrib $-1 $-1 $-1 $105 73 #
loop_type-twe-attrib $-1 $-1 $-1 $107 1 #
coedge $-1 $144 $144 $141 $173 reversed $107 $-1 #
edge $174 $175 -3.141592653589793116 $175 3.141592653589793116 $108 $176 forward 7 unknown #
edge_name-twe-attrib $-1 $-1 $-1 $113 13 4608 #
vertex $-1 $113 $177 #
ellipse-curve $178 1 -0.4375 0 0 -1 0 -0.5 0 0 1 I I #
loop_type-twe-attrib $-1 $-1 $-1 $114 1 #
face $179 $69 $118 $3 $-1 $180 reversed single #
point $-1 1.3125 -0.4375 -3.827020587148040074e-17 #
cur-twe-attrib $-1 $-1 $-1 $117 82 #
loop_type-twe-attrib $-1 $-1 $-1 $118 0 #
point $-1 0.6875 -1 0 #
cur-twe-attrib $-1 $-1 $-1 $121 84 #
face_name-twe-attrib $-1 $-1 $-1 $123 12 #
loop $181 $85 $182 $123 #
cone-surface $183 1 -0.9799999999999999822 0 0 1 0 -1.4375 0 0 1 I I 0.7071067811865470176 0.7071067811865480168 1.4375 forward I I I I #
loop_type-twe-attrib $-1 $-1 $-1 $127 1 #
coedge $-1 $160 $160 $184 $185 reversed $127 $-1 #
face_name-twe-attrib $-1 $-1 $-1 $128 10 #
face $186 $123 $187 $3 $-1 $188 forward single #
cone-surface $189 1 -0.02000000000000000042 0 0 -1 0 -1.4375 0 0 1 I I 0.7071067811865470176 0.7071067811865480168 1.4375 forward I I I I #
loop_type-twe-attrib $-1 $-1 $-1 $132 0 #
coedge $-1 $165 $165 $190 $191 forward $132 $-1 #
surf-twe-attrib $-1 $-1 $-1 $133 94 #
loop_type-twe-attrib $-1 $-1 $-1 $137 0 #
loop $192 $-1 $190 $103 #
coedge $-1 $169 $169 $172 $193 forward $137 $-1 #
surf-twe-attrib $-1 $-1 $-1 $138 103 #
loop_type-twe-attrib $-1 $-1 $-1 $140 1 #
coedge $-1 $172 $172 $169 $193 reversed $140 $-1 #
edge $194 $195 -3.141592653589793116 $195 3.141592653589793116 $141 $196 forward 7 unknown #
edge_name-twe-attrib $-1 $-1 $-1 $145 2 8448 #
vertex $-1 $145 $197 #
ellipse-curve $198 1 0.23000000000000001 0 0 -1 0 -1 0 0 1 I I #
point $-1 0.5 -0.4375 0 #
cur-twe-attrib $-1 $-1 $-1 $148 113 #
face_name-twe-attrib $-1 $-1 $-1 $150 13 #
cone-surface $199 1 0.3125 0 0 -1 0 -0.3125 0 0 1 I I 0 1 0.3125 forward I I I I #
loop_type-twe-attrib $-1 $-1 $-1 $157 0 #
coedge $-1 $182 $182 $200 $201 forward $157 $-1 #
surf-twe-attrib $-1 $-1 $-1 $158 123 #
coedge $-1 $184 $184 $160 $185 forward $187 $-1 #
edge $202 $203 -3.141592653589793116 $203 3.141592653589793116 $184 $204 forward 7 unknown #
face_name-twe-attrib $-1 $-1 $-1 $162 11 #
loop $205 $206 $184 $162 #
cone-surface $207 1 0.3125 0 0 -1 0 -1.4375 0 0 1 I I 0 1 1.4375 forward I I I I #
surf-twe-attrib $-1 $-1 $-1 $163 128 #
coedge $-1 $190 $190 $165 $191 reversed $168 $-1 #
edge $208 $209 -3.141592653589793116 $209 3.141592653589793116 $165 $210 forward 7 unknown #
loop_type-twe-attrib $-1 $-1 $-1 $168 1 #
edge $211 $212 -3.141592653589793116 $212 3.141592653589793116 $169 $213 forward 7 unknown #
edge_name-twe-attrib $-1 $-1 $-1 $173 3 8448 #
vertex $-1 $173 $214 #
ellipse-curve $215 1 0.05656854249492399705 0 0 -1 0 -1 0 0 1 I I #
point $-1 2 0.23000000000000001 -1.224646587887370112e-16 #
cur-twe-attrib $-1 $-1 $-1 $176 145 #
surf-twe-attrib $-1 $-1 $-1 $180 150 #
coedge $-1 $200 $200 $182 $201 reversed $206 $-1 #
edge $216 $217 -3.141592653589793116 $217 3.141592653589793116 $182 $218 forward 7 unknown #
edge_name-twe-attrib $-1 $-1 $-1 $185 8 8448 #
vertex $-1 $185 $219 #
ellipse-curve $220 1 -0.02000000000000000042 0 0 -1 0 -1.4375 0 0 1 I I #
loop_type-twe-attrib $-1 $-1 $-1 $187 0 #
loop $221 $-1 $200 $162 #
surf-twe-attrib $-1 $-1 $-1 $188 162 #
edge_name-twe-attrib $-1 $-1 $-1 $191 5 20480 #
vertex $-1 $191 $222 #
ellipse-curve $223 1 -0.02828427124746099933 0 0 -1 0 -1.028284271247460024 0 0 1 I I #
edge_name-twe-attrib $-1 $-1 $-1 $193 4 24576 #
vertex $-1 $193 $224 #
ellipse-curve $225 1 0.02828427124746199853 0 0 -1 0 -0.9717157287525379772 0 0 1 I I #
point $-1 2 0.05656854249492399705 -1.224646587887370112e-16 #
cur-twe-attrib $-1 $-1 $-1 $196 173 #
edge_name-twe-attrib $-1 $-1 $-1 $201 9 8448 #
vertex $-1 $201 $226 #
ellipse-curve $227 1 -0.9799999999999999822 0 0 -1 0 -1.4375 0 0 1 I I #
point $-1 2.4375 -0.02000000000000000042 -1.760429470088099975e-16 #
cur-twe-attrib $-1 $-1 $-1 $204 185 #
loop_type-twe-attrib $-1 $-1 $-1 $206 1 #
point $-1 2.028284271247459802 -0.02828427124746099933 -1.259284824161459931e-16 #
cur-twe-attrib $-1 $-1 $-1 $210 191 #
point $-1 1.971715728752539976 0.02828427124746199853 -1.190008351613289907e-16 #
cur-twe-attrib $-1 $-1 $-1 $213 193 #
point $-1 2.4375 -0.9799999999999999822 -1.760429470088099975e-16 #
cur-twe-attrib $-1 $-1 $-1 $218 201 #
End-of-ACIS-data 