104 228 0 0                             
body $-1 $1 $-1 $2 #
lump $-1 $-1 $3 $0 #
transform $-1 1 0 0 0 1 0 0 0 1 0 0 0 1 0 0 0 #
shell $-1 $-1 $-1 $4 $1 #
face $5 $6 $7 $3 $-1 $8 1 #
face_name-twe-attrib $-1 $-1 $-1 $4 1 #
face $9 $10 $11 $3 $-1 $12 1 #
loop $13 $14 $15 $4 #
plane-surface $16 1 0.25 0 0 -1 0 0 0 -1 0 #
face_name-twe-attrib $-1 $-1 $-1 $6 2 #
face $17 $18 $19 $3 $-1 $20 0 #
loop $21 $22 $23 $6 #
plane-surface $24 1 0 0 0 -1 0 0 0 -1 0 #
loop_type-twe-attrib $-1 $-1 $-1 $7 1 #
loop $25 $-1 $26 $4 #
coedge $-1 $15 $15 $27 $28 1 $7 $-1 #
surf-twe-attrib $-1 $-1 $-1 $8 4 #
face_name-twe-attrib $-1 $-1 $-1 $10 3 #
face $29 $30 $31 $3 $-1 $32 1 #
loop $33 $34 $35 $10 #
plane-surface $36 1 -1 0 0 -1 0 0 0 -1 0 #
loop_type-twe-attrib $-1 $-1 $-1 $11 1 #
loop $37 $-1 $38 $6 #
coedge $-1 $23 $23 $39 $40 0 $11 $-1 #
surf-twe-attrib $-1 $-1 $-1 $12 6 #
loop_type-twe-attrib $-1 $-1 $-1 $14 0 #
coedge $-1 $26 $26 $41 $42 1 $14 $-1 #
coedge $-1 $27 $27 $15 $28 0 $43 $-1 #
edge $44 $45 $45 $27 $46 0 #
face_name-twe-attrib $-1 $-1 $-1 $18 4 #
face $47 $48 $49 $3 $-1 $50 0 #
loop $51 $52 $53 $18 #
plane-surface $54 1 -0.4375 0 0 -1 0 0 0 -1 0 #
loop_type-twe-attrib $-1 $-1 $-1 $19 0 #
loop $55 $-1 $56 $10 #
coedge $-1 $35 $35 $57 $58 0 $19 $-1 #
surf-twe-attrib $-1 $-1 $-1 $20 10 #
loop_type-twe-attrib $-1 $-1 $-1 $22 0 #
coedge $-1 $38 $38 $59 $60 1 $22 $-1 #
coedge $-1 $39 $39 $23 $40 1 $61 $-1 #
edge $62 $63 $63 $39 $64 0 #
coedge $-1 $41 $41 $26 $42 0 $49 $-1 #
edge $65 $66 $66 $41 $67 0 #
loop $68 $-1 $27 $69 #
edge_name-twe-attrib $-1 $-1 $-1 $28 14 8704 #
vertex $-1 $28 $70 #
ellipse-curve $71 1 0.25 0 0 1 0 -0.5 0 0 1 #
face_name-twe-attrib $-1 $-1 $-1 $30 5 #
face $72 $73 $74 $3 $-1 $75 0 #
loop $76 $77 $41 $30 #
cone-surface $78 1 0.23 0 0 -1 0 -1 0 0 1 0.707106781186547 0.707106781186548 0 #
loop_type-twe-attrib $-1 $-1 $-1 $31 1 #
loop $79 $-1 $80 $18 #
coedge $-1 $53 $53 $81 $82 0 $31 $-1 #
surf-twe-attrib $-1 $-1 $-1 $32 18 #
loop_type-twe-attrib $-1 $-1 $-1 $34 1 #
coedge $-1 $56 $56 $83 $84 1 $34 $-1 #
coedge $-1 $57 $57 $35 $58 1 $85 $-1 #
edge $86 $87 $87 $57 $88 0 #
coedge $-1 $59 $59 $38 $60 0 $89 $-1 #
edge $90 $91 $91 $59 $92 0 #
loop $93 $-1 $39 $94 #
edge_name-twe-attrib $-1 $-1 $-1 $40 6 8448 #
vertex $-1 $40 $95 #
ellipse-curve $96 1 0 0 0 -1 0 -1.05656854249492 0 0 1 #
edge_name-twe-attrib $-1 $-1 $-1 $42 1 8448 #
vertex $-1 $42 $97 #
ellipse-curve $98 1 0.25 0 0 -1 0 -0.98 0 0 1 #
loop_type-twe-attrib $-1 $-1 $-1 $43 1 #
face $99 $-1 $100 $3 $-1 $101 1 #
point $-1 0.5 0.25 0 #
cur-twe-attrib $-1 $-1 $-1 $46 28 #
face_name-twe-attrib $-1 $-1 $-1 $48 6 #
face $102 $103 $104 $3 $-1 $105 0 #
loop $106 $107 $108 $48 #
cone-surface $109 1 0.3125 0 0 -1 0 -1 0 0 1 0 1 0 #
loop_type-twe-attrib $-1 $-1 $-1 $49 0 #
loop $110 $-1 $111 $30 #
surf-twe-attrib $-1 $-1 $-1 $50 30 #
loop_type-twe-attrib $-1 $-1 $-1 $52 0 #
coedge $-1 $80 $80 $112 $113 1 $52 $-1 #
coedge $-1 $81 $81 $53 $82 1 $114 $-1 #
edge $115 $116 $116 $81 $117 0 #
coedge $-1 $83 $83 $56 $84 0 $118 $-1 #
edge $119 $120 $120 $83 $121 0 #
loop $122 $-1 $57 $123 #
edge_name-twe-attrib $-1 $-1 $-1 $58 10 8448 #
vertex $-1 $58 $124 #
ellipse-curve $125 1 -1 0 0 -1 0 -1.4175 0 0 1 #
loop $126 $127 $59 $128 #
edge_name-twe-attrib $-1 $-1 $-1 $60 7 8448 #
vertex $-1 $60 $129 #
ellipse-curve $130 1 0 0 0 -1 0 -1.4175 0 0 1 #
loop_type-twe-attrib $-1 $-1 $-1 $61 1 #
face $131 $128 $132 $3 $-1 $133 1 #
point $-1 2.05656854249492 0 -1.29392306043554e-16 #
cur-twe-attrib $-1 $-1 $-1 $64 40 #
point $-1 0.0200000000000001 0.25 0 #
cur-twe-attrib $-1 $-1 $-1 $67 42 #
face_name-twe-attrib $-1 $-1 $-1 $69 14 #
loop $134 $43 $112 $69 #
cone-surface $135 1 0.3125 0 0 -1 0 -0.5 0 0 1 0 1 0 #
face_name-twe-attrib $-1 $-1 $-1 $73 7 #
face $136 $94 $137 $3 $-1 $138 1 #
loop $139 $140 $141 $73 #
cone-surface $142 1 0.056568542494924 0 0 1 0 -1 0 0 1 0.707106781186547 0.707106781186549 0 #
loop_type-twe-attrib $-1 $-1 $-1 $74 0 #
loop $143 $-1 $144 $48 #
coedge $-1 $108 $108 $111 $145 0 $74 $-1 #
surf-twe-attrib $-1 $-1 $-1 $75 48 #
loop_type-twe-attrib $-1 $-1 $-1 $77 1 #
coedge $-1 $111 $111 $108 $145 1 $77 $-1 #
coedge $-1 $112 $112 $80 $113 0 $100 $-1 #
edge $146 $147 $147 $112 $148 0 #
loop $149 $-1 $81 $150 #
edge_name-twe-attrib $-1 $-1 $-1 $82 12 8704 #
vertex $-1 $82 $151 #
ellipse-curve $152 1 -0.4375 0 0 -1 0 -0.3125 0 0 1 #
loop $153 $114 $83 $150 #
edge_name-twe-attrib $-1 $-1 $-1 $84 11 8704 #
vertex $-1 $84 $154 #
ellipse-curve $155 1 -1 0 0 -1 0 -0.3125 0 0 1 #
loop_type-twe-attrib $-1 $-1 $-1 $85 1 #
face $156 $150 $157 $3 $-1 $158 0 #
point $-1 2.4175 -1 -1.73593653833035e-16 #
cur-twe-attrib $-1 $-1 $-1 $88 58 #
loop_type-twe-attrib $-1 $-1 $-1 $89 0 #
loop $159 $-1 $160 $128 #
face $161 $162 $89 $3 $-1 $163 0 #
point $-1 -0.4175 0 0 #
cur-twe-attrib $-1 $-1 $-1 $92 60 #
face_name-twe-attrib $-1 $-1 $-1 $94 9 #
loop $164 $61 $165 $94 #
cone-surface $166 1 0 0 0 1 0 -1.05656854249492 0 0 1 0.707106781186547 0.707106781186549 0 #
loop_type-twe-attrib $-1 $-1 $-1 $100 0 #
surf-twe-attrib $-1 $-1 $-1 $101 69 #
face_name-twe-attrib $-1 $-1 $-1 $103 8 #
loop $167 $168 $169 $103 #
torus-surface $170 1 0 0 0 -1 0 1 0.04 0 0 -1 0 #
loop_type-twe-attrib $-1 $-1 $-1 $104 0 #
loop $171 $-1 $172 $73 #
coedge $-1 $141 $141 $144 $173 0 $104 $-1 #
surf-twe-attrib $-1 $-1 $-1 $105 73 #
loop_type-twe-attrib $-1 $-1 $-1 $107 1 #
coedge $-1 $144 $144 $141 $173 1 $107 $-1 #
edge $174 $175 $175 $108 $176 0 #
edge_name-twe-attrib $-1 $-1 $-1 $113 13 4608 #
vertex $-1 $113 $177 #
ellipse-curve $178 1 -0.4375 0 0 -1 0 -0.5 0 0 1 #
loop_type-twe-attrib $-1 $-1 $-1 $114 1 #
face $179 $69 $118 $3 $-1 $180 1 #
point $-1 1.3125 -0.4375 -3.82702058714804e-17 #
cur-twe-attrib $-1 $-1 $-1 $117 82 #
loop_type-twe-attrib $-1 $-1 $-1 $118 0 #
point $-1 0.6875 -1 0 #
cur-twe-attrib $-1 $-1 $-1 $121 84 #
face_name-twe-attrib $-1 $-1 $-1 $123 12 #
loop $181 $85 $182 $123 #
cone-surface $183 1 -0.98 0 0 1 0 -1.4375 0 0 1 0.707106781186547 0.707106781186548 0 #
loop_type-twe-attrib $-1 $-1 $-1 $127 1 #
coedge $-1 $160 $160 $184 $185 1 $127 $-1 #
face_name-twe-attrib $-1 $-1 $-1 $128 10 #
face $186 $123 $187 $3 $-1 $188 0 #
cone-surface $189 1 -0.02 0 0 -1 0 -1.4375 0 0 1 0.707106781186547 0.707106781186548 0 #
loop_type-twe-attrib $-1 $-1 $-1 $132 0 #
coedge $-1 $165 $165 $190 $191 0 $132 $-1 #
surf-twe-attrib $-1 $-1 $-1 $133 94 #
loop_type-twe-attrib $-1 $-1 $-1 $137 0 #
loop $192 $-1 $190 $103 #
coedge $-1 $169 $169 $172 $193 0 $137 $-1 #
surf-twe-attrib $-1 $-1 $-1 $138 103 #
loop_type-twe-attrib $-1 $-1 $-1 $140 1 #
coedge $-1 $172 $172 $169 $193 1 $140 $-1 #
edge $194 $195 $195 $141 $196 0 #
edge_name-twe-attrib $-1 $-1 $-1 $145 2 8448 #
vertex $-1 $145 $197 #
ellipse-curve $198 1 0.23 0 0 -1 0 -1 0 0 1 #
point $-1 0.5 -0.4375 0 #
cur-twe-attrib $-1 $-1 $-1 $148 113 #
face_name-twe-attrib $-1 $-1 $-1 $150 13 #
cone-surface $199 1 0.3125 0 0 -1 0 -0.3125 0 0 1 0 1 0 #
loop_type-twe-attrib $-1 $-1 $-1 $157 0 #
coedge $-1 $182 $182 $200 $201 0 $157 $-1 #
surf-twe-attrib $-1 $-1 $-1 $158 123 #
coedge $-1 $184 $184 $160 $185 0 $187 $-1 #
edge $202 $203 $203 $184 $204 0 #
face_name-twe-attrib $-1 $-1 $-1 $162 11 #
loop $205 $206 $184 $162 #
cone-surface $207 1 0.3125 0 0 -1 0 -1.4375 0 0 1 0 1 0 #
surf-twe-attrib $-1 $-1 $-1 $163 128 #
coedge $-1 $190 $190 $165 $191 1 $168 $-1 #
edge $208 $209 $209 $165 $210 0 #
loop_type-twe-attrib $-1 $-1 $-1 $168 1 #
edge $211 $212 $212 $169 $213 0 #
edge_name-twe-attrib $-1 $-1 $-1 $173 3 8448 #
vertex $-1 $173 $214 #
ellipse-curve $215 1 0.056568542494924 0 0 -1 0 -1 0 0 1 #
point $-1 2 0.23 -1.22464658788737e-16 #
cur-twe-attrib $-1 $-1 $-1 $176 145 #
surf-twe-attrib $-1 $-1 $-1 $180 150 #
coedge $-1 $200 $200 $182 $201 1 $206 $-1 #
edge $216 $217 $217 $182 $218 0 #
edge_name-twe-attrib $-1 $-1 $-1 $185 8 8448 #
vertex $-1 $185 $219 #
ellipse-curve $220 1 -0.02 0 0 -1 0 -1.4375 0 0 1 #
loop_type-twe-attrib $-1 $-1 $-1 $187 0 #
loop $221 $-1 $200 $162 #
surf-twe-attrib $-1 $-1 $-1 $188 162 #
edge_name-twe-attrib $-1 $-1 $-1 $191 5 20480 #
vertex $-1 $191 $222 #
ellipse-curve $223 1 -0.028284271247461 0 0 -1 0 -1.02828427124746 0 0 1 #
edge_name-twe-attrib $-1 $-1 $-1 $193 4 24576 #
vertex $-1 $193 $224 #
ellipse-curve $225 1 0.028284271247462 0 0 -1 0 -0.971715728752538 0 0 1 #
point $-1 2 0.056568542494924 -1.22464658788737e-16 #
cur-twe-attrib $-1 $-1 $-1 $196 173 #
edge_name-twe-attrib $-1 $-1 $-1 $201 9 8448 #
vertex $-1 $201 $226 #
ellipse-curve $227 1 -0.98 0 0 -1 0 -1.4375 0 0 1 #
point $-1 2.4375 -0.02 -1.7604294700881e-16 #
cur-twe-attrib $-1 $-1 $-1 $204 185 #
loop_type-twe-attrib $-1 $-1 $-1 $206 1 #
point $-1 2.02828427124746 -0.028284271247461 -1.25928482416146e-16 #
cur-twe-attrib $-1 $-1 $-1 $210 191 #
point $-1 1.97171572875254 0.028284271247462 -1.19000835161329e-16 #
cur-twe-attrib $-1 $-1 $-1 $213 193 #
point $-1 2.4375 -0.98 -1.7604294700881e-16 #
cur-twe-attrib $-1 $-1 $-1 $218 201 #
