600 0 2 0           
24 FBMach with ACIS - 6.0.3 13 ACIS 6.0.3 NT 24 Wed May 23 21:58:00 2001 
1 9.9999999999999995e-007 1e-010 
body $2 $3 $-1 $4 #
bdycol-kcp $-1 1 7 $5 $6 $7 $8 $9 $10 $11 #
model_id-kcp-attrib $-1 $-1 $-1 $0 1 990669480 60 540803073 1 #
lump $-1 $-1 $12 $0 #
transform $-1 1 0 0 0 1 0 0 0 1 0 0 0 1 no_rotate no_reflect no_shear #
body $13 $14 $-1 $15 #
body $16 $17 $-1 $18 #
body $19 $20 $-1 $21 #
body $22 $23 $-1 $24 #
body $25 $26 $-1 $27 #
body $28 $29 $-1 $30 #
body $31 $32 $-1 $33 #
shell $-1 $-1 $-1 $34 $-1 $3 #
model_id-kcp-attrib $-1 $-1 $-1 $5 1 990669480 80 542113794 1 #
lump $-1 $-1 $35 $5 #
transform $-1 1 0 0 0 1 0 0 0 1 1 -0.375 0 1 no_rotate no_reflect no_shear #
rgb_color-st-attrib $-1 $36 $-1 $6 1 1 0.5 #
lump $-1 $-1 $37 $6 #
transform $-1 -1 0 0 0 0 1 0 1 0 1 0.23999999999999999 0 1 rotate no_reflect no_shear #
rgb_color-st-attrib $-1 $38 $-1 $7 1 1 0.5 #
lump $-1 $-1 $39 $7 #
transform $-1 -1 0 0 0 0 1 0 1 0 1 -0.01 0 1 rotate no_reflect no_shear #
rgb_color-st-attrib $-1 $40 $-1 $8 1 1 0.5 #
lump $-1 $-1 $41 $8 #
transform $-1 1 0 0 0 0 1 0 -1 0 1 -0.98999999999999999 0 1 rotate no_reflect no_shear #
rgb_color-st-attrib $-1 $42 $-1 $9 0.5 1 1 #
lump $-1 $-1 $43 $9 #
transform $-1 1 0 0 0 -3.8285889215894375e-016 1 0 -1 -3.8285889215894375e-016 1 -0.71875 -3.9482323253891075e-016 1 rotate no_reflect no_shear #
rgb_color-st-attrib $-1 $44 $-1 $10 0.5 1 1 #
lump $-1 $-1 $45 $10 #
transform $-1 1 0 0 0 -3.8285889215894375e-016 1 0 -1 -3.8285889215894375e-016 1 -0.09375 -1.555364249395709e-016 1 rotate no_reflect no_shear #
rgb_color-st-attrib $-1 $46 $-1 $11 0.5 1 1 #
lump $-1 $-1 $47 $11 #
transform $-1 1 0 0 0 1 0 0 0 1 1 -0.375 0 1 no_rotate no_reflect no_shear #
face $48 $49 $50 $12 $-1 $51 reversed single #
shell $-1 $-1 $-1 $52 $-1 $14 #
model_id-kcp-attrib $-1 $-1 $16 $6 1 990669480 100 543424515 1 #
shell $-1 $-1 $-1 $53 $-1 $17 #
model_id-kcp-attrib $-1 $-1 $19 $7 1 990669480 100 543424516 1 #
shell $-1 $-1 $-1 $54 $-1 $20 #
model_id-kcp-attrib $-1 $-1 $22 $8 1 990669480 100 543424517 1 #
shell $-1 $-1 $-1 $55 $-1 $23 #
model_id-kcp-attrib $-1 $-1 $25 $9 1 990669480 160 547356678 1 #
shell $-1 $-1 $-1 $56 $-1 $26 #
model_id-kcp-attrib $-1 $-1 $28 $10 1 990669480 160 547356679 1 #
shell $-1 $-1 $-1 $57 $-1 $29 #
model_id-kcp-attrib $-1 $-1 $31 $11 1 990669480 250 553254920 1 #
shell $-1 $-1 $-1 $58 $-1 $32 #
model_id-kcp-attrib $-1 $59 $-1 $34 1 990669480 60 540803073 16 #
face $60 $61 $62 $12 $-1 $63 reversed single #
loop $64 $65 $66 $34 #
plane-surface $67 1 0.25 0 0 -1 0 0 0 -1 forward_v I I I I #
face $-1 $68 $69 $35 $-1 $70 forward single #
face $-1 $71 $72 $37 $-1 $73 reversed single #
face $-1 $74 $75 $39 $-1 $76 reversed single #
face $-1 $77 $78 $41 $-1 $79 reversed single #
face $-1 $80 $81 $43 $-1 $82 forward single #
face $-1 $83 $84 $45 $-1 $85 forward single #
face $-1 $86 $87 $47 $-1 $88 reversed single #
model_id-kcp-attrib $-1 $89 $48 $34 1 990669480 60 540803073 2 #
model_id-kcp-attrib $-1 $90 $-1 $49 1 990669480 60 540803073 3 #
face $91 $92 $93 $12 $-1 $94 forward single #
loop $95 $96 $97 $49 #
plane-surface $98 1 0 0 0 -1 0 0 0 -1 forward_v I I I I #
loop_type-twe-attrib $-1 $-1 $-1 $50 1 #
loop $99 $-1 $100 $34 #
coedge $-1 $66 $66 $101 $102 reversed $50 $-1 #
surf-twe-attrib $-1 $-1 $-1 $51 4 #
face $-1 $103 $104 $35 $-1 $105 reversed single #
loop $-1 $-1 $106 $52 #
plane-surface $-1 0 0 1.4375 0 0 1 1 0 0 forward_v I I I I #
face $-1 $107 $108 $37 $-1 $109 forward single #
loop $-1 $110 $111 $53 #
cone-surface $-1 0 0 0.49000000000000066 0 0 1 0.5 0 0 1 I I -0.70710678118654702 0.70710678118654802 0.5 forward I I I I #
face $-1 $112 $113 $39 $-1 $114 forward single #
loop $-1 $115 $116 $54 #
cone-surface $-1 0 0 0.70875000000000099 0 0 1 0.71875 0 0 1 I I -0.70710678118654702 0.70710678118654802 0.71875 forward I I I I #
face $-1 $117 $118 $41 $-1 $119 forward single #
loop $-1 $120 $121 $55 #
cone-surface $-1 0 0 0.7087500000000011 0 0 1 0.71875 0 0 1 I I -0.70710678118654702 0.70710678118654813 0.71875 forward I I I I #
face $-1 $122 $123 $43 $-1 $124 forward single #
loop $-1 $125 $126 $56 #
cone-surface $-1 0 0 0 0 0 1 0.3125 0 0 1 I I 0 1 0.3125 forward I I I I #
face $-1 $127 $128 $45 $-1 $129 forward single #
loop $-1 $130 $131 $57 #
cone-surface $-1 0 0 0 0 0 1 0.5 0 0 1 I I 0 1 0.5 forward I I I I #
face $-1 $132 $133 $47 $-1 $88 reversed single #
loop $-1 $-1 $134 $58 #
cone-surface $-1 0 0.625 0 0 1 0 -1.4375 0 0 1 I I 0 1 1.4375 forward I I I I #
face_name-twe-attrib $-1 $-1 $59 $34 1 #
face_name-twe-attrib $-1 $-1 $60 $49 2 #
model_id-kcp-attrib $-1 $135 $-1 $61 1 990669480 60 540803073 17 #
face $136 $137 $138 $12 $-1 $139 reversed single #
loop $140 $141 $142 $61 #
plane-surface $143 1 -1 0 0 -1 0 0 0 -1 forward_v I I I I #
loop_type-twe-attrib $-1 $-1 $-1 $62 1 #
loop $144 $-1 $145 $49 #
coedge $-1 $97 $97 $146 $147 forward $62 $-1 #
surf-twe-attrib $-1 $-1 $-1 $63 6 #
loop_type-twe-attrib $-1 $-1 $-1 $65 0 #
coedge $-1 $100 $100 $148 $149 reversed $65 $-1 #
coedge $-1 $101 $101 $66 $102 forward $150 $-1 #
edge $151 $152 0 $152 6.2831853071795862 $101 $153 forward 7 unknown #
face $154 $155 $156 $35 $-1 $157 reversed single #
loop $-1 $-1 $158 $68 #
plane-surface $-1 0 0 -1.4375 0 0 1 1 0 0 forward_v I I I I #
coedge $-1 $159 $160 $161 $162 forward $69 $-1 #
face $-1 $-1 $163 $37 $-1 $164 forward single #
loop $-1 $165 $166 $71 #
cone-surface $-1 0 0 0 0 0 1 1 0 0 1 I I 0 1 1 forward I I I I #
loop $-1 $-1 $167 $53 #
coedge $-1 $111 $111 $168 $169 reversed $72 $-1 #
face $-1 $-1 $170 $39 $-1 $171 forward single #
loop $-1 $172 $173 $74 #
cone-surface $-1 0 0 0 0 0 1 1.4375 0 0 1 I I 0 1 1.4375 forward I I I I #
loop $-1 $-1 $174 $54 #
coedge $-1 $116 $116 $175 $176 reversed $75 $-1 #
face $-1 $-1 $177 $41 $-1 $178 forward single #
loop $-1 $179 $180 $77 #
cone-surface $-1 0 0 0 0 0 1 1.4375 0 0 1 I I 0 1 1.4375 forward I I I I #
loop $-1 $-1 $181 $55 #
coedge $-1 $121 $121 $182 $183 reversed $78 $-1 #
face $-1 $-1 $184 $43 $-1 $185 forward single #
loop $-1 $-1 $186 $80 #
plane-surface $-1 0 0 -0.28125000000000017 0 0 -1 -1 0 0 forward_v I I I I #
loop $-1 $-1 $187 $56 #
coedge $-1 $126 $126 $186 $188 reversed $81 $-1 #
face $-1 $-1 $189 $45 $-1 $190 forward single #
loop $-1 $-1 $191 $83 #
plane-surface $-1 0 0 -0.34375000000000017 0 0 -1 -1 0 0 forward_v I I I I #
loop $-1 $-1 $192 $57 #
coedge $-1 $131 $131 $191 $193 reversed $84 $-1 #
face $-1 $194 $195 $47 $-1 $88 reversed single #
loop $-1 $-1 $196 $86 #
coedge $-1 $197 $198 $199 $200 reversed $87 $-1 #
model_id-kcp-attrib $-1 $201 $91 $61 1 990669480 60 540803073 4 #
model_id-kcp-attrib $-1 $202 $-1 $92 1 990669480 60 540803073 5 #
face $203 $204 $205 $12 $-1 $206 forward single #
loop $207 $208 $209 $92 #
plane-surface $210 1 -0.4375 0 0 -1 0 0 0 -1 forward_v I I I I #
loop_type-twe-attrib $-1 $-1 $-1 $93 0 #
loop $211 $-1 $212 $61 #
coedge $-1 $142 $142 $213 $214 forward $93 $-1 #
surf-twe-attrib $-1 $-1 $-1 $94 10 #
loop_type-twe-attrib $-1 $-1 $-1 $96 0 #
coedge $-1 $145 $145 $215 $216 reversed $96 $-1 #
coedge $-1 $146 $146 $97 $147 reversed $217 $-1 #
edge $218 $219 -3.1415926535897931 $219 3.1415926535897931 $146 $220 forward 7 unknown #
coedge $-1 $148 $148 $100 $149 forward $205 $-1 #
edge $221 $222 0 $222 6.2831853071795862 $148 $223 forward 7 unknown #
loop $224 $-1 $101 $225 #
attrib_edge_convexity-kcp-attrib $-1 $226 $-1 $102 1 #
vertex $-1 $102 $227 #
ellipse-curve $228 1 0.25 0 0 1 0 -0.5 0 0 1 I I #
model_id-kcp-attrib $-1 $-1 $-1 $103 1 990669480 80 542113794 3 #
face $-1 $229 $230 $35 $-1 $231 reversed single #
loop $-1 $-1 $232 $103 #
plane-surface $-1 0 -0.625 0 0 1 0 0 0 1 forward_v I I I I #
coedge $-1 $233 $234 $235 $236 forward $104 $-1 #
coedge $-1 $237 $106 $238 $239 forward $69 $-1 #
coedge $-1 $106 $237 $240 $241 forward $69 $-1 #
coedge $-1 $242 $243 $106 $162 reversed $244 $-1 #
edge $-1 $245 -0.625 $246 0.625 $161 $247 forward 7 unknown #
loop $-1 $248 $168 $107 #
plane-surface $-1 0 0 0.009999999999999995 0 0 1 1 0 0 forward_v I I I I #
loop $-1 $-1 $249 $71 #
coedge $-1 $166 $166 $167 $250 reversed $108 $-1 #
coedge $-1 $167 $167 $166 $250 forward $110 $-1 #
coedge $-1 $168 $168 $111 $169 forward $163 $-1 #
edge $-1 $251 -3.1415926535897931 $251 3.1415926535897931 $168 $252 forward 7 unknown #
loop $-1 $253 $175 $112 #
plane-surface $-1 0 0 0.01 0 0 1 1 0 0 forward_v I I I I #
loop $-1 $-1 $254 $74 #
coedge $-1 $173 $173 $174 $255 reversed $113 $-1 #
coedge $-1 $174 $174 $173 $255 forward $115 $-1 #
coedge $-1 $175 $175 $116 $176 forward $170 $-1 #
edge $-1 $256 -3.1415926535897931 $256 3.1415926535897931 $175 $257 forward 7 unknown #
loop $-1 $258 $182 $117 #
plane-surface $-1 0 0 0.010000000000000009 0 0 1 1 0 0 forward_v I I I I #
loop $-1 $-1 $259 $77 #
coedge $-1 $180 $180 $181 $260 reversed $118 $-1 #
coedge $-1 $181 $181 $180 $260 forward $120 $-1 #
coedge $-1 $182 $182 $121 $183 forward $177 $-1 #
edge $-1 $261 -3.1415926535897931 $261 3.1415926535897931 $182 $262 forward 7 unknown #
loop $-1 $-1 $263 $122 #
plane-surface $-1 0 0 0.28125000000000017 0 0 1 1 0 0 forward_v I I I I #
coedge $-1 $186 $186 $126 $188 forward $123 $-1 #
coedge $-1 $187 $187 $263 $264 reversed $125 $-1 #
edge $-1 $265 0 $265 6.2831853071795862 $186 $266 forward 7 unknown #
loop $-1 $-1 $267 $127 #
plane-surface $-1 0 0 0.34375000000000017 0 0 1 1 0 0 forward_v I I I I #
coedge $-1 $191 $191 $131 $193 forward $128 $-1 #
coedge $-1 $192 $192 $267 $268 reversed $130 $-1 #
edge $-1 $269 0 $269 6.2831853071795862 $191 $270 forward 7 unknown #
face $-1 $271 $272 $47 $-1 $88 reversed single #
loop $-1 $-1 $273 $132 #
coedge $-1 $274 $275 $276 $277 reversed $133 $-1 #
coedge $-1 $278 $134 $279 $280 forward $87 $-1 #
coedge $-1 $134 $278 $281 $282 reversed $87 $-1 #
coedge $-1 $283 $284 $134 $200 forward $285 $-1 #
edge $-1 $286 0 $287 1.5707963267948966 $199 $288 forward 7 unknown #
face_name-twe-attrib $-1 $-1 $135 $61 3 #
face_name-twe-attrib $-1 $-1 $136 $92 4 #
model_id-kcp-attrib $-1 $289 $-1 $137 1 990669480 60 540803073 6 #
face $290 $291 $292 $12 $-1 $293 forward single #
loop $294 $295 $148 $137 #
cone-surface $296 1 0.23000000000000001 0 0 -1 0 -1 0 0 1 I I 0.70710678118654702 0.70710678118654802 1 forward I I I I #
model_id-kcp-attrib $-1 $297 $-1 $138 1 990669480 60 540803073 21 #
loop $298 $-1 $299 $92 #
coedge $-1 $209 $209 $300 $301 forward $138 $-1 #
surf-twe-attrib $-1 $-1 $-1 $139 18 #
model_id-kcp-attrib $-1 $302 $-1 $141 1 990669480 60 540803073 20 #
coedge $-1 $212 $212 $303 $304 reversed $141 $-1 #
coedge $-1 $213 $213 $142 $214 reversed $305 $-1 #
edge $306 $307 -3.1415926535897931 $307 3.1415926535897931 $213 $308 forward 7 unknown #
coedge $-1 $215 $215 $145 $216 forward $309 $-1 #
edge $310 $311 0 $311 6.2831853071795862 $215 $312 forward 7 unknown #
loop $313 $-1 $146 $314 #
edge_name-twe-attrib $-1 $-1 $-1 $147 6 8448 #
vertex $-1 $147 $315 #
ellipse-curve $316 1 0 0 0 -1 0 -1.05656854249492 0 0 1 I I #
attrib_edge_convexity-kcp-attrib $-1 $317 $-1 $149 1 #
vertex $-1 $149 $318 #
ellipse-curve $319 1 0.25 0 0 -1 0 -0.97999999999999998 0 0 1 I I #
loop_type-twe-attrib $-1 $-1 $-1 $150 1 #
face $320 $-1 $321 $12 $-1 $322 reversed single #
convexity-sys-attrib $-1 $323 $151 $102 #
point $-1 0.5 0.25 0 #
cur-twe-attrib $-1 $-1 $-1 $153 28 #
face $324 $325 $326 $35 $-1 $327 reversed single #
loop $-1 $-1 $328 $155 #
plane-surface $-1 -1.4375 0 0 1 0 0 0 0 -1 forward_v I I I I #
coedge $-1 $329 $240 $330 $331 forward $156 $-1 #
coedge $-1 $332 $158 $329 $333 forward $104 $-1 #
coedge $-1 $158 $332 $334 $335 forward $104 $-1 #
coedge $-1 $243 $242 $158 $236 reversed $244 $-1 #
edge $-1 $336 -0.625 $337 0.625 $235 $338 forward 7 unknown #
coedge $-1 $160 $159 $339 $340 forward $69 $-1 #
coedge $-1 $341 $342 $159 $239 reversed $326 $-1 #
edge $-1 $246 -1.4375 $343 1.4375 $238 $344 forward 7 unknown #
coedge $-1 $232 $345 $160 $241 reversed $156 $-1 #
edge $-1 $346 -1.4375 $245 1.4375 $240 $347 forward 7 unknown #
coedge $-1 $235 $161 $345 $348 forward $244 $-1 #
coedge $-1 $161 $235 $341 $349 reversed $244 $-1 #
loop $-1 $-1 $242 $325 #
vertex $-1 $162 $350 #
vertex $-1 $162 $351 #
straight-curve $-1 1.4375 0 1.4375 0 1 0 I I #
loop $-1 $-1 $352 $107 #
coedge $-1 $249 $249 $352 $353 reversed $165 $-1 #
edge $-1 $354 0 $354 6.2831853071795862 $166 $355 forward 7 unknown #
vertex $-1 $169 $356 #
ellipse-curve $-1 0 0 0.010000000000000009 0 0 -1 0.97999999999999998 0 0 1 I I #
loop $-1 $-1 $357 $112 #
coedge $-1 $254 $254 $357 $358 reversed $172 $-1 #
edge $-1 $359 0 $359 6.2831853071795862 $173 $360 forward 7 unknown #
vertex $-1 $176 $361 #
ellipse-curve $-1 0 0 0.010000000000000009 0 0 -1 1.4175 0 0 1 I I #
loop $-1 $-1 $362 $117 #
coedge $-1 $259 $259 $362 $363 reversed $179 $-1 #
edge $-1 $364 0 $364 6.2831853071795862 $180 $365 forward 7 unknown #
vertex $-1 $183 $366 #
ellipse-curve $-1 0 0 0.010000000000000009 0 0 -1 1.4175 0 0 1 I I #
coedge $-1 $263 $263 $187 $264 forward $184 $-1 #
edge $-1 $367 0 $367 6.2831853071795862 $263 $368 forward 7 unknown #
vertex $-1 $188 $369 #
ellipse-curve $-1 0 0 -0.28125000000000017 0 0 -1 0.3125 0 0 1 I I #
coedge $-1 $267 $267 $192 $268 forward $189 $-1 #
edge $-1 $370 0 $370 6.2831853071795862 $267 $371 forward 7 unknown #
vertex $-1 $193 $372 #
ellipse-curve $-1 0 0 -0.34375000000000017 0 0 -1 0.5 0 0 1 I I #
face $-1 $373 $374 $47 $-1 $375 forward single #
loop $-1 $-1 $376 $194 #
coedge $-1 $377 $378 $376 $379 forward $195 $-1 #
coedge $-1 $380 $196 $381 $382 reversed $133 $-1 #
coedge $-1 $196 $380 $198 $282 forward $133 $-1 #
coedge $-1 $383 $384 $196 $277 forward $385 $-1 #
edge $-1 $386 -3.1415926535897931 $387 -1.5707963267948966 $276 $388 forward 7 unknown #
coedge $-1 $198 $197 $389 $390 reversed $87 $-1 #
coedge $-1 $378 $377 $391 $280 reversed $195 $-1 #
edge $-1 $286 -1.25 $392 0 $391 $393 forward 7 unknown #
coedge $-1 $394 $395 $396 $282 forward $397 $-1 #
edge $-1 $287 -1.25 $387 0 $281 $398 forward 7 unknown #
coedge $-1 $284 $199 $395 $399 reversed $285 $-1 #
coedge $-1 $199 $283 $400 $401 forward $285 $-1 #
loop $-1 $-1 $199 $402 #
vertex $-1 $403 $404 #
vertex $-1 $405 $406 #
ellipse-curve $-1 0 -0.625 0 0 1 0 -1.4375 0 0 1 I I #
face_name-twe-attrib $-1 $-1 $203 $137 5 #
model_id-kcp-attrib $-1 $407 $-1 $204 1 990669480 60 540803073 7 #
face $408 $409 $410 $12 $-1 $411 forward single #
loop $412 $413 $414 $204 #
cone-surface $415 1 0.3125 0 0 -1 0 -1 0 0 1 I I 0 1 1 forward I I I I #
loop_type-twe-attrib $-1 $-1 $-1 $205 0 #
loop $416 $-1 $417 $137 #
surf-twe-attrib $-1 $-1 $-1 $206 30 #
loop_type-twe-attrib $-1 $-1 $207 $138 1 #
loop_type-twe-attrib $-1 $-1 $-1 $208 0 #
coedge $-1 $299 $299 $418 $419 reversed $208 $-1 #
coedge $-1 $300 $300 $209 $301 reversed $420 $-1 #
edge $421 $422 -3.1415926535897931 $422 3.1415926535897931 $300 $423 forward 7 unknown #
loop_type-twe-attrib $-1 $-1 $211 $141 1 #
coedge $-1 $303 $303 $212 $304 forward $424 $-1 #
edge $425 $426 0 $426 6.2831853071795862 $303 $427 forward 7 unknown #
loop $428 $-1 $213 $429 #
attrib_edge_convexity-kcp-attrib $-1 $430 $-1 $214 1 #
vertex $-1 $214 $431 #
ellipse-curve $432 1 -1 0 0 -1 0 -1.4175 0 0 1 I I #
loop $433 $434 $215 $435 #
attrib_edge_convexity-kcp-attrib $-1 $436 $-1 $216 1 #
vertex $-1 $216 $437 #
ellipse-curve $438 1 0 0 0 -1 0 -1.4175 0 0 1 I I #
loop_type-twe-attrib $-1 $-1 $-1 $217 1 #
face $439 $435 $440 $12 $-1 $441 reversed single #
point $-1 2.05656854249492 0 -1.2939230604355399e-016 #
cur-twe-attrib $-1 $-1 $-1 $220 40 #
convexity-sys-attrib $-1 $442 $221 $149 #
point $-1 0.020000000000000101 0.25 0 #
cur-twe-attrib $-1 $-1 $-1 $223 42 #
model_id-kcp-attrib $-1 $443 $-1 $225 1 990669480 60 540803073 15 #
loop $444 $150 $418 $225 #
cone-surface $445 1 0.3125 0 0 -1 0 -0.5 0 0 1 I I 0 1 0.5 forward I I I I #
edge_name-twe-attrib $-1 $-1 $226 $102 14 8704 #
model_id-kcp-attrib $-1 $-1 $-1 $229 1 990669480 80 542113794 2 #
face $-1 $-1 $244 $35 $-1 $446 reversed single #
loop $-1 $-1 $341 $229 #
plane-surface $-1 0 0.625 0 0 -1 0 0 0 -1 forward_v I I I I #
coedge $-1 $447 $339 $342 $448 forward $230 $-1 #
coedge $-1 $345 $232 $233 $333 reversed $156 $-1 #
coedge $-1 $339 $447 $232 $331 reversed $230 $-1 #
edge $-1 $346 -1.4375 $449 1.4375 $330 $450 forward 7 unknown #
coedge $-1 $234 $233 $447 $451 forward $104 $-1 #
edge $-1 $337 -1.4375 $449 1.4375 $329 $452 forward 7 unknown #
coedge $-1 $342 $341 $234 $335 reversed $326 $-1 #
edge $-1 $453 -1.4375 $336 1.4375 $334 $454 forward 7 unknown #
vertex $-1 $236 $455 #
vertex $-1 $348 $456 #
straight-curve $-1 1.4375 0 -1.4375 0 -1 0 I I #
coedge $-1 $328 $330 $237 $340 reversed $230 $-1 #
edge $-1 $343 -0.625 $346 0.625 $339 $457 forward 7 unknown #
coedge $-1 $334 $238 $243 $349 forward $326 $-1 #
coedge $-1 $238 $334 $328 $448 reversed $326 $-1 #
vertex $-1 $239 $458 #
straight-curve $-1 0 0.625 1.4375 -1 0 0 I I #
coedge $-1 $240 $329 $242 $348 reversed $156 $-1 #
vertex $-1 $340 $459 #
straight-curve $-1 0 -0.625 1.4375 1 0 0 I I #
edge $-1 $245 -1.4375 $337 1.4375 $242 $460 forward 7 unknown #
edge $-1 $246 -1.4375 $336 1.4375 $243 $461 forward 7 unknown #
point $-1 1.4375 -0.625 1.4375 #
point $-1 1.4375 0.625 1.4375 #
coedge $-1 $352 $352 $249 $353 forward $248 $-1 #
edge $-1 $462 0 $462 6.2831853071795862 $352 $463 forward 7 unknown #
vertex $-1 $250 $464 #
ellipse-curve $-1 0 0 -0.009999999999999995 0 0 -1 1 0 0 1 I I #
point $-1 -0.97999999999999998 1.2001142267459298e-016 0.010000000000000009 #
coedge $-1 $357 $357 $254 $358 forward $253 $-1 #
edge $-1 $465 0 $465 6.2831853071795862 $357 $466 forward 7 unknown #
vertex $-1 $255 $467 #
ellipse-curve $-1 0 0 -0.01 0 0 -1 1.4375 0 0 1 I I #
point $-1 -1.4175 1.7358795065432199e-016 0.010000000000000009 #
coedge $-1 $362 $362 $259 $363 forward $258 $-1 #
edge $-1 $468 0 $468 6.2831853071795862 $362 $469 forward 7 unknown #
vertex $-1 $260 $470 #
ellipse-curve $-1 0 0 -0.010000000000000009 0 0 -1 1.4375 0 0 1 I I #
point $-1 -1.4175 1.7358795065432199e-016 0.010000000000000009 #
vertex $-1 $264 $471 #
ellipse-curve $-1 0 0 0.28125000000000017 0 0 1 0.3125 0 0 1 I I #
point $-1 0.3125 0 -0.28125000000000017 #
vertex $-1 $268 $472 #
ellipse-curve $-1 0 0 0.34375000000000017 0 0 1 0.5 0 0 1 I I #
point $-1 0.5 0 -0.34375000000000017 #
face $-1 $473 $474 $47 $-1 $475 reversed single #
loop $-1 $-1 $396 $271 #
plane-surface $-1 0 0 1.4375 0 0 1 1 0 0 forward_v I I I I #
coedge $-1 $476 $477 $478 $379 reversed $272 $-1 #
coedge $-1 $279 $273 $479 $480 reversed $195 $-1 #
coedge $-1 $273 $279 $481 $482 reversed $195 $-1 #
edge $-1 $483 -1.25 $484 0 $478 $485 forward 7 unknown #
coedge $-1 $275 $274 $486 $487 reversed $133 $-1 #
coedge $-1 $488 $489 $490 $382 forward $491 $-1 #
edge $-1 $492 -1.25 $386 0 $381 $493 forward 7 unknown #
coedge $-1 $384 $276 $494 $495 reversed $385 $-1 #
coedge $-1 $276 $383 $488 $496 forward $385 $-1 #
loop $-1 $-1 $276 $497 #
vertex $-1 $498 $499 #
vertex $-1 $500 $501 #
ellipse-curve $-1 0 0.625 0 0 -1 0 -1.4375 0 0 1 I I #
coedge $-1 $502 $503 $278 $390 forward $504 $-1 #
edge $-1 $387 -1.5707963267948966 $392 0 $389 $388 forward 7 unknown #
coedge $-1 $505 $506 $507 $280 forward $474 $-1 #
vertex $-1 $508 $509 #
straight-curve $-1 -1.4375 0.625 0 0 1 0 I I #
coedge $-1 $510 $281 $503 $500 forward $397 $-1 #
coedge $-1 $281 $510 $283 $399 forward $397 $-1 #
coedge $-1 $511 $494 $275 $282 reversed $374 $-1 #
loop $-1 $-1 $281 $512 #
straight-curve $-1 0 0.625 1.4375 0 1 0 I I #
edge $-1 $513 -1.4375 $287 0 $283 $514 forward 7 unknown #
coedge $-1 $515 $507 $284 $401 reversed $516 $-1 #
edge $-1 $513 -1.4375 $286 0 $400 $517 forward 7 unknown #
face $-1 $518 $285 $47 $-1 $519 reversed single #
edge $-1 $286 0 $520 1.4375 $506 $517 forward 7 unknown #
point $-1 -1.4375 -0.625 0 #
edge $-1 $287 0 $521 1.4375 $522 $514 forward 7 unknown #
point $-1 0 -0.625 1.4375 #
face_name-twe-attrib $-1 $-1 $290 $204 6 #
model_id-kcp-attrib $-1 $523 $-1 $291 1 990669480 60 540803073 8 #
face $524 $314 $525 $12 $-1 $526 reversed single #
loop $527 $528 $529 $291 #
cone-surface $530 1 0.056568542494923997 0 0 1 0 -1 0 0 1 I I 0.70710678118654702 0.70710678118654902 1 forward I I I I #
loop_type-twe-attrib $-1 $-1 $-1 $292 0 #
loop $531 $-1 $532 $204 #
coedge $-1 $414 $414 $417 $533 forward $292 $-1 #
surf-twe-attrib $-1 $-1 $-1 $293 48 #
loop_type-twe-attrib $-1 $-1 $-1 $295 1 #
coedge $-1 $417 $417 $414 $533 reversed $295 $-1 #
coedge $-1 $418 $418 $299 $419 forward $321 $-1 #
edge $534 $535 0 $535 6.2831853071795862 $418 $536 forward 7 unknown #
loop $537 $-1 $300 $538 #
attrib_edge_convexity-kcp-attrib $-1 $539 $-1 $301 1 #
vertex $540 $301 $541 #
ellipse-curve $542 1 -0.4375 0 0 -1 0 -0.3125 0 0 1 I I #
loop $543 $420 $303 $538 #
attrib_edge_convexity-kcp-attrib $-1 $544 $-1 $304 1 #
vertex $545 $304 $546 #
ellipse-curve $547 1 -1 0 0 -1 0 -0.3125 0 0 1 I I #
loop_type-twe-attrib $-1 $-1 $-1 $305 1 #
face $548 $538 $549 $12 $-1 $550 forward single #
convexity-sys-attrib $-1 $551 $306 $214 #
point $-1 2.4175 -1 -1.7359365383303499e-016 #
cur-twe-attrib $-1 $-1 $-1 $308 58 #
loop_type-twe-attrib $-1 $-1 $-1 $309 0 #
loop $552 $-1 $553 $435 #
face $554 $555 $309 $12 $-1 $556 forward single #
convexity-sys-attrib $-1 $557 $310 $216 #
point $-1 -0.41749999999999998 0 0 #
cur-twe-attrib $-1 $-1 $-1 $312 60 #
model_id-kcp-attrib $-1 $558 $-1 $314 1 990669480 60 540803073 10 #
loop $559 $217 $560 $314 #
cone-surface $561 1 0 0 0 1 0 -1.05656854249492 0 0 1 I I 0.70710678118654702 0.70710678118654902 1.05656854249492 forward I I I I #
edge_name-twe-attrib $-1 $-1 $317 $149 1 8448 #
face_name-twe-attrib $-1 $-1 $320 $225 14 #
loop_type-twe-attrib $-1 $-1 $-1 $321 0 #
surf-twe-attrib $-1 $-1 $-1 $322 69 #
plane-surface $-1 1.4375 0 0 -1 0 0 0 0 1 forward_v I I I I #
coedge $-1 $330 $328 $332 $451 reversed $230 $-1 #
edge $-1 $343 -1.4375 $453 1.4375 $342 $562 forward 7 unknown #
vertex $-1 $451 $563 #
straight-curve $-1 -1.4375 -0.625 0 0 0 -1 I I #
edge $-1 $449 -0.625 $453 0.625 $447 $564 forward 7 unknown #
straight-curve $-1 0 -0.625 -1.4375 -1 0 0 I I #
vertex $-1 $335 $565 #
straight-curve $-1 0 0.625 -1.4375 1 0 0 I I #
point $-1 1.4375 0.625 -1.4375 #
point $-1 1.4375 -0.625 -1.4375 #
straight-curve $-1 -1.4375 0 1.4375 0 -1 0 I I #
point $-1 -1.4375 0.625 1.4375 #
point $-1 -1.4375 -0.625 1.4375 #
straight-curve $-1 1.4375 -0.625 0 0 0 -1 I I #
straight-curve $-1 1.4375 0.625 0 0 0 -1 I I #
vertex $-1 $353 $566 #
ellipse-curve $-1 0 0 0.009999999999999995 0 0 1 1 0 0 1 I I #
point $-1 1 0 -0.009999999999999995 #
vertex $-1 $358 $567 #
ellipse-curve $-1 0 0 0.01 0 0 1 1.4375 0 0 1 I I #
point $-1 1.4375 0 -0.01 #
vertex $-1 $363 $568 #
ellipse-curve $-1 0 0 0.010000000000000009 0 0 1 1.4375 0 0 1 I I #
point $-1 1.4375 0 -0.010000000000000009 #
point $-1 0.3125 0 0.28125000000000017 #
point $-1 0.5 0 0.34375000000000017 #
face $-1 $569 $570 $47 $-1 $571 reversed single #
loop $-1 $-1 $391 $373 #
plane-surface $-1 -1.4375 0 0 1 0 0 0 0 -1 forward_v I I I I #
coedge $-1 $572 $376 $573 $574 reversed $272 $-1 #
coedge $-1 $376 $572 $575 $576 reversed $272 $-1 #
coedge $-1 $577 $578 $579 $379 forward $580 $-1 #
coedge $-1 $581 $582 $377 $480 forward $583 $-1 #
edge $-1 $392 0 $484 1.5707963267948966 $479 $388 forward 7 unknown #
coedge $-1 $584 $585 $378 $482 forward $586 $-1 #
edge $-1 $483 -1.5707963267948966 $286 0 $481 $288 forward 7 unknown #
vertex $-1 $587 $588 #
vertex $-1 $589 $590 #
straight-curve $-1 0 0.625 -1.4375 0 1 0 I I #
coedge $-1 $591 $522 $380 $487 forward $592 $-1 #
edge $-1 $287 1.5707963267948966 $492 3.1415926535897931 $486 $288 forward 7 unknown #
coedge $-1 $593 $381 $384 $496 reversed $491 $-1 #
coedge $-1 $381 $593 $591 $594 forward $491 $-1 #
coedge $-1 $595 $596 $572 $382 reversed $570 $-1 #
loop $-1 $-1 $381 $597 #
vertex $-1 $598 $599 #
straight-curve $-1 1.4375 0.625 0 0 1 0 I I #
coedge $-1 $396 $600 $383 $495 forward $374 $-1 #
edge $-1 $601 -1.4375 $387 0 $383 $602 forward 7 unknown #
edge $-1 $601 -1.4375 $386 0 $488 $603 forward 7 unknown #
face $-1 $604 $385 $47 $-1 $605 reversed single #
edge $-1 $386 0 $606 1.4375 $596 $603 forward 7 unknown #
point $-1 1.4375 0.625 0 #
edge $-1 $387 0 $607 1.4375 $503 $602 forward 7 unknown #
point $-1 0 0.625 1.4375 #
coedge $-1 $503 $389 $608 $609 reversed $504 $-1 #
coedge $-1 $389 $502 $394 $500 reversed $504 $-1 #
loop $-1 $-1 $389 $604 #
coedge $-1 $610 $391 $582 $508 forward $474 $-1 #
coedge $-1 $391 $610 $584 $403 reversed $474 $-1 #
coedge $-1 $400 $608 $197 $280 reversed $516 $-1 #
edge $-1 $392 0 $611 1.4375 $582 $612 forward 7 unknown #
point $-1 -1.4375 0.625 0 #
coedge $-1 $395 $394 $515 $613 forward $397 $-1 #
coedge $-1 $600 $396 $522 $405 forward $374 $-1 #
face $-1 $614 $397 $47 $-1 $375 forward single #
vertex $-1 $613 $615 #
straight-curve $-1 0 -0.625 1.4375 1 0 0 I I #
coedge $-1 $608 $400 $510 $613 reversed $516 $-1 #
loop $-1 $-1 $507 $616 #
straight-curve $-1 -1.4375 -0.625 0 0 0 -1 I I #
face $-1 $617 $592 $47 $-1 $519 reversed single #
plane-surface $-1 0 -0.625 0 0 1 0 0 0 1 forward_v I I I I #
vertex $-1 $618 $619 #
vertex $-1 $620 $621 #
coedge $-1 $486 $591 $511 $405 reversed $592 $-1 #
face_name-twe-attrib $-1 $-1 $408 $291 7 #
model_id-kcp-attrib $-1 $622 $-1 $409 1 990669480 60 540803073 9 #
loop $623 $624 $625 $409 #
torus-surface $626 1 0 0 0 -1 0 1 0.040000000000000001 0 0 -1 forward_v I I I I #
loop_type-twe-attrib $-1 $-1 $-1 $410 0 #
loop $627 $-1 $628 $291 #
coedge $-1 $529 $529 $532 $629 forward $410 $-1 #
surf-twe-attrib $-1 $-1 $-1 $411 73 #
loop_type-twe-attrib $-1 $-1 $-1 $413 1 #
coedge $-1 $532 $532 $529 $629 reversed $413 $-1 #
edge $630 $631 -3.1415926535897931 $631 3.1415926535897931 $414 $632 forward 7 unknown #
attrib_edge_convexity-kcp-attrib $-1 $633 $-1 $419 2 #
vertex $-1 $419 $634 #
ellipse-curve $635 1 -0.4375 0 0 -1 0 -0.5 0 0 1 I I #
model_id-kcp-attrib $-1 $636 $-1 $420 1 990669480 60 540803073 19 #
face $637 $225 $424 $12 $-1 $638 reversed single #
convexity-sys-attrib $-1 $639 $421 $301 #
model_id-kcp-attrib $-1 $-1 $-1 $422 1 990669480 60 540803073 23 #
point $-1 1.3125 -0.4375 -3.8270205871480401e-017 #
cur-twe-attrib $-1 $-1 $-1 $423 82 #
model_id-kcp-attrib $-1 $640 $-1 $424 1 990669480 60 540803073 18 #
convexity-sys-attrib $-1 $641 $425 $304 #
model_id-kcp-attrib $-1 $-1 $-1 $426 1 990669480 60 540803073 22 #
point $-1 0.6875 -1 0 #
cur-twe-attrib $-1 $-1 $-1 $427 84 #
model_id-kcp-attrib $-1 $642 $-1 $429 1 990669480 60 540803073 13 #
loop $643 $305 $644 $429 #
cone-surface $645 1 -0.97999999999999998 0 0 1 0 -1.4375 0 0 1 I I 0.70710678118654702 0.70710678118654802 1.4375 forward I I I I #
edge_name-twe-attrib $-1 $-1 $430 $214 10 8448 #
loop_type-twe-attrib $-1 $-1 $-1 $434 1 #
coedge $-1 $553 $553 $646 $647 reversed $434 $-1 #
model_id-kcp-attrib $-1 $648 $-1 $435 1 990669480 60 540803073 11 #
face $649 $429 $650 $12 $-1 $651 forward single #
cone-surface $652 1 -0.02 0 0 -1 0 -1.4375 0 0 1 I I 0.70710678118654702 0.70710678118654802 1.4375 forward I I I I #
edge_name-twe-attrib $-1 $-1 $436 $216 7 8448 #
face_name-twe-attrib $-1 $-1 $439 $314 9 #
loop_type-twe-attrib $-1 $-1 $-1 $440 0 #
coedge $-1 $560 $560 $653 $654 forward $440 $-1 #
surf-twe-attrib $-1 $-1 $-1 $441 94 #
straight-curve $-1 -1.4375 0.625 0 0 0 -1 I I #
point $-1 -1.4375 -0.625 -1.4375 #
straight-curve $-1 -1.4375 0 -1.4375 0 1 0 I I #
point $-1 -1.4375 0.625 -1.4375 #
point $-1 1 0 0.009999999999999995 #
point $-1 1.4375 0 0.01 #
point $-1 1.4375 0 0.010000000000000009 #
face $-1 $497 $655 $47 $-1 $605 reversed single #
loop $-1 $-1 $490 $473 #
plane-surface $-1 1.4375 0 0 -1 0 0 0 0 1 forward_v I I I I #
coedge $-1 $477 $476 $274 $382 forward $272 $-1 #
coedge $-1 $656 $657 $476 $574 forward $658 $-1 #
edge $-1 $492 -3.1415926535897931 $483 -1.5707963267948966 $573 $288 forward 7 unknown #
coedge $-1 $659 $660 $477 $576 forward $655 $-1 #
edge $-1 $484 1.5707963267948966 $386 3.1415926535897931 $575 $388 forward 7 unknown #
coedge $-1 $661 $478 $660 $589 forward $580 $-1 #
coedge $-1 $478 $661 $656 $662 forward $580 $-1 #
coedge $-1 $663 $664 $273 $379 reversed $665 $-1 #
loop $-1 $-1 $478 $614 #
coedge $-1 $582 $479 $664 $666 reversed $583 $-1 #
coedge $-1 $479 $581 $505 $508 reversed $583 $-1 #
loop $-1 $-1 $479 $667 #
coedge $-1 $585 $481 $506 $403 forward $586 $-1 #
coedge $-1 $481 $584 $663 $587 reversed $586 $-1 #
loop $-1 $-1 $481 $668 #
edge $-1 $483 0 $520 1.4375 $585 $669 forward 7 unknown #
point $-1 0 -0.625 -1.4375 #
edge $-1 $484 0 $606 1.4375 $660 $670 forward 7 unknown #
point $-1 0 0.625 -1.4375 #
coedge $-1 $522 $486 $489 $594 reversed $592 $-1 #
loop $-1 $-1 $486 $518 #
coedge $-1 $489 $488 $600 $620 reversed $491 $-1 #
edge $-1 $521 -1.4375 $492 0 $489 $671 forward 7 unknown #
coedge $-1 $672 $490 $657 $598 forward $570 $-1 #
coedge $-1 $490 $672 $659 $498 reversed $570 $-1 #
face $-1 $-1 $491 $47 $-1 $571 reversed single #
edge $-1 $492 0 $673 1.4375 $595 $671 forward 7 unknown #
point $-1 1.4375 -0.625 0 #
coedge $-1 $494 $511 $593 $620 forward $374 $-1 #
vertex $-1 $620 $674 #
straight-curve $-1 0 0.625 1.4375 -1 0 0 I I #
straight-curve $-1 1.4375 0.625 0 0 0 -1 I I #
face $-1 $667 $504 $47 $-1 $605 reversed single #
plane-surface $-1 0 0.625 0 0 -1 0 0 0 -1 forward_v I I I I #
vertex $-1 $675 $676 #
vertex $-1 $500 $677 #
coedge $-1 $507 $515 $502 $609 forward $516 $-1 #
edge $-1 $607 -1.4375 $392 0 $502 $612 forward 7 unknown #
coedge $-1 $506 $505 $678 $618 reversed $474 $-1 #
vertex $-1 $666 $679 #
straight-curve $-1 -1.4375 0.625 0 0 0 -1 I I #
edge $-1 $607 -0.625 $513 0.625 $515 $680 forward 7 unknown #
face $-1 $616 $580 $47 $-1 $681 reversed single #
point $-1 -1.4375 -0.625 1.4375 #
face $-1 $597 $516 $47 $-1 $475 reversed single #
face $-1 $682 $658 $47 $-1 $519 reversed single #
edge $-1 $520 -0.625 $611 0.625 $610 $683 forward 7 unknown #
point $-1 -1.4375 -0.625 -1.4375 #
edge $-1 $521 -0.625 $601 0.625 $593 $684 forward 7 unknown #
point $-1 1.4375 -0.625 1.4375 #
face_name-twe-attrib $-1 $-1 $524 $409 8 #
loop_type-twe-attrib $-1 $-1 $-1 $525 0 #
loop $685 $-1 $653 $409 #
coedge $-1 $625 $625 $628 $686 forward $525 $-1 #
surf-twe-attrib $-1 $-1 $-1 $526 103 #
loop_type-twe-attrib $-1 $-1 $-1 $528 1 #
coedge $-1 $628 $628 $625 $686 reversed $528 $-1 #
edge $687 $688 -3.1415926535897931 $688 3.1415926535897931 $529 $689 forward 7 unknown #
attrib_edge_convexity-kcp-attrib $-1 $690 $-1 $533 1 #
vertex $-1 $533 $691 #
ellipse-curve $692 1 0.23000000000000001 0 0 -1 0 -1 0 0 1 I I #
convexity-sys-attrib $-1 $693 $534 $419 #
point $-1 0.5 -0.4375 0 #
cur-twe-attrib $-1 $-1 $-1 $536 113 #
loop_type-twe-attrib $-1 $-1 $537 $420 1 #
model_id-kcp-attrib $-1 $694 $-1 $538 1 990669480 60 540803073 14 #
cone-surface $695 1 0.3125 0 0 -1 0 -0.3125 0 0 1 I I 0 1 0.3125 forward I I I I #
edge_name-twe-attrib $-1 $-1 $539 $301 12 8704 #
loop_type-twe-attrib $-1 $-1 $543 $424 0 #
edge_name-twe-attrib $-1 $-1 $544 $304 11 8704 #
face_name-twe-attrib $-1 $-1 $548 $429 12 #
loop_type-twe-attrib $-1 $-1 $-1 $549 0 #
coedge $-1 $644 $644 $696 $697 forward $549 $-1 #
surf-twe-attrib $-1 $-1 $-1 $550 123 #
coedge $-1 $646 $646 $553 $647 forward $650 $-1 #
edge $698 $699 -3.1415926535897931 $699 3.1415926535897931 $646 $700 forward 7 unknown #
face_name-twe-attrib $-1 $-1 $554 $435 10 #
model_id-kcp-attrib $-1 $701 $-1 $555 1 990669480 60 540803073 12 #
loop $702 $703 $646 $555 #
cone-surface $704 1 0.3125 0 0 -1 0 -1.4375 0 0 1 I I 0 1 1.4375 forward I I I I #
surf-twe-attrib $-1 $-1 $-1 $556 128 #
coedge $-1 $653 $653 $560 $654 reversed $624 $-1 #
edge $705 $706 -3.1415926535897931 $706 3.1415926535897931 $560 $707 forward 7 unknown #
loop $-1 $-1 $575 $569 #
coedge $-1 $657 $573 $578 $662 reversed $658 $-1 #
coedge $-1 $573 $656 $595 $598 reversed $658 $-1 #
loop $-1 $-1 $573 $617 #
coedge $-1 $660 $575 $596 $498 forward $655 $-1 #
coedge $-1 $575 $659 $577 $589 reversed $655 $-1 #
coedge $-1 $578 $577 $672 $675 forward $580 $-1 #
edge $-1 $673 -1.4375 $483 0 $656 $669 forward 7 unknown #
coedge $-1 $678 $579 $585 $587 forward $665 $-1 #
coedge $-1 $579 $678 $581 $666 forward $665 $-1 #
loop $-1 $-1 $579 $682 #
edge $-1 $611 -1.4375 $484 0 $581 $670 forward 7 unknown #
face $-1 $668 $583 $47 $-1 $605 reversed single #
face $-1 $402 $586 $47 $-1 $519 reversed single #
straight-curve $-1 0 -0.625 -1.4375 -1 0 0 I I #
straight-curve $-1 0 0.625 -1.4375 1 0 0 I I #
straight-curve $-1 1.4375 -0.625 0 0 0 -1 I I #
coedge $-1 $596 $595 $661 $675 reversed $570 $-1 #
vertex $-1 $598 $708 #
point $-1 1.4375 0.625 1.4375 #
edge $-1 $606 -0.625 $673 0.625 $672 $709 forward 7 unknown #
point $-1 1.4375 0.625 -1.4375 #
point $-1 -1.4375 0.625 1.4375 #
coedge $-1 $664 $663 $610 $618 forward $665 $-1 #
point $-1 -1.4375 0.625 -1.4375 #
straight-curve $-1 -1.4375 0 1.4375 0 -1 0 I I #
plane-surface $-1 0 0 -1.4375 0 0 1 1 0 0 forward_v I I I I #
face $-1 $512 $665 $47 $-1 $681 reversed single #
straight-curve $-1 -1.4375 0 -1.4375 0 1 0 I I #
straight-curve $-1 1.4375 0 1.4375 0 1 0 I I #
loop_type-twe-attrib $-1 $-1 $-1 $624 1 #
edge $710 $711 -3.1415926535897931 $711 3.1415926535897931 $625 $712 forward 7 unknown #
edge_name-twe-attrib $-1 $-1 $-1 $629 3 8448 #
vertex $-1 $629 $713 #
ellipse-curve $714 1 0.056568542494923997 0 0 -1 0 -1 0 0 1 I I #
convexity-sys-attrib $-1 $715 $630 $533 #
point $-1 2 0.23000000000000001 -1.2246465878873701e-016 #
cur-twe-attrib $-1 $-1 $-1 $632 145 #
edge_name-twe-attrib $-1 $-1 $633 $419 13 4608 #
face_name-twe-attrib $-1 $-1 $637 $538 13 #
surf-twe-attrib $-1 $-1 $-1 $638 150 #
coedge $-1 $696 $696 $644 $697 reversed $703 $-1 #
edge $716 $717 -3.1415926535897931 $717 3.1415926535897931 $644 $718 forward 7 unknown #
attrib_edge_convexity-kcp-attrib $-1 $719 $-1 $647 1 #
vertex $-1 $647 $720 #
ellipse-curve $721 1 -0.02 0 0 -1 0 -1.4375 0 0 1 I I #
face_name-twe-attrib $-1 $-1 $649 $555 11 #
loop_type-twe-attrib $-1 $-1 $-1 $650 0 #
loop $722 $-1 $696 $555 #
surf-twe-attrib $-1 $-1 $-1 $651 162 #
edge_name-twe-attrib $-1 $-1 $-1 $654 5 20480 #
vertex $-1 $654 $723 #
ellipse-curve $724 1 -0.028284271247460999 0 0 -1 0 -1.02828427124746 0 0 1 I I #
point $-1 1.4375 -0.625 -1.4375 #
straight-curve $-1 1.4375 0 -1.4375 0 -1 0 I I #
edge_name-twe-attrib $-1 $-1 $-1 $686 4 24576 #
vertex $-1 $686 $725 #
ellipse-curve $726 1 0.028284271247461999 0 0 -1 0 -0.97171572875253798 0 0 1 I I #
point $-1 2 0.056568542494923997 -1.2246465878873701e-016 #
cur-twe-attrib $-1 $-1 $-1 $689 173 #
edge_name-twe-attrib $-1 $-1 $690 $533 2 8448 #
attrib_edge_convexity-kcp-attrib $-1 $727 $-1 $697 1 #
vertex $-1 $697 $728 #
ellipse-curve $729 1 -0.97999999999999998 0 0 -1 0 -1.4375 0 0 1 I I #
convexity-sys-attrib $-1 $730 $698 $647 #
point $-1 2.4375 -0.02 -1.7604294700881e-016 #
cur-twe-attrib $-1 $-1 $-1 $700 185 #
loop_type-twe-attrib $-1 $-1 $-1 $703 1 #
point $-1 2.0282842712474598 -0.028284271247460999 -1.2592848241614599e-016 #
cur-twe-attrib $-1 $-1 $-1 $707 191 #
point $-1 1.97171572875254 0.028284271247461999 -1.1900083516132899e-016 #
cur-twe-attrib $-1 $-1 $-1 $712 193 #
convexity-sys-attrib $-1 $731 $716 $697 #
point $-1 2.4375 -0.97999999999999998 -1.7604294700881e-016 #
cur-twe-attrib $-1 $-1 $-1 $718 201 #
edge_name-twe-attrib $-1 $-1 $719 $647 8 8448 #
edge_name-twe-attrib $-1 $-1 $727 $697 9 8448 #
End-of-ACIS-data 