700 0 2 0           
24 FBMach with ACIS - 7.0.3 13 ACIS 7.0.3 NT 24 Tue May 14 10:16:53 2002 
1 9.9999999999999995e-007 1e-010 
body $2 -1 $-1 $3 $-1 $4 #
bdycol-kcp $-1 -1 1 7 $5 $6 $7 $8 $9 $10 $11 #
model_id-kcp-attrib $-1 -1 $-1 $-1 $0 1 1021385813 1021385813 -1882521599 1 #
lump $-1 -1 $-1 $-1 $12 $0 #
transform $-1 -1 1 0 0 0 1 0 0 0 1 0 0 0 1 rotate no_reflect no_shear #
body $13 -1 $-1 $14 $-1 $15 #
body $16 -1 $-1 $17 $-1 $18 #
body $19 -1 $-1 $20 $-1 $21 #
body $22 -1 $-1 $23 $-1 $24 #
body $25 -1 $-1 $26 $-1 $27 #
body $28 -1 $-1 $29 $-1 $30 #
body $31 -1 $-1 $32 $-1 $33 #
shell $-1 -1 $-1 $-1 $-1 $34 $-1 $3 #
rgb_color-st-attrib $-1 -1 $35 $-1 $5 0.5 1 1 #
lump $-1 -1 $-1 $-1 $36 $5 #
transform $-1 -1 1 0 0 0 -3.8285889215894375e-016 1 0 -1 -3.8285889215894375e-016 1 -0.71875 -3.9482323253891075e-016 1 rotate no_reflect no_shear #
rgb_color-st-attrib $-1 -1 $37 $-1 $6 0.5 1 1 #
lump $-1 -1 $-1 $-1 $38 $6 #
transform $-1 -1 1 0 0 0 -3.8285889215894375e-016 1 0 -1 -3.8285889215894375e-016 1 -0.09375 -1.555364249395709e-016 1 rotate no_reflect no_shear #
rgb_color-st-attrib $-1 -1 $39 $-1 $7 0.5 1 1 #
lump $-1 -1 $-1 $-1 $40 $7 #
transform $-1 -1 1 0 0 0 1 0 0 0 1 1 -0.375 0 1 no_rotate no_reflect no_shear #
model_id-kcp-attrib $-1 -1 $-1 $-1 $8 1 1021385813 1021385813 -1881866238 1 #
lump $-1 -1 $-1 $-1 $41 $8 #
transform $-1 -1 1 0 0 0 1 0 0 0 1 1 -0.375 0 1 no_rotate no_reflect no_shear #
rgb_color-st-attrib $-1 -1 $42 $-1 $9 1 1 0.5 #
lump $-1 -1 $-1 $-1 $43 $9 #
transform $-1 -1 -1 0 0 0 0 1 0 1 0 1 0.23999999999999999 0 1 rotate no_reflect no_shear #
rgb_color-st-attrib $-1 -1 $44 $-1 $10 1 1 0.5 #
lump $-1 -1 $-1 $-1 $45 $10 #
transform $-1 -1 -1 0 0 0 0 1 0 1 0 1 -0.01 0 1 rotate no_reflect no_shear #
rgb_color-st-attrib $-1 -1 $46 $-1 $11 1 1 0.5 #
lump $-1 -1 $-1 $-1 $47 $11 #
transform $-1 -1 1 0 0 0 0 1 0 -1 0 1 -0.98999999999999999 0 1 rotate no_reflect no_shear #
face $48 -1 $-1 $49 $50 $12 $-1 $51 reversed single #
model_id-kcp-attrib $-1 -1 $-1 $13 $5 1 1021385813 1021385813 -1893400570 1 #
shell $-1 -1 $-1 $-1 $-1 $52 $-1 $14 #
model_id-kcp-attrib $-1 -1 $-1 $16 $6 1 1021385813 1021385813 -1893400569 1 #
shell $-1 -1 $-1 $-1 $-1 $53 $-1 $17 #
model_id-kcp-attrib $-1 -1 $-1 $19 $7 1 1021385813 1021385813 -1886191608 1 #
shell $-1 -1 $-1 $-1 $-1 $54 $-1 $20 #
shell $-1 -1 $-1 $-1 $-1 $55 $-1 $23 #
model_id-kcp-attrib $-1 -1 $-1 $25 $9 1 1021385813 1021385813 -1880555517 1 #
shell $-1 -1 $-1 $-1 $-1 $56 $-1 $26 #
model_id-kcp-attrib $-1 -1 $-1 $28 $10 1 1021385813 1021385813 -1880555516 1 #
shell $-1 -1 $-1 $-1 $-1 $57 $-1 $29 #
model_id-kcp-attrib $-1 -1 $-1 $31 $11 1 1021385813 1021385813 -1880555515 1 #
shell $-1 -1 $-1 $-1 $-1 $58 $-1 $32 #
model_id-kcp-attrib $-1 -1 $59 $-1 $34 1 1021385813 1021385813 -1882521599 2 #
face $60 -1 $-1 $61 $62 $12 $-1 $63 reversed single #
loop $64 -1 $-1 $65 $66 $34 #
plane-surface $67 -1 $-1 1 0.25 0 0 -1 0 0 0 -1 forward_v I I I I #
face $-1 -1 $-1 $68 $69 $36 $-1 $70 forward single #
face $-1 -1 $-1 $71 $72 $38 $-1 $73 forward single #
face $-1 -1 $-1 $74 $75 $40 $-1 $76 reversed single #
face $-1 -1 $-1 $77 $78 $41 $-1 $79 forward single #
face $-1 -1 $-1 $80 $81 $43 $-1 $82 reversed single #
face $-1 -1 $-1 $83 $84 $45 $-1 $85 reversed single #
face $-1 -1 $-1 $86 $87 $47 $-1 $88 reversed single #
face_name-twe-attrib $-1 -1 $-1 $48 $34 1 #
model_id-kcp-attrib $-1 -1 $89 $-1 $49 1 1021385813 1021385813 -1882521599 3 #
face $90 -1 $-1 $91 $92 $12 $-1 $93 forward single #
loop $94 -1 $-1 $95 $96 $49 #
plane-surface $97 -1 $-1 1 0 0 0 -1 0 0 0 -1 forward_v I I I I #
loop_type-twe-attrib $-1 -1 $-1 $-1 $50 1 #
loop $98 -1 $-1 $-1 $99 $34 #
coedge $-1 -1 $-1 $66 $66 $100 $101 reversed $50 $-1 #
surf-twe-attrib $-1 -1 $-1 $-1 $51 4 #
face $-1 -1 $-1 $102 $103 $36 $-1 $104 forward single #
loop $-1 -1 $-1 $105 $106 $52 #
cone-surface $-1 -1 $-1 0 0 0 0 0 1 0.3125 0 0 1 I I 0 1 0.3125 forward I I I I #
face $-1 -1 $-1 $107 $108 $38 $-1 $109 forward single #
loop $-1 -1 $-1 $110 $111 $53 #
cone-surface $-1 -1 $-1 0 0 0 0 0 1 0.5 0 0 1 I I 0 1 0.5 forward I I I I #
face $-1 -1 $-1 $112 $113 $40 $-1 $76 reversed single #
loop $-1 -1 $-1 $-1 $114 $54 #
cone-surface $-1 -1 $-1 0 0.625 0 0 1 0 -1.4375 0 0 1 I I 0 1 1.4375 forward I I I I #
face $-1 -1 $-1 $115 $116 $41 $-1 $117 reversed single #
loop $-1 -1 $-1 $-1 $118 $55 #
plane-surface $-1 -1 $-1 0 0 1.4375 0 0 1 1 0 0 forward_v I I I I #
face $-1 -1 $-1 $119 $120 $43 $-1 $121 forward single #
loop $-1 -1 $-1 $122 $123 $56 #
cone-surface $-1 -1 $-1 0 0 0.49000000000000066 0 0 1 0.5 0 0 1 I I -0.70710678118654702 0.70710678118654802 0.5 forward I I I I #
face $-1 -1 $-1 $124 $125 $45 $-1 $126 forward single #
loop $-1 -1 $-1 $127 $128 $57 #
cone-surface $-1 -1 $-1 0 0 0.70875000000000099 0 0 1 0.71875 0 0 1 I I -0.70710678118654702 0.70710678118654802 0.71875 forward I I I I #
face $-1 -1 $-1 $129 $130 $47 $-1 $131 forward single #
loop $-1 -1 $-1 $132 $133 $58 #
cone-surface $-1 -1 $-1 0 0 0.7087500000000011 0 0 1 0.71875 0 0 1 I I -0.70710678118654702 0.70710678118654813 0.71875 forward I I I I #
face_name-twe-attrib $-1 -1 $-1 $60 $49 2 #
model_id-kcp-attrib $-1 -1 $134 $-1 $61 1 1021385813 1021385813 -1882521599 4 #
face $135 -1 $-1 $136 $137 $12 $-1 $138 reversed single #
loop $139 -1 $-1 $140 $141 $61 #
plane-surface $142 -1 $-1 1 -1 0 0 -1 0 0 0 -1 forward_v I I I I #
loop_type-twe-attrib $-1 -1 $-1 $-1 $62 1 #
loop $143 -1 $-1 $-1 $144 $49 #
coedge $-1 -1 $-1 $96 $96 $145 $146 forward $62 $-1 #
surf-twe-attrib $-1 -1 $-1 $-1 $63 6 #
loop_type-twe-attrib $-1 -1 $-1 $-1 $65 0 #
coedge $-1 -1 $-1 $99 $99 $147 $148 reversed $65 $-1 #
coedge $-1 -1 $-1 $100 $100 $66 $101 forward $149 $-1 #
edge $150 -1 $-1 $151 0 $151 6.2831853071795862 $100 $152 forward @7 unknown #
face $-1 -1 $-1 $-1 $153 $36 $-1 $154 forward single #
loop $-1 -1 $-1 $-1 $155 $68 #
plane-surface $-1 -1 $-1 0 0 -0.28125000000000017 0 0 -1 -1 0 0 forward_v I I I I #
loop $-1 -1 $-1 $-1 $156 $52 #
coedge $-1 -1 $-1 $106 $106 $155 $157 reversed $69 $-1 #
face $-1 -1 $-1 $-1 $158 $38 $-1 $159 forward single #
loop $-1 -1 $-1 $-1 $160 $71 #
plane-surface $-1 -1 $-1 0 0 -0.34375000000000017 0 0 -1 -1 0 0 forward_v I I I I #
loop $-1 -1 $-1 $-1 $161 $53 #
coedge $-1 -1 $-1 $111 $111 $160 $162 reversed $72 $-1 #
face $-1 -1 $-1 $163 $164 $40 $-1 $76 reversed single #
loop $-1 -1 $-1 $-1 $165 $74 #
coedge $-1 -1 $-1 $166 $167 $168 $169 reversed $75 $-1 #
face $170 -1 $-1 $171 $172 $41 $-1 $173 reversed single #
loop $-1 -1 $-1 $-1 $174 $77 #
plane-surface $-1 -1 $-1 0 0 -1.4375 0 0 1 1 0 0 forward_v I I I I #
coedge $-1 -1 $-1 $175 $176 $177 $178 forward $78 $-1 #
face $-1 -1 $-1 $-1 $179 $43 $-1 $180 forward single #
loop $-1 -1 $-1 $181 $182 $80 #
cone-surface $-1 -1 $-1 0 0 0 0 0 1 1 0 0 1 I I 0 1 1 forward I I I I #
loop $-1 -1 $-1 $-1 $183 $56 #
coedge $-1 -1 $-1 $123 $123 $184 $185 reversed $81 $-1 #
face $-1 -1 $-1 $-1 $186 $45 $-1 $187 forward single #
loop $-1 -1 $-1 $188 $189 $83 #
cone-surface $-1 -1 $-1 0 0 0 0 0 1 1.4375 0 0 1 I I 0 1 1.4375 forward I I I I #
loop $-1 -1 $-1 $-1 $190 $57 #
coedge $-1 -1 $-1 $128 $128 $191 $192 reversed $84 $-1 #
face $-1 -1 $-1 $-1 $193 $47 $-1 $194 forward single #
loop $-1 -1 $-1 $195 $196 $86 #
cone-surface $-1 -1 $-1 0 0 0 0 0 1 1.4375 0 0 1 I I 0 1 1.4375 forward I I I I #
loop $-1 -1 $-1 $-1 $197 $58 #
coedge $-1 -1 $-1 $133 $133 $198 $199 reversed $87 $-1 #
face_name-twe-attrib $-1 -1 $-1 $90 $61 3 #
model_id-kcp-attrib $-1 -1 $200 $-1 $91 1 1021385813 1021385813 -1882521599 5 #
face $201 -1 $-1 $202 $203 $12 $-1 $204 forward single #
loop $205 -1 $-1 $206 $207 $91 #
plane-surface $208 -1 $-1 1 -0.4375 0 0 -1 0 0 0 -1 forward_v I I I I #
loop_type-twe-attrib $-1 -1 $-1 $-1 $92 0 #
loop $209 -1 $-1 $-1 $210 $61 #
coedge $-1 -1 $-1 $141 $141 $211 $212 forward $92 $-1 #
surf-twe-attrib $-1 -1 $-1 $-1 $93 10 #
loop_type-twe-attrib $-1 -1 $-1 $-1 $95 0 #
coedge $-1 -1 $-1 $144 $144 $213 $214 reversed $95 $-1 #
coedge $-1 -1 $-1 $145 $145 $96 $146 reversed $215 $-1 #
edge $216 -1 $-1 $217 -3.1415926535897931 $217 3.1415926535897931 $145 $218 forward @7 unknown #
coedge $-1 -1 $-1 $147 $147 $99 $148 forward $203 $-1 #
edge $219 -1 $-1 $220 0 $220 6.2831853071795862 $147 $221 forward @7 unknown #
loop $222 -1 $-1 $-1 $100 $223 #
attrib_edge_convexity-kcp-attrib $-1 -1 $224 $-1 $101 1 #
vertex $-1 -1 $-1 $101 $225 #
ellipse-curve $226 -1 $-1 1 0.25 0 0 1 0 -0.5 0 0 1 I I #
loop $-1 -1 $-1 $-1 $227 $102 #
plane-surface $-1 -1 $-1 0 0 0.28125000000000017 0 0 1 1 0 0 forward_v I I I I #
coedge $-1 -1 $-1 $155 $155 $106 $157 forward $103 $-1 #
coedge $-1 -1 $-1 $156 $156 $227 $228 reversed $105 $-1 #
edge $-1 -1 $-1 $229 0 $229 6.2831853071795862 $155 $230 forward @7 unknown #
loop $-1 -1 $-1 $-1 $231 $107 #
plane-surface $-1 -1 $-1 0 0 0.34375000000000017 0 0 1 1 0 0 forward_v I I I I #
coedge $-1 -1 $-1 $160 $160 $111 $162 forward $108 $-1 #
coedge $-1 -1 $-1 $161 $161 $231 $232 reversed $110 $-1 #
edge $-1 -1 $-1 $233 0 $233 6.2831853071795862 $160 $234 forward @7 unknown #
face $-1 -1 $-1 $235 $236 $40 $-1 $76 reversed single #
loop $-1 -1 $-1 $-1 $237 $112 #
coedge $-1 -1 $-1 $238 $239 $240 $241 reversed $113 $-1 #
coedge $-1 -1 $-1 $242 $114 $243 $244 forward $75 $-1 #
coedge $-1 -1 $-1 $114 $242 $245 $246 reversed $75 $-1 #
coedge $-1 -1 $-1 $247 $248 $114 $169 forward $249 $-1 #
edge $-1 -1 $-1 $250 0 $251 1.5707963267948966 $168 $252 forward @7 unknown #
model_id-kcp-attrib $-1 -1 $-1 $-1 $115 1 1021385813 1021385813 -1881866238 3 #
face $-1 -1 $-1 $253 $254 $41 $-1 $255 reversed single #
loop $-1 -1 $-1 $-1 $256 $115 #
plane-surface $-1 -1 $-1 0 -0.625 0 0 1 0 0 0 1 forward_v I I I I #
coedge $-1 -1 $-1 $257 $258 $259 $260 forward $116 $-1 #
coedge $-1 -1 $-1 $261 $118 $262 $263 forward $78 $-1 #
coedge $-1 -1 $-1 $118 $261 $264 $265 forward $78 $-1 #
coedge $-1 -1 $-1 $266 $267 $118 $178 reversed $268 $-1 #
edge $-1 -1 $-1 $269 -0.625 $270 0.625 $177 $271 forward @7 unknown #
loop $-1 -1 $-1 $272 $184 $119 #
plane-surface $-1 -1 $-1 0 0 0.009999999999999995 0 0 1 1 0 0 forward_v I I I I #
loop $-1 -1 $-1 $-1 $273 $80 #
coedge $-1 -1 $-1 $182 $182 $183 $274 reversed $120 $-1 #
coedge $-1 -1 $-1 $183 $183 $182 $274 forward $122 $-1 #
coedge $-1 -1 $-1 $184 $184 $123 $185 forward $179 $-1 #
edge $-1 -1 $-1 $275 -3.1415926535897931 $275 3.1415926535897931 $184 $276 forward @7 unknown #
loop $-1 -1 $-1 $277 $191 $124 #
plane-surface $-1 -1 $-1 0 0 0.01 0 0 1 1 0 0 forward_v I I I I #
loop $-1 -1 $-1 $-1 $278 $83 #
coedge $-1 -1 $-1 $189 $189 $190 $279 reversed $125 $-1 #
coedge $-1 -1 $-1 $190 $190 $189 $279 forward $127 $-1 #
coedge $-1 -1 $-1 $191 $191 $128 $192 forward $186 $-1 #
edge $-1 -1 $-1 $280 -3.1415926535897931 $280 3.1415926535897931 $191 $281 forward @7 unknown #
loop $-1 -1 $-1 $282 $198 $129 #
plane-surface $-1 -1 $-1 0 0 0.010000000000000009 0 0 1 1 0 0 forward_v I I I I #
loop $-1 -1 $-1 $-1 $283 $86 #
coedge $-1 -1 $-1 $196 $196 $197 $284 reversed $130 $-1 #
coedge $-1 -1 $-1 $197 $197 $196 $284 forward $132 $-1 #
coedge $-1 -1 $-1 $198 $198 $133 $199 forward $193 $-1 #
edge $-1 -1 $-1 $285 -3.1415926535897931 $285 3.1415926535897931 $198 $286 forward @7 unknown #
face_name-twe-attrib $-1 -1 $-1 $135 $91 4 #
model_id-kcp-attrib $-1 -1 $287 $-1 $136 1 1021385813 1021385813 -1882521599 6 #
face $288 -1 $-1 $289 $290 $12 $-1 $291 forward single #
loop $292 -1 $-1 $293 $147 $136 #
cone-surface $294 -1 $-1 1 0.23000000000000001 0 0 -1 0 -1 0 0 1 I I 0.70710678118654702 0.70710678118654802 1 forward I I I I #
model_id-kcp-attrib $-1 -1 $295 $-1 $137 1 1021385813 1021385813 -1882521599 21 #
loop $296 -1 $-1 $-1 $297 $91 #
coedge $-1 -1 $-1 $207 $207 $298 $299 forward $137 $-1 #
surf-twe-attrib $-1 -1 $-1 $-1 $138 18 #
model_id-kcp-attrib $-1 -1 $300 $-1 $140 1 1021385813 1021385813 -1882521599 20 #
coedge $-1 -1 $-1 $210 $210 $301 $302 reversed $140 $-1 #
coedge $-1 -1 $-1 $211 $211 $141 $212 reversed $303 $-1 #
edge $304 -1 $-1 $305 -3.1415926535897931 $305 3.1415926535897931 $211 $306 forward @7 unknown #
coedge $-1 -1 $-1 $213 $213 $144 $214 forward $307 $-1 #
edge $308 -1 $-1 $309 0 $309 6.2831853071795862 $213 $310 forward @7 unknown #
loop $311 -1 $-1 $-1 $145 $312 #
edge_name-twe-attrib $-1 -1 $-1 $-1 $146 6 8448 #
vertex $-1 -1 $-1 $146 $313 #
ellipse-curve $314 -1 $-1 1 0 0 0 -1 0 -1.05656854249492 0 0 1 I I #
attrib_edge_convexity-kcp-attrib $-1 -1 $315 $-1 $148 1 #
vertex $-1 -1 $-1 $148 $316 #
ellipse-curve $317 -1 $-1 1 0.25 0 0 -1 0 -0.97999999999999998 0 0 1 I I #
loop_type-twe-attrib $-1 -1 $-1 $-1 $149 1 #
face $318 -1 $-1 $-1 $319 $12 $-1 $320 reversed single #
convexity-sys-attrib $-1 -1 $321 $150 $101 #
point $-1 -1 $-1 0.5 0.25 0 #
cur-twe-attrib $-1 -1 $-1 $-1 $152 28 #
coedge $-1 -1 $-1 $227 $227 $156 $228 forward $153 $-1 #
edge $-1 -1 $-1 $322 0 $322 6.2831853071795862 $227 $323 forward @7 unknown #
vertex $-1 -1 $-1 $157 $324 #
ellipse-curve $-1 -1 $-1 0 0 -0.28125000000000017 0 0 -1 0.3125 0 0 1 I I #
coedge $-1 -1 $-1 $231 $231 $161 $232 forward $158 $-1 #
edge $-1 -1 $-1 $325 0 $325 6.2831853071795862 $231 $326 forward @7 unknown #
vertex $-1 -1 $-1 $162 $327 #
ellipse-curve $-1 -1 $-1 0 0 -0.34375000000000017 0 0 -1 0.5 0 0 1 I I #
face $-1 -1 $-1 $328 $329 $40 $-1 $330 forward single #
loop $-1 -1 $-1 $-1 $331 $163 #
coedge $-1 -1 $-1 $332 $333 $331 $334 forward $164 $-1 #
coedge $-1 -1 $-1 $335 $165 $336 $337 reversed $113 $-1 #
coedge $-1 -1 $-1 $165 $335 $167 $246 forward $113 $-1 #
coedge $-1 -1 $-1 $338 $339 $165 $241 forward $340 $-1 #
edge $-1 -1 $-1 $341 -3.1415926535897931 $342 -1.5707963267948966 $240 $343 forward @7 unknown #
coedge $-1 -1 $-1 $167 $166 $344 $345 reversed $75 $-1 #
coedge $-1 -1 $-1 $333 $332 $346 $244 reversed $164 $-1 #
edge $-1 -1 $-1 $250 -1.25 $347 0 $346 $348 forward @7 unknown #
coedge $-1 -1 $-1 $349 $350 $351 $246 forward $352 $-1 #
edge $-1 -1 $-1 $251 -1.25 $342 0 $245 $353 forward @7 unknown #
coedge $-1 -1 $-1 $248 $168 $350 $354 reversed $249 $-1 #
coedge $-1 -1 $-1 $168 $247 $355 $356 forward $249 $-1 #
loop $-1 -1 $-1 $-1 $168 $357 #
vertex $-1 -1 $-1 $358 $359 #
vertex $-1 -1 $-1 $360 $361 #
ellipse-curve $-1 -1 $-1 0 -0.625 0 0 1 0 -1.4375 0 0 1 I I #
face $362 -1 $-1 $363 $364 $41 $-1 $365 reversed single #
loop $-1 -1 $-1 $-1 $366 $171 #
plane-surface $-1 -1 $-1 -1.4375 0 0 1 0 0 0 0 -1 forward_v I I I I #
coedge $-1 -1 $-1 $367 $264 $368 $369 forward $172 $-1 #
coedge $-1 -1 $-1 $370 $174 $367 $371 forward $116 $-1 #
coedge $-1 -1 $-1 $174 $370 $372 $373 forward $116 $-1 #
coedge $-1 -1 $-1 $267 $266 $174 $260 reversed $268 $-1 #
edge $-1 -1 $-1 $374 -0.625 $375 0.625 $259 $376 forward @7 unknown #
coedge $-1 -1 $-1 $176 $175 $377 $378 forward $78 $-1 #
coedge $-1 -1 $-1 $379 $380 $175 $263 reversed $364 $-1 #
edge $-1 -1 $-1 $270 -1.4375 $381 1.4375 $262 $382 forward @7 unknown #
coedge $-1 -1 $-1 $256 $383 $176 $265 reversed $172 $-1 #
edge $-1 -1 $-1 $384 -1.4375 $269 1.4375 $264 $385 forward @7 unknown #
coedge $-1 -1 $-1 $259 $177 $383 $386 forward $268 $-1 #
coedge $-1 -1 $-1 $177 $259 $379 $387 reversed $268 $-1 #
loop $-1 -1 $-1 $-1 $266 $363 #
vertex $-1 -1 $-1 $178 $388 #
vertex $-1 -1 $-1 $178 $389 #
straight-curve $-1 -1 $-1 1.4375 0 1.4375 0 1 0 I I #
loop $-1 -1 $-1 $-1 $390 $119 #
coedge $-1 -1 $-1 $273 $273 $390 $391 reversed $181 $-1 #
edge $-1 -1 $-1 $392 0 $392 6.2831853071795862 $182 $393 forward @7 unknown #
vertex $-1 -1 $-1 $185 $394 #
ellipse-curve $-1 -1 $-1 0 0 0.010000000000000009 0 0 -1 0.97999999999999998 0 0 1 I I #
loop $-1 -1 $-1 $-1 $395 $124 #
coedge $-1 -1 $-1 $278 $278 $395 $396 reversed $188 $-1 #
edge $-1 -1 $-1 $397 0 $397 6.2831853071795862 $189 $398 forward @7 unknown #
vertex $-1 -1 $-1 $192 $399 #
ellipse-curve $-1 -1 $-1 0 0 0.010000000000000009 0 0 -1 1.4175 0 0 1 I I #
loop $-1 -1 $-1 $-1 $400 $129 #
coedge $-1 -1 $-1 $283 $283 $400 $401 reversed $195 $-1 #
edge $-1 -1 $-1 $402 0 $402 6.2831853071795862 $196 $403 forward @7 unknown #
vertex $-1 -1 $-1 $199 $404 #
ellipse-curve $-1 -1 $-1 0 0 0.010000000000000009 0 0 -1 1.4175 0 0 1 I I #
face_name-twe-attrib $-1 -1 $-1 $201 $136 5 #
model_id-kcp-attrib $-1 -1 $405 $-1 $202 1 1021385813 1021385813 -1882521599 7 #
face $406 -1 $-1 $407 $408 $12 $-1 $409 forward single #
loop $410 -1 $-1 $411 $412 $202 #
cone-surface $413 -1 $-1 1 0.3125 0 0 -1 0 -1 0 0 1 I I 0 1 1 forward I I I I #
loop_type-twe-attrib $-1 -1 $-1 $-1 $203 0 #
loop $414 -1 $-1 $-1 $415 $136 #
surf-twe-attrib $-1 -1 $-1 $-1 $204 30 #
loop_type-twe-attrib $-1 -1 $-1 $205 $137 1 #
loop_type-twe-attrib $-1 -1 $-1 $-1 $206 0 #
coedge $-1 -1 $-1 $297 $297 $416 $417 reversed $206 $-1 #
coedge $-1 -1 $-1 $298 $298 $207 $299 reversed $418 $-1 #
edge $419 -1 $-1 $420 -3.1415926535897931 $420 3.1415926535897931 $298 $421 forward @7 unknown #
loop_type-twe-attrib $-1 -1 $-1 $209 $140 1 #
coedge $-1 -1 $-1 $301 $301 $210 $302 forward $422 $-1 #
edge $423 -1 $-1 $424 0 $424 6.2831853071795862 $301 $425 forward @7 unknown #
loop $426 -1 $-1 $-1 $211 $427 #
attrib_edge_convexity-kcp-attrib $-1 -1 $428 $-1 $212 1 #
vertex $-1 -1 $-1 $212 $429 #
ellipse-curve $430 -1 $-1 1 -1 0 0 -1 0 -1.4175 0 0 1 I I #
loop $431 -1 $-1 $432 $213 $433 #
attrib_edge_convexity-kcp-attrib $-1 -1 $434 $-1 $214 1 #
vertex $-1 -1 $-1 $214 $435 #
ellipse-curve $436 -1 $-1 1 0 0 0 -1 0 -1.4175 0 0 1 I I #
loop_type-twe-attrib $-1 -1 $-1 $-1 $215 1 #
face $437 -1 $-1 $433 $438 $12 $-1 $439 reversed single #
point $-1 -1 $-1 2.05656854249492 0 -1.2939230604355399e-016 #
cur-twe-attrib $-1 -1 $-1 $-1 $218 40 #
convexity-sys-attrib $-1 -1 $440 $219 $148 #
point $-1 -1 $-1 0.020000000000000101 0.25 0 #
cur-twe-attrib $-1 -1 $-1 $-1 $221 42 #
model_id-kcp-attrib $-1 -1 $441 $-1 $223 1 1021385813 1021385813 -1882521599 15 #
loop $442 -1 $-1 $149 $416 $223 #
cone-surface $443 -1 $-1 1 0.3125 0 0 -1 0 -0.5 0 0 1 I I 0 1 0.5 forward I I I I #
edge_name-twe-attrib $-1 -1 $-1 $224 $101 14 8704 #
vertex $-1 -1 $-1 $228 $444 #
ellipse-curve $-1 -1 $-1 0 0 0.28125000000000017 0 0 1 0.3125 0 0 1 I I #
point $-1 -1 $-1 0.3125 0 -0.28125000000000017 #
vertex $-1 -1 $-1 $232 $445 #
ellipse-curve $-1 -1 $-1 0 0 0.34375000000000017 0 0 1 0.5 0 0 1 I I #
point $-1 -1 $-1 0.5 0 -0.34375000000000017 #
face $-1 -1 $-1 $446 $447 $40 $-1 $448 reversed single #
loop $-1 -1 $-1 $-1 $351 $235 #
plane-surface $-1 -1 $-1 0 0 1.4375 0 0 1 1 0 0 forward_v I I I I #
coedge $-1 -1 $-1 $449 $450 $451 $334 reversed $236 $-1 #
coedge $-1 -1 $-1 $243 $237 $452 $453 reversed $164 $-1 #
coedge $-1 -1 $-1 $237 $243 $454 $455 reversed $164 $-1 #
edge $-1 -1 $-1 $456 -1.25 $457 0 $451 $458 forward @7 unknown #
coedge $-1 -1 $-1 $239 $238 $459 $460 reversed $113 $-1 #
coedge $-1 -1 $-1 $461 $462 $463 $337 forward $464 $-1 #
edge $-1 -1 $-1 $465 -1.25 $341 0 $336 $466 forward @7 unknown #
coedge $-1 -1 $-1 $339 $240 $467 $468 reversed $340 $-1 #
coedge $-1 -1 $-1 $240 $338 $461 $469 forward $340 $-1 #
loop $-1 -1 $-1 $-1 $240 $470 #
vertex $-1 -1 $-1 $471 $472 #
vertex $-1 -1 $-1 $473 $474 #
ellipse-curve $-1 -1 $-1 0 0.625 0 0 -1 0 -1.4375 0 0 1 I I #
coedge $-1 -1 $-1 $475 $476 $242 $345 forward $477 $-1 #
edge $-1 -1 $-1 $342 -1.5707963267948966 $347 0 $344 $343 forward @7 unknown #
coedge $-1 -1 $-1 $478 $479 $480 $244 forward $447 $-1 #
vertex $-1 -1 $-1 $481 $482 #
straight-curve $-1 -1 $-1 -1.4375 0.625 0 0 1 0 I I #
coedge $-1 -1 $-1 $483 $245 $476 $473 forward $352 $-1 #
coedge $-1 -1 $-1 $245 $483 $247 $354 forward $352 $-1 #
coedge $-1 -1 $-1 $484 $467 $239 $246 reversed $329 $-1 #
loop $-1 -1 $-1 $-1 $245 $485 #
straight-curve $-1 -1 $-1 0 0.625 1.4375 0 1 0 I I #
edge $-1 -1 $-1 $486 -1.4375 $251 0 $247 $487 forward @7 unknown #
coedge $-1 -1 $-1 $488 $480 $248 $356 reversed $489 $-1 #
edge $-1 -1 $-1 $486 -1.4375 $250 0 $355 $490 forward @7 unknown #
face $-1 -1 $-1 $491 $249 $40 $-1 $492 reversed single #
edge $-1 -1 $-1 $250 0 $493 1.4375 $479 $490 forward @7 unknown #
point $-1 -1 $-1 -1.4375 -0.625 0 #
edge $-1 -1 $-1 $251 0 $494 1.4375 $495 $487 forward @7 unknown #
point $-1 -1 $-1 0 -0.625 1.4375 #
model_id-kcp-attrib $-1 -1 $-1 $-1 $253 1 1021385813 1021385813 -1881866238 2 #
face $-1 -1 $-1 $-1 $268 $41 $-1 $496 reversed single #
loop $-1 -1 $-1 $-1 $379 $253 #
plane-surface $-1 -1 $-1 0 0.625 0 0 -1 0 0 0 -1 forward_v I I I I #
coedge $-1 -1 $-1 $497 $377 $380 $498 forward $254 $-1 #
coedge $-1 -1 $-1 $383 $256 $257 $371 reversed $172 $-1 #
coedge $-1 -1 $-1 $377 $497 $256 $369 reversed $254 $-1 #
edge $-1 -1 $-1 $384 -1.4375 $499 1.4375 $368 $500 forward @7 unknown #
coedge $-1 -1 $-1 $258 $257 $497 $501 forward $116 $-1 #
edge $-1 -1 $-1 $375 -1.4375 $499 1.4375 $367 $502 forward @7 unknown #
coedge $-1 -1 $-1 $380 $379 $258 $373 reversed $364 $-1 #
edge $-1 -1 $-1 $503 -1.4375 $374 1.4375 $372 $504 forward @7 unknown #
vertex $-1 -1 $-1 $260 $505 #
vertex $-1 -1 $-1 $386 $506 #
straight-curve $-1 -1 $-1 1.4375 0 -1.4375 0 -1 0 I I #
coedge $-1 -1 $-1 $366 $368 $261 $378 reversed $254 $-1 #
edge $-1 -1 $-1 $381 -0.625 $384 0.625 $377 $507 forward @7 unknown #
coedge $-1 -1 $-1 $372 $262 $267 $387 forward $364 $-1 #
coedge $-1 -1 $-1 $262 $372 $366 $498 reversed $364 $-1 #
vertex $-1 -1 $-1 $263 $508 #
straight-curve $-1 -1 $-1 0 0.625 1.4375 -1 0 0 I I #
coedge $-1 -1 $-1 $264 $367 $266 $386 reversed $172 $-1 #
vertex $-1 -1 $-1 $378 $509 #
straight-curve $-1 -1 $-1 0 -0.625 1.4375 1 0 0 I I #
edge $-1 -1 $-1 $269 -1.4375 $375 1.4375 $266 $510 forward @7 unknown #
edge $-1 -1 $-1 $270 -1.4375 $374 1.4375 $267 $511 forward @7 unknown #
point $-1 -1 $-1 1.4375 -0.625 1.4375 #
point $-1 -1 $-1 1.4375 0.625 1.4375 #
coedge $-1 -1 $-1 $390 $390 $273 $391 forward $272 $-1 #
edge $-1 -1 $-1 $512 0 $512 6.2831853071795862 $390 $513 forward @7 unknown #
vertex $-1 -1 $-1 $274 $514 #
ellipse-curve $-1 -1 $-1 0 0 -0.009999999999999995 0 0 -1 1 0 0 1 I I #
point $-1 -1 $-1 -0.97999999999999998 1.2001142267459298e-016 0.010000000000000009 #
coedge $-1 -1 $-1 $395 $395 $278 $396 forward $277 $-1 #
edge $-1 -1 $-1 $515 0 $515 6.2831853071795862 $395 $516 forward @7 unknown #
vertex $-1 -1 $-1 $279 $517 #
ellipse-curve $-1 -1 $-1 0 0 -0.01 0 0 -1 1.4375 0 0 1 I I #
point $-1 -1 $-1 -1.4175 1.7358795065432199e-016 0.010000000000000009 #
coedge $-1 -1 $-1 $400 $400 $283 $401 forward $282 $-1 #
edge $-1 -1 $-1 $518 0 $518 6.2831853071795862 $400 $519 forward @7 unknown #
vertex $-1 -1 $-1 $284 $520 #
ellipse-curve $-1 -1 $-1 0 0 -0.010000000000000009 0 0 -1 1.4375 0 0 1 I I #
point $-1 -1 $-1 -1.4175 1.7358795065432199e-016 0.010000000000000009 #
face_name-twe-attrib $-1 -1 $-1 $288 $202 6 #
model_id-kcp-attrib $-1 -1 $521 $-1 $289 1 1021385813 1021385813 -1882521599 8 #
face $522 -1 $-1 $312 $523 $12 $-1 $524 reversed single #
loop $525 -1 $-1 $526 $527 $289 #
cone-surface $528 -1 $-1 1 0.056568542494923997 0 0 1 0 -1 0 0 1 I I 0.70710678118654702 0.70710678118654902 1 forward I I I I #
loop_type-twe-attrib $-1 -1 $-1 $-1 $290 0 #
loop $529 -1 $-1 $-1 $530 $202 #
coedge $-1 -1 $-1 $412 $412 $415 $531 forward $290 $-1 #
surf-twe-attrib $-1 -1 $-1 $-1 $291 48 #
loop_type-twe-attrib $-1 -1 $-1 $-1 $293 1 #
coedge $-1 -1 $-1 $415 $415 $412 $531 reversed $293 $-1 #
coedge $-1 -1 $-1 $416 $416 $297 $417 forward $319 $-1 #
edge $532 -1 $-1 $533 0 $533 6.2831853071795862 $416 $534 forward @7 unknown #
loop $535 -1 $-1 $-1 $298 $536 #
attrib_edge_convexity-kcp-attrib $-1 -1 $537 $-1 $299 1 #
vertex $538 -1 $-1 $299 $539 #
ellipse-curve $540 -1 $-1 1 -0.4375 0 0 -1 0 -0.3125 0 0 1 I I #
loop $541 -1 $-1 $418 $301 $536 #
attrib_edge_convexity-kcp-attrib $-1 -1 $542 $-1 $302 1 #
vertex $543 -1 $-1 $302 $544 #
ellipse-curve $545 -1 $-1 1 -1 0 0 -1 0 -0.3125 0 0 1 I I #
loop_type-twe-attrib $-1 -1 $-1 $-1 $303 1 #
face $546 -1 $-1 $536 $547 $12 $-1 $548 forward single #
convexity-sys-attrib $-1 -1 $549 $304 $212 #
point $-1 -1 $-1 2.4175 -1 -1.7359365383303499e-016 #
cur-twe-attrib $-1 -1 $-1 $-1 $306 58 #
loop_type-twe-attrib $-1 -1 $-1 $-1 $307 0 #
loop $550 -1 $-1 $-1 $551 $433 #
face $552 -1 $-1 $553 $307 $12 $-1 $554 forward single #
convexity-sys-attrib $-1 -1 $555 $308 $214 #
point $-1 -1 $-1 -0.41749999999999998 0 0 #
cur-twe-attrib $-1 -1 $-1 $-1 $310 60 #
model_id-kcp-attrib $-1 -1 $556 $-1 $312 1 1021385813 1021385813 -1882521599 10 #
loop $557 -1 $-1 $215 $558 $312 #
cone-surface $559 -1 $-1 1 0 0 0 1 0 -1.05656854249492 0 0 1 I I 0.70710678118654702 0.70710678118654902 1.05656854249492 forward I I I I #
edge_name-twe-attrib $-1 -1 $-1 $315 $148 1 8448 #
face_name-twe-attrib $-1 -1 $-1 $318 $223 14 #
loop_type-twe-attrib $-1 -1 $-1 $-1 $319 0 #
surf-twe-attrib $-1 -1 $-1 $-1 $320 69 #
point $-1 -1 $-1 0.3125 0 0.28125000000000017 #
point $-1 -1 $-1 0.5 0 0.34375000000000017 #
face $-1 -1 $-1 $560 $561 $40 $-1 $562 reversed single #
loop $-1 -1 $-1 $-1 $346 $328 #
plane-surface $-1 -1 $-1 -1.4375 0 0 1 0 0 0 0 -1 forward_v I I I I #
coedge $-1 -1 $-1 $563 $331 $564 $565 reversed $236 $-1 #
coedge $-1 -1 $-1 $331 $563 $566 $567 reversed $236 $-1 #
coedge $-1 -1 $-1 $568 $569 $570 $334 forward $571 $-1 #
coedge $-1 -1 $-1 $572 $573 $332 $453 forward $574 $-1 #
edge $-1 -1 $-1 $347 0 $457 1.5707963267948966 $452 $343 forward @7 unknown #
coedge $-1 -1 $-1 $575 $576 $333 $455 forward $577 $-1 #
edge $-1 -1 $-1 $456 -1.5707963267948966 $250 0 $454 $252 forward @7 unknown #
vertex $-1 -1 $-1 $578 $579 #
vertex $-1 -1 $-1 $580 $581 #
straight-curve $-1 -1 $-1 0 0.625 -1.4375 0 1 0 I I #
coedge $-1 -1 $-1 $582 $495 $335 $460 forward $583 $-1 #
edge $-1 -1 $-1 $251 1.5707963267948966 $465 3.1415926535897931 $459 $252 forward @7 unknown #
coedge $-1 -1 $-1 $584 $336 $339 $469 reversed $464 $-1 #
coedge $-1 -1 $-1 $336 $584 $582 $585 forward $464 $-1 #
coedge $-1 -1 $-1 $586 $587 $563 $337 reversed $561 $-1 #
loop $-1 -1 $-1 $-1 $336 $588 #
vertex $-1 -1 $-1 $589 $590 #
straight-curve $-1 -1 $-1 1.4375 0.625 0 0 1 0 I I #
coedge $-1 -1 $-1 $351 $591 $338 $468 forward $329 $-1 #
edge $-1 -1 $-1 $592 -1.4375 $342 0 $338 $593 forward @7 unknown #
edge $-1 -1 $-1 $592 -1.4375 $341 0 $461 $594 forward @7 unknown #
face $-1 -1 $-1 $595 $340 $40 $-1 $596 reversed single #
edge $-1 -1 $-1 $341 0 $597 1.4375 $587 $594 forward @7 unknown #
point $-1 -1 $-1 1.4375 0.625 0 #
edge $-1 -1 $-1 $342 0 $598 1.4375 $476 $593 forward @7 unknown #
point $-1 -1 $-1 0 0.625 1.4375 #
coedge $-1 -1 $-1 $476 $344 $599 $600 reversed $477 $-1 #
coedge $-1 -1 $-1 $344 $475 $349 $473 reversed $477 $-1 #
loop $-1 -1 $-1 $-1 $344 $595 #
coedge $-1 -1 $-1 $601 $346 $573 $481 forward $447 $-1 #
coedge $-1 -1 $-1 $346 $601 $575 $358 reversed $447 $-1 #
coedge $-1 -1 $-1 $355 $599 $166 $244 reversed $489 $-1 #
edge $-1 -1 $-1 $347 0 $602 1.4375 $573 $603 forward @7 unknown #
point $-1 -1 $-1 -1.4375 0.625 0 #
coedge $-1 -1 $-1 $350 $349 $488 $604 forward $352 $-1 #
coedge $-1 -1 $-1 $591 $351 $495 $360 forward $329 $-1 #
face $-1 -1 $-1 $605 $352 $40 $-1 $330 forward single #
vertex $-1 -1 $-1 $604 $606 #
straight-curve $-1 -1 $-1 0 -0.625 1.4375 1 0 0 I I #
coedge $-1 -1 $-1 $599 $355 $483 $604 reversed $489 $-1 #
loop $-1 -1 $-1 $-1 $480 $607 #
straight-curve $-1 -1 $-1 -1.4375 -0.625 0 0 0 -1 I I #
face $-1 -1 $-1 $608 $583 $40 $-1 $492 reversed single #
plane-surface $-1 -1 $-1 0 -0.625 0 0 1 0 0 0 1 forward_v I I I I #
vertex $-1 -1 $-1 $609 $610 #
vertex $-1 -1 $-1 $611 $612 #
coedge $-1 -1 $-1 $459 $582 $484 $360 reversed $583 $-1 #
plane-surface $-1 -1 $-1 1.4375 0 0 -1 0 0 0 0 1 forward_v I I I I #
coedge $-1 -1 $-1 $368 $366 $370 $501 reversed $254 $-1 #
edge $-1 -1 $-1 $381 -1.4375 $503 1.4375 $380 $613 forward @7 unknown #
vertex $-1 -1 $-1 $501 $614 #
straight-curve $-1 -1 $-1 -1.4375 -0.625 0 0 0 -1 I I #
edge $-1 -1 $-1 $499 -0.625 $503 0.625 $497 $615 forward @7 unknown #
straight-curve $-1 -1 $-1 0 -0.625 -1.4375 -1 0 0 I I #
vertex $-1 -1 $-1 $373 $616 #
straight-curve $-1 -1 $-1 0 0.625 -1.4375 1 0 0 I I #
point $-1 -1 $-1 1.4375 0.625 -1.4375 #
point $-1 -1 $-1 1.4375 -0.625 -1.4375 #
straight-curve $-1 -1 $-1 -1.4375 0 1.4375 0 -1 0 I I #
point $-1 -1 $-1 -1.4375 0.625 1.4375 #
point $-1 -1 $-1 -1.4375 -0.625 1.4375 #
straight-curve $-1 -1 $-1 1.4375 -0.625 0 0 0 -1 I I #
straight-curve $-1 -1 $-1 1.4375 0.625 0 0 0 -1 I I #
vertex $-1 -1 $-1 $391 $617 #
ellipse-curve $-1 -1 $-1 0 0 0.009999999999999995 0 0 1 1 0 0 1 I I #
point $-1 -1 $-1 1 0 -0.009999999999999995 #
vertex $-1 -1 $-1 $396 $618 #
ellipse-curve $-1 -1 $-1 0 0 0.01 0 0 1 1.4375 0 0 1 I I #
point $-1 -1 $-1 1.4375 0 -0.01 #
vertex $-1 -1 $-1 $401 $619 #
ellipse-curve $-1 -1 $-1 0 0 0.010000000000000009 0 0 1 1.4375 0 0 1 I I #
point $-1 -1 $-1 1.4375 0 -0.010000000000000009 #
face_name-twe-attrib $-1 -1 $-1 $406 $289 7 #
model_id-kcp-attrib $-1 -1 $620 $-1 $407 1 1021385813 1021385813 -1882521599 9 #
loop $621 -1 $-1 $622 $623 $407 #
torus-surface $624 -1 $-1 1 0 0 0 -1 0 1 0.040000000000000001 0 0 -1 forward_v I I I I #
loop_type-twe-attrib $-1 -1 $-1 $-1 $408 0 #
loop $625 -1 $-1 $-1 $626 $289 #
coedge $-1 -1 $-1 $527 $527 $530 $627 forward $408 $-1 #
surf-twe-attrib $-1 -1 $-1 $-1 $409 73 #
loop_type-twe-attrib $-1 -1 $-1 $-1 $411 1 #
coedge $-1 -1 $-1 $530 $530 $527 $627 reversed $411 $-1 #
edge $628 -1 $-1 $629 -3.1415926535897931 $629 3.1415926535897931 $412 $630 forward @7 unknown #
attrib_edge_convexity-kcp-attrib $-1 -1 $631 $-1 $417 2 #
vertex $-1 -1 $-1 $417 $632 #
ellipse-curve $633 -1 $-1 1 -0.4375 0 0 -1 0 -0.5 0 0 1 I I #
model_id-kcp-attrib $-1 -1 $634 $-1 $418 1 1021385813 1021385813 -1882521599 19 #
face $635 -1 $-1 $223 $422 $12 $-1 $636 reversed single #
convexity-sys-attrib $-1 -1 $637 $419 $299 #
model_id-kcp-attrib $-1 -1 $-1 $-1 $420 1 1021385813 1021385813 -1882521599 23 #
point $-1 -1 $-1 1.3125 -0.4375 -3.8270205871480401e-017 #
cur-twe-attrib $-1 -1 $-1 $-1 $421 82 #
model_id-kcp-attrib $-1 -1 $638 $-1 $422 1 1021385813 1021385813 -1882521599 18 #
convexity-sys-attrib $-1 -1 $639 $423 $302 #
model_id-kcp-attrib $-1 -1 $-1 $-1 $424 1 1021385813 1021385813 -1882521599 22 #
point $-1 -1 $-1 0.6875 -1 0 #
cur-twe-attrib $-1 -1 $-1 $-1 $425 84 #
model_id-kcp-attrib $-1 -1 $640 $-1 $427 1 1021385813 1021385813 -1882521599 13 #
loop $641 -1 $-1 $303 $642 $427 #
cone-surface $643 -1 $-1 1 -0.97999999999999998 0 0 1 0 -1.4375 0 0 1 I I 0.70710678118654702 0.70710678118654802 1.4375 forward I I I I #
edge_name-twe-attrib $-1 -1 $-1 $428 $212 10 8448 #
loop_type-twe-attrib $-1 -1 $-1 $-1 $432 1 #
coedge $-1 -1 $-1 $551 $551 $644 $645 reversed $432 $-1 #
model_id-kcp-attrib $-1 -1 $646 $-1 $433 1 1021385813 1021385813 -1882521599 11 #
face $647 -1 $-1 $427 $648 $12 $-1 $649 forward single #
cone-surface $650 -1 $-1 1 -0.02 0 0 -1 0 -1.4375 0 0 1 I I 0.70710678118654702 0.70710678118654802 1.4375 forward I I I I #
edge_name-twe-attrib $-1 -1 $-1 $434 $214 7 8448 #
face_name-twe-attrib $-1 -1 $-1 $437 $312 9 #
loop_type-twe-attrib $-1 -1 $-1 $-1 $438 0 #
coedge $-1 -1 $-1 $558 $558 $651 $652 forward $438 $-1 #
surf-twe-attrib $-1 -1 $-1 $-1 $439 94 #
face $-1 -1 $-1 $470 $653 $40 $-1 $596 reversed single #
loop $-1 -1 $-1 $-1 $463 $446 #
plane-surface $-1 -1 $-1 1.4375 0 0 -1 0 0 0 0 1 forward_v I I I I #
coedge $-1 -1 $-1 $450 $449 $238 $337 forward $236 $-1 #
coedge $-1 -1 $-1 $654 $655 $449 $565 forward $656 $-1 #
edge $-1 -1 $-1 $465 -3.1415926535897931 $456 -1.5707963267948966 $564 $252 forward @7 unknown #
coedge $-1 -1 $-1 $657 $658 $450 $567 forward $653 $-1 #
edge $-1 -1 $-1 $457 1.5707963267948966 $341 3.1415926535897931 $566 $343 forward @7 unknown #
coedge $-1 -1 $-1 $659 $451 $658 $580 forward $571 $-1 #
coedge $-1 -1 $-1 $451 $659 $654 $660 forward $571 $-1 #
coedge $-1 -1 $-1 $661 $662 $237 $334 reversed $663 $-1 #
loop $-1 -1 $-1 $-1 $451 $605 #
coedge $-1 -1 $-1 $573 $452 $662 $664 reversed $574 $-1 #
coedge $-1 -1 $-1 $452 $572 $478 $481 reversed $574 $-1 #
loop $-1 -1 $-1 $-1 $452 $665 #
coedge $-1 -1 $-1 $576 $454 $479 $358 forward $577 $-1 #
coedge $-1 -1 $-1 $454 $575 $661 $578 reversed $577 $-1 #
loop $-1 -1 $-1 $-1 $454 $666 #
edge $-1 -1 $-1 $456 0 $493 1.4375 $576 $667 forward @7 unknown #
point $-1 -1 $-1 0 -0.625 -1.4375 #
edge $-1 -1 $-1 $457 0 $597 1.4375 $658 $668 forward @7 unknown #
point $-1 -1 $-1 0 0.625 -1.4375 #
coedge $-1 -1 $-1 $495 $459 $462 $585 reversed $583 $-1 #
loop $-1 -1 $-1 $-1 $459 $491 #
coedge $-1 -1 $-1 $462 $461 $591 $611 reversed $464 $-1 #
edge $-1 -1 $-1 $494 -1.4375 $465 0 $462 $669 forward @7 unknown #
coedge $-1 -1 $-1 $670 $463 $655 $589 forward $561 $-1 #
coedge $-1 -1 $-1 $463 $670 $657 $471 reversed $561 $-1 #
face $-1 -1 $-1 $-1 $464 $40 $-1 $562 reversed single #
edge $-1 -1 $-1 $465 0 $671 1.4375 $586 $669 forward @7 unknown #
point $-1 -1 $-1 1.4375 -0.625 0 #
coedge $-1 -1 $-1 $467 $484 $584 $611 forward $329 $-1 #
vertex $-1 -1 $-1 $611 $672 #
straight-curve $-1 -1 $-1 0 0.625 1.4375 -1 0 0 I I #
straight-curve $-1 -1 $-1 1.4375 0.625 0 0 0 -1 I I #
face $-1 -1 $-1 $665 $477 $40 $-1 $596 reversed single #
plane-surface $-1 -1 $-1 0 0.625 0 0 -1 0 0 0 -1 forward_v I I I I #
vertex $-1 -1 $-1 $673 $674 #
vertex $-1 -1 $-1 $473 $675 #
coedge $-1 -1 $-1 $480 $488 $475 $600 forward $489 $-1 #
edge $-1 -1 $-1 $598 -1.4375 $347 0 $475 $603 forward @7 unknown #
coedge $-1 -1 $-1 $479 $478 $676 $609 reversed $447 $-1 #
vertex $-1 -1 $-1 $664 $677 #
straight-curve $-1 -1 $-1 -1.4375 0.625 0 0 0 -1 I I #
edge $-1 -1 $-1 $598 -0.625 $486 0.625 $488 $678 forward @7 unknown #
face $-1 -1 $-1 $607 $571 $40 $-1 $679 reversed single #
point $-1 -1 $-1 -1.4375 -0.625 1.4375 #
face $-1 -1 $-1 $588 $489 $40 $-1 $448 reversed single #
face $-1 -1 $-1 $680 $656 $40 $-1 $492 reversed single #
edge $-1 -1 $-1 $493 -0.625 $602 0.625 $601 $681 forward @7 unknown #
point $-1 -1 $-1 -1.4375 -0.625 -1.4375 #
edge $-1 -1 $-1 $494 -0.625 $592 0.625 $584 $682 forward @7 unknown #
point $-1 -1 $-1 1.4375 -0.625 1.4375 #
straight-curve $-1 -1 $-1 -1.4375 0.625 0 0 0 -1 I I #
point $-1 -1 $-1 -1.4375 -0.625 -1.4375 #
straight-curve $-1 -1 $-1 -1.4375 0 -1.4375 0 1 0 I I #
point $-1 -1 $-1 -1.4375 0.625 -1.4375 #
point $-1 -1 $-1 1 0 0.009999999999999995 #
point $-1 -1 $-1 1.4375 0 0.01 #
point $-1 -1 $-1 1.4375 0 0.010000000000000009 #
face_name-twe-attrib $-1 -1 $-1 $522 $407 8 #
loop_type-twe-attrib $-1 -1 $-1 $-1 $523 0 #
loop $683 -1 $-1 $-1 $651 $407 #
coedge $-1 -1 $-1 $623 $623 $626 $684 forward $523 $-1 #
surf-twe-attrib $-1 -1 $-1 $-1 $524 103 #
loop_type-twe-attrib $-1 -1 $-1 $-1 $526 1 #
coedge $-1 -1 $-1 $626 $626 $623 $684 reversed $526 $-1 #
edge $685 -1 $-1 $686 -3.1415926535897931 $686 3.1415926535897931 $527 $687 forward @7 unknown #
attrib_edge_convexity-kcp-attrib $-1 -1 $688 $-1 $531 1 #
vertex $-1 -1 $-1 $531 $689 #
ellipse-curve $690 -1 $-1 1 0.23000000000000001 0 0 -1 0 -1 0 0 1 I I #
convexity-sys-attrib $-1 -1 $691 $532 $417 #
point $-1 -1 $-1 0.5 -0.4375 0 #
cur-twe-attrib $-1 -1 $-1 $-1 $534 113 #
loop_type-twe-attrib $-1 -1 $-1 $535 $418 1 #
model_id-kcp-attrib $-1 -1 $692 $-1 $536 1 1021385813 1021385813 -1882521599 14 #
cone-surface $693 -1 $-1 1 0.3125 0 0 -1 0 -0.3125 0 0 1 I I 0 1 0.3125 forward I I I I #
edge_name-twe-attrib $-1 -1 $-1 $537 $299 12 8704 #
loop_type-twe-attrib $-1 -1 $-1 $541 $422 0 #
edge_name-twe-attrib $-1 -1 $-1 $542 $302 11 8704 #
face_name-twe-attrib $-1 -1 $-1 $546 $427 12 #
loop_type-twe-attrib $-1 -1 $-1 $-1 $547 0 #
coedge $-1 -1 $-1 $642 $642 $694 $695 forward $547 $-1 #
surf-twe-attrib $-1 -1 $-1 $-1 $548 123 #
coedge $-1 -1 $-1 $644 $644 $551 $645 forward $648 $-1 #
edge $696 -1 $-1 $697 -3.1415926535897931 $697 3.1415926535897931 $644 $698 forward @7 unknown #
face_name-twe-attrib $-1 -1 $-1 $552 $433 10 #
model_id-kcp-attrib $-1 -1 $699 $-1 $553 1 1021385813 1021385813 -1882521599 12 #
loop $700 -1 $-1 $701 $644 $553 #
cone-surface $702 -1 $-1 1 0.3125 0 0 -1 0 -1.4375 0 0 1 I I 0 1 1.4375 forward I I I I #
surf-twe-attrib $-1 -1 $-1 $-1 $554 128 #
coedge $-1 -1 $-1 $651 $651 $558 $652 reversed $622 $-1 #
edge $703 -1 $-1 $704 -3.1415926535897931 $704 3.1415926535897931 $558 $705 forward @7 unknown #
loop $-1 -1 $-1 $-1 $566 $560 #
coedge $-1 -1 $-1 $655 $564 $569 $660 reversed $656 $-1 #
coedge $-1 -1 $-1 $564 $654 $586 $589 reversed $656 $-1 #
loop $-1 -1 $-1 $-1 $564 $608 #
coedge $-1 -1 $-1 $658 $566 $587 $471 forward $653 $-1 #
coedge $-1 -1 $-1 $566 $657 $568 $580 reversed $653 $-1 #
coedge $-1 -1 $-1 $569 $568 $670 $673 forward $571 $-1 #
edge $-1 -1 $-1 $671 -1.4375 $456 0 $654 $667 forward @7 unknown #
coedge $-1 -1 $-1 $676 $570 $576 $578 forward $663 $-1 #
coedge $-1 -1 $-1 $570 $676 $572 $664 forward $663 $-1 #
loop $-1 -1 $-1 $-1 $570 $680 #
edge $-1 -1 $-1 $602 -1.4375 $457 0 $572 $668 forward @7 unknown #
face $-1 -1 $-1 $666 $574 $40 $-1 $596 reversed single #
face $-1 -1 $-1 $357 $577 $40 $-1 $492 reversed single #
straight-curve $-1 -1 $-1 0 -0.625 -1.4375 -1 0 0 I I #
straight-curve $-1 -1 $-1 0 0.625 -1.4375 1 0 0 I I #
straight-curve $-1 -1 $-1 1.4375 -0.625 0 0 0 -1 I I #
coedge $-1 -1 $-1 $587 $586 $659 $673 reversed $561 $-1 #
vertex $-1 -1 $-1 $589 $706 #
point $-1 -1 $-1 1.4375 0.625 1.4375 #
edge $-1 -1 $-1 $597 -0.625 $671 0.625 $670 $707 forward @7 unknown #
point $-1 -1 $-1 1.4375 0.625 -1.4375 #
point $-1 -1 $-1 -1.4375 0.625 1.4375 #
coedge $-1 -1 $-1 $662 $661 $601 $609 forward $663 $-1 #
point $-1 -1 $-1 -1.4375 0.625 -1.4375 #
straight-curve $-1 -1 $-1 -1.4375 0 1.4375 0 -1 0 I I #
plane-surface $-1 -1 $-1 0 0 -1.4375 0 0 1 1 0 0 forward_v I I I I #
face $-1 -1 $-1 $485 $663 $40 $-1 $679 reversed single #
straight-curve $-1 -1 $-1 -1.4375 0 -1.4375 0 1 0 I I #
straight-curve $-1 -1 $-1 1.4375 0 1.4375 0 1 0 I I #
loop_type-twe-attrib $-1 -1 $-1 $-1 $622 1 #
edge $708 -1 $-1 $709 -3.1415926535897931 $709 3.1415926535897931 $623 $710 forward @7 unknown #
edge_name-twe-attrib $-1 -1 $-1 $-1 $627 3 8448 #
vertex $-1 -1 $-1 $627 $711 #
ellipse-curve $712 -1 $-1 1 0.056568542494923997 0 0 -1 0 -1 0 0 1 I I #
convexity-sys-attrib $-1 -1 $713 $628 $531 #
point $-1 -1 $-1 2 0.23000000000000001 -1.2246465878873701e-016 #
cur-twe-attrib $-1 -1 $-1 $-1 $630 145 #
edge_name-twe-attrib $-1 -1 $-1 $631 $417 13 4608 #
face_name-twe-attrib $-1 -1 $-1 $635 $536 13 #
surf-twe-attrib $-1 -1 $-1 $-1 $636 150 #
coedge $-1 -1 $-1 $694 $694 $642 $695 reversed $701 $-1 #
edge $714 -1 $-1 $715 -3.1415926535897931 $715 3.1415926535897931 $642 $716 forward @7 unknown #
attrib_edge_convexity-kcp-attrib $-1 -1 $717 $-1 $645 1 #
vertex $-1 -1 $-1 $645 $718 #
ellipse-curve $719 -1 $-1 1 -0.02 0 0 -1 0 -1.4375 0 0 1 I I #
face_name-twe-attrib $-1 -1 $-1 $647 $553 11 #
loop_type-twe-attrib $-1 -1 $-1 $-1 $648 0 #
loop $720 -1 $-1 $-1 $694 $553 #
surf-twe-attrib $-1 -1 $-1 $-1 $649 162 #
edge_name-twe-attrib $-1 -1 $-1 $-1 $652 5 20480 #
vertex $-1 -1 $-1 $652 $721 #
ellipse-curve $722 -1 $-1 1 -0.028284271247460999 0 0 -1 0 -1.02828427124746 0 0 1 I I #
point $-1 -1 $-1 1.4375 -0.625 -1.4375 #
straight-curve $-1 -1 $-1 1.4375 0 -1.4375 0 -1 0 I I #
edge_name-twe-attrib $-1 -1 $-1 $-1 $684 4 24576 #
vertex $-1 -1 $-1 $684 $723 #
ellipse-curve $724 -1 $-1 1 0.028284271247461999 0 0 -1 0 -0.97171572875253798 0 0 1 I I #
point $-1 -1 $-1 2 0.056568542494923997 -1.2246465878873701e-016 #
cur-twe-attrib $-1 -1 $-1 $-1 $687 173 #
edge_name-twe-attrib $-1 -1 $-1 $688 $531 2 8448 #
attrib_edge_convexity-kcp-attrib $-1 -1 $725 $-1 $695 1 #
vertex $-1 -1 $-1 $695 $726 #
ellipse-curve $727 -1 $-1 1 -0.97999999999999998 0 0 -1 0 -1.4375 0 0 1 I I #
convexity-sys-attrib $-1 -1 $728 $696 $645 #
point $-1 -1 $-1 2.4375 -0.02 -1.7604294700881e-016 #
cur-twe-attrib $-1 -1 $-1 $-1 $698 185 #
loop_type-twe-attrib $-1 -1 $-1 $-1 $701 1 #
point $-1 -1 $-1 2.0282842712474598 -0.028284271247460999 -1.2592848241614599e-016 #
cur-twe-attrib $-1 -1 $-1 $-1 $705 191 #
point $-1 -1 $-1 1.97171572875254 0.028284271247461999 -1.1900083516132899e-016 #
cur-twe-attrib $-1 -1 $-1 $-1 $710 193 #
convexity-sys-attrib $-1 -1 $729 $714 $695 #
point $-1 -1 $-1 2.4375 -0.97999999999999998 -1.7604294700881e-016 #
cur-twe-attrib $-1 -1 $-1 $-1 $716 201 #
edge_name-twe-attrib $-1 -1 $-1 $717 $645 8 8448 #
edge_name-twe-attrib $-1 -1 $-1 $725 $695 9 8448 #
End-of-ACIS-data 