106 0 1 0           
body $-1 $1 $-1 $-1 #
lump $-1 $-1 $2 $0 #
shell $-1 $-1 $-1 $3 $1 #
face $-1 $4 $5 $2 $-1 $6 forward single #
face $-1 $7 $8 $2 $-1 $9 forward single #
loop $-1 $-1 $10 $3 #
plane-surface $-1 0 10 15 0 -1 0 0 0 -1 0 I I I I #
face $-1 $11 $12 $2 $-1 $13 forward single #
loop $-1 $-1 $14 $4 #
plane-surface $-1 0 0 10 0 0 1 1 0 0 0 I I I I #
coedge $-1 $15 $16 $17 $18 1 $5 $-1 #
face $-1 $19 $20 $2 $-1 $21 forward single #
loop $-1 $-1 $22 $7 #
plane-surface $-1 0 -10 15 0 1 0 0 0 1 0 I I I I #
coedge $-1 $23 $24 $25 $26 1 $8 $-1 #
coedge $-1 $27 $10 $24 $28 0 $5 $-1 #
coedge $-1 $10 $27 $29 $30 1 $5 $-1 #
coedge $-1 $31 $25 $10 $18 0 $20 $-1 #
edge $-1 $32 $33 $17 $34 0 #
face $-1 $35 $36 $2 $-1 $37 forward single #
loop $-1 $-1 $38 $11 #
plane-surface $-1 -10 0 10 -1 0 0 0 0 1 0 I I I I #
coedge $-1 $39 $40 $38 $41 1 $12 $-1 #
coedge $-1 $42 $14 $40 $43 1 $8 $-1 #
coedge $-1 $14 $42 $15 $28 1 $8 $-1 #
coedge $-1 $17 $38 $14 $26 0 $20 $-1 #
edge $-1 $44 $32 $25 $45 0 #
coedge $-1 $16 $15 $46 $47 1 $5 $-1 #
edge $-1 $32 $48 $15 $49 0 #
coedge $-1 $50 $51 $16 $30 0 $52 $-1 #
edge $-1 $33 $53 $29 $54 0 #
coedge $-1 $55 $17 $51 $56 1 $20 $-1 #
vertex $-1 $26 $57 #
vertex $-1 $56 $58 #
straight-curve $-1 -10 10 12.5 0 0 1 I I #
face $-1 $59 $52 $2 $-1 $60 forward single #
loop $-1 $-1 $61 $19 #
cone-surface $-1 -50 20 0 0 0 -1 -7.0710678118654746 7.0710678118654746 0 1 I I 0 1 0 I I I I #
coedge $-1 $25 $62 $22 $41 0 $20 $-1 #
coedge $-1 $63 $22 $64 $65 1 $12 $-1 #
coedge $-1 $22 $63 $23 $43 0 $12 $-1 #
edge $-1 $66 $44 $38 $67 0 #
coedge $-1 $24 $23 $68 $69 1 $8 $-1 #
edge $-1 $70 $44 $40 $71 0 #
vertex $-1 $26 $72 #
straight-curve $-1 -10 0 10 0 1 0 I I #
coedge $-1 $68 $73 $27 $47 0 $74 $-1 #
edge $-1 $53 $48 $46 $75 0 #
vertex $-1 $69 $76 #
straight-curve $-1 0 10 10 1 0 0 I I #
coedge $-1 $77 $29 $73 $78 0 $52 $-1 #
coedge $-1 $29 $79 $31 $56 0 $52 $-1 #
loop $-1 $80 $64 $35 #
vertex $-1 $47 $81 #
straight-curve $-1 0 10 20 1 0 0 I I #
coedge $-1 $82 $31 $83 $84 1 $20 $-1 #
edge $-1 $85 $33 $51 $86 0 #
point $-1 -10 10 10 #
point $-1 -10 10 20 #
face $-1 $87 $88 $2 $-1 $89 reversed single #
plane-surface $-1 0 0 20 0 0 1 1 0 0 0 I I I I #
coedge $-1 $90 $91 $92 $93 0 $36 $-1 #
coedge $-1 $38 $94 $95 $96 1 $20 $-1 #
coedge $-1 $40 $39 $97 $98 1 $12 $-1 #
coedge $-1 $95 $99 $39 $65 0 $52 $-1 #
edge $-1 $100 $66 $64 $101 0 #
vertex $-1 $65 $102 #
straight-curve $-1 -10 -10 12.5 0 0 -1 I I #
coedge $-1 $97 $46 $42 $69 0 $74 $-1 #
edge $-1 $48 $70 $68 $103 0 #
vertex $-1 $69 $104 #
straight-curve $-1 0 -10 10 -1 0 0 I I #
point $-1 -10 -10 10 #
coedge $-1 $46 $105 $50 $78 1 $74 $-1 #
loop $-1 $-1 $97 $106 #
straight-curve $-1 10 10 12.5 0 0 -1 I I #
point $-1 10 10 10 #
coedge $-1 $107 $50 $108 $109 0 $52 $-1 #
edge $-1 $53 $110 $50 $111 0 #
coedge $-1 $51 $112 $113 $114 0 $52 $-1 #
loop $-1 $-1 $115 $35 #
point $-1 10 10 20 #
coedge $-1 $94 $55 $116 $117 0 $20 $-1 #
coedge $-1 $113 $118 $55 $84 0 $119 $-1 #
edge $-1 $120 $85 $55 $121 0 #
vertex $-1 $56 $122 #
straight-curve $-1 -10 0 20 0 -1 0 I I #
face $-1 $123 $124 $2 $-1 $125 forward single #
loop $-1 $-1 $92 $59 #
plane-surface $-1 -60 0 0 1 0 0 0 0 -1 0 I I I I #
coedge $-1 $126 $61 $115 $127 0 $36 $-1 #
coedge $-1 $61 $126 $128 $129 0 $36 $-1 #
coedge $-1 $130 $131 $61 $93 1 $88 $-1 #
edge $-1 $132 $133 $92 $134 0 #
coedge $-1 $62 $82 $135 $136 1 $20 $-1 #
coedge $-1 $137 $64 $62 $96 0 $52 $-1 #
edge $-1 $66 $138 $95 $86 0 #
coedge $-1 $139 $68 $63 $98 0 $74 $-1 #
edge $-1 $70 $100 $97 $140 0 #
coedge $-1 $64 $141 $139 $142 0 $52 $-1 #
vertex $-1 $142 $143 #
straight-curve $-1 0 -10 20 -1 0 0 I I #
point $-1 -10 -10 20 #
straight-curve $-1 10 0 10 0 -1 0 I I #
point $-1 10 -10 10 #
coedge $-1 $73 $144 $145 $146 1 $74 $-1 #
face $-1 $147 $74 $2 $-1 $148 forward single #
coedge $-1 $149 $77 $150 $151 0 $52 $-1 #
coedge $-1 $145 $152 $77 $109 1 $153 $-1 #
edge $-1 $110 $154 $77 $155 0 #
vertex $-1 $78 $156 #
straight-curve $-1 10 0 20 0 1 0 I I #
coedge $-1 $79 $157 $158 $159 0 $52 $-1 #
coedge $-1 $160 $83 $79 $114 1 $119 $-1 #
edge $-1 $161 $85 $79 $162 0 #
coedge $-1 $163 $164 $90 $127 1 $80 $-1 #
coedge $-1 $165 $166 $82 $117 1 $167 $-1 #
edge $-1 $120 $168 $82 $169 0 #
coedge $-1 $83 $160 $165 $170 1 $119 $-1 #
loop $-1 $-1 $83 $171 #
vertex $-1 $170 $172 #
straight-curve $-1 -10 15 10 0 0 1 F -25.5 F 25.5 #
point $-1 -10 15 20 #
face $-1 $173 $174 $2 $-1 $175 forward single #
loop $-1 $-1 $176 $87 #
cone-surface $-1 -50 -20 0 0 0 -1 -7.0710678118654746 -7.0710678118654746 0 1 I I 0 1 0 I I I I #
coedge $-1 $91 $90 $177 $178 0 $36 $-1 #
edge $-1 $133 $179 $115 $180 0 #
coedge $-1 $181 $182 $91 $129 1 $183 $-1 #
edge $-1 $184 $132 $128 $185 0 #
coedge $-1 $186 $92 $182 $187 1 $88 $-1 #
coedge $-1 $92 $186 $163 $188 1 $88 $-1 #
vertex $-1 $187 $189 #
vertex $-1 $93 $190 #
straight-curve $-1 -60 20 0 0 0 1 F -51 F 51 #
coedge $-1 $191 $192 $94 $136 0 $193 $-1 #
edge $-1 $138 $168 $94 $194 0 #
coedge $-1 $195 $95 $192 $196 0 $52 $-1 #
vertex $-1 $96 $197 #
coedge $-1 $198 $97 $99 $142 1 $74 $-1 #
straight-curve $-1 10 -10 12.5 0 0 1 I I #
coedge $-1 $99 $199 $200 $201 0 $52 $-1 #
edge $-1 $202 $100 $99 $111 0 #
point $-1 10 -10 20 #
coedge $-1 $105 $198 $203 $204 0 $74 $-1 #
coedge $-1 $205 $108 $105 $146 0 $153 $-1 #
edge $-1 $110 $206 $105 $207 0 #
face $-1 $208 $209 $2 $-1 $210 forward single #
plane-surface $-1 10 0 10 1 0 0 0 0 -1 0 I I I I #
coedge $-1 $211 $107 $212 $213 0 $52 $-1 #
coedge $-1 $214 $215 $107 $151 1 $216 $-1 #
edge $-1 $154 $217 $107 $218 0 #
coedge $-1 $108 $205 $214 $219 0 $153 $-1 #
loop $-1 $-1 $152 $220 #
vertex $-1 $151 $221 #
ellipse-curve $-1 15 15 20 0 0 -1 -3.5355339059327373 3.5355339059327373 0 1 I I #
point $-1 10 15 20 #
coedge $-1 $112 $222 $223 $224 0 $52 $-1 #
coedge $-1 $225 $226 $112 $159 1 $227 $-1 #
edge $-1 $228 $161 $112 $229 0 #
coedge $-1 $118 $113 $226 $230 0 $119 $-1 #
vertex $-1 $159 $231 #
ellipse-curve $-1 -15 15 20 0 0 -1 3.5355339059327373 3.5355339059327373 0 1 I I #
coedge $-1 $232 $115 $131 $188 0 $80 $-1 #
coedge $-1 $115 $233 $234 $235 0 $80 $-1 #
coedge $-1 $236 $116 $118 $170 0 $167 $-1 #
coedge $-1 $116 $237 $191 $238 0 $167 $-1 #
loop $-1 $-1 $165 $239 #
vertex $-1 $117 $240 #
straight-curve $-1 -10 0 0 0 -1 0 I I #
edge $-1 $120 $241 $165 $242 0 #
face $-1 $243 $119 $2 $-1 $244 forward single #
point $-1 -10 15 0 #
face $-1 $245 $183 $2 $-1 $246 reversed single #
loop $-1 $-1 $247 $123 #
cone-surface $-1 50 20 0 0 0 -1 7.0710678118654746 7.0710678118654746 0 1 I I 0 1 0 I I I I #
coedge $-1 $248 $249 $250 $251 0 $124 $-1 #
coedge $-1 $234 $252 $126 $178 1 $253 $-1 #
edge $-1 $179 $184 $177 $254 0 #
vertex $-1 $235 $255 #
ellipse-curve $-1 -50 20 20 0 0 -1 -7.0710678118654746 7.0710678118654746 0 1 I I #
coedge $-1 $256 $128 $252 $257 0 $183 $-1 #
coedge $-1 $128 $258 $130 $187 0 $183 $-1 #
loop $-1 $-1 $128 $173 #
vertex $-1 $129 $259 #
ellipse-curve $-1 -50 20 -20 0 0 1 -7.0710678118654746 7.0710678118654746 0 1 I I #
coedge $-1 $131 $130 $260 $261 1 $88 $-1 #
edge $-1 $262 $132 $130 $263 0 #
edge $-1 $133 $264 $131 $265 0 #
point $-1 -60 20 -20 #
point $-1 -60 20 20 #
coedge $-1 $266 $135 $166 $238 1 $193 $-1 #
coedge $-1 $135 $266 $137 $196 1 $193 $-1 #
loop $-1 $-1 $266 $243 #
straight-curve $-1 -10 -15 10 0 0 -1 F -25.5 F 25.5 #
coedge $-1 $267 $137 $268 $269 0 $52 $-1 #
edge $-1 $138 $270 $137 $271 0 #
point $-1 -10 -15 20 #
coedge $-1 $144 $139 $272 $273 1 $74 $-1 #
coedge $-1 $141 $274 $275 $276 0 $52 $-1 #
coedge $-1 $277 $272 $141 $201 1 $209 $-1 #
edge $-1 $278 $202 $141 $279 0 #
vertex $-1 $142 $280 #
coedge $-1 $281 $282 $144 $204 1 $283 $-1 #
edge $-1 $284 $206 $144 $285 0 #
coedge $-1 $152 $145 $282 $286 1 $153 $-1 #
vertex $-1 $204 $287 #
straight-curve $-1 10 15 10 0 0 -1 F -25.5 F 25.5 #
face $-1 $288 $227 $2 $-1 $289 forward single #
loop $-1 $-1 $272 $147 #
cone-surface $-1 15 -15 10 0 0 -1 -3.5355339059327373 -3.5355339059327373 0 1 I I 0 -1 0 I I I I #
coedge $-1 $274 $149 $290 $291 0 $52 $-1 #
coedge $-1 $292 $293 $149 $213 1 $294 $-1 #
edge $-1 $217 $295 $149 $296 0 #
coedge $-1 $297 $150 $152 $219 1 $216 $-1 #
coedge $-1 $150 $297 $292 $298 1 $216 $-1 #
loop $-1 $-1 $215 $288 #
vertex $-1 $151 $299 #
straight-curve $-1 15 20 20 1 0 0 I I #
edge $-1 $300 $154 $214 $301 0 #
face $-1 $302 $153 $2 $-1 $303 forward single #
point $-1 15 20 20 #
coedge $-1 $157 $267 $304 $305 0 $52 $-1 #
coedge $-1 $306 $307 $157 $224 1 $308 $-1 #
edge $-1 $309 $228 $157 $310 0 #
coedge $-1 $311 $158 $307 $312 1 $227 $-1 #
coedge $-1 $158 $311 $160 $230 1 $227 $-1 #
loop $-1 $-1 $226 $208 #
vertex $-1 $159 $313 #
straight-curve $-1 -15 20 20 1 0 0 I I #
edge $-1 $161 $241 $226 $314 0 #
point $-1 -15 20 20 #
coedge $-1 $315 $163 $248 $316 1 $80 $-1 #
coedge $-1 $164 $317 $318 $319 1 $80 $-1 #
coedge $-1 $320 $177 $164 $235 1 $253 $-1 #
edge $-1 $321 $179 $234 $322 0 #
coedge $-1 $323 $165 $311 $324 1 $167 $-1 #
coedge $-1 $166 $325 $326 $327 1 $167 $-1 #
edge $-1 $328 $168 $166 $329 0 #
face $-1 $330 $167 $2 $-1 $331 forward single #
point $-1 -10 -15 0 #
vertex $-1 $324 $332 #
ellipse-curve $-1 -15 15 0 0 0 1 3.5355339059327373 3.5355339059327373 0 1 I I #
face $-1 $333 $193 $2 $-1 $334 forward single #
cone-surface $-1 -15 15 10 0 0 -1 3.5355339059327373 3.5355339059327373 0 1 I I 0 -1 0 I I I I #
face $-1 $335 $336 $2 $-1 $337 reversed single #
plane-surface $-1 0 0 -20 0 0 1 1 0 0 0 I I I I #
coedge $-1 $318 $338 $320 $339 0 $174 $-1 #
coedge $-1 $260 $176 $232 $316 0 $124 $-1 #
coedge $-1 $176 $260 $258 $340 0 $124 $-1 #
coedge $-1 $341 $342 $176 $251 1 $343 $-1 #
edge $-1 $344 $345 $250 $346 0 #
coedge $-1 $177 $320 $181 $257 1 $253 $-1 #
loop $-1 $-1 $177 $347 #
straight-curve $-1 -50 30 0 0 0 -1 F -51 F 51 #
point $-1 -50 30 20 #
coedge $-1 $348 $181 $338 $349 1 $183 $-1 #
edge $-1 $184 $350 $252 $351 0 #
coedge $-1 $182 $352 $249 $340 1 $183 $-1 #
point $-1 -50 30 -20 #
coedge $-1 $249 $248 $186 $261 0 $124 $-1 #
edge $-1 $264 $262 $186 $353 0 #
vertex $-1 $261 $354 #
straight-curve $-1 -60 0 -20 0 1 0 I I #
vertex $-1 $188 $355 #
straight-curve $-1 -60 0 20 0 -1 0 I I #
coedge $-1 $192 $191 $356 $357 0 $193 $-1 #
coedge $-1 $222 $195 $358 $359 0 $52 $-1 #
coedge $-1 $356 $360 $195 $269 1 $361 $-1 #
edge $-1 $270 $362 $195 $363 0 #
vertex $-1 $269 $364 #
ellipse-curve $-1 -15 -15 20 0 0 -1 3.5355339059327373 -3.5355339059327373 0 1 I I #
coedge $-1 $200 $365 $198 $273 0 $209 $-1 #
edge $-1 $284 $202 $198 $366 0 #
coedge $-1 $199 $211 $367 $368 0 $52 $-1 #
coedge $-1 $369 $370 $199 $276 1 $371 $-1 #
edge $-1 $372 $278 $199 $373 0 #
coedge $-1 $365 $200 $370 $374 0 $209 $-1 #
vertex $-1 $276 $375 #
ellipse-curve $-1 15 -15 20 0 0 -1 -3.5355339059327373 -3.5355339059327373 0 1 I I #
point $-1 10 -15 20 #
coedge $-1 $376 $203 $365 $377 0 $283 $-1 #
coedge $-1 $203 $378 $205 $286 0 $283 $-1 #
loop $-1 $-1 $379 $302 #
vertex $-1 $377 $380 #
straight-curve $-1 10 0 0 0 1 0 I I #
edge $-1 $300 $206 $282 $381 0 #
point $-1 10 15 0 #
face $-1 $382 $216 $2 $-1 $383 forward single #
plane-surface $-1 -30 20 10 0 -1 0 0 0 -1 0 I I I I #
coedge $-1 $384 $385 $211 $291 1 $386 $-1 #
edge $-1 $295 $387 $211 $388 0 #
coedge $-1 $389 $212 $215 $298 0 $294 $-1 #
coedge $-1 $212 $389 $384 $390 0 $294 $-1 #
loop $-1 $-1 $293 $391 #
vertex $-1 $291 $392 #
ellipse-curve $-1 45 15 20 0 0 -1 3.5355339059327373 3.5355339059327373 0 1 I I #
coedge $-1 $215 $214 $378 $393 0 $216 $-1 #
edge $-1 $217 $394 $215 $395 0 #
point $-1 45 20 20 #
vertex $-1 $286 $396 #
straight-curve $-1 15 20 10 0 0 1 F -25.5 F 25.5 #
face $-1 $106 $283 $2 $-1 $397 forward single #
cone-surface $-1 15 15 10 0 0 -1 -3.5355339059327373 3.5355339059327373 0 1 I I 0 -1 0 I I I I #
coedge $-1 $398 $399 $222 $305 1 $400 $-1 #
edge $-1 $401 $309 $222 $402 0 #
coedge $-1 $403 $223 $399 $404 0 $308 $-1 #
coedge $-1 $223 $403 $225 $312 0 $308 $-1 #
loop $-1 $-1 $307 $405 #
vertex $-1 $305 $406 #
ellipse-curve $-1 -45 15 20 0 0 -1 -3.5355339059327373 3.5355339059327373 0 1 I I #
coedge $-1 $226 $225 $236 $324 0 $227 $-1 #
edge $-1 $407 $228 $225 $408 0 #
point $-1 -45 20 20 #
straight-curve $-1 -15 20 10 0 0 -1 F -25.5 F 25.5 #
coedge $-1 $409 $232 $342 $410 0 $80 $-1 #
edge $-1 $345 $264 $232 $411 0 #
coedge $-1 $233 $409 $412 $413 0 $80 $-1 #
coedge $-1 $414 $247 $233 $319 0 $174 $-1 #
edge $-1 $321 $415 $233 $416 0 #
coedge $-1 $252 $234 $247 $339 1 $253 $-1 #
vertex $-1 $319 $417 #
straight-curve $-1 0 30 20 -1 0 0 I I #
coedge $-1 $418 $236 $403 $419 0 $167 $-1 #
edge $-1 $407 $241 $311 $420 0 #
coedge $-1 $237 $418 $421 $422 0 $167 $-1 #
coedge $-1 $360 $356 $237 $327 0 $361 $-1 #
edge $-1 $328 $423 $326 $424 0 #
vertex $-1 $238 $425 #
ellipse-curve $-1 -15 -15 0 0 0 1 3.5355339059327373 -3.5355339059327373 0 1 I I #
face $-1 $426 $400 $2 $-1 $427 forward single #
plane-surface $-1 -30 0 0 0 0 1 1 0 0 0 I I I I #
point $-1 -15 20 0 #
face $-1 $405 $361 $2 $-1 $428 forward single #
cone-surface $-1 -15 -15 10 0 0 -1 3.5355339059327373 -3.5355339059327373 0 1 I I 0 -1 0 I I I I #
face $-1 $391 $429 $2 $-1 $430 forward single #
loop $-1 $-1 $431 $245 #
plane-surface $-1 60 0 0 -1 0 0 0 0 1 0 I I I I #
coedge $-1 $247 $414 $256 $349 0 $174 $-1 #
edge $-1 $350 $321 $320 $432 0 #
edge $-1 $262 $344 $258 $433 0 #
coedge $-1 $434 $250 $352 $435 1 $343 $-1 #
coedge $-1 $250 $434 $315 $410 1 $343 $-1 #
loop $-1 $-1 $250 $382 #
vertex $-1 $435 $436 #
vertex $-1 $316 $437 #
straight-curve $-1 -50 -30 0 0 0 1 F -51 F 51 #
face $-1 $-1 $253 $2 $-1 $438 reversed single #
coedge $-1 $439 $256 $440 $441 0 $183 $-1 #
edge $-1 $442 $350 $256 $443 0 #
vertex $-1 $257 $444 #
straight-curve $-1 0 30 -20 1 0 0 I I #
coedge $-1 $258 $439 $341 $435 0 $183 $-1 #
straight-curve $-1 -60 -20 0 0 0 -1 F -51 F 51 #
point $-1 -60 -20 -20 #
point $-1 -60 -20 20 #
coedge $-1 $326 $268 $266 $357 1 $361 $-1 #
edge $-1 $328 $270 $356 $445 0 #
coedge $-1 $446 $447 $267 $359 1 $448 $-1 #
edge $-1 $362 $401 $267 $449 0 #
coedge $-1 $268 $326 $446 $450 1 $361 $-1 #
loop $-1 $-1 $356 $333 #
vertex $-1 $269 $451 #
straight-curve $-1 -15 -20 20 -1 0 0 I I #
point $-1 -15 -20 20 #
coedge $-1 $272 $277 $281 $377 1 $209 $-1 #
straight-curve $-1 10 -15 10 0 0 1 F -25.5 F 25.5 #
coedge $-1 $452 $453 $274 $368 1 $454 $-1 #
edge $-1 $387 $372 $274 $455 0 #
coedge $-1 $456 $275 $453 $457 1 $371 $-1 #
coedge $-1 $275 $456 $277 $374 1 $371 $-1 #
loop $-1 $-1 $369 $458 #
vertex $-1 $276 $459 #
straight-curve $-1 15 -20 20 -1 0 0 I I #
edge $-1 $278 $460 $370 $461 0 #
point $-1 15 -20 20 #
coedge $-1 $462 $281 $456 $463 1 $283 $-1 #
edge $-1 $284 $460 $281 $464 0 #
coedge $-1 $282 $379 $297 $393 1 $283 $-1 #
coedge $-1 $378 $465 $389 $466 0 $283 $-1 #
point $-1 10 -15 0 #
ellipse-curve $-1 15 15 0 0 0 1 -3.5355339059327373 3.5355339059327373 0 1 I I #
face $-1 $347 $343 $2 $-1 $467 reversed single #
plane-surface $-1 30 20 10 0 -1 0 0 0 -1 0 I I I I #
coedge $-1 $468 $290 $293 $390 1 $386 $-1 #
coedge $-1 $290 $468 $452 $469 1 $386 $-1 #
loop $-1 $-1 $384 $470 #
vertex $-1 $291 $471 #
straight-curve $-1 50 0 20 0 -1 0 I I #
coedge $-1 $293 $292 $379 $466 1 $294 $-1 #
edge $-1 $472 $295 $384 $473 0 #
face $-1 $470 $294 $2 $-1 $474 forward single #
point $-1 50 15 20 #
edge $-1 $300 $394 $297 $475 0 #
vertex $-1 $393 $476 #
straight-curve $-1 45 20 10 0 0 -1 F -25.5 F 25.5 #
point $-1 15 20 0 #
plane-surface $-1 30 0 0 0 0 1 1 0 0 0 I I I I #
coedge $-1 $477 $304 $447 $478 1 $400 $-1 #
coedge $-1 $304 $477 $306 $404 1 $400 $-1 #
loop $-1 $-1 $399 $330 #
vertex $-1 $305 $479 #
straight-curve $-1 -50 0 20 0 1 0 I I #
coedge $-1 $307 $306 $323 $419 1 $308 $-1 #
edge $-1 $309 $480 $399 $481 0 #
face $-1 $239 $308 $2 $-1 $482 forward single #
point $-1 -50 15 20 #
vertex $-1 $419 $483 #
straight-curve $-1 -45 20 10 0 0 1 F -25.5 F 25.5 #
coedge $-1 $317 $315 $484 $485 1 $80 $-1 #
edge $-1 $345 $486 $342 $487 0 #
ellipse-curve $-1 -50 -20 20 0 0 -1 -7.0710678118654746 -7.0710678118654746 0 1 I I #
coedge $-1 $488 $431 $317 $413 1 $336 $-1 #
edge $-1 $489 $415 $412 $490 0 #
coedge $-1 $338 $318 $431 $491 0 $174 $-1 #
vertex $-1 $413 $492 #
ellipse-curve $-1 50 20 20 0 0 -1 7.0710678118654746 7.0710678118654746 0 1 I I #
point $-1 50 30 20 #
coedge $-1 $325 $323 $477 $493 1 $167 $-1 #
edge $-1 $407 $480 $323 $494 0 #
straight-curve $-1 -30 20 0 1 0 0 I I #
coedge $-1 $447 $446 $325 $422 1 $448 $-1 #
edge $-1 $495 $423 $325 $496 0 #
vertex $-1 $327 $497 #
straight-curve $-1 -30 -20 0 -1 0 0 I I #
point $-1 -15 -20 0 #
face $-1 $220 $448 $2 $-1 $498 forward single #
plane-surface $-1 -50 0 10 1 0 0 0 0 -1 0 I I I I #
plane-surface $-1 -30 -20 10 0 1 0 0 0 1 0 I I I I #
loop $-1 $-1 $499 $335 #
cone-surface $-1 50 -20 0 0 0 -1 7.0710678118654746 -7.0710678118654746 0 1 I I 0 1 0 I I I I #
coedge $-1 $412 $440 $414 $491 1 $336 $-1 #
straight-curve $-1 50 30 0 0 0 1 F -51 F 51 #
ellipse-curve $-1 -50 -20 -20 0 0 1 -7.0710678118654746 -7.0710678118654746 0 1 I I #
coedge $-1 $342 $341 $500 $501 1 $343 $-1 #
edge $-1 $502 $344 $341 $503 0 #
point $-1 -50 -30 -20 #
point $-1 -50 -30 20 #
plane-surface $-1 0 30 0 0 -1 0 0 0 -1 0 I I I I #
coedge $-1 $352 $348 $504 $505 1 $183 $-1 #
coedge $-1 $431 $488 $348 $441 1 $336 $-1 #
edge $-1 $442 $506 $440 $507 0 #
vertex $-1 $491 $508 #
ellipse-curve $-1 50 20 -20 0 0 1 7.0710678118654746 7.0710678118654746 0 1 I I #
point $-1 50 30 -20 #
straight-curve $-1 -15 -20 10 0 0 1 F -25.5 F 25.5 #
coedge $-1 $421 $358 $360 $450 0 $448 $-1 #
coedge $-1 $358 $421 $398 $478 0 $448 $-1 #
loop $-1 $-1 $447 $426 #
ellipse-curve $-1 -45 -15 20 0 0 -1 -3.5355339059327373 -3.5355339059327373 0 1 I I #
edge $-1 $362 $423 $360 $509 0 #
point $-1 -45 -20 20 #
coedge $-1 $510 $367 $385 $469 0 $454 $-1 #
coedge $-1 $367 $510 $369 $457 0 $454 $-1 #
loop $-1 $-1 $453 $511 #
ellipse-curve $-1 45 -15 20 0 0 -1 3.5355339059327373 -3.5355339059327373 0 1 I I #
coedge $-1 $370 $369 $376 $463 0 $371 $-1 #
edge $-1 $512 $372 $369 $513 0 #
face $-1 $171 $371 $2 $-1 $514 forward single #
point $-1 45 -20 20 #
vertex $-1 $463 $515 #
straight-curve $-1 15 -20 10 0 0 -1 F -25.5 F 25.5 #
coedge $-1 $465 $376 $510 $516 0 $283 $-1 #
edge $-1 $512 $460 $456 $517 0 #
ellipse-curve $-1 15 -15 0 0 0 1 -3.5355339059327373 -3.5355339059327373 0 1 I I #
coedge $-1 $379 $462 $468 $518 1 $283 $-1 #
edge $-1 $472 $394 $379 $519 0 #
plane-surface $-1 0 -30 0 0 1 0 0 0 1 0 I I I I #
coedge $-1 $385 $384 $465 $518 0 $386 $-1 #
edge $-1 $387 $520 $385 $521 0 #
face $-1 $511 $386 $2 $-1 $522 forward single #
point $-1 50 -15 20 #
vertex $-1 $466 $523 #
straight-curve $-1 50 15 10 0 0 1 F -25.5 F 25.5 #
cone-surface $-1 45 15 10 0 0 -1 3.5355339059327373 3.5355339059327373 0 1 I I 0 -1 0 I I I I #
straight-curve $-1 30 20 0 1 0 0 I I #
point $-1 45 20 0 #
coedge $-1 $399 $398 $418 $493 0 $400 $-1 #
edge $-1 $495 $401 $398 $524 0 #
point $-1 -50 -15 20 #
vertex $-1 $493 $525 #
straight-curve $-1 -50 15 10 0 0 -1 F -25.5 F 25.5 #
cone-surface $-1 -45 15 10 0 0 -1 -3.5355339059327373 3.5355339059327373 0 1 I I 0 -1 0 I I I I #
point $-1 -45 20 0 #
coedge $-1 $500 $499 $409 $485 0 $429 $-1 #
edge $-1 $489 $486 $409 $526 0 #
vertex $-1 $410 $527 #
straight-curve $-1 0 -30 20 1 0 0 I I #
coedge $-1 $440 $412 $499 $528 1 $336 $-1 #
vertex $-1 $528 $529 #
straight-curve $-1 60 0 20 0 1 0 I I #
edge $-1 $415 $442 $431 $530 0 #
point $-1 60 20 20 #
edge $-1 $495 $480 $477 $531 0 #
ellipse-curve $-1 -45 15 0 0 0 1 -3.5355339059327373 3.5355339059327373 0 1 I I #
vertex $-1 $422 $532 #
ellipse-curve $-1 -45 -15 0 0 0 1 -3.5355339059327373 -3.5355339059327373 0 1 I I #
point $-1 -45 -20 0 #
cone-surface $-1 -45 -15 10 0 0 -1 -3.5355339059327373 -3.5355339059327373 0 1 I I 0 -1 0 I I I I #
coedge $-1 $484 $504 $488 $528 0 $429 $-1 #
coedge $-1 $504 $484 $434 $501 0 $429 $-1 #
edge $-1 $486 $502 $434 $533 0 #
vertex $-1 $505 $534 #
straight-curve $-1 0 -30 -20 -1 0 0 I I #
coedge $-1 $499 $500 $439 $505 0 $429 $-1 #
edge $-1 $502 $506 $439 $535 0 #
vertex $-1 $441 $536 #
straight-curve $-1 60 0 -20 0 -1 0 I I #
point $-1 60 20 -20 #
straight-curve $-1 -45 -20 10 0 0 -1 F -25.5 F 25.5 #
coedge $-1 $453 $452 $462 $516 1 $454 $-1 #
face $-1 $458 $454 $2 $-1 $537 forward single #
vertex $-1 $516 $538 #
straight-curve $-1 45 -20 10 0 0 1 F -25.5 F 25.5 #
plane-surface $-1 30 -20 10 0 1 0 0 0 1 0 I I I I #
point $-1 15 -20 0 #
edge $-1 $512 $520 $462 $539 0 #
straight-curve $-1 30 -20 0 -1 0 0 I I #
edge $-1 $472 $520 $468 $540 0 #
ellipse-curve $-1 45 15 0 0 0 1 3.5355339059327373 3.5355339059327373 0 1 I I #
vertex $-1 $518 $541 #
straight-curve $-1 50 -15 10 0 0 -1 F -25.5 F 25.5 #
plane-surface $-1 50 0 10 -1 0 0 0 0 1 0 I I I I #
point $-1 50 15 0 #
straight-curve $-1 -50 -15 10 0 0 1 F -25.5 F 25.5 #
point $-1 -50 15 0 #
ellipse-curve $-1 50 -20 20 0 0 -1 7.0710678118654746 -7.0710678118654746 0 1 I I #
point $-1 50 -30 20 #
edge $-1 $506 $489 $488 $542 0 #
point $-1 60 -20 20 #
straight-curve $-1 60 20 0 0 0 -1 F -51 F 51 #
straight-curve $-1 -50 0 0 0 1 0 I I #
point $-1 -50 -15 0 #
straight-curve $-1 50 -30 0 0 0 -1 F -51 F 51 #
point $-1 50 -30 -20 #
ellipse-curve $-1 50 -20 -20 0 0 1 7.0710678118654746 -7.0710678118654746 0 1 I I #
point $-1 60 -20 -20 #
cone-surface $-1 45 -15 10 0 0 -1 3.5355339059327373 -3.5355339059327373 0 1 I I 0 -1 0 I I I I #
point $-1 45 -20 0 #
ellipse-curve $-1 45 -15 0 0 0 1 3.5355339059327373 -3.5355339059327373 0 1 I I #
straight-curve $-1 50 0 0 0 -1 0 I I #
point $-1 50 -15 0 #
straight-curve $-1 60 -20 0 0 0 1 F -51 F 51 #
End-of-ACIS-data 