600 0 1 0           
81 GICL ACIS Healer - Source: /gicl/data5/repository/Heriot_Watt/ex42/ex42.sat - 6 0 18 ACIS 6.0.3 Solaris 24 Sat Apr 13 23:38:26 2002 
1 9.999999999999999547e-07 1.000000000000000036e-10 
body $-1 $1 $-1 $-1 #
lump $-1 $-1 $2 $0 #
shell $-1 $-1 $-1 $3 $-1 $1 #
face $-1 $4 $5 $2 $-1 $6 forward single #
face $-1 $7 $8 $2 $-1 $9 forward single #
loop $-1 $-1 $10 $3 #
plane-surface $-1 0 10 15 0 -1 0 0 0 -1 forward_v I I I I #
face $-1 $11 $12 $2 $-1 $13 forward single #
loop $-1 $-1 $14 $4 #
plane-surface $-1 0 0 10 0 0 1 1 0 0 forward_v I I I I #
coedge $-1 $15 $16 $17 $18 reversed $5 $-1 #
face $-1 $19 $20 $2 $-1 $21 forward single #
loop $-1 $-1 $22 $7 #
plane-surface $-1 0 -10 15 0 1 0 0 0 1 forward_v I I I I #
coedge $-1 $23 $24 $25 $26 reversed $8 $-1 #
coedge $-1 $27 $10 $24 $28 forward $5 $-1 #
coedge $-1 $10 $27 $29 $30 reversed $5 $-1 #
coedge $-1 $31 $25 $10 $18 forward $20 $-1 #
edge $-1 $32 -2.5 $33 7.5 $17 $34 forward 7 unknown #
face $-1 $35 $36 $2 $-1 $37 forward single #
loop $-1 $-1 $38 $11 #
plane-surface $-1 -10 0 10 -1 0 0 0 0 1 forward_v I I I I #
coedge $-1 $39 $40 $38 $41 reversed $12 $-1 #
coedge $-1 $42 $14 $40 $43 reversed $8 $-1 #
coedge $-1 $14 $42 $15 $28 reversed $8 $-1 #
coedge $-1 $17 $38 $14 $26 forward $20 $-1 #
edge $-1 $44 -10 $32 10 $25 $45 forward 7 unknown #
coedge $-1 $16 $15 $46 $47 reversed $5 $-1 #
edge $-1 $32 -10 $48 10 $15 $49 forward 7 unknown #
coedge $-1 $50 $51 $16 $30 forward $52 $-1 #
edge $-1 $33 -10 $53 10 $29 $54 forward 7 unknown #
coedge $-1 $55 $17 $51 $56 reversed $20 $-1 #
vertex $-1 $26 $57 #
vertex $-1 $56 $58 #
straight-curve $-1 -10 10 12.5 0 0 1 I I #
face $-1 $59 $52 $2 $-1 $60 forward single #
loop $-1 $-1 $61 $19 #
cone-surface $-1 -50 20 0 0 0 -1 -7.071067811865474617 7.071067811865474617 0 1 I I 0 1 10 forward I I I I #
coedge $-1 $25 $62 $22 $41 forward $20 $-1 #
coedge $-1 $63 $22 $64 $65 reversed $12 $-1 #
coedge $-1 $22 $63 $23 $43 forward $12 $-1 #
edge $-1 $66 -7.5 $44 2.5 $38 $67 forward 7 unknown #
coedge $-1 $24 $23 $68 $69 reversed $8 $-1 #
edge $-1 $70 -10 $44 10 $40 $71 forward 7 unknown #
vertex $-1 $26 $72 #
straight-curve $-1 -10 0 10 0 1 0 I I #
coedge $-1 $68 $73 $27 $47 forward $74 $-1 #
edge $-1 $53 -7.5 $48 2.5 $46 $75 forward 7 unknown #
vertex $-1 $69 $76 #
straight-curve $-1 0 10 10 1 0 0 I I #
coedge $-1 $77 $29 $73 $78 forward $52 $-1 #
coedge $-1 $29 $79 $31 $56 forward $52 $-1 #
loop $-1 $80 $64 $35 #
vertex $-1 $47 $81 #
straight-curve $-1 0 10 20 1 0 0 I I #
coedge $-1 $82 $31 $83 $84 reversed $20 $-1 #
edge $-1 $85 -15 $33 -10 $51 $86 forward 7 unknown #
point $-1 -10 10 10 #
point $-1 -10 10 20 #
face $-1 $87 $88 $2 $-1 $89 reversed single #
plane-surface $-1 0 0 20 0 0 1 1 0 0 forward_v I I I I #
coedge $-1 $90 $91 $92 $93 forward $36 $-1 #
coedge $-1 $38 $94 $95 $96 reversed $20 $-1 #
coedge $-1 $40 $39 $97 $98 reversed $12 $-1 #
coedge $-1 $95 $99 $39 $65 forward $52 $-1 #
edge $-1 $100 -10 $66 10 $64 $101 forward 7 unknown #
vertex $-1 $65 $102 #
straight-curve $-1 -10 -10 12.5 0 0 -1 I I #
coedge $-1 $97 $46 $42 $69 forward $74 $-1 #
edge $-1 $48 -10 $70 10 $68 $103 forward 7 unknown #
vertex $-1 $69 $104 #
straight-curve $-1 0 -10 10 -1 0 0 I I #
point $-1 -10 -10 10 #
coedge $-1 $46 $105 $50 $78 reversed $74 $-1 #
loop $-1 $-1 $97 $106 #
straight-curve $-1 10 10 12.5 0 0 -1 I I #
point $-1 10 10 10 #
coedge $-1 $107 $50 $108 $109 forward $52 $-1 #
edge $-1 $53 10 $110 15 $50 $111 forward 7 unknown #
coedge $-1 $51 $112 $113 $114 forward $52 $-1 #
loop $-1 $-1 $115 $35 #
point $-1 10 10 20 #
coedge $-1 $94 $55 $116 $117 forward $20 $-1 #
coedge $-1 $113 $118 $55 $84 forward $119 $-1 #
edge $-1 $120 -10 $85 10 $55 $121 forward 7 unknown #
vertex $-1 $56 $122 #
straight-curve $-1 -10 0 20 0 -1 0 I I #
face $-1 $123 $124 $2 $-1 $125 forward single #
loop $-1 $-1 $92 $59 #
plane-surface $-1 -60 0 0 1 0 0 0 0 -1 forward_v I I I I #
coedge $-1 $126 $61 $115 $127 forward $36 $-1 #
coedge $-1 $61 $126 $128 $129 forward $36 $-1 #
coedge $-1 $130 $131 $61 $93 reversed $88 $-1 #
edge $-1 $132 -20 $133 20 $92 $134 forward 7 unknown #
coedge $-1 $62 $82 $135 $136 reversed $20 $-1 #
coedge $-1 $137 $64 $62 $96 forward $52 $-1 #
edge $-1 $66 10 $138 15 $95 $86 forward 7 unknown #
coedge $-1 $139 $68 $63 $98 forward $74 $-1 #
edge $-1 $70 -2.5 $100 7.5 $97 $140 forward 7 unknown #
coedge $-1 $64 $141 $139 $142 forward $52 $-1 #
vertex $-1 $142 $143 #
straight-curve $-1 0 -10 20 -1 0 0 I I #
point $-1 -10 -10 20 #
straight-curve $-1 10 0 10 0 -1 0 I I #
point $-1 10 -10 10 #
coedge $-1 $73 $144 $145 $146 reversed $74 $-1 #
face $-1 $147 $74 $2 $-1 $148 forward single #
coedge $-1 $149 $77 $150 $151 forward $52 $-1 #
coedge $-1 $145 $152 $77 $109 reversed $153 $-1 #
edge $-1 $110 -0.785398163397448279 $154 0.785398163397448279 $77 $155 forward 7 unknown #
vertex $-1 $78 $156 #
straight-curve $-1 10 0 20 0 1 0 I I #
coedge $-1 $79 $157 $158 $159 forward $52 $-1 #
coedge $-1 $160 $83 $79 $114 reversed $119 $-1 #
edge $-1 $161 -0.785398163397448279 $85 0.785398163397448279 $79 $162 forward 7 unknown #
coedge $-1 $163 $164 $90 $127 reversed $80 $-1 #
coedge $-1 $165 $166 $82 $117 reversed $167 $-1 #
edge $-1 $120 -15 $168 15 $82 $169 forward 7 unknown #
coedge $-1 $83 $160 $165 $170 reversed $119 $-1 #
loop $-1 $-1 $83 $171 #
vertex $-1 $170 $172 #
straight-curve $-1 -10 15 10 0 0 1 F -25.5 F 25.5 #
point $-1 -10 15 20 #
face $-1 $173 $174 $2 $-1 $175 forward single #
loop $-1 $-1 $176 $87 #
cone-surface $-1 -50 -20 0 0 0 -1 -7.071067811865474617 -7.071067811865474617 0 1 I I 0 1 10 forward I I I I #
coedge $-1 $91 $90 $177 $178 forward $36 $-1 #
edge $-1 $133 -0.785398163397448279 $179 0.785398163397448279 $115 $180 forward 7 unknown #
coedge $-1 $181 $182 $91 $129 reversed $183 $-1 #
edge $-1 $184 -0.785398163397448279 $132 0.785398163397448279 $128 $185 forward 7 unknown #
coedge $-1 $186 $92 $182 $187 reversed $88 $-1 #
coedge $-1 $92 $186 $163 $188 reversed $88 $-1 #
vertex $-1 $187 $189 #
vertex $-1 $93 $190 #
straight-curve $-1 -60 20 0 0 0 1 F -51 F 51 #
coedge $-1 $191 $192 $94 $136 forward $193 $-1 #
edge $-1 $138 -10 $168 10 $94 $194 forward 7 unknown #
coedge $-1 $195 $95 $192 $196 forward $52 $-1 #
vertex $-1 $96 $197 #
coedge $-1 $198 $97 $99 $142 reversed $74 $-1 #
straight-curve $-1 10 -10 12.5 0 0 1 I I #
coedge $-1 $99 $199 $200 $201 forward $52 $-1 #
edge $-1 $202 -15 $100 -10 $99 $111 forward 7 unknown #
point $-1 10 -10 20 #
coedge $-1 $105 $198 $203 $204 forward $74 $-1 #
coedge $-1 $205 $108 $105 $146 forward $153 $-1 #
edge $-1 $110 -10 $206 10 $105 $207 forward 7 unknown #
face $-1 $208 $209 $2 $-1 $210 forward single #
plane-surface $-1 10 0 10 1 0 0 0 0 -1 forward_v I I I I #
coedge $-1 $211 $107 $212 $213 forward $52 $-1 #
coedge $-1 $214 $215 $107 $151 reversed $216 $-1 #
edge $-1 $154 0 $217 30 $107 $218 forward 7 unknown #
coedge $-1 $108 $205 $214 $219 forward $153 $-1 #
loop $-1 $-1 $152 $220 #
vertex $-1 $151 $221 #
ellipse-curve $-1 15 15 20 0 0 -1 -3.535533905932737309 3.535533905932737309 0 1 I I #
point $-1 10 15 20 #
coedge $-1 $112 $222 $223 $224 forward $52 $-1 #
coedge $-1 $225 $226 $112 $159 reversed $227 $-1 #
edge $-1 $228 -30 $161 0 $112 $229 forward 7 unknown #
coedge $-1 $118 $113 $226 $230 forward $119 $-1 #
vertex $-1 $159 $231 #
ellipse-curve $-1 -15 15 20 0 0 -1 3.535533905932737309 3.535533905932737309 0 1 I I #
coedge $-1 $232 $115 $131 $188 forward $80 $-1 #
coedge $-1 $115 $233 $234 $235 forward $80 $-1 #
coedge $-1 $236 $116 $118 $170 forward $167 $-1 #
coedge $-1 $116 $237 $191 $238 forward $167 $-1 #
loop $-1 $-1 $165 $239 #
vertex $-1 $117 $240 #
straight-curve $-1 -10 0 0 0 -1 0 I I #
edge $-1 $120 -0.785398163397448279 $241 0.785398163397448279 $165 $242 forward 7 unknown #
face $-1 $243 $119 $2 $-1 $244 forward single #
point $-1 -10 15 0 #
face $-1 $245 $183 $2 $-1 $246 reversed single #
loop $-1 $-1 $247 $123 #
cone-surface $-1 50 20 0 0 0 -1 7.071067811865474617 7.071067811865474617 0 1 I I 0 1 10 forward I I I I #
coedge $-1 $248 $249 $250 $251 forward $124 $-1 #
coedge $-1 $234 $252 $126 $178 reversed $253 $-1 #
edge $-1 $179 -20 $184 20 $177 $254 forward 7 unknown #
vertex $-1 $235 $255 #
ellipse-curve $-1 -50 20 20 0 0 -1 -7.071067811865474617 7.071067811865474617 0 1 I I #
coedge $-1 $256 $128 $252 $257 forward $183 $-1 #
coedge $-1 $128 $258 $130 $187 forward $183 $-1 #
loop $-1 $-1 $128 $173 #
vertex $-1 $129 $259 #
ellipse-curve $-1 -50 20 -20 0 0 1 -7.071067811865474617 7.071067811865474617 0 1 I I #
coedge $-1 $131 $130 $260 $261 reversed $88 $-1 #
edge $-1 $262 -20 $132 20 $130 $263 forward 7 unknown #
edge $-1 $133 -20 $264 20 $131 $265 forward 7 unknown #
point $-1 -60 20 -20 #
point $-1 -60 20 20 #
coedge $-1 $266 $135 $166 $238 reversed $193 $-1 #
coedge $-1 $135 $266 $137 $196 reversed $193 $-1 #
loop $-1 $-1 $266 $243 #
straight-curve $-1 -10 -15 10 0 0 -1 F -25.5 F 25.5 #
coedge $-1 $267 $137 $268 $269 forward $52 $-1 #
edge $-1 $138 -0.785398163397448279 $270 0.785398163397448279 $137 $271 forward 7 unknown #
point $-1 -10 -15 20 #
coedge $-1 $144 $139 $272 $273 reversed $74 $-1 #
coedge $-1 $141 $274 $275 $276 forward $52 $-1 #
coedge $-1 $277 $272 $141 $201 reversed $209 $-1 #
edge $-1 $278 -0.785398163397448279 $202 0.785398163397448279 $141 $279 forward 7 unknown #
vertex $-1 $142 $280 #
coedge $-1 $281 $282 $144 $204 reversed $283 $-1 #
edge $-1 $284 -15 $206 15 $144 $285 forward 7 unknown #
coedge $-1 $152 $145 $282 $286 reversed $153 $-1 #
vertex $-1 $204 $287 #
straight-curve $-1 10 15 10 0 0 -1 F -25.5 F 25.5 #
face $-1 $288 $227 $2 $-1 $289 forward single #
loop $-1 $-1 $272 $147 #
cone-surface $-1 15 -15 10 0 0 -1 -3.535533905932737309 -3.535533905932737309 0 1 I I 0 -1 5 forward I I I I #
coedge $-1 $274 $149 $290 $291 forward $52 $-1 #
coedge $-1 $292 $293 $149 $213 reversed $294 $-1 #
edge $-1 $217 -0.785398163397448279 $295 0.785398163397448279 $149 $296 forward 7 unknown #
coedge $-1 $297 $150 $152 $219 reversed $216 $-1 #
coedge $-1 $150 $297 $292 $298 reversed $216 $-1 #
loop $-1 $-1 $215 $288 #
vertex $-1 $151 $299 #
straight-curve $-1 15 20 20 1 0 0 I I #
edge $-1 $300 -10 $154 10 $214 $301 forward 7 unknown #
face $-1 $302 $153 $2 $-1 $303 forward single #
point $-1 15 20 20 #
coedge $-1 $157 $267 $304 $305 forward $52 $-1 #
coedge $-1 $306 $307 $157 $224 reversed $308 $-1 #
edge $-1 $309 -0.785398163397448279 $228 0.785398163397448279 $157 $310 forward 7 unknown #
coedge $-1 $311 $158 $307 $312 reversed $227 $-1 #
coedge $-1 $158 $311 $160 $230 reversed $227 $-1 #
loop $-1 $-1 $226 $208 #
vertex $-1 $159 $313 #
straight-curve $-1 -15 20 20 1 0 0 I I #
edge $-1 $161 -10 $241 10 $226 $314 forward 7 unknown #
point $-1 -15 20 20 #
coedge $-1 $315 $163 $248 $316 reversed $80 $-1 #
coedge $-1 $164 $317 $318 $319 reversed $80 $-1 #
coedge $-1 $320 $177 $164 $235 reversed $253 $-1 #
edge $-1 $321 -50 $179 50 $234 $322 forward 7 unknown #
coedge $-1 $323 $165 $311 $324 reversed $167 $-1 #
coedge $-1 $166 $325 $326 $327 reversed $167 $-1 #
edge $-1 $328 -0.785398163397448279 $168 0.785398163397448279 $166 $329 forward 7 unknown #
face $-1 $330 $167 $2 $-1 $331 forward single #
point $-1 -10 -15 0 #
vertex $-1 $324 $332 #
ellipse-curve $-1 -15 15 0 0 0 1 3.535533905932737309 3.535533905932737309 0 1 I I #
face $-1 $333 $193 $2 $-1 $334 forward single #
cone-surface $-1 -15 15 10 0 0 -1 3.535533905932737309 3.535533905932737309 0 1 I I 0 -1 5 forward I I I I #
face $-1 $335 $336 $2 $-1 $337 reversed single #
plane-surface $-1 0 0 -20 0 0 1 1 0 0 forward_v I I I I #
coedge $-1 $318 $338 $320 $339 forward $174 $-1 #
coedge $-1 $260 $176 $232 $316 forward $124 $-1 #
coedge $-1 $176 $260 $258 $340 forward $124 $-1 #
coedge $-1 $341 $342 $176 $251 reversed $343 $-1 #
edge $-1 $344 -20 $345 20 $250 $346 forward 7 unknown #
coedge $-1 $177 $320 $181 $257 reversed $253 $-1 #
loop $-1 $-1 $177 $347 #
straight-curve $-1 -50 30 0 0 0 -1 F -51 F 51 #
point $-1 -50 30 20 #
coedge $-1 $348 $181 $338 $349 reversed $183 $-1 #
edge $-1 $184 -50 $350 50 $252 $351 forward 7 unknown #
coedge $-1 $182 $352 $249 $340 reversed $183 $-1 #
point $-1 -50 30 -20 #
coedge $-1 $249 $248 $186 $261 forward $124 $-1 #
edge $-1 $264 -20 $262 20 $186 $353 forward 7 unknown #
vertex $-1 $261 $354 #
straight-curve $-1 -60 0 -20 0 1 0 I I #
vertex $-1 $188 $355 #
straight-curve $-1 -60 0 20 0 -1 0 I I #
coedge $-1 $192 $191 $356 $357 forward $193 $-1 #
coedge $-1 $222 $195 $358 $359 forward $52 $-1 #
coedge $-1 $356 $360 $195 $269 reversed $361 $-1 #
edge $-1 $270 0 $362 30 $195 $363 forward 7 unknown #
vertex $-1 $269 $364 #
ellipse-curve $-1 -15 -15 20 0 0 -1 3.535533905932737309 -3.535533905932737309 0 1 I I #
coedge $-1 $200 $365 $198 $273 forward $209 $-1 #
edge $-1 $284 -10 $202 10 $198 $366 forward 7 unknown #
coedge $-1 $199 $211 $367 $368 forward $52 $-1 #
coedge $-1 $369 $370 $199 $276 reversed $371 $-1 #
edge $-1 $372 -30 $278 0 $199 $373 forward 7 unknown #
coedge $-1 $365 $200 $370 $374 forward $209 $-1 #
vertex $-1 $276 $375 #
ellipse-curve $-1 15 -15 20 0 0 -1 -3.535533905932737309 -3.535533905932737309 0 1 I I #
point $-1 10 -15 20 #
coedge $-1 $376 $203 $365 $377 forward $283 $-1 #
coedge $-1 $203 $378 $205 $286 forward $283 $-1 #
loop $-1 $-1 $379 $302 #
vertex $-1 $377 $380 #
straight-curve $-1 10 0 0 0 1 0 I I #
edge $-1 $300 -0.785398163397448279 $206 0.785398163397448279 $282 $381 forward 7 unknown #
point $-1 10 15 0 #
face $-1 $382 $216 $2 $-1 $383 forward single #
plane-surface $-1 -30 20 10 0 -1 0 0 0 -1 forward_v I I I I #
coedge $-1 $384 $385 $211 $291 reversed $386 $-1 #
edge $-1 $295 -15 $387 15 $211 $388 forward 7 unknown #
coedge $-1 $389 $212 $215 $298 forward $294 $-1 #
coedge $-1 $212 $389 $384 $390 forward $294 $-1 #
loop $-1 $-1 $293 $391 #
vertex $-1 $291 $392 #
ellipse-curve $-1 45 15 20 0 0 -1 3.535533905932737309 3.535533905932737309 0 1 I I #
coedge $-1 $215 $214 $378 $393 forward $216 $-1 #
edge $-1 $217 -10 $394 10 $215 $395 forward 7 unknown #
point $-1 45 20 20 #
vertex $-1 $286 $396 #
straight-curve $-1 15 20 10 0 0 1 F -25.5 F 25.5 #
face $-1 $106 $283 $2 $-1 $397 forward single #
cone-surface $-1 15 15 10 0 0 -1 -3.535533905932737309 3.535533905932737309 0 1 I I 0 -1 5 forward I I I I #
coedge $-1 $398 $399 $222 $305 reversed $400 $-1 #
edge $-1 $401 -15 $309 15 $222 $402 forward 7 unknown #
coedge $-1 $403 $223 $399 $404 forward $308 $-1 #
coedge $-1 $223 $403 $225 $312 forward $308 $-1 #
loop $-1 $-1 $307 $405 #
vertex $-1 $305 $406 #
ellipse-curve $-1 -45 15 20 0 0 -1 -3.535533905932737309 3.535533905932737309 0 1 I I #
coedge $-1 $226 $225 $236 $324 forward $227 $-1 #
edge $-1 $407 -10 $228 10 $225 $408 forward 7 unknown #
point $-1 -45 20 20 #
straight-curve $-1 -15 20 10 0 0 -1 F -25.5 F 25.5 #
coedge $-1 $409 $232 $342 $410 forward $80 $-1 #
edge $-1 $345 -0.785398163397448279 $264 0.785398163397448279 $232 $411 forward 7 unknown #
coedge $-1 $233 $409 $412 $413 forward $80 $-1 #
coedge $-1 $414 $247 $233 $319 forward $174 $-1 #
edge $-1 $321 -0.785398163397448279 $415 0.785398163397448279 $233 $416 forward 7 unknown #
coedge $-1 $252 $234 $247 $339 reversed $253 $-1 #
vertex $-1 $319 $417 #
straight-curve $-1 0 30 20 -1 0 0 I I #
coedge $-1 $418 $236 $403 $419 forward $167 $-1 #
edge $-1 $407 -15 $241 15 $311 $420 forward 7 unknown #
coedge $-1 $237 $418 $421 $422 forward $167 $-1 #
coedge $-1 $360 $356 $237 $327 forward $361 $-1 #
edge $-1 $328 -15 $423 15 $326 $424 forward 7 unknown #
vertex $-1 $238 $425 #
ellipse-curve $-1 -15 -15 0 0 0 1 3.535533905932737309 -3.535533905932737309 0 1 I I #
face $-1 $426 $400 $2 $-1 $427 forward single #
plane-surface $-1 -30 0 0 0 0 1 1 0 0 forward_v I I I I #
point $-1 -15 20 0 #
face $-1 $405 $361 $2 $-1 $428 forward single #
cone-surface $-1 -15 -15 10 0 0 -1 3.535533905932737309 -3.535533905932737309 0 1 I I 0 -1 5 forward I I I I #
face $-1 $391 $429 $2 $-1 $430 forward single #
loop $-1 $-1 $431 $245 #
plane-surface $-1 60 0 0 -1 0 0 0 0 1 forward_v I I I I #
coedge $-1 $247 $414 $256 $349 forward $174 $-1 #
edge $-1 $350 -20 $321 20 $320 $432 forward 7 unknown #
edge $-1 $262 -0.785398163397448279 $344 0.785398163397448279 $258 $433 forward 7 unknown #
coedge $-1 $434 $250 $352 $435 reversed $343 $-1 #
coedge $-1 $250 $434 $315 $410 reversed $343 $-1 #
loop $-1 $-1 $250 $382 #
vertex $-1 $435 $436 #
vertex $-1 $316 $437 #
straight-curve $-1 -50 -30 0 0 0 1 F -51 F 51 #
face $-1 $-1 $253 $2 $-1 $438 reversed single #
coedge $-1 $439 $256 $440 $441 forward $183 $-1 #
edge $-1 $442 -0.785398163397448279 $350 0.785398163397448279 $256 $443 forward 7 unknown #
vertex $-1 $257 $444 #
straight-curve $-1 0 30 -20 1 0 0 I I #
coedge $-1 $258 $439 $341 $435 forward $183 $-1 #
straight-curve $-1 -60 -20 0 0 0 -1 F -51 F 51 #
point $-1 -60 -20 -20 #
point $-1 -60 -20 20 #
coedge $-1 $326 $268 $266 $357 reversed $361 $-1 #
edge $-1 $328 -10 $270 10 $356 $445 forward 7 unknown #
coedge $-1 $446 $447 $267 $359 reversed $448 $-1 #
edge $-1 $362 -0.785398163397448279 $401 0.785398163397448279 $267 $449 forward 7 unknown #
coedge $-1 $268 $326 $446 $450 reversed $361 $-1 #
loop $-1 $-1 $356 $333 #
vertex $-1 $269 $451 #
straight-curve $-1 -15 -20 20 -1 0 0 I I #
point $-1 -15 -20 20 #
coedge $-1 $272 $277 $281 $377 reversed $209 $-1 #
straight-curve $-1 10 -15 10 0 0 1 F -25.5 F 25.5 #
coedge $-1 $452 $453 $274 $368 reversed $454 $-1 #
edge $-1 $387 -0.785398163397448279 $372 0.785398163397448279 $274 $455 forward 7 unknown #
coedge $-1 $456 $275 $453 $457 reversed $371 $-1 #
coedge $-1 $275 $456 $277 $374 reversed $371 $-1 #
loop $-1 $-1 $369 $458 #
vertex $-1 $276 $459 #
straight-curve $-1 15 -20 20 -1 0 0 I I #
edge $-1 $278 -10 $460 10 $370 $461 forward 7 unknown #
point $-1 15 -20 20 #
coedge $-1 $462 $281 $456 $463 reversed $283 $-1 #
edge $-1 $284 -0.785398163397448279 $460 0.785398163397448279 $281 $464 forward 7 unknown #
coedge $-1 $282 $379 $297 $393 reversed $283 $-1 #
coedge $-1 $378 $465 $389 $466 forward $283 $-1 #
point $-1 10 -15 0 #
ellipse-curve $-1 15 15 0 0 0 1 -3.535533905932737309 3.535533905932737309 0 1 I I #
face $-1 $347 $343 $2 $-1 $467 reversed single #
plane-surface $-1 30 20 10 0 -1 0 0 0 -1 forward_v I I I I #
coedge $-1 $468 $290 $293 $390 reversed $386 $-1 #
coedge $-1 $290 $468 $452 $469 reversed $386 $-1 #
loop $-1 $-1 $384 $470 #
vertex $-1 $291 $471 #
straight-curve $-1 50 0 20 0 -1 0 I I #
coedge $-1 $293 $292 $379 $466 reversed $294 $-1 #
edge $-1 $472 -10 $295 10 $384 $473 forward 7 unknown #
face $-1 $470 $294 $2 $-1 $474 forward single #
point $-1 50 15 20 #
edge $-1 $300 -15 $394 15 $297 $475 forward 7 unknown #
vertex $-1 $393 $476 #
straight-curve $-1 45 20 10 0 0 -1 F -25.5 F 25.5 #
point $-1 15 20 0 #
plane-surface $-1 30 0 0 0 0 1 1 0 0 forward_v I I I I #
coedge $-1 $477 $304 $447 $478 reversed $400 $-1 #
coedge $-1 $304 $477 $306 $404 reversed $400 $-1 #
loop $-1 $-1 $399 $330 #
vertex $-1 $305 $479 #
straight-curve $-1 -50 0 20 0 1 0 I I #
coedge $-1 $307 $306 $323 $419 reversed $308 $-1 #
edge $-1 $309 -10 $480 10 $399 $481 forward 7 unknown #
face $-1 $239 $308 $2 $-1 $482 forward single #
point $-1 -50 15 20 #
vertex $-1 $419 $483 #
straight-curve $-1 -45 20 10 0 0 1 F -25.5 F 25.5 #
coedge $-1 $317 $315 $484 $485 reversed $80 $-1 #
edge $-1 $345 -50 $486 50 $342 $487 forward 7 unknown #
ellipse-curve $-1 -50 -20 20 0 0 -1 -7.071067811865474617 -7.071067811865474617 0 1 I I #
coedge $-1 $488 $431 $317 $413 reversed $336 $-1 #
edge $-1 $489 -20 $415 20 $412 $490 forward 7 unknown #
coedge $-1 $338 $318 $431 $491 forward $174 $-1 #
vertex $-1 $413 $492 #
ellipse-curve $-1 50 20 20 0 0 -1 7.071067811865474617 7.071067811865474617 0 1 I I #
point $-1 50 30 20 #
coedge $-1 $325 $323 $477 $493 reversed $167 $-1 #
edge $-1 $407 -0.785398163397448279 $480 0.785398163397448279 $323 $494 forward 7 unknown #
straight-curve $-1 -30 20 0 1 0 0 I I #
coedge $-1 $447 $446 $325 $422 reversed $448 $-1 #
edge $-1 $495 -0.785398163397448279 $423 0.785398163397448279 $325 $496 forward 7 unknown #
vertex $-1 $327 $497 #
straight-curve $-1 -30 -20 0 -1 0 0 I I #
point $-1 -15 -20 0 #
face $-1 $220 $448 $2 $-1 $498 forward single #
plane-surface $-1 -50 0 10 1 0 0 0 0 -1 forward_v I I I I #
plane-surface $-1 -30 -20 10 0 1 0 0 0 1 forward_v I I I I #
loop $-1 $-1 $499 $335 #
cone-surface $-1 50 -20 0 0 0 -1 7.071067811865474617 -7.071067811865474617 0 1 I I 0 1 10 forward I I I I #
coedge $-1 $412 $440 $414 $491 reversed $336 $-1 #
straight-curve $-1 50 30 0 0 0 1 F -51 F 51 #
ellipse-curve $-1 -50 -20 -20 0 0 1 -7.071067811865474617 -7.071067811865474617 0 1 I I #
coedge $-1 $342 $341 $500 $501 reversed $343 $-1 #
edge $-1 $502 -50 $344 50 $341 $503 forward 7 unknown #
point $-1 -50 -30 -20 #
point $-1 -50 -30 20 #
plane-surface $-1 0 30 0 0 -1 0 0 0 -1 forward_v I I I I #
coedge $-1 $352 $348 $504 $505 reversed $183 $-1 #
coedge $-1 $431 $488 $348 $441 reversed $336 $-1 #
edge $-1 $442 -20 $506 20 $440 $507 forward 7 unknown #
vertex $-1 $491 $508 #
ellipse-curve $-1 50 20 -20 0 0 1 7.071067811865474617 7.071067811865474617 0 1 I I #
point $-1 50 30 -20 #
straight-curve $-1 -15 -20 10 0 0 1 F -25.5 F 25.5 #
coedge $-1 $421 $358 $360 $450 forward $448 $-1 #
coedge $-1 $358 $421 $398 $478 forward $448 $-1 #
loop $-1 $-1 $447 $426 #
ellipse-curve $-1 -45 -15 20 0 0 -1 -3.535533905932737309 -3.535533905932737309 0 1 I I #
edge $-1 $362 -10 $423 10 $360 $509 forward 7 unknown #
point $-1 -45 -20 20 #
coedge $-1 $510 $367 $385 $469 forward $454 $-1 #
coedge $-1 $367 $510 $369 $457 forward $454 $-1 #
loop $-1 $-1 $453 $511 #
ellipse-curve $-1 45 -15 20 0 0 -1 3.535533905932737309 -3.535533905932737309 0 1 I I #
coedge $-1 $370 $369 $376 $463 forward $371 $-1 #
edge $-1 $512 -10 $372 10 $369 $513 forward 7 unknown #
face $-1 $171 $371 $2 $-1 $514 forward single #
point $-1 45 -20 20 #
vertex $-1 $463 $515 #
straight-curve $-1 15 -20 10 0 0 -1 F -25.5 F 25.5 #
coedge $-1 $465 $376 $510 $516 forward $283 $-1 #
edge $-1 $512 -15 $460 15 $456 $517 forward 7 unknown #
ellipse-curve $-1 15 -15 0 0 0 1 -3.535533905932737309 -3.535533905932737309 0 1 I I #
coedge $-1 $379 $462 $468 $518 reversed $283 $-1 #
edge $-1 $472 -0.785398163397448279 $394 0.785398163397448279 $379 $519 forward 7 unknown #
plane-surface $-1 0 -30 0 0 1 0 0 0 1 forward_v I I I I #
coedge $-1 $385 $384 $465 $518 forward $386 $-1 #
edge $-1 $387 -10 $520 10 $385 $521 forward 7 unknown #
face $-1 $511 $386 $2 $-1 $522 forward single #
point $-1 50 -15 20 #
vertex $-1 $466 $523 #
straight-curve $-1 50 15 10 0 0 1 F -25.5 F 25.5 #
cone-surface $-1 45 15 10 0 0 -1 3.535533905932737309 3.535533905932737309 0 1 I I 0 -1 5 forward I I I I #
straight-curve $-1 30 20 0 1 0 0 I I #
point $-1 45 20 0 #
coedge $-1 $399 $398 $418 $493 forward $400 $-1 #
edge $-1 $495 -10 $401 10 $398 $524 forward 7 unknown #
point $-1 -50 -15 20 #
vertex $-1 $493 $525 #
straight-curve $-1 -50 15 10 0 0 -1 F -25.5 F 25.5 #
cone-surface $-1 -45 15 10 0 0 -1 -3.535533905932737309 3.535533905932737309 0 1 I I 0 -1 5 forward I I I I #
point $-1 -45 20 0 #
coedge $-1 $500 $499 $409 $485 forward $429 $-1 #
edge $-1 $489 -0.785398163397448279 $486 0.785398163397448279 $409 $526 forward 7 unknown #
vertex $-1 $410 $527 #
straight-curve $-1 0 -30 20 1 0 0 I I #
coedge $-1 $440 $412 $499 $528 reversed $336 $-1 #
vertex $-1 $528 $529 #
straight-curve $-1 60 0 20 0 1 0 I I #
edge $-1 $415 -20 $442 20 $431 $530 forward 7 unknown #
point $-1 60 20 20 #
edge $-1 $495 -15 $480 15 $477 $531 forward 7 unknown #
ellipse-curve $-1 -45 15 0 0 0 1 -3.535533905932737309 3.535533905932737309 0 1 I I #
vertex $-1 $422 $532 #
ellipse-curve $-1 -45 -15 0 0 0 1 -3.535533905932737309 -3.535533905932737309 0 1 I I #
point $-1 -45 -20 0 #
cone-surface $-1 -45 -15 10 0 0 -1 -3.535533905932737309 -3.535533905932737309 0 1 I I 0 -1 5 forward I I I I #
coedge $-1 $484 $504 $488 $528 forward $429 $-1 #
coedge $-1 $504 $484 $434 $501 forward $429 $-1 #
edge $-1 $486 -20 $502 20 $434 $533 forward 7 unknown #
vertex $-1 $505 $534 #
straight-curve $-1 0 -30 -20 -1 0 0 I I #
coedge $-1 $499 $500 $439 $505 forward $429 $-1 #
edge $-1 $502 -0.785398163397448279 $506 0.785398163397448279 $439 $535 forward 7 unknown #
vertex $-1 $441 $536 #
straight-curve $-1 60 0 -20 0 -1 0 I I #
point $-1 60 20 -20 #
straight-curve $-1 -45 -20 10 0 0 -1 F -25.5 F 25.5 #
coedge $-1 $453 $452 $462 $516 reversed $454 $-1 #
face $-1 $458 $454 $2 $-1 $537 forward single #
vertex $-1 $516 $538 #
straight-curve $-1 45 -20 10 0 0 1 F -25.5 F 25.5 #
plane-surface $-1 30 -20 10 0 1 0 0 0 1 forward_v I I I I #
point $-1 15 -20 0 #
edge $-1 $512 -0.785398163397448279 $520 0.785398163397448279 $462 $539 forward 7 unknown #
straight-curve $-1 30 -20 0 -1 0 0 I I #
edge $-1 $472 -15 $520 15 $468 $540 forward 7 unknown #
ellipse-curve $-1 45 15 0 0 0 1 3.535533905932737309 3.535533905932737309 0 1 I I #
vertex $-1 $518 $541 #
straight-curve $-1 50 -15 10 0 0 -1 F -25.5 F 25.5 #
plane-surface $-1 50 0 10 -1 0 0 0 0 1 forward_v I I I I #
point $-1 50 15 0 #
straight-curve $-1 -50 -15 10 0 0 1 F -25.5 F 25.5 #
point $-1 -50 15 0 #
ellipse-curve $-1 50 -20 20 0 0 -1 7.071067811865474617 -7.071067811865474617 0 1 I I #
point $-1 50 -30 20 #
edge $-1 $506 -20 $489 20 $488 $542 forward 7 unknown #
point $-1 60 -20 20 #
straight-curve $-1 60 20 0 0 0 -1 F -51 F 51 #
straight-curve $-1 -50 0 0 0 1 0 I I #
point $-1 -50 -15 0 #
straight-curve $-1 50 -30 0 0 0 -1 F -51 F 51 #
point $-1 50 -30 -20 #
ellipse-curve $-1 50 -20 -20 0 0 1 7.071067811865474617 -7.071067811865474617 0 1 I I #
point $-1 60 -20 -20 #
cone-surface $-1 45 -15 10 0 0 -1 3.535533905932737309 -3.535533905932737309 0 1 I I 0 -1 5 forward I I I I #
point $-1 45 -20 0 #
ellipse-curve $-1 45 -15 0 0 0 1 3.535533905932737309 -3.535533905932737309 0 1 I I #
straight-curve $-1 50 0 0 0 -1 0 I I #
point $-1 50 -15 0 #
straight-curve $-1 60 -20 0 0 0 1 F -51 F 51 #
End-of-ACIS-data 