600 0 2 0           
24 FBMach with ACIS - 6.0.3 13 ACIS 6.0.3 NT 24 Mon Apr 01 00:01:37 2002 
1 9.9999999999999995e-007 1e-010 
body $2 $3 $-1 $4 #
bdycol-kcp $-1 1 4 $5 $6 $7 $8 #
model_id-kcp-attrib $-1 $9 $-1 $0 1 1017637297 50 288489473 1 #
lump $-1 $-1 $10 $0 #
transform $-1 1 0 0 0 1 0 0 0 1 0 0 0 1 rotate no_reflect no_shear #
body $11 $12 $-1 $13 #
body $14 $15 $-1 $16 #
body $17 $18 $-1 $19 #
body $20 $21 $-1 $22 #
aggregate_advspl_attribute-aggregate_geombuild_base_attribute-aggregate_body_attribute-attrib_HH-attrib $-1 $23 $2 $0 F #
shell $-1 $-1 $-1 $24 $-1 $3 #
model_id-kcp-attrib $-1 $-1 $-1 $5 1 1017637297 50 288489474 1 #
lump $-1 $-1 $25 $5 #
transform $-1 1 0 0 0 1 0 0 0 1 0 0 -40 1 no_rotate no_reflect no_shear #
rgb_color-st-attrib $-1 $26 $-1 $6 0.5 1 1 #
lump $-1 $-1 $27 $6 #
transform $-1 1 0 0 0 1 0 0 0 1 0 0 -40 1 no_rotate no_reflect no_shear #
rgb_color-st-attrib $-1 $28 $-1 $7 1 0.5 1 #
lump $-1 $-1 $29 $7 #
transform $-1 1 0 0 0 1 0 0 0 1 0 0 -40 1 no_rotate no_reflect no_shear #
rgb_color-st-attrib $-1 $30 $-1 $8 1 0.5 1 #
lump $-1 $-1 $31 $8 #
transform $-1 1 0 0 0 1 0 0 0 1 0 0 -40 1 no_rotate no_reflect no_shear #
aggregate_secndry_attribute-aggregate_geombuild_base_attribute-aggregate_body_attribute-attrib_HH-attrib $-1 $32 $9 $0 F #
face $33 $34 $35 $10 $-1 $36 forward single #
shell $-1 $-1 $-1 $37 $-1 $12 #
model_id-kcp-attrib $-1 $-1 $14 $6 1 1017637297 120 293076995 1 #
shell $-1 $-1 $-1 $38 $-1 $15 #
model_id-kcp-attrib $-1 $-1 $17 $7 1 1017637297 220 299630596 1 #
shell $-1 $-1 $-1 $39 $-1 $18 #
model_id-kcp-attrib $-1 $-1 $20 $8 1 1017637297 270 286130181 1 #
shell $-1 $-1 $-1 $40 $-1 $21 #
aggregate_sharped_attribute-aggregate_geombuild_base_attribute-aggregate_body_attribute-attrib_HH-attrib $-1 $41 $23 $0 F #
model_id-kcp-attrib $-1 $42 $-1 $24 1 1017637297 50 288489473 2 #
face $43 $44 $45 $10 $-1 $36 forward single #
loop $-1 $46 $47 $24 #
cone-surface $-1 0 0 -90 0 0 -1 15 0 0 1 I I 0 1 15 forward I I I I #
face $48 $49 $50 $25 $-1 $51 forward single #
face $-1 $52 $53 $27 $-1 $54 reversed single #
face $-1 $55 $56 $29 $-1 $57 forward single #
face $-1 $58 $59 $31 $-1 $60 forward single #
aggregate_reblend_attribute-aggregate_geombuild_base_attribute-aggregate_body_attribute-attrib_HH-attrib $-1 $61 $32 $0 F #
attrib_hh_face_geombuild-attrib_entity_geombuild-individual_entity_attribute-attrib_HH-attrib $-1 $-1 $33 $24 F #
model_id-kcp-attrib $-1 $62 $-1 $34 1 1017637297 50 288489473 3 #
face $63 $64 $65 $10 $-1 $66 forward single #
loop $-1 $67 $68 $34 #
loop $-1 $-1 $69 $24 #
coedge $70 $47 $47 $71 $72 reversed $35 $-1 #
model_id-kcp-attrib $-1 $-1 $-1 $37 1 1017637297 50 288489474 3 #
face $73 $74 $75 $25 $-1 $76 reversed single #
loop $-1 $-1 $77 $37 #
plane-surface $-1 0 0 90 0 0 1 1 0 0 forward_v I I I I #
face $-1 $78 $79 $27 $-1 $54 reversed single #
loop $-1 $-1 $80 $38 #
cone-surface $-1 -2.6244062631887405e-031 0 -90 0 0 -1 70 0 0 1 I I 0 1 70 forward I I I I #
face $-1 $81 $82 $29 $-1 $83 forward single #
loop $-1 $84 $85 $39 #
cone-surface $-1 0 0 15 0 0 -1 15 0 0 1 I I 0 -1 15 forward I I I I #
face $-1 $86 $87 $31 $-1 $88 forward single #
loop $-1 $89 $90 $40 #
cone-surface $-1 0 0 40 0 0 1 15 0 0 1 I I 0 -1 15 forward I I I I #
aggregate_isospline_attribute-aggregate_geombuild_base_attribute-aggregate_body_attribute-attrib_HH-attrib $-1 $91 $41 $0 F #
attrib_hh_face_geombuild-attrib_entity_geombuild-individual_entity_attribute-attrib_HH-attrib $-1 $-1 $43 $34 F #
model_id-kcp-attrib $-1 $92 $-1 $44 1 1017637297 50 288489473 9 #
face $93 $94 $95 $10 $-1 $96 forward single #
loop $-1 $-1 $97 $44 #
plane-surface $-1 15 0 -130 0 0 -1 -1 0 0 forward_v I I I I #
loop $-1 $-1 $98 $34 #
coedge $99 $68 $68 $97 $100 forward $45 $-1 #
coedge $101 $69 $69 $102 $103 reversed $46 $-1 #
attrib_hh_coedge_geombuild-attrib_entity_geombuild-individual_entity_attribute-attrib_HH-attrib $-1 $-1 $-1 $47 F #
coedge $104 $71 $71 $47 $72 forward $95 $-1 #
edge $105 $106 0 $106 6.2831853071795862 $71 $107 forward 7 unknown #
model_id-kcp-attrib $-1 $-1 $-1 $49 1 1017637297 50 288489474 2 #
face $-1 $108 $109 $25 $-1 $110 reversed single #
loop $-1 $-1 $111 $49 #
plane-surface $-1 0 0 -90 0 0 1 1 0 0 forward_v I I I I #
coedge $-1 $112 $113 $114 $115 forward $50 $-1 #
face $-1 $116 $117 $27 $-1 $54 reversed single #
loop $-1 $-1 $118 $52 #
coedge $-1 $119 $120 $121 $122 forward $53 $-1 #
face $-1 $123 $124 $29 $-1 $125 reversed single #
loop $-1 $126 $127 $55 #
cone-surface $-1 -2.6244062631887405e-031 0 15 0 0 -1 70 0 0 1 I I 0 1 70 forward I I I I #
loop $-1 $-1 $128 $39 #
coedge $-1 $85 $85 $129 $130 forward $56 $-1 #
face $-1 $131 $132 $31 $-1 $133 forward single #
loop $-1 $134 $135 $58 #
cone-surface $-1 -2.6244062631887405e-031 0 40 0 0 1 70 0 0 1 I I 0 1 70 forward I I I I #
loop $-1 $-1 $136 $40 #
coedge $-1 $90 $90 $137 $138 forward $59 $-1 #
aggregate_analytic_solver_attribute-aggregate_geombuild_base_attribute-aggregate_body_attribute-attrib_HH-attrib $-1 $139 $61 $0 F #
model_id-kcp-attrib $-1 $140 $63 $44 1 1017637297 50 288489473 4 #
model_id-kcp-attrib $-1 $141 $-1 $64 1 1017637297 50 288489473 5 #
face $142 $143 $144 $10 $-1 $145 forward single #
loop $-1 $-1 $71 $64 #
plane-surface $-1 0 0 50 0 0 1 1 0 0 forward_v I I I I #
coedge $146 $97 $97 $68 $100 reversed $65 $-1 #
coedge $147 $98 $98 $148 $149 reversed $67 $-1 #
attrib_hh_coedge_geombuild-attrib_entity_geombuild-individual_entity_attribute-attrib_HH-attrib $-1 $-1 $-1 $68 F #
edge $150 $151 0 $151 6.2831853071795862 $68 $152 forward 7 unknown #
attrib_hh_coedge_geombuild-attrib_entity_geombuild-individual_entity_attribute-attrib_HH-attrib $-1 $-1 $-1 $69 F #
coedge $153 $102 $102 $69 $103 forward $154 $-1 #
edge $155 $156 -3.1415926535897998 $156 3.1415926535897865 $102 $157 forward 7 unknown #
attrib_hh_coedge_geombuild-attrib_entity_geombuild-individual_entity_attribute-attrib_HH-attrib $-1 $-1 $-1 $71 F #
attrib_hh_edge_geombuild-attrib_entity_geombuild-individual_entity_attribute-attrib_HH-attrib $-1 $-1 $-1 $72 F #
vertex $158 $72 $159 #
ellipse-curve $-1 0 0 50 0 0 1 15 0 0 1 I I #
face $-1 $160 $161 $25 $-1 $162 reversed single #
loop $-1 $-1 $163 $74 #
plane-surface $-1 0 -70 0 0 1 0 0 0 1 forward_v I I I I #
coedge $-1 $164 $165 $166 $167 forward $75 $-1 #
coedge $-1 $168 $77 $169 $170 forward $50 $-1 #
coedge $-1 $77 $168 $171 $172 forward $50 $-1 #
coedge $-1 $173 $174 $77 $115 reversed $175 $-1 #
edge $-1 $176 -70 $177 70 $114 $178 forward 7 unknown #
face $-1 $179 $180 $27 $-1 $54 reversed single #
loop $-1 $-1 $181 $78 #
coedge $-1 $182 $121 $183 $184 reversed $79 $-1 #
coedge $-1 $185 $80 $186 $187 reversed $53 $-1 #
coedge $-1 $80 $185 $188 $189 reversed $53 $-1 #
coedge $-1 $118 $190 $191 $122 reversed $79 $-1 #
edge $-1 $192 -180 $193 0 $191 $194 forward 7 unknown #
face $-1 $-1 $195 $29 $-1 $196 forward single #
loop $-1 $197 $198 $81 #
plane-surface $-1 -5.4812834224598896 1.2368778410318647e-015 -90 0 0 1 1 0 0 forward_v I I I I #
loop $-1 $-1 $199 $55 #
coedge $-1 $127 $127 $198 $200 forward $82 $-1 #
coedge $-1 $128 $128 $201 $202 reversed $84 $-1 #
coedge $-1 $129 $129 $85 $130 reversed $197 $-1 #
edge $-1 $203 -3.1415926535897865 $203 3.1415926535897998 $85 $204 forward 7 unknown #
face $-1 $-1 $205 $31 $-1 $206 reversed single #
loop $-1 $207 $208 $86 #
plane-surface $-1 -5.4812834224598896 -1.2368778410318647e-015 90 0 0 1 1 0 0 forward_v I I I I #
loop $-1 $-1 $209 $58 #
coedge $-1 $135 $135 $208 $210 forward $87 $-1 #
coedge $-1 $136 $136 $211 $212 reversed $89 $-1 #
coedge $-1 $137 $137 $90 $138 reversed $207 $-1 #
edge $-1 $213 -3.1415926535897865 $213 3.1415926535897998 $90 $214 forward 7 unknown #
aggregate_geombuild_attribute-aggregate_geombuild_base_attribute-aggregate_body_attribute-attrib_HH-attrib $-1 $215 $91 $0 #
attrib_hh_face_geombuild-attrib_entity_geombuild-individual_entity_attribute-attrib_HH-attrib $-1 $-1 $92 $44 F #
attrib_hh_face_geombuild-attrib_entity_geombuild-individual_entity_attribute-attrib_HH-attrib $-1 $-1 $93 $64 F #
model_id-kcp-attrib $-1 $216 $-1 $94 1 1017637297 50 288489473 6 #
face $217 $218 $219 $10 $-1 $220 forward single #
loop $-1 $221 $222 $94 #
cone-surface $-1 0 0 -12.5 0 0 1 70 0 0 1 I I 0 1 70 forward I I I I #
attrib_hh_coedge_geombuild-attrib_entity_geombuild-individual_entity_attribute-attrib_HH-attrib $-1 $-1 $-1 $97 F #
attrib_hh_coedge_geombuild-attrib_entity_geombuild-individual_entity_attribute-attrib_HH-attrib $-1 $-1 $-1 $98 F #
coedge $223 $148 $148 $98 $149 forward $219 $-1 #
edge $224 $225 -3.1415926535897998 $225 3.1415926535897865 $148 $226 forward 7 unknown #
attrib_edge_convexity-kcp-attrib $-1 $227 $-1 $100 1 #
vertex $228 $100 $229 #
ellipse-curve $-1 0 0 -130 0 0 1 15 0 0 1 I I #
attrib_hh_coedge_geombuild-attrib_entity_geombuild-individual_entity_attribute-attrib_HH-attrib $-1 $-1 $-1 $102 F #
loop $-1 $230 $102 $218 #
attrib_hh_edge_geombuild-attrib_entity_geombuild-individual_entity_attribute-attrib_HH-attrib $-1 $-1 $-1 $103 F #
vertex $231 $103 $232 #
ellipse-curve $-1 0 0 0 0 0 -1 15 0 0 1 I I #
attrib_hh_vertex_geombuild-attrib_entity_geombuild-individual_entity_attribute-attrib_HH-attrib $-1 $-1 $-1 $106 F #
point $-1 15 0 50 #
face $-1 $233 $234 $25 $-1 $235 reversed single #
loop $-1 $-1 $236 $108 #
plane-surface $-1 -70 0 0 1 0 0 0 0 -1 forward_v I I I I #
coedge $-1 $237 $171 $238 $239 forward $109 $-1 #
coedge $-1 $240 $111 $237 $241 forward $75 $-1 #
coedge $-1 $111 $240 $242 $243 forward $75 $-1 #
coedge $-1 $174 $173 $111 $167 reversed $175 $-1 #
edge $-1 $244 -70 $245 70 $166 $246 forward 7 unknown #
coedge $-1 $113 $112 $247 $248 forward $50 $-1 #
coedge $-1 $249 $250 $112 $170 reversed $234 $-1 #
edge $-1 $177 -70 $251 70 $169 $252 forward 7 unknown #
coedge $-1 $163 $253 $113 $172 reversed $109 $-1 #
edge $-1 $254 -70 $176 70 $171 $255 forward 7 unknown #
coedge $-1 $166 $114 $253 $256 forward $175 $-1 #
coedge $-1 $114 $166 $249 $257 reversed $175 $-1 #
loop $-1 $-1 $173 $233 #
vertex $-1 $115 $258 #
vertex $-1 $115 $259 #
straight-curve $-1 70 0 90 0 1 0 I I #
face $-1 $260 $261 $27 $-1 $262 reversed single #
loop $-1 $-1 $263 $116 #
coedge $-1 $264 $265 $266 $267 reversed $117 $-1 #
coedge $-1 $190 $118 $268 $269 forward $79 $-1 #
coedge $-1 $270 $271 $118 $184 forward $272 $-1 #
edge $-1 $273 -3.1415926535897931 $192 -1.5707963267948966 $183 $274 forward 7 unknown #
coedge $-1 $120 $119 $275 $276 reversed $53 $-1 #
coedge $-1 $277 $278 $119 $187 forward $279 $-1 #
edge $-1 $280 0 $193 1.5707963267948966 $186 $281 forward 7 unknown #
coedge $-1 $282 $283 $120 $189 forward $284 $-1 #
edge $-1 $192 -1.5707963267948966 $285 0 $188 $274 forward 7 unknown #
coedge $-1 $121 $182 $286 $287 reversed $79 $-1 #
coedge $-1 $288 $289 $290 $122 forward $291 $-1 #
vertex $-1 $292 $293 #
vertex $-1 $294 $295 #
straight-curve $-1 -2.6244062631887405e-031 70 -90 0 0 -1 I I #
loop $-1 $296 $297 $123 #
plane-surface $-1 -5.4812834224598896 1.2368778410318647e-015 14.999999999999998 0 0 1 1 0 0 forward_v I I I I #
loop $-1 $-1 $129 $81 #
coedge $-1 $198 $198 $127 $200 reversed $124 $-1 #
coedge $-1 $199 $199 $297 $298 reversed $126 $-1 #
edge $-1 $299 -3.1415926535897931 $299 3.1415926535897931 $127 $300 forward 7 unknown #
coedge $-1 $201 $201 $128 $202 forward $296 $-1 #
edge $-1 $301 -3.1415926535897865 $301 3.1415926535897998 $128 $302 forward 7 unknown #
vertex $-1 $130 $303 #
ellipse-curve $-1 0 0 -90 0 0 -1 15 0 0 1 I I #
loop $-1 $304 $305 $131 #
plane-surface $-1 -5.4812834224598896 -1.2368778410318647e-015 40 0 0 1 1 0 0 forward_v I I I I #
loop $-1 $-1 $137 $86 #
coedge $-1 $208 $208 $135 $210 reversed $132 $-1 #
coedge $-1 $209 $209 $305 $306 reversed $134 $-1 #
edge $-1 $307 -3.1415926535897931 $307 3.1415926535897931 $135 $308 forward 7 unknown #
coedge $-1 $211 $211 $136 $212 forward $304 $-1 #
edge $-1 $309 -3.1415926535897865 $309 3.1415926535897998 $136 $310 forward 7 unknown #
vertex $-1 $138 $311 #
ellipse-curve $-1 0 0 90 0 0 1 15 0 0 1 I I #
aggregate_stitch_attribute-aggregate_stitch_base_attribute-aggregate_body_attribute-attrib_HH-attrib $-1 $312 $139 $0 F #
attrib_hh_face_geombuild-attrib_entity_geombuild-individual_entity_attribute-attrib_HH-attrib $-1 $-1 $142 $94 F #
model_id-kcp-attrib $-1 $313 $-1 $143 1 1017637297 50 288489473 7 #
face $314 $-1 $154 $10 $-1 $315 forward single #
loop $-1 $316 $148 $143 #
plane-surface $-1 0 0 -25 0 0 -1 -1 0 0 forward_v I I I I #
loop $-1 $-1 $317 $94 #
coedge $318 $222 $222 $319 $320 reversed $144 $-1 #
attrib_hh_coedge_geombuild-attrib_entity_geombuild-individual_entity_attribute-attrib_HH-attrib $-1 $-1 $-1 $148 F #
attrib_hh_edge_geombuild-attrib_entity_geombuild-individual_entity_attribute-attrib_HH-attrib $-1 $-1 $-1 $149 F #
vertex $321 $149 $322 #
ellipse-curve $-1 0 0 -25 0 0 1 15 0 0 1 I I #
convexity-sys-attrib $-1 $323 $150 $100 #
attrib_hh_vertex_geombuild-attrib_entity_geombuild-individual_entity_attribute-attrib_HH-attrib $-1 $-1 $-1 $151 F #
point $-1 15 0 -130 #
loop $-1 $-1 $324 $218 #
attrib_hh_vertex_geombuild-attrib_entity_geombuild-individual_entity_attribute-attrib_HH-attrib $-1 $-1 $-1 $156 F #
point $-1 -15 -1.04744440165294e-013 0 #
face $-1 $-1 $175 $25 $-1 $325 reversed single #
loop $-1 $-1 $249 $160 #
plane-surface $-1 0 70 0 0 -1 0 0 0 -1 forward_v I I I I #
coedge $-1 $326 $247 $250 $327 forward $161 $-1 #
coedge $-1 $253 $163 $164 $241 reversed $109 $-1 #
coedge $-1 $247 $326 $163 $239 reversed $161 $-1 #
edge $-1 $254 -90 $328 90 $238 $329 forward 7 unknown #
coedge $-1 $165 $164 $326 $330 forward $75 $-1 #
edge $-1 $245 -70 $328 70 $237 $331 forward 7 unknown #
coedge $-1 $250 $249 $165 $243 reversed $234 $-1 #
edge $-1 $332 -70 $244 70 $242 $333 forward 7 unknown #
vertex $-1 $167 $334 #
vertex $-1 $256 $335 #
straight-curve $-1 70 0 -90 0 -1 0 I I #
coedge $-1 $236 $238 $168 $248 reversed $161 $-1 #
edge $-1 $251 -70 $254 70 $247 $336 forward 7 unknown #
coedge $-1 $242 $169 $174 $257 forward $234 $-1 #
coedge $-1 $169 $242 $236 $327 reversed $234 $-1 #
vertex $-1 $170 $337 #
straight-curve $-1 0 70 90 -1 0 0 I I #
coedge $-1 $171 $237 $173 $256 reversed $109 $-1 #
vertex $-1 $248 $338 #
straight-curve $-1 0 -70 90 1 0 0 I I #
edge $-1 $176 -90 $245 90 $173 $339 forward 7 unknown #
edge $-1 $177 -90 $244 90 $174 $340 forward 7 unknown #
point $-1 70 -70 90 #
point $-1 70 70 90 #
face $-1 $341 $291 $27 $-1 $342 reversed single #
loop $-1 $-1 $275 $179 #
plane-surface $-1 70 0 0 -1 0 0 0 0 1 forward_v I I I I #
coedge $-1 $268 $343 $344 $345 reversed $180 $-1 #
coedge $-1 $346 $181 $347 $348 reversed $117 $-1 #
coedge $-1 $181 $346 $185 $276 forward $117 $-1 #
coedge $-1 $349 $350 $181 $267 forward $351 $-1 #
edge $-1 $352 -1.5707963267948966 $280 0 $266 $281 forward 7 unknown #
coedge $-1 $353 $263 $354 $269 reversed $180 $-1 #
edge $-1 $273 -180 $355 0 $354 $356 forward 7 unknown #
coedge $-1 $271 $183 $289 $292 forward $272 $-1 #
coedge $-1 $183 $270 $357 $358 forward $272 $-1 #
loop $-1 $-1 $183 $359 #
vertex $-1 $360 $361 #
ellipse-curve $-1 -2.6244062631887405e-031 0 90 0 0 -1 70 0 0 1 I I #
coedge $-1 $362 $363 $364 $276 forward $261 $-1 #
edge $-1 $285 -180 $280 0 $275 $365 forward 7 unknown #
coedge $-1 $278 $186 $366 $294 forward $279 $-1 #
coedge $-1 $186 $277 $362 $367 forward $279 $-1 #
loop $-1 $-1 $186 $368 #
vertex $-1 $369 $370 #
ellipse-curve $-1 -2.6244062631887405e-031 0 -90 0 0 1 70 0 0 1 I I #
coedge $-1 $283 $188 $363 $371 forward $284 $-1 #
coedge $-1 $188 $282 $372 $373 forward $284 $-1 #
loop $-1 $-1 $188 $374 #
vertex $-1 $371 $375 #
coedge $-1 $376 $377 $190 $287 forward $378 $-1 #
edge $-1 $193 1.5707963267948966 $355 3.1415926535897931 $286 $281 forward 7 unknown #
coedge $-1 $379 $191 $377 $380 reversed $291 $-1 #
coedge $-1 $191 $379 $270 $292 reversed $291 $-1 #
coedge $-1 $372 $366 $80 $122 reversed $381 $-1 #
loop $-1 $-1 $191 $260 #
edge $-1 $192 2.6244062631887405e-031 $382 70 $289 $383 forward 7 unknown #
point $-1 -2.6244062631887405e-031 70 90 #
edge $-1 $193 -2.6244062631887405e-031 $384 70 $366 $385 forward 7 unknown #
point $-1 -2.6244062631887405e-031 70 -90 #
loop $-1 $-1 $201 $123 #
coedge $-1 $297 $297 $199 $298 forward $195 $-1 #
edge $386 $387 -3.1415926535897931 $387 3.1415926535897931 $199 $388 forward 7 unknown #
vertex $-1 $200 $389 #
ellipse-curve $-1 -2.6244062631887405e-031 0 -90 0 0 1 70 0 0 1 I I #
vertex $-1 $202 $390 #
ellipse-curve $-1 0 0 15 0 0 -1 15 0 0 1 I I #
point $-1 -15 1.04744440165294e-013 -90 #
loop $-1 $-1 $211 $131 #
coedge $-1 $305 $305 $209 $306 forward $205 $-1 #
edge $391 $392 -3.1415926535897931 $392 3.1415926535897931 $209 $393 forward 7 unknown #
vertex $-1 $210 $394 #
ellipse-curve $-1 -2.6244062631887405e-031 0 90 0 0 -1 70 0 0 1 I I #
vertex $-1 $212 $395 #
ellipse-curve $-1 0 0 40 0 0 1 15 0 0 1 I I #
point $-1 -15 -1.04744440165294e-013 90 #
aggregate_simgeom_attribute-aggregate_simgeom_base_attribute-aggregate_body_attribute-attrib_HH-attrib $-1 $-1 $215 $0 F #
attrib_hh_face_geombuild-attrib_entity_geombuild-individual_entity_attribute-attrib_HH-attrib $-1 $-1 $217 $143 F #
model_id-kcp-attrib $-1 $396 $-1 $218 1 1017637297 50 288489473 8 #
plane-surface $-1 0 0 0 0 0 1 1 0 0 forward_v I I I I #
loop $-1 $-1 $319 $143 #
coedge $397 $317 $317 $324 $398 reversed $221 $-1 #
attrib_hh_coedge_geombuild-attrib_entity_geombuild-individual_entity_attribute-attrib_HH-attrib $-1 $-1 $-1 $222 F #
coedge $399 $319 $319 $222 $320 forward $316 $-1 #
edge $400 $401 0 $401 6.2831853071795862 $319 $402 forward 7 unknown #
attrib_hh_vertex_geombuild-attrib_entity_geombuild-individual_entity_attribute-attrib_HH-attrib $-1 $-1 $-1 $225 F #
point $-1 -15 1.04744440165294e-013 -25 #
attrib_hh_edge_geombuild-attrib_entity_geombuild-individual_entity_attribute-attrib_HH-attrib $-1 $-1 $227 $100 F #
coedge $403 $324 $324 $317 $398 forward $230 $-1 #
plane-surface $-1 70 0 0 -1 0 0 0 0 1 forward_v I I I I #
coedge $-1 $238 $236 $240 $330 reversed $161 $-1 #
edge $-1 $251 -90 $332 90 $250 $404 forward 7 unknown #
vertex $-1 $330 $405 #
straight-curve $-1 -70 -70 0 0 0 -1 I I #
edge $-1 $328 -70 $332 70 $326 $406 forward 7 unknown #
straight-curve $-1 0 -70 -90 -1 0 0 I I #
vertex $-1 $243 $407 #
straight-curve $-1 0 70 -90 1 0 0 I I #
point $-1 70 70 -90 #
point $-1 70 -70 -90 #
straight-curve $-1 -70 0 90 0 -1 0 I I #
point $-1 -70 70 90 #
point $-1 -70 -70 90 #
straight-curve $-1 70 -70 0 0 0 -1 I I #
straight-curve $-1 70 70 0 0 0 -1 I I #
face $-1 $408 $409 $27 $-1 $410 reversed single #
plane-surface $-1 0 70 0 0 -1 0 0 0 -1 forward_v I I I I #
coedge $-1 $263 $353 $264 $348 forward $180 $-1 #
coedge $-1 $411 $412 $263 $345 forward $413 $-1 #
edge $-1 $355 -3.1415926535897931 $352 -1.5707963267948966 $344 $281 forward 7 unknown #
coedge $-1 $265 $264 $414 $415 reversed $117 $-1 #
coedge $-1 $416 $417 $418 $348 forward $419 $-1 #
edge $-1 $420 -180 $352 0 $347 $421 forward 7 unknown #
coedge $-1 $350 $266 $422 $369 forward $351 $-1 #
coedge $-1 $266 $349 $416 $423 forward $351 $-1 #
loop $-1 $-1 $266 $424 #
vertex $-1 $425 $426 #
coedge $-1 $343 $268 $427 $428 reversed $180 $-1 #
coedge $-1 $429 $430 $431 $269 forward $409 $-1 #
vertex $-1 $432 $433 #
straight-curve $-1 -70 0 -90 0 0 -1 I I #
coedge $-1 $434 $431 $271 $358 reversed $435 $-1 #
edge $-1 $382 -70 $273 0 $357 $436 forward 7 unknown #
face $-1 $374 $272 $27 $-1 $437 forward single #
edge $-1 $273 0 $438 70 $430 $436 forward 7 unknown #
point $-1 -70 0 90 #
coedge $-1 $439 $275 $278 $367 reversed $261 $-1 #
coedge $-1 $275 $439 $282 $371 reversed $261 $-1 #
coedge $-1 $440 $422 $265 $276 reversed $441 $-1 #
straight-curve $-1 70 0 -90 0 0 -1 I I #
coedge $-1 $290 $442 $277 $294 reversed $381 $-1 #
edge $-1 $384 -70 $280 0 $362 $443 forward 7 unknown #
face $-1 $444 $279 $27 $-1 $445 reversed single #
edge $-1 $280 0 $446 70 $422 $443 forward 7 unknown #
point $-1 70 0 -90 #
edge $-1 $285 0 $447 70 $363 $448 forward 7 unknown #
coedge $-1 $442 $290 $283 $373 reversed $381 $-1 #
edge $-1 $447 -70 $192 2.6244062631887405e-031 $372 $383 forward 7 unknown #
face $-1 $449 $284 $27 $-1 $437 forward single #
point $-1 70 0 90 #
coedge $-1 $377 $286 $450 $432 forward $378 $-1 #
coedge $-1 $286 $376 $288 $380 forward $378 $-1 #
loop $-1 $-1 $286 $444 #
coedge $-1 $289 $288 $434 $451 reversed $291 $-1 #
edge $-1 $452 -70 $193 -2.6244062631887405e-031 $288 $385 forward 7 unknown #
loop $-1 $-1 $290 $453 #
vertex $-1 $292 $454 #
straight-curve $-1 0 70 90 -1 0 0 I I #
vertex $-1 $367 $455 #
straight-curve $-1 0 70 -90 1 0 0 I I #
convexity-sys-attrib $-1 $-1 $-1 $298 #
vertex $-1 $298 $456 #
ellipse-curve $-1 -2.6244062631887405e-031 0 15 0 0 1 70 0 0 1 I I #
point $-1 -70 -8.5722444767566408e-015 -90 #
point $-1 -15 1.04744440165294e-013 15 #
convexity-sys-attrib $-1 $-1 $-1 $306 #
vertex $-1 $306 $457 #
ellipse-curve $-1 -2.6244062631887405e-031 0 40 0 0 -1 70 0 0 1 I I #
point $-1 -70 8.5722444767566408e-015 90 #
point $-1 -15 -1.04744440165294e-013 40 #
attrib_hh_face_geombuild-attrib_entity_geombuild-individual_entity_attribute-attrib_HH-attrib $-1 $-1 $314 $218 F #
attrib_hh_coedge_geombuild-attrib_entity_geombuild-individual_entity_attribute-attrib_HH-attrib $-1 $-1 $-1 $317 F #
edge $458 $459 0 $459 6.2831853071795862 $324 $460 forward 7 unknown #
attrib_hh_coedge_geombuild-attrib_entity_geombuild-individual_entity_attribute-attrib_HH-attrib $-1 $-1 $-1 $319 F #
attrib_hh_edge_geombuild-attrib_entity_geombuild-individual_entity_attribute-attrib_HH-attrib $-1 $-1 $-1 $320 F #
vertex $461 $320 $462 #
ellipse-curve $-1 0 0 -25 0 0 -1 70 0 0 1 I I #
attrib_hh_coedge_geombuild-attrib_entity_geombuild-individual_entity_attribute-attrib_HH-attrib $-1 $-1 $-1 $324 F #
straight-curve $-1 -70 70 0 0 0 -1 I I #
point $-1 -70 -70 -90 #
straight-curve $-1 -70 0 -90 0 1 0 I I #
point $-1 -70 70 -90 #
face $-1 $359 $463 $27 $-1 $437 forward single #
loop $-1 $-1 $354 $341 #
plane-surface $-1 -70 0 0 1 0 0 0 0 -1 forward_v I I I I #
coedge $-1 $412 $344 $464 $425 forward $413 $-1 #
coedge $-1 $344 $411 $429 $465 forward $413 $-1 #
loop $-1 $-1 $344 $466 #
coedge $-1 $467 $468 $346 $415 forward $469 $-1 #
edge $-1 $285 0 $420 1.5707963267948966 $414 $274 forward 7 unknown #
coedge $-1 $470 $347 $350 $423 reversed $419 $-1 #
coedge $-1 $347 $470 $467 $471 reversed $419 $-1 #
coedge $-1 $472 $464 $343 $348 reversed $473 $-1 #
loop $-1 $-1 $347 $474 #
vertex $-1 $471 $475 #
straight-curve $-1 -2.6244062631887405e-031 -70 -90 0 0 -1 I I #
coedge $-1 $364 $476 $349 $369 reversed $441 $-1 #
edge $-1 $446 -70 $352 2.6244062631887405e-031 $416 $477 forward 7 unknown #
face $-1 $368 $351 $27 $-1 $445 reversed single #
edge $-1 $352 2.6244062631887405e-031 $478 70 $464 $477 forward 7 unknown #
point $-1 -2.6244062631887405e-031 -70 -90 #
coedge $-1 $479 $480 $353 $428 forward $463 $-1 #
edge $-1 $420 1.5707963267948966 $273 3.1415926535897931 $427 $274 forward 7 unknown #
coedge $-1 $481 $354 $412 $465 reversed $409 $-1 #
coedge $-1 $354 $481 $479 $360 reversed $409 $-1 #
coedge $-1 $357 $450 $182 $269 reversed $435 $-1 #
edge $-1 $355 0 $452 70 $450 $482 forward 7 unknown #
point $-1 -70 0 -90 #
coedge $-1 $450 $357 $379 $451 forward $435 $-1 #
loop $-1 $-1 $431 $483 #
straight-curve $-1 -70 0 90 0 -1 0 I I #
plane-surface $-1 0 0 90 0 0 1 1 0 0 forward_v I I I I #
vertex $-1 $360 $484 #
coedge $-1 $363 $362 $442 $485 reversed $261 $-1 #
coedge $-1 $476 $364 $468 $486 reversed $441 $-1 #
loop $-1 $-1 $364 $487 #
coedge $-1 $366 $372 $439 $485 forward $381 $-1 #
straight-curve $-1 70 0 -90 0 -1 0 I I #
face $-1 $488 $378 $27 $-1 $445 reversed single #
plane-surface $-1 0 0 -90 0 0 1 1 0 0 forward_v I I I I #
vertex $-1 $489 $490 #
vertex $-1 $371 $491 #
straight-curve $-1 70 0 90 0 1 0 I I #
face $-1 $474 $469 $27 $-1 $437 forward single #
coedge $-1 $431 $434 $376 $432 reversed $435 $-1 #
edge $-1 $382 -90 $452 90 $379 $492 forward 7 unknown #
vertex $-1 $380 $493 #
face $-1 $487 $381 $27 $-1 $342 reversed single #
point $-1 -70 70 90 #
point $-1 70 70 -90 #
point $-1 -70 -8.5722444767566408e-015 15 #
point $-1 -70 8.5722444767566408e-015 40 #
attrib_hh_edge_geombuild-attrib_entity_geombuild-individual_entity_attribute-attrib_HH-attrib $-1 $-1 $-1 $398 F #
vertex $494 $398 $495 #
ellipse-curve $-1 0 0 0 0 0 1 70 0 0 1 I I #
attrib_hh_vertex_geombuild-attrib_entity_geombuild-individual_entity_attribute-attrib_HH-attrib $-1 $-1 $-1 $401 F #
point $-1 70 0 -25 #
loop $-1 $-1 $427 $408 #
coedge $-1 $418 $496 $411 $425 reversed $473 $-1 #
edge $-1 $478 -70 $355 0 $429 $482 forward 7 unknown #
face $-1 $424 $413 $27 $-1 $445 reversed single #
coedge $-1 $468 $414 $417 $471 forward $469 $-1 #
coedge $-1 $414 $467 $440 $486 forward $469 $-1 #
loop $-1 $-1 $414 $449 #
coedge $-1 $417 $416 $476 $489 reversed $419 $-1 #
edge $-1 $420 -2.6244062631887405e-031 $497 70 $417 $498 forward 7 unknown #
coedge $-1 $496 $418 $480 $499 reversed $473 $-1 #
loop $-1 $-1 $418 $488 #
face $-1 $466 $419 $27 $-1 $500 reversed single #
point $-1 -2.6244062631887405e-031 -70 90 #
coedge $-1 $422 $440 $470 $489 forward $441 $-1 #
straight-curve $-1 0 -70 -90 -1 0 0 I I #
vertex $-1 $465 $501 #
coedge $-1 $480 $427 $430 $360 forward $463 $-1 #
coedge $-1 $427 $479 $472 $499 forward $463 $-1 #
coedge $-1 $430 $429 $496 $502 reversed $409 $-1 #
straight-curve $-1 -70 0 -90 0 1 0 I I #
face $-1 $453 $435 $27 $-1 $410 reversed single #
point $-1 -70 -70 90 #
edge $-1 $447 -90 $384 90 $439 $503 forward 7 unknown #
edge $-1 $497 -70 $285 0 $440 $448 forward 7 unknown #
face $-1 $-1 $441 $27 $-1 $262 reversed single #
face $-1 $483 $473 $27 $-1 $500 reversed single #
edge $-1 $497 -90 $446 90 $476 $504 forward 7 unknown #
point $-1 70 -70 -90 #
point $-1 70 70 90 #
straight-curve $-1 -70 70 0 0 0 -1 I I #
point $-1 -70 70 -90 #
attrib_hh_vertex_geombuild-attrib_entity_geombuild-individual_entity_attribute-attrib_HH-attrib $-1 $-1 $-1 $459 F #
point $-1 70 0 0 #
coedge $-1 $464 $472 $481 $502 forward $473 $-1 #
vertex $-1 $486 $505 #
straight-curve $-1 0 -70 90 1 0 0 I I #
edge $-1 $438 -70 $420 -2.6244062631887405e-031 $472 $498 forward 7 unknown #
plane-surface $-1 0 -70 0 0 1 0 0 0 1 forward_v I I I I #
point $-1 -70 -70 -90 #
edge $-1 $438 -90 $478 90 $481 $506 forward 7 unknown #
straight-curve $-1 70 70 0 0 0 -1 I I #
straight-curve $-1 70 -70 0 0 0 -1 I I #
point $-1 70 -70 90 #
straight-curve $-1 -70 -70 0 0 0 -1 I I #
End-of-ACIS-data 