600 0 1 0           
85 GICL ACIS Healer - Source: /gicl/data5/repository/UMD/assembly1b/assembly1b.sat - 6 0 18 ACIS 6.0.3 Solaris 24 Sun Apr 14 00:34:51 2002 
1 9.999999999999999547e-07 1.000000000000000036e-10 
body $-1 $1 $-1 $-1 #
lump $-1 $-1 $2 $0 #
shell $-1 $-1 $-1 $3 $-1 $1 #
face $-1 $4 $5 $2 $-1 $6 forward single #
face $-1 $7 $8 $2 $-1 $6 forward single #
loop $-1 $9 $10 $3 #
cone-surface $-1 0 0 -90 0 0 -1 15 0 0 1 I I 0 1 15 forward I I I I #
face $-1 $11 $12 $2 $-1 $13 forward single #
loop $-1 $14 $15 $4 #
loop $-1 $-1 $16 $3 #
coedge $-1 $10 $10 $17 $18 reversed $5 $-1 #
face $-1 $19 $20 $2 $-1 $21 forward single #
loop $-1 $-1 $22 $7 #
plane-surface $-1 15 0 -130 0 0 -1 -1 0 0 forward_v I I I I #
loop $-1 $-1 $23 $4 #
coedge $-1 $15 $15 $22 $24 forward $8 $-1 #
coedge $-1 $16 $16 $25 $26 reversed $9 $-1 #
coedge $-1 $17 $17 $10 $18 forward $20 $-1 #
edge $-1 $27 0 $27 6.283185307179586232 $17 $28 forward 7 unknown #
face $-1 $29 $30 $2 $-1 $31 forward single #
loop $-1 $-1 $17 $11 #
plane-surface $-1 0 0 50 0 0 1 1 0 0 forward_v I I I I #
coedge $-1 $22 $22 $15 $24 reversed $12 $-1 #
coedge $-1 $23 $23 $32 $33 reversed $14 $-1 #
edge $-1 $34 0 $34 6.283185307179586232 $15 $35 forward 7 unknown #
coedge $-1 $25 $25 $16 $26 forward $36 $-1 #
edge $-1 $37 -3.141592653589799777 $37 3.141592653589786455 $25 $38 forward 7 unknown #
vertex $-1 $18 $39 #
ellipse-curve $-1 0 0 50 0 0 1 15 0 0 1 I I #
face $-1 $40 $41 $2 $-1 $42 forward single #
loop $-1 $43 $44 $19 #
cone-surface $-1 0 0 -12.5 0 0 1 70 0 0 1 I I 0 1 70 forward I I I I #
coedge $-1 $32 $32 $23 $33 forward $41 $-1 #
edge $-1 $45 -3.141592653589799777 $45 3.141592653589786455 $32 $46 forward 7 unknown #
vertex $-1 $24 $47 #
ellipse-curve $-1 0 0 -130 0 0 1 15 0 0 1 I I #
loop $-1 $48 $25 $40 #
vertex $-1 $26 $49 #
ellipse-curve $-1 0 0 0 -0 -0 -1 15 0 0 1 I I #
point $-1 15 0 50 #
face $-1 $-1 $36 $2 $-1 $50 forward single #
loop $-1 $51 $32 $29 #
plane-surface $-1 0 0 -25 0 0 -1 -1 0 0 forward_v I I I I #
loop $-1 $-1 $52 $19 #
coedge $-1 $44 $44 $53 $54 reversed $30 $-1 #
vertex $-1 $33 $55 #
ellipse-curve $-1 0 0 -25 0 0 1 15 0 0 1 I I #
point $-1 15 0 -130 #
loop $-1 $-1 $56 $40 #
point $-1 -15 -1.047444401652940007e-13 0 #
plane-surface $-1 0 0 0 0 0 1 1 0 0 forward_v I I I I #
loop $-1 $-1 $53 $29 #
coedge $-1 $52 $52 $56 $57 reversed $43 $-1 #
coedge $-1 $53 $53 $44 $54 forward $51 $-1 #
edge $-1 $58 0 $58 6.283185307179586232 $53 $59 forward 7 unknown #
point $-1 -15 1.047444401652940007e-13 -25 #
coedge $-1 $56 $56 $52 $57 forward $48 $-1 #
edge $-1 $60 0 $60 6.283185307179586232 $56 $61 forward 7 unknown #
vertex $-1 $54 $62 #
ellipse-curve $-1 0 0 -25 0 0 -1 70 0 0 1 I I #
vertex $-1 $57 $63 #
ellipse-curve $-1 0 0 0 0 0 1 70 0 0 1 I I #
point $-1 70 0 -25 #
point $-1 70 0 0 #
End-of-ACIS-data 