105 1017 1 0                            
body $-1 $1 $-1 $2 #
lump $-1 $-1 $3 $0 #
transform $-1 1 0 0 0 1 0 0 0 1 0 0 0 1 0 0 0 #
shell $-1 $-1 $-1 $4 $1 #
face $5 $6 $7 $3 $-1 $8 reversed single #
pid_name-sg-attrib $-1 $-1 $-1 $4 7 114 119 105 108 115 111 110 784252905 1 1 #
face $9 $10 $11 $3 $-1 $12 reversed single #
loop $-1 $-1 $13 $4 #
plane-surface $-1 0.102313789981721 -0.0125 0.0881592998743801 -0.453990499739547 0 -0.891006524188368 -0.891006524188368 0 0.453990499739547 0 #
pid_name-sg-attrib $-1 $-1 $-1 $6 7 114 119 105 108 115 111 110 784252905 2 1 #
face $14 $15 $16 $3 $-1 $17 reversed single #
loop $-1 $18 $19 $6 #
cone-surface $-1 0 0.125 0 0 -1 0 0.06245 0 0 1 0 1 0 #
coedge $-1 $20 $21 $22 $23 1 $7 $-1 #
pid_name-sg-attrib $-1 $-1 $-1 $10 7 114 119 105 108 115 111 110 784252905 3 1 #
face $24 $25 $26 $3 $-1 $27 reversed single #
loop $-1 $28 $29 $10 #
cone-surface $-1 -2.106 0.125 -0.632 0 -1 0 0.06245 0 0 1 0 1 0 #
loop $-1 $-1 $30 $6 #
coedge $-1 $19 $19 $31 $32 0 $11 $-1 #
coedge $-1 $33 $13 $34 $35 0 $7 $-1 #
coedge $-1 $13 $33 $36 $37 0 $7 $-1 #
coedge $-1 $38 $39 $13 $23 0 $40 $-1 #
edge $-1 $41 $42 $13 $43 0 #
pid_name-sg-attrib $-1 $-1 $-1 $15 7 114 119 105 108 115 111 110 784252905 4 1 #
face $44 $45 $46 $3 $-1 $47 reversed single #
loop $-1 $48 $49 $15 #
cone-surface $-1 0.15 0.125 -0.145 0 -1 0 0.07725 0 0 1 0 1 0 #
loop $-1 $-1 $50 $10 #
coedge $-1 $29 $29 $51 $52 0 $16 $-1 #
coedge $-1 $30 $30 $53 $54 0 $18 $-1 #
coedge $-1 $31 $31 $19 $32 1 $55 $-1 #
edge $-1 $56 $56 $31 $57 0 #
coedge $-1 $21 $20 $58 $59 0 $7 $-1 #
coedge $-1 $60 $61 $20 $35 1 $62 $-1 #
edge $-1 $41 $63 $34 $64 0 #
coedge $-1 $65 $66 $21 $37 1 $67 $-1 #
edge $-1 $68 $42 $36 $69 1 #
coedge $-1 $70 $22 $66 $71 0 $40 $-1 #
coedge $-1 $22 $70 $60 $72 0 $40 $-1 #
loop $-1 $-1 $70 $73 #
vertex $-1 $23 $74 #
vertex $-1 $23 $75 #
straight-curve $-1 -1.04638246506378 0.125 0.673449275559008 0 -1 0 #
pid_name-sg-attrib $-1 $-1 $-1 $25 7 114 119 105 108 115 111 110 784252905 5 1 #
face $76 $77 $78 $3 $-1 $79 reversed single #
loop $-1 $80 $81 $25 #
cone-surface $-1 -2.102 0.125 0.643 0 -1 0 0.07725 0 0 1 0 1 0 #
loop $-1 $-1 $82 $15 #
coedge $-1 $49 $49 $83 $84 0 $26 $-1 #
coedge $-1 $50 $50 $85 $86 0 $28 $-1 #
coedge $-1 $51 $51 $29 $52 1 $87 $-1 #
edge $-1 $88 $88 $51 $89 0 #
coedge $-1 $53 $53 $30 $54 1 $90 $-1 #
edge $-1 $91 $91 $53 $92 1 #
loop $-1 $-1 $31 $93 #
vertex $-1 $32 $94 #
ellipse-curve $-1 0 0 0 0 -1 0 -0.06245 0 0 1 #
coedge $-1 $95 $96 $33 $59 1 $97 $-1 #
edge $-1 $63 $68 $58 $98 1 #
coedge $-1 $99 $34 $39 $72 1 $62 $-1 #
coedge $-1 $34 $100 $95 $101 1 $62 $-1 #
loop $-1 $102 $99 $103 #
vertex $-1 $59 $104 #
straight-curve $-1 -1.04638246506378 0.125 0.673449275559008 -0.891006524188368 0 0.453990499739547 #
coedge $-1 $105 $36 $96 $106 1 $67 $-1 #
coedge $-1 $36 $107 $38 $71 1 $67 $-1 #
loop $-1 $108 $36 $93 #
vertex $-1 $59 $109 #
straight-curve $-1 -1.04638246506378 0 0.673449275559008 -0.891006524188368 0 0.453990499739547 #
coedge $-1 $39 $38 $110 $111 0 $40 $-1 #
edge $-1 $42 $112 $66 $113 1 #
edge $-1 $114 $41 $60 $115 1 #
face $116 $117 $40 $3 $-1 $118 reversed single #
point $-1 -1.04638246506378 0.125 0.673449275559008 #
point $-1 -1.04638246506378 0 0.673449275559008 #
pid_name-sg-attrib $-1 $-1 $-1 $45 7 114 119 105 108 115 111 110 784252905 6 1 #
face $119 $120 $121 $3 $-1 $122 reversed single #
loop $-1 $123 $124 $45 #
cone-surface $-1 -2.102 0.125 -0.839 0 -1 0 0.07725 0 0 1 0 1 0 #
loop $-1 $-1 $125 $25 #
coedge $-1 $81 $81 $126 $127 0 $46 $-1 #
coedge $-1 $82 $82 $128 $129 0 $48 $-1 #
coedge $-1 $83 $83 $49 $84 1 $130 $-1 #
edge $-1 $131 $131 $83 $132 0 #
coedge $-1 $85 $85 $50 $86 1 $133 $-1 #
edge $-1 $134 $134 $85 $135 1 #
loop $-1 $55 $51 $93 #
vertex $-1 $52 $136 #
ellipse-curve $-1 -2.106 0 -0.632 0 -1 0 -0.0624500000000001 0 0 1 #
loop $-1 $-1 $53 $103 #
vertex $-1 $54 $137 #
ellipse-curve $-1 0 0.125 0 0 -1 0 0.06245 0 0 1 #
face $138 $-1 $139 $3 $-1 $140 reversed single #
point $-1 0.06245 0 0 #
coedge $-1 $141 $58 $61 $101 0 $97 $-1 #
coedge $-1 $58 $141 $65 $106 0 $97 $-1 #
loop $-1 $-1 $95 $142 #
straight-curve $-1 -1.25746264672636 0 0.781 0 1 0 #
coedge $-1 $143 $60 $144 $145 1 $62 $-1 #
coedge $-1 $61 $146 $147 $148 1 $62 $-1 #
edge $-1 $63 $149 $61 $150 1 #
loop $-1 $151 $152 $103 #
face $153 $154 $155 $3 $-1 $156 forward single #
point $-1 -1.25746264672636 0.125 0.781 #
coedge $-1 $157 $65 $158 $159 1 $67 $-1 #
edge $-1 $160 $68 $65 $161 0 #
coedge $-1 $66 $162 $163 $164 1 $67 $-1 #
loop $-1 $165 $166 $93 #
point $-1 -1.25746264672636 0 0.781 #
coedge $-1 $163 $144 $70 $111 1 $167 $-1 #
edge $-1 $112 $114 $110 $168 0 #
vertex $-1 $111 $169 #
ellipse-curve $-1 -1.0489 0 0.611 0 1 0 0.0490427553060029 0 0.0387434917372651 1 #
vertex $-1 $111 $170 #
ellipse-curve $-1 -1.0489 0.125 0.611 0 -1 0 0.00251753493621587 0 0.0624492755590081 1 #
pid_name-sg-attrib $-1 $-1 $-1 $73 7 114 119 105 108 115 111 110 784252905 36 1 #
face $171 $172 $167 $3 $-1 $8 reversed single #
cone-surface $-1 -1.0489 0.125 0.611 0 -1 0 0.0625 0 0 1 0 1 0 #
pid_name-sg-attrib $-1 $-1 $-1 $77 7 114 119 105 108 115 111 110 784252905 7 1 #
face $173 $174 $175 $3 $-1 $176 reversed single #
loop $-1 $177 $178 $77 #
cone-surface $-1 -0.7009 -0.882925 0.166 0 -1 0 -1 0 0 1 0.707106781186548 0.707106781186547 0 #
loop $-1 $-1 $179 $45 #
coedge $-1 $124 $124 $180 $181 0 $78 $-1 #
coedge $-1 $125 $125 $182 $183 0 $80 $-1 #
coedge $-1 $126 $126 $81 $127 1 $184 $-1 #
edge $-1 $185 $185 $126 $186 0 #
coedge $-1 $128 $128 $82 $129 1 $187 $-1 #
edge $-1 $188 $188 $128 $189 1 #
loop $-1 $87 $83 $93 #
vertex $-1 $84 $190 #
ellipse-curve $-1 0.15 0 -0.145 0 -1 0 -0.07725 0 0 1 #
loop $-1 $90 $85 $103 #
vertex $-1 $86 $191 #
ellipse-curve $-1 -2.106 0.125 -0.632 0 -1 0 0.0624500000000001 0 0 1 #
point $-1 -2.04355 0 -0.632 #
point $-1 0.06245 0.125 0 #
pid_name-sg-attrib $-1 $-1 $-1 $93 7 114 119 105 108 115 111 110 784252905 67 1 #
loop $-1 $192 $193 $93 #
plane-surface $-1 0 0 0 0 1 0 0 0 1 0 #
coedge $-1 $96 $95 $194 $195 1 $97 $-1 #
face $196 $73 $97 $3 $-1 $197 forward single #
coedge $-1 $198 $99 $199 $200 1 $62 $-1 #
coedge $-1 $110 $201 $99 $145 0 $167 $-1 #
edge $-1 $202 $114 $99 $203 0 #
coedge $-1 $100 $204 $205 $206 1 $62 $-1 #
coedge $-1 $207 $194 $100 $148 0 $208 $-1 #
edge $-1 $149 $209 $100 $210 0 #
vertex $-1 $195 $211 #
straight-curve $-1 -2.102 0.125 0.781 1 0 0 #
loop $-1 $212 $213 $103 #
coedge $-1 $152 $152 $214 $215 1 $102 $-1 #
pid_name-sg-attrib $-1 $-1 $-1 $103 7 114 119 105 108 115 111 110 784252905 64 1 #
face $216 $217 $218 $3 $-1 $219 reversed single #
loop $-1 $220 $221 $103 #
plane-surface $-1 0 0.125 0 0 1 0 0 0 1 0 #
coedge $-1 $222 $105 $223 $224 1 $67 $-1 #
coedge $-1 $194 $207 $105 $159 0 $208 $-1 #
edge $-1 $225 $160 $105 $226 1 #
vertex $-1 $195 $227 #
straight-curve $-1 -2.102 0 0.781 1 0 0 #
coedge $-1 $107 $228 $229 $230 1 $67 $-1 #
coedge $-1 $201 $110 $107 $164 0 $167 $-1 #
edge $-1 $112 $231 $107 $232 1 #
loop $-1 $233 $234 $93 #
coedge $-1 $166 $166 $235 $236 1 $108 $-1 #
loop $-1 $-1 $163 $117 #
straight-curve $-1 -0.999857244693997 0 0.649743491737265 0 1 0 #
point $-1 -0.999857244693997 0 0.649743491737265 #
point $-1 -0.999857244693997 0.125 0.649743491737265 #
pid_name-sg-attrib $-1 $-1 $-1 $117 7 114 119 105 108 115 111 110 784252905 37 1 #
face $237 $238 $239 $3 $-1 $240 reversed single #
pid_name-sg-attrib $-1 $-1 $-1 $120 7 114 119 105 108 115 111 110 784252905 8 1 #
face $241 $242 $243 $3 $-1 $244 reversed single #
loop $-1 $245 $246 $120 #
cone-surface $-1 -0.7009 0.13125 0.166 0 -1 0 -0.107075 0 0 1 0 1 0 #
loop $-1 $-1 $247 $77 #
coedge $-1 $178 $178 $246 $248 0 $121 $-1 #
coedge $-1 $179 $179 $249 $250 0 $123 $-1 #
coedge $-1 $180 $180 $124 $181 1 $251 $-1 #
edge $-1 $252 $252 $180 $253 0 #
coedge $-1 $182 $182 $125 $183 1 $254 $-1 #
edge $-1 $255 $255 $182 $256 1 #
loop $-1 $130 $126 $93 #
vertex $-1 $127 $257 #
ellipse-curve $-1 -2.102 0 0.643 0 -1 0 -0.0772499999999998 0 0 1 #
loop $-1 $133 $128 $103 #
vertex $-1 $129 $258 #
ellipse-curve $-1 0.15 0.125 -0.145 0 -1 0 0.07725 0 0 1 #
point $-1 0.22725 0 -0.145 #
point $-1 -2.04355 0.125 -0.632 #
loop $-1 $259 $260 $93 #
coedge $-1 $193 $193 $261 $262 1 $139 $-1 #
coedge $-1 $147 $158 $141 $195 0 $208 $-1 #
edge $-1 $160 $149 $141 $263 0 #
pid_name-sg-attrib $-1 $-1 $-1 $142 7 114 119 105 108 115 111 110 784252905 35 1 #
plane-surface $-1 -2.24 0 0.781 0 0 1 1 0 0 0 #
coedge $-1 $264 $143 $265 $266 1 $62 $-1 #
coedge $-1 $267 $268 $143 $200 0 $269 $-1 #
edge $-1 $270 $202 $143 $271 0 #
coedge $-1 $144 $163 $267 $272 0 $167 $-1 #
vertex $-1 $272 $273 #
straight-curve $-1 0.102313789981721 0.125 0.0881592998743801 -0.891006524188368 0 0.453990499739547 #
coedge $-1 $146 $274 $275 $276 1 $62 $-1 #
coedge $-1 $277 $278 $146 $206 0 $279 $-1 #
edge $-1 $209 $280 $146 $281 1 #
coedge $-1 $158 $147 $278 $282 0 $208 $-1 #
loop $-1 $-1 $147 $283 #
vertex $-1 $282 $284 #
ellipse-curve $-1 -2.102 0.125 0.643 0 -1 0 0 0 0.138 1 #
point $-1 -2.102 0.125 0.781 #
loop $-1 $285 $286 $103 #
coedge $-1 $213 $213 $287 $288 1 $151 $-1 #
coedge $-1 $214 $214 $152 $215 0 $289 $-1 #
edge $-1 $290 $290 $152 $291 1 #
pid_name-sg-attrib $-1 $-1 $-1 $154 7 114 119 105 108 115 111 110 784252905 65 1 #
face $292 $93 $293 $3 $-1 $294 reversed single #
loop $-1 $295 $296 $154 #
cone-surface $-1 -0.6589 0.13125 -0.745 0 -1 0 -0.015 0 0 1 0 1 0 #
loop $-1 $297 $298 $103 #
coedge $-1 $221 $221 $299 $300 1 $155 $-1 #
coedge $-1 $301 $157 $302 $303 1 $67 $-1 #
coedge $-1 $278 $277 $157 $224 0 $279 $-1 #
edge $-1 $304 $225 $157 $305 0 #
vertex $-1 $282 $306 #
ellipse-curve $-1 -2.102 0 0.643 0 -1 0 0 0 0.138 1 #
point $-1 -2.102 0 0.781 #
coedge $-1 $162 $307 $308 $309 1 $67 $-1 #
coedge $-1 $268 $267 $162 $230 0 $269 $-1 #
edge $-1 $231 $310 $162 $311 1 #
vertex $-1 $272 $312 #
straight-curve $-1 0.102313789981721 0 0.0881592998743801 -0.891006524188368 0 0.453990499739547 #
loop $-1 $313 $314 $93 #
coedge $-1 $234 $234 $315 $316 1 $165 $-1 #
coedge $-1 $235 $235 $166 $236 0 $317 $-1 #
edge $-1 $318 $318 $166 $319 0 #
pid_name-sg-attrib $-1 $-1 $-1 $172 7 114 119 105 108 115 111 110 784252905 38 1 #
face $320 $321 $322 $3 $-1 $323 reversed single #
loop $-1 $324 $325 $172 #
cone-surface $-1 -1.2819 -0.882925 -0.069 0 -1 0 -1 0 0 1 0.707106781186548 0.707106781186547 0 #
pid_name-sg-attrib $-1 $-1 $-1 $174 7 114 119 105 108 115 111 110 784252905 9 1 #
face $326 $327 $328 $3 $-1 $329 reversed single #
loop $-1 $330 $331 $174 #
plane-surface $-1 -0.7009 0.1105 0.166 0 -1 0 0 0 -1 0 #
loop $-1 $-1 $332 $120 #
coedge $-1 $246 $246 $178 $248 1 $175 $-1 #
coedge $-1 $247 $247 $333 $334 0 $177 $-1 #
edge $-1 $335 $335 $246 $336 1 #
coedge $-1 $249 $249 $179 $250 1 $337 $-1 #
edge $-1 $338 $338 $249 $339 1 #
loop $-1 $184 $180 $93 #
vertex $-1 $181 $340 #
ellipse-curve $-1 -2.102 0 -0.839 0 -1 0 -0.0772499999999998 0 0 1 #
loop $-1 $187 $182 $103 #
vertex $-1 $183 $341 #
ellipse-curve $-1 -2.102 0.125 0.643 0 -1 0 0.0772499999999998 0 0 1 #
point $-1 -2.02475 0 0.643 #
point $-1 0.22725 0.125 -0.145 #
loop $-1 $342 $343 $93 #
coedge $-1 $260 $260 $344 $345 1 $192 $-1 #
coedge $-1 $261 $261 $193 $262 0 $293 $-1 #
edge $-1 $346 $346 $193 $347 0 #
straight-curve $-1 -2.102 0 0.781 0 1 0 #
coedge $-1 $274 $198 $348 $349 1 $62 $-1 #
coedge $-1 $350 $351 $198 $266 0 $352 $-1 #
edge $-1 $353 $270 $198 $354 1 #
coedge $-1 $229 $199 $201 $272 1 $269 $-1 #
coedge $-1 $199 $229 $350 $355 0 $269 $-1 #
loop $-1 $-1 $268 $356 #
vertex $-1 $355 $357 #
straight-curve $-1 0.244115773688625 0.125 -0.0440731891765544 -0.731353701619171 0 0.681998360062498 #
edge $-1 $231 $202 $267 $358 0 #
point $-1 0.102313789981721 0.125 0.0881592998743801 #
coedge $-1 $204 $264 $359 $360 1 $62 $-1 #
coedge $-1 $361 $362 $204 $276 0 $363 $-1 #
edge $-1 $280 $364 $204 $365 0 #
coedge $-1 $223 $205 $362 $366 1 $279 $-1 #
coedge $-1 $205 $223 $207 $282 1 $279 $-1 #
loop $-1 $-1 $278 $367 #
vertex $-1 $366 $368 #
straight-curve $-1 -2.24 0.125 -0.839 0 0 1 #
edge $-1 $209 $225 $278 $369 1 #
face $370 $142 $208 $3 $-1 $371 forward single #
point $-1 -2.24 0.125 0.643 #
loop $-1 $372 $373 $103 #
coedge $-1 $286 $286 $374 $375 1 $212 $-1 #
coedge $-1 $287 $287 $213 $288 0 $376 $-1 #
edge $-1 $377 $377 $213 $378 1 #
loop $-1 $-1 $214 $379 #
vertex $-1 $215 $380 #
ellipse-curve $-1 -1.1219 0.125 0.423 0 -1 0 0.02345 0 0 1 #
pid_name-sg-attrib $-1 $-1 $-1 $217 7 114 119 105 108 115 111 110 784252905 66 1 #
loop $-1 $381 $261 $217 #
cone-surface $-1 -0.6589 -0.965 -0.745 0 -1 0 -1 0 0 1 0.707106781186547 0.707106781186548 0 #
loop $-1 $-1 $299 $154 #
coedge $-1 $296 $296 $382 $383 1 $218 $-1 #
loop $-1 $384 $385 $103 #
coedge $-1 $298 $298 $386 $387 1 $220 $-1 #
coedge $-1 $299 $299 $221 $300 0 $295 $-1 #
edge $-1 $388 $388 $221 $389 1 #
coedge $-1 $307 $222 $390 $391 1 $67 $-1 #
coedge $-1 $362 $361 $222 $303 0 $363 $-1 #
edge $-1 $392 $304 $222 $393 1 #
vertex $-1 $366 $394 #
straight-curve $-1 -2.24 0 -0.839 0 0 1 #
point $-1 -2.24 0 0.643 #
coedge $-1 $228 $301 $395 $396 1 $67 $-1 #
coedge $-1 $351 $350 $228 $309 0 $352 $-1 #
edge $-1 $310 $397 $228 $398 0 #
vertex $-1 $355 $399 #
straight-curve $-1 0.244115773688625 0 -0.0440731891765545 -0.73135370161917 0 0.681998360062498 #
point $-1 0.102313789981721 0 0.0881592998743801 #
loop $-1 $400 $401 $93 #
coedge $-1 $314 $314 $402 $403 1 $233 $-1 #
coedge $-1 $315 $315 $234 $316 0 $404 $-1 #
edge $-1 $405 $405 $234 $406 0 #
loop $-1 $289 $235 $379 #
vertex $-1 $236 $407 #
ellipse-curve $-1 -1.1219 0 0.423 0 -1 0 -0.02345 0 0 1 #
pid_name-sg-attrib $-1 $-1 $-1 $238 7 114 119 105 108 115 111 110 784252905 39 1 #
face $408 $409 $410 $3 $-1 $411 reversed single #
loop $-1 $412 $413 $238 #
cone-surface $-1 -1.2819 0.13125 -0.069 0 -1 0 -0.107075 0 0 1 0 1 0 #
loop $-1 $-1 $414 $172 #
coedge $-1 $325 $325 $413 $415 0 $239 $-1 #
pid_name-sg-attrib $-1 $-1 $-1 $242 7 114 119 105 108 115 111 110 784252905 10 1 #
face $416 $417 $418 $3 $-1 $419 reversed single #
loop $-1 $420 $421 $242 #
cone-surface $-1 -0.7009 0.13125 0.166 0 -1 0 -0.125 0 0 1 0 1 0 #
loop $-1 $-1 $422 $174 #
coedge $-1 $331 $331 $423 $424 1 $243 $-1 #
coedge $-1 $332 $332 $422 $425 0 $245 $-1 #
coedge $-1 $333 $333 $247 $334 1 $426 $-1 #
edge $-1 $427 $427 $333 $428 0 #
vertex $-1 $248 $429 #
ellipse-curve $-1 -0.7009 0.01 0.166 -1.29608104672561e-16 -1 0 0.107075 -1.38777878078145e-17 0 1 #
loop $-1 $254 $249 $103 #
vertex $-1 $250 $430 #
ellipse-curve $-1 -2.102 0.125 -0.839 0 -1 0 0.0772499999999998 0 0 1 #
point $-1 -2.02475 0 -0.839 #
point $-1 -2.02475 0.125 0.643 #
loop $-1 $431 $432 $93 #
coedge $-1 $343 $343 $433 $434 1 $259 $-1 #
coedge $-1 $344 $344 $260 $345 0 $435 $-1 #
edge $-1 $436 $436 $260 $437 0 #
vertex $-1 $262 $438 #
ellipse-curve $-1 -0.6589 0 -0.745 0 -1 0 0.035 0 0 1 #
coedge $-1 $439 $440 $264 $349 0 $441 $-1 #
edge $-1 $442 $353 $264 $443 0 #
coedge $-1 $308 $265 $268 $355 1 $352 $-1 #
coedge $-1 $265 $308 $439 $444 0 $352 $-1 #
loop $-1 $-1 $351 $445 #
vertex $-1 $444 $446 #
ellipse-curve $-1 0.15 0.125 -0.145 -1.37168529365577e-16 1 -1.47095238891746e-16 0.0941157736886248 2.77555756156289e-17 0.100926810823446 1 #
edge $-1 $310 $270 $350 $447 0 #
face $448 $445 $269 $3 $-1 $449 reversed single #
point $-1 0.244115773688625 0.125 -0.0440731891765544 #
straight-curve $-1 0.102313789981721 0 0.0881592998743801 0 1 0 #
coedge $-1 $450 $451 $274 $360 0 $452 $-1 #
edge $-1 $364 $442 $274 $453 1 #
coedge $-1 $302 $275 $451 $454 0 $363 $-1 #
coedge $-1 $275 $302 $277 $366 0 $363 $-1 #
loop $-1 $-1 $275 $455 #
vertex $-1 $454 $456 #
ellipse-curve $-1 -2.102 0.125 -0.839 0 -1 0 -0.138 0 0 1 #
edge $-1 $304 $280 $277 $457 0 #
face $458 $283 $279 $3 $-1 $459 forward single #
point $-1 -2.24 0.125 -0.839 #
straight-curve $-1 -2.24 0 0.643 0 1 0 #
pid_name-sg-attrib $-1 $-1 $-1 $283 7 114 119 105 108 115 111 110 784252905 34 1 #
cone-surface $-1 -2.102 0 0.643 0 -1 0 4.44089209850063e-16 0 0.138 1 0 1 0 #
loop $-1 $460 $461 $103 #
coedge $-1 $373 $373 $462 $463 1 $285 $-1 #
coedge $-1 $374 $374 $286 $375 0 $464 $-1 #
edge $-1 $465 $465 $286 $466 1 #
loop $-1 $-1 $287 $467 #
vertex $-1 $288 $468 #
ellipse-curve $-1 -0.9159 0.125 0.46 0 -1 0 0.02345 0 0 1 #
face $469 $356 $317 $3 $-1 $470 reversed single #
point $-1 -1.09845 0.125 0.423 #
loop $-1 $-1 $382 $217 #
coedge $-1 $382 $382 $296 $383 0 $381 $-1 #
edge $-1 $471 $471 $296 $472 0 #
loop $-1 $473 $474 $103 #
coedge $-1 $385 $385 $475 $476 1 $297 $-1 #
coedge $-1 $386 $386 $298 $387 0 $477 $-1 #
edge $-1 $478 $478 $298 $479 1 #
vertex $-1 $300 $480 #
ellipse-curve $-1 -0.6589 0.125 -0.745 0 -1 0 0.015 0 0 1 #
coedge $-1 $451 $450 $301 $391 0 $452 $-1 #
edge $-1 $481 $392 $301 $482 0 #
vertex $-1 $454 $483 #
ellipse-curve $-1 -2.102 0 -0.839 0 -1 0 -0.138 0 0 1 #
point $-1 -2.24 0 -0.839 #
coedge $-1 $440 $439 $307 $396 0 $441 $-1 #
edge $-1 $397 $481 $307 $484 1 #
vertex $-1 $444 $485 #
ellipse-curve $-1 0.15 0 -0.145 0 1 0 0.0941157736886248 0 0.100926810823446 1 #
point $-1 0.244115773688625 0 -0.0440731891765544 #
loop $-1 $486 $487 $93 #
coedge $-1 $401 $401 $488 $489 1 $313 $-1 #
coedge $-1 $402 $402 $314 $403 0 $490 $-1 #
edge $-1 $491 $491 $314 $492 0 #
loop $-1 $376 $315 $467 #
vertex $-1 $316 $493 #
ellipse-curve $-1 -0.9159 0 0.46 0 -1 0 -0.02345 0 0 1 #
point $-1 -1.09845 0 0.423 #
pid_name-sg-attrib $-1 $-1 $-1 $321 7 114 119 105 108 115 111 110 784252905 40 1 #
face $494 $495 $496 $3 $-1 $497 reversed single #
loop $-1 $498 $499 $321 #
plane-surface $-1 -1.2819 0.1105 -0.069 0 -1 0 0 0 -1 0 #
loop $-1 $-1 $500 $238 #
coedge $-1 $413 $413 $325 $415 1 $322 $-1 #
coedge $-1 $414 $414 $501 $502 0 $324 $-1 #
edge $-1 $503 $503 $413 $504 1 #
pid_name-sg-attrib $-1 $-1 $-1 $327 7 114 119 105 108 115 111 110 784252905 11 1 #
face $505 $506 $507 $3 $-1 $508 reversed single #
loop $-1 $509 $510 $327 #
cone-surface $-1 -0.6105 -0.779925 -0.23 0 -1 0 1 0 0 1 0.707106781186548 0.707106781186547 0 #
loop $-1 $-1 $423 $242 #
coedge $-1 $421 $421 $511 $512 0 $328 $-1 #
coedge $-1 $422 $422 $332 $425 1 $330 $-1 #
coedge $-1 $423 $423 $331 $424 0 $420 $-1 #
edge $-1 $513 $513 $331 $514 1 #
edge $-1 $515 $515 $422 $516 1 #
loop $-1 $251 $333 $93 #
vertex $-1 $334 $517 #
ellipse-curve $-1 -0.7009 0 0.166 0 -1 0 -0.117075 0 0 1 #
point $-1 -0.593825 0.01 0.166 #
point $-1 -2.02475 0.125 -0.839 #
loop $-1 $518 $519 $93 #
coedge $-1 $432 $432 $520 $521 1 $342 $-1 #
coedge $-1 $433 $433 $343 $434 0 $522 $-1 #
edge $-1 $523 $523 $343 $524 0 #
loop $-1 $477 $344 $525 #
vertex $-1 $345 $526 #
ellipse-curve $-1 -1.2729 0 -0.634 0 -1 0 -0.0625 0 0 1 #
point $-1 -0.6939 0 -0.745 #
coedge $-1 $395 $348 $351 $444 1 $441 $-1 #
coedge $-1 $348 $395 $450 $527 0 $441 $-1 #
loop $-1 $-1 $440 $528 #
vertex $-1 $527 $529 #
straight-curve $-1 -0.626849100931645 0.125 -0.977 0.766044443118978 0 0.642787609686539 #
edge $-1 $397 $353 $439 $530 0 #
face $531 $528 $352 $3 $-1 $532 forward single #
point $-1 0.238704690136742 0.125 -0.250714133150419 #
straight-curve $-1 0.244115773688625 0 -0.0440731891765544 0 1 0 #
pid_name-sg-attrib $-1 $-1 $-1 $356 7 114 119 105 108 115 111 110 784252905 28 1 #
plane-surface $-1 0.244115773688625 -0.0125 -0.0440731891765544 -0.681998360062498 0 -0.731353701619171 -0.731353701619171 0 0.681998360062498 0 #
coedge $-1 $390 $359 $440 $527 1 $452 $-1 #
coedge $-1 $359 $390 $361 $454 1 $452 $-1 #
loop $-1 $-1 $390 $533 #
straight-curve $-1 -0.626849100931645 0.125 -0.977 -1 0 0 #
edge $-1 $364 $392 $451 $534 1 #
face $535 $367 $363 $3 $-1 $536 forward single #
point $-1 -2.102 0.125 -0.977 #
straight-curve $-1 -2.24 0 -0.839 0 1 0 #
pid_name-sg-attrib $-1 $-1 $-1 $367 7 114 119 105 108 115 111 110 784252905 33 1 #
plane-surface $-1 -2.24 0 -0.977 -1 0 0 0 0 1 0 #
loop $-1 $537 $538 $103 #
coedge $-1 $461 $461 $539 $540 1 $372 $-1 #
coedge $-1 $462 $462 $373 $463 0 $541 $-1 #
edge $-1 $542 $542 $373 $543 1 #
loop $-1 $544 $374 $545 #
vertex $-1 $375 $546 #
ellipse-curve $-1 -0.3949 0.125 0.114 0 -1 0 0.05625 0 0 1 #
face $547 $379 $404 $3 $-1 $548 reversed single #
point $-1 -0.89245 0.125 0.46 #
pid_name-sg-attrib $-1 $-1 $-1 $379 7 114 119 105 108 115 111 110 784252905 27 1 #
cone-surface $-1 -1.1219 0.125 0.423 0 -1 0 0.02345 0 0 1 0 1 0 #
vertex $-1 $383 $549 #
ellipse-curve $-1 -0.6589 0.02 -0.745 0 1 0 -0.015 0 0 1 #
loop $-1 $550 $551 $103 #
coedge $-1 $474 $474 $552 $553 1 $384 $-1 #
coedge $-1 $475 $475 $385 $476 0 $554 $-1 #
edge $-1 $555 $555 $385 $556 1 #
loop $-1 $-1 $386 $525 #
vertex $-1 $387 $557 #
ellipse-curve $-1 -1.2729 0.125 -0.634 0 -1 0 0.0625 0 0 1 #
point $-1 -0.6439 0.125 -0.745 #
vertex $-1 $527 $558 #
straight-curve $-1 -0.626849100931645 0 -0.977 -1 0 0 #
point $-1 -2.102 0 -0.977 #
straight-curve $-1 -0.626849100931645 0 -0.977 0.766044443118978 0 0.642787609686539 #
point $-1 0.238704690136742 0 -0.250714133150419 #
loop $-1 $559 $560 $93 #
coedge $-1 $487 $487 $561 $562 1 $400 $-1 #
coedge $-1 $488 $488 $401 $489 0 $563 $-1 #
edge $-1 $564 $564 $401 $565 0 #
loop $-1 $566 $402 $567 #
vertex $-1 $403 $568 #
ellipse-curve $-1 -0.3949 -2.77555756156289e-17 0.114 2.53475576398438e-16 -1 0 0.1095 2.77555756156289e-17 0 1 #
point $-1 -0.89245 0 0.46 #
pid_name-sg-attrib $-1 $-1 $-1 $409 7 114 119 105 108 115 111 110 784252905 41 1 #
face $569 $570 $571 $3 $-1 $572 reversed single #
loop $-1 $573 $574 $409 #
cone-surface $-1 -1.2819 0.13125 -0.069 0 -1 0 -0.125 0 0 1 0 1 0 #
loop $-1 $-1 $575 $321 #
coedge $-1 $499 $499 $576 $577 1 $410 $-1 #
coedge $-1 $500 $500 $575 $578 0 $412 $-1 #
coedge $-1 $501 $501 $414 $502 1 $579 $-1 #
edge $-1 $580 $580 $501 $581 0 #
vertex $-1 $415 $582 #
ellipse-curve $-1 -1.2819 0.01 -0.069 -1.29608104672561e-16 -1 -1.67982607968135e-32 0.107075 -1.38777878078145e-17 1.38777878078145e-17 1 #
pid_name-sg-attrib $-1 $-1 $-1 $417 7 114 119 105 108 115 111 110 784252905 12 1 #
face $583 $584 $585 $3 $-1 $586 reversed single #
loop $-1 $587 $588 $417 #
cone-surface $-1 -0.6105 0.125 -0.23 0 -1 0 0.200075 0 0 1 0 1 0 #
loop $-1 $-1 $589 $327 #
coedge $-1 $510 $510 $590 $591 0 $418 $-1 #
coedge $-1 $511 $511 $421 $512 1 $592 $-1 #
edge $-1 $593 $593 $511 $594 1 #
vertex $-1 $424 $595 #
ellipse-curve $-1 -0.7009 0.1105 0.166 0 1 0 -0.125 0 0 1 #
vertex $-1 $425 $596 #
ellipse-curve $-1 -0.7009 0.1105 0.166 0 -1 0 -0.107075 0 0 1 #
point $-1 -0.583825 0 0.166 #
loop $-1 $597 $598 $93 #
coedge $-1 $519 $519 $599 $600 1 $431 $-1 #
coedge $-1 $520 $520 $432 $521 0 $601 $-1 #
edge $-1 $602 $602 $432 $603 0 #
loop $-1 $-1 $433 $604 #
vertex $-1 $434 $605 #
ellipse-curve $-1 -0.5009 -1.38777878078145e-17 -0.587 -1.73309869594935e-16 -1 0 -0.080075 1.38777878078145e-17 0 1 #
face $606 $103 $435 $3 $-1 $607 reversed single #
point $-1 -1.2104 0 -0.634 #
edge $-1 $481 $442 $450 $608 0 #
face $609 $533 $441 $3 $-1 $610 reversed single #
point $-1 -0.626849100931645 0.125 -0.977 #
straight-curve $-1 0.238704690136742 0 -0.250714133150419 0 1 0 #
pid_name-sg-attrib $-1 $-1 $-1 $445 7 114 119 105 108 115 111 110 784252905 29 1 #
cone-surface $-1 0.15 -0.0125 -0.145 0 1 0 -0.138 0 0 1 0 1 0 #
face $611 $455 $452 $3 $-1 $612 forward single #
straight-curve $-1 -2.102 0 -0.977 0 1 0 #
pid_name-sg-attrib $-1 $-1 $-1 $455 7 114 119 105 108 115 111 110 784252905 32 1 #
cone-surface $-1 -2.102 0 -0.839 0 -1 0 -0.138 0 0 1 0 1 0 #
loop $-1 $592 $613 $103 #
coedge $-1 $538 $538 $614 $615 1 $460 $-1 #
coedge $-1 $539 $539 $461 $540 0 $616 $-1 #
edge $-1 $617 $617 $461 $618 1 #
loop $-1 $619 $462 $620 #
vertex $-1 $463 $621 #
ellipse-curve $-1 -0.2669 0.125 -0.446 0 -1 0 0.05625 0 0 1 #
loop $-1 $-1 $622 $545 #
face $623 $467 $464 $3 $-1 $624 reversed single #
point $-1 -0.33865 0.125 0.114 #
pid_name-sg-attrib $-1 $-1 $-1 $467 7 114 119 105 108 115 111 110 784252905 26 1 #
cone-surface $-1 -0.9159 0.125 0.46 0 -1 0 0.02345 0 0 1 0 1 0 #
point $-1 -0.6739 0.02 -0.745 #
loop $-1 $625 $626 $103 #
coedge $-1 $551 $551 $627 $628 1 $473 $-1 #
coedge $-1 $552 $552 $474 $553 0 $629 $-1 #
edge $-1 $630 $630 $474 $631 1 #
loop $-1 $632 $475 $633 #
vertex $-1 $476 $634 #
ellipse-curve $-1 -0.5009 0.125 -0.587 0 -1 0 0.095 0 0 1 #
point $-1 -1.2104 0.125 -0.634 #
point $-1 -0.626849100931645 0 -0.977 #
loop $-1 $426 $590 $93 #
coedge $-1 $560 $560 $635 $636 1 $486 $-1 #
coedge $-1 $561 $561 $487 $562 0 $637 $-1 #
edge $-1 $638 $638 $487 $639 0 #
loop $-1 $640 $488 $641 #
vertex $-1 $489 $642 #
ellipse-curve $-1 -0.2669 -2.77555756156289e-17 -0.446 2.53475576398438e-16 -1 0 0.1095 2.77555756156289e-17 0 1 #
loop $-1 $-1 $643 $567 #
face $644 $645 $490 $3 $-1 $646 reversed single #
point $-1 -0.5044 0 0.114 #
pid_name-sg-attrib $-1 $-1 $-1 $495 7 114 119 105 108 115 111 110 784252905 42 1 #
face $647 $648 $649 $3 $-1 $650 reversed single #
loop $-1 $651 $652 $495 #
cone-surface $-1 -1.6693 -0.779925 0.053 0 -1 0 1 0 0 1 0.707106781186548 0.707106781186547 0 #
loop $-1 $-1 $576 $409 #
coedge $-1 $574 $574 $653 $654 0 $496 $-1 #
coedge $-1 $575 $575 $500 $578 1 $498 $-1 #
coedge $-1 $576 $576 $499 $577 0 $573 $-1 #
edge $-1 $655 $655 $499 $656 1 #
edge $-1 $657 $657 $575 $658 1 #
loop $-1 $67 $501 $93 #
vertex $-1 $502 $659 #
ellipse-curve $-1 -1.2819 0 -0.069 0 -1 0 -0.117075 0 0 1 #
point $-1 -1.174825 0.01 -0.069 #
pid_name-sg-attrib $-1 $-1 $-1 $506 7 114 119 105 108 115 111 110 784252905 13 1 #
face $660 $661 $662 $3 $-1 $663 reversed single #
loop $-1 $664 $665 $506 #
cone-surface $-1 -0.6105 0.904925 -0.23 0 1 0 1 0 0 1 0.707106781186548 0.707106781186547 0 #
loop $-1 $-1 $666 $417 #
coedge $-1 $588 $588 $667 $668 1 $507 $-1 #
coedge $-1 $589 $589 $666 $669 0 $509 $-1 #
coedge $-1 $590 $590 $510 $591 1 $559 $-1 #
edge $-1 $670 $670 $590 $671 0 #
loop $-1 $337 $511 $103 #
vertex $-1 $512 $672 #
ellipse-curve $-1 -0.7009 0.125 0.166 0 -1 0 0.125 0 0 1 #
point $-1 -0.8259 0.1105 0.166 #
point $-1 -0.807975 0.1105 0.166 #
loop $-1 $673 $674 $93 #
coedge $-1 $598 $598 $675 $676 1 $518 $-1 #
coedge $-1 $599 $599 $519 $600 0 $677 $-1 #
edge $-1 $678 $678 $519 $679 0 #
loop $-1 $629 $520 $680 #
vertex $-1 $521 $681 #
ellipse-curve $-1 -1.1009 0 -0.528 0 -1 0 -0.02345 0 0 1 #
face $682 $683 $684 $3 $-1 $685 reversed single #
point $-1 -0.420825 0 -0.587 #
pid_name-sg-attrib $-1 $-1 $-1 $525 7 114 119 105 108 115 111 110 784252905 63 1 #
cone-surface $-1 -1.2729 0.125 -0.634 0 -1 0 0.0625 0 0 1 0 1 0 #
straight-curve $-1 -0.626849100931645 0 -0.977 0 1 0 #
pid_name-sg-attrib $-1 $-1 $-1 $528 7 114 119 105 108 115 111 110 784252905 30 1 #
plane-surface $-1 -0.626849100931645 -0.0125 -0.977 -0.642787609686539 0 0.766044443118978 0.766044443118978 0 0.642787609686539 0 #
pid_name-sg-attrib $-1 $-1 $-1 $533 7 114 119 105 108 115 111 110 784252905 31 1 #
plane-surface $-1 0.288 0 -0.977 0 0 -1 -1 0 0 0 #
coedge $-1 $613 $613 $665 $686 1 $537 $-1 #
coedge $-1 $614 $614 $538 $615 0 $687 $-1 #
edge $-1 $688 $688 $538 $689 1 #
loop $-1 $690 $539 $691 #
vertex $-1 $540 $692 #
ellipse-curve $-1 -0.8269 0.125 -0.574 0 -1 0 0.05625 0 0 1 #
loop $-1 $-1 $693 $620 #
face $694 $567 $541 $3 $-1 $695 reversed single #
point $-1 -0.21065 0.125 -0.446 #
coedge $-1 $622 $622 $696 $697 0 $544 $-1 #
pid_name-sg-attrib $-1 $-1 $-1 $545 7 114 119 105 108 115 111 110 784252905 25 1 #
cone-surface $-1 -0.3949 0.13125 0.114 0 -1 0 -0.05625 0 0 1 0 1 0 #
loop $-1 $698 $699 $103 #
coedge $-1 $626 $626 $700 $701 1 $550 $-1 #
coedge $-1 $627 $627 $551 $628 0 $702 $-1 #
edge $-1 $703 $703 $551 $704 1 #
loop $-1 $-1 $552 $680 #
vertex $-1 $553 $705 #
ellipse-curve $-1 -1.1009 0.125 -0.528 0 -1 0 0.02345 0 0 1 #
loop $-1 $-1 $706 $633 #
face $707 $525 $554 $3 $-1 $708 reversed single #
point $-1 -0.4059 0.125 -0.587 #
coedge $-1 $635 $635 $560 $636 0 $662 $-1 #
edge $-1 $709 $709 $560 $710 0 #
loop $-1 $711 $561 $712 #
vertex $-1 $562 $713 #
ellipse-curve $-1 -0.8269 -2.77555756156289e-17 -0.574 2.53475576398437e-16 -1 0 0.1095 2.77555756156289e-17 0 1 #
loop $-1 $-1 $714 $641 #
face $715 $716 $563 $3 $-1 $717 reversed single #
point $-1 -0.3764 0 -0.446 #
coedge $-1 $643 $643 $718 $719 0 $566 $-1 #
pid_name-sg-attrib $-1 $-1 $-1 $567 7 114 119 105 108 115 111 110 784252905 23 1 #
face $720 $545 $721 $3 $-1 $722 forward single #
cone-surface $-1 -0.3949 0.13125 0.114 0 -1 0 -0.1095 0 0 1 0 1 0 #
pid_name-sg-attrib $-1 $-1 $-1 $570 7 114 119 105 108 115 111 110 784252905 43 1 #
face $723 $724 $725 $3 $-1 $726 reversed single #
loop $-1 $727 $728 $570 #
cone-surface $-1 -1.6693 0.125 0.053 0 -1 0 0.200075 0 0 1 0 1 0 #
loop $-1 $-1 $729 $495 #
coedge $-1 $652 $652 $730 $731 0 $571 $-1 #
coedge $-1 $653 $653 $574 $654 1 $732 $-1 #
edge $-1 $733 $733 $653 $734 1 #
vertex $-1 $577 $735 #
ellipse-curve $-1 -1.2819 0.1105 -0.069 0 1 0 -0.125 0 0 1 #
vertex $-1 $578 $736 #
ellipse-curve $-1 -1.2819 0.1105 -0.069 0 -1 0 -0.107075 0 0 1 #
point $-1 -1.164825 0 -0.069 #
pid_name-sg-attrib $-1 $-1 $-1 $584 7 114 119 105 108 115 111 110 784252905 14 1 #
face $737 $738 $739 $3 $-1 $740 forward single #
loop $-1 $741 $635 $584 #
cone-surface $-1 -0.9539 0.13125 -0.014 0 -1 0 -0.1095 0 0 1 0 1 0 #
loop $-1 $-1 $667 $506 #
coedge $-1 $665 $665 $613 $686 0 $585 $-1 #
coedge $-1 $666 $666 $589 $669 1 $587 $-1 #
coedge $-1 $667 $667 $588 $668 0 $664 $-1 #
edge $-1 $742 $742 $588 $743 0 #
edge $-1 $744 $744 $666 $745 1 #
vertex $-1 $591 $746 #
ellipse-curve $-1 -0.6105 -5.55111512312578e-17 -0.23 -2.52237424656403e-16 -1 0 -0.220075 5.55111512312579e-17 0 1 #
point $-1 -0.5759 0.125 0.166 #
loop $-1 $747 $748 $93 #
coedge $-1 $674 $674 $749 $750 1 $597 $-1 #
coedge $-1 $675 $675 $598 $676 0 $751 $-1 #
edge $-1 $752 $752 $598 $753 0 #
loop $-1 $702 $599 $754 #
vertex $-1 $600 $755 #
ellipse-curve $-1 -1.2879 0 -0.433 0 -1 0 -0.02345 0 0 1 #
face $756 $604 $601 $3 $-1 $757 reversed single #
point $-1 -1.07745 0 -0.528 #
pid_name-sg-attrib $-1 $-1 $-1 $604 7 114 119 105 108 115 111 110 784252905 59 1 #
face $758 $759 $760 $3 $-1 $761 reversed single #
loop $-1 $522 $762 $604 #
cone-surface $-1 -0.5009 -0.919925 -0.587 0 -1 0 -1 0 0 1 0.707106781186548 0.707106781186547 0 #
edge $-1 $763 $763 $613 $764 1 #
loop $-1 $765 $614 $738 #
vertex $-1 $615 $766 #
ellipse-curve $-1 -0.9539 0.125 -0.014 0 -1 0 0.05625 0 0 1 #
loop $-1 $-1 $767 $691 #
face $768 $641 $616 $3 $-1 $769 reversed single #
point $-1 -0.77065 0.125 -0.574 #
coedge $-1 $693 $693 $770 $771 0 $619 $-1 #
pid_name-sg-attrib $-1 $-1 $-1 $620 7 114 119 105 108 115 111 110 784252905 22 1 #
cone-surface $-1 -0.2669 0.13125 -0.446 0 -1 0 -0.05625 0 0 1 0 1 0 #
coedge $-1 $696 $696 $622 $697 1 $721 $-1 #
edge $-1 $772 $772 $696 $773 1 #
loop $-1 $774 $775 $103 #
coedge $-1 $699 $699 $776 $777 1 $625 $-1 #
coedge $-1 $700 $700 $626 $701 0 $778 $-1 #
edge $-1 $779 $779 $626 $780 1 #
loop $-1 $-1 $627 $754 #
vertex $-1 $628 $781 #
ellipse-curve $-1 -1.2879 0.125 -0.433 0 -1 0 0.02345 0 0 1 #
point $-1 -1.07745 0.125 -0.528 #
coedge $-1 $706 $706 $782 $783 0 $632 $-1 #
pid_name-sg-attrib $-1 $-1 $-1 $633 7 114 119 105 108 115 111 110 784252905 62 1 #
cone-surface $-1 -0.5009 0.13125 -0.587 0 -1 0 -0.095 0 0 1 0 1 0 #
vertex $-1 $636 $784 #
ellipse-curve $-1 -0.9539 -2.77555756156289e-17 -0.014 2.53475576398437e-16 -1 8.03123347881501e-33 0.1095 2.77555756156289e-17 3.46944695195361e-18 1 #
loop $-1 $-1 $785 $712 #
face $786 $787 $637 $3 $-1 $788 reversed single #
point $-1 -0.9364 0 -0.574 #
coedge $-1 $714 $714 $789 $790 0 $640 $-1 #
pid_name-sg-attrib $-1 $-1 $-1 $641 7 114 119 105 108 115 111 110 784252905 20 1 #
face $791 $620 $792 $3 $-1 $793 forward single #
cone-surface $-1 -0.2669 0.13125 -0.446 0 -1 0 -0.1095 0 0 1 0 1 0 #
coedge $-1 $718 $718 $643 $719 1 $794 $-1 #
edge $-1 $795 $795 $718 $796 1 #
pid_name-sg-attrib $-1 $-1 $-1 $645 7 114 119 105 108 115 111 110 784252905 24 1 #
loop $-1 $794 $696 $645 #
plane-surface $-1 -0.3949 0.0625 0.114 0 -1 0 0 0 -1 0 #
pid_name-sg-attrib $-1 $-1 $-1 $648 7 114 119 105 108 115 111 110 784252905 44 1 #
face $797 $798 $799 $3 $-1 $800 reversed single #
loop $-1 $801 $802 $648 #
cone-surface $-1 -1.6693 0.904925 0.053 0 1 0 1 0 0 1 0.707106781186548 0.707106781186547 0 #
loop $-1 $-1 $803 $570 #
coedge $-1 $728 $728 $804 $805 1 $649 $-1 #
coedge $-1 $729 $729 $803 $806 0 $651 $-1 #
coedge $-1 $730 $730 $652 $731 1 $807 $-1 #
edge $-1 $808 $808 $730 $809 0 #
loop $-1 $62 $653 $103 #
vertex $-1 $654 $810 #
ellipse-curve $-1 -1.2819 0.125 -0.069 0 -1 0 0.125 0 0 1 #
point $-1 -1.4069 0.1105 -0.069 #
point $-1 -1.388975 0.1105 -0.069 #
pid_name-sg-attrib $-1 $-1 $-1 $661 7 114 119 105 108 115 111 110 784252905 15 1 #
face $811 $712 $687 $3 $-1 $812 reversed single #
loop $-1 $813 $814 $661 #
plane-surface $-1 -0.9539 0.0625 -0.014 0 -1 0 0 0 -1 0 #
loop $-1 $-1 $815 $584 #
vertex $-1 $668 $816 #
ellipse-curve $-1 -0.6105 0.105 -0.23 -1.38725855882189e-16 -1 0 0.200075 -2.77555756156289e-17 0 1 #
vertex $-1 $669 $817 #
ellipse-curve $-1 -0.6105 0.02 -0.23 1.38725855882189e-16 -1 0 0.200075 2.77555756156289e-17 0 1 #
point $-1 -0.390425 0 -0.23 #
loop $-1 $807 $818 $93 #
coedge $-1 $748 $748 $819 $820 1 $673 $-1 #
coedge $-1 $749 $749 $674 $750 0 $821 $-1 #
edge $-1 $822 $822 $674 $823 0 #
loop $-1 $824 $675 $825 #
vertex $-1 $676 $826 #
ellipse-curve $-1 -1.3089 -2.77555756156289e-17 0.241 2.53475576398438e-16 -1 6.42498678305202e-32 0.1095 2.77555756156289e-17 2.77555756156289e-17 1 #
face $827 $680 $677 $3 $-1 $828 reversed single #
point $-1 -1.26445 0 -0.433 #
pid_name-sg-attrib $-1 $-1 $-1 $680 7 114 119 105 108 115 111 110 784252905 58 1 #
cone-surface $-1 -1.1009 0.125 -0.528 0 -1 0 0.02345 0 0 1 0 1 0 #
pid_name-sg-attrib $-1 $-1 $-1 $683 7 114 119 105 108 115 111 110 784252905 60 1 #
face $829 $633 $830 $3 $-1 $831 reversed single #
loop $-1 $832 $833 $683 #
cone-surface $-1 -0.5009 0.13125 -0.587 0 -1 0 -0.070075 0 0 1 0 1 0 #
coedge $-1 $762 $762 $833 $834 0 $684 $-1 #
vertex $-1 $686 $835 #
ellipse-curve $-1 -0.6105 0.125 -0.23 2.52237424656403e-16 -1 0 -0.220075 -5.55111512312578e-17 0 1 #
loop $-1 $-1 $836 $738 #
point $-1 -0.89765 0.125 -0.014 #
coedge $-1 $767 $767 $837 $838 0 $690 $-1 #
pid_name-sg-attrib $-1 $-1 $-1 $691 7 114 119 105 108 115 111 110 784252905 19 1 #
cone-surface $-1 -0.8269 0.13125 -0.574 0 -1 0 -0.05625 0 0 1 0 1 0 #
coedge $-1 $770 $770 $693 $771 1 $792 $-1 #
edge $-1 $839 $839 $770 $840 1 #
vertex $-1 $697 $841 #
ellipse-curve $-1 -0.3949 0.0625 0.114 2.46716227694479e-16 1 0 -0.05625 1.38777878078145e-17 0 1 #
loop $-1 $842 $843 $103 #
coedge $-1 $775 $775 $844 $845 1 $698 $-1 #
coedge $-1 $776 $776 $699 $777 0 $846 $-1 #
edge $-1 $847 $847 $699 $848 1 #
loop $-1 $849 $700 $850 #
vertex $-1 $701 $851 #
ellipse-curve $-1 -1.3089 0.125 0.241 0 -1 0 0.0562499999999999 0 0 1 #
point $-1 -1.26445 0.125 -0.433 #
coedge $-1 $782 $782 $706 $783 1 $830 $-1 #
edge $-1 $852 $852 $782 $853 1 #
point $-1 -1.0634 0 -0.014 #
coedge $-1 $785 $785 $854 $855 0 $711 $-1 #
pid_name-sg-attrib $-1 $-1 $-1 $712 7 114 119 105 108 115 111 110 784252905 17 1 #
face $856 $691 $857 $3 $-1 $858 forward single #
cone-surface $-1 -0.8269 0.13125 -0.574 0 -1 0 -0.1095 0 0 1 0 1 0 #
coedge $-1 $789 $789 $714 $790 1 $859 $-1 #
edge $-1 $860 $860 $789 $861 1 #
pid_name-sg-attrib $-1 $-1 $-1 $716 7 114 119 105 108 115 111 110 784252905 21 1 #
loop $-1 $859 $770 $716 #
plane-surface $-1 -0.2669 0.0625 -0.446 0 -1 0 0 0 -1 0 #
loop $-1 $-1 $718 $645 #
vertex $-1 $719 $862 #
ellipse-curve $-1 -0.3949 0.0625 0.114 -1.26737788199219e-16 -1 0 -0.1095 1.38777878078145e-17 0 1 #
pid_name-sg-attrib $-1 $-1 $-1 $724 7 114 119 105 108 115 111 110 784252905 45 1 #
face $863 $864 $865 $3 $-1 $866 forward single #
loop $-1 $867 $868 $724 #
cone-surface $-1 -1.4819 0.13125 -0.307 0 -1 0 -0.1095 0 0 1 0 1 0 #
loop $-1 $-1 $804 $648 #
coedge $-1 $802 $802 $869 $870 0 $725 $-1 #
coedge $-1 $803 $803 $729 $806 1 $727 $-1 #
coedge $-1 $804 $804 $728 $805 0 $801 $-1 #
edge $-1 $871 $871 $728 $872 0 #
edge $-1 $873 $873 $803 $874 1 #
loop $-1 $579 $730 $93 #
vertex $-1 $731 $875 #
ellipse-curve $-1 -1.6693 -5.55111512312578e-17 0.053 -2.52237424656403e-16 -1 0 -0.220075 5.55111512312579e-17 0 1 #
point $-1 -1.1569 0.125 -0.069 #
pid_name-sg-attrib $-1 $-1 $-1 $738 7 114 119 105 108 115 111 110 784252905 16 1 #
cone-surface $-1 -0.9539 0.13125 -0.014 0 -1 0 -0.05625 0 0 1 0 1 0 #
loop $-1 $-1 $876 $661 #
coedge $-1 $814 $814 $836 $877 1 $739 $-1 #
coedge $-1 $815 $815 $876 $878 0 $741 $-1 #
point $-1 -0.810575 0.105 -0.23 #
point $-1 -0.410425 0.02 -0.23 #
coedge $-1 $818 $818 $868 $879 1 $747 $-1 #
coedge $-1 $819 $819 $748 $820 0 $880 $-1 #
edge $-1 $881 $881 $748 $882 0 #
loop $-1 $883 $749 $884 #
vertex $-1 $750 $885 #
ellipse-curve $-1 -1.8569 -2.77555756156289e-17 0.413 2.53475576398438e-16 -1 0 0.1095 2.77555756156289e-17 0 1 #
loop $-1 $-1 $886 $825 #
face $887 $888 $751 $3 $-1 $889 reversed single #
point $-1 -1.4184 0 0.241 #
pid_name-sg-attrib $-1 $-1 $-1 $754 7 114 119 105 108 115 111 110 784252905 57 1 #
cone-surface $-1 -1.2879 0.125 -0.433 0 -1 0 0.02345 0 0 1 0 1 0 #
pid_name-sg-attrib $-1 $-1 $-1 $759 7 114 119 105 108 115 111 110 784252905 61 1 #
loop $-1 $890 $782 $759 #
plane-surface $-1 -0.5009 0.1105 -0.587 0 -1 0 0 0 -1 0 #
loop $-1 $-1 $891 $683 #
coedge $-1 $833 $833 $762 $834 1 $760 $-1 #
edge $-1 $892 $892 $833 $893 1 #
point $-1 -0.830575 0.125 -0.23 #
coedge $-1 $836 $836 $814 $877 0 $765 $-1 #
coedge $-1 $837 $837 $767 $838 1 $857 $-1 #
edge $-1 $894 $894 $837 $895 1 #
vertex $-1 $771 $896 #
ellipse-curve $-1 -0.2669 0.0625 -0.446 2.46716227694479e-16 1 0 -0.05625 1.38777878078145e-17 0 1 #
point $-1 -0.45115 0.0625 0.114 #
loop $-1 $732 $869 $103 #
coedge $-1 $843 $843 $897 $898 1 $774 $-1 #
coedge $-1 $844 $844 $775 $845 0 $899 $-1 #
edge $-1 $900 $900 $775 $901 1 #
loop $-1 $902 $776 $903 #
vertex $-1 $777 $904 #
ellipse-curve $-1 -1.8569 0.125 0.413 0 -1 0 0.0562499999999999 0 0 1 #
loop $-1 $-1 $905 $850 #
face $906 $754 $778 $3 $-1 $907 reversed single #
point $-1 -1.25265 0.125 0.241 #
vertex $-1 $783 $908 #
ellipse-curve $-1 -0.5009 0.1105 -0.587 0 1 0 -0.095 0 0 1 #
coedge $-1 $854 $854 $785 $855 1 $909 $-1 #
edge $-1 $910 $910 $854 $911 1 #
pid_name-sg-attrib $-1 $-1 $-1 $787 7 114 119 105 108 115 111 110 784252905 18 1 #
loop $-1 $909 $837 $787 #
plane-surface $-1 -0.8269 0.0625 -0.574 0 -1 0 0 0 -1 0 #
loop $-1 $-1 $789 $716 #
vertex $-1 $790 $912 #
ellipse-curve $-1 -0.2669 0.0625 -0.446 -1.26737788199219e-16 -1 0 -0.1095 1.38777878078145e-17 0 1 #
point $-1 -0.5044 0.0625 0.114 #
pid_name-sg-attrib $-1 $-1 $-1 $798 7 114 119 105 108 115 111 110 784252905 46 1 #
face $913 $914 $915 $3 $-1 $916 reversed single #
loop $-1 $917 $918 $798 #
plane-surface $-1 -1.4819 0.0625 -0.307 0 -1 0 0 0 -1 0 #
loop $-1 $-1 $919 $724 #
coedge $-1 $868 $868 $818 $879 0 $799 $-1 #
coedge $-1 $869 $869 $802 $870 1 $842 $-1 #
edge $-1 $920 $920 $869 $921 1 #
vertex $-1 $805 $922 #
ellipse-curve $-1 -1.6693 0.105 0.053 1.38725855882189e-16 -1 0 0.200075 2.77555756156289e-17 0 1 #
vertex $-1 $806 $923 #
ellipse-curve $-1 -1.6693 0.02 0.053 1.38725855882189e-16 -1 0 0.200075 2.77555756156289e-17 0 1 #
point $-1 -1.449225 0 0.053 #
coedge $-1 $876 $876 $815 $878 1 $813 $-1 #
edge $-1 $924 $924 $814 $925 1 #
edge $-1 $926 $926 $876 $927 1 #
edge $-1 $928 $928 $818 $929 0 #
loop $-1 $930 $819 $914 #
vertex $-1 $820 $931 #
ellipse-curve $-1 -2.0299 -2.77555756156289e-17 -0.135 2.53475576398438e-16 -1 6.42498678305202e-32 0.1095 2.77555756156289e-17 2.77555756156289e-17 1 #
loop $-1 $-1 $932 $884 #
face $933 $934 $821 $3 $-1 $935 reversed single #
point $-1 -1.9664 0 0.413 #
coedge $-1 $886 $886 $936 $937 0 $824 $-1 #
pid_name-sg-attrib $-1 $-1 $-1 $825 7 114 119 105 108 115 111 110 784252905 54 1 #
face $938 $850 $939 $3 $-1 $940 forward single #
cone-surface $-1 -1.3089 0.13125 0.241 0 -1 0 -0.1095 0 0 1 0 1 0 #
loop $-1 $-1 $941 $759 #
coedge $-1 $891 $891 $941 $942 0 $832 $-1 #
vertex $-1 $834 $943 #
ellipse-curve $-1 -0.5009 0.01 -0.587 0 -1 0 0.070075 0 0 1 #
vertex $-1 $838 $944 #
ellipse-curve $-1 -0.8269 0.0625 -0.574 2.46716227694479e-16 1 0 -0.05625 1.38777878078145e-17 0 1 #
point $-1 -0.32315 0.0625 -0.446 #
coedge $-1 $897 $897 $843 $898 0 $915 $-1 #
edge $-1 $945 $945 $843 $946 1 #
loop $-1 $947 $844 $948 #
vertex $-1 $845 $949 #
ellipse-curve $-1 -2.0299 0.125 -0.135 0 -1 0 0.0562499999999999 0 0 1 #
loop $-1 $-1 $950 $903 #
face $951 $825 $846 $3 $-1 $952 reversed single #
point $-1 -1.80065 0.125 0.413 #
coedge $-1 $905 $905 $953 $954 0 $849 $-1 #
pid_name-sg-attrib $-1 $-1 $-1 $850 7 114 119 105 108 115 111 110 784252905 56 1 #
cone-surface $-1 -1.3089 0.13125 0.241 0 -1 0 -0.05625 0 0 1 0 1 0 #
point $-1 -0.5959 0.1105 -0.587 #
loop $-1 $-1 $854 $787 #
vertex $-1 $855 $955 #
ellipse-curve $-1 -0.8269 0.0625 -0.574 -1.26737788199219e-16 -1 0 -0.1095 1.38777878078145e-17 0 1 #
point $-1 -0.3764 0.0625 -0.446 #
pid_name-sg-attrib $-1 $-1 $-1 $864 7 114 119 105 108 115 111 110 784252905 47 1 #
face $956 $957 $880 $3 $-1 $958 reversed single #
loop $-1 $959 $897 $864 #
cone-surface $-1 -1.4819 0.13125 -0.307 0 -1 0 -0.05625 0 0 1 0 1 0 #
loop $-1 $-1 $960 $798 #
coedge $-1 $918 $918 $961 $962 1 $865 $-1 #
coedge $-1 $919 $919 $960 $963 0 $867 $-1 #
vertex $-1 $870 $964 #
ellipse-curve $-1 -1.6693 0.125 0.053 0 -1 0 -0.220075 0 0 1 #
point $-1 -1.869375 0.105 0.053 #
point $-1 -1.469225 0.02 0.053 #
vertex $-1 $877 $965 #
ellipse-curve $-1 -0.9539 0.0625 -0.014 2.4671622769448e-16 1 0 -0.0562499999999999 1.38777878078145e-17 0 1 #
vertex $-1 $878 $966 #
ellipse-curve $-1 -0.9539 0.0625 -0.014 -1.26737788199219e-16 -1 0 -0.1095 1.38777878078145e-17 0 1 #
vertex $-1 $879 $967 #
ellipse-curve $-1 -1.4819 -2.77555756156289e-17 -0.307 2.53475576398438e-16 -1 0 0.1095 2.77555756156289e-17 0 1 #
loop $-1 $-1 $968 $914 #
point $-1 -2.1394 0 -0.135 #
coedge $-1 $932 $932 $969 $970 0 $883 $-1 #
pid_name-sg-attrib $-1 $-1 $-1 $884 7 114 119 105 108 115 111 110 784252905 51 1 #
face $971 $903 $972 $3 $-1 $973 forward single #
cone-surface $-1 -1.8569 0.13125 0.413 0 -1 0 -0.1095 0 0 1 0 1 0 #
coedge $-1 $936 $936 $886 $937 1 $974 $-1 #
edge $-1 $975 $975 $936 $976 1 #
pid_name-sg-attrib $-1 $-1 $-1 $888 7 114 119 105 108 115 111 110 784252905 55 1 #
loop $-1 $974 $953 $888 #
plane-surface $-1 -1.3089 0.0625 0.241 0 -1 0 0 0 -1 0 #
coedge $-1 $941 $941 $891 $942 1 $890 $-1 #
edge $-1 $977 $977 $941 $978 1 #
point $-1 -0.430825 0.01 -0.587 #
point $-1 -0.88315 0.0625 -0.574 #
vertex $-1 $898 $979 #
ellipse-curve $-1 -1.4819 0.125 -0.307 0 -1 0 0.0562499999999999 0 0 1 #
loop $-1 $-1 $980 $948 #
face $981 $884 $899 $3 $-1 $982 reversed single #
point $-1 -1.97365 0.125 -0.135 #
coedge $-1 $950 $950 $983 $984 0 $902 $-1 #
pid_name-sg-attrib $-1 $-1 $-1 $903 7 114 119 105 108 115 111 110 784252905 53 1 #
cone-surface $-1 -1.8569 0.13125 0.413 0 -1 0 -0.05625 0 0 1 0 1 0 #
coedge $-1 $953 $953 $905 $954 1 $939 $-1 #
edge $-1 $985 $985 $953 $986 1 #
point $-1 -0.9364 0.0625 -0.574 #
pid_name-sg-attrib $-1 $-1 $-1 $914 7 114 119 105 108 115 111 110 784252905 48 1 #
face $987 $948 $988 $3 $-1 $989 forward single #
cone-surface $-1 -2.0299 0.13125 -0.135 0 -1 0 -0.1095 0 0 1 0 1 0 #
loop $-1 $-1 $961 $864 #
coedge $-1 $960 $960 $919 $963 1 $917 $-1 #
coedge $-1 $961 $961 $918 $962 0 $959 $-1 #
edge $-1 $990 $990 $918 $991 1 #
edge $-1 $992 $992 $960 $993 1 #
point $-1 -1.889375 0.125 0.053 #
point $-1 -1.01015 0.0625 -0.014 #
point $-1 -1.0634 0.0625 -0.014 #
point $-1 -1.5914 0 -0.307 #
coedge $-1 $968 $968 $994 $995 0 $930 $-1 #
coedge $-1 $969 $969 $932 $970 1 $996 $-1 #
edge $-1 $997 $997 $969 $998 1 #
pid_name-sg-attrib $-1 $-1 $-1 $934 7 114 119 105 108 115 111 110 784252905 52 1 #
loop $-1 $996 $983 $934 #
plane-surface $-1 -1.8569 0.0625 0.413 0 -1 0 0 0 -1 0 #
loop $-1 $-1 $936 $888 #
vertex $-1 $937 $999 #
ellipse-curve $-1 -1.3089 0.0625 0.241 -1.26737788199219e-16 -1 0 -0.1095 1.38777878078145e-17 0 1 #
vertex $-1 $942 $1000 #
ellipse-curve $-1 -0.5009 0.1105 -0.587 0 -1 0 -0.070075 0 0 1 #
point $-1 -1.42565 0.125 -0.307 #
coedge $-1 $980 $980 $1001 $1002 0 $947 $-1 #
pid_name-sg-attrib $-1 $-1 $-1 $948 7 114 119 105 108 115 111 110 784252905 50 1 #
cone-surface $-1 -2.0299 0.13125 -0.135 0 -1 0 -0.05625 0 0 1 0 1 0 #
coedge $-1 $983 $983 $950 $984 1 $972 $-1 #
edge $-1 $1003 $1003 $983 $1004 1 #
vertex $-1 $954 $1005 #
ellipse-curve $-1 -1.3089 0.0625 0.241 2.4671622769448e-16 1 0 -0.0562499999999999 1.38777878078145e-17 0 1 #
pid_name-sg-attrib $-1 $-1 $-1 $957 7 114 119 105 108 115 111 110 784252905 49 1 #
loop $-1 $1006 $1001 $957 #
plane-surface $-1 -2.0299 0.0625 -0.135 0 -1 0 0 0 -1 0 #
vertex $-1 $962 $1007 #
ellipse-curve $-1 -1.4819 0.0625 -0.307 2.4671622769448e-16 1 0 -0.0562499999999999 1.38777878078145e-17 0 1 #
vertex $-1 $963 $1008 #
ellipse-curve $-1 -1.4819 0.0625 -0.307 -1.26737788199219e-16 -1 0 -0.1095 1.38777878078145e-17 0 1 #
coedge $-1 $994 $994 $968 $995 1 $1006 $-1 #
edge $-1 $1009 $1009 $994 $1010 1 #
loop $-1 $-1 $969 $934 #
vertex $-1 $970 $1011 #
ellipse-curve $-1 -1.8569 0.0625 0.413 -1.26737788199219e-16 -1 0 -0.1095 1.38777878078145e-17 0 1 #
point $-1 -1.4184 0.0625 0.241 #
point $-1 -0.570975 0.1105 -0.587 #
coedge $-1 $1001 $1001 $980 $1002 1 $988 $-1 #
edge $-1 $1012 $1012 $1001 $1013 1 #
vertex $-1 $984 $1014 #
ellipse-curve $-1 -1.8569 0.0625 0.413 2.4671622769448e-16 1 0 -0.0562499999999999 1.38777878078145e-17 0 1 #
point $-1 -1.36515 0.0625 0.241 #
loop $-1 $-1 $994 $957 #
point $-1 -1.53815 0.0625 -0.307 #
point $-1 -1.5914 0.0625 -0.307 #
vertex $-1 $995 $1015 #
ellipse-curve $-1 -2.0299 0.0625 -0.135 -1.26737788199219e-16 -1 0 -0.1095 1.38777878078145e-17 0 1 #
point $-1 -1.9664 0.0625 0.413 #
vertex $-1 $1002 $1016 #
ellipse-curve $-1 -2.0299 0.0625 -0.135 2.4671622769448e-16 1 0 -0.0562499999999999 1.38777878078145e-17 0 1 #
point $-1 -1.91315 0.0625 0.413 #
point $-1 -2.1394 0.0625 -0.135 #
point $-1 -2.08615 0.0625 -0.135 #
