**ABCDEFGHIJKLMNOPQRSTUVWXYZabcdefghijklmnopqrstuvwxyz**************************
**PARASOLID !"#$%&'()*+,-./:;<=>?@[\]^_`{|}~0123456789**************************
**PART1;MC=sun;MC_MODEL=Sun-3;MC_ID=unknown;OS=SunOS;OS_RELEASE=unknown;FRU=sdl_
parasolid_test_sun;APPL=unknown;SITE=sdl-cambridge-u.k.;USER=kramer;FORMAT=text;
GUISE=transmit;KEY=intermediate_4;FILE=intermediate_4.xmt_txt;DATE=16-oct-1990;
**PART2;SCH=SCH_210_1012;USFLD_SIZE=0;
**PART3;
**END_OF_HEADER*****************************************************************
T47 : TRANSMIT FILE created by modeller version 22012 SCH_210_10120 12 1 1191 0
 0 0 0 0 1e3 1e-8 2 2 0 0 3 1 4 102 14 2 intermediate_413 4 2 0 1 0 5 6 7 8 9 10
 14 5 989 0 11 0 12 4 8 -16 6 1025 0 13 0 14 9 18 7 1068 0 15 0 16 10 50 8 1095
 0 5 17 0 0 +1.53 1.175 .48 0 1 0 30 9 1113 0 6 18 0 0 +3.06 1.175 .4 0 0 -1 29
 10 1156 0 7 19 0 2.918276427503165 1.175 .5 29 19 1157 0 16 20 10 3.06 1.175 .5
 18 16 1069 0 13 7 21 19 29 20 1158 0 21 22 19 3.06 1.081742430504416 .48 18 21
 1070 0 23 16 24 20 29 22 1160 0 24 25 20 2.918276427503165 1.175 .48 18 24 1072
 0 26 21 27 22 29 25 1161 0 27 28 22 3.06 1.175 1.5 18 27 1073 0 29 24 30 25 29
 28 1162 0 30 31 25 0 1.175 1.5 18 30 1074 0 32 27 33 28 29 31 1165 0 33 34 28 3
.06 0 .48 18 33 1077 0 35 30 36 31 29 34 1166 0 36 37 31 0 0 .48 18 36 1078 0 38
 33 39 34 29 37 927 0 39 40 34 0 1.175 .48 18 39 925 0 41 36 42 37 29 40 868 0 4
2 43 37 3.06 3.908257569495585 .5 18 42 750 0 44 39 45 40 29 43 869 0 45 46 40 3
.06 3.53784271247462 .5 18 45 751 0 47 42 48 43 29 46 870 0 48 49 43 3.06 3.5378
4271247462 1.24 18 48 752 0 50 45 51 46 29 49 871 0 51 52 46 3.06 1.452157287525
38 1.24 18 51 753 0 53 48 54 49 29 52 873 0 54 55 49 3.06 1.45215728752538 .5 18
 54 755 0 56 51 57 52 29 55 876 0 57 58 52 3.26 3.95 .4 18 57 758 0 59 54 60 55
 29 58 877 0 60 61 55 3.26 1.04 .4 18 60 759 0 62 57 63 58 29 61 878 0 63 64 58
 3.06 0 .4 18 63 760 0 65 60 66 61 29 64 879 0 66 67 61 3.06 1.081742430504416 .
4 18 66 761 0 68 63 69 64 29 67 880 0 69 70 64 3.06 3.908257569495585 .4 18 69 7
62 0 71 66 72 67 29 70 881 0 72 73 67 3.06 4.99 .4 18 72 763 0 74 69 75 70 29 73
 882 0 75 76 70 5.26 4.99 .4 18 75 764 0 77 72 78 73 29 76 884 0 78 79 73 5.26 1
.04 .4 18 78 766 0 80 75 81 76 29 79 885 0 81 82 76 5.26 0 .4 18 81 767 0 83 78
 84 79 29 82 886 0 84 85 79 3.06 4.99 1.5 18 84 768 0 86 81 87 82 29 85 507 0 87
 88 82 5.26 3.95 .4 18 87 505 0 89 84 90 85 29 88 480 0 90 91 85 2.7711493070476
45 3.555 .5 18 90 398 0 92 87 93 88 29 91 481 0 93 94 88 2.771149307047645 3.555
 0 18 93 399 0 95 90 96 91 29 94 482 0 96 97 91 2.96 3.555 .5 18 96 400 0 98 93
 99 94 29 97 483 0 99 100 94 2.771149307047645 1.435 .5 18 99 401 0 101 96 102 9
7 29 100 484 0 102 103 97 2.96 1.435 .5 18 102 402 0 104 99 105 100 29 103 486 0
 105 106 100 .56 3.555 0 18 105 404 0 107 102 108 103 29 106 488 0 108 109 103 .
26 1.735 0 18 108 406 0 110 105 111 106 29 109 489 0 111 112 106 .26 3.255 0 18
 111 407 0 113 108 114 109 29 112 492 0 114 115 109 .26 3.255 1.24 18 114 410 0
 116 111 117 112 29 115 493 0 117 118 112 .26 1.735 1.24 18 117 411 0 119 114 12
0 115 29 118 494 0 120 121 115 2.96 3.555 1.24 18 120 412 0 122 117 123 118 29 1
21 495 0 123 124 118 .56 3.555 1.24 18 123 413 0 125 120 126 121 29 124 499 0 12
6 127 121 .56 1.435 0 18 126 417 0 128 123 129 124 29 127 500 0 129 130 124 .56
 1.435 1.24 18 129 418 0 131 126 132 127 29 130 501 0 132 133 127 2.96 1.435 1.2
4 18 132 419 0 134 129 135 130 29 133 259 0 135 136 130 2.771149307047645 1.435
 0 18 135 257 0 137 132 138 133 29 136 229 0 138 139 133 5.26 3.95 0 18 138 163
 0 140 135 141 136 29 139 232 0 141 142 136 5.26 1.04 0 18 141 166 0 143 138 144
 139 29 142 233 0 144 145 139 3.26 3.95 0 18 144 167 0 146 141 147 142 29 145 24
6 0 147 148 142 3.26 1.04 0 18 147 180 0 149 144 150 145 29 148 54 0 150 151 145
 0 4.99 1.5 18 150 18 0 152 147 153 148 29 151 38 0 154 155 148 0 0 0 18 154 8 0
 156 157 158 151 29 155 37 0 157 159 151 0 4.99 0 18 157 10 0 160 153 154 155 29
 159 36 0 153 161 155 5.26 4.99 0 18 153 12 0 162 150 157 159 29 161 35 0 158 0
 159 5.26 0 0 18 158 7 0 163 154 0 161 17 163 164 165 166 158 167 168 15 164 939
 0 38 169 0 17 165 164 65 163 81 170 171 17 166 164 163 38 154 172 173 17 167 17
4 175 176 154 163 168 16 168 9 0 163 177 178 179 16 177 11 0 156 180 168 181 16
 178 3 0 182 168 0 183 30 179 39 0 168 0 183 0 +2.63 0 0 1 0 0 30 183 40 0 178 1
79 184 0 +5.26 2.495 0 0 1 0 30 184 41 0 180 183 181 0 +2.63 4.99 0 -1 0 0 16 18
0 13 0 160 171 177 184 30 181 42 0 177 184 185 0 +0 2.495 0 0 -1 0 30 185 47 0 1
71 181 186 0 +5.26 0 0 0 0 1 16 171 15 0 165 187 180 185 30 186 48 0 187 185 188
 0 +5.26 4.99 0 0 0 1 16 187 17 0 189 190 171 186 30 188 49 0 190 186 191 0 +0 4
.99 0 0 0 1 16 190 19 0 152 173 187 188 30 191 50 0 173 188 192 0 +0 0 0 0 0 1 1
6 173 21 0 172 193 190 191 30 192 57 0 193 191 194 0 +2.63 4.99 1.5 1 0 0 16 193
 25 0 195 196 173 192 30 194 67 0 196 192 197 0 +5.26 2.495 0 0 1 0 16 196 65 0
 162 198 193 194 30 197 227 0 198 194 199 0 +4.51 1.04 0 1 0 0 16 198 161 0 143
 200 196 197 31 199 212 0 200 197 201 0 +3.26 1.54 0 0 0 -1 .5 16 200 146 0 202
 203 198 199 30 201 208 0 203 199 204 0 +3.26 3.95 0 0 0 1 16 203 142 0 205 206
 200 201 30 204 199 0 206 201 207 0 +4.51 3.95 0 -1 0 0 16 206 133 0 146 208 203
 204 30 207 197 0 208 204 209 0 +5.26 3.95 0 0 0 1 16 208 131 0 210 211 206 207
 31 209 256 0 211 207 212 0 +3.26 3.45 0 0 0 -1 .5 16 211 254 0 213 214 208 209
 31 212 285 0 214 209 215 0 +3.26 1.54 .5 0 0 1 .5 16 214 283 0 216 217 211 212
 30 215 318 0 217 212 218 0 +2.771149307047645 1.435 0 0 0 1 16 217 316 0 219 22
0 214 215 30 218 475 0 220 215 221 0 +1.76 1.435 1.24 -1 0 0 16 220 393 0 222 22
3 217 218 30 221 474 0 223 218 224 0 +1.76 1.435 0 1 0 0 16 223 392 0 137 225 22
0 221 30 224 473 0 225 221 226 0 +.56 1.435 0 0 0 -1 16 225 391 0 227 228 223 22
4 30 226 470 0 228 224 229 0 +1.76 3.555 1.24 1 0 0 16 228 388 0 230 231 225 226
 30 229 469 0 231 226 232 0 +.26 2.495 1.24 0 1 0 16 231 387 0 233 234 228 229 3
1 232 468 0 234 229 235 0 +.56 1.735 1.24 0 0 1 .3 16 234 386 0 236 237 231 232
 31 235 467 0 237 232 238 0 +.56 3.255 1.24 0 0 1 .3 16 237 385 0 239 240 234 23
5 31 238 465 0 240 235 241 0 +2.96 1.735 1.24 0 0 1 .3 16 240 383 0 242 243 237
 238 30 241 461 0 243 238 244 0 +.26 2.495 0 0 -1 0 16 243 379 0 110 245 240 241
 31 244 459 0 245 241 246 0 +.56 1.735 0 0 0 -1 .3 16 245 377 0 247 248 243 244
 31 246 458 0 248 244 249 0 +.56 3.255 0 0 0 -1 .3 16 248 376 0 250 251 245 246
 30 249 455 0 251 246 252 0 +.56 3.555 0 0 0 1 16 251 373 0 253 254 248 249 30 2
52 454 0 254 249 255 0 +2.96 3.555 0 0 0 -1 16 254 372 0 256 257 251 252 30 255
 453 0 257 252 258 0 +.26 1.735 0 0 0 1 16 257 371 0 259 260 254 255 30 258 452
 0 260 255 261 0 +.26 3.255 0 0 0 -1 16 260 370 0 262 263 257 258 30 261 450 0 2
63 258 264 0 +2.96 1.435 0 0 0 1 16 263 368 0 265 266 260 261 30 264 449 0 266 2
61 267 0 +4.51 1.435 .5 1 0 0 16 266 367 0 104 268 263 264 30 267 446 0 268 264
 269 0 +1.76 3.555 0 -1 0 0 16 268 364 0 107 270 266 267 30 269 445 0 270 267 27
1 0 +4.51 3.555 .5 -1 0 0 16 270 363 0 92 272 268 269 30 271 444 0 272 269 273 0
 -2.771149307047645 3.555 0 0 0 1 16 272 362 0 95 274 270 271 31 273 440 0 274 2
71 275 0 +2.96 1.735 .5 0 0 1 .3 16 274 358 0 276 277 272 273 30 275 520 0 277 2
73 278 0 +5.26 1.04 0 0 0 -1 16 277 518 0 279 280 274 275 30 278 565 0 280 275 2
81 0 +3.26 1.04 0 0 0 -1 16 280 563 0 282 283 277 278 31 281 574 0 283 278 284 0
 +2.96 3.255 .5 0 0 1 .3 16 283 572 0 98 285 280 281 31 284 578 0 285 281 286 0
 +3.26 3.45 .5 0 0 1 .5 16 285 576 0 287 288 283 284 30 286 603 0 288 284 289 0
 +4.51 3.95 .4 -1 0 0 16 288 601 0 59 290 285 286 31 289 627 0 290 286 291 0 +2.
96 3.255 1.24 0 0 1 .3 16 290 625 0 292 293 288 289 30 291 837 0 293 289 294 0 +
5.26 2.495 .4 0 1 0 16 293 719 0 295 296 290 291 30 294 835 0 296 291 297 0 +5.2
6 2.495 .4 0 1 0 16 296 717 0 298 299 293 294 30 297 833 0 299 294 300 0 +3.06 2
.495 .4 0 -1 0 16 299 715 0 301 302 296 297 30 300 831 0 302 297 303 0 +3.06 2.4
95 .4 0 -1 0 16 302 713 0 304 305 299 300 30 303 829 0 305 300 306 0 +2.63 4.99
 .4 -1 0 0 16 305 711 0 307 308 302 303 30 306 828 0 308 303 309 0 +2.63 0 .4 1
 0 0 16 308 710 0 310 311 305 306 30 309 827 0 311 306 312 0 +4.51 1.04 .4 1 0 0
 16 311 709 0 80 313 308 309 31 312 826 0 313 309 314 0 -3.26 1.54 .4 0 0 -1 .5
 16 313 708 0 62 315 311 312 31 314 824 0 315 312 316 0 -3.26 3.45 .4 0 0 -1 .5
 16 315 706 0 71 317 313 314 30 316 818 0 317 314 318 0 +3.06 4.99 0 0 0 1 16 31
7 700 0 319 320 315 316 30 318 816 0 320 316 321 0 +3.06 2.495 .5 0 -1 0 16 320
 698 0 322 323 317 318 30 321 814 0 323 318 324 0 -3.06 1.45215728752538 0 0 0 1
 16 323 696 0 56 325 320 321 30 324 813 0 325 321 326 0 +3.06 2.495 1.24 0 -1 0
 16 325 695 0 53 327 323 324 30 326 812 0 327 324 328 0 +3.06 3.53784271247462 0
 0 0 1 16 327 694 0 50 329 325 326 30 328 811 0 329 326 330 0 +3.06 2.495 .5 0 -
1 0 16 329 693 0 47 331 327 328 30 330 810 0 331 328 332 0 +3.06 3.9082575694955
85 0 0 0 1 16 331 692 0 44 333 329 330 30 332 924 0 333 330 334 0 +0 2.495 1.5 0
 1 0 16 333 922 0 335 336 331 332 30 334 931 0 336 332 337 0 +0 1.175 0 0 0 -1 1
6 336 929 0 338 339 333 334 30 337 937 0 339 334 340 0 +3.06 0 0 0 0 -1 16 339 9
35 0 341 342 336 337 30 340 946 0 342 337 343 0 +3.06 2.495 1.5 0 1 0 16 342 944
 0 86 344 339 340 30 343 968 0 344 340 345 0 -3.06 1.081742430504416 0 0 0 1 16
 344 966 0 68 346 342 343 30 345 1131 0 346 343 347 0 +1.53 0 .48 1 0 0 16 346 1
043 0 348 349 344 345 30 347 1125 0 349 345 350 0 +1.53 1.175 1.5 1 0 0 16 349 1
037 0 29 351 346 347 30 350 1121 0 351 347 352 0 +1.53 1.175 .48 -1 0 0 16 351 1
033 0 353 354 349 350 30 352 1119 0 354 350 355 0 +0 2.495 .48 0 -1 0 16 354 103
1 0 356 357 351 352 31 355 1118 0 357 352 358 0 -3.26 1.54 .48 0 0 -1 .5 16 357
 1030 0 23 359 354 355 30 358 1117 0 359 355 360 0 +3.06 2.495 .48 0 -1 0 16 359
 1029 0 35 361 357 358 30 360 1115 0 361 358 18 0 +4.51 1.175 .5 -1 0 0 16 361 1
027 0 15 14 359 360 30 18 1114 0 14 360 9 0 -2.918276427503165 1.175 0 0 0 1 16
 14 1026 0 26 6 361 18 17 26 362 23 216 24 363 14 15 362 112 0 216 364 0 17 23 3
62 68 26 21 365 357 17 216 362 26 219 7 366 214 17 363 12 367 368 7 26 14 15 12
 990 0 32 5 0 17 367 12 369 363 16 15 361 17 368 12 363 338 24 353 351 17 338 12
 368 32 39 370 336 17 353 371 356 365 39 368 351 15 371 994 0 365 11 0 17 356 37
1 348 353 36 41 354 17 365 371 353 372 24 23 357 17 372 371 365 348 21 35 359 17
 348 371 372 356 33 38 346 17 35 373 341 374 33 372 359 15 373 649 0 374 375 0 1
7 341 373 376 35 63 377 339 17 374 373 35 376 21 68 344 17 376 373 374 341 66 30
4 302 17 68 362 62 23 66 374 344 17 62 362 282 68 60 378 313 17 282 362 202 62 1
47 379 280 17 378 380 304 381 66 62 313 15 380 663 0 304 382 0 17 304 380 310 37
8 63 376 302 17 381 380 378 295 60 80 311 17 295 380 381 310 78 83 293 17 80 383
 279 379 78 381 311 15 383 130 0 379 384 0 17 279 383 385 80 141 386 277 17 379
 383 80 385 60 282 280 17 385 383 379 279 147 143 198 17 143 174 176 149 141 385
 198 15 174 278 0 107 387 0 17 176 174 167 143 158 182 178 17 149 174 143 137 14
7 202 200 17 137 174 149 128 135 388 223 17 202 362 219 282 135 149 200 17 219 3
62 216 202 99 389 217 17 389 390 388 101 135 219 217 15 390 333 0 388 391 0 17 3
88 390 131 389 126 137 223 17 101 390 389 392 99 104 266 17 392 390 101 393 102
 265 263 17 104 394 276 366 102 101 266 15 394 128 0 322 395 0 17 276 394 322 10
4 54 396 274 17 366 394 104 15 99 216 214 17 15 394 366 322 7 367 361 17 322 394
 15 276 16 397 320 17 397 398 399 13 54 322 320 15 398 979 0 400 401 0 17 399 39
8 402 397 51 56 323 17 13 398 397 400 16 369 6 17 400 398 13 319 27 86 342 17 36
9 12 32 367 27 13 6 17 32 12 338 369 30 29 349 17 29 403 86 404 27 32 349 15 403
 948 0 29 405 0 17 86 403 406 29 84 400 342 17 404 403 29 406 30 335 333 17 406
 403 404 86 150 195 193 17 335 407 408 370 150 404 333 15 407 930 0 370 409 0 17
 408 407 156 335 157 152 190 17 370 407 335 41 30 338 336 17 41 407 370 172 39 3
56 354 17 172 407 41 156 36 166 173 17 156 407 172 408 154 175 177 17 175 174 41
0 167 157 156 177 17 410 174 411 175 153 160 180 17 411 174 146 410 138 162 196
 17 160 412 152 413 157 410 180 15 412 540 0 74 414 0 17 152 412 195 160 150 408
 190 17 413 412 160 77 153 189 187 17 77 412 413 74 75 307 305 17 189 415 89 162
 75 413 187 15 415 522 0 89 416 0 17 89 415 140 189 87 298 296 17 162 415 189 14
0 153 411 196 17 140 415 162 89 138 210 208 17 210 417 59 418 87 140 208 15 417
 122 0 210 419 0 17 59 417 420 210 57 421 288 17 418 417 210 420 138 146 206 17
 420 417 418 59 144 205 203 17 146 174 422 411 144 418 206 17 422 174 107 146 93
 213 211 17 107 174 113 422 105 423 268 17 213 424 205 95 144 422 211 15 424 114
 0 71 425 0 17 205 424 71 213 57 420 203 17 95 424 213 287 93 426 272 17 287 424
 95 44 90 427 285 17 426 428 429 423 90 95 272 15 428 331 0 429 430 0 17 429 428
 122 426 96 92 270 17 423 428 426 431 93 107 268 17 431 428 423 432 105 253 251
 17 432 428 431 122 123 230 228 17 253 433 239 250 123 431 251 15 433 337 0 250
 434 0 17 239 433 262 253 114 125 237 17 250 433 253 262 105 113 248 17 262 433
 250 239 111 116 260 17 113 174 110 107 111 250 248 17 110 174 128 113 108 435 2
43 17 128 174 137 110 126 247 245 17 435 436 116 437 111 110 243 15 436 343 0 43
8 439 0 17 116 436 438 435 114 262 260 17 437 436 435 438 108 259 257 17 438 436
 437 116 117 233 231 17 259 440 236 247 117 437 257 15 440 335 0 247 441 0 17 23
6 440 227 259 129 119 234 17 247 440 259 227 108 128 245 17 227 440 247 236 126
 131 225 17 131 390 393 388 129 227 225 17 393 390 392 131 132 222 220 17 222 44
2 119 134 129 393 220 15 442 351 0 443 444 0 17 119 442 233 222 117 236 234 17 1
34 442 222 53 132 242 240 17 53 442 134 443 51 402 325 17 242 445 56 265 51 134
 240 15 445 327 0 242 446 0 17 56 445 396 242 54 399 323 17 265 445 242 396 132
 392 263 17 396 445 265 56 102 276 274 14 446 326 0 430 447 445 4 448 -14 430 33
0 0 391 446 428 4 449 -14 447 324 0 446 450 451 4 452 -51 448 422 0 446 449 452
 0 +2.96 1.735 0 0 0 1 .3 50 449 424 0 430 453 448 0 +1.76 3.555 0 0 1 0 51 452
 421 0 447 448 454 0 +2.96 3.255 0 0 0 1 .3 50 454 525 0 450 452 455 0 +5.26 2.4
95 0 1 0 0 14 450 524 0 447 456 457 4 454 +50 455 591 0 456 454 458 0 +4.51 2.49
5 .5 0 0 1 14 456 590 0 450 382 459 4 455 -50 458 795 0 382 455 460 0 +4.16 2.49
5 .4 0 0 -1 14 382 662 0 456 461 380 4 458 -50 460 794 0 461 458 462 0 +4.16 2.4
95 .4 0 0 -1 14 461 660 0 382 375 463 4 460 -50 462 788 0 375 460 464 0 +3.06 2.
495 .4 -1 0 0 14 375 648 0 461 401 373 4 462 -50 464 982 0 401 462 17 0 +3.06 2.
495 .4 -1 0 0 14 401 981 0 375 11 398 4 464 -50 17 1097 0 11 464 8 0 +1.53 .5875
 .48 0 0 -1 14 11 993 0 401 5 371 4 17 -15 463 661 0 421 461 0 17 421 463 298 46
5 87 59 288 17 298 463 307 421 75 89 296 17 465 463 421 301 57 71 315 17 301 463
 465 307 69 466 299 17 71 424 44 205 69 465 315 17 44 424 287 71 42 467 331 17 4
67 398 466 468 69 44 331 17 466 398 319 467 72 301 299 17 468 398 467 469 42 47
 329 17 469 398 468 402 45 50 327 17 47 459 98 427 45 468 329 15 459 588 0 427 4
56 0 17 98 459 92 47 96 470 283 17 427 459 47 92 42 287 285 17 92 459 427 98 90
 429 270 17 470 451 50 256 45 98 283 15 451 325 0 470 447 0 17 50 451 292 470 48
 469 327 17 256 451 470 292 96 122 254 17 292 451 256 50 120 443 290 17 122 428
 432 429 120 256 254 17 443 442 53 230 48 292 290 17 230 442 443 125 120 432 228
 17 125 442 230 233 123 239 237 17 233 442 125 119 114 438 231 17 402 398 469 39
9 48 53 325 17 319 398 400 466 84 74 317 17 74 412 77 195 72 319 317 17 195 412
 74 152 84 406 193 17 307 463 301 298 72 77 305 15 457 527 0 83 450 0 17 83 457
 170 386 81 295 293 17 170 457 182 83 158 165 171 17 386 457 83 182 78 279 277 1
7 182 457 386 170 141 176 178 50 453 425 0 391 471 449 0 +1.76 1.435 0 0 -1 0 14
 391 332 0 441 430 390 4 453 -51 471 426 0 441 472 453 0 +.56 1.735 0 0 0 1 .3 1
4 441 334 0 434 391 440 4 471 -51 472 427 0 434 473 471 0 +.56 3.255 0 0 0 1 .3
 14 434 336 0 439 441 433 4 472 -50 473 430 0 439 474 472 0 +.26 2.495 0 -1 0 0
 14 439 342 0 444 434 436 4 473 -50 474 434 0 444 475 473 0 +1.76 2.495 1.24 0 0
 1 14 444 350 0 364 439 442 4 474 -51 475 187 0 364 476 474 0 +3.26 1.54 0 0 0 1
 .5 14 364 111 0 425 444 362 4 475 -51 476 188 0 425 477 475 0 +3.26 3.45 0 0 0
 1 .5 14 425 113 0 419 364 424 4 476 -50 477 192 0 419 478 476 0 +4.51 3.95 0 0
 1 0 14 419 121 0 395 425 417 4 477 -50 478 195 0 395 479 477 0 +4.51 2.495 .5 0
 0 1 14 395 127 0 384 419 394 4 478 -50 479 196 0 384 480 478 0 +4.51 1.04 0 0 -
1 0 14 384 129 0 405 395 383 4 479 -50 480 51 0 405 481 479 0 +2.63 2.495 1.5 0
 0 1 14 405 33 0 169 384 403 4 480 +50 481 46 0 169 482 480 0 +2.63 0 0 0 -1 0 1
4 169 30 0 409 405 164 4 481 +50 482 45 0 409 483 481 0 +0 2.495 0 -1 0 0 14 409
 27 0 414 169 407 4 482 +50 483 44 0 414 484 482 0 +2.63 4.99 0 0 1 0 14 414 24
 0 387 409 412 4 483 +50 484 43 0 416 485 483 0 +5.26 2.495 0 1 0 0 14 416 1 0 0
 387 415 4 484 +50 485 34 0 387 0 484 0 +2.63 2.495 0 0 0 -1 14 387 6 0 416 414
 174 4 485 +17 310 380 295 304 81 65 308 17 65 164 377 165 63 310 308 17 377 164
 38 65 33 341 339 17 38 164 166 377 36 348 346 1 0 
