600 0 1 0           
110 GICL ACIS Healer - Source: /gicl/data5/repository/tar/spectrometer-new/spacer_67_back/spacer_67_back.sat - 6 0 18 ACIS 6.0.3 Solaris 24 Sun Apr 14 00:12:24 2002 
1 9.999999999999999547e-07 1.000000000000000036e-10 
body $-1 $1 $-1 $-1 #
lump $-1 $-1 $2 $0 #
shell $-1 $-1 $-1 $3 $-1 $1 #
face $-1 $4 $5 $2 $-1 $6 reversed single #
face $-1 $7 $8 $2 $-1 $9 forward single #
loop $-1 $-1 $10 $3 #
plane-surface $-1 4.972000000000000419 3.217999999999999972 5.036400000000000432 -0.7071067811865474617 0 0.7071067811865474617 0.7071067811865473507 0 0.7071067811865473507 forward_v I I I I #
face $-1 $11 $12 $2 $-1 $13 forward single #
loop $-1 $-1 $14 $4 #
plane-surface $-1 3.911339828220179449 3.217999999999999972 6.097060171779821403 -0.7071067811865474617 0 0.7071067811865474617 0.7071067811865473507 0 0.7071067811865473507 forward_v I I I I #
coedge $-1 $15 $16 $17 $18 forward $5 $-1 #
face $-1 $19 $20 $2 $-1 $21 forward single #
loop $-1 $-1 $17 $7 #
plane-surface $-1 4.287167082420829445 3.217999999999999972 4.351567082420829458 -0.7071067811865474617 0 -0.7071067811865474617 -0.7071067811865473507 0 0.7071067811865473507 forward_v I I I I #
coedge $-1 $22 $23 $24 $25 reversed $8 $-1 #
coedge $-1 $26 $10 $27 $28 forward $5 $-1 #
coedge $-1 $10 $29 $30 $31 forward $5 $-1 #
coedge $-1 $32 $33 $10 $18 reversed $12 $-1 #
edge $-1 $34 -0.500000000000000111 $35 0 $17 $36 forward 7 unknown #
face $-1 $37 $38 $2 $-1 $39 forward single #
loop $-1 $40 $30 $11 #
plane-surface $-1 4.287167082420829445 2.717999999999999972 4.351567082420829458 0 -1 0 0.7071067811865473507 0 -0.7071067811865473507 forward_v I I I I #
coedge $-1 $41 $14 $42 $43 reversed $8 $-1 #
coedge $-1 $14 $44 $45 $46 reversed $8 $-1 #
coedge $-1 $33 $32 $14 $25 forward $12 $-1 #
edge $-1 $47 -0.500000000000000111 $48 0 $24 $49 forward 7 unknown #
coedge $-1 $50 $15 $51 $52 forward $5 $-1 #
coedge $-1 $53 $54 $15 $28 reversed $55 $-1 #
edge $-1 $35 -1.936999999999999389 $56 0 $27 $57 forward 7 unknown #
coedge $-1 $16 $58 $59 $60 forward $5 $-1 #
coedge $-1 $61 $62 $16 $31 reversed $20 $-1 #
edge $-1 $63 -1.0369999999999997 $34 0 $30 $64 forward 7 unknown #
coedge $-1 $24 $17 $62 $65 reversed $12 $-1 #
coedge $-1 $17 $24 $53 $66 forward $12 $-1 #
vertex $-1 $65 $67 #
vertex $-1 $66 $68 #
straight-curve $-1 4.287167082420829445 3.217999999999999972 4.351567082420829458 0 0.999999999999999889 0 I I #
face $-1 $69 $70 $2 $-1 $71 forward single #
loop $-1 $72 $59 $19 #
plane-surface $-1 5.020436814511278989 2.717999999999999972 5.084836814511279002 -0.7071067811865474617 0 -0.7071067811865474617 -0.7071067811865473507 0 0.7071067811865473507 forward_v I I I I #
loop $-1 $73 $74 $11 #
coedge $-1 $75 $22 $76 $77 reversed $8 $-1 #
coedge $-1 $62 $61 $22 $43 forward $20 $-1 #
edge $-1 $78 -1.0369999999999997 $47 0 $42 $79 forward 7 unknown #
coedge $-1 $23 $80 $81 $82 reversed $8 $-1 #
coedge $-1 $54 $53 $23 $46 forward $55 $-1 #
edge $-1 $48 -1.936999999999999389 $83 0 $45 $84 forward 7 unknown #
vertex $-1 $65 $85 #
vertex $-1 $66 $86 #
straight-curve $-1 3.226506910641008474 3.217999999999999972 5.412227254200650428 0 0.999999999999999889 0 I I #
coedge $-1 $87 $26 $88 $89 forward $5 $-1 #
coedge $-1 $90 $91 $26 $52 reversed $92 $-1 #
edge $-1 $56 -1.093000000000000194 $93 0 $51 $94 forward 7 unknown #
coedge $-1 $45 $27 $33 $66 reversed $55 $-1 #
coedge $-1 $27 $45 $90 $95 forward $55 $-1 #
loop $-1 $96 $27 $97 #
vertex $-1 $95 $98 #
straight-curve $-1 5.656832917579171394 3.217999999999999972 5.721232917579171406 0.7071067811865473507 0 0.7071067811865473507 I I #
coedge $-1 $29 $87 $99 $100 forward $5 $-1 #
coedge $-1 $101 $102 $29 $60 reversed $38 $-1 #
edge $-1 $103 -1.092999999999999972 $63 0 $59 $104 forward 7 unknown #
coedge $-1 $42 $30 $102 $105 reversed $20 $-1 #
coedge $-1 $30 $42 $32 $65 forward $20 $-1 #
vertex $-1 $105 $106 #
straight-curve $-1 4.287167082420829445 2.717999999999999972 4.351567082420829458 -0.7071067811865473507 0 -0.7071067811865473507 I I #
edge $-1 $47 -1.499999999999999556 $34 0 $62 $107 forward 7 unknown #
edge $-1 $48 -1.499999999999999556 $35 0 $53 $108 forward 7 unknown #
point $-1 4.287167082420829445 2.717999999999999972 4.351567082420829458 #
point $-1 4.287167082420829445 3.217999999999999972 4.351567082420829458 #
face $-1 $109 $110 $2 $-1 $111 forward single #
loop $-1 $-1 $99 $37 #
plane-surface $-1 5.020436814511278989 1.625000000000000222 5.084836814511279002 0 -1 0 0.7071067811865473507 0 -0.7071067811865473507 forward_v I I I I #
loop $-1 $-1 $112 $19 #
loop $-1 $-1 $113 $11 #
coedge $-1 $74 $74 $114 $115 forward $40 $-1 #
coedge $-1 $116 $41 $117 $118 reversed $8 $-1 #
coedge $-1 $102 $101 $41 $77 forward $38 $-1 #
edge $-1 $119 -1.092999999999999972 $78 0 $76 $120 forward 7 unknown #
vertex $-1 $105 $121 #
straight-curve $-1 3.226506910641008474 2.717999999999999972 5.412227254200650428 -0.7071067811865473507 0 -0.7071067811865473507 I I #
coedge $-1 $44 $116 $122 $123 reversed $8 $-1 #
coedge $-1 $91 $90 $44 $82 forward $92 $-1 #
edge $-1 $83 -1.093000000000000194 $124 0 $81 $125 forward 7 unknown #
vertex $-1 $95 $126 #
straight-curve $-1 4.596172745799350423 3.217999999999999972 6.781893089358992377 0.7071067811865473507 0 0.7071067811865473507 I I #
point $-1 3.226506910641008474 2.717999999999999972 5.412227254200650428 #
point $-1 3.226506910641008474 3.217999999999999972 5.412227254200650428 #
coedge $-1 $58 $50 $127 $128 forward $5 $-1 #
coedge $-1 $129 $130 $50 $89 reversed $131 $-1 #
edge $-1 $93 -0.6799999999999991607 $132 0 $88 $133 forward 7 unknown #
coedge $-1 $81 $51 $54 $95 reversed $92 $-1 #
coedge $-1 $51 $81 $129 $134 forward $92 $-1 #
loop $-1 $-1 $51 $135 #
vertex $-1 $134 $136 #
straight-curve $-1 5.656832917579171394 2.125 5.721232917579171406 0 -0.999999999999999889 0 I I #
edge $-1 $83 -1.499999999999999556 $56 0 $54 $137 forward 7 unknown #
loop $-1 $138 $139 $97 #
face $-1 $140 $55 $2 $-1 $141 forward single #
point $-1 5.656832917579171394 3.217999999999999972 5.721232917579171406 #
coedge $-1 $142 $143 $58 $100 reversed $70 $-1 #
edge $-1 $144 -0.2200000000000003619 $103 0 $99 $145 forward 7 unknown #
coedge $-1 $76 $59 $143 $146 reversed $38 $-1 #
coedge $-1 $59 $76 $61 $105 forward $38 $-1 #
vertex $-1 $146 $147 #
straight-curve $-1 5.020436814511278989 2.717999999999999972 5.084836814511279002 0 0.999999999999999889 0 I I #
edge $-1 $78 -1.499999999999999556 $63 0 $102 $148 forward 7 unknown #
point $-1 5.020436814511278989 2.717999999999999972 5.084836814511279002 #
straight-curve $-1 4.287167082420829445 2.717999999999999972 4.351567082420829458 0.7071067811865473507 0 -0.7071067811865473507 I I #
straight-curve $-1 4.287167082420829445 3.217999999999999972 4.351567082420829458 0.7071067811865473507 0 -0.7071067811865473507 I I #
face $-1 $135 $131 $2 $-1 $149 forward single #
loop $-1 $150 $127 $69 #
plane-surface $-1 5.17600030637231967 1.625000000000000222 5.240400306372319683 0.7071067811865474617 0 0.7071067811865474617 0.7071067811865473507 0 -0.7071067811865473507 forward_v I I I I #
coedge $-1 $112 $112 $151 $152 forward $72 $-1 #
coedge $-1 $113 $113 $153 $154 forward $73 $-1 #
coedge $-1 $114 $114 $74 $115 reversed $155 $-1 #
edge $-1 $156 -3.141592653589793116 $156 3.141592653589793116 $114 $157 forward 7 unknown #
coedge $-1 $80 $75 $158 $159 reversed $8 $-1 #
coedge $-1 $143 $142 $75 $118 forward $70 $-1 #
edge $-1 $160 -0.2200000000000003619 $119 0 $117 $161 forward 7 unknown #
vertex $-1 $146 $162 #
straight-curve $-1 3.959776642731458018 2.717999999999999972 6.145496986291099972 0 0.999999999999999889 0 I I #
point $-1 3.959776642731458018 2.717999999999999972 6.145496986291099972 #
coedge $-1 $130 $129 $80 $123 forward $131 $-1 #
edge $-1 $124 -0.6799999999999991607 $163 0 $122 $164 forward 7 unknown #
vertex $-1 $134 $165 #
straight-curve $-1 4.596172745799350423 2.125 6.781893089358992377 0 -0.999999999999999889 0 I I #
point $-1 4.596172745799350423 3.217999999999999972 6.781893089358992377 #
coedge $-1 $166 $167 $87 $128 reversed $110 $-1 #
edge $-1 $132 -0.4999999999999998335 $144 0 $127 $168 forward 7 unknown #
coedge $-1 $122 $88 $91 $134 reversed $131 $-1 #
coedge $-1 $88 $122 $166 $169 forward $131 $-1 #
loop $-1 $170 $88 $109 #
vertex $-1 $169 $171 #
straight-curve $-1 5.17600030637231967 2.125 5.240400306372319683 -0.7071067811865473507 0 -0.7071067811865473507 I I #
edge $-1 $124 -1.499999999999999556 $93 0 $91 $172 forward 7 unknown #
face $-1 $97 $92 $2 $-1 $173 forward single #
point $-1 5.656832917579171394 2.125 5.721232917579171406 #
straight-curve $-1 5.656832917579171394 3.217999999999999972 5.721232917579171406 0.7071067811865473507 0 -0.7071067811865473507 I I #
loop $-1 $174 $175 $97 #
coedge $-1 $139 $139 $176 $177 reversed $96 $-1 #
face $-1 $178 $179 $2 $-1 $180 reversed single #
plane-surface $-1 5.656832917579171394 3.217999999999999972 5.721232917579171406 0 1 0 -0.7071067811865473507 0 0.7071067811865473507 forward_v I I I I #
coedge $-1 $117 $99 $167 $181 reversed $70 $-1 #
coedge $-1 $99 $117 $101 $146 forward $70 $-1 #
vertex $-1 $181 $182 #
straight-curve $-1 5.020436814511278989 1.625000000000000222 5.084836814511279002 -0.7071067811865473507 0 -0.7071067811865473507 I I #
edge $-1 $119 -1.499999999999999556 $103 0 $143 $183 forward 7 unknown #
point $-1 5.020436814511278989 1.625000000000000222 5.084836814511279002 #
straight-curve $-1 5.020436814511278989 2.717999999999999972 5.084836814511279002 0.7071067811865473507 0 -0.7071067811865473507 I I #
plane-surface $-1 5.17600030637231967 2.125 5.240400306372319683 0 -1 0 0.7071067811865473507 0 -0.7071067811865473507 forward_v I I I I #
loop $-1 $-1 $184 $69 #
coedge $-1 $151 $151 $112 $152 reversed $185 $-1 #
edge $-1 $186 -3.141592653589793116 $186 3.141592653589793116 $151 $187 forward 7 unknown #
coedge $-1 $153 $153 $113 $154 reversed $188 $-1 #
edge $-1 $189 -3.141592653589790896 $189 3.141592653589795336 $153 $190 forward 7 unknown #
loop $-1 $-1 $114 $191 #
vertex $-1 $115 $192 #
ellipse-curve $-1 4.289288402764388941 2.717999999999999972 4.840177868220733259 0 1 0 -0.08838834764831841884 0 -0.08838834764831841884 1 I I #
coedge $-1 $167 $166 $116 $159 forward $110 $-1 #
edge $-1 $163 -0.4999999999999998335 $160 0 $158 $193 forward 7 unknown #
vertex $-1 $181 $194 #
straight-curve $-1 3.959776642731458018 1.625000000000000222 6.145496986291099972 -0.7071067811865473507 0 -0.7071067811865473507 I I #
point $-1 3.959776642731458018 1.625000000000000222 6.145496986291099972 #
vertex $-1 $169 $195 #
straight-curve $-1 4.1153401345924987 2.125 6.301060478152140654 -0.7071067811865473507 0 -0.7071067811865473507 I I #
point $-1 4.596172745799350423 2.125 6.781893089358992377 #
coedge $-1 $158 $127 $130 $169 reversed $110 $-1 #
coedge $-1 $127 $158 $142 $181 forward $110 $-1 #
straight-curve $-1 5.17600030637231967 1.625000000000000222 5.240400306372319683 0 -0.999999999999999889 0 I I #
edge $-1 $163 -1.499999999999999556 $132 0 $130 $196 forward 7 unknown #
loop $-1 $197 $198 $109 #
point $-1 5.17600030637231967 2.125 5.240400306372319683 #
straight-curve $-1 5.656832917579171394 2.125 5.721232917579171406 0.7071067811865473507 0 -0.7071067811865473507 I I #
plane-surface $-1 5.656832917579171394 2.125 5.721232917579171406 0.7071067811865474617 0 0.7071067811865474617 0.7071067811865473507 0 -0.7071067811865473507 forward_v I I I I #
loop $-1 $199 $200 $97 #
coedge $-1 $175 $175 $201 $202 reversed $138 $-1 #
coedge $-1 $176 $176 $139 $177 forward $203 $-1 #
edge $-1 $204 0 $204 6.283185307179586232 $176 $205 forward 7 unknown #
face $-1 $206 $207 $2 $-1 $208 reversed single #
loop $-1 $-1 $209 $140 #
plane-surface $-1 4.002203049602650609 2.838000000000000078 5.127263221382471592 0 -1 0 0.7071067811865473507 0 -0.7071067811865473507 forward_v I I I I #
edge $-1 $160 -1.499999999999999556 $144 0 $167 $210 forward 7 unknown #
point $-1 5.17600030637231967 1.625000000000000222 5.240400306372319683 #
straight-curve $-1 5.020436814511278989 1.625000000000000222 5.084836814511279002 0.7071067811865473507 0 -0.7071067811865473507 I I #
coedge $-1 $184 $184 $211 $212 reversed $150 $-1 #
loop $-1 $-1 $151 $213 #
vertex $-1 $152 $214 #
ellipse-curve $-1 4.490106728621368504 1.875000000000000222 5.615166900401189487 0.7071067811865474617 0 0.7071067811865474617 0 0.1249999999999999861 0 1 I I #
loop $-1 $-1 $153 $215 #
vertex $-1 $154 $216 #
ellipse-curve $-1 3.715117696440912276 2.717999999999999972 5.414348574544209924 0 1 0 -0.08838834764831841884 0 -0.08838834764831841884 1 I I #
face $-1 $215 $217 $2 $-1 $218 reversed single #
point $-1 4.377676750412707207 2.717999999999999972 4.928566215869051526 #
straight-curve $-1 4.1153401345924987 1.625000000000000222 6.301060478152140654 0 -0.999999999999999889 0 I I #
point $-1 4.1153401345924987 1.625000000000000222 6.301060478152140654 #
point $-1 4.1153401345924987 2.125 6.301060478152140654 #
straight-curve $-1 5.17600030637231967 2.125 5.240400306372319683 0.7071067811865473507 0 -0.7071067811865473507 I I #
loop $-1 $-1 $219 $109 #
coedge $-1 $198 $198 $220 $221 forward $170 $-1 #
loop $-1 $222 $223 $97 #
coedge $-1 $200 $200 $224 $225 reversed $174 $-1 #
coedge $-1 $201 $201 $175 $202 forward $226 $-1 #
edge $-1 $227 0 $227 6.283185307179586232 $201 $228 forward 7 unknown #
loop $-1 $-1 $176 $178 #
vertex $-1 $177 $229 #
ellipse-curve $-1 4.002203049602650609 3.217999999999999972 5.127263221382471592 0 1 0 0.04419417382415920942 0 0.04419417382415920942 1 I I #
face $-1 $230 $231 $2 $-1 $232 reversed single #
loop $-1 $203 $233 $178 #
cone-surface $-1 4.002203049602650609 3.217999999999999972 5.127263221382471592 0 -1 0 0.04419417382415920942 0 0.04419417382415920942 1 I I 0 1 0.06249999999999999306 forward I I I I #
coedge $-1 $209 $209 $233 $234 forward $179 $-1 #
straight-curve $-1 5.17600030637231967 1.625000000000000222 5.240400306372319683 0.7071067811865473507 0 -0.7071067811865473507 I I #
coedge $-1 $211 $211 $184 $212 forward $235 $-1 #
edge $-1 $236 0 $236 6.283185307179586232 $211 $237 forward 7 unknown #
face $-1 $-1 $235 $2 $-1 $238 reversed single #
point $-1 4.490106728621368504 1.750000000000000222 5.615166900401189487 #
face $-1 $239 $240 $2 $-1 $241 reversed single #
point $-1 3.803506044089230986 2.717999999999999972 5.502736922192528191 #
loop $-1 $155 $242 $191 #
cone-surface $-1 4.289288402764388941 3.217999999999999972 4.840177868220733259 0 -1 0 0.08838834764831841884 0 0.08838834764831841884 1 I I 0 1 0.1249999999999999861 forward I I I I #
coedge $-1 $219 $219 $243 $244 forward $197 $-1 #
coedge $-1 $220 $220 $198 $221 reversed $245 $-1 #
edge $-1 $246 -3.141592653589793116 $246 3.141592653589793116 $220 $247 forward 7 unknown #
loop $-1 $248 $249 $97 #
coedge $-1 $223 $223 $242 $250 reversed $199 $-1 #
coedge $-1 $224 $224 $200 $225 forward $251 $-1 #
edge $-1 $252 0 $252 6.283185307179586232 $224 $253 forward 7 unknown #
loop $-1 $-1 $201 $230 #
vertex $-1 $202 $254 #
ellipse-curve $-1 4.441669914110089934 3.217999999999999972 5.566730085889910917 0 1 0 0.04419417382415920942 0 0.04419417382415920942 1 I I #
point $-1 4.046397223426810186 3.217999999999999972 5.171457395206631169 #
face $-1 $255 $256 $2 $-1 $257 reversed single #
loop $-1 $-1 $258 $206 #
plane-surface $-1 4.441669914110089934 2.838000000000000078 5.566730085889910917 0 -1 0 0.7071067811865473507 0 -0.7071067811865473507 forward_v I I I I #
coedge $-1 $233 $233 $209 $234 reversed $207 $-1 #
edge $-1 $259 -3.141592653589793116 $259 3.141592653589793116 $233 $260 forward 7 unknown #
loop $-1 $185 $211 $213 #
vertex $-1 $212 $261 #
ellipse-curve $-1 4.645670220482409185 1.875000000000000222 5.770730392262230168 0.7071067811865474617 0 0.7071067811865474617 0 -0.1249999999999999861 0 1 I I #
cone-surface $-1 4.645670220482409185 1.875000000000000222 5.770730392262230168 -0.7071067811865474617 0 -0.7071067811865474617 0 -0.1249999999999999861 0 1 I I 0 1 0.1249999999999999861 forward I I I I #
face $-1 $262 $245 $2 $-1 $263 reversed single #
loop $-1 $188 $264 $215 #
cone-surface $-1 3.715117696440912276 3.217999999999999972 5.414348574544209924 0 -1 0 0.08838834764831841884 0 0.08838834764831841884 1 I I 0 1 0.1249999999999999861 forward I I I I #
coedge $-1 $242 $242 $223 $250 forward $217 $-1 #
coedge $-1 $243 $243 $219 $244 reversed $265 $-1 #
edge $-1 $266 -3.141592653589793116 $266 3.141592653589793116 $243 $267 forward 7 unknown #
loop $-1 $268 $220 $239 #
vertex $-1 $221 $269 #
ellipse-curve $-1 5.173171879247573379 2.125 5.724061344703917698 0 1 0 -0.09943689110435822986 0 -0.09943689110435822986 1 I I #
loop $-1 $270 $271 $97 #
coedge $-1 $249 $249 $264 $272 reversed $222 $-1 #
edge $-1 $273 0 $273 6.283185307179586232 $242 $274 forward 7 unknown #
loop $-1 $-1 $224 $275 #
vertex $-1 $225 $276 #
ellipse-curve $-1 4.886086526085835047 3.217999999999999972 6.01114669786565603 0 1 0 0.08838834764831841884 0 0.08838834764831841884 1 I I #
point $-1 4.485864087934249511 3.217999999999999972 5.610924259714070494 #
face $-1 $275 $277 $2 $-1 $278 reversed single #
loop $-1 $226 $279 $230 #
cone-surface $-1 4.441669914110089934 3.217999999999999972 5.566730085889910917 0 -1 0 0.04419417382415920942 0 0.04419417382415920942 1 I I 0 1 0.06249999999999999306 forward I I I I #
coedge $-1 $258 $258 $279 $280 forward $231 $-1 #
vertex $-1 $234 $281 #
ellipse-curve $-1 4.002203049602650609 2.838000000000000078 5.127263221382471592 0 1 0 -0.04419417382415920942 0 -0.04419417382415920942 1 I I #
point $-1 4.645670220482409185 1.750000000000000222 5.770730392262230168 #
face $-1 $282 $265 $2 $-1 $283 reversed single #
cone-surface $-1 5.173171879247573379 3.217999999999999972 5.724061344703917698 0 -1 0 0.09943689110435822986 0 0.09943689110435822986 1 I I 0 1 0.1406249999999999722 forward I I I I #
coedge $-1 $264 $264 $249 $272 forward $240 $-1 #
loop $-1 $284 $243 $262 #
vertex $-1 $244 $285 #
ellipse-curve $-1 4.599001172924096714 2.125 6.298232051027394363 0 1 0 -0.09943689110435822986 0 -0.09943689110435822986 1 I I #
loop $-1 $-1 $286 $239 #
point $-1 5.27260877035193154 2.125 5.823498235808275858 #
loop $-1 $-1 $287 $97 #
coedge $-1 $271 $271 $288 $289 reversed $248 $-1 #
edge $-1 $290 2.55351295663785886e-15 $290 6.283185307179588897 $264 $291 forward 7 unknown #
vertex $-1 $250 $292 #
ellipse-curve $-1 4.289288402764388941 3.217999999999999972 4.840177868220733259 0 1 0 0.08838834764831841884 0 0.08838834764831841884 1 I I #
face $-1 $191 $293 $2 $-1 $294 reversed single #
point $-1 4.974474873734153313 3.217999999999999972 6.099535045513974296 #
loop $-1 $-1 $295 $255 #
plane-surface $-1 4.886086526085835047 2.597999999999999865 6.01114669786565603 0 -1 0 0.7071067811865473507 0 -0.7071067811865473507 forward_v I I I I #
coedge $-1 $279 $279 $258 $280 reversed $256 $-1 #
edge $-1 $296 -3.141592653589793116 $296 3.141592653589793116 $279 $297 forward 7 unknown #
point $-1 4.046397223426810186 2.838000000000000078 5.171457395206631169 #
face $-1 $298 $299 $2 $-1 $300 reversed single #
cone-surface $-1 4.599001172924096714 3.217999999999999972 6.298232051027394363 0 -1 0 0.09943689110435822986 0 0.09943689110435822986 1 I I 0 1 0.1406249999999999722 forward I I I I #
loop $-1 $-1 $301 $262 #
point $-1 4.698438064028454875 2.125 6.397668942131752523 #
coedge $-1 $286 $286 $302 $303 forward $268 $-1 #
coedge $-1 $287 $287 $304 $305 reversed $270 $-1 #
coedge $-1 $288 $288 $271 $289 forward $306 $-1 #
edge $-1 $307 -3.111252215754288894e-15 $307 6.283185307179582679 $288 $308 forward 7 unknown #
vertex $-1 $272 $309 #
ellipse-curve $-1 3.715117696440912276 3.217999999999999972 5.414348574544209924 0 1 0 0.08838834764831841884 0 0.08838834764831841884 1 I I #
point $-1 4.377676750412707207 3.217999999999999972 4.928566215869051526 #
loop $-1 $251 $310 $275 #
cone-surface $-1 4.886086526085835047 3.217999999999999972 6.01114669786565603 0 -1 0 0.08838834764831841884 0 0.08838834764831841884 1 I I 0 1 0.1249999999999999861 forward I I I I #
coedge $-1 $295 $295 $310 $311 forward $277 $-1 #
vertex $-1 $280 $312 #
ellipse-curve $-1 4.441669914110089934 2.838000000000000078 5.566730085889910917 0 1 0 -0.04419417382415920942 0 -0.04419417382415920942 1 I I #
face $-1 $313 $314 $2 $-1 $315 reversed single #
loop $-1 $316 $317 $282 #
plane-surface $-1 5.173171879247573379 2.625 5.724061344703917698 0 -1 0 0.7071067811865473507 0 -0.7071067811865473507 forward_v I I I I #
coedge $-1 $301 $301 $318 $319 forward $284 $-1 #
coedge $-1 $302 $302 $286 $303 reversed $316 $-1 #
edge $-1 $320 -3.141592653589793116 $320 3.141592653589793116 $302 $321 forward 7 unknown #
coedge $-1 $304 $304 $287 $305 forward $322 $-1 #
edge $-1 $323 3.111252215754288894e-15 $323 6.283185307179589785 $304 $324 forward 7 unknown #
loop $-1 $-1 $288 $298 #
vertex $-1 $289 $325 #
ellipse-curve $-1 5.173171879247573379 3.217999999999999972 5.724061344703917698 0 1 0 0.1436310649285174323 0 0.1436310649285174323 1 I I #
point $-1 3.803506044089230986 3.217999999999999972 5.502736922192528191 #
coedge $-1 $310 $310 $295 $311 reversed $293 $-1 #
edge $-1 $326 -3.141592653589793116 $326 3.141592653589793116 $310 $327 forward 7 unknown #
point $-1 4.485864087934249511 2.838000000000000078 5.610924259714070494 #
face $-1 $328 $329 $2 $-1 $330 reversed single #
loop $-1 $306 $331 $298 #
cone-surface $-1 5.173171879247573379 3.217999999999999972 5.724061344703917698 0 -1 0 0.1436310649285174323 0 0.1436310649285174323 1 I I 0 1 0.2031249999999999722 forward I I I I #
loop $-1 $-1 $302 $282 #
coedge $-1 $317 $317 $331 $332 forward $299 $-1 #
coedge $-1 $318 $318 $301 $319 reversed $333 $-1 #
edge $-1 $334 -3.141592653589793116 $334 3.141592653589793116 $318 $335 forward 7 unknown #
vertex $-1 $303 $336 #
ellipse-curve $-1 5.173171879247573379 2.625 5.724061344703917698 0 1 0 -0.09943689110435822986 0 -0.09943689110435822986 1 I I #
loop $-1 $-1 $304 $328 #
vertex $-1 $305 $337 #
ellipse-curve $-1 4.599001172924096714 3.217999999999999972 6.298232051027394363 0 1 0 0.1436310649285174323 0 0.1436310649285174323 1 I I #
point $-1 5.316802944176090229 3.217999999999999972 5.867692409632435435 #
vertex $-1 $311 $338 #
ellipse-curve $-1 4.886086526085835047 2.597999999999999865 6.01114669786565603 0 1 0 -0.08838834764831841884 0 -0.08838834764831841884 1 I I #
face $-1 $213 $339 $2 $-1 $340 reversed single #
loop $-1 $333 $341 $313 #
plane-surface $-1 4.599001172924096714 2.625 6.298232051027394363 0 -1 0 0.7071067811865473507 0 -0.7071067811865473507 forward_v I I I I #
coedge $-1 $331 $331 $317 $332 reversed $314 $-1 #
edge $-1 $342 -3.141592653589796225 $342 3.141592653589790007 $331 $343 forward 7 unknown #
loop $-1 $-1 $318 $313 #
vertex $-1 $319 $344 #
ellipse-curve $-1 4.599001172924096714 2.625 6.298232051027394363 0 1 0 -0.09943689110435822986 0 -0.09943689110435822986 1 I I #
point $-1 5.27260877035193154 2.625 5.823498235808275858 #
point $-1 4.742632237852614452 3.217999999999999972 6.441863115955911212 #
point $-1 4.974474873734153313 2.597999999999999865 6.099535045513974296 #
loop $-1 $322 $345 $328 #
cone-surface $-1 4.599001172924096714 3.217999999999999972 6.298232051027394363 0 -1 0 0.1436310649285174323 0 0.1436310649285174323 1 I I 0 1 0.2031249999999999722 forward I I I I #
coedge $-1 $341 $341 $345 $346 forward $329 $-1 #
vertex $-1 $332 $347 #
ellipse-curve $-1 5.173171879247573379 2.625 5.724061344703917698 0 1 0 -0.1436310649285174323 0 -0.1436310649285174323 1 I I #
point $-1 4.698438064028454875 2.625 6.397668942131752523 #
coedge $-1 $345 $345 $341 $346 reversed $339 $-1 #
edge $-1 $348 -3.141592653589790007 $348 3.141592653589796225 $345 $349 forward 7 unknown #
point $-1 5.316802944176090229 2.625 5.867692409632435435 #
vertex $-1 $346 $350 #
ellipse-curve $-1 4.599001172924096714 2.625 6.298232051027394363 0 1 0 -0.1436310649285174323 0 -0.1436310649285174323 1 I I #
point $-1 4.742632237852614452 2.625 6.441863115955911212 #
End-of-ACIS-data 