600 0 1 0           
105 GICL ACIS Healer - Source: /gicl/data5/repository/ICEM-CDC/Fixture_Models/SingleCam1/SingleCam1.sat - 6 0 18 ACIS 6.0.3 Solaris 24 Sat Apr 13 23:06:25 2002 
1 9.999999999999999547e-07 1.000000000000000036e-10 
body $-1 $1 $-1 $2 #
lump $-1 $-1 $3 $0 #
transform $-1 1 0 0 0 1 0 0 0 1 0 0 0 1 no_rotate no_reflect no_shear #
shell $-1 $-1 $-1 $4 $-1 $1 #
face $5 $6 $7 $3 $-1 $8 forward single #
face_name-twe-attrib $-1 $-1 $-1 $4 1 #
face $9 $10 $11 $3 $-1 $12 reversed single #
loop $13 $14 $15 $4 #
plane-surface $16 0 0.1875 0 0 1 0 0 0 1 forward_v I I I I #
face_name-twe-attrib $-1 $-1 $-1 $6 2 #
face $17 $18 $19 $3 $-1 $20 forward single #
loop $21 $22 $23 $6 #
cone-surface $24 0 0 0 0 1 0 -0.07814999999999999725 0 0 1 I I 0 1 0.07814999999999999725 forward I I I I #
loop_type-twe-attrib $-1 $-1 $-1 $7 1 #
loop $25 $-1 $26 $4 #
coedge $-1 $15 $15 $27 $28 reversed $7 $-1 #
surf-twe-attrib $-1 $-1 $-1 $8 4 #
face_name-twe-attrib $-1 $-1 $-1 $10 3 #
face $29 $30 $31 $3 $-1 $32 forward single #
loop $33 $-1 $34 $10 #
plane-surface $35 0.375 0 0.1875 1 0 0 0 0 -1 forward_v I I I I #
loop_type-twe-attrib $-1 $-1 $-1 $11 0 #
loop $36 $-1 $27 $6 #
coedge $-1 $23 $23 $37 $38 reversed $11 $-1 #
surf-twe-attrib $-1 $-1 $-1 $12 6 #
loop_type-twe-attrib $-1 $-1 $-1 $14 0 #
coedge $-1 $39 $40 $41 $42 reversed $14 $-1 #
coedge $-1 $27 $27 $15 $28 forward $22 $-1 #
edge $43 $44 -6.283185307179586232 $44 -0 $27 $45 reversed 7 unknown #
face_name-twe-attrib $-1 $-1 $-1 $18 4 #
face $46 $47 $48 $3 $-1 $49 forward single #
loop $50 $-1 $51 $18 #
plane-surface $52 -0.3125 0 -0.9375 -1 0 0 0 0 1 forward_v I I I I #
loop_type-twe-attrib $-1 $-1 $-1 $19 0 #
coedge $-1 $53 $54 $55 $56 reversed $19 $-1 #
surf-twe-attrib $-1 $-1 $-1 $20 10 #
loop_type-twe-attrib $-1 $-1 $-1 $22 1 #
coedge $-1 $37 $37 $23 $38 forward $57 $-1 #
edge $58 $59 0 $59 6.283185307179586232 $37 $60 forward 7 unknown #
coedge $-1 $61 $26 $62 $63 forward $14 $-1 #
coedge $-1 $26 $64 $53 $65 forward $14 $-1 #
coedge $-1 $55 $66 $26 $42 forward $67 $-1 #
edge $68 $69 -2.202704135832783461 $70 -0.5403138466024494102 $41 $71 forward 7 unknown #
edge_name-twe-attrib $-1 $-1 $-1 $28 1 8704 #
vertex $-1 $28 $72 #
ellipse-curve $-1 0 0.1875 0 -0 -1 -0 -0.07814999999999999725 0 0 1 I I #
face_name-twe-attrib $-1 $-1 $-1 $30 5 #
face $73 $74 $75 $3 $-1 $76 forward single #
loop $77 $-1 $78 $30 #
plane-surface $79 -0.3125 0 -0.134475612028678998 0.1132032137679070544 0 -0.9935718556765874565 -0.9935718556765870124 0 -0.1132032137679069989 forward_v I I I I #
loop_type-twe-attrib $-1 $-1 $-1 $31 0 #
coedge $-1 $80 $81 $82 $83 forward $31 $-1 #
surf-twe-attrib $-1 $-1 $-1 $32 18 #
coedge $-1 $84 $34 $40 $65 reversed $19 $-1 #
coedge $-1 $34 $84 $85 $86 reversed $19 $-1 #
coedge $-1 $87 $41 $34 $56 forward $67 $-1 #
edge $88 $70 0 $89 0.1875 $55 $90 forward 7 unknown #
loop $91 $92 $37 $93 #
edge_name-twe-attrib $-1 $-1 $-1 $38 9 8704 #
vertex $-1 $38 $94 #
ellipse-curve $-1 0 0 0 0 1 0 -0.07814999999999999725 0 0 1 I I #
coedge $-1 $95 $39 $96 $97 forward $14 $-1 #
coedge $-1 $98 $99 $39 $63 reversed $100 $-1 #
edge $101 $69 -0.226020802035501206 $102 0 $62 $103 forward 7 unknown #
coedge $-1 $40 $104 $105 $106 reversed $14 $-1 #
edge $107 $108 -0.09375 $70 0.3734332298278023599 $53 $109 reversed 7 unknown #
coedge $-1 $41 $82 $98 $110 reversed $67 $-1 #
loop $111 $-1 $55 $112 #
edge_name-twe-attrib $-1 $-1 $-1 $42 8 8704 #
vertex $-1 $63 $113 #
vertex $-1 $56 $114 #
ellipse-curve $-1 -0.02617057942158999839 0.1875 -0.03903852231596600247 -0 -1 -0 0.4678116170499739823 0 0 1 I I #
point $-1 -0.07814999999999999725 0.1875 0 #
face_name-twe-attrib $-1 $-1 $-1 $47 6 #
face $115 $116 $117 $3 $-1 $118 forward single #
loop $119 $-1 $120 $47 #
torus-surface $121 -1.864999999999999991 0.1774999999999999911 -0.3012959465899939793 0.7460573750617008892 0 -0.6658816660008328725 0 0.01000000000000000021 -0.6658816660008328725 0 -0.7460573750617008892 forward_v I I I I #
loop_type-twe-attrib $-1 $-1 $-1 $48 0 #
coedge $-1 $122 $123 $124 $125 reversed $48 $-1 #
surf-twe-attrib $-1 $-1 $-1 $49 30 #
coedge $-1 $126 $51 $127 $128 reversed $31 $-1 #
coedge $-1 $51 $126 $129 $130 reversed $31 $-1 #
coedge $-1 $66 $131 $51 $83 reversed $67 $-1 #
edge $132 $133 0.01000000000000000888 $134 0.1774999999999999911 $82 $135 reversed 7 unknown #
coedge $-1 $54 $53 $136 $137 forward $19 $-1 #
coedge $-1 $138 $139 $54 $86 forward $92 $-1 #
edge $140 $89 -0.3734332298278022488 $141 0.09375 $85 $142 reversed 7 unknown #
coedge $-1 $131 $55 $139 $143 forward $67 $-1 #
edge_name-twe-attrib $-1 $-1 $-1 $56 6 8448 #
vertex $-1 $143 $144 #
straight-curve $-1 0.375 0.1875 -0.2796832298278023599 0 -1 0 I I #
loop_type-twe-attrib $-1 $-1 $-1 $57 1 #
loop $145 $-1 $85 $93 #
face $146 $147 $57 $3 $-1 $148 reversed single #
point $-1 -0.07814999999999999725 0 0 #
coedge $-1 $149 $61 $150 $151 reversed $14 $-1 #
coedge $-1 $152 $153 $61 $97 reversed $154 $-1 #
edge $155 $102 -1.570796326794896558 $156 0.1134464013796323972 $96 $157 reversed 7 unknown #
coedge $-1 $129 $62 $66 $110 forward $100 $-1 #
coedge $-1 $62 $129 $152 $158 forward $100 $-1 #
loop $159 $-1 $62 $160 #
edge_name-twe-attrib $-1 $-1 $-1 $63 23 24576 #
vertex $-1 $158 $161 #
straight-curve $-1 -0.3024999999999999911 0.1875 -0.1904958790787079914 0 0 1 I I #
coedge $-1 $64 $162 $163 $164 reversed $14 $-1 #
coedge $-1 $165 $136 $64 $106 forward $166 $-1 #
edge $167 $108 -0.4874999999999999889 $168 0.1024999999999999939 $105 $169 forward 7 unknown #
edge_name-twe-attrib $-1 $-1 $-1 $65 2 8704 #
vertex $-1 $137 $170 #
straight-curve $-1 0.375 0.1875 0.09375 0 0 1 I I #
edge $171 $69 0.05068882171866333219 $133 0.06769687038040854421 $98 $172 forward 7 unknown #
loop_type-twe-attrib $-1 $-1 $-1 $67 0 #
face $173 $93 $67 $3 $-1 $174 forward single #
point $-1 -0.3024999999999999911 0.1875 -0.4165166811142091974 #
point $-1 0.3749999999999999445 0.1875 -0.2796832298278023599 #
face_name-twe-attrib $-1 $-1 $-1 $74 7 #
face $175 $176 $177 $3 $-1 $178 forward single #
loop $179 $-1 $180 $74 #
plane-surface $181 -1.875 0 -0.3125 -1 0 0 0 0 1 forward_v I I I I #
loop_type-twe-attrib $-1 $-1 $-1 $75 0 #
coedge $-1 $182 $183 $184 $185 forward $75 $-1 #
surf-twe-attrib $-1 $-1 $-1 $76 47 #
coedge $-1 $186 $78 $187 $188 reversed $48 $-1 #
coedge $-1 $78 $186 $189 $190 forward $48 $-1 #
coedge $-1 $191 $192 $78 $125 forward $193 $-1 #
edge $194 $195 -1.505384636882051819 $196 -4.175004263737650797e-16 $124 $197 forward 7 unknown #
coedge $-1 $81 $80 $198 $199 reversed $31 $-1 #
coedge $-1 $200 $201 $80 $128 forward $202 $-1 #
edge $203 $204 -0.2260208020355009284 $134 -0.00752792976987282092 $127 $205 forward 7 unknown #
coedge $-1 $99 $98 $81 $130 forward $100 $-1 #
edge $206 $133 -0.2184928722656280797 $207 -2.775557561562891351e-17 $129 $208 forward 7 unknown #
coedge $-1 $82 $87 $200 $209 forward $67 $-1 #
edge_name-twe-attrib $-1 $-1 $-1 $83 7 8448 #
vertex $-1 $130 $210 #
vertex $-1 $128 $211 #
straight-curve $-1 -0.3125 0.1875 -0.4089887513443361544 -0 1 -0 I I #
coedge $-1 $105 $212 $84 $137 reversed $166 $-1 #
edge $213 $108 -0.1875 $141 -0 $136 $214 reversed 7 unknown #
coedge $-1 $215 $85 $212 $216 forward $92 $-1 #
coedge $-1 $85 $217 $87 $143 reversed $92 $-1 #
edge_name-twe-attrib $-1 $-1 $-1 $86 10 8704 #
vertex $-1 $216 $218 #
straight-curve $-1 0.375 0 0.09375 0 0 -1 I I #
edge $219 $89 0.5403138466024490771 $220 2.202704135832783461 $139 $221 forward 7 unknown #
point $-1 0.375 0 -0.2796832298278022488 #
loop_type-twe-attrib $-1 $-1 $-1 $92 0 #
face_name-twe-attrib $-1 $-1 $-1 $93 15 #
face $222 $223 $224 $3 $-1 $225 reversed single #
plane-surface $226 0 0 0 0 1 0 0 0 1 forward_v I I I I #
coedge $-1 $227 $95 $228 $229 reversed $14 $-1 #
coedge $-1 $230 $184 $95 $151 forward $231 $-1 #
edge $232 $233 -1.505384636882052041 $156 -3.578020395400855564e-16 $150 $234 reversed 7 unknown #
coedge $-1 $235 $96 $99 $158 reversed $154 $-1 #
coedge $-1 $96 $235 $230 $236 reversed $154 $-1 #
loop $237 $-1 $235 $238 #
edge_name-twe-attrib $-1 $-1 $-1 $97 22 24576 #
vertex $-1 $236 $239 #
ellipse-curve $-1 -0.3624999999999999889 0.1875 -0.1904958790787079914 0 1 0 0 0 0.05999999999999999778 1 I I #
edge $240 $207 -3.141592653589793116 $102 -1.570796326794896558 $99 $241 forward 7 unknown #
loop_type-twe-attrib $-1 $-1 $-1 $100 0 #
face $242 $243 $100 $3 $-1 $244 forward single #
point $-1 -0.3024999999999999911 0.1875 -0.1904958790787079914 #
coedge $-1 $104 $227 $245 $246 forward $14 $-1 #
coedge $-1 $247 $248 $104 $164 forward $249 $-1 #
edge $250 $168 -0.008148771251574010721 $251 -0 $163 $252 reversed 7 unknown #
coedge $-1 $253 $105 $248 $254 reversed $166 $-1 #
loop $255 $-1 $212 $256 #
edge_name-twe-attrib $-1 $-1 $-1 $106 4 8704 #
vertex $-1 $254 $257 #
straight-curve $-1 -0.1125000000000000028 0.1875 0.1875 -1 0 0 I I #
point $-1 0.375 0.1875 0.1875 #
edge_name-twe-attrib $-1 $-1 $-1 $110 24 8448 #
intcurve-curve $-1 forward { surfintcur full nubs 3 open 5 
	0.05068882171866333219 3 0.05545407638653401805 2 0.06021933105440471085 2 0.06395810071740662406 2 0.06769687038040854421 3 
	-0.3025000000000000466 0.1875 -0.4165166811142092529 
	-0.3037816979404200923 0.1875 -0.4155784259039995154 
	-0.3051585331420840208 0.1872414678718707925 -0.4145594535121259749 
	-0.3077276617520119384 0.1861380853438487082 -0.4126371404725136527 
	-0.3089206680130897609 0.1852954445476367451 -0.4117334849670418739 
	-0.3106226820612152384 0.1834371258717886477 -0.4104353397632619083 
	-0.3113130249851848164 0.1823933765966959109 -0.4099048012700095001 
	-0.3122512093295546909 0.1800476870102422911 -0.4091817180019101663 
	-0.3125 0.1787462565543339599 -0.4089887513443361544 
	-0.3125 0.1774999999999999911 -0.4089887513443361544 
	8.559075384953666681e-05 
	cone -0.3024999999999999911 0.1774999999999999911 -0.1904958790787079914 0 0 1 0 0.01000000000000000021 0 1 I I 0 1 0.01000000000000000021 forward I I I I 
	cone -0.02617057942158999839 0.1875 -0.03903852231596600247 0 -1 0 0.4678116170499739823 0 0 1 I I 0 1 0.4678116170499739823 forward I I I I 
	nullbs 
	nullbs 
	I I 
	0 
	0 
	0 
	} I I #
face_name-twe-attrib $-1 $-1 $-1 $112 14 #
cone-surface $258 -0.02617057942158999839 0.1875 -0.03903852231596600247 0 -1 0 0.4678116170499739823 0 0 1 I I 0 1 0.4678116170499739823 forward I I I I #
face_name-twe-attrib $-1 $-1 $-1 $116 8 #
face $259 $260 $261 $3 $-1 $262 forward single #
loop $263 $-1 $264 $116 #
torus-surface $265 -1.864999999999999991 0.01000000000000000021 -0.3012959465899939793 -0.7460573750617026656 0 0.6658816660008306521 0 0.01000000000000000021 0.6658816660008306521 0 0.7460573750617026656 forward_v I I I I #
loop_type-twe-attrib $-1 $-1 $-1 $117 0 #
coedge $-1 $266 $267 $268 $269 reversed $117 $-1 #
surf-twe-attrib $-1 $-1 $-1 $118 75 #
coedge $-1 $183 $120 $270 $271 forward $75 $-1 #
coedge $-1 $120 $182 $272 $273 forward $75 $-1 #
coedge $-1 $150 $274 $120 $185 reversed $231 $-1 #
edge $275 $233 -1.5707963267948164 $276 0 $184 $277 forward 7 unknown #
coedge $-1 $123 $122 $274 $278 forward $48 $-1 #
coedge $-1 $279 $270 $122 $188 forward $280 $-1 #
edge $281 $276 -0.1674999999999999822 $195 0 $187 $282 forward 7 unknown #
coedge $-1 $283 $284 $123 $190 reversed $224 $-1 #
edge $285 $286 -0.1774999999999999911 $196 -0.009999999999999998473 $189 $287 reversed 7 unknown #
coedge $-1 $288 $124 $289 $290 reversed $193 $-1 #
coedge $-1 $124 $288 $291 $292 reversed $193 $-1 #
loop $293 $-1 $288 $294 #
edge_name-twe-attrib $-1 $-1 $-1 $125 57 24576 #
vertex $-1 $188 $295 #
vertex $-1 $290 $296 #
straight-curve $-1 -0.3681601606883949107 0.01000000000000000021 -0.1408172862948786352 0.9935718556765874565 0 0.1132032137679069156 I I #
coedge $-1 $284 $283 $126 $199 forward $224 $-1 #
edge $297 $207 -0.1774999999999999911 $204 -0.009999999999999998473 $198 $298 reversed 7 unknown #
coedge $-1 $299 $127 $131 $209 reversed $202 $-1 #
coedge $-1 $127 $299 $300 $301 reversed $202 $-1 #
loop $302 $-1 $299 $303 #
edge_name-twe-attrib $-1 $-1 $-1 $128 63 24576 #
vertex $-1 $301 $304 #
straight-curve $-1 -0.3125 0.01000000000000000021 -0.4165166811142089198 0 0 -1 I I #
edge_name-twe-attrib $-1 $-1 $-1 $130 25 24576 #
vertex $-1 $130 $305 #
straight-curve $-1 -0.3125 0.1774999999999999911 -0.1904958790787079637 0 0 1 I I #
edge $306 $220 -0.05086229916250195604 $134 -0.03384843519020425823 $200 $307 reversed 7 unknown #
point $-1 -0.3125 0.1774999999999999911 -0.4089887513443360434 #
point $-1 -0.3125 0.01000000000000000194 -0.4089887513443360989 #
coedge $-1 $136 $308 $138 $216 reversed $166 $-1 #
edge_name-twe-attrib $-1 $-1 $-1 $137 3 8704 #
straight-curve $-1 0.375 0 0.1875 0 1 0 I I #
coedge $-1 $309 $138 $310 $311 forward $92 $-1 #
edge $312 $141 -0.4874999999999999889 $313 0.1024999999999999939 $138 $314 reversed 7 unknown #
coedge $-1 $139 $315 $299 $316 forward $92 $-1 #
point $-1 0.375 0 0.1875 #
edge_name-twe-attrib $-1 $-1 $-1 $143 12 8704 #
vertex $-1 $316 $317 #
ellipse-curve $-1 -0.02617057942158999839 0 -0.03903852231596600247 0 1 0 0.4678116170499739823 0 0 1 I I #
face_name-twe-attrib $-1 $-1 $-1 $147 16 #
face $318 $319 $320 $3 $-1 $321 reversed single #
loop $322 $-1 $189 $147 #
cone-surface $323 -0.3624999999999999889 0 -0.1904958790787079914 0 1 0 -0.005660160688395296513 0 0.04967859278382937005 1 I I 0 1 0.05000000000000002359 forward I I I I #
surf-twe-attrib $-1 $-1 $-1 $148 94 #
coedge $-1 $162 $149 $324 $325 reversed $14 $-1 #
coedge $-1 $272 $326 $149 $229 forward $327 $-1 #
edge $328 $329 -0.4896297542503152411 $233 -0.01120405341000518806 $228 $330 reversed 7 unknown #
coedge $-1 $274 $150 $153 $236 forward $231 $-1 #
loop $331 $-1 $150 $319 #
edge_name-twe-attrib $-1 $-1 $-1 $151 17 24576 #
vertex $-1 $229 $332 #
straight-curve $-1 -0.3692921928260740616 0.1875 -0.1308815677381129916 -0.9935718556765874565 0 -0.1132032137679069156 I I #
coedge $-1 $153 $152 $283 $333 forward $154 $-1 #
edge $334 $156 1.570796326794865694 $286 3.141592653589793116 $153 $335 reversed 7 unknown #
loop_type-twe-attrib $-1 $-1 $-1 $154 0 #
face $336 $160 $154 $3 $-1 $337 forward single #
point $-1 -0.3692921928260744502 0.1875 -0.1308815677381127418 #
edge_name-twe-attrib $-1 $-1 $-1 $158 26 24576 #
ellipse-curve $-1 -0.3024999999999999911 0.1774999999999999911 -0.1904958790787079914 0 0 -1 0.01000000000000000021 0 0 1 I I #
face_name-twe-attrib $-1 $-1 $-1 $160 20 #
face $338 $339 $327 $3 $-1 $340 forward single #
cone-surface $341 -0.3024999999999999911 0.1774999999999999911 -0.1904958790787079914 0 0 1 0 0.01000000000000000021 0 1 I I 0 1 0.01000000000000000021 forward I I I I #
coedge $-1 $342 $343 $162 $246 reversed $344 $-1 #
edge $345 $346 -3.177940274608812121 $251 -1.570796326794896558 $245 $347 reversed 7 unknown #
coedge $-1 $348 $163 $343 $349 reversed $249 $-1 #
coedge $-1 $163 $348 $165 $254 forward $249 $-1 #
loop $350 $-1 $163 $351 #
edge_name-twe-attrib $-1 $-1 $-1 $164 37 24576 #
vertex $-1 $349 $352 #
straight-curve $-1 -0.2149999999999999967 0.1875 0.1793512287484259893 0 0 1 I I #
coedge $-1 $308 $165 $353 $354 forward $166 $-1 #
edge $355 $356 -1.570796326794896558 $168 0 $248 $357 forward 7 unknown #
loop_type-twe-attrib $-1 $-1 $-1 $166 0 #
face $358 $112 $166 $3 $-1 $359 forward single #
point $-1 -0.2149999999999999967 0.1875 0.1875 #
surf-twe-attrib $-1 $-1 $-1 $174 114 #
face_name-twe-attrib $-1 $-1 $-1 $176 9 #
face $360 $361 $362 $3 $-1 $363 forward single #
loop $364 $-1 $365 $176 #
torus-surface $366 -1.864999999999999991 0.01000000000000000021 0.1771297542503149913 -0.7071067811865470176 0.7071067811865480168 2.000000000000000155e-15 0 0.01000000000000000021 2.828427124746190133e-15 0 1 forward_v I I I I #
loop_type-twe-attrib $-1 $-1 $-1 $177 0 #
coedge $-1 $367 $291 $368 $369 forward $177 $-1 #
surf-twe-attrib $-1 $-1 $-1 $178 119 #
coedge $-1 $370 $180 $371 $372 reversed $117 $-1 #
coedge $-1 $180 $370 $373 $374 forward $117 $-1 #
coedge $-1 $368 $375 $180 $269 forward $376 $-1 #
edge $377 $378 -0.4896297542503149636 $379 -0.01120405341000602073 $268 $380 forward 7 unknown #
coedge $-1 $187 $373 $182 $271 reversed $280 $-1 #
edge $381 $276 -1.684242728174523807 $382 0 $270 $383 forward 7 unknown #
coedge $-1 $384 $228 $183 $273 reversed $327 $-1 #
edge $385 $382 -1.570796326794896558 $233 -2.220446049250311188e-14 $272 $386 forward 7 unknown #
coedge $-1 $184 $230 $186 $278 reversed $231 $-1 #
edge_name-twe-attrib $-1 $-1 $-1 $185 19 24576 #
vertex $-1 $188 $387 #
ellipse-curve $388 -1.864999999999999991 0.1774999999999999911 -0.3012959465899939793 -0.9935718556765845699 0 -0.1132032137679319511 0.001132032137679320032 0 -0.009935718556765839662 1 I I #
edge $389 $276 -1.505384636882051819 $286 -4.175004263737650797e-16 $274 $390 reversed 7 unknown #
coedge $-1 $373 $187 $367 $391 reversed $280 $-1 #
loop $392 $-1 $373 $393 #
edge_name-twe-attrib $-1 $-1 $-1 $188 71 24576 #
straight-curve $-1 -1.863867967862320896 0.01000000000000000021 -0.3112316651467606499 0 -1 0 I I #
coedge $-1 $198 $189 $235 $333 reversed $224 $-1 #
coedge $-1 $189 $198 $394 $395 forward $224 $-1 #
edge_name-twe-attrib $-1 $-1 $-1 $190 13 20480 #
vertex $-1 $236 $396 #
straight-curve $-1 -0.3681601606883953548 0 -0.140817286294878663 0 1 0 I I #
coedge $-1 $192 $191 $397 $398 reversed $193 $-1 #
coedge $-1 $394 $399 $191 $290 forward $400 $-1 #
edge $401 $402 1.570796326794868358 $196 3.141592653589793116 $289 $403 forward 7 unknown #
coedge $-1 $264 $367 $192 $292 forward $177 $-1 #
edge $404 $195 -1.570796326794896558 $405 -8.524509259711067035e-14 $192 $406 forward 7 unknown #
loop_type-twe-attrib $-1 $-1 $-1 $193 0 #
face $407 $408 $193 $3 $-1 $409 forward single #
point $-1 -1.863867967862320896 0.01000000000000000021 -0.3112316651467604833 #
point $-1 -0.3681601606883952993 0.009999999999999998473 -0.1408172862948789128 #
edge_name-twe-attrib $-1 $-1 $-1 $199 14 20480 #
straight-curve $-1 -0.3125 0 -0.1904958790787079914 0 1 0 I I #
coedge $-1 $201 $200 $217 $316 reversed $202 $-1 #
coedge $-1 $399 $394 $201 $301 forward $400 $-1 #
edge $410 $204 -3.141592653589793116 $411 -1.570796326794896558 $201 $412 reversed 7 unknown #
loop_type-twe-attrib $-1 $-1 $-1 $202 0 #
face $413 $414 $202 $3 $-1 $415 forward single #
point $-1 -0.3125 0.009999999999999998473 -0.1904958790787079914 #
point $-1 -0.3125 0.1774999999999999911 -0.1904958790787079914 #
edge_name-twe-attrib $-1 $-1 $-1 $209 64 8448 #
intcurve-curve $-1 forward { surfintcur full nubs 3 open 5 
	0.03384843519020425823 3 0.03783812265064499802 2 0.04182781011108573088 2 0.04634505463679384346 2 0.05086229916250195604 3 
	-0.3125 0.01000000000000000888 -0.4089887513443360989 
	-0.3125 0.008670104179853095616 -0.4089887513443361544 
	-0.3122174499220816135 0.00729197192196300633 -0.4092079407673128166 
	-0.311167728256588727 0.004834940481271833394 -0.4100165739952228439 
	-0.3103990626036926548 0.003756926979961724457 -0.4106067683252688783 
	-0.3086335871250242002 0.001991451501293200945 -0.4119510411907957304 
	-0.3074821893328083533 0.001229055494113518929 -0.4128217135213215205 
	-0.3050231223349996745 0.0002325967890409703183 -0.414659733600124758 
	-0.303714991308651483 0 -0.4156272578813622331 
	-0.3024999999999999911 0 -0.4165166811142091974 
	8.636560673195469362e-05 
	cone -0.3024999999999999911 0.01000000000000000021 -0.4165166811142089753 0 0 -1 0 -0.01000000000000000021 0 1 I I 0 1 0.01000000000000000021 forward I I I I 
	cone -0.02617057942158999839 0.1875 -0.03903852231596600247 0 -1 0 0.4678116170499739823 0 0 1 I I 0 1 0.4678116170499739823 forward I I I I 
	nullbs 
	nullbs 
	I I 
	0 
	0 
	0 
	} I I #
coedge $-1 $212 $253 $416 $417 forward $166 $-1 #
coedge $-1 $418 $215 $419 $420 reversed $92 $-1 #
coedge $-1 $416 $421 $215 $311 reversed $422 $-1 #
edge $423 $313 -0.008148771251574010721 $424 0 $310 $425 forward 7 unknown #
edge_name-twe-attrib $-1 $-1 $-1 $216 11 8704 #
vertex $-1 $417 $426 #
straight-curve $-1 -0.1125000000000000028 0 0.1875 1 0 0 I I #
coedge $-1 $217 $397 $399 $427 reversed $92 $-1 #
edge $428 $411 -0.2260208020355009839 $220 2.220446049250313081e-16 $299 $429 forward 7 unknown #
point $-1 -0.3024999999999999911 0 -0.4165166811142091974 #
face_name-twe-attrib $-1 $-1 $-1 $223 17 #
face $430 $238 $231 $3 $-1 $431 forward single #
loop $432 $-1 $433 $223 #
cone-surface $434 -0.2750000000000000222 0 0.1793512287484259893 0 1 0 0.04999999999999999584 0 0 1 I I 0 1 0.05000000000000000278 forward I I I I #
loop_type-twe-attrib $-1 $-1 $-1 $224 0 #
surf-twe-attrib $-1 $-1 $-1 $225 151 #
coedge $-1 $435 $436 $227 $325 forward $437 $-1 #
edge $438 $346 -1.599239319949614879 $329 -0.01037024574968374233 $324 $439 reversed 7 unknown #
coedge $-1 $228 $384 $440 $441 reversed $327 $-1 #
loop $442 $-1 $228 $243 #
edge_name-twe-attrib $-1 $-1 $-1 $229 27 24576 #
vertex $-1 $325 $443 #
straight-curve $-1 -1.864999999999999991 0.1875 -0.3125 0 0 1 I I #
loop_type-twe-attrib $-1 $-1 $-1 $231 0 #
point $-1 -1.865000000000000213 0.1875 -0.3012959465899948119 #
edge $444 $207 -1.684242728174527359 $286 9.324138683375395325e-16 $235 $445 reversed 7 unknown #
edge_name-twe-attrib $-1 $-1 $-1 $236 21 24576 #
ellipse-curve $-1 -0.3692921928260743947 0.1774999999999999911 -0.1308815677381130471 0.9935718556765874565 -0 0.1132032137679073458 -0.001132032137679073484 0 0.009935718556765874357 1 I I #
face_name-twe-attrib $-1 $-1 $-1 $238 19 #
torus-surface $446 -0.3624999999999999889 0.1774999999999999911 -0.1904958790787079914 0 1 0 0.05999999999999999778 0.01000000000000000021 0 0 1 forward_v I I I I #
face_name-twe-attrib $-1 $-1 $-1 $243 21 #
face $447 $448 $437 $3 $-1 $449 forward single #
cone-surface $450 -1.864999999999999991 0.1774999999999999911 -0.3125 0 0 1 0 0.01000000000000000021 0 1 I I 0 1 0.01000000000000000021 forward I I I I #
surf-twe-attrib $-1 $-1 $-1 $244 164 #
coedge $-1 $451 $245 $436 $452 forward $344 $-1 #
coedge $-1 $245 $451 $247 $349 forward $344 $-1 #
loop $453 $-1 $451 $448 #
edge_name-twe-attrib $-1 $-1 $-1 $246 35 24576 #
vertex $-1 $246 $454 #
ellipse-curve $-1 -0.2750000000000000222 0.1875 0.1793512287484259893 0 1 0 0 0 0.05999999999999999084 1 I I #
coedge $-1 $248 $247 $455 $456 reversed $249 $-1 #
edge $457 $458 -3.141592653589793116 $251 -1.570796326794896558 $247 $459 forward 7 unknown #
loop_type-twe-attrib $-1 $-1 $-1 $249 0 #
face $460 $461 $249 $3 $-1 $462 forward single #
point $-1 -0.2149999999999999967 0.1875 0.1793512287484259893 #
coedge $-1 $455 $463 $253 $354 reversed $464 $-1 #
edge $465 $356 -0.1774999999999999911 $466 -0.01000000000000000021 $253 $467 forward 7 unknown #
edge_name-twe-attrib $-1 $-1 $-1 $254 40 8704 #
vertex $-1 $456 $468 #
ellipse-curve $-1 -0.2149999999999999967 0.1774999999999999911 0.1875 -0 -0 -1 0 0.01000000000000000021 0 1 I I #
face_name-twe-attrib $-1 $-1 $-1 $256 13 #
plane-surface $469 -0.2250000000000000056 0 0.1875 0 0 1 1 0 0 forward_v I I I I #
face_name-twe-attrib $-1 $-1 $-1 $260 10 #
face $470 $471 $472 $3 $-1 $473 forward single #
loop $474 $-1 $440 $260 #
torus-surface $475 -1.864999999999999991 0.1774999999999999911 0.1771297542503149913 -0.7198401274266189587 0 -0.694139892922478019 0 0.01000000000000000021 -0.694139892922478019 0 0.7198401274266189587 forward_v I I I I #
loop_type-twe-attrib $-1 $-1 $-1 $261 0 #
coedge $-1 $476 $477 $478 $479 forward $261 $-1 #
surf-twe-attrib $-1 $-1 $-1 $262 182 #
coedge $-1 $291 $264 $279 $391 forward $177 $-1 #
coedge $-1 $480 $268 $264 $369 reversed $376 $-1 #
edge $481 $405 -1.570796326794918985 $379 0 $368 $482 forward 7 unknown #
coedge $-1 $267 $266 $384 $483 forward $117 $-1 #
coedge $-1 $478 $484 $266 $372 forward $485 $-1 #
edge $486 $487 -0.1774999999999999911 $378 -0.01000000000000000021 $371 $488 forward 7 unknown #
coedge $-1 $270 $279 $267 $374 reversed $280 $-1 #
edge $489 $382 -0.1674999999999999822 $379 0 $373 $490 forward 7 unknown #
coedge $-1 $268 $480 $476 $491 reversed $376 $-1 #
loop $492 $-1 $480 $414 #
edge_name-twe-attrib $-1 $-1 $-1 $269 67 24576 #
vertex $-1 $269 $493 #
vertex $-1 $374 $494 #
straight-curve $-1 -1.875 0.01000000000000000021 -0.3125 0 0 -1 I I #
edge_name-twe-attrib $-1 $-1 $-1 $271 70 24576 #
vertex $-1 $374 $495 #
ellipse-curve $496 -1.864999999999999991 0.1774999999999999911 -0.3012959465899939793 0 1 0 -0.01000000000000000021 0 0 1 I I #
coedge $-1 $326 $272 $370 $483 reversed $327 $-1 #
edge_name-twe-attrib $-1 $-1 $-1 $273 28 24576 #
ellipse-curve $497 -1.864999999999999991 0.1774999999999999911 -0.3012959465899939793 0 0 -1 0 0.01000000000000000021 0 1 I I #
point $-1 -1.863867967862320896 0.1774999999999999911 -0.3112316651467604833 #
cur-twe-attrib $-1 $-1 $-1 $277 191 #
edge_name-twe-attrib $-1 $-1 $-1 $278 18 24576 #
straight-curve $-1 -0.3681601606883949107 0.1774999999999999911 -0.1408172862948786352 -0.9935718556765874565 0 -0.1132032137679069156 I I #
edge $498 $379 -1.684242728174530468 $195 -6.657678965418384147e-15 $279 $499 forward 7 unknown #
loop_type-twe-attrib $-1 $-1 $-1 $280 0 #
face $500 $-1 $280 $3 $-1 $501 forward single #
coedge $-1 $300 $289 $284 $395 reversed $400 $-1 #
edge $502 $204 -1.684242728174527359 $196 9.324138683375395325e-16 $394 $503 reversed 7 unknown #
point $-1 -0.3681601606883952993 0.1774999999999999911 -0.1408172862948789128 #
coedge $-1 $315 $504 $288 $398 forward $92 $-1 #
edge $505 $405 -1.505384636882051597 $402 -3.609440598997528998e-16 $288 $506 forward 7 unknown #
coedge $-1 $289 $300 $315 $427 forward $400 $-1 #
loop $507 $-1 $394 $408 #
edge_name-twe-attrib $-1 $-1 $-1 $290 60 24576 #
vertex $-1 $427 $508 #
ellipse-curve $-1 -0.3692921928260743947 0.01000000000000000021 -0.1308815677381130471 0.9935718556765874565 -0 0.1132032137679073458 -0.001132032137679073484 0 0.009935718556765874357 1 I I #
edge_name-twe-attrib $-1 $-1 $-1 $292 56 24576 #
vertex $-1 $509 $510 #
ellipse-curve $511 -1.864999999999999991 0.01000000000000000021 -0.3012959465899939793 -0.9935718556765875675 0 -0.1132032137679069433 0 -0.01000000000000000021 0 1 I I #
face_name-twe-attrib $-1 $-1 $-1 $294 29 #
face $512 $303 $400 $3 $-1 $513 forward single #
cone-surface $514 -0.3692921928260740061 0.01000000000000000021 -0.1308815677381129916 0.9935718556765875675 0 0.1132032137679069433 0 -0.01000000000000000021 0 1 I I 0 1 0.01000000000000000021 forward I I I I #
edge_name-twe-attrib $-1 $-1 $-1 $301 62 24576 #
vertex $-1 $301 $515 #
ellipse-curve $-1 -0.3024999999999999911 0.01000000000000000021 -0.1904958790787079914 0 0 -1 0.01000000000000000021 0 0 1 I I #
face_name-twe-attrib $-1 $-1 $-1 $303 31 #
face $516 $393 $376 $3 $-1 $517 forward single #
cone-surface $518 -0.3024999999999999911 0.01000000000000000021 -0.4165166811142089753 0 0 -1 0 -0.01000000000000000021 0 1 I I 0 1 0.01000000000000000021 forward I I I I #
coedge $-1 $519 $310 $308 $417 reversed $422 $-1 #
edge $520 $466 -1.570796326794896558 $313 -0 $416 $521 reversed 7 unknown #
coedge $-1 $504 $309 $522 $523 forward $92 $-1 #
coedge $-1 $524 $525 $309 $420 forward $526 $-1 #
edge $527 $528 -3.177940274608812121 $424 -1.570796326794896558 $419 $529 reversed 7 unknown #
coedge $-1 $310 $519 $524 $530 forward $422 $-1 #
loop $531 $-1 $310 $532 #
edge_name-twe-attrib $-1 $-1 $-1 $311 47 24576 #
vertex $-1 $530 $533 #
straight-curve $-1 -0.2149999999999999967 0 0.1793512287484259893 0 0 -1 I I #
point $-1 -0.2149999999999999967 0 0.1875 #
edge $534 $411 -1.570796326794896558 $402 0.1134464013796324527 $399 $535 reversed 7 unknown #
edge_name-twe-attrib $-1 $-1 $-1 $316 61 24576 #
straight-curve $-1 -0.3024999999999999911 0 -0.4165166811142089753 0 0 -1 I I #
face_name-twe-attrib $-1 $-1 $-1 $319 18 #
cone-surface $536 -0.3692921928260740061 0.1774999999999999911 -0.1308815677381129916 -0.9935718556765875675 0 -0.1132032137679069433 0 0.01000000000000000021 0 1 I I 0 1 0.01000000000000000021 forward I I I I #
loop_type-twe-attrib $-1 $-1 $-1 $320 0 #
coedge $-1 $537 $538 $539 $540 reversed $320 $-1 #
surf-twe-attrib $-1 $-1 $-1 $321 231 #
coedge $-1 $541 $324 $542 $543 reversed $437 $-1 #
coedge $-1 $324 $541 $342 $452 reversed $437 $-1 #
loop $544 $-1 $324 $339 #
edge_name-twe-attrib $-1 $-1 $-1 $325 31 24576 #
straight-curve $-1 -1.875363396181070064 0.1875 0.1775066050205360013 0.9993394979464320649 0 -0.03633961810714300689 I I #
coedge $-1 $545 $542 $326 $441 forward $362 $-1 #
edge $546 $329 -1.570796326794896558 $487 0 $326 $547 forward 7 unknown #
loop_type-twe-attrib $-1 $-1 $-1 $327 0 #
point $-1 -1.864999999999999991 0.1875 0.1771297542503152411 #
edge_name-twe-attrib $-1 $-1 $-1 $333 20 24576 #
ellipse-curve $-1 -0.3624999999999999889 0.1774999999999999911 -0.1904958790787079914 0 1 0 -0.005660160688395296513 0 0.04967859278382937005 1 I I #
surf-twe-attrib $-1 $-1 $-1 $337 246 #
face_name-twe-attrib $-1 $-1 $-1 $339 22 #
face $548 $351 $344 $3 $-1 $549 forward single #
cone-surface $550 -1.875363396181070064 0.1774999999999999911 0.1775066050205360013 0.9993394979464321759 0 -0.03633961810714300689 0 0.01000000000000000021 0 1 I I 0 1 0.01000000000000000021 forward I I I I #
surf-twe-attrib $-1 $-1 $-1 $340 252 #
coedge $-1 $343 $342 $537 $551 forward $344 $-1 #
edge $552 $346 1.570796326794911879 $553 3.141592653589793116 $342 $554 reversed 7 unknown #
loop_type-twe-attrib $-1 $-1 $-1 $344 0 #
point $-1 -0.2771803770864285088 0.1875 0.1193908588716400682 #
coedge $-1 $539 $353 $348 $456 forward $464 $-1 #
edge $555 $356 -0.008148771251574038477 $458 -2.775557561562891351e-17 $348 $556 reversed 7 unknown #
edge_name-twe-attrib $-1 $-1 $-1 $349 38 24576 #
vertex $-1 $349 $557 #
ellipse-curve $-1 -0.2149999999999999967 0.1774999999999999911 0.1793512287484259893 0 0 -1 0.01000000000000000021 0 0 1 I I #
face_name-twe-attrib $-1 $-1 $-1 $351 24 #
face $558 $559 $560 $3 $-1 $561 forward single #
cone-surface $562 -0.2149999999999999967 0.1774999999999999911 0.1793512287484259893 0 0 1 0 0.01000000000000000021 0 1 I I 0 1 0.01000000000000000021 forward I I I I #
coedge $-1 $353 $539 $519 $563 reversed $464 $-1 #
loop $564 $-1 $463 $471 #
edge_name-twe-attrib $-1 $-1 $-1 $354 5 8704 #
vertex $-1 $417 $565 #
straight-curve $-1 -0.2250000000000000056 0 0.1875 0 -1 0 I I #
point $-1 -0.2250000000000000056 0.1774999999999999911 0.1875 #
surf-twe-attrib $-1 $-1 $-1 $359 265 #
face_name-twe-attrib $-1 $-1 $-1 $361 11 #
face $566 $256 $464 $3 $-1 $567 forward single #
loop $568 $-1 $569 $361 #
plane-surface $570 -1.875 0 0.1875 0.03633961810714300689 0 0.9993394979464321759 0.9993394979464319539 0 -0.03633961810714299995 forward_v I I I I #
loop_type-twe-attrib $-1 $-1 $-1 $362 0 #
surf-twe-attrib $-1 $-1 $-1 $363 271 #
coedge $-1 $477 $365 $375 $491 forward $261 $-1 #
coedge $-1 $365 $476 $571 $572 forward $261 $-1 #
coedge $-1 $573 $371 $365 $479 reversed $485 $-1 #
edge $574 $575 -1.607143947813914453 $378 0 $478 $576 forward 7 unknown #
coedge $-1 $375 $368 $504 $509 reversed $376 $-1 #
edge_name-twe-attrib $-1 $-1 $-1 $369 68 24576 #
ellipse-curve $577 -1.864999999999999991 0.01000000000000000021 -0.3012959465899939793 0 0 -1 -0.01000000000000000021 0 0 1 I I #
edge $578 $487 -0.4896297542503149636 $382 -0.01120405341000602073 $384 $579 reversed 7 unknown #
coedge $-1 $371 $573 $545 $580 reversed $485 $-1 #
loop $581 $-1 $573 $582 #
edge_name-twe-attrib $-1 $-1 $-1 $372 53 24576 #
vertex $-1 $372 $583 #
straight-curve $-1 -1.875 0 0.1771297542503149913 0 -1 0 I I #
edge_name-twe-attrib $-1 $-1 $-1 $374 69 24576 #
straight-curve $-1 -1.875 0.01000000000000000021 -0.3012959465899939793 0 -1 0 I I #
edge $584 $378 -1.570796326794896558 $585 -9.22667268468867284e-29 $375 $586 forward 7 unknown #
loop_type-twe-attrib $-1 $-1 $-1 $376 0 #
point $-1 -1.875 0.01000000000000000021 0.1771297542503149913 #
point $-1 -1.875 0.01000000000000000021 -0.3012959465899939793 #
point $-1 -1.875 0.1774999999999999911 -0.3012959465899939793 #
cur-twe-attrib $-1 $-1 $-1 $383 282 #
cur-twe-attrib $-1 $-1 $-1 $386 284 #
edge_name-twe-attrib $-1 $-1 $-1 $391 72 24576 #
ellipse-curve $587 -1.864999999999999991 0.01000000000000000021 -0.3012959465899939793 0 -1 0 0.001132032137679089964 0 -0.009935718556765869153 1 I I #
face_name-twe-attrib $-1 $-1 $-1 $393 33 #
cone-surface $588 -1.864999999999999991 0.01000000000000000021 -0.3012959465899939793 0 -1 0 -0.01000000000000000021 0 0 1 I I 0 1 0.01000000000000000021 forward I I I I #
edge_name-twe-attrib $-1 $-1 $-1 $395 58 24576 #
ellipse-curve $-1 -0.3624999999999999889 0.01000000000000000021 -0.1904958790787079914 0 1 0 -0.005660160688395296513 0 0.04967859278382937005 1 I I #
coedge $-1 $397 $418 $480 $509 forward $92 $-1 #
edge_name-twe-attrib $-1 $-1 $-1 $398 55 24576 #
straight-curve $-1 -0.3692921928260740616 0 -0.1308815677381129916 0.9935718556765874565 0 0.1132032137679069156 I I #
loop_type-twe-attrib $-1 $-1 $-1 $400 0 #
point $-1 -0.3692921928260744502 0 -0.1308815677381127696 #
edge $589 $585 -0.4896297542503152966 $405 -0.01120405341000518806 $480 $590 forward 7 unknown #
point $-1 -1.864999999999999769 0 -0.3012959465899948119 #
cur-twe-attrib $-1 $-1 $-1 $406 303 #
face_name-twe-attrib $-1 $-1 $-1 $408 30 #
torus-surface $591 -0.3624999999999999889 0.01000000000000000021 -0.1904958790787079914 0 1 0 0.05999999999999999084 0.01000000000000000021 0 0 1 forward_v I I I I #
surf-twe-attrib $-1 $-1 $-1 $409 305 #
point $-1 -0.3024999999999999911 0 -0.1904958790787079914 #
face_name-twe-attrib $-1 $-1 $-1 $414 32 #
cone-surface $592 -1.864999999999999991 0.01000000000000000021 -0.3125 0 0 -1 0 -0.01000000000000000021 0 1 I I 0 1 0.01000000000000000021 forward I I I I #
surf-twe-attrib $-1 $-1 $-1 $415 315 #
coedge $-1 $421 $416 $463 $563 forward $422 $-1 #
edge_name-twe-attrib $-1 $-1 $-1 $417 48 8704 #
ellipse-curve $-1 -0.2149999999999999967 0.01000000000000000021 0.1875 -0 -0 -1 0 -0.01000000000000000021 0 1 I I #
coedge $-1 $593 $571 $418 $523 reversed $560 $-1 #
edge $594 $528 -1.599239319949614879 $585 -0.01037024574968374233 $522 $595 forward 7 unknown #
coedge $-1 $596 $419 $421 $530 reversed $526 $-1 #
coedge $-1 $419 $596 $593 $597 reversed $526 $-1 #
loop $598 $-1 $596 $559 #
edge_name-twe-attrib $-1 $-1 $-1 $420 46 24576 #
vertex $-1 $597 $599 #
ellipse-curve $-1 -0.2750000000000000222 0 0.1793512287484259893 0 1 0 0 0 0.05999999999999999084 1 I I #
edge $600 $601 -3.141592653589793116 $424 -1.570796326794896558 $421 $602 reversed 7 unknown #
loop_type-twe-attrib $-1 $-1 $-1 $422 0 #
face $603 $582 $422 $3 $-1 $604 forward single #
point $-1 -0.2149999999999999967 0 0.1793512287484259893 #
edge_name-twe-attrib $-1 $-1 $-1 $427 59 24576 #
ellipse-curve $-1 -0.3624999999999999889 0 -0.1904958790787079914 0 1 0 0 0 0.05999999999999999084 1 I I #
surf-twe-attrib $-1 $-1 $-1 $431 335 #
coedge $-1 $605 $433 $451 $551 reversed $320 $-1 #
coedge $-1 $433 $605 $596 $606 forward $320 $-1 #
coedge $-1 $463 $455 $433 $540 forward $464 $-1 #
edge $607 $458 -0.1774999999999999911 $601 -0.009999999999999998473 $433 $608 reversed 7 unknown #
coedge $-1 $436 $435 $609 $610 reversed $437 $-1 #
coedge $-1 $440 $545 $435 $543 forward $362 $-1 #
edge $611 $612 -1.570796326794896558 $329 -2.496351870084312749e-14 $435 $613 forward 7 unknown #
loop_type-twe-attrib $-1 $-1 $-1 $437 0 #
coedge $-1 $542 $440 $484 $580 forward $362 $-1 #
edge_name-twe-attrib $-1 $-1 $-1 $441 30 24576 #
ellipse-curve $614 -1.864999999999999991 0.1774999999999999911 0.1771297542503149913 5.999999999999999677e-15 0 1 -0.01000000000000000021 0 6.000000000000000121e-17 1 I I #
face_name-twe-attrib $-1 $-1 $-1 $448 23 #
torus-surface $615 -0.2750000000000000222 0.1774999999999999911 0.1793512287484259893 0 1 0 0.05999999999999999084 0.01000000000000000021 0 0 1 forward_v I I I I #
surf-twe-attrib $-1 $-1 $-1 $449 357 #
edge $616 $553 -1.607143947813916229 $458 -0 $451 $617 reversed 7 unknown #
edge_name-twe-attrib $-1 $-1 $-1 $452 36 24576 #
vertex $-1 $452 $618 #
ellipse-curve $-1 -0.2771803770864285088 0.1774999999999999911 0.1193908588716399155 -0.9993394979464321759 0 0.03633961810714135543 -0.0003633961810714135478 0 -0.009993394979464321343 1 I I #
edge_name-twe-attrib $-1 $-1 $-1 $456 39 24576 #
straight-curve $-1 -0.2250000000000000056 0.1774999999999999911 0.1793512287484259615 0 0 1 I I #
point $-1 -0.2250000000000000056 0.1774999999999999911 0.1793512287484259893 #
face_name-twe-attrib $-1 $-1 $-1 $461 25 #
face $619 $532 $526 $3 $-1 $620 forward single #
loop $621 $-1 $522 $461 #
cone-surface $622 -1.875363396181070064 0.01000000000000000021 0.1775066050205360013 -0.9993394979464321759 0 0.03633961810714300689 0 -0.01000000000000000021 0 1 I I 0 1 0.01000000000000000021 forward I I I I #
surf-twe-attrib $-1 $-1 $-1 $462 369 #
edge $623 $466 -0.008148771251574038477 $601 -2.775557561562891351e-17 $519 $624 forward 7 unknown #
loop_type-twe-attrib $-1 $-1 $-1 $464 0 #
point $-1 -0.2250000000000000056 0.01000000000000000021 0.1875 #
face_name-twe-attrib $-1 $-1 $-1 $471 12 #
plane-surface $625 -0.2250000000000000056 0 0.1275000000000000022 -1 0 0 0 0 1 forward_v I I I I #
loop_type-twe-attrib $-1 $-1 $-1 $472 0 #
coedge $-1 $626 $627 $628 $629 reversed $472 $-1 #
surf-twe-attrib $-1 $-1 $-1 $473 380 #
coedge $-1 $522 $628 $477 $572 reversed $560 $-1 #
edge $630 $585 -1.570796326794868802 $575 0 $571 $631 forward 7 unknown #
coedge $-1 $484 $478 $627 $632 reversed $485 $-1 #
edge_name-twe-attrib $-1 $-1 $-1 $479 54 24576 #
vertex $-1 $632 $633 #
ellipse-curve $634 -1.864999999999999991 0.01000000000000000021 0.1771297542503149913 0 -1 0 -0.01000000000000000021 0 0 1 I I #
cur-twe-attrib $-1 $-1 $-1 $482 388 #
edge_name-twe-attrib $-1 $-1 $-1 $483 29 24576 #
straight-curve $-1 -1.875 0.1774999999999999911 -0.3125 0 0 1 I I #
edge $635 $487 -1.607143947813917118 $612 -4.658681209898700552e-17 $484 $636 forward 7 unknown #
loop_type-twe-attrib $-1 $-1 $-1 $485 0 #
face $637 $294 $485 $3 $-1 $638 forward single #
point $-1 -1.875 0.1774999999999999911 0.1771297542503149636 #
edge_name-twe-attrib $-1 $-1 $-1 $491 66 24576 #
vertex $-1 $509 $639 #
ellipse-curve $640 -1.864999999999999991 0.01000000000000000021 0.1771297542503149913 2.999999999999999839e-15 -2.999999999999999839e-15 1 0 -0.01000000000000000021 -3.000000000000000061e-17 1 I I #
cur-twe-attrib $-1 $-1 $-1 $499 410 #
surf-twe-attrib $-1 $-1 $-1 $501 412 #
edge_name-twe-attrib $-1 $-1 $-1 $509 65 24576 #
straight-curve $-1 -1.864999999999999991 0 -0.3125 0 0 -1 I I #
surf-twe-attrib $-1 $-1 $-1 $513 429 #
surf-twe-attrib $-1 $-1 $-1 $517 436 #
coedge $-1 $628 $522 $525 $597 forward $560 $-1 #
edge_name-twe-attrib $-1 $-1 $-1 $523 41 24576 #
straight-curve $-1 -1.875363396181070064 -1.734723475976807094e-18 0.1775066050205360013 -0.9993394979464320649 0 0.03633961810714300689 I I #
coedge $-1 $525 $524 $538 $606 reversed $526 $-1 #
edge $641 $528 1.570796326794911879 $642 3.141592653589793116 $525 $643 forward 7 unknown #
loop_type-twe-attrib $-1 $-1 $-1 $526 0 #
point $-1 -0.2771803770864285088 0 0.1193908588716400682 #
edge_name-twe-attrib $-1 $-1 $-1 $530 50 24576 #
vertex $-1 $563 $644 #
ellipse-curve $-1 -0.2149999999999999967 0.01000000000000000021 0.1793512287484259893 0 0 -1 0.01000000000000000021 0 0 1 I I #
face_name-twe-attrib $-1 $-1 $-1 $532 27 #
cone-surface $645 -0.2149999999999999967 0.01000000000000000021 0.1793512287484259893 0 0 -1 0 -0.01000000000000000021 0 1 I I 0 1 0.01000000000000000021 forward I I I I #
coedge $-1 $538 $537 $626 $646 forward $320 $-1 #
edge $647 $642 -1.607143947813916229 $601 -0 $596 $648 reversed 7 unknown #
edge_name-twe-attrib $-1 $-1 $-1 $540 15 20480 #
straight-curve $-1 -0.2250000000000000056 0 0.1793512287484259893 0 1 0 I I #
coedge $-1 $627 $626 $541 $610 forward $472 $-1 #
edge $649 $553 -1.599239319949614657 $612 -0.01037024574968374233 $541 $650 reversed 7 unknown #
edge_name-twe-attrib $-1 $-1 $-1 $543 32 24576 #
vertex $-1 $632 $651 #
ellipse-curve $652 -1.864999999999999991 0.1774999999999999911 0.1771297542503149913 -0.9993394979464321759 0 0.03633961810714300689 0 0.01000000000000000021 0 1 I I #
cur-twe-attrib $-1 $-1 $-1 $547 465 #
surf-twe-attrib $-1 $-1 $-1 $549 474 #
edge_name-twe-attrib $-1 $-1 $-1 $551 34 24576 #
ellipse-curve $-1 -0.2750000000000000222 0.1774999999999999911 0.1793512287484259893 0 1 0 0.04999999999999999584 0 0 1 I I #
point $-1 -0.2768169809053571129 0.1774999999999999911 0.1293842538511042473 #
face_name-twe-attrib $-1 $-1 $-1 $559 26 #
torus-surface $653 -0.2750000000000000222 0.01000000000000000021 0.1793512287484259893 0 1 0 0.05999999999999999084 0.01000000000000000021 0 0 1 forward_v I I I I #
loop_type-twe-attrib $-1 $-1 $-1 $560 0 #
surf-twe-attrib $-1 $-1 $-1 $561 488 #
edge_name-twe-attrib $-1 $-1 $-1 $563 49 24576 #
straight-curve $-1 -0.2250000000000000056 0.01000000000000000021 0.1793512287484259615 0 0 -1 I I #
surf-twe-attrib $-1 $-1 $-1 $567 499 #
coedge $-1 $609 $569 $605 $646 reversed $472 $-1 #
coedge $-1 $569 $609 $573 $632 forward $472 $-1 #
coedge $-1 $571 $593 $569 $629 forward $560 $-1 #
edge $654 $642 -1.599239319949614657 $575 -0.01037024574968374233 $628 $655 forward 7 unknown #
edge_name-twe-attrib $-1 $-1 $-1 $572 43 24576 #
ellipse-curve $656 -1.864999999999999991 0.01000000000000000021 0.1771297542503149913 -0.9993394979464315098 0 0.03633961810716198476 0.0003633961810716199799 0 0.0099933949794643092 1 I I #
edge $657 $612 -0.1774999999999999911 $575 -0.01000000000000000021 $573 $658 forward 7 unknown #
point $-1 -1.864636603818928595 0.01000000000000000021 0.1871231492297792121 #
cur-twe-attrib $-1 $-1 $-1 $576 507 #
edge_name-twe-attrib $-1 $-1 $-1 $580 52 24576 #
ellipse-curve $659 -1.864999999999999991 0.1774999999999999911 0.1771297542503149913 0 1 0 0.0003633961810713999953 0 0.009993394979464319608 1 I I #
face_name-twe-attrib $-1 $-1 $-1 $582 28 #
cone-surface $660 -1.864999999999999991 0 0.1771297542503149913 0 -1 0 0.0003633961810714001037 0 0.009993394979464323077 1 I I 0 1 0.009999999999999996739 forward I I I I #
point $-1 -1.864999999999999991 -1.734723475976807094e-18 0.1771297542503152689 #
cur-twe-attrib $-1 $-1 $-1 $586 519 #
edge_name-twe-attrib $-1 $-1 $-1 $597 45 24576 #
vertex $-1 $597 $661 #
ellipse-curve $-1 -0.2771803770864285088 0.01000000000000000021 0.1193908588716399155 -0.9993394979464321759 0 0.03633961810714135543 -0.0003633961810714135478 0 -0.009993394979464321343 1 I I #
point $-1 -0.2250000000000000056 0.009999999999999998473 0.1793512287484259893 #
surf-twe-attrib $-1 $-1 $-1 $604 564 #
edge $662 $553 -0.1774999999999999911 $642 -0.009999999999999998473 $605 $663 reversed 7 unknown #
edge_name-twe-attrib $-1 $-1 $-1 $606 44 24576 #
ellipse-curve $-1 -0.2750000000000000222 0.01000000000000000021 0.1793512287484259893 0 1 0 0.04999999999999999584 0 0 1 I I #
edge_name-twe-attrib $-1 $-1 $-1 $610 33 24576 #
straight-curve $-1 -1.874999999999998668 0.1774999999999999911 0.1874999999999999445 0.9993394979464320649 0 -0.03633961810714300689 I I #
point $-1 -1.864636603818928595 0.1774999999999999911 0.1871231492297792121 #
cur-twe-attrib $-1 $-1 $-1 $613 577 #
surf-twe-attrib $-1 $-1 $-1 $620 596 #
edge_name-twe-attrib $-1 $-1 $-1 $629 42 24576 #
straight-curve $-1 -1.874999999999998668 0.01000000000000000021 0.1874999999999999445 -0.9993394979464320649 0 0.03633961810714300689 I I #
cur-twe-attrib $-1 $-1 $-1 $631 610 #
edge_name-twe-attrib $-1 $-1 $-1 $632 51 24576 #
straight-curve $-1 -1.864636603818928595 0 0.1871231492297792398 0 -1 0 I I #
cur-twe-attrib $-1 $-1 $-1 $636 618 #
surf-twe-attrib $-1 $-1 $-1 $638 620 #
point $-1 -0.2768169809053571129 0.009999999999999998473 0.1293842538511042473 #
edge_name-twe-attrib $-1 $-1 $-1 $646 16 20480 #
straight-curve $-1 -0.2768169809053571129 0 0.1293842538511038587 0 1 0 I I #
End-of-ACIS-data 