104 724 0 0                             
body $-1 $1 $-1 $2 #
lump $-1 $-1 $3 $0 #
transform $-1 1 0 0 0 1 0 0 0 1 0 0 0 1 0 0 0 #
shell $-1 $-1 $-1 $4 $1 #
face $5 $6 $7 $3 $-1 $8 0 #
face_name-twe-attrib $-1 $-1 $-1 $4 1 #
face $9 $10 $11 $3 $-1 $12 1 #
loop $13 $14 $15 $4 #
plane-surface $16 0 0.1875 0 0 1 0 0 0 1 0 #
face_name-twe-attrib $-1 $-1 $-1 $6 2 #
face $17 $18 $19 $3 $-1 $20 0 #
loop $21 $22 $23 $6 #
cone-surface $24 0 0 0 0 1 0 -0.07815 0 0 1 0 1 0 #
loop_type-twe-attrib $-1 $-1 $-1 $7 1 #
loop $25 $-1 $26 $4 #
coedge $-1 $15 $15 $27 $28 1 $7 $-1 #
surf-twe-attrib $-1 $-1 $-1 $8 4 #
face_name-twe-attrib $-1 $-1 $-1 $10 3 #
face $29 $30 $31 $3 $-1 $32 0 #
loop $33 $-1 $34 $10 #
plane-surface $35 0.375 0 0.1875 1 0 0 0 0 -1 0 #
loop_type-twe-attrib $-1 $-1 $-1 $11 0 #
loop $36 $-1 $27 $6 #
coedge $-1 $23 $23 $37 $38 1 $11 $-1 #
surf-twe-attrib $-1 $-1 $-1 $12 6 #
loop_type-twe-attrib $-1 $-1 $-1 $14 0 #
coedge $-1 $39 $40 $41 $42 1 $14 $-1 #
coedge $-1 $27 $27 $15 $28 0 $22 $-1 #
edge $43 $44 $44 $27 $45 0 #
face_name-twe-attrib $-1 $-1 $-1 $18 4 #
face $46 $47 $48 $3 $-1 $49 0 #
loop $50 $-1 $51 $18 #
plane-surface $52 -0.3125 0 -0.9375 -1 0 0 0 0 1 0 #
loop_type-twe-attrib $-1 $-1 $-1 $19 0 #
coedge $-1 $53 $54 $55 $56 1 $19 $-1 #
surf-twe-attrib $-1 $-1 $-1 $20 10 #
loop_type-twe-attrib $-1 $-1 $-1 $22 1 #
coedge $-1 $37 $37 $23 $38 0 $57 $-1 #
edge $58 $59 $59 $37 $60 0 #
coedge $-1 $61 $26 $62 $63 0 $14 $-1 #
coedge $-1 $26 $64 $53 $65 0 $14 $-1 #
coedge $-1 $55 $66 $26 $42 0 $67 $-1 #
edge $68 $69 $70 $41 $71 0 #
edge_name-twe-attrib $-1 $-1 $-1 $28 1 8704 #
vertex $-1 $28 $72 #
ellipse-curve $73 0 0.1875 0 0 1 0 -0.07815 0 0 1 #
face_name-twe-attrib $-1 $-1 $-1 $30 5 #
face $74 $75 $76 $3 $-1 $77 0 #
loop $78 $-1 $79 $30 #
plane-surface $80 -0.3125 0 -0.134475612028679 0.113203213767907 0 -0.993571855676587 -0.993571855676587 0 -0.113203213767907 0 #
loop_type-twe-attrib $-1 $-1 $-1 $31 0 #
coedge $-1 $81 $82 $83 $84 0 $31 $-1 #
surf-twe-attrib $-1 $-1 $-1 $32 18 #
coedge $-1 $85 $34 $40 $65 1 $19 $-1 #
coedge $-1 $34 $85 $86 $87 1 $19 $-1 #
coedge $-1 $88 $41 $34 $56 0 $67 $-1 #
edge $89 $70 $90 $55 $91 0 #
loop $92 $93 $37 $94 #
edge_name-twe-attrib $-1 $-1 $-1 $38 9 8704 #
vertex $-1 $38 $95 #
ellipse-curve $96 0 0 0 0 1 0 0.07815 0 0 1 #
coedge $-1 $97 $39 $98 $99 0 $14 $-1 #
coedge $-1 $100 $101 $39 $63 1 $102 $-1 #
edge $103 $69 $104 $62 $105 0 #
coedge $-1 $40 $106 $107 $108 1 $14 $-1 #
edge $109 $110 $70 $53 $111 0 #
coedge $-1 $41 $83 $100 $112 1 $67 $-1 #
loop $113 $-1 $55 $114 #
edge_name-twe-attrib $-1 $-1 $-1 $42 8 8704 #
vertex $-1 $63 $115 #
vertex $-1 $56 $116 #
ellipse-curve $117 -0.02617057942159 0.1875 -0.039038522315966 0 -1 0 0.40117057942159 0 -0.240644707511837 1 #
point $-1 -0.07815 0.1875 0 #
cur-twe-attrib $-1 $-1 $-1 $45 28 #
face_name-twe-attrib $-1 $-1 $-1 $47 6 #
face $118 $119 $120 $3 $-1 $121 0 #
loop $122 $-1 $123 $47 #
torus-surface $124 -1.865 0.1775 -0.301295946589994 0.746057375061701 0 -0.665881666000833 0 0.01 -0.665881666000833 0 -0.746057375061701 0 #
loop_type-twe-attrib $-1 $-1 $-1 $48 0 #
coedge $-1 $125 $126 $127 $128 1 $48 $-1 #
surf-twe-attrib $-1 $-1 $-1 $49 30 #
coedge $-1 $129 $51 $130 $131 1 $31 $-1 #
coedge $-1 $51 $129 $132 $133 1 $31 $-1 #
coedge $-1 $66 $134 $51 $84 1 $67 $-1 #
edge $135 $136 $137 $83 $138 0 #
coedge $-1 $54 $53 $139 $140 0 $19 $-1 #
coedge $-1 $141 $142 $54 $87 0 $93 $-1 #
edge $143 $90 $144 $86 $145 0 #
coedge $-1 $134 $55 $142 $146 0 $67 $-1 #
edge_name-twe-attrib $-1 $-1 $-1 $56 6 8448 #
vertex $-1 $146 $147 #
straight-curve $148 0.375 0 -0.279683229827803 2.07241631263363e-15 -1 -2.96059473233375e-16 #
loop_type-twe-attrib $-1 $-1 $-1 $57 1 #
loop $149 $-1 $86 $94 #
face $150 $151 $57 $3 $-1 $152 1 #
point $-1 -0.07815 0 0 #
cur-twe-attrib $-1 $-1 $-1 $60 38 #
coedge $-1 $153 $61 $154 $155 1 $14 $-1 #
coedge $-1 $156 $157 $61 $99 1 $158 $-1 #
edge $159 $104 $160 $98 $161 0 #
coedge $-1 $132 $62 $66 $112 0 $102 $-1 #
coedge $-1 $62 $132 $156 $162 0 $102 $-1 #
loop $163 $-1 $62 $164 #
edge_name-twe-attrib $-1 $-1 $-1 $63 23 24576 #
vertex $-1 $162 $165 #
straight-curve $166 -0.3025 0.1875 -0.190495879078708 1.47361174010537e-15 0 1 #
coedge $-1 $64 $167 $168 $169 1 $14 $-1 #
coedge $-1 $170 $139 $64 $108 0 $171 $-1 #
edge $172 $110 $173 $107 $174 0 #
edge_name-twe-attrib $-1 $-1 $-1 $65 2 8704 #
vertex $-1 $140 $175 #
straight-curve $176 0.375 0.1875 -0.279683229827803 -8.31746590651443e-16 0 -1 #
edge $177 $69 $136 $100 $178 0 #
loop_type-twe-attrib $-1 $-1 $-1 $67 0 #
face $179 $94 $67 $3 $-1 $180 0 #
point $-1 -0.3025 0.1875 -0.416516681114209 #
point $-1 0.375 0.1875 -0.279683229827803 #
cur-twe-attrib $-1 $-1 $-1 $71 42 #
face_name-twe-attrib $-1 $-1 $-1 $75 7 #
face $181 $182 $183 $3 $-1 $184 0 #
loop $185 $-1 $186 $75 #
plane-surface $187 -1.875 0 -0.3125 -1 0 0 0 0 1 0 #
loop_type-twe-attrib $-1 $-1 $-1 $76 0 #
coedge $-1 $188 $189 $190 $191 0 $76 $-1 #
surf-twe-attrib $-1 $-1 $-1 $77 47 #
coedge $-1 $192 $79 $193 $194 1 $48 $-1 #
coedge $-1 $79 $192 $195 $196 0 $48 $-1 #
coedge $-1 $197 $198 $79 $128 0 $199 $-1 #
edge $200 $201 $202 $127 $203 0 #
coedge $-1 $82 $81 $204 $205 1 $31 $-1 #
coedge $-1 $206 $207 $81 $131 0 $208 $-1 #
edge $209 $210 $137 $130 $211 0 #
coedge $-1 $101 $100 $82 $133 0 $102 $-1 #
edge $212 $136 $213 $132 $214 0 #
coedge $-1 $83 $88 $206 $215 0 $67 $-1 #
edge_name-twe-attrib $-1 $-1 $-1 $84 7 8448 #
vertex $-1 $133 $216 #
vertex $-1 $131 $217 #
straight-curve $218 -0.3125 0.01 -0.408988751344336 0 -1 0 #
coedge $-1 $107 $219 $85 $140 1 $171 $-1 #
edge $220 $110 $144 $139 $221 0 #
coedge $-1 $222 $86 $219 $223 0 $93 $-1 #
coedge $-1 $86 $224 $88 $146 1 $93 $-1 #
edge_name-twe-attrib $-1 $-1 $-1 $87 10 8704 #
vertex $-1 $223 $225 #
straight-curve $226 0.375 0 0.1875 0 0 1 #
edge $227 $90 $228 $142 $229 0 #
point $-1 0.375 0 -0.279683229827803 #
cur-twe-attrib $-1 $-1 $-1 $91 56 #
loop_type-twe-attrib $-1 $-1 $-1 $93 0 #
face_name-twe-attrib $-1 $-1 $-1 $94 15 #
face $230 $231 $232 $3 $-1 $233 1 #
plane-surface $234 0 0 0 0 1 0 0 0 1 0 #
coedge $-1 $235 $97 $236 $237 1 $14 $-1 #
coedge $-1 $238 $190 $97 $155 0 $239 $-1 #
edge $240 $241 $160 $154 $242 0 #
coedge $-1 $243 $98 $101 $162 1 $158 $-1 #
coedge $-1 $98 $243 $238 $244 1 $158 $-1 #
loop $245 $-1 $243 $246 #
edge_name-twe-attrib $-1 $-1 $-1 $99 22 24576 #
vertex $-1 $244 $247 #
ellipse-curve $248 -0.3625 0.1875 -0.190495879078708 0 -1 0 -0.00679219282607406 0 0.0596143113405953 1 #
edge $249 $213 $104 $101 $250 0 #
loop_type-twe-attrib $-1 $-1 $-1 $102 0 #
face $251 $252 $102 $3 $-1 $253 0 #
point $-1 -0.3025 0.1875 -0.190495879078708 #
cur-twe-attrib $-1 $-1 $-1 $105 63 #
coedge $-1 $106 $235 $254 $255 0 $14 $-1 #
coedge $-1 $256 $257 $106 $169 0 $258 $-1 #
edge $259 $173 $260 $168 $261 0 #
coedge $-1 $262 $107 $257 $263 1 $171 $-1 #
loop $264 $-1 $219 $265 #
edge_name-twe-attrib $-1 $-1 $-1 $108 4 8704 #
vertex $-1 $263 $266 #
straight-curve $267 -0.215 0.1875 0.1875 -1 0 0 #
point $-1 0.375 0.1875 0.1875 #
cur-twe-attrib $-1 $-1 $-1 $111 65 #
edge_name-twe-attrib $-1 $-1 $-1 $112 24 8448 #
intcurve-curve $268 0 { exactcur nubs 3 open 7 
	0 3 0.00366838617864565 1 0.00711676796020122 1 0.0102364980012992 1 0.0129881912361648 1 
	0.0154266744473149 1 0.0176775670204225 3 
	-0.3025 0.1875 -0.416516681114209 
	-0.303486676124896 0.1875 -0.415794393915503 
	-0.305403389562525 0.187216250684329 -0.414379478128564 
	-0.307985566216105 0.186015215229364 -0.412443000566031 
	-0.310046526607842 0.184237009664823 -0.410876875246537 
	-0.311491370656397 0.18210488907051 -0.409768063580167 
	-0.312320355213573 0.179821755549778 -0.409127888329599 
	-0.3125 0.178250297524369 -0.408988751344336 
	-0.3125 0.1775 -0.408988751344336 
	0 
	null_surface 
	null_surface 
	nullbs 
	nullbs 
	} #
face_name-twe-attrib $-1 $-1 $-1 $114 14 #
cone-surface $269 -0.02617057942159 0.1875 -0.039038522315966 0 -1 0 0.467811617049974 0 0 1 0 1 0 #
face_name-twe-attrib $-1 $-1 $-1 $119 8 #
face $270 $271 $272 $3 $-1 $273 0 #
loop $274 $-1 $275 $119 #
torus-surface $276 -1.865 0.01 -0.301295946589994 -0.746057375061703 0 0.665881666000831 0 0.01 0.665881666000831 0 0.746057375061703 0 #
loop_type-twe-attrib $-1 $-1 $-1 $120 0 #
coedge $-1 $277 $278 $279 $280 1 $120 $-1 #
surf-twe-attrib $-1 $-1 $-1 $121 75 #
coedge $-1 $189 $123 $281 $282 0 $76 $-1 #
coedge $-1 $123 $188 $283 $284 0 $76 $-1 #
coedge $-1 $154 $285 $123 $191 1 $239 $-1 #
edge $286 $241 $287 $190 $288 0 #
coedge $-1 $126 $125 $285 $289 0 $48 $-1 #
coedge $-1 $290 $281 $125 $194 0 $291 $-1 #
edge $292 $287 $201 $193 $293 0 #
coedge $-1 $294 $295 $126 $196 1 $232 $-1 #
edge $296 $297 $202 $195 $298 0 #
coedge $-1 $299 $127 $300 $301 1 $199 $-1 #
coedge $-1 $127 $299 $302 $303 1 $199 $-1 #
loop $304 $-1 $299 $305 #
edge_name-twe-attrib $-1 $-1 $-1 $128 57 24576 #
vertex $-1 $194 $306 #
vertex $-1 $301 $307 #
straight-curve $308 -0.368160160688395 0.01 -0.140817286294878 0.993571855676587 -2.30469135060361e-18 0.113203213767907 #
coedge $-1 $295 $294 $129 $205 0 $232 $-1 #
edge $309 $213 $210 $204 $310 0 #
coedge $-1 $311 $130 $134 $215 1 $208 $-1 #
coedge $-1 $130 $311 $312 $313 1 $208 $-1 #
loop $314 $-1 $311 $315 #
edge_name-twe-attrib $-1 $-1 $-1 $131 63 24576 #
vertex $-1 $313 $316 #
straight-curve $317 -0.3125 0.01 -0.408988751344336 0 0 -1 #
edge_name-twe-attrib $-1 $-1 $-1 $133 25 24576 #
vertex $-1 $133 $318 #
straight-curve $319 -0.3125 0.1775 -0.190495879078708 0 0 1 #
edge $320 $228 $137 $206 $321 0 #
point $-1 -0.3125 0.1775 -0.408988751344336 #
point $-1 -0.3125 0.01 -0.408988751344336 #
cur-twe-attrib $-1 $-1 $-1 $138 84 #
coedge $-1 $139 $322 $141 $223 1 $171 $-1 #
edge_name-twe-attrib $-1 $-1 $-1 $140 3 8704 #
straight-curve $323 0.375 0 0.1875 0 -1 0 #
coedge $-1 $324 $141 $325 $326 0 $93 $-1 #
edge $327 $144 $328 $141 $329 0 #
coedge $-1 $142 $330 $311 $331 0 $93 $-1 #
point $-1 0.375 0 0.1875 #
cur-twe-attrib $-1 $-1 $-1 $145 87 #
edge_name-twe-attrib $-1 $-1 $-1 $146 12 8704 #
vertex $-1 $331 $332 #
ellipse-curve $333 -0.02617057942159 0 -0.039038522315966 0 1 0 -0.27632942057841 0 -0.377478158798243 1 #
face_name-twe-attrib $-1 $-1 $-1 $151 16 #
face $334 $335 $336 $3 $-1 $337 1 #
loop $338 $-1 $195 $151 #
cone-surface $339 -0.3625 0 -0.190495879078708 0 1 0 -0.0056601606883953 0 0.0496785927838294 1 0 1 0 #
surf-twe-attrib $-1 $-1 $-1 $152 94 #
coedge $-1 $167 $153 $340 $341 1 $14 $-1 #
coedge $-1 $283 $342 $153 $237 0 $343 $-1 #
edge $344 $345 $241 $236 $346 0 #
coedge $-1 $285 $154 $157 $244 0 $239 $-1 #
loop $347 $-1 $154 $335 #
edge_name-twe-attrib $-1 $-1 $-1 $155 17 24576 #
vertex $-1 $237 $348 #
straight-curve $349 -0.369292192826074 0.1875 -0.130881567738113 0.993571855676588 0 0.113203213767906 #
coedge $-1 $157 $156 $294 $350 0 $158 $-1 #
edge $351 $160 $297 $157 $352 0 #
loop_type-twe-attrib $-1 $-1 $-1 $158 0 #
face $353 $164 $158 $3 $-1 $354 0 #
point $-1 -0.369292192826074 0.1875 -0.130881567738113 #
cur-twe-attrib $-1 $-1 $-1 $161 99 #
edge_name-twe-attrib $-1 $-1 $-1 $162 26 24576 #
ellipse-curve $355 -0.3025 0.1775 -0.190495879078708 0 0 -1 0 0.01 0 1 #
face_name-twe-attrib $-1 $-1 $-1 $164 20 #
face $356 $357 $343 $3 $-1 $358 0 #
cone-surface $359 -0.3025 0.1775 -0.190495879078708 0 0 1 0 0.01 0 1 0 1 0 #
coedge $-1 $360 $361 $167 $255 1 $362 $-1 #
edge $363 $364 $260 $254 $365 0 #
coedge $-1 $366 $168 $361 $367 1 $258 $-1 #
coedge $-1 $168 $366 $170 $263 0 $258 $-1 #
loop $368 $-1 $168 $369 #
edge_name-twe-attrib $-1 $-1 $-1 $169 37 24576 #
vertex $-1 $367 $370 #
straight-curve $371 -0.215 0.1875 0.179351228748426 -3.40610562730763e-15 0 -1 #
coedge $-1 $322 $170 $372 $373 0 $171 $-1 #
edge $374 $375 $173 $257 $376 0 #
loop_type-twe-attrib $-1 $-1 $-1 $171 0 #
face $377 $114 $171 $3 $-1 $378 0 #
point $-1 -0.215 0.1875 0.1875 #
cur-twe-attrib $-1 $-1 $-1 $174 108 #
cur-twe-attrib $-1 $-1 $-1 $178 112 #
surf-twe-attrib $-1 $-1 $-1 $180 114 #
face_name-twe-attrib $-1 $-1 $-1 $182 9 #
face $379 $380 $381 $3 $-1 $382 0 #
loop $383 $-1 $384 $182 #
torus-surface $385 -1.865 0.01 0.177129754250315 -0.707106781186547 0.707106781186548 2e-15 0 0.01 2.82842712474619e-15 0 1 0 #
loop_type-twe-attrib $-1 $-1 $-1 $183 0 #
coedge $-1 $386 $302 $387 $388 0 $183 $-1 #
surf-twe-attrib $-1 $-1 $-1 $184 119 #
coedge $-1 $389 $186 $390 $391 1 $120 $-1 #
coedge $-1 $186 $389 $392 $393 0 $120 $-1 #
coedge $-1 $387 $394 $186 $280 0 $395 $-1 #
edge $396 $397 $398 $279 $399 0 #
coedge $-1 $193 $392 $188 $282 1 $291 $-1 #
edge $400 $287 $401 $281 $402 0 #
coedge $-1 $403 $236 $189 $284 1 $343 $-1 #
edge $404 $401 $241 $283 $405 0 #
coedge $-1 $190 $238 $192 $289 1 $239 $-1 #
edge_name-twe-attrib $-1 $-1 $-1 $191 19 24576 #
vertex $-1 $194 $406 #
ellipse-curve $407 -1.865 0.1775 -0.301295946589994 -0.993571855676585 0 -0.113203213767932 0.00113203213767932 0 -0.00993571855676584 1 #
edge $408 $287 $297 $285 $409 0 #
coedge $-1 $392 $193 $386 $410 1 $291 $-1 #
loop $411 $-1 $392 $412 #
edge_name-twe-attrib $-1 $-1 $-1 $194 71 24576 #
straight-curve $413 -1.86386796786232 0.01 -0.31123166514676 -1.32563943238825e-15 -1 -3.31409858097062e-16 #
coedge $-1 $204 $195 $243 $350 1 $232 $-1 #
coedge $-1 $195 $204 $414 $415 0 $232 $-1 #
edge_name-twe-attrib $-1 $-1 $-1 $196 13 20480 #
vertex $-1 $244 $416 #
straight-curve $417 -0.368160160688395 0.01 -0.140817286294878 0 -1 0 #
coedge $-1 $198 $197 $418 $419 1 $199 $-1 #
coedge $-1 $414 $420 $197 $301 0 $421 $-1 #
edge $422 $423 $202 $300 $424 0 #
coedge $-1 $275 $386 $198 $303 0 $183 $-1 #
edge $425 $201 $426 $198 $427 0 #
loop_type-twe-attrib $-1 $-1 $-1 $199 0 #
face $428 $429 $199 $3 $-1 $430 0 #
point $-1 -1.86386796786232 0.01 -0.31123166514676 #
point $-1 -0.368160160688395 0.01 -0.140817286294878 #
cur-twe-attrib $-1 $-1 $-1 $203 128 #
edge_name-twe-attrib $-1 $-1 $-1 $205 14 20480 #
straight-curve $431 -0.3125 0.01 -0.190495879078708 0 -1 0 #
coedge $-1 $207 $206 $224 $331 1 $208 $-1 #
coedge $-1 $420 $414 $207 $313 0 $421 $-1 #
edge $432 $210 $433 $207 $434 0 #
loop_type-twe-attrib $-1 $-1 $-1 $208 0 #
face $435 $436 $208 $3 $-1 $437 0 #
point $-1 -0.3125 0.01 -0.190495879078708 #
cur-twe-attrib $-1 $-1 $-1 $211 131 #
point $-1 -0.3125 0.1775 -0.190495879078708 #
cur-twe-attrib $-1 $-1 $-1 $214 133 #
edge_name-twe-attrib $-1 $-1 $-1 $215 64 8448 #
intcurve-curve $438 0 { exactcur nubs 3 open 7 
	0 3 0.00366838617864565 1 0.00711676796020122 1 0.0102364980012992 1 0.0129881912361648 1 
	0.0154266744473146 1 0.0176775670204223 3 
	-0.3025 0 -0.416516681114209 
	-0.303486676124896 0 -0.415794393915503 
	-0.305403389562525 0.000283749315670795 -0.414379478128564 
	-0.307985566216105 0.00148478477063562 -0.412443000566031 
	-0.310046526607842 0.00326299033517713 -0.410876875246537 
	-0.311491370656397 0.00539511092948997 -0.409768063580167 
	-0.312320355213573 0.00767824445022254 -0.409127888329601 
	-0.3125 0.00924970247563077 -0.408988751344336 
	-0.3125 0.01 -0.408988751344336 
	0 
	null_surface 
	null_surface 
	nullbs 
	nullbs 
	} #
coedge $-1 $219 $262 $439 $440 0 $171 $-1 #
cur-twe-attrib $-1 $-1 $-1 $221 140 #
coedge $-1 $441 $222 $442 $443 1 $93 $-1 #
coedge $-1 $439 $444 $222 $326 1 $445 $-1 #
edge $446 $328 $447 $325 $448 0 #
edge_name-twe-attrib $-1 $-1 $-1 $223 11 8704 #
vertex $-1 $440 $449 #
straight-curve $450 -0.215 0 0.1875 -1 0 0 #
coedge $-1 $224 $418 $420 $451 1 $93 $-1 #
edge $452 $433 $228 $311 $453 0 #
point $-1 -0.3025 0 -0.416516681114209 #
cur-twe-attrib $-1 $-1 $-1 $229 146 #
face_name-twe-attrib $-1 $-1 $-1 $231 17 #
face $454 $246 $239 $3 $-1 $455 0 #
loop $456 $-1 $457 $231 #
cone-surface $458 -0.275 0 0.179351228748426 0 1 0 0.05 0 0 1 0 1 0 #
loop_type-twe-attrib $-1 $-1 $-1 $232 0 #
surf-twe-attrib $-1 $-1 $-1 $233 151 #
coedge $-1 $459 $460 $235 $341 0 $461 $-1 #
edge $462 $364 $345 $340 $463 0 #
coedge $-1 $236 $403 $464 $465 1 $343 $-1 #
loop $466 $-1 $236 $252 #
edge_name-twe-attrib $-1 $-1 $-1 $237 27 24576 #
vertex $-1 $341 $467 #
straight-curve $468 -1.865 0.1875 -0.301295946589994 0 0 -1 #
loop_type-twe-attrib $-1 $-1 $-1 $239 0 #
point $-1 -1.865 0.1875 -0.301295946589994 #
cur-twe-attrib $-1 $-1 $-1 $242 155 #
edge $469 $213 $297 $243 $470 0 #
edge_name-twe-attrib $-1 $-1 $-1 $244 21 24576 #
ellipse-curve $471 -0.369292192826074 0.1775 -0.130881567738113 -0.993571855676587 0 -0.11320321376791 0.0011320321376791 0 -0.00993571855676587 1 #
face_name-twe-attrib $-1 $-1 $-1 $246 19 #
torus-surface $472 -0.3625 0.1775 -0.190495879078708 0 1 0 0.06 0.01 0 0 1 0 #
cur-twe-attrib $-1 $-1 $-1 $250 162 #
face_name-twe-attrib $-1 $-1 $-1 $252 21 #
face $473 $474 $461 $3 $-1 $475 0 #
cone-surface $476 -1.865 0.1775 -0.3125 0 0 1 0 0.01 0 1 0 1 0 #
surf-twe-attrib $-1 $-1 $-1 $253 164 #
coedge $-1 $477 $254 $460 $478 0 $362 $-1 #
coedge $-1 $254 $477 $256 $367 0 $362 $-1 #
loop $479 $-1 $477 $474 #
edge_name-twe-attrib $-1 $-1 $-1 $255 35 24576 #
vertex $-1 $255 $480 #
ellipse-curve $481 -0.275 0.1875 0.179351228748426 0 -1 0 0.06 0 0 1 #
coedge $-1 $257 $256 $482 $483 1 $258 $-1 #
edge $484 $485 $260 $256 $486 0 #
loop_type-twe-attrib $-1 $-1 $-1 $258 0 #
face $487 $488 $258 $3 $-1 $489 0 #
point $-1 -0.215 0.1875 0.179351228748426 #
cur-twe-attrib $-1 $-1 $-1 $261 169 #
coedge $-1 $482 $490 $262 $373 1 $491 $-1 #
edge $492 $375 $493 $262 $494 0 #
edge_name-twe-attrib $-1 $-1 $-1 $263 40 8704 #
vertex $-1 $483 $495 #
ellipse-curve $496 -0.215 0.1775 0.1875 0 0 -1 0 0.01 0 1 #
face_name-twe-attrib $-1 $-1 $-1 $265 13 #
plane-surface $497 -0.225 0 0.1875 0 0 1 1 0 0 0 #
face_name-twe-attrib $-1 $-1 $-1 $271 10 #
face $498 $499 $500 $3 $-1 $501 0 #
loop $502 $-1 $464 $271 #
torus-surface $503 -1.865 0.1775 0.177129754250315 -0.719840127426619 0 -0.694139892922478 0 0.01 -0.694139892922478 0 0.719840127426619 0 #
loop_type-twe-attrib $-1 $-1 $-1 $272 0 #
coedge $-1 $504 $505 $506 $507 0 $272 $-1 #
surf-twe-attrib $-1 $-1 $-1 $273 182 #
coedge $-1 $302 $275 $290 $410 0 $183 $-1 #
coedge $-1 $508 $279 $275 $388 1 $395 $-1 #
edge $509 $426 $398 $387 $510 0 #
coedge $-1 $278 $277 $403 $511 0 $120 $-1 #
coedge $-1 $506 $512 $277 $391 0 $513 $-1 #
edge $514 $515 $397 $390 $516 0 #
coedge $-1 $281 $290 $278 $393 1 $291 $-1 #
edge $517 $401 $398 $392 $518 0 #
coedge $-1 $279 $508 $504 $519 1 $395 $-1 #
loop $520 $-1 $508 $436 #
edge_name-twe-attrib $-1 $-1 $-1 $280 67 24576 #
vertex $-1 $280 $521 #
vertex $-1 $393 $522 #
straight-curve $523 -1.875 0.01 -0.301295946589994 0 0 -1 #
edge_name-twe-attrib $-1 $-1 $-1 $282 70 24576 #
vertex $-1 $393 $524 #
ellipse-curve $525 -1.865 0.1775 -0.301295946589994 0 1 0 -0.01 0 0 1 #
coedge $-1 $342 $283 $389 $511 1 $343 $-1 #
edge_name-twe-attrib $-1 $-1 $-1 $284 28 24576 #
ellipse-curve $526 -1.865 0.1775 -0.301295946589994 0 0 -1 0 0.01 0 1 #
point $-1 -1.86386796786232 0.1775 -0.31123166514676 #
cur-twe-attrib $-1 $-1 $-1 $288 191 #
edge_name-twe-attrib $-1 $-1 $-1 $289 18 24576 #
straight-curve $527 -0.368160160688395 0.1775 -0.140817286294878 0.993571855676587 0 0.113203213767907 #
edge $528 $398 $201 $290 $529 0 #
loop_type-twe-attrib $-1 $-1 $-1 $291 0 #
face $530 $-1 $291 $3 $-1 $531 0 #
cur-twe-attrib $-1 $-1 $-1 $293 194 #
coedge $-1 $312 $300 $295 $415 1 $421 $-1 #
edge $532 $210 $202 $414 $533 0 #
point $-1 -0.368160160688395 0.1775 -0.140817286294878 #
cur-twe-attrib $-1 $-1 $-1 $298 196 #
coedge $-1 $330 $534 $299 $419 0 $93 $-1 #
edge $535 $426 $423 $299 $536 0 #
coedge $-1 $300 $312 $330 $451 0 $421 $-1 #
loop $537 $-1 $414 $429 #
edge_name-twe-attrib $-1 $-1 $-1 $301 60 24576 #
vertex $-1 $451 $538 #
ellipse-curve $539 -0.369292192826074 0.01 -0.130881567738113 0.993571855676587 0 0.11320321376791 0.0011320321376791 0 -0.00993571855676587 1 #
edge_name-twe-attrib $-1 $-1 $-1 $303 56 24576 #
vertex $-1 $540 $541 #
ellipse-curve $542 -1.865 0.01 -0.301295946589994 -0.993571855676588 0 -0.113203213767907 0 -0.01 0 1 #
face_name-twe-attrib $-1 $-1 $-1 $305 29 #
face $543 $315 $421 $3 $-1 $544 0 #
cone-surface $545 -0.369292192826074 0.01 -0.130881567738113 0.993571855676588 0 0.113203213767907 0 -0.01 0 1 0 1 0 #
cur-twe-attrib $-1 $-1 $-1 $310 205 #
edge_name-twe-attrib $-1 $-1 $-1 $313 62 24576 #
vertex $-1 $313 $546 #
ellipse-curve $547 -0.3025 0.01 -0.190495879078708 0 0 1 0 -0.01 0 1 #
face_name-twe-attrib $-1 $-1 $-1 $315 31 #
face $548 $412 $395 $3 $-1 $549 0 #
cone-surface $550 -0.3025 0.01 -0.416516681114209 0 0 -1 0 -0.01 0 1 0 1 0 #
cur-twe-attrib $-1 $-1 $-1 $321 215 #
coedge $-1 $551 $325 $322 $440 1 $445 $-1 #
edge $552 $493 $328 $439 $553 0 #
coedge $-1 $534 $324 $554 $555 0 $93 $-1 #
coedge $-1 $556 $557 $324 $443 0 $558 $-1 #
edge $559 $560 $447 $442 $561 0 #
coedge $-1 $325 $551 $556 $562 0 $445 $-1 #
loop $563 $-1 $325 $564 #
edge_name-twe-attrib $-1 $-1 $-1 $326 47 24576 #
vertex $-1 $562 $565 #
straight-curve $566 -0.215 0 0.179351228748426 -3.40610562730763e-15 0 -1 #
point $-1 -0.215 0 0.1875 #
cur-twe-attrib $-1 $-1 $-1 $329 223 #
edge $567 $433 $423 $420 $568 0 #
edge_name-twe-attrib $-1 $-1 $-1 $331 61 24576 #
straight-curve $569 -0.3025 0 -0.416516681114209 2.45601956684229e-16 0 -1 #
face_name-twe-attrib $-1 $-1 $-1 $335 18 #
cone-surface $570 -0.369292192826074 0.1775 -0.130881567738113 -0.993571855676588 0 -0.113203213767907 0 0.01 0 1 0 1 0 #
loop_type-twe-attrib $-1 $-1 $-1 $336 0 #
coedge $-1 $571 $572 $573 $574 1 $336 $-1 #
surf-twe-attrib $-1 $-1 $-1 $337 231 #
coedge $-1 $575 $340 $576 $577 1 $461 $-1 #
coedge $-1 $340 $575 $360 $478 1 $461 $-1 #
loop $578 $-1 $340 $357 #
edge_name-twe-attrib $-1 $-1 $-1 $341 31 24576 #
straight-curve $579 -1.865 0.1875 0.177129754250315 -0.999339497946432 0 0.0363396181071428 #
coedge $-1 $580 $576 $342 $465 0 $381 $-1 #
edge $581 $345 $515 $342 $582 0 #
loop_type-twe-attrib $-1 $-1 $-1 $343 0 #
point $-1 -1.865 0.1875 0.177129754250315 #
cur-twe-attrib $-1 $-1 $-1 $346 237 #
edge_name-twe-attrib $-1 $-1 $-1 $350 20 24576 #
ellipse-curve $583 -0.3625 0.1775 -0.190495879078708 0 -1 0 -0.0056601606883953 0 0.0496785927838294 1 #
cur-twe-attrib $-1 $-1 $-1 $352 244 #
surf-twe-attrib $-1 $-1 $-1 $354 246 #
face_name-twe-attrib $-1 $-1 $-1 $357 22 #
face $584 $369 $362 $3 $-1 $585 0 #
cone-surface $586 -1.87536339618107 0.1775 0.177506605020536 0.999339497946432 0 -0.036339618107143 0 0.01 0 1 0 1 0 #
surf-twe-attrib $-1 $-1 $-1 $358 252 #
coedge $-1 $361 $360 $571 $587 0 $362 $-1 #
edge $588 $364 $589 $360 $590 0 #
loop_type-twe-attrib $-1 $-1 $-1 $362 0 #
point $-1 -0.277180377086429 0.1875 0.11939085887164 #
cur-twe-attrib $-1 $-1 $-1 $365 255 #
coedge $-1 $573 $372 $366 $483 0 $491 $-1 #
edge $591 $375 $485 $366 $592 0 #
edge_name-twe-attrib $-1 $-1 $-1 $367 38 24576 #
vertex $-1 $367 $593 #
ellipse-curve $594 -0.215 0.1775 0.179351228748426 0 0 -1 0 0.01 0 1 #
face_name-twe-attrib $-1 $-1 $-1 $369 24 #
face $595 $596 $597 $3 $-1 $598 0 #
cone-surface $599 -0.215 0.1775 0.179351228748426 0 0 1 0 0.01 0 1 0 1 0 #
coedge $-1 $372 $573 $551 $600 1 $491 $-1 #
loop $601 $-1 $490 $499 #
edge_name-twe-attrib $-1 $-1 $-1 $373 5 8704 #
vertex $-1 $440 $602 #
straight-curve $603 -0.225 0.01 0.1875 0 -1 0 #
point $-1 -0.225 0.1775 0.1875 #
cur-twe-attrib $-1 $-1 $-1 $376 263 #
surf-twe-attrib $-1 $-1 $-1 $378 265 #
face_name-twe-attrib $-1 $-1 $-1 $380 11 #
face $604 $265 $491 $3 $-1 $605 0 #
loop $606 $-1 $607 $380 #
plane-surface $608 -1.875 0 0.1875 0.036339618107143 0 0.999339497946432 0.999339497946432 0 -0.036339618107143 0 #
loop_type-twe-attrib $-1 $-1 $-1 $381 0 #
surf-twe-attrib $-1 $-1 $-1 $382 271 #
coedge $-1 $505 $384 $394 $519 0 $272 $-1 #
coedge $-1 $384 $504 $609 $610 0 $272 $-1 #
coedge $-1 $611 $390 $384 $507 1 $513 $-1 #
edge $612 $613 $397 $506 $614 0 #
coedge $-1 $394 $387 $534 $540 1 $395 $-1 #
edge_name-twe-attrib $-1 $-1 $-1 $388 68 24576 #
ellipse-curve $615 -1.865 0.01 -0.301295946589994 0 0 -1 -0.01 0 0 1 #
edge $616 $515 $401 $403 $617 0 #
coedge $-1 $390 $611 $580 $618 1 $513 $-1 #
loop $619 $-1 $611 $620 #
edge_name-twe-attrib $-1 $-1 $-1 $391 53 24576 #
vertex $-1 $391 $621 #
straight-curve $622 -1.875 0.01 0.177129754250315 0 -1 -3.31409858097062e-16 #
edge_name-twe-attrib $-1 $-1 $-1 $393 69 24576 #
straight-curve $623 -1.875 0.01 -0.301295946589994 0 -1 0 #
edge $624 $397 $625 $394 $626 0 #
loop_type-twe-attrib $-1 $-1 $-1 $395 0 #
point $-1 -1.875 0.01 0.177129754250315 #
point $-1 -1.875 0.01 -0.301295946589994 #
cur-twe-attrib $-1 $-1 $-1 $399 280 #
point $-1 -1.875 0.1775 -0.301295946589994 #
cur-twe-attrib $-1 $-1 $-1 $402 282 #
cur-twe-attrib $-1 $-1 $-1 $405 284 #
cur-twe-attrib $-1 $-1 $-1 $409 289 #
edge_name-twe-attrib $-1 $-1 $-1 $410 72 24576 #
ellipse-curve $627 -1.865 0.01 -0.301295946589994 0 -1 0 0.00113203213767909 0 -0.00993571855676587 1 #
face_name-twe-attrib $-1 $-1 $-1 $412 33 #
cone-surface $628 -1.865 0.01 -0.301295946589994 0 -1 0 -0.01 0 0 1 0 1 0 #
edge_name-twe-attrib $-1 $-1 $-1 $415 58 24576 #
ellipse-curve $629 -0.3625 0.01 -0.190495879078708 0 -1 0 -0.0056601606883953 0 0.0496785927838294 1 #
coedge $-1 $418 $441 $508 $540 0 $93 $-1 #
edge_name-twe-attrib $-1 $-1 $-1 $419 55 24576 #
straight-curve $630 -0.369292192826074 0 -0.130881567738113 0.993571855676588 0 0.113203213767906 #
loop_type-twe-attrib $-1 $-1 $-1 $421 0 #
point $-1 -0.369292192826074 0 -0.130881567738113 #
cur-twe-attrib $-1 $-1 $-1 $424 301 #
edge $631 $625 $426 $508 $632 0 #
point $-1 -1.865 0 -0.301295946589994 #
cur-twe-attrib $-1 $-1 $-1 $427 303 #
face_name-twe-attrib $-1 $-1 $-1 $429 30 #
torus-surface $633 -0.3625 0.01 -0.190495879078708 0 1 0 0.06 0.01 0 0 1 0 #
surf-twe-attrib $-1 $-1 $-1 $430 305 #
point $-1 -0.3025 0 -0.190495879078708 #
cur-twe-attrib $-1 $-1 $-1 $434 313 #
face_name-twe-attrib $-1 $-1 $-1 $436 32 #
cone-surface $634 -1.865 0.01 -0.3125 0 0 -1 0 -0.01 0 1 0 1 0 #
surf-twe-attrib $-1 $-1 $-1 $437 315 #
coedge $-1 $444 $439 $490 $600 0 $445 $-1 #
edge_name-twe-attrib $-1 $-1 $-1 $440 48 8704 #
ellipse-curve $635 -0.215 0.01 0.1875 0 0 1 0 -0.01 0 1 #
coedge $-1 $636 $609 $441 $555 1 $597 $-1 #
edge $637 $560 $625 $554 $638 0 #
coedge $-1 $639 $442 $444 $562 1 $558 $-1 #
coedge $-1 $442 $639 $636 $640 1 $558 $-1 #
loop $641 $-1 $639 $596 #
edge_name-twe-attrib $-1 $-1 $-1 $443 46 24576 #
vertex $-1 $640 $642 #
ellipse-curve $643 -0.275 0 0.179351228748426 0 -1 0 0.06 0 0 1 #
edge $644 $645 $447 $444 $646 0 #
loop_type-twe-attrib $-1 $-1 $-1 $445 0 #
face $647 $620 $445 $3 $-1 $648 0 #
point $-1 -0.215 0 0.179351228748426 #
cur-twe-attrib $-1 $-1 $-1 $448 326 #
edge_name-twe-attrib $-1 $-1 $-1 $451 59 24576 #
ellipse-curve $649 -0.3625 0 -0.190495879078708 0 -1 0 -0.00679219282607406 0 0.0596143113405953 1 #
cur-twe-attrib $-1 $-1 $-1 $453 331 #
surf-twe-attrib $-1 $-1 $-1 $455 335 #
coedge $-1 $650 $457 $477 $587 1 $336 $-1 #
coedge $-1 $457 $650 $639 $651 0 $336 $-1 #
coedge $-1 $490 $482 $457 $574 0 $491 $-1 #
edge $652 $485 $645 $457 $653 0 #
coedge $-1 $460 $459 $654 $655 1 $461 $-1 #
coedge $-1 $464 $580 $459 $577 0 $381 $-1 #
edge $656 $657 $345 $459 $658 0 #
loop_type-twe-attrib $-1 $-1 $-1 $461 0 #
cur-twe-attrib $-1 $-1 $-1 $463 341 #
coedge $-1 $576 $464 $512 $618 0 $381 $-1 #
edge_name-twe-attrib $-1 $-1 $-1 $465 30 24576 #
ellipse-curve $659 -1.865 0.1775 0.177129754250315 6e-15 0 1 -0.01 0 6e-17 1 #
cur-twe-attrib $-1 $-1 $-1 $470 350 #
face_name-twe-attrib $-1 $-1 $-1 $474 23 #
torus-surface $660 -0.275 0.1775 0.179351228748426 0 1 0 0.06 0.01 0 0 1 0 #
surf-twe-attrib $-1 $-1 $-1 $475 357 #
edge $661 $589 $485 $477 $662 0 #
edge_name-twe-attrib $-1 $-1 $-1 $478 36 24576 #
vertex $-1 $478 $663 #
ellipse-curve $664 -0.277180377086429 0.1775 0.11939085887164 0.999339497946432 0 -0.036339618107145 0.00036339618107145 0 0.00999339497946432 1 #
edge_name-twe-attrib $-1 $-1 $-1 $483 39 24576 #
straight-curve $665 -0.225 0.1775 0.179351228748426 0 0 -1 #
point $-1 -0.225 0.1775 0.179351228748426 #
cur-twe-attrib $-1 $-1 $-1 $486 367 #
face_name-twe-attrib $-1 $-1 $-1 $488 25 #
face $666 $564 $558 $3 $-1 $667 0 #
loop $668 $-1 $554 $488 #
cone-surface $669 -1.87536339618107 0.01 0.177506605020536 -0.999339497946432 0 0.036339618107143 0 -0.01 0 1 0 1 0 #
surf-twe-attrib $-1 $-1 $-1 $489 369 #
edge $670 $493 $645 $551 $671 0 #
loop_type-twe-attrib $-1 $-1 $-1 $491 0 #
point $-1 -0.225 0.01 0.1875 #
cur-twe-attrib $-1 $-1 $-1 $494 373 #
face_name-twe-attrib $-1 $-1 $-1 $499 12 #
plane-surface $672 -0.225 0 0.1275 -1 0 0 0 0 1 0 #
loop_type-twe-attrib $-1 $-1 $-1 $500 0 #
coedge $-1 $673 $674 $675 $676 1 $500 $-1 #
surf-twe-attrib $-1 $-1 $-1 $501 380 #
coedge $-1 $554 $675 $505 $610 1 $597 $-1 #
edge $677 $625 $613 $609 $678 0 #
coedge $-1 $512 $506 $674 $679 1 $513 $-1 #
edge_name-twe-attrib $-1 $-1 $-1 $507 54 24576 #
vertex $-1 $679 $680 #
ellipse-curve $681 -1.865 0.01 0.177129754250315 0 -1 0 -0.01 0 0 1 #
cur-twe-attrib $-1 $-1 $-1 $510 388 #
edge_name-twe-attrib $-1 $-1 $-1 $511 29 24576 #
straight-curve $682 -1.875 0.1775 -0.301295946589994 0 0 -1 #
edge $683 $515 $657 $512 $684 0 #
loop_type-twe-attrib $-1 $-1 $-1 $513 0 #
face $685 $305 $513 $3 $-1 $686 0 #
point $-1 -1.875 0.1775 0.177129754250315 #
cur-twe-attrib $-1 $-1 $-1 $516 391 #
cur-twe-attrib $-1 $-1 $-1 $518 393 #
edge_name-twe-attrib $-1 $-1 $-1 $519 66 24576 #
vertex $-1 $540 $687 #
ellipse-curve $688 -1.865 0.01 0.177129754250315 3e-15 -3e-15 1 0 -0.01 -3e-17 1 #
cur-twe-attrib $-1 $-1 $-1 $529 410 #
surf-twe-attrib $-1 $-1 $-1 $531 412 #
cur-twe-attrib $-1 $-1 $-1 $533 415 #
cur-twe-attrib $-1 $-1 $-1 $536 419 #
edge_name-twe-attrib $-1 $-1 $-1 $540 65 24576 #
straight-curve $689 -1.865 0 -0.301295946589994 0 0 -1 #
surf-twe-attrib $-1 $-1 $-1 $544 429 #
surf-twe-attrib $-1 $-1 $-1 $549 436 #
cur-twe-attrib $-1 $-1 $-1 $553 440 #
coedge $-1 $675 $554 $557 $640 0 $597 $-1 #
edge_name-twe-attrib $-1 $-1 $-1 $555 41 24576 #
straight-curve $690 -1.865 0 0.177129754250315 -0.999339497946432 0 0.0363396181071428 #
coedge $-1 $557 $556 $572 $651 1 $558 $-1 #
edge $691 $560 $692 $557 $693 0 #
loop_type-twe-attrib $-1 $-1 $-1 $558 0 #
point $-1 -0.277180377086429 0 0.11939085887164 #
cur-twe-attrib $-1 $-1 $-1 $561 443 #
edge_name-twe-attrib $-1 $-1 $-1 $562 50 24576 #
vertex $-1 $600 $694 #
ellipse-curve $695 -0.215 0.01 0.179351228748426 0 0 1 0 -0.01 0 1 #
face_name-twe-attrib $-1 $-1 $-1 $564 27 #
cone-surface $696 -0.215 0.01 0.179351228748426 0 0 -1 0 -0.01 0 1 0 1 0 #
cur-twe-attrib $-1 $-1 $-1 $568 451 #
coedge $-1 $572 $571 $673 $697 0 $336 $-1 #
edge $698 $692 $645 $639 $699 0 #
edge_name-twe-attrib $-1 $-1 $-1 $574 15 20480 #
straight-curve $700 -0.225 0.01 0.179351228748426 0 -1 0 #
coedge $-1 $674 $673 $575 $655 0 $500 $-1 #
edge $701 $589 $657 $575 $702 0 #
edge_name-twe-attrib $-1 $-1 $-1 $577 32 24576 #
vertex $-1 $679 $703 #
ellipse-curve $704 -1.865 0.1775 0.177129754250315 -0.999339497946432 0 0.036339618107143 0 0.01 0 1 #
cur-twe-attrib $-1 $-1 $-1 $582 465 #
surf-twe-attrib $-1 $-1 $-1 $585 474 #
edge_name-twe-attrib $-1 $-1 $-1 $587 34 24576 #
ellipse-curve $705 -0.275 0.1775 0.179351228748426 0 -1 0 0.05 0 0 1 #
point $-1 -0.276816980905357 0.1775 0.129384253851104 #
cur-twe-attrib $-1 $-1 $-1 $590 478 #
cur-twe-attrib $-1 $-1 $-1 $592 483 #
face_name-twe-attrib $-1 $-1 $-1 $596 26 #
torus-surface $706 -0.275 0.01 0.179351228748426 0 1 0 0.06 0.01 0 0 1 0 #
loop_type-twe-attrib $-1 $-1 $-1 $597 0 #
surf-twe-attrib $-1 $-1 $-1 $598 488 #
edge_name-twe-attrib $-1 $-1 $-1 $600 49 24576 #
straight-curve $707 -0.225 0.01 0.179351228748426 0 0 -1 #
surf-twe-attrib $-1 $-1 $-1 $605 499 #
coedge $-1 $654 $607 $650 $697 1 $500 $-1 #
coedge $-1 $607 $654 $611 $679 0 $500 $-1 #
coedge $-1 $609 $636 $607 $676 0 $597 $-1 #
edge $708 $692 $613 $675 $709 0 #
edge_name-twe-attrib $-1 $-1 $-1 $610 43 24576 #
ellipse-curve $710 -1.865 0.01 0.177129754250315 -0.999339497946432 0 0.036339618107162 0.00036339618107162 0 0.00999339497946431 1 #
edge $711 $657 $613 $611 $712 0 #
point $-1 -1.86463660381893 0.01 0.187123149229779 #
cur-twe-attrib $-1 $-1 $-1 $614 507 #
cur-twe-attrib $-1 $-1 $-1 $617 511 #
edge_name-twe-attrib $-1 $-1 $-1 $618 52 24576 #
ellipse-curve $713 -1.865 0.1775 0.177129754250315 0 1 0 0.0003633961810714 0 0.00999339497946432 1 #
face_name-twe-attrib $-1 $-1 $-1 $620 28 #
cone-surface $714 -1.865 0 0.177129754250315 0 -1 0 0.0003633961810714 0 0.00999339497946432 1 0 1 0 #
point $-1 -1.865 0 0.177129754250315 #
cur-twe-attrib $-1 $-1 $-1 $626 519 #
cur-twe-attrib $-1 $-1 $-1 $632 540 #
cur-twe-attrib $-1 $-1 $-1 $638 555 #
edge_name-twe-attrib $-1 $-1 $-1 $640 45 24576 #
vertex $-1 $640 $715 #
ellipse-curve $716 -0.277180377086429 0.01 0.11939085887164 -0.999339497946432 0 0.036339618107145 0.00036339618107145 0 0.00999339497946432 1 #
point $-1 -0.225 0.01 0.179351228748426 #
cur-twe-attrib $-1 $-1 $-1 $646 562 #
surf-twe-attrib $-1 $-1 $-1 $648 564 #
edge $717 $589 $692 $650 $718 0 #
edge_name-twe-attrib $-1 $-1 $-1 $651 44 24576 #
ellipse-curve $719 -0.275 0.01 0.179351228748426 0 -1 0 0.05 0 0 1 #
cur-twe-attrib $-1 $-1 $-1 $653 574 #
edge_name-twe-attrib $-1 $-1 $-1 $655 33 24576 #
straight-curve $720 -1.86463660381893 0.1775 0.187123149229779 -0.999339497946432 0 0.036339618107143 #
point $-1 -1.86463660381893 0.1775 0.187123149229779 #
cur-twe-attrib $-1 $-1 $-1 $658 577 #
cur-twe-attrib $-1 $-1 $-1 $662 587 #
surf-twe-attrib $-1 $-1 $-1 $667 596 #
cur-twe-attrib $-1 $-1 $-1 $671 600 #
edge_name-twe-attrib $-1 $-1 $-1 $676 42 24576 #
straight-curve $721 -1.86463660381893 0.01 0.187123149229779 -0.999339497946432 0 0.036339618107143 #
cur-twe-attrib $-1 $-1 $-1 $678 610 #
edge_name-twe-attrib $-1 $-1 $-1 $679 51 24576 #
straight-curve $722 -1.86463660381893 0.01 0.187123149229779 0 -1 0 #
cur-twe-attrib $-1 $-1 $-1 $684 618 #
surf-twe-attrib $-1 $-1 $-1 $686 620 #
point $-1 -0.276816980905357 0.01 0.129384253851104 #
cur-twe-attrib $-1 $-1 $-1 $693 640 #
edge_name-twe-attrib $-1 $-1 $-1 $697 16 20480 #
straight-curve $723 -0.276816980905357 0.01 0.129384253851104 0 -1 0 #
cur-twe-attrib $-1 $-1 $-1 $699 651 #
cur-twe-attrib $-1 $-1 $-1 $702 655 #
cur-twe-attrib $-1 $-1 $-1 $709 676 #
cur-twe-attrib $-1 $-1 $-1 $712 679 #
cur-twe-attrib $-1 $-1 $-1 $718 697 #
