600 0 1 0           
111 GICL ACIS Healer - Source: /gicl/data5/repository/ICEM-CDC/Fixture_Models/DLocatingPin1/DLocatingPin1.sat - 6 0 18 ACIS 6.0.3 Solaris 24 Sat Apr 13 23:07:31 2002 
1 9.999999999999999547e-07 1.000000000000000036e-10 
body $-1 $1 $-1 $2 #
lump $-1 $-1 $3 $0 #
transform $-1 1 0 0 0 1 0 0 0 1 0 0 0 1 no_rotate no_reflect no_shear #
shell $-1 $-1 $-1 $4 $-1 $1 #
face $5 $6 $7 $3 $-1 $8 reversed single #
face_name-twe-attrib $-1 $-1 $-1 $4 1 #
face $9 $10 $11 $3 $-1 $12 reversed single #
loop $13 $-1 $14 $4 #
plane-surface $15 0.15625 0.4640000000000000235 0 0 -1 0 0 0 -1 forward_v I I I I #
face_name-twe-attrib $-1 $-1 $-1 $6 2 #
face $16 $17 $18 $3 $-1 $19 forward single #
loop $20 $21 $22 $6 #
plane-surface $23 0.15625 -0.02000000000000000042 0 0 -1 0 0 0 -1 forward_v I I I I #
loop_type-twe-attrib $-1 $-1 $-1 $7 0 #
coedge $-1 $14 $14 $24 $25 reversed $7 $-1 #
surf-twe-attrib $-1 $-1 $-1 $8 4 #
face_name-twe-attrib $-1 $-1 $-1 $10 3 #
face $26 $27 $28 $3 $-1 $29 forward single #
loop $30 $31 $32 $10 #
plane-surface $33 0.15625 -0.2859999999999999765 0 0 -1 0 0 0 -1 forward_v I I I I #
loop_type-twe-attrib $-1 $-1 $-1 $11 0 #
loop $34 $-1 $35 $6 #
coedge $-1 $22 $22 $36 $37 reversed $11 $-1 #
surf-twe-attrib $-1 $-1 $-1 $12 6 #
coedge $-1 $24 $24 $14 $25 forward $38 $-1 #
edge $39 $40 0 $40 6.283185307179586232 $24 $41 forward 7 unknown #
face_name-twe-attrib $-1 $-1 $-1 $17 4 #
face $42 $43 $38 $3 $-1 $44 forward single #
loop $45 $-1 $46 $17 #
plane-surface $47 0.15625 -0.723500000000000032 0 0 -1 0 0 0 -1 forward_v I I I I #
loop_type-twe-attrib $-1 $-1 $-1 $18 1 #
loop $48 $-1 $49 $10 #
coedge $-1 $50 $51 $52 $53 forward $18 $-1 #
surf-twe-attrib $-1 $-1 $-1 $19 10 #
loop_type-twe-attrib $-1 $-1 $-1 $21 1 #
coedge $-1 $35 $35 $54 $55 forward $21 $-1 #
coedge $-1 $36 $36 $22 $37 forward $56 $-1 #
edge $57 $58 0 $58 6.283185307179586232 $36 $59 forward 7 unknown #
loop $60 $61 $24 $27 #
edge_name-twe-attrib $-1 $-1 $-1 $25 1 8448 #
vertex $-1 $25 $62 #
ellipse-curve $63 0.15625 0.4640000000000000235 0 0 -1 0 -0.06244999999999999857 0 0 1 I I #
face_name-twe-attrib $-1 $-1 $-1 $27 5 #
face $64 $65 $66 $3 $-1 $67 forward single #
cone-surface $68 0.15625 0.3701999999999999735 0 0 -1 0 -0.15625 0 0 1 I I 0.7071067811865470176 0.7071067811865480168 0.15625 forward I I I I #
loop_type-twe-attrib $-1 $-1 $-1 $28 0 #
coedge $-1 $46 $46 $69 $70 forward $28 $-1 #
surf-twe-attrib $-1 $-1 $-1 $29 17 #
loop_type-twe-attrib $-1 $-1 $-1 $31 0 #
coedge $-1 $49 $49 $71 $72 forward $31 $-1 #
coedge $-1 $73 $32 $74 $75 forward $18 $-1 #
coedge $-1 $32 $76 $77 $78 forward $18 $-1 #
coedge $-1 $79 $80 $32 $53 reversed $81 $-1 #
edge $82 $83 -0.04194264160952670961 $84 0 $52 $85 forward 7 unknown #
coedge $-1 $54 $54 $35 $55 reversed $86 $-1 #
edge $87 $88 -3.141592653589793116 $88 3.141592653589793116 $54 $89 forward 7 unknown #
loop $90 $91 $36 $92 #
edge_name-twe-attrib $-1 $-1 $-1 $37 5 8704 #
vertex $-1 $37 $93 #
ellipse-curve $94 0.15625 -0.02000000000000000042 0 0 -1 0 -0.3125 0 0 1 I I #
loop_type-twe-attrib $-1 $-1 $-1 $38 0 #
loop $95 $-1 $96 $27 #
point $-1 0.09379999999999999449 0.4640000000000000235 0 #
cur-twe-attrib $-1 $-1 $-1 $41 25 #
face_name-twe-attrib $-1 $-1 $-1 $43 6 #
face $97 $92 $98 $3 $-1 $99 reversed single #
loop $100 $101 $102 $43 #
cone-surface $103 0.15625 0.5233750000000000346 0 0 -1 0 -0.15625 0 0 1 I I 0 1 0.15625 forward I I I I #
surf-twe-attrib $-1 $-1 $-1 $44 27 #
coedge $-1 $69 $69 $46 $70 reversed $104 $-1 #
edge $105 $106 -3.141592653589793116 $106 3.141592653589793116 $69 $107 forward 7 unknown #
coedge $-1 $71 $71 $49 $72 reversed $91 $-1 #
edge $108 $109 -3.141592653589793116 $109 3.141592653589793116 $71 $110 forward 7 unknown #
coedge $-1 $111 $50 $112 $113 forward $18 $-1 #
coedge $-1 $114 $115 $50 $75 reversed $116 $-1 #
edge $117 $84 -1.031101233400582684 $118 -3.732059541704947944e-15 $74 $119 forward 7 unknown #
coedge $-1 $51 $111 $120 $121 forward $18 $-1 #
coedge $-1 $122 $123 $51 $78 reversed $124 $-1 #
edge $125 $126 -0.04194264160952670961 $83 0 $77 $127 forward 7 unknown #
coedge $-1 $128 $52 $123 $129 forward $81 $-1 #
coedge $-1 $52 $128 $114 $130 reversed $81 $-1 #
loop $131 $-1 $128 $132 #
edge_name-twe-attrib $-1 $-1 $-1 $53 9 4608 #
vertex $-1 $129 $133 #
vertex $-1 $130 $134 #
straight-curve $135 0.1768333333333330093 -0.2859999999999999765 -0.03632339313567600064 -0.500000000000014988 0 -0.8660254037844300479 I I #
loop $136 $-1 $54 $65 #
edge_name-twe-attrib $-1 $-1 $-1 $55 4 20480 #
vertex $-1 $55 $137 #
ellipse-curve $138 0.15625 -0.02000000000000000042 0 0 -1 0 -0.15625 0 0 1 I I #
loop_type-twe-attrib $-1 $-1 $-1 $56 0 #
loop $139 $-1 $71 $92 #
face $140 $141 $56 $3 $-1 $142 forward single #
point $-1 -0.15625 -0.02000000000000000042 0 #
cur-twe-attrib $-1 $-1 $-1 $59 37 #
loop_type-twe-attrib $-1 $-1 $-1 $61 1 #
coedge $-1 $96 $96 $102 $143 reversed $61 $-1 #
face_name-twe-attrib $-1 $-1 $-1 $65 7 #
loop $144 $86 $145 $65 #
torus-surface $146 0.15625 0 0 0 -1 0 0.15625 0.02000000000000000042 0 0 -1 forward_v I I I I #
loop_type-twe-attrib $-1 $-1 $-1 $66 0 #
loop $147 $-1 $148 $43 #
coedge $-1 $102 $102 $96 $143 forward $66 $-1 #
surf-twe-attrib $-1 $-1 $-1 $67 43 #
loop $149 $-1 $69 $141 #
edge_name-twe-attrib $-1 $-1 $-1 $70 7 8448 #
vertex $-1 $70 $150 #
ellipse-curve $151 0.15625 -0.723500000000000032 0 0 -1 0 -0.00759454475001299957 0 0 1 I I #
edge_name-twe-attrib $-1 $-1 $-1 $72 6 8704 #
vertex $-1 $72 $152 #
ellipse-curve $153 0.15625 -0.2859999999999999765 0 1.000000000000000078e-15 -1 0 -0.3125 -3.124999999999999996e-16 0 1 I I #
coedge $-1 $76 $73 $154 $155 forward $18 $-1 #
coedge $-1 $156 $157 $73 $113 reversed $158 $-1 #
edge $159 $118 -0.04194264160952670961 $160 0 $112 $161 forward 7 unknown #
coedge $-1 $162 $74 $80 $130 forward $116 $-1 #
coedge $-1 $74 $162 $156 $163 reversed $116 $-1 #
loop $164 $-1 $162 $165 #
edge_name-twe-attrib $-1 $-1 $-1 $75 24 4608 #
vertex $-1 $163 $166 #
ellipse-curve $167 0.15625 -0.2859999999999999765 0 0 1 0 -0.02058333333333330073 0 -0.03632339313567620187 1 I I #
coedge $-1 $168 $169 $76 $121 reversed $170 $-1 #
edge $171 $172 -1.031101233400580242 $126 -3.732059541704947944e-15 $120 $173 forward 7 unknown #
coedge $-1 $174 $77 $169 $175 forward $124 $-1 #
coedge $-1 $77 $174 $79 $129 reversed $124 $-1 #
loop $176 $-1 $174 $177 #
edge_name-twe-attrib $-1 $-1 $-1 $78 12 4608 #
vertex $-1 $175 $178 #
straight-curve $179 0.1978046541380970025 -0.2859999999999999765 0 0.500000000000014988 0 -0.8660254037844300479 I I #
coedge $-1 $80 $79 $180 $181 reversed $81 $-1 #
edge $182 $83 -0.3786793651092429935 $183 0 $123 $184 forward 7 unknown #
edge $185 $84 -0.3783410161513779957 $186 0 $114 $187 forward 7 unknown #
loop_type-twe-attrib $-1 $-1 $-1 $81 0 #
face $188 $177 $81 $3 $-1 $189 reversed single #
point $-1 0.1978046541380970025 -0.2859999999999999765 0 #
point $-1 0.1768333333333330093 -0.2859999999999999765 -0.03632339313567600064 #
cur-twe-attrib $-1 $-1 $-1 $85 53 #
loop_type-twe-attrib $-1 $-1 $-1 $86 1 #
point $-1 0.3125 -0.02000000000000000042 1.913510293574020037e-17 #
cur-twe-attrib $-1 $-1 $-1 $89 55 #
loop_type-twe-attrib $-1 $-1 $-1 $91 1 #
face_name-twe-attrib $-1 $-1 $-1 $92 8 #
face $190 $132 $191 $3 $-1 $192 forward single #
cone-surface $193 0.15625 0.5233750000000000346 0 0 -1 0 -0.3125 0 0 1 I I 0 1 0.3125 forward I I I I #
edge $194 $195 -3.141592653589793116 $195 3.141592653589793116 $102 $196 forward 7 unknown #
loop_type-twe-attrib $-1 $-1 $-1 $98 0 #
coedge $-1 $145 $145 $148 $197 forward $98 $-1 #
surf-twe-attrib $-1 $-1 $-1 $99 65 #
loop_type-twe-attrib $-1 $-1 $-1 $101 1 #
coedge $-1 $148 $148 $145 $197 reversed $101 $-1 #
loop_type-twe-attrib $-1 $-1 $-1 $104 1 #
point $-1 0.1638445447500130048 -0.723500000000000032 9.300633314661369529e-19 #
cur-twe-attrib $-1 $-1 $-1 $107 70 #
point $-1 0.46875 -0.2859999999999999765 3.827020587148040074e-17 #
cur-twe-attrib $-1 $-1 $-1 $110 72 #
coedge $-1 $198 $199 $111 $155 reversed $200 $-1 #
edge $201 $160 -0.04194264160952691084 $172 0 $154 $202 forward 7 unknown #
coedge $-1 $203 $112 $115 $163 forward $158 $-1 #
coedge $-1 $112 $203 $198 $204 reversed $158 $-1 #
loop $205 $-1 $203 $206 #
edge_name-twe-attrib $-1 $-1 $-1 $113 21 4608 #
vertex $-1 $204 $207 #
straight-curve $208 0.1146953458619029975 -0.2859999999999999765 0 -0.500000000000014988 0 0.8660254037844300479 I I #
coedge $-1 $115 $114 $209 $210 reversed $116 $-1 #
edge $211 $118 -0.3783410161513779957 $212 -0 $115 $213 forward 7 unknown #
loop_type-twe-attrib $-1 $-1 $-1 $116 0 #
face $214 $-1 $116 $3 $-1 $215 forward single #
point $-1 0.1356666666666669907 -0.2859999999999999765 -0.03632339313567600064 #
cur-twe-attrib $-1 $216 $-1 $119 75 #
coedge $-1 $217 $120 $199 $218 forward $170 $-1 #
coedge $-1 $120 $217 $122 $175 reversed $170 $-1 #
loop $219 $-1 $217 $220 #
edge_name-twe-attrib $-1 $-1 $-1 $121 15 4608 #
vertex $-1 $218 $221 #
ellipse-curve $222 0.15625 -0.2859999999999999765 0 0 1 0 0.02058333333333330073 0 0.03632339313567620187 1 I I #
coedge $-1 $123 $122 $223 $224 reversed $124 $-1 #
edge $225 $126 -0.3783410161513779957 $226 0 $169 $227 forward 7 unknown #
loop_type-twe-attrib $-1 $-1 $-1 $124 0 #
face $228 $220 $124 $3 $-1 $229 reversed single #
point $-1 0.1768333333333330093 -0.2859999999999999765 0.03632339313567600064 #
cur-twe-attrib $-1 $-1 $-1 $127 78 #
coedge $-1 $223 $209 $128 $181 forward $191 $-1 #
edge $230 $186 0 $183 0.04725543467762780003 $128 $231 forward 7 unknown #
edge_name-twe-attrib $-1 $-1 $-1 $129 11 8448 #
vertex $-1 $129 $232 #
straight-curve $233 0.1978046541380970025 -0.66467936510924297 0 0 -1 0 I I #
edge_name-twe-attrib $-1 $-1 $-1 $130 25 8448 #
vertex $-1 $130 $234 #
straight-curve $235 0.1768333333333330093 -0.6643410161513779721 -0.03632339313567620187 8.069739170171280445e-16 -1 -4.95188539987783042e-16 I I #
face_name-twe-attrib $-1 $-1 $-1 $132 10 #
plane-surface $236 0.1768333333333330093 -0.723500000000000032 -0.03632339313567600064 -0.8660254037844388186 0 0.499999999999999889 0.5 0 0.8660254037844390407 forward_v I I I I #
face_name-twe-attrib $-1 $-1 $-1 $141 9 #
loop $237 $104 $223 $141 #
cone-surface $238 0.15625 -0.6643410161513779721 0 0 1 0 -0.02058333333333340134 0 0.03632339313567620187 1 I I 0.5 0.8660254037844390407 0.04175000000000003708 forward I I I I #
surf-twe-attrib $-1 $-1 $-1 $142 92 #
edge_name-twe-attrib $-1 $-1 $-1 $143 2 8448 #
vertex $-1 $143 $239 #
ellipse-curve $240 0.15625 0.3701999999999999735 0 0 -1 0 -0.15625 0 0 1 I I #
edge $241 $242 -3.141592653589793116 $242 3.141592653589793116 $145 $243 forward 7 unknown #
coedge $-1 $244 $154 $157 $204 forward $200 $-1 #
coedge $-1 $154 $244 $168 $218 reversed $200 $-1 #
loop $245 $-1 $244 $246 #
edge_name-twe-attrib $-1 $-1 $-1 $155 18 4608 #
straight-curve $247 0.1356666666666669907 -0.2859999999999999765 0.03632339313567620187 0.5000000000000069944 0 0.8660254037844340447 I I #
coedge $-1 $157 $156 $248 $249 reversed $158 $-1 #
edge $250 $160 -0.3786793651092429935 $251 0 $157 $252 forward 7 unknown #
loop_type-twe-attrib $-1 $-1 $-1 $158 0 #
face $253 $165 $158 $3 $-1 $254 reversed single #
point $-1 0.1146953458619029975 -0.2859999999999999765 0 #
cur-twe-attrib $-1 $-1 $-1 $161 113 #
coedge $-1 $180 $248 $162 $210 forward $191 $-1 #
edge $255 $212 -1.031101233400580242 $186 -6.095697251451389416e-15 $162 $256 forward 7 unknown #
edge_name-twe-attrib $-1 $-1 $-1 $163 23 8448 #
vertex $-1 $163 $257 #
straight-curve $258 0.1356666666666669907 -0.6643410161513779721 -0.03632339313567620187 -8.803351822005030434e-16 -1 -4.95188539987783042e-16 I I #
face_name-twe-attrib $-1 $-1 $-1 $165 15 #
cone-surface $259 0.15625 -0.723500000000000032 0 0 1 0 0.04175000000000000239 0 0 1 I I 0 1 0.04175000000000000239 forward I I I I #
cur-twe-attrib $-1 $-1 $167 $119 121 #
coedge $-1 $169 $168 $260 $261 reversed $170 $-1 #
edge $262 $172 -0.3783410161513779957 $263 0 $199 $264 forward 7 unknown #
loop_type-twe-attrib $-1 $-1 $-1 $170 0 #
face $265 $246 $170 $3 $-1 $266 forward single #
point $-1 0.1356666666666669907 -0.2859999999999999765 0.03632339313567620187 #
cur-twe-attrib $-1 $267 $-1 $173 75 #
coedge $-1 $260 $180 $174 $224 forward $191 $-1 #
edge $268 $183 0 $226 0.04725543467762780003 $174 $269 forward 7 unknown #
edge_name-twe-attrib $-1 $-1 $-1 $175 14 8448 #
vertex $-1 $175 $270 #
straight-curve $271 0.1768333333333330093 -0.6643410161513779721 0.03632339313567620187 8.069739170171280445e-16 -1 5.685498051711580409e-16 I I #
face_name-twe-attrib $-1 $-1 $-1 $177 11 #
plane-surface $272 0.1978046541380970025 -0.723500000000000032 0 -0.8660254037844388186 0 -0.499999999999999889 -0.5 0 0.8660254037844390407 forward_v I I I I #
edge_name-twe-attrib $-1 $-1 $-1 $181 8 8448 #
intcurve-curve $273 forward { exactcur full nubs 3 open 9 
	0 3 0.006053386959474599607 1 0.01191007812139570007 1 0.01775116614960500078 1 0.02359451330423800036 1 
	0.0294654819326524986 1 0.03531736543366000014 1 0.04120827295093740239 1 0.04725543467762780003 3 
	0.1768333333333330093 -0.6643410161513779721 -0.03632339313567600064 
	0.1775914519685189985 -0.6656723777994060232 -0.03501029314136969856 
	0.1791354506686879955 -0.6681780797979950393 -0.03233600894585560159 
	0.1816365810349190035 -0.6713705390448829746 -0.0280039240751919008 
	0.1843463935851160085 -0.6736691560159080439 -0.02331039105926150171 
	0.1872725617922879893 -0.674606331410236959 -0.01824211905294850083 
	0.1902138459431229889 -0.6738280274606139875 -0.01314766546420289943 
	0.192958187769285 -0.671624123648439042 -0.008394325987954420754 
	0.195484925179261998 -0.6684857759884219597 -0.004017888416487779869 
	0.1970427833730200029 -0.6659989639831570551 -0.001319598873914229996 
	0.1978046541380970025 -0.66467936510924297 0 
	0 
	null_surface 
	null_surface 
	nullbs 
	nullbs 
	I I 
	0 
	0 
	7 0.006053386959474599607 0.01191007812139570007 0.01775116614960500078 0.02359451330423800036 0.0294654819326524986 0.03531736543366000014 0.04120827295093740239 
	F 1 F 0 } I I #
point $-1 0.1978046541380970025 -0.66467936510924297 0 #
cur-twe-attrib $-1 $-1 $-1 $184 129 #
point $-1 0.1768333333333330093 -0.6643410161513779721 -0.03632339313567620187 #
cur-twe-attrib $-1 $-1 $-1 $187 130 #
surf-twe-attrib $-1 $-1 $-1 $189 132 #
loop_type-twe-attrib $-1 $-1 $-1 $191 0 #
surf-twe-attrib $-1 $-1 $-1 $192 141 #
point $-1 0.3125 0.3701999999999999735 -1.913510293574020037e-17 #
cur-twe-attrib $-1 $-1 $-1 $196 143 #
edge_name-twe-attrib $-1 $-1 $-1 $197 3 8704 #
vertex $-1 $197 $274 #
ellipse-curve $275 0.15625 0.02000000000000000042 0 0 -1 0 -0.15625 0 0 1 I I #
coedge $-1 $199 $198 $276 $277 reversed $200 $-1 #
loop_type-twe-attrib $-1 $-1 $-1 $200 0 #
face $278 $206 $200 $3 $-1 $279 reversed single #
cur-twe-attrib $-1 $-1 $-1 $202 155 #
coedge $-1 $209 $276 $203 $249 forward $191 $-1 #
edge $280 $251 0 $212 0.04725543467762800126 $203 $281 forward 7 unknown #
edge_name-twe-attrib $-1 $-1 $-1 $204 20 8448 #
vertex $-1 $204 $282 #
straight-curve $283 0.1146953458619029975 -0.66467936510924297 0 0 -1 0 I I #
face_name-twe-attrib $-1 $-1 $-1 $206 14 #
plane-surface $284 0.1146953458619029975 -0.723500000000000032 0 0.8660254037844388186 0 0.499999999999999889 0.5 0 -0.8660254037844390407 forward_v I I I I #
edge_name-twe-attrib $-1 $-1 $-1 $210 22 8448 #
ellipse-curve $285 0.15625 -0.6643410161513779721 0 0 -1 0 0.02058333333333330073 0 -0.03632339313567620187 1 I I #
point $-1 0.1356666666666669907 -0.6643410161513779721 -0.03632339313567620187 #
cur-twe-attrib $-1 $-1 $-1 $213 163 #
surf-twe-attrib $-1 $286 $-1 $215 165 #
coedge $-1 $276 $223 $217 $261 forward $191 $-1 #
edge $287 $226 -1.031101233400582462 $263 -8.210530991750841617e-15 $217 $288 forward 7 unknown #
edge_name-twe-attrib $-1 $-1 $-1 $218 17 8448 #
vertex $-1 $218 $289 #
straight-curve $290 0.1356666666666669907 -0.6643410161513779721 0.03632339313567620187 -7.33612651833752947e-17 -1 0 I I #
face_name-twe-attrib $-1 $-1 $-1 $220 12 #
cone-surface $291 0.15625 -0.723500000000000032 0 0 1 0 0.04175000000000000239 0 0 1 I I 0 1 0.04175000000000000239 forward I I I I #
cur-twe-attrib $-1 $-1 $222 $173 121 #
edge_name-twe-attrib $-1 $-1 $-1 $224 10 8448 #
intcurve-curve $292 forward { exactcur full nubs 3 open 9 
	0 3 0.006047161726690449685 1 0.01193806924396779989 1 0.01778995274497530144 1 0.02366092137338979967 1 
	0.02950426852802279926 1 0.03534535655623220057 1 0.04120204771815320216 1 0.04725543467762780003 3 
	0.1978046541380970025 -0.66467936510924297 0 
	0.1970427833730200029 -0.6659989639831570551 0.001319598873914229996 
	0.195484925179261998 -0.6684857759884219597 0.004017888416487779869 
	0.192958187769285 -0.671624123648439042 0.008394325987954420754 
	0.1902138459431229889 -0.6738280274606139875 0.01314766546420289943 
	0.1872725617922879893 -0.674606331410236959 0.01824211905294850083 
	0.1843463935851160085 -0.6736691560159080439 0.02331039105926150171 
	0.1816365810349190035 -0.6713705390448829746 0.0280039240751919008 
	0.1791354506686879955 -0.6681780797979950393 0.03233600894585560159 
	0.1775914519685189985 -0.6656723777994060232 0.03501029314136969856 
	0.1768333333333330093 -0.6643410161513779721 0.03632339313567600064 
	0 
	null_surface 
	null_surface 
	nullbs 
	nullbs 
	I I 
	0 
	0 
	7 0.006047161726690449685 0.01193806924396779989 0.01778995274497530144 0.02366092137338979967 0.02950426852802279926 0.03534535655623220057 0.04120204771815320216 
	F 1 F 0 } I I #
point $-1 0.1768333333333330093 -0.6643410161513779721 0.03632339313567620187 #
cur-twe-attrib $-1 $-1 $-1 $227 175 #
surf-twe-attrib $-1 $-1 $-1 $229 177 #
cur-twe-attrib $-1 $-1 $-1 $231 181 #
point $-1 0.3125 0.02000000000000000042 -1.913510293574020037e-17 #
cur-twe-attrib $-1 $-1 $-1 $243 197 #
coedge $-1 $248 $260 $244 $277 forward $191 $-1 #
edge $293 $263 0 $251 0.04725543467762780003 $244 $294 forward 7 unknown #
face_name-twe-attrib $-1 $-1 $-1 $246 13 #
plane-surface $295 0.1356666666666669907 -0.723500000000000032 0.03632339313567600064 0.8660254037844388186 0 -0.499999999999999889 -0.5 0 -0.8660254037844390407 forward_v I I I I #
edge_name-twe-attrib $-1 $-1 $-1 $249 19 8448 #
intcurve-curve $296 forward { exactcur full nubs 3 open 9 
	0 3 0.006047161726690449685 1 0.01193806924396829949 1 0.01778995274497549919 1 0.0236609213733900009 1 
	0.02950426852802300048 1 0.03534535655623229772 1 0.04120204771815340339 1 0.04725543467762800126 3 
	0.1146953458619029975 -0.66467936510924297 0 
	0.1154572166269799971 -0.6659989639831570551 -0.001319598873914229996 
	0.117015074820738002 -0.6684857759884219597 -0.004017888416488090385 
	0.1195418122307140008 -0.6716241236484400412 -0.008394325987953950644 
	0.1222861540568769972 -0.6738280274606129883 -0.01314766546420319954 
	0.1252274382077120107 -0.6746063314102379582 -0.01824211905294850083 
	0.1281536064148839915 -0.6736691560159080439 -0.02331039105926150171 
	0.1308634189650809965 -0.6713705390448829746 -0.0280039240751919008 
	0.1333645493313120045 -0.6681780797979950393 -0.03233600894585560159 
	0.1349085480314810015 -0.6656723777994060232 -0.03501029314136969856 
	0.1356666666666669907 -0.6643410161513779721 -0.03632339313567600064 
	0 
	null_surface 
	null_surface 
	nullbs 
	nullbs 
	I I 
	0 
	0 
	7 0.006047161726690449685 0.01193806924396829949 0.01778995274497549919 0.0236609213733900009 0.02950426852802300048 0.03534535655623229772 0.04120204771815340339 
	F 1 F 0 } I I #
point $-1 0.1146953458619029975 -0.66467936510924297 0 #
cur-twe-attrib $-1 $-1 $-1 $252 204 #
surf-twe-attrib $-1 $-1 $-1 $254 206 #
cur-twe-attrib $-1 $-1 $-1 $256 210 #
surf-twe-attrib $-1 $-1 $259 $215 220 #
edge_name-twe-attrib $-1 $-1 $-1 $261 13 8448 #
ellipse-curve $297 0.15625 -0.6643410161513779721 0 0 -1 0 -0.02058333333333340134 0 0.03632339313567620187 1 I I #
point $-1 0.1356666666666669907 -0.6643410161513779721 0.03632339313567620187 #
cur-twe-attrib $-1 $-1 $-1 $264 218 #
surf-twe-attrib $-1 $298 $-1 $266 165 #
cur-twe-attrib $-1 $-1 $-1 $269 224 #
edge_name-twe-attrib $-1 $-1 $-1 $277 16 8448 #
intcurve-curve $299 forward { exactcur full nubs 3 open 9 
	0 3 0.006053386959474599607 1 0.01191007812139570007 1 0.01775116614960500078 1 0.02359451330423800036 1 
	0.0294654819326524986 1 0.03531736543366000014 1 0.04120827295093740239 1 0.04725543467762780003 3 
	0.1356666666666669907 -0.6643410161513779721 0.03632339313567600064 
	0.1349085480314810015 -0.6656723777994060232 0.03501029314136960141 
	0.1333645493313120045 -0.6681780797979950393 0.03233600894585560159 
	0.1308634189650809965 -0.6713705390448829746 0.0280039240751919008 
	0.1281536064148839915 -0.6736691560159080439 0.02331039105926150171 
	0.1252274382077120107 -0.674606331410236959 0.01824211905294850083 
	0.1222861540568769972 -0.6738280274606139875 0.01314766546420289943 
	0.119541812230715 -0.671624123648439042 0.008394325987954429427 
	0.117015074820738002 -0.6684857759884219597 0.004017888416487779869 
	0.1154572166269799971 -0.6659989639831570551 0.001319598873914229996 
	0.1146953458619029975 -0.66467936510924297 0 
	0 
	null_surface 
	null_surface 
	nullbs 
	nullbs 
	I I 
	0 
	0 
	7 0.006053386959474599607 0.01191007812139570007 0.01775116614960500078 0.02359451330423800036 0.0294654819326524986 0.03531736543366000014 0.04120827295093740239 
	F 1 F 0 } I I #
surf-twe-attrib $-1 $-1 $-1 $279 246 #
cur-twe-attrib $-1 $-1 $-1 $281 249 #
cur-twe-attrib $-1 $-1 $-1 $288 261 #
surf-twe-attrib $-1 $-1 $291 $266 220 #
cur-twe-attrib $-1 $-1 $-1 $294 277 #
End-of-ACIS-data 