700 0 2 0           
24 FBMach with ACIS - 7.0.3 13 ACIS 7.0.3 NT 24 Tue May 14 12:05:16 2002 
1 9.9999999999999995e-007 1e-010 
body $2 -1 $-1 $3 $-1 $4 #
bdycol-kcp $-1 -1 1 5 $5 $6 $7 $8 $9 #
model_id-kcp-attrib $-1 -1 $-1 $-1 $0 1 1021392311 1021392311 1975189505 1 #
lump $-1 -1 $-1 $-1 $10 $0 #
transform $-1 -1 1 0 0 0 1 0 0 0 1 0 0 0 1 rotate no_reflect no_shear #
body $11 -1 $-1 $12 $-1 $13 #
body $14 -1 $-1 $15 $-1 $16 #
body $17 -1 $-1 $18 $-1 $19 #
body $20 -1 $-1 $21 $-1 $22 #
body $23 -1 $-1 $24 $-1 $25 #
shell $-1 -1 $-1 $-1 $-1 $26 $-1 $3 #
rgb_color-st-attrib $-1 -1 $27 $-1 $5 0.5 1 1 #
lump $-1 -1 $-1 $-1 $28 $5 #
transform $-1 -1 1 0 0 0 1 0 0 0 1 0.15625 -0.12975 0 1 no_rotate no_reflect no_shear #
model_id-kcp-attrib $-1 -1 $-1 $-1 $6 1 1021392311 1021392311 1975189506 1 #
lump $-1 -1 $-1 $-1 $29 $6 #
transform $-1 -1 1 0 0 0 1 0 0 0 1 0.15625 -0.12975 0 1 no_rotate no_reflect no_shear #
rgb_color-st-attrib $-1 -1 $30 $-1 $7 1 1 0.5 #
lump $-1 -1 $-1 $-1 $31 $7 #
transform $-1 -1 -1 0 0 0 0 1 0 1 0 0.15625 0.41710000000000003 0 1 rotate no_reflect no_shear #
rgb_color-st-attrib $-1 -1 $32 $-1 $8 1 0.5 1 #
lump $-1 -1 $-1 $-1 $33 $8 #
transform $-1 -1 1 0 0 0 1 0 0 0 1 0.15625 -0.12975 0 1 no_rotate no_reflect no_shear #
rgb_color-st-attrib $-1 -1 $34 $-1 $9 1 0.5 1 #
lump $-1 -1 $-1 $-1 $35 $9 #
transform $-1 -1 1 0 0 0 1 0 0 0 1 0.15625 -0.12975 0 1 no_rotate no_reflect no_shear #
face $36 -1 $-1 $37 $38 $10 $-1 $39 reversed single #
model_id-kcp-attrib $-1 -1 $-1 $11 $5 1 1021392311 1021392311 1968898052 1 #
shell $-1 -1 $-1 $-1 $-1 $40 $-1 $12 #
shell $-1 -1 $-1 $-1 $-1 $41 $-1 $15 #
model_id-kcp-attrib $-1 -1 $-1 $17 $7 1 1021392311 1021392311 1975844867 1 #
shell $-1 -1 $-1 $-1 $-1 $42 $-1 $18 #
model_id-kcp-attrib $-1 -1 $-1 $20 $8 1 1021392311 1021392312 1964048390 1 #
shell $-1 -1 $-1 $-1 $-1 $43 $-1 $21 #
model_id-kcp-attrib $-1 -1 $-1 $23 $9 1 1021392311 1021392312 1979187205 1 #
shell $-1 -1 $-1 $-1 $-1 $44 $-1 $24 #
model_id-kcp-attrib $-1 -1 $45 $-1 $26 1 1021392311 1021392311 1975189505 2 #
face $46 -1 $-1 $47 $48 $10 $-1 $49 reversed single #
loop $50 -1 $-1 $-1 $51 $26 #
plane-surface $52 -1 $-1 0.15625 0.46400000000000002 0 0 -1 0 0 0 -1 forward_v I I I I #
face $-1 -1 $-1 $53 $54 $28 $-1 $55 reversed single #
face $-1 -1 $-1 $56 $57 $29 $-1 $58 forward single #
face $-1 -1 $-1 $59 $60 $31 $-1 $61 reversed single #
face $-1 -1 $-1 $62 $63 $33 $-1 $64 forward single #
face $65 -1 $-1 $66 $67 $35 $-1 $68 reversed single #
face_name-twe-attrib $-1 -1 $-1 $36 $26 1 #
model_id-kcp-attrib $-1 -1 $69 $-1 $37 1 1021392311 1021392311 1975189505 3 #
face $70 -1 $-1 $71 $72 $10 $-1 $73 forward single #
loop $74 -1 $-1 $75 $76 $37 #
plane-surface $77 -1 $-1 0.15625 -0.02 0 0 -1 0 0 0 -1 forward_v I I I I #
loop_type-twe-attrib $-1 -1 $-1 $-1 $38 0 #
coedge $-1 -1 $-1 $51 $51 $78 $79 reversed $38 $-1 #
surf-twe-attrib $-1 -1 $-1 $-1 $39 4 #
face $-1 -1 $-1 $80 $81 $28 $-1 $55 reversed single #
loop $-1 -1 $-1 $-1 $82 $40 #
cone-surface $-1 -1 $-1 0 0.59375 0 0 1 0 -0.3125 0 0 1 I I 0 1 0.3125 forward I I I I #
face $-1 -1 $-1 $83 $84 $29 $-1 $85 reversed single #
loop $-1 -1 $-1 $-1 $86 $41 #
plane-surface $-1 -1 $-1 0 0 0.3125 0 0 1 1 0 0 forward_v I I I I #
face $-1 -1 $-1 $87 $88 $31 $-1 $89 forward single #
loop $-1 -1 $-1 $90 $91 $42 #
cone-surface $-1 -1 $-1 0 0 0.031225000000000058 0 0 1 0.078125 0 0 1 I I -0.70710678118654702 0.70710678118654802 0.078125 forward I I I I #
face $-1 -1 $-1 $92 $93 $33 $-1 $94 forward single #
loop $-1 -1 $-1 $-1 $95 $43 #
plane-surface $-1 -1 $-1 0.041554654138097002 -0.15624999999999997 0 -0.86602540378443882 0 -0.49999999999999989 -0.49999999999999989 0 0.86602540378443882 forward_v I I I I #
face_name-twe-attrib $-1 -1 $-1 $-1 $44 6 #
face $-1 -1 $-1 $96 $97 $35 $-1 $98 forward single #
loop $99 -1 $-1 $100 $101 $44 #
cone-surface $102 -1 $-1 0 0.65312500000000007 0 0 -1 0 -0.15625 0 0 1 I I 0 1 0.15625 forward I I I I #
face_name-twe-attrib $-1 -1 $-1 $46 $37 2 #
model_id-kcp-attrib $-1 -1 $103 $-1 $47 1 1021392311 1021392311 1975189505 4 #
face $104 -1 $-1 $105 $106 $10 $-1 $107 forward single #
loop $108 -1 $-1 $109 $110 $47 #
plane-surface $111 -1 $-1 0.15625 -0.28599999999999998 0 0 -1 0 0 0 -1 forward_v I I I I #
loop_type-twe-attrib $-1 -1 $-1 $-1 $48 0 #
loop $112 -1 $-1 $-1 $113 $37 #
coedge $-1 -1 $-1 $76 $76 $114 $115 reversed $48 $-1 #
surf-twe-attrib $-1 -1 $-1 $-1 $49 6 #
coedge $-1 -1 $-1 $78 $78 $51 $79 forward $116 $-1 #
edge $117 -1 $-1 $118 0 $118 6.2831853071795862 $78 $119 forward @7 unknown #
face $-1 -1 $-1 $120 $121 $28 $-1 $55 reversed single #
loop $-1 -1 $-1 $-1 $122 $53 #
coedge $-1 -1 $-1 $123 $124 $125 $126 reversed $54 $-1 #
face $127 -1 $-1 $128 $129 $29 $-1 $130 reversed single #
loop $-1 -1 $-1 $-1 $131 $56 #
plane-surface $-1 -1 $-1 0 0 -0.3125 0 0 1 1 0 0 forward_v I I I I #
coedge $-1 -1 $-1 $132 $133 $134 $135 forward $57 $-1 #
face $-1 -1 $-1 $-1 $136 $31 $-1 $137 forward single #
loop $-1 -1 $-1 $138 $139 $59 #
cone-surface $-1 -1 $-1 0 0 0 0 0 1 0.15625 0 0 1 I I 0 1 0.15625 forward I I I I #
loop $-1 -1 $-1 $-1 $140 $42 #
coedge $-1 -1 $-1 $91 $91 $141 $142 reversed $60 $-1 #
face $-1 -1 $-1 $143 $144 $33 $-1 $145 forward single #
loop $-1 -1 $-1 $-1 $146 $62 #
cone-surface $-1 -1 $-1 0 -0.15625 0 0 -1 0 0.041750000000000002 0 0 1 I I 0 -1 0.041750000000000002 forward I I I I #
coedge $-1 -1 $-1 $147 $148 $149 $150 forward $63 $-1 #
face $-1 -1 $-1 $151 $152 $35 $-1 $153 reversed single #
loop $154 -1 $-1 $155 $156 $66 #
torus-surface $157 -1 $-1 0 0.12975 0 0 -1 0 0.15625 0.02 0 0 -1 forward_v I I I I #
loop_type-twe-attrib $-1 -1 $-1 $-1 $67 1 #
loop $-1 -1 $-1 $-1 $158 $44 #
coedge $-1 -1 $-1 $101 $101 $156 $159 forward $67 $-1 #
surf-twe-attrib $-1 -1 $-1 $-1 $68 43 #
face_name-twe-attrib $-1 -1 $-1 $70 $47 3 #
model_id-kcp-attrib $-1 -1 $160 $-1 $71 1 1021392311 1021392311 1975189505 5 #
face $161 -1 $-1 $162 $116 $10 $-1 $163 forward single #
loop $164 -1 $-1 $-1 $165 $71 #
plane-surface $166 -1 $-1 0.15625 -0.72350000000000003 0 0 -1 0 0 0 -1 forward_v I I I I #
loop_type-twe-attrib $-1 -1 $-1 $-1 $72 1 #
loop $167 -1 $-1 $-1 $168 $47 #
coedge $-1 -1 $-1 $169 $170 $171 $172 forward $72 $-1 #
surf-twe-attrib $-1 -1 $-1 $-1 $73 10 #
loop_type-twe-attrib $-1 -1 $-1 $-1 $75 1 #
coedge $-1 -1 $-1 $113 $113 $173 $174 forward $75 $-1 #
coedge $-1 -1 $-1 $114 $114 $76 $115 forward $175 $-1 #
edge $176 -1 $-1 $177 0 $177 6.2831853071795862 $114 $178 forward @7 unknown #
loop $179 -1 $-1 $180 $78 $105 #
attrib_edge_convexity-kcp-attrib $-1 -1 $181 $-1 $79 1 #
vertex $-1 -1 $-1 $79 $182 #
ellipse-curve $183 -1 $-1 0.15625 0.46400000000000002 0 0 -1 0 -0.062449999999999999 0 0 1 I I #
face $-1 -1 $-1 $184 $185 $28 $-1 $55 reversed single #
loop $-1 -1 $-1 $-1 $186 $80 #
coedge $-1 -1 $-1 $187 $188 $189 $190 reversed $81 $-1 #
coedge $-1 -1 $-1 $191 $82 $192 $193 forward $54 $-1 #
coedge $-1 -1 $-1 $82 $191 $194 $195 reversed $54 $-1 #
coedge $-1 -1 $-1 $196 $197 $82 $126 forward $198 $-1 #
edge $-1 -1 $-1 $199 0 $200 1.5707963267948966 $125 $201 forward @7 unknown #
model_id-kcp-attrib $-1 -1 $-1 $-1 $83 1 1021392311 1021392311 1975189506 3 #
face $-1 -1 $-1 $202 $203 $29 $-1 $204 reversed single #
loop $-1 -1 $-1 $-1 $205 $83 #
plane-surface $-1 -1 $-1 0 -0.59375 0 0 1 0 0 0 1 forward_v I I I I #
coedge $-1 -1 $-1 $206 $207 $208 $209 forward $84 $-1 #
coedge $-1 -1 $-1 $210 $86 $211 $212 forward $57 $-1 #
coedge $-1 -1 $-1 $86 $210 $213 $214 forward $57 $-1 #
coedge $-1 -1 $-1 $215 $216 $86 $135 reversed $217 $-1 #
edge $-1 -1 $-1 $218 -0.59375 $219 0.59375 $134 $220 forward @7 unknown #
loop $-1 -1 $-1 $221 $141 $87 #
plane-surface $-1 -1 $-1 0 0 0.046900000000000025 0 0 1 1 0 0 forward_v I I I I #
loop $-1 -1 $-1 $-1 $222 $59 #
coedge $-1 -1 $-1 $139 $139 $140 $223 reversed $88 $-1 #
coedge $-1 -1 $-1 $140 $140 $139 $223 forward $90 $-1 #
coedge $-1 -1 $-1 $141 $141 $91 $142 forward $136 $-1 #
edge $-1 -1 $-1 $224 -3.1415926535897931 $224 3.1415926535897931 $141 $225 forward @7 unknown #
face $-1 -1 $-1 $226 $227 $33 $-1 $228 forward single #
loop $-1 -1 $-1 $-1 $229 $92 #
plane-surface $-1 -1 $-1 -0.020583333333333009 -0.15624999999999997 0.036323393135676202 0.86602540378443882 0 -0.49999999999999989 -0.49999999999999989 0 -0.86602540378443882 forward_v I I I I #
coedge $-1 -1 $-1 $230 $231 $232 $233 forward $93 $-1 #
coedge $-1 -1 $-1 $234 $95 $231 $235 reversed $63 $-1 #
coedge $-1 -1 $-1 $95 $234 $236 $237 forward $63 $-1 #
coedge $-1 -1 $-1 $238 $232 $95 $150 reversed $239 $-1 #
edge $-1 -1 $-1 $240 -0.010388663534524247 $241 0.031553978075002466 $95 $242 forward @7 unknown #
face $-1 -1 $-1 $243 $244 $35 $-1 $245 forward single #
loop $-1 -1 $-1 $246 $247 $96 #
plane-surface $-1 -1 $-1 0 0.10975000000000001 0 0 1 0 -1 0 0 forward_v I I I I #
loop_type-twe-attrib $-1 -1 $-1 $-1 $97 0 #
loop $248 -1 $-1 $-1 $249 $66 #
coedge $-1 -1 $-1 $156 $156 $101 $159 reversed $97 $-1 #
surf-twe-attrib $-1 -1 $-1 $-1 $98 65 #
coedge $-1 -1 $-1 $158 $158 $250 $251 reversed $100 $-1 #
edge $252 -1 $-1 $253 -3.1415926535897931 $253 3.1415926535897931 $156 $254 forward @7 unknown #
face_name-twe-attrib $-1 -1 $-1 $104 $71 4 #
model_id-kcp-attrib $-1 -1 $255 $-1 $105 1 1021392311 1021392311 1975189505 6 #
face $256 -1 $-1 $257 $258 $10 $-1 $259 forward single #
cone-surface $260 -1 $-1 0.15625 0.37019999999999997 0 0 -1 0 -0.15625 0 0 1 I I 0.70710678118654702 0.70710678118654802 0.15625 forward I I I I #
loop_type-twe-attrib $-1 -1 $-1 $-1 $106 0 #
coedge $-1 -1 $-1 $165 $165 $261 $262 forward $106 $-1 #
surf-twe-attrib $-1 -1 $-1 $-1 $107 17 #
loop_type-twe-attrib $-1 -1 $-1 $-1 $109 0 #
coedge $-1 -1 $-1 $168 $168 $263 $264 forward $109 $-1 #
coedge $-1 -1 $-1 $265 $110 $266 $267 forward $72 $-1 #
coedge $-1 -1 $-1 $110 $268 $269 $270 forward $72 $-1 #
coedge $-1 -1 $-1 $271 $272 $110 $172 reversed $273 $-1 #
edge $274 -1 $-1 $275 -0.04194264160952671 $276 0 $171 $277 forward @7 unknown #
coedge $-1 -1 $-1 $173 $173 $113 $174 reversed $278 $-1 #
edge $279 -1 $-1 $280 -3.1415926535897931 $280 3.1415926535897931 $173 $281 forward @7 unknown #
loop $282 -1 $-1 $283 $114 $284 #
attrib_edge_convexity-kcp-attrib $-1 -1 $285 $-1 $115 1 #
vertex $-1 -1 $-1 $115 $286 #
ellipse-curve $287 -1 $-1 0.15625 -0.02 0 0 -1 0 -0.3125 0 0 1 I I #
loop_type-twe-attrib $-1 -1 $-1 $-1 $116 0 #
loop $288 -1 $-1 $-1 $289 $105 #
convexity-sys-attrib $-1 -1 $290 $117 $79 #
point $-1 -1 $-1 0.093799999999999994 0.46400000000000002 0 #
cur-twe-attrib $-1 -1 $-1 $-1 $119 25 #
face $-1 -1 $-1 $291 $292 $28 $-1 $293 forward single #
loop $-1 -1 $-1 $-1 $294 $120 #
coedge $-1 -1 $-1 $295 $296 $294 $297 forward $121 $-1 #
coedge $-1 -1 $-1 $298 $122 $299 $300 reversed $81 $-1 #
coedge $-1 -1 $-1 $122 $298 $124 $195 forward $81 $-1 #
coedge $-1 -1 $-1 $301 $302 $122 $190 forward $303 $-1 #
edge $-1 -1 $-1 $304 -3.1415926535897931 $305 -1.5707963267948966 $189 $306 forward @7 unknown #
coedge $-1 -1 $-1 $124 $123 $307 $308 reversed $54 $-1 #
coedge $-1 -1 $-1 $296 $295 $309 $193 reversed $121 $-1 #
edge $-1 -1 $-1 $199 -1.1875 $310 0 $309 $311 forward @7 unknown #
coedge $-1 -1 $-1 $312 $313 $314 $195 forward $315 $-1 #
edge $-1 -1 $-1 $200 -1.1875 $305 0 $194 $316 forward @7 unknown #
coedge $-1 -1 $-1 $197 $125 $313 $317 reversed $198 $-1 #
coedge $-1 -1 $-1 $125 $196 $318 $319 forward $198 $-1 #
loop $-1 -1 $-1 $-1 $125 $320 #
vertex $-1 -1 $-1 $321 $322 #
vertex $-1 -1 $-1 $323 $324 #
ellipse-curve $-1 -1 $-1 0 -0.59375 0 0 1 0 -0.3125 0 0 1 I I #
face $325 -1 $-1 $326 $327 $29 $-1 $328 reversed single #
loop $-1 -1 $-1 $-1 $329 $128 #
plane-surface $-1 -1 $-1 -0.3125 0 0 1 0 0 0 0 -1 forward_v I I I I #
coedge $-1 -1 $-1 $330 $213 $331 $332 forward $129 $-1 #
coedge $-1 -1 $-1 $333 $131 $330 $334 forward $84 $-1 #
coedge $-1 -1 $-1 $131 $333 $335 $336 forward $84 $-1 #
coedge $-1 -1 $-1 $216 $215 $131 $209 reversed $217 $-1 #
edge $-1 -1 $-1 $337 -0.59375 $338 0.59375 $208 $339 forward @7 unknown #
coedge $-1 -1 $-1 $133 $132 $340 $341 forward $57 $-1 #
coedge $-1 -1 $-1 $342 $343 $132 $212 reversed $327 $-1 #
edge $-1 -1 $-1 $219 -0.3125 $344 0.3125 $211 $345 forward @7 unknown #
coedge $-1 -1 $-1 $205 $346 $133 $214 reversed $129 $-1 #
edge $-1 -1 $-1 $347 -0.3125 $218 0.3125 $213 $348 forward @7 unknown #
coedge $-1 -1 $-1 $208 $134 $346 $349 forward $217 $-1 #
coedge $-1 -1 $-1 $134 $208 $342 $350 reversed $217 $-1 #
loop $-1 -1 $-1 $-1 $215 $326 #
vertex $-1 -1 $-1 $135 $351 #
vertex $-1 -1 $-1 $135 $352 #
straight-curve $-1 -1 $-1 0.3125 0 0.3125 0 1 0 I I #
loop $-1 -1 $-1 $-1 $353 $87 #
coedge $-1 -1 $-1 $222 $222 $353 $354 reversed $138 $-1 #
edge $-1 -1 $-1 $355 0 $355 6.2831853071795862 $139 $356 forward @7 unknown #
vertex $-1 -1 $-1 $142 $357 #
ellipse-curve $-1 -1 $-1 0 0 0.046900000000000025 0 0 -1 0.062450000000000061 0 0 1 I I #
face $-1 -1 $-1 $358 $359 $33 $-1 $360 forward single #
loop $-1 -1 $-1 $-1 $361 $143 #
plane-surface $-1 -1 $-1 -0.041554654138097002 -0.15624999999999997 0 0.86602540378443882 0 0.49999999999999989 0.49999999999999989 0 -0.86602540378443882 forward_v I I I I #
coedge $-1 -1 $-1 $362 $363 $364 $365 forward $144 $-1 #
coedge $-1 -1 $-1 $366 $146 $363 $367 reversed $93 $-1 #
coedge $-1 -1 $-1 $146 $366 $147 $235 forward $93 $-1 #
coedge $-1 -1 $-1 $149 $364 $146 $233 reversed $239 $-1 #
edge $-1 -1 $-1 $241 1.0552457100946071 $368 2.0863469434951836 $146 $369 forward @7 unknown #
coedge $-1 -1 $-1 $148 $147 $370 $371 reversed $63 $-1 #
edge $372 -1 $-1 $373 0 $241 0.37834101615137805 $231 $374 forward @7 unknown #
coedge $-1 -1 $-1 $375 $376 $148 $237 reversed $377 $-1 #
edge $378 -1 $-1 $379 0 $240 0.37834101615137805 $148 $380 forward @7 unknown #
coedge $-1 -1 $-1 $381 $149 $376 $382 reversed $239 $-1 #
loop $-1 -1 $-1 $-1 $149 $383 #
vertex $-1 -1 $-1 $237 $384 #
vertex $-1 -1 $-1 $235 $385 #
straight-curve $-1 -1 $-1 0.036360322370834884 -0.53459101615137805 0.0089968465322670371 -0.49999999999999989 0 0.86602540378443882 I I #
face $-1 -1 $-1 $-1 $386 $35 $-1 $387 reversed single #
loop $-1 -1 $-1 $388 $389 $151 #
cone-surface $-1 -1 $-1 0 0.59375 0 0 1 0 -0.3125 0 0 1 I I 0 1 0.3125 forward I I I I #
loop $-1 -1 $-1 $-1 $390 $96 #
coedge $-1 -1 $-1 $247 $247 $391 $392 forward $152 $-1 #
loop_type-twe-attrib $-1 -1 $-1 $-1 $155 1 #
coedge $-1 -1 $-1 $249 $249 $390 $393 forward $155 $-1 #
coedge $-1 -1 $-1 $250 $250 $158 $251 forward $386 $-1 #
edge $-1 -1 $-1 $394 0 $394 6.2831853071795862 $250 $395 forward @7 unknown #
convexity-sys-attrib $-1 -1 $396 $-1 $159 #
vertex $-1 -1 $-1 $159 $397 #
ellipse-curve $398 -1 $-1 0 0.14974999999999999 0 0 -1 0 -0.15625 0 0 1 I I #
face_name-twe-attrib $-1 -1 $-1 $161 $105 5 #
model_id-kcp-attrib $-1 -1 $399 $-1 $162 1 1021392311 1021392311 1975189505 7 #
face $400 -1 $-1 $284 $401 $10 $-1 $402 reversed single #
loop $403 -1 $-1 $404 $405 $162 #
cone-surface $406 -1 $-1 0.15625 0.52337500000000003 0 0 -1 0 -0.15625 0 0 1 I I 0 1 0.15625 forward I I I I #
surf-twe-attrib $-1 -1 $-1 $-1 $163 27 #
coedge $-1 -1 $-1 $261 $261 $165 $262 reversed $407 $-1 #
edge $408 -1 $-1 $409 -3.1415926535897931 $409 3.1415926535897931 $261 $410 forward @7 unknown #
coedge $-1 -1 $-1 $263 $263 $168 $264 reversed $283 $-1 #
edge $411 -1 $-1 $412 -3.1415926535897931 $412 3.1415926535897931 $263 $413 forward @7 unknown #
coedge $-1 -1 $-1 $414 $169 $415 $416 forward $72 $-1 #
coedge $-1 -1 $-1 $417 $418 $169 $267 reversed $419 $-1 #
edge $420 -1 $-1 $276 -1.0311012334005827 $421 -3.7320595417049479e-015 $266 $422 forward @7 unknown #
coedge $-1 -1 $-1 $170 $414 $423 $424 forward $72 $-1 #
coedge $-1 -1 $-1 $425 $426 $170 $270 reversed $427 $-1 #
edge $428 -1 $-1 $429 -0.04194264160952671 $275 0 $269 $430 forward @7 unknown #
coedge $-1 -1 $-1 $431 $171 $426 $432 forward $273 $-1 #
coedge $-1 -1 $-1 $171 $431 $417 $433 reversed $273 $-1 #
loop $434 -1 $-1 $-1 $431 $435 #
attrib_edge_convexity-kcp-attrib $-1 -1 $436 $-1 $172 2 #
vertex $-1 -1 $-1 $432 $437 #
vertex $-1 -1 $-1 $433 $438 #
straight-curve $439 -1 $-1 0.17683333333333301 -0.28599999999999998 -0.036323393135676001 -0.50000000000001499 0 -0.86602540378443005 I I #
loop $440 -1 $-1 $-1 $173 $257 #
attrib_edge_convexity-kcp-attrib $-1 -1 $441 $-1 $174 4 #
vertex $-1 -1 $-1 $174 $442 #
ellipse-curve $443 -1 $-1 0.15625 -0.02 0 0 -1 0 -0.15625 0 0 1 I I #
loop_type-twe-attrib $-1 -1 $-1 $-1 $175 0 #
loop $444 -1 $-1 $-1 $263 $284 #
face $445 -1 $-1 $446 $175 $10 $-1 $447 forward single #
convexity-sys-attrib $-1 -1 $448 $176 $115 #
point $-1 -1 $-1 -0.15625 -0.02 0 #
cur-twe-attrib $-1 -1 $-1 $-1 $178 37 #
loop_type-twe-attrib $-1 -1 $-1 $-1 $180 1 #
coedge $-1 -1 $-1 $289 $289 $405 $449 reversed $180 $-1 #
edge_name-twe-attrib $-1 -1 $-1 $181 $79 1 8448 #
face $-1 -1 $-1 $450 $451 $28 $-1 $452 reversed single #
loop $-1 -1 $-1 $-1 $314 $184 #
plane-surface $-1 -1 $-1 0 0 0.3125 0 0 1 1 0 0 forward_v I I I I #
coedge $-1 -1 $-1 $453 $454 $455 $297 reversed $185 $-1 #
coedge $-1 -1 $-1 $192 $186 $456 $457 reversed $121 $-1 #
coedge $-1 -1 $-1 $186 $192 $458 $459 reversed $121 $-1 #
edge $-1 -1 $-1 $460 -1.1875 $461 0 $455 $462 forward @7 unknown #
coedge $-1 -1 $-1 $188 $187 $463 $464 reversed $81 $-1 #
coedge $-1 -1 $-1 $465 $466 $467 $300 forward $468 $-1 #
edge $-1 -1 $-1 $469 -1.1875 $304 0 $299 $470 forward @7 unknown #
coedge $-1 -1 $-1 $302 $189 $471 $472 reversed $303 $-1 #
coedge $-1 -1 $-1 $189 $301 $465 $473 forward $303 $-1 #
loop $-1 -1 $-1 $-1 $189 $474 #
vertex $-1 -1 $-1 $475 $476 #
vertex $-1 -1 $-1 $477 $478 #
ellipse-curve $-1 -1 $-1 0 0.59375 0 0 -1 0 -0.3125 0 0 1 I I #
coedge $-1 -1 $-1 $479 $480 $191 $308 forward $481 $-1 #
edge $-1 -1 $-1 $305 -1.5707963267948966 $310 0 $307 $306 forward @7 unknown #
coedge $-1 -1 $-1 $482 $483 $484 $193 forward $451 $-1 #
vertex $-1 -1 $-1 $485 $486 #
straight-curve $-1 -1 $-1 -0.3125 0.59375 0 0 1 0 I I #
coedge $-1 -1 $-1 $487 $194 $480 $477 forward $315 $-1 #
coedge $-1 -1 $-1 $194 $487 $196 $317 forward $315 $-1 #
coedge $-1 -1 $-1 $488 $471 $188 $195 reversed $292 $-1 #
loop $-1 -1 $-1 $-1 $194 $489 #
straight-curve $-1 -1 $-1 0 0.59375 0.3125 0 1 0 I I #
edge $-1 -1 $-1 $490 -0.3125 $200 0 $196 $491 forward @7 unknown #
coedge $-1 -1 $-1 $492 $484 $197 $319 reversed $493 $-1 #
edge $-1 -1 $-1 $490 -0.3125 $199 0 $318 $494 forward @7 unknown #
face $-1 -1 $-1 $495 $198 $28 $-1 $496 reversed single #
edge $-1 -1 $-1 $199 0 $497 0.3125 $483 $494 forward @7 unknown #
point $-1 -1 $-1 -0.3125 -0.59375 0 #
edge $-1 -1 $-1 $200 0 $498 0.3125 $499 $491 forward @7 unknown #
point $-1 -1 $-1 0 -0.59375 0.3125 #
model_id-kcp-attrib $-1 -1 $-1 $-1 $202 1 1021392311 1021392311 1975189506 2 #
face $-1 -1 $-1 $-1 $217 $29 $-1 $500 reversed single #
loop $-1 -1 $-1 $-1 $342 $202 #
plane-surface $-1 -1 $-1 0 0.59375 0 0 -1 0 0 0 -1 forward_v I I I I #
coedge $-1 -1 $-1 $501 $340 $343 $502 forward $203 $-1 #
coedge $-1 -1 $-1 $346 $205 $206 $334 reversed $129 $-1 #
coedge $-1 -1 $-1 $340 $501 $205 $332 reversed $203 $-1 #
edge $-1 -1 $-1 $347 -0.3125 $503 0.3125 $331 $504 forward @7 unknown #
coedge $-1 -1 $-1 $207 $206 $501 $505 forward $84 $-1 #
edge $-1 -1 $-1 $338 -0.3125 $503 0.3125 $330 $506 forward @7 unknown #
coedge $-1 -1 $-1 $343 $342 $207 $336 reversed $327 $-1 #
edge $-1 -1 $-1 $507 -0.3125 $337 0.3125 $335 $508 forward @7 unknown #
vertex $-1 -1 $-1 $209 $509 #
vertex $-1 -1 $-1 $349 $510 #
straight-curve $-1 -1 $-1 0.3125 0 -0.3125 0 -1 0 I I #
coedge $-1 -1 $-1 $329 $331 $210 $341 reversed $203 $-1 #
edge $-1 -1 $-1 $344 -0.59375 $347 0.59375 $340 $511 forward @7 unknown #
coedge $-1 -1 $-1 $335 $211 $216 $350 forward $327 $-1 #
coedge $-1 -1 $-1 $211 $335 $329 $502 reversed $327 $-1 #
vertex $-1 -1 $-1 $212 $512 #
straight-curve $-1 -1 $-1 0 0.59375 0.3125 -1 0 0 I I #
coedge $-1 -1 $-1 $213 $330 $215 $349 reversed $129 $-1 #
vertex $-1 -1 $-1 $341 $513 #
straight-curve $-1 -1 $-1 0 -0.59375 0.3125 1 0 0 I I #
edge $-1 -1 $-1 $218 -0.3125 $338 0.3125 $215 $514 forward @7 unknown #
edge $-1 -1 $-1 $219 -0.3125 $337 0.3125 $216 $515 forward @7 unknown #
point $-1 -1 $-1 0.3125 -0.59375 0.3125 #
point $-1 -1 $-1 0.3125 0.59375 0.3125 #
coedge $-1 -1 $-1 $353 $353 $222 $354 forward $221 $-1 #
edge $-1 -1 $-1 $516 0 $516 6.2831853071795862 $353 $517 forward @7 unknown #
vertex $-1 -1 $-1 $223 $518 #
ellipse-curve $-1 -1 $-1 0 0 -0.046900000000000025 0 0 -1 0.15625 0 0 1 I I #
point $-1 -1 $-1 -0.062450000000000061 7.647666679620753e-018 0.046900000000000025 #
face $-1 -1 $-1 $519 $377 $33 $-1 $520 forward single #
loop $-1 -1 $-1 $-1 $521 $226 #
cone-surface $-1 -1 $-1 0 -0.15625 0 0 -1 0 0.041750000000000002 0 0 1 I I 0 -1 0.041750000000000002 forward I I I I #
coedge $-1 -1 $-1 $522 $523 $524 $525 forward $227 $-1 #
coedge $-1 -1 $-1 $526 $229 $523 $527 reversed $144 $-1 #
coedge $-1 -1 $-1 $229 $526 $230 $367 forward $144 $-1 #
coedge $-1 -1 $-1 $232 $524 $229 $365 reversed $239 $-1 #
edge $-1 -1 $-1 $368 -0.010582657270239283 $528 0.031359984339287605 $229 $529 forward @7 unknown #
coedge $-1 -1 $-1 $231 $230 $530 $531 reversed $93 $-1 #
edge $532 -1 $-1 $533 0 $368 0.37834101615137805 $363 $534 forward @7 unknown #
vertex $-1 -1 $-1 $367 $535 #
ellipse-curve $-1 -1 $-1 0 -0.53459101615137805 0 0 -1 0 0.041750000000000002 0 0 1 I I #
coedge $-1 -1 $-1 $530 $536 $234 $371 forward $537 $-1 #
edge $538 -1 $-1 $379 -0.010388663534524247 $373 0.031553978075002466 $234 $539 forward @7 unknown #
convexity-sys-attrib $-1 -1 $-1 $-1 $235 #
vertex $-1 -1 $-1 $371 $540 #
straight-curve $-1 -1 $-1 0.020583333333333009 -0.15624999999999997 0.036323393135676001 0 -1 0 I I #
coedge $-1 -1 $-1 $541 $236 $536 $542 reversed $377 $-1 #
coedge $-1 -1 $-1 $236 $541 $238 $382 forward $377 $-1 #
loop $-1 -1 $-1 $-1 $376 $358 #
convexity-sys-attrib $-1 -1 $-1 $-1 $237 #
vertex $-1 -1 $-1 $542 $543 #
straight-curve $-1 -1 $-1 0.041554654138097002 -0.15624999999999997 0 0 -1 0 I I #
coedge $-1 -1 $-1 $524 $238 $521 $544 reversed $239 $-1 #
edge $-1 -1 $-1 $545 -0.010582657270239109 $240 0.031359984339287605 $376 $546 forward @7 unknown #
face $-1 -1 $-1 $547 $548 $33 $-1 $549 reversed single #
point $-1 -1 $-1 0.041554654138097002 -0.53459101615137805 0 #
point $-1 -1 $-1 0.020583333333333009 -0.53459101615137805 0.036323393135676001 #
loop $-1 -1 $-1 $550 $250 $243 #
plane-surface $-1 -1 $-1 0 0.59375 0 0 -1 0 0 0 -1 forward_v I I I I #
loop $-1 -1 $-1 $-1 $391 $151 #
coedge $-1 -1 $-1 $389 $389 $551 $552 reversed $244 $-1 #
coedge $-1 -1 $-1 $390 $390 $249 $393 reversed $246 $-1 #
coedge $-1 -1 $-1 $391 $391 $247 $392 reversed $388 $-1 #
edge $553 -1 $-1 $554 -3.1415926535897931 $554 3.1415926535897931 $391 $555 forward @7 unknown #
edge $556 -1 $-1 $557 1.5707963267948968 $557 7.8539816339744828 $390 $558 forward @7 unknown #
vertex $-1 -1 $-1 $251 $559 #
ellipse-curve $-1 -1 $-1 0 0.59375 0 0 -1 0 -0.15625 0 0 1 I I #
edge_name-twe-attrib $-1 -1 $-1 $252 $159 3 8704 #
point $-1 -1 $-1 0.15625 0.14974999999999999 -1.91351029357402e-017 #
cur-twe-attrib $-1 -1 $-1 $-1 $254 197 #
face_name-twe-attrib $-1 -1 $-1 $256 $162 6 #
model_id-kcp-attrib $-1 -1 $560 $-1 $257 1 1021392311 1021392311 1975189505 8 #
loop $561 -1 $-1 $278 $562 $257 #
torus-surface $563 -1 $-1 0.15625 0 0 0 -1 0 0.15625 0.02 0 0 -1 forward_v I I I I #
loop_type-twe-attrib $-1 -1 $-1 $-1 $258 0 #
loop $564 -1 $-1 $-1 $565 $162 #
coedge $-1 -1 $-1 $405 $405 $289 $449 forward $258 $-1 #
surf-twe-attrib $-1 -1 $-1 $-1 $259 43 #
loop $566 -1 $-1 $-1 $261 $446 #
edge_name-twe-attrib $-1 -1 $-1 $-1 $262 7 8448 #
vertex $-1 -1 $-1 $262 $567 #
ellipse-curve $568 -1 $-1 0.15625 -0.72350000000000003 0 0 -1 0 -0.0075945447500129996 0 0 1 I I #
attrib_edge_convexity-kcp-attrib $-1 -1 $569 $-1 $264 1 #
vertex $-1 -1 $-1 $264 $570 #
ellipse-curve $571 -1 $-1 0.15625 -0.28599999999999998 0 1.0000000000000001e-015 -1 0 -0.3125 -3.125e-016 0 1 I I #
coedge $-1 -1 $-1 $268 $265 $572 $573 forward $72 $-1 #
coedge $-1 -1 $-1 $574 $575 $265 $416 reversed $576 $-1 #
edge $577 -1 $-1 $421 -0.04194264160952671 $578 0 $415 $579 forward @7 unknown #
coedge $-1 -1 $-1 $580 $266 $272 $433 forward $419 $-1 #
coedge $-1 -1 $-1 $266 $580 $574 $581 reversed $419 $-1 #
loop $582 -1 $-1 $-1 $580 $583 #
attrib_edge_convexity-kcp-attrib $-1 -1 $584 $-1 $267 2 #
vertex $-1 -1 $-1 $581 $585 #
ellipse-curve $586 -1 $-1 0.15625 -0.28599999999999998 0 0 1 0 -0.020583333333333301 0 -0.036323393135676202 1 I I #
coedge $-1 -1 $-1 $587 $588 $268 $424 reversed $589 $-1 #
edge $590 -1 $-1 $591 -1.0311012334005802 $429 -3.7320595417049479e-015 $423 $592 forward @7 unknown #
coedge $-1 -1 $-1 $593 $269 $588 $594 forward $427 $-1 #
coedge $-1 -1 $-1 $269 $593 $271 $432 reversed $427 $-1 #
loop $595 -1 $-1 $-1 $593 $596 #
attrib_edge_convexity-kcp-attrib $-1 -1 $597 $-1 $270 2 #
vertex $-1 -1 $-1 $594 $598 #
straight-curve $599 -1 $-1 0.197804654138097 -0.28599999999999998 0 0.50000000000001499 0 -0.86602540378443005 I I #
coedge $-1 -1 $-1 $272 $271 $600 $601 reversed $273 $-1 #
edge $602 -1 $-1 $275 -0.37867936510924299 $603 0 $426 $604 forward @7 unknown #
edge $605 -1 $-1 $276 -0.378341016151378 $606 0 $417 $607 forward @7 unknown #
loop_type-twe-attrib $-1 -1 $-1 $-1 $273 0 #
face $608 -1 $-1 $596 $273 $10 $-1 $609 reversed single #
convexity-sys-attrib $-1 -1 $610 $274 $172 #
point $-1 -1 $-1 0.197804654138097 -0.28599999999999998 0 #
point $-1 -1 $-1 0.17683333333333301 -0.28599999999999998 -0.036323393135676001 #
cur-twe-attrib $-1 -1 $-1 $-1 $277 53 #
loop_type-twe-attrib $-1 -1 $-1 $-1 $278 1 #
convexity-sys-attrib $-1 -1 $611 $279 $174 #
point $-1 -1 $-1 0.3125 -0.02 1.91351029357402e-017 #
cur-twe-attrib $-1 -1 $-1 $-1 $281 55 #
loop_type-twe-attrib $-1 -1 $-1 $-1 $283 1 #
model_id-kcp-attrib $-1 -1 $612 $-1 $284 1 1021392311 1021392311 1975189505 9 #
face $613 -1 $-1 $435 $614 $10 $-1 $615 forward single #
cone-surface $616 -1 $-1 0.15625 0.52337500000000003 0 0 -1 0 -0.3125 0 0 1 I I 0 1 0.3125 forward I I I I #
edge_name-twe-attrib $-1 -1 $-1 $285 $115 5 8704 #
edge $617 -1 $-1 $618 -3.1415926535897931 $618 3.1415926535897931 $405 $619 forward @7 unknown #
face $-1 -1 $-1 $620 $621 $28 $-1 $622 reversed single #
loop $-1 -1 $-1 $-1 $309 $291 #
plane-surface $-1 -1 $-1 -0.3125 0 0 1 0 0 0 0 -1 forward_v I I I I #
coedge $-1 -1 $-1 $623 $294 $624 $625 reversed $185 $-1 #
coedge $-1 -1 $-1 $294 $623 $626 $627 reversed $185 $-1 #
coedge $-1 -1 $-1 $628 $629 $630 $297 forward $631 $-1 #
coedge $-1 -1 $-1 $632 $633 $295 $457 forward $634 $-1 #
edge $-1 -1 $-1 $310 0 $461 1.5707963267948966 $456 $306 forward @7 unknown #
coedge $-1 -1 $-1 $635 $636 $296 $459 forward $637 $-1 #
edge $-1 -1 $-1 $460 -1.5707963267948966 $199 0 $458 $201 forward @7 unknown #
vertex $-1 -1 $-1 $638 $639 #
vertex $-1 -1 $-1 $640 $641 #
straight-curve $-1 -1 $-1 0 0.59375 -0.3125 0 1 0 I I #
coedge $-1 -1 $-1 $642 $499 $298 $464 forward $643 $-1 #
edge $-1 -1 $-1 $200 1.5707963267948966 $469 3.1415926535897931 $463 $201 forward @7 unknown #
coedge $-1 -1 $-1 $644 $299 $302 $473 reversed $468 $-1 #
coedge $-1 -1 $-1 $299 $644 $642 $645 forward $468 $-1 #
coedge $-1 -1 $-1 $646 $647 $623 $300 reversed $621 $-1 #
loop $-1 -1 $-1 $-1 $299 $648 #
vertex $-1 -1 $-1 $649 $650 #
straight-curve $-1 -1 $-1 0.3125 0.59375 0 0 1 0 I I #
coedge $-1 -1 $-1 $314 $651 $301 $472 forward $292 $-1 #
edge $-1 -1 $-1 $652 -0.3125 $305 0 $301 $653 forward @7 unknown #
edge $-1 -1 $-1 $652 -0.3125 $304 0 $465 $654 forward @7 unknown #
face $-1 -1 $-1 $655 $303 $28 $-1 $656 reversed single #
edge $-1 -1 $-1 $304 0 $657 0.3125 $647 $654 forward @7 unknown #
point $-1 -1 $-1 0.3125 0.59375 0 #
edge $-1 -1 $-1 $305 0 $658 0.3125 $480 $653 forward @7 unknown #
point $-1 -1 $-1 0 0.59375 0.3125 #
coedge $-1 -1 $-1 $480 $307 $659 $660 reversed $481 $-1 #
coedge $-1 -1 $-1 $307 $479 $312 $477 reversed $481 $-1 #
loop $-1 -1 $-1 $-1 $307 $655 #
coedge $-1 -1 $-1 $661 $309 $633 $485 forward $451 $-1 #
coedge $-1 -1 $-1 $309 $661 $635 $321 reversed $451 $-1 #
coedge $-1 -1 $-1 $318 $659 $123 $193 reversed $493 $-1 #
edge $-1 -1 $-1 $310 0 $662 0.3125 $633 $663 forward @7 unknown #
point $-1 -1 $-1 -0.3125 0.59375 0 #
coedge $-1 -1 $-1 $313 $312 $492 $664 forward $315 $-1 #
coedge $-1 -1 $-1 $651 $314 $499 $323 forward $292 $-1 #
face $-1 -1 $-1 $665 $315 $28 $-1 $293 forward single #
vertex $-1 -1 $-1 $664 $666 #
straight-curve $-1 -1 $-1 0 -0.59375 0.3125 1 0 0 I I #
coedge $-1 -1 $-1 $659 $318 $487 $664 reversed $493 $-1 #
loop $-1 -1 $-1 $-1 $484 $667 #
straight-curve $-1 -1 $-1 -0.3125 -0.59375 0 0 0 -1 I I #
face $-1 -1 $-1 $668 $643 $28 $-1 $496 reversed single #
plane-surface $-1 -1 $-1 0 -0.59375 0 0 1 0 0 0 1 forward_v I I I I #
vertex $-1 -1 $-1 $669 $670 #
vertex $-1 -1 $-1 $671 $672 #
coedge $-1 -1 $-1 $463 $642 $488 $323 reversed $643 $-1 #
plane-surface $-1 -1 $-1 0.3125 0 0 -1 0 0 0 0 1 forward_v I I I I #
coedge $-1 -1 $-1 $331 $329 $333 $505 reversed $203 $-1 #
edge $-1 -1 $-1 $344 -0.3125 $507 0.3125 $343 $673 forward @7 unknown #
vertex $-1 -1 $-1 $505 $674 #
straight-curve $-1 -1 $-1 -0.3125 -0.59375 0 0 0 -1 I I #
edge $-1 -1 $-1 $503 -0.59375 $507 0.59375 $501 $675 forward @7 unknown #
straight-curve $-1 -1 $-1 0 -0.59375 -0.3125 -1 0 0 I I #
vertex $-1 -1 $-1 $336 $676 #
straight-curve $-1 -1 $-1 0 0.59375 -0.3125 1 0 0 I I #
point $-1 -1 $-1 0.3125 0.59375 -0.3125 #
point $-1 -1 $-1 0.3125 -0.59375 -0.3125 #
straight-curve $-1 -1 $-1 -0.3125 0 0.3125 0 -1 0 I I #
point $-1 -1 $-1 -0.3125 0.59375 0.3125 #
point $-1 -1 $-1 -0.3125 -0.59375 0.3125 #
straight-curve $-1 -1 $-1 0.3125 -0.59375 0 0 0 -1 I I #
straight-curve $-1 -1 $-1 0.3125 0.59375 0 0 0 -1 I I #
vertex $-1 -1 $-1 $354 $677 #
ellipse-curve $-1 -1 $-1 0 0 0.046900000000000025 0 0 1 0.15625 0 0 1 I I #
point $-1 -1 $-1 0.15625 0 -0.046900000000000025 #
face $-1 -1 $-1 $383 $678 $33 $-1 $679 forward single #
plane-surface $-1 -1 $-1 0.020583333333333009 -0.15624999999999997 -0.036323393135676001 -0.86602540378443882 0 0.49999999999999989 0.49999999999999989 0 0.86602540378443882 forward_v I I I I #
coedge $-1 -1 $-1 $680 $681 $381 $544 forward $359 $-1 #
coedge $-1 -1 $-1 $682 $361 $681 $683 reversed $227 $-1 #
coedge $-1 -1 $-1 $361 $682 $362 $527 forward $227 $-1 #
coedge $-1 -1 $-1 $364 $381 $361 $525 reversed $239 $-1 #
edge $-1 -1 $-1 $528 -0.010388663534524247 $684 0.031553978075002466 $361 $685 forward @7 unknown #
coedge $-1 -1 $-1 $363 $362 $686 $687 reversed $144 $-1 #
edge $688 -1 $-1 $689 0 $528 0.37834101615137805 $523 $690 forward @7 unknown #
vertex $-1 -1 $-1 $527 $691 #
straight-curve $-1 -1 $-1 -0.025874661968452568 -0.53459101615137805 0.027158543100104855 -0.49999999999999989 0 -0.86602540378443882 I I #
coedge $-1 -1 $-1 $686 $370 $366 $531 forward $537 $-1 #
edge $692 -1 $-1 $373 1.0552457100946071 $533 2.0863469434951836 $366 $693 forward @7 unknown #
convexity-sys-attrib $-1 -1 $-1 $-1 $367 #
vertex $-1 -1 $-1 $531 $694 #
straight-curve $-1 -1 $-1 -0.020583333333333009 -0.15624999999999997 0.036323393135676202 0 -1 0 I I #
point $-1 -1 $-1 -0.020583333333333009 -0.53459101615137805 0.036323393135676202 #
coedge $-1 -1 $-1 $370 $695 $375 $542 forward $537 $-1 #
loop $-1 -1 $-1 $-1 $536 $547 #
convexity-sys-attrib $-1 -1 $-1 $-1 $371 #
straight-curve $-1 -1 $-1 0.036360322370834884 -0.15625000000000003 0.0089968465322670371 -0.49999999999999989 0 0.86602540378443882 I I #
point $-1 -1 $-1 0.020583333333333009 -0.15624999999999997 0.036323393135676001 #
coedge $-1 -1 $-1 $376 $375 $680 $696 forward $377 $-1 #
edge $697 -1 $-1 $698 -0.010582657270239109 $379 0.031359984339287605 $375 $699 forward @7 unknown #
point $-1 -1 $-1 0.041554654138097002 -0.15624999999999997 0 #
edge $-1 -1 $-1 $684 -2.0863469434951862 $545 -1.0552457100946071 $521 $700 forward @7 unknown #
vertex $-1 -1 $-1 $696 $701 #
straight-curve $-1 -1 $-1 0.025874661968452568 -0.53459101615137805 -0.027158543100104855 0.49999999999999989 0 0.86602540378443882 I I #
face $-1 -1 $-1 $-1 $702 $33 $-1 $703 forward single #
loop $-1 -1 $-1 $239 $704 $383 #
plane-surface $-1 -1 $-1 0.025156513107119721 -0.53459101615137805 -2.3852447794681098e-018 -1.1960771219449654e-032 1 3.1153348989029038e-032 0 -3.1153348989029038e-032 1 forward_v I I I I #
loop $-1 -1 $-1 $-1 $551 $243 #
coedge $-1 -1 $-1 $551 $551 $389 $552 forward $550 $-1 #
edge $-1 -1 $-1 $705 0 $705 6.2831853071795862 $551 $706 forward @7 unknown #
convexity-sys-attrib $-1 -1 $-1 $-1 $392 #
vertex $-1 -1 $-1 $392 $707 #
ellipse-curve $-1 -1 $-1 0 0.10975000000000001 0 0 -1 0 -0.3125 0 0 1 I I #
convexity-sys-attrib $-1 -1 $-1 $-1 $393 #
vertex $-1 -1 $-1 $393 $708 #
ellipse-curve $-1 -1 $-1 0 0.10975000000000001 0 0 -1 0 0 0 -0.15625 1 I I #
point $-1 -1 $-1 -0.15625 0.59375000000000011 0 #
face_name-twe-attrib $-1 -1 $-1 $400 $257 7 #
loop_type-twe-attrib $-1 -1 $-1 $-1 $401 0 #
coedge $-1 -1 $-1 $562 $562 $565 $709 forward $401 $-1 #
surf-twe-attrib $-1 -1 $-1 $-1 $402 65 #
loop_type-twe-attrib $-1 -1 $-1 $-1 $404 1 #
coedge $-1 -1 $-1 $565 $565 $562 $709 reversed $404 $-1 #
loop_type-twe-attrib $-1 -1 $-1 $-1 $407 1 #
point $-1 -1 $-1 0.163844544750013 -0.72350000000000003 9.3006333146613695e-019 #
cur-twe-attrib $-1 -1 $-1 $-1 $410 70 #
convexity-sys-attrib $-1 -1 $710 $411 $264 #
point $-1 -1 $-1 0.46875 -0.28599999999999998 3.8270205871480401e-017 #
cur-twe-attrib $-1 -1 $-1 $-1 $413 72 #
coedge $-1 -1 $-1 $711 $712 $414 $573 reversed $713 $-1 #
edge $714 -1 $-1 $578 -0.041942641609526911 $591 0 $572 $715 forward @7 unknown #
coedge $-1 -1 $-1 $716 $415 $418 $581 forward $576 $-1 #
coedge $-1 -1 $-1 $415 $716 $711 $717 reversed $576 $-1 #
loop $718 -1 $-1 $-1 $716 $719 #
attrib_edge_convexity-kcp-attrib $-1 -1 $720 $-1 $416 2 #
vertex $-1 -1 $-1 $717 $721 #
straight-curve $722 -1 $-1 0.114695345861903 -0.28599999999999998 0 -0.50000000000001499 0 0.86602540378443005 I I #
coedge $-1 -1 $-1 $418 $417 $723 $724 reversed $419 $-1 #
edge $725 -1 $-1 $421 -0.378341016151378 $726 0 $418 $727 forward @7 unknown #
loop_type-twe-attrib $-1 -1 $-1 $-1 $419 0 #
face $728 -1 $-1 $-1 $419 $10 $-1 $729 forward single #
convexity-sys-attrib $-1 -1 $730 $420 $267 #
point $-1 -1 $-1 0.13566666666666699 -0.28599999999999998 -0.036323393135676001 #
cur-twe-attrib $-1 -1 $731 $-1 $422 75 #
coedge $-1 -1 $-1 $732 $423 $712 $733 forward $589 $-1 #
coedge $-1 -1 $-1 $423 $732 $425 $594 reversed $589 $-1 #
loop $734 -1 $-1 $-1 $732 $735 #
attrib_edge_convexity-kcp-attrib $-1 -1 $736 $-1 $424 2 #
vertex $-1 -1 $-1 $733 $737 #
ellipse-curve $738 -1 $-1 0.15625 -0.28599999999999998 0 0 1 0 0.020583333333333301 0 0.036323393135676202 1 I I #
coedge $-1 -1 $-1 $426 $425 $739 $740 reversed $427 $-1 #
edge $741 -1 $-1 $429 -0.378341016151378 $742 0 $588 $743 forward @7 unknown #
loop_type-twe-attrib $-1 -1 $-1 $-1 $427 0 #
face $744 -1 $-1 $735 $427 $10 $-1 $745 reversed single #
convexity-sys-attrib $-1 -1 $746 $428 $270 #
point $-1 -1 $-1 0.17683333333333301 -0.28599999999999998 0.036323393135676001 #
cur-twe-attrib $-1 -1 $-1 $-1 $430 78 #
coedge $-1 -1 $-1 $739 $723 $431 $601 forward $614 $-1 #
edge $747 -1 $-1 $606 0 $603 0.0472554346776278 $431 $748 forward @7 unknown #
attrib_edge_convexity-kcp-attrib $-1 -1 $749 $-1 $432 1 #
vertex $-1 -1 $-1 $432 $750 #
straight-curve $751 -1 $-1 0.197804654138097 -0.66467936510924297 0 0 -1 0 I I #
attrib_edge_convexity-kcp-attrib $-1 -1 $752 $-1 $433 1 #
vertex $-1 -1 $-1 $433 $753 #
straight-curve $754 -1 $-1 0.17683333333333301 -0.66434101615137797 -0.036323393135676202 8.0697391701712804e-016 -1 -4.9518853998778304e-016 I I #
model_id-kcp-attrib $-1 -1 $755 $-1 $435 1 1021392311 1021392311 1975189505 11 #
plane-surface $756 -1 $-1 0.17683333333333301 -0.72350000000000003 -0.036323393135676001 -0.86602540378443882 0 0.49999999999999989 0.5 0 0.86602540378443904 forward_v I I I I #
edge_name-twe-attrib $-1 -1 $-1 $436 $172 9 4608 #
edge_name-twe-attrib $-1 -1 $-1 $441 $174 4 20480 #
face_name-twe-attrib $-1 -1 $-1 $445 $284 8 #
model_id-kcp-attrib $-1 -1 $757 $-1 $446 1 1021392311 1021392311 1975189505 10 #
loop $758 -1 $-1 $407 $739 $446 #
cone-surface $759 -1 $-1 0.15625 -0.66434101615137797 0 0 1 0 -0.020583333333333401 0 0.036323393135676202 1 I I 0.5 0.86602540378443904 0.041750000000000037 forward I I I I #
surf-twe-attrib $-1 -1 $-1 $-1 $447 92 #
attrib_edge_convexity-kcp-attrib $-1 -1 $760 $-1 $449 1 #
vertex $-1 -1 $-1 $449 $761 #
ellipse-curve $762 -1 $-1 0.15625 0.37019999999999997 0 0 -1 0 -0.15625 0 0 1 I I #
face $-1 -1 $-1 $474 $763 $28 $-1 $656 reversed single #
loop $-1 -1 $-1 $-1 $467 $450 #
plane-surface $-1 -1 $-1 0.3125 0 0 -1 0 0 0 0 1 forward_v I I I I #
coedge $-1 -1 $-1 $454 $453 $187 $300 forward $185 $-1 #
coedge $-1 -1 $-1 $764 $765 $453 $625 forward $766 $-1 #
edge $-1 -1 $-1 $469 -3.1415926535897931 $460 -1.5707963267948966 $624 $201 forward @7 unknown #
coedge $-1 -1 $-1 $767 $768 $454 $627 forward $763 $-1 #
edge $-1 -1 $-1 $461 1.5707963267948966 $304 3.1415926535897931 $626 $306 forward @7 unknown #
coedge $-1 -1 $-1 $769 $455 $768 $640 forward $631 $-1 #
coedge $-1 -1 $-1 $455 $769 $764 $770 forward $631 $-1 #
coedge $-1 -1 $-1 $771 $772 $186 $297 reversed $773 $-1 #
loop $-1 -1 $-1 $-1 $455 $665 #
coedge $-1 -1 $-1 $633 $456 $772 $774 reversed $634 $-1 #
coedge $-1 -1 $-1 $456 $632 $482 $485 reversed $634 $-1 #
loop $-1 -1 $-1 $-1 $456 $775 #
coedge $-1 -1 $-1 $636 $458 $483 $321 forward $637 $-1 #
coedge $-1 -1 $-1 $458 $635 $771 $638 reversed $637 $-1 #
loop $-1 -1 $-1 $-1 $458 $776 #
edge $-1 -1 $-1 $460 0 $497 0.3125 $636 $777 forward @7 unknown #
point $-1 -1 $-1 0 -0.59375 -0.3125 #
edge $-1 -1 $-1 $461 0 $657 0.3125 $768 $778 forward @7 unknown #
point $-1 -1 $-1 0 0.59375 -0.3125 #
coedge $-1 -1 $-1 $499 $463 $466 $645 reversed $643 $-1 #
loop $-1 -1 $-1 $-1 $463 $495 #
coedge $-1 -1 $-1 $466 $465 $651 $671 reversed $468 $-1 #
edge $-1 -1 $-1 $498 -0.3125 $469 0 $466 $779 forward @7 unknown #
coedge $-1 -1 $-1 $780 $467 $765 $649 forward $621 $-1 #
coedge $-1 -1 $-1 $467 $780 $767 $475 reversed $621 $-1 #
face $-1 -1 $-1 $-1 $468 $28 $-1 $622 reversed single #
edge $-1 -1 $-1 $469 0 $781 0.3125 $646 $779 forward @7 unknown #
point $-1 -1 $-1 0.3125 -0.59375 0 #
coedge $-1 -1 $-1 $471 $488 $644 $671 forward $292 $-1 #
vertex $-1 -1 $-1 $671 $782 #
straight-curve $-1 -1 $-1 0 0.59375 0.3125 -1 0 0 I I #
straight-curve $-1 -1 $-1 0.3125 0.59375 0 0 0 -1 I I #
face $-1 -1 $-1 $775 $481 $28 $-1 $656 reversed single #
plane-surface $-1 -1 $-1 0 0.59375 0 0 -1 0 0 0 -1 forward_v I I I I #
vertex $-1 -1 $-1 $783 $784 #
vertex $-1 -1 $-1 $477 $785 #
coedge $-1 -1 $-1 $484 $492 $479 $660 forward $493 $-1 #
edge $-1 -1 $-1 $658 -0.3125 $310 0 $479 $663 forward @7 unknown #
coedge $-1 -1 $-1 $483 $482 $786 $669 reversed $451 $-1 #
vertex $-1 -1 $-1 $774 $787 #
straight-curve $-1 -1 $-1 -0.3125 0.59375 0 0 0 -1 I I #
edge $-1 -1 $-1 $658 -0.59375 $490 0.59375 $492 $788 forward @7 unknown #
face $-1 -1 $-1 $667 $631 $28 $-1 $789 reversed single #
point $-1 -1 $-1 -0.3125 -0.59375 0.3125 #
face $-1 -1 $-1 $648 $493 $28 $-1 $452 reversed single #
face $-1 -1 $-1 $790 $766 $28 $-1 $496 reversed single #
edge $-1 -1 $-1 $497 -0.59375 $662 0.59375 $661 $791 forward @7 unknown #
point $-1 -1 $-1 -0.3125 -0.59375 -0.3125 #
edge $-1 -1 $-1 $498 -0.59375 $652 0.59375 $644 $792 forward @7 unknown #
point $-1 -1 $-1 0.3125 -0.59375 0.3125 #
straight-curve $-1 -1 $-1 -0.3125 0.59375 0 0 0 -1 I I #
point $-1 -1 $-1 -0.3125 -0.59375 -0.3125 #
straight-curve $-1 -1 $-1 -0.3125 0 -0.3125 0 1 0 I I #
point $-1 -1 $-1 -0.3125 0.59375 -0.3125 #
point $-1 -1 $-1 0.15625 0 0.046900000000000025 #
loop $-1 -1 $-1 $793 $794 $519 #
cone-surface $-1 -1 $-1 0 -0.15625 0 0 -1 0 -0.3125 0 0 1 I I 0 1 0.3125 forward I I I I #
coedge $-1 -1 $-1 $795 $521 $541 $696 reversed $359 $-1 #
coedge $-1 -1 $-1 $521 $795 $522 $683 forward $359 $-1 #
coedge $-1 -1 $-1 $523 $522 $796 $797 reversed $227 $-1 #
edge $798 -1 $-1 $799 0 $684 0.37834101615137805 $681 $800 forward @7 unknown #
vertex $-1 -1 $-1 $683 $801 #
straight-curve $-1 -1 $-1 -0.036360322370834884 -0.53459101615137805 -0.0089968465322670371 0.49999999999999989 0 -0.86602540378443882 I I #
coedge $-1 -1 $-1 $796 $530 $526 $687 forward $537 $-1 #
edge $802 -1 $-1 $533 -0.010582657270239283 $689 0.031359984339287605 $526 $803 forward @7 unknown #
convexity-sys-attrib $-1 -1 $-1 $-1 $527 #
vertex $-1 -1 $-1 $687 $804 #
straight-curve $-1 -1 $-1 -0.041554654138097002 -0.15624999999999997 0 0 -1 0 I I #
point $-1 -1 $-1 -0.041554654138097002 -0.53459101615137805 0 #
convexity-sys-attrib $-1 -1 $-1 $-1 $531 #
ellipse-curve $-1 -1 $-1 0 -0.15625 0 0 -1 0 0.041750000000000002 0 0 1 I I #
point $-1 -1 $-1 -0.020583333333333009 -0.15624999999999997 0.036323393135676202 #
coedge $-1 -1 $-1 $536 $796 $795 $805 forward $537 $-1 #
edge $806 -1 $-1 $698 0 $545 0.37834101615137805 $541 $807 forward @7 unknown #
convexity-sys-attrib $-1 -1 $-1 $-1 $542 #
vertex $-1 -1 $-1 $542 $808 #
straight-curve $-1 -1 $-1 0.025874661968452568 -0.15625000000000003 -0.027158543100104855 0.49999999999999989 0 0.86602540378443882 I I #
ellipse-curve $-1 -1 $-1 0 -0.53459101615137805 0 0 -1 0 0.041750000000000002 0 0 1 I I #
point $-1 -1 $-1 0.020583333333333009 -0.53459101615137805 -0.036323393135676001 #
loop $-1 -1 $-1 $537 $809 $547 #
plane-surface $-1 -1 $-1 0.025156513107119721 -0.15625000000000003 -2.3852447794681098e-018 -1.1960771219449654e-032 1 3.1153348989029038e-032 0 -3.1153348989029038e-032 1 forward_v I I I I #
coedge $-1 -1 $-1 $704 $704 $794 $810 reversed $548 $-1 #
vertex $-1 -1 $-1 $552 $811 #
ellipse-curve $-1 -1 $-1 0 0.59375 0 0 1 0 -0.3125 0 0 1 I I #
point $-1 -1 $-1 0.3125 0.10975000000000001 3.8268948556949289e-017 #
point $-1 -1 $-1 0.15625 0.10975 1.91351029357402e-017 #
edge $812 -1 $-1 $813 -3.1415926535897931 $813 3.1415926535897931 $562 $814 forward @7 unknown #
edge_name-twe-attrib $-1 -1 $-1 $569 $264 6 8704 #
coedge $-1 -1 $-1 $815 $572 $575 $717 forward $713 $-1 #
coedge $-1 -1 $-1 $572 $815 $587 $733 reversed $713 $-1 #
loop $816 -1 $-1 $-1 $815 $817 #
attrib_edge_convexity-kcp-attrib $-1 -1 $818 $-1 $573 2 #
straight-curve $819 -1 $-1 0.13566666666666699 -0.28599999999999998 0.036323393135676202 0.50000000000000699 0 0.86602540378443404 I I #
coedge $-1 -1 $-1 $575 $574 $820 $821 reversed $576 $-1 #
edge $822 -1 $-1 $578 -0.37867936510924299 $823 0 $575 $824 forward @7 unknown #
loop_type-twe-attrib $-1 -1 $-1 $-1 $576 0 #
face $825 -1 $-1 $583 $576 $10 $-1 $826 reversed single #
convexity-sys-attrib $-1 -1 $827 $577 $416 #
point $-1 -1 $-1 0.114695345861903 -0.28599999999999998 0 #
cur-twe-attrib $-1 -1 $-1 $-1 $579 113 #
coedge $-1 -1 $-1 $600 $820 $580 $724 forward $614 $-1 #
edge $828 -1 $-1 $726 -1.0311012334005802 $606 -6.0956972514513894e-015 $580 $829 forward @7 unknown #
attrib_edge_convexity-kcp-attrib $-1 -1 $830 $-1 $581 1 #
vertex $-1 -1 $-1 $581 $831 #
straight-curve $832 -1 $-1 0.13566666666666699 -0.66434101615137797 -0.036323393135676202 -8.8033518220050304e-016 -1 -4.9518853998778304e-016 I I #
model_id-kcp-attrib $-1 -1 $833 $-1 $583 1 1021392311 1021392311 1975189505 16 #
cone-surface $834 -1 $-1 0.15625 -0.72350000000000003 0 0 1 0 0.041750000000000002 0 0 1 I I 0 1 0.041750000000000002 forward I I I I #
edge_name-twe-attrib $-1 -1 $-1 $584 $267 24 4608 #
cur-twe-attrib $-1 -1 $-1 $586 $422 121 #
coedge $-1 -1 $-1 $588 $587 $835 $836 reversed $589 $-1 #
edge $837 -1 $-1 $591 -0.378341016151378 $838 0 $712 $839 forward @7 unknown #
loop_type-twe-attrib $-1 -1 $-1 $-1 $589 0 #
face $840 -1 $-1 $817 $589 $10 $-1 $841 forward single #
convexity-sys-attrib $-1 -1 $842 $590 $424 #
point $-1 -1 $-1 0.13566666666666699 -0.28599999999999998 0.036323393135676202 #
cur-twe-attrib $-1 -1 $843 $-1 $592 75 #
coedge $-1 -1 $-1 $835 $600 $593 $740 forward $614 $-1 #
edge $844 -1 $-1 $603 0 $742 0.0472554346776278 $593 $845 forward @7 unknown #
attrib_edge_convexity-kcp-attrib $-1 -1 $846 $-1 $594 1 #
vertex $-1 -1 $-1 $594 $847 #
straight-curve $848 -1 $-1 0.17683333333333301 -0.66434101615137797 0.036323393135676202 8.0697391701712804e-016 -1 5.6854980517115804e-016 I I #
model_id-kcp-attrib $-1 -1 $849 $-1 $596 1 1021392311 1021392311 1975189505 12 #
plane-surface $850 -1 $-1 0.197804654138097 -0.72350000000000003 0 -0.86602540378443882 0 -0.49999999999999989 -0.5 0 0.86602540378443904 forward_v I I I I #
edge_name-twe-attrib $-1 -1 $-1 $597 $270 12 4608 #
attrib_edge_convexity-kcp-attrib $-1 -1 $851 $-1 $601 1 #
intcurve-curve $852 -1 $-1 forward { exactcur full nubs 3 open 9 
	0 3 0.0060533869594745996 1 0.0119100781213957 1 0.017751166149605001 1 0.023594513304238 1 
	0.029465481932652499 1 0.03531736543366 1 0.041208272950937402 1 0.0472554346776278 3 
	0.17683333333333301 -0.66434101615137797 -0.036323393135676001 
	0.177591451968519 -0.66567237779940602 -0.035010293141369699 
	0.179135450668688 -0.66817807979799504 -0.032336008945855602 
	0.181636581034919 -0.67137053904488297 -0.028003924075191901 
	0.18434639358511601 -0.67366915601590804 -0.023310391059261502 
	0.18727256179228799 -0.67460633141023696 -0.018242119052948501 
	0.19021384594312299 -0.67382802746061399 -0.013147665464202899 
	0.192958187769285 -0.67162412364843904 -0.0083943259879544208 
	0.195484925179262 -0.66848577598842196 -0.0040178884164877799 
	0.19704278337302 -0.66599896398315706 -0.00131959887391423 
	0.197804654138097 -0.66467936510924297 0 
	0 
	null_surface 
	null_surface 
	nullbs 
	nullbs 
	I I 
	0 
	0 
	7 0.0060533869594745996 0.0119100781213957 0.017751166149605001 0.023594513304238 0.029465481932652499 0.03531736543366 0.041208272950937402 
	F 1 F 0 } I I #
convexity-sys-attrib $-1 -1 $853 $602 $432 #
point $-1 -1 $-1 0.197804654138097 -0.66467936510924297 0 #
cur-twe-attrib $-1 -1 $-1 $-1 $604 129 #
convexity-sys-attrib $-1 -1 $854 $605 $433 #
point $-1 -1 $-1 0.17683333333333301 -0.66434101615137797 -0.036323393135676202 #
cur-twe-attrib $-1 -1 $-1 $-1 $607 130 #
face_name-twe-attrib $-1 -1 $-1 $608 $435 10 #
surf-twe-attrib $-1 -1 $-1 $-1 $609 132 #
face_name-twe-attrib $-1 -1 $-1 $613 $446 9 #
loop_type-twe-attrib $-1 -1 $-1 $-1 $614 0 #
surf-twe-attrib $-1 -1 $-1 $-1 $615 141 #
convexity-sys-attrib $-1 -1 $855 $617 $449 #
point $-1 -1 $-1 0.3125 0.37019999999999997 -1.91351029357402e-017 #
cur-twe-attrib $-1 -1 $-1 $-1 $619 143 #
loop $-1 -1 $-1 $-1 $626 $620 #
coedge $-1 -1 $-1 $765 $624 $629 $770 reversed $766 $-1 #
coedge $-1 -1 $-1 $624 $764 $646 $649 reversed $766 $-1 #
loop $-1 -1 $-1 $-1 $624 $668 #
coedge $-1 -1 $-1 $768 $626 $647 $475 forward $763 $-1 #
coedge $-1 -1 $-1 $626 $767 $628 $640 reversed $763 $-1 #
coedge $-1 -1 $-1 $629 $628 $780 $783 forward $631 $-1 #
edge $-1 -1 $-1 $781 -0.3125 $460 0 $764 $777 forward @7 unknown #
coedge $-1 -1 $-1 $786 $630 $636 $638 forward $773 $-1 #
coedge $-1 -1 $-1 $630 $786 $632 $774 forward $773 $-1 #
loop $-1 -1 $-1 $-1 $630 $790 #
edge $-1 -1 $-1 $662 -0.3125 $461 0 $632 $778 forward @7 unknown #
face $-1 -1 $-1 $776 $634 $28 $-1 $656 reversed single #
face $-1 -1 $-1 $320 $637 $28 $-1 $496 reversed single #
straight-curve $-1 -1 $-1 0 -0.59375 -0.3125 -1 0 0 I I #
straight-curve $-1 -1 $-1 0 0.59375 -0.3125 1 0 0 I I #
straight-curve $-1 -1 $-1 0.3125 -0.59375 0 0 0 -1 I I #
coedge $-1 -1 $-1 $647 $646 $769 $783 reversed $621 $-1 #
vertex $-1 -1 $-1 $649 $856 #
point $-1 -1 $-1 0.3125 0.59375 0.3125 #
edge $-1 -1 $-1 $657 -0.59375 $781 0.59375 $780 $857 forward @7 unknown #
point $-1 -1 $-1 0.3125 0.59375 -0.3125 #
point $-1 -1 $-1 -0.3125 0.59375 0.3125 #
coedge $-1 -1 $-1 $772 $771 $661 $669 forward $773 $-1 #
point $-1 -1 $-1 -0.3125 0.59375 -0.3125 #
straight-curve $-1 -1 $-1 -0.3125 0 0.3125 0 -1 0 I I #
plane-surface $-1 -1 $-1 0 0 -0.3125 0 0 1 1 0 0 forward_v I I I I #
face $-1 -1 $-1 $489 $773 $28 $-1 $789 reversed single #
straight-curve $-1 -1 $-1 -0.3125 0 -0.3125 0 1 0 I I #
straight-curve $-1 -1 $-1 0.3125 0 0.3125 0 1 0 I I #
loop $-1 -1 $-1 $-1 $858 $519 #
coedge $-1 -1 $-1 $794 $794 $704 $810 forward $678 $-1 #
coedge $-1 -1 $-1 $681 $680 $695 $805 reversed $359 $-1 #
coedge $-1 -1 $-1 $695 $686 $682 $797 forward $537 $-1 #
edge $859 -1 $-1 $689 -0.010388663534524247 $799 0.031553978075002466 $682 $860 forward @7 unknown #
convexity-sys-attrib $-1 -1 $-1 $-1 $683 #
vertex $-1 -1 $-1 $797 $861 #
straight-curve $-1 -1 $-1 -0.020583333333333009 -0.15624999999999997 -0.036323393135676001 0 -1 0 I I #
point $-1 -1 $-1 -0.020583333333333009 -0.53459101615137805 -0.036323393135676001 #
convexity-sys-attrib $-1 -1 $-1 $-1 $687 #
straight-curve $-1 -1 $-1 -0.025874661968452568 -0.15625000000000003 0.027158543100104855 -0.49999999999999989 0 -0.86602540378443882 I I #
point $-1 -1 $-1 -0.041554654138097002 -0.15624999999999997 0 #
edge $862 -1 $-1 $799 -2.0863469434951862 $698 -1.0552457100946071 $795 $863 forward @7 unknown #
convexity-sys-attrib $-1 -1 $-1 $-1 $696 #
straight-curve $-1 -1 $-1 0.020583333333333009 -0.15624999999999997 -0.036323393135676001 0 -1 0 I I #
point $-1 -1 $-1 0.020583333333333009 -0.15624999999999997 -0.036323393135676001 #
coedge $-1 -1 $-1 $809 $809 $858 $864 forward $702 $-1 #
edge $-1 -1 $-1 $865 -3.1415926535897931 $865 3.1415926535897931 $794 $866 forward @7 unknown #
point $-1 -1 $-1 -0.3125 0.59375 0 #
attrib_edge_convexity-kcp-attrib $-1 -1 $867 $-1 $709 1 #
vertex $-1 -1 $-1 $709 $868 #
ellipse-curve $869 -1 $-1 0.15625 0.02 0 0 -1 0 -0.15625 0 0 1 I I #
coedge $-1 -1 $-1 $712 $711 $870 $871 reversed $713 $-1 #
loop_type-twe-attrib $-1 -1 $-1 $-1 $713 0 #
face $872 -1 $-1 $719 $713 $10 $-1 $873 reversed single #
convexity-sys-attrib $-1 -1 $874 $714 $573 #
cur-twe-attrib $-1 -1 $-1 $-1 $715 155 #
coedge $-1 -1 $-1 $723 $870 $716 $821 forward $614 $-1 #
edge $875 -1 $-1 $823 0 $726 0.047255434677628001 $716 $876 forward @7 unknown #
attrib_edge_convexity-kcp-attrib $-1 -1 $877 $-1 $717 1 #
vertex $-1 -1 $-1 $717 $878 #
straight-curve $879 -1 $-1 0.114695345861903 -0.66467936510924297 0 0 -1 0 I I #
model_id-kcp-attrib $-1 -1 $880 $-1 $719 1 1021392311 1021392311 1975189505 15 #
plane-surface $881 -1 $-1 0.114695345861903 -0.72350000000000003 0 0.86602540378443882 0 0.49999999999999989 0.5 0 -0.86602540378443904 forward_v I I I I #
edge_name-twe-attrib $-1 -1 $-1 $720 $416 21 4608 #
edge_name-twe-attrib $-1 -1 $-1 $-1 $724 22 8448 #
ellipse-curve $882 -1 $-1 0.15625 -0.66434101615137797 0 0 -1 0 0.020583333333333301 0 -0.036323393135676202 1 I I #
convexity-sys-attrib $-1 -1 $883 $725 $581 #
point $-1 -1 $-1 0.13566666666666699 -0.66434101615137797 -0.036323393135676202 #
cur-twe-attrib $-1 -1 $-1 $-1 $727 163 #
face_name-twe-attrib $-1 -1 $-1 $728 $583 15 #
surf-twe-attrib $-1 -1 $884 $-1 $729 165 #
coedge $-1 -1 $-1 $870 $739 $732 $836 forward $614 $-1 #
edge $885 -1 $-1 $742 -1.0311012334005825 $838 -8.2105309917508416e-015 $732 $886 forward @7 unknown #
attrib_edge_convexity-kcp-attrib $-1 -1 $887 $-1 $733 1 #
vertex $-1 -1 $-1 $733 $888 #
straight-curve $889 -1 $-1 0.13566666666666699 -0.66434101615137797 0.036323393135676202 -7.3361265183375295e-017 -1 0 I I #
model_id-kcp-attrib $-1 -1 $890 $-1 $735 1 1021392311 1021392311 1975189505 13 #
cone-surface $891 -1 $-1 0.15625 -0.72350000000000003 0 0 1 0 0.041750000000000002 0 0 1 I I 0 1 0.041750000000000002 forward I I I I #
edge_name-twe-attrib $-1 -1 $-1 $736 $424 15 4608 #
cur-twe-attrib $-1 -1 $-1 $738 $592 121 #
attrib_edge_convexity-kcp-attrib $-1 -1 $892 $-1 $740 1 #
intcurve-curve $893 -1 $-1 forward { exactcur full nubs 3 open 9 
	0 3 0.0060471617266904497 1 0.0119380692439678 1 0.017789952744975301 1 0.0236609213733898 1 
	0.029504268528022799 1 0.035345356556232201 1 0.041202047718153202 1 0.0472554346776278 3 
	0.197804654138097 -0.66467936510924297 0 
	0.19704278337302 -0.66599896398315706 0.00131959887391423 
	0.195484925179262 -0.66848577598842196 0.0040178884164877799 
	0.192958187769285 -0.67162412364843904 0.0083943259879544208 
	0.19021384594312299 -0.67382802746061399 0.013147665464202899 
	0.18727256179228799 -0.67460633141023696 0.018242119052948501 
	0.18434639358511601 -0.67366915601590804 0.023310391059261502 
	0.181636581034919 -0.67137053904488297 0.028003924075191901 
	0.179135450668688 -0.66817807979799504 0.032336008945855602 
	0.177591451968519 -0.66567237779940602 0.035010293141369699 
	0.17683333333333301 -0.66434101615137797 0.036323393135676001 
	0 
	null_surface 
	null_surface 
	nullbs 
	nullbs 
	I I 
	0 
	0 
	7 0.0060471617266904497 0.0119380692439678 0.017789952744975301 0.0236609213733898 0.029504268528022799 0.035345356556232201 0.041202047718153202 
	F 1 F 0 } I I #
convexity-sys-attrib $-1 -1 $894 $741 $594 #
point $-1 -1 $-1 0.17683333333333301 -0.66434101615137797 0.036323393135676202 #
cur-twe-attrib $-1 -1 $-1 $-1 $743 175 #
face_name-twe-attrib $-1 -1 $-1 $744 $596 11 #
surf-twe-attrib $-1 -1 $-1 $-1 $745 177 #
convexity-sys-attrib $-1 -1 $895 $747 $601 #
cur-twe-attrib $-1 -1 $-1 $-1 $748 181 #
edge_name-twe-attrib $-1 -1 $-1 $749 $432 11 8448 #
edge_name-twe-attrib $-1 -1 $-1 $752 $433 25 8448 #
edge_name-twe-attrib $-1 -1 $-1 $760 $449 2 8448 #
point $-1 -1 $-1 0.3125 -0.59375 -0.3125 #
straight-curve $-1 -1 $-1 0.3125 0 -0.3125 0 -1 0 I I #
coedge $-1 -1 $-1 $858 $858 $809 $864 reversed $793 $-1 #
convexity-sys-attrib $-1 -1 $-1 $-1 $797 #
straight-curve $-1 -1 $-1 -0.036360322370834884 -0.15625000000000003 -0.0089968465322670371 0.49999999999999989 0 -0.86602540378443882 I I #
point $-1 -1 $-1 -0.020583333333333009 -0.15624999999999997 -0.036323393135676001 #
convexity-sys-attrib $-1 -1 $-1 $-1 $805 #
ellipse-curve $-1 -1 $-1 0 -0.15625 0 0 -1 0 0.041750000000000002 0 0 1 I I #
edge $896 -1 $-1 $897 -3.1415926535897931 $897 3.1415926535897931 $858 $898 forward @7 unknown #
vertex $-1 -1 $-1 $810 $899 #
ellipse-curve $-1 -1 $-1 0 -0.53459101615137805 0 0 1 0 -0.3125 0 0 1 I I #
convexity-sys-attrib $-1 -1 $900 $812 $709 #
point $-1 -1 $-1 0.3125 0.02 -1.91351029357402e-017 #
cur-twe-attrib $-1 -1 $-1 $-1 $814 197 #
coedge $-1 -1 $-1 $820 $835 $815 $871 forward $614 $-1 #
edge $901 -1 $-1 $838 0 $823 0.0472554346776278 $815 $902 forward @7 unknown #
model_id-kcp-attrib $-1 -1 $903 $-1 $817 1 1021392311 1021392311 1975189505 14 #
plane-surface $904 -1 $-1 0.13566666666666699 -0.72350000000000003 0.036323393135676001 0.86602540378443882 0 -0.49999999999999989 -0.5 0 -0.86602540378443904 forward_v I I I I #
edge_name-twe-attrib $-1 -1 $-1 $818 $573 18 4608 #
attrib_edge_convexity-kcp-attrib $-1 -1 $905 $-1 $821 1 #
intcurve-curve $906 -1 $-1 forward { exactcur full nubs 3 open 9 
	0 3 0.0060471617266904497 1 0.011938069243968299 1 0.017789952744975499 1 0.023660921373390001 1 
	0.029504268528023 1 0.035345356556232298 1 0.041202047718153403 1 0.047255434677628001 3 
	0.114695345861903 -0.66467936510924297 0 
	0.11545721662698 -0.66599896398315706 -0.00131959887391423 
	0.117015074820738 -0.66848577598842196 -0.0040178884164880904 
	0.119541812230714 -0.67162412364844004 -0.0083943259879539506 
	0.122286154056877 -0.67382802746061299 -0.0131476654642032 
	0.12522743820771201 -0.67460633141023796 -0.018242119052948501 
	0.12815360641488399 -0.67366915601590804 -0.023310391059261502 
	0.130863418965081 -0.67137053904488297 -0.028003924075191901 
	0.133364549331312 -0.66817807979799504 -0.032336008945855602 
	0.134908548031481 -0.66567237779940602 -0.035010293141369699 
	0.13566666666666699 -0.66434101615137797 -0.036323393135676001 
	0 
	null_surface 
	null_surface 
	nullbs 
	nullbs 
	I I 
	0 
	0 
	7 0.0060471617266904497 0.011938069243968299 0.017789952744975499 0.023660921373390001 0.029504268528023 0.035345356556232298 0.041202047718153403 
	F 1 F 0 } I I #
convexity-sys-attrib $-1 -1 $907 $822 $717 #
point $-1 -1 $-1 0.114695345861903 -0.66467936510924297 0 #
cur-twe-attrib $-1 -1 $-1 $-1 $824 204 #
face_name-twe-attrib $-1 -1 $-1 $825 $719 14 #
surf-twe-attrib $-1 -1 $-1 $-1 $826 206 #
cur-twe-attrib $-1 -1 $-1 $-1 $829 210 #
edge_name-twe-attrib $-1 -1 $-1 $830 $581 23 8448 #
surf-twe-attrib $-1 -1 $-1 $834 $729 220 #
edge_name-twe-attrib $-1 -1 $-1 $-1 $836 13 8448 #
ellipse-curve $908 -1 $-1 0.15625 -0.66434101615137797 0 0 -1 0 -0.020583333333333401 0 0.036323393135676202 1 I I #
convexity-sys-attrib $-1 -1 $909 $837 $733 #
point $-1 -1 $-1 0.13566666666666699 -0.66434101615137797 0.036323393135676202 #
cur-twe-attrib $-1 -1 $-1 $-1 $839 218 #
face_name-twe-attrib $-1 -1 $-1 $840 $735 12 #
surf-twe-attrib $-1 -1 $910 $-1 $841 165 #
convexity-sys-attrib $-1 -1 $911 $844 $740 #
cur-twe-attrib $-1 -1 $-1 $-1 $845 224 #
edge_name-twe-attrib $-1 -1 $-1 $846 $594 14 8448 #
edge_name-twe-attrib $-1 -1 $-1 $851 $601 8 8448 #
convexity-sys-attrib $-1 -1 $-1 $-1 $864 #
vertex $-1 -1 $-1 $864 $912 #
ellipse-curve $-1 -1 $-1 0 -0.15625 0 0 1 0 -0.3125 0 0 1 I I #
point $-1 -1 $-1 0.3125 -0.53459101615137805 -3.8268948556949289e-017 #
edge_name-twe-attrib $-1 -1 $-1 $867 $709 3 8704 #
attrib_edge_convexity-kcp-attrib $-1 -1 $913 $-1 $871 1 #
intcurve-curve $914 -1 $-1 forward { exactcur full nubs 3 open 9 
	0 3 0.0060533869594745996 1 0.0119100781213957 1 0.017751166149605001 1 0.023594513304238 1 
	0.029465481932652499 1 0.03531736543366 1 0.041208272950937402 1 0.0472554346776278 3 
	0.13566666666666699 -0.66434101615137797 0.036323393135676001 
	0.134908548031481 -0.66567237779940602 0.035010293141369601 
	0.133364549331312 -0.66817807979799504 0.032336008945855602 
	0.130863418965081 -0.67137053904488297 0.028003924075191901 
	0.12815360641488399 -0.67366915601590804 0.023310391059261502 
	0.12522743820771201 -0.67460633141023696 0.018242119052948501 
	0.122286154056877 -0.67382802746061399 0.013147665464202899 
	0.119541812230715 -0.67162412364843904 0.0083943259879544294 
	0.117015074820738 -0.66848577598842196 0.0040178884164877799 
	0.11545721662698 -0.66599896398315706 0.00131959887391423 
	0.114695345861903 -0.66467936510924297 0 
	0 
	null_surface 
	null_surface 
	nullbs 
	nullbs 
	I I 
	0 
	0 
	7 0.0060533869594745996 0.0119100781213957 0.017751166149605001 0.023594513304238 0.029465481932652499 0.03531736543366 0.041208272950937402 
	F 1 F 0 } I I #
face_name-twe-attrib $-1 -1 $-1 $872 $817 13 #
surf-twe-attrib $-1 -1 $-1 $-1 $873 246 #
convexity-sys-attrib $-1 -1 $915 $875 $821 #
cur-twe-attrib $-1 -1 $-1 $-1 $876 249 #
edge_name-twe-attrib $-1 -1 $-1 $877 $717 20 8448 #
cur-twe-attrib $-1 -1 $-1 $-1 $886 261 #
edge_name-twe-attrib $-1 -1 $-1 $887 $733 17 8448 #
surf-twe-attrib $-1 -1 $-1 $891 $841 220 #
edge_name-twe-attrib $-1 -1 $-1 $892 $740 10 8448 #
point $-1 -1 $-1 0.3125 -0.15625 -3.8268948556949289e-017 #
convexity-sys-attrib $-1 -1 $916 $901 $871 #
cur-twe-attrib $-1 -1 $-1 $-1 $902 277 #
edge_name-twe-attrib $-1 -1 $-1 $905 $821 19 8448 #
edge_name-twe-attrib $-1 -1 $-1 $913 $871 16 8448 #
End-of-ACIS-data 