600 0 2 0           
24 FBMach with ACIS - 6.0.3 13 ACIS 6.0.3 NT 24 Wed May 23 21:59:08 2001 
1 9.9999999999999995e-007 1e-010 
body $2 $3 $-1 $4 #
bdycol-kcp $-1 1 5 $5 $6 $7 $8 $9 #
model_id-kcp-attrib $-1 $-1 $-1 $0 1 990669543 70 -1723465727 1 #
lump $-1 $-1 $10 $0 #
transform $-1 1 0 0 0 1 0 0 0 1 0 0 0 1 no_rotate no_reflect no_shear #
body $11 $12 $-1 $13 #
body $14 $15 $-1 $16 #
body $17 $18 $-1 $19 #
body $20 $21 $-1 $22 #
body $23 $24 $-1 $25 #
shell $-1 $-1 $-1 $26 $-1 $3 #
model_id-kcp-attrib $-1 $-1 $-1 $5 1 990669543 80 -1722810366 1 #
lump $-1 $-1 $27 $5 #
transform $-1 1 0 0 0 1 0 0 0 1 0.15625 -0.12975 0 1 no_rotate no_reflect no_shear #
rgb_color-st-attrib $-1 $28 $-1 $6 1 1 0.5 #
lump $-1 $-1 $29 $6 #
transform $-1 -1 0 0 0 0 1 0 1 0 0.15625 0.41710000000000003 0 1 rotate no_reflect no_shear #
rgb_color-st-attrib $-1 $30 $-1 $7 0.5 1 1 #
lump $-1 $-1 $31 $7 #
transform $-1 1 0 0 0 1 0 0 0 1 0.15625 -0.12975 0 1 no_rotate no_reflect no_shear #
rgb_color-st-attrib $-1 $32 $-1 $8 0.59999999999999998 0.90000000000000002 1 #
lump $-1 $-1 $33 $8 #
transform $-1 1 0 0 0 1 0 0 0 1 0.15625 -0.12975 0 1 no_rotate no_reflect no_shear #
rgb_color-st-attrib $-1 $34 $-1 $9 1 0.5 1 #
lump $-1 $-1 $35 $9 #
transform $-1 1 0 0 0 1 0 0 0 1 0.15625 -0.12975 0 1 no_rotate no_reflect no_shear #
face $36 $37 $38 $10 $-1 $39 reversed single #
shell $-1 $-1 $-1 $40 $-1 $12 #
model_id-kcp-attrib $-1 $-1 $14 $6 1 990669543 90 -1722155005 1 #
shell $-1 $-1 $-1 $41 $-1 $15 #
model_id-kcp-attrib $-1 $-1 $17 $7 1 990669543 190 -1715601404 1 #
shell $-1 $-1 $-1 $42 $-1 $18 #
model_id-kcp-attrib $-1 $-1 $20 $8 1 990669543 931 -1717370875 1 #
shell $-1 $-1 $-1 $43 $-1 $21 #
model_id-kcp-attrib $-1 $-1 $23 $9 1 990669543 1181 -1717764090 1 #
shell $-1 $-1 $-1 $44 $-1 $24 #
model_id-kcp-attrib $-1 $45 $-1 $26 1 990669543 70 -1723465727 17 #
face $46 $47 $48 $10 $-1 $49 reversed single #
loop $50 $-1 $51 $26 #
plane-surface $52 0.15625 0.46400000000000002 0 0 -1 0 0 0 -1 forward_v I I I I #
face $-1 $53 $54 $27 $-1 $55 forward single #
face $-1 $56 $57 $29 $-1 $58 reversed single #
face $-1 $59 $60 $31 $-1 $61 reversed single #
face $-1 $62 $63 $33 $-1 $64 reversed single #
face $-1 $65 $66 $35 $-1 $67 forward single #
model_id-kcp-attrib $-1 $68 $36 $26 1 990669543 70 -1723465727 2 #
model_id-kcp-attrib $-1 $69 $-1 $37 1 990669543 70 -1723465727 3 #
face $70 $71 $72 $10 $-1 $73 forward single #
loop $74 $75 $76 $37 #
plane-surface $77 0.15625 -0.02 0 0 -1 0 0 0 -1 forward_v I I I I #
loop_type-twe-attrib $-1 $-1 $-1 $38 0 #
coedge $-1 $51 $51 $78 $79 reversed $38 $-1 #
surf-twe-attrib $-1 $-1 $-1 $39 4 #
face $-1 $80 $81 $27 $-1 $82 reversed single #
loop $-1 $-1 $83 $40 #
plane-surface $-1 0 0 0.3125 0 0 1 1 0 0 forward_v I I I I #
face $-1 $84 $85 $29 $-1 $86 forward single #
loop $-1 $87 $88 $41 #
cone-surface $-1 0 0 0.031225000000000058 0 0 1 0.078125 0 0 1 I I -0.70710678118654702 0.70710678118654802 0.078125 forward I I I I #
face $-1 $89 $90 $31 $-1 $61 reversed single #
loop $-1 $-1 $91 $42 #
cone-surface $-1 0 0.59375 0 0 1 0 -0.3125 0 0 1 I I 0 1 0.3125 forward I I I I #
face $-1 $92 $93 $33 $-1 $94 forward single #
loop $-1 $95 $96 $43 #
plane-surface $-1 0 0.59375 0 0 -1 0 0 0 -1 forward_v I I I I #
face $-1 $97 $98 $35 $-1 $99 forward single #
loop $-1 $-1 $100 $44 #
plane-surface $-1 0.020583333333333009 -0.15624999999999997 -0.036323393135676001 -0.86602540378443882 0 0.49999999999999989 0.49999999999999989 0 0.86602540378443882 forward_v I I I I #
face_name-twe-attrib $-1 $-1 $45 $26 1 #
face_name-twe-attrib $-1 $-1 $46 $37 2 #
model_id-kcp-attrib $-1 $101 $-1 $47 1 990669543 70 -1723465727 4 #
face $102 $103 $104 $10 $-1 $105 forward single #
loop $106 $107 $108 $47 #
plane-surface $109 0.15625 -0.28599999999999998 0 0 -1 0 0 0 -1 forward_v I I I I #
loop_type-twe-attrib $-1 $-1 $-1 $48 0 #
loop $110 $-1 $111 $37 #
coedge $-1 $76 $76 $112 $113 reversed $48 $-1 #
surf-twe-attrib $-1 $-1 $-1 $49 6 #
coedge $-1 $78 $78 $51 $79 forward $114 $-1 #
edge $115 $116 0 $116 6.2831853071795862 $78 $117 forward 7 unknown #
face $118 $119 $120 $27 $-1 $121 reversed single #
loop $-1 $-1 $122 $53 #
plane-surface $-1 0 0 -0.3125 0 0 1 1 0 0 forward_v I I I I #
coedge $-1 $123 $124 $125 $126 forward $54 $-1 #
face $-1 $-1 $127 $29 $-1 $128 forward single #
loop $-1 $129 $130 $56 #
cone-surface $-1 0 0 0 0 0 1 0.15625 0 0 1 I I 0 1 0.15625 forward I I I I #
loop $-1 $-1 $131 $41 #
coedge $-1 $88 $88 $132 $133 reversed $57 $-1 #
face $-1 $134 $135 $31 $-1 $61 reversed single #
loop $-1 $-1 $136 $59 #
coedge $-1 $137 $138 $139 $140 reversed $60 $-1 #
face $-1 $141 $142 $33 $-1 $143 forward single #
loop $-1 $144 $145 $62 #
cone-surface $-1 0 0.10975000000000001 0 0 1 0 -0.3125 0 0 1 I I 0 1 0.3125 forward I I I I #
loop $-1 $-1 $146 $43 #
coedge $-1 $96 $96 $147 $148 forward $63 $-1 #
face $-1 $149 $150 $35 $-1 $151 forward single #
loop $-1 $-1 $152 $65 #
plane-surface $-1 0.041554654138097002 -0.15624999999999997 0 -0.86602540378443882 0 -0.49999999999999989 -0.49999999999999989 0 0.86602540378443882 forward_v I I I I #
coedge $-1 $153 $154 $155 $156 forward $66 $-1 #
face_name-twe-attrib $-1 $-1 $70 $47 3 #
model_id-kcp-attrib $-1 $157 $-1 $71 1 990669543 70 -1723465727 5 #
face $158 $159 $114 $10 $-1 $160 forward single #
loop $161 $-1 $162 $71 #
plane-surface $163 0.15625 -0.72350000000000003 0 0 -1 0 0 0 -1 forward_v I I I I #
loop_type-twe-attrib $-1 $-1 $-1 $72 1 #
loop $164 $-1 $165 $47 #
coedge $-1 $166 $167 $168 $169 forward $72 $-1 #
surf-twe-attrib $-1 $-1 $-1 $73 10 #
loop_type-twe-attrib $-1 $-1 $-1 $75 1 #
coedge $-1 $111 $111 $170 $171 forward $75 $-1 #
coedge $-1 $112 $112 $76 $113 forward $172 $-1 #
edge $173 $174 0 $174 6.2831853071795862 $112 $175 forward 7 unknown #
loop $176 $177 $78 $103 #
attrib_edge_convexity-kcp-attrib $-1 $178 $-1 $79 1 #
vertex $-1 $79 $179 #
ellipse-curve $180 0.15625 0.46400000000000002 0 0 -1 0 -0.062449999999999999 0 0 1 I I #
model_id-kcp-attrib $-1 $-1 $-1 $80 1 990669543 80 -1722810366 3 #
face $-1 $181 $182 $27 $-1 $183 reversed single #
loop $-1 $-1 $184 $80 #
plane-surface $-1 0 -0.59375 0 0 1 0 0 0 1 forward_v I I I I #
coedge $-1 $185 $186 $187 $188 forward $81 $-1 #
coedge $-1 $189 $83 $190 $191 forward $54 $-1 #
coedge $-1 $83 $189 $192 $193 forward $54 $-1 #
coedge $-1 $194 $195 $83 $126 reversed $196 $-1 #
edge $-1 $197 -0.59375 $198 0.59375 $125 $199 forward 7 unknown #
loop $-1 $200 $132 $84 #
plane-surface $-1 0 0 0.046900000000000025 0 0 1 1 0 0 forward_v I I I I #
loop $-1 $-1 $201 $56 #
coedge $-1 $130 $130 $131 $202 reversed $85 $-1 #
coedge $-1 $131 $131 $130 $202 forward $87 $-1 #
coedge $-1 $132 $132 $88 $133 forward $127 $-1 #
edge $-1 $203 -3.1415926535897931 $203 3.1415926535897931 $132 $204 forward 7 unknown #
face $-1 $205 $206 $31 $-1 $61 reversed single #
loop $-1 $-1 $207 $89 #
coedge $-1 $208 $209 $210 $211 reversed $90 $-1 #
coedge $-1 $212 $91 $213 $214 forward $60 $-1 #
coedge $-1 $91 $212 $215 $216 reversed $60 $-1 #
coedge $-1 $217 $218 $91 $140 forward $219 $-1 #
edge $-1 $220 0 $221 1.5707963267948966 $139 $222 forward 7 unknown #
face $-1 $-1 $223 $33 $-1 $224 reversed single #
loop $-1 $225 $226 $92 #
cone-surface $-1 0 0.10975000000000001 0 0 1 0 0 0 -0.15625 1 I I 0 -1 0.15625 forward I I I I #
loop $-1 $-1 $227 $62 #
coedge $-1 $145 $145 $228 $229 reversed $93 $-1 #
coedge $-1 $146 $146 $227 $230 forward $95 $-1 #
coedge $-1 $147 $147 $96 $148 reversed $225 $-1 #
edge $-1 $231 -1.5707963267948966 $231 4.7123889803846897 $147 $232 forward 7 unknown #
face $-1 $233 $234 $35 $-1 $235 forward single #
loop $-1 $-1 $236 $97 #
cone-surface $-1 0 -0.15625 0 0 -1 0 0.041750000000000002 0 0 1 I I 0 -1 0.041750000000000002 forward I I I I #
coedge $-1 $237 $238 $239 $240 forward $98 $-1 #
coedge $-1 $241 $100 $238 $242 reversed $66 $-1 #
coedge $-1 $100 $241 $243 $244 forward $66 $-1 #
coedge $-1 $245 $239 $100 $156 reversed $246 $-1 #
edge $-1 $247 -0.010582657270239109 $248 0.031359984339287605 $100 $249 forward 7 unknown #
face_name-twe-attrib $-1 $-1 $102 $71 4 #
model_id-kcp-attrib $-1 $250 $-1 $103 1 990669543 70 -1723465727 6 #
face $251 $252 $253 $10 $-1 $254 forward single #
cone-surface $255 0.15625 0.37019999999999997 0 0 -1 0 -0.15625 0 0 1 I I 0.70710678118654702 0.70710678118654802 0.15625 forward I I I I #
loop_type-twe-attrib $-1 $-1 $-1 $104 0 #
coedge $-1 $162 $162 $256 $257 forward $104 $-1 #
surf-twe-attrib $-1 $-1 $-1 $105 17 #
loop_type-twe-attrib $-1 $-1 $-1 $107 0 #
coedge $-1 $165 $165 $258 $259 forward $107 $-1 #
coedge $-1 $260 $108 $261 $262 forward $72 $-1 #
coedge $-1 $108 $263 $264 $265 forward $72 $-1 #
coedge $-1 $266 $267 $108 $169 reversed $268 $-1 #
edge $269 $270 -0.04194264160952671 $271 0 $168 $272 forward 7 unknown #
coedge $-1 $170 $170 $111 $171 reversed $273 $-1 #
edge $274 $275 -3.1415926535897931 $275 3.1415926535897931 $170 $276 forward 7 unknown #
loop $277 $278 $112 $279 #
edge_name-twe-attrib $-1 $-1 $-1 $113 5 8704 #
vertex $-1 $113 $280 #
ellipse-curve $281 0.15625 -0.02 0 0 -1 0 -0.3125 0 0 1 I I #
loop_type-twe-attrib $-1 $-1 $-1 $114 0 #
loop $282 $-1 $283 $103 #
convexity-sys-attrib $-1 $284 $115 $79 #
point $-1 0.093799999999999994 0.46400000000000002 0 #
cur-twe-attrib $-1 $-1 $-1 $117 25 #
face $285 $286 $287 $27 $-1 $288 reversed single #
loop $-1 $-1 $289 $119 #
plane-surface $-1 -0.3125 0 0 1 0 0 0 0 -1 forward_v I I I I #
coedge $-1 $290 $192 $291 $292 forward $120 $-1 #
coedge $-1 $293 $122 $290 $294 forward $81 $-1 #
coedge $-1 $122 $293 $295 $296 forward $81 $-1 #
coedge $-1 $195 $194 $122 $188 reversed $196 $-1 #
edge $-1 $297 -0.59375 $298 0.59375 $187 $299 forward 7 unknown #
coedge $-1 $124 $123 $300 $301 forward $54 $-1 #
coedge $-1 $302 $303 $123 $191 reversed $287 $-1 #
edge $-1 $198 -0.3125 $304 0.3125 $190 $305 forward 7 unknown #
coedge $-1 $184 $306 $124 $193 reversed $120 $-1 #
edge $-1 $307 -0.3125 $197 0.3125 $192 $308 forward 7 unknown #
coedge $-1 $187 $125 $306 $309 forward $196 $-1 #
coedge $-1 $125 $187 $302 $310 reversed $196 $-1 #
loop $-1 $-1 $194 $286 #
vertex $-1 $126 $311 #
vertex $-1 $126 $312 #
straight-curve $-1 0.3125 0 0.3125 0 1 0 I I #
loop $-1 $-1 $313 $84 #
coedge $-1 $201 $201 $313 $314 reversed $129 $-1 #
edge $-1 $315 0 $315 6.2831853071795862 $130 $316 forward 7 unknown #
vertex $-1 $133 $317 #
ellipse-curve $-1 0 0 0.046900000000000025 0 0 -1 0.062450000000000061 0 0 1 I I #
face $-1 $318 $319 $31 $-1 $320 forward single #
loop $-1 $-1 $321 $134 #
coedge $-1 $322 $323 $321 $324 forward $135 $-1 #
coedge $-1 $325 $136 $326 $327 reversed $90 $-1 #
coedge $-1 $136 $325 $138 $216 forward $90 $-1 #
coedge $-1 $328 $329 $136 $211 forward $330 $-1 #
edge $-1 $331 -3.1415926535897931 $332 -1.5707963267948966 $210 $333 forward 7 unknown #
coedge $-1 $138 $137 $334 $335 reversed $60 $-1 #
coedge $-1 $323 $322 $336 $214 reversed $135 $-1 #
edge $-1 $220 -1.1875 $337 0 $336 $338 forward 7 unknown #
coedge $-1 $339 $340 $341 $216 forward $342 $-1 #
edge $-1 $221 -1.1875 $332 0 $215 $343 forward 7 unknown #
coedge $-1 $218 $139 $340 $344 reversed $219 $-1 #
coedge $-1 $139 $217 $345 $346 forward $219 $-1 #
loop $-1 $-1 $139 $347 #
vertex $-1 $348 $349 #
vertex $-1 $350 $351 #
ellipse-curve $-1 0 -0.59375 0 0 1 0 -0.3125 0 0 1 I I #
loop $-1 $352 $353 $141 #
plane-surface $-1 0.023674242424242417 0.10975000000000003 3.8007908403204554e-018 0 1 0 0 0 1 forward_v I I I I #
loop $-1 $-1 $147 $92 #
coedge $-1 $226 $226 $353 $354 forward $142 $-1 #
coedge $-1 $227 $227 $146 $230 reversed $144 $-1 #
coedge $-1 $228 $228 $145 $229 forward $352 $-1 #
edge $355 $356 -3.1415926535897931 $356 3.1415926535897931 $145 $357 forward 7 unknown #
edge $-1 $358 0 $358 6.2831853071795862 $227 $359 forward 7 unknown #
vertex $-1 $148 $360 #
ellipse-curve $-1 0 0.59375 0 0 -1 0 0 0 -0.15625 1 I I #
face $-1 $361 $362 $35 $-1 $363 forward single #
loop $-1 $-1 $364 $149 #
plane-surface $-1 -0.020583333333333009 -0.15624999999999997 0.036323393135676202 0.86602540378443882 0 -0.49999999999999989 -0.49999999999999989 0 -0.86602540378443882 forward_v I I I I #
coedge $-1 $365 $366 $367 $368 forward $150 $-1 #
coedge $-1 $369 $152 $366 $370 reversed $98 $-1 #
coedge $-1 $152 $369 $153 $242 forward $98 $-1 #
coedge $-1 $155 $367 $152 $240 reversed $246 $-1 #
edge $-1 $248 -0.010388663534524247 $371 0.031553978075002466 $152 $372 forward 7 unknown #
coedge $-1 $154 $153 $373 $374 reversed $66 $-1 #
edge $375 $376 0 $248 0.37834101615137805 $238 $377 forward 7 unknown #
coedge $-1 $378 $379 $154 $244 reversed $380 $-1 #
edge $381 $382 0 $247 0.37834101615137805 $154 $383 forward 7 unknown #
coedge $-1 $384 $155 $379 $385 reversed $246 $-1 #
loop $-1 $-1 $155 $386 #
vertex $-1 $244 $387 #
vertex $-1 $242 $388 #
straight-curve $-1 0.025874661968452568 -0.53459101615137805 -0.027158543100104855 0.49999999999999989 0 0.86602540378443882 I I #
face_name-twe-attrib $-1 $-1 $158 $103 5 #
model_id-kcp-attrib $-1 $389 $-1 $159 1 990669543 70 -1723465727 7 #
face $390 $279 $391 $10 $-1 $392 reversed single #
loop $393 $394 $395 $159 #
cone-surface $396 0.15625 0.52337500000000003 0 0 -1 0 -0.15625 0 0 1 I I 0 1 0.15625 forward I I I I #
surf-twe-attrib $-1 $-1 $-1 $160 27 #
coedge $-1 $256 $256 $162 $257 reversed $397 $-1 #
edge $398 $399 -3.1415926535897931 $399 3.1415926535897931 $256 $400 forward 7 unknown #
coedge $-1 $258 $258 $165 $259 reversed $278 $-1 #
edge $401 $402 -3.1415926535897931 $402 3.1415926535897931 $258 $403 forward 7 unknown #
coedge $-1 $404 $166 $405 $406 forward $72 $-1 #
coedge $-1 $407 $408 $166 $262 reversed $409 $-1 #
edge $410 $271 -1.0311012334005827 $411 -3.7320595417049479e-015 $261 $412 forward 7 unknown #
coedge $-1 $167 $404 $413 $414 forward $72 $-1 #
coedge $-1 $415 $416 $167 $265 reversed $417 $-1 #
edge $418 $419 -0.04194264160952671 $270 0 $264 $420 forward 7 unknown #
coedge $-1 $421 $168 $416 $422 forward $268 $-1 #
coedge $-1 $168 $421 $407 $423 reversed $268 $-1 #
loop $424 $-1 $421 $425 #
attrib_edge_convexity-kcp-attrib $-1 $426 $-1 $169 2 #
vertex $-1 $422 $427 #
vertex $-1 $423 $428 #
straight-curve $429 0.17683333333333301 -0.28599999999999998 -0.036323393135676001 -0.50000000000001499 0 -0.86602540378443005 I I #
loop $430 $-1 $170 $252 #
edge_name-twe-attrib $-1 $-1 $-1 $171 4 20480 #
vertex $-1 $171 $431 #
ellipse-curve $432 0.15625 -0.02 0 0 -1 0 -0.15625 0 0 1 I I #
loop_type-twe-attrib $-1 $-1 $-1 $172 0 #
loop $433 $-1 $258 $279 #
face $434 $435 $172 $10 $-1 $436 forward single #
point $-1 -0.15625 -0.02 0 #
cur-twe-attrib $-1 $-1 $-1 $175 37 #
loop_type-twe-attrib $-1 $-1 $-1 $177 1 #
coedge $-1 $283 $283 $395 $437 reversed $177 $-1 #
edge_name-twe-attrib $-1 $-1 $178 $79 1 8448 #
model_id-kcp-attrib $-1 $-1 $-1 $181 1 990669543 80 -1722810366 2 #
face $-1 $-1 $196 $27 $-1 $438 reversed single #
loop $-1 $-1 $302 $181 #
plane-surface $-1 0 0.59375 0 0 -1 0 0 0 -1 forward_v I I I I #
coedge $-1 $439 $300 $303 $440 forward $182 $-1 #
coedge $-1 $306 $184 $185 $294 reversed $120 $-1 #
coedge $-1 $300 $439 $184 $292 reversed $182 $-1 #
edge $-1 $307 -0.3125 $441 0.3125 $291 $442 forward 7 unknown #
coedge $-1 $186 $185 $439 $443 forward $81 $-1 #
edge $-1 $298 -0.3125 $441 0.3125 $290 $444 forward 7 unknown #
coedge $-1 $303 $302 $186 $296 reversed $287 $-1 #
edge $-1 $445 -0.3125 $297 0.3125 $295 $446 forward 7 unknown #
vertex $-1 $188 $447 #
vertex $-1 $309 $448 #
straight-curve $-1 0.3125 0 -0.3125 0 -1 0 I I #
coedge $-1 $289 $291 $189 $301 reversed $182 $-1 #
edge $-1 $304 -0.59375 $307 0.59375 $300 $449 forward 7 unknown #
coedge $-1 $295 $190 $195 $310 forward $287 $-1 #
coedge $-1 $190 $295 $289 $440 reversed $287 $-1 #
vertex $-1 $191 $450 #
straight-curve $-1 0 0.59375 0.3125 -1 0 0 I I #
coedge $-1 $192 $290 $194 $309 reversed $120 $-1 #
vertex $-1 $301 $451 #
straight-curve $-1 0 -0.59375 0.3125 1 0 0 I I #
edge $-1 $197 -0.3125 $298 0.3125 $194 $452 forward 7 unknown #
edge $-1 $198 -0.3125 $297 0.3125 $195 $453 forward 7 unknown #
point $-1 0.3125 -0.59375 0.3125 #
point $-1 0.3125 0.59375 0.3125 #
coedge $-1 $313 $313 $201 $314 forward $200 $-1 #
edge $-1 $454 0 $454 6.2831853071795862 $313 $455 forward 7 unknown #
vertex $-1 $202 $456 #
ellipse-curve $-1 0 0 -0.046900000000000025 0 0 -1 0.15625 0 0 1 I I #
point $-1 -0.062450000000000061 7.647666679620753e-018 0.046900000000000025 #
face $-1 $457 $458 $31 $-1 $459 reversed single #
loop $-1 $-1 $341 $205 #
plane-surface $-1 0 0 0.3125 0 0 1 1 0 0 forward_v I I I I #
coedge $-1 $460 $461 $462 $324 reversed $206 $-1 #
coedge $-1 $213 $207 $463 $464 reversed $135 $-1 #
coedge $-1 $207 $213 $465 $466 reversed $135 $-1 #
edge $-1 $467 -1.1875 $468 0 $462 $469 forward 7 unknown #
coedge $-1 $209 $208 $470 $471 reversed $90 $-1 #
coedge $-1 $472 $473 $474 $327 forward $475 $-1 #
edge $-1 $476 -1.1875 $331 0 $326 $477 forward 7 unknown #
coedge $-1 $329 $210 $478 $479 reversed $330 $-1 #
coedge $-1 $210 $328 $472 $480 forward $330 $-1 #
loop $-1 $-1 $210 $481 #
vertex $-1 $482 $483 #
vertex $-1 $484 $485 #
ellipse-curve $-1 0 0.59375 0 0 -1 0 -0.3125 0 0 1 I I #
coedge $-1 $486 $487 $212 $335 forward $488 $-1 #
edge $-1 $332 -1.5707963267948966 $337 0 $334 $333 forward 7 unknown #
coedge $-1 $489 $490 $491 $214 forward $458 $-1 #
vertex $-1 $492 $493 #
straight-curve $-1 -0.3125 0.59375 0 0 1 0 I I #
coedge $-1 $494 $215 $487 $484 forward $342 $-1 #
coedge $-1 $215 $494 $217 $344 forward $342 $-1 #
coedge $-1 $495 $478 $209 $216 reversed $319 $-1 #
loop $-1 $-1 $215 $496 #
straight-curve $-1 0 0.59375 0.3125 0 1 0 I I #
edge $-1 $497 -0.3125 $221 0 $217 $498 forward 7 unknown #
coedge $-1 $499 $491 $218 $346 reversed $500 $-1 #
edge $-1 $497 -0.3125 $220 0 $345 $501 forward 7 unknown #
face $-1 $502 $219 $31 $-1 $503 reversed single #
edge $-1 $220 0 $504 0.3125 $490 $501 forward 7 unknown #
point $-1 -0.3125 -0.59375 0 #
edge $-1 $221 0 $505 0.3125 $506 $498 forward 7 unknown #
point $-1 0 -0.59375 0.3125 #
loop $-1 $-1 $228 $141 #
coedge $-1 $353 $353 $226 $354 reversed $223 $-1 #
edge $-1 $507 1.5707963267948968 $507 7.8539816339744828 $226 $508 forward 7 unknown #
convexity-sys-attrib $-1 $-1 $-1 $229 #
vertex $-1 $229 $509 #
ellipse-curve $-1 0 0.10975000000000001 0 0 -1 0 -0.3125 0 0 1 I I #
vertex $-1 $230 $510 #
ellipse-curve $-1 0 0.59375 0 0 1 0 -0.3125 0 0 1 I I #
point $-1 -0.15625 0.59375000000000011 0 #
face $-1 $511 $380 $35 $-1 $512 forward single #
loop $-1 $-1 $513 $233 #
plane-surface $-1 -0.041554654138097002 -0.15624999999999997 0 0.86602540378443882 0 0.49999999999999989 0.49999999999999989 0 -0.86602540378443882 forward_v I I I I #
coedge $-1 $514 $515 $516 $517 forward $234 $-1 #
coedge $-1 $518 $236 $515 $519 reversed $150 $-1 #
coedge $-1 $236 $518 $237 $370 forward $150 $-1 #
coedge $-1 $239 $516 $236 $368 reversed $246 $-1 #
edge $-1 $371 1.0552457100946071 $520 2.0863469434951836 $236 $521 forward 7 unknown #
coedge $-1 $238 $237 $522 $523 reversed $98 $-1 #
edge $524 $525 0 $371 0.37834101615137805 $366 $526 forward 7 unknown #
vertex $-1 $370 $527 #
straight-curve $-1 0.036360322370834884 -0.53459101615137805 0.0089968465322670371 -0.49999999999999989 0 0.86602540378443882 I I #
coedge $-1 $522 $528 $241 $374 forward $529 $-1 #
edge $-1 $382 -0.010582657270239109 $376 0.031359984339287605 $241 $530 forward 7 unknown #
convexity-sys-attrib $-1 $-1 $-1 $242 #
vertex $-1 $374 $531 #
straight-curve $-1 0.041554654138097002 -0.15624999999999997 0 0 -1 0 I I #
coedge $-1 $532 $243 $528 $533 reversed $380 $-1 #
coedge $-1 $243 $532 $245 $385 forward $380 $-1 #
loop $-1 $-1 $379 $361 #
convexity-sys-attrib $-1 $-1 $-1 $244 #
vertex $-1 $533 $534 #
straight-curve $-1 0.020583333333333009 -0.15624999999999997 -0.036323393135676001 0 -1 0 I I #
coedge $-1 $516 $245 $513 $535 reversed $246 $-1 #
edge $-1 $536 -2.0863469434951862 $247 -1.0552457100946071 $379 $537 forward 7 unknown #
face $-1 $538 $539 $35 $-1 $540 reversed single #
point $-1 0.020583333333333009 -0.53459101615137805 -0.036323393135676001 #
point $-1 0.041554654138097002 -0.53459101615137805 0 #
face_name-twe-attrib $-1 $-1 $251 $159 6 #
model_id-kcp-attrib $-1 $541 $-1 $252 1 990669543 70 -1723465727 8 #
loop $542 $273 $543 $252 #
torus-surface $544 0.15625 0 0 0 -1 0 0.15625 0.02 0 0 -1 forward_v I I I I #
loop_type-twe-attrib $-1 $-1 $-1 $253 0 #
loop $545 $-1 $546 $159 #
coedge $-1 $395 $395 $283 $437 forward $253 $-1 #
surf-twe-attrib $-1 $-1 $-1 $254 43 #
loop $547 $-1 $256 $435 #
edge_name-twe-attrib $-1 $-1 $-1 $257 7 8448 #
vertex $-1 $257 $548 #
ellipse-curve $549 0.15625 -0.72350000000000003 0 0 -1 0 -0.0075945447500129996 0 0 1 I I #
edge_name-twe-attrib $-1 $-1 $-1 $259 6 8704 #
vertex $-1 $259 $550 #
ellipse-curve $551 0.15625 -0.28599999999999998 0 1.0000000000000001e-015 -1 0 -0.3125 -3.125e-016 0 1 I I #
coedge $-1 $263 $260 $552 $553 forward $72 $-1 #
coedge $-1 $554 $555 $260 $406 reversed $556 $-1 #
edge $557 $411 -0.04194264160952671 $558 0 $405 $559 forward 7 unknown #
coedge $-1 $560 $261 $267 $423 forward $409 $-1 #
coedge $-1 $261 $560 $554 $561 reversed $409 $-1 #
loop $562 $-1 $560 $563 #
edge_name-twe-attrib $-1 $-1 $-1 $262 24 4608 #
vertex $-1 $561 $564 #
ellipse-curve $565 0.15625 -0.28599999999999998 0 0 1 0 -0.020583333333333301 0 -0.036323393135676202 1 I I #
coedge $-1 $566 $567 $263 $414 reversed $568 $-1 #
edge $569 $570 -1.0311012334005802 $419 -3.7320595417049479e-015 $413 $571 forward 7 unknown #
coedge $-1 $572 $264 $567 $573 forward $417 $-1 #
coedge $-1 $264 $572 $266 $422 reversed $417 $-1 #
loop $574 $-1 $572 $575 #
attrib_edge_convexity-kcp-attrib $-1 $576 $-1 $265 2 #
vertex $-1 $573 $577 #
straight-curve $578 0.197804654138097 -0.28599999999999998 0 0.50000000000001499 0 -0.86602540378443005 I I #
coedge $-1 $267 $266 $579 $580 reversed $268 $-1 #
edge $581 $270 -0.37867936510924299 $582 0 $416 $583 forward 7 unknown #
edge $584 $271 -0.378341016151378 $585 0 $407 $586 forward 7 unknown #
loop_type-twe-attrib $-1 $-1 $-1 $268 0 #
face $587 $575 $268 $10 $-1 $588 reversed single #
convexity-sys-attrib $-1 $589 $269 $169 #
point $-1 0.197804654138097 -0.28599999999999998 0 #
point $-1 0.17683333333333301 -0.28599999999999998 -0.036323393135676001 #
cur-twe-attrib $-1 $-1 $-1 $272 53 #
loop_type-twe-attrib $-1 $-1 $-1 $273 1 #
point $-1 0.3125 -0.02 1.91351029357402e-017 #
cur-twe-attrib $-1 $-1 $-1 $276 55 #
loop_type-twe-attrib $-1 $-1 $-1 $278 1 #
model_id-kcp-attrib $-1 $590 $-1 $279 1 990669543 70 -1723465727 9 #
face $591 $425 $592 $10 $-1 $593 forward single #
cone-surface $594 0.15625 0.52337500000000003 0 0 -1 0 -0.3125 0 0 1 I I 0 1 0.3125 forward I I I I #
edge $595 $596 -3.1415926535897931 $596 3.1415926535897931 $395 $597 forward 7 unknown #
plane-surface $-1 0.3125 0 0 -1 0 0 0 0 1 forward_v I I I I #
coedge $-1 $291 $289 $293 $443 reversed $182 $-1 #
edge $-1 $304 -0.3125 $445 0.3125 $303 $598 forward 7 unknown #
vertex $-1 $443 $599 #
straight-curve $-1 -0.3125 -0.59375 0 0 0 -1 I I #
edge $-1 $441 -0.59375 $445 0.59375 $439 $600 forward 7 unknown #
straight-curve $-1 0 -0.59375 -0.3125 -1 0 0 I I #
vertex $-1 $296 $601 #
straight-curve $-1 0 0.59375 -0.3125 1 0 0 I I #
point $-1 0.3125 0.59375 -0.3125 #
point $-1 0.3125 -0.59375 -0.3125 #
straight-curve $-1 -0.3125 0 0.3125 0 -1 0 I I #
point $-1 -0.3125 0.59375 0.3125 #
point $-1 -0.3125 -0.59375 0.3125 #
straight-curve $-1 0.3125 -0.59375 0 0 0 -1 I I #
straight-curve $-1 0.3125 0.59375 0 0 0 -1 I I #
vertex $-1 $314 $602 #
ellipse-curve $-1 0 0 0.046900000000000025 0 0 1 0.15625 0 0 1 I I #
point $-1 0.15625 0 -0.046900000000000025 #
face $-1 $603 $604 $31 $-1 $605 reversed single #
loop $-1 $-1 $336 $318 #
plane-surface $-1 -0.3125 0 0 1 0 0 0 0 -1 forward_v I I I I #
coedge $-1 $606 $321 $607 $608 reversed $206 $-1 #
coedge $-1 $321 $606 $609 $610 reversed $206 $-1 #
coedge $-1 $611 $612 $613 $324 forward $614 $-1 #
coedge $-1 $615 $616 $322 $464 forward $617 $-1 #
edge $-1 $337 0 $468 1.5707963267948966 $463 $333 forward 7 unknown #
coedge $-1 $618 $619 $323 $466 forward $620 $-1 #
edge $-1 $467 -1.5707963267948966 $220 0 $465 $222 forward 7 unknown #
vertex $-1 $621 $622 #
vertex $-1 $623 $624 #
straight-curve $-1 0 0.59375 -0.3125 0 1 0 I I #
coedge $-1 $625 $506 $325 $471 forward $626 $-1 #
edge $-1 $221 1.5707963267948966 $476 3.1415926535897931 $470 $222 forward 7 unknown #
coedge $-1 $627 $326 $329 $480 reversed $475 $-1 #
coedge $-1 $326 $627 $625 $628 forward $475 $-1 #
coedge $-1 $629 $630 $606 $327 reversed $604 $-1 #
loop $-1 $-1 $326 $631 #
vertex $-1 $632 $633 #
straight-curve $-1 0.3125 0.59375 0 0 1 0 I I #
coedge $-1 $341 $634 $328 $479 forward $319 $-1 #
edge $-1 $635 -0.3125 $332 0 $328 $636 forward 7 unknown #
edge $-1 $635 -0.3125 $331 0 $472 $637 forward 7 unknown #
face $-1 $638 $330 $31 $-1 $639 reversed single #
edge $-1 $331 0 $640 0.3125 $630 $637 forward 7 unknown #
point $-1 0.3125 0.59375 0 #
edge $-1 $332 0 $641 0.3125 $487 $636 forward 7 unknown #
point $-1 0 0.59375 0.3125 #
coedge $-1 $487 $334 $642 $643 reversed $488 $-1 #
coedge $-1 $334 $486 $339 $484 reversed $488 $-1 #
loop $-1 $-1 $334 $638 #
coedge $-1 $644 $336 $616 $492 forward $458 $-1 #
coedge $-1 $336 $644 $618 $348 reversed $458 $-1 #
coedge $-1 $345 $642 $137 $214 reversed $500 $-1 #
edge $-1 $337 0 $645 0.3125 $616 $646 forward 7 unknown #
point $-1 -0.3125 0.59375 0 #
coedge $-1 $340 $339 $499 $647 forward $342 $-1 #
coedge $-1 $634 $341 $506 $350 forward $319 $-1 #
face $-1 $648 $342 $31 $-1 $320 forward single #
vertex $-1 $647 $649 #
straight-curve $-1 0 -0.59375 0.3125 1 0 0 I I #
coedge $-1 $642 $345 $494 $647 reversed $500 $-1 #
loop $-1 $-1 $491 $650 #
straight-curve $-1 -0.3125 -0.59375 0 0 0 -1 I I #
face $-1 $651 $626 $31 $-1 $503 reversed single #
plane-surface $-1 0 -0.59375 0 0 1 0 0 0 1 forward_v I I I I #
vertex $-1 $652 $653 #
vertex $-1 $654 $655 #
coedge $-1 $470 $625 $495 $350 reversed $626 $-1 #
vertex $-1 $354 $656 #
ellipse-curve $-1 0 0.10975000000000001 0 0 -1 0 0 0 -0.15625 1 I I #
point $-1 0.3125 0.10975000000000001 3.8268948556949289e-017 #
point $-1 -0.3125 0.59375 0 #
face $-1 $386 $657 $35 $-1 $658 forward single #
cone-surface $-1 0 -0.15625 0 0 -1 0 0.041750000000000002 0 0 1 I I 0 -1 0.041750000000000002 forward I I I I #
coedge $-1 $659 $660 $384 $535 forward $362 $-1 #
coedge $-1 $661 $364 $660 $662 reversed $234 $-1 #
coedge $-1 $364 $661 $365 $519 forward $234 $-1 #
coedge $-1 $367 $384 $364 $517 reversed $246 $-1 #
edge $-1 $520 -0.010582657270239283 $663 0.031359984339287605 $364 $664 forward 7 unknown #
coedge $-1 $366 $365 $665 $666 reversed $150 $-1 #
edge $667 $668 0 $520 0.37834101615137805 $515 $669 forward 7 unknown #
vertex $-1 $519 $670 #
ellipse-curve $-1 0 -0.53459101615137805 0 0 -1 0 0.041750000000000002 0 0 1 I I #
coedge $-1 $665 $373 $369 $523 forward $529 $-1 #
edge $-1 $376 -0.010388663534524247 $525 0.031553978075002466 $369 $671 forward 7 unknown #
convexity-sys-attrib $-1 $-1 $-1 $370 #
vertex $-1 $523 $672 #
straight-curve $-1 0.020583333333333009 -0.15624999999999997 0.036323393135676001 0 -1 0 I I #
point $-1 0.020583333333333009 -0.53459101615137805 0.036323393135676001 #
coedge $-1 $373 $673 $378 $533 forward $529 $-1 #
loop $-1 $-1 $528 $538 #
straight-curve $-1 0.025874661968452568 -0.15625000000000003 -0.027158543100104855 0.49999999999999989 0 0.86602540378443882 I I #
point $-1 0.041554654138097002 -0.15624999999999997 0 #
coedge $-1 $379 $378 $659 $674 forward $380 $-1 #
edge $-1 $675 -2.0863469434951862 $382 -1.0552457100946071 $378 $676 forward 7 unknown #
point $-1 0.020583333333333009 -0.15624999999999997 -0.036323393135676001 #
edge $-1 $663 -0.010388663534524247 $536 0.031553978075002466 $513 $677 forward 7 unknown #
vertex $-1 $674 $678 #
ellipse-curve $-1 0 -0.53459101615137805 0 0 -1 0 0.041750000000000002 0 0 1 I I #
face $-1 $-1 $679 $35 $-1 $680 forward single #
loop $-1 $246 $681 $386 #
plane-surface $-1 0.025156513107119721 -0.53459101615137805 -2.3310346708438345e-018 -1.0751540708948234e-018 1 1.8744836282353285e-018 0 -1.8744836282353285e-018 1 forward_v I I I I #
face_name-twe-attrib $-1 $-1 $390 $252 7 #
loop_type-twe-attrib $-1 $-1 $-1 $391 0 #
coedge $-1 $543 $543 $546 $682 forward $391 $-1 #
surf-twe-attrib $-1 $-1 $-1 $392 65 #
loop_type-twe-attrib $-1 $-1 $-1 $394 1 #
coedge $-1 $546 $546 $543 $682 reversed $394 $-1 #
loop_type-twe-attrib $-1 $-1 $-1 $397 1 #
point $-1 0.163844544750013 -0.72350000000000003 9.3006333146613695e-019 #
cur-twe-attrib $-1 $-1 $-1 $400 70 #
point $-1 0.46875 -0.28599999999999998 3.8270205871480401e-017 #
cur-twe-attrib $-1 $-1 $-1 $403 72 #
coedge $-1 $683 $684 $404 $553 reversed $685 $-1 #
edge $686 $558 -0.041942641609526911 $570 0 $552 $687 forward 7 unknown #
coedge $-1 $688 $405 $408 $561 forward $556 $-1 #
coedge $-1 $405 $688 $683 $689 reversed $556 $-1 #
loop $690 $-1 $688 $691 #
attrib_edge_convexity-kcp-attrib $-1 $692 $-1 $406 2 #
vertex $-1 $689 $693 #
straight-curve $694 0.114695345861903 -0.28599999999999998 0 -0.50000000000001499 0 0.86602540378443005 I I #
coedge $-1 $408 $407 $695 $696 reversed $409 $-1 #
edge $697 $411 -0.378341016151378 $698 0 $408 $699 forward 7 unknown #
loop_type-twe-attrib $-1 $-1 $-1 $409 0 #
face $700 $-1 $409 $10 $-1 $701 forward single #
point $-1 0.13566666666666699 -0.28599999999999998 -0.036323393135676001 #
cur-twe-attrib $-1 $702 $-1 $412 75 #
coedge $-1 $703 $413 $684 $704 forward $568 $-1 #
coedge $-1 $413 $703 $415 $573 reversed $568 $-1 #
loop $705 $-1 $703 $706 #
edge_name-twe-attrib $-1 $-1 $-1 $414 15 4608 #
vertex $-1 $704 $707 #
ellipse-curve $708 0.15625 -0.28599999999999998 0 0 1 0 0.020583333333333301 0 0.036323393135676202 1 I I #
coedge $-1 $416 $415 $709 $710 reversed $417 $-1 #
edge $711 $419 -0.378341016151378 $712 0 $567 $713 forward 7 unknown #
loop_type-twe-attrib $-1 $-1 $-1 $417 0 #
face $714 $706 $417 $10 $-1 $715 reversed single #
convexity-sys-attrib $-1 $716 $418 $265 #
point $-1 0.17683333333333301 -0.28599999999999998 0.036323393135676001 #
cur-twe-attrib $-1 $-1 $-1 $420 78 #
coedge $-1 $709 $695 $421 $580 forward $592 $-1 #
edge $717 $585 0 $582 0.0472554346776278 $421 $718 forward 7 unknown #
attrib_edge_convexity-kcp-attrib $-1 $719 $-1 $422 1 #
vertex $-1 $422 $720 #
straight-curve $721 0.197804654138097 -0.66467936510924297 0 0 -1 0 I I #
attrib_edge_convexity-kcp-attrib $-1 $722 $-1 $423 1 #
vertex $-1 $423 $723 #
straight-curve $724 0.17683333333333301 -0.66434101615137797 -0.036323393135676202 8.0697391701712804e-016 -1 -4.9518853998778304e-016 I I #
model_id-kcp-attrib $-1 $725 $-1 $425 1 990669543 70 -1723465727 11 #
plane-surface $726 0.17683333333333301 -0.72350000000000003 -0.036323393135676001 -0.86602540378443882 0 0.49999999999999989 0.5 0 0.86602540378443904 forward_v I I I I #
edge_name-twe-attrib $-1 $-1 $426 $169 9 4608 #
face_name-twe-attrib $-1 $-1 $434 $279 8 #
model_id-kcp-attrib $-1 $727 $-1 $435 1 990669543 70 -1723465727 10 #
loop $728 $397 $709 $435 #
cone-surface $729 0.15625 -0.66434101615137797 0 0 1 0 -0.020583333333333401 0 0.036323393135676202 1 I I 0.5 0.86602540378443904 0.041750000000000037 forward I I I I #
surf-twe-attrib $-1 $-1 $-1 $436 92 #
attrib_edge_convexity-kcp-attrib $-1 $730 $-1 $437 1 #
vertex $-1 $437 $731 #
ellipse-curve $732 0.15625 0.37019999999999997 0 0 -1 0 -0.15625 0 0 1 I I #
straight-curve $-1 -0.3125 0.59375 0 0 0 -1 I I #
point $-1 -0.3125 -0.59375 -0.3125 #
straight-curve $-1 -0.3125 0 -0.3125 0 1 0 I I #
point $-1 -0.3125 0.59375 -0.3125 #
point $-1 0.15625 0 0.046900000000000025 #
face $-1 $481 $733 $31 $-1 $639 reversed single #
loop $-1 $-1 $474 $457 #
plane-surface $-1 0.3125 0 0 -1 0 0 0 0 1 forward_v I I I I #
coedge $-1 $461 $460 $208 $327 forward $206 $-1 #
coedge $-1 $734 $735 $460 $608 forward $736 $-1 #
edge $-1 $476 -3.1415926535897931 $467 -1.5707963267948966 $607 $222 forward 7 unknown #
coedge $-1 $737 $738 $461 $610 forward $733 $-1 #
edge $-1 $468 1.5707963267948966 $331 3.1415926535897931 $609 $333 forward 7 unknown #
coedge $-1 $739 $462 $738 $623 forward $614 $-1 #
coedge $-1 $462 $739 $734 $740 forward $614 $-1 #
coedge $-1 $741 $742 $207 $324 reversed $743 $-1 #
loop $-1 $-1 $462 $648 #
coedge $-1 $616 $463 $742 $744 reversed $617 $-1 #
coedge $-1 $463 $615 $489 $492 reversed $617 $-1 #
loop $-1 $-1 $463 $745 #
coedge $-1 $619 $465 $490 $348 forward $620 $-1 #
coedge $-1 $465 $618 $741 $621 reversed $620 $-1 #
loop $-1 $-1 $465 $746 #
edge $-1 $467 0 $504 0.3125 $619 $747 forward 7 unknown #
point $-1 0 -0.59375 -0.3125 #
edge $-1 $468 0 $640 0.3125 $738 $748 forward 7 unknown #
point $-1 0 0.59375 -0.3125 #
coedge $-1 $506 $470 $473 $628 reversed $626 $-1 #
loop $-1 $-1 $470 $502 #
coedge $-1 $473 $472 $634 $654 reversed $475 $-1 #
edge $-1 $505 -0.3125 $476 0 $473 $749 forward 7 unknown #
coedge $-1 $750 $474 $735 $632 forward $604 $-1 #
coedge $-1 $474 $750 $737 $482 reversed $604 $-1 #
face $-1 $-1 $475 $31 $-1 $605 reversed single #
edge $-1 $476 0 $751 0.3125 $629 $749 forward 7 unknown #
point $-1 0.3125 -0.59375 0 #
coedge $-1 $478 $495 $627 $654 forward $319 $-1 #
vertex $-1 $654 $752 #
straight-curve $-1 0 0.59375 0.3125 -1 0 0 I I #
straight-curve $-1 0.3125 0.59375 0 0 0 -1 I I #
face $-1 $745 $488 $31 $-1 $639 reversed single #
plane-surface $-1 0 0.59375 0 0 -1 0 0 0 -1 forward_v I I I I #
vertex $-1 $753 $754 #
vertex $-1 $484 $755 #
coedge $-1 $491 $499 $486 $643 forward $500 $-1 #
edge $-1 $641 -0.3125 $337 0 $486 $646 forward 7 unknown #
coedge $-1 $490 $489 $756 $652 reversed $458 $-1 #
vertex $-1 $744 $757 #
straight-curve $-1 -0.3125 0.59375 0 0 0 -1 I I #
edge $-1 $641 -0.59375 $497 0.59375 $499 $758 forward 7 unknown #
face $-1 $650 $614 $31 $-1 $759 reversed single #
point $-1 -0.3125 -0.59375 0.3125 #
face $-1 $631 $500 $31 $-1 $459 reversed single #
face $-1 $760 $736 $31 $-1 $503 reversed single #
edge $-1 $504 -0.59375 $645 0.59375 $644 $761 forward 7 unknown #
point $-1 -0.3125 -0.59375 -0.3125 #
edge $-1 $505 -0.59375 $635 0.59375 $627 $762 forward 7 unknown #
point $-1 0.3125 -0.59375 0.3125 #
point $-1 0.15625 0.10975 1.91351029357402e-017 #
loop $-1 $763 $764 $511 #
cone-surface $-1 0 -0.15625 0 0 -1 0 -0.3125 0 0 1 I I 0 1 0.3125 forward I I I I #
coedge $-1 $765 $513 $532 $674 reversed $362 $-1 #
coedge $-1 $513 $765 $514 $662 forward $362 $-1 #
coedge $-1 $515 $514 $766 $767 reversed $234 $-1 #
edge $768 $769 0 $663 0.37834101615137805 $660 $770 forward 7 unknown #
vertex $-1 $662 $771 #
straight-curve $-1 -0.025874661968452568 -0.53459101615137805 0.027158543100104855 -0.49999999999999989 0 -0.86602540378443882 I I #
coedge $-1 $766 $522 $518 $666 forward $529 $-1 #
edge $-1 $525 1.0552457100946071 $668 2.0863469434951836 $518 $772 forward 7 unknown #
convexity-sys-attrib $-1 $-1 $-1 $519 #
vertex $-1 $666 $773 #
straight-curve $-1 -0.020583333333333009 -0.15624999999999997 0.036323393135676202 0 -1 0 I I #
point $-1 -0.020583333333333009 -0.53459101615137805 0.036323393135676202 #
straight-curve $-1 0.036360322370834884 -0.15625000000000003 0.0089968465322670371 -0.49999999999999989 0 0.86602540378443882 I I #
point $-1 0.020583333333333009 -0.15624999999999997 0.036323393135676001 #
coedge $-1 $528 $766 $765 $774 forward $529 $-1 #
edge $775 $675 0 $536 0.37834101615137805 $532 $776 forward 7 unknown #
vertex $-1 $533 $777 #
ellipse-curve $-1 0 -0.15625 0 0 -1 0 0.041750000000000002 0 0 1 I I #
straight-curve $-1 -0.036360322370834884 -0.53459101615137805 -0.0089968465322670371 0.49999999999999989 0 -0.86602540378443882 I I #
point $-1 -0.020583333333333009 -0.53459101615137805 -0.036323393135676001 #
loop $-1 $529 $778 $538 #
plane-surface $-1 0.025156513107119721 -0.15625000000000003 -2.3310346708438345e-018 -1.0751540708948234e-018 1 1.8744836282353285e-018 0 -1.8744836282353285e-018 1 forward_v I I I I #
coedge $-1 $681 $681 $764 $779 reversed $539 $-1 #
edge $780 $781 -3.1415926535897931 $781 3.1415926535897931 $543 $782 forward 7 unknown #
coedge $-1 $783 $552 $555 $689 forward $685 $-1 #
coedge $-1 $552 $783 $566 $704 reversed $685 $-1 #
loop $784 $-1 $783 $785 #
attrib_edge_convexity-kcp-attrib $-1 $786 $-1 $553 2 #
straight-curve $787 0.13566666666666699 -0.28599999999999998 0.036323393135676202 0.50000000000000699 0 0.86602540378443404 I I #
coedge $-1 $555 $554 $788 $789 reversed $556 $-1 #
edge $790 $558 -0.37867936510924299 $791 0 $555 $792 forward 7 unknown #
loop_type-twe-attrib $-1 $-1 $-1 $556 0 #
face $793 $563 $556 $10 $-1 $794 reversed single #
convexity-sys-attrib $-1 $795 $557 $406 #
point $-1 0.114695345861903 -0.28599999999999998 0 #
cur-twe-attrib $-1 $-1 $-1 $559 113 #
coedge $-1 $579 $788 $560 $696 forward $592 $-1 #
edge $796 $698 -1.0311012334005802 $585 -6.0956972514513894e-015 $560 $797 forward 7 unknown #
attrib_edge_convexity-kcp-attrib $-1 $798 $-1 $561 1 #
vertex $-1 $561 $799 #
straight-curve $800 0.13566666666666699 -0.66434101615137797 -0.036323393135676202 -8.8033518220050304e-016 -1 -4.9518853998778304e-016 I I #
model_id-kcp-attrib $-1 $801 $-1 $563 1 990669543 70 -1723465727 16 #
cone-surface $802 0.15625 -0.72350000000000003 0 0 1 0 0.041750000000000002 0 0 1 I I 0 1 0.041750000000000002 forward I I I I #
cur-twe-attrib $-1 $-1 $565 $412 121 #
coedge $-1 $567 $566 $803 $804 reversed $568 $-1 #
edge $805 $570 -0.378341016151378 $806 0 $684 $807 forward 7 unknown #
loop_type-twe-attrib $-1 $-1 $-1 $568 0 #
face $808 $785 $568 $10 $-1 $809 forward single #
point $-1 0.13566666666666699 -0.28599999999999998 0.036323393135676202 #
cur-twe-attrib $-1 $810 $-1 $571 75 #
coedge $-1 $803 $579 $572 $710 forward $592 $-1 #
edge $811 $582 0 $712 0.0472554346776278 $572 $812 forward 7 unknown #
attrib_edge_convexity-kcp-attrib $-1 $813 $-1 $573 1 #
vertex $-1 $573 $814 #
straight-curve $815 0.17683333333333301 -0.66434101615137797 0.036323393135676202 8.0697391701712804e-016 -1 5.6854980517115804e-016 I I #
model_id-kcp-attrib $-1 $816 $-1 $575 1 990669543 70 -1723465727 12 #
plane-surface $817 0.197804654138097 -0.72350000000000003 0 -0.86602540378443882 0 -0.49999999999999989 -0.5 0 0.86602540378443904 forward_v I I I I #
edge_name-twe-attrib $-1 $-1 $576 $265 12 4608 #
attrib_edge_convexity-kcp-attrib $-1 $818 $-1 $580 1 #
intcurve-curve $819 forward { exactcur full nubs 3 open 9 
	0 3 0.0060533869594745996 1 0.0119100781213957 1 0.017751166149605001 1 0.023594513304238 1 
	0.029465481932652499 1 0.03531736543366 1 0.041208272950937402 1 0.0472554346776278 3 
	0.17683333333333301 -0.66434101615137797 -0.036323393135676001 
	0.177591451968519 -0.66567237779940602 -0.035010293141369699 
	0.179135450668688 -0.66817807979799504 -0.032336008945855602 
	0.181636581034919 -0.67137053904488297 -0.028003924075191901 
	0.18434639358511601 -0.67366915601590804 -0.023310391059261502 
	0.18727256179228799 -0.67460633141023696 -0.018242119052948501 
	0.19021384594312299 -0.67382802746061399 -0.013147665464202899 
	0.192958187769285 -0.67162412364843904 -0.0083943259879544208 
	0.195484925179262 -0.66848577598842196 -0.0040178884164877799 
	0.19704278337302 -0.66599896398315706 -0.00131959887391423 
	0.197804654138097 -0.66467936510924297 0 
	0 
	null_surface 
	null_surface 
	nullbs 
	nullbs 
	I I 
	0 
	0 
	7 0.0060533869594745996 0.0119100781213957 0.017751166149605001 0.023594513304238 0.029465481932652499 0.03531736543366 0.041208272950937402 
	F 1 F 0 } I I #
convexity-sys-attrib $-1 $820 $581 $422 #
point $-1 0.197804654138097 -0.66467936510924297 0 #
cur-twe-attrib $-1 $-1 $-1 $583 129 #
convexity-sys-attrib $-1 $821 $584 $423 #
point $-1 0.17683333333333301 -0.66434101615137797 -0.036323393135676202 #
cur-twe-attrib $-1 $-1 $-1 $586 130 #
face_name-twe-attrib $-1 $-1 $587 $425 10 #
surf-twe-attrib $-1 $-1 $-1 $588 132 #
face_name-twe-attrib $-1 $-1 $591 $435 9 #
loop_type-twe-attrib $-1 $-1 $-1 $592 0 #
surf-twe-attrib $-1 $-1 $-1 $593 141 #
convexity-sys-attrib $-1 $822 $595 $437 #
point $-1 0.3125 0.37019999999999997 -1.91351029357402e-017 #
cur-twe-attrib $-1 $-1 $-1 $597 143 #
loop $-1 $-1 $609 $603 #
coedge $-1 $735 $607 $612 $740 reversed $736 $-1 #
coedge $-1 $607 $734 $629 $632 reversed $736 $-1 #
loop $-1 $-1 $607 $651 #
coedge $-1 $738 $609 $630 $482 forward $733 $-1 #
coedge $-1 $609 $737 $611 $623 reversed $733 $-1 #
coedge $-1 $612 $611 $750 $753 forward $614 $-1 #
edge $-1 $751 -0.3125 $467 0 $734 $747 forward 7 unknown #
coedge $-1 $756 $613 $619 $621 forward $743 $-1 #
coedge $-1 $613 $756 $615 $744 forward $743 $-1 #
loop $-1 $-1 $613 $760 #
edge $-1 $645 -0.3125 $468 0 $615 $748 forward 7 unknown #
face $-1 $746 $617 $31 $-1 $639 reversed single #
face $-1 $347 $620 $31 $-1 $503 reversed single #
straight-curve $-1 0 -0.59375 -0.3125 -1 0 0 I I #
straight-curve $-1 0 0.59375 -0.3125 1 0 0 I I #
straight-curve $-1 0.3125 -0.59375 0 0 0 -1 I I #
coedge $-1 $630 $629 $739 $753 reversed $604 $-1 #
vertex $-1 $632 $823 #
point $-1 0.3125 0.59375 0.3125 #
edge $-1 $640 -0.59375 $751 0.59375 $750 $824 forward 7 unknown #
point $-1 0.3125 0.59375 -0.3125 #
point $-1 -0.3125 0.59375 0.3125 #
coedge $-1 $742 $741 $644 $652 forward $743 $-1 #
point $-1 -0.3125 0.59375 -0.3125 #
straight-curve $-1 -0.3125 0 0.3125 0 -1 0 I I #
plane-surface $-1 0 0 -0.3125 0 0 1 1 0 0 forward_v I I I I #
face $-1 $496 $743 $31 $-1 $759 reversed single #
straight-curve $-1 -0.3125 0 -0.3125 0 1 0 I I #
straight-curve $-1 0.3125 0 0.3125 0 1 0 I I #
loop $-1 $-1 $825 $511 #
coedge $-1 $764 $764 $681 $779 forward $657 $-1 #
coedge $-1 $660 $659 $673 $774 reversed $362 $-1 #
coedge $-1 $673 $665 $661 $767 forward $529 $-1 #
edge $-1 $668 -0.010582657270239283 $769 0.031359984339287605 $661 $826 forward 7 unknown #
convexity-sys-attrib $-1 $-1 $-1 $662 #
vertex $-1 $767 $827 #
straight-curve $-1 -0.041554654138097002 -0.15624999999999997 0 0 -1 0 I I #
point $-1 -0.041554654138097002 -0.53459101615137805 0 #
ellipse-curve $-1 0 -0.15625 0 0 -1 0 0.041750000000000002 0 0 1 I I #
point $-1 -0.020583333333333009 -0.15624999999999997 0.036323393135676202 #
edge $-1 $769 -0.010388663534524247 $675 0.031553978075002466 $765 $828 forward 7 unknown #
convexity-sys-attrib $-1 $-1 $-1 $674 #
straight-curve $-1 -0.020583333333333009 -0.15624999999999997 -0.036323393135676001 0 -1 0 I I #
point $-1 -0.020583333333333009 -0.15624999999999997 -0.036323393135676001 #
coedge $-1 $778 $778 $825 $829 forward $679 $-1 #
edge $-1 $830 -3.1415926535897931 $830 3.1415926535897931 $764 $831 forward 7 unknown #
edge_name-twe-attrib $-1 $-1 $-1 $682 3 8704 #
vertex $-1 $682 $832 #
ellipse-curve $833 0.15625 0.02 0 0 -1 0 -0.15625 0 0 1 I I #
coedge $-1 $684 $683 $834 $835 reversed $685 $-1 #
loop_type-twe-attrib $-1 $-1 $-1 $685 0 #
face $836 $691 $685 $10 $-1 $837 reversed single #
convexity-sys-attrib $-1 $838 $686 $553 #
cur-twe-attrib $-1 $-1 $-1 $687 155 #
coedge $-1 $695 $834 $688 $789 forward $592 $-1 #
edge $839 $791 0 $698 0.047255434677628001 $688 $840 forward 7 unknown #
attrib_edge_convexity-kcp-attrib $-1 $841 $-1 $689 1 #
vertex $-1 $689 $842 #
straight-curve $843 0.114695345861903 -0.66467936510924297 0 0 -1 0 I I #
model_id-kcp-attrib $-1 $844 $-1 $691 1 990669543 70 -1723465727 15 #
plane-surface $845 0.114695345861903 -0.72350000000000003 0 0.86602540378443882 0 0.49999999999999989 0.5 0 -0.86602540378443904 forward_v I I I I #
edge_name-twe-attrib $-1 $-1 $692 $406 21 4608 #
edge_name-twe-attrib $-1 $-1 $-1 $696 22 8448 #
ellipse-curve $846 0.15625 -0.66434101615137797 0 0 -1 0 0.020583333333333301 0 -0.036323393135676202 1 I I #
convexity-sys-attrib $-1 $847 $697 $561 #
point $-1 0.13566666666666699 -0.66434101615137797 -0.036323393135676202 #
cur-twe-attrib $-1 $-1 $-1 $699 163 #
face_name-twe-attrib $-1 $-1 $700 $563 15 #
surf-twe-attrib $-1 $848 $-1 $701 165 #
coedge $-1 $834 $709 $703 $804 forward $592 $-1 #
edge $849 $712 -1.0311012334005825 $806 -8.2105309917508416e-015 $703 $850 forward 7 unknown #
attrib_edge_convexity-kcp-attrib $-1 $851 $-1 $704 1 #
vertex $-1 $704 $852 #
straight-curve $853 0.13566666666666699 -0.66434101615137797 0.036323393135676202 -7.3361265183375295e-017 -1 0 I I #
model_id-kcp-attrib $-1 $854 $-1 $706 1 990669543 70 -1723465727 13 #
cone-surface $855 0.15625 -0.72350000000000003 0 0 1 0 0.041750000000000002 0 0 1 I I 0 1 0.041750000000000002 forward I I I I #
cur-twe-attrib $-1 $-1 $708 $571 121 #
attrib_edge_convexity-kcp-attrib $-1 $856 $-1 $710 1 #
intcurve-curve $857 forward { exactcur full nubs 3 open 9 
	0 3 0.0060471617266904497 1 0.0119380692439678 1 0.017789952744975301 1 0.0236609213733898 1 
	0.029504268528022799 1 0.035345356556232201 1 0.041202047718153202 1 0.0472554346776278 3 
	0.197804654138097 -0.66467936510924297 0 
	0.19704278337302 -0.66599896398315706 0.00131959887391423 
	0.195484925179262 -0.66848577598842196 0.0040178884164877799 
	0.192958187769285 -0.67162412364843904 0.0083943259879544208 
	0.19021384594312299 -0.67382802746061399 0.013147665464202899 
	0.18727256179228799 -0.67460633141023696 0.018242119052948501 
	0.18434639358511601 -0.67366915601590804 0.023310391059261502 
	0.181636581034919 -0.67137053904488297 0.028003924075191901 
	0.179135450668688 -0.66817807979799504 0.032336008945855602 
	0.177591451968519 -0.66567237779940602 0.035010293141369699 
	0.17683333333333301 -0.66434101615137797 0.036323393135676001 
	0 
	null_surface 
	null_surface 
	nullbs 
	nullbs 
	I I 
	0 
	0 
	7 0.0060471617266904497 0.0119380692439678 0.017789952744975301 0.0236609213733898 0.029504268528022799 0.035345356556232201 0.041202047718153202 
	F 1 F 0 } I I #
convexity-sys-attrib $-1 $858 $711 $573 #
point $-1 0.17683333333333301 -0.66434101615137797 0.036323393135676202 #
cur-twe-attrib $-1 $-1 $-1 $713 175 #
face_name-twe-attrib $-1 $-1 $714 $575 11 #
surf-twe-attrib $-1 $-1 $-1 $715 177 #
convexity-sys-attrib $-1 $859 $717 $580 #
cur-twe-attrib $-1 $-1 $-1 $718 181 #
edge_name-twe-attrib $-1 $-1 $719 $422 11 8448 #
edge_name-twe-attrib $-1 $-1 $722 $423 25 8448 #
edge_name-twe-attrib $-1 $-1 $730 $437 2 8448 #
point $-1 0.3125 -0.59375 -0.3125 #
straight-curve $-1 0.3125 0 -0.3125 0 -1 0 I I #
coedge $-1 $825 $825 $778 $829 reversed $763 $-1 #
straight-curve $-1 -0.025874661968452568 -0.15625000000000003 0.027158543100104855 -0.49999999999999989 0 -0.86602540378443882 I I #
point $-1 -0.041554654138097002 -0.15624999999999997 0 #
straight-curve $-1 -0.036360322370834884 -0.15625000000000003 -0.0089968465322670371 0.49999999999999989 0 -0.86602540378443882 I I #
edge $860 $861 -3.1415926535897931 $861 3.1415926535897931 $825 $862 forward 7 unknown #
vertex $-1 $779 $863 #
ellipse-curve $-1 0 -0.53459101615137805 0 0 1 0 -0.3125 0 0 1 I I #
point $-1 0.3125 0.02 -1.91351029357402e-017 #
cur-twe-attrib $-1 $-1 $-1 $782 197 #
coedge $-1 $788 $803 $783 $835 forward $592 $-1 #
edge $864 $806 0 $791 0.0472554346776278 $783 $865 forward 7 unknown #
model_id-kcp-attrib $-1 $866 $-1 $785 1 990669543 70 -1723465727 14 #
plane-surface $867 0.13566666666666699 -0.72350000000000003 0.036323393135676001 0.86602540378443882 0 -0.49999999999999989 -0.5 0 -0.86602540378443904 forward_v I I I I #
edge_name-twe-attrib $-1 $-1 $786 $553 18 4608 #
attrib_edge_convexity-kcp-attrib $-1 $868 $-1 $789 1 #
intcurve-curve $869 forward { exactcur full nubs 3 open 9 
	0 3 0.0060471617266904497 1 0.011938069243968299 1 0.017789952744975499 1 0.023660921373390001 1 
	0.029504268528023 1 0.035345356556232298 1 0.041202047718153403 1 0.047255434677628001 3 
	0.114695345861903 -0.66467936510924297 0 
	0.11545721662698 -0.66599896398315706 -0.00131959887391423 
	0.117015074820738 -0.66848577598842196 -0.0040178884164880904 
	0.119541812230714 -0.67162412364844004 -0.0083943259879539506 
	0.122286154056877 -0.67382802746061299 -0.0131476654642032 
	0.12522743820771201 -0.67460633141023796 -0.018242119052948501 
	0.12815360641488399 -0.67366915601590804 -0.023310391059261502 
	0.130863418965081 -0.67137053904488297 -0.028003924075191901 
	0.133364549331312 -0.66817807979799504 -0.032336008945855602 
	0.134908548031481 -0.66567237779940602 -0.035010293141369699 
	0.13566666666666699 -0.66434101615137797 -0.036323393135676001 
	0 
	null_surface 
	null_surface 
	nullbs 
	nullbs 
	I I 
	0 
	0 
	7 0.0060471617266904497 0.011938069243968299 0.017789952744975499 0.023660921373390001 0.029504268528023 0.035345356556232298 0.041202047718153403 
	F 1 F 0 } I I #
convexity-sys-attrib $-1 $870 $790 $689 #
point $-1 0.114695345861903 -0.66467936510924297 0 #
cur-twe-attrib $-1 $-1 $-1 $792 204 #
face_name-twe-attrib $-1 $-1 $793 $691 14 #
surf-twe-attrib $-1 $-1 $-1 $794 206 #
cur-twe-attrib $-1 $-1 $-1 $797 210 #
edge_name-twe-attrib $-1 $-1 $798 $561 23 8448 #
surf-twe-attrib $-1 $-1 $802 $701 220 #
edge_name-twe-attrib $-1 $-1 $-1 $804 13 8448 #
ellipse-curve $871 0.15625 -0.66434101615137797 0 0 -1 0 -0.020583333333333401 0 0.036323393135676202 1 I I #
convexity-sys-attrib $-1 $872 $805 $704 #
point $-1 0.13566666666666699 -0.66434101615137797 0.036323393135676202 #
cur-twe-attrib $-1 $-1 $-1 $807 218 #
face_name-twe-attrib $-1 $-1 $808 $706 12 #
surf-twe-attrib $-1 $873 $-1 $809 165 #
convexity-sys-attrib $-1 $874 $811 $710 #
cur-twe-attrib $-1 $-1 $-1 $812 224 #
edge_name-twe-attrib $-1 $-1 $813 $573 14 8448 #
edge_name-twe-attrib $-1 $-1 $818 $580 8 8448 #
convexity-sys-attrib $-1 $-1 $-1 $829 #
vertex $-1 $829 $875 #
ellipse-curve $-1 0 -0.15625 0 0 1 0 -0.3125 0 0 1 I I #
point $-1 0.3125 -0.53459101615137805 -3.8268948556949289e-017 #
attrib_edge_convexity-kcp-attrib $-1 $876 $-1 $835 1 #
intcurve-curve $877 forward { exactcur full nubs 3 open 9 
	0 3 0.0060533869594745996 1 0.0119100781213957 1 0.017751166149605001 1 0.023594513304238 1 
	0.029465481932652499 1 0.03531736543366 1 0.041208272950937402 1 0.0472554346776278 3 
	0.13566666666666699 -0.66434101615137797 0.036323393135676001 
	0.134908548031481 -0.66567237779940602 0.035010293141369601 
	0.133364549331312 -0.66817807979799504 0.032336008945855602 
	0.130863418965081 -0.67137053904488297 0.028003924075191901 
	0.12815360641488399 -0.67366915601590804 0.023310391059261502 
	0.12522743820771201 -0.67460633141023696 0.018242119052948501 
	0.122286154056877 -0.67382802746061399 0.013147665464202899 
	0.119541812230715 -0.67162412364843904 0.0083943259879544294 
	0.117015074820738 -0.66848577598842196 0.0040178884164877799 
	0.11545721662698 -0.66599896398315706 0.00131959887391423 
	0.114695345861903 -0.66467936510924297 0 
	0 
	null_surface 
	null_surface 
	nullbs 
	nullbs 
	I I 
	0 
	0 
	7 0.0060533869594745996 0.0119100781213957 0.017751166149605001 0.023594513304238 0.029465481932652499 0.03531736543366 0.041208272950937402 
	F 1 F 0 } I I #
face_name-twe-attrib $-1 $-1 $836 $785 13 #
surf-twe-attrib $-1 $-1 $-1 $837 246 #
convexity-sys-attrib $-1 $878 $839 $789 #
cur-twe-attrib $-1 $-1 $-1 $840 249 #
edge_name-twe-attrib $-1 $-1 $841 $689 20 8448 #
cur-twe-attrib $-1 $-1 $-1 $850 261 #
edge_name-twe-attrib $-1 $-1 $851 $704 17 8448 #
surf-twe-attrib $-1 $-1 $855 $809 220 #
edge_name-twe-attrib $-1 $-1 $856 $710 10 8448 #
point $-1 0.3125 -0.15625 -3.8268948556949289e-017 #
convexity-sys-attrib $-1 $879 $864 $835 #
cur-twe-attrib $-1 $-1 $-1 $865 277 #
edge_name-twe-attrib $-1 $-1 $868 $789 19 8448 #
edge_name-twe-attrib $-1 $-1 $876 $835 16 8448 #
End-of-ACIS-data 