104 300 0 0                             
body $-1 $1 $-1 $2 #
lump $-1 $-1 $3 $0 #
transform $-1 1 0 0 0 1 0 0 0 1 0 0 0 1 0 0 0 #
shell $-1 $-1 $-1 $4 $1 #
face $5 $6 $7 $3 $-1 $8 1 #
face_name-twe-attrib $-1 $-1 $-1 $4 1 #
face $9 $10 $11 $3 $-1 $12 1 #
loop $13 $-1 $14 $4 #
plane-surface $15 0.15625 0.464 0 0 -1 0 0 0 -1 0 #
face_name-twe-attrib $-1 $-1 $-1 $6 2 #
face $16 $17 $18 $3 $-1 $19 0 #
loop $20 $21 $22 $6 #
plane-surface $23 0.15625 -0.02 0 0 -1 0 0 0 -1 0 #
loop_type-twe-attrib $-1 $-1 $-1 $7 0 #
coedge $-1 $14 $14 $24 $25 1 $7 $-1 #
surf-twe-attrib $-1 $-1 $-1 $8 4 #
face_name-twe-attrib $-1 $-1 $-1 $10 3 #
face $26 $27 $28 $3 $-1 $29 0 #
loop $30 $31 $32 $10 #
plane-surface $33 0.15625 -0.286 0 0 -1 0 0 0 -1 0 #
loop_type-twe-attrib $-1 $-1 $-1 $11 0 #
loop $34 $-1 $35 $6 #
coedge $-1 $22 $22 $36 $37 1 $11 $-1 #
surf-twe-attrib $-1 $-1 $-1 $12 6 #
coedge $-1 $24 $24 $14 $25 0 $38 $-1 #
edge $39 $40 $40 $24 $41 0 #
face_name-twe-attrib $-1 $-1 $-1 $17 4 #
face $42 $43 $38 $3 $-1 $44 0 #
loop $45 $-1 $46 $17 #
plane-surface $47 0.15625 -0.7235 0 0 -1 0 0 0 -1 0 #
loop_type-twe-attrib $-1 $-1 $-1 $18 1 #
loop $48 $-1 $49 $10 #
coedge $-1 $50 $51 $52 $53 0 $18 $-1 #
surf-twe-attrib $-1 $-1 $-1 $19 10 #
loop_type-twe-attrib $-1 $-1 $-1 $21 1 #
coedge $-1 $35 $35 $54 $55 0 $21 $-1 #
coedge $-1 $36 $36 $22 $37 0 $56 $-1 #
edge $57 $58 $58 $36 $59 0 #
loop $60 $61 $24 $27 #
edge_name-twe-attrib $-1 $-1 $-1 $25 1 8448 #
vertex $-1 $25 $62 #
ellipse-curve $63 0.15625 0.464 0 0 -1 0 -0.06245 0 0 1 #
face_name-twe-attrib $-1 $-1 $-1 $27 5 #
face $64 $65 $66 $3 $-1 $67 0 #
cone-surface $68 0.15625 0.3702 0 0 -1 0 -0.15625 0 0 1 0.707106781186547 0.707106781186548 0 #
loop_type-twe-attrib $-1 $-1 $-1 $28 0 #
coedge $-1 $46 $46 $69 $70 0 $28 $-1 #
surf-twe-attrib $-1 $-1 $-1 $29 17 #
loop_type-twe-attrib $-1 $-1 $-1 $31 0 #
coedge $-1 $49 $49 $71 $72 0 $31 $-1 #
coedge $-1 $73 $32 $74 $75 0 $18 $-1 #
coedge $-1 $32 $76 $77 $78 0 $18 $-1 #
coedge $-1 $79 $80 $32 $53 1 $81 $-1 #
edge $82 $83 $84 $52 $85 0 #
coedge $-1 $54 $54 $35 $55 1 $86 $-1 #
edge $87 $88 $88 $54 $89 0 #
loop $90 $91 $36 $92 #
edge_name-twe-attrib $-1 $-1 $-1 $37 5 8704 #
vertex $-1 $37 $93 #
ellipse-curve $94 0.15625 -0.02 0 0 -1 0 -0.3125 0 0 1 #
loop_type-twe-attrib $-1 $-1 $-1 $38 0 #
loop $95 $-1 $96 $27 #
point $-1 0.0938 0.464 0 #
cur-twe-attrib $-1 $-1 $-1 $41 25 #
face_name-twe-attrib $-1 $-1 $-1 $43 6 #
face $97 $92 $98 $3 $-1 $99 1 #
loop $100 $101 $102 $43 #
cone-surface $103 0.15625 0.523375 0 0 -1 0 -0.15625 0 0 1 0 1 0 #
surf-twe-attrib $-1 $-1 $-1 $44 27 #
coedge $-1 $69 $69 $46 $70 1 $104 $-1 #
edge $105 $106 $106 $69 $107 0 #
coedge $-1 $71 $71 $49 $72 1 $91 $-1 #
edge $108 $109 $109 $71 $110 0 #
coedge $-1 $111 $50 $112 $113 0 $18 $-1 #
coedge $-1 $114 $115 $50 $75 1 $116 $-1 #
edge $117 $84 $118 $74 $119 0 #
coedge $-1 $51 $111 $120 $121 0 $18 $-1 #
coedge $-1 $122 $123 $51 $78 1 $124 $-1 #
edge $125 $126 $83 $77 $127 0 #
coedge $-1 $128 $52 $123 $129 0 $81 $-1 #
coedge $-1 $52 $128 $114 $130 1 $81 $-1 #
loop $131 $-1 $128 $132 #
edge_name-twe-attrib $-1 $-1 $-1 $53 9 4608 #
vertex $-1 $129 $133 #
vertex $-1 $130 $134 #
straight-curve $135 0.176833333333333 -0.286 -0.036323393135676 -0.500000000000015 0 -0.86602540378443 #
loop $136 $-1 $54 $65 #
edge_name-twe-attrib $-1 $-1 $-1 $55 4 20480 #
vertex $-1 $55 $137 #
ellipse-curve $138 0.15625 -0.02 0 0 -1 0 -0.15625 0 0 1 #
loop_type-twe-attrib $-1 $-1 $-1 $56 0 #
loop $139 $-1 $71 $92 #
face $140 $141 $56 $3 $-1 $142 0 #
point $-1 -0.15625 -0.02 0 #
cur-twe-attrib $-1 $-1 $-1 $59 37 #
loop_type-twe-attrib $-1 $-1 $-1 $61 1 #
coedge $-1 $96 $96 $102 $143 1 $61 $-1 #
face_name-twe-attrib $-1 $-1 $-1 $65 7 #
loop $144 $86 $145 $65 #
torus-surface $146 0.15625 0 0 0 -1 0 0.15625 0.02 0 0 -1 0 #
loop_type-twe-attrib $-1 $-1 $-1 $66 0 #
loop $147 $-1 $148 $43 #
coedge $-1 $102 $102 $96 $143 0 $66 $-1 #
surf-twe-attrib $-1 $-1 $-1 $67 43 #
loop $149 $-1 $69 $141 #
edge_name-twe-attrib $-1 $-1 $-1 $70 7 8448 #
vertex $-1 $70 $150 #
ellipse-curve $151 0.15625 -0.7235 0 0 -1 0 -0.007594544750013 0 0 1 #
edge_name-twe-attrib $-1 $-1 $-1 $72 6 8704 #
vertex $-1 $72 $152 #
ellipse-curve $153 0.15625 -0.286 0 1e-15 -1 0 -0.3125 -3.125e-16 0 1 #
coedge $-1 $76 $73 $154 $155 0 $18 $-1 #
coedge $-1 $156 $157 $73 $113 1 $158 $-1 #
edge $159 $118 $160 $112 $161 0 #
coedge $-1 $162 $74 $80 $130 0 $116 $-1 #
coedge $-1 $74 $162 $156 $163 1 $116 $-1 #
loop $164 $-1 $162 $165 #
edge_name-twe-attrib $-1 $-1 $-1 $75 24 4608 #
vertex $-1 $163 $166 #
ellipse-curve $167 0.15625 -0.286 0 0 1 0 -0.0205833333333333 0 -0.0363233931356762 1 #
coedge $-1 $168 $169 $76 $121 1 $170 $-1 #
edge $171 $172 $126 $120 $173 0 #
coedge $-1 $174 $77 $169 $175 0 $124 $-1 #
coedge $-1 $77 $174 $79 $129 1 $124 $-1 #
loop $176 $-1 $174 $177 #
edge_name-twe-attrib $-1 $-1 $-1 $78 12 4608 #
vertex $-1 $175 $178 #
straight-curve $179 0.197804654138097 -0.286 0 0.500000000000015 0 -0.86602540378443 #
coedge $-1 $80 $79 $180 $181 1 $81 $-1 #
edge $182 $83 $183 $123 $184 0 #
edge $185 $84 $186 $114 $187 0 #
loop_type-twe-attrib $-1 $-1 $-1 $81 0 #
face $188 $177 $81 $3 $-1 $189 1 #
point $-1 0.197804654138097 -0.286 0 #
point $-1 0.176833333333333 -0.286 -0.036323393135676 #
cur-twe-attrib $-1 $-1 $-1 $85 53 #
loop_type-twe-attrib $-1 $-1 $-1 $86 1 #
point $-1 0.3125 -0.02 1.91351029357402e-17 #
cur-twe-attrib $-1 $-1 $-1 $89 55 #
loop_type-twe-attrib $-1 $-1 $-1 $91 1 #
face_name-twe-attrib $-1 $-1 $-1 $92 8 #
face $190 $132 $191 $3 $-1 $192 0 #
cone-surface $193 0.15625 0.523375 0 0 -1 0 -0.3125 0 0 1 0 1 0 #
edge $194 $195 $195 $102 $196 0 #
loop_type-twe-attrib $-1 $-1 $-1 $98 0 #
coedge $-1 $145 $145 $148 $197 0 $98 $-1 #
surf-twe-attrib $-1 $-1 $-1 $99 65 #
loop_type-twe-attrib $-1 $-1 $-1 $101 1 #
coedge $-1 $148 $148 $145 $197 1 $101 $-1 #
loop_type-twe-attrib $-1 $-1 $-1 $104 1 #
point $-1 0.163844544750013 -0.7235 9.30063331466137e-19 #
cur-twe-attrib $-1 $-1 $-1 $107 70 #
point $-1 0.46875 -0.286 3.82702058714804e-17 #
cur-twe-attrib $-1 $-1 $-1 $110 72 #
coedge $-1 $198 $199 $111 $155 1 $200 $-1 #
edge $201 $160 $172 $154 $202 0 #
coedge $-1 $203 $112 $115 $163 0 $158 $-1 #
coedge $-1 $112 $203 $198 $204 1 $158 $-1 #
loop $205 $-1 $203 $206 #
edge_name-twe-attrib $-1 $-1 $-1 $113 21 4608 #
vertex $-1 $204 $207 #
straight-curve $208 0.114695345861903 -0.286 0 -0.500000000000015 0 0.86602540378443 #
coedge $-1 $115 $114 $209 $210 1 $116 $-1 #
edge $211 $118 $212 $115 $213 0 #
loop_type-twe-attrib $-1 $-1 $-1 $116 0 #
face $214 $-1 $116 $3 $-1 $215 0 #
point $-1 0.135666666666667 -0.286 -0.036323393135676 #
cur-twe-attrib $-1 $216 $-1 $119 75 #
coedge $-1 $217 $120 $199 $218 0 $170 $-1 #
coedge $-1 $120 $217 $122 $175 1 $170 $-1 #
loop $219 $-1 $217 $220 #
edge_name-twe-attrib $-1 $-1 $-1 $121 15 4608 #
vertex $-1 $218 $221 #
ellipse-curve $222 0.15625 -0.286 0 0 1 0 0.0205833333333333 0 0.0363233931356762 1 #
coedge $-1 $123 $122 $223 $224 1 $124 $-1 #
edge $225 $126 $226 $169 $227 0 #
loop_type-twe-attrib $-1 $-1 $-1 $124 0 #
face $228 $220 $124 $3 $-1 $229 1 #
point $-1 0.176833333333333 -0.286 0.036323393135676 #
cur-twe-attrib $-1 $-1 $-1 $127 78 #
coedge $-1 $223 $209 $128 $181 0 $191 $-1 #
edge $230 $186 $183 $128 $231 0 #
edge_name-twe-attrib $-1 $-1 $-1 $129 11 8448 #
vertex $-1 $129 $232 #
straight-curve $233 0.197804654138097 -0.664679365109243 0 0 -1 0 #
edge_name-twe-attrib $-1 $-1 $-1 $130 25 8448 #
vertex $-1 $130 $234 #
straight-curve $235 0.176833333333333 -0.664341016151378 -0.0363233931356762 8.06973917017128e-16 -1 -4.95188539987783e-16 #
face_name-twe-attrib $-1 $-1 $-1 $132 10 #
plane-surface $236 0.176833333333333 -0.7235 -0.036323393135676 -0.866025403784439 0 0.5 0.5 0 0.866025403784439 0 #
face_name-twe-attrib $-1 $-1 $-1 $141 9 #
loop $237 $104 $223 $141 #
cone-surface $238 0.15625 -0.664341016151378 0 0 1 0 -0.0205833333333334 0 0.0363233931356762 1 0.5 0.866025403784439 0 #
surf-twe-attrib $-1 $-1 $-1 $142 92 #
edge_name-twe-attrib $-1 $-1 $-1 $143 2 8448 #
vertex $-1 $143 $239 #
ellipse-curve $240 0.15625 0.3702 0 0 -1 0 -0.15625 0 0 1 #
edge $241 $242 $242 $145 $243 0 #
coedge $-1 $244 $154 $157 $204 0 $200 $-1 #
coedge $-1 $154 $244 $168 $218 1 $200 $-1 #
loop $245 $-1 $244 $246 #
edge_name-twe-attrib $-1 $-1 $-1 $155 18 4608 #
straight-curve $247 0.135666666666667 -0.286 0.0363233931356762 0.500000000000007 0 0.866025403784434 #
coedge $-1 $157 $156 $248 $249 1 $158 $-1 #
edge $250 $160 $251 $157 $252 0 #
loop_type-twe-attrib $-1 $-1 $-1 $158 0 #
face $253 $165 $158 $3 $-1 $254 1 #
point $-1 0.114695345861903 -0.286 0 #
cur-twe-attrib $-1 $-1 $-1 $161 113 #
coedge $-1 $180 $248 $162 $210 0 $191 $-1 #
edge $255 $212 $186 $162 $256 0 #
edge_name-twe-attrib $-1 $-1 $-1 $163 23 8448 #
vertex $-1 $163 $257 #
straight-curve $258 0.135666666666667 -0.664341016151378 -0.0363233931356762 -8.80335182200503e-16 -1 -4.95188539987783e-16 #
face_name-twe-attrib $-1 $-1 $-1 $165 15 #
cone-surface $259 0.15625 -0.7235 0 0 1 0 0.04175 0 0 1 0 1 0 #
cur-twe-attrib $-1 $-1 $167 $119 121 #
coedge $-1 $169 $168 $260 $261 1 $170 $-1 #
edge $262 $172 $263 $199 $264 0 #
loop_type-twe-attrib $-1 $-1 $-1 $170 0 #
face $265 $246 $170 $3 $-1 $266 0 #
point $-1 0.135666666666667 -0.286 0.0363233931356762 #
cur-twe-attrib $-1 $267 $-1 $173 75 #
coedge $-1 $260 $180 $174 $224 0 $191 $-1 #
edge $268 $183 $226 $174 $269 0 #
edge_name-twe-attrib $-1 $-1 $-1 $175 14 8448 #
vertex $-1 $175 $270 #
straight-curve $271 0.176833333333333 -0.664341016151378 0.0363233931356762 8.06973917017128e-16 -1 5.68549805171158e-16 #
face_name-twe-attrib $-1 $-1 $-1 $177 11 #
plane-surface $272 0.197804654138097 -0.7235 0 -0.866025403784439 0 -0.5 -0.5 0 0.866025403784439 0 #
edge_name-twe-attrib $-1 $-1 $-1 $181 8 8448 #
intcurve-curve $273 0 { exactcur nubs 3 open 9 
	0 3 0.0060533869594746 1 0.0119100781213957 1 0.017751166149605 1 0.023594513304238 1 
	0.0294654819326525 1 0.03531736543366 1 0.0412082729509374 1 0.0472554346776278 3 
	0.176833333333333 -0.664341016151378 -0.036323393135676 
	0.177591451968519 -0.665672377799406 -0.0350102931413697 
	0.179135450668688 -0.668178079797995 -0.0323360089458556 
	0.181636581034919 -0.671370539044883 -0.0280039240751919 
	0.184346393585116 -0.673669156015908 -0.0233103910592615 
	0.187272561792288 -0.674606331410237 -0.0182421190529485 
	0.190213845943123 -0.673828027460614 -0.0131476654642029 
	0.192958187769285 -0.671624123648439 -0.00839432598795442 
	0.195484925179262 -0.668485775988422 -0.00401788841648778 
	0.19704278337302 -0.665998963983157 -0.00131959887391423 
	0.197804654138097 -0.664679365109243 0 
	0 
	null_surface 
	null_surface 
	nullbs 
	nullbs 
	} #
point $-1 0.197804654138097 -0.664679365109243 0 #
cur-twe-attrib $-1 $-1 $-1 $184 129 #
point $-1 0.176833333333333 -0.664341016151378 -0.0363233931356762 #
cur-twe-attrib $-1 $-1 $-1 $187 130 #
surf-twe-attrib $-1 $-1 $-1 $189 132 #
loop_type-twe-attrib $-1 $-1 $-1 $191 0 #
surf-twe-attrib $-1 $-1 $-1 $192 141 #
point $-1 0.3125 0.3702 -1.91351029357402e-17 #
cur-twe-attrib $-1 $-1 $-1 $196 143 #
edge_name-twe-attrib $-1 $-1 $-1 $197 3 8704 #
vertex $-1 $197 $274 #
ellipse-curve $275 0.15625 0.02 0 0 -1 0 -0.15625 0 0 1 #
coedge $-1 $199 $198 $276 $277 1 $200 $-1 #
loop_type-twe-attrib $-1 $-1 $-1 $200 0 #
face $278 $206 $200 $3 $-1 $279 1 #
cur-twe-attrib $-1 $-1 $-1 $202 155 #
coedge $-1 $209 $276 $203 $249 0 $191 $-1 #
edge $280 $251 $212 $203 $281 0 #
edge_name-twe-attrib $-1 $-1 $-1 $204 20 8448 #
vertex $-1 $204 $282 #
straight-curve $283 0.114695345861903 -0.664679365109243 0 0 -1 0 #
face_name-twe-attrib $-1 $-1 $-1 $206 14 #
plane-surface $284 0.114695345861903 -0.7235 0 0.866025403784439 0 0.5 0.5 0 -0.866025403784439 0 #
edge_name-twe-attrib $-1 $-1 $-1 $210 22 8448 #
ellipse-curve $285 0.15625 -0.664341016151378 0 0 -1 0 0.0205833333333333 0 -0.0363233931356762 1 #
point $-1 0.135666666666667 -0.664341016151378 -0.0363233931356762 #
cur-twe-attrib $-1 $-1 $-1 $213 163 #
surf-twe-attrib $-1 $286 $-1 $215 165 #
coedge $-1 $276 $223 $217 $261 0 $191 $-1 #
edge $287 $226 $263 $217 $288 0 #
edge_name-twe-attrib $-1 $-1 $-1 $218 17 8448 #
vertex $-1 $218 $289 #
straight-curve $290 0.135666666666667 -0.664341016151378 0.0363233931356762 -7.33612651833753e-17 -1 0 #
face_name-twe-attrib $-1 $-1 $-1 $220 12 #
cone-surface $291 0.15625 -0.7235 0 0 1 0 0.04175 0 0 1 0 1 0 #
cur-twe-attrib $-1 $-1 $222 $173 121 #
edge_name-twe-attrib $-1 $-1 $-1 $224 10 8448 #
intcurve-curve $292 0 { exactcur nubs 3 open 9 
	0 3 0.00604716172669045 1 0.0119380692439678 1 0.0177899527449753 1 0.0236609213733898 1 
	0.0295042685280228 1 0.0353453565562322 1 0.0412020477181532 1 0.0472554346776278 3 
	0.197804654138097 -0.664679365109243 0 
	0.19704278337302 -0.665998963983157 0.00131959887391423 
	0.195484925179262 -0.668485775988422 0.00401788841648778 
	0.192958187769285 -0.671624123648439 0.00839432598795442 
	0.190213845943123 -0.673828027460614 0.0131476654642029 
	0.187272561792288 -0.674606331410237 0.0182421190529485 
	0.184346393585116 -0.673669156015908 0.0233103910592615 
	0.181636581034919 -0.671370539044883 0.0280039240751919 
	0.179135450668688 -0.668178079797995 0.0323360089458556 
	0.177591451968519 -0.665672377799406 0.0350102931413697 
	0.176833333333333 -0.664341016151378 0.036323393135676 
	0 
	null_surface 
	null_surface 
	nullbs 
	nullbs 
	} #
point $-1 0.176833333333333 -0.664341016151378 0.0363233931356762 #
cur-twe-attrib $-1 $-1 $-1 $227 175 #
surf-twe-attrib $-1 $-1 $-1 $229 177 #
cur-twe-attrib $-1 $-1 $-1 $231 181 #
point $-1 0.3125 0.02 -1.91351029357402e-17 #
cur-twe-attrib $-1 $-1 $-1 $243 197 #
coedge $-1 $248 $260 $244 $277 0 $191 $-1 #
edge $293 $263 $251 $244 $294 0 #
face_name-twe-attrib $-1 $-1 $-1 $246 13 #
plane-surface $295 0.135666666666667 -0.7235 0.036323393135676 0.866025403784439 0 -0.5 -0.5 0 -0.866025403784439 0 #
edge_name-twe-attrib $-1 $-1 $-1 $249 19 8448 #
intcurve-curve $296 0 { exactcur nubs 3 open 9 
	0 3 0.00604716172669045 1 0.0119380692439683 1 0.0177899527449755 1 0.02366092137339 1 
	0.029504268528023 1 0.0353453565562323 1 0.0412020477181534 1 0.047255434677628 3 
	0.114695345861903 -0.664679365109243 0 
	0.11545721662698 -0.665998963983157 -0.00131959887391423 
	0.117015074820738 -0.668485775988422 -0.00401788841648809 
	0.119541812230714 -0.67162412364844 -0.00839432598795395 
	0.122286154056877 -0.673828027460613 -0.0131476654642032 
	0.125227438207712 -0.674606331410238 -0.0182421190529485 
	0.128153606414884 -0.673669156015908 -0.0233103910592615 
	0.130863418965081 -0.671370539044883 -0.0280039240751919 
	0.133364549331312 -0.668178079797995 -0.0323360089458556 
	0.134908548031481 -0.665672377799406 -0.0350102931413697 
	0.135666666666667 -0.664341016151378 -0.036323393135676 
	0 
	null_surface 
	null_surface 
	nullbs 
	nullbs 
	} #
point $-1 0.114695345861903 -0.664679365109243 0 #
cur-twe-attrib $-1 $-1 $-1 $252 204 #
surf-twe-attrib $-1 $-1 $-1 $254 206 #
cur-twe-attrib $-1 $-1 $-1 $256 210 #
surf-twe-attrib $-1 $-1 $259 $215 220 #
edge_name-twe-attrib $-1 $-1 $-1 $261 13 8448 #
ellipse-curve $297 0.15625 -0.664341016151378 0 0 -1 0 -0.0205833333333334 0 0.0363233931356762 1 #
point $-1 0.135666666666667 -0.664341016151378 0.0363233931356762 #
cur-twe-attrib $-1 $-1 $-1 $264 218 #
surf-twe-attrib $-1 $298 $-1 $266 165 #
cur-twe-attrib $-1 $-1 $-1 $269 224 #
edge_name-twe-attrib $-1 $-1 $-1 $277 16 8448 #
intcurve-curve $299 0 { exactcur nubs 3 open 9 
	0 3 0.0060533869594746 1 0.0119100781213957 1 0.017751166149605 1 0.023594513304238 1 
	0.0294654819326525 1 0.03531736543366 1 0.0412082729509374 1 0.0472554346776278 3 
	0.135666666666667 -0.664341016151378 0.036323393135676 
	0.134908548031481 -0.665672377799406 0.0350102931413696 
	0.133364549331312 -0.668178079797995 0.0323360089458556 
	0.130863418965081 -0.671370539044883 0.0280039240751919 
	0.128153606414884 -0.673669156015908 0.0233103910592615 
	0.125227438207712 -0.674606331410237 0.0182421190529485 
	0.122286154056877 -0.673828027460614 0.0131476654642029 
	0.119541812230715 -0.671624123648439 0.00839432598795443 
	0.117015074820738 -0.668485775988422 0.00401788841648778 
	0.11545721662698 -0.665998963983157 0.00131959887391423 
	0.114695345861903 -0.664679365109243 0 
	0 
	null_surface 
	null_surface 
	nullbs 
	nullbs 
	} #
surf-twe-attrib $-1 $-1 $-1 $279 246 #
cur-twe-attrib $-1 $-1 $-1 $281 249 #
cur-twe-attrib $-1 $-1 $-1 $288 261 #
surf-twe-attrib $-1 $-1 $291 $266 220 #
cur-twe-attrib $-1 $-1 $-1 $294 277 #
