600 0 1 0           
111 GICL Pro/E ACIS Translator - Source: f:/data5/repository/PTC/V20/web_demos/models/tool_motions/spacer.prt - 6 0 13 ACIS 6.0.3 NT 24 Thu Apr 04 13:12:35 2002 
1 9.9999999999999995e-007 1e-010 
body $-1 $1 $-1 $2 #
lump $-1 $-1 $3 $0 #
transform $-1 1 0 0 0 1 0 0 0 1 0 0 0 25.399999999999999 no_rotate no_reflect no_shear #
shell $-1 $-1 $-1 $4 $-1 $1 #
face $-1 $5 $6 $3 $-1 $7 reversed single #
face $-1 $8 $9 $3 $-1 $10 forward single #
loop $-1 $11 $12 $4 #
plane-surface $-1 0 0 0 1 0 0 0 0 -1 forward_v I I I I #
face $-1 $13 $14 $3 $-1 $15 forward single #
loop $-1 $-1 $16 $5 #
cone-surface $-1 0 0 0 1 0 0 0 0 -1.9375 1 I I 0 1 1.9375 forward I I I I #
loop $-1 $17 $18 $4 #
coedge $-1 $19 $20 $21 $22 reversed $6 $-1 #
face $-1 $23 $24 $3 $-1 $25 forward single #
loop $-1 $26 $27 $8 #
plane-surface $-1 1.25 0 0 1 0 0 0 0 -1 forward_v I I I I #
coedge $-1 $28 $29 $30 $31 reversed $9 $-1 #
loop $-1 $-1 $32 $4 #
coedge $-1 $33 $33 $34 $35 reversed $11 $-1 #
coedge $-1 $36 $12 $37 $38 reversed $6 $-1 #
coedge $-1 $12 $39 $40 $41 reversed $6 $-1 #
coedge $-1 $29 $28 $12 $22 forward $9 $-1 #
edge $-1 $42 0 $43 0.31430937003229459 $12 $44 forward 7 unknown #
face $-1 $45 $46 $3 $-1 $47 reversed single #
loop $-1 $-1 $48 $13 #
cone-surface $-1 0 0 0 1 0 0 0 0 -1.9375 1 I I 0 1 1.9375 forward I I I I #
loop $-1 $49 $50 $8 #
coedge $-1 $51 $52 $53 $54 forward $14 $-1 #
coedge $-1 $21 $16 $55 $56 reversed $9 $-1 #
coedge $-1 $16 $21 $57 $58 forward $9 $-1 #
coedge $-1 $52 $59 $16 $31 forward $14 $-1 #
edge $-1 $60 0 $61 0.31430937003229764 $30 $62 forward 7 unknown #
coedge $-1 $63 $63 $64 $65 reversed $17 $-1 #
coedge $-1 $18 $18 $66 $67 reversed $11 $-1 #
coedge $-1 $68 $69 $18 $35 forward $70 $-1 #
edge $-1 $71 0 $72 3.1415926535897962 $18 $73 forward 7 unknown #
coedge $-1 $74 $19 $75 $76 reversed $6 $-1 #
coedge $-1 $55 $77 $19 $38 forward $78 $-1 #
edge $-1 $79 0 $42 2.4526771087935728 $19 $80 forward 7 unknown #
coedge $-1 $20 $81 $48 $82 reversed $6 $-1 #
coedge $-1 $83 $57 $20 $41 forward $84 $-1 #
edge $-1 $43 0 $85 2.0947613229196307 $20 $86 forward 7 unknown #
vertex $-1 $38 $87 #
vertex $-1 $41 $88 #
ellipse-curve $-1 0 0 0 1 0 0 0 1.2263385543967864 -1.5 1 I I #
face $-1 $89 $90 $3 $-1 $91 forward single #
loop $-1 $92 $93 $23 #
plane-surface $-1 0 1.2263385543967864 1.5 0 0 -1 0 -1 0 forward_v I I I I #
coedge $-1 $94 $95 $39 $82 forward $24 $-1 #
loop $-1 $-1 $96 $8 #
coedge $-1 $97 $97 $98 $99 forward $26 $-1 #
coedge $-1 $100 $27 $101 $102 forward $14 $-1 #
coedge $-1 $27 $30 $103 $104 forward $14 $-1 #
coedge $-1 $95 $94 $27 $54 reversed $24 $-1 #
edge $-1 $105 0 $106 0.31430937003229559 $27 $107 forward 7 unknown #
coedge $-1 $108 $37 $28 $56 forward $78 $-1 #
edge $-1 $42 3.9443045261050592e-032 $60 1.25 $28 $109 forward 7 unknown #
coedge $-1 $40 $103 $29 $58 reversed $84 $-1 #
edge $-1 $43 0 $61 1.25 $29 $110 forward 7 unknown #
coedge $-1 $30 $111 $108 $112 forward $14 $-1 #
vertex $-1 $31 $113 #
vertex $-1 $104 $114 #
ellipse-curve $-1 1.25 1.3988810110276972e-014 -1.1657341758564144e-014 1 0 0 0 1.2263385543967722 -1.4999999999999885 1 I I #
coedge $-1 $32 $32 $115 $116 reversed $17 $-1 #
coedge $-1 $117 $118 $32 $65 forward $119 $-1 #
edge $-1 $120 0 $121 3.1415926535897962 $32 $122 forward 7 unknown #
coedge $-1 $123 $124 $33 $67 forward $125 $-1 #
edge $-1 $72 0 $71 3.1415926535897962 $33 $126 forward 7 unknown #
coedge $-1 $98 $34 $124 $127 reversed $70 $-1 #
coedge $-1 $34 $98 $123 $128 forward $70 $-1 #
loop $-1 $-1 $68 $129 #
vertex $-1 $67 $130 #
vertex $-1 $67 $131 #
ellipse-curve $-1 0 1.125 1.1249999999999998 -1 0 0 0 0.14050000000000007 2.2204460492503131e-016 1 I I #
coedge $-1 $132 $36 $133 $134 reversed $6 $-1 #
coedge $-1 $135 $136 $36 $76 forward $137 $-1 #
edge $-1 $138 1.7745083931573779e-016 $79 0.31430937003229459 $36 $139 forward 7 unknown #
coedge $-1 $37 $108 $135 $140 reversed $78 $-1 #
loop $-1 $141 $77 $142 #
vertex $-1 $76 $143 #
straight-curve $-1 0 -1.2263385543967866 -1.5 0 1 0 I I #
coedge $-1 $39 $132 $144 $145 reversed $6 $-1 #
edge $-1 $85 0 $146 0.31430937003229475 $39 $147 forward 7 unknown #
coedge $-1 $103 $40 $95 $148 forward $84 $-1 #
loop $-1 $-1 $57 $149 #
vertex $-1 $41 $150 #
straight-curve $-1 0 1.6299999999999999 -1.0473806614598156 0 0 1 I I #
point $-1 0 1.2263385543967864 -1.5 #
point $-1 0 1.6299999999999999 -1.0473806614598156 #
face $-1 $151 $152 $3 $-1 $153 reversed single #
loop $-1 $-1 $154 $45 #
cone-surface $-1 0 0 0 1 0 0 0 0 -1.9375 1 I I 0 1 1.9375 forward I I I I #
loop $-1 $-1 $155 $23 #
coedge $-1 $144 $101 $94 $156 reversed $46 $-1 #
coedge $-1 $53 $48 $93 $156 forward $24 $-1 #
coedge $-1 $48 $53 $83 $148 reversed $24 $-1 #
coedge $-1 $157 $157 $158 $159 forward $49 $-1 #
coedge $-1 $50 $50 $160 $161 forward $26 $-1 #
coedge $-1 $69 $68 $50 $99 reversed $70 $-1 #
edge $-1 $162 0 $163 3.1415926535897931 $50 $164 forward 7 unknown #
coedge $-1 $165 $51 $154 $166 forward $14 $-1 #
coedge $-1 $93 $167 $51 $102 reversed $46 $-1 #
edge $-1 $106 0 $168 2.4526771087935724 $51 $169 forward 7 unknown #
coedge $-1 $57 $83 $52 $104 reversed $84 $-1 #
edge $-1 $61 0 $105 2.0947613229196307 $52 $170 forward 7 unknown #
vertex $-1 $104 $171 #
vertex $-1 $102 $172 #
ellipse-curve $-1 1.25 4.3298697960381105e-015 3.1086244689504383e-015 1 0 0 0 1.6299999999999955 1.0473806614598122 1 I I #
coedge $-1 $77 $55 $59 $112 reversed $78 $-1 #
straight-curve $-1 0 1.2263385543967864 -1.5000000000000002 1 3.5527136788005011e-016 1.7763568394002506e-016 I I #
straight-curve $-1 0 1.6299999999999999 -1.0473806614598156 1 0 1.7763568394002506e-016 I I #
coedge $-1 $59 $165 $173 $174 forward $14 $-1 #
edge $-1 $175 0 $60 2.4526771087935728 $59 $176 forward 7 unknown #
point $-1 1.25 1.2263385543967862 -1.5 #
point $-1 1.25 1.6299999999999999 -1.0473806614598153 #
coedge $-1 $177 $178 $63 $116 forward $179 $-1 #
edge $-1 $121 0 $120 3.1415926535897962 $63 $180 forward 7 unknown #
coedge $-1 $158 $64 $178 $181 reversed $119 $-1 #
coedge $-1 $64 $158 $177 $182 forward $119 $-1 #
loop $-1 $-1 $117 $183 #
vertex $-1 $116 $184 #
vertex $-1 $116 $185 #
ellipse-curve $-1 0 -1.125 1.1249999999999998 -1 0 0 0 0.14050000000000007 2.2204460492503131e-016 1 I I #
coedge $-1 $160 $66 $69 $128 reversed $125 $-1 #
coedge $-1 $66 $160 $68 $127 forward $125 $-1 #
loop $-1 $-1 $123 $186 #
ellipse-curve $-1 0 1.125 1.1250000000000002 -1 0 0 0 -0.14050000000000007 -2.2204460492503131e-016 1 I I #
edge $-1 $163 0 $72 1.25 $124 $187 forward 7 unknown #
edge $-1 $162 0 $71 1.25 $123 $188 forward 7 unknown #
face $-1 $186 $70 $3 $-1 $189 reversed single #
point $-1 0 1.2655000000000001 1.125 #
point $-1 0 0.98449999999999993 1.125 #
coedge $-1 $81 $74 $190 $191 reversed $6 $-1 #
coedge $-1 $192 $193 $74 $134 forward $152 $-1 #
edge $-1 $194 4.4408920985006262e-016 $138 2.0947613229196316 $74 $195 forward 7 unknown #
coedge $-1 $173 $75 $77 $140 forward $137 $-1 #
coedge $-1 $75 $173 $192 $196 reversed $137 $-1 #
loop $-1 $-1 $75 $151 #
vertex $-1 $134 $197 #
ellipse-curve $-1 0 0 0 1 0 0 0 -1.6299999999999999 -1.0473806614598153 1 I I #
edge $-1 $79 3.944304526105059e-031 $175 1.25 $135 $198 forward 7 unknown #
loop $-1 $-1 $199 $142 #
face $-1 $200 $78 $3 $-1 $201 reversed single #
point $-1 0 -1.2263385543967866 -1.5 #
coedge $-1 $167 $93 $81 $145 forward $46 $-1 #
edge $-1 $146 0 $202 2.4526771087935728 $81 $203 forward 7 unknown #
vertex $-1 $82 $204 #
ellipse-curve $-1 0 0 0 1 0 0 0 1.6299999999999999 1.0473806614598153 1 I I #
edge $-1 $85 3.9443045261050592e-032 $105 1.25 $95 $205 forward 7 unknown #
face $-1 $129 $84 $3 $-1 $206 reversed single #
point $-1 0 1.6299999999999999 1.0473806614598153 #
face $-1 $142 $137 $3 $-1 $207 forward single #
loop $-1 $-1 $193 $89 #
plane-surface $-1 0 -1.6299999999999999 1.0473806614598153 0 1 0 0 0 -1 forward_v I I I I #
coedge $-1 $208 $209 $100 $166 reversed $90 $-1 #
coedge $-1 $210 $210 $211 $212 reversed $92 $-1 #
edge $-1 $146 3.9443045261050592e-032 $106 1.25 $94 $213 forward 7 unknown #
coedge $-1 $96 $96 $214 $215 forward $49 $-1 #
coedge $-1 $118 $117 $96 $159 reversed $119 $-1 #
edge $-1 $216 0 $217 3.1415926535897931 $96 $218 forward 7 unknown #
coedge $-1 $124 $123 $97 $161 reversed $125 $-1 #
edge $-1 $163 0 $162 3.1415926535897931 $97 $219 forward 7 unknown #
vertex $-1 $161 $220 #
vertex $-1 $161 $221 #
ellipse-curve $-1 1.25 1.125 1.125 -1 0 0 0 0.14050000000000007 0 1 I I #
coedge $-1 $111 $100 $222 $223 forward $14 $-1 #
edge $-1 $168 0 $224 0.31430937003229659 $100 $225 forward 7 unknown #
coedge $-1 $101 $144 $208 $226 forward $46 $-1 #
vertex $-1 $166 $227 #
straight-curve $-1 1.25 1.2263385543967862 1.5 0 -1 0 I I #
straight-curve $-1 1.25 1.6299999999999999 -1.0473806614598153 0 0 1 I I #
point $-1 1.25 1.6299999999999999 1.0473806614598153 #
point $-1 1.25 1.2263385543967862 1.5 #
coedge $-1 $136 $135 $111 $174 reversed $137 $-1 #
edge $-1 $228 0 $175 0.31430937003229475 $111 $229 forward 7 unknown #
vertex $-1 $112 $230 #
straight-curve $-1 1.25 -1.2263385543967864 -1.5 0 1 0 I I #
coedge $-1 $214 $115 $118 $182 reversed $179 $-1 #
coedge $-1 $115 $214 $117 $181 forward $179 $-1 #
loop $-1 $-1 $177 $231 #
ellipse-curve $-1 0 -1.125 1.1250000000000002 -1 0 0 0 -0.14050000000000007 -2.2204460492503131e-016 1 I I #
edge $-1 $217 0 $121 1.25 $178 $232 forward 7 unknown #
edge $-1 $216 0 $120 1.25 $177 $233 forward 7 unknown #
face $-1 $231 $119 $3 $-1 $234 reversed single #
point $-1 0 -0.98449999999999993 1.125 #
point $-1 0 -1.2655000000000001 1.125 #
face $-1 $183 $125 $3 $-1 $235 reversed single #
straight-curve $-1 1.25 0.98449999999999993 1.125 -1 0 0 I I #
straight-curve $-1 1.25 1.2655000000000001 1.125 -1 0 0 I I #
cone-surface $-1 1.25 1.125 1.125 -1 0 0 0 -0.14050000000000001 0 1 I I 0 1 0.14050000000000001 forward I I I I #
coedge $-1 $209 $208 $132 $191 forward $90 $-1 #
edge $-1 $202 0 $194 0.31430937003229464 $132 $236 forward 7 unknown #
coedge $-1 $222 $133 $136 $196 forward $152 $-1 #
coedge $-1 $133 $222 $209 $237 reversed $152 $-1 #
vertex $-1 $191 $238 #
straight-curve $-1 0 -1.6299999999999999 1.0473806614598158 0 0 -1 I I #
edge $-1 $138 3.9443045261050592e-032 $228 1.25 $136 $239 forward 7 unknown #
point $-1 0 -1.6299999999999999 -1.0473806614598158 #
straight-curve $-1 0 -1.2263385543967871 -1.4999999999999996 1 5.3290705182007512e-016 -3.5527136788005011e-016 I I #
coedge $-1 $240 $240 $241 $242 forward $141 $-1 #
face $-1 $243 $244 $3 $-1 $245 reversed single #
plane-surface $-1 0 -1.2263385543967864 -1.5 0 0 1 0 1 0 forward_v I I I I #
vertex $-1 $145 $246 #
straight-curve $-1 0 1.2263385543967862 1.5 0 -1 0 I I #
point $-1 0 1.2263385543967862 1.5 #
straight-curve $-1 0 1.6299999999999999 1.0473806614598156 1 0 -1.7763568394002506e-016 I I #
plane-surface $-1 0 1.6299999999999999 -1.0473806614598153 0 -1 0 0 0 1 forward_v I I I I #
cone-surface $-1 0 0 0 1 0 0 0 0 -1.9375 1 I I 0 1 1.9375 forward I I I I #
coedge $-1 $190 $154 $167 $226 reversed $90 $-1 #
coedge $-1 $154 $190 $193 $237 forward $90 $-1 #
coedge $-1 $155 $155 $247 $248 reversed $92 $-1 #
coedge $-1 $249 $250 $155 $212 forward $251 $-1 #
edge $-1 $252 -2.449212707644754e-016 $253 3.1415926535897931 $155 $254 forward 7 unknown #
straight-curve $-1 0 1.2263385543967862 1.5000000000000002 1 1.7763568394002506e-016 -1.7763568394002506e-016 I I #
coedge $-1 $178 $177 $157 $215 reversed $179 $-1 #
edge $-1 $217 0 $216 3.1415926535897931 $157 $255 forward 7 unknown #
vertex $-1 $215 $256 #
vertex $-1 $215 $257 #
ellipse-curve $-1 1.25 -1.125 1.125 -1 0 0 0 0.14050000000000007 0 1 I I #
ellipse-curve $-1 1.25 1.125 1.125 -1 0 0 0 -0.14050000000000007 0 1 I I #
point $-1 1.25 1.2655000000000001 1.125 #
point $-1 1.25 0.98449999999999993 1.125 #
coedge $-1 $193 $192 $165 $223 reversed $152 $-1 #
edge $-1 $224 0 $228 2.0947613229196307 $165 $258 forward 7 unknown #
vertex $-1 $223 $259 #
ellipse-curve $-1 1.25 -8.5487172896137054e-015 6.9944050551384862e-015 1 0 0 0 -1.2263385543967775 1.4999999999999929 1 I I #
edge $-1 $202 3.5498740734945528e-031 $168 1.25 $208 $260 forward 7 unknown #
point $-1 1.25 -1.2263385543967862 1.5 #
vertex $-1 $174 $261 #
ellipse-curve $-1 1.25 -4.4408920985006262e-016 -7.7715611723760958e-016 1 0 0 0 -1.6299999999999994 -1.0473806614598145 1 I I #
point $-1 1.25 -1.2263385543967864 -1.5 #
face $-1 $-1 $179 $3 $-1 $262 reversed single #
straight-curve $-1 1.25 -1.2655000000000001 1.125 -1 0 0 I I #
straight-curve $-1 1.25 -0.98449999999999993 1.125 -1 0 0 I I #
cone-surface $-1 1.25 -1.125 1.125 -1 0 0 0 -0.14050000000000001 0 1 I I 0 1 0.14050000000000001 forward I I I I #
cone-surface $-1 1.25 1.125 1.125 -1 0 0 0 -0.14050000000000001 0 1 I I 0 1 0.14050000000000001 forward I I I I #
ellipse-curve $-1 0 0 0 1 0 0 0 -1.2263385543967864 1.5 1 I I #
edge $-1 $194 3.9443045261050586e-031 $224 1.25 $209 $263 forward 7 unknown #
point $-1 0 -1.6299999999999999 1.0473806614598153 #
straight-curve $-1 0 -1.6300000000000001 -1.0473806614598153 1 1.7763568394002506e-016 0 I I #
coedge $-1 $199 $199 $264 $265 forward $141 $-1 #
coedge $-1 $266 $267 $199 $242 reversed $244 $-1 #
edge $-1 $268 -2.449212707644754e-016 $269 3.1415926535897931 $199 $270 forward 7 unknown #
face $-1 $271 $272 $3 $-1 $273 reversed single #
loop $-1 $-1 $266 $200 #
cone-surface $-1 0.65800000000000003 0 -2.1600000000000001 0 0 1 0.99999999999999989 0 0 1 I I -0.70710678118654746 0.70710678118654757 0.99999999999999989 forward I I I I #
point $-1 0 -1.2263385543967864 1.5 #
coedge $-1 $274 $275 $210 $248 forward $276 $-1 #
edge $-1 $253 0 $252 3.1415926535897931 $210 $277 forward 7 unknown #
coedge $-1 $278 $211 $275 $279 forward $251 $-1 #
coedge $-1 $211 $278 $274 $280 reversed $251 $-1 #
loop $-1 $-1 $249 $281 #
vertex $-1 $248 $282 #
vertex $-1 $248 $283 #
ellipse-curve $-1 0.65800000000000003 0 1.5 6.5307236742656252e-016 7.9975657065639032e-032 1 -0.34000000000000008 -4.1636616029960824e-017 2.2204460492503131e-016 1 I I #
ellipse-curve $-1 1.25 -1.125 1.125 -1 0 0 0 -0.14050000000000007 0 1 I I #
point $-1 1.25 -0.98449999999999993 1.125 #
point $-1 1.25 -1.2655000000000001 1.125 #
straight-curve $-1 1.25 -1.6299999999999999 1.0473806614598153 0 0 -1 I I #
point $-1 1.25 -1.6299999999999999 1.0473806614598153 #
straight-curve $-1 0 -1.226338554396786 1.5000000000000007 1 0 -5.3290705182007512e-016 I I #
point $-1 1.25 -1.6299999999999999 -1.0473806614598153 #
cone-surface $-1 1.25 -1.125 1.125 -1 0 0 0 -0.14050000000000001 0 1 I I 0 1 0.14050000000000001 forward I I I I #
straight-curve $-1 0 -1.6299999999999997 1.047380661459816 1 -1.7763568394002506e-016 -5.3290705182007512e-016 I I #
coedge $-1 $284 $285 $240 $265 reversed $272 $-1 #
edge $-1 $269 0 $268 3.1415926535897931 $240 $286 forward 7 unknown #
coedge $-1 $287 $241 $285 $288 forward $244 $-1 #
coedge $-1 $241 $287 $284 $289 reversed $244 $-1 #
vertex $-1 $265 $290 #
vertex $-1 $265 $291 #
ellipse-curve $-1 0.65800000000000003 0 -1.5 -6.5307236742656252e-016 -7.9975657065639032e-032 1 -0.34000000000000008 -4.1636616029960824e-017 -2.2204460492503131e-016 1 I I #
face $-1 $292 $293 $3 $-1 $294 reversed single #
loop $-1 $-1 $284 $243 #
cone-surface $-1 0.65800000000000003 0 -2.1600000000000001 0 0 1 0.99999999999999989 0 0 1 I I -0.70710678118654746 0.70710678118654757 0.99999999999999989 forward I I I I #
coedge $-1 $295 $247 $250 $280 forward $276 $-1 #
coedge $-1 $247 $295 $249 $279 reversed $276 $-1 #
loop $-1 $-1 $274 $296 #
ellipse-curve $-1 0.65800000000000003 0 1.5 -6.5307236742656252e-016 0 1 0.34000000000000008 0 2.2204460492503131e-016 1 I I #
coedge $-1 $250 $249 $297 $298 reversed $251 $-1 #
edge $-1 $253 0 $299 0.042426406871192979 $249 $300 forward 7 unknown #
edge $-1 $252 0 $301 0.042426406871192979 $250 $302 forward 7 unknown #
face $-1 $296 $251 $3 $-1 $303 reversed single #
point $-1 0.31799999999999995 4.1636616029960824e-017 1.5000000000000002 #
point $-1 0.99800000000000011 0 1.5000000000000002 #
coedge $-1 $304 $264 $267 $289 forward $272 $-1 #
coedge $-1 $264 $304 $266 $288 reversed $272 $-1 #
ellipse-curve $-1 0.65800000000000003 0 -1.5 6.5307236742656252e-016 0 1 0.34000000000000008 0 -2.2204460492503131e-016 1 I I #
coedge $-1 $267 $266 $305 $306 forward $244 $-1 #
edge $-1 $268 7.2108578079809172e-033 $307 0.042426406871192979 $285 $308 forward 7 unknown #
edge $-1 $269 0 $309 0.042426406871192979 $284 $310 forward 7 unknown #
point $-1 0.31799999999999995 4.1636616029960824e-017 -1.5000000000000002 #
point $-1 0.99800000000000011 0 -1.5000000000000002 #
face $-1 $311 $312 $3 $-1 $313 reversed single #
loop $-1 $-1 $314 $271 #
cone-surface $-1 0.65800000000000003 0 -1.519625 0 0 1 0.30999999999999994 0 0 1 I I 0 1 0.30999999999999994 forward I I I I #
coedge $-1 $275 $274 $315 $316 reversed $276 $-1 #
face $-1 $149 $276 $3 $-1 $317 reversed single #
coedge $-1 $318 $319 $278 $298 forward $320 $-1 #
edge $-1 $301 -2.449212707644754e-016 $299 3.1415926535897931 $297 $321 forward 7 unknown #
vertex $-1 $316 $322 #
straight-curve $-1 0.99800000000000011 0 1.5000000000000002 -0.70710678118654879 0 -0.70710678118654613 I I #
vertex $-1 $316 $323 #
straight-curve $-1 0.31799999999999995 4.1636616029960824e-017 1.5000000000000002 0.70710678118654879 -8.6592745707193579e-017 -0.70710678118654613 I I #
cone-surface $-1 0.65800000000000003 0 2.1600000000000001 0 0 -1 0.99999999999999989 0 0 1 I I -0.70710678118654746 0.70710678118654757 0.99999999999999989 forward I I I I #
coedge $-1 $285 $284 $324 $325 forward $272 $-1 #
coedge $-1 $326 $327 $287 $306 reversed $312 $-1 #
edge $-1 $307 -2.449212707644754e-016 $309 3.1415926535897931 $305 $328 forward 7 unknown #
vertex $-1 $325 $329 #
straight-curve $-1 0.31799999999999995 -4.1636616029960824e-017 -1.5000000000000002 0.70710678118654879 8.6592745707193579e-017 0.70710678118654613 I I #
vertex $-1 $325 $330 #
straight-curve $-1 0.99800000000000011 0 -1.5000000000000002 -0.70710678118654879 0 0.70710678118654613 I I #
face $-1 $331 $332 $3 $-1 $333 forward single #
loop $-1 $-1 $326 $292 #
cone-surface $-1 0.65800000000000003 0 -1.519625 0 0 1 0.30999999999999994 0 0 1 I I 0 1 0.30999999999999994 forward I I I I #
coedge $-1 $334 $324 $327 $335 forward $293 $-1 #
coedge $-1 $336 $337 $295 $316 forward $338 $-1 #
edge $-1 $299 0 $301 3.1415926535897931 $315 $339 forward 7 unknown #
cone-surface $-1 0.65800000000000003 0 2.1600000000000001 0 0 -1 0.99999999999999989 0 0 1 I I -0.70710678118654746 0.70710678118654757 0.99999999999999989 forward I I I I #
coedge $-1 $340 $297 $337 $341 forward $320 $-1 #
coedge $-1 $297 $340 $336 $342 reversed $320 $-1 #
loop $-1 $-1 $318 $343 #
ellipse-curve $-1 0.65800000000000003 -5.5511151231257827e-017 1.4700000000000002 0 0 1 -0.30999999999999994 1.7548354262764146e-017 0 1 I I #
point $-1 0.96799999999999997 0 1.4700000000000002 #
point $-1 0.34800000000000009 3.7962796968493681e-017 1.4700000000000002 #
coedge $-1 $314 $344 $304 $325 reversed $293 $-1 #
edge $-1 $309 0 $307 3.1415926535897931 $324 $345 forward 7 unknown #
coedge $-1 $346 $305 $344 $347 forward $312 $-1 #
coedge $-1 $305 $346 $314 $335 reversed $312 $-1 #
ellipse-curve $-1 0.65800000000000003 -5.5511151231257827e-017 -1.4700000000000002 0 0 1 -0.30999999999999994 1.7548354262764146e-017 0 1 I I #
point $-1 0.34800000000000009 3.7962796968493681e-017 -1.4700000000000002 #
point $-1 0.96799999999999997 0 -1.4700000000000002 #
face $-1 $348 $349 $3 $-1 $350 reversed single #
loop $-1 $351 $352 $311 #
plane-surface $-1 0.65800000000000003 0 -1.2199999999999998 0 0 1 1 0 0 forward_v I I I I #
coedge $-1 $344 $314 $353 $354 forward $293 $-1 #
edge $-1 $309 -2.2204460492503131e-016 $355 0.25000000000000022 $314 $356 forward 7 unknown #
coedge $-1 $357 $315 $319 $342 forward $338 $-1 #
coedge $-1 $315 $357 $318 $341 reversed $338 $-1 #
loop $-1 $-1 $336 $358 #
ellipse-curve $-1 0.65800000000000003 5.5511151231257827e-017 1.4700000000000002 0 0 1 0.30999999999999994 -5.5511151231257827e-017 0 1 I I #
coedge $-1 $319 $318 $359 $360 forward $320 $-1 #
edge $-1 $299 -2.2204460492503131e-016 $361 0.25000000000000022 $337 $362 forward 7 unknown #
edge $-1 $301 -2.2204460492503131e-016 $363 0.25000000000000022 $336 $364 forward 7 unknown #
face $-1 $281 $320 $3 $-1 $365 reversed single #
coedge $-1 $324 $334 $326 $347 reversed $293 $-1 #
ellipse-curve $-1 0.65800000000000003 5.5511151231257827e-017 -1.4700000000000002 0 0 1 0.30999999999999994 -5.5511151231257827e-017 0 1 I I #
coedge $-1 $327 $326 $366 $367 reversed $312 $-1 #
edge $-1 $307 -2.2204460492503131e-016 $368 0.25000000000000022 $344 $369 forward 7 unknown #
face $-1 $370 $371 $3 $-1 $372 reversed single #
loop $-1 $-1 $373 $331 #
cone-surface $-1 0.65800000000000003 0 -1.519625 0 0 1 0.34999999999999998 0 0 1 I I 0 1 0.34999999999999998 forward I I I I #
loop $-1 $-1 $353 $311 #
coedge $-1 $374 $374 $373 $375 reversed $332 $-1 #
coedge $-1 $366 $366 $334 $354 reversed $351 $-1 #
edge $-1 $355 0 $368 3.1415926535897936 $334 $376 forward 7 unknown #
vertex $-1 $354 $377 #
straight-curve $-1 0.96799999999999997 0 -1.47 0 0 1 I I #
coedge $-1 $337 $336 $378 $379 reversed $338 $-1 #
face $-1 $343 $338 $3 $-1 $380 reversed single #
coedge $-1 $378 $378 $340 $360 reversed $381 $-1 #
edge $-1 $361 0 $363 3.1415926535897936 $359 $382 forward 7 unknown #
vertex $-1 $341 $383 #
straight-curve $-1 0.96799999999999997 0 1.47 0 0 -1 I I #
vertex $-1 $379 $384 #
straight-curve $-1 0.34800000000000009 -3.7962796968493687e-017 1.47 0 0 -1 I I #
cone-surface $-1 0.65800000000000003 0 1.519625 0 0 1 0.30999999999999994 0 0 1 I I 0 1 0.30999999999999994 forward I I I I #
coedge $-1 $353 $353 $346 $367 forward $351 $-1 #
edge $-1 $355 0 $368 3.1415926535897936 $366 $385 forward 7 unknown #
vertex $-1 $347 $386 #
straight-curve $-1 0.34800000000000009 -3.7962796968493687e-017 -1.47 0 0 1 I I #
face $-1 $387 $388 $3 $-1 $389 reversed single #
loop $-1 $-1 $390 $348 #
cone-surface $-1 0.65800000000000003 0 -1.519625 0 0 1 0.34999999999999998 0 0 1 I I 0 1 0.34999999999999998 forward I I I I #
coedge $-1 $391 $392 $352 $375 forward $349 $-1 #
coedge $-1 $352 $352 $393 $394 forward $332 $-1 #
edge $-1 $395 0 $396 3.1415926535897931 $352 $397 forward 7 unknown #
ellipse-curve $-1 0.65800000000000003 5.5511151231257827e-017 -1.2199999999999998 0 0 1 0.30999999999999994 -5.5511151231257827e-017 0 1 I I #
point $-1 0.96799999999999997 0 -1.2199999999999998 #
coedge $-1 $359 $359 $357 $379 forward $381 $-1 #
edge $-1 $361 0 $363 3.1415926535897936 $357 $398 forward 7 unknown #
cone-surface $-1 0.65800000000000003 0 1.519625 0 0 1 0.30999999999999994 0 0 1 I I 0 1 0.30999999999999994 forward I I I I #
loop $-1 $-1 $378 $399 #
ellipse-curve $-1 0.65800000000000003 -5.5511151231257827e-017 1.2199999999999998 0 0 -1 0.30999999999999994 5.5511151231257827e-017 0 1 I I #
point $-1 0.96799999999999997 0 1.2199999999999998 #
point $-1 0.34800000000000009 0 1.2199999999999998 #
ellipse-curve $-1 0.65800000000000003 -5.5511151231257827e-017 -1.2199999999999998 0 0 -1 0.30999999999999994 5.5511151231257827e-017 0 1 I I #
point $-1 0.34800000000000009 0 -1.2199999999999998 #
face $-1 $400 $401 $3 $-1 $402 reversed single #
loop $-1 $403 $404 $370 #
plane-surface $-1 0.65800000000000003 0 -1.1074999999999997 0 0 1 1 0 0 forward_v I I I I #
coedge $-1 $405 $406 $404 $407 forward $371 $-1 #
coedge $-1 $408 $373 $405 $409 forward $349 $-1 #
coedge $-1 $373 $408 $406 $410 reversed $349 $-1 #
coedge $-1 $406 $405 $374 $394 reversed $371 $-1 #
edge $-1 $395 0 $396 3.1415926535897931 $374 $411 forward 7 unknown #
vertex $-1 $394 $412 #
vertex $-1 $394 $413 #
ellipse-curve $-1 0.65800000000000003 1.3877787807814457e-017 -1.2199999999999998 0 0 -1 0.34999999999999998 -1.3877787807814457e-017 0 1 I I #
ellipse-curve $-1 0.65800000000000003 5.5511151231257827e-017 1.2199999999999998 0 0 1 0.30999999999999994 -5.5511151231257827e-017 0 1 I I #
face $-1 $414 $415 $3 $-1 $416 reversed single #
face $-1 $417 $418 $3 $-1 $419 reversed single #
loop $-1 $-1 $420 $387 #
cone-surface $-1 0.65800000000000003 0 1.5 0 0 -1 -0.125 0 0 1 I I 0 1 0.125 forward I I I I #
loop $-1 $-1 $421 $370 #
coedge $-1 $422 $422 $390 $407 reversed $388 $-1 #
coedge $-1 $393 $390 $391 $409 reversed $371 $-1 #
coedge $-1 $390 $393 $392 $410 forward $371 $-1 #
edge $-1 $423 0 $424 3.1415926535897931 $390 $425 forward 7 unknown #
coedge $-1 $392 $391 $422 $426 reversed $349 $-1 #
edge $-1 $396 0 $424 0.11250000000000004 $405 $427 forward 7 unknown #
edge $-1 $395 0 $423 0.11250000000000004 $406 $428 forward 7 unknown #
ellipse-curve $-1 0.65800000000000003 -1.3877787807814457e-017 -1.2199999999999998 0 0 1 0.34999999999999998 1.3877787807814457e-017 0 1 I I #
point $-1 1.008 0 -1.2199999999999998 #
point $-1 0.30800000000000005 4.2861222383783203e-017 -1.2199999999999998 #
face $-1 $358 $429 $3 $-1 $430 reversed single #
loop $-1 $381 $431 $399 #
plane-surface $-1 0.65800000000000003 0 1.2199999999999998 0 0 1 1 0 0 forward_v I I I I #
face $-1 $432 $433 $3 $-1 $434 forward single #
loop $-1 $-1 $435 $400 #
cone-surface $-1 0.65800000000000003 0 1.5 0 0 -1 -0.125 0 0 1 I I 0 1 0.125 forward I I I I #
coedge $-1 $436 $437 $438 $439 reversed $401 $-1 #
coedge $-1 $440 $440 $437 $441 reversed $403 $-1 #
coedge $-1 $404 $404 $408 $426 forward $388 $-1 #
vertex $-1 $410 $442 #
vertex $-1 $409 $443 #
ellipse-curve $-1 0.65800000000000003 -2.7755575615628914e-017 -1.1074999999999997 0 0 1 0.34999999999999998 2.7755575615628914e-017 0 1 I I #
edge $-1 $423 0 $424 3.1415926535897931 $422 $444 forward 7 unknown #
straight-curve $-1 0.30800000000000005 -4.2861222383783203e-017 -1.2199999999999998 0 0 1 I I #
straight-curve $-1 1.008 0 -1.2199999999999998 0 0 1 I I #
loop $-1 $-1 $445 $414 #
cone-surface $-1 0.65800000000000003 0 1.519625 0 0 1 0.34999999999999998 0 0 1 I I 0 1 0.34999999999999998 forward I I I I #
coedge $-1 $446 $446 $447 $448 forward $415 $-1 #
face $-1 $399 $449 $3 $-1 $450 reversed single #
loop $-1 $451 $452 $417 #
plane-surface $-1 0.65800000000000003 0 1.1074999999999997 0 0 1 1 0 0 forward_v I I I I #
coedge $-1 $453 $454 $455 $456 reversed $418 $-1 #
coedge $-1 $455 $420 $457 $458 reversed $401 $-1 #
coedge $-1 $420 $455 $421 $441 forward $401 $-1 #
coedge $-1 $454 $453 $420 $439 forward $418 $-1 #
edge $-1 $459 0 $460 2.2149999999999994 $438 $461 forward 7 unknown #
coedge $-1 $421 $421 $454 $462 reversed $403 $-1 #
edge $-1 $463 0 $460 3.1415926535897931 $437 $464 forward 7 unknown #
point $-1 1.008 0 -1.1074999999999997 #
point $-1 0.30800000000000005 0 -1.1074999999999997 #
ellipse-curve $-1 0.65800000000000003 2.7755575615628914e-017 -1.1074999999999997 0 0 -1 0.34999999999999998 -2.7755575615628914e-017 0 1 I I #
coedge $-1 $465 $466 $467 $468 forward $429 $-1 #
coedge $-1 $431 $431 $469 $470 reversed $415 $-1 #
coedge $-1 $466 $465 $431 $448 reversed $429 $-1 #
edge $-1 $471 0 $472 3.1415926535897931 $431 $473 forward 7 unknown #
loop $-1 $-1 $469 $432 #
cone-surface $-1 0.65800000000000003 0 1.519625 0 0 1 0.34999999999999998 0 0 1 I I 0 1 0.34999999999999998 forward I I I I #
loop $-1 $-1 $457 $417 #
coedge $-1 $467 $467 $474 $475 forward $433 $-1 #
coedge $-1 $438 $435 $476 $477 reversed $418 $-1 #
coedge $-1 $435 $438 $440 $462 forward $418 $-1 #
coedge $-1 $437 $436 $435 $456 forward $401 $-1 #
edge $-1 $478 0 $463 2.2149999999999994 $435 $479 forward 7 unknown #
coedge $-1 $476 $476 $436 $458 forward $451 $-1 #
edge $-1 $478 0 $459 3.1415926535897931 $436 $480 forward 7 unknown #
vertex $-1 $439 $481 #
vertex $-1 $462 $482 #
straight-curve $-1 0.53300000000000003 0 1.1074999999999997 0 0 -1 I I #
edge $-1 $460 0 $463 3.1415926535897931 $454 $483 forward 7 unknown #
vertex $-1 $462 $484 #
ellipse-curve $-1 0.65800000000000003 0 -1.1074999999999997 0 0 -1 0.125 0 0 1 I I #
coedge $-1 $447 $445 $485 $486 reversed $429 $-1 #
coedge $-1 $445 $447 $487 $488 forward $429 $-1 #
coedge $-1 $452 $452 $445 $468 reversed $433 $-1 #
edge $-1 $489 0 $490 3.1415926535897931 $467 $491 forward 7 unknown #
coedge $-1 $485 $487 $446 $470 forward $449 $-1 #
edge $-1 $471 0 $472 3.1415926535897931 $446 $492 forward 7 unknown #
vertex $-1 $470 $493 #
vertex $-1 $470 $494 #
ellipse-curve $-1 0.65800000000000003 1.3877787807814457e-017 1.2199999999999998 0 0 -1 0.34999999999999998 -1.3877787807814457e-017 0 1 I I #
coedge $-1 $487 $485 $452 $475 reversed $449 $-1 #
edge $-1 $489 0 $490 3.1415926535897931 $474 $495 forward 7 unknown #
coedge $-1 $457 $457 $453 $477 forward $451 $-1 #
edge $-1 $459 0 $478 3.1415926535897931 $453 $496 forward 7 unknown #
vertex $-1 $477 $497 #
straight-curve $-1 0.78300000000000003 1.5307579422779716e-017 1.1074999999999997 0 0 -1 I I #
ellipse-curve $-1 0.65800000000000003 0 1.1074999999999997 0 0 -1 0.125 0 0 1 I I #
point $-1 0.53300000000000003 0 1.1074999999999997 #
point $-1 0.53300000000000003 0 -1.1074999999999997 #
ellipse-curve $-1 0.65800000000000003 0 -1.1074999999999997 0 0 -1 -0.125 0 0 1 I I #
point $-1 0.78300000000000003 0 -1.1074999999999997 #
coedge $-1 $474 $469 $465 $486 forward $449 $-1 #
edge $-1 $472 0 $490 0.11250000000000004 $485 $498 forward 7 unknown #
coedge $-1 $469 $474 $466 $488 reversed $449 $-1 #
edge $-1 $471 0 $489 0.11250000000000004 $487 $499 forward 7 unknown #
vertex $-1 $488 $500 #
vertex $-1 $475 $501 #
ellipse-curve $-1 0.65800000000000003 2.7755575615628914e-017 1.1074999999999997 0 0 -1 0.34999999999999998 -2.7755575615628914e-017 0 1 I I #
ellipse-curve $-1 0.65800000000000003 -1.3877787807814457e-017 1.2199999999999998 0 0 1 0.34999999999999998 1.3877787807814457e-017 0 1 I I #
point $-1 1.008 0 1.2199999999999998 #
point $-1 0.30800000000000005 4.2861222383783203e-017 1.2199999999999998 #
ellipse-curve $-1 0.65800000000000003 -2.7755575615628914e-017 1.1074999999999997 0 0 1 0.34999999999999998 2.7755575615628914e-017 0 1 I I #
ellipse-curve $-1 0.65800000000000003 0 1.1074999999999997 0 0 -1 -0.125 0 0 1 I I #
point $-1 0.78300000000000003 0 1.1074999999999997 #
straight-curve $-1 0.30800000000000005 -4.2861222383783203e-017 1.2199999999999998 0 0 -1 I I #
straight-curve $-1 1.008 0 1.2199999999999998 0 0 -1 I I #
point $-1 1.008 0 1.1074999999999997 #
point $-1 0.30800000000000005 0 1.1074999999999997 #
End-of-ACIS-data 