600 0 1 0           
117 GICL Pro/E ACIS Translator - Source: f:/data5/repository/PTC/V20/web_demos/models/tool_motions/step_clamp.prt.1 - 6 0 13 ACIS 6.0.3 NT 24 Thu Apr 04 13:12:34 2002 
1 9.9999999999999995e-007 1e-010 
body $-1 $1 $-1 $2 #
lump $-1 $-1 $3 $0 #
transform $-1 1 0 0 0 1 0 0 0 1 0 0 0 25.399999999999999 no_rotate no_reflect no_shear #
shell $-1 $-1 $-1 $4 $-1 $1 #
face $-1 $5 $6 $3 $-1 $7 reversed single #
face $-1 $8 $9 $3 $-1 $10 reversed single #
loop $-1 $11 $12 $4 #
plane-surface $-1 0 0 0 0 0 1 1 0 0 forward_v I I I I #
face $-1 $13 $14 $3 $-1 $15 forward single #
loop $-1 $-1 $16 $5 #
cone-surface $-1 0.875 -0.5 0 0 0 1 0.21875 0 0 1 I I 0 1 0.21875 forward I I I I #
loop $-1 $-1 $17 $4 #
coedge $-1 $18 $19 $20 $21 reversed $6 $-1 #
face $-1 $22 $23 $3 $-1 $24 reversed single #
loop $-1 $-1 $25 $8 #
plane-surface $-1 0.875 -0.28125 0 0 -1 0 1 0 0 forward_v I I I I #
coedge $-1 $26 $20 $27 $28 forward $9 $-1 #
coedge $-1 $29 $30 $31 $32 reversed $11 $-1 #
coedge $-1 $33 $12 $34 $35 reversed $6 $-1 #
coedge $-1 $12 $33 $36 $37 reversed $6 $-1 #
coedge $-1 $16 $38 $12 $21 forward $9 $-1 #
edge $-1 $39 0 $40 3.1415926535897931 $12 $41 forward 7 unknown #
face $-1 $42 $43 $3 $-1 $44 forward single #
loop $-1 $-1 $45 $13 #
cone-surface $-1 1.6875 -0.5 0 0 0 1 0.21875 0 0 1 I I 0 1 0.21875 forward I I I I #
coedge $-1 $46 $36 $47 $48 forward $14 $-1 #
coedge $-1 $38 $16 $49 $50 reversed $9 $-1 #
coedge $-1 $36 $46 $16 $28 reversed $14 $-1 #
edge $-1 $40 0 $51 0.5 $27 $52 forward 7 unknown #
coedge $-1 $53 $17 $54 $55 reversed $11 $-1 #
coedge $-1 $17 $53 $56 $57 reversed $11 $-1 #
coedge $-1 $58 $59 $17 $32 forward $60 $-1 #
edge $-1 $61 0 $62 1 $17 $63 forward 7 unknown #
coedge $-1 $19 $18 $64 $65 reversed $6 $-1 #
coedge $-1 $66 $67 $18 $35 forward $43 $-1 #
edge $-1 $68 0 $39 0.8125 $18 $69 forward 7 unknown #
coedge $-1 $25 $27 $19 $37 forward $14 $-1 #
edge $-1 $40 0 $70 0.8125 $19 $71 forward 7 unknown #
coedge $-1 $20 $26 $66 $72 reversed $9 $-1 #
vertex $-1 $35 $73 #
vertex $-1 $37 $74 #
ellipse-curve $-1 0.875 -0.5 0 0 0 -1 0 -0.21875 0 1 I I #
face $-1 $75 $76 $3 $-1 $77 forward single #
loop $-1 $-1 $66 $22 #
plane-surface $-1 1.6875 -0.71875 0 0 1 0 -1 0 0 forward_v I I I I #
coedge $-1 $78 $64 $67 $79 forward $23 $-1 #
coedge $-1 $27 $25 $80 $81 reversed $14 $-1 #
coedge $-1 $64 $78 $25 $48 reversed $23 $-1 #
edge $-1 $70 0 $82 0.5 $25 $83 forward 7 unknown #
coedge $-1 $80 $84 $26 $50 forward $76 $-1 #
edge $-1 $85 0 $51 3.1415926535897931 $49 $86 forward 7 unknown #
vertex $-1 $81 $87 #
straight-curve $-1 0.875 -0.28125 0 0 0 1 I I #
coedge $-1 $30 $29 $88 $89 forward $11 $-1 #
coedge $-1 $90 $91 $29 $55 forward $92 $-1 #
edge $-1 $93 0 $61 2.0625 $29 $94 forward 7 unknown #
coedge $-1 $95 $96 $30 $57 forward $97 $-1 #
edge $-1 $62 0 $98 2.0625 $30 $99 forward 7 unknown #
coedge $-1 $100 $31 $96 $101 forward $60 $-1 #
coedge $-1 $31 $100 $90 $102 reversed $60 $-1 #
loop $-1 $-1 $59 $103 #
vertex $-1 $55 $104 #
vertex $-1 $57 $105 #
straight-curve $-1 2.5 -1 0 0 1 0 I I #
coedge $-1 $45 $47 $33 $65 forward $23 $-1 #
edge $-1 $70 0 $68 3.1415926535897931 $33 $106 forward 7 unknown #
coedge $-1 $107 $34 $38 $72 forward $43 $-1 #
coedge $-1 $34 $107 $45 $79 reversed $43 $-1 #
vertex $-1 $65 $108 #
straight-curve $-1 1.6875 -0.71875 0 -1 0 0 I I #
vertex $-1 $37 $109 #
straight-curve $-1 0.875 -0.28125 0 1 0 0 I I #
edge $-1 $39 0 $85 0.5 $66 $110 forward 7 unknown #
point $-1 0.875 -0.71875 0 #
point $-1 0.875 -0.28125 0 #
face $-1 $111 $112 $3 $-1 $113 reversed single #
loop $-1 $114 $115 $42 #
plane-surface $-1 0 0 0.5 0 0 1 1 0 0 forward_v I I I I #
coedge $-1 $47 $45 $115 $116 reversed $23 $-1 #
edge $-1 $68 0 $117 0.5 $45 $118 forward 7 unknown #
coedge $-1 $115 $49 $46 $81 forward $76 $-1 #
edge $-1 $51 0 $82 0.8125 $80 $119 forward 7 unknown #
vertex $-1 $81 $120 #
straight-curve $-1 1.6875 -0.28125 0 0 0 1 I I #
coedge $-1 $49 $115 $107 $121 forward $76 $-1 #
vertex $-1 $50 $122 #
ellipse-curve $-1 0.875 -0.5 0.5 0 0 -1 0 -0.21875 0 1 I I #
point $-1 0.875 -0.28125 0.5 #
coedge $-1 $123 $124 $53 $89 reversed $125 $-1 #
edge $-1 $93 0 $98 1 $53 $126 forward 7 unknown #
coedge $-1 $127 $54 $59 $102 forward $92 $-1 #
coedge $-1 $54 $128 $129 $130 reversed $92 $-1 #
loop $-1 $-1 $131 $132 #
vertex $-1 $89 $133 #
straight-curve $-1 0.4375 -1 0 1 0 0 I I #
coedge $-1 $134 $56 $135 $136 forward $97 $-1 #
coedge $-1 $56 $137 $58 $101 reversed $97 $-1 #
loop $-1 $-1 $138 $139 #
vertex $-1 $57 $140 #
straight-curve $-1 2.5 0 0 -1 0 0 I I #
coedge $-1 $59 $58 $141 $142 reversed $60 $-1 #
edge $-1 $62 0 $143 0.14740595518838445 $96 $144 forward 7 unknown #
edge $-1 $61 0 $145 0.14740595518838445 $90 $146 forward 7 unknown #
face $-1 $147 $60 $3 $-1 $148 reversed single #
point $-1 2.5 -1 0 #
point $-1 2.5 0 0 #
ellipse-curve $-1 1.6875 -0.5 0 0 0 -1 0 0.21875 0 1 I I #
coedge $-1 $67 $66 $84 $121 reversed $43 $-1 #
point $-1 1.6875 -0.71875 0 #
point $-1 1.6875 -0.28125 0 #
straight-curve $-1 0.875 -0.71875 0 0 0 1 I I #
face $-1 $149 $150 $3 $-1 $151 reversed single #
loop $-1 $-1 $152 $75 #
plane-surface $-1 2.1875 -1.0999999999999999 0.375 -1 0 0 0 0 1 forward_v I I I I #
loop $-1 $-1 $153 $42 #
coedge $-1 $84 $80 $78 $116 forward $76 $-1 #
edge $-1 $82 0 $117 3.1415926535897931 $115 $154 forward 7 unknown #
vertex $-1 $121 $155 #
straight-curve $-1 1.6875 -0.71875 0 0 0 1 I I #
straight-curve $-1 0.875 -0.28125 0.5 1 0 0 I I #
point $-1 1.6875 -0.28125 0.5 #
edge $-1 $117 0 $85 0.8125 $84 $156 forward 7 unknown #
point $-1 0.875 -0.71875 0.5 #
coedge $-1 $157 $88 $158 $159 forward $125 $-1 #
coedge $-1 $88 $157 $160 $161 forward $125 $-1 #
loop $-1 $-1 $88 $147 #
straight-curve $-1 0.4375 -1 0 0 1 0 I I #
coedge $-1 $162 $90 $163 $164 forward $92 $-1 #
coedge $-1 $91 $131 $165 $166 reversed $92 $-1 #
coedge $-1 $167 $158 $91 $130 forward $168 $-1 #
edge $-1 $93 6.9388939039072284e-018 $169 0.5 $91 $170 forward 7 unknown #
coedge $-1 $128 $171 $172 $173 forward $92 $-1 #
face $-1 $174 $92 $3 $-1 $175 forward single #
point $-1 0.4375 -1 6.9388939039072284e-018 #
coedge $-1 $176 $95 $177 $178 reversed $97 $-1 #
coedge $-1 $160 $179 $95 $136 reversed $180 $-1 #
edge $-1 $98 0 $181 0.5 $95 $182 forward 7 unknown #
coedge $-1 $96 $183 $184 $185 reversed $97 $-1 #
coedge $-1 $186 $187 $188 $189 reversed $97 $-1 #
face $-1 $190 $97 $3 $-1 $191 forward single #
point $-1 0.4375 0 0 #
coedge $-1 $184 $163 $100 $142 forward $192 $-1 #
edge $-1 $145 0 $143 0.99999999999999978 $141 $193 forward 7 unknown #
vertex $-1 $101 $194 #
straight-curve $-1 2.5 0 0 -0.52999894000318004 0 0.84799830400508802 I I #
vertex $-1 $164 $195 #
straight-curve $-1 2.5 -1 0 -0.52999894000318004 0 0.84799830400508802 I I #
face $-1 $-1 $125 $3 $-1 $196 reversed single #
plane-surface $-1 2.5 -1.0999999999999999 0 -0.84799830400508802 0 -0.52999894000318004 -0.52999894000318004 0 0.84799830400508802 forward_v I I I I #
face $-1 $132 $197 $3 $-1 $198 reversed single #
loop $-1 $-1 $199 $111 #
plane-surface $-1 2.265625 -1.0999999999999999 0.375 0 0 -1 -1 0 0 forward_v I I I I #
coedge $-1 $200 $172 $201 $202 forward $112 $-1 #
coedge $-1 $177 $165 $203 $204 forward $114 $-1 #
ellipse-curve $-1 1.6875 -0.5 0.5 0 0 -1 0 0.21875 0 1 I I #
point $-1 1.6875 -0.71875 0.5 #
straight-curve $-1 1.6875 -0.71875 0.5 -1 0 0 I I #
coedge $-1 $124 $123 $205 $206 reversed $125 $-1 #
coedge $-1 $129 $207 $123 $159 reversed $168 $-1 #
edge $-1 $93 3.0060973769889938e-018 $208 0.57706829101935586 $158 $209 forward 7 unknown #
coedge $-1 $210 $135 $124 $161 reversed $180 $-1 #
edge $-1 $211 -1.8129079565841317e-017 $98 0.57706829101935586 $160 $212 forward 7 unknown #
coedge $-1 $213 $127 $214 $215 forward $92 $-1 #
coedge $-1 $141 $216 $127 $164 reversed $192 $-1 #
edge $-1 $145 0 $217 0.078125 $127 $218 forward 7 unknown #
coedge $-1 $153 $219 $128 $166 forward $114 $-1 #
edge $-1 $169 0 $220 1.75 $165 $221 forward 7 unknown #
coedge $-1 $207 $129 $219 $222 forward $168 $-1 #
loop $-1 $-1 $129 $174 #
vertex $-1 $166 $223 #
straight-curve $-1 0.4375 -1 0 0 0 1 I I #
coedge $-1 $131 $224 $225 $226 forward $92 $-1 #
coedge $-1 $152 $203 $131 $173 reversed $112 $-1 #
edge $-1 $227 0 $220 0.125 $131 $228 forward 7 unknown #
face $-1 $229 $168 $3 $-1 $230 reversed single #
plane-surface $-1 0 -1 0 0 -1 0 1 0 0 forward_v I I I I #
coedge $-1 $187 $134 $200 $231 reversed $97 $-1 #
coedge $-1 $232 $153 $134 $178 forward $114 $-1 #
edge $-1 $233 0 $181 1.75 $177 $234 forward 7 unknown #
coedge $-1 $135 $210 $232 $235 forward $180 $-1 #
loop $-1 $-1 $210 $236 #
vertex $-1 $235 $237 #
straight-curve $-1 0.43750000000000011 5.5511151231257827e-017 0 0 0 1 I I #
coedge $-1 $137 $186 $238 $239 reversed $97 $-1 #
coedge $-1 $216 $141 $137 $185 forward $192 $-1 #
edge $-1 $143 0 $240 0.078125 $137 $241 forward 7 unknown #
coedge $-1 $183 $138 $242 $243 reversed $97 $-1 #
coedge $-1 $138 $176 $244 $245 reversed $97 $-1 #
coedge $-1 $246 $247 $138 $189 forward $197 $-1 #
edge $-1 $248 0 $249 0.125 $138 $250 forward 7 unknown #
face $-1 $251 $252 $3 $-1 $253 reversed single #
plane-surface $-1 2.5 0 0 0 1 0 -1 0 0 forward_v I I I I #
loop $-1 $-1 $141 $254 #
straight-curve $-1 2.421875 -0.99999999999999978 0.125 0 1 0 I I #
point $-1 2.421875 0 0.125 #
point $-1 2.421875 -0.99999999999999978 0.125 #
plane-surface $-1 0 -1.0999999999999999 0.25 0.49613893835683387 0 0.8682431421244593 0.8682431421244593 0 -0.49613893835683387 forward_v I I I I #
loop $-1 $-1 $255 $149 #
plane-surface $-1 2.265625 -1.0999999999999999 0.25 -1 0 0 0 0 1 forward_v I I I I #
coedge $-1 $244 $225 $246 $256 forward $150 $-1 #
coedge $-1 $203 $152 $176 $231 forward $112 $-1 #
coedge $-1 $225 $244 $152 $202 reversed $150 $-1 #
edge $-1 $227 -2.2204460492503131e-016 $257 0.99999999999999978 $201 $258 forward 7 unknown #
coedge $-1 $172 $200 $153 $204 reversed $112 $-1 #
edge $-1 $220 0 $233 1 $153 $259 forward 7 unknown #
coedge $-1 $260 $261 $157 $206 forward $262 $-1 #
edge $-1 $211 0 $208 0.4375 $205 $263 forward 7 unknown #
coedge $-1 $158 $167 $260 $264 reversed $168 $-1 #
vertex $-1 $206 $265 #
straight-curve $-1 0.4375 -1 0 -0.75814250550343532 0.48737732496649411 0.43322428885910585 I I #
coedge $-1 $179 $160 $261 $266 forward $180 $-1 #
vertex $-1 $206 $267 #
straight-curve $-1 2.391249591500337e-017 -0.28125 0.25 0.75814250550343532 0.48737732496649411 -0.43322428885910585 I I #
coedge $-1 $224 $162 $268 $269 forward $92 $-1 #
coedge $-1 $270 $271 $162 $215 reversed $272 $-1 #
edge $-1 $217 0 $273 0.125 $162 $274 forward 7 unknown #
coedge $-1 $163 $184 $270 $275 reversed $192 $-1 #
vertex $-1 $215 $276 #
straight-curve $-1 2.421875 -1 0.125 -1 0 0 I I #
coedge $-1 $165 $277 $167 $222 reversed $114 $-1 #
vertex $-1 $166 $278 #
straight-curve $-1 0.4375 -1 0.5 1 0 0 I I #
edge $-1 $169 0 $279 0.52010365553416382 $219 $280 forward 7 unknown #
point $-1 0.4375 -1 0.5 #
coedge $-1 $171 $213 $255 $281 forward $92 $-1 #
coedge $-1 $199 $201 $171 $226 reversed $150 $-1 #
edge $-1 $282 0 $227 0.078125 $171 $283 forward 7 unknown #
vertex $-1 $226 $284 #
straight-curve $-1 2.1875 -1 0.375 0 0 1 I I #
face $-1 $236 $262 $3 $-1 $285 forward single #
plane-surface $-1 0.4375 -1 -0.050000000000000044 0.54075759131349876 0.84117847537655366 0 -0.84117847537655355 0.54075759131349865 0 forward_v I I I I #
edge $-1 $257 0 $233 0.125 $176 $286 forward 7 unknown #
coedge $-1 $277 $177 $179 $235 reversed $114 $-1 #
vertex $-1 $178 $287 #
straight-curve $-1 2.1875 0 0.5 -1 0 0 I I #
edge $-1 $288 0 $181 0.52010365553416393 $232 $289 forward 7 unknown #
face $-1 $139 $180 $3 $-1 $290 reversed single #
point $-1 0.4375 0 0.5 #
coedge $-1 $271 $270 $183 $239 forward $272 $-1 #
edge $-1 $240 0 $291 0.125 $183 $292 forward 7 unknown #
vertex $-1 $185 $293 #
straight-curve $-1 2.421875 0 0.125 -1 0 0 I I #
coedge $-1 $294 $295 $186 $243 forward $252 $-1 #
edge $-1 $291 0 $248 0.078125 $186 $296 forward 7 unknown #
coedge $-1 $201 $199 $187 $245 forward $150 $-1 #
edge $-1 $249 0 $257 0.078124999999999556 $187 $297 forward 7 unknown #
coedge $-1 $255 $188 $199 $256 reversed $197 $-1 #
coedge $-1 $188 $255 $294 $298 forward $197 $-1 #
vertex $-1 $243 $299 #
vertex $-1 $245 $300 #
straight-curve $-1 2.265625 0 0.25 0 0 1 I I #
face $-1 $254 $272 $3 $-1 $301 reversed single #
loop $-1 $-1 $295 $190 #
plane-surface $-1 2.34375 -1.0999999999999999 0.25 0 0 -1 -1 0 0 forward_v I I I I #
face $-1 $103 $192 $3 $-1 $302 reversed single #
coedge $-1 $247 $246 $224 $281 reversed $197 $-1 #
edge $-1 $282 -2.2204460492503131e-016 $249 0.99999999999999978 $246 $303 forward 7 unknown #
vertex $-1 $245 $304 #
straight-curve $-1 2.1875 -0.99999999999999978 0.375 0 1 0 I I #
straight-curve $-1 2.1875 -1 0.5 0 1 0 I I #
coedge $-1 $305 $205 $207 $264 forward $262 $-1 #
coedge $-1 $205 $305 $210 $266 reversed $262 $-1 #
loop $-1 $-1 $260 $229 #
straight-curve $-1 0 -0.28125 0.25 0 -1 0 I I #
edge $-1 $208 0 $279 0.25 $260 $306 forward 7 unknown #
point $-1 0 -0.71875 0.25 #
edge $-1 $211 0 $288 0.25 $261 $307 forward 7 unknown #
point $-1 0 -0.28125 0.25 #
coedge $-1 $295 $294 $213 $269 reversed $252 $-1 #
edge $-1 $273 0 $308 0.078125 $213 $309 forward 7 unknown #
coedge $-1 $238 $214 $216 $275 forward $272 $-1 #
coedge $-1 $214 $238 $295 $310 reversed $272 $-1 #
loop $-1 $-1 $214 $251 #
vertex $-1 $269 $311 #
straight-curve $-1 2.34375 -1 0.125 0 0 1 I I #
edge $-1 $217 -2.2204460492503131e-016 $240 0.99999999999999978 $216 $312 forward 7 unknown #
point $-1 2.34375 -1 0.125 #
coedge $-1 $219 $232 $305 $313 forward $114 $-1 #
point $-1 2.1875 -1 0.5 #
vertex $-1 $222 $314 #
straight-curve $-1 0.4375 -1 0.5 -0.84117847537655355 0.54075759131349854 0 I I #
edge $-1 $308 0 $282 0.125 $224 $315 forward 7 unknown #
vertex $-1 $226 $316 #
straight-curve $-1 2.265625 -1 0.375 -1 0 0 I I #
point $-1 2.1875 -1 0.375 #
plane-surface $-1 0 0 0 -1 0 0 0 -1 0 forward_v I I I I #
straight-curve $-1 2.1875 0 0.375 0 0 1 I I #
point $-1 2.1875 0 0.5 #
vertex $-1 $313 $317 #
straight-curve $-1 0 -0.28125 0.5 0.84117847537655355 0.54075759131349865 0 I I #
plane-surface $-1 0 -0.28125 -0.050000000000000044 0.54075759131349876 -0.84117847537655366 0 0.84117847537655355 0.54075759131349865 0 forward_v I I I I #
vertex $-1 $239 $318 #
straight-curve $-1 2.34375 0 0.125 0 0 1 I I #
point $-1 2.34375 0 0.125 #
coedge $-1 $268 $242 $247 $298 reversed $252 $-1 #
coedge $-1 $242 $268 $271 $310 forward $252 $-1 #
straight-curve $-1 2.34375 0 0.25 -1 0 0 I I #
straight-curve $-1 2.2656249999999996 0 0.375 -1 0 0 I I #
edge $-1 $308 -2.2204460492503131e-016 $248 0.99999999999999978 $294 $319 forward 7 unknown #
point $-1 2.265625 0 0.25 #
point $-1 2.2656249999999996 0 0.375 #
plane-surface $-1 2.34375 -1.0999999999999999 0.125 -1 0 0 0 0 1 forward_v I I I I #
plane-surface $-1 2.421875 -1.0999999999999999 0.125 0 0 -1 -1 0 0 forward_v I I I I #
straight-curve $-1 2.265625 -0.99999999999999978 0.375 0 1 0 I I #
point $-1 2.1875 0 0.375 #
coedge $-1 $261 $260 $277 $313 reversed $262 $-1 #
straight-curve $-1 -1.1102230246251565e-016 -0.71875 0.25 0 0 1 I I #
straight-curve $-1 0 -0.28125 0.25 0 0 1 I I #
vertex $-1 $281 $320 #
straight-curve $-1 2.34375 -1 0.25 -1 0 0 I I #
edge $-1 $273 0 $291 0.99999999999999978 $271 $321 forward 7 unknown #
point $-1 2.34375 -0.99999999999999978 0.25 #
straight-curve $-1 2.34375 -0.99999999999999978 0.125 0 1 0 I I #
edge $-1 $288 0 $279 0.4375 $277 $322 forward 7 unknown #
point $-1 0 -0.71875 0.5 #
straight-curve $-1 2.265625 -1 0.25 0 0 1 I I #
point $-1 2.265625 -1 0.375 #
point $-1 0 -0.28125 0.5 #
point $-1 2.34375 0 0.25 #
straight-curve $-1 2.265625 -0.99999999999999978 0.25 0 1 0 I I #
point $-1 2.265625 -1 0.25 #
straight-curve $-1 2.34375 -0.99999999999999978 0.25 0 1 0 I I #
straight-curve $-1 0 -0.28125 0.5 0 -1 0 I I #
End-of-ACIS-data 