700 0 2 0           
24 FBMach with ACIS - 7.0.3 13 ACIS 7.0.3 NT 24 Tue May 14 15:34:44 2002 
1 9.9999999999999995e-007 1e-010 
body $2 -1 $-1 $3 $-1 $4 #
bdycol-kcp $-1 -1 1 2 $5 $6 #
model_id-kcp-attrib $-1 -1 $-1 $-1 $0 1 1021404884 1021404884 -1022820351 1 #
lump $-1 -1 $-1 $-1 $7 $0 #
transform $-1 -1 1 0 0 0 1 0 0 0 1 0 0 -7.1054273576010019e-015 1 rotate no_reflect no_shear #
body $8 -1 $-1 $9 $-1 $10 #
body $11 -1 $-1 $12 $-1 $13 #
shell $-1 -1 $-1 $-1 $-1 $14 $-1 $3 #
model_id-kcp-attrib $-1 -1 $-1 $-1 $5 1 1021404884 1021404884 -1022820350 1 #
lump $-1 -1 $-1 $-1 $15 $5 #
transform $-1 -1 1 0 0 0 1 0 0 0 1 17.144999999999996 0 0.038099999999992917 1 no_rotate no_reflect no_shear #
rgb_color-st-attrib $-1 -1 $16 $-1 $6 0.5 1 1 #
lump $-1 -1 $-1 $-1 $17 $6 #
transform $-1 -1 1 0 0 0 1 0 0 0 1 17.144999999999996 0 0.038099999999992917 1 no_rotate no_reflect no_shear #
face $18 -1 $-1 $19 $20 $7 $-1 $21 reversed single #
shell $-1 -1 $-1 $-1 $-1 $22 $-1 $9 #
model_id-kcp-attrib $-1 -1 $-1 $11 $6 1 1021404884 1021404884 -1016266749 1 #
shell $-1 -1 $-1 $-1 $-1 $23 $-1 $12 #
model_id-kcp-attrib $-1 -1 $-1 $-1 $14 1 1021404884 1021404884 -1022820351 2 #
face $24 -1 $-1 $25 $26 $7 $-1 $27 forward single #
loop $-1 -1 $-1 $-1 $28 $14 #
plane-surface $-1 -1 $-1 0 0 0 1 0 0 0 -25.399999999999999 0 forward_v I I I I #
face $-1 -1 $-1 $29 $30 $15 $-1 $31 forward single #
face $-1 -1 $-1 $32 $33 $17 $-1 $34 reversed single #
model_id-kcp-attrib $-1 -1 $-1 $-1 $19 1 1021404884 1021404884 -1022820351 3 #
face $35 -1 $-1 $36 $37 $7 $-1 $38 forward single #
loop $-1 -1 $-1 $-1 $39 $19 #
plane-surface $-1 -1 $-1 0 42.798985008308257 39.700199999999995 0 0.00059140712682200826 0.99999982511878993 0 -25.399995558017263 0.01502174102127901 forward_v I I I I #
coedge $-1 -1 $-1 $40 $41 $42 $43 reversed $20 $-1 #
face $-1 -1 $-1 $44 $45 $15 $-1 $46 reversed single #
loop $-1 -1 $-1 $-1 $47 $22 #
plane-surface $-1 -1 $-1 0 0 39.712798375946818 0 0 1 1 0 0 forward_v I I I I #
face $-1 -1 $-1 $48 $49 $17 $-1 $50 reversed single #
loop $-1 -1 $-1 $-1 $51 $23 #
plane-surface $-1 -1 $-1 -17.144999999999996 42.925999999999981 -39.712798375946818 0 0.99999871969696785 0.0016001888717069306 -1 0 0 forward_v I I I I #
model_id-kcp-attrib $-1 -1 $-1 $-1 $25 1 1021404884 1021404884 -1022820351 4 #
face $52 -1 $-1 $53 $54 $7 $-1 $55 forward single #
loop $-1 -1 $-1 $-1 $56 $25 #
plane-surface $-1 -1 $-1 0 -42.925999999999995 39.750898375946811 0 -0.99999871969696785 -0.0016001888717069334 0 0.040644797341356106 -25.399967480302983 forward_v I I I I #
coedge $-1 -1 $-1 $57 $42 $58 $59 forward $26 $-1 #
coedge $-1 -1 $-1 $60 $28 $61 $62 reversed $20 $-1 #
coedge $-1 -1 $-1 $28 $60 $63 $64 reversed $20 $-1 #
coedge $-1 -1 $-1 $39 $65 $28 $43 forward $26 $-1 #
edge $66 -1 $-1 $67 0 $68 3.3749999999999996 $28 $69 forward @7 unknown #
face $-1 -1 $-1 $70 $71 $15 $-1 $72 reversed single #
loop $-1 -1 $-1 $-1 $73 $29 #
plane-surface $-1 -1 $-1 0 0 -39.712798375946818 0 0 1 1 0 0 forward_v I I I I #
coedge $-1 -1 $-1 $74 $75 $76 $77 forward $30 $-1 #
face $-1 -1 $-1 $78 $79 $17 $-1 $80 reversed single #
loop $-1 -1 $-1 $-1 $81 $32 #
plane-surface $-1 -1 $-1 -17.144999999999996 -42.925999999999995 39.712798375946818 0 -0.99999871969696785 -0.0016001888717069306 1 0 0 forward_v I I I I #
coedge $-1 -1 $-1 $82 $83 $84 $85 reversed $33 $-1 #
model_id-kcp-attrib $-1 -1 $-1 $-1 $36 1 1021404884 1021404884 -1022820351 5 #
face $86 -1 $-1 $87 $88 $7 $-1 $89 forward single #
loop $-1 -1 $-1 $-1 $90 $36 #
plane-surface $-1 -1 $-1 0 -42.798985008308257 -39.624000000000002 0 -0.00059140712682207407 -0.99999982511878993 0 25.399995558017263 -0.01502174102128068 forward_v I I I I #
coedge $-1 -1 $-1 $91 $63 $92 $93 forward $37 $-1 #
coedge $-1 -1 $-1 $65 $39 $94 $95 reversed $26 $-1 #
coedge $-1 -1 $-1 $63 $91 $39 $59 reversed $37 $-1 #
edge $96 -1 $-1 $68 0 $97 1.3499999999999999 $58 $98 forward @7 unknown #
coedge $-1 -1 $-1 $41 $40 $99 $100 reversed $20 $-1 #
coedge $-1 -1 $-1 $101 $102 $40 $62 forward $88 $-1 #
edge $103 -1 $-1 $104 0 $67 3.1249999999999991 $40 $105 forward @7 unknown #
coedge $-1 -1 $-1 $56 $58 $41 $64 forward $37 $-1 #
edge $106 -1 $-1 $68 0 $107 3.1249999999999991 $41 $108 forward @7 unknown #
coedge $-1 -1 $-1 $42 $57 $101 $109 reversed $26 $-1 #
attrib_edge_convexity-kcp-attrib $-1 -1 $110 $-1 $43 1 #
vertex $-1 -1 $-1 $62 $111 #
vertex $-1 -1 $-1 $64 $112 #
straight-curve $-1 -1 $-1 0 42.798985008308257 39.700199999999995 0 -25.39999555801726 0.015021741021279006 I I #
face $113 -1 $-1 $114 $115 $15 $-1 $116 reversed single #
loop $-1 -1 $-1 $-1 $117 $44 #
plane-surface $-1 -1 $-1 0 -42.926000000000009 0 0 1 0 0 0 1 forward_v I I I I #
coedge $-1 -1 $-1 $118 $119 $120 $121 forward $45 $-1 #
coedge $-1 -1 $-1 $122 $47 $123 $124 forward $30 $-1 #
coedge $-1 -1 $-1 $47 $122 $125 $126 forward $30 $-1 #
coedge $-1 -1 $-1 $127 $128 $47 $77 reversed $129 $-1 #
edge $-1 -1 $-1 $130 -42.926000000000009 $131 42.926000000000009 $76 $132 forward @7 unknown #
face $-1 -1 $-1 $133 $134 $17 $-1 $135 reversed single #
loop $-1 -1 $-1 $-1 $136 $48 #
plane-surface $-1 -1 $-1 -17.144999999999996 42.798985008308257 39.662099999999988 0 0.000591407126821996 0.99999982511878993 1 0 0 forward_v I I I I #
coedge $-1 -1 $-1 $137 $138 $139 $140 reversed $49 $-1 #
coedge $-1 -1 $-1 $141 $51 $142 $143 forward $33 $-1 #
coedge $-1 -1 $-1 $51 $141 $144 $145 reversed $33 $-1 #
coedge $-1 -1 $-1 $146 $147 $51 $85 forward $148 $-1 #
edge $-1 -1 $-1 $149 -19.890718619518765 $150 59.484281380481221 $84 $151 forward @7 unknown #
model_id-kcp-attrib $-1 -1 $-1 $-1 $53 1 1021404884 1021404884 -1022820351 6 #
face $152 -1 $-1 $-1 $153 $7 $-1 $154 forward single #
loop $-1 -1 $-1 $-1 $101 $53 #
plane-surface $-1 -1 $-1 0 42.925999999999995 -39.674698375946818 0 0.99999871969696785 0.0016001888717069334 0 -0.040644797341356106 25.399967480302983 forward_v I I I I #
coedge $-1 -1 $-1 $155 $99 $102 $156 forward $54 $-1 #
coedge $-1 -1 $-1 $58 $56 $157 $158 reversed $37 $-1 #
coedge $-1 -1 $-1 $99 $155 $56 $93 reversed $54 $-1 #
edge $159 -1 $-1 $107 0 $160 1.3499999999999999 $56 $161 forward @7 unknown #
coedge $-1 -1 $-1 $157 $162 $57 $95 forward $153 $-1 #
edge $163 -1 $-1 $164 0 $97 3.3749999999999996 $94 $165 forward @7 unknown #
attrib_edge_convexity-kcp-attrib $-1 -1 $166 $-1 $59 1 #
vertex $-1 -1 $-1 $158 $167 #
straight-curve $-1 -1 $-1 0 -42.926000000000009 39.750898375946811 25.399999999999999 0 0 I I #
coedge $-1 -1 $-1 $90 $92 $60 $100 forward $54 $-1 #
edge $168 -1 $-1 $107 0 $104 3.3749999999999996 $60 $169 forward @7 unknown #
coedge $-1 -1 $-1 $170 $61 $65 $109 forward $88 $-1 #
coedge $-1 -1 $-1 $61 $170 $90 $156 reversed $88 $-1 #
attrib_edge_convexity-kcp-attrib $-1 -1 $171 $-1 $62 1 #
vertex $-1 -1 $-1 $100 $172 #
straight-curve $-1 -1 $-1 0 42.925999999999995 -39.674698375946818 0 -0.040644797341356106 25.399967480302983 I I #
attrib_edge_convexity-kcp-attrib $-1 -1 $173 $-1 $64 1 #
vertex $-1 -1 $-1 $64 $174 #
straight-curve $-1 -1 $-1 0 -42.925999999999995 39.750898375946811 0 0.040644797341356106 -25.399967480302983 I I #
edge $175 -1 $-1 $67 0 $164 1.3499999999999999 $101 $176 forward @7 unknown #
convexity-sys-attrib $-1 -1 $-1 $66 $43 #
point $-1 -1 $-1 0 42.798985008308257 39.700199999999995 #
point $-1 -1 $-1 0 -42.925999999999995 39.750898375946811 #
model_id-kcp-attrib $-1 -1 $-1 $-1 $70 1 1021404884 1021404884 -1022820350 2 #
face $-1 -1 $-1 $177 $178 $15 $-1 $179 reversed single #
loop $-1 -1 $-1 $-1 $180 $70 #
plane-surface $-1 -1 $-1 -17.144999999999996 0 0 1 0 0 0 0 -1 forward_v I I I I #
coedge $-1 -1 $-1 $181 $125 $182 $183 forward $71 $-1 #
coedge $-1 -1 $-1 $184 $73 $181 $185 forward $45 $-1 #
coedge $-1 -1 $-1 $73 $184 $186 $187 forward $45 $-1 #
coedge $-1 -1 $-1 $128 $127 $73 $121 reversed $129 $-1 #
edge $-1 -1 $-1 $188 -42.926000000000009 $189 42.926000000000009 $120 $190 forward @7 unknown #
coedge $-1 -1 $-1 $75 $74 $191 $192 forward $30 $-1 #
coedge $-1 -1 $-1 $193 $194 $74 $124 reversed $178 $-1 #
edge $-1 -1 $-1 $131 -17.144999999999996 $195 17.144999999999996 $123 $196 forward @7 unknown #
coedge $-1 -1 $-1 $117 $197 $75 $126 reversed $71 $-1 #
edge $-1 -1 $-1 $198 -17.144999999999996 $130 17.144999999999996 $125 $199 forward @7 unknown #
coedge $-1 -1 $-1 $120 $76 $197 $200 forward $129 $-1 #
coedge $-1 -1 $-1 $76 $120 $193 $201 reversed $129 $-1 #
loop $-1 -1 $-1 $-1 $127 $177 #
vertex $-1 -1 $-1 $77 $202 #
vertex $-1 -1 $-1 $77 $203 #
straight-curve $-1 -1 $-1 17.144999999999996 0 39.712798375946818 0 1 0 I I #
face $-1 -1 $-1 $204 $205 $17 $-1 $206 reversed single #
loop $-1 -1 $-1 $-1 $207 $78 #
plane-surface $-1 -1 $-1 -17.144999999999996 -42.798985008308257 -39.662099999999981 0 -0.00059140712682207895 -0.99999982511878993 -1 0 0 forward_v I I I I #
coedge $-1 -1 $-1 $144 $208 $146 $209 reversed $79 $-1 #
coedge $-1 -1 $-1 $210 $81 $211 $212 reversed $49 $-1 #
coedge $-1 -1 $-1 $81 $210 $208 $213 forward $49 $-1 #
coedge $-1 -1 $-1 $214 $215 $81 $140 forward $216 $-1 #
edge $-1 -1 $-1 $217 -59.484281380481221 $218 19.890718619518765 $139 $219 forward @7 unknown #
coedge $-1 -1 $-1 $83 $82 $220 $221 reversed $33 $-1 #
coedge $-1 -1 $-1 $207 $222 $223 $143 reversed $134 $-1 #
edge $-1 -1 $-1 $149 -17.144999999999996 $224 17.144999999999996 $225 $226 forward @7 unknown #
coedge $-1 -1 $-1 $227 $136 $83 $145 forward $79 $-1 #
edge $-1 -1 $-1 $150 0 $228 34.289999999999992 $83 $229 forward @7 unknown #
coedge $-1 -1 $-1 $230 $84 $136 $209 forward $148 $-1 #
coedge $-1 -1 $-1 $84 $230 $231 $232 forward $148 $-1 #
loop $-1 -1 $-1 $-1 $84 $204 #
vertex $-1 -1 $-1 $143 $233 #
vertex $-1 -1 $-1 $85 $234 #
straight-curve $-1 -1 $-1 -17.144999999999996 42.894171093414769 -19.822105222575413 0 -0.0016001888717069306 0.99999871969696785 I I #
model_id-kcp-attrib $-1 -1 $-1 $-1 $87 1 1021404884 1021404884 -1022820351 7 #
loop $-1 -1 $-1 $-1 $235 $87 #
plane-surface $-1 -1 $-1 34.289999999999992 0 0 1 0 0 0 0 -25.399999999999999 forward_v I I I I #
coedge $-1 -1 $-1 $92 $90 $235 $236 reversed $54 $-1 #
edge $-1 -1 $-1 $104 0 $237 1.3499999999999999 $90 $238 forward @7 unknown #
coedge $-1 -1 $-1 $235 $94 $91 $158 forward $153 $-1 #
edge $239 -1 $-1 $97 0 $160 3.1249999999999991 $157 $240 forward @7 unknown #
attrib_edge_convexity-kcp-attrib $-1 -1 $241 $-1 $93 1 #
vertex $-1 -1 $-1 $158 $242 #
straight-curve $-1 -1 $-1 0 -42.798985008308257 -39.624000000000002 25.399999999999999 0 0 I I #
coedge $-1 -1 $-1 $94 $235 $170 $243 forward $153 $-1 #
attrib_edge_convexity-kcp-attrib $-1 -1 $244 $-1 $95 1 #
vertex $-1 -1 $-1 $95 $245 #
straight-curve $-1 -1 $-1 34.289999999999992 42.798985008308257 39.700199999999995 0 -25.39999555801726 0.015021741021279006 I I #
convexity-sys-attrib $-1 -1 $-1 $96 $59 #
point $-1 -1 $-1 34.289999999999992 -42.925999999999995 39.750898375946811 #
attrib_edge_convexity-kcp-attrib $-1 -1 $246 $-1 $100 1 #
straight-curve $-1 -1 $-1 0 -42.798985008308257 -39.624000000000002 0 25.39999555801726 -0.015021741021280679 I I #
coedge $-1 -1 $-1 $102 $101 $162 $243 reversed $88 $-1 #
convexity-sys-attrib $-1 -1 $-1 $103 $62 #
point $-1 -1 $-1 0 42.925999999999995 -39.674698375946818 #
convexity-sys-attrib $-1 -1 $-1 $106 $64 #
point $-1 -1 $-1 0 -42.798985008308257 -39.624000000000002 #
attrib_edge_convexity-kcp-attrib $-1 -1 $247 $-1 $109 1 #
straight-curve $-1 -1 $-1 0 42.798985008308257 39.700199999999995 25.399999999999999 0 0 I I #
face $248 -1 $-1 $-1 $129 $15 $-1 $249 reversed single #
loop $-1 -1 $-1 $-1 $193 $114 #
plane-surface $-1 -1 $-1 0 42.926000000000009 0 0 -1 0 0 0 -1 forward_v I I I I #
coedge $-1 -1 $-1 $250 $191 $194 $251 forward $115 $-1 #
coedge $-1 -1 $-1 $197 $117 $118 $185 reversed $71 $-1 #
coedge $-1 -1 $-1 $191 $250 $117 $183 reversed $115 $-1 #
edge $-1 -1 $-1 $198 -39.712798375946818 $252 39.712798375946818 $182 $253 forward @7 unknown #
coedge $-1 -1 $-1 $119 $118 $250 $254 forward $45 $-1 #
edge $-1 -1 $-1 $189 -17.144999999999996 $252 17.144999999999996 $181 $255 forward @7 unknown #
coedge $-1 -1 $-1 $194 $193 $119 $187 reversed $178 $-1 #
edge $-1 -1 $-1 $256 -17.144999999999996 $188 17.144999999999996 $186 $257 forward @7 unknown #
vertex $-1 -1 $-1 $121 $258 #
vertex $-1 -1 $-1 $200 $259 #
straight-curve $-1 -1 $-1 17.144999999999996 0 -39.712798375946818 0 -1 0 I I #
coedge $-1 -1 $-1 $180 $182 $122 $192 reversed $115 $-1 #
edge $-1 -1 $-1 $195 -42.926000000000009 $198 42.926000000000009 $191 $260 forward @7 unknown #
coedge $-1 -1 $-1 $186 $123 $128 $201 forward $178 $-1 #
coedge $-1 -1 $-1 $123 $186 $180 $251 reversed $178 $-1 #
vertex $-1 -1 $-1 $124 $261 #
straight-curve $-1 -1 $-1 0 42.926000000000009 39.712798375946818 -1 0 0 I I #
coedge $-1 -1 $-1 $125 $181 $127 $200 reversed $71 $-1 #
vertex $-1 -1 $-1 $192 $262 #
straight-curve $-1 -1 $-1 0 -42.926000000000009 39.712798375946818 1 0 0 I I #
edge $-1 -1 $-1 $130 -39.712798375946818 $189 39.712798375946818 $127 $263 forward @7 unknown #
edge $-1 -1 $-1 $131 -39.712798375946818 $188 39.712798375946818 $128 $264 forward @7 unknown #
point $-1 -1 $-1 17.144999999999996 -42.926000000000009 39.712798375946818 #
point $-1 -1 $-1 17.144999999999996 42.926000000000009 39.712798375946818 #
face $-1 -1 $-1 $265 $148 $17 $-1 $206 reversed single #
loop $-1 -1 $-1 $-1 $266 $133 #
plane-surface $-1 -1 $-1 -17.144999999999996 0 0 1 0 0 0 0 -1 forward_v I I I I #
coedge $-1 -1 $-1 $211 $142 $266 $267 reversed $134 $-1 #
coedge $-1 -1 $-1 $136 $227 $268 $213 reversed $79 $-1 #
edge $-1 -1 $-1 $150 -21.38776053748262 $269 64.337239462517388 $146 $270 forward @7 unknown #
coedge $-1 -1 $-1 $138 $137 $271 $272 reversed $49 $-1 #
coedge $-1 -1 $-1 $222 $207 $137 $212 forward $134 $-1 #
edge $-1 -1 $-1 $273 0 $217 34.289999999999992 $137 $274 forward @7 unknown #
edge $-1 -1 $-1 $269 -17.144999999999996 $218 17.144999999999996 $275 $276 forward @7 unknown #
coedge $-1 -1 $-1 $277 $139 $278 $279 forward $216 $-1 #
coedge $-1 -1 $-1 $139 $277 $222 $280 forward $216 $-1 #
loop $-1 -1 $-1 $-1 $215 $281 #
vertex $-1 -1 $-1 $280 $282 #
vertex $-1 -1 $-1 $283 $284 #
straight-curve $-1 -1 $-1 17.144999999999996 -42.894171093414784 19.822105222575413 0 -0.0016001888717069306 0.99999871969696785 I I #
coedge $-1 -1 $-1 $285 $286 $141 $221 forward $287 $-1 #
edge $-1 -1 $-1 $228 -59.484281380481221 $224 19.890718619518765 $220 $288 forward @7 unknown #
coedge $-1 -1 $-1 $142 $211 $215 $280 reversed $134 $-1 #
coedge $-1 -1 $-1 $289 $290 $225 $143 forward $291 $-1 #
vertex $-1 -1 $-1 $292 $293 #
coedge $-1 -1 $-1 $231 $294 $82 $143 reversed $295 $-1 #
straight-curve $-1 -1 $-1 0 42.926000000000009 -39.712798375946818 1 0 0 I I #
coedge $-1 -1 $-1 $208 $144 $286 $296 reversed $79 $-1 #
vertex $-1 -1 $-1 $221 $297 #
straight-curve $-1 -1 $-1 -17.144999999999996 42.798985008308257 39.662099999999988 1 0 0 I I #
coedge $-1 -1 $-1 $147 $146 $298 $299 reversed $148 $-1 #
coedge $-1 -1 $-1 $300 $225 $147 $232 reversed $295 $-1 #
edge $-1 -1 $-1 $301 -39.712798375946818 $149 39.712798375946818 $231 $302 forward @7 unknown #
point $-1 -1 $-1 -17.144999999999996 42.926000000000009 -39.712798375946818 #
point $-1 -1 $-1 -17.144999999999996 42.798985008308257 39.662099999999988 #
coedge $-1 -1 $-1 $162 $157 $155 $236 forward $153 $-1 #
edge $-1 -1 $-1 $160 0 $237 3.3749999999999996 $235 $303 forward @7 unknown #
vertex $-1 -1 $-1 $243 $304 #
straight-curve $-1 -1 $-1 0 42.926000000000009 -39.674698375946818 25.399999999999999 0 0 I I #
attrib_edge_convexity-kcp-attrib $-1 -1 $305 $-1 $158 1 #
straight-curve $-1 -1 $-1 34.289999999999992 -42.925999999999995 39.750898375946811 0 0.040644797341356106 -25.399967480302983 I I #
convexity-sys-attrib $-1 -1 $-1 $159 $93 #
point $-1 -1 $-1 34.289999999999992 -42.798985008308257 -39.624000000000002 #
edge $-1 -1 $-1 $237 0 $164 3.1249999999999991 $162 $306 forward @7 unknown #
convexity-sys-attrib $-1 -1 $-1 $163 $95 #
point $-1 -1 $-1 34.289999999999992 42.798985008308257 39.700199999999995 #
convexity-sys-attrib $-1 -1 $-1 $168 $100 #
convexity-sys-attrib $-1 -1 $-1 $175 $109 #
model_id-kcp-attrib $-1 -1 $-1 $-1 $177 1 1021404884 1021404884 -1022820350 3 #
plane-surface $-1 -1 $-1 17.144999999999996 0 0 -1 0 0 0 0 1 forward_v I I I I #
coedge $-1 -1 $-1 $182 $180 $184 $254 reversed $115 $-1 #
edge $-1 -1 $-1 $195 -39.712798375946818 $256 39.712798375946818 $194 $307 forward @7 unknown #
vertex $-1 -1 $-1 $254 $308 #
straight-curve $-1 -1 $-1 -17.144999999999996 -42.926000000000009 0 0 0 -1 I I #
edge $-1 -1 $-1 $252 -42.926000000000009 $256 42.926000000000009 $250 $309 forward @7 unknown #
straight-curve $-1 -1 $-1 0 -42.926000000000009 -39.712798375946818 -1 0 0 I I #
vertex $-1 -1 $-1 $187 $310 #
straight-curve $-1 -1 $-1 0 42.926000000000009 -39.712798375946818 1 0 0 I I #
point $-1 -1 $-1 17.144999999999996 42.926000000000009 -39.712798375946818 #
point $-1 -1 $-1 17.144999999999996 -42.926000000000009 -39.712798375946818 #
straight-curve $-1 -1 $-1 -17.144999999999996 0 39.712798375946818 0 -1 0 I I #
point $-1 -1 $-1 -17.144999999999996 42.926000000000009 39.712798375946818 #
point $-1 -1 $-1 -17.144999999999996 -42.926000000000009 39.712798375946818 #
straight-curve $-1 -1 $-1 17.144999999999996 -42.926000000000009 0 0 0 -1 I I #
straight-curve $-1 -1 $-1 17.144999999999996 42.926000000000009 0 0 0 -1 I I #
face $-1 -1 $-1 $281 $287 $17 $-1 $311 reversed single #
coedge $-1 -1 $-1 $312 $271 $207 $267 forward $205 $-1 #
edge $-1 -1 $-1 $273 -21.38776053748262 $149 64.337239462517388 $266 $313 forward @7 unknown #
coedge $-1 -1 $-1 $314 $298 $275 $213 forward $315 $-1 #
vertex $-1 -1 $-1 $299 $316 #
straight-curve $-1 -1 $-1 -17.144999999999996 21.411228211143083 39.674748874008621 0 -0.99999982511878993 0.000591407126821996 I I #
coedge $-1 -1 $-1 $266 $317 $210 $272 forward $205 $-1 #
edge $-1 -1 $-1 $269 -19.890718619518765 $273 59.484281380481221 $271 $318 forward @7 unknown #
vertex $-1 -1 $-1 $267 $319 #
straight-curve $-1 -1 $-1 -17.144999999999996 -42.798985008308257 -39.662099999999981 1 0 0 I I #
coedge $-1 -1 $-1 $320 $278 $138 $213 reversed $321 $-1 #
straight-curve $-1 -1 $-1 0 -42.926000000000009 39.712798375946818 1 0 0 I I #
coedge $-1 -1 $-1 $215 $214 $289 $292 reversed $216 $-1 #
coedge $-1 -1 $-1 $275 $322 $214 $279 reversed $321 $-1 #
edge $-1 -1 $-1 $218 -39.712798375946818 $323 39.712798375946818 $214 $324 forward @7 unknown #
edge $-1 -1 $-1 $224 -64.337239462517388 $217 21.38776053748262 $215 $325 forward @7 unknown #
face $-1 -1 $-1 $326 $216 $17 $-1 $311 reversed single #
point $-1 -1 $-1 17.144999999999996 -42.798985008308257 -39.662099999999981 #
edge $-1 -1 $-1 $218 -42.926000000000009 $327 42.926000000000009 $328 $329 forward @7 unknown #
point $-1 -1 $-1 17.144999999999996 -42.926000000000009 39.712798375946818 #
coedge $-1 -1 $-1 $328 $220 $294 $330 reversed $287 $-1 #
coedge $-1 -1 $-1 $220 $328 $227 $296 forward $287 $-1 #
loop $-1 -1 $-1 $-1 $220 $265 #
straight-curve $-1 -1 $-1 17.144999999999996 42.894171093414769 -19.822105222575413 0 0.0016001888717069306 -0.99999871969696785 I I #
coedge $-1 -1 $-1 $331 $223 $277 $292 forward $291 $-1 #
coedge $-1 -1 $-1 $223 $331 $312 $332 forward $291 $-1 #
loop $-1 -1 $-1 $-1 $289 $333 #
edge $-1 -1 $-1 $224 -42.926000000000009 $323 42.926000000000009 $277 $334 forward @7 unknown #
point $-1 -1 $-1 17.144999999999996 42.926000000000009 -39.712798375946818 #
coedge $-1 -1 $-1 $225 $300 $285 $330 forward $295 $-1 #
loop $-1 -1 $-1 $-1 $294 $335 #
edge $-1 -1 $-1 $218 -64.337239462517388 $228 21.38776053748262 $286 $336 forward @7 unknown #
point $-1 -1 $-1 17.144999999999996 42.798985008308257 39.662099999999988 #
coedge $-1 -1 $-1 $268 $337 $230 $299 forward $315 $-1 #
edge $-1 -1 $-1 $301 -42.926000000000009 $269 42.926000000000009 $230 $338 forward @7 unknown #
coedge $-1 -1 $-1 $294 $231 $337 $339 reversed $295 $-1 #
vertex $-1 -1 $-1 $339 $340 #
straight-curve $-1 -1 $-1 -17.144999999999996 42.926000000000009 0 0 0 -1 I I #
straight-curve $-1 -1 $-1 34.289999999999992 -42.798985008308257 -39.624000000000002 0 25.39999555801726 -0.015021741021280679 I I #
point $-1 -1 $-1 34.289999999999992 42.925999999999995 -39.674698375946818 #
convexity-sys-attrib $-1 -1 $-1 $239 $158 #
straight-curve $-1 -1 $-1 34.289999999999992 42.925999999999995 -39.674698375946818 0 -0.040644797341356106 25.399967480302983 I I #
straight-curve $-1 -1 $-1 -17.144999999999996 42.926000000000009 0 0 0 -1 I I #
point $-1 -1 $-1 -17.144999999999996 -42.926000000000009 -39.712798375946818 #
straight-curve $-1 -1 $-1 -17.144999999999996 0 -39.712798375946818 0 1 0 I I #
point $-1 -1 $-1 -17.144999999999996 42.926000000000009 -39.712798375946818 #
plane-surface $-1 -1 $-1 17.144999999999996 0 0 -1 0 0 0 0 1 forward_v I I I I #
coedge $-1 -1 $-1 $317 $266 $290 $332 reversed $205 $-1 #
straight-curve $-1 -1 $-1 -17.144999999999996 -21.411228211143083 -39.674748874008614 0 0.99999982511878993 -0.00059140712682207895 I I #
coedge $-1 -1 $-1 $337 $268 $328 $283 forward $315 $-1 #
loop $-1 -1 $-1 $-1 $314 $326 #
point $-1 -1 $-1 -17.144999999999996 -42.926000000000009 39.712798375946818 #
coedge $-1 -1 $-1 $271 $312 $320 $341 reversed $205 $-1 #
straight-curve $-1 -1 $-1 -17.144999999999996 -42.894171093414784 19.822105222575413 0 0.0016001888717069306 -0.99999871969696785 I I #
point $-1 -1 $-1 -17.144999999999996 -42.798985008308257 -39.662099999999981 #
coedge $-1 -1 $-1 $322 $275 $317 $341 forward $321 $-1 #
loop $-1 -1 $-1 $-1 $320 $342 #
coedge $-1 -1 $-1 $278 $320 $331 $343 reversed $321 $-1 #
vertex $-1 -1 $-1 $279 $344 #
straight-curve $-1 -1 $-1 17.144999999999996 -42.926000000000009 0 0 0 -1 I I #
straight-curve $-1 -1 $-1 17.144999999999996 -21.411228211143083 -39.674748874008614 0 -0.99999982511878993 0.00059140712682207895 I I #
face $-1 -1 $-1 $333 $315 $17 $-1 $345 forward single #
vertex $-1 -1 $-1 $283 $346 #
coedge $-1 -1 $-1 $286 $285 $314 $283 reversed $287 $-1 #
straight-curve $-1 -1 $-1 17.144999999999996 0 39.712798375946818 0 1 0 I I #
edge $-1 -1 $-1 $327 -39.712798375946818 $224 39.712798375946818 $285 $347 forward @7 unknown #
coedge $-1 -1 $-1 $290 $289 $322 $343 forward $291 $-1 #
edge $-1 -1 $-1 $348 -42.926000000000009 $149 42.926000000000009 $312 $349 forward @7 unknown #
face $-1 -1 $-1 $342 $291 $17 $-1 $350 reversed single #
straight-curve $-1 -1 $-1 17.144999999999996 0 -39.712798375946818 0 -1 0 I I #
face $-1 -1 $-1 $-1 $295 $17 $-1 $351 reversed single #
straight-curve $-1 -1 $-1 17.144999999999996 21.411228211143083 39.674748874008621 0 0.99999982511878993 -0.000591407126821996 I I #
coedge $-1 -1 $-1 $298 $314 $300 $339 forward $315 $-1 #
straight-curve $-1 -1 $-1 -17.144999999999996 0 39.712798375946818 0 -1 0 I I #
edge $-1 -1 $-1 $327 -17.144999999999996 $301 17.144999999999996 $300 $352 forward @7 unknown #
point $-1 -1 $-1 -17.144999999999996 42.926000000000009 39.712798375946818 #
edge $-1 -1 $-1 $269 -39.712798375946818 $348 39.712798375946818 $317 $353 forward @7 unknown #
face $-1 -1 $-1 $335 $321 $17 $-1 $354 reversed single #
edge $-1 -1 $-1 $323 -17.144999999999996 $348 17.144999999999996 $322 $355 forward @7 unknown #
point $-1 -1 $-1 17.144999999999996 -42.926000000000009 -39.712798375946818 #
plane-surface $-1 -1 $-1 0 0 39.712798375946818 0 0 1 1 0 0 forward_v I I I I #
point $-1 -1 $-1 17.144999999999996 42.926000000000009 39.712798375946818 #
straight-curve $-1 -1 $-1 17.144999999999996 42.926000000000009 0 0 0 -1 I I #
vertex $-1 -1 $-1 $332 $356 #
straight-curve $-1 -1 $-1 -17.144999999999996 0 -39.712798375946818 0 1 0 I I #
plane-surface $-1 -1 $-1 0 0 -39.712798375946818 0 0 1 1 0 0 forward_v I I I I #
plane-surface $-1 -1 $-1 0 42.926000000000009 0 0 -1 0 0 0 -1 forward_v I I I I #
straight-curve $-1 -1 $-1 0 42.926000000000009 39.712798375946818 -1 0 0 I I #
straight-curve $-1 -1 $-1 -17.144999999999996 -42.926000000000009 0 0 0 -1 I I #
plane-surface $-1 -1 $-1 0 -42.926000000000009 0 0 1 0 0 0 1 forward_v I I I I #
straight-curve $-1 -1 $-1 0 -42.926000000000009 -39.712798375946818 -1 0 0 I I #
point $-1 -1 $-1 -17.144999999999996 -42.926000000000009 -39.712798375946818 #
End-of-ACIS-data 