600 0 1 0           
81 GICL ACIS Healer - Source: /gicl/data5/repository/Heriot_Watt/ex41/ex41.sat - 6 0 18 ACIS 6.0.3 Solaris 24 Sat Apr 13 23:38:27 2002 
1 9.999999999999999547e-07 1.000000000000000036e-10 
body $-1 $1 $-1 $-1 #
lump $-1 $-1 $2 $0 #
shell $-1 $-1 $-1 $3 $-1 $1 #
face $-1 $4 $5 $2 $-1 $6 forward single #
face $-1 $7 $8 $2 $-1 $9 forward single #
loop $-1 $-1 $10 $3 #
plane-surface $-1 -2.5 0 35 1 0 0 0 0 -1 forward_v I I I I #
face $-1 $11 $12 $2 $-1 $13 forward single #
loop $-1 $-1 $14 $4 #
plane-surface $-1 0 0 30 0 0 1 1 0 0 forward_v I I I I #
coedge $-1 $15 $16 $17 $18 reversed $5 $-1 #
face $-1 $19 $20 $2 $-1 $21 forward single #
loop $-1 $-1 $22 $7 #
plane-surface $-1 2.5 0 35 -1 0 0 0 0 1 forward_v I I I I #
coedge $-1 $23 $24 $25 $26 reversed $8 $-1 #
coedge $-1 $27 $10 $24 $28 forward $5 $-1 #
coedge $-1 $10 $27 $29 $30 reversed $5 $-1 #
coedge $-1 $31 $25 $10 $18 forward $32 $-1 #
edge $-1 $33 20 $34 30 $17 $35 forward 7 unknown #
face $-1 $36 $37 $2 $-1 $38 forward single #
loop $-1 $-1 $29 $11 #
plane-surface $-1 0 0 40 0 0 1 1 0 0 forward_v I I I I #
coedge $-1 $39 $40 $41 $42 reversed $12 $-1 #
coedge $-1 $43 $14 $40 $44 reversed $8 $-1 #
coedge $-1 $14 $43 $15 $28 reversed $8 $-1 #
coedge $-1 $17 $41 $14 $26 forward $32 $-1 #
edge $-1 $45 1.445468495626831329 $33 1.696124157962962009 $25 $46 forward 7 unknown #
coedge $-1 $16 $15 $47 $48 reversed $5 $-1 #
edge $-1 $33 -19.84313483298442904 $49 19.84313483298442904 $15 $50 forward 7 unknown #
coedge $-1 $51 $51 $16 $30 forward $20 $-1 #
edge $-1 $34 -19.84313483298442904 $52 19.84313483298442904 $29 $53 forward 7 unknown #
coedge $-1 $47 $17 $51 $54 reversed $32 $-1 #
loop $-1 $-1 $41 $19 #
vertex $-1 $26 $55 #
vertex $-1 $54 $56 #
straight-curve $-1 -2.5 -19.84313483298442904 10 0 0 1 I I #
face $-1 $57 $58 $2 $-1 $59 reversed single #
loop $-1 $32 $60 $19 #
cone-surface $-1 0 0 10 0 0 1 20 0 0 1 I I 0 1 20 forward I I I I #
coedge $-1 $61 $22 $62 $63 reversed $12 $-1 #
coedge $-1 $22 $61 $23 $44 forward $12 $-1 #
coedge $-1 $25 $64 $22 $42 forward $32 $-1 #
edge $-1 $65 -30 $45 -20 $41 $66 forward 7 unknown #
coedge $-1 $24 $23 $67 $68 reversed $8 $-1 #
edge $-1 $69 -19.84313483298442904 $45 19.84313483298442904 $40 $70 forward 7 unknown #
vertex $-1 $26 $71 #
ellipse-curve $-1 0 0 30 0 0 -1 20 0 0 1 I I #
coedge $-1 $67 $31 $27 $48 forward $32 $-1 #
edge $-1 $52 -30 $49 -20 $47 $72 forward 7 unknown #
vertex $-1 $68 $73 #
straight-curve $-1 -2.5 0 30 0 1 0 I I #
coedge $-1 $29 $29 $31 $54 forward $20 $-1 #
vertex $-1 $48 $74 #
straight-curve $-1 -2.5 0 40 0 1 0 I I #
edge $-1 $52 1.696124157962962009 $34 4.587061149216624223 $51 $75 forward 7 unknown #
point $-1 -2.5 -19.84313483298442904 30 #
point $-1 -2.5 -19.84313483298442904 40 #
face $-1 $76 $77 $2 $-1 $78 forward single #
loop $-1 $-1 $79 $36 #
plane-surface $-1 0 -5 0 0 1 0 0 0 1 forward_v I I I I #
coedge $-1 $80 $81 $82 $83 forward $37 $-1 #
coedge $-1 $40 $39 $84 $85 reversed $12 $-1 #
coedge $-1 $86 $86 $39 $63 forward $87 $-1 #
edge $-1 $88 -19.84313483298442904 $65 19.84313483298442904 $62 $89 forward 7 unknown #
coedge $-1 $41 $84 $86 $90 reversed $32 $-1 #
vertex $-1 $63 $91 #
straight-curve $-1 2.5 -19.84313483298442904 10 0 0 -1 I I #
coedge $-1 $84 $47 $43 $68 forward $32 $-1 #
edge $-1 $49 -1.696124157962962009 $69 -1.445468495626831329 $67 $46 forward 7 unknown #
vertex $-1 $68 $92 #
straight-curve $-1 2.5 0 30 0 -1 0 I I #
point $-1 2.5 -19.84313483298442904 30 #
straight-curve $-1 -2.5 19.84313483298442904 10 0 0 -1 I I #
point $-1 -2.5 19.84313483298442904 30 #
point $-1 -2.5 19.84313483298442904 40 #
ellipse-curve $-1 0 0 40 0 0 1 20 0 0 1 I I #
face $-1 $93 $94 $2 $-1 $78 forward single #
loop $-1 $-1 $95 $57 #
plane-surface $-1 0 0 10 0 0 1 1 0 0 forward_v I I I I #
coedge $-1 $96 $97 $98 $99 reversed $58 $-1 #
coedge $-1 $100 $60 $101 $102 reversed $37 $-1 #
coedge $-1 $60 $103 $104 $105 forward $37 $-1 #
coedge $-1 $106 $107 $60 $83 reversed $108 $-1 #
edge $-1 $109 0 $110 10 $60 $111 forward 7 unknown #
coedge $-1 $64 $67 $61 $85 forward $32 $-1 #
edge $-1 $69 20 $88 30 $84 $112 forward 7 unknown #
coedge $-1 $62 $62 $64 $90 forward $87 $-1 #
loop $-1 $-1 $62 $113 #
vertex $-1 $90 $114 #
straight-curve $-1 2.5 0 40 0 -1 0 I I #
edge $-1 $65 -1.445468495626831329 $88 1.445468495626831329 $86 $75 forward 7 unknown #
point $-1 2.5 -19.84313483298442904 40 #
point $-1 2.5 19.84313483298442904 30 #
face $-1 $115 $116 $2 $-1 $117 reversed single #
loop $-1 $-1 $104 $76 #
coedge $-1 $118 $119 $120 $121 reversed $77 $-1 #
coedge $-1 $122 $79 $119 $123 reversed $58 $-1 #
coedge $-1 $79 $122 $124 $125 reversed $58 $-1 #
coedge $-1 $126 $120 $79 $99 forward $127 $-1 #
edge $-1 $128 -5 $129 5 $98 $130 forward 7 unknown #
coedge $-1 $131 $80 $132 $133 forward $37 $-1 #
coedge $-1 $134 $135 $80 $102 forward $136 $-1 #
edge $-1 $137 1.823476581936975371 $110 2.888912398447714303 $101 $138 forward 7 unknown #
coedge $-1 $81 $139 $140 $141 forward $37 $-1 #
coedge $-1 $142 $143 $81 $105 reversed $94 $-1 #
edge $-1 $144 2.888912398447714303 $109 3.394272908731871929 $81 $145 forward 7 unknown #
coedge $-1 $146 $82 $143 $147 reversed $108 $-1 #
coedge $-1 $82 $146 $134 $148 reversed $108 $-1 #
loop $-1 $-1 $82 $149 #
vertex $-1 $105 $150 #
vertex $-1 $102 $151 #
straight-curve $-1 -19.36491673103708422 -5 10 0 0 -1 I I #
straight-curve $-1 2.5 19.84313483298442904 10 0 0 1 I I #
face $-1 $152 $87 $2 $-1 $21 forward single #
point $-1 2.5 19.84313483298442904 40 #
face $-1 $149 $153 $2 $-1 $117 reversed single #
loop $-1 $-1 $154 $93 #
plane-surface $-1 0 5 0 0 -1 0 0 0 -1 forward_v I I I I #
coedge $-1 $155 $95 $156 $157 forward $77 $-1 #
coedge $-1 $95 $155 $96 $123 forward $77 $-1 #
coedge $-1 $98 $158 $95 $121 forward $127 $-1 #
edge $-1 $159 -5 $128 5 $120 $160 forward 7 unknown #
coedge $-1 $97 $96 $161 $162 reversed $58 $-1 #
edge $-1 $163 19.36491673103708422 $128 30 $96 $164 forward 7 unknown #
coedge $-1 $165 $166 $97 $125 forward $167 $-1 #
edge $-1 $129 -30 $168 -19.36491673103708422 $124 $169 forward 7 unknown #
coedge $-1 $170 $98 $166 $171 forward $127 $-1 #
loop $-1 $-1 $98 $152 #
vertex $-1 $121 $172 #
vertex $-1 $99 $173 #
straight-curve $-1 30 -5 5 0 0 -1 I I #
coedge $-1 $174 $100 $175 $176 forward $37 $-1 #
coedge $-1 $177 $178 $100 $133 reversed $179 $-1 #
edge $-1 $137 -10 $180 10 $100 $181 forward 7 unknown #
coedge $-1 $182 $101 $107 $148 forward $136 $-1 #
coedge $-1 $101 $183 $177 $184 forward $136 $-1 #
loop $-1 $-1 $134 $185 #
vertex $-1 $184 $186 #
ellipse-curve $-1 0 0 0 0 0 -1 20 0 0 1 I I #
coedge $-1 $103 $187 $188 $189 reversed $37 $-1 #
coedge $-1 $190 $191 $103 $141 reversed $153 $-1 #
edge $-1 $192 -10 $144 0 $103 $193 forward 7 unknown #
coedge $-1 $194 $104 $191 $195 forward $94 $-1 #
coedge $-1 $104 $194 $106 $147 forward $94 $-1 #
vertex $-1 $105 $196 #
ellipse-curve $-1 0 0 10 0 0 1 20 0 0 1 I I #
coedge $-1 $107 $106 $197 $198 reversed $108 $-1 #
edge $-1 $199 -30 $109 -19.36491673103708422 $106 $164 forward 7 unknown #
edge $-1 $110 19.36491673103708422 $200 30 $134 $201 forward 7 unknown #
face $-1 $202 $108 $2 $-1 $59 reversed single #
point $-1 -19.36491673103708422 -5 10 #
point $-1 -19.36491673103708422 -5 0 #
face $-1 $203 $127 $2 $-1 $204 forward single #
loop $-1 $-1 $140 $115 #
coedge $-1 $205 $156 $158 $206 reversed $116 $-1 #
coedge $-1 $119 $118 $207 $208 reversed $77 $-1 #
coedge $-1 $154 $209 $118 $157 reversed $116 $-1 #
edge $-1 $159 -30 $210 -19.36491673103708422 $156 $211 forward 7 unknown #
coedge $-1 $120 $212 $154 $206 forward $127 $-1 #
vertex $-1 $121 $213 #
straight-curve $-1 30 0 10 0 -1 0 I I #
coedge $-1 $207 $214 $122 $162 forward $37 $-1 #
edge $-1 $168 -10 $163 0 $161 $215 forward 7 unknown #
vertex $-1 $208 $216 #
straight-curve $-1 0 -5 10 1 0 0 I I #
coedge $-1 $217 $124 $214 $218 forward $167 $-1 #
coedge $-1 $124 $219 $126 $171 reversed $167 $-1 #
loop $-1 $-1 $124 $220 #
vertex $-1 $162 $221 #
straight-curve $-1 0 -5 0 -1 0 0 I I #
coedge $-1 $222 $126 $223 $224 reversed $127 $-1 #
edge $-1 $129 5 $225 30 $126 $226 forward 7 unknown #
point $-1 30 -5 10 #
point $-1 30 -5 0 #
coedge $-1 $214 $131 $227 $228 forward $37 $-1 #
coedge $-1 $229 $230 $131 $176 reversed $231 $-1 #
edge $-1 $180 -1.823476581936975371 $232 -1.318116071652817967 $131 $233 forward 7 unknown #
coedge $-1 $234 $132 $135 $184 reversed $179 $-1 #
coedge $-1 $132 $234 $229 $235 reversed $179 $-1 #
loop $-1 $-1 $132 $236 #
vertex $-1 $176 $237 #
straight-curve $-1 -5 -19.36491673103708422 10 0 0 1 I I #
coedge $-1 $183 $134 $238 $239 reversed $136 $-1 #
coedge $-1 $135 $182 $240 $241 reversed $136 $-1 #
edge $-1 $242 -30 $137 -19.36491673103708422 $135 $243 forward 7 unknown #
face $-1 $244 $136 $2 $-1 $245 forward single #
point $-1 -5 -19.36491673103708422 0 #
coedge $-1 $139 $246 $247 $248 forward $37 $-1 #
coedge $-1 $249 $250 $139 $189 forward $251 $-1 #
edge $-1 $192 -2.888912398447714303 $252 -1.823476581936975371 $188 $138 forward 7 unknown #
coedge $-1 $253 $140 $250 $254 reversed $153 $-1 #
coedge $-1 $140 $253 $142 $195 reversed $153 $-1 #
vertex $-1 $254 $255 #
straight-curve $-1 -19.36491673103708422 5 10 0 0 1 I I #
coedge $-1 $143 $142 $256 $257 reversed $94 $-1 #
edge $-1 $144 19.36491673103708422 $258 30 $191 $211 forward 7 unknown #
point $-1 -19.36491673103708422 5 10 #
coedge $-1 $256 $238 $146 $198 forward $259 $-1 #
edge $-1 $200 -5 $199 5 $197 $260 forward 7 unknown #
vertex $-1 $257 $261 #
vertex $-1 $239 $262 #
straight-curve $-1 0 -5 0 -1 0 0 I I #
face $-1 $263 $259 $2 $-1 $264 forward single #
face $-1 $265 $266 $2 $-1 $267 reversed single #
plane-surface $-1 30 0 10 -1 0 0 0 0 1 forward_v I I I I #
coedge $-1 $209 $154 $268 $269 reversed $116 $-1 #
edge $-1 $270 -5 $159 5 $158 $271 forward 7 unknown #
coedge $-1 $272 $161 $155 $208 forward $37 $-1 #
edge $-1 $163 -0.2526802551420787024 $210 0.2526802551420787024 $207 $145 forward 7 unknown #
coedge $-1 $156 $205 $272 $273 reversed $116 $-1 #
vertex $-1 $208 $274 #
straight-curve $-1 0 5 10 -1 0 0 I I #
coedge $-1 $158 $275 $276 $277 forward $127 $-1 #
point $-1 30 5 10 #
coedge $-1 $161 $174 $165 $218 reversed $37 $-1 #
straight-curve $-1 19.36491673103708422 -5 10 0 0 1 I I #
point $-1 19.36491673103708422 -5 10 #
coedge $-1 $219 $165 $278 $279 forward $167 $-1 #
edge $-1 $168 0.2526802551420787024 $280 1.318116071652817967 $165 $138 forward 7 unknown #
coedge $-1 $166 $217 $281 $282 reversed $167 $-1 #
face $-1 $283 $167 $2 $-1 $245 forward single #
point $-1 19.36491673103708422 -5 0 #
coedge $-1 $275 $170 $284 $285 reversed $127 $-1 #
coedge $-1 $281 $286 $170 $224 forward $287 $-1 #
edge $-1 $288 -10 $225 10 $170 $289 forward 7 unknown #
vertex $-1 $224 $290 #
straight-curve $-1 30 0 0 0 -1 0 I I #
coedge $-1 $291 $278 $174 $228 reversed $292 $-1 #
edge $-1 $232 -10 $280 10 $174 $293 forward 7 unknown #
coedge $-1 $294 $175 $178 $235 forward $231 $-1 #
coedge $-1 $175 $295 $291 $296 forward $231 $-1 #
loop $-1 $-1 $294 $297 #
vertex $-1 $176 $298 #
ellipse-curve $-1 0 0 20 0 0 1 20 0 0 1 I I #
coedge $-1 $178 $177 $299 $300 reversed $179 $-1 #
edge $-1 $180 19.36491673103708422 $301 30 $178 $302 forward 7 unknown #
face $-1 $303 $179 $2 $-1 $304 reversed single #
point $-1 -5 -19.36491673103708422 20 #
coedge $-1 $197 $305 $182 $239 forward $259 $-1 #
edge $-1 $306 -30 $200 -5 $238 $307 forward 7 unknown #
coedge $-1 $308 $299 $183 $241 forward $309 $-1 #
edge $-1 $242 5 $306 30 $240 $310 forward 7 unknown #
vertex $-1 $300 $311 #
straight-curve $-1 -5 0 0 0 1 0 I I #
face $-1 $220 $312 $2 $-1 $245 forward single #
plane-surface $-1 0 0 0 0 0 1 1 0 0 forward_v I I I I #
coedge $-1 $187 $313 $314 $315 forward $37 $-1 #
coedge $-1 $316 $317 $187 $248 reversed $318 $-1 #
edge $-1 $319 -10 $252 10 $187 $320 forward 7 unknown #
coedge $-1 $321 $188 $317 $322 forward $251 $-1 #
coedge $-1 $188 $323 $190 $254 forward $251 $-1 #
loop $-1 $-1 $250 $263 #
vertex $-1 $189 $324 #
coedge $-1 $191 $190 $325 $326 reversed $153 $-1 #
edge $-1 $327 -30 $192 -19.36491673103708422 $250 $328 forward 7 unknown #
point $-1 -19.36491673103708422 5 0 #
coedge $-1 $325 $197 $194 $257 forward $259 $-1 #
edge $-1 $199 -5 $258 5 $256 $329 forward 7 unknown #
vertex $-1 $257 $330 #
loop $-1 $-1 $197 $202 #
straight-curve $-1 -30 -5 5 0 0 1 I I #
point $-1 -30 -5 10 #
point $-1 -30 -5 0 #
face $-1 $185 $251 $2 $-1 $245 forward single #
plane-surface $-1 -30 0 10 1 0 0 0 0 -1 forward_v I I I I #
face $-1 $-1 $331 $2 $-1 $332 reversed single #
loop $-1 $-1 $333 $203 #
plane-surface $-1 -40 0 0 1 0 0 0 0 -1 forward_v I I I I #
coedge $-1 $276 $334 $205 $269 forward $312 $-1 #
edge $-1 $335 19.36491673103708422 $270 30 $268 $336 forward 7 unknown #
vertex $-1 $277 $337 #
straight-curve $-1 30 5 5 0 0 1 I I #
coedge $-1 $338 $207 $209 $273 forward $37 $-1 #
edge $-1 $210 0 $335 10 $272 $339 forward 7 unknown #
point $-1 19.36491673103708422 5 10 #
coedge $-1 $212 $222 $340 $341 forward $127 $-1 #
coedge $-1 $342 $268 $212 $277 reversed $312 $-1 #
edge $-1 $343 -30 $270 -5 $212 $226 forward 7 unknown #
coedge $-1 $227 $344 $217 $279 reversed $292 $-1 #
edge $-1 $280 19.36491673103708422 $345 30 $217 $346 forward 7 unknown #
vertex $-1 $218 $347 #
coedge $-1 $348 $223 $219 $282 forward $287 $-1 #
edge $-1 $225 -30 $345 -5 $281 $310 forward 7 unknown #
face $-1 $236 $318 $2 $-1 $304 reversed single #
coedge $-1 $295 $349 $222 $285 forward $231 $-1 #
edge $-1 $350 -30 $288 30 $284 $351 forward 7 unknown #
coedge $-1 $223 $348 $295 $352 reversed $287 $-1 #
loop $-1 $-1 $348 $353 #
vertex $-1 $352 $354 #
straight-curve $-1 30 -30 10 0 0 -1 I I #
point $-1 30 -30 0 #
coedge $-1 $344 $227 $230 $296 reversed $292 $-1 #
loop $-1 $-1 $227 $355 #
straight-curve $-1 5 -19.36491673103708422 10 0 0 -1 I I #
coedge $-1 $356 $229 $357 $358 forward $231 $-1 #
coedge $-1 $230 $284 $286 $352 forward $231 $-1 #
edge $-1 $359 -30 $232 -19.36491673103708422 $291 $360 forward 7 unknown #
face $-1 $361 $362 $2 $-1 $363 forward single #
point $-1 5 -19.36491673103708422 20 #
coedge $-1 $240 $357 $234 $300 forward $309 $-1 #
edge $-1 $301 -15 $242 5 $299 $364 forward 7 unknown #
vertex $-1 $358 $365 #
straight-curve $-1 -5 0 20 0 -1 0 I I #
face $-1 $355 $366 $2 $-1 $367 reversed single #
plane-surface $-1 -5 0 0 1 0 0 0 0 -1 forward_v I I I I #
coedge $-1 $238 $368 $308 $369 forward $259 $-1 #
vertex $-1 $239 $370 #
straight-curve $-1 -30 0 0 0 1 0 I I #
coedge $-1 $357 $240 $305 $369 reversed $309 $-1 #
loop $-1 $-1 $299 $371 #
straight-curve $-1 0 -30 0 -1 0 0 I I #
point $-1 -5 -30 0 #
loop $-1 $-1 $268 $244 #
coedge $-1 $246 $338 $372 $373 forward $37 $-1 #
coedge $-1 $374 $375 $246 $315 reversed $231 $-1 #
edge $-1 $376 1.318116071652817967 $319 1.823476581936975371 $246 $233 forward 7 unknown #
coedge $-1 $377 $247 $375 $378 reversed $318 $-1 #
coedge $-1 $247 $377 $249 $322 reversed $318 $-1 #
loop $-1 $-1 $247 $283 #
vertex $-1 $315 $379 #
straight-curve $-1 -5 19.36491673103708422 10 0 0 -1 I I #
coedge $-1 $323 $249 $380 $381 reversed $251 $-1 #
edge $-1 $252 19.36491673103708422 $382 30 $249 $243 forward 7 unknown #
coedge $-1 $250 $321 $383 $384 reversed $251 $-1 #
point $-1 -5 19.36491673103708422 0 #
coedge $-1 $383 $256 $253 $326 forward $259 $-1 #
edge $-1 $258 -5 $327 5 $325 $385 forward 7 unknown #
vertex $-1 $254 $386 #
straight-curve $-1 0 5 0 1 0 0 I I #
straight-curve $-1 -30 0 10 0 1 0 I I #
point $-1 -30 5 10 #
loop $-1 $-1 $387 $265 #
plane-surface $-1 40 0 0 -1 0 0 0 0 1 forward_v I I I I #
coedge $-1 $388 $389 $390 $391 forward $266 $-1 #
coedge $-1 $268 $392 $338 $393 forward $312 $-1 #
vertex $-1 $393 $394 #
straight-curve $-1 0 5 0 1 0 0 I I #
point $-1 30 5 0 #
coedge $-1 $313 $272 $334 $393 reversed $37 $-1 #
straight-curve $-1 19.36491673103708422 5 10 0 0 -1 I I #
coedge $-1 $395 $396 $275 $341 reversed $397 $-1 #
edge $-1 $350 -10 $343 10 $275 $398 forward 7 unknown #
coedge $-1 $392 $276 $396 $399 reversed $312 $-1 #
vertex $-1 $277 $400 #
coedge $-1 $278 $291 $348 $401 reversed $292 $-1 #
vertex $-1 $282 $402 #
straight-curve $-1 5 0 0 0 -1 0 I I #
point $-1 5 -19.36491673103708422 0 #
coedge $-1 $286 $281 $344 $401 forward $287 $-1 #
coedge $-1 $284 $374 $395 $403 forward $231 $-1 #
vertex $-1 $403 $404 #
straight-curve $-1 30 0 20 0 -1 0 I I #
edge $-1 $288 -30 $359 -5 $295 $405 forward 7 unknown #
face $-1 $406 $287 $2 $-1 $407 forward single #
point $-1 30 -30 20 #
face $-1 $371 $292 $2 $-1 $367 reversed single #
coedge $-1 $408 $294 $368 $409 forward $231 $-1 #
coedge $-1 $299 $308 $294 $358 reversed $309 $-1 #
edge $-1 $301 5 $410 30 $294 $405 forward 7 unknown #
vertex $-1 $352 $411 #
straight-curve $-1 5 0 20 0 1 0 I I #
face $-1 $412 $413 $2 $-1 $414 reversed single #
loop $-1 $231 $415 $297 #
plane-surface $-1 0 0 20 0 0 1 1 0 0 forward_v I I I I #
straight-curve $-1 -5 -30 5 0 0 -1 I I #
point $-1 -5 -30 20 #
loop $-1 $-1 $372 $303 #
plane-surface $-1 5 0 0 -1 0 0 0 0 1 forward_v I I I I #
coedge $-1 $305 $416 $356 $409 reversed $259 $-1 #
edge $-1 $410 -10 $306 10 $305 $417 forward 7 unknown #
point $-1 -30 -30 0 #
face $-1 $353 $309 $2 $-1 $407 forward single #
coedge $-1 $418 $419 $313 $373 reversed $366 $-1 #
edge $-1 $420 -10 $376 10 $313 $421 forward 7 unknown #
coedge $-1 $349 $314 $419 $422 forward $231 $-1 #
coedge $-1 $314 $408 $316 $378 forward $231 $-1 #
vertex $-1 $315 $423 #
coedge $-1 $317 $316 $424 $425 reversed $318 $-1 #
edge $-1 $426 -30 $319 -19.36491673103708422 $316 $302 forward 7 unknown #
point $-1 -5 19.36491673103708422 20 #
coedge $-1 $424 $427 $321 $381 forward $428 $-1 #
edge $-1 $429 -30 $382 -5 $380 $430 forward 7 unknown #
vertex $-1 $381 $431 #
coedge $-1 $416 $325 $323 $384 forward $259 $-1 #
edge $-1 $327 5 $429 30 $383 $307 forward 7 unknown #
straight-curve $-1 -30 5 5 0 0 -1 I I #
point $-1 -30 5 0 #
coedge $-1 $432 $433 $434 $435 forward $331 $-1 #
coedge $-1 $436 $333 $437 $438 reversed $266 $-1 #
coedge $-1 $333 $436 $439 $440 reversed $266 $-1 #
coedge $-1 $441 $442 $333 $391 reversed $443 $-1 #
edge $-1 $444 -20 $445 20 $390 $446 forward 7 unknown #
coedge $-1 $334 $342 $418 $447 forward $312 $-1 #
edge $-1 $420 -1.318116071652817967 $335 -0.2526802551420787024 $334 $138 forward 7 unknown #
point $-1 19.36491673103708422 5 0 #
coedge $-1 $448 $340 $349 $403 reversed $397 $-1 #
coedge $-1 $340 $448 $342 $399 forward $397 $-1 #
loop $-1 $-1 $448 $406 #
straight-curve $-1 30 30 10 0 0 -1 I I #
edge $-1 $449 5 $343 30 $396 $430 forward 7 unknown #
point $-1 30 30 0 #
edge $-1 $345 -5 $359 15 $348 $450 forward 7 unknown #
point $-1 5 -30 0 #
edge $-1 $451 5 $350 30 $349 $452 forward 7 unknown #
point $-1 30 30 20 #
straight-curve $-1 0 -30 20 -1 0 0 I I #
face $-1 $453 $397 $2 $-1 $454 forward single #
plane-surface $-1 0 -30 10 0 1 0 0 0 1 forward_v I I I I #
coedge $-1 $375 $356 $455 $456 forward $231 $-1 #
edge $-1 $410 -30 $457 30 $356 $458 forward 7 unknown #
vertex $-1 $358 $459 #
point $-1 5 -30 20 #
face $-1 $113 $443 $2 $-1 $460 reversed single #
loop $-1 $-1 $461 $361 #
plane-surface $-1 0 0 -20 0 0 1 1 0 0 forward_v I I I I #
coedge $-1 $462 $439 $463 $464 forward $362 $-1 #
coedge $-1 $368 $383 $427 $465 reversed $259 $-1 #
straight-curve $-1 -30 -30 10 0 0 -1 I I #
coedge $-1 $466 $372 $392 $447 reversed $366 $-1 #
coedge $-1 $372 $466 $374 $422 reversed $366 $-1 #
vertex $-1 $447 $467 #
straight-curve $-1 5 19.36491673103708422 10 0 0 1 I I #
edge $-1 $376 19.36491673103708422 $451 30 $419 $360 forward 7 unknown #
point $-1 5 19.36491673103708422 20 #
coedge $-1 $455 $380 $377 $425 forward $428 $-1 #
edge $-1 $382 -5 $426 15 $424 $468 forward 7 unknown #
vertex $-1 $456 $469 #
coedge $-1 $380 $455 $416 $465 forward $428 $-1 #
loop $-1 $-1 $424 $453 #
vertex $-1 $381 $470 #
straight-curve $-1 0 30 0 1 0 0 I I #
point $-1 -5 30 0 #
coedge $-1 $471 $387 $472 $473 reversed $331 $-1 #
coedge $-1 $387 $471 $462 $474 reversed $331 $-1 #
coedge $-1 $463 $475 $387 $435 reversed $476 $-1 #
edge $-1 $477 -20 $478 20 $387 $479 forward 7 unknown #
coedge $-1 $389 $388 $480 $481 reversed $266 $-1 #
coedge $-1 $461 $482 $388 $438 forward $413 $-1 #
edge $-1 $483 -40 $445 40 $388 $484 forward 7 unknown #
coedge $-1 $415 $485 $389 $440 forward $362 $-1 #
edge $-1 $444 -40 $486 40 $389 $487 forward 7 unknown #
coedge $-1 $488 $390 $485 $489 reversed $443 $-1 #
coedge $-1 $390 $488 $461 $490 reversed $443 $-1 #
loop $-1 $-1 $442 $412 #
vertex $-1 $489 $491 #
vertex $-1 $490 $492 #
straight-curve $-1 -40 40 0 0 0 -1 I I #
edge $-1 $449 -30 $420 -19.36491673103708422 $392 $346 forward 7 unknown #
coedge $-1 $396 $395 $466 $493 forward $397 $-1 #
vertex $-1 $493 $494 #
straight-curve $-1 5 -30 5 0 0 1 I I #
vertex $-1 $403 $495 #
straight-curve $-1 0 30 20 1 0 0 I I #
face $-1 $496 $428 $2 $-1 $454 forward single #
plane-surface $-1 0 30 10 0 -1 0 0 0 -1 forward_v I I I I #
coedge $-1 $427 $424 $408 $456 reversed $428 $-1 #
edge $-1 $457 -30 $426 -5 $408 $452 forward 7 unknown #
vertex $-1 $409 $497 #
straight-curve $-1 -30 0 20 0 1 0 I I #
point $-1 -30 -30 20 #
plane-surface $-1 0 40 0 0 -1 0 0 0 -1 forward_v I I I I #
coedge $-1 $472 $437 $442 $490 forward $413 $-1 #
coedge $-1 $485 $415 $433 $474 forward $362 $-1 #
coedge $-1 $480 $434 $415 $464 reversed $476 $-1 #
edge $-1 $486 -40 $477 40 $463 $498 forward 7 unknown #
edge $-1 $457 -10 $429 10 $427 $499 forward 7 unknown #
coedge $-1 $419 $418 $448 $493 reversed $366 $-1 #
point $-1 5 19.36491673103708422 0 #
straight-curve $-1 -5 30 5 0 0 1 I I #
point $-1 -5 30 20 #
point $-1 -30 30 0 #
coedge $-1 $433 $432 $488 $500 reversed $331 $-1 #
coedge $-1 $482 $461 $432 $473 forward $413 $-1 #
edge $-1 $501 -40 $478 40 $432 $502 forward 7 unknown #
edge $-1 $477 -40 $503 40 $433 $504 forward 7 unknown #
coedge $-1 $434 $480 $482 $505 reversed $476 $-1 #
loop $-1 $-1 $475 $496 #
vertex $-1 $474 $506 #
vertex $-1 $435 $507 #
straight-curve $-1 40 -40 0 0 0 -1 I I #
coedge $-1 $475 $463 $436 $481 forward $476 $-1 #
edge $-1 $486 -20 $483 20 $436 $508 forward 7 unknown #
coedge $-1 $437 $472 $475 $505 forward $413 $-1 #
vertex $-1 $438 $509 #
straight-curve $-1 -40 0 -20 0 1 0 I I #
coedge $-1 $439 $462 $441 $489 forward $362 $-1 #
vertex $-1 $440 $510 #
straight-curve $-1 -40 0 20 0 -1 0 I I #
coedge $-1 $442 $441 $471 $500 forward $443 $-1 #
edge $-1 $503 -40 $444 40 $441 $511 forward 7 unknown #
edge $-1 $445 -40 $501 40 $442 $512 forward 7 unknown #
point $-1 -40 40 20 #
point $-1 -40 40 -20 #
edge $-1 $451 -15 $449 5 $448 $513 forward 7 unknown #
point $-1 5 30 0 #
point $-1 5 30 20 #
face $-1 $297 $476 $2 $-1 $514 reversed single #
point $-1 -30 30 20 #
straight-curve $-1 0 -40 20 1 0 0 I I #
straight-curve $-1 -30 30 10 0 0 -1 I I #
edge $-1 $503 -20 $501 20 $471 $515 forward 7 unknown #
vertex $-1 $473 $516 #
straight-curve $-1 40 0 -20 0 -1 0 I I #
vertex $-1 $474 $517 #
straight-curve $-1 40 0 20 0 1 0 I I #
edge $-1 $478 -40 $483 40 $475 $518 forward 7 unknown #
point $-1 40 -40 20 #
point $-1 40 -40 -20 #
straight-curve $-1 -40 -40 0 0 0 -1 I I #
point $-1 -40 -40 -20 #
point $-1 -40 -40 20 #
straight-curve $-1 0 40 20 -1 0 0 I I #
straight-curve $-1 0 40 -20 1 0 0 I I #
straight-curve $-1 5 30 5 0 0 -1 I I #
plane-surface $-1 0 -40 0 0 1 0 0 0 1 forward_v I I I I #
straight-curve $-1 40 40 0 0 0 -1 I I #
point $-1 40 40 -20 #
point $-1 40 40 20 #
straight-curve $-1 0 -40 -20 -1 0 0 I I #
End-of-ACIS-data 