106 0 1 0           
body $-1 $1 $-1 $-1 #
lump $-1 $-1 $2 $0 #
shell $-1 $-1 $-1 $3 $1 #
face $-1 $4 $5 $2 $-1 $6 forward single #
face $-1 $7 $8 $2 $-1 $9 forward single #
loop $-1 $-1 $10 $3 #
plane-surface $-1 -2.5 0 35 1 0 0 0 0 -1 0 I I I I #
face $-1 $11 $12 $2 $-1 $13 forward single #
loop $-1 $-1 $14 $4 #
plane-surface $-1 0 0 30 0 0 1 1 0 0 0 I I I I #
coedge $-1 $15 $16 $17 $18 1 $5 $-1 #
face $-1 $19 $20 $2 $-1 $21 forward single #
loop $-1 $-1 $22 $7 #
plane-surface $-1 2.5 0 35 -1 0 0 0 0 1 0 I I I I #
coedge $-1 $23 $24 $25 $26 1 $8 $-1 #
coedge $-1 $27 $10 $24 $28 0 $5 $-1 #
coedge $-1 $10 $27 $29 $30 1 $5 $-1 #
coedge $-1 $31 $25 $10 $18 0 $32 $-1 #
edge $-1 $33 $34 $17 $35 0 #
face $-1 $36 $37 $2 $-1 $38 forward single #
loop $-1 $-1 $29 $11 #
plane-surface $-1 0 0 40 0 0 1 1 0 0 0 I I I I #
coedge $-1 $39 $40 $41 $42 1 $12 $-1 #
coedge $-1 $43 $14 $40 $44 1 $8 $-1 #
coedge $-1 $14 $43 $15 $28 1 $8 $-1 #
coedge $-1 $17 $41 $14 $26 0 $32 $-1 #
edge $-1 $45 $33 $25 $46 0 #
coedge $-1 $16 $15 $47 $48 1 $5 $-1 #
edge $-1 $33 $49 $15 $50 0 #
coedge $-1 $51 $51 $16 $30 0 $20 $-1 #
edge $-1 $34 $52 $29 $53 0 #
coedge $-1 $47 $17 $51 $54 1 $32 $-1 #
loop $-1 $-1 $41 $19 #
vertex $-1 $26 $55 #
vertex $-1 $54 $56 #
straight-curve $-1 -2.5 -19.843134832984429 10 0 0 1 I I #
face $-1 $57 $58 $2 $-1 $59 reversed single #
loop $-1 $32 $60 $19 #
cone-surface $-1 0 0 10 0 0 1 20 0 0 1 I I 0 1 0 I I I I #
coedge $-1 $61 $22 $62 $63 1 $12 $-1 #
coedge $-1 $22 $61 $23 $44 0 $12 $-1 #
coedge $-1 $25 $64 $22 $42 0 $32 $-1 #
edge $-1 $65 $45 $41 $66 0 #
coedge $-1 $24 $23 $67 $68 1 $8 $-1 #
edge $-1 $69 $45 $40 $70 0 #
vertex $-1 $26 $71 #
ellipse-curve $-1 0 0 30 0 0 -1 20 0 0 1 I I #
coedge $-1 $67 $31 $27 $48 0 $32 $-1 #
edge $-1 $52 $49 $47 $72 0 #
vertex $-1 $68 $73 #
straight-curve $-1 -2.5 0 30 0 1 0 I I #
coedge $-1 $29 $29 $31 $54 0 $20 $-1 #
vertex $-1 $48 $74 #
straight-curve $-1 -2.5 0 40 0 1 0 I I #
edge $-1 $52 $34 $51 $75 0 #
point $-1 -2.5 -19.843134832984429 30 #
point $-1 -2.5 -19.843134832984429 40 #
face $-1 $76 $77 $2 $-1 $78 forward single #
loop $-1 $-1 $79 $36 #
plane-surface $-1 0 -5 0 0 1 0 0 0 1 0 I I I I #
coedge $-1 $80 $81 $82 $83 0 $37 $-1 #
coedge $-1 $40 $39 $84 $85 1 $12 $-1 #
coedge $-1 $86 $86 $39 $63 0 $87 $-1 #
edge $-1 $88 $65 $62 $89 0 #
coedge $-1 $41 $84 $86 $90 1 $32 $-1 #
vertex $-1 $63 $91 #
straight-curve $-1 2.5 -19.843134832984429 10 0 0 -1 I I #
coedge $-1 $84 $47 $43 $68 0 $32 $-1 #
edge $-1 $49 $69 $67 $46 0 #
vertex $-1 $68 $92 #
straight-curve $-1 2.5 0 30 0 -1 0 I I #
point $-1 2.5 -19.843134832984429 30 #
straight-curve $-1 -2.5 19.843134832984429 10 0 0 -1 I I #
point $-1 -2.5 19.843134832984429 30 #
point $-1 -2.5 19.843134832984429 40 #
ellipse-curve $-1 0 0 40 0 0 1 20 0 0 1 I I #
face $-1 $93 $94 $2 $-1 $78 forward single #
loop $-1 $-1 $95 $57 #
plane-surface $-1 0 0 10 0 0 1 1 0 0 0 I I I I #
coedge $-1 $96 $97 $98 $99 1 $58 $-1 #
coedge $-1 $100 $60 $101 $102 1 $37 $-1 #
coedge $-1 $60 $103 $104 $105 0 $37 $-1 #
coedge $-1 $106 $107 $60 $83 1 $108 $-1 #
edge $-1 $109 $110 $60 $111 0 #
coedge $-1 $64 $67 $61 $85 0 $32 $-1 #
edge $-1 $69 $88 $84 $112 0 #
coedge $-1 $62 $62 $64 $90 0 $87 $-1 #
loop $-1 $-1 $62 $113 #
vertex $-1 $90 $114 #
straight-curve $-1 2.5 0 40 0 -1 0 I I #
edge $-1 $65 $88 $86 $75 0 #
point $-1 2.5 -19.843134832984429 40 #
point $-1 2.5 19.843134832984429 30 #
face $-1 $115 $116 $2 $-1 $117 reversed single #
loop $-1 $-1 $104 $76 #
coedge $-1 $118 $119 $120 $121 1 $77 $-1 #
coedge $-1 $122 $79 $119 $123 1 $58 $-1 #
coedge $-1 $79 $122 $124 $125 1 $58 $-1 #
coedge $-1 $126 $120 $79 $99 0 $127 $-1 #
edge $-1 $128 $129 $98 $130 0 #
coedge $-1 $131 $80 $132 $133 0 $37 $-1 #
coedge $-1 $134 $135 $80 $102 0 $136 $-1 #
edge $-1 $137 $110 $101 $138 0 #
coedge $-1 $81 $139 $140 $141 0 $37 $-1 #
coedge $-1 $142 $143 $81 $105 1 $94 $-1 #
edge $-1 $144 $109 $81 $145 0 #
coedge $-1 $146 $82 $143 $147 1 $108 $-1 #
coedge $-1 $82 $146 $134 $148 1 $108 $-1 #
loop $-1 $-1 $82 $149 #
vertex $-1 $105 $150 #
vertex $-1 $102 $151 #
straight-curve $-1 -19.364916731037084 -5 10 0 0 -1 I I #
straight-curve $-1 2.5 19.843134832984429 10 0 0 1 I I #
face $-1 $152 $87 $2 $-1 $21 forward single #
point $-1 2.5 19.843134832984429 40 #
face $-1 $149 $153 $2 $-1 $117 reversed single #
loop $-1 $-1 $154 $93 #
plane-surface $-1 0 5 0 0 -1 0 0 0 -1 0 I I I I #
coedge $-1 $155 $95 $156 $157 0 $77 $-1 #
coedge $-1 $95 $155 $96 $123 0 $77 $-1 #
coedge $-1 $98 $158 $95 $121 0 $127 $-1 #
edge $-1 $159 $128 $120 $160 0 #
coedge $-1 $97 $96 $161 $162 1 $58 $-1 #
edge $-1 $163 $128 $96 $164 0 #
coedge $-1 $165 $166 $97 $125 0 $167 $-1 #
edge $-1 $129 $168 $124 $169 0 #
coedge $-1 $170 $98 $166 $171 0 $127 $-1 #
loop $-1 $-1 $98 $152 #
vertex $-1 $121 $172 #
vertex $-1 $99 $173 #
straight-curve $-1 30 -5 5 0 0 -1 I I #
coedge $-1 $174 $100 $175 $176 0 $37 $-1 #
coedge $-1 $177 $178 $100 $133 1 $179 $-1 #
edge $-1 $137 $180 $100 $181 0 #
coedge $-1 $182 $101 $107 $148 0 $136 $-1 #
coedge $-1 $101 $183 $177 $184 0 $136 $-1 #
loop $-1 $-1 $134 $185 #
vertex $-1 $184 $186 #
ellipse-curve $-1 0 0 0 0 0 -1 20 0 0 1 I I #
coedge $-1 $103 $187 $188 $189 1 $37 $-1 #
coedge $-1 $190 $191 $103 $141 1 $153 $-1 #
edge $-1 $192 $144 $103 $193 0 #
coedge $-1 $194 $104 $191 $195 0 $94 $-1 #
coedge $-1 $104 $194 $106 $147 0 $94 $-1 #
vertex $-1 $105 $196 #
ellipse-curve $-1 0 0 10 0 0 1 20 0 0 1 I I #
coedge $-1 $107 $106 $197 $198 1 $108 $-1 #
edge $-1 $199 $109 $106 $164 0 #
edge $-1 $110 $200 $134 $201 0 #
face $-1 $202 $108 $2 $-1 $59 reversed single #
point $-1 -19.364916731037084 -5 10 #
point $-1 -19.364916731037084 -5 0 #
face $-1 $203 $127 $2 $-1 $204 forward single #
loop $-1 $-1 $140 $115 #
coedge $-1 $205 $156 $158 $206 1 $116 $-1 #
coedge $-1 $119 $118 $207 $208 1 $77 $-1 #
coedge $-1 $154 $209 $118 $157 1 $116 $-1 #
edge $-1 $159 $210 $156 $211 0 #
coedge $-1 $120 $212 $154 $206 0 $127 $-1 #
vertex $-1 $121 $213 #
straight-curve $-1 30 0 10 0 -1 0 I I #
coedge $-1 $207 $214 $122 $162 0 $37 $-1 #
edge $-1 $168 $163 $161 $215 0 #
vertex $-1 $208 $216 #
straight-curve $-1 0 -5 10 1 0 0 I I #
coedge $-1 $217 $124 $214 $218 0 $167 $-1 #
coedge $-1 $124 $219 $126 $171 1 $167 $-1 #
loop $-1 $-1 $124 $220 #
vertex $-1 $162 $221 #
straight-curve $-1 0 -5 0 -1 0 0 I I #
coedge $-1 $222 $126 $223 $224 1 $127 $-1 #
edge $-1 $129 $225 $126 $226 0 #
point $-1 30 -5 10 #
point $-1 30 -5 0 #
coedge $-1 $214 $131 $227 $228 0 $37 $-1 #
coedge $-1 $229 $230 $131 $176 1 $231 $-1 #
edge $-1 $180 $232 $131 $233 0 #
coedge $-1 $234 $132 $135 $184 1 $179 $-1 #
coedge $-1 $132 $234 $229 $235 1 $179 $-1 #
loop $-1 $-1 $132 $236 #
vertex $-1 $176 $237 #
straight-curve $-1 -5 -19.364916731037084 10 0 0 1 I I #
coedge $-1 $183 $134 $238 $239 1 $136 $-1 #
coedge $-1 $135 $182 $240 $241 1 $136 $-1 #
edge $-1 $242 $137 $135 $243 0 #
face $-1 $244 $136 $2 $-1 $245 forward single #
point $-1 -5 -19.364916731037084 0 #
coedge $-1 $139 $246 $247 $248 0 $37 $-1 #
coedge $-1 $249 $250 $139 $189 0 $251 $-1 #
edge $-1 $192 $252 $188 $138 0 #
coedge $-1 $253 $140 $250 $254 1 $153 $-1 #
coedge $-1 $140 $253 $142 $195 1 $153 $-1 #
vertex $-1 $254 $255 #
straight-curve $-1 -19.364916731037084 5 10 0 0 1 I I #
coedge $-1 $143 $142 $256 $257 1 $94 $-1 #
edge $-1 $144 $258 $191 $211 0 #
point $-1 -19.364916731037084 5 10 #
coedge $-1 $256 $238 $146 $198 0 $259 $-1 #
edge $-1 $200 $199 $197 $260 0 #
vertex $-1 $257 $261 #
vertex $-1 $239 $262 #
straight-curve $-1 0 -5 0 -1 0 0 I I #
face $-1 $263 $259 $2 $-1 $264 forward single #
face $-1 $265 $266 $2 $-1 $267 reversed single #
plane-surface $-1 30 0 10 -1 0 0 0 0 1 0 I I I I #
coedge $-1 $209 $154 $268 $269 1 $116 $-1 #
edge $-1 $270 $159 $158 $271 0 #
coedge $-1 $272 $161 $155 $208 0 $37 $-1 #
edge $-1 $163 $210 $207 $145 0 #
coedge $-1 $156 $205 $272 $273 1 $116 $-1 #
vertex $-1 $208 $274 #
straight-curve $-1 0 5 10 -1 0 0 I I #
coedge $-1 $158 $275 $276 $277 0 $127 $-1 #
point $-1 30 5 10 #
coedge $-1 $161 $174 $165 $218 1 $37 $-1 #
straight-curve $-1 19.364916731037084 -5 10 0 0 1 I I #
point $-1 19.364916731037084 -5 10 #
coedge $-1 $219 $165 $278 $279 0 $167 $-1 #
edge $-1 $168 $280 $165 $138 0 #
coedge $-1 $166 $217 $281 $282 1 $167 $-1 #
face $-1 $283 $167 $2 $-1 $245 forward single #
point $-1 19.364916731037084 -5 0 #
coedge $-1 $275 $170 $284 $285 1 $127 $-1 #
coedge $-1 $281 $286 $170 $224 0 $287 $-1 #
edge $-1 $288 $225 $170 $289 0 #
vertex $-1 $224 $290 #
straight-curve $-1 30 0 0 0 -1 0 I I #
coedge $-1 $291 $278 $174 $228 1 $292 $-1 #
edge $-1 $232 $280 $174 $293 0 #
coedge $-1 $294 $175 $178 $235 0 $231 $-1 #
coedge $-1 $175 $295 $291 $296 0 $231 $-1 #
loop $-1 $-1 $294 $297 #
vertex $-1 $176 $298 #
ellipse-curve $-1 0 0 20 0 0 1 20 0 0 1 I I #
coedge $-1 $178 $177 $299 $300 1 $179 $-1 #
edge $-1 $180 $301 $178 $302 0 #
face $-1 $303 $179 $2 $-1 $304 reversed single #
point $-1 -5 -19.364916731037084 20 #
coedge $-1 $197 $305 $182 $239 0 $259 $-1 #
edge $-1 $306 $200 $238 $307 0 #
coedge $-1 $308 $299 $183 $241 0 $309 $-1 #
edge $-1 $242 $306 $240 $310 0 #
vertex $-1 $300 $311 #
straight-curve $-1 -5 0 0 0 1 0 I I #
face $-1 $220 $312 $2 $-1 $245 forward single #
plane-surface $-1 0 0 0 0 0 1 1 0 0 0 I I I I #
coedge $-1 $187 $313 $314 $315 0 $37 $-1 #
coedge $-1 $316 $317 $187 $248 1 $318 $-1 #
edge $-1 $319 $252 $187 $320 0 #
coedge $-1 $321 $188 $317 $322 0 $251 $-1 #
coedge $-1 $188 $323 $190 $254 0 $251 $-1 #
loop $-1 $-1 $250 $263 #
vertex $-1 $189 $324 #
coedge $-1 $191 $190 $325 $326 1 $153 $-1 #
edge $-1 $327 $192 $250 $328 0 #
point $-1 -19.364916731037084 5 0 #
coedge $-1 $325 $197 $194 $257 0 $259 $-1 #
edge $-1 $199 $258 $256 $329 0 #
vertex $-1 $257 $330 #
loop $-1 $-1 $197 $202 #
straight-curve $-1 -30 -5 5 0 0 1 I I #
point $-1 -30 -5 10 #
point $-1 -30 -5 0 #
face $-1 $185 $251 $2 $-1 $245 forward single #
plane-surface $-1 -30 0 10 1 0 0 0 0 -1 0 I I I I #
face $-1 $-1 $331 $2 $-1 $332 reversed single #
loop $-1 $-1 $333 $203 #
plane-surface $-1 -40 0 0 1 0 0 0 0 -1 0 I I I I #
coedge $-1 $276 $334 $205 $269 0 $312 $-1 #
edge $-1 $335 $270 $268 $336 0 #
vertex $-1 $277 $337 #
straight-curve $-1 30 5 5 0 0 1 I I #
coedge $-1 $338 $207 $209 $273 0 $37 $-1 #
edge $-1 $210 $335 $272 $339 0 #
point $-1 19.364916731037084 5 10 #
coedge $-1 $212 $222 $340 $341 0 $127 $-1 #
coedge $-1 $342 $268 $212 $277 1 $312 $-1 #
edge $-1 $343 $270 $212 $226 0 #
coedge $-1 $227 $344 $217 $279 1 $292 $-1 #
edge $-1 $280 $345 $217 $346 0 #
vertex $-1 $218 $347 #
coedge $-1 $348 $223 $219 $282 0 $287 $-1 #
edge $-1 $225 $345 $281 $310 0 #
face $-1 $236 $318 $2 $-1 $304 reversed single #
coedge $-1 $295 $349 $222 $285 0 $231 $-1 #
edge $-1 $350 $288 $284 $351 0 #
coedge $-1 $223 $348 $295 $352 1 $287 $-1 #
loop $-1 $-1 $348 $353 #
vertex $-1 $352 $354 #
straight-curve $-1 30 -30 10 0 0 -1 I I #
point $-1 30 -30 0 #
coedge $-1 $344 $227 $230 $296 1 $292 $-1 #
loop $-1 $-1 $227 $355 #
straight-curve $-1 5 -19.364916731037084 10 0 0 -1 I I #
coedge $-1 $356 $229 $357 $358 0 $231 $-1 #
coedge $-1 $230 $284 $286 $352 0 $231 $-1 #
edge $-1 $359 $232 $291 $360 0 #
face $-1 $361 $362 $2 $-1 $363 forward single #
point $-1 5 -19.364916731037084 20 #
coedge $-1 $240 $357 $234 $300 0 $309 $-1 #
edge $-1 $301 $242 $299 $364 0 #
vertex $-1 $358 $365 #
straight-curve $-1 -5 0 20 0 -1 0 I I #
face $-1 $355 $366 $2 $-1 $367 reversed single #
plane-surface $-1 -5 0 0 1 0 0 0 0 -1 0 I I I I #
coedge $-1 $238 $368 $308 $369 0 $259 $-1 #
vertex $-1 $239 $370 #
straight-curve $-1 -30 0 0 0 1 0 I I #
coedge $-1 $357 $240 $305 $369 1 $309 $-1 #
loop $-1 $-1 $299 $371 #
straight-curve $-1 0 -30 0 -1 0 0 I I #
point $-1 -5 -30 0 #
loop $-1 $-1 $268 $244 #
coedge $-1 $246 $338 $372 $373 0 $37 $-1 #
coedge $-1 $374 $375 $246 $315 1 $231 $-1 #
edge $-1 $376 $319 $246 $233 0 #
coedge $-1 $377 $247 $375 $378 1 $318 $-1 #
coedge $-1 $247 $377 $249 $322 1 $318 $-1 #
loop $-1 $-1 $247 $283 #
vertex $-1 $315 $379 #
straight-curve $-1 -5 19.364916731037084 10 0 0 -1 I I #
coedge $-1 $323 $249 $380 $381 1 $251 $-1 #
edge $-1 $252 $382 $249 $243 0 #
coedge $-1 $250 $321 $383 $384 1 $251 $-1 #
point $-1 -5 19.364916731037084 0 #
coedge $-1 $383 $256 $253 $326 0 $259 $-1 #
edge $-1 $258 $327 $325 $385 0 #
vertex $-1 $254 $386 #
straight-curve $-1 0 5 0 1 0 0 I I #
straight-curve $-1 -30 0 10 0 1 0 I I #
point $-1 -30 5 10 #
loop $-1 $-1 $387 $265 #
plane-surface $-1 40 0 0 -1 0 0 0 0 1 0 I I I I #
coedge $-1 $388 $389 $390 $391 0 $266 $-1 #
coedge $-1 $268 $392 $338 $393 0 $312 $-1 #
vertex $-1 $393 $394 #
straight-curve $-1 0 5 0 1 0 0 I I #
point $-1 30 5 0 #
coedge $-1 $313 $272 $334 $393 1 $37 $-1 #
straight-curve $-1 19.364916731037084 5 10 0 0 -1 I I #
coedge $-1 $395 $396 $275 $341 1 $397 $-1 #
edge $-1 $350 $343 $275 $398 0 #
coedge $-1 $392 $276 $396 $399 1 $312 $-1 #
vertex $-1 $277 $400 #
coedge $-1 $278 $291 $348 $401 1 $292 $-1 #
vertex $-1 $282 $402 #
straight-curve $-1 5 0 0 0 -1 0 I I #
point $-1 5 -19.364916731037084 0 #
coedge $-1 $286 $281 $344 $401 0 $287 $-1 #
coedge $-1 $284 $374 $395 $403 0 $231 $-1 #
vertex $-1 $403 $404 #
straight-curve $-1 30 0 20 0 -1 0 I I #
edge $-1 $288 $359 $295 $405 0 #
face $-1 $406 $287 $2 $-1 $407 forward single #
point $-1 30 -30 20 #
face $-1 $371 $292 $2 $-1 $367 reversed single #
coedge $-1 $408 $294 $368 $409 0 $231 $-1 #
coedge $-1 $299 $308 $294 $358 1 $309 $-1 #
edge $-1 $301 $410 $294 $405 0 #
vertex $-1 $352 $411 #
straight-curve $-1 5 0 20 0 1 0 I I #
face $-1 $412 $413 $2 $-1 $414 reversed single #
loop $-1 $231 $415 $297 #
plane-surface $-1 0 0 20 0 0 1 1 0 0 0 I I I I #
straight-curve $-1 -5 -30 5 0 0 -1 I I #
point $-1 -5 -30 20 #
loop $-1 $-1 $372 $303 #
plane-surface $-1 5 0 0 -1 0 0 0 0 1 0 I I I I #
coedge $-1 $305 $416 $356 $409 1 $259 $-1 #
edge $-1 $410 $306 $305 $417 0 #
point $-1 -30 -30 0 #
face $-1 $353 $309 $2 $-1 $407 forward single #
coedge $-1 $418 $419 $313 $373 1 $366 $-1 #
edge $-1 $420 $376 $313 $421 0 #
coedge $-1 $349 $314 $419 $422 0 $231 $-1 #
coedge $-1 $314 $408 $316 $378 0 $231 $-1 #
vertex $-1 $315 $423 #
coedge $-1 $317 $316 $424 $425 1 $318 $-1 #
edge $-1 $426 $319 $316 $302 0 #
point $-1 -5 19.364916731037084 20 #
coedge $-1 $424 $427 $321 $381 0 $428 $-1 #
edge $-1 $429 $382 $380 $430 0 #
vertex $-1 $381 $431 #
coedge $-1 $416 $325 $323 $384 0 $259 $-1 #
edge $-1 $327 $429 $383 $307 0 #
straight-curve $-1 -30 5 5 0 0 -1 I I #
point $-1 -30 5 0 #
coedge $-1 $432 $433 $434 $435 0 $331 $-1 #
coedge $-1 $436 $333 $437 $438 1 $266 $-1 #
coedge $-1 $333 $436 $439 $440 1 $266 $-1 #
coedge $-1 $441 $442 $333 $391 1 $443 $-1 #
edge $-1 $444 $445 $390 $446 0 #
coedge $-1 $334 $342 $418 $447 0 $312 $-1 #
edge $-1 $420 $335 $334 $138 0 #
point $-1 19.364916731037084 5 0 #
coedge $-1 $448 $340 $349 $403 1 $397 $-1 #
coedge $-1 $340 $448 $342 $399 0 $397 $-1 #
loop $-1 $-1 $448 $406 #
straight-curve $-1 30 30 10 0 0 -1 I I #
edge $-1 $449 $343 $396 $430 0 #
point $-1 30 30 0 #
edge $-1 $345 $359 $348 $450 0 #
point $-1 5 -30 0 #
edge $-1 $451 $350 $349 $452 0 #
point $-1 30 30 20 #
straight-curve $-1 0 -30 20 -1 0 0 I I #
face $-1 $453 $397 $2 $-1 $454 forward single #
plane-surface $-1 0 -30 10 0 1 0 0 0 1 0 I I I I #
coedge $-1 $375 $356 $455 $456 0 $231 $-1 #
edge $-1 $410 $457 $356 $458 0 #
vertex $-1 $358 $459 #
point $-1 5 -30 20 #
face $-1 $113 $443 $2 $-1 $460 reversed single #
loop $-1 $-1 $461 $361 #
plane-surface $-1 0 0 -20 0 0 1 1 0 0 0 I I I I #
coedge $-1 $462 $439 $463 $464 0 $362 $-1 #
coedge $-1 $368 $383 $427 $465 1 $259 $-1 #
straight-curve $-1 -30 -30 10 0 0 -1 I I #
coedge $-1 $466 $372 $392 $447 1 $366 $-1 #
coedge $-1 $372 $466 $374 $422 1 $366 $-1 #
vertex $-1 $447 $467 #
straight-curve $-1 5 19.364916731037084 10 0 0 1 I I #
edge $-1 $376 $451 $419 $360 0 #
point $-1 5 19.364916731037084 20 #
coedge $-1 $455 $380 $377 $425 0 $428 $-1 #
edge $-1 $382 $426 $424 $468 0 #
vertex $-1 $456 $469 #
coedge $-1 $380 $455 $416 $465 0 $428 $-1 #
loop $-1 $-1 $424 $453 #
vertex $-1 $381 $470 #
straight-curve $-1 0 30 0 1 0 0 I I #
point $-1 -5 30 0 #
coedge $-1 $471 $387 $472 $473 1 $331 $-1 #
coedge $-1 $387 $471 $462 $474 1 $331 $-1 #
coedge $-1 $463 $475 $387 $435 1 $476 $-1 #
edge $-1 $477 $478 $387 $479 0 #
coedge $-1 $389 $388 $480 $481 1 $266 $-1 #
coedge $-1 $461 $482 $388 $438 0 $413 $-1 #
edge $-1 $483 $445 $388 $484 0 #
coedge $-1 $415 $485 $389 $440 0 $362 $-1 #
edge $-1 $444 $486 $389 $487 0 #
coedge $-1 $488 $390 $485 $489 1 $443 $-1 #
coedge $-1 $390 $488 $461 $490 1 $443 $-1 #
loop $-1 $-1 $442 $412 #
vertex $-1 $489 $491 #
vertex $-1 $490 $492 #
straight-curve $-1 -40 40 0 0 0 -1 I I #
edge $-1 $449 $420 $392 $346 0 #
coedge $-1 $396 $395 $466 $493 0 $397 $-1 #
vertex $-1 $493 $494 #
straight-curve $-1 5 -30 5 0 0 1 I I #
vertex $-1 $403 $495 #
straight-curve $-1 0 30 20 1 0 0 I I #
face $-1 $496 $428 $2 $-1 $454 forward single #
plane-surface $-1 0 30 10 0 -1 0 0 0 -1 0 I I I I #
coedge $-1 $427 $424 $408 $456 1 $428 $-1 #
edge $-1 $457 $426 $408 $452 0 #
vertex $-1 $409 $497 #
straight-curve $-1 -30 0 20 0 1 0 I I #
point $-1 -30 -30 20 #
plane-surface $-1 0 40 0 0 -1 0 0 0 -1 0 I I I I #
coedge $-1 $472 $437 $442 $490 0 $413 $-1 #
coedge $-1 $485 $415 $433 $474 0 $362 $-1 #
coedge $-1 $480 $434 $415 $464 1 $476 $-1 #
edge $-1 $486 $477 $463 $498 0 #
edge $-1 $457 $429 $427 $499 0 #
coedge $-1 $419 $418 $448 $493 1 $366 $-1 #
point $-1 5 19.364916731037084 0 #
straight-curve $-1 -5 30 5 0 0 1 I I #
point $-1 -5 30 20 #
point $-1 -30 30 0 #
coedge $-1 $433 $432 $488 $500 1 $331 $-1 #
coedge $-1 $482 $461 $432 $473 0 $413 $-1 #
edge $-1 $501 $478 $432 $502 0 #
edge $-1 $477 $503 $433 $504 0 #
coedge $-1 $434 $480 $482 $505 1 $476 $-1 #
loop $-1 $-1 $475 $496 #
vertex $-1 $474 $506 #
vertex $-1 $435 $507 #
straight-curve $-1 40 -40 0 0 0 -1 I I #
coedge $-1 $475 $463 $436 $481 0 $476 $-1 #
edge $-1 $486 $483 $436 $508 0 #
coedge $-1 $437 $472 $475 $505 0 $413 $-1 #
vertex $-1 $438 $509 #
straight-curve $-1 -40 0 -20 0 1 0 I I #
coedge $-1 $439 $462 $441 $489 0 $362 $-1 #
vertex $-1 $440 $510 #
straight-curve $-1 -40 0 20 0 -1 0 I I #
coedge $-1 $442 $441 $471 $500 0 $443 $-1 #
edge $-1 $503 $444 $441 $511 0 #
edge $-1 $445 $501 $442 $512 0 #
point $-1 -40 40 20 #
point $-1 -40 40 -20 #
edge $-1 $451 $449 $448 $513 0 #
point $-1 5 30 0 #
point $-1 5 30 20 #
face $-1 $297 $476 $2 $-1 $514 reversed single #
point $-1 -30 30 20 #
straight-curve $-1 0 -40 20 1 0 0 I I #
straight-curve $-1 -30 30 10 0 0 -1 I I #
edge $-1 $503 $501 $471 $515 0 #
vertex $-1 $473 $516 #
straight-curve $-1 40 0 -20 0 -1 0 I I #
vertex $-1 $474 $517 #
straight-curve $-1 40 0 20 0 1 0 I I #
edge $-1 $478 $483 $475 $518 0 #
point $-1 40 -40 20 #
point $-1 40 -40 -20 #
straight-curve $-1 -40 -40 0 0 0 -1 I I #
point $-1 -40 -40 -20 #
point $-1 -40 -40 20 #
straight-curve $-1 0 40 20 -1 0 0 I I #
straight-curve $-1 0 40 -20 1 0 0 I I #
straight-curve $-1 5 30 5 0 0 -1 I I #
plane-surface $-1 0 -40 0 0 1 0 0 0 1 0 I I I I #
straight-curve $-1 40 40 0 0 0 -1 I I #
point $-1 40 40 -20 #
point $-1 40 40 20 #
straight-curve $-1 0 -40 -20 -1 0 0 I I #
End-of-ACIS-data 