600 0 1 0           
119 GICL Pro/E ACIS Translator - Source: f:/data5/repository/NIST/Manfred_Osti/spectrometer/spacer1_66/spacer1_66.prt - 6 0 13 ACIS 6.0.3 NT 24 Thu Apr 04 13:52:36 2002 
1 9.9999999999999995e-007 1e-010 
body $-1 $1 $-1 $2 #
lump $-1 $-1 $3 $0 #
transform $-1 1 0 0 0 1 0 0 0 1 0 0 0 25.399999999999999 no_rotate no_reflect no_shear #
shell $-1 $-1 $-1 $4 $-1 $1 #
face $-1 $5 $6 $3 $-1 $7 forward single #
face $-1 $8 $9 $3 $-1 $10 reversed single #
loop $-1 $-1 $11 $4 #
plane-surface $-1 0 -7.75 0 0 0 -1 1 0 0 forward_v I I I I #
face $-1 $12 $13 $3 $-1 $14 reversed single #
loop $-1 $15 $16 $5 #
plane-surface $-1 -0.96850000000000003 -7.25 0 0 -1 0 1 0 0 forward_v I I I I #
coedge $-1 $17 $18 $19 $20 forward $6 $-1 #
face $-1 $21 $22 $3 $-1 $23 reversed single #
loop $-1 $-1 $24 $8 #
plane-surface $-1 -0.96850000000000003 -7.75 0 1 0 0 0 1 0 forward_v I I I I #
loop $-1 $25 $26 $5 #
coedge $-1 $27 $19 $28 $29 forward $9 $-1 #
coedge $-1 $30 $11 $31 $32 forward $6 $-1 #
coedge $-1 $11 $33 $34 $35 forward $6 $-1 #
coedge $-1 $16 $36 $11 $20 reversed $9 $-1 #
edge $-1 $37 0 $38 1.0369999999999999 $11 $39 forward 7 unknown #
face $-1 $40 $41 $3 $-1 $42 reversed single #
loop $-1 $43 $44 $12 #
plane-surface $-1 0.96850000000000003 -7.75 0 0 1 0 -1 0 0 forward_v I I I I #
coedge $-1 $45 $34 $46 $47 forward $13 $-1 #
loop $-1 $-1 $48 $5 #
coedge $-1 $49 $49 $50 $51 forward $15 $-1 #
coedge $-1 $36 $16 $52 $53 forward $9 $-1 #
coedge $-1 $34 $45 $16 $29 reversed $13 $-1 #
edge $-1 $37 0 $54 1.5 $28 $55 forward 7 unknown #
coedge $-1 $56 $17 $57 $58 forward $6 $-1 #
coedge $-1 $59 $60 $17 $32 reversed $61 $-1 #
edge $-1 $38 0 $62 1.75 $17 $63 forward 7 unknown #
coedge $-1 $18 $64 $65 $66 forward $6 $-1 #
coedge $-1 $24 $28 $18 $35 reversed $13 $-1 #
edge $-1 $67 0 $37 0.5 $18 $68 forward 7 unknown #
coedge $-1 $19 $27 $59 $69 reversed $9 $-1 #
vertex $-1 $35 $70 #
vertex $-1 $32 $71 #
straight-curve $-1 -0.96850000000000003 -7.25 0 1 0 0 I I #
face $-1 $72 $73 $3 $-1 $74 reversed single #
loop $-1 $-1 $75 $21 #
plane-surface $-1 0.96850000000000003 -6 0 -1 0 0 0 -1 0 forward_v I I I I #
loop $-1 $76 $77 $12 #
coedge $-1 $78 $65 $79 $80 forward $22 $-1 #
coedge $-1 $28 $24 $81 $82 forward $13 $-1 #
coedge $-1 $65 $78 $24 $47 reversed $22 $-1 #
edge $-1 $67 0 $83 1.5 $24 $84 forward 7 unknown #
coedge $-1 $85 $85 $86 $87 forward $25 $-1 #
coedge $-1 $26 $26 $88 $89 forward $15 $-1 #
coedge $-1 $90 $91 $26 $51 reversed $92 $-1 #
edge $-1 $93 0 $94 3.1415926535897931 $26 $95 forward 7 unknown #
coedge $-1 $81 $96 $27 $53 reversed $97 $-1 #
edge $-1 $54 0 $98 1.0369999999999999 $52 $99 forward 7 unknown #
vertex $-1 $82 $100 #
straight-curve $-1 -0.96850000000000003 -7.25 0 0 0 1 I I #
coedge $-1 $101 $30 $102 $103 forward $6 $-1 #
coedge $-1 $104 $105 $30 $58 reversed $106 $-1 #
edge $-1 $62 0 $107 0.21999999999999997 $30 $108 forward 7 unknown #
coedge $-1 $109 $31 $36 $69 forward $61 $-1 #
coedge $-1 $31 $109 $104 $110 reversed $61 $-1 #
loop $-1 $111 $59 $112 #
vertex $-1 $58 $113 #
straight-curve $-1 0.068500000000000005 -7.25 0 0 1 0 I I #
coedge $-1 $33 $101 $114 $115 forward $6 $-1 #
coedge $-1 $44 $46 $33 $66 reversed $22 $-1 #
edge $-1 $116 0 $67 1.9370000000000001 $33 $117 forward 7 unknown #
vertex $-1 $35 $118 #
straight-curve $-1 -0.96850000000000003 -7.75 0 0 1 0 I I #
edge $-1 $38 0 $98 1.5 $36 $119 forward 7 unknown #
point $-1 -0.96850000000000003 -7.25 0 #
point $-1 0.068500000000000005 -7.25 0 #
face $-1 $120 $121 $3 $-1 $122 reversed single #
loop $-1 $123 $124 $40 #
plane-surface $-1 0.28849999999999998 -6 0 0 -1 0 1 0 0 forward_v I I I I #
coedge $-1 $125 $114 $126 $127 forward $41 $-1 #
loop $-1 $128 $129 $12 #
coedge $-1 $130 $130 $131 $132 reversed $43 $-1 #
coedge $-1 $46 $44 $133 $134 forward $22 $-1 #
coedge $-1 $114 $125 $44 $80 reversed $41 $-1 #
edge $-1 $116 0 $135 1.5 $79 $136 forward 7 unknown #
coedge $-1 $133 $52 $45 $82 reversed $97 $-1 #
edge $-1 $83 0 $54 0.5 $81 $137 forward 7 unknown #
vertex $-1 $82 $138 #
straight-curve $-1 -0.96850000000000003 -7.75 0 0 0 1 I I #
coedge $-1 $48 $48 $139 $140 forward $25 $-1 #
coedge $-1 $141 $142 $48 $87 reversed $143 $-1 #
edge $-1 $144 0 $145 3.1415926535897931 $48 $146 forward 7 unknown #
coedge $-1 $147 $148 $49 $89 reversed $149 $-1 #
edge $-1 $94 0 $93 3.1415926535897931 $49 $150 forward 7 unknown #
coedge $-1 $151 $50 $148 $152 reversed $92 $-1 #
coedge $-1 $50 $151 $147 $153 forward $92 $-1 #
loop $-1 $-1 $90 $154 #
vertex $-1 $89 $155 #
vertex $-1 $89 $156 #
ellipse-curve $-1 -0.62150000000000005 -7.25 0.34399999999999997 0 -1 0 -0.125 0 0 1 I I #
coedge $-1 $52 $157 $109 $158 reversed $97 $-1 #
loop $-1 $-1 $133 $159 #
vertex $-1 $53 $160 #
straight-curve $-1 -0.96850000000000003 -7.25 1.5 1 0 0 I I #
point $-1 -0.96850000000000003 -7.25 1.5 #
coedge $-1 $64 $56 $161 $162 forward $6 $-1 #
coedge $-1 $163 $164 $56 $103 reversed $121 $-1 #
edge $-1 $107 0 $165 0.5 $56 $166 forward 7 unknown #
coedge $-1 $167 $57 $60 $110 forward $106 $-1 #
coedge $-1 $57 $167 $163 $168 reversed $106 $-1 #
loop $-1 $-1 $104 $120 #
vertex $-1 $103 $169 #
straight-curve $-1 0.068500000000000005 -5.5 0 1 0 0 I I #
coedge $-1 $60 $59 $96 $158 forward $61 $-1 #
edge $-1 $62 0 $170 1.5 $60 $171 forward 7 unknown #
loop $-1 $-1 $172 $112 #
face $-1 $159 $61 $3 $-1 $173 reversed single #
point $-1 0.068500000000000005 -5.5 0 #
coedge $-1 $75 $79 $64 $115 reversed $41 $-1 #
edge $-1 $174 0 $116 1.75 $64 $175 forward 7 unknown #
vertex $-1 $66 $176 #
straight-curve $-1 0.96850000000000003 -7.75 0 -1 0 0 I I #
point $-1 -0.96850000000000003 -7.75 0 #
straight-curve $-1 0.068499999999999894 -7.25 0 0 0 1 I I #
face $-1 $112 $106 $3 $-1 $177 reversed single #
loop $-1 $178 $163 $72 #
plane-surface $-1 0.28849999999999998 -5.5 0 -1 0 0 0 -1 0 forward_v I I I I #
loop $-1 $179 $180 $40 #
coedge $-1 $181 $161 $164 $182 forward $73 $-1 #
coedge $-1 $79 $75 $183 $184 forward $41 $-1 #
coedge $-1 $161 $181 $75 $127 reversed $73 $-1 #
edge $-1 $174 0 $185 1.5 $126 $186 forward 7 unknown #
loop $-1 $187 $188 $12 #
coedge $-1 $189 $189 $190 $191 reversed $76 $-1 #
coedge $-1 $77 $77 $192 $193 reversed $43 $-1 #
coedge $-1 $194 $195 $77 $132 forward $196 $-1 #
edge $-1 $197 0 $198 3.1415926535897931 $77 $199 forward 7 unknown #
coedge $-1 $183 $81 $78 $134 reversed $97 $-1 #
edge $-1 $135 0 $83 1.9370000000000001 $133 $200 forward 7 unknown #
vertex $-1 $184 $201 #
straight-curve $-1 0.96850000000000003 -7.75 0 0 0 1 I I #
straight-curve $-1 -0.96850000000000003 -7.75 1.5 0 1 0 I I #
point $-1 -0.96850000000000003 -7.75 1.5 #
coedge $-1 $202 $203 $85 $140 reversed $204 $-1 #
edge $-1 $145 0 $144 3.1415926535897931 $85 $205 forward 7 unknown #
coedge $-1 $206 $86 $203 $207 reversed $143 $-1 #
coedge $-1 $86 $206 $202 $208 forward $143 $-1 #
loop $-1 $-1 $141 $209 #
vertex $-1 $140 $210 #
vertex $-1 $140 $211 #
ellipse-curve $-1 -0.62150000000000005 -7.25 1.1560000000000001 0 -1 0 -0.125 0 0 1 I I #
coedge $-1 $212 $88 $91 $153 reversed $149 $-1 #
coedge $-1 $88 $212 $90 $152 forward $149 $-1 #
loop $-1 $-1 $147 $213 #
ellipse-curve $-1 -0.62150000000000005 -7.25 0.34399999999999997 0 -1 0 0.125 0 0 1 I I #
coedge $-1 $91 $90 $214 $215 forward $92 $-1 #
edge $-1 $216 0 $93 0.5 $148 $217 forward 7 unknown #
edge $-1 $218 0 $94 0.5 $147 $219 forward 7 unknown #
face $-1 $213 $92 $3 $-1 $220 reversed single #
point $-1 -0.74650000000000005 -7.25 0.34399999999999997 #
point $-1 -0.49650000000000005 -7.25 0.34399999999999997 #
coedge $-1 $96 $221 $167 $222 reversed $97 $-1 #
edge $-1 $98 0 $170 1.75 $96 $223 forward 7 unknown #
face $-1 $224 $97 $3 $-1 $225 reversed single #
point $-1 0.068500000000000005 -7.25 1.5 #
coedge $-1 $124 $126 $101 $162 reversed $73 $-1 #
edge $-1 $165 0 $174 0.68000000000000005 $101 $226 forward 7 unknown #
coedge $-1 $227 $102 $105 $168 forward $121 $-1 #
coedge $-1 $102 $227 $124 $182 reversed $121 $-1 #
vertex $-1 $162 $228 #
straight-curve $-1 0.28849999999999998 -5.5 0 0 -1 0 I I #
coedge $-1 $105 $104 $157 $222 forward $106 $-1 #
edge $-1 $107 0 $229 1.5 $105 $230 forward 7 unknown #
point $-1 0.28849999999999998 -5.5 0 #
vertex $-1 $158 $231 #
straight-curve $-1 0.068500000000000005 -5.5 0 0 0 1 I I #
coedge $-1 $232 $232 $233 $234 forward $111 $-1 #
plane-surface $-1 0.068500000000000005 -7.25 0 1 0 0 0 1 0 forward_v I I I I #
vertex $-1 $115 $235 #
straight-curve $-1 0.96850000000000003 -6 0 0 -1 0 I I #
point $-1 0.96850000000000003 -7.75 0 #
plane-surface $-1 0.068500000000000005 -5.5 0 0 -1 0 1 0 0 forward_v I I I I #
loop $-1 $-1 $236 $72 #
loop $-1 $-1 $237 $40 #
coedge $-1 $238 $238 $239 $240 forward $123 $-1 #
coedge $-1 $126 $124 $241 $242 forward $73 $-1 #
edge $-1 $165 0 $243 1.5 $164 $244 forward 7 unknown #
coedge $-1 $241 $133 $125 $184 reversed $97 $-1 #
edge $-1 $185 0 $135 1.75 $183 $245 forward 7 unknown #
vertex $-1 $242 $246 #
straight-curve $-1 0.96850000000000003 -6 0 0 0 1 I I #
loop $-1 $247 $214 $12 #
coedge $-1 $248 $248 $249 $250 reversed $128 $-1 #
coedge $-1 $129 $129 $251 $252 reversed $76 $-1 #
coedge $-1 $253 $254 $129 $191 forward $255 $-1 #
edge $-1 $256 0 $257 3.1415926535897931 $129 $258 forward 7 unknown #
coedge $-1 $259 $260 $130 $193 forward $261 $-1 #
edge $-1 $198 0 $197 3.1415926535897931 $130 $262 forward 7 unknown #
coedge $-1 $263 $131 $260 $264 forward $196 $-1 #
coedge $-1 $131 $263 $259 $265 reversed $196 $-1 #
loop $-1 $-1 $194 $266 #
vertex $-1 $193 $267 #
vertex $-1 $193 $268 #
ellipse-curve $-1 -0.62150000000000005 -7.75 0.75 0 -1 0 -0.0625 0 0 1 I I #
straight-curve $-1 0.96850000000000003 -7.75 1.5 -1 0 0 I I #
point $-1 0.96850000000000003 -7.75 1.5 #
coedge $-1 $269 $139 $142 $208 reversed $204 $-1 #
coedge $-1 $139 $269 $141 $207 forward $204 $-1 #
loop $-1 $-1 $202 $270 #
ellipse-curve $-1 -0.62150000000000005 -7.25 1.1560000000000001 0 -1 0 0.125 0 0 1 I I #
coedge $-1 $142 $141 $271 $272 forward $143 $-1 #
edge $-1 $273 0 $144 0.5 $203 $274 forward 7 unknown #
edge $-1 $275 0 $145 0.5 $202 $276 forward 7 unknown #
face $-1 $270 $143 $3 $-1 $277 reversed single #
point $-1 -0.74650000000000005 -7.25 1.1560000000000001 #
point $-1 -0.49650000000000005 -7.25 1.1560000000000001 #
coedge $-1 $148 $147 $278 $279 forward $149 $-1 #
face $-1 $209 $149 $3 $-1 $280 reversed single #
coedge $-1 $278 $278 $151 $215 reversed $187 $-1 #
edge $-1 $216 0 $218 3.1415926535897998 $214 $281 forward 7 unknown #
vertex $-1 $279 $282 #
straight-curve $-1 -0.74650000000000005 -7.75 0.34399999999999953 0 1 0 I I #
vertex $-1 $279 $283 #
straight-curve $-1 -0.49650000000000005 -7.75 0.34399999999999953 0 1 0 I I #
cone-surface $-1 -0.62150000000000005 -7.75 0.34399999999999953 0 -1 0 0.125 0 0 1 I I 0 1 0.125 forward I I I I #
coedge $-1 $157 $241 $227 $284 reversed $97 $-1 #
edge $-1 $170 0 $229 0.21999999999999997 $157 $285 forward 7 unknown #
straight-curve $-1 0.068500000000000005 -7.25 1.5 0 1 0 I I #
face $-1 $286 $287 $3 $-1 $288 reversed single #
plane-surface $-1 0 -7.75 1.5 0 0 -1 1 0 0 forward_v I I I I #
straight-curve $-1 0.28849999999999998 -6 0 1 0 0 I I #
coedge $-1 $164 $163 $221 $284 forward $121 $-1 #
point $-1 0.28849999999999998 -6 0 #
vertex $-1 $222 $289 #
straight-curve $-1 0.28849999999999998 -5.5 0 0 0 1 I I #
point $-1 0.068500000000000005 -5.5 1.5 #
coedge $-1 $172 $172 $290 $291 forward $111 $-1 #
coedge $-1 $292 $293 $172 $234 reversed $287 $-1 #
edge $-1 $294 0 $295 3.1415926535897931 $172 $296 forward 7 unknown #
point $-1 0.96850000000000003 -6 0 #
coedge $-1 $297 $297 $298 $299 reversed $178 $-1 #
coedge $-1 $300 $300 $301 $302 forward $179 $-1 #
coedge $-1 $180 $180 $303 $304 forward $123 $-1 #
coedge $-1 $305 $306 $180 $240 reversed $307 $-1 #
edge $-1 $308 0 $309 3.1415926535897927 $180 $310 forward 7 unknown #
coedge $-1 $221 $183 $181 $242 reversed $97 $-1 #
edge $-1 $243 0 $185 0.68000000000000005 $241 $311 forward 7 unknown #
vertex $-1 $284 $312 #
straight-curve $-1 0.28849999999999998 -6 0 0 0 1 I I #
straight-curve $-1 0.96850000000000003 -6 1.5 0 -1 0 I I #
point $-1 0.96850000000000003 -6 1.5 #
loop $-1 $313 $271 $12 #
coedge $-1 $188 $188 $314 $315 reversed $128 $-1 #
coedge $-1 $316 $317 $188 $250 forward $318 $-1 #
edge $-1 $319 0 $320 3.1415926535897931 $188 $321 forward 7 unknown #
coedge $-1 $322 $323 $189 $252 forward $324 $-1 #
edge $-1 $257 0 $256 3.1415926535897931 $189 $325 forward 7 unknown #
coedge $-1 $326 $190 $323 $327 forward $255 $-1 #
coedge $-1 $190 $326 $322 $328 reversed $255 $-1 #
loop $-1 $-1 $253 $329 #
vertex $-1 $252 $330 #
vertex $-1 $252 $331 #
ellipse-curve $-1 0 -7.75 0.75 0 -1 0 -0.062500000000000111 0 0 1 I I #
coedge $-1 $332 $192 $195 $265 forward $261 $-1 #
coedge $-1 $192 $332 $194 $264 reversed $261 $-1 #
loop $-1 $-1 $259 $333 #
ellipse-curve $-1 -0.62150000000000005 -7.75 0.75 0 -1 0 0.0625 0 0 1 I I #
coedge $-1 $195 $194 $334 $335 reversed $196 $-1 #
edge $-1 $198 0 $336 0.37999999999999812 $260 $337 forward 7 unknown #
edge $-1 $197 0 $338 0.37999999999999812 $259 $339 forward 7 unknown #
face $-1 $333 $196 $3 $-1 $340 reversed single #
point $-1 -0.68400000000000005 -7.75 0.75 #
point $-1 -0.55900000000000005 -7.75 0.75 #
coedge $-1 $203 $202 $341 $342 forward $204 $-1 #
face $-1 $-1 $204 $3 $-1 $343 reversed single #
coedge $-1 $341 $341 $206 $272 reversed $247 $-1 #
edge $-1 $273 0 $275 3.1415926535898002 $271 $344 forward 7 unknown #
vertex $-1 $342 $345 #
straight-curve $-1 -0.74650000000000005 -7.75 1.1559999999999997 0 1 0 I I #
vertex $-1 $342 $346 #
straight-curve $-1 -0.49650000000000005 -7.75 1.1559999999999997 0 1 0 I I #
cone-surface $-1 -0.62150000000000005 -7.75 1.1559999999999997 0 -1 0 0.125 0 0 1 I I 0 1 0.125 forward I I I I #
coedge $-1 $214 $214 $212 $279 reversed $187 $-1 #
edge $-1 $218 0 $216 3.1415926535897865 $278 $347 forward 7 unknown #
cone-surface $-1 -0.62150000000000005 -7.75 0.34399999999999953 0 -1 0 0.125 0 0 1 I I 0 1 0.125 forward I I I I #
ellipse-curve $-1 -0.62150000000000005 -7.75 0.34399999999999953 0 -1 0 -0.125 0 4.4408920985006262e-016 1 I I #
point $-1 -0.74650000000000005 -7.75 0.34399999999999997 #
point $-1 -0.49650000000000005 -7.75 0.34399999999999992 #
edge $-1 $229 0 $243 0.5 $221 $348 forward 7 unknown #
straight-curve $-1 0.068500000000000005 -5.5 1.5 1 0 0 I I #
face $-1 $349 $350 $3 $-1 $351 reversed single #
loop $-1 $-1 $292 $224 #
cone-surface $-1 0.28849999999999998 -5.75 0.75 1 0 0 0 0.125 0 1 I I 0 1 0.125 forward I I I I #
point $-1 0.28849999999999998 -5.5 1.5 #
coedge $-1 $352 $353 $232 $291 reversed $350 $-1 #
edge $-1 $295 0 $294 3.1415926535897931 $232 $354 forward 7 unknown #
coedge $-1 $298 $233 $353 $355 reversed $287 $-1 #
coedge $-1 $233 $298 $352 $356 forward $287 $-1 #
vertex $-1 $291 $357 #
vertex $-1 $291 $358 #
ellipse-curve $-1 0.068500000000000005 -5.75 0.75 1 0 0 0 -0.125 0 1 I I #
coedge $-1 $236 $236 $359 $360 reversed $178 $-1 #
coedge $-1 $293 $292 $236 $299 forward $287 $-1 #
edge $-1 $361 0 $362 3.1415926535897931 $236 $363 forward 7 unknown #
coedge $-1 $237 $237 $364 $365 forward $179 $-1 #
coedge $-1 $366 $367 $237 $302 reversed $368 $-1 #
edge $-1 $369 0 $370 3.1415926535897931 $237 $371 forward 7 unknown #
coedge $-1 $372 $373 $238 $304 reversed $374 $-1 #
edge $-1 $309 0 $308 3.1415926535897936 $238 $375 forward 7 unknown #
coedge $-1 $376 $239 $373 $377 reversed $307 $-1 #
coedge $-1 $239 $376 $372 $378 forward $307 $-1 #
loop $-1 $-1 $306 $349 #
vertex $-1 $304 $379 #
vertex $-1 $304 $380 #
ellipse-curve $-1 0.62850000000000006 -6 0.34399999999999997 0 -1 0 -0.140625 0 0 1 I I #
straight-curve $-1 0.28849999999999998 -6 1.5 1 0 0 I I #
point $-1 0.28849999999999998 -6 1.5 #
loop $-1 $381 $382 $12 #
coedge $-1 $383 $384 $248 $315 forward $385 $-1 #
edge $-1 $320 0 $319 3.1415926535897931 $248 $386 forward 7 unknown #
coedge $-1 $387 $249 $384 $388 forward $318 $-1 #
coedge $-1 $249 $387 $383 $389 reversed $318 $-1 #
loop $-1 $-1 $316 $390 #
vertex $-1 $315 $391 #
vertex $-1 $315 $392 #
ellipse-curve $-1 0.62850000000000006 -7.75 0.75 0 -1 0 -0.125 0 0 1 I I #
coedge $-1 $393 $251 $254 $328 forward $324 $-1 #
coedge $-1 $251 $393 $253 $327 reversed $324 $-1 #
loop $-1 $-1 $322 $394 #
ellipse-curve $-1 0 -7.75 0.75 0 -1 0 0.0625 0 0 1 I I #
coedge $-1 $254 $253 $395 $396 reversed $255 $-1 #
edge $-1 $257 0 $397 0.37999999999999812 $323 $398 forward 7 unknown #
edge $-1 $256 0 $399 0.37999999999999812 $322 $400 forward 7 unknown #
face $-1 $394 $255 $3 $-1 $401 reversed single #
point $-1 -0.062500000000000111 -7.75 0.75 #
point $-1 0.0625 -7.75 0.75 #
coedge $-1 $260 $259 $402 $403 reversed $261 $-1 #
face $-1 $404 $261 $3 $-1 $405 reversed single #
coedge $-1 $402 $402 $263 $335 forward $406 $-1 #
edge $-1 $338 0 $336 3.1415926535897931 $334 $407 forward 7 unknown #
vertex $-1 $403 $408 #
straight-curve $-1 -0.55900000000000005 -7.75 0.75 0 1 0 I I #
vertex $-1 $403 $409 #
straight-curve $-1 -0.68400000000000005 -7.75 0.75 0 1 0 I I #
cone-surface $-1 -0.62150000000000005 -7.75 0.75 0 -1 0 0.0625 0 0 1 I I 0 1 0.0625 forward I I I I #
coedge $-1 $271 $271 $269 $342 reversed $247 $-1 #
edge $-1 $275 0 $273 3.141592653589786 $341 $410 forward 7 unknown #
cone-surface $-1 -0.62150000000000005 -7.75 1.1559999999999997 0 -1 0 0.125 0 0 1 I I 0 1 0.125 forward I I I I #
ellipse-curve $-1 -0.62150000000000005 -7.75 1.1559999999999997 0 -1 0 -0.125 0 4.4408920985006262e-016 1 I I #
point $-1 -0.74650000000000005 -7.75 1.1560000000000001 #
point $-1 -0.49650000000000005 -7.75 1.1560000000000001 #
ellipse-curve $-1 -0.62150000000000005 -7.75 0.34399999999999953 0 -1 0 0.125 0 3.8857805861880479e-016 1 I I #
straight-curve $-1 0.28849999999999998 -5.5 1.5 0 -1 0 I I #
face $-1 $411 $307 $3 $-1 $412 reversed single #
loop $-1 $-1 $352 $286 #
cone-surface $-1 0.28849999999999998 -5.75 0.75 1 0 0 0 0.125 0 1 I I 0 1 0.125 forward I I I I #
coedge $-1 $359 $290 $293 $356 reversed $350 $-1 #
coedge $-1 $290 $359 $292 $355 forward $350 $-1 #
ellipse-curve $-1 0.068500000000000005 -5.75 0.75 1 0 0 0 0.125 0 1 I I #
edge $-1 $361 0 $294 0.21999999999999997 $353 $413 forward 7 unknown #
edge $-1 $362 0 $295 0.21999999999999997 $352 $414 forward 7 unknown #
point $-1 0.068500000000000005 -5.875 0.75 #
point $-1 0.068500000000000005 -5.625 0.75 #
coedge $-1 $353 $352 $297 $360 forward $350 $-1 #
edge $-1 $362 0 $361 3.1415926535897931 $297 $415 forward 7 unknown #
vertex $-1 $360 $416 #
vertex $-1 $360 $417 #
ellipse-curve $-1 0.28849999999999998 -5.75 0.75 1 0 0 0 -0.125 0 1 I I #
coedge $-1 $418 $419 $300 $365 reversed $420 $-1 #
edge $-1 $370 0 $369 3.1415926535897931 $300 $421 forward 7 unknown #
coedge $-1 $422 $301 $419 $423 reversed $368 $-1 #
coedge $-1 $301 $422 $418 $424 forward $368 $-1 #
loop $-1 $-1 $367 $425 #
vertex $-1 $365 $426 #
vertex $-1 $365 $427 #
ellipse-curve $-1 0.62850000000000006 -6 1.1560000000000001 0 -1 0 -0.140625 0 0 1 I I #
coedge $-1 $428 $303 $306 $378 reversed $374 $-1 #
coedge $-1 $303 $428 $305 $377 forward $374 $-1 #
loop $-1 $-1 $373 $411 #
ellipse-curve $-1 0.62850000000000006 -6 0.34399999999999997 0 -1 0 0.140625 0 -5.5511151231257827e-017 1 I I #
coedge $-1 $306 $305 $429 $430 forward $307 $-1 #
edge $-1 $431 0 $308 0.5 $373 $432 forward 7 unknown #
edge $-1 $433 0 $309 0.5 $372 $434 forward 7 unknown #
point $-1 0.48787500000000006 -6 0.34399999999999997 #
point $-1 0.76912500000000006 -6 0.34399999999999992 #
loop $-1 $-1 $435 $12 #
coedge $-1 $436 $436 $437 $438 reversed $313 $-1 #
coedge $-1 $439 $314 $317 $389 forward $385 $-1 #
coedge $-1 $314 $439 $316 $388 reversed $385 $-1 #
loop $-1 $-1 $383 $440 #
ellipse-curve $-1 0.62850000000000006 -7.75 0.75 0 -1 0 0.125 0 0 1 I I #
coedge $-1 $317 $316 $441 $442 reversed $318 $-1 #
edge $-1 $320 0 $443 0.61999999999999833 $384 $444 forward 7 unknown #
edge $-1 $319 0 $445 0.61999999999999833 $383 $446 forward 7 unknown #
face $-1 $440 $318 $3 $-1 $447 reversed single #
point $-1 0.50350000000000006 -7.75 0.75 #
point $-1 0.75350000000000006 -7.75 0.75 #
coedge $-1 $323 $322 $448 $449 reversed $324 $-1 #
face $-1 $450 $324 $3 $-1 $451 reversed single #
coedge $-1 $448 $448 $326 $396 forward $452 $-1 #
edge $-1 $399 0 $397 3.1415926535897931 $395 $453 forward 7 unknown #
vertex $-1 $449 $454 #
straight-curve $-1 0.0625 -7.75 0.75 0 1 0 I I #
vertex $-1 $449 $455 #
straight-curve $-1 -0.0625 -7.75 0.75 0 1 0 I I #
cone-surface $-1 0 -7.75 0.75 0 -1 0 0.0625 0 0 1 I I 0 1 0.0625 forward I I I I #
coedge $-1 $334 $334 $332 $403 forward $406 $-1 #
edge $-1 $336 0 $338 3.1415926535897931 $402 $456 forward 7 unknown #
face $-1 $329 $406 $3 $-1 $457 forward single #
cone-surface $-1 -0.62150000000000005 -7.75 0.75 0 -1 0 0.0625 0 0 1 I I 0 1 0.0625 forward I I I I #
loop $-1 $-1 $334 $404 #
ellipse-curve $-1 -0.62150000000000005 -7.3700000000000019 0.75 0 -1 0 -0.0625 0 0 1 I I #
point $-1 -0.55900000000000005 -7.3700000000000019 0.75 #
point $-1 -0.68400000000000005 -7.3700000000000019 0.75 #
ellipse-curve $-1 -0.62150000000000005 -7.75 1.1559999999999997 0 -1 0 0.125 0 4.4408920985006262e-016 1 I I #
face $-1 $458 $374 $3 $-1 $459 reversed single #
cone-surface $-1 0.62850000000000006 -7.75 0.34399999999999953 0 -1 0 0.140625 0 0 1 I I 0 1 0.140625 forward I I I I #
straight-curve $-1 0.28849999999999998 -5.875 0.75 -1 0 0 I I #
straight-curve $-1 0.28849999999999998 -5.625 0.75 -1 0 0 I I #
ellipse-curve $-1 0.28849999999999998 -5.75 0.75 1 0 0 0 0.125 0 1 I I #
point $-1 0.28849999999999998 -5.875 0.75 #
point $-1 0.28849999999999998 -5.625 0.75 #
coedge $-1 $460 $364 $367 $424 reversed $420 $-1 #
coedge $-1 $364 $460 $366 $423 forward $420 $-1 #
loop $-1 $-1 $419 $461 #
ellipse-curve $-1 0.62850000000000006 -6 1.1560000000000001 0 -1 0 0.140625 0 0 1 I I #
coedge $-1 $367 $366 $462 $463 forward $368 $-1 #
edge $-1 $464 0 $369 0.5 $419 $465 forward 7 unknown #
edge $-1 $466 0 $370 0.5 $418 $467 forward 7 unknown #
face $-1 $461 $368 $3 $-1 $468 reversed single #
point $-1 0.48787500000000006 -6 1.1560000000000001 #
point $-1 0.76912500000000006 -6 1.1560000000000001 #
coedge $-1 $373 $372 $469 $470 forward $374 $-1 #
coedge $-1 $469 $469 $376 $430 reversed $471 $-1 #
edge $-1 $431 0 $433 3.1415926535897931 $376 $472 forward 7 unknown #
vertex $-1 $470 $473 #
straight-curve $-1 0.48787500000000006 -6.5 0.34399999999999953 0 1 0 I I #
vertex $-1 $470 $474 #
straight-curve $-1 0.76912500000000006 -6.5 0.34399999999999953 0 1 0 I I #
coedge $-1 $475 $475 $476 $477 reversed $381 $-1 #
coedge $-1 $382 $382 $478 $479 reversed $313 $-1 #
coedge $-1 $480 $481 $382 $438 forward $482 $-1 #
edge $-1 $483 0 $484 3.1415926535897967 $382 $485 forward 7 unknown #
coedge $-1 $384 $383 $486 $487 reversed $385 $-1 #
face $-1 $488 $385 $3 $-1 $489 reversed single #
coedge $-1 $486 $486 $387 $442 forward $490 $-1 #
edge $-1 $445 0 $443 3.1415926535897913 $441 $491 forward 7 unknown #
vertex $-1 $487 $492 #
straight-curve $-1 0.75350000000000006 -7.75 0.75 0 1 0 I I #
vertex $-1 $487 $493 #
straight-curve $-1 0.50350000000000006 -7.75 0.75 0 1 0 I I #
cone-surface $-1 0.62850000000000006 -7.75 0.75 0 -1 0 0.125 0 0 1 I I 0 1 0.125 forward I I I I #
coedge $-1 $395 $395 $393 $449 forward $452 $-1 #
edge $-1 $397 0 $399 3.1415926535897931 $448 $494 forward 7 unknown #
face $-1 $390 $452 $3 $-1 $495 forward single #
cone-surface $-1 0 -7.75 0.75 0 -1 0 0.0625 0 0 1 I I 0 1 0.0625 forward I I I I #
loop $-1 $-1 $395 $450 #
ellipse-curve $-1 0 -7.3700000000000019 0.75 0 -1 0 -0.0625 0 0 1 I I #
point $-1 0.0625 -7.3700000000000019 0.75 #
point $-1 -0.0625 -7.3700000000000019 0.75 #
ellipse-curve $-1 -0.62150000000000005 -7.3700000000000019 0.75 0 -1 0 0.0625 0 0 1 I I #
plane-surface $-1 -0.62150000000000005 -7.3700000000000019 0.75 0 -1 0 1 0 0 forward_v I I I I #
face $-1 $496 $497 $3 $-1 $498 forward single #
cone-surface $-1 0.62850000000000006 -7.75 0.34399999999999953 0 -1 0 0.140625 0 0 1 I I 0 1 0.140625 forward I I I I #
coedge $-1 $419 $418 $499 $500 forward $420 $-1 #
face $-1 $501 $420 $3 $-1 $502 reversed single #
coedge $-1 $499 $499 $422 $463 reversed $503 $-1 #
edge $-1 $464 0 $466 3.1415926535897931 $422 $504 forward 7 unknown #
vertex $-1 $500 $505 #
straight-curve $-1 0.48787500000000006 -6.5 1.1559999999999997 0 1 0 I I #
vertex $-1 $500 $506 #
straight-curve $-1 0.76912500000000006 -6.5 1.1559999999999997 0 1 0 I I #
cone-surface $-1 0.62850000000000006 -7.75 1.1559999999999997 0 -1 0 0.140625 0 0 1 I I 0 1 0.140625 forward I I I I #
coedge $-1 $429 $429 $428 $470 reversed $471 $-1 #
edge $-1 $433 0 $431 3.1415926535897931 $428 $507 forward 7 unknown #
loop $-1 $-1 $429 $458 #
ellipse-curve $-1 0.62850000000000006 -6.5 0.34399999999999953 0 -1 0 -0.140625 0 0 1 I I #
point $-1 0.48787500000000006 -6.5 0.34399999999999953 #
point $-1 0.76912500000000006 -6.5 0.34399999999999953 #
coedge $-1 $435 $435 $508 $509 reversed $381 $-1 #
coedge $-1 $510 $511 $435 $477 forward $512 $-1 #
edge $-1 $513 0 $514 3.1415926535897976 $435 $515 forward 7 unknown #
coedge $-1 $516 $517 $436 $479 forward $518 $-1 #
edge $-1 $484 0 $483 3.1415926535897896 $436 $519 forward 7 unknown #
coedge $-1 $520 $437 $517 $521 forward $482 $-1 #
coedge $-1 $437 $520 $516 $522 reversed $482 $-1 #
loop $-1 $-1 $480 $496 #
vertex $-1 $479 $523 #
vertex $-1 $479 $524 #
ellipse-curve $-1 0.62850000000000006 -7.75 0.34399999999999953 0 -1 0 -0.203125 0 3.8857805861880479e-016 1 I I #
coedge $-1 $441 $441 $439 $487 forward $490 $-1 #
edge $-1 $443 0 $445 3.1415926535897913 $486 $525 forward 7 unknown #
face $-1 $154 $490 $3 $-1 $526 forward single #
cone-surface $-1 0.62850000000000006 -7.75 0.75 0 -1 0 0.125 0 0 1 I I 0 1 0.125 forward I I I I #
loop $-1 $-1 $441 $488 #
ellipse-curve $-1 0.62850000000000006 -7.1300000000000017 0.75000000000000011 0 -1 0 -0.125 0 -1.1102230246251565e-016 1 I I #
point $-1 0.75350000000000006 -7.1300000000000017 0.75 #
point $-1 0.50350000000000006 -7.1300000000000017 0.75 #
ellipse-curve $-1 0 -7.3700000000000019 0.75 0 -1 0 0.0625 0 0 1 I I #
plane-surface $-1 0 -7.3700000000000019 0.75 0 -1 0 1 0 0 forward_v I I I I #
face $-1 $527 $482 $3 $-1 $528 reversed single #
loop $-1 $471 $529 $458 #
plane-surface $-1 0.62850000000000006 -6.5 0.34399999999999953 0 -1 0 1 0 0 forward_v I I I I #
coedge $-1 $462 $462 $460 $500 reversed $503 $-1 #
edge $-1 $466 0 $464 3.1415926535897931 $460 $530 forward 7 unknown #
face $-1 $531 $532 $3 $-1 $533 forward single #
cone-surface $-1 0.62850000000000006 -7.75 1.1559999999999997 0 -1 0 0.140625 0 0 1 I I 0 1 0.140625 forward I I I I #
loop $-1 $-1 $462 $501 #
ellipse-curve $-1 0.62850000000000006 -6.5 1.1559999999999997 0 -1 0 -0.140625 0 0 1 I I #
point $-1 0.48787500000000006 -6.5 1.1559999999999997 #
point $-1 0.76912500000000006 -6.5 1.1559999999999997 #
ellipse-curve $-1 0.62850000000000006 -6.5 0.34399999999999953 0 -1 0 0.140625 0 0 1 I I #
coedge $-1 $534 $535 $475 $509 forward $536 $-1 #
edge $-1 $514 0 $513 3.1415926535897887 $475 $537 forward 7 unknown #
coedge $-1 $538 $476 $535 $539 forward $512 $-1 #
coedge $-1 $476 $538 $534 $540 reversed $512 $-1 #
loop $-1 $-1 $510 $531 #
vertex $-1 $509 $541 #
vertex $-1 $509 $542 #
ellipse-curve $-1 0.62850000000000006 -7.75 1.1559999999999997 0 -1 0 -0.203125 0 4.4408920985006262e-016 1 I I #
coedge $-1 $543 $478 $481 $522 forward $518 $-1 #
coedge $-1 $478 $543 $480 $521 reversed $518 $-1 #
loop $-1 $-1 $516 $527 #
ellipse-curve $-1 0.62850000000000006 -7.75 0.34399999999999953 0 -1 0 0.203125 0 3.8857805861880479e-016 1 I I #
coedge $-1 $481 $480 $529 $544 reversed $482 $-1 #
edge $-1 $484 0 $545 1.25 $517 $546 forward 7 unknown #
edge $-1 $483 0 $547 1.25 $516 $548 forward 7 unknown #
point $-1 0.42537500000000006 -7.75 0.34399999999999992 #
point $-1 0.83162500000000006 -7.75 0.34399999999999992 #
ellipse-curve $-1 0.62850000000000006 -7.1300000000000017 0.74999999999999989 0 -1 0 0.125 0 1.1102230246251565e-016 1 I I #
plane-surface $-1 0.62850000000000006 -7.1300000000000017 0.75 0 -1 0 1 0 0 forward_v I I I I #
face $-1 $425 $518 $3 $-1 $549 reversed single #
cone-surface $-1 0.62850000000000006 -7.75 0.34399999999999953 0 -1 0 0.203125 0 0 1 I I 0 1 0.203125 forward I I I I #
coedge $-1 $550 $550 $520 $544 forward $497 $-1 #
ellipse-curve $-1 0.62850000000000006 -6.5 1.1559999999999997 0 -1 0 0.140625 0 0 1 I I #
face $-1 $551 $512 $3 $-1 $552 reversed single #
loop $-1 $503 $553 $501 #
plane-surface $-1 0.62850000000000006 -6.5 1.1559999999999997 0 -1 0 1 0 0 forward_v I I I I #
coedge $-1 $554 $508 $511 $540 forward $536 $-1 #
coedge $-1 $508 $554 $510 $539 reversed $536 $-1 #
loop $-1 $-1 $534 $551 #
ellipse-curve $-1 0.62850000000000006 -7.75 1.1559999999999997 0 -1 0 0.203125 0 4.4408920985006262e-016 1 I I #
coedge $-1 $511 $510 $553 $555 reversed $512 $-1 #
edge $-1 $514 0 $556 1.25 $535 $557 forward 7 unknown #
edge $-1 $513 0 $558 1.25 $534 $559 forward 7 unknown #
point $-1 0.42537500000000006 -7.75 1.1560000000000001 #
point $-1 0.83162500000000006 -7.75 1.1560000000000001 #
coedge $-1 $517 $516 $550 $560 reversed $518 $-1 #
edge $-1 $547 0 $545 3.1415926535897931 $529 $561 forward 7 unknown #
vertex $-1 $560 $562 #
straight-curve $-1 0.83162500000000006 -7.75 0.34399999999999953 0 1 0 I I #
vertex $-1 $560 $563 #
straight-curve $-1 0.42537500000000006 -7.75 0.34399999999999953 0 1 0 I I #
cone-surface $-1 0.62850000000000006 -7.75 0.34399999999999953 0 -1 0 0.203125 0 0 1 I I 0 1 0.203125 forward I I I I #
coedge $-1 $529 $529 $543 $560 forward $497 $-1 #
face $-1 $266 $536 $3 $-1 $564 reversed single #
cone-surface $-1 0.62850000000000006 -7.75 1.1559999999999997 0 -1 0 0.203125 0 0 1 I I 0 1 0.203125 forward I I I I #
coedge $-1 $565 $565 $538 $555 forward $532 $-1 #
coedge $-1 $535 $534 $565 $566 reversed $536 $-1 #
edge $-1 $558 0 $556 3.1415926535897931 $553 $567 forward 7 unknown #
vertex $-1 $566 $568 #
straight-curve $-1 0.83162500000000006 -7.75 1.1559999999999997 0 1 0 I I #
vertex $-1 $566 $569 #
straight-curve $-1 0.42537500000000006 -7.75 1.1559999999999997 0 1 0 I I #
edge $-1 $545 0 $547 3.1415926535897931 $550 $570 forward 7 unknown #
ellipse-curve $-1 0.62850000000000006 -6.5 0.34399999999999953 0 -1 0 -0.203125 0 0 1 I I #
point $-1 0.83162500000000006 -6.5 0.34399999999999953 #
point $-1 0.42537500000000006 -6.5 0.34399999999999953 #
cone-surface $-1 0.62850000000000006 -7.75 1.1559999999999997 0 -1 0 0.203125 0 0 1 I I 0 1 0.203125 forward I I I I #
coedge $-1 $553 $553 $554 $566 forward $532 $-1 #
edge $-1 $556 0 $558 3.1415926535897931 $565 $571 forward 7 unknown #
ellipse-curve $-1 0.62850000000000006 -6.5 1.1559999999999997 0 -1 0 -0.203125 0 0 1 I I #
point $-1 0.83162500000000006 -6.5 1.1559999999999997 #
point $-1 0.42537500000000006 -6.5 1.1559999999999997 #
ellipse-curve $-1 0.62850000000000006 -6.5 0.34399999999999953 0 -1 0 0.203125 0 0 1 I I #
ellipse-curve $-1 0.62850000000000006 -6.5 1.1559999999999997 0 -1 0 0.203125 0 0 1 I I #
End-of-ACIS-data 