600 0 1 0           
116 GICL ACIS Healer - Source: /gicl/data5/repository/NIST/Manfred_Osti/spectrometer/spacer1_66/spacer1_66.prt.sat - 6 0 18 ACIS 6.0.3 Solaris 24 Sun Apr 14 00:37:11 2002 
1 9.999999999999999547e-07 1.000000000000000036e-10 
body $-1 $1 $-1 $-1 #
lump $-1 $-1 $2 $0 #
shell $-1 $-1 $-1 $3 $-1 $1 #
face $-1 $4 $5 $2 $-1 $6 forward single #
face $-1 $7 $8 $2 $-1 $9 reversed single #
loop $-1 $-1 $10 $3 #
plane-surface $-1 0 -196.8499999999999943 0 0 0 -1 25.39999999999999858 0 0 forward_v I I I I #
face $-1 $11 $12 $2 $-1 $13 reversed single #
loop $-1 $14 $15 $4 #
plane-surface $-1 -24.5998999999999981 -184.1499999999999773 0 0 -1 0 25.39999999999999858 0 0 forward_v I I I I #
coedge $-1 $16 $17 $18 $19 forward $5 $-1 #
face $-1 $20 $21 $2 $-1 $22 reversed single #
loop $-1 $-1 $23 $7 #
plane-surface $-1 -24.5998999999999981 -196.8499999999999943 0 1 0 0 0 25.39999999999999858 0 forward_v I I I I #
loop $-1 $24 $25 $4 #
coedge $-1 $26 $18 $27 $28 forward $8 $-1 #
coedge $-1 $29 $10 $30 $31 forward $5 $-1 #
coedge $-1 $10 $32 $33 $34 forward $5 $-1 #
coedge $-1 $15 $35 $10 $19 reversed $8 $-1 #
edge $-1 $36 0 $37 1.036999999999999922 $10 $38 forward 7 unknown #
face $-1 $39 $40 $2 $-1 $41 reversed single #
loop $-1 $42 $43 $11 #
plane-surface $-1 24.5998999999999981 -196.8499999999999943 0 0 1 0 -25.39999999999999858 0 0 forward_v I I I I #
coedge $-1 $44 $33 $45 $46 forward $12 $-1 #
loop $-1 $-1 $47 $4 #
coedge $-1 $48 $48 $49 $50 forward $14 $-1 #
coedge $-1 $35 $15 $51 $52 forward $8 $-1 #
coedge $-1 $33 $44 $15 $28 reversed $12 $-1 #
edge $-1 $36 0 $53 1.499999999999999778 $27 $54 forward 7 unknown #
coedge $-1 $55 $16 $56 $57 forward $5 $-1 #
coedge $-1 $58 $59 $16 $31 reversed $60 $-1 #
edge $-1 $37 0 $61 1.749999999999999556 $16 $62 forward 7 unknown #
coedge $-1 $17 $63 $64 $65 forward $5 $-1 #
coedge $-1 $23 $27 $17 $34 reversed $12 $-1 #
edge $-1 $66 0 $36 0.5000000000000006661 $17 $67 forward 7 unknown #
coedge $-1 $18 $26 $58 $68 reversed $8 $-1 #
vertex $-1 $34 $69 #
vertex $-1 $31 $70 #
straight-curve $-1 -24.5998999999999981 -184.1499999999999773 0 25.39999999999999858 0 0 I I #
face $-1 $71 $72 $2 $-1 $73 reversed single #
loop $-1 $-1 $74 $20 #
plane-surface $-1 24.5998999999999981 -152.3999999999999773 0 -1 0 0 0 -25.39999999999999858 0 forward_v I I I I #
loop $-1 $75 $76 $11 #
coedge $-1 $77 $64 $78 $79 forward $21 $-1 #
coedge $-1 $27 $23 $80 $81 forward $12 $-1 #
coedge $-1 $64 $77 $23 $46 reversed $21 $-1 #
edge $-1 $66 0 $82 1.499999999999999778 $23 $83 forward 7 unknown #
coedge $-1 $84 $84 $85 $86 forward $24 $-1 #
coedge $-1 $25 $25 $87 $88 forward $14 $-1 #
coedge $-1 $89 $90 $25 $50 reversed $91 $-1 #
edge $-1 $92 0 $93 3.141592653589793116 $25 $94 forward 7 unknown #
coedge $-1 $80 $95 $26 $52 reversed $96 $-1 #
edge $-1 $53 0 $97 1.036999999999999922 $51 $98 forward 7 unknown #
vertex $-1 $81 $99 #
straight-curve $-1 -24.5998999999999981 -184.1499999999999773 0 0 0 25.39999999999999858 I I #
coedge $-1 $100 $29 $101 $102 forward $5 $-1 #
coedge $-1 $103 $104 $29 $57 reversed $105 $-1 #
edge $-1 $61 0 $106 0.2199999999999999734 $29 $107 forward 7 unknown #
coedge $-1 $108 $30 $35 $68 forward $60 $-1 #
coedge $-1 $30 $108 $103 $109 reversed $60 $-1 #
loop $-1 $110 $58 $111 #
vertex $-1 $57 $112 #
straight-curve $-1 1.739900000000000002 -184.1499999999999773 0 0 25.39999999999999858 0 I I #
coedge $-1 $32 $100 $113 $114 forward $5 $-1 #
coedge $-1 $43 $45 $32 $65 reversed $21 $-1 #
edge $-1 $115 0 $66 1.937000000000000055 $32 $116 forward 7 unknown #
vertex $-1 $34 $117 #
straight-curve $-1 -24.5998999999999981 -196.8499999999999943 0 0 25.39999999999999858 0 I I #
edge $-1 $37 0 $97 1.499999999999999778 $35 $118 forward 7 unknown #
point $-1 -24.5998999999999981 -184.1499999999999773 0 #
point $-1 1.739900000000000002 -184.1499999999999773 0 #
face $-1 $119 $120 $2 $-1 $121 reversed single #
loop $-1 $122 $123 $39 #
plane-surface $-1 7.327899999999998748 -152.3999999999999773 0 0 -1 0 25.39999999999999858 0 0 forward_v I I I I #
coedge $-1 $124 $113 $125 $126 forward $40 $-1 #
loop $-1 $127 $128 $11 #
coedge $-1 $129 $129 $130 $131 reversed $42 $-1 #
coedge $-1 $45 $43 $132 $133 forward $21 $-1 #
coedge $-1 $113 $124 $43 $79 reversed $40 $-1 #
edge $-1 $115 0 $134 1.499999999999999778 $78 $135 forward 7 unknown #
coedge $-1 $132 $51 $44 $81 reversed $96 $-1 #
edge $-1 $82 0 $53 0.5000000000000006661 $80 $136 forward 7 unknown #
vertex $-1 $81 $137 #
straight-curve $-1 -24.5998999999999981 -196.8499999999999943 0 0 0 25.39999999999999858 I I #
coedge $-1 $47 $47 $138 $139 forward $24 $-1 #
coedge $-1 $140 $141 $47 $86 reversed $142 $-1 #
edge $-1 $143 0 $144 3.141592653589793116 $47 $145 forward 7 unknown #
coedge $-1 $146 $147 $48 $88 reversed $148 $-1 #
edge $-1 $93 0 $92 3.141592653589793116 $48 $149 forward 7 unknown #
coedge $-1 $150 $49 $147 $151 reversed $91 $-1 #
coedge $-1 $49 $150 $146 $152 forward $91 $-1 #
loop $-1 $-1 $89 $153 #
vertex $-1 $88 $154 #
vertex $-1 $88 $155 #
ellipse-curve $-1 -15.78610000000000113 -184.1499999999999773 8.737599999999998701 0 -1 0 -3.174999999999999822 0 0 1 I I #
coedge $-1 $51 $156 $108 $157 reversed $96 $-1 #
loop $-1 $-1 $132 $158 #
vertex $-1 $52 $159 #
straight-curve $-1 -24.5998999999999981 -184.1499999999999773 38.09999999999999432 25.39999999999999858 0 0 I I #
point $-1 -24.5998999999999981 -184.1499999999999773 38.09999999999999432 #
coedge $-1 $63 $55 $160 $161 forward $5 $-1 #
coedge $-1 $162 $163 $55 $102 reversed $120 $-1 #
edge $-1 $106 0 $164 0.4999999999999995559 $55 $165 forward 7 unknown #
coedge $-1 $166 $56 $59 $109 forward $105 $-1 #
coedge $-1 $56 $166 $162 $167 reversed $105 $-1 #
loop $-1 $-1 $103 $119 #
vertex $-1 $102 $168 #
straight-curve $-1 1.739900000000000002 -139.6999999999999886 0 25.39999999999999858 0 0 I I #
coedge $-1 $59 $58 $95 $157 forward $60 $-1 #
edge $-1 $61 0 $169 1.499999999999999778 $59 $170 forward 7 unknown #
loop $-1 $-1 $171 $111 #
face $-1 $158 $60 $2 $-1 $172 reversed single #
point $-1 1.739900000000000002 -139.6999999999999886 0 #
coedge $-1 $74 $78 $63 $114 reversed $40 $-1 #
edge $-1 $173 0 $115 1.750000000000000666 $63 $174 forward 7 unknown #
vertex $-1 $65 $175 #
straight-curve $-1 24.5998999999999981 -196.8499999999999943 0 -25.39999999999999858 0 0 I I #
point $-1 -24.5998999999999981 -196.8499999999999943 0 #
straight-curve $-1 1.739899999999997116 -184.1499999999999773 0 0 0 25.39999999999999858 I I #
face $-1 $111 $105 $2 $-1 $176 reversed single #
loop $-1 $177 $162 $71 #
plane-surface $-1 7.327899999999998748 -139.6999999999999886 0 -1 0 0 0 -25.39999999999999858 0 forward_v I I I I #
loop $-1 $178 $179 $39 #
coedge $-1 $180 $160 $163 $181 forward $72 $-1 #
coedge $-1 $78 $74 $182 $183 forward $40 $-1 #
coedge $-1 $160 $180 $74 $126 reversed $72 $-1 #
edge $-1 $173 0 $184 1.499999999999999778 $125 $185 forward 7 unknown #
loop $-1 $186 $187 $11 #
coedge $-1 $188 $188 $189 $190 reversed $75 $-1 #
coedge $-1 $76 $76 $191 $192 reversed $42 $-1 #
coedge $-1 $193 $194 $76 $131 forward $195 $-1 #
edge $-1 $196 0 $197 3.141592653589793116 $76 $198 forward 7 unknown #
coedge $-1 $182 $80 $77 $133 reversed $96 $-1 #
edge $-1 $134 0 $82 1.937000000000000055 $132 $199 forward 7 unknown #
vertex $-1 $183 $200 #
straight-curve $-1 24.5998999999999981 -196.8499999999999943 0 0 0 25.39999999999999858 I I #
straight-curve $-1 -24.5998999999999981 -196.8499999999999943 38.09999999999999432 0 25.39999999999999858 0 I I #
point $-1 -24.5998999999999981 -196.8499999999999943 38.09999999999999432 #
coedge $-1 $201 $202 $84 $139 reversed $203 $-1 #
edge $-1 $144 0 $143 3.141592653589793116 $84 $204 forward 7 unknown #
coedge $-1 $205 $85 $202 $206 reversed $142 $-1 #
coedge $-1 $85 $205 $201 $207 forward $142 $-1 #
loop $-1 $-1 $140 $208 #
vertex $-1 $139 $209 #
vertex $-1 $139 $210 #
ellipse-curve $-1 -15.78610000000000113 -184.1499999999999773 29.36240000000000094 0 -1 0 -3.174999999999999822 0 0 1 I I #
coedge $-1 $211 $87 $90 $152 reversed $148 $-1 #
coedge $-1 $87 $211 $89 $151 forward $148 $-1 #
loop $-1 $-1 $146 $212 #
ellipse-curve $-1 -15.78610000000000113 -184.1499999999999773 8.737599999999998701 0 -1 0 3.174999999999999822 0 0 1 I I #
coedge $-1 $90 $89 $213 $214 forward $91 $-1 #
edge $-1 $215 0 $92 0.5000000000000006661 $147 $216 forward 7 unknown #
edge $-1 $217 0 $93 0.5000000000000006661 $146 $218 forward 7 unknown #
face $-1 $212 $91 $2 $-1 $219 reversed single #
point $-1 -18.96110000000000184 -184.1499999999999773 8.737599999999998701 #
point $-1 -12.61110000000000042 -184.1499999999999773 8.737599999999998701 #
coedge $-1 $95 $220 $166 $221 reversed $96 $-1 #
edge $-1 $97 0 $169 1.749999999999999556 $95 $222 forward 7 unknown #
face $-1 $223 $96 $2 $-1 $224 reversed single #
point $-1 1.739900000000000002 -184.1499999999999773 38.09999999999999432 #
coedge $-1 $123 $125 $100 $161 reversed $72 $-1 #
edge $-1 $164 0 $173 0.6799999999999999378 $100 $225 forward 7 unknown #
coedge $-1 $226 $101 $104 $167 forward $120 $-1 #
coedge $-1 $101 $226 $123 $181 reversed $120 $-1 #
vertex $-1 $161 $227 #
straight-curve $-1 7.327899999999998748 -139.6999999999999886 0 0 -25.39999999999999858 0 I I #
coedge $-1 $104 $103 $156 $221 forward $105 $-1 #
edge $-1 $106 0 $228 1.499999999999999778 $104 $229 forward 7 unknown #
point $-1 7.327899999999998748 -139.6999999999999886 0 #
vertex $-1 $157 $230 #
straight-curve $-1 1.739900000000000002 -139.6999999999999886 0 0 0 25.39999999999999858 I I #
coedge $-1 $231 $231 $232 $233 forward $110 $-1 #
plane-surface $-1 1.739900000000000002 -184.1499999999999773 0 1 0 0 0 25.39999999999999858 0 forward_v I I I I #
vertex $-1 $114 $234 #
straight-curve $-1 24.5998999999999981 -152.3999999999999773 0 0 -25.39999999999999858 0 I I #
point $-1 24.5998999999999981 -196.8499999999999943 0 #
plane-surface $-1 1.739900000000000002 -139.6999999999999886 0 0 -1 0 25.39999999999999858 0 0 forward_v I I I I #
loop $-1 $-1 $235 $71 #
loop $-1 $-1 $236 $39 #
coedge $-1 $237 $237 $238 $239 forward $122 $-1 #
coedge $-1 $125 $123 $240 $241 forward $72 $-1 #
edge $-1 $164 0 $242 1.499999999999999778 $163 $243 forward 7 unknown #
coedge $-1 $240 $132 $124 $183 reversed $96 $-1 #
edge $-1 $184 0 $134 1.750000000000000666 $182 $244 forward 7 unknown #
vertex $-1 $241 $245 #
straight-curve $-1 24.5998999999999981 -152.3999999999999773 0 0 0 25.39999999999999858 I I #
loop $-1 $246 $213 $11 #
coedge $-1 $247 $247 $248 $249 reversed $127 $-1 #
coedge $-1 $128 $128 $250 $251 reversed $75 $-1 #
coedge $-1 $252 $253 $128 $190 forward $254 $-1 #
edge $-1 $255 0 $256 3.141592653589793116 $128 $257 forward 7 unknown #
coedge $-1 $258 $259 $129 $192 forward $260 $-1 #
edge $-1 $197 0 $196 3.141592653589793116 $129 $261 forward 7 unknown #
coedge $-1 $262 $130 $259 $263 forward $195 $-1 #
coedge $-1 $130 $262 $258 $264 reversed $195 $-1 #
loop $-1 $-1 $193 $265 #
vertex $-1 $192 $266 #
vertex $-1 $192 $267 #
ellipse-curve $-1 -15.78610000000000113 -196.8499999999999943 19.04999999999999716 0 -1 0 -1.587499999999999911 0 0 1 I I #
straight-curve $-1 24.5998999999999981 -196.8499999999999943 38.09999999999999432 -25.39999999999999858 0 0 I I #
point $-1 24.5998999999999981 -196.8499999999999943 38.09999999999999432 #
coedge $-1 $268 $138 $141 $207 reversed $203 $-1 #
coedge $-1 $138 $268 $140 $206 forward $203 $-1 #
loop $-1 $-1 $201 $269 #
ellipse-curve $-1 -15.78610000000000113 -184.1499999999999773 29.36240000000000094 0 -1 0 3.174999999999999822 0 0 1 I I #
coedge $-1 $141 $140 $270 $271 forward $142 $-1 #
edge $-1 $272 0 $143 0.5000000000000006661 $202 $273 forward 7 unknown #
edge $-1 $274 0 $144 0.5000000000000006661 $201 $275 forward 7 unknown #
face $-1 $269 $142 $2 $-1 $276 reversed single #
point $-1 -18.96110000000000184 -184.1499999999999773 29.36240000000000094 #
point $-1 -12.61110000000000042 -184.1499999999999773 29.36240000000000094 #
coedge $-1 $147 $146 $277 $278 forward $148 $-1 #
face $-1 $208 $148 $2 $-1 $279 reversed single #
coedge $-1 $277 $277 $150 $214 reversed $186 $-1 #
edge $-1 $215 1.95818864185855316e-16 $217 3.141592653589799333 $213 $280 forward 7 unknown #
vertex $-1 $278 $281 #
straight-curve $-1 -18.96110000000000184 -196.8499999999999943 8.737599999999988043 0 25.39999999999999858 0 I I #
vertex $-1 $278 $282 #
straight-curve $-1 -12.61110000000000042 -196.8499999999999943 8.737599999999988043 0 25.39999999999999858 0 I I #
cone-surface $-1 -15.78610000000000113 -196.8499999999999943 8.737599999999988043 0 -1 0 3.174999999999999822 0 0 1 I I 0 1 3.174999999999999822 forward I I I I #
coedge $-1 $156 $240 $226 $283 reversed $96 $-1 #
edge $-1 $169 0 $228 0.2199999999999999734 $156 $284 forward 7 unknown #
straight-curve $-1 1.739900000000000002 -184.1499999999999773 38.09999999999999432 0 25.39999999999999858 0 I I #
face $-1 $285 $286 $2 $-1 $287 reversed single #
plane-surface $-1 0 -196.8499999999999943 38.09999999999999432 0 0 -1 25.39999999999999858 0 0 forward_v I I I I #
straight-curve $-1 7.327899999999998748 -152.3999999999999773 0 25.39999999999999858 0 0 I I #
coedge $-1 $163 $162 $220 $283 forward $120 $-1 #
point $-1 7.327899999999998748 -152.3999999999999773 0 #
vertex $-1 $221 $288 #
straight-curve $-1 7.327899999999998748 -139.6999999999999886 0 0 0 25.39999999999999858 I I #
point $-1 1.739900000000000002 -139.6999999999999886 38.09999999999999432 #
coedge $-1 $171 $171 $289 $290 forward $110 $-1 #
coedge $-1 $291 $292 $171 $233 reversed $286 $-1 #
edge $-1 $293 0 $294 3.141592653589793116 $171 $295 forward 7 unknown #
point $-1 24.5998999999999981 -152.3999999999999773 0 #
coedge $-1 $296 $296 $297 $298 reversed $177 $-1 #
coedge $-1 $299 $299 $300 $301 forward $178 $-1 #
coedge $-1 $179 $179 $302 $303 forward $122 $-1 #
coedge $-1 $304 $305 $179 $239 reversed $306 $-1 #
edge $-1 $307 0 $308 3.141592653589792672 $179 $309 forward 7 unknown #
coedge $-1 $220 $182 $180 $241 reversed $96 $-1 #
edge $-1 $242 0 $184 0.6799999999999999378 $240 $310 forward 7 unknown #
vertex $-1 $283 $311 #
straight-curve $-1 7.327899999999998748 -152.3999999999999773 0 0 0 25.39999999999999858 I I #
straight-curve $-1 24.5998999999999981 -152.3999999999999773 38.09999999999999432 0 -25.39999999999999858 0 I I #
point $-1 24.5998999999999981 -152.3999999999999773 38.09999999999999432 #
loop $-1 $312 $270 $11 #
coedge $-1 $187 $187 $313 $314 reversed $127 $-1 #
coedge $-1 $315 $316 $187 $249 forward $317 $-1 #
edge $-1 $318 0 $319 3.141592653589793116 $187 $320 forward 7 unknown #
coedge $-1 $321 $322 $188 $251 forward $323 $-1 #
edge $-1 $256 0 $255 3.141592653589793116 $188 $324 forward 7 unknown #
coedge $-1 $325 $189 $322 $326 forward $254 $-1 #
coedge $-1 $189 $325 $321 $327 reversed $254 $-1 #
loop $-1 $-1 $252 $328 #
vertex $-1 $251 $329 #
vertex $-1 $251 $330 #
ellipse-curve $-1 0 -196.8499999999999943 19.04999999999999716 0 -1 0 -1.587500000000002798 0 0 1 I I #
coedge $-1 $331 $191 $194 $264 forward $260 $-1 #
coedge $-1 $191 $331 $193 $263 reversed $260 $-1 #
loop $-1 $-1 $258 $332 #
ellipse-curve $-1 -15.78610000000000113 -196.8499999999999943 19.04999999999999716 0 -1 0 1.587499999999999911 0 0 1 I I #
coedge $-1 $194 $193 $333 $334 reversed $195 $-1 #
edge $-1 $197 0 $335 0.3799999999999983946 $259 $336 forward 7 unknown #
edge $-1 $196 0 $337 0.3799999999999983946 $258 $338 forward 7 unknown #
face $-1 $332 $195 $2 $-1 $339 reversed single #
point $-1 -17.37359999999999971 -196.8499999999999943 19.04999999999999716 #
point $-1 -14.19860000000000078 -196.8499999999999943 19.04999999999999716 #
coedge $-1 $202 $201 $340 $341 forward $203 $-1 #
face $-1 $-1 $203 $2 $-1 $342 reversed single #
coedge $-1 $340 $340 $205 $271 reversed $246 $-1 #
edge $-1 $272 1.95818864185855316e-16 $274 3.141592653589799777 $270 $343 forward 7 unknown #
vertex $-1 $341 $344 #
straight-curve $-1 -18.96110000000000184 -196.8499999999999943 29.36239999999999029 0 25.39999999999999858 0 I I #
vertex $-1 $341 $345 #
straight-curve $-1 -12.61110000000000042 -196.8499999999999943 29.36239999999999029 0 25.39999999999999858 0 I I #
cone-surface $-1 -15.78610000000000113 -196.8499999999999943 29.36239999999999029 0 -1 0 3.174999999999999822 0 0 1 I I 0 1 3.174999999999999822 forward I I I I #
coedge $-1 $213 $213 $211 $278 reversed $186 $-1 #
edge $-1 $217 -3.112121234382333889e-16 $215 3.141592653589786899 $277 $346 forward 7 unknown #
cone-surface $-1 -15.78610000000000113 -196.8499999999999943 8.737599999999988043 0 -1 0 3.174999999999999822 0 0 1 I I 0 1 3.174999999999999822 forward I I I I #
ellipse-curve $-1 -15.78610000000000113 -196.8499999999999943 8.737599999999988043 0 -1 0 -3.174999999999999822 0 1.127986593019158982e-14 1 I I #
point $-1 -18.96110000000000184 -196.8499999999999943 8.737599999999998701 #
point $-1 -12.61110000000000042 -196.8499999999999943 8.737599999999996925 #
edge $-1 $228 0 $242 0.4999999999999995559 $220 $347 forward 7 unknown #
straight-curve $-1 1.739900000000000002 -139.6999999999999886 38.09999999999999432 25.39999999999999858 0 0 I I #
face $-1 $348 $349 $2 $-1 $350 reversed single #
loop $-1 $-1 $291 $223 #
cone-surface $-1 7.327899999999998748 -146.0499999999999829 19.04999999999999716 1 0 0 0 3.174999999999999822 0 1 I I 0 1 3.174999999999999822 forward I I I I #
point $-1 7.327899999999998748 -139.6999999999999886 38.09999999999999432 #
coedge $-1 $351 $352 $231 $290 reversed $349 $-1 #
edge $-1 $294 0 $293 3.141592653589793116 $231 $353 forward 7 unknown #
coedge $-1 $297 $232 $352 $354 reversed $286 $-1 #
coedge $-1 $232 $297 $351 $355 forward $286 $-1 #
vertex $-1 $290 $356 #
vertex $-1 $290 $357 #
ellipse-curve $-1 1.739900000000000002 -146.0499999999999829 19.04999999999999716 1 0 0 0 -3.174999999999999822 0 1 I I #
coedge $-1 $235 $235 $358 $359 reversed $177 $-1 #
coedge $-1 $292 $291 $235 $298 forward $286 $-1 #
edge $-1 $360 0 $361 3.141592653589793116 $235 $362 forward 7 unknown #
coedge $-1 $236 $236 $363 $364 forward $178 $-1 #
coedge $-1 $365 $366 $236 $301 reversed $367 $-1 #
edge $-1 $368 0 $369 3.141592653589793116 $236 $370 forward 7 unknown #
coedge $-1 $371 $372 $237 $303 reversed $373 $-1 #
edge $-1 $308 -1.02571786002114137e-16 $307 3.14159265358979356 $237 $374 forward 7 unknown #
coedge $-1 $375 $238 $372 $376 reversed $306 $-1 #
coedge $-1 $238 $375 $371 $377 forward $306 $-1 #
loop $-1 $-1 $305 $348 #
vertex $-1 $303 $378 #
vertex $-1 $303 $379 #
ellipse-curve $-1 15.96390000000000065 -152.3999999999999773 8.737599999999998701 0 -1 0 -3.571874999999999911 0 0 1 I I #
straight-curve $-1 7.327899999999998748 -152.3999999999999773 38.09999999999999432 25.39999999999999858 0 0 I I #
point $-1 7.327899999999998748 -152.3999999999999773 38.09999999999999432 #
loop $-1 $380 $381 $11 #
coedge $-1 $382 $383 $247 $314 forward $384 $-1 #
edge $-1 $319 0 $318 3.141592653589793116 $247 $385 forward 7 unknown #
coedge $-1 $386 $248 $383 $387 forward $317 $-1 #
coedge $-1 $248 $386 $382 $388 reversed $317 $-1 #
loop $-1 $-1 $315 $389 #
vertex $-1 $314 $390 #
vertex $-1 $314 $391 #
ellipse-curve $-1 15.96390000000000065 -196.8499999999999943 19.04999999999999716 0 -1 0 -3.174999999999999822 0 0 1 I I #
coedge $-1 $392 $250 $253 $327 forward $323 $-1 #
coedge $-1 $250 $392 $252 $326 reversed $323 $-1 #
loop $-1 $-1 $321 $393 #
ellipse-curve $-1 0 -196.8499999999999943 19.04999999999999716 0 -1 0 1.587499999999999911 0 0 1 I I #
coedge $-1 $253 $252 $394 $395 reversed $254 $-1 #
edge $-1 $256 0 $396 0.3799999999999983946 $322 $397 forward 7 unknown #
edge $-1 $255 0 $398 0.3799999999999983946 $321 $399 forward 7 unknown #
face $-1 $393 $254 $2 $-1 $400 reversed single #
point $-1 -1.587500000000002798 -196.8499999999999943 19.04999999999999716 #
point $-1 1.587499999999999911 -196.8499999999999943 19.04999999999999716 #
coedge $-1 $259 $258 $401 $402 reversed $260 $-1 #
face $-1 $403 $260 $2 $-1 $404 reversed single #
coedge $-1 $401 $401 $262 $334 forward $405 $-1 #
edge $-1 $337 0 $335 3.141592653589793116 $333 $406 forward 7 unknown #
vertex $-1 $402 $407 #
straight-curve $-1 -14.19860000000000078 -196.8499999999999943 19.04999999999999716 0 25.39999999999999858 0 I I #
vertex $-1 $402 $408 #
straight-curve $-1 -17.37359999999999971 -196.8499999999999943 19.04999999999999716 0 25.39999999999999858 0 I I #
cone-surface $-1 -15.78610000000000113 -196.8499999999999943 19.04999999999999716 0 -1 0 1.587499999999999911 0 0 1 I I 0 1 1.587499999999999911 forward I I I I #
coedge $-1 $270 $270 $268 $341 reversed $246 $-1 #
edge $-1 $274 -1.95818864185855316e-16 $272 3.141592653589786455 $340 $409 forward 7 unknown #
cone-surface $-1 -15.78610000000000113 -196.8499999999999943 29.36239999999999029 0 -1 0 3.174999999999999822 0 0 1 I I 0 1 3.174999999999999822 forward I I I I #
ellipse-curve $-1 -15.78610000000000113 -196.8499999999999943 29.36239999999999029 0 -1 0 -3.174999999999999822 0 1.127986593019158982e-14 1 I I #
point $-1 -18.96110000000000184 -196.8499999999999943 29.36240000000000094 #
point $-1 -12.61110000000000042 -196.8499999999999943 29.36240000000000094 #
ellipse-curve $-1 -15.78610000000000113 -196.8499999999999943 8.737599999999988043 0 -1 0 3.174999999999999822 0 9.869882688917640698e-15 1 I I #
straight-curve $-1 7.327899999999998748 -139.6999999999999886 38.09999999999999432 0 -25.39999999999999858 0 I I #
face $-1 $410 $306 $2 $-1 $411 reversed single #
loop $-1 $-1 $351 $285 #
cone-surface $-1 7.327899999999998748 -146.0499999999999829 19.04999999999999716 1 0 0 0 3.174999999999999822 0 1 I I 0 1 3.174999999999999822 forward I I I I #
coedge $-1 $358 $289 $292 $355 reversed $349 $-1 #
coedge $-1 $289 $358 $291 $354 forward $349 $-1 #
ellipse-curve $-1 1.739900000000000002 -146.0499999999999829 19.04999999999999716 1 0 0 0 3.174999999999999822 0 1 I I #
edge $-1 $360 0 $293 0.2199999999999999734 $352 $412 forward 7 unknown #
edge $-1 $361 0 $294 0.2199999999999999734 $351 $413 forward 7 unknown #
point $-1 1.739900000000000002 -149.2249999999999943 19.04999999999999716 #
point $-1 1.739900000000000002 -142.875 19.04999999999999716 #
coedge $-1 $352 $351 $296 $359 forward $349 $-1 #
edge $-1 $361 0 $360 3.141592653589793116 $296 $414 forward 7 unknown #
vertex $-1 $359 $415 #
vertex $-1 $359 $416 #
ellipse-curve $-1 7.327899999999998748 -146.0499999999999829 19.04999999999999716 1 0 0 0 -3.174999999999999822 0 1 I I #
coedge $-1 $417 $418 $299 $364 reversed $419 $-1 #
edge $-1 $369 0 $368 3.141592653589793116 $299 $420 forward 7 unknown #
coedge $-1 $421 $300 $418 $422 reversed $367 $-1 #
coedge $-1 $300 $421 $417 $423 forward $367 $-1 #
loop $-1 $-1 $366 $424 #
vertex $-1 $364 $425 #
vertex $-1 $364 $426 #
ellipse-curve $-1 15.96390000000000065 -152.3999999999999773 29.36240000000000094 0 -1 0 -3.571874999999999911 0 0 1 I I #
coedge $-1 $427 $302 $305 $377 reversed $373 $-1 #
coedge $-1 $302 $427 $304 $376 forward $373 $-1 #
loop $-1 $-1 $372 $410 #
ellipse-curve $-1 15.96390000000000065 -152.3999999999999773 8.737599999999998701 0 -1 0 3.571874999999999911 0 -1.409983241273948727e-15 1 I I #
coedge $-1 $305 $304 $428 $429 forward $306 $-1 #
edge $-1 $430 0 $307 0.5000000000000006661 $372 $431 forward 7 unknown #
edge $-1 $432 0 $308 0.5000000000000006661 $371 $433 forward 7 unknown #
point $-1 12.39202500000000029 -152.3999999999999773 8.737599999999998701 #
point $-1 19.535775000000001 -152.3999999999999773 8.737599999999996925 #
loop $-1 $-1 $434 $11 #
coedge $-1 $435 $435 $436 $437 reversed $312 $-1 #
coedge $-1 $438 $313 $316 $388 forward $384 $-1 #
coedge $-1 $313 $438 $315 $387 reversed $384 $-1 #
loop $-1 $-1 $382 $439 #
ellipse-curve $-1 15.96390000000000065 -196.8499999999999943 19.04999999999999716 0 -1 0 3.174999999999999822 0 0 1 I I #
coedge $-1 $316 $315 $440 $441 reversed $317 $-1 #
edge $-1 $319 0 $442 0.6199999999999985523 $383 $443 forward 7 unknown #
edge $-1 $318 0 $444 0.6199999999999985523 $382 $445 forward 7 unknown #
face $-1 $439 $317 $2 $-1 $446 reversed single #
point $-1 12.78889999999999993 -196.8499999999999943 19.04999999999999716 #
point $-1 19.13889999999999958 -196.8499999999999943 19.04999999999999716 #
coedge $-1 $322 $321 $447 $448 reversed $323 $-1 #
face $-1 $449 $323 $2 $-1 $450 reversed single #
coedge $-1 $447 $447 $325 $395 forward $451 $-1 #
edge $-1 $398 0 $396 3.141592653589793116 $394 $452 forward 7 unknown #
vertex $-1 $448 $453 #
straight-curve $-1 1.587499999999999911 -196.8499999999999943 19.04999999999999716 0 25.39999999999999858 0 I I #
vertex $-1 $448 $454 #
straight-curve $-1 -1.587499999999999911 -196.8499999999999943 19.04999999999999716 0 25.39999999999999858 0 I I #
cone-surface $-1 0 -196.8499999999999943 19.04999999999999716 0 -1 0 1.587499999999999911 0 0 1 I I 0 1 1.587499999999999911 forward I I I I #
coedge $-1 $333 $333 $331 $402 forward $405 $-1 #
edge $-1 $335 0 $337 3.141592653589793116 $401 $455 forward 7 unknown #
face $-1 $328 $405 $2 $-1 $456 forward single #
cone-surface $-1 -15.78610000000000113 -196.8499999999999943 19.04999999999999716 0 -1 0 1.587499999999999911 0 0 1 I I 0 1 1.587499999999999911 forward I I I I #
loop $-1 $-1 $333 $403 #
ellipse-curve $-1 -15.78610000000000113 -187.1980000000000359 19.04999999999999716 0 -1 0 -1.587499999999999911 0 0 1 I I #
point $-1 -14.19860000000000078 -187.1980000000000359 19.04999999999999716 #
point $-1 -17.37359999999999971 -187.1980000000000359 19.04999999999999716 #
ellipse-curve $-1 -15.78610000000000113 -196.8499999999999943 29.36239999999999029 0 -1 0 3.174999999999999822 0 1.127986593019158982e-14 1 I I #
face $-1 $457 $373 $2 $-1 $458 reversed single #
cone-surface $-1 15.96390000000000065 -196.8499999999999943 8.737599999999988043 0 -1 0 3.571874999999999911 0 0 1 I I 0 1 3.571874999999999911 forward I I I I #
straight-curve $-1 7.327899999999998748 -149.2249999999999943 19.04999999999999716 -25.39999999999999858 0 0 I I #
straight-curve $-1 7.327899999999998748 -142.875 19.04999999999999716 -25.39999999999999858 0 0 I I #
ellipse-curve $-1 7.327899999999998748 -146.0499999999999829 19.04999999999999716 1 0 0 0 3.174999999999999822 0 1 I I #
point $-1 7.327899999999998748 -149.2249999999999943 19.04999999999999716 #
point $-1 7.327899999999998748 -142.875 19.04999999999999716 #
coedge $-1 $459 $363 $366 $423 reversed $419 $-1 #
coedge $-1 $363 $459 $365 $422 forward $419 $-1 #
loop $-1 $-1 $418 $460 #
ellipse-curve $-1 15.96390000000000065 -152.3999999999999773 29.36240000000000094 0 -1 0 3.571874999999999911 0 0 1 I I #
coedge $-1 $366 $365 $461 $462 forward $367 $-1 #
edge $-1 $463 0 $368 0.5000000000000006661 $418 $464 forward 7 unknown #
edge $-1 $465 0 $369 0.5000000000000006661 $417 $466 forward 7 unknown #
face $-1 $460 $367 $2 $-1 $467 reversed single #
point $-1 12.39202500000000029 -152.3999999999999773 29.36240000000000094 #
point $-1 19.535775000000001 -152.3999999999999773 29.36240000000000094 #
coedge $-1 $372 $371 $468 $469 forward $373 $-1 #
coedge $-1 $468 $468 $375 $429 reversed $470 $-1 #
edge $-1 $430 0 $432 3.141592653589793116 $375 $471 forward 7 unknown #
vertex $-1 $469 $472 #
straight-curve $-1 12.39202500000000029 -165.0999999999999943 8.737599999999988043 0 25.39999999999999858 0 I I #
vertex $-1 $469 $473 #
straight-curve $-1 19.535775000000001 -165.0999999999999943 8.737599999999988043 0 25.39999999999999858 0 I I #
coedge $-1 $474 $474 $475 $476 reversed $380 $-1 #
coedge $-1 $381 $381 $477 $478 reversed $312 $-1 #
coedge $-1 $479 $480 $381 $437 forward $481 $-1 #
edge $-1 $482 1.915151528850658494e-16 $483 3.141592653589796669 $381 $484 forward 7 unknown #
coedge $-1 $383 $382 $485 $486 reversed $384 $-1 #
face $-1 $487 $384 $2 $-1 $488 reversed single #
coedge $-1 $485 $485 $386 $441 forward $489 $-1 #
edge $-1 $444 2.307865185047567374e-16 $442 3.14159265358979134 $440 $490 forward 7 unknown #
vertex $-1 $486 $491 #
straight-curve $-1 19.13889999999999958 -196.8499999999999943 19.04999999999999716 0 25.39999999999999858 0 I I #
vertex $-1 $486 $492 #
straight-curve $-1 12.78889999999999993 -196.8499999999999943 19.04999999999999716 0 25.39999999999999858 0 I I #
cone-surface $-1 15.96390000000000065 -196.8499999999999943 19.04999999999999716 0 -1 0 3.174999999999999822 0 0 1 I I 0 1 3.174999999999999822 forward I I I I #
coedge $-1 $394 $394 $392 $448 forward $451 $-1 #
edge $-1 $396 0 $398 3.141592653589793116 $447 $493 forward 7 unknown #
face $-1 $389 $451 $2 $-1 $494 forward single #
cone-surface $-1 0 -196.8499999999999943 19.04999999999999716 0 -1 0 1.587499999999999911 0 0 1 I I 0 1 1.587499999999999911 forward I I I I #
loop $-1 $-1 $394 $449 #
ellipse-curve $-1 0 -187.1980000000000359 19.04999999999999716 0 -1 0 -1.587499999999999911 0 0 1 I I #
point $-1 1.587499999999999911 -187.1980000000000359 19.04999999999999716 #
point $-1 -1.587499999999999911 -187.1980000000000359 19.04999999999999716 #
ellipse-curve $-1 -15.78610000000000113 -187.1980000000000359 19.04999999999999716 0 -1 0 1.587499999999999911 0 0 1 I I #
plane-surface $-1 -15.78610000000000113 -187.1980000000000359 19.04999999999999716 0 -1 0 25.39999999999999858 0 0 forward_v I I I I #
face $-1 $495 $496 $2 $-1 $497 forward single #
cone-surface $-1 15.96390000000000065 -196.8499999999999943 8.737599999999988043 0 -1 0 3.571874999999999911 0 0 1 I I 0 1 3.571874999999999911 forward I I I I #
coedge $-1 $418 $417 $498 $499 forward $419 $-1 #
face $-1 $500 $419 $2 $-1 $501 reversed single #
coedge $-1 $498 $498 $421 $462 reversed $502 $-1 #
edge $-1 $463 0 $465 3.141592653589793116 $421 $503 forward 7 unknown #
vertex $-1 $499 $504 #
straight-curve $-1 12.39202500000000029 -165.0999999999999943 29.36239999999999029 0 25.39999999999999858 0 I I #
vertex $-1 $499 $505 #
straight-curve $-1 19.535775000000001 -165.0999999999999943 29.36239999999999029 0 25.39999999999999858 0 I I #
cone-surface $-1 15.96390000000000065 -196.8499999999999943 29.36239999999999029 0 -1 0 3.571874999999999911 0 0 1 I I 0 1 3.571874999999999911 forward I I I I #
coedge $-1 $428 $428 $427 $469 reversed $470 $-1 #
edge $-1 $432 0 $430 3.141592653589793116 $427 $506 forward 7 unknown #
loop $-1 $-1 $428 $457 #
ellipse-curve $-1 15.96390000000000065 -165.0999999999999943 8.737599999999988043 0 -1 0 -3.571874999999999911 0 0 1 I I #
point $-1 12.39202500000000029 -165.0999999999999943 8.737599999999988043 #
point $-1 19.535775000000001 -165.0999999999999943 8.737599999999988043 #
coedge $-1 $434 $434 $507 $508 reversed $380 $-1 #
coedge $-1 $509 $510 $434 $476 forward $511 $-1 #
edge $-1 $512 1.205039164220639451e-16 $513 3.141592653589797113 $434 $514 forward 7 unknown #
coedge $-1 $515 $516 $435 $478 forward $517 $-1 #
edge $-1 $483 -1.915151528850658494e-16 $482 3.141592653589789563 $435 $518 forward 7 unknown #
coedge $-1 $519 $436 $516 $520 forward $481 $-1 #
coedge $-1 $436 $519 $515 $521 reversed $481 $-1 #
loop $-1 $-1 $479 $495 #
vertex $-1 $478 $522 #
vertex $-1 $478 $523 #
ellipse-curve $-1 15.96390000000000065 -196.8499999999999943 8.737599999999988043 0 -1 0 -5.159374999999999822 0 9.869882688917640698e-15 1 I I #
coedge $-1 $440 $440 $438 $486 forward $489 $-1 #
edge $-1 $442 -8.881784197001252323e-16 $444 3.141592653589792228 $485 $524 forward 7 unknown #
face $-1 $153 $489 $2 $-1 $525 forward single #
cone-surface $-1 15.96390000000000065 -196.8499999999999943 19.04999999999999716 0 -1 0 3.174999999999999822 0 0 1 I I 0 1 3.174999999999999822 forward I I I I #
loop $-1 $-1 $440 $487 #
ellipse-curve $-1 15.96390000000000065 -181.1020000000000323 19.05000000000000071 0 -1 0 -3.174999999999999822 0 -2.819966482547897455e-15 1 I I #
point $-1 19.13889999999999958 -181.1020000000000323 19.04999999999999716 #
point $-1 12.78889999999999993 -181.1020000000000323 19.04999999999999716 #
ellipse-curve $-1 0 -187.1980000000000359 19.04999999999999716 0 -1 0 1.587499999999999911 0 0 1 I I #
plane-surface $-1 0 -187.1980000000000359 19.04999999999999716 0 -1 0 25.39999999999999858 0 0 forward_v I I I I #
face $-1 $526 $481 $2 $-1 $527 reversed single #
loop $-1 $470 $528 $457 #
plane-surface $-1 15.96390000000000065 -165.0999999999999943 8.737599999999988043 0 -1 0 25.39999999999999858 0 0 forward_v I I I I #
coedge $-1 $461 $461 $459 $499 reversed $502 $-1 #
edge $-1 $465 0 $463 3.141592653589793116 $459 $529 forward 7 unknown #
face $-1 $530 $531 $2 $-1 $532 forward single #
cone-surface $-1 15.96390000000000065 -196.8499999999999943 29.36239999999999029 0 -1 0 3.571874999999999911 0 0 1 I I 0 1 3.571874999999999911 forward I I I I #
loop $-1 $-1 $461 $500 #
ellipse-curve $-1 15.96390000000000065 -165.0999999999999943 29.36239999999999029 0 -1 0 -3.571874999999999911 0 0 1 I I #
point $-1 12.39202500000000029 -165.0999999999999943 29.36239999999999029 #
point $-1 19.535775000000001 -165.0999999999999943 29.36239999999999029 #
ellipse-curve $-1 15.96390000000000065 -165.0999999999999943 8.737599999999988043 0 -1 0 3.571874999999999911 0 0 1 I I #
coedge $-1 $533 $534 $474 $508 forward $535 $-1 #
edge $-1 $513 -1.205039164220639451e-16 $512 3.141592653589789119 $474 $536 forward 7 unknown #
coedge $-1 $537 $475 $534 $538 forward $511 $-1 #
coedge $-1 $475 $537 $533 $539 reversed $511 $-1 #
loop $-1 $-1 $509 $530 #
vertex $-1 $508 $540 #
vertex $-1 $508 $541 #
ellipse-curve $-1 15.96390000000000065 -196.8499999999999943 29.36239999999999029 0 -1 0 -5.159374999999999822 0 1.127986593019158982e-14 1 I I #
coedge $-1 $542 $477 $480 $521 forward $517 $-1 #
coedge $-1 $477 $542 $479 $520 reversed $517 $-1 #
loop $-1 $-1 $515 $526 #
ellipse-curve $-1 15.96390000000000065 -196.8499999999999943 8.737599999999988043 0 -1 0 5.159374999999999822 0 9.869882688917640698e-15 1 I I #
coedge $-1 $480 $479 $528 $543 reversed $481 $-1 #
edge $-1 $483 0 $544 1.25 $516 $545 forward 7 unknown #
edge $-1 $482 0 $546 1.25 $515 $547 forward 7 unknown #
point $-1 10.80452500000000171 -196.8499999999999943 8.737599999999996925 #
point $-1 21.12327499999999958 -196.8499999999999943 8.737599999999996925 #
ellipse-curve $-1 15.96390000000000065 -181.1020000000000323 19.04999999999999716 0 -1 0 3.174999999999999822 0 2.819966482547897455e-15 1 I I #
plane-surface $-1 15.96390000000000065 -181.1020000000000323 19.04999999999999716 0 -1 0 25.39999999999999858 0 0 forward_v I I I I #
face $-1 $424 $517 $2 $-1 $548 reversed single #
cone-surface $-1 15.96390000000000065 -196.8499999999999943 8.737599999999988043 0 -1 0 5.159374999999999822 0 0 1 I I 0 1 5.159374999999999822 forward I I I I #
coedge $-1 $549 $549 $519 $543 forward $496 $-1 #
ellipse-curve $-1 15.96390000000000065 -165.0999999999999943 29.36239999999999029 0 -1 0 3.571874999999999911 0 0 1 I I #
face $-1 $550 $511 $2 $-1 $551 reversed single #
loop $-1 $502 $552 $500 #
plane-surface $-1 15.96390000000000065 -165.0999999999999943 29.36239999999999029 0 -1 0 25.39999999999999858 0 0 forward_v I I I I #
coedge $-1 $553 $507 $510 $539 forward $535 $-1 #
coedge $-1 $507 $553 $509 $538 reversed $535 $-1 #
loop $-1 $-1 $533 $550 #
ellipse-curve $-1 15.96390000000000065 -196.8499999999999943 29.36239999999999029 0 -1 0 5.159374999999999822 0 1.127986593019158982e-14 1 I I #
coedge $-1 $510 $509 $552 $554 reversed $511 $-1 #
edge $-1 $513 0 $555 1.25 $534 $556 forward 7 unknown #
edge $-1 $512 0 $557 1.25 $533 $558 forward 7 unknown #
point $-1 10.80452500000000171 -196.8499999999999943 29.36240000000000094 #
point $-1 21.12327499999999958 -196.8499999999999943 29.36240000000000094 #
coedge $-1 $516 $515 $549 $559 reversed $517 $-1 #
edge $-1 $546 0 $544 3.141592653589793116 $528 $560 forward 7 unknown #
vertex $-1 $559 $561 #
straight-curve $-1 21.12327499999999958 -196.8499999999999943 8.737599999999988043 0 25.39999999999999858 0 I I #
vertex $-1 $559 $562 #
straight-curve $-1 10.80452500000000171 -196.8499999999999943 8.737599999999988043 0 25.39999999999999858 0 I I #
cone-surface $-1 15.96390000000000065 -196.8499999999999943 8.737599999999988043 0 -1 0 5.159374999999999822 0 0 1 I I 0 1 5.159374999999999822 forward I I I I #
coedge $-1 $528 $528 $542 $559 forward $496 $-1 #
face $-1 $265 $535 $2 $-1 $563 reversed single #
cone-surface $-1 15.96390000000000065 -196.8499999999999943 29.36239999999999029 0 -1 0 5.159374999999999822 0 0 1 I I 0 1 5.159374999999999822 forward I I I I #
coedge $-1 $564 $564 $537 $554 forward $531 $-1 #
coedge $-1 $534 $533 $564 $565 reversed $535 $-1 #
edge $-1 $557 0 $555 3.141592653589793116 $552 $566 forward 7 unknown #
vertex $-1 $565 $567 #
straight-curve $-1 21.12327499999999958 -196.8499999999999943 29.36239999999999029 0 25.39999999999999858 0 I I #
vertex $-1 $565 $568 #
straight-curve $-1 10.80452500000000171 -196.8499999999999943 29.36239999999999029 0 25.39999999999999858 0 I I #
edge $-1 $544 0 $546 3.141592653589793116 $549 $569 forward 7 unknown #
ellipse-curve $-1 15.96390000000000065 -165.0999999999999943 8.737599999999988043 0 -1 0 -5.159374999999999822 0 0 1 I I #
point $-1 21.12327499999999958 -165.0999999999999943 8.737599999999988043 #
point $-1 10.80452500000000171 -165.0999999999999943 8.737599999999988043 #
cone-surface $-1 15.96390000000000065 -196.8499999999999943 29.36239999999999029 0 -1 0 5.159374999999999822 0 0 1 I I 0 1 5.159374999999999822 forward I I I I #
coedge $-1 $552 $552 $553 $565 forward $531 $-1 #
edge $-1 $555 0 $557 3.141592653589793116 $564 $570 forward 7 unknown #
ellipse-curve $-1 15.96390000000000065 -165.0999999999999943 29.36239999999999029 0 -1 0 -5.159374999999999822 0 0 1 I I #
point $-1 21.12327499999999958 -165.0999999999999943 29.36239999999999029 #
point $-1 10.80452500000000171 -165.0999999999999943 29.36239999999999029 #
ellipse-curve $-1 15.96390000000000065 -165.0999999999999943 8.737599999999988043 0 -1 0 5.159374999999999822 0 0 1 I I #
ellipse-curve $-1 15.96390000000000065 -165.0999999999999943 29.36239999999999029 0 -1 0 5.159374999999999822 0 0 1 I I #
End-of-ACIS-data 