  0
SECTION
  2
HEADER
  9
$ACADVER
  1
AC1009
  9
$INSBASE
 10
0.0
 20
0.0
 30
0.0
  9
$EXTMIN
 10
-0.135
 20
-0.135
 30
-0.135
  9
$EXTMAX
 10
5.0
 20
5.0
 30
3.0
  9
$LIMMIN
 10
0.0
 20
0.0
  9
$LIMMAX
 10
12.0
 20
9.0
  9
$ORTHOMODE
 70
     0
  9
$REGENMODE
 70
     1
  9
$FILLMODE
 70
     1
  9
$QTEXTMODE
 70
     0
  9
$MIRRTEXT
 70
     1
  9
$DRAGMODE
 70
     2
  9
$LTSCALE
 40
1.0
  9
$OSMODE
 70
     0
  9
$ATTMODE
 70
     1
  9
$TEXTSIZE
 40
0.2
  9
$TRACEWID
 40
0.05
  9
$TEXTSTYLE
  7
STANDARD
  9
$CLAYER
  8
0
  9
$CELTYPE
  6
BYLAYER
  9
$CECOLOR
 62
   256
  9
$DIMSCALE
 40
1.0
  9
$DIMASZ
 40
0.18
  9
$DIMEXO
 40
0.0625
  9
$DIMDLI
 40
0.38
  9
$DIMRND
 40
0.0
  9
$DIMDLE
 40
0.0
  9
$DIMEXE
 40
0.18
  9
$DIMTP
 40
0.0
  9
$DIMTM
 40
0.0
  9
$DIMTXT
 40
0.18
  9
$DIMCEN
 40
0.09
  9
$DIMTSZ
 40
0.0
  9
$DIMTOL
 70
     0
  9
$DIMLIM
 70
     0
  9
$DIMTIH
 70
     1
  9
$DIMTOH
 70
     1
  9
$DIMSE1
 70
     0
  9
$DIMSE2
 70
     0
  9
$DIMTAD
 70
     0
  9
$DIMZIN
 70
     0
  9
$DIMBLK
  1

  9
$DIMASO
 70
     1
  9
$DIMSHO
 70
     1
  9
$DIMPOST
  1

  9
$DIMAPOST
  1

  9
$DIMALT
 70
     0
  9
$DIMALTD
 70
     2
  9
$DIMALTF
 40
25.4
  9
$DIMLFAC
 40
1.0
  9
$DIMTOFL
 70
     0
  9
$DIMTVP
 40
0.0
  9
$DIMTIX
 70
     0
  9
$DIMSOXD
 70
     0
  9
$DIMSAH
 70
     0
  9
$DIMBLK1
  1

  9
$DIMBLK2
  1

  9
$DIMSTYLE
  2
*UNNAMED
  9
$DIMCLRD
 70
     0
  9
$DIMCLRE
 70
     0
  9
$DIMCLRT
 70
     0
  9
$DIMTFAC
 40
1.0
  9
$DIMGAP
 40
0.09
  9
$LUNITS
 70
     2
  9
$LUPREC
 70
     4
  9
$SKETCHINC
 40
0.1
  9
$FILLETRAD
 40
0.0
  9
$AUNITS
 70
     0
  9
$AUPREC
 70
     0
  9
$MENU
  1
acad
  9
$ELEVATION
 40
0.0
  9
$PELEVATION
 40
0.0
  9
$THICKNESS
 40
0.0
  9
$LIMCHECK
 70
     0
  9
$BLIPMODE
 70
     1
  9
$CHAMFERA
 40
0.0
  9
$CHAMFERB
 40
0.0
  9
$SKPOLY
 70
     0
  9
$TDCREATE
 40
2448850.857094386
  9
$TDUPDATE
 40
2448891.466564340
  9
$TDINDWG
 40
0.0135740972
  9
$TDUSRTIMER
 40
0.0135740972
  9
$USRTIMER
 70
     1
  9
$ANGBASE
 50
0.0
  9
$ANGDIR
 70
     0
  9
$PDMODE
 70
     0
  9
$PDSIZE
 40
0.0
  9
$PLINEWID
 40
0.0
  9
$COORDS
 70
     0
  9
$SPLFRAME
 70
     0
  9
$SPLINETYPE
 70
     6
  9
$SPLINESEGS
 70
     8
  9
$ATTDIA
 70
     0
  9
$ATTREQ
 70
     1
  9
$HANDLING
 70
     1
  9
$HANDSEED
  5
3AD
  9
$SURFTAB1
 70
     6
  9
$SURFTAB2
 70
     6
  9
$SURFTYPE
 70
     6
  9
$SURFU
 70
     6
  9
$SURFV
 70
     6
  9
$UCSNAME
  2

  9
$UCSORG
 10
0.0
 20
0.0
 30
0.0
  9
$UCSXDIR
 10
1.0
 20
0.0
 30
0.0
  9
$UCSYDIR
 10
0.0
 20
1.0
 30
0.0
  9
$PUCSNAME
  2

  9
$PUCSORG
 10
0.0
 20
0.0
 30
0.0
  9
$PUCSXDIR
 10
1.0
 20
0.0
 30
0.0
  9
$PUCSYDIR
 10
0.0
 20
1.0
 30
0.0
  9
$USERI1
 70
     0
  9
$USERI2
 70
     0
  9
$USERI3
 70
     0
  9
$USERI4
 70
     0
  9
$USERI5
 70
     0
  9
$USERR1
 40
0.0
  9
$USERR2
 40
0.0
  9
$USERR3
 40
0.0
  9
$USERR4
 40
0.0
  9
$USERR5
 40
0.0
  9
$WORLDVIEW
 70
     1
  9
$SHADEDGE
 70
     3
  9
$SHADEDIF
 70
    70
  9
$TILEMODE
 70
     1
  9
$MAXACTVP
 70
    16
  9
$PINSBASE
 10
0.0
 20
0.0
 30
0.0
  9
$PLIMCHECK
 70
     0
  9
$PEXTMIN
 10
1.000000E+20
 20
1.000000E+20
 30
1.000000E+20
  9
$PEXTMAX
 10
-1.000000E+20
 20
-1.000000E+20
 30
-1.000000E+20
  9
$PLIMMIN
 10
0.0
 20
0.0
  9
$PLIMMAX
 10
12.0
 20
9.0
  9
$UNITMODE
 70
     0
  9
$VISRETAIN
 70
     0
  9
$PLINEGEN
 70
     0
  9
$PSLTSCALE
 70
     0
  9
$TREEDEPTH
 70
  3020
  9
$DWGCODEPAGE
  3
undefined
  0
ENDSEC
  0
SECTION
  2
TABLES
  0
TABLE
  2
VPORT
 70
     2
  0
VPORT
  2
*ACTIVE
 70
     0
 10
0.0
 20
0.0
 11
1.0
 21
1.0
 12
1.671063
 22
-0.554143
 13
0.0
 23
0.0
 14
1.0
 24
1.0
 15
0.0
 25
0.0
 16
1.1
 26
1.0
 36
0.9
 17
0.0
 27
0.0
 37
0.0
 40
6.43849
 41
1.594883
 42
50.0
 43
0.0
 44
0.0
 50
0.0
 51
0.0
 71
     0
 72
   100
 73
     1
 74
     1
 75
     0
 76
     0
 77
     0
 78
     0
  0
ENDTAB
  0
TABLE
  2
LTYPE
 70
     1
  0
LTYPE
  2
CONTINUOUS
 70
    64
  3
Solid line
 72
    65
 73
     0
 40
0.0
  0
ENDTAB
  0
TABLE
  2
LAYER
 70
     2
  0
LAYER
  2
0
 70
    64
 62
     7
  6
CONTINUOUS
  0
LAYER
  2
AME_FRZ
 70
    65
 62
     7
  6
CONTINUOUS
  0
ENDTAB
  0
TABLE
  2
STYLE
 70
     1
  0
STYLE
  2
STANDARD
 70
     0
 40
0.0
 41
1.0
 50
0.0
 71
     0
 42
0.2
  3
txt
  4

  0
ENDTAB
  0
TABLE
  2
VIEW
 70
     0
  0
ENDTAB
  0
TABLE
  2
UCS
 70
     0
  0
ENDTAB
  0
TABLE
  2
APPID
 70
     2
  0
APPID
  2
ACAD
 70
    64
  0
APPID
  2
AME_SOL
 70
    64
  0
ENDTAB
  0
TABLE
  2
DIMSTYLE
 70
     0
  0
ENDTAB
  0
ENDSEC
  0
SECTION
  2
BLOCKS
  0
BLOCK
  8
0
  5
1
  2
AME_NIL
 70
    64
 10
0.0
 20
0.0
 30
0.0
  1
AME_NIL
  3
AME_NIL
  0
ENDBLK
  8
0
  5
2
  0
BLOCK
  8
0
  5
4
  2
AME_SOL
 70
    64
 10
0.0
 20
0.0
 30
0.0
  1
AME_SOL
  3
AME_SOL
  0
ENDBLK
  8
0
  5
5
  0
BLOCK
  8
0
  5
144
  2
AME_MAT
 70
    64
 10
0.0
 20
0.0
 30
0.0
  1
AME_MAT
  3
AME_MAT
  0
ENDBLK
  8
0
  5
145
  0
BLOCK
  8
0
  5
350
  2
SOLAXES
 70
     0
 10
0.0
 20
0.0
 30
0.0
  1
SOLAXES
  3
SOLAXES
  0
LINE
  8
0
 62
     0
  5
351
 10
0.0
 20
0.0
 30
0.0
 11
2.7
 21
0.0
 31
0.0
  0
LINE
  8
0
 62
     0
  5
352
 10
0.0
 20
0.0
 30
0.0
 11
0.0
 21
2.7
 31
0.0
  0
LINE
  8
0
 62
     0
  5
353
 10
0.0
 20
0.0
 30
0.0
 11
0.0
 21
0.0
 31
2.7
  0
CIRCLE
  8
0
 62
     0
  5
354
 10
0.0
 20
0.0
 30
2.43
 40
0.135
210
1.0
220
0.0
230
0.0
  0
LINE
  8
0
 62
     0
  5
355
 10
2.43
 20
0.135
 30
0.0
 11
2.7
 21
0.0
 31
0.0
  0
LINE
  8
0
 62
     0
  5
356
 10
2.43
 20
0.0
 30
0.135
 11
2.7
 21
0.0
 31
0.0
  0
LINE
  8
0
 62
     0
  5
357
 10
2.43
 20
-0.135
 30
0.0
 11
2.7
 21
0.0
 31
0.0
  0
LINE
  8
0
 62
     0
  5
358
 10
2.43
 20
0.0
 30
-0.135
 11
2.7
 21
0.0
 31
0.0
  0
CIRCLE
  8
0
 62
     0
  5
359
 10
0.0
 20
0.0
 30
2.43
 40
0.135
210
0.0
220
1.0
230
0.0
  0
LINE
  8
0
 62
     0
  5
35A
 10
0.135
 20
2.43
 30
0.0
 11
0.0
 21
2.7
 31
0.0
  0
LINE
  8
0
 62
     0
  5
35B
 10
0.0
 20
2.43
 30
0.135
 11
0.0
 21
2.7
 31
0.0
  0
LINE
  8
0
 62
     0
  5
35C
 10
-0.135
 20
2.43
 30
0.0
 11
0.0
 21
2.7
 31
0.0
  0
LINE
  8
0
 62
     0
  5
35D
 10
0.0
 20
2.43
 30
-0.135
 11
0.0
 21
2.7
 31
0.0
  0
CIRCLE
  8
0
 62
     0
  5
35E
 10
0.0
 20
0.0
 30
2.16
 40
0.135
210
0.0
220
1.0
230
0.0
  0
LINE
  8
0
 62
     0
  5
35F
 10
0.135
 20
2.16
 30
0.0
 11
0.0
 21
2.43
 31
0.0
  0
LINE
  8
0
 62
     0
  5
360
 10
0.0
 20
2.16
 30
0.135
 11
0.0
 21
2.43
 31
0.0
  0
LINE
  8
0
 62
     0
  5
361
 10
-0.135
 20
2.16
 30
0.0
 11
0.0
 21
2.43
 31
0.0
  0
LINE
  8
0
 62
     0
  5
362
 10
0.0
 20
2.16
 30
-0.135
 11
0.0
 21
2.43
 31
0.0
  0
CIRCLE
  8
0
 62
     0
  5
363
 10
0.0
 20
0.0
 30
2.43
 40
0.135
  0
LINE
  8
0
 62
     0
  5
364
 10
0.135
 20
0.0
 30
2.43
 11
0.0
 21
0.0
 31
2.7
  0
LINE
  8
0
 62
     0
  5
365
 10
0.0
 20
0.135
 30
2.43
 11
0.0
 21
0.0
 31
2.7
  0
LINE
  8
0
 62
     0
  5
366
 10
-0.135
 20
0.0
 30
2.43
 11
0.0
 21
0.0
 31
2.7
  0
LINE
  8
0
 62
     0
  5
367
 10
0.0
 20
-0.135
 30
2.43
 11
0.0
 21
0.0
 31
2.7
  0
CIRCLE
  8
0
 62
     0
  5
368
 10
0.0
 20
0.0
 30
2.16
 40
0.135
  0
LINE
  8
0
 62
     0
  5
369
 10
0.135
 20
0.0
 30
2.16
 11
0.0
 21
0.0
 31
2.43
  0
LINE
  8
0
 62
     0
  5
36A
 10
0.0
 20
0.135
 30
2.16
 11
0.0
 21
0.0
 31
2.43
  0
LINE
  8
0
 62
     0
  5
36B
 10
-0.135
 20
0.0
 30
2.16
 11
0.0
 21
0.0
 31
2.43
  0
LINE
  8
0
 62
     0
  5
36C
 10
0.0
 20
-0.135
 30
2.16
 11
0.0
 21
0.0
 31
2.43
  0
CIRCLE
  8
0
 62
     0
  5
36D
 10
0.0
 20
0.0
 30
1.89
 40
0.135
  0
LINE
  8
0
 62
     0
  5
36E
 10
0.135
 20
0.0
 30
1.89
 11
0.0
 21
0.0
 31
2.16
  0
LINE
  8
0
 62
     0
  5
36F
 10
0.0
 20
0.135
 30
1.89
 11
0.0
 21
0.0
 31
2.16
  0
LINE
  8
0
 62
     0
  5
370
 10
-0.135
 20
0.0
 30
1.89
 11
0.0
 21
0.0
 31
2.16
  0
LINE
  8
0
 62
     0
  5
371
 10
0.0
 20
-0.135
 30
1.89
 11
0.0
 21
0.0
 31
2.16
  0
ENDBLK
  8
0
  5
372
  0
BLOCK
  8
0
  5
2AF
  2
*U22
 70
    65
 10
0.0
 20
0.0
 30
0.0
  1
*U
  3
*U
  0
LINE
  8
0
 62
     0
  5
2B0
 10
5.0
 20
4.0
 30
0.0
 11
5.0
 21
4.0
 31
3.0
1001
AME_SOL
1070
     1
1071
       18
  0
LINE
  8
0
 62
     0
  5
2B1
 10
5.0
 20
4.0
 30
3.0
 11
5.0
 21
0.0
 31
3.0
1001
AME_SOL
1070
     1
1071
       17
  0
LINE
  8
0
 62
     0
  5
2B2
 10
0.0
 20
4.0
 30
3.0
 11
5.0
 21
4.0
 31
3.0
1001
AME_SOL
1070
     1
1071
       16
  0
LINE
  8
0
 62
     0
  5
2B3
 10
0.0
 20
4.0
 30
0.0
 11
0.0
 21
4.0
 31
3.0
1001
AME_SOL
1070
     1
1071
       15
  0
LINE
  8
0
 62
     0
  5
2B4
 10
0.0
 20
4.0
 30
3.0
 11
0.0
 21
0.0
 31
3.0
1001
AME_SOL
1070
     1
1071
       14
  0
LINE
  8
0
 62
     0
  5
2B5
 10
0.0
 20
0.0
 30
0.0
 11
0.0
 21
0.0
 31
3.0
1001
AME_SOL
1070
     1
1071
       13
  0
LINE
  8
0
 62
     0
  5
2B6
 10
5.0
 20
0.0
 30
3.0
 11
5.0
 21
0.0
 31
0.0
1001
AME_SOL
1070
     1
1071
       12
  0
LINE
  8
0
 62
     0
  5
2B7
 10
0.0
 20
0.0
 30
3.0
 11
5.0
 21
0.0
 31
3.0
1001
AME_SOL
1070
     1
1071
       11
  0
LINE
  8
0
 62
     0
  5
2B8
 10
0.0
 20
0.0
 30
0.0
 11
5.0
 21
0.0
 31
0.0
1001
AME_SOL
1070
     1
1071
       10
  0
LINE
  8
0
 62
     0
  5
2B9
 10
0.0
 20
4.0
 30
0.0
 11
0.0
 21
0.0
 31
0.0
1001
AME_SOL
1070
     1
1071
        9
  0
LINE
  8
0
 62
     0
  5
2BA
 10
5.0
 20
0.0
 30
0.0
 11
5.0
 21
4.0
 31
0.0
1001
AME_SOL
1070
     1
1071
        8
  0
LINE
  8
0
 62
     0
  5
2BB
 10
5.0
 20
4.0
 30
0.0
 11
0.0
 21
4.0
 31
0.0
1001
AME_SOL
1070
     1
1071
        7
  0
ENDBLK
  8
0
  5
2BC
  0
BLOCK
  8
0
  5
2D1
  2
*U24
 70
    65
 10
0.0
 20
0.0
 30
0.0
  1
*U
  3
*U
  0
LINE
  8
0
 62
     0
  5
2D2
 10
1.0
 20
3.0
 30
0.0
 11
1.0
 21
3.0
 31
3.0
1001
AME_SOL
1070
     1
1071
       18
  0
LINE
  8
0
 62
     0
  5
2D3
 10
1.0
 20
3.0
 30
3.0
 11
1.0
 21
0.0
 31
3.0
1001
AME_SOL
1070
     1
1071
       17
  0
LINE
  8
0
 62
     0
  5
2D4
 10
0.0
 20
3.0
 30
3.0
 11
1.0
 21
3.0
 31
3.0
1001
AME_SOL
1070
     1
1071
       16
  0
LINE
  8
0
 62
     0
  5
2D5
 10
0.0
 20
3.0
 30
0.0
 11
0.0
 21
3.0
 31
3.0
1001
AME_SOL
1070
     1
1071
       15
  0
LINE
  8
0
 62
     0
  5
2D6
 10
0.0
 20
3.0
 30
3.0
 11
0.0
 21
0.0
 31
3.0
1001
AME_SOL
1070
     1
1071
       14
  0
LINE
  8
0
 62
     0
  5
2D7
 10
0.0
 20
0.0
 30
0.0
 11
0.0
 21
0.0
 31
3.0
1001
AME_SOL
1070
     1
1071
       13
  0
LINE
  8
0
 62
     0
  5
2D8
 10
1.0
 20
0.0
 30
3.0
 11
1.0
 21
0.0
 31
0.0
1001
AME_SOL
1070
     1
1071
       12
  0
LINE
  8
0
 62
     0
  5
2D9
 10
0.0
 20
0.0
 30
3.0
 11
1.0
 21
0.0
 31
3.0
1001
AME_SOL
1070
     1
1071
       11
  0
LINE
  8
0
 62
     0
  5
2DA
 10
0.0
 20
0.0
 30
0.0
 11
1.0
 21
0.0
 31
0.0
1001
AME_SOL
1070
     1
1071
       10
  0
LINE
  8
0
 62
     0
  5
2DB
 10
0.0
 20
3.0
 30
0.0
 11
0.0
 21
0.0
 31
0.0
1001
AME_SOL
1070
     1
1071
        9
  0
LINE
  8
0
 62
     0
  5
2DC
 10
1.0
 20
0.0
 30
0.0
 11
1.0
 21
3.0
 31
0.0
1001
AME_SOL
1070
     1
1071
        8
  0
LINE
  8
0
 62
     0
  5
2DD
 10
1.0
 20
3.0
 30
0.0
 11
0.0
 21
3.0
 31
0.0
1001
AME_SOL
1070
     1
1071
        7
  0
ENDBLK
  8
0
  5
2DE
  0
BLOCK
  8
0
  5
2E2
  2
*U25
 70
    65
 10
0.0
 20
0.0
 30
0.0
  1
*U
  3
*U
  0
LINE
  8
0
 62
     0
  5
2E3
 10
1.0
 20
1.0
 30
0.0
 11
1.0
 21
1.0
 31
1.0
1001
AME_SOL
1070
     1
1071
       18
  0
LINE
  8
0
 62
     0
  5
2E4
 10
1.0
 20
1.0
 30
1.0
 11
1.0
 21
0.0
 31
1.0
1001
AME_SOL
1070
     1
1071
       17
  0
LINE
  8
0
 62
     0
  5
2E5
 10
0.0
 20
1.0
 30
1.0
 11
1.0
 21
1.0
 31
1.0
1001
AME_SOL
1070
     1
1071
       16
  0
LINE
  8
0
 62
     0
  5
2E6
 10
0.0
 20
1.0
 30
0.0
 11
0.0
 21
1.0
 31
1.0
1001
AME_SOL
1070
     1
1071
       15
  0
LINE
  8
0
 62
     0
  5
2E7
 10
0.0
 20
1.0
 30
1.0
 11
0.0
 21
0.0
 31
1.0
1001
AME_SOL
1070
     1
1071
       14
  0
LINE
  8
0
 62
     0
  5
2E8
 10
0.0
 20
0.0
 30
0.0
 11
0.0
 21
0.0
 31
1.0
1001
AME_SOL
1070
     1
1071
       13
  0
LINE
  8
0
 62
     0
  5
2E9
 10
1.0
 20
0.0
 30
1.0
 11
1.0
 21
0.0
 31
0.0
1001
AME_SOL
1070
     1
1071
       12
  0
LINE
  8
0
 62
     0
  5
2EA
 10
0.0
 20
0.0
 30
1.0
 11
1.0
 21
0.0
 31
1.0
1001
AME_SOL
1070
     1
1071
       11
  0
LINE
  8
0
 62
     0
  5
2EB
 10
0.0
 20
0.0
 30
0.0
 11
1.0
 21
0.0
 31
0.0
1001
AME_SOL
1070
     1
1071
       10
  0
LINE
  8
0
 62
     0
  5
2EC
 10
0.0
 20
1.0
 30
0.0
 11
0.0
 21
0.0
 31
0.0
1001
AME_SOL
1070
     1
1071
        9
  0
LINE
  8
0
 62
     0
  5
2ED
 10
1.0
 20
0.0
 30
0.0
 11
1.0
 21
1.0
 31
0.0
1001
AME_SOL
1070
     1
1071
        8
  0
LINE
  8
0
 62
     0
  5
2EE
 10
1.0
 20
1.0
 30
0.0
 11
0.0
 21
1.0
 31
0.0
1001
AME_SOL
1070
     1
1071
        7
  0
ENDBLK
  8
0
  5
2EF
  0
BLOCK
  8
0
  5
31A
  2
*U26
 70
    65
 10
0.0
 20
0.0
 30
0.0
  1
*U
  3
*U
  0
LINE
  8
0
 62
     0
  5
31B
 10
1.0
 20
3.5
 30
0.0
 11
1.0
 21
3.5
 31
3.0
1001
AME_SOL
1070
     1
1071
       18
  0
LINE
  8
0
 62
     0
  5
31C
 10
1.0
 20
3.5
 30
3.0
 11
1.0
 21
0.0
 31
3.0
1001
AME_SOL
1070
     1
1071
       17
  0
LINE
  8
0
 62
     0
  5
31D
 10
0.0
 20
3.5
 30
3.0
 11
1.0
 21
3.5
 31
3.0
1001
AME_SOL
1070
     1
1071
       16
  0
LINE
  8
0
 62
     0
  5
31E
 10
0.0
 20
3.5
 30
0.0
 11
0.0
 21
3.5
 31
3.0
1001
AME_SOL
1070
     1
1071
       15
  0
LINE
  8
0
 62
     0
  5
31F
 10
0.0
 20
3.5
 30
3.0
 11
0.0
 21
0.0
 31
3.0
1001
AME_SOL
1070
     1
1071
       14
  0
LINE
  8
0
 62
     0
  5
320
 10
0.0
 20
0.0
 30
0.0
 11
0.0
 21
0.0
 31
3.0
1001
AME_SOL
1070
     1
1071
       13
  0
LINE
  8
0
 62
     0
  5
321
 10
1.0
 20
0.0
 30
3.0
 11
1.0
 21
0.0
 31
0.0
1001
AME_SOL
1070
     1
1071
       12
  0
LINE
  8
0
 62
     0
  5
322
 10
0.0
 20
0.0
 30
3.0
 11
1.0
 21
0.0
 31
3.0
1001
AME_SOL
1070
     1
1071
       11
  0
LINE
  8
0
 62
     0
  5
323
 10
0.0
 20
0.0
 30
0.0
 11
1.0
 21
0.0
 31
0.0
1001
AME_SOL
1070
     1
1071
       10
  0
LINE
  8
0
 62
     0
  5
324
 10
0.0
 20
3.5
 30
0.0
 11
0.0
 21
0.0
 31
0.0
1001
AME_SOL
1070
     1
1071
        9
  0
LINE
  8
0
 62
     0
  5
325
 10
1.0
 20
0.0
 30
0.0
 11
1.0
 21
3.5
 31
0.0
1001
AME_SOL
1070
     1
1071
        8
  0
LINE
  8
0
 62
     0
  5
326
 10
1.0
 20
3.5
 30
0.0
 11
0.0
 21
3.5
 31
0.0
1001
AME_SOL
1070
     1
1071
        7
  0
ENDBLK
  8
0
  5
327
  0
BLOCK
  8
0
  5
377
  2
*U27
 70
    65
 10
0.0
 20
0.0
 30
0.0
  1
*U
  3
*U
  0
LINE
  8
0
 62
     7
  5
378
 10
5.0
 20
4.0
 30
0.0
 11
5.0
 21
4.0
 31
3.0
1001
AME_SOL
1070
     1
1071
       64
  0
LINE
  8
0
 62
     7
  5
379
 10
5.0
 20
4.0
 30
3.0
 11
5.0
 21
0.0
 31
3.0
1001
AME_SOL
1070
     1
1071
       63
  0
LINE
  8
0
 62
     7
  5
37A
 10
4.0
 20
4.0
 30
3.0
 11
5.0
 21
4.0
 31
3.0
1001
AME_SOL
1070
     1
1071
       62
  0
LINE
  8
0
 62
     7
  5
37B
 10
2.0
 20
4.0
 30
3.0
 11
3.0
 21
4.0
 31
3.0
1001
AME_SOL
1070
     1
1071
       61
  0
LINE
  8
0
 62
     7
  5
37C
 10
0.0
 20
4.0
 30
3.0
 11
1.0
 21
4.0
 31
3.0
1001
AME_SOL
1070
     1
1071
       60
  0
LINE
  8
0
 62
     7
  5
37D
 10
0.0
 20
4.0
 30
0.0
 11
0.0
 21
4.0
 31
3.0
1001
AME_SOL
1070
     1
1071
       59
  0
LINE
  8
0
 62
     7
  5
37E
 10
0.0
 20
4.0
 30
3.0
 11
0.0
 21
0.0
 31
3.0
1001
AME_SOL
1070
     1
1071
       58
  0
LINE
  8
0
 62
     7
  5
37F
 10
0.0
 20
0.0
 30
0.0
 11
0.0
 21
0.0
 31
3.0
1001
AME_SOL
1070
     1
1071
       57
  0
LINE
  8
0
 62
     7
  5
380
 10
5.0
 20
0.0
 30
3.0
 11
5.0
 21
0.0
 31
0.0
1001
AME_SOL
1070
     1
1071
       56
  0
LINE
  8
0
 62
     7
  5
381
 10
0.0
 20
0.0
 30
3.0
 11
5.0
 21
0.0
 31
3.0
1001
AME_SOL
1070
     1
1071
       55
  0
LINE
  8
0
 62
     7
  5
382
 10
0.0
 20
0.0
 30
0.0
 11
5.0
 21
0.0
 31
0.0
1001
AME_SOL
1070
     1
1071
       54
  0
LINE
  8
0
 62
     7
  5
383
 10
0.0
 20
4.0
 30
0.0
 11
0.0
 21
0.0
 31
0.0
1001
AME_SOL
1070
     1
1071
       53
  0
LINE
  8
0
 62
     7
  5
384
 10
5.0
 20
0.0
 30
0.0
 11
5.0
 21
4.0
 31
0.0
1001
AME_SOL
1070
     1
1071
       52
  0
LINE
  8
0
 62
     7
  5
385
 10
1.0
 20
4.0
 30
0.0
 11
0.0
 21
4.0
 31
0.0
1001
AME_SOL
1070
     1
1071
       51
  0
LINE
  8
0
 62
     7
  5
386
 10
3.0
 20
4.0
 30
0.0
 11
2.0
 21
4.0
 31
0.0
1001
AME_SOL
1070
     1
1071
       50
  0
LINE
  8
0
 62
     7
  5
387
 10
5.0
 20
4.0
 30
0.0
 11
4.0
 21
4.0
 31
0.0
1001
AME_SOL
1070
     1
1071
       49
  0
LINE
  8
0
 62
     7
  5
388
 10
2.0
 20
4.0
 30
0.0
 11
2.0
 21
1.0
 31
0.0
1001
AME_SOL
1070
     1
1071
       48
  0
LINE
  8
0
 62
     7
  5
389
 10
2.0
 20
4.0
 30
3.0
 11
2.0
 21
4.0
 31
0.0
1001
AME_SOL
1070
     1
1071
       47
  0
LINE
  8
0
 62
     7
  5
38A
 10
2.0
 20
1.0
 30
3.0
 11
2.0
 21
4.0
 31
3.0
1001
AME_SOL
1070
     1
1071
       46
  0
LINE
  8
0
 62
     7
  5
38B
 10
1.0
 20
1.0
 30
0.0
 11
1.0
 21
4.0
 31
0.0
1001
AME_SOL
1070
     1
1071
       45
  0
LINE
  8
0
 62
     7
  5
38C
 10
1.0
 20
4.0
 30
0.0
 11
1.0
 21
4.0
 31
3.0
1001
AME_SOL
1070
     1
1071
       44
  0
LINE
  8
0
 62
     7
  5
38D
 10
1.0
 20
4.0
 30
3.0
 11
1.0
 21
1.0
 31
3.0
1001
AME_SOL
1070
     1
1071
       43
  0
LINE
  8
0
 62
     7
  5
38E
 10
2.0
 20
1.0
 30
0.0
 11
1.0
 21
1.0
 31
0.0
1001
AME_SOL
1070
     1
1071
       42
  0
LINE
  8
0
 62
     7
  5
38F
 10
1.0
 20
1.0
 30
3.0
 11
2.0
 21
1.0
 31
3.0
1001
AME_SOL
1070
     1
1071
       41
  0
LINE
  8
0
 62
     7
  5
390
 10
2.0
 20
1.0
 30
3.0
 11
2.0
 21
1.0
 31
0.0
1001
AME_SOL
1070
     1
1071
       40
  0
LINE
  8
0
 62
     7
  5
391
 10
1.0
 20
1.0
 30
0.0
 11
1.0
 21
1.0
 31
3.0
1001
AME_SOL
1070
     1
1071
       39
  0
LINE
  8
0
 62
     7
  5
392
 10
2.0
 20
3.0
 30
1.0
 11
2.0
 21
3.0
 31
2.0
1001
AME_SOL
1070
     1
1071
       38
  0
LINE
  8
0
 62
     7
  5
393
 10
2.0
 20
3.0
 30
2.0
 11
2.0
 21
2.0
 31
2.0
1001
AME_SOL
1070
     1
1071
       37
  0
LINE
  8
0
 62
     7
  5
394
 10
2.0
 20
3.0
 30
2.0
 11
3.0
 21
3.0
 31
2.0
1001
AME_SOL
1070
     1
1071
       36
  0
LINE
  8
0
 62
     7
  5
395
 10
2.0
 20
2.0
 30
2.0
 11
2.0
 21
2.0
 31
1.0
1001
AME_SOL
1070
     1
1071
       35
  0
LINE
  8
0
 62
     7
  5
396
 10
2.0
 20
2.0
 30
2.0
 11
3.0
 21
2.0
 31
2.0
1001
AME_SOL
1070
     1
1071
       34
  0
LINE
  8
0
 62
     7
  5
397
 10
2.0
 20
2.0
 30
1.0
 11
2.0
 21
3.0
 31
1.0
1001
AME_SOL
1070
     1
1071
       33
  0
LINE
  8
0
 62
     7
  5
398
 10
3.0
 20
3.0
 30
1.0
 11
2.0
 21
3.0
 31
1.0
1001
AME_SOL
1070
     1
1071
       32
  0
LINE
  8
0
 62
     7
  5
399
 10
2.0
 20
2.0
 30
1.0
 11
3.0
 21
2.0
 31
1.0
1001
AME_SOL
1070
     1
1071
       31
  0
LINE
  8
0
 62
     7
  5
39A
 10
4.0
 20
4.0
 30
0.0
 11
4.0
 21
0.5
 31
0.0
1001
AME_SOL
1070
     1
1071
       30
  0
LINE
  8
0
 62
     7
  5
39B
 10
4.0
 20
4.0
 30
3.0
 11
4.0
 21
4.0
 31
0.0
1001
AME_SOL
1070
     1
1071
       29
  0
LINE
  8
0
 62
     7
  5
39C
 10
4.0
 20
0.5
 30
3.0
 11
4.0
 21
4.0
 31
3.0
1001
AME_SOL
1070
     1
1071
       28
  0
LINE
  8
0
 62
     7
  5
39D
 10
3.0
 20
0.5
 30
0.0
 11
3.0
 21
4.0
 31
0.0
1001
AME_SOL
1070
     1
1071
       27
  0
LINE
  8
0
 62
     7
  5
39E
 10
3.0
 20
2.0
 30
1.0
 11
3.0
 21
3.0
 31
1.0
1001
AME_SOL
1070
     1
1071
       26
  0
LINE
  8
0
 62
     7
  5
39F
 10
3.0
 20
4.0
 30
0.0
 11
3.0
 21
4.0
 31
3.0
1001
AME_SOL
1070
     1
1071
       25
  0
LINE
  8
0
 62
     7
  5
3A0
 10
3.0
 20
4.0
 30
3.0
 11
3.0
 21
0.5
 31
3.0
1001
AME_SOL
1070
     1
1071
       24
  0
LINE
  8
0
 62
     7
  5
3A1
 10
3.0
 20
3.0
 30
1.0
 11
3.0
 21
3.0
 31
2.0
1001
AME_SOL
1070
     1
1071
       23
  0
LINE
  8
0
 62
     7
  5
3A2
 10
3.0
 20
3.0
 30
2.0
 11
3.0
 21
2.0
 31
2.0
1001
AME_SOL
1070
     1
1071
       22
  0
LINE
  8
0
 62
     7
  5
3A3
 10
3.0
 20
2.0
 30
2.0
 11
3.0
 21
2.0
 31
1.0
1001
AME_SOL
1070
     1
1071
       21
  0
LINE
  8
0
 62
     7
  5
3A4
 10
4.0
 20
0.5
 30
0.0
 11
3.0
 21
0.5
 31
0.0
1001
AME_SOL
1070
     1
1071
       20
  0
LINE
  8
0
 62
     7
  5
3A5
 10
3.0
 20
0.5
 30
3.0
 11
4.0
 21
0.5
 31
3.0
1001
AME_SOL
1070
     1
1071
       19
  0
LINE
  8
0
 62
     7
  5
3A6
 10
4.0
 20
0.5
 30
3.0
 11
4.0
 21
0.5
 31
0.0
1001
AME_SOL
1070
     1
1071
       18
  0
LINE
  8
0
 62
     7
  5
3A7
 10
3.0
 20
0.5
 30
0.0
 11
3.0
 21
0.5
 31
3.0
1001
AME_SOL
1070
     1
1071
       17
  0
ENDBLK
  8
0
  5
3A8
  0
ENDSEC
  0
SECTION
  2
ENTITIES
  0
INSERT
  8
AME_FRZ
  5
147
  2
AME_NIL
 10
0.0
 20
0.0
 30
0.0
  0
INSERT
  8
AME_FRZ
  5
148
  2
AME_SOL
 10
0.0
 20
0.0
 30
0.0
1001
AME_SOL
1000
1.0
1000
sq cm
1070
     3
1070
     0
1070
     3
1000
wire
1040
0.0
1000
NONE
1040
1.0
1000
cm
1000
gm
1000
MILD_STEEL
1070
    25
1000
CSG
1070
     3
1070
     2
1070
     3
1000
cu cm
1070
     4
1070
     0
1005
147
  0
INSERT
  8
AME_FRZ
  5
2BD
  2
*U22
 10
0.0
 20
0.0
 30
0.0
1001
AME_SOL
1002
{
1070
     0
1071
  1927088
1070
  1536
1010
5.0
1020
4.0
1030
3.0
1005
0
1005
0
1005
3A9
1040
0.0
1040
1.0
1000
MILD_STEEL
1000
0
1010
0.0
1020
0.0
1030
0.0
1010
0.0
1020
0.0
1030
1.0
1040
0.0
1002
}
  0
INSERT
  8
AME_FRZ
  5
2DF
  2
*U24
 10
1.0
 20
1.0
 30
0.0
1001
AME_SOL
1002
{
1070
     0
1071
  1930376
1070
  1536
1010
1.0
1020
3.0
1030
3.0
1005
0
1005
0
1005
374
1040
0.0
1040
1.0
1000
MILD_STEEL
1000
0
1010
1.0
1020
1.0
1030
0.0
1010
0.0
1020
0.0
1030
1.0
1040
0.0
1002
}
  0
INSERT
  8
AME_FRZ
  5
2F0
  2
*U25
 10
2.0
 20
2.0
 30
1.0
1001
AME_SOL
1002
{
1070
     0
1071
  1929016
1070
  1536
1010
1.0
1020
1.0
1030
1.0
1005
0
1005
0
1005
374
1040
0.0
1040
1.0
1000
MILD_STEEL
1000
0
1010
2.0
1020
2.0
1030
1.0
1010
0.0
1020
0.0
1030
1.0
1040
0.0
1002
}
  0
INSERT
  8
AME_FRZ
 62
     7
  5
328
  2
*U26
 10
3.0
 20
0.5
 30
0.0
1001
AME_SOL
1002
{
1070
     0
1071
  1928160
1070
  1536
1010
1.0
1020
3.5
1030
3.0
1005
0
1005
0
1005
375
1040
0.0
1040
1.0
1000
MILD_STEEL
1000
0
1010
3.0
1020
0.5
1030
0.0
1010
0.0
1020
0.0
1030
1.0
1040
0.0
1002
}
  0
INSERT
  8
AME_FRZ
  5
374
  2
AME_NIL
 10
0.0
 20
0.0
 30
0.0
1001
AME_SOL
1002
{
1070
     0
1071
  2007896
1070
   775
1070
     2
1005
2DF
1005
2F0
1005
0
1005
0
1005
375
1040
0.0
1040
1.0
1000
MILD_STEEL
1000
0
1010
0.0
1020
0.0
1030
0.0
1010
0.0
1020
0.0
1030
1.0
1040
0.0
1002
}
  0
INSERT
  8
AME_FRZ
  5
375
  2
AME_NIL
 10
0.0
 20
0.0
 30
0.0
1001
AME_SOL
1002
{
1070
     0
1071
  1959360
1070
   775
1070
     2
1005
374
1005
328
1005
0
1005
0
1005
3A9
1040
0.0
1040
1.0
1000
MILD_STEEL
1000
0
1010
0.0
1020
0.0
1030
0.0
1010
0.0
1020
0.0
1030
1.0
1040
0.0
1002
}
  0
INSERT
  8
0
  5
3A9
  2
*U27
 10
0.0
 20
0.0
 30
0.0
1001
AME_SOL
1002
{
1070
     0
1071
  1981208
1070
  1543
1070
     0
1005
2BD
1005
375
1005
0
1005
3AA
1005
0
1040
0.0
1040
1.0
1000
MILD_STEEL
1000
0
1002
}
  0
INSERT
  8
AME_FRZ
  5
3AA
  2
AME_NIL
 10
1.0
 20
1.0
 30
1.0
1001
AME_SOL
1004
E903A9FB0100F0FFFFFF000052F7100001000000304662BA304662BA304662BA1207A04012078040240E404001000000FBF2040000F63F4000B0FF3E000020BA000580400028003F000A40400100844ED8961D00FFFF0000010031010000844E00000000803F000000000000000000000000000000000000
1004
803F000040400000003F0000000005000000000000000000000000000000000000000000844E00000000803F000000000000000000000000000000000000803F000040400000003F00000000050000000000000000000000000000000000FFFFFFFFFBF2080000F63F4000B0FF3E000020BA000A4040FF04
1004
8040000A40400100844E08441E00FFFF0000010030010000844E000000000000000000000000803F000000000000803F00000000000040400000003F0000000005000000000000000000000000000000000000000000844E0000000000000000803F000000000000008000000080000080BF000040400000
1004
404000000040050000000000000000000000000000000000FFFFFFFFFBF2040000F67F4000B0FF3E000020BA00058040FF048040000A40400100844E88411E00FFFF000001002D010000844E000000000080000080BF000000800000008000000080000080BF00008040FEFF7F4000004040050000000000
1004
00000000000000000000000000000000844E000000000080000080BF000000800000008000000080000080BF00008040FFFF7F4000004040050000000000000000000000000000000000FFFFFFFFFBF2040000ECFF3F00ECFF3F00D87F3F000A4040000A40400014803F0100844E90441E00FFFF00000100
1004
FA010000844E0000000000000000803F000000000000803F000000000000000000000040000000400000803F05000000000000000000000000000000000000000000844E0000000000000000803F000000000000803F000000000000000000000040000000400000803F0500000000000000000000000000
1004
00000000FFFFFFFFFBF2040000ECFF3F00ECFF3F00D87F3F000A4040000A0040000A00400100844E60451E00FFFF00000100F9010000844E00000000803F000000000000000000000000000000000000803F00000040000000400000803F05000000000000000000000000000000000000000000844E0000
1004
0000803F000000000000000000000000000000000000803F00000040000000400000803F050000000000000000000000000000000000FFFFFFFFFBF2040000ECFF3F00ECFF3F00ECFF3F000A4040000A4040000A00400100844EA03E1E00FFFF00000100F7010000844E0000000080BF0000008000000080
1004
00000080000080BF0000008000004040000040400000004005000000000000000000000000000000000000000000844E0000000080BF000000800000008000000080000080BF00000080000040400000404000000040050000000000000000000000000000000000FFFFFFFFFBF2040000ECFF3F00F63F40
1004
00D87F3F000A4040000A4040000A00400100844E703F1E00FFFF00000100F6010000844E00000000008000000080000080BF000080BF000000800000008000004040000040400000004005000000000000000000000000000000000000000000844E00000000008000000080000080BF000080BF00000080
1004
00000080000040400000404000000040050000000000000000000000000000000000FFFFFFFFFBF2040000D87F3F00D87F3F000020BA000A00400014803F000A40400100844EB8341E00FFFF000001005D020000844E00000000803F000000000000000000000000000000000000803F0000803F0000803F
1004
0000000005000000000000000000000000000000000000000000844E00000000803F000000000000000000000000000000000000803F0000803F0000803F00000000050000000000000000000000000000000000FFFFFFFFFBF2040000D87F3F00D87F3F000020BA0014803F00058040000A40400100844E
1004
102C1E00FFFF000001005C020000844E000000000000000000000000803F000000000000803F000000000000803F0000803F0000000005000000000000000000000000000000000000000000844E000000000000000000000000803F000000000000803F000000000000803F0000803F0000000005000000
1004
0000000000000000000000000000FFFFFFFFFBF2080000ECFF3F00D87F3F000020BA000A004000058040000A40400100844EF82D1E00FFFF0000010059020000844E000000000080000080BF000000800000008000000080000080BF00000040000080400000404005000000000000000000000000000000
1004
000000000000844E000000000080000080BF000000800000008000000080000080BF000000400000804000004040050000000000000000000000000000000000FFFFFFFFFBF20C00304662BA304662BA304662BA1207A040120780403046623A0100844EF02E1E00010000000100C2020000844E00000000
1004
00000000803F000000000000803F000000000000000000000000000000000000000005000000000000000000000000000000000000000000844E0000000000000000803F000000000000803F000000000000000000000000000000000000000005000000000000000000000000000000000001000000FBF2
1004
0400304662BA304662BA304662BA1207A0403046623A240E40400100844E882F1E00010000000100C1020000844E00000000803F000000000000000000000000000000000000803F00000000000000000000000005000000000000000000000000000000000000000000844E00000000803F000000000000
1004
000000000000000000000000803F00000000000000000000000005000000000000000000000000000000000001000000FBF20400304662BA304662BA304662BA3046623A12078040240E40400100844E18331E00010000000100C0020000844E000000000000000000000000803F000000000000803F0000
1004
000000000000000000000000000005000000000000000000000000000000000000000000844E000000000000000000000000803F000000000000803F0000000000000000000000000000000005000000000000000000000000000000000001000000FBF20C00304662BA304662BADCF13F401207A0401207
1004
8040240E40400100844EE8331E00010000000100BF020000844E0000000080BF000000800000008000000080000080BF000000800000A040000080400000404005000000000000000000000000000000000000000000844E0000000080BF000000800000008000000080000080BF000000800000A0400000
1004
80400000404005000000000000000000000000000000000001000000FBF20C00304662BADCF17F40304662BA1207A04012078040240E40400100844E40281E00010000000100BE020000844E00000000008000000080000080BF000080BF00000080000000800000A0400000804000004040050000000000
1004
00000000000000000000000000000000844E00000000008000000080000080BF000080BF00000080000000800000A040000080400000404005000000000000000000000000000000000001000000FBF20400EEF89F40304662BA304662BA1207A04012078040240E40400100844E10291E00010000000100
1004
BD020000844E000000000080000080BF000000800000008000000080000080BF0000A040000080400000404005000000000000000000000000000000000000000000844E000000000080000080BF000000800000008000000080000080BF0000A04000008040000040400500000000000000000000000000
1004
0000000001000000A4EE00F63F4000B0FF3E000020BA000A40400028003F000A4040000080BF010000400200967590901D0000000100FFFFD8961D0008441E000000020008441E00D8961D00FFFFFFFFFFFFFFFF96750000000080BF000000000000000000000000000080BF00000000000040400000003F
1004
0000803F0200000080BF01000040A4EE00F67F4000B0FF3E000020BA000580400028003F000A40400000C0BF0000C03F0200967548901D0000000100FFFFD8961D0088411E000000020088411E00D8961D00FFFFFFFFFFFFFFFF967500000000803F000000000000000000000000000080BF000000000000
1004
80400000003F0000C03F02000000C0BF0000C03FA4EE00F63F4000B0FF3EDCF13F40000580400028003F000A4040FFFF7FBF000000800200967578851D0000000100FFFFD8961D00E8331E0000000200E8331E00D8961D0001000000FFFFFFFF9675000000000000000000000000803F00000000000080BF
1004
00000000000080400000003F000040400200FFFF7FBF00000080A4EE00F63F4000B0FF3E000020BA000580400028003F3046623A000020C00000C0BF02009675B8821D0000000100FFFFD8961D00F02E1E0000000200F02E1E00D8961D0001000000FFFFFFFF967500000000000000000000000080BF0000
1004
0000000080BF000000000000C03F0000003F000000000200000020C00000C0BFA4EE00F63F4000ECFF3F00D87F3F000A4040000A0040000A0040FFFFFFBE0100003F02009675687B1D000000FFFF010008441E0060451E000000020008441E0060451E00FFFFFFFFFFFFFFFF9675000000000000000080BF
1004
00000000000080BF000000000000000000004040000000400000C03F0200FFFFFFBE0100003FA4EE00F63F4000ECFF3F00ECFF3F000A4040000A4040000A0040000000000100803F02009675F0661D000000FFFF010008441E00A03E1E000000020008441E00A03E1E00FFFFFFFFFFFFFFFF967500000000
1004
0000000000000000803F000080BF00000000000000000000404000004040000000400200000000000100803FA4EE00F63F4000F63F4000D87F3F000A4040000A4040000A0040000080BF0000008002009675305C1D000000FFFF010008441E00703F1E000000020008441E00703F1E00FFFFFFFFFFFFFFFF
1004
96750000000000000000803F00000000000080BF00000000000000000000404000004040000000400200000080BF00000080A4EE00F63F4000B0FF3EDCF13F40000A4040FF048040000A4040FAFFFFBE000040400200967528201E0000000100FFFF08441E00E8331E0000000200E8331E0008441E000100
1004
0000FFFFFFFF9675000000000000000000000000803F000080BF00000000000000000000404001006040000040400200FAFFFFBE00004040A4EE00F63F40DCF17F40000020BA000A4040FF048040000A4040000020C00200003F0200967570201E0000000100FFFF08441E0040281E000000020040281E00
1004
08441E0001000000FFFFFFFF96750000000000000000803F00000000000080BF00000000000000000000404000008040000020400200000020C00200003FA4EE00F63F4000ECFF3F00D87F3F000A4040000A40400014803FFFFFFFBE0200003F02009675D83D1E000000FFFF010008441E0090441E000000
1004
020008441E0090441E00FFFFFFFFFFFFFFFF967500000000000000000000000080BF000080BF000000000000000000004040000020400000803F0200FFFFFFBE0200003FA4EE00F63F4000B0FF3E000020BA000A4040FF0480403046623A010080BF0000204002009675203E1E0000000100FFFF08441E00
1004
F02E1E0000000200F02E1E0008441E0001000000FFFFFFFF967500000000000000000000000080BF000080BF0000000000000000000040400000C03F000000000200010080BF00002040A4EE00F67F4000B0FF3EDCF13F4000058040FF048040000A4040FEFF5FC00000A0340200967558391E0000000100
1004
FFFF88411E00E8331E0000000200E8331E0088411E0001000000FFFFFFFF9675000000000000000000000000803F0000803F000000000000000000008040FFFF7F40000040400200FEFF5FC00000A034A4EE00F67F40DCF17F40000020BA00058040FF048040000A4040000000000000404002009675F031
1004
1E0000000100FFFF88411E0040281E000000020040281E0088411E0001000000FFFFFFFF96750000000000000000803F000000000000803F000000800000000000008040000080400000404002000000000000004040A4EE00F67F4000B0FF3E000020BA00058040FF0480403046623A010000C0FFFFBF3F
1004
0200967580271E0000000100FFFF88411E00F02E1E0000000200F02E1E0088411E0001000000FFFFFFFF967500000000000000000000000080BF0000803F000000000000000000008040FFFFFF3F000000000200010000C0FFFFBF3FA4EE00ECFF3F00ECFF3F00D87F3F000A4040000A00400014803F0000
1004
00000100803F02009675B0241E0000000100FFFF90441E0060451E000000020060451E0090441E00FFFFFFFFFFFFFFFF9675000000000000000080BF000000000000000000000000000080BF00000040000000400000803F0200000000000100803FA4EE00ECFF3F00F63F4000D87F3F000A4040000A4040
1004
0014803F020000BFFFFFFF3E02009675F85D1E0000000100FFFF90441E00703F1E0000000200703F1E0090441E00FFFFFFFFFFFFFFFF96750000000000000000803F000000000000000000000000000080BF00002040000040400000803F0200020000BFFFFFFF3EA4EE00ECFF3F00ECFF3F00D87F3F000A
1004
0040000A40400014803F010080BF0000008002009675405E1E000000FFFF010090441E00F82D1E000000020090441E00F82D1E00FFFFFFFFFFFFFFFF967500000000803F00000000000000000000000000000000000080BF00000040000040400000803F0200010080BF00000080A4EE00ECFF3F00ECFF3F
1004
00ECFF3F000A4040000A0040000A0040FFFFFFBE0200003F0200967550551E0000000100FFFF60451E00A03E1E0000000200A03E1E0060451E00FFFFFFFFFFFFFFFF9675000000000000000000000000803F00000000000080BF000000000000204000000040000000400200FFFFFFBE0200003FA4EE00EC
1004
FF3F00ECFF3F00D87F3F000A0040000A0040000A0040000020340100803F02009675B08E1E000000FFFF010060451E00F82D1E000000020060451E00F82D1E00FFFFFFFFFFFFFFFF967500000000803F000000000000000000000000000080BF000000000000004000000040010000400200000020340100
1004
803FA4EE00ECFF3F00F63F4000ECFF3F000A4040000A4040000A0040010080BF0000000002009675888F1E0000000100FFFFA03E1E00703F1E0000000200703F1E00A03E1E00FFFFFFFFFFFFFFFF96750000000000000000803F0000000000000000000000000000803F0000404000004040000000400200
1004
010080BF00000000A4EE00ECFF3F00ECFF3F00ECFF3F000A0040000A4040000A00400200003F0200C03F0200967570961E000000FFFF0100A03E1E00F82D1E0000000200A03E1E00F82D1E00FFFFFFFFFFFFFFFF967500000000803F000000000000000000000080000000000000803F0000004001006040
1004
0000004002000200003F0200C03FA4EE00ECFF3F00F63F4000D87F3F000A0040000A4040000A00400000C0BFFFFFFFBE02009675B8961E000000FFFF0100703F1E00F82D1E0000000200703F1E00F82D1E00FFFFFFFFFFFFFFFF967500000000803F0000000000000000000000000000803F000000000000
1004
0040000040400000204002000000C0BFFFFFFFBEA4EE00D87F3F00D87F3F000020BA0014803F0014803F000A4040000000000000404002009675F8981E0000000100FFFFB8341E00102C1E0000000200102C1E00B8341E00FFFFFFFFFFFFFFFF96750000000080BF000000000000000000000000000080BF
1004
000000000000803F0000803F0000000002000000000000004040A4EE00ECFF3F00D87F3F000020BA000A00400014803F000A40400000C0BF0000C03F02009675F0BA1E0000000100FFFFB8341E00F82D1E0000000200F82D1E00B8341E00FFFFFFFFFFFFFFFF967500000000803F00000000000000000000
1004
0000000080BF00000000000000400000803F0000C03F02000000C0BF0000C03FA4EE00D87F3F00D87F3FDCF13F40000A00400014803F000A4040010000C0010080BF0200967508BE1E0000000100FFFFB8341E00E8331E0000000200E8331E00B8341E0001000000FFFFFFFF967500000000000000000000
1004
0000803F00000000000080BF0000000000004040FFFF7F3F000040400200010000C0010080BFA4EE00D87F3F00D87F3F000020BA000A00400014803F3046623A0000C0BF000000BF02009675F0AA1E0000000100FFFFB8341E00F02E1E0000000200F02E1E00B8341E0001000000FFFFFFFF967500000000
1004
000000000000000080BF00000000000080BF000000000000003F0000803F0000000002000000C0BF000000BFA4EE00D87F3F00D87F3FDCF13F400014803F00058040000A40400000C0BF0000C03F02009675D0991E0000000100FFFF102C1E00E8331E0000000200E8331E00102C1E0001000000FFFFFFFF
1004
9675000000000000000000000000803F000080BF00000000000000000000803F000020400000404002000000C0BF0000C03FA4EE00D87F3FDCF17F40000020BA0014803F00058040000A40400000C0BF0000C03F0200967520981E0000000100FFFF102C1E0040281E000000020040281E00102C1E000100
1004
0000FFFFFFFF96750000000000000000803F00000000000080BF00000000000000000000803F000080400000C03F02000000C0BF0000C03FA4EE00D87F3F00D87F3F000020BA0014803F000580403046623A0000003F000060400200967518891E0000000100FFFF102C1E00F02E1E0000000200F02E1E00
1004
102C1E0001000000FFFFFFFF967500000000000000000000000080BF000080BF00000000000000000000803F0000003F0000000002000000003F00006040A4EE00ECFF3F00D87F3FDCF13F40000A004000058040000A4040000040C0000000800200967500491E0000000100FFFFF82D1E00E8331E000000
1004
0200E8331E00F82D1E0001000000FFFFFFFF9675000000000000000000000000803F0000803F00000000000000000000004000008040000040400200000040C000000080A4EE00ECFF3FDCF17F40000020BA000A004000058040000A4040000000000000404002009675F0491E0000000100FFFFF82D1E00
1004
40281E000000020040281E00F82D1E0001000000FFFFFFFF96750000000000000000803F000000000000803F000000800000000000000040000080400000404002000000000000004040A4EE00ECFF3F00D87F3F000020BA000A0040000580403046623A000000C00000803F02009675E04A1E0000000100
1004
FFFFF82D1E00F02E1E0000000200F02E1E00F82D1E0001000000FFFFFFFF967500000000000000000000000080BF0000803F00000000000000000000004000000040000000000200000000C00000803FA4EE304662BADCF17F40304662BA1207A040120780403046623A000020C00000C0BF02009675D04B
1004
1E000000FFFF0100F02E1E0040281E0000000200F02E1E0040281E00010000000100000096750000000000000000803F000000000000000000000000000080BF0000204000008040000000000200000020C00000C0BFA4EE304662BADCF17F40304662BA1207A040120780403046623A020000BFFFFFFF3E
1004
02009675C04C1E000000FFFF0100F02E1E0040281E0000000200F02E1E0040281E00010000000100000096750000000000000000803F000000000000000000000000000080BF0000204000008040000000000200020000BFFFFFFF3EA4EE304662BADCF17F40304662BA1207A040120780403046623A0000
1004
C03F0000204002009675B04D1E000000FFFF0100F02E1E0040281E0000000200F02E1E0040281E00010000000100000096750000000000000000803F000000000000000000000000000080BF00002040000080400000000002000000C03F00002040A4EEEEF89F40304662BA304662BA1207A04012078040
1004
3046623A000000C00000004002009675B8181E000000FFFF0100F02E1E0010291E0000000200F02E1E0010291E000100000001000000967500000000803F00000000000000000000000000000000000080BF0000A04000000040000000000200000000C000000040A4EE304662BA304662BA304662BA3046
1004
623A120780403046623A000080C00000008002009675A8191E000000FFFF0100F02E1E0018331E0000000200F02E1E0018331E00010000000100000096750000000080BF00000000000000000000000000000000000080BF0000000000000000000000000200000080C000000080A4EE304662BA304662BA
1004
304662BA1207A0403046623A3046623A000000000000A04002009675981A1E000000FFFF0100F02E1E00882F1E0000000200F02E1E00882F1E0001000000010000009675000000000000000080BF000000000000000000000000000080BF0000000000000000000000000200000000000000A040A4EE3046
1004
62BA304662BADCF13F401207A0403046623A240E4040000020C00000204002009675881B1E000000FFFF0100882F1E00E8331E0000000200882F1E00E8331E0001000000010000009675000000000000000000000000803F00000000000080BF000000000000204000000000000040400200000020C00000
1004
2040A4EEEEF89F40304662BA304662BA1207A0403046623A240E40400000C0BF0000C03F02009675781C1E000000FFFF0100882F1E0010291E0000000200882F1E0010291E000100000001000000967500000000803F000000000000000000000000000080BF000000000000A040000000000000C03F0200
1004
0000C0BF0000C03FA4EE304662BA304662BA304662BA3046623A3046623A240E4040000000000000404002009675681D1E000000FFFF0100882F1E0018331E0000000200882F1E0018331E00010000000100000096750000000080BF000000000000000000000000000080BF000000000000000000000000
1004
0000000002000000000000004040A4EE304662BA304662BADCF13F403046623A12078040240E4040000000C00000004002009675581E1E000000FFFF010018331E00E8331E000000020018331E00E8331E0001000000010000009675000000000000000000000000803F000080BF00000000000000000000
1004
000000000040000040400200000000C000000040A4EE304662BADCF17F40304662BA3046623A12078040240E40400000C0BF0000C03F02009675981F1E000000FFFF010018331E0040281E000000020018331E0040281E00010000000100000096750000000000000000803F00000000000080BF00000000
1004
0000000000000000000080400000C03F02000000C0BF0000C03FA4EE304662BADCF17F40DCF13F401207A04012078040240E40400000A0C0000080C00200967558CA1E000000FFFF0100E8331E0040281E0000000200E8331E0040281E00010000000100000096750000000000000000803F000000000000
1004
0000000000000000803F0000A040000080400000404002000000A0C0000080C0A4EE304662BADCF17F40DCF13F401207A04012078040240E4040000040C0FFFFFFBF0200967548CB1E000000FFFF0100E8331E0040281E0000000200E8331E0040281E00010000000100000096750000000000000000803F
1004
0000000000000000000000000000803F0000A04000008040000040400200000040C0FFFFFFBFA4EE304662BADCF17F40DCF13F401207A04012078040240E4040FFFF7FBF000000800200967538CC1E000000FFFF0100E8331E0040281E0000000200E8331E0040281E000100000001000000967500000000
1004
00000000803F0000000000000000000000000000803F0000A04000008040000040400200FFFF7FBF00000080A4EEEEF89F40304662BADCF13F401207A04012078040240E404000000000000080400200967528CD1E000000FFFF0100E8331E0010291E0000000200E8331E0010291E000100000001000000
1004
967500000000803F000000000000000000000080000000000000803F0000A040000080400000404002000000000000008040A4EEEEF89F40DCF17F40304662BA1207A04012078040240E4040000040C0000000800200967518CE1E000000FFFF010040281E0010291E000000020040281E0010291E000100
1004
000001000000967500000000803F0000000000000000000000000000803F000000000000A04000008040000040400200000040C00000008019FC
1005
3AB
  0
INSERT
  8
AME_FRZ
  5
3AB
  2
AME_NIL
 10
1.0
 20
1.0
 30
1.0
1001
AME_SOL
1004

1005
0
  0
INSERT
  8
AME_FRZ
  5
3AC
  2
AME_MAT
 10
0.0
 20
0.0
 30
0.0
1001
AME_SOL
1000
MILD_STEEL
1040
7860.0
1040
220.0
1040
0.275
1040
207.0
1040
345.0
1040
56.0
1040
12.0
1040
0.46
  0
ENDSEC
  0
EOF
