600 0 1 0           
62 GICL ACIS Healer - Source: bearing_shaft_57_link1_42.sat - 6 0 18 ACIS 6.0.3 Solaris 24 Fri Mar 29 22:12:38 2002 
1 9.999999999999999547e-07 1.000000000000000036e-10 
body $1 $2 $-1 $-1 #
aggregate_advspl_attribute-aggregate_geombuild_base_attribute-aggregate_body_attribute-attrib_HH-attrib $-1 $3 $-1 $0 F #
lump $-1 $-1 $4 $0 #
aggregate_secndry_attribute-aggregate_geombuild_base_attribute-aggregate_body_attribute-attrib_HH-attrib $-1 $5 $1 $0 F #
shell $-1 $-1 $-1 $6 $-1 $2 #
aggregate_sharped_attribute-aggregate_geombuild_base_attribute-aggregate_body_attribute-attrib_HH-attrib $-1 $7 $3 $0 F #
face $8 $9 $10 $4 $-1 $11 forward single #
aggregate_reblend_attribute-aggregate_geombuild_base_attribute-aggregate_body_attribute-attrib_HH-attrib $-1 $12 $5 $0 F #
attrib_hh_face_geombuild-attrib_entity_geombuild-individual_entity_attribute-attrib_HH-attrib $-1 $-1 $-1 $6 F #
face $13 $14 $15 $4 $-1 $16 forward single #
loop $-1 $-1 $17 $6 #
plane-surface $-1 3.005199999999999871 4.936999999999999389 4.130200000000000315 0 1 0 0.7071067811865474617 0 0.7071067811865474617 forward_v I I I I #
aggregate_isospline_attribute-aggregate_geombuild_base_attribute-aggregate_body_attribute-attrib_HH-attrib $-1 $18 $7 $0 F #
attrib_hh_face_geombuild-attrib_entity_geombuild-individual_entity_attribute-attrib_HH-attrib $-1 $-1 $-1 $9 F #
face $19 $20 $21 $4 $-1 $22 forward single #
loop $-1 $23 $24 $9 #
plane-surface $-1 3.005199999999999871 4.357999999999999652 4.130200000000000315 0 1 0 0.7071067811865474617 0 0.7071067811865474617 forward_v I I I I #
coedge $25 $17 $17 $26 $27 forward $10 $-1 #
aggregate_analytic_solver_attribute-aggregate_geombuild_base_attribute-aggregate_body_attribute-attrib_HH-attrib $-1 $28 $12 $0 F #
attrib_hh_face_geombuild-attrib_entity_geombuild-individual_entity_attribute-attrib_HH-attrib $-1 $-1 $-1 $14 F #
face $29 $30 $31 $4 $-1 $32 forward single #
loop $-1 $33 $34 $14 #
plane-surface $-1 3.005199999999999871 3.685999999999999499 4.130200000000000315 0 1 0 0.7071067811865474617 0 0.7071067811865474617 forward_v I I I I #
loop $-1 $-1 $35 $9 #
coedge $36 $24 $24 $37 $38 forward $15 $-1 #
attrib_hh_coedge_geombuild-attrib_entity_geombuild-individual_entity_attribute-attrib_HH-attrib $-1 $-1 $-1 $17 F #
coedge $39 $26 $26 $17 $27 reversed $40 $-1 #
edge $41 $42 0 $42 6.283185307179586232 $26 $43 forward 7 unknown #
aggregate_geombuild_attribute-aggregate_geombuild_base_attribute-aggregate_body_attribute-attrib_HH-attrib $-1 $44 $18 $0 #
attrib_hh_face_geombuild-attrib_entity_geombuild-individual_entity_attribute-attrib_HH-attrib $-1 $-1 $-1 $20 F #
face $45 $46 $47 $4 $-1 $48 reversed single #
loop $-1 $49 $50 $20 #
plane-surface $-1 3.005199999999999871 3.217999999999999972 4.130200000000000315 0 1 0 0.7071067811865474617 0 0.7071067811865474617 forward_v I I I I #
loop $-1 $-1 $51 $14 #
coedge $52 $34 $34 $53 $54 forward $21 $-1 #
coedge $55 $35 $35 $56 $57 forward $23 $-1 #
attrib_hh_coedge_geombuild-attrib_entity_geombuild-individual_entity_attribute-attrib_HH-attrib $-1 $-1 $-1 $24 F #
coedge $58 $37 $37 $24 $38 reversed $59 $-1 #
edge $60 $61 -3.141592653589790007 $61 3.141592653589796225 $24 $62 forward 7 unknown #
attrib_hh_coedge_geombuild-attrib_entity_geombuild-individual_entity_attribute-attrib_HH-attrib $-1 $-1 $-1 $26 F #
loop $-1 $-1 $26 $46 #
attrib_hh_edge_geombuild-attrib_entity_geombuild-individual_entity_attribute-attrib_HH-attrib $-1 $-1 $-1 $27 F #
vertex $63 $27 $64 #
ellipse-curve $-1 3.005199999999999871 4.936999999999999389 4.130200000000000315 0 1 0 0.04596194077712558584 0 0.04596194077712558584 1 I I #
aggregate_stitch_attribute-aggregate_stitch_base_attribute-aggregate_body_attribute-attrib_HH-attrib $-1 $65 $28 $0 F #
attrib_hh_face_geombuild-attrib_entity_geombuild-individual_entity_attribute-attrib_HH-attrib $-1 $-1 $-1 $30 F #
face $66 $67 $68 $4 $-1 $69 forward single #
loop $-1 $-1 $70 $30 #
plane-surface $-1 3.005199999999999871 3.171999999999999709 4.130200000000000315 0 1 0 0.7071067811865474617 0 0.7071067811865474617 forward_v I I I I #
loop $-1 $-1 $71 $20 #
coedge $72 $50 $50 $73 $74 forward $31 $-1 #
coedge $75 $51 $51 $76 $77 forward $33 $-1 #
attrib_hh_coedge_geombuild-attrib_entity_geombuild-individual_entity_attribute-attrib_HH-attrib $-1 $-1 $-1 $34 F #
coedge $78 $53 $53 $34 $54 reversed $79 $-1 #
edge $80 $81 -3.141592653589793116 $81 3.141592653589793116 $34 $82 forward 7 unknown #
attrib_hh_coedge_geombuild-attrib_entity_geombuild-individual_entity_attribute-attrib_HH-attrib $-1 $-1 $-1 $35 F #
coedge $83 $56 $56 $35 $57 reversed $84 $-1 #
edge $85 $86 0 $86 6.283185307179586232 $56 $87 forward 7 unknown #
attrib_hh_coedge_geombuild-attrib_entity_geombuild-individual_entity_attribute-attrib_HH-attrib $-1 $-1 $-1 $37 F #
loop $-1 $88 $37 $89 #
attrib_hh_edge_geombuild-attrib_entity_geombuild-individual_entity_attribute-attrib_HH-attrib $-1 $-1 $-1 $38 F #
vertex $90 $38 $91 #
ellipse-curve $-1 3.005199999999999871 4.357999999999999652 4.130200000000000315 0 -1 0 0.06717514421272201275 0 0.06717514421272201275 1 I I #
attrib_hh_vertex_geombuild-attrib_entity_geombuild-individual_entity_attribute-attrib_HH-attrib $-1 $-1 $-1 $42 F #
point $-1 3.051161940777125547 4.936999999999999389 4.176161940777125992 #
aggregate_simgeom_attribute-aggregate_simgeom_base_attribute-aggregate_body_attribute-attrib_HH-attrib $-1 $-1 $44 $0 F #
attrib_hh_face_geombuild-attrib_entity_geombuild-individual_entity_attribute-attrib_HH-attrib $-1 $-1 $-1 $46 F #
face $92 $93 $94 $4 $-1 $95 forward single #
loop $-1 $40 $96 $46 #
cone-surface $-1 3.005199999999999871 4.87699999999999978 4.130200000000000315 0 -1 0 0.08838834764831843271 0 0.08838834764831843271 1 I I 0.7071067811865470176 0.7071067811865480168 0.125 forward I I I I #
coedge $97 $70 $70 $98 $99 forward $47 $-1 #
coedge $100 $71 $71 $101 $102 forward $49 $-1 #
attrib_hh_coedge_geombuild-attrib_entity_geombuild-individual_entity_attribute-attrib_HH-attrib $-1 $-1 $-1 $50 F #
coedge $103 $73 $73 $50 $74 reversed $104 $-1 #
edge $105 $106 -3.141592653589793116 $106 3.141592653589793116 $50 $107 forward 7 unknown #
attrib_hh_coedge_geombuild-attrib_entity_geombuild-individual_entity_attribute-attrib_HH-attrib $-1 $-1 $-1 $51 F #
coedge $108 $76 $76 $51 $77 reversed $109 $-1 #
edge $110 $111 0 $111 6.283185307179586232 $76 $112 forward 7 unknown #
attrib_hh_coedge_geombuild-attrib_entity_geombuild-individual_entity_attribute-attrib_HH-attrib $-1 $-1 $-1 $53 F #
loop $-1 $84 $53 $113 #
attrib_hh_edge_geombuild-attrib_entity_geombuild-individual_entity_attribute-attrib_HH-attrib $-1 $-1 $-1 $54 F #
vertex $114 $54 $115 #
ellipse-curve $-1 3.005199999999999871 3.685999999999999499 4.130200000000000315 0 -1 0 0.1325825214724776491 0 0.1325825214724776491 1 I I #
attrib_hh_coedge_geombuild-attrib_entity_geombuild-individual_entity_attribute-attrib_HH-attrib $-1 $-1 $-1 $56 F #
loop $-1 $-1 $56 $113 #
attrib_hh_edge_geombuild-attrib_entity_geombuild-individual_entity_attribute-attrib_HH-attrib $-1 $-1 $-1 $57 F #
vertex $116 $57 $117 #
ellipse-curve $-1 3.005199999999999871 4.357999999999999652 4.130200000000000315 0 1 0 0.1325825214724776491 0 0.1325825214724776491 1 I I #
loop $-1 $-1 $118 $89 #
face $119 $113 $59 $4 $-1 $120 forward single #
attrib_hh_vertex_geombuild-attrib_entity_geombuild-individual_entity_attribute-attrib_HH-attrib $-1 $-1 $-1 $61 F #
point $-1 2.9380248557872779 4.357999999999999652 4.0630248557872779 #
attrib_hh_face_geombuild-attrib_entity_geombuild-individual_entity_attribute-attrib_HH-attrib $-1 $-1 $-1 $67 F #
face $121 $89 $122 $4 $-1 $123 forward single #
loop $-1 $124 $125 $67 #
cone-surface $-1 3.005199999999999871 3.083749999999999325 4.130200000000000315 0 1 0 -0.08838834764831843271 0 -0.08838834764831843271 1 I I 0 1 0.125 forward I I I I #
coedge $126 $96 $96 $127 $128 forward $68 $-1 #
attrib_hh_coedge_geombuild-attrib_entity_geombuild-individual_entity_attribute-attrib_HH-attrib $-1 $-1 $-1 $70 F #
coedge $129 $98 $98 $70 $99 reversed $130 $-1 #
edge $131 $132 -3.141592653589793116 $132 3.141592653589793116 $70 $133 forward 7 unknown #
attrib_hh_coedge_geombuild-attrib_entity_geombuild-individual_entity_attribute-attrib_HH-attrib $-1 $-1 $-1 $71 F #
coedge $134 $101 $101 $71 $102 reversed $135 $-1 #
edge $136 $137 0 $137 6.283185307179586232 $101 $138 forward 7 unknown #
attrib_hh_coedge_geombuild-attrib_entity_geombuild-individual_entity_attribute-attrib_HH-attrib $-1 $-1 $-1 $73 F #
loop $-1 $109 $73 $139 #
attrib_hh_edge_geombuild-attrib_entity_geombuild-individual_entity_attribute-attrib_HH-attrib $-1 $-1 $-1 $74 F #
vertex $140 $74 $141 #
ellipse-curve $-1 3.005199999999999871 3.217999999999999972 4.130200000000000315 0 -1 0 0.1545028316892606279 0 0.1545028316892606279 1 I I #
attrib_hh_coedge_geombuild-attrib_entity_geombuild-individual_entity_attribute-attrib_HH-attrib $-1 $-1 $-1 $76 F #
loop $-1 $-1 $76 $139 #
attrib_hh_edge_geombuild-attrib_entity_geombuild-individual_entity_attribute-attrib_HH-attrib $-1 $-1 $-1 $77 F #
vertex $142 $77 $143 #
ellipse-curve $-1 3.005199999999999871 3.685999999999999499 4.130200000000000315 0 1 0 0.1545028316892606279 0 0.1545028316892606279 1 I I #
face $144 $139 $79 $4 $-1 $145 forward single #
attrib_hh_vertex_geombuild-attrib_entity_geombuild-individual_entity_attribute-attrib_HH-attrib $-1 $-1 $-1 $81 F #
point $-1 2.872617478527522028 3.685999999999999499 3.997617478527522472 #
attrib_hh_vertex_geombuild-attrib_entity_geombuild-individual_entity_attribute-attrib_HH-attrib $-1 $-1 $-1 $86 F #
point $-1 3.137782521472477715 4.357999999999999652 4.262782521472478159 #
coedge $146 $118 $118 $147 $148 reversed $88 $-1 #
attrib_hh_face_geombuild-attrib_entity_geombuild-individual_entity_attribute-attrib_HH-attrib $-1 $-1 $-1 $89 F #
cone-surface $-1 3.005199999999999871 3.083749999999999325 4.130200000000000315 0 1 0 -0.06717514421272201275 0 -0.06717514421272201275 1 I I 0 1 0.09500000000000000111 forward I I I I #
attrib_hh_face_geombuild-attrib_entity_geombuild-individual_entity_attribute-attrib_HH-attrib $-1 $-1 $-1 $93 F #
loop $-1 $149 $147 $93 #
cone-surface $-1 3.005199999999999871 4.437999999999999723 4.130200000000000315 0 1 0 0.08838834764831843271 0 0.08838834764831843271 1 I I 0.7071067811865470176 0.7071067811865480168 0.125 forward I I I I #
loop $-1 $-1 $127 $67 #
coedge $150 $125 $125 $151 $152 forward $94 $-1 #
attrib_hh_coedge_geombuild-attrib_entity_geombuild-individual_entity_attribute-attrib_HH-attrib $-1 $-1 $-1 $96 F #
coedge $153 $127 $127 $96 $128 reversed $124 $-1 #
edge $154 $155 -3.141592653589793116 $155 3.141592653589793116 $127 $156 forward 7 unknown #
attrib_hh_coedge_geombuild-attrib_entity_geombuild-individual_entity_attribute-attrib_HH-attrib $-1 $-1 $-1 $98 F #
loop $-1 $157 $98 $158 #
attrib_hh_edge_geombuild-attrib_entity_geombuild-individual_entity_attribute-attrib_HH-attrib $-1 $-1 $-1 $99 F #
vertex $159 $99 $160 #
ellipse-curve $-1 3.005199999999999871 3.171999999999999709 4.130200000000000315 0 -1 0 0.165816540188245376 0 0.165816540188245376 1 I I #
attrib_hh_coedge_geombuild-attrib_entity_geombuild-individual_entity_attribute-attrib_HH-attrib $-1 $-1 $-1 $101 F #
loop $-1 $-1 $101 $161 #
attrib_hh_edge_geombuild-attrib_entity_geombuild-individual_entity_attribute-attrib_HH-attrib $-1 $-1 $-1 $102 F #
vertex $162 $102 $163 #
ellipse-curve $-1 3.005199999999999871 3.217999999999999972 4.130200000000000315 0 1 0 0.1877368504050283549 0 0.1877368504050283549 1 I I #
face $164 $161 $104 $4 $-1 $165 forward single #
attrib_hh_vertex_geombuild-attrib_entity_geombuild-individual_entity_attribute-attrib_HH-attrib $-1 $-1 $-1 $106 F #
point $-1 2.850697168310739382 3.217999999999999972 3.975697168310739826 #
attrib_hh_vertex_geombuild-attrib_entity_geombuild-individual_entity_attribute-attrib_HH-attrib $-1 $-1 $-1 $111 F #
point $-1 3.159702831689260361 3.685999999999999499 4.284702831689260805 #
attrib_hh_face_geombuild-attrib_entity_geombuild-individual_entity_attribute-attrib_HH-attrib $-1 $-1 $-1 $113 F #
cone-surface $-1 3.005199999999999871 3.083749999999999325 4.130200000000000315 0 1 0 -0.1325825214724776491 0 -0.1325825214724776491 1 I I 0 1 0.1875 forward I I I I #
attrib_hh_coedge_geombuild-attrib_entity_geombuild-individual_entity_attribute-attrib_HH-attrib $-1 $-1 $-1 $118 F #
coedge $166 $147 $147 $118 $148 forward $122 $-1 #
edge $167 $168 -3.141592653589796225 $168 3.141592653589790007 $118 $169 forward 7 unknown #
loop $-1 $-1 $151 $93 #
attrib_hh_coedge_geombuild-attrib_entity_geombuild-individual_entity_attribute-attrib_HH-attrib $-1 $-1 $-1 $125 F #
coedge $170 $151 $151 $125 $152 reversed $149 $-1 #
edge $171 $172 -3.141592653589793116 $172 3.141592653589793116 $151 $173 forward 7 unknown #
attrib_hh_coedge_geombuild-attrib_entity_geombuild-individual_entity_attribute-attrib_HH-attrib $-1 $-1 $-1 $127 F #
attrib_hh_edge_geombuild-attrib_entity_geombuild-individual_entity_attribute-attrib_HH-attrib $-1 $-1 $-1 $128 F #
vertex $174 $128 $175 #
ellipse-curve $-1 3.005199999999999871 4.87699999999999978 4.130200000000000315 0 1 0 0.08838834764831843271 0 0.08838834764831843271 1 I I #
loop $-1 $-1 $176 $158 #
face $177 $-1 $130 $4 $-1 $178 forward single #
attrib_hh_vertex_geombuild-attrib_entity_geombuild-individual_entity_attribute-attrib_HH-attrib $-1 $-1 $-1 $132 F #
point $-1 2.839383459811754662 3.171999999999999709 3.964383459811755106 #
face $179 $158 $180 $4 $-1 $181 forward single #
attrib_hh_vertex_geombuild-attrib_entity_geombuild-individual_entity_attribute-attrib_HH-attrib $-1 $-1 $-1 $137 F #
point $-1 3.192936850405028171 3.217999999999999972 4.317936850405028615 #
attrib_hh_face_geombuild-attrib_entity_geombuild-individual_entity_attribute-attrib_HH-attrib $-1 $-1 $-1 $139 F #
cone-surface $-1 3.005199999999999871 3.083749999999999325 4.130200000000000315 0 1 0 -0.1545028316892606279 0 -0.1545028316892606279 1 I I 0 1 0.2184999999999999998 forward I I I I #
attrib_hh_coedge_geombuild-attrib_entity_geombuild-individual_entity_attribute-attrib_HH-attrib $-1 $-1 $-1 $147 F #
attrib_hh_edge_geombuild-attrib_entity_geombuild-individual_entity_attribute-attrib_HH-attrib $-1 $-1 $-1 $148 F #
vertex $182 $148 $183 #
ellipse-curve $-1 3.005199999999999871 4.407999999999999474 4.130200000000000315 0 1 0 0.06717514421272201275 0 0.06717514421272201275 1 I I #
attrib_hh_coedge_geombuild-attrib_entity_geombuild-individual_entity_attribute-attrib_HH-attrib $-1 $-1 $-1 $151 F #
attrib_hh_edge_geombuild-attrib_entity_geombuild-individual_entity_attribute-attrib_HH-attrib $-1 $-1 $-1 $152 F #
vertex $184 $152 $185 #
ellipse-curve $-1 3.005199999999999871 4.437999999999999723 4.130200000000000315 0 1 0 0.08838834764831843271 0 0.08838834764831843271 1 I I #
attrib_hh_vertex_geombuild-attrib_entity_geombuild-individual_entity_attribute-attrib_HH-attrib $-1 $-1 $-1 $155 F #
point $-1 2.916811652351681605 4.87699999999999978 4.041811652351682049 #
coedge $186 $176 $176 $187 $188 reversed $157 $-1 #
attrib_hh_face_geombuild-attrib_entity_geombuild-individual_entity_attribute-attrib_HH-attrib $-1 $-1 $-1 $158 F #
cone-surface $-1 3.005199999999999871 3.202999999999999403 4.130200000000000315 0 1 0 0.1877368504050283549 0 0.1877368504050283549 1 I I 0.707106781186549016 0.7071067811865460184 0.2655000000000000138 forward I I I I #
attrib_hh_face_geombuild-attrib_entity_geombuild-individual_entity_attribute-attrib_HH-attrib $-1 $-1 $-1 $161 F #
loop $-1 $135 $187 $161 #
cone-surface $-1 3.005199999999999871 3.083749999999999325 4.130200000000000315 0 1 0 -0.1877368504050283549 0 -0.1877368504050283549 1 I I 0 1 0.2655000000000000138 forward I I I I #
attrib_hh_vertex_geombuild-attrib_entity_geombuild-individual_entity_attribute-attrib_HH-attrib $-1 $-1 $-1 $168 F #
point $-1 2.9380248557872779 4.407999999999999474 4.0630248557872779 #
attrib_hh_vertex_geombuild-attrib_entity_geombuild-individual_entity_attribute-attrib_HH-attrib $-1 $-1 $-1 $172 F #
point $-1 2.916811652351681605 4.437999999999999723 4.041811652351682049 #
attrib_hh_coedge_geombuild-attrib_entity_geombuild-individual_entity_attribute-attrib_HH-attrib $-1 $-1 $-1 $176 F #
coedge $189 $187 $187 $176 $188 forward $180 $-1 #
edge $190 $191 -3.141592653589793116 $191 3.141592653589793116 $176 $192 forward 7 unknown #
attrib_hh_coedge_geombuild-attrib_entity_geombuild-individual_entity_attribute-attrib_HH-attrib $-1 $-1 $-1 $187 F #
attrib_hh_edge_geombuild-attrib_entity_geombuild-individual_entity_attribute-attrib_HH-attrib $-1 $-1 $-1 $188 F #
vertex $193 $188 $194 #
ellipse-curve $-1 3.005199999999999871 3.202999999999999403 4.130200000000000315 0 1 0 0.1877368504050283549 0 0.1877368504050283549 1 I I #
attrib_hh_vertex_geombuild-attrib_entity_geombuild-individual_entity_attribute-attrib_HH-attrib $-1 $-1 $-1 $191 F #
point $-1 2.817463149594971572 3.202999999999999403 3.942463149594972016 #
End-of-ACIS-data 