106 0 1 0           
body $-1 $1 $-1 $-1 #
lump $-1 $-1 $2 $0 #
shell $-1 $-1 $-1 $3 $1 #
face $-1 $4 $5 $2 $-1 $6 forward single #
face $-1 $7 $8 $2 $-1 $6 forward single #
loop $-1 $-1 $9 $3 #
plane-surface $-1 0 10 10 0 -1 0 0 0 -1 0 I I I I #
face $-1 $10 $11 $2 $-1 $12 forward single #
loop $-1 $-1 $13 $4 #
coedge $-1 $14 $15 $16 $17 1 $5 $-1 #
face $-1 $18 $19 $2 $-1 $20 forward single #
loop $-1 $-1 $21 $7 #
plane-surface $-1 0 -10 10 0 1 0 0 0 1 0 I I I I #
coedge $-1 $22 $23 $24 $25 1 $8 $-1 #
coedge $-1 $26 $9 $27 $28 0 $5 $-1 #
coedge $-1 $9 $26 $29 $30 1 $5 $-1 #
coedge $-1 $31 $32 $9 $17 0 $33 $-1 #
edge $-1 $34 $35 $16 $36 0 #
face $-1 $37 $38 $2 $-1 $20 forward single #
loop $-1 $-1 $39 $10 #
plane-surface $-1 0 0 0 0 0 1 1 0 0 0 I I I I #
coedge $-1 $40 $41 $42 $43 1 $11 $-1 #
coedge $-1 $44 $13 $45 $46 1 $8 $-1 #
coedge $-1 $13 $44 $47 $48 0 $8 $-1 #
coedge $-1 $49 $50 $13 $25 0 $51 $-1 #
edge $-1 $52 $53 $24 $54 0 #
coedge $-1 $15 $14 $55 $56 1 $5 $-1 #
coedge $-1 $39 $57 $14 $28 1 $19 $-1 #
edge $-1 $34 $58 $14 $59 0 #
coedge $-1 $60 $61 $15 $30 0 $62 $-1 #
edge $-1 $35 $63 $29 $64 0 #
coedge $-1 $65 $16 $61 $66 1 $33 $-1 #
coedge $-1 $16 $42 $39 $67 0 $33 $-1 #
loop $-1 $-1 $16 $68 #
vertex $-1 $67 $69 #
vertex $-1 $66 $70 #
straight-curve $-1 20 10 5 0 0 1 I I #
face $-1 $71 $72 $2 $-1 $12 forward single #
loop $-1 $-1 $73 $18 #
coedge $-1 $74 $27 $32 $67 1 $19 $-1 #
coedge $-1 $75 $21 $76 $77 1 $11 $-1 #
coedge $-1 $21 $75 $74 $78 0 $11 $-1 #
coedge $-1 $32 $79 $21 $43 0 $33 $-1 #
edge $-1 $80 $81 $42 $82 0 #
coedge $-1 $23 $22 $83 $84 0 $8 $-1 #
coedge $-1 $85 $86 $22 $46 0 $62 $-1 #
edge $-1 $87 $52 $45 $64 0 #
coedge $-1 $88 $73 $23 $48 1 $38 $-1 #
edge $-1 $89 $53 $23 $59 0 #
coedge $-1 $90 $24 $73 $91 0 $51 $-1 #
coedge $-1 $24 $92 $85 $93 1 $51 $-1 #
loop $-1 $-1 $90 $94 #
vertex $-1 $25 $95 #
vertex $-1 $91 $96 #
straight-curve $-1 -20 10 5 0 0 -1 I I #
coedge $-1 $97 $98 $26 $56 0 $99 $-1 #
edge $-1 $63 $58 $55 $100 0 #
coedge $-1 $27 $74 $97 $101 1 $19 $-1 #
vertex $-1 $101 $102 #
straight-curve $-1 0 10 0 1 0 0 I I #
coedge $-1 $76 $29 $98 $103 0 $62 $-1 #
coedge $-1 $29 $104 $31 $66 0 $62 $-1 #
loop $-1 $-1 $105 $106 #
vertex $-1 $30 $107 #
straight-curve $-1 0 10 20 1 0 0 I I #
coedge $-1 $108 $31 $109 $110 0 $33 $-1 #
edge $-1 $111 $35 $61 $112 0 #
edge $-1 $81 $34 $32 $113 0 #
face $-1 $114 $33 $2 $-1 $115 forward single #
point $-1 20 10 0 #
point $-1 20 10 20 #
face $-1 $116 $117 $2 $-1 $118 forward single #
loop $-1 $-1 $119 $37 #
coedge $-1 $47 $120 $49 $91 1 $38 $-1 #
coedge $-1 $57 $39 $41 $78 1 $19 $-1 #
coedge $-1 $41 $40 $121 $122 0 $11 $-1 #
coedge $-1 $123 $60 $40 $77 0 $62 $-1 #
edge $-1 $124 $80 $76 $125 0 #
edge $-1 $126 $81 $41 $127 0 #
coedge $-1 $42 $128 $123 $129 1 $33 $-1 #
vertex $-1 $43 $130 #
vertex $-1 $67 $131 #
straight-curve $-1 20 -10 5 0 0 -1 I I #
coedge $-1 $132 $133 $44 $84 1 $117 $-1 #
edge $-1 $87 $89 $44 $134 0 #
coedge $-1 $104 $45 $50 $93 0 $62 $-1 #
coedge $-1 $45 $105 $132 $135 0 $62 $-1 #
vertex $-1 $135 $136 #
coedge $-1 $120 $47 $133 $137 1 $38 $-1 #
vertex $-1 $48 $138 #
coedge $-1 $139 $49 $119 $140 0 $51 $-1 #
edge $-1 $53 $141 $49 $142 0 #
coedge $-1 $50 $143 $144 $145 1 $51 $-1 #
edge $-1 $52 $146 $85 $147 0 #
face $-1 $148 $51 $2 $-1 $149 forward single #
point $-1 -20 10 20 #
point $-1 -20 10 0 #
coedge $-1 $121 $55 $57 $101 0 $99 $-1 #
coedge $-1 $55 $121 $60 $103 1 $99 $-1 #
loop $-1 $-1 $121 $116 #
straight-curve $-1 30 10 10 0 0 -1 I I #
edge $-1 $58 $126 $97 $150 0 #
point $-1 30 10 0 #
edge $-1 $63 $124 $60 $151 0 #
coedge $-1 $61 $85 $152 $153 0 $62 $-1 #
coedge $-1 $86 $154 $155 $156 0 $62 $-1 #
face $-1 $157 $158 $2 $-1 $159 forward single #
point $-1 30 10 20 #
coedge $-1 $128 $65 $160 $161 1 $33 $-1 #
coedge $-1 $152 $162 $65 $110 1 $163 $-1 #
edge $-1 $111 $164 $65 $165 0 #
vertex $-1 $153 $166 #
straight-curve $-1 20 0 20 0 -1 0 I I #
straight-curve $-1 20 0 0 0 1 0 I I #
face $-1 $167 $168 $2 $-1 $169 reversed single #
plane-surface $-1 20 0 0 -1 0 0 0 0 1 0 I I I I #
face $-1 $106 $99 $2 $-1 $170 forward single #
loop $-1 $-1 $83 $71 #
plane-surface $-1 -30 0 10 1 0 0 0 0 -1 0 I I I I #
coedge $-1 $171 $155 $90 $140 1 $72 $-1 #
coedge $-1 $73 $88 $171 $172 1 $38 $-1 #
coedge $-1 $98 $97 $75 $122 1 $99 $-1 #
edge $-1 $124 $126 $121 $173 0 #
coedge $-1 $174 $76 $79 $129 0 $62 $-1 #
vertex $-1 $77 $175 #
straight-curve $-1 0 -10 20 -1 0 0 I I #
vertex $-1 $122 $176 #
straight-curve $-1 0 -10 0 -1 0 0 I I #
coedge $-1 $79 $108 $177 $178 1 $33 $-1 #
edge $-1 $80 $179 $123 $112 0 #
point $-1 20 -10 20 #
point $-1 20 -10 0 #
coedge $-1 $180 $83 $86 $135 1 $117 $-1 #
coedge $-1 $83 $180 $88 $137 0 $117 $-1 #
straight-curve $-1 -30 10 10 0 0 -1 I I #
edge $-1 $181 $87 $86 $182 0 #
point $-1 -30 10 20 #
edge $-1 $183 $89 $133 $184 0 #
point $-1 -30 10 0 #
coedge $-1 $185 $90 $154 $186 1 $51 $-1 #
edge $-1 $141 $187 $90 $188 0 #
vertex $-1 $91 $189 #
straight-curve $-1 -20 0 0 0 -1 0 I I #
coedge $-1 $92 $185 $190 $191 1 $51 $-1 #
coedge $-1 $162 $152 $92 $145 0 $163 $-1 #
edge $-1 $146 $192 $144 $193 0 #
vertex $-1 $93 $194 #
straight-curve $-1 -20 0 20 0 1 0 I I #
face $-1 $68 $163 $2 $-1 $195 forward single #
plane-surface $-1 -20 0 0 1 0 0 0 0 -1 0 I I I I #
straight-curve $-1 30 0 0 0 -1 0 I I #
straight-curve $-1 30 0 20 0 -1 0 I I #
coedge $-1 $144 $109 $104 $153 1 $163 $-1 #
edge $-1 $146 $111 $104 $196 0 #
coedge $-1 $105 $174 $139 $186 0 $62 $-1 #
coedge $-1 $119 $197 $105 $156 1 $72 $-1 #
edge $-1 $187 $181 $105 $125 0 #
face $-1 $94 $198 $2 $-1 $199 forward single #
loop $-1 $62 $200 $106 #
plane-surface $-1 0 0 20 0 0 1 1 0 0 0 I I I I #
coedge $-1 $201 $202 $108 $161 0 $168 $-1 #
edge $-1 $203 $164 $160 $204 0 #
coedge $-1 $109 $144 $201 $205 1 $163 $-1 #
loop $-1 $-1 $109 $148 #
vertex $-1 $205 $206 #
straight-curve $-1 20 20 0 0 0 -1 I I #
point $-1 20 20 20 #
face $-1 $207 $208 $2 $-1 $209 reversed single #
loop $-1 $210 $202 $114 #
plane-surface $-1 0 0 -20 0 0 1 1 0 0 0 I I I I #
plane-surface $-1 30 0 10 -1 0 0 0 0 1 0 I I I I #
coedge $-1 $197 $119 $120 $172 0 $72 $-1 #
edge $-1 $141 $183 $171 $127 0 #
straight-curve $-1 30 -10 10 0 0 -1 I I #
coedge $-1 $154 $123 $211 $212 0 $62 $-1 #
point $-1 30 -10 20 #
point $-1 30 -10 0 #
coedge $-1 $213 $211 $128 $178 0 $198 $-1 #
edge $-1 $179 $203 $128 $214 0 #
vertex $-1 $212 $215 #
coedge $-1 $133 $132 $197 $216 0 $117 $-1 #
vertex $-1 $156 $217 #
straight-curve $-1 -30 0 20 0 1 0 I I #
vertex $-1 $137 $218 #
straight-curve $-1 -30 0 0 0 1 0 I I #
coedge $-1 $143 $139 $219 $220 0 $51 $-1 #
edge $-1 $221 $187 $154 $147 0 #
vertex $-1 $186 $222 #
straight-curve $-1 -20 -10 5 0 0 1 I I #
point $-1 -20 -10 0 #
coedge $-1 $202 $201 $143 $191 0 $168 $-1 #
edge $-1 $192 $223 $190 $224 0 #
vertex $-1 $191 $225 #
straight-curve $-1 -20 20 0 0 0 -1 I I #
point $-1 -20 20 20 #
plane-surface $-1 0 20 0 0 -1 0 0 0 -1 0 I I I I #
straight-curve $-1 0 20 20 1 0 0 I I #
coedge $-1 $155 $171 $180 $216 1 $72 $-1 #
loop $-1 $-1 $219 $157 #
plane-surface $-1 0 -20 0 0 1 0 0 0 1 0 I I I I #
coedge $-1 $226 $227 $228 $229 0 $158 $-1 #
coedge $-1 $190 $160 $162 $205 0 $168 $-1 #
coedge $-1 $160 $190 $213 $230 0 $168 $-1 #
vertex $-1 $230 $231 #
straight-curve $-1 20 0 -20 0 1 0 I I #
edge $-1 $164 $192 $201 $232 0 #
point $-1 20 20 -20 #
face $-1 $233 $234 $2 $-1 $235 reversed single #
loop $-1 $-1 $236 $167 #
plane-surface $-1 0 -40 0 0 1 0 0 0 1 0 I I I I #
loop $-1 $-1 $237 $114 #
coedge $-1 $177 $219 $174 $212 1 $198 $-1 #
edge $-1 $179 $221 $174 $238 0 #
coedge $-1 $219 $177 $202 $230 1 $198 $-1 #
straight-curve $-1 20 -20 0 0 0 -1 I I #
point $-1 20 -20 20 #
edge $-1 $181 $183 $180 $239 0 #
point $-1 -30 -10 20 #
point $-1 -30 -10 0 #
coedge $-1 $211 $213 $185 $220 1 $198 $-1 #
edge $-1 $221 $223 $185 $240 0 #
vertex $-1 $212 $241 #
point $-1 -20 -10 20 #
vertex $-1 $230 $242 #
straight-curve $-1 -20 0 -20 0 -1 0 I I #
point $-1 -20 20 -20 #
coedge $-1 $243 $200 $244 $245 0 $158 $-1 #
coedge $-1 $200 $243 $246 $247 0 $158 $-1 #
coedge $-1 $248 $249 $200 $229 1 $250 $-1 #
edge $-1 $251 $252 $228 $253 0 #
edge $-1 $223 $203 $202 $254 0 #
point $-1 20 -20 -20 #
straight-curve $-1 0 20 -20 -1 0 0 I I #
face $-1 $255 $256 $2 $-1 $257 reversed single #
loop $-1 $-1 $258 $207 #
plane-surface $-1 -40 0 0 1 0 0 0 0 -1 0 I I I I #
coedge $-1 $259 $246 $260 $261 0 $208 $-1 #
coedge $-1 $262 $263 $264 $265 0 $210 $-1 #
straight-curve $-1 0 -20 20 -1 0 0 I I #
straight-curve $-1 -30 -10 10 0 0 -1 I I #
straight-curve $-1 -20 -20 0 0 0 -1 I I #
point $-1 -20 -20 20 #
point $-1 -20 -20 -20 #
coedge $-1 $227 $226 $266 $267 0 $158 $-1 #
coedge $-1 $268 $269 $226 $245 1 $256 $-1 #
edge $-1 $252 $270 $244 $271 0 #
coedge $-1 $236 $272 $227 $247 1 $208 $-1 #
edge $-1 $273 $251 $246 $274 0 #
coedge $-1 $264 $228 $272 $275 0 $250 $-1 #
coedge $-1 $228 $264 $268 $276 1 $250 $-1 #
loop $-1 $-1 $248 $255 #
vertex $-1 $229 $277 #
vertex $-1 $229 $278 #
straight-curve $-1 40 0 20 0 1 0 I I #
straight-curve $-1 0 -20 -20 1 0 0 I I #
face $-1 $-1 $250 $2 $-1 $279 reversed single #
loop $-1 $-1 $268 $233 #
plane-surface $-1 0 40 0 0 -1 0 0 0 -1 0 I I I I #
coedge $-1 $280 $266 $269 $281 0 $234 $-1 #
coedge $-1 $272 $236 $262 $282 1 $208 $-1 #
coedge $-1 $266 $280 $236 $261 1 $234 $-1 #
edge $-1 $273 $283 $260 $284 0 #
coedge $-1 $285 $237 $259 $282 0 $210 $-1 #
coedge $-1 $237 $285 $286 $287 0 $210 $-1 #
coedge $-1 $249 $248 $237 $265 1 $250 $-1 #
edge $-1 $288 $289 $264 $290 0 #
coedge $-1 $258 $260 $243 $267 1 $234 $-1 #
edge $-1 $270 $273 $266 $291 0 #
coedge $-1 $286 $244 $249 $276 0 $256 $-1 #
coedge $-1 $244 $286 $258 $281 1 $256 $-1 #
vertex $-1 $245 $292 #
straight-curve $-1 0 40 20 -1 0 0 I I #
coedge $-1 $246 $259 $248 $275 1 $208 $-1 #
vertex $-1 $267 $293 #
straight-curve $-1 0 -40 20 1 0 0 I I #
edge $-1 $251 $289 $248 $294 0 #
edge $-1 $252 $288 $249 $295 0 #
point $-1 40 -40 20 #
point $-1 40 40 20 #
plane-surface $-1 40 0 0 -1 0 0 0 0 1 0 I I I I #
coedge $-1 $260 $258 $285 $296 1 $234 $-1 #
edge $-1 $270 $297 $269 $298 0 #
edge $-1 $289 $283 $259 $299 0 #
vertex $-1 $296 $300 #
straight-curve $-1 -40 -40 0 0 0 -1 I I #
coedge $-1 $263 $262 $280 $296 0 $210 $-1 #
coedge $-1 $269 $268 $263 $287 1 $256 $-1 #
edge $-1 $297 $288 $286 $301 0 #
vertex $-1 $265 $302 #
vertex $-1 $275 $303 #
straight-curve $-1 40 0 -20 0 -1 0 I I #
straight-curve $-1 -40 0 20 0 -1 0 I I #
point $-1 -40 40 20 #
point $-1 -40 -40 20 #
straight-curve $-1 40 -40 0 0 0 -1 I I #
straight-curve $-1 40 40 0 0 0 -1 I I #
edge $-1 $283 $297 $280 $304 0 #
vertex $-1 $287 $305 #
straight-curve $-1 -40 40 0 0 0 -1 I I #
straight-curve $-1 0 -40 -20 -1 0 0 I I #
point $-1 -40 -40 -20 #
straight-curve $-1 0 40 -20 1 0 0 I I #
point $-1 40 40 -20 #
point $-1 40 -40 -20 #
straight-curve $-1 -40 0 -20 0 1 0 I I #
point $-1 -40 40 -20 #
End-of-ACIS-data 