600 0 1 0           
81 GICL ACIS Healer - Source: /gicl/data5/repository/Heriot_Watt/ex08/ex08.sat - 6 0 18 ACIS 6.0.3 Solaris 24 Sat Apr 13 23:39:10 2002 
1 9.999999999999999547e-07 1.000000000000000036e-10 
body $-1 $1 $-1 $-1 #
lump $-1 $-1 $2 $0 #
shell $-1 $-1 $-1 $3 $-1 $1 #
face $-1 $4 $5 $2 $-1 $6 forward single #
face $-1 $7 $8 $2 $-1 $6 forward single #
loop $-1 $-1 $9 $3 #
plane-surface $-1 0 10 10 0 -1 0 0 0 -1 forward_v I I I I #
face $-1 $10 $11 $2 $-1 $12 forward single #
loop $-1 $-1 $13 $4 #
coedge $-1 $14 $15 $16 $17 reversed $5 $-1 #
face $-1 $18 $19 $2 $-1 $20 forward single #
loop $-1 $-1 $21 $7 #
plane-surface $-1 0 -10 10 0 1 0 0 0 1 forward_v I I I I #
coedge $-1 $22 $23 $24 $25 reversed $8 $-1 #
coedge $-1 $26 $9 $27 $28 forward $5 $-1 #
coedge $-1 $9 $26 $29 $30 reversed $5 $-1 #
coedge $-1 $31 $32 $9 $17 forward $33 $-1 #
edge $-1 $34 -5 $35 15 $16 $36 forward 7 unknown #
face $-1 $37 $38 $2 $-1 $20 forward single #
loop $-1 $-1 $39 $10 #
plane-surface $-1 0 0 0 0 0 1 1 0 0 forward_v I I I I #
coedge $-1 $40 $41 $42 $43 reversed $11 $-1 #
coedge $-1 $44 $13 $45 $46 reversed $8 $-1 #
coedge $-1 $13 $44 $47 $48 forward $8 $-1 #
coedge $-1 $49 $50 $13 $25 forward $51 $-1 #
edge $-1 $52 -15 $53 5 $24 $54 forward 7 unknown #
coedge $-1 $15 $14 $55 $56 reversed $5 $-1 #
coedge $-1 $39 $57 $14 $28 reversed $19 $-1 #
edge $-1 $34 20 $58 30 $14 $59 forward 7 unknown #
coedge $-1 $60 $61 $15 $30 forward $62 $-1 #
edge $-1 $35 20 $63 30 $29 $64 forward 7 unknown #
coedge $-1 $65 $16 $61 $66 reversed $33 $-1 #
coedge $-1 $16 $42 $39 $67 forward $33 $-1 #
loop $-1 $-1 $16 $68 #
vertex $-1 $67 $69 #
vertex $-1 $66 $70 #
straight-curve $-1 20 10 5 0 0 1 I I #
face $-1 $71 $72 $2 $-1 $12 forward single #
loop $-1 $-1 $73 $18 #
coedge $-1 $74 $27 $32 $67 reversed $19 $-1 #
coedge $-1 $75 $21 $76 $77 reversed $11 $-1 #
coedge $-1 $21 $75 $74 $78 forward $11 $-1 #
coedge $-1 $32 $79 $21 $43 forward $33 $-1 #
edge $-1 $80 -15 $81 5 $42 $82 forward 7 unknown #
coedge $-1 $23 $22 $83 $84 forward $8 $-1 #
coedge $-1 $85 $86 $22 $46 forward $62 $-1 #
edge $-1 $87 -30 $52 -20 $45 $64 forward 7 unknown #
coedge $-1 $88 $73 $23 $48 reversed $38 $-1 #
edge $-1 $89 -30 $53 -20 $23 $59 forward 7 unknown #
coedge $-1 $90 $24 $73 $91 forward $51 $-1 #
coedge $-1 $24 $92 $85 $93 reversed $51 $-1 #
loop $-1 $-1 $90 $94 #
vertex $-1 $25 $95 #
vertex $-1 $91 $96 #
straight-curve $-1 -20 10 5 0 0 -1 I I #
coedge $-1 $97 $98 $26 $56 forward $99 $-1 #
edge $-1 $63 -10 $58 10 $55 $100 forward 7 unknown #
coedge $-1 $27 $74 $97 $101 reversed $19 $-1 #
vertex $-1 $101 $102 #
straight-curve $-1 0 10 0 1 0 0 I I #
coedge $-1 $76 $29 $98 $103 forward $62 $-1 #
coedge $-1 $29 $104 $31 $66 forward $62 $-1 #
loop $-1 $-1 $105 $106 #
vertex $-1 $30 $107 #
straight-curve $-1 0 10 20 1 0 0 I I #
coedge $-1 $108 $31 $109 $110 forward $33 $-1 #
edge $-1 $111 -20 $35 -10 $61 $112 forward 7 unknown #
edge $-1 $81 -10 $34 10 $32 $113 forward 7 unknown #
face $-1 $114 $33 $2 $-1 $115 forward single #
point $-1 20 10 0 #
point $-1 20 10 20 #
face $-1 $116 $117 $2 $-1 $118 forward single #
loop $-1 $-1 $119 $37 #
coedge $-1 $47 $120 $49 $91 reversed $38 $-1 #
coedge $-1 $57 $39 $41 $78 reversed $19 $-1 #
coedge $-1 $41 $40 $121 $122 forward $11 $-1 #
coedge $-1 $123 $60 $40 $77 forward $62 $-1 #
edge $-1 $124 -30 $80 -20 $76 $125 forward 7 unknown #
edge $-1 $126 -30 $81 -20 $41 $127 forward 7 unknown #
coedge $-1 $42 $128 $123 $129 reversed $33 $-1 #
vertex $-1 $43 $130 #
vertex $-1 $67 $131 #
straight-curve $-1 20 -10 5 0 0 -1 I I #
coedge $-1 $132 $133 $44 $84 reversed $117 $-1 #
edge $-1 $87 -10 $89 10 $44 $134 forward 7 unknown #
coedge $-1 $104 $45 $50 $93 forward $62 $-1 #
coedge $-1 $45 $105 $132 $135 forward $62 $-1 #
vertex $-1 $135 $136 #
coedge $-1 $120 $47 $133 $137 reversed $38 $-1 #
vertex $-1 $48 $138 #
coedge $-1 $139 $49 $119 $140 forward $51 $-1 #
edge $-1 $53 -10 $141 10 $49 $142 forward 7 unknown #
coedge $-1 $50 $143 $144 $145 reversed $51 $-1 #
edge $-1 $52 10 $146 20 $85 $147 forward 7 unknown #
face $-1 $148 $51 $2 $-1 $149 forward single #
point $-1 -20 10 20 #
point $-1 -20 10 0 #
coedge $-1 $121 $55 $57 $101 forward $99 $-1 #
coedge $-1 $55 $121 $60 $103 reversed $99 $-1 #
loop $-1 $-1 $121 $116 #
straight-curve $-1 30 10 10 0 0 -1 I I #
edge $-1 $58 -10 $126 10 $97 $150 forward 7 unknown #
point $-1 30 10 0 #
edge $-1 $63 -10 $124 10 $60 $151 forward 7 unknown #
coedge $-1 $61 $85 $152 $153 forward $62 $-1 #
coedge $-1 $86 $154 $155 $156 forward $62 $-1 #
face $-1 $157 $158 $2 $-1 $159 forward single #
point $-1 30 10 20 #
coedge $-1 $128 $65 $160 $161 reversed $33 $-1 #
coedge $-1 $152 $162 $65 $110 reversed $163 $-1 #
edge $-1 $111 -20 $164 20 $65 $165 forward 7 unknown #
vertex $-1 $153 $166 #
straight-curve $-1 20 0 20 0 -1 0 I I #
straight-curve $-1 20 0 0 0 1 0 I I #
face $-1 $167 $168 $2 $-1 $169 reversed single #
plane-surface $-1 20 0 0 -1 0 0 0 0 1 forward_v I I I I #
face $-1 $106 $99 $2 $-1 $170 forward single #
loop $-1 $-1 $83 $71 #
plane-surface $-1 -30 0 10 1 0 0 0 0 -1 forward_v I I I I #
coedge $-1 $171 $155 $90 $140 reversed $72 $-1 #
coedge $-1 $73 $88 $171 $172 reversed $38 $-1 #
coedge $-1 $98 $97 $75 $122 reversed $99 $-1 #
edge $-1 $124 -10 $126 10 $121 $173 forward 7 unknown #
coedge $-1 $174 $76 $79 $129 forward $62 $-1 #
vertex $-1 $77 $175 #
straight-curve $-1 0 -10 20 -1 0 0 I I #
vertex $-1 $122 $176 #
straight-curve $-1 0 -10 0 -1 0 0 I I #
coedge $-1 $79 $108 $177 $178 reversed $33 $-1 #
edge $-1 $80 10 $179 20 $123 $112 forward 7 unknown #
point $-1 20 -10 20 #
point $-1 20 -10 0 #
coedge $-1 $180 $83 $86 $135 reversed $117 $-1 #
coedge $-1 $83 $180 $88 $137 forward $117 $-1 #
straight-curve $-1 -30 10 10 0 0 -1 I I #
edge $-1 $181 -10 $87 10 $86 $182 forward 7 unknown #
point $-1 -30 10 20 #
edge $-1 $183 -10 $89 10 $133 $184 forward 7 unknown #
point $-1 -30 10 0 #
coedge $-1 $185 $90 $154 $186 reversed $51 $-1 #
edge $-1 $141 -5 $187 15 $90 $188 forward 7 unknown #
vertex $-1 $91 $189 #
straight-curve $-1 -20 0 0 0 -1 0 I I #
coedge $-1 $92 $185 $190 $191 reversed $51 $-1 #
coedge $-1 $162 $152 $92 $145 forward $163 $-1 #
edge $-1 $146 -20 $192 20 $144 $193 forward 7 unknown #
vertex $-1 $93 $194 #
straight-curve $-1 -20 0 20 0 1 0 I I #
face $-1 $68 $163 $2 $-1 $195 forward single #
plane-surface $-1 -20 0 0 1 0 0 0 0 -1 forward_v I I I I #
straight-curve $-1 30 0 0 0 -1 0 I I #
straight-curve $-1 30 0 20 0 -1 0 I I #
coedge $-1 $144 $109 $104 $153 reversed $163 $-1 #
edge $-1 $146 -20 $111 20 $104 $196 forward 7 unknown #
coedge $-1 $105 $174 $139 $186 forward $62 $-1 #
coedge $-1 $119 $197 $105 $156 reversed $72 $-1 #
edge $-1 $187 20 $181 30 $105 $125 forward 7 unknown #
face $-1 $94 $198 $2 $-1 $199 forward single #
loop $-1 $62 $200 $106 #
plane-surface $-1 0 0 20 0 0 1 1 0 0 forward_v I I I I #
coedge $-1 $201 $202 $108 $161 forward $168 $-1 #
edge $-1 $203 -20 $164 20 $160 $204 forward 7 unknown #
coedge $-1 $109 $144 $201 $205 reversed $163 $-1 #
loop $-1 $-1 $109 $148 #
vertex $-1 $205 $206 #
straight-curve $-1 20 20 0 0 0 -1 I I #
point $-1 20 20 20 #
face $-1 $207 $208 $2 $-1 $209 reversed single #
loop $-1 $210 $202 $114 #
plane-surface $-1 0 0 -20 0 0 1 1 0 0 forward_v I I I I #
plane-surface $-1 30 0 10 -1 0 0 0 0 1 forward_v I I I I #
coedge $-1 $197 $119 $120 $172 forward $72 $-1 #
edge $-1 $141 20 $183 30 $171 $127 forward 7 unknown #
straight-curve $-1 30 -10 10 0 0 -1 I I #
coedge $-1 $154 $123 $211 $212 forward $62 $-1 #
point $-1 30 -10 20 #
point $-1 30 -10 0 #
coedge $-1 $213 $211 $128 $178 forward $198 $-1 #
edge $-1 $179 -20 $203 20 $128 $214 forward 7 unknown #
vertex $-1 $212 $215 #
coedge $-1 $133 $132 $197 $216 forward $117 $-1 #
vertex $-1 $156 $217 #
straight-curve $-1 -30 0 20 0 1 0 I I #
vertex $-1 $137 $218 #
straight-curve $-1 -30 0 0 0 1 0 I I #
coedge $-1 $143 $139 $219 $220 forward $51 $-1 #
edge $-1 $221 -20 $187 -10 $154 $147 forward 7 unknown #
vertex $-1 $186 $222 #
straight-curve $-1 -20 -10 5 0 0 1 I I #
point $-1 -20 -10 0 #
coedge $-1 $202 $201 $143 $191 forward $168 $-1 #
edge $-1 $192 -20 $223 20 $190 $224 forward 7 unknown #
vertex $-1 $191 $225 #
straight-curve $-1 -20 20 0 0 0 -1 I I #
point $-1 -20 20 20 #
plane-surface $-1 0 20 0 0 -1 0 0 0 -1 forward_v I I I I #
straight-curve $-1 0 20 20 1 0 0 I I #
coedge $-1 $155 $171 $180 $216 reversed $72 $-1 #
loop $-1 $-1 $219 $157 #
plane-surface $-1 0 -20 0 0 1 0 0 0 1 forward_v I I I I #
coedge $-1 $226 $227 $228 $229 forward $158 $-1 #
coedge $-1 $190 $160 $162 $205 forward $168 $-1 #
coedge $-1 $160 $190 $213 $230 forward $168 $-1 #
vertex $-1 $230 $231 #
straight-curve $-1 20 0 -20 0 1 0 I I #
edge $-1 $164 -20 $192 20 $201 $232 forward 7 unknown #
point $-1 20 20 -20 #
face $-1 $233 $234 $2 $-1 $235 reversed single #
loop $-1 $-1 $236 $167 #
plane-surface $-1 0 -40 0 0 1 0 0 0 1 forward_v I I I I #
loop $-1 $-1 $237 $114 #
coedge $-1 $177 $219 $174 $212 reversed $198 $-1 #
edge $-1 $179 -20 $221 20 $174 $238 forward 7 unknown #
coedge $-1 $219 $177 $202 $230 reversed $198 $-1 #
straight-curve $-1 20 -20 0 0 0 -1 I I #
point $-1 20 -20 20 #
edge $-1 $181 -10 $183 10 $180 $239 forward 7 unknown #
point $-1 -30 -10 20 #
point $-1 -30 -10 0 #
coedge $-1 $211 $213 $185 $220 reversed $198 $-1 #
edge $-1 $221 -20 $223 20 $185 $240 forward 7 unknown #
vertex $-1 $212 $241 #
point $-1 -20 -10 20 #
vertex $-1 $230 $242 #
straight-curve $-1 -20 0 -20 0 -1 0 I I #
point $-1 -20 20 -20 #
coedge $-1 $243 $200 $244 $245 forward $158 $-1 #
coedge $-1 $200 $243 $246 $247 forward $158 $-1 #
coedge $-1 $248 $249 $200 $229 reversed $250 $-1 #
edge $-1 $251 -40 $252 40 $228 $253 forward 7 unknown #
edge $-1 $223 -20 $203 20 $202 $254 forward 7 unknown #
point $-1 20 -20 -20 #
straight-curve $-1 0 20 -20 -1 0 0 I I #
face $-1 $255 $256 $2 $-1 $257 reversed single #
loop $-1 $-1 $258 $207 #
plane-surface $-1 -40 0 0 1 0 0 0 0 -1 forward_v I I I I #
coedge $-1 $259 $246 $260 $261 forward $208 $-1 #
coedge $-1 $262 $263 $264 $265 forward $210 $-1 #
straight-curve $-1 0 -20 20 -1 0 0 I I #
straight-curve $-1 -30 -10 10 0 0 -1 I I #
straight-curve $-1 -20 -20 0 0 0 -1 I I #
point $-1 -20 -20 20 #
point $-1 -20 -20 -20 #
coedge $-1 $227 $226 $266 $267 forward $158 $-1 #
coedge $-1 $268 $269 $226 $245 reversed $256 $-1 #
edge $-1 $252 -40 $270 40 $244 $271 forward 7 unknown #
coedge $-1 $236 $272 $227 $247 reversed $208 $-1 #
edge $-1 $273 -40 $251 40 $246 $274 forward 7 unknown #
coedge $-1 $264 $228 $272 $275 forward $250 $-1 #
coedge $-1 $228 $264 $268 $276 reversed $250 $-1 #
loop $-1 $-1 $248 $255 #
vertex $-1 $229 $277 #
vertex $-1 $229 $278 #
straight-curve $-1 40 0 20 0 1 0 I I #
straight-curve $-1 0 -20 -20 1 0 0 I I #
face $-1 $-1 $250 $2 $-1 $279 reversed single #
loop $-1 $-1 $268 $233 #
plane-surface $-1 0 40 0 0 -1 0 0 0 -1 forward_v I I I I #
coedge $-1 $280 $266 $269 $281 forward $234 $-1 #
coedge $-1 $272 $236 $262 $282 reversed $208 $-1 #
coedge $-1 $266 $280 $236 $261 reversed $234 $-1 #
edge $-1 $273 -20 $283 20 $260 $284 forward 7 unknown #
coedge $-1 $285 $237 $259 $282 forward $210 $-1 #
coedge $-1 $237 $285 $286 $287 forward $210 $-1 #
coedge $-1 $249 $248 $237 $265 reversed $250 $-1 #
edge $-1 $288 -40 $289 40 $264 $290 forward 7 unknown #
coedge $-1 $258 $260 $243 $267 reversed $234 $-1 #
edge $-1 $270 -40 $273 40 $266 $291 forward 7 unknown #
coedge $-1 $286 $244 $249 $276 forward $256 $-1 #
coedge $-1 $244 $286 $258 $281 reversed $256 $-1 #
vertex $-1 $245 $292 #
straight-curve $-1 0 40 20 -1 0 0 I I #
coedge $-1 $246 $259 $248 $275 reversed $208 $-1 #
vertex $-1 $267 $293 #
straight-curve $-1 0 -40 20 1 0 0 I I #
edge $-1 $251 -20 $289 20 $248 $294 forward 7 unknown #
edge $-1 $252 -20 $288 20 $249 $295 forward 7 unknown #
point $-1 40 -40 20 #
point $-1 40 40 20 #
plane-surface $-1 40 0 0 -1 0 0 0 0 1 forward_v I I I I #
coedge $-1 $260 $258 $285 $296 reversed $234 $-1 #
edge $-1 $270 -20 $297 20 $269 $298 forward 7 unknown #
edge $-1 $289 -40 $283 40 $259 $299 forward 7 unknown #
vertex $-1 $296 $300 #
straight-curve $-1 -40 -40 0 0 0 -1 I I #
coedge $-1 $263 $262 $280 $296 forward $210 $-1 #
coedge $-1 $269 $268 $263 $287 reversed $256 $-1 #
edge $-1 $297 -40 $288 40 $286 $301 forward 7 unknown #
vertex $-1 $265 $302 #
vertex $-1 $275 $303 #
straight-curve $-1 40 0 -20 0 -1 0 I I #
straight-curve $-1 -40 0 20 0 -1 0 I I #
point $-1 -40 40 20 #
point $-1 -40 -40 20 #
straight-curve $-1 40 -40 0 0 0 -1 I I #
straight-curve $-1 40 40 0 0 0 -1 I I #
edge $-1 $283 -40 $297 40 $280 $304 forward 7 unknown #
vertex $-1 $287 $305 #
straight-curve $-1 -40 40 0 0 0 -1 I I #
straight-curve $-1 0 -40 -20 -1 0 0 I I #
point $-1 -40 -40 -20 #
straight-curve $-1 0 40 -20 1 0 0 I I #
point $-1 40 40 -20 #
point $-1 40 -40 -20 #
straight-curve $-1 -40 0 -20 0 1 0 I I #
point $-1 -40 40 -20 #
End-of-ACIS-data 