700 0 2 0           
24 FBMach with ACIS - 7.0.3 13 ACIS 7.0.3 NT 24 Tue May 14 09:56:58 2002 
1 9.9999999999999995e-007 1e-010 
body $2 -1 $-1 $3 $-1 $4 #
bdycol-kcp $-1 -1 1 4 $5 $6 $7 $8 #
model_id-kcp-attrib $-1 -1 $-1 $-1 $0 1 1021384618 1021384618 -1848836095 1 #
lump $-1 -1 $-1 $-1 $9 $0 #
transform $-1 -1 1 0 0 0 1 0 0 0 1 0 0 0 1 rotate no_reflect no_shear #
body $10 -1 $-1 $11 $-1 $12 #
body $13 -1 $-1 $14 $-1 $15 #
body $16 -1 $-1 $17 $-1 $18 #
body $19 -1 $-1 $20 $-1 $21 #
shell $-1 -1 $-1 $-1 $-1 $22 $-1 $3 #
rgb_color-st-attrib $-1 -1 $23 $-1 $5 1 0 0 #
lump $-1 -1 $-1 $-1 $24 $5 #
transform $-1 -1 1 0 0 0 1 0 0 0 1 0 0 0 1 no_rotate no_reflect no_shear #
rgb_color-st-attrib $-1 -1 $25 $-1 $6 0.5 1 1 #
lump $-1 -1 $-1 $-1 $26 $6 #
transform $-1 -1 1 0 0 0 1 0 0 0 1 0 0 0 1 no_rotate no_reflect no_shear #
rgb_color-st-attrib $-1 -1 $27 $-1 $7 1 0 0 #
lump $-1 -1 $-1 $-1 $28 $7 #
transform $-1 -1 1 0 0 0 1 0 0 0 1 0 0 0 1 no_rotate no_reflect no_shear #
model_id-kcp-attrib $-1 -1 $-1 $-1 $8 1 1021384618 1021384618 -1848836094 1 #
lump $-1 -1 $-1 $-1 $29 $8 #
transform $-1 -1 1 0 0 0 1 0 0 0 1 0 0 0 1 no_rotate no_reflect no_shear #
face $30 -1 $-1 $31 $32 $9 $-1 $33 forward single #
model_id-kcp-attrib $-1 -1 $-1 $10 $5 1 1021384618 1021384618 -1862074364 1 #
shell $-1 -1 $-1 $-1 $-1 $34 $-1 $11 #
model_id-kcp-attrib $-1 -1 $-1 $13 $6 1 1021384618 1021384618 -1855127549 1 #
shell $-1 -1 $-1 $-1 $-1 $35 $-1 $14 #
model_id-kcp-attrib $-1 -1 $-1 $16 $7 1 1021384618 1021384618 -1853554683 1 #
shell $-1 -1 $-1 $-1 $-1 $36 $-1 $17 #
shell $-1 -1 $-1 $-1 $-1 $37 $-1 $20 #
model_id-kcp-attrib $-1 -1 $-1 $-1 $22 1 1021384618 1021384618 -1848836095 2 #
face $38 -1 $-1 $39 $40 $9 $-1 $33 forward single #
loop $-1 -1 $-1 $-1 $41 $22 #
plane-surface $-1 -1 $-1 0 10 10 0 -1 0 0 0 -1 forward_v I I I I #
face $-1 -1 $-1 $42 $43 $24 $-1 $44 forward single #
face $-1 -1 $-1 $45 $46 $26 $-1 $47 forward single #
face $-1 -1 $-1 $48 $49 $28 $-1 $50 forward single #
face $51 -1 $-1 $52 $53 $29 $-1 $54 forward single #
model_id-kcp-attrib $-1 -1 $-1 $-1 $31 1 1021384618 1021384618 -1848836095 3 #
face $55 -1 $-1 $56 $57 $9 $-1 $58 forward single #
loop $-1 -1 $-1 $-1 $59 $31 #
coedge $-1 -1 $-1 $60 $61 $62 $63 reversed $32 $-1 #
face $-1 -1 $-1 $64 $65 $24 $-1 $66 forward single #
loop $-1 -1 $-1 $-1 $67 $34 #
plane-surface $-1 -1 $-1 -20 -10 0 0 -1 0 0 0 -1 forward_v I I I I #
face $-1 -1 $-1 $68 $69 $26 $-1 $70 forward single #
loop $-1 -1 $-1 $-1 $71 $35 #
plane-surface $-1 -1 $-1 -20 -20 -20 -1 0 0 0 0 1 forward_v I I I I #
face $-1 -1 $-1 $72 $73 $28 $-1 $74 forward single #
loop $-1 -1 $-1 $-1 $75 $36 #
plane-surface $-1 -1 $-1 20 10 0 0 1 0 0 0 1 forward_v I I I I #
model_id-kcp-attrib $-1 -1 $-1 $-1 $37 1 1021384618 1021384618 -1848836094 2 #
face $76 -1 $-1 $77 $78 $29 $-1 $79 reversed single #
loop $-1 -1 $-1 $-1 $80 $37 #
plane-surface $-1 -1 $-1 0 0 20 0 0 1 1 0 0 forward_v I I I I #
model_id-kcp-attrib $-1 -1 $-1 $-1 $39 1 1021384618 1021384618 -1848836095 4 #
face $81 -1 $-1 $82 $83 $9 $-1 $84 forward single #
loop $-1 -1 $-1 $-1 $85 $39 #
plane-surface $-1 -1 $-1 0 -10 10 0 1 0 0 0 1 forward_v I I I I #
coedge $-1 -1 $-1 $86 $87 $88 $89 reversed $40 $-1 #
coedge $-1 -1 $-1 $90 $41 $91 $92 forward $32 $-1 #
coedge $-1 -1 $-1 $41 $90 $93 $94 reversed $32 $-1 #
coedge $-1 -1 $-1 $95 $96 $41 $63 forward $97 $-1 #
edge $-1 -1 $-1 $98 -5 $99 15 $62 $100 forward @7 unknown #
face $-1 -1 $-1 $101 $102 $24 $-1 $103 forward single #
loop $-1 -1 $-1 $-1 $104 $42 #
plane-surface $-1 -1 $-1 -30 -10 0 -1 0 0 0 0 1 forward_v I I I I #
coedge $-1 -1 $-1 $105 $106 $107 $108 forward $43 $-1 #
face $-1 -1 $-1 $109 $110 $26 $-1 $111 forward single #
loop $-1 -1 $-1 $-1 $112 $45 #
plane-surface $-1 -1 $-1 -20 20 -20 0 1 0 0 0 1 forward_v I I I I #
coedge $-1 -1 $-1 $113 $114 $115 $116 forward $46 $-1 #
face $-1 -1 $-1 $117 $118 $28 $-1 $119 forward single #
loop $-1 -1 $-1 $-1 $120 $48 #
plane-surface $-1 -1 $-1 30 10 0 1 0 0 0 0 -1 forward_v I I I I #
coedge $-1 -1 $-1 $121 $122 $123 $124 forward $49 $-1 #
model_id-kcp-attrib $-1 -1 $-1 $-1 $52 1 1021384618 1021384618 -1848836094 3 #
face $125 -1 $-1 $126 $127 $29 $-1 $128 reversed single #
loop $-1 -1 $-1 $-1 $129 $52 #
plane-surface $-1 -1 $-1 0 0 -20 0 0 1 1 0 0 forward_v I I I I #
coedge $-1 -1 $-1 $130 $131 $132 $133 forward $53 $-1 #
model_id-kcp-attrib $-1 -1 $-1 $-1 $56 1 1021384618 1021384618 -1848836095 5 #
face $134 -1 $-1 $135 $136 $9 $-1 $84 forward single #
loop $-1 -1 $-1 $-1 $137 $56 #
plane-surface $-1 -1 $-1 0 0 0 0 0 1 1 0 0 forward_v I I I I #
coedge $-1 -1 $-1 $138 $139 $140 $141 reversed $57 $-1 #
coedge $-1 -1 $-1 $142 $59 $143 $144 reversed $40 $-1 #
coedge $-1 -1 $-1 $59 $142 $145 $146 forward $40 $-1 #
coedge $-1 -1 $-1 $147 $148 $59 $89 forward $149 $-1 #
edge $-1 -1 $-1 $150 -15 $151 5 $88 $152 forward @7 unknown #
coedge $-1 -1 $-1 $61 $60 $153 $154 reversed $32 $-1 #
coedge $-1 -1 $-1 $137 $155 $60 $92 reversed $83 $-1 #
edge $156 -1 $-1 $98 20 $157 30 $60 $158 forward @7 unknown #
coedge $-1 -1 $-1 $159 $160 $61 $94 forward $161 $-1 #
edge $162 -1 $-1 $99 20 $163 30 $93 $164 forward @7 unknown #
coedge $-1 -1 $-1 $165 $62 $160 $166 reversed $97 $-1 #
coedge $-1 -1 $-1 $62 $140 $137 $167 forward $97 $-1 #
loop $-1 -1 $-1 $-1 $62 $168 #
vertex $-1 -1 $-1 $167 $169 #
vertex $-1 -1 $-1 $166 $170 #
straight-curve $-1 -1 $-1 20 10 5 0 0 1 I I #
face $-1 -1 $-1 $171 $172 $24 $-1 $173 forward single #
loop $-1 -1 $-1 $-1 $174 $64 #
plane-surface $-1 -1 $-1 -30 10 0 0 1 0 0 0 1 forward_v I I I I #
coedge $-1 -1 $-1 $175 $176 $177 $178 forward $65 $-1 #
coedge $-1 -1 $-1 $179 $67 $176 $180 reversed $43 $-1 #
coedge $-1 -1 $-1 $67 $179 $181 $182 forward $43 $-1 #
coedge $-1 -1 $-1 $183 $177 $67 $108 reversed $184 $-1 #
edge $-1 -1 $-1 $185 7.5 $186 17.5 $67 $187 forward @7 unknown #
face $-1 -1 $-1 $188 $189 $26 $-1 $190 forward single #
loop $-1 -1 $-1 $-1 $191 $68 #
plane-surface $-1 -1 $-1 20 20 -20 1 0 0 0 0 -1 forward_v I I I I #
coedge $-1 -1 $-1 $192 $193 $194 $195 forward $69 $-1 #
coedge $-1 -1 $-1 $196 $71 $193 $197 reversed $46 $-1 #
coedge $-1 -1 $-1 $71 $196 $198 $199 forward $46 $-1 #
coedge $-1 -1 $-1 $200 $194 $71 $116 reversed $201 $-1 #
edge $-1 -1 $-1 $202 -20 $203 20 $71 $204 forward @7 unknown #
face $-1 -1 $-1 $205 $206 $28 $-1 $207 forward single #
loop $-1 -1 $-1 $-1 $208 $72 #
plane-surface $-1 -1 $-1 30 -10 0 0 -1 0 0 0 -1 forward_v I I I I #
coedge $-1 -1 $-1 $209 $210 $211 $212 forward $73 $-1 #
coedge $-1 -1 $-1 $213 $75 $210 $214 reversed $49 $-1 #
coedge $-1 -1 $-1 $75 $213 $215 $216 forward $49 $-1 #
coedge $-1 -1 $-1 $217 $211 $75 $124 reversed $218 $-1 #
edge $-1 -1 $-1 $219 7.5 $220 17.5 $75 $221 forward @7 unknown #
model_id-kcp-attrib $-1 -1 $-1 $-1 $77 1 1021384618 1021384618 -1848836094 4 #
face $222 -1 $-1 $223 $224 $29 $-1 $225 reversed single #
loop $-1 -1 $-1 $-1 $226 $77 #
plane-surface $-1 -1 $-1 0 -40 0 0 1 0 0 0 1 forward_v I I I I #
coedge $-1 -1 $-1 $227 $228 $229 $230 forward $78 $-1 #
coedge $-1 -1 $-1 $231 $80 $232 $233 forward $53 $-1 #
coedge $-1 -1 $-1 $80 $231 $234 $235 forward $53 $-1 #
coedge $-1 -1 $-1 $236 $237 $80 $133 reversed $238 $-1 #
edge $-1 -1 $-1 $239 -40 $240 40 $132 $241 forward @7 unknown #
model_id-kcp-attrib $-1 -1 $-1 $-1 $82 1 1021384618 1021384618 -1848836095 6 #
face $242 -1 $-1 $243 $244 $9 $-1 $58 forward single #
loop $-1 -1 $-1 $-1 $245 $82 #
coedge $-1 -1 $-1 $246 $91 $96 $167 reversed $83 $-1 #
coedge $-1 -1 $-1 $247 $85 $248 $249 reversed $57 $-1 #
coedge $-1 -1 $-1 $85 $247 $246 $250 forward $57 $-1 #
coedge $-1 -1 $-1 $96 $251 $85 $141 forward $97 $-1 #
edge $-1 -1 $-1 $252 -15 $253 5 $140 $254 forward @7 unknown #
coedge $-1 -1 $-1 $87 $86 $255 $256 forward $40 $-1 #
coedge $-1 -1 $-1 $257 $258 $86 $144 forward $161 $-1 #
edge $259 -1 $-1 $260 -30 $150 -20 $143 $164 forward @7 unknown #
coedge $-1 -1 $-1 $261 $245 $87 $146 reversed $136 $-1 #
edge $262 -1 $-1 $263 -30 $151 -20 $87 $158 forward @7 unknown #
coedge $-1 -1 $-1 $264 $88 $245 $265 forward $149 $-1 #
coedge $-1 -1 $-1 $88 $266 $257 $267 reversed $149 $-1 #
loop $-1 -1 $-1 $-1 $264 $268 #
vertex $-1 -1 $-1 $89 $269 #
vertex $-1 -1 $-1 $265 $270 #
straight-curve $-1 -1 $-1 -20 10 5 0 0 -1 I I #
coedge $-1 -1 $-1 $271 $272 $90 $154 forward $273 $-1 #
edge $-1 -1 $-1 $163 -10 $157 10 $153 $274 forward @7 unknown #
coedge $-1 -1 $-1 $91 $246 $271 $275 reversed $83 $-1 #
attrib_edge_convexity-kcp-attrib $-1 -1 $276 $-1 $92 2 #
vertex $-1 -1 $-1 $275 $277 #
straight-curve $-1 -1 $-1 0 10 0 1 0 0 I I #
coedge $-1 -1 $-1 $248 $93 $272 $278 forward $161 $-1 #
coedge $-1 -1 $-1 $93 $279 $95 $166 forward $161 $-1 #
loop $-1 -1 $-1 $-1 $280 $281 #
attrib_edge_convexity-kcp-attrib $-1 -1 $282 $-1 $94 1 #
vertex $-1 -1 $-1 $94 $283 #
straight-curve $-1 -1 $-1 0 10 20 1 0 0 I I #
coedge $-1 -1 $-1 $284 $95 $285 $286 forward $97 $-1 #
edge $287 -1 $-1 $288 -20 $99 -10 $160 $289 forward @7 unknown #
edge $290 -1 $-1 $253 -10 $98 10 $96 $291 forward @7 unknown #
face $292 -1 $-1 $293 $97 $9 $-1 $294 forward single #
point $-1 -1 $-1 20 10 0 #
point $-1 -1 $-1 20 10 20 #
face $-1 -1 $-1 $295 $184 $24 $-1 $296 forward single #
loop $-1 -1 $-1 $-1 $297 $101 #
plane-surface $-1 -1 $-1 -20 10 0 1 0 0 0 0 -1 forward_v I I I I #
coedge $-1 -1 $-1 $298 $299 $300 $301 forward $102 $-1 #
coedge $-1 -1 $-1 $302 $104 $299 $303 reversed $65 $-1 #
coedge $-1 -1 $-1 $104 $302 $105 $180 forward $65 $-1 #
coedge $-1 -1 $-1 $107 $300 $104 $178 reversed $184 $-1 #
edge $-1 -1 $-1 $186 -10 $304 10 $104 $305 forward @7 unknown #
coedge $-1 -1 $-1 $106 $105 $306 $307 reversed $43 $-1 #
edge $308 -1 $-1 $309 0 $186 20 $176 $310 forward @7 unknown #
coedge $-1 -1 $-1 $311 $297 $106 $182 reversed $172 $-1 #
edge $-1 -1 $-1 $312 0 $185 20 $106 $313 forward @7 unknown #
coedge $-1 -1 $-1 $300 $107 $297 $314 reversed $184 $-1 #
loop $-1 -1 $-1 $-1 $107 $171 #
vertex $-1 -1 $-1 $182 $315 #
vertex $-1 -1 $-1 $180 $316 #
straight-curve $-1 -1 $-1 -12.5 -10 20 -1 0 0 I I #
face $-1 -1 $-1 $317 $201 $26 $-1 $318 forward single #
loop $-1 -1 $-1 $-1 $319 $109 #
plane-surface $-1 -1 $-1 20 -20 -20 0 -1 0 0 0 -1 forward_v I I I I #
coedge $-1 -1 $-1 $320 $321 $322 $323 forward $110 $-1 #
coedge $-1 -1 $-1 $324 $112 $321 $325 reversed $69 $-1 #
coedge $-1 -1 $-1 $112 $324 $113 $197 forward $69 $-1 #
coedge $-1 -1 $-1 $115 $322 $112 $195 reversed $201 $-1 #
edge $-1 -1 $-1 $203 -20 $326 20 $112 $327 forward @7 unknown #
coedge $-1 -1 $-1 $114 $113 $328 $329 forward $46 $-1 #
edge $-1 -1 $-1 $330 0 $203 40 $193 $331 forward @7 unknown #
coedge $-1 -1 $-1 $332 $319 $114 $199 reversed $189 $-1 #
edge $-1 -1 $-1 $333 0 $202 40 $114 $334 forward @7 unknown #
coedge $-1 -1 $-1 $322 $115 $319 $335 reversed $201 $-1 #
loop $-1 -1 $-1 $-1 $115 $188 #
vertex $-1 -1 $-1 $199 $336 #
vertex $-1 -1 $-1 $197 $337 #
straight-curve $-1 -1 $-1 -20 0 20 0 1 0 I I #
face $-1 -1 $-1 $338 $218 $28 $-1 $339 forward single #
loop $-1 -1 $-1 $-1 $340 $117 #
plane-surface $-1 -1 $-1 20 -10 0 -1 0 0 0 0 1 forward_v I I I I #
coedge $-1 -1 $-1 $341 $342 $343 $344 forward $118 $-1 #
coedge $-1 -1 $-1 $345 $120 $342 $346 reversed $73 $-1 #
coedge $-1 -1 $-1 $120 $345 $121 $214 forward $73 $-1 #
coedge $-1 -1 $-1 $123 $343 $120 $212 reversed $218 $-1 #
edge $-1 -1 $-1 $220 -10 $347 10 $120 $348 forward @7 unknown #
coedge $-1 -1 $-1 $122 $121 $349 $350 reversed $49 $-1 #
edge $351 -1 $-1 $352 0 $220 20 $210 $353 forward @7 unknown #
coedge $-1 -1 $-1 $354 $340 $122 $216 reversed $206 $-1 #
edge $-1 -1 $-1 $355 0 $219 20 $122 $356 forward @7 unknown #
coedge $-1 -1 $-1 $343 $123 $340 $357 reversed $218 $-1 #
loop $-1 -1 $-1 $-1 $123 $205 #
vertex $-1 -1 $-1 $216 $358 #
vertex $-1 -1 $-1 $214 $359 #
straight-curve $-1 -1 $-1 12.5 10 20 1 0 0 I I #
model_id-kcp-attrib $-1 -1 $-1 $-1 $126 1 1021384618 1021384618 -1848836094 5 #
face $360 -1 $-1 $361 $362 $29 $-1 $363 reversed single #
loop $-1 -1 $-1 $-1 $364 $126 #
plane-surface $-1 -1 $-1 -40 0 0 1 0 0 0 0 -1 forward_v I I I I #
coedge $-1 -1 $-1 $365 $234 $366 $367 forward $127 $-1 #
coedge $-1 -1 $-1 $368 $129 $365 $369 forward $78 $-1 #
coedge $-1 -1 $-1 $129 $368 $370 $371 forward $78 $-1 #
coedge $-1 -1 $-1 $237 $236 $129 $230 reversed $238 $-1 #
edge $-1 -1 $-1 $372 -40 $373 40 $229 $374 forward @7 unknown #
coedge $-1 -1 $-1 $131 $130 $375 $376 forward $53 $-1 #
coedge $-1 -1 $-1 $377 $378 $130 $233 reversed $362 $-1 #
edge $-1 -1 $-1 $240 -40 $379 40 $232 $380 forward @7 unknown #
coedge $-1 -1 $-1 $226 $381 $131 $235 reversed $127 $-1 #
edge $-1 -1 $-1 $382 -40 $239 40 $234 $383 forward @7 unknown #
coedge $-1 -1 $-1 $229 $132 $381 $384 forward $238 $-1 #
coedge $-1 -1 $-1 $132 $229 $377 $385 reversed $238 $-1 #
loop $-1 -1 $-1 $-1 $236 $361 #
vertex $-1 -1 $-1 $133 $386 #
vertex $-1 -1 $-1 $133 $387 #
straight-curve $-1 -1 $-1 40 0 20 0 1 0 I I #
model_id-kcp-attrib $-1 -1 $-1 $-1 $135 1 1021384618 1021384618 -1848836095 7 #
face $388 -1 $-1 $389 $390 $9 $-1 $391 forward single #
loop $-1 -1 $-1 $-1 $392 $135 #
coedge $-1 -1 $-1 $145 $393 $147 $265 reversed $136 $-1 #
coedge $-1 -1 $-1 $155 $137 $139 $250 reversed $83 $-1 #
coedge $-1 -1 $-1 $139 $138 $394 $395 forward $57 $-1 #
coedge $-1 -1 $-1 $396 $159 $138 $249 forward $161 $-1 #
edge $397 -1 $-1 $398 -30 $252 -20 $248 $399 forward @7 unknown #
edge $400 -1 $-1 $401 -30 $253 -20 $139 $402 forward @7 unknown #
coedge $-1 -1 $-1 $140 $403 $396 $404 reversed $97 $-1 #
vertex $-1 -1 $-1 $141 $405 #
vertex $-1 -1 $-1 $167 $406 #
straight-curve $-1 -1 $-1 20 -10 5 0 0 -1 I I #
coedge $-1 -1 $-1 $407 $408 $142 $256 reversed $390 $-1 #
edge $-1 -1 $-1 $260 -10 $263 10 $142 $409 forward @7 unknown #
coedge $-1 -1 $-1 $279 $143 $148 $267 forward $161 $-1 #
coedge $-1 -1 $-1 $143 $280 $407 $410 forward $161 $-1 #
attrib_edge_convexity-kcp-attrib $-1 -1 $411 $-1 $144 1 #
vertex $-1 -1 $-1 $410 $412 #
coedge $-1 -1 $-1 $393 $145 $408 $413 reversed $136 $-1 #
attrib_edge_convexity-kcp-attrib $-1 -1 $414 $-1 $146 2 #
vertex $-1 -1 $-1 $146 $415 #
coedge $-1 -1 $-1 $416 $147 $392 $417 forward $149 $-1 #
edge $418 -1 $-1 $151 -10 $419 10 $147 $420 forward @7 unknown #
coedge $-1 -1 $-1 $148 $421 $422 $423 reversed $149 $-1 #
edge $424 -1 $-1 $150 10 $425 20 $257 $426 forward @7 unknown #
face $427 -1 $-1 $428 $149 $9 $-1 $429 forward single #
point $-1 -1 $-1 -20 10 20 #
point $-1 -1 $-1 -20 10 0 #
coedge $-1 -1 $-1 $394 $153 $155 $275 forward $273 $-1 #
coedge $-1 -1 $-1 $153 $394 $159 $278 reversed $273 $-1 #
loop $-1 -1 $-1 $-1 $394 $389 #
straight-curve $-1 -1 $-1 30 10 10 0 0 -1 I I #
edge $430 -1 $-1 $157 -10 $401 10 $271 $431 forward @7 unknown #
convexity-sys-attrib $-1 -1 $-1 $156 $92 #
point $-1 -1 $-1 30 10 0 #
edge $432 -1 $-1 $163 -10 $398 10 $159 $433 forward @7 unknown #
coedge $-1 -1 $-1 $160 $257 $434 $435 forward $161 $-1 #
coedge $-1 -1 $-1 $258 $436 $437 $438 forward $161 $-1 #
face $439 -1 $-1 $440 $441 $9 $-1 $442 forward single #
convexity-sys-attrib $-1 -1 $-1 $162 $94 #
point $-1 -1 $-1 30 10 20 #
coedge $-1 -1 $-1 $403 $165 $443 $444 reversed $97 $-1 #
coedge $-1 -1 $-1 $434 $445 $165 $286 reversed $446 $-1 #
edge $-1 -1 $-1 $288 -20 $447 20 $165 $448 forward @7 unknown #
attrib_edge_convexity-kcp-attrib $-1 -1 $449 $-1 $166 1 #
vertex $-1 -1 $-1 $435 $450 #
straight-curve $-1 -1 $-1 20 0 20 0 -1 0 I I #
attrib_edge_convexity-kcp-attrib $-1 -1 $451 $-1 $167 1 #
straight-curve $-1 -1 $-1 20 0 0 0 1 0 I I #
model_id-kcp-attrib $-1 -1 $-1 $-1 $168 1 1021384618 1021384618 -1848836095 14 #
face $452 -1 $-1 $453 $454 $9 $-1 $455 reversed single #
plane-surface $-1 -1 $-1 20 0 0 -1 0 0 0 0 1 forward_v I I I I #
face $-1 -1 $-1 $-1 $456 $24 $-1 $457 reversed single #
plane-surface $-1 -1 $-1 -25 0 20 0 0 1 1 0 0 forward_v I I I I #
coedge $-1 -1 $-1 $181 $458 $183 $314 forward $172 $-1 #
coedge $-1 -1 $-1 $459 $174 $458 $460 reversed $102 $-1 #
coedge $-1 -1 $-1 $174 $459 $175 $303 forward $102 $-1 #
coedge $-1 -1 $-1 $177 $183 $174 $301 reversed $184 $-1 #
edge $-1 -1 $-1 $304 -17.5 $461 -7.5 $174 $462 forward @7 unknown #
coedge $-1 -1 $-1 $176 $175 $463 $464 reversed $65 $-1 #
edge $465 -1 $-1 $466 0 $304 20 $299 $467 forward @7 unknown #
vertex $-1 -1 $-1 $303 $468 #
straight-curve $-1 -1 $-1 -30 0 20 0 1 0 I I #
coedge $-1 -1 $-1 $463 $469 $179 $307 forward $456 $-1 #
edge $470 -1 $-1 $312 7.5 $309 17.5 $179 $471 forward @7 unknown #
convexity-sys-attrib $-1 -1 $-1 $-1 $180 #
vertex $-1 -1 $-1 $307 $472 #
straight-curve $-1 -1 $-1 -30 -10 0 0 0 1 I I #
coedge $-1 -1 $-1 $458 $181 $469 $473 reversed $172 $-1 #
vertex $-1 -1 $-1 $473 $474 #
straight-curve $-1 -1 $-1 -20 -10 0 0 0 1 I I #
edge $-1 -1 $-1 $461 -20 $185 0 $297 $475 forward @7 unknown #
point $-1 -1 $-1 -20 -10 20 #
point $-1 -1 $-1 -30 -10 20 #
face $-1 -1 $-1 $-1 $476 $26 $-1 $477 reversed single #
plane-surface $-1 -1 $-1 0 0 20 0 0 1 1 0 0 forward_v I I I I #
coedge $-1 -1 $-1 $198 $478 $200 $335 forward $189 $-1 #
coedge $-1 -1 $-1 $479 $191 $478 $480 reversed $110 $-1 #
coedge $-1 -1 $-1 $191 $479 $192 $325 forward $110 $-1 #
coedge $-1 -1 $-1 $194 $200 $191 $323 reversed $201 $-1 #
edge $-1 -1 $-1 $326 -20 $481 20 $191 $482 forward @7 unknown #
coedge $-1 -1 $-1 $193 $192 $483 $484 forward $69 $-1 #
edge $-1 -1 $-1 $485 0 $326 40 $321 $486 forward @7 unknown #
vertex $-1 -1 $-1 $325 $487 #
straight-curve $-1 -1 $-1 0 20 20 1 0 0 I I #
coedge $-1 -1 $-1 $483 $488 $196 $329 reversed $476 $-1 #
edge $-1 -1 $-1 $330 -20 $333 20 $196 $489 forward @7 unknown #
vertex $-1 -1 $-1 $484 $490 #
straight-curve $-1 -1 $-1 -20 20 -20 0 0 1 I I #
coedge $-1 -1 $-1 $478 $198 $488 $491 forward $189 $-1 #
vertex $-1 -1 $-1 $491 $492 #
straight-curve $-1 -1 $-1 -20 -20 -20 0 0 1 I I #
edge $-1 -1 $-1 $481 -20 $202 20 $319 $493 forward @7 unknown #
point $-1 -1 $-1 -20 -20 20 #
point $-1 -1 $-1 -20 20 20 #
face $-1 -1 $-1 $-1 $494 $28 $-1 $495 reversed single #
plane-surface $-1 -1 $-1 25 0 20 0 0 1 1 0 0 forward_v I I I I #
coedge $-1 -1 $-1 $215 $496 $217 $357 forward $206 $-1 #
coedge $-1 -1 $-1 $497 $208 $496 $498 reversed $118 $-1 #
coedge $-1 -1 $-1 $208 $497 $209 $346 forward $118 $-1 #
coedge $-1 -1 $-1 $211 $217 $208 $344 reversed $218 $-1 #
edge $-1 -1 $-1 $347 -17.5 $499 -7.5 $208 $500 forward @7 unknown #
coedge $-1 -1 $-1 $210 $209 $501 $502 reversed $73 $-1 #
edge $503 -1 $-1 $504 0 $347 20 $342 $505 forward @7 unknown #
vertex $-1 -1 $-1 $346 $506 #
straight-curve $-1 -1 $-1 30 0 20 0 -1 0 I I #
coedge $-1 -1 $-1 $501 $507 $213 $350 forward $494 $-1 #
edge $508 -1 $-1 $355 7.5 $352 17.5 $213 $509 forward @7 unknown #
convexity-sys-attrib $-1 -1 $-1 $-1 $214 #
vertex $-1 -1 $-1 $350 $510 #
straight-curve $-1 -1 $-1 30 10 0 0 0 1 I I #
coedge $-1 -1 $-1 $496 $215 $507 $511 reversed $206 $-1 #
vertex $-1 -1 $-1 $511 $512 #
straight-curve $-1 -1 $-1 20 10 0 0 0 1 I I #
edge $-1 -1 $-1 $499 -20 $219 0 $340 $513 forward @7 unknown #
point $-1 -1 $-1 20 10 20 #
point $-1 -1 $-1 30 10 20 #
model_id-kcp-attrib $-1 -1 $-1 $-1 $223 1 1021384618 1021384618 -1848836094 6 #
face $514 -1 $-1 $-1 $238 $29 $-1 $515 reversed single #
loop $-1 -1 $-1 $-1 $377 $223 #
plane-surface $-1 -1 $-1 0 40 0 0 -1 0 0 0 -1 forward_v I I I I #
coedge $-1 -1 $-1 $516 $375 $378 $517 forward $224 $-1 #
coedge $-1 -1 $-1 $381 $226 $227 $369 reversed $127 $-1 #
coedge $-1 -1 $-1 $375 $516 $226 $367 reversed $224 $-1 #
edge $-1 -1 $-1 $382 -20 $518 20 $366 $519 forward @7 unknown #
coedge $-1 -1 $-1 $228 $227 $516 $520 forward $78 $-1 #
edge $-1 -1 $-1 $373 -40 $518 40 $365 $521 forward @7 unknown #
coedge $-1 -1 $-1 $378 $377 $228 $371 reversed $362 $-1 #
edge $-1 -1 $-1 $522 -40 $372 40 $370 $523 forward @7 unknown #
vertex $-1 -1 $-1 $230 $524 #
vertex $-1 -1 $-1 $384 $525 #
straight-curve $-1 -1 $-1 40 0 -20 0 -1 0 I I #
coedge $-1 -1 $-1 $364 $366 $231 $376 reversed $224 $-1 #
edge $-1 -1 $-1 $379 -40 $382 40 $375 $526 forward @7 unknown #
coedge $-1 -1 $-1 $370 $232 $237 $385 forward $362 $-1 #
coedge $-1 -1 $-1 $232 $370 $364 $517 reversed $362 $-1 #
vertex $-1 -1 $-1 $233 $527 #
straight-curve $-1 -1 $-1 0 40 20 -1 0 0 I I #
coedge $-1 -1 $-1 $234 $365 $236 $384 reversed $127 $-1 #
vertex $-1 -1 $-1 $376 $528 #
straight-curve $-1 -1 $-1 0 -40 20 1 0 0 I I #
edge $-1 -1 $-1 $239 -20 $373 20 $236 $529 forward @7 unknown #
edge $-1 -1 $-1 $240 -20 $372 20 $237 $530 forward @7 unknown #
point $-1 -1 $-1 40 -40 20 #
point $-1 -1 $-1 40 40 20 #
model_id-kcp-attrib $-1 -1 $-1 $-1 $243 1 1021384618 1021384618 -1848836095 8 #
face $531 -1 $-1 $281 $273 $9 $-1 $532 forward single #
loop $-1 -1 $-1 $-1 $255 $243 #
plane-surface $-1 -1 $-1 -30 0 10 1 0 0 0 0 -1 forward_v I I I I #
coedge $-1 -1 $-1 $533 $437 $264 $417 reversed $244 $-1 #
coedge $-1 -1 $-1 $245 $261 $533 $534 reversed $136 $-1 #
coedge $-1 -1 $-1 $272 $271 $247 $395 reversed $273 $-1 #
edge $-1 -1 $-1 $398 -10 $401 10 $394 $535 forward @7 unknown #
coedge $-1 -1 $-1 $536 $248 $251 $404 forward $161 $-1 #
attrib_edge_convexity-kcp-attrib $-1 -1 $537 $-1 $249 1 #
vertex $-1 -1 $-1 $249 $538 #
straight-curve $-1 -1 $-1 0 -10 20 -1 0 0 I I #
attrib_edge_convexity-kcp-attrib $-1 -1 $539 $-1 $250 2 #
vertex $-1 -1 $-1 $395 $540 #
straight-curve $-1 -1 $-1 0 -10 0 -1 0 0 I I #
coedge $-1 -1 $-1 $251 $284 $541 $542 reversed $97 $-1 #
edge $543 -1 $-1 $252 10 $544 20 $396 $289 forward @7 unknown #
point $-1 -1 $-1 20 -10 20 #
point $-1 -1 $-1 20 -10 0 #
coedge $-1 -1 $-1 $545 $255 $258 $410 reversed $390 $-1 #
coedge $-1 -1 $-1 $255 $545 $261 $413 forward $390 $-1 #
straight-curve $-1 -1 $-1 -30 10 10 0 0 -1 I I #
edge $546 -1 $-1 $547 -10 $260 10 $258 $548 forward @7 unknown #
convexity-sys-attrib $-1 -1 $-1 $259 $144 #
point $-1 -1 $-1 -30 10 20 #
edge $549 -1 $-1 $550 -10 $263 10 $408 $551 forward @7 unknown #
convexity-sys-attrib $-1 -1 $-1 $262 $146 #
point $-1 -1 $-1 -30 10 0 #
coedge $-1 -1 $-1 $552 $264 $436 $553 reversed $149 $-1 #
edge $-1 -1 $-1 $419 -5 $554 15 $264 $555 forward @7 unknown #
attrib_edge_convexity-kcp-attrib $-1 -1 $556 $-1 $265 1 #
vertex $-1 -1 $-1 $265 $557 #
straight-curve $-1 -1 $-1 -20 0 0 0 -1 0 I I #
coedge $-1 -1 $-1 $266 $552 $558 $559 reversed $149 $-1 #
coedge $-1 -1 $-1 $445 $434 $266 $423 forward $446 $-1 #
edge $-1 -1 $-1 $425 -20 $560 20 $422 $561 forward @7 unknown #
attrib_edge_convexity-kcp-attrib $-1 -1 $562 $-1 $267 1 #
vertex $-1 -1 $-1 $267 $563 #
straight-curve $-1 -1 $-1 -20 0 20 0 1 0 I I #
model_id-kcp-attrib $-1 -1 $-1 $-1 $268 1 1021384618 1021384618 -1848836095 12 #
face $564 -1 $-1 $168 $446 $9 $-1 $565 forward single #
plane-surface $-1 -1 $-1 -20 0 0 1 0 0 0 0 -1 forward_v I I I I #
attrib_edge_convexity-kcp-attrib $-1 -1 $566 $-1 $275 2 #
straight-curve $-1 -1 $-1 30 0 0 0 -1 0 I I #
attrib_edge_convexity-kcp-attrib $-1 -1 $567 $-1 $278 1 #
straight-curve $-1 -1 $-1 30 0 20 0 -1 0 I I #
coedge $-1 -1 $-1 $422 $285 $279 $435 reversed $446 $-1 #
edge $568 -1 $-1 $425 -20 $288 20 $279 $569 forward @7 unknown #
coedge $-1 -1 $-1 $280 $536 $416 $553 forward $161 $-1 #
coedge $-1 -1 $-1 $392 $570 $280 $438 reversed $244 $-1 #
edge $571 -1 $-1 $554 20 $547 30 $280 $399 forward @7 unknown #
model_id-kcp-attrib $-1 -1 $-1 $-1 $281 1 1021384618 1021384618 -1848836095 10 #
face $572 -1 $-1 $268 $573 $9 $-1 $574 forward single #
loop $-1 -1 $-1 $161 $575 $281 #
plane-surface $-1 -1 $-1 0 0 20 0 0 1 1 0 0 forward_v I I I I #
coedge $-1 -1 $-1 $576 $577 $284 $444 forward $454 $-1 #
edge $-1 -1 $-1 $578 -20 $447 20 $443 $579 forward @7 unknown #
coedge $-1 -1 $-1 $285 $422 $576 $580 reversed $446 $-1 #
loop $-1 -1 $-1 $-1 $285 $428 #
vertex $-1 -1 $-1 $580 $581 #
straight-curve $-1 -1 $-1 20 20 0 0 0 -1 I I #
convexity-sys-attrib $-1 -1 $-1 $287 $166 #
point $-1 -1 $-1 20 20 20 #
convexity-sys-attrib $-1 -1 $-1 $290 $167 #
model_id-kcp-attrib $-1 -1 $-1 $-1 $293 1 1021384618 1021384618 -1848836095 15 #
face $582 -1 $-1 $583 $584 $9 $-1 $585 reversed single #
loop $-1 -1 $-1 $586 $577 $293 #
plane-surface $-1 -1 $-1 0 0 -20 0 0 1 1 0 0 forward_v I I I I #
loop $-1 -1 $-1 $-1 $469 $295 #
plane-surface $-1 -1 $-1 -25 0 0 0 0 1 1 0 0 forward_v I I I I #
coedge $-1 -1 $-1 $297 $311 $298 $460 forward $172 $-1 #
coedge $-1 -1 $-1 $299 $298 $587 $588 reversed $102 $-1 #
edge $-1 -1 $-1 $589 0 $461 20 $458 $590 forward @7 unknown #
vertex $-1 -1 $-1 $460 $591 #
straight-curve $-1 -1 $-1 -12.5 10 20 1 0 0 I I #
coedge $-1 -1 $-1 $587 $306 $302 $464 forward $456 $-1 #
edge $592 -1 $-1 $309 -10 $466 10 $302 $593 forward @7 unknown #
convexity-sys-attrib $-1 -1 $-1 $-1 $303 #
vertex $-1 -1 $-1 $464 $594 #
straight-curve $-1 -1 $-1 -30 10 0 0 0 1 I I #
point $-1 -1 $-1 -30 10 20 #
coedge $-1 -1 $-1 $306 $587 $311 $473 forward $456 $-1 #
convexity-sys-attrib $-1 -1 $-1 $-1 $307 #
straight-curve $-1 -1 $-1 -12.5 -10 0 -1 0 0 I I #
point $-1 -1 $-1 -30 -10 0 #
edge $595 -1 $-1 $589 -20 $312 0 $311 $596 forward @7 unknown #
point $-1 -1 $-1 -20 -10 0 #
straight-curve $-1 -1 $-1 -20 -10 20 0 -1 0 I I #
loop $-1 -1 $-1 $-1 $488 $317 #
plane-surface $-1 -1 $-1 0 0 -20 0 0 1 1 0 0 forward_v I I I I #
coedge $-1 -1 $-1 $319 $332 $320 $480 forward $189 $-1 #
coedge $-1 -1 $-1 $321 $320 $597 $598 forward $110 $-1 #
edge $-1 -1 $-1 $599 0 $481 40 $478 $600 forward @7 unknown #
vertex $-1 -1 $-1 $480 $601 #
straight-curve $-1 -1 $-1 20 0 20 0 -1 0 I I #
coedge $-1 -1 $-1 $597 $328 $324 $484 reversed $476 $-1 #
edge $-1 -1 $-1 $485 -20 $330 20 $324 $602 forward @7 unknown #
vertex $-1 -1 $-1 $598 $603 #
straight-curve $-1 -1 $-1 20 20 -20 0 0 1 I I #
point $-1 -1 $-1 20 20 20 #
coedge $-1 -1 $-1 $328 $597 $332 $491 reversed $476 $-1 #
straight-curve $-1 -1 $-1 -20 0 -20 0 -1 0 I I #
point $-1 -1 $-1 -20 20 -20 #
edge $-1 -1 $-1 $333 -20 $599 20 $332 $604 forward @7 unknown #
point $-1 -1 $-1 -20 -20 -20 #
straight-curve $-1 -1 $-1 0 -20 20 -1 0 0 I I #
loop $-1 -1 $-1 $-1 $507 $338 #
plane-surface $-1 -1 $-1 25 0 0 0 0 1 1 0 0 forward_v I I I I #
coedge $-1 -1 $-1 $340 $354 $341 $498 forward $206 $-1 #
coedge $-1 -1 $-1 $342 $341 $605 $606 reversed $118 $-1 #
edge $-1 -1 $-1 $607 0 $499 20 $496 $608 forward @7 unknown #
vertex $-1 -1 $-1 $498 $609 #
straight-curve $-1 -1 $-1 12.5 -10 20 -1 0 0 I I #
coedge $-1 -1 $-1 $605 $349 $345 $502 forward $494 $-1 #
edge $610 -1 $-1 $352 -10 $504 10 $345 $611 forward @7 unknown #
convexity-sys-attrib $-1 -1 $-1 $-1 $346 #
vertex $-1 -1 $-1 $502 $612 #
straight-curve $-1 -1 $-1 30 -10 0 0 0 1 I I #
point $-1 -1 $-1 30 -10 20 #
coedge $-1 -1 $-1 $349 $605 $354 $511 forward $494 $-1 #
convexity-sys-attrib $-1 -1 $-1 $-1 $350 #
straight-curve $-1 -1 $-1 12.5 10 0 1 0 0 I I #
point $-1 -1 $-1 30 10 0 #
edge $613 -1 $-1 $607 -20 $355 0 $354 $614 forward @7 unknown #
point $-1 -1 $-1 20 10 0 #
straight-curve $-1 -1 $-1 20 10 20 0 1 0 I I #
model_id-kcp-attrib $-1 -1 $-1 $-1 $361 1 1021384618 1021384618 -1848836094 7 #
plane-surface $-1 -1 $-1 40 0 0 -1 0 0 0 0 1 forward_v I I I I #
coedge $-1 -1 $-1 $366 $364 $368 $520 reversed $224 $-1 #
edge $-1 -1 $-1 $379 -20 $522 20 $378 $615 forward @7 unknown #
vertex $-1 -1 $-1 $520 $616 #
straight-curve $-1 -1 $-1 -40 -40 0 0 0 -1 I I #
edge $-1 -1 $-1 $518 -40 $522 40 $516 $617 forward @7 unknown #
straight-curve $-1 -1 $-1 0 -40 -20 -1 0 0 I I #
vertex $-1 -1 $-1 $371 $618 #
straight-curve $-1 -1 $-1 0 40 -20 1 0 0 I I #
point $-1 -1 $-1 40 40 -20 #
point $-1 -1 $-1 40 -40 -20 #
straight-curve $-1 -1 $-1 -40 0 20 0 -1 0 I I #
point $-1 -1 $-1 -40 40 20 #
point $-1 -1 $-1 -40 -40 20 #
straight-curve $-1 -1 $-1 40 -40 0 0 0 -1 I I #
straight-curve $-1 -1 $-1 40 40 0 0 0 -1 I I #
model_id-kcp-attrib $-1 -1 $-1 $-1 $389 1 1021384618 1021384618 -1848836095 9 #
plane-surface $-1 -1 $-1 30 0 10 -1 0 0 0 0 1 forward_v I I I I #
coedge $-1 -1 $-1 $570 $392 $393 $534 forward $244 $-1 #
edge $619 -1 $-1 $419 20 $550 30 $533 $402 forward @7 unknown #
straight-curve $-1 -1 $-1 30 -10 10 0 0 -1 I I #
coedge $-1 -1 $-1 $436 $396 $620 $621 forward $161 $-1 #
convexity-sys-attrib $-1 -1 $-1 $397 $249 #
point $-1 -1 $-1 30 -10 20 #
convexity-sys-attrib $-1 -1 $-1 $400 $250 #
point $-1 -1 $-1 30 -10 0 #
coedge $-1 -1 $-1 $622 $620 $403 $542 forward $573 $-1 #
edge $-1 -1 $-1 $544 -20 $578 20 $403 $623 forward @7 unknown #
attrib_edge_convexity-kcp-attrib $-1 -1 $624 $-1 $404 1 #
vertex $-1 -1 $-1 $621 $625 #
coedge $-1 -1 $-1 $408 $407 $570 $626 forward $390 $-1 #
attrib_edge_convexity-kcp-attrib $-1 -1 $627 $-1 $410 1 #
vertex $-1 -1 $-1 $438 $628 #
straight-curve $-1 -1 $-1 -30 0 20 0 1 0 I I #
attrib_edge_convexity-kcp-attrib $-1 -1 $629 $-1 $413 2 #
vertex $-1 -1 $-1 $413 $630 #
straight-curve $-1 -1 $-1 -30 0 0 0 1 0 I I #
coedge $-1 -1 $-1 $421 $416 $631 $632 forward $149 $-1 #
edge $633 -1 $-1 $634 -20 $554 -10 $436 $426 forward @7 unknown #
vertex $-1 -1 $-1 $553 $635 #
straight-curve $-1 -1 $-1 -20 -10 5 0 0 1 I I #
convexity-sys-attrib $-1 -1 $-1 $418 $265 #
point $-1 -1 $-1 -20 -10 0 #
coedge $-1 -1 $-1 $577 $576 $421 $559 forward $454 $-1 #
edge $-1 -1 $-1 $560 -20 $636 20 $558 $637 forward @7 unknown #
vertex $-1 -1 $-1 $559 $638 #
straight-curve $-1 -1 $-1 -20 20 0 0 0 -1 I I #
convexity-sys-attrib $-1 -1 $-1 $424 $267 #
point $-1 -1 $-1 -20 20 20 #
model_id-kcp-attrib $-1 -1 $-1 $-1 $428 1 1021384618 1021384618 -1848836095 13 #
plane-surface $-1 -1 $-1 0 20 0 0 -1 0 0 0 -1 forward_v I I I I #
convexity-sys-attrib $-1 -1 $-1 $430 $275 #
convexity-sys-attrib $-1 -1 $-1 $432 $278 #
attrib_edge_convexity-kcp-attrib $-1 -1 $639 $-1 $435 1 #
straight-curve $-1 -1 $-1 0 20 20 1 0 0 I I #
coedge $-1 -1 $-1 $437 $533 $545 $626 reversed $244 $-1 #
attrib_edge_convexity-kcp-attrib $-1 -1 $640 $-1 $438 1 #
model_id-kcp-attrib $-1 -1 $-1 $-1 $440 1 1021384618 1021384618 -1848836095 11 #
loop $-1 -1 $-1 $-1 $631 $440 #
plane-surface $-1 -1 $-1 0 -20 0 0 1 0 0 0 1 forward_v I I I I #
coedge $-1 -1 $-1 $641 $642 $643 $644 forward $441 $-1 #
coedge $-1 -1 $-1 $558 $443 $445 $580 forward $454 $-1 #
coedge $-1 -1 $-1 $443 $558 $622 $645 forward $454 $-1 #
vertex $-1 -1 $-1 $645 $646 #
straight-curve $-1 -1 $-1 20 0 -20 0 1 0 I I #
edge $-1 -1 $-1 $447 -20 $560 20 $576 $647 forward @7 unknown #
point $-1 -1 $-1 20 20 -20 #
model_id-kcp-attrib $-1 -1 $-1 $-1 $453 1 1021384618 1021384618 -1848836095 16 #
face $648 -1 $-1 $649 $650 $9 $-1 $651 reversed single #
loop $-1 -1 $-1 $-1 $652 $453 #
plane-surface $-1 -1 $-1 0 -40 0 0 1 0 0 0 1 forward_v I I I I #
loop $-1 -1 $-1 $-1 $653 $293 #
coedge $-1 -1 $-1 $469 $463 $459 $588 forward $456 $-1 #
edge $654 -1 $-1 $466 -17.5 $589 -7.5 $459 $655 forward @7 unknown #
vertex $-1 -1 $-1 $473 $656 #
straight-curve $-1 -1 $-1 -20 10 0 0 0 1 I I #
point $-1 -1 $-1 -20 10 20 #
convexity-sys-attrib $-1 -1 $-1 $-1 $464 #
straight-curve $-1 -1 $-1 -30 0 0 0 1 0 I I #
point $-1 -1 $-1 -30 10 0 #
convexity-sys-attrib $-1 -1 $-1 $-1 $473 #
straight-curve $-1 -1 $-1 -20 -10 0 0 -1 0 I I #
coedge $-1 -1 $-1 $488 $483 $479 $598 reversed $476 $-1 #
edge $-1 -1 $-1 $599 -20 $485 20 $479 $657 forward @7 unknown #
vertex $-1 -1 $-1 $491 $658 #
straight-curve $-1 -1 $-1 20 -20 -20 0 0 1 I I #
point $-1 -1 $-1 20 -20 20 #
straight-curve $-1 -1 $-1 0 20 -20 -1 0 0 I I #
point $-1 -1 $-1 20 20 -20 #
straight-curve $-1 -1 $-1 0 -20 -20 1 0 0 I I #
coedge $-1 -1 $-1 $507 $501 $497 $606 forward $494 $-1 #
edge $659 -1 $-1 $504 -17.5 $607 -7.5 $497 $660 forward @7 unknown #
vertex $-1 -1 $-1 $511 $661 #
straight-curve $-1 -1 $-1 20 -10 0 0 0 1 I I #
point $-1 -1 $-1 20 -10 20 #
convexity-sys-attrib $-1 -1 $-1 $-1 $502 #
straight-curve $-1 -1 $-1 30 0 0 0 -1 0 I I #
point $-1 -1 $-1 30 -10 0 #
convexity-sys-attrib $-1 -1 $-1 $-1 $511 #
straight-curve $-1 -1 $-1 20 10 0 0 1 0 I I #
straight-curve $-1 -1 $-1 -40 40 0 0 0 -1 I I #
point $-1 -1 $-1 -40 -40 -20 #
straight-curve $-1 -1 $-1 -40 0 -20 0 1 0 I I #
point $-1 -1 $-1 -40 40 -20 #
attrib_edge_convexity-kcp-attrib $-1 -1 $662 $-1 $534 2 #
coedge $-1 -1 $-1 $541 $631 $536 $621 reversed $573 $-1 #
edge $663 -1 $-1 $544 -20 $634 20 $536 $664 forward @7 unknown #
coedge $-1 -1 $-1 $631 $541 $577 $645 reversed $573 $-1 #
straight-curve $-1 -1 $-1 20 -20 0 0 0 -1 I I #
convexity-sys-attrib $-1 -1 $-1 $543 $404 #
point $-1 -1 $-1 20 -20 20 #
edge $-1 -1 $-1 $547 -10 $550 10 $545 $665 forward @7 unknown #
convexity-sys-attrib $-1 -1 $-1 $546 $410 #
point $-1 -1 $-1 -30 -10 20 #
convexity-sys-attrib $-1 -1 $-1 $549 $413 #
point $-1 -1 $-1 -30 -10 0 #
coedge $-1 -1 $-1 $620 $622 $552 $632 reversed $573 $-1 #
edge $-1 -1 $-1 $634 -20 $636 20 $552 $666 forward @7 unknown #
attrib_edge_convexity-kcp-attrib $-1 -1 $667 $-1 $553 1 #
vertex $-1 -1 $-1 $621 $668 #
point $-1 -1 $-1 -20 -10 20 #
vertex $-1 -1 $-1 $645 $669 #
straight-curve $-1 -1 $-1 -20 0 -20 0 -1 0 I I #
point $-1 -1 $-1 -20 20 -20 #
convexity-sys-attrib $-1 -1 $-1 $568 $435 #
convexity-sys-attrib $-1 -1 $-1 $571 $438 #
coedge $-1 -1 $-1 $670 $575 $671 $672 forward $441 $-1 #
coedge $-1 -1 $-1 $575 $670 $673 $674 forward $441 $-1 #
coedge $-1 -1 $-1 $675 $676 $575 $644 reversed $677 $-1 #
edge $678 -1 $-1 $679 -40 $680 40 $643 $681 forward @7 unknown #
edge $-1 -1 $-1 $636 -20 $578 20 $577 $682 forward @7 unknown #
point $-1 -1 $-1 20 -20 -20 #
straight-curve $-1 -1 $-1 0 20 -20 -1 0 0 I I #
model_id-kcp-attrib $-1 -1 $-1 $-1 $583 1 1021384618 1021384618 -1848836095 17 #
face $683 -1 $-1 $684 $685 $9 $-1 $686 reversed single #
loop $-1 -1 $-1 $-1 $687 $583 #
plane-surface $-1 -1 $-1 -40 0 0 1 0 0 0 0 -1 forward_v I I I I #
coedge $-1 -1 $-1 $688 $673 $689 $690 forward $584 $-1 #
coedge $-1 -1 $-1 $691 $692 $693 $694 forward $586 $-1 #
convexity-sys-attrib $-1 -1 $-1 $-1 $588 #
straight-curve $-1 -1 $-1 -12.5 10 0 1 0 0 I I #
point $-1 -1 $-1 -20 10 0 #
straight-curve $-1 -1 $-1 20 0 -20 0 1 0 I I #
point $-1 -1 $-1 20 -20 -20 #
convexity-sys-attrib $-1 -1 $-1 $-1 $606 #
straight-curve $-1 -1 $-1 12.5 -10 0 -1 0 0 I I #
point $-1 -1 $-1 20 -10 0 #
convexity-sys-attrib $-1 -1 $-1 $619 $534 #
attrib_edge_convexity-kcp-attrib $-1 -1 $695 $-1 $621 1 #
straight-curve $-1 -1 $-1 0 -20 20 -1 0 0 I I #
straight-curve $-1 -1 $-1 -30 -10 10 0 0 -1 I I #
straight-curve $-1 -1 $-1 -20 -20 0 0 0 -1 I I #
convexity-sys-attrib $-1 -1 $-1 $633 $553 #
point $-1 -1 $-1 -20 -20 20 #
point $-1 -1 $-1 -20 -20 -20 #
coedge $-1 -1 $-1 $642 $641 $696 $697 forward $441 $-1 #
coedge $-1 -1 $-1 $698 $699 $641 $672 reversed $685 $-1 #
edge $700 -1 $-1 $680 -40 $701 40 $671 $702 forward @7 unknown #
coedge $-1 -1 $-1 $652 $703 $642 $674 reversed $584 $-1 #
edge $704 -1 $-1 $705 -40 $679 40 $673 $706 forward @7 unknown #
coedge $-1 -1 $-1 $693 $643 $703 $707 forward $677 $-1 #
coedge $-1 -1 $-1 $643 $693 $698 $708 reversed $677 $-1 #
loop $-1 -1 $-1 $-1 $675 $684 #
attrib_edge_convexity-kcp-attrib $-1 -1 $709 $-1 $644 1 #
vertex $-1 -1 $-1 $644 $710 #
vertex $-1 -1 $-1 $644 $711 #
straight-curve $-1 -1 $-1 40 0 20 0 1 0 I I #
straight-curve $-1 -1 $-1 0 -20 -20 1 0 0 I I #
model_id-kcp-attrib $-1 -1 $-1 $-1 $649 1 1021384618 1021384618 -1848836095 18 #
face $712 -1 $-1 $-1 $677 $9 $-1 $713 reversed single #
loop $-1 -1 $-1 $-1 $698 $649 #
plane-surface $-1 -1 $-1 0 40 0 0 -1 0 0 0 -1 forward_v I I I I #
coedge $-1 -1 $-1 $714 $696 $699 $715 forward $650 $-1 #
coedge $-1 -1 $-1 $703 $652 $691 $716 reversed $584 $-1 #
coedge $-1 -1 $-1 $696 $714 $652 $690 reversed $650 $-1 #
edge $717 -1 $-1 $705 -20 $718 20 $689 $719 forward @7 unknown #
coedge $-1 -1 $-1 $720 $653 $688 $716 forward $586 $-1 #
coedge $-1 -1 $-1 $653 $720 $721 $722 forward $586 $-1 #
coedge $-1 -1 $-1 $676 $675 $653 $694 reversed $677 $-1 #
edge $-1 -1 $-1 $723 -40 $724 40 $693 $725 forward @7 unknown #
convexity-sys-attrib $-1 -1 $-1 $663 $621 #
coedge $-1 -1 $-1 $687 $689 $670 $697 reversed $650 $-1 #
edge $726 -1 $-1 $701 -40 $705 40 $696 $727 forward @7 unknown #
coedge $-1 -1 $-1 $721 $671 $676 $708 forward $685 $-1 #
coedge $-1 -1 $-1 $671 $721 $687 $715 reversed $685 $-1 #
attrib_edge_convexity-kcp-attrib $-1 -1 $728 $-1 $672 1 #
vertex $-1 -1 $-1 $672 $729 #
straight-curve $-1 -1 $-1 0 40 20 -1 0 0 I I #
coedge $-1 -1 $-1 $673 $688 $675 $707 reversed $584 $-1 #
attrib_edge_convexity-kcp-attrib $-1 -1 $730 $-1 $674 1 #
vertex $-1 -1 $-1 $697 $731 #
straight-curve $-1 -1 $-1 0 -40 20 1 0 0 I I #
edge $732 -1 $-1 $679 -20 $724 20 $675 $733 forward @7 unknown #
edge $-1 -1 $-1 $680 -20 $723 20 $676 $734 forward @7 unknown #
convexity-sys-attrib $-1 -1 $-1 $678 $644 #
point $-1 -1 $-1 40 -40 20 #
point $-1 -1 $-1 40 40 20 #
model_id-kcp-attrib $-1 -1 $-1 $-1 $684 1 1021384618 1021384618 -1848836095 19 #
plane-surface $-1 -1 $-1 40 0 0 -1 0 0 0 0 1 forward_v I I I I #
coedge $-1 -1 $-1 $689 $687 $720 $735 reversed $650 $-1 #
edge $736 -1 $-1 $701 -20 $737 20 $699 $738 forward @7 unknown #
edge $739 -1 $-1 $724 -40 $718 40 $688 $740 forward @7 unknown #
attrib_edge_convexity-kcp-attrib $-1 -1 $741 $-1 $690 1 #
vertex $-1 -1 $-1 $735 $742 #
straight-curve $-1 -1 $-1 -40 -40 0 0 0 -1 I I #
coedge $-1 -1 $-1 $692 $691 $714 $735 forward $586 $-1 #
coedge $-1 -1 $-1 $699 $698 $692 $722 reversed $685 $-1 #
edge $-1 -1 $-1 $737 -40 $723 40 $721 $743 forward @7 unknown #
vertex $-1 -1 $-1 $694 $744 #
vertex $-1 -1 $-1 $707 $745 #
straight-curve $-1 -1 $-1 40 0 -20 0 -1 0 I I #
attrib_edge_convexity-kcp-attrib $-1 -1 $746 $-1 $697 1 #
straight-curve $-1 -1 $-1 -40 0 20 0 -1 0 I I #
convexity-sys-attrib $-1 -1 $-1 $700 $672 #
point $-1 -1 $-1 -40 40 20 #
convexity-sys-attrib $-1 -1 $-1 $704 $674 #
point $-1 -1 $-1 -40 -40 20 #
attrib_edge_convexity-kcp-attrib $-1 -1 $747 $-1 $707 1 #
straight-curve $-1 -1 $-1 40 -40 0 0 0 -1 I I #
straight-curve $-1 -1 $-1 40 40 0 0 0 -1 I I #
edge $748 -1 $-1 $718 -40 $737 40 $714 $749 forward @7 unknown #
attrib_edge_convexity-kcp-attrib $-1 -1 $750 $-1 $715 1 #
vertex $-1 -1 $-1 $722 $751 #
straight-curve $-1 -1 $-1 -40 40 0 0 0 -1 I I #
attrib_edge_convexity-kcp-attrib $-1 -1 $752 $-1 $716 1 #
straight-curve $-1 -1 $-1 0 -40 -20 -1 0 0 I I #
convexity-sys-attrib $-1 -1 $-1 $717 $690 #
point $-1 -1 $-1 -40 -40 -20 #
straight-curve $-1 -1 $-1 0 40 -20 1 0 0 I I #
point $-1 -1 $-1 40 40 -20 #
point $-1 -1 $-1 40 -40 -20 #
convexity-sys-attrib $-1 -1 $-1 $726 $697 #
convexity-sys-attrib $-1 -1 $-1 $732 $707 #
attrib_edge_convexity-kcp-attrib $-1 -1 $753 $-1 $735 1 #
straight-curve $-1 -1 $-1 -40 0 -20 0 1 0 I I #
convexity-sys-attrib $-1 -1 $-1 $736 $715 #
point $-1 -1 $-1 -40 40 -20 #
convexity-sys-attrib $-1 -1 $-1 $739 $716 #
convexity-sys-attrib $-1 -1 $-1 $748 $735 #
End-of-ACIS-data 