600 0 2 0           
24 FBMach with ACIS - 6.0.3 13 ACIS 6.0.3 NT 24 Wed May 23 20:25:40 2001 
1 9.9999999999999995e-007 1e-010 
body $2 $3 $-1 $4 #
bdycol-kcp $-1 1 4 $5 $6 $7 $8 #
model_id-kcp-attrib $-1 $-1 $-1 $0 1 990663940 50 775028737 1 #
lump $-1 $-1 $9 $0 #
transform $-1 1 0 0 0 1 0 0 0 1 0 0 0 1 no_rotate no_reflect no_shear #
body $10 $11 $-1 $12 #
body $13 $14 $-1 $15 #
body $16 $17 $-1 $18 #
body $19 $20 $-1 $21 #
shell $-1 $-1 $-1 $22 $-1 $3 #
model_id-kcp-attrib $-1 $-1 $-1 $5 1 990663940 50 775028738 1 #
lump $-1 $-1 $23 $5 #
transform $-1 1 0 0 0 1 0 0 0 1 0 0 0 1 no_rotate no_reflect no_shear #
rgb_color-st-attrib $-1 $24 $-1 $6 0.5 1 1 #
lump $-1 $-1 $25 $6 #
transform $-1 1 0 0 0 1 0 0 0 1 0 0 0 1 no_rotate no_reflect no_shear #
rgb_color-st-attrib $-1 $26 $-1 $7 1 0 0 #
lump $-1 $-1 $27 $7 #
transform $-1 1 0 0 0 1 0 0 0 1 0 0 0 1 no_rotate no_reflect no_shear #
rgb_color-st-attrib $-1 $28 $-1 $8 1 0 0 #
lump $-1 $-1 $29 $8 #
transform $-1 1 0 0 0 1 0 0 0 1 0 0 0 1 no_rotate no_reflect no_shear #
face $30 $31 $32 $9 $-1 $33 forward single #
shell $-1 $-1 $-1 $34 $-1 $11 #
model_id-kcp-attrib $-1 $-1 $13 $6 1 990663940 200 784859139 1 #
shell $-1 $-1 $-1 $35 $-1 $14 #
model_id-kcp-attrib $-1 $-1 $16 $7 1 990663940 370 779223044 1 #
shell $-1 $-1 $-1 $36 $-1 $17 #
model_id-kcp-attrib $-1 $-1 $19 $8 1 990663940 490 787087365 1 #
shell $-1 $-1 $-1 $37 $-1 $20 #
model_id-kcp-attrib $-1 $-1 $-1 $22 1 990663940 50 775028737 2 #
face $38 $39 $40 $9 $-1 $33 forward single #
loop $-1 $-1 $41 $22 #
plane-surface $-1 0 10 10 0 -1 0 0 0 -1 forward_v I I I I #
face $42 $43 $44 $23 $-1 $45 forward single #
face $-1 $46 $47 $25 $-1 $48 forward single #
face $-1 $49 $50 $27 $-1 $51 forward single #
face $-1 $52 $53 $29 $-1 $54 forward single #
model_id-kcp-attrib $-1 $-1 $-1 $31 1 990663940 50 775028737 3 #
face $55 $56 $57 $9 $-1 $58 forward single #
loop $-1 $-1 $59 $31 #
coedge $-1 $60 $61 $62 $63 reversed $32 $-1 #
model_id-kcp-attrib $-1 $-1 $-1 $34 1 990663940 50 775028738 2 #
face $64 $65 $66 $23 $-1 $67 reversed single #
loop $-1 $-1 $68 $34 #
plane-surface $-1 0 0 20 0 0 1 1 0 0 forward_v I I I I #
face $-1 $69 $70 $25 $-1 $71 forward single #
loop $-1 $-1 $72 $35 #
plane-surface $-1 -20 -20 -20 -1 0 0 0 0 1 forward_v I I I I #
face $-1 $73 $74 $27 $-1 $75 forward single #
loop $-1 $-1 $76 $36 #
plane-surface $-1 -20 -10 0 0 -1 0 0 0 -1 forward_v I I I I #
face $-1 $77 $78 $29 $-1 $79 forward single #
loop $-1 $-1 $80 $37 #
plane-surface $-1 20 10 0 0 1 0 0 0 1 forward_v I I I I #
model_id-kcp-attrib $-1 $-1 $-1 $39 1 990663940 50 775028737 4 #
face $81 $82 $83 $9 $-1 $84 forward single #
loop $-1 $-1 $85 $39 #
plane-surface $-1 0 -10 10 0 1 0 0 0 1 forward_v I I I I #
coedge $-1 $86 $87 $88 $89 reversed $40 $-1 #
coedge $-1 $90 $41 $91 $92 forward $32 $-1 #
coedge $-1 $41 $90 $93 $94 reversed $32 $-1 #
coedge $-1 $95 $96 $41 $63 forward $97 $-1 #
edge $-1 $98 -5 $99 15 $62 $100 forward 7 unknown #
model_id-kcp-attrib $-1 $-1 $-1 $43 1 990663940 50 775028738 3 #
face $101 $102 $103 $23 $-1 $104 reversed single #
loop $-1 $-1 $105 $43 #
plane-surface $-1 0 0 -20 0 0 1 1 0 0 forward_v I I I I #
coedge $-1 $106 $107 $108 $109 forward $44 $-1 #
face $-1 $110 $111 $25 $-1 $112 forward single #
loop $-1 $-1 $113 $46 #
plane-surface $-1 -20 20 -20 0 1 0 0 0 1 forward_v I I I I #
coedge $-1 $114 $115 $116 $117 forward $47 $-1 #
face $-1 $118 $119 $27 $-1 $120 forward single #
loop $-1 $-1 $121 $49 #
plane-surface $-1 -30 -10 0 -1 0 0 0 0 1 forward_v I I I I #
coedge $-1 $122 $123 $124 $125 forward $50 $-1 #
face $-1 $126 $127 $29 $-1 $128 forward single #
loop $-1 $-1 $129 $52 #
plane-surface $-1 30 10 0 1 0 0 0 0 -1 forward_v I I I I #
coedge $-1 $130 $131 $132 $133 forward $53 $-1 #
model_id-kcp-attrib $-1 $-1 $-1 $56 1 990663940 50 775028737 5 #
face $134 $135 $136 $9 $-1 $84 forward single #
loop $-1 $-1 $137 $56 #
plane-surface $-1 0 0 0 0 0 1 1 0 0 forward_v I I I I #
coedge $-1 $138 $139 $140 $141 reversed $57 $-1 #
coedge $-1 $142 $59 $143 $144 reversed $40 $-1 #
coedge $-1 $59 $142 $145 $146 forward $40 $-1 #
coedge $-1 $147 $148 $59 $89 forward $149 $-1 #
edge $-1 $150 -15 $151 5 $88 $152 forward 7 unknown #
coedge $-1 $61 $60 $153 $154 reversed $32 $-1 #
coedge $-1 $137 $155 $60 $92 reversed $83 $-1 #
edge $-1 $98 20 $156 30 $60 $157 forward 7 unknown #
coedge $-1 $158 $159 $61 $94 forward $160 $-1 #
edge $161 $99 20 $162 30 $93 $163 forward 7 unknown #
coedge $-1 $164 $62 $159 $165 reversed $97 $-1 #
coedge $-1 $62 $140 $137 $166 forward $97 $-1 #
loop $-1 $-1 $62 $167 #
vertex $-1 $166 $168 #
vertex $-1 $165 $169 #
straight-curve $-1 20 10 5 0 0 1 I I #
model_id-kcp-attrib $-1 $-1 $-1 $65 1 990663940 50 775028738 4 #
face $170 $171 $172 $23 $-1 $173 reversed single #
loop $-1 $-1 $174 $65 #
plane-surface $-1 0 -40 0 0 1 0 0 0 1 forward_v I I I I #
coedge $-1 $175 $176 $177 $178 forward $66 $-1 #
coedge $-1 $179 $68 $180 $181 forward $44 $-1 #
coedge $-1 $68 $179 $182 $183 forward $44 $-1 #
coedge $-1 $184 $185 $68 $109 reversed $186 $-1 #
edge $-1 $187 -40 $188 40 $108 $189 forward 7 unknown #
face $-1 $190 $191 $25 $-1 $192 forward single #
loop $-1 $-1 $193 $69 #
plane-surface $-1 20 20 -20 1 0 0 0 0 -1 forward_v I I I I #
coedge $-1 $194 $195 $196 $197 forward $70 $-1 #
coedge $-1 $198 $72 $195 $199 reversed $47 $-1 #
coedge $-1 $72 $198 $200 $201 forward $47 $-1 #
coedge $-1 $202 $196 $72 $117 reversed $203 $-1 #
edge $-1 $204 -20 $205 20 $72 $206 forward 7 unknown #
face $-1 $207 $208 $27 $-1 $209 forward single #
loop $-1 $-1 $210 $73 #
plane-surface $-1 -30 10 0 0 1 0 0 0 1 forward_v I I I I #
coedge $-1 $211 $212 $213 $214 forward $74 $-1 #
coedge $-1 $215 $76 $212 $216 reversed $50 $-1 #
coedge $-1 $76 $215 $217 $218 forward $50 $-1 #
coedge $-1 $219 $213 $76 $125 reversed $220 $-1 #
edge $-1 $221 7.5 $222 17.5 $76 $223 forward 7 unknown #
face $-1 $224 $225 $29 $-1 $226 forward single #
loop $-1 $-1 $227 $77 #
plane-surface $-1 30 -10 0 0 -1 0 0 0 -1 forward_v I I I I #
coedge $-1 $228 $229 $230 $231 forward $78 $-1 #
coedge $-1 $232 $80 $229 $233 reversed $53 $-1 #
coedge $-1 $80 $232 $234 $235 forward $53 $-1 #
coedge $-1 $236 $230 $80 $133 reversed $237 $-1 #
edge $-1 $238 7.5 $239 17.5 $80 $240 forward 7 unknown #
model_id-kcp-attrib $-1 $-1 $-1 $82 1 990663940 50 775028737 6 #
face $241 $242 $243 $9 $-1 $58 forward single #
loop $-1 $-1 $244 $82 #
coedge $-1 $245 $91 $96 $166 reversed $83 $-1 #
coedge $-1 $246 $85 $247 $248 reversed $57 $-1 #
coedge $-1 $85 $246 $245 $249 forward $57 $-1 #
coedge $-1 $96 $250 $85 $141 forward $97 $-1 #
edge $-1 $251 -15 $252 5 $140 $253 forward 7 unknown #
coedge $-1 $87 $86 $254 $255 forward $40 $-1 #
coedge $-1 $256 $257 $86 $144 forward $160 $-1 #
edge $258 $259 -30 $150 -20 $143 $163 forward 7 unknown #
coedge $-1 $260 $244 $87 $146 reversed $136 $-1 #
edge $-1 $261 -30 $151 -20 $87 $157 forward 7 unknown #
coedge $-1 $262 $88 $244 $263 forward $149 $-1 #
coedge $-1 $88 $264 $256 $265 reversed $149 $-1 #
loop $-1 $-1 $262 $266 #
vertex $-1 $89 $267 #
vertex $-1 $263 $268 #
straight-curve $-1 -20 10 5 0 0 -1 I I #
coedge $-1 $269 $270 $90 $154 forward $271 $-1 #
edge $-1 $162 -10 $156 10 $153 $272 forward 7 unknown #
coedge $-1 $91 $245 $269 $273 reversed $83 $-1 #
vertex $-1 $273 $274 #
straight-curve $-1 0 10 0 1 0 0 I I #
coedge $-1 $247 $93 $270 $275 forward $160 $-1 #
coedge $-1 $93 $276 $95 $165 forward $160 $-1 #
loop $-1 $-1 $277 $278 #
attrib_edge_convexity-kcp-attrib $-1 $279 $-1 $94 1 #
vertex $-1 $94 $280 #
straight-curve $-1 0 10 20 1 0 0 I I #
coedge $-1 $281 $95 $282 $283 forward $97 $-1 #
edge $284 $285 -20 $99 -10 $159 $286 forward 7 unknown #
edge $-1 $252 -10 $98 10 $96 $287 forward 7 unknown #
face $288 $289 $97 $9 $-1 $290 forward single #
point $-1 20 10 0 #
point $-1 20 10 20 #
model_id-kcp-attrib $-1 $-1 $-1 $102 1 990663940 50 775028738 5 #
face $291 $292 $293 $23 $-1 $294 reversed single #
loop $-1 $-1 $295 $102 #
plane-surface $-1 -40 0 0 1 0 0 0 0 -1 forward_v I I I I #
coedge $-1 $296 $182 $297 $298 forward $103 $-1 #
coedge $-1 $299 $105 $296 $300 forward $66 $-1 #
coedge $-1 $105 $299 $301 $302 forward $66 $-1 #
coedge $-1 $185 $184 $105 $178 reversed $186 $-1 #
edge $-1 $303 -40 $304 40 $177 $305 forward 7 unknown #
coedge $-1 $107 $106 $306 $307 forward $44 $-1 #
coedge $-1 $308 $309 $106 $181 reversed $293 $-1 #
edge $-1 $188 -40 $310 40 $180 $311 forward 7 unknown #
coedge $-1 $174 $312 $107 $183 reversed $103 $-1 #
edge $-1 $313 -40 $187 40 $182 $314 forward 7 unknown #
coedge $-1 $177 $108 $312 $315 forward $186 $-1 #
coedge $-1 $108 $177 $308 $316 reversed $186 $-1 #
loop $-1 $-1 $184 $292 #
vertex $-1 $109 $317 #
vertex $-1 $109 $318 #
straight-curve $-1 40 0 20 0 1 0 I I #
face $-1 $319 $203 $25 $-1 $320 forward single #
loop $-1 $-1 $321 $110 #
plane-surface $-1 20 -20 -20 0 -1 0 0 0 -1 forward_v I I I I #
coedge $-1 $322 $323 $324 $325 forward $111 $-1 #
coedge $-1 $326 $113 $323 $327 reversed $70 $-1 #
coedge $-1 $113 $326 $114 $199 forward $70 $-1 #
coedge $-1 $116 $324 $113 $197 reversed $203 $-1 #
edge $-1 $205 -20 $328 20 $113 $329 forward 7 unknown #
coedge $-1 $115 $114 $330 $331 forward $47 $-1 #
edge $-1 $332 0 $205 40 $195 $333 forward 7 unknown #
coedge $-1 $334 $321 $115 $201 reversed $191 $-1 #
edge $-1 $335 0 $204 40 $115 $336 forward 7 unknown #
coedge $-1 $324 $116 $321 $337 reversed $203 $-1 #
loop $-1 $-1 $116 $190 #
vertex $-1 $201 $338 #
vertex $-1 $199 $339 #
straight-curve $-1 -20 0 20 0 1 0 I I #
face $-1 $340 $220 $27 $-1 $341 forward single #
loop $-1 $-1 $342 $118 #
plane-surface $-1 -20 10 0 1 0 0 0 0 -1 forward_v I I I I #
coedge $-1 $343 $344 $345 $346 forward $119 $-1 #
coedge $-1 $347 $121 $344 $348 reversed $74 $-1 #
coedge $-1 $121 $347 $122 $216 forward $74 $-1 #
coedge $-1 $124 $345 $121 $214 reversed $220 $-1 #
edge $-1 $222 -10 $349 10 $121 $350 forward 7 unknown #
coedge $-1 $123 $122 $351 $352 reversed $50 $-1 #
edge $353 $354 0 $222 20 $212 $355 forward 7 unknown #
coedge $-1 $356 $342 $123 $218 reversed $208 $-1 #
edge $-1 $357 0 $221 20 $123 $358 forward 7 unknown #
coedge $-1 $345 $124 $342 $359 reversed $220 $-1 #
loop $-1 $-1 $124 $207 #
vertex $-1 $218 $360 #
vertex $-1 $216 $361 #
straight-curve $-1 -12.5 -10 20 -1 0 0 I I #
face $-1 $362 $237 $29 $-1 $363 forward single #
loop $-1 $-1 $364 $126 #
plane-surface $-1 20 -10 0 -1 0 0 0 0 1 forward_v I I I I #
coedge $-1 $365 $366 $367 $368 forward $127 $-1 #
coedge $-1 $369 $129 $366 $370 reversed $78 $-1 #
coedge $-1 $129 $369 $130 $233 forward $78 $-1 #
coedge $-1 $132 $367 $129 $231 reversed $237 $-1 #
edge $-1 $239 -10 $371 10 $129 $372 forward 7 unknown #
coedge $-1 $131 $130 $373 $374 reversed $53 $-1 #
edge $375 $376 0 $239 20 $229 $377 forward 7 unknown #
coedge $-1 $378 $364 $131 $235 reversed $225 $-1 #
edge $-1 $379 0 $238 20 $131 $380 forward 7 unknown #
coedge $-1 $367 $132 $364 $381 reversed $237 $-1 #
loop $-1 $-1 $132 $224 #
vertex $-1 $235 $382 #
vertex $-1 $233 $383 #
straight-curve $-1 12.5 10 20 1 0 0 I I #
model_id-kcp-attrib $-1 $-1 $-1 $135 1 990663940 50 775028737 7 #
face $384 $385 $386 $9 $-1 $387 forward single #
loop $-1 $-1 $388 $135 #
coedge $-1 $145 $389 $147 $263 reversed $136 $-1 #
coedge $-1 $155 $137 $139 $249 reversed $83 $-1 #
coedge $-1 $139 $138 $390 $391 forward $57 $-1 #
coedge $-1 $392 $158 $138 $248 forward $160 $-1 #
edge $393 $394 -30 $251 -20 $247 $395 forward 7 unknown #
edge $-1 $396 -30 $252 -20 $139 $397 forward 7 unknown #
coedge $-1 $140 $398 $392 $399 reversed $97 $-1 #
vertex $-1 $141 $400 #
vertex $-1 $166 $401 #
straight-curve $-1 20 -10 5 0 0 -1 I I #
coedge $-1 $402 $403 $142 $255 reversed $386 $-1 #
edge $-1 $259 -10 $261 10 $142 $404 forward 7 unknown #
coedge $-1 $276 $143 $148 $265 forward $160 $-1 #
coedge $-1 $143 $277 $402 $405 forward $160 $-1 #
attrib_edge_convexity-kcp-attrib $-1 $406 $-1 $144 1 #
vertex $-1 $405 $407 #
coedge $-1 $389 $145 $403 $408 reversed $136 $-1 #
vertex $-1 $146 $409 #
coedge $-1 $410 $147 $388 $411 forward $149 $-1 #
edge $-1 $151 -10 $412 10 $147 $413 forward 7 unknown #
coedge $-1 $148 $414 $415 $416 reversed $149 $-1 #
edge $417 $150 10 $418 20 $256 $419 forward 7 unknown #
face $420 $421 $149 $9 $-1 $422 forward single #
point $-1 -20 10 20 #
point $-1 -20 10 0 #
coedge $-1 $390 $153 $155 $273 forward $271 $-1 #
coedge $-1 $153 $390 $158 $275 reversed $271 $-1 #
loop $-1 $-1 $390 $385 #
straight-curve $-1 30 10 10 0 0 -1 I I #
edge $-1 $156 -10 $396 10 $269 $423 forward 7 unknown #
point $-1 30 10 0 #
edge $424 $162 -10 $394 10 $158 $425 forward 7 unknown #
coedge $-1 $159 $256 $426 $427 forward $160 $-1 #
coedge $-1 $257 $428 $429 $430 forward $160 $-1 #
face $431 $432 $433 $9 $-1 $434 forward single #
convexity-sys-attrib $-1 $-1 $161 $94 #
point $-1 30 10 20 #
coedge $-1 $398 $164 $435 $436 reversed $97 $-1 #
coedge $-1 $426 $437 $164 $283 reversed $438 $-1 #
edge $-1 $285 -20 $439 20 $164 $440 forward 7 unknown #
attrib_edge_convexity-kcp-attrib $-1 $441 $-1 $165 1 #
vertex $-1 $427 $442 #
straight-curve $-1 20 0 20 0 -1 0 I I #
straight-curve $-1 20 0 0 0 1 0 I I #
model_id-kcp-attrib $-1 $-1 $-1 $167 1 990663940 50 775028737 14 #
face $443 $444 $445 $9 $-1 $446 reversed single #
plane-surface $-1 20 0 0 -1 0 0 0 0 1 forward_v I I I I #
model_id-kcp-attrib $-1 $-1 $-1 $171 1 990663940 50 775028738 6 #
face $447 $-1 $186 $23 $-1 $448 reversed single #
loop $-1 $-1 $308 $171 #
plane-surface $-1 0 40 0 0 -1 0 0 0 -1 forward_v I I I I #
coedge $-1 $449 $306 $309 $450 forward $172 $-1 #
coedge $-1 $312 $174 $175 $300 reversed $103 $-1 #
coedge $-1 $306 $449 $174 $298 reversed $172 $-1 #
edge $-1 $313 -20 $451 20 $297 $452 forward 7 unknown #
coedge $-1 $176 $175 $449 $453 forward $66 $-1 #
edge $-1 $304 -40 $451 40 $296 $454 forward 7 unknown #
coedge $-1 $309 $308 $176 $302 reversed $293 $-1 #
edge $-1 $455 -40 $303 40 $301 $456 forward 7 unknown #
vertex $-1 $178 $457 #
vertex $-1 $315 $458 #
straight-curve $-1 40 0 -20 0 -1 0 I I #
coedge $-1 $295 $297 $179 $307 reversed $172 $-1 #
edge $-1 $310 -40 $313 40 $306 $459 forward 7 unknown #
coedge $-1 $301 $180 $185 $316 forward $293 $-1 #
coedge $-1 $180 $301 $295 $450 reversed $293 $-1 #
vertex $-1 $181 $460 #
straight-curve $-1 0 40 20 -1 0 0 I I #
coedge $-1 $182 $296 $184 $315 reversed $103 $-1 #
vertex $-1 $307 $461 #
straight-curve $-1 0 -40 20 1 0 0 I I #
edge $-1 $187 -20 $304 20 $184 $462 forward 7 unknown #
edge $-1 $188 -20 $303 20 $185 $463 forward 7 unknown #
point $-1 40 -40 20 #
point $-1 40 40 20 #
face $-1 $-1 $464 $25 $-1 $465 reversed single #
plane-surface $-1 0 0 20 0 0 1 1 0 0 forward_v I I I I #
coedge $-1 $200 $466 $202 $337 forward $191 $-1 #
coedge $-1 $467 $193 $466 $468 reversed $111 $-1 #
coedge $-1 $193 $467 $194 $327 forward $111 $-1 #
coedge $-1 $196 $202 $193 $325 reversed $203 $-1 #
edge $-1 $328 -20 $469 20 $193 $470 forward 7 unknown #
coedge $-1 $195 $194 $471 $472 forward $70 $-1 #
edge $-1 $473 0 $328 40 $323 $474 forward 7 unknown #
vertex $-1 $327 $475 #
straight-curve $-1 0 20 20 1 0 0 I I #
coedge $-1 $471 $476 $198 $331 reversed $464 $-1 #
edge $-1 $332 -20 $335 20 $198 $477 forward 7 unknown #
vertex $-1 $472 $478 #
straight-curve $-1 -20 20 -20 0 0 1 I I #
coedge $-1 $466 $200 $476 $479 forward $191 $-1 #
vertex $-1 $479 $480 #
straight-curve $-1 -20 -20 -20 0 0 1 I I #
edge $-1 $469 -20 $204 20 $321 $481 forward 7 unknown #
point $-1 -20 -20 20 #
point $-1 -20 20 20 #
face $-1 $-1 $482 $27 $-1 $483 reversed single #
plane-surface $-1 -25 0 20 0 0 1 1 0 0 forward_v I I I I #
coedge $-1 $217 $484 $219 $359 forward $208 $-1 #
coedge $-1 $485 $210 $484 $486 reversed $119 $-1 #
coedge $-1 $210 $485 $211 $348 forward $119 $-1 #
coedge $-1 $213 $219 $210 $346 reversed $220 $-1 #
edge $-1 $349 -17.5 $487 -7.5 $210 $488 forward 7 unknown #
coedge $-1 $212 $211 $489 $490 reversed $74 $-1 #
edge $491 $492 0 $349 20 $344 $493 forward 7 unknown #
vertex $-1 $348 $494 #
straight-curve $-1 -30 0 20 0 1 0 I I #
coedge $-1 $489 $495 $215 $352 forward $482 $-1 #
edge $496 $357 7.5 $354 17.5 $215 $497 forward 7 unknown #
convexity-sys-attrib $-1 $-1 $-1 $216 #
vertex $-1 $352 $498 #
straight-curve $-1 -30 -10 0 0 0 1 I I #
coedge $-1 $484 $217 $495 $499 reversed $208 $-1 #
vertex $-1 $499 $500 #
straight-curve $-1 -20 -10 0 0 0 1 I I #
edge $-1 $487 -20 $221 0 $342 $501 forward 7 unknown #
point $-1 -20 -10 20 #
point $-1 -30 -10 20 #
face $-1 $-1 $502 $29 $-1 $503 reversed single #
plane-surface $-1 25 0 20 0 0 1 1 0 0 forward_v I I I I #
coedge $-1 $234 $504 $236 $381 forward $225 $-1 #
coedge $-1 $505 $227 $504 $506 reversed $127 $-1 #
coedge $-1 $227 $505 $228 $370 forward $127 $-1 #
coedge $-1 $230 $236 $227 $368 reversed $237 $-1 #
edge $-1 $371 -17.5 $507 -7.5 $227 $508 forward 7 unknown #
coedge $-1 $229 $228 $509 $510 reversed $78 $-1 #
edge $511 $512 0 $371 20 $366 $513 forward 7 unknown #
vertex $-1 $370 $514 #
straight-curve $-1 30 0 20 0 -1 0 I I #
coedge $-1 $509 $515 $232 $374 forward $502 $-1 #
edge $516 $379 7.5 $376 17.5 $232 $517 forward 7 unknown #
convexity-sys-attrib $-1 $-1 $-1 $233 #
vertex $-1 $374 $518 #
straight-curve $-1 30 10 0 0 0 1 I I #
coedge $-1 $504 $234 $515 $519 reversed $225 $-1 #
vertex $-1 $519 $520 #
straight-curve $-1 20 10 0 0 0 1 I I #
edge $-1 $507 -20 $238 0 $364 $521 forward 7 unknown #
point $-1 20 10 20 #
point $-1 30 10 20 #
model_id-kcp-attrib $-1 $-1 $-1 $242 1 990663940 50 775028737 8 #
face $522 $278 $271 $9 $-1 $523 forward single #
loop $-1 $-1 $254 $242 #
plane-surface $-1 -30 0 10 1 0 0 0 0 -1 forward_v I I I I #
coedge $-1 $524 $429 $262 $411 reversed $243 $-1 #
coedge $-1 $244 $260 $524 $525 reversed $136 $-1 #
coedge $-1 $270 $269 $246 $391 reversed $271 $-1 #
edge $-1 $394 -10 $396 10 $390 $526 forward 7 unknown #
coedge $-1 $527 $247 $250 $399 forward $160 $-1 #
attrib_edge_convexity-kcp-attrib $-1 $528 $-1 $248 1 #
vertex $-1 $248 $529 #
straight-curve $-1 0 -10 20 -1 0 0 I I #
vertex $-1 $391 $530 #
straight-curve $-1 0 -10 0 -1 0 0 I I #
coedge $-1 $250 $281 $531 $532 reversed $97 $-1 #
edge $533 $251 10 $534 20 $392 $286 forward 7 unknown #
point $-1 20 -10 20 #
point $-1 20 -10 0 #
coedge $-1 $535 $254 $257 $405 reversed $386 $-1 #
coedge $-1 $254 $535 $260 $408 forward $386 $-1 #
straight-curve $-1 -30 10 10 0 0 -1 I I #
edge $536 $537 -10 $259 10 $257 $538 forward 7 unknown #
convexity-sys-attrib $-1 $-1 $258 $144 #
point $-1 -30 10 20 #
edge $-1 $539 -10 $261 10 $403 $540 forward 7 unknown #
point $-1 -30 10 0 #
coedge $-1 $541 $262 $428 $542 reversed $149 $-1 #
edge $-1 $412 -5 $543 15 $262 $544 forward 7 unknown #
vertex $-1 $263 $545 #
straight-curve $-1 -20 0 0 0 -1 0 I I #
coedge $-1 $264 $541 $546 $547 reversed $149 $-1 #
coedge $-1 $437 $426 $264 $416 forward $438 $-1 #
edge $-1 $418 -20 $548 20 $415 $549 forward 7 unknown #
attrib_edge_convexity-kcp-attrib $-1 $550 $-1 $265 1 #
vertex $-1 $265 $551 #
straight-curve $-1 -20 0 20 0 1 0 I I #
model_id-kcp-attrib $-1 $-1 $-1 $266 1 990663940 50 775028737 12 #
face $552 $167 $438 $9 $-1 $553 forward single #
plane-surface $-1 -20 0 0 1 0 0 0 0 -1 forward_v I I I I #
straight-curve $-1 30 0 0 0 -1 0 I I #
attrib_edge_convexity-kcp-attrib $-1 $554 $-1 $275 1 #
straight-curve $-1 30 0 20 0 -1 0 I I #
coedge $-1 $415 $282 $276 $427 reversed $438 $-1 #
edge $555 $418 -20 $285 20 $276 $556 forward 7 unknown #
coedge $-1 $277 $527 $410 $542 forward $160 $-1 #
coedge $-1 $388 $557 $277 $430 reversed $243 $-1 #
edge $558 $543 20 $537 30 $277 $395 forward 7 unknown #
model_id-kcp-attrib $-1 $-1 $-1 $278 1 990663940 50 775028737 10 #
face $559 $266 $560 $9 $-1 $561 forward single #
loop $-1 $160 $562 $278 #
plane-surface $-1 0 0 20 0 0 1 1 0 0 forward_v I I I I #
coedge $-1 $563 $564 $281 $436 forward $445 $-1 #
edge $-1 $565 -20 $439 20 $435 $566 forward 7 unknown #
coedge $-1 $282 $415 $563 $567 reversed $438 $-1 #
loop $-1 $-1 $282 $421 #
vertex $-1 $567 $568 #
straight-curve $-1 20 20 0 0 0 -1 I I #
convexity-sys-attrib $-1 $-1 $284 $165 #
point $-1 20 20 20 #
model_id-kcp-attrib $-1 $-1 $-1 $289 1 990663940 50 775028737 15 #
face $569 $570 $571 $9 $-1 $572 reversed single #
loop $-1 $573 $564 $289 #
plane-surface $-1 0 0 -20 0 0 1 1 0 0 forward_v I I I I #
model_id-kcp-attrib $-1 $-1 $-1 $292 1 990663940 50 775028738 7 #
plane-surface $-1 40 0 0 -1 0 0 0 0 1 forward_v I I I I #
coedge $-1 $297 $295 $299 $453 reversed $172 $-1 #
edge $-1 $310 -20 $455 20 $309 $574 forward 7 unknown #
vertex $-1 $453 $575 #
straight-curve $-1 -40 -40 0 0 0 -1 I I #
edge $-1 $451 -40 $455 40 $449 $576 forward 7 unknown #
straight-curve $-1 0 -40 -20 -1 0 0 I I #
vertex $-1 $302 $577 #
straight-curve $-1 0 40 -20 1 0 0 I I #
point $-1 40 40 -20 #
point $-1 40 -40 -20 #
straight-curve $-1 -40 0 20 0 -1 0 I I #
point $-1 -40 40 20 #
point $-1 -40 -40 20 #
straight-curve $-1 40 -40 0 0 0 -1 I I #
straight-curve $-1 40 40 0 0 0 -1 I I #
loop $-1 $-1 $476 $319 #
plane-surface $-1 0 0 -20 0 0 1 1 0 0 forward_v I I I I #
coedge $-1 $321 $334 $322 $468 forward $191 $-1 #
coedge $-1 $323 $322 $578 $579 forward $111 $-1 #
edge $-1 $580 0 $469 40 $466 $581 forward 7 unknown #
vertex $-1 $468 $582 #
straight-curve $-1 20 0 20 0 -1 0 I I #
coedge $-1 $578 $330 $326 $472 reversed $464 $-1 #
edge $-1 $473 -20 $332 20 $326 $583 forward 7 unknown #
vertex $-1 $579 $584 #
straight-curve $-1 20 20 -20 0 0 1 I I #
point $-1 20 20 20 #
coedge $-1 $330 $578 $334 $479 reversed $464 $-1 #
straight-curve $-1 -20 0 -20 0 -1 0 I I #
point $-1 -20 20 -20 #
edge $-1 $335 -20 $580 20 $334 $585 forward 7 unknown #
point $-1 -20 -20 -20 #
straight-curve $-1 0 -20 20 -1 0 0 I I #
loop $-1 $-1 $495 $340 #
plane-surface $-1 -25 0 0 0 0 1 1 0 0 forward_v I I I I #
coedge $-1 $342 $356 $343 $486 forward $208 $-1 #
coedge $-1 $344 $343 $586 $587 reversed $119 $-1 #
edge $-1 $588 0 $487 20 $484 $589 forward 7 unknown #
vertex $-1 $486 $590 #
straight-curve $-1 -12.5 10 20 1 0 0 I I #
coedge $-1 $586 $351 $347 $490 forward $482 $-1 #
edge $591 $354 -10 $492 10 $347 $592 forward 7 unknown #
convexity-sys-attrib $-1 $-1 $-1 $348 #
vertex $-1 $490 $593 #
straight-curve $-1 -30 10 0 0 0 1 I I #
point $-1 -30 10 20 #
coedge $-1 $351 $586 $356 $499 forward $482 $-1 #
convexity-sys-attrib $-1 $-1 $-1 $352 #
straight-curve $-1 -12.5 -10 0 -1 0 0 I I #
point $-1 -30 -10 0 #
edge $594 $588 -20 $357 0 $356 $595 forward 7 unknown #
point $-1 -20 -10 0 #
straight-curve $-1 -20 -10 20 0 -1 0 I I #
loop $-1 $-1 $515 $362 #
plane-surface $-1 25 0 0 0 0 1 1 0 0 forward_v I I I I #
coedge $-1 $364 $378 $365 $506 forward $225 $-1 #
coedge $-1 $366 $365 $596 $597 reversed $127 $-1 #
edge $-1 $598 0 $507 20 $504 $599 forward 7 unknown #
vertex $-1 $506 $600 #
straight-curve $-1 12.5 -10 20 -1 0 0 I I #
coedge $-1 $596 $373 $369 $510 forward $502 $-1 #
edge $601 $376 -10 $512 10 $369 $602 forward 7 unknown #
convexity-sys-attrib $-1 $-1 $-1 $370 #
vertex $-1 $510 $603 #
straight-curve $-1 30 -10 0 0 0 1 I I #
point $-1 30 -10 20 #
coedge $-1 $373 $596 $378 $519 forward $502 $-1 #
convexity-sys-attrib $-1 $-1 $-1 $374 #
straight-curve $-1 12.5 10 0 1 0 0 I I #
point $-1 30 10 0 #
edge $604 $598 -20 $379 0 $378 $605 forward 7 unknown #
point $-1 20 10 0 #
straight-curve $-1 20 10 20 0 1 0 I I #
model_id-kcp-attrib $-1 $-1 $-1 $385 1 990663940 50 775028737 9 #
plane-surface $-1 30 0 10 -1 0 0 0 0 1 forward_v I I I I #
coedge $-1 $557 $388 $389 $525 forward $243 $-1 #
edge $-1 $412 20 $539 30 $524 $397 forward 7 unknown #
straight-curve $-1 30 -10 10 0 0 -1 I I #
coedge $-1 $428 $392 $606 $607 forward $160 $-1 #
convexity-sys-attrib $-1 $-1 $393 $248 #
point $-1 30 -10 20 #
point $-1 30 -10 0 #
coedge $-1 $608 $606 $398 $532 forward $560 $-1 #
edge $-1 $534 -20 $565 20 $398 $609 forward 7 unknown #
attrib_edge_convexity-kcp-attrib $-1 $610 $-1 $399 1 #
vertex $-1 $607 $611 #
coedge $-1 $403 $402 $557 $612 forward $386 $-1 #
attrib_edge_convexity-kcp-attrib $-1 $613 $-1 $405 1 #
vertex $-1 $430 $614 #
straight-curve $-1 -30 0 20 0 1 0 I I #
vertex $-1 $408 $615 #
straight-curve $-1 -30 0 0 0 1 0 I I #
coedge $-1 $414 $410 $616 $617 forward $149 $-1 #
edge $618 $619 -20 $543 -10 $428 $419 forward 7 unknown #
vertex $-1 $542 $620 #
straight-curve $-1 -20 -10 5 0 0 1 I I #
point $-1 -20 -10 0 #
coedge $-1 $564 $563 $414 $547 forward $445 $-1 #
edge $-1 $548 -20 $621 20 $546 $622 forward 7 unknown #
vertex $-1 $547 $623 #
straight-curve $-1 -20 20 0 0 0 -1 I I #
convexity-sys-attrib $-1 $-1 $417 $265 #
point $-1 -20 20 20 #
model_id-kcp-attrib $-1 $-1 $-1 $421 1 990663940 50 775028737 13 #
plane-surface $-1 0 20 0 0 -1 0 0 0 -1 forward_v I I I I #
convexity-sys-attrib $-1 $-1 $424 $275 #
attrib_edge_convexity-kcp-attrib $-1 $624 $-1 $427 1 #
straight-curve $-1 0 20 20 1 0 0 I I #
coedge $-1 $429 $524 $535 $612 reversed $243 $-1 #
attrib_edge_convexity-kcp-attrib $-1 $625 $-1 $430 1 #
model_id-kcp-attrib $-1 $-1 $-1 $432 1 990663940 50 775028737 11 #
loop $-1 $-1 $616 $432 #
plane-surface $-1 0 -20 0 0 1 0 0 0 1 forward_v I I I I #
coedge $-1 $626 $627 $628 $629 forward $433 $-1 #
coedge $-1 $546 $435 $437 $567 forward $445 $-1 #
coedge $-1 $435 $546 $608 $630 forward $445 $-1 #
vertex $-1 $630 $631 #
straight-curve $-1 20 0 -20 0 1 0 I I #
edge $-1 $439 -20 $548 20 $563 $632 forward 7 unknown #
point $-1 20 20 -20 #
model_id-kcp-attrib $-1 $-1 $-1 $444 1 990663940 50 775028737 16 #
face $633 $634 $635 $9 $-1 $636 reversed single #
loop $-1 $-1 $637 $444 #
plane-surface $-1 0 -40 0 0 1 0 0 0 1 forward_v I I I I #
loop $-1 $-1 $638 $289 #
straight-curve $-1 -40 40 0 0 0 -1 I I #
point $-1 -40 -40 -20 #
straight-curve $-1 -40 0 -20 0 1 0 I I #
point $-1 -40 40 -20 #
coedge $-1 $476 $471 $467 $579 reversed $464 $-1 #
edge $-1 $580 -20 $473 20 $467 $639 forward 7 unknown #
vertex $-1 $479 $640 #
straight-curve $-1 20 -20 -20 0 0 1 I I #
point $-1 20 -20 20 #
straight-curve $-1 0 20 -20 -1 0 0 I I #
point $-1 20 20 -20 #
straight-curve $-1 0 -20 -20 1 0 0 I I #
coedge $-1 $495 $489 $485 $587 forward $482 $-1 #
edge $641 $492 -17.5 $588 -7.5 $485 $642 forward 7 unknown #
vertex $-1 $499 $643 #
straight-curve $-1 -20 10 0 0 0 1 I I #
point $-1 -20 10 20 #
convexity-sys-attrib $-1 $-1 $-1 $490 #
straight-curve $-1 -30 0 0 0 1 0 I I #
point $-1 -30 10 0 #
convexity-sys-attrib $-1 $-1 $-1 $499 #
straight-curve $-1 -20 -10 0 0 -1 0 I I #
coedge $-1 $515 $509 $505 $597 forward $502 $-1 #
edge $644 $512 -17.5 $598 -7.5 $505 $645 forward 7 unknown #
vertex $-1 $519 $646 #
straight-curve $-1 20 -10 0 0 0 1 I I #
point $-1 20 -10 20 #
convexity-sys-attrib $-1 $-1 $-1 $510 #
straight-curve $-1 30 0 0 0 -1 0 I I #
point $-1 30 -10 0 #
convexity-sys-attrib $-1 $-1 $-1 $519 #
straight-curve $-1 20 10 0 0 1 0 I I #
coedge $-1 $531 $616 $527 $607 reversed $560 $-1 #
edge $647 $534 -20 $619 20 $527 $648 forward 7 unknown #
coedge $-1 $616 $531 $564 $630 reversed $560 $-1 #
straight-curve $-1 20 -20 0 0 0 -1 I I #
convexity-sys-attrib $-1 $-1 $533 $399 #
point $-1 20 -20 20 #
edge $-1 $537 -10 $539 10 $535 $649 forward 7 unknown #
convexity-sys-attrib $-1 $-1 $536 $405 #
point $-1 -30 -10 20 #
point $-1 -30 -10 0 #
coedge $-1 $606 $608 $541 $617 reversed $560 $-1 #
edge $-1 $619 -20 $621 20 $541 $650 forward 7 unknown #
attrib_edge_convexity-kcp-attrib $-1 $651 $-1 $542 1 #
vertex $-1 $607 $652 #
point $-1 -20 -10 20 #
vertex $-1 $630 $653 #
straight-curve $-1 -20 0 -20 0 -1 0 I I #
point $-1 -20 20 -20 #
convexity-sys-attrib $-1 $-1 $555 $427 #
convexity-sys-attrib $-1 $-1 $558 $430 #
coedge $-1 $654 $562 $655 $656 forward $433 $-1 #
coedge $-1 $562 $654 $657 $658 forward $433 $-1 #
coedge $-1 $659 $660 $562 $629 reversed $661 $-1 #
edge $662 $663 -40 $664 40 $628 $665 forward 7 unknown #
edge $-1 $621 -20 $565 20 $564 $666 forward 7 unknown #
point $-1 20 -20 -20 #
straight-curve $-1 0 20 -20 -1 0 0 I I #
model_id-kcp-attrib $-1 $-1 $-1 $570 1 990663940 50 775028737 17 #
face $667 $668 $669 $9 $-1 $670 reversed single #
loop $-1 $-1 $671 $570 #
plane-surface $-1 -40 0 0 1 0 0 0 0 -1 forward_v I I I I #
coedge $-1 $672 $657 $673 $674 forward $571 $-1 #
coedge $-1 $675 $676 $677 $678 forward $573 $-1 #
straight-curve $-1 20 0 -20 0 1 0 I I #
point $-1 20 -20 -20 #
convexity-sys-attrib $-1 $-1 $-1 $587 #
straight-curve $-1 -12.5 10 0 1 0 0 I I #
point $-1 -20 10 0 #
convexity-sys-attrib $-1 $-1 $-1 $597 #
straight-curve $-1 12.5 -10 0 -1 0 0 I I #
point $-1 20 -10 0 #
attrib_edge_convexity-kcp-attrib $-1 $679 $-1 $607 1 #
straight-curve $-1 0 -20 20 -1 0 0 I I #
straight-curve $-1 -30 -10 10 0 0 -1 I I #
straight-curve $-1 -20 -20 0 0 0 -1 I I #
convexity-sys-attrib $-1 $-1 $618 $542 #
point $-1 -20 -20 20 #
point $-1 -20 -20 -20 #
coedge $-1 $627 $626 $680 $681 forward $433 $-1 #
coedge $-1 $682 $683 $626 $656 reversed $669 $-1 #
edge $684 $664 -40 $685 40 $655 $686 forward 7 unknown #
coedge $-1 $637 $687 $627 $658 reversed $571 $-1 #
edge $688 $689 -40 $663 40 $657 $690 forward 7 unknown #
coedge $-1 $677 $628 $687 $691 forward $661 $-1 #
coedge $-1 $628 $677 $682 $692 reversed $661 $-1 #
loop $-1 $-1 $659 $668 #
attrib_edge_convexity-kcp-attrib $-1 $693 $-1 $629 1 #
vertex $-1 $629 $694 #
vertex $-1 $629 $695 #
straight-curve $-1 40 0 20 0 1 0 I I #
straight-curve $-1 0 -20 -20 1 0 0 I I #
model_id-kcp-attrib $-1 $-1 $-1 $634 1 990663940 50 775028737 18 #
face $696 $-1 $661 $9 $-1 $697 reversed single #
loop $-1 $-1 $682 $634 #
plane-surface $-1 0 40 0 0 -1 0 0 0 -1 forward_v I I I I #
coedge $-1 $698 $680 $683 $699 forward $635 $-1 #
coedge $-1 $687 $637 $675 $700 reversed $571 $-1 #
coedge $-1 $680 $698 $637 $674 reversed $635 $-1 #
edge $701 $689 -20 $702 20 $673 $703 forward 7 unknown #
coedge $-1 $704 $638 $672 $700 forward $573 $-1 #
coedge $-1 $638 $704 $705 $706 forward $573 $-1 #
coedge $-1 $660 $659 $638 $678 reversed $661 $-1 #
edge $-1 $707 -40 $708 40 $677 $709 forward 7 unknown #
convexity-sys-attrib $-1 $-1 $647 $607 #
coedge $-1 $671 $673 $654 $681 reversed $635 $-1 #
edge $710 $685 -40 $689 40 $680 $711 forward 7 unknown #
coedge $-1 $705 $655 $660 $692 forward $669 $-1 #
coedge $-1 $655 $705 $671 $699 reversed $669 $-1 #
attrib_edge_convexity-kcp-attrib $-1 $712 $-1 $656 1 #
vertex $-1 $656 $713 #
straight-curve $-1 0 40 20 -1 0 0 I I #
coedge $-1 $657 $672 $659 $691 reversed $571 $-1 #
attrib_edge_convexity-kcp-attrib $-1 $714 $-1 $658 1 #
vertex $-1 $681 $715 #
straight-curve $-1 0 -40 20 1 0 0 I I #
edge $716 $663 -20 $708 20 $659 $717 forward 7 unknown #
edge $-1 $664 -20 $707 20 $660 $718 forward 7 unknown #
convexity-sys-attrib $-1 $-1 $662 $629 #
point $-1 40 -40 20 #
point $-1 40 40 20 #
model_id-kcp-attrib $-1 $-1 $-1 $668 1 990663940 50 775028737 19 #
plane-surface $-1 40 0 0 -1 0 0 0 0 1 forward_v I I I I #
coedge $-1 $673 $671 $704 $719 reversed $635 $-1 #
edge $720 $685 -20 $721 20 $683 $722 forward 7 unknown #
edge $723 $708 -40 $702 40 $672 $724 forward 7 unknown #
attrib_edge_convexity-kcp-attrib $-1 $725 $-1 $674 1 #
vertex $-1 $719 $726 #
straight-curve $-1 -40 -40 0 0 0 -1 I I #
coedge $-1 $676 $675 $698 $719 forward $573 $-1 #
coedge $-1 $683 $682 $676 $706 reversed $669 $-1 #
edge $-1 $721 -40 $707 40 $705 $727 forward 7 unknown #
vertex $-1 $678 $728 #
vertex $-1 $691 $729 #
straight-curve $-1 40 0 -20 0 -1 0 I I #
attrib_edge_convexity-kcp-attrib $-1 $730 $-1 $681 1 #
straight-curve $-1 -40 0 20 0 -1 0 I I #
convexity-sys-attrib $-1 $-1 $684 $656 #
point $-1 -40 40 20 #
convexity-sys-attrib $-1 $-1 $688 $658 #
point $-1 -40 -40 20 #
attrib_edge_convexity-kcp-attrib $-1 $731 $-1 $691 1 #
straight-curve $-1 40 -40 0 0 0 -1 I I #
straight-curve $-1 40 40 0 0 0 -1 I I #
edge $732 $702 -40 $721 40 $698 $733 forward 7 unknown #
attrib_edge_convexity-kcp-attrib $-1 $734 $-1 $699 1 #
vertex $-1 $706 $735 #
straight-curve $-1 -40 40 0 0 0 -1 I I #
attrib_edge_convexity-kcp-attrib $-1 $736 $-1 $700 1 #
straight-curve $-1 0 -40 -20 -1 0 0 I I #
convexity-sys-attrib $-1 $-1 $701 $674 #
point $-1 -40 -40 -20 #
straight-curve $-1 0 40 -20 1 0 0 I I #
point $-1 40 40 -20 #
point $-1 40 -40 -20 #
convexity-sys-attrib $-1 $-1 $710 $681 #
convexity-sys-attrib $-1 $-1 $716 $691 #
attrib_edge_convexity-kcp-attrib $-1 $737 $-1 $719 1 #
straight-curve $-1 -40 0 -20 0 1 0 I I #
convexity-sys-attrib $-1 $-1 $720 $699 #
point $-1 -40 40 -20 #
convexity-sys-attrib $-1 $-1 $723 $700 #
convexity-sys-attrib $-1 $-1 $732 $719 #
End-of-ACIS-data 