600 0 2 0           
24 FBMach with ACIS - 6.0.3 13 ACIS 6.0.3 NT 24 Wed May 23 21:06:18 2001 
1 9.9999999999999995e-007 1e-010 
body $2 $3 $-1 $4 #
bdycol-kcp $-1 1 1 $5 #
model_id-kcp-attrib $-1 $-1 $-1 $0 1 990666378 50 103940097 1 #
lump $-1 $-1 $6 $0 #
transform $-1 1 0 0 0 1 0 0 0 1 0 0 0 1 no_rotate no_reflect no_shear #
body $7 $8 $-1 $9 #
shell $-1 $-1 $-1 $10 $-1 $3 #
model_id-kcp-attrib $-1 $-1 $-1 $5 1 990666378 50 103940098 1 #
lump $-1 $-1 $11 $5 #
transform $-1 1 0 0 0 1 0 0 0 1 0 0 0 1 no_rotate no_reflect no_shear #
face $12 $13 $14 $6 $-1 $15 reversed single #
shell $-1 $-1 $-1 $16 $-1 $8 #
model_id-kcp-attrib $-1 $17 $-1 $10 1 990666378 50 103940097 2 #
face $18 $19 $20 $6 $-1 $21 reversed single #
loop $22 $-1 $23 $10 #
plane-surface $24 6.9840895334736501 17.5 -20 0.96420538332532324 -0.26515651748819308 0 0 0 -1 forward_v I I I I #
face $25 $26 $27 $11 $-1 $28 forward single #
face_name-twe-attrib $-1 $-1 $12 $10 1 #
model_id-kcp-attrib $-1 $29 $-1 $13 1 990666378 50 103940097 3 #
face $30 $31 $32 $6 $-1 $33 forward single #
loop $34 $-1 $35 $13 #
plane-surface $36 0 17.5 0 0 -1 0 0 0 -1 forward_v I I I I #
loop_type-twe-attrib $-1 $-1 $-1 $14 0 #
coedge $-1 $37 $38 $39 $40 reversed $14 $-1 #
surf-twe-attrib $-1 $-1 $-1 $15 4 #
model_id-kcp-attrib $-1 $-1 $-1 $16 1 990666378 50 103940098 3 #
face $41 $42 $43 $11 $-1 $44 reversed single #
loop $-1 $-1 $45 $16 #
plane-surface $-1 0 0 20 0 0 1 1 0 0 forward_v I I I I #
face_name-twe-attrib $-1 $-1 $18 $13 2 #
model_id-kcp-attrib $-1 $46 $-1 $19 1 990666378 50 103940097 4 #
face $47 $48 $49 $6 $-1 $50 forward single #
loop $51 $-1 $39 $19 #
plane-surface $52 0 0 20 0 0 1 1 0 0 forward_v I I I I #
loop_type-twe-attrib $-1 $-1 $-1 $20 0 #
coedge $-1 $53 $54 $37 $55 forward $20 $-1 #
surf-twe-attrib $-1 $-1 $-1 $21 6 #
coedge $-1 $56 $23 $35 $55 reversed $14 $-1 #
coedge $-1 $23 $56 $57 $58 forward $14 $-1 #
coedge $-1 $59 $60 $23 $40 forward $32 $-1 #
edge $61 $62 -9.3627355333573838 $63 11.770119623552864 $39 $64 forward 7 unknown #
model_id-kcp-attrib $-1 $-1 $-1 $26 1 990666378 50 103940098 6 #
face $65 $66 $67 $11 $-1 $68 reversed single #
loop $-1 $-1 $69 $26 #
plane-surface $-1 0 0 -20 0 0 1 1 0 0 forward_v I I I I #
coedge $-1 $70 $71 $72 $73 forward $27 $-1 #
face_name-twe-attrib $-1 $-1 $30 $19 3 #
model_id-kcp-attrib $-1 $74 $-1 $31 1 990666378 50 103940097 5 #
face $75 $76 $77 $6 $-1 $78 forward single #
loop $79 $-1 $80 $31 #
plane-surface $81 -17.467606114679501 -2.8764128489951002 0 0 1 0 1 0 0 forward_v I I I I #
loop_type-twe-attrib $-1 $-1 $-1 $32 0 #
surf-twe-attrib $-1 $-1 $-1 $33 10 #
coedge $-1 $82 $35 $60 $83 reversed $20 $-1 #
coedge $-1 $35 $82 $84 $85 reversed $20 $-1 #
edge $86 $87 -10 $62 30 $35 $88 forward 7 unknown #
coedge $-1 $38 $37 $89 $90 reversed $14 $-1 #
coedge $-1 $91 $80 $38 $58 reversed $49 $-1 #
edge $92 $93 -20 $63 20 $57 $94 forward 7 unknown #
coedge $-1 $95 $39 $80 $96 forward $32 $-1 #
coedge $-1 $39 $97 $53 $83 forward $32 $-1 #
attrib_edge_convexity-kcp-attrib $-1 $98 $-1 $40 1 #
vertex $-1 $83 $99 #
vertex $-1 $96 $100 #
straight-curve $101 4.5014991852856499 8.4723999960855192 20 -0.26515651748819302 -0.96420538332532302 0 I I #
model_id-kcp-attrib $-1 $-1 $-1 $42 1 990666378 50 103940098 7 #
face $102 $103 $104 $11 $-1 $105 reversed single #
loop $-1 $-1 $106 $42 #
plane-surface $-1 0 -17.5 0 0 1 0 0 0 1 forward_v I I I I #
coedge $-1 $107 $108 $109 $110 forward $43 $-1 #
coedge $-1 $111 $45 $112 $113 forward $27 $-1 #
coedge $-1 $45 $111 $114 $115 forward $27 $-1 #
coedge $-1 $116 $117 $45 $73 reversed $118 $-1 #
edge $-1 $119 -17.5 $120 17.5 $72 $121 forward 7 unknown #
face_name-twe-attrib $-1 $-1 $47 $31 4 #
model_id-kcp-attrib $-1 $122 $-1 $48 1 990666378 50 103940097 6 #
face $123 $124 $125 $6 $-1 $126 forward single #
loop $127 $-1 $128 $48 #
plane-surface $129 -36.315788269042997 -17.5 -20 -1 0 0 0 0 1 forward_v I I I I #
loop_type-twe-attrib $-1 $-1 $-1 $49 0 #
coedge $-1 $57 $130 $59 $96 reversed $49 $-1 #
surf-twe-attrib $-1 $-1 $-1 $50 17 #
coedge $-1 $54 $53 $131 $132 forward $20 $-1 #
edge $133 $134 -36.315788269042997 $62 -6.9840895334736501 $53 $135 forward 7 unknown #
coedge $-1 $136 $89 $54 $85 forward $137 $-1 #
edge $138 $87 6.9840895334736501 $139 36.315788269042997 $54 $140 forward 7 unknown #
attrib_edge_convexity-kcp-attrib $-1 $141 $-1 $55 1 #
vertex $-1 $90 $142 #
straight-curve $143 6.9840895334736501 17.5 -10 0 0 1 I I #
coedge $-1 $84 $144 $56 $90 forward $137 $-1 #
edge $145 $93 -11.770119623552864 $87 9.3627355333573838 $89 $146 forward 7 unknown #
coedge $-1 $130 $57 $144 $147 reversed $49 $-1 #
attrib_edge_convexity-kcp-attrib $-1 $148 $-1 $58 2 #
vertex $-1 $147 $149 #
straight-curve $150 1.3805757706409401 -2.8764128489951002 0 0 0 1 I I #
coedge $-1 $151 $59 $152 $153 forward $32 $-1 #
edge $154 $63 -10.114378827980699 $155 27.581985211703238 $59 $156 forward 7 unknown #
coedge $-1 $60 $151 $157 $158 forward $32 $-1 #
convexity-sys-attrib $-1 $159 $61 $40 #
point $-1 6.9840895334736501 17.5 20 #
point $-1 1.3805757706409401 -2.8764128489951002 20 #
cur-twe-attrib $-1 $-1 $-1 $64 26 #
model_id-kcp-attrib $-1 $-1 $-1 $66 1 990666378 50 103940098 4 #
face $160 $161 $162 $11 $-1 $163 reversed single #
loop $-1 $-1 $164 $66 #
plane-surface $-1 -36.315788269042997 0 0 1 0 0 0 0 -1 forward_v I I I I #
coedge $-1 $165 $114 $166 $167 forward $67 $-1 #
coedge $-1 $168 $69 $165 $169 forward $43 $-1 #
coedge $-1 $69 $168 $170 $171 forward $43 $-1 #
coedge $-1 $117 $116 $69 $110 reversed $118 $-1 #
edge $-1 $172 -17.5 $173 17.5 $109 $174 forward 7 unknown #
coedge $-1 $71 $70 $175 $176 forward $27 $-1 #
coedge $-1 $177 $178 $70 $113 reversed $162 $-1 #
edge $-1 $120 -36.315788269042997 $179 36.315788269042997 $112 $180 forward 7 unknown #
coedge $-1 $106 $181 $71 $115 reversed $67 $-1 #
edge $-1 $182 -36.315788269042997 $119 36.315788269042997 $114 $183 forward 7 unknown #
coedge $-1 $109 $72 $181 $184 forward $118 $-1 #
coedge $-1 $72 $109 $177 $185 reversed $118 $-1 #
loop $-1 $-1 $116 $161 #
vertex $-1 $73 $186 #
vertex $-1 $73 $187 #
straight-curve $-1 36.315788269042997 0 20 0 1 0 I I #
face_name-twe-attrib $-1 $-1 $75 $48 5 #
model_id-kcp-attrib $-1 $188 $-1 $76 1 990666378 50 103940097 7 #
face $189 $190 $137 $6 $-1 $191 reversed single #
loop $192 $-1 $131 $76 #
plane-surface $193 36.315788269042997 17.5 -20 1 0 0 0 0 1 forward_v I I I I #
loop_type-twe-attrib $-1 $-1 $-1 $77 0 #
coedge $-1 $194 $152 $130 $195 forward $77 $-1 #
surf-twe-attrib $-1 $-1 $-1 $78 28 #
coedge $-1 $80 $91 $128 $195 reversed $49 $-1 #
coedge $-1 $157 $196 $82 $132 reversed $125 $-1 #
edge $197 $134 -30 $139 10 $82 $198 forward 7 unknown #
attrib_edge_convexity-kcp-attrib $-1 $199 $-1 $83 1 #
vertex $-1 $132 $200 #
straight-curve $201 0 17.5 20 -1 0 0 I I #
coedge $-1 $202 $84 $196 $203 forward $137 $-1 #
loop $204 $-1 $89 $124 #
attrib_edge_convexity-kcp-attrib $-1 $205 $-1 $85 1 #
vertex $-1 $85 $206 #
straight-curve $207 0 17.5 -20 1 0 0 I I #
convexity-sys-attrib $-1 $208 $86 $55 #
point $-1 6.9840895334736501 17.5 -20 #
cur-twe-attrib $-1 $-1 $-1 $88 35 #
coedge $-1 $89 $209 $91 $147 forward $137 $-1 #
attrib_edge_convexity-kcp-attrib $-1 $210 $-1 $90 1 #
straight-curve $211 4.5014991852856499 8.4723999960855192 -20 0.26515651748819302 0.96420538332532302 0 I I #
edge $212 $213 -27.581984942660238 $93 10.114378827980699 $144 $214 forward 7 unknown #
convexity-sys-attrib $-1 $215 $92 $58 #
point $-1 1.3805757706409401 -2.8764128489951002 -20 #
cur-twe-attrib $-1 $-1 $-1 $94 38 #
coedge $-1 $97 $95 $216 $217 forward $32 $-1 #
coedge $-1 $128 $218 $95 $153 reversed $77 $-1 #
edge $219 $155 -5.8735871510048998 $220 8.75 $95 $221 forward 7 unknown #
attrib_edge_convexity-kcp-attrib $-1 $222 $-1 $96 1 #
vertex $-1 $195 $223 #
straight-curve $224 -8.7338030573397596 -2.8764128489951002 20 -1 0 0 I I #
coedge $-1 $225 $131 $97 $158 reversed $125 $-1 #
edge $226 $227 -26.25 $134 8.75 $97 $228 forward 7 unknown #
edge_name-twe-attrib $-1 $-1 $98 $40 5 8704 #
model_id-kcp-attrib $-1 $-1 $-1 $103 1 990666378 50 103940098 2 #
face $229 $-1 $118 $11 $-1 $230 reversed single #
loop $-1 $-1 $177 $103 #
plane-surface $-1 0 17.5 0 0 -1 0 0 0 -1 forward_v I I I I #
coedge $-1 $231 $175 $178 $232 forward $104 $-1 #
coedge $-1 $181 $106 $107 $169 reversed $67 $-1 #
coedge $-1 $175 $231 $106 $167 reversed $104 $-1 #
edge $-1 $182 -20 $233 20 $166 $234 forward 7 unknown #
coedge $-1 $108 $107 $231 $235 forward $43 $-1 #
edge $-1 $173 -36.315788269042997 $233 36.315788269042997 $165 $236 forward 7 unknown #
coedge $-1 $178 $177 $108 $171 reversed $162 $-1 #
edge $-1 $237 -36.315788269042997 $172 36.315788269042997 $170 $238 forward 7 unknown #
vertex $-1 $110 $239 #
vertex $-1 $184 $240 #
straight-curve $-1 36.315788269042997 0 -20 0 -1 0 I I #
coedge $-1 $164 $166 $111 $176 reversed $104 $-1 #
edge $-1 $179 -17.5 $182 17.5 $175 $241 forward 7 unknown #
coedge $-1 $170 $112 $117 $185 forward $162 $-1 #
coedge $-1 $112 $170 $164 $232 reversed $162 $-1 #
vertex $-1 $113 $242 #
straight-curve $-1 0 17.5 20 -1 0 0 I I #
coedge $-1 $114 $165 $116 $184 reversed $67 $-1 #
vertex $-1 $176 $243 #
straight-curve $-1 0 -17.5 20 1 0 0 I I #
edge $-1 $119 -20 $173 20 $116 $244 forward 7 unknown #
edge $-1 $120 -20 $172 20 $117 $245 forward 7 unknown #
point $-1 36.315788269042997 -17.5 20 #
point $-1 36.315788269042997 17.5 20 #
face_name-twe-attrib $-1 $-1 $123 $76 6 #
model_id-kcp-attrib $-1 $246 $-1 $124 1 990666378 50 103940097 8 #
face $247 $-1 $248 $6 $-1 $249 reversed single #
plane-surface $250 0 0 -20 0 0 1 1 0 0 forward_v I I I I #
loop_type-twe-attrib $-1 $-1 $-1 $125 0 #
surf-twe-attrib $-1 $-1 $-1 $126 46 #
coedge $-1 $218 $128 $209 $251 reversed $77 $-1 #
edge $252 $155 -30 $213 10 $128 $253 forward 7 unknown #
coedge $-1 $131 $225 $136 $203 reversed $125 $-1 #
attrib_edge_convexity-kcp-attrib $-1 $254 $-1 $132 1 #
straight-curve $255 36.315788269042997 17.5 -10 0 0 -1 I I #
convexity-sys-attrib $-1 $256 $133 $83 #
point $-1 36.315788269042997 17.5 20 #
cur-twe-attrib $-1 $-1 $-1 $135 53 #
coedge $-1 $209 $136 $257 $258 forward $137 $-1 #
edge $259 $139 -8.75 $260 26.25 $136 $261 forward 7 unknown #
loop_type-twe-attrib $-1 $-1 $-1 $137 0 #
convexity-sys-attrib $-1 $262 $138 $85 #
point $-1 36.315788269042997 17.5 -20 #
cur-twe-attrib $-1 $-1 $-1 $140 55 #
edge_name-twe-attrib $-1 $-1 $141 $55 1 8448 #
coedge $-1 $144 $202 $194 $251 forward $137 $-1 #
convexity-sys-attrib $-1 $263 $145 $90 #
cur-twe-attrib $-1 $-1 $-1 $146 60 #
attrib_edge_convexity-kcp-attrib $-1 $264 $-1 $147 1 #
vertex $-1 $251 $265 #
straight-curve $266 -8.7338030573397596 -2.8764128489951002 -20 1 0 0 I I #
edge_name-twe-attrib $-1 $-1 $148 $58 9 4352 #
coedge $-1 $267 $268 $151 $217 reversed $248 $-1 #
edge $269 $220 -36.315788269042997 $227 36.315788269042997 $216 $270 forward 7 unknown #
coedge $-1 $152 $194 $267 $271 reversed $77 $-1 #
attrib_edge_convexity-kcp-attrib $-1 $272 $-1 $153 1 #
vertex $-1 $153 $273 #
straight-curve $274 -36.315788269042997 -8.75 20 0 -1 0 I I #
convexity-sys-attrib $-1 $275 $154 $96 #
point $-1 -36.315788269042997 -2.8764128489951002 20 #
cur-twe-attrib $-1 $-1 $-1 $156 66 #
coedge $-1 $196 $157 $268 $276 reversed $125 $-1 #
attrib_edge_convexity-kcp-attrib $-1 $277 $-1 $158 1 #
vertex $-1 $217 $278 #
straight-curve $279 36.315788269042997 8.75 20 0 1 0 I I #
model_id-kcp-attrib $-1 $-1 $-1 $161 1 990666378 50 103940098 5 #
plane-surface $-1 36.315788269042997 0 0 -1 0 0 0 0 1 forward_v I I I I #
coedge $-1 $166 $164 $168 $235 reversed $104 $-1 #
edge $-1 $179 -20 $237 20 $178 $280 forward 7 unknown #
vertex $-1 $235 $281 #
straight-curve $-1 -36.315788269042997 -17.5 0 0 0 -1 I I #
edge $-1 $233 -17.5 $237 17.5 $231 $282 forward 7 unknown #
straight-curve $-1 0 -17.5 -20 -1 0 0 I I #
vertex $-1 $171 $283 #
straight-curve $-1 0 17.5 -20 1 0 0 I I #
point $-1 36.315788269042997 17.5 -20 #
point $-1 36.315788269042997 -17.5 -20 #
straight-curve $-1 -36.315788269042997 0 20 0 -1 0 I I #
point $-1 -36.315788269042997 17.5 20 #
point $-1 -36.315788269042997 -17.5 20 #
straight-curve $-1 36.315788269042997 -17.5 0 0 0 -1 I I #
straight-curve $-1 36.315788269042997 17.5 0 0 0 -1 I I #
face_name-twe-attrib $-1 $-1 $189 $124 7 #
model_id-kcp-attrib $-1 $284 $-1 $190 1 990666378 50 103940097 9 #
loop $285 $-1 $268 $190 #
plane-surface $286 0 -17.5 0 0 1 0 0 0 1 forward_v I I I I #
surf-twe-attrib $-1 $-1 $-1 $191 72 #
edge $287 $288 -8.75 $213 5.8735871510048998 $209 $289 forward 7 unknown #
attrib_edge_convexity-kcp-attrib $-1 $290 $-1 $195 1 #
straight-curve $291 -36.315788269042997 -2.8764128489951002 -10 0 0 -1 I I #
convexity-sys-attrib $-1 $292 $197 $132 #
cur-twe-attrib $-1 $-1 $-1 $198 80 #
edge_name-twe-attrib $-1 $-1 $199 $83 2 8704 #
coedge $-1 $268 $267 $202 $258 reversed $248 $-1 #
edge $293 $260 -36.315788269042997 $288 36.315788269042997 $257 $294 forward 7 unknown #
edge_name-twe-attrib $-1 $-1 $-1 $203 12 8704 #
vertex $-1 $203 $295 #
straight-curve $296 36.315788269042997 8.75 -20 0 -1 0 I I #
edge_name-twe-attrib $-1 $-1 $205 $85 4 8704 #
edge_name-twe-attrib $-1 $-1 $210 $90 11 8704 #
convexity-sys-attrib $-1 $297 $212 $147 #
point $-1 -36.315787999999998 -2.8764128489951002 -20 #
cur-twe-attrib $-1 $-1 $-1 $214 94 #
coedge $-1 $257 $216 $218 $271 forward $248 $-1 #
coedge $-1 $216 $257 $225 $276 forward $248 $-1 #
attrib_edge_convexity-kcp-attrib $-1 $298 $-1 $217 1 #
straight-curve $299 0 -17.5 20 1 0 0 I I #
edge $300 $220 -30 $288 10 $267 $301 forward 7 unknown #
convexity-sys-attrib $-1 $302 $219 $153 #
point $-1 -36.315788269042997 -17.5 20 #
cur-twe-attrib $-1 $-1 $-1 $221 99 #
edge_name-twe-attrib $-1 $-1 $222 $96 6 8704 #
edge $303 $260 -10 $227 30 $268 $304 forward 7 unknown #
convexity-sys-attrib $-1 $305 $226 $158 #
point $-1 36.315788269042997 -17.5 20 #
cur-twe-attrib $-1 $-1 $-1 $228 104 #
straight-curve $-1 -36.315788269042997 17.5 0 0 0 -1 I I #
point $-1 -36.315788269042997 -17.5 -20 #
straight-curve $-1 -36.315788269042997 0 -20 0 1 0 I I #
point $-1 -36.315788269042997 17.5 -20 #
face_name-twe-attrib $-1 $-1 $247 $190 8 #
loop_type-twe-attrib $-1 $-1 $-1 $248 0 #
surf-twe-attrib $-1 $-1 $-1 $249 106 #
attrib_edge_convexity-kcp-attrib $-1 $306 $-1 $251 1 #
vertex $-1 $258 $307 #
straight-curve $308 -36.315788269042997 -8.75 -20 0 1 0 I I #
convexity-sys-attrib $-1 $309 $252 $195 #
cur-twe-attrib $-1 $-1 $-1 $253 111 #
edge_name-twe-attrib $-1 $-1 $254 $132 3 8704 #
edge_name-twe-attrib $-1 $-1 $-1 $258 18 8704 #
straight-curve $310 0 -17.5 -20 -1 0 0 I I #
point $-1 36.315788269042997 -17.5 -20 #
cur-twe-attrib $-1 $-1 $-1 $261 118 #
edge_name-twe-attrib $-1 $-1 $264 $147 14 8704 #
convexity-sys-attrib $-1 $311 $269 $217 #
cur-twe-attrib $-1 $-1 $-1 $270 128 #
attrib_edge_convexity-kcp-attrib $-1 $312 $-1 $271 1 #
straight-curve $313 -36.315788269042997 -17.5 -10 0 0 -1 I I #
edge_name-twe-attrib $-1 $-1 $272 $153 7 8704 #
edge_name-twe-attrib $-1 $-1 $-1 $276 15 8704 #
straight-curve $314 36.315788269042997 -17.5 -10 0 0 1 I I #
edge_name-twe-attrib $-1 $-1 $277 $158 8 8704 #
convexity-sys-attrib $-1 $315 $287 $251 #
point $-1 -36.315788269042997 -17.5 -20 #
cur-twe-attrib $-1 $-1 $-1 $289 143 #
edge_name-twe-attrib $-1 $-1 $290 $195 10 8704 #
cur-twe-attrib $-1 $-1 $-1 $294 148 #
edge_name-twe-attrib $-1 $-1 $298 $217 16 8704 #
convexity-sys-attrib $-1 $316 $300 $271 #
cur-twe-attrib $-1 $-1 $-1 $301 158 #
cur-twe-attrib $-1 $-1 $-1 $304 161 #
edge_name-twe-attrib $-1 $-1 $306 $251 13 8704 #
edge_name-twe-attrib $-1 $-1 $312 $271 17 8704 #
End-of-ACIS-data 