600 0 1 0           
115 GICL ACIS Healer - Source: /gicl/data5/repository/ICEM-CDC/Fixture_Models/bluco_412158_II/bluco_412158_II.sat - 6 0 18 ACIS 6.0.3 Solaris 24 Sat Apr 13 23:05:38 2002 
1 9.999999999999999547e-07 1.000000000000000036e-10 
body $-1 $1 $-1 $2 #
lump $-1 $-1 $3 $0 #
transform $-1 1 0 0 0 1 0 0 0 1 0 0 0 1 no_rotate no_reflect no_shear #
shell $-1 $-1 $-1 $4 $-1 $1 #
face $5 $6 $7 $3 $-1 $8 reversed single #
face_name-twe-attrib $-1 $-1 $-1 $4 1 #
face $9 $10 $11 $3 $-1 $12 reversed single #
loop $13 $-1 $14 $4 #
plane-surface $15 6.984089533473650135 17.5 -20 0.9642053833253232398 -0.2651565174881930775 0 0 0 -1 forward_v I I I I #
face_name-twe-attrib $-1 $-1 $-1 $6 2 #
face $16 $17 $18 $3 $-1 $19 forward single #
loop $20 $-1 $21 $6 #
plane-surface $22 0 17.5 0 0 -1 0 0 0 -1 forward_v I I I I #
loop_type-twe-attrib $-1 $-1 $-1 $7 0 #
coedge $-1 $23 $24 $25 $26 reversed $7 $-1 #
surf-twe-attrib $-1 $-1 $-1 $8 4 #
face_name-twe-attrib $-1 $-1 $-1 $10 3 #
face $27 $28 $29 $3 $-1 $30 forward single #
loop $31 $-1 $25 $10 #
plane-surface $32 0 0 20 0 0 1 1 0 0 forward_v I I I I #
loop_type-twe-attrib $-1 $-1 $-1 $11 0 #
coedge $-1 $33 $34 $23 $35 forward $11 $-1 #
surf-twe-attrib $-1 $-1 $-1 $12 6 #
coedge $-1 $36 $14 $21 $35 reversed $7 $-1 #
coedge $-1 $14 $36 $37 $38 forward $7 $-1 #
coedge $-1 $39 $40 $14 $26 forward $18 $-1 #
edge $41 $42 -9.362735533357383844 $43 11.77011962355286379 $25 $44 forward 7 unknown #
face_name-twe-attrib $-1 $-1 $-1 $17 4 #
face $45 $46 $47 $3 $-1 $48 forward single #
loop $49 $-1 $50 $17 #
plane-surface $51 -17.46760611467950142 -2.876412848995100191 0 0 1 0 1 0 0 forward_v I I I I #
loop_type-twe-attrib $-1 $-1 $-1 $18 0 #
surf-twe-attrib $-1 $-1 $-1 $19 10 #
coedge $-1 $52 $21 $40 $53 reversed $11 $-1 #
coedge $-1 $21 $52 $54 $55 reversed $11 $-1 #
edge $56 $57 -10 $42 30 $21 $58 forward 7 unknown #
coedge $-1 $24 $23 $59 $60 reversed $7 $-1 #
coedge $-1 $61 $50 $24 $38 reversed $29 $-1 #
edge $62 $63 -20 $43 20 $37 $64 forward 7 unknown #
coedge $-1 $65 $25 $50 $66 forward $18 $-1 #
coedge $-1 $25 $67 $33 $53 forward $18 $-1 #
edge_name-twe-attrib $-1 $-1 $-1 $26 5 8704 #
vertex $-1 $53 $68 #
vertex $-1 $66 $69 #
straight-curve $70 4.501499185285649851 8.472399996085519192 20 -0.265156517488193022 -0.9642053833253230177 0 I I #
face_name-twe-attrib $-1 $-1 $-1 $28 5 #
face $71 $72 $73 $3 $-1 $74 forward single #
loop $75 $-1 $76 $28 #
plane-surface $77 -36.31578826904299717 -17.5 -20 -1 0 0 0 0 1 forward_v I I I I #
loop_type-twe-attrib $-1 $-1 $-1 $29 0 #
coedge $-1 $37 $78 $39 $66 reversed $29 $-1 #
surf-twe-attrib $-1 $-1 $-1 $30 17 #
coedge $-1 $34 $33 $79 $80 forward $11 $-1 #
edge $81 $82 -36.31578826904299717 $42 -6.984089533473650135 $33 $83 forward 7 unknown #
coedge $-1 $84 $59 $34 $55 forward $85 $-1 #
edge $86 $57 6.984089533473650135 $87 36.31578826904299717 $34 $88 forward 7 unknown #
edge_name-twe-attrib $-1 $-1 $-1 $35 1 8448 #
vertex $-1 $60 $89 #
straight-curve $90 6.984089533473650135 17.5 -10 0 0 1 I I #
coedge $-1 $54 $91 $36 $60 forward $85 $-1 #
edge $92 $63 -11.77011962355286379 $57 9.362735533357383844 $59 $93 forward 7 unknown #
coedge $-1 $78 $37 $91 $94 reversed $29 $-1 #
edge_name-twe-attrib $-1 $-1 $-1 $38 9 4352 #
vertex $-1 $94 $95 #
straight-curve $96 1.380575770640940059 -2.876412848995100191 0 0 0 1 I I #
coedge $-1 $97 $39 $98 $99 forward $18 $-1 #
edge $100 $43 -10.11437882798069943 $101 27.58198521170323758 $39 $102 forward 7 unknown #
coedge $-1 $40 $97 $103 $104 forward $18 $-1 #
point $-1 6.984089533473650135 17.5 20 #
point $-1 1.380575770640940059 -2.876412848995100191 20 #
cur-twe-attrib $-1 $-1 $-1 $44 26 #
face_name-twe-attrib $-1 $-1 $-1 $46 6 #
face $105 $106 $85 $3 $-1 $107 reversed single #
loop $108 $-1 $79 $46 #
plane-surface $109 36.31578826904299717 17.5 -20 1 0 0 0 0 1 forward_v I I I I #
loop_type-twe-attrib $-1 $-1 $-1 $47 0 #
coedge $-1 $110 $98 $78 $111 forward $47 $-1 #
surf-twe-attrib $-1 $-1 $-1 $48 28 #
coedge $-1 $50 $61 $76 $111 reversed $29 $-1 #
coedge $-1 $103 $112 $52 $80 reversed $73 $-1 #
edge $113 $82 -30 $87 10 $52 $114 forward 7 unknown #
edge_name-twe-attrib $-1 $-1 $-1 $53 2 8704 #
vertex $-1 $80 $115 #
straight-curve $116 0 17.5 20 -1 0 0 I I #
coedge $-1 $117 $54 $112 $118 forward $85 $-1 #
loop $119 $-1 $59 $72 #
edge_name-twe-attrib $-1 $-1 $-1 $55 4 8704 #
vertex $-1 $55 $120 #
straight-curve $121 0 17.5 -20 1 0 0 I I #
point $-1 6.984089533473650135 17.5 -20 #
cur-twe-attrib $-1 $-1 $-1 $58 35 #
coedge $-1 $59 $122 $61 $94 forward $85 $-1 #
edge_name-twe-attrib $-1 $-1 $-1 $60 11 8704 #
straight-curve $123 4.501499185285649851 8.472399996085519192 -20 0.265156517488193022 0.9642053833253230177 0 I I #
edge $124 $125 -27.58198494266023815 $63 10.11437882798069943 $91 $126 forward 7 unknown #
point $-1 1.380575770640940059 -2.876412848995100191 -20 #
cur-twe-attrib $-1 $-1 $-1 $64 38 #
coedge $-1 $67 $65 $127 $128 forward $18 $-1 #
coedge $-1 $76 $129 $65 $99 reversed $47 $-1 #
edge $130 $101 -5.873587151004899809 $131 8.75 $65 $132 forward 7 unknown #
edge_name-twe-attrib $-1 $-1 $-1 $66 6 8704 #
vertex $-1 $111 $133 #
straight-curve $134 -8.73380305733975959 -2.876412848995100191 20 -1 0 0 I I #
coedge $-1 $135 $79 $67 $104 reversed $73 $-1 #
edge $136 $137 -26.25 $82 8.75 $67 $138 forward 7 unknown #
face_name-twe-attrib $-1 $-1 $-1 $72 7 #
face $139 $-1 $140 $3 $-1 $141 reversed single #
plane-surface $142 0 0 -20 0 0 1 1 0 0 forward_v I I I I #
loop_type-twe-attrib $-1 $-1 $-1 $73 0 #
surf-twe-attrib $-1 $-1 $-1 $74 46 #
coedge $-1 $129 $76 $122 $143 reversed $47 $-1 #
edge $144 $101 -30 $125 10 $76 $145 forward 7 unknown #
coedge $-1 $79 $135 $84 $118 reversed $73 $-1 #
edge_name-twe-attrib $-1 $-1 $-1 $80 3 8704 #
straight-curve $146 36.31578826904299717 17.5 -10 0 0 -1 I I #
point $-1 36.31578826904299717 17.5 20 #
cur-twe-attrib $-1 $-1 $-1 $83 53 #
coedge $-1 $122 $84 $147 $148 forward $85 $-1 #
edge $149 $87 -8.75 $150 26.25 $84 $151 forward 7 unknown #
loop_type-twe-attrib $-1 $-1 $-1 $85 0 #
point $-1 36.31578826904299717 17.5 -20 #
cur-twe-attrib $-1 $-1 $-1 $88 55 #
coedge $-1 $91 $117 $110 $143 forward $85 $-1 #
cur-twe-attrib $-1 $-1 $-1 $93 60 #
edge_name-twe-attrib $-1 $-1 $-1 $94 14 8704 #
vertex $-1 $143 $152 #
straight-curve $153 -8.73380305733975959 -2.876412848995100191 -20 1 0 0 I I #
coedge $-1 $154 $155 $97 $128 reversed $140 $-1 #
edge $156 $131 -36.31578826904299717 $137 36.31578826904299717 $127 $157 forward 7 unknown #
coedge $-1 $98 $110 $154 $158 reversed $47 $-1 #
edge_name-twe-attrib $-1 $-1 $-1 $99 7 8704 #
vertex $-1 $99 $159 #
straight-curve $160 -36.31578826904299717 -8.75 20 0 -1 0 I I #
point $-1 -36.31578826904299717 -2.876412848995100191 20 #
cur-twe-attrib $-1 $-1 $-1 $102 66 #
coedge $-1 $112 $103 $155 $161 reversed $73 $-1 #
edge_name-twe-attrib $-1 $-1 $-1 $104 8 8704 #
vertex $-1 $128 $162 #
straight-curve $163 36.31578826904299717 8.75 20 0 1 0 I I #
face_name-twe-attrib $-1 $-1 $-1 $106 8 #
loop $164 $-1 $155 $106 #
plane-surface $165 0 -17.5 0 0 1 0 0 0 1 forward_v I I I I #
surf-twe-attrib $-1 $-1 $-1 $107 72 #
edge $166 $167 -8.75 $125 5.873587151004899809 $122 $168 forward 7 unknown #
edge_name-twe-attrib $-1 $-1 $-1 $111 10 8704 #
straight-curve $169 -36.31578826904299717 -2.876412848995100191 -10 0 0 -1 I I #
cur-twe-attrib $-1 $-1 $-1 $114 80 #
coedge $-1 $155 $154 $117 $148 reversed $140 $-1 #
edge $170 $150 -36.31578826904299717 $167 36.31578826904299717 $147 $171 forward 7 unknown #
edge_name-twe-attrib $-1 $-1 $-1 $118 12 8704 #
vertex $-1 $118 $172 #
straight-curve $173 36.31578826904299717 8.75 -20 0 -1 0 I I #
point $-1 -36.31578799999999774 -2.876412848995100191 -20 #
cur-twe-attrib $-1 $-1 $-1 $126 94 #
coedge $-1 $147 $127 $129 $158 forward $140 $-1 #
coedge $-1 $127 $147 $135 $161 forward $140 $-1 #
edge_name-twe-attrib $-1 $-1 $-1 $128 16 8704 #
straight-curve $174 0 -17.5 20 1 0 0 I I #
edge $175 $131 -30 $167 10 $154 $176 forward 7 unknown #
point $-1 -36.31578826904299717 -17.5 20 #
cur-twe-attrib $-1 $-1 $-1 $132 99 #
edge $177 $150 -10 $137 30 $155 $178 forward 7 unknown #
point $-1 36.31578826904299717 -17.5 20 #
cur-twe-attrib $-1 $-1 $-1 $138 104 #
loop_type-twe-attrib $-1 $-1 $-1 $140 0 #
surf-twe-attrib $-1 $-1 $-1 $141 106 #
edge_name-twe-attrib $-1 $-1 $-1 $143 13 8704 #
vertex $-1 $148 $179 #
straight-curve $180 -36.31578826904299717 -8.75 -20 0 1 0 I I #
cur-twe-attrib $-1 $-1 $-1 $145 111 #
edge_name-twe-attrib $-1 $-1 $-1 $148 18 8704 #
straight-curve $181 0 -17.5 -20 -1 0 0 I I #
point $-1 36.31578826904299717 -17.5 -20 #
cur-twe-attrib $-1 $-1 $-1 $151 118 #
cur-twe-attrib $-1 $-1 $-1 $157 128 #
edge_name-twe-attrib $-1 $-1 $-1 $158 17 8704 #
straight-curve $182 -36.31578826904299717 -17.5 -10 0 0 -1 I I #
edge_name-twe-attrib $-1 $-1 $-1 $161 15 8704 #
straight-curve $183 36.31578826904299717 -17.5 -10 0 0 1 I I #
point $-1 -36.31578826904299717 -17.5 -20 #
cur-twe-attrib $-1 $-1 $-1 $168 143 #
cur-twe-attrib $-1 $-1 $-1 $171 148 #
cur-twe-attrib $-1 $-1 $-1 $176 158 #
cur-twe-attrib $-1 $-1 $-1 $178 161 #
End-of-ACIS-data 