**ABCDEFGHIJKLMNOPQRSTUVWXYZabcdefghijklmnopqrstuvwxyz**************************
**PARASOLID !"#$%&'()*+,-./:;<=>?@[\]^_`{|}~0123456789**************************
**PART1;MC=sparc;MC_MODEL=sun4;MC_ID=bedlam;OS=SunOS;OS_RELEASE=4.1.1;FRU=sdl_pa
rasolid_test_sparc;APPL=unknown;SITE=sdl-cambridge-u.k.;USER=regli;FORMAT=text;G
UISE=transmit;KEY=joshi3;FILE=joshi3.xmt_txt;DATE=2-feb-1993;
**PART2;SCH=SCH_500003_5041;USFLD_SIZE=0;
**PART3;
**END_OF_HEADER*****************************************************************
T50 : TRANSMIT FILE created by modeller version 50000315 SCH_500003_50410 12 1 6
42 0 0 0 0 0 1e3 1e-8 2 2 0 0 0 1 3 4 5 6 102 6 2 joshi313 3 2 0 1 0 7 8 9 50 4
 517 0 7 10 0 0 +0 6.43933982822018 5.06066017177982 0 -.707106781186548 -.70710
6781186548 -1 0 0 30 5 524 0 8 11 0 0 +0 5.5 6 1 0 0 29 6 549 0 9 12 0 -3.5 5.5
 6 18 9 625 0 13 0 14 6 ?29 12 550 0 14 15 6 3.5 5.5 6 18 14 626 0 16 9 17 12 ?2
9 15 562 0 18 19 12 -3.5 7.5 4 18 18 640 0 20 21 22 15 ?29 19 563 0 21 23 15 -3.
5 9.5 4 18 21 639 0 24 17 18 19 ?29 23 564 0 17 25 19 3.5 9.5 4 18 17 638 0 26 1
4 21 23 ?29 25 482 0 22 27 23 3.5 7.5 4 18 22 480 0 28 18 29 25 ?29 27 391 0 29
 30 25 -1.5 -1 4 18 29 452 0 31 22 32 27 ?29 30 392 0 32 33 27 -1.5 -3 4 18 32 4
53 0 34 29 35 30 ?29 33 393 0 35 36 30 -1.5 -3 6 18 35 454 0 37 32 38 33 ?29 36
 394 0 38 39 33 -1.5 -1 3 18 38 455 0 40 35 41 36 ?29 39 395 0 41 42 36 1.5 -1 4
 18 41 456 0 43 38 44 39 ?29 42 396 0 44 45 39 1.5 -3 4 18 44 457 0 46 41 47 42
 ?29 45 397 0 47 48 42 1.5 -3 6 18 47 458 0 49 44 50 45 ?29 48 398 0 50 51 45 1.
5 -1 3 18 50 459 0 52 47 53 48 ?29 51 399 0 53 54 48 -1.5 -5.5 6 18 53 460 0 55
 50 56 51 ?29 54 402 0 56 57 51 1.5 -5.5 6 18 56 463 0 58 53 59 54 ?29 57 403 0
 59 60 54 -1.5 -5.5 3 18 59 466 0 61 56 62 57 ?29 60 308 0 62 63 57 1.5 -5.5 3 1
8 62 306 0 64 59 65 60 ?29 63 232 0 65 66 60 -3.5 -1 4 18 65 285 0 67 62 68 63 ?
29 66 233 0 68 69 63 3.5 -1 4 18 68 286 0 70 65 71 66 ?29 69 234 0 71 72 66 3.5
 1 4 18 71 287 0 73 68 74 69 ?29 72 235 0 74 75 69 -3.5 1 4 18 74 288 0 76 71 77
 72 ?29 75 240 0 78 79 72 -3.5 -1 2 18 78 295 0 80 81 82 75 ?29 79 241 0 81 83 7
5 -3.5 1 2 18 81 294 0 84 77 78 79 ?29 83 242 0 77 85 79 3.5 1 2 18 77 293 0 86
 74 81 83 ?29 85 174 0 82 87 83 3.5 -1 2 18 82 172 0 88 78 89 85 ?29 87 124 0 89
 90 85 -3.5 -3 6 18 89 157 0 91 82 92 87 ?29 90 125 0 92 93 87 -3.5 3 6 18 92 15
8 0 94 89 95 90 ?29 93 126 0 95 96 90 3.5 3 6 18 95 159 0 97 92 98 93 ?29 96 127
 0 98 99 93 3.5 -3 6 18 98 160 0 100 95 101 96 ?29 99 128 0 102 103 96 -3.5 -3 4
 18 102 163 0 104 105 106 99 ?29 103 129 0 105 107 99 -3.5 3 4 18 105 162 0 108
 101 102 103 ?29 107 130 0 101 109 103 3.5 3 4 18 101 161 0 110 98 105 107 ?29 1
09 68 0 106 111 107 3.5 -3 4 18 106 66 0 112 102 113 109 ?29 111 55 0 113 114 10
9 -3.5 -5.5 6 18 113 20 0 115 106 116 111 ?29 114 52 0 116 117 111 3.5 -5.5 6 18
 116 14 0 118 113 119 114 ?29 117 38 0 120 121 114 -3.5 -5.5 0 18 120 8 0 122 12
3 124 117 ?29 121 37 0 123 125 117 -3.5 9.5 0 18 123 10 0 126 119 120 121 ?29 12
5 36 0 119 127 121 3.5 9.5 0 18 119 12 0 128 116 123 125 ?29 127 35 0 124 0 125
 3.5 -5.5 0 18 124 7 0 129 120 0 127 ?17 129 130 118 131 124 132 133 0 ????0 0 1
5 130 315 0 55 134 0 17 118 130 135 129 116 136 137 0 ????0 0 17 131 130 129 138
 120 115 139 0 ????0 0 17 132 140 141 142 120 129 133 0 ????0 0 16 133 9 0 129 1
43 144 145 ?0 0 16 143 11 0 122 146 133 147 ?0 0 16 144 3 0 128 133 0 148 ?0 0 3
0 145 39 0 133 0 148 0 +0 -5.5 0 1 0 0 30 148 40 0 144 145 149 0 +3.5 2 0 0 1 0
 30 149 41 0 146 148 147 0 +0 9.5 0 -1 0 0 16 146 13 0 126 137 143 149 ?0 0 30 1
47 42 0 143 149 150 0 +-3.5 2 0 0 -1 0 30 150 47 0 137 147 151 0 +3.5 -5.5 0 0 0
 1 16 137 15 0 118 152 146 150 ?0 0 30 151 48 0 152 150 153 0 +3.5 9.5 0 0 0 1 1
6 152 17 0 154 155 137 151 ?0 0 30 153 49 0 155 151 156 0 +-3.5 9.5 0 0 0 1 16 1
55 19 0 157 139 152 153 ?0 0 30 156 50 0 139 153 158 0 +-3.5 -5.5 0 0 0 1 16 139
 21 0 115 159 155 156 ?0 0 30 158 56 0 160 156 161 0 +3.5 2 6 0 -1 0 16 160 22 0
 162 163 164 158 ?165 165 30 161 58 0 159 158 166 0 +-3.5 2 6 0 1 0 16 159 28 0
 167 168 139 161 ?169 169 30 166 59 0 168 161 170 0 +0 -5.5 6 -1 0 0 16 168 31 0
 135 165 159 166 ?171 171 30 170 123 0 172 166 173 0 +0 -3 4 1 0 0 16 172 155 0
 174 175 176 170 ?177 177 30 173 122 0 176 170 178 0 +3.5 0 4 0 1 0 16 176 156 0
 179 172 169 173 ?180 180 30 178 121 0 181 173 182 0 +0 3 4 -1 0 0 16 181 153 0
 183 184 175 178 ?0 0 30 182 120 0 175 178 185 0 +-3.5 0 4 0 -1 0 16 175 154 0 1
86 181 172 182 ?187 187 30 185 119 0 184 182 188 0 +3.5 -3 4 0 0 1 16 184 152 0
 100 189 181 185 ?0 0 30 188 118 0 189 185 190 0 +3.5 3 4 0 0 1 16 189 151 0 191
 192 184 188 ?0 0 30 190 117 0 192 188 193 0 +-3.5 3 4 0 0 1 16 192 150 0 94 194
 189 190 ?0 0 30 193 116 0 194 190 195 0 +-3.5 -3 4 0 0 1 16 194 149 0 196 197 1
92 193 ?0 0 30 195 114 0 197 193 198 0 +0 3 6 1 0 0 16 197 147 0 97 199 194 195
 ?0 0 30 198 112 0 199 195 200 0 +0 -3 6 -1 0 0 16 199 145 0 201 180 197 198 ?20
2 202 30 200 231 0 203 198 204 0 +0 -1 2 1 0 0 16 203 283 0 205 206 207 200 ?0 0
 30 204 230 0 207 200 208 0 +3.5 0 2 0 1 0 16 207 284 0 209 203 187 204 ?0 0 30
 208 229 0 210 204 211 0 +0 1 2 -1 0 0 16 210 281 0 212 213 206 208 ?0 0 30 211
 228 0 206 208 214 0 +-3.5 0 2 0 -1 0 16 206 282 0 215 210 203 211 ?0 0 30 214 2
27 0 216 211 217 0 +3.5 -1 2 0 0 1 16 216 280 0 218 219 220 214 ?0 0 30 217 226
 0 213 214 221 0 +3.5 1 2 0 0 1 16 213 279 0 222 223 210 217 ?0 0 30 221 225 0 2
24 217 225 0 +-3.5 1 2 0 0 1 16 224 278 0 76 220 223 221 ?0 0 30 225 224 0 223 2
21 226 0 +-3.5 -1 2 0 0 1 16 223 277 0 227 224 213 225 ?0 0 30 226 219 0 220 225
 228 0 +0 1 4 1 0 0 16 220 270 0 73 216 224 226 ?0 0 30 228 218 0 219 226 229 0
 +0 -1 4 -1 0 0 16 219 267 0 230 171 216 228 ?231 231 30 229 390 0 232 228 233 0
 +0 -5.5 3 1 0 0 16 232 450 0 234 235 231 229 ?0 0 30 233 389 0 236 229 237 0 +1
.5 -3 3 0 1 0 16 236 451 0 238 239 240 233 ?0 0 30 237 387 0 241 233 242 0 +-1.5
 -3 3 0 -1 0 16 241 449 0 61 243 244 237 ?0 0 30 242 386 0 235 237 245 0 +1.5 -5
.5 3 0 0 1 16 235 447 0 246 247 232 242 ?0 0 30 245 383 0 247 242 248 0 +-1.5 -5
.5 3 0 0 1 16 247 444 0 55 240 235 245 ?0 0 30 248 382 0 240 245 249 0 +1.5 -3 6
 0 -1 0 16 240 443 0 58 236 247 248 ?0 0 30 249 380 0 250 248 251 0 +-1.5 -3 6 0
 1 0 16 250 441 0 37 252 243 249 ?0 0 30 251 378 0 239 249 253 0 +1.5 -3 4 0 0 1
 16 239 437 0 49 254 236 251 ?0 0 30 253 377 0 254 251 255 0 +1.5 0 4 0 -1 0 16
 254 436 0 46 244 239 253 ?0 0 30 255 376 0 244 253 256 0 +1.5 -1 2 0 0 1 16 244
 435 0 43 241 254 255 ?0 0 30 256 375 0 243 255 257 0 +0 -1 3 1 0 0 16 243 433 0
 52 250 241 256 ?0 0 30 257 374 0 252 256 258 0 +-1.5 -3 4 0 0 -1 16 252 431 0 3
4 259 250 257 ?0 0 30 258 373 0 259 257 260 0 +-1.5 0 4 0 1 0 16 259 430 0 31 16
4 252 258 ?0 0 30 260 372 0 164 258 261 0 +-1.5 -1 2 0 0 -1 16 164 429 0 40 160
 259 260 ?0 0 30 261 548 0 262 260 263 0 +0 7.5 4 1 0 0 16 262 623 0 264 265 163
 261 ?0 0 30 263 547 0 163 261 266 0 +3.5 8.5 4 0 1 0 16 163 624 0 267 262 160 2
63 ?0 0 30 266 546 0 268 263 269 0 +0 9.5 4 -1 0 0 16 268 621 0 270 271 265 266
 ?0 0 30 269 545 0 265 266 272 0 +-3.5 8.5 4 0 -1 0 16 265 622 0 273 268 262 269
 ?0 0 30 272 534 0 274 269 11 0 +3.5 6.43933982822018 5.06066017177982 0 .707106
781186548 -.707106781186548 16 274 611 0 275 8 271 272 ?0 0 30 11 533 0 271 272
 5 0 +-3.5 6.43933982822018 5.06066017177982 0 -.707106781186548 .70710678118654
8 16 271 609 0 276 274 268 11 ?0 0 17 276 277 16 278 9 20 271 0 ????0 0 15 277 5
81 0 16 7 0 17 16 277 275 276 14 13 8 0 ????0 0 17 278 277 276 275 18 264 262 0
 ????0 0 17 20 279 24 280 18 276 271 0 ????0 0 15 279 506 0 20 281 0 17 24 279 2
82 20 21 273 265 0 ????0 0 17 280 279 20 94 9 283 169 0 ????0 0 17 94 279 280 10
8 92 284 192 0 ????0 0 17 283 285 97 13 92 280 169 0 ????0 0 16 169 80 0 280 176
 165 161 ?159 159 16 165 61 0 286 169 168 158 ?160 160 17 286 287 136 100 116 28
8 165 0 ????0 0 15 287 485 0 289 290 0 17 136 287 128 286 124 118 137 0 ????0 0
 17 100 287 286 112 98 291 184 0 ????0 0 17 288 292 201 293 98 286 165 0 ????0 0
 15 292 325 0 58 294 0 17 201 292 58 288 47 295 199 0 ????0 0 17 293 292 288 58
 116 135 168 0 ????0 0 17 58 292 293 201 56 296 240 0 ????0 0 17 135 130 64 118
 56 293 168 0 ????0 0 17 64 130 297 135 62 246 235 0 ????0 0 17 297 130 55 64 59
 234 232 0 ????0 0 17 246 298 296 299 56 64 235 0 ????0 0 15 298 415 0 299 300 0
 17 296 298 301 246 47 58 240 0 ????0 0 17 299 298 246 302 62 238 236 0 ????0 0
 17 302 298 299 303 50 43 244 0 ????0 0 17 238 304 305 234 50 299 236 0 ????0 0
 15 304 413 0 61 306 0 17 305 304 61 238 38 52 243 0 ????0 0 17 234 304 238 61 6
2 297 232 0 ????0 0 17 61 304 234 305 59 307 241 0 ????0 0 17 307 308 309 310 38
 61 241 0 ????0 0 15 308 411 0 311 312 0 17 309 308 311 307 29 40 164 0 ????0 0
 17 310 308 307 313 59 55 247 0 ????0 0 17 313 308 310 314 53 37 250 0 ????0 0 1
7 55 130 138 297 53 310 247 0 ????0 0 17 138 130 131 55 113 315 171 0 ????0 0 17
 315 316 37 317 53 138 171 0 ????0 0 16 171 301 0 138 202 219 166 ?168 168 16 20
2 319 0 91 177 171 198 ?199 199 17 91 316 317 37 89 318 202 0 ????0 0 16 177 333
 0 319 231 202 170 ?172 172 17 319 320 179 46 106 321 177 0 ????0 0 16 231 345 0
 67 232 177 228 ?219 219 17 67 322 323 31 65 324 231 0 ????0 0 15 322 351 0 174
 325 0 17 323 322 174 67 102 326 187 0 ????0 0 17 31 322 67 174 29 311 259 0 ???
?0 0 17 324 327 40 227 29 67 231 0 ????0 0 15 327 250 0 324 328 0 17 40 327 52 3
24 38 309 164 0 ????0 0 17 227 327 324 329 65 80 223 0 ????0 0 17 329 327 227 33
0 78 205 203 0 ????0 0 17 80 279 84 326 78 227 223 0 ????0 0 17 84 279 76 80 81
 215 206 0 ????0 0 17 326 279 80 104 65 323 187 0 ????0 0 17 104 279 326 167 102
 196 194 0 ????0 0 16 187 186 0 323 207 180 182 ?175 175 16 180 167 0 331 187 19
9 173 ?176 176 17 331 332 183 73 101 333 180 0 ????0 0 15 332 142 0 186 334 0 17
 183 332 186 331 105 335 181 0 ????0 0 17 73 332 331 186 71 336 220 0 ????0 0 17
 333 287 86 110 71 331 180 0 ????0 0 17 86 287 88 333 77 222 213 0 ????0 0 17 11
0 287 333 162 101 191 189 0 ????0 0 17 162 287 110 289 95 337 160 0 ????0 0 17 1
91 338 339 335 95 110 189 0 ????0 0 15 338 140 0 284 340 0 17 339 338 284 191 92
 97 197 0 ????0 0 17 335 338 191 284 101 183 181 0 ????0 0 17 284 338 335 339 10
5 94 192 0 ????0 0 17 97 285 337 283 95 339 197 0 ????0 0 15 285 510 0 13 341 0
 17 337 285 13 97 14 162 160 0 ????0 0 17 13 285 283 337 9 16 8 0 ????0 0 16 8 5
98 0 16 0 274 5 ?0 0 14 341 33 0 134 294 285 3 342 +????343 294 14 134 30 0 281
 341 130 3 344 +????0 0 14 294 101 0 341 334 292 3 342 +????341 343 50 342 51 0
 341 344 345 0 +0 2 6 0 0 1 1 0 0 14 343 327 0 328 346 316 3 342 +????294 341 14
 328 255 0 347 343 327 3 348 -????0 0 14 346 340 0 343 325 349 3 350 -????351 35
1 15 316 329 0 37 343 0 17 37 316 91 315 35 313 250 0 ????0 0 14 325 352 0 346 3
00 322 3 345 -????352 334 15 349 339 0 318 346 0 50 350 107 0 351 353 354 0 +0 -
3 4 0 -1 0 0 0 -1 14 351 135 0 340 352 355 3 350 -????346 346 14 340 139 0 334 3
51 338 3 353 -????0 0 14 352 206 0 351 356 320 3 345 -????334 325 15 355 136 0 3
21 351 0 17 321 355 49 291 44 319 177 0 ????0 0 17 49 355 295 321 47 301 239 0 ?
???0 0 17 291 355 321 295 106 100 184 0 ????0 0 17 295 355 291 49 98 201 199 0 ?
???0 0 17 301 298 303 296 44 49 239 0 ????0 0 17 303 298 302 301 41 46 254 0 ???
?0 0 17 46 320 319 230 44 303 254 0 ????0 0 15 320 205 0 230 352 0 17 230 320 46
 179 41 70 219 0 ????0 0 17 179 320 230 319 68 112 176 0 ????0 0 17 70 327 330 4
3 68 230 219 0 ????0 0 17 330 327 329 70 82 218 216 0 ????0 0 17 43 327 70 52 41
 302 244 0 ????0 0 17 52 327 43 40 50 305 243 0 ????0 0 17 218 287 112 88 68 330
 216 0 ????0 0 17 112 287 100 218 106 179 176 0 ????0 0 17 88 287 218 86 82 209
 207 0 ????0 0 17 209 357 212 205 77 88 207 0 ????0 0 15 357 262 0 209 356 0 17
 212 357 215 209 81 358 210 0 ????0 0 17 205 357 209 215 82 329 203 0 ????0 0 17
 215 357 205 212 78 84 206 0 ????0 0 17 358 359 222 360 77 212 210 0 ????0 0 15
 359 252 0 360 347 0 17 222 359 336 358 71 86 213 0 ????0 0 17 360 359 358 336 8
1 76 224 0 ????0 0 17 336 359 360 222 74 73 220 0 ????0 0 17 76 279 108 84 74 36
0 224 0 ????0 0 17 108 279 94 76 105 186 175 0 ????0 0 17 186 332 73 183 74 108
 175 0 ????0 0 14 347 259 0 356 328 359 3 361 -????0 0 14 356 261 0 352 347 357
 3 354 -????0 0 50 361 213 0 347 354 348 0 +0 1 2 0 1 0 0 0 1 50 354 215 0 356 3
50 361 0 +0 0 2 0 0 -1 -1 0 0 50 348 211 0 328 361 362 0 +0 -1 2 0 -1 0 0 0 -1 5
0 362 370 0 306 348 363 0 +0 -3 3 0 0 -1 -1 0 0 14 306 424 0 300 312 304 3 362 -
????0 0 50 363 369 0 300 362 364 0 +1.5 -3 3 1 0 0 0 0 -1 14 300 426 0 325 306 2
98 3 363 -????0 0 50 364 367 0 312 363 10 0 +-1.5 -3 3 -1 0 0 0 0 1 14 312 420 0
 306 365 308 3 364 -????0 0 50 10 521 0 365 364 4 0 +0 8.5 4 0 0 -1 -1 0 0 14 36
5 592 0 312 7 366 3 10 -????0 0 14 7 580 0 365 0 277 3 4 -????0 0 15 366 593 0 2
67 365 0 17 267 366 270 264 17 28 163 0 ????0 0 17 270 366 273 267 21 26 268 0 ?
???0 0 17 264 366 267 273 22 278 262 0 ????0 0 17 28 287 289 154 22 267 163 0 ??
??0 0 17 289 287 162 28 14 275 274 0 ????0 0 17 154 287 28 128 17 367 152 0 ????
0 0 17 128 287 154 136 119 142 144 0 ????0 0 17 367 368 126 26 119 154 152 0 ???
?0 0 15 368 492 0 26 369 0 17 126 368 157 367 123 370 146 0 ????0 0 17 26 368 36
7 157 17 270 268 0 ????0 0 17 157 368 26 126 21 282 155 0 ????0 0 17 282 279 122
 24 123 157 155 0 ????0 0 17 122 279 115 282 120 141 143 0 ????0 0 17 115 279 16
7 122 113 131 139 0 ????0 0 17 141 140 370 132 123 122 143 0 ????0 0 15 140 5 0
 142 371 0 17 370 140 142 141 119 126 146 0 ????0 0 17 142 140 132 370 124 128 1
44 0 ????0 0 14 371 6 0 290 369 140 3 372 +????0 0 14 290 1 0 0 371 287 3 373 +?
???0 0 14 369 24 0 371 281 368 3 374 +????0 0 50 372 34 0 371 0 373 0 +0 2 0 0 0
 -1 -1 0 0 50 373 43 0 290 372 374 0 +3.5 2 0 1 0 0 0 0 -1 50 374 44 0 369 373 3
75 0 +0 9.5 0 0 1 0 0 0 1 50 375 45 0 281 374 344 0 +-3.5 2 0 -1 0 0 0 0 1 14 28
1 27 0 369 134 279 3 375 +????0 0 50 344 46 0 134 375 342 0 +0 -5.5 0 0 -1 0 0 0
 -1 17 167 279 104 115 89 317 159 0 ????0 0 17 317 316 315 91 113 167 159 0 ????
0 0 17 275 277 278 16 22 289 274 0 ????0 0 17 273 366 264 270 18 24 265 0 ????0
 0 50 345 111 0 334 342 353 0 +0 0 4 0 0 -1 -1 0 0 14 334 141 0 294 340 332 3 34
5 -????325 352 50 353 109 0 340 345 350 0 +0 3 4 0 1 0 0 0 1 17 318 349 34 196 3
5 91 202 0 ????0 0 17 34 349 376 318 32 314 252 0 ????0 0 17 196 349 318 376 89
 104 194 0 ????0 0 17 376 349 196 34 102 174 172 0 ????0 0 17 174 322 31 323 32
 376 172 0 ????0 0 17 314 308 313 311 35 34 252 0 ????0 0 17 311 308 314 309 32
 31 259 0 ????0 0 1 0 
