600 0 2 0           
24 FBMach with ACIS - 6.0.3 13 ACIS 6.0.3 NT 24 Wed May 23 19:35:33 2001 
1 9.9999999999999995e-007 1e-010 
body $2 $3 $-1 $4 #
bdycol-kcp $-1 1 7 $5 $6 $7 $8 $9 $10 $11 #
model_id-kcp-attrib $-1 $-1 $-1 $0 1 990660931 80 -1471152127 1 #
lump $-1 $-1 $12 $0 #
transform $-1 1 0 0 0 1 0 0 0 1 0 0 0 1 no_rotate no_reflect no_shear #
body $13 $14 $-1 $15 #
body $16 $17 $-1 $18 #
body $19 $20 $-1 $21 #
body $22 $23 $-1 $24 #
body $25 $26 $-1 $27 #
body $28 $29 $-1 $30 #
body $31 $32 $-1 $33 #
shell $-1 $34 $-1 $35 $-1 $3 #
model_id-kcp-attrib $-1 $-1 $-1 $5 1 990660931 90 -1470496766 1 #
lump $-1 $-1 $36 $5 #
transform $-1 1 0 0 0 1 0 0 0 1 0.11222494175297704 -0.3214769010010684 0 1 no_rotate no_reflect no_shear #
rgb_color-st-attrib $-1 $37 $-1 $6 0.5 1 1 #
lump $-1 $-1 $38 $6 #
transform $-1 1 0 0 0 -3.8285889215894375e-016 -1 0 1 -3.8285889215894375e-016 0 -0.037499999999999999 -0.40600000000000008 1 rotate no_reflect no_shear #
rgb_color-st-attrib $-1 $39 $-1 $7 0.5 1 1 #
lump $-1 $-1 $40 $7 #
transform $-1 1 0 0 0 -3.8285889215894375e-016 -1 0 1 -3.8285889215894375e-016 0.40600000000000003 -0.037499999999999999 -2.3916284705079469e-017 1 rotate no_reflect no_shear #
rgb_color-st-attrib $-1 $41 $-1 $8 0.5 1 1 #
lump $-1 $-1 $42 $8 #
transform $-1 1 0 0 0 -3.8285889215894375e-016 -1 0 1 -3.8285889215894375e-016 -0.40600000000000003 -0.037499999999999999 -2.3916284705079469e-017 1 rotate no_reflect no_shear #
rgb_color-st-attrib $-1 $43 $-1 $9 0.5 1 1 #
lump $-1 $-1 $44 $9 #
transform $-1 1 0 0 0 -3.8285889215894375e-016 -1 0 1 -3.8285889215894375e-016 0 -0.037499999999999999 0.40599999999999997 1 rotate no_reflect no_shear #
rgb_color-st-attrib $-1 $45 $-1 $10 1 0.5 1 #
lump $-1 $-1 $46 $10 #
transform $-1 1 0 0 0 1 0 0 0 1 0.11222494175297704 -0.3214769010010684 0 1 no_rotate no_reflect no_shear #
rgb_color-st-attrib $-1 $47 $-1 $11 1 0.5 1 #
lump $-1 $-1 $48 $11 #
transform $-1 1 0 0 0 1 0 0 0 1 0.11222494175297704 -0.3214769010010684 0 1 no_rotate no_reflect no_shear #
shell $-1 $49 $-1 $50 $-1 $3 #
face $51 $52 $53 $12 $-1 $54 forward single #
shell $-1 $-1 $-1 $55 $-1 $14 #
model_id-kcp-attrib $-1 $-1 $16 $6 1 990660931 460 -1463025661 1 #
shell $-1 $-1 $-1 $56 $-1 $17 #
model_id-kcp-attrib $-1 $-1 $19 $7 1 990660931 470 -1462370300 1 #
shell $-1 $-1 $-1 $57 $-1 $20 #
model_id-kcp-attrib $-1 $-1 $22 $8 1 990660931 470 -1462370299 1 #
shell $-1 $-1 $-1 $58 $-1 $23 #
model_id-kcp-attrib $-1 $-1 $25 $9 1 990660931 470 -1462370298 1 #
shell $-1 $-1 $-1 $59 $-1 $26 #
model_id-kcp-attrib $-1 $-1 $28 $10 1 990660931 1642 -1469448185 1 #
shell $-1 $-1 $-1 $60 $-1 $29 #
model_id-kcp-attrib $-1 $-1 $31 $11 1 990660931 1742 -1462894584 1 #
shell $-1 $-1 $-1 $61 $-1 $32 #
shell $-1 $-1 $-1 $62 $-1 $3 #
face $63 $64 $65 $34 $-1 $66 forward single #
model_id-kcp-attrib $-1 $67 $-1 $35 1 990660931 80 -1471152127 2 #
face $68 $69 $70 $12 $-1 $71 forward single #
loop $-1 $-1 $72 $35 #
plane-surface $-1 0.75 -0.86499999999999999 -0.25 0.85749292571254432 0.51449575542752624 0 0 0 -1 forward_v I I I I #
face $-1 $73 $74 $36 $-1 $75 forward single #
face $-1 $76 $77 $38 $-1 $78 forward single #
face $-1 $79 $80 $40 $-1 $81 forward single #
face $-1 $82 $83 $42 $-1 $84 forward single #
face $-1 $85 $86 $44 $-1 $87 forward single #
face $-1 $88 $89 $46 $-1 $90 forward single #
face $-1 $91 $92 $48 $-1 $93 forward single #
face $94 $95 $96 $49 $-1 $97 reversed single #
model_id-kcp-attrib $-1 $98 $-1 $50 1 990660931 80 -1471152127 9 #
face $99 $100 $101 $34 $-1 $102 forward single #
loop $-1 $-1 $103 $50 #
plane-surface $-1 0.75 -0.83999999999999997 0.25 0.8384436163006368 0.54498835059541484 0 0 0 -1 forward_v I I I I #
pid_name-sg-attrib $-1 $-1 $51 $35 7 114 119 105 108 115 111 110 784252905 143 1 #
model_id-kcp-attrib $-1 $104 $-1 $52 1 990660931 80 -1471152127 3 #
face $105 $106 $107 $12 $-1 $108 forward single #
loop $-1 $109 $110 $52 #
cone-surface $-1 0.60216150904434795 -0.95370309457339097 -0.25 0.85749292571254432 0.51449575542752624 0 -0.0051449575542752597 0.0085749292571254392 0 1 I I 0 1 0.009999999999999995 forward I I I I #
coedge $-1 $72 $72 $111 $112 reversed $53 $-1 #
face $-1 $113 $114 $36 $-1 $115 reversed single #
loop $-1 $-1 $116 $55 #
plane-surface $-1 0 0 0.53100000000000003 0 0 1 1 0 0 forward_v I I I I #
face $-1 $117 $118 $38 $-1 $119 forward single #
loop $-1 $120 $121 $56 #
cone-surface $-1 0 -3.7285678297428415e-017 -0.047603629710820751 0 3.8285889215894375e-016 -1 0.017500000000000002 0 0 1 I I -0.86602540378443849 0.50000000000000022 0.017500000000000002 forward I I I I #
face $-1 $122 $123 $40 $-1 $124 forward single #
loop $-1 $125 $126 $57 #
cone-surface $-1 0 -5.6908117712500568e-018 -0.047603629710820751 0 3.8285889215894375e-016 -1 0.017500000000000002 0 0 1 I I -0.86602540378443849 0.50000000000000022 0.017500000000000002 forward I I I I #
face $-1 $127 $128 $42 $-1 $129 forward single #
loop $-1 $130 $131 $58 #
cone-surface $-1 0 -5.6908117712500568e-018 -0.047603629710820751 0 3.8285889215894375e-016 -1 0.017500000000000002 0 0 1 I I -0.86602540378443849 0.50000000000000022 0.017500000000000002 forward I I I I #
face $-1 $132 $133 $44 $-1 $134 forward single #
loop $-1 $135 $136 $59 #
cone-surface $-1 0 -3.7285678297428415e-017 -0.047603629710820751 0 3.8285889215894375e-016 -1 0.017500000000000002 0 0 1 I I -0.86602540378443849 0.50000000000000022 0.017500000000000002 forward I I I I #
face $-1 $137 $138 $46 $-1 $139 forward single #
loop $-1 $140 $141 $60 #
cone-surface $-1 -0.11222494175297704 0.44647690100106852 0 0 1 0 -0.062449999999999999 0 0 1 I I 0 -1 0.062449999999999999 forward I I I I #
face $-1 $142 $143 $48 $-1 $144 forward single #
loop $-1 $145 $146 $61 #
cone-surface $-1 -0.11222494175297704 0.32147690100106852 0 0 1 0 -0.199875 0 0 1 I I 0 -1 0.199875 forward I I I I #
model_id-kcp-attrib $-1 $147 $-1 $62 1 990660931 80 -1471152127 16 #
face $148 $149 $150 $49 $-1 $151 forward single #
loop $-1 $-1 $152 $62 #
plane-surface $-1 0 0.33500000000000002 0 0 -1 0 0 0 -1 forward_v I I I I #
pid_name-sg-attrib $-1 $-1 $63 $50 7 114 119 105 108 115 111 110 784252905 150 1 #
model_id-kcp-attrib $-1 $153 $-1 $64 1 990660931 80 -1471152127 10 #
face $154 $155 $156 $34 $-1 $157 forward single #
loop $-1 $158 $159 $64 #
cone-surface $-1 0.60237918184205397 -0.93595353180266505 0.25 0.8384436163006368 0.54498835059541484 0 -0.0054498835059541397 0.0083844361630063691 0 1 I I 0 1 0.0099999999999999967 forward I I I I #
coedge $-1 $103 $103 $160 $161 reversed $65 $-1 #
pid_name-sg-attrib $-1 $-1 $68 $52 7 114 119 105 108 115 111 110 784252905 144 1 #
model_id-kcp-attrib $-1 $162 $-1 $69 1 990660931 80 -1471152127 4 #
face $163 $164 $165 $12 $-1 $166 forward single #
loop $-1 $167 $168 $69 #
torus-surface $-1 0.55071193350159597 -0.86795380200213701 -0.25 0 0 1 0.099999999999999895 0.01 1 0 0 forward_v I I I I #
loop $-1 $-1 $111 $52 #
coedge $-1 $110 $110 $168 $169 forward $70 $-1 #
coedge $-1 $111 $111 $72 $112 forward $109 $-1 #
edge $-1 $170 -6.2831853071795862 $170 0 $72 $171 reversed 7 unknown #
face $-1 $172 $173 $36 $-1 $174 reversed single #
loop $-1 $-1 $175 $73 #
plane-surface $-1 0 0 -0.53100000000000003 0 0 1 1 0 0 forward_v I I I I #
coedge $-1 $176 $177 $178 $179 forward $74 $-1 #
face $-1 $-1 $180 $38 $-1 $181 forward single #
loop $-1 $182 $183 $76 #
cone-surface $-1 0 0 0 0 0 1 0.035000000000000003 0 0 1 I I 0 1 0.035000000000000003 forward I I I I #
loop $-1 $-1 $184 $56 #
coedge $-1 $121 $121 $183 $185 forward $77 $-1 #
face $-1 $-1 $186 $40 $-1 $187 forward single #
loop $-1 $188 $189 $79 #
cone-surface $-1 0 0 0 0 0 1 0.035000000000000003 0 0 1 I I 0 1 0.035000000000000003 forward I I I I #
loop $-1 $-1 $190 $57 #
coedge $-1 $126 $126 $189 $191 forward $80 $-1 #
face $-1 $-1 $192 $42 $-1 $193 forward single #
loop $-1 $194 $195 $82 #
cone-surface $-1 0 0 0 0 0 1 0.035000000000000003 0 0 1 I I 0 1 0.035000000000000003 forward I I I I #
loop $-1 $-1 $196 $58 #
coedge $-1 $131 $131 $195 $197 forward $83 $-1 #
face $-1 $-1 $198 $44 $-1 $199 forward single #
loop $-1 $200 $201 $85 #
cone-surface $-1 0 0 0 0 0 1 0.035000000000000003 0 0 1 I I 0 1 0.035000000000000003 forward I I I I #
loop $-1 $-1 $202 $59 #
coedge $-1 $136 $136 $201 $203 forward $86 $-1 #
face $-1 $204 $205 $46 $-1 $206 forward single #
loop $-1 $-1 $207 $88 #
plane-surface $-1 0.64322494175297706 0.44647690100106852 -0.53100000000000003 1 0 0 0 0 -1 forward_v I I I I #
loop $-1 $-1 $208 $60 #
coedge $-1 $141 $141 $209 $210 forward $89 $-1 #
face $-1 $211 $212 $48 $-1 $213 forward single #
loop $-1 $-1 $214 $91 #
plane-surface $-1 0.64322494175297706 0.32147690100106852 -0.53100000000000003 1 0 0 0 0 -1 forward_v I I I I #
loop $-1 $-1 $215 $61 #
coedge $-1 $146 $146 $216 $217 forward $92 $-1 #
pid_name-sg-attrib $-1 $-1 $94 $62 7 114 119 105 108 115 111 110 784252905 157 1 #
model_id-kcp-attrib $-1 $218 $-1 $95 1 990660931 80 -1471152127 17 #
face $219 $220 $221 $49 $-1 $222 forward single #
loop $-1 $223 $224 $95 #
cone-surface $-1 0 0.39024999999999999 0 0 -1 0 -0.062449999999999999 0 0 1 I I 0 1 0.062449999999999999 forward I I I I #
coedge $-1 $152 $152 $224 $225 reversed $96 $-1 #
pid_name-sg-attrib $-1 $-1 $99 $64 7 114 119 105 108 115 111 110 784252905 151 1 #
model_id-kcp-attrib $-1 $226 $-1 $100 1 990660931 80 -1471152127 11 #
face $227 $228 $229 $34 $-1 $230 forward single #
loop $-1 $231 $232 $100 #
torus-surface $-1 0.54788034678251296 -0.85210917017260202 0.25 0 0 1 0.10000000000000001 0.01 1 0 0 forward_v I I I I #
loop $-1 $-1 $160 $64 #
coedge $-1 $159 $159 $232 $233 forward $101 $-1 #
coedge $-1 $160 $160 $103 $161 forward $158 $-1 #
edge $-1 $234 -6.2831853071795862 $234 0 $103 $235 reversed 7 unknown #
pid_name-sg-attrib $-1 $-1 $105 $69 7 114 119 105 108 115 111 110 784252905 145 1 #
model_id-kcp-attrib $-1 $236 $-1 $106 1 990660931 80 -1471152127 5 #
face $237 $238 $239 $12 $-1 $240 forward single #
loop $-1 $241 $242 $106 #
cone-surface $-1 0.29751112970035398 -0.82929852998188502 -0.25 0.85117086972399025 -0.52488870299646007 0 0.0052488870299646001 0.0085117086972398993 0 1 I I 0 1 0.0099999999999999967 forward I I I I #
loop $-1 $-1 $243 $69 #
coedge $-1 $168 $168 $110 $169 reversed $107 $-1 #
edge $-1 $244 -3.1415926535897931 $244 3.1415926535897931 $168 $245 forward 7 unknown #
vertex $-1 $112 $246 #
ellipse-curve $-1 0.75 -0.86499999999999999 -0.25 0.8574929257125451 0.51449575542752513 0 0.0051449575542752398 -0.0085749292571254392 0 1 I I #
face $-1 $247 $248 $36 $-1 $249 reversed single #
loop $-1 $-1 $250 $113 #
plane-surface $-1 0 -0.65647690100106848 0 0 1 0 0 0 1 forward_v I I I I #
coedge $-1 $251 $252 $253 $254 forward $114 $-1 #
coedge $-1 $255 $116 $256 $257 forward $74 $-1 #
coedge $-1 $116 $255 $258 $259 forward $74 $-1 #
coedge $-1 $260 $261 $116 $179 reversed $262 $-1 #
edge $-1 $263 -0.65647690100106848 $264 0.65647690100106848 $178 $265 forward 7 unknown #
loop $-1 $-1 $266 $117 #
plane-surface $-1 0 0 0.037500000000000012 0 0 1 1 0 0 forward_v I I I I #
loop $-1 $-1 $267 $76 #
coedge $-1 $183 $183 $121 $185 reversed $118 $-1 #
coedge $-1 $184 $184 $-1 $268 reversed $120 $-1 #
edge $-1 $269 0 $269 6.2831853071795862 $183 $270 forward 7 unknown #
loop $-1 $-1 $271 $122 #
plane-surface $-1 0 0 0.037500000000000012 0 0 1 1 0 0 forward_v I I I I #
loop $-1 $-1 $272 $79 #
coedge $-1 $189 $189 $126 $191 reversed $123 $-1 #
coedge $-1 $190 $190 $-1 $273 reversed $125 $-1 #
edge $-1 $274 0 $274 6.2831853071795862 $189 $275 forward 7 unknown #
loop $-1 $-1 $276 $127 #
plane-surface $-1 0 0 0.037500000000000012 0 0 1 1 0 0 forward_v I I I I #
loop $-1 $-1 $277 $82 #
coedge $-1 $195 $195 $131 $197 reversed $128 $-1 #
coedge $-1 $196 $196 $-1 $278 reversed $130 $-1 #
edge $-1 $279 0 $279 6.2831853071795862 $195 $280 forward 7 unknown #
loop $-1 $-1 $281 $132 #
plane-surface $-1 0 0 0.037500000000000012 0 0 1 1 0 0 forward_v I I I I #
loop $-1 $-1 $282 $85 #
coedge $-1 $201 $201 $136 $203 reversed $133 $-1 #
coedge $-1 $202 $202 $-1 $283 reversed $135 $-1 #
edge $-1 $284 0 $284 6.2831853071795862 $201 $285 forward 7 unknown #
face $-1 $286 $287 $46 $-1 $288 forward single #
loop $-1 $-1 $289 $137 #
plane-surface $-1 0.64322494175297706 0.44647690100106852 0.53100000000000003 0 0 1 1 0 0 forward_v I I I I #
coedge $-1 $290 $291 $292 $293 forward $138 $-1 #
coedge $-1 $208 $208 $294 $295 reversed $140 $-1 #
coedge $-1 $209 $209 $141 $210 reversed $296 $-1 #
edge $-1 $297 -3.1415926535897931 $297 3.1415926535897931 $141 $298 forward 7 unknown #
face $-1 $299 $300 $48 $-1 $301 forward single #
loop $-1 $-1 $302 $142 #
plane-surface $-1 0.64322494175297706 0.32147690100106852 0.53100000000000003 0 0 1 1 0 0 forward_v I I I I #
coedge $-1 $303 $304 $305 $306 forward $143 $-1 #
coedge $-1 $215 $215 $307 $308 reversed $145 $-1 #
coedge $-1 $216 $216 $146 $217 reversed $309 $-1 #
edge $-1 $310 0 $310 6.2831853071795862 $146 $311 forward 7 unknown #
pid_name-sg-attrib $-1 $-1 $148 $95 7 114 119 105 108 115 111 110 784252905 158 1 #
model_id-kcp-attrib $-1 $312 $-1 $149 1 990660931 80 -1471152127 18 #
face $313 $314 $315 $49 $-1 $316 forward single #
loop $-1 $317 $318 $149 #
cone-surface $-1 0 0.39024999999999999 0 0 -1 0 -0.20000000000000001 0 0 1 I I 0 1 0.20000000000000001 forward I I I I #
loop $-1 $-1 $319 $95 #
coedge $-1 $224 $224 $152 $225 forward $150 $-1 #
edge $320 $321 -6.2831853071795862 $321 0 $152 $322 reversed 7 unknown #
pid_name-sg-attrib $-1 $-1 $154 $100 7 114 119 105 108 115 111 110 784252905 152 1 #
model_id-kcp-attrib $-1 $323 $-1 $155 1 990660931 80 -1471152127 12 #
face $324 $325 $326 $34 $-1 $327 forward single #
loop $-1 $328 $329 $155 #
cone-surface $-1 0.298550424457247 -0.81913025467434897 0.25 0.85749292571254399 -0.51449575542752701 0 0.0051449575542752701 0.0085749292571254392 0 1 I I 0 1 0.01 forward I I I I #
loop $-1 $-1 $330 $100 #
coedge $-1 $232 $232 $159 $233 reversed $156 $-1 #
edge $-1 $331 -3.1415926535897931 $331 3.1415926535897931 $232 $332 forward 7 unknown #
vertex $-1 $161 $333 #
ellipse-curve $-1 0.75 -0.83999999999999997 0.25 0.83844361630064268 0.54498835059540573 0 0.0054498835059540998 -0.0083844361630064403 0 1 I I #
pid_name-sg-attrib $-1 $-1 $163 $106 7 114 119 105 108 115 111 110 784252905 146 1 #
model_id-kcp-attrib $-1 $334 $-1 $164 1 990660931 80 -1471152127 6 #
face $335 $336 $337 $12 $-1 $338 forward single #
loop $-1 $339 $340 $164 #
torus-surface $-1 0.34999999999999998 -0.74418144300948597 -0.25 0 0 1 0.10000000000000001 0.01 1 0 0 forward_v I I I I #
loop $-1 $-1 $341 $106 #
coedge $-1 $242 $242 $340 $342 forward $165 $-1 #
coedge $-1 $243 $243 $341 $343 forward $167 $-1 #
vertex $-1 $169 $344 #
ellipse-curve $-1 0.60216150904434795 -0.95370309457339097 -0.25 0.8574929257125451 0.51449575542752513 0 0.0051449575542752398 -0.0085749292571254392 0 1 I I #
point $-1 0.75514495755427502 -0.87357492925712599 -0.25 #
face $345 $346 $347 $36 $-1 $348 reversed single #
loop $-1 $-1 $349 $172 #
plane-surface $-1 -0.64322494175297706 0 0 1 0 0 0 0 -1 forward_v I I I I #
coedge $-1 $350 $258 $351 $352 forward $173 $-1 #
coedge $-1 $353 $175 $350 $354 forward $114 $-1 #
coedge $-1 $175 $353 $355 $356 forward $114 $-1 #
coedge $-1 $261 $260 $175 $254 reversed $262 $-1 #
edge $-1 $357 -0.65647690100106848 $358 0.65647690100106848 $253 $359 forward 7 unknown #
coedge $-1 $177 $176 $360 $361 forward $74 $-1 #
coedge $-1 $362 $363 $176 $257 reversed $347 $-1 #
edge $-1 $264 -0.64322494175297706 $364 0.64322494175297706 $256 $365 forward 7 unknown #
coedge $-1 $250 $366 $177 $259 reversed $173 $-1 #
edge $-1 $367 -0.64322494175297706 $263 0.64322494175297706 $258 $368 forward 7 unknown #
coedge $-1 $253 $178 $366 $369 forward $262 $-1 #
coedge $-1 $178 $253 $362 $370 reversed $262 $-1 #
loop $-1 $-1 $260 $346 #
vertex $-1 $179 $371 #
vertex $-1 $179 $372 #
straight-curve $-1 0.64322494175297706 0 0.53100000000000003 0 1 0 I I #
coedge $-1 $266 $266 $267 $373 forward $180 $-1 #
coedge $-1 $267 $267 $266 $373 reversed $182 $-1 #
edge $-1 $374 1 $374 0 $184 $-1 forward 7 unknown #
vertex $-1 $185 $375 #
ellipse-curve $-1 0 0 -0.037500000000000012 0 0 -1 0.035000000000000003 0 0 1 I I #
coedge $-1 $271 $271 $272 $376 forward $186 $-1 #
coedge $-1 $272 $272 $271 $376 reversed $188 $-1 #
edge $-1 $377 1 $377 0 $190 $-1 forward 7 unknown #
vertex $-1 $191 $378 #
ellipse-curve $-1 0 0 -0.037500000000000012 0 0 -1 0.035000000000000003 0 0 1 I I #
coedge $-1 $276 $276 $277 $379 forward $192 $-1 #
coedge $-1 $277 $277 $276 $379 reversed $194 $-1 #
edge $-1 $380 1 $380 0 $196 $-1 forward 7 unknown #
vertex $-1 $197 $381 #
ellipse-curve $-1 0 0 -0.037500000000000012 0 0 -1 0.035000000000000003 0 0 1 I I #
coedge $-1 $281 $281 $282 $382 forward $198 $-1 #
coedge $-1 $282 $282 $281 $382 reversed $200 $-1 #
edge $-1 $383 1 $383 0 $202 $-1 forward 7 unknown #
vertex $-1 $203 $384 #
ellipse-curve $-1 0 0 -0.037500000000000012 0 0 -1 0.035000000000000003 0 0 1 I I #
face $-1 $385 $386 $46 $-1 $387 forward single #
loop $-1 $-1 $388 $204 #
plane-surface $-1 -0.64322494175297706 0.44647690100106852 0.53100000000000003 -1 0 0 0 0 1 forward_v I I I I #
coedge $-1 $389 $390 $391 $392 forward $205 $-1 #
coedge $-1 $393 $207 $390 $394 reversed $138 $-1 #
coedge $-1 $207 $393 $395 $396 forward $138 $-1 #
coedge $-1 $397 $391 $207 $293 reversed $398 $-1 #
edge $-1 $399 -0.53100000000000003 $400 0.53100000000000003 $207 $401 forward 7 unknown #
coedge $-1 $294 $294 $208 $295 forward $402 $-1 #
edge $-1 $403 -3.1415926535897931 $403 3.1415926535897931 $208 $404 forward 7 unknown #
loop $-1 $-1 $209 $385 #
vertex $-1 $210 $405 #
ellipse-curve $-1 -0.11222494175297704 0.65647690100106848 0 0 1 0 -0.062449999999999999 0 0 1 I I #
face $-1 $406 $407 $48 $-1 $408 forward single #
loop $-1 $-1 $409 $211 #
plane-surface $-1 -0.64322494175297706 0.32147690100106852 0.53100000000000003 -1 0 0 0 0 1 forward_v I I I I #
coedge $-1 $410 $411 $412 $413 forward $212 $-1 #
coedge $-1 $414 $214 $411 $415 reversed $143 $-1 #
coedge $-1 $214 $414 $416 $417 forward $143 $-1 #
coedge $-1 $418 $412 $214 $306 reversed $419 $-1 #
edge $-1 $420 -0.53100000000000003 $421 0.53100000000000003 $214 $422 forward 7 unknown #
coedge $-1 $307 $307 $215 $308 forward $423 $-1 #
edge $-1 $424 -1.224646799147352e-016 $424 6.2831853071795862 $215 $425 forward 7 unknown #
loop $-1 $-1 $216 $406 #
vertex $-1 $217 $426 #
ellipse-curve $-1 -0.11222494175297704 0.44647690100106852 0 0 1 0 -0.199875 0 0 1 I I #
pid_name-sg-attrib $-1 $-1 $219 $149 7 114 119 105 108 115 111 110 784252905 159 1 #
model_id-kcp-attrib $-1 $427 $-1 $220 1 990660931 80 -1471152127 19 #
face $428 $429 $430 $49 $-1 $431 forward single #
loop $-1 $-1 $432 $220 #
plane-surface $-1 0 -0.77000000000000002 0 0 -1 0 0 0 -1 forward_v I I I I #
loop $-1 $-1 $433 $149 #
coedge $-1 $318 $318 $434 $435 forward $221 $-1 #
coedge $-1 $319 $319 $436 $437 forward $223 $-1 #
attrib_edge_convexity-kcp-attrib $-1 $438 $-1 $225 1 #
vertex $-1 $225 $439 #
ellipse-curve $-1 0 0.33500000000000002 0 0 1 0 0.062449999999999999 0 0 1 I I #
pid_name-sg-attrib $-1 $-1 $227 $155 7 114 119 105 108 115 111 110 784252905 153 1 #
model_id-kcp-attrib $-1 $440 $-1 $228 1 990660931 80 -1471152127 13 #
face $441 $442 $443 $34 $-1 $444 forward single #
loop $-1 $445 $446 $228 #
torus-surface $-1 0.34999999999999998 -0.733380962103094 0.25 0 0 1 0.10000000000000001 0.01 1 0 0 forward_v I I I I #
loop $-1 $-1 $447 $155 #
coedge $-1 $329 $329 $446 $448 forward $229 $-1 #
coedge $-1 $330 $330 $447 $449 forward $231 $-1 #
vertex $-1 $233 $450 #
ellipse-curve $-1 0.60237918184205397 -0.93595353180266505 0.25 0.83844361630063802 0.54498835059541295 0 0.0054498835059540998 -0.0083844361630063292 0 1 I I #
point $-1 0.75544988350595399 -0.84838443616300696 0.25 #
pid_name-sg-attrib $-1 $-1 $237 $164 7 114 119 105 108 115 111 110 784252905 147 1 #
model_id-kcp-attrib $-1 $451 $-1 $238 1 990660931 80 -1471152127 7 #
face $452 $-1 $453 $12 $-1 $454 reversed single #
loop $-1 $455 $456 $238 #
cone-surface $-1 0.25 -0.64000000000000001 -0.25 0 -1 0 0.01 0 0 1 I I 0 1 0.01 forward I I I I #
loop $-1 $-1 $457 $164 #
coedge $-1 $340 $340 $242 $342 reversed $239 $-1 #
coedge $-1 $341 $341 $243 $343 reversed $241 $-1 #
edge $-1 $458 -3.1415926535897931 $458 3.1415926535897931 $340 $459 forward 7 unknown #
edge $-1 $460 -3.1415926535897931 $460 3.1415926535897931 $341 $461 forward 7 unknown #
point $-1 0.59701655149007304 -0.94512816531626598 -0.25 #
model_id-kcp-attrib $-1 $-1 $-1 $247 1 990660931 90 -1470496766 2 #
face $-1 $-1 $262 $36 $-1 $462 reversed single #
loop $-1 $-1 $362 $247 #
plane-surface $-1 0 0.65647690100106848 0 0 -1 0 0 0 -1 forward_v I I I I #
coedge $-1 $463 $360 $363 $464 forward $248 $-1 #
coedge $-1 $366 $250 $251 $354 reversed $173 $-1 #
coedge $-1 $360 $463 $250 $352 reversed $248 $-1 #
edge $-1 $367 -0.53100000000000003 $465 0.53100000000000003 $351 $466 forward 7 unknown #
coedge $-1 $252 $251 $463 $467 forward $114 $-1 #
edge $-1 $358 -0.64322494175297706 $465 0.64322494175297706 $350 $468 forward 7 unknown #
coedge $-1 $363 $362 $252 $356 reversed $347 $-1 #
edge $-1 $469 -0.64322494175297706 $357 0.64322494175297706 $355 $470 forward 7 unknown #
vertex $-1 $254 $471 #
vertex $-1 $369 $472 #
straight-curve $-1 0.64322494175297706 0 -0.53100000000000003 0 -1 0 I I #
coedge $-1 $349 $351 $255 $361 reversed $248 $-1 #
edge $-1 $364 -0.65647690100106848 $367 0.65647690100106848 $360 $473 forward 7 unknown #
coedge $-1 $355 $256 $261 $370 forward $347 $-1 #
coedge $-1 $256 $355 $349 $464 reversed $347 $-1 #
vertex $-1 $257 $474 #
straight-curve $-1 0 0.65647690100106848 0.53100000000000003 -1 0 0 I I #
coedge $-1 $258 $350 $260 $369 reversed $173 $-1 #
vertex $-1 $361 $475 #
straight-curve $-1 0 -0.65647690100106848 0.53100000000000003 1 0 0 I I #
edge $-1 $263 -0.53100000000000003 $358 0.53100000000000003 $260 $476 forward 7 unknown #
edge $-1 $264 -0.53100000000000003 $357 0.53100000000000003 $261 $477 forward 7 unknown #
point $-1 0.64322494175297706 -0.65647690100106848 0.53100000000000003 #
point $-1 0.64322494175297706 0.65647690100106848 0.53100000000000003 #
edge $-1 $478 0 $478 6.2831853071795862 $266 $479 forward 7 unknown #
vertex $-1 $268 $480 #
point $-1 0.035000000000000003 0 -0.037500000000000012 #
edge $-1 $481 0 $481 6.2831853071795862 $271 $482 forward 7 unknown #
vertex $-1 $273 $483 #
point $-1 0.035000000000000003 0 -0.037500000000000012 #
edge $-1 $484 0 $484 6.2831853071795862 $276 $485 forward 7 unknown #
vertex $-1 $278 $486 #
point $-1 0.035000000000000003 0 -0.037500000000000012 #
edge $-1 $487 0 $487 6.2831853071795862 $281 $488 forward 7 unknown #
vertex $-1 $283 $489 #
point $-1 0.035000000000000003 0 -0.037500000000000012 #
face $-1 $490 $398 $46 $-1 $491 forward single #
loop $-1 $-1 $492 $286 #
plane-surface $-1 -0.64322494175297706 0.44647690100106852 -0.53100000000000003 0 0 -1 -1 0 0 forward_v I I I I #
coedge $-1 $493 $494 $495 $496 forward $287 $-1 #
coedge $-1 $497 $289 $494 $498 reversed $205 $-1 #
coedge $-1 $289 $497 $290 $394 forward $205 $-1 #
coedge $-1 $292 $495 $289 $392 reversed $398 $-1 #
edge $-1 $400 -0.69933741262946558 $499 0.58711247087648855 $289 $500 forward 7 unknown #
coedge $-1 $291 $290 $501 $502 reversed $138 $-1 #
edge $-1 $503 0 $400 0.20999999999999996 $390 $504 forward 7 unknown #
coedge $-1 $505 $492 $291 $396 reversed $386 $-1 #
edge $-1 $506 0 $399 0.20999999999999996 $291 $507 forward 7 unknown #
coedge $-1 $495 $292 $492 $508 reversed $398 $-1 #
loop $-1 $296 $292 $385 #
vertex $-1 $396 $509 #
vertex $-1 $394 $510 #
straight-curve $-1 0.64322494175297706 0.65647690100106848 0 0 0 1 I I #
loop $-1 $-1 $294 $490 #
vertex $-1 $295 $511 #
ellipse-curve $-1 -0.11222494175297704 0.44647690100106852 0 0 1 0 -0.062449999999999999 0 0 1 I I #
point $-1 -0.049774941752977031 0.65647690100106837 0 #
face $-1 $512 $419 $48 $-1 $513 forward single #
loop $-1 $-1 $514 $299 #
plane-surface $-1 -0.64322494175297706 0.32147690100106852 -0.53100000000000003 0 0 -1 -1 0 0 forward_v I I I I #
coedge $-1 $515 $516 $517 $518 forward $300 $-1 #
coedge $-1 $519 $302 $516 $520 reversed $212 $-1 #
coedge $-1 $302 $519 $303 $415 forward $212 $-1 #
coedge $-1 $305 $517 $302 $413 reversed $419 $-1 #
edge $-1 $421 -0.69933741262946558 $521 0.58711247087648855 $302 $522 forward 7 unknown #
coedge $-1 $304 $303 $523 $524 reversed $143 $-1 #
edge $-1 $525 0 $421 0.125 $411 $526 forward 7 unknown #
coedge $-1 $527 $514 $304 $417 reversed $407 $-1 #
edge $-1 $528 0 $420 0.125 $304 $529 forward 7 unknown #
coedge $-1 $517 $305 $514 $530 reversed $419 $-1 #
loop $-1 $309 $305 $406 #
vertex $-1 $417 $531 #
vertex $-1 $415 $532 #
straight-curve $-1 0.64322494175297706 0.44647690100106852 0 0 0 1 I I #
loop $-1 $-1 $307 $512 #
vertex $-1 $308 $533 #
ellipse-curve $-1 -0.11222494175297704 0.32147690100106852 0 0 1 0 -0.199875 0 0 1 I I #
point $-1 -0.31209994175297706 0.4464769010010684 0 #
pid_name-sg-attrib $-1 $-1 $313 $220 7 114 119 105 108 115 111 110 784252905 160 1 #
model_id-kcp-attrib $-1 $534 $-1 $314 1 990660931 80 -1471152127 20 #
face $535 $536 $537 $49 $-1 $538 forward single #
loop $-1 $539 $540 $314 #
cone-surface $-1 0 0.39024999999999999 0 0 -1 0 -0.53100000000000003 0 0 1 I I 0 1 0.53100000000000003 forward I I I I #
coedge $-1 $432 $432 $433 $541 reversed $315 $-1 #
coedge $-1 $433 $433 $432 $541 forward $317 $-1 #
coedge $-1 $434 $434 $318 $435 reversed $542 $-1 #
edge $-1 $543 -6.2831853071795862 $543 0 $434 $544 reversed 7 unknown #
coedge $-1 $436 $436 $319 $437 reversed $545 $-1 #
edge $-1 $546 -6.2831853071795862 $546 -1.2246063538223778e-016 $436 $547 reversed 7 unknown #
convexity-sys-attrib $-1 $-1 $320 $225 #
point $-1 0.062449999999999999 0.33500000000000002 0 #
pid_name-sg-attrib $-1 $-1 $324 $228 7 114 119 105 108 115 111 110 784252905 154 1 #
model_id-kcp-attrib $-1 $548 $-1 $325 1 990660931 80 -1471152127 14 #
face $549 $-1 $550 $34 $-1 $551 reversed single #
loop $-1 $552 $553 $325 #
cone-surface $-1 0.25 -0.64000000000000001 0.25 0 -1 0 0.01 0 0 1 I I 0 1 0.01 forward I I I I #
loop $-1 $-1 $554 $228 #
coedge $-1 $446 $446 $329 $448 reversed $326 $-1 #
coedge $-1 $447 $447 $330 $449 reversed $328 $-1 #
edge $-1 $555 -3.1415926535897931 $555 3.1415926535897931 $446 $556 forward 7 unknown #
edge $-1 $557 -3.1415926535897931 $557 3.1415926535897931 $447 $558 forward 7 unknown #
point $-1 0.59692929833609998 -0.92756909563965895 0.25 #
pid_name-sg-attrib $-1 $-1 $335 $238 7 114 119 105 108 115 111 110 784252905 148 1 #
model_id-kcp-attrib $-1 $559 $-1 $336 1 990660931 80 -1471152127 8 #
loop $-1 $-1 $560 $336 #
plane-surface $-1 0.25 -0.64000000000000001 -0.25 0 -1 0 0 0 -1 forward_v I I I I #
loop $-1 $-1 $561 $238 #
coedge $-1 $456 $456 $560 $562 forward $337 $-1 #
coedge $-1 $457 $457 $561 $563 forward $339 $-1 #
vertex $-1 $342 $564 #
ellipse-curve $-1 0.29751112970035398 -0.82929852998188502 -0.25 0.85117086972399025 -0.52488870299646007 0 -0.00524888702996462 -0.0085117086972399392 0 1 I I #
vertex $-1 $343 $565 #
ellipse-curve $-1 0.49822306320194998 -0.95307088897453596 -0.25 0.8511708697239867 -0.52488870299646573 0 0.0052488870299646799 0.0085117086972398299 0 1 I I #
plane-surface $-1 0.64322494175297706 0 0 -1 0 0 0 0 1 forward_v I I I I #
coedge $-1 $351 $349 $353 $467 reversed $248 $-1 #
edge $-1 $364 -0.53100000000000003 $469 0.53100000000000003 $363 $566 forward 7 unknown #
vertex $-1 $467 $567 #
straight-curve $-1 -0.64322494175297706 -0.65647690100106848 0 0 0 -1 I I #
edge $-1 $465 -0.65647690100106848 $469 0.65647690100106848 $463 $568 forward 7 unknown #
straight-curve $-1 0 -0.65647690100106848 -0.53100000000000003 -1 0 0 I I #
vertex $-1 $356 $569 #
straight-curve $-1 0 0.65647690100106848 -0.53100000000000003 1 0 0 I I #
point $-1 0.64322494175297706 0.65647690100106848 -0.53100000000000003 #
point $-1 0.64322494175297706 -0.65647690100106848 -0.53100000000000003 #
straight-curve $-1 -0.64322494175297706 0 0.53100000000000003 0 -1 0 I I #
point $-1 -0.64322494175297706 0.65647690100106848 0.53100000000000003 #
point $-1 -0.64322494175297706 -0.65647690100106848 0.53100000000000003 #
straight-curve $-1 0.64322494175297706 -0.65647690100106848 0 0 0 -1 I I #
straight-curve $-1 0.64322494175297706 0.65647690100106848 0 0 0 -1 I I #
vertex $-1 $373 $570 #
ellipse-curve $-1 0 0 0.037500000000000012 0 0 1 0.035000000000000003 0 0 1 I I #
point $-1 0 -3.3417413819560269e-017 -0.057707259421639207 #
vertex $-1 $376 $571 #
ellipse-curve $-1 0 0 0.037500000000000012 0 0 1 0.035000000000000003 0 0 1 I I #
point $-1 0 -1.8225472933819138e-018 -0.057707259421639207 #
vertex $-1 $379 $572 #
ellipse-curve $-1 0 0 0.037500000000000012 0 0 1 0.035000000000000003 0 0 1 I I #
point $-1 0 -1.8225472933819138e-018 -0.057707259421639207 #
vertex $-1 $382 $573 #
ellipse-curve $-1 0 0 0.037500000000000012 0 0 1 0.035000000000000003 0 0 1 I I #
point $-1 0 -3.3417413819560269e-017 -0.057707259421639207 #
face $-1 $-1 $574 $46 $-1 $575 reversed single #
plane-surface $-1 -0.0082148477433012009 0.65647690100106848 -4.3667604760156984e-020 -6.4607517944483112e-033 1 6.304476908218445e-033 0 -6.304476908218445e-033 1 forward_v I I I I #
coedge $-1 $395 $576 $397 $508 forward $386 $-1 #
coedge $-1 $577 $388 $576 $578 reversed $287 $-1 #
coedge $-1 $388 $577 $389 $498 forward $287 $-1 #
coedge $-1 $391 $397 $388 $496 reversed $398 $-1 #
edge $-1 $499 -0.53100000000000003 $579 0.53100000000000003 $388 $580 forward 7 unknown #
coedge $-1 $390 $389 $581 $582 reversed $205 $-1 #
edge $-1 $583 0 $499 0.20999999999999996 $494 $584 forward 7 unknown #
vertex $-1 $498 $585 #
straight-curve $-1 -0.056112470876488518 0.65647690100106848 0.53100000000000003 -1 0 0 I I #
coedge $-1 $581 $586 $393 $502 forward $574 $-1 #
edge $587 $506 -0.53100000000000003 $503 0.53100000000000003 $393 $588 forward 7 unknown #
vertex $-1 $502 $589 #
straight-curve $-1 0.64322494175297706 0.44647690100106852 0.53100000000000003 0 1 0 I I #
coedge $-1 $576 $395 $586 $590 reversed $386 $-1 #
vertex $-1 $590 $591 #
straight-curve $-1 0.64322494175297706 0.44647690100106852 -0.53100000000000003 0 1 0 I I #
edge $-1 $579 -0.58711247087648855 $399 0.69933741262946558 $492 $592 forward 7 unknown #
point $-1 0.64322494175297706 0.65647690100106848 -0.53100000000000003 #
point $-1 0.64322494175297706 0.65647690100106848 0.53100000000000003 #
point $-1 -0.049774941752977038 0.4464769010010684 7.6476666796207499e-018 #
face $-1 $-1 $593 $48 $-1 $594 reversed single #
plane-surface $-1 -0.027509510054687467 0.44647690100106852 -6.727227747129662e-019 7.4678515376068334e-032 1 1.1918644094471794e-032 0 -1.1918644094471794e-032 1 forward_v I I I I #
coedge $-1 $416 $595 $418 $530 forward $407 $-1 #
coedge $-1 $596 $409 $595 $597 reversed $300 $-1 #
coedge $-1 $409 $596 $410 $520 forward $300 $-1 #
coedge $-1 $412 $418 $409 $518 reversed $419 $-1 #
edge $-1 $521 -0.53100000000000003 $598 0.53100000000000003 $409 $599 forward 7 unknown #
coedge $-1 $411 $410 $600 $601 reversed $212 $-1 #
edge $-1 $602 0 $521 0.125 $516 $603 forward 7 unknown #
vertex $-1 $520 $604 #
straight-curve $-1 -0.056112470876488518 0.44647690100106852 0.53100000000000003 -1 0 0 I I #
coedge $-1 $600 $605 $414 $524 forward $593 $-1 #
edge $606 $528 -0.53100000000000003 $525 0.53100000000000003 $414 $607 forward 7 unknown #
vertex $-1 $524 $608 #
straight-curve $-1 0.64322494175297706 0.32147690100106852 0.53100000000000003 0 1 0 I I #
coedge $-1 $595 $416 $605 $609 reversed $407 $-1 #
vertex $-1 $609 $610 #
straight-curve $-1 0.64322494175297706 0.32147690100106852 -0.53100000000000003 0 1 0 I I #
edge $-1 $598 -0.58711247087648855 $420 0.69933741262946558 $514 $611 forward 7 unknown #
point $-1 0.64322494175297706 0.44647690100106852 -0.53100000000000003 #
point $-1 0.64322494175297706 0.44647690100106852 0.53100000000000003 #
point $-1 -0.31209994175297706 0.3214769010010684 -2.44776278979577e-017 #
pid_name-sg-attrib $-1 $-1 $428 $314 7 114 119 105 108 115 111 110 784252905 161 1 #
model_id-kcp-attrib $-1 $612 $-1 $429 1 990660931 80 -1471152127 21 #
face $613 $614 $615 $49 $-1 $616 forward single #
loop $-1 $617 $618 $429 #
torus-surface $-1 0.25 -0.64000000000000001 0.25 0 1 0 0.070000000000000007 0.029999999999999999 0 0 1 forward_v I I I I #
loop $-1 $-1 $619 $314 #
coedge $-1 $540 $540 $620 $621 forward $430 $-1 #
edge $-1 $622 -6.2831853071795862 $622 -1.2246063538223748e-016 $432 $623 reversed 7 unknown #
loop $-1 $-1 $434 $624 #
vertex $-1 $435 $625 #
ellipse-curve $-1 0 -0.64000000000000001 0 -1.1102230246251601e-015 1 0 0.20000000000000001 2.2204460492503101e-016 0 1 I I #
loop $-1 $-1 $436 $626 #
vertex $-1 $437 $627 #
ellipse-curve $-1 0 0.125 0 0 -1 0 0.062449999999999999 0 0 1 I I #
pid_name-sg-attrib $-1 $-1 $441 $325 7 114 119 105 108 115 111 110 784252905 155 1 #
model_id-kcp-attrib $-1 $628 $-1 $442 1 990660931 80 -1471152127 15 #
loop $-1 $-1 $629 $442 #
plane-surface $-1 0.25 -0.64000000000000001 0.25 0 -1 0 0 0 -1 forward_v I I I I #
loop $-1 $-1 $630 $325 #
coedge $-1 $553 $553 $629 $631 forward $443 $-1 #
coedge $-1 $554 $554 $630 $632 forward $445 $-1 #
vertex $-1 $448 $633 #
ellipse-curve $-1 0.298550424457247 -0.81913025467434897 0.25 0.8574929257125451 -0.51449575542752513 0 -0.0051449575542752398 -0.0085749292571254392 0 1 I I #
vertex $-1 $449 $634 #
ellipse-curve $-1 0.49643077123975998 -0.93785846274385598 0.25 0.85749292571255298 -0.51449575542751202 0 0.0051449575542751296 0.0085749292571255502 0 1 I I #
pid_name-sg-attrib $-1 $-1 $452 $336 7 114 119 105 108 115 111 110 784252905 149 1 #
coedge $-1 $560 $560 $456 $562 reversed $453 $-1 #
coedge $-1 $561 $561 $457 $563 reversed $455 $-1 #
edge $-1 $635 -3.1415926535897931 $635 3.1415926535897931 $560 $636 forward 7 unknown #
edge $-1 $637 -3.1415926535897931 $637 3.1415926535897931 $561 $638 forward 7 unknown #
point $-1 0.30276001673031899 -0.82078682128464497 -0.25 #
point $-1 0.49297417617198502 -0.96158259767177501 -0.25 #
straight-curve $-1 -0.64322494175297706 0.65647690100106848 0 0 0 -1 I I #
point $-1 -0.64322494175297706 -0.65647690100106848 -0.53100000000000003 #
straight-curve $-1 -0.64322494175297706 0 -0.53100000000000003 0 1 0 I I #
point $-1 -0.64322494175297706 0.65647690100106848 -0.53100000000000003 #
point $-1 0.035000000000000003 0 0.037500000000000012 #
point $-1 0.035000000000000003 0 0.037500000000000012 #
point $-1 0.035000000000000003 0 0.037500000000000012 #
point $-1 0.035000000000000003 0 0.037500000000000012 #
loop $-1 $402 $586 $490 #
plane-surface $-1 -0.0082148477433012009 0.44647690100106846 -4.3667604760156984e-020 -6.4607517944483112e-033 1 6.304476908218445e-033 0 -6.304476908218445e-033 1 forward_v I I I I #
coedge $-1 $492 $505 $493 $578 forward $386 $-1 #
coedge $-1 $494 $493 $639 $640 reversed $287 $-1 #
edge $-1 $641 0 $579 0.20999999999999996 $576 $642 forward 7 unknown #
vertex $-1 $578 $643 #
straight-curve $-1 -0.64322494175297706 0.65647690100106848 0 0 0 -1 I I #
coedge $-1 $639 $501 $497 $582 forward $574 $-1 #
edge $644 $503 -0.69933741262946558 $583 0.58711247087648855 $497 $645 forward 7 unknown #
vertex $-1 $582 $646 #
straight-curve $-1 -0.64322494175297706 0.44647690100106852 0.53100000000000003 0 1 0 I I #
point $-1 -0.64322494175297706 0.65647690100106848 0.53100000000000003 #
coedge $-1 $501 $639 $505 $590 forward $574 $-1 #
convexity-sys-attrib $-1 $-1 $-1 $502 #
straight-curve $-1 0.64322494175297706 0.44647690100106852 0 0 0 1 I I #
point $-1 0.64322494175297706 0.44647690100106852 0.53100000000000003 #
edge $647 $641 -0.58711247087648855 $506 0.69933741262946558 $505 $648 forward 7 unknown #
point $-1 0.64322494175297706 0.44647690100106852 -0.53100000000000003 #
straight-curve $-1 -0.056112470876488518 0.65647690100106848 -0.53100000000000003 1 0 0 I I #
loop $-1 $423 $605 $512 #
plane-surface $-1 -0.027509510054687467 0.32147690100106852 -6.727227747129662e-019 7.4678515376068334e-032 1 1.1918644094471794e-032 0 -1.1918644094471794e-032 1 forward_v I I I I #
coedge $-1 $514 $527 $515 $597 forward $407 $-1 #
coedge $-1 $516 $515 $649 $650 reversed $300 $-1 #
edge $-1 $651 0 $598 0.125 $595 $652 forward 7 unknown #
vertex $-1 $597 $653 #
straight-curve $-1 -0.64322494175297706 0.44647690100106852 0 0 0 -1 I I #
coedge $-1 $649 $523 $519 $601 forward $593 $-1 #
edge $654 $525 -0.69933741262946558 $602 0.58711247087648855 $519 $655 forward 7 unknown #
vertex $-1 $601 $656 #
straight-curve $-1 -0.64322494175297706 0.32147690100106852 0.53100000000000003 0 1 0 I I #
point $-1 -0.64322494175297706 0.44647690100106852 0.53100000000000003 #
coedge $-1 $523 $649 $527 $609 forward $593 $-1 #
convexity-sys-attrib $-1 $-1 $-1 $524 #
straight-curve $-1 0.64322494175297706 0.32147690100106852 0 0 0 1 I I #
point $-1 0.64322494175297706 0.32147690100106852 0.53100000000000003 #
edge $657 $651 -0.58711247087648855 $528 0.69933741262946558 $527 $658 forward 7 unknown #
point $-1 0.64322494175297706 0.32147690100106852 -0.53100000000000003 #
straight-curve $-1 -0.056112470876488518 0.44647690100106852 -0.53100000000000003 1 0 0 I I #
pid_name-sg-attrib $-1 $-1 $535 $429 7 114 119 105 108 115 111 110 784252905 162 1 #
model_id-kcp-attrib $-1 $659 $-1 $536 1 990660931 80 -1471152127 22 #
face $660 $661 $662 $49 $-1 $663 reversed single #
loop $-1 $-1 $664 $536 #
plane-surface $-1 0.25 -0.62 0.25 0 -1 0 0 0 -1 forward_v I I I I #
loop $-1 $-1 $665 $429 #
coedge $-1 $618 $618 $666 $667 forward $537 $-1 #
coedge $-1 $619 $619 $668 $669 forward $539 $-1 #
coedge $-1 $620 $620 $540 $621 reversed $670 $-1 #
edge $-1 $671 -6.2831853071795862 $671 0 $620 $672 reversed 7 unknown #
vertex $-1 $541 $673 #
ellipse-curve $-1 0 -0.77000000000000002 0 0 -1 0 0.20000000000000001 0 0 1 I I #
face $674 $675 $676 $49 $-1 $677 forward single #
point $-1 0.20000000000000001 -0.64000000000000001 0 #
face $678 $679 $680 $49 $-1 $681 reversed single #
point $-1 0.062449999999999999 0.125 7.6476666796207499e-018 #
pid_name-sg-attrib $-1 $-1 $549 $442 7 114 119 105 108 115 111 110 784252905 156 1 #
coedge $-1 $629 $629 $553 $631 reversed $550 $-1 #
coedge $-1 $630 $630 $554 $632 reversed $552 $-1 #
edge $-1 $682 -3.1415926535897931 $682 3.1415926535897931 $629 $683 forward 7 unknown #
edge $-1 $684 -3.1415926535897931 $684 3.1415926535897931 $630 $685 forward 7 unknown #
point $-1 0.30369538201152302 -0.81055532541722297 0.25 #
point $-1 0.49128581368548502 -0.94643339200098198 0.25 #
vertex $-1 $562 $686 #
ellipse-curve $-1 0.25 -0.64000000000000001 -0.25 0 -1 0 -0.01 0 0 1 I I #
vertex $-1 $563 $687 #
ellipse-curve $-1 0.25 -0.74418144300948597 -0.25 0 -1 0 0.01 0 0 1 I I #
coedge $-1 $586 $581 $577 $640 forward $574 $-1 #
edge $688 $583 -0.53100000000000003 $641 0.53100000000000003 $577 $689 forward 7 unknown #
vertex $-1 $590 $690 #
straight-curve $-1 -0.64322494175297706 0.44647690100106852 -0.53100000000000003 0 1 0 I I #
point $-1 -0.64322494175297706 0.65647690100106848 -0.53100000000000003 #
convexity-sys-attrib $-1 $-1 $-1 $582 #
straight-curve $-1 -0.056112470876488518 0.44647690100106852 0.53100000000000003 -1 0 0 I I #
point $-1 -0.64322494175297706 0.44647690100106852 0.53100000000000003 #
convexity-sys-attrib $-1 $-1 $-1 $590 #
straight-curve $-1 -0.056112470876488518 0.44647690100106852 -0.53100000000000003 1 0 0 I I #
coedge $-1 $605 $600 $596 $650 forward $593 $-1 #
edge $691 $602 -0.53100000000000003 $651 0.53100000000000003 $596 $692 forward 7 unknown #
vertex $-1 $609 $693 #
straight-curve $-1 -0.64322494175297706 0.32147690100106852 -0.53100000000000003 0 1 0 I I #
point $-1 -0.64322494175297706 0.44647690100106852 -0.53100000000000003 #
convexity-sys-attrib $-1 $-1 $-1 $601 #
straight-curve $-1 -0.056112470876488518 0.32147690100106852 0.53100000000000003 -1 0 0 I I #
point $-1 -0.64322494175297706 0.32147690100106852 0.53100000000000003 #
convexity-sys-attrib $-1 $-1 $-1 $609 #
straight-curve $-1 -0.056112470876488518 0.32147690100106852 -0.53100000000000003 1 0 0 I I #
pid_name-sg-attrib $-1 $-1 $613 $536 7 114 119 105 108 115 111 110 784252905 163 1 #
model_id-kcp-attrib $-1 $694 $-1 $614 1 990660931 80 -1471152127 23 #
face $695 $696 $697 $49 $-1 $698 reversed single #
loop $-1 $699 $700 $614 #
cone-surface $-1 0.25 -0.64000000000000001 0.25 0 -1 0 -0.040000000000000001 0 0 1 I I 0 1 0.040000000000000001 forward I I I I #
coedge $-1 $664 $664 $700 $701 reversed $615 $-1 #
coedge $-1 $665 $665 $702 $703 forward $617 $-1 #
coedge $-1 $666 $666 $618 $667 reversed $699 $-1 #
edge $-1 $704 1.5707963267948966 $704 7.8539816339744828 $666 $705 forward 7 unknown #
coedge $-1 $668 $668 $619 $669 reversed $706 $-1 #
edge $-1 $707 -6.2831853071795862 $707 -1.2246063538223765e-016 $668 $708 reversed 7 unknown #
loop $-1 $-1 $620 $709 #
vertex $-1 $621 $710 #
ellipse-curve $-1 0 0 0 0 1 0 0.53100000000000003 0 0 1 I I #
point $-1 0.20000000000000001 -0.77000000000000002 2.44921270764475e-017 #
model_id-kcp-attrib $-1 $711 $-1 $624 1 990660931 80 -1471152127 27 #
face $712 $713 $714 $49 $-1 $715 reversed single #
loop $-1 $716 $717 $624 #
plane-surface $-1 0 -0.64000000000000001 0 0 -1 0 0 0 -1 forward_v I I I I #
model_id-kcp-attrib $-1 $718 $-1 $626 1 990660931 80 -1471152127 37 #
face $719 $-1 $720 $49 $-1 $721 forward single #
loop $-1 $545 $722 $626 #
plane-surface $-1 0 0.125 0 0 -1 0 0 0 -1 forward_v I I I I #
vertex $-1 $631 $723 #
ellipse-curve $-1 0.25 -0.64000000000000001 0.25 0 -1 0 -0.01 0 0 1 I I #
vertex $-1 $632 $724 #
ellipse-curve $-1 0.25 -0.733380962103094 0.25 0 -1 0 0.01 0 0 1 I I #
point $-1 0.26000000000000001 -0.64000000000000001 -0.25 #
point $-1 0.23999999999999999 -0.74418144300948597 -0.25 #
convexity-sys-attrib $-1 $-1 $-1 $640 #
straight-curve $-1 -0.64322494175297706 0.44647690100106852 0 0 0 -1 I I #
point $-1 -0.64322494175297706 0.44647690100106852 -0.53100000000000003 #
convexity-sys-attrib $-1 $-1 $-1 $650 #
straight-curve $-1 -0.64322494175297706 0.32147690100106852 0 0 0 -1 I I #
point $-1 -0.64322494175297706 0.32147690100106852 -0.53100000000000003 #
pid_name-sg-attrib $-1 $-1 $660 $614 7 114 119 105 108 115 111 110 784252905 164 1 #
model_id-kcp-attrib $-1 $725 $-1 $661 1 990660931 80 -1471152127 24 #
face $726 $727 $728 $49 $-1 $729 reversed single #
loop $-1 $-1 $730 $661 #
plane-surface $-1 0.25 -0.62 -0.25 0 1 0 0 0 1 forward_v I I I I #
loop $-1 $-1 $666 $614 #
coedge $-1 $700 $700 $664 $701 forward $662 $-1 #
edge $-1 $731 -6.2831853071795862 $731 0 $664 $732 reversed 7 unknown #
coedge $-1 $702 $702 $665 $703 reversed $716 $-1 #
edge $-1 $733 -6.2831853071795862 $733 0 $702 $734 reversed 7 unknown #
vertex $-1 $667 $735 #
ellipse-curve $-1 0.25 -0.64000000000000001 0.25 0 1 0 0 0 0.040000000000000001 1 I I #
loop $-1 $542 $668 $624 #
vertex $-1 $669 $736 #
ellipse-curve $-1 0 -0.64000000000000001 0 -4.1816309778725301e-016 -1 0 0.53100000000000003 -2.2204460492503101e-016 0 1 I I #
face $737 $626 $738 $49 $-1 $739 reversed single #
point $-1 0.53100000000000003 0 0 #
pid_name-sg-attrib $-1 $-1 $674 $624 7 114 119 105 108 115 111 110 784252905 168 1 #
model_id-kcp-attrib $-1 $740 $-1 $675 1 990660931 80 -1471152127 28 #
face $741 $742 $743 $49 $-1 $744 reversed single #
loop $-1 $745 $746 $675 #
cone-surface $-1 0 0.90479274057836301 -0.40600000000000003 0 1 0 1.7320508075688801 0 0 1 I I 0.86602540378443804 0.5 1.7320508075688801 forward I I I I #
loop $-1 $706 $702 $624 #
coedge $-1 $717 $717 $747 $748 reversed $676 $-1 #
pid_name-sg-attrib $-1 $-1 $678 $626 7 114 119 105 108 115 111 110 784252905 178 1 #
model_id-kcp-attrib $-1 $749 $-1 $679 1 990660931 80 -1471152127 38 #
loop $-1 $750 $751 $679 #
cone-surface $-1 0 0.39024999999999999 0 0 -1 0 -0.199875 0 0 1 I I 0 1 0.199875 forward I I I I #
coedge $-1 $722 $722 $751 $752 reversed $680 $-1 #
point $-1 0.26000000000000001 -0.64000000000000001 0.25 #
point $-1 0.23999999999999999 -0.733380962103094 0.25 #
pid_name-sg-attrib $-1 $-1 $695 $661 7 114 119 105 108 115 111 110 784252905 165 1 #
model_id-kcp-attrib $-1 $753 $-1 $696 1 990660931 80 -1471152127 25 #
face $754 $624 $755 $49 $-1 $756 forward single #
loop $-1 $757 $758 $696 #
cone-surface $-1 0.25 -0.64000000000000001 -0.25 0 1 0 -0.040000000000000001 0 0 1 I I 0 1 0.040000000000000001 forward I I I I #
coedge $-1 $730 $730 $759 $760 reversed $697 $-1 #
vertex $-1 $701 $761 #
ellipse-curve $-1 0.25 -0.62 0.25 0 -1 0 0.040000000000000001 0 0 1 I I #
vertex $-1 $703 $762 #
ellipse-curve $-1 0.25 -0.64000000000000001 0.25 0 1 0 0 0 -0.10000000000000001 1 I I #
point $-1 0.28999999999999998 -0.64000000000000001 0.25 #
point $-1 0.53100000000000003 -0.64000000000000001 6.5026597387968195e-017 #
model_id-kcp-attrib $-1 $763 $-1 $709 1 990660931 80 -1471152127 36 #
loop $-1 $764 $765 $709 #
plane-surface $-1 0 0 0 0 -1 0 0 0 -1 forward_v I I I I #
pid_name-sg-attrib $-1 $-1 $712 $675 7 114 119 105 108 115 111 110 784252905 169 1 #
model_id-kcp-attrib $-1 $766 $-1 $713 1 990660931 80 -1471152127 29 #
face $767 $768 $769 $49 $-1 $770 reversed single #
loop $-1 $771 $772 $713 #
cone-surface $-1 0 -0.0999676223927186 -0.40600000000000003 0 1 0 0.035000000000000003 0 0 1 I I 0 1 0.035000000000000003 forward I I I I #
loop $-1 $-1 $773 $675 #
coedge $-1 $746 $746 $-1 $774 forward $714 $-1 #
coedge $-1 $747 $747 $717 $748 forward $755 $-1 #
edge $-1 $775 -3.1415926535897931 $775 3.1415926535897931 $717 $776 forward 7 unknown #
pid_name-sg-attrib $-1 $-1 $719 $679 7 114 119 105 108 115 111 110 784252905 179 1 #
loop $-1 $-1 $777 $679 #
coedge $-1 $751 $751 $722 $752 forward $720 $-1 #
edge $-1 $778 -6.2831853071795862 $778 0 $722 $779 reversed 7 unknown #
pid_name-sg-attrib $-1 $-1 $726 $696 7 114 119 105 108 115 111 110 784252905 166 1 #
model_id-kcp-attrib $-1 $780 $-1 $727 1 990660931 80 -1471152127 26 #
loop $-1 $781 $747 $727 #
torus-surface $-1 0.25 -0.64000000000000001 -0.25 0 -1 0 0.070000000000000007 0.029999999999999999 0 0 -1 forward_v I I I I #
loop $-1 $-1 $759 $696 #
coedge $-1 $758 $758 $782 $783 reversed $728 $-1 #
coedge $-1 $759 $759 $730 $760 forward $757 $-1 #
edge $-1 $784 -3.1415926535897931 $784 3.1415926535897931 $730 $785 forward 7 unknown #
point $-1 0.28999999999999998 -0.62 0.25 #
point $-1 0.25 -0.64000000000000001 0.14999999999999999 #
pid_name-sg-attrib $-1 $-1 $737 $709 7 114 119 105 108 115 111 110 784252905 177 1 #
loop $-1 $786 $787 $709 #
coedge $-1 $765 $765 $788 $789 reversed $738 $-1 #
pid_name-sg-attrib $-1 $-1 $741 $713 7 114 119 105 108 115 111 110 784252905 170 1 #
model_id-kcp-attrib $-1 $790 $-1 $742 1 990660931 80 -1471152127 30 #
face $791 $792 $793 $49 $-1 $794 reversed single #
loop $-1 $795 $796 $742 #
cone-surface $-1 0.40600000000000003 0.90479274057836301 0 0 1 0 1.7320508075688801 0 0 1 I I 0.86602540378443804 0.5 1.7320508075688801 forward I I I I #
loop $-1 $-1 $797 $713 #
coedge $-1 $772 $772 $798 $799 forward $743 $-1 #
coedge $-1 $773 $773 $797 $800 reversed $745 $-1 #
edge $-1 $801 1 $801 0 $746 $-1 forward 7 unknown #
vertex $-1 $748 $802 #
ellipse-curve $-1 0.25 -0.64000000000000001 -0.25 0 -1 0 0 0 -0.10000000000000001 1 I I #
coedge $-1 $777 $777 $803 $804 forward $750 $-1 #
vertex $-1 $752 $805 #
ellipse-curve $-1 0 0.125 0 0 1 0 0.199875 0 0 1 I I #
pid_name-sg-attrib $-1 $-1 $754 $727 7 114 119 105 108 115 111 110 784252905 167 1 #
loop $-1 $-1 $782 $727 #
coedge $-1 $782 $782 $758 $783 forward $781 $-1 #
edge $-1 $806 -6.2831853071795862 $806 0 $758 $807 reversed 7 unknown #
vertex $-1 $760 $808 #
ellipse-curve $-1 0.25 -0.62 -0.25 0 1 0 0.040000000000000001 0 0 1 I I #
loop $-1 $809 $810 $709 #
coedge $-1 $787 $787 $811 $812 reversed $764 $-1 #
coedge $-1 $788 $788 $765 $789 forward $813 $-1 #
edge $814 $815 -3.1415926535897931 $815 3.1415926535897931 $765 $816 forward 7 unknown #
pid_name-sg-attrib $-1 $-1 $767 $742 7 114 119 105 108 115 111 110 784252905 171 1 #
model_id-kcp-attrib $-1 $817 $-1 $768 1 990660931 80 -1471152127 31 #
face $818 $819 $820 $49 $-1 $821 reversed single #
loop $-1 $822 $823 $768 #
cone-surface $-1 0.40600000000000003 -0.0999676223927186 0 0 1 0 0.035000000000000003 0 0 1 I I 0 1 0.035000000000000003 forward I I I I #
loop $-1 $-1 $824 $742 #
coedge $-1 $796 $796 $-1 $825 forward $769 $-1 #
coedge $-1 $797 $797 $773 $800 forward $771 $-1 #
coedge $-1 $798 $798 $772 $799 reversed $809 $-1 #
edge $826 $827 -3.1415926535897931 $827 3.1415926535897931 $798 $828 forward 7 unknown #
edge $829 $830 0 $830 6.2831853071795862 $773 $831 forward 7 unknown #
vertex $-1 $774 $832 #
point $-1 0.25 -0.64000000000000001 -0.14999999999999999 #
coedge $-1 $803 $803 $777 $804 reversed $833 $-1 #
edge $-1 $834 -3.1415926535897931 $834 3.1415926535897931 $803 $835 forward 7 unknown #
point $-1 0.199875 0.125 0 #
vertex $-1 $783 $836 #
ellipse-curve $-1 0.25 -0.64000000000000001 -0.25 0 -1 0 0 0 -0.040000000000000001 1 I I #
point $-1 0.20999999999999999 -0.62 -0.25 #
loop $-1 $833 $798 $709 #
coedge $-1 $810 $810 $823 $837 reversed $786 $-1 #
coedge $-1 $811 $811 $787 $812 forward $838 $-1 #
edge $839 $840 -3.1415926535897931 $840 3.1415926535897931 $787 $841 forward 7 unknown #
loop $-1 $842 $788 $843 #
attrib_edge_convexity-kcp-attrib $-1 $844 $-1 $789 1 #
vertex $-1 $789 $845 #
ellipse-curve $-1 0 0 0.40600000000000003 0 1 0 -0.035000000000000003 0 0 1 I I #
pid_name-sg-attrib $-1 $-1 $791 $768 7 114 119 105 108 115 111 110 784252905 172 1 #
model_id-kcp-attrib $-1 $846 $-1 $792 1 990660931 80 -1471152127 32 #
face $847 $848 $838 $49 $-1 $849 reversed single #
loop $-1 $850 $851 $792 #
cone-surface $-1 -0.40600000000000003 0.90479274057836301 0 0 1 0 1.7320508075688801 0 0 1 I I 0.86602540378443804 0.5 1.7320508075688801 forward I I I I #
loop $-1 $-1 $852 $768 #
coedge $-1 $823 $823 $810 $837 forward $793 $-1 #
coedge $-1 $824 $824 $852 $853 reversed $795 $-1 #
edge $-1 $854 1 $854 0 $796 $-1 forward 7 unknown #
attrib_edge_convexity-kcp-attrib $-1 $855 $-1 $799 1 #
vertex $-1 $799 $856 #
ellipse-curve $-1 0 0 -0.40600000000000003 0 1 0 -0.035000000000000003 0 0 1 I I #
attrib_edge_convexity-kcp-attrib $-1 $857 $-1 $800 2 #
vertex $-1 $800 $858 #
ellipse-curve $-1 0 -0.074999999999999997 -0.40600000000000003 0 -1 0 0.035000000000000003 0 0 1 I I #
point $-1 0 -0.095207259421636894 -0.40600000000000003 #
loop $-1 $670 $803 $709 #
vertex $-1 $804 $859 #
ellipse-curve $-1 0 0 0 0 1 0 0.199875 0 0 1 I I #
point $-1 0.25 -0.64000000000000001 -0.28999999999999998 #
edge $860 $861 -3.1415926535897931 $861 3.1415926535897931 $810 $862 forward 7 unknown #
loop $-1 $863 $811 $819 #
attrib_edge_convexity-kcp-attrib $-1 $864 $-1 $812 1 #
vertex $-1 $812 $865 #
ellipse-curve $-1 -0.40600000000000003 0 0 0 1 0 -0.035000000000000003 0 0 1 I I #
loop $-1 $-1 $866 $843 #
face $867 $709 $813 $49 $-1 $868 reversed single #
convexity-sys-attrib $-1 $-1 $814 $789 #
point $-1 0.035000000000000003 0 0.40600000000000003 #
pid_name-sg-attrib $-1 $-1 $818 $792 7 114 119 105 108 115 111 110 784252905 173 1 #
model_id-kcp-attrib $-1 $869 $-1 $819 1 990660931 80 -1471152127 33 #
face $870 $843 $871 $49 $-1 $872 reversed single #
cone-surface $-1 -0.40600000000000003 -0.0999676223927186 0 0 1 0 0.035000000000000003 0 0 1 I I 0 1 0.035000000000000003 forward I I I I #
loop $-1 $-1 $873 $792 #
coedge $-1 $851 $851 $-1 $874 forward $820 $-1 #
coedge $-1 $852 $852 $824 $853 forward $822 $-1 #
edge $875 $876 0 $876 6.2831853071795862 $824 $877 forward 7 unknown #
vertex $-1 $825 $878 #
convexity-sys-attrib $-1 $-1 $826 $799 #
point $-1 0.035000000000000003 0 -0.40600000000000003 #
convexity-sys-attrib $-1 $-1 $829 $800 #
point $-1 0.035000000000000003 -0.074999999999999997 -0.40600000000000003 #
point $-1 -0.199875 0 -2.44776278979577e-017 #
attrib_edge_convexity-kcp-attrib $-1 $879 $-1 $837 1 #
vertex $-1 $837 $880 #
ellipse-curve $-1 0.40600000000000003 0 0 0 1 0 -0.035000000000000003 0 0 1 I I #
loop $-1 $-1 $881 $819 #
convexity-sys-attrib $-1 $-1 $839 $812 #
point $-1 -0.371 0 0 #
coedge $-1 $866 $866 $882 $883 forward $842 $-1 #
model_id-kcp-attrib $-1 $884 $-1 $843 1 990660931 80 -1471152127 35 #
cone-surface $-1 0 -0.0999676223927186 0.40600000000000003 0 1 0 0.035000000000000003 0 0 1 I I 0 1 0.035000000000000003 forward I I I I #
pid_name-sg-attrib $-1 $-1 $847 $819 7 114 119 105 108 115 111 110 784252905 174 1 #
model_id-kcp-attrib $-1 $885 $-1 $848 1 990660931 80 -1471152127 34 #
loop $-1 $886 $887 $848 #
cone-surface $-1 0 0.90479274057836301 0.40600000000000003 0 1 0 1.7320508075688801 0 0 1 I I 0.86602540378443804 0.5 1.7320508075688801 forward I I I I #
coedge $-1 $873 $873 $881 $888 reversed $850 $-1 #
edge $-1 $889 1 $889 0 $851 $-1 forward 7 unknown #
attrib_edge_convexity-kcp-attrib $-1 $890 $-1 $853 2 #
vertex $-1 $853 $891 #
ellipse-curve $-1 0.40600000000000003 -0.074999999999999997 0 0 -1 0 0.035000000000000003 0 0 1 I I #
point $-1 0.40600000000000003 -0.095207259421636894 0 #
convexity-sys-attrib $-1 $-1 $860 $837 #
point $-1 0.441 0 0 #
coedge $-1 $881 $881 $873 $888 forward $863 $-1 #
coedge $-1 $882 $882 $866 $883 reversed $886 $-1 #
edge $892 $893 0 $893 6.2831853071795862 $882 $894 forward 7 unknown #
pid_name-sg-attrib $-1 $-1 $867 $843 7 114 119 105 108 115 111 110 784252905 176 1 #
pid_name-sg-attrib $-1 $-1 $870 $848 7 114 119 105 108 115 111 110 784252905 175 1 #
loop $-1 $-1 $882 $848 #
coedge $-1 $887 $887 $-1 $895 forward $871 $-1 #
edge $896 $897 0 $897 6.2831853071795862 $873 $898 forward 7 unknown #
vertex $-1 $874 $899 #
convexity-sys-attrib $-1 $-1 $875 $853 #
point $-1 0.441 -0.074999999999999997 0 #
attrib_edge_convexity-kcp-attrib $-1 $900 $-1 $883 2 #
vertex $-1 $883 $901 #
ellipse-curve $-1 0 -0.074999999999999997 0.40600000000000003 0 -1 0 0.035000000000000003 0 0 1 I I #
edge $-1 $902 1 $902 0 $887 $-1 forward 7 unknown #
attrib_edge_convexity-kcp-attrib $-1 $903 $-1 $888 2 #
vertex $-1 $888 $904 #
ellipse-curve $-1 -0.40600000000000003 -0.074999999999999997 0 0 -1 0 0.035000000000000003 0 0 1 I I #
point $-1 -0.40600000000000003 -0.095207259421636894 0 #
convexity-sys-attrib $-1 $-1 $892 $883 #
point $-1 0.035000000000000003 -0.074999999999999997 0.40600000000000003 #
vertex $-1 $895 $905 #
convexity-sys-attrib $-1 $-1 $896 $888 #
point $-1 -0.371 -0.074999999999999997 0 #
point $-1 0 -0.095207259421636894 0.40600000000000003 #
End-of-ACIS-data 