105 409 1 0                             
body $-1 $1 $-1 $2 #
lump $-1 $-1 $3 $0 #
transform $-1 1 0 0 0 1 0 0 0 1 0 0 0 1 0 0 0 #
shell $-1 $4 $-1 $5 $1 #
shell $-1 $6 $-1 $7 $1 #
face $8 $9 $10 $3 $-1 $11 forward single #
shell $-1 $-1 $-1 $12 $1 #
face $13 $14 $15 $4 $-1 $16 forward single #
pid_name-sg-attrib $-1 $-1 $-1 $5 7 114 119 105 108 115 111 110 784252905 143 1 #
face $17 $18 $19 $3 $-1 $20 forward single #
loop $-1 $-1 $21 $5 #
plane-surface $-1 0.75 -0.865 -0.25 0.857492925712544 0.514495755427526 0 0 0 -1 0 #
face $22 $23 $24 $6 $-1 $25 reversed single #
pid_name-sg-attrib $-1 $-1 $-1 $7 7 114 119 105 108 115 111 110 784252905 150 1 #
face $26 $27 $28 $4 $-1 $29 forward single #
loop $-1 $-1 $30 $7 #
plane-surface $-1 0.75 -0.84 0.25 0.838443616300637 0.544988350595415 0 0 0 -1 0 #
pid_name-sg-attrib $-1 $-1 $-1 $9 7 114 119 105 108 115 111 110 784252905 144 1 #
face $31 $32 $33 $3 $-1 $34 forward single #
loop $-1 $35 $36 $9 #
cone-surface $-1 0.602161509044348 -0.953703094573391 -0.25 0.857492925712544 0.514495755427526 0 -0.00514495755427526 0.00857492925712544 0 1 0 1 0 #
coedge $-1 $21 $21 $37 $38 1 $10 $-1 #
pid_name-sg-attrib $-1 $-1 $-1 $12 7 114 119 105 108 115 111 110 784252905 157 1 #
face $39 $40 $41 $6 $-1 $42 forward single #
loop $-1 $-1 $43 $12 #
plane-surface $-1 0 0.335 0 0 -1 0 0 0 -1 0 #
pid_name-sg-attrib $-1 $-1 $-1 $14 7 114 119 105 108 115 111 110 784252905 151 1 #
face $44 $45 $46 $4 $-1 $47 forward single #
loop $-1 $48 $49 $14 #
cone-surface $-1 0.602379181842054 -0.935953531802665 0.25 0.838443616300637 0.544988350595415 0 -0.00544988350595414 0.00838443616300637 0 1 0 1 0 #
coedge $-1 $30 $30 $50 $51 1 $15 $-1 #
pid_name-sg-attrib $-1 $-1 $-1 $18 7 114 119 105 108 115 111 110 784252905 145 1 #
face $52 $53 $54 $3 $-1 $55 forward single #
loop $-1 $56 $57 $18 #
torus-surface $-1 0.550711933501596 -0.867953802002137 -0.25 0 0 1 0.0999999999999999 0.01 1 0 0 0 #
loop $-1 $-1 $37 $9 #
coedge $-1 $36 $36 $57 $58 0 $19 $-1 #
coedge $-1 $37 $37 $21 $38 0 $35 $-1 #
edge $-1 $59 $59 $21 $60 1 #
pid_name-sg-attrib $-1 $-1 $-1 $23 7 114 119 105 108 115 111 110 784252905 158 1 #
face $61 $62 $63 $6 $-1 $64 forward single #
loop $-1 $65 $66 $23 #
cone-surface $-1 0 0.39025 0 0 -1 0 -0.06245 0 0 1 0 1 0 #
coedge $-1 $43 $43 $66 $67 1 $24 $-1 #
pid_name-sg-attrib $-1 $-1 $-1 $27 7 114 119 105 108 115 111 110 784252905 152 1 #
face $68 $69 $70 $4 $-1 $71 forward single #
loop $-1 $72 $73 $27 #
torus-surface $-1 0.547880346782513 -0.852109170172602 0.25 0 0 1 0.1 0.01 1 0 0 0 #
loop $-1 $-1 $50 $14 #
coedge $-1 $49 $49 $73 $74 0 $28 $-1 #
coedge $-1 $50 $50 $30 $51 0 $48 $-1 #
edge $-1 $75 $75 $30 $76 1 #
pid_name-sg-attrib $-1 $-1 $-1 $32 7 114 119 105 108 115 111 110 784252905 146 1 #
face $77 $78 $79 $3 $-1 $80 forward single #
loop $-1 $81 $82 $32 #
cone-surface $-1 0.297511129700354 -0.829298529981885 -0.25 0.85117086972399 -0.52488870299646 0 0.0052488870299646 0.0085117086972399 0 1 0 1 0 #
loop $-1 $-1 $83 $18 #
coedge $-1 $57 $57 $36 $58 1 $33 $-1 #
edge $-1 $84 $84 $57 $85 0 #
vertex $-1 $38 $86 #
ellipse-curve $-1 0.75 -0.865 -0.25 0.857492925712545 0.514495755427525 0 0.00514495755427524 -0.00857492925712544 0 1 #
pid_name-sg-attrib $-1 $-1 $-1 $40 7 114 119 105 108 115 111 110 784252905 159 1 #
face $87 $88 $89 $6 $-1 $90 forward single #
loop $-1 $91 $92 $40 #
cone-surface $-1 0 0.39025 0 0 -1 0 -0.2 0 0 1 0 1 0 #
loop $-1 $-1 $93 $23 #
coedge $-1 $66 $66 $43 $67 0 $41 $-1 #
edge $-1 $94 $94 $43 $95 1 #
pid_name-sg-attrib $-1 $-1 $-1 $45 7 114 119 105 108 115 111 110 784252905 153 1 #
face $96 $97 $98 $4 $-1 $99 forward single #
loop $-1 $100 $101 $45 #
cone-surface $-1 0.298550424457247 -0.819130254674349 0.25 0.857492925712544 -0.514495755427527 0 0.00514495755427527 0.00857492925712544 0 1 0 1 0 #
loop $-1 $-1 $102 $27 #
coedge $-1 $73 $73 $49 $74 1 $46 $-1 #
edge $-1 $103 $103 $73 $104 0 #
vertex $-1 $51 $105 #
ellipse-curve $-1 0.75 -0.84 0.25 0.838443616300643 0.544988350595406 0 0.0054498835059541 -0.00838443616300644 0 1 #
pid_name-sg-attrib $-1 $-1 $-1 $53 7 114 119 105 108 115 111 110 784252905 147 1 #
face $106 $107 $108 $3 $-1 $109 forward single #
loop $-1 $110 $111 $53 #
torus-surface $-1 0.35 -0.744181443009486 -0.25 0 0 1 0.1 0.01 1 0 0 0 #
loop $-1 $-1 $112 $32 #
coedge $-1 $82 $82 $111 $113 0 $54 $-1 #
coedge $-1 $83 $83 $112 $114 0 $56 $-1 #
vertex $-1 $58 $115 #
ellipse-curve $-1 0.602161509044348 -0.953703094573391 -0.25 0.857492925712545 0.514495755427525 0 0.00514495755427524 -0.00857492925712544 0 1 #
point $-1 0.755144957554275 -0.873574929257126 -0.25 #
pid_name-sg-attrib $-1 $-1 $-1 $62 7 114 119 105 108 115 111 110 784252905 160 1 #
face $116 $117 $118 $6 $-1 $119 forward single #
loop $-1 $-1 $120 $62 #
plane-surface $-1 0 -0.77 0 0 -1 0 0 0 -1 0 #
loop $-1 $-1 $121 $40 #
coedge $-1 $92 $92 $122 $123 0 $63 $-1 #
coedge $-1 $93 $93 $124 $125 0 $65 $-1 #
vertex $-1 $67 $126 #
ellipse-curve $-1 0 0.335 0 0 1 0 0.06245 0 0 1 #
pid_name-sg-attrib $-1 $-1 $-1 $69 7 114 119 105 108 115 111 110 784252905 154 1 #
face $127 $128 $129 $4 $-1 $130 forward single #
loop $-1 $131 $132 $69 #
torus-surface $-1 0.35 -0.733380962103094 0.25 0 0 1 0.1 0.01 1 0 0 0 #
loop $-1 $-1 $133 $45 #
coedge $-1 $101 $101 $132 $134 0 $70 $-1 #
coedge $-1 $102 $102 $133 $135 0 $72 $-1 #
vertex $-1 $74 $136 #
ellipse-curve $-1 0.602379181842054 -0.935953531802665 0.25 0.838443616300638 0.544988350595413 0 0.0054498835059541 -0.00838443616300633 0 1 #
point $-1 0.755449883505954 -0.848384436163007 0.25 #
pid_name-sg-attrib $-1 $-1 $-1 $78 7 114 119 105 108 115 111 110 784252905 148 1 #
face $137 $-1 $138 $3 $-1 $139 reversed single #
loop $-1 $140 $141 $78 #
cone-surface $-1 0.25 -0.64 -0.25 0 -1 0 0.01 0 0 1 0 1 0 #
loop $-1 $-1 $142 $53 #
coedge $-1 $111 $111 $82 $113 1 $79 $-1 #
coedge $-1 $112 $112 $83 $114 1 $81 $-1 #
edge $-1 $143 $143 $111 $144 0 #
edge $-1 $145 $145 $112 $146 0 #
point $-1 0.597016551490073 -0.945128165316266 -0.25 #
pid_name-sg-attrib $-1 $-1 $-1 $88 7 114 119 105 108 115 111 110 784252905 161 1 #
face $147 $148 $149 $6 $-1 $150 forward single #
loop $-1 $151 $152 $88 #
cone-surface $-1 0 0.39025 0 0 -1 0 -0.531 0 0 1 0 1 0 #
coedge $-1 $120 $120 $121 $153 1 $89 $-1 #
coedge $-1 $121 $121 $120 $153 0 $91 $-1 #
coedge $-1 $122 $122 $92 $123 1 $154 $-1 #
edge $-1 $155 $155 $122 $156 1 #
coedge $-1 $124 $124 $93 $125 1 $157 $-1 #
edge $-1 $158 $158 $124 $159 1 #
point $-1 0.06245 0.335 0 #
pid_name-sg-attrib $-1 $-1 $-1 $97 7 114 119 105 108 115 111 110 784252905 155 1 #
face $160 $-1 $161 $4 $-1 $162 reversed single #
loop $-1 $163 $164 $97 #
cone-surface $-1 0.25 -0.64 0.25 0 -1 0 0.01 0 0 1 0 1 0 #
loop $-1 $-1 $165 $69 #
coedge $-1 $132 $132 $101 $134 1 $98 $-1 #
coedge $-1 $133 $133 $102 $135 1 $100 $-1 #
edge $-1 $166 $166 $132 $167 0 #
edge $-1 $168 $168 $133 $169 0 #
point $-1 0.5969292983361 -0.927569095639659 0.25 #
pid_name-sg-attrib $-1 $-1 $-1 $107 7 114 119 105 108 115 111 110 784252905 149 1 #
loop $-1 $-1 $170 $107 #
plane-surface $-1 0.25 -0.64 -0.25 0 -1 0 0 0 -1 0 #
loop $-1 $-1 $171 $78 #
coedge $-1 $141 $141 $170 $172 0 $108 $-1 #
coedge $-1 $142 $142 $171 $173 0 $110 $-1 #
vertex $-1 $113 $174 #
ellipse-curve $-1 0.297511129700354 -0.829298529981885 -0.25 0.85117086972399 -0.52488870299646 0 -0.00524888702996462 -0.00851170869723994 0 1 #
vertex $-1 $114 $175 #
ellipse-curve $-1 0.49822306320195 -0.953070888974536 -0.25 0.851170869723987 -0.524888702996466 0 0.00524888702996468 0.00851170869723983 0 1 #
pid_name-sg-attrib $-1 $-1 $-1 $117 7 114 119 105 108 115 111 110 784252905 162 1 #
face $176 $177 $178 $6 $-1 $179 forward single #
loop $-1 $180 $181 $117 #
torus-surface $-1 0.25 -0.64 0.25 0 1 0 0.07 0.03 0 0 1 0 #
loop $-1 $-1 $182 $88 #
coedge $-1 $152 $152 $183 $184 0 $118 $-1 #
edge $-1 $185 $185 $120 $186 1 #
loop $-1 $-1 $122 $187 #
vertex $-1 $123 $188 #
ellipse-curve $-1 0 -0.64 0 -1.11022302462516e-15 1 0 0.2 2.22044604925031e-16 0 1 #
loop $-1 $-1 $124 $189 #
vertex $-1 $125 $190 #
ellipse-curve $-1 0 0.125 0 0 -1 0 0.06245 0 0 1 #
pid_name-sg-attrib $-1 $-1 $-1 $128 7 114 119 105 108 115 111 110 784252905 156 1 #
loop $-1 $-1 $191 $128 #
plane-surface $-1 0.25 -0.64 0.25 0 -1 0 0 0 -1 0 #
loop $-1 $-1 $192 $97 #
coedge $-1 $164 $164 $191 $193 0 $129 $-1 #
coedge $-1 $165 $165 $192 $194 0 $131 $-1 #
vertex $-1 $134 $195 #
ellipse-curve $-1 0.298550424457247 -0.819130254674349 0.25 0.857492925712545 -0.514495755427525 0 -0.00514495755427524 -0.00857492925712544 0 1 #
vertex $-1 $135 $196 #
ellipse-curve $-1 0.49643077123976 -0.937858462743856 0.25 0.857492925712553 -0.514495755427512 0 0.00514495755427513 0.00857492925712555 0 1 #
coedge $-1 $170 $170 $141 $172 1 $138 $-1 #
coedge $-1 $171 $171 $142 $173 1 $140 $-1 #
edge $-1 $197 $197 $170 $198 0 #
edge $-1 $199 $199 $171 $200 0 #
point $-1 0.302760016730319 -0.820786821284645 -0.25 #
point $-1 0.492974176171985 -0.961582597671775 -0.25 #
pid_name-sg-attrib $-1 $-1 $-1 $148 7 114 119 105 108 115 111 110 784252905 163 1 #
face $201 $202 $203 $6 $-1 $204 reversed single #
loop $-1 $-1 $205 $148 #
plane-surface $-1 0.25 -0.62 0.25 0 -1 0 0 0 -1 0 #
loop $-1 $-1 $206 $117 #
coedge $-1 $181 $181 $207 $208 0 $149 $-1 #
coedge $-1 $182 $182 $209 $210 0 $151 $-1 #
coedge $-1 $183 $183 $152 $184 1 $211 $-1 #
edge $-1 $212 $212 $183 $213 1 #
vertex $-1 $153 $214 #
ellipse-curve $-1 0 -0.77 0 0 -1 0 0.2 0 0 1 #
face $215 $216 $217 $6 $-1 $218 forward single #
point $-1 0.2 -0.64 0 #
face $219 $220 $221 $6 $-1 $222 reversed single #
point $-1 0.06245 0.125 7.64766667962075e-18 #
coedge $-1 $191 $191 $164 $193 1 $161 $-1 #
coedge $-1 $192 $192 $165 $194 1 $163 $-1 #
edge $-1 $223 $223 $191 $224 0 #
edge $-1 $225 $225 $192 $226 0 #
point $-1 0.303695382011523 -0.810555325417223 0.25 #
point $-1 0.491285813685485 -0.946433392000982 0.25 #
vertex $-1 $172 $227 #
ellipse-curve $-1 0.25 -0.64 -0.25 0 -1 0 -0.01 0 0 1 #
vertex $-1 $173 $228 #
ellipse-curve $-1 0.25 -0.744181443009486 -0.25 0 -1 0 0.01 0 0 1 #
pid_name-sg-attrib $-1 $-1 $-1 $177 7 114 119 105 108 115 111 110 784252905 164 1 #
face $229 $230 $231 $6 $-1 $232 reversed single #
loop $-1 $233 $234 $177 #
cone-surface $-1 0.25 -0.64 0.25 0 -1 0 -0.04 0 0 1 0 1 0 #
coedge $-1 $205 $205 $234 $235 1 $178 $-1 #
coedge $-1 $206 $206 $236 $237 0 $180 $-1 #
coedge $-1 $207 $207 $181 $208 1 $233 $-1 #
edge $-1 $238 $238 $207 $239 0 #
coedge $-1 $209 $209 $182 $210 1 $240 $-1 #
edge $-1 $241 $241 $209 $242 1 #
loop $-1 $-1 $183 $243 #
vertex $-1 $184 $244 #
ellipse-curve $-1 0 0 0 0 1 0 0.531 0 0 1 #
point $-1 0.2 -0.77 2.44921270764475e-17 #
pid_name-sg-attrib $-1 $-1 $-1 $187 7 114 119 105 108 115 111 110 784252905 168 1 #
face $245 $246 $247 $6 $-1 $248 reversed single #
loop $-1 $249 $250 $187 #
plane-surface $-1 0 -0.64 0 0 -1 0 0 0 -1 0 #
pid_name-sg-attrib $-1 $-1 $-1 $189 7 114 119 105 108 115 111 110 784252905 178 1 #
face $251 $-1 $252 $6 $-1 $253 forward single #
loop $-1 $157 $254 $189 #
plane-surface $-1 0 0.125 0 0 -1 0 0 0 -1 0 #
vertex $-1 $193 $255 #
ellipse-curve $-1 0.25 -0.64 0.25 0 -1 0 -0.01 0 0 1 #
vertex $-1 $194 $256 #
ellipse-curve $-1 0.25 -0.733380962103094 0.25 0 -1 0 0.01 0 0 1 #
point $-1 0.26 -0.64 -0.25 #
point $-1 0.24 -0.744181443009486 -0.25 #
pid_name-sg-attrib $-1 $-1 $-1 $202 7 114 119 105 108 115 111 110 784252905 165 1 #
face $257 $258 $259 $6 $-1 $260 reversed single #
loop $-1 $-1 $261 $202 #
plane-surface $-1 0.25 -0.62 -0.25 0 1 0 0 0 1 0 #
loop $-1 $-1 $207 $177 #
coedge $-1 $234 $234 $205 $235 0 $203 $-1 #
edge $-1 $262 $262 $205 $263 1 #
coedge $-1 $236 $236 $206 $237 1 $249 $-1 #
edge $-1 $264 $264 $236 $265 1 #
vertex $-1 $208 $266 #
ellipse-curve $-1 0.25 -0.64 0.25 0 1 0 0 0 0.04 1 #
loop $-1 $154 $209 $187 #
vertex $-1 $210 $267 #
ellipse-curve $-1 0 -0.64 0 -4.18163097787253e-16 -1 0 0.531 -2.22044604925031e-16 0 1 #
face $268 $189 $269 $6 $-1 $270 reversed single #
point $-1 0.531 0 0 #
pid_name-sg-attrib $-1 $-1 $-1 $216 7 114 119 105 108 115 111 110 784252905 169 1 #
face $271 $272 $273 $6 $-1 $274 reversed single #
loop $-1 $275 $276 $216 #
cone-surface $-1 0 0.904792740578363 -0.406 0 1 0 1.73205080756888 0 0 1 0.866025403784438 0.5 0 #
loop $-1 $240 $236 $187 #
coedge $-1 $250 $250 $277 $278 1 $217 $-1 #
pid_name-sg-attrib $-1 $-1 $-1 $220 7 114 119 105 108 115 111 110 784252905 179 1 #
loop $-1 $279 $280 $220 #
cone-surface $-1 0 0.39025 0 0 -1 0 -0.199875 0 0 1 0 1 0 #
coedge $-1 $254 $254 $280 $281 1 $221 $-1 #
point $-1 0.26 -0.64 0.25 #
point $-1 0.24 -0.733380962103094 0.25 #
pid_name-sg-attrib $-1 $-1 $-1 $230 7 114 119 105 108 115 111 110 784252905 166 1 #
face $282 $187 $283 $6 $-1 $284 forward single #
loop $-1 $285 $286 $230 #
cone-surface $-1 0.25 -0.64 -0.25 0 1 0 -0.04 0 0 1 0 1 0 #
coedge $-1 $261 $261 $287 $288 1 $231 $-1 #
vertex $-1 $235 $289 #
ellipse-curve $-1 0.25 -0.62 0.25 0 -1 0 0.04 0 0 1 #
vertex $-1 $237 $290 #
ellipse-curve $-1 0.25 -0.64 0.25 0 1 0 0 0 -0.1 1 #
point $-1 0.29 -0.64 0.25 #
point $-1 0.531 -0.64 6.50265973879682e-17 #
pid_name-sg-attrib $-1 $-1 $-1 $243 7 114 119 105 108 115 111 110 784252905 177 1 #
loop $-1 $291 $292 $243 #
plane-surface $-1 0 0 0 0 -1 0 0 0 -1 0 #
pid_name-sg-attrib $-1 $-1 $-1 $246 7 114 119 105 108 115 111 110 784252905 170 1 #
face $293 $294 $295 $6 $-1 $296 reversed single #
loop $-1 $297 $298 $246 #
cone-surface $-1 0 -0.0999676223927186 -0.406 0 1 0 0.035 0 0 1 0 1 0 #
loop $-1 $-1 $299 $216 #
coedge $-1 $276 $276 $-1 $300 0 $247 $-1 #
coedge $-1 $277 $277 $250 $278 0 $283 $-1 #
edge $-1 $301 $301 $250 $302 0 #
loop $-1 $-1 $303 $220 #
coedge $-1 $280 $280 $254 $281 0 $252 $-1 #
edge $-1 $304 $304 $254 $305 1 #
pid_name-sg-attrib $-1 $-1 $-1 $258 7 114 119 105 108 115 111 110 784252905 167 1 #
loop $-1 $306 $277 $258 #
torus-surface $-1 0.25 -0.64 -0.25 0 -1 0 0.07 0.03 0 0 -1 0 #
loop $-1 $-1 $287 $230 #
coedge $-1 $286 $286 $307 $308 1 $259 $-1 #
coedge $-1 $287 $287 $261 $288 0 $285 $-1 #
edge $-1 $309 $309 $261 $310 0 #
point $-1 0.29 -0.62 0.25 #
point $-1 0.25 -0.64 0.15 #
loop $-1 $311 $312 $243 #
coedge $-1 $292 $292 $313 $314 1 $269 $-1 #
pid_name-sg-attrib $-1 $-1 $-1 $272 7 114 119 105 108 115 111 110 784252905 171 1 #
face $315 $316 $317 $6 $-1 $318 reversed single #
loop $-1 $319 $320 $272 #
cone-surface $-1 0.406 0.904792740578363 0 0 1 0 1.73205080756888 0 0 1 0.866025403784438 0.5 0 #
loop $-1 $-1 $321 $246 #
coedge $-1 $298 $298 $322 $323 0 $273 $-1 #
coedge $-1 $299 $299 $321 $324 1 $275 $-1 #
edge $-1 $325 $325 $276 $-1 0 #
vertex $-1 $278 $326 #
ellipse-curve $-1 0.25 -0.64 -0.25 0 -1 0 0 0 -0.1 1 #
coedge $-1 $303 $303 $327 $328 0 $279 $-1 #
vertex $-1 $281 $329 #
ellipse-curve $-1 0 0.125 0 0 1 0 0.199875 0 0 1 #
loop $-1 $-1 $307 $258 #
coedge $-1 $307 $307 $286 $308 0 $306 $-1 #
edge $-1 $330 $330 $286 $331 1 #
vertex $-1 $288 $332 #
ellipse-curve $-1 0.25 -0.62 -0.25 0 1 0 0.04 0 0 1 #
loop $-1 $333 $334 $243 #
coedge $-1 $312 $312 $335 $336 1 $291 $-1 #
coedge $-1 $313 $313 $292 $314 0 $337 $-1 #
edge $-1 $338 $338 $292 $339 0 #
pid_name-sg-attrib $-1 $-1 $-1 $294 7 114 119 105 108 115 111 110 784252905 172 1 #
face $340 $341 $342 $6 $-1 $343 reversed single #
loop $-1 $344 $345 $294 #
cone-surface $-1 0.406 -0.0999676223927186 0 0 1 0 0.035 0 0 1 0 1 0 #
loop $-1 $-1 $346 $272 #
coedge $-1 $320 $320 $-1 $347 0 $295 $-1 #
coedge $-1 $321 $321 $299 $324 0 $297 $-1 #
coedge $-1 $322 $322 $298 $323 1 $333 $-1 #
edge $-1 $348 $348 $322 $349 0 #
edge $-1 $350 $350 $299 $351 0 #
vertex $-1 $300 $352 #
point $-1 0.25 -0.64 -0.15 #
coedge $-1 $327 $327 $303 $328 1 $353 $-1 #
edge $-1 $354 $354 $327 $355 0 #
point $-1 0.199875 0.125 0 #
vertex $-1 $308 $356 #
ellipse-curve $-1 0.25 -0.64 -0.25 0 -1 0 0 0 -0.04 1 #
point $-1 0.21 -0.62 -0.25 #
loop $-1 $353 $322 $243 #
coedge $-1 $334 $334 $345 $357 1 $311 $-1 #
coedge $-1 $335 $335 $312 $336 0 $358 $-1 #
edge $-1 $359 $359 $312 $360 0 #
loop $-1 $361 $313 $362 #
vertex $-1 $314 $363 #
ellipse-curve $-1 0 0 0.406 0 1 0 -0.035 0 0 1 #
pid_name-sg-attrib $-1 $-1 $-1 $316 7 114 119 105 108 115 111 110 784252905 173 1 #
face $364 $365 $358 $6 $-1 $366 reversed single #
loop $-1 $367 $368 $316 #
cone-surface $-1 -0.406 0.904792740578363 0 0 1 0 1.73205080756888 0 0 1 0.866025403784438 0.5 0 #
loop $-1 $-1 $369 $294 #
coedge $-1 $345 $345 $334 $357 0 $317 $-1 #
coedge $-1 $346 $346 $369 $370 1 $319 $-1 #
edge $-1 $371 $371 $320 $-1 0 #
vertex $-1 $323 $372 #
ellipse-curve $-1 0 0 -0.406 0 1 0 -0.035 0 0 1 #
vertex $-1 $324 $373 #
ellipse-curve $-1 0 -0.075 -0.406 0 -1 0 0.035 0 0 1 #
point $-1 0 -0.0952072594216369 -0.406 #
loop $-1 $211 $327 $243 #
vertex $-1 $328 $374 #
ellipse-curve $-1 0 0 0 0 1 0 0.199875 0 0 1 #
point $-1 0.25 -0.64 -0.29 #
edge $-1 $375 $375 $334 $376 0 #
loop $-1 $377 $335 $341 #
vertex $-1 $336 $378 #
ellipse-curve $-1 -0.406 0 0 0 1 0 -0.035 0 0 1 #
loop $-1 $-1 $379 $362 #
face $380 $243 $337 $6 $-1 $381 reversed single #
point $-1 0.035 0 0.406 #
pid_name-sg-attrib $-1 $-1 $-1 $341 7 114 119 105 108 115 111 110 784252905 174 1 #
face $382 $362 $383 $6 $-1 $384 reversed single #
cone-surface $-1 -0.406 -0.0999676223927186 0 0 1 0 0.035 0 0 1 0 1 0 #
loop $-1 $-1 $385 $316 #
coedge $-1 $368 $368 $-1 $386 0 $342 $-1 #
coedge $-1 $369 $369 $346 $370 0 $344 $-1 #
edge $-1 $387 $387 $346 $388 0 #
vertex $-1 $347 $389 #
point $-1 0.035 0 -0.406 #
point $-1 0.035 -0.075 -0.406 #
point $-1 -0.199875 0 -2.44776278979577e-17 #
vertex $-1 $357 $390 #
ellipse-curve $-1 0.406 0 0 0 1 0 -0.035 0 0 1 #
loop $-1 $-1 $391 $341 #
point $-1 -0.371 0 0 #
coedge $-1 $379 $379 $392 $393 0 $361 $-1 #
pid_name-sg-attrib $-1 $-1 $-1 $362 7 114 119 105 108 115 111 110 784252905 176 1 #
cone-surface $-1 0 -0.0999676223927186 0.406 0 1 0 0.035 0 0 1 0 1 0 #
pid_name-sg-attrib $-1 $-1 $-1 $365 7 114 119 105 108 115 111 110 784252905 175 1 #
loop $-1 $394 $395 $365 #
cone-surface $-1 0 0.904792740578363 0.406 0 1 0 1.73205080756888 0 0 1 0.866025403784438 0.5 0 #
coedge $-1 $385 $385 $391 $396 1 $367 $-1 #
edge $-1 $397 $397 $368 $-1 0 #
vertex $-1 $370 $398 #
ellipse-curve $-1 0.406 -0.075 0 0 -1 0 0.035 0 0 1 #
point $-1 0.406 -0.0952072594216369 0 #
point $-1 0.441 0 0 #
coedge $-1 $391 $391 $385 $396 0 $377 $-1 #
coedge $-1 $392 $392 $379 $393 1 $394 $-1 #
edge $-1 $399 $399 $392 $400 0 #
loop $-1 $-1 $392 $365 #
coedge $-1 $395 $395 $-1 $401 0 $383 $-1 #
edge $-1 $402 $402 $385 $403 0 #
vertex $-1 $386 $404 #
point $-1 0.441 -0.075 0 #
vertex $-1 $393 $405 #
ellipse-curve $-1 0 -0.075 0.406 0 -1 0 0.035 0 0 1 #
edge $-1 $406 $406 $395 $-1 0 #
vertex $-1 $396 $407 #
ellipse-curve $-1 -0.406 -0.075 0 0 -1 0 0.035 0 0 1 #
point $-1 -0.406 -0.0952072594216369 0 #
point $-1 0.035 -0.075 0.406 #
vertex $-1 $401 $408 #
point $-1 -0.371 -0.075 0 #
point $-1 0 -0.0952072594216369 0.406 #
