600 0 1 0           
125 GICL ACIS Healer - Source: /gicl/data5/repository/Sandia/Randy_Wilson/discriminator/sh-r42886-000-u/sh-r42886-000-u.sat - 6 0 18 ACIS 6.0.3 Solaris 24 Sat Apr 13 23:38:05 2002 
1 9.999999999999999547e-07 1.000000000000000036e-10 
body $-1 $1 $-1 $2 #
lump $-1 $-1 $3 $0 #
transform $-1 1 0 0 0 1 0 0 0 1 0 0 0 1 no_rotate no_reflect no_shear #
shell $-1 $4 $-1 $5 $-1 $1 #
shell $-1 $6 $-1 $7 $-1 $1 #
face $8 $9 $10 $3 $-1 $11 forward single #
shell $-1 $-1 $-1 $12 $-1 $1 #
face $13 $14 $15 $4 $-1 $16 forward single #
pid_name-sg-attrib $-1 $-1 $-1 $5 7 rwilson 784252905 143 1 #
face $17 $18 $19 $3 $-1 $20 forward single #
loop $-1 $-1 $21 $5 #
plane-surface $-1 0.75 -0.8649999999999999911 -0.25 0.8574929257125443183 0.5144957554275262357 0 0 0 -1 forward_v I I I I #
face $22 $23 $24 $6 $-1 $25 reversed single #
pid_name-sg-attrib $-1 $-1 $-1 $7 7 rwilson 784252905 150 1 #
face $26 $27 $28 $4 $-1 $29 forward single #
loop $-1 $-1 $30 $7 #
plane-surface $-1 0.75 -0.8399999999999999689 0.25 0.8384436163006367959 0.5449883505954148388 0 0 0 -1 forward_v I I I I #
pid_name-sg-attrib $-1 $-1 $-1 $9 7 rwilson 784252905 144 1 #
face $31 $32 $33 $3 $-1 $34 forward single #
loop $-1 $35 $36 $9 #
cone-surface $-1 0.6021615090443479534 -0.9537030945733909748 -0.25 0.8574929257125443183 0.5144957554275262357 0 -0.00514495755427525972 0.008574929257125439228 0 1 I I 0 1 0.009999999999999995004 forward I I I I #
coedge $-1 $21 $21 $37 $38 reversed $10 $-1 #
pid_name-sg-attrib $-1 $-1 $-1 $12 7 rwilson 784252905 157 1 #
face $39 $40 $41 $6 $-1 $42 forward single #
loop $-1 $-1 $43 $12 #
plane-surface $-1 0 0.33500000000000002 0 0 -1 0 0 0 -1 forward_v I I I I #
pid_name-sg-attrib $-1 $-1 $-1 $14 7 rwilson 784252905 151 1 #
face $44 $45 $46 $4 $-1 $47 forward single #
loop $-1 $48 $49 $14 #
cone-surface $-1 0.6023791818420539679 -0.9359535318026650508 0.25 0.8384436163006367959 0.5449883505954148388 0 -0.00544988350595413968 0.008384436163006369139 0 1 I I 0 1 0.009999999999999996739 forward I I I I #
coedge $-1 $30 $30 $50 $51 reversed $15 $-1 #
pid_name-sg-attrib $-1 $-1 $-1 $18 7 rwilson 784252905 145 1 #
face $52 $53 $54 $3 $-1 $55 forward single #
loop $-1 $56 $57 $18 #
torus-surface $-1 0.5507119335015959738 -0.8679538020021370093 -0.25 0 0 1 0.09999999999999989453 0.01000000000000000021 1 0 0 forward_v I I I I #
loop $-1 $-1 $37 $9 #
coedge $-1 $36 $36 $57 $58 forward $19 $-1 #
coedge $-1 $37 $37 $21 $38 forward $35 $-1 #
edge $-1 $59 -6.283185307179586232 $59 -0 $21 $60 reversed 7 unknown #
pid_name-sg-attrib $-1 $-1 $-1 $23 7 rwilson 784252905 158 1 #
face $61 $62 $63 $6 $-1 $64 forward single #
loop $-1 $65 $66 $23 #
cone-surface $-1 0 0.3902499999999999858 0 0 -1 0 -0.06244999999999999857 0 0 1 I I 0 1 0.06244999999999999857 forward I I I I #
coedge $-1 $43 $43 $66 $67 reversed $24 $-1 #
pid_name-sg-attrib $-1 $-1 $-1 $27 7 rwilson 784252905 152 1 #
face $68 $69 $70 $4 $-1 $71 forward single #
loop $-1 $72 $73 $27 #
torus-surface $-1 0.5478803467825129614 -0.8521091701726020151 0.25 0 0 1 0.1000000000000000056 0.01000000000000000021 1 0 0 forward_v I I I I #
loop $-1 $-1 $50 $14 #
coedge $-1 $49 $49 $73 $74 forward $28 $-1 #
coedge $-1 $50 $50 $30 $51 forward $48 $-1 #
edge $-1 $75 -6.283185307179586232 $75 -0 $30 $76 reversed 7 unknown #
pid_name-sg-attrib $-1 $-1 $-1 $32 7 rwilson 784252905 146 1 #
face $77 $78 $79 $3 $-1 $80 forward single #
loop $-1 $81 $82 $32 #
cone-surface $-1 0.2975111297003539823 -0.8292985299818850242 -0.25 0.8511708697239902532 -0.5248887029964600659 0 0.005248887029964600069 0.008511708697239899271 0 1 I I 0 1 0.009999999999999996739 forward I I I I #
loop $-1 $-1 $83 $18 #
coedge $-1 $57 $57 $36 $58 reversed $33 $-1 #
edge $-1 $84 -3.141592653589793116 $84 3.141592653589793116 $57 $85 forward 7 unknown #
vertex $-1 $38 $86 #
ellipse-curve $-1 0.75 -0.8649999999999999911 -0.25 0.8574929257125450954 0.5144957554275251255 0 0.005144957554275239771 -0.008574929257125439228 0 1 I I #
pid_name-sg-attrib $-1 $-1 $-1 $40 7 rwilson 784252905 159 1 #
face $87 $88 $89 $6 $-1 $90 forward single #
loop $-1 $91 $92 $40 #
cone-surface $-1 0 0.3902499999999999858 0 0 -1 0 -0.2000000000000000111 0 0 1 I I 0 1 0.2000000000000000111 forward I I I I #
loop $-1 $-1 $93 $23 #
coedge $-1 $66 $66 $43 $67 forward $41 $-1 #
edge $-1 $94 -6.283185307179586232 $94 -0 $43 $95 reversed 7 unknown #
pid_name-sg-attrib $-1 $-1 $-1 $45 7 rwilson 784252905 153 1 #
face $96 $97 $98 $4 $-1 $99 forward single #
loop $-1 $100 $101 $45 #
cone-surface $-1 0.298550424457246999 -0.8191302546743489676 0.25 0.8574929257125439852 -0.5144957554275270128 0 0.005144957554275270128 0.008574929257125439228 0 1 I I 0 1 0.01000000000000000021 forward I I I I #
loop $-1 $-1 $102 $27 #
coedge $-1 $73 $73 $49 $74 reversed $46 $-1 #
edge $-1 $103 -3.141592653589793116 $103 3.141592653589793116 $73 $104 forward 7 unknown #
vertex $-1 $51 $105 #
ellipse-curve $-1 0.75 -0.8399999999999999689 0.25 0.8384436163006426801 0.544988350595405735 0 0.005449883505954099781 -0.008384436163006440262 0 1 I I #
pid_name-sg-attrib $-1 $-1 $-1 $53 7 rwilson 784252905 147 1 #
face $106 $107 $108 $3 $-1 $109 forward single #
loop $-1 $110 $111 $53 #
torus-surface $-1 0.3499999999999999778 -0.7441814430094859656 -0.25 0 0 1 0.1000000000000000056 0.01000000000000000021 1 0 0 forward_v I I I I #
loop $-1 $-1 $112 $32 #
coedge $-1 $82 $82 $111 $113 forward $54 $-1 #
coedge $-1 $83 $83 $112 $114 forward $56 $-1 #
vertex $-1 $58 $115 #
ellipse-curve $-1 0.6021615090443479534 -0.9537030945733909748 -0.25 0.8574929257125450954 0.5144957554275251255 0 0.005144957554275239771 -0.008574929257125439228 0 1 I I #
point $-1 0.7551449575542750203 -0.8735749292571259872 -0.25 #
pid_name-sg-attrib $-1 $-1 $-1 $62 7 rwilson 784252905 160 1 #
face $116 $117 $118 $6 $-1 $119 forward single #
loop $-1 $-1 $120 $62 #
plane-surface $-1 0 -0.7700000000000000178 0 0 -1 0 0 0 -1 forward_v I I I I #
loop $-1 $-1 $121 $40 #
coedge $-1 $92 $92 $122 $123 forward $63 $-1 #
coedge $-1 $93 $93 $124 $125 forward $65 $-1 #
vertex $-1 $67 $126 #
ellipse-curve $-1 0 0.33500000000000002 0 0 1 0 0.06244999999999999857 0 0 1 I I #
pid_name-sg-attrib $-1 $-1 $-1 $69 7 rwilson 784252905 154 1 #
face $127 $128 $129 $4 $-1 $130 forward single #
loop $-1 $131 $132 $69 #
torus-surface $-1 0.3499999999999999778 -0.7333809621030940029 0.25 0 0 1 0.1000000000000000056 0.01000000000000000021 1 0 0 forward_v I I I I #
loop $-1 $-1 $133 $45 #
coedge $-1 $101 $101 $132 $134 forward $70 $-1 #
coedge $-1 $102 $102 $133 $135 forward $72 $-1 #
vertex $-1 $74 $136 #
ellipse-curve $-1 0.6023791818420539679 -0.9359535318026650508 0.25 0.8384436163006380172 0.5449883505954129514 0 0.005449883505954099781 -0.00838443616300632924 0 1 I I #
point $-1 0.7554498835059539896 -0.8483844361630069608 0.25 #
pid_name-sg-attrib $-1 $-1 $-1 $78 7 rwilson 784252905 148 1 #
face $137 $-1 $138 $3 $-1 $139 reversed single #
loop $-1 $140 $141 $78 #
cone-surface $-1 0.25 -0.6400000000000000133 -0.25 0 -1 0 0.01000000000000000021 0 0 1 I I 0 1 0.01000000000000000021 forward I I I I #
loop $-1 $-1 $142 $53 #
coedge $-1 $111 $111 $82 $113 reversed $79 $-1 #
coedge $-1 $112 $112 $83 $114 reversed $81 $-1 #
edge $-1 $143 -3.141592653589793116 $143 3.141592653589793116 $111 $144 forward 7 unknown #
edge $-1 $145 -3.141592653589793116 $145 3.141592653589793116 $112 $146 forward 7 unknown #
point $-1 0.5970165514900730441 -0.9451281653162659779 -0.25 #
pid_name-sg-attrib $-1 $-1 $-1 $88 7 rwilson 784252905 161 1 #
face $147 $148 $149 $6 $-1 $150 forward single #
loop $-1 $151 $152 $88 #
cone-surface $-1 0 0.3902499999999999858 0 0 -1 0 -0.5310000000000000275 0 0 1 I I 0 1 0.5310000000000000275 forward I I I I #
coedge $-1 $120 $120 $121 $153 reversed $89 $-1 #
coedge $-1 $121 $121 $120 $153 forward $91 $-1 #
coedge $-1 $122 $122 $92 $123 reversed $154 $-1 #
edge $-1 $155 -6.283185307179586232 $155 -0 $122 $156 reversed 7 unknown #
coedge $-1 $124 $124 $93 $125 reversed $157 $-1 #
edge $-1 $158 -6.283185307179586232 $158 -1.224606353822377751e-16 $124 $159 reversed 7 unknown #
point $-1 0.06244999999999999857 0.33500000000000002 0 #
pid_name-sg-attrib $-1 $-1 $-1 $97 7 rwilson 784252905 155 1 #
face $160 $-1 $161 $4 $-1 $162 reversed single #
loop $-1 $163 $164 $97 #
cone-surface $-1 0.25 -0.6400000000000000133 0.25 0 -1 0 0.01000000000000000021 0 0 1 I I 0 1 0.01000000000000000021 forward I I I I #
loop $-1 $-1 $165 $69 #
coedge $-1 $132 $132 $101 $134 reversed $98 $-1 #
coedge $-1 $133 $133 $102 $135 reversed $100 $-1 #
edge $-1 $166 -3.141592653589793116 $166 3.141592653589793116 $132 $167 forward 7 unknown #
edge $-1 $168 -3.141592653589793116 $168 3.141592653589793116 $133 $169 forward 7 unknown #
point $-1 0.5969292983360999783 -0.9275690956396589471 0.25 #
pid_name-sg-attrib $-1 $-1 $-1 $107 7 rwilson 784252905 149 1 #
loop $-1 $-1 $170 $107 #
plane-surface $-1 0.25 -0.6400000000000000133 -0.25 0 -1 0 0 0 -1 forward_v I I I I #
loop $-1 $-1 $171 $78 #
coedge $-1 $141 $141 $170 $172 forward $108 $-1 #
coedge $-1 $142 $142 $171 $173 forward $110 $-1 #
vertex $-1 $113 $174 #
ellipse-curve $-1 0.2975111297003539823 -0.8292985299818850242 -0.25 0.8511708697239902532 -0.5248887029964600659 0 -0.005248887029964620018 -0.00851170869723993917 0 1 I I #
vertex $-1 $114 $175 #
ellipse-curve $-1 0.4982230632019499783 -0.9530708889745359569 -0.25 0.8511708697239867005 -0.524888702996465728 0 0.005248887029964679866 0.008511708697239829882 0 1 I I #
pid_name-sg-attrib $-1 $-1 $-1 $117 7 rwilson 784252905 162 1 #
face $176 $177 $178 $6 $-1 $179 forward single #
loop $-1 $180 $181 $117 #
torus-surface $-1 0.25 -0.6400000000000000133 0.25 0 1 0 0.07000000000000000666 0.02999999999999999889 0 0 1 forward_v I I I I #
loop $-1 $-1 $182 $88 #
coedge $-1 $152 $152 $183 $184 forward $118 $-1 #
edge $-1 $185 -6.283185307179586232 $185 -1.224606353822374793e-16 $120 $186 reversed 7 unknown #
loop $-1 $-1 $122 $187 #
vertex $-1 $123 $188 #
ellipse-curve $-1 0 -0.6400000000000000133 0 -1.11022302462516009e-15 1 0 0.2000000000000000111 2.220446049250310123e-16 0 1 I I #
loop $-1 $-1 $124 $189 #
vertex $-1 $125 $190 #
ellipse-curve $-1 0 0.125 0 0 -1 0 0.06244999999999999857 0 0 1 I I #
pid_name-sg-attrib $-1 $-1 $-1 $128 7 rwilson 784252905 156 1 #
loop $-1 $-1 $191 $128 #
plane-surface $-1 0.25 -0.6400000000000000133 0.25 0 -1 0 0 0 -1 forward_v I I I I #
loop $-1 $-1 $192 $97 #
coedge $-1 $164 $164 $191 $193 forward $129 $-1 #
coedge $-1 $165 $165 $192 $194 forward $131 $-1 #
vertex $-1 $134 $195 #
ellipse-curve $-1 0.298550424457246999 -0.8191302546743489676 0.25 0.8574929257125450954 -0.5144957554275251255 0 -0.005144957554275239771 -0.008574929257125439228 0 1 I I #
vertex $-1 $135 $196 #
ellipse-curve $-1 0.4964307712397599825 -0.9378584627438559806 0.25 0.857492925712552978 -0.5144957554275120248 0 0.005144957554275129616 0.00857492925712555025 0 1 I I #
coedge $-1 $170 $170 $141 $172 reversed $138 $-1 #
coedge $-1 $171 $171 $142 $173 reversed $140 $-1 #
edge $-1 $197 -3.141592653589793116 $197 3.141592653589793116 $170 $198 forward 7 unknown #
edge $-1 $199 -3.141592653589793116 $199 3.141592653589793116 $171 $200 forward 7 unknown #
point $-1 0.3027600167303189926 -0.820786821284644974 -0.25 #
point $-1 0.4929741761719850235 -0.9615825976717750079 -0.25 #
pid_name-sg-attrib $-1 $-1 $-1 $148 7 rwilson 784252905 163 1 #
face $201 $202 $203 $6 $-1 $204 reversed single #
loop $-1 $-1 $205 $148 #
plane-surface $-1 0.25 -0.6199999999999999956 0.25 0 -1 0 0 0 -1 forward_v I I I I #
loop $-1 $-1 $206 $117 #
coedge $-1 $181 $181 $207 $208 forward $149 $-1 #
coedge $-1 $182 $182 $209 $210 forward $151 $-1 #
coedge $-1 $183 $183 $152 $184 reversed $211 $-1 #
edge $-1 $212 -6.283185307179586232 $212 -0 $183 $213 reversed 7 unknown #
vertex $-1 $153 $214 #
ellipse-curve $-1 0 -0.7700000000000000178 0 0 -1 0 0.2000000000000000111 0 0 1 I I #
face $215 $216 $217 $6 $-1 $218 forward single #
point $-1 0.2000000000000000111 -0.6400000000000000133 0 #
face $219 $220 $221 $6 $-1 $222 reversed single #
point $-1 0.06244999999999999857 0.125 7.647666679620749944e-18 #
coedge $-1 $191 $191 $164 $193 reversed $161 $-1 #
coedge $-1 $192 $192 $165 $194 reversed $163 $-1 #
edge $-1 $223 -3.141592653589793116 $223 3.141592653589793116 $191 $224 forward 7 unknown #
edge $-1 $225 -3.141592653589793116 $225 3.141592653589793116 $192 $226 forward 7 unknown #
point $-1 0.3036953820115230185 -0.8105553254172229716 0.25 #
point $-1 0.4912858136854850177 -0.9464333920009819767 0.25 #
vertex $-1 $172 $227 #
ellipse-curve $-1 0.25 -0.6400000000000000133 -0.25 0 -1 0 -0.01000000000000000021 0 0 1 I I #
vertex $-1 $173 $228 #
ellipse-curve $-1 0.25 -0.7441814430094859656 -0.25 0 -1 0 0.01000000000000000021 0 0 1 I I #
pid_name-sg-attrib $-1 $-1 $-1 $177 7 rwilson 784252905 164 1 #
face $229 $230 $231 $6 $-1 $232 reversed single #
loop $-1 $233 $234 $177 #
cone-surface $-1 0.25 -0.6400000000000000133 0.25 0 -1 0 -0.04000000000000000083 0 0 1 I I 0 1 0.04000000000000000083 forward I I I I #
coedge $-1 $205 $205 $234 $235 reversed $178 $-1 #
coedge $-1 $206 $206 $236 $237 forward $180 $-1 #
coedge $-1 $207 $207 $181 $208 reversed $233 $-1 #
edge $-1 $238 1.570796326794896558 $238 7.85398163397448279 $207 $239 forward 7 unknown #
coedge $-1 $209 $209 $182 $210 reversed $240 $-1 #
edge $-1 $241 -6.283185307179586232 $241 -1.224606353822376519e-16 $209 $242 reversed 7 unknown #
loop $-1 $-1 $183 $243 #
vertex $-1 $184 $244 #
ellipse-curve $-1 0 0 0 0 1 0 0.5310000000000000275 0 0 1 I I #
point $-1 0.2000000000000000111 -0.7700000000000000178 2.449212707644749956e-17 #
pid_name-sg-attrib $-1 $-1 $-1 $187 7 rwilson 784252905 168 1 #
face $245 $246 $247 $6 $-1 $248 reversed single #
loop $-1 $249 $250 $187 #
plane-surface $-1 0 -0.6400000000000000133 0 0 -1 0 0 0 -1 forward_v I I I I #
pid_name-sg-attrib $-1 $-1 $-1 $189 7 rwilson 784252905 178 1 #
face $251 $-1 $252 $6 $-1 $253 forward single #
loop $-1 $157 $254 $189 #
plane-surface $-1 0 0.125 0 0 -1 0 0 0 -1 forward_v I I I I #
vertex $-1 $193 $255 #
ellipse-curve $-1 0.25 -0.6400000000000000133 0.25 0 -1 0 -0.01000000000000000021 0 0 1 I I #
vertex $-1 $194 $256 #
ellipse-curve $-1 0.25 -0.7333809621030940029 0.25 0 -1 0 0.01000000000000000021 0 0 1 I I #
point $-1 0.2600000000000000089 -0.6400000000000000133 -0.25 #
point $-1 0.2399999999999999911 -0.7441814430094859656 -0.25 #
pid_name-sg-attrib $-1 $-1 $-1 $202 7 rwilson 784252905 165 1 #
face $257 $258 $259 $6 $-1 $260 reversed single #
loop $-1 $-1 $261 $202 #
plane-surface $-1 0.25 -0.6199999999999999956 -0.25 0 1 0 0 0 1 forward_v I I I I #
loop $-1 $-1 $207 $177 #
coedge $-1 $234 $234 $205 $235 forward $203 $-1 #
edge $-1 $262 -6.283185307179586232 $262 -0 $205 $263 reversed 7 unknown #
coedge $-1 $236 $236 $206 $237 reversed $249 $-1 #
edge $-1 $264 -6.283185307179586232 $264 -0 $236 $265 reversed 7 unknown #
vertex $-1 $208 $266 #
ellipse-curve $-1 0.25 -0.6400000000000000133 0.25 0 1 0 0 0 0.04000000000000000083 1 I I #
loop $-1 $154 $209 $187 #
vertex $-1 $210 $267 #
ellipse-curve $-1 0 -0.6400000000000000133 0 -4.181630977872530088e-16 -1 0 0.5310000000000000275 -2.220446049250310123e-16 0 1 I I #
face $268 $189 $269 $6 $-1 $270 reversed single #
point $-1 0.5310000000000000275 0 0 #
pid_name-sg-attrib $-1 $-1 $-1 $216 7 rwilson 784252905 169 1 #
face $271 $272 $273 $6 $-1 $274 reversed single #
loop $-1 $275 $276 $216 #
cone-surface $-1 0 0.9047927405783630084 -0.4060000000000000275 0 1 0 1.73205080756888008 0 0 1 I I 0.8660254037844380415 0.5 1.73205080756888008 forward I I I I #
loop $-1 $240 $236 $187 #
coedge $-1 $250 $250 $277 $278 reversed $217 $-1 #
pid_name-sg-attrib $-1 $-1 $-1 $220 7 rwilson 784252905 179 1 #
loop $-1 $279 $280 $220 #
cone-surface $-1 0 0.3902499999999999858 0 0 -1 0 -0.1998749999999999971 0 0 1 I I 0 1 0.1998749999999999971 forward I I I I #
coedge $-1 $254 $254 $280 $281 reversed $221 $-1 #
point $-1 0.2600000000000000089 -0.6400000000000000133 0.25 #
point $-1 0.2399999999999999911 -0.7333809621030940029 0.25 #
pid_name-sg-attrib $-1 $-1 $-1 $230 7 rwilson 784252905 166 1 #
face $282 $187 $283 $6 $-1 $284 forward single #
loop $-1 $285 $286 $230 #
cone-surface $-1 0.25 -0.6400000000000000133 -0.25 0 1 0 -0.04000000000000000083 0 0 1 I I 0 1 0.04000000000000000083 forward I I I I #
coedge $-1 $261 $261 $287 $288 reversed $231 $-1 #
vertex $-1 $235 $289 #
ellipse-curve $-1 0.25 -0.6199999999999999956 0.25 0 -1 0 0.04000000000000000083 0 0 1 I I #
vertex $-1 $237 $290 #
ellipse-curve $-1 0.25 -0.6400000000000000133 0.25 0 1 0 0 0 -0.1000000000000000056 1 I I #
point $-1 0.28999999999999998 -0.6400000000000000133 0.25 #
point $-1 0.5310000000000000275 -0.6400000000000000133 6.502659738796819524e-17 #
pid_name-sg-attrib $-1 $-1 $-1 $243 7 rwilson 784252905 177 1 #
loop $-1 $291 $292 $243 #
plane-surface $-1 0 0 0 0 -1 0 0 0 -1 forward_v I I I I #
pid_name-sg-attrib $-1 $-1 $-1 $246 7 rwilson 784252905 170 1 #
face $293 $294 $295 $6 $-1 $296 reversed single #
loop $-1 $297 $298 $246 #
cone-surface $-1 0 -0.09996762239271859973 -0.4060000000000000275 0 1 0 0.03500000000000000333 0 0 1 I I 0 1 0.03500000000000000333 forward I I I I #
loop $-1 $-1 $299 $216 #
coedge $-1 $276 $276 $-1 $300 forward $247 $-1 #
coedge $-1 $277 $277 $250 $278 forward $283 $-1 #
edge $-1 $301 -3.141592653589793116 $301 3.141592653589793116 $250 $302 forward 7 unknown #
loop $-1 $-1 $303 $220 #
coedge $-1 $280 $280 $254 $281 forward $252 $-1 #
edge $-1 $304 -6.283185307179586232 $304 -0 $254 $305 reversed 7 unknown #
pid_name-sg-attrib $-1 $-1 $-1 $258 7 rwilson 784252905 167 1 #
loop $-1 $306 $277 $258 #
torus-surface $-1 0.25 -0.6400000000000000133 -0.25 0 -1 0 0.07000000000000000666 0.02999999999999999889 0 0 -1 forward_v I I I I #
loop $-1 $-1 $287 $230 #
coedge $-1 $286 $286 $307 $308 reversed $259 $-1 #
coedge $-1 $287 $287 $261 $288 forward $285 $-1 #
edge $-1 $309 -3.141592653589793116 $309 3.141592653589793116 $261 $310 forward 7 unknown #
point $-1 0.28999999999999998 -0.6199999999999999956 0.25 #
point $-1 0.25 -0.6400000000000000133 0.1499999999999999944 #
loop $-1 $311 $312 $243 #
coedge $-1 $292 $292 $313 $314 reversed $269 $-1 #
pid_name-sg-attrib $-1 $-1 $-1 $272 7 rwilson 784252905 171 1 #
face $315 $316 $317 $6 $-1 $318 reversed single #
loop $-1 $319 $320 $272 #
cone-surface $-1 0.4060000000000000275 0.9047927405783630084 0 0 1 0 1.73205080756888008 0 0 1 I I 0.8660254037844380415 0.5 1.73205080756888008 forward I I I I #
loop $-1 $-1 $321 $246 #
coedge $-1 $298 $298 $322 $323 forward $273 $-1 #
coedge $-1 $299 $299 $321 $324 reversed $275 $-1 #
edge $-1 $325 1 $325 0 $276 $-1 forward 7 unknown #
vertex $-1 $278 $326 #
ellipse-curve $-1 0.25 -0.6400000000000000133 -0.25 0 -1 0 0 0 -0.1000000000000000056 1 I I #
coedge $-1 $303 $303 $327 $328 forward $279 $-1 #
vertex $-1 $281 $329 #
ellipse-curve $-1 0 0.125 0 0 1 0 0.1998749999999999971 0 0 1 I I #
loop $-1 $-1 $307 $258 #
coedge $-1 $307 $307 $286 $308 forward $306 $-1 #
edge $-1 $330 -6.283185307179586232 $330 -0 $286 $331 reversed 7 unknown #
vertex $-1 $288 $332 #
ellipse-curve $-1 0.25 -0.6199999999999999956 -0.25 0 1 0 0.04000000000000000083 0 0 1 I I #
loop $-1 $333 $334 $243 #
coedge $-1 $312 $312 $335 $336 reversed $291 $-1 #
coedge $-1 $313 $313 $292 $314 forward $337 $-1 #
edge $-1 $338 -3.141592653589793116 $338 3.141592653589793116 $292 $339 forward 7 unknown #
pid_name-sg-attrib $-1 $-1 $-1 $294 7 rwilson 784252905 172 1 #
face $340 $341 $342 $6 $-1 $343 reversed single #
loop $-1 $344 $345 $294 #
cone-surface $-1 0.4060000000000000275 -0.09996762239271859973 0 0 1 0 0.03500000000000000333 0 0 1 I I 0 1 0.03500000000000000333 forward I I I I #
loop $-1 $-1 $346 $272 #
coedge $-1 $320 $320 $-1 $347 forward $295 $-1 #
coedge $-1 $321 $321 $299 $324 forward $297 $-1 #
coedge $-1 $322 $322 $298 $323 reversed $333 $-1 #
edge $-1 $348 -3.141592653589793116 $348 3.141592653589793116 $322 $349 forward 7 unknown #
edge $-1 $350 0 $350 6.283185307179586232 $299 $351 forward 7 unknown #
vertex $-1 $300 $352 #
point $-1 0.25 -0.6400000000000000133 -0.1499999999999999944 #
coedge $-1 $327 $327 $303 $328 reversed $353 $-1 #
edge $-1 $354 -3.141592653589793116 $354 3.141592653589793116 $327 $355 forward 7 unknown #
point $-1 0.1998749999999999971 0.125 0 #
vertex $-1 $308 $356 #
ellipse-curve $-1 0.25 -0.6400000000000000133 -0.25 0 -1 0 0 0 -0.04000000000000000083 1 I I #
point $-1 0.2099999999999999922 -0.6199999999999999956 -0.25 #
loop $-1 $353 $322 $243 #
coedge $-1 $334 $334 $345 $357 reversed $311 $-1 #
coedge $-1 $335 $335 $312 $336 forward $358 $-1 #
edge $-1 $359 -3.141592653589793116 $359 3.141592653589793116 $312 $360 forward 7 unknown #
loop $-1 $361 $313 $362 #
vertex $-1 $314 $363 #
ellipse-curve $-1 0 0 0.4060000000000000275 0 1 0 -0.03500000000000000333 0 0 1 I I #
pid_name-sg-attrib $-1 $-1 $-1 $316 7 rwilson 784252905 173 1 #
face $364 $365 $358 $6 $-1 $366 reversed single #
loop $-1 $367 $368 $316 #
cone-surface $-1 -0.4060000000000000275 0.9047927405783630084 0 0 1 0 1.73205080756888008 0 0 1 I I 0.8660254037844380415 0.5 1.73205080756888008 forward I I I I #
loop $-1 $-1 $369 $294 #
coedge $-1 $345 $345 $334 $357 forward $317 $-1 #
coedge $-1 $346 $346 $369 $370 reversed $319 $-1 #
edge $-1 $371 1 $371 0 $320 $-1 forward 7 unknown #
vertex $-1 $323 $372 #
ellipse-curve $-1 0 0 -0.4060000000000000275 0 1 0 -0.03500000000000000333 0 0 1 I I #
vertex $-1 $324 $373 #
ellipse-curve $-1 0 -0.07499999999999999722 -0.4060000000000000275 0 -1 0 0.03500000000000000333 0 0 1 I I #
point $-1 0 -0.09520725942163689448 -0.4060000000000000275 #
loop $-1 $211 $327 $243 #
vertex $-1 $328 $374 #
ellipse-curve $-1 0 0 0 0 1 0 0.1998749999999999971 0 0 1 I I #
point $-1 0.25 -0.6400000000000000133 -0.28999999999999998 #
edge $-1 $375 -3.141592653589793116 $375 3.141592653589793116 $334 $376 forward 7 unknown #
loop $-1 $377 $335 $341 #
vertex $-1 $336 $378 #
ellipse-curve $-1 -0.4060000000000000275 0 0 0 1 0 -0.03500000000000000333 0 0 1 I I #
loop $-1 $-1 $379 $362 #
face $380 $243 $337 $6 $-1 $381 reversed single #
point $-1 0.03500000000000000333 0 0.4060000000000000275 #
pid_name-sg-attrib $-1 $-1 $-1 $341 7 rwilson 784252905 174 1 #
face $382 $362 $383 $6 $-1 $384 reversed single #
cone-surface $-1 -0.4060000000000000275 -0.09996762239271859973 0 0 1 0 0.03500000000000000333 0 0 1 I I 0 1 0.03500000000000000333 forward I I I I #
loop $-1 $-1 $385 $316 #
coedge $-1 $368 $368 $-1 $386 forward $342 $-1 #
coedge $-1 $369 $369 $346 $370 forward $344 $-1 #
edge $-1 $387 0 $387 6.283185307179586232 $346 $388 forward 7 unknown #
vertex $-1 $347 $389 #
point $-1 0.03500000000000000333 0 -0.4060000000000000275 #
point $-1 0.03500000000000000333 -0.07499999999999999722 -0.4060000000000000275 #
point $-1 -0.1998749999999999971 0 -2.447762789795770038e-17 #
vertex $-1 $357 $390 #
ellipse-curve $-1 0.4060000000000000275 0 0 0 1 0 -0.03500000000000000333 0 0 1 I I #
loop $-1 $-1 $391 $341 #
point $-1 -0.3709999999999999964 0 0 #
coedge $-1 $379 $379 $392 $393 forward $361 $-1 #
pid_name-sg-attrib $-1 $-1 $-1 $362 7 rwilson 784252905 176 1 #
cone-surface $-1 0 -0.09996762239271859973 0.4060000000000000275 0 1 0 0.03500000000000000333 0 0 1 I I 0 1 0.03500000000000000333 forward I I I I #
pid_name-sg-attrib $-1 $-1 $-1 $365 7 rwilson 784252905 175 1 #
loop $-1 $394 $395 $365 #
cone-surface $-1 0 0.9047927405783630084 0.4060000000000000275 0 1 0 1.73205080756888008 0 0 1 I I 0.8660254037844380415 0.5 1.73205080756888008 forward I I I I #
coedge $-1 $385 $385 $391 $396 reversed $367 $-1 #
edge $-1 $397 1 $397 0 $368 $-1 forward 7 unknown #
vertex $-1 $370 $398 #
ellipse-curve $-1 0.4060000000000000275 -0.07499999999999999722 0 0 -1 0 0.03500000000000000333 0 0 1 I I #
point $-1 0.4060000000000000275 -0.09520725942163689448 0 #
point $-1 0.4410000000000000031 0 0 #
coedge $-1 $391 $391 $385 $396 forward $377 $-1 #
coedge $-1 $392 $392 $379 $393 reversed $394 $-1 #
edge $-1 $399 0 $399 6.283185307179586232 $392 $400 forward 7 unknown #
loop $-1 $-1 $392 $365 #
coedge $-1 $395 $395 $-1 $401 forward $383 $-1 #
edge $-1 $402 0 $402 6.283185307179586232 $385 $403 forward 7 unknown #
vertex $-1 $386 $404 #
point $-1 0.4410000000000000031 -0.07499999999999999722 0 #
vertex $-1 $393 $405 #
ellipse-curve $-1 0 -0.07499999999999999722 0.4060000000000000275 0 -1 0 0.03500000000000000333 0 0 1 I I #
edge $-1 $406 1 $406 0 $395 $-1 forward 7 unknown #
vertex $-1 $396 $407 #
ellipse-curve $-1 -0.4060000000000000275 -0.07499999999999999722 0 0 -1 0 0.03500000000000000333 0 0 1 I I #
point $-1 -0.4060000000000000275 -0.09520725942163689448 0 #
point $-1 0.03500000000000000333 -0.07499999999999999722 0.4060000000000000275 #
vertex $-1 $401 $408 #
point $-1 -0.3709999999999999964 -0.07499999999999999722 0 #
point $-1 0 -0.09520725942163689448 0.4060000000000000275 #
End-of-ACIS-data 