600 0 1 0           
89 GICL ACIS Healer - Source: /gicl/data5/repository/UMD/tmp/fun_pocket/fun_pocket.sat - 6 0 18 ACIS 6.0.3 Solaris 24 Sun Apr 14 00:34:06 2002 
1 9.999999999999999547e-07 1.000000000000000036e-10 
body $-1 $1 $-1 $-1 #
lump $-1 $-1 $2 $0 #
shell $-1 $-1 $-1 $3 $-1 $1 #
face $-1 $4 $5 $2 $-1 $6 forward single #
face $-1 $7 $8 $2 $-1 $9 forward single #
loop $-1 $-1 $10 $3 #
plane-surface $-1 37.11839724849590283 41.08516802404749768 -3.5 0.6644630243886749943 0.2418447626479759971 -0.7071067811865470176 -0.7287394448186830243 0 -0.6847910787717359504 forward_v I I I I #
face $-1 $11 $12 $2 $-1 $13 forward single #
loop $-1 $-1 $14 $4 #
cone-surface $-1 32.15586578548079899 44.48629576144369935 -3.5 0 0 1 1.479163916092449904 3.172077254628269838 0 1 I I 0.7071067811865480168 0.7071067811865470176 3.499999999999996003 forward I I I I #
coedge $-1 $15 $16 $17 $18 forward $5 $-1 #
face $-1 $19 $20 $2 $-1 $21 reversed single #
loop $-1 $-1 $22 $7 #
plane-surface $-1 14.22012036178469963 41.68284050150779763 -3.5 -0.2418447626479759971 0.6644630243886749943 -0.7071067811865470176 -0.9461886483394650327 0 0.3236155771181850049 forward_v I I I I #
coedge $-1 $23 $24 $25 $26 forward $8 $-1 #
coedge $-1 $27 $10 $24 $28 reversed $5 $-1 #
coedge $-1 $10 $27 $29 $30 reversed $5 $-1 #
coedge $-1 $31 $25 $10 $18 reversed $32 $-1 #
edge $-1 $33 24.20805499816706785 $34 32.90274501420857689 $17 $35 forward 7 unknown #
face $-1 $36 $37 $2 $-1 $38 forward single #
loop $-1 $-1 $39 $11 #
plane-surface $-1 48.82503390580880165 13.30715475056529939 20 -0.9396926207859083169 -0.3420201433256691015 0 0 0 1 forward_v I I I I #
coedge $-1 $40 $41 $42 $43 forward $12 $-1 #
coedge $-1 $44 $14 $40 $45 reversed $8 $-1 #
coedge $-1 $14 $44 $15 $28 forward $8 $-1 #
coedge $-1 $17 $46 $14 $26 reversed $32 $-1 #
edge $-1 $34 -0.7853981633974163046 $47 0.7853981633974148613 $25 $48 forward 7 unknown #
coedge $-1 $16 $15 $39 $49 forward $5 $-1 #
edge $-1 $50 -2.121320343559663701 $34 2.12132034355966681 $24 $51 forward 7 unknown #
coedge $-1 $52 $53 $16 $30 forward $54 $-1 #
edge $-1 $33 -3.863867995468552863 $55 0.8703283850263698884 $29 $56 forward 7 unknown #
coedge $-1 $57 $17 $53 $58 reversed $32 $-1 #
loop $-1 $-1 $31 $59 #
vertex $-1 $58 $60 #
vertex $-1 $18 $61 #
straight-curve $-1 45.2886525926202026 14.25186935464300042 -5 -0.3420201433256689905 0.9396926207859079838 0 I I #
face $-1 $62 $63 $2 $-1 $64 reversed single #
loop $-1 $-1 $65 $19 #
cone-surface $-1 32.15586578548079899 44.48629576144369935 20 0 0 -1 2.113091308703490157 4.531538935183250238 0 1 I I 0 1 4.999999999999997335 forward I I I I #
coedge $-1 $66 $67 $27 $49 reversed $20 $-1 #
coedge $-1 $68 $22 $23 $45 forward $12 $-1 #
coedge $-1 $22 $68 $69 $70 reversed $12 $-1 #
coedge $-1 $71 $72 $22 $43 reversed $63 $-1 #
edge $-1 $73 18.36148113796247472 $74 45.21591952297779926 $42 $75 forward 7 unknown #
coedge $-1 $24 $23 $65 $76 forward $8 $-1 #
edge $-1 $74 -2.121320343559662813 $47 2.121320343559601085 $40 $77 forward 7 unknown #
coedge $-1 $25 $78 $68 $79 reversed $32 $-1 #
vertex $-1 $26 $80 #
ellipse-curve $-1 32.15586578548079899 44.48629576144369935 -5 0 0 1 0.8452365234813969952 1.812615574073300095 0 1 I I #
edge $-1 $50 -32.90274501420844899 $55 -26.30867761279610662 $39 $81 forward 7 unknown #
vertex $-1 $82 $83 #
straight-curve $-1 35.44478995823150314 45.68336626308359882 -3.5 -0.6644630243886749943 -0.2418447626479749979 -0.7071067811865470176 I I #
coedge $-1 $84 $29 $85 $86 forward $54 $-1 #
coedge $-1 $29 $84 $31 $58 forward $54 $-1 #
loop $-1 $-1 $52 $87 #
vertex $-1 $86 $88 #
straight-curve $-1 38.7234570911013023 39.44848397801229822 -2.551516021987698224 0.4437126062796569737 0.6336872742246419943 0.6336872742246419943 I I #
coedge $-1 $89 $31 $90 $91 reversed $32 $-1 #
edge $-1 $92 -23.97259180821490077 $33 -15.98160196072630157 $31 $93 forward 7 unknown #
face $-1 $87 $32 $2 $-1 $94 reversed single #
point $-1 37.0090101525114008 37 -5 #
point $-1 34.03525102705260252 45.17033604809510194 -5 #
face $-1 $95 $96 $2 $-1 $97 forward single #
loop $-1 $-1 $42 $36 #
plane-surface $-1 -11.84040286651340068 33.79385241571819876 20 0.3420201433256691015 -0.9396926207859083169 0 0 0 -1 forward_v I I I I #
coedge $-1 $98 $99 $44 $76 reversed $37 $-1 #
coedge $-1 $100 $39 $99 $82 reversed $20 $-1 #
coedge $-1 $39 $100 $101 $102 reversed $20 $-1 #
coedge $-1 $41 $40 $46 $79 forward $12 $-1 #
coedge $-1 $103 $104 $41 $70 forward $105 $-1 #
edge $-1 $73 0.007376761732333317161 $106 4.282867474753694559 $69 $107 forward 7 unknown #
coedge $-1 $108 $42 $109 $110 reversed $63 $-1 #
coedge $-1 $42 $108 $98 $111 reversed $63 $-1 #
vertex $-1 $110 $112 #
vertex $-1 $43 $113 #
straight-curve $-1 -12.04330084893920016 33.72000358952249854 -2 0.9396926207859079838 0.3420201433256689905 0 I I #
edge $-1 $74 -0.7853981633974350673 $50 0.7853981633974422838 $65 $114 forward 7 unknown #
straight-curve $-1 30.95879528384099899 47.77521993419440349 -3.5 0.2418447626479789947 -0.6644630243886729959 -0.7071067811865480168 I I #
coedge $-1 $46 $115 $103 $116 reversed $32 $-1 #
edge $-1 $47 -45.21591952297779926 $106 -17.83250019583708124 $46 $117 forward 7 unknown #
point $-1 31.47182549882949942 46.36568100301560236 -5 #
straight-curve $-1 48.10773045497789724 15.27792978462010076 -2 0.3420201433256689905 -0.9396926207859079838 0 I I #
edge $-1 $118 -25 $50 22 $66 $119 forward 7 unknown #
point $-1 36.85432888941039664 46.19639647807210281 -2 #
coedge $-1 $53 $52 $120 $121 reversed $54 $-1 #
coedge $-1 $101 $122 $52 $86 reversed $123 $-1 #
edge $-1 $55 39.10963276714050352 $124 45 $85 $125 forward 7 unknown #
face $-1 $126 $54 $2 $-1 $127 forward single #
point $-1 39.10963276714050352 40 -2 #
coedge $-1 $128 $57 $129 $130 reversed $32 $-1 #
coedge $-1 $120 $131 $57 $91 forward $132 $-1 #
edge $-1 $133 -0.785398163397448279 $92 0.785398163397448279 $57 $134 forward 7 unknown #
vertex $-1 $58 $135 #
straight-curve $-1 21.02740819178509923 37 -5 -1 0 0 I I #
plane-surface $-1 0 0 -5 0 0 1 1 0 0 forward_v I I I I #
face $-1 $136 $137 $2 $-1 $138 forward single #
loop $-1 $-1 $139 $62 #
plane-surface $-1 48.5 -30.31988507324290083 -3.5 0.7071067811865475727 0 -0.7071067811865475727 -0.7071067811865480168 0 -0.7071067811865480168 forward_v I I I I #
coedge $-1 $140 $65 $72 $111 forward $37 $-1 #
coedge $-1 $65 $140 $66 $82 forward $37 $-1 #
coedge $-1 $67 $66 $141 $142 reversed $20 $-1 #
coedge $-1 $143 $85 $67 $102 forward $123 $-1 #
edge $-1 $55 -22 $144 25 $101 $145 forward 7 unknown #
coedge $-1 $146 $69 $78 $116 forward $105 $-1 #
coedge $-1 $69 $146 $147 $148 forward $105 $-1 #
loop $-1 $-1 $103 $149 #
vertex $-1 $116 $150 #
straight-curve $-1 5.209934800412369782 40.00517608075480069 -1.994823919245199306 0.1237240302064829961 -0.701673843159863031 -0.701673843159863031 I I #
coedge $-1 $72 $71 $151 $152 reversed $63 $-1 #
coedge $-1 $147 $153 $71 $110 forward $154 $-1 #
edge $-1 $155 -25 $73 22 $109 $156 forward 7 unknown #
edge $-1 $74 -22 $157 25 $72 $158 forward 7 unknown #
point $-1 5.210847483103769662 40 -2 #
point $-1 30.44576506885249856 49.184758865373297 -2 #
ellipse-curve $-1 32.15586578548079899 44.48629576144369935 -2 -0 -0 -1 2.113091308703490157 4.531538935183250238 0 1 I I #
coedge $-1 $78 $159 $160 $161 reversed $32 $-1 #
edge $-1 $106 -15.68711655445322961 $162 35.05271187077593709 $78 $163 forward 7 unknown #
straight-curve $-1 -11.0172404189621993 30.90092572716480035 -5 -0.9396926207859079838 -0.3420201433256689905 0 I I #
vertex $-1 $142 $164 #
straight-curve $-1 36.85432888941039664 46.19639647807210281 20 0 0 -1 I I #
coedge $-1 $165 $90 $84 $121 forward $132 $-1 #
edge $-1 $92 -2.121320343559642829 $124 2.121320343559642829 $120 $166 forward 7 unknown #
coedge $-1 $85 $143 $167 $168 reversed $123 $-1 #
loop $-1 $-1 $85 $169 #
vertex $-1 $170 $171 #
straight-curve $-1 0 40 -2 1 0 0 I I #
face $-1 $172 $132 $2 $-1 $173 forward single #
plane-surface $-1 42.05481638357029794 38.5 -3.5 0 0.7071067811865475727 -0.7071067811865475727 -1 0 0 forward_v I I I I #
coedge $-1 $174 $89 $175 $176 reversed $32 $-1 #
coedge $-1 $177 $178 $89 $130 forward $179 $-1 #
edge $-1 $180 20 $133 35 $89 $181 forward 7 unknown #
coedge $-1 $90 $165 $177 $182 reversed $132 $-1 #
loop $-1 $-1 $165 $126 #
vertex $-1 $91 $183 #
ellipse-curve $-1 45 35 -5 0 0 1 1.414213562373090038 1.414213562373090038 0 1 I I #
point $-1 45 37 -5 #
face $-1 $59 $184 $2 $-1 $185 forward single #
loop $-1 $-1 $186 $95 #
plane-surface $-1 27.77279636964589926 -38.5 -3.5 0 -0.7071067811865475727 -0.7071067811865475727 -1 0 0 forward_v I I I I #
coedge $-1 $187 $188 $189 $190 forward $96 $-1 #
coedge $-1 $99 $98 $191 $192 forward $37 $-1 #
coedge $-1 $191 $193 $100 $142 forward $194 $-1 #
edge $-1 $144 28.40593259858768604 $118 35.00000000000002132 $100 $195 forward 7 unknown #
coedge $-1 $122 $101 $193 $196 reversed $123 $-1 #
vertex $-1 $196 $197 #
straight-curve $-1 39.10963276714050352 40 20 0 0 1 I I #
coedge $-1 $104 $103 $198 $199 forward $105 $-1 #
coedge $-1 $200 $109 $104 $148 reversed $154 $-1 #
edge $-1 $201 -45 $73 5.210847483103769662 $147 $202 forward 7 unknown #
face $-1 $203 $105 $2 $-1 $204 forward single #
point $-1 5.73982842522917025 37 -5 #
coedge $-1 $205 $191 $108 $152 forward $194 $-1 #
edge $-1 $157 -45.00000000000003553 $155 -18.14556161498471454 $108 $206 forward 7 unknown #
coedge $-1 $109 $200 $205 $207 reversed $154 $-1 #
loop $-1 $-1 $147 $208 #
vertex $-1 $207 $209 #
straight-curve $-1 5.210847483103769662 40 20 0 0 -1 I I #
vertex $-1 $111 $210 #
straight-curve $-1 30.44576506885249856 49.184758865373297 20 0 0 1 I I #
coedge $-1 $115 $211 $212 $213 reversed $32 $-1 #
coedge $-1 $214 $198 $115 $161 forward $215 $-1 #
edge $-1 $162 -0.785398163397448279 $216 0.785398163397448279 $115 $217 forward 7 unknown #
vertex $-1 $161 $218 #
straight-curve $-1 -9.947288129224059361 37 -5 -1 0 0 I I #
point $-1 36.85432888941039664 46.19639647807210281 45 #
coedge $-1 $131 $120 $219 $170 forward $132 $-1 #
straight-curve $-1 45 38.5 -3.5 0 0.7071067811865480168 0.7071067811865470176 I I #
coedge $-1 $220 $219 $122 $168 forward $221 $-1 #
edge $-1 $124 -22 $222 25 $122 $223 forward 7 unknown #
face $-1 $224 $123 $2 $-1 $225 reversed single #
edge $-1 $124 -0.785398163397448279 $226 0.785398163397448279 $219 $227 forward 7 unknown #
point $-1 45 40 -2 #
face $-1 $228 $179 $2 $-1 $229 forward single #
cone-surface $-1 45 35 -3.5 0 0 1 2.474873734152919891 2.474873734152919891 0 1 I I 0.7071067811865480168 0.7071067811865470176 3.500000000000004885 forward I I I I #
coedge $-1 $230 $128 $231 $232 reversed $32 $-1 #
coedge $-1 $233 $234 $128 $176 forward $235 $-1 #
edge $-1 $236 -0.785398163397448279 $180 0.785398163397448279 $128 $237 forward 7 unknown #
coedge $-1 $238 $129 $131 $182 forward $179 $-1 #
coedge $-1 $129 $238 $233 $239 reversed $179 $-1 #
loop $-1 $-1 $238 $172 #
vertex $-1 $130 $240 #
straight-curve $-1 47 0 -5 0 1 0 I I #
edge $-1 $133 -2.121320343559641497 $226 2.121320343559641497 $177 $241 forward 7 unknown #
point $-1 47 35 -5 #
loop $-1 $-1 $242 $136 #
cone-surface $-1 45 -35 -3.5 0 0 1 2.474873734152919891 -2.474873734152919891 0 1 I I 0.7071067811865480168 0.7071067811865470176 3.500000000000004885 forward I I I I #
coedge $-1 $243 $244 $245 $246 forward $137 $-1 #
coedge $-1 $247 $139 $248 $249 reversed $96 $-1 #
coedge $-1 $139 $247 $250 $251 reversed $96 $-1 #
coedge $-1 $252 $253 $139 $190 reversed $254 $-1 #
edge $-1 $255 28.83230346391360044 $256 35 $189 $257 forward 7 unknown #
coedge $-1 $151 $141 $140 $192 reversed $194 $-1 #
edge $-1 $157 -0.7853981633974350673 $118 0.7853981633974422838 $191 $258 forward 7 unknown #
coedge $-1 $141 $259 $143 $196 forward $194 $-1 #
loop $-1 $-1 $260 $261 #
straight-curve $-1 48.82503390580880165 13.30715475056529939 45 -0.3420201433256689905 0.9396926207859079838 0 I I #
edge $-1 $222 -45 $144 -39.10963276714050352 $143 $262 forward 7 unknown #
point $-1 39.10963276714050352 40 45 #
coedge $-1 $160 $263 $146 $199 reversed $215 $-1 #
edge $-1 $162 -2.121320343559641497 $201 2.121320343559641497 $146 $264 forward 7 unknown #
coedge $-1 $153 $147 $265 $266 reversed $154 $-1 #
vertex $-1 $266 $267 #
straight-curve $-1 0 40 -2 1 0 0 I I #
face $-1 $268 $269 $2 $-1 $270 forward single #
plane-surface $-1 -19.89457625844810096 38.5 -3.5 0 0.7071067811865475727 -0.7071067811865475727 -1 0 0 forward_v I I I I #
coedge $-1 $271 $151 $153 $207 forward $194 $-1 #
straight-curve $-1 -11.84040286651340068 33.79385241571819876 45 -0.9396926207859079838 -0.3420201433256689905 0 I I #
edge $-1 $155 -5.210847483103769662 $272 45 $153 $262 forward 7 unknown #
face $-1 $273 $154 $2 $-1 $225 reversed single #
point $-1 5.210847483103769662 40 45 #
point $-1 30.44576506885249856 49.184758865373297 45 #
coedge $-1 $159 $274 $275 $276 reversed $32 $-1 #
coedge $-1 $277 $278 $159 $213 forward $279 $-1 #
edge $-1 $216 -21.27377627311519959 $280 -4.078048566025199051 $159 $281 forward 7 unknown #
coedge $-1 $263 $160 $278 $282 forward $215 $-1 #
loop $-1 $-1 $263 $283 #
vertex $-1 $213 $284 #
ellipse-curve $-1 -45 35 -5 0 0 1 -1.414213562373090038 1.414213562373090038 0 1 I I #
point $-1 -45 37 -5 #
coedge $-1 $167 $285 $165 $170 reversed $221 $-1 #
coedge $-1 $285 $167 $259 $286 forward $221 $-1 #
loop $-1 $-1 $219 $287 #
vertex $-1 $168 $288 #
straight-curve $-1 45 40 20 0 0 1 I I #
face $-1 $289 $290 $2 $-1 $291 forward single #
plane-surface $-1 0 40 20 0 -1 0 0 0 -1 forward_v I I I I #
vertex $-1 $292 $293 #
ellipse-curve $-1 45 35 -2 -0 -0 -1 3.535533905932739973 3.535533905932739973 0 1 I I #
face $-1 $294 $235 $2 $-1 $295 forward single #
plane-surface $-1 48.5 27.5 -3.5 0.7071067811865475727 0 -0.7071067811865475727 -0.7071067811865480168 0 -0.7071067811865480168 forward_v I I I I #
coedge $-1 $296 $174 $297 $298 reversed $32 $-1 #
coedge $-1 $299 $300 $174 $232 forward $301 $-1 #
edge $-1 $302 -30 $236 5 $174 $303 forward 7 unknown #
coedge $-1 $304 $175 $178 $239 forward $235 $-1 #
coedge $-1 $175 $304 $299 $305 reversed $235 $-1 #
loop $-1 $-1 $304 $228 #
vertex $-1 $176 $306 #
ellipse-curve $-1 55 20 -5 -0 -0 -1 -5.656854249492379694 -5.656854249492379694 0 1 I I #
coedge $-1 $178 $177 $307 $308 forward $179 $-1 #
edge $-1 $180 -2.121320343559641497 $309 2.121320343559641497 $233 $310 forward 7 unknown #
point $-1 47 20 -5 #
straight-curve $-1 48.5 35 -3.5 0.7071067811865480168 0 0.7071067811865480168 I I #
coedge $-1 $311 $248 $312 $313 forward $184 $-1 #
coedge $-1 $314 $186 $311 $315 reversed $137 $-1 #
coedge $-1 $186 $314 $316 $317 reversed $137 $-1 #
coedge $-1 $318 $319 $186 $246 reversed $32 $-1 #
edge $-1 $320 18.78802499765560086 $321 45 $245 $322 forward 7 unknown #
coedge $-1 $188 $187 $323 $324 forward $96 $-1 #
coedge $-1 $242 $325 $187 $249 forward $184 $-1 #
edge $-1 $326 -2.121320343559642829 $256 2.121320343559642829 $248 $327 forward 7 unknown #
coedge $-1 $328 $329 $188 $251 forward $330 $-1 #
edge $-1 $255 -0.6493929550858082989 $331 4.084803425409159416 $250 $332 forward 7 unknown #
coedge $-1 $333 $189 $334 $335 forward $254 $-1 #
coedge $-1 $189 $333 $336 $337 reversed $254 $-1 #
loop $-1 $-1 $189 $338 #
vertex $-1 $335 $339 #
vertex $-1 $313 $340 #
straight-curve $-1 50 0 -2 0 -1 0 I I #
ellipse-curve $-1 32.15586578548079899 44.48629576144369935 45 -0 -0 -1 2.113091308703490157 4.531538935183250238 0 1 I I #
coedge $-1 $193 $341 $220 $286 reversed $194 $-1 #
coedge $-1 $342 $343 $344 $345 reversed $194 $-1 #
face $-1 $-1 $194 $2 $-1 $346 forward single #
straight-curve $-1 0 40 45 -1 0 0 I I #
coedge $-1 $198 $214 $347 $348 forward $215 $-1 #
straight-curve $-1 -45 38.5 -3.5 0 0.7071067811865480168 0.7071067811865480168 I I #
coedge $-1 $347 $349 $200 $266 forward $290 $-1 #
edge $-1 $272 -25 $201 22 $200 $350 forward 7 unknown #
point $-1 -45 40 -2 #
face $-1 $351 $352 $2 $-1 $353 forward single #
loop $-1 $-1 $354 $203 #
plane-surface $-1 -34.27248551659020137 -46.37902043976570354 -3.5 -0.6644630243886749943 -0.2418447626479759971 -0.7071067811865470176 -0.7287394448186830243 0 0.6847910787717359504 forward_v I I I I #
coedge $-1 $355 $205 $349 $356 reversed $194 $-1 #
vertex $-1 $207 $357 #
face $-1 $261 $358 $2 $-1 $359 reversed single #
coedge $-1 $211 $360 $361 $362 reversed $32 $-1 #
coedge $-1 $363 $364 $211 $276 forward $365 $-1 #
edge $-1 $280 38.29205293848512071 $366 44.78408047702222206 $211 $367 forward 7 unknown #
coedge $-1 $368 $212 $364 $369 forward $279 $-1 #
coedge $-1 $212 $368 $214 $282 reversed $279 $-1 #
loop $-1 $-1 $368 $370 #
vertex $-1 $213 $371 #
straight-curve $-1 -47 13.72622372688480041 -5 0 -1 0 I I #
edge $-1 $216 -2.121320343559642829 $372 2.121320343559642829 $214 $373 forward 7 unknown #
face $-1 $149 $215 $2 $-1 $374 forward single #
point $-1 -47 35 -5 #
coedge $-1 $219 $220 $375 $292 forward $221 $-1 #
edge $-1 $222 -0.785398163397448279 $376 0.785398163397448279 $259 $377 forward 7 unknown #
face $-1 $169 $221 $2 $-1 $378 forward single #
point $-1 45 40 45 #
face $-1 $379 $380 $2 $-1 $381 reversed single #
loop $-1 $-1 $347 $224 #
cone-surface $-1 -45 35 20 0 0 -1 -3.535533905932739973 3.535533905932739973 0 1 I I 0 1 5.000000000000003553 forward I I I I #
edge $-1 $376 -25 $226 22 $375 $382 forward 7 unknown #
point $-1 50 35 -2 #
face $-1 $383 $301 $2 $-1 $384 forward single #
cone-surface $-1 55 20 -3.5 0 0 1 -4.596194077712559611 -4.596194077712559611 0 1 I I 0.7071067811865480168 -0.7071067811865470176 6.500000000000000888 forward I I I I #
coedge $-1 $385 $230 $386 $387 reversed $32 $-1 #
coedge $-1 $388 $389 $230 $298 forward $390 $-1 #
edge $-1 $391 -0.785398163397448279 $302 0.785398163397448279 $230 $392 forward 7 unknown #
coedge $-1 $393 $231 $234 $305 forward $301 $-1 #
coedge $-1 $231 $393 $388 $394 reversed $301 $-1 #
loop $-1 $-1 $393 $294 #
vertex $-1 $232 $395 #
straight-curve $-1 60 12 -5 -1 -0 -0 I I #
coedge $-1 $234 $233 $396 $397 forward $235 $-1 #
edge $-1 $236 -2.121320343559641497 $398 2.121320343559641497 $299 $399 forward 7 unknown #
point $-1 55 12 -5 #
coedge $-1 $375 $400 $238 $308 reversed $401 $-1 #
edge $-1 $226 -35 $309 -20 $307 $402 forward 7 unknown #
vertex $-1 $397 $403 #
straight-curve $-1 48.5 20 -3.5 0.7071067811865480168 0 0.7071067811865480168 I I #
coedge $-1 $325 $242 $243 $315 forward $184 $-1 #
coedge $-1 $336 $404 $242 $313 reversed $405 $-1 #
edge $-1 $256 -0.785398163397448279 $406 0.785398163397448279 $312 $407 forward 7 unknown #
coedge $-1 $244 $243 $408 $409 forward $137 $-1 #
edge $-1 $406 -2.121320343559642829 $321 2.121320343559642829 $311 $410 forward 7 unknown #
coedge $-1 $411 $412 $244 $317 forward $413 $-1 #
edge $-1 $320 -4.210399568240519308 $414 0.06509114478084075672 $316 $415 forward 7 unknown #
coedge $-1 $416 $245 $412 $417 reversed $32 $-1 #
coedge $-1 $245 $323 $325 $418 reversed $32 $-1 #
vertex $-1 $417 $419 #
vertex $-1 $246 $420 #
straight-curve $-1 0 -37 -5 1 0 0 I I #
coedge $-1 $319 $421 $247 $324 reversed $32 $-1 #
edge $-1 $326 -35 $331 -26.73168084928439825 $323 $422 forward 7 unknown #
coedge $-1 $248 $311 $319 $418 forward $184 $-1 #
vertex $-1 $324 $423 #
straight-curve $-1 48.5 -35 -3.5 0.7071067811865480168 0 0.7071067811865470176 I I #
coedge $-1 $424 $250 $421 $425 forward $330 $-1 #
coedge $-1 $250 $424 $426 $427 forward $330 $-1 #
loop $-1 $-1 $328 $428 #
vertex $-1 $425 $429 #
straight-curve $-1 49.58848794839099838 -28.54415962331280099 -2.411512051609001617 -0.6336872742246419943 0.4437126062796569737 -0.6336872742246419943 I I #
coedge $-1 $253 $252 $430 $431 reversed $254 $-1 #
coedge $-1 $426 $432 $252 $335 reversed $433 $-1 #
edge $-1 $255 -22 $434 25 $252 $435 forward 7 unknown #
coedge $-1 $436 $312 $253 $337 forward $405 $-1 #
edge $-1 $256 -22 $437 25 $253 $438 forward 7 unknown #
face $-1 $439 $254 $2 $-1 $440 reversed single #
point $-1 50 -28.83230346391360044 -2 #
point $-1 50 -35 -2 #
coedge $-1 $259 $441 $442 $443 forward $194 $-1 #
coedge $-1 $441 $260 $444 $445 forward $194 $-1 #
coedge $-1 $260 $446 $447 $448 forward $194 $-1 #
coedge $-1 $449 $450 $260 $345 forward $451 $-1 #
edge $-1 $452 -0.785398163397448279 $453 0.785398163397448279 $260 $454 forward 7 unknown #
plane-surface $-1 0 0 45 0 0 1 1 0 0 forward_v I I I I #
coedge $-1 $455 $265 $263 $348 reversed $290 $-1 #
edge $-1 $372 -0.785398163397448279 $201 0.785398163397448279 $347 $456 forward 7 unknown #
coedge $-1 $265 $455 $271 $356 forward $290 $-1 #
straight-curve $-1 -45 40 20 0 0 -1 I I #
face $-1 $457 $413 $2 $-1 $458 forward single #
loop $-1 $-1 $459 $268 #
cone-surface $-1 -28.47506005245410066 -52.07400059288009686 -3.5 0 0 1 -1.479163916092449904 -3.172077254628269838 0 1 I I 0.7071067811865480168 0.7071067811865470176 3.499999999999996003 forward I I I I #
coedge $-1 $460 $461 $462 $463 forward $269 $-1 #
coedge $-1 $464 $271 $465 $466 forward $194 $-1 #
edge $-1 $467 -0.785398163397448279 $272 0.785398163397448279 $271 $468 forward 7 unknown #
point $-1 -45 40 45 #
loop $-1 $-1 $408 $273 #
plane-surface $-1 0 -40 20 0 1 0 0 0 1 forward_v I I I I #
coedge $-1 $274 $469 $470 $471 reversed $32 $-1 #
coedge $-1 $472 $473 $274 $362 forward $474 $-1 #
edge $-1 $366 -0.7853981633974623788 $475 0.7853981633974318477 $274 $476 forward 7 unknown #
coedge $-1 $477 $275 $473 $478 reversed $365 $-1 #
coedge $-1 $275 $477 $277 $369 reversed $365 $-1 #
loop $-1 $-1 $275 $479 #
vertex $-1 $276 $480 #
straight-curve $-1 -11.0172404189621993 30.90092572716480035 -5 -0.9396926207859079838 -0.3420201433256689905 0 I I #
coedge $-1 $278 $277 $481 $482 forward $279 $-1 #
edge $-1 $280 -4.640595274757750133 $483 0.09360110573717103644 $277 $484 forward 7 unknown #
face $-1 $283 $279 $2 $-1 $485 forward single #
point $-1 -47 17.80427229290999946 -5 #
vertex $-1 $348 $486 #
straight-curve $-1 -48.5 35 -3.5 -0.7071067811865480168 0 0.7071067811865470176 I I #
cone-surface $-1 -45 35 -3.5 0 0 1 -2.474873734152919891 2.474873734152919891 0 1 I I 0.7071067811865480168 0.7071067811865470176 3.500000000000004885 forward I I I I #
coedge $-1 $442 $307 $285 $292 reversed $401 $-1 #
vertex $-1 $443 $487 #
ellipse-curve $-1 45 35 45 -0 -0 -1 3.535533905932739973 3.535533905932739973 0 1 I I #
cone-surface $-1 45 35 20 0 0 -1 3.535533905932739973 3.535533905932739973 0 1 I I 0 1 5.000000000000003553 forward I I I I #
face $-1 $488 $489 $2 $-1 $490 forward single #
loop $-1 $-1 $481 $289 #
plane-surface $-1 -50 0 20 1 0 0 0 0 -1 forward_v I I I I #
straight-curve $-1 50 35 20 0 0 -1 I I #
face $-1 $491 $390 $2 $-1 $492 forward single #
plane-surface $-1 72.5 13.5 -3.5 0 0.7071067811865475727 -0.7071067811865475727 -1 0 0 forward_v I I I I #
coedge $-1 $493 $296 $494 $495 reversed $32 $-1 #
coedge $-1 $496 $497 $296 $387 forward $498 $-1 #
edge $-1 $499 -10 $391 10 $296 $500 forward 7 unknown #
coedge $-1 $501 $297 $300 $394 forward $390 $-1 #
coedge $-1 $297 $501 $496 $502 reversed $390 $-1 #
loop $-1 $-1 $501 $383 #
vertex $-1 $298 $503 #
ellipse-curve $-1 90 10 -5 0 0 1 1.414213562373090038 1.414213562373090038 0 1 I I #
coedge $-1 $300 $299 $504 $505 forward $301 $-1 #
edge $-1 $302 -2.121320343559642829 $506 2.121320343559642829 $388 $507 forward 7 unknown #
point $-1 90 12 -5 #
coedge $-1 $508 $509 $304 $397 reversed $510 $-1 #
edge $-1 $309 -0.785398163397448279 $398 0.785398163397448279 $396 $511 forward 7 unknown #
vertex $-1 $512 $513 #
straight-curve $-1 55 13.5 -3.5 0 0.7071067811865480168 0.7071067811865480168 I I #
coedge $-1 $307 $442 $508 $514 reversed $401 $-1 #
loop $-1 $-1 $307 $515 #
straight-curve $-1 50 0 -2 0 -1 0 I I #
point $-1 50 20 -2 #
coedge $-1 $312 $436 $516 $517 forward $405 $-1 #
loop $-1 $-1 $312 $518 #
vertex $-1 $517 $519 #
ellipse-curve $-1 45 -35 -2 -0 -0 -1 3.535533905932739973 -3.535533905932739973 0 1 I I #
coedge $-1 $516 $520 $314 $409 reversed $358 $-1 #
edge $-1 $406 -45 $414 -19.31700593978100144 $408 $521 forward 7 unknown #
straight-curve $-1 45 -38.5 -3.5 0 0.7071067811865480168 -0.7071067811865470176 I I #
coedge $-1 $522 $316 $523 $524 forward $413 $-1 #
coedge $-1 $316 $522 $318 $417 forward $413 $-1 #
loop $-1 $-1 $412 $351 #
vertex $-1 $525 $526 #
straight-curve $-1 19.30895260101799948 -39.95432724628589938 -2.045672753714001146 0.1237240302064829961 -0.701673843159863031 0.701673843159863031 I I #
coedge $-1 $462 $318 $459 $527 reversed $32 $-1 #
edge $-1 $528 -34.54393126659912383 $320 15.02445283383377195 $318 $529 forward 7 unknown #
edge $-1 $321 -0.785398163397448279 $326 0.785398163397448279 $319 $530 forward 7 unknown #
point $-1 18.78802499765560086 -37 -5 #
point $-1 45 -37 -5 #
coedge $-1 $323 $531 $328 $425 reversed $32 $-1 #
straight-curve $-1 47 0 -5 0 1 0 I I #
point $-1 47 -35 -5 #
coedge $-1 $329 $328 $532 $533 reversed $330 $-1 #
edge $-1 $331 14.3839694810008627 $534 24.79302866542697714 $421 $535 forward 7 unknown #
coedge $-1 $536 $334 $329 $427 reversed $433 $-1 #
edge $-1 $537 -44.99999999999994316 $255 -36.69156343020296873 $426 $538 forward 7 unknown #
face $-1 $539 $330 $2 $-1 $540 forward single #
point $-1 47 -26.73168084928439825 -5 #
coedge $-1 $541 $542 $333 $431 forward $194 $-1 #
edge $-1 $437 -35 $434 -28.83230346391360044 $333 $543 forward 7 unknown #
coedge $-1 $334 $536 $541 $544 reversed $433 $-1 #
loop $-1 $-1 $426 $545 #
vertex $-1 $431 $546 #
straight-curve $-1 50 -28.83230346391360044 20 0 0 1 I I #
coedge $-1 $404 $336 $542 $547 forward $405 $-1 #
vertex $-1 $337 $548 #
straight-curve $-1 50 -35 20 0 0 1 I I #
face $-1 $549 $550 $2 $-1 $551 forward single #
plane-surface $-1 50 0 20 -1 0 0 0 0 1 forward_v I I I I #
coedge $-1 $341 $342 $552 $553 forward $194 $-1 #
coedge $-1 $400 $375 $341 $443 reversed $401 $-1 #
edge $-1 $554 20 $376 35 $442 $543 forward 7 unknown #
coedge $-1 $555 $556 $342 $445 reversed $557 $-1 #
edge $-1 $452 -30 $558 5 $444 $559 forward 7 unknown #
coedge $-1 $343 $560 $561 $562 reversed $194 $-1 #
coedge $-1 $563 $564 $343 $448 reversed $565 $-1 #
edge $-1 $566 -10 $453 10 $447 $567 forward 7 unknown #
coedge $-1 $568 $344 $564 $569 forward $451 $-1 #
coedge $-1 $344 $568 $555 $570 forward $451 $-1 #
loop $-1 $-1 $568 $571 #
vertex $-1 $345 $572 #
vertex $-1 $448 $573 #
ellipse-curve $-1 90 10 45 -0 -0 -1 3.535533905932739973 3.535533905932739973 0 1 I I #
coedge $-1 $349 $347 $574 $575 forward $290 $-1 #
ellipse-curve $-1 -45 35 -2 -0 -0 -1 -3.535533905932739973 3.535533905932739973 0 1 I I #
face $-1 $576 $577 $2 $-1 $578 reversed single #
plane-surface $-1 -4.237006913010859854 -46.97669291722589691 -3.5 0.2418447626479759971 -0.6644630243886749943 -0.7071067811865470176 -0.9461886483394650327 0 -0.3236155771181850049 forward_v I I I I #
coedge $-1 $579 $580 $416 $527 forward $352 $-1 #
coedge $-1 $581 $354 $580 $582 reversed $269 $-1 #
coedge $-1 $354 $581 $583 $584 forward $269 $-1 #
coedge $-1 $585 $416 $354 $463 reversed $32 $-1 #
edge $-1 $586 6.495081700811142333 $587 23.26443854257522403 $462 $588 forward 7 unknown #
coedge $-1 $589 $355 $590 $591 forward $194 $-1 #
coedge $-1 $574 $592 $355 $466 reversed $380 $-1 #
edge $-1 $467 -35 $593 -19.90489490753909863 $465 $594 forward 7 unknown #
vertex $-1 $575 $595 #
ellipse-curve $-1 -45 35 45 -0 -0 -1 -3.535533905932739973 3.535533905932739973 0 1 I I #
coedge $-1 $360 $596 $597 $598 reversed $32 $-1 #
coedge $-1 $599 $600 $360 $471 forward $601 $-1 #
edge $-1 $475 -20.60341325555656411 $602 0.7282406519610241658 $360 $603 forward 7 unknown #
coedge $-1 $604 $361 $600 $605 reversed $474 $-1 #
coedge $-1 $361 $604 $363 $478 forward $474 $-1 #
loop $-1 $-1 $361 $606 #
vertex $-1 $362 $607 #
ellipse-curve $-1 -52.41647008525090001 13.70448286213349931 -5 0 0 1 -1.812615574073300095 0.8452365234813969952 0 1 I I #
coedge $-1 $364 $363 $608 $609 forward $365 $-1 #
edge $-1 $610 -2.121320343559625954 $366 2.121320343559666366 $473 $611 forward 7 unknown #
face $-1 $606 $365 $2 $-1 $612 forward single #
point $-1 -53.10051037190220313 15.58386810370529929 -5 #
coedge $-1 $592 $574 $368 $482 reversed $380 $-1 #
edge $-1 $483 19.90489490753909863 $372 35 $481 $613 forward 7 unknown #
vertex $-1 $482 $614 #
straight-curve $-1 -49.94068617044099767 19.86336291696180112 -2.059313829558998776 -0.6336872742246419943 0.4437126062796569737 0.6336872742246419943 I I #
plane-surface $-1 -48.5 27.45244745376960083 -3.5 -0.7071067811865475727 0 -0.7071067811865475727 -0.7071067811865480168 0 0.7071067811865480168 forward_v I I I I #
point $-1 -50 35 -2 #
point $-1 50 35 45 #
face $-1 $518 $615 $2 $-1 $359 reversed single #
loop $-1 $-1 $616 $379 #
cone-surface $-1 -45 -35 20 -0 -0 -1 -3.535533905932739973 -3.535533905932739973 0 1 I I 0 1 5.000000000000003553 forward I I I I #
face $-1 $617 $498 $2 $-1 $618 forward single #
cone-surface $-1 90 10 -3.5 0 0 1 2.474873734152910121 2.474873734152919891 0 1 I I 0.7071067811865480168 0.7071067811865470176 3.49999999999999778 forward I I I I #
coedge $-1 $619 $385 $620 $621 reversed $32 $-1 #
coedge $-1 $622 $623 $385 $495 forward $624 $-1 #
edge $-1 $625 -0.785398163397448279 $499 0.785398163397448279 $385 $626 forward 7 unknown #
coedge $-1 $627 $386 $389 $502 forward $498 $-1 #
coedge $-1 $386 $627 $622 $628 reversed $498 $-1 #
loop $-1 $-1 $627 $491 #
vertex $-1 $387 $629 #
straight-curve $-1 92 0 -5 0 1 0 I I #
coedge $-1 $389 $388 $568 $630 forward $390 $-1 #
edge $-1 $391 -2.121320343559641497 $631 2.121320343559641497 $496 $632 forward 7 unknown #
point $-1 92 10 -5 #
coedge $-1 $556 $555 $393 $505 reversed $557 $-1 #
edge $-1 $398 -5 $506 30 $504 $633 forward 7 unknown #
vertex $-1 $630 $634 #
straight-curve $-1 90 13.5 -3.5 0 0.7071067811865480168 0.7071067811865470176 I I #
coedge $-1 $552 $396 $400 $514 forward $510 $-1 #
coedge $-1 $396 $552 $556 $512 forward $510 $-1 #
loop $-1 $-1 $396 $635 #
ellipse-curve $-1 55 20 -2 0 0 1 -3.535533905932739973 -3.535533905932739973 0 1 I I #
edge $-1 $558 -25 $398 22 $556 $636 forward 7 unknown #
point $-1 55 15 -2 #
edge $-1 $309 -22 $554 25 $400 $637 forward 7 unknown #
face $-1 $545 $401 $2 $-1 $440 reversed single #
coedge $-1 $638 $408 $404 $517 reversed $358 $-1 #
edge $-1 $639 -25 $406 22 $516 $640 forward 7 unknown #
face $-1 $338 $405 $2 $-1 $641 forward single #
point $-1 45 -40 -2 #
coedge $-1 $408 $638 $642 $525 forward $358 $-1 #
straight-curve $-1 0 -40 -2 -1 0 0 I I #
coedge $-1 $412 $411 $579 $643 forward $413 $-1 #
coedge $-1 $642 $644 $411 $524 reversed $645 $-1 #
edge $-1 $414 -4.039403158307457886 $646 45.00000000000004263 $523 $647 forward 7 unknown #
edge $-1 $648 -25 $414 22 $520 $649 forward 7 unknown #
point $-1 19.31700593978100144 -40 -2 #
edge $-1 $587 -0.7853981633974623788 $528 0.7853981633974785881 $416 $650 forward 7 unknown #
vertex $-1 $527 $651 #
straight-curve $-1 4.669657538356090321 -42.13866551161760299 -5 0.9396926207859079838 0.3420201433256689905 0 I I #
ellipse-curve $-1 45 -35 -5 0 0 1 1.414213562373090038 -1.414213562373090038 0 1 I I #
coedge $-1 $421 $652 $653 $654 reversed $32 $-1 #
coedge $-1 $653 $655 $424 $533 forward $656 $-1 #
edge $-1 $537 -2.121320343559664146 $534 2.121320343559668142 $532 $657 forward 7 unknown #
vertex $-1 $425 $658 #
straight-curve $-1 33.48349002109380024 -31.65128815276840157 -5 0.9396926207859079838 0.3420201433256689905 0 I I #
coedge $-1 $432 $426 $659 $660 reversed $433 $-1 #
vertex $-1 $660 $661 #
straight-curve $-1 15.52120859954020027 -41.38155724715449679 -2 -0.9396926207859079838 -0.3420201433256689905 0 I I #
face $-1 $662 $656 $2 $-1 $663 forward single #
plane-surface $-1 53.39065805246450225 -26.00193819952760066 -3.5 0.2418447626479759971 -0.6644630243886749943 -0.7071067811865470176 -0.9461886483394650327 0 -0.3236155771181850049 forward_v I I I I #
coedge $-1 $664 $430 $432 $544 forward $194 $-1 #
coedge $-1 $430 $665 $436 $547 reversed $194 $-1 #
straight-curve $-1 50 0 45 0 1 0 I I #
edge $-1 $434 36.69156343020296873 $666 44.99999999999994316 $432 $667 forward 7 unknown #
face $-1 $668 $433 $2 $-1 $669 reversed single #
point $-1 50 -28.83230346391360044 45 #
edge $-1 $437 -0.785398163397448279 $639 0.785398163397448279 $542 $670 forward 7 unknown #
point $-1 50 -35 45 #
face $-1 $671 $672 $2 $-1 $673 reversed single #
loop $-1 $-1 $674 $439 #
cone-surface $-1 61.98429166526589995 -17 20 0 0 1 -1.638304088577990036 1.147152872702090098 0 1 I I 0 -1 2.000000000000003997 forward I I I I #
coedge $-1 $509 $508 $441 $553 reversed $510 $-1 #
edge $-1 $558 -0.785398163397448279 $554 0.785398163397448279 $441 $675 forward 7 unknown #
vertex $-1 $443 $676 #
coedge $-1 $504 $444 $450 $570 reversed $557 $-1 #
coedge $-1 $444 $504 $509 $512 reversed $557 $-1 #
loop $-1 $-1 $504 $677 #
vertex $-1 $445 $678 #
straight-curve $-1 60 15 45 -1 0 0 I I #
coedge $-1 $446 $679 $680 $681 forward $194 $-1 #
coedge $-1 $682 $683 $446 $562 forward $684 $-1 #
edge $-1 $566 -0.785398163397448279 $685 0.785398163397448279 $446 $686 forward 7 unknown #
coedge $-1 $687 $447 $683 $688 reversed $565 $-1 #
coedge $-1 $447 $687 $449 $569 reversed $565 $-1 #
loop $-1 $-1 $687 $689 #
vertex $-1 $688 $690 #
straight-curve $-1 95 0 45 0 1 0 I I #
coedge $-1 $450 $449 $501 $630 reversed $451 $-1 #
edge $-1 $453 -25 $631 22 $564 $691 forward 7 unknown #
edge $-1 $506 -22 $452 25 $555 $692 forward 7 unknown #
face $-1 $689 $451 $2 $-1 $693 forward single #
point $-1 90 15 45 #
point $-1 95 10 45 #
coedge $-1 $481 $465 $455 $575 reversed $380 $-1 #
edge $-1 $372 -22 $467 25 $574 $694 forward 7 unknown #
face $-1 $695 $696 $2 $-1 $697 forward single #
loop $-1 $-1 $698 $457 #
plane-surface $-1 -45.14422817278200029 -20.89485958200160098 20 0.9396926207859083169 0.3420201433256691015 0 0 0 -1 forward_v I I I I #
coedge $-1 $699 $459 $522 $643 reversed $352 $-1 #
coedge $-1 $459 $699 $460 $582 forward $352 $-1 #
coedge $-1 $461 $460 $698 $700 forward $269 $-1 #
edge $-1 $701 -2.121320343559668142 $587 2.121320343559600197 $580 $702 forward 7 unknown #
coedge $-1 $703 $704 $461 $584 reversed $705 $-1 #
edge $-1 $706 0.1273343242033913303 $586 4.861530704698358463 $461 $707 forward 7 unknown #
coedge $-1 $596 $462 $704 $708 reversed $32 $-1 #
vertex $-1 $463 $709 #
vertex $-1 $463 $710 #
straight-curve $-1 -38.31135189874869695 -30.89661965434619972 -5 0.3420201433256689905 -0.9396926207859079838 0 I I #
coedge $-1 $711 $464 $712 $713 reversed $194 $-1 #
coedge $-1 $714 $715 $464 $591 reversed $716 $-1 #
edge $-1 $593 40.60859507609201557 $717 45.00000000000007816 $590 $206 forward 7 unknown #
coedge $-1 $465 $481 $714 $718 forward $380 $-1 #
vertex $-1 $466 $719 #
straight-curve $-1 -50 0 45 0 -1 0 I I #
point $-1 -50 35 45 #
coedge $-1 $469 $585 $720 $721 reversed $32 $-1 #
coedge $-1 $722 $723 $469 $598 forward $724 $-1 #
edge $-1 $602 7.02475519057097042 $725 35 $469 $726 forward 7 unknown #
coedge $-1 $727 $470 $723 $728 forward $601 $-1 #
coedge $-1 $470 $727 $472 $605 forward $601 $-1 #
loop $-1 $-1 $470 $729 #
vertex $-1 $471 $730 #
straight-curve $-1 -47.24907297215929702 -6.340432823766880333 -5 0.3420201433256699897 -0.9396926207859079838 0 I I #
coedge $-1 $473 $472 $731 $732 forward $474 $-1 #
edge $-1 $733 -2.12132034355962551 $475 2.121320343559662813 $600 $734 forward 7 unknown #
face $-1 $729 $474 $2 $-1 $735 forward single #
point $-1 -54.29585532682270355 13.02044257548219974 -5 #
coedge $-1 $715 $714 $477 $609 reversed $716 $-1 #
edge $-1 $610 -44.78408047702231443 $483 -40.39267555311425895 $608 $736 forward 7 unknown #
vertex $-1 $737 $738 #
straight-curve $-1 -53.61354058689070001 16.9934070348841999 -3.5 0.2418447626479759971 -0.6644630243886749943 -0.7071067811865470176 I I #
plane-surface $-1 -50.05025518595110157 18.2903368570215008 -3.5 -0.2418447626479759971 0.6644630243886749943 -0.7071067811865470176 -0.9461886483394650327 0 0.3236155771181850049 forward_v I I I I #
straight-curve $-1 -50 0 -2 0 1 0 I I #
point $-1 -50 19.90489490753909863 -2 #
loop $-1 $-1 $739 $488 #
coedge $-1 $740 $741 $742 $743 reversed $489 $-1 #
face $-1 $744 $624 $2 $-1 $745 forward single #
plane-surface $-1 93.5 0 -3.5 0.7071067811865475727 0 -0.7071067811865475727 -0.7071067811865480168 0 -0.7071067811865480168 forward_v I I I I #
coedge $-1 $652 $493 $746 $747 reversed $32 $-1 #
coedge $-1 $748 $749 $493 $621 forward $750 $-1 #
edge $-1 $751 1.984291665265899951 $625 30 $493 $752 forward 7 unknown #
coedge $-1 $753 $494 $497 $628 forward $624 $-1 #
coedge $-1 $494 $753 $748 $754 reversed $624 $-1 #
loop $-1 $-1 $753 $617 #
vertex $-1 $495 $755 #
ellipse-curve $-1 90 -10 -5 0 0 1 1.414213562373090038 -1.414213562373090038 0 1 I I #
coedge $-1 $497 $496 $687 $756 forward $498 $-1 #
edge $-1 $499 -2.121320343559641497 $757 2.121320343559641497 $622 $758 forward 7 unknown #
point $-1 92 -10 -5 #
edge $-1 $506 -0.785398163397448279 $631 0.785398163397448279 $568 $759 forward 7 unknown #
vertex $-1 $569 $760 #
straight-curve $-1 93.5 10 -3.5 0.7071067811865480168 0 0.7071067811865480168 I I #
straight-curve $-1 60 15 -2 1 0 0 I I #
point $-1 90 15 -2 #
face $-1 $677 $510 $2 $-1 $761 forward single #
straight-curve $-1 55 15 20 -0 -0 -1 I I #
straight-curve $-1 50 20 20 0 0 1 I I #
coedge $-1 $520 $516 $665 $762 reversed $358 $-1 #
vertex $-1 $762 $763 #
straight-curve $-1 45 -40 20 0 0 -1 I I #
cone-surface $-1 45 -35 20 0 0 -1 3.535533905932739973 -3.535533905932739973 0 1 I I 0 1 5.000000000000003553 forward I I I I #
coedge $-1 $764 $523 $520 $525 reversed $645 $-1 #
edge $-1 $646 -2.121320343559601529 $528 2.121320343559667698 $522 $765 forward 7 unknown #
coedge $-1 $523 $764 $766 $767 reversed $645 $-1 #
loop $-1 $-1 $523 $695 #
vertex $-1 $524 $768 #
straight-curve $-1 15.52120859954020027 -41.38155724715449679 -2 -0.9396926207859079838 -0.3420201433256689905 0 I I #
vertex $-1 $762 $769 #
straight-curve $-1 19.31700593978100144 -40 20 0 0 -1 I I #
ellipse-curve $-1 -28.47506005245410066 -52.07400059288009686 -5 0 0 1 -0.8452365234813969952 -1.812615574073300095 0 1 I I #
point $-1 -27.79101976580270161 -53.95338583445190039 -5 #
coedge $-1 $531 $619 $770 $771 reversed $32 $-1 #
coedge $-1 $772 $532 $531 $654 forward $656 $-1 #
edge $-1 $534 -0.7853981633974657095 $773 0.78539816339743318 $531 $774 forward 7 unknown #
coedge $-1 $532 $772 $775 $776 forward $656 $-1 #
loop $-1 $-1 $655 $539 #
straight-curve $-1 57.29434631991750138 -24.58111186632050149 -3.5 -0.2418447626479759971 0.6644630243886749943 -0.7071067811865470176 I I #
point $-1 56.78131610492899739 -23.17157293514160088 -5 #
coedge $-1 $775 $777 $536 $660 forward $778 $-1 #
edge $-1 $666 -25 $537 22 $536 $779 forward 7 unknown #
point $-1 57.80737653490599826 -25.99065079749939855 -2 #
face $-1 $780 $705 $2 $-1 $781 forward single #
cone-surface $-1 56.09727581827770138 -21.2921876935698009 -3.5 0 0 1 3.172077254628280052 -1.479163916092449904 0 1 I I 0.7071067811865470176 0.7071067811865470176 3.500000000000005329 forward I I I I #
coedge $-1 $782 $541 $777 $783 reversed $194 $-1 #
coedge $-1 $542 $784 $638 $762 forward $194 $-1 #
vertex $-1 $544 $785 #
straight-curve $-1 15.52120859954020027 -41.38155724715449679 45 0.9396926207859079838 0.3420201433256689905 0 I I #
face $-1 $208 $786 $2 $-1 $381 reversed single #
plane-surface $-1 15.52120859954020027 -41.38155724715449679 20 -0.3420201433256691015 0.9396926207859083169 0 0 0 1 forward_v I I I I #
ellipse-curve $-1 45 -35 45 -0 -0 -1 3.535533905932739973 -3.535533905932739973 0 1 I I #
face $-1 $787 $778 $2 $-1 $788 forward single #
loop $-1 $-1 $789 $549 #
plane-surface $-1 60 -15 20 0 1 0 0 0 1 forward_v I I I I #
coedge $-1 $790 $791 $792 $793 reversed $550 $-1 #
ellipse-curve $-1 55 20 45 -0 -0 -1 -3.535533905932739973 -3.535533905932739973 0 1 I I #
point $-1 50 20 45 #
face $-1 $287 $557 $2 $-1 $794 reversed single #
point $-1 55 15 45 #
coedge $-1 $560 $782 $795 $796 forward $194 $-1 #
coedge $-1 $797 $798 $560 $681 reversed $672 $-1 #
edge $-1 $799 1.984291665265899951 $685 30 $680 $800 forward 7 unknown #
coedge $-1 $801 $561 $798 $802 forward $684 $-1 #
coedge $-1 $561 $801 $563 $688 forward $684 $-1 #
loop $-1 $-1 $801 $803 #
vertex $-1 $681 $804 #
ellipse-curve $-1 90 -10 45 -0 -0 -1 3.535533905932739973 -3.535533905932739973 0 1 I I #
coedge $-1 $564 $563 $627 $756 reversed $565 $-1 #
edge $-1 $757 -22 $566 25 $563 $805 forward 7 unknown #
face $-1 $803 $565 $2 $-1 $806 reversed single #
point $-1 95 -10 45 #
straight-curve $-1 95 10 20 0 0 -1 I I #
straight-curve $-1 90 15 20 0 0 1 I I #
cone-surface $-1 90 10 20 0 0 -1 3.535533905932739973 3.535533905932739973 0 1 I I 0 1 5.000000000000003553 forward I I I I #
straight-curve $-1 -50 35 20 0 0 1 I I #
face $-1 $571 $645 $2 $-1 $669 reversed single #
loop $-1 $-1 $807 $576 #
cone-surface $-1 -28.47506005245410066 -52.07400059288009686 20 0 0 -1 -2.113091308703490157 -4.531538935183250238 0 1 I I 0 1 4.999999999999997335 forward I I I I #
coedge $-1 $808 $809 $581 $700 reversed $577 $-1 #
coedge $-1 $580 $579 $807 $810 forward $352 $-1 #
edge $-1 $701 -35.00000000000002132 $706 -20.33126577286503789 $698 $811 forward 7 unknown #
vertex $-1 $812 $813 #
straight-curve $-1 -31.76398422520470177 -53.27107109451989686 -3.5 0.6644630243886749943 0.2418447626479759971 -0.7071067811865470176 I I #
coedge $-1 $814 $583 $739 $815 forward $705 $-1 #
coedge $-1 $583 $814 $585 $708 forward $705 $-1 #
loop $-1 $-1 $703 $662 #
vertex $-1 $816 $817 #
straight-curve $-1 -38.24702558401560282 -40.08069014081969783 -1.919309859180298616 0.4437126062796569737 0.6336872742246419943 -0.6336872742246419943 I I #
edge $-1 $818 -45 $586 -36.08990312452529992 $585 $819 forward 7 unknown #
point $-1 -36.08990312452529992 -37 -5 #
point $-1 -30.35444529402590064 -52.75804087953139998 -5 #
coedge $-1 $820 $589 $821 $822 forward $194 $-1 #
coedge $-1 $823 $824 $589 $713 forward $825 $-1 #
edge $-1 $826 -0.7853981633974604915 $717 0.7853981633974355114 $589 $827 forward 7 unknown #
coedge $-1 $608 $590 $592 $718 reversed $716 $-1 #
coedge $-1 $590 $608 $823 $737 reversed $716 $-1 #
loop $-1 $-1 $608 $828 #
vertex $-1 $591 $829 #
edge $-1 $483 -22 $593 25 $592 $830 forward 7 unknown #
point $-1 -50 19.90489490753909863 45 #
coedge $-1 $831 $832 $596 $721 forward $833 $-1 #
edge $-1 $725 -0.785398163397448279 $818 0.785398163397448279 $596 $834 forward 7 unknown #
coedge $-1 $835 $597 $832 $836 forward $724 $-1 #
coedge $-1 $597 $835 $599 $728 reversed $724 $-1 #
loop $-1 $-1 $597 $837 #
vertex $-1 $721 $838 #
straight-curve $-1 -47 0 -5 -0 -1 -0 I I #
coedge $-1 $600 $599 $839 $840 forward $601 $-1 #
edge $-1 $602 -3.391548765128781007 $841 0.8839419478925762963 $599 $842 forward 7 unknown #
face $-1 $828 $601 $2 $-1 $843 forward single #
point $-1 -47 -7.02475519057097042 -5 #
coedge $-1 $824 $823 $604 $732 reversed $825 $-1 #
edge $-1 $733 -0.7853981633974604915 $610 0.7853981633974355114 $731 $844 forward 7 unknown #
vertex $-1 $840 $845 #
straight-curve $-1 -55.70539425800159705 12.50741236049369931 -3.5 0.6644630243886729959 0.2418447626479779955 -0.7071067811865480168 I I #
cone-surface $-1 -52.41647008525090001 13.70448286213349931 -3.5 0 0 1 -3.172077254628280052 1.479163916092439912 0 1 I I 0.7071067811865480168 0.7071067811865480168 3.500000000000000888 forward I I I I #
straight-curve $-1 -12.04330084893920016 33.72000358952249854 -2 0.9396926207859079838 0.3420201433256689905 0 I I #
edge $-1 $717 -25 $610 22 $715 $846 forward 7 unknown #
point $-1 -54.12657080187930347 18.40294596606300104 -2 #
coedge $-1 $847 $848 $703 $815 reversed $615 $-1 #
coedge $-1 $849 $616 $848 $850 forward $489 $-1 #
coedge $-1 $616 $849 $851 $852 forward $489 $-1 #
coedge $-1 $832 $831 $616 $743 forward $833 $-1 #
edge $-1 $853 -0.785398163397448279 $854 0.785398163397448279 $616 $855 forward 7 unknown #
face $-1 $856 $750 $2 $-1 $857 forward single #
cone-surface $-1 90 -10 -3.5 0 0 1 2.474873734152910121 -2.474873734152919891 0 1 I I 0.7071067811865480168 0.7071067811865470176 3.49999999999999778 forward I I I I #
coedge $-1 $858 $859 $619 $747 forward $860 $-1 #
edge $-1 $861 -0.9599310885968929119 $751 0.959931088596883253 $619 $862 forward 7 unknown #
coedge $-1 $863 $620 $623 $754 forward $750 $-1 #
coedge $-1 $620 $863 $858 $864 reversed $750 $-1 #
loop $-1 $-1 $863 $744 #
vertex $-1 $621 $865 #
straight-curve $-1 60 -12 -5 1 0 0 I I #
coedge $-1 $623 $622 $801 $866 forward $624 $-1 #
edge $-1 $625 -2.121320343559641497 $867 2.121320343559641497 $748 $868 forward 7 unknown #
point $-1 90 -12 -5 #
edge $-1 $631 -10 $757 10 $687 $869 forward 7 unknown #
vertex $-1 $866 $870 #
straight-curve $-1 93.5 -10 -3.5 0.7071067811865480168 4.186913223156729998e-16 0.7071067811865480168 I I #
ellipse-curve $-1 90 10 -2 -0 -0 -1 3.535533905932739973 3.535533905932739973 0 1 I I #
point $-1 95 10 -2 #
cone-surface $-1 55 20 20 -0 -0 -1 -3.535533905932739973 -3.535533905932739973 0 1 I I 0 -1 5.000000000000003553 forward I I I I #
edge $-1 $648 19.31700593978100144 $639 45 $638 $871 forward 7 unknown #
point $-1 45 -40 45 #
coedge $-1 $644 $642 $784 $872 reversed $645 $-1 #
straight-curve $-1 -27.27798955081420118 -55.36292476563080101 -3.5 -0.2418447626479779955 0.6644630243886739951 -0.7071067811865470176 I I #
coedge $-1 $873 $807 $644 $767 forward $696 $-1 #
edge $-1 $646 -22 $874 25 $644 $875 forward 7 unknown #
point $-1 -26.76495933582570075 -56.77246369680960214 -2 #
point $-1 19.31700593978100144 -40 45 #
coedge $-1 $876 $877 $652 $771 forward $878 $-1 #
edge $-1 $773 -35.00000000000002132 $861 -32.98014090107182028 $652 $879 forward 7 unknown #
coedge $-1 $655 $653 $877 $880 forward $656 $-1 #
vertex $-1 $771 $881 #
ellipse-curve $-1 56.09727581827770138 -21.2921876935698009 -5 0 0 1 1.812615574073300095 -0.8452365234813969952 0 1 I I #
coedge $-1 $882 $659 $655 $776 reversed $778 $-1 #
edge $-1 $883 -0.7853981633974417287 $537 0.7853981633974622678 $775 $884 forward 7 unknown #
coedge $-1 $659 $882 $664 $783 forward $778 $-1 #
loop $-1 $-1 $775 $671 #
straight-curve $-1 57.80737653490599826 -25.99065079749939855 20 0 0 -1 I I #
face $-1 $837 $833 $2 $-1 $885 forward single #
plane-surface $-1 -39.99899621086340318 -38.5 -3.5 0 -0.7071067811865475727 -0.7071067811865475727 -1 0 0 forward_v I I I I #
coedge $-1 $679 $664 $886 $887 forward $194 $-1 #
edge $-1 $888 -0.7853981633974417287 $666 0.7853981633974622678 $664 $889 forward 7 unknown #
coedge $-1 $665 $890 $764 $872 forward $194 $-1 #
point $-1 57.80737653490599826 -25.99065079749939855 45 #
loop $-1 $-1 $891 $668 #
face $-1 $515 $892 $2 $-1 $21 reversed single #
cone-surface $-1 56.09727581827770138 -21.2921876935698009 20 0 0 -1 4.531538935183250238 -2.113091308703490157 0 1 I I 0 1 4.999999999999997335 forward I I I I #
coedge $-1 $798 $797 $863 $893 reversed $672 $-1 #
coedge $-1 $795 $674 $797 $894 forward $550 $-1 #
coedge $-1 $674 $795 $895 $896 forward $550 $-1 #
coedge $-1 $859 $858 $674 $793 forward $860 $-1 #
edge $-1 $897 -0.9599310885968840301 $898 0.9599310885968641571 $674 $899 forward 7 unknown #
plane-surface $-1 60 15 20 0 -1 0 0 0 -1 forward_v I I I I #
coedge $-1 $791 $790 $679 $796 reversed $550 $-1 #
edge $-1 $900 -0.9599310885968641571 $799 0.9599310885968840301 $679 $901 forward 7 unknown #
coedge $-1 $789 $680 $790 $894 reversed $672 $-1 #
coedge $-1 $680 $789 $682 $802 reversed $672 $-1 #
vertex $-1 $681 $902 #
straight-curve $-1 60 -15 45 1 0 0 I I #
coedge $-1 $683 $682 $753 $866 reversed $684 $-1 #
edge $-1 $685 -25 $867 22 $798 $903 forward 7 unknown #
face $-1 $635 $684 $2 $-1 $904 forward single #
point $-1 90 -15 45 #
straight-curve $-1 95 -10 20 0 0 1 I I #
plane-surface $-1 95 0 20 -1 0 0 0 0 1 forward_v I I I I #
coedge $-1 $766 $905 $699 $810 reversed $696 $-1 #
coedge $-1 $906 $698 $905 $812 reversed $577 $-1 #
coedge $-1 $698 $906 $847 $816 reversed $577 $-1 #
edge $-1 $646 -0.7853981633974600474 $701 0.7853981633974542742 $807 $907 forward 7 unknown #
straight-curve $-1 -45.14422817278200029 -20.89485958200160098 -2 -0.3420201433256689905 0.9396926207859079838 0 I I #
edge $-1 $908 -25 $701 22 $808 $909 forward 7 unknown #
point $-1 -33.17352315638360238 -53.78410130950840085 -2 #
coedge $-1 $704 $703 $831 $910 reversed $705 $-1 #
edge $-1 $706 38.19052573915450211 $853 45 $739 $911 forward 7 unknown #
edge $-1 $706 -22 $912 25 $847 $913 forward 7 unknown #
point $-1 -38.19052573915450211 -40 -2 #
vertex $-1 $708 $914 #
straight-curve $-1 0 -37 -5 1 0 0 I I #
coedge $-1 $915 $711 $916 $917 forward $194 $-1 #
coedge $-1 $918 $919 $711 $822 reversed $920 $-1 #
edge $-1 $826 -34.99999999999992895 $921 -14.19732703460782908 $821 $922 forward 7 unknown #
coedge $-1 $731 $712 $715 $737 forward $825 $-1 #
coedge $-1 $712 $731 $918 $923 forward $825 $-1 #
loop $-1 $-1 $731 $924 #
vertex $-1 $923 $925 #
ellipse-curve $-1 -52.41647008525090001 13.70448286213349931 45 -0 -0 -1 -4.531538935183250238 2.113091308703490157 0 1 I I #
face $-1 $924 $716 $2 $-1 $64 reversed single #
point $-1 -54.12657080187930347 18.40294596606300104 45 #
straight-curve $-1 -50 19.90489490753909863 20 0 0 1 I I #
coedge $-1 $742 $720 $814 $910 forward $833 $-1 #
coedge $-1 $720 $742 $722 $836 reversed $833 $-1 #
loop $-1 $-1 $742 $780 #
ellipse-curve $-1 -45 -35 -5 0 0 1 -1.414213562373090038 -1.414213562373090038 0 1 I I #
coedge $-1 $723 $722 $891 $926 forward $724 $-1 #
edge $-1 $725 -2.121320343559641497 $854 2.121320343559641497 $722 $927 forward 7 unknown #
face $-1 $479 $724 $2 $-1 $928 forward single #
point $-1 -47 -35 -5 #
coedge $-1 $919 $918 $727 $840 reversed $920 $-1 #
edge $-1 $841 14.19732703460783974 $733 34.99999999999992895 $839 $929 forward 7 unknown #
vertex $-1 $930 $931 #
straight-curve $-1 -49.37976105629199708 -7.44437127243453034 -2.620238943707999368 -0.701673843159863031 -0.1237240302064829961 0.701673843159863031 I I #
plane-surface $-1 -52.14792766341140151 2.733353221392900156 -3.5 -0.6644630243886749943 -0.2418447626479759971 -0.7071067811865470176 -0.7287394448186830243 0 0.6847910787717359504 forward_v I I I I #
ellipse-curve $-1 -52.41647008525090001 13.70448286213349931 -2 -0 -0 -1 -4.531538935183250238 2.113091308703490157 0 1 I I #
point $-1 -57.11493318918039819 11.9943821455050994 -2 #
straight-curve $-1 -54.12657080187930347 18.40294596606300104 20 0 0 -1 I I #
coedge $-1 $932 $739 $809 $816 forward $615 $-1 #
coedge $-1 $739 $932 $740 $850 reversed $615 $-1 #
coedge $-1 $741 $740 $915 $933 forward $489 $-1 #
edge $-1 $853 -22 $934 25 $848 $935 forward 7 unknown #
coedge $-1 $916 $891 $741 $852 reversed $786 $-1 #
edge $-1 $936 -25 $854 22 $851 $937 forward 7 unknown #
vertex $-1 $743 $938 #
vertex $-1 $852 $939 #
ellipse-curve $-1 -45 -35 -2 -0 -0 -1 -3.535533905932739973 -3.535533905932739973 0 1 I I #
face $-1 $940 $860 $2 $-1 $941 forward single #
plane-surface $-1 75.99214583263299971 -13.5 -3.5 0 -0.7071067811865475727 -0.7071067811865475727 -1 0 0 forward_v I I I I #
coedge $-1 $792 $746 $749 $864 forward $860 $-1 #
coedge $-1 $746 $792 $876 $942 reversed $860 $-1 #
loop $-1 $-1 $792 $856 #
vertex $-1 $747 $943 #
ellipse-curve $-1 61.98429166526589995 -17 -5 -0 -0 -1 -4.095760221444960436 2.867882181755220028 0 1 I I #
coedge $-1 $749 $748 $789 $893 forward $750 $-1 #
edge $-1 $751 -2.121320343559642829 $897 2.121320343559642829 $858 $944 forward 7 unknown #
point $-1 61.98429166526589995 -12 -5 #
edge $-1 $757 -0.785398163397448279 $867 0.785398163397448279 $801 $945 forward 7 unknown #
vertex $-1 $802 $946 #
straight-curve $-1 90 -13.5 -3.5 0 -0.7071067811865480168 0.7071067811865480168 I I #
straight-curve $-1 95 0 -2 0 -1 0 I I #
point $-1 95 -10 -2 #
straight-curve $-1 0 -40 45 1 0 0 I I #
edge $-1 $874 -45.00000000000004263 $648 4.039403158307457886 $764 $667 forward 7 unknown #
coedge $-1 $905 $766 $890 $947 forward $696 $-1 #
vertex $-1 $767 $948 #
straight-curve $-1 -26.76495933582570075 -56.77246369680960214 20 0 0 1 I I #
coedge $-1 $949 $770 $859 $942 forward $878 $-1 #
coedge $-1 $770 $949 $772 $880 reversed $878 $-1 #
loop $-1 $-1 $949 $940 #
straight-curve $-1 46.0059560434510999 12.28109432058830031 -5 -0.3420201433256689905 0.9396926207859079838 0 I I #
edge $-1 $773 -2.121320343559667698 $883 2.121320343559601085 $772 $950 forward 7 unknown #
point $-1 57.9766610598494978 -20.60814740691850133 -5 #
coedge $-1 $777 $775 $951 $952 forward $778 $-1 #
vertex $-1 $776 $953 #
ellipse-curve $-1 56.09727581827770138 -21.2921876935698009 -2 -0 -0 -1 4.531538935183250238 -2.113091308703490157 0 1 I I #
cone-surface $-1 -45 -35 -3.5 0 0 1 -2.474873734152919891 -2.474873734152919891 0 1 I I 0.7071067811865480168 0.7071067811865470176 3.500000000000004885 forward I I I I #
coedge $-1 $951 $895 $782 $887 reversed $892 $-1 #
edge $-1 $888 -35.00000000000002132 $900 -32.9801409010717208 $886 $195 forward 7 unknown #
vertex $-1 $952 $954 #
ellipse-curve $-1 56.09727581827770138 -21.2921876935698009 45 -0 -0 -1 4.531538935183250238 -2.113091308703490157 0 1 I I #
coedge $-1 $784 $955 $873 $947 reversed $194 $-1 #
coedge $-1 $851 $956 $835 $926 reversed $786 $-1 #
loop $-1 $-1 $957 $787 #
edge $-1 $867 -30 $897 -1.984291665265899951 $789 $958 forward 7 unknown #
edge $-1 $897 -22 $799 25 $797 $959 forward 7 unknown #
coedge $-1 $886 $957 $791 $896 reversed $892 $-1 #
edge $-1 $900 -25 $898 22 $895 $960 forward 7 unknown #
vertex $-1 $793 $961 #
vertex $-1 $896 $962 #
ellipse-curve $-1 61.98429166526589995 -17 -2 0 0 1 -1.638304088577990036 1.147152872702090098 0 1 I I #
vertex $-1 $887 $963 #
ellipse-curve $-1 61.98429166526589995 -17 45 -0 -0 -1 -1.638304088577990036 1.147152872702090098 0 1 I I #
point $-1 61.98429166526589995 -15 45 #
straight-curve $-1 90 -15 20 0 0 -1 I I #
cone-surface $-1 90 -10 20 0 0 -1 3.535533905932739973 -3.535533905932739973 0 1 I I 0 1 5.000000000000003553 forward I I I I #
coedge $-1 $807 $873 $808 $812 forward $696 $-1 #
coedge $-1 $809 $808 $955 $964 reversed $577 $-1 #
ellipse-curve $-1 -28.47506005245410066 -52.07400059288009686 -2 -0 -0 -1 -2.113091308703490157 -4.531538935183250238 0 1 I I #
vertex $-1 $964 $965 #
straight-curve $-1 -33.17352315638360238 -53.78410130950840085 20 0 0 -1 I I #
edge $-1 $818 -2.121320343559642829 $853 2.121320343559642829 $831 $966 forward 7 unknown #
straight-curve $-1 0 -40 -2 -1 0 0 I I #
vertex $-1 $967 $968 #
straight-curve $-1 -38.19052573915450211 -40 20 0 0 1 I I #
point $-1 -45 -37 -5 #
coedge $-1 $969 $820 $849 $933 reversed $194 $-1 #
coedge $-1 $956 $851 $820 $917 reversed $786 $-1 #
edge $-1 $921 7.55373613269636035 $936 35 $916 $594 forward 7 unknown #
coedge $-1 $839 $821 $824 $923 reversed $920 $-1 #
coedge $-1 $821 $839 $956 $930 reversed $920 $-1 #
loop $-1 $-1 $839 $970 #
vertex $-1 $917 $971 #
straight-curve $-1 -45.14422817278200029 -20.89485958200160098 45 0.3420201433256689905 -0.9396926207859079838 0 I I #
edge $-1 $733 -22 $826 25 $918 $972 forward 7 unknown #
face $-1 $970 $825 $2 $-1 $973 forward single #
point $-1 -57.11493318918039819 11.9943821455050994 45 #
edge $-1 $854 -35 $841 -7.553736132696349692 $891 $974 forward 7 unknown #
straight-curve $-1 -48.5 -35 -3.5 -0.7071067811865480168 0 0.7071067811865480168 I I #
plane-surface $-1 -48.5 -16.89116146610360047 -3.5 -0.7071067811865475727 0 -0.7071067811865475727 -0.7071067811865480168 0 0.7071067811865480168 forward_v I I I I #
straight-curve $-1 -45.14422817278200029 -20.89485958200160098 -2 -0.3420201433256689905 0.9396926207859079838 0 I I #
edge $-1 $921 -25 $841 22 $956 $975 forward 7 unknown #
point $-1 -50 -7.553736132696349692 -2 #
coedge $-1 $848 $847 $969 $967 reversed $615 $-1 #
edge $-1 $934 -0.785398163397448279 $936 0.785398163397448279 $915 $976 forward 7 unknown #
vertex $-1 $850 $977 #
straight-curve $-1 -45 -40 20 0 0 1 I I #
vertex $-1 $917 $978 #
straight-curve $-1 -50 -35 20 0 0 -1 I I #
point $-1 -45 -40 -2 #
point $-1 -50 -35 -2 #
face $-1 $428 $878 $2 $-1 $979 forward single #
cone-surface $-1 61.98429166526589995 -17 -3.5 0 0 1 -2.867032155011480121 2.007517527228659837 0 1 I I 0.7071067811865470176 -0.7071067811865480168 3.500000000000006661 forward I I I I #
edge $-1 $861 -2.121320343559691679 $898 2.121320343559601085 $876 $980 forward 7 unknown #
point $-1 57.28582856133640178 -18.71010071662839991 -5 #
straight-curve $-1 61.98429166526589995 -13.5 -3.5 0 -0.7071067811865470176 0.7071067811865480168 I I #
ellipse-curve $-1 90 -10 -2 -0 -0 -1 3.535533905932739973 -3.535533905932739973 0 1 I I #
point $-1 90 -15 -2 #
edge $-1 $874 -0.7853981633974600474 $908 0.7853981633974542742 $890 $981 forward 7 unknown #
point $-1 -26.76495933582570075 -56.77246369680960214 45 #
coedge $-1 $877 $876 $957 $982 forward $878 $-1 #
straight-curve $-1 59.38619999102839841 -20.0951171919300009 -3.5 0.6644630243886739951 0.2418447626479759971 0.7071067811865480168 I I #
coedge $-1 $957 $886 $882 $952 reversed $892 $-1 #
edge $-1 $883 -22 $888 25 $951 $983 forward 7 unknown #
point $-1 60.79573892220719955 -19.58208697694150047 -2 #
point $-1 60.79573892220719955 -19.58208697694150047 45 #
coedge $-1 $890 $969 $906 $964 forward $194 $-1 #
coedge $-1 $891 $916 $919 $930 forward $786 $-1 #
coedge $-1 $895 $951 $949 $982 reversed $892 $-1 #
straight-curve $-1 60 -15 -2 -1 0 0 I I #
straight-curve $-1 61.98429166526589995 -15 20 0 0 1 I I #
straight-curve $-1 60.10490642369410352 -17.68404028665129957 20 0 0 -1 I I #
point $-1 61.98429166526589995 -15 -2 #
point $-1 60.10490642369410352 -17.68404028665129957 -2 #
point $-1 60.10490642369410352 -17.68404028665129957 45 #
edge $-1 $912 20.33126577286503789 $908 35.00000000000002132 $906 $922 forward 7 unknown #
point $-1 -33.17352315638360238 -53.78410130950840085 45 #
straight-curve $-1 -45 -38.5 -3.5 0 -0.7071067811865480168 0.7071067811865470176 I I #
edge $-1 $934 -45 $912 -38.19052573915450211 $932 $871 forward 7 unknown #
point $-1 -38.19052573915450211 -40 45 #
coedge $-1 $955 $915 $932 $967 forward $194 $-1 #
face $-1 $370 $920 $2 $-1 $578 reversed single #
point $-1 -50 -7.55373613269636035 45 #
straight-curve $-1 -57.11493318918039819 11.9943821455050994 20 0 0 1 I I #
cone-surface $-1 -52.41647008525090001 13.70448286213349931 20 0 0 -1 -4.531538935183250238 2.113091308703490157 0 1 I I 0 1 4.999999999999997335 forward I I I I #
straight-curve $-1 -50 0 -2 0 1 0 I I #
straight-curve $-1 -50 -7.553736132696349692 20 0 0 -1 I I #
ellipse-curve $-1 -45 -35 45 -0 -0 -1 -3.535533905932739973 -3.535533905932739973 0 1 I I #
point $-1 -45 -40 45 #
point $-1 -50 -35 45 #
plane-surface $-1 59.04078374177179711 -19.14609384678490045 -3.5 0.6644630243886749943 0.2418447626479759971 -0.7071067811865470176 -0.7287394448186830243 0 -0.6847910787717359504 forward_v I I I I #
straight-curve $-1 58.69536749251530239 -18.1970705016398 -3.5 0.6644630243886729959 0.2418447626479789947 0.7071067811865480168 I I #
ellipse-curve $-1 -28.47506005245410066 -52.07400059288009686 45 -0 -0 -1 -2.113091308703490157 -4.531538935183250238 0 1 I I #
edge $-1 $898 32.9801409010717208 $883 35.00000000000002132 $957 $984 forward 7 unknown #
straight-curve $-1 60.79573892220719955 -19.58208697694150047 20 0 0 1 I I #
straight-curve $-1 48.82503390580880165 13.30715475056529939 -2 0.3420201433256689905 -0.9396926207859079838 0 I I #
End-of-ACIS-data 