105 986 1 0                             
body $-1 $1 $-1 $2 #
lump $-1 $-1 $3 $0 #
transform $-1 1 0 0 0 1 0 0 0 1 0 0 20 1 0 0 0 #
shell $-1 $-1 $-1 $4 $1 #
face $-1 $5 $6 $3 $-1 $7 forward single #
face $-1 $8 $9 $3 $-1 $10 forward single #
loop $-1 $-1 $11 $4 #
plane-surface $-1 37.1183972484959 41.0851680240475 -23.5 0.664463024388675 0.241844762647976 -0.707106781186547 -0.728739444818683 0 -0.684791078771736 0 #
face $-1 $12 $13 $3 $-1 $14 forward single #
loop $-1 $-1 $15 $5 #
cone-surface $-1 32.1558657854808 44.4862957614437 -23.5 0 0 1 1.47916391609245 3.17207725462827 0 1 0.707106781186548 0.707106781186547 0 #
coedge $-1 $16 $17 $18 $19 0 $6 $-1 #
face $-1 $20 $21 $3 $-1 $22 reversed single #
loop $-1 $-1 $23 $8 #
plane-surface $-1 14.2201203617847 41.6828405015078 -23.5 -0.241844762647976 0.664463024388675 -0.707106781186547 -0.946188648339465 0 0.323615577118185 0 #
coedge $-1 $24 $25 $26 $27 0 $9 $-1 #
coedge $-1 $28 $11 $25 $29 1 $6 $-1 #
coedge $-1 $11 $28 $30 $31 1 $6 $-1 #
coedge $-1 $32 $26 $11 $19 1 $33 $-1 #
edge $-1 $34 $35 $18 $36 0 #
face $-1 $37 $38 $3 $-1 $39 forward single #
loop $-1 $-1 $40 $12 #
plane-surface $-1 48.8250339058088 13.3071547505653 0 -0.939692620785908 -0.342020143325669 0 0 0 1 0 #
coedge $-1 $41 $42 $43 $44 0 $13 $-1 #
coedge $-1 $45 $15 $41 $46 1 $9 $-1 #
coedge $-1 $15 $45 $16 $29 0 $9 $-1 #
coedge $-1 $18 $47 $15 $27 1 $33 $-1 #
edge $-1 $35 $48 $26 $49 0 #
coedge $-1 $17 $16 $40 $50 0 $6 $-1 #
edge $-1 $51 $35 $25 $52 0 #
coedge $-1 $53 $54 $17 $31 0 $55 $-1 #
edge $-1 $34 $56 $30 $57 0 #
coedge $-1 $58 $18 $54 $59 1 $33 $-1 #
loop $-1 $-1 $32 $60 #
vertex $-1 $59 $61 #
vertex $-1 $19 $62 #
straight-curve $-1 45.2886525926202 14.251869354643 -25 -0.342020143325669 0.939692620785908 0 #
face $-1 $63 $64 $3 $-1 $65 reversed single #
loop $-1 $-1 $66 $20 #
cone-surface $-1 32.1558657854808 44.4862957614437 0 0 0 -1 2.11309130870349 4.53153893518325 0 1 0 1 0 #
coedge $-1 $67 $68 $28 $50 1 $21 $-1 #
coedge $-1 $69 $23 $24 $46 0 $13 $-1 #
coedge $-1 $23 $69 $70 $71 1 $13 $-1 #
coedge $-1 $72 $73 $23 $44 1 $64 $-1 #
edge $-1 $74 $75 $43 $76 0 #
coedge $-1 $25 $24 $66 $77 0 $9 $-1 #
edge $-1 $75 $48 $41 $78 0 #
coedge $-1 $26 $79 $69 $80 1 $33 $-1 #
vertex $-1 $27 $81 #
ellipse-curve $-1 32.1558657854808 44.4862957614437 -25 0 0 1 0.845236523481397 1.8126155740733 0 1 #
edge $-1 $51 $56 $40 $82 0 #
vertex $-1 $83 $84 #
straight-curve $-1 35.4447899582315 45.6833662630836 -23.5 -0.664463024388675 -0.241844762647975 -0.707106781186547 #
coedge $-1 $85 $30 $86 $87 0 $55 $-1 #
coedge $-1 $30 $85 $32 $59 0 $55 $-1 #
loop $-1 $-1 $53 $88 #
vertex $-1 $87 $89 #
straight-curve $-1 38.7234570911013 39.4484839780123 -22.5515160219877 0.443712606279657 0.633687274224642 0.633687274224642 #
coedge $-1 $90 $32 $91 $92 1 $33 $-1 #
edge $-1 $93 $34 $32 $94 0 #
face $-1 $88 $33 $3 $-1 $95 reversed single #
point $-1 37.0090101525114 37 -25 #
point $-1 34.0352510270526 45.1703360480951 -25 #
face $-1 $96 $97 $3 $-1 $98 forward single #
loop $-1 $-1 $43 $37 #
plane-surface $-1 -11.8404028665134 33.7938524157182 0 0.342020143325669 -0.939692620785908 0 0 0 -1 0 #
coedge $-1 $99 $100 $45 $77 1 $38 $-1 #
coedge $-1 $101 $40 $100 $83 1 $21 $-1 #
coedge $-1 $40 $101 $102 $103 1 $21 $-1 #
coedge $-1 $42 $41 $47 $80 0 $13 $-1 #
coedge $-1 $104 $105 $42 $71 0 $106 $-1 #
edge $-1 $74 $107 $70 $108 0 #
coedge $-1 $109 $43 $110 $111 1 $64 $-1 #
coedge $-1 $43 $109 $99 $112 1 $64 $-1 #
vertex $-1 $111 $113 #
vertex $-1 $44 $114 #
straight-curve $-1 -12.0433008489392 33.7200035895225 -22 0.939692620785908 0.342020143325669 0 #
edge $-1 $75 $51 $66 $115 0 #
straight-curve $-1 30.958795283841 47.7752199341944 -23.5 0.241844762647979 -0.664463024388673 -0.707106781186548 #
coedge $-1 $47 $116 $104 $117 1 $33 $-1 #
edge $-1 $48 $107 $47 $118 0 #
point $-1 31.4718254988295 46.3656810030156 -25 #
straight-curve $-1 48.1077304549779 15.2779297846201 -22 0.342020143325669 -0.939692620785908 0 #
edge $-1 $119 $51 $67 $120 0 #
point $-1 36.8543288894104 46.1963964780721 -22 #
coedge $-1 $54 $53 $121 $122 1 $55 $-1 #
coedge $-1 $102 $123 $53 $87 1 $124 $-1 #
edge $-1 $56 $125 $86 $126 0 #
face $-1 $127 $55 $3 $-1 $128 forward single #
point $-1 39.1096327671405 40 -22 #
coedge $-1 $129 $58 $130 $131 1 $33 $-1 #
coedge $-1 $121 $132 $58 $92 0 $133 $-1 #
edge $-1 $134 $93 $58 $135 0 #
vertex $-1 $59 $136 #
straight-curve $-1 21.0274081917851 37 -25 -1 0 0 #
plane-surface $-1 0 0 -25 0 0 1 1 0 0 0 #
face $-1 $137 $138 $3 $-1 $139 forward single #
loop $-1 $-1 $140 $63 #
plane-surface $-1 48.5 -30.3198850732429 -23.5 0.707106781186548 0 -0.707106781186548 -0.707106781186548 0 -0.707106781186548 0 #
coedge $-1 $141 $66 $73 $112 0 $38 $-1 #
coedge $-1 $66 $141 $67 $83 0 $38 $-1 #
coedge $-1 $68 $67 $142 $143 1 $21 $-1 #
coedge $-1 $144 $86 $68 $103 0 $124 $-1 #
edge $-1 $56 $145 $102 $146 0 #
coedge $-1 $147 $70 $79 $117 0 $106 $-1 #
coedge $-1 $70 $147 $148 $149 0 $106 $-1 #
loop $-1 $-1 $104 $150 #
vertex $-1 $117 $151 #
straight-curve $-1 5.20993480041237 40.0051760807548 -21.9948239192452 0.123724030206483 -0.701673843159863 -0.701673843159863 #
coedge $-1 $73 $72 $152 $153 1 $64 $-1 #
coedge $-1 $148 $154 $72 $111 0 $155 $-1 #
edge $-1 $156 $74 $110 $157 0 #
edge $-1 $75 $158 $73 $159 0 #
point $-1 5.21084748310377 40 -22 #
point $-1 30.4457650688525 49.1847588653733 -22 #
ellipse-curve $-1 32.1558657854808 44.4862957614437 -22 -0 -0 -1 2.11309130870349 4.53153893518325 0 1 #
coedge $-1 $79 $160 $161 $162 1 $33 $-1 #
edge $-1 $107 $163 $79 $164 0 #
straight-curve $-1 -11.0172404189622 30.9009257271648 -25 -0.939692620785908 -0.342020143325669 0 #
vertex $-1 $143 $165 #
straight-curve $-1 36.8543288894104 46.1963964780721 0 0 0 -1 #
coedge $-1 $166 $91 $85 $122 0 $133 $-1 #
edge $-1 $93 $125 $121 $167 0 #
coedge $-1 $86 $144 $168 $169 1 $124 $-1 #
loop $-1 $-1 $86 $170 #
vertex $-1 $171 $172 #
straight-curve $-1 0 40 -22 1 0 0 #
face $-1 $173 $133 $3 $-1 $174 forward single #
plane-surface $-1 42.0548163835703 38.5 -23.5 0 0.707106781186548 -0.707106781186548 -1 0 0 0 #
coedge $-1 $175 $90 $176 $177 1 $33 $-1 #
coedge $-1 $178 $179 $90 $131 0 $180 $-1 #
edge $-1 $181 $134 $90 $182 0 #
coedge $-1 $91 $166 $178 $183 1 $133 $-1 #
loop $-1 $-1 $166 $127 #
vertex $-1 $92 $184 #
ellipse-curve $-1 45 35 -25 0 0 1 1.41421356237309 1.41421356237309 0 1 #
point $-1 45 37 -25 #
face $-1 $60 $185 $3 $-1 $186 forward single #
loop $-1 $-1 $187 $96 #
plane-surface $-1 27.7727963696459 -38.5 -23.5 0 -0.707106781186548 -0.707106781186548 -1 0 0 0 #
coedge $-1 $188 $189 $190 $191 0 $97 $-1 #
coedge $-1 $100 $99 $192 $193 0 $38 $-1 #
coedge $-1 $192 $194 $101 $143 0 $195 $-1 #
edge $-1 $145 $119 $101 $196 0 #
coedge $-1 $123 $102 $194 $197 1 $124 $-1 #
vertex $-1 $197 $198 #
straight-curve $-1 39.1096327671405 40 0 0 0 1 #
coedge $-1 $105 $104 $199 $200 0 $106 $-1 #
coedge $-1 $201 $110 $105 $149 1 $155 $-1 #
edge $-1 $202 $74 $148 $203 0 #
face $-1 $204 $106 $3 $-1 $205 forward single #
point $-1 5.73982842522917 37 -25 #
coedge $-1 $206 $192 $109 $153 0 $195 $-1 #
edge $-1 $158 $156 $109 $207 0 #
coedge $-1 $110 $201 $206 $208 1 $155 $-1 #
loop $-1 $-1 $148 $209 #
vertex $-1 $208 $210 #
straight-curve $-1 5.21084748310377 40 0 0 0 -1 #
vertex $-1 $112 $211 #
straight-curve $-1 30.4457650688525 49.1847588653733 0 0 0 1 #
coedge $-1 $116 $212 $213 $214 1 $33 $-1 #
coedge $-1 $215 $199 $116 $162 0 $216 $-1 #
edge $-1 $163 $217 $116 $218 0 #
vertex $-1 $162 $219 #
straight-curve $-1 -9.94728812922406 37 -25 -1 0 0 #
point $-1 36.8543288894104 46.1963964780721 25 #
coedge $-1 $132 $121 $220 $171 0 $133 $-1 #
straight-curve $-1 45 38.5 -23.5 0 0.707106781186548 0.707106781186547 #
coedge $-1 $221 $220 $123 $169 0 $222 $-1 #
edge $-1 $125 $223 $123 $224 0 #
face $-1 $225 $124 $3 $-1 $226 reversed single #
edge $-1 $125 $227 $220 $228 0 #
point $-1 45 40 -22 #
face $-1 $229 $180 $3 $-1 $230 forward single #
cone-surface $-1 45 35 -23.5 0 0 1 2.47487373415292 2.47487373415292 0 1 0.707106781186548 0.707106781186547 0 #
coedge $-1 $231 $129 $232 $233 1 $33 $-1 #
coedge $-1 $234 $235 $129 $177 0 $236 $-1 #
edge $-1 $237 $181 $129 $238 0 #
coedge $-1 $239 $130 $132 $183 0 $180 $-1 #
coedge $-1 $130 $239 $234 $240 1 $180 $-1 #
loop $-1 $-1 $239 $173 #
vertex $-1 $131 $241 #
straight-curve $-1 47 0 -25 0 1 0 #
edge $-1 $134 $227 $178 $242 0 #
point $-1 47 35 -25 #
loop $-1 $-1 $243 $137 #
cone-surface $-1 45 -35 -23.5 0 0 1 2.47487373415292 -2.47487373415292 0 1 0.707106781186548 0.707106781186547 0 #
coedge $-1 $244 $245 $246 $247 0 $138 $-1 #
coedge $-1 $248 $140 $249 $250 1 $97 $-1 #
coedge $-1 $140 $248 $251 $252 1 $97 $-1 #
coedge $-1 $253 $254 $140 $191 1 $255 $-1 #
edge $-1 $256 $257 $190 $258 0 #
coedge $-1 $152 $142 $141 $193 1 $195 $-1 #
edge $-1 $158 $119 $192 $259 0 #
coedge $-1 $142 $260 $144 $197 0 $195 $-1 #
loop $-1 $-1 $261 $262 #
straight-curve $-1 48.8250339058088 13.3071547505653 25 -0.342020143325669 0.939692620785908 0 #
edge $-1 $223 $145 $144 $263 0 #
point $-1 39.1096327671405 40 25 #
coedge $-1 $161 $264 $147 $200 1 $216 $-1 #
edge $-1 $163 $202 $147 $265 0 #
coedge $-1 $154 $148 $266 $267 1 $155 $-1 #
vertex $-1 $267 $268 #
straight-curve $-1 0 40 -22 1 0 0 #
face $-1 $269 $270 $3 $-1 $271 forward single #
plane-surface $-1 -19.8945762584481 38.5 -23.5 0 0.707106781186548 -0.707106781186548 -1 0 0 0 #
coedge $-1 $272 $152 $154 $208 0 $195 $-1 #
straight-curve $-1 -11.8404028665134 33.7938524157182 25 -0.939692620785908 -0.342020143325669 0 #
edge $-1 $156 $273 $154 $263 0 #
face $-1 $274 $155 $3 $-1 $226 reversed single #
point $-1 5.21084748310377 40 25 #
point $-1 30.4457650688525 49.1847588653733 25 #
coedge $-1 $160 $275 $276 $277 1 $33 $-1 #
coedge $-1 $278 $279 $160 $214 0 $280 $-1 #
edge $-1 $217 $281 $160 $282 0 #
coedge $-1 $264 $161 $279 $283 0 $216 $-1 #
loop $-1 $-1 $264 $284 #
vertex $-1 $214 $285 #
ellipse-curve $-1 -45 35 -25 0 0 1 -1.41421356237309 1.41421356237309 0 1 #
point $-1 -45 37 -25 #
coedge $-1 $168 $286 $166 $171 1 $222 $-1 #
coedge $-1 $286 $168 $260 $287 0 $222 $-1 #
loop $-1 $-1 $220 $288 #
vertex $-1 $169 $289 #
straight-curve $-1 45 40 0 0 0 1 #
face $-1 $290 $291 $3 $-1 $292 forward single #
plane-surface $-1 0 40 0 0 -1 0 0 0 -1 0 #
vertex $-1 $293 $294 #
ellipse-curve $-1 45 35 -22 -0 -0 -1 3.53553390593274 3.53553390593274 0 1 #
face $-1 $295 $236 $3 $-1 $296 forward single #
plane-surface $-1 48.5 27.5 -23.5 0.707106781186548 0 -0.707106781186548 -0.707106781186548 0 -0.707106781186548 0 #
coedge $-1 $297 $175 $298 $299 1 $33 $-1 #
coedge $-1 $300 $301 $175 $233 0 $302 $-1 #
edge $-1 $303 $237 $175 $304 0 #
coedge $-1 $305 $176 $179 $240 0 $236 $-1 #
coedge $-1 $176 $305 $300 $306 1 $236 $-1 #
loop $-1 $-1 $305 $229 #
vertex $-1 $177 $307 #
ellipse-curve $-1 55 20 -25 -0 -0 -1 -5.65685424949238 -5.65685424949238 0 1 #
coedge $-1 $179 $178 $308 $309 0 $180 $-1 #
edge $-1 $181 $310 $234 $311 0 #
point $-1 47 20 -25 #
straight-curve $-1 48.5 35 -23.5 0.707106781186548 0 0.707106781186548 #
coedge $-1 $312 $249 $313 $314 0 $185 $-1 #
coedge $-1 $315 $187 $312 $316 1 $138 $-1 #
coedge $-1 $187 $315 $317 $318 1 $138 $-1 #
coedge $-1 $319 $320 $187 $247 1 $33 $-1 #
edge $-1 $321 $322 $246 $323 0 #
coedge $-1 $189 $188 $324 $325 0 $97 $-1 #
coedge $-1 $243 $326 $188 $250 0 $185 $-1 #
edge $-1 $327 $257 $249 $328 0 #
coedge $-1 $329 $330 $189 $252 0 $331 $-1 #
edge $-1 $256 $332 $251 $333 0 #
coedge $-1 $334 $190 $335 $336 0 $255 $-1 #
coedge $-1 $190 $334 $337 $338 1 $255 $-1 #
loop $-1 $-1 $190 $339 #
vertex $-1 $336 $340 #
vertex $-1 $314 $341 #
straight-curve $-1 50 0 -22 0 -1 0 #
ellipse-curve $-1 32.1558657854808 44.4862957614437 25 -0 -0 -1 2.11309130870349 4.53153893518325 0 1 #
coedge $-1 $194 $342 $221 $287 1 $195 $-1 #
coedge $-1 $343 $344 $345 $346 1 $195 $-1 #
face $-1 $-1 $195 $3 $-1 $347 forward single #
straight-curve $-1 0 40 25 -1 0 0 #
coedge $-1 $199 $215 $348 $349 0 $216 $-1 #
straight-curve $-1 -45 38.5 -23.5 0 0.707106781186548 0.707106781186548 #
coedge $-1 $348 $350 $201 $267 0 $291 $-1 #
edge $-1 $273 $202 $201 $351 0 #
point $-1 -45 40 -22 #
face $-1 $352 $353 $3 $-1 $354 forward single #
loop $-1 $-1 $355 $204 #
plane-surface $-1 -34.2724855165902 -46.3790204397657 -23.5 -0.664463024388675 -0.241844762647976 -0.707106781186547 -0.728739444818683 0 0.684791078771736 0 #
coedge $-1 $356 $206 $350 $357 1 $195 $-1 #
vertex $-1 $208 $358 #
face $-1 $262 $359 $3 $-1 $360 reversed single #
coedge $-1 $212 $361 $362 $363 1 $33 $-1 #
coedge $-1 $364 $365 $212 $277 0 $366 $-1 #
edge $-1 $281 $367 $212 $368 0 #
coedge $-1 $369 $213 $365 $370 0 $280 $-1 #
coedge $-1 $213 $369 $215 $283 1 $280 $-1 #
loop $-1 $-1 $369 $371 #
vertex $-1 $214 $372 #
straight-curve $-1 -47 13.7262237268848 -25 -0 -1 0 #
edge $-1 $217 $373 $215 $374 0 #
face $-1 $150 $216 $3 $-1 $375 forward single #
point $-1 -47 35 -25 #
coedge $-1 $220 $221 $376 $293 0 $222 $-1 #
edge $-1 $223 $377 $260 $378 0 #
face $-1 $170 $222 $3 $-1 $379 forward single #
point $-1 45 40 25 #
face $-1 $380 $381 $3 $-1 $382 reversed single #
loop $-1 $-1 $348 $225 #
cone-surface $-1 -45 35 0 0 0 -1 -3.53553390593274 3.53553390593274 0 1 0 1 0 #
edge $-1 $377 $227 $376 $383 0 #
point $-1 50 35 -22 #
face $-1 $384 $302 $3 $-1 $385 forward single #
cone-surface $-1 55 20 -23.5 0 0 1 -4.59619407771256 -4.59619407771256 0 1 0.707106781186548 -0.707106781186547 0 #
coedge $-1 $386 $231 $387 $388 1 $33 $-1 #
coedge $-1 $389 $390 $231 $299 0 $391 $-1 #
edge $-1 $392 $303 $231 $393 0 #
coedge $-1 $394 $232 $235 $306 0 $302 $-1 #
coedge $-1 $232 $394 $389 $395 1 $302 $-1 #
loop $-1 $-1 $394 $295 #
vertex $-1 $233 $396 #
straight-curve $-1 60 12 -25 -1 -0 -0 #
coedge $-1 $235 $234 $397 $398 0 $236 $-1 #
edge $-1 $237 $399 $300 $400 0 #
point $-1 55 12 -25 #
coedge $-1 $376 $401 $239 $309 1 $402 $-1 #
edge $-1 $227 $310 $308 $403 0 #
vertex $-1 $398 $404 #
straight-curve $-1 48.5 20 -23.5 0.707106781186548 0 0.707106781186548 #
coedge $-1 $326 $243 $244 $316 0 $185 $-1 #
coedge $-1 $337 $405 $243 $314 1 $406 $-1 #
edge $-1 $257 $407 $313 $408 0 #
coedge $-1 $245 $244 $409 $410 0 $138 $-1 #
edge $-1 $407 $322 $312 $411 0 #
coedge $-1 $412 $413 $245 $318 0 $414 $-1 #
edge $-1 $321 $415 $317 $416 0 #
coedge $-1 $417 $246 $413 $418 1 $33 $-1 #
coedge $-1 $246 $324 $326 $419 1 $33 $-1 #
vertex $-1 $418 $420 #
vertex $-1 $247 $421 #
straight-curve $-1 0 -37 -25 1 0 0 #
coedge $-1 $320 $422 $248 $325 1 $33 $-1 #
edge $-1 $327 $332 $324 $423 0 #
coedge $-1 $249 $312 $320 $419 0 $185 $-1 #
vertex $-1 $325 $424 #
straight-curve $-1 48.5 -35 -23.5 0.707106781186548 0 0.707106781186547 #
coedge $-1 $425 $251 $422 $426 0 $331 $-1 #
coedge $-1 $251 $425 $427 $428 0 $331 $-1 #
loop $-1 $-1 $329 $429 #
vertex $-1 $426 $430 #
straight-curve $-1 49.588487948391 -28.5441596233128 -22.411512051609 -0.633687274224642 0.443712606279657 -0.633687274224642 #
coedge $-1 $254 $253 $431 $432 1 $255 $-1 #
coedge $-1 $427 $433 $253 $336 1 $434 $-1 #
edge $-1 $256 $435 $253 $436 0 #
coedge $-1 $437 $313 $254 $338 0 $406 $-1 #
edge $-1 $257 $438 $254 $439 0 #
face $-1 $440 $255 $3 $-1 $441 reversed single #
point $-1 50 -28.8323034639136 -22 #
point $-1 50 -35 -22 #
coedge $-1 $260 $442 $443 $444 0 $195 $-1 #
coedge $-1 $442 $261 $445 $446 0 $195 $-1 #
coedge $-1 $261 $447 $448 $449 0 $195 $-1 #
coedge $-1 $450 $451 $261 $346 0 $452 $-1 #
edge $-1 $453 $454 $261 $455 0 #
plane-surface $-1 0 0 25 0 0 1 1 0 0 0 #
coedge $-1 $456 $266 $264 $349 1 $291 $-1 #
edge $-1 $373 $202 $348 $457 0 #
coedge $-1 $266 $456 $272 $357 0 $291 $-1 #
straight-curve $-1 -45 40 0 0 0 -1 #
face $-1 $458 $414 $3 $-1 $459 forward single #
loop $-1 $-1 $460 $269 #
cone-surface $-1 -28.4750600524541 -52.0740005928801 -23.5 0 0 1 -1.47916391609245 -3.17207725462827 0 1 0.707106781186548 0.707106781186547 0 #
coedge $-1 $461 $462 $463 $464 0 $270 $-1 #
coedge $-1 $465 $272 $466 $467 0 $195 $-1 #
edge $-1 $468 $273 $272 $469 0 #
point $-1 -45 40 25 #
loop $-1 $-1 $409 $274 #
plane-surface $-1 0 -40 0 0 1 -0 -0 0 1 0 #
coedge $-1 $275 $470 $471 $472 1 $33 $-1 #
coedge $-1 $473 $474 $275 $363 0 $475 $-1 #
edge $-1 $367 $476 $275 $477 0 #
coedge $-1 $478 $276 $474 $479 1 $366 $-1 #
coedge $-1 $276 $478 $278 $370 1 $366 $-1 #
loop $-1 $-1 $276 $480 #
vertex $-1 $277 $481 #
straight-curve $-1 -11.0172404189622 30.9009257271648 -25 -0.939692620785908 -0.342020143325669 0 #
coedge $-1 $279 $278 $482 $483 0 $280 $-1 #
edge $-1 $281 $484 $278 $485 0 #
face $-1 $284 $280 $3 $-1 $486 forward single #
point $-1 -47 17.80427229291 -25 #
vertex $-1 $349 $487 #
straight-curve $-1 -48.5 35 -23.5 -0.707106781186548 0 0.707106781186547 #
cone-surface $-1 -45 35 -23.5 0 0 1 -2.47487373415292 2.47487373415292 0 1 0.707106781186548 0.707106781186547 0 #
coedge $-1 $443 $308 $286 $293 1 $402 $-1 #
vertex $-1 $444 $488 #
ellipse-curve $-1 45 35 25 -0 -0 -1 3.53553390593274 3.53553390593274 0 1 #
cone-surface $-1 45 35 0 0 0 -1 3.53553390593274 3.53553390593274 0 1 0 1 0 #
face $-1 $489 $490 $3 $-1 $491 forward single #
loop $-1 $-1 $482 $290 #
plane-surface $-1 -50 0 0 1 0 0 0 0 -1 0 #
straight-curve $-1 50 35 0 0 0 -1 #
face $-1 $492 $391 $3 $-1 $493 forward single #
plane-surface $-1 72.5 13.5 -23.5 0 0.707106781186548 -0.707106781186548 -1 0 0 0 #
coedge $-1 $494 $297 $495 $496 1 $33 $-1 #
coedge $-1 $497 $498 $297 $388 0 $499 $-1 #
edge $-1 $500 $392 $297 $501 0 #
coedge $-1 $502 $298 $301 $395 0 $391 $-1 #
coedge $-1 $298 $502 $497 $503 1 $391 $-1 #
loop $-1 $-1 $502 $384 #
vertex $-1 $299 $504 #
ellipse-curve $-1 90 10 -25 0 0 1 1.41421356237309 1.41421356237309 0 1 #
coedge $-1 $301 $300 $505 $506 0 $302 $-1 #
edge $-1 $303 $507 $389 $508 0 #
point $-1 90 12 -25 #
coedge $-1 $509 $510 $305 $398 1 $511 $-1 #
edge $-1 $310 $399 $397 $512 0 #
vertex $-1 $513 $514 #
straight-curve $-1 55 13.5 -23.5 0 0.707106781186548 0.707106781186548 #
coedge $-1 $308 $443 $509 $515 1 $402 $-1 #
loop $-1 $-1 $308 $516 #
straight-curve $-1 50 0 -22 0 -1 0 #
point $-1 50 20 -22 #
coedge $-1 $313 $437 $517 $518 0 $406 $-1 #
loop $-1 $-1 $313 $519 #
vertex $-1 $518 $520 #
ellipse-curve $-1 45 -35 -22 -0 -0 -1 3.53553390593274 -3.53553390593274 0 1 #
coedge $-1 $517 $521 $315 $410 1 $359 $-1 #
edge $-1 $407 $415 $409 $522 0 #
straight-curve $-1 45 -38.5 -23.5 0 0.707106781186548 -0.707106781186547 #
coedge $-1 $523 $317 $524 $525 0 $414 $-1 #
coedge $-1 $317 $523 $319 $418 0 $414 $-1 #
loop $-1 $-1 $413 $352 #
vertex $-1 $526 $527 #
straight-curve $-1 19.308952601018 -39.9543272462859 -22.045672753714 0.123724030206483 -0.701673843159863 0.701673843159863 #
coedge $-1 $463 $319 $460 $528 1 $33 $-1 #
edge $-1 $529 $321 $319 $530 0 #
edge $-1 $322 $327 $320 $531 0 #
point $-1 18.7880249976556 -37 -25 #
point $-1 45 -37 -25 #
coedge $-1 $324 $532 $329 $426 1 $33 $-1 #
straight-curve $-1 47 0 -25 0 1 0 #
point $-1 47 -35 -25 #
coedge $-1 $330 $329 $533 $534 1 $331 $-1 #
edge $-1 $332 $535 $422 $536 0 #
coedge $-1 $537 $335 $330 $428 1 $434 $-1 #
edge $-1 $538 $256 $427 $539 0 #
face $-1 $540 $331 $3 $-1 $541 forward single #
point $-1 47 -26.7316808492844 -25 #
coedge $-1 $542 $543 $334 $432 0 $195 $-1 #
edge $-1 $438 $435 $334 $544 0 #
coedge $-1 $335 $537 $542 $545 1 $434 $-1 #
loop $-1 $-1 $427 $546 #
vertex $-1 $432 $547 #
straight-curve $-1 50 -28.8323034639136 0 0 0 1 #
coedge $-1 $405 $337 $543 $548 0 $406 $-1 #
vertex $-1 $338 $549 #
straight-curve $-1 50 -35 0 0 0 1 #
face $-1 $550 $551 $3 $-1 $552 forward single #
plane-surface $-1 50 0 0 -1 0 0 0 -0 1 0 #
coedge $-1 $342 $343 $553 $554 0 $195 $-1 #
coedge $-1 $401 $376 $342 $444 1 $402 $-1 #
edge $-1 $555 $377 $443 $544 0 #
coedge $-1 $556 $557 $343 $446 1 $558 $-1 #
edge $-1 $453 $559 $445 $560 0 #
coedge $-1 $344 $561 $562 $563 1 $195 $-1 #
coedge $-1 $564 $565 $344 $449 1 $566 $-1 #
edge $-1 $567 $454 $448 $568 0 #
coedge $-1 $569 $345 $565 $570 0 $452 $-1 #
coedge $-1 $345 $569 $556 $571 0 $452 $-1 #
loop $-1 $-1 $569 $572 #
vertex $-1 $346 $573 #
vertex $-1 $449 $574 #
ellipse-curve $-1 90 10 25 -0 -0 -1 3.53553390593274 3.53553390593274 0 1 #
coedge $-1 $350 $348 $575 $576 0 $291 $-1 #
ellipse-curve $-1 -45 35 -22 -0 -0 -1 -3.53553390593274 3.53553390593274 0 1 #
face $-1 $577 $578 $3 $-1 $579 reversed single #
plane-surface $-1 -4.23700691301086 -46.9766929172259 -23.5 0.241844762647976 -0.664463024388675 -0.707106781186547 -0.946188648339465 0 -0.323615577118185 0 #
coedge $-1 $580 $581 $417 $528 0 $353 $-1 #
coedge $-1 $582 $355 $581 $583 1 $270 $-1 #
coedge $-1 $355 $582 $584 $585 0 $270 $-1 #
coedge $-1 $586 $417 $355 $464 1 $33 $-1 #
edge $-1 $587 $588 $463 $589 0 #
coedge $-1 $590 $356 $591 $592 0 $195 $-1 #
coedge $-1 $575 $593 $356 $467 1 $381 $-1 #
edge $-1 $468 $594 $466 $595 0 #
vertex $-1 $576 $596 #
ellipse-curve $-1 -45 35 25 -0 -0 -1 -3.53553390593274 3.53553390593274 0 1 #
coedge $-1 $361 $597 $598 $599 1 $33 $-1 #
coedge $-1 $600 $601 $361 $472 0 $602 $-1 #
edge $-1 $476 $603 $361 $604 0 #
coedge $-1 $605 $362 $601 $606 1 $475 $-1 #
coedge $-1 $362 $605 $364 $479 0 $475 $-1 #
loop $-1 $-1 $362 $607 #
vertex $-1 $363 $608 #
ellipse-curve $-1 -52.4164700852509 13.7044828621335 -25 0 0 1 -1.8126155740733 0.845236523481397 0 1 #
coedge $-1 $365 $364 $609 $610 0 $366 $-1 #
edge $-1 $611 $367 $474 $612 0 #
face $-1 $607 $366 $3 $-1 $613 forward single #
point $-1 -53.1005103719022 15.5838681037053 -25 #
coedge $-1 $593 $575 $369 $483 1 $381 $-1 #
edge $-1 $484 $373 $482 $614 0 #
vertex $-1 $483 $615 #
straight-curve $-1 -49.940686170441 19.8633629169618 -22.059313829559 -0.633687274224642 0.443712606279657 0.633687274224642 #
plane-surface $-1 -48.5 27.4524474537696 -23.5 -0.707106781186548 0 -0.707106781186548 -0.707106781186548 0 0.707106781186548 0 #
point $-1 -50 35 -22 #
point $-1 50 35 25 #
face $-1 $519 $616 $3 $-1 $360 reversed single #
loop $-1 $-1 $617 $380 #
cone-surface $-1 -45 -35 0 -0 -0 -1 -3.53553390593274 -3.53553390593274 0 1 0 1 0 #
face $-1 $618 $499 $3 $-1 $619 forward single #
cone-surface $-1 90 10 -23.5 0 0 1 2.47487373415291 2.47487373415292 0 1 0.707106781186548 0.707106781186547 0 #
coedge $-1 $620 $386 $621 $622 1 $33 $-1 #
coedge $-1 $623 $624 $386 $496 0 $625 $-1 #
edge $-1 $626 $500 $386 $627 0 #
coedge $-1 $628 $387 $390 $503 0 $499 $-1 #
coedge $-1 $387 $628 $623 $629 1 $499 $-1 #
loop $-1 $-1 $628 $492 #
vertex $-1 $388 $630 #
straight-curve $-1 92 0 -25 0 1 0 #
coedge $-1 $390 $389 $569 $631 0 $391 $-1 #
edge $-1 $392 $632 $497 $633 0 #
point $-1 92 10 -25 #
coedge $-1 $557 $556 $394 $506 1 $558 $-1 #
edge $-1 $399 $507 $505 $634 0 #
vertex $-1 $631 $635 #
straight-curve $-1 90 13.5 -23.5 0 0.707106781186548 0.707106781186547 #
coedge $-1 $553 $397 $401 $515 0 $511 $-1 #
coedge $-1 $397 $553 $557 $513 0 $511 $-1 #
loop $-1 $-1 $397 $636 #
ellipse-curve $-1 55 20 -22 0 0 1 -3.53553390593274 -3.53553390593274 0 1 #
edge $-1 $559 $399 $557 $637 0 #
point $-1 55 15 -22 #
edge $-1 $310 $555 $401 $638 0 #
face $-1 $546 $402 $3 $-1 $441 reversed single #
coedge $-1 $639 $409 $405 $518 1 $359 $-1 #
edge $-1 $640 $407 $517 $641 0 #
face $-1 $339 $406 $3 $-1 $642 forward single #
point $-1 45 -40 -22 #
coedge $-1 $409 $639 $643 $526 0 $359 $-1 #
straight-curve $-1 0 -40 -22 -1 0 0 #
coedge $-1 $413 $412 $580 $644 0 $414 $-1 #
coedge $-1 $643 $645 $412 $525 1 $646 $-1 #
edge $-1 $415 $647 $524 $648 0 #
edge $-1 $649 $415 $521 $650 0 #
point $-1 19.317005939781 -40 -22 #
edge $-1 $588 $529 $417 $651 0 #
vertex $-1 $528 $652 #
straight-curve $-1 4.66965753835609 -42.1386655116176 -25 0.939692620785908 0.342020143325669 -0 #
ellipse-curve $-1 45 -35 -25 0 0 1 1.41421356237309 -1.41421356237309 0 1 #
coedge $-1 $422 $653 $654 $655 1 $33 $-1 #
coedge $-1 $654 $656 $425 $534 0 $657 $-1 #
edge $-1 $538 $535 $533 $658 0 #
vertex $-1 $426 $659 #
straight-curve $-1 33.4834900210938 -31.6512881527684 -25 0.939692620785908 0.342020143325669 -0 #
coedge $-1 $433 $427 $660 $661 1 $434 $-1 #
vertex $-1 $661 $662 #
straight-curve $-1 15.5212085995402 -41.3815572471545 -22 -0.939692620785908 -0.342020143325669 0 #
face $-1 $663 $657 $3 $-1 $664 forward single #
plane-surface $-1 53.3906580524645 -26.0019381995276 -23.5 0.241844762647976 -0.664463024388675 -0.707106781186547 -0.946188648339465 0 -0.323615577118185 0 #
coedge $-1 $665 $431 $433 $545 0 $195 $-1 #
coedge $-1 $431 $666 $437 $548 1 $195 $-1 #
straight-curve $-1 50 0 25 0 1 0 #
edge $-1 $435 $667 $433 $668 0 #
face $-1 $669 $434 $3 $-1 $670 reversed single #
point $-1 50 -28.8323034639136 25 #
edge $-1 $438 $640 $543 $671 0 #
point $-1 50 -35 25 #
face $-1 $672 $673 $3 $-1 $674 reversed single #
loop $-1 $-1 $675 $440 #
cone-surface $-1 61.9842916652659 -17 0 0 0 1 -1.63830408857799 1.14715287270209 0 1 0 -1 0 #
coedge $-1 $510 $509 $442 $554 1 $511 $-1 #
edge $-1 $559 $555 $442 $676 0 #
vertex $-1 $444 $677 #
coedge $-1 $505 $445 $451 $571 1 $558 $-1 #
coedge $-1 $445 $505 $510 $513 1 $558 $-1 #
loop $-1 $-1 $505 $678 #
vertex $-1 $446 $679 #
straight-curve $-1 60 15 25 -1 0 0 #
coedge $-1 $447 $680 $681 $682 0 $195 $-1 #
coedge $-1 $683 $684 $447 $563 0 $685 $-1 #
edge $-1 $567 $686 $447 $687 0 #
coedge $-1 $688 $448 $684 $689 1 $566 $-1 #
coedge $-1 $448 $688 $450 $570 1 $566 $-1 #
loop $-1 $-1 $688 $690 #
vertex $-1 $689 $691 #
straight-curve $-1 95 0 25 0 1 0 #
coedge $-1 $451 $450 $502 $631 1 $452 $-1 #
edge $-1 $454 $632 $565 $692 0 #
edge $-1 $507 $453 $556 $693 0 #
face $-1 $690 $452 $3 $-1 $694 forward single #
point $-1 90 15 25 #
point $-1 95 10 25 #
coedge $-1 $482 $466 $456 $576 1 $381 $-1 #
edge $-1 $373 $468 $575 $695 0 #
face $-1 $696 $697 $3 $-1 $698 forward single #
loop $-1 $-1 $699 $458 #
plane-surface $-1 -45.144228172782 -20.8948595820016 0 0.939692620785908 0.342020143325669 0 0 0 -1 0 #
coedge $-1 $700 $460 $523 $644 1 $353 $-1 #
coedge $-1 $460 $700 $461 $583 0 $353 $-1 #
coedge $-1 $462 $461 $699 $701 0 $270 $-1 #
edge $-1 $702 $588 $581 $703 0 #
coedge $-1 $704 $705 $462 $585 1 $706 $-1 #
edge $-1 $707 $587 $462 $708 0 #
coedge $-1 $597 $463 $705 $709 1 $33 $-1 #
vertex $-1 $464 $710 #
vertex $-1 $464 $711 #
straight-curve $-1 -38.3113518987487 -30.8966196543462 -25 0.342020143325669 -0.939692620785908 0 #
coedge $-1 $712 $465 $713 $714 1 $195 $-1 #
coedge $-1 $715 $716 $465 $592 1 $717 $-1 #
edge $-1 $594 $718 $591 $207 0 #
coedge $-1 $466 $482 $715 $719 0 $381 $-1 #
vertex $-1 $467 $720 #
straight-curve $-1 -50 0 25 0 -1 0 #
point $-1 -50 35 25 #
coedge $-1 $470 $586 $721 $722 1 $33 $-1 #
coedge $-1 $723 $724 $470 $599 0 $725 $-1 #
edge $-1 $603 $726 $470 $727 0 #
coedge $-1 $728 $471 $724 $729 0 $602 $-1 #
coedge $-1 $471 $728 $473 $606 0 $602 $-1 #
loop $-1 $-1 $471 $730 #
vertex $-1 $472 $731 #
straight-curve $-1 -47.2490729721593 -6.34043282376688 -25 0.34202014332567 -0.939692620785908 0 #
coedge $-1 $474 $473 $732 $733 0 $475 $-1 #
edge $-1 $734 $476 $601 $735 0 #
face $-1 $730 $475 $3 $-1 $736 forward single #
point $-1 -54.2958553268227 13.0204425754822 -25 #
coedge $-1 $716 $715 $478 $610 1 $717 $-1 #
edge $-1 $611 $484 $609 $737 0 #
vertex $-1 $738 $739 #
straight-curve $-1 -53.6135405868907 16.9934070348842 -23.5 0.241844762647976 -0.664463024388675 -0.707106781186547 #
plane-surface $-1 -50.0502551859511 18.2903368570215 -23.5 -0.241844762647976 0.664463024388675 -0.707106781186547 -0.946188648339465 0 0.323615577118185 0 #
straight-curve $-1 -50 0 -22 0 1 0 #
point $-1 -50 19.9048949075391 -22 #
loop $-1 $-1 $740 $489 #
coedge $-1 $741 $742 $743 $744 1 $490 $-1 #
face $-1 $745 $625 $3 $-1 $746 forward single #
plane-surface $-1 93.5 0 -23.5 0.707106781186548 0 -0.707106781186548 -0.707106781186548 0 -0.707106781186548 0 #
coedge $-1 $653 $494 $747 $748 1 $33 $-1 #
coedge $-1 $749 $750 $494 $622 0 $751 $-1 #
edge $-1 $752 $626 $494 $753 0 #
coedge $-1 $754 $495 $498 $629 0 $625 $-1 #
coedge $-1 $495 $754 $749 $755 1 $625 $-1 #
loop $-1 $-1 $754 $618 #
vertex $-1 $496 $756 #
ellipse-curve $-1 90 -10 -25 0 0 1 1.41421356237309 -1.41421356237309 0 1 #
coedge $-1 $498 $497 $688 $757 0 $499 $-1 #
edge $-1 $500 $758 $623 $759 0 #
point $-1 92 -10 -25 #
edge $-1 $507 $632 $569 $760 0 #
vertex $-1 $570 $761 #
straight-curve $-1 93.5 10 -23.5 0.707106781186548 0 0.707106781186548 #
straight-curve $-1 60 15 -22 1 0 0 #
point $-1 90 15 -22 #
face $-1 $678 $511 $3 $-1 $762 forward single #
straight-curve $-1 55 15 0 -0 -0 -1 #
straight-curve $-1 50 20 0 0 0 1 #
coedge $-1 $521 $517 $666 $763 1 $359 $-1 #
vertex $-1 $763 $764 #
straight-curve $-1 45 -40 0 0 0 -1 #
cone-surface $-1 45 -35 0 0 0 -1 3.53553390593274 -3.53553390593274 0 1 0 1 0 #
coedge $-1 $765 $524 $521 $526 1 $646 $-1 #
edge $-1 $647 $529 $523 $766 0 #
coedge $-1 $524 $765 $767 $768 1 $646 $-1 #
loop $-1 $-1 $524 $696 #
vertex $-1 $525 $769 #
straight-curve $-1 15.5212085995402 -41.3815572471545 -22 -0.939692620785908 -0.342020143325669 0 #
vertex $-1 $763 $770 #
straight-curve $-1 19.317005939781 -40 0 -0 0 -1 #
ellipse-curve $-1 -28.4750600524541 -52.0740005928801 -25 0 0 1 -0.845236523481397 -1.8126155740733 0 1 #
point $-1 -27.7910197658027 -53.9533858344519 -25 #
coedge $-1 $532 $620 $771 $772 1 $33 $-1 #
coedge $-1 $773 $533 $532 $655 0 $657 $-1 #
edge $-1 $535 $774 $532 $775 0 #
coedge $-1 $533 $773 $776 $777 0 $657 $-1 #
loop $-1 $-1 $656 $540 #
straight-curve $-1 57.2943463199175 -24.5811118663205 -23.5 -0.241844762647976 0.664463024388675 -0.707106781186547 #
point $-1 56.781316104929 -23.1715729351416 -25 #
coedge $-1 $776 $778 $537 $661 0 $779 $-1 #
edge $-1 $667 $538 $537 $780 0 #
point $-1 57.807376534906 -25.9906507974994 -22 #
face $-1 $781 $706 $3 $-1 $782 forward single #
cone-surface $-1 56.0972758182777 -21.2921876935698 -23.5 0 0 1 3.17207725462828 -1.47916391609245 0 1 0.707106781186547 0.707106781186547 0 #
coedge $-1 $783 $542 $778 $784 1 $195 $-1 #
coedge $-1 $543 $785 $639 $763 0 $195 $-1 #
vertex $-1 $545 $786 #
straight-curve $-1 15.5212085995402 -41.3815572471545 25 0.939692620785908 0.342020143325669 0 #
face $-1 $209 $787 $3 $-1 $382 reversed single #
plane-surface $-1 15.5212085995402 -41.3815572471545 0 -0.342020143325669 0.939692620785908 0 0 0 1 0 #
ellipse-curve $-1 45 -35 25 -0 -0 -1 3.53553390593274 -3.53553390593274 0 1 #
face $-1 $788 $779 $3 $-1 $789 forward single #
loop $-1 $-1 $790 $550 #
plane-surface $-1 60 -15 0 0 1 0 0 0 1 0 #
coedge $-1 $791 $792 $793 $794 1 $551 $-1 #
ellipse-curve $-1 55 20 25 -0 -0 -1 -3.53553390593274 -3.53553390593274 0 1 #
point $-1 50 20 25 #
face $-1 $288 $558 $3 $-1 $795 reversed single #
point $-1 55 15 25 #
coedge $-1 $561 $783 $796 $797 0 $195 $-1 #
coedge $-1 $798 $799 $561 $682 1 $673 $-1 #
edge $-1 $800 $686 $681 $801 0 #
coedge $-1 $802 $562 $799 $803 0 $685 $-1 #
coedge $-1 $562 $802 $564 $689 0 $685 $-1 #
loop $-1 $-1 $802 $804 #
vertex $-1 $682 $805 #
ellipse-curve $-1 90 -10 25 -0 -0 -1 3.53553390593274 -3.53553390593274 0 1 #
coedge $-1 $565 $564 $628 $757 1 $566 $-1 #
edge $-1 $758 $567 $564 $806 0 #
face $-1 $804 $566 $3 $-1 $807 reversed single #
point $-1 95 -10 25 #
straight-curve $-1 95 10 0 0 0 -1 #
straight-curve $-1 90 15 0 0 0 1 #
cone-surface $-1 90 10 0 0 0 -1 3.53553390593274 3.53553390593274 0 1 0 1 0 #
straight-curve $-1 -50 35 0 0 0 1 #
face $-1 $572 $646 $3 $-1 $670 reversed single #
loop $-1 $-1 $808 $577 #
cone-surface $-1 -28.4750600524541 -52.0740005928801 0 0 0 -1 -2.11309130870349 -4.53153893518325 0 1 0 1 0 #
coedge $-1 $809 $810 $582 $701 1 $578 $-1 #
coedge $-1 $581 $580 $808 $811 0 $353 $-1 #
edge $-1 $702 $707 $699 $812 0 #
vertex $-1 $813 $814 #
straight-curve $-1 -31.7639842252047 -53.2710710945199 -23.5 0.664463024388675 0.241844762647976 -0.707106781186547 #
coedge $-1 $815 $584 $740 $816 0 $706 $-1 #
coedge $-1 $584 $815 $586 $709 0 $706 $-1 #
loop $-1 $-1 $704 $663 #
vertex $-1 $817 $818 #
straight-curve $-1 -38.2470255840156 -40.0806901408197 -21.9193098591803 0.443712606279657 0.633687274224642 -0.633687274224642 #
edge $-1 $819 $587 $586 $820 0 #
point $-1 -36.0899031245253 -37 -25 #
point $-1 -30.3544452940259 -52.7580408795314 -25 #
coedge $-1 $821 $590 $822 $823 0 $195 $-1 #
coedge $-1 $824 $825 $590 $714 0 $826 $-1 #
edge $-1 $827 $718 $590 $828 0 #
coedge $-1 $609 $591 $593 $719 1 $717 $-1 #
coedge $-1 $591 $609 $824 $738 1 $717 $-1 #
loop $-1 $-1 $609 $829 #
vertex $-1 $592 $830 #
edge $-1 $484 $594 $593 $831 0 #
point $-1 -50 19.9048949075391 25 #
coedge $-1 $832 $833 $597 $722 0 $834 $-1 #
edge $-1 $726 $819 $597 $835 0 #
coedge $-1 $836 $598 $833 $837 0 $725 $-1 #
coedge $-1 $598 $836 $600 $729 1 $725 $-1 #
loop $-1 $-1 $598 $838 #
vertex $-1 $722 $839 #
straight-curve $-1 -47 0 -25 -0 -1 -0 #
coedge $-1 $601 $600 $840 $841 0 $602 $-1 #
edge $-1 $603 $842 $600 $843 0 #
face $-1 $829 $602 $3 $-1 $844 forward single #
point $-1 -47 -7.02475519057097 -25 #
coedge $-1 $825 $824 $605 $733 1 $826 $-1 #
edge $-1 $734 $611 $732 $845 0 #
vertex $-1 $841 $846 #
straight-curve $-1 -55.7053942580016 12.5074123604937 -23.5 0.664463024388673 0.241844762647978 -0.707106781186548 #
cone-surface $-1 -52.4164700852509 13.7044828621335 -23.5 0 0 1 -3.17207725462828 1.47916391609244 0 1 0.707106781186548 0.707106781186548 0 #
straight-curve $-1 -12.0433008489392 33.7200035895225 -22 0.939692620785908 0.342020143325669 0 #
edge $-1 $718 $611 $716 $847 0 #
point $-1 -54.1265708018793 18.402945966063 -22 #
coedge $-1 $848 $849 $704 $816 1 $616 $-1 #
coedge $-1 $850 $617 $849 $851 0 $490 $-1 #
coedge $-1 $617 $850 $852 $853 0 $490 $-1 #
coedge $-1 $833 $832 $617 $744 0 $834 $-1 #
edge $-1 $854 $855 $617 $856 0 #
face $-1 $857 $751 $3 $-1 $858 forward single #
cone-surface $-1 90 -10 -23.5 0 0 1 2.47487373415291 -2.47487373415292 0 1 0.707106781186548 0.707106781186547 0 #
coedge $-1 $859 $860 $620 $748 0 $861 $-1 #
edge $-1 $862 $752 $620 $863 0 #
coedge $-1 $864 $621 $624 $755 0 $751 $-1 #
coedge $-1 $621 $864 $859 $865 1 $751 $-1 #
loop $-1 $-1 $864 $745 #
vertex $-1 $622 $866 #
straight-curve $-1 60 -12 -25 1 0 0 #
coedge $-1 $624 $623 $802 $867 0 $625 $-1 #
edge $-1 $626 $868 $749 $869 0 #
point $-1 90 -12 -25 #
edge $-1 $632 $758 $688 $870 0 #
vertex $-1 $867 $871 #
straight-curve $-1 93.5 -10 -23.5 0.707106781186548 4.18691322315673e-16 0.707106781186548 #
ellipse-curve $-1 90 10 -22 -0 -0 -1 3.53553390593274 3.53553390593274 0 1 #
point $-1 95 10 -22 #
cone-surface $-1 55 20 0 -0 -0 -1 -3.53553390593274 -3.53553390593274 0 1 0 -1 0 #
edge $-1 $649 $640 $639 $872 0 #
point $-1 45 -40 25 #
coedge $-1 $645 $643 $785 $873 1 $646 $-1 #
straight-curve $-1 -27.2779895508142 -55.3629247656308 -23.5 -0.241844762647978 0.664463024388674 -0.707106781186547 #
coedge $-1 $874 $808 $645 $768 0 $697 $-1 #
edge $-1 $647 $875 $645 $876 0 #
point $-1 -26.7649593358257 -56.7724636968096 -22 #
point $-1 19.317005939781 -40 25 #
coedge $-1 $877 $878 $653 $772 0 $879 $-1 #
edge $-1 $774 $862 $653 $880 0 #
coedge $-1 $656 $654 $878 $881 0 $657 $-1 #
vertex $-1 $772 $882 #
ellipse-curve $-1 56.0972758182777 -21.2921876935698 -25 0 0 1 1.8126155740733 -0.845236523481397 0 1 #
coedge $-1 $883 $660 $656 $777 1 $779 $-1 #
edge $-1 $884 $538 $776 $885 0 #
coedge $-1 $660 $883 $665 $784 0 $779 $-1 #
loop $-1 $-1 $776 $672 #
straight-curve $-1 57.807376534906 -25.9906507974994 0 0 0 -1 #
face $-1 $838 $834 $3 $-1 $886 forward single #
plane-surface $-1 -39.9989962108634 -38.5 -23.5 0 -0.707106781186548 -0.707106781186548 -1 0 0 0 #
coedge $-1 $680 $665 $887 $888 0 $195 $-1 #
edge $-1 $889 $667 $665 $890 0 #
coedge $-1 $666 $891 $765 $873 0 $195 $-1 #
point $-1 57.807376534906 -25.9906507974994 25 #
loop $-1 $-1 $892 $669 #
face $-1 $516 $893 $3 $-1 $22 reversed single #
cone-surface $-1 56.0972758182777 -21.2921876935698 0 0 0 -1 4.53153893518325 -2.11309130870349 0 1 0 1 0 #
coedge $-1 $799 $798 $864 $894 1 $673 $-1 #
coedge $-1 $796 $675 $798 $895 0 $551 $-1 #
coedge $-1 $675 $796 $896 $897 0 $551 $-1 #
coedge $-1 $860 $859 $675 $794 0 $861 $-1 #
edge $-1 $898 $899 $675 $900 0 #
plane-surface $-1 60 15 0 0 -1 0 0 0 -1 0 #
coedge $-1 $792 $791 $680 $797 1 $551 $-1 #
edge $-1 $901 $800 $680 $902 0 #
coedge $-1 $790 $681 $791 $895 1 $673 $-1 #
coedge $-1 $681 $790 $683 $803 1 $673 $-1 #
vertex $-1 $682 $903 #
straight-curve $-1 60 -15 25 1 0 0 #
coedge $-1 $684 $683 $754 $867 1 $685 $-1 #
edge $-1 $686 $868 $799 $904 0 #
face $-1 $636 $685 $3 $-1 $905 forward single #
point $-1 90 -15 25 #
straight-curve $-1 95 -10 0 0 0 1 #
plane-surface $-1 95 0 0 -1 0 0 0 0 1 0 #
coedge $-1 $767 $906 $700 $811 1 $697 $-1 #
coedge $-1 $907 $699 $906 $813 1 $578 $-1 #
coedge $-1 $699 $907 $848 $817 1 $578 $-1 #
edge $-1 $647 $702 $808 $908 0 #
straight-curve $-1 -45.144228172782 -20.8948595820016 -22 -0.342020143325669 0.939692620785908 0 #
edge $-1 $909 $702 $809 $910 0 #
point $-1 -33.1735231563836 -53.7841013095084 -22 #
coedge $-1 $705 $704 $832 $911 1 $706 $-1 #
edge $-1 $707 $854 $740 $912 0 #
edge $-1 $707 $913 $848 $914 0 #
point $-1 -38.1905257391545 -40 -22 #
vertex $-1 $709 $915 #
straight-curve $-1 0 -37 -25 1 0 0 #
coedge $-1 $916 $712 $917 $918 0 $195 $-1 #
coedge $-1 $919 $920 $712 $823 1 $921 $-1 #
edge $-1 $827 $922 $822 $923 0 #
coedge $-1 $732 $713 $716 $738 0 $826 $-1 #
coedge $-1 $713 $732 $919 $924 0 $826 $-1 #
loop $-1 $-1 $732 $925 #
vertex $-1 $924 $926 #
ellipse-curve $-1 -52.4164700852509 13.7044828621335 25 -0 -0 -1 -4.53153893518325 2.11309130870349 0 1 #
face $-1 $925 $717 $3 $-1 $65 reversed single #
point $-1 -54.1265708018793 18.402945966063 25 #
straight-curve $-1 -50 19.9048949075391 0 -0 0 1 #
coedge $-1 $743 $721 $815 $911 0 $834 $-1 #
coedge $-1 $721 $743 $723 $837 1 $834 $-1 #
loop $-1 $-1 $743 $781 #
ellipse-curve $-1 -45 -35 -25 0 0 1 -1.41421356237309 -1.41421356237309 0 1 #
coedge $-1 $724 $723 $892 $927 0 $725 $-1 #
edge $-1 $726 $855 $723 $928 0 #
face $-1 $480 $725 $3 $-1 $929 forward single #
point $-1 -47 -35 -25 #
coedge $-1 $920 $919 $728 $841 1 $921 $-1 #
edge $-1 $842 $734 $840 $930 0 #
vertex $-1 $931 $932 #
straight-curve $-1 -49.379761056292 -7.44437127243453 -22.620238943708 -0.701673843159863 -0.123724030206483 0.701673843159863 #
plane-surface $-1 -52.1479276634114 2.7333532213929 -23.5 -0.664463024388675 -0.241844762647976 -0.707106781186547 -0.728739444818683 0 0.684791078771736 0 #
ellipse-curve $-1 -52.4164700852509 13.7044828621335 -22 -0 -0 -1 -4.53153893518325 2.11309130870349 0 1 #
point $-1 -57.1149331891804 11.9943821455051 -22 #
straight-curve $-1 -54.1265708018793 18.402945966063 0 0 0 -1 #
coedge $-1 $933 $740 $810 $817 0 $616 $-1 #
coedge $-1 $740 $933 $741 $851 1 $616 $-1 #
coedge $-1 $742 $741 $916 $934 0 $490 $-1 #
edge $-1 $854 $935 $849 $936 0 #
coedge $-1 $917 $892 $742 $853 1 $787 $-1 #
edge $-1 $937 $855 $852 $938 0 #
vertex $-1 $744 $939 #
vertex $-1 $853 $940 #
ellipse-curve $-1 -45 -35 -22 -0 -0 -1 -3.53553390593274 -3.53553390593274 0 1 #
face $-1 $941 $861 $3 $-1 $942 forward single #
plane-surface $-1 75.992145832633 -13.5 -23.5 0 -0.707106781186548 -0.707106781186548 -1 0 0 0 #
coedge $-1 $793 $747 $750 $865 0 $861 $-1 #
coedge $-1 $747 $793 $877 $943 1 $861 $-1 #
loop $-1 $-1 $793 $857 #
vertex $-1 $748 $944 #
ellipse-curve $-1 61.9842916652659 -17 -25 -0 -0 -1 -4.09576022144496 2.86788218175522 0 1 #
coedge $-1 $750 $749 $790 $894 0 $751 $-1 #
edge $-1 $752 $898 $859 $945 0 #
point $-1 61.9842916652659 -12 -25 #
edge $-1 $758 $868 $802 $946 0 #
vertex $-1 $803 $947 #
straight-curve $-1 90 -13.5 -23.5 0 -0.707106781186548 0.707106781186548 #
straight-curve $-1 95 0 -22 0 -1 0 #
point $-1 95 -10 -22 #
straight-curve $-1 0 -40 25 1 0 0 #
edge $-1 $875 $649 $765 $668 0 #
coedge $-1 $906 $767 $891 $948 0 $697 $-1 #
vertex $-1 $768 $949 #
straight-curve $-1 -26.7649593358257 -56.7724636968096 0 0 0 1 #
coedge $-1 $950 $771 $860 $943 0 $879 $-1 #
coedge $-1 $771 $950 $773 $881 1 $879 $-1 #
loop $-1 $-1 $950 $941 #
straight-curve $-1 46.0059560434511 12.2810943205883 -25 -0.342020143325669 0.939692620785908 0 #
edge $-1 $774 $884 $773 $951 0 #
point $-1 57.9766610598495 -20.6081474069185 -25 #
coedge $-1 $778 $776 $952 $953 0 $779 $-1 #
vertex $-1 $777 $954 #
ellipse-curve $-1 56.0972758182777 -21.2921876935698 -22 -0 -0 -1 4.53153893518325 -2.11309130870349 0 1 #
cone-surface $-1 -45 -35 -23.5 0 0 1 -2.47487373415292 -2.47487373415292 0 1 0.707106781186548 0.707106781186547 0 #
coedge $-1 $952 $896 $783 $888 1 $893 $-1 #
edge $-1 $889 $901 $887 $196 0 #
vertex $-1 $953 $955 #
ellipse-curve $-1 56.0972758182777 -21.2921876935698 25 -0 -0 -1 4.53153893518325 -2.11309130870349 0 1 #
coedge $-1 $785 $956 $874 $948 1 $195 $-1 #
coedge $-1 $852 $957 $836 $927 1 $787 $-1 #
loop $-1 $-1 $958 $788 #
edge $-1 $868 $898 $790 $959 0 #
edge $-1 $898 $800 $798 $960 0 #
coedge $-1 $887 $958 $792 $897 1 $893 $-1 #
edge $-1 $901 $899 $896 $961 0 #
vertex $-1 $794 $962 #
vertex $-1 $897 $963 #
ellipse-curve $-1 61.9842916652659 -17 -22 0 0 1 -1.63830408857799 1.14715287270209 0 1 #
vertex $-1 $888 $964 #
ellipse-curve $-1 61.9842916652659 -17 25 -0 -0 -1 -1.63830408857799 1.14715287270209 0 1 #
point $-1 61.9842916652659 -15 25 #
straight-curve $-1 90 -15 0 0 0 -1 #
cone-surface $-1 90 -10 0 0 0 -1 3.53553390593274 -3.53553390593274 0 1 0 1 0 #
coedge $-1 $808 $874 $809 $813 0 $697 $-1 #
coedge $-1 $810 $809 $956 $965 1 $578 $-1 #
ellipse-curve $-1 -28.4750600524541 -52.0740005928801 -22 -0 -0 -1 -2.11309130870349 -4.53153893518325 0 1 #
vertex $-1 $965 $966 #
straight-curve $-1 -33.1735231563836 -53.7841013095084 0 0 0 -1 #
edge $-1 $819 $854 $832 $967 0 #
straight-curve $-1 0 -40 -22 -1 0 0 #
vertex $-1 $968 $969 #
straight-curve $-1 -38.1905257391545 -40 0 -0 0 1 #
point $-1 -45 -37 -25 #
coedge $-1 $970 $821 $850 $934 1 $195 $-1 #
coedge $-1 $957 $852 $821 $918 1 $787 $-1 #
edge $-1 $922 $937 $917 $595 0 #
coedge $-1 $840 $822 $825 $924 1 $921 $-1 #
coedge $-1 $822 $840 $957 $931 1 $921 $-1 #
loop $-1 $-1 $840 $971 #
vertex $-1 $918 $972 #
straight-curve $-1 -45.144228172782 -20.8948595820016 25 0.342020143325669 -0.939692620785908 0 #
edge $-1 $734 $827 $919 $973 0 #
face $-1 $971 $826 $3 $-1 $974 forward single #
point $-1 -57.1149331891804 11.9943821455051 25 #
edge $-1 $855 $842 $892 $975 0 #
straight-curve $-1 -48.5 -35 -23.5 -0.707106781186548 0 0.707106781186548 #
plane-surface $-1 -48.5 -16.8911614661036 -23.5 -0.707106781186548 0 -0.707106781186548 -0.707106781186548 0 0.707106781186548 0 #
straight-curve $-1 -45.144228172782 -20.8948595820016 -22 -0.342020143325669 0.939692620785908 0 #
edge $-1 $922 $842 $957 $976 0 #
point $-1 -50 -7.55373613269635 -22 #
coedge $-1 $849 $848 $970 $968 1 $616 $-1 #
edge $-1 $935 $937 $916 $977 0 #
vertex $-1 $851 $978 #
straight-curve $-1 -45 -40 0 0 0 1 #
vertex $-1 $918 $979 #
straight-curve $-1 -50 -35 0 0 0 -1 #
point $-1 -45 -40 -22 #
point $-1 -50 -35 -22 #
face $-1 $429 $879 $3 $-1 $980 forward single #
cone-surface $-1 61.9842916652659 -17 -23.5 0 0 1 -2.86703215501148 2.00751752722866 0 1 0.707106781186547 -0.707106781186548 0 #
edge $-1 $862 $899 $877 $981 0 #
point $-1 57.2858285613364 -18.7101007166284 -25 #
straight-curve $-1 61.9842916652659 -13.5 -23.5 0 -0.707106781186547 0.707106781186548 #
ellipse-curve $-1 90 -10 -22 -0 -0 -1 3.53553390593274 -3.53553390593274 0 1 #
point $-1 90 -15 -22 #
edge $-1 $875 $909 $891 $982 0 #
point $-1 -26.7649593358257 -56.7724636968096 25 #
coedge $-1 $878 $877 $958 $983 0 $879 $-1 #
straight-curve $-1 59.3861999910284 -20.09511719193 -23.5 0.664463024388674 0.241844762647976 0.707106781186548 #
coedge $-1 $958 $887 $883 $953 1 $893 $-1 #
edge $-1 $884 $889 $952 $984 0 #
point $-1 60.7957389222072 -19.5820869769415 -22 #
point $-1 60.7957389222072 -19.5820869769415 25 #
coedge $-1 $891 $970 $907 $965 0 $195 $-1 #
coedge $-1 $892 $917 $920 $931 0 $787 $-1 #
coedge $-1 $896 $952 $950 $983 1 $893 $-1 #
straight-curve $-1 60 -15 -22 -1 0 0 #
straight-curve $-1 61.9842916652659 -15 0 0 0 1 #
straight-curve $-1 60.1049064236941 -17.6840402866513 0 0 0 -1 #
point $-1 61.9842916652659 -15 -22 #
point $-1 60.1049064236941 -17.6840402866513 -22 #
point $-1 60.1049064236941 -17.6840402866513 25 #
edge $-1 $913 $909 $907 $923 0 #
point $-1 -33.1735231563836 -53.7841013095084 25 #
straight-curve $-1 -45 -38.5 -23.5 0 -0.707106781186548 0.707106781186547 #
edge $-1 $935 $913 $933 $872 0 #
point $-1 -38.1905257391545 -40 25 #
coedge $-1 $956 $916 $933 $968 0 $195 $-1 #
face $-1 $371 $921 $3 $-1 $579 reversed single #
point $-1 -50 -7.55373613269636 25 #
straight-curve $-1 -57.1149331891804 11.9943821455051 0 0 0 1 #
cone-surface $-1 -52.4164700852509 13.7044828621335 0 0 0 -1 -4.53153893518325 2.11309130870349 0 1 0 1 0 #
straight-curve $-1 -50 0 -22 0 1 0 #
straight-curve $-1 -50 -7.55373613269635 0 0 0 -1 #
ellipse-curve $-1 -45 -35 25 -0 -0 -1 -3.53553390593274 -3.53553390593274 0 1 #
point $-1 -45 -40 25 #
point $-1 -50 -35 25 #
plane-surface $-1 59.0407837417718 -19.1460938467849 -23.5 0.664463024388675 0.241844762647976 -0.707106781186547 -0.728739444818683 0 -0.684791078771736 0 #
straight-curve $-1 58.6953674925153 -18.1970705016398 -23.5 0.664463024388673 0.241844762647979 0.707106781186548 #
ellipse-curve $-1 -28.4750600524541 -52.0740005928801 25 -0 -0 -1 -2.11309130870349 -4.53153893518325 0 1 #
edge $-1 $899 $884 $958 $985 0 #
straight-curve $-1 60.7957389222072 -19.5820869769415 0 0 0 1 #
straight-curve $-1 48.8250339058088 13.3071547505653 -22 0.342020143325669 -0.939692620785908 0 #
