600 0 2 0           
24 FBMach with ACIS - 6.0.3 13 ACIS 6.0.3 NT 24 Tue May 22 12:25:05 2001 
1 9.9999999999999995e-007 1e-010 
body $2 $3 $-1 $4 #
bdycol-kcp $-1 1 2 $5 $6 #
model_id-kcp-attrib $-1 $7 $-1 $0 1 990548704 120 1836580870 1 #
lump $-1 $-1 $8 $0 #
transform $-1 1 -6.9895299261573409e-034 0 -6.9895299261573409e-034 1 0 0 0 1 18.791764957374546 -3.7938524157182023 19.999999999999982 1 rotate no_reflect no_shear #
body $9 $10 $-1 $11 #
body $12 $13 $-1 $14 #
rgb_color-st-attrib $-1 $15 $2 $0 1 0.5 1 #
shell $-1 $-1 $-1 $16 $-1 $3 #
model_id-kcp-attrib $-1 $-1 $-1 $5 1 990548704 120 1836580871 1 #
lump $-1 $-1 $17 $5 #
transform $-1 1 0 0 0 1 0 0 0 1 70.303131202757513 -17.291043488470752 19.999999999999989 1 no_rotate no_reflect no_shear #
rgb_color-st-attrib $-1 $18 $-1 $6 0.5 1 1 #
lump $-1 $-1 $19 $6 #
transform $-1 1 0 0 0 1 0 0 0 1 70.303131202757513 -17.291043488470752 19.999999999999989 1 no_rotate no_reflect no_shear #
model_id-kcp-attrib $-1 $-1 $7 $0 1 989031559 1334312 2049441797 1 #
face $20 $21 $22 $8 $-1 $23 reversed single #
shell $-1 $-1 $-1 $24 $-1 $10 #
model_id-kcp-attrib $-1 $-1 $12 $6 1 990548704 220 1843134472 1 #
shell $-1 $-1 $-1 $25 $-1 $13 #
model_id-kcp-attrib $-1 $-1 $-1 $16 1 990548704 120 1836580870 2 #
face $26 $27 $28 $8 $-1 $29 forward single #
loop $-1 $-1 $30 $16 #
plane-surface $-1 52.628646685045787 -15.788234561223307 -0.70853910528899178 -3.0311339171115497e-030 1 2.6656204546356468e-031 0 -2.6656204546356468e-031 1 forward_v I I I I #
face $31 $32 $33 $17 $-1 $34 forward single #
face $-1 $35 $36 $19 $-1 $37 reversed single #
model_id-kcp-attrib $-1 $-1 $-1 $21 1 990548704 120 1836580870 3 #
face $38 $39 $40 $8 $-1 $41 reversed single #
loop $-1 $-1 $42 $21 #
plane-surface $-1 63.717221629862777 -13.206147584281808 25.000000000000018 1 0 -1.3634949982774535e-016 -1.3634949982774535e-016 0 -1 forward_v I I I I #
coedge $-1 $43 $44 $45 $46 forward $22 $-1 #
model_id-kcp-attrib $-1 $-1 $-1 $24 1 990548704 120 1836580871 6 #
face $47 $48 $49 $17 $-1 $50 reversed single #
loop $-1 $-1 $51 $24 #
plane-surface $-1 0 0 25.000000000000032 0 0 1 1 0 0 forward_v I I I I #
face $-1 $52 $53 $19 $-1 $54 reversed single #
loop $-1 $-1 $55 $25 #
plane-surface $-1 5.1116297202652277 -2.291043488470752 -25.000000000000025 0.34202014332566921 -0.93969262078590832 0 0 0 1 forward_v I I I I #
model_id-kcp-attrib $-1 $-1 $-1 $27 1 990548704 120 1836580870 4 #
face $56 $57 $58 $8 $-1 $59 reversed single #
loop $-1 $-1 $60 $27 #
plane-surface $-1 42.305510860903155 -13.206147584281805 25.000000000000028 1 0 0 0 1 0 forward_v I I I I #
coedge $-1 $61 $62 $63 $64 forward $28 $-1 #
coedge $-1 $65 $30 $66 $67 forward $22 $-1 #
coedge $-1 $30 $68 $69 $70 forward $22 $-1 #
coedge $-1 $71 $72 $30 $46 reversed $73 $-1 #
edge $74 $75 -24.228801940625971 $76 25.771198059374065 $45 $77 forward 7 unknown #
model_id-kcp-attrib $-1 $-1 $-1 $32 1 990548704 120 1836580871 4 #
face $78 $79 $80 $17 $-1 $81 reversed single #
loop $-1 $-1 $82 $32 #
plane-surface $-1 0 0 -25.000000000000032 0 0 1 1 0 0 forward_v I I I I #
coedge $-1 $83 $84 $85 $86 forward $33 $-1 #
face $-1 $87 $88 $19 $-1 $89 reversed single #
loop $-1 $-1 $90 $35 #
plane-surface $-1 0 -2.2910434884707556 0 0 1 0 0 0 1 forward_v I I I I #
coedge $-1 $91 $92 $93 $94 reversed $36 $-1 #
model_id-kcp-attrib $-1 $95 $-1 $39 1 990548704 120 1836580870 12 #
face $96 $97 $98 $8 $-1 $99 reversed single #
loop $-1 $-1 $69 $39 #
plane-surface $-1 0 0 -25.000000000000018 0 0 1 1 0 0 forward_v I I I I #
coedge $-1 $100 $101 $65 $102 reversed $40 $-1 #
coedge $-1 $103 $42 $104 $105 forward $28 $-1 #
coedge $-1 $42 $103 $106 $107 forward $28 $-1 #
coedge $-1 $72 $71 $42 $64 reversed $73 $-1 #
edge $108 $109 -12.91692850672956 $110 37.083071493270481 $63 $111 forward 7 unknown #
coedge $-1 $68 $43 $60 $102 forward $22 $-1 #
coedge $-1 $112 $113 $43 $67 reversed $114 $-1 #
edge $115 $76 -30.308672623125293 $116 -15.991187518380261 $66 $117 forward 7 unknown #
coedge $-1 $44 $65 $118 $119 forward $22 $-1 #
coedge $-1 $120 $121 $44 $70 reversed $58 $-1 #
edge $122 $123 12.991187518380247 $75 30.308672623125279 $69 $124 forward 7 unknown #
coedge $-1 $63 $45 $121 $125 reversed $73 $-1 #
coedge $-1 $45 $63 $112 $126 reversed $73 $-1 #
loop $-1 $-1 $45 $97 #
attrib_edge_convexity-kcp-attrib $-1 $127 $-1 $46 1 #
vertex $-1 $46 $128 #
vertex $-1 $126 $129 #
straight-curve $-1 56.62299596564818 -15.788234561223305 -0.77119805937404629 1.3634949982774461e-016 -2.6656204546356429e-031 1 I I #
model_id-kcp-attrib $-1 $-1 $-1 $48 1 990548704 120 1836580871 2 #
face $-1 $130 $131 $17 $-1 $132 reversed single #
loop $-1 $-1 $133 $48 #
plane-surface $-1 0 -2.2910434884707556 0 0 1 0 0 0 1 forward_v I I I I #
coedge $-1 $134 $135 $136 $137 forward $49 $-1 #
coedge $-1 $138 $51 $139 $140 forward $33 $-1 #
coedge $-1 $51 $138 $141 $142 forward $33 $-1 #
coedge $-1 $143 $144 $51 $86 reversed $145 $-1 #
edge $-1 $146 -2.2910434884707556 $147 2.2910434884707556 $85 $148 forward 7 unknown #
face $-1 $149 $150 $19 $-1 $151 forward single #
loop $-1 $-1 $152 $52 #
plane-surface $-1 0 0 -25.000000000000032 0 0 1 1 0 0 forward_v I I I I #
coedge $-1 $153 $154 $92 $155 forward $53 $-1 #
coedge $-1 $156 $55 $157 $158 reversed $36 $-1 #
coedge $-1 $55 $156 $90 $155 reversed $36 $-1 #
coedge $-1 $159 $160 $55 $94 forward $150 $-1 #
edge $-1 $161 -9.5594061178008651 $162 -2.0098888530155317 $93 $163 forward 7 unknown #
model_id-kcp-attrib $-1 $-1 $56 $39 1 990548704 120 1836580870 5 #
model_id-kcp-attrib $-1 $-1 $-1 $57 1 990548704 120 1836580870 6 #
face $164 $165 $73 $8 $-1 $166 reversed single #
loop $-1 $-1 $118 $57 #
plane-surface $-1 42.305510860903169 -13.206147584281805 -21.999999999999989 0.70710678118654757 0 -0.70710678118654757 0 1 0 forward_v I I I I #
coedge $-1 $167 $60 $113 $168 reversed $40 $-1 #
coedge $-1 $60 $167 $169 $170 forward $40 $-1 #
edge $171 $116 -12.854269552644499 $172 34.145730447355504 $60 $173 forward 7 unknown #
coedge $-1 $62 $61 $174 $175 forward $28 $-1 #
coedge $-1 $121 $176 $61 $105 reversed $58 $-1 #
edge $177 $110 -6.6030737921409024 $178 -4.6030737921409006 $104 $179 forward 7 unknown #
coedge $-1 $180 $112 $62 $107 reversed $114 $-1 #
edge $181 $182 4.6030737921409006 $109 6.603073792140906 $106 $183 forward 7 unknown #
attrib_edge_convexity-kcp-attrib $-1 $184 $-1 $64 1 #
vertex $-1 $107 $185 #
vertex $-1 $125 $186 #
straight-curve $-1 63.717221629862777 -13.206147584281808 12.083071493270458 -1.3634949982774535e-016 0 -1 I I #
coedge $-1 $106 $66 $72 $126 forward $114 $-1 #
coedge $-1 $66 $187 $100 $168 forward $114 $-1 #
loop $-1 $-1 $66 $188 #
model_id-kcp-attrib $-1 $189 $-1 $67 1 990548704 120 1836580870 14 #
vertex $-1 $67 $190 #
straight-curve $-1 26.314323342522894 -15.788234561223307 25.000000000000018 -1 -3.0311339171115497e-030 0 I I #
coedge $-1 $169 $191 $68 $119 reversed $98 $-1 #
edge $192 $172 11.177447862189684 $123 15.420088549309007 $118 $193 forward 7 unknown #
coedge $-1 $176 $69 $191 $194 forward $58 $-1 #
coedge $-1 $69 $104 $71 $125 forward $58 $-1 #
attrib_edge_convexity-kcp-attrib $-1 $195 $-1 $70 1 #
vertex $-1 $194 $196 #
straight-curve $-1 26.314323342522894 -15.788234561223307 -25.000000000000018 1 3.0311339171115497e-030 0 I I #
edge $197 $110 -30.104087646085837 $75 -22.55457038130049 $121 $198 forward 7 unknown #
edge $199 $76 22.554570381300504 $109 30.104087646085837 $112 $200 forward 7 unknown #
convexity-sys-attrib $-1 $-1 $74 $46 #
point $-1 56.622995965648173 -15.788234561223305 -25.000000000000018 #
point $-1 56.622995965648187 -15.788234561223305 25.000000000000018 #
face $201 $202 $203 $17 $-1 $204 reversed single #
loop $-1 $-1 $205 $79 #
plane-surface $-1 -12.205855384479818 0 0 1 0 0 0 0 -1 forward_v I I I I #
coedge $-1 $206 $141 $207 $208 forward $80 $-1 #
coedge $-1 $209 $82 $206 $210 forward $49 $-1 #
coedge $-1 $82 $209 $211 $212 forward $49 $-1 #
coedge $-1 $144 $143 $82 $137 reversed $145 $-1 #
edge $-1 $213 -2.2910434884707556 $214 2.2910434884707556 $136 $215 forward 7 unknown #
coedge $-1 $84 $83 $216 $217 forward $33 $-1 #
coedge $-1 $218 $219 $83 $140 reversed $203 $-1 #
edge $-1 $147 -12.205855384479818 $220 12.205855384479818 $139 $221 forward 7 unknown #
coedge $-1 $133 $222 $84 $142 reversed $80 $-1 #
edge $-1 $223 -12.205855384479818 $146 12.205855384479818 $141 $224 forward 7 unknown #
coedge $-1 $136 $85 $222 $225 forward $145 $-1 #
coedge $-1 $85 $136 $218 $226 reversed $145 $-1 #
loop $-1 $-1 $143 $202 #
vertex $-1 $86 $227 #
vertex $-1 $86 $228 #
straight-curve $-1 12.205855384479818 0 25.000000000000032 0 1 0 I I #
face $-1 $-1 $229 $19 $-1 $230 reversed single #
loop $-1 $-1 $93 $87 #
plane-surface $-1 0 0 25.000000000000032 0 0 1 1 0 0 forward_v I I I I #
coedge $-1 $231 $232 $156 $233 forward $88 $-1 #
coedge $-1 $234 $90 $232 $235 reversed $53 $-1 #
coedge $-1 $90 $234 $159 $236 reversed $53 $-1 #
edge $-1 $162 -37.500000000000043 $237 12.50000000000002 $90 $238 forward 7 unknown #
coedge $-1 $92 $91 $152 $233 reversed $36 $-1 #
coedge $-1 $239 $240 $91 $158 forward $229 $-1 #
edge $-1 $241 -12.50000000000002 $161 37.500000000000043 $157 $242 forward 7 unknown #
coedge $-1 $160 $93 $154 $236 forward $150 $-1 #
coedge $-1 $93 $159 $239 $243 forward $150 $-1 #
vertex $-1 $158 $244 #
vertex $-1 $236 $245 #
straight-curve $-1 3.22295199648668 -2.9784659620477894 25.000000000000032 -0.93969262078590832 -0.34202014332566921 0 I I #
model_id-kcp-attrib $-1 $-1 $-1 $97 1 990548704 120 1836580870 7 #
face $246 $247 $248 $8 $-1 $249 reversed single #
plane-surface $-1 59.159392172590259 -14.865061839590687 -0.83385701345910068 -0.34202014332566927 0.93969262078590821 4.6634275473468781e-017 0 -4.962715939438408e-017 1 forward_v I I I I #
coedge $-1 $101 $100 $250 $251 reversed $40 $-1 #
edge $252 $253 4.8105328896251809 $116 9.1851607690824029 $113 $254 forward 7 unknown #
coedge $-1 $255 $118 $101 $170 reversed $98 $-1 #
edge $256 $257 -1.7925409025157464 $172 2.5820869769415005 $169 $258 forward 7 unknown #
attrib_edge_convexity-kcp-attrib $-1 $259 $-1 $102 1 #
vertex $-1 $102 $260 #
straight-curve $-1 42.305510860903155 -15.788234561223309 12.145730447355518 0 2.6656204546356468e-031 -1 I I #
coedge $-1 $261 $262 $103 $175 reversed $248 $-1 #
edge $263 $178 -38.250000000000043 $182 11.75 $174 $264 forward 7 unknown #
coedge $-1 $104 $120 $261 $265 reversed $58 $-1 #
attrib_edge_convexity-kcp-attrib $-1 $266 $-1 $105 1 #
vertex $-1 $265 $267 #
straight-curve $-1 63.717221629862777 -6.6030737921409042 -25.000000000000018 0 1 0 I I #
coedge $-1 $187 $106 $262 $268 reversed $114 $-1 #
model_id-kcp-attrib $-1 $269 $-1 $107 1 990548704 120 1836580870 13 #
vertex $-1 $175 $270 #
straight-curve $-1 63.717221629862777 -6.6030737921409042 25.000000000000018 0 -1 0 I I #
convexity-sys-attrib $-1 $-1 $108 $64 #
point $-1 63.717221629862777 -13.20614758428181 25.000000000000018 #
point $-1 63.717221629862777 -13.206147584281807 -25.000000000000025 #
coedge $-1 $113 $180 $271 $272 forward $114 $-1 #
face $273 $-1 $114 $8 $-1 $274 forward single #
attrib_edge_convexity-kcp-attrib $-1 $275 $115 $67 1 #
point $-1 42.305510860903155 -15.788234561223305 25.000000000000018 #
coedge $-1 $118 $276 $120 $194 reversed $98 $-1 #
model_id-kcp-attrib $-1 $277 $-1 $119 1 990548704 120 1836580870 15 #
straight-curve $-1 50.209160040616574 -15.788234561223309 -14.096350820286588 -0.70710678118654757 -1.954847517519876e-030 -0.70710678118654757 I I #
edge $278 $123 -9.1851607690824029 $279 -4.6030737921408988 $120 $280 forward 7 unknown #
convexity-sys-attrib $-1 $-1 $122 $70 #
point $-1 39.305510860903141 -15.788234561223305 -25.000000000000018 #
attrib_edge_convexity-kcp-attrib $-1 $281 $-1 $125 1 #
straight-curve $-1 35.428632613343694 -23.502351955684595 -25.000000000000021 -0.93969262078590821 -0.34202014332566927 0 I I #
attrib_edge_convexity-kcp-attrib $-1 $282 $-1 $126 1 #
straight-curve $-1 35.428632613343694 -23.502351955684595 25.000000000000018 0.93969262078590821 0.34202014332566927 0 I I #
model_id-kcp-attrib $-1 $-1 $-1 $130 1 990548704 120 1836580871 5 #
face $283 $-1 $145 $17 $-1 $284 reversed single #
loop $-1 $-1 $218 $130 #
plane-surface $-1 0 2.2910434884707556 0 0 -1 0 0 0 -1 forward_v I I I I #
coedge $-1 $285 $216 $219 $286 forward $131 $-1 #
coedge $-1 $222 $133 $134 $210 reversed $80 $-1 #
coedge $-1 $216 $285 $133 $208 reversed $131 $-1 #
edge $-1 $223 -25.000000000000032 $287 25.000000000000032 $207 $288 forward 7 unknown #
coedge $-1 $135 $134 $285 $289 forward $49 $-1 #
edge $-1 $214 -12.205855384479818 $287 12.205855384479818 $206 $290 forward 7 unknown #
coedge $-1 $219 $218 $135 $212 reversed $203 $-1 #
edge $-1 $291 -12.205855384479818 $213 12.205855384479818 $211 $292 forward 7 unknown #
vertex $-1 $137 $293 #
vertex $-1 $225 $294 #
straight-curve $-1 12.205855384479818 0 -25.000000000000032 0 -1 0 I I #
coedge $-1 $205 $207 $138 $217 reversed $131 $-1 #
edge $-1 $220 -2.2910434884707556 $223 2.2910434884707556 $216 $295 forward 7 unknown #
coedge $-1 $211 $139 $144 $226 forward $203 $-1 #
coedge $-1 $139 $211 $205 $286 reversed $203 $-1 #
vertex $-1 $140 $296 #
straight-curve $-1 0 2.2910434884707556 25.000000000000032 -1 0 0 I I #
coedge $-1 $141 $206 $143 $225 reversed $80 $-1 #
vertex $-1 $217 $297 #
straight-curve $-1 0 -2.2910434884707556 25.000000000000032 1 0 0 I I #
edge $-1 $146 -25.000000000000032 $214 25.000000000000032 $143 $298 forward 7 unknown #
edge $-1 $147 -25.000000000000032 $213 25.000000000000032 $144 $299 forward 7 unknown #
point $-1 12.205855384479818 -2.2910434884707556 25.000000000000032 #
point $-1 12.205855384479818 2.2910434884707556 25.000000000000032 #
loop $-1 $-1 $157 $149 #
plane-surface $-1 12.205855384479818 0 0 -1 0 0 0 0 1 forward_v I I I I #
coedge $-1 $232 $152 $240 $300 forward $88 $-1 #
coedge $-1 $152 $231 $153 $235 forward $88 $-1 #
edge $-1 $237 2.0098888530155317 $241 9.5594061178008651 $152 $301 forward 7 unknown #
coedge $-1 $154 $153 $302 $303 reversed $53 $-1 #
edge $-1 $304 -12.205855384479818 $237 -5.1116297202652277 $153 $305 forward 7 unknown #
edge $-1 $162 5.1116297202652277 $306 12.205855384479818 $154 $307 forward 7 unknown #
vertex $-1 $233 $308 #
straight-curve $-1 5.1116297202652179 -2.2910434884707556 -12.500000000000012 0 0 -1 I I #
coedge $-1 $302 $157 $160 $243 reversed $229 $-1 #
coedge $-1 $157 $302 $231 $300 reversed $229 $-1 #
vertex $-1 $300 $309 #
straight-curve $-1 12.205855384479818 0.29104348847074157 -12.500000000000012 0 0 1 I I #
edge $-1 $306 -2.2910434884707556 $161 0.2910434884707449 $239 $310 forward 7 unknown #
point $-1 12.205855384479818 0.2910434884707449 25.000000000000032 #
point $-1 5.1116297202652277 -2.291043488470752 25.000000000000032 #
model_id-kcp-attrib $-1 $-1 $-1 $165 1 990548704 120 1836580870 8 #
face $311 $312 $313 $8 $-1 $314 reversed single #
loop $-1 $-1 $174 $165 #
plane-surface $-1 56.202351588331695 -11.206147584281808 1.5000000000000178 0 -1 0 1 0 0 forward_v I I I I #
coedge $-1 $271 $315 $167 $251 forward $316 $-1 #
edge $317 $257 -22.000000000000014 $253 25.000000000000021 $250 $318 forward 7 unknown #
attrib_edge_convexity-kcp-attrib $-1 $319 $-1 $168 1 #
vertex $-1 $251 $320 #
straight-curve $-1 42.305510860903155 -6.6030737921409024 25.000000000000018 0 -1 0 I I #
coedge $-1 $276 $169 $321 $322 reversed $98 $-1 #
attrib_edge_convexity-kcp-attrib $-1 $323 $-1 $170 2 #
vertex $-1 $322 $324 #
straight-curve $-1 42.305510860903169 -13.206147584281805 -21.999999999999989 0 -1 0 I I #
convexity-sys-attrib $-1 $-1 $171 $102 #
point $-1 42.305510860903169 -15.788234561223305 -21.999999999999989 #
coedge $-1 $325 $174 $176 $265 forward $248 $-1 #
coedge $-1 $174 $326 $180 $268 forward $248 $-1 #
attrib_edge_convexity-kcp-attrib $-1 $327 $-1 $175 1 #
straight-curve $-1 63.717221629862777 -11.206147584281808 13.250000000000018 1.3634949982774535e-016 0 1 I I #
edge $328 $178 -35.61604583569693 $279 -11.204335066737308 $176 $329 forward 7 unknown #
convexity-sys-attrib $-1 $-1 $177 $105 #
point $-1 63.717221629862777 -11.206147584281805 -25.000000000000025 #
edge $330 $331 15.091350913725499 $182 35.61604583569693 $180 $332 forward 7 unknown #
attrib_edge_convexity-kcp-attrib $-1 $333 $181 $107 1 #
point $-1 63.717221629862777 -11.206147584281805 25.000000000000018 #
coedge $-1 $334 $250 $187 $272 reversed $316 $-1 #
edge $-1 $331 -0.95993108859688403 $253 -0.50042227626246238 $187 $335 forward 7 unknown #
model_id-kcp-attrib $-1 $-1 $-1 $188 1 990548704 120 1836580870 11 #
plane-surface $-1 0 0 25.000000000000018 0 0 1 1 0 0 forward_v I I I I #
convexity-sys-attrib $-1 $-1 $189 $67 #
coedge $-1 $191 $255 $325 $336 reversed $98 $-1 #
attrib_edge_convexity-kcp-attrib $-1 $337 $192 $119 1 #
model_id-kcp-attrib $-1 $338 $-1 $194 1 990548704 120 1836580870 16 #
vertex $-1 $336 $339 #
straight-curve $-1 39.305510860903141 -6.6030737921409024 -25.000000000000018 0 1 0 I I #
convexity-sys-attrib $-1 $-1 $197 $125 #
convexity-sys-attrib $-1 $-1 $199 $126 #
model_id-kcp-attrib $-1 $-1 $-1 $202 1 990548704 120 1836580871 3 #
plane-surface $-1 12.205855384479818 0 0 -1 0 0 0 0 1 forward_v I I I I #
coedge $-1 $207 $205 $209 $289 reversed $131 $-1 #
edge $-1 $220 -25.000000000000032 $291 25.000000000000032 $219 $340 forward 7 unknown #
vertex $-1 $289 $341 #
straight-curve $-1 -12.205855384479818 -2.2910434884707556 0 0 0 -1 I I #
edge $-1 $287 -2.2910434884707556 $291 2.2910434884707556 $285 $342 forward 7 unknown #
straight-curve $-1 0 -2.2910434884707556 -25.000000000000032 -1 0 0 I I #
vertex $-1 $212 $343 #
straight-curve $-1 0 2.2910434884707556 -25.000000000000032 1 0 0 I I #
point $-1 12.205855384479818 2.2910434884707556 -25.000000000000032 #
point $-1 12.205855384479818 -2.2910434884707556 -25.000000000000032 #
straight-curve $-1 -12.205855384479818 0 25.000000000000032 0 -1 0 I I #
point $-1 -12.205855384479818 2.2910434884707556 25.000000000000032 #
point $-1 -12.205855384479818 -2.2910434884707556 25.000000000000032 #
straight-curve $-1 12.205855384479818 -2.2910434884707556 0 0 0 -1 I I #
straight-curve $-1 12.205855384479818 2.2910434884707556 0 0 0 -1 I I #
edge $-1 $241 -0.2910434884707449 $304 2.2910434884707556 $240 $344 forward 7 unknown #
straight-curve $-1 3.22295199648668 -2.9784659620477894 -25.000000000000032 0.93969262078590832 0.34202014332566921 0 I I #
coedge $-1 $240 $239 $234 $303 forward $229 $-1 #
edge $-1 $306 -25.000000000000032 $304 25.000000000000032 $302 $345 forward 7 unknown #
vertex $-1 $303 $346 #
straight-curve $-1 0 -2.2910434884707556 -25.000000000000032 -1 0 0 I I #
vertex $-1 $243 $347 #
straight-curve $-1 0 -2.2910434884707556 25.000000000000032 1 0 0 I I #
point $-1 5.1116297202652277 -2.291043488470752 -25.000000000000032 #
point $-1 12.205855384479818 0.2910434884707449 -25.000000000000032 #
straight-curve $-1 12.205855384479818 0 25.000000000000032 0 1 0 I I #
model_id-kcp-attrib $-1 $-1 $-1 $247 1 990548704 120 1836580870 9 #
face $348 $188 $316 $8 $-1 $349 reversed single #
loop $-1 $-1 $321 $247 #
cone-surface $-1 43.192526707891346 -13.206147584281801 -23.499999999999982 0 0 1 -2.8670321550114801 2.0075175272286598 0 1 I I 0.70710678118654702 -0.70710678118654802 3.5000000000000067 forward I I I I #
coedge $-1 $250 $334 $350 $351 forward $316 $-1 #
loop $-1 $-1 $250 $312 #
attrib_edge_convexity-kcp-attrib $-1 $352 $-1 $251 1 #
straight-curve $-1 42.305510860903155 -11.41360668176609 1.7763568394002505e-014 0 0 1 I I #
convexity-sys-attrib $-1 $-1 $252 $168 #
point $-1 42.305510860903183 -11.413606681766083 25.000000000000039 #
coedge $-1 $350 $353 $255 $322 forward $313 $-1 #
edge $354 $355 3.7729464957312153 $257 4.4565474350800596 $321 $356 forward 7 unknown #
convexity-sys-attrib $-1 $-1 $256 $170 #
point $-1 42.305510860903198 -11.413606681766058 -21.999999999999996 #
coedge $-1 $357 $261 $276 $336 forward $248 $-1 #
coedge $-1 $262 $357 $334 $358 reversed $248 $-1 #
convexity-sys-attrib $-1 $-1 $263 $175 #
attrib_edge_convexity-kcp-attrib $-1 $359 $-1 $265 1 #
straight-curve $-1 28.101175794165847 -11.206147584281808 -25.000000000000018 -1 0 0 I I #
model_id-kcp-attrib $-1 $360 $-1 $268 1 990548704 120 1836580870 19 #
vertex $-1 $268 $361 #
straight-curve $-1 28.101175794165847 -11.206147584281808 25.000000000000018 1 0 0 I I #
convexity-sys-attrib $-1 $-1 $269 $107 #
coedge $-1 $315 $271 $326 $358 forward $316 $-1 #
ellipse-curve $-1 43.192526707891346 -13.206147584281801 25.000000000000018 0 0 1 -1.63830408857799 1.1471528727020901 0 1 I I #
edge $362 $279 -17.46442052377828 $355 -13.721651800135753 $325 $363 forward 7 unknown #
convexity-sys-attrib $-1 $-1 $277 $119 #
attrib_edge_convexity-kcp-attrib $-1 $364 $278 $194 1 #
point $-1 39.305510860903155 -11.206147584281801 -24.999999999999989 #
straight-curve $-1 -12.205855384479818 2.2910434884707556 0 0 0 -1 I I #
point $-1 -12.205855384479818 -2.2910434884707556 -25.000000000000032 #
straight-curve $-1 -12.205855384479818 0 -25.000000000000032 0 1 0 I I #
point $-1 -12.205855384479818 2.2910434884707556 -25.000000000000032 #
straight-curve $-1 12.205855384479818 0 -25.000000000000032 0 -1 0 I I #
straight-curve $-1 12.205855384479818 -2.2910434884707556 0 0 0 -1 I I #
point $-1 12.205855384479818 -2.2910434884707556 -25.000000000000032 #
point $-1 12.205855384479818 -2.2910434884707556 25.000000000000032 #
model_id-kcp-attrib $-1 $-1 $-1 $312 1 990548704 120 1836580870 10 #
cone-surface $-1 43.192526707891346 -13.206147584281801 1.7763568394002505e-014 0 0 1 -1.63830408857799 1.1471528727020901 0 1 I I 0 -1 2.000000000000004 forward I I I I #
coedge $-1 $353 $321 $315 $351 reversed $313 $-1 #
edge $365 $366 -0.95993108859688403 $257 -0.50042227626247426 $315 $367 forward 7 unknown #
convexity-sys-attrib $-1 $-1 $317 $251 #
coedge $-1 $321 $350 $357 $368 reversed $313 $-1 #
attrib_edge_convexity-kcp-attrib $-1 $369 $-1 $322 1 #
vertex $-1 $368 $370 #
intcurve-curve $-1 forward { exactcur full nurbs 2 open 2 
	3.7729464957312153 2 4.4565474350800596 2 
	41.952048005803732 -11.206147584281801 -22.353462855099462 1 
	42.138446973770016 -11.309877133023944 -22.167063887133143 1 
	42.305510860903176 -11.413606681766074 -21.999999999999982 1 
	0 
	null_surface 
	null_surface 
	nullbs 
	nullbs 
	I I 
	0 
	0 
	0 
	F 1 F 0 } I I #
coedge $-1 $326 $325 $353 $368 forward $248 $-1 #
edge $371 $331 -25 $366 22 $326 $372 forward 7 unknown #
convexity-sys-attrib $-1 $-1 $328 $265 #
convexity-sys-attrib $-1 $-1 $330 $268 #
point $-1 43.192526707891346 -11.206147584281801 25.000000000000018 #
attrib_edge_convexity-kcp-attrib $-1 $373 $-1 $336 1 #
straight-curve $-1 51.654721042760301 -11.206147584281808 -12.650789818142856 0.70710678118654757 0 0.70710678118654757 I I #
convexity-sys-attrib $-1 $-1 $338 $194 #
convexity-sys-attrib $-1 $-1 $-1 $351 #
vertex $-1 $368 $374 #
ellipse-curve $-1 43.192526707891346 -13.206147584281801 -21.999999999999982 0 0 1 -1.63830408857799 1.1471528727020901 0 1 I I #
edge $375 $355 3.5040649910444945 $366 5.5455344919741938 $357 $376 forward 7 unknown #
convexity-sys-attrib $-1 $-1 $354 $322 #
point $-1 41.952048005803732 -11.206147584281801 -22.353462855099462 #
convexity-sys-attrib $-1 $-1 $-1 $358 #
straight-curve $-1 43.192526707891346 -11.206147584281808 1.7763568394002505e-014 0 0 -1 I I #
model_id-kcp-attrib $-1 $377 $362 $336 1 990548704 120 1836580870 17 #
point $-1 43.192526707891346 -11.206147584281801 -21.999999999999982 #
model_id-kcp-attrib $-1 $378 $-1 $368 1 990548704 120 1836580870 18 #
intcurve-curve $-1 forward { exactcur full nurbs 2 open 2 
	3.5040649910444945 2 5.5455344919741938 2 
	41.952048005803732 -11.206147584281801 -22.353462855099462 1.1502081590749493 
	42.622645331444389 -11.206147584281805 -21.999999999999979 1.1188597427922964 
	43.192526707891346 -11.206147584281801 -21.999999999999982 1 
	0 
	null_surface 
	null_surface 
	nullbs 
	nullbs 
	I I 
	0 
	0 
	0 
	F 1 F 0 } I I #
convexity-sys-attrib $-1 $-1 $373 $336 #
convexity-sys-attrib $-1 $-1 $375 $368 #
End-of-ACIS-data 