600 0 1 0           
24 FBMach with ACIS - 6.0.3 13 ACIS 6.0.3 NT 24 Fri May 04 23:23:56 2001 
1 9.9999999999999995e-007 1e-010 
body $1 $2 $-1 $3 #
rgb_color-st-attrib $-1 $4 $-1 $0 1 0.5 1 #
lump $-1 $-1 $5 $0 #
transform $-1 1 0 0 0 1 0 0 0 1 18.791764957374554 -3.7938524157181988 19.999999999999982 1 no_rotate no_reflect no_shear #
model_id-kcp-attrib $-1 $-1 $1 $0 1 989031559 1334312 2049441797 1 #
shell $-1 $-1 $-1 $6 $-1 $2 #
face $-1 $7 $8 $5 $-1 $9 reversed single #
face $-1 $10 $11 $5 $-1 $12 forward single #
loop $-1 $-1 $13 $6 #
plane-surface $-1 52.628646685045787 -15.788234561223307 -0.70853910528899178 -3.0311339171115497e-030 1 2.6656204546356468e-031 0 -2.6656204546356468e-031 1 forward_v I I I I #
face $-1 $14 $15 $5 $-1 $16 reversed single #
loop $-1 $-1 $17 $7 #
plane-surface $-1 63.717221629862777 -13.206147584281808 25.000000000000018 1 0 -1.3634949982774535e-016 -1.3634949982774535e-016 0 -1 forward_v I I I I #
coedge $-1 $18 $19 $20 $21 forward $8 $-1 #
face $-1 $22 $23 $5 $-1 $24 reversed single #
loop $-1 $-1 $25 $10 #
plane-surface $-1 42.305510860903155 -13.206147584281805 25.000000000000028 1 0 0 0 1 0 forward_v I I I I #
coedge $-1 $26 $27 $28 $29 forward $11 $-1 #
coedge $-1 $30 $13 $31 $32 forward $8 $-1 #
coedge $-1 $13 $33 $34 $35 forward $8 $-1 #
coedge $-1 $36 $37 $13 $21 reversed $38 $-1 #
edge $-1 $39 -24.228801940625971 $40 25.771198059374065 $20 $41 forward 7 unknown #
face $-1 $42 $43 $5 $-1 $44 reversed single #
loop $-1 $-1 $34 $14 #
plane-surface $-1 0 0 -25.000000000000018 0 0 1 1 0 0 forward_v I I I I #
coedge $-1 $45 $46 $30 $47 reversed $15 $-1 #
coedge $-1 $48 $17 $49 $50 forward $11 $-1 #
coedge $-1 $17 $48 $51 $52 forward $11 $-1 #
coedge $-1 $37 $36 $17 $29 reversed $38 $-1 #
edge $-1 $53 -12.91692850672956 $54 37.083071493270481 $28 $55 forward 7 unknown #
coedge $-1 $33 $18 $25 $47 forward $8 $-1 #
coedge $-1 $56 $57 $18 $32 reversed $58 $-1 #
edge $-1 $40 -30.308672623125293 $59 -15.991187518380261 $31 $60 forward 7 unknown #
coedge $-1 $19 $30 $61 $62 forward $8 $-1 #
coedge $-1 $63 $64 $19 $35 reversed $23 $-1 #
edge $-1 $65 12.991187518380247 $39 30.308672623125279 $34 $66 forward 7 unknown #
coedge $-1 $28 $20 $64 $67 reversed $38 $-1 #
coedge $-1 $20 $28 $56 $68 reversed $38 $-1 #
loop $-1 $-1 $20 $42 #
vertex $-1 $21 $69 #
vertex $-1 $68 $70 #
straight-curve $-1 56.62299596564818 -15.788234561223305 -0.77119805937404629 1.3634949982774461e-016 -2.6656204546356429e-031 1 I I #
face $-1 $71 $38 $5 $-1 $72 reversed single #
loop $-1 $-1 $61 $22 #
plane-surface $-1 42.305510860903169 -13.206147584281805 -21.999999999999989 0.70710678118654757 0 -0.70710678118654757 0 1 0 forward_v I I I I #
coedge $-1 $73 $25 $57 $74 reversed $15 $-1 #
coedge $-1 $25 $73 $75 $76 forward $15 $-1 #
edge $-1 $59 -12.854269552644499 $77 34.145730447355504 $25 $78 forward 7 unknown #
coedge $-1 $27 $26 $79 $80 forward $11 $-1 #
coedge $-1 $64 $81 $26 $50 reversed $23 $-1 #
edge $-1 $54 -6.6030737921409024 $82 -4.6030737921409006 $49 $83 forward 7 unknown #
coedge $-1 $84 $56 $27 $52 reversed $58 $-1 #
edge $-1 $85 4.6030737921409006 $53 6.603073792140906 $51 $86 forward 7 unknown #
vertex $-1 $52 $87 #
vertex $-1 $67 $88 #
straight-curve $-1 63.717221629862777 -13.206147584281808 12.083071493270458 -1.3634949982774535e-016 0 -1 I I #
coedge $-1 $51 $31 $37 $68 forward $58 $-1 #
coedge $-1 $31 $89 $45 $74 forward $58 $-1 #
loop $-1 $-1 $31 $90 #
vertex $-1 $32 $91 #
straight-curve $-1 26.314323342522894 -15.788234561223307 25.000000000000018 -1 -3.0311339171115497e-030 0 I I #
coedge $-1 $75 $92 $33 $62 reversed $43 $-1 #
edge $-1 $77 11.177447862189684 $65 15.420088549309007 $61 $93 forward 7 unknown #
coedge $-1 $81 $34 $92 $94 forward $23 $-1 #
coedge $-1 $34 $49 $36 $67 forward $23 $-1 #
vertex $-1 $94 $95 #
straight-curve $-1 26.314323342522894 -15.788234561223307 -25.000000000000018 1 3.0311339171115497e-030 0 I I #
edge $-1 $54 -30.104087646085837 $39 -22.55457038130049 $64 $96 forward 7 unknown #
edge $-1 $40 22.554570381300504 $53 30.104087646085837 $56 $97 forward 7 unknown #
point $-1 56.622995965648173 -15.788234561223305 -25.000000000000018 #
point $-1 56.622995965648187 -15.788234561223305 25.000000000000018 #
face $-1 $98 $99 $5 $-1 $100 reversed single #
plane-surface $-1 59.159392172590259 -14.865061839590687 -0.83385701345910068 -0.34202014332566927 0.93969262078590821 4.6634275473468781e-017 0 -4.962715939438408e-017 1 forward_v I I I I #
coedge $-1 $46 $45 $101 $102 reversed $15 $-1 #
edge $-1 $103 4.8105328896251809 $59 9.1851607690824029 $57 $104 forward 7 unknown #
coedge $-1 $105 $61 $46 $76 reversed $43 $-1 #
edge $-1 $106 -1.7925409025157464 $77 2.5820869769415005 $75 $107 forward 7 unknown #
vertex $-1 $47 $108 #
straight-curve $-1 42.305510860903155 -15.788234561223309 12.145730447355518 0 2.6656204546356468e-031 -1 I I #
coedge $-1 $109 $110 $48 $80 reversed $99 $-1 #
edge $111 $82 -38.250000000000043 $85 11.75 $79 $112 forward 7 unknown #
coedge $-1 $49 $63 $109 $113 reversed $23 $-1 #
vertex $-1 $113 $114 #
straight-curve $-1 63.717221629862777 -6.6030737921409042 -25.000000000000018 0 1 0 I I #
coedge $-1 $89 $51 $110 $115 reversed $58 $-1 #
vertex $-1 $80 $116 #
straight-curve $-1 63.717221629862777 -6.6030737921409042 25.000000000000018 0 -1 0 I I #
point $-1 63.717221629862777 -13.20614758428181 25.000000000000018 #
point $-1 63.717221629862777 -13.206147584281807 -25.000000000000025 #
coedge $-1 $57 $84 $117 $118 forward $58 $-1 #
face $-1 $-1 $58 $5 $-1 $119 forward single #
point $-1 42.305510860903155 -15.788234561223305 25.000000000000018 #
coedge $-1 $61 $120 $63 $94 reversed $43 $-1 #
straight-curve $-1 50.209160040616574 -15.788234561223309 -14.096350820286588 -0.70710678118654757 -1.954847517519876e-030 -0.70710678118654757 I I #
edge $-1 $65 -9.1851607690824029 $121 -4.6030737921408988 $63 $122 forward 7 unknown #
point $-1 39.305510860903141 -15.788234561223305 -25.000000000000018 #
straight-curve $-1 35.428632613343694 -23.502351955684595 -25.000000000000021 -0.93969262078590821 -0.34202014332566927 0 I I #
straight-curve $-1 35.428632613343694 -23.502351955684595 25.000000000000018 0.93969262078590821 0.34202014332566927 0 I I #
face $-1 $123 $124 $5 $-1 $125 reversed single #
loop $-1 $-1 $79 $71 #
plane-surface $-1 56.202351588331695 -11.206147584281808 1.5000000000000178 0 -1 0 1 0 0 forward_v I I I I #
coedge $-1 $117 $126 $73 $102 forward $127 $-1 #
edge $-1 $106 -22.000000000000014 $103 25.000000000000021 $101 $128 forward 7 unknown #
vertex $-1 $102 $129 #
straight-curve $-1 42.305510860903155 -6.6030737921409024 25.000000000000018 0 -1 0 I I #
coedge $-1 $120 $75 $130 $131 reversed $43 $-1 #
vertex $-1 $131 $132 #
straight-curve $-1 42.305510860903169 -13.206147584281805 -21.999999999999989 0 -1 0 I I #
point $-1 42.305510860903169 -15.788234561223305 -21.999999999999989 #
coedge $-1 $133 $79 $81 $113 forward $99 $-1 #
coedge $-1 $79 $134 $84 $115 forward $99 $-1 #
convexity-sys-attrib $-1 $-1 $-1 $80 #
straight-curve $-1 63.717221629862777 -11.206147584281808 13.250000000000018 1.3634949982774535e-016 0 1 I I #
edge $135 $82 -35.61604583569693 $121 -11.204335066737308 $81 $136 forward 7 unknown #
point $-1 63.717221629862777 -11.206147584281805 -25.000000000000025 #
edge $137 $138 15.091350913725499 $85 35.61604583569693 $84 $139 forward 7 unknown #
point $-1 63.717221629862777 -11.206147584281805 25.000000000000018 #
coedge $-1 $140 $101 $89 $118 reversed $127 $-1 #
edge $-1 $138 -0.95993108859688403 $103 -0.50042227626246238 $89 $141 forward 7 unknown #
plane-surface $-1 0 0 25.000000000000018 0 0 1 1 0 0 forward_v I I I I #
coedge $-1 $92 $105 $133 $142 reversed $43 $-1 #
vertex $-1 $142 $143 #
straight-curve $-1 39.305510860903141 -6.6030737921409024 -25.000000000000018 0 1 0 I I #
face $-1 $90 $127 $5 $-1 $144 reversed single #
loop $-1 $-1 $130 $98 #
cone-surface $-1 43.192526707891346 -13.206147584281801 -23.499999999999982 0 0 1 -2.8670321550114801 2.0075175272286598 0 1 I I 0.70710678118654702 -0.70710678118654802 3.5000000000000067 forward I I I I #
coedge $-1 $101 $140 $145 $146 forward $127 $-1 #
loop $-1 $-1 $101 $123 #
straight-curve $-1 42.305510860903155 -11.41360668176609 1.7763568394002505e-014 0 0 1 I I #
point $-1 42.305510860903183 -11.413606681766083 25.000000000000039 #
coedge $-1 $145 $147 $105 $131 forward $124 $-1 #
edge $-1 $148 3.7729464957312153 $106 4.4565474350800596 $130 $149 forward 7 unknown #
point $-1 42.305510860903198 -11.413606681766058 -21.999999999999996 #
coedge $-1 $150 $109 $120 $142 forward $99 $-1 #
coedge $-1 $110 $150 $140 $151 reversed $99 $-1 #
convexity-sys-attrib $-1 $-1 $-1 $113 #
straight-curve $-1 28.101175794165847 -11.206147584281808 -25.000000000000018 -1 0 0 I I #
convexity-sys-attrib $-1 $-1 $-1 $115 #
vertex $-1 $115 $152 #
straight-curve $-1 28.101175794165847 -11.206147584281808 25.000000000000018 1 0 0 I I #
coedge $-1 $126 $117 $134 $151 forward $127 $-1 #
ellipse-curve $-1 43.192526707891346 -13.206147584281801 25.000000000000018 0 0 1 -1.63830408857799 1.1471528727020901 0 1 I I #
edge $153 $121 -17.46442052377828 $148 -13.721651800135753 $133 $154 forward 7 unknown #
point $-1 39.305510860903155 -11.206147584281801 -24.999999999999989 #
cone-surface $-1 43.192526707891346 -13.206147584281801 1.7763568394002505e-014 0 0 1 -1.63830408857799 1.1471528727020901 0 1 I I 0 -1 2.000000000000004 forward I I I I #
coedge $-1 $147 $130 $126 $146 reversed $124 $-1 #
edge $155 $156 -0.95993108859688403 $106 -0.50042227626247426 $126 $157 forward 7 unknown #
coedge $-1 $130 $145 $150 $158 reversed $124 $-1 #
vertex $-1 $158 $159 #
intcurve-curve $-1 forward { exactcur full nurbs 2 open 2 
	3.7729464957312153 2 4.4565474350800596 2 
	41.952048005803732 -11.206147584281801 -22.353462855099462 1 
	42.138446973770016 -11.309877133023944 -22.167063887133143 1 
	42.305510860903176 -11.413606681766074 -21.999999999999982 1 
	0 
	null_surface 
	null_surface 
	nullbs 
	nullbs 
	I I 
	0 
	0 
	0 
	F 1 F 0 } I I #
coedge $-1 $134 $133 $147 $158 forward $99 $-1 #
edge $160 $138 -25 $156 22 $134 $161 forward 7 unknown #
point $-1 43.192526707891346 -11.206147584281801 25.000000000000018 #
convexity-sys-attrib $-1 $-1 $-1 $142 #
straight-curve $-1 51.654721042760301 -11.206147584281808 -12.650789818142856 0.70710678118654757 0 0.70710678118654757 I I #
convexity-sys-attrib $-1 $-1 $-1 $146 #
vertex $-1 $158 $162 #
ellipse-curve $-1 43.192526707891346 -13.206147584281801 -21.999999999999982 0 0 1 -1.63830408857799 1.1471528727020901 0 1 I I #
edge $163 $148 3.5040649910444945 $156 5.5455344919741938 $150 $164 forward 7 unknown #
point $-1 41.952048005803732 -11.206147584281801 -22.353462855099462 #
convexity-sys-attrib $-1 $-1 $-1 $151 #
straight-curve $-1 43.192526707891346 -11.206147584281808 1.7763568394002505e-014 0 0 -1 I I #
point $-1 43.192526707891346 -11.206147584281801 -21.999999999999982 #
convexity-sys-attrib $-1 $-1 $-1 $158 #
intcurve-curve $-1 forward { exactcur full nurbs 2 open 2 
	3.5040649910444945 2 5.5455344919741938 2 
	41.952048005803732 -11.206147584281801 -22.353462855099462 1.1502081590749493 
	42.622645331444389 -11.206147584281805 -21.999999999999979 1.1188597427922964 
	43.192526707891346 -11.206147584281801 -21.999999999999982 1 
	0 
	null_surface 
	null_surface 
	nullbs 
	nullbs 
	I I 
	0 
	0 
	0 
	F 1 F 0 } I I #
End-of-ACIS-data 