#define _width 276
#define _height 236
static char _bits[] = {
 0x00,0x00,0x00,0x00,0x00,0x00,0x00,0x00,0x00,0x00,0x00,0x00,0x00,0x00,0x00,
 0x00,0x00,0x00,0x00,0x03,0x00,0x00,0x00,0x00,0x00,0x00,0x00,0x00,0x00,0x00,
 0x00,0x00,0x00,0x00,0x00,0x00,0x00,0x00,0x00,0x00,0x00,0x00,0x00,0x00,0x00,
 0x00,0x00,0x00,0x00,0x00,0x00,0x00,0x00,0xc0,0x1c,0x00,0x00,0x00,0x00,0x00,
 0x00,0x00,0x00,0x00,0x00,0x00,0x00,0x00,0x00,0x00,0x00,0x00,0x00,0x00,0x00,
 0x00,0x00,0x00,0x00,0x00,0x00,0x00,0x00,0x00,0x00,0x00,0x00,0x00,0xc0,0x1c,
 0x00,0x00,0x00,0x00,0x00,0x00,0x00,0x00,0x00,0x00,0x00,0x00,0x00,0x00,0x00,
 0x00,0x00,0x00,0x00,0x00,0x00,0x00,0x00,0x00,0x00,0x00,0x00,0x00,0x00,0x00,
 0x00,0x00,0x00,0x38,0xe0,0x00,0x00,0x00,0x00,0x00,0x00,0x00,0x00,0x00,0x00,
 0x00,0x00,0x00,0x00,0x00,0x00,0x00,0x00,0x00,0x00,0x00,0x00,0x00,0x00,0x00,
 0x00,0x00,0x00,0x00,0x00,0x00,0x00,0x00,0x07,0x00,0x03,0x00,0x00,0x00,0x00,
 0x00,0x00,0x00,0x00,0x00,0x00,0x00,0x00,0x00,0x00,0x00,0x00,0x00,0x00,0x00,
 0x00,0x00,0x00,0x00,0x00,0x00,0x00,0x00,0x00,0x00,0x00,0x00,0x00,0x07,0x00,
 0x03,0x00,0x00,0x00,0x00,0x00,0x00,0x00,0x00,0x00,0x00,0x00,0x00,0x00,0x00,
 0x00,0x00,0x00,0x00,0x00,0x00,0x00,0x00,0x00,0x00,0x00,0x00,0x00,0x00,0x00,
 0x00,0x00,0xc0,0x00,0x00,0x0c,0x00,0x00,0x00,0x00,0x00,0x00,0x00,0x00,0x00,
 0x00,0x00,0x00,0x00,0x00,0x00,0x00,0x00,0x00,0x00,0x00,0x00,0x00,0x00,0x00,
 0x00,0x00,0x00,0x00,0x00,0x00,0x00,0xc0,0x07,0x00,0x70,0x00,0x00,0x00,0x00,
 0x00,0x00,0x00,0x00,0x00,0x00,0x00,0x00,0x00,0x00,0x00,0x00,0x00,0x00,0x00,
 0x00,0x00,0x00,0x00,0x00,0x00,0x00,0x00,0x00,0x00,0x00,0x00,0xc0,0x38,0x00,
 0x80,0x03,0x00,0x00,0x00,0x00,0x00,0x00,0x00,0x00,0x00,0x00,0x00,0x00,0x00,
 0x00,0x00,0x00,0x00,0x00,0x00,0x00,0x00,0x00,0x00,0x00,0x00,0x00,0x00,0x00,
 0x00,0x00,0xc0,0x38,0x00,0x80,0x03,0x00,0x00,0x00,0x00,0x00,0x00,0x00,0x00,
 0x00,0x00,0x00,0x00,0x00,0x00,0x00,0x00,0x00,0x00,0x00,0x00,0x00,0x00,0x00,
 0x00,0x00,0x00,0x00,0x00,0x00,0x40,0xc0,0xc0,0x00,0x00,0x1c,0x00,0x00,0x00,
 0x00,0x00,0x00,0x00,0x00,0x00,0x00,0x00,0x00,0x00,0x00,0x00,0x00,0x00,0x00,
 0x00,0x00,0x00,0x00,0x00,0x00,0x00,0x00,0x00,0x00,0x00,0xb8,0xc3,0x00,0x07,
 0x00,0x20,0x00,0x00,0x00,0x00,0x00,0x00,0x00,0x00,0x00,0x00,0x00,0x00,0x00,
 0x00,0x00,0x00,0x00,0x00,0x00,0x00,0x00,0x00,0x00,0x00,0x00,0x00,0x00,0x00,
 0x00,0xb8,0xc3,0x00,0x07,0x00,0x20,0x00,0x00,0x00,0x00,0x00,0x00,0x00,0x00,
 0x00,0x00,0x00,0x00,0x00,0x00,0x00,0x00,0x00,0x00,0x00,0x00,0x00,0x00,0x00,
 0x00,0x00,0x00,0x00,0x00,0x00,0x07,0xdc,0x00,0x18,0x00,0xc0,0x01,0x00,0x00,
 0x00,0x00,0x00,0x00,0x00,0x00,0x00,0x00,0x00,0x00,0x00,0x00,0x00,0x00,0x00,
 0x00,0x00,0x00,0x00,0x00,0x00,0x00,0x00,0x00,0x00,0xe0,0x00,0xe0,0x00,0xe0,
 0x00,0x00,0x0e,0x00,0x00,0x00,0x00,0x00,0x00,0x00,0x00,0x00,0x00,0x00,0x00,
 0x00,0x00,0x00,0x00,0x00,0x00,0x00,0x00,0x00,0x00,0x00,0x00,0x00,0x00,0x00,
 0xe0,0x00,0xe0,0x00,0xe0,0x00,0x00,0x0e,0x00,0x00,0x00,0x00,0x00,0x00,0x00,
 0x00,0x00,0x00,0x00,0x00,0x00,0x00,0x00,0x00,0x00,0x00,0x00,0x00,0x00,0x00,
 0x00,0x00,0x00,0x00,0x00,0x10,0x00,0xc0,0x01,0x00,0x03,0x00,0x70,0x00,0x00,
 0x00,0x00,0x00,0x00,0x00,0x00,0x00,0x00,0x00,0x00,0x00,0x00,0x00,0x00,0x00,
 0x00,0x00,0x00,0x00,0x00,0x00,0x00,0x00,0x00,0x00,0x0e,0x00,0x00,0x0e,0x00,
 0x1c,0x00,0x80,0x00,0x00,0x00,0x00,0x00,0x00,0x00,0x00,0x00,0x00,0x00,0x00,
 0x00,0x00,0x00,0x00,0x00,0x00,0x00,0x00,0x00,0x00,0x00,0x00,0x00,0x00,0xc0,
 0x01,0x00,0x00,0x70,0x00,0xe0,0x00,0x00,0x07,0x00,0x00,0x00,0x00,0x00,0x00,
 0x00,0x00,0x00,0x00,0x00,0x00,0x00,0x00,0x00,0x00,0x00,0x00,0x00,0x00,0x00,
 0x00,0x00,0x00,0x00,0xc0,0x01,0x00,0x00,0x70,0x00,0xe0,0x00,0x00,0x07,0x00,
 0x00,0x00,0x00,0x00,0x00,0x00,0x00,0x00,0x00,0x00,0x00,0x00,0x00,0x00,0x00,
 0x00,0x00,0x00,0x00,0x00,0x00,0x00,0x00,0x00,0x38,0x00,0x00,0x00,0x80,0x00,
 0x00,0x03,0x00,0x38,0x00,0x00,0x00,0x00,0x00,0x00,0x00,0x00,0x00,0x00,0x00,
 0x00,0x00,0x00,0x00,0x00,0x00,0x00,0x00,0x00,0x00,0x00,0x00,0x00,0x00,0x04,
 0x00,0x00,0x00,0x00,0x07,0x00,0x1c,0x00,0xc0,0x01,0x00,0x00,0x00,0x00,0x00,
 0x00,0x00,0x00,0x00,0x00,0x00,0x00,0x00,0x00,0x00,0x00,0x00,0x00,0x00,0x00,
 0x00,0x00,0x00,0x00,0x04,0x00,0x00,0x00,0x00,0x07,0x00,0x1c,0x00,0xc0,0x01,
 0x00,0x00,0x00,0x00,0x00,0x00,0x00,0x00,0x00,0x00,0x00,0x00,0x00,0x00,0x00,
 0x00,0x00,0x00,0x00,0x00,0x00,0x00,0x00,0x80,0x03,0x00,0xf8,0x03,0x00,0x38,
 0x00,0x60,0x00,0x00,0x02,0x00,0x00,0x00,0x00,0x00,0x00,0x00,0x00,0x00,0x00,
 0x00,0x00,0x00,0x00,0x00,0x00,0x00,0x00,0x00,0x00,0x00,0x00,0x00,0x70,0x00,
 0x00,0x06,0x04,0x00,0xc0,0x01,0x80,0x03,0x00,0x1c,0x00,0x00,0x00,0x00,0x00,
 0x00,0x00,0x00,0x00,0x00,0x00,0x00,0x00,0x00,0x00,0x00,0x00,0x00,0x00,0x00,
 0x00,0x00,0x00,0x70,0x00,0x00,0x06,0x04,0x00,0xc0,0x01,0x80,0x03,0x00,0x1c,
 0x00,0x00,0x00,0x00,0x00,0x00,0x00,0x00,0x00,0x00,0x00,0x00,0x00,0x00,0x00,
 0x00,0x00,0x00,0x00,0x00,0x00,0x00,0x00,0x0c,0x00,0xc0,0x07,0x3c,0x00,0x00,
 0x02,0x00,0x1c,0x00,0xe0,0x00,0x00,0x00,0x00,0x00,0x00,0x00,0x00,0x00,0x00,
 0x00,0x00,0x00,0x00,0x00,0x00,0x00,0x00,0x00,0x00,0x00,0x00,0x80,0x03,0x00,
 0x30,0x06,0xc4,0x01,0x00,0x1c,0x00,0x60,0x00,0x00,0x07,0x00,0x00,0x00,0x00,
 0x00,0x00,0x00,0x00,0x00,0x00,0x00,0x00,0x00,0x00,0x00,0x00,0x00,0x00,0x00,
 0x00,0x00,0x80,0x03,0x00,0x30,0x06,0xc4,0x01,0x00,0x1c,0x00,0x60,0x00,0x00,
 0x07,0x00,0x00,0x00,0x00,0x00,0x00,0x00,0x00,0x00,0x00,0x00,0x00,0x00,0x00,
 0x00,0x00,0x00,0x00,0x00,0x00,0x00,0x60,0x00,0x00,0x0e,0x06,0x04,0x0e,0x00,
 0xe0,0x00,0x80,0x03,0x00,0x38,0x00,0x00,0x00,0x00,0x00,0x00,0x00,0x00,0x00,
 0x00,0x00,0x00,0x00,0x00,0x00,0x00,0x00,0x00,0x00,0x00,0x00,0x1c,0x00,0x80,
 0x01,0x06,0x04,0x70,0x00,0x00,0x07,0x00,0x0c,0x00,0x40,0x00,0x00,0x00,0x00,
 0x00,0x00,0x00,0x00,0x00,0x00,0x00,0x00,0x00,0x00,0x00,0x00,0x00,0x00,0x00,
 0x00,0x00,0x03,0x00,0x70,0x00,0x06,0x04,0x80,0x00,0x00,0x18,0x00,0x70,0x00,
 0x80,0x03,0x00,0x00,0x00,0x00,0x00,0x00,0x00,0x00,0x00,0x00,0x00,0x00,0x00,
 0x00,0x00,0x00,0x00,0x00,0x00,0x00,0x03,0x00,0x70,0x00,0x06,0x04,0x80,0x00,
 0x00,0x18,0x00,0x70,0x00,0x80,0x03,0x00,0x00,0x00,0x00,0x00,0x00,0x00,0x00,
 0x00,0x00,0x00,0x00,0x00,0x00,0x00,0x00,0x00,0x00,0x00,0xe0,0x00,0x00,0x0c,
 0x00,0x06,0x04,0x00,0x07,0x00,0x60,0x00,0x80,0x03,0x00,0x1c,0x00,0x00,0x00,
 0x00,0x00,0x00,0x00,0x00,0x00,0x00,0x00,0x00,0x00,0x00,0x00,0x00,0x00,0x00,
 0x00,0x1c,0x00,0x80,0x03,0x00,0xfe,0x07,0x00,0x38,0x00,0x80,0x03,0x00,0x0c,
 0x00,0xe0,0x00,0x00,0x00,0x00,0x00,0x00,0x00,0x00,0x00,0x00,0x00,0x00,0x00,
 0x00,0x00,0x00,0x00,0x00,0x00,0x1c,0x00,0x80,0x03,0x00,0xfe,0x07,0x00,0x38,
 0x00,0x80,0x03,0x00,0x0c,0x00,0xe0,0x00,0x00,0x00,0x00,0x00,0x00,0x00,0x00,
 0x00,0x00,0x00,0x00,0x00,0x00,0x00,0x00,0x00,0x00,0x00,0x03,0x00,0x60,0x00,
 0xc0,0x01,0x38,0x00,0xc0,0x01,0x00,0x1c,0x00,0x30,0x00,0x00,0x01,0x00,0x00,
 0x00,0x00,0x00,0x00,0x00,0x00,0x00,0x00,0x00,0x00,0x00,0x00,0x00,0x00,0x00,
 0xc0,0x00,0x00,0x1c,0x00,0x30,0x00,0xc0,0x01,0x00,0x02,0x00,0x60,0x00,0xc0,
 0x01,0x00,0x0e,0x00,0x00,0x00,0x00,0x00,0x00,0x00,0x00,0x00,0x00,0x00,0x00,
 0x00,0x00,0x00,0x00,0x00,0xc0,0x00,0x00,0x1c,0x00,0x30,0x00,0xc0,0x01,0x00,
 0x02,0x00,0x60,0x00,0xc0,0x01,0x00,0x0e,0x00,0x00,0x00,0x00,0x00,0x00,0x00,
 0x00,0x00,0x00,0x00,0x00,0x00,0x00,0x00,0x00,0x00,0x38,0x00,0x80,0x03,0x00,
 0x0e,0x00,0x00,0x06,0x00,0x1c,0x00,0x80,0x03,0x00,0x0e,0x00,0x70,0x00,0x00,
 0x00,0x00,0x00,0x00,0x00,0x00,0x00,0x00,0x00,0x00,0x00,0x00,0x00,0x00,0x00,
 0x07,0x00,0x60,0x00,0x80,0x01,0x00,0x00,0x38,0x00,0xe0,0x00,0x00,0x0c,0x00,
 0x70,0x00,0x80,0x03,0x00,0x00,0x00,0x00,0x00,0x00,0x00,0x00,0x00,0x00,0x00,
 0x00,0x00,0x00,0x00,0x00,0x07,0x00,0x60,0x00,0x80,0x01,0x00,0x00,0x38,0x00,
 0xe0,0x00,0x00,0x0c,0x00,0x70,0x00,0x80,0x03,0x00,0x00,0x00,0x00,0x00,0x00,
 0x00,0x00,0x00,0x00,0x00,0x00,0x00,0x00,0x00,0xc0,0x00,0x00,0x1c,0x00,0x70,
 0x00,0x00,0x00,0xc0,0x00,0x00,0x07,0x00,0x30,0x00,0x80,0x01,0x00,0x04,0x00,
 0x00,0x00,0x00,0x00,0x00,0x00,0x00,0x00,0x00,0x00,0x00,0x00,0x00,0x00,0x30,
 0x00,0x00,0x03,0x00,0x0c,0x00,0x00,0x00,0x00,0x07,0x00,0x38,0x00,0xc0,0x01,
 0x00,0x06,0x00,0x38,0x00,0x00,0x00,0x00,0x00,0x00,0x00,0x00,0x00,0x00,0x00,
 0x00,0x00,0x00,0x00,0x0e,0x00,0xe0,0x00,0x00,0x03,0x00,0xf0,0x01,0x00,0x18,
 0x00,0x40,0x00,0x00,0x0e,0x00,0x38,0x00,0xc0,0x01,0x00,0x00,0x00,0x00,0x00,
 0x00,0x00,0x00,0x00,0x00,0x00,0x00,0x00,0x00,0x0e,0x00,0xe0,0x00,0x00,0x03,
 0x00,0xf0,0x01,0x00,0x18,0x00,0x40,0x00,0x00,0x0e,0x00,0x38,0x00,0xc0,0x01,
 0x00,0x00,0x00,0x00,0x00,0x00,0x00,0x00,0x00,0x00,0x00,0x00,0x00,0xc0,0x01,
 0x00,0x1c,0x00,0xe0,0x00,0x00,0x0e,0x06,0x00,0xe0,0x00,0x80,0x03,0x00,0x30,
 0x00,0xc0,0x01,0x00,0x0e,0x00,0x00,0x00,0x00,0x00,0x00,0x00,0x00,0x00,0x00,
 0x00,0x00,0x00,0x38,0x00,0x00,0x03,0x00,0x1c,0x00,0xc0,0x07,0x3c,0x00,0x00,
 0x03,0x00,0x1c,0x00,0xc0,0x00,0x00,0x0e,0x00,0x10,0x00,0x00,0x00,0x00,0x00,
 0x00,0x00,0x00,0x00,0x00,0x00,0x00,0x00,0x38,0x00,0x00,0x03,0x00,0x1c,0x00,
 0xc0,0x07,0x3c,0x00,0x00,0x03,0x00,0x1c,0x00,0xc0,0x00,0x00,0x0e,0x00,0x10,
 0x00,0x00,0x00,0x00,0x00,0x00,0x00,0x00,0x00,0x00,0x00,0x00,0x00,0x04,0x00,
 0xc0,0x00,0x80,0x03,0x00,0x30,0x06,0xc4,0x01,0x00,0x0c,0x00,0xe0,0x00,0x00,
 0x07,0x00,0x30,0x00,0xe0,0x00,0x00,0x00,0x00,0x00,0x00,0x00,0x00,0x00,0x00,
 0x00,0x00,0x80,0x03,0x00,0x38,0x00,0x40,0x00,0x00,0x0e,0x06,0x04,0x0e,0x00,
 0x70,0x00,0x00,0x03,0x00,0x38,0x00,0xc0,0x00,0x00,0x07,0x00,0x00,0x00,0x00,
 0x00,0x00,0x00,0x00,0x00,0x00,0x00,0x80,0x03,0x00,0x38,0x00,0x40,0x00,0x00,
 0x0e,0x06,0x04,0x0e,0x00,0x70,0x00,0x00,0x03,0x00,0x38,0x00,0xc0,0x00,0x00,
 0x07,0x00,0x00,0x00,0x00,0x00,0x00,0x00,0x00,0x00,0x00,0x00,0x70,0x00,0x00,
 0x07,0x00,0x38,0x00,0x80,0x01,0x06,0x04,0x30,0x00,0x80,0x03,0x00,0x07,0x00,
 0xc0,0x01,0x00,0x07,0x00,0x38,0x00,0x00,0x00,0x00,0x00,0x00,0x00,0x00,0x00,
 0x00,0x00,0x0e,0x00,0xc0,0x00,0x00,0x07,0x00,0x70,0x00,0x06,0x04,0xc0,0x00,
 0x00,0x1c,0x00,0x07,0x00,0x00,0x02,0x00,0x38,0x00,0x40,0x00,0x00,0x00,0x00,
 0x00,0x00,0x00,0x00,0x00,0x00,0x00,0x01,0x00,0x30,0x00,0xe0,0x00,0x00,0x0c,
 0x00,0x06,0x04,0x00,0x07,0x00,0x20,0x00,0x07,0x00,0x00,0x1c,0x00,0xc0,0x01,
 0x80,0x03,0x00,0x00,0x00,0x00,0x00,0x00,0x00,0x00,0x00,0x00,0x01,0x00,0x30,
 0x00,0xe0,0x00,0x00,0x0c,0x00,0x06,0x04,0x00,0x07,0x00,0x20,0x00,0x07,0x00,
 0x00,0x1c,0x00,0xc0,0x01,0x80,0x03,0x00,0x00,0x00,0x00,0x00,0x00,0x00,0x00,
 0x00,0xe0,0x00,0x00,0x0e,0x00,0x10,0x00,0x80,0x03,0x00,0x06,0x04,0x00,0x18,
 0x00,0xc0,0x01,0x03,0x00,0x00,0xe0,0x00,0x00,0x02,0x00,0x1c,0x00,0x00,0x00,
 0x00,0x00,0x00,0x00,0x00,0x00,0x1c,0x00,0xc0,0x01,0x00,0x0e,0x00,0x60,0x00,
 0x00,0x06,0x04,0x00,0xe0,0x00,0x00,0xee,0x00,0x00,0x00,0x00,0x07,0x00,0x1c,
 0x00,0xe0,0x00,0x00,0x00,0x00,0x00,0x00,0x00,0x00,0x00,0x1c,0x00,0xc0,0x01,
 0x00,0x0e,0x00,0x60,0x00,0x00,0x06,0x04,0x00,0xe0,0x00,0x00,0xee,0x00,0x00,
 0x00,0x00,0x07,0x00,0x1c,0x00,0xe0,0x00,0x00,0x00,0x00,0x00,0x00,0x00,0x00,
 0x00,0x02,0x00,0x38,0x00,0xc0,0x01,0x00,0x70,0x00,0x00,0x06,0x04,0x00,0x00,
 0x03,0x00,0x1c,0x00,0x00,0x00,0x00,0x08,0x00,0xe0,0x00,0x80,0x03,0x00,0x00,
 0x00,0x00,0x00,0x00,0x00,0xc0,0x01,0x00,0x04,0x00,0x20,0x00,0x00,0x70,0x00,
 0x00,0x06,0x04,0x00,0x00,0x1c,0x80,0x03,0x00,0x00,0x00,0x00,0x70,0x00,0x00,
 0x07,0x70,0x03,0x00,0x00,0x00,0x00,0x00,0x00,0x00,0xc0,0x01,0x00,0x04,0x00,
 0x20,0x00,0x00,0x70,0x00,0x00,0x06,0x04,0x00,0x00,0x1c,0x80,0x03,0x00,0x00,
 0x00,0x00,0x70,0x00,0x00,0x07,0x70,0x03,0x00,0x00,0x00,0x00,0x00,0x00,0x00,
 0x38,0x00,0x80,0x03,0x00,0x1c,0x00,0x00,0x60,0x00,0x00,0xfe,0x07,0x00,0x00,
 0x60,0x60,0x00,0x00,0x00,0x00,0x00,0x80,0x03,0x00,0x38,0x0e,0x03,0x00,0x00,
 0x00,0x00,0x00,0x00,0x00,0x07,0x00,0x70,0x00,0x80,0x03,0x00,0x00,0x80,0x03,
 0xc0,0x01,0x38,0x00,0x00,0xe0,0x18,0x00,0x00,0x00,0x00,0x00,0x00,0x04,0x00,
 0xc0,0x01,0x03,0x00,0x00,0x00,0x00,0x00,0x00,0x00,0x07,0x00,0x70,0x00,0x80,
 0x03,0x00,0x00,0x80,0x03,0xc0,0x01,0x38,0x00,0x00,0xe0,0x18,0x00,0x00,0x00,
 0x00,0x00,0x00,0x04,0x00,0xc0,0x01,0x03,0x00,0x00,0x00,0x00,0x00,0x00,0x80,
 0x00,0x00,0x0e,0x00,0x70,0x00,0x00,0x00,0x00,0x0c,0x30,0x00,0xc0,0x01,0x00,
 0xe0,0x07,0x00,0x00,0x00,0x00,0x00,0x00,0x38,0x00,0x40,0x00,0x03,0x00,0x00,
 0x00,0x00,0x00,0x00,0x70,0x00,0xc0,0x01,0x00,0x08,0x00,0x00,0x00,0x00,0x7f,
 0x0e,0x00,0x00,0x06,0x00,0xe0,0x00,0x00,0xff,0x0f,0x00,0x00,0x00,0xc0,0x01,
 0x40,0x00,0x03,0x00,0x00,0x00,0x00,0x00,0x00,0x0e,0x00,0x20,0x00,0x00,0x07,
 0x00,0x00,0x00,0xe0,0xc0,0x01,0x00,0x00,0x38,0x00,0x1c,0x00,0xe0,0x03,0x3c,
 0x00,0x00,0x00,0x00,0x0e,0x40,0x00,0x03,0x00,0x00,0x00,0x00,0x00,0x00,0x0e,
 0x00,0x20,0x00,0x00,0x07,0x00,0x00,0x00,0xe0,0xc0,0x01,0x00,0x00,0x38,0x00,
 0x1c,0x00,0xe0,0x03,0x3c,0x00,0x00,0x00,0x00,0x0e,0x40,0x00,0x03,0x00,0x00,
 0x00,0x00,0x00,0xc0,0x01,0x00,0x1c,0x00,0xe0,0x00,0x00,0x00,0x00,0x1c,0x00,
 0x0e,0x00,0x00,0xc0,0x00,0x03,0x00,0x1c,0x03,0xcc,0x01,0x00,0x00,0x00,0x10,
 0x40,0x00,0x03,0x00,0x00,0x00,0x00,0x00,0x20,0x00,0x80,0x03,0x00,0x1c,0x00,
 0x00,0x00,0x80,0x03,0x00,0x30,0x00,0x00,0x00,0xc7,0x00,0x00,0x02,0x03,0x0c,
 0x06,0x00,0x00,0x00,0xfe,0x40,0x00,0x03,0x00,0x00,0x00,0x00,0x00,0x20,0x00,
 0x80,0x03,0x00,0x1c,0x00,0x00,0x00,0x80,0x03,0x00,0x30,0x00,0x00,0x00,0xc7,
 0x00,0x00,0x02,0x03,0x0c,0x06,0x00,0x00,0x00,0xfe,0x40,0x00,0x03,0x00,0x00,
 0x00,0x00,0x00,0x1c,0x00,0x70,0x00,0x00,0x02,0x00,0x00,0x00,0x60,0x00,0x00,
 0xc0,0x00,0x00,0x00,0x38,0x00,0xc0,0x01,0x03,0x0c,0x38,0x00,0x00,0xc0,0x11,
 0x47,0x00,0x03,0x00,0x00,0x00,0x00,0x80,0x03,0x00,0x08,0x00,0xc0,0x01,0x00,
 0x00,0x00,0x18,0x00,0xf0,0x0f,0x07,0x00,0x00,0x07,0x00,0x38,0x00,0x03,0x0c,
 0x40,0x00,0x00,0x20,0x10,0x78,0x00,0x03,0x00,0x00,0x00,0x00,0x80,0x03,0x00,
 0x08,0x00,0xc0,0x01,0x00,0x00,0x00,0x18,0x00,0xf0,0x0f,0x07,0x00,0x00,0x07,
 0x00,0x38,0x00,0x03,0x0c,0x40,0x00,0x00,0x20,0x10,0x78,0x00,0x03,0x00,0x00,
 0x00,0x00,0x70,0x00,0x00,0x0c,0x00,0x38,0x00,0x00,0x00,0x00,0x07,0x00,0x0f,
 0xf0,0x38,0x00,0xc0,0x00,0x00,0x04,0x00,0x03,0x0c,0x80,0x03,0x00,0x1c,0x10,
 0x40,0x00,0x03,0x00,0x00,0x00,0x00,0x0c,0x00,0x00,0x0b,0x00,0x06,0x00,0x00,
 0x00,0xe0,0x00,0x80,0x00,0x00,0xc1,0x01,0x38,0x00,0x80,0x03,0x00,0x7b,0x0c,
 0x00,0x1c,0x00,0x03,0x10,0x38,0x00,0x03,0x00,0x00,0x00,0x00,0x0c,0x00,0x00,
 0x0b,0x00,0x06,0x00,0x00,0x00,0xe0,0x00,0x80,0x00,0x00,0xc1,0x01,0x38,0x00,
 0x80,0x03,0x00,0x7b,0x0c,0x00,0x1c,0x00,0x03,0x10,0x38,0x00,0x03,0x00,0x00,
 0x00,0x00,0x7c,0x00,0x00,0x0c,0xc0,0x01,0x00,0x00,0x00,0x1c,0x00,0x80,0xf8,
 0x1f,0x01,0x06,0x06,0x00,0x70,0x00,0x00,0x87,0x0f,0x00,0x20,0xc0,0x00,0x10,
 0x07,0x00,0x03,0x00,0x00,0x00,0x00,0x8c,0x03,0x00,0x08,0x30,0x00,0x00,0x00,
 0x00,0x02,0x00,0x60,0x04,0x20,0x01,0xf8,0x01,0x00,0x0c,0x00,0xe0,0x00,0x30,
 0x00,0xc0,0x39,0x00,0xf0,0x00,0x00,0x03,0x00,0x00,0x00,0x00,0x0c,0x1c,0x00,
 0x70,0x0e,0x00,0x00,0x00,0xc0,0x01,0x00,0x80,0x03,0xe0,0x01,0x00,0x00,0x00,
 0x03,0x00,0x1c,0x00,0xc0,0x01,0x00,0x06,0x00,0x10,0x00,0x00,0x03,0x00,0x00,
 0x00,0x00,0x0c,0x1c,0x00,0x70,0x0e,0x00,0x00,0x00,0xc0,0x01,0x00,0x80,0x03,
 0xe0,0x01,0x00,0x00,0x00,0x03,0x00,0x1c,0x00,0xc0,0x01,0x00,0x06,0x00,0x10,
 0x00,0x00,0x03,0x00,0x00,0x00,0x00,0x0c,0x20,0x00,0x80,0x03,0x00,0x00,0x00,
 0x38,0x00,0x00,0x80,0x07,0xe0,0x01,0x00,0x00,0xc0,0x00,0x80,0x03,0x00,0x00,
 0x06,0x00,0x06,0x00,0x00,0x00,0x80,0x00,0x00,0x00,0x00,0x00,0x0c,0xc0,0x01,
 0x00,0x1c,0x00,0x00,0x00,0x04,0x00,0x00,0x00,0x7c,0x3c,0x00,0x00,0x00,0x38,
 0x00,0x40,0x00,0x00,0x00,0x38,0x00,0x06,0x00,0x00,0x00,0x80,0x00,0x00,0x00,
 0x00,0x00,0x0c,0xc0,0x01,0x00,0x1c,0x00,0x00,0x00,0x04,0x00,0x00,0x00,0x7c,
 0x3c,0x00,0x00,0x00,0x38,0x00,0x40,0x00,0x00,0x00,0x38,0x00,0x06,0x00,0x00,
 0x00,0x80,0x00,0x00,0x00,0x00,0x00,0x0c,0x00,0x0e,0x00,0xe0,0x00,0x00,0x80,
 0x03,0x00,0x00,0x00,0x80,0x03,0x00,0x00,0x00,0x07,0x00,0x38,0x00,0x00,0x00,
 0x40,0x00,0x06,0x00,0x00,0x00,0x80,0x00,0x00,0x00,0x00,0x00,0x0c,0x00,0x70,
 0x00,0x00,0x07,0x00,0x70,0x00,0x00,0x00,0x00,0x00,0x00,0x00,0x00,0x80,0x00,
 0x00,0x07,0x00,0x00,0x00,0x80,0x03,0x06,0x00,0x00,0x00,0x80,0x00,0x00,0x00,
 0x00,0x00,0x0c,0x00,0x70,0x00,0x00,0x07,0x00,0x70,0x00,0x00,0x00,0x00,0x00,
 0x00,0x00,0x00,0x80,0x00,0x00,0x07,0x00,0x00,0x00,0x80,0x03,0x06,0x00,0x00,
 0x00,0x80,0x00,0x00,0x00,0x00,0x00,0x0c,0x00,0x80,0x00,0x00,0x38,0x00,0x0e,
 0x00,0x00,0x00,0x00,0x00,0x00,0x00,0x00,0x70,0x00,0xe0,0x00,0x00,0x00,0x00,
 0x00,0x1c,0x06,0x00,0x00,0x00,0x80,0x00,0x00,0x00,0x00,0x00,0x0c,0x00,0x00,
 0x07,0x00,0x40,0x00,0x01,0x00,0x00,0x00,0x00,0x00,0x00,0x00,0x00,0x0e,0x00,
 0x1c,0x00,0x00,0x00,0x00,0x00,0x20,0x06,0x00,0x00,0x00,0x80,0x00,0x00,0x00,
 0x00,0x00,0x0c,0x00,0x00,0x38,0x00,0x80,0xff,0x00,0x00,0x00,0x00,0x00,0x00,
 0x00,0x00,0x00,0x01,0x00,0x02,0x00,0x00,0x00,0x00,0x00,0xc0,0x07,0x00,0x00,
 0x00,0x80,0x00,0x00,0x00,0x00,0x00,0x0c,0x00,0x00,0x38,0x00,0x80,0xff,0x00,
 0x00,0x00,0x00,0x00,0x00,0x00,0x00,0x00,0x01,0x00,0x02,0x00,0x00,0x00,0x00,
 0x00,0xc0,0x07,0x00,0x00,0x00,0x80,0x00,0x00,0x00,0x00,0x00,0x0c,0x00,0x00,
 0xc0,0x01,0x00,0x00,0x00,0x00,0x00,0x00,0x00,0x00,0x00,0x00,0xe0,0x00,0xc0,
 0x01,0x00,0x00,0x00,0x00,0x00,0x00,0x06,0x00,0x00,0x00,0x80,0x00,0x00,0x00,
 0x00,0x00,0x0c,0x00,0x00,0x00,0x02,0x00,0x00,0x00,0xfc,0x03,0x00,0x00,0x00,
 0x00,0x00,0x1c,0x00,0x38,0x00,0x00,0x00,0x00,0x00,0x00,0xc0,0x01,0x00,0x00,
 0x00,0x80,0x00,0x00,0x00,0x00,0x00,0x0c,0x00,0x00,0x00,0x02,0x00,0x00,0x00,
 0xfc,0x03,0x00,0x00,0x00,0x00,0x00,0x1c,0x00,0x38,0x00,0x00,0x00,0x00,0x00,
 0x00,0xc0,0x01,0x00,0x00,0x00,0x80,0x00,0x00,0x00,0x00,0x00,0x0c,0x00,0x00,
 0x00,0x1c,0x00,0x00,0x00,0x03,0x1c,0x00,0x00,0x00,0x00,0x80,0x03,0x00,0x07,
 0x00,0x00,0x00,0x00,0x00,0x00,0x38,0x00,0x00,0x00,0x00,0x80,0x00,0x00,0x00,
 0x00,0x00,0x0c,0x00,0x00,0x00,0xe0,0x00,0x00,0xc0,0x00,0x70,0x00,0x00,0x00,
 0x00,0xc0,0x03,0x80,0x00,0x00,0x00,0x00,0x00,0x00,0x00,0x06,0x00,0x00,0x00,
 0x00,0x80,0x00,0x00,0x00,0x00,0x00,0x0c,0x00,0x00,0x00,0xe0,0x00,0x00,0xc0,
 0x00,0x70,0x00,0x00,0x00,0x00,0xc0,0x03,0x80,0x00,0x00,0x00,0x00,0x00,0x00,
 0x00,0x06,0x00,0x00,0x00,0x00,0x80,0x00,0x00,0x00,0x00,0x00,0x0c,0x00,0x00,
 0x00,0x00,0x07,0x00,0x40,0xfc,0x63,0x00,0x00,0x00,0x00,0x80,0x03,0x70,0x00,
 0x00,0x00,0x00,0x00,0x00,0x80,0x01,0x00,0x00,0x00,0x00,0x80,0x00,0x00,0x00,
 0x00,0x00,0x0f,0x00,0x00,0x00,0x00,0x08,0x00,0x40,0x03,0x6c,0x00,0x00,0x00,
 0x00,0x80,0x03,0x0e,0x00,0x00,0x00,0x00,0x00,0x00,0x70,0x00,0x00,0x00,0x00,
 0x00,0x80,0x00,0x00,0x00,0x00,0x00,0x0f,0x00,0x00,0x00,0x00,0x08,0x00,0x40,
 0x03,0x6c,0x00,0x00,0x00,0x00,0x80,0x03,0x0e,0x00,0x00,0x00,0x00,0x00,0x00,
 0x70,0x00,0x00,0x00,0x00,0x00,0x80,0x00,0x00,0x00,0x00,0xe0,0x0c,0x00,0x00,
 0x00,0x00,0x70,0x00,0x80,0x03,0x1c,0x00,0x00,0x00,0x00,0x00,0xdc,0x01,0x00,
 0x00,0x00,0x00,0x00,0x00,0x0e,0x00,0x00,0x00,0x00,0x00,0x80,0x00,0x00,0x00,
 0x00,0x18,0x0c,0x00,0x00,0x00,0x00,0x80,0x03,0x00,0xff,0x0f,0x00,0x00,0x00,
 0x00,0x00,0xe0,0x00,0x00,0x00,0x00,0x00,0x00,0xc0,0x01,0x00,0x00,0x00,0x00,
 0x00,0x80,0x00,0x00,0x00,0x00,0x07,0x0c,0x00,0x00,0x00,0x00,0x00,0x1c,0x00,
 0x00,0x00,0x00,0x00,0x00,0x00,0x00,0x00,0x01,0x00,0x00,0x00,0x00,0x00,0x20,
 0x00,0x00,0x00,0x00,0x00,0x00,0x70,0x07,0x00,0x00,0x00,0x07,0x0c,0x00,0x00,
 0x00,0x00,0x00,0x1c,0x00,0x00,0x00,0x00,0x00,0x00,0x00,0x00,0x00,0x01,0x00,
 0x00,0x00,0x00,0x00,0x20,0x00,0x00,0x00,0x00,0x00,0x00,0x70,0x07,0x00,0x00,
 0x80,0x00,0x0e,0x00,0x00,0x00,0x00,0x00,0xe0,0x00,0x00,0x00,0x00,0x00,0x00,
 0x00,0x00,0x00,0x0e,0x00,0x00,0x00,0x00,0x00,0x1c,0x00,0x00,0x00,0x00,0x00,
 0x00,0x0e,0x38,0x00,0x00,0x70,0xe0,0x0d,0x00,0x00,0x00,0x00,0x00,0x00,0x01,
 0x00,0x00,0x00,0x00,0x00,0x00,0x00,0x00,0x30,0x00,0x00,0x00,0x00,0x80,0x03,
 0x00,0x00,0x00,0x00,0x00,0x80,0x01,0xc0,0x01,0x00,0x70,0xe0,0x0d,0x00,0x00,
 0x00,0x00,0x00,0x00,0x01,0x00,0x00,0x00,0x00,0x00,0x00,0x00,0x00,0x30,0x00,
 0x00,0x00,0x00,0x80,0x03,0x00,0x00,0x00,0x00,0x00,0x80,0x01,0xc0,0x01,0x00,
 0x0e,0x20,0x0c,0x00,0x00,0x00,0x00,0x00,0x00,0x0e,0x00,0x00,0x00,0x00,0x00,
 0x00,0x00,0x00,0xc0,0x00,0x00,0x00,0x00,0x70,0x00,0x00,0x00,0x00,0x00,0x00,
 0x60,0x00,0x00,0x02,0x00,0x01,0x20,0x0c,0x00,0x00,0x00,0x00,0x00,0x00,0x70,
 0x00,0x00,0x00,0x00,0x00,0x00,0x00,0x00,0x00,0x07,0x00,0x00,0x00,0x08,0x00,
 0x00,0x00,0x00,0x00,0x00,0x1c,0xe0,0x07,0x1c,0x00,0x01,0x20,0x0c,0x00,0x00,
 0x00,0x00,0x00,0x00,0x70,0x00,0x00,0x00,0x00,0x00,0x00,0x00,0x00,0x00,0x07,
 0x00,0x00,0x00,0x08,0x00,0x00,0x00,0x00,0x00,0x00,0x1c,0xe0,0x07,0x1c,0x00,
 0x0f,0x20,0x0f,0x00,0x00,0x00,0x00,0x00,0x00,0x80,0x03,0x00,0x00,0x00,0x00,
 0x00,0x00,0x00,0x00,0x18,0x00,0x00,0x00,0x07,0x00,0x00,0x00,0x00,0x00,0x80,
 0x03,0x1c,0x38,0xe0,0x00,0x71,0xc0,0x0f,0x00,0x00,0x00,0x00,0x00,0x00,0x00,
 0x04,0x00,0x00,0x00,0x00,0x00,0x00,0x00,0x00,0xe0,0x00,0x00,0xe0,0x00,0x00,
 0x00,0x00,0x00,0x00,0x60,0x00,0x02,0x40,0x00,0x07,0x71,0xc0,0x0f,0x00,0x00,
 0x00,0x00,0x00,0x00,0x00,0x04,0x00,0x00,0x00,0x00,0x00,0x00,0x00,0x00,0xe0,
 0x00,0x00,0xe0,0x00,0x00,0x00,0x00,0x00,0x00,0x60,0x00,0x02,0x40,0x00,0x07,
 0x81,0x03,0x0c,0x00,0x00,0x00,0x00,0x00,0x00,0x00,0x38,0x00,0x00,0x00,0x00,
 0x00,0x00,0x00,0x00,0x00,0x01,0x00,0x10,0x00,0x00,0x00,0x00,0x00,0x00,0x1c,
 0x00,0x02,0x40,0x00,0x08,0x01,0x1c,0x0c,0x00,0x00,0x00,0x00,0x00,0x00,0x00,
 0xc0,0x01,0x00,0x00,0x00,0x00,0x00,0x00,0x00,0xe0,0x01,0x00,0x0e,0x00,0x00,
 0x00,0x00,0x00,0x00,0x03,0x00,0xf2,0x4f,0x00,0x0f,0x01,0xe0,0x0c,0x00,0x00,
 0x00,0x00,0x00,0x00,0x00,0x00,0x0e,0x00,0x00,0x00,0x00,0x00,0x00,0x00,0x1c,
 0x01,0xc0,0x01,0x00,0x00,0x00,0x00,0x00,0xc0,0x00,0x00,0x9c,0x3b,0xe0,0x08,
 0x01,0xe0,0x0c,0x00,0x00,0x00,0x00,0x00,0x00,0x00,0x00,0x0e,0x00,0x00,0x00,
 0x00,0x00,0x00,0x00,0x1c,0x01,0xc0,0x01,0x00,0x00,0x00,0x00,0x00,0xc0,0x00,
 0x00,0x9c,0x3b,0xe0,0x08,0x01,0x00,0x0f,0x00,0x00,0x00,0x00,0x00,0x00,0x00,
 0x00,0x10,0x00,0x00,0x00,0xf0,0x0f,0x00,0x80,0x03,0x01,0x38,0x00,0x00,0x00,
 0x00,0x00,0x00,0x38,0x00,0x00,0xe0,0x07,0x1c,0x08,0x01,0x00,0x0c,0x00,0x00,
 0x00,0x00,0x00,0x00,0x00,0x00,0xe0,0x00,0x00,0x00,0x0e,0x30,0x00,0x40,0x00,
 0x01,0x04,0x00,0x00,0x00,0x00,0x00,0x00,0x07,0x00,0x00,0x00,0x00,0x02,0x08,
 0x01,0x00,0x0c,0x00,0x00,0x00,0x00,0x00,0x00,0x00,0x00,0xe0,0x00,0x00,0x00,
 0x0e,0x30,0x00,0x40,0x00,0x01,0x04,0x00,0x00,0x00,0x00,0x00,0x00,0x07,0x00,
 0x00,0x00,0x00,0x02,0x08,0x01,0x00,0x00,0x00,0x00,0x00,0x00,0x00,0x00,0x00,
 0x00,0x00,0x07,0x00,0x00,0x02,0x40,0x00,0x38,0x00,0x81,0x03,0x00,0x00,0x00,
 0x00,0x00,0x80,0x00,0x00,0x00,0x00,0xc0,0x01,0x08,0x01,0x00,0x00,0x00,0x00,
 0x00,0x00,0x00,0x00,0x00,0x00,0x00,0x38,0x00,0x80,0x03,0x40,0x00,0x07,0x00,
 0x71,0x00,0x00,0x00,0x00,0x00,0x00,0x70,0x00,0x00,0x00,0x00,0x38,0x00,0x08,
 0x01,0x00,0x00,0x00,0x00,0x00,0x00,0x00,0x00,0x00,0x00,0x00,0x38,0x00,0x80,
 0x03,0x40,0x00,0x07,0x00,0x71,0x00,0x00,0x00,0x00,0x00,0x00,0x70,0x00,0x00,
 0x00,0x00,0x38,0x00,0x08,0x0e,0x00,0x00,0x00,0x00,0x00,0x00,0x00,0x00,0x00,
 0x00,0x00,0x40,0x00,0x00,0x02,0x30,0xe0,0x00,0x00,0x0f,0x00,0x00,0x00,0x00,
 0x00,0x00,0x0e,0x00,0x00,0x00,0x00,0x04,0x00,0x08,0x70,0x00,0x00,0x00,0x00,
 0x00,0x00,0x00,0x00,0x00,0x00,0x00,0x80,0x03,0x00,0xfc,0x0f,0x18,0x00,0x00,
 0x01,0x00,0x00,0x00,0x00,0x00,0xc0,0x01,0x00,0x00,0x00,0x80,0x03,0x00,0x08,
 0x80,0x03,0x00,0x00,0x00,0x00,0x00,0x00,0x00,0x00,0x00,0x00,0x00,0x1c,0x00,
 0x00,0x00,0x06,0x00,0x00,0x00,0x00,0x00,0x00,0x00,0x00,0x20,0x00,0x00,0x00,
 0x00,0x70,0x00,0x00,0x08,0x80,0x03,0x00,0x00,0x00,0x00,0x00,0x00,0x00,0x00,
 0x00,0x00,0x00,0x1c,0x00,0x00,0x00,0x06,0x00,0x00,0x00,0x00,0x00,0x00,0x00,
 0x00,0x20,0x00,0x00,0x00,0x00,0x70,0x00,0x00,0x08,0x00,0x04,0x00,0x00,0x00,
 0x00,0x00,0x00,0x00,0x00,0x00,0x00,0x00,0xe0,0x00,0x00,0xc0,0x01,0x00,0x00,
 0x00,0x00,0x00,0x00,0x00,0x00,0x1c,0x00,0x00,0x00,0x00,0x0e,0x00,0x00,0x07,
 0x00,0x38,0x00,0x00,0x00,0x00,0x00,0x00,0x00,0x00,0x00,0x00,0x00,0x00,0x03,
 0x00,0x30,0x00,0x00,0x00,0x00,0x00,0x00,0x00,0x00,0x80,0x03,0x00,0x00,0x00,
 0x80,0x01,0x00,0xe0,0x00,0x00,0x38,0x00,0x00,0x00,0x00,0x00,0x00,0x00,0x00,
 0x00,0x00,0x00,0x00,0x03,0x00,0x30,0x00,0x00,0x00,0x00,0x00,0x00,0x00,0x00,
 0x80,0x03,0x00,0x00,0x00,0x80,0x01,0x00,0xe0,0x00,0x00,0xc0,0x01,0x00,0x00,
 0x00,0x00,0x00,0x00,0x00,0x00,0x00,0x00,0x00,0x0c,0x00,0x0e,0x00,0x00,0x00,
 0x00,0x00,0x00,0x00,0x00,0x40,0x00,0x00,0x00,0x00,0x60,0x00,0x00,0x1c,0x00,
 0x00,0x00,0x02,0x00,0x00,0x00,0x00,0x00,0x00,0x00,0x00,0x00,0x00,0x00,0x70,
 0xc0,0x01,0x00,0x7e,0x00,0x00,0x00,0x00,0x00,0x00,0x38,0x00,0x00,0x00,0x00,
 0x1c,0x00,0x00,0x02,0x00,0x00,0x00,0x02,0x00,0x00,0x00,0x00,0x00,0x00,0x00,
 0x00,0x00,0x00,0x00,0x70,0xc0,0x01,0x00,0x7e,0x00,0x00,0x00,0x00,0x00,0x00,
 0x38,0x00,0x00,0x00,0x00,0x1c,0x00,0x00,0x02,0x00,0x00,0x00,0x1c,0x00,0x00,
 0x00,0x00,0x00,0x00,0x00,0x00,0x00,0x00,0x00,0x80,0x33,0x00,0xc0,0xf1,0x00,
 0x00,0x00,0x00,0x00,0x00,0x07,0x00,0x00,0x00,0x00,0x03,0x00,0xc0,0x01,0x00,
 0x00,0x00,0xe0,0x00,0x00,0x00,0x00,0x00,0x00,0x00,0x00,0x00,0x80,0x01,0x00,
 0x0c,0x00,0x20,0x80,0x00,0x00,0x00,0x00,0x00,0xe0,0x00,0x00,0x00,0x00,0xe0,
 0x00,0x00,0x38,0x00,0x00,0x00,0x00,0xe0,0x00,0x00,0x00,0x00,0x00,0x00,0x00,
 0x00,0x00,0x80,0x01,0x00,0x0c,0x00,0x20,0x80,0x00,0x00,0x00,0x00,0x00,0xe0,
 0x00,0x00,0x00,0x00,0xe0,0x00,0x00,0x38,0x00,0x00,0x00,0x00,0x00,0x07,0x00,
 0x00,0x00,0x00,0x00,0x00,0x00,0x00,0x80,0x0f,0x00,0x0c,0x00,0x1c,0x80,0x00,
 0x00,0x00,0x00,0x00,0x10,0x00,0x00,0x00,0x00,0x1c,0x00,0x00,0x04,0x00,0x00,
 0x00,0x00,0x00,0x18,0x00,0x00,0x00,0x00,0x00,0x00,0x00,0x00,0x80,0x71,0x00,
 0x0c,0x80,0x03,0x80,0x00,0x00,0x00,0x00,0x00,0x0e,0x00,0x00,0x00,0x00,0x03,
 0x00,0x80,0x03,0x00,0x00,0x00,0x00,0x00,0x60,0x00,0x00,0x00,0x00,0x00,0x00,
 0x00,0x00,0x80,0x81,0x00,0x0c,0x40,0x1c,0x80,0x00,0x00,0x00,0x00,0xc0,0x01,
 0x00,0x00,0x00,0xc0,0x00,0x00,0x70,0x00,0x00,0x00,0x00,0x00,0x00,0x60,0x00,
 0x00,0x00,0x00,0x00,0x00,0x00,0x00,0x80,0x81,0x00,0x0c,0x40,0x1c,0x80,0x00,
 0x00,0x00,0x00,0xc0,0x01,0x00,0x00,0x00,0xc0,0x00,0x00,0x70,0x00,0x00,0x00,
 0x00,0x00,0x00,0x80,0x03,0x00,0x00,0x00,0x00,0x00,0x00,0x00,0x80,0x01,0x07,
 0x0c,0x38,0xe0,0x80,0x00,0x00,0x00,0x00,0x30,0x00,0x00,0x00,0x00,0x38,0x00,
 0x00,0x0e,0x00,0x00,0x00,0x00,0x00,0x00,0x00,0x0c,0x00,0x00,0x00,0x00,0x00,
 0x00,0x00,0x80,0x01,0x08,0x0c,0x06,0x00,0x81,0x00,0x00,0x00,0x00,0x0c,0x00,
 0x00,0x00,0x00,0x07,0x00,0x80,0x01,0x00,0x00,0x00,0x00,0x00,0x00,0x00,0x0c,
 0x00,0x00,0x00,0x00,0x00,0x00,0x00,0x80,0x01,0x08,0x0c,0x06,0x00,0x81,0x00,
 0x00,0x00,0x00,0x0c,0x00,0x00,0x00,0x00,0x07,0x00,0x80,0x01,0x00,0x00,0x00,
 0x00,0x00,0x00,0x00,0x70,0x00,0x00,0x00,0x00,0x00,0x00,0x00,0x80,0x01,0x70,
 0xcc,0x01,0x00,0x8e,0x00,0x00,0x00,0x80,0x03,0x00,0x00,0x00,0xc0,0x00,0x00,
 0x60,0x00,0x00,0x00,0x00,0x00,0x00,0x00,0x00,0x80,0x03,0x00,0x00,0x00,0x00,
 0x00,0x00,0x80,0x01,0x80,0x3f,0x07,0x00,0xf0,0x00,0x00,0x00,0x60,0x00,0x00,
 0x00,0x00,0x30,0x00,0x00,0x1c,0x00,0x00,0x00,0x00,0x00,0x00,0x00,0x00,0x80,
 0x03,0x00,0x00,0x00,0x00,0x00,0x00,0x80,0x01,0x80,0x3f,0x07,0x00,0xf0,0x00,
 0x00,0x00,0x60,0x00,0x00,0x00,0x00,0x30,0x00,0x00,0x1c,0x00,0x00,0x00,0x00,
 0x00,0x00,0x00,0x00,0x00,0x0c,0x00,0x00,0x00,0x00,0x00,0x00,0x80,0x01,0x00,
 0x0c,0x38,0x00,0x80,0x00,0x00,0x00,0x1c,0x00,0x00,0x00,0x00,0x0e,0x00,0x00,
 0x03,0x00,0x00,0x00,0x00,0x00,0x00,0x00,0x00,0x00,0x30,0x00,0x00,0x00,0x00,
 0x00,0x00,0x80,0x01,0x80,0x03,0x40,0x00,0x80,0x00,0x00,0x80,0x03,0x00,0x00,
 0x00,0xc0,0x01,0x00,0xe0,0x00,0x00,0x00,0x00,0x00,0x00,0x00,0x00,0x00,0x00,
 0x30,0x00,0x00,0x00,0x00,0x00,0x00,0x80,0x01,0x80,0x03,0x40,0x00,0x80,0x00,
 0x00,0x80,0x03,0x00,0x00,0x00,0xc0,0x01,0x00,0xe0,0x00,0x00,0x00,0x00,0x00,
 0x00,0x00,0x00,0x00,0x00,0xc0,0x01,0x00,0x00,0x00,0x00,0x00,0x80,0x01,0x70,
 0x00,0x80,0x03,0x40,0x00,0x00,0x60,0x00,0x00,0x00,0x00,0x20,0x00,0x00,0x1c,
 0x00,0x00,0x00,0x00,0x00,0x00,0x00,0x00,0x00,0x00,0x00,0x0e,0x00,0x00,0x00,
 0x00,0x00,0x80,0x01,0x08,0x00,0x00,0x04,0x40,0x00,0x00,0x18,0x00,0x00,0x00,
 0x00,0x1c,0x00,0x00,0x03,0x00,0x00,0x00,0x00,0x00,0x00,0x00,0x00,0x00,0x00,
 0x00,0x10,0x00,0x00,0x00,0x00,0x00,0x80,0x01,0x07,0x00,0x00,0x38,0x30,0x00,
 0x00,0x07,0x00,0x00,0x00,0x80,0x03,0x00,0xc0,0x00,0x00,0x00,0x00,0x00,0x00,
 0x00,0x00,0x00,0x00,0x00,0x00,0x10,0x00,0x00,0x00,0x00,0x00,0x80,0x01,0x07,
 0x00,0x00,0x38,0x30,0x00,0x00,0x07,0x00,0x00,0x00,0x80,0x03,0x00,0xc0,0x00,
 0x00,0x00,0x00,0x00,0x00,0x00,0x00,0x00,0x00,0x00,0x00,0xe0,0x00,0x00,0x00,
 0x00,0x00,0x80,0x81,0x00,0x00,0x00,0xc0,0x09,0x00,0xe0,0x00,0x00,0x00,0x00,
 0x70,0x00,0x00,0x38,0x00,0x00,0x00,0x00,0x00,0x00,0x00,0x00,0x00,0x00,0x00,
 0x00,0x00,0x07,0x00,0x00,0x00,0x00,0x80,0x71,0x00,0x00,0x00,0x00,0x06,0x00,
 0x10,0x00,0x00,0x00,0x00,0x08,0x00,0x00,0x07,0x00,0x00,0x00,0x00,0x00,0x00,
 0x00,0x00,0x00,0x00,0x00,0x00,0x00,0x07,0x00,0x00,0x00,0x00,0x80,0x71,0x00,
 0x00,0x00,0x00,0x06,0x00,0x10,0x00,0x00,0x00,0x00,0x08,0x00,0x00,0x07,0x00,
 0x00,0x00,0x00,0x00,0x00,0x00,0x00,0x00,0x00,0x00,0x00,0x00,0x38,0x00,0x00,
 0x00,0x00,0x80,0x0f,0x00,0x00,0x00,0xc0,0x01,0x00,0x0e,0x00,0x00,0x00,0x00,
 0x07,0x00,0xc0,0x00,0x00,0x00,0x00,0x00,0x00,0x00,0x00,0x00,0x00,0x00,0x00,
 0x00,0x00,0x40,0x00,0x00,0x00,0x00,0x80,0x01,0x00,0x00,0x00,0x38,0x00,0xc0,
 0x01,0x00,0x00,0x00,0xe0,0x00,0x00,0x30,0x00,0x00,0x00,0x00,0x00,0x00,0x00,
 0x00,0x00,0x00,0x00,0x00,0x00,0x00,0x40,0x00,0x00,0x00,0x00,0x80,0x01,0x00,
 0x00,0x00,0x38,0x00,0xc0,0x01,0x00,0x00,0x00,0xe0,0x00,0x00,0x30,0x00,0x00,
 0x00,0x00,0x00,0x00,0x00,0x00,0x00,0x00,0x00,0x00,0x00,0x00,0x80,0x03,0x00,
 0x00,0x00,0x00,0x0e,0x00,0x00,0x00,0x06,0x00,0x20,0x00,0x00,0x00,0x00,0x10,
 0x00,0x00,0x0e,0x00,0x00,0x00,0x00,0x00,0x00,0x00,0x00,0x00,0x00,0x00,0x00,
 0x00,0x00,0x00,0x1c,0x00,0x00,0x00,0x00,0x70,0x00,0x00,0x80,0x01,0x00,0x1c,
 0x00,0x00,0x00,0x00,0x0e,0x00,0xc0,0x01,0x00,0x00,0x00,0x00,0x00,0x00,0x00,
 0x00,0x00,0x00,0x00,0x00,0x00,0x00,0x00,0x20,0x00,0x00,0x00,0x00,0x80,0x03,
 0x00,0x70,0x00,0x80,0x03,0x00,0x00,0x00,0xc0,0x01,0x00,0x20,0x00,0x00,0x00,
 0x00,0x00,0x00,0x00,0x00,0x00,0x00,0x00,0x00,0x00,0x00,0x00,0x00,0x20,0x00,
 0x00,0x00,0x00,0x80,0x03,0x00,0x70,0x00,0x80,0x03,0x00,0x00,0x00,0xc0,0x01,
 0x00,0x20,0x00,0x00,0x00,0x00,0x00,0x00,0x00,0x00,0x00,0x00,0x00,0x00,0x00,
 0x00,0x00,0x00,0xc0,0x01,0x00,0x00,0x00,0x00,0x0c,0x00,0x0e,0x00,0x70,0x00,
 0x00,0x00,0x00,0x38,0x00,0x00,0x1c,0x00,0x00,0x00,0x00,0x00,0x00,0x00,0x00,
 0x00,0x00,0x00,0x00,0x00,0x00,0x00,0x00,0x00,0x0e,0x00,0x00,0x00,0x00,0x70,
 0xc0,0x01,0x00,0x08,0x00,0x00,0x00,0x00,0x04,0x00,0x80,0x03,0x00,0x00,0x00,
 0x00,0x00,0x00,0x00,0x00,0x00,0x00,0x00,0x00,0x00,0x00,0x00,0x00,0x00,0x0e,
 0x00,0x00,0x00,0x00,0x70,0xc0,0x01,0x00,0x08,0x00,0x00,0x00,0x00,0x04,0x00,
 0x80,0x03,0x00,0x00,0x00,0x00,0x00,0x00,0x00,0x00,0x00,0x00,0x00,0x00,0x00,
 0x00,0x00,0x00,0x00,0x70,0x00,0x00,0x00,0x00,0x80,0x33,0x00,0x00,0x07,0x00,
 0x00,0x00,0x80,0x03,0x00,0x70,0x00,0x00,0x00,0x00,0x00,0x00,0x00,0x00,0x00,
 0x00,0x00,0x00,0x00,0x00,0x00,0x00,0x00,0x00,0x80,0x00,0x00,0x00,0x00,0x00,
 0x0c,0x00,0xe0,0x00,0x00,0x00,0x00,0x70,0x00,0x00,0x08,0x00,0x00,0x00,0x00,
 0x00,0x00,0x00,0x00,0x00,0x00,0x00,0x00,0x00,0x00,0x00,0x00,0x00,0x00,0x80,
 0x00,0x00,0x00,0x00,0x00,0x0c,0x00,0xe0,0x00,0x00,0x00,0x00,0x70,0x00,0x00,
 0x08,0x00,0x00,0x00,0x00,0x00,0x00,0x00,0x00,0x00,0x00,0x00,0x00,0x00,0x00,
 0x00,0x00,0x00,0x00,0x00,0x07,0x00,0x00,0x00,0x00,0x0c,0x00,0x18,0x00,0x00,
 0x00,0x00,0x0e,0x00,0x00,0x07,0x00,0x00,0x00,0x00,0x00,0x00,0x00,0x00,0x00,
 0x00,0x00,0x00,0x00,0x00,0x00,0x00,0x00,0x00,0x00,0x38,0x00,0x00,0x00,0x00,
 0x0c,0x00,0x06,0x00,0x00,0x00,0x80,0x01,0x00,0xe0,0x00,0x00,0x00,0x00,0x00,
 0x00,0x00,0x00,0x00,0x00,0x00,0x00,0x00,0x00,0x00,0x00,0x00,0x00,0x00,0x00,
 0x38,0x00,0x00,0x00,0x00,0x0c,0x00,0x06,0x00,0x00,0x00,0x80,0x01,0x00,0xe0,
 0x00,0x00,0x00,0x00,0x00,0x00,0x00,0x00,0x00,0x00,0x00,0x00,0x00,0x00,0x00,
 0x00,0x00,0x00,0x00,0x00,0xc0,0x01,0x00,0x00,0x00,0x0c,0xc0,0x01,0x00,0x00,
 0x00,0x60,0x00,0x00,0x10,0x00,0x00,0x00,0x00,0x00,0x00,0x00,0x00,0x00,0x00,
 0x00,0x00,0x00,0x00,0x00,0x00,0x00,0x00,0x00,0x00,0x00,0x02,0x00,0x00,0x00,
 0x0c,0x38,0x00,0x00,0x00,0x00,0x1c,0x00,0x00,0x0e,0x00,0x00,0x00,0x00,0x00,
 0x00,0x00,0x00,0x00,0x00,0x00,0x00,0x00,0x00,0x00,0x00,0x00,0x00,0x00,0x00,
 0x00,0x1c,0x00,0x00,0x00,0x0c,0x06,0xf8,0x00,0x00,0x00,0x03,0x00,0xc0,0x01,
 0x00,0x00,0x00,0x00,0x00,0x00,0x00,0x00,0x00,0x00,0x00,0x00,0x00,0x00,0x00,
 0x00,0x00,0x00,0x00,0x00,0x00,0x1c,0x00,0x00,0x00,0x0c,0x06,0xf8,0x00,0x00,
 0x00,0x03,0x00,0xc0,0x01,0x00,0x00,0x00,0x00,0x00,0x00,0x00,0x00,0x00,0x00,
 0x00,0x00,0x00,0x00,0x00,0x00,0x00,0x00,0x00,0x00,0x00,0xe0,0x00,0x00,0x00,
 0xcc,0x01,0x06,0x07,0x00,0xe0,0x00,0x00,0x38,0x00,0x00,0x00,0x00,0x00,0x00,
 0x00,0x00,0x00,0x00,0x00,0x00,0x00,0x00,0x00,0x00,0x00,0x00,0x00,0x00,0x00,
 0x00,0x00,0x03,0x00,0x00,0x3c,0x80,0x01,0x38,0x00,0x1c,0x00,0x00,0x04,0x00,
 0x00,0x00,0x00,0x00,0x00,0x00,0x00,0x00,0x00,0x00,0x00,0x00,0x00,0x00,0x00,
 0x00,0x00,0x00,0x00,0x00,0x00,0x00,0x03,0x00,0x00,0x3c,0x80,0x01,0x38,0x00,
 0x1c,0x00,0x00,0x04,0x00,0x00,0x00,0x00,0x00,0x00,0x00,0x00,0x00,0x00,0x00,
 0x00,0x00,0x00,0x00,0x00,0x00,0x00,0x00,0x00,0x00,0x00,0x00,0x1c,0x00,0x00,
 0x0c,0x40,0x00,0x30,0x00,0x03,0x00,0x80,0x03,0x00,0x00,0x00,0x00,0x00,0x00,
 0x00,0x00,0x00,0x00,0x00,0x00,0x00,0x00,0x00,0x00,0x00,0x00,0x00,0x00,0x00,
 0x00,0x00,0x60,0x00,0x00,0x30,0x80,0xf9,0x38,0xc0,0x00,0x00,0x70,0x00,0x00,
 0x00,0x00,0x00,0x00,0x00,0x00,0x00,0x00,0x00,0x00,0x00,0x00,0x00,0x00,0x00,
 0x00,0x00,0x00,0x00,0x00,0x00,0x00,0x60,0x00,0x00,0x30,0x80,0xf9,0x38,0xc0,
 0x00,0x00,0x70,0x00,0x00,0x00,0x00,0x00,0x00,0x00,0x00,0x00,0x00,0x00,0x00,
 0x00,0x00,0x00,0x00,0x00,0x00,0x00,0x00,0x00,0x00,0x00,0x00,0x80,0x03,0x00,
 0xc0,0x01,0x06,0x0f,0x38,0x00,0x00,0x0e,0x00,0x00,0x00,0x00,0x00,0x00,0x00,
 0x00,0x00,0x00,0x00,0x00,0x00,0x00,0x00,0x00,0x00,0x00,0x00,0x00,0x00,0x00,
 0x00,0x00,0x00,0x0c,0x00,0x00,0x06,0xf8,0x01,0x07,0x00,0x80,0x01,0x00,0x00,
 0x00,0x00,0x00,0x00,0x00,0x00,0x00,0x00,0x00,0x00,0x00,0x00,0x00,0x00,0x00,
 0x00,0x00,0x00,0x00,0x00,0x00,0x00,0x00,0x0c,0x00,0x00,0x06,0xf8,0x01,0x07,
 0x00,0x80,0x01,0x00,0x00,0x00,0x00,0x00,0x00,0x00,0x00,0x00,0x00,0x00,0x00,
 0x00,0x00,0x00,0x00,0x00,0x00,0x00,0x00,0x00,0x00,0x00,0x00,0x00,0x70,0x00,
 0x00,0x38,0x00,0x80,0x00,0x00,0x60,0x00,0x00,0x00,0x00,0x00,0x00,0x00,0x00,
 0x00,0x00,0x00,0x00,0x00,0x00,0x00,0x00,0x00,0x00,0x00,0x00,0x00,0x00,0x00,
 0x00,0x00,0x00,0x80,0x03,0x00,0x40,0x00,0x70,0x00,0x00,0x1c,0x00,0x00,0x00,
 0x00,0x00,0x00,0x00,0x00,0x00,0x00,0x00,0x00,0x00,0x00,0x00,0x00,0x00,0x00,
 0x00,0x00,0x00,0x00,0x00,0x00,0x00,0x00,0x00,0x04,0x00,0x80,0x03,0x0e,0x00,
 0x00,0x03,0x00,0x00,0x00,0x00,0x00,0x00,0x00,0x00,0x00,0x00,0x00,0x00,0x00,
 0x00,0x00,0x00,0x00,0x00,0x00,0x00,0x00,0x00,0x00,0x00,0x00,0x00,0x00,0x04,
 0x00,0x80,0x03,0x0e,0x00,0x00,0x03,0x00,0x00,0x00,0x00,0x00,0x00,0x00,0x00,
 0x00,0x00,0x00,0x00,0x00,0x00,0x00,0x00,0x00,0x00,0x00,0x00,0x00,0x00,0x00,
 0x00,0x00,0x00,0x00,0x38,0x00,0x00,0xdc,0x01,0x00,0xe0,0x00,0x00,0x00,0x00,
 0x00,0x00,0x00,0x00,0x00,0x00,0x00,0x00,0x00,0x00,0x00,0x00,0x00,0x00,0x00,
 0x00,0x00,0x00,0x00,0x00,0x00,0x00,0x00,0x00,0xc0,0x01,0x00,0x20,0x00,0x00,
 0x1c,0x00,0x00,0x00,0x00,0x00,0x00,0x00,0x00,0x00,0x00,0x00,0x00,0x00,0x00,
 0x00,0x00,0x00,0x00,0x00,0x00,0x00,0x00,0x00,0x00,0x00,0x00,0x00,0x00,0xc0,
 0x01,0x00,0x20,0x00,0x00,0x1c,0x00,0x00,0x00,0x00,0x00,0x00,0x00,0x00,0x00,
 0x00,0x00,0x00,0x00,0x00,0x00,0x00,0x00,0x00,0x00,0x00,0x00,0x00,0x00,0x00,
 0x00,0x00,0x00,0x00,0x00,0x0e,0x00,0x20,0x00,0x00,0x03,0x00,0x00,0x00,0x00,
 0x00,0x00,0x00,0x00,0x00,0x00,0x00,0x00,0x00,0x00,0x00,0x00,0x00,0x00,0x00,
 0x00,0x00,0x00,0x00,0x00,0x00,0x00,0x00,0x00,0x00,0x10,0x00,0x20,0x00,0xc0,
 0x00,0x00,0x00,0x00,0x00,0x00,0x00,0x00,0x00,0x00,0x00,0x00,0x00,0x00,0x00,
 0x00,0x00,0x00,0x00,0x00,0x00,0x00,0x00,0x00,0x00,0x00,0x00,0x00,0x00,0x00,
 0x10,0x00,0x20,0x00,0xc0,0x00,0x00,0x00,0x00,0x00,0x00,0x00,0x00,0x00,0x00,
 0x00,0x00,0x00,0x00,0x00,0x00,0x00,0x00,0x00,0x00,0x00,0x00,0x00,0x00,0x00,
 0x00,0x00,0x00,0x00,0x00,0xe0,0x00,0x20,0x00,0x38,0x00,0x00,0x00,0x00,0x00,
 0x00,0x00,0x00,0x00,0x00,0x00,0x00,0x00,0x00,0x00,0x00,0x00,0x00,0x00,0x00,
 0x00,0x00,0x00,0x00,0x00,0x00,0x00,0x00,0x00,0x00,0x00,0x07,0x20,0x00,0x07,
 0x00,0x00,0x00,0x00,0x00,0x00,0x00,0x00,0x00,0x00,0x00,0x00,0x00,0x00,0x00,
 0x00,0x00,0x00,0x00,0x00,0x00,0x00,0x00,0x00,0x00,0x00,0x00,0x00,0x00,0x00,
 0x00,0x08,0x20,0x80,0x00,0x00,0x00,0x00,0x00,0x00,0x00,0x00,0x00,0x00,0x00,
 0x00,0x00,0x00,0x00,0x00,0x00,0x00,0x00,0x00,0x00,0x00,0x00,0x00,0x00,0x00,
 0x00,0x00,0x00,0x00,0x00,0x00,0x08,0x20,0x80,0x00,0x00,0x00,0x00,0x00,0x00,
 0x00,0x00,0x00,0x00,0x00,0x00,0x00,0x00,0x00,0x00,0x00,0x00,0x00,0x00,0x00,
 0x00,0x00,0x00,0x00,0x00,0x00,0x00,0x00,0x00,0x00,0x00,0x70,0x20,0x70,0x00,
 0x00,0x00,0x00,0x00,0x00,0x00,0x00,0x00,0x00,0x00,0x00,0x00,0x00,0x00,0x00,
 0x00,0x00,0x00,0x00,0x00,0x00,0x00,0x00,0x00,0x00,0x00,0x00,0x00,0x00,0x00,
 0x00,0x80,0x23,0x0e,0x00,0x00,0x00,0x00,0x00,0x00,0x00,0x00,0x00,0x00,0x00,
 0x00,0x00,0x00,0x00,0x00,0x00,0x00,0x00,0x00,0x00,0x00,0x00,0x00,0x00,0x00,
 0x00,0x00,0x00,0x00,0x00,0x00,0x80,0x23,0x0e,0x00,0x00,0x00,0x00,0x00,0x00,
 0x00,0x00,0x00,0x00,0x00,0x00,0x00,0x00,0x00,0x00,0x00,0x00,0x00,0x00,0x00,
 0x00,0x00,0x00,0x00,0x00,0x00,0x00,0x00,0x00,0x00,0x00,0x00,0xfc,0x01,0x00,
 0x00,0x00,0x00,0x00,0x00,0x00,0x00,0x00,0x00,0x00,0x00,0x00,0x00,0x00,0x00,
 0x00,0x00,0x00,0x00,0x00,0x00,0x00,0x00,0x00,0x00,0x00,0x00,0x00,0x00,0x00,
 0x00,0x00,0x20,0x00,0x00,0x00,0x00,0x00,0x00,0x00,0x00,0x00,0x00,0x00,0x00,
 0x00,0x00,0x00,0x00,0x00,0x00,0x00,0x00,0x00,0x00,0x00,0x00,0x00,0x00,0x00,
 0x00,0x00,0x00,0x00,0x00,0x00,0x00,0x20,0x00,0x00,0x00,0x00,0x00,0x00,0x00,
 0x00,0x00,0x00,0x00,0x00,0x00,0x00,0x00,0x00,0x00,0x00,0x00,0x00,0x00,0x00,
 0x00,0x00,0x00,0x00,0x00,0x00,0x00,0x00,0x00,0x00,0x00,0x00,0x00,0x00,0x00,
 0x00,0x00,0x00,0x00,0x00,0x00,0x00,0x00,0x00,0x00,0x00,0x00,0x00,0x00,0x00,
 0x00,0x00,0x00,0x00,0x00,0x00,0x00,0x00,0x00,0x00,0x00,0x00,0x00,0x00,0x00,
 0x00,0x00,0x00,0x00,0x00,0x00,0x00,0x00,0x00,0x00,0x00,0x00,0x00,0x00,0x00,
 0x00,0x00,0x00,0x00,0x00,0x00,0x00,0x00,0x00,0x00,0x00,0x00,0x00,0x00,0x00,
 0x00,0x00,0x00,0x00,0x00,0x00,0x00,0x00,0x00,0x00,0x00,0x00,0x00,0x00,0x00,
 0x00,0x00,0x00,0x00,0x00,0x00,0x00,0x00,0x00,0x00,0x00,0x00,0x00,0x00,0x00,
 0x00,0x00,0x00,0x00,0x00,0x00,0x00,0x00,0x00,0x00,0x00,0x00,0x00,0x00,0x00,
 0x00,0x00,0x00,0x00,0x00,0x00,0x00,0x00,0x00,0x00,0x00,0x00,0x00,0x00,0x00,
 0x00,0x00,0x00,0x00,0x00,0x00,0x00,0x00,0x00,0x00,0x00,0x00,0x00,0x00,0x00,
 0x00,0x00,0x00,0x00,0x00,0x00,0x00,0x00,0x00,0x00,0x00,0x00,0x00,0x00,0x00,
 0x00,0x00,0x00,0x00,0x00,0x00,0x00,0x00,0x00,0x00,0x00,0x00,0x00,0x00,0x00,
 0x00,0x00,0x00,0x00,0x00,0x00,0x00,0x00,0x00,0x00,0x00,0x00,0x00,0x00,0x00,
 0x00,0x00,0x00,0x00,0x00,0x00,0x00,0x00,0x00,0x00,0x00,0x00,0x00,0x00,0x00,
 0x00,0x00,0x00,0x00,0x00,0x00,0x00,0x00,0x00,0x00,0x00,0x00,0x00,0x00,0x00,
 0x00,0x00,0x00,0x00,0x00,0x00,0x00,0x00,0x00,0x00,0x00,0x00,0x00,0x00,0x00,
 0x00,0x00,0x00,0x00,0x00,0x00,0x00,0x00,0x00,0x00,0x00,0x00,0x00,0x00,0x00,
 0x00,0x00,0x00,0x00,0x00,0x00,0x00,0x00,0x00,0x00,0x00,0x00,0x00,0x00,0x00,
 0x00,0x00,0x00,0x00,0x00,0x00,0x00,0x00,0x00,0x00,0x00,0x00,0x00,0x00,0x00,
 0x00,0x00,0x00,0x00,0x00,0x00,0x00,0x00,0x00,0x00,0x00,0x00,0x00,0x00,0x00,
 0x00,0x00,0x00,0x00,0x00,0x00,0x00,0x00,0x00,0x00,0x00,0x00,0x00,0x00,0x00,
 0x00,0x00,0x00,0x00,0x00,0x00,0x00,0x00,0x00,0x00,0x00,0x00,0x00,0x00,0x00,
 0x00,0x00,0x00,0x00,0x00,0x00,0x00,0x00,0x00,0x00,0x00,0x00,0x00,0x00,0x00,
 0x00,0x00,0x00,0x00,0x00,0x00,0x00,0x00,0x00,0x00,0x00,0x00,0x00,0x00,0x00,
 0x00,0x00,0x00,0x00,0x00,0x00,0x00,0x00,0x00,0x00,0x00,0x00,0x00,0x00,0x00,
 0x00,0x00,0x00,0x00,0x00,0x00,0x00,0x00,0x00,0x00,0x00,0x00,0x00,0x00,0x00,
 0x00,0x00,0x00,0x00,0x00,0x00,0x00,0x00,0x00,0x00,0x00,0x00,0x00,0x00,0x00,
 0x00,0x00,0x00,0x00,0x00,0x00,0x00,0x00,0x00,0x00,0x00,0x00,0x00,0x00,0x00,
 0x00,0x00,0x00,0x00,0x00,0x00,0x00,0x00,0x00,0x00,0x00,0x00,0x00,0x00,0x00,
 0x00,0x00,0x00,0x00,0x00,0x00,0x00,0x00,0x00,0x00,0x00,0x00,0x00,0x00,0x00,
 0x00,0x00,0x00,0x00,0x00,0x00,0x00,0x00,0x00,0x00,0x00,0x00,0x00,0x00,0x00,
 0x00,0x00,0x00,0x00,0x00,0x00,0x00,0x00,0x00,0x00,0x00,0x00,0x00,0x00,0x00,
 0x00,0x00,0x00,0x00,0x00,0x00,0x00,0x00,0x00,0x00,0x00,0x00,0x00,0x00,0x00,
 0x00,0x00,0x00,0x00,0x00,0x00,0x00,0x00,0x00,0x00,0x00,0x00,0x00,0x00,0x00,
 0x00,0x00,0x00,0x00,0x00,0x00,0x00,0x00,0x00,0x00,0x00,0x00,0x00,0x00,0x00,
 0x00,0x00,0x00,0x00,0x00,0x00,0x00,0x00,0x00,0x00,0x00,0x00,0x00,0x00,0x00,
 0x00,0x00,0x00,0x00,0x00,0x00,0x00,0x00,0x00,0x00,0x00,0x00,0x00,0x00,0x00,
 0x00,0x00,0x00,0x00,0x00,0x00,0x00,0x00,0x00,0x00,0x00,0x00,0x00,0x00,0x00,
 0x00,0x00,0x00,0x00,0x00,0x00,0x00,0x00,0x00,0x00,0x00,0x00,0x00,0x00,0x00,
 0x00,0x00,0x00,0x00,0x00,0x00,0x00,0x00,0x00,0x00,0x00,0x00,0x00,0x00,0x00,
 0x00,0x00,0x00,0x00,0xc0,0x1f,0xf8,0xc7,0x81,0x03,0x1f,0x78,0xfc,0x07,0x00,
 0x00,0x00,0x00,0x00,0x00,0x00,0x00,0x00,0x00,0x00,0x00,0x00,0x00,0x00,0x00,
 0x00,0x00,0x00,0x00,0x00,0x00,0x00,0x00,0x00,0x40,0x20,0x08,0xc0,0x81,0xc3,
 0x60,0x84,0x01,0x04,0x00,0x00,0x00,0x00,0x00,0x00,0x00,0x00,0x00,0x00,0x00,
 0x00,0x00,0x00,0x00,0x00,0x00,0x00,0x00,0x00,0x00,0x00,0x00,0x00,0x00,0x40,
 0x20,0x08,0xc0,0x81,0xc3,0x60,0x84,0x01,0x04,0x00,0x00,0x00,0x00,0x00,0x00,
 0x00,0x00,0x00,0x00,0x00,0x00,0x00,0x00,0x00,0x00,0x00,0x00,0x00,0x00,0x00,
 0x00,0x00,0x00,0x00,0x40,0xc0,0x08,0xc0,0x46,0x23,0x80,0x84,0x01,0x03,0x00,
 0x00,0x00,0x00,0x00,0x00,0x00,0x00,0x00,0x00,0x00,0x00,0x00,0x00,0x00,0x00,
 0x00,0x00,0x00,0x00,0x00,0x00,0x00,0x00,0x00,0x40,0xc0,0x08,0xc0,0x46,0x23,
 0x80,0x84,0x81,0x00,0x00,0x00,0x00,0x00,0x00,0x00,0x00,0x00,0x00,0x00,0x00,
 0x00,0x00,0x00,0x00,0x00,0x00,0x00,0x00,0x00,0x00,0x00,0x00,0x00,0x00,0x40,
 0xc0,0x08,0xc0,0x46,0x23,0x80,0x84,0x81,0x00,0x00,0x00,0x00,0x00,0x00,0x00,
 0x00,0x00,0x00,0x00,0x00,0x00,0x00,0x00,0x00,0x00,0x00,0x00,0x00,0x00,0x00,
 0x00,0x00,0x00,0x00,0x40,0xc0,0xf8,0xc7,0x46,0x23,0x80,0x84,0x81,0x00,0x00,
 0x00,0x00,0x00,0x00,0x00,0x00,0x00,0x00,0x00,0x00,0x00,0x00,0x00,0x00,0x00,
 0x00,0x00,0x00,0x00,0x00,0x00,0x00,0x00,0x00,0x40,0xc0,0x08,0xc0,0x46,0x23,
 0x80,0x84,0x61,0x00,0x00,0x00,0x00,0x00,0x00,0x00,0x00,0x00,0x00,0x00,0x00,
 0x00,0x00,0x00,0x00,0x00,0x00,0x00,0x00,0x00,0x00,0x00,0x00,0x00,0x00,0x40,
 0xc0,0x08,0xc0,0x46,0x23,0x80,0x84,0x61,0x00,0x00,0x00,0x00,0x00,0x00,0x00,
 0x00,0x00,0x00,0x00,0x00,0x00,0x00,0x00,0x00,0x00,0x00,0x00,0x00,0x00,0x00,
 0x00,0x00,0x00,0x00,0x40,0xc0,0x08,0xc0,0x46,0x23,0x80,0x84,0x61,0x00,0x00,
 0x00,0x00,0x00,0x00,0x00,0x00,0x00,0x00,0x00,0x00,0x00,0x00,0x00,0x00,0x00,
 0x00,0x00,0x00,0x00,0x00,0x00,0x00,0x00,0x00,0x40,0x20,0x08,0xc0,0x38,0xc3,
 0x60,0x84,0x11,0x00,0x00,0x00,0x00,0x00,0x00,0x00,0x00,0x00,0x00,0x00,0x00,
 0x00,0x00,0x00,0x00,0x00,0x00,0x00,0x00,0x00,0x00,0x00,0x00,0x00,0x00,0xc0,
 0x1f,0xf8,0xc7,0x38,0x03,0x1f,0x78,0x10,0x00,0x00,0x00,0x00,0x00,0x00,0x00,
 0x00,0x00,0x00,0x00,0x00,0x00,0x00,0x00,0x00,0x00,0x00,0x00,0x00,0x00,0x00,
 0x00,0x00,0x00,0x00,0xc0,0x1f,0xf8,0xc7,0x38,0x03,0x1f,0x78,0x10,0x00,0x00,
 0x00,0x00,0x00,0x00,0x00,0x00,0x00,0x00,0x00,0x00};
