600 0 2 0           
24 FBMach with ACIS - 6.0.3 13 ACIS 6.0.3 NT 24 Tue May 22 15:33:56 2001 
1 9.9999999999999995e-007 1e-010 
body $2 $3 $-1 $4 #
bdycol-kcp $-1 1 3 $5 $6 $7 #
model_id-kcp-attrib $-1 $-1 $-1 $0 1 990560035 50 -47054847 1 #
lump $-1 $-1 $8 $0 #
transform $-1 1 0 0 0 1 0 0 0 1 0 0 0 1 no_rotate no_reflect no_shear #
body $9 $10 $-1 $11 #
body $12 $13 $-1 $14 #
body $15 $16 $-1 $17 #
shell $-1 $-1 $-1 $18 $-1 $3 #
model_id-kcp-attrib $-1 $-1 $-1 $5 1 990560035 50 -47054846 1 #
lump $-1 $-1 $19 $5 #
transform $-1 1 0 0 0 1 0 0 0 1 0 0 1.2450000000000001 1 no_rotate no_reflect no_shear #
rgb_color-st-attrib $-1 $20 $-1 $6 0.5 1 1 #
lump $-1 $-1 $21 $6 #
transform $-1 -1 0 -1.2246063538223773e-016 0 1 0 1.2246063538223773e-016 0 -1 7.5925593936987386e-017 3.5 6 1 rotate no_reflect no_shear #
rgb_color-st-attrib $-1 $22 $-1 $7 0.5 1 1 #
lump $-1 $23 $24 $7 #
transform $-1 1 0 0 0 1 0 0 0 1 0 0 1.2450000000000001 1 no_rotate no_reflect no_shear #
face $25 $26 $27 $8 $-1 $28 reversed single #
shell $-1 $-1 $-1 $29 $-1 $10 #
model_id-kcp-attrib $-1 $-1 $12 $6 1 990560035 80 -45088765 1 #
shell $-1 $-1 $-1 $30 $-1 $13 #
model_id-kcp-attrib $-1 $-1 $15 $7 1 990560035 210 -36569084 1 #
lump $-1 $31 $32 $7 #
shell $-1 $-1 $-1 $33 $-1 $16 #
model_id-kcp-attrib $-1 $34 $-1 $18 1 990560035 50 -47054847 17 #
face $35 $36 $37 $8 $-1 $38 forward single #
loop $-1 $-1 $39 $18 #
plane-surface $-1 0 0 -4.1299999999999999 0 0 1 1 0 0 forward_v I I I I #
face $40 $41 $42 $19 $-1 $43 forward single #
face $-1 $44 $45 $21 $-1 $46 forward single #
lump $-1 $47 $48 $7 #
shell $-1 $-1 $-1 $49 $-1 $23 #
face $-1 $50 $51 $24 $-1 $52 reversed single #
model_id-kcp-attrib $-1 $-1 $25 $18 1 990560035 50 -47054847 2 #
model_id-kcp-attrib $-1 $-1 $-1 $26 1 990560035 50 -47054847 3 #
face $53 $54 $55 $8 $-1 $56 forward single #
loop $-1 $57 $58 $26 #
plane-surface $-1 0 0 4.1299999999999999 0 0 1 1 0 0 forward_v I I I I #
coedge $-1 $59 $60 $61 $62 forward $27 $-1 #
model_id-kcp-attrib $-1 $-1 $-1 $29 1 990560035 50 -47054846 7 #
face $63 $64 $65 $19 $-1 $66 reversed single #
loop $-1 $-1 $67 $29 #
plane-surface $-1 0 0 5.375 0 0 1 1 0 0 forward_v I I I I #
face $-1 $68 $69 $21 $-1 $70 forward single #
loop $-1 $71 $72 $30 #
cone-surface $-1 0 0 0 0 0 1 0.19 0 0 1 I I 0 1 0.19 forward I I I I #
lump $-1 $-1 $73 $7 #
shell $-1 $-1 $-1 $74 $-1 $31 #
face $-1 $75 $76 $32 $-1 $77 reversed single #
face $-1 $78 $79 $24 $-1 $80 reversed single #
loop $-1 $-1 $81 $33 #
cone-surface $-1 -7.25 -4.125 -5.375 0 0 -1 0 -1 0 1 I I 0 1 1 forward I I I I #
model_id-kcp-attrib $-1 $-1 $-1 $36 1 990560035 50 -47054847 4 #
face $82 $83 $84 $8 $-1 $85 forward single #
loop $-1 $-1 $61 $36 #
cone-surface $-1 -7.25 4.125 -4.1299999999999999 0 0 1 1 0 0 1 I I 0 1 1 forward I I I I #
loop $-1 $-1 $86 $26 #
coedge $-1 $87 $88 $89 $90 reversed $37 $-1 #
coedge $-1 $91 $39 $92 $93 forward $27 $-1 #
coedge $-1 $39 $94 $95 $96 forward $27 $-1 #
coedge $-1 $97 $98 $39 $62 reversed $55 $-1 #
edge $99 $100 -1.5707963267948966 $101 0 $61 $102 forward 7 unknown #
model_id-kcp-attrib $-1 $-1 $-1 $41 1 990560035 50 -47054846 2 #
face $103 $104 $105 $19 $-1 $106 reversed single #
loop $-1 $-1 $107 $41 #
plane-surface $-1 0 0 -5.375 0 0 1 1 0 0 forward_v I I I I #
coedge $-1 $108 $109 $110 $111 forward $42 $-1 #
face $-1 $-1 $112 $21 $-1 $113 forward single #
loop $-1 $-1 $114 $44 #
plane-surface $-1 0 0 -0.62000000000000011 0 0 -1 -1 0 0 forward_v I I I I #
loop $-1 $-1 $115 $30 #
coedge $-1 $72 $72 $114 $116 reversed $45 $-1 #
shell $-1 $-1 $-1 $117 $-1 $47 #
face $-1 $118 $119 $48 $-1 $120 reversed single #
face $-1 $121 $122 $32 $-1 $123 reversed single #
loop $-1 $-1 $124 $49 #
plane-surface $-1 0 5.125 0 0 -1 0 0 0 -1 forward_v I I I I #
face $-1 $125 $126 $24 $-1 $127 forward single #
loop $-1 $-1 $128 $50 #
plane-surface $-1 -8.25 0 0 1 0 0 0 0 -1 forward_v I I I I #
coedge $-1 $129 $130 $131 $132 reversed $51 $-1 #
model_id-kcp-attrib $-1 $-1 $-1 $54 1 990560035 50 -47054847 5 #
face $133 $134 $135 $8 $-1 $136 forward single #
loop $-1 $-1 $95 $54 #
plane-surface $-1 -8.25 4.125 -4.1299999999999999 -1 0 0 0 0 1 forward_v I I I I #
coedge $-1 $86 $86 $137 $138 forward $57 $-1 #
coedge $-1 $139 $58 $140 $141 reversed $37 $-1 #
coedge $-1 $58 $142 $143 $144 reversed $37 $-1 #
coedge $-1 $98 $97 $58 $90 forward $55 $-1 #
edge $-1 $145 -1.5707963267948966 $146 0 $89 $147 forward 7 unknown #
coedge $-1 $148 $59 $149 $150 forward $27 $-1 #
coedge $-1 $151 $152 $59 $93 reversed $153 $-1 #
edge $154 $101 -14.5 $155 0 $92 $156 forward 7 unknown #
coedge $-1 $60 $157 $158 $159 forward $27 $-1 #
coedge $-1 $160 $161 $60 $96 reversed $84 $-1 #
edge $162 $163 -8.25 $100 0 $95 $164 forward 7 unknown #
coedge $-1 $89 $61 $161 $165 reversed $55 $-1 #
coedge $-1 $61 $89 $151 $166 forward $55 $-1 #
attrib_edge_convexity-kcp-attrib $-1 $167 $-1 $62 1 #
vertex $-1 $165 $168 #
vertex $-1 $166 $169 #
ellipse-curve $-1 -7.25 4.125 -4.1299999999999999 0 0 -1 0 1 0 1 I I #
model_id-kcp-attrib $-1 $-1 $-1 $64 1 990560035 50 -47054846 4 #
face $170 $171 $172 $19 $-1 $173 reversed single #
loop $-1 $-1 $174 $64 #
plane-surface $-1 0 -5.125 0 0 1 0 0 0 1 forward_v I I I I #
coedge $-1 $175 $176 $177 $178 forward $65 $-1 #
coedge $-1 $179 $67 $180 $181 forward $42 $-1 #
coedge $-1 $67 $179 $182 $183 forward $42 $-1 #
coedge $-1 $184 $185 $67 $111 reversed $186 $-1 #
edge $-1 $187 -5.125 $188 5.125 $110 $189 forward 7 unknown #
loop $-1 $-1 $190 $68 #
plane-surface $-1 0 0 0.62000000000000011 0 0 1 1 0 0 forward_v I I I I #
coedge $-1 $114 $114 $72 $116 forward $69 $-1 #
coedge $-1 $115 $115 $190 $191 reversed $71 $-1 #
edge $-1 $192 0 $192 6.2831853071795862 $114 $193 forward 7 unknown #
face $-1 $194 $195 $73 $-1 $196 reversed single #
face $-1 $197 $198 $48 $-1 $80 reversed single #
loop $-1 $-1 $199 $74 #
cone-surface $-1 -7.25 4.125 -5.375 0 0 -1 -1 0 0 1 I I 0 1 1 forward I I I I #
face $-1 $200 $201 $32 $-1 $196 reversed single #
loop $-1 $-1 $202 $75 #
plane-surface $-1 0 0 -5.375 0 0 1 1 0 0 forward_v I I I I #
coedge $-1 $203 $204 $205 $206 reversed $76 $-1 #
face $-1 $207 $208 $24 $-1 $123 reversed single #
loop $-1 $-1 $131 $78 #
plane-surface $-1 0 0 5.375 0 0 1 1 0 0 forward_v I I I I #
coedge $-1 $209 $210 $130 $211 forward $79 $-1 #
coedge $-1 $212 $81 $213 $214 forward $51 $-1 #
coedge $-1 $81 $212 $128 $211 reversed $51 $-1 #
coedge $-1 $215 $216 $81 $132 forward $126 $-1 #
edge $-1 $217 0 $218 1.5707963267948966 $131 $219 forward 7 unknown #
model_id-kcp-attrib $-1 $-1 $-1 $83 1 990560035 50 -47054847 6 #
face $220 $221 $222 $8 $-1 $223 forward single #
loop $-1 $-1 $158 $83 #
cone-surface $-1 -7.25 -4.125 -4.1299999999999999 0 0 1 1 0 0 1 I I 0 1 1 forward I I I I #
coedge $-1 $137 $137 $86 $138 reversed $224 $-1 #
edge $-1 $225 -3.1415926535897931 $225 3.1415926535897931 $137 $226 forward 7 unknown #
coedge $-1 $227 $87 $228 $229 reversed $37 $-1 #
coedge $-1 $161 $160 $87 $141 forward $84 $-1 #
edge $230 $231 -8.25 $145 0 $140 $232 forward 7 unknown #
coedge $-1 $88 $233 $234 $235 reversed $37 $-1 #
coedge $-1 $152 $151 $88 $144 forward $153 $-1 #
edge $236 $146 -14.5 $237 0 $143 $238 forward 7 unknown #
vertex $-1 $165 $239 #
vertex $-1 $166 $240 #
ellipse-curve $-1 -7.25 4.125 4.1299999999999999 0 0 -1 0 1 0 1 I I #
coedge $-1 $241 $91 $242 $243 forward $27 $-1 #
coedge $-1 $244 $245 $91 $150 reversed $246 $-1 #
edge $247 $155 -1.5707963267948966 $248 0 $149 $249 forward 7 unknown #
coedge $-1 $143 $92 $98 $166 reversed $153 $-1 #
coedge $-1 $92 $143 $244 $250 forward $153 $-1 #
loop $-1 $-1 $92 $251 #
attrib_edge_convexity-kcp-attrib $-1 $252 $-1 $93 1 #
vertex $-1 $250 $253 #
straight-curve $-1 7.25 5.125 -4.1299999999999999 1 0 0 I I #
coedge $-1 $94 $241 $254 $255 forward $27 $-1 #
coedge $-1 $256 $257 $94 $159 reversed $135 $-1 #
edge $258 $259 -1.5707963267948966 $163 0 $158 $260 forward 7 unknown #
coedge $-1 $140 $95 $257 $261 reversed $84 $-1 #
coedge $-1 $95 $140 $97 $165 forward $84 $-1 #
attrib_edge_convexity-kcp-attrib $-1 $262 $-1 $96 1 #
vertex $-1 $261 $263 #
straight-curve $-1 -8.25 4.125 -4.1299999999999999 0 1 0 I I #
edge $264 $145 -8.2599999999999998 $100 0 $161 $265 forward 7 unknown #
edge $-1 $146 -8.2599999999999998 $101 0 $151 $266 forward 7 unknown #
convexity-sys-attrib $-1 $-1 $99 $62 #
point $-1 -8.25 4.125 -4.1299999999999999 #
point $-1 -7.25 5.125 -4.1299999999999999 #
model_id-kcp-attrib $-1 $-1 $-1 $104 1 990560035 50 -47054846 3 #
face $267 $268 $269 $19 $-1 $270 reversed single #
loop $-1 $-1 $271 $104 #
plane-surface $-1 -8.25 0 0 1 0 0 0 0 -1 forward_v I I I I #
coedge $-1 $272 $182 $273 $274 forward $105 $-1 #
coedge $-1 $275 $107 $272 $276 forward $65 $-1 #
coedge $-1 $107 $275 $277 $278 forward $65 $-1 #
coedge $-1 $185 $184 $107 $178 reversed $186 $-1 #
edge $-1 $279 -5.125 $280 5.125 $177 $281 forward 7 unknown #
coedge $-1 $109 $108 $282 $283 forward $42 $-1 #
coedge $-1 $284 $285 $108 $181 reversed $269 $-1 #
edge $-1 $188 -8.25 $286 8.25 $180 $287 forward 7 unknown #
coedge $-1 $174 $288 $109 $183 reversed $105 $-1 #
edge $-1 $289 -8.25 $187 8.25 $182 $290 forward 7 unknown #
coedge $-1 $177 $110 $288 $291 forward $186 $-1 #
coedge $-1 $110 $177 $284 $292 reversed $186 $-1 #
loop $-1 $-1 $184 $268 #
vertex $-1 $111 $293 #
vertex $-1 $111 $294 #
straight-curve $-1 8.25 0 5.375 0 1 0 I I #
coedge $-1 $190 $190 $115 $191 forward $112 $-1 #
edge $-1 $295 0 $295 6.2831853071795862 $190 $296 forward 7 unknown #
vertex $-1 $116 $297 #
ellipse-curve $-1 0 0 -0.62000000000000011 0 0 -1 0.19 0 0 1 I I #
face $-1 $298 $299 $73 $-1 $123 reversed single #
loop $-1 $-1 $300 $117 #
plane-surface $-1 8.25 0 0 -1 0 0 0 0 1 forward_v I I I I #
face $-1 $301 $302 $48 $-1 $127 forward single #
loop $-1 $-1 $303 $118 #
coedge $-1 $304 $305 $306 $307 reversed $119 $-1 #
face $-1 $308 $309 $32 $-1 $127 forward single #
loop $-1 $-1 $310 $121 #
coedge $-1 $311 $312 $313 $314 forward $122 $-1 #
coedge $-1 $315 $124 $316 $317 reversed $76 $-1 #
coedge $-1 $124 $315 $311 $318 reversed $76 $-1 #
coedge $-1 $313 $319 $124 $206 forward $320 $-1 #
edge $-1 $321 -10.75 $322 0 $124 $323 forward 7 unknown #
face $-1 $-1 $324 $24 $-1 $325 reversed single #
loop $-1 $-1 $326 $125 #
coedge $-1 $327 $128 $328 $329 reversed $79 $-1 #
coedge $-1 $128 $327 $215 $330 reversed $79 $-1 #
edge $-1 $218 -10.75 $331 0 $128 $332 forward 7 unknown #
coedge $-1 $130 $129 $326 $333 reversed $51 $-1 #
coedge $-1 $334 $335 $129 $214 reversed $324 $-1 #
edge $-1 $217 -10.75 $336 0 $213 $337 forward 7 unknown #
coedge $-1 $216 $131 $210 $330 forward $126 $-1 #
coedge $-1 $131 $215 $334 $338 forward $126 $-1 #
vertex $-1 $132 $339 #
vertex $-1 $330 $340 #
ellipse-curve $-1 -7.25 -4.125 5.375 0 0 -1 0 -1 0 1 I I #
model_id-kcp-attrib $-1 $-1 $-1 $134 1 990560035 50 -47054847 7 #
face $341 $342 $343 $8 $-1 $344 forward single #
loop $-1 $-1 $254 $134 #
plane-surface $-1 -7.25 -5.125 -4.1299999999999999 0 -1 0 0 0 -1 forward_v I I I I #
loop $-1 $345 $137 $346 #
vertex $-1 $138 $347 #
ellipse-curve $-1 0 0 4.1299999999999999 0 0 -1 -3 0 0 1 I I #
coedge $-1 $348 $139 $349 $350 reversed $37 $-1 #
coedge $-1 $257 $256 $139 $229 forward $135 $-1 #
edge $-1 $351 -1.5707963267948966 $231 0 $228 $352 forward 7 unknown #
model_id-kcp-attrib $-1 $353 $-1 $141 1 990560035 50 -47054847 20 #
vertex $-1 $261 $354 #
straight-curve $-1 -8.25 4.125 4.1299999999999999 0 1 0 I I #
coedge $-1 $142 $348 $355 $356 reversed $37 $-1 #
coedge $-1 $245 $244 $142 $235 forward $246 $-1 #
edge $-1 $237 -1.5707963267948966 $357 0 $234 $358 forward 7 unknown #
model_id-kcp-attrib $-1 $-1 $-1 $144 1 990560035 50 -47054847 21 #
vertex $-1 $250 $359 #
straight-curve $-1 7.25 5.125 4.1299999999999999 1 0 0 I I #
point $-1 -8.25 4.125 4.1299999999999999 #
point $-1 -7.25 5.125 4.1299999999999999 #
coedge $-1 $157 $148 $360 $361 forward $27 $-1 #
coedge $-1 $362 $363 $148 $243 reversed $364 $-1 #
edge $365 $248 -8.25 $366 0 $242 $367 forward 7 unknown #
coedge $-1 $234 $149 $152 $250 reversed $246 $-1 #
coedge $-1 $149 $234 $362 $368 forward $246 $-1 #
loop $-1 $-1 $149 $369 #
attrib_edge_convexity-kcp-attrib $-1 $370 $-1 $150 1 #
vertex $-1 $368 $371 #
ellipse-curve $-1 7.25 4.125 -4.1299999999999999 0 0 -1 1 0 0 1 I I #
edge $-1 $237 -8.2599999999999998 $155 0 $152 $372 forward 7 unknown #
face $373 $346 $153 $8 $-1 $374 forward single #
convexity-sys-attrib $-1 $-1 $154 $93 #
point $-1 7.25 5.125 -4.1299999999999999 #
coedge $-1 $375 $376 $157 $255 reversed $222 $-1 #
edge $377 $378 -14.5 $259 0 $254 $379 forward 7 unknown #
coedge $-1 $228 $158 $376 $380 reversed $135 $-1 #
coedge $-1 $158 $228 $160 $261 forward $135 $-1 #
attrib_edge_convexity-kcp-attrib $-1 $381 $-1 $159 1 #
vertex $-1 $380 $382 #
ellipse-curve $-1 -7.25 -4.125 -4.1299999999999999 0 0 -1 -1 0 0 1 I I #
edge $383 $231 -8.2599999999999998 $163 0 $257 $384 forward 7 unknown #
convexity-sys-attrib $-1 $-1 $162 $96 #
point $-1 -8.25 -4.125 -4.1299999999999999 #
attrib_edge_convexity-kcp-attrib $-1 $385 $-1 $165 3 #
straight-curve $-1 -8.25 4.125 -4.1299999999999999 0 0 -1 I I #
straight-curve $-1 -7.25 5.125 -4.1299999999999999 0 0 -1 I I #
model_id-kcp-attrib $-1 $-1 $-1 $171 1 990560035 50 -47054846 6 #
face $386 $-1 $186 $19 $-1 $387 reversed single #
loop $-1 $-1 $284 $171 #
plane-surface $-1 0 5.125 0 0 -1 0 0 0 -1 forward_v I I I I #
coedge $-1 $388 $282 $285 $389 forward $172 $-1 #
coedge $-1 $288 $174 $175 $276 reversed $105 $-1 #
coedge $-1 $282 $388 $174 $274 reversed $172 $-1 #
edge $-1 $289 -5.375 $390 5.375 $273 $391 forward 7 unknown #
coedge $-1 $176 $175 $388 $392 forward $65 $-1 #
edge $-1 $280 -8.25 $390 8.25 $272 $393 forward 7 unknown #
coedge $-1 $285 $284 $176 $278 reversed $269 $-1 #
edge $-1 $394 -8.25 $279 8.25 $277 $395 forward 7 unknown #
vertex $-1 $178 $396 #
vertex $-1 $291 $397 #
straight-curve $-1 8.25 0 -5.375 0 -1 0 I I #
coedge $-1 $271 $273 $179 $283 reversed $172 $-1 #
edge $-1 $286 -5.125 $289 5.125 $282 $398 forward 7 unknown #
coedge $-1 $277 $180 $185 $292 forward $269 $-1 #
coedge $-1 $180 $277 $271 $389 reversed $269 $-1 #
vertex $-1 $181 $399 #
straight-curve $-1 0 5.125 5.375 -1 0 0 I I #
coedge $-1 $182 $272 $184 $291 reversed $105 $-1 #
vertex $-1 $283 $400 #
straight-curve $-1 0 -5.125 5.375 1 0 0 I I #
edge $-1 $187 -5.375 $280 5.375 $184 $401 forward 7 unknown #
edge $-1 $188 -5.375 $279 5.375 $185 $402 forward 7 unknown #
point $-1 8.25 -5.125 5.375 #
point $-1 8.25 5.125 5.375 #
vertex $-1 $191 $403 #
ellipse-curve $-1 0 0 0.62000000000000011 0 0 1 0.19 0 0 1 I I #
point $-1 0.19 0 -0.62000000000000011 #
face $-1 $404 $405 $73 $-1 $127 forward single #
loop $-1 $-1 $406 $194 #
coedge $-1 $407 $408 $409 $410 reversed $195 $-1 #
face $-1 $411 $412 $48 $-1 $77 reversed single #
loop $-1 $-1 $306 $197 #
coedge $-1 $413 $414 $304 $415 reversed $198 $-1 #
coedge $-1 $416 $199 $303 $415 forward $119 $-1 #
coedge $-1 $199 $416 $417 $418 reversed $119 $-1 #
coedge $-1 $419 $420 $199 $307 forward $302 $-1 #
edge $-1 $421 0 $422 1.5707963267948966 $306 $423 forward 7 unknown #
face $-1 $-1 $320 $32 $-1 $424 reversed single #
loop $-1 $-1 $425 $200 #
coedge $-1 $426 $427 $428 $429 forward $201 $-1 #
coedge $-1 $312 $202 $204 $318 forward $122 $-1 #
coedge $-1 $202 $311 $426 $430 forward $122 $-1 #
coedge $-1 $428 $205 $202 $314 reversed $320 $-1 #
edge $-1 $431 -1.5707963267948966 $322 0 $202 $432 forward 7 unknown #
coedge $-1 $204 $203 $433 $434 forward $76 $-1 #
coedge $-1 $425 $435 $203 $317 forward $309 $-1 #
edge $-1 $436 -8.25 $321 -7.25 $203 $437 forward 7 unknown #
edge $-1 $322 7.25 $438 8.25 $204 $439 forward 7 unknown #
coedge $-1 $205 $428 $425 $440 reversed $320 $-1 #
loop $-1 $-1 $319 $308 #
vertex $-1 $206 $441 #
vertex $-1 $318 $442 #
straight-curve $-1 7.25 5.125 -5.375 0 0 -1 I I #
loop $-1 $-1 $213 $207 #
plane-surface $-1 0 -5.125 0 0 1 0 0 0 1 forward_v I I I I #
coedge $-1 $443 $328 $212 $333 forward $208 $-1 #
coedge $-1 $210 $209 $444 $445 reversed $79 $-1 #
coedge $-1 $326 $443 $209 $329 forward $208 $-1 #
edge $-1 $446 -5.125 $331 -4.125 $209 $447 forward 7 unknown #
edge $-1 $218 4.125 $448 5.125 $210 $449 forward 7 unknown #
vertex $-1 $211 $450 #
straight-curve $-1 -8.25 -4.125 -5.375 0 0 -1 I I #
edge $-1 $331 -1.5707963267948966 $336 0 $326 $451 forward 7 unknown #
coedge $-1 $444 $213 $216 $338 reversed $324 $-1 #
coedge $-1 $213 $444 $443 $452 reversed $324 $-1 #
vertex $-1 $452 $453 #
straight-curve $-1 -7.25 -5.125 -5.375 0 0 -1 I I #
edge $-1 $448 -8.25 $217 -7.25 $334 $454 forward 7 unknown #
point $-1 -7.25 -5.125 5.375 #
point $-1 -8.25 -4.125 5.375 #
model_id-kcp-attrib $-1 $-1 $-1 $221 1 990560035 50 -47054847 8 #
face $455 $369 $364 $8 $-1 $456 forward single #
loop $-1 $-1 $360 $221 #
cone-surface $-1 7.25 -4.125 -4.1299999999999999 0 0 1 1 0 0 1 I I 0 1 1 forward I I I I #
loop $-1 $-1 $457 $346 #
face $458 $459 $224 $8 $-1 $460 forward single #
point $-1 3 0 4.1299999999999999 #
coedge $-1 $233 $227 $461 $462 reversed $37 $-1 #
coedge $-1 $376 $375 $227 $350 forward $222 $-1 #
edge $463 $464 -14.5 $351 0 $349 $465 forward 7 unknown #
vertex $-1 $380 $466 #
ellipse-curve $-1 -7.25 -4.125 4.1299999999999999 0 0 -1 -1 0 0 1 I I #
attrib_edge_convexity-kcp-attrib $-1 $467 $230 $141 1 #
point $-1 -8.25 -4.125 4.1299999999999999 #
coedge $-1 $363 $362 $233 $356 forward $364 $-1 #
edge $468 $357 -8.25 $469 0 $355 $470 forward 7 unknown #
vertex $-1 $368 $471 #
ellipse-curve $-1 7.25 4.125 4.1299999999999999 0 0 -1 1 0 0 1 I I #
point $-1 7.25 5.125 4.1299999999999999 #
coedge $-1 $472 $473 $241 $361 reversed $343 $-1 #
edge $474 $366 -1.5707963267948966 $378 0 $360 $475 forward 7 unknown #
coedge $-1 $355 $242 $245 $368 reversed $364 $-1 #
coedge $-1 $242 $355 $472 $476 forward $364 $-1 #
loop $-1 $-1 $242 $342 #
attrib_edge_convexity-kcp-attrib $-1 $477 $-1 $243 1 #
vertex $-1 $476 $478 #
straight-curve $-1 8.25 -4.125 -4.1299999999999999 0 -1 0 I I #
edge $-1 $357 -8.2599999999999998 $248 0 $245 $479 forward 7 unknown #
face $480 $251 $246 $8 $-1 $481 forward single #
convexity-sys-attrib $-1 $-1 $247 $150 #
point $-1 8.25 4.125 -4.1299999999999999 #
straight-curve $-1 7.25 5.125 -4.1299999999999999 0 0 -1 I I #
model_id-kcp-attrib $-1 $-1 $-1 $251 1 990560035 50 -47054847 11 #
plane-surface $-1 7.25 5.125 -4.1299999999999999 0 1 0 0 0 1 forward_v I I I I #
coedge $-1 $349 $254 $473 $482 reversed $222 $-1 #
coedge $-1 $254 $349 $256 $380 forward $222 $-1 #
attrib_edge_convexity-kcp-attrib $-1 $483 $-1 $255 1 #
vertex $-1 $482 $484 #
straight-curve $-1 -7.25 -5.125 -4.1299999999999999 -1 0 0 I I #
edge $485 $351 -8.2599999999999998 $259 0 $376 $486 forward 7 unknown #
convexity-sys-attrib $-1 $-1 $258 $159 #
point $-1 -7.25 -5.125 -4.1299999999999999 #
attrib_edge_convexity-kcp-attrib $-1 $487 $-1 $261 3 #
straight-curve $-1 -8.25 -4.125 -4.1299999999999999 0 0 -1 I I #
convexity-sys-attrib $-1 $-1 $264 $165 #
model_id-kcp-attrib $-1 $-1 $-1 $268 1 990560035 50 -47054846 5 #
plane-surface $-1 8.25 0 0 -1 0 0 0 0 1 forward_v I I I I #
coedge $-1 $273 $271 $275 $392 reversed $172 $-1 #
edge $-1 $286 -5.375 $394 5.375 $285 $488 forward 7 unknown #
vertex $-1 $392 $489 #
straight-curve $-1 -8.25 -5.125 0 0 0 -1 I I #
edge $-1 $390 -5.125 $394 5.125 $388 $490 forward 7 unknown #
straight-curve $-1 0 -5.125 -5.375 -1 0 0 I I #
vertex $-1 $278 $491 #
straight-curve $-1 0 5.125 -5.375 1 0 0 I I #
point $-1 8.25 5.125 -5.375 #
point $-1 8.25 -5.125 -5.375 #
straight-curve $-1 -8.25 0 5.375 0 -1 0 I I #
point $-1 -8.25 5.125 5.375 #
point $-1 -8.25 -5.125 5.375 #
straight-curve $-1 8.25 -5.125 0 0 0 -1 I I #
straight-curve $-1 8.25 5.125 0 0 0 -1 I I #
point $-1 0.19 0 0.62000000000000011 #
face $-1 $492 $493 $73 $-1 $325 reversed single #
loop $-1 $-1 $494 $298 #
coedge $-1 $495 $496 $497 $498 forward $299 $-1 #
coedge $-1 $499 $300 $500 $501 reversed $195 $-1 #
coedge $-1 $300 $499 $495 $502 reversed $195 $-1 #
coedge $-1 $497 $503 $300 $410 forward $504 $-1 #
edge $-1 $505 -10.75 $506 0 $300 $507 forward 7 unknown #
face $-1 $-1 $508 $48 $-1 $123 reversed single #
loop $-1 $-1 $417 $301 #
coedge $-1 $509 $303 $420 $510 reversed $198 $-1 #
coedge $-1 $303 $509 $511 $512 reversed $198 $-1 #
edge $-1 $421 -10.75 $513 0 $303 $514 forward 7 unknown #
coedge $-1 $305 $304 $515 $516 reversed $119 $-1 #
coedge $-1 $517 $518 $305 $418 forward $412 $-1 #
edge $-1 $422 -10.75 $519 0 $417 $520 forward 7 unknown #
coedge $-1 $420 $306 $518 $521 forward $302 $-1 #
coedge $-1 $306 $419 $413 $510 forward $302 $-1 #
vertex $-1 $307 $522 #
vertex $-1 $521 $523 #
ellipse-curve $-1 -7.25 4.125 5.375 0 0 -1 -1 0 0 1 I I #
cone-surface $-1 7.25 4.125 -5.375 0 0 -1 0 1 0 1 I I 0 1 1 forward I I I I #
coedge $-1 $435 $316 $319 $440 forward $309 $-1 #
coedge $-1 $433 $310 $312 $430 reversed $201 $-1 #
coedge $-1 $310 $433 $435 $524 reversed $201 $-1 #
coedge $-1 $319 $313 $310 $429 reversed $320 $-1 #
edge $-1 $525 -10.75 $431 0 $310 $526 forward 7 unknown #
edge $-1 $438 -5.125 $431 -4.125 $426 $527 forward 7 unknown #
vertex $-1 $314 $528 #
ellipse-curve $-1 7.25 4.125 -5.375 0 0 1 0 1 0 1 I I #
coedge $-1 $427 $426 $315 $434 reversed $201 $-1 #
edge $-1 $436 -5.375 $438 5.375 $433 $529 forward 7 unknown #
coedge $-1 $316 $425 $427 $524 forward $309 $-1 #
vertex $-1 $524 $530 #
straight-curve $-1 0 5.125 5.375 -1 0 0 I I #
vertex $-1 $430 $531 #
straight-curve $-1 0 5.125 -5.375 1 0 0 I I #
edge $-1 $321 0 $525 1.5707963267948966 $425 $532 forward 7 unknown #
point $-1 7.25 5.125 5.375 #
point $-1 7.25 5.125 -5.375 #
coedge $-1 $328 $326 $335 $452 forward $208 $-1 #
coedge $-1 $335 $334 $327 $445 forward $324 $-1 #
edge $-1 $448 -5.375 $446 5.375 $327 $533 forward 7 unknown #
vertex $-1 $329 $534 #
straight-curve $-1 -8.25 0 -5.375 0 1 0 I I #
vertex $-1 $330 $535 #
straight-curve $-1 -8.25 0 5.375 0 -1 0 I I #
point $-1 -8.25 -4.125 -5.375 #
ellipse-curve $-1 -7.25 -4.125 -5.375 0 0 1 0 -1 0 1 I I #
edge $-1 $336 7.25 $446 8.25 $335 $536 forward 7 unknown #
point $-1 -7.25 -5.125 -5.375 #
straight-curve $-1 0 -5.125 5.375 1 0 0 I I #
model_id-kcp-attrib $-1 $-1 $-1 $342 1 990560035 50 -47054847 9 #
plane-surface $-1 8.25 -4.125 -4.1299999999999999 1 0 0 0 0 -1 forward_v I I I I #
coedge $-1 $457 $457 $537 $538 forward $345 $-1 #
model_id-kcp-attrib $-1 $-1 $-1 $346 1 990560035 50 -47054847 12 #
face $539 $540 $541 $8 $-1 $542 reversed single #
cone-surface $-1 0 0 4.1299999999999999 0 0 1 3 0 0 1 I I 0 1 3 forward I I I I #
coedge $-1 $473 $472 $348 $462 forward $343 $-1 #
edge $-1 $469 -1.5707963267948966 $464 0 $461 $543 forward 7 unknown #
model_id-kcp-attrib $-1 $544 $-1 $350 1 990560035 50 -47054847 19 #
vertex $-1 $482 $545 #
straight-curve $-1 -7.25 -5.125 4.1299999999999999 -1 0 0 I I #
point $-1 -7.25 -5.125 4.1299999999999999 #
convexity-sys-attrib $-1 $-1 $353 $141 #
model_id-kcp-attrib $-1 $-1 $-1 $356 1 990560035 50 -47054847 18 #
vertex $-1 $476 $546 #
straight-curve $-1 8.25 -4.125 4.1299999999999999 0 -1 0 I I #
point $-1 8.25 4.125 4.1299999999999999 #
coedge $-1 $461 $360 $363 $476 reversed $343 $-1 #
coedge $-1 $360 $461 $375 $482 forward $343 $-1 #
attrib_edge_convexity-kcp-attrib $-1 $547 $-1 $361 1 #
ellipse-curve $-1 7.25 -4.125 -4.1299999999999999 0 0 -1 0 -1 0 1 I I #
edge $-1 $469 -8.2599999999999998 $366 0 $363 $548 forward 7 unknown #
convexity-sys-attrib $-1 $-1 $365 $243 #
point $-1 8.25 -4.125 -4.1299999999999999 #
straight-curve $-1 8.25 4.125 -4.1299999999999999 0 0 -1 I I #
model_id-kcp-attrib $-1 $-1 $-1 $369 1 990560035 50 -47054847 10 #
cone-surface $-1 7.25 4.125 -4.1299999999999999 0 0 1 1 0 0 1 I I 0 1 1 forward I I I I #
edge $549 $464 -8.2599999999999998 $378 0 $473 $550 forward 7 unknown #
convexity-sys-attrib $-1 $-1 $377 $255 #
point $-1 7.25 -5.125 -4.1299999999999999 #
attrib_edge_convexity-kcp-attrib $-1 $551 $-1 $380 3 #
straight-curve $-1 -7.25 -5.125 -4.1299999999999999 0 0 -1 I I #
convexity-sys-attrib $-1 $-1 $383 $261 #
straight-curve $-1 -8.25 5.125 0 0 0 -1 I I #
point $-1 -8.25 -5.125 -5.375 #
straight-curve $-1 -8.25 0 -5.375 0 1 0 I I #
point $-1 -8.25 5.125 -5.375 #
face $-1 $-1 $504 $73 $-1 $552 reversed single #
loop $-1 $-1 $553 $404 #
coedge $-1 $554 $500 $503 $555 forward $405 $-1 #
coedge $-1 $496 $406 $408 $502 forward $299 $-1 #
coedge $-1 $406 $495 $556 $557 forward $299 $-1 #
coedge $-1 $558 $409 $406 $498 reversed $504 $-1 #
edge $-1 $559 -1.5707963267948966 $506 0 $406 $560 forward 7 unknown #
coedge $-1 $408 $407 $561 $562 forward $195 $-1 #
coedge $-1 $494 $554 $407 $501 forward $405 $-1 #
edge $-1 $563 -5.125 $505 -4.125 $407 $564 forward 7 unknown #
edge $-1 $506 4.125 $565 5.125 $408 $527 forward 7 unknown #
coedge $-1 $409 $558 $494 $555 reversed $504 $-1 #
loop $-1 $-1 $503 $492 #
vertex $-1 $410 $566 #
vertex $-1 $502 $567 #
straight-curve $-1 8.25 -4.125 -5.375 0 0 -1 I I #
loop $-1 $-1 $515 $411 #
coedge $-1 $414 $413 $568 $569 forward $198 $-1 #
edge $-1 $570 -5.125 $421 -4.125 $413 $449 forward 7 unknown #
coedge $-1 $571 $515 $414 $512 forward $508 $-1 #
edge $-1 $513 4.125 $572 5.125 $414 $447 forward 7 unknown #
vertex $-1 $512 $573 #
straight-curve $-1 -8.25 4.125 -5.375 0 0 -1 I I #
coedge $-1 $511 $571 $416 $516 forward $508 $-1 #
edge $-1 $519 -1.5707963267948966 $513 0 $515 $574 forward 7 unknown #
coedge $-1 $568 $417 $571 $575 reversed $412 $-1 #
coedge $-1 $417 $568 $419 $521 reversed $412 $-1 #
vertex $-1 $418 $576 #
straight-curve $-1 -7.25 5.125 -5.375 0 0 -1 I I #
edge $-1 $422 7.25 $570 8.25 $518 $437 forward 7 unknown #
point $-1 -8.25 4.125 5.375 #
point $-1 -7.25 5.125 5.375 #
edge $-1 $525 4.125 $436 5.125 $427 $564 forward 7 unknown #
vertex $-1 $524 $577 #
straight-curve $-1 8.25 4.125 -5.375 0 0 -1 I I #
straight-curve $-1 8.25 0 -5.375 0 -1 0 I I #
point $-1 8.25 4.125 -5.375 #
straight-curve $-1 8.25 5.125 0 0 0 -1 I I #
point $-1 8.25 5.125 5.375 #
point $-1 8.25 5.125 -5.375 #
ellipse-curve $-1 7.25 4.125 5.375 0 0 -1 0 1 0 1 I I #
straight-curve $-1 -8.25 -5.125 0 0 0 -1 I I #
point $-1 -8.25 -5.125 -5.375 #
point $-1 -8.25 -5.125 5.375 #
straight-curve $-1 0 -5.125 -5.375 -1 0 0 I I #
coedge $-1 $537 $537 $457 $538 reversed $578 $-1 #
edge $-1 $579 -3.1415926535897931 $579 3.1415926535897931 $537 $580 forward 7 unknown #
model_id-kcp-attrib $-1 $-1 $-1 $459 1 990560035 50 -47054847 13 #
face $581 $582 $583 $8 $-1 $584 forward single #
loop $-1 $578 $585 $459 #
plane-surface $-1 0 0 5.3799999999999999 0 0 1 1 0 0 forward_v I I I I #
ellipse-curve $-1 7.25 -4.125 4.1299999999999999 0 0 -1 0 -1 0 1 I I #
attrib_edge_convexity-kcp-attrib $-1 $586 $463 $350 1 #
point $-1 7.25 -5.125 4.1299999999999999 #
point $-1 8.25 -4.125 4.1299999999999999 #
convexity-sys-attrib $-1 $-1 $474 $361 #
straight-curve $-1 8.25 -4.125 -4.1299999999999999 0 0 -1 I I #
attrib_edge_convexity-kcp-attrib $-1 $587 $-1 $482 3 #
straight-curve $-1 7.25 -5.125 -4.1299999999999999 0 0 -1 I I #
convexity-sys-attrib $-1 $-1 $485 $380 #
cone-surface $-1 7.25 -4.125 -5.375 0 0 -1 1 0 0 1 I I 0 1 1 forward I I I I #
coedge $-1 $556 $588 $558 $589 forward $493 $-1 #
coedge $-1 $500 $494 $588 $590 forward $405 $-1 #
edge $-1 $505 0 $591 1.5707963267948966 $494 $592 forward 7 unknown #
coedge $-1 $561 $553 $496 $557 reversed $493 $-1 #
edge $-1 $565 -8.25 $559 -7.25 $556 $536 forward 7 unknown #
coedge $-1 $503 $497 $553 $589 reversed $504 $-1 #
vertex $-1 $498 $593 #
ellipse-curve $-1 7.25 -4.125 -5.375 0 0 1 1 0 0 1 I I #
coedge $-1 $588 $556 $499 $562 reversed $493 $-1 #
edge $-1 $563 -5.375 $565 5.375 $499 $594 forward 7 unknown #
vertex $-1 $501 $595 #
straight-curve $-1 8.25 0 5.375 0 1 0 I I #
vertex $-1 $562 $596 #
point $-1 8.25 -4.125 5.375 #
point $-1 8.25 -4.125 -5.375 #
coedge $-1 $518 $517 $509 $569 reversed $412 $-1 #
edge $-1 $570 -5.375 $572 5.375 $568 $597 forward 7 unknown #
vertex $-1 $521 $598 #
coedge $-1 $515 $511 $517 $575 forward $508 $-1 #
vertex $-1 $575 $599 #
point $-1 -8.25 4.125 -5.375 #
ellipse-curve $-1 -7.25 4.125 -5.375 0 0 1 -1 0 0 1 I I #
edge $-1 $572 -8.25 $519 -7.25 $517 $439 forward 7 unknown #
point $-1 -7.25 5.125 -5.375 #
point $-1 8.25 4.125 5.375 #
loop $-1 $600 $537 $459 #
vertex $-1 $538 $601 #
ellipse-curve $-1 0 0 5.3799999999999999 0 0 -1 -3 0 0 1 I I #
model_id-kcp-attrib $-1 $602 $-1 $540 1 990560035 50 -47054847 22 #
face $603 $604 $605 $8 $-1 $606 forward single #
loop $-1 $607 $608 $540 #
plane-surface $-1 0 0 6.6200000000000001 0 0 1 1 0 0 forward_v I I I I #
coedge $-1 $585 $585 $609 $610 forward $541 $-1 #
convexity-sys-attrib $-1 $-1 $544 $350 #
convexity-sys-attrib $-1 $-1 $549 $482 #
coedge $-1 $553 $561 $554 $590 reversed $493 $-1 #
edge $-1 $591 -10.75 $559 0 $553 $611 forward 7 unknown #
edge $-1 $591 7.25 $563 8.25 $588 $454 forward 7 unknown #
vertex $-1 $590 $612 #
ellipse-curve $-1 7.25 -4.125 5.375 0 0 -1 1 0 0 1 I I #
point $-1 7.25 -5.125 -5.375 #
straight-curve $-1 8.25 -5.125 0 0 0 -1 I I #
point $-1 8.25 -5.125 5.375 #
point $-1 8.25 -5.125 -5.375 #
straight-curve $-1 -8.25 5.125 0 0 0 -1 I I #
point $-1 -8.25 5.125 5.375 #
point $-1 -8.25 5.125 -5.375 #
loop $613 $-1 $614 $459 #
point $-1 3 0 5.3799999999999999 #
model_id-kcp-attrib $-1 $-1 $581 $540 1 990560035 50 -47054847 14 #
model_id-kcp-attrib $-1 $-1 $-1 $582 1 990560035 50 -47054847 15 #
face $615 $-1 $616 $8 $-1 $617 reversed single #
loop $-1 $618 $619 $582 #
cone-surface $-1 0 0 5.3799999999999999 0 0 1 -4 0 0 1 I I 0 1 4 forward I I I I #
loop $620 $-1 $621 $540 #
coedge $-1 $608 $608 $619 $622 reversed $583 $-1 #
coedge $-1 $609 $609 $585 $610 reversed $618 $-1 #
edge $-1 $623 -3.1415926535897931 $623 3.1415926535897931 $609 $624 forward 7 unknown #
straight-curve $-1 7.25 -5.125 -5.375 0 0 -1 I I #
point $-1 7.25 -5.125 5.375 #
model_id-kcp-attrib $-1 $-1 $-1 $600 1 990560035 50 -47054847 26 #
coedge $-1 $614 $614 $625 $626 forward $600 $-1 #
model_id-kcp-attrib $-1 $-1 $-1 $604 1 990560035 50 -47054847 16 #
loop $627 $628 $629 $604 #
cone-surface $-1 0 3.5 6.6200000000000001 0 0 -1 -0.19 0 0 1 I I 0 1 0.19 forward I I I I #
loop $-1 $-1 $609 $582 #
coedge $-1 $619 $619 $608 $622 forward $605 $-1 #
model_id-kcp-attrib $-1 $-1 $-1 $607 1 990560035 50 -47054847 25 #
coedge $-1 $621 $621 $629 $630 reversed $607 $-1 #
edge $-1 $631 0 $631 6.2831853071795862 $619 $632 forward 7 unknown #
vertex $-1 $610 $633 #
ellipse-curve $-1 0 0 5.3799999999999999 0 0 -1 4 0 0 1 I I #
coedge $-1 $625 $625 $614 $626 reversed $628 $-1 #
edge $634 $635 -3.1415926535897931 $635 3.1415926535897931 $625 $636 forward 7 unknown #
model_id-kcp-attrib $-1 $-1 $-1 $616 1 990560035 50 -47054847 23 #
loop $637 $-1 $625 $604 #
coedge $-1 $629 $629 $621 $630 forward $616 $-1 #
edge $638 $639 0 $639 6.2831853071795862 $629 $640 forward 7 unknown #
vertex $-1 $622 $641 #
ellipse-curve $-1 0 0 6.6200000000000001 0 0 -1 -4 0 0 1 I I #
point $-1 -4 0 5.3799999999999999 #
attrib_edge_convexity-kcp-attrib $-1 $642 $-1 $626 1 #
vertex $-1 $626 $643 #
ellipse-curve $-1 0 3.5 5.3799999999999999 0 0 1 0.19 0 0 1 I I #
model_id-kcp-attrib $-1 $-1 $-1 $628 1 990560035 50 -47054847 24 #
attrib_edge_convexity-kcp-attrib $-1 $644 $-1 $630 1 #
vertex $-1 $630 $645 #
ellipse-curve $-1 0 3.5 6.6200000000000001 0 0 1 -0.19 0 0 1 I I #
point $-1 -4 0 6.6200000000000001 #
convexity-sys-attrib $-1 $-1 $634 $626 #
point $-1 -0.19 3.5 5.3799999999999999 #
convexity-sys-attrib $-1 $-1 $638 $630 #
point $-1 -0.19 3.5 6.6200000000000001 #
End-of-ACIS-data 