600 0 1 0           
109 GICL Pro/E ACIS Translator - Source: f:/data5/repository/NIST/Manfred_Osti/suitcase/pump120/pump120.prt - 6 0 13 ACIS 6.0.3 NT 24 Thu Apr 04 13:52:27 2002 
1 9.9999999999999995e-007 1e-010 
body $-1 $1 $-1 $2 #
lump $-1 $-1 $3 $0 #
transform $-1 1 0 0 0 1 0 0 0 1 0 0 0 25.399999999999999 no_rotate no_reflect no_shear #
shell $-1 $-1 $-1 $4 $-1 $1 #
face $-1 $5 $6 $3 $-1 $7 reversed single #
face $-1 $8 $9 $3 $-1 $10 forward single #
loop $-1 $-1 $11 $4 #
plane-surface $-1 0 0 -4.1299999999999999 0 0 1 1 0 0 forward_v I I I I #
face $-1 $12 $13 $3 $-1 $14 forward single #
loop $-1 $-1 $15 $5 #
plane-surface $-1 7.25 5.125 -4.1299999999999999 0 1 0 -1 0 0 forward_v I I I I #
coedge $-1 $16 $17 $18 $19 reversed $6 $-1 #
face $-1 $20 $21 $3 $-1 $22 forward single #
loop $-1 $-1 $23 $8 #
cone-surface $-1 -7.25 4.125 -4.1299999999999999 0 0 1 1 0 0 1 I I 0 1 1 forward I I I I #
coedge $-1 $24 $18 $25 $26 forward $9 $-1 #
coedge $-1 $27 $11 $28 $29 reversed $6 $-1 #
coedge $-1 $11 $30 $31 $32 reversed $6 $-1 #
coedge $-1 $15 $33 $11 $19 forward $9 $-1 #
edge $-1 $34 0 $35 14.5 $11 $36 forward 7 unknown #
face $-1 $37 $38 $3 $-1 $39 forward single #
loop $-1 $-1 $40 $12 #
plane-surface $-1 -8.25 4.125 -4.1299999999999999 -1 0 0 0 -1 0 forward_v I I I I #
coedge $-1 $41 $31 $42 $43 forward $13 $-1 #
coedge $-1 $33 $15 $44 $45 reversed $9 $-1 #
coedge $-1 $31 $41 $15 $26 reversed $13 $-1 #
edge $-1 $35 0 $46 8.2599999999999998 $25 $47 forward 7 unknown #
coedge $-1 $48 $16 $49 $50 reversed $6 $-1 #
coedge $-1 $51 $52 $16 $29 forward $53 $-1 #
edge $-1 $54 0 $34 1.5707963267948966 $16 $55 forward 7 unknown #
coedge $-1 $17 $56 $57 $58 reversed $6 $-1 #
coedge $-1 $23 $25 $17 $32 forward $13 $-1 #
edge $-1 $35 0 $59 1.5707963267948966 $17 $60 forward 7 unknown #
coedge $-1 $18 $24 $51 $61 reversed $9 $-1 #
vertex $-1 $29 $62 #
vertex $-1 $32 $63 #
straight-curve $-1 7.25 5.125 -4.1299999999999999 -1 0 0 I I #
face $-1 $64 $65 $3 $-1 $66 forward single #
loop $-1 $-1 $67 $20 #
cone-surface $-1 -7.25 -4.125 -4.1299999999999999 0 0 1 1 0 0 1 I I 0 1 1 forward I I I I #
coedge $-1 $68 $57 $69 $70 forward $21 $-1 #
coedge $-1 $25 $23 $71 $72 reversed $13 $-1 #
coedge $-1 $57 $68 $23 $43 reversed $21 $-1 #
edge $-1 $59 0 $73 8.2599999999999998 $23 $74 forward 7 unknown #
coedge $-1 $71 $75 $24 $45 forward $76 $-1 #
edge $-1 $77 0 $46 14.5 $44 $78 forward 7 unknown #
vertex $-1 $72 $79 #
straight-curve $-1 -7.25 5.125 -4.1299999999999999 0 0 1 I I #
coedge $-1 $80 $27 $81 $82 reversed $6 $-1 #
coedge $-1 $83 $84 $27 $50 forward $85 $-1 #
edge $-1 $86 0 $54 8.25 $27 $87 forward 7 unknown #
coedge $-1 $88 $28 $33 $61 forward $53 $-1 #
coedge $-1 $28 $88 $83 $89 reversed $53 $-1 #
loop $-1 $-1 $51 $90 #
vertex $-1 $50 $91 #
ellipse-curve $-1 7.25 4.125 -4.1299999999999999 0 0 1 1 0 0 1 I I #
coedge $-1 $30 $80 $92 $93 reversed $6 $-1 #
coedge $-1 $40 $42 $30 $58 forward $21 $-1 #
edge $-1 $59 0 $94 8.25 $30 $95 forward 7 unknown #
vertex $-1 $32 $96 #
ellipse-curve $-1 -7.25 4.125 -4.1299999999999999 0 0 1 0 1 0 1 I I #
edge $-1 $34 0 $77 8.2599999999999998 $51 $97 forward 7 unknown #
point $-1 7.25 5.125 -4.1299999999999999 #
point $-1 -7.25 5.125 -4.1299999999999999 #
face $-1 $98 $99 $3 $-1 $100 forward single #
loop $-1 $-1 $101 $37 #
plane-surface $-1 -7.25 -5.125 -4.1299999999999999 0 -1 0 1 0 0 forward_v I I I I #
coedge $-1 $102 $92 $103 $104 forward $38 $-1 #
coedge $-1 $42 $40 $105 $106 reversed $21 $-1 #
coedge $-1 $92 $102 $40 $70 reversed $38 $-1 #
edge $-1 $94 0 $107 8.2599999999999998 $40 $108 forward 7 unknown #
coedge $-1 $105 $44 $41 $72 forward $76 $-1 #
edge $-1 $46 0 $73 1.5707963267948983 $71 $109 forward 7 unknown #
vertex $-1 $72 $110 #
straight-curve $-1 -8.25 4.125 -4.1299999999999999 0 0 1 I I #
coedge $-1 $44 $111 $88 $112 forward $76 $-1 #
loop $-1 $113 $105 $114 #
vertex $-1 $45 $115 #
straight-curve $-1 7.25 5.125 4.1299999999999999 -1 0 0 I I #
point $-1 -7.25 5.125 4.1299999999999999 #
coedge $-1 $56 $48 $116 $117 reversed $6 $-1 #
coedge $-1 $118 $119 $48 $82 forward $99 $-1 #
edge $-1 $120 0 $86 1.5707963267948966 $48 $121 forward 7 unknown #
coedge $-1 $122 $49 $52 $89 forward $85 $-1 #
coedge $-1 $49 $122 $118 $123 reversed $85 $-1 #
loop $-1 $-1 $83 $98 #
vertex $-1 $82 $124 #
straight-curve $-1 8.25 -4.125 -4.1299999999999999 0 1 0 I I #
coedge $-1 $52 $51 $75 $112 reversed $53 $-1 #
edge $-1 $54 0 $125 8.2599999999999998 $83 $126 forward 7 unknown #
face $-1 $114 $53 $3 $-1 $127 forward single #
point $-1 8.25 4.125 -4.1299999999999999 #
coedge $-1 $67 $69 $56 $93 forward $38 $-1 #
edge $-1 $94 0 $128 1.5707963267948966 $56 $129 forward 7 unknown #
vertex $-1 $58 $130 #
straight-curve $-1 -8.25 4.125 -4.1299999999999999 0 -1 0 I I #
point $-1 -8.25 4.125 -4.1299999999999999 #
straight-curve $-1 7.25 5.125 -4.1299999999999999 0 0 1 I I #
face $-1 $90 $85 $3 $-1 $131 forward single #
loop $-1 $-1 $118 $64 #
cone-surface $-1 7.25 -4.125 -4.1299999999999999 0 0 1 1 0 0 1 I I 0 1 1 forward I I I I #
coedge $-1 $132 $116 $119 $133 forward $65 $-1 #
coedge $-1 $69 $67 $134 $135 reversed $38 $-1 #
coedge $-1 $116 $132 $67 $104 reversed $65 $-1 #
edge $-1 $128 0 $136 8.2599999999999998 $67 $137 forward 7 unknown #
coedge $-1 $134 $71 $68 $106 forward $76 $-1 #
edge $-1 $73 0 $107 8.25 $105 $138 forward 7 unknown #
vertex $-1 $135 $139 #
straight-curve $-1 -8.25 -4.125 -4.1299999999999999 0 0 1 I I #
ellipse-curve $-1 -7.2500000000000009 4.1250000000000009 4.1299999999999999 0 0 1 8.8817841970012523e-016 0.99999999999999911 0 1 I I #
point $-1 -8.25 4.125 4.1299999999999999 #
coedge $-1 $75 $140 $122 $141 forward $76 $-1 #
edge $-1 $125 0 $77 1.5707963267948948 $75 $142 forward 7 unknown #
loop $-1 $-1 $143 $114 #
face $-1 $144 $76 $3 $-1 $145 forward single #
point $-1 7.25 5.125 4.1299999999999999 #
coedge $-1 $101 $103 $80 $117 forward $65 $-1 #
edge $-1 $128 0 $120 14.5 $80 $146 forward 7 unknown #
coedge $-1 $147 $81 $84 $123 forward $99 $-1 #
coedge $-1 $81 $147 $101 $133 reversed $99 $-1 #
vertex $-1 $117 $148 #
ellipse-curve $-1 7.25 -4.125 -4.1299999999999999 0 0 1 0 -1 0 1 I I #
coedge $-1 $84 $83 $111 $141 reversed $85 $-1 #
edge $-1 $86 0 $149 8.2599999999999998 $118 $150 forward 7 unknown #
point $-1 8.25 -4.125 -4.1299999999999999 #
vertex $-1 $112 $151 #
straight-curve $-1 8.25 4.125 -4.1299999999999999 0 0 1 I I #
cone-surface $-1 7.25 4.125 -4.1299999999999999 0 0 1 1 0 0 1 I I 0 1 1 forward I I I I #
vertex $-1 $93 $152 #
ellipse-curve $-1 -7.25 -4.125 -4.1299999999999999 0 0 1 -1 0 0 1 I I #
point $-1 -8.25 -4.125 -4.1299999999999999 #
plane-surface $-1 8.25 -4.125 -4.1299999999999999 1 0 0 0 1 0 forward_v I I I I #
coedge $-1 $103 $101 $153 $154 reversed $65 $-1 #
edge $-1 $120 0 $155 8.2599999999999998 $101 $156 forward 7 unknown #
coedge $-1 $153 $105 $102 $135 forward $76 $-1 #
edge $-1 $107 0 $136 1.5707963267948948 $134 $157 forward 7 unknown #
vertex $-1 $154 $158 #
straight-curve $-1 -7.25 -5.125 -4.1299999999999999 0 0 1 I I #
straight-curve $-1 -8.25 4.125 4.1299999999999999 0 -1 0 I I #
point $-1 -8.25 -4.125 4.1299999999999999 #
coedge $-1 $111 $153 $147 $159 forward $76 $-1 #
edge $-1 $149 0 $125 8.25 $111 $160 forward 7 unknown #
ellipse-curve $-1 7.2499999999999991 4.1249999999999991 4.1299999999999999 0 0 1 1.0000000000000009 8.8817841970012523e-016 0 1 I I #
coedge $-1 $161 $161 $162 $163 reversed $113 $-1 #
face $-1 $164 $165 $3 $-1 $166 forward single #
plane-surface $-1 0 0 4.1299999999999999 0 0 1 1 0 0 forward_v I I I I #
straight-curve $-1 -7.25 -5.125 -4.1299999999999999 1 0 0 I I #
coedge $-1 $119 $118 $140 $159 reversed $99 $-1 #
point $-1 7.25 -5.125 -4.1299999999999999 #
vertex $-1 $141 $167 #
straight-curve $-1 8.25 -4.125 -4.1299999999999999 0 0 1 I I #
point $-1 8.25 4.125 4.1299999999999999 #
point $-1 -7.25 -5.125 -4.1299999999999999 #
coedge $-1 $140 $134 $132 $154 forward $76 $-1 #
edge $-1 $136 0 $155 14.5 $153 $168 forward 7 unknown #
vertex $-1 $159 $169 #
straight-curve $-1 7.25 -5.125 -4.1299999999999999 0 0 1 I I #
ellipse-curve $-1 -7.2499999999999991 -4.1249999999999991 4.1299999999999999 0 0 1 -1.0000000000000009 -8.8817841970012523e-016 0 1 I I #
point $-1 -7.25 -5.125 4.1299999999999999 #
edge $-1 $155 0 $149 1.5707963267948983 $140 $170 forward 7 unknown #
straight-curve $-1 8.25 -4.125 4.1299999999999999 0 1 0 I I #
coedge $-1 $143 $143 $171 $172 reversed $113 $-1 #
coedge $-1 $173 $174 $143 $163 forward $165 $-1 #
edge $-1 $175 0 $176 3.1415926535897931 $143 $177 forward 7 unknown #
face $-1 $178 $179 $3 $-1 $180 forward single #
loop $-1 $-1 $174 $144 #
cone-surface $-1 0 0 4.1299999999999999 0 0 1 3 0 0 1 I I 0 1 3 forward I I I I #
point $-1 8.25 -4.125 4.1299999999999999 #
straight-curve $-1 -7.25 -5.125 4.1299999999999999 1 0 0 I I #
point $-1 7.25 -5.125 4.1299999999999999 #
ellipse-curve $-1 7.2500000000000009 -4.1250000000000009 4.1299999999999999 0 0 1 -8.8817841970012523e-016 -0.99999999999999911 0 1 I I #
coedge $-1 $181 $182 $161 $172 forward $179 $-1 #
edge $-1 $176 0 $175 3.1415926535897931 $161 $183 forward 7 unknown #
coedge $-1 $184 $162 $182 $185 forward $165 $-1 #
coedge $-1 $162 $184 $181 $186 reversed $165 $-1 #
vertex $-1 $172 $187 #
vertex $-1 $172 $188 #
ellipse-curve $-1 0 0 4.1299999999999999 0 0 1 -3 0 0 1 I I #
face $-1 $189 $190 $3 $-1 $191 reversed single #
loop $-1 $-1 $182 $164 #
cone-surface $-1 0 0 4.1299999999999999 0 0 1 3 0 0 1 I I 0 1 3 forward I I I I #
coedge $-1 $192 $171 $174 $186 forward $179 $-1 #
coedge $-1 $171 $192 $173 $185 reversed $179 $-1 #
ellipse-curve $-1 0 0 4.1299999999999999 0 0 1 3 0 0 1 I I #
coedge $-1 $174 $173 $193 $194 reversed $165 $-1 #
edge $-1 $176 0 $195 1.25 $182 $196 forward 7 unknown #
edge $-1 $175 0 $197 1.25 $181 $198 forward 7 unknown #
point $-1 -3 0 4.1299999999999999 #
point $-1 3 0 4.1299999999999999 #
face $-1 $199 $200 $3 $-1 $201 forward single #
loop $-1 $202 $203 $178 #
plane-surface $-1 0 0 5.3799999999999999 0 0 1 -1 0 0 forward_v I I I I #
coedge $-1 $182 $181 $204 $205 reversed $179 $-1 #
coedge $-1 $204 $204 $184 $194 forward $202 $-1 #
edge $-1 $197 0 $195 3.1415926535897931 $184 $206 forward 7 unknown #
vertex $-1 $205 $207 #
straight-curve $-1 3 0 4.1299999999999999 0 0 1 I I #
vertex $-1 $205 $208 #
straight-curve $-1 -3 3.6738190614671318e-016 4.1299999999999999 0 0 1 I I #
face $-1 $209 $210 $3 $-1 $211 forward single #
loop $-1 $-1 $212 $189 #
cone-surface $-1 0 0 5.3799999999999999 0 0 1 -4 0 0 1 I I 0 1 4 forward I I I I #
loop $-1 $213 $193 $178 #
coedge $-1 $214 $214 $215 $216 reversed $190 $-1 #
coedge $-1 $193 $193 $192 $205 forward $202 $-1 #
edge $-1 $195 0 $197 3.1415926535897931 $192 $217 forward 7 unknown #
ellipse-curve $-1 2.2204460492503131e-016 -1.1102230246251565e-016 5.3799999999999999 0 0 1 -3 1.1102230246251565e-016 0 1 I I #
point $-1 3 0 5.3799999999999999 #
point $-1 -3 0 5.3799999999999999 #
face $-1 $218 $219 $3 $-1 $220 forward single #
loop $-1 $-1 $221 $199 #
cone-surface $-1 0 0 5.3799999999999999 0 0 1 -4 0 0 1 I I 0 1 4 forward I I I I #
coedge $-1 $222 $215 $223 $224 forward $200 $-1 #
loop $-1 $-1 $225 $178 #
coedge $-1 $203 $203 $226 $227 reversed $190 $-1 #
coedge $-1 $212 $228 $203 $216 forward $200 $-1 #
edge $-1 $229 0 $230 3.1415926535897931 $203 $231 forward 7 unknown #
ellipse-curve $-1 1.1102230246251565e-016 2.2204460492503131e-016 5.3799999999999999 0 0 1 3 -2.2204460492503131e-016 0 1 I I #
face $-1 $232 $233 $3 $-1 $234 reversed single #
loop $-1 $235 $236 $209 #
plane-surface $-1 0 0 6.6200000000000001 0 0 1 -1 0 0 forward_v I I I I #
coedge $-1 $237 $226 $228 $238 forward $210 $-1 #
coedge $-1 $228 $212 $236 $239 reversed $200 $-1 #
coedge $-1 $226 $237 $212 $224 reversed $210 $-1 #
edge $-1 $230 0 $240 1.2400000000000002 $223 $241 forward 7 unknown #
coedge $-1 $242 $242 $243 $244 reversed $213 $-1 #
coedge $-1 $221 $223 $214 $227 forward $210 $-1 #
edge $-1 $230 0 $229 3.1415926535897931 $214 $245 forward 7 unknown #
coedge $-1 $215 $222 $221 $238 reversed $200 $-1 #
vertex $-1 $227 $246 #
vertex $-1 $227 $247 #
ellipse-curve $-1 0 0 5.3799999999999999 0 0 1 4 0 0 1 I I #
face $-1 $-1 $248 $3 $-1 $249 reversed single #
loop $-1 $-1 $250 $218 #
cone-surface $-1 0 3.5 6.6200000000000001 0 0 -1 -0.19 0 0 1 I I 0 1 0.19 forward I I I I #
loop $-1 $-1 $251 $209 #
coedge $-1 $252 $252 $222 $239 forward $219 $-1 #
coedge $-1 $223 $221 $252 $253 reversed $210 $-1 #
edge $-1 $229 0 $254 1.2400000000000002 $221 $255 forward 7 unknown #
edge $-1 $254 0 $240 3.1415926535897931 $236 $256 forward 7 unknown #
vertex $-1 $253 $257 #
straight-curve $-1 -4 0 5.3799999999999999 0 0 1 I I #
coedge $-1 $225 $225 $258 $259 reversed $213 $-1 #
coedge $-1 $250 $260 $225 $244 forward $233 $-1 #
edge $-1 $261 0 $262 3.1415926535897931 $225 $263 forward 7 unknown #
ellipse-curve $-1 0 0 5.3799999999999999 0 0 1 -4 0 0 1 I I #
point $-1 4 0 5.3799999999999999 #
point $-1 -4 0 5.3799999999999999 #
loop $-1 $-1 $264 $232 #
cone-surface $-1 0 3.5 6.6200000000000001 0 0 -1 -0.19 0 0 1 I I 0 1 0.19 forward I I I I #
coedge $-1 $265 $243 $266 $267 reversed $233 $-1 #
coedge $-1 $268 $268 $265 $269 forward $235 $-1 #
coedge $-1 $236 $236 $237 $253 forward $219 $-1 #
edge $-1 $240 0 $254 3.1415926535897931 $252 $270 forward 7 unknown #
vertex $-1 $253 $271 #
straight-curve $-1 4 -4.898425415289509e-016 5.3799999999999999 0 0 1 I I #
ellipse-curve $-1 -1.1102230246251565e-016 -2.2204460492503131e-016 6.6200000000000001 0 0 1 4 2.2204460492503131e-016 0 1 I I #
point $-1 -4 0 6.6200000000000001 #
coedge $-1 $264 $266 $242 $259 forward $248 $-1 #
edge $-1 $262 0 $261 3.1415926535897931 $242 $272 forward 7 unknown #
coedge $-1 $243 $265 $264 $273 forward $233 $-1 #
vertex $-1 $259 $274 #
vertex $-1 $259 $275 #
ellipse-curve $-1 0 3.5 5.3799999999999999 0 0 -1 0.19 0 0 1 I I #
coedge $-1 $276 $258 $260 $273 reversed $248 $-1 #
coedge $-1 $260 $250 $251 $269 reversed $233 $-1 #
coedge $-1 $258 $276 $250 $267 forward $248 $-1 #
edge $-1 $277 0 $262 1.2400000000000002 $266 $278 forward 7 unknown #
coedge $-1 $251 $251 $276 $279 forward $235 $-1 #
edge $-1 $280 0 $277 3.1415926535897931 $251 $281 forward 7 unknown #
ellipse-curve $-1 0 1.1102230246251565e-016 6.6200000000000001 0 0 1 -4 -1.1102230246251565e-016 0 1 I I #
point $-1 4 0 6.6200000000000001 #
ellipse-curve $-1 1.3877787807814457e-017 3.5 5.3799999999999999 0 0 -1 -0.19 0 0 1 I I #
edge $-1 $280 0 $261 1.2400000000000002 $264 $282 forward 7 unknown #
point $-1 0.19 3.5 5.3799999999999999 #
point $-1 -0.19 3.5 5.3799999999999999 #
coedge $-1 $266 $264 $268 $279 reversed $248 $-1 #
vertex $-1 $279 $283 #
straight-curve $-1 -0.19 3.5 6.6200000000000001 0 0 -1 I I #
edge $-1 $277 0 $280 3.1415926535897931 $268 $284 forward 7 unknown #
vertex $-1 $279 $285 #
ellipse-curve $-1 0 3.5 6.6200000000000001 0 0 -1 0.19 0 0 1 I I #
straight-curve $-1 0.19 3.5 6.6200000000000001 0 0 -1 I I #
point $-1 -0.19 3.5 6.6200000000000001 #
ellipse-curve $-1 0 3.5 6.6200000000000001 0 0 -1 -0.19 0 0 1 I I #
point $-1 0.19 3.5 6.6200000000000001 #
End-of-ACIS-data 