600 0 1 0           
106 GICL ACIS Healer - Source: /gicl/data5/repository/NIST/Manfred_Osti/suitcase/pump120/pump120.prt.sat - 6 0 18 ACIS 6.0.3 Solaris 24 Sun Apr 14 00:36:49 2002 
1 9.999999999999999547e-07 1.000000000000000036e-10 
body $-1 $1 $-1 $-1 #
lump $-1 $-1 $2 $0 #
shell $-1 $-1 $-1 $3 $-1 $1 #
face $-1 $4 $5 $2 $-1 $6 reversed single #
face $-1 $7 $8 $2 $-1 $9 forward single #
loop $-1 $-1 $10 $3 #
plane-surface $-1 0 0 -104.9019999999999868 0 0 1 25.39999999999999858 0 0 forward_v I I I I #
face $-1 $11 $12 $2 $-1 $13 forward single #
loop $-1 $-1 $14 $4 #
plane-surface $-1 184.1499999999999773 130.1749999999999829 -104.9019999999999868 0 1 0 -25.39999999999999858 0 0 forward_v I I I I #
coedge $-1 $15 $16 $17 $18 reversed $5 $-1 #
face $-1 $19 $20 $2 $-1 $21 forward single #
loop $-1 $-1 $22 $7 #
cone-surface $-1 -184.1499999999999773 104.7749999999999915 -104.9019999999999868 0 0 1 25.39999999999999858 0 0 1 I I 0 1 25.39999999999999858 forward I I I I #
coedge $-1 $23 $17 $24 $25 forward $8 $-1 #
coedge $-1 $26 $10 $27 $28 reversed $5 $-1 #
coedge $-1 $10 $29 $30 $31 reversed $5 $-1 #
coedge $-1 $14 $32 $10 $18 forward $8 $-1 #
edge $-1 $33 0 $34 14.49999999999999822 $10 $35 forward 7 unknown #
face $-1 $36 $37 $2 $-1 $38 forward single #
loop $-1 $-1 $39 $11 #
plane-surface $-1 -209.5499999999999829 104.7749999999999915 -104.9019999999999868 -1 0 0 0 -25.39999999999999858 0 forward_v I I I I #
coedge $-1 $40 $30 $41 $42 forward $12 $-1 #
coedge $-1 $32 $14 $43 $44 reversed $8 $-1 #
coedge $-1 $30 $40 $14 $25 reversed $12 $-1 #
edge $-1 $34 0 $45 8.259999999999999787 $24 $46 forward 7 unknown #
coedge $-1 $47 $15 $48 $49 reversed $5 $-1 #
coedge $-1 $50 $51 $15 $28 forward $52 $-1 #
edge $-1 $53 0 $33 1.570796326794896558 $15 $54 forward 7 unknown #
coedge $-1 $16 $55 $56 $57 reversed $5 $-1 #
coedge $-1 $22 $24 $16 $31 forward $12 $-1 #
edge $-1 $34 0 $58 1.570796326794896558 $16 $59 forward 7 unknown #
coedge $-1 $17 $23 $50 $60 reversed $8 $-1 #
vertex $-1 $28 $61 #
vertex $-1 $31 $62 #
straight-curve $-1 184.1499999999999773 130.1749999999999829 -104.9019999999999868 -25.39999999999999858 0 0 I I #
face $-1 $63 $64 $2 $-1 $65 forward single #
loop $-1 $-1 $66 $19 #
cone-surface $-1 -184.1499999999999773 -104.7749999999999915 -104.9019999999999868 0 0 1 25.39999999999999858 0 0 1 I I 0 1 25.39999999999999858 forward I I I I #
coedge $-1 $67 $56 $68 $69 forward $20 $-1 #
coedge $-1 $24 $22 $70 $71 reversed $12 $-1 #
coedge $-1 $56 $67 $22 $42 reversed $20 $-1 #
edge $-1 $58 0 $72 8.259999999999999787 $22 $73 forward 7 unknown #
coedge $-1 $70 $74 $23 $44 forward $75 $-1 #
edge $-1 $76 0 $45 14.49999999999999822 $43 $77 forward 7 unknown #
vertex $-1 $71 $78 #
straight-curve $-1 -184.1499999999999773 130.1749999999999829 -104.9019999999999868 0 0 25.39999999999999858 I I #
coedge $-1 $79 $26 $80 $81 reversed $5 $-1 #
coedge $-1 $82 $83 $26 $49 forward $84 $-1 #
edge $-1 $85 0 $53 8.25 $26 $86 forward 7 unknown #
coedge $-1 $87 $27 $32 $60 forward $52 $-1 #
coedge $-1 $27 $87 $82 $88 reversed $52 $-1 #
loop $-1 $-1 $50 $89 #
vertex $-1 $49 $90 #
ellipse-curve $-1 184.1499999999999773 104.7749999999999915 -104.9019999999999868 0 0 1 25.39999999999999858 0 0 1 I I #
coedge $-1 $29 $79 $91 $92 reversed $5 $-1 #
coedge $-1 $39 $41 $29 $57 forward $20 $-1 #
edge $-1 $58 0 $93 8.25 $29 $94 forward 7 unknown #
vertex $-1 $31 $95 #
ellipse-curve $-1 -184.1499999999999773 104.7749999999999915 -104.9019999999999868 0 0 1 0 25.39999999999999858 0 1 I I #
edge $-1 $33 0 $76 8.259999999999999787 $50 $96 forward 7 unknown #
point $-1 184.1499999999999773 130.1749999999999829 -104.9019999999999868 #
point $-1 -184.1499999999999773 130.1749999999999829 -104.9019999999999868 #
face $-1 $97 $98 $2 $-1 $99 forward single #
loop $-1 $-1 $100 $36 #
plane-surface $-1 -184.1499999999999773 -130.1749999999999829 -104.9019999999999868 0 -1 0 25.39999999999999858 0 0 forward_v I I I I #
coedge $-1 $101 $91 $102 $103 forward $37 $-1 #
coedge $-1 $41 $39 $104 $105 reversed $20 $-1 #
coedge $-1 $91 $101 $39 $69 reversed $37 $-1 #
edge $-1 $93 0 $106 8.259999999999999787 $39 $107 forward 7 unknown #
coedge $-1 $104 $43 $40 $71 forward $75 $-1 #
edge $-1 $45 -2.307865185047577728e-16 $72 1.570796326794898778 $70 $108 forward 7 unknown #
vertex $-1 $71 $109 #
straight-curve $-1 -209.5499999999999829 104.7749999999999915 -104.9019999999999868 0 0 25.39999999999999858 I I #
coedge $-1 $43 $110 $87 $111 forward $75 $-1 #
loop $-1 $112 $104 $113 #
vertex $-1 $44 $114 #
straight-curve $-1 184.1499999999999773 130.1749999999999829 104.9019999999999868 -25.39999999999999858 0 0 I I #
point $-1 -184.1499999999999773 130.1749999999999829 104.9019999999999868 #
coedge $-1 $55 $47 $115 $116 reversed $5 $-1 #
coedge $-1 $117 $118 $47 $81 forward $98 $-1 #
edge $-1 $119 0 $85 1.570796326794896558 $47 $120 forward 7 unknown #
coedge $-1 $121 $48 $51 $88 forward $84 $-1 #
coedge $-1 $48 $121 $117 $122 reversed $84 $-1 #
loop $-1 $-1 $82 $97 #
vertex $-1 $81 $123 #
straight-curve $-1 209.5499999999999829 -104.7749999999999915 -104.9019999999999868 0 25.39999999999999858 0 I I #
coedge $-1 $51 $50 $74 $111 reversed $52 $-1 #
edge $-1 $53 0 $124 8.259999999999999787 $82 $125 forward 7 unknown #
face $-1 $113 $52 $2 $-1 $126 forward single #
point $-1 209.5499999999999829 104.7749999999999915 -104.9019999999999868 #
coedge $-1 $66 $68 $55 $92 forward $37 $-1 #
edge $-1 $93 0 $127 1.570796326794896558 $55 $128 forward 7 unknown #
vertex $-1 $57 $129 #
straight-curve $-1 -209.5499999999999829 104.7749999999999915 -104.9019999999999868 0 -25.39999999999999858 0 I I #
point $-1 -209.5499999999999829 104.7749999999999915 -104.9019999999999868 #
straight-curve $-1 184.1499999999999773 130.1749999999999829 -104.9019999999999868 0 0 25.39999999999999858 I I #
face $-1 $89 $84 $2 $-1 $130 forward single #
loop $-1 $-1 $117 $63 #
cone-surface $-1 184.1499999999999773 -104.7749999999999915 -104.9019999999999868 0 0 1 25.39999999999999858 0 0 1 I I 0 1 25.39999999999999858 forward I I I I #
coedge $-1 $131 $115 $118 $132 forward $64 $-1 #
coedge $-1 $68 $66 $133 $134 reversed $37 $-1 #
coedge $-1 $115 $131 $66 $103 reversed $64 $-1 #
edge $-1 $127 0 $135 8.259999999999999787 $66 $136 forward 7 unknown #
coedge $-1 $133 $70 $67 $105 forward $75 $-1 #
edge $-1 $72 0 $106 8.25 $104 $137 forward 7 unknown #
vertex $-1 $134 $138 #
straight-curve $-1 -209.5499999999999829 -104.7749999999999915 -104.9019999999999868 0 0 25.39999999999999858 I I #
ellipse-curve $-1 -184.1500000000000057 104.7750000000000199 104.9019999999999868 0 0 1 2.255973186038317964e-14 25.39999999999997726 0 1 I I #
point $-1 -209.5499999999999829 104.7749999999999915 104.9019999999999868 #
coedge $-1 $74 $139 $121 $140 forward $75 $-1 #
edge $-1 $124 -3.286959505976835079e-16 $76 1.57079632679489567 $74 $141 forward 7 unknown #
loop $-1 $-1 $142 $113 #
face $-1 $143 $75 $2 $-1 $144 forward single #
point $-1 184.1499999999999773 130.1749999999999829 104.9019999999999868 #
coedge $-1 $100 $102 $79 $116 forward $64 $-1 #
edge $-1 $127 0 $119 14.49999999999999822 $79 $145 forward 7 unknown #
coedge $-1 $146 $80 $83 $122 forward $98 $-1 #
coedge $-1 $80 $146 $100 $132 reversed $98 $-1 #
vertex $-1 $116 $147 #
ellipse-curve $-1 184.1499999999999773 -104.7749999999999915 -104.9019999999999868 0 0 1 0 -25.39999999999999858 0 1 I I #
coedge $-1 $83 $82 $110 $140 reversed $84 $-1 #
edge $-1 $85 0 $148 8.259999999999999787 $117 $149 forward 7 unknown #
point $-1 209.5499999999999829 -104.7749999999999915 -104.9019999999999868 #
vertex $-1 $111 $150 #
straight-curve $-1 209.5499999999999829 104.7749999999999915 -104.9019999999999868 0 0 25.39999999999999858 I I #
cone-surface $-1 184.1499999999999773 104.7749999999999915 -104.9019999999999868 0 0 1 25.39999999999999858 0 0 1 I I 0 1 25.39999999999999858 forward I I I I #
vertex $-1 $92 $151 #
ellipse-curve $-1 -184.1499999999999773 -104.7749999999999915 -104.9019999999999868 0 0 1 -25.39999999999999858 0 0 1 I I #
point $-1 -209.5499999999999829 -104.7749999999999915 -104.9019999999999868 #
plane-surface $-1 209.5499999999999829 -104.7749999999999915 -104.9019999999999868 1 0 0 0 25.39999999999999858 0 forward_v I I I I #
coedge $-1 $102 $100 $152 $153 reversed $64 $-1 #
edge $-1 $119 0 $154 8.259999999999999787 $100 $155 forward 7 unknown #
coedge $-1 $152 $104 $101 $134 forward $75 $-1 #
edge $-1 $106 -3.286959505976835079e-16 $135 1.57079632679489567 $133 $156 forward 7 unknown #
vertex $-1 $153 $157 #
straight-curve $-1 -184.1499999999999773 -130.1749999999999829 -104.9019999999999868 0 0 25.39999999999999858 I I #
straight-curve $-1 -209.5499999999999829 104.7749999999999915 104.9019999999999868 0 -25.39999999999999858 0 I I #
point $-1 -209.5499999999999829 -104.7749999999999915 104.9019999999999868 #
coedge $-1 $110 $152 $146 $158 forward $75 $-1 #
edge $-1 $148 0 $124 8.25 $110 $159 forward 7 unknown #
ellipse-curve $-1 184.1499999999999773 104.7749999999999773 104.9019999999999868 0 0 1 25.4000000000000199 2.255973186038317964e-14 0 1 I I #
coedge $-1 $160 $160 $161 $162 reversed $112 $-1 #
face $-1 $163 $164 $2 $-1 $165 forward single #
plane-surface $-1 0 0 104.9019999999999868 0 0 1 25.39999999999999858 0 0 forward_v I I I I #
straight-curve $-1 -184.1499999999999773 -130.1749999999999829 -104.9019999999999868 25.39999999999999858 0 0 I I #
coedge $-1 $118 $117 $139 $158 reversed $98 $-1 #
point $-1 184.1499999999999773 -130.1749999999999829 -104.9019999999999868 #
vertex $-1 $140 $166 #
straight-curve $-1 209.5499999999999829 -104.7749999999999915 -104.9019999999999868 0 0 25.39999999999999858 I I #
point $-1 209.5499999999999829 104.7749999999999915 104.9019999999999868 #
point $-1 -184.1499999999999773 -130.1749999999999829 -104.9019999999999868 #
coedge $-1 $139 $133 $131 $153 forward $75 $-1 #
edge $-1 $135 0 $154 14.49999999999999822 $152 $167 forward 7 unknown #
vertex $-1 $158 $168 #
straight-curve $-1 184.1499999999999773 -130.1749999999999829 -104.9019999999999868 0 0 25.39999999999999858 I I #
ellipse-curve $-1 -184.1499999999999773 -104.7749999999999773 104.9019999999999868 0 0 1 -25.4000000000000199 -2.255973186038317964e-14 0 1 I I #
point $-1 -184.1499999999999773 -130.1749999999999829 104.9019999999999868 #
edge $-1 $154 -2.307865185047577728e-16 $148 1.570796326794898778 $139 $169 forward 7 unknown #
straight-curve $-1 209.5499999999999829 -104.7749999999999915 104.9019999999999868 0 25.39999999999999858 0 I I #
coedge $-1 $142 $142 $170 $171 reversed $112 $-1 #
coedge $-1 $172 $173 $142 $162 forward $164 $-1 #
edge $-1 $174 0 $175 3.141592653589793116 $142 $176 forward 7 unknown #
face $-1 $177 $178 $2 $-1 $179 forward single #
loop $-1 $-1 $173 $143 #
cone-surface $-1 0 0 104.9019999999999868 0 0 1 76.19999999999998863 0 0 1 I I 0 1 76.19999999999998863 forward I I I I #
point $-1 209.5499999999999829 -104.7749999999999915 104.9019999999999868 #
straight-curve $-1 -184.1499999999999773 -130.1749999999999829 104.9019999999999868 25.39999999999999858 0 0 I I #
point $-1 184.1499999999999773 -130.1749999999999829 104.9019999999999868 #
ellipse-curve $-1 184.1500000000000057 -104.7750000000000199 104.9019999999999868 0 0 1 -2.255973186038317964e-14 -25.39999999999997726 0 1 I I #
coedge $-1 $180 $181 $160 $171 forward $178 $-1 #
edge $-1 $175 0 $174 3.141592653589793116 $160 $182 forward 7 unknown #
coedge $-1 $183 $161 $181 $184 forward $164 $-1 #
coedge $-1 $161 $183 $180 $185 reversed $164 $-1 #
vertex $-1 $171 $186 #
vertex $-1 $171 $187 #
ellipse-curve $-1 0 0 104.9019999999999868 0 0 1 -76.19999999999998863 0 0 1 I I #
face $-1 $188 $189 $2 $-1 $190 reversed single #
loop $-1 $-1 $181 $163 #
cone-surface $-1 0 0 104.9019999999999868 0 0 1 76.19999999999998863 0 0 1 I I 0 1 76.19999999999998863 forward I I I I #
coedge $-1 $191 $170 $173 $185 forward $178 $-1 #
coedge $-1 $170 $191 $172 $184 reversed $178 $-1 #
ellipse-curve $-1 0 0 104.9019999999999868 0 0 1 76.19999999999998863 0 0 1 I I #
coedge $-1 $173 $172 $192 $193 reversed $164 $-1 #
edge $-1 $175 0 $194 1.25 $181 $195 forward 7 unknown #
edge $-1 $174 0 $196 1.25 $180 $197 forward 7 unknown #
point $-1 -76.19999999999998863 0 104.9019999999999868 #
point $-1 76.19999999999998863 0 104.9019999999999868 #
face $-1 $198 $199 $2 $-1 $200 forward single #
loop $-1 $201 $202 $177 #
plane-surface $-1 0 0 136.6519999999999868 0 0 1 -25.39999999999999858 0 0 forward_v I I I I #
coedge $-1 $181 $180 $203 $204 reversed $178 $-1 #
coedge $-1 $203 $203 $183 $193 forward $201 $-1 #
edge $-1 $196 0 $194 3.141592653589793116 $183 $205 forward 7 unknown #
vertex $-1 $204 $206 #
straight-curve $-1 76.19999999999998863 0 104.9019999999999868 0 0 25.39999999999999858 I I #
vertex $-1 $204 $207 #
straight-curve $-1 -76.19999999999998863 9.331500416126514076e-15 104.9019999999999868 0 0 25.39999999999999858 I I #
face $-1 $208 $209 $2 $-1 $210 forward single #
loop $-1 $-1 $211 $188 #
cone-surface $-1 0 0 136.6519999999999868 0 0 1 -101.5999999999999943 0 0 1 I I 0 1 101.5999999999999943 forward I I I I #
loop $-1 $212 $192 $177 #
coedge $-1 $213 $213 $214 $215 reversed $189 $-1 #
coedge $-1 $192 $192 $191 $204 forward $201 $-1 #
edge $-1 $194 0 $196 3.141592653589793116 $191 $216 forward 7 unknown #
ellipse-curve $-1 5.63993296509579491e-15 -2.819966482547897455e-15 136.6519999999999868 0 0 1 -76.19999999999998863 2.819966482547897455e-15 0 1 I I #
point $-1 76.19999999999998863 0 136.6519999999999868 #
point $-1 -76.19999999999998863 0 136.6519999999999868 #
face $-1 $217 $218 $2 $-1 $219 forward single #
loop $-1 $-1 $220 $198 #
cone-surface $-1 0 0 136.6519999999999868 0 0 1 -101.5999999999999943 0 0 1 I I 0 1 101.5999999999999943 forward I I I I #
coedge $-1 $221 $214 $222 $223 forward $199 $-1 #
loop $-1 $-1 $224 $177 #
coedge $-1 $202 $202 $225 $226 reversed $189 $-1 #
coedge $-1 $211 $227 $202 $215 forward $199 $-1 #
edge $-1 $228 0 $229 3.141592653589793116 $202 $230 forward 7 unknown #
ellipse-curve $-1 2.819966482547897455e-15 5.63993296509579491e-15 136.6519999999999868 0 0 1 76.19999999999998863 -5.63993296509579491e-15 0 1 I I #
face $-1 $231 $232 $2 $-1 $233 reversed single #
loop $-1 $234 $235 $208 #
plane-surface $-1 0 0 168.1479999999999961 0 0 1 -25.39999999999999858 0 0 forward_v I I I I #
coedge $-1 $236 $225 $227 $237 forward $209 $-1 #
coedge $-1 $227 $211 $235 $238 reversed $199 $-1 #
coedge $-1 $225 $236 $211 $223 reversed $209 $-1 #
edge $-1 $229 0 $239 1.240000000000000435 $222 $240 forward 7 unknown #
coedge $-1 $241 $241 $242 $243 reversed $212 $-1 #
coedge $-1 $220 $222 $213 $226 forward $209 $-1 #
edge $-1 $229 0 $228 3.141592653589793116 $213 $244 forward 7 unknown #
coedge $-1 $214 $221 $220 $237 reversed $199 $-1 #
vertex $-1 $226 $245 #
vertex $-1 $226 $246 #
ellipse-curve $-1 0 0 136.6519999999999868 0 0 1 101.5999999999999943 0 0 1 I I #
face $-1 $-1 $247 $2 $-1 $248 reversed single #
loop $-1 $-1 $249 $217 #
cone-surface $-1 0 88.89999999999999147 168.1479999999999961 0 0 -1 -4.825999999999999623 0 0 1 I I 0 1 4.825999999999999623 forward I I I I #
loop $-1 $-1 $250 $208 #
coedge $-1 $251 $251 $221 $238 forward $218 $-1 #
coedge $-1 $222 $220 $251 $252 reversed $209 $-1 #
edge $-1 $228 0 $253 1.240000000000000435 $220 $254 forward 7 unknown #
edge $-1 $253 0 $239 3.141592653589793116 $235 $255 forward 7 unknown #
vertex $-1 $252 $256 #
straight-curve $-1 -101.5999999999999943 0 136.6519999999999868 0 0 25.39999999999999858 I I #
coedge $-1 $224 $224 $257 $258 reversed $212 $-1 #
coedge $-1 $249 $259 $224 $243 forward $232 $-1 #
edge $-1 $260 0 $261 3.141592653589793116 $224 $262 forward 7 unknown #
ellipse-curve $-1 0 0 136.6519999999999868 0 0 1 -101.5999999999999943 0 0 1 I I #
point $-1 101.5999999999999943 0 136.6519999999999868 #
point $-1 -101.5999999999999943 0 136.6519999999999868 #
loop $-1 $-1 $263 $231 #
cone-surface $-1 0 88.89999999999999147 168.1479999999999961 0 0 -1 -4.825999999999999623 0 0 1 I I 0 1 4.825999999999999623 forward I I I I #
coedge $-1 $264 $242 $265 $266 reversed $232 $-1 #
coedge $-1 $267 $267 $264 $268 forward $234 $-1 #
coedge $-1 $235 $235 $236 $252 forward $218 $-1 #
edge $-1 $239 0 $253 3.141592653589793116 $251 $269 forward 7 unknown #
vertex $-1 $252 $270 #
straight-curve $-1 101.5999999999999943 -1.244200055483535263e-14 136.6519999999999868 0 0 25.39999999999999858 I I #
ellipse-curve $-1 -2.819966482547897455e-15 -5.63993296509579491e-15 168.1479999999999961 0 0 1 101.5999999999999943 5.63993296509579491e-15 0 1 I I #
point $-1 -101.5999999999999943 0 168.1479999999999961 #
coedge $-1 $263 $265 $241 $258 forward $247 $-1 #
edge $-1 $261 0 $260 3.141592653589793116 $241 $271 forward 7 unknown #
coedge $-1 $242 $264 $263 $272 forward $232 $-1 #
vertex $-1 $258 $273 #
vertex $-1 $258 $274 #
ellipse-curve $-1 0 88.89999999999999147 136.6519999999999868 0 0 -1 4.825999999999999623 0 0 1 I I #
coedge $-1 $275 $257 $259 $272 reversed $247 $-1 #
coedge $-1 $259 $249 $250 $268 reversed $232 $-1 #
coedge $-1 $257 $275 $249 $266 forward $247 $-1 #
edge $-1 $276 0 $261 1.240000000000000435 $265 $277 forward 7 unknown #
coedge $-1 $250 $250 $275 $278 forward $234 $-1 #
edge $-1 $279 0 $276 3.141592653589793116 $250 $280 forward 7 unknown #
ellipse-curve $-1 0 2.819966482547897455e-15 168.1479999999999961 0 0 1 -101.5999999999999943 -2.819966482547897455e-15 0 1 I I #
point $-1 101.5999999999999943 0 168.1479999999999961 #
ellipse-curve $-1 3.524958103184871819e-16 88.89999999999999147 136.6519999999999868 0 0 -1 -4.825999999999999623 0 0 1 I I #
edge $-1 $279 0 $260 1.240000000000000435 $263 $281 forward 7 unknown #
point $-1 4.825999999999999623 88.89999999999999147 136.6519999999999868 #
point $-1 -4.825999999999999623 88.89999999999999147 136.6519999999999868 #
coedge $-1 $265 $263 $267 $278 reversed $247 $-1 #
vertex $-1 $278 $282 #
straight-curve $-1 -4.825999999999999623 88.89999999999999147 168.1479999999999961 0 0 -25.39999999999999858 I I #
edge $-1 $276 0 $279 3.141592653589793116 $267 $283 forward 7 unknown #
vertex $-1 $278 $284 #
ellipse-curve $-1 0 88.89999999999999147 168.1479999999999961 0 0 -1 4.825999999999999623 0 0 1 I I #
straight-curve $-1 4.825999999999999623 88.89999999999999147 168.1479999999999961 0 0 -25.39999999999999858 I I #
point $-1 -4.825999999999999623 88.89999999999999147 168.1479999999999961 #
ellipse-curve $-1 0 88.89999999999999147 168.1479999999999961 0 0 -1 -4.825999999999999623 0 0 1 I I #
point $-1 4.825999999999999623 88.89999999999999147 168.1479999999999961 #
End-of-ACIS-data 