700 0 2 0           
24 FBMach with ACIS - 7.0.3 13 ACIS 7.0.3 NT 24 Tue May 14 14:19:38 2002 
1 9.9999999999999995e-007 1e-010 
body $2 -1 $-1 $3 $-1 $4 #
bdycol-kcp $-1 -1 1 3 $5 $6 $7 #
model_id-kcp-attrib $-1 -1 $-1 $-1 $0 1 1021400377 1021400377 -1796997119 1 #
lump $-1 -1 $-1 $-1 $8 $0 #
transform $-1 -1 1 0 0 0 1 0 0 0 1 0 0 0 1 rotate no_reflect no_shear #
body $9 -1 $-1 $10 $-1 $11 #
body $12 -1 $-1 $13 $-1 $14 #
body $15 -1 $-1 $16 $-1 $17 #
shell $-1 -1 $-1 $-1 $-1 $18 $-1 $3 #
model_id-kcp-attrib $-1 -1 $-1 $-1 $5 1 1021400377 1021400378 -1811546110 1 #
lump $-1 -1 $-1 $-1 $19 $5 #
transform $-1 -1 1 0 0 0 1 0 0 0 1 0 0 1.2450000000000001 1 no_rotate no_reflect no_shear #
rgb_color-st-attrib $-1 -1 $20 $-1 $6 0.5 1 1 #
lump $-1 -1 $-1 $-1 $21 $6 #
transform $-1 -1 -1 0 -1.2246063538223773e-016 0 1 0 1.2246063538223773e-016 0 -1 7.5925593936987386e-017 3.5 6 1 rotate no_reflect no_shear #
rgb_color-st-attrib $-1 -1 $22 $-1 $7 0.5 1 1 #
lump $-1 -1 $-1 $23 $24 $7 #
transform $-1 -1 1 0 0 0 1 0 0 0 1 0 0 1.2450000000000001 1 no_rotate no_reflect no_shear #
face $25 -1 $-1 $26 $27 $8 $-1 $28 reversed single #
shell $-1 -1 $-1 $-1 $-1 $29 $-1 $10 #
model_id-kcp-attrib $-1 -1 $-1 $12 $6 1 1021400377 1021400378 -1810235389 1 #
shell $-1 -1 $-1 $-1 $-1 $30 $-1 $13 #
model_id-kcp-attrib $-1 -1 $-1 $15 $7 1 1021400377 1021400378 -1799684092 1 #
lump $-1 -1 $-1 $31 $32 $7 #
shell $-1 -1 $-1 $-1 $-1 $33 $-1 $16 #
model_id-kcp-attrib $-1 -1 $-1 $-1 $18 1 1021400377 1021400377 -1796997119 2 #
face $34 -1 $-1 $35 $36 $8 $-1 $37 forward single #
loop $-1 -1 $-1 $-1 $38 $18 #
plane-surface $-1 -1 $-1 0 0 -4.1299999999999999 0 0 1 1 0 0 forward_v I I I I #
face $39 -1 $-1 $40 $41 $19 $-1 $42 forward single #
face $-1 -1 $-1 $43 $44 $21 $-1 $45 forward single #
lump $-1 -1 $-1 $46 $47 $7 #
shell $-1 -1 $-1 $-1 $-1 $48 $-1 $23 #
face $-1 -1 $-1 $49 $50 $24 $-1 $51 reversed single #
model_id-kcp-attrib $-1 -1 $-1 $-1 $26 1 1021400377 1021400377 -1796997119 3 #
face $52 -1 $-1 $53 $54 $8 $-1 $55 forward single #
loop $-1 -1 $-1 $56 $57 $26 #
plane-surface $-1 -1 $-1 0 0 4.1299999999999999 0 0 1 1 0 0 forward_v I I I I #
coedge $-1 -1 $-1 $58 $59 $60 $61 forward $27 $-1 #
model_id-kcp-attrib $-1 -1 $-1 $-1 $29 1 1021400377 1021400378 -1811546110 7 #
face $62 -1 $-1 $63 $64 $19 $-1 $65 reversed single #
loop $-1 -1 $-1 $-1 $66 $29 #
plane-surface $-1 -1 $-1 0 0 5.375 0 0 1 1 0 0 forward_v I I I I #
face $-1 -1 $-1 $67 $68 $21 $-1 $69 forward single #
loop $-1 -1 $-1 $70 $71 $30 #
cone-surface $-1 -1 $-1 0 0 0 0 0 1 0.19 0 0 1 I I 0 1 0.19 forward I I I I #
lump $-1 -1 $-1 $-1 $72 $7 #
shell $-1 -1 $-1 $-1 $-1 $73 $-1 $31 #
face $-1 -1 $-1 $74 $75 $32 $-1 $76 reversed single #
face $-1 -1 $-1 $77 $78 $24 $-1 $79 reversed single #
loop $-1 -1 $-1 $-1 $80 $33 #
cone-surface $-1 -1 $-1 -7.25 -4.125 -5.375 0 0 -1 0 -1 0 1 I I 0 1 1 forward I I I I #
model_id-kcp-attrib $-1 -1 $-1 $-1 $35 1 1021400377 1021400377 -1796997119 4 #
face $81 -1 $-1 $82 $83 $8 $-1 $84 forward single #
loop $-1 -1 $-1 $-1 $60 $35 #
cone-surface $-1 -1 $-1 -7.25 4.125 -4.1299999999999999 0 0 1 1 0 0 1 I I 0 1 1 forward I I I I #
loop $-1 -1 $-1 $-1 $85 $26 #
coedge $-1 -1 $-1 $86 $87 $88 $89 reversed $36 $-1 #
coedge $-1 -1 $-1 $90 $38 $91 $92 forward $27 $-1 #
coedge $-1 -1 $-1 $38 $93 $94 $95 forward $27 $-1 #
coedge $-1 -1 $-1 $96 $97 $38 $61 reversed $54 $-1 #
edge $98 -1 $-1 $99 -1.5707963267948966 $100 0 $60 $101 forward @7 unknown #
model_id-kcp-attrib $-1 -1 $-1 $-1 $40 1 1021400377 1021400378 -1811546110 2 #
face $102 -1 $-1 $103 $104 $19 $-1 $105 reversed single #
loop $-1 -1 $-1 $-1 $106 $40 #
plane-surface $-1 -1 $-1 0 0 -5.375 0 0 1 1 0 0 forward_v I I I I #
coedge $-1 -1 $-1 $107 $108 $109 $110 forward $41 $-1 #
face $-1 -1 $-1 $-1 $111 $21 $-1 $112 forward single #
loop $-1 -1 $-1 $-1 $113 $43 #
plane-surface $-1 -1 $-1 0 0 -0.62000000000000011 0 0 -1 -1 0 0 forward_v I I I I #
loop $-1 -1 $-1 $-1 $114 $30 #
coedge $-1 -1 $-1 $71 $71 $113 $115 reversed $44 $-1 #
shell $-1 -1 $-1 $-1 $-1 $116 $-1 $46 #
face $-1 -1 $-1 $117 $118 $47 $-1 $119 reversed single #
face $-1 -1 $-1 $120 $121 $32 $-1 $122 reversed single #
loop $-1 -1 $-1 $-1 $123 $48 #
plane-surface $-1 -1 $-1 0 5.125 0 0 -1 0 0 0 -1 forward_v I I I I #
face $-1 -1 $-1 $124 $125 $24 $-1 $126 forward single #
loop $-1 -1 $-1 $-1 $127 $49 #
plane-surface $-1 -1 $-1 -8.25 0 0 1 0 0 0 0 -1 forward_v I I I I #
coedge $-1 -1 $-1 $128 $129 $130 $131 reversed $50 $-1 #
model_id-kcp-attrib $-1 -1 $-1 $-1 $53 1 1021400377 1021400377 -1796997119 5 #
face $132 -1 $-1 $133 $134 $8 $-1 $135 forward single #
loop $-1 -1 $-1 $-1 $94 $53 #
plane-surface $-1 -1 $-1 -8.25 4.125 -4.1299999999999999 -1 0 0 0 0 1 forward_v I I I I #
coedge $-1 -1 $-1 $85 $85 $136 $137 forward $56 $-1 #
coedge $-1 -1 $-1 $138 $57 $139 $140 reversed $36 $-1 #
coedge $-1 -1 $-1 $57 $141 $142 $143 reversed $36 $-1 #
coedge $-1 -1 $-1 $97 $96 $57 $89 forward $54 $-1 #
edge $-1 -1 $-1 $144 -1.5707963267948966 $145 0 $88 $146 forward @7 unknown #
coedge $-1 -1 $-1 $147 $58 $148 $149 forward $27 $-1 #
coedge $-1 -1 $-1 $150 $151 $58 $92 reversed $152 $-1 #
edge $153 -1 $-1 $100 -14.5 $154 0 $91 $155 forward @7 unknown #
coedge $-1 -1 $-1 $59 $156 $157 $158 forward $27 $-1 #
coedge $-1 -1 $-1 $159 $160 $59 $95 reversed $83 $-1 #
edge $161 -1 $-1 $162 -8.25 $99 0 $94 $163 forward @7 unknown #
coedge $-1 -1 $-1 $88 $60 $160 $164 reversed $54 $-1 #
coedge $-1 -1 $-1 $60 $88 $150 $165 forward $54 $-1 #
attrib_edge_convexity-kcp-attrib $-1 -1 $166 $-1 $61 1 #
vertex $-1 -1 $-1 $164 $167 #
vertex $-1 -1 $-1 $165 $168 #
ellipse-curve $-1 -1 $-1 -7.25 4.125 -4.1299999999999999 0 0 -1 0 1 0 1 I I #
model_id-kcp-attrib $-1 -1 $-1 $-1 $63 1 1021400377 1021400378 -1811546110 4 #
face $169 -1 $-1 $170 $171 $19 $-1 $172 reversed single #
loop $-1 -1 $-1 $-1 $173 $63 #
plane-surface $-1 -1 $-1 0 -5.125 0 0 1 0 0 0 1 forward_v I I I I #
coedge $-1 -1 $-1 $174 $175 $176 $177 forward $64 $-1 #
coedge $-1 -1 $-1 $178 $66 $179 $180 forward $41 $-1 #
coedge $-1 -1 $-1 $66 $178 $181 $182 forward $41 $-1 #
coedge $-1 -1 $-1 $183 $184 $66 $110 reversed $185 $-1 #
edge $-1 -1 $-1 $186 -5.125 $187 5.125 $109 $188 forward @7 unknown #
loop $-1 -1 $-1 $-1 $189 $67 #
plane-surface $-1 -1 $-1 0 0 0.62000000000000011 0 0 1 1 0 0 forward_v I I I I #
coedge $-1 -1 $-1 $113 $113 $71 $115 forward $68 $-1 #
coedge $-1 -1 $-1 $114 $114 $189 $190 reversed $70 $-1 #
edge $-1 -1 $-1 $191 0 $191 6.2831853071795862 $113 $192 forward @7 unknown #
face $-1 -1 $-1 $193 $194 $72 $-1 $195 reversed single #
face $-1 -1 $-1 $196 $197 $47 $-1 $79 reversed single #
loop $-1 -1 $-1 $-1 $198 $73 #
cone-surface $-1 -1 $-1 -7.25 4.125 -5.375 0 0 -1 -1 0 0 1 I I 0 1 1 forward I I I I #
face $-1 -1 $-1 $199 $200 $32 $-1 $195 reversed single #
loop $-1 -1 $-1 $-1 $201 $74 #
plane-surface $-1 -1 $-1 0 0 -5.375 0 0 1 1 0 0 forward_v I I I I #
coedge $-1 -1 $-1 $202 $203 $204 $205 reversed $75 $-1 #
face $-1 -1 $-1 $206 $207 $24 $-1 $122 reversed single #
loop $-1 -1 $-1 $-1 $130 $77 #
plane-surface $-1 -1 $-1 0 0 5.375 0 0 1 1 0 0 forward_v I I I I #
coedge $-1 -1 $-1 $208 $209 $129 $210 forward $78 $-1 #
coedge $-1 -1 $-1 $211 $80 $212 $213 forward $50 $-1 #
coedge $-1 -1 $-1 $80 $211 $127 $210 reversed $50 $-1 #
coedge $-1 -1 $-1 $214 $215 $80 $131 forward $125 $-1 #
edge $-1 -1 $-1 $216 0 $217 1.5707963267948966 $130 $218 forward @7 unknown #
model_id-kcp-attrib $-1 -1 $-1 $-1 $82 1 1021400377 1021400377 -1796997119 6 #
face $219 -1 $-1 $220 $221 $8 $-1 $222 forward single #
loop $-1 -1 $-1 $-1 $157 $82 #
cone-surface $-1 -1 $-1 -7.25 -4.125 -4.1299999999999999 0 0 1 1 0 0 1 I I 0 1 1 forward I I I I #
coedge $-1 -1 $-1 $136 $136 $85 $137 reversed $223 $-1 #
edge $-1 -1 $-1 $224 -3.1415926535897931 $224 3.1415926535897931 $136 $225 forward @7 unknown #
coedge $-1 -1 $-1 $226 $86 $227 $228 reversed $36 $-1 #
coedge $-1 -1 $-1 $160 $159 $86 $140 forward $83 $-1 #
edge $229 -1 $-1 $230 -8.25 $144 0 $139 $231 forward @7 unknown #
coedge $-1 -1 $-1 $87 $232 $233 $234 reversed $36 $-1 #
coedge $-1 -1 $-1 $151 $150 $87 $143 forward $152 $-1 #
edge $235 -1 $-1 $145 -14.5 $236 0 $142 $237 forward @7 unknown #
vertex $-1 -1 $-1 $164 $238 #
vertex $-1 -1 $-1 $165 $239 #
ellipse-curve $-1 -1 $-1 -7.25 4.125 4.1299999999999999 0 0 -1 0 1 0 1 I I #
coedge $-1 -1 $-1 $240 $90 $241 $242 forward $27 $-1 #
coedge $-1 -1 $-1 $243 $244 $90 $149 reversed $245 $-1 #
edge $246 -1 $-1 $154 -1.5707963267948966 $247 0 $148 $248 forward @7 unknown #
coedge $-1 -1 $-1 $142 $91 $97 $165 reversed $152 $-1 #
coedge $-1 -1 $-1 $91 $142 $243 $249 forward $152 $-1 #
loop $-1 -1 $-1 $-1 $91 $250 #
attrib_edge_convexity-kcp-attrib $-1 -1 $251 $-1 $92 1 #
vertex $-1 -1 $-1 $249 $252 #
straight-curve $-1 -1 $-1 7.25 5.125 -4.1299999999999999 1 0 0 I I #
coedge $-1 -1 $-1 $93 $240 $253 $254 forward $27 $-1 #
coedge $-1 -1 $-1 $255 $256 $93 $158 reversed $134 $-1 #
edge $257 -1 $-1 $258 -1.5707963267948966 $162 0 $157 $259 forward @7 unknown #
coedge $-1 -1 $-1 $139 $94 $256 $260 reversed $83 $-1 #
coedge $-1 -1 $-1 $94 $139 $96 $164 forward $83 $-1 #
attrib_edge_convexity-kcp-attrib $-1 -1 $261 $-1 $95 1 #
vertex $-1 -1 $-1 $260 $262 #
straight-curve $-1 -1 $-1 -8.25 4.125 -4.1299999999999999 0 1 0 I I #
edge $263 -1 $-1 $144 -8.2599999999999998 $99 0 $160 $264 forward @7 unknown #
edge $-1 -1 $-1 $145 -8.2599999999999998 $100 0 $150 $265 forward @7 unknown #
convexity-sys-attrib $-1 -1 $-1 $98 $61 #
point $-1 -1 $-1 -8.25 4.125 -4.1299999999999999 #
point $-1 -1 $-1 -7.25 5.125 -4.1299999999999999 #
model_id-kcp-attrib $-1 -1 $-1 $-1 $103 1 1021400377 1021400378 -1811546110 3 #
face $266 -1 $-1 $267 $268 $19 $-1 $269 reversed single #
loop $-1 -1 $-1 $-1 $270 $103 #
plane-surface $-1 -1 $-1 -8.25 0 0 1 0 0 0 0 -1 forward_v I I I I #
coedge $-1 -1 $-1 $271 $181 $272 $273 forward $104 $-1 #
coedge $-1 -1 $-1 $274 $106 $271 $275 forward $64 $-1 #
coedge $-1 -1 $-1 $106 $274 $276 $277 forward $64 $-1 #
coedge $-1 -1 $-1 $184 $183 $106 $177 reversed $185 $-1 #
edge $-1 -1 $-1 $278 -5.125 $279 5.125 $176 $280 forward @7 unknown #
coedge $-1 -1 $-1 $108 $107 $281 $282 forward $41 $-1 #
coedge $-1 -1 $-1 $283 $284 $107 $180 reversed $268 $-1 #
edge $-1 -1 $-1 $187 -8.25 $285 8.25 $179 $286 forward @7 unknown #
coedge $-1 -1 $-1 $173 $287 $108 $182 reversed $104 $-1 #
edge $-1 -1 $-1 $288 -8.25 $186 8.25 $181 $289 forward @7 unknown #
coedge $-1 -1 $-1 $176 $109 $287 $290 forward $185 $-1 #
coedge $-1 -1 $-1 $109 $176 $283 $291 reversed $185 $-1 #
loop $-1 -1 $-1 $-1 $183 $267 #
vertex $-1 -1 $-1 $110 $292 #
vertex $-1 -1 $-1 $110 $293 #
straight-curve $-1 -1 $-1 8.25 0 5.375 0 1 0 I I #
coedge $-1 -1 $-1 $189 $189 $114 $190 forward $111 $-1 #
edge $-1 -1 $-1 $294 0 $294 6.2831853071795862 $189 $295 forward @7 unknown #
vertex $-1 -1 $-1 $115 $296 #
ellipse-curve $-1 -1 $-1 0 0 -0.62000000000000011 0 0 -1 0.19 0 0 1 I I #
face $-1 -1 $-1 $297 $298 $72 $-1 $122 reversed single #
loop $-1 -1 $-1 $-1 $299 $116 #
plane-surface $-1 -1 $-1 8.25 0 0 -1 0 0 0 0 1 forward_v I I I I #
face $-1 -1 $-1 $300 $301 $47 $-1 $126 forward single #
loop $-1 -1 $-1 $-1 $302 $117 #
coedge $-1 -1 $-1 $303 $304 $305 $306 reversed $118 $-1 #
face $-1 -1 $-1 $307 $308 $32 $-1 $126 forward single #
loop $-1 -1 $-1 $-1 $309 $120 #
coedge $-1 -1 $-1 $310 $311 $312 $313 forward $121 $-1 #
coedge $-1 -1 $-1 $314 $123 $315 $316 reversed $75 $-1 #
coedge $-1 -1 $-1 $123 $314 $310 $317 reversed $75 $-1 #
coedge $-1 -1 $-1 $312 $318 $123 $205 forward $319 $-1 #
edge $-1 -1 $-1 $320 -10.75 $321 0 $123 $322 forward @7 unknown #
face $-1 -1 $-1 $-1 $323 $24 $-1 $324 reversed single #
loop $-1 -1 $-1 $-1 $325 $124 #
coedge $-1 -1 $-1 $326 $127 $327 $328 reversed $78 $-1 #
coedge $-1 -1 $-1 $127 $326 $214 $329 reversed $78 $-1 #
edge $-1 -1 $-1 $217 -10.75 $330 0 $127 $331 forward @7 unknown #
coedge $-1 -1 $-1 $129 $128 $325 $332 reversed $50 $-1 #
coedge $-1 -1 $-1 $333 $334 $128 $213 reversed $323 $-1 #
edge $-1 -1 $-1 $216 -10.75 $335 0 $212 $336 forward @7 unknown #
coedge $-1 -1 $-1 $215 $130 $209 $329 forward $125 $-1 #
coedge $-1 -1 $-1 $130 $214 $333 $337 forward $125 $-1 #
vertex $-1 -1 $-1 $131 $338 #
vertex $-1 -1 $-1 $329 $339 #
ellipse-curve $-1 -1 $-1 -7.25 -4.125 5.375 0 0 -1 0 -1 0 1 I I #
model_id-kcp-attrib $-1 -1 $-1 $-1 $133 1 1021400377 1021400377 -1796997119 7 #
face $340 -1 $-1 $341 $342 $8 $-1 $343 forward single #
loop $-1 -1 $-1 $-1 $253 $133 #
plane-surface $-1 -1 $-1 -7.25 -5.125 -4.1299999999999999 0 -1 0 0 0 -1 forward_v I I I I #
loop $-1 -1 $-1 $344 $136 $345 #
vertex $-1 -1 $-1 $137 $346 #
ellipse-curve $-1 -1 $-1 0 0 4.1299999999999999 0 0 -1 -3 0 0 1 I I #
coedge $-1 -1 $-1 $347 $138 $348 $349 reversed $36 $-1 #
coedge $-1 -1 $-1 $256 $255 $138 $228 forward $134 $-1 #
edge $-1 -1 $-1 $350 -1.5707963267948966 $230 0 $227 $351 forward @7 unknown #
model_id-kcp-attrib $-1 -1 $352 $-1 $140 1 1021400377 1021400377 -1796997119 20 #
vertex $-1 -1 $-1 $260 $353 #
straight-curve $-1 -1 $-1 -8.25 4.125 4.1299999999999999 0 1 0 I I #
coedge $-1 -1 $-1 $141 $347 $354 $355 reversed $36 $-1 #
coedge $-1 -1 $-1 $244 $243 $141 $234 forward $245 $-1 #
edge $-1 -1 $-1 $236 -1.5707963267948966 $356 0 $233 $357 forward @7 unknown #
model_id-kcp-attrib $-1 -1 $-1 $-1 $143 1 1021400377 1021400377 -1796997119 21 #
vertex $-1 -1 $-1 $249 $358 #
straight-curve $-1 -1 $-1 7.25 5.125 4.1299999999999999 1 0 0 I I #
point $-1 -1 $-1 -8.25 4.125 4.1299999999999999 #
point $-1 -1 $-1 -7.25 5.125 4.1299999999999999 #
coedge $-1 -1 $-1 $156 $147 $359 $360 forward $27 $-1 #
coedge $-1 -1 $-1 $361 $362 $147 $242 reversed $363 $-1 #
edge $364 -1 $-1 $247 -8.25 $365 0 $241 $366 forward @7 unknown #
coedge $-1 -1 $-1 $233 $148 $151 $249 reversed $245 $-1 #
coedge $-1 -1 $-1 $148 $233 $361 $367 forward $245 $-1 #
loop $-1 -1 $-1 $-1 $148 $368 #
attrib_edge_convexity-kcp-attrib $-1 -1 $369 $-1 $149 1 #
vertex $-1 -1 $-1 $367 $370 #
ellipse-curve $-1 -1 $-1 7.25 4.125 -4.1299999999999999 0 0 -1 1 0 0 1 I I #
edge $-1 -1 $-1 $236 -8.2599999999999998 $154 0 $151 $371 forward @7 unknown #
face $372 -1 $-1 $345 $152 $8 $-1 $373 forward single #
convexity-sys-attrib $-1 -1 $-1 $153 $92 #
point $-1 -1 $-1 7.25 5.125 -4.1299999999999999 #
coedge $-1 -1 $-1 $374 $375 $156 $254 reversed $221 $-1 #
edge $376 -1 $-1 $377 -14.5 $258 0 $253 $378 forward @7 unknown #
coedge $-1 -1 $-1 $227 $157 $375 $379 reversed $134 $-1 #
coedge $-1 -1 $-1 $157 $227 $159 $260 forward $134 $-1 #
attrib_edge_convexity-kcp-attrib $-1 -1 $380 $-1 $158 1 #
vertex $-1 -1 $-1 $379 $381 #
ellipse-curve $-1 -1 $-1 -7.25 -4.125 -4.1299999999999999 0 0 -1 -1 0 0 1 I I #
edge $382 -1 $-1 $230 -8.2599999999999998 $162 0 $256 $383 forward @7 unknown #
convexity-sys-attrib $-1 -1 $-1 $161 $95 #
point $-1 -1 $-1 -8.25 -4.125 -4.1299999999999999 #
attrib_edge_convexity-kcp-attrib $-1 -1 $384 $-1 $164 3 #
straight-curve $-1 -1 $-1 -8.25 4.125 -4.1299999999999999 0 0 -1 I I #
straight-curve $-1 -1 $-1 -7.25 5.125 -4.1299999999999999 0 0 -1 I I #
model_id-kcp-attrib $-1 -1 $-1 $-1 $170 1 1021400377 1021400378 -1811546110 6 #
face $385 -1 $-1 $-1 $185 $19 $-1 $386 reversed single #
loop $-1 -1 $-1 $-1 $283 $170 #
plane-surface $-1 -1 $-1 0 5.125 0 0 -1 0 0 0 -1 forward_v I I I I #
coedge $-1 -1 $-1 $387 $281 $284 $388 forward $171 $-1 #
coedge $-1 -1 $-1 $287 $173 $174 $275 reversed $104 $-1 #
coedge $-1 -1 $-1 $281 $387 $173 $273 reversed $171 $-1 #
edge $-1 -1 $-1 $288 -5.375 $389 5.375 $272 $390 forward @7 unknown #
coedge $-1 -1 $-1 $175 $174 $387 $391 forward $64 $-1 #
edge $-1 -1 $-1 $279 -8.25 $389 8.25 $271 $392 forward @7 unknown #
coedge $-1 -1 $-1 $284 $283 $175 $277 reversed $268 $-1 #
edge $-1 -1 $-1 $393 -8.25 $278 8.25 $276 $394 forward @7 unknown #
vertex $-1 -1 $-1 $177 $395 #
vertex $-1 -1 $-1 $290 $396 #
straight-curve $-1 -1 $-1 8.25 0 -5.375 0 -1 0 I I #
coedge $-1 -1 $-1 $270 $272 $178 $282 reversed $171 $-1 #
edge $-1 -1 $-1 $285 -5.125 $288 5.125 $281 $397 forward @7 unknown #
coedge $-1 -1 $-1 $276 $179 $184 $291 forward $268 $-1 #
coedge $-1 -1 $-1 $179 $276 $270 $388 reversed $268 $-1 #
vertex $-1 -1 $-1 $180 $398 #
straight-curve $-1 -1 $-1 0 5.125 5.375 -1 0 0 I I #
coedge $-1 -1 $-1 $181 $271 $183 $290 reversed $104 $-1 #
vertex $-1 -1 $-1 $282 $399 #
straight-curve $-1 -1 $-1 0 -5.125 5.375 1 0 0 I I #
edge $-1 -1 $-1 $186 -5.375 $279 5.375 $183 $400 forward @7 unknown #
edge $-1 -1 $-1 $187 -5.375 $278 5.375 $184 $401 forward @7 unknown #
point $-1 -1 $-1 8.25 -5.125 5.375 #
point $-1 -1 $-1 8.25 5.125 5.375 #
vertex $-1 -1 $-1 $190 $402 #
ellipse-curve $-1 -1 $-1 0 0 0.62000000000000011 0 0 1 0.19 0 0 1 I I #
point $-1 -1 $-1 0.19 0 -0.62000000000000011 #
face $-1 -1 $-1 $403 $404 $72 $-1 $126 forward single #
loop $-1 -1 $-1 $-1 $405 $193 #
coedge $-1 -1 $-1 $406 $407 $408 $409 reversed $194 $-1 #
face $-1 -1 $-1 $410 $411 $47 $-1 $76 reversed single #
loop $-1 -1 $-1 $-1 $305 $196 #
coedge $-1 -1 $-1 $412 $413 $303 $414 reversed $197 $-1 #
coedge $-1 -1 $-1 $415 $198 $302 $414 forward $118 $-1 #
coedge $-1 -1 $-1 $198 $415 $416 $417 reversed $118 $-1 #
coedge $-1 -1 $-1 $418 $419 $198 $306 forward $301 $-1 #
edge $-1 -1 $-1 $420 0 $421 1.5707963267948966 $305 $422 forward @7 unknown #
face $-1 -1 $-1 $-1 $319 $32 $-1 $423 reversed single #
loop $-1 -1 $-1 $-1 $424 $199 #
coedge $-1 -1 $-1 $425 $426 $427 $428 forward $200 $-1 #
coedge $-1 -1 $-1 $311 $201 $203 $317 forward $121 $-1 #
coedge $-1 -1 $-1 $201 $310 $425 $429 forward $121 $-1 #
coedge $-1 -1 $-1 $427 $204 $201 $313 reversed $319 $-1 #
edge $-1 -1 $-1 $430 -1.5707963267948966 $321 0 $201 $431 forward @7 unknown #
coedge $-1 -1 $-1 $203 $202 $432 $433 forward $75 $-1 #
coedge $-1 -1 $-1 $424 $434 $202 $316 forward $308 $-1 #
edge $-1 -1 $-1 $435 -8.25 $320 -7.25 $202 $436 forward @7 unknown #
edge $-1 -1 $-1 $321 7.25 $437 8.25 $203 $438 forward @7 unknown #
coedge $-1 -1 $-1 $204 $427 $424 $439 reversed $319 $-1 #
loop $-1 -1 $-1 $-1 $318 $307 #
vertex $-1 -1 $-1 $205 $440 #
vertex $-1 -1 $-1 $317 $441 #
straight-curve $-1 -1 $-1 7.25 5.125 -5.375 0 0 -1 I I #
loop $-1 -1 $-1 $-1 $212 $206 #
plane-surface $-1 -1 $-1 0 -5.125 0 0 1 0 0 0 1 forward_v I I I I #
coedge $-1 -1 $-1 $442 $327 $211 $332 forward $207 $-1 #
coedge $-1 -1 $-1 $209 $208 $443 $444 reversed $78 $-1 #
coedge $-1 -1 $-1 $325 $442 $208 $328 forward $207 $-1 #
edge $-1 -1 $-1 $445 -5.125 $330 -4.125 $208 $446 forward @7 unknown #
edge $-1 -1 $-1 $217 4.125 $447 5.125 $209 $448 forward @7 unknown #
vertex $-1 -1 $-1 $210 $449 #
straight-curve $-1 -1 $-1 -8.25 -4.125 -5.375 0 0 -1 I I #
edge $-1 -1 $-1 $330 -1.5707963267948966 $335 0 $325 $450 forward @7 unknown #
coedge $-1 -1 $-1 $443 $212 $215 $337 reversed $323 $-1 #
coedge $-1 -1 $-1 $212 $443 $442 $451 reversed $323 $-1 #
vertex $-1 -1 $-1 $451 $452 #
straight-curve $-1 -1 $-1 -7.25 -5.125 -5.375 0 0 -1 I I #
edge $-1 -1 $-1 $447 -8.25 $216 -7.25 $333 $453 forward @7 unknown #
point $-1 -1 $-1 -7.25 -5.125 5.375 #
point $-1 -1 $-1 -8.25 -4.125 5.375 #
model_id-kcp-attrib $-1 -1 $-1 $-1 $220 1 1021400377 1021400377 -1796997119 8 #
face $454 -1 $-1 $368 $363 $8 $-1 $455 forward single #
loop $-1 -1 $-1 $-1 $359 $220 #
cone-surface $-1 -1 $-1 7.25 -4.125 -4.1299999999999999 0 0 1 1 0 0 1 I I 0 1 1 forward I I I I #
loop $-1 -1 $-1 $-1 $456 $345 #
face $457 -1 $-1 $458 $223 $8 $-1 $459 forward single #
point $-1 -1 $-1 3 0 4.1299999999999999 #
coedge $-1 -1 $-1 $232 $226 $460 $461 reversed $36 $-1 #
coedge $-1 -1 $-1 $375 $374 $226 $349 forward $221 $-1 #
edge $462 -1 $-1 $463 -14.5 $350 0 $348 $464 forward @7 unknown #
vertex $-1 -1 $-1 $379 $465 #
ellipse-curve $-1 -1 $-1 -7.25 -4.125 4.1299999999999999 0 0 -1 -1 0 0 1 I I #
attrib_edge_convexity-kcp-attrib $-1 -1 $466 $229 $140 1 #
point $-1 -1 $-1 -8.25 -4.125 4.1299999999999999 #
coedge $-1 -1 $-1 $362 $361 $232 $355 forward $363 $-1 #
edge $467 -1 $-1 $356 -8.25 $468 0 $354 $469 forward @7 unknown #
vertex $-1 -1 $-1 $367 $470 #
ellipse-curve $-1 -1 $-1 7.25 4.125 4.1299999999999999 0 0 -1 1 0 0 1 I I #
point $-1 -1 $-1 7.25 5.125 4.1299999999999999 #
coedge $-1 -1 $-1 $471 $472 $240 $360 reversed $342 $-1 #
edge $473 -1 $-1 $365 -1.5707963267948966 $377 0 $359 $474 forward @7 unknown #
coedge $-1 -1 $-1 $354 $241 $244 $367 reversed $363 $-1 #
coedge $-1 -1 $-1 $241 $354 $471 $475 forward $363 $-1 #
loop $-1 -1 $-1 $-1 $241 $341 #
attrib_edge_convexity-kcp-attrib $-1 -1 $476 $-1 $242 1 #
vertex $-1 -1 $-1 $475 $477 #
straight-curve $-1 -1 $-1 8.25 -4.125 -4.1299999999999999 0 -1 0 I I #
edge $-1 -1 $-1 $356 -8.2599999999999998 $247 0 $244 $478 forward @7 unknown #
face $479 -1 $-1 $250 $245 $8 $-1 $480 forward single #
convexity-sys-attrib $-1 -1 $-1 $246 $149 #
point $-1 -1 $-1 8.25 4.125 -4.1299999999999999 #
straight-curve $-1 -1 $-1 7.25 5.125 -4.1299999999999999 0 0 -1 I I #
model_id-kcp-attrib $-1 -1 $-1 $-1 $250 1 1021400377 1021400377 -1796997119 11 #
plane-surface $-1 -1 $-1 7.25 5.125 -4.1299999999999999 0 1 0 0 0 1 forward_v I I I I #
coedge $-1 -1 $-1 $348 $253 $472 $481 reversed $221 $-1 #
coedge $-1 -1 $-1 $253 $348 $255 $379 forward $221 $-1 #
attrib_edge_convexity-kcp-attrib $-1 -1 $482 $-1 $254 1 #
vertex $-1 -1 $-1 $481 $483 #
straight-curve $-1 -1 $-1 -7.25 -5.125 -4.1299999999999999 -1 0 0 I I #
edge $484 -1 $-1 $350 -8.2599999999999998 $258 0 $375 $485 forward @7 unknown #
convexity-sys-attrib $-1 -1 $-1 $257 $158 #
point $-1 -1 $-1 -7.25 -5.125 -4.1299999999999999 #
attrib_edge_convexity-kcp-attrib $-1 -1 $486 $-1 $260 3 #
straight-curve $-1 -1 $-1 -8.25 -4.125 -4.1299999999999999 0 0 -1 I I #
convexity-sys-attrib $-1 -1 $-1 $263 $164 #
model_id-kcp-attrib $-1 -1 $-1 $-1 $267 1 1021400377 1021400378 -1811546110 5 #
plane-surface $-1 -1 $-1 8.25 0 0 -1 0 0 0 0 1 forward_v I I I I #
coedge $-1 -1 $-1 $272 $270 $274 $391 reversed $171 $-1 #
edge $-1 -1 $-1 $285 -5.375 $393 5.375 $284 $487 forward @7 unknown #
vertex $-1 -1 $-1 $391 $488 #
straight-curve $-1 -1 $-1 -8.25 -5.125 0 0 0 -1 I I #
edge $-1 -1 $-1 $389 -5.125 $393 5.125 $387 $489 forward @7 unknown #
straight-curve $-1 -1 $-1 0 -5.125 -5.375 -1 0 0 I I #
vertex $-1 -1 $-1 $277 $490 #
straight-curve $-1 -1 $-1 0 5.125 -5.375 1 0 0 I I #
point $-1 -1 $-1 8.25 5.125 -5.375 #
point $-1 -1 $-1 8.25 -5.125 -5.375 #
straight-curve $-1 -1 $-1 -8.25 0 5.375 0 -1 0 I I #
point $-1 -1 $-1 -8.25 5.125 5.375 #
point $-1 -1 $-1 -8.25 -5.125 5.375 #
straight-curve $-1 -1 $-1 8.25 -5.125 0 0 0 -1 I I #
straight-curve $-1 -1 $-1 8.25 5.125 0 0 0 -1 I I #
point $-1 -1 $-1 0.19 0 0.62000000000000011 #
face $-1 -1 $-1 $491 $492 $72 $-1 $324 reversed single #
loop $-1 -1 $-1 $-1 $493 $297 #
coedge $-1 -1 $-1 $494 $495 $496 $497 forward $298 $-1 #
coedge $-1 -1 $-1 $498 $299 $499 $500 reversed $194 $-1 #
coedge $-1 -1 $-1 $299 $498 $494 $501 reversed $194 $-1 #
coedge $-1 -1 $-1 $496 $502 $299 $409 forward $503 $-1 #
edge $-1 -1 $-1 $504 -10.75 $505 0 $299 $506 forward @7 unknown #
face $-1 -1 $-1 $-1 $507 $47 $-1 $122 reversed single #
loop $-1 -1 $-1 $-1 $416 $300 #
coedge $-1 -1 $-1 $508 $302 $419 $509 reversed $197 $-1 #
coedge $-1 -1 $-1 $302 $508 $510 $511 reversed $197 $-1 #
edge $-1 -1 $-1 $420 -10.75 $512 0 $302 $513 forward @7 unknown #
coedge $-1 -1 $-1 $304 $303 $514 $515 reversed $118 $-1 #
coedge $-1 -1 $-1 $516 $517 $304 $417 forward $411 $-1 #
edge $-1 -1 $-1 $421 -10.75 $518 0 $416 $519 forward @7 unknown #
coedge $-1 -1 $-1 $419 $305 $517 $520 forward $301 $-1 #
coedge $-1 -1 $-1 $305 $418 $412 $509 forward $301 $-1 #
vertex $-1 -1 $-1 $306 $521 #
vertex $-1 -1 $-1 $520 $522 #
ellipse-curve $-1 -1 $-1 -7.25 4.125 5.375 0 0 -1 -1 0 0 1 I I #
cone-surface $-1 -1 $-1 7.25 4.125 -5.375 0 0 -1 0 1 0 1 I I 0 1 1 forward I I I I #
coedge $-1 -1 $-1 $434 $315 $318 $439 forward $308 $-1 #
coedge $-1 -1 $-1 $432 $309 $311 $429 reversed $200 $-1 #
coedge $-1 -1 $-1 $309 $432 $434 $523 reversed $200 $-1 #
coedge $-1 -1 $-1 $318 $312 $309 $428 reversed $319 $-1 #
edge $-1 -1 $-1 $524 -10.75 $430 0 $309 $525 forward @7 unknown #
edge $-1 -1 $-1 $437 -5.125 $430 -4.125 $425 $526 forward @7 unknown #
vertex $-1 -1 $-1 $313 $527 #
ellipse-curve $-1 -1 $-1 7.25 4.125 -5.375 0 0 1 0 1 0 1 I I #
coedge $-1 -1 $-1 $426 $425 $314 $433 reversed $200 $-1 #
edge $-1 -1 $-1 $435 -5.375 $437 5.375 $432 $528 forward @7 unknown #
coedge $-1 -1 $-1 $315 $424 $426 $523 forward $308 $-1 #
vertex $-1 -1 $-1 $523 $529 #
straight-curve $-1 -1 $-1 0 5.125 5.375 -1 0 0 I I #
vertex $-1 -1 $-1 $429 $530 #
straight-curve $-1 -1 $-1 0 5.125 -5.375 1 0 0 I I #
edge $-1 -1 $-1 $320 0 $524 1.5707963267948966 $424 $531 forward @7 unknown #
point $-1 -1 $-1 7.25 5.125 5.375 #
point $-1 -1 $-1 7.25 5.125 -5.375 #
coedge $-1 -1 $-1 $327 $325 $334 $451 forward $207 $-1 #
coedge $-1 -1 $-1 $334 $333 $326 $444 forward $323 $-1 #
edge $-1 -1 $-1 $447 -5.375 $445 5.375 $326 $532 forward @7 unknown #
vertex $-1 -1 $-1 $328 $533 #
straight-curve $-1 -1 $-1 -8.25 0 -5.375 0 1 0 I I #
vertex $-1 -1 $-1 $329 $534 #
straight-curve $-1 -1 $-1 -8.25 0 5.375 0 -1 0 I I #
point $-1 -1 $-1 -8.25 -4.125 -5.375 #
ellipse-curve $-1 -1 $-1 -7.25 -4.125 -5.375 0 0 1 0 -1 0 1 I I #
edge $-1 -1 $-1 $335 7.25 $445 8.25 $334 $535 forward @7 unknown #
point $-1 -1 $-1 -7.25 -5.125 -5.375 #
straight-curve $-1 -1 $-1 0 -5.125 5.375 1 0 0 I I #
model_id-kcp-attrib $-1 -1 $-1 $-1 $341 1 1021400377 1021400377 -1796997119 9 #
plane-surface $-1 -1 $-1 8.25 -4.125 -4.1299999999999999 1 0 0 0 0 -1 forward_v I I I I #
coedge $-1 -1 $-1 $456 $456 $536 $537 forward $344 $-1 #
model_id-kcp-attrib $-1 -1 $-1 $-1 $345 1 1021400377 1021400377 -1796997119 12 #
face $538 -1 $-1 $539 $540 $8 $-1 $541 reversed single #
cone-surface $-1 -1 $-1 0 0 4.1299999999999999 0 0 1 3 0 0 1 I I 0 1 3 forward I I I I #
coedge $-1 -1 $-1 $472 $471 $347 $461 forward $342 $-1 #
edge $-1 -1 $-1 $468 -1.5707963267948966 $463 0 $460 $542 forward @7 unknown #
model_id-kcp-attrib $-1 -1 $543 $-1 $349 1 1021400377 1021400377 -1796997119 19 #
vertex $-1 -1 $-1 $481 $544 #
straight-curve $-1 -1 $-1 -7.25 -5.125 4.1299999999999999 -1 0 0 I I #
point $-1 -1 $-1 -7.25 -5.125 4.1299999999999999 #
convexity-sys-attrib $-1 -1 $-1 $352 $140 #
model_id-kcp-attrib $-1 -1 $-1 $-1 $355 1 1021400377 1021400377 -1796997119 18 #
vertex $-1 -1 $-1 $475 $545 #
straight-curve $-1 -1 $-1 8.25 -4.125 4.1299999999999999 0 -1 0 I I #
point $-1 -1 $-1 8.25 4.125 4.1299999999999999 #
coedge $-1 -1 $-1 $460 $359 $362 $475 reversed $342 $-1 #
coedge $-1 -1 $-1 $359 $460 $374 $481 forward $342 $-1 #
attrib_edge_convexity-kcp-attrib $-1 -1 $546 $-1 $360 1 #
ellipse-curve $-1 -1 $-1 7.25 -4.125 -4.1299999999999999 0 0 -1 0 -1 0 1 I I #
edge $-1 -1 $-1 $468 -8.2599999999999998 $365 0 $362 $547 forward @7 unknown #
convexity-sys-attrib $-1 -1 $-1 $364 $242 #
point $-1 -1 $-1 8.25 -4.125 -4.1299999999999999 #
straight-curve $-1 -1 $-1 8.25 4.125 -4.1299999999999999 0 0 -1 I I #
model_id-kcp-attrib $-1 -1 $-1 $-1 $368 1 1021400377 1021400377 -1796997119 10 #
cone-surface $-1 -1 $-1 7.25 4.125 -4.1299999999999999 0 0 1 1 0 0 1 I I 0 1 1 forward I I I I #
edge $548 -1 $-1 $463 -8.2599999999999998 $377 0 $472 $549 forward @7 unknown #
convexity-sys-attrib $-1 -1 $-1 $376 $254 #
point $-1 -1 $-1 7.25 -5.125 -4.1299999999999999 #
attrib_edge_convexity-kcp-attrib $-1 -1 $550 $-1 $379 3 #
straight-curve $-1 -1 $-1 -7.25 -5.125 -4.1299999999999999 0 0 -1 I I #
convexity-sys-attrib $-1 -1 $-1 $382 $260 #
straight-curve $-1 -1 $-1 -8.25 5.125 0 0 0 -1 I I #
point $-1 -1 $-1 -8.25 -5.125 -5.375 #
straight-curve $-1 -1 $-1 -8.25 0 -5.375 0 1 0 I I #
point $-1 -1 $-1 -8.25 5.125 -5.375 #
face $-1 -1 $-1 $-1 $503 $72 $-1 $551 reversed single #
loop $-1 -1 $-1 $-1 $552 $403 #
coedge $-1 -1 $-1 $553 $499 $502 $554 forward $404 $-1 #
coedge $-1 -1 $-1 $495 $405 $407 $501 forward $298 $-1 #
coedge $-1 -1 $-1 $405 $494 $555 $556 forward $298 $-1 #
coedge $-1 -1 $-1 $557 $408 $405 $497 reversed $503 $-1 #
edge $-1 -1 $-1 $558 -1.5707963267948966 $505 0 $405 $559 forward @7 unknown #
coedge $-1 -1 $-1 $407 $406 $560 $561 forward $194 $-1 #
coedge $-1 -1 $-1 $493 $553 $406 $500 forward $404 $-1 #
edge $-1 -1 $-1 $562 -5.125 $504 -4.125 $406 $563 forward @7 unknown #
edge $-1 -1 $-1 $505 4.125 $564 5.125 $407 $526 forward @7 unknown #
coedge $-1 -1 $-1 $408 $557 $493 $554 reversed $503 $-1 #
loop $-1 -1 $-1 $-1 $502 $491 #
vertex $-1 -1 $-1 $409 $565 #
vertex $-1 -1 $-1 $501 $566 #
straight-curve $-1 -1 $-1 8.25 -4.125 -5.375 0 0 -1 I I #
loop $-1 -1 $-1 $-1 $514 $410 #
coedge $-1 -1 $-1 $413 $412 $567 $568 forward $197 $-1 #
edge $-1 -1 $-1 $569 -5.125 $420 -4.125 $412 $448 forward @7 unknown #
coedge $-1 -1 $-1 $570 $514 $413 $511 forward $507 $-1 #
edge $-1 -1 $-1 $512 4.125 $571 5.125 $413 $446 forward @7 unknown #
vertex $-1 -1 $-1 $511 $572 #
straight-curve $-1 -1 $-1 -8.25 4.125 -5.375 0 0 -1 I I #
coedge $-1 -1 $-1 $510 $570 $415 $515 forward $507 $-1 #
edge $-1 -1 $-1 $518 -1.5707963267948966 $512 0 $514 $573 forward @7 unknown #
coedge $-1 -1 $-1 $567 $416 $570 $574 reversed $411 $-1 #
coedge $-1 -1 $-1 $416 $567 $418 $520 reversed $411 $-1 #
vertex $-1 -1 $-1 $417 $575 #
straight-curve $-1 -1 $-1 -7.25 5.125 -5.375 0 0 -1 I I #
edge $-1 -1 $-1 $421 7.25 $569 8.25 $517 $436 forward @7 unknown #
point $-1 -1 $-1 -8.25 4.125 5.375 #
point $-1 -1 $-1 -7.25 5.125 5.375 #
edge $-1 -1 $-1 $524 4.125 $435 5.125 $426 $563 forward @7 unknown #
vertex $-1 -1 $-1 $523 $576 #
straight-curve $-1 -1 $-1 8.25 4.125 -5.375 0 0 -1 I I #
straight-curve $-1 -1 $-1 8.25 0 -5.375 0 -1 0 I I #
point $-1 -1 $-1 8.25 4.125 -5.375 #
straight-curve $-1 -1 $-1 8.25 5.125 0 0 0 -1 I I #
point $-1 -1 $-1 8.25 5.125 5.375 #
point $-1 -1 $-1 8.25 5.125 -5.375 #
ellipse-curve $-1 -1 $-1 7.25 4.125 5.375 0 0 -1 0 1 0 1 I I #
straight-curve $-1 -1 $-1 -8.25 -5.125 0 0 0 -1 I I #
point $-1 -1 $-1 -8.25 -5.125 -5.375 #
point $-1 -1 $-1 -8.25 -5.125 5.375 #
straight-curve $-1 -1 $-1 0 -5.125 -5.375 -1 0 0 I I #
coedge $-1 -1 $-1 $536 $536 $456 $537 reversed $577 $-1 #
edge $-1 -1 $-1 $578 -3.1415926535897931 $578 3.1415926535897931 $536 $579 forward @7 unknown #
model_id-kcp-attrib $-1 -1 $-1 $-1 $458 1 1021400377 1021400377 -1796997119 13 #
face $580 -1 $-1 $581 $582 $8 $-1 $583 forward single #
loop $-1 -1 $-1 $577 $584 $458 #
plane-surface $-1 -1 $-1 0 0 5.3799999999999999 0 0 1 1 0 0 forward_v I I I I #
ellipse-curve $-1 -1 $-1 7.25 -4.125 4.1299999999999999 0 0 -1 0 -1 0 1 I I #
attrib_edge_convexity-kcp-attrib $-1 -1 $585 $462 $349 1 #
point $-1 -1 $-1 7.25 -5.125 4.1299999999999999 #
point $-1 -1 $-1 8.25 -4.125 4.1299999999999999 #
convexity-sys-attrib $-1 -1 $-1 $473 $360 #
straight-curve $-1 -1 $-1 8.25 -4.125 -4.1299999999999999 0 0 -1 I I #
attrib_edge_convexity-kcp-attrib $-1 -1 $586 $-1 $481 3 #
straight-curve $-1 -1 $-1 7.25 -5.125 -4.1299999999999999 0 0 -1 I I #
convexity-sys-attrib $-1 -1 $-1 $484 $379 #
cone-surface $-1 -1 $-1 7.25 -4.125 -5.375 0 0 -1 1 0 0 1 I I 0 1 1 forward I I I I #
coedge $-1 -1 $-1 $555 $587 $557 $588 forward $492 $-1 #
coedge $-1 -1 $-1 $499 $493 $587 $589 forward $404 $-1 #
edge $-1 -1 $-1 $504 0 $590 1.5707963267948966 $493 $591 forward @7 unknown #
coedge $-1 -1 $-1 $560 $552 $495 $556 reversed $492 $-1 #
edge $-1 -1 $-1 $564 -8.25 $558 -7.25 $555 $535 forward @7 unknown #
coedge $-1 -1 $-1 $502 $496 $552 $588 reversed $503 $-1 #
vertex $-1 -1 $-1 $497 $592 #
ellipse-curve $-1 -1 $-1 7.25 -4.125 -5.375 0 0 1 1 0 0 1 I I #
coedge $-1 -1 $-1 $587 $555 $498 $561 reversed $492 $-1 #
edge $-1 -1 $-1 $562 -5.375 $564 5.375 $498 $593 forward @7 unknown #
vertex $-1 -1 $-1 $500 $594 #
straight-curve $-1 -1 $-1 8.25 0 5.375 0 1 0 I I #
vertex $-1 -1 $-1 $561 $595 #
point $-1 -1 $-1 8.25 -4.125 5.375 #
point $-1 -1 $-1 8.25 -4.125 -5.375 #
coedge $-1 -1 $-1 $517 $516 $508 $568 reversed $411 $-1 #
edge $-1 -1 $-1 $569 -5.375 $571 5.375 $567 $596 forward @7 unknown #
vertex $-1 -1 $-1 $520 $597 #
coedge $-1 -1 $-1 $514 $510 $516 $574 forward $507 $-1 #
vertex $-1 -1 $-1 $574 $598 #
point $-1 -1 $-1 -8.25 4.125 -5.375 #
ellipse-curve $-1 -1 $-1 -7.25 4.125 -5.375 0 0 1 -1 0 0 1 I I #
edge $-1 -1 $-1 $571 -8.25 $518 -7.25 $516 $438 forward @7 unknown #
point $-1 -1 $-1 -7.25 5.125 -5.375 #
point $-1 -1 $-1 8.25 4.125 5.375 #
loop $-1 -1 $-1 $599 $536 $458 #
vertex $-1 -1 $-1 $537 $600 #
ellipse-curve $-1 -1 $-1 0 0 5.3799999999999999 0 0 -1 -3 0 0 1 I I #
model_id-kcp-attrib $-1 -1 $-1 $-1 $539 1 1021400377 1021400377 -1796997119 14 #
face $601 -1 $-1 $602 $603 $8 $-1 $604 forward single #
loop $-1 -1 $-1 $605 $606 $539 #
plane-surface $-1 -1 $-1 0 0 6.6200000000000001 0 0 1 1 0 0 forward_v I I I I #
coedge $-1 -1 $-1 $584 $584 $607 $608 forward $540 $-1 #
convexity-sys-attrib $-1 -1 $-1 $543 $349 #
convexity-sys-attrib $-1 -1 $-1 $548 $481 #
coedge $-1 -1 $-1 $552 $560 $553 $589 reversed $492 $-1 #
edge $-1 -1 $-1 $590 -10.75 $558 0 $552 $609 forward @7 unknown #
edge $-1 -1 $-1 $590 7.25 $562 8.25 $587 $453 forward @7 unknown #
vertex $-1 -1 $-1 $589 $610 #
ellipse-curve $-1 -1 $-1 7.25 -4.125 5.375 0 0 -1 1 0 0 1 I I #
point $-1 -1 $-1 7.25 -5.125 -5.375 #
straight-curve $-1 -1 $-1 8.25 -5.125 0 0 0 -1 I I #
point $-1 -1 $-1 8.25 -5.125 5.375 #
point $-1 -1 $-1 8.25 -5.125 -5.375 #
straight-curve $-1 -1 $-1 -8.25 5.125 0 0 0 -1 I I #
point $-1 -1 $-1 -8.25 5.125 5.375 #
point $-1 -1 $-1 -8.25 5.125 -5.375 #
loop $611 -1 $-1 $-1 $612 $458 #
point $-1 -1 $-1 3 0 5.3799999999999999 #
model_id-kcp-attrib $-1 -1 $-1 $-1 $581 1 1021400377 1021400377 -1796997119 15 #
face $613 -1 $-1 $-1 $614 $8 $-1 $615 reversed single #
loop $-1 -1 $-1 $616 $617 $581 #
cone-surface $-1 -1 $-1 0 0 5.3799999999999999 0 0 1 -4 0 0 1 I I 0 1 4 forward I I I I #
loop $618 -1 $-1 $-1 $619 $539 #
coedge $-1 -1 $-1 $606 $606 $617 $620 reversed $582 $-1 #
coedge $-1 -1 $-1 $607 $607 $584 $608 reversed $616 $-1 #
edge $-1 -1 $-1 $621 -3.1415926535897931 $621 3.1415926535897931 $607 $622 forward @7 unknown #
straight-curve $-1 -1 $-1 7.25 -5.125 -5.375 0 0 -1 I I #
point $-1 -1 $-1 7.25 -5.125 5.375 #
model_id-kcp-attrib $-1 -1 $-1 $-1 $599 1 1021400377 1021400377 -1796997119 26 #
coedge $-1 -1 $-1 $612 $612 $623 $624 forward $599 $-1 #
model_id-kcp-attrib $-1 -1 $-1 $-1 $602 1 1021400377 1021400377 -1796997119 16 #
loop $625 -1 $-1 $626 $627 $602 #
cone-surface $-1 -1 $-1 0 3.5 6.6200000000000001 0 0 -1 -0.19 0 0 1 I I 0 1 0.19 forward I I I I #
loop $-1 -1 $-1 $-1 $607 $581 #
coedge $-1 -1 $-1 $617 $617 $606 $620 forward $603 $-1 #
model_id-kcp-attrib $-1 -1 $-1 $-1 $605 1 1021400377 1021400377 -1796997119 25 #
coedge $-1 -1 $-1 $619 $619 $627 $628 reversed $605 $-1 #
edge $-1 -1 $-1 $629 0 $629 6.2831853071795862 $617 $630 forward @7 unknown #
vertex $-1 -1 $-1 $608 $631 #
ellipse-curve $-1 -1 $-1 0 0 5.3799999999999999 0 0 -1 4 0 0 1 I I #
coedge $-1 -1 $-1 $623 $623 $612 $624 reversed $626 $-1 #
edge $632 -1 $-1 $633 -3.1415926535897931 $633 3.1415926535897931 $623 $634 forward @7 unknown #
model_id-kcp-attrib $-1 -1 $-1 $-1 $614 1 1021400377 1021400377 -1796997119 23 #
loop $635 -1 $-1 $-1 $623 $602 #
coedge $-1 -1 $-1 $627 $627 $619 $628 forward $614 $-1 #
edge $636 -1 $-1 $637 0 $637 6.2831853071795862 $627 $638 forward @7 unknown #
vertex $-1 -1 $-1 $620 $639 #
ellipse-curve $-1 -1 $-1 0 0 6.6200000000000001 0 0 -1 -4 0 0 1 I I #
point $-1 -1 $-1 -4 0 5.3799999999999999 #
attrib_edge_convexity-kcp-attrib $-1 -1 $640 $-1 $624 1 #
vertex $-1 -1 $-1 $624 $641 #
ellipse-curve $-1 -1 $-1 0 3.5 5.3799999999999999 0 0 1 0.19 0 0 1 I I #
model_id-kcp-attrib $-1 -1 $-1 $-1 $626 1 1021400377 1021400377 -1796997119 24 #
attrib_edge_convexity-kcp-attrib $-1 -1 $642 $-1 $628 1 #
vertex $-1 -1 $-1 $628 $643 #
ellipse-curve $-1 -1 $-1 0 3.5 6.6200000000000001 0 0 1 -0.19 0 0 1 I I #
point $-1 -1 $-1 -4 0 6.6200000000000001 #
convexity-sys-attrib $-1 -1 $-1 $632 $624 #
point $-1 -1 $-1 -0.19 3.5 5.3799999999999999 #
convexity-sys-attrib $-1 -1 $-1 $636 $628 #
point $-1 -1 $-1 -0.19 3.5 6.6200000000000001 #
End-of-ACIS-data 