700 0 2 0           
24 FBMach with ACIS - 7.0.3 13 ACIS 7.0.3 NT 24 Tue May 14 14:19:39 2002 
1 9.9999999999999995e-007 1e-010 
body $2 -1 $-1 $3 $-1 $4 #
bdycol-kcp $-1 -1 1 3 $5 $6 $7 #
model_id-kcp-attrib $-1 -1 $-1 $-1 $0 1 1021400379 1021400379 -1728315391 1 #
lump $-1 -1 $-1 $-1 $8 $0 #
transform $-1 -1 1 0 0 0 1 0 0 0 1 0 0 0 1 rotate no_reflect no_shear #
body $9 -1 $-1 $10 $-1 $11 #
body $12 -1 $-1 $13 $-1 $14 #
body $15 -1 $-1 $16 $-1 $17 #
shell $-1 -1 $-1 $-1 $-1 $18 $-1 $3 #
model_id-kcp-attrib $-1 -1 $-1 $-1 $5 1 1021400379 1021400379 -1744437246 1 #
lump $-1 -1 $-1 $-1 $19 $5 #
transform $-1 -1 1 0 0 0 1 0 0 0 1 0 0 31.623000000000005 1 no_rotate no_reflect no_shear #
rgb_color-st-attrib $-1 -1 $20 $-1 $6 0.5 1 1 #
lump $-1 -1 $-1 $-1 $21 $6 #
transform $-1 -1 1 0 0 0 1 0 0 0 1 0 0 0 1 no_rotate no_reflect no_shear #
rgb_color-st-attrib $-1 -1 $22 $-1 $7 0.5 1 1 #
lump $-1 -1 $-1 $23 $24 $7 #
transform $-1 -1 1 0 0 0 1 0 0 0 1 0 0 31.623000000000005 1 no_rotate no_reflect no_shear #
face $25 -1 $-1 $26 $27 $8 $-1 $28 reversed single #
shell $-1 -1 $-1 $-1 $-1 $29 $-1 $10 #
model_id-kcp-attrib $-1 -1 $-1 $12 $6 1 1021400379 1021400379 -1740832764 1 #
shell $-1 -1 $-1 $-1 $-1 $30 $-1 $13 #
model_id-kcp-attrib $-1 -1 $-1 $15 $7 1 1021400379 1021400379 -1733885949 1 #
lump $-1 -1 $-1 $31 $32 $7 #
shell $-1 -1 $-1 $-1 $-1 $33 $-1 $16 #
model_id-kcp-attrib $-1 -1 $-1 $-1 $18 1 1021400379 1021400379 -1728315391 2 #
face $34 -1 $-1 $35 $36 $8 $-1 $37 forward single #
loop $-1 -1 $-1 $-1 $38 $18 #
plane-surface $-1 -1 $-1 0 0 -104.90199999999999 0 0 1 25.399999999999999 0 0 forward_v I I I I #
face $39 -1 $-1 $40 $41 $19 $-1 $42 forward single #
face $-1 -1 $-1 $43 $44 $21 $-1 $45 forward single #
lump $-1 -1 $-1 $46 $47 $7 #
shell $-1 -1 $-1 $-1 $-1 $48 $-1 $23 #
face $-1 -1 $-1 $49 $50 $24 $-1 $51 reversed single #
model_id-kcp-attrib $-1 -1 $-1 $-1 $26 1 1021400379 1021400379 -1728315391 3 #
face $52 -1 $-1 $53 $54 $8 $-1 $55 forward single #
loop $-1 -1 $-1 $-1 $56 $26 #
plane-surface $-1 -1 $-1 184.14999999999998 130.17499999999998 -104.90199999999999 0 1 0 -25.399999999999999 0 0 forward_v I I I I #
coedge $-1 -1 $-1 $57 $58 $59 $60 reversed $27 $-1 #
model_id-kcp-attrib $-1 -1 $-1 $-1 $29 1 1021400379 1021400379 -1744437246 7 #
face $61 -1 $-1 $62 $63 $19 $-1 $64 reversed single #
loop $-1 -1 $-1 $-1 $65 $29 #
plane-surface $-1 -1 $-1 0 0 136.52499999999998 0 0 1 1 0 0 forward_v I I I I #
face $-1 -1 $-1 $66 $67 $21 $-1 $68 forward single #
loop $-1 -1 $-1 $69 $70 $30 #
cone-surface $-1 -1 $-1 0 88.899999999999991 136.65199999999999 0 0 1 4.8259999999999996 0 0 1 I I 0 1 4.8259999999999996 forward I I I I #
lump $-1 -1 $-1 $-1 $71 $7 #
shell $-1 -1 $-1 $-1 $-1 $72 $-1 $31 #
face $-1 -1 $-1 $73 $74 $32 $-1 $75 reversed single #
face $-1 -1 $-1 $76 $77 $24 $-1 $78 reversed single #
loop $-1 -1 $-1 $-1 $79 $33 #
cone-surface $-1 -1 $-1 -184.14999999999998 -104.77499999999998 -136.52499999999998 0 0 -1 -25.400000000000034 -1.4210854715202004e-014 0 1 I I 0 1 25.400000000000034 forward I I I I #
model_id-kcp-attrib $-1 -1 $-1 $-1 $35 1 1021400379 1021400379 -1728315391 4 #
face $80 -1 $-1 $81 $82 $8 $-1 $83 forward single #
loop $-1 -1 $-1 $-1 $84 $35 #
cone-surface $-1 -1 $-1 -184.14999999999998 104.77499999999999 -104.90199999999999 0 0 1 25.399999999999999 0 0 1 I I 0 1 25.399999999999999 forward I I I I #
coedge $-1 -1 $-1 $85 $59 $86 $87 forward $36 $-1 #
coedge $-1 -1 $-1 $88 $38 $89 $90 reversed $27 $-1 #
coedge $-1 -1 $-1 $38 $91 $92 $93 reversed $27 $-1 #
coedge $-1 -1 $-1 $56 $94 $38 $60 forward $36 $-1 #
edge $95 -1 $-1 $96 0 $97 14.499999999999998 $38 $98 forward @7 unknown #
model_id-kcp-attrib $-1 -1 $-1 $-1 $40 1 1021400379 1021400379 -1744437246 2 #
face $99 -1 $-1 $100 $101 $19 $-1 $102 reversed single #
loop $-1 -1 $-1 $-1 $103 $40 #
plane-surface $-1 -1 $-1 0 0 -136.52499999999998 0 0 1 1 0 0 forward_v I I I I #
coedge $-1 -1 $-1 $104 $105 $106 $107 forward $41 $-1 #
face $-1 -1 $-1 $-1 $108 $21 $-1 $109 reversed single #
loop $-1 -1 $-1 $-1 $110 $43 #
plane-surface $-1 -1 $-1 0 88.899999999999977 168.14800000000002 1.0838664585628885e-031 3.4683726674012668e-029 1 1 0 -1.0838664585628885e-031 forward_v I I I I #
loop $-1 -1 $-1 $-1 $111 $30 #
coedge $-1 -1 $-1 $70 $70 $110 $112 forward $44 $-1 #
shell $-1 -1 $-1 $-1 $-1 $113 $-1 $46 #
face $-1 -1 $-1 $114 $115 $47 $-1 $116 reversed single #
face $-1 -1 $-1 $117 $118 $32 $-1 $119 reversed single #
loop $-1 -1 $-1 $-1 $120 $48 #
plane-surface $-1 -1 $-1 0 130.17500000000001 0 0 -1 0 0 0 -1 forward_v I I I I #
face $-1 -1 $-1 $121 $122 $24 $-1 $123 forward single #
loop $-1 -1 $-1 $-1 $124 $49 #
plane-surface $-1 -1 $-1 -209.55000000000001 0 0 1 0 0 0 0 -1 forward_v I I I I #
coedge $-1 -1 $-1 $125 $126 $127 $128 reversed $50 $-1 #
model_id-kcp-attrib $-1 -1 $-1 $-1 $53 1 1021400379 1021400379 -1728315391 5 #
face $129 -1 $-1 $130 $131 $8 $-1 $132 forward single #
loop $-1 -1 $-1 $-1 $133 $53 #
plane-surface $-1 -1 $-1 -209.54999999999998 104.77499999999999 -104.90199999999999 -1 0 0 0 -25.399999999999999 0 forward_v I I I I #
coedge $-1 -1 $-1 $134 $92 $135 $136 forward $54 $-1 #
coedge $-1 -1 $-1 $94 $56 $137 $138 reversed $36 $-1 #
coedge $-1 -1 $-1 $92 $134 $56 $87 reversed $54 $-1 #
edge $139 -1 $-1 $97 0 $140 8.2599999999999998 $86 $141 forward @7 unknown #
coedge $-1 -1 $-1 $142 $57 $143 $144 reversed $27 $-1 #
coedge $-1 -1 $-1 $145 $146 $57 $90 forward $147 $-1 #
edge $148 -1 $-1 $149 0 $96 1.5707963267948966 $57 $150 forward @7 unknown #
coedge $-1 -1 $-1 $58 $151 $152 $153 reversed $27 $-1 #
coedge $-1 -1 $-1 $84 $86 $58 $93 forward $54 $-1 #
edge $154 -1 $-1 $97 0 $155 1.5707963267948966 $58 $156 forward @7 unknown #
coedge $-1 -1 $-1 $59 $85 $145 $157 reversed $36 $-1 #
attrib_edge_convexity-kcp-attrib $-1 -1 $158 $-1 $60 1 #
vertex $-1 -1 $-1 $90 $159 #
vertex $-1 -1 $-1 $93 $160 #
straight-curve $-1 -1 $-1 184.14999999999998 130.17499999999998 -104.90199999999999 -25.399999999999999 0 0 I I #
model_id-kcp-attrib $-1 -1 $-1 $-1 $62 1 1021400379 1021400379 -1744437246 5 #
face $161 -1 $-1 $162 $163 $19 $-1 $164 reversed single #
loop $-1 -1 $-1 $-1 $165 $62 #
plane-surface $-1 -1 $-1 0 -130.17500000000001 0 0 1 0 0 0 1 forward_v I I I I #
coedge $-1 -1 $-1 $166 $167 $168 $169 forward $63 $-1 #
coedge $-1 -1 $-1 $170 $65 $171 $172 forward $41 $-1 #
coedge $-1 -1 $-1 $65 $170 $173 $174 forward $41 $-1 #
coedge $-1 -1 $-1 $175 $176 $65 $107 reversed $177 $-1 #
edge $-1 -1 $-1 $178 -130.17500000000001 $179 130.17500000000001 $106 $180 forward @7 unknown #
loop $-1 -1 $-1 $-1 $181 $66 #
plane-surface $-1 -1 $-1 0 88.899999999999977 136.65200000000002 1.0838664585628885e-031 3.4683726674012668e-029 1 1 0 -1.0838664585628885e-031 forward_v I I I I #
coedge $-1 -1 $-1 $110 $110 $70 $112 reversed $67 $-1 #
coedge $-1 -1 $-1 $111 $111 $181 $182 reversed $69 $-1 #
edge $-1 -1 $-1 $183 -3.1415926535897931 $183 3.1415926535897931 $70 $184 forward @7 unknown #
face $-1 -1 $-1 $185 $186 $71 $-1 $187 reversed single #
face $-1 -1 $-1 $188 $189 $47 $-1 $78 reversed single #
loop $-1 -1 $-1 $-1 $190 $72 #
cone-surface $-1 -1 $-1 -184.14999999999998 104.77500000000003 -136.52499999999998 0 0 -1 0 25.399999999999977 0 1 I I 0 1 25.399999999999977 forward I I I I #
face $-1 -1 $-1 $191 $192 $32 $-1 $187 reversed single #
loop $-1 -1 $-1 $-1 $193 $73 #
plane-surface $-1 -1 $-1 0 0 -136.52499999999998 0 0 1 1 0 0 forward_v I I I I #
coedge $-1 -1 $-1 $194 $195 $196 $197 reversed $74 $-1 #
face $-1 -1 $-1 $198 $199 $24 $-1 $119 reversed single #
loop $-1 -1 $-1 $-1 $127 $76 #
plane-surface $-1 -1 $-1 0 0 136.52499999999998 0 0 1 1 0 0 forward_v I I I I #
coedge $-1 -1 $-1 $200 $201 $126 $202 forward $77 $-1 #
coedge $-1 -1 $-1 $203 $79 $204 $205 forward $50 $-1 #
coedge $-1 -1 $-1 $79 $203 $124 $202 reversed $50 $-1 #
coedge $-1 -1 $-1 $206 $207 $79 $128 forward $122 $-1 #
edge $-1 -1 $-1 $208 -1.5707963267948961 $209 0 $127 $210 forward @7 unknown #
model_id-kcp-attrib $-1 -1 $-1 $-1 $81 1 1021400379 1021400379 -1728315391 6 #
face $211 -1 $-1 $212 $213 $8 $-1 $214 forward single #
loop $-1 -1 $-1 $-1 $215 $81 #
cone-surface $-1 -1 $-1 -184.14999999999998 -104.77499999999999 -104.90199999999999 0 0 1 25.399999999999999 0 0 1 I I 0 1 25.399999999999999 forward I I I I #
coedge $-1 -1 $-1 $216 $152 $217 $218 forward $82 $-1 #
coedge $-1 -1 $-1 $86 $84 $219 $220 reversed $54 $-1 #
coedge $-1 -1 $-1 $152 $216 $84 $136 reversed $82 $-1 #
edge $221 -1 $-1 $155 0 $222 8.2599999999999998 $84 $223 forward @7 unknown #
coedge $-1 -1 $-1 $219 $224 $85 $138 forward $225 $-1 #
edge $226 -1 $-1 $227 0 $140 14.499999999999998 $137 $228 forward @7 unknown #
attrib_edge_convexity-kcp-attrib $-1 -1 $229 $-1 $87 3 #
vertex $-1 -1 $-1 $220 $230 #
straight-curve $-1 -1 $-1 -184.14999999999998 130.17499999999998 -104.90199999999999 0 0 25.399999999999999 I I #
coedge $-1 -1 $-1 $231 $88 $232 $233 reversed $27 $-1 #
coedge $-1 -1 $-1 $234 $235 $88 $144 forward $236 $-1 #
edge $237 -1 $-1 $238 0 $149 8.25 $88 $239 forward @7 unknown #
coedge $-1 -1 $-1 $240 $89 $94 $157 forward $147 $-1 #
coedge $-1 -1 $-1 $89 $240 $234 $241 reversed $147 $-1 #
loop $-1 -1 $-1 $-1 $145 $242 #
attrib_edge_convexity-kcp-attrib $-1 -1 $243 $-1 $90 1 #
vertex $-1 -1 $-1 $144 $244 #
ellipse-curve $-1 -1 $-1 184.14999999999998 104.77499999999999 -104.90199999999999 0 0 1 25.399999999999999 0 0 1 I I #
coedge $-1 -1 $-1 $91 $231 $245 $246 reversed $27 $-1 #
coedge $-1 -1 $-1 $133 $135 $91 $153 forward $82 $-1 #
edge $247 -1 $-1 $155 0 $248 8.25 $91 $249 forward @7 unknown #
attrib_edge_convexity-kcp-attrib $-1 -1 $250 $-1 $93 1 #
vertex $-1 -1 $-1 $93 $251 #
ellipse-curve $-1 -1 $-1 -184.14999999999998 104.77499999999999 -104.90199999999999 0 0 1 0 25.399999999999999 0 1 I I #
edge $252 -1 $-1 $96 0 $227 8.2599999999999998 $145 $253 forward @7 unknown #
convexity-sys-attrib $-1 -1 $-1 $95 $60 #
point $-1 -1 $-1 184.14999999999998 130.17499999999998 -104.90199999999999 #
point $-1 -1 $-1 -184.14999999999998 130.17499999999998 -104.90199999999999 #
model_id-kcp-attrib $-1 -1 $-1 $-1 $100 1 1021400379 1021400379 -1744437246 4 #
face $254 -1 $-1 $255 $256 $19 $-1 $257 reversed single #
loop $-1 -1 $-1 $-1 $258 $100 #
plane-surface $-1 -1 $-1 -209.55000000000001 0 0 1 0 0 0 0 -1 forward_v I I I I #
coedge $-1 -1 $-1 $259 $173 $260 $261 forward $101 $-1 #
coedge $-1 -1 $-1 $262 $103 $259 $263 forward $63 $-1 #
coedge $-1 -1 $-1 $103 $262 $264 $265 forward $63 $-1 #
coedge $-1 -1 $-1 $176 $175 $103 $169 reversed $177 $-1 #
edge $-1 -1 $-1 $266 -130.17500000000001 $267 130.17500000000001 $168 $268 forward @7 unknown #
coedge $-1 -1 $-1 $105 $104 $269 $270 forward $41 $-1 #
coedge $-1 -1 $-1 $271 $272 $104 $172 reversed $256 $-1 #
edge $-1 -1 $-1 $179 -209.55000000000001 $273 209.55000000000001 $171 $274 forward @7 unknown #
coedge $-1 -1 $-1 $165 $275 $105 $174 reversed $101 $-1 #
edge $-1 -1 $-1 $276 -209.55000000000001 $178 209.55000000000001 $173 $277 forward @7 unknown #
coedge $-1 -1 $-1 $168 $106 $275 $278 forward $177 $-1 #
coedge $-1 -1 $-1 $106 $168 $271 $279 reversed $177 $-1 #
loop $-1 -1 $-1 $-1 $175 $255 #
vertex $-1 -1 $-1 $107 $280 #
vertex $-1 -1 $-1 $107 $281 #
straight-curve $-1 -1 $-1 209.55000000000001 0 136.52499999999998 0 1 0 I I #
coedge $-1 -1 $-1 $181 $181 $111 $182 forward $108 $-1 #
edge $-1 -1 $-1 $282 -3.1415926535897931 $282 3.1415926535897931 $111 $283 forward @7 unknown #
vertex $-1 -1 $-1 $112 $284 #
ellipse-curve $-1 -1 $-1 3.5249581031848718e-016 88.899999999999991 168.148 0 0 -1 -4.8259999999999996 0 0 1 I I #
face $-1 -1 $-1 $285 $286 $71 $-1 $119 reversed single #
loop $-1 -1 $-1 $-1 $287 $113 #
plane-surface $-1 -1 $-1 209.55000000000001 0 0 -1 0 0 0 0 1 forward_v I I I I #
face $-1 -1 $-1 $288 $289 $47 $-1 $123 forward single #
loop $-1 -1 $-1 $-1 $290 $114 #
coedge $-1 -1 $-1 $291 $292 $293 $294 reversed $115 $-1 #
face $-1 -1 $-1 $295 $296 $32 $-1 $123 forward single #
loop $-1 -1 $-1 $-1 $297 $117 #
coedge $-1 -1 $-1 $298 $299 $300 $301 forward $118 $-1 #
coedge $-1 -1 $-1 $302 $120 $303 $304 reversed $74 $-1 #
coedge $-1 -1 $-1 $120 $302 $298 $305 reversed $74 $-1 #
coedge $-1 -1 $-1 $300 $306 $120 $197 forward $307 $-1 #
edge $-1 -1 $-1 $308 -273.04999999999995 $309 0 $120 $310 forward @7 unknown #
face $-1 -1 $-1 $-1 $311 $24 $-1 $312 reversed single #
loop $-1 -1 $-1 $-1 $313 $121 #
coedge $-1 -1 $-1 $314 $124 $315 $316 reversed $77 $-1 #
coedge $-1 -1 $-1 $124 $314 $206 $317 reversed $77 $-1 #
edge $-1 -1 $-1 $209 -273.04999999999995 $318 0 $124 $319 forward @7 unknown #
coedge $-1 -1 $-1 $126 $125 $313 $320 reversed $50 $-1 #
coedge $-1 -1 $-1 $321 $322 $125 $205 reversed $311 $-1 #
edge $-1 -1 $-1 $208 -273.04999999999995 $323 0 $204 $324 forward @7 unknown #
coedge $-1 -1 $-1 $207 $127 $201 $317 forward $122 $-1 #
coedge $-1 -1 $-1 $127 $206 $321 $325 forward $122 $-1 #
vertex $-1 -1 $-1 $128 $326 #
vertex $-1 -1 $-1 $317 $327 #
ellipse-curve $-1 -1 $-1 -184.14999999999998 -104.77499999999998 136.52499999999998 0 0 -1 -25.400000000000034 -1.4210854715202004e-014 0 1 I I #
model_id-kcp-attrib $-1 -1 $-1 $-1 $130 1 1021400379 1021400379 -1728315391 7 #
face $328 -1 $-1 $329 $330 $8 $-1 $331 forward single #
loop $-1 -1 $-1 $-1 $332 $130 #
plane-surface $-1 -1 $-1 -184.14999999999998 -130.17499999999998 -104.90199999999999 0 -1 0 25.399999999999999 0 0 forward_v I I I I #
coedge $-1 -1 $-1 $333 $245 $334 $335 forward $131 $-1 #
coedge $-1 -1 $-1 $135 $133 $336 $337 reversed $82 $-1 #
coedge $-1 -1 $-1 $245 $333 $133 $218 reversed $131 $-1 #
edge $338 -1 $-1 $248 0 $339 8.2599999999999998 $133 $340 forward @7 unknown #
coedge $-1 -1 $-1 $336 $137 $134 $220 forward $225 $-1 #
edge $-1 -1 $-1 $140 -2.3078651850475777e-016 $222 1.5707963267948988 $219 $341 forward @7 unknown #
attrib_edge_convexity-kcp-attrib $-1 -1 $342 $-1 $136 3 #
vertex $-1 -1 $-1 $220 $343 #
straight-curve $-1 -1 $-1 -209.54999999999998 104.77499999999999 -104.90199999999999 0 0 25.399999999999999 I I #
coedge $-1 -1 $-1 $137 $344 $240 $345 forward $225 $-1 #
loop $-1 -1 $-1 $346 $336 $347 #
model_id-kcp-attrib $-1 -1 $348 $-1 $138 1 1021400379 1021400379 -1728315391 24 #
vertex $-1 -1 $-1 $138 $349 #
straight-curve $-1 -1 $-1 184.14999999999998 130.17499999999998 104.90199999999999 -25.399999999999999 0 0 I I #
convexity-sys-attrib $-1 -1 $-1 $139 $87 #
point $-1 -1 $-1 -184.14999999999998 130.17499999999998 104.90199999999999 #
coedge $-1 -1 $-1 $151 $142 $350 $351 reversed $27 $-1 #
coedge $-1 -1 $-1 $352 $353 $142 $233 forward $330 $-1 #
edge $354 -1 $-1 $355 0 $238 1.5707963267948966 $142 $356 forward @7 unknown #
coedge $-1 -1 $-1 $357 $143 $146 $241 forward $236 $-1 #
coedge $-1 -1 $-1 $143 $357 $352 $358 reversed $236 $-1 #
loop $-1 -1 $-1 $-1 $234 $329 #
attrib_edge_convexity-kcp-attrib $-1 -1 $359 $-1 $144 1 #
vertex $-1 -1 $-1 $233 $360 #
straight-curve $-1 -1 $-1 209.54999999999998 -104.77499999999999 -104.90199999999999 0 25.399999999999999 0 I I #
coedge $-1 -1 $-1 $146 $145 $224 $345 reversed $147 $-1 #
edge $-1 -1 $-1 $149 0 $361 8.2599999999999998 $234 $362 forward @7 unknown #
face $363 -1 $-1 $347 $147 $8 $-1 $364 forward single #
convexity-sys-attrib $-1 -1 $-1 $148 $90 #
point $-1 -1 $-1 209.54999999999998 104.77499999999999 -104.90199999999999 #
coedge $-1 -1 $-1 $215 $217 $151 $246 forward $131 $-1 #
edge $365 -1 $-1 $248 0 $366 1.5707963267948966 $151 $367 forward @7 unknown #
attrib_edge_convexity-kcp-attrib $-1 -1 $368 $-1 $153 1 #
vertex $-1 -1 $-1 $153 $369 #
straight-curve $-1 -1 $-1 -209.54999999999998 104.77499999999999 -104.90199999999999 0 -25.399999999999999 0 I I #
convexity-sys-attrib $-1 -1 $-1 $154 $93 #
point $-1 -1 $-1 -209.54999999999998 104.77499999999999 -104.90199999999999 #
attrib_edge_convexity-kcp-attrib $-1 -1 $370 $-1 $157 3 #
straight-curve $-1 -1 $-1 184.14999999999998 130.17499999999998 -104.90199999999999 0 0 25.399999999999999 I I #
model_id-kcp-attrib $-1 -1 $-1 $-1 $162 1 1021400379 1021400379 -1744437246 3 #
face $371 -1 $-1 $-1 $177 $19 $-1 $372 reversed single #
loop $-1 -1 $-1 $-1 $271 $162 #
plane-surface $-1 -1 $-1 0 130.17500000000001 0 0 -1 0 0 0 -1 forward_v I I I I #
coedge $-1 -1 $-1 $373 $269 $272 $374 forward $163 $-1 #
coedge $-1 -1 $-1 $275 $165 $166 $263 reversed $101 $-1 #
coedge $-1 -1 $-1 $269 $373 $165 $261 reversed $163 $-1 #
edge $-1 -1 $-1 $276 -136.52499999999998 $375 136.52499999999998 $260 $376 forward @7 unknown #
coedge $-1 -1 $-1 $167 $166 $373 $377 forward $63 $-1 #
edge $-1 -1 $-1 $267 -209.55000000000001 $375 209.55000000000001 $259 $378 forward @7 unknown #
coedge $-1 -1 $-1 $272 $271 $167 $265 reversed $256 $-1 #
edge $-1 -1 $-1 $379 -209.55000000000001 $266 209.55000000000001 $264 $380 forward @7 unknown #
vertex $-1 -1 $-1 $169 $381 #
vertex $-1 -1 $-1 $278 $382 #
straight-curve $-1 -1 $-1 209.55000000000001 0 -136.52499999999998 0 -1 0 I I #
coedge $-1 -1 $-1 $258 $260 $170 $270 reversed $163 $-1 #
edge $-1 -1 $-1 $273 -130.17500000000001 $276 130.17500000000001 $269 $383 forward @7 unknown #
coedge $-1 -1 $-1 $264 $171 $176 $279 forward $256 $-1 #
coedge $-1 -1 $-1 $171 $264 $258 $374 reversed $256 $-1 #
vertex $-1 -1 $-1 $172 $384 #
straight-curve $-1 -1 $-1 0 130.17500000000001 136.52499999999998 -1 0 0 I I #
coedge $-1 -1 $-1 $173 $259 $175 $278 reversed $101 $-1 #
vertex $-1 -1 $-1 $270 $385 #
straight-curve $-1 -1 $-1 0 -130.17500000000001 136.52499999999998 1 0 0 I I #
edge $-1 -1 $-1 $178 -136.52499999999998 $267 136.52499999999998 $175 $386 forward @7 unknown #
edge $-1 -1 $-1 $179 -136.52499999999998 $266 136.52499999999998 $176 $387 forward @7 unknown #
point $-1 -1 $-1 209.55000000000001 -130.17500000000001 136.52499999999998 #
point $-1 -1 $-1 209.55000000000001 130.17500000000001 136.52499999999998 #
vertex $-1 -1 $-1 $182 $388 #
ellipse-curve $-1 -1 $-1 0 88.899999999999991 136.65199999999999 0 0 -1 4.8259999999999996 0 0 1 I I #
point $-1 -1 $-1 4.8259999999999996 88.899999999999991 168.148 #
face $-1 -1 $-1 $389 $390 $71 $-1 $123 forward single #
loop $-1 -1 $-1 $-1 $391 $185 #
coedge $-1 -1 $-1 $392 $393 $394 $395 reversed $186 $-1 #
face $-1 -1 $-1 $396 $397 $47 $-1 $75 reversed single #
loop $-1 -1 $-1 $-1 $293 $188 #
coedge $-1 -1 $-1 $398 $399 $291 $400 reversed $189 $-1 #
coedge $-1 -1 $-1 $401 $190 $290 $400 forward $115 $-1 #
coedge $-1 -1 $-1 $190 $401 $402 $403 reversed $115 $-1 #
coedge $-1 -1 $-1 $404 $405 $190 $294 forward $289 $-1 #
edge $-1 -1 $-1 $406 -1.5707963267948983 $407 0 $293 $408 forward @7 unknown #
face $-1 -1 $-1 $-1 $307 $32 $-1 $409 reversed single #
loop $-1 -1 $-1 $-1 $410 $191 #
coedge $-1 -1 $-1 $411 $412 $413 $414 forward $192 $-1 #
coedge $-1 -1 $-1 $299 $193 $195 $305 forward $118 $-1 #
coedge $-1 -1 $-1 $193 $298 $411 $415 forward $118 $-1 #
coedge $-1 -1 $-1 $413 $196 $193 $301 reversed $307 $-1 #
edge $-1 -1 $-1 $416 0 $309 1.5707963267948961 $193 $417 forward @7 unknown #
coedge $-1 -1 $-1 $195 $194 $418 $419 forward $74 $-1 #
coedge $-1 -1 $-1 $410 $420 $194 $304 forward $296 $-1 #
edge $-1 -1 $-1 $421 -209.55000000000001 $308 -184.14999999999998 $194 $422 forward @7 unknown #
edge $-1 -1 $-1 $309 184.14999999999998 $423 209.55000000000001 $195 $424 forward @7 unknown #
coedge $-1 -1 $-1 $196 $413 $410 $425 reversed $307 $-1 #
loop $-1 -1 $-1 $-1 $306 $295 #
vertex $-1 -1 $-1 $197 $426 #
vertex $-1 -1 $-1 $305 $427 #
straight-curve $-1 -1 $-1 184.14999999999998 130.17500000000001 -136.52499999999998 0 0 -1 I I #
loop $-1 -1 $-1 $-1 $204 $198 #
plane-surface $-1 -1 $-1 0 -130.17500000000001 0 0 1 0 0 0 1 forward_v I I I I #
coedge $-1 -1 $-1 $428 $315 $203 $320 forward $199 $-1 #
coedge $-1 -1 $-1 $201 $200 $429 $430 reversed $77 $-1 #
coedge $-1 -1 $-1 $313 $428 $200 $316 forward $199 $-1 #
edge $-1 -1 $-1 $431 -130.17500000000001 $318 -104.77499999999999 $200 $432 forward @7 unknown #
edge $-1 -1 $-1 $209 104.77499999999999 $433 130.17500000000001 $201 $434 forward @7 unknown #
vertex $-1 -1 $-1 $202 $435 #
straight-curve $-1 -1 $-1 -209.55000000000001 -104.77499999999998 -136.52499999999998 0 0 -1 I I #
edge $-1 -1 $-1 $318 0 $323 1.5707963267948961 $313 $436 forward @7 unknown #
coedge $-1 -1 $-1 $429 $204 $207 $325 reversed $311 $-1 #
coedge $-1 -1 $-1 $204 $429 $428 $437 reversed $311 $-1 #
vertex $-1 -1 $-1 $437 $438 #
straight-curve $-1 -1 $-1 -184.14999999999998 -130.17500000000001 -136.52499999999998 0 0 -1 I I #
edge $-1 -1 $-1 $433 -209.55000000000001 $208 -184.14999999999998 $321 $439 forward @7 unknown #
point $-1 -1 $-1 -184.14999999999998 -130.17500000000001 136.52499999999998 #
point $-1 -1 $-1 -209.55000000000001 -104.77499999999999 136.52499999999998 #
model_id-kcp-attrib $-1 -1 $-1 $-1 $212 1 1021400379 1021400379 -1728315391 8 #
face $440 -1 $-1 $242 $236 $8 $-1 $441 forward single #
loop $-1 -1 $-1 $-1 $352 $212 #
cone-surface $-1 -1 $-1 184.14999999999998 -104.77499999999999 -104.90199999999999 0 0 1 25.399999999999999 0 0 1 I I 0 1 25.399999999999999 forward I I I I #
coedge $-1 -1 $-1 $442 $350 $353 $443 forward $213 $-1 #
coedge $-1 -1 $-1 $217 $215 $444 $445 reversed $131 $-1 #
coedge $-1 -1 $-1 $350 $442 $215 $335 reversed $213 $-1 #
edge $-1 -1 $-1 $366 0 $446 8.2599999999999998 $215 $447 forward @7 unknown #
coedge $-1 -1 $-1 $444 $219 $216 $337 forward $225 $-1 #
edge $448 -1 $-1 $222 0 $339 8.25 $336 $449 forward @7 unknown #
attrib_edge_convexity-kcp-attrib $-1 -1 $450 $-1 $218 3 #
vertex $-1 -1 $-1 $445 $451 #
straight-curve $-1 -1 $-1 -209.54999999999998 -104.77499999999999 -104.90199999999999 0 0 25.399999999999999 I I #
ellipse-curve $-1 -1 $-1 -184.15000000000001 104.77500000000002 104.90199999999999 0 0 1 2.255973186038318e-014 25.399999999999977 0 1 I I #
convexity-sys-attrib $-1 -1 $-1 $221 $136 #
point $-1 -1 $-1 -209.54999999999998 104.77499999999999 104.90199999999999 #
coedge $-1 -1 $-1 $224 $452 $357 $453 forward $225 $-1 #
edge $-1 -1 $-1 $361 -3.2869595059768351e-016 $227 1.5707963267948957 $224 $454 forward @7 unknown #
loop $-1 -1 $-1 $-1 $455 $347 #
face $456 -1 $-1 $457 $225 $8 $-1 $458 forward single #
attrib_edge_convexity-kcp-attrib $-1 -1 $459 $226 $138 1 #
point $-1 -1 $-1 184.14999999999998 130.17499999999998 104.90199999999999 #
coedge $-1 -1 $-1 $332 $334 $231 $351 forward $213 $-1 #
edge $460 -1 $-1 $366 0 $355 14.499999999999998 $231 $461 forward @7 unknown #
coedge $-1 -1 $-1 $462 $232 $235 $358 forward $330 $-1 #
coedge $-1 -1 $-1 $232 $462 $332 $443 reversed $330 $-1 #
attrib_edge_convexity-kcp-attrib $-1 -1 $463 $-1 $233 1 #
vertex $-1 -1 $-1 $351 $464 #
ellipse-curve $-1 -1 $-1 184.14999999999998 -104.77499999999999 -104.90199999999999 0 0 1 0 -25.399999999999999 0 1 I I #
coedge $-1 -1 $-1 $235 $234 $344 $453 reversed $236 $-1 #
edge $-1 -1 $-1 $238 0 $465 8.2599999999999998 $352 $466 forward @7 unknown #
convexity-sys-attrib $-1 -1 $-1 $237 $144 #
point $-1 -1 $-1 209.54999999999998 -104.77499999999999 -104.90199999999999 #
vertex $-1 -1 $-1 $345 $467 #
straight-curve $-1 -1 $-1 209.54999999999998 104.77499999999999 -104.90199999999999 0 0 25.399999999999999 I I #
model_id-kcp-attrib $-1 -1 $-1 $-1 $242 1 1021400379 1021400379 -1728315391 10 #
cone-surface $-1 -1 $-1 184.14999999999998 104.77499999999999 -104.90199999999999 0 0 1 25.399999999999999 0 0 1 I I 0 1 25.399999999999999 forward I I I I #
attrib_edge_convexity-kcp-attrib $-1 -1 $468 $-1 $246 1 #
vertex $-1 -1 $-1 $246 $469 #
ellipse-curve $-1 -1 $-1 -184.14999999999998 -104.77499999999999 -104.90199999999999 0 0 1 -25.399999999999999 0 0 1 I I #
convexity-sys-attrib $-1 -1 $-1 $247 $153 #
point $-1 -1 $-1 -209.54999999999998 -104.77499999999999 -104.90199999999999 #
convexity-sys-attrib $-1 -1 $-1 $252 $157 #
model_id-kcp-attrib $-1 -1 $-1 $-1 $255 1 1021400379 1021400379 -1744437246 6 #
plane-surface $-1 -1 $-1 209.55000000000001 0 0 -1 0 0 0 0 1 forward_v I I I I #
coedge $-1 -1 $-1 $260 $258 $262 $377 reversed $163 $-1 #
edge $-1 -1 $-1 $273 -136.52499999999998 $379 136.52499999999998 $272 $470 forward @7 unknown #
vertex $-1 -1 $-1 $377 $471 #
straight-curve $-1 -1 $-1 -209.55000000000001 -130.17500000000001 0 0 0 -1 I I #
edge $-1 -1 $-1 $375 -130.17500000000001 $379 130.17500000000001 $373 $472 forward @7 unknown #
straight-curve $-1 -1 $-1 0 -130.17500000000001 -136.52499999999998 -1 0 0 I I #
vertex $-1 -1 $-1 $265 $473 #
straight-curve $-1 -1 $-1 0 130.17500000000001 -136.52499999999998 1 0 0 I I #
point $-1 -1 $-1 209.55000000000001 130.17500000000001 -136.52499999999998 #
point $-1 -1 $-1 209.55000000000001 -130.17500000000001 -136.52499999999998 #
straight-curve $-1 -1 $-1 -209.55000000000001 0 136.52499999999998 0 -1 0 I I #
point $-1 -1 $-1 -209.55000000000001 130.17500000000001 136.52499999999998 #
point $-1 -1 $-1 -209.55000000000001 -130.17500000000001 136.52499999999998 #
straight-curve $-1 -1 $-1 209.55000000000001 -130.17500000000001 0 0 0 -1 I I #
straight-curve $-1 -1 $-1 209.55000000000001 130.17500000000001 0 0 0 -1 I I #
point $-1 -1 $-1 -4.8259999999999996 88.899999999999991 136.65199999999999 #
face $-1 -1 $-1 $474 $475 $71 $-1 $312 reversed single #
loop $-1 -1 $-1 $-1 $476 $285 #
coedge $-1 -1 $-1 $477 $478 $479 $480 forward $286 $-1 #
coedge $-1 -1 $-1 $481 $287 $482 $483 reversed $186 $-1 #
coedge $-1 -1 $-1 $287 $481 $477 $484 reversed $186 $-1 #
coedge $-1 -1 $-1 $479 $485 $287 $395 forward $486 $-1 #
edge $-1 -1 $-1 $487 -273.04999999999995 $488 0 $287 $489 forward @7 unknown #
face $-1 -1 $-1 $-1 $490 $47 $-1 $119 reversed single #
loop $-1 -1 $-1 $-1 $402 $288 #
coedge $-1 -1 $-1 $491 $290 $405 $492 reversed $189 $-1 #
coedge $-1 -1 $-1 $290 $491 $493 $494 reversed $189 $-1 #
edge $-1 -1 $-1 $406 -273.04999999999995 $495 0 $290 $496 forward @7 unknown #
coedge $-1 -1 $-1 $292 $291 $497 $498 reversed $115 $-1 #
coedge $-1 -1 $-1 $499 $500 $292 $403 forward $397 $-1 #
edge $-1 -1 $-1 $407 -273.04999999999995 $501 0 $402 $502 forward @7 unknown #
coedge $-1 -1 $-1 $405 $293 $500 $503 forward $289 $-1 #
coedge $-1 -1 $-1 $293 $404 $398 $492 forward $289 $-1 #
vertex $-1 -1 $-1 $294 $504 #
vertex $-1 -1 $-1 $503 $505 #
ellipse-curve $-1 -1 $-1 -184.14999999999998 104.77500000000003 136.52499999999998 0 0 -1 0 25.399999999999977 0 1 I I #
cone-surface $-1 -1 $-1 184.14999999999998 104.77499999999998 -136.52499999999998 0 0 -1 25.400000000000034 1.4210854715202004e-014 0 1 I I 0 1 25.400000000000034 forward I I I I #
coedge $-1 -1 $-1 $420 $303 $306 $425 forward $296 $-1 #
coedge $-1 -1 $-1 $418 $297 $299 $415 reversed $192 $-1 #
coedge $-1 -1 $-1 $297 $418 $420 $506 reversed $192 $-1 #
coedge $-1 -1 $-1 $306 $300 $297 $414 reversed $307 $-1 #
edge $-1 -1 $-1 $507 -273.04999999999995 $416 0 $297 $508 forward @7 unknown #
edge $-1 -1 $-1 $423 -130.17500000000001 $416 -104.77499999999999 $411 $509 forward @7 unknown #
vertex $-1 -1 $-1 $301 $510 #
ellipse-curve $-1 -1 $-1 184.14999999999998 104.77499999999998 -136.52499999999998 0 0 1 25.400000000000034 1.4210854715202004e-014 0 1 I I #
coedge $-1 -1 $-1 $412 $411 $302 $419 reversed $192 $-1 #
edge $-1 -1 $-1 $421 -136.52499999999998 $423 136.52499999999998 $418 $511 forward @7 unknown #
coedge $-1 -1 $-1 $303 $410 $412 $506 forward $296 $-1 #
vertex $-1 -1 $-1 $506 $512 #
straight-curve $-1 -1 $-1 0 130.17500000000001 136.52499999999998 -1 0 0 I I #
vertex $-1 -1 $-1 $415 $513 #
straight-curve $-1 -1 $-1 0 130.17500000000001 -136.52499999999998 1 0 0 I I #
edge $-1 -1 $-1 $308 -1.5707963267948961 $507 0 $410 $514 forward @7 unknown #
point $-1 -1 $-1 184.14999999999998 130.17500000000001 136.52499999999998 #
point $-1 -1 $-1 184.14999999999998 130.17500000000001 -136.52499999999998 #
coedge $-1 -1 $-1 $315 $313 $322 $437 forward $199 $-1 #
coedge $-1 -1 $-1 $322 $321 $314 $430 forward $311 $-1 #
edge $-1 -1 $-1 $433 -136.52499999999998 $431 136.52499999999998 $314 $515 forward @7 unknown #
vertex $-1 -1 $-1 $316 $516 #
straight-curve $-1 -1 $-1 -209.55000000000001 0 -136.52499999999998 0 1 0 I I #
vertex $-1 -1 $-1 $317 $517 #
straight-curve $-1 -1 $-1 -209.55000000000001 0 136.52499999999998 0 -1 0 I I #
point $-1 -1 $-1 -209.55000000000001 -104.77499999999999 -136.52499999999998 #
ellipse-curve $-1 -1 $-1 -184.14999999999998 -104.77499999999998 -136.52499999999998 0 0 1 -25.400000000000034 -1.4210854715202004e-014 0 1 I I #
edge $-1 -1 $-1 $323 184.14999999999998 $431 209.55000000000001 $322 $518 forward @7 unknown #
point $-1 -1 $-1 -184.14999999999998 -130.17500000000001 -136.52499999999998 #
straight-curve $-1 -1 $-1 0 -130.17500000000001 136.52499999999998 1 0 0 I I #
model_id-kcp-attrib $-1 -1 $-1 $-1 $329 1 1021400379 1021400379 -1728315391 9 #
plane-surface $-1 -1 $-1 209.54999999999998 -104.77499999999999 -104.90199999999999 1 0 0 0 25.399999999999999 0 forward_v I I I I #
coedge $-1 -1 $-1 $334 $332 $519 $520 reversed $213 $-1 #
edge $-1 -1 $-1 $355 0 $521 8.2599999999999998 $332 $522 forward @7 unknown #
coedge $-1 -1 $-1 $519 $336 $333 $445 forward $225 $-1 #
edge $-1 -1 $-1 $339 -3.2869595059768351e-016 $446 1.5707963267948957 $444 $523 forward @7 unknown #
vertex $-1 -1 $-1 $520 $524 #
straight-curve $-1 -1 $-1 -184.14999999999998 -130.17499999999998 -104.90199999999999 0 0 25.399999999999999 I I #
model_id-kcp-attrib $-1 -1 $525 $-1 $337 1 1021400379 1021400379 -1728315391 23 #
straight-curve $-1 -1 $-1 -209.54999999999998 104.77499999999999 104.90199999999999 0 -25.399999999999999 0 I I #
convexity-sys-attrib $-1 -1 $-1 $338 $218 #
point $-1 -1 $-1 -209.54999999999998 -104.77499999999999 104.90199999999999 #
coedge $-1 -1 $-1 $344 $519 $462 $526 forward $225 $-1 #
edge $527 -1 $-1 $465 0 $361 8.25 $344 $528 forward @7 unknown #
ellipse-curve $-1 -1 $-1 184.14999999999998 104.77499999999998 104.90199999999999 0 0 1 25.40000000000002 2.255973186038318e-014 0 1 I I #
coedge $-1 -1 $-1 $529 $529 $530 $531 reversed $346 $-1 #
model_id-kcp-attrib $-1 -1 $-1 $-1 $347 1 1021400379 1021400379 -1728315391 11 #
face $532 -1 $-1 $533 $534 $8 $-1 $535 forward single #
plane-surface $-1 -1 $-1 0 0 104.90199999999999 0 0 1 25.399999999999999 0 0 forward_v I I I I #
convexity-sys-attrib $-1 -1 $-1 $348 $138 #
attrib_edge_convexity-kcp-attrib $-1 -1 $536 $-1 $351 1 #
straight-curve $-1 -1 $-1 -184.14999999999998 -130.17499999999998 -104.90199999999999 25.399999999999999 0 0 I I #
coedge $-1 -1 $-1 $353 $352 $452 $526 reversed $330 $-1 #
convexity-sys-attrib $-1 -1 $-1 $354 $233 #
point $-1 -1 $-1 184.14999999999998 -130.17499999999998 -104.90199999999999 #
vertex $-1 -1 $-1 $453 $537 #
straight-curve $-1 -1 $-1 209.54999999999998 -104.77499999999999 -104.90199999999999 0 0 25.399999999999999 I I #
point $-1 -1 $-1 209.54999999999998 104.77499999999999 104.90199999999999 #
convexity-sys-attrib $-1 -1 $-1 $365 $246 #
point $-1 -1 $-1 -184.14999999999998 -130.17499999999998 -104.90199999999999 #
straight-curve $-1 -1 $-1 -209.55000000000001 130.17500000000001 0 0 0 -1 I I #
point $-1 -1 $-1 -209.55000000000001 -130.17500000000001 -136.52499999999998 #
straight-curve $-1 -1 $-1 -209.55000000000001 0 -136.52499999999998 0 1 0 I I #
point $-1 -1 $-1 -209.55000000000001 130.17500000000001 -136.52499999999998 #
face $-1 -1 $-1 $-1 $486 $71 $-1 $538 reversed single #
loop $-1 -1 $-1 $-1 $539 $389 #
coedge $-1 -1 $-1 $540 $482 $485 $541 forward $390 $-1 #
coedge $-1 -1 $-1 $478 $391 $393 $484 forward $286 $-1 #
coedge $-1 -1 $-1 $391 $477 $542 $543 forward $286 $-1 #
coedge $-1 -1 $-1 $544 $394 $391 $480 reversed $486 $-1 #
edge $-1 -1 $-1 $545 0 $488 1.5707963267948983 $391 $546 forward @7 unknown #
coedge $-1 -1 $-1 $393 $392 $547 $548 forward $186 $-1 #
coedge $-1 -1 $-1 $476 $540 $392 $483 forward $390 $-1 #
edge $-1 -1 $-1 $549 -130.17500000000001 $487 -104.77499999999999 $392 $550 forward @7 unknown #
edge $-1 -1 $-1 $488 104.77499999999999 $551 130.17500000000001 $393 $509 forward @7 unknown #
coedge $-1 -1 $-1 $394 $544 $476 $541 reversed $486 $-1 #
loop $-1 -1 $-1 $-1 $485 $474 #
vertex $-1 -1 $-1 $395 $552 #
vertex $-1 -1 $-1 $484 $553 #
straight-curve $-1 -1 $-1 209.55000000000001 -104.77500000000003 -136.52499999999998 0 0 -1 I I #
loop $-1 -1 $-1 $-1 $497 $396 #
coedge $-1 -1 $-1 $399 $398 $554 $555 forward $189 $-1 #
edge $-1 -1 $-1 $556 -130.17500000000001 $406 -104.77499999999999 $398 $434 forward @7 unknown #
coedge $-1 -1 $-1 $557 $497 $399 $494 forward $490 $-1 #
edge $-1 -1 $-1 $495 104.77499999999999 $558 130.17500000000001 $399 $432 forward @7 unknown #
vertex $-1 -1 $-1 $494 $559 #
straight-curve $-1 -1 $-1 -209.55000000000001 104.77500000000003 -136.52499999999998 0 0 -1 I I #
coedge $-1 -1 $-1 $493 $557 $401 $498 forward $490 $-1 #
edge $-1 -1 $-1 $501 0 $495 1.5707963267948983 $497 $560 forward @7 unknown #
coedge $-1 -1 $-1 $554 $402 $557 $561 reversed $397 $-1 #
coedge $-1 -1 $-1 $402 $554 $404 $503 reversed $397 $-1 #
vertex $-1 -1 $-1 $403 $562 #
straight-curve $-1 -1 $-1 -184.14999999999998 130.17500000000001 -136.52499999999998 0 0 -1 I I #
edge $-1 -1 $-1 $407 184.14999999999998 $556 209.55000000000001 $500 $422 forward @7 unknown #
point $-1 -1 $-1 -209.54999999999995 104.77499999999999 136.52499999999998 #
point $-1 -1 $-1 -184.14999999999998 130.17499999999998 136.52499999999998 #
edge $-1 -1 $-1 $507 104.77499999999999 $421 130.17500000000001 $412 $550 forward @7 unknown #
vertex $-1 -1 $-1 $506 $563 #
straight-curve $-1 -1 $-1 209.55000000000001 104.77499999999998 -136.52499999999998 0 0 -1 I I #
straight-curve $-1 -1 $-1 209.55000000000001 0 -136.52499999999998 0 -1 0 I I #
point $-1 -1 $-1 209.55000000000001 104.77499999999999 -136.52499999999998 #
straight-curve $-1 -1 $-1 209.55000000000001 130.17500000000001 0 0 0 -1 I I #
point $-1 -1 $-1 209.55000000000001 130.17500000000001 136.52499999999998 #
point $-1 -1 $-1 209.55000000000001 130.17500000000001 -136.52499999999998 #
ellipse-curve $-1 -1 $-1 184.14999999999998 104.77499999999998 136.52499999999998 0 0 -1 25.400000000000034 1.4210854715202004e-014 0 1 I I #
straight-curve $-1 -1 $-1 -209.55000000000001 -130.17500000000001 0 0 0 -1 I I #
point $-1 -1 $-1 -209.55000000000001 -130.17500000000001 -136.52499999999998 #
point $-1 -1 $-1 -209.55000000000001 -130.17500000000001 136.52499999999998 #
straight-curve $-1 -1 $-1 0 -130.17500000000001 -136.52499999999998 -1 0 0 I I #
coedge $-1 -1 $-1 $452 $444 $442 $520 forward $225 $-1 #
edge $564 -1 $-1 $446 0 $521 14.499999999999998 $519 $565 forward @7 unknown #
vertex $-1 -1 $-1 $526 $566 #
straight-curve $-1 -1 $-1 184.14999999999998 -130.17499999999998 -104.90199999999999 0 0 25.399999999999999 I I #
ellipse-curve $-1 -1 $-1 -184.14999999999998 -104.77499999999998 104.90199999999999 0 0 1 -25.40000000000002 -2.255973186038318e-014 0 1 I I #
point $-1 -1 $-1 -184.14999999999998 -130.17499999999998 104.90199999999999 #
attrib_edge_convexity-kcp-attrib $-1 -1 $567 $448 $337 1 #
edge $-1 -1 $-1 $521 -2.3078651850475777e-016 $465 1.5707963267948988 $452 $568 forward @7 unknown #
model_id-kcp-attrib $-1 -1 $-1 $-1 $453 1 1021400379 1021400379 -1728315391 21 #
straight-curve $-1 -1 $-1 209.54999999999998 -104.77499999999999 104.90199999999999 0 25.399999999999999 0 I I #
coedge $-1 -1 $-1 $455 $455 $569 $570 reversed $346 $-1 #
coedge $-1 -1 $-1 $571 $572 $455 $531 forward $534 $-1 #
edge $-1 -1 $-1 $573 0 $574 3.1415926535897931 $455 $575 forward @7 unknown #
model_id-kcp-attrib $-1 -1 $-1 $-1 $457 1 1021400379 1021400379 -1728315391 12 #
face $576 -1 $-1 $577 $578 $8 $-1 $579 forward single #
loop $-1 -1 $-1 $-1 $572 $457 #
cone-surface $-1 -1 $-1 0 0 104.90199999999999 0 0 1 76.199999999999989 0 0 1 I I 0 1 76.199999999999989 forward I I I I #
convexity-sys-attrib $-1 -1 $-1 $460 $351 #
point $-1 -1 $-1 209.54999999999998 -104.77499999999999 104.90199999999999 #
cone-surface $-1 -1 $-1 184.14999999999998 -104.77500000000003 -136.52499999999998 0 0 -1 0 -25.399999999999977 0 1 I I 0 1 25.399999999999977 forward I I I I #
coedge $-1 -1 $-1 $542 $580 $544 $581 forward $475 $-1 #
coedge $-1 -1 $-1 $482 $476 $580 $582 forward $390 $-1 #
edge $-1 -1 $-1 $487 -1.5707963267948983 $583 0 $476 $584 forward @7 unknown #
coedge $-1 -1 $-1 $547 $539 $478 $543 reversed $475 $-1 #
edge $-1 -1 $-1 $551 -209.55000000000001 $545 -184.14999999999998 $542 $518 forward @7 unknown #
coedge $-1 -1 $-1 $485 $479 $539 $581 reversed $486 $-1 #
vertex $-1 -1 $-1 $480 $585 #
ellipse-curve $-1 -1 $-1 184.14999999999998 -104.77500000000003 -136.52499999999998 0 0 1 0 -25.399999999999977 0 1 I I #
coedge $-1 -1 $-1 $580 $542 $481 $548 reversed $475 $-1 #
edge $-1 -1 $-1 $549 -136.52499999999998 $551 136.52499999999998 $481 $586 forward @7 unknown #
vertex $-1 -1 $-1 $483 $587 #
straight-curve $-1 -1 $-1 209.55000000000001 0 136.52499999999998 0 1 0 I I #
vertex $-1 -1 $-1 $548 $588 #
point $-1 -1 $-1 209.54999999999995 -104.77499999999999 136.52499999999998 #
point $-1 -1 $-1 209.54999999999995 -104.77499999999999 -136.52499999999998 #
coedge $-1 -1 $-1 $500 $499 $491 $555 reversed $397 $-1 #
edge $-1 -1 $-1 $556 -136.52499999999998 $558 136.52499999999998 $554 $589 forward @7 unknown #
vertex $-1 -1 $-1 $503 $590 #
coedge $-1 -1 $-1 $497 $493 $499 $561 forward $490 $-1 #
vertex $-1 -1 $-1 $561 $591 #
point $-1 -1 $-1 -209.54999999999995 104.77499999999999 -136.52499999999998 #
ellipse-curve $-1 -1 $-1 -184.14999999999998 104.77500000000003 -136.52499999999998 0 0 1 0 25.399999999999977 0 1 I I #
edge $-1 -1 $-1 $558 -209.55000000000001 $501 -184.14999999999998 $499 $424 forward @7 unknown #
point $-1 -1 $-1 -184.14999999999998 130.17499999999998 -136.52499999999998 #
point $-1 -1 $-1 209.55000000000001 104.77499999999999 136.52499999999998 #
model_id-kcp-attrib $-1 -1 $-1 $-1 $520 1 1021400379 1021400379 -1728315391 22 #
straight-curve $-1 -1 $-1 -184.14999999999998 -130.17499999999998 104.90199999999999 25.399999999999999 0 0 I I #
point $-1 -1 $-1 184.14999999999998 -130.17499999999998 104.90199999999999 #
convexity-sys-attrib $-1 -1 $-1 $525 $337 #
ellipse-curve $-1 -1 $-1 184.15000000000001 -104.77500000000002 104.90199999999999 0 0 1 -2.255973186038318e-014 -25.399999999999977 0 1 I I #
coedge $-1 -1 $-1 $592 $593 $529 $570 forward $578 $-1 #
edge $-1 -1 $-1 $574 0 $573 3.1415926535897931 $529 $594 forward @7 unknown #
coedge $-1 -1 $-1 $595 $530 $593 $596 forward $534 $-1 #
coedge $-1 -1 $-1 $530 $595 $592 $597 reversed $534 $-1 #
vertex $-1 -1 $-1 $570 $598 #
vertex $-1 -1 $-1 $570 $599 #
ellipse-curve $-1 -1 $-1 0 0 104.90199999999999 0 0 1 -76.199999999999989 0 0 1 I I #
model_id-kcp-attrib $-1 -1 $-1 $-1 $533 1 1021400379 1021400379 -1728315391 13 #
face $600 -1 $-1 $601 $602 $8 $-1 $603 reversed single #
loop $-1 -1 $-1 $-1 $593 $533 #
cone-surface $-1 -1 $-1 0 0 104.90199999999999 0 0 1 76.199999999999989 0 0 1 I I 0 1 76.199999999999989 forward I I I I #
coedge $-1 -1 $-1 $539 $547 $540 $582 reversed $475 $-1 #
edge $-1 -1 $-1 $583 -273.04999999999995 $545 0 $539 $604 forward @7 unknown #
edge $-1 -1 $-1 $583 184.14999999999998 $549 209.55000000000001 $580 $439 forward @7 unknown #
vertex $-1 -1 $-1 $582 $605 #
ellipse-curve $-1 -1 $-1 184.14999999999998 -104.77500000000003 136.52499999999998 0 0 -1 0 -25.399999999999977 0 1 I I #
point $-1 -1 $-1 184.14999999999998 -130.17500000000001 -136.52499999999998 #
straight-curve $-1 -1 $-1 209.55000000000001 -130.17500000000001 0 0 0 -1 I I #
point $-1 -1 $-1 209.55000000000001 -130.17500000000001 136.52499999999998 #
point $-1 -1 $-1 209.55000000000001 -130.17500000000001 -136.52499999999998 #
straight-curve $-1 -1 $-1 -209.55000000000001 130.17500000000001 0 0 0 -1 I I #
point $-1 -1 $-1 -209.55000000000001 130.17500000000001 136.52499999999998 #
point $-1 -1 $-1 -209.55000000000001 130.17500000000001 -136.52499999999998 #
coedge $-1 -1 $-1 $606 $569 $572 $597 forward $578 $-1 #
coedge $-1 -1 $-1 $569 $606 $571 $596 reversed $578 $-1 #
ellipse-curve $-1 -1 $-1 0 0 104.90199999999999 0 0 1 76.199999999999989 0 0 1 I I #
coedge $-1 -1 $-1 $572 $571 $607 $608 reversed $534 $-1 #
edge $-1 -1 $-1 $574 0 $609 1.25 $593 $610 forward @7 unknown #
edge $-1 -1 $-1 $573 0 $611 1.25 $592 $612 forward @7 unknown #
point $-1 -1 $-1 -76.199999999999989 0 104.90199999999999 #
point $-1 -1 $-1 76.199999999999989 0 104.90199999999999 #
model_id-kcp-attrib $-1 -1 $-1 $-1 $577 1 1021400379 1021400379 -1728315391 14 #
face $613 -1 $-1 $614 $615 $8 $-1 $616 forward single #
loop $-1 -1 $-1 $617 $618 $577 #
plane-surface $-1 -1 $-1 0 0 136.65199999999999 0 0 1 -25.399999999999999 0 0 forward_v I I I I #
straight-curve $-1 -1 $-1 184.14999999999998 -130.17500000000001 -136.52499999999998 0 0 -1 I I #
point $-1 -1 $-1 184.14999999999998 -130.17500000000001 136.52499999999998 #
coedge $-1 -1 $-1 $593 $592 $619 $620 reversed $578 $-1 #
coedge $-1 -1 $-1 $619 $619 $595 $608 forward $617 $-1 #
edge $-1 -1 $-1 $611 0 $609 3.1415926535897931 $595 $621 forward @7 unknown #
vertex $-1 -1 $-1 $620 $622 #
straight-curve $-1 -1 $-1 76.199999999999989 0 104.90199999999999 0 0 25.399999999999999 I I #
vertex $-1 -1 $-1 $620 $623 #
straight-curve $-1 -1 $-1 -76.199999999999989 9.3315004161265141e-015 104.90199999999999 0 0 25.399999999999999 I I #
model_id-kcp-attrib $-1 -1 $-1 $-1 $601 1 1021400379 1021400379 -1728315391 15 #
face $624 -1 $-1 $625 $626 $8 $-1 $627 forward single #
loop $-1 -1 $-1 $-1 $628 $601 #
cone-surface $-1 -1 $-1 0 0 136.65199999999999 0 0 1 -101.59999999999999 0 0 1 I I 0 1 101.59999999999999 forward I I I I #
loop $-1 -1 $-1 $629 $607 $577 #
coedge $-1 -1 $-1 $630 $630 $631 $632 reversed $602 $-1 #
coedge $-1 -1 $-1 $607 $607 $606 $620 forward $617 $-1 #
edge $-1 -1 $-1 $609 0 $611 3.1415926535897931 $606 $633 forward @7 unknown #
ellipse-curve $-1 -1 $-1 5.6399329650957949e-015 -2.8199664825478975e-015 136.65199999999999 0 0 1 -76.199999999999989 2.8199664825478975e-015 0 1 I I #
point $-1 -1 $-1 76.199999999999989 0 136.65199999999999 #
point $-1 -1 $-1 -76.199999999999989 0 136.65199999999999 #
model_id-kcp-attrib $-1 -1 $-1 $-1 $614 1 1021400379 1021400379 -1728315391 16 #
face $634 -1 $-1 $635 $636 $8 $-1 $637 forward single #
loop $-1 -1 $-1 $-1 $638 $614 #
cone-surface $-1 -1 $-1 0 0 136.65199999999999 0 0 1 -101.59999999999999 0 0 1 I I 0 1 101.59999999999999 forward I I I I #
coedge $-1 -1 $-1 $639 $631 $640 $641 forward $615 $-1 #
loop $-1 -1 $-1 $-1 $642 $577 #
coedge $-1 -1 $-1 $618 $618 $643 $644 reversed $602 $-1 #
coedge $-1 -1 $-1 $628 $645 $618 $632 forward $615 $-1 #
edge $-1 -1 $-1 $646 0 $647 3.1415926535897931 $618 $648 forward @7 unknown #
ellipse-curve $-1 -1 $-1 2.8199664825478975e-015 5.6399329650957949e-015 136.65199999999999 0 0 1 76.199999999999989 -5.6399329650957949e-015 0 1 I I #
model_id-kcp-attrib $-1 -1 $-1 $-1 $625 1 1021400379 1021400379 -1728315391 17 #
face $649 -1 $-1 $650 $651 $8 $-1 $652 reversed single #
loop $-1 -1 $-1 $653 $654 $625 #
plane-surface $-1 -1 $-1 0 0 168.148 0 0 1 -25.399999999999999 0 0 forward_v I I I I #
coedge $-1 -1 $-1 $655 $643 $645 $656 forward $626 $-1 #
coedge $-1 -1 $-1 $645 $628 $654 $657 reversed $615 $-1 #
coedge $-1 -1 $-1 $643 $655 $628 $641 reversed $626 $-1 #
edge $-1 -1 $-1 $647 0 $658 1.2400000000000004 $640 $659 forward @7 unknown #
coedge $-1 -1 $-1 $660 $660 $661 $662 reversed $629 $-1 #
coedge $-1 -1 $-1 $638 $640 $630 $644 forward $626 $-1 #
edge $-1 -1 $-1 $647 0 $646 3.1415926535897931 $630 $663 forward @7 unknown #
coedge $-1 -1 $-1 $631 $639 $638 $656 reversed $615 $-1 #
vertex $-1 -1 $-1 $644 $664 #
vertex $-1 -1 $-1 $644 $665 #
ellipse-curve $-1 -1 $-1 0 0 136.65199999999999 0 0 1 101.59999999999999 0 0 1 I I #
model_id-kcp-attrib $-1 -1 $-1 $-1 $635 1 1021400379 1021400379 -1728315391 18 #
face $666 -1 $-1 $-1 $667 $8 $-1 $668 reversed single #
loop $-1 -1 $-1 $-1 $669 $635 #
cone-surface $-1 -1 $-1 0 88.899999999999991 168.148 0 0 -1 -4.8259999999999996 0 0 1 I I 0 1 4.8259999999999996 forward I I I I #
loop $-1 -1 $-1 $-1 $670 $625 #
coedge $-1 -1 $-1 $671 $671 $639 $657 forward $636 $-1 #
coedge $-1 -1 $-1 $640 $638 $671 $672 reversed $626 $-1 #
edge $-1 -1 $-1 $646 0 $673 1.2400000000000004 $638 $674 forward @7 unknown #
edge $-1 -1 $-1 $673 0 $658 3.1415926535897931 $654 $675 forward @7 unknown #
vertex $-1 -1 $-1 $672 $676 #
straight-curve $-1 -1 $-1 -101.59999999999999 0 136.65199999999999 0 0 25.399999999999999 I I #
coedge $-1 -1 $-1 $642 $642 $677 $678 reversed $629 $-1 #
coedge $-1 -1 $-1 $669 $679 $642 $662 forward $651 $-1 #
edge $-1 -1 $-1 $680 0 $681 3.1415926535897931 $642 $682 forward @7 unknown #
ellipse-curve $-1 -1 $-1 0 0 136.65199999999999 0 0 1 -101.59999999999999 0 0 1 I I #
point $-1 -1 $-1 101.59999999999999 0 136.65199999999999 #
point $-1 -1 $-1 -101.59999999999999 0 136.65199999999999 #
model_id-kcp-attrib $-1 -1 $-1 $-1 $650 1 1021400379 1021400379 -1728315391 19 #
loop $-1 -1 $-1 $-1 $683 $650 #
cone-surface $-1 -1 $-1 0 88.899999999999991 168.148 0 0 -1 -4.8259999999999996 0 0 1 I I 0 1 4.8259999999999996 forward I I I I #
coedge $-1 -1 $-1 $684 $661 $685 $686 reversed $651 $-1 #
coedge $-1 -1 $-1 $687 $687 $684 $688 forward $653 $-1 #
coedge $-1 -1 $-1 $654 $654 $655 $672 forward $636 $-1 #
edge $-1 -1 $-1 $658 0 $673 3.1415926535897931 $671 $689 forward @7 unknown #
vertex $-1 -1 $-1 $672 $690 #
straight-curve $-1 -1 $-1 101.59999999999999 -1.2442000554835353e-014 136.65199999999999 0 0 25.399999999999999 I I #
ellipse-curve $-1 -1 $-1 -2.8199664825478975e-015 -5.6399329650957949e-015 168.148 0 0 1 101.59999999999999 5.6399329650957949e-015 0 1 I I #
point $-1 -1 $-1 -101.59999999999999 0 168.148 #
coedge $-1 -1 $-1 $683 $685 $660 $678 forward $667 $-1 #
edge $-1 -1 $-1 $681 0 $680 3.1415926535897931 $660 $691 forward @7 unknown #
coedge $-1 -1 $-1 $661 $684 $683 $692 forward $651 $-1 #
vertex $-1 -1 $-1 $678 $693 #
vertex $-1 -1 $-1 $678 $694 #
ellipse-curve $-1 -1 $-1 0 88.899999999999991 136.65199999999999 0 0 -1 4.8259999999999996 0 0 1 I I #
coedge $-1 -1 $-1 $695 $677 $679 $692 reversed $667 $-1 #
coedge $-1 -1 $-1 $679 $669 $670 $688 reversed $651 $-1 #
coedge $-1 -1 $-1 $677 $695 $669 $686 forward $667 $-1 #
edge $-1 -1 $-1 $696 0 $681 1.2400000000000004 $685 $697 forward @7 unknown #
coedge $-1 -1 $-1 $670 $670 $695 $698 forward $653 $-1 #
edge $-1 -1 $-1 $699 0 $696 3.1415926535897931 $670 $700 forward @7 unknown #
ellipse-curve $-1 -1 $-1 0 2.8199664825478975e-015 168.148 0 0 1 -101.59999999999999 -2.8199664825478975e-015 0 1 I I #
point $-1 -1 $-1 101.59999999999999 0 168.148 #
ellipse-curve $-1 -1 $-1 3.5249581031848718e-016 88.899999999999991 136.65199999999999 0 0 -1 -4.8259999999999996 0 0 1 I I #
edge $-1 -1 $-1 $699 0 $680 1.2400000000000004 $683 $701 forward @7 unknown #
point $-1 -1 $-1 4.8259999999999996 88.899999999999991 136.65199999999999 #
point $-1 -1 $-1 -4.8259999999999996 88.899999999999991 136.65199999999999 #
coedge $-1 -1 $-1 $685 $683 $687 $698 reversed $667 $-1 #
vertex $-1 -1 $-1 $698 $702 #
straight-curve $-1 -1 $-1 -4.8259999999999996 88.899999999999991 168.148 0 0 -25.399999999999999 I I #
edge $-1 -1 $-1 $696 0 $699 3.1415926535897931 $687 $703 forward @7 unknown #
vertex $-1 -1 $-1 $698 $704 #
ellipse-curve $-1 -1 $-1 0 88.899999999999991 168.148 0 0 -1 4.8259999999999996 0 0 1 I I #
straight-curve $-1 -1 $-1 4.8259999999999996 88.899999999999991 168.148 0 0 -25.399999999999999 I I #
point $-1 -1 $-1 -4.8259999999999996 88.899999999999991 168.148 #
ellipse-curve $-1 -1 $-1 0 88.899999999999991 168.148 0 0 -1 -4.8259999999999996 0 0 1 I I #
point $-1 -1 $-1 4.8259999999999996 88.899999999999991 168.148 #
End-of-ACIS-data 