  0
SECTION
  2
HEADER
  9
$ACADVER
  1
AC1009
  9
$INSBASE
 10
0.0
 20
0.0
 30
0.0
  9
$EXTMIN
 10
0.0
 20
0.0
 30
0.0
  9
$EXTMAX
 10
5.0
 20
4.0
 30
4.0
  9
$LIMMIN
 10
0.0
 20
0.0
  9
$LIMMAX
 10
12.0
 20
9.0
  9
$ORTHOMODE
 70
     0
  9
$REGENMODE
 70
     1
  9
$FILLMODE
 70
     1
  9
$QTEXTMODE
 70
     0
  9
$MIRRTEXT
 70
     1
  9
$DRAGMODE
 70
     2
  9
$LTSCALE
 40
1.0
  9
$OSMODE
 70
     0
  9
$ATTMODE
 70
     1
  9
$TEXTSIZE
 40
0.2
  9
$TRACEWID
 40
0.05
  9
$TEXTSTYLE
  7
STANDARD
  9
$CLAYER
  8
0
  9
$CELTYPE
  6
BYLAYER
  9
$CECOLOR
 62
   256
  9
$DIMSCALE
 40
1.0
  9
$DIMASZ
 40
0.18
  9
$DIMEXO
 40
0.0625
  9
$DIMDLI
 40
0.38
  9
$DIMRND
 40
0.0
  9
$DIMDLE
 40
0.0
  9
$DIMEXE
 40
0.18
  9
$DIMTP
 40
0.0
  9
$DIMTM
 40
0.0
  9
$DIMTXT
 40
0.18
  9
$DIMCEN
 40
0.09
  9
$DIMTSZ
 40
0.0
  9
$DIMTOL
 70
     0
  9
$DIMLIM
 70
     0
  9
$DIMTIH
 70
     1
  9
$DIMTOH
 70
     1
  9
$DIMSE1
 70
     0
  9
$DIMSE2
 70
     0
  9
$DIMTAD
 70
     0
  9
$DIMZIN
 70
     0
  9
$DIMBLK
  1

  9
$DIMASO
 70
     1
  9
$DIMSHO
 70
     1
  9
$DIMPOST
  1

  9
$DIMAPOST
  1

  9
$DIMALT
 70
     0
  9
$DIMALTD
 70
     2
  9
$DIMALTF
 40
25.4
  9
$DIMLFAC
 40
1.0
  9
$DIMTOFL
 70
     0
  9
$DIMTVP
 40
0.0
  9
$DIMTIX
 70
     0
  9
$DIMSOXD
 70
     0
  9
$DIMSAH
 70
     0
  9
$DIMBLK1
  1

  9
$DIMBLK2
  1

  9
$DIMSTYLE
  2
*UNNAMED
  9
$DIMCLRD
 70
     0
  9
$DIMCLRE
 70
     0
  9
$DIMCLRT
 70
     0
  9
$DIMTFAC
 40
1.0
  9
$DIMGAP
 40
0.09
  9
$LUNITS
 70
     2
  9
$LUPREC
 70
     4
  9
$SKETCHINC
 40
0.1
  9
$FILLETRAD
 40
0.0
  9
$AUNITS
 70
     0
  9
$AUPREC
 70
     0
  9
$MENU
  1
acad
  9
$ELEVATION
 40
0.0
  9
$PELEVATION
 40
0.0
  9
$THICKNESS
 40
0.0
  9
$LIMCHECK
 70
     0
  9
$BLIPMODE
 70
     1
  9
$CHAMFERA
 40
0.0
  9
$CHAMFERB
 40
0.0
  9
$SKPOLY
 70
     0
  9
$TDCREATE
 40
2449314.262256597
  9
$TDUPDATE
 40
2449314.264097465
  9
$TDINDWG
 40
0.0018408681
  9
$TDUSRTIMER
 40
0.0018408681
  9
$USRTIMER
 70
     1
  9
$ANGBASE
 50
0.0
  9
$ANGDIR
 70
     0
  9
$PDMODE
 70
     0
  9
$PDSIZE
 40
0.0
  9
$PLINEWID
 40
0.0
  9
$COORDS
 70
     0
  9
$SPLFRAME
 70
     0
  9
$SPLINETYPE
 70
     6
  9
$SPLINESEGS
 70
     8
  9
$ATTDIA
 70
     0
  9
$ATTREQ
 70
     1
  9
$HANDLING
 70
     1
  9
$HANDSEED
  5
79
  9
$SURFTAB1
 70
     6
  9
$SURFTAB2
 70
     6
  9
$SURFTYPE
 70
     6
  9
$SURFU
 70
     6
  9
$SURFV
 70
     6
  9
$UCSNAME
  2

  9
$UCSORG
 10
0.0
 20
0.0
 30
0.0
  9
$UCSXDIR
 10
1.0
 20
0.0
 30
0.0
  9
$UCSYDIR
 10
0.0
 20
1.0
 30
0.0
  9
$PUCSNAME
  2

  9
$PUCSORG
 10
0.0
 20
0.0
 30
0.0
  9
$PUCSXDIR
 10
1.0
 20
0.0
 30
0.0
  9
$PUCSYDIR
 10
0.0
 20
1.0
 30
0.0
  9
$USERI1
 70
     0
  9
$USERI2
 70
     0
  9
$USERI3
 70
     0
  9
$USERI4
 70
     0
  9
$USERI5
 70
     0
  9
$USERR1
 40
0.0
  9
$USERR2
 40
0.0
  9
$USERR3
 40
0.0
  9
$USERR4
 40
0.0
  9
$USERR5
 40
0.0
  9
$WORLDVIEW
 70
     1
  9
$SHADEDGE
 70
     3
  9
$SHADEDIF
 70
    70
  9
$TILEMODE
 70
     1
  9
$MAXACTVP
 70
    16
  9
$PINSBASE
 10
0.0
 20
0.0
 30
0.0
  9
$PLIMCHECK
 70
     0
  9
$PEXTMIN
 10
1.000000E+20
 20
1.000000E+20
 30
1.000000E+20
  9
$PEXTMAX
 10
-1.000000E+20
 20
-1.000000E+20
 30
-1.000000E+20
  9
$PLIMMIN
 10
0.0
 20
0.0
  9
$PLIMMAX
 10
12.0
 20
9.0
  9
$UNITMODE
 70
     0
  9
$VISRETAIN
 70
     0
  9
$PLINEGEN
 70
     0
  9
$PSLTSCALE
 70
     0
  9
$TREEDEPTH
 70
  3020
  9
$DWGCODEPAGE
  3
undefined
  0
ENDSEC
  0
SECTION
  2
TABLES
  0
TABLE
  2
VPORT
 70
     2
  0
VPORT
  2
*ACTIVE
 70
     0
 10
0.0
 20
0.0
 11
1.0
 21
1.0
 12
1.998885
 22
-0.204124
 13
0.0
 23
0.0
 14
1.0
 24
1.0
 15
0.0
 25
0.0
 16
1.0
 26
1.0
 36
1.0
 17
0.0
 27
0.0
 37
0.0
 40
6.940221
 41
1.594883
 42
50.0
 43
0.0
 44
0.0
 50
0.0
 51
0.0
 71
     0
 72
   100
 73
     1
 74
     1
 75
     0
 76
     0
 77
     0
 78
     0
  0
ENDTAB
  0
TABLE
  2
LTYPE
 70
     1
  0
LTYPE
  2
CONTINUOUS
 70
    64
  3
Solid line
 72
    65
 73
     0
 40
0.0
  0
ENDTAB
  0
TABLE
  2
LAYER
 70
     2
  0
LAYER
  2
0
 70
    64
 62
     7
  6
CONTINUOUS
  0
LAYER
  2
AME_FRZ
 70
    65
 62
     7
  6
CONTINUOUS
  0
ENDTAB
  0
TABLE
  2
STYLE
 70
     1
  0
STYLE
  2
STANDARD
 70
     0
 40
0.0
 41
1.0
 50
0.0
 71
     0
 42
0.2
  3
txt
  4

  0
ENDTAB
  0
TABLE
  2
VIEW
 70
     0
  0
ENDTAB
  0
TABLE
  2
UCS
 70
     0
  0
ENDTAB
  0
TABLE
  2
APPID
 70
     2
  0
APPID
  2
ACAD
 70
    64
  0
APPID
  2
AME_SOL
 70
    64
  0
ENDTAB
  0
TABLE
  2
DIMSTYLE
 70
     0
  0
ENDTAB
  0
ENDSEC
  0
SECTION
  2
BLOCKS
  0
BLOCK
  8
0
  5
1
  2
AME_NIL
 70
    64
 10
0.0
 20
0.0
 30
0.0
  1
AME_NIL
  3
AME_NIL
  0
ENDBLK
  8
0
  5
2
  0
BLOCK
  8
0
  5
4
  2
AME_SOL
 70
    64
 10
0.0
 20
0.0
 30
0.0
  1
AME_SOL
  3
AME_SOL
  0
ENDBLK
  8
0
  5
5
  0
BLOCK
  8
0
  5
7
  2
*U2
 70
    65
 10
0.0
 20
0.0
 30
0.0
  1
*U
  3
*U
  0
LINE
  8
0
 62
     0
  5
8
 10
5.0
 20
1.0
 30
0.0
 11
5.0
 21
1.0
 31
4.0
1001
AME_SOL
1070
     1
1071
       18
  0
LINE
  8
0
 62
     0
  5
9
 10
5.0
 20
1.0
 30
4.0
 11
5.0
 21
0.0
 31
4.0
1001
AME_SOL
1070
     1
1071
       17
  0
LINE
  8
0
 62
     0
  5
A
 10
0.0
 20
1.0
 30
4.0
 11
5.0
 21
1.0
 31
4.0
1001
AME_SOL
1070
     1
1071
       16
  0
LINE
  8
0
 62
     0
  5
B
 10
0.0
 20
1.0
 30
0.0
 11
0.0
 21
1.0
 31
4.0
1001
AME_SOL
1070
     1
1071
       15
  0
LINE
  8
0
 62
     0
  5
C
 10
0.0
 20
1.0
 30
4.0
 11
0.0
 21
0.0
 31
4.0
1001
AME_SOL
1070
     1
1071
       14
  0
LINE
  8
0
 62
     0
  5
D
 10
0.0
 20
0.0
 30
0.0
 11
0.0
 21
0.0
 31
4.0
1001
AME_SOL
1070
     1
1071
       13
  0
LINE
  8
0
 62
     0
  5
E
 10
5.0
 20
0.0
 30
4.0
 11
5.0
 21
0.0
 31
0.0
1001
AME_SOL
1070
     1
1071
       12
  0
LINE
  8
0
 62
     0
  5
F
 10
0.0
 20
0.0
 30
4.0
 11
5.0
 21
0.0
 31
4.0
1001
AME_SOL
1070
     1
1071
       11
  0
LINE
  8
0
 62
     0
  5
10
 10
0.0
 20
0.0
 30
0.0
 11
5.0
 21
0.0
 31
0.0
1001
AME_SOL
1070
     1
1071
       10
  0
LINE
  8
0
 62
     0
  5
11
 10
0.0
 20
1.0
 30
0.0
 11
0.0
 21
0.0
 31
0.0
1001
AME_SOL
1070
     1
1071
        9
  0
LINE
  8
0
 62
     0
  5
12
 10
5.0
 20
0.0
 30
0.0
 11
5.0
 21
1.0
 31
0.0
1001
AME_SOL
1070
     1
1071
        8
  0
LINE
  8
0
 62
     0
  5
13
 10
5.0
 20
1.0
 30
0.0
 11
0.0
 21
1.0
 31
0.0
1001
AME_SOL
1070
     1
1071
        7
  0
ENDBLK
  8
0
  5
14
  0
BLOCK
  8
0
  5
29
  2
*U3
 70
    65
 10
0.0
 20
0.0
 30
0.0
  1
*U
  3
*U
  0
LINE
  8
0
 62
     0
  5
2A
 10
1.0
 20
2.0
 30
0.0
 11
1.0
 21
2.0
 31
4.0
1001
AME_SOL
1070
     1
1071
       18
  0
LINE
  8
0
 62
     0
  5
2B
 10
1.0
 20
2.0
 30
4.0
 11
1.0
 21
0.0
 31
4.0
1001
AME_SOL
1070
     1
1071
       17
  0
LINE
  8
0
 62
     0
  5
2C
 10
0.0
 20
2.0
 30
4.0
 11
1.0
 21
2.0
 31
4.0
1001
AME_SOL
1070
     1
1071
       16
  0
LINE
  8
0
 62
     0
  5
2D
 10
0.0
 20
2.0
 30
0.0
 11
0.0
 21
2.0
 31
4.0
1001
AME_SOL
1070
     1
1071
       15
  0
LINE
  8
0
 62
     0
  5
2E
 10
0.0
 20
2.0
 30
4.0
 11
0.0
 21
0.0
 31
4.0
1001
AME_SOL
1070
     1
1071
       14
  0
LINE
  8
0
 62
     0
  5
2F
 10
0.0
 20
0.0
 30
0.0
 11
0.0
 21
0.0
 31
4.0
1001
AME_SOL
1070
     1
1071
       13
  0
LINE
  8
0
 62
     0
  5
30
 10
1.0
 20
0.0
 30
4.0
 11
1.0
 21
0.0
 31
0.0
1001
AME_SOL
1070
     1
1071
       12
  0
LINE
  8
0
 62
     0
  5
31
 10
0.0
 20
0.0
 30
4.0
 11
1.0
 21
0.0
 31
4.0
1001
AME_SOL
1070
     1
1071
       11
  0
LINE
  8
0
 62
     0
  5
32
 10
0.0
 20
0.0
 30
0.0
 11
1.0
 21
0.0
 31
0.0
1001
AME_SOL
1070
     1
1071
       10
  0
LINE
  8
0
 62
     0
  5
33
 10
0.0
 20
2.0
 30
0.0
 11
0.0
 21
0.0
 31
0.0
1001
AME_SOL
1070
     1
1071
        9
  0
LINE
  8
0
 62
     0
  5
34
 10
1.0
 20
0.0
 30
0.0
 11
1.0
 21
2.0
 31
0.0
1001
AME_SOL
1070
     1
1071
        8
  0
LINE
  8
0
 62
     0
  5
35
 10
1.0
 20
2.0
 30
0.0
 11
0.0
 21
2.0
 31
0.0
1001
AME_SOL
1070
     1
1071
        7
  0
ENDBLK
  8
0
  5
36
  0
BLOCK
  8
0
  5
3A
  2
*U4
 70
    65
 10
0.0
 20
0.0
 30
0.0
  1
*U
  3
*U
  0
LINE
  8
0
 62
     0
  5
3B
 10
3.0
 20
1.0
 30
0.0
 11
3.0
 21
1.0
 31
4.0
1001
AME_SOL
1070
     1
1071
       18
  0
LINE
  8
0
 62
     0
  5
3C
 10
3.0
 20
1.0
 30
4.0
 11
3.0
 21
0.0
 31
4.0
1001
AME_SOL
1070
     1
1071
       17
  0
LINE
  8
0
 62
     0
  5
3D
 10
0.0
 20
1.0
 30
4.0
 11
3.0
 21
1.0
 31
4.0
1001
AME_SOL
1070
     1
1071
       16
  0
LINE
  8
0
 62
     0
  5
3E
 10
0.0
 20
1.0
 30
0.0
 11
0.0
 21
1.0
 31
4.0
1001
AME_SOL
1070
     1
1071
       15
  0
LINE
  8
0
 62
     0
  5
3F
 10
0.0
 20
1.0
 30
4.0
 11
0.0
 21
0.0
 31
4.0
1001
AME_SOL
1070
     1
1071
       14
  0
LINE
  8
0
 62
     0
  5
40
 10
0.0
 20
0.0
 30
0.0
 11
0.0
 21
0.0
 31
4.0
1001
AME_SOL
1070
     1
1071
       13
  0
LINE
  8
0
 62
     0
  5
41
 10
3.0
 20
0.0
 30
4.0
 11
3.0
 21
0.0
 31
0.0
1001
AME_SOL
1070
     1
1071
       12
  0
LINE
  8
0
 62
     0
  5
42
 10
0.0
 20
0.0
 30
4.0
 11
3.0
 21
0.0
 31
4.0
1001
AME_SOL
1070
     1
1071
       11
  0
LINE
  8
0
 62
     0
  5
43
 10
0.0
 20
0.0
 30
0.0
 11
3.0
 21
0.0
 31
0.0
1001
AME_SOL
1070
     1
1071
       10
  0
LINE
  8
0
 62
     0
  5
44
 10
0.0
 20
1.0
 30
0.0
 11
0.0
 21
0.0
 31
0.0
1001
AME_SOL
1070
     1
1071
        9
  0
LINE
  8
0
 62
     0
  5
45
 10
3.0
 20
0.0
 30
0.0
 11
3.0
 21
1.0
 31
0.0
1001
AME_SOL
1070
     1
1071
        8
  0
LINE
  8
0
 62
     0
  5
46
 10
3.0
 20
1.0
 30
0.0
 11
0.0
 21
1.0
 31
0.0
1001
AME_SOL
1070
     1
1071
        7
  0
ENDBLK
  8
0
  5
47
  0
BLOCK
  8
0
  5
4D
  2
*U5
 70
    65
 10
0.0
 20
0.0
 30
0.0
  1
*U
  3
*U
  0
LINE
  8
0
 62
     7
  5
4E
 10
4.0
 20
1.0
 30
0.0
 11
4.0
 21
1.0
 31
4.0
1001
AME_SOL
1070
     1
1071
       48
  0
LINE
  8
0
 62
     7
  5
4F
 10
4.0
 20
1.0
 30
4.0
 11
4.0
 21
0.0
 31
4.0
1001
AME_SOL
1070
     1
1071
       47
  0
LINE
  8
0
 62
     7
  5
50
 10
3.0
 20
1.0
 30
4.0
 11
4.0
 21
1.0
 31
4.0
1001
AME_SOL
1070
     1
1071
       46
  0
LINE
  8
0
 62
     7
  5
51
 10
1.0
 20
1.0
 30
4.0
 11
2.0
 21
1.0
 31
4.0
1001
AME_SOL
1070
     1
1071
       45
  0
LINE
  8
0
 62
     7
  5
52
 10
1.0
 20
1.0
 30
0.0
 11
1.0
 21
1.0
 31
4.0
1001
AME_SOL
1070
     1
1071
       44
  0
LINE
  8
0
 62
     7
  5
53
 10
1.0
 20
1.0
 30
4.0
 11
1.0
 21
0.0
 31
4.0
1001
AME_SOL
1070
     1
1071
       43
  0
LINE
  8
0
 62
     7
  5
54
 10
1.0
 20
0.0
 30
0.0
 11
1.0
 21
0.0
 31
4.0
1001
AME_SOL
1070
     1
1071
       42
  0
LINE
  8
0
 62
     7
  5
55
 10
4.0
 20
0.0
 30
4.0
 11
4.0
 21
0.0
 31
0.0
1001
AME_SOL
1070
     1
1071
       41
  0
LINE
  8
0
 62
     7
  5
56
 10
1.0
 20
0.0
 30
4.0
 11
4.0
 21
0.0
 31
4.0
1001
AME_SOL
1070
     1
1071
       40
  0
LINE
  8
0
 62
     7
  5
57
 10
1.0
 20
1.0
 30
0.0
 11
1.0
 21
0.0
 31
0.0
1001
AME_SOL
1070
     1
1071
       39
  0
LINE
  8
0
 62
     7
  5
58
 10
4.0
 20
0.0
 30
0.0
 11
4.0
 21
1.0
 31
0.0
1001
AME_SOL
1070
     1
1071
       38
  0
LINE
  8
0
 62
     7
  5
59
 10
2.0
 20
1.0
 30
0.0
 11
1.0
 21
1.0
 31
0.0
1001
AME_SOL
1070
     1
1071
       37
  0
LINE
  8
0
 62
     7
  5
5A
 10
4.0
 20
1.0
 30
0.0
 11
3.0
 21
1.0
 31
0.0
1001
AME_SOL
1070
     1
1071
       36
  0
LINE
  8
0
 62
     7
  5
5B
 10
1.0
 20
0.0
 30
0.0
 11
4.0
 21
0.0
 31
0.0
1001
AME_SOL
1070
     1
1071
       35
  0
LINE
  8
0
 62
     7
  5
5C
 10
3.0
 20
3.0
 30
0.0
 11
3.0
 21
1.0
 31
0.0
1001
AME_SOL
1070
     1
1071
       34
  0
LINE
  8
0
 62
     7
  5
5D
 10
3.0
 20
1.0
 30
4.0
 11
3.0
 21
1.0
 31
0.0
1001
AME_SOL
1070
     1
1071
       33
  0
LINE
  8
0
 62
     7
  5
5E
 10
3.0
 20
1.0
 30
4.0
 11
3.0
 21
3.0
 31
4.0
1001
AME_SOL
1070
     1
1071
       32
  0
LINE
  8
0
 62
     7
  5
5F
 10
2.0
 20
1.0
 30
0.0
 11
2.0
 21
3.0
 31
0.0
1001
AME_SOL
1070
     1
1071
       31
  0
LINE
  8
0
 62
     7
  5
60
 10
2.0
 20
1.0
 30
0.0
 11
2.0
 21
1.0
 31
4.0
1001
AME_SOL
1070
     1
1071
       30
  0
LINE
  8
0
 62
     7
  5
61
 10
2.0
 20
3.0
 30
4.0
 11
2.0
 21
1.0
 31
4.0
1001
AME_SOL
1070
     1
1071
       29
  0
LINE
  8
0
 62
     7
  5
62
 10
5.0
 20
4.0
 30
0.0
 11
5.0
 21
3.0
 31
0.0
1001
AME_SOL
1070
     1
1071
       28
  0
LINE
  8
0
 62
     7
  5
63
 10
5.0
 20
3.0
 30
4.0
 11
5.0
 21
4.0
 31
4.0
1001
AME_SOL
1070
     1
1071
       27
  0
LINE
  8
0
 62
     7
  5
64
 10
0.0
 20
4.0
 30
0.0
 11
5.0
 21
4.0
 31
0.0
1001
AME_SOL
1070
     1
1071
       26
  0
LINE
  8
0
 62
     7
  5
65
 10
5.0
 20
4.0
 30
0.0
 11
5.0
 21
4.0
 31
4.0
1001
AME_SOL
1070
     1
1071
       25
  0
LINE
  8
0
 62
     7
  5
66
 10
5.0
 20
4.0
 30
4.0
 11
0.0
 21
4.0
 31
4.0
1001
AME_SOL
1070
     1
1071
       24
  0
LINE
  8
0
 62
     7
  5
67
 10
0.0
 20
3.0
 30
0.0
 11
0.0
 21
4.0
 31
0.0
1001
AME_SOL
1070
     1
1071
       23
  0
LINE
  8
0
 62
     7
  5
68
 10
0.0
 20
4.0
 30
0.0
 11
0.0
 21
4.0
 31
4.0
1001
AME_SOL
1070
     1
1071
       22
  0
LINE
  8
0
 62
     7
  5
69
 10
0.0
 20
4.0
 30
4.0
 11
0.0
 21
3.0
 31
4.0
1001
AME_SOL
1070
     1
1071
       21
  0
LINE
  8
0
 62
     7
  5
6A
 10
2.0
 20
3.0
 30
0.0
 11
0.0
 21
3.0
 31
0.0
1001
AME_SOL
1070
     1
1071
       20
  0
LINE
  8
0
 62
     7
  5
6B
 10
5.0
 20
3.0
 30
0.0
 11
3.0
 21
3.0
 31
0.0
1001
AME_SOL
1070
     1
1071
       19
  0
LINE
  8
0
 62
     7
  5
6C
 10
2.0
 20
3.0
 30
0.0
 11
2.0
 21
3.0
 31
4.0
1001
AME_SOL
1070
     1
1071
       18
  0
LINE
  8
0
 62
     7
  5
6D
 10
0.0
 20
3.0
 30
0.0
 11
0.0
 21
3.0
 31
4.0
1001
AME_SOL
1070
     1
1071
       17
  0
LINE
  8
0
 62
     7
  5
6E
 10
3.0
 20
3.0
 30
4.0
 11
3.0
 21
3.0
 31
0.0
1001
AME_SOL
1070
     1
1071
       16
  0
LINE
  8
0
 62
     7
  5
6F
 10
5.0
 20
3.0
 30
4.0
 11
5.0
 21
3.0
 31
0.0
1001
AME_SOL
1070
     1
1071
       15
  0
LINE
  8
0
 62
     7
  5
70
 10
3.0
 20
3.0
 30
4.0
 11
5.0
 21
3.0
 31
4.0
1001
AME_SOL
1070
     1
1071
       14
  0
LINE
  8
0
 62
     7
  5
71
 10
0.0
 20
3.0
 30
4.0
 11
2.0
 21
3.0
 31
4.0
1001
AME_SOL
1070
     1
1071
       13
  0
ENDBLK
  8
0
  5
72
  0
BLOCK
  8
0
  5
76
  2
AME_MAT
 70
    64
 10
0.0
 20
0.0
 30
0.0
  1
AME_MAT
  3
AME_MAT
  0
ENDBLK
  8
0
  5
77
  0
ENDSEC
  0
SECTION
  2
ENTITIES
  0
INSERT
  8
AME_FRZ
  5
3
  2
AME_NIL
 10
0.0
 20
0.0
 30
0.0
  0
INSERT
  8
AME_FRZ
  5
6
  2
AME_SOL
 10
0.0
 20
0.0
 30
0.0
1001
AME_SOL
1000
1.0
1000
sq cm
1070
     3
1070
     0
1070
     3
1000
wire
1040
0.0
1000
NONE
1040
1.0
1000
cm
1000
gm
1000
MILD_STEEL
1070
    25
1000
CSG
1070
     3
1070
     2
1070
     3
1000
cu cm
1070
     4
1070
     0
1005
3
  0
INSERT
  8
AME_FRZ
  5
15
  2
*U2
 10
0.0
 20
3.0
 30
0.0
1001
AME_SOL
1002
{
1070
     0
1071
  1987240
1070
  1536
1010
5.0
1020
1.0
1030
4.0
1005
0
1005
0
1005
73
1040
0.0
1040
1.0
1000
MILD_STEEL
1000
0
1010
0.0
1020
3.0
1030
0.0
1010
0.0
1020
0.0
1030
1.0
1040
0.0
1002
}
  0
INSERT
  8
AME_FRZ
  5
37
  2
*U3
 10
2.0
 20
1.0
 30
0.0
1001
AME_SOL
1002
{
1070
     0
1071
  1978848
1070
  1536
1010
1.0
1020
2.0
1030
4.0
1005
0
1005
0
1005
4B
1040
0.0
1040
1.0
1000
MILD_STEEL
1000
0
1010
2.0
1020
1.0
1030
0.0
1010
0.0
1020
0.0
1030
1.0
1040
0.0
1002
}
  0
INSERT
  8
AME_FRZ
  5
48
  2
*U4
 10
1.0
 20
0.0
 30
0.0
1001
AME_SOL
1002
{
1070
     0
1071
  1981280
1070
  1536
1010
3.0
1020
1.0
1030
4.0
1005
0
1005
0
1005
4B
1040
0.0
1040
1.0
1000
MILD_STEEL
1000
0
1010
1.0
1020
0.0
1030
0.0
1010
0.0
1020
0.0
1030
1.0
1040
0.0
1002
}
  0
INSERT
  8
AME_FRZ
  5
4B
  2
AME_NIL
 10
0.0
 20
0.0
 30
0.0
1001
AME_SOL
1002
{
1070
     0
1071
  2022392
1070
   775
1070
     2
1005
48
1005
37
1005
0
1005
0
1005
73
1040
0.0
1040
1.0
1000
MILD_STEEL
1000
0
1010
0.0
1020
0.0
1030
0.0
1010
0.0
1020
0.0
1030
1.0
1040
0.0
1002
}
  0
INSERT
  8
0
  5
73
  2
*U5
 10
0.0
 20
0.0
 30
0.0
1001
AME_SOL
1002
{
1070
     0
1071
  1928520
1070
  1543
1070
     2
1005
4B
1005
15
1005
0
1005
74
1005
0
1040
0.0
1040
1.0
1000
MILD_STEEL
1000
0
1002
}
  0
INSERT
  8
AME_FRZ
  5
74
  2
AME_NIL
 10
1.0
 20
1.0
 30
1.0
1001
AME_SOL
1004
E903A9FB0100F0FFFFFF000052F70C00010000003B624FBA2B2B23BA3B624FBA7B06A0407B0680407B06804001000000FBF208003B624FBA0AF33F403B624FBA7B06A040F70C40407B0680400100844EE05C1C00010000000100CD000000844E00000000803F000000000000000000000000000000000000
1004
803F00000000000040400000000005000000000000000000000000000000000000000000844E000000000000000000000000803F000080BF000000800000008000004040000040400000804005000000000000000000000000000000000001000000FBF204003B624FBA0AF33F403B624FBA3B624F3A7B06
1004
80407B0680400100844EB8CC1E00010000000100CC000000844E000000000000000000000000803F000000000000803F0000000000000000000040400000000005000000000000000000000000000000000000000000844E000000000000000000000000803F000000000000803F00000000000000000000
1004
40400000000005000000000000000000000000000000000001000000FBF204003B624FBA0BF37F403B624FBA7B06A0407B0680407B0680400100844E10D41E00010000000100CA000000844E00000000008000000080000080BF000080BF00000080000000800000A0400000804000008040050000000000
1004
00000000000000000000000000000000844E00000000008000000080000080BF000080BF00000080000000800000A040000080400000804005000000000000000000000000000000000001000000FBF2040084F99F400AF33F403B624FBA7B06A0407B0680407B0680400100844EA0D41E00010000000100
1004
C9000000844E000000000080000080BF000000800000008000000080000080BF0000A040000080400000804005000000000000000000000000000000000000000000844E000000000080000080BF000000800000008000000080000080BF0000A04000008040000080400500000000000000000000000000
1004
0000000001000000FBF2040000ECFF3F00D87F3F000020BA000A0040000A4040000580400100844EC0D51E0001000000010094010000844E000000000000000000000000803F000000000000803F00000000000000400000803F0000000005000000000000000000000000000000000000000000844E0000
1004
00000000000000000000803F000000000000803F00000000000000400000803F0000000005000000000000000000000000000000000001000000FBF2040000F63F4000D87F3F000020BA000A4040000A4040000580400100844E00D81E0001000000010091010000844E000000000080000080BF00000080
1004
0000008000000080000080BF00004040000040400000804005000000000000000000000000000000000000000000844E000000000080000080BF000000800000008000000080000080BF00004040000040400000804005000000000000000000000000000000000001000000FBF20C003B624FBA0AF33F40
1004
3B624FBA7B06A0407B0680403B624F3A0100844EB0D91E00010000000300CE000000844E0000000000000000803F000000000000803F00000000000000000000000000004040000000000500000000000000000000000000000000000000000096010000844E0000000000000000803F000000000000803F
1004
0000000000000000000000400000803F0000000005000000000000000000000000000000000000000000FA010000844E0000000000000000803F000000000000803F00000000000000000000803F000000000000000005000000000000000000000000000000000000000000844E0000000000000000803F
1004
000000000000803F00000000000000000000803F000000000000000005000000000000000000000000000000000001000000FBF2040036D77F3F2B2B23BA2B2B23BA1A0580402B2B233A1A0580400100844E90D81E00010000000100F9010000844E00000000803F00000000000000000000000000000000
1004
0000803F0000803F000000000000000005000000000000000000000000000000000000000000844E00000000803F000000000000000000000000000000000000803F0000803F000000000000000005000000000000000000000000000000000001000000FBF2040036D77F3F2B2B23BA2B2B23BA6514803F
1004
6514803F1A0580400100844E18DF1E00010000000100F8010000844E000000000000000000000000803F000000000000803F000000000000803F000000000000000005000000000000000000000000000000000000000000844E000000000000000000000000803F000000000000803F000000000000803F
1004
000000000000000005000000000000000000000000000000000001000000FBF20C003B624FBA0AF33F4009F37F407B06A0407B0680407B0680400100844E40DA1E00010000000300CB000000844E0000000080BF000000800000008000000080000080BF000000800000A040000080400000804005000000
1004
00000000000000000000000000000000000093010000844E0000000080BF000000800000008000000080000080BF0000008000004040000040400000804005000000000000000000000000000000000000000000F7010000844E0000000080BF000000800000008000000080000080BF0000008000008040
1004
0000803F0000804005000000000000000000000000000000000000000000844E0000000080BF000000800000008000000080000080BF00000080000080400000803F0000804005000000000000000000000000000000000001000000FBF2080036D77F3F36D77F3F2B2B23BA1A0580406514803F1A058040
1004
0100844E68CE1E00010000000100F6010000844E00000000008000000080000080BF000080BF0000008000000080000080400000803F0000804005000000000000000000000000000000000000000000844E00000000008000000080000080BF000080BF0000008000000080000080400000803F00008040
1004
05000000000000000000000000000000000001000000FBF20400CDF57F402B2B23BA2B2B23BA1A0580406514803F1A0580400100844ED8CD1E00010000000100F5010000844E000000000080000080BF000000800000008000000080000080BF000080400000803F00008040050000000000000000000000
1004
00000000000000000000844E000000000080000080BF000000800000008000000080000080BF000080400000803F0000804005000000000000000000000000000000000001000000A4EE3B624FBA0AF33F4009F37F407B06A040F70C40407B068040010060C00200C0BF0200967520EB1E000000FFFF0100
1004
E05C1C0040DA1E0000000200E05C1C0040DA1E0001000000010000009675000000000000000000000000803F00000000000080BF000000000100604000004040000080400200010060C00200C0BFA4EE3B624FBA0AF33F4009F37F407B06A040F70C40407B068040020000BFFEFFBF3F02009675D0EC1E00
1004
0000FFFF0100E05C1C0040DA1E0000000200E05C1C0040DA1E0001000000010000009675000000000000000000000000803F00000000000080BF000000000100604000004040000080400200020000BFFEFFBF3FA4EE84F99F400AF33F403B624FBA7B06A040F70C40407B06804000000000000080400200
1004
967560ED1E000000FFFF0100E05C1C00A0D41E0000000200E05C1C00A0D41E000100000001000000967500000000803F000000000000000000000000000080BF000000000000A040000040400000804002000000000000008040A4EE00F63F400AF33F40000020BA000A4040000A40400005804000000000
1004
0000804002009675F8E21E0000000100FFFFE05C1C0000D81E000000020000D81E00E05C1C000100000001000000967500000000803F000000000000000000000000000080BF0000000000004040000040400000804002000000000000008040A4EE3B624FBA0AF33F403B624FBA3B624F3AF70C40407B06
1004
8040000000C00000004002009675F0471E000000FFFF0100E05C1C00B8CC1E0000000200E05C1C00B8CC1E00010000000100000096750000000080BF000000000000000000000000000080BF000000000000000000004040000000400200000000C000000040A4EE00ECFF3F0AF33F40000020BA000A0040
1004
000A404000058040000000C00000004002009675A8331E0000000100FFFFE05C1C00C0D51E0000000200C0D51E00E05C1C00010000000100000096750000000080BF000000000000000000000000000080BF000000000000004000004040000000400200000000C000000040A4EE3B624FBA0AF33F403B62
1004
4FBA7B06A040F70C40403B624F3AFFFF3FC0FFFF7FBF02009675884F1E000000FFFF0100E05C1C00B0D91E0000000200E05C1C00B0D91E000100000001000000967500000000000000000000000080BF00000000000080BF000000000100004000004040000000000200FFFF3FC0FFFF7FBFA4EE3B624FBA
1004
0AF33F403B624FBA7B06A040F70C40403B624F3A00002034010000400200967530641E000000FFFF0100E05C1C00B0D91E0000000200E05C1C00B0D91E000100000001000000967500000000000000000000000080BF00000000000080BF0000000001000040000040400000000002000000203401000040
1004
A4EE3B624FBA0AF33F4009F37F403B624F3A7B0680407B068040FFFFFFBFFFFF7FBF02009675B06E1E000000FFFF0100B8CC1E0040DA1E0000000200B8CC1E0040DA1E0001000000010000009675000000000000000000000000803F000080BF00000000000000000000000001000040000080400200FFFF
1004
FFBFFFFF7FBFA4EE3B624FBA0BF37F403B624FBA3B624F3A7B0680407B068040000000C0000000400200967558741E000000FFFF0100B8CC1E0010D41E0000000200B8CC1E0010D41E00010000000100000096750000000000000000803F00000000000080BF000000000000000000000000000080400000
1004
00400200000000C000000040A4EE3B624FBA0AF33F403B624FBA3B624F3A7B0680403B624F3A0000C03F000020400200967568861E000000FFFF0100B8CC1E00B0D91E0000000200B8CC1E00B0D91E000100000001000000967500000000000000000000000080BF000080BF000000000000000000000000
1004
0000C03F0000000002000000C03F00002040A4EE3B624FBA0BF37F4009F37F407B06A0407B0680407B068040020000BF000090400200967518721E000000FFFF010010D41E0040DA1E000000020010D41E0040DA1E0001000000010000009675000000000000000000000000803F000000000000803F0000
1004
00800000904000008040000080400200020000BF00009040A4EE84F99F400BF37F403B624FBA7B06A0407B0680407B068040000080C00000008002009675409A1E000000FFFF010010D41E00A0D41E000000020010D41E00A0D41E000100000001000000967500000000803F000000000000000000000000
1004
0000803F000000000000A04000008040000080400200000080C000000080A4EE3B624FBA0BF37F403B624FBA7B06A0407B0680403B624F3A000040C0FFFFFF3F02009675D89D1E000000FFFF010010D41E00B0D91E000000020010D41E00B0D91E0001000000010000009675000000000000000000000000
1004
80BF000000000000803F000000000000404000008040000000000200000040C0FFFFFF3FA4EE84F99F400AF33F4009F37F407B06A0407B0680407B0680400200003F0000C03F0200967578A91E000000FFFF0100A0D41E0040DA1E0000000200A0D41E0040DA1E0001000000010000009675000000000000
1004
000000000000803F0000803F00000000000000000000A040000020400000804002000200003F0000C03FA4EE84F99F400AF33F403B624FBA7B06A0407B0680403B624F3A000000C0010080BF02009675C0A91E000000FFFF0100A0D41E00B0D91E0000000200A0D41E00B0D91E0001000000010000009675
1004
00000000000000000000000080BF0000803F00000000000000000000A04000000040000000000200000000C0010080BFA4EE00ECFF3F00D87F3F09F37F40000A0040000A404000058040010000C00000000002009675209E1E000000FFFF0100C0D51E0040DA1E0000000200C0D51E0040DA1E0001000000
1004
010000009675000000000000000000000000803F000080BF0000000000000000000000400000803F000080400200010000C000000000A4EE00ECFF3F00D87F3F000020BA000A00406514803F00058040000000C00000004002009675E8B01E0000000100FFFFC0D51E0068CE1E000000020068CE1E00C0D5
1004
1E00010000000100000096750000000000000000803F00000000000080BF0000000000000000000000400000803F000000400200000000C000000040A4EE00ECFF3F00D87F3F000020BA000A0040000A40403B624F3A0000003F0000204002009675B8B41E000000FFFF0100C0D51E00B0D91E0000000200
1004
C0D51E00B0D91E000100000001000000967500000000000000000000000080BF000080BF0000000000000000000000400000003F0000000002000000003F00002040A4EE00F63F4000D87F3F09F37F40000A4040000A404000058040000080BF0100803F0200967598BC1E000000FFFF010000D81E0040DA
1004
1E000000020000D81E0040DA1E0001000000010000009675000000000000000000000000803F0000803F00000000000000000000404000000040000080400200000080BF0100803FA4EE00F63F4000D87F3F000020BA000A40406514803F0005804000000000000080400200967580981E0000000100FFFF
1004
00D81E0068CE1E000000020068CE1E0000D81E00010000000100000096750000000000000000803F000000000000803F0000008000000000000040400000803F0000804002000000000000008040A4EE00F63F4000D87F3F000020BA000A4040000A40403B624F3A0000C0BF0100003F0200967558C31E00
1004
0000FFFF010000D81E00B0D91E000000020000D81E00B0D91E000100000001000000967500000000000000000000000080BF0000803F0000000000000000000040400000C03F0000000002000000C0BF0100003FA4EE36D77F3F2B2B23BA2B2B23BA1A0580402B2B233A2B2B233A00000000000040400200
1004
967548C41E000000FFFF0100B0D91E0090D81E0000000200B0D91E0090D81E0001000000010000009675000000000000000080BF000000000000000000000000000080BF0000803F000000000000000002000000000000004040A4EE36D77F3F36D77F3F2B2B23BA1A0580406514803F2B2B233A0000C0BF
1004
020000BF0200967538C51E000000FFFF0100B0D91E0068CE1E0000000200B0D91E0068CE1E00010000000100000096750000000000000000803F000000000000000000000000000080BF000020400000803F0000000002000000C0BF020000BFA4EE36D77F3F36D77F3F2B2B23BA1A0580406514803F2B2B
1004
233AFFFFFF3E0000C03F0200967528C61E000000FFFF0100B0D91E0068CE1E0000000200B0D91E0068CE1E00010000000100000096750000000000000000803F000000000000000000000000000080BF000020400000803F000000000200FFFFFF3E0000C03FA4EECDF57F402B2B23BA2B2B23BA1A058040
1004
6514803F2B2B233A000000BF0000003F0200967518C71E000000FFFF0100B0D91E00D8CD1E0000000200B0D91E00D8CD1E000100000001000000967500000000803F00000000000000000000000000000000000080BF000080400000003F000000000200000000BF0000003FA4EE36D77F3F2B2B23BA2B2B
1004
23BA6514803F6514803F2B2B233A000080BF000000800200967518FD1D000000FFFF0100B0D91E0018DF1E0000000200B0D91E0018DF1E00010000000100000096750000000080BF00000000000000000000000000000000000080BF0000803F00000000000000000200000080BF00000080A4EE36D77F3F
1004
2B2B23BACDF57F401A0580402B2B233A1A0580400000C0BF0000C03F0200967508FE1D000000FFFF010090D81E0040DA1E000000020090D81E0040DA1E0001000000010000009675000000000000000000000000803F00000000000080BF0000000000002040000000000000804002000000C0BF0000C03F
1004
A4EECDF57F402B2B23BA2B2B23BA1A0580402B2B233A1A058040000000C00000004002009675F8FE1D000000FFFF010090D81E00D8CD1E000000020090D81E00D8CD1E000100000001000000967500000000803F000000000000000000000000000080BF0000000000008040000000000000004002000000
1004
00C000000040A4EE36D77F3F2B2B23BA2B2B23BA6514803F2B2B233A1A058040000000000000804002009675E8FF1D000000FFFF010090D81E0018DF1E000000020090D81E0018DF1E00010000000100000096750000000080BF000000000000000000000000000080BF000000000000803F000000000000
1004
000002000000000000008040A4EE36D77F3F2B2B23BACDF57F406514803F6514803F1A058040000000BF0000003F02009675D8001E000000FFFF010018DF1E0040DA1E000000020018DF1E0040DA1E0001000000010000009675000000000000000000000000803F000080BF0000000000000000FFFF7F3F
1004
0000003F000080400200000000BF0000003FA4EE36D77F3F36D77F3F2B2B23BA6514803F6514803F1A058040000000C00000004002009675C8011E000000FFFF010018DF1E0068CE1E000000020018DF1E0068CE1E00010000000100000096750000000000000000803F00000000000080BF000000000000
1004
00000000803F0000803F000000400200000000C000000040A4EE36D77F3F36D77F3FCDF57F401A0580406514803F1A058040000040C0000000C002009675B8021E000000FFFF010040DA1E0068CE1E000000020040DA1E0068CE1E00010000000100000096750000000000000000803F0000000000000000
1004
000000000000803F000080400000803F000080400200000040C0000000C0A4EE36D77F3F36D77F3FCDF57F401A0580406514803F1A058040FFFF7FBF0000008002009675A8031E000000FFFF010040DA1E0068CE1E000000020040DA1E0068CE1E00010000000100000096750000000000000000803F0000
1004
000000000000000000000000803F000080400000803F000080400200FFFF7FBF00000080A4EECDF57F402B2B23BACDF57F401A0580406514803F1A058040000000000000803F0200967598041E000000FFFF010040DA1E00D8CD1E000000020040DA1E00D8CD1E000100000001000000967500000000803F
1004
000000000000000000000080000000000000803F000080400000803F000080400200000000000000803FA4EECDF57F4036D77F3F2B2B23BA1A0580406514803F1A058040000080C0000000800200967588051E000000FFFF010068CE1E00D8CD1E000000020068CE1E00D8CD1E0001000000010000009675
1004
00000000803F0000000000000000000000000000803F00000000000080400000803F000080400200000080C00000008019FC
1005
75
  0
INSERT
  8
AME_FRZ
  5
75
  2
AME_NIL
 10
1.0
 20
1.0
 30
1.0
1001
AME_SOL
1004

1005
0
  0
INSERT
  8
AME_FRZ
  5
78
  2
AME_MAT
 10
0.0
 20
0.0
 30
0.0
1001
AME_SOL
1000
MILD_STEEL
1040
7860.0
1040
220.0
1040
0.275
1040
207.0
1040
345.0
1040
56.0
1040
12.0
1040
0.46
  0
ENDSEC
  0
EOF
