600 0 1 0           
81 GICL ACIS Healer - Source: /gicl/data5/repository/Heriot_Watt/ex19/ex19.sat - 6 0 18 ACIS 6.0.3 Solaris 24 Sat Apr 13 23:38:55 2002 
1 9.999999999999999547e-07 1.000000000000000036e-10 
body $-1 $1 $-1 $-1 #
lump $-1 $-1 $2 $0 #
shell $-1 $-1 $-1 $3 $-1 $1 #
face $-1 $4 $5 $2 $-1 $6 reversed single #
face $-1 $7 $8 $2 $-1 $9 reversed single #
loop $-1 $10 $11 $3 #
cone-surface $-1 -40 0 0 0 0 1 10 0 0 1 I I 0 1 10 forward I I I I #
face $-1 $12 $13 $2 $-1 $14 forward single #
loop $-1 $15 $16 $4 #
cone-surface $-1 40 0 0 0 0 1 10 0 0 1 I I 0 1 10 forward I I I I #
loop $-1 $-1 $17 $3 #
coedge $-1 $18 $19 $20 $21 reversed $5 $-1 #
face $-1 $22 $23 $2 $-1 $24 reversed single #
loop $-1 $-1 $25 $7 #
plane-surface $-1 0 0 0 0 0 1 1 0 0 forward_v I I I I #
loop $-1 $-1 $26 $4 #
coedge $-1 $27 $28 $29 $30 forward $8 $-1 #
coedge $-1 $17 $17 $31 $32 reversed $10 $-1 #
coedge $-1 $33 $11 $34 $35 reversed $5 $-1 #
coedge $-1 $11 $33 $25 $36 reversed $5 $-1 #
coedge $-1 $37 $38 $11 $21 forward $39 $-1 #
edge $-1 $40 -10 $41 10 $20 $42 forward 7 unknown #
face $-1 $43 $44 $2 $-1 $45 forward single #
loop $-1 $-1 $46 $12 #
plane-surface $-1 0 30 0 0 1 0 0 0 1 forward_v I I I I #
coedge $-1 $47 $48 $19 $36 forward $13 $-1 #
coedge $-1 $26 $26 $49 $50 reversed $15 $-1 #
coedge $-1 $51 $16 $52 $53 reversed $8 $-1 #
coedge $-1 $16 $51 $54 $55 reversed $8 $-1 #
coedge $-1 $56 $57 $16 $30 reversed $58 $-1 #
edge $-1 $59 -10 $60 10 $29 $61 reversed 7 unknown #
coedge $-1 $31 $31 $17 $32 forward $62 $-1 #
edge $-1 $63 0 $63 6.283185307179586232 $31 $64 forward 7 unknown #
coedge $-1 $19 $18 $65 $66 reversed $5 $-1 #
coedge $-1 $67 $68 $18 $35 forward $69 $-1 #
edge $-1 $70 1.570796326794896558 $40 4.712388980384689674 $34 $71 forward 7 unknown #
edge $-1 $41 -1.570796326794896558 $72 1.570796326794896558 $25 $73 forward 7 unknown #
coedge $-1 $74 $20 $48 $75 forward $39 $-1 #
coedge $-1 $20 $76 $67 $77 reversed $39 $-1 #
loop $-1 $-1 $78 $79 #
vertex $-1 $35 $80 #
vertex $-1 $75 $81 #
straight-curve $-1 -40 10 10 0 0 -1 I I #
face $-1 $82 $83 $2 $-1 $84 forward single #
loop $-1 $-1 $85 $22 #
plane-surface $-1 0 0 10 0 0 1 1 0 0 forward_v I I I I #
coedge $-1 $86 $87 $88 $89 reversed $23 $-1 #
coedge $-1 $54 $25 $56 $90 reversed $13 $-1 #
coedge $-1 $25 $54 $37 $75 reversed $13 $-1 #
coedge $-1 $49 $49 $26 $50 forward $91 $-1 #
edge $-1 $92 0 $92 6.283185307179586232 $49 $93 forward 7 unknown #
coedge $-1 $28 $27 $74 $94 reversed $8 $-1 #
coedge $-1 $95 $96 $27 $53 forward $69 $-1 #
edge $-1 $97 -1.570796326794896558 $60 1.570796326794896558 $52 $98 forward 7 unknown #
coedge $-1 $48 $47 $28 $55 forward $13 $-1 #
edge $-1 $59 1.570796326794896558 $99 4.712388980384689674 $54 $100 forward 7 unknown #
coedge $-1 $65 $29 $47 $90 forward $58 $-1 #
coedge $-1 $29 $101 $95 $102 reversed $58 $-1 #
loop $-1 $-1 $101 $103 #
vertex $-1 $30 $104 #
vertex $-1 $102 $105 #
straight-curve $-1 40 -10 10 0 0 -1 I I #
loop $-1 $91 $31 $106 #
vertex $-1 $32 $107 #
ellipse-curve $-1 -40 0 -20 0 0 1 10 0 0 1 I I #
coedge $-1 $108 $56 $33 $66 forward $58 $-1 #
edge $-1 $72 -10 $70 10 $65 $109 reversed 7 unknown #
coedge $-1 $110 $34 $38 $77 forward $69 $-1 #
coedge $-1 $34 $111 $108 $112 forward $69 $-1 #
loop $-1 $113 $34 $82 #
vertex $-1 $112 $114 #
ellipse-curve $-1 -40 0 20 0 0 -1 10 0 0 1 I I #
vertex $-1 $36 $115 #
ellipse-curve $-1 -40 0 0 0 0 -1 10 0 0 1 I I #
coedge $-1 $116 $37 $51 $94 forward $39 $-1 #
edge $-1 $41 -40 $99 40 $37 $117 forward 7 unknown #
coedge $-1 $38 $118 $119 $120 reversed $39 $-1 #
edge $-1 $40 -40 $121 -30 $67 $122 forward 7 unknown #
coedge $-1 $118 $116 $123 $124 reversed $39 $-1 #
face $-1 $125 $39 $2 $-1 $126 forward single #
point $-1 -40 10 20 #
point $-1 -40 10 0 #
face $-1 $127 $69 $2 $-1 $128 forward single #
loop $-1 $-1 $129 $43 #
plane-surface $-1 -30 0 15 1 0 0 0 0 -1 forward_v I I I I #
coedge $-1 $130 $131 $87 $132 forward $44 $-1 #
coedge $-1 $133 $46 $134 $135 reversed $23 $-1 #
coedge $-1 $46 $133 $85 $132 reversed $23 $-1 #
coedge $-1 $136 $137 $46 $89 forward $138 $-1 #
edge $-1 $139 -12.5 $140 -2.5 $88 $141 forward 7 unknown #
edge $-1 $59 -40 $72 40 $56 $142 forward 7 unknown #
loop $-1 $143 $49 $106 #
vertex $-1 $50 $144 #
ellipse-curve $-1 40 0 -20 0 0 1 10 0 0 1 I I #
edge $-1 $99 -10 $97 10 $74 $145 reversed 7 unknown #
coedge $-1 $146 $52 $57 $102 forward $69 $-1 #
coedge $-1 $52 $147 $116 $148 forward $69 $-1 #
vertex $-1 $148 $149 #
ellipse-curve $-1 40 0 20 0 0 -1 10 0 0 1 I I #
vertex $-1 $55 $150 #
ellipse-curve $-1 40 0 0 0 0 -1 10 0 0 1 I I #
coedge $-1 $57 $151 $152 $153 reversed $58 $-1 #
edge $-1 $60 -40 $154 -30 $95 $155 forward 7 unknown #
face $-1 $79 $58 $2 $-1 $156 forward single #
point $-1 40 -10 0 #
point $-1 40 -10 20 #
face $-1 $157 $62 $2 $-1 $158 reversed single #
point $-1 -30 0 -20 #
coedge $-1 $159 $65 $68 $112 reversed $58 $-1 #
straight-curve $-1 -40 -10 10 0 0 -1 I I #
coedge $-1 $134 $67 $160 $161 forward $69 $-1 #
coedge $-1 $68 $162 $163 $164 forward $69 $-1 #
edge $-1 $165 30 $70 40 $68 $155 forward 7 unknown #
loop $-1 $-1 $166 $82 #
point $-1 -40 -10 20 #
point $-1 -40 -10 0 #
coedge $-1 $78 $74 $96 $148 reversed $39 $-1 #
straight-curve $-1 0 10 0 1 0 0 I I #
coedge $-1 $76 $78 $167 $168 reversed $39 $-1 #
coedge $-1 $169 $160 $76 $120 forward $83 $-1 #
edge $-1 $121 -5 $170 5 $119 $171 forward 7 unknown #
vertex $-1 $120 $172 #
straight-curve $-1 0 10 20 1 0 0 I I #
coedge $-1 $137 $136 $78 $124 forward $138 $-1 #
edge $-1 $173 -5 $174 5 $123 $175 forward 7 unknown #
face $-1 $176 $177 $2 $-1 $45 forward single #
plane-surface $-1 0 10 10 0 -1 0 0 0 -1 forward_v I I I I #
face $-1 $106 $178 $2 $-1 $179 reversed single #
plane-surface $-1 0 0 20 0 0 1 1 0 0 forward_v I I I I #
coedge $-1 $160 $169 $133 $180 forward $83 $-1 #
coedge $-1 $167 $85 $169 $181 reversed $44 $-1 #
coedge $-1 $85 $167 $136 $182 reversed $44 $-1 #
edge $-1 $140 -30 $183 30 $85 $184 forward 7 unknown #
coedge $-1 $87 $86 $129 $180 reversed $23 $-1 #
coedge $-1 $147 $110 $86 $135 forward $69 $-1 #
edge $-1 $185 -30 $139 30 $86 $186 forward 7 unknown #
coedge $-1 $123 $88 $131 $182 forward $138 $-1 #
coedge $-1 $88 $123 $147 $187 reversed $138 $-1 #
loop $-1 $-1 $88 $176 #
vertex $-1 $187 $188 #
vertex $-1 $89 $189 #
straight-curve $-1 30 30 7.5 0 0 -1 I I #
straight-curve $-1 0 -10 0 -1 0 0 I I #
loop $-1 $-1 $190 $106 #
point $-1 50 0 -20 #
straight-curve $-1 40 10 10 0 0 -1 I I #
coedge $-1 $162 $95 $191 $192 forward $69 $-1 #
coedge $-1 $96 $134 $137 $187 forward $69 $-1 #
edge $-1 $174 30 $97 40 $96 $122 forward 7 unknown #
point $-1 40 10 20 #
point $-1 40 10 0 #
coedge $-1 $101 $159 $193 $194 reversed $58 $-1 #
coedge $-1 $195 $191 $101 $153 forward $196 $-1 #
edge $-1 $154 -5 $197 5 $152 $198 forward 7 unknown #
vertex $-1 $153 $199 #
straight-curve $-1 0 -10 20 -1 0 0 I I #
plane-surface $-1 0 -10 10 0 1 0 0 0 1 forward_v I I I I #
face $-1 $103 $200 $2 $-1 $84 forward single #
plane-surface $-1 0 0 -20 0 0 1 1 0 0 forward_v I I I I #
coedge $-1 $151 $108 $201 $202 reversed $58 $-1 #
coedge $-1 $119 $129 $110 $161 reversed $83 $-1 #
edge $-1 $121 10 $185 30 $110 $203 forward 7 unknown #
coedge $-1 $111 $146 $204 $205 forward $69 $-1 #
coedge $-1 $206 $201 $111 $164 reversed $200 $-1 #
edge $-1 $207 -30 $165 -10 $111 $203 forward 7 unknown #
vertex $-1 $164 $208 #
coedge $-1 $209 $210 $211 $212 forward $113 $-1 #
coedge $-1 $131 $130 $118 $168 forward $44 $-1 #
edge $-1 $170 -30 $173 30 $167 $213 forward 7 unknown #
coedge $-1 $129 $119 $130 $181 forward $83 $-1 #
vertex $-1 $120 $214 #
straight-curve $-1 -30 10 15 0 0 -1 I I #
point $-1 -30 10 20 #
vertex $-1 $182 $215 #
vertex $-1 $187 $216 #
straight-curve $-1 30 10 15 0 0 1 I I #
face $-1 $217 $138 $2 $-1 $218 forward single #
loop $-1 $-1 $219 $125 #
loop $-1 $-1 $220 $127 #
plane-surface $-1 0 -30 0 0 -1 0 0 0 -1 forward_v I I I I #
edge $-1 $183 2.5 $185 12.5 $129 $221 forward 7 unknown #
edge $-1 $170 10 $183 30 $169 $222 forward 7 unknown #
edge $-1 $140 -30 $173 -10 $136 $223 forward 7 unknown #
vertex $-1 $181 $224 #
straight-curve $-1 0 30 10 -1 0 0 I I #
vertex $-1 $161 $225 #
straight-curve $-1 0 30 20 1 0 0 I I #
edge $-1 $139 -30 $174 -10 $147 $226 forward 7 unknown #
point $-1 30 30 20 #
point $-1 30 30 10 #
coedge $-1 $227 $228 $229 $230 forward $143 $-1 #
coedge $-1 $152 $231 $146 $192 reversed $196 $-1 #
edge $-1 $154 10 $232 30 $146 $226 forward 7 unknown #
coedge $-1 $233 $234 $151 $194 forward $177 $-1 #
edge $-1 $197 -30 $235 30 $193 $236 forward 7 unknown #
coedge $-1 $231 $152 $234 $237 forward $196 $-1 #
loop $-1 $-1 $231 $217 #
vertex $-1 $153 $238 #
straight-curve $-1 30 -10 15 0 0 -1 I I #
point $-1 30 -10 20 #
loop $-1 $-1 $206 $157 #
coedge $-1 $163 $239 $159 $202 forward $200 $-1 #
edge $-1 $235 -5 $165 5 $201 $240 forward 7 unknown #
straight-curve $-1 -30 0 20 0 1 0 I I #
coedge $-1 $220 $241 $162 $205 reversed $178 $-1 #
edge $-1 $232 -30 $207 30 $204 $242 forward 7 unknown #
coedge $-1 $239 $163 $241 $243 forward $200 $-1 #
vertex $-1 $164 $244 #
point $-1 -30 -10 20 #
coedge $-1 $245 $166 $246 $247 forward $113 $-1 #
coedge $-1 $166 $245 $248 $249 forward $113 $-1 #
coedge $-1 $250 $251 $166 $212 reversed $252 $-1 #
edge $-1 $253 -40 $254 40 $211 $255 forward 7 unknown #
straight-curve $-1 0 10 10 1 0 0 I I #
point $-1 -30 10 10 #
point $-1 30 10 10 #
point $-1 30 10 20 #
face $-1 $256 $196 $2 $-1 $218 forward single #
plane-surface $-1 30 0 15 -1 0 0 0 0 1 forward_v I I I I #
coedge $-1 $234 $233 $257 $258 forward $177 $-1 #
coedge $-1 $257 $204 $231 $259 reversed $178 $-1 #
straight-curve $-1 -30 30 7.5 0 0 1 I I #
straight-curve $-1 -30 0 10 0 1 0 I I #
straight-curve $-1 30 0 10 0 -1 0 I I #
point $-1 -30 30 10 #
point $-1 -30 30 20 #
straight-curve $-1 30 0 20 0 -1 0 I I #
coedge $-1 $260 $190 $261 $262 forward $143 $-1 #
coedge $-1 $190 $260 $263 $264 forward $143 $-1 #
coedge $-1 $265 $266 $190 $230 reversed $267 $-1 #
edge $-1 $268 -1.570796326794896558 $269 1.570796326794896558 $190 $270 forward 7 unknown #
coedge $-1 $191 $195 $220 $259 forward $196 $-1 #
vertex $-1 $192 $271 #
coedge $-1 $219 $193 $239 $272 reversed $177 $-1 #
coedge $-1 $193 $219 $195 $237 reversed $177 $-1 #
vertex $-1 $272 $273 #
straight-curve $-1 0 -10 10 -1 0 0 I I #
edge $-1 $197 10 $274 30 $195 $223 forward 7 unknown #
point $-1 30 -10 10 #
coedge $-1 $201 $206 $233 $272 forward $200 $-1 #
straight-curve $-1 -30 -10 15 0 0 1 I I #
coedge $-1 $204 $257 $206 $243 reversed $178 $-1 #
straight-curve $-1 0 -30 20 -1 0 0 I I #
edge $-1 $207 -12.5 $275 -2.5 $206 $276 forward 7 unknown #
point $-1 -30 -30 20 #
coedge $-1 $210 $209 $277 $278 forward $113 $-1 #
coedge $-1 $279 $280 $209 $247 reversed $281 $-1 #
edge $-1 $254 1.570796326794896558 $282 4.712388980384689674 $209 $283 forward 7 unknown #
coedge $-1 $266 $265 $210 $249 reversed $267 $-1 #
edge $-1 $284 -1.570796326794896558 $253 1.570796326794896558 $210 $285 forward 7 unknown #
coedge $-1 $263 $211 $265 $286 reversed $252 $-1 #
coedge $-1 $211 $263 $279 $287 reversed $252 $-1 #
loop $-1 $-1 $211 $288 #
vertex $-1 $212 $289 #
vertex $-1 $212 $290 #
straight-curve $-1 0 40 20 -1 0 0 I I #
face $-1 $291 $292 $2 $-1 $293 reversed single #
coedge $-1 $241 $220 $219 $258 reversed $178 $-1 #
edge $-1 $275 -30 $274 30 $219 $294 forward 7 unknown #
edge $-1 $274 2.5 $232 12.5 $231 $295 forward 7 unknown #
coedge $-1 $228 $227 $296 $297 forward $143 $-1 #
coedge $-1 $298 $299 $227 $262 reversed $292 $-1 #
edge $-1 $269 -40 $300 40 $261 $301 forward 7 unknown #
coedge $-1 $251 $250 $228 $264 reversed $252 $-1 #
edge $-1 $302 -40 $268 40 $263 $303 forward 7 unknown #
coedge $-1 $248 $229 $250 $286 forward $267 $-1 #
coedge $-1 $229 $248 $298 $304 reversed $267 $-1 #
loop $-1 $-1 $265 $305 #
vertex $-1 $230 $306 #
vertex $-1 $304 $307 #
ellipse-curve $-1 40 0 -20 0 0 -1 40 0 0 1 I I #
point $-1 30 -30 20 #
edge $-1 $275 -30 $235 -10 $239 $222 forward 7 unknown #
point $-1 -30 -10 10 #
vertex $-1 $237 $308 #
vertex $-1 $258 $309 #
straight-curve $-1 -30 -30 7.5 0 0 -1 I I #
coedge $-1 $299 $298 $245 $278 reversed $292 $-1 #
edge $-1 $282 -40 $284 40 $277 $310 forward 7 unknown #
coedge $-1 $296 $246 $251 $287 forward $281 $-1 #
coedge $-1 $246 $296 $299 $311 forward $281 $-1 #
loop $-1 $-1 $279 $291 #
vertex $-1 $278 $312 #
ellipse-curve $-1 -40 0 20 0 0 1 40 0 0 1 I I #
vertex $-1 $249 $313 #
ellipse-curve $-1 40 0 20 0 0 1 40 0 0 1 I I #
edge $-1 $268 -20 $253 20 $250 $314 reversed 7 unknown #
edge $-1 $254 -20 $302 20 $251 $315 forward 7 unknown #
face $-1 $-1 $252 $2 $-1 $316 reversed single #
point $-1 40 40 20 #
point $-1 -40 40 20 #
face $-1 $305 $281 $2 $-1 $317 forward single #
loop $-1 $-1 $277 $256 #
plane-surface $-1 0 -40 0 0 1 0 0 0 1 forward_v I I I I #
straight-curve $-1 0 -30 10 1 0 0 I I #
straight-curve $-1 30 -30 7.5 0 0 1 I I #
coedge $-1 $280 $279 $260 $297 reversed $281 $-1 #
edge $-1 $300 1.570796326794896558 $302 4.712388980384689674 $260 $318 forward 7 unknown #
coedge $-1 $277 $261 $266 $304 forward $292 $-1 #
coedge $-1 $261 $277 $280 $311 reversed $292 $-1 #
vertex $-1 $297 $319 #
straight-curve $-1 0 -40 -20 -1 0 0 I I #
vertex $-1 $264 $320 #
straight-curve $-1 0 40 -20 1 0 0 I I #
edge $-1 $269 -20 $284 20 $298 $321 reversed 7 unknown #
face $-1 $288 $267 $2 $-1 $322 forward single #
point $-1 40 40 -20 #
point $-1 40 -40 -20 #
point $-1 30 -30 10 #
point $-1 -30 -30 10 #
straight-curve $-1 0 -40 20 1 0 0 I I #
edge $-1 $300 -20 $282 20 $299 $323 reversed 7 unknown #
point $-1 -40 -40 20 #
point $-1 40 -40 20 #
straight-curve $-1 40 40 0 0 0 -1 I I #
straight-curve $-1 -40 40 0 0 0 -1 I I #
plane-surface $-1 0 40 0 0 -1 0 0 0 -1 forward_v I I I I #
cone-surface $-1 -40 0 0 0 0 1 40 0 0 1 I I 0 1 40 forward I I I I #
ellipse-curve $-1 -40 0 -20 0 0 -1 40 0 0 1 I I #
point $-1 -40 -40 -20 #
point $-1 -40 40 -20 #
straight-curve $-1 40 -40 0 0 0 -1 I I #
cone-surface $-1 40 0 0 0 0 1 40 0 0 1 I I 0 1 40 forward I I I I #
straight-curve $-1 -40 -40 0 0 0 -1 I I #
End-of-ACIS-data 