600 0 2 0           
24 FBMach with ACIS - 6.0.3 13 ACIS 6.0.3 NT 24 Wed May 23 20:18:59 2001 
1 9.9999999999999995e-007 1e-010 
body $2 $3 $-1 $4 #
bdycol-kcp $-1 1 5 $5 $6 $7 $8 $9 #
model_id-kcp-attrib $-1 $-1 $-1 $0 1 990663538 60 1648099329 1 #
lump $-1 $-1 $10 $0 #
transform $-1 1 0 0 0 1 0 0 0 1 0 0 0 1 no_rotate no_reflect no_shear #
body $11 $12 $-1 $13 #
body $14 $15 $-1 $16 #
body $17 $18 $-1 $19 #
body $20 $21 $-1 $22 #
body $23 $24 $-1 $25 #
shell $-1 $-1 $-1 $26 $-1 $3 #
model_id-kcp-attrib $-1 $-1 $-1 $5 1 990663538 60 1648099330 1 #
lump $-1 $-1 $27 $5 #
transform $-1 1 0 0 0 1 0 0 0 1 0 0 0 1 no_rotate no_reflect no_shear #
rgb_color-st-attrib $-1 $28 $-1 $6 0.5 1 1 #
lump $-1 $29 $30 $6 #
transform $-1 1 0 0 0 1 0 0 0 1 0 0 0 1 no_rotate no_reflect no_shear #
rgb_color-st-attrib $-1 $31 $-1 $7 1 0 0 #
lump $-1 $-1 $32 $7 #
transform $-1 1 0 0 0 1 0 0 0 1 0 0 0 1 no_rotate no_reflect no_shear #
rgb_color-st-attrib $-1 $33 $-1 $8 1 0 0 #
lump $-1 $-1 $34 $8 #
transform $-1 1 0 0 0 1 0 0 0 1 0 0 0 1 no_rotate no_reflect no_shear #
rgb_color-st-attrib $-1 $35 $-1 $9 1 0 0 #
lump $-1 $-1 $36 $9 #
transform $-1 1 0 0 0 1 0 0 0 1 0 0 0 1 no_rotate no_reflect no_shear #
face $37 $38 $39 $10 $-1 $40 reversed single #
shell $-1 $-1 $-1 $41 $-1 $12 #
model_id-kcp-attrib $-1 $-1 $14 $6 1 990663538 220 1658585091 1 #
lump $-1 $-1 $42 $6 #
shell $-1 $-1 $-1 $43 $-1 $15 #
model_id-kcp-attrib $-1 $-1 $17 $7 1 990663538 520 1644691460 1 #
shell $-1 $-1 $-1 $44 $-1 $18 #
model_id-kcp-attrib $-1 $-1 $20 $8 1 990663538 751 1659830277 1 #
shell $-1 $-1 $-1 $45 $-1 $21 #
model_id-kcp-attrib $-1 $-1 $23 $9 1 990663538 891 1652228102 1 #
shell $-1 $-1 $-1 $46 $-1 $24 #
model_id-kcp-attrib $-1 $-1 $-1 $26 1 990663538 60 1648099329 2 #
face $47 $48 $49 $10 $-1 $50 reversed single #
loop $-1 $51 $52 $26 #
cone-surface $-1 -40 0 0 0 0 1 10 0 0 1 I I 0 1 10 forward I I I I #
face $53 $54 $55 $27 $-1 $56 forward single #
shell $-1 $-1 $-1 $57 $-1 $29 #
face $-1 $58 $59 $30 $-1 $60 reversed single #
face $-1 $61 $62 $32 $-1 $63 forward single #
face $-1 $64 $65 $34 $-1 $66 forward single #
face $-1 $67 $68 $36 $-1 $69 forward single #
model_id-kcp-attrib $-1 $-1 $-1 $38 1 990663538 60 1648099329 3 #
face $70 $71 $72 $10 $-1 $73 forward single #
loop $-1 $74 $75 $38 #
cone-surface $-1 40 0 0 0 0 1 10 0 0 1 I I 0 1 10 forward I I I I #
loop $-1 $-1 $76 $26 #
coedge $-1 $77 $78 $79 $80 reversed $39 $-1 #
model_id-kcp-attrib $-1 $-1 $-1 $41 1 990663538 60 1648099330 2 #
face $81 $82 $83 $27 $-1 $84 reversed single #
loop $-1 $-1 $85 $41 #
plane-surface $-1 0 0 20 0 0 1 1 0 0 forward_v I I I I #
face $-1 $86 $87 $42 $-1 $88 reversed single #
face $-1 $89 $90 $30 $-1 $60 reversed single #
loop $-1 $-1 $91 $43 #
cone-surface $-1 -40 0 20 0 0 1 0 -40 0 1 I I 0 1 40 forward I I I I #
face $-1 $92 $93 $32 $-1 $94 forward single #
loop $-1 $-1 $95 $44 #
plane-surface $-1 40 -10 0 0 -1 0 0 0 -1 forward_v I I I I #
face $-1 $96 $97 $34 $-1 $98 forward single #
loop $-1 $-1 $99 $45 #
plane-surface $-1 -30 -30 10 -1 0 0 0 0 1 forward_v I I I I #
face $-1 $100 $101 $36 $-1 $102 forward single #
loop $-1 $-1 $103 $46 #
plane-surface $-1 30 30 10 1 0 0 0 0 -1 forward_v I I I I #
model_id-kcp-attrib $-1 $-1 $-1 $48 1 990663538 60 1648099329 4 #
face $104 $105 $106 $10 $-1 $107 reversed single #
loop $-1 $-1 $108 $48 #
plane-surface $-1 0 0 0 0 0 1 1 0 0 forward_v I I I I #
loop $-1 $-1 $109 $38 #
coedge $-1 $110 $111 $112 $113 forward $49 $-1 #
coedge $-1 $76 $76 $114 $115 reversed $51 $-1 #
coedge $-1 $116 $52 $117 $118 reversed $39 $-1 #
coedge $-1 $52 $116 $108 $119 reversed $39 $-1 #
coedge $-1 $120 $121 $52 $80 forward $122 $-1 #
edge $123 $124 -10 $125 10 $79 $126 forward 7 unknown #
model_id-kcp-attrib $-1 $-1 $-1 $54 1 990663538 60 1648099330 3 #
face $127 $128 $129 $27 $-1 $130 reversed single #
loop $-1 $-1 $131 $54 #
plane-surface $-1 0 0 -20 0 0 1 1 0 0 forward_v I I I I #
coedge $-1 $132 $133 $134 $135 forward $55 $-1 #
face $-1 $136 $137 $42 $-1 $138 reversed single #
loop $-1 $-1 $139 $57 #
plane-surface $-1 80 0 0 -1 0 0 0 0 1 forward_v I I I I #
face $-1 $140 $141 $30 $-1 $142 reversed single #
loop $-1 $-1 $143 $58 #
coedge $-1 $144 $145 $146 $147 reversed $59 $-1 #
face $-1 $148 $149 $32 $-1 $150 forward single #
loop $-1 $-1 $151 $61 #
plane-surface $-1 -40 10 0 0 1 0 0 0 1 forward_v I I I I #
coedge $-1 $152 $153 $154 $155 forward $62 $-1 #
face $-1 $156 $157 $34 $-1 $158 forward single #
loop $-1 $-1 $159 $64 #
plane-surface $-1 -30 -10 10 0 1 0 0 0 1 forward_v I I I I #
coedge $-1 $160 $161 $162 $163 forward $65 $-1 #
face $-1 $164 $165 $36 $-1 $166 forward single #
loop $-1 $-1 $167 $67 #
plane-surface $-1 30 10 10 0 -1 0 0 0 -1 forward_v I I I I #
coedge $-1 $168 $169 $170 $171 forward $68 $-1 #
model_id-kcp-attrib $-1 $-1 $-1 $71 1 990663538 60 1648099329 5 #
face $172 $173 $174 $10 $-1 $175 forward single #
loop $-1 $-1 $176 $71 #
plane-surface $-1 0 30 0 0 1 0 0 0 1 forward_v I I I I #
coedge $-1 $177 $178 $78 $119 forward $72 $-1 #
coedge $-1 $109 $109 $179 $180 reversed $74 $-1 #
coedge $-1 $181 $75 $182 $183 reversed $49 $-1 #
coedge $-1 $75 $181 $184 $185 reversed $49 $-1 #
coedge $-1 $186 $187 $75 $113 reversed $188 $-1 #
edge $189 $190 -10 $191 10 $112 $192 reversed 7 unknown #
coedge $-1 $114 $114 $76 $115 forward $193 $-1 #
edge $194 $195 0 $195 6.2831853071795862 $114 $196 forward 7 unknown #
coedge $-1 $78 $77 $197 $198 reversed $39 $-1 #
coedge $-1 $199 $200 $77 $118 forward $201 $-1 #
edge $202 $203 1.5707963267948966 $124 4.7123889803846897 $117 $204 forward 7 unknown #
edge $205 $125 -1.5707963267948966 $206 1.5707963267948966 $108 $207 forward 7 unknown #
coedge $-1 $208 $79 $178 $209 forward $122 $-1 #
coedge $-1 $79 $210 $199 $211 reversed $122 $-1 #
loop $-1 $-1 $212 $213 #
attrib_edge_convexity-kcp-attrib $-1 $214 $-1 $80 4 #
vertex $-1 $118 $215 #
vertex $-1 $209 $216 #
straight-curve $-1 -40 10 10 0 0 -1 I I #
model_id-kcp-attrib $-1 $-1 $-1 $82 1 990663538 60 1648099330 4 #
face $-1 $217 $218 $27 $-1 $219 reversed single #
loop $-1 $-1 $220 $82 #
plane-surface $-1 0 -40 0 0 1 0 0 0 1 forward_v I I I I #
coedge $-1 $221 $222 $223 $224 forward $83 $-1 #
coedge $-1 $225 $85 $226 $227 forward $55 $-1 #
coedge $-1 $85 $225 $228 $229 forward $55 $-1 #
coedge $-1 $230 $231 $85 $135 reversed $232 $-1 #
edge $-1 $233 -40 $234 40 $134 $235 forward 7 unknown #
face $-1 $236 $237 $42 $-1 $138 reversed single #
loop $-1 $-1 $238 $86 #
plane-surface $-1 0 0 -20 0 0 1 1 0 0 forward_v I I I I #
coedge $-1 $239 $240 $241 $242 forward $87 $-1 #
face $-1 $243 $244 $30 $-1 $245 reversed single #
loop $-1 $-1 $246 $89 #
plane-surface $-1 -80 0 0 1 0 0 0 0 -1 forward_v I I I I #
coedge $-1 $247 $248 $249 $250 reversed $90 $-1 #
coedge $-1 $251 $91 $252 $253 reversed $59 $-1 #
coedge $-1 $91 $251 $247 $254 forward $59 $-1 #
coedge $-1 $255 $256 $91 $147 forward $257 $-1 #
edge $-1 $258 0 $259 1.5707963267948966 $146 $260 forward 7 unknown #
face $-1 $261 $262 $32 $-1 $263 forward single #
loop $-1 $-1 $264 $92 #
cone-surface $-1 40 0 0 0 0 1 10 0 0 1 I I 0 1 10 forward I I I I #
coedge $-1 $265 $266 $267 $268 forward $93 $-1 #
coedge $-1 $269 $95 $270 $271 reversed $62 $-1 #
coedge $-1 $95 $269 $272 $273 forward $62 $-1 #
coedge $-1 $274 $275 $95 $155 reversed $276 $-1 #
edge $-1 $277 -40 $278 40 $95 $279 forward 7 unknown #
face $-1 $280 $281 $34 $-1 $282 forward single #
loop $-1 $-1 $283 $96 #
plane-surface $-1 30 -10 10 1 0 0 0 0 -1 forward_v I I I I #
coedge $-1 $284 $285 $286 $287 forward $97 $-1 #
coedge $-1 $288 $99 $285 $289 reversed $65 $-1 #
coedge $-1 $99 $288 $290 $291 forward $65 $-1 #
coedge $-1 $292 $286 $99 $163 reversed $293 $-1 #
edge $-1 $294 -20 $295 0 $99 $296 forward 7 unknown #
face $-1 $297 $298 $36 $-1 $299 forward single #
loop $-1 $-1 $300 $100 #
plane-surface $-1 -30 10 10 -1 0 0 0 0 1 forward_v I I I I #
coedge $-1 $301 $302 $303 $304 forward $101 $-1 #
coedge $-1 $305 $103 $302 $306 reversed $68 $-1 #
coedge $-1 $103 $305 $307 $308 forward $68 $-1 #
coedge $-1 $309 $303 $103 $171 reversed $310 $-1 #
edge $-1 $311 -20 $312 0 $103 $313 forward 7 unknown #
model_id-kcp-attrib $-1 $-1 $-1 $105 1 990663538 60 1648099329 6 #
face $314 $315 $316 $10 $-1 $317 forward single #
loop $-1 $-1 $318 $105 #
plane-surface $-1 0 0 10 0 0 1 1 0 0 forward_v I I I I #
coedge $-1 $319 $320 $321 $322 reversed $106 $-1 #
coedge $-1 $184 $108 $186 $323 reversed $72 $-1 #
coedge $-1 $108 $184 $120 $209 reversed $72 $-1 #
coedge $-1 $179 $179 $109 $180 forward $324 $-1 #
edge $325 $326 0 $326 6.2831853071795862 $179 $327 forward 7 unknown #
coedge $-1 $111 $110 $208 $328 reversed $49 $-1 #
coedge $-1 $329 $330 $110 $183 forward $201 $-1 #
edge $331 $332 -1.5707963267948966 $191 1.5707963267948966 $182 $333 forward 7 unknown #
coedge $-1 $178 $177 $111 $185 forward $72 $-1 #
edge $334 $190 1.5707963267948966 $335 4.7123889803846897 $184 $336 forward 7 unknown #
coedge $-1 $197 $112 $177 $323 forward $188 $-1 #
coedge $-1 $112 $337 $329 $338 reversed $188 $-1 #
loop $-1 $-1 $337 $339 #
attrib_edge_convexity-kcp-attrib $-1 $340 $-1 $113 4 #
vertex $-1 $113 $341 #
vertex $-1 $338 $342 #
straight-curve $-1 40 -10 10 0 0 -1 I I #
loop $-1 $324 $114 $343 #
attrib_edge_convexity-kcp-attrib $-1 $344 $-1 $115 1 #
vertex $-1 $115 $345 #
ellipse-curve $-1 -40 0 -20 0 0 1 10 0 0 1 I I #
coedge $-1 $346 $186 $116 $198 forward $188 $-1 #
edge $347 $206 -10 $203 10 $197 $348 reversed 7 unknown #
coedge $-1 $349 $117 $121 $211 forward $201 $-1 #
coedge $-1 $117 $350 $346 $351 forward $201 $-1 #
loop $-1 $352 $117 $315 #
attrib_edge_convexity-kcp-attrib $-1 $353 $-1 $118 1 #
vertex $-1 $351 $354 #
ellipse-curve $-1 -40 0 20 0 0 -1 10 0 0 1 I I #
attrib_edge_convexity-kcp-attrib $-1 $355 $-1 $119 1 #
vertex $-1 $119 $356 #
ellipse-curve $-1 -40 0 0 0 0 -1 10 0 0 1 I I #
coedge $-1 $357 $120 $181 $328 forward $122 $-1 #
edge $-1 $125 -40 $335 40 $120 $358 forward 7 unknown #
coedge $-1 $121 $359 $360 $361 reversed $122 $-1 #
edge $362 $124 -40 $363 -30 $199 $364 forward 7 unknown #
coedge $-1 $359 $357 $365 $366 reversed $122 $-1 #
face $367 $368 $122 $10 $-1 $369 forward single #
convexity-sys-attrib $-1 $-1 $123 $80 #
point $-1 -40 10 20 #
point $-1 -40 10 0 #
face $370 $371 $372 $27 $-1 $373 reversed single #
loop $-1 $-1 $374 $128 #
plane-surface $-1 -80 0 0 1 0 0 0 0 -1 forward_v I I I I #
coedge $-1 $375 $228 $376 $377 forward $129 $-1 #
coedge $-1 $378 $131 $375 $379 forward $83 $-1 #
coedge $-1 $131 $378 $380 $381 forward $83 $-1 #
coedge $-1 $231 $230 $131 $224 reversed $232 $-1 #
edge $-1 $382 -40 $383 40 $223 $384 forward 7 unknown #
coedge $-1 $133 $132 $385 $386 forward $55 $-1 #
coedge $-1 $387 $388 $132 $227 reversed $372 $-1 #
edge $-1 $234 -80 $389 80 $226 $390 forward 7 unknown #
coedge $-1 $220 $391 $133 $229 reversed $129 $-1 #
edge $-1 $392 -80 $233 80 $228 $393 forward 7 unknown #
coedge $-1 $223 $134 $391 $394 forward $232 $-1 #
coedge $-1 $134 $223 $387 $395 reversed $232 $-1 #
loop $-1 $-1 $230 $371 #
vertex $-1 $135 $396 #
vertex $-1 $135 $397 #
straight-curve $-1 80 0 20 0 1 0 I I #
face $-1 $398 $399 $42 $-1 $400 reversed single #
loop $-1 $-1 $401 $136 #
coedge $-1 $402 $403 $404 $405 forward $137 $-1 #
coedge $-1 $406 $139 $407 $408 reversed $87 $-1 #
coedge $-1 $139 $406 $409 $410 reversed $87 $-1 #
coedge $-1 $411 $412 $413 $242 reversed $414 $-1 #
edge $-1 $415 -40 $416 0 $139 $417 forward 7 unknown #
face $-1 $418 $257 $30 $-1 $419 forward single #
loop $-1 $-1 $420 $140 #
plane-surface $-1 0 40 0 0 -1 0 0 0 -1 forward_v I I I I #
coedge $-1 $421 $422 $145 $254 reversed $141 $-1 #
coedge $-1 $423 $143 $424 $254 reversed $90 $-1 #
coedge $-1 $143 $423 $420 $425 forward $90 $-1 #
coedge $-1 $426 $427 $143 $250 forward $428 $-1 #
edge $-1 $259 1.5707963267948966 $429 3.1415926535897931 $249 $260 forward 7 unknown #
coedge $-1 $145 $144 $430 $431 reversed $59 $-1 #
coedge $-1 $432 $433 $144 $253 forward $434 $-1 #
edge $-1 $435 -40 $258 0 $252 $436 forward 7 unknown #
edge $-1 $437 -40 $259 0 $424 $438 forward 7 unknown #
coedge $-1 $256 $146 $422 $439 forward $257 $-1 #
coedge $-1 $146 $255 $432 $440 forward $257 $-1 #
loop $-1 $-1 $146 $243 #
vertex $-1 $253 $441 #
vertex $-1 $439 $442 #
ellipse-curve $-1 -40 0 20 0 0 -1 0 -40 0 1 I I #
face $-1 $443 $276 $32 $-1 $444 forward single #
loop $-1 $-1 $445 $148 #
cone-surface $-1 -40 0 0 0 0 1 10 0 0 1 I I 0 1 10 forward I I I I #
coedge $-1 $272 $446 $274 $447 forward $149 $-1 #
coedge $-1 $448 $151 $446 $449 reversed $93 $-1 #
coedge $-1 $151 $448 $450 $451 forward $93 $-1 #
coedge $-1 $275 $274 $151 $268 reversed $276 $-1 #
edge $-1 $452 -40 $453 40 $151 $454 forward 7 unknown #
coedge $-1 $153 $152 $455 $456 reversed $62 $-1 #
coedge $-1 $445 $457 $152 $271 forward $262 $-1 #
edge $458 $459 0 $278 20 $270 $460 forward 7 unknown #
coedge $-1 $461 $264 $153 $273 reversed $149 $-1 #
edge $462 $463 0 $277 20 $153 $464 forward 7 unknown #
coedge $-1 $267 $154 $264 $447 reversed $276 $-1 #
coedge $-1 $154 $267 $445 $465 reversed $276 $-1 #
loop $-1 $-1 $267 $261 #
vertex $-1 $273 $466 #
vertex $-1 $271 $467 #
straight-curve $-1 0 -10 20 -1 0 0 I I #
face $-1 $468 $293 $34 $-1 $469 forward single #
loop $-1 $-1 $470 $156 #
plane-surface $-1 30 -30 10 0 -1 0 0 0 -1 forward_v I I I I #
coedge $-1 $471 $472 $473 $474 forward $157 $-1 #
coedge $-1 $475 $159 $472 $476 reversed $97 $-1 #
coedge $-1 $159 $475 $160 $289 forward $97 $-1 #
coedge $-1 $162 $473 $159 $287 reversed $293 $-1 #
edge $-1 $295 -50 $477 10 $159 $478 forward 7 unknown #
coedge $-1 $161 $160 $479 $480 reversed $65 $-1 #
edge $-1 $481 0 $295 10 $285 $482 forward 7 unknown #
coedge $-1 $483 $470 $161 $291 reversed $281 $-1 #
edge $484 $485 0 $294 10 $161 $486 forward 7 unknown #
coedge $-1 $473 $162 $470 $487 reversed $293 $-1 #
loop $-1 $-1 $162 $280 #
vertex $-1 $291 $488 #
vertex $-1 $289 $489 #
straight-curve $-1 -30 -10 20 0 1 0 I I #
face $-1 $490 $310 $36 $-1 $491 forward single #
loop $-1 $-1 $492 $164 #
plane-surface $-1 -30 30 10 0 1 0 0 0 1 forward_v I I I I #
coedge $-1 $493 $494 $495 $496 forward $165 $-1 #
coedge $-1 $497 $167 $494 $498 reversed $101 $-1 #
coedge $-1 $167 $497 $168 $306 forward $101 $-1 #
coedge $-1 $170 $495 $167 $304 reversed $310 $-1 #
edge $-1 $312 -50 $499 10 $167 $500 forward 7 unknown #
coedge $-1 $169 $168 $501 $502 reversed $68 $-1 #
edge $-1 $503 0 $312 10 $302 $504 forward 7 unknown #
coedge $-1 $505 $492 $169 $308 reversed $298 $-1 #
edge $506 $507 0 $311 10 $169 $508 forward 7 unknown #
coedge $-1 $495 $170 $492 $509 reversed $310 $-1 #
loop $-1 $-1 $170 $297 #
vertex $-1 $308 $510 #
vertex $-1 $306 $511 #
straight-curve $-1 30 10 20 0 -1 0 I I #
model_id-kcp-attrib $-1 $-1 $-1 $173 1 990663538 60 1648099329 7 #
face $512 $513 $201 $10 $-1 $514 forward single #
loop $-1 $-1 $515 $173 #
plane-surface $-1 -30 0 15 1 0 0 0 0 -1 forward_v I I I I #
coedge $-1 $516 $517 $320 $518 forward $174 $-1 #
coedge $-1 $519 $176 $520 $521 reversed $106 $-1 #
coedge $-1 $176 $519 $318 $518 reversed $106 $-1 #
coedge $-1 $522 $523 $176 $322 forward $524 $-1 #
edge $-1 $525 -12.5 $526 -2.5 $321 $527 forward 7 unknown #
edge $-1 $190 -40 $206 40 $186 $528 forward 7 unknown #
loop $-1 $529 $179 $343 #
attrib_edge_convexity-kcp-attrib $-1 $530 $-1 $180 1 #
vertex $-1 $180 $531 #
ellipse-curve $-1 40 0 -20 0 0 1 10 0 0 1 I I #
edge $532 $335 -10 $332 10 $208 $533 reversed 7 unknown #
coedge $-1 $534 $182 $187 $338 forward $201 $-1 #
coedge $-1 $182 $535 $357 $536 forward $201 $-1 #
attrib_edge_convexity-kcp-attrib $-1 $537 $-1 $183 1 #
vertex $-1 $536 $538 #
ellipse-curve $-1 40 0 20 0 0 -1 10 0 0 1 I I #
attrib_edge_convexity-kcp-attrib $-1 $539 $-1 $185 1 #
vertex $-1 $185 $540 #
ellipse-curve $-1 40 0 0 0 0 -1 10 0 0 1 I I #
coedge $-1 $187 $541 $542 $543 reversed $188 $-1 #
edge $544 $191 -40 $545 -30 $329 $546 forward 7 unknown #
face $547 $213 $188 $10 $-1 $548 forward single #
convexity-sys-attrib $-1 $-1 $189 $113 #
point $-1 40 -10 0 #
point $-1 40 -10 20 #
face $549 $550 $193 $10 $-1 $551 reversed single #
convexity-sys-attrib $-1 $-1 $194 $115 #
point $-1 -30 0 -20 #
coedge $-1 $552 $197 $200 $351 reversed $188 $-1 #
attrib_edge_convexity-kcp-attrib $-1 $553 $-1 $198 4 #
straight-curve $-1 -40 -10 10 0 0 -1 I I #
coedge $-1 $520 $199 $554 $555 forward $201 $-1 #
coedge $-1 $200 $556 $557 $558 forward $201 $-1 #
edge $559 $560 30 $203 40 $200 $546 forward 7 unknown #
loop $-1 $-1 $561 $315 #
convexity-sys-attrib $-1 $-1 $202 $118 #
point $-1 -40 -10 20 #
convexity-sys-attrib $-1 $-1 $205 $119 #
point $-1 -40 -10 0 #
coedge $-1 $212 $208 $330 $536 reversed $122 $-1 #
straight-curve $-1 0 10 0 1 0 0 I I #
coedge $-1 $210 $212 $562 $563 reversed $122 $-1 #
coedge $-1 $564 $554 $210 $361 forward $316 $-1 #
edge $-1 $363 -5 $565 5 $360 $566 forward 7 unknown #
attrib_edge_convexity-kcp-attrib $-1 $567 $-1 $211 1 #
vertex $-1 $361 $568 #
straight-curve $-1 0 10 20 1 0 0 I I #
coedge $-1 $523 $522 $212 $366 forward $524 $-1 #
edge $-1 $569 -5 $570 5 $365 $571 forward 7 unknown #
model_id-kcp-attrib $-1 $-1 $-1 $213 1 990663538 60 1648099329 13 #
face $572 $573 $574 $10 $-1 $175 forward single #
plane-surface $-1 0 10 10 0 -1 0 0 0 -1 forward_v I I I I #
model_id-kcp-attrib $-1 $-1 $-1 $217 1 990663538 60 1648099330 5 #
face $-1 $-1 $232 $27 $-1 $575 reversed single #
loop $-1 $-1 $387 $217 #
plane-surface $-1 0 40 0 0 -1 0 0 0 -1 forward_v I I I I #
coedge $-1 $576 $385 $388 $577 forward $218 $-1 #
coedge $-1 $391 $220 $221 $379 reversed $129 $-1 #
coedge $-1 $385 $576 $220 $377 reversed $218 $-1 #
edge $-1 $392 -20 $578 20 $376 $579 forward 7 unknown #
coedge $-1 $222 $221 $576 $580 forward $83 $-1 #
edge $-1 $383 -80 $578 80 $375 $581 forward 7 unknown #
coedge $-1 $388 $387 $222 $381 reversed $372 $-1 #
edge $-1 $582 -80 $382 80 $380 $583 forward 7 unknown #
vertex $-1 $224 $584 #
vertex $-1 $394 $585 #
straight-curve $-1 80 0 -20 0 -1 0 I I #
coedge $-1 $374 $376 $225 $386 reversed $218 $-1 #
edge $-1 $389 -40 $392 40 $385 $586 forward 7 unknown #
coedge $-1 $380 $226 $231 $395 forward $372 $-1 #
coedge $-1 $226 $380 $374 $577 reversed $372 $-1 #
vertex $-1 $227 $587 #
straight-curve $-1 0 40 20 -1 0 0 I I #
coedge $-1 $228 $375 $230 $394 reversed $129 $-1 #
vertex $-1 $386 $588 #
straight-curve $-1 0 -40 20 1 0 0 I I #
edge $-1 $233 -20 $383 20 $230 $589 forward 7 unknown #
edge $-1 $234 -20 $382 20 $231 $590 forward 7 unknown #
point $-1 80 -40 20 #
point $-1 80 40 20 #
face $-1 $591 $592 $42 $-1 $419 forward single #
loop $-1 $-1 $593 $236 #
plane-surface $-1 0 -40 0 0 1 0 0 0 1 forward_v I I I I #
coedge $-1 $409 $594 $595 $596 forward $237 $-1 #
coedge $-1 $403 $238 $597 $598 forward $137 $-1 #
coedge $-1 $238 $402 $411 $599 forward $137 $-1 #
coedge $-1 $413 $600 $238 $405 reversed $601 $-1 #
edge $-1 $415 -1.5707963267948966 $602 0 $238 $603 forward 7 unknown #
coedge $-1 $240 $239 $604 $605 forward $87 $-1 #
coedge $-1 $606 $607 $239 $408 forward $608 $-1 #
edge $-1 $609 -40 $416 0 $239 $610 forward 7 unknown #
coedge $-1 $594 $401 $240 $410 forward $237 $-1 #
edge $-1 $415 0 $611 40 $240 $612 forward 7 unknown #
coedge $-1 $613 $241 $403 $599 reversed $414 $-1 #
coedge $-1 $241 $613 $614 $615 reversed $414 $-1 #
coedge $-1 $616 $404 $617 $242 forward $601 $-1 #
loop $-1 $-1 $241 $618 #
vertex $-1 $410 $619 #
vertex $-1 $615 $620 #
straight-curve $-1 80 0 20 0 0 1 I I #
face $-1 $621 $622 $30 $-1 $138 reversed single #
plane-surface $-1 0 0 20 0 0 1 1 0 0 forward_v I I I I #
coedge $-1 $623 $624 $248 $425 reversed $244 $-1 #
coedge $-1 $625 $246 $626 $627 reversed $141 $-1 #
coedge $-1 $246 $625 $255 $439 reversed $141 $-1 #
coedge $-1 $248 $247 $628 $629 reversed $90 $-1 #
coedge $-1 $630 $631 $246 $254 forward $632 $-1 #
edge $-1 $633 -40 $429 0 $420 $634 forward 7 unknown #
coedge $-1 $427 $249 $624 $635 forward $428 $-1 #
coedge $-1 $249 $426 $630 $636 forward $428 $-1 #
loop $-1 $-1 $249 $621 #
vertex $-1 $635 $637 #
coedge $-1 $638 $626 $251 $431 forward $622 $-1 #
edge $-1 $437 -1.5707963267948966 $435 0 $430 $639 forward 7 unknown #
coedge $-1 $640 $252 $256 $440 reversed $434 $-1 #
coedge $-1 $252 $640 $638 $641 reversed $434 $-1 #
loop $-1 $-1 $252 $642 #
vertex $-1 $641 $643 #
straight-curve $-1 -40 -40 20 0 0 1 I I #
vertex $-1 $644 $645 #
straight-curve $-1 -80 0 20 0 0 1 I I #
edge $-1 $259 0 $646 40 $422 $647 forward 7 unknown #
edge $-1 $646 -80 $258 -40 $432 $648 forward 7 unknown #
point $-1 -40 -40 20 #
point $-1 -80 0 20 #
face $-1 $-1 $649 $32 $-1 $650 reversed single #
plane-surface $-1 0 0 20 0 0 1 1 0 0 forward_v I I I I #
coedge $-1 $450 $270 $275 $465 forward $262 $-1 #
coedge $-1 $264 $461 $265 $449 forward $149 $-1 #
edge $-1 $453 -1.5707963267948966 $277 1.5707963267948966 $264 $651 forward 7 unknown #
coedge $-1 $266 $265 $652 $653 reversed $93 $-1 #
edge $654 $655 0 $453 20 $446 $656 forward 7 unknown #
coedge $-1 $457 $445 $266 $451 reversed $262 $-1 #
edge $657 $658 0 $452 20 $266 $659 forward 7 unknown #
vertex $-1 $451 $660 #
vertex $-1 $449 $661 #
straight-curve $-1 0 10 20 1 0 0 I I #
coedge $-1 $662 $663 $269 $456 forward $649 $-1 #
edge $664 $463 -40 $459 40 $269 $665 forward 7 unknown #
coedge $-1 $270 $450 $662 $666 reversed $262 $-1 #
convexity-sys-attrib $-1 $-1 $-1 $271 #
vertex $-1 $666 $667 #
straight-curve $-1 -40 -10 0 0 0 1 I I #
coedge $-1 $446 $272 $663 $668 reversed $149 $-1 #
convexity-sys-attrib $-1 $-1 $-1 $273 #
vertex $-1 $668 $669 #
straight-curve $-1 40 -10 0 0 0 1 I I #
edge $-1 $278 1.5707963267948966 $452 4.7123889803846897 $445 $670 forward 7 unknown #
point $-1 40 -10 20 #
point $-1 -40 -10 20 #
face $-1 $-1 $671 $34 $-1 $672 reversed single #
plane-surface $-1 0 -20 20 0 0 1 1 0 0 forward_v I I I I #
coedge $-1 $290 $673 $292 $487 forward $281 $-1 #
coedge $-1 $674 $283 $673 $675 reversed $157 $-1 #
coedge $-1 $283 $674 $284 $476 forward $157 $-1 #
coedge $-1 $286 $292 $283 $474 reversed $293 $-1 #
edge $-1 $477 0 $676 20 $283 $677 forward 7 unknown #
coedge $-1 $285 $284 $678 $679 reversed $97 $-1 #
edge $-1 $680 0 $477 10 $472 $681 forward 7 unknown #
vertex $-1 $476 $682 #
straight-curve $-1 20 -10 20 1 0 0 I I #
coedge $-1 $678 $683 $288 $480 forward $671 $-1 #
edge $684 $485 -20 $481 0 $288 $685 forward 7 unknown #
vertex $-1 $480 $686 #
straight-curve $-1 -30 -10 10 0 0 1 I I #
coedge $-1 $673 $290 $683 $687 reversed $281 $-1 #
convexity-sys-attrib $-1 $-1 $-1 $291 #
vertex $-1 $687 $688 #
straight-curve $-1 -30 -30 10 0 0 1 I I #
edge $-1 $676 -30 $294 30 $470 $689 forward 7 unknown #
point $-1 -30 -30 20 #
point $-1 -30 -10 20 #
face $-1 $-1 $690 $36 $-1 $691 reversed single #
plane-surface $-1 0 20 20 0 0 1 1 0 0 forward_v I I I I #
coedge $-1 $307 $692 $309 $509 forward $298 $-1 #
coedge $-1 $693 $300 $692 $694 reversed $165 $-1 #
coedge $-1 $300 $693 $301 $498 forward $165 $-1 #
coedge $-1 $303 $309 $300 $496 reversed $310 $-1 #
edge $-1 $499 0 $695 20 $300 $696 forward 7 unknown #
coedge $-1 $302 $301 $697 $698 reversed $101 $-1 #
edge $-1 $699 0 $499 10 $494 $700 forward 7 unknown #
vertex $-1 $498 $701 #
straight-curve $-1 -20 10 20 -1 0 0 I I #
coedge $-1 $697 $702 $305 $502 forward $690 $-1 #
edge $703 $507 -20 $503 0 $305 $704 forward 7 unknown #
vertex $-1 $502 $705 #
straight-curve $-1 30 10 10 0 0 1 I I #
coedge $-1 $692 $307 $702 $706 reversed $298 $-1 #
convexity-sys-attrib $-1 $-1 $-1 $308 #
vertex $-1 $706 $707 #
straight-curve $-1 30 30 10 0 0 1 I I #
edge $-1 $695 -30 $311 30 $492 $708 forward 7 unknown #
point $-1 30 30 20 #
point $-1 30 10 20 #
model_id-kcp-attrib $-1 $709 $-1 $315 1 990663538 60 1648099329 21 #
face $710 $343 $711 $10 $-1 $712 reversed single #
plane-surface $-1 0 0 20 0 0 1 1 0 0 forward_v I I I I #
coedge $-1 $554 $564 $519 $713 forward $316 $-1 #
coedge $-1 $562 $318 $564 $714 reversed $174 $-1 #
coedge $-1 $318 $562 $522 $715 reversed $174 $-1 #
edge $-1 $526 -30 $716 30 $318 $717 forward 7 unknown #
coedge $-1 $320 $319 $515 $713 reversed $106 $-1 #
coedge $-1 $535 $349 $319 $521 forward $201 $-1 #
edge $718 $719 -30 $525 30 $319 $720 forward 7 unknown #
coedge $-1 $365 $321 $517 $715 forward $524 $-1 #
coedge $-1 $321 $365 $535 $721 reversed $524 $-1 #
loop $-1 $-1 $321 $573 #
vertex $-1 $721 $722 #
vertex $-1 $322 $723 #
straight-curve $-1 30 30 7.5 0 0 -1 I I #
straight-curve $-1 0 -10 0 -1 0 0 I I #
loop $-1 $-1 $724 $343 #
convexity-sys-attrib $-1 $-1 $325 $180 #
point $-1 50 0 -20 #
attrib_edge_convexity-kcp-attrib $-1 $725 $-1 $328 4 #
straight-curve $-1 40 10 10 0 0 -1 I I #
coedge $-1 $556 $329 $726 $727 forward $201 $-1 #
coedge $-1 $330 $520 $523 $721 forward $201 $-1 #
edge $728 $570 30 $332 40 $330 $364 forward 7 unknown #
convexity-sys-attrib $-1 $-1 $331 $183 #
point $-1 40 10 20 #
convexity-sys-attrib $-1 $-1 $334 $185 #
point $-1 40 10 0 #
coedge $-1 $337 $552 $729 $730 reversed $188 $-1 #
coedge $-1 $731 $726 $337 $543 forward $732 $-1 #
edge $-1 $545 -5 $733 5 $542 $734 forward 7 unknown #
attrib_edge_convexity-kcp-attrib $-1 $735 $-1 $338 1 #
vertex $-1 $543 $736 #
straight-curve $-1 0 -10 20 -1 0 0 I I #
model_id-kcp-attrib $-1 $-1 $-1 $339 1 990663538 60 1648099329 12 #
plane-surface $-1 0 -10 10 0 1 0 0 0 1 forward_v I I I I #
model_id-kcp-attrib $-1 $-1 $-1 $343 1 990663538 60 1648099329 10 #
face $737 $339 $738 $10 $-1 $317 forward single #
plane-surface $-1 0 0 -20 0 0 1 1 0 0 forward_v I I I I #
coedge $-1 $541 $346 $739 $740 reversed $188 $-1 #
convexity-sys-attrib $-1 $-1 $347 $198 #
coedge $-1 $360 $515 $349 $555 reversed $316 $-1 #
edge $741 $363 10 $719 30 $349 $742 forward 7 unknown #
coedge $-1 $350 $534 $743 $744 forward $201 $-1 #
coedge $-1 $745 $739 $350 $558 reversed $738 $-1 #
edge $746 $747 -30 $560 -10 $350 $742 forward 7 unknown #
attrib_edge_convexity-kcp-attrib $-1 $748 $-1 $351 1 #
vertex $-1 $558 $749 #
coedge $-1 $750 $751 $752 $753 forward $352 $-1 #
coedge $-1 $517 $516 $359 $563 forward $174 $-1 #
edge $-1 $565 -30 $569 30 $562 $754 forward 7 unknown #
coedge $-1 $515 $360 $516 $714 forward $316 $-1 #
vertex $-1 $361 $755 #
straight-curve $-1 -30 10 15 0 0 -1 I I #
convexity-sys-attrib $-1 $-1 $362 $211 #
point $-1 -30 10 20 #
vertex $-1 $715 $756 #
vertex $-1 $721 $757 #
straight-curve $-1 30 10 15 0 0 1 I I #
model_id-kcp-attrib $-1 $-1 $-1 $368 1 990663538 60 1648099329 14 #
face $758 $759 $524 $10 $-1 $760 forward single #
loop $-1 $-1 $761 $368 #
plane-surface $-1 80 0 0 -1 0 0 0 0 1 forward_v I I I I #
coedge $-1 $376 $374 $378 $580 reversed $218 $-1 #
edge $-1 $389 -20 $582 20 $388 $762 forward 7 unknown #
vertex $-1 $580 $763 #
straight-curve $-1 -80 -40 0 0 0 -1 I I #
edge $-1 $578 -40 $582 40 $576 $764 forward 7 unknown #
straight-curve $-1 0 -40 -20 -1 0 0 I I #
vertex $-1 $381 $765 #
straight-curve $-1 0 40 -20 1 0 0 I I #
point $-1 80 40 -20 #
point $-1 80 -40 -20 #
straight-curve $-1 -80 0 20 0 -1 0 I I #
point $-1 -80 40 20 #
point $-1 -80 -40 20 #
straight-curve $-1 80 -40 0 0 0 -1 I I #
straight-curve $-1 80 40 0 0 0 -1 I I #
face $-1 $618 $608 $42 $-1 $419 forward single #
loop $-1 $-1 $766 $398 #
coedge $-1 $767 $768 $769 $770 reversed $399 $-1 #
coedge $-1 $401 $409 $767 $771 forward $237 $-1 #
coedge $-1 $769 $617 $401 $596 reversed $772 $-1 #
edge $-1 $773 -3.1415926535897931 $415 -1.5707963267948966 $401 $603 forward 7 unknown #
coedge $-1 $774 $775 $402 $598 reversed $776 $-1 #
edge $-1 $602 40 $777 80 $597 $778 forward 7 unknown #
edge $-1 $777 -40 $415 0 $411 $612 forward 7 unknown #
coedge $-1 $404 $616 $774 $779 reversed $601 $-1 #
loop $-1 $-1 $616 $780 #
vertex $-1 $598 $781 #
ellipse-curve $-1 40 0 -20 0 0 1 0 40 0 1 I I #
coedge $-1 $768 $767 $406 $605 reversed $399 $-1 #
edge $-1 $609 -20 $611 20 $406 $782 forward 7 unknown #
coedge $-1 $607 $407 $783 $784 forward $608 $-1 #
coedge $-1 $407 $606 $768 $785 forward $608 $-1 #
loop $-1 $-1 $606 $591 #
vertex $-1 $408 $786 #
straight-curve $-1 80 0 20 0 1 0 I I #
vertex $-1 $605 $787 #
straight-curve $-1 80 0 -20 0 -1 0 I I #
coedge $-1 $412 $411 $775 $788 reversed $414 $-1 #
coedge $-1 $789 $766 $412 $615 forward $592 $-1 #
edge $-1 $416 0 $790 40 $412 $610 forward 7 unknown #
coedge $-1 $600 $413 $766 $791 reversed $601 $-1 #
coedge $-1 $595 $783 $139 $242 reversed $772 $-1 #
face $-1 $792 $414 $42 $-1 $88 reversed single #
point $-1 80 0 -20 #
point $-1 80 0 20 #
face $-1 $793 $428 $30 $-1 $419 forward single #
loop $-1 $-1 $430 $418 #
coedge $-1 $794 $420 $795 $796 reversed $244 $-1 #
coedge $-1 $420 $794 $426 $635 reversed $244 $-1 #
coedge $-1 $422 $421 $640 $797 reversed $141 $-1 #
coedge $-1 $430 $638 $421 $627 forward $622 $-1 #
edge $-1 $798 -40 $437 0 $421 $799 forward 7 unknown #
coedge $-1 $800 $795 $423 $629 forward $801 $-1 #
edge $-1 $633 -3.1415926535897931 $437 -1.5707963267948966 $628 $639 forward 7 unknown #
coedge $-1 $802 $424 $427 $636 reversed $632 $-1 #
coedge $-1 $424 $802 $800 $644 reversed $632 $-1 #
loop $-1 $-1 $424 $803 #
vertex $-1 $425 $804 #
straight-curve $-1 -40 40 20 0 0 1 I I #
edge $-1 $429 40 $805 80 $624 $806 forward 7 unknown #
edge $-1 $805 -40 $259 0 $630 $647 forward 7 unknown #
point $-1 -40 40 20 #
coedge $-1 $626 $430 $433 $641 forward $622 $-1 #
ellipse-curve $-1 -40 0 -20 0 0 1 0 -40 0 1 I I #
coedge $-1 $433 $432 $625 $797 forward $434 $-1 #
edge $-1 $435 40 $798 80 $433 $807 forward 7 unknown #
face $-1 $803 $434 $30 $-1 $400 reversed single #
point $-1 -40 -40 -20 #
edge $-1 $437 0 $808 40 $631 $799 forward 7 unknown #
point $-1 -80 0 -20 #
vertex $-1 $439 $809 #
straight-curve $-1 -80 0 20 0 -1 0 I I #
straight-curve $-1 0 -40 20 1 0 0 I I #
loop $-1 $-1 $662 $443 #
plane-surface $-1 0 0 0 0 0 1 1 0 0 forward_v I I I I #
ellipse-curve $-1 40 0 20 0 0 -1 10 0 0 1 I I #
coedge $-1 $663 $662 $448 $653 forward $649 $-1 #
edge $810 $658 -40 $655 40 $448 $811 forward 7 unknown #
convexity-sys-attrib $-1 $-1 $-1 $449 #
vertex $-1 $653 $812 #
straight-curve $-1 40 10 0 0 0 1 I I #
convexity-sys-attrib $-1 $-1 $-1 $451 #
vertex $-1 $666 $813 #
straight-curve $-1 -40 10 0 0 0 1 I I #
point $-1 -40 10 20 #
point $-1 40 10 20 #
coedge $-1 $652 $455 $457 $666 forward $649 $-1 #
coedge $-1 $455 $652 $461 $668 forward $649 $-1 #
convexity-sys-attrib $-1 $-1 $-1 $456 #
straight-curve $-1 0 -10 0 -1 0 0 I I #
edge $814 $459 1.5707963267948966 $658 4.7123889803846897 $457 $815 forward 7 unknown #
point $-1 -40 -10 0 #
edge $816 $655 -1.5707963267948966 $463 1.5707963267948966 $461 $817 forward 7 unknown #
point $-1 40 -10 0 #
ellipse-curve $-1 -40 0 20 0 0 -1 10 0 0 1 I I #
loop $-1 $-1 $683 $468 #
plane-surface $-1 0 -20 10 0 0 1 1 0 0 forward_v I I I I #
coedge $-1 $470 $483 $471 $675 forward $281 $-1 #
coedge $-1 $472 $471 $818 $819 reversed $157 $-1 #
edge $820 $821 0 $676 10 $673 $822 forward 7 unknown #
vertex $-1 $675 $823 #
straight-curve $-1 30 -10 20 0 -1 0 I I #
coedge $-1 $818 $479 $475 $679 forward $671 $-1 #
edge $824 $481 -50 $680 10 $475 $825 forward 7 unknown #
vertex $-1 $679 $826 #
straight-curve $-1 30 -10 10 0 0 1 I I #
point $-1 30 -10 20 #
coedge $-1 $479 $818 $483 $687 forward $671 $-1 #
convexity-sys-attrib $-1 $-1 $-1 $480 #
straight-curve $-1 -30 -10 10 0 1 0 I I #
point $-1 -30 -10 10 #
edge $827 $821 -30 $485 30 $483 $828 forward 7 unknown #
point $-1 -30 -30 10 #
straight-curve $-1 0 -30 20 -1 0 0 I I #
loop $-1 $-1 $702 $490 #
plane-surface $-1 0 20 10 0 0 1 1 0 0 forward_v I I I I #
coedge $-1 $492 $505 $493 $694 forward $298 $-1 #
coedge $-1 $494 $493 $829 $830 reversed $165 $-1 #
edge $831 $832 0 $695 10 $692 $833 forward 7 unknown #
vertex $-1 $694 $834 #
straight-curve $-1 -30 10 20 0 1 0 I I #
coedge $-1 $829 $501 $497 $698 forward $690 $-1 #
edge $835 $503 -50 $699 10 $497 $836 forward 7 unknown #
vertex $-1 $698 $837 #
straight-curve $-1 -30 10 10 0 0 1 I I #
point $-1 -30 10 20 #
coedge $-1 $501 $829 $505 $706 forward $690 $-1 #
convexity-sys-attrib $-1 $-1 $-1 $502 #
straight-curve $-1 30 10 10 0 -1 0 I I #
point $-1 30 10 10 #
edge $838 $832 -30 $507 30 $505 $839 forward 7 unknown #
point $-1 30 30 10 #
straight-curve $-1 0 30 20 1 0 0 I I #
model_id-kcp-attrib $-1 $-1 $512 $315 1 990663538 60 1648099329 8 #
model_id-kcp-attrib $-1 $-1 $-1 $513 1 990663538 60 1648099329 9 #
loop $-1 $-1 $840 $513 #
plane-surface $-1 0 -30 0 0 -1 0 0 0 -1 forward_v I I I I #
edge $-1 $716 2.5 $719 12.5 $515 $841 forward 7 unknown #
edge $-1 $565 10 $716 30 $564 $842 forward 7 unknown #
edge $-1 $526 -30 $569 -10 $522 $843 forward 7 unknown #
vertex $-1 $714 $844 #
straight-curve $-1 0 30 10 -1 0 0 I I #
attrib_edge_convexity-kcp-attrib $-1 $845 $-1 $521 1 #
vertex $-1 $555 $846 #
straight-curve $-1 0 30 20 1 0 0 I I #
edge $847 $525 -30 $570 -10 $535 $848 forward 7 unknown #
point $-1 30 30 20 #
point $-1 30 30 10 #
coedge $-1 $849 $850 $851 $852 forward $529 $-1 #
convexity-sys-attrib $-1 $-1 $532 $328 #
coedge $-1 $542 $853 $534 $727 reversed $732 $-1 #
edge $854 $545 10 $855 30 $534 $848 forward 7 unknown #
attrib_edge_convexity-kcp-attrib $-1 $856 $-1 $536 1 #
coedge $-1 $857 $858 $541 $730 forward $574 $-1 #
edge $-1 $733 -30 $859 30 $729 $860 forward 7 unknown #
coedge $-1 $853 $542 $858 $861 forward $732 $-1 #
loop $-1 $-1 $853 $759 #
vertex $-1 $543 $862 #
straight-curve $-1 30 -10 15 0 0 -1 I I #
convexity-sys-attrib $-1 $-1 $544 $338 #
point $-1 30 -10 20 #
model_id-kcp-attrib $-1 $-1 $-1 $550 1 990663538 60 1648099329 11 #
loop $-1 $-1 $745 $550 #
coedge $-1 $557 $863 $552 $740 forward $738 $-1 #
edge $-1 $859 -5 $560 5 $739 $864 forward 7 unknown #
attrib_edge_convexity-kcp-attrib $-1 $865 $-1 $555 1 #
straight-curve $-1 -30 0 20 0 1 0 I I #
coedge $-1 $840 $866 $556 $744 reversed $711 $-1 #
edge $867 $855 -30 $747 30 $743 $868 forward 7 unknown #
coedge $-1 $863 $557 $866 $869 forward $738 $-1 #
attrib_edge_convexity-kcp-attrib $-1 $870 $-1 $558 1 #
vertex $-1 $558 $871 #
convexity-sys-attrib $-1 $-1 $559 $351 #
point $-1 -30 -10 20 #
coedge $-1 $872 $561 $873 $874 forward $352 $-1 #
coedge $-1 $561 $872 $875 $876 forward $352 $-1 #
coedge $-1 $877 $878 $561 $753 reversed $879 $-1 #
edge $880 $881 -40 $882 40 $752 $883 forward 7 unknown #
straight-curve $-1 0 10 10 1 0 0 I I #
point $-1 -30 10 10 #
point $-1 30 10 10 #
point $-1 30 10 20 #
model_id-kcp-attrib $-1 $-1 $-1 $573 1 990663538 60 1648099329 15 #
face $884 $885 $732 $10 $-1 $760 forward single #
plane-surface $-1 30 0 15 -1 0 0 0 0 1 forward_v I I I I #
coedge $-1 $858 $857 $886 $887 forward $574 $-1 #
straight-curve $-1 -80 40 0 0 0 -1 I I #
point $-1 -80 -40 -20 #
straight-curve $-1 -80 0 -20 0 1 0 I I #
point $-1 -80 40 -20 #
coedge $-1 $614 $789 $616 $791 forward $592 $-1 #
coedge $-1 $604 $593 $594 $771 reversed $399 $-1 #
coedge $-1 $593 $604 $607 $785 reversed $399 $-1 #
coedge $-1 $783 $595 $593 $770 forward $772 $-1 #
edge $-1 $773 -40 $888 0 $593 $889 forward 7 unknown #
edge $-1 $611 -80 $773 -40 $767 $807 forward 7 unknown #
loop $-1 $-1 $783 $890 #
vertex $-1 $596 $891 #
coedge $-1 $892 $597 $600 $779 forward $776 $-1 #
coedge $-1 $597 $892 $613 $788 forward $776 $-1 #
loop $-1 $-1 $774 $792 #
vertex $-1 $599 $893 #
straight-curve $-1 0 40 -20 1 0 0 I I #
edge $-1 $602 -40 $894 0 $774 $895 forward 7 unknown #
face $-1 $890 $601 $42 $-1 $896 reversed single #
point $-1 40 40 -20 #
straight-curve $-1 80 -40 0 0 0 -1 I I #
coedge $-1 $617 $769 $606 $784 reversed $772 $-1 #
edge $-1 $416 1.5707963267948966 $888 3.1415926535897931 $606 $897 forward 7 unknown #
edge $-1 $888 40 $609 80 $768 $648 forward 7 unknown #
point $-1 80 -40 20 #
point $-1 80 -40 -20 #
edge $-1 $790 -20 $777 20 $613 $898 forward 7 unknown #
coedge $-1 $766 $614 $892 $899 forward $592 $-1 #
vertex $-1 $615 $900 #
edge $-1 $894 0 $416 1.5707963267948966 $766 $897 forward 7 unknown #
face $-1 $780 $776 $42 $-1 $245 reversed single #
face $-1 $642 $801 $30 $-1 $138 reversed single #
coedge $-1 $624 $623 $802 $901 reversed $244 $-1 #
coedge $-1 $628 $800 $623 $796 forward $801 $-1 #
edge $-1 $808 -80 $633 -40 $623 $778 forward 7 unknown #
edge $-1 $646 -20 $798 20 $625 $902 forward 7 unknown #
vertex $-1 $627 $903 #
straight-curve $-1 -80 0 -20 0 1 0 I I #
coedge $-1 $795 $628 $631 $644 forward $801 $-1 #
loop $-1 $-1 $628 $793 #
coedge $-1 $631 $630 $794 $901 forward $632 $-1 #
face $-1 $-1 $632 $30 $-1 $142 reversed single #
point $-1 -40 40 -20 #
vertex $-1 $635 $904 #
straight-curve $-1 0 40 20 -1 0 0 I I #
straight-curve $-1 0 -40 -20 -1 0 0 I I #
vertex $-1 $796 $905 #
point $-1 -80 -40 20 #
convexity-sys-attrib $-1 $-1 $-1 $653 #
straight-curve $-1 0 10 0 1 0 0 I I #
point $-1 40 10 0 #
point $-1 -40 10 0 #
convexity-sys-attrib $-1 $-1 $-1 $666 #
ellipse-curve $-1 -40 0 0 0 0 -1 10 0 0 1 I I #
convexity-sys-attrib $-1 $-1 $-1 $668 #
ellipse-curve $-1 40 0 0 0 0 -1 10 0 0 1 I I #
coedge $-1 $683 $678 $674 $819 forward $671 $-1 #
edge $906 $680 0 $821 20 $674 $907 forward 7 unknown #
convexity-sys-attrib $-1 $-1 $-1 $675 #
vertex $-1 $687 $908 #
straight-curve $-1 30 -30 10 0 0 1 I I #
point $-1 30 -30 20 #
convexity-sys-attrib $-1 $-1 $-1 $679 #
straight-curve $-1 20 -10 10 1 0 0 I I #
point $-1 30 -10 10 #
convexity-sys-attrib $-1 $-1 $-1 $687 #
straight-curve $-1 0 -30 10 -1 0 0 I I #
coedge $-1 $702 $697 $693 $830 forward $690 $-1 #
edge $909 $699 0 $832 20 $693 $910 forward 7 unknown #
convexity-sys-attrib $-1 $-1 $-1 $694 #
vertex $-1 $706 $911 #
straight-curve $-1 -30 30 10 0 0 1 I I #
point $-1 -30 30 20 #
convexity-sys-attrib $-1 $-1 $-1 $698 #
straight-curve $-1 -20 10 10 -1 0 0 I I #
point $-1 -30 10 10 #
convexity-sys-attrib $-1 $-1 $-1 $706 #
straight-curve $-1 0 30 10 1 0 0 I I #
coedge $-1 $886 $743 $853 $912 reversed $711 $-1 #
straight-curve $-1 -30 30 7.5 0 0 1 I I #
straight-curve $-1 -30 0 10 0 1 0 I I #
straight-curve $-1 30 0 10 0 -1 0 I I #
point $-1 -30 30 10 #
convexity-sys-attrib $-1 $-1 $718 $521 #
point $-1 -30 30 20 #
attrib_edge_convexity-kcp-attrib $-1 $913 $-1 $721 1 #
straight-curve $-1 30 0 20 0 -1 0 I I #
coedge $-1 $914 $724 $915 $916 forward $529 $-1 #
coedge $-1 $724 $914 $917 $918 forward $529 $-1 #
coedge $-1 $919 $920 $724 $852 reversed $921 $-1 #
edge $-1 $922 -1.5707963267948966 $923 1.5707963267948966 $724 $924 forward 7 unknown #
coedge $-1 $726 $731 $840 $912 forward $732 $-1 #
attrib_edge_convexity-kcp-attrib $-1 $925 $-1 $727 1 #
vertex $-1 $727 $926 #
convexity-sys-attrib $-1 $-1 $728 $536 #
coedge $-1 $761 $729 $863 $927 reversed $574 $-1 #
coedge $-1 $729 $761 $731 $861 reversed $574 $-1 #
vertex $-1 $927 $928 #
straight-curve $-1 0 -10 10 -1 0 0 I I #
edge $-1 $733 10 $929 30 $731 $843 forward 7 unknown #
point $-1 30 -10 10 #
coedge $-1 $739 $745 $857 $927 forward $738 $-1 #
straight-curve $-1 -30 -10 15 0 0 1 I I #
convexity-sys-attrib $-1 $-1 $741 $555 #
coedge $-1 $743 $886 $745 $869 reversed $711 $-1 #
attrib_edge_convexity-kcp-attrib $-1 $930 $-1 $744 1 #
straight-curve $-1 0 -30 20 -1 0 0 I I #
edge $-1 $747 -12.5 $931 -2.5 $745 $932 forward 7 unknown #
convexity-sys-attrib $-1 $-1 $746 $558 #
point $-1 -30 -30 20 #
coedge $-1 $751 $750 $933 $934 forward $352 $-1 #
coedge $-1 $935 $936 $750 $874 reversed $937 $-1 #
edge $938 $882 1.5707963267948966 $939 4.7123889803846897 $750 $940 forward 7 unknown #
coedge $-1 $920 $919 $751 $876 reversed $921 $-1 #
edge $941 $942 -1.5707963267948966 $881 1.5707963267948966 $751 $943 forward 7 unknown #
coedge $-1 $917 $752 $919 $944 reversed $879 $-1 #
coedge $-1 $752 $917 $935 $945 reversed $879 $-1 #
loop $-1 $-1 $752 $946 #
attrib_edge_convexity-kcp-attrib $-1 $947 $-1 $753 1 #
vertex $-1 $753 $948 #
vertex $-1 $753 $949 #
straight-curve $-1 0 40 20 -1 0 0 I I #
model_id-kcp-attrib $-1 $-1 $-1 $759 1 990663538 60 1648099329 16 #
face $950 $951 $952 $10 $-1 $953 reversed single #
coedge $-1 $866 $840 $761 $887 reversed $711 $-1 #
edge $-1 $931 -30 $929 30 $761 $954 forward 7 unknown #
vertex $-1 $785 $955 #
straight-curve $-1 40 -40 20 0 0 1 I I #
face $-1 $-1 $772 $42 $-1 $896 reversed single #
point $-1 40 -40 -20 #
coedge $-1 $775 $774 $789 $899 reversed $776 $-1 #
point $-1 80 40 -20 #
vertex $-1 $791 $956 #
straight-curve $-1 40 40 20 0 0 1 I I #
cone-surface $-1 40 0 20 0 0 1 0 40 0 1 I I 0 1 40 forward I I I I #
ellipse-curve $-1 40 0 20 0 0 -1 0 40 0 1 I I #
straight-curve $-1 80 40 0 0 0 -1 I I #
edge $-1 $790 -80 $894 -40 $892 $806 forward 7 unknown #
point $-1 80 40 20 #
edge $-1 $805 -20 $808 20 $794 $957 forward 7 unknown #
straight-curve $-1 -80 -40 0 0 0 -1 I I #
point $-1 -80 -40 -20 #
point $-1 -80 40 20 #
point $-1 -80 40 -20 #
convexity-sys-attrib $-1 $-1 $-1 $819 #
straight-curve $-1 30 -10 10 0 -1 0 I I #
point $-1 30 -30 10 #
convexity-sys-attrib $-1 $-1 $-1 $830 #
straight-curve $-1 -30 10 10 0 1 0 I I #
point $-1 -30 30 10 #
edge $-1 $929 2.5 $855 12.5 $853 $958 forward 7 unknown #
convexity-sys-attrib $-1 $-1 $847 $721 #
coedge $-1 $850 $849 $959 $960 forward $529 $-1 #
coedge $-1 $961 $962 $849 $916 reversed $952 $-1 #
edge $963 $923 -40 $964 40 $915 $965 forward 7 unknown #
coedge $-1 $878 $877 $850 $918 reversed $879 $-1 #
edge $966 $967 -40 $922 40 $917 $968 forward 7 unknown #
coedge $-1 $875 $851 $877 $944 forward $921 $-1 #
coedge $-1 $851 $875 $961 $969 reversed $921 $-1 #
loop $-1 $-1 $919 $970 #
vertex $-1 $852 $971 #
vertex $-1 $969 $972 #
ellipse-curve $-1 40 0 -20 0 0 -1 40 0 0 1 I I #
convexity-sys-attrib $-1 $-1 $854 $727 #
point $-1 30 -30 20 #
edge $-1 $931 -30 $859 -10 $863 $842 forward 7 unknown #
point $-1 -30 -10 10 #
vertex $-1 $861 $973 #
convexity-sys-attrib $-1 $-1 $867 $744 #
vertex $-1 $887 $974 #
straight-curve $-1 -30 -30 7.5 0 0 -1 I I #
coedge $-1 $962 $961 $872 $934 reversed $952 $-1 #
edge $975 $939 -40 $942 40 $933 $976 forward 7 unknown #
coedge $-1 $959 $873 $878 $945 forward $937 $-1 #
coedge $-1 $873 $959 $962 $977 forward $937 $-1 #
loop $-1 $-1 $935 $951 #
attrib_edge_convexity-kcp-attrib $-1 $978 $-1 $874 1 #
vertex $-1 $934 $979 #
ellipse-curve $-1 -40 0 20 0 0 1 40 0 0 1 I I #
attrib_edge_convexity-kcp-attrib $-1 $980 $-1 $876 1 #
vertex $-1 $876 $981 #
ellipse-curve $-1 40 0 20 0 0 1 40 0 0 1 I I #
edge $-1 $922 -20 $881 20 $877 $982 reversed 7 unknown #
edge $-1 $882 -20 $967 20 $878 $983 forward 7 unknown #
face $984 $-1 $879 $10 $-1 $985 reversed single #
convexity-sys-attrib $-1 $-1 $880 $753 #
point $-1 40 40 20 #
point $-1 -40 40 20 #
model_id-kcp-attrib $-1 $-1 $-1 $885 1 990663538 60 1648099329 17 #
face $986 $970 $937 $10 $-1 $987 forward single #
loop $-1 $-1 $933 $885 #
plane-surface $-1 0 -40 0 0 1 0 0 0 1 forward_v I I I I #
straight-curve $-1 0 -30 10 1 0 0 I I #
point $-1 40 -40 20 #
point $-1 40 40 20 #
straight-curve $-1 -80 40 0 0 0 -1 I I #
straight-curve $-1 30 -30 7.5 0 0 1 I I #
coedge $-1 $936 $935 $914 $960 reversed $937 $-1 #
edge $-1 $964 1.5707963267948966 $967 4.7123889803846897 $914 $988 forward 7 unknown #
coedge $-1 $933 $915 $920 $969 forward $952 $-1 #
coedge $-1 $915 $933 $936 $977 reversed $952 $-1 #
model_id-kcp-attrib $-1 $989 $-1 $916 1 990663538 60 1648099329 23 #
vertex $-1 $960 $990 #
straight-curve $-1 0 -40 -20 -1 0 0 I I #
model_id-kcp-attrib $-1 $-1 $-1 $918 1 990663538 60 1648099329 22 #
vertex $-1 $918 $991 #
straight-curve $-1 0 40 -20 1 0 0 I I #
edge $992 $923 -20 $942 20 $961 $993 reversed 7 unknown #
face $994 $946 $921 $10 $-1 $995 forward single #
point $-1 40 40 -20 #
point $-1 40 -40 -20 #
point $-1 30 -30 10 #
point $-1 -30 -30 10 #
attrib_edge_convexity-kcp-attrib $-1 $996 $-1 $934 1 #
straight-curve $-1 0 -40 20 1 0 0 I I #
edge $997 $964 -20 $939 20 $962 $998 reversed 7 unknown #
convexity-sys-attrib $-1 $-1 $938 $874 #
point $-1 -40 -40 20 #
convexity-sys-attrib $-1 $-1 $941 $876 #
point $-1 40 -40 20 #
straight-curve $-1 40 40 0 0 0 -1 I I #
straight-curve $-1 -40 40 0 0 0 -1 I I #
model_id-kcp-attrib $-1 $-1 $-1 $946 1 990663538 60 1648099329 20 #
plane-surface $-1 0 40 0 0 -1 0 0 0 -1 forward_v I I I I #
model_id-kcp-attrib $-1 $-1 $-1 $951 1 990663538 60 1648099329 18 #
cone-surface $-1 -40 0 0 0 0 1 40 0 0 1 I I 0 1 40 forward I I I I #
ellipse-curve $-1 -40 0 -20 0 0 -1 40 0 0 1 I I #
attrib_edge_convexity-kcp-attrib $-1 $999 $963 $916 1 #
point $-1 -40 -40 -20 #
point $-1 -40 40 -20 #
attrib_edge_convexity-kcp-attrib $-1 $1000 $-1 $969 3 #
straight-curve $-1 40 -40 0 0 0 -1 I I #
model_id-kcp-attrib $-1 $-1 $-1 $970 1 990663538 60 1648099329 19 #
cone-surface $-1 40 0 0 0 0 1 40 0 0 1 I I 0 1 40 forward I I I I #
convexity-sys-attrib $-1 $-1 $975 $934 #
attrib_edge_convexity-kcp-attrib $-1 $1001 $-1 $977 3 #
straight-curve $-1 -40 -40 0 0 0 -1 I I #
convexity-sys-attrib $-1 $-1 $989 $916 #
convexity-sys-attrib $-1 $-1 $992 $969 #
convexity-sys-attrib $-1 $-1 $997 $977 #
End-of-ACIS-data 