700 0 2 0           
24 FBMach with ACIS - 7.0.3 13 ACIS 7.0.3 NT 24 Tue May 14 09:20:10 2002 
1 9.9999999999999995e-007 1e-010 
body $2 -1 $-1 $3 $-1 $4 #
bdycol-kcp $-1 -1 1 5 $5 $6 $7 $8 $9 #
model_id-kcp-attrib $-1 -1 $-1 $-1 $0 1 1021382409 1021382409 1132396545 1 #
lump $-1 -1 $-1 $-1 $10 $0 #
transform $-1 -1 1 0 0 0 1 0 0 0 1 0 0 0 1 rotate no_reflect no_shear #
body $11 -1 $-1 $12 $-1 $13 #
body $14 -1 $-1 $15 $-1 $16 #
body $17 -1 $-1 $18 $-1 $19 #
body $20 -1 $-1 $21 $-1 $22 #
body $23 -1 $-1 $24 $-1 $25 #
shell $-1 -1 $-1 $-1 $-1 $26 $-1 $3 #
rgb_color-st-attrib $-1 -1 $27 $-1 $5 0.5 1 1 #
lump $-1 -1 $-1 $28 $29 $5 #
transform $-1 -1 1 0 0 0 1 0 0 0 1 0 0 0 1 no_rotate no_reflect no_shear #
model_id-kcp-attrib $-1 -1 $-1 $-1 $6 1 1021382409 1021382409 1132396546 1 #
lump $-1 -1 $-1 $-1 $30 $6 #
transform $-1 -1 1 0 0 0 1 0 0 0 1 0 0 0 1 no_rotate no_reflect no_shear #
rgb_color-st-attrib $-1 -1 $31 $-1 $7 1 0 0 #
lump $-1 -1 $-1 $-1 $32 $7 #
transform $-1 -1 1 0 0 0 1 0 0 0 1 0 0 0 1 no_rotate no_reflect no_shear #
rgb_color-st-attrib $-1 -1 $33 $-1 $8 1 0 0 #
lump $-1 -1 $-1 $-1 $34 $8 #
transform $-1 -1 1 0 0 0 1 0 0 0 1 0 0 0 1 no_rotate no_reflect no_shear #
rgb_color-st-attrib $-1 -1 $35 $-1 $9 1 0 0 #
lump $-1 -1 $-1 $-1 $36 $9 #
transform $-1 -1 1 0 0 0 1 0 0 0 1 0 0 0 1 no_rotate no_reflect no_shear #
face $37 -1 $-1 $38 $39 $10 $-1 $40 reversed single #
model_id-kcp-attrib $-1 -1 $-1 $11 $5 1 1021382409 1021382409 1127415811 1 #
lump $-1 -1 $-1 $-1 $41 $5 #
shell $-1 -1 $-1 $-1 $-1 $42 $-1 $12 #
shell $-1 -1 $-1 $-1 $-1 $43 $-1 $15 #
model_id-kcp-attrib $-1 -1 $-1 $17 $7 1 1021382409 1021382410 1129578501 1 #
shell $-1 -1 $-1 $-1 $-1 $44 $-1 $18 #
model_id-kcp-attrib $-1 -1 $-1 $20 $8 1 1021382409 1021382410 1133248516 1 #
shell $-1 -1 $-1 $-1 $-1 $45 $-1 $21 #
model_id-kcp-attrib $-1 -1 $-1 $23 $9 1 1021382409 1021382410 1139408902 1 #
shell $-1 -1 $-1 $-1 $-1 $46 $-1 $24 #
model_id-kcp-attrib $-1 -1 $-1 $-1 $26 1 1021382409 1021382409 1132396545 2 #
face $47 -1 $-1 $48 $49 $10 $-1 $50 reversed single #
loop $-1 -1 $-1 $51 $52 $26 #
cone-surface $-1 -1 $-1 -40 0 0 0 0 1 10 0 0 1 I I 0 1 10 forward I I I I #
shell $-1 -1 $-1 $-1 $-1 $53 $-1 $28 #
face $-1 -1 $-1 $54 $55 $29 $-1 $56 reversed single #
face $57 -1 $-1 $58 $59 $30 $-1 $60 forward single #
face $-1 -1 $-1 $61 $62 $32 $-1 $63 forward single #
face $-1 -1 $-1 $64 $65 $34 $-1 $66 forward single #
face $-1 -1 $-1 $67 $68 $36 $-1 $69 forward single #
model_id-kcp-attrib $-1 -1 $-1 $-1 $38 1 1021382409 1021382409 1132396545 3 #
face $70 -1 $-1 $71 $72 $10 $-1 $73 forward single #
loop $-1 -1 $-1 $74 $75 $38 #
cone-surface $-1 -1 $-1 40 0 0 0 0 1 10 0 0 1 I I 0 1 10 forward I I I I #
loop $-1 -1 $-1 $-1 $76 $26 #
coedge $-1 -1 $-1 $77 $78 $79 $80 reversed $39 $-1 #
face $-1 -1 $-1 $81 $82 $41 $-1 $83 reversed single #
face $-1 -1 $-1 $84 $85 $29 $-1 $56 reversed single #
loop $-1 -1 $-1 $-1 $86 $42 #
cone-surface $-1 -1 $-1 -40 0 20 0 0 1 0 -40 0 1 I I 0 1 40 forward I I I I #
model_id-kcp-attrib $-1 -1 $-1 $-1 $43 1 1021382409 1021382409 1132396546 2 #
face $87 -1 $-1 $88 $89 $30 $-1 $90 reversed single #
loop $-1 -1 $-1 $-1 $91 $43 #
plane-surface $-1 -1 $-1 0 0 20 0 0 1 1 0 0 forward_v I I I I #
face $-1 -1 $-1 $92 $93 $32 $-1 $94 forward single #
loop $-1 -1 $-1 $-1 $95 $44 #
plane-surface $-1 -1 $-1 -30 -30 10 -1 0 0 0 0 1 forward_v I I I I #
face $-1 -1 $-1 $96 $97 $34 $-1 $98 forward single #
loop $-1 -1 $-1 $-1 $99 $45 #
plane-surface $-1 -1 $-1 40 -10 0 0 -1 0 0 0 -1 forward_v I I I I #
face $-1 -1 $-1 $100 $101 $36 $-1 $102 forward single #
loop $-1 -1 $-1 $-1 $103 $46 #
plane-surface $-1 -1 $-1 30 30 10 1 0 0 0 0 -1 forward_v I I I I #
model_id-kcp-attrib $-1 -1 $-1 $-1 $48 1 1021382409 1021382409 1132396545 4 #
face $104 -1 $-1 $105 $106 $10 $-1 $107 reversed single #
loop $-1 -1 $-1 $-1 $108 $48 #
plane-surface $-1 -1 $-1 0 0 0 0 0 1 1 0 0 forward_v I I I I #
loop $-1 -1 $-1 $-1 $109 $38 #
coedge $-1 -1 $-1 $110 $111 $112 $113 forward $49 $-1 #
coedge $-1 -1 $-1 $76 $76 $114 $115 reversed $51 $-1 #
coedge $-1 -1 $-1 $116 $52 $117 $118 reversed $39 $-1 #
coedge $-1 -1 $-1 $52 $116 $108 $119 reversed $39 $-1 #
coedge $-1 -1 $-1 $120 $121 $52 $80 forward $122 $-1 #
edge $123 -1 $-1 $124 -10 $125 10 $79 $126 forward @7 unknown #
face $-1 -1 $-1 $127 $128 $41 $-1 $129 reversed single #
loop $-1 -1 $-1 $-1 $130 $53 #
plane-surface $-1 -1 $-1 80 0 0 -1 0 0 0 0 1 forward_v I I I I #
face $-1 -1 $-1 $131 $132 $29 $-1 $133 reversed single #
loop $-1 -1 $-1 $-1 $134 $54 #
coedge $-1 -1 $-1 $135 $136 $137 $138 reversed $55 $-1 #
model_id-kcp-attrib $-1 -1 $-1 $-1 $58 1 1021382409 1021382409 1132396546 3 #
face $139 -1 $-1 $140 $141 $30 $-1 $142 reversed single #
loop $-1 -1 $-1 $-1 $143 $58 #
plane-surface $-1 -1 $-1 0 0 -20 0 0 1 1 0 0 forward_v I I I I #
coedge $-1 -1 $-1 $144 $145 $146 $147 forward $59 $-1 #
face $-1 -1 $-1 $148 $149 $32 $-1 $150 forward single #
loop $-1 -1 $-1 $-1 $151 $61 #
plane-surface $-1 -1 $-1 -30 -10 10 0 1 0 0 0 1 forward_v I I I I #
coedge $-1 -1 $-1 $152 $153 $154 $155 forward $62 $-1 #
face $-1 -1 $-1 $156 $157 $34 $-1 $158 forward single #
loop $-1 -1 $-1 $-1 $159 $64 #
plane-surface $-1 -1 $-1 -40 10 0 0 1 0 0 0 1 forward_v I I I I #
coedge $-1 -1 $-1 $160 $161 $162 $163 forward $65 $-1 #
face $-1 -1 $-1 $164 $165 $36 $-1 $166 forward single #
loop $-1 -1 $-1 $-1 $167 $67 #
plane-surface $-1 -1 $-1 30 10 10 0 -1 0 0 0 -1 forward_v I I I I #
coedge $-1 -1 $-1 $168 $169 $170 $171 forward $68 $-1 #
model_id-kcp-attrib $-1 -1 $-1 $-1 $71 1 1021382409 1021382409 1132396545 5 #
face $172 -1 $-1 $173 $174 $10 $-1 $175 forward single #
loop $-1 -1 $-1 $-1 $176 $71 #
plane-surface $-1 -1 $-1 0 30 0 0 1 0 0 0 1 forward_v I I I I #
coedge $-1 -1 $-1 $177 $178 $78 $119 forward $72 $-1 #
coedge $-1 -1 $-1 $109 $109 $179 $180 reversed $74 $-1 #
coedge $-1 -1 $-1 $181 $75 $182 $183 reversed $49 $-1 #
coedge $-1 -1 $-1 $75 $181 $184 $185 reversed $49 $-1 #
coedge $-1 -1 $-1 $186 $187 $75 $113 reversed $188 $-1 #
edge $189 -1 $-1 $190 -10 $191 10 $112 $192 reversed @7 unknown #
coedge $-1 -1 $-1 $114 $114 $76 $115 forward $193 $-1 #
edge $194 -1 $-1 $195 0 $195 6.2831853071795862 $114 $196 forward @7 unknown #
coedge $-1 -1 $-1 $78 $77 $197 $198 reversed $39 $-1 #
coedge $-1 -1 $-1 $199 $200 $77 $118 forward $201 $-1 #
edge $202 -1 $-1 $203 1.5707963267948966 $124 4.7123889803846897 $117 $204 forward @7 unknown #
edge $205 -1 $-1 $125 -1.5707963267948966 $206 1.5707963267948966 $108 $207 forward @7 unknown #
coedge $-1 -1 $-1 $208 $79 $178 $209 forward $122 $-1 #
coedge $-1 -1 $-1 $79 $210 $199 $211 reversed $122 $-1 #
loop $-1 -1 $-1 $-1 $212 $213 #
attrib_edge_convexity-kcp-attrib $-1 -1 $214 $-1 $80 4 #
vertex $-1 -1 $-1 $118 $215 #
vertex $-1 -1 $-1 $209 $216 #
straight-curve $-1 -1 $-1 -40 10 10 0 0 -1 I I #
face $-1 -1 $-1 $217 $218 $41 $-1 $129 reversed single #
loop $-1 -1 $-1 $-1 $219 $81 #
plane-surface $-1 -1 $-1 0 0 -20 0 0 1 1 0 0 forward_v I I I I #
coedge $-1 -1 $-1 $220 $221 $222 $223 forward $82 $-1 #
face $-1 -1 $-1 $224 $225 $29 $-1 $226 reversed single #
loop $-1 -1 $-1 $-1 $227 $84 #
plane-surface $-1 -1 $-1 -80 0 0 1 0 0 0 0 -1 forward_v I I I I #
coedge $-1 -1 $-1 $228 $229 $230 $231 reversed $85 $-1 #
coedge $-1 -1 $-1 $232 $86 $233 $234 reversed $55 $-1 #
coedge $-1 -1 $-1 $86 $232 $228 $235 forward $55 $-1 #
coedge $-1 -1 $-1 $236 $237 $86 $138 forward $238 $-1 #
edge $-1 -1 $-1 $239 0 $240 1.5707963267948966 $137 $241 forward @7 unknown #
model_id-kcp-attrib $-1 -1 $-1 $-1 $88 1 1021382409 1021382409 1132396546 4 #
face $-1 -1 $-1 $242 $243 $30 $-1 $244 reversed single #
loop $-1 -1 $-1 $-1 $245 $88 #
plane-surface $-1 -1 $-1 0 -40 0 0 1 0 0 0 1 forward_v I I I I #
coedge $-1 -1 $-1 $246 $247 $248 $249 forward $89 $-1 #
coedge $-1 -1 $-1 $250 $91 $251 $252 forward $59 $-1 #
coedge $-1 -1 $-1 $91 $250 $253 $254 forward $59 $-1 #
coedge $-1 -1 $-1 $255 $256 $91 $147 reversed $257 $-1 #
edge $-1 -1 $-1 $258 -40 $259 40 $146 $260 forward @7 unknown #
face $-1 -1 $-1 $261 $262 $32 $-1 $263 forward single #
loop $-1 -1 $-1 $-1 $264 $92 #
plane-surface $-1 -1 $-1 30 -10 10 1 0 0 0 0 -1 forward_v I I I I #
coedge $-1 -1 $-1 $265 $266 $267 $268 forward $93 $-1 #
coedge $-1 -1 $-1 $269 $95 $266 $270 reversed $62 $-1 #
coedge $-1 -1 $-1 $95 $269 $271 $272 forward $62 $-1 #
coedge $-1 -1 $-1 $273 $267 $95 $155 reversed $274 $-1 #
edge $-1 -1 $-1 $275 -20 $276 0 $95 $277 forward @7 unknown #
face $-1 -1 $-1 $278 $279 $34 $-1 $280 forward single #
loop $-1 -1 $-1 $-1 $281 $96 #
cone-surface $-1 -1 $-1 40 0 0 0 0 1 10 0 0 1 I I 0 1 10 forward I I I I #
coedge $-1 -1 $-1 $282 $283 $284 $285 forward $97 $-1 #
coedge $-1 -1 $-1 $286 $99 $287 $288 reversed $65 $-1 #
coedge $-1 -1 $-1 $99 $286 $289 $290 forward $65 $-1 #
coedge $-1 -1 $-1 $291 $292 $99 $163 reversed $293 $-1 #
edge $-1 -1 $-1 $294 -40 $295 40 $99 $296 forward @7 unknown #
face $-1 -1 $-1 $297 $298 $36 $-1 $299 forward single #
loop $-1 -1 $-1 $-1 $300 $100 #
plane-surface $-1 -1 $-1 -30 10 10 -1 0 0 0 0 1 forward_v I I I I #
coedge $-1 -1 $-1 $301 $302 $303 $304 forward $101 $-1 #
coedge $-1 -1 $-1 $305 $103 $302 $306 reversed $68 $-1 #
coedge $-1 -1 $-1 $103 $305 $307 $308 forward $68 $-1 #
coedge $-1 -1 $-1 $309 $303 $103 $171 reversed $310 $-1 #
edge $-1 -1 $-1 $311 -20 $312 0 $103 $313 forward @7 unknown #
model_id-kcp-attrib $-1 -1 $-1 $-1 $105 1 1021382409 1021382409 1132396545 6 #
face $314 -1 $-1 $315 $316 $10 $-1 $317 forward single #
loop $-1 -1 $-1 $-1 $318 $105 #
plane-surface $-1 -1 $-1 0 0 10 0 0 1 1 0 0 forward_v I I I I #
coedge $-1 -1 $-1 $319 $320 $321 $322 reversed $106 $-1 #
coedge $-1 -1 $-1 $184 $108 $186 $323 reversed $72 $-1 #
coedge $-1 -1 $-1 $108 $184 $120 $209 reversed $72 $-1 #
coedge $-1 -1 $-1 $179 $179 $109 $180 forward $324 $-1 #
edge $325 -1 $-1 $326 0 $326 6.2831853071795862 $179 $327 forward @7 unknown #
coedge $-1 -1 $-1 $111 $110 $208 $328 reversed $49 $-1 #
coedge $-1 -1 $-1 $329 $330 $110 $183 forward $201 $-1 #
edge $331 -1 $-1 $332 -1.5707963267948966 $191 1.5707963267948966 $182 $333 forward @7 unknown #
coedge $-1 -1 $-1 $178 $177 $111 $185 forward $72 $-1 #
edge $334 -1 $-1 $190 1.5707963267948966 $335 4.7123889803846897 $184 $336 forward @7 unknown #
coedge $-1 -1 $-1 $197 $112 $177 $323 forward $188 $-1 #
coedge $-1 -1 $-1 $112 $337 $329 $338 reversed $188 $-1 #
loop $-1 -1 $-1 $-1 $337 $339 #
attrib_edge_convexity-kcp-attrib $-1 -1 $340 $-1 $113 4 #
vertex $-1 -1 $-1 $113 $341 #
vertex $-1 -1 $-1 $338 $342 #
straight-curve $-1 -1 $-1 40 -10 10 0 0 -1 I I #
loop $-1 -1 $-1 $324 $114 $343 #
attrib_edge_convexity-kcp-attrib $-1 -1 $344 $-1 $115 1 #
vertex $-1 -1 $-1 $115 $345 #
ellipse-curve $-1 -1 $-1 -40 0 -20 0 0 1 10 0 0 1 I I #
coedge $-1 -1 $-1 $346 $186 $116 $198 forward $188 $-1 #
edge $347 -1 $-1 $206 -10 $203 10 $197 $348 reversed @7 unknown #
coedge $-1 -1 $-1 $349 $117 $121 $211 forward $201 $-1 #
coedge $-1 -1 $-1 $117 $350 $346 $351 forward $201 $-1 #
loop $-1 -1 $-1 $352 $117 $315 #
attrib_edge_convexity-kcp-attrib $-1 -1 $353 $-1 $118 1 #
vertex $-1 -1 $-1 $351 $354 #
ellipse-curve $-1 -1 $-1 -40 0 20 0 0 -1 10 0 0 1 I I #
attrib_edge_convexity-kcp-attrib $-1 -1 $355 $-1 $119 1 #
vertex $-1 -1 $-1 $119 $356 #
ellipse-curve $-1 -1 $-1 -40 0 0 0 0 -1 10 0 0 1 I I #
coedge $-1 -1 $-1 $357 $120 $181 $328 forward $122 $-1 #
edge $358 -1 $-1 $125 -40 $335 40 $120 $359 forward @7 unknown #
coedge $-1 -1 $-1 $121 $360 $361 $362 reversed $122 $-1 #
edge $363 -1 $-1 $124 -40 $364 -30 $199 $365 forward @7 unknown #
coedge $-1 -1 $-1 $360 $357 $366 $367 reversed $122 $-1 #
face $368 -1 $-1 $369 $122 $10 $-1 $370 forward single #
convexity-sys-attrib $-1 -1 $-1 $123 $80 #
point $-1 -1 $-1 -40 10 20 #
point $-1 -1 $-1 -40 10 0 #
face $-1 -1 $-1 $371 $372 $41 $-1 $373 reversed single #
loop $-1 -1 $-1 $-1 $374 $127 #
coedge $-1 -1 $-1 $375 $376 $377 $378 forward $128 $-1 #
coedge $-1 -1 $-1 $379 $130 $380 $381 reversed $82 $-1 #
coedge $-1 -1 $-1 $130 $379 $382 $383 reversed $82 $-1 #
coedge $-1 -1 $-1 $384 $385 $386 $223 reversed $387 $-1 #
edge $-1 -1 $-1 $388 -40 $389 0 $130 $390 forward @7 unknown #
face $-1 -1 $-1 $391 $238 $29 $-1 $392 forward single #
loop $-1 -1 $-1 $-1 $393 $131 #
plane-surface $-1 -1 $-1 0 40 0 0 -1 0 0 0 -1 forward_v I I I I #
coedge $-1 -1 $-1 $394 $395 $136 $235 reversed $132 $-1 #
coedge $-1 -1 $-1 $396 $134 $397 $235 reversed $85 $-1 #
coedge $-1 -1 $-1 $134 $396 $393 $398 forward $85 $-1 #
coedge $-1 -1 $-1 $399 $400 $134 $231 forward $401 $-1 #
edge $-1 -1 $-1 $240 1.5707963267948966 $402 3.1415926535897931 $230 $241 forward @7 unknown #
coedge $-1 -1 $-1 $136 $135 $403 $404 reversed $55 $-1 #
coedge $-1 -1 $-1 $405 $406 $135 $234 forward $407 $-1 #
edge $-1 -1 $-1 $408 -40 $239 0 $233 $409 forward @7 unknown #
edge $-1 -1 $-1 $410 -40 $240 0 $397 $411 forward @7 unknown #
coedge $-1 -1 $-1 $237 $137 $395 $412 forward $238 $-1 #
coedge $-1 -1 $-1 $137 $236 $405 $413 forward $238 $-1 #
loop $-1 -1 $-1 $-1 $137 $224 #
vertex $-1 -1 $-1 $234 $414 #
vertex $-1 -1 $-1 $412 $415 #
ellipse-curve $-1 -1 $-1 -40 0 20 0 0 -1 0 -40 0 1 I I #
face $416 -1 $-1 $417 $418 $30 $-1 $419 reversed single #
loop $-1 -1 $-1 $-1 $420 $140 #
plane-surface $-1 -1 $-1 -80 0 0 1 0 0 0 0 -1 forward_v I I I I #
coedge $-1 -1 $-1 $421 $253 $422 $423 forward $141 $-1 #
coedge $-1 -1 $-1 $424 $143 $421 $425 forward $89 $-1 #
coedge $-1 -1 $-1 $143 $424 $426 $427 forward $89 $-1 #
coedge $-1 -1 $-1 $256 $255 $143 $249 reversed $257 $-1 #
edge $-1 -1 $-1 $428 -40 $429 40 $248 $430 forward @7 unknown #
coedge $-1 -1 $-1 $145 $144 $431 $432 forward $59 $-1 #
coedge $-1 -1 $-1 $433 $434 $144 $252 reversed $418 $-1 #
edge $-1 -1 $-1 $259 -80 $435 80 $251 $436 forward @7 unknown #
coedge $-1 -1 $-1 $245 $437 $145 $254 reversed $141 $-1 #
edge $-1 -1 $-1 $438 -80 $258 80 $253 $439 forward @7 unknown #
coedge $-1 -1 $-1 $248 $146 $437 $440 forward $257 $-1 #
coedge $-1 -1 $-1 $146 $248 $433 $441 reversed $257 $-1 #
loop $-1 -1 $-1 $-1 $255 $417 #
vertex $-1 -1 $-1 $147 $442 #
vertex $-1 -1 $-1 $147 $443 #
straight-curve $-1 -1 $-1 80 0 20 0 1 0 I I #
face $-1 -1 $-1 $444 $274 $32 $-1 $445 forward single #
loop $-1 -1 $-1 $-1 $446 $148 #
plane-surface $-1 -1 $-1 30 -30 10 0 -1 0 0 0 -1 forward_v I I I I #
coedge $-1 -1 $-1 $447 $448 $449 $450 forward $149 $-1 #
coedge $-1 -1 $-1 $451 $151 $448 $452 reversed $93 $-1 #
coedge $-1 -1 $-1 $151 $451 $152 $270 forward $93 $-1 #
coedge $-1 -1 $-1 $154 $449 $151 $268 reversed $274 $-1 #
edge $-1 -1 $-1 $276 -50 $453 10 $151 $454 forward @7 unknown #
coedge $-1 -1 $-1 $153 $152 $455 $456 reversed $62 $-1 #
edge $-1 -1 $-1 $457 0 $276 10 $266 $458 forward @7 unknown #
coedge $-1 -1 $-1 $459 $446 $153 $272 reversed $262 $-1 #
edge $460 -1 $-1 $461 0 $275 10 $153 $462 forward @7 unknown #
coedge $-1 -1 $-1 $449 $154 $446 $463 reversed $274 $-1 #
loop $-1 -1 $-1 $-1 $154 $261 #
vertex $-1 -1 $-1 $272 $464 #
vertex $-1 -1 $-1 $270 $465 #
straight-curve $-1 -1 $-1 -30 -10 20 0 1 0 I I #
face $-1 -1 $-1 $466 $293 $34 $-1 $467 forward single #
loop $-1 -1 $-1 $-1 $468 $156 #
cone-surface $-1 -1 $-1 -40 0 0 0 0 1 10 0 0 1 I I 0 1 10 forward I I I I #
coedge $-1 -1 $-1 $289 $469 $291 $470 forward $157 $-1 #
coedge $-1 -1 $-1 $471 $159 $469 $472 reversed $97 $-1 #
coedge $-1 -1 $-1 $159 $471 $473 $474 forward $97 $-1 #
coedge $-1 -1 $-1 $292 $291 $159 $285 reversed $293 $-1 #
edge $-1 -1 $-1 $475 -40 $476 40 $159 $477 forward @7 unknown #
coedge $-1 -1 $-1 $161 $160 $478 $479 reversed $65 $-1 #
coedge $-1 -1 $-1 $468 $480 $160 $288 forward $279 $-1 #
edge $481 -1 $-1 $482 0 $295 20 $287 $483 forward @7 unknown #
coedge $-1 -1 $-1 $484 $281 $161 $290 reversed $157 $-1 #
edge $485 -1 $-1 $486 0 $294 20 $161 $487 forward @7 unknown #
coedge $-1 -1 $-1 $284 $162 $281 $470 reversed $293 $-1 #
coedge $-1 -1 $-1 $162 $284 $468 $488 reversed $293 $-1 #
loop $-1 -1 $-1 $-1 $284 $278 #
vertex $-1 -1 $-1 $290 $489 #
vertex $-1 -1 $-1 $288 $490 #
straight-curve $-1 -1 $-1 0 -10 20 -1 0 0 I I #
face $-1 -1 $-1 $491 $310 $36 $-1 $492 forward single #
loop $-1 -1 $-1 $-1 $493 $164 #
plane-surface $-1 -1 $-1 -30 30 10 0 1 0 0 0 1 forward_v I I I I #
coedge $-1 -1 $-1 $494 $495 $496 $497 forward $165 $-1 #
coedge $-1 -1 $-1 $498 $167 $495 $499 reversed $101 $-1 #
coedge $-1 -1 $-1 $167 $498 $168 $306 forward $101 $-1 #
coedge $-1 -1 $-1 $170 $496 $167 $304 reversed $310 $-1 #
edge $-1 -1 $-1 $312 -50 $500 10 $167 $501 forward @7 unknown #
coedge $-1 -1 $-1 $169 $168 $502 $503 reversed $68 $-1 #
edge $-1 -1 $-1 $504 0 $312 10 $302 $505 forward @7 unknown #
coedge $-1 -1 $-1 $506 $493 $169 $308 reversed $298 $-1 #
edge $507 -1 $-1 $508 0 $311 10 $169 $509 forward @7 unknown #
coedge $-1 -1 $-1 $496 $170 $493 $510 reversed $310 $-1 #
loop $-1 -1 $-1 $-1 $170 $297 #
vertex $-1 -1 $-1 $308 $511 #
vertex $-1 -1 $-1 $306 $512 #
straight-curve $-1 -1 $-1 30 10 20 0 -1 0 I I #
model_id-kcp-attrib $-1 -1 $-1 $-1 $173 1 1021382409 1021382409 1132396545 7 #
face $513 -1 $-1 $514 $201 $10 $-1 $515 forward single #
loop $-1 -1 $-1 $-1 $516 $173 #
plane-surface $-1 -1 $-1 -30 0 15 1 0 0 0 0 -1 forward_v I I I I #
coedge $-1 -1 $-1 $517 $518 $320 $519 forward $174 $-1 #
coedge $-1 -1 $-1 $520 $176 $521 $522 reversed $106 $-1 #
coedge $-1 -1 $-1 $176 $520 $318 $519 reversed $106 $-1 #
coedge $-1 -1 $-1 $523 $524 $176 $322 forward $525 $-1 #
edge $-1 -1 $-1 $526 -12.5 $527 -2.5 $321 $528 forward @7 unknown #
edge $529 -1 $-1 $190 -40 $206 40 $186 $530 forward @7 unknown #
loop $-1 -1 $-1 $531 $179 $343 #
attrib_edge_convexity-kcp-attrib $-1 -1 $532 $-1 $180 1 #
vertex $-1 -1 $-1 $180 $533 #
ellipse-curve $-1 -1 $-1 40 0 -20 0 0 1 10 0 0 1 I I #
edge $534 -1 $-1 $335 -10 $332 10 $208 $535 reversed @7 unknown #
coedge $-1 -1 $-1 $536 $182 $187 $338 forward $201 $-1 #
coedge $-1 -1 $-1 $182 $537 $357 $538 forward $201 $-1 #
attrib_edge_convexity-kcp-attrib $-1 -1 $539 $-1 $183 1 #
vertex $-1 -1 $-1 $538 $540 #
ellipse-curve $-1 -1 $-1 40 0 20 0 0 -1 10 0 0 1 I I #
attrib_edge_convexity-kcp-attrib $-1 -1 $541 $-1 $185 1 #
vertex $-1 -1 $-1 $185 $542 #
ellipse-curve $-1 -1 $-1 40 0 0 0 0 -1 10 0 0 1 I I #
coedge $-1 -1 $-1 $187 $543 $544 $545 reversed $188 $-1 #
edge $546 -1 $-1 $191 -40 $547 -30 $329 $548 forward @7 unknown #
face $549 -1 $-1 $213 $188 $10 $-1 $550 forward single #
convexity-sys-attrib $-1 -1 $-1 $189 $113 #
point $-1 -1 $-1 40 -10 0 #
point $-1 -1 $-1 40 -10 20 #
face $551 -1 $-1 $552 $193 $10 $-1 $553 reversed single #
convexity-sys-attrib $-1 -1 $-1 $194 $115 #
point $-1 -1 $-1 -30 0 -20 #
coedge $-1 -1 $-1 $554 $197 $200 $351 reversed $188 $-1 #
attrib_edge_convexity-kcp-attrib $-1 -1 $555 $-1 $198 4 #
straight-curve $-1 -1 $-1 -40 -10 10 0 0 -1 I I #
coedge $-1 -1 $-1 $521 $199 $556 $557 forward $201 $-1 #
coedge $-1 -1 $-1 $200 $558 $559 $560 forward $201 $-1 #
edge $561 -1 $-1 $562 30 $203 40 $200 $548 forward @7 unknown #
loop $-1 -1 $-1 $-1 $563 $315 #
convexity-sys-attrib $-1 -1 $-1 $202 $118 #
point $-1 -1 $-1 -40 -10 20 #
convexity-sys-attrib $-1 -1 $-1 $205 $119 #
point $-1 -1 $-1 -40 -10 0 #
coedge $-1 -1 $-1 $212 $208 $330 $538 reversed $122 $-1 #
attrib_edge_convexity-kcp-attrib $-1 -1 $564 $-1 $209 2 #
straight-curve $-1 -1 $-1 0 10 0 1 0 0 I I #
coedge $-1 -1 $-1 $210 $212 $565 $566 reversed $122 $-1 #
coedge $-1 -1 $-1 $567 $556 $210 $362 forward $316 $-1 #
edge $-1 -1 $-1 $364 -5 $568 5 $361 $569 forward @7 unknown #
attrib_edge_convexity-kcp-attrib $-1 -1 $570 $-1 $211 1 #
vertex $-1 -1 $-1 $362 $571 #
straight-curve $-1 -1 $-1 0 10 20 1 0 0 I I #
coedge $-1 -1 $-1 $524 $523 $212 $367 forward $525 $-1 #
edge $-1 -1 $-1 $572 -5 $573 5 $366 $574 forward @7 unknown #
model_id-kcp-attrib $-1 -1 $-1 $-1 $213 1 1021382409 1021382409 1132396545 13 #
face $575 -1 $-1 $576 $577 $10 $-1 $175 forward single #
plane-surface $-1 -1 $-1 0 10 10 0 -1 0 0 0 -1 forward_v I I I I #
face $-1 -1 $-1 $578 $579 $41 $-1 $392 forward single #
loop $-1 -1 $-1 $-1 $580 $217 #
plane-surface $-1 -1 $-1 0 -40 0 0 1 0 0 0 1 forward_v I I I I #
coedge $-1 -1 $-1 $382 $581 $582 $583 forward $218 $-1 #
coedge $-1 -1 $-1 $376 $219 $584 $585 forward $128 $-1 #
coedge $-1 -1 $-1 $219 $375 $384 $586 forward $128 $-1 #
coedge $-1 -1 $-1 $386 $587 $219 $378 reversed $588 $-1 #
edge $-1 -1 $-1 $388 -1.5707963267948966 $589 0 $219 $590 forward @7 unknown #
coedge $-1 -1 $-1 $221 $220 $591 $592 forward $82 $-1 #
coedge $-1 -1 $-1 $593 $594 $220 $381 forward $595 $-1 #
edge $-1 -1 $-1 $596 -40 $389 0 $220 $597 forward @7 unknown #
coedge $-1 -1 $-1 $581 $374 $221 $383 forward $218 $-1 #
edge $-1 -1 $-1 $388 0 $598 40 $221 $599 forward @7 unknown #
coedge $-1 -1 $-1 $600 $222 $376 $586 reversed $387 $-1 #
coedge $-1 -1 $-1 $222 $600 $601 $602 reversed $387 $-1 #
coedge $-1 -1 $-1 $603 $377 $604 $223 forward $588 $-1 #
loop $-1 -1 $-1 $-1 $222 $605 #
vertex $-1 -1 $-1 $383 $606 #
vertex $-1 -1 $-1 $602 $607 #
straight-curve $-1 -1 $-1 80 0 20 0 0 1 I I #
face $-1 -1 $-1 $608 $609 $29 $-1 $129 reversed single #
plane-surface $-1 -1 $-1 0 0 20 0 0 1 1 0 0 forward_v I I I I #
coedge $-1 -1 $-1 $610 $611 $229 $398 reversed $225 $-1 #
coedge $-1 -1 $-1 $612 $227 $613 $614 reversed $132 $-1 #
coedge $-1 -1 $-1 $227 $612 $236 $412 reversed $132 $-1 #
coedge $-1 -1 $-1 $229 $228 $615 $616 reversed $85 $-1 #
coedge $-1 -1 $-1 $617 $618 $227 $235 forward $619 $-1 #
edge $-1 -1 $-1 $620 -40 $402 0 $393 $621 forward @7 unknown #
coedge $-1 -1 $-1 $400 $230 $611 $622 forward $401 $-1 #
coedge $-1 -1 $-1 $230 $399 $617 $623 forward $401 $-1 #
loop $-1 -1 $-1 $-1 $230 $608 #
vertex $-1 -1 $-1 $622 $624 #
coedge $-1 -1 $-1 $625 $613 $232 $404 forward $609 $-1 #
edge $-1 -1 $-1 $410 -1.5707963267948966 $408 0 $403 $626 forward @7 unknown #
coedge $-1 -1 $-1 $627 $233 $237 $413 reversed $407 $-1 #
coedge $-1 -1 $-1 $233 $627 $625 $628 reversed $407 $-1 #
loop $-1 -1 $-1 $-1 $233 $629 #
vertex $-1 -1 $-1 $628 $630 #
straight-curve $-1 -1 $-1 -40 -40 20 0 0 1 I I #
vertex $-1 -1 $-1 $631 $632 #
straight-curve $-1 -1 $-1 -80 0 20 0 0 1 I I #
edge $-1 -1 $-1 $240 0 $633 40 $395 $634 forward @7 unknown #
edge $-1 -1 $-1 $633 -80 $239 -40 $405 $635 forward @7 unknown #
point $-1 -1 $-1 -40 -40 20 #
point $-1 -1 $-1 -80 0 20 #
model_id-kcp-attrib $-1 -1 $-1 $-1 $242 1 1021382409 1021382409 1132396546 5 #
face $-1 -1 $-1 $-1 $257 $30 $-1 $636 reversed single #
loop $-1 -1 $-1 $-1 $433 $242 #
plane-surface $-1 -1 $-1 0 40 0 0 -1 0 0 0 -1 forward_v I I I I #
coedge $-1 -1 $-1 $637 $431 $434 $638 forward $243 $-1 #
coedge $-1 -1 $-1 $437 $245 $246 $425 reversed $141 $-1 #
coedge $-1 -1 $-1 $431 $637 $245 $423 reversed $243 $-1 #
edge $-1 -1 $-1 $438 -20 $639 20 $422 $640 forward @7 unknown #
coedge $-1 -1 $-1 $247 $246 $637 $641 forward $89 $-1 #
edge $-1 -1 $-1 $429 -80 $639 80 $421 $642 forward @7 unknown #
coedge $-1 -1 $-1 $434 $433 $247 $427 reversed $418 $-1 #
edge $-1 -1 $-1 $643 -80 $428 80 $426 $644 forward @7 unknown #
vertex $-1 -1 $-1 $249 $645 #
vertex $-1 -1 $-1 $440 $646 #
straight-curve $-1 -1 $-1 80 0 -20 0 -1 0 I I #
coedge $-1 -1 $-1 $420 $422 $250 $432 reversed $243 $-1 #
edge $-1 -1 $-1 $435 -40 $438 40 $431 $647 forward @7 unknown #
coedge $-1 -1 $-1 $426 $251 $256 $441 forward $418 $-1 #
coedge $-1 -1 $-1 $251 $426 $420 $638 reversed $418 $-1 #
vertex $-1 -1 $-1 $252 $648 #
straight-curve $-1 -1 $-1 0 40 20 -1 0 0 I I #
coedge $-1 -1 $-1 $253 $421 $255 $440 reversed $141 $-1 #
vertex $-1 -1 $-1 $432 $649 #
straight-curve $-1 -1 $-1 0 -40 20 1 0 0 I I #
edge $-1 -1 $-1 $258 -20 $429 20 $255 $650 forward @7 unknown #
edge $-1 -1 $-1 $259 -20 $428 20 $256 $651 forward @7 unknown #
point $-1 -1 $-1 80 -40 20 #
point $-1 -1 $-1 80 40 20 #
face $-1 -1 $-1 $-1 $652 $32 $-1 $653 reversed single #
plane-surface $-1 -1 $-1 0 -20 20 0 0 1 1 0 0 forward_v I I I I #
coedge $-1 -1 $-1 $271 $654 $273 $463 forward $262 $-1 #
coedge $-1 -1 $-1 $655 $264 $654 $656 reversed $149 $-1 #
coedge $-1 -1 $-1 $264 $655 $265 $452 forward $149 $-1 #
coedge $-1 -1 $-1 $267 $273 $264 $450 reversed $274 $-1 #
edge $-1 -1 $-1 $453 0 $657 20 $264 $658 forward @7 unknown #
coedge $-1 -1 $-1 $266 $265 $659 $660 reversed $93 $-1 #
edge $-1 -1 $-1 $661 0 $453 10 $448 $662 forward @7 unknown #
vertex $-1 -1 $-1 $452 $663 #
straight-curve $-1 -1 $-1 20 -10 20 1 0 0 I I #
coedge $-1 -1 $-1 $659 $664 $269 $456 forward $652 $-1 #
edge $665 -1 $-1 $461 -20 $457 0 $269 $666 forward @7 unknown #
vertex $-1 -1 $-1 $456 $667 #
straight-curve $-1 -1 $-1 -30 -10 10 0 0 1 I I #
coedge $-1 -1 $-1 $654 $271 $664 $668 reversed $262 $-1 #
convexity-sys-attrib $-1 -1 $-1 $-1 $272 #
vertex $-1 -1 $-1 $668 $669 #
straight-curve $-1 -1 $-1 -30 -30 10 0 0 1 I I #
edge $-1 -1 $-1 $657 -30 $275 30 $446 $670 forward @7 unknown #
point $-1 -1 $-1 -30 -30 20 #
point $-1 -1 $-1 -30 -10 20 #
face $-1 -1 $-1 $-1 $671 $34 $-1 $672 reversed single #
plane-surface $-1 -1 $-1 0 0 20 0 0 1 1 0 0 forward_v I I I I #
coedge $-1 -1 $-1 $473 $287 $292 $488 forward $279 $-1 #
coedge $-1 -1 $-1 $281 $484 $282 $472 forward $157 $-1 #
edge $-1 -1 $-1 $476 -1.5707963267948966 $294 1.5707963267948966 $281 $673 forward @7 unknown #
coedge $-1 -1 $-1 $283 $282 $674 $675 reversed $97 $-1 #
edge $676 -1 $-1 $677 0 $476 20 $469 $678 forward @7 unknown #
coedge $-1 -1 $-1 $480 $468 $283 $474 reversed $279 $-1 #
edge $679 -1 $-1 $680 0 $475 20 $283 $681 forward @7 unknown #
vertex $-1 -1 $-1 $474 $682 #
vertex $-1 -1 $-1 $472 $683 #
straight-curve $-1 -1 $-1 0 10 20 1 0 0 I I #
coedge $-1 -1 $-1 $684 $685 $286 $479 forward $671 $-1 #
edge $686 -1 $-1 $486 -40 $482 40 $286 $687 forward @7 unknown #
coedge $-1 -1 $-1 $287 $473 $684 $688 reversed $279 $-1 #
convexity-sys-attrib $-1 -1 $-1 $-1 $288 #
vertex $-1 -1 $-1 $688 $689 #
straight-curve $-1 -1 $-1 -40 -10 0 0 0 1 I I #
coedge $-1 -1 $-1 $469 $289 $685 $690 reversed $157 $-1 #
convexity-sys-attrib $-1 -1 $-1 $-1 $290 #
vertex $-1 -1 $-1 $690 $691 #
straight-curve $-1 -1 $-1 40 -10 0 0 0 1 I I #
edge $-1 -1 $-1 $295 1.5707963267948966 $475 4.7123889803846897 $468 $692 forward @7 unknown #
point $-1 -1 $-1 40 -10 20 #
point $-1 -1 $-1 -40 -10 20 #
face $-1 -1 $-1 $-1 $693 $36 $-1 $694 reversed single #
plane-surface $-1 -1 $-1 0 20 20 0 0 1 1 0 0 forward_v I I I I #
coedge $-1 -1 $-1 $307 $695 $309 $510 forward $298 $-1 #
coedge $-1 -1 $-1 $696 $300 $695 $697 reversed $165 $-1 #
coedge $-1 -1 $-1 $300 $696 $301 $499 forward $165 $-1 #
coedge $-1 -1 $-1 $303 $309 $300 $497 reversed $310 $-1 #
edge $-1 -1 $-1 $500 0 $698 20 $300 $699 forward @7 unknown #
coedge $-1 -1 $-1 $302 $301 $700 $701 reversed $101 $-1 #
edge $-1 -1 $-1 $702 0 $500 10 $495 $703 forward @7 unknown #
vertex $-1 -1 $-1 $499 $704 #
straight-curve $-1 -1 $-1 -20 10 20 -1 0 0 I I #
coedge $-1 -1 $-1 $700 $705 $305 $503 forward $693 $-1 #
edge $706 -1 $-1 $508 -20 $504 0 $305 $707 forward @7 unknown #
vertex $-1 -1 $-1 $503 $708 #
straight-curve $-1 -1 $-1 30 10 10 0 0 1 I I #
coedge $-1 -1 $-1 $695 $307 $705 $709 reversed $298 $-1 #
convexity-sys-attrib $-1 -1 $-1 $-1 $308 #
vertex $-1 -1 $-1 $709 $710 #
straight-curve $-1 -1 $-1 30 30 10 0 0 1 I I #
edge $-1 -1 $-1 $698 -30 $311 30 $493 $711 forward @7 unknown #
point $-1 -1 $-1 30 30 20 #
point $-1 -1 $-1 30 10 20 #
model_id-kcp-attrib $-1 -1 $-1 $-1 $315 1 1021382409 1021382409 1132396545 8 #
face $712 -1 $-1 $343 $713 $10 $-1 $714 reversed single #
plane-surface $-1 -1 $-1 0 0 20 0 0 1 1 0 0 forward_v I I I I #
coedge $-1 -1 $-1 $556 $567 $520 $715 forward $316 $-1 #
coedge $-1 -1 $-1 $565 $318 $567 $716 reversed $174 $-1 #
coedge $-1 -1 $-1 $318 $565 $523 $717 reversed $174 $-1 #
edge $718 -1 $-1 $527 -30 $719 30 $318 $720 forward @7 unknown #
coedge $-1 -1 $-1 $320 $319 $516 $715 reversed $106 $-1 #
coedge $-1 -1 $-1 $537 $349 $319 $522 forward $201 $-1 #
edge $721 -1 $-1 $722 -30 $526 30 $319 $723 forward @7 unknown #
coedge $-1 -1 $-1 $366 $321 $518 $717 forward $525 $-1 #
coedge $-1 -1 $-1 $321 $366 $537 $724 reversed $525 $-1 #
loop $-1 -1 $-1 $-1 $321 $576 #
vertex $-1 -1 $-1 $724 $725 #
vertex $-1 -1 $-1 $322 $726 #
straight-curve $-1 -1 $-1 30 30 7.5 0 0 -1 I I #
attrib_edge_convexity-kcp-attrib $-1 -1 $727 $-1 $323 2 #
straight-curve $-1 -1 $-1 0 -10 0 -1 0 0 I I #
loop $-1 -1 $-1 $-1 $728 $343 #
convexity-sys-attrib $-1 -1 $-1 $325 $180 #
point $-1 -1 $-1 50 0 -20 #
attrib_edge_convexity-kcp-attrib $-1 -1 $729 $-1 $328 4 #
straight-curve $-1 -1 $-1 40 10 10 0 0 -1 I I #
coedge $-1 -1 $-1 $558 $329 $730 $731 forward $201 $-1 #
coedge $-1 -1 $-1 $330 $521 $524 $724 forward $201 $-1 #
edge $732 -1 $-1 $573 30 $332 40 $330 $365 forward @7 unknown #
convexity-sys-attrib $-1 -1 $-1 $331 $183 #
point $-1 -1 $-1 40 10 20 #
convexity-sys-attrib $-1 -1 $-1 $334 $185 #
point $-1 -1 $-1 40 10 0 #
coedge $-1 -1 $-1 $337 $554 $733 $734 reversed $188 $-1 #
coedge $-1 -1 $-1 $735 $730 $337 $545 forward $736 $-1 #
edge $-1 -1 $-1 $547 -5 $737 5 $544 $738 forward @7 unknown #
attrib_edge_convexity-kcp-attrib $-1 -1 $739 $-1 $338 1 #
vertex $-1 -1 $-1 $545 $740 #
straight-curve $-1 -1 $-1 0 -10 20 -1 0 0 I I #
model_id-kcp-attrib $-1 -1 $-1 $-1 $339 1 1021382409 1021382409 1132396545 12 #
plane-surface $-1 -1 $-1 0 -10 10 0 1 0 0 0 1 forward_v I I I I #
model_id-kcp-attrib $-1 -1 $-1 $-1 $343 1 1021382409 1021382409 1132396545 10 #
face $741 -1 $-1 $339 $742 $10 $-1 $317 forward single #
plane-surface $-1 -1 $-1 0 0 -20 0 0 1 1 0 0 forward_v I I I I #
coedge $-1 -1 $-1 $543 $346 $743 $744 reversed $188 $-1 #
convexity-sys-attrib $-1 -1 $-1 $347 $198 #
coedge $-1 -1 $-1 $361 $516 $349 $557 reversed $316 $-1 #
edge $745 -1 $-1 $364 10 $722 30 $349 $746 forward @7 unknown #
coedge $-1 -1 $-1 $350 $536 $747 $748 forward $201 $-1 #
coedge $-1 -1 $-1 $749 $743 $350 $560 reversed $742 $-1 #
edge $750 -1 $-1 $751 -30 $562 -10 $350 $746 forward @7 unknown #
attrib_edge_convexity-kcp-attrib $-1 -1 $752 $-1 $351 1 #
vertex $-1 -1 $-1 $560 $753 #
coedge $-1 -1 $-1 $754 $755 $756 $757 forward $352 $-1 #
convexity-sys-attrib $-1 -1 $-1 $358 $209 #
coedge $-1 -1 $-1 $518 $517 $360 $566 forward $174 $-1 #
edge $758 -1 $-1 $568 -30 $572 30 $565 $759 forward @7 unknown #
coedge $-1 -1 $-1 $516 $361 $517 $716 forward $316 $-1 #
vertex $-1 -1 $-1 $362 $760 #
straight-curve $-1 -1 $-1 -30 10 15 0 0 -1 I I #
convexity-sys-attrib $-1 -1 $-1 $363 $211 #
point $-1 -1 $-1 -30 10 20 #
vertex $-1 -1 $-1 $717 $761 #
vertex $-1 -1 $-1 $724 $762 #
straight-curve $-1 -1 $-1 30 10 15 0 0 1 I I #
model_id-kcp-attrib $-1 -1 $-1 $-1 $369 1 1021382409 1021382409 1132396545 14 #
face $763 -1 $-1 $764 $525 $10 $-1 $765 forward single #
loop $-1 -1 $-1 $-1 $766 $369 #
face $-1 -1 $-1 $605 $595 $41 $-1 $392 forward single #
loop $-1 -1 $-1 $-1 $767 $371 #
coedge $-1 -1 $-1 $768 $769 $770 $771 reversed $372 $-1 #
coedge $-1 -1 $-1 $374 $382 $768 $772 forward $218 $-1 #
coedge $-1 -1 $-1 $770 $604 $374 $583 reversed $773 $-1 #
edge $-1 -1 $-1 $774 -3.1415926535897931 $388 -1.5707963267948966 $374 $590 forward @7 unknown #
coedge $-1 -1 $-1 $775 $776 $375 $585 reversed $777 $-1 #
edge $-1 -1 $-1 $589 40 $778 80 $584 $779 forward @7 unknown #
edge $-1 -1 $-1 $778 -40 $388 0 $384 $599 forward @7 unknown #
coedge $-1 -1 $-1 $377 $603 $775 $780 reversed $588 $-1 #
loop $-1 -1 $-1 $-1 $603 $781 #
vertex $-1 -1 $-1 $585 $782 #
ellipse-curve $-1 -1 $-1 40 0 -20 0 0 1 0 40 0 1 I I #
coedge $-1 -1 $-1 $769 $768 $379 $592 reversed $372 $-1 #
edge $-1 -1 $-1 $596 -20 $598 20 $379 $783 forward @7 unknown #
coedge $-1 -1 $-1 $594 $380 $784 $785 forward $595 $-1 #
coedge $-1 -1 $-1 $380 $593 $769 $786 forward $595 $-1 #
loop $-1 -1 $-1 $-1 $593 $578 #
vertex $-1 -1 $-1 $381 $787 #
straight-curve $-1 -1 $-1 80 0 20 0 1 0 I I #
vertex $-1 -1 $-1 $592 $788 #
straight-curve $-1 -1 $-1 80 0 -20 0 -1 0 I I #
coedge $-1 -1 $-1 $385 $384 $776 $789 reversed $387 $-1 #
coedge $-1 -1 $-1 $790 $767 $385 $602 forward $579 $-1 #
edge $-1 -1 $-1 $389 0 $791 40 $385 $597 forward @7 unknown #
coedge $-1 -1 $-1 $587 $386 $767 $792 reversed $588 $-1 #
coedge $-1 -1 $-1 $582 $784 $130 $223 reversed $773 $-1 #
face $-1 -1 $-1 $793 $387 $41 $-1 $83 reversed single #
point $-1 -1 $-1 80 0 -20 #
point $-1 -1 $-1 80 0 20 #
face $-1 -1 $-1 $794 $401 $29 $-1 $392 forward single #
loop $-1 -1 $-1 $-1 $403 $391 #
coedge $-1 -1 $-1 $795 $393 $796 $797 reversed $225 $-1 #
coedge $-1 -1 $-1 $393 $795 $399 $622 reversed $225 $-1 #
coedge $-1 -1 $-1 $395 $394 $627 $798 reversed $132 $-1 #
coedge $-1 -1 $-1 $403 $625 $394 $614 forward $609 $-1 #
edge $-1 -1 $-1 $799 -40 $410 0 $394 $800 forward @7 unknown #
coedge $-1 -1 $-1 $801 $796 $396 $616 forward $802 $-1 #
edge $-1 -1 $-1 $620 -3.1415926535897931 $410 -1.5707963267948966 $615 $626 forward @7 unknown #
coedge $-1 -1 $-1 $803 $397 $400 $623 reversed $619 $-1 #
coedge $-1 -1 $-1 $397 $803 $801 $631 reversed $619 $-1 #
loop $-1 -1 $-1 $-1 $397 $804 #
vertex $-1 -1 $-1 $398 $805 #
straight-curve $-1 -1 $-1 -40 40 20 0 0 1 I I #
edge $-1 -1 $-1 $402 40 $806 80 $611 $807 forward @7 unknown #
edge $-1 -1 $-1 $806 -40 $240 0 $617 $634 forward @7 unknown #
point $-1 -1 $-1 -40 40 20 #
coedge $-1 -1 $-1 $613 $403 $406 $628 forward $609 $-1 #
ellipse-curve $-1 -1 $-1 -40 0 -20 0 0 1 0 -40 0 1 I I #
coedge $-1 -1 $-1 $406 $405 $612 $798 forward $407 $-1 #
edge $-1 -1 $-1 $408 40 $799 80 $406 $808 forward @7 unknown #
face $-1 -1 $-1 $804 $407 $29 $-1 $373 reversed single #
point $-1 -1 $-1 -40 -40 -20 #
edge $-1 -1 $-1 $410 0 $809 40 $618 $800 forward @7 unknown #
point $-1 -1 $-1 -80 0 -20 #
vertex $-1 -1 $-1 $412 $810 #
straight-curve $-1 -1 $-1 -80 0 20 0 -1 0 I I #
straight-curve $-1 -1 $-1 0 -40 20 1 0 0 I I #
plane-surface $-1 -1 $-1 80 0 0 -1 0 0 0 0 1 forward_v I I I I #
coedge $-1 -1 $-1 $422 $420 $424 $641 reversed $243 $-1 #
edge $-1 -1 $-1 $435 -20 $643 20 $434 $811 forward @7 unknown #
vertex $-1 -1 $-1 $641 $812 #
straight-curve $-1 -1 $-1 -80 -40 0 0 0 -1 I I #
edge $-1 -1 $-1 $639 -40 $643 40 $637 $813 forward @7 unknown #
straight-curve $-1 -1 $-1 0 -40 -20 -1 0 0 I I #
vertex $-1 -1 $-1 $427 $814 #
straight-curve $-1 -1 $-1 0 40 -20 1 0 0 I I #
point $-1 -1 $-1 80 40 -20 #
point $-1 -1 $-1 80 -40 -20 #
straight-curve $-1 -1 $-1 -80 0 20 0 -1 0 I I #
point $-1 -1 $-1 -80 40 20 #
point $-1 -1 $-1 -80 -40 20 #
straight-curve $-1 -1 $-1 80 -40 0 0 0 -1 I I #
straight-curve $-1 -1 $-1 80 40 0 0 0 -1 I I #
loop $-1 -1 $-1 $-1 $664 $444 #
plane-surface $-1 -1 $-1 0 -20 10 0 0 1 1 0 0 forward_v I I I I #
coedge $-1 -1 $-1 $446 $459 $447 $656 forward $262 $-1 #
coedge $-1 -1 $-1 $448 $447 $815 $816 reversed $149 $-1 #
edge $817 -1 $-1 $818 0 $657 10 $654 $819 forward @7 unknown #
vertex $-1 -1 $-1 $656 $820 #
straight-curve $-1 -1 $-1 30 -10 20 0 -1 0 I I #
coedge $-1 -1 $-1 $815 $455 $451 $660 forward $652 $-1 #
edge $821 -1 $-1 $457 -50 $661 10 $451 $822 forward @7 unknown #
vertex $-1 -1 $-1 $660 $823 #
straight-curve $-1 -1 $-1 30 -10 10 0 0 1 I I #
point $-1 -1 $-1 30 -10 20 #
coedge $-1 -1 $-1 $455 $815 $459 $668 forward $652 $-1 #
convexity-sys-attrib $-1 -1 $-1 $-1 $456 #
straight-curve $-1 -1 $-1 -30 -10 10 0 1 0 I I #
point $-1 -1 $-1 -30 -10 10 #
edge $824 -1 $-1 $818 -30 $461 30 $459 $825 forward @7 unknown #
point $-1 -1 $-1 -30 -30 10 #
straight-curve $-1 -1 $-1 0 -30 20 -1 0 0 I I #
loop $-1 -1 $-1 $-1 $684 $466 #
plane-surface $-1 -1 $-1 0 0 0 0 0 1 1 0 0 forward_v I I I I #
ellipse-curve $-1 -1 $-1 40 0 20 0 0 -1 10 0 0 1 I I #
coedge $-1 -1 $-1 $685 $684 $471 $675 forward $671 $-1 #
edge $826 -1 $-1 $680 -40 $677 40 $471 $827 forward @7 unknown #
convexity-sys-attrib $-1 -1 $-1 $-1 $472 #
vertex $-1 -1 $-1 $675 $828 #
straight-curve $-1 -1 $-1 40 10 0 0 0 1 I I #
convexity-sys-attrib $-1 -1 $-1 $-1 $474 #
vertex $-1 -1 $-1 $688 $829 #
straight-curve $-1 -1 $-1 -40 10 0 0 0 1 I I #
point $-1 -1 $-1 -40 10 20 #
point $-1 -1 $-1 40 10 20 #
coedge $-1 -1 $-1 $674 $478 $480 $688 forward $671 $-1 #
coedge $-1 -1 $-1 $478 $674 $484 $690 forward $671 $-1 #
convexity-sys-attrib $-1 -1 $-1 $-1 $479 #
straight-curve $-1 -1 $-1 0 -10 0 -1 0 0 I I #
edge $830 -1 $-1 $482 1.5707963267948966 $680 4.7123889803846897 $480 $831 forward @7 unknown #
point $-1 -1 $-1 -40 -10 0 #
edge $832 -1 $-1 $677 -1.5707963267948966 $486 1.5707963267948966 $484 $833 forward @7 unknown #
point $-1 -1 $-1 40 -10 0 #
ellipse-curve $-1 -1 $-1 -40 0 20 0 0 -1 10 0 0 1 I I #
loop $-1 -1 $-1 $-1 $705 $491 #
plane-surface $-1 -1 $-1 0 20 10 0 0 1 1 0 0 forward_v I I I I #
coedge $-1 -1 $-1 $493 $506 $494 $697 forward $298 $-1 #
coedge $-1 -1 $-1 $495 $494 $834 $835 reversed $165 $-1 #
edge $836 -1 $-1 $837 0 $698 10 $695 $838 forward @7 unknown #
vertex $-1 -1 $-1 $697 $839 #
straight-curve $-1 -1 $-1 -30 10 20 0 1 0 I I #
coedge $-1 -1 $-1 $834 $502 $498 $701 forward $693 $-1 #
edge $840 -1 $-1 $504 -50 $702 10 $498 $841 forward @7 unknown #
vertex $-1 -1 $-1 $701 $842 #
straight-curve $-1 -1 $-1 -30 10 10 0 0 1 I I #
point $-1 -1 $-1 -30 10 20 #
coedge $-1 -1 $-1 $502 $834 $506 $709 forward $693 $-1 #
convexity-sys-attrib $-1 -1 $-1 $-1 $503 #
straight-curve $-1 -1 $-1 30 10 10 0 -1 0 I I #
point $-1 -1 $-1 30 10 10 #
edge $843 -1 $-1 $837 -30 $508 30 $506 $844 forward @7 unknown #
point $-1 -1 $-1 30 30 10 #
straight-curve $-1 -1 $-1 0 30 20 1 0 0 I I #
model_id-kcp-attrib $-1 -1 $-1 $-1 $514 1 1021382409 1021382409 1132396545 9 #
loop $-1 -1 $-1 $-1 $845 $514 #
plane-surface $-1 -1 $-1 0 -30 0 0 -1 0 0 0 -1 forward_v I I I I #
edge $-1 -1 $-1 $719 2.5 $722 12.5 $516 $846 forward @7 unknown #
edge $847 -1 $-1 $568 10 $719 30 $567 $848 forward @7 unknown #
edge $849 -1 $-1 $527 -30 $572 -10 $523 $850 forward @7 unknown #
attrib_edge_convexity-kcp-attrib $-1 -1 $851 $-1 $519 2 #
vertex $-1 -1 $-1 $716 $852 #
straight-curve $-1 -1 $-1 0 30 10 -1 0 0 I I #
attrib_edge_convexity-kcp-attrib $-1 -1 $853 $-1 $522 1 #
vertex $-1 -1 $-1 $557 $854 #
straight-curve $-1 -1 $-1 0 30 20 1 0 0 I I #
edge $855 -1 $-1 $526 -30 $573 -10 $537 $856 forward @7 unknown #
point $-1 -1 $-1 30 30 20 #
point $-1 -1 $-1 30 30 10 #
convexity-sys-attrib $-1 -1 $-1 $529 $323 #
coedge $-1 -1 $-1 $857 $858 $859 $860 forward $531 $-1 #
convexity-sys-attrib $-1 -1 $-1 $534 $328 #
coedge $-1 -1 $-1 $544 $861 $536 $731 reversed $736 $-1 #
edge $862 -1 $-1 $547 10 $863 30 $536 $856 forward @7 unknown #
attrib_edge_convexity-kcp-attrib $-1 -1 $864 $-1 $538 1 #
coedge $-1 -1 $-1 $865 $866 $543 $734 forward $577 $-1 #
edge $867 -1 $-1 $737 -30 $868 30 $733 $869 forward @7 unknown #
coedge $-1 -1 $-1 $861 $544 $866 $870 forward $736 $-1 #
loop $-1 -1 $-1 $-1 $861 $764 #
vertex $-1 -1 $-1 $545 $871 #
straight-curve $-1 -1 $-1 30 -10 15 0 0 -1 I I #
convexity-sys-attrib $-1 -1 $-1 $546 $338 #
point $-1 -1 $-1 30 -10 20 #
model_id-kcp-attrib $-1 -1 $-1 $-1 $552 1 1021382409 1021382409 1132396545 11 #
loop $-1 -1 $-1 $-1 $749 $552 #
coedge $-1 -1 $-1 $559 $872 $554 $744 forward $742 $-1 #
edge $-1 -1 $-1 $868 -5 $562 5 $743 $873 forward @7 unknown #
attrib_edge_convexity-kcp-attrib $-1 -1 $874 $-1 $557 1 #
straight-curve $-1 -1 $-1 -30 0 20 0 1 0 I I #
coedge $-1 -1 $-1 $845 $875 $558 $748 reversed $713 $-1 #
edge $876 -1 $-1 $863 -30 $751 30 $747 $877 forward @7 unknown #
coedge $-1 -1 $-1 $872 $559 $875 $878 forward $742 $-1 #
attrib_edge_convexity-kcp-attrib $-1 -1 $879 $-1 $560 1 #
vertex $-1 -1 $-1 $560 $880 #
convexity-sys-attrib $-1 -1 $-1 $561 $351 #
point $-1 -1 $-1 -30 -10 20 #
coedge $-1 -1 $-1 $881 $563 $882 $883 forward $352 $-1 #
coedge $-1 -1 $-1 $563 $881 $884 $885 forward $352 $-1 #
coedge $-1 -1 $-1 $886 $887 $563 $757 reversed $888 $-1 #
edge $889 -1 $-1 $890 -40 $891 40 $756 $892 forward @7 unknown #
attrib_edge_convexity-kcp-attrib $-1 -1 $893 $-1 $566 1 #
straight-curve $-1 -1 $-1 0 10 10 1 0 0 I I #
point $-1 -1 $-1 -30 10 10 #
point $-1 -1 $-1 30 10 10 #
point $-1 -1 $-1 30 10 20 #
model_id-kcp-attrib $-1 -1 $-1 $-1 $576 1 1021382409 1021382409 1132396545 15 #
face $894 -1 $-1 $895 $736 $10 $-1 $765 forward single #
plane-surface $-1 -1 $-1 30 0 15 -1 0 0 0 0 1 forward_v I I I I #
coedge $-1 -1 $-1 $866 $865 $896 $897 forward $577 $-1 #
coedge $-1 -1 $-1 $601 $790 $603 $792 forward $579 $-1 #
coedge $-1 -1 $-1 $591 $580 $581 $772 reversed $372 $-1 #
coedge $-1 -1 $-1 $580 $591 $594 $786 reversed $372 $-1 #
coedge $-1 -1 $-1 $784 $582 $580 $771 forward $773 $-1 #
edge $-1 -1 $-1 $774 -40 $898 0 $580 $899 forward @7 unknown #
edge $-1 -1 $-1 $598 -80 $774 -40 $768 $808 forward @7 unknown #
loop $-1 -1 $-1 $-1 $784 $900 #
vertex $-1 -1 $-1 $583 $901 #
coedge $-1 -1 $-1 $902 $584 $587 $780 forward $777 $-1 #
coedge $-1 -1 $-1 $584 $902 $600 $789 forward $777 $-1 #
loop $-1 -1 $-1 $-1 $775 $793 #
vertex $-1 -1 $-1 $586 $903 #
straight-curve $-1 -1 $-1 0 40 -20 1 0 0 I I #
edge $-1 -1 $-1 $589 -40 $904 0 $775 $905 forward @7 unknown #
face $-1 -1 $-1 $900 $588 $41 $-1 $906 reversed single #
point $-1 -1 $-1 40 40 -20 #
straight-curve $-1 -1 $-1 80 -40 0 0 0 -1 I I #
coedge $-1 -1 $-1 $604 $770 $593 $785 reversed $773 $-1 #
edge $-1 -1 $-1 $389 1.5707963267948966 $898 3.1415926535897931 $593 $907 forward @7 unknown #
edge $-1 -1 $-1 $898 40 $596 80 $769 $635 forward @7 unknown #
point $-1 -1 $-1 80 -40 20 #
point $-1 -1 $-1 80 -40 -20 #
edge $-1 -1 $-1 $791 -20 $778 20 $600 $908 forward @7 unknown #
coedge $-1 -1 $-1 $767 $601 $902 $909 forward $579 $-1 #
vertex $-1 -1 $-1 $602 $910 #
edge $-1 -1 $-1 $904 0 $389 1.5707963267948966 $767 $907 forward @7 unknown #
face $-1 -1 $-1 $781 $777 $41 $-1 $226 reversed single #
face $-1 -1 $-1 $629 $802 $29 $-1 $129 reversed single #
coedge $-1 -1 $-1 $611 $610 $803 $911 reversed $225 $-1 #
coedge $-1 -1 $-1 $615 $801 $610 $797 forward $802 $-1 #
edge $-1 -1 $-1 $809 -80 $620 -40 $610 $779 forward @7 unknown #
edge $-1 -1 $-1 $633 -20 $799 20 $612 $912 forward @7 unknown #
vertex $-1 -1 $-1 $614 $913 #
straight-curve $-1 -1 $-1 -80 0 -20 0 1 0 I I #
coedge $-1 -1 $-1 $796 $615 $618 $631 forward $802 $-1 #
loop $-1 -1 $-1 $-1 $615 $794 #
coedge $-1 -1 $-1 $618 $617 $795 $911 forward $619 $-1 #
face $-1 -1 $-1 $-1 $619 $29 $-1 $133 reversed single #
point $-1 -1 $-1 -40 40 -20 #
vertex $-1 -1 $-1 $622 $914 #
straight-curve $-1 -1 $-1 0 40 20 -1 0 0 I I #
straight-curve $-1 -1 $-1 0 -40 -20 -1 0 0 I I #
vertex $-1 -1 $-1 $797 $915 #
point $-1 -1 $-1 -80 -40 20 #
straight-curve $-1 -1 $-1 -80 40 0 0 0 -1 I I #
point $-1 -1 $-1 -80 -40 -20 #
straight-curve $-1 -1 $-1 -80 0 -20 0 1 0 I I #
point $-1 -1 $-1 -80 40 -20 #
coedge $-1 -1 $-1 $664 $659 $655 $816 forward $652 $-1 #
edge $916 -1 $-1 $661 0 $818 20 $655 $917 forward @7 unknown #
convexity-sys-attrib $-1 -1 $-1 $-1 $656 #
vertex $-1 -1 $-1 $668 $918 #
straight-curve $-1 -1 $-1 30 -30 10 0 0 1 I I #
point $-1 -1 $-1 30 -30 20 #
convexity-sys-attrib $-1 -1 $-1 $-1 $660 #
straight-curve $-1 -1 $-1 20 -10 10 1 0 0 I I #
point $-1 -1 $-1 30 -10 10 #
convexity-sys-attrib $-1 -1 $-1 $-1 $668 #
straight-curve $-1 -1 $-1 0 -30 10 -1 0 0 I I #
convexity-sys-attrib $-1 -1 $-1 $-1 $675 #
straight-curve $-1 -1 $-1 0 10 0 1 0 0 I I #
point $-1 -1 $-1 40 10 0 #
point $-1 -1 $-1 -40 10 0 #
convexity-sys-attrib $-1 -1 $-1 $-1 $688 #
ellipse-curve $-1 -1 $-1 -40 0 0 0 0 -1 10 0 0 1 I I #
convexity-sys-attrib $-1 -1 $-1 $-1 $690 #
ellipse-curve $-1 -1 $-1 40 0 0 0 0 -1 10 0 0 1 I I #
coedge $-1 -1 $-1 $705 $700 $696 $835 forward $693 $-1 #
edge $919 -1 $-1 $702 0 $837 20 $696 $920 forward @7 unknown #
convexity-sys-attrib $-1 -1 $-1 $-1 $697 #
vertex $-1 -1 $-1 $709 $921 #
straight-curve $-1 -1 $-1 -30 30 10 0 0 1 I I #
point $-1 -1 $-1 -30 30 20 #
convexity-sys-attrib $-1 -1 $-1 $-1 $701 #
straight-curve $-1 -1 $-1 -20 10 10 -1 0 0 I I #
point $-1 -1 $-1 -30 10 10 #
convexity-sys-attrib $-1 -1 $-1 $-1 $709 #
straight-curve $-1 -1 $-1 0 30 10 1 0 0 I I #
coedge $-1 -1 $-1 $896 $747 $861 $922 reversed $713 $-1 #
straight-curve $-1 -1 $-1 -30 30 7.5 0 0 1 I I #
attrib_edge_convexity-kcp-attrib $-1 -1 $923 $-1 $716 2 #
straight-curve $-1 -1 $-1 -30 0 10 0 1 0 I I #
attrib_edge_convexity-kcp-attrib $-1 -1 $924 $-1 $717 2 #
straight-curve $-1 -1 $-1 30 0 10 0 -1 0 I I #
convexity-sys-attrib $-1 -1 $-1 $718 $519 #
point $-1 -1 $-1 -30 30 10 #
convexity-sys-attrib $-1 -1 $-1 $721 $522 #
point $-1 -1 $-1 -30 30 20 #
attrib_edge_convexity-kcp-attrib $-1 -1 $925 $-1 $724 1 #
straight-curve $-1 -1 $-1 30 0 20 0 -1 0 I I #
coedge $-1 -1 $-1 $926 $728 $927 $928 forward $531 $-1 #
coedge $-1 -1 $-1 $728 $926 $929 $930 forward $531 $-1 #
coedge $-1 -1 $-1 $931 $932 $728 $860 reversed $933 $-1 #
edge $-1 -1 $-1 $934 -1.5707963267948966 $935 1.5707963267948966 $728 $936 forward @7 unknown #
coedge $-1 -1 $-1 $730 $735 $845 $922 forward $736 $-1 #
attrib_edge_convexity-kcp-attrib $-1 -1 $937 $-1 $731 1 #
vertex $-1 -1 $-1 $731 $938 #
convexity-sys-attrib $-1 -1 $-1 $732 $538 #
coedge $-1 -1 $-1 $766 $733 $872 $939 reversed $577 $-1 #
coedge $-1 -1 $-1 $733 $766 $735 $870 reversed $577 $-1 #
attrib_edge_convexity-kcp-attrib $-1 -1 $940 $-1 $734 1 #
vertex $-1 -1 $-1 $939 $941 #
straight-curve $-1 -1 $-1 0 -10 10 -1 0 0 I I #
edge $942 -1 $-1 $737 10 $943 30 $735 $850 forward @7 unknown #
point $-1 -1 $-1 30 -10 10 #
coedge $-1 -1 $-1 $743 $749 $865 $939 forward $742 $-1 #
straight-curve $-1 -1 $-1 -30 -10 15 0 0 1 I I #
convexity-sys-attrib $-1 -1 $-1 $745 $557 #
coedge $-1 -1 $-1 $747 $896 $749 $878 reversed $713 $-1 #
attrib_edge_convexity-kcp-attrib $-1 -1 $944 $-1 $748 1 #
straight-curve $-1 -1 $-1 0 -30 20 -1 0 0 I I #
edge $-1 -1 $-1 $751 -12.5 $945 -2.5 $749 $946 forward @7 unknown #
convexity-sys-attrib $-1 -1 $-1 $750 $560 #
point $-1 -1 $-1 -30 -30 20 #
coedge $-1 -1 $-1 $755 $754 $947 $948 forward $352 $-1 #
coedge $-1 -1 $-1 $949 $950 $754 $883 reversed $951 $-1 #
edge $952 -1 $-1 $891 1.5707963267948966 $953 4.7123889803846897 $754 $954 forward @7 unknown #
coedge $-1 -1 $-1 $932 $931 $755 $885 reversed $933 $-1 #
edge $955 -1 $-1 $956 -1.5707963267948966 $890 1.5707963267948966 $755 $957 forward @7 unknown #
coedge $-1 -1 $-1 $929 $756 $931 $958 reversed $888 $-1 #
coedge $-1 -1 $-1 $756 $929 $949 $959 reversed $888 $-1 #
loop $-1 -1 $-1 $-1 $756 $960 #
attrib_edge_convexity-kcp-attrib $-1 -1 $961 $-1 $757 1 #
vertex $-1 -1 $-1 $757 $962 #
vertex $-1 -1 $-1 $757 $963 #
straight-curve $-1 -1 $-1 0 40 20 -1 0 0 I I #
convexity-sys-attrib $-1 -1 $-1 $758 $566 #
model_id-kcp-attrib $-1 -1 $-1 $-1 $764 1 1021382409 1021382409 1132396545 16 #
face $964 -1 $-1 $965 $966 $10 $-1 $967 reversed single #
coedge $-1 -1 $-1 $875 $845 $766 $897 reversed $713 $-1 #
edge $968 -1 $-1 $945 -30 $943 30 $766 $969 forward @7 unknown #
vertex $-1 -1 $-1 $786 $970 #
straight-curve $-1 -1 $-1 40 -40 20 0 0 1 I I #
face $-1 -1 $-1 $-1 $773 $41 $-1 $906 reversed single #
point $-1 -1 $-1 40 -40 -20 #
coedge $-1 -1 $-1 $776 $775 $790 $909 reversed $777 $-1 #
point $-1 -1 $-1 80 40 -20 #
vertex $-1 -1 $-1 $792 $971 #
straight-curve $-1 -1 $-1 40 40 20 0 0 1 I I #
cone-surface $-1 -1 $-1 40 0 20 0 0 1 0 40 0 1 I I 0 1 40 forward I I I I #
ellipse-curve $-1 -1 $-1 40 0 20 0 0 -1 0 40 0 1 I I #
straight-curve $-1 -1 $-1 80 40 0 0 0 -1 I I #
edge $-1 -1 $-1 $791 -80 $904 -40 $902 $807 forward @7 unknown #
point $-1 -1 $-1 80 40 20 #
edge $-1 -1 $-1 $806 -20 $809 20 $795 $972 forward @7 unknown #
straight-curve $-1 -1 $-1 -80 -40 0 0 0 -1 I I #
point $-1 -1 $-1 -80 -40 -20 #
point $-1 -1 $-1 -80 40 20 #
point $-1 -1 $-1 -80 40 -20 #
convexity-sys-attrib $-1 -1 $-1 $-1 $816 #
straight-curve $-1 -1 $-1 30 -10 10 0 -1 0 I I #
point $-1 -1 $-1 30 -30 10 #
convexity-sys-attrib $-1 -1 $-1 $-1 $835 #
straight-curve $-1 -1 $-1 -30 10 10 0 1 0 I I #
point $-1 -1 $-1 -30 30 10 #
edge $-1 -1 $-1 $943 2.5 $863 12.5 $861 $973 forward @7 unknown #
convexity-sys-attrib $-1 -1 $-1 $847 $716 #
convexity-sys-attrib $-1 -1 $-1 $849 $717 #
convexity-sys-attrib $-1 -1 $-1 $855 $724 #
coedge $-1 -1 $-1 $858 $857 $974 $975 forward $531 $-1 #
coedge $-1 -1 $-1 $976 $977 $857 $928 reversed $966 $-1 #
edge $978 -1 $-1 $935 -40 $979 40 $927 $980 forward @7 unknown #
coedge $-1 -1 $-1 $887 $886 $858 $930 reversed $888 $-1 #
edge $981 -1 $-1 $982 -40 $934 40 $929 $983 forward @7 unknown #
coedge $-1 -1 $-1 $884 $859 $886 $958 forward $933 $-1 #
coedge $-1 -1 $-1 $859 $884 $976 $984 reversed $933 $-1 #
loop $-1 -1 $-1 $-1 $931 $985 #
vertex $-1 -1 $-1 $860 $986 #
vertex $-1 -1 $-1 $984 $987 #
ellipse-curve $-1 -1 $-1 40 0 -20 0 0 -1 40 0 0 1 I I #
convexity-sys-attrib $-1 -1 $-1 $862 $731 #
point $-1 -1 $-1 30 -30 20 #
edge $988 -1 $-1 $945 -30 $868 -10 $872 $848 forward @7 unknown #
convexity-sys-attrib $-1 -1 $-1 $867 $734 #
point $-1 -1 $-1 -30 -10 10 #
attrib_edge_convexity-kcp-attrib $-1 -1 $989 $-1 $870 2 #
vertex $-1 -1 $-1 $870 $990 #
convexity-sys-attrib $-1 -1 $-1 $876 $748 #
vertex $-1 -1 $-1 $897 $991 #
straight-curve $-1 -1 $-1 -30 -30 7.5 0 0 -1 I I #
coedge $-1 -1 $-1 $977 $976 $881 $948 reversed $966 $-1 #
edge $992 -1 $-1 $953 -40 $956 40 $947 $993 forward @7 unknown #
coedge $-1 -1 $-1 $974 $882 $887 $959 forward $951 $-1 #
coedge $-1 -1 $-1 $882 $974 $977 $994 forward $951 $-1 #
loop $-1 -1 $-1 $-1 $949 $965 #
attrib_edge_convexity-kcp-attrib $-1 -1 $995 $-1 $883 1 #
vertex $-1 -1 $-1 $948 $996 #
ellipse-curve $-1 -1 $-1 -40 0 20 0 0 1 40 0 0 1 I I #
attrib_edge_convexity-kcp-attrib $-1 -1 $997 $-1 $885 1 #
vertex $-1 -1 $-1 $885 $998 #
ellipse-curve $-1 -1 $-1 40 0 20 0 0 1 40 0 0 1 I I #
edge $-1 -1 $-1 $934 -20 $890 20 $886 $999 reversed @7 unknown #
edge $-1 -1 $-1 $891 -20 $982 20 $887 $1000 forward @7 unknown #
face $1001 -1 $-1 $-1 $888 $10 $-1 $1002 reversed single #
convexity-sys-attrib $-1 -1 $-1 $889 $757 #
point $-1 -1 $-1 40 40 20 #
point $-1 -1 $-1 -40 40 20 #
model_id-kcp-attrib $-1 -1 $-1 $-1 $895 1 1021382409 1021382409 1132396545 17 #
face $1003 -1 $-1 $985 $951 $10 $-1 $1004 forward single #
loop $-1 -1 $-1 $-1 $947 $895 #
plane-surface $-1 -1 $-1 0 -40 0 0 1 0 0 0 1 forward_v I I I I #
attrib_edge_convexity-kcp-attrib $-1 -1 $1005 $-1 $897 2 #
straight-curve $-1 -1 $-1 0 -30 10 1 0 0 I I #
point $-1 -1 $-1 40 -40 20 #
point $-1 -1 $-1 40 40 20 #
straight-curve $-1 -1 $-1 -80 40 0 0 0 -1 I I #
straight-curve $-1 -1 $-1 30 -30 7.5 0 0 1 I I #
coedge $-1 -1 $-1 $950 $949 $926 $975 reversed $951 $-1 #
edge $-1 -1 $-1 $979 1.5707963267948966 $982 4.7123889803846897 $926 $1006 forward @7 unknown #
coedge $-1 -1 $-1 $947 $927 $932 $984 forward $966 $-1 #
coedge $-1 -1 $-1 $927 $947 $950 $994 reversed $966 $-1 #
model_id-kcp-attrib $-1 -1 $1007 $-1 $928 1 1021382409 1021382409 1132396545 23 #
vertex $-1 -1 $-1 $975 $1008 #
straight-curve $-1 -1 $-1 0 -40 -20 -1 0 0 I I #
model_id-kcp-attrib $-1 -1 $-1 $-1 $930 1 1021382409 1021382409 1132396545 22 #
vertex $-1 -1 $-1 $930 $1009 #
straight-curve $-1 -1 $-1 0 40 -20 1 0 0 I I #
edge $1010 -1 $-1 $935 -20 $956 20 $976 $1011 reversed @7 unknown #
face $1012 -1 $-1 $960 $933 $10 $-1 $1013 forward single #
point $-1 -1 $-1 40 40 -20 #
point $-1 -1 $-1 40 -40 -20 #
attrib_edge_convexity-kcp-attrib $-1 -1 $1014 $-1 $939 2 #
convexity-sys-attrib $-1 -1 $-1 $942 $870 #
point $-1 -1 $-1 30 -30 10 #
point $-1 -1 $-1 -30 -30 10 #
attrib_edge_convexity-kcp-attrib $-1 -1 $1015 $-1 $948 1 #
straight-curve $-1 -1 $-1 0 -40 20 1 0 0 I I #
edge $1016 -1 $-1 $979 -20 $953 20 $977 $1017 reversed @7 unknown #
convexity-sys-attrib $-1 -1 $-1 $952 $883 #
point $-1 -1 $-1 -40 -40 20 #
convexity-sys-attrib $-1 -1 $-1 $955 $885 #
point $-1 -1 $-1 40 -40 20 #
straight-curve $-1 -1 $-1 40 40 0 0 0 -1 I I #
straight-curve $-1 -1 $-1 -40 40 0 0 0 -1 I I #
model_id-kcp-attrib $-1 -1 $-1 $-1 $960 1 1021382409 1021382409 1132396545 20 #
plane-surface $-1 -1 $-1 0 40 0 0 -1 0 0 0 -1 forward_v I I I I #
model_id-kcp-attrib $-1 -1 $-1 $-1 $965 1 1021382409 1021382409 1132396545 18 #
cone-surface $-1 -1 $-1 -40 0 0 0 0 1 40 0 0 1 I I 0 1 40 forward I I I I #
convexity-sys-attrib $-1 -1 $-1 $968 $897 #
ellipse-curve $-1 -1 $-1 -40 0 -20 0 0 -1 40 0 0 1 I I #
attrib_edge_convexity-kcp-attrib $-1 -1 $1018 $978 $928 1 #
point $-1 -1 $-1 -40 -40 -20 #
point $-1 -1 $-1 -40 40 -20 #
attrib_edge_convexity-kcp-attrib $-1 -1 $1019 $-1 $984 3 #
straight-curve $-1 -1 $-1 40 -40 0 0 0 -1 I I #
model_id-kcp-attrib $-1 -1 $-1 $-1 $985 1 1021382409 1021382409 1132396545 19 #
cone-surface $-1 -1 $-1 40 0 0 0 0 1 40 0 0 1 I I 0 1 40 forward I I I I #
convexity-sys-attrib $-1 -1 $-1 $988 $939 #
convexity-sys-attrib $-1 -1 $-1 $992 $948 #
attrib_edge_convexity-kcp-attrib $-1 -1 $1020 $-1 $994 3 #
straight-curve $-1 -1 $-1 -40 -40 0 0 0 -1 I I #
convexity-sys-attrib $-1 -1 $-1 $1007 $928 #
convexity-sys-attrib $-1 -1 $-1 $1010 $984 #
convexity-sys-attrib $-1 -1 $-1 $1016 $994 #
End-of-ACIS-data 