600 0 2 0           
24 FBMach with ACIS - 6.0.3 13 ACIS 6.0.3 NT 24 Wed May 23 21:58:21 2001 
1 9.9999999999999995e-007 1e-010 
body $2 $3 $-1 $4 #
bdycol-kcp $-1 1 6 $5 $6 $7 $8 $9 $10 #
model_id-kcp-attrib $-1 $-1 $-1 $0 1 990669501 60 641466369 1 #
lump $-1 $-1 $11 $0 #
transform $-1 1 0 0 0 1 0 0 0 1 0 0 0 1 no_rotate no_reflect no_shear #
body $12 $13 $-1 $14 #
body $15 $16 $-1 $17 #
body $18 $19 $-1 $20 #
body $21 $22 $-1 $23 #
body $24 $25 $-1 $26 #
body $27 $28 $-1 $29 #
shell $-1 $-1 $-1 $30 $-1 $3 #
model_id-kcp-attrib $-1 $-1 $-1 $5 1 990669501 60 641466370 1 #
lump $-1 $-1 $31 $5 #
transform $-1 1 0 0 0 1 0 0 0 1 0 -0.75 0 1 no_rotate no_reflect no_shear #
rgb_color-st-attrib $-1 $32 $-1 $6 1 1 0.5 #
lump $-1 $-1 $33 $6 #
transform $-1 -1 0 0 0 0 1 0 1 0 0 -0.01 0 1 rotate no_reflect no_shear #
rgb_color-st-attrib $-1 $34 $-1 $7 1 1 0.5 #
lump $-1 $-1 $35 $7 #
transform $-1 1 0 0 0 0 1 0 -1 0 0 -1.49 0 1 rotate no_reflect no_shear #
rgb_color-st-attrib $-1 $36 $-1 $8 0.5 1 1 #
lump $-1 $-1 $37 $8 #
transform $-1 1 0 0 0 1 0 0 0 1 0 -0.75 0 1 no_rotate no_reflect no_shear #
rgb_color-st-attrib $-1 $38 $-1 $9 1 0.5 1 #
lump $-1 $-1 $39 $9 #
transform $-1 1 0 0 0 1 0 0 0 1 0 -0.75 0 1 no_rotate no_reflect no_shear #
rgb_color-st-attrib $-1 $40 $-1 $10 1 0.5 1 #
lump $-1 $-1 $41 $10 #
transform $-1 1 0 0 0 1 0 0 0 1 0 -0.75 0 1 no_rotate no_reflect no_shear #
face $42 $43 $44 $11 $-1 $45 reversed single #
shell $-1 $-1 $-1 $46 $-1 $13 #
model_id-kcp-attrib $-1 $-1 $15 $6 1 990669501 80 642777091 1 #
shell $-1 $-1 $-1 $47 $-1 $16 #
model_id-kcp-attrib $-1 $-1 $18 $7 1 990669501 80 642777092 1 #
shell $-1 $-1 $-1 $48 $-1 $19 #
model_id-kcp-attrib $-1 $-1 $21 $8 1 990669501 120 645398533 1 #
shell $-1 $-1 $-1 $49 $-1 $22 #
model_id-kcp-attrib $-1 $-1 $24 $9 1 990669501 230 652607494 1 #
shell $-1 $-1 $-1 $50 $-1 $25 #
model_id-kcp-attrib $-1 $-1 $27 $10 1 990669501 290 639762439 1 #
shell $-1 $-1 $-1 $51 $-1 $28 #
model_id-kcp-attrib $-1 $52 $-1 $30 1 990669501 60 641466369 11 #
face $53 $54 $55 $11 $-1 $56 reversed single #
loop $57 $-1 $58 $30 #
plane-surface $59 0 0 0 0 -1 0 0 0 -1 forward_v I I I I #
face $-1 $60 $61 $31 $-1 $62 forward single #
face $-1 $63 $64 $33 $-1 $65 reversed single #
face $-1 $66 $67 $35 $-1 $68 reversed single #
face $-1 $69 $70 $37 $-1 $71 reversed single #
face $-1 $72 $73 $39 $-1 $74 forward single #
face $-1 $75 $76 $41 $-1 $77 forward single #
model_id-kcp-attrib $-1 $78 $42 $30 1 990669501 60 641466369 2 #
model_id-kcp-attrib $-1 $79 $-1 $43 1 990669501 60 641466369 3 #
face $80 $81 $82 $11 $-1 $83 forward single #
loop $84 $85 $86 $43 #
plane-surface $87 0 -0.625 0 0 -1 0 0 0 -1 forward_v I I I I #
loop_type-twe-attrib $-1 $-1 $-1 $44 0 #
coedge $-1 $58 $58 $88 $89 reversed $44 $-1 #
surf-twe-attrib $-1 $-1 $-1 $45 4 #
face $-1 $90 $91 $31 $-1 $92 reversed single #
loop $-1 $-1 $93 $46 #
plane-surface $-1 0 0 0.128 0 0 1 1 0 0 forward_v I I I I #
face $-1 $94 $95 $33 $-1 $96 forward single #
loop $-1 $97 $98 $47 #
cone-surface $-1 0 0 0.052500000000000081 0 0 1 0.0625 0 0 1 I I -0.70710678118654702 0.70710678118654802 0.0625 forward I I I I #
face $-1 $99 $100 $35 $-1 $101 forward single #
loop $-1 $102 $103 $48 #
cone-surface $-1 0 0 0.052499999999999991 0 0 1 0.0625 0 0 1 I I -0.70710678118654691 0.70710678118654813 0.0625 forward I I I I #
face $-1 $104 $105 $37 $-1 $71 reversed single #
loop $-1 $-1 $106 $49 #
cone-surface $-1 4.7989143098308399e-034 0.75 0 0 1 0 -0.128 0 0 1 I I 0 1 0.128 forward I I I I #
face $-1 $107 $108 $39 $-1 $109 forward single #
loop $-1 $110 $111 $50 #
cone-surface $-1 0 0.125 0 0 1 0 -0.125 0 0 1 I I 0 -1 0.125 forward I I I I #
face $-1 $112 $113 $41 $-1 $114 forward single #
loop $-1 $115 $116 $51 #
cone-surface $-1 0 -0.12499999999999978 0 0 -1 0 -0.125 0 0 1 I I 0 -1 0.125 forward I I I I #
face_name-twe-attrib $-1 $-1 $52 $30 1 #
face_name-twe-attrib $-1 $-1 $53 $43 2 #
model_id-kcp-attrib $-1 $117 $-1 $54 1 990669501 60 641466369 4 #
face $118 $119 $120 $11 $-1 $121 forward single #
loop $122 $123 $124 $54 #
plane-surface $125 0 -0.875 0 0 -1 0 0 0 -1 forward_v I I I I #
loop_type-twe-attrib $-1 $-1 $-1 $55 0 #
loop $126 $-1 $127 $43 #
coedge $-1 $86 $86 $128 $129 reversed $55 $-1 #
surf-twe-attrib $-1 $-1 $-1 $56 6 #
coedge $-1 $88 $88 $58 $89 forward $130 $-1 #
edge $131 $132 0 $132 6.2831853071795862 $88 $133 forward 7 unknown #
face $134 $135 $136 $31 $-1 $137 reversed single #
loop $-1 $-1 $138 $60 #
plane-surface $-1 0 0 -0.128 0 0 1 1 0 0 forward_v I I I I #
coedge $-1 $139 $140 $141 $142 forward $61 $-1 #
face $-1 $-1 $143 $33 $-1 $144 forward single #
loop $-1 $145 $146 $63 #
cone-surface $-1 0 0 0 0 0 1 0.125 0 0 1 I I 0 1 0.125 forward I I I I #
loop $-1 $-1 $147 $47 #
coedge $-1 $98 $98 $148 $149 reversed $64 $-1 #
face $-1 $-1 $150 $35 $-1 $151 forward single #
loop $-1 $152 $153 $66 #
cone-surface $-1 0 0 0 0 0 1 0.125 0 0 1 I I 0 1 0.125 forward I I I I #
loop $-1 $-1 $154 $48 #
coedge $-1 $103 $103 $155 $156 reversed $67 $-1 #
face $-1 $157 $158 $37 $-1 $71 reversed single #
loop $-1 $-1 $159 $69 #
coedge $-1 $160 $161 $162 $163 reversed $70 $-1 #
face $-1 $164 $165 $39 $-1 $166 forward single #
loop $-1 $167 $168 $72 #
cone-surface $-1 4.7989143098308399e-034 0.125 0 0 1 0 -0.128 0 0 1 I I 0 1 0.128 forward I I I I #
loop $-1 $-1 $169 $50 #
coedge $-1 $111 $111 $170 $171 forward $73 $-1 #
face $-1 $172 $173 $41 $-1 $174 reversed single #
loop $-1 $175 $176 $75 #
cone-surface $-1 4.7989143098308399e-034 -0.12499999999999978 0 0 -1 0 -0.128 0 0 1 I I 0 1 0.128 forward I I I I #
loop $-1 $-1 $177 $51 #
coedge $-1 $116 $116 $178 $179 forward $76 $-1 #
face_name-twe-attrib $-1 $-1 $80 $54 3 #
model_id-kcp-attrib $-1 $180 $-1 $81 1 990669501 60 641466369 12 #
face $181 $182 $130 $11 $-1 $183 forward single #
loop $184 $-1 $185 $81 #
plane-surface $186 0 -1.5 0 0 -1 0 0 0 -1 forward_v I I I I #
loop_type-twe-attrib $-1 $-1 $-1 $82 1 #
loop $187 $-1 $188 $54 #
coedge $-1 $124 $124 $189 $190 reversed $82 $-1 #
surf-twe-attrib $-1 $-1 $-1 $83 10 #
loop_type-twe-attrib $-1 $-1 $-1 $85 1 #
coedge $-1 $127 $127 $191 $192 forward $85 $-1 #
coedge $-1 $128 $128 $86 $129 forward $193 $-1 #
edge $194 $195 0 $195 6.2831853071795862 $128 $196 forward 7 unknown #
loop $197 $198 $88 $119 #
attrib_edge_convexity-kcp-attrib $-1 $199 $-1 $89 1 #
vertex $-1 $89 $200 #
ellipse-curve $201 0 0 0 0 -1 0 -0.105 0 0 1 I I #
model_id-kcp-attrib $-1 $-1 $-1 $90 1 990669501 60 641466370 3 #
face $-1 $202 $203 $31 $-1 $204 reversed single #
loop $-1 $-1 $205 $90 #
plane-surface $-1 0 -0.75 0 0 1 0 0 0 1 forward_v I I I I #
coedge $-1 $206 $207 $208 $209 forward $91 $-1 #
coedge $-1 $210 $93 $211 $212 forward $61 $-1 #
coedge $-1 $93 $210 $213 $214 forward $61 $-1 #
coedge $-1 $215 $216 $93 $142 reversed $217 $-1 #
edge $-1 $218 -0.75 $219 0.75 $141 $220 forward 7 unknown #
loop $-1 $221 $148 $94 #
plane-surface $-1 0 0 0.01 0 0 1 1 0 0 forward_v I I I I #
loop $-1 $-1 $222 $63 #
coedge $-1 $146 $146 $147 $223 reversed $95 $-1 #
coedge $-1 $147 $147 $146 $223 forward $97 $-1 #
coedge $-1 $148 $148 $98 $149 forward $143 $-1 #
edge $-1 $224 -3.1415926535897931 $224 3.1415926535897931 $148 $225 forward 7 unknown #
loop $-1 $226 $155 $99 #
plane-surface $-1 0 0 0.010000000000000009 0 0 1 1 0 0 forward_v I I I I #
loop $-1 $-1 $227 $66 #
coedge $-1 $153 $153 $154 $228 reversed $100 $-1 #
coedge $-1 $154 $154 $153 $228 forward $102 $-1 #
coedge $-1 $155 $155 $103 $156 forward $150 $-1 #
edge $-1 $229 -3.1415926535897931 $229 3.1415926535897931 $155 $230 forward 7 unknown #
face $-1 $231 $232 $37 $-1 $71 reversed single #
loop $-1 $-1 $233 $104 #
coedge $-1 $234 $235 $236 $237 reversed $105 $-1 #
coedge $-1 $238 $106 $239 $240 forward $70 $-1 #
coedge $-1 $106 $238 $241 $242 reversed $70 $-1 #
coedge $-1 $243 $244 $106 $163 forward $245 $-1 #
edge $-1 $246 0 $247 1.5707963267948966 $162 $248 forward 7 unknown #
face $-1 $-1 $249 $39 $-1 $250 reversed single #
loop $-1 $251 $252 $107 #
plane-surface $-1 0.01150161696011498 0.75 -6.5672694869993723e-019 0 1 0 0 0 1 forward_v I I I I #
loop $-1 $-1 $253 $72 #
coedge $-1 $168 $168 $252 $254 forward $108 $-1 #
coedge $-1 $169 $169 $255 $256 reversed $110 $-1 #
coedge $-1 $170 $170 $111 $171 reversed $251 $-1 #
edge $-1 $257 -3.1415926535897931 $257 3.1415926535897931 $111 $258 forward 7 unknown #
face $-1 $-1 $259 $41 $-1 $260 forward single #
loop $-1 $261 $262 $112 #
plane-surface $-1 0.00027272727272727518 -0.74999999999999978 2.0960438037360802e-018 -4.8134710722290258e-033 1 -4.1822151045748372e-098 0 4.1822151045748372e-098 1 forward_v I I I I #
loop $-1 $-1 $263 $75 #
coedge $-1 $176 $176 $262 $264 forward $113 $-1 #
coedge $-1 $177 $177 $265 $266 reversed $115 $-1 #
coedge $-1 $178 $178 $116 $179 reversed $261 $-1 #
edge $-1 $267 0 $267 6.2831853071795862 $116 $268 forward 7 unknown #
model_id-kcp-attrib $-1 $269 $118 $81 1 990669501 60 641466369 5 #
model_id-kcp-attrib $-1 $270 $-1 $119 1 990669501 60 641466369 6 #
face $271 $272 $273 $11 $-1 $274 forward single #
cone-surface $275 0 -0.02 0 0 -1 0 -0.125 0 0 1 I I 0.70710678118654702 0.70710678118654802 0.125 forward I I I I #
loop_type-twe-attrib $-1 $-1 $-1 $120 0 #
coedge $-1 $185 $185 $276 $277 forward $120 $-1 #
surf-twe-attrib $-1 $-1 $-1 $121 17 #
loop_type-twe-attrib $-1 $-1 $-1 $123 0 #
coedge $-1 $188 $188 $278 $279 forward $123 $-1 #
coedge $-1 $189 $189 $124 $190 forward $280 $-1 #
edge $281 $282 0 $282 6.2831853071795862 $189 $283 forward 7 unknown #
coedge $-1 $191 $191 $127 $192 reversed $284 $-1 #
edge $285 $286 -3.1415926535897931 $286 3.1415926535897931 $191 $287 forward 7 unknown #
loop $288 $289 $128 $272 #
edge_name-twe-attrib $-1 $-1 $-1 $129 4 8704 #
vertex $-1 $129 $290 #
ellipse-curve $291 0 -0.625 0 2.0000000000000002e-015 -1 0 -0.128 -2.5600000000000002e-016 0 1 I I #
loop_type-twe-attrib $-1 $-1 $-1 $130 0 #
loop $292 $-1 $293 $119 #
convexity-sys-attrib $-1 $294 $131 $89 #
point $-1 -0.105 0 0 #
cur-twe-attrib $-1 $-1 $-1 $133 25 #
face $295 $296 $297 $31 $-1 $298 reversed single #
loop $-1 $-1 $299 $135 #
plane-surface $-1 -0.128 0 0 1 0 0 0 0 -1 forward_v I I I I #
coedge $-1 $300 $213 $301 $302 forward $136 $-1 #
coedge $-1 $303 $138 $300 $304 forward $91 $-1 #
coedge $-1 $138 $303 $305 $306 forward $91 $-1 #
coedge $-1 $216 $215 $138 $209 reversed $217 $-1 #
edge $-1 $307 -0.75 $308 0.75 $208 $309 forward 7 unknown #
coedge $-1 $140 $139 $310 $311 forward $61 $-1 #
coedge $-1 $312 $313 $139 $212 reversed $297 $-1 #
edge $-1 $219 -0.128 $314 0.128 $211 $315 forward 7 unknown #
coedge $-1 $205 $316 $140 $214 reversed $136 $-1 #
edge $-1 $317 -0.128 $218 0.128 $213 $318 forward 7 unknown #
coedge $-1 $208 $141 $316 $319 forward $217 $-1 #
coedge $-1 $141 $208 $312 $320 reversed $217 $-1 #
loop $-1 $-1 $215 $296 #
vertex $-1 $142 $321 #
vertex $-1 $142 $322 #
straight-curve $-1 0.128 0 0.128 0 1 0 I I #
loop $-1 $-1 $323 $94 #
coedge $-1 $222 $222 $323 $324 reversed $145 $-1 #
edge $-1 $325 0 $325 6.2831853071795862 $146 $326 forward 7 unknown #
vertex $-1 $149 $327 #
ellipse-curve $-1 0 0 0.010000000000000002 0 0 -1 0.10500000000000002 0 0 1 I I #
loop $-1 $-1 $328 $99 #
coedge $-1 $227 $227 $328 $329 reversed $152 $-1 #
edge $-1 $330 0 $330 6.2831853071795862 $153 $331 forward 7 unknown #
vertex $-1 $156 $332 #
ellipse-curve $-1 0 0 0.010000000000000009 0 0 -1 0.1049999999999999 0 0 1 I I #
face $-1 $333 $334 $37 $-1 $335 forward single #
loop $-1 $-1 $336 $157 #
coedge $-1 $337 $338 $336 $339 forward $158 $-1 #
coedge $-1 $340 $159 $341 $342 reversed $105 $-1 #
coedge $-1 $159 $340 $161 $242 forward $105 $-1 #
coedge $-1 $343 $344 $159 $237 forward $345 $-1 #
edge $-1 $346 -3.1415926535897931 $347 -1.5707963267948966 $236 $348 forward 7 unknown #
coedge $-1 $161 $160 $349 $350 reversed $70 $-1 #
coedge $-1 $338 $337 $351 $240 reversed $158 $-1 #
edge $-1 $246 -1.5 $352 0 $351 $353 forward 7 unknown #
coedge $-1 $354 $355 $356 $242 forward $357 $-1 #
edge $-1 $247 -1.5 $347 0 $241 $358 forward 7 unknown #
coedge $-1 $244 $162 $355 $359 reversed $245 $-1 #
coedge $-1 $162 $243 $360 $361 forward $245 $-1 #
loop $-1 $-1 $162 $362 #
vertex $-1 $363 $364 #
vertex $-1 $365 $366 #
ellipse-curve $-1 4.7989143098308399e-034 -0.75 0 0 1 0 -0.128 0 0 1 I I #
loop $-1 $367 $368 $164 #
plane-surface $-1 0.01150161696011498 0.12499999999999999 -6.5672694869993723e-019 0 1 0 0 0 1 forward_v I I I I #
loop $-1 $-1 $170 $107 #
coedge $-1 $252 $252 $168 $254 reversed $165 $-1 #
coedge $-1 $253 $253 $368 $369 reversed $167 $-1 #
edge $-1 $370 -3.1415926535897931 $370 3.1415926535897931 $168 $371 forward 7 unknown #
coedge $-1 $255 $255 $169 $256 forward $367 $-1 #
edge $-1 $372 -3.1415926535897931 $372 3.1415926535897931 $169 $373 forward 7 unknown #
vertex $-1 $171 $374 #
ellipse-curve $-1 0 0.75 0 0 1 0 -0.125 0 0 1 I I #
loop $-1 $375 $376 $172 #
plane-surface $-1 0.00027272727272727518 -0.12499999999999976 2.0960438037360802e-018 -4.8134710722290258e-033 1 -4.1822151045748372e-098 0 4.1822151045748372e-098 1 forward_v I I I I #
loop $-1 $-1 $178 $112 #
coedge $-1 $262 $262 $176 $264 reversed $173 $-1 #
coedge $-1 $263 $263 $376 $377 reversed $175 $-1 #
edge $-1 $378 -3.1415926535897931 $378 3.1415926535897931 $176 $379 forward 7 unknown #
coedge $-1 $265 $265 $177 $266 forward $375 $-1 #
edge $-1 $380 0 $380 6.2831853071795862 $177 $381 forward 7 unknown #
vertex $-1 $179 $382 #
ellipse-curve $-1 0 -0.74999999999999978 0 0 -1 0 -0.125 0 0 1 I I #
face_name-twe-attrib $-1 $-1 $180 $81 4 #
face_name-twe-attrib $-1 $-1 $181 $119 5 #
model_id-kcp-attrib $-1 $383 $-1 $182 1 990669501 60 641466369 7 #
face $384 $385 $193 $11 $-1 $386 forward single #
loop $387 $284 $388 $182 #
cone-surface $389 0 0.074999999999999997 0 0 -1 0 -0.125 0 0 1 I I 0 1 0.125 forward I I I I #
surf-twe-attrib $-1 $-1 $-1 $183 27 #
coedge $-1 $276 $276 $185 $277 reversed $390 $-1 #
edge $391 $392 -3.1415926535897931 $392 3.1415926535897931 $276 $393 forward 7 unknown #
coedge $-1 $278 $278 $188 $279 reversed $289 $-1 #
edge $394 $395 -3.1415926535897931 $395 3.1415926535897931 $278 $396 forward 7 unknown #
loop $397 $398 $189 $385 #
edge_name-twe-attrib $-1 $-1 $-1 $190 6 4608 #
vertex $-1 $190 $399 #
ellipse-curve $400 0 -0.875 0 2.9999999999999998e-015 -1 0 -0.125 -3.7499999999999998e-016 0 1 I I #
loop $401 $-1 $191 $182 #
edge_name-twe-attrib $-1 $-1 $-1 $192 3 4608 #
vertex $-1 $192 $402 #
ellipse-curve $403 0 -0.625 0 2.0000000000000002e-015 -1 0 -0.125 -2.5000000000000002e-016 0 1 I I #
loop_type-twe-attrib $-1 $-1 $-1 $193 0 #
loop $404 $-1 $278 $272 #
point $-1 -0.128 -0.625 0 #
cur-twe-attrib $-1 $-1 $-1 $196 37 #
loop_type-twe-attrib $-1 $-1 $-1 $198 1 #
coedge $-1 $293 $293 $388 $405 reversed $198 $-1 #
edge_name-twe-attrib $-1 $-1 $199 $89 1 8448 #
model_id-kcp-attrib $-1 $-1 $-1 $202 1 990669501 60 641466370 2 #
face $-1 $-1 $217 $31 $-1 $406 reversed single #
loop $-1 $-1 $312 $202 #
plane-surface $-1 0 0.75 0 0 -1 0 0 0 -1 forward_v I I I I #
coedge $-1 $407 $310 $313 $408 forward $203 $-1 #
coedge $-1 $316 $205 $206 $304 reversed $136 $-1 #
coedge $-1 $310 $407 $205 $302 reversed $203 $-1 #
edge $-1 $317 -0.128 $409 0.128 $301 $410 forward 7 unknown #
coedge $-1 $207 $206 $407 $411 forward $91 $-1 #
edge $-1 $308 -0.128 $409 0.128 $300 $412 forward 7 unknown #
coedge $-1 $313 $312 $207 $306 reversed $297 $-1 #
edge $-1 $413 -0.128 $307 0.128 $305 $414 forward 7 unknown #
vertex $-1 $209 $415 #
vertex $-1 $319 $416 #
straight-curve $-1 0.128 0 -0.128 0 -1 0 I I #
coedge $-1 $299 $301 $210 $311 reversed $203 $-1 #
edge $-1 $314 -0.75 $317 0.75 $310 $417 forward 7 unknown #
coedge $-1 $305 $211 $216 $320 forward $297 $-1 #
coedge $-1 $211 $305 $299 $408 reversed $297 $-1 #
vertex $-1 $212 $418 #
straight-curve $-1 0 0.75 0.128 -1 0 0 I I #
coedge $-1 $213 $300 $215 $319 reversed $136 $-1 #
vertex $-1 $311 $419 #
straight-curve $-1 0 -0.75 0.128 1 0 0 I I #
edge $-1 $218 -0.128 $308 0.128 $215 $420 forward 7 unknown #
edge $-1 $219 -0.128 $307 0.128 $216 $421 forward 7 unknown #
point $-1 0.128 -0.75 0.128 #
point $-1 0.128 0.75 0.128 #
coedge $-1 $323 $323 $222 $324 forward $221 $-1 #
edge $-1 $422 0 $422 6.2831853071795862 $323 $423 forward 7 unknown #
vertex $-1 $223 $424 #
ellipse-curve $-1 0 0 -0.01 0 0 -1 0.125 0 0 1 I I #
point $-1 -0.10500000000000002 1.2858366715134964e-017 0.010000000000000002 #
coedge $-1 $328 $328 $227 $329 forward $226 $-1 #
edge $-1 $425 0 $425 6.2831853071795862 $328 $426 forward 7 unknown #
vertex $-1 $228 $427 #
ellipse-curve $-1 0 0 -0.010000000000000009 0 0 -1 0.125 0 0 1 I I #
point $-1 -0.1049999999999999 1.2858366715134949e-017 0.010000000000000009 #
face $-1 $428 $429 $37 $-1 $430 reversed single #
loop $-1 $-1 $356 $231 #
plane-surface $-1 0 0 0.128 0 0 1 1 0 0 forward_v I I I I #
coedge $-1 $431 $432 $433 $339 reversed $232 $-1 #
coedge $-1 $239 $233 $434 $435 reversed $158 $-1 #
coedge $-1 $233 $239 $436 $437 reversed $158 $-1 #
edge $-1 $438 -1.5 $439 0 $433 $440 forward 7 unknown #
coedge $-1 $235 $234 $441 $442 reversed $105 $-1 #
coedge $-1 $443 $444 $445 $342 forward $446 $-1 #
edge $-1 $447 -1.5 $346 0 $341 $448 forward 7 unknown #
coedge $-1 $344 $236 $449 $450 reversed $345 $-1 #
coedge $-1 $236 $343 $443 $451 forward $345 $-1 #
loop $-1 $-1 $236 $452 #
vertex $-1 $453 $454 #
vertex $-1 $455 $456 #
ellipse-curve $-1 4.7989143098308399e-034 0.75 0 0 -1 0 -0.128 0 0 1 I I #
coedge $-1 $457 $458 $238 $350 forward $459 $-1 #
edge $-1 $347 -1.5707963267948966 $352 0 $349 $348 forward 7 unknown #
coedge $-1 $460 $461 $462 $240 forward $429 $-1 #
vertex $-1 $463 $464 #
straight-curve $-1 -0.128 0.75 0 0 1 0 I I #
coedge $-1 $465 $241 $458 $455 forward $357 $-1 #
coedge $-1 $241 $465 $243 $359 forward $357 $-1 #
coedge $-1 $466 $449 $235 $242 reversed $334 $-1 #
loop $-1 $-1 $241 $467 #
straight-curve $-1 4.7989143098308399e-034 0.75 0.128 0 1 0 I I #
edge $-1 $468 -0.128 $247 4.7989143098308399e-034 $243 $469 forward 7 unknown #
coedge $-1 $470 $462 $244 $361 reversed $471 $-1 #
edge $-1 $468 -0.128 $246 0 $360 $472 forward 7 unknown #
face $-1 $473 $245 $37 $-1 $474 reversed single #
edge $-1 $246 0 $475 0.128 $461 $472 forward 7 unknown #
point $-1 -0.128 -0.75 0 #
edge $-1 $247 4.7989143098308399e-034 $476 0.128 $477 $469 forward 7 unknown #
point $-1 4.7989143098308399e-034 -0.75 0.128 #
loop $-1 $-1 $255 $164 #
coedge $-1 $368 $368 $253 $369 forward $249 $-1 #
edge $478 $479 -3.1415926535897931 $479 3.1415926535897931 $253 $480 forward 7 unknown #
vertex $-1 $254 $481 #
ellipse-curve $-1 4.7989143098308399e-034 0.75 0 0 -1 0 -0.128 0 0 1 I I #
vertex $-1 $256 $482 #
ellipse-curve $-1 0 0.125 0 0 1 0 -0.125 0 0 1 I I #
point $-1 0.125 0.75 1.5308082348592099e-017 #
loop $-1 $-1 $265 $172 #
coedge $-1 $376 $376 $263 $377 forward $259 $-1 #
edge $483 $484 -3.1415926535897931 $484 3.1415926535897931 $263 $485 forward 7 unknown #
vertex $-1 $264 $486 #
ellipse-curve $-1 4.7989143098308399e-034 -0.74999999999999978 0 0 1 0 -0.128 0 0 1 I I #
vertex $-1 $266 $487 #
ellipse-curve $-1 0 -0.12499999999999978 0 0 -1 0 -0.125 0 0 1 I I #
point $-1 -0.125 -0.75 0 #
face_name-twe-attrib $-1 $-1 $271 $182 6 #
model_id-kcp-attrib $-1 $488 $-1 $272 1 990669501 60 641466369 8 #
face $489 $490 $280 $11 $-1 $491 forward single #
cone-surface $492 0 0.074999999999999997 0 0 -1 0 -0.128 0 0 1 I I 0 1 0.128 forward I I I I #
loop_type-twe-attrib $-1 $-1 $-1 $273 0 #
coedge $-1 $388 $388 $293 $405 forward $273 $-1 #
surf-twe-attrib $-1 $493 $-1 $274 86 #
loop $494 $-1 $276 $490 #
attrib_edge_convexity-kcp-attrib $-1 $495 $-1 $277 1 #
vertex $-1 $277 $496 #
ellipse-curve $497 0 -1.5 0 0 -1 0 -0.105 0 0 1 I I #
edge_name-twe-attrib $-1 $-1 $-1 $279 5 8704 #
vertex $-1 $279 $498 #
ellipse-curve $499 0 -0.875 0 2.9999999999999998e-015 -1 0 -0.128 -3.8399999999999998e-016 0 1 I I #
loop_type-twe-attrib $-1 $-1 $-1 $280 0 #
loop $500 $-1 $501 $385 #
point $-1 -0.125 -0.875 0 #
cur-twe-attrib $-1 $-1 $-1 $283 51 #
loop_type-twe-attrib $-1 $-1 $-1 $284 1 #
point $-1 0.125 -0.625 1.5308082348592099e-017 #
cur-twe-attrib $-1 $-1 $-1 $287 53 #
loop_type-twe-attrib $-1 $-1 $-1 $289 1 #
edge $502 $503 -3.1415926535897931 $503 3.1415926535897931 $388 $504 forward 7 unknown #
plane-surface $-1 0.128 0 0 -1 0 0 0 0 1 forward_v I I I I #
coedge $-1 $301 $299 $303 $411 reversed $203 $-1 #
edge $-1 $314 -0.128 $413 0.128 $313 $505 forward 7 unknown #
vertex $-1 $411 $506 #
straight-curve $-1 -0.128 -0.75 0 0 0 -1 I I #
edge $-1 $409 -0.75 $413 0.75 $407 $507 forward 7 unknown #
straight-curve $-1 0 -0.75 -0.128 -1 0 0 I I #
vertex $-1 $306 $508 #
straight-curve $-1 0 0.75 -0.128 1 0 0 I I #
point $-1 0.128 0.75 -0.128 #
point $-1 0.128 -0.75 -0.128 #
straight-curve $-1 -0.128 0 0.128 0 -1 0 I I #
point $-1 -0.128 0.75 0.128 #
point $-1 -0.128 -0.75 0.128 #
straight-curve $-1 0.128 -0.75 0 0 0 -1 I I #
straight-curve $-1 0.128 0.75 0 0 0 -1 I I #
vertex $-1 $324 $509 #
ellipse-curve $-1 0 0 0.01 0 0 1 0.125 0 0 1 I I #
point $-1 0.125 0 -0.01 #
vertex $-1 $329 $510 #
ellipse-curve $-1 0 0 0.010000000000000009 0 0 1 0.125 0 0 1 I I #
point $-1 0.125 0 -0.010000000000000009 #
face $-1 $511 $512 $37 $-1 $513 reversed single #
loop $-1 $-1 $351 $333 #
plane-surface $-1 -0.128 0 0 1 0 0 0 0 -1 forward_v I I I I #
coedge $-1 $514 $336 $515 $516 reversed $232 $-1 #
coedge $-1 $336 $514 $517 $518 reversed $232 $-1 #
coedge $-1 $519 $520 $521 $339 forward $522 $-1 #
coedge $-1 $523 $524 $337 $435 forward $525 $-1 #
edge $-1 $352 0 $439 1.5707963267948966 $434 $348 forward 7 unknown #
coedge $-1 $526 $527 $338 $437 forward $528 $-1 #
edge $-1 $438 -1.5707963267948966 $246 0 $436 $248 forward 7 unknown #
vertex $-1 $529 $530 #
vertex $-1 $531 $532 #
straight-curve $-1 4.7989143098308399e-034 0.75 -0.128 0 1 0 I I #
coedge $-1 $533 $477 $340 $442 forward $534 $-1 #
edge $-1 $247 1.5707963267948966 $447 3.1415926535897931 $441 $248 forward 7 unknown #
coedge $-1 $535 $341 $344 $451 reversed $446 $-1 #
coedge $-1 $341 $535 $533 $536 forward $446 $-1 #
coedge $-1 $537 $538 $514 $342 reversed $512 $-1 #
loop $-1 $-1 $341 $539 #
vertex $-1 $540 $541 #
straight-curve $-1 0.128 0.75 0 0 1 0 I I #
coedge $-1 $356 $542 $343 $450 forward $334 $-1 #
edge $-1 $543 -0.128 $347 -4.7989143098308399e-034 $343 $544 forward 7 unknown #
edge $-1 $543 -0.128 $346 0 $443 $545 forward 7 unknown #
face $-1 $546 $345 $37 $-1 $547 reversed single #
edge $-1 $346 0 $548 0.128 $538 $545 forward 7 unknown #
point $-1 0.128 0.75 0 #
edge $-1 $347 -4.7989143098308399e-034 $549 0.128 $458 $544 forward 7 unknown #
point $-1 4.7989143098308399e-034 0.75 0.128 #
coedge $-1 $458 $349 $550 $551 reversed $459 $-1 #
coedge $-1 $349 $457 $354 $455 reversed $459 $-1 #
loop $-1 $-1 $349 $546 #
coedge $-1 $552 $351 $524 $463 forward $429 $-1 #
coedge $-1 $351 $552 $526 $363 reversed $429 $-1 #
coedge $-1 $360 $550 $160 $240 reversed $471 $-1 #
edge $-1 $352 0 $553 0.128 $524 $554 forward 7 unknown #
point $-1 -0.128 0.75 0 #
coedge $-1 $355 $354 $470 $555 forward $357 $-1 #
coedge $-1 $542 $356 $477 $365 forward $334 $-1 #
face $-1 $556 $357 $37 $-1 $335 forward single #
vertex $-1 $555 $557 #
straight-curve $-1 0 -0.75 0.128 1 0 0 I I #
coedge $-1 $550 $360 $465 $555 reversed $471 $-1 #
loop $-1 $-1 $462 $558 #
straight-curve $-1 -0.128 -0.75 0 0 0 -1 I I #
face $-1 $559 $534 $37 $-1 $474 reversed single #
plane-surface $-1 0 -0.75 0 0 1 0 0 0 1 forward_v I I I I #
vertex $-1 $560 $561 #
vertex $-1 $562 $563 #
coedge $-1 $441 $533 $466 $365 reversed $534 $-1 #
convexity-sys-attrib $-1 $-1 $-1 $369 #
vertex $-1 $369 $564 #
ellipse-curve $-1 4.7989143098308399e-034 0.125 0 0 -1 0 -0.128 0 0 1 I I #
point $-1 0.128 0.75 1.5674961328926428e-017 #
point $-1 0.125 0.125 1.5308082348592099e-017 #
convexity-sys-attrib $-1 $-1 $-1 $377 #
vertex $-1 $377 $565 #
ellipse-curve $-1 4.7989143098308399e-034 -0.12499999999999978 0 0 1 0 -0.128 0 0 1 I I #
point $-1 0.128 -0.74999999999999978 -1.5674961328926428e-017 #
point $-1 -0.125 -0.125 0 #
face_name-twe-attrib $-1 $-1 $384 $272 7 #
model_id-kcp-attrib $-1 $566 $-1 $385 1 990669501 60 641466369 9 #
face $567 $-1 $568 $11 $-1 $569 forward single #
cone-surface $570 0 0.074999999999999997 0 0 -1 0 -0.125 0 0 1 I I 0 1 0.125 forward I I I I #
surf-twe-attrib $-1 $-1 $-1 $386 63 #
surf-twe-attrib $-1 $-1 $389 $274 43 #
loop_type-twe-attrib $-1 $-1 $-1 $390 1 #
convexity-sys-attrib $-1 $571 $391 $277 #
point $-1 0.105 -1.5 1.28587891728174e-017 #
cur-twe-attrib $-1 $-1 $-1 $393 68 #
point $-1 0.128 -0.875 1.5675476324958399e-017 #
cur-twe-attrib $-1 $-1 $-1 $396 70 #
loop_type-twe-attrib $-1 $-1 $-1 $398 1 #
coedge $-1 $501 $501 $572 $573 reversed $398 $-1 #
attrib_edge_convexity-kcp-attrib $-1 $574 $-1 $405 1 #
vertex $-1 $405 $575 #
ellipse-curve $576 0 -0.02 0 0 -1 0 -0.125 0 0 1 I I #
straight-curve $-1 -0.128 0.75 0 0 0 -1 I I #
point $-1 -0.128 -0.75 -0.128 #
straight-curve $-1 -0.128 0 -0.128 0 1 0 I I #
point $-1 -0.128 0.75 -0.128 #
point $-1 0.125 0 0.01 #
point $-1 0.125 0 0.010000000000000009 #
face $-1 $452 $577 $37 $-1 $547 reversed single #
loop $-1 $-1 $445 $428 #
plane-surface $-1 0.128 0 0 -1 0 0 0 0 1 forward_v I I I I #
coedge $-1 $432 $431 $234 $342 forward $232 $-1 #
coedge $-1 $578 $579 $431 $516 forward $580 $-1 #
edge $-1 $447 -3.1415926535897931 $438 -1.5707963267948966 $515 $248 forward 7 unknown #
coedge $-1 $581 $582 $432 $518 forward $577 $-1 #
edge $-1 $439 1.5707963267948966 $346 3.1415926535897931 $517 $348 forward 7 unknown #
coedge $-1 $583 $433 $582 $531 forward $522 $-1 #
coedge $-1 $433 $583 $578 $584 forward $522 $-1 #
coedge $-1 $585 $586 $233 $339 reversed $587 $-1 #
loop $-1 $-1 $433 $556 #
coedge $-1 $524 $434 $586 $588 reversed $525 $-1 #
coedge $-1 $434 $523 $460 $463 reversed $525 $-1 #
loop $-1 $-1 $434 $589 #
coedge $-1 $527 $436 $461 $363 forward $528 $-1 #
coedge $-1 $436 $526 $585 $529 reversed $528 $-1 #
loop $-1 $-1 $436 $590 #
edge $-1 $438 -4.7989143098308399e-034 $475 0.128 $527 $591 forward 7 unknown #
point $-1 4.7989143098308399e-034 -0.75 -0.128 #
edge $-1 $439 4.7989143098308399e-034 $548 0.128 $582 $592 forward 7 unknown #
point $-1 4.7989143098308399e-034 0.75 -0.128 #
coedge $-1 $477 $441 $444 $536 reversed $534 $-1 #
loop $-1 $-1 $441 $473 #
coedge $-1 $444 $443 $542 $562 reversed $446 $-1 #
edge $-1 $476 -0.128 $447 0 $444 $593 forward 7 unknown #
coedge $-1 $594 $445 $579 $540 forward $512 $-1 #
coedge $-1 $445 $594 $581 $453 reversed $512 $-1 #
face $-1 $-1 $446 $37 $-1 $513 reversed single #
edge $-1 $447 0 $595 0.128 $537 $593 forward 7 unknown #
point $-1 0.128 -0.75 0 #
coedge $-1 $449 $466 $535 $562 forward $334 $-1 #
vertex $-1 $562 $596 #
straight-curve $-1 0 0.75 0.128 -1 0 0 I I #
straight-curve $-1 0.128 0.75 0 0 0 -1 I I #
face $-1 $589 $459 $37 $-1 $547 reversed single #
plane-surface $-1 0 0.75 0 0 -1 0 0 0 -1 forward_v I I I I #
vertex $-1 $597 $598 #
vertex $-1 $455 $599 #
coedge $-1 $462 $470 $457 $551 forward $471 $-1 #
edge $-1 $549 -0.128 $352 0 $457 $554 forward 7 unknown #
coedge $-1 $461 $460 $600 $560 reversed $429 $-1 #
vertex $-1 $588 $601 #
straight-curve $-1 -0.128 0.75 0 0 0 -1 I I #
edge $-1 $549 -0.75 $468 0.75 $470 $602 forward 7 unknown #
face $-1 $558 $522 $37 $-1 $603 reversed single #
point $-1 -0.128 -0.75 0.128 #
face $-1 $539 $471 $37 $-1 $430 reversed single #
face $-1 $604 $580 $37 $-1 $474 reversed single #
edge $-1 $475 -0.75 $553 0.75 $552 $605 forward 7 unknown #
point $-1 -0.128 -0.75 -0.128 #
edge $-1 $476 -0.75 $543 0.75 $535 $606 forward 7 unknown #
point $-1 0.128 -0.75 0.128 #
point $-1 0.128 0.125 1.5674961328926428e-017 #
point $-1 0.128 -0.12499999999999978 -1.5674961328926428e-017 #
face_name-twe-attrib $-1 $-1 $489 $385 8 #
model_id-kcp-attrib $-1 $607 $-1 $490 1 990669501 60 641466369 10 #
loop $608 $390 $572 $490 #
cone-surface $609 0 -1.48 0 0 1 0 -0.125 0 0 1 I I 0.70710678118654702 0.70710678118654802 0.125 forward I I I I #
surf-twe-attrib $-1 $610 $-1 $491 86 #
edge_name-twe-attrib $-1 $-1 $495 $277 8 8448 #
coedge $-1 $572 $572 $501 $573 forward $568 $-1 #
edge $611 $612 -3.1415926535897931 $612 3.1415926535897931 $572 $613 forward 7 unknown #
convexity-sys-attrib $-1 $614 $502 $405 #
point $-1 0.125 -0.02 -1.5308082348592099e-017 #
cur-twe-attrib $-1 $-1 $-1 $504 106 #
loop $-1 $-1 $517 $511 #
coedge $-1 $579 $515 $520 $584 reversed $580 $-1 #
coedge $-1 $515 $578 $537 $540 reversed $580 $-1 #
loop $-1 $-1 $515 $559 #
coedge $-1 $582 $517 $538 $453 forward $577 $-1 #
coedge $-1 $517 $581 $519 $531 reversed $577 $-1 #
coedge $-1 $520 $519 $594 $597 forward $522 $-1 #
edge $-1 $595 -0.128 $438 -4.7989143098308399e-034 $578 $591 forward 7 unknown #
coedge $-1 $600 $521 $527 $529 forward $587 $-1 #
coedge $-1 $521 $600 $523 $588 forward $587 $-1 #
loop $-1 $-1 $521 $604 #
edge $-1 $553 -0.128 $439 4.7989143098308399e-034 $523 $592 forward 7 unknown #
face $-1 $590 $525 $37 $-1 $547 reversed single #
face $-1 $362 $528 $37 $-1 $474 reversed single #
straight-curve $-1 0 -0.75 -0.128 -1 0 0 I I #
straight-curve $-1 0 0.75 -0.128 1 0 0 I I #
straight-curve $-1 0.128 -0.75 0 0 0 -1 I I #
coedge $-1 $538 $537 $583 $597 reversed $512 $-1 #
vertex $-1 $540 $615 #
point $-1 0.128 0.75 0.128 #
edge $-1 $548 -0.75 $595 0.75 $594 $616 forward 7 unknown #
point $-1 0.128 0.75 -0.128 #
point $-1 -0.128 0.75 0.128 #
coedge $-1 $586 $585 $552 $560 forward $587 $-1 #
point $-1 -0.128 0.75 -0.128 #
straight-curve $-1 -0.128 0 0.128 0 -1 0 I I #
plane-surface $-1 0 0 -0.128 0 0 1 1 0 0 forward_v I I I I #
face $-1 $467 $587 $37 $-1 $603 reversed single #
straight-curve $-1 -0.128 0 -0.128 0 1 0 I I #
straight-curve $-1 0.128 0 0.128 0 1 0 I I #
face_name-twe-attrib $-1 $-1 $567 $490 9 #
loop_type-twe-attrib $-1 $-1 $-1 $568 0 #
surf-twe-attrib $-1 $-1 $-1 $569 108 #
surf-twe-attrib $-1 $-1 $570 $491 43 #
attrib_edge_convexity-kcp-attrib $-1 $617 $-1 $573 1 #
vertex $-1 $573 $618 #
ellipse-curve $619 0 -1.48 0 0 -1 0 -0.125 0 0 1 I I #
edge_name-twe-attrib $-1 $-1 $574 $405 2 8448 #
point $-1 0.128 -0.75 -0.128 #
straight-curve $-1 0.128 0 -0.128 0 -1 0 I I #
convexity-sys-attrib $-1 $620 $611 $573 #
point $-1 0.125 -1.48 -1.5308082348592099e-017 #
cur-twe-attrib $-1 $-1 $-1 $613 127 #
edge_name-twe-attrib $-1 $-1 $617 $573 7 8448 #
End-of-ACIS-data 