104 138 0 0                             
body $-1 $1 $-1 $2 #
lump $-1 $-1 $3 $0 #
transform $-1 1 0 0 0 1 0 0 0 1 0 0 0 1 0 0 0 #
shell $-1 $-1 $-1 $4 $1 #
face $5 $6 $7 $3 $-1 $8 1 #
face_name-twe-attrib $-1 $-1 $-1 $4 1 #
face $9 $10 $11 $3 $-1 $12 1 #
loop $13 $-1 $14 $4 #
plane-surface $15 0 0 0 0 -1 0 0 0 -1 0 #
face_name-twe-attrib $-1 $-1 $-1 $6 2 #
face $16 $17 $18 $3 $-1 $19 0 #
loop $20 $21 $22 $6 #
plane-surface $23 0 -0.625 0 0 -1 0 0 0 -1 0 #
loop_type-twe-attrib $-1 $-1 $-1 $7 0 #
coedge $-1 $14 $14 $24 $25 1 $7 $-1 #
surf-twe-attrib $-1 $-1 $-1 $8 4 #
face_name-twe-attrib $-1 $-1 $-1 $10 3 #
face $26 $27 $28 $3 $-1 $29 0 #
loop $30 $31 $32 $10 #
plane-surface $33 0 -0.875 0 0 -1 0 0 0 -1 0 #
loop_type-twe-attrib $-1 $-1 $-1 $11 0 #
loop $34 $-1 $35 $6 #
coedge $-1 $22 $22 $36 $37 1 $11 $-1 #
surf-twe-attrib $-1 $-1 $-1 $12 6 #
coedge $-1 $24 $24 $14 $25 0 $38 $-1 #
edge $39 $40 $40 $24 $41 0 #
face_name-twe-attrib $-1 $-1 $-1 $17 4 #
face $42 $43 $38 $3 $-1 $44 0 #
loop $45 $-1 $46 $17 #
plane-surface $47 0 -1.5 0 0 -1 0 0 0 -1 0 #
loop_type-twe-attrib $-1 $-1 $-1 $18 1 #
loop $48 $-1 $49 $10 #
coedge $-1 $32 $32 $50 $51 1 $18 $-1 #
surf-twe-attrib $-1 $-1 $-1 $19 10 #
loop_type-twe-attrib $-1 $-1 $-1 $21 1 #
coedge $-1 $35 $35 $52 $53 0 $21 $-1 #
coedge $-1 $36 $36 $22 $37 0 $54 $-1 #
edge $55 $56 $56 $36 $57 0 #
loop $58 $59 $24 $27 #
edge_name-twe-attrib $-1 $-1 $-1 $25 1 8448 #
vertex $-1 $25 $60 #
ellipse-curve $61 0 0 0 0 -1 0 -0.105 0 0 1 #
face_name-twe-attrib $-1 $-1 $-1 $27 5 #
face $62 $63 $64 $3 $-1 $65 0 #
cone-surface $66 0 -0.02 0 0 -1 0 -0.125 0 0 1 0.707106781186547 0.707106781186548 0 #
loop_type-twe-attrib $-1 $-1 $-1 $28 0 #
coedge $-1 $46 $46 $67 $68 0 $28 $-1 #
surf-twe-attrib $-1 $-1 $-1 $29 17 #
loop_type-twe-attrib $-1 $-1 $-1 $31 0 #
coedge $-1 $49 $49 $69 $70 0 $31 $-1 #
coedge $-1 $50 $50 $32 $51 0 $71 $-1 #
edge $72 $73 $73 $50 $74 0 #
coedge $-1 $52 $52 $35 $53 1 $75 $-1 #
edge $76 $77 $77 $52 $78 0 #
loop $79 $80 $36 $63 #
edge_name-twe-attrib $-1 $-1 $-1 $37 4 8704 #
vertex $-1 $37 $81 #
ellipse-curve $82 0 -0.625 0 2e-15 -1 0 -0.128 -2.56e-16 0 1 #
loop_type-twe-attrib $-1 $-1 $-1 $38 0 #
loop $83 $-1 $84 $27 #
point $-1 -0.105 0 0 #
cur-twe-attrib $-1 $-1 $-1 $41 25 #
face_name-twe-attrib $-1 $-1 $-1 $43 6 #
face $85 $86 $54 $3 $-1 $87 0 #
loop $88 $75 $89 $43 #
cone-surface $90 0 0.075 0 0 -1 0 -0.125 0 0 1 0 1 0 #
surf-twe-attrib $-1 $-1 $-1 $44 27 #
coedge $-1 $67 $67 $46 $68 1 $91 $-1 #
edge $92 $93 $93 $67 $94 0 #
coedge $-1 $69 $69 $49 $70 1 $80 $-1 #
edge $95 $96 $96 $69 $97 0 #
loop $98 $99 $50 $86 #
edge_name-twe-attrib $-1 $-1 $-1 $51 6 4608 #
vertex $-1 $51 $100 #
ellipse-curve $101 0 -0.875 0 3e-15 -1 0 -0.125 -3.75e-16 0 1 #
loop $102 $-1 $52 $43 #
edge_name-twe-attrib $-1 $-1 $-1 $53 3 4608 #
vertex $-1 $53 $103 #
ellipse-curve $104 0 -0.625 0 2e-15 -1 0 -0.125 -2.5e-16 0 1 #
loop_type-twe-attrib $-1 $-1 $-1 $54 0 #
loop $105 $-1 $69 $63 #
point $-1 -0.128 -0.625 0 #
cur-twe-attrib $-1 $-1 $-1 $57 37 #
loop_type-twe-attrib $-1 $-1 $-1 $59 1 #
coedge $-1 $84 $84 $89 $106 1 $59 $-1 #
face_name-twe-attrib $-1 $-1 $-1 $63 7 #
face $107 $108 $71 $3 $-1 $109 0 #
cone-surface $110 0 0.075 0 0 -1 0 -0.128 0 0 1 0 1 0 #
loop_type-twe-attrib $-1 $-1 $-1 $64 0 #
coedge $-1 $89 $89 $84 $106 0 $64 $-1 #
surf-twe-attrib $-1 $111 $-1 $65 86 #
loop $112 $-1 $67 $108 #
edge_name-twe-attrib $-1 $-1 $-1 $68 8 8448 #
vertex $-1 $68 $113 #
ellipse-curve $114 0 -1.5 0 0 -1 0 -0.105 0 0 1 #
edge_name-twe-attrib $-1 $-1 $-1 $70 5 8704 #
vertex $-1 $70 $115 #
ellipse-curve $116 0 -0.875 0 3e-15 -1 0 -0.128 -3.84e-16 0 1 #
loop_type-twe-attrib $-1 $-1 $-1 $71 0 #
loop $117 $-1 $118 $86 #
point $-1 -0.125 -0.875 0 #
cur-twe-attrib $-1 $-1 $-1 $74 51 #
loop_type-twe-attrib $-1 $-1 $-1 $75 1 #
point $-1 0.125 -0.625 1.53080823485921e-17 #
cur-twe-attrib $-1 $-1 $-1 $78 53 #
loop_type-twe-attrib $-1 $-1 $-1 $80 1 #
edge $119 $120 $120 $89 $121 0 #
face_name-twe-attrib $-1 $-1 $-1 $86 8 #
face $122 $-1 $123 $3 $-1 $124 0 #
cone-surface $125 0 0.075 0 0 -1 0 -0.125 0 0 1 0 1 0 #
surf-twe-attrib $-1 $-1 $-1 $87 63 #
surf-twe-attrib $-1 $-1 $90 $65 43 #
loop_type-twe-attrib $-1 $-1 $-1 $91 1 #
point $-1 0.105 -1.5 1.28587891728174e-17 #
cur-twe-attrib $-1 $-1 $-1 $94 68 #
point $-1 0.128 -0.875 1.56754763249584e-17 #
cur-twe-attrib $-1 $-1 $-1 $97 70 #
loop_type-twe-attrib $-1 $-1 $-1 $99 1 #
coedge $-1 $118 $118 $126 $127 1 $99 $-1 #
edge_name-twe-attrib $-1 $-1 $-1 $106 2 8448 #
vertex $-1 $106 $128 #
ellipse-curve $129 0 -0.02 0 0 -1 0 -0.125 0 0 1 #
face_name-twe-attrib $-1 $-1 $-1 $108 9 #
loop $130 $91 $126 $108 #
cone-surface $131 0 -1.48 0 0 1 0 -0.125 0 0 1 0.707106781186547 0.707106781186548 0 #
surf-twe-attrib $-1 $132 $-1 $109 86 #
coedge $-1 $126 $126 $118 $127 0 $123 $-1 #
edge $133 $134 $134 $126 $135 0 #
point $-1 0.125 -0.02 -1.53080823485921e-17 #
cur-twe-attrib $-1 $-1 $-1 $121 106 #
loop_type-twe-attrib $-1 $-1 $-1 $123 0 #
surf-twe-attrib $-1 $-1 $-1 $124 108 #
surf-twe-attrib $-1 $-1 $125 $109 43 #
edge_name-twe-attrib $-1 $-1 $-1 $127 7 8448 #
vertex $-1 $127 $136 #
ellipse-curve $137 0 -1.48 0 0 -1 0 -0.125 0 0 1 #
point $-1 0.125 -1.48 -1.53080823485921e-17 #
cur-twe-attrib $-1 $-1 $-1 $135 127 #
