600 0 1 0           
97 GICL ACIS Healer - Source: /gicl/data5/repository/ICEM-CDC/Fixture_Models/Stud10/Stud10.sat - 6 0 18 ACIS 6.0.3 Solaris 24 Sat Apr 13 23:06:34 2002 
1 9.999999999999999547e-07 1.000000000000000036e-10 
body $-1 $1 $-1 $2 #
lump $-1 $-1 $3 $0 #
transform $-1 1 0 0 0 1 0 0 0 1 0 0 0 1 no_rotate no_reflect no_shear #
shell $-1 $-1 $-1 $4 $-1 $1 #
face $5 $6 $7 $3 $-1 $8 reversed single #
face_name-twe-attrib $-1 $-1 $-1 $4 1 #
face $9 $10 $11 $3 $-1 $12 reversed single #
loop $13 $-1 $14 $4 #
plane-surface $15 0 0 0 0 -1 0 0 0 -1 forward_v I I I I #
face_name-twe-attrib $-1 $-1 $-1 $6 2 #
face $16 $17 $18 $3 $-1 $19 forward single #
loop $20 $21 $22 $6 #
plane-surface $23 0 -0.625 0 0 -1 0 0 0 -1 forward_v I I I I #
loop_type-twe-attrib $-1 $-1 $-1 $7 0 #
coedge $-1 $14 $14 $24 $25 reversed $7 $-1 #
surf-twe-attrib $-1 $-1 $-1 $8 4 #
face_name-twe-attrib $-1 $-1 $-1 $10 3 #
face $26 $27 $28 $3 $-1 $29 forward single #
loop $30 $31 $32 $10 #
plane-surface $33 0 -0.875 0 0 -1 0 0 0 -1 forward_v I I I I #
loop_type-twe-attrib $-1 $-1 $-1 $11 0 #
loop $34 $-1 $35 $6 #
coedge $-1 $22 $22 $36 $37 reversed $11 $-1 #
surf-twe-attrib $-1 $-1 $-1 $12 6 #
coedge $-1 $24 $24 $14 $25 forward $38 $-1 #
edge $39 $40 0 $40 6.283185307179586232 $24 $41 forward 7 unknown #
face_name-twe-attrib $-1 $-1 $-1 $17 4 #
face $42 $43 $38 $3 $-1 $44 forward single #
loop $45 $-1 $46 $17 #
plane-surface $47 0 -1.5 0 0 -1 0 0 0 -1 forward_v I I I I #
loop_type-twe-attrib $-1 $-1 $-1 $18 1 #
loop $48 $-1 $49 $10 #
coedge $-1 $32 $32 $50 $51 reversed $18 $-1 #
surf-twe-attrib $-1 $-1 $-1 $19 10 #
loop_type-twe-attrib $-1 $-1 $-1 $21 1 #
coedge $-1 $35 $35 $52 $53 forward $21 $-1 #
coedge $-1 $36 $36 $22 $37 forward $54 $-1 #
edge $55 $56 0 $56 6.283185307179586232 $36 $57 forward 7 unknown #
loop $58 $59 $24 $27 #
edge_name-twe-attrib $-1 $-1 $-1 $25 1 8448 #
vertex $-1 $25 $60 #
ellipse-curve $61 0 0 0 0 -1 0 -0.1049999999999999961 0 0 1 I I #
face_name-twe-attrib $-1 $-1 $-1 $27 5 #
face $62 $63 $64 $3 $-1 $65 forward single #
cone-surface $66 0 -0.02000000000000000042 0 0 -1 0 -0.125 0 0 1 I I 0.7071067811865470176 0.7071067811865480168 0.125 forward I I I I #
loop_type-twe-attrib $-1 $-1 $-1 $28 0 #
coedge $-1 $46 $46 $67 $68 forward $28 $-1 #
surf-twe-attrib $-1 $-1 $-1 $29 17 #
loop_type-twe-attrib $-1 $-1 $-1 $31 0 #
coedge $-1 $49 $49 $69 $70 forward $31 $-1 #
coedge $-1 $50 $50 $32 $51 forward $71 $-1 #
edge $72 $73 0 $73 6.283185307179586232 $50 $74 forward 7 unknown #
coedge $-1 $52 $52 $35 $53 reversed $75 $-1 #
edge $76 $77 -3.141592653589793116 $77 3.141592653589793116 $52 $78 forward 7 unknown #
loop $79 $80 $36 $63 #
edge_name-twe-attrib $-1 $-1 $-1 $37 4 8704 #
vertex $-1 $37 $81 #
ellipse-curve $82 0 -0.625 0 2.000000000000000155e-15 -1 0 -0.1280000000000000027 -2.560000000000000183e-16 0 1 I I #
loop_type-twe-attrib $-1 $-1 $-1 $38 0 #
loop $83 $-1 $84 $27 #
point $-1 -0.1049999999999999961 0 0 #
cur-twe-attrib $-1 $-1 $-1 $41 25 #
face_name-twe-attrib $-1 $-1 $-1 $43 6 #
face $85 $86 $54 $3 $-1 $87 forward single #
loop $88 $75 $89 $43 #
cone-surface $90 0 0.07499999999999999722 0 0 -1 0 -0.125 0 0 1 I I 0 1 0.125 forward I I I I #
surf-twe-attrib $-1 $-1 $-1 $44 27 #
coedge $-1 $67 $67 $46 $68 reversed $91 $-1 #
edge $92 $93 -3.141592653589793116 $93 3.141592653589793116 $67 $94 forward 7 unknown #
coedge $-1 $69 $69 $49 $70 reversed $80 $-1 #
edge $95 $96 -3.141592653589793116 $96 3.141592653589793116 $69 $97 forward 7 unknown #
loop $98 $99 $50 $86 #
edge_name-twe-attrib $-1 $-1 $-1 $51 6 4608 #
vertex $-1 $51 $100 #
ellipse-curve $101 0 -0.875 0 2.999999999999999839e-15 -1 0 -0.125 -3.749999999999999798e-16 0 1 I I #
loop $102 $-1 $52 $43 #
edge_name-twe-attrib $-1 $-1 $-1 $53 3 4608 #
vertex $-1 $53 $103 #
ellipse-curve $104 0 -0.625 0 2.000000000000000155e-15 -1 0 -0.125 -2.500000000000000194e-16 0 1 I I #
loop_type-twe-attrib $-1 $-1 $-1 $54 0 #
loop $105 $-1 $69 $63 #
point $-1 -0.1280000000000000027 -0.625 0 #
cur-twe-attrib $-1 $-1 $-1 $57 37 #
loop_type-twe-attrib $-1 $-1 $-1 $59 1 #
coedge $-1 $84 $84 $89 $106 reversed $59 $-1 #
face_name-twe-attrib $-1 $-1 $-1 $63 7 #
face $107 $108 $71 $3 $-1 $109 forward single #
cone-surface $110 0 0.07499999999999999722 0 0 -1 0 -0.1280000000000000027 0 0 1 I I 0 1 0.1280000000000000027 forward I I I I #
loop_type-twe-attrib $-1 $-1 $-1 $64 0 #
coedge $-1 $89 $89 $84 $106 forward $64 $-1 #
surf-twe-attrib $-1 $111 $-1 $65 86 #
loop $112 $-1 $67 $108 #
edge_name-twe-attrib $-1 $-1 $-1 $68 8 8448 #
vertex $-1 $68 $113 #
ellipse-curve $114 0 -1.5 0 0 -1 0 -0.1049999999999999961 0 0 1 I I #
edge_name-twe-attrib $-1 $-1 $-1 $70 5 8704 #
vertex $-1 $70 $115 #
ellipse-curve $116 0 -0.875 0 2.999999999999999839e-15 -1 0 -0.1280000000000000027 -3.839999999999999782e-16 0 1 I I #
loop_type-twe-attrib $-1 $-1 $-1 $71 0 #
loop $117 $-1 $118 $86 #
point $-1 -0.125 -0.875 0 #
cur-twe-attrib $-1 $-1 $-1 $74 51 #
loop_type-twe-attrib $-1 $-1 $-1 $75 1 #
point $-1 0.125 -0.625 1.530808234859209866e-17 #
cur-twe-attrib $-1 $-1 $-1 $78 53 #
loop_type-twe-attrib $-1 $-1 $-1 $80 1 #
edge $119 $120 -3.141592653589793116 $120 3.141592653589793116 $89 $121 forward 7 unknown #
face_name-twe-attrib $-1 $-1 $-1 $86 8 #
face $122 $-1 $123 $3 $-1 $124 forward single #
cone-surface $125 0 0.07499999999999999722 0 0 -1 0 -0.125 0 0 1 I I 0 1 0.125 forward I I I I #
surf-twe-attrib $-1 $-1 $-1 $87 63 #
surf-twe-attrib $-1 $-1 $90 $65 43 #
loop_type-twe-attrib $-1 $-1 $-1 $91 1 #
point $-1 0.1049999999999999961 -1.5 1.285878917281739986e-17 #
cur-twe-attrib $-1 $-1 $-1 $94 68 #
point $-1 0.1280000000000000027 -0.875 1.567547632495839901e-17 #
cur-twe-attrib $-1 $-1 $-1 $97 70 #
loop_type-twe-attrib $-1 $-1 $-1 $99 1 #
coedge $-1 $118 $118 $126 $127 reversed $99 $-1 #
edge_name-twe-attrib $-1 $-1 $-1 $106 2 8448 #
vertex $-1 $106 $128 #
ellipse-curve $129 0 -0.02000000000000000042 0 0 -1 0 -0.125 0 0 1 I I #
face_name-twe-attrib $-1 $-1 $-1 $108 9 #
loop $130 $91 $126 $108 #
cone-surface $131 0 -1.479999999999999982 0 0 1 0 -0.125 0 0 1 I I 0.7071067811865470176 0.7071067811865480168 0.125 forward I I I I #
surf-twe-attrib $-1 $132 $-1 $109 86 #
coedge $-1 $126 $126 $118 $127 forward $123 $-1 #
edge $133 $134 -3.141592653589793116 $134 3.141592653589793116 $126 $135 forward 7 unknown #
point $-1 0.125 -0.02000000000000000042 -1.530808234859209866e-17 #
cur-twe-attrib $-1 $-1 $-1 $121 106 #
loop_type-twe-attrib $-1 $-1 $-1 $123 0 #
surf-twe-attrib $-1 $-1 $-1 $124 108 #
surf-twe-attrib $-1 $-1 $125 $109 43 #
edge_name-twe-attrib $-1 $-1 $-1 $127 7 8448 #
vertex $-1 $127 $136 #
ellipse-curve $137 0 -1.479999999999999982 0 0 -1 0 -0.125 0 0 1 I I #
point $-1 0.125 -1.479999999999999982 -1.530808234859209866e-17 #
cur-twe-attrib $-1 $-1 $-1 $135 127 #
End-of-ACIS-data 