700 0 2 0           
24 FBMach with ACIS - 7.0.3 13 ACIS 7.0.3 NT 24 Tue May 14 10:17:22 2002 
1 9.9999999999999995e-007 1e-010 
body $2 -1 $-1 $3 $-1 $4 #
bdycol-kcp $-1 -1 1 6 $5 $6 $7 $8 $9 $10 #
model_id-kcp-attrib $-1 -1 $-1 $-1 $0 1 1021385841 1021385841 1047527425 1 #
lump $-1 -1 $-1 $-1 $11 $0 #
transform $-1 -1 1 0 0 0 1 0 0 0 1 0 0 0 1 rotate no_reflect no_shear #
body $12 -1 $-1 $13 $-1 $14 #
body $15 -1 $-1 $16 $-1 $17 #
body $18 -1 $-1 $19 $-1 $20 #
body $21 -1 $-1 $22 $-1 $23 #
body $24 -1 $-1 $25 $-1 $26 #
body $27 -1 $-1 $28 $-1 $29 #
shell $-1 -1 $-1 $-1 $-1 $30 $-1 $3 #
rgb_color-st-attrib $-1 -1 $31 $-1 $5 1 0.5 1 #
lump $-1 -1 $-1 $-1 $32 $5 #
transform $-1 -1 1 0 0 0 1 0 0 0 1 0 -0.75 0 1 no_rotate no_reflect no_shear #
model_id-kcp-attrib $-1 -1 $-1 $-1 $6 1 1021385841 1021385841 1047527426 1 #
lump $-1 -1 $-1 $-1 $33 $6 #
transform $-1 -1 1 0 0 0 1 0 0 0 1 0 -0.75 0 1 no_rotate no_reflect no_shear #
rgb_color-st-attrib $-1 -1 $34 $-1 $7 1 0.5 1 #
lump $-1 -1 $-1 $-1 $35 $7 #
transform $-1 -1 1 0 0 0 1 0 0 0 1 0 -0.75 0 1 no_rotate no_reflect no_shear #
rgb_color-st-attrib $-1 -1 $36 $-1 $8 1 1 0.5 #
lump $-1 -1 $-1 $-1 $37 $8 #
transform $-1 -1 -1 0 0 0 0 1 0 1 0 0 -0.01 0 1 rotate no_reflect no_shear #
rgb_color-st-attrib $-1 -1 $38 $-1 $9 1 1 0.5 #
lump $-1 -1 $-1 $-1 $39 $9 #
transform $-1 -1 1 0 0 0 0 1 0 -1 0 0 -1.49 0 1 rotate no_reflect no_shear #
rgb_color-st-attrib $-1 -1 $40 $-1 $10 0.5 1 1 #
lump $-1 -1 $-1 $-1 $41 $10 #
transform $-1 -1 1 0 0 0 1 0 0 0 1 0 -0.75 0 1 no_rotate no_reflect no_shear #
face $42 -1 $-1 $43 $44 $11 $-1 $45 reversed single #
model_id-kcp-attrib $-1 -1 $-1 $12 $5 1 1021385841 1021385841 1043857414 1 #
shell $-1 -1 $-1 $-1 $-1 $46 $-1 $13 #
shell $-1 -1 $-1 $-1 $-1 $47 $-1 $16 #
model_id-kcp-attrib $-1 -1 $-1 $18 $7 1 1021385841 1021385841 1047789575 1 #
shell $-1 -1 $-1 $-1 $-1 $48 $-1 $19 #
model_id-kcp-attrib $-1 -1 $-1 $21 $8 1 1021385841 1021385841 1048838147 1 #
shell $-1 -1 $-1 $-1 $-1 $49 $-1 $22 #
model_id-kcp-attrib $-1 -1 $-1 $24 $9 1 1021385841 1021385841 1048838148 1 #
shell $-1 -1 $-1 $-1 $-1 $50 $-1 $25 #
model_id-kcp-attrib $-1 -1 $-1 $27 $10 1 1021385841 1021385841 1052114949 1 #
shell $-1 -1 $-1 $-1 $-1 $51 $-1 $28 #
model_id-kcp-attrib $-1 -1 $52 $-1 $30 1 1021385841 1021385841 1047527425 2 #
face $53 -1 $-1 $54 $55 $11 $-1 $56 reversed single #
loop $57 -1 $-1 $-1 $58 $30 #
plane-surface $59 -1 $-1 0 0 0 0 -1 0 0 0 -1 forward_v I I I I #
face $-1 -1 $-1 $60 $61 $32 $-1 $62 forward single #
face $-1 -1 $-1 $63 $64 $33 $-1 $65 forward single #
face $-1 -1 $-1 $66 $67 $35 $-1 $68 forward single #
face $-1 -1 $-1 $69 $70 $37 $-1 $71 reversed single #
face $-1 -1 $-1 $72 $73 $39 $-1 $74 reversed single #
face $-1 -1 $-1 $75 $76 $41 $-1 $77 reversed single #
face_name-twe-attrib $-1 -1 $-1 $42 $30 1 #
model_id-kcp-attrib $-1 -1 $78 $-1 $43 1 1021385841 1021385841 1047527425 3 #
face $79 -1 $-1 $80 $81 $11 $-1 $82 forward single #
loop $83 -1 $-1 $84 $85 $43 #
plane-surface $86 -1 $-1 0 -0.625 0 0 -1 0 0 0 -1 forward_v I I I I #
loop_type-twe-attrib $-1 -1 $-1 $-1 $44 0 #
coedge $-1 -1 $-1 $58 $58 $87 $88 reversed $44 $-1 #
surf-twe-attrib $-1 -1 $-1 $-1 $45 4 #
face $-1 -1 $-1 $89 $90 $32 $-1 $91 forward single #
loop $-1 -1 $-1 $92 $93 $46 #
cone-surface $-1 -1 $-1 0 0.125 0 0 1 0 -0.125 0 0 1 I I 0 -1 0.125 forward I I I I #
face $-1 -1 $-1 $94 $95 $33 $-1 $96 reversed single #
loop $-1 -1 $-1 $-1 $97 $47 #
plane-surface $-1 -1 $-1 0 0 0.128 0 0 1 1 0 0 forward_v I I I I #
face $-1 -1 $-1 $98 $99 $35 $-1 $100 forward single #
loop $-1 -1 $-1 $101 $102 $48 #
cone-surface $-1 -1 $-1 0 -0.12499999999999978 0 0 -1 0 -0.125 0 0 1 I I 0 -1 0.125 forward I I I I #
face $-1 -1 $-1 $103 $104 $37 $-1 $105 forward single #
loop $-1 -1 $-1 $106 $107 $49 #
cone-surface $-1 -1 $-1 0 0 0.052500000000000081 0 0 1 0.0625 0 0 1 I I -0.70710678118654702 0.70710678118654802 0.0625 forward I I I I #
face $-1 -1 $-1 $108 $109 $39 $-1 $110 forward single #
loop $-1 -1 $-1 $111 $112 $50 #
cone-surface $-1 -1 $-1 0 0 0.052499999999999991 0 0 1 0.0625 0 0 1 I I -0.70710678118654691 0.70710678118654813 0.0625 forward I I I I #
face $-1 -1 $-1 $113 $114 $41 $-1 $77 reversed single #
loop $-1 -1 $-1 $-1 $115 $51 #
cone-surface $-1 -1 $-1 4.7989143098308399e-034 0.75 0 0 1 0 -0.128 0 0 1 I I 0 1 0.128 forward I I I I #
face_name-twe-attrib $-1 -1 $-1 $53 $43 2 #
model_id-kcp-attrib $-1 -1 $116 $-1 $54 1 1021385841 1021385841 1047527425 4 #
face $117 -1 $-1 $118 $119 $11 $-1 $120 forward single #
loop $121 -1 $-1 $122 $123 $54 #
plane-surface $124 -1 $-1 0 -0.875 0 0 -1 0 0 0 -1 forward_v I I I I #
loop_type-twe-attrib $-1 -1 $-1 $-1 $55 0 #
loop $125 -1 $-1 $-1 $126 $43 #
coedge $-1 -1 $-1 $85 $85 $127 $128 reversed $55 $-1 #
surf-twe-attrib $-1 -1 $-1 $-1 $56 6 #
coedge $-1 -1 $-1 $87 $87 $58 $88 forward $129 $-1 #
edge $130 -1 $-1 $131 0 $131 6.2831853071795862 $87 $132 forward @7 unknown #
face $-1 -1 $-1 $133 $134 $32 $-1 $135 forward single #
loop $-1 -1 $-1 $136 $137 $60 #
cone-surface $-1 -1 $-1 4.7989143098308399e-034 0.125 0 0 1 0 -0.128 0 0 1 I I 0 1 0.128 forward I I I I #
loop $-1 -1 $-1 $-1 $138 $46 #
coedge $-1 -1 $-1 $93 $93 $139 $140 forward $61 $-1 #
face $141 -1 $-1 $142 $143 $33 $-1 $144 reversed single #
loop $-1 -1 $-1 $-1 $145 $63 #
plane-surface $-1 -1 $-1 0 0 -0.128 0 0 1 1 0 0 forward_v I I I I #
coedge $-1 -1 $-1 $146 $147 $148 $149 forward $64 $-1 #
face $-1 -1 $-1 $150 $151 $35 $-1 $152 reversed single #
loop $-1 -1 $-1 $153 $154 $66 #
cone-surface $-1 -1 $-1 4.7989143098308399e-034 -0.12499999999999978 0 0 -1 0 -0.128 0 0 1 I I 0 1 0.128 forward I I I I #
loop $-1 -1 $-1 $-1 $155 $48 #
coedge $-1 -1 $-1 $102 $102 $156 $157 forward $67 $-1 #
face $-1 -1 $-1 $-1 $158 $37 $-1 $159 forward single #
loop $-1 -1 $-1 $160 $161 $69 #
cone-surface $-1 -1 $-1 0 0 0 0 0 1 0.125 0 0 1 I I 0 1 0.125 forward I I I I #
loop $-1 -1 $-1 $-1 $162 $49 #
coedge $-1 -1 $-1 $107 $107 $163 $164 reversed $70 $-1 #
face $-1 -1 $-1 $-1 $165 $39 $-1 $166 forward single #
loop $-1 -1 $-1 $167 $168 $72 #
cone-surface $-1 -1 $-1 0 0 0 0 0 1 0.125 0 0 1 I I 0 1 0.125 forward I I I I #
loop $-1 -1 $-1 $-1 $169 $50 #
coedge $-1 -1 $-1 $112 $112 $170 $171 reversed $73 $-1 #
face $-1 -1 $-1 $172 $173 $41 $-1 $77 reversed single #
loop $-1 -1 $-1 $-1 $174 $75 #
coedge $-1 -1 $-1 $175 $176 $177 $178 reversed $76 $-1 #
face_name-twe-attrib $-1 -1 $-1 $79 $54 3 #
model_id-kcp-attrib $-1 -1 $179 $-1 $80 1 1021385841 1021385841 1047527425 5 #
face $180 -1 $-1 $181 $129 $11 $-1 $182 forward single #
loop $183 -1 $-1 $-1 $184 $80 #
plane-surface $185 -1 $-1 0 -1.5 0 0 -1 0 0 0 -1 forward_v I I I I #
loop_type-twe-attrib $-1 -1 $-1 $-1 $81 1 #
loop $186 -1 $-1 $-1 $187 $54 #
coedge $-1 -1 $-1 $123 $123 $188 $189 reversed $81 $-1 #
surf-twe-attrib $-1 -1 $-1 $-1 $82 10 #
loop_type-twe-attrib $-1 -1 $-1 $-1 $84 1 #
coedge $-1 -1 $-1 $126 $126 $190 $191 forward $84 $-1 #
coedge $-1 -1 $-1 $127 $127 $85 $128 forward $192 $-1 #
edge $193 -1 $-1 $194 0 $194 6.2831853071795862 $127 $195 forward @7 unknown #
loop $196 -1 $-1 $197 $87 $118 #
attrib_edge_convexity-kcp-attrib $-1 -1 $198 $-1 $88 1 #
vertex $-1 -1 $-1 $88 $199 #
ellipse-curve $200 -1 $-1 0 0 0 0 -1 0 -0.105 0 0 1 I I #
face $-1 -1 $-1 $-1 $201 $32 $-1 $202 reversed single #
loop $-1 -1 $-1 $203 $204 $89 #
plane-surface $-1 -1 $-1 0.01150161696011498 0.75 -6.5672694869993723e-019 0 1 0 0 0 1 forward_v I I I I #
loop $-1 -1 $-1 $-1 $205 $60 #
coedge $-1 -1 $-1 $137 $137 $204 $206 forward $90 $-1 #
coedge $-1 -1 $-1 $138 $138 $207 $208 reversed $92 $-1 #
coedge $-1 -1 $-1 $139 $139 $93 $140 reversed $203 $-1 #
edge $-1 -1 $-1 $209 -3.1415926535897931 $209 3.1415926535897931 $93 $210 forward @7 unknown #
model_id-kcp-attrib $-1 -1 $-1 $-1 $94 1 1021385841 1021385841 1047527426 3 #
face $-1 -1 $-1 $211 $212 $33 $-1 $213 reversed single #
loop $-1 -1 $-1 $-1 $214 $94 #
plane-surface $-1 -1 $-1 0 -0.75 0 0 1 0 0 0 1 forward_v I I I I #
coedge $-1 -1 $-1 $215 $216 $217 $218 forward $95 $-1 #
coedge $-1 -1 $-1 $219 $97 $220 $221 forward $64 $-1 #
coedge $-1 -1 $-1 $97 $219 $222 $223 forward $64 $-1 #
coedge $-1 -1 $-1 $224 $225 $97 $149 reversed $226 $-1 #
edge $-1 -1 $-1 $227 -0.75 $228 0.75 $148 $229 forward @7 unknown #
face $-1 -1 $-1 $-1 $230 $35 $-1 $231 forward single #
loop $-1 -1 $-1 $232 $233 $98 #
plane-surface $-1 -1 $-1 0.00027272727272727518 -0.74999999999999978 2.0960438037360802e-018 -4.8134710722290258e-033 1 -4.1822151045748372e-098 0 4.1822151045748372e-098 1 forward_v I I I I #
loop $-1 -1 $-1 $-1 $234 $66 #
coedge $-1 -1 $-1 $154 $154 $233 $235 forward $99 $-1 #
coedge $-1 -1 $-1 $155 $155 $236 $237 reversed $101 $-1 #
coedge $-1 -1 $-1 $156 $156 $102 $157 reversed $232 $-1 #
edge $-1 -1 $-1 $238 0 $238 6.2831853071795862 $102 $239 forward @7 unknown #
loop $-1 -1 $-1 $240 $163 $103 #
plane-surface $-1 -1 $-1 0 0 0.01 0 0 1 1 0 0 forward_v I I I I #
loop $-1 -1 $-1 $-1 $241 $69 #
coedge $-1 -1 $-1 $161 $161 $162 $242 reversed $104 $-1 #
coedge $-1 -1 $-1 $162 $162 $161 $242 forward $106 $-1 #
coedge $-1 -1 $-1 $163 $163 $107 $164 forward $158 $-1 #
edge $-1 -1 $-1 $243 -3.1415926535897931 $243 3.1415926535897931 $163 $244 forward @7 unknown #
loop $-1 -1 $-1 $245 $170 $108 #
plane-surface $-1 -1 $-1 0 0 0.010000000000000009 0 0 1 1 0 0 forward_v I I I I #
loop $-1 -1 $-1 $-1 $246 $72 #
coedge $-1 -1 $-1 $168 $168 $169 $247 reversed $109 $-1 #
coedge $-1 -1 $-1 $169 $169 $168 $247 forward $111 $-1 #
coedge $-1 -1 $-1 $170 $170 $112 $171 forward $165 $-1 #
edge $-1 -1 $-1 $248 -3.1415926535897931 $248 3.1415926535897931 $170 $249 forward @7 unknown #
face $-1 -1 $-1 $250 $251 $41 $-1 $77 reversed single #
loop $-1 -1 $-1 $-1 $252 $113 #
coedge $-1 -1 $-1 $253 $254 $255 $256 reversed $114 $-1 #
coedge $-1 -1 $-1 $257 $115 $258 $259 forward $76 $-1 #
coedge $-1 -1 $-1 $115 $257 $260 $261 reversed $76 $-1 #
coedge $-1 -1 $-1 $262 $263 $115 $178 forward $264 $-1 #
edge $-1 -1 $-1 $265 0 $266 1.5707963267948966 $177 $267 forward @7 unknown #
face_name-twe-attrib $-1 -1 $-1 $117 $80 4 #
model_id-kcp-attrib $-1 -1 $268 $-1 $118 1 1021385841 1021385841 1047527425 6 #
face $269 -1 $-1 $270 $271 $11 $-1 $272 forward single #
cone-surface $273 -1 $-1 0 -0.02 0 0 -1 0 -0.125 0 0 1 I I 0.70710678118654702 0.70710678118654802 0.125 forward I I I I #
loop_type-twe-attrib $-1 -1 $-1 $-1 $119 0 #
coedge $-1 -1 $-1 $184 $184 $274 $275 forward $119 $-1 #
surf-twe-attrib $-1 -1 $-1 $-1 $120 17 #
loop_type-twe-attrib $-1 -1 $-1 $-1 $122 0 #
coedge $-1 -1 $-1 $187 $187 $276 $277 forward $122 $-1 #
coedge $-1 -1 $-1 $188 $188 $123 $189 forward $278 $-1 #
edge $279 -1 $-1 $280 0 $280 6.2831853071795862 $188 $281 forward @7 unknown #
coedge $-1 -1 $-1 $190 $190 $126 $191 reversed $282 $-1 #
edge $283 -1 $-1 $284 -3.1415926535897931 $284 3.1415926535897931 $190 $285 forward @7 unknown #
loop $286 -1 $-1 $287 $127 $270 #
attrib_edge_convexity-kcp-attrib $-1 -1 $288 $-1 $128 1 #
vertex $-1 -1 $-1 $128 $289 #
ellipse-curve $290 -1 $-1 0 -0.625 0 2.0000000000000002e-015 -1 0 -0.128 -2.5600000000000002e-016 0 1 I I #
loop_type-twe-attrib $-1 -1 $-1 $-1 $129 0 #
loop $291 -1 $-1 $-1 $292 $118 #
convexity-sys-attrib $-1 -1 $293 $130 $88 #
point $-1 -1 $-1 -0.105 0 0 #
cur-twe-attrib $-1 -1 $-1 $-1 $132 25 #
loop $-1 -1 $-1 $294 $295 $133 #
plane-surface $-1 -1 $-1 0.01150161696011498 0.12499999999999999 -6.5672694869993723e-019 0 1 0 0 0 1 forward_v I I I I #
loop $-1 -1 $-1 $-1 $139 $89 #
coedge $-1 -1 $-1 $204 $204 $137 $206 reversed $134 $-1 #
coedge $-1 -1 $-1 $205 $205 $295 $296 reversed $136 $-1 #
edge $-1 -1 $-1 $297 -3.1415926535897931 $297 3.1415926535897931 $137 $298 forward @7 unknown #
coedge $-1 -1 $-1 $207 $207 $138 $208 forward $294 $-1 #
edge $299 -1 $-1 $300 -3.1415926535897931 $300 3.1415926535897931 $138 $301 forward @7 unknown #
vertex $-1 -1 $-1 $140 $302 #
ellipse-curve $-1 -1 $-1 0 0.75 0 0 1 0 -0.125 0 0 1 I I #
face $303 -1 $-1 $304 $305 $33 $-1 $306 reversed single #
loop $-1 -1 $-1 $-1 $307 $142 #
plane-surface $-1 -1 $-1 -0.128 0 0 1 0 0 0 0 -1 forward_v I I I I #
coedge $-1 -1 $-1 $308 $222 $309 $310 forward $143 $-1 #
coedge $-1 -1 $-1 $311 $145 $308 $312 forward $95 $-1 #
coedge $-1 -1 $-1 $145 $311 $313 $314 forward $95 $-1 #
coedge $-1 -1 $-1 $225 $224 $145 $218 reversed $226 $-1 #
edge $-1 -1 $-1 $315 -0.75 $316 0.75 $217 $317 forward @7 unknown #
coedge $-1 -1 $-1 $147 $146 $318 $319 forward $64 $-1 #
coedge $-1 -1 $-1 $320 $321 $146 $221 reversed $305 $-1 #
edge $-1 -1 $-1 $228 -0.128 $322 0.128 $220 $323 forward @7 unknown #
coedge $-1 -1 $-1 $214 $324 $147 $223 reversed $143 $-1 #
edge $-1 -1 $-1 $325 -0.128 $227 0.128 $222 $326 forward @7 unknown #
coedge $-1 -1 $-1 $217 $148 $324 $327 forward $226 $-1 #
coedge $-1 -1 $-1 $148 $217 $320 $328 reversed $226 $-1 #
loop $-1 -1 $-1 $-1 $224 $304 #
vertex $-1 -1 $-1 $149 $329 #
vertex $-1 -1 $-1 $149 $330 #
straight-curve $-1 -1 $-1 0.128 0 0.128 0 1 0 I I #
loop $-1 -1 $-1 $331 $332 $150 #
plane-surface $-1 -1 $-1 0.00027272727272727518 -0.12499999999999976 2.0960438037360802e-018 -4.8134710722290258e-033 1 -4.1822151045748372e-098 0 4.1822151045748372e-098 1 forward_v I I I I #
loop $-1 -1 $-1 $-1 $156 $98 #
coedge $-1 -1 $-1 $233 $233 $154 $235 reversed $151 $-1 #
coedge $-1 -1 $-1 $234 $234 $332 $333 reversed $153 $-1 #
edge $-1 -1 $-1 $334 -3.1415926535897931 $334 3.1415926535897931 $154 $335 forward @7 unknown #
coedge $-1 -1 $-1 $236 $236 $155 $237 forward $331 $-1 #
edge $336 -1 $-1 $337 0 $337 6.2831853071795862 $155 $338 forward @7 unknown #
vertex $-1 -1 $-1 $157 $339 #
ellipse-curve $-1 -1 $-1 0 -0.74999999999999978 0 0 -1 0 -0.125 0 0 1 I I #
loop $-1 -1 $-1 $-1 $340 $103 #
coedge $-1 -1 $-1 $241 $241 $340 $341 reversed $160 $-1 #
edge $-1 -1 $-1 $342 0 $342 6.2831853071795862 $161 $343 forward @7 unknown #
vertex $-1 -1 $-1 $164 $344 #
ellipse-curve $-1 -1 $-1 0 0 0.010000000000000002 0 0 -1 0.10500000000000002 0 0 1 I I #
loop $-1 -1 $-1 $-1 $345 $108 #
coedge $-1 -1 $-1 $246 $246 $345 $346 reversed $167 $-1 #
edge $-1 -1 $-1 $347 0 $347 6.2831853071795862 $168 $348 forward @7 unknown #
vertex $-1 -1 $-1 $171 $349 #
ellipse-curve $-1 -1 $-1 0 0 0.010000000000000009 0 0 -1 0.1049999999999999 0 0 1 I I #
face $-1 -1 $-1 $350 $351 $41 $-1 $352 forward single #
loop $-1 -1 $-1 $-1 $353 $172 #
coedge $-1 -1 $-1 $354 $355 $353 $356 forward $173 $-1 #
coedge $-1 -1 $-1 $357 $174 $358 $359 reversed $114 $-1 #
coedge $-1 -1 $-1 $174 $357 $176 $261 forward $114 $-1 #
coedge $-1 -1 $-1 $360 $361 $174 $256 forward $362 $-1 #
edge $-1 -1 $-1 $363 -3.1415926535897931 $364 -1.5707963267948966 $255 $365 forward @7 unknown #
coedge $-1 -1 $-1 $176 $175 $366 $367 reversed $76 $-1 #
coedge $-1 -1 $-1 $355 $354 $368 $259 reversed $173 $-1 #
edge $-1 -1 $-1 $265 -1.5 $369 0 $368 $370 forward @7 unknown #
coedge $-1 -1 $-1 $371 $372 $373 $261 forward $374 $-1 #
edge $-1 -1 $-1 $266 -1.5 $364 0 $260 $375 forward @7 unknown #
coedge $-1 -1 $-1 $263 $177 $372 $376 reversed $264 $-1 #
coedge $-1 -1 $-1 $177 $262 $377 $378 forward $264 $-1 #
loop $-1 -1 $-1 $-1 $177 $379 #
vertex $-1 -1 $-1 $380 $381 #
vertex $-1 -1 $-1 $382 $383 #
ellipse-curve $-1 -1 $-1 4.7989143098308399e-034 -0.75 0 0 1 0 -0.128 0 0 1 I I #
face_name-twe-attrib $-1 -1 $-1 $180 $118 5 #
model_id-kcp-attrib $-1 -1 $384 $-1 $181 1 1021385841 1021385841 1047527425 7 #
face $385 -1 $-1 $386 $192 $11 $-1 $387 forward single #
loop $388 -1 $-1 $282 $389 $181 #
cone-surface $390 -1 $-1 0 0.074999999999999997 0 0 -1 0 -0.125 0 0 1 I I 0 1 0.125 forward I I I I #
surf-twe-attrib $-1 -1 $-1 $-1 $182 27 #
coedge $-1 -1 $-1 $274 $274 $184 $275 reversed $391 $-1 #
edge $392 -1 $-1 $393 -3.1415926535897931 $393 3.1415926535897931 $274 $394 forward @7 unknown #
coedge $-1 -1 $-1 $276 $276 $187 $277 reversed $287 $-1 #
edge $395 -1 $-1 $396 -3.1415926535897931 $396 3.1415926535897931 $276 $397 forward @7 unknown #
loop $398 -1 $-1 $399 $188 $386 #
attrib_edge_convexity-kcp-attrib $-1 -1 $400 $-1 $189 2 #
vertex $-1 -1 $-1 $189 $401 #
ellipse-curve $402 -1 $-1 0 -0.875 0 2.9999999999999998e-015 -1 0 -0.125 -3.7499999999999998e-016 0 1 I I #
loop $403 -1 $-1 $-1 $190 $181 #
attrib_edge_convexity-kcp-attrib $-1 -1 $404 $-1 $191 2 #
vertex $-1 -1 $-1 $191 $405 #
ellipse-curve $406 -1 $-1 0 -0.625 0 2.0000000000000002e-015 -1 0 -0.125 -2.5000000000000002e-016 0 1 I I #
loop_type-twe-attrib $-1 -1 $-1 $-1 $192 0 #
loop $407 -1 $-1 $-1 $276 $270 #
convexity-sys-attrib $-1 -1 $408 $193 $128 #
point $-1 -1 $-1 -0.128 -0.625 0 #
cur-twe-attrib $-1 -1 $-1 $-1 $195 37 #
loop_type-twe-attrib $-1 -1 $-1 $-1 $197 1 #
coedge $-1 -1 $-1 $292 $292 $389 $409 reversed $197 $-1 #
edge_name-twe-attrib $-1 -1 $-1 $198 $88 1 8448 #
loop $-1 -1 $-1 $-1 $207 $133 #
coedge $-1 -1 $-1 $295 $295 $205 $296 forward $201 $-1 #
edge $410 -1 $-1 $411 -3.1415926535897931 $411 3.1415926535897931 $205 $412 forward @7 unknown #
vertex $-1 -1 $-1 $206 $413 #
ellipse-curve $-1 -1 $-1 4.7989143098308399e-034 0.75 0 0 -1 0 -0.128 0 0 1 I I #
convexity-sys-attrib $-1 -1 $-1 $-1 $208 #
vertex $-1 -1 $-1 $208 $414 #
ellipse-curve $-1 -1 $-1 0 0.125 0 0 1 0 -0.125 0 0 1 I I #
point $-1 -1 $-1 0.125 0.75 1.5308082348592099e-017 #
model_id-kcp-attrib $-1 -1 $-1 $-1 $211 1 1021385841 1021385841 1047527426 2 #
face $-1 -1 $-1 $-1 $226 $33 $-1 $415 reversed single #
loop $-1 -1 $-1 $-1 $320 $211 #
plane-surface $-1 -1 $-1 0 0.75 0 0 -1 0 0 0 -1 forward_v I I I I #
coedge $-1 -1 $-1 $416 $318 $321 $417 forward $212 $-1 #
coedge $-1 -1 $-1 $324 $214 $215 $312 reversed $143 $-1 #
coedge $-1 -1 $-1 $318 $416 $214 $310 reversed $212 $-1 #
edge $-1 -1 $-1 $325 -0.128 $418 0.128 $309 $419 forward @7 unknown #
coedge $-1 -1 $-1 $216 $215 $416 $420 forward $95 $-1 #
edge $-1 -1 $-1 $316 -0.128 $418 0.128 $308 $421 forward @7 unknown #
coedge $-1 -1 $-1 $321 $320 $216 $314 reversed $305 $-1 #
edge $-1 -1 $-1 $422 -0.128 $315 0.128 $313 $423 forward @7 unknown #
vertex $-1 -1 $-1 $218 $424 #
vertex $-1 -1 $-1 $327 $425 #
straight-curve $-1 -1 $-1 0.128 0 -0.128 0 -1 0 I I #
coedge $-1 -1 $-1 $307 $309 $219 $319 reversed $212 $-1 #
edge $-1 -1 $-1 $322 -0.75 $325 0.75 $318 $426 forward @7 unknown #
coedge $-1 -1 $-1 $313 $220 $225 $328 forward $305 $-1 #
coedge $-1 -1 $-1 $220 $313 $307 $417 reversed $305 $-1 #
vertex $-1 -1 $-1 $221 $427 #
straight-curve $-1 -1 $-1 0 0.75 0.128 -1 0 0 I I #
coedge $-1 -1 $-1 $222 $308 $224 $327 reversed $143 $-1 #
vertex $-1 -1 $-1 $319 $428 #
straight-curve $-1 -1 $-1 0 -0.75 0.128 1 0 0 I I #
edge $-1 -1 $-1 $227 -0.128 $316 0.128 $224 $429 forward @7 unknown #
edge $-1 -1 $-1 $228 -0.128 $315 0.128 $225 $430 forward @7 unknown #
point $-1 -1 $-1 0.128 -0.75 0.128 #
point $-1 -1 $-1 0.128 0.75 0.128 #
loop $-1 -1 $-1 $-1 $236 $150 #
coedge $-1 -1 $-1 $332 $332 $234 $333 forward $230 $-1 #
edge $431 -1 $-1 $432 -3.1415926535897931 $432 3.1415926535897931 $234 $433 forward @7 unknown #
vertex $-1 -1 $-1 $235 $434 #
ellipse-curve $-1 -1 $-1 4.7989143098308399e-034 -0.74999999999999978 0 0 1 0 -0.128 0 0 1 I I #
convexity-sys-attrib $-1 -1 $-1 $-1 $237 #
vertex $-1 -1 $-1 $237 $435 #
ellipse-curve $-1 -1 $-1 0 -0.12499999999999978 0 0 -1 0 -0.125 0 0 1 I I #
point $-1 -1 $-1 -0.125 -0.75 0 #
coedge $-1 -1 $-1 $340 $340 $241 $341 forward $240 $-1 #
edge $-1 -1 $-1 $436 0 $436 6.2831853071795862 $340 $437 forward @7 unknown #
vertex $-1 -1 $-1 $242 $438 #
ellipse-curve $-1 -1 $-1 0 0 -0.01 0 0 -1 0.125 0 0 1 I I #
point $-1 -1 $-1 -0.10500000000000002 1.2858366715134964e-017 0.010000000000000002 #
coedge $-1 -1 $-1 $345 $345 $246 $346 forward $245 $-1 #
edge $-1 -1 $-1 $439 0 $439 6.2831853071795862 $345 $440 forward @7 unknown #
vertex $-1 -1 $-1 $247 $441 #
ellipse-curve $-1 -1 $-1 0 0 -0.010000000000000009 0 0 -1 0.125 0 0 1 I I #
point $-1 -1 $-1 -0.1049999999999999 1.2858366715134949e-017 0.010000000000000009 #
face $-1 -1 $-1 $442 $443 $41 $-1 $444 reversed single #
loop $-1 -1 $-1 $-1 $373 $250 #
plane-surface $-1 -1 $-1 0 0 0.128 0 0 1 1 0 0 forward_v I I I I #
coedge $-1 -1 $-1 $445 $446 $447 $356 reversed $251 $-1 #
coedge $-1 -1 $-1 $258 $252 $448 $449 reversed $173 $-1 #
coedge $-1 -1 $-1 $252 $258 $450 $451 reversed $173 $-1 #
edge $-1 -1 $-1 $452 -1.5 $453 0 $447 $454 forward @7 unknown #
coedge $-1 -1 $-1 $254 $253 $455 $456 reversed $114 $-1 #
coedge $-1 -1 $-1 $457 $458 $459 $359 forward $460 $-1 #
edge $-1 -1 $-1 $461 -1.5 $363 0 $358 $462 forward @7 unknown #
coedge $-1 -1 $-1 $361 $255 $463 $464 reversed $362 $-1 #
coedge $-1 -1 $-1 $255 $360 $457 $465 forward $362 $-1 #
loop $-1 -1 $-1 $-1 $255 $466 #
vertex $-1 -1 $-1 $467 $468 #
vertex $-1 -1 $-1 $469 $470 #
ellipse-curve $-1 -1 $-1 4.7989143098308399e-034 0.75 0 0 -1 0 -0.128 0 0 1 I I #
coedge $-1 -1 $-1 $471 $472 $257 $367 forward $473 $-1 #
edge $-1 -1 $-1 $364 -1.5707963267948966 $369 0 $366 $365 forward @7 unknown #
coedge $-1 -1 $-1 $474 $475 $476 $259 forward $443 $-1 #
vertex $-1 -1 $-1 $477 $478 #
straight-curve $-1 -1 $-1 -0.128 0.75 0 0 1 0 I I #
coedge $-1 -1 $-1 $479 $260 $472 $469 forward $374 $-1 #
coedge $-1 -1 $-1 $260 $479 $262 $376 forward $374 $-1 #
coedge $-1 -1 $-1 $480 $463 $254 $261 reversed $351 $-1 #
loop $-1 -1 $-1 $-1 $260 $481 #
straight-curve $-1 -1 $-1 4.7989143098308399e-034 0.75 0.128 0 1 0 I I #
edge $-1 -1 $-1 $482 -0.128 $266 4.7989143098308399e-034 $262 $483 forward @7 unknown #
coedge $-1 -1 $-1 $484 $476 $263 $378 reversed $485 $-1 #
edge $-1 -1 $-1 $482 -0.128 $265 0 $377 $486 forward @7 unknown #
face $-1 -1 $-1 $487 $264 $41 $-1 $488 reversed single #
edge $-1 -1 $-1 $265 0 $489 0.128 $475 $486 forward @7 unknown #
point $-1 -1 $-1 -0.128 -0.75 0 #
edge $-1 -1 $-1 $266 4.7989143098308399e-034 $490 0.128 $491 $483 forward @7 unknown #
point $-1 -1 $-1 4.7989143098308399e-034 -0.75 0.128 #
face_name-twe-attrib $-1 -1 $-1 $269 $181 6 #
model_id-kcp-attrib $-1 -1 $492 $-1 $270 1 1021385841 1021385841 1047527425 8 #
face $493 -1 $-1 $494 $278 $11 $-1 $495 forward single #
cone-surface $496 -1 $-1 0 0.074999999999999997 0 0 -1 0 -0.128 0 0 1 I I 0 1 0.128 forward I I I I #
loop_type-twe-attrib $-1 -1 $-1 $-1 $271 0 #
coedge $-1 -1 $-1 $389 $389 $292 $409 forward $271 $-1 #
surf-twe-attrib $-1 -1 $497 $-1 $272 86 #
loop $498 -1 $-1 $-1 $274 $494 #
attrib_edge_convexity-kcp-attrib $-1 -1 $499 $-1 $275 1 #
vertex $-1 -1 $-1 $275 $500 #
ellipse-curve $501 -1 $-1 0 -1.5 0 0 -1 0 -0.105 0 0 1 I I #
attrib_edge_convexity-kcp-attrib $-1 -1 $502 $-1 $277 1 #
vertex $-1 -1 $-1 $277 $503 #
ellipse-curve $504 -1 $-1 0 -0.875 0 2.9999999999999998e-015 -1 0 -0.128 -3.8399999999999998e-016 0 1 I I #
loop_type-twe-attrib $-1 -1 $-1 $-1 $278 0 #
loop $505 -1 $-1 $-1 $506 $386 #
convexity-sys-attrib $-1 -1 $507 $279 $189 #
point $-1 -1 $-1 -0.125 -0.875 0 #
cur-twe-attrib $-1 -1 $-1 $-1 $281 51 #
loop_type-twe-attrib $-1 -1 $-1 $-1 $282 1 #
convexity-sys-attrib $-1 -1 $508 $283 $191 #
point $-1 -1 $-1 0.125 -0.625 1.5308082348592099e-017 #
cur-twe-attrib $-1 -1 $-1 $-1 $285 53 #
loop_type-twe-attrib $-1 -1 $-1 $-1 $287 1 #
edge_name-twe-attrib $-1 -1 $-1 $288 $128 4 8704 #
edge $509 -1 $-1 $510 -3.1415926535897931 $510 3.1415926535897931 $389 $511 forward @7 unknown #
convexity-sys-attrib $-1 -1 $-1 $-1 $296 #
vertex $-1 -1 $-1 $296 $512 #
ellipse-curve $-1 -1 $-1 4.7989143098308399e-034 0.125 0 0 -1 0 -0.128 0 0 1 I I #
point $-1 -1 $-1 0.128 0.75 1.5674961328926428e-017 #
point $-1 -1 $-1 0.125 0.125 1.5308082348592099e-017 #
plane-surface $-1 -1 $-1 0.128 0 0 -1 0 0 0 0 1 forward_v I I I I #
coedge $-1 -1 $-1 $309 $307 $311 $420 reversed $212 $-1 #
edge $-1 -1 $-1 $322 -0.128 $422 0.128 $321 $513 forward @7 unknown #
vertex $-1 -1 $-1 $420 $514 #
straight-curve $-1 -1 $-1 -0.128 -0.75 0 0 0 -1 I I #
edge $-1 -1 $-1 $418 -0.75 $422 0.75 $416 $515 forward @7 unknown #
straight-curve $-1 -1 $-1 0 -0.75 -0.128 -1 0 0 I I #
vertex $-1 -1 $-1 $314 $516 #
straight-curve $-1 -1 $-1 0 0.75 -0.128 1 0 0 I I #
point $-1 -1 $-1 0.128 0.75 -0.128 #
point $-1 -1 $-1 0.128 -0.75 -0.128 #
straight-curve $-1 -1 $-1 -0.128 0 0.128 0 -1 0 I I #
point $-1 -1 $-1 -0.128 0.75 0.128 #
point $-1 -1 $-1 -0.128 -0.75 0.128 #
straight-curve $-1 -1 $-1 0.128 -0.75 0 0 0 -1 I I #
straight-curve $-1 -1 $-1 0.128 0.75 0 0 0 -1 I I #
convexity-sys-attrib $-1 -1 $-1 $-1 $333 #
vertex $-1 -1 $-1 $333 $517 #
ellipse-curve $-1 -1 $-1 4.7989143098308399e-034 -0.12499999999999978 0 0 1 0 -0.128 0 0 1 I I #
point $-1 -1 $-1 0.128 -0.74999999999999978 -1.5674961328926428e-017 #
point $-1 -1 $-1 -0.125 -0.125 0 #
vertex $-1 -1 $-1 $341 $518 #
ellipse-curve $-1 -1 $-1 0 0 0.01 0 0 1 0.125 0 0 1 I I #
point $-1 -1 $-1 0.125 0 -0.01 #
vertex $-1 -1 $-1 $346 $519 #
ellipse-curve $-1 -1 $-1 0 0 0.010000000000000009 0 0 1 0.125 0 0 1 I I #
point $-1 -1 $-1 0.125 0 -0.010000000000000009 #
face $-1 -1 $-1 $520 $521 $41 $-1 $522 reversed single #
loop $-1 -1 $-1 $-1 $368 $350 #
plane-surface $-1 -1 $-1 -0.128 0 0 1 0 0 0 0 -1 forward_v I I I I #
coedge $-1 -1 $-1 $523 $353 $524 $525 reversed $251 $-1 #
coedge $-1 -1 $-1 $353 $523 $526 $527 reversed $251 $-1 #
coedge $-1 -1 $-1 $528 $529 $530 $356 forward $531 $-1 #
coedge $-1 -1 $-1 $532 $533 $354 $449 forward $534 $-1 #
edge $-1 -1 $-1 $369 0 $453 1.5707963267948966 $448 $365 forward @7 unknown #
coedge $-1 -1 $-1 $535 $536 $355 $451 forward $537 $-1 #
edge $-1 -1 $-1 $452 -1.5707963267948966 $265 0 $450 $267 forward @7 unknown #
vertex $-1 -1 $-1 $538 $539 #
vertex $-1 -1 $-1 $540 $541 #
straight-curve $-1 -1 $-1 4.7989143098308399e-034 0.75 -0.128 0 1 0 I I #
coedge $-1 -1 $-1 $542 $491 $357 $456 forward $543 $-1 #
edge $-1 -1 $-1 $266 1.5707963267948966 $461 3.1415926535897931 $455 $267 forward @7 unknown #
coedge $-1 -1 $-1 $544 $358 $361 $465 reversed $460 $-1 #
coedge $-1 -1 $-1 $358 $544 $542 $545 forward $460 $-1 #
coedge $-1 -1 $-1 $546 $547 $523 $359 reversed $521 $-1 #
loop $-1 -1 $-1 $-1 $358 $548 #
vertex $-1 -1 $-1 $549 $550 #
straight-curve $-1 -1 $-1 0.128 0.75 0 0 1 0 I I #
coedge $-1 -1 $-1 $373 $551 $360 $464 forward $351 $-1 #
edge $-1 -1 $-1 $552 -0.128 $364 -4.7989143098308399e-034 $360 $553 forward @7 unknown #
edge $-1 -1 $-1 $552 -0.128 $363 0 $457 $554 forward @7 unknown #
face $-1 -1 $-1 $555 $362 $41 $-1 $556 reversed single #
edge $-1 -1 $-1 $363 0 $557 0.128 $547 $554 forward @7 unknown #
point $-1 -1 $-1 0.128 0.75 0 #
edge $-1 -1 $-1 $364 -4.7989143098308399e-034 $558 0.128 $472 $553 forward @7 unknown #
point $-1 -1 $-1 4.7989143098308399e-034 0.75 0.128 #
coedge $-1 -1 $-1 $472 $366 $559 $560 reversed $473 $-1 #
coedge $-1 -1 $-1 $366 $471 $371 $469 reversed $473 $-1 #
loop $-1 -1 $-1 $-1 $366 $555 #
coedge $-1 -1 $-1 $561 $368 $533 $477 forward $443 $-1 #
coedge $-1 -1 $-1 $368 $561 $535 $380 reversed $443 $-1 #
coedge $-1 -1 $-1 $377 $559 $175 $259 reversed $485 $-1 #
edge $-1 -1 $-1 $369 0 $562 0.128 $533 $563 forward @7 unknown #
point $-1 -1 $-1 -0.128 0.75 0 #
coedge $-1 -1 $-1 $372 $371 $484 $564 forward $374 $-1 #
coedge $-1 -1 $-1 $551 $373 $491 $382 forward $351 $-1 #
face $-1 -1 $-1 $565 $374 $41 $-1 $352 forward single #
vertex $-1 -1 $-1 $564 $566 #
straight-curve $-1 -1 $-1 0 -0.75 0.128 1 0 0 I I #
coedge $-1 -1 $-1 $559 $377 $479 $564 reversed $485 $-1 #
loop $-1 -1 $-1 $-1 $476 $567 #
straight-curve $-1 -1 $-1 -0.128 -0.75 0 0 0 -1 I I #
face $-1 -1 $-1 $568 $543 $41 $-1 $488 reversed single #
plane-surface $-1 -1 $-1 0 -0.75 0 0 1 0 0 0 1 forward_v I I I I #
vertex $-1 -1 $-1 $569 $570 #
vertex $-1 -1 $-1 $571 $572 #
coedge $-1 -1 $-1 $455 $542 $480 $382 reversed $543 $-1 #
face_name-twe-attrib $-1 -1 $-1 $385 $270 7 #
model_id-kcp-attrib $-1 -1 $573 $-1 $386 1 1021385841 1021385841 1047527425 9 #
face $574 -1 $-1 $-1 $575 $11 $-1 $576 forward single #
cone-surface $577 -1 $-1 0 0.074999999999999997 0 0 -1 0 -0.125 0 0 1 I I 0 1 0.125 forward I I I I #
surf-twe-attrib $-1 -1 $-1 $-1 $387 63 #
surf-twe-attrib $-1 -1 $-1 $390 $272 43 #
loop_type-twe-attrib $-1 -1 $-1 $-1 $391 1 #
convexity-sys-attrib $-1 -1 $578 $392 $275 #
point $-1 -1 $-1 0.105 -1.5 1.28587891728174e-017 #
cur-twe-attrib $-1 -1 $-1 $-1 $394 68 #
convexity-sys-attrib $-1 -1 $579 $395 $277 #
point $-1 -1 $-1 0.128 -0.875 1.5675476324958399e-017 #
cur-twe-attrib $-1 -1 $-1 $-1 $397 70 #
loop_type-twe-attrib $-1 -1 $-1 $-1 $399 1 #
coedge $-1 -1 $-1 $506 $506 $580 $581 reversed $399 $-1 #
edge_name-twe-attrib $-1 -1 $-1 $400 $189 6 4608 #
edge_name-twe-attrib $-1 -1 $-1 $404 $191 3 4608 #
attrib_edge_convexity-kcp-attrib $-1 -1 $582 $-1 $409 1 #
vertex $-1 -1 $-1 $409 $583 #
ellipse-curve $584 -1 $-1 0 -0.02 0 0 -1 0 -0.125 0 0 1 I I #
point $-1 -1 $-1 0.128 0.125 1.5674961328926428e-017 #
straight-curve $-1 -1 $-1 -0.128 0.75 0 0 0 -1 I I #
point $-1 -1 $-1 -0.128 -0.75 -0.128 #
straight-curve $-1 -1 $-1 -0.128 0 -0.128 0 1 0 I I #
point $-1 -1 $-1 -0.128 0.75 -0.128 #
point $-1 -1 $-1 0.128 -0.12499999999999978 -1.5674961328926428e-017 #
point $-1 -1 $-1 0.125 0 0.01 #
point $-1 -1 $-1 0.125 0 0.010000000000000009 #
face $-1 -1 $-1 $466 $585 $41 $-1 $556 reversed single #
loop $-1 -1 $-1 $-1 $459 $442 #
plane-surface $-1 -1 $-1 0.128 0 0 -1 0 0 0 0 1 forward_v I I I I #
coedge $-1 -1 $-1 $446 $445 $253 $359 forward $251 $-1 #
coedge $-1 -1 $-1 $586 $587 $445 $525 forward $588 $-1 #
edge $-1 -1 $-1 $461 -3.1415926535897931 $452 -1.5707963267948966 $524 $267 forward @7 unknown #
coedge $-1 -1 $-1 $589 $590 $446 $527 forward $585 $-1 #
edge $-1 -1 $-1 $453 1.5707963267948966 $363 3.1415926535897931 $526 $365 forward @7 unknown #
coedge $-1 -1 $-1 $591 $447 $590 $540 forward $531 $-1 #
coedge $-1 -1 $-1 $447 $591 $586 $592 forward $531 $-1 #
coedge $-1 -1 $-1 $593 $594 $252 $356 reversed $595 $-1 #
loop $-1 -1 $-1 $-1 $447 $565 #
coedge $-1 -1 $-1 $533 $448 $594 $596 reversed $534 $-1 #
coedge $-1 -1 $-1 $448 $532 $474 $477 reversed $534 $-1 #
loop $-1 -1 $-1 $-1 $448 $597 #
coedge $-1 -1 $-1 $536 $450 $475 $380 forward $537 $-1 #
coedge $-1 -1 $-1 $450 $535 $593 $538 reversed $537 $-1 #
loop $-1 -1 $-1 $-1 $450 $598 #
edge $-1 -1 $-1 $452 -4.7989143098308399e-034 $489 0.128 $536 $599 forward @7 unknown #
point $-1 -1 $-1 4.7989143098308399e-034 -0.75 -0.128 #
edge $-1 -1 $-1 $453 4.7989143098308399e-034 $557 0.128 $590 $600 forward @7 unknown #
point $-1 -1 $-1 4.7989143098308399e-034 0.75 -0.128 #
coedge $-1 -1 $-1 $491 $455 $458 $545 reversed $543 $-1 #
loop $-1 -1 $-1 $-1 $455 $487 #
coedge $-1 -1 $-1 $458 $457 $551 $571 reversed $460 $-1 #
edge $-1 -1 $-1 $490 -0.128 $461 0 $458 $601 forward @7 unknown #
coedge $-1 -1 $-1 $602 $459 $587 $549 forward $521 $-1 #
coedge $-1 -1 $-1 $459 $602 $589 $467 reversed $521 $-1 #
face $-1 -1 $-1 $-1 $460 $41 $-1 $522 reversed single #
edge $-1 -1 $-1 $461 0 $603 0.128 $546 $601 forward @7 unknown #
point $-1 -1 $-1 0.128 -0.75 0 #
coedge $-1 -1 $-1 $463 $480 $544 $571 forward $351 $-1 #
vertex $-1 -1 $-1 $571 $604 #
straight-curve $-1 -1 $-1 0 0.75 0.128 -1 0 0 I I #
straight-curve $-1 -1 $-1 0.128 0.75 0 0 0 -1 I I #
face $-1 -1 $-1 $597 $473 $41 $-1 $556 reversed single #
plane-surface $-1 -1 $-1 0 0.75 0 0 -1 0 0 0 -1 forward_v I I I I #
vertex $-1 -1 $-1 $605 $606 #
vertex $-1 -1 $-1 $469 $607 #
coedge $-1 -1 $-1 $476 $484 $471 $560 forward $485 $-1 #
edge $-1 -1 $-1 $558 -0.128 $369 0 $471 $563 forward @7 unknown #
coedge $-1 -1 $-1 $475 $474 $608 $569 reversed $443 $-1 #
vertex $-1 -1 $-1 $596 $609 #
straight-curve $-1 -1 $-1 -0.128 0.75 0 0 0 -1 I I #
edge $-1 -1 $-1 $558 -0.75 $482 0.75 $484 $610 forward @7 unknown #
face $-1 -1 $-1 $567 $531 $41 $-1 $611 reversed single #
point $-1 -1 $-1 -0.128 -0.75 0.128 #
face $-1 -1 $-1 $548 $485 $41 $-1 $444 reversed single #
face $-1 -1 $-1 $612 $588 $41 $-1 $488 reversed single #
edge $-1 -1 $-1 $489 -0.75 $562 0.75 $561 $613 forward @7 unknown #
point $-1 -1 $-1 -0.128 -0.75 -0.128 #
edge $-1 -1 $-1 $490 -0.75 $552 0.75 $544 $614 forward @7 unknown #
point $-1 -1 $-1 0.128 -0.75 0.128 #
face_name-twe-attrib $-1 -1 $-1 $493 $386 8 #
model_id-kcp-attrib $-1 -1 $615 $-1 $494 1 1021385841 1021385841 1047527425 10 #
loop $616 -1 $-1 $391 $580 $494 #
cone-surface $617 -1 $-1 0 -1.48 0 0 1 0 -0.125 0 0 1 I I 0.70710678118654702 0.70710678118654802 0.125 forward I I I I #
surf-twe-attrib $-1 -1 $618 $-1 $495 86 #
edge_name-twe-attrib $-1 -1 $-1 $499 $275 8 8448 #
edge_name-twe-attrib $-1 -1 $-1 $502 $277 5 8704 #
coedge $-1 -1 $-1 $580 $580 $506 $581 forward $575 $-1 #
edge $619 -1 $-1 $620 -3.1415926535897931 $620 3.1415926535897931 $580 $621 forward @7 unknown #
convexity-sys-attrib $-1 -1 $622 $509 $409 #
point $-1 -1 $-1 0.125 -0.02 -1.5308082348592099e-017 #
cur-twe-attrib $-1 -1 $-1 $-1 $511 106 #
loop $-1 -1 $-1 $-1 $526 $520 #
coedge $-1 -1 $-1 $587 $524 $529 $592 reversed $588 $-1 #
coedge $-1 -1 $-1 $524 $586 $546 $549 reversed $588 $-1 #
loop $-1 -1 $-1 $-1 $524 $568 #
coedge $-1 -1 $-1 $590 $526 $547 $467 forward $585 $-1 #
coedge $-1 -1 $-1 $526 $589 $528 $540 reversed $585 $-1 #
coedge $-1 -1 $-1 $529 $528 $602 $605 forward $531 $-1 #
edge $-1 -1 $-1 $603 -0.128 $452 -4.7989143098308399e-034 $586 $599 forward @7 unknown #
coedge $-1 -1 $-1 $608 $530 $536 $538 forward $595 $-1 #
coedge $-1 -1 $-1 $530 $608 $532 $596 forward $595 $-1 #
loop $-1 -1 $-1 $-1 $530 $612 #
edge $-1 -1 $-1 $562 -0.128 $453 4.7989143098308399e-034 $532 $600 forward @7 unknown #
face $-1 -1 $-1 $598 $534 $41 $-1 $556 reversed single #
face $-1 -1 $-1 $379 $537 $41 $-1 $488 reversed single #
straight-curve $-1 -1 $-1 0 -0.75 -0.128 -1 0 0 I I #
straight-curve $-1 -1 $-1 0 0.75 -0.128 1 0 0 I I #
straight-curve $-1 -1 $-1 0.128 -0.75 0 0 0 -1 I I #
coedge $-1 -1 $-1 $547 $546 $591 $605 reversed $521 $-1 #
vertex $-1 -1 $-1 $549 $623 #
point $-1 -1 $-1 0.128 0.75 0.128 #
edge $-1 -1 $-1 $557 -0.75 $603 0.75 $602 $624 forward @7 unknown #
point $-1 -1 $-1 0.128 0.75 -0.128 #
point $-1 -1 $-1 -0.128 0.75 0.128 #
coedge $-1 -1 $-1 $594 $593 $561 $569 forward $595 $-1 #
point $-1 -1 $-1 -0.128 0.75 -0.128 #
straight-curve $-1 -1 $-1 -0.128 0 0.128 0 -1 0 I I #
plane-surface $-1 -1 $-1 0 0 -0.128 0 0 1 1 0 0 forward_v I I I I #
face $-1 -1 $-1 $481 $595 $41 $-1 $611 reversed single #
straight-curve $-1 -1 $-1 -0.128 0 -0.128 0 1 0 I I #
straight-curve $-1 -1 $-1 0.128 0 0.128 0 1 0 I I #
face_name-twe-attrib $-1 -1 $-1 $574 $494 9 #
loop_type-twe-attrib $-1 -1 $-1 $-1 $575 0 #
surf-twe-attrib $-1 -1 $-1 $-1 $576 108 #
surf-twe-attrib $-1 -1 $-1 $577 $495 43 #
attrib_edge_convexity-kcp-attrib $-1 -1 $625 $-1 $581 1 #
vertex $-1 -1 $-1 $581 $626 #
ellipse-curve $627 -1 $-1 0 -1.48 0 0 -1 0 -0.125 0 0 1 I I #
edge_name-twe-attrib $-1 -1 $-1 $582 $409 2 8448 #
point $-1 -1 $-1 0.128 -0.75 -0.128 #
straight-curve $-1 -1 $-1 0.128 0 -0.128 0 -1 0 I I #
convexity-sys-attrib $-1 -1 $628 $619 $581 #
point $-1 -1 $-1 0.125 -1.48 -1.5308082348592099e-017 #
cur-twe-attrib $-1 -1 $-1 $-1 $621 127 #
edge_name-twe-attrib $-1 -1 $-1 $625 $581 7 8448 #
End-of-ACIS-data 