  0
SECTION
  2
HEADER
  9
$ACADVER
  1
AC1009
  9
$INSBASE
 10
0.0
 20
0.0
 30
0.0
  9
$EXTMIN
 10
0.0
 20
0.0
 30
0.0
  9
$EXTMAX
 10
37.0
 20
37.0
 30
15.0
  9
$LIMMIN
 10
0.0
 20
0.0
  9
$LIMMAX
 10
12.0
 20
9.0
  9
$ORTHOMODE
 70
     0
  9
$REGENMODE
 70
     1
  9
$FILLMODE
 70
     1
  9
$QTEXTMODE
 70
     0
  9
$MIRRTEXT
 70
     1
  9
$DRAGMODE
 70
     2
  9
$LTSCALE
 40
1.0
  9
$OSMODE
 70
     0
  9
$ATTMODE
 70
     1
  9
$TEXTSIZE
 40
0.2
  9
$TRACEWID
 40
0.05
  9
$TEXTSTYLE
  7
STANDARD
  9
$CLAYER
  8
0
  9
$CELTYPE
  6
BYLAYER
  9
$CECOLOR
 62
   256
  9
$DIMSCALE
 40
1.0
  9
$DIMASZ
 40
0.18
  9
$DIMEXO
 40
0.0625
  9
$DIMDLI
 40
0.38
  9
$DIMRND
 40
0.0
  9
$DIMDLE
 40
0.0
  9
$DIMEXE
 40
0.18
  9
$DIMTP
 40
0.0
  9
$DIMTM
 40
0.0
  9
$DIMTXT
 40
0.18
  9
$DIMCEN
 40
0.09
  9
$DIMTSZ
 40
0.0
  9
$DIMTOL
 70
     0
  9
$DIMLIM
 70
     0
  9
$DIMTIH
 70
     1
  9
$DIMTOH
 70
     1
  9
$DIMSE1
 70
     0
  9
$DIMSE2
 70
     0
  9
$DIMTAD
 70
     0
  9
$DIMZIN
 70
     0
  9
$DIMBLK
  1

  9
$DIMASO
 70
     1
  9
$DIMSHO
 70
     1
  9
$DIMPOST
  1

  9
$DIMAPOST
  1

  9
$DIMALT
 70
     0
  9
$DIMALTD
 70
     2
  9
$DIMALTF
 40
25.4
  9
$DIMLFAC
 40
1.0
  9
$DIMTOFL
 70
     0
  9
$DIMTVP
 40
0.0
  9
$DIMTIX
 70
     0
  9
$DIMSOXD
 70
     0
  9
$DIMSAH
 70
     0
  9
$DIMBLK1
  1

  9
$DIMBLK2
  1

  9
$DIMSTYLE
  2
*UNNAMED
  9
$DIMCLRD
 70
     0
  9
$DIMCLRE
 70
     0
  9
$DIMCLRT
 70
     0
  9
$DIMTFAC
 40
1.0
  9
$DIMGAP
 40
0.09
  9
$LUNITS
 70
     2
  9
$LUPREC
 70
     4
  9
$SKETCHINC
 40
0.1
  9
$FILLETRAD
 40
0.0
  9
$AUNITS
 70
     0
  9
$AUPREC
 70
     0
  9
$MENU
  1
acad
  9
$ELEVATION
 40
0.0
  9
$PELEVATION
 40
0.0
  9
$THICKNESS
 40
0.0
  9
$LIMCHECK
 70
     0
  9
$BLIPMODE
 70
     1
  9
$CHAMFERA
 40
0.0
  9
$CHAMFERB
 40
0.0
  9
$SKPOLY
 70
     0
  9
$TDCREATE
 40
2449623.663750613
  9
$TDUPDATE
 40
2449623.663750613
  9
$TDINDWG
 40
0.0000000000
  9
$TDUSRTIMER
 40
0.0000000000
  9
$USRTIMER
 70
     1
  9
$ANGBASE
 50
0.0
  9
$ANGDIR
 70
     0
  9
$PDMODE
 70
     0
  9
$PDSIZE
 40
0.0
  9
$PLINEWID
 40
0.0
  9
$COORDS
 70
     1
  9
$SPLFRAME
 70
     0
  9
$SPLINETYPE
 70
     6
  9
$SPLINESEGS
 70
     8
  9
$ATTDIA
 70
     0
  9
$ATTREQ
 70
     1
  9
$HANDLING
 70
     1
  9
$HANDSEED
  5
17B
  9
$SURFTAB1
 70
     6
  9
$SURFTAB2
 70
     6
  9
$SURFTYPE
 70
     6
  9
$SURFU
 70
     6
  9
$SURFV
 70
     6
  9
$UCSNAME
  2

  9
$UCSORG
 10
0.0
 20
0.0
 30
0.0
  9
$UCSXDIR
 10
1.0
 20
0.0
 30
0.0
  9
$UCSYDIR
 10
0.0
 20
1.0
 30
0.0
  9
$PUCSNAME
  2

  9
$PUCSORG
 10
0.0
 20
0.0
 30
0.0
  9
$PUCSXDIR
 10
1.0
 20
0.0
 30
0.0
  9
$PUCSYDIR
 10
0.0
 20
1.0
 30
0.0
  9
$USERI1
 70
     0
  9
$USERI2
 70
     0
  9
$USERI3
 70
     0
  9
$USERI4
 70
     0
  9
$USERI5
 70
     0
  9
$USERR1
 40
0.0
  9
$USERR2
 40
0.0
  9
$USERR3
 40
0.0
  9
$USERR4
 40
0.0
  9
$USERR5
 40
0.0
  9
$WORLDVIEW
 70
     1
  9
$SHADEDGE
 70
     3
  9
$SHADEDIF
 70
    70
  9
$TILEMODE
 70
     1
  9
$MAXACTVP
 70
    16
  9
$PINSBASE
 10
0.0
 20
0.0
 30
0.0
  9
$PLIMCHECK
 70
     0
  9
$PEXTMIN
 10
1.000000E+20
 20
1.000000E+20
 30
1.000000E+20
  9
$PEXTMAX
 10
-1.000000E+20
 20
-1.000000E+20
 30
-1.000000E+20
  9
$PLIMMIN
 10
0.0
 20
0.0
  9
$PLIMMAX
 10
12.0
 20
9.0
  9
$UNITMODE
 70
     0
  9
$VISRETAIN
 70
     0
  9
$PLINEGEN
 70
     0
  9
$PSLTSCALE
 70
     1
  9
$TREEDEPTH
 70
  3020
  9
$DWGCODEPAGE
  3
iso8859-1
  0
ENDSEC
  0
SECTION
  2
TABLES
  0
TABLE
  2
VPORT
 70
     2
  0
VPORT
  2
*ACTIVE
 70
     0
 10
0.0
 20
0.0
 11
1.0
 21
1.0
 12
-6.013655
 22
-3.286335
 13
0.0
 23
0.0
 14
1.0
 24
1.0
 15
0.0
 25
0.0
 16
1.0
 26
2.0
 36
1.0
 17
0.0
 27
0.0
 37
0.0
 40
33.958799
 41
1.594883
 42
50.0
 43
0.0
 44
0.0
 50
0.0
 51
0.0
 71
     0
 72
   100
 73
     1
 74
     1
 75
     0
 76
     0
 77
     0
 78
     0
  0
ENDTAB
  0
TABLE
  2
LTYPE
 70
     1
  0
LTYPE
  2
CONTINUOUS
 70
    64
  3
Solid line
 72
    65
 73
     0
 40
0.0
  0
ENDTAB
  0
TABLE
  2
LAYER
 70
     2
  0
LAYER
  2
0
 70
    64
 62
     7
  6
CONTINUOUS
  0
LAYER
  2
AME_FRZ
 70
    65
 62
     7
  6
CONTINUOUS
  0
ENDTAB
  0
TABLE
  2
STYLE
 70
     1
  0
STYLE
  2
STANDARD
 70
     0
 40
0.0
 41
1.0
 50
0.0
 71
     0
 42
0.2
  3
txt
  4

  0
ENDTAB
  0
TABLE
  2
VIEW
 70
     0
  0
ENDTAB
  0
TABLE
  2
UCS
 70
     0
  0
ENDTAB
  0
TABLE
  2
APPID
 70
     3
  0
APPID
  2
ACAD
 70
    64
  0
APPID
  2
AME_SOL
 70
    64
  0
APPID
  2
AVE_INVOKE
 70
    64
  0
ENDTAB
  0
TABLE
  2
DIMSTYLE
 70
     0
  0
ENDTAB
  0
ENDSEC
  0
SECTION
  2
BLOCKS
  0
BLOCK
  8
0
  5
1
  2
AME_NIL
 70
    64
 10
0.0
 20
0.0
 30
0.0
  1
AME_NIL
  3
AME_NIL
  0
ENDBLK
  8
0
  5
2
  0
BLOCK
  8
0
  5
4
  2
AME_SOL
 70
    64
 10
0.0
 20
0.0
 30
0.0
  1
AME_SOL
  3
AME_SOL
  0
ENDBLK
  8
0
  5
5
  0
BLOCK
  8
0
  5
68
  2
AME_JNK
 70
     0
 10
0.0
 20
0.0
 30
0.0
  1
AME_JNK
  3
AME_JNK
  0
ENDBLK
  8
0
  5
69
  0
BLOCK
  8
0
  5
9C
  2
*U11
 70
    65
 10
0.0
 20
0.0
 30
0.0
  1
*U
  3
*U
  0
ARC
  8
0
 62
     7
  5
9D
 10
22.0
 20
22.0
 30
15.0
 40
4.0
 50
180.0
 51
270.0
1001
AME_SOL
1070
     1
1071
       49
  0
LINE
  8
0
 62
     7
  5
9E
 10
37.0
 20
18.0
 30
15.0
 11
37.0
 21
37.0
 31
15.0
1001
AME_SOL
1070
     1
1071
       48
  0
LINE
  8
0
 62
     7
  5
9F
 10
37.0
 20
37.0
 30
15.0
 11
18.0
 21
37.0
 31
15.0
1001
AME_SOL
1070
     1
1071
       47
  0
LINE
  8
0
 62
     7
  5
A0
 10
37.0
 20
37.0
 30
0.0
 11
37.0
 21
37.0
 31
15.0
1001
AME_SOL
1070
     1
1071
       46
  0
LINE
  8
0
 62
     7
  5
A1
 10
22.0
 20
18.0
 30
10.0
 11
22.0
 21
18.0
 31
15.0
1001
AME_SOL
1070
     1
1071
       45
  0
LINE
  8
0
 62
     7
  5
A2
 10
22.0
 20
18.0
 30
15.0
 11
37.0
 21
18.0
 31
15.0
1001
AME_SOL
1070
     1
1071
       44
  0
LINE
  8
0
 62
     7
  5
A3
 10
37.0
 20
18.0
 30
15.0
 11
37.0
 21
18.0
 31
10.0
1001
AME_SOL
1070
     1
1071
       43
  0
LINE
  8
0
 62
     7
  5
A4
 10
18.0
 20
22.0
 30
10.0
 11
18.0
 21
22.0
 31
15.0
1001
AME_SOL
1070
     1
1071
       42
  0
LINE
  8
0
 62
     7
  5
A5
 10
18.0
 20
37.0
 30
15.0
 11
18.0
 21
22.0
 31
15.0
1001
AME_SOL
1070
     1
1071
       41
  0
LINE
  8
0
 62
     7
  5
A6
 10
18.0
 20
37.0
 30
10.0
 11
18.0
 21
37.0
 31
15.0
1001
AME_SOL
1070
     1
1071
       40
  0
ARC
  8
0
 62
     7
  5
A7
 10
15.0
 20
15.0
 30
15.0
 40
4.0
 50
0.0
 51
90.0
1001
AME_SOL
1070
     1
1071
       39
  0
LINE
  8
0
 62
     7
  5
A8
 10
19.0
 20
15.0
 30
10.0
 11
19.0
 21
15.0
 31
15.0
1001
AME_SOL
1070
     1
1071
       38
  0
LINE
  8
0
 62
     7
  5
A9
 10
19.0
 20
0.0
 30
15.0
 11
19.0
 21
15.0
 31
15.0
1001
AME_SOL
1070
     1
1071
       37
  0
LINE
  8
0
 62
     7
  5
AA
 10
0.0
 20
19.0
 30
15.0
 11
0.0
 21
0.0
 31
15.0
1001
AME_SOL
1070
     1
1071
       36
  0
LINE
  8
0
 62
     7
  5
AB
 10
0.0
 20
37.0
 30
0.0
 11
0.0
 21
37.0
 31
10.0
1001
AME_SOL
1070
     1
1071
       35
  0
LINE
  8
0
 62
     7
  5
AC
 10
0.0
 20
0.0
 30
0.0
 11
0.0
 21
0.0
 31
15.0
1001
AME_SOL
1070
     1
1071
       34
  0
LINE
  8
0
 62
     7
  5
AD
 10
19.0
 20
0.0
 30
15.0
 11
19.0
 21
0.0
 31
10.0
1001
AME_SOL
1070
     1
1071
       33
  0
LINE
  8
0
 62
     7
  5
AE
 10
0.0
 20
0.0
 30
15.0
 11
19.0
 21
0.0
 31
15.0
1001
AME_SOL
1070
     1
1071
       32
  0
LINE
  8
0
 62
     7
  5
AF
 10
37.0
 20
0.0
 30
10.0
 11
37.0
 21
0.0
 31
0.0
1001
AME_SOL
1070
     1
1071
       31
  0
LINE
  8
0
 62
     7
  5
B0
 10
0.0
 20
19.0
 30
15.0
 11
0.0
 21
19.0
 31
10.0
1001
AME_SOL
1070
     1
1071
       30
  0
LINE
  8
0
 62
     7
  5
B1
 10
15.0
 20
19.0
 30
10.0
 11
15.0
 21
19.0
 31
15.0
1001
AME_SOL
1070
     1
1071
       29
  0
LINE
  8
0
 62
     7
  5
B2
 10
15.0
 20
19.0
 30
15.0
 11
0.0
 21
19.0
 31
15.0
1001
AME_SOL
1070
     1
1071
       28
  0
LINE
  8
0
 62
     7
  5
B3
 10
37.0
 20
0.0
 30
10.0
 11
19.0
 21
0.0
 31
10.0
1001
AME_SOL
1070
     1
1071
       27
  0
ARC
  8
0
 62
     7
  5
B4
 10
15.0
 20
15.0
 30
10.0
 40
4.0
 50
0.0
 51
90.0
1001
AME_SOL
1070
     1
1071
       26
  0
LINE
  8
0
 62
     7
  5
B5
 10
19.0
 20
15.0
 30
10.0
 11
19.0
 21
0.0
 31
10.0
1001
AME_SOL
1070
     1
1071
       25
  0
LINE
  8
0
 62
     7
  5
B6
 10
0.0
 20
19.0
 30
10.0
 11
15.0
 21
19.0
 31
10.0
1001
AME_SOL
1070
     1
1071
       24
  0
LINE
  8
0
 62
     7
  5
B7
 10
37.0
 20
18.0
 30
10.0
 11
22.0
 21
18.0
 31
10.0
1001
AME_SOL
1070
     1
1071
       23
  0
LINE
  8
0
 62
     7
  5
B8
 10
0.0
 20
19.0
 30
10.0
 11
0.0
 21
37.0
 31
10.0
1001
AME_SOL
1070
     1
1071
       22
  0
LINE
  8
0
 62
     7
  5
B9
 10
18.0
 20
22.0
 30
10.0
 11
18.0
 21
37.0
 31
10.0
1001
AME_SOL
1070
     1
1071
       21
  0
ARC
  8
0
 62
     7
  5
BA
 10
22.0
 20
22.0
 30
10.0
 40
4.0
 50
180.0
 51
270.0
1001
AME_SOL
1070
     1
1071
       20
  0
LINE
  8
0
 62
     7
  5
BB
 10
37.0
 20
18.0
 30
10.0
 11
37.0
 21
0.0
 31
10.0
1001
AME_SOL
1070
     1
1071
       19
  0
LINE
  8
0
 62
     7
  5
BC
 10
0.0
 20
37.0
 30
10.0
 11
18.0
 21
37.0
 31
10.0
1001
AME_SOL
1070
     1
1071
       18
  0
LINE
  8
0
 62
     7
  5
BD
 10
0.0
 20
0.0
 30
0.0
 11
37.0
 21
0.0
 31
0.0
1001
AME_SOL
1070
     1
1071
       17
  0
LINE
  8
0
 62
     7
  5
BE
 10
0.0
 20
37.0
 30
0.0
 11
0.0
 21
0.0
 31
0.0
1001
AME_SOL
1070
     1
1071
       16
  0
LINE
  8
0
 62
     7
  5
BF
 10
37.0
 20
0.0
 30
0.0
 11
37.0
 21
37.0
 31
0.0
1001
AME_SOL
1070
     1
1071
       15
  0
LINE
  8
0
 62
     7
  5
C0
 10
37.0
 20
37.0
 30
0.0
 11
0.0
 21
37.0
 31
0.0
1001
AME_SOL
1070
     1
1071
       14
  0
LINE
  8
0
 62
     7
  5
C1
 10
18.0
 20
22.0
 30
10.0
 11
18.0
 21
22.0
 31
15.0
1001
AME_SOL
1070
     0
1071
       12
  0
LINE
  8
0
 62
     7
  5
C2
 10
22.0
 20
18.0
 30
10.0
 11
22.0
 21
18.0
 31
15.0
1001
AME_SOL
1070
     0
1071
       12
  0
LINE
  8
0
 62
     7
  5
C3
 10
19.0
 20
15.0
 30
10.0
 11
19.0
 21
15.0
 31
15.0
1001
AME_SOL
1070
     0
1071
        7
  0
LINE
  8
0
 62
     7
  5
C4
 10
15.0
 20
19.0
 30
10.0
 11
15.0
 21
19.0
 31
15.0
1001
AME_SOL
1070
     0
1071
        7
  0
ENDBLK
  8
0
  5
C5
  0
BLOCK
  8
0
  5
CA
  2
*U12
 70
    65
 10
0.0
 20
0.0
 30
0.0
  1
*U
  3
*U
  0
POLYLINE
  8
0
 62
     7
  5
CB
 66
     1
 10
0.0
 20
0.0
 30
0.0
 70
    64
  0
VERTEX
  8
0
  5
CC
 10
19.0
 20
0.0
 30
15.0
 70
   192
  0
VERTEX
  8
0
  5
CD
 10
18.464102
 20
17.0
 30
15.0
 70
   192
  0
VERTEX
  8
0
  5
CE
 10
15.0
 20
19.0
 30
15.0
 70
   192
  0
VERTEX
  8
0
  5
CF
 10
0.0
 20
0.0
 30
15.0
 70
   192
  0
VERTEX
  8
0
  5
D0
 10
0.0
 20
19.0
 30
15.0
 70
   192
  0
VERTEX
  8
0
  5
D1
 10
17.0
 20
18.464102
 30
15.0
 70
   192
  0
VERTEX
  8
0
  5
D2
 10
19.0
 20
15.0
 30
15.0
 70
   192
  0
VERTEX
  8
0
  5
D3
 10
18.0
 20
22.0
 30
15.0
 70
   192
  0
VERTEX
  8
0
  5
D4
 10
20.0
 20
18.535898
 30
15.0
 70
   192
  0
VERTEX
  8
0
  5
D5
 10
37.0
 20
18.0
 30
15.0
 70
   192
  0
VERTEX
  8
0
  5
D6
 10
18.535898
 20
20.0
 30
15.0
 70
   192
  0
VERTEX
  8
0
  5
D7
 10
18.0
 20
37.0
 30
15.0
 70
   192
  0
VERTEX
  8
0
  5
D8
 10
37.0
 20
37.0
 30
15.0
 70
   192
  0
VERTEX
  8
0
  5
D9
 10
22.0
 20
18.0
 30
15.0
 70
   192
  0
VERTEX
  8
0
 62
     7
  5
DA
 10
0.0
 20
0.0
 30
0.0
 70
   128
 71
    -1
 72
    -2
 73
    -3
  0
VERTEX
  8
0
 62
     7
  5
DB
 10
0.0
 20
0.0
 30
0.0
 70
   128
 71
    -3
 72
     4
 73
    -1
  0
VERTEX
  8
0
 62
     7
  5
DC
 10
0.0
 20
0.0
 30
0.0
 70
   128
 71
     3
 72
     5
 73
    -4
  0
VERTEX
  8
0
 62
     7
  5
DD
 10
0.0
 20
0.0
 30
0.0
 70
   128
 71
     2
 72
     6
 73
    -3
  0
VERTEX
  8
0
 62
     7
  5
DE
 10
0.0
 20
0.0
 30
0.0
 70
   128
 71
     1
 72
     7
 73
    -2
  0
VERTEX
  8
0
 62
     7
  5
DF
 10
0.0
 20
0.0
 30
0.0
 70
   128
 71
    -8
 72
    -9
 73
   -10
  0
VERTEX
  8
0
 62
     7
  5
E0
 10
0.0
 20
0.0
 30
0.0
 70
   128
 71
     8
 72
    11
 73
    -9
  0
VERTEX
  8
0
 62
     7
  5
E1
 10
0.0
 20
0.0
 30
0.0
 70
   128
 71
   -10
 72
    12
 73
    -8
  0
VERTEX
  8
0
 62
     7
  5
E2
 10
0.0
 20
0.0
 30
0.0
 70
   128
 71
    10
 72
    13
 73
   -12
  0
VERTEX
  8
0
 62
     7
  5
E3
 10
0.0
 20
0.0
 30
0.0
 70
   128
 71
     9
 72
    14
 73
   -10
  0
SEQEND
  8
0
 62
     7
  5
E4
  0
POLYLINE
  8
0
 62
     7
  5
E5
 66
     1
 10
0.0
 20
0.0
 30
0.0
 70
    64
  0
VERTEX
  8
0
  5
E6
 10
18.0
 20
22.0
 30
10.0
 70
   192
  0
VERTEX
  8
0
  5
E7
 10
18.535898
 20
20.0
 30
15.0
 70
   192
  0
VERTEX
  8
0
  5
E8
 10
18.0
 20
22.0
 30
15.0
 70
   192
  0
VERTEX
  8
0
  5
E9
 10
18.535898
 20
20.0
 30
10.0
 70
   192
  0
VERTEX
  8
0
  5
EA
 10
20.0
 20
18.535898
 30
10.0
 70
   192
  0
VERTEX
  8
0
  5
EB
 10
20.0
 20
18.535898
 30
15.0
 70
   192
  0
VERTEX
  8
0
  5
EC
 10
22.0
 20
18.0
 30
10.0
 70
   192
  0
VERTEX
  8
0
  5
ED
 10
22.0
 20
18.0
 30
15.0
 70
   192
  0
VERTEX
  8
0
 62
     7
  5
EE
 10
0.0
 20
0.0
 30
0.0
 70
   128
 71
    -1
 72
     2
 73
     3
  0
VERTEX
  8
0
 62
     7
  5
EF
 10
0.0
 20
0.0
 30
0.0
 70
   128
 71
     1
 72
     4
 73
    -2
  0
VERTEX
  8
0
 62
     7
  5
F0
 10
0.0
 20
0.0
 30
0.0
 70
   128
 71
     4
 72
    -5
 73
     2
  0
VERTEX
  8
0
 62
     7
  5
F1
 10
0.0
 20
0.0
 30
0.0
 70
   128
 71
     5
 72
     6
 73
    -2
  0
VERTEX
  8
0
 62
     7
  5
F2
 10
0.0
 20
0.0
 30
0.0
 70
   128
 71
     5
 72
     7
 73
    -8
  0
VERTEX
  8
0
 62
     7
  5
F3
 10
0.0
 20
0.0
 30
0.0
 70
   128
 71
     8
 72
     6
 73
    -5
  0
SEQEND
  8
0
 62
     7
  5
F4
  0
POLYLINE
  8
0
 62
     7
  5
F5
 66
     1
 10
0.0
 20
0.0
 30
0.0
 70
    64
  0
VERTEX
  8
0
  5
F6
 10
37.0
 20
37.0
 30
15.0
 70
   192
  0
VERTEX
  8
0
  5
F7
 10
37.0
 20
18.0
 30
10.0
 70
   192
  0
VERTEX
  8
0
  5
F8
 10
37.0
 20
0.0
 30
0.0
 70
   192
  0
VERTEX
  8
0
  5
F9
 10
37.0
 20
37.0
 30
0.0
 70
   192
  0
VERTEX
  8
0
  5
FA
 10
37.0
 20
0.0
 30
10.0
 70
   192
  0
VERTEX
  8
0
  5
FB
 10
37.0
 20
18.0
 30
15.0
 70
   192
  0
VERTEX
  8
0
 62
     7
  5
FC
 10
0.0
 20
0.0
 30
0.0
 70
   128
 71
    -1
 72
    -2
 73
    -3
  0
VERTEX
  8
0
 62
     7
  5
FD
 10
0.0
 20
0.0
 30
0.0
 70
   128
 71
     3
 72
     4
 73
    -1
  0
VERTEX
  8
0
 62
     7
  5
FE
 10
0.0
 20
0.0
 30
0.0
 70
   128
 71
     2
 72
     5
 73
    -3
  0
VERTEX
  8
0
 62
     7
  5
FF
 10
0.0
 20
0.0
 30
0.0
 70
   128
 71
     1
 72
     6
 73
    -2
  0
SEQEND
  8
0
 62
     7
  5
100
  0
POLYLINE
  8
0
 62
     7
  5
101
 66
     1
 10
0.0
 20
0.0
 30
0.0
 70
    64
  0
VERTEX
  8
0
  5
102
 10
37.0
 20
37.0
 30
15.0
 70
   192
  0
VERTEX
  8
0
  5
103
 10
0.0
 20
37.0
 30
0.0
 70
   192
  0
VERTEX
  8
0
  5
104
 10
18.0
 20
37.0
 30
10.0
 70
   192
  0
VERTEX
  8
0
  5
105
 10
37.0
 20
37.0
 30
0.0
 70
   192
  0
VERTEX
  8
0
  5
106
 10
18.0
 20
37.0
 30
15.0
 70
   192
  0
VERTEX
  8
0
  5
107
 10
0.0
 20
37.0
 30
10.0
 70
   192
  0
VERTEX
  8
0
 62
     7
  5
108
 10
0.0
 20
0.0
 30
0.0
 70
   128
 71
    -1
 72
    -2
 73
    -3
  0
VERTEX
  8
0
 62
     7
  5
109
 10
0.0
 20
0.0
 30
0.0
 70
   128
 71
     1
 72
     4
 73
    -2
  0
VERTEX
  8
0
 62
     7
  5
10A
 10
0.0
 20
0.0
 30
0.0
 70
   128
 71
     3
 72
     5
 73
    -1
  0
VERTEX
  8
0
 62
     7
  5
10B
 10
0.0
 20
0.0
 30
0.0
 70
   128
 71
     2
 72
     6
 73
    -3
  0
SEQEND
  8
0
 62
     7
  5
10C
  0
POLYLINE
  8
0
 62
     7
  5
10D
 66
     1
 10
0.0
 20
0.0
 30
0.0
 70
    64
  0
VERTEX
  8
0
  5
10E
 10
22.0
 20
18.0
 30
15.0
 70
   192
  0
VERTEX
  8
0
  5
10F
 10
22.0
 20
18.0
 30
10.0
 70
   192
  0
VERTEX
  8
0
  5
110
 10
37.0
 20
18.0
 30
10.0
 70
   192
  0
VERTEX
  8
0
  5
111
 10
37.0
 20
18.0
 30
15.0
 70
   192
  0
VERTEX
  8
0
 62
     7
  5
112
 10
0.0
 20
0.0
 30
0.0
 70
   128
 71
     1
 72
     2
 73
    -3
  0
VERTEX
  8
0
 62
     7
  5
113
 10
0.0
 20
0.0
 30
0.0
 70
   128
 71
     3
 72
     4
 73
    -1
  0
SEQEND
  8
0
 62
     7
  5
114
  0
POLYLINE
  8
0
 62
     7
  5
115
 66
     1
 10
0.0
 20
0.0
 30
0.0
 70
    64
  0
VERTEX
  8
0
  5
116
 10
18.0
 20
37.0
 30
10.0
 70
   192
  0
VERTEX
  8
0
  5
117
 10
18.0
 20
22.0
 30
10.0
 70
   192
  0
VERTEX
  8
0
  5
118
 10
18.0
 20
37.0
 30
15.0
 70
   192
  0
VERTEX
  8
0
  5
119
 10
18.0
 20
22.0
 30
15.0
 70
   192
  0
VERTEX
  8
0
 62
     7
  5
11A
 10
0.0
 20
0.0
 30
0.0
 70
   128
 71
     1
 72
    -2
 73
     3
  0
VERTEX
  8
0
 62
     7
  5
11B
 10
0.0
 20
0.0
 30
0.0
 70
   128
 71
     2
 72
     4
 73
    -3
  0
SEQEND
  8
0
 62
     7
  5
11C
  0
POLYLINE
  8
0
 62
     7
  5
11D
 66
     1
 10
0.0
 20
0.0
 30
0.0
 70
    64
  0
VERTEX
  8
0
  5
11E
 10
19.0
 20
15.0
 30
10.0
 70
   192
  0
VERTEX
  8
0
  5
11F
 10
18.464102
 20
17.0
 30
10.0
 70
   192
  0
VERTEX
  8
0
  5
120
 10
18.464102
 20
17.0
 30
15.0
 70
   192
  0
VERTEX
  8
0
  5
121
 10
19.0
 20
15.0
 30
15.0
 70
   192
  0
VERTEX
  8
0
  5
122
 10
17.0
 20
18.464102
 30
10.0
 70
   192
  0
VERTEX
  8
0
  5
123
 10
17.0
 20
18.464102
 30
15.0
 70
   192
  0
VERTEX
  8
0
  5
124
 10
15.0
 20
19.0
 30
15.0
 70
   192
  0
VERTEX
  8
0
  5
125
 10
15.0
 20
19.0
 30
10.0
 70
   192
  0
VERTEX
  8
0
 62
     7
  5
126
 10
0.0
 20
0.0
 30
0.0
 70
   128
 71
     1
 72
     2
 73
    -3
  0
VERTEX
  8
0
 62
     7
  5
127
 10
0.0
 20
0.0
 30
0.0
 70
   128
 71
     3
 72
     4
 73
    -1
  0
VERTEX
  8
0
 62
     7
  5
128
 10
0.0
 20
0.0
 30
0.0
 70
   128
 71
     5
 72
     6
 73
    -3
  0
VERTEX
  8
0
 62
     7
  5
129
 10
0.0
 20
0.0
 30
0.0
 70
   128
 71
     3
 72
     2
 73
    -5
  0
VERTEX
  8
0
 62
     7
  5
12A
 10
0.0
 20
0.0
 30
0.0
 70
   128
 71
    -5
 72
     7
 73
     6
  0
VERTEX
  8
0
 62
     7
  5
12B
 10
0.0
 20
0.0
 30
0.0
 70
   128
 71
     5
 72
     8
 73
    -7
  0
SEQEND
  8
0
 62
     7
  5
12C
  0
POLYLINE
  8
0
 62
     7
  5
12D
 66
     1
 10
0.0
 20
0.0
 30
0.0
 70
    64
  0
VERTEX
  8
0
  5
12E
 10
19.0
 20
15.0
 30
15.0
 70
   192
  0
VERTEX
  8
0
  5
12F
 10
19.0
 20
0.0
 30
15.0
 70
   192
  0
VERTEX
  8
0
  5
130
 10
19.0
 20
15.0
 30
10.0
 70
   192
  0
VERTEX
  8
0
  5
131
 10
19.0
 20
0.0
 30
10.0
 70
   192
  0
VERTEX
  8
0
 62
     7
  5
132
 10
0.0
 20
0.0
 30
0.0
 70
   128
 71
     1
 72
    -2
 73
     3
  0
VERTEX
  8
0
 62
     7
  5
133
 10
0.0
 20
0.0
 30
0.0
 70
   128
 71
     2
 72
     4
 73
    -3
  0
SEQEND
  8
0
 62
     7
  5
134
  0
POLYLINE
  8
0
 62
     7
  5
135
 66
     1
 10
0.0
 20
0.0
 30
0.0
 70
    64
  0
VERTEX
  8
0
  5
136
 10
0.0
 20
0.0
 30
15.0
 70
   192
  0
VERTEX
  8
0
  5
137
 10
0.0
 20
19.0
 30
10.0
 70
   192
  0
VERTEX
  8
0
  5
138
 10
0.0
 20
37.0
 30
0.0
 70
   192
  0
VERTEX
  8
0
  5
139
 10
0.0
 20
19.0
 30
15.0
 70
   192
  0
VERTEX
  8
0
  5
13A
 10
0.0
 20
0.0
 30
0.0
 70
   192
  0
VERTEX
  8
0
  5
13B
 10
0.0
 20
37.0
 30
10.0
 70
   192
  0
VERTEX
  8
0
 62
     7
  5
13C
 10
0.0
 20
0.0
 30
0.0
 70
   128
 71
    -1
 72
    -2
 73
    -3
  0
VERTEX
  8
0
 62
     7
  5
13D
 10
0.0
 20
0.0
 30
0.0
 70
   128
 71
     1
 72
     4
 73
    -2
  0
VERTEX
  8
0
 62
     7
  5
13E
 10
0.0
 20
0.0
 30
0.0
 70
   128
 71
     3
 72
     5
 73
    -1
  0
VERTEX
  8
0
 62
     7
  5
13F
 10
0.0
 20
0.0
 30
0.0
 70
   128
 71
     2
 72
     6
 73
    -3
  0
SEQEND
  8
0
 62
     7
  5
140
  0
POLYLINE
  8
0
 62
     7
  5
141
 66
     1
 10
0.0
 20
0.0
 30
0.0
 70
    64
  0
VERTEX
  8
0
  5
142
 10
0.0
 20
0.0
 30
15.0
 70
   192
  0
VERTEX
  8
0
  5
143
 10
37.0
 20
0.0
 30
0.0
 70
   192
  0
VERTEX
  8
0
  5
144
 10
19.0
 20
0.0
 30
10.0
 70
   192
  0
VERTEX
  8
0
  5
145
 10
19.0
 20
0.0
 30
15.0
 70
   192
  0
VERTEX
  8
0
  5
146
 10
37.0
 20
0.0
 30
10.0
 70
   192
  0
VERTEX
  8
0
  5
147
 10
0.0
 20
0.0
 30
0.0
 70
   192
  0
VERTEX
  8
0
 62
     7
  5
148
 10
0.0
 20
0.0
 30
0.0
 70
   128
 71
    -1
 72
    -2
 73
    -3
  0
VERTEX
  8
0
 62
     7
  5
149
 10
0.0
 20
0.0
 30
0.0
 70
   128
 71
     3
 72
     4
 73
    -1
  0
VERTEX
  8
0
 62
     7
  5
14A
 10
0.0
 20
0.0
 30
0.0
 70
   128
 71
     2
 72
     5
 73
    -3
  0
VERTEX
  8
0
 62
     7
  5
14B
 10
0.0
 20
0.0
 30
0.0
 70
   128
 71
     1
 72
     6
 73
    -2
  0
SEQEND
  8
0
 62
     7
  5
14C
  0
POLYLINE
  8
0
 62
     7
  5
14D
 66
     1
 10
0.0
 20
0.0
 30
0.0
 70
    64
  0
VERTEX
  8
0
  5
14E
 10
15.0
 20
19.0
 30
10.0
 70
   192
  0
VERTEX
  8
0
  5
14F
 10
0.0
 20
19.0
 30
10.0
 70
   192
  0
VERTEX
  8
0
  5
150
 10
0.0
 20
19.0
 30
15.0
 70
   192
  0
VERTEX
  8
0
  5
151
 10
15.0
 20
19.0
 30
15.0
 70
   192
  0
VERTEX
  8
0
 62
     7
  5
152
 10
0.0
 20
0.0
 30
0.0
 70
   128
 71
     1
 72
     2
 73
    -3
  0
VERTEX
  8
0
 62
     7
  5
153
 10
0.0
 20
0.0
 30
0.0
 70
   128
 71
     3
 72
     4
 73
    -1
  0
SEQEND
  8
0
 62
     7
  5
154
  0
POLYLINE
  8
0
 62
     7
  5
155
 66
     1
 10
0.0
 20
0.0
 30
0.0
 70
    64
  0
VERTEX
  8
0
  5
156
 10
22.0
 20
18.0
 30
10.0
 70
   192
  0
VERTEX
  8
0
  5
157
 10
20.0
 20
18.535898
 30
10.0
 70
   192
  0
VERTEX
  8
0
  5
158
 10
17.0
 20
18.464102
 30
10.0
 70
   192
  0
VERTEX
  8
0
  5
159
 10
18.464102
 20
17.0
 30
10.0
 70
   192
  0
VERTEX
  8
0
  5
15A
 10
15.0
 20
19.0
 30
10.0
 70
   192
  0
VERTEX
  8
0
  5
15B
 10
0.0
 20
37.0
 30
10.0
 70
   192
  0
VERTEX
  8
0
  5
15C
 10
37.0
 20
18.0
 30
10.0
 70
   192
  0
VERTEX
  8
0
  5
15D
 10
37.0
 20
0.0
 30
10.0
 70
   192
  0
VERTEX
  8
0
  5
15E
 10
19.0
 20
15.0
 30
10.0
 70
   192
  0
VERTEX
  8
0
  5
15F
 10
19.0
 20
0.0
 30
10.0
 70
   192
  0
VERTEX
  8
0
  5
160
 10
0.0
 20
19.0
 30
10.0
 70
   192
  0
VERTEX
  8
0
  5
161
 10
18.535898
 20
20.0
 30
10.0
 70
   192
  0
VERTEX
  8
0
  5
162
 10
18.0
 20
22.0
 30
10.0
 70
   192
  0
VERTEX
  8
0
  5
163
 10
18.0
 20
37.0
 30
10.0
 70
   192
  0
VERTEX
  8
0
 62
     7
  5
164
 10
0.0
 20
0.0
 30
0.0
 70
   128
 71
     1
 72
    -2
 73
    -3
  0
VERTEX
  8
0
 62
     7
  5
165
 10
0.0
 20
0.0
 30
0.0
 70
   128
 71
     3
 72
    -4
 73
    -1
  0
VERTEX
  8
0
 62
     7
  5
166
 10
0.0
 20
0.0
 30
0.0
 70
   128
 71
    -2
 72
     5
 73
    -3
  0
VERTEX
  8
0
 62
     7
  5
167
 10
0.0
 20
0.0
 30
0.0
 70
   128
 71
    -2
 72
    -6
 73
    -5
  0
VERTEX
  8
0
 62
     7
  5
168
 10
0.0
 20
0.0
 30
0.0
 70
   128
 71
    -4
 72
     7
 73
    -1
  0
VERTEX
  8
0
 62
     7
  5
169
 10
0.0
 20
0.0
 30
0.0
 70
   128
 71
    -4
 72
     8
 73
    -7
  0
VERTEX
  8
0
 62
     7
  5
16A
 10
0.0
 20
0.0
 30
0.0
 70
   128
 71
     4
 72
    -9
 73
    -8
  0
VERTEX
  8
0
 62
     7
  5
16B
 10
0.0
 20
0.0
 30
0.0
 70
   128
 71
     9
 72
    10
 73
    -8
  0
VERTEX
  8
0
 62
     7
  5
16C
 10
0.0
 20
0.0
 30
0.0
 70
   128
 71
     6
 72
    11
 73
    -5
  0
VERTEX
  8
0
 62
     7
  5
16D
 10
0.0
 20
0.0
 30
0.0
 70
   128
 71
     2
 72
   -12
 73
    -6
  0
VERTEX
  8
0
 62
     7
  5
16E
 10
0.0
 20
0.0
 30
0.0
 70
   128
 71
    12
 72
   -13
 73
    -6
  0
VERTEX
  8
0
 62
     7
  5
16F
 10
0.0
 20
0.0
 30
0.0
 70
   128
 71
    13
 72
    14
 73
    -6
  0
SEQEND
  8
0
 62
     7
  5
170
  0
POLYLINE
  8
0
 62
     7
  5
171
 66
     1
 10
0.0
 20
0.0
 30
0.0
 70
    64
  0
VERTEX
  8
0
  5
172
 10
0.0
 20
0.0
 30
0.0
 70
   192
  0
VERTEX
  8
0
  5
173
 10
0.0
 20
37.0
 30
0.0
 70
   192
  0
VERTEX
  8
0
  5
174
 10
37.0
 20
37.0
 30
0.0
 70
   192
  0
VERTEX
  8
0
  5
175
 10
37.0
 20
0.0
 30
0.0
 70
   192
  0
VERTEX
  8
0
 62
     7
  5
176
 10
0.0
 20
0.0
 30
0.0
 70
   128
 71
     1
 72
     2
 73
    -3
  0
VERTEX
  8
0
 62
     7
  5
177
 10
0.0
 20
0.0
 30
0.0
 70
   128
 71
     3
 72
     4
 73
    -1
  0
SEQEND
  8
0
 62
     7
  5
178
  0
ENDBLK
  8
0
  5
179
  0
ENDSEC
  0
SECTION
  2
ENTITIES
  0
INSERT
  8
AME_FRZ
  5
3
  2
AME_NIL
 10
0.0
 20
0.0
 30
0.0
  0
INSERT
  8
AME_FRZ
  5
6
  2
AME_SOL
 10
0.0
 20
0.0
 30
0.0
1001
AME_SOL
1000
R2.1
1000
AME2
1000
sq cm
1070
     3
1070
     0
1070
     3
1000
wire
1040
45.0
1000
U
1040
1.0
1000
cm
1000
gm
1000
MILD_STEEL
1070
    25
1000
CSG
1070
     1
1070
     3
1070
     3
1070
     3
1070
     0
1000
cu cm
1070
     1
1070
     0
1005
3
  0
INSERT
  8
AME_FRZ
  5
15
  2
AME_NIL
 10
0.0
 20
0.0
 30
0.0
1001
AME_SOL
1002
{
1070
     1
1071
  2271944
1070
  1536
1070
     1
1010
37.0
1020
37.0
1030
10.0
1005
0
1005
0
1005
47
1040
0.0
1040
1.0
1070
     0
1000
MILD_STEEL
1000
0
1010
0.0
1020
0.0
1030
0.0
1010
0.0
1020
0.0
1030
1.0
1040
0.0
1002
}
1001
AVE_INVOKE
1000
SOLAVEMESH
  0
INSERT
  8
AME_FRZ
  5
26
  2
AME_NIL
 10
0.0
 20
0.0
 30
10.0
1001
AME_SOL
1002
{
1070
     1
1071
  2348344
1070
  1536
1070
     1
1010
15.0
1020
19.0
1030
5.0
1005
0
1005
0
1005
47
1040
0.0
1040
1.0
1070
     0
1000
MILD_STEEL
1000
0
1010
0.0
1020
0.0
1030
10.0
1010
0.0
1020
0.0
1030
1.0
1040
0.0
1002
}
1001
AVE_INVOKE
1000
SOLAVEMESH
  0
INSERT
  8
AME_FRZ
  5
37
  2
AME_NIL
 10
0.0
 20
0.0
 30
10.0
1001
AME_SOL
1002
{
1070
     1
1071
  2372416
1070
  1536
1070
     1
1010
19.0
1020
15.0
1030
5.0
1005
0
1005
0
1005
46
1040
0.0
1040
1.0
1070
     0
1000
MILD_STEEL
1000
0
1010
0.0
1020
0.0
1030
10.0
1010
0.0
1020
0.0
1030
1.0
1040
0.0
1002
}
1001
AVE_INVOKE
1000
SOLAVEMESH
  0
INSERT
  8
AME_FRZ
  5
43
  2
AME_NIL
 10
15.0
 20
15.0
 30
10.0
1001
AME_SOL
1002
{
1070
     1
1071
  2350392
1070
  1538
1070
     1
1010
4.0
1020
4.0
1030
5.0
1005
0
1005
0
1005
46
1040
0.0
1040
1.0
1070
     0
1000
MILD_STEEL
1000
0
1010
15.0
1020
15.0
1030
10.0
1010
0.0
1020
0.0
1030
1.0
1040
0.0
1002
}
1001
AVE_INVOKE
1000
SOLAVEMESH
  0
INSERT
  8
AME_FRZ
  5
46
  2
AME_NIL
 10
0.0
 20
0.0
 30
0.0
1001
AME_SOL
1002
{
1070
     1
1071
  2384368
1070
   775
1070
     0
1070
     2
1005
43
1005
37
1005
0
1005
0
1005
65
1040
0.0
1040
1.0
1070
     0
1000
MILD_STEEL
1000
0
1010
0.0
1020
0.0
1030
0.0
1010
0.0
1020
0.0
1030
1.0
1040
0.0
1002
}
  0
INSERT
  8
AME_FRZ
  5
47
  2
AME_NIL
 10
0.0
 20
0.0
 30
0.0
1001
AME_SOL
1002
{
1070
     1
1071
  2399888
1070
   775
1070
     0
1070
     2
1005
26
1005
15
1005
0
1005
0
1005
65
1040
0.0
1040
1.0
1070
     0
1000
MILD_STEEL
1000
0
1010
0.0
1020
0.0
1030
0.0
1010
0.0
1020
0.0
1030
1.0
1040
0.0
1002
}
  0
INSERT
  8
AME_FRZ
  5
65
  2
AME_NIL
 10
0.0
 20
0.0
 30
0.0
1001
AME_SOL
1002
{
1070
     1
1071
  2400864
1070
  1543
1070
     1
1070
     2
1005
46
1005
47
1005
0
1005
0
1005
9A
1040
0.0
1040
1.0
1070
     0
1000
MILD_STEEL
1000
0
1010
0.0
1020
0.0
1030
0.0
1010
0.0
1020
0.0
1030
1.0
1040
0.0
1002
}
1001
AVE_INVOKE
1000
SOLAVEMESH
  0
INSERT
  8
AME_FRZ
  5
79
  2
AME_NIL
 10
18.0
 20
22.0
 30
10.0
1001
AME_SOL
1002
{
1070
     1
1071
  2368264
1070
  1536
1070
     1
1010
19.0
1020
15.0
1030
5.0
1005
0
1005
0
1005
9A
1040
0.0
1040
1.0
1070
     0
1000
MILD_STEEL
1000
0
1010
18.0
1020
22.0
1030
10.0
1010
0.0
1020
0.0
1030
1.0
1040
0.0
1002
}
1001
AVE_INVOKE
1000
SOLAVEMESH
  0
INSERT
  8
AME_FRZ
  5
8A
  2
AME_NIL
 10
22.0
 20
18.0
 30
10.0
1001
AME_SOL
1002
{
1070
     1
1071
  2387808
1070
  1536
1070
     1
1010
15.0
1020
19.0
1030
5.0
1005
0
1005
0
1005
99
1040
0.0
1040
1.0
1070
     0
1000
MILD_STEEL
1000
0
1010
22.0
1020
18.0
1030
10.0
1010
0.0
1020
0.0
1030
1.0
1040
0.0
1002
}
1001
AVE_INVOKE
1000
SOLAVEMESH
  0
INSERT
  8
AME_FRZ
  5
96
  2
AME_NIL
 10
22.0
 20
22.0
 30
10.0
1001
AME_SOL
1002
{
1070
     1
1071
  2428328
1070
  1538
1070
     1
1010
4.0
1020
4.0
1030
5.0
1005
0
1005
0
1005
99
1040
0.0
1040
1.0
1070
     0
1000
MILD_STEEL
1000
0
1010
22.0
1020
22.0
1030
10.0
1010
0.0
1020
0.0
1030
1.0
1040
0.0
1002
}
1001
AVE_INVOKE
1000
SOLAVEMESH
  0
INSERT
  8
AME_FRZ
  5
99
  2
AME_NIL
 10
0.0
 20
0.0
 30
0.0
1001
AME_SOL
1002
{
1070
     1
1071
  2400392
1070
   775
1070
     0
1070
     2
1005
96
1005
8A
1005
0
1005
0
1005
C6
1040
0.0
1040
1.0
1070
     0
1000
MILD_STEEL
1000
0
1010
0.0
1020
0.0
1030
0.0
1010
0.0
1020
0.0
1030
1.0
1040
0.0
1002
}
  0
INSERT
  8
AME_FRZ
  5
9A
  2
AME_NIL
 10
0.0
 20
0.0
 30
0.0
1001
AME_SOL
1002
{
1070
     1
1071
  2452480
1070
   775
1070
     0
1070
     2
1005
79
1005
65
1005
0
1005
0
1005
C6
1040
0.0
1040
1.0
1070
     0
1000
MILD_STEEL
1000
0
1010
0.0
1020
0.0
1030
0.0
1010
0.0
1020
0.0
1030
1.0
1040
0.0
1002
}
  0
INSERT
  8
0
  5
C6
  2
*U12
 10
0.0
 20
0.0
 30
0.0
1001
AME_SOL
1002
{
1070
     1
1071
  2453456
1070
  9223
1070
    11
1070
     2
1005
99
1005
9A
1005
17A
1005
C7
1005
0
1040
4960.116571
1040
1.0
1070
     0
1000
MILD_STEEL
1000
0
1002
}
1001
AVE_INVOKE
1000
SOLAVEMESH
  0
INSERT
  8
AME_FRZ
  5
C7
  2
AME_NIL
 10
1.0
 20
1.0
 30
1.0
1001
AME_SOL
1004
C7CF010037019B019A019801940140008D017F013C00FE00800102007001C000590146012F005F00330095018E018101250071015A014701EA00100004005B01EE00CB0082013F0072015C018C00A4005D01F4004801DF0031008F01830173015E01490134011A00D90035016A00D5000B00180074015F01
1004
9E0097006001730061008401E7007501A70061014A01A0003601D400FC009A009901960190018501690076016201CF00390075008601770163014B01D200370129003500850064014C0138013A00B80039012C0106002000F9000500FF0091018701800078016501C3004D010300D0002400880179016601
1004
3400840067014E013A0138002D01210111017000740078001E00D3004F013B01270054003C0158003D0042009701920189017A01680150013D0144002E012800220187005A002D00320069014E005101FB0023002E008A017B016A01520136003E01D600C2004C006B01DC0053013F01F200D7004001C600
1004
7A00010093018B017C016C01260017009600F0008C017D016D01E80054014101210065001400BF007E016E01550142014800300043012F01230112017600080009004D00B50056019C0079006F0157011600C900580144013001240168000C00250113010A0077001401FD00F800310126011501F700EC00
1004
1601A8005B00270117015C005D0018016200C8004501320128011901010100010D000201150019001A0103019800FA000401F600F50029011B010501EB00E9000601E000A9001C0107019000B1000801B200B30033012A011D010901DE00DD000A015200D8001E010B0188005E000C01600063002B011F01
1004
0D01640066000E0167006B0020010F016C006D0010016E006F000000242A890AA7FAD8CDCFB4D34F7FC9FD0FF0DBEBB280A70879EAECA029C21E7ABB280A70879EB49FA68A8892B8349FA68A8892B83280A708E2C837D8CD612D765014E10F3D5D94053843CF5765014E10F3D693F4D15112570693F4D151
1004
125705D94053843C53759623E3A45BEDDFE56F5962FFFF74AFFFDD2BFFFFFFFFFD2FFFFFFFFFFEB2C5FFFEE95FFFBA57FFFFFFFFFA5FFFFFFFFFF74A63358FE4AECA029C21E7ABB280A70879EA41CB66551E18E0D27E9A2A224AE0D27E9A2A224AE03C40538471560DD65894388B7DBBFA1BD658BFDD7BFD
1004
4FEA7F53F75EFF53EA2E1F5170FD5825FFFFFFFFFFD658BFDD7BFD4FEA7F53F75EFF53F6807ED00FD5825FFFFFFFFFF74A633584B5D94053843CF5027961B97308241CB66551E18E0CA029C238B206AB099B1A188F83280A708E2C83759625598045BEDD81C6D658BFEA7F53F75EFEEBDFEA7F53F643F1F0
1004
FD904BFFFFFFFFFFACB17FD4FEA7EEBDFDD7BFD4FEA7EC87E3E1FB2097FFFFFFFFFDD298CD6254AECA029C21E7ABB280A70879EAECA029C21E7AD27E9A2A224AE0BB280A70878A1E2029C238AB06EB2C4EB4645BEAAA56DEB2C5FEE95FFFFFFFFFBA57FFFFFA5FFFFFFFFFFDFDA36B2C5FEE95FFFFFFFFFB
1004
A57FFFFEAC12FFFFFFFFFFE42AB5962FF74AFFFFFFFFFDD2BFFFFF56097FFFFFFFFFF5962FF74AFFFFFFFFFDD2BFFFFF56097FFFFFFFFFDD298CD6254AECA029C21E7ABB280A70879EAECA029C21E7ABB280A70878A693F4D151125701E2029C238AB06EB2C4F834ABB7D557F3B7ACB17FFFFFBA57FFEE95
1004
FFFFFFFE97FFFFFFFFFF7F60DACB17FFFFFBA57FFEE95FFFFFFFAB04BFFFFFFFFFFAB556B2C5FFFFFEE95FFFBA57FFFFFFEAC12FFFFFFFFFFEB2C5FFFFFEE95FFFBA57FFFFFFEAC12FFFFFFFFFFBA5319AC25A04F2C372E6105D94053843CF520E5B32A8F0C7035584CD8D0C47C194053847164194053847
1004
1641BACB1561C2DF6EF22AB5962FFA9FBAF7FA9FD4FEA7EEBDFC7C3F643F6412FFFFFFFFFFEB2C5FF53F75EFF53FA9FD4FDD7BF8F87EC87EC825FFFFFFFFFF74A633584B48396CCAA3C1009072D99547820120E5B32A8F0C7035584CD8D0C47C0D56133634311F065014E11C5906E48625B96870B7DBB032
1004
AB24317FBA57FFFFFFEE95FFFB21FB21FAB04BFE490FC921FFFFFE4862FF74AFFFFFFFDD2BFFF643F643F56097FC921F9243FFFFF74A7CA48F728FFDD2BFFFFFFF74AFF4AD34D34D36087E3E1FAB01AFD7DBAD4FC5DF45E7EBEDD6A7E2EFA1EFB7FF563BFC6EFD7DBAD4FC5DF45EFD58EFDE60FD7DBAD4FC
1004
5DF43D6FFFFEF301AC0E36C0CAADBFFFFBCC1F2921BEE51FFBA57FFFFFFEE95FFF8F87EC87EAC06BF5F6EB53F177D179FAFB75A9F8BBE87BEDFFD58EFF1BBF5F6EB53F177D17BF563BF7983F5F6EB53F177D0F5BFFFFBCC06B032AB79155B7FFFF7983E5240DDCA3FF74AFFFFFFFDD2BFD2B4D34D34D821F
1004
B807EAC06BF5F6EB53F177D179FAFB75A9F8BBE87BEDFFD58EFDE60377EBEDD6A7E2EFA2F7EAC77EF307EBEDD6A7E2EFA1EFFBE5242ABB947FEE95FFFFFFFBA57FFEE0049FB21FAB01AFD7DBAD4FC5DF45E7EBEDD6A7E2EFA1EFB7FF563BF7980DDFAFB75A9F8BBE8BDFAB1DFBCC1FAFB75A9F8BBE87BFEC
1004
66B096813CB0DCB8BE06113CB0DCB923048396CCAA3C31C0D5613363431610693F4D1511257065014E11C5906EB2C47C3E88B7DBBFA555ACB17FFFFFBA57FFEE95FFFB087ED00FD5825FFFFFFFFFFD658BFFFFFDD2BFFF74AFFFD843F6807EAC12FFFFFFFFFFBA5319AC259844F2C372E48C1027961B9717
1004
C120E5B32A8F0C70693F4D1511257035584CD8D0C5841940538471641BACB125261916FB77CC975962FF74AFFFFFFFFFDD2BF6807EC21FAB04BFFFFFFFFFFACB17FBA57FFFFFFFFEE95FB403F610FD5825FFFFFFFFFF74A63358952BB280A70879EBE6F2DAE7C5AF5C1765014E10F3D693F4D15112570693
1004
F4D151125701E2029C238AB06EB2C4AB6888B7D557F99BD658BFEA7F53F75EFEEBDFEA7F53EA2E1F5170FD5825FFFFFFFFFFC90AAD658BFEA7F53F75EFEEBDFEA7F53EA2E1F5170FD904BFFFFFFFFFFBFDC4BACB17FD4FEA7EEBDFDD7BFD4FEA7D45C3EA2E1FB2097FFFFFFFFFF5962FFA9FD4FDD7BFBAF7
1004
FA9FD4FA8B87D45C3F6412FFFFFFFFFFBA5319AC4A97CDE5B5CF8B5EB82ECA029C21E7ABB280A70879EB49FA68A8892B8349FA68A8892B80F1014E11C558375962786B48B7D557F9DBD658BFEA7EEBDFEA7F53FA9FBAF7EA2E1F5170FD5825FFFFFFFFFFDFE9556B2C5FF53F75EFF53FA9FD4FDD7BF5170F
1004
A8B87EC825FFFFFFFFFFDFED25D658BFEA7EEBDFEA7F53FA9FBAF7EA2E1F5170FD904BFFFFFFFFFFACB17FD4FDD7BFD4FEA7F53F75EFD45C3EA2E1FB2097FFFFFFFFFDD298CD612D027961B9717C1027961B9717C120E5B32A8F0C7035584CD8D0C528035584CD8D0C528065014E11C5906E486298245BED
1004
DC52F24317FBA57FFFFFFEE95FFFB403F6807EAC12FF9243F2487FFFFF9218BFDD2BFFFFFFF74AFFFDA01FB403F56097FC921F9243FFFFF74A7CA48F728FFDD2BFFFFFFF74AFF7F3269A69A69187E9407EAC06BF5F6EB53F177D179FAFB75A9F8BBE87BEDFFD58EFDE60377EBEDD6A7E2EFA2F7EAC77EF30
1004
7EBEDD6A7E2EFA1EFFBE52437DCA3FF74AFFFFFFFDD2BFFF4A03F6807EAC06BF5F6EB53F177D179FAFB75A9F8BBE87BEDFFD58EFDE60377EBEDD6A7E2EFA2F7EAC77EF307EBEDD6A7E2EFA1EFFBE5240DDCA3FF74AFFFFFFFDD2BFDFCC9A69A69A461FB087EAC06BF5F6EB53F177D179FAFB75A9F8BBE87B
1004
EDFFD58EFF1BBF5F6EB53F177D17BF563BF7983F5F6EB53F177D0F5BFFFFBCC06BE64BB8A5EDFFFFDE60F9490AAEE51FFBA57FFFFFFEE95FFFB083E47ED00FD580D7EBEDD6A7E2EFA2F3F5F6EB53F177D0F7DBFFAB1DFE377EBEDD6A7E2EFA2F7EAC77EF307EBEDD6A7E2EFA1EB7FFFF7980D714BDFD2AAD
1004
BFFFFBCC18CD63F92BB280A70879EAECA029C21E7AB572D9954786083280A708E2C81AAC266C68623E0CA029C238B20DD6588CB5116FA54BFAC6D658BFDD7BFD4FEA7F53F75EFF53F643F1F0FD904BFFFFFFFFFFB1D55ACB17FBAF7FA9FD4FEA7EEBDFEA7E3E1FB21FB2097FFFFFFFFFF49556B2C5FEE95F
1004
FFFFFFBA57FFEC87EC87EC825FFFFFFFFFFDFE8556B2C5FEEBDFEA7F53FA9FBAF7FA9F5170FA8B87EC825FFFFFFFFFFDFEF25D658BFDD7BFD4FEA7F53F75EFF53EA2E1F5170FD904BFFFFFFFFFFBFC497ACB17FBA57FFFFFFEE95FFFB403F6807EC825FFFFFFFFFFD658BFDD2BFFFFFFF74AFFFDA01FB403
1004
F6412FFFFFFFFFFBA516932ECA029C21E7AF9BCB6B9F16BD705D94053843CF5A4FD34544495C1A4FD34544495C1765014E10F15F518477D46101AE519F1A88E9A6DCF8E9155B44471A7C748AADA222DF6FB947FFFEE95FFFFFFFBAF7EA3087D45C3FC6FD4611DF51840B499F3796D73E2D7AE0BB280A7087
1004
9EAECA029C21E7AD27E9A2A224AE0D27E9A2A224AE0BB280A70878AFA8C23BEA3080D728DFEC7FC48E9A6DCF8E91786B48E34F8E91786B48B7DBEE51FFBA57FFFFFFFFEEBDFA8B87D4610FF1BF518477D46102D265D94053843CF5765014E10F3D5D94053843CF5765014E10F14D27E9A2A224AE0BB280A7
1004
0878AFA8B8EFEA0D728D47FC08E9A6DCF8E917C1A55F1A7C748BE0D2AEDF6FB947FEEBDFFFFFFFFFDD7BFFFFFE37EA2E3BFA85A4CBB280A70879EAECA029C21E7ABB280A70879EB49FA68A8892B82ECA029C21E29765014E10F15FFF51701AE51AD20BC474D36E7C748BAD191C69F1D22EB4645BEDF728FF
1004
FFDD7BFFFFFFFBAF7FFFFFC6FFFD45C0B499765014E10F3D7CDE5B5CF8B5EB8241CB66551E18E0D27E9A2A224AE0D27E9A2A224AE03C40538471561F516F1DFAD8386B946E9788E9A6DD4388AADA2238D50E22AB6888B7DBEE51FFFFBA57FFFFFFEE95F516F0FA8B87EAC06FD45BC77EB60E2D267CDE5B5C
1004
F8B5EB82ECA029C21E7A9072D995478638349FA68A8892B8349FA68A8892B80F1014E11C5587EB607D45BC06B946FEF5B9C3A69B750E22F0D691C6A8711786B48B7DBEE51FFBA57FFFFF53FFF74AFA8B87D45BC3F56037F5B03EA2DE05A4C813CB0DCB8BE0813CB0DCB8BE09072D9954786381AAC266C686
1004
29401AAC266C68629400F1014E11C55830260B00B6B19E47C91C6582C02DAC67912B7A34FB46FEA4B70E9A6DD4388CC1238D50E233048B7DBE7DA3FF74AFFFFFFFDD2BFFF6807ED00FD5812FF2487E490604C16016D633C8F9238CB05805B58CF2256F4B499027961B9717C0C227961B9724609072D99547
1004
86381AAC266C6862C20D27E9A2A224AE03C40538471561FFFB2035CA35A560770EDD34D43889F0FA238D3E1F4454388B7DBEE51FFBAF7FFFFFFFFF74AFD843F6807EAC06FFFEC816932ECA029C21E7ABB280A70879EAD5CB66551E18E0BB280A70878A693F4D151125701E2029C238AB0FD6C0FA8B780D72
1004
8DFC1FD6E1D34DBA87117C1A55F1AA1C45F069576FB7DCA3FF75EFFFFFFFFFEE95FFFAD30FD580DFD6C0FA8B7816931844F2C372E48C1027961B9717C120E5B32A8F0C70693F4D1511257035584CD8D0C58407880A708E2AC3F6477F506B946B73FB1C3B74D350E2294986471A94986454388B7DBEE51FFF
1004
FBAF7FFFFFFF74AFDA01FB087EAC06FEC8EFEA16932ECA029C21E7A813CB0DCB98416AE5B32A8F0C7065014E11C59035584CD8D0C47C07880A708E2AC3F6477F506B946F83FB5C3B74D350E22AB3008E3556601150E22DF6FB947FFFEE95FFFFFFFBA57EC87E3E1FAB01BFB23BFA85A4C813CB0DCB984176
1004
5014E10F3D5AB96CCAA3C31C0D56133634311F065014E11C5901E2029C238AB0FFFD901AE51AD0FFAB876E9A6A1C46B0E1C6D61C2A1C45BEDF728FFDD2BFFFFFFFFF74AFC7C3F643F56037FFF640B4996AE5B32A8F0402D5CB66551E0805AB96CCAA3C31C0D56133634311F035584CD8D0C47C07880A708E
1004
2AC3FA86582C02DAC67912B2869F68D810F5C3A69B750E22B72D0E1C6A87115B96870B7DBE7DA3FF74AFFFFFFFDD2BFFF643F643F5604BFC921F9243FA86582C02DAC67912B28B499765014E10F3D5D94053843CF56AE5B32A8F0C70693F4D151125705D94053843C50F1014E11C5587D45BC77EB60E1AE5
1004
1B027FD9C3A69B750E22EB46471AA1C45D68C8B7DBEE51FFFFBAF7FFFFFFF74AFD6987FFEAC06FD45BC77EB60E2D265D94053843CF5027961B973082D5CB66551E1820CA029C238B206AB099B1A188F83280A708E2C87EFE21F518406B94664DDC3A69B75598044CB511C6AACC02265A88B7DBEE51FFFFFF
1004
BA57FFEE95FD4FA8C21F8F87EC80DFDFC43EA30816932D5CB66551E080409E586E5CC20B572D9954786383280A708E2C81AAC266C68623E0CA029C238B21FFFBCC06B946F917F7385BA69B755980456E5A1C38D55980456E5A1C2DF6FB947FEE95FFFFFFFBA57FFEC87E3E1FAB01BFFFBCC0B499765014E1
1004
0F3D409E586E5CC20B572D9954786382ECA029C21E28D56133634311F065014E11C590FC9477E4A035CA37F3BFB9C3A69B75598045F06957C6AACC022F834ABB7DBEE51FFBAF7FFFFFFF74AFFFFFC7C3F48806FE4A3BF2502D267CDE5B5CF8B5EB82ECA029C21E7ABB280A70879EB49FA68A8892B82ECA02
1004
9C21E287880A708E2AC3F250FD2201AE51BC3FEEE1D34DBBAD191786B48E35D68C8BC35A45BEDF728FFDD2BFFFFFFF75EFFFD45C3FFF48806FE4A1FA4405A4CBB280A70879EAECA029C21E7AB572D9954786081AAC266C68623E0BB280A70878A65014E11C590FDC077E95406B946FF9BFF0E1D34DBBAD19
1004
132D4471AEB4644CB5116FB7DCA3FFFFFF74AFFFDD7BFFFB807FFEC80DFDC077E9540B499027961B973082ECA029C21E7AB572D9954786381AAC266C68623E0BB280A70878A65014E11C590FC9477E4A035CA37F7BCAE1D34DBBAD191AC3871AEB4646B0E16FB7DCA3FF74AFFFFFFFDD7BFFF8F87FFE9100
1004
DFC9477E4A05A4CBB280A70879EAECA029C21E7ABB280A70879EAECA029C21E29765014E10F14CA029C238B21FAB1DFBCC06B94694BFF2E1D34DBBAD1917C1A55F1AEB4645F069576FB7DCA3FF75EFFFFFFFEEBDFFFFFFFD580DFD58EFDE605A4CBB280A70879EBE6F2DAE7C5AF5C1765014E10F3D5D9405
1004
3843C5349FA68A8892B80F1014E11C5587E910EFC9470D728DFD4FFD3874D36EF834ABAADA2238D7C1A55D56D1116FB7DCA3FFFF74AFFFDD7BFFFFFFF5170FD2201BFA443BF251C5A4CBB280A70879EAECA029C21E7AB572D9954786082ECA029C21E28D56133634311F065014E11C590FD2A8EFDC006B94
1004
6FF23F83874D36EF834AB996A238D7C1A55CCB5116FB7DCA3FFFFFF74AFDD7BFFFFFFFB807EC80DFD2A8EFDC00B499027961B973082ECA029C21E7AB572D9954786081AAC266C68623E0CA029C238B20CA029C238B21F518477EFE2386B946FFA20E1D34DBD61C265A88E36B0E132D445BEDF728FFFFFFDD
1004
2BF74AFFFFFC7C3EA3087EC80DFA8C23BF7F11C5A4C813CB0DCB98416AE5B32A8F0402D5CB66551E18E06AB099B1A188F83280A708E2C83280A708E2C87FFEF301AE51AD2984E16EDD34EB0E15B96870E356E5A1C35870B7DBEE51FFBA57FFFFFFEE95FFF8F87EC87EAC06FFFEF302D2648396CCAA3C1009
1004
072D9954782016AE5B32A8F0C1035584CD8D0C47C0D56133634311F065014E11C590FEA1960B00B6B19E44ACA1A7DA37F07FEDC3A69B75B96870996A238D5B96870996A22DF6F9F68FFDD2BFFFFFFF74AFFFD90FD90FD9025FE490FC921FD432C16016D633C895945A4C813CB0DCB8BE0F9BCB6B9F16BD70
1004
48396CCAA3C31C0D5613363431610693F4D1511257065014E11C590FC9477E4A035CA37F07FF1C3A69B73E1F44556D111C69F0FA22AB6888B7DBEE51FFFFBA57FFEEBDFFFFFD843EA2E1FA44037F251DF9281693204F2C372E2F81844F2C372E48C16AE5B32A8F0C1035584CD8D0C5841A4FD34544495C19
1004
40538471643F6477F506B946B73FFAE1D34DB9F0FA2265A88E34F87D1132D445BEDF728FFFFFFDD2BF75EFFFFFEC21FB403F6406FEC8EFEA1693204F2C372E2F81844F2C372E48C120E5B32A8F0C7035584CD8D0C5840D56133634314A01940538471643FFF7980D728DF07FF9C2DDBA699F0FA233048E36
1004
60913E1F445BEDF728FFDD2BFFFFFFF74AFFFD843F6807EAC06FFFEF302D267CDE5B5CF8B5EB8204F2C372E2F8241CB66551E18E0D27E9A2A224AE06AB099B1A18B083280A708E2C87E4A3BF2501AE51AD0FFFB874D36E9498645E1AD238D4A4C322F0D6916FB7DCA3FF74AFFFFFFFDD7BFFF5170FD843F4
1004
8806FE4A3BF2502D263089E586E5C918204F2C372E2F82D5CB66551E1820D27E9A2A224AE06AB099B1A18B083280A708E2C87FFEC80D728DF15A4B874D36E9498644CB511C6A52619132D445BEDF728FFFFFFDD2BFFF75EFFFED00FD843F6406FFFEC816931844F2C372E48C1027961B9717C120E5B32A8F
1004
0C7035584CD8D0C528035584CD8D0C5841940538471643FFF7980D728D2AA370B74D36E94986466091C6A52619198245BEDF728FFDD2BFFFFFFF74AFFFDA01FB087EAC06FFFEF302D267CDE5B5CF8B5EB83E6F2DAE7C5AF5C1765014E10F3D693F4D15112570693F4D1511257065014E11C590FD91DFD41A
1004
E51925F20E1D34DBAADA222F0D691C6AADA222F0D6916FB7DCA3FF74AFFFFFFFDD2BFFEA2E1F5170FD901BFB23BFA85A4C813CB0DCB8BE0F9BCB6B9F16BD705AB96CCAA3C3041A4FD34544495C1A4FD34544495C1940538471643F5A63BF5B006B9477F2B874D36EAB6888996A238D55B4444CB5116FB7DC
1004
A3FFFFFF74AFFFDD2BFA9F516F0FA8B87EC80DFD698EFD6C02D267CDE5B5CF8B5EB8204F2C372E2F82D5CB66551E1820D27E9A2A224AE0D27E9A2A224AE0CA029C238B21FAD83BF5A6035CA375FCAE1D34DBBC35A44CB511C6BC35A44CB5116FB7DCA3FFFFFF74AFDD2BFFFFEA2E1F516F0FD901BFAD83BF
1004
5A605A4C813CB0DCB8BE0813CB0DCB8BE0B572D9954786081AAC266C68629401AAC266C68629403280A708E2C830260B00B6B19E47C91C6582C02DAC67912B7A34FB46FF52D2B874D36F3048996A238D98244CB5116FB7CFB47FEE95FFFFFFFBA57FFED00FDA01FB204BFC921F924181305805B58CF23E48
1004
E32C16016D633C895BD7F8CFB7F804
1005
C8
  0
INSERT
  8
AME_FRZ
  5
C8
  2
AME_NIL
 10
1.0
 20
1.0
 30
1.0
1001
AME_SOL
1004

1005
0
  0
INSERT
  8
AME_FRZ
  5
17A
  2
*U11
 10
0.0
 20
0.0
 30
0.0
  0
ENDSEC
  0
EOF
