105 579 1 0                             
body $-1 $1 $-1 $-1 #
lump $-1 $-1 $2 $0 #
shell $-1 $-1 $-1 $3 $1 #
face $-1 $4 $5 $2 $-1 $6 reversed single #
face $-1 $7 $8 $2 $-1 $9 reversed single #
loop $-1 $-1 $10 $3 #
cone-surface $-1 104.724409448819 83.8582677165354 47.244094488189 0 0 -1 -7.8740157480315 0 0 1 0 1 0 #
face $-1 $11 $12 $2 $-1 $13 reversed single #
loop $-1 $-1 $14 $4 #
cone-surface $-1 104.724409448819 112.59842519685 47.244094488189 0 0 1 7.8740157480315 0 0 1 0 1 0 #
coedge $-1 $15 $16 $17 $18 0 $5 $-1 #
face $-1 $19 $20 $2 $-1 $21 reversed single #
loop $-1 $-1 $22 $7 #
plane-surface $-1 96.8503937007874 98.2283464566929 47.244094488189 -1 0 0 0 -0 1 0 #
coedge $-1 $23 $24 $25 $26 0 $8 $-1 #
coedge $-1 $27 $10 $28 $29 0 $5 $-1 #
coedge $-1 $10 $27 $30 $31 1 $5 $-1 #
coedge $-1 $32 $33 $10 $18 1 $12 $-1 #
edge $-1 $34 $35 $10 $36 0 #
face $-1 $37 $38 $2 $-1 $39 reversed single #
loop $-1 $-1 $40 $11 #
plane-surface $-1 108.661417322835 120.472440944882 47.244094488189 0 1 0 0 0 1 0 #
coedge $-1 $33 $32 $41 $42 1 $12 $-1 #
coedge $-1 $41 $14 $43 $44 0 $8 $-1 #
coedge $-1 $14 $41 $45 $46 1 $8 $-1 #
coedge $-1 $47 $40 $14 $26 1 $20 $-1 #
edge $-1 $48 $49 $14 $50 0 #
coedge $-1 $16 $15 $51 $52 0 $5 $-1 #
coedge $-1 $53 $54 $15 $29 1 $55 $-1 #
edge $-1 $35 $56 $15 $57 0 #
coedge $-1 $58 $59 $16 $31 0 $60 $-1 #
edge $-1 $34 $61 $16 $62 0 #
coedge $-1 $22 $17 $59 $63 1 $12 $-1 #
coedge $-1 $17 $22 $53 $64 1 $12 $-1 #
vertex $-1 $18 $65 #
vertex $-1 $18 $66 #
straight-curve $-1 96.8503937007874 83.8582677165354 47.244094488189 0 0 1 #
face $-1 $67 $68 $2 $-1 $69 reversed single #
loop $-1 $-1 $70 $19 #
plane-surface $-1 108.661417322835 75.9842519685039 47.244094488189 0 -1 0 0 0 -1 0 #
coedge $-1 $25 $71 $72 $73 1 $20 $-1 #
coedge $-1 $24 $23 $22 $42 0 $8 $-1 #
edge $-1 $74 $75 $41 $76 0 #
coedge $-1 $72 $53 $23 $44 1 $55 $-1 #
edge $-1 $49 $74 $23 $77 0 #
coedge $-1 $59 $78 $24 $46 0 $60 $-1 #
edge $-1 $48 $75 $24 $79 0 #
coedge $-1 $71 $25 $78 $80 1 $20 $-1 #
vertex $-1 $26 $81 #
vertex $-1 $26 $82 #
straight-curve $-1 104.724409448819 120.472440944882 47.244094488189 0 0 1 #
coedge $-1 $83 $70 $27 $52 1 $38 $-1 #
edge $-1 $56 $61 $27 $84 0 #
coedge $-1 $43 $28 $33 $64 0 $55 $-1 #
coedge $-1 $28 $85 $83 $86 0 $55 $-1 #
loop $-1 $-1 $72 $87 #
vertex $-1 $29 $88 #
ellipse-curve $-1 104.724409448819 83.8582677165354 59.0551181102362 0 0 1 -5.56776993060274 -5.56776993060274 0 1 #
coedge $-1 $89 $30 $70 $90 0 $60 $-1 #
coedge $-1 $30 $45 $32 $63 0 $60 $-1 #
loop $-1 $-1 $91 $92 #
vertex $-1 $52 $93 #
ellipse-curve $-1 104.724409448819 83.8582677165354 48.8188976377953 0 0 1 -5.56776993060274 -5.56776993060274 0 1 #
edge $-1 $75 $34 $32 $94 0 #
edge $-1 $35 $74 $33 $95 0 #
point $-1 96.8503937007874 83.8582677165354 48.8188976377953 #
point $-1 96.8503937007874 83.8582677165354 59.0551181102362 #
face $-1 $96 $97 $2 $-1 $98 reversed single #
loop $-1 $-1 $99 $37 #
plane-surface $-1 108.661417322835 98.2283464566929 18.8976377952756 -1 0 0 0 -0 1 0 #
coedge $-1 $51 $100 $58 $90 1 $38 $-1 #
coedge $-1 $40 $47 $101 $102 1 $20 $-1 #
coedge $-1 $103 $43 $40 $73 0 $55 $-1 #
edge $-1 $49 $104 $40 $105 0 #
vertex $-1 $44 $106 #
vertex $-1 $42 $107 #
straight-curve $-1 96.8503937007874 112.59842519685 47.244094488189 0 0 -1 #
ellipse-curve $-1 104.724409448819 112.59842519685 59.0551181102362 0 0 1 -5.56776993060274 5.56776993060274 0 1 #
coedge $-1 $45 $91 $47 $80 0 $60 $-1 #
ellipse-curve $-1 104.724409448819 112.59842519685 48.8188976377953 0 0 1 -5.56776993060274 5.56776993060274 0 1 #
edge $-1 $108 $48 $47 $109 0 #
point $-1 104.724409448819 120.472440944882 48.8188976377953 #
point $-1 104.724409448819 120.472440944882 59.0551181102362 #
coedge $-1 $100 $51 $54 $86 1 $38 $-1 #
straight-curve $-1 104.724409448819 75.9842519685039 47.244094488189 0 0 -1 #
coedge $-1 $54 $110 $111 $112 0 $55 $-1 #
edge $-1 $113 $56 $83 $114 0 #
face $-1 $115 $55 $2 $-1 $116 forward single #
point $-1 104.724409448819 75.9842519685039 59.0551181102362 #
coedge $-1 $117 $58 $118 $119 0 $60 $-1 #
edge $-1 $61 $120 $70 $121 0 #
coedge $-1 $78 $122 $123 $124 0 $60 $-1 #
face $-1 $125 $60 $2 $-1 $126 reversed single #
point $-1 104.724409448819 75.9842519685039 48.8188976377953 #
straight-curve $-1 96.8503937007874 98.2283464566929 48.8188976377953 0 -1 0 #
straight-curve $-1 96.8503937007874 98.2283464566929 59.0551181102362 0 1 0 #
face $-1 $127 $128 $2 $-1 $129 reversed single #
loop $-1 $-1 $118 $67 #
plane-surface $-1 108.661417322835 98.2283464566929 18.8976377952756 -1 0 0 0 -0 1 0 #
coedge $-1 $101 $130 $103 $131 1 $68 $-1 #
coedge $-1 $70 $83 $132 $133 1 $38 $-1 #
coedge $-1 $123 $99 $71 $102 0 $68 $-1 #
edge $-1 $104 $108 $71 $134 0 #
coedge $-1 $135 $72 $99 $131 0 $55 $-1 #
vertex $-1 $73 $136 #
straight-curve $-1 108.661417322835 120.472440944882 59.0551181102362 1 0 0 #
point $-1 96.8503937007874 112.59842519685 59.0551181102362 #
point $-1 96.8503937007874 112.59842519685 48.8188976377953 #
vertex $-1 $80 $137 #
straight-curve $-1 69.2913385826772 120.472440944882 48.8188976377953 -1 0 0 #
coedge $-1 $85 $138 $139 $140 0 $55 $-1 #
coedge $-1 $141 $132 $85 $112 1 $97 $-1 #
edge $-1 $142 $113 $111 $143 0 #
vertex $-1 $86 $144 #
straight-curve $-1 108.661417322835 75.9842519685039 59.0551181102362 -1 0 0 #
face $-1 $145 $146 $2 $-1 $147 forward single #
plane-surface $-1 103.543307086614 98.2283464566929 59.0551181102362 0 0 1 1 0 0 0 #
coedge $-1 $148 $89 $149 $150 0 $60 $-1 #
coedge $-1 $132 $151 $89 $119 1 $97 $-1 #
edge $-1 $120 $152 $118 $153 0 #
vertex $-1 $90 $154 #
straight-curve $-1 69.2913385826772 75.9842519685039 48.8188976377953 1 0 0 #
coedge $-1 $91 $155 $156 $157 0 $60 $-1 #
coedge $-1 $158 $101 $91 $124 1 $68 $-1 #
edge $-1 $159 $108 $123 $160 0 #
face $-1 $161 $162 $2 $-1 $163 reversed single #
plane-surface $-1 69.2913385826772 98.2283464566929 48.8188976377953 0 0 1 1 0 0 0 #
face $-1 $164 $165 $2 $-1 $166 reversed single #
loop $-1 $-1 $167 $96 #
plane-surface $-1 60.2362204724409 150.196850393701 18.8976377952756 0 -1 0 0 0 -1 0 #
coedge $-1 $99 $168 $169 $170 1 $68 $-1 #
edge $-1 $104 $171 $99 $172 0 #
coedge $-1 $111 $118 $100 $133 0 $97 $-1 #
edge $-1 $120 $113 $100 $173 0 #
straight-curve $-1 108.661417322835 120.472440944882 18.8976377952756 0 0 -1 #
coedge $-1 $138 $103 $167 $174 0 $55 $-1 #
point $-1 108.661417322835 120.472440944882 59.0551181102362 #
point $-1 108.661417322835 120.472440944882 48.8188976377953 #
coedge $-1 $110 $135 $175 $176 1 $55 $-1 #
coedge $-1 $177 $178 $110 $140 1 $179 $-1 #
edge $-1 $180 $142 $139 $181 0 #
coedge $-1 $182 $111 $178 $183 1 $97 $-1 #
vertex $-1 $112 $184 #
straight-curve $-1 108.661417322835 98.2283464566929 59.0551181102362 0 1 0 #
point $-1 108.661417322835 75.9842519685039 59.0551181102362 #
face $-1 $185 $186 $2 $-1 $187 forward single #
loop $-1 $-1 $188 $115 #
plane-surface $-1 103.543307086614 0 0 0 -1 0 0 0 -1 0 #
coedge $-1 $189 $117 $190 $191 1 $60 $-1 #
coedge $-1 $192 $193 $117 $150 1 $194 $-1 #
edge $-1 $152 $195 $149 $196 0 #
coedge $-1 $118 $182 $192 $197 1 $97 $-1 #
vertex $-1 $119 $198 #
straight-curve $-1 108.661417322835 98.2283464566929 48.8188976377953 0 -1 0 #
point $-1 108.661417322835 75.9842519685039 48.8188976377953 #
coedge $-1 $122 $189 $199 $200 1 $60 $-1 #
coedge $-1 $201 $202 $122 $157 1 $203 $-1 #
edge $-1 $204 $159 $156 $205 0 #
coedge $-1 $168 $123 $202 $206 1 $68 $-1 #
vertex $-1 $124 $207 #
straight-curve $-1 108.661417322835 98.2283464566929 48.8188976377953 0 -1 0 #
face $-1 $208 $209 $2 $-1 $210 reversed single #
loop $-1 $-1 $211 $125 #
cone-surface $-1 128.346456692913 60.6299212598425 0 0 0 -1 -19.6850393700787 0 0 1 0 1 0 #
face $-1 $212 $213 $2 $-1 $214 reversed single #
loop $-1 $-1 $215 $127 #
plane-surface $-1 60.2362204724409 173.326771653543 18.8976377952756 0 0 -1 -1 0 0 0 #
coedge $-1 $169 $216 $135 $174 1 $128 $-1 #
coedge $-1 $130 $158 $217 $218 1 $68 $-1 #
coedge $-1 $219 $167 $130 $170 0 $128 $-1 #
edge $-1 $171 $220 $130 $221 0 #
vertex $-1 $131 $222 #
straight-curve $-1 108.661417322835 98.2283464566929 59.0551181102362 0 1 0 #
straight-curve $-1 108.661417322835 75.9842519685039 18.8976377952756 0 0 1 #
edge $-1 $171 $223 $167 $224 0 #
coedge $-1 $225 $226 $138 $176 0 $186 $-1 #
edge $-1 $180 $223 $138 $227 0 #
coedge $-1 $228 $139 $226 $229 0 $179 $-1 #
coedge $-1 $139 $228 $141 $183 0 $179 $-1 #
loop $-1 $-1 $228 $212 #
vertex $-1 $140 $230 #
straight-curve $-1 60.2362204724409 46.259842519685 59.0551181102362 1 0 0 #
coedge $-1 $151 $141 $231 $232 1 $97 $-1 #
edge $-1 $233 $142 $141 $234 0 #
point $-1 108.661417322835 46.259842519685 59.0551181102362 #
face $-1 $235 $236 $2 $-1 $237 forward single #
loop $-1 $-1 $238 $145 #
plane-surface $-1 0 98.2283464566929 0 -1 0 0 0 -0 1 0 #
coedge $-1 $239 $240 $241 $242 1 $146 $-1 #
coedge $-1 $155 $148 $243 $244 0 $60 $-1 #
coedge $-1 $245 $246 $148 $191 0 $247 $-1 #
edge $-1 $248 $195 $190 $249 0 #
coedge $-1 $250 $149 $151 $197 0 $194 $-1 #
coedge $-1 $149 $251 $245 $252 1 $194 $-1 #
loop $-1 $-1 $149 $253 #
vertex $-1 $150 $254 #
straight-curve $-1 69.2913385826772 56.496062992126 48.8188976377953 -1 0 0 #
edge $-1 $152 $255 $151 $256 0 #
point $-1 108.661417322835 56.496062992126 48.8188976377953 #
coedge $-1 $257 $258 $155 $200 0 $259 $-1 #
edge $-1 $204 $260 $199 $261 0 #
coedge $-1 $262 $156 $258 $263 1 $203 $-1 #
coedge $-1 $156 $264 $158 $206 0 $203 $-1 #
loop $-1 $-1 $264 $265 #
vertex $-1 $157 $266 #
straight-curve $-1 69.2913385826772 139.96062992126 48.8188976377953 1 0 0 #
edge $-1 $267 $159 $158 $268 0 #
point $-1 108.661417322835 139.96062992126 48.8188976377953 #
face $-1 $269 $270 $2 $-1 $271 reversed single #
loop $-1 $-1 $272 $161 #
cone-surface $-1 128.346456692913 135.826771653543 0 0 0 1 19.6850393700787 0 0 1 0 1 0 #
coedge $-1 $273 $274 $275 $276 0 $162 $-1 #
face $-1 $277 $179 $2 $-1 $278 reversed single #
loop $-1 $-1 $279 $164 #
plane-surface $-1 120.472440944882 98.2283464566929 15.748031496063 -1 0 0 0 -0 1 0 #
coedge $-1 $217 $280 $219 $281 0 $165 $-1 #
coedge $-1 $167 $219 $225 $282 0 $128 $-1 #
coedge $-1 $283 $215 $168 $218 0 $165 $-1 #
edge $-1 $220 $267 $168 $284 0 #
coedge $-1 $216 $169 $215 $281 1 $128 $-1 #
vertex $-1 $218 $285 #
straight-curve $-1 108.661417322835 150.196850393701 18.8976377952756 0 0 -1 #
point $-1 108.661417322835 150.196850393701 59.0551181102362 #
vertex $-1 $174 $286 #
straight-curve $-1 60.2362204724409 150.196850393701 59.0551181102362 -1 0 0 #
coedge $-1 $238 $175 $216 $282 1 $186 $-1 #
coedge $-1 $175 $287 $177 $229 1 $186 $-1 #
straight-curve $-1 0 98.2283464566929 59.0551181102362 0 1 0 #
coedge $-1 $178 $177 $288 $289 1 $179 $-1 #
edge $-1 $180 $290 $177 $291 0 #
point $-1 0 46.259842519685 59.0551181102362 #
coedge $-1 $288 $292 $182 $232 0 $293 $-1 #
edge $-1 $255 $233 $182 $294 0 #
vertex $-1 $183 $295 #
straight-curve $-1 108.661417322835 46.259842519685 18.8976377952756 0 0 1 #
face $-1 $296 $297 $2 $-1 $298 forward single #
loop $-1 $-1 $299 $185 #
plane-surface $-1 103.543307086614 196.456692913386 0 0 1 0 0 0 1 0 #
coedge $-1 $300 $225 $280 $301 1 $186 $-1 #
coedge $-1 $302 $188 $303 $304 1 $146 $-1 #
coedge $-1 $188 $305 $306 $307 1 $146 $-1 #
coedge $-1 $308 $309 $188 $242 0 $293 $-1 #
edge $-1 $310 $311 $241 $312 0 #
coedge $-1 $313 $314 $189 $244 1 $315 $-1 #
edge $-1 $248 $260 $243 $316 0 #
coedge $-1 $317 $190 $193 $252 0 $247 $-1 #
coedge $-1 $190 $317 $313 $318 0 $247 $-1 #
loop $-1 $-1 $317 $319 #
vertex $-1 $318 $320 #
ellipse-curve $-1 22.0472440944882 68.3070866141732 48.8188976377953 0 0 1 -8.35165489590408 -8.35165489590407 0 1 #
coedge $-1 $275 $192 $292 $321 0 $194 $-1 #
coedge $-1 $193 $275 $322 $323 1 $194 $-1 #
edge $-1 $195 $324 $193 $325 0 #
face $-1 $319 $194 $2 $-1 $326 reversed single #
point $-1 22.0472440944882 56.496062992126 48.8188976377953 #
vertex $-1 $232 $327 #
straight-curve $-1 108.661417322835 56.496062992126 0 0 0 -1 #
coedge $-1 $328 $199 $314 $329 0 $259 $-1 #
coedge $-1 $199 $328 $201 $263 0 $259 $-1 #
loop $-1 $-1 $328 $330 #
vertex $-1 $200 $331 #
ellipse-curve $-1 22.0472440944882 128.149606299213 48.8188976377953 0 0 1 -8.35165489590407 8.35165489590407 0 1 #
coedge $-1 $332 $201 $333 $334 1 $203 $-1 #
edge $-1 $335 $204 $201 $336 0 #
coedge $-1 $202 $332 $283 $337 0 $203 $-1 #
face $-1 $253 $203 $2 $-1 $338 reversed single #
point $-1 22.0472440944882 139.96062992126 48.8188976377953 #
vertex $-1 $206 $339 #
straight-curve $-1 108.661417322835 139.96062992126 0 0 0 1 #
face $-1 $87 $340 $2 $-1 $341 reversed single #
loop $-1 $-1 $342 $208 #
plane-surface $-1 177.55905511811 155.511811023622 0 0 1 0 0 0 1 0 #
coedge $-1 $343 $344 $345 $346 0 $209 $-1 #
coedge $-1 $347 $211 $348 $349 0 $162 $-1 #
coedge $-1 $211 $350 $351 $352 0 $162 $-1 #
coedge $-1 $251 $250 $211 $276 1 $194 $-1 #
edge $-1 $353 $354 $275 $355 0 #
face $-1 $356 $293 $2 $-1 $357 reversed single #
plane-surface $-1 60.2362204724409 46.259842519685 18.8976377952756 0 1 0 0 0 1 0 #
coedge $-1 $358 $359 $360 $361 0 $213 $-1 #
coedge $-1 $215 $362 $238 $301 0 $165 $-1 #
edge $-1 $363 $220 $219 $364 0 #
edge $-1 $363 $223 $216 $365 0 #
coedge $-1 $345 $217 $264 $337 1 $165 $-1 #
straight-curve $-1 108.661417322835 98.2283464566929 18.8976377952756 0 -1 0 #
point $-1 108.661417322835 150.196850393701 18.8976377952756 #
point $-1 0 150.196850393701 59.0551181102362 #
coedge $-1 $226 $303 $309 $366 1 $186 $-1 #
coedge $-1 $309 $231 $228 $289 0 $293 $-1 #
edge $-1 $233 $290 $228 $367 0 #
vertex $-1 $289 $368 #
straight-curve $-1 0 46.259842519685 0 0 0 -1 #
coedge $-1 $231 $348 $250 $321 1 $293 $-1 #
loop $-1 $-1 $231 $277 #
straight-curve $-1 108.661417322835 98.2283464566929 18.8976377952756 0 -1 0 #
point $-1 108.661417322835 46.259842519685 18.8976377952756 #
face $-1 $-1 $369 $2 $-1 $370 forward single #
loop $-1 $-1 $333 $235 #
plane-surface $-1 103.543307086614 98.2283464566929 0 0 0 -1 -1 0 0 0 #
coedge $-1 $360 $371 $362 $372 1 $236 $-1 #
coedge $-1 $373 $238 $371 $374 1 $186 $-1 #
edge $-1 $375 $363 $280 $376 0 #
coedge $-1 $377 $239 $378 $379 0 $146 $-1 #
coedge $-1 $287 $373 $239 $304 0 $186 $-1 #
edge $-1 $380 $310 $239 $381 0 #
coedge $-1 $240 $377 $382 $383 1 $146 $-1 #
coedge $-1 $384 $385 $240 $307 0 $386 $-1 #
edge $-1 $311 $387 $306 $388 0 #
coedge $-1 $348 $241 $385 $389 1 $293 $-1 #
coedge $-1 $241 $288 $287 $366 0 $293 $-1 #
vertex $-1 $366 $390 #
vertex $-1 $242 $391 #
straight-curve $-1 60.2362204724409 0 18.8976377952756 1 0 0 #
coedge $-1 $392 $243 $246 $318 1 $315 $-1 #
coedge $-1 $243 $392 $257 $329 1 $315 $-1 #
loop $-1 $-1 $243 $393 #
straight-curve $-1 10.2362204724409 98.2283464566929 48.8188976377953 0 1 0 #
coedge $-1 $246 $245 $394 $395 0 $247 $-1 #
edge $-1 $396 $248 $246 $397 0 #
face $-1 $330 $247 $2 $-1 $398 reversed single #
point $-1 10.2362204724409 68.3070866141732 48.8188976377953 #
edge $-1 $255 $354 $292 $399 0 #
coedge $-1 $351 $394 $251 $323 0 $297 $-1 #
edge $-1 $324 $353 $251 $400 0 #
vertex $-1 $323 $401 #
straight-curve $-1 22.0472440944882 56.496062992126 0 0 0 -1 #
plane-surface $-1 69.2913385826772 56.496062992126 0 0 -1 0 0 0 -1 0 #
point $-1 108.661417322835 56.496062992126 18.8976377952756 #
coedge $-1 $258 $257 $402 $403 0 $259 $-1 #
edge $-1 $260 $404 $257 $405 0 #
face $-1 $393 $259 $2 $-1 $406 reversed single #
point $-1 10.2362204724409 128.149606299213 48.8188976377953 #
coedge $-1 $264 $262 $343 $407 1 $203 $-1 #
coedge $-1 $402 $408 $262 $334 0 $297 $-1 #
edge $-1 $409 $335 $262 $410 0 #
vertex $-1 $263 $411 #
straight-curve $-1 22.0472440944882 139.96062992126 0 0 0 1 #
edge $-1 $412 $267 $283 $413 0 #
plane-surface $-1 69.2913385826772 139.96062992126 0 0 1 0 0 0 1 0 #
point $-1 108.661417322835 139.96062992126 18.8976377952756 #
loop $-1 $-1 $414 $269 #
plane-surface $-1 177.55905511811 40.9448818897638 0 0 -1 0 0 0 -1 0 #
coedge $-1 $415 $416 $417 $418 0 $270 $-1 #
coedge $-1 $419 $272 $332 $407 0 $209 $-1 #
coedge $-1 $272 $420 $421 $422 0 $209 $-1 #
coedge $-1 $423 $283 $272 $346 1 $165 $-1 #
edge $-1 $424 $412 $345 $425 0 #
coedge $-1 $426 $273 $427 $428 0 $162 $-1 #
coedge $-1 $292 $308 $273 $349 1 $293 $-1 #
edge $-1 $354 $429 $348 $430 0 #
coedge $-1 $274 $426 $414 $431 0 $162 $-1 #
coedge $-1 $432 $322 $274 $352 1 $297 $-1 #
edge $-1 $433 $353 $274 $434 0 #
vertex $-1 $276 $435 #
vertex $-1 $349 $436 #
straight-curve $-1 109.100366419198 56.496062992126 0 0 0 1 #
face $-1 $437 $386 $2 $-1 $438 reversed single #
plane-surface $-1 60.2362204724409 23.1299212598425 18.8976377952756 0 0 -1 -1 0 0 0 #
coedge $-1 $421 $279 $423 $439 0 $213 $-1 #
coedge $-1 $279 $421 $440 $441 1 $213 $-1 #
coedge $-1 $442 $299 $279 $361 1 $236 $-1 #
edge $-1 $443 $444 $279 $445 0 #
coedge $-1 $280 $423 $299 $372 0 $165 $-1 #
vertex $-1 $281 $446 #
straight-curve $-1 60.2362204724409 150.196850393701 18.8976377952756 1 0 0 #
straight-curve $-1 0 150.196850393701 0 0 0 1 #
edge $-1 $290 $310 $309 $447 0 #
straight-curve $-1 60.2362204724409 46.259842519685 18.8976377952756 -1 0 0 #
point $-1 0 46.259842519685 18.8976377952756 #
loop $-1 $-1 $448 $296 #
plane-surface $-1 207.086614173228 98.2283464566929 0 1 0 0 0 0 -1 0 #
coedge $-1 $299 $449 $300 $374 0 $236 $-1 #
edge $-1 $444 $375 $362 $450 0 #
coedge $-1 $303 $300 $451 $452 0 $186 $-1 #
edge $-1 $453 $375 $300 $454 0 #
vertex $-1 $372 $455 #
straight-curve $-1 0 98.2283464566929 18.8976377952756 0 -1 0 #
coedge $-1 $305 $302 $456 $457 0 $146 $-1 #
coedge $-1 $451 $458 $302 $379 1 $297 $-1 #
edge $-1 $380 $459 $302 $460 0 #
vertex $-1 $304 $461 #
straight-curve $-1 0 0 0 0 0 1 #
coedge $-1 $462 $463 $305 $383 0 $464 $-1 #
edge $-1 $387 $465 $382 $466 0 #
coedge $-1 $427 $306 $463 $467 1 $386 $-1 #
coedge $-1 $306 $427 $308 $389 0 $386 $-1 #
loop $-1 $-1 $427 $356 #
vertex $-1 $307 $468 #
straight-curve $-1 120.472440944882 0 0 0 0 -1 #
edge $-1 $429 $311 $308 $469 0 #
point $-1 0 0 18.8976377952756 #
point $-1 120.472440944882 0 18.8976377952756 #
coedge $-1 $314 $313 $470 $471 1 $315 $-1 #
face $-1 $92 $315 $2 $-1 $472 reversed single #
coedge $-1 $322 $470 $317 $395 1 $297 $-1 #
edge $-1 $324 $396 $317 $473 0 #
vertex $-1 $395 $474 #
straight-curve $-1 10.2362204724409 68.3070866141732 0 0 0 1 #
cone-surface $-1 22.0472440944882 68.3070866141732 0 0 0 -1 -11.8110236220472 0 0 1 0 1 0 #
straight-curve $-1 69.2913385826772 56.496062992126 18.8976377952756 1 0 0 #
straight-curve $-1 69.2913385826772 56.496062992126 0 1 0 0 #
point $-1 22.0472440944882 56.496062992126 0 #
coedge $-1 $470 $333 $328 $403 1 $297 $-1 #
edge $-1 $404 $335 $328 $475 0 #
vertex $-1 $403 $476 #
straight-curve $-1 10.2362204724409 128.149606299213 0 0 0 -1 #
cone-surface $-1 22.0472440944882 128.149606299213 0 0 0 1 11.8110236220472 0 0 1 0 1 0 #
edge $-1 $412 $409 $332 $477 0 #
coedge $-1 $333 $478 $419 $479 1 $297 $-1 #
vertex $-1 $334 $480 #
straight-curve $-1 69.2913385826772 139.96062992126 0 -1 0 0 #
point $-1 22.0472440944882 139.96062992126 0 #
vertex $-1 $337 $481 #
straight-curve $-1 69.2913385826772 139.96062992126 18.8976377952756 -1 0 0 #
coedge $-1 $482 $483 $350 $431 1 $340 $-1 #
coedge $-1 $484 $342 $485 $486 0 $270 $-1 #
coedge $-1 $342 $484 $478 $487 1 $270 $-1 #
coedge $-1 $488 $448 $342 $418 1 $369 $-1 #
edge $-1 $489 $490 $342 $491 0 #
coedge $-1 $492 $343 $408 $479 0 $209 $-1 #
coedge $-1 $344 $492 $493 $494 0 $209 $-1 #
coedge $-1 $359 $358 $344 $422 1 $213 $-1 #
edge $-1 $495 $424 $421 $496 0 #
coedge $-1 $362 $345 $358 $439 1 $165 $-1 #
vertex $-1 $346 $497 #
ellipse-curve $-1 128.346456692913 135.826771653543 18.8976377952756 0 0 1 -15.2391473565001 12.4607047492677 0 1 #
coedge $-1 $350 $347 $498 $499 0 $162 $-1 #
coedge $-1 $385 $384 $347 $428 1 $386 $-1 #
edge $-1 $429 $500 $427 $501 0 #
vertex $-1 $389 $502 #
ellipse-curve $-1 128.346456692913 60.6299212598425 18.8976377952756 0 0 1 -15.2391473565004 -12.4607047492675 0 1 #
edge $-1 $503 $433 $350 $504 0 #
coedge $-1 $458 $351 $483 $505 0 $297 $-1 #
vertex $-1 $431 $506 #
ellipse-curve $-1 128.346456692913 60.6299212598425 0 0 0 -1 -12.3718554035202 -15.3113673091575 0 1 #
point $-1 109.100366419198 56.496062992126 0 #
point $-1 109.100366419198 56.496062992126 18.8976377952756 #
face $-1 $507 $508 $2 $-1 $509 reversed single #
plane-surface $-1 120.472440944882 98.2283464566929 15.748031496063 -1 0 0 0 -0 1 0 #
edge $-1 $444 $424 $423 $510 0 #
coedge $-1 $493 $511 $359 $441 0 $508 $-1 #
edge $-1 $443 $495 $359 $512 0 #
coedge $-1 $513 $360 $511 $514 1 $236 $-1 #
vertex $-1 $361 $515 #
vertex $-1 $439 $516 #
straight-curve $-1 120.472440944882 196.456692913386 0 0 0 1 #
point $-1 0 150.196850393701 18.8976377952756 #
straight-curve $-1 0 98.2283464566929 18.8976377952756 0 -1 0 #
coedge $-1 $417 $517 $518 $519 1 $369 $-1 #
coedge $-1 $371 $513 $520 $521 0 $236 $-1 #
straight-curve $-1 60.2362204724409 196.456692913386 18.8976377952756 -1 0 0 #
coedge $-1 $520 $378 $373 $452 1 $297 $-1 #
edge $-1 $453 $380 $373 $522 0 #
vertex $-1 $374 $523 #
straight-curve $-1 0 196.456692913386 0 0 0 1 #
point $-1 0 196.456692913386 18.8976377952756 #
coedge $-1 $524 $525 $377 $457 1 $526 $-1 #
edge $-1 $459 $465 $456 $527 0 #
coedge $-1 $378 $432 $524 $528 1 $297 $-1 #
vertex $-1 $457 $529 #
straight-curve $-1 103.543307086614 0 0 1 0 0 #
point $-1 0 0 0 #
coedge $-1 $530 $382 $525 $531 0 $464 $-1 #
coedge $-1 $382 $498 $384 $467 0 $464 $-1 #
loop $-1 $-1 $463 $507 #
vertex $-1 $383 $532 #
straight-curve $-1 103.543307086614 0 15.748031496063 1 0 0 #
edge $-1 $500 $387 $384 $533 0 #
point $-1 120.472440944882 0 15.748031496063 #
straight-curve $-1 120.472440944882 98.2283464566929 18.8976377952756 0 -1 0 #
coedge $-1 $394 $402 $392 $471 0 $297 $-1 #
edge $-1 $404 $396 $392 $534 0 #
plane-surface $-1 10.2362204724409 98.2283464566929 0 -1 0 0 0 -0 1 0 #
ellipse-curve $-1 22.0472440944882 68.3070866141732 0 0 0 -1 -8.35165489590407 -8.35165489590407 0 1 #
point $-1 10.2362204724409 68.3070866141732 0 #
ellipse-curve $-1 22.0472440944882 128.149606299213 0 0 0 -1 -8.35165489590407 8.35165489590407 0 1 #
point $-1 10.2362204724409 128.149606299213 0 #
straight-curve $-1 109.100366419198 139.96062992126 0 0 0 -1 #
coedge $-1 $408 $535 $416 $487 0 $297 $-1 #
edge $-1 $409 $536 $419 $537 0 #
point $-1 109.100366419198 139.96062992126 0 #
point $-1 109.100366419198 139.96062992126 18.8976377952756 #
coedge $-1 $538 $414 $530 $539 0 $340 $-1 #
coedge $-1 $414 $538 $432 $505 1 $340 $-1 #
coedge $-1 $416 $415 $492 $540 1 $270 $-1 #
coedge $-1 $518 $493 $415 $486 1 $508 $-1 #
edge $-1 $490 $541 $485 $542 0 #
edge $-1 $489 $536 $416 $543 0 #
coedge $-1 $517 $417 $535 $544 0 $369 $-1 #
vertex $-1 $418 $545 #
vertex $-1 $486 $546 #
straight-curve $-1 207.086614173228 155.511811023622 0 0 0 1 #
coedge $-1 $420 $419 $484 $540 0 $209 $-1 #
coedge $-1 $485 $440 $420 $494 1 $508 $-1 #
edge $-1 $541 $495 $493 $547 0 #
vertex $-1 $422 $548 #
straight-curve $-1 120.472440944882 153.868408247858 0 0 0 1 #
point $-1 120.472440944882 153.868408247858 18.8976377952756 #
coedge $-1 $463 $530 $426 $499 1 $464 $-1 #
edge $-1 $500 $503 $498 $549 0 #
vertex $-1 $428 $550 #
straight-curve $-1 120.472440944882 42.5882846655282 0 0 0 -1 #
point $-1 120.472440944882 42.5882846655282 18.8976377952756 #
vertex $-1 $539 $551 #
straight-curve $-1 128.346456692913 40.9448818897638 0 0 0 -1 #
edge $-1 $433 $552 $483 $553 0 #
point $-1 128.346456692913 40.9448818897638 0 #
face $-1 $554 $464 $2 $-1 $555 reversed single #
loop $-1 $-1 $485 $437 #
plane-surface $-1 163.779527559055 98.2283464566929 15.748031496063 0 0 -1 -1 0 0 0 #
straight-curve $-1 120.472440944882 98.2283464566929 18.8976377952756 0 -1 0 #
coedge $-1 $440 $518 $442 $514 0 $508 $-1 #
straight-curve $-1 120.472440944882 98.2283464566929 15.748031496063 0 -1 0 #
coedge $-1 $449 $442 $517 $556 1 $236 $-1 #
edge $-1 $557 $443 $511 $558 0 #
point $-1 120.472440944882 196.456692913386 15.748031496063 #
point $-1 120.472440944882 196.456692913386 18.8976377952756 #
coedge $-1 $448 $488 $513 $556 0 $369 $-1 #
coedge $-1 $511 $485 $448 $519 0 $508 $-1 #
edge $-1 $490 $557 $518 $559 0 #
coedge $-1 $535 $451 $449 $521 1 $297 $-1 #
edge $-1 $560 $453 $449 $561 0 #
straight-curve $-1 0 98.2283464566929 0 0 -1 0 #
point $-1 0 196.456692913386 0 #
coedge $-1 $562 $456 $458 $528 0 $526 $-1 #
coedge $-1 $456 $562 $462 $531 1 $526 $-1 #
loop $-1 $-1 $525 $554 #
straight-curve $-1 207.086614173228 0 0 0 0 1 #
edge $-1 $459 $552 $524 $563 0 #
point $-1 207.086614173228 0 0 #
coedge $-1 $498 $462 $482 $539 1 $464 $-1 #
edge $-1 $465 $564 $462 $565 0 #
point $-1 207.086614173228 0 15.748031496063 #
straight-curve $-1 120.472440944882 98.2283464566929 15.748031496063 0 -1 0 #
straight-curve $-1 10.2362204724409 98.2283464566929 0 0 -1 0 #
coedge $-1 $478 $520 $488 $544 1 $297 $-1 #
vertex $-1 $479 $566 #
ellipse-curve $-1 128.346456692913 135.826771653543 0 0 0 -1 -12.37185540352 15.3113673091576 0 1 #
coedge $-1 $483 $482 $562 $567 0 $340 $-1 #
edge $-1 $503 $564 $530 $568 0 #
edge $-1 $536 $541 $492 $569 0 #
vertex $-1 $486 $570 #
straight-curve $-1 177.55905511811 155.511811023622 15.748031496063 -1 0 0 #
straight-curve $-1 177.55905511811 155.511811023622 0 -1 0 0 #
edge $-1 $489 $560 $535 $571 0 #
point $-1 207.086614173228 155.511811023622 0 #
point $-1 207.086614173228 155.511811023622 15.748031496063 #
ellipse-curve $-1 128.346456692913 135.826771653543 15.748031496063 0 0 1 -4.02184337970869 19.2698093096595 0 1 #
point $-1 120.472440944882 153.868408247858 15.748031496063 #
ellipse-curve $-1 128.346456692913 60.6299212598425 15.748031496063 0 0 1 -4.02184337970883 -19.2698093096595 0 1 #
point $-1 120.472440944882 42.5882846655282 15.748031496063 #
point $-1 128.346456692913 40.9448818897638 15.748031496063 #
vertex $-1 $528 $572 #
straight-curve $-1 177.55905511811 40.9448818897638 0 1 0 0 #
face $-1 $265 $526 $2 $-1 $573 forward single #
plane-surface $-1 163.779527559055 98.2283464566929 15.748031496063 0 0 -1 -1 0 0 0 #
edge $-1 $560 $557 $513 $574 0 #
vertex $-1 $519 $575 #
straight-curve $-1 103.543307086614 196.456692913386 15.748031496063 -1 0 0 #
straight-curve $-1 207.086614173228 98.2283464566929 15.748031496063 0 1 0 #
vertex $-1 $556 $576 #
straight-curve $-1 103.543307086614 196.456692913386 0 -1 0 0 #
coedge $-1 $525 $524 $538 $567 1 $526 $-1 #
straight-curve $-1 207.086614173228 98.2283464566929 0 0 1 0 #
vertex $-1 $531 $577 #
straight-curve $-1 207.086614173228 98.2283464566929 15.748031496063 0 1 0 #
point $-1 128.346456692913 155.511811023622 0 #
edge $-1 $564 $552 $562 $578 0 #
straight-curve $-1 177.55905511811 40.9448818897638 15.748031496063 1 0 0 #
straight-curve $-1 128.346456692913 155.511811023622 0 0 0 1 #
point $-1 128.346456692913 155.511811023622 15.748031496063 #
straight-curve $-1 207.086614173228 98.2283464566929 0 0 1 0 #
point $-1 207.086614173228 40.9448818897638 0 #
plane-surface $-1 207.086614173228 98.2283464566929 0 1 0 0 0 0 -1 0 #
straight-curve $-1 207.086614173228 196.456692913386 0 0 0 1 #
point $-1 207.086614173228 196.456692913386 15.748031496063 #
point $-1 207.086614173228 196.456692913386 0 #
point $-1 207.086614173228 40.9448818897638 15.748031496063 #
straight-curve $-1 207.086614173228 40.9448818897638 0 0 0 -1 #
