600 0 1 0           
101 GICL ACIS Healer - Source: /gicl/data5/repository/Parasolid/NIST/Bill_Regli/design2/design2.sat - 6 0 18 ACIS 6.0.3 Solaris 24 Sun Apr 14 00:19:13 2002 
1 9.999999999999999547e-07 1.000000000000000036e-10 
body $-1 $1 $-1 $-1 #
lump $-1 $-1 $2 $0 #
shell $-1 $-1 $-1 $3 $-1 $1 #
face $-1 $4 $5 $2 $-1 $6 reversed single #
face $-1 $7 $8 $2 $-1 $9 reversed single #
loop $-1 $-1 $10 $3 #
cone-surface $-1 104.7244094488190029 83.85826771653539424 47.24409448818899904 0 0 -1 -7.874015748031499839 0 0 1 I I 0 1 7.874015748031499839 forward I I I I #
face $-1 $11 $12 $2 $-1 $13 reversed single #
loop $-1 $-1 $14 $4 #
cone-surface $-1 104.7244094488190029 112.5984251968500018 47.24409448818899904 0 0 1 7.874015748031499839 0 0 1 I I 0 1 7.874015748031499839 forward I I I I #
coedge $-1 $15 $16 $17 $18 forward $5 $-1 #
face $-1 $19 $20 $2 $-1 $21 reversed single #
loop $-1 $-1 $22 $7 #
plane-surface $-1 96.85039370078739296 98.2283464566929041 47.24409448818899904 -1 0 0 0 -0 1 forward_v I I I I #
coedge $-1 $23 $24 $25 $26 forward $8 $-1 #
coedge $-1 $27 $10 $28 $29 forward $5 $-1 #
coedge $-1 $10 $27 $30 $31 reversed $5 $-1 #
coedge $-1 $32 $33 $10 $18 reversed $12 $-1 #
edge $-1 $34 1.574803149606303521 $35 11.8110236220472018 $10 $36 forward 7 unknown #
face $-1 $37 $38 $2 $-1 $39 reversed single #
loop $-1 $-1 $40 $11 #
plane-surface $-1 108.6614173228350069 120.4724409448819955 47.24409448818899904 0 1 0 0 0 1 forward_v I I I I #
coedge $-1 $33 $32 $41 $42 reversed $12 $-1 #
coedge $-1 $41 $14 $43 $44 forward $8 $-1 #
coedge $-1 $14 $41 $45 $46 reversed $8 $-1 #
coedge $-1 $47 $40 $14 $26 reversed $20 $-1 #
edge $-1 $48 1.574803149606303521 $49 11.8110236220472018 $14 $50 forward 7 unknown #
coedge $-1 $16 $15 $51 $52 forward $5 $-1 #
coedge $-1 $53 $54 $15 $29 reversed $55 $-1 #
edge $-1 $35 -0.785398163397448279 $56 0.785398163397448279 $15 $57 forward 7 unknown #
coedge $-1 $58 $59 $16 $31 forward $60 $-1 #
edge $-1 $34 -0.785398163397448279 $61 0.785398163397448279 $16 $62 forward 7 unknown #
coedge $-1 $22 $17 $59 $63 reversed $12 $-1 #
coedge $-1 $17 $22 $53 $64 reversed $12 $-1 #
vertex $-1 $18 $65 #
vertex $-1 $18 $66 #
straight-curve $-1 96.85039370078739296 83.85826771653539424 47.24409448818899904 0 0 1 I I #
face $-1 $67 $68 $2 $-1 $69 reversed single #
loop $-1 $-1 $70 $19 #
plane-surface $-1 108.6614173228350069 75.98425196850389796 47.24409448818899904 0 -1 0 0 0 -1 forward_v I I I I #
coedge $-1 $25 $71 $72 $73 reversed $20 $-1 #
coedge $-1 $24 $23 $22 $42 forward $8 $-1 #
edge $-1 $74 -11.8110236220472018 $75 -1.574803149606303521 $41 $76 forward 7 unknown #
coedge $-1 $72 $53 $23 $44 reversed $55 $-1 #
edge $-1 $49 -0.785398163397448279 $74 0.785398163397448279 $23 $77 forward 7 unknown #
coedge $-1 $59 $78 $24 $46 forward $60 $-1 #
edge $-1 $48 -0.785398163397448279 $75 0.785398163397448279 $24 $79 forward 7 unknown #
coedge $-1 $71 $25 $78 $80 reversed $20 $-1 #
vertex $-1 $26 $81 #
vertex $-1 $26 $82 #
straight-curve $-1 104.7244094488190029 120.4724409448819955 47.24409448818899904 0 0 1 I I #
coedge $-1 $83 $70 $27 $52 reversed $38 $-1 #
edge $-1 $56 -11.8110236220472018 $61 -1.574803149606303521 $27 $84 forward 7 unknown #
coedge $-1 $43 $28 $33 $64 forward $55 $-1 #
coedge $-1 $28 $85 $83 $86 forward $55 $-1 #
loop $-1 $-1 $72 $87 #
vertex $-1 $29 $88 #
ellipse-curve $-1 104.7244094488190029 83.85826771653539424 59.05511811023620083 0 0 1 -5.567769930602739947 -5.567769930602739947 0 1 I I #
coedge $-1 $89 $30 $70 $90 forward $60 $-1 #
coedge $-1 $30 $45 $32 $63 forward $60 $-1 #
loop $-1 $-1 $91 $92 #
vertex $-1 $52 $93 #
ellipse-curve $-1 104.7244094488190029 83.85826771653539424 48.81889763779530256 0 0 1 -5.567769930602739947 -5.567769930602739947 0 1 I I #
edge $-1 $75 -14.37007874015709774 $34 14.37007874015750986 $32 $94 forward 7 unknown #
edge $-1 $35 -14.37007874015750986 $74 14.37007874015709774 $33 $95 forward 7 unknown #
point $-1 96.85039370078739296 83.85826771653539424 48.81889763779530256 #
point $-1 96.85039370078739296 83.85826771653539424 59.05511811023620083 #
face $-1 $96 $97 $2 $-1 $98 reversed single #
loop $-1 $-1 $99 $37 #
plane-surface $-1 108.6614173228350069 98.2283464566929041 18.89763779527559961 -1 0 0 0 -0 1 forward_v I I I I #
coedge $-1 $51 $100 $58 $90 reversed $38 $-1 #
coedge $-1 $40 $47 $101 $102 reversed $20 $-1 #
coedge $-1 $103 $43 $40 $73 forward $55 $-1 #
edge $-1 $49 -3.937007874016003939 $104 0 $40 $105 forward 7 unknown #
vertex $-1 $44 $106 #
vertex $-1 $42 $107 #
straight-curve $-1 96.85039370078739296 112.5984251968500018 47.24409448818899904 0 0 -1 I I #
ellipse-curve $-1 104.7244094488190029 112.5984251968500018 59.05511811023620083 0 0 1 -5.567769930602739947 5.567769930602739947 0 1 I I #
coedge $-1 $45 $91 $47 $80 forward $60 $-1 #
ellipse-curve $-1 104.7244094488190029 112.5984251968500018 48.81889763779530256 0 0 1 -5.567769930602739947 5.567769930602739947 0 1 I I #
edge $-1 $108 -39.37007874015780828 $48 -35.43307086614180434 $47 $109 forward 7 unknown #
point $-1 104.7244094488190029 120.4724409448819955 48.81889763779530256 #
point $-1 104.7244094488190029 120.4724409448819955 59.05511811023620083 #
coedge $-1 $100 $51 $54 $86 reversed $38 $-1 #
straight-curve $-1 104.7244094488190029 75.98425196850389796 47.24409448818899904 0 0 -1 I I #
coedge $-1 $54 $110 $111 $112 forward $55 $-1 #
edge $-1 $113 0 $56 3.937007874016003939 $83 $114 forward 7 unknown #
face $-1 $115 $55 $2 $-1 $116 forward single #
point $-1 104.7244094488190029 75.98425196850389796 59.05511811023620083 #
coedge $-1 $117 $58 $118 $119 forward $60 $-1 #
edge $-1 $61 35.43307086614180434 $120 39.37007874015780828 $70 $121 forward 7 unknown #
coedge $-1 $78 $122 $123 $124 forward $60 $-1 #
face $-1 $125 $60 $2 $-1 $126 reversed single #
point $-1 104.7244094488190029 75.98425196850389796 48.81889763779530256 #
straight-curve $-1 96.85039370078739296 98.2283464566929041 48.81889763779530256 0 -1 0 I I #
straight-curve $-1 96.85039370078739296 98.2283464566929041 59.05511811023620083 0 1 0 I I #
face $-1 $127 $128 $2 $-1 $129 reversed single #
loop $-1 $-1 $118 $67 #
plane-surface $-1 108.6614173228350069 98.2283464566929041 18.89763779527559961 -1 0 0 0 -0 1 forward_v I I I I #
coedge $-1 $101 $130 $103 $131 reversed $68 $-1 #
coedge $-1 $70 $83 $132 $133 reversed $38 $-1 #
coedge $-1 $123 $99 $71 $102 forward $68 $-1 #
edge $-1 $104 -40.15748031496060122 $108 -29.92125984251970294 $71 $134 forward 7 unknown #
coedge $-1 $135 $72 $99 $131 forward $55 $-1 #
vertex $-1 $73 $136 #
straight-curve $-1 108.6614173228350069 120.4724409448819955 59.05511811023620083 1 0 0 I I #
point $-1 96.85039370078739296 112.5984251968500018 59.05511811023620083 #
point $-1 96.85039370078739296 112.5984251968500018 48.81889763779530256 #
vertex $-1 $80 $137 #
straight-curve $-1 69.29133858267719859 120.4724409448819955 48.81889763779530256 -1 0 0 I I #
coedge $-1 $85 $138 $139 $140 forward $55 $-1 #
coedge $-1 $141 $132 $85 $112 reversed $97 $-1 #
edge $-1 $142 -51.96850393700790249 $113 -22.24409448818900614 $111 $143 forward 7 unknown #
vertex $-1 $86 $144 #
straight-curve $-1 108.6614173228350069 75.98425196850389796 59.05511811023620083 -1 0 0 I I #
face $-1 $145 $146 $2 $-1 $147 forward single #
plane-surface $-1 103.5433070866140071 98.2283464566929041 59.05511811023620083 0 0 1 1 0 0 forward_v I I I I #
coedge $-1 $148 $89 $149 $150 forward $60 $-1 #
coedge $-1 $132 $151 $89 $119 reversed $97 $-1 #
edge $-1 $120 22.24409448818900614 $152 41.73228346456690474 $118 $153 forward 7 unknown #
vertex $-1 $90 $154 #
straight-curve $-1 69.29133858267719859 75.98425196850389796 48.81889763779530256 1 0 0 I I #
coedge $-1 $91 $155 $156 $157 forward $60 $-1 #
coedge $-1 $158 $101 $91 $124 reversed $68 $-1 #
edge $-1 $159 -41.73228346456708948 $108 -22.24409448818909141 $123 $160 forward 7 unknown #
face $-1 $161 $162 $2 $-1 $163 reversed single #
plane-surface $-1 69.29133858267719859 98.2283464566929041 48.81889763779530256 0 0 1 1 0 0 forward_v I I I I #
face $-1 $164 $165 $2 $-1 $166 reversed single #
loop $-1 $-1 $167 $96 #
plane-surface $-1 60.23622047244089828 150.1968503937009984 18.89763779527559961 0 -1 0 0 0 -1 forward_v I I I I #
coedge $-1 $99 $168 $169 $170 reversed $68 $-1 #
edge $-1 $104 22.24409448818909141 $171 51.96850393700809434 $99 $172 forward 7 unknown #
coedge $-1 $111 $118 $100 $133 forward $97 $-1 #
edge $-1 $120 29.92125984251970294 $113 40.15748031496060122 $100 $173 forward 7 unknown #
straight-curve $-1 108.6614173228350069 120.4724409448819955 18.89763779527559961 0 0 -1 I I #
coedge $-1 $138 $103 $167 $174 forward $55 $-1 #
point $-1 108.6614173228350069 120.4724409448819955 59.05511811023620083 #
point $-1 108.6614173228350069 120.4724409448819955 48.81889763779530256 #
coedge $-1 $110 $135 $175 $176 reversed $55 $-1 #
coedge $-1 $177 $178 $110 $140 reversed $179 $-1 #
edge $-1 $180 -60.23622047244089828 $142 48.42519685039410859 $139 $181 forward 7 unknown #
coedge $-1 $182 $111 $178 $183 reversed $97 $-1 #
vertex $-1 $112 $184 #
straight-curve $-1 108.6614173228350069 98.2283464566929041 59.05511811023620083 0 1 0 I I #
point $-1 108.6614173228350069 75.98425196850389796 59.05511811023620083 #
face $-1 $185 $186 $2 $-1 $187 forward single #
loop $-1 $-1 $188 $115 #
plane-surface $-1 103.5433070866140071 0 0 0 -1 0 0 0 -1 forward_v I I I I #
coedge $-1 $189 $117 $190 $191 reversed $60 $-1 #
coedge $-1 $192 $193 $117 $150 reversed $194 $-1 #
edge $-1 $152 -39.37007874015780828 $195 47.24409448818899904 $149 $196 forward 7 unknown #
coedge $-1 $118 $182 $192 $197 reversed $97 $-1 #
vertex $-1 $119 $198 #
straight-curve $-1 108.6614173228350069 98.2283464566929041 48.81889763779530256 0 -1 0 I I #
point $-1 108.6614173228350069 75.98425196850389796 48.81889763779530256 #
coedge $-1 $122 $189 $199 $200 reversed $60 $-1 #
coedge $-1 $201 $202 $122 $157 reversed $203 $-1 #
edge $-1 $204 -47.24409448818899904 $159 39.37007874015780828 $156 $205 forward 7 unknown #
coedge $-1 $168 $123 $202 $206 reversed $68 $-1 #
vertex $-1 $124 $207 #
straight-curve $-1 108.6614173228350069 98.2283464566929041 48.81889763779530256 0 -1 0 I I #
face $-1 $208 $209 $2 $-1 $210 reversed single #
loop $-1 $-1 $211 $125 #
cone-surface $-1 128.3464566929129944 60.62992125984249725 0 0 0 -1 -19.68503937007870164 0 0 1 I I 0 1 19.68503937007870164 forward I I I I #
face $-1 $212 $213 $2 $-1 $214 reversed single #
loop $-1 $-1 $215 $127 #
plane-surface $-1 60.23622047244089828 173.3267716535430054 18.89763779527559961 0 0 -1 -1 0 0 forward_v I I I I #
coedge $-1 $169 $216 $135 $174 reversed $128 $-1 #
coedge $-1 $130 $158 $217 $218 reversed $68 $-1 #
coedge $-1 $219 $167 $130 $170 forward $128 $-1 #
edge $-1 $171 -40.15748031496060122 $220 0 $130 $221 forward 7 unknown #
vertex $-1 $131 $222 #
straight-curve $-1 108.6614173228350069 98.2283464566929041 59.05511811023620083 0 1 0 I I #
straight-curve $-1 108.6614173228350069 75.98425196850389796 18.89763779527559961 0 0 1 I I #
edge $-1 $171 -48.42519685039410859 $223 60.23622047244089828 $167 $224 forward 7 unknown #
coedge $-1 $225 $226 $138 $176 forward $186 $-1 #
edge $-1 $180 -51.96850393700790249 $223 51.96850393700809434 $138 $227 forward 7 unknown #
coedge $-1 $228 $139 $226 $229 forward $179 $-1 #
coedge $-1 $139 $228 $141 $183 forward $179 $-1 #
loop $-1 $-1 $228 $212 #
vertex $-1 $140 $230 #
straight-curve $-1 60.23622047244089828 46.25984251968500161 59.05511811023620083 1 0 0 I I #
coedge $-1 $151 $141 $231 $232 reversed $97 $-1 #
edge $-1 $233 0 $142 40.15748031496060122 $141 $234 forward 7 unknown #
point $-1 108.6614173228350069 46.25984251968500161 59.05511811023620083 #
face $-1 $235 $236 $2 $-1 $237 forward single #
loop $-1 $-1 $238 $145 #
plane-surface $-1 0 98.2283464566929041 0 -1 0 0 0 -0 1 forward_v I I I I #
coedge $-1 $239 $240 $241 $242 reversed $146 $-1 #
coedge $-1 $155 $148 $243 $244 forward $60 $-1 #
coedge $-1 $245 $246 $148 $191 forward $247 $-1 #
edge $-1 $248 -0.7853981633974478349 $195 0.7853981633974488341 $190 $249 forward 7 unknown #
coedge $-1 $250 $149 $151 $197 forward $194 $-1 #
coedge $-1 $149 $251 $245 $252 reversed $194 $-1 #
loop $-1 $-1 $149 $253 #
vertex $-1 $150 $254 #
straight-curve $-1 69.29133858267719859 56.49606299212599936 48.81889763779530256 -1 0 0 I I #
edge $-1 $152 -48.81889763779530256 $255 -18.89763779527559961 $151 $256 forward 7 unknown #
point $-1 108.6614173228350069 56.49606299212599936 48.81889763779530256 #
coedge $-1 $257 $258 $155 $200 forward $259 $-1 #
edge $-1 $204 -0.785398163397448279 $260 0.785398163397448279 $199 $261 forward 7 unknown #
coedge $-1 $262 $156 $258 $263 reversed $203 $-1 #
coedge $-1 $156 $264 $158 $206 forward $203 $-1 #
loop $-1 $-1 $264 $265 #
vertex $-1 $157 $266 #
straight-curve $-1 69.29133858267719859 139.9606299212599936 48.81889763779530256 1 0 0 I I #
edge $-1 $267 18.89763779527559961 $159 48.81889763779530256 $158 $268 forward 7 unknown #
point $-1 108.6614173228350069 139.9606299212599936 48.81889763779530256 #
face $-1 $269 $270 $2 $-1 $271 reversed single #
loop $-1 $-1 $272 $161 #
cone-surface $-1 128.3464566929129944 135.8267716535430054 0 0 0 1 19.68503937007870164 0 0 1 I I 0 1 19.68503937007870164 forward I I I I #
coedge $-1 $273 $274 $275 $276 forward $162 $-1 #
face $-1 $277 $179 $2 $-1 $278 reversed single #
loop $-1 $-1 $279 $164 #
plane-surface $-1 120.4724409448819955 98.2283464566929041 15.74803149606299968 -1 0 0 0 -0 1 forward_v I I I I #
coedge $-1 $217 $280 $219 $281 forward $165 $-1 #
coedge $-1 $167 $219 $225 $282 forward $128 $-1 #
coedge $-1 $283 $215 $168 $218 forward $165 $-1 #
edge $-1 $220 -51.96850393700809434 $267 -41.73228346456708948 $168 $284 forward 7 unknown #
coedge $-1 $216 $169 $215 $281 reversed $128 $-1 #
vertex $-1 $218 $285 #
straight-curve $-1 108.6614173228350069 150.1968503937009984 18.89763779527559961 0 0 -1 I I #
point $-1 108.6614173228350069 150.1968503937009984 59.05511811023620083 #
vertex $-1 $174 $286 #
straight-curve $-1 60.23622047244089828 150.1968503937009984 59.05511811023620083 -1 0 0 I I #
coedge $-1 $238 $175 $216 $282 reversed $186 $-1 #
coedge $-1 $175 $287 $177 $229 reversed $186 $-1 #
straight-curve $-1 0 98.2283464566929041 59.05511811023620083 0 1 0 I I #
coedge $-1 $178 $177 $288 $289 reversed $179 $-1 #
edge $-1 $180 -59.05511811023620083 $290 -18.89763779527559961 $177 $291 forward 7 unknown #
point $-1 0 46.25984251968500161 59.05511811023620083 #
coedge $-1 $288 $292 $182 $232 forward $293 $-1 #
edge $-1 $255 41.73228346456690474 $233 51.96850393700790249 $182 $294 forward 7 unknown #
vertex $-1 $183 $295 #
straight-curve $-1 108.6614173228350069 46.25984251968500161 18.89763779527559961 0 0 1 I I #
face $-1 $296 $297 $2 $-1 $298 forward single #
loop $-1 $-1 $299 $185 #
plane-surface $-1 103.5433070866140071 196.4566929133860071 0 0 1 0 0 0 1 forward_v I I I I #
coedge $-1 $300 $225 $280 $301 reversed $186 $-1 #
coedge $-1 $302 $188 $303 $304 reversed $146 $-1 #
coedge $-1 $188 $305 $306 $307 reversed $146 $-1 #
coedge $-1 $308 $309 $188 $242 forward $293 $-1 #
edge $-1 $310 -60.23622047244089828 $311 60.23622047244109723 $241 $312 forward 7 unknown #
coedge $-1 $313 $314 $189 $244 reversed $315 $-1 #
edge $-1 $248 -29.92125984251970294 $260 29.92125984252008664 $243 $316 forward 7 unknown #
coedge $-1 $317 $190 $193 $252 forward $247 $-1 #
coedge $-1 $190 $317 $313 $318 forward $247 $-1 #
loop $-1 $-1 $317 $319 #
vertex $-1 $318 $320 #
ellipse-curve $-1 22.04724409448819955 68.30708661417320116 48.81889763779530256 0 0 1 -8.351654895904079723 -8.351654895904070841 0 1 I I #
coedge $-1 $275 $192 $292 $321 forward $194 $-1 #
coedge $-1 $193 $275 $322 $323 reversed $194 $-1 #
edge $-1 $195 -48.81889763779530256 $324 0 $193 $325 forward 7 unknown #
face $-1 $319 $194 $2 $-1 $326 reversed single #
point $-1 22.04724409448819955 56.49606299212599936 48.81889763779530256 #
vertex $-1 $232 $327 #
straight-curve $-1 108.6614173228350069 56.49606299212599936 0 0 0 -1 I I #
coedge $-1 $328 $199 $314 $329 forward $259 $-1 #
coedge $-1 $199 $328 $201 $263 forward $259 $-1 #
loop $-1 $-1 $328 $330 #
vertex $-1 $200 $331 #
ellipse-curve $-1 22.04724409448819955 128.1496062992129907 48.81889763779530256 0 0 1 -8.351654895904070841 8.351654895904070841 0 1 I I #
coedge $-1 $332 $201 $333 $334 reversed $203 $-1 #
edge $-1 $335 0 $204 48.81889763779530256 $201 $336 forward 7 unknown #
coedge $-1 $202 $332 $283 $337 forward $203 $-1 #
face $-1 $253 $203 $2 $-1 $338 reversed single #
point $-1 22.04724409448819955 139.9606299212599936 48.81889763779530256 #
vertex $-1 $206 $339 #
straight-curve $-1 108.6614173228350069 139.9606299212599936 0 0 0 1 I I #
face $-1 $87 $340 $2 $-1 $341 reversed single #
loop $-1 $-1 $342 $208 #
plane-surface $-1 177.5590551181099954 155.5118110236219877 0 0 1 0 0 0 1 forward_v I I I I #
coedge $-1 $343 $344 $345 $346 forward $209 $-1 #
coedge $-1 $347 $211 $348 $349 forward $162 $-1 #
coedge $-1 $211 $350 $351 $352 forward $162 $-1 #
coedge $-1 $251 $250 $211 $276 reversed $194 $-1 #
edge $-1 $353 0 $354 18.89763779527559961 $275 $355 forward 7 unknown #
face $-1 $356 $293 $2 $-1 $357 reversed single #
plane-surface $-1 60.23622047244089828 46.25984251968500161 18.89763779527559961 0 1 0 0 0 1 forward_v I I I I #
coedge $-1 $358 $359 $360 $361 forward $213 $-1 #
coedge $-1 $215 $362 $238 $301 forward $165 $-1 #
edge $-1 $363 -60.23622047244089828 $220 48.42519685039410859 $219 $364 forward 7 unknown #
edge $-1 $363 18.89763779527559961 $223 59.05511811023620083 $216 $365 forward 7 unknown #
coedge $-1 $345 $217 $264 $337 reversed $165 $-1 #
straight-curve $-1 108.6614173228350069 98.2283464566929041 18.89763779527559961 0 -1 0 I I #
point $-1 108.6614173228350069 150.1968503937009984 18.89763779527559961 #
point $-1 0 150.1968503937009984 59.05511811023620083 #
coedge $-1 $226 $303 $309 $366 reversed $186 $-1 #
coedge $-1 $309 $231 $228 $289 forward $293 $-1 #
edge $-1 $233 -48.42519685039410859 $290 60.23622047244089828 $228 $367 forward 7 unknown #
vertex $-1 $289 $368 #
straight-curve $-1 0 46.25984251968500161 0 0 0 -1 I I #
coedge $-1 $231 $348 $250 $321 reversed $293 $-1 #
loop $-1 $-1 $231 $277 #
straight-curve $-1 108.6614173228350069 98.2283464566929041 18.89763779527559961 0 -1 0 I I #
point $-1 108.6614173228350069 46.25984251968500161 18.89763779527559961 #
face $-1 $-1 $369 $2 $-1 $370 forward single #
loop $-1 $-1 $333 $235 #
plane-surface $-1 103.5433070866140071 98.2283464566929041 0 0 0 -1 -1 0 0 forward_v I I I I #
coedge $-1 $360 $371 $362 $372 reversed $236 $-1 #
coedge $-1 $373 $238 $371 $374 reversed $186 $-1 #
edge $-1 $375 -98.22834645669310305 $363 -51.96850393700809434 $280 $376 forward 7 unknown #
coedge $-1 $377 $239 $378 $379 forward $146 $-1 #
coedge $-1 $287 $373 $239 $304 forward $186 $-1 #
edge $-1 $380 0 $310 18.89763779527559961 $239 $381 forward 7 unknown #
coedge $-1 $240 $377 $382 $383 reversed $146 $-1 #
coedge $-1 $384 $385 $240 $307 forward $386 $-1 #
edge $-1 $311 -18.89763779527559961 $387 -15.74803149606299968 $306 $388 forward 7 unknown #
coedge $-1 $348 $241 $385 $389 reversed $293 $-1 #
coedge $-1 $241 $288 $287 $366 forward $293 $-1 #
vertex $-1 $366 $390 #
vertex $-1 $242 $391 #
straight-curve $-1 60.23622047244089828 0 18.89763779527559961 1 0 0 I I #
coedge $-1 $392 $243 $246 $318 reversed $315 $-1 #
coedge $-1 $243 $392 $257 $329 reversed $315 $-1 #
loop $-1 $-1 $243 $393 #
straight-curve $-1 10.23622047244090005 98.2283464566929041 48.81889763779530256 0 1 0 I I #
coedge $-1 $246 $245 $394 $395 forward $247 $-1 #
edge $-1 $396 0 $248 48.81889763779530256 $246 $397 forward 7 unknown #
face $-1 $330 $247 $2 $-1 $398 reversed single #
point $-1 10.23622047244090005 68.30708661417320116 48.81889763779530256 #
edge $-1 $255 39.37007874015780828 $354 39.8090278365207979 $292 $399 forward 7 unknown #
coedge $-1 $351 $394 $251 $323 forward $297 $-1 #
edge $-1 $324 -47.24409448818899904 $353 39.8090278365207979 $251 $400 forward 7 unknown #
vertex $-1 $323 $401 #
straight-curve $-1 22.04724409448819955 56.49606299212599936 0 0 0 -1 I I #
plane-surface $-1 69.29133858267719859 56.49606299212599936 0 0 -1 0 0 0 -1 forward_v I I I I #
point $-1 108.6614173228350069 56.49606299212599936 18.89763779527559961 #
coedge $-1 $258 $257 $402 $403 forward $259 $-1 #
edge $-1 $260 -48.81889763779530256 $404 0 $257 $405 forward 7 unknown #
face $-1 $393 $259 $2 $-1 $406 reversed single #
point $-1 10.23622047244090005 128.1496062992129907 48.81889763779530256 #
coedge $-1 $264 $262 $343 $407 reversed $203 $-1 #
coedge $-1 $402 $408 $262 $334 forward $297 $-1 #
edge $-1 $409 -39.8090278365207979 $335 47.24409448818899904 $262 $410 forward 7 unknown #
vertex $-1 $263 $411 #
straight-curve $-1 22.04724409448819955 139.9606299212599936 0 0 0 1 I I #
edge $-1 $412 -39.8090278365207979 $267 -39.37007874015780828 $283 $413 forward 7 unknown #
plane-surface $-1 69.29133858267719859 139.9606299212599936 0 0 1 0 0 0 1 forward_v I I I I #
point $-1 108.6614173228350069 139.9606299212599936 18.89763779527559961 #
loop $-1 $-1 $414 $269 #
plane-surface $-1 177.5590551181099954 40.94488188976379917 0 0 -1 0 0 0 -1 forward_v I I I I #
coedge $-1 $415 $416 $417 $418 forward $270 $-1 #
coedge $-1 $419 $272 $332 $407 forward $209 $-1 #
coedge $-1 $272 $420 $421 $422 forward $209 $-1 #
coedge $-1 $423 $283 $272 $346 reversed $165 $-1 #
edge $-1 $424 -0.4738522604846656661 $412 0.4738522604846632236 $345 $425 forward 7 unknown #
coedge $-1 $426 $273 $427 $428 forward $162 $-1 #
coedge $-1 $292 $308 $273 $349 reversed $293 $-1 #
edge $-1 $354 -0.4738522604846700514 $429 0.4738522604846688302 $348 $430 forward 7 unknown #
coedge $-1 $274 $426 $414 $431 forward $162 $-1 #
coedge $-1 $432 $322 $274 $352 reversed $297 $-1 #
edge $-1 $433 -0.6796106835184009265 $353 0.67961068351840348 $274 $434 forward 7 unknown #
vertex $-1 $276 $435 #
vertex $-1 $349 $436 #
straight-curve $-1 109.1003664191979965 56.49606299212599936 0 0 0 1 I I #
face $-1 $437 $386 $2 $-1 $438 reversed single #
plane-surface $-1 60.23622047244089828 23.1299212598425008 18.89763779527559961 0 0 -1 -1 0 0 forward_v I I I I #
coedge $-1 $421 $279 $423 $439 forward $213 $-1 #
coedge $-1 $279 $421 $440 $441 reversed $213 $-1 #
coedge $-1 $442 $299 $279 $361 reversed $236 $-1 #
edge $-1 $443 15.74803149606299968 $444 18.89763779527559961 $279 $445 forward 7 unknown #
coedge $-1 $280 $423 $299 $372 forward $165 $-1 #
vertex $-1 $281 $446 #
straight-curve $-1 60.23622047244089828 150.1968503937009984 18.89763779527559961 1 0 0 I I #
straight-curve $-1 0 150.1968503937009984 0 0 0 1 I I #
edge $-1 $290 51.96850393700790249 $310 98.2283464566929041 $309 $447 forward 7 unknown #
straight-curve $-1 60.23622047244089828 46.25984251968500161 18.89763779527559961 -1 0 0 I I #
point $-1 0 46.25984251968500161 18.89763779527559961 #
loop $-1 $-1 $448 $296 #
plane-surface $-1 207.0866141732280141 98.2283464566929041 0 1 0 0 0 0 -1 forward_v I I I I #
coedge $-1 $299 $449 $300 $374 forward $236 $-1 #
edge $-1 $444 -60.23622047244109723 $375 60.23622047244089828 $362 $450 forward 7 unknown #
coedge $-1 $303 $300 $451 $452 forward $186 $-1 #
edge $-1 $453 0 $375 18.89763779527559961 $300 $454 forward 7 unknown #
vertex $-1 $372 $455 #
straight-curve $-1 0 98.2283464566929041 18.89763779527559961 0 -1 0 I I #
coedge $-1 $305 $302 $456 $457 forward $146 $-1 #
coedge $-1 $451 $458 $302 $379 reversed $297 $-1 #
edge $-1 $380 -103.5433070866140071 $459 103.5433070866140071 $302 $460 forward 7 unknown #
vertex $-1 $304 $461 #
straight-curve $-1 0 0 0 0 0 1 I I #
coedge $-1 $462 $463 $305 $383 forward $464 $-1 #
edge $-1 $387 16.92913385826798844 $465 103.5433070866140071 $382 $466 forward 7 unknown #
coedge $-1 $427 $306 $463 $467 reversed $386 $-1 #
coedge $-1 $306 $427 $308 $389 forward $386 $-1 #
loop $-1 $-1 $427 $356 #
vertex $-1 $307 $468 #
straight-curve $-1 120.4724409448819955 0 0 0 0 -1 I I #
edge $-1 $429 55.64006179116470463 $311 98.2283464566929041 $308 $469 forward 7 unknown #
point $-1 0 0 18.89763779527559961 #
point $-1 120.4724409448819955 0 18.89763779527559961 #
coedge $-1 $314 $313 $470 $471 reversed $315 $-1 #
face $-1 $92 $315 $2 $-1 $472 reversed single #
coedge $-1 $322 $470 $317 $395 reversed $297 $-1 #
edge $-1 $324 -0.785398163397448279 $396 0.785398163397448279 $317 $473 forward 7 unknown #
vertex $-1 $395 $474 #
straight-curve $-1 10.23622047244090005 68.30708661417320116 0 0 0 1 I I #
cone-surface $-1 22.04724409448819955 68.30708661417320116 0 0 0 -1 -11.81102362204720002 0 0 1 I I 0 1 11.81102362204720002 forward I I I I #
straight-curve $-1 69.29133858267719859 56.49606299212599936 18.89763779527559961 1 0 0 I I #
straight-curve $-1 69.29133858267719859 56.49606299212599936 0 1 0 0 I I #
point $-1 22.04724409448819955 56.49606299212599936 0 #
coedge $-1 $470 $333 $328 $403 reversed $297 $-1 #
edge $-1 $404 -0.785398163397448279 $335 0.785398163397448279 $328 $475 forward 7 unknown #
vertex $-1 $403 $476 #
straight-curve $-1 10.23622047244090005 128.1496062992129907 0 0 0 -1 I I #
cone-surface $-1 22.04724409448819955 128.1496062992129907 0 0 0 1 11.81102362204720002 0 0 1 I I 0 1 11.81102362204720002 forward I I I I #
edge $-1 $412 -18.89763779527559961 $409 0 $332 $477 forward 7 unknown #
coedge $-1 $333 $478 $419 $479 reversed $297 $-1 #
vertex $-1 $334 $480 #
straight-curve $-1 69.29133858267719859 139.9606299212599936 0 -1 0 0 I I #
point $-1 22.04724409448819955 139.9606299212599936 0 #
vertex $-1 $337 $481 #
straight-curve $-1 69.29133858267719859 139.9606299212599936 18.89763779527559961 -1 0 0 I I #
coedge $-1 $482 $483 $350 $431 reversed $340 $-1 #
coedge $-1 $484 $342 $485 $486 forward $270 $-1 #
coedge $-1 $342 $484 $478 $487 reversed $270 $-1 #
coedge $-1 $488 $448 $342 $418 reversed $369 $-1 #
edge $-1 $489 0 $490 15.74803149606299968 $342 $491 forward 7 unknown #
coedge $-1 $492 $343 $408 $479 forward $209 $-1 #
coedge $-1 $344 $492 $493 $494 forward $209 $-1 #
coedge $-1 $359 $358 $344 $422 reversed $213 $-1 #
edge $-1 $495 15.74803149606299968 $424 18.89763779527559961 $421 $496 forward 7 unknown #
coedge $-1 $362 $345 $358 $439 reversed $165 $-1 #
vertex $-1 $346 $497 #
ellipse-curve $-1 128.3464566929129944 135.8267716535430054 18.89763779527559961 0 0 1 -15.23914735650009966 12.46070474926770011 0 1 I I #
coedge $-1 $350 $347 $498 $499 forward $162 $-1 #
coedge $-1 $385 $384 $347 $428 reversed $386 $-1 #
edge $-1 $429 -18.89763779527559961 $500 -15.74803149606299968 $427 $501 forward 7 unknown #
vertex $-1 $389 $502 #
ellipse-curve $-1 128.3464566929129944 60.62992125984249725 18.89763779527559961 0 0 1 -15.23914735650039987 -12.46070474926749938 0 1 I I #
edge $-1 $503 -15.74803149606299968 $433 0 $350 $504 forward 7 unknown #
coedge $-1 $458 $351 $483 $505 forward $297 $-1 #
vertex $-1 $431 $506 #
ellipse-curve $-1 128.3464566929129944 60.62992125984249725 0 0 0 -1 -12.37185540352020041 -15.31136730915750022 0 1 I I #
point $-1 109.1003664191979965 56.49606299212599936 0 #
point $-1 109.1003664191979965 56.49606299212599936 18.89763779527559961 #
face $-1 $507 $508 $2 $-1 $509 reversed single #
plane-surface $-1 120.4724409448819955 98.2283464566929041 15.74803149606299968 -1 0 0 0 -0 1 forward_v I I I I #
edge $-1 $444 -98.22834645669310305 $424 -55.64006179116510964 $423 $510 forward 7 unknown #
coedge $-1 $493 $511 $359 $441 forward $508 $-1 #
edge $-1 $443 -98.22834645669310305 $495 -55.64006179116510964 $359 $512 forward 7 unknown #
coedge $-1 $513 $360 $511 $514 reversed $236 $-1 #
vertex $-1 $361 $515 #
vertex $-1 $439 $516 #
straight-curve $-1 120.4724409448819955 196.4566929133860071 0 0 0 1 I I #
point $-1 0 150.1968503937009984 18.89763779527559961 #
straight-curve $-1 0 98.2283464566929041 18.89763779527559961 0 -1 0 I I #
coedge $-1 $417 $517 $518 $519 reversed $369 $-1 #
coedge $-1 $371 $513 $520 $521 forward $236 $-1 #
straight-curve $-1 60.23622047244089828 196.4566929133860071 18.89763779527559961 -1 0 0 I I #
coedge $-1 $520 $378 $373 $452 reversed $297 $-1 #
edge $-1 $453 -98.22834645669310305 $380 98.2283464566929041 $373 $522 forward 7 unknown #
vertex $-1 $374 $523 #
straight-curve $-1 0 196.4566929133860071 0 0 0 1 I I #
point $-1 0 196.4566929133860071 18.89763779527559961 #
coedge $-1 $524 $525 $377 $457 reversed $526 $-1 #
edge $-1 $459 0 $465 15.74803149606299968 $456 $527 forward 7 unknown #
coedge $-1 $378 $432 $524 $528 reversed $297 $-1 #
vertex $-1 $457 $529 #
straight-curve $-1 103.5433070866140071 0 0 1 0 0 I I #
point $-1 0 0 0 #
coedge $-1 $530 $382 $525 $531 forward $464 $-1 #
coedge $-1 $382 $498 $384 $467 forward $464 $-1 #
loop $-1 $-1 $463 $507 #
vertex $-1 $383 $532 #
straight-curve $-1 103.5433070866140071 0 15.74803149606299968 1 0 0 I I #
edge $-1 $500 55.64006179116470463 $387 98.2283464566929041 $384 $533 forward 7 unknown #
point $-1 120.4724409448819955 0 15.74803149606299968 #
straight-curve $-1 120.4724409448819955 98.2283464566929041 18.89763779527559961 0 -1 0 I I #
coedge $-1 $394 $402 $392 $471 forward $297 $-1 #
edge $-1 $404 -29.92125984252008664 $396 29.92125984251970294 $392 $534 forward 7 unknown #
plane-surface $-1 10.23622047244090005 98.2283464566929041 0 -1 0 0 0 -0 1 forward_v I I I I #
ellipse-curve $-1 22.04724409448819955 68.30708661417320116 0 0 0 -1 -8.351654895904070841 -8.351654895904070841 0 1 I I #
point $-1 10.23622047244090005 68.30708661417320116 0 #
ellipse-curve $-1 22.04724409448819955 128.1496062992129907 0 0 0 -1 -8.351654895904070841 8.351654895904070841 0 1 I I #
point $-1 10.23622047244090005 128.1496062992129907 0 #
straight-curve $-1 109.1003664191979965 139.9606299212599936 0 0 0 -1 I I #
coedge $-1 $408 $535 $416 $487 forward $297 $-1 #
edge $-1 $409 -0.6796106835183902684 $536 0.6796106835183898243 $419 $537 forward 7 unknown #
point $-1 109.1003664191979965 139.9606299212599936 0 #
point $-1 109.1003664191979965 139.9606299212599936 18.89763779527559961 #
coedge $-1 $538 $414 $530 $539 forward $340 $-1 #
coedge $-1 $414 $538 $432 $505 reversed $340 $-1 #
coedge $-1 $416 $415 $492 $540 reversed $270 $-1 #
coedge $-1 $518 $493 $415 $486 reversed $508 $-1 #
edge $-1 $490 -29.5275590551180187 $541 49.21259842519700101 $485 $542 forward 7 unknown #
edge $-1 $489 -29.5275590551180187 $536 49.21259842519700101 $416 $543 forward 7 unknown #
coedge $-1 $517 $417 $535 $544 forward $369 $-1 #
vertex $-1 $418 $545 #
vertex $-1 $486 $546 #
straight-curve $-1 207.0866141732280141 155.5118110236219877 0 0 0 1 I I #
coedge $-1 $420 $419 $484 $540 forward $209 $-1 #
coedge $-1 $485 $440 $420 $494 reversed $508 $-1 #
edge $-1 $541 -0.2057584230337260733 $495 0.2057584230337250464 $493 $547 forward 7 unknown #
vertex $-1 $422 $548 #
straight-curve $-1 120.4724409448819955 153.8684082478580137 0 0 0 1 I I #
point $-1 120.4724409448819955 153.8684082478580137 18.89763779527559961 #
coedge $-1 $463 $530 $426 $499 reversed $464 $-1 #
edge $-1 $500 -0.2057584230337325126 $503 0.2057584230337330677 $498 $549 forward 7 unknown #
vertex $-1 $428 $550 #
straight-curve $-1 120.4724409448819955 42.58828466552819947 0 0 0 -1 I I #
point $-1 120.4724409448819955 42.58828466552819947 18.89763779527559961 #
vertex $-1 $539 $551 #
straight-curve $-1 128.3464566929129944 40.94488188976379917 0 0 0 -1 I I #
edge $-1 $433 -49.21259842519700101 $552 29.5275590551180187 $483 $553 forward 7 unknown #
point $-1 128.3464566929129944 40.94488188976379917 0 #
face $-1 $554 $464 $2 $-1 $555 reversed single #
loop $-1 $-1 $485 $437 #
plane-surface $-1 163.7795275590549977 98.2283464566929041 15.74803149606299968 0 0 -1 -1 0 0 forward_v I I I I #
straight-curve $-1 120.4724409448819955 98.2283464566929041 18.89763779527559961 0 -1 0 I I #
coedge $-1 $440 $518 $442 $514 forward $508 $-1 #
straight-curve $-1 120.4724409448819955 98.2283464566929041 15.74803149606299968 0 -1 0 I I #
coedge $-1 $449 $442 $517 $556 reversed $236 $-1 #
edge $-1 $557 -103.5433070866140071 $443 -16.92913385826798844 $511 $558 forward 7 unknown #
point $-1 120.4724409448819955 196.4566929133860071 15.74803149606299968 #
point $-1 120.4724409448819955 196.4566929133860071 18.89763779527559961 #
coedge $-1 $448 $488 $513 $556 forward $369 $-1 #
coedge $-1 $511 $485 $448 $519 forward $508 $-1 #
edge $-1 $490 57.28346456692908362 $557 98.22834645669310305 $518 $559 forward 7 unknown #
coedge $-1 $535 $451 $449 $521 reversed $297 $-1 #
edge $-1 $560 -103.5433070866140071 $453 103.5433070866140071 $449 $561 forward 7 unknown #
straight-curve $-1 0 98.2283464566929041 0 0 -1 0 I I #
point $-1 0 196.4566929133860071 0 #
coedge $-1 $562 $456 $458 $528 forward $526 $-1 #
coedge $-1 $456 $562 $462 $531 reversed $526 $-1 #
loop $-1 $-1 $525 $554 #
straight-curve $-1 207.0866141732280141 0 0 0 0 1 I I #
edge $-1 $459 -98.2283464566929041 $552 -57.28346456692910493 $524 $563 forward 7 unknown #
point $-1 207.0866141732280141 0 0 #
coedge $-1 $498 $462 $482 $539 reversed $464 $-1 #
edge $-1 $465 -98.2283464566929041 $564 -57.28346456692910493 $462 $565 forward 7 unknown #
point $-1 207.0866141732280141 0 15.74803149606299968 #
straight-curve $-1 120.4724409448819955 98.2283464566929041 15.74803149606299968 0 -1 0 I I #
straight-curve $-1 10.23622047244090005 98.2283464566929041 0 0 -1 0 I I #
coedge $-1 $478 $520 $488 $544 reversed $297 $-1 #
vertex $-1 $479 $566 #
ellipse-curve $-1 128.3464566929129944 135.8267716535430054 0 0 0 -1 -12.37185540351999968 15.31136730915759969 0 1 I I #
coedge $-1 $483 $482 $562 $567 forward $340 $-1 #
edge $-1 $503 -49.21259842519700101 $564 29.5275590551180187 $530 $568 forward 7 unknown #
edge $-1 $536 0 $541 15.74803149606299968 $492 $569 forward 7 unknown #
vertex $-1 $486 $570 #
straight-curve $-1 177.5590551181099954 155.5118110236219877 15.74803149606299968 -1 0 0 I I #
straight-curve $-1 177.5590551181099954 155.5118110236219877 0 -1 0 0 I I #
edge $-1 $489 57.28346456692908362 $560 98.22834645669310305 $535 $571 forward 7 unknown #
point $-1 207.0866141732280141 155.5118110236219877 0 #
point $-1 207.0866141732280141 155.5118110236219877 15.74803149606299968 #
ellipse-curve $-1 128.3464566929129944 135.8267716535430054 15.74803149606299968 0 0 1 -4.021843379708689881 19.26980930965950023 0 1 I I #
point $-1 120.4724409448819955 153.8684082478580137 15.74803149606299968 #
ellipse-curve $-1 128.3464566929129944 60.62992125984249725 15.74803149606299968 0 0 1 -4.021843379708830213 -19.26980930965950023 0 1 I I #
point $-1 120.4724409448819955 42.58828466552819947 15.74803149606299968 #
point $-1 128.3464566929129944 40.94488188976379917 15.74803149606299968 #
vertex $-1 $528 $572 #
straight-curve $-1 177.5590551181099954 40.94488188976379917 0 1 0 0 I I #
face $-1 $265 $526 $2 $-1 $573 forward single #
plane-surface $-1 163.7795275590549977 98.2283464566929041 15.74803149606299968 0 0 -1 -1 0 0 forward_v I I I I #
edge $-1 $560 0 $557 15.74803149606299968 $513 $574 forward 7 unknown #
vertex $-1 $519 $575 #
straight-curve $-1 103.5433070866140071 196.4566929133860071 15.74803149606299968 -1 0 0 I I #
straight-curve $-1 207.0866141732280141 98.2283464566929041 15.74803149606299968 0 1 0 I I #
vertex $-1 $556 $576 #
straight-curve $-1 103.5433070866140071 196.4566929133860071 0 -1 0 0 I I #
coedge $-1 $525 $524 $538 $567 reversed $526 $-1 #
straight-curve $-1 207.0866141732280141 98.2283464566929041 0 0 1 0 I I #
vertex $-1 $531 $577 #
straight-curve $-1 207.0866141732280141 98.2283464566929041 15.74803149606299968 0 1 0 I I #
point $-1 128.3464566929129944 155.5118110236219877 0 #
edge $-1 $564 -15.74803149606299968 $552 0 $562 $578 forward 7 unknown #
straight-curve $-1 177.5590551181099954 40.94488188976379917 15.74803149606299968 1 0 0 I I #
straight-curve $-1 128.3464566929129944 155.5118110236219877 0 0 0 1 I I #
point $-1 128.3464566929129944 155.5118110236219877 15.74803149606299968 #
straight-curve $-1 207.0866141732280141 98.2283464566929041 0 0 1 0 I I #
point $-1 207.0866141732280141 40.94488188976379917 0 #
plane-surface $-1 207.0866141732280141 98.2283464566929041 0 1 0 0 0 0 -1 forward_v I I I I #
straight-curve $-1 207.0866141732280141 196.4566929133860071 0 0 0 1 I I #
point $-1 207.0866141732280141 196.4566929133860071 15.74803149606299968 #
point $-1 207.0866141732280141 196.4566929133860071 0 #
point $-1 207.0866141732280141 40.94488188976379917 15.74803149606299968 #
straight-curve $-1 207.0866141732280141 40.94488188976379917 0 0 0 -1 I I #
End-of-ACIS-data 