600 0 1 0           
111 GICL ACIS Healer - Source: /gicl/data5/repository/ICEM-CDC/Fixture_Models/pallet_detail/pallet_detail.sat - 6 0 18 ACIS 6.0.3 Solaris 24 Sat Apr 13 23:05:29 2002 
1 9.999999999999999547e-07 1.000000000000000036e-10 
body $-1 $1 $-1 $2 #
lump $-1 $-1 $3 $0 #
transform $-1 1 0 0 0 1 0 0 0 1 0 0 0 1 no_rotate no_reflect no_shear #
shell $-1 $-1 $-1 $4 $-1 $1 #
face $5 $6 $7 $3 $-1 $8 forward single #
face_name-twe-attrib $-1 $-1 $-1 $4 1 #
face $9 $10 $11 $3 $-1 $12 forward single #
loop $13 $-1 $14 $4 #
plane-surface $15 -3.390625786536820188e-05 27.37999999999999901 -3.390593257002200026e-05 0 -1 0 0 0 -1 forward_v I I I I #
face_name-twe-attrib $-1 $-1 $-1 $6 2 #
face $16 $17 $18 $3 $-1 $19 forward single #
loop $20 $-1 $21 $6 #
plane-surface $22 -123.431457505077006 27.37999999999999901 -180 -2.442311622978919767e-16 0.7071067811865470176 -0.7071067811865480168 -1 0 3.453950220758229936e-16 forward_v I I I I #
loop_type-twe-attrib $-1 $-1 $-1 $7 0 #
coedge $-1 $23 $24 $25 $26 reversed $7 $-1 #
surf-twe-attrib $-1 $27 $-1 $8 28 #
face_name-twe-attrib $-1 $-1 $-1 $10 3 #
face $28 $29 $30 $3 $-1 $31 forward single #
loop $32 $-1 $33 $10 #
plane-surface $34 123.4311862550139978 27.37999999999999901 -180.0000000000009948 0.4999976024712599054 0.7071067811865469066 -0.5000023975172448454 -0.7071101717879509918 0 -0.7071033905688870469 forward_v I I I I #
loop_type-twe-attrib $-1 $-1 $-1 $11 0 #
coedge $-1 $35 $36 $37 $38 forward $11 $-1 #
surf-twe-attrib $-1 $-1 $-1 $12 6 #
coedge $-1 $24 $14 $39 $40 forward $7 $-1 #
coedge $-1 $14 $23 $41 $42 forward $7 $-1 #
coedge $-1 $43 $44 $14 $26 forward $45 $-1 #
edge $46 $47 -20.00122062394832767 $48 19.99897118309747768 $25 $49 reversed 7 unknown #
surf-twe-attrib $-1 $50 $15 $8 52 #
face_name-twe-attrib $-1 $-1 $-1 $17 4 #
face $51 $52 $53 $3 $-1 $54 forward single #
loop $55 $-1 $56 $17 #
plane-surface $57 180.0000000000009948 27.37999999999999901 -123.4317287525390014 0.7071067811865480168 0.7071067811865470176 -4.070510426406760243e-16 -5.756571050805529524e-16 0 -1 forward_v I I I I #
loop_type-twe-attrib $-1 $-1 $-1 $18 0 #
coedge $-1 $58 $59 $60 $61 forward $18 $-1 #
surf-twe-attrib $-1 $-1 $-1 $19 10 #
coedge $-1 $62 $21 $59 $63 reversed $11 $-1 #
coedge $-1 $21 $62 $64 $65 forward $11 $-1 #
coedge $-1 $66 $60 $21 $38 reversed $67 $-1 #
edge $68 $69 1.085239533418004498 $70 245.7774115859130006 $21 $71 forward 7 unknown #
coedge $-1 $72 $73 $23 $40 reversed $53 $-1 #
edge $74 $47 39.9999999961732442 $75 80.00000000000021316 $23 $76 forward 7 unknown #
coedge $-1 $77 $78 $24 $42 reversed $79 $-1 #
edge $80 $75 0 $48 0.0002712500640029702481 $24 $81 forward 7 unknown #
coedge $-1 $82 $25 $83 $84 reversed $45 $-1 #
coedge $-1 $25 $85 $86 $87 reversed $45 $-1 #
loop $88 $-1 $89 $90 #
edge_name-twe-attrib $-1 $-1 $-1 $26 40 4608 #
vertex $-1 $26 $91 #
vertex $-1 $26 $92 #
straight-curve $93 137.572662203876007 27.37999999999999901 165.8586596685429981 0.7071101717879499926 0 -0.7071033905688870469 I I #
surf-twe-attrib $-1 $94 $27 $8 101 #
face_name-twe-attrib $-1 $-1 $-1 $29 5 #
face $95 $96 $79 $3 $-1 $97 forward single #
loop $98 $-1 $99 $29 #
plane-surface $100 180.0000000000009948 27.37999999999999901 123.431457505077006 0.5000000000000006661 0.7071067811865465735 0.5000000000000006661 0.7071067811865480168 0 -0.7071067811865480168 forward_v I I I I #
loop_type-twe-attrib $-1 $-1 $-1 $30 0 #
coedge $-1 $101 $102 $103 $104 forward $30 $-1 #
surf-twe-attrib $-1 $-1 $-1 $31 17 #
coedge $-1 $105 $33 $102 $106 reversed $18 $-1 #
coedge $-1 $33 $107 $35 $63 forward $18 $-1 #
coedge $-1 $37 $103 $33 $61 reversed $67 $-1 #
edge $108 $70 88.3647753927903068 $109 166.1942963287000339 $33 $110 forward 7 unknown #
coedge $-1 $36 $35 $111 $112 reversed $11 $-1 #
edge $113 $114 0 $70 3.860897417941989929 $59 $115 forward 7 unknown #
coedge $-1 $116 $117 $36 $65 reversed $118 $-1 #
edge $119 $120 2.836061593960758335e-13 $69 3.86089948650483894 $36 $121 forward 7 unknown #
coedge $-1 $122 $37 $117 $123 reversed $67 $-1 #
loop $124 $-1 $37 $125 #
edge_name-twe-attrib $-1 $-1 $-1 $38 3 8448 #
vertex $-1 $65 $126 #
vertex $-1 $63 $127 #
straight-curve $128 -123.431457505077006 30 -177.3799999999999955 1 0 -3.453950220758229936e-16 I I #
coedge $-1 $129 $39 $130 $131 reversed $53 $-1 #
coedge $-1 $39 $99 $77 $132 reversed $53 $-1 #
edge_name-twe-attrib $-1 $-1 $-1 $40 1 9216 #
vertex $-1 $40 $133 #
straight-curve $134 180.0000000000009948 27.37999999999999901 123.431457505077006 -0.7071067811865480168 0 0.7071067811865480168 I I #
coedge $-1 $135 $41 $73 $132 forward $79 $-1 #
coedge $-1 $41 $136 $137 $138 reversed $79 $-1 #
loop $139 $-1 $135 $52 #
edge_name-twe-attrib $-1 $-1 $-1 $42 2 9216 #
straight-curve $140 123.431457505077006 27.37999999999999901 180.0000000000009948 -1 0 0 I I #
coedge $-1 $141 $43 $142 $143 reversed $45 $-1 #
coedge $-1 $137 $144 $43 $84 forward $145 $-1 #
edge $146 $147 -45 $48 12.37999999999999901 $83 $148 forward 7 unknown #
coedge $-1 $44 $149 $150 $151 reversed $45 $-1 #
coedge $-1 $152 $130 $44 $87 forward $153 $-1 #
edge $154 $47 20.00122062394832767 $155 60.00102881966168411 $86 $49 forward 7 unknown #
loop_type-twe-attrib $-1 $-1 $-1 $45 0 #
coedge $-1 $156 $141 $157 $158 reversed $45 $-1 #
face $159 $160 $45 $3 $-1 $161 forward single #
point $-1 151.71572875524501 27.37999999999999901 151.7157287498330049 #
point $-1 123.431186255013003 27.37999999999999901 180 #
cur-twe-attrib $-1 $162 $-1 $49 26 #
surf-twe-attrib $-1 $-1 $50 $8 4 #
face_name-twe-attrib $-1 $-1 $-1 $52 6 #
face $163 $164 $165 $3 $-1 $166 forward single #
plane-surface $167 123.431457505077006 27.37999999999999901 180.0000000000009948 0 0.7071067811865470176 0.7071067811865480168 1 0 0 forward_v I I I I #
loop_type-twe-attrib $-1 $-1 $-1 $53 0 #
coedge $-1 $73 $129 $168 $169 forward $53 $-1 #
surf-twe-attrib $-1 $-1 $-1 $54 30 #
coedge $-1 $170 $56 $129 $171 reversed $30 $-1 #
coedge $-1 $56 $172 $58 $106 forward $30 $-1 #
coedge $-1 $60 $168 $56 $104 reversed $67 $-1 #
edge $173 $109 29.36938251640299313 $174 274.0620823479299588 $56 $175 forward 7 unknown #
coedge $-1 $107 $58 $176 $177 reversed $18 $-1 #
edge $178 $179 0 $109 3.860901555084542913 $102 $180 forward 7 unknown #
coedge $-1 $59 $105 $181 $182 reversed $18 $-1 #
edge_name-twe-attrib $-1 $-1 $-1 $61 5 8448 #
vertex $-1 $106 $183 #
straight-curve $184 59.86232257283619873 30 -239.8630322871009923 0.7071101717879509918 0 0.7071033905688870469 I I #
coedge $-1 $185 $186 $62 $112 forward $187 $-1 #
edge $188 $120 -33.43145750507579805 $114 213.4311862550142109 $111 $189 forward 7 unknown #
edge_name-twe-attrib $-1 $-1 $-1 $63 6 8448 #
vertex $-1 $112 $190 #
straight-curve $191 123.4311862550139978 27.37999999999999901 -180.0000000000009948 -0.2810828822166149821 0.6785987081201969584 0.6785987081201979576 I I #
coedge $-1 $192 $64 $193 $194 reversed $118 $-1 #
coedge $-1 $64 $192 $66 $123 forward $118 $-1 #
loop $195 $-1 $117 $196 #
edge_name-twe-attrib $-1 $-1 $-1 $65 4 8448 #
vertex $-1 $194 $197 #
straight-curve $198 -123.431457505077006 27.37999999999999901 -180 0.2810846377148210062 0.6785983445458469987 0.6785983445458479979 I I #
coedge $-1 $199 $66 $200 $201 reversed $67 $-1 #
edge $202 $203 -38.91476046658224419 $69 38.91476046658224419 $117 $204 forward 7 unknown #
loop_type-twe-attrib $-1 $-1 $-1 $67 0 #
face $205 $206 $67 $3 $-1 $207 reversed single #
point $-1 -122.3462179716590015 30 -177.3799999999999955 #
point $-1 122.3459540808359947 30 -177.3800000000009902 #
cur-twe-attrib $-1 $-1 $-1 $71 39 #
coedge $-1 $99 $72 $101 $171 forward $53 $-1 #
coedge $-1 $86 $152 $72 $131 forward $153 $-1 #
edge $208 $209 -20.00000000000005684 $47 19.99999999617318025 $130 $210 forward 7 unknown #
edge $211 $75 0 $212 3.860899486504559164 $77 $213 forward 7 unknown #
point $-1 123.431457505077006 27.37999999999999901 180.0000000000009948 #
cur-twe-attrib $-1 $214 $-1 $76 26 #
coedge $-1 $136 $77 $215 $216 forward $79 $-1 #
coedge $-1 $78 $135 $217 $218 reversed $79 $-1 #
coedge $-1 $219 $83 $78 $138 forward $145 $-1 #
edge $220 $48 -213.4311862550131877 $221 33.43145750507579805 $137 $222 forward 7 unknown #
loop_type-twe-attrib $-1 $-1 $-1 $79 0 #
cur-twe-attrib $-1 $223 $-1 $81 154 #
coedge $-1 $89 $82 $224 $225 reversed $45 $-1 #
coedge $-1 $226 $227 $82 $143 forward $228 $-1 #
edge $229 $230 -60.00041850994541193 $147 19.99958149281375341 $142 $231 forward 7 unknown #
coedge $-1 $83 $219 $226 $232 forward $145 $-1 #
loop $233 $-1 $219 $234 #
edge_name-twe-attrib $-1 $-1 $-1 $84 38 8448 #
vertex $-1 $232 $235 #
straight-curve $236 123.431186255013003 15 180 0 1 0 I I #
coedge $-1 $85 $156 $237 $238 reversed $45 $-1 #
coedge $-1 $239 $240 $85 $151 forward $241 $-1 #
edge $242 $155 -42.37999999999999545 $243 -29 $150 $244 forward 7 unknown #
coedge $-1 $130 $86 $240 $245 reversed $153 $-1 #
loop $246 $-1 $130 $247 #
edge_name-twe-attrib $-1 $-1 $-1 $87 22 8704 #
vertex $-1 $245 $248 #
coedge $-1 $149 $89 $249 $250 reversed $45 $-1 #
coedge $-1 $251 $252 $89 $158 forward $253 $-1 #
edge $254 $255 -28.38808171608672382 $256 -0.1039460920301302632 $157 $257 forward 7 unknown #
face_name-twe-attrib $-1 $-1 $-1 $90 19 #
face $258 $259 $228 $3 $-1 $260 reversed single #
plane-surface $261 123.431186255013003 -30 180 0.7071033905688870469 0 0.7071101717879499926 0 1 0 forward_v I I I I #
cur-twe-attrib $-1 $262 $93 $49 93 #
face_name-twe-attrib $-1 $-1 $-1 $96 7 #
face $263 $196 $264 $3 $-1 $265 forward single #
loop $266 $-1 $267 $96 #
plane-surface $268 -123.431457505077006 27.37999999999999901 180.0000000000009948 -0.5000000000000006661 0.7071067811865465735 0.5000000000000006661 0.7071067811865480168 0 0.7071067811865480168 forward_v I I I I #
surf-twe-attrib $-1 $-1 $-1 $97 58 #
coedge $-1 $103 $215 $99 $169 reversed $67 $-1 #
edge $269 $174 1.085239533417884816 $212 78.91476046658236498 $99 $270 forward 7 unknown #
coedge $-1 $172 $101 $271 $272 reversed $30 $-1 #
edge $273 $209 0 $174 3.860899486504560052 $129 $274 forward 7 unknown #
coedge $-1 $102 $170 $275 $276 reversed $30 $-1 #
edge_name-twe-attrib $-1 $-1 $-1 $104 7 8448 #
vertex $-1 $171 $277 #
straight-curve $278 177.3800000000009902 30 -151.715864376269991 5.756571050805529524e-16 0 1 I I #
coedge $-1 $275 $279 $105 $177 forward $280 $-1 #
edge $281 $282 40.00019188542431436 $179 80.0000000027591085 $176 $283 forward 7 unknown #
edge_name-twe-attrib $-1 $-1 $-1 $106 8 8448 #
vertex $-1 $177 $284 #
straight-curve $285 180.0000000000009948 27.37999999999999901 -123.4317287525390014 -0.6785979809688950093 0.6785979809688940101 0.2810863932136909993 I I #
coedge $-1 $286 $287 $107 $182 forward $288 $-1 #
edge $289 $114 107.2796391193023737 $282 147.2798310047267307 $181 $290 forward 7 unknown #
point $-1 177.3800000000009902 30 -122.3464818598669979 #
cur-twe-attrib $-1 $-1 $-1 $110 67 #
coedge $-1 $291 $111 $287 $292 forward $187 $-1 #
coedge $-1 $111 $293 $294 $295 forward $187 $-1 #
loop $296 $-1 $186 $297 #
edge_name-twe-attrib $-1 $-1 $-1 $112 58 8448 #
straight-curve $298 -90.00000000000019895 27.37999999999999901 -180 1 0 0 I I #
point $-1 123.4311862550139978 27.37999999999999901 -180.0000000000009948 #
cur-twe-attrib $-1 $-1 $-1 $115 69 #
coedge $-1 $117 $116 $299 $300 forward $118 $-1 #
coedge $-1 $294 $301 $116 $194 forward $302 $-1 #
edge $303 $304 -59.99999999999944578 $120 20.0000000000000675 $193 $305 reversed 7 unknown #
loop_type-twe-attrib $-1 $-1 $-1 $118 0 #
face $306 $125 $118 $3 $-1 $307 forward single #
point $-1 -123.431457505075997 27.37999999999999901 -180 #
cur-twe-attrib $-1 $-1 $-1 $121 71 #
coedge $-1 $215 $122 $267 $308 reversed $67 $-1 #
coedge $-1 $299 $309 $122 $201 forward $264 $-1 #
edge $310 $311 -150.6304892191216993 $203 94.06194672419729841 $200 $312 forward 7 unknown #
edge_name-twe-attrib $-1 $-1 $-1 $123 17 8448 #
vertex $-1 $300 $313 #
straight-curve $314 -149.8631089858299958 30 -149.8631089858299958 0.7071067811865480168 0 -0.7071067811865480168 I I #
face_name-twe-attrib $-1 $-1 $-1 $125 10 #
face $315 $247 $280 $3 $-1 $8 forward single #
plane-surface $316 -123.431457505077006 30 -180 0 -1 0 0 0 -1 forward_v I I I I #
edge_name-twe-attrib $-1 $-1 $-1 $131 21 4352 #
vertex $-1 $272 $317 #
straight-curve $318 165.8578643762699869 27.37999999999999901 137.5735931288079996 -0.7071067811865480168 0 0.7071067811865480168 I I #
edge_name-twe-attrib $-1 $-1 $-1 $132 12 8448 #
vertex $-1 $132 $319 #
straight-curve $320 123.431457505077006 27.37999999999999901 180.0000000000009948 -0.2810846377148210062 0.6785983445458469987 -0.6785983445458479979 I I #
cur-twe-attrib $-1 $321 $134 $76 93 #
coedge $-1 $168 $199 $135 $216 reversed $67 $-1 #
edge $322 $212 -122.3462179716597262 $323 122.3462179716602662 $135 $324 forward 7 unknown #
coedge $-1 $267 $325 $136 $218 forward $165 $-1 #
edge $326 $221 9.586485332983093441e-13 $323 3.860899486504559164 $217 $327 forward 7 unknown #
coedge $-1 $144 $137 $328 $329 forward $145 $-1 #
edge_name-twe-attrib $-1 $-1 $-1 $138 39 8448 #
vertex $-1 $138 $330 #
straight-curve $331 -90.00000000000019895 27.37999999999999901 180 -1 0 0 I I #
cur-twe-attrib $-1 $-1 $140 $81 43 #
coedge $-1 $332 $333 $141 $225 forward $334 $-1 #
edge $335 $256 -1 $230 15 $224 $244 forward 7 unknown #
coedge $-1 $336 $142 $144 $232 reversed $228 $-1 #
coedge $-1 $142 $337 $332 $338 reversed $228 $-1 #
loop $339 $-1 $336 $160 #
edge_name-twe-attrib $-1 $-1 $-1 $143 45 8704 #
vertex $-1 $143 $340 #
straight-curve $341 137.5730937600839923 -30 165.8582281164729864 -0.7071101717879499926 0 0.7071033905688870469 I I #
edge $342 $343 -123.431457505075997 $147 123.431186255013003 $226 $344 forward 7 unknown #
loop_type-twe-attrib $-1 $-1 $-1 $145 0 #
face $345 $90 $145 $3 $-1 $346 forward single #
point $-1 123.431186255013003 -30 180 #
cur-twe-attrib $-1 $-1 $-1 $148 90 #
coedge $-1 $347 $348 $149 $238 forward $349 $-1 #
edge $350 $243 0.1039460920301302632 $351 28.38808171608672382 $237 $352 forward 7 unknown #
coedge $-1 $353 $150 $348 $354 forward $241 $-1 #
coedge $-1 $150 $271 $152 $245 forward $241 $-1 #
loop $355 $-1 $150 $259 #
edge_name-twe-attrib $-1 $-1 $-1 $151 47 8448 #
vertex $-1 $151 $356 #
straight-curve $357 180 -15 123.4317287525380067 0 -1 0 I I #
edge $358 $209 213.4314575050772191 $155 213.4317287525382199 $240 $359 forward 7 unknown #
loop_type-twe-attrib $-1 $-1 $-1 $153 0 #
face $360 $361 $153 $3 $-1 $362 forward single #
point $-1 180 27.37999999999999901 123.4317287525380067 #
coedge $-1 $363 $364 $156 $250 forward $365 $-1 #
edge $366 $351 -29 $255 -1 $249 $367 forward 7 unknown #
coedge $-1 $368 $157 $333 $369 reversed $253 $-1 #
coedge $-1 $157 $368 $363 $370 forward $253 $-1 #
loop $371 $-1 $157 $372 #
edge_name-twe-attrib $-1 $-1 $-1 $158 62 8704 #
vertex $-1 $370 $373 #
vertex $-1 $369 $374 #
straight-curve $375 180.0735013389929975 -14 123.3582281184280021 0.7071101717879499926 0 -0.7071033905688870469 I I #
face_name-twe-attrib $-1 $-1 $-1 $160 20 #
face $376 $377 $241 $3 $-1 $378 reversed single #
plane-surface $379 0 -30 0 0 1 0 0 0 1 forward_v I I I I #
surf-twe-attrib $-1 $-1 $-1 $161 96 #
cur-twe-attrib $-1 $380 $162 $49 147 #
face_name-twe-attrib $-1 $-1 $-1 $164 8 #
loop $381 $-1 $200 $164 #
plane-surface $382 -180.0000000000009948 27.37999999999999901 123.431457505077006 -0.7071067811865480168 0.7071067811865470176 -6.512823838388450345e-16 -9.210523801595739524e-16 0 1 forward_v I I I I #
loop_type-twe-attrib $-1 $-1 $-1 $165 0 #
coedge $-1 $383 $217 $199 $308 forward $165 $-1 #
surf-twe-attrib $-1 $-1 $-1 $166 112 #
edge_name-twe-attrib $-1 $-1 $-1 $169 9 8448 #
straight-curve $384 178.1473802332920116 30 121.5788377383679943 -0.7071067811865480168 0 0.7071067811865480168 I I #
coedge $-1 $240 $353 $170 $272 forward $241 $-1 #
edge $385 $386 -33.43145750507680702 $209 213.4314575050772191 $271 $359 forward 7 unknown #
edge_name-twe-attrib $-1 $-1 $-1 $171 10 8448 #
straight-curve $387 180.0000000000009948 27.37999999999999901 123.431457505077006 -0.6785983445458479979 0.6785983445458469987 -0.2810846377148210062 I I #
coedge $-1 $279 $176 $172 $276 forward $280 $-1 #
edge $388 $179 0 $386 0.0002712474619954718946 $275 $389 forward 7 unknown #
point $-1 177.3800000000009902 30 122.3462179716599962 #
cur-twe-attrib $-1 $-1 $-1 $175 120 #
coedge $-1 $176 $275 $390 $391 reversed $280 $-1 #
loop $392 $-1 $279 $206 #
edge_name-twe-attrib $-1 $-1 $-1 $177 19 9216 #
vertex $-1 $391 $393 #
straight-curve $394 123.4311862550139978 27.37999999999999901 -180.0000000000009948 0.7071101717879509918 0 0.7071033905688870469 I I #
point $-1 180.0000000000009948 27.37999999999999901 -123.4317287525390014 #
cur-twe-attrib $-1 $-1 $-1 $180 122 #
coedge $-1 $287 $181 $395 $396 forward $288 $-1 #
coedge $-1 $181 $286 $185 $292 reversed $288 $-1 #
loop $397 $-1 $181 $361 #
edge_name-twe-attrib $-1 $-1 $-1 $182 23 4352 #
straight-curve $398 47.57266220801449919 27.37999999999999901 -255.8577965602659958 0.7071101717879499926 0 0.7071033905688870469 I I #
coedge $-1 $293 $185 $399 $400 forward $187 $-1 #
edge $401 $114 213.4311862550142109 $402 213.4314575050772191 $185 $189 forward 7 unknown #
coedge $-1 $186 $291 $403 $404 forward $187 $-1 #
coedge $-1 $405 $193 $186 $295 reversed $302 $-1 #
edge $406 $407 -45 $120 12.37999999999999901 $186 $408 forward 7 unknown #
loop_type-twe-attrib $-1 $-1 $-1 $187 0 #
face $409 $410 $187 $3 $-1 $411 reversed single #
cur-twe-attrib $-1 $412 $-1 $189 301 #
coedge $-1 $413 $200 $192 $300 reversed $264 $-1 #
edge $414 $304 0 $203 3.860899486504839384 $192 $415 forward 7 unknown #
coedge $-1 $193 $416 $417 $418 reversed $302 $-1 #
loop $419 $-1 $193 $420 #
edge_name-twe-attrib $-1 $-1 $-1 $194 56 8448 #
vertex $-1 $421 $422 #
straight-curve $423 -137.5735931288079996 27.37999999999999901 -165.8578643762699869 -0.7071067811865480168 0 0.7071067811865480168 I I #
face_name-twe-attrib $-1 $-1 $-1 $196 9 #
plane-surface $424 -180 27.37999999999999901 -123.431457505077006 -0.5000000000000006661 0.7071067811865465735 -0.5000000000000006661 -0.7071067811865480168 0 0.7071067811865480168 forward_v I I I I #
edge $425 $323 -126.1939810801614499 $311 -48.3644601469969686 $267 $426 forward 7 unknown #
coedge $-1 $200 $413 $383 $427 forward $264 $-1 #
edge_name-twe-attrib $-1 $-1 $-1 $201 15 8448 #
vertex $-1 $427 $428 #
straight-curve $429 -177.3800000000009902 30 -28.28427124746169952 9.210523801595739524e-16 0 -1 I I #
point $-1 -177.3799999999999955 30 -122.3462179716590015 #
cur-twe-attrib $-1 $-1 $-1 $204 139 #
face_name-twe-attrib $-1 $-1 $-1 $206 11 #
surf-twe-attrib $-1 $-1 $-1 $207 141 #
point $-1 180.0000000000009948 27.37999999999999901 123.431457505077006 #
cur-twe-attrib $-1 $430 $-1 $210 26 #
point $-1 122.3462179716599962 30 177.3800000000009902 #
cur-twe-attrib $-1 $-1 $-1 $213 148 #
cur-twe-attrib $-1 $431 $214 $76 147 #
edge_name-twe-attrib $-1 $-1 $-1 $216 11 8448 #
vertex $-1 $218 $432 #
straight-curve $433 2.77111666946439022e-13 30 177.3800000000009902 -1 0 0 I I #
coedge $-1 $217 $383 $434 $435 forward $165 $-1 #
edge_name-twe-attrib $-1 $-1 $-1 $218 14 8448 #
straight-curve $436 -123.431457505077006 27.37999999999999901 180.0000000000009948 0.2810846377148210062 0.6785983445458469987 -0.6785983445458479979 I I #
coedge $-1 $434 $437 $219 $329 reversed $438 $-1 #
edge $439 $221 -42.37999999999999545 $343 15 $219 $440 forward 7 unknown #
point $-1 -123.431457505075997 27.37999999999999901 180 #
cur-twe-attrib $-1 $441 $-1 $222 154 #
coedge $-1 $442 $224 $227 $338 forward $334 $-1 #
coedge $-1 $224 $442 $251 $369 forward $334 $-1 #
loop $443 $-1 $224 $377 #
edge_name-twe-attrib $-1 $-1 $-1 $225 52 8448 #
coedge $-1 $444 $226 $437 $445 forward $228 $-1 #
coedge $-1 $227 $403 $446 $447 forward $228 $-1 #
edge $448 $230 -123.4317287525380067 $449 123.431457505077006 $332 $450 forward 7 unknown #
loop_type-twe-attrib $-1 $-1 $-1 $228 0 #
point $-1 180 -30 123.4317287525380067 #
cur-twe-attrib $-1 $-1 $-1 $231 159 #
edge_name-twe-attrib $-1 $-1 $-1 $232 46 8704 #
vertex $-1 $445 $451 #
straight-curve $452 0 -30 180 1 0 0 I I #
face_name-twe-attrib $-1 $-1 $-1 $234 18 #
plane-surface $453 0 0 180 0 0 1 1 0 0 forward_v I I I I #
coedge $-1 $454 $237 $364 $455 forward $349 $-1 #
coedge $-1 $237 $454 $239 $354 reversed $349 $-1 #
loop $456 $-1 $237 $457 #
edge_name-twe-attrib $-1 $-1 $-1 $238 67 8704 #
vertex $-1 $238 $458 #
straight-curve $459 180.0735013389929975 14 123.3582281184280021 -0.7071101717879499926 0 0.7071033905688870469 I I #
coedge $-1 $271 $239 $460 $461 forward $241 $-1 #
edge $462 $243 -123.4317287525380067 $463 123.431457505077006 $239 $464 forward 7 unknown #
loop_type-twe-attrib $-1 $-1 $-1 $241 0 #
point $-1 180 14 123.4317287525380067 #
cur-twe-attrib $-1 $465 $-1 $244 251 #
edge_name-twe-attrib $-1 $-1 $-1 $245 51 8704 #
straight-curve $466 180 27.37999999999999901 -90.00000000000019895 0 0 1 I I #
face_name-twe-attrib $-1 $-1 $-1 $247 12 #
face $467 $468 $288 $3 $-1 $362 forward single #
plane-surface $469 -180 27.37999999999999901 -180 0 1 0 1 0 0 forward_v I I I I #
coedge $-1 $470 $249 $252 $370 reversed $365 $-1 #
coedge $-1 $249 $470 $347 $455 reversed $365 $-1 #
loop $471 $-1 $249 $472 #
edge_name-twe-attrib $-1 $-1 $-1 $250 65 8448 #
straight-curve $473 160 -15 143.4315369516189946 0 -1 0 I I #
coedge $-1 $252 $251 $474 $475 forward $253 $-1 #
edge $476 $477 -123.431457505077006 $256 123.4317287525380067 $333 $478 forward 7 unknown #
edge $479 $480 -143.4314575050769918 $255 143.4315369516189946 $252 $481 forward 7 unknown #
loop_type-twe-attrib $-1 $-1 $-1 $253 0 #
face $482 $472 $253 $3 $-1 $483 forward single #
point $-1 160 -14 143.4315369516189946 #
point $-1 180 -14 123.4317287525380067 #
cur-twe-attrib $-1 $-1 $-1 $257 173 #
face_name-twe-attrib $-1 $-1 $-1 $259 21 #
face $484 $420 $334 $3 $-1 $378 reversed single #
plane-surface $485 180 0 0 -1 0 0 0 0 1 forward_v I I I I #
surf-twe-attrib $-1 $-1 $-1 $260 175 #
cur-twe-attrib $-1 $-1 $262 $49 41 #
loop_type-twe-attrib $-1 $-1 $-1 $264 0 #
surf-twe-attrib $-1 $-1 $-1 $265 193 #
coedge $-1 $325 $267 $309 $427 reversed $165 $-1 #
cur-twe-attrib $-1 $-1 $-1 $270 198 #
edge_name-twe-attrib $-1 $-1 $-1 $272 50 8448 #
vertex $-1 $461 $486 #
cur-twe-attrib $-1 $-1 $-1 $274 200 #
edge_name-twe-attrib $-1 $-1 $-1 $276 20 9216 #
straight-curve $487 180.0000000000009948 27.37999999999999901 -123.4317287525390014 5.756571050805529524e-16 0 1 I I #
coedge $-1 $460 $395 $279 $391 forward $488 $-1 #
edge $489 $282 147.2792206957840619 $386 187.2792206135780759 $390 $490 reversed 7 unknown #
loop_type-twe-attrib $-1 $-1 $-1 $280 0 #
point $-1 151.7157288106670023 27.37999999999999901 -151.7157286944110126 #
cur-twe-attrib $-1 $491 $-1 $283 412 #
coedge $-1 $390 $399 $286 $396 reversed $488 $-1 #
edge $492 $282 -147.2792206957840619 $402 -107.2792206135792554 $286 $490 forward 7 unknown #
loop_type-twe-attrib $-1 $-1 $-1 $288 0 #
cur-twe-attrib $-1 $493 $-1 $290 190 #
coedge $-1 $395 $446 $291 $400 reversed $488 $-1 #
edge $494 $402 -42.37999999999999545 $495 15 $291 $496 forward 7 unknown #
edge_name-twe-attrib $-1 $-1 $-1 $292 59 8704 #
vertex $-1 $292 $497 #
coedge $-1 $337 $498 $293 $404 reversed $228 $-1 #
edge $499 $495 -123.431457505077006 $407 123.431457505077006 $403 $500 forward 7 unknown #
coedge $-1 $501 $294 $498 $502 reversed $302 $-1 #
edge_name-twe-attrib $-1 $-1 $-1 $295 57 8448 #
vertex $-1 $404 $503 #
straight-curve $504 -123.431457505077006 15 -180 0 1 0 I I #
face_name-twe-attrib $-1 $-1 $-1 $297 24 #
face $505 $372 $488 $3 $-1 $506 forward single #
plane-surface $507 0 0 -180 0 0 1 1 0 0 forward_v I I I I #
cur-twe-attrib $-1 $-1 $298 $189 128 #
coedge $-1 $309 $299 $508 $421 reversed $264 $-1 #
edge_name-twe-attrib $-1 $-1 $-1 $300 18 8448 #
straight-curve $509 -180 27.37999999999999901 -123.431457505077006 0.6785983445458479979 0.6785983445458469987 0.2810846377148210062 I I #
coedge $-1 $301 $510 $511 $512 reversed $302 $-1 #
coedge $-1 $513 $508 $301 $418 forward $514 $-1 #
edge $515 $304 -42.37999999999999545 $516 -29 $417 $517 forward 7 unknown #
loop_type-twe-attrib $-1 $-1 $-1 $302 0 #
face $518 $297 $302 $3 $-1 $519 forward single #
edge $520 $521 -213.431457505076196 $304 33.43145750507680702 $508 $522 forward 7 unknown #
point $-1 -180 27.37999999999999901 -123.431457505077006 #
cur-twe-attrib $-1 $-1 $-1 $305 221 #
surf-twe-attrib $-1 $-1 $-1 $307 223 #
edge_name-twe-attrib $-1 $-1 $-1 $308 13 8448 #
straight-curve $523 -211.5788377383690033 30 88.14738023329179839 -0.7071067811865480168 0 -0.7071067811865480168 I I #
edge $524 $521 9.586485332983091421e-13 $311 3.860899486504561384 $309 $525 forward 7 unknown #
point $-1 -177.3800000000009902 30 122.3462179716599962 #
cur-twe-attrib $-1 $-1 $-1 $312 228 #
cur-twe-attrib $-1 $526 $318 $210 93 #
cur-twe-attrib $-1 $-1 $321 $76 41 #
point $-1 -122.3462179716599962 30 177.3800000000009902 #
cur-twe-attrib $-1 $-1 $-1 $324 242 #
coedge $-1 $527 $328 $325 $435 reversed $438 $-1 #
edge $528 $521 67.27922061357880068 $221 147.2792206135790423 $434 $529 forward 7 unknown #
cur-twe-attrib $-1 $-1 $-1 $327 244 #
coedge $-1 $328 $530 $336 $445 reversed $438 $-1 #
loop $531 $-1 $532 $468 #
edge_name-twe-attrib $-1 $-1 $-1 $329 37 8448 #
straight-curve $533 -123.431457505075997 -15 180 0 -1 0 I I #
cur-twe-attrib $-1 $-1 $331 $222 43 #
coedge $-1 $333 $332 $534 $535 forward $334 $-1 #
loop_type-twe-attrib $-1 $-1 $-1 $334 0 #
coedge $-1 $498 $336 $536 $537 forward $228 $-1 #
edge $538 $343 -20.0000000000000675 $539 60.00000000000016342 $336 $540 forward 7 unknown #
coedge $-1 $399 $534 $337 $447 reversed $488 $-1 #
edge $541 $495 -19.99999999999935341 $449 59.99999999999944578 $337 $542 forward 7 unknown #
edge_name-twe-attrib $-1 $-1 $-1 $338 53 8704 #
vertex $-1 $338 $543 #
straight-curve $544 180 -30 0 0 0 -1 I I #
point $-1 -123.431457505075997 -30 180 #
cur-twe-attrib $-1 $-1 $-1 $344 258 #
surf-twe-attrib $-1 $-1 $-1 $346 260 #
coedge $-1 $348 $347 $545 $546 forward $349 $-1 #
edge $547 $351 -143.4315369516189946 $548 143.4314575050769918 $347 $549 forward 7 unknown #
loop_type-twe-attrib $-1 $-1 $-1 $349 0 #
face $550 $551 $349 $3 $-1 $552 forward single #
point $-1 160 14 143.4315369516189946 #
cur-twe-attrib $-1 $-1 $-1 $352 264 #
coedge $-1 $545 $390 $353 $461 reversed $488 $-1 #
edge $553 $463 -1 $386 12.37999999999999901 $353 $554 forward 7 unknown #
edge_name-twe-attrib $-1 $-1 $-1 $354 48 8704 #
vertex $-1 $354 $555 #
straight-curve $556 180 14 0 0 0 -1 I I #
cur-twe-attrib $-1 $-1 $357 $244 167 #
cur-twe-attrib $-1 $557 $-1 $359 271 #
face_name-twe-attrib $-1 $-1 $-1 $361 13 #
face $558 $559 $438 $3 $-1 $560 forward single #
surf-twe-attrib $-1 $561 $-1 $362 28 #
coedge $-1 $364 $363 $562 $563 forward $365 $-1 #
loop_type-twe-attrib $-1 $-1 $-1 $365 0 #
face $564 $457 $365 $3 $-1 $565 forward single #
cur-twe-attrib $-1 $-1 $-1 $367 274 #
coedge $-1 $534 $562 $368 $475 reversed $488 $-1 #
edge $566 $477 0.1040764008570397164 $480 28.38834764831891633 $368 $567 forward 7 unknown #
edge_name-twe-attrib $-1 $-1 $-1 $369 55 8704 #
vertex $-1 $475 $568 #
straight-curve $569 180 -14 0 0 0 1 I I #
edge_name-twe-attrib $-1 $-1 $-1 $370 64 4608 #
vertex $-1 $563 $570 #
straight-curve $571 160 -14 0 0 0 1 I I #
face_name-twe-attrib $-1 $-1 $-1 $372 26 #
plane-surface $572 170 -14 0 0 1 0 -1 0 0 forward_v I I I I #
face_name-twe-attrib $-1 $-1 $-1 $377 22 #
surf-twe-attrib $-1 $573 $-1 $378 407 #
point $-1 180 27.37999999999999901 -123.431457505077006 #
cur-twe-attrib $-1 $574 $-1 $389 271 #
loop $575 $-1 $390 $410 #
edge_name-twe-attrib $-1 $-1 $-1 $391 61 4608 #
straight-curve $576 47.57359312880780067 27.37999999999999901 -255.8578643762699869 -0.7071067811865480168 0 -0.7071067811865480168 I I #
cur-twe-attrib $-1 $577 $394 $283 300 #
edge_name-twe-attrib $-1 $-1 $-1 $396 24 8704 #
cur-twe-attrib $-1 $-1 $398 $290 206 #
edge_name-twe-attrib $-1 $-1 $-1 $400 60 8448 #
vertex $-1 $447 $578 #
straight-curve $579 123.431457505077006 -15 -180 0 -1 0 I I #
point $-1 123.431457505077006 27.37999999999999901 -180 #
coedge $-1 $403 $444 $405 $502 forward $228 $-1 #
edge_name-twe-attrib $-1 $-1 $-1 $404 43 8704 #
straight-curve $580 0 -30 -180 -1 0 0 I I #
coedge $-1 $581 $405 $582 $583 reversed $302 $-1 #
edge $584 $585 -59.99999999999944578 $407 19.99999999999935341 $498 $586 forward 7 unknown #
point $-1 -123.431457505077006 -30 -180 #
cur-twe-attrib $-1 $-1 $-1 $408 329 #
face_name-twe-attrib $-1 $-1 $-1 $410 25 #
plane-surface $587 123.431457505077006 30 -180 0.7071067811865475727 0 -0.7071067811865475727 0 1 0 forward_v I I I I #
surf-twe-attrib $-1 $-1 $-1 $411 331 #
coedge $-1 $417 $588 $413 $421 forward $514 $-1 #
cur-twe-attrib $-1 $-1 $-1 $415 334 #
coedge $-1 $416 $581 $589 $590 reversed $302 $-1 #
coedge $-1 $591 $592 $416 $512 forward $593 $-1 #
edge $594 $516 0.1040764008563262732 $595 28.38834764831891633 $511 $596 forward 7 unknown #
coedge $-1 $588 $417 $592 $597 forward $514 $-1 #
loop $598 $-1 $588 $599 #
edge_name-twe-attrib $-1 $-1 $-1 $418 35 8448 #
vertex $-1 $512 $600 #
straight-curve $601 -180 -15 -123.431457505077006 0 -1 0 I I #
face_name-twe-attrib $-1 $-1 $-1 $420 23 #
plane-surface $602 -123.431457505077006 -30 -180 -0.7071067811865475727 0 -0.7071067811865475727 0 1 0 forward_v I I I I #
edge_name-twe-attrib $-1 $-1 $-1 $421 34 8448 #
vertex $-1 $435 $603 #
straight-curve $604 -180 27.37999999999999901 -90.00000000000019895 0 0 -1 I I #
cur-twe-attrib $-1 $-1 $-1 $426 342 #
edge_name-twe-attrib $-1 $-1 $-1 $427 16 8448 #
straight-curve $605 -180.0000000000009948 27.37999999999999901 123.431457505077006 0.6785983445458479979 0.6785983445458469987 -0.281084637714820007 I I #
cur-twe-attrib $-1 $606 $430 $210 147 #
coedge $-1 $532 $434 $588 $607 reversed $438 $-1 #
edge_name-twe-attrib $-1 $-1 $-1 $435 25 8448 #
straight-curve $608 -227.5735931288079996 27.37999999999999901 75.85786437626930478 0.7071067811865480168 0 0.7071067811865480168 I I #
coedge $-1 $437 $609 $610 $611 reversed $438 $-1 #
loop_type-twe-attrib $-1 $-1 $-1 $438 0 #
coedge $-1 $612 $527 $613 $614 reversed $438 $-1 #
cur-twe-attrib $-1 $-1 $-1 $440 362 #
coedge $-1 $446 $474 $442 $535 reversed $488 $-1 #
edge $615 $449 -45 $477 -29 $442 $554 forward 7 unknown #
coedge $-1 $610 $582 $444 $537 reversed $616 $-1 #
edge $617 $539 -123.431457505075997 $585 123.431457505077006 $536 $618 forward 7 unknown #
edge_name-twe-attrib $-1 $-1 $-1 $445 41 8704 #
vertex $-1 $445 $619 #
straight-curve $620 -137.5735931288079996 -30 165.8578643762699869 -0.7071067811865480168 0 -0.7071067811865480168 I I #
edge_name-twe-attrib $-1 $-1 $-1 $447 44 8704 #
straight-curve $621 137.5735931288079996 -30 -165.8578643762699869 0.7071067811865480168 0 0.7071067811865480168 I I #
point $-1 180 -30 -123.431457505077006 #
cur-twe-attrib $-1 $-1 $-1 $450 371 #
coedge $-1 $562 $460 $454 $546 reversed $488 $-1 #
edge $622 $548 -28.38834764831891633 $463 -0.1040764008570397164 $454 $623 forward 7 unknown #
edge_name-twe-attrib $-1 $-1 $-1 $455 68 4608 #
vertex $-1 $455 $624 #
straight-curve $625 160 14 0 0 0 -1 I I #
face_name-twe-attrib $-1 $-1 $-1 $457 28 #
face $626 $627 $628 $3 $-1 $629 forward single #
plane-surface $630 170 14 0 0 -1 0 1 0 0 forward_v I I I I #
edge_name-twe-attrib $-1 $-1 $-1 $461 49 8448 #
straight-curve $631 180 15 -123.431457505077006 0 1 0 I I #
point $-1 180 14 -123.431457505077006 #
cur-twe-attrib $-1 $-1 $-1 $464 387 #
cur-twe-attrib $-1 $632 $466 $359 315 #
face_name-twe-attrib $-1 $-1 $-1 $468 14 #
face $633 $634 $593 $3 $-1 $635 forward single #
plane-surface $636 -123.431457505075997 30 180 -0.7071067811865475727 0 0.7071067811865475727 0 1 0 forward_v I I I I #
surf-twe-attrib $-1 $637 $469 $362 52 #
coedge $-1 $474 $545 $470 $563 reversed $488 $-1 #
edge $638 $480 -29 $548 -1 $470 $639 forward 7 unknown #
face_name-twe-attrib $-1 $-1 $-1 $472 27 #
plane-surface $640 160 0 0 1 0 0 0 1 0 forward_v I I I I #
edge_name-twe-attrib $-1 $-1 $-1 $475 63 8704 #
straight-curve $641 180.0735931288079996 -14 -123.3578643762700011 -0.7071067811865480168 0 -0.7071067811865480168 I I #
point $-1 180 -14 -123.431457505077006 #
cur-twe-attrib $-1 $-1 $-1 $478 399 #
point $-1 160 -14 -143.4314575050769918 #
cur-twe-attrib $-1 $-1 $-1 $481 400 #
surf-twe-attrib $-1 $642 $-1 $483 639 #
surf-twe-attrib $-1 $-1 $485 $378 283 #
cur-twe-attrib $-1 $643 $487 $389 315 #
loop_type-twe-attrib $-1 $-1 $-1 $488 0 #
cur-twe-attrib $-1 $644 $-1 $490 412 #
cur-twe-attrib $-1 $645 $491 $283 190 #
point $-1 123.431457505077006 -30 -180 #
cur-twe-attrib $-1 $-1 $-1 $496 451 #
cur-twe-attrib $-1 $-1 $-1 $500 453 #
coedge $-1 $510 $501 $646 $647 reversed $302 $-1 #
coedge $-1 $536 $648 $501 $583 forward $616 $-1 #
edge $649 $650 -1 $585 15 $582 $517 forward 7 unknown #
edge_name-twe-attrib $-1 $-1 $-1 $502 42 8704 #
vertex $-1 $537 $651 #
straight-curve $652 -137.5735931288079996 -30 -165.8578643762699869 0.7071067811865480168 0 -0.7071067811865480168 I I #
surf-twe-attrib $-1 $-1 $-1 $506 459 #
coedge $-1 $508 $513 $527 $607 forward $514 $-1 #
coedge $-1 $653 $654 $510 $590 forward $628 $-1 #
edge $655 $595 -29 $656 -1 $589 $657 forward 7 unknown #
coedge $-1 $613 $511 $654 $658 forward $593 $-1 #
coedge $-1 $511 $613 $513 $597 reversed $593 $-1 #
loop $659 $-1 $613 $559 #
edge_name-twe-attrib $-1 $-1 $-1 $512 27 8704 #
vertex $-1 $590 $660 #
straight-curve $661 -180.0735931288079996 14 -123.3578643762700011 0.7071067811865480168 0 -0.7071067811865480168 I I #
edge $662 $516 -123.431457505075997 $663 123.431457505075997 $513 $664 forward 7 unknown #
loop_type-twe-attrib $-1 $-1 $-1 $514 0 #
face $665 $234 $514 $3 $-1 $666 reversed single #
point $-1 -180 14 -123.431457505075997 #
cur-twe-attrib $-1 $667 $-1 $517 467 #
surf-twe-attrib $-1 $-1 $-1 $519 469 #
point $-1 -180 27.37999999999999901 123.431457505075997 #
cur-twe-attrib $-1 $-1 $-1 $522 470 #
cur-twe-attrib $-1 $-1 $-1 $525 476 #
cur-twe-attrib $-1 $-1 $526 $210 41 #
edge $668 $663 -1 $521 12.37999999999999901 $588 $669 forward 7 unknown #
cur-twe-attrib $-1 $-1 $-1 $529 483 #
coedge $-1 $530 $612 $670 $671 reversed $438 $-1 #
coedge $-1 $648 $536 $530 $611 forward $616 $-1 #
edge $672 $539 -45 $673 -29 $610 $669 forward 7 unknown #
coedge $-1 $609 $532 $674 $675 reversed $438 $-1 #
coedge $-1 $592 $591 $532 $614 forward $593 $-1 #
edge $676 $677 -28.38834764831891633 $663 -0.1040764008570296689 $613 $678 forward 7 unknown #
edge_name-twe-attrib $-1 $-1 $-1 $535 54 8448 #
loop $679 $-1 $610 $634 #
edge_name-twe-attrib $-1 $-1 $-1 $537 32 8704 #
straight-curve $680 -180 -30 0 0 0 -1 I I #
point $-1 -180 -30 123.431457505075997 #
cur-twe-attrib $-1 $-1 $-1 $540 492 #
cur-twe-attrib $-1 $-1 $-1 $542 494 #
edge_name-twe-attrib $-1 $-1 $-1 $546 69 8704 #
straight-curve $681 180.0735931288079996 14 -123.3578643762700011 0.7071067811865480168 0 0.7071067811865480168 I I #
point $-1 160 14 -143.4314575050769918 #
cur-twe-attrib $-1 $-1 $-1 $549 502 #
face_name-twe-attrib $-1 $-1 $-1 $551 29 #
face $682 $-1 $683 $3 $-1 $684 forward single #
loop $685 $-1 $674 $551 #
plane-surface $686 -160 0 0 -1 0 0 0 -1 0 forward_v I I I I #
surf-twe-attrib $-1 $687 $-1 $552 421 #
cur-twe-attrib $-1 $688 $-1 $554 596 #
cur-twe-attrib $-1 $-1 $557 $359 319 #
face_name-twe-attrib $-1 $-1 $-1 $559 15 #
face $689 $599 $616 $3 $-1 $666 reversed single #
plane-surface $690 -170 14 0 0 -1 0 1 0 0 forward_v I I I I #
surf-twe-attrib $-1 $-1 $-1 $560 54 #
surf-twe-attrib $-1 $691 $561 $362 101 #
edge_name-twe-attrib $-1 $-1 $-1 $563 66 8448 #
straight-curve $692 160 15 -143.4314575050769918 0 1 0 I I #
surf-twe-attrib $-1 $-1 $-1 $565 515 #
cur-twe-attrib $-1 $-1 $-1 $567 518 #
surf-twe-attrib $-1 $-1 $572 $483 402 #
cur-twe-attrib $-1 $-1 $574 $389 319 #
cur-twe-attrib $-1 $693 $576 $490 300 #
cur-twe-attrib $-1 $-1 $577 $283 206 #
coedge $-1 $694 $695 $581 $647 forward $683 $-1 #
edge $696 $656 -28.38834764831891633 $650 -0.1040764008563262732 $646 $697 forward 7 unknown #
coedge $-1 $582 $610 $694 $698 forward $616 $-1 #
edge_name-twe-attrib $-1 $-1 $-1 $583 31 8448 #
vertex $-1 $698 $699 #
point $-1 -180 -30 -123.431457505077006 #
cur-twe-attrib $-1 $-1 $-1 $586 572 #
coedge $-1 $674 $589 $695 $700 reversed $628 $-1 #
coedge $-1 $589 $674 $591 $658 reversed $628 $-1 #
edge_name-twe-attrib $-1 $-1 $-1 $590 71 8448 #
vertex $-1 $700 $701 #
straight-curve $702 -160 -15 -143.4314575050769918 0 -1 0 I I #
edge $703 $595 -143.4314575050769918 $677 143.431457505075997 $591 $704 forward 7 unknown #
loop_type-twe-attrib $-1 $-1 $-1 $593 0 #
point $-1 -160 14 -143.4314575050769918 #
cur-twe-attrib $-1 $-1 $-1 $596 580 #
edge_name-twe-attrib $-1 $-1 $-1 $597 36 8704 #
vertex $-1 $597 $705 #
straight-curve $706 -180 14 0 0 0 1 I I #
face_name-twe-attrib $-1 $-1 $-1 $599 17 #
plane-surface $707 -180 0 0 1 0 0 0 0 -1 forward_v I I I I #
cur-twe-attrib $-1 $-1 $601 $517 659 #
edge_name-twe-attrib $-1 $-1 $-1 $607 33 8448 #
straight-curve $708 -180 15 123.431457505075997 0 1 0 I I #
coedge $-1 $695 $694 $609 $671 forward $683 $-1 #
edge $709 $673 0.1040764008570296689 $710 28.38834764831891633 $670 $711 forward 7 unknown #
edge_name-twe-attrib $-1 $-1 $-1 $611 29 8448 #
vertex $-1 $611 $712 #
coedge $-1 $654 $653 $612 $675 forward $628 $-1 #
edge $713 $710 -29 $677 -1 $674 $714 forward 7 unknown #
edge_name-twe-attrib $-1 $-1 $-1 $614 26 8704 #
vertex $-1 $658 $715 #
straight-curve $716 -180.0735931288079996 14 123.3578643762690064 -0.7071067811865480168 0 -0.7071067811865480168 I I #
loop_type-twe-attrib $-1 $-1 $-1 $616 0 #
cur-twe-attrib $-1 $-1 $-1 $618 597 #
cur-twe-attrib $-1 $-1 $-1 $623 606 #
face_name-twe-attrib $-1 $-1 $-1 $627 30 #
loop $717 $-1 $670 $627 #
plane-surface $718 -170 -14 0 0 1 0 -1 0 0 forward_v I I I I #
loop_type-twe-attrib $-1 $-1 $-1 $628 0 #
surf-twe-attrib $-1 $-1 $-1 $629 542 #
surf-twe-attrib $-1 $-1 $630 $552 105 #
cur-twe-attrib $-1 $-1 $631 $554 507 #
face_name-twe-attrib $-1 $-1 $-1 $634 16 #
surf-twe-attrib $-1 $719 $-1 $635 421 #
surf-twe-attrib $-1 $-1 $637 $362 4 #
cur-twe-attrib $-1 $-1 $-1 $639 616 #
cur-twe-attrib $-1 $-1 $644 $490 206 #
coedge $-1 $670 $646 $648 $698 reversed $683 $-1 #
coedge $-1 $646 $670 $653 $700 forward $683 $-1 #
edge_name-twe-attrib $-1 $-1 $-1 $647 74 8704 #
straight-curve $720 -180.0735931288079996 -14 -123.3578643762700011 -0.7071067811865480168 0 0.7071067811865480168 I I #
edge $721 $673 -123.431457505075997 $650 123.431457505075997 $648 $722 forward 7 unknown #
point $-1 -180 -14 -123.431457505075997 #
edge $723 $710 -143.431457505075997 $656 143.4314575050769918 $695 $724 forward 7 unknown #
point $-1 -160 -14 -143.4314575050769918 #
cur-twe-attrib $-1 $-1 $-1 $657 664 #
edge_name-twe-attrib $-1 $-1 $-1 $658 28 4608 #
straight-curve $725 -160 14 0 0 0 1 I I #
point $-1 -180 14 123.431457505075997 #
cur-twe-attrib $-1 $-1 $-1 $664 538 #
surf-twe-attrib $-1 $726 $-1 $666 290 #
cur-twe-attrib $-1 $727 $-1 $669 427 #
edge_name-twe-attrib $-1 $-1 $-1 $671 72 8704 #
vertex $-1 $671 $728 #
straight-curve $729 -180.0735931288079996 -14 123.3578643762690064 0.7071067811865480168 0 0.7071067811865480168 I I #
point $-1 -180 -14 123.431457505075997 #
edge_name-twe-attrib $-1 $-1 $-1 $675 70 8448 #
straight-curve $730 -160 15 143.4314575050769918 0 1 0 I I #
point $-1 -160 14 143.431457505075997 #
cur-twe-attrib $-1 $-1 $-1 $678 298 #
loop_type-twe-attrib $-1 $-1 $-1 $683 0 #
surf-twe-attrib $-1 $731 $-1 $684 639 #
surf-twe-attrib $-1 $-1 $690 $635 105 #
cur-twe-attrib $-1 $-1 $-1 $697 712 #
edge_name-twe-attrib $-1 $-1 $-1 $698 30 8704 #
straight-curve $732 -180 -14 0 0 0 -1 I I #
edge_name-twe-attrib $-1 $-1 $-1 $700 73 4608 #
straight-curve $733 -160 -14 0 0 0 -1 I I #
cur-twe-attrib $-1 $-1 $-1 $704 540 #
surf-twe-attrib $-1 $-1 $707 $666 182 #
cur-twe-attrib $-1 $-1 $708 $669 534 #
point $-1 -160 -14 143.431457505075997 #
cur-twe-attrib $-1 $-1 $-1 $711 545 #
cur-twe-attrib $-1 $-1 $-1 $714 424 #
surf-twe-attrib $-1 $-1 $718 $684 402 #
cur-twe-attrib $-1 $-1 $-1 $722 629 #
cur-twe-attrib $-1 $-1 $-1 $724 646 #
End-of-ACIS-data 