104 734 0 0                             
body $-1 $1 $-1 $2 #
lump $-1 $-1 $3 $0 #
transform $-1 1 0 0 0 1 0 0 0 1 0 0 0 1 0 0 0 #
shell $-1 $-1 $-1 $4 $1 #
face $5 $6 $7 $3 $-1 $8 0 #
face_name-twe-attrib $-1 $-1 $-1 $4 1 #
face $9 $10 $11 $3 $-1 $12 0 #
loop $13 $-1 $14 $4 #
plane-surface $15 -3.39062578653682e-05 27.38 -3.3905932570022e-05 0 -1 0 0 0 -1 0 #
face_name-twe-attrib $-1 $-1 $-1 $6 2 #
face $16 $17 $18 $3 $-1 $19 0 #
loop $20 $-1 $21 $6 #
plane-surface $22 -123.431457505077 27.38 -180 -2.44231162297892e-16 0.707106781186547 -0.707106781186548 -1 0 3.45395022075823e-16 0 #
loop_type-twe-attrib $-1 $-1 $-1 $7 0 #
coedge $-1 $23 $24 $25 $26 1 $7 $-1 #
surf-twe-attrib $-1 $27 $-1 $8 28 #
face_name-twe-attrib $-1 $-1 $-1 $10 3 #
face $29 $30 $31 $3 $-1 $32 0 #
loop $33 $-1 $34 $10 #
plane-surface $35 123.431186255014 27.38 -180.000000000001 0.49999760247126 0.707106781186547 -0.500002397517245 -0.707110171787951 0 -0.707103390568887 0 #
loop_type-twe-attrib $-1 $-1 $-1 $11 0 #
coedge $-1 $36 $37 $38 $39 0 $11 $-1 #
surf-twe-attrib $-1 $-1 $-1 $12 6 #
coedge $-1 $24 $14 $40 $41 0 $7 $-1 #
coedge $-1 $14 $23 $42 $43 0 $7 $-1 #
coedge $-1 $44 $45 $14 $26 0 $46 $-1 #
edge $47 $48 $49 $25 $50 1 #
surf-twe-attrib $-1 $51 $15 $8 52 #
face $53 $54 $55 $3 $-1 $56 0 #
face_name-twe-attrib $-1 $-1 $-1 $17 4 #
face $57 $58 $59 $3 $-1 $60 0 #
loop $61 $-1 $62 $17 #
plane-surface $63 180.000000000001 27.38 -123.431728752539 0.707106781186548 0.707106781186547 -4.07051042640676e-16 -5.75657105080553e-16 0 -1 0 #
loop_type-twe-attrib $-1 $-1 $-1 $18 0 #
coedge $-1 $64 $65 $66 $67 0 $18 $-1 #
surf-twe-attrib $-1 $-1 $-1 $19 10 #
coedge $-1 $68 $21 $65 $69 1 $11 $-1 #
coedge $-1 $21 $68 $70 $71 0 $11 $-1 #
coedge $-1 $72 $66 $21 $39 1 $73 $-1 #
edge $74 $75 $76 $21 $77 0 #
coedge $-1 $78 $79 $23 $41 1 $59 $-1 #
edge $80 $48 $81 $23 $82 0 #
coedge $-1 $83 $84 $24 $43 1 $85 $-1 #
edge $86 $81 $49 $24 $87 0 #
coedge $-1 $88 $25 $89 $90 1 $46 $-1 #
coedge $-1 $25 $91 $92 $93 1 $46 $-1 #
loop $94 $-1 $95 $96 #
edge_name-twe-attrib $-1 $-1 $-1 $26 40 4608 #
vertex $-1 $26 $97 #
vertex $-1 $26 $98 #
straight-curve $99 137.572662203876 27.38 165.858659668543 0.70711017178795 0 -0.707103390568887 #
surf-twe-attrib $-1 $100 $27 $8 101 #
face $102 $28 $103 $3 $-1 $56 0 #
face_name-twe-attrib $-1 $-1 $-1 $28 13 #
face $104 $105 $106 $3 $-1 $107 0 #
loop $108 $-1 $109 $28 #
plane-surface $110 -180 27.38 -180 0 1 0 1 0 0 0 #
face_name-twe-attrib $-1 $-1 $-1 $30 5 #
face $111 $112 $85 $3 $-1 $113 0 #
loop $114 $-1 $115 $30 #
plane-surface $116 180.000000000001 27.38 123.431457505077 0.500000000000001 0.707106781186547 0.500000000000001 0.707106781186548 0 -0.707106781186548 0 #
loop_type-twe-attrib $-1 $-1 $-1 $31 0 #
coedge $-1 $117 $118 $119 $120 0 $31 $-1 #
surf-twe-attrib $-1 $-1 $-1 $32 17 #
coedge $-1 $121 $34 $118 $122 1 $18 $-1 #
coedge $-1 $34 $123 $36 $69 0 $18 $-1 #
coedge $-1 $38 $119 $34 $67 1 $73 $-1 #
edge $124 $76 $125 $34 $126 0 #
coedge $-1 $37 $36 $127 $128 1 $11 $-1 #
edge $129 $130 $76 $65 $131 0 #
coedge $-1 $132 $133 $37 $71 1 $134 $-1 #
edge $135 $136 $75 $37 $137 0 #
coedge $-1 $138 $38 $133 $139 1 $73 $-1 #
loop $140 $-1 $38 $141 #
edge_name-twe-attrib $-1 $-1 $-1 $39 3 8448 #
vertex $-1 $71 $142 #
vertex $-1 $69 $143 #
straight-curve $144 -123.431457505077 30 -177.38 1 0 -3.45395022075823e-16 #
coedge $-1 $145 $40 $146 $147 1 $59 $-1 #
coedge $-1 $40 $115 $83 $148 1 $59 $-1 #
edge_name-twe-attrib $-1 $-1 $-1 $41 1 9216 #
vertex $-1 $41 $149 #
straight-curve $150 180.000000000001 27.38 123.431457505077 -0.707106781186548 0 0.707106781186548 #
coedge $-1 $151 $42 $79 $148 0 $85 $-1 #
coedge $-1 $42 $152 $153 $154 1 $85 $-1 #
loop $155 $-1 $151 $58 #
edge_name-twe-attrib $-1 $-1 $-1 $43 2 9216 #
straight-curve $156 123.431457505077 27.38 180.000000000001 -1 0 0 #
coedge $-1 $157 $44 $158 $159 1 $46 $-1 #
coedge $-1 $153 $160 $44 $90 0 $161 $-1 #
edge $162 $163 $49 $89 $164 0 #
coedge $-1 $45 $165 $166 $167 1 $46 $-1 #
coedge $-1 $168 $146 $45 $93 0 $103 $-1 #
edge $169 $48 $170 $92 $50 0 #
loop_type-twe-attrib $-1 $-1 $-1 $46 0 #
coedge $-1 $171 $157 $172 $173 1 $46 $-1 #
face $174 $175 $46 $3 $-1 $176 0 #
point $-1 151.715728755245 27.38 151.715728749833 #
point $-1 123.431186255013 27.38 180 #
cur-twe-attrib $-1 $177 $-1 $50 26 #
surf-twe-attrib $-1 $-1 $51 $8 4 #
face $178 $52 $179 $3 $-1 $8 0 #
face_name-twe-attrib $-1 $-1 $-1 $52 12 #
loop $180 $-1 $146 $52 #
face_name-twe-attrib $-1 $-1 $-1 $54 14 #
face $181 $182 $183 $3 $-1 $184 0 #
loop $185 $-1 $186 $54 #
plane-surface $187 -123.431457505076 30 180 -0.707106781186548 0 0.707106781186548 0 1 0 0 #
loop_type-twe-attrib $-1 $-1 $-1 $55 0 #
coedge $-1 $188 $189 $123 $190 0 $55 $-1 #
surf-twe-attrib $-1 $191 $-1 $56 28 #
face_name-twe-attrib $-1 $-1 $-1 $58 6 #
face $192 $193 $194 $3 $-1 $195 0 #
plane-surface $196 123.431457505077 27.38 180.000000000001 0 0.707106781186547 0.707106781186548 1 0 0 0 #
loop_type-twe-attrib $-1 $-1 $-1 $59 0 #
coedge $-1 $79 $145 $197 $198 0 $59 $-1 #
surf-twe-attrib $-1 $-1 $-1 $60 30 #
coedge $-1 $199 $62 $145 $200 1 $31 $-1 #
coedge $-1 $62 $201 $64 $122 0 $31 $-1 #
coedge $-1 $66 $197 $62 $120 1 $73 $-1 #
edge $202 $125 $203 $62 $204 0 #
coedge $-1 $123 $64 $205 $206 1 $18 $-1 #
edge $207 $208 $125 $118 $209 0 #
coedge $-1 $65 $121 $109 $190 1 $18 $-1 #
edge_name-twe-attrib $-1 $-1 $-1 $67 5 8448 #
vertex $-1 $122 $210 #
straight-curve $211 59.8623225728362 30 -239.863032287101 0.707110171787951 0 0.707103390568887 #
coedge $-1 $212 $213 $68 $128 0 $214 $-1 #
edge $215 $136 $130 $127 $216 0 #
edge_name-twe-attrib $-1 $-1 $-1 $69 6 8448 #
vertex $-1 $128 $217 #
straight-curve $218 123.431186255014 27.38 -180.000000000001 -0.281082882216615 0.678598708120197 0.678598708120198 #
coedge $-1 $219 $70 $220 $221 1 $134 $-1 #
coedge $-1 $70 $219 $72 $139 0 $134 $-1 #
loop $222 $-1 $133 $223 #
edge_name-twe-attrib $-1 $-1 $-1 $71 4 8448 #
vertex $-1 $221 $224 #
straight-curve $225 -123.431457505077 27.38 -180 0.281084637714821 0.678598344545847 0.678598344545848 #
coedge $-1 $226 $72 $227 $228 1 $73 $-1 #
edge $229 $230 $75 $133 $231 0 #
loop_type-twe-attrib $-1 $-1 $-1 $73 0 #
face $232 $101 $73 $3 $-1 $233 1 #
point $-1 -122.346217971659 30 -177.38 #
point $-1 122.345954080836 30 -177.380000000001 #
cur-twe-attrib $-1 $-1 $-1 $77 39 #
coedge $-1 $115 $78 $117 $200 0 $59 $-1 #
coedge $-1 $92 $168 $78 $147 0 $103 $-1 #
edge $234 $235 $48 $146 $236 0 #
edge $237 $81 $238 $83 $239 0 #
point $-1 123.431457505077 27.38 180.000000000001 #
cur-twe-attrib $-1 $240 $-1 $82 26 #
coedge $-1 $152 $83 $241 $242 0 $85 $-1 #
coedge $-1 $84 $151 $243 $244 1 $85 $-1 #
coedge $-1 $245 $89 $84 $154 0 $161 $-1 #
edge $246 $49 $247 $153 $248 0 #
loop_type-twe-attrib $-1 $-1 $-1 $85 0 #
cur-twe-attrib $-1 $249 $-1 $87 154 #
coedge $-1 $95 $88 $250 $251 1 $46 $-1 #
coedge $-1 $252 $253 $88 $159 0 $254 $-1 #
edge $255 $256 $163 $158 $257 0 #
coedge $-1 $89 $245 $252 $258 0 $161 $-1 #
loop $259 $-1 $245 $260 #
edge_name-twe-attrib $-1 $-1 $-1 $90 38 8448 #
vertex $-1 $258 $261 #
straight-curve $262 123.431186255013 15 180 0 1 0 #
coedge $-1 $91 $171 $263 $264 1 $46 $-1 #
coedge $-1 $265 $266 $91 $167 0 $267 $-1 #
edge $268 $170 $269 $166 $270 0 #
coedge $-1 $146 $92 $266 $271 1 $103 $-1 #
edge_name-twe-attrib $-1 $-1 $-1 $93 22 8704 #
vertex $-1 $271 $272 #
coedge $-1 $165 $95 $273 $274 1 $46 $-1 #
coedge $-1 $275 $276 $95 $173 0 $277 $-1 #
edge $278 $279 $280 $172 $281 0 #
face_name-twe-attrib $-1 $-1 $-1 $96 19 #
face $282 $283 $254 $3 $-1 $284 1 #
plane-surface $285 123.431186255013 -30 180 0.707103390568887 0 0.70711017178795 0 1 0 0 #
cur-twe-attrib $-1 $286 $99 $50 93 #
face_name-twe-attrib $-1 $-1 $-1 $101 11 #
loop $287 $-1 $288 $101 #
loop_type-twe-attrib $-1 $-1 $-1 $103 0 #
face_name-twe-attrib $-1 $-1 $-1 $105 15 #
face $289 $290 $291 $3 $-1 $292 1 #
loop $293 $-1 $294 $105 #
plane-surface $295 -170 14 0 0 -1 0 1 0 0 0 #
loop_type-twe-attrib $-1 $-1 $-1 $106 0 #
coedge $-1 $296 $297 $294 $298 1 $106 $-1 #
surf-twe-attrib $-1 $-1 $-1 $107 54 #
coedge $-1 $189 $109 $299 $300 0 $55 $-1 #
coedge $-1 $109 $188 $212 $301 1 $55 $-1 #
edge $302 $130 $303 $109 $304 0 #
surf-twe-attrib $-1 $305 $110 $56 52 #
face_name-twe-attrib $-1 $-1 $-1 $112 7 #
face $306 $223 $307 $3 $-1 $308 0 #
loop $309 $-1 $310 $112 #
plane-surface $311 -123.431457505077 27.38 180.000000000001 -0.500000000000001 0.707106781186547 0.500000000000001 0.707106781186548 0 0.707106781186548 0 #
surf-twe-attrib $-1 $-1 $-1 $113 58 #
coedge $-1 $119 $241 $115 $198 1 $73 $-1 #
edge $312 $203 $238 $115 $313 0 #
coedge $-1 $201 $117 $314 $315 1 $31 $-1 #
edge $316 $235 $203 $145 $317 0 #
coedge $-1 $118 $199 $318 $319 1 $31 $-1 #
edge_name-twe-attrib $-1 $-1 $-1 $120 7 8448 #
vertex $-1 $200 $320 #
straight-curve $321 177.380000000001 30 -151.71586437627 5.75657105080553e-16 0 1 #
coedge $-1 $318 $288 $121 $206 0 $179 $-1 #
edge $322 $303 $208 $205 $323 0 #
edge_name-twe-attrib $-1 $-1 $-1 $122 8 8448 #
vertex $-1 $206 $324 #
straight-curve $325 180.000000000001 27.38 -123.431728752539 -0.678597980968895 0.678597980968894 0.281086393213691 #
point $-1 177.380000000001 30 -122.346481859867 #
cur-twe-attrib $-1 $-1 $-1 $126 67 #
coedge $-1 $326 $127 $189 $301 0 $214 $-1 #
coedge $-1 $127 $327 $328 $329 0 $214 $-1 #
loop $330 $-1 $213 $331 #
edge_name-twe-attrib $-1 $-1 $-1 $128 58 8448 #
straight-curve $332 -90.0000000000002 27.38 -180 1 0 0 #
point $-1 123.431186255014 27.38 -180.000000000001 #
cur-twe-attrib $-1 $-1 $-1 $131 69 #
coedge $-1 $133 $132 $333 $334 0 $134 $-1 #
coedge $-1 $328 $335 $132 $221 0 $336 $-1 #
edge $337 $338 $136 $220 $339 1 #
loop_type-twe-attrib $-1 $-1 $-1 $134 0 #
face $340 $141 $134 $3 $-1 $341 0 #
point $-1 -123.431457505076 27.38 -180 #
cur-twe-attrib $-1 $-1 $-1 $137 71 #
coedge $-1 $241 $138 $310 $342 1 $73 $-1 #
coedge $-1 $333 $343 $138 $228 0 $307 $-1 #
edge $344 $345 $230 $227 $346 0 #
edge_name-twe-attrib $-1 $-1 $-1 $139 17 8448 #
vertex $-1 $334 $347 #
straight-curve $348 -149.86310898583 30 -149.86310898583 0.707106781186548 0 -0.707106781186548 #
face_name-twe-attrib $-1 $-1 $-1 $141 10 #
plane-surface $349 -123.431457505077 30 -180 0 -1 0 0 0 -1 0 #
edge_name-twe-attrib $-1 $-1 $-1 $147 21 4352 #
vertex $-1 $315 $350 #
straight-curve $351 165.85786437627 27.38 137.573593128808 -0.707106781186548 0 0.707106781186548 #
edge_name-twe-attrib $-1 $-1 $-1 $148 12 8448 #
vertex $-1 $148 $352 #
straight-curve $353 123.431457505077 27.38 180.000000000001 -0.281084637714821 0.678598344545847 -0.678598344545848 #
cur-twe-attrib $-1 $354 $150 $82 93 #
coedge $-1 $197 $226 $151 $242 1 $73 $-1 #
edge $355 $238 $356 $151 $357 0 #
coedge $-1 $310 $358 $152 $244 0 $194 $-1 #
edge $359 $247 $356 $243 $360 0 #
coedge $-1 $160 $153 $361 $362 0 $161 $-1 #
edge_name-twe-attrib $-1 $-1 $-1 $154 39 8448 #
vertex $-1 $154 $363 #
straight-curve $364 -90.0000000000002 27.38 180 -1 0 0 #
cur-twe-attrib $-1 $-1 $156 $87 43 #
coedge $-1 $365 $366 $157 $251 0 $367 $-1 #
edge $368 $280 $256 $250 $270 0 #
coedge $-1 $369 $158 $160 $258 1 $254 $-1 #
coedge $-1 $158 $370 $365 $371 1 $254 $-1 #
loop $372 $-1 $369 $175 #
edge_name-twe-attrib $-1 $-1 $-1 $159 45 8704 #
vertex $-1 $159 $373 #
straight-curve $374 137.573093760084 -30 165.858228116473 -0.70711017178795 0 0.707103390568887 #
edge $375 $376 $163 $252 $377 0 #
loop_type-twe-attrib $-1 $-1 $-1 $161 0 #
face $378 $96 $161 $3 $-1 $379 0 #
point $-1 123.431186255013 -30 180 #
cur-twe-attrib $-1 $-1 $-1 $164 90 #
coedge $-1 $380 $381 $165 $264 0 $382 $-1 #
edge $383 $269 $384 $263 $385 0 #
coedge $-1 $386 $166 $381 $387 0 $267 $-1 #
coedge $-1 $166 $314 $168 $271 0 $267 $-1 #
loop $388 $-1 $166 $283 #
edge_name-twe-attrib $-1 $-1 $-1 $167 47 8448 #
vertex $-1 $167 $389 #
straight-curve $390 180 -15 123.431728752538 0 -1 0 #
edge $391 $235 $170 $266 $392 0 #
point $-1 180 27.38 123.431728752538 #
coedge $-1 $393 $394 $171 $274 0 $395 $-1 #
edge $396 $384 $279 $273 $397 0 #
coedge $-1 $398 $172 $366 $399 1 $277 $-1 #
coedge $-1 $172 $398 $393 $400 0 $277 $-1 #
loop $401 $-1 $172 $402 #
edge_name-twe-attrib $-1 $-1 $-1 $173 62 8704 #
vertex $-1 $400 $403 #
vertex $-1 $399 $404 #
straight-curve $405 180.073501338993 -14 123.358228118428 0.70711017178795 0 -0.707103390568887 #
face_name-twe-attrib $-1 $-1 $-1 $175 20 #
face $406 $407 $267 $3 $-1 $408 1 #
plane-surface $409 0 -30 0 0 1 0 0 0 1 0 #
surf-twe-attrib $-1 $-1 $-1 $176 96 #
cur-twe-attrib $-1 $410 $177 $50 147 #
loop_type-twe-attrib $-1 $-1 $-1 $179 0 #
coedge $-1 $205 $318 $411 $412 1 $179 $-1 #
face_name-twe-attrib $-1 $-1 $-1 $182 16 #
face $413 $260 $414 $3 $-1 $292 1 #
loop $415 $-1 $416 $182 #
plane-surface $417 -180 0 0 1 0 0 0 0 -1 0 #
loop_type-twe-attrib $-1 $-1 $-1 $183 0 #
coedge $-1 $418 $419 $186 $298 0 $183 $-1 #
surf-twe-attrib $-1 $420 $-1 $184 421 #
coedge $-1 $422 $186 $423 $424 1 $106 $-1 #
coedge $-1 $186 $425 $426 $427 1 $106 $-1 #
edge $428 $429 $430 $294 $431 0 #
coedge $-1 $411 $432 $188 $300 1 $433 $-1 #
edge $434 $303 $435 $188 $436 0 #
edge $437 $130 $435 $212 $216 0 #
edge_name-twe-attrib $-1 $-1 $-1 $190 23 4352 #
vertex $-1 $412 $438 #
straight-curve $439 47.5726622080145 27.38 -255.857796560266 0.70711017178795 0 0.707103390568887 #
surf-twe-attrib $-1 $440 $191 $56 101 #
face_name-twe-attrib $-1 $-1 $-1 $193 8 #
loop $441 $-1 $227 $193 #
plane-surface $442 -180.000000000001 27.38 123.431457505077 -0.707106781186548 0.707106781186547 -6.51282383838845e-16 -9.21052380159574e-16 0 1 0 #
loop_type-twe-attrib $-1 $-1 $-1 $194 0 #
coedge $-1 $443 $243 $226 $342 0 $194 $-1 #
surf-twe-attrib $-1 $-1 $-1 $195 112 #
edge_name-twe-attrib $-1 $-1 $-1 $198 9 8448 #
straight-curve $444 178.147380233292 30 121.578837738368 -0.707106781186548 0 0.707106781186548 #
coedge $-1 $266 $386 $199 $315 0 $267 $-1 #
edge $445 $446 $235 $314 $392 0 #
edge_name-twe-attrib $-1 $-1 $-1 $200 10 8448 #
straight-curve $447 180.000000000001 27.38 123.431457505077 -0.678598344545848 0.678598344545847 -0.281084637714821 #
coedge $-1 $288 $205 $201 $319 0 $179 $-1 #
edge $448 $208 $446 $318 $449 0 #
point $-1 177.380000000001 30 122.34621797166 #
cur-twe-attrib $-1 $-1 $-1 $204 120 #
edge_name-twe-attrib $-1 $-1 $-1 $206 19 9216 #
straight-curve $450 123.431186255014 27.38 -180.000000000001 0.707110171787951 0 0.707103390568887 #
point $-1 180.000000000001 27.38 -123.431728752539 #
cur-twe-attrib $-1 $-1 $-1 $209 122 #
coedge $-1 $327 $212 $432 $451 0 $214 $-1 #
coedge $-1 $213 $326 $452 $453 0 $214 $-1 #
coedge $-1 $454 $220 $213 $329 1 $336 $-1 #
edge $455 $456 $136 $213 $457 0 #
loop_type-twe-attrib $-1 $-1 $-1 $214 0 #
face $458 $459 $214 $3 $-1 $460 1 #
cur-twe-attrib $-1 $461 $-1 $216 301 #
coedge $-1 $462 $227 $219 $334 1 $307 $-1 #
edge $463 $338 $230 $219 $464 0 #
coedge $-1 $220 $465 $466 $467 1 $336 $-1 #
loop $468 $-1 $220 $469 #
edge_name-twe-attrib $-1 $-1 $-1 $221 56 8448 #
vertex $-1 $470 $471 #
straight-curve $472 -137.573593128808 27.38 -165.85786437627 -0.707106781186548 0 0.707106781186548 #
face_name-twe-attrib $-1 $-1 $-1 $223 9 #
plane-surface $473 -180 27.38 -123.431457505077 -0.500000000000001 0.707106781186547 -0.500000000000001 -0.707106781186548 0 0.707106781186548 0 #
edge $474 $356 $345 $310 $475 0 #
coedge $-1 $227 $462 $443 $476 0 $307 $-1 #
edge_name-twe-attrib $-1 $-1 $-1 $228 15 8448 #
vertex $-1 $476 $477 #
straight-curve $478 -177.380000000001 30 -28.2842712474617 9.21052380159574e-16 0 -1 #
point $-1 -177.38 30 -122.346217971659 #
cur-twe-attrib $-1 $-1 $-1 $231 139 #
surf-twe-attrib $-1 $-1 $-1 $233 141 #
point $-1 180.000000000001 27.38 123.431457505077 #
cur-twe-attrib $-1 $479 $-1 $236 26 #
point $-1 122.34621797166 30 177.380000000001 #
cur-twe-attrib $-1 $-1 $-1 $239 148 #
cur-twe-attrib $-1 $480 $240 $82 147 #
edge_name-twe-attrib $-1 $-1 $-1 $242 11 8448 #
vertex $-1 $244 $481 #
straight-curve $482 2.77111666946439e-13 30 177.380000000001 -1 0 0 #
coedge $-1 $243 $443 $425 $483 0 $194 $-1 #
edge_name-twe-attrib $-1 $-1 $-1 $244 14 8448 #
straight-curve $484 -123.431457505077 27.38 180.000000000001 0.281084637714821 0.678598344545847 -0.678598344545848 #
coedge $-1 $425 $485 $245 $362 1 $106 $-1 #
edge $486 $247 $376 $245 $487 0 #
point $-1 -123.431457505076 27.38 180 #
cur-twe-attrib $-1 $488 $-1 $248 154 #
coedge $-1 $489 $250 $253 $371 0 $367 $-1 #
coedge $-1 $250 $489 $275 $399 0 $367 $-1 #
loop $490 $-1 $250 $407 #
edge_name-twe-attrib $-1 $-1 $-1 $251 52 8448 #
coedge $-1 $491 $252 $485 $492 0 $254 $-1 #
coedge $-1 $253 $452 $493 $494 0 $254 $-1 #
edge $495 $256 $496 $365 $497 0 #
loop_type-twe-attrib $-1 $-1 $-1 $254 0 #
point $-1 180 -30 123.431728752538 #
cur-twe-attrib $-1 $-1 $-1 $257 159 #
edge_name-twe-attrib $-1 $-1 $-1 $258 46 8704 #
vertex $-1 $492 $498 #
straight-curve $499 0 -30 180 1 0 0 #
face_name-twe-attrib $-1 $-1 $-1 $260 18 #
plane-surface $500 0 0 180 0 0 1 1 0 0 0 #
coedge $-1 $501 $263 $394 $502 0 $382 $-1 #
coedge $-1 $263 $501 $265 $387 1 $382 $-1 #
loop $503 $-1 $263 $421 #
edge_name-twe-attrib $-1 $-1 $-1 $264 67 8704 #
vertex $-1 $264 $504 #
straight-curve $505 180.073501338993 14 123.358228118428 -0.70711017178795 0 0.707103390568887 #
coedge $-1 $314 $265 $506 $507 0 $267 $-1 #
edge $508 $269 $509 $265 $510 0 #
loop_type-twe-attrib $-1 $-1 $-1 $267 0 #
point $-1 180 14 123.431728752538 #
cur-twe-attrib $-1 $511 $-1 $270 251 #
edge_name-twe-attrib $-1 $-1 $-1 $271 51 8704 #
straight-curve $512 180 27.38 -90.0000000000002 0 0 1 #
coedge $-1 $513 $273 $276 $400 1 $395 $-1 #
coedge $-1 $273 $513 $380 $502 1 $395 $-1 #
loop $514 $-1 $273 $515 #
edge_name-twe-attrib $-1 $-1 $-1 $274 65 8448 #
straight-curve $516 160 -15 143.431536951619 0 -1 0 #
coedge $-1 $276 $275 $517 $518 0 $277 $-1 #
edge $519 $520 $280 $366 $521 0 #
edge $522 $523 $279 $276 $524 0 #
loop_type-twe-attrib $-1 $-1 $-1 $277 0 #
face $525 $515 $277 $3 $-1 $526 0 #
point $-1 160 -14 143.431536951619 #
point $-1 180 -14 123.431728752538 #
cur-twe-attrib $-1 $-1 $-1 $281 173 #
face_name-twe-attrib $-1 $-1 $-1 $283 21 #
face $527 $469 $367 $3 $-1 $408 1 #
plane-surface $528 180 0 0 -1 0 0 0 0 1 0 #
surf-twe-attrib $-1 $-1 $-1 $284 175 #
cur-twe-attrib $-1 $-1 $286 $50 41 #
coedge $-1 $506 $299 $288 $412 0 $433 $-1 #
edge $529 $303 $446 $411 $436 1 #
face_name-twe-attrib $-1 $-1 $-1 $290 17 #
loop $530 $-1 $426 $290 #
loop_type-twe-attrib $-1 $-1 $-1 $291 0 #
coedge $-1 $531 $532 $533 $534 0 $291 $-1 #
surf-twe-attrib $-1 $535 $-1 $292 290 #
coedge $-1 $536 $294 $537 $538 1 $183 $-1 #
coedge $-1 $294 $536 $539 $540 0 $183 $-1 #
surf-twe-attrib $-1 $-1 $295 $184 105 #
face $541 $542 $382 $3 $-1 $543 0 #
coedge $-1 $533 $296 $544 $545 1 $106 $-1 #
coedge $-1 $539 $546 $296 $424 0 $547 $-1 #
edge $548 $549 $429 $423 $550 0 #
coedge $-1 $297 $361 $358 $483 1 $106 $-1 #
coedge $-1 $551 $537 $297 $427 0 $414 $-1 #
edge $552 $430 $553 $426 $554 0 #
edge_name-twe-attrib $-1 $-1 $-1 $298 26 8704 #
vertex $-1 $540 $555 #
vertex $-1 $538 $556 #
straight-curve $557 -180.073593128808 14 123.357864376269 -0.707106781186548 0 -0.707106781186548 #
coedge $-1 $299 $493 $326 $451 1 $433 $-1 #
loop $558 $-1 $411 $459 #
edge_name-twe-attrib $-1 $-1 $-1 $300 24 8704 #
vertex $-1 $301 $559 #
straight-curve $560 47.5735931288078 27.38 -255.85786437627 -0.707106781186548 0 -0.707106781186548 #
edge_name-twe-attrib $-1 $-1 $-1 $301 59 8704 #
point $-1 151.715728810667 27.38 -151.715728694411 #
cur-twe-attrib $-1 $561 $-1 $304 190 #
surf-twe-attrib $-1 $-1 $305 $56 4 #
loop_type-twe-attrib $-1 $-1 $-1 $307 0 #
surf-twe-attrib $-1 $-1 $-1 $308 193 #
coedge $-1 $358 $310 $343 $476 1 $194 $-1 #
cur-twe-attrib $-1 $-1 $-1 $313 198 #
edge_name-twe-attrib $-1 $-1 $-1 $315 50 8448 #
vertex $-1 $507 $562 #
cur-twe-attrib $-1 $-1 $-1 $317 200 #
edge_name-twe-attrib $-1 $-1 $-1 $319 20 9216 #
straight-curve $563 180.000000000001 27.38 -123.431728752539 5.75657105080553e-16 0 1 #
cur-twe-attrib $-1 $564 $-1 $323 412 #
edge $565 $435 $566 $326 $567 0 #
coedge $-1 $370 $568 $327 $453 1 $254 $-1 #
edge $569 $566 $456 $452 $570 0 #
coedge $-1 $571 $328 $568 $572 1 $336 $-1 #
edge_name-twe-attrib $-1 $-1 $-1 $329 57 8448 #
vertex $-1 $453 $573 #
straight-curve $574 -123.431457505077 15 -180 0 1 0 #
face_name-twe-attrib $-1 $-1 $-1 $331 24 #
face $575 $402 $433 $3 $-1 $576 0 #
plane-surface $577 0 0 -180 0 0 1 1 0 0 0 #
cur-twe-attrib $-1 $-1 $332 $216 128 #
coedge $-1 $343 $333 $551 $470 1 $307 $-1 #
edge_name-twe-attrib $-1 $-1 $-1 $334 18 8448 #
straight-curve $578 -180 27.38 -123.431457505077 0.678598344545848 0.678598344545847 0.281084637714821 #
coedge $-1 $335 $579 $536 $580 1 $336 $-1 #
coedge $-1 $537 $551 $335 $467 0 $414 $-1 #
edge $581 $338 $582 $466 $583 0 #
loop_type-twe-attrib $-1 $-1 $-1 $336 0 #
face $584 $331 $336 $3 $-1 $585 0 #
edge $586 $553 $338 $551 $587 0 #
point $-1 -180 27.38 -123.431457505077 #
cur-twe-attrib $-1 $-1 $-1 $339 221 #
surf-twe-attrib $-1 $-1 $-1 $341 223 #
edge_name-twe-attrib $-1 $-1 $-1 $342 13 8448 #
straight-curve $588 -211.578837738369 30 88.1473802332918 -0.707106781186548 0 -0.707106781186548 #
edge $589 $553 $345 $343 $590 0 #
point $-1 -177.380000000001 30 122.34621797166 #
cur-twe-attrib $-1 $-1 $-1 $346 228 #
cur-twe-attrib $-1 $591 $351 $236 93 #
cur-twe-attrib $-1 $-1 $354 $82 41 #
point $-1 -122.34621797166 30 177.380000000001 #
cur-twe-attrib $-1 $-1 $-1 $357 242 #
edge $592 $553 $247 $425 $593 0 #
cur-twe-attrib $-1 $-1 $-1 $360 244 #
coedge $-1 $361 $533 $369 $492 1 $106 $-1 #
edge_name-twe-attrib $-1 $-1 $-1 $362 37 8448 #
straight-curve $594 -123.431457505076 -15 180 0 -1 0 #
cur-twe-attrib $-1 $-1 $364 $248 43 #
coedge $-1 $366 $365 $595 $596 0 $367 $-1 #
loop_type-twe-attrib $-1 $-1 $-1 $367 0 #
coedge $-1 $568 $369 $532 $597 0 $254 $-1 #
edge $598 $376 $599 $369 $600 0 #
coedge $-1 $432 $595 $370 $494 1 $433 $-1 #
edge $601 $566 $496 $370 $602 0 #
edge_name-twe-attrib $-1 $-1 $-1 $371 53 8704 #
vertex $-1 $371 $603 #
straight-curve $604 180 -30 0 0 0 -1 #
point $-1 -123.431457505076 -30 180 #
cur-twe-attrib $-1 $-1 $-1 $377 258 #
surf-twe-attrib $-1 $-1 $-1 $379 260 #
coedge $-1 $381 $380 $605 $606 0 $382 $-1 #
edge $607 $384 $608 $380 $609 0 #
loop_type-twe-attrib $-1 $-1 $-1 $382 0 #
point $-1 160 14 143.431536951619 #
cur-twe-attrib $-1 $-1 $-1 $385 264 #
coedge $-1 $605 $411 $386 $507 1 $433 $-1 #
edge $610 $509 $446 $386 $611 0 #
edge_name-twe-attrib $-1 $-1 $-1 $387 48 8704 #
vertex $-1 $387 $612 #
straight-curve $613 180 14 0 0 0 -1 #
cur-twe-attrib $-1 $-1 $390 $270 167 #
cur-twe-attrib $-1 $614 $-1 $392 271 #
coedge $-1 $394 $393 $615 $616 0 $395 $-1 #
loop_type-twe-attrib $-1 $-1 $-1 $395 0 #
face $617 $421 $395 $3 $-1 $618 0 #
cur-twe-attrib $-1 $-1 $-1 $397 274 #
coedge $-1 $595 $615 $398 $518 1 $433 $-1 #
edge $619 $520 $523 $398 $620 0 #
edge_name-twe-attrib $-1 $-1 $-1 $399 55 8704 #
vertex $-1 $518 $621 #
straight-curve $622 180 -14 0 0 0 1 #
edge_name-twe-attrib $-1 $-1 $-1 $400 64 4608 #
vertex $-1 $616 $623 #
straight-curve $624 160 -14 0 0 0 1 #
face_name-twe-attrib $-1 $-1 $-1 $402 26 #
plane-surface $625 170 -14 0 0 1 0 -1 0 0 0 #
face_name-twe-attrib $-1 $-1 $-1 $407 22 #
surf-twe-attrib $-1 $626 $-1 $408 407 #
edge_name-twe-attrib $-1 $-1 $-1 $412 61 4608 #
loop_type-twe-attrib $-1 $-1 $-1 $414 0 #
coedge $-1 $627 $416 $628 $629 0 $291 $-1 #
coedge $-1 $416 $627 $491 $597 1 $291 $-1 #
coedge $-1 $485 $422 $416 $534 1 $106 $-1 #
edge $630 $599 $631 $416 $554 0 #
surf-twe-attrib $-1 $-1 $417 $292 182 #
coedge $-1 $419 $418 $465 $580 0 $183 $-1 #
coedge $-1 $426 $466 $418 $538 0 $414 $-1 #
edge $632 $582 $430 $537 $633 0 #
coedge $-1 $634 $423 $419 $540 1 $547 $-1 #
edge $635 $636 $429 $419 $637 0 #
face_name-twe-attrib $-1 $-1 $-1 $421 28 #
face $638 $639 $547 $3 $-1 $640 0 #
plane-surface $641 170 14 0 0 -1 0 1 0 0 0 #
coedge $-1 $642 $628 $422 $545 0 $643 $-1 #
edge $644 $631 $549 $544 $645 0 #
coedge $-1 $423 $634 $642 $646 1 $547 $-1 #
loop $647 $-1 $423 $542 #
edge_name-twe-attrib $-1 $-1 $-1 $424 70 8448 #
vertex $-1 $545 $648 #
straight-curve $649 -160 15 143.431457505077 0 1 0 #
coedge $-1 $466 $426 $462 $470 0 $414 $-1 #
edge_name-twe-attrib $-1 $-1 $-1 $427 33 8448 #
vertex $-1 $483 $650 #
straight-curve $651 -180 15 123.431457505076 0 1 0 #
point $-1 -160 14 143.431457505076 #
point $-1 -180 14 123.431457505076 #
cur-twe-attrib $-1 $-1 $-1 $431 298 #
loop_type-twe-attrib $-1 $-1 $-1 $433 0 #
point $-1 123.431457505077 27.38 -180 #
cur-twe-attrib $-1 $652 $-1 $436 412 #
cur-twe-attrib $-1 $-1 $439 $304 206 #
point $-1 180 27.38 -123.431457505077 #
cur-twe-attrib $-1 $653 $-1 $449 271 #
cur-twe-attrib $-1 $654 $450 $323 300 #
edge_name-twe-attrib $-1 $-1 $-1 $451 60 8448 #
vertex $-1 $494 $655 #
straight-curve $656 123.431457505077 -15 -180 0 -1 0 #
coedge $-1 $452 $491 $454 $572 0 $254 $-1 #
edge_name-twe-attrib $-1 $-1 $-1 $453 43 8704 #
straight-curve $657 0 -30 -180 -1 0 0 #
coedge $-1 $658 $454 $627 $659 1 $336 $-1 #
edge $660 $661 $456 $568 $662 0 #
point $-1 -123.431457505077 -30 -180 #
cur-twe-attrib $-1 $-1 $-1 $457 329 #
face_name-twe-attrib $-1 $-1 $-1 $459 25 #
plane-surface $663 123.431457505077 30 -180 0.707106781186548 0 -0.707106781186548 0 1 0 0 #
surf-twe-attrib $-1 $-1 $-1 $460 331 #
cur-twe-attrib $-1 $-1 $-1 $464 334 #
coedge $-1 $465 $658 $634 $664 1 $336 $-1 #
edge $665 $582 $636 $536 $666 0 #
edge_name-twe-attrib $-1 $-1 $-1 $467 35 8448 #
vertex $-1 $580 $667 #
straight-curve $668 -180 -15 -123.431457505077 0 -1 0 #
face_name-twe-attrib $-1 $-1 $-1 $469 23 #
plane-surface $669 -123.431457505077 -30 -180 -0.707106781186548 0 -0.707106781186548 0 1 0 0 #
edge_name-twe-attrib $-1 $-1 $-1 $470 34 8448 #
straight-curve $670 -180 27.38 -90.0000000000002 0 0 -1 #
cur-twe-attrib $-1 $-1 $-1 $475 342 #
edge_name-twe-attrib $-1 $-1 $-1 $476 16 8448 #
straight-curve $671 -180.000000000001 27.38 123.431457505077 0.678598344545848 0.678598344545847 -0.28108463771482 #
cur-twe-attrib $-1 $672 $479 $236 147 #
edge_name-twe-attrib $-1 $-1 $-1 $483 25 8448 #
straight-curve $673 -227.573593128808 27.38 75.8578643762693 0.707106781186548 0 0.707106781186548 #
cur-twe-attrib $-1 $-1 $-1 $487 362 #
coedge $-1 $493 $517 $489 $596 1 $433 $-1 #
edge $674 $496 $520 $489 $611 0 #
edge $675 $599 $661 $532 $676 0 #
edge_name-twe-attrib $-1 $-1 $-1 $492 41 8704 #
vertex $-1 $492 $677 #
straight-curve $678 -137.573593128808 -30 165.85786437627 -0.707106781186548 0 -0.707106781186548 #
edge_name-twe-attrib $-1 $-1 $-1 $494 44 8704 #
straight-curve $679 137.573593128808 -30 -165.85786437627 0.707106781186548 0 0.707106781186548 #
point $-1 180 -30 -123.431457505077 #
cur-twe-attrib $-1 $-1 $-1 $497 371 #
coedge $-1 $615 $506 $501 $606 1 $433 $-1 #
edge $680 $608 $509 $501 $681 0 #
edge_name-twe-attrib $-1 $-1 $-1 $502 68 4608 #
vertex $-1 $502 $682 #
straight-curve $683 160 14 0 0 0 -1 #
edge_name-twe-attrib $-1 $-1 $-1 $507 49 8448 #
straight-curve $684 180 15 -123.431457505077 0 1 0 #
point $-1 180 14 -123.431457505077 #
cur-twe-attrib $-1 $-1 $-1 $510 387 #
cur-twe-attrib $-1 $685 $512 $392 315 #
coedge $-1 $517 $605 $513 $616 1 $433 $-1 #
edge $686 $523 $608 $513 $687 0 #
face_name-twe-attrib $-1 $-1 $-1 $515 27 #
plane-surface $688 160 0 0 1 0 0 0 1 0 0 #
edge_name-twe-attrib $-1 $-1 $-1 $518 63 8704 #
straight-curve $689 180.073593128808 -14 -123.35786437627 -0.707106781186548 0 -0.707106781186548 #
point $-1 180 -14 -123.431457505077 #
cur-twe-attrib $-1 $-1 $-1 $521 399 #
point $-1 160 -14 -143.431457505077 #
cur-twe-attrib $-1 $-1 $-1 $524 400 #
surf-twe-attrib $-1 $690 $-1 $526 639 #
surf-twe-attrib $-1 $-1 $528 $408 283 #
coedge $-1 $532 $531 $571 $659 0 $291 $-1 #
coedge $-1 $544 $691 $531 $629 1 $643 $-1 #
edge $692 $631 $693 $531 $694 0 #
edge_name-twe-attrib $-1 $-1 $-1 $534 29 8448 #
vertex $-1 $534 $695 #
edge_name-twe-attrib $-1 $-1 $-1 $538 36 8704 #
straight-curve $696 -180 14 0 0 0 1 #
coedge $-1 $546 $539 $579 $664 0 $547 $-1 #
edge_name-twe-attrib $-1 $-1 $-1 $540 28 4608 #
vertex $-1 $664 $697 #
straight-curve $698 -160 14 0 0 0 1 #
face_name-twe-attrib $-1 $-1 $-1 $542 29 #
face $699 $-1 $643 $3 $-1 $700 0 #
plane-surface $701 -160 0 0 -1 0 0 0 -1 0 0 #
surf-twe-attrib $-1 $702 $-1 $543 421 #
coedge $-1 $691 $544 $546 $646 0 $643 $-1 #
loop $703 $-1 $544 $639 #
edge_name-twe-attrib $-1 $-1 $-1 $545 72 8704 #
straight-curve $704 -180.073593128808 -14 123.357864376269 0.707106781186548 0 0.707106781186548 #
edge $705 $549 $706 $642 $707 0 #
loop_type-twe-attrib $-1 $-1 $-1 $547 0 #
point $-1 -160 -14 143.431457505076 #
cur-twe-attrib $-1 $-1 $-1 $550 424 #
point $-1 -180 27.38 123.431457505076 #
cur-twe-attrib $-1 $708 $-1 $554 427 #
cur-twe-attrib $-1 $709 $560 $436 300 #
cur-twe-attrib $-1 $710 $563 $449 315 #
cur-twe-attrib $-1 $711 $564 $323 190 #
point $-1 123.431457505077 -30 -180 #
cur-twe-attrib $-1 $-1 $-1 $567 451 #
cur-twe-attrib $-1 $-1 $-1 $570 453 #
coedge $-1 $579 $571 $691 $712 1 $336 $-1 #
edge $713 $693 $661 $627 $583 0 #
edge_name-twe-attrib $-1 $-1 $-1 $572 42 8704 #
vertex $-1 $597 $714 #
straight-curve $715 -137.573593128808 -30 -165.85786437627 0.707106781186548 0 -0.707106781186548 #
surf-twe-attrib $-1 $-1 $-1 $576 459 #
edge $716 $636 $706 $634 $717 0 #
edge_name-twe-attrib $-1 $-1 $-1 $580 27 8704 #
straight-curve $718 -180.073593128808 14 -123.35786437627 0.707106781186548 0 -0.707106781186548 #
point $-1 -180 14 -123.431457505076 #
cur-twe-attrib $-1 $719 $-1 $583 467 #
surf-twe-attrib $-1 $-1 $-1 $585 469 #
cur-twe-attrib $-1 $-1 $-1 $587 470 #
cur-twe-attrib $-1 $-1 $-1 $590 476 #
cur-twe-attrib $-1 $-1 $591 $236 41 #
cur-twe-attrib $-1 $-1 $-1 $593 483 #
edge_name-twe-attrib $-1 $-1 $-1 $596 54 8448 #
edge_name-twe-attrib $-1 $-1 $-1 $597 32 8704 #
straight-curve $720 -180 -30 0 0 0 -1 #
point $-1 -180 -30 123.431457505076 #
cur-twe-attrib $-1 $-1 $-1 $600 492 #
cur-twe-attrib $-1 $-1 $-1 $602 494 #
edge_name-twe-attrib $-1 $-1 $-1 $606 69 8704 #
straight-curve $721 180.073593128808 14 -123.35786437627 0.707106781186548 0 0.707106781186548 #
point $-1 160 14 -143.431457505077 #
cur-twe-attrib $-1 $-1 $-1 $609 502 #
cur-twe-attrib $-1 $722 $-1 $611 596 #
cur-twe-attrib $-1 $-1 $614 $392 319 #
edge_name-twe-attrib $-1 $-1 $-1 $616 66 8448 #
straight-curve $723 160 15 -143.431457505077 0 1 0 #
surf-twe-attrib $-1 $-1 $-1 $618 515 #
cur-twe-attrib $-1 $-1 $-1 $620 518 #
surf-twe-attrib $-1 $-1 $625 $526 402 #
coedge $-1 $628 $642 $658 $712 0 $643 $-1 #
edge_name-twe-attrib $-1 $-1 $-1 $629 30 8704 #
vertex $-1 $629 $724 #
straight-curve $725 -180 -14 0 0 0 -1 #
point $-1 -180 -14 123.431457505076 #
cur-twe-attrib $-1 $-1 $-1 $633 538 #
point $-1 -160 14 -143.431457505077 #
cur-twe-attrib $-1 $-1 $-1 $637 540 #
face_name-twe-attrib $-1 $-1 $-1 $639 30 #
plane-surface $726 -170 -14 0 0 1 0 -1 0 0 0 #
surf-twe-attrib $-1 $-1 $-1 $640 542 #
surf-twe-attrib $-1 $-1 $641 $543 105 #
loop_type-twe-attrib $-1 $-1 $-1 $643 0 #
cur-twe-attrib $-1 $-1 $-1 $645 545 #
edge_name-twe-attrib $-1 $-1 $-1 $646 73 4608 #
vertex $-1 $646 $727 #
straight-curve $728 -160 -14 0 0 0 -1 #
cur-twe-attrib $-1 $-1 $651 $554 534 #
cur-twe-attrib $-1 $-1 $652 $436 206 #
cur-twe-attrib $-1 $-1 $653 $449 319 #
cur-twe-attrib $-1 $-1 $654 $323 206 #
edge $729 $706 $693 $691 $730 0 #
edge_name-twe-attrib $-1 $-1 $-1 $659 31 8448 #
point $-1 -180 -30 -123.431457505077 #
cur-twe-attrib $-1 $-1 $-1 $662 572 #
edge_name-twe-attrib $-1 $-1 $-1 $664 71 8448 #
straight-curve $731 -160 -15 -143.431457505077 0 -1 0 #
cur-twe-attrib $-1 $-1 $-1 $666 580 #
cur-twe-attrib $-1 $-1 $668 $583 659 #
cur-twe-attrib $-1 $-1 $-1 $676 597 #
cur-twe-attrib $-1 $-1 $-1 $681 606 #
cur-twe-attrib $-1 $-1 $684 $611 507 #
cur-twe-attrib $-1 $-1 $-1 $687 616 #
point $-1 -180 -14 -123.431457505076 #
cur-twe-attrib $-1 $-1 $-1 $694 629 #
surf-twe-attrib $-1 $732 $-1 $700 639 #
point $-1 -160 -14 -143.431457505077 #
cur-twe-attrib $-1 $-1 $-1 $707 646 #
edge_name-twe-attrib $-1 $-1 $-1 $712 74 8704 #
straight-curve $733 -180.073593128808 -14 -123.35786437627 -0.707106781186548 0 0.707106781186548 #
cur-twe-attrib $-1 $-1 $-1 $717 664 #
surf-twe-attrib $-1 $-1 $726 $700 402 #
cur-twe-attrib $-1 $-1 $-1 $730 712 #
