600 0 1 0           
88 GICL ACIS Healer - Source: /gicl/data5/repository/ICEM-CDC/pw1b_blnk/pw1b_blnk.sat - 6 0 18 ACIS 6.0.3 Solaris 24 Sat Apr 13 23:07:37 2002 
1 9.999999999999999547e-07 1.000000000000000036e-10 
body $-1 $1 $-1 $-1 #
lump $-1 $-1 $2 $0 #
shell $-1 $-1 $-1 $3 $-1 $1 #
face $4 $5 $6 $2 $-1 $7 reversed single #
face_name-twe-attrib $-1 $-1 $-1 $3 1 #
face $8 $9 $10 $2 $-1 $11 forward single #
loop $12 $13 $14 $3 #
cone-surface $15 0 0 0 0 0 -1 0 13.87129000000000012 0 1 I I 0 1 13.87129000000000012 forward I I I I #
face_name-twe-attrib $-1 $-1 $-1 $5 2 #
face $16 $17 $18 $2 $-1 $19 forward single #
loop $20 $21 $22 $5 #
cone-surface $23 0 0 0 0 0 1 15.01249999999999929 0 0 1 I I 0 1 15.01249999999999929 forward I I I I #
loop_type-twe-attrib $-1 $-1 $-1 $6 0 #
loop $24 $-1 $25 $3 #
coedge $-1 $14 $14 $26 $27 reversed $6 $-1 #
surf-twe-attrib $-1 $-1 $-1 $7 3 #
face_name-twe-attrib $-1 $-1 $-1 $9 3 #
face $28 $-1 $29 $2 $-1 $30 forward single #
loop $31 $32 $33 $9 #
plane-surface $34 0 0 -0.6490000000000000213 0 0 -1 -1 0 0 forward_v I I I I #
loop_type-twe-attrib $-1 $-1 $-1 $10 0 #
loop $35 $-1 $36 $5 #
coedge $-1 $22 $22 $37 $38 reversed $10 $-1 #
surf-twe-attrib $-1 $-1 $-1 $11 5 #
loop_type-twe-attrib $-1 $-1 $-1 $13 1 #
coedge $-1 $25 $25 $33 $39 reversed $13 $-1 #
coedge $-1 $26 $26 $14 $27 forward $29 $-1 #
edge $40 $41 0 $41 6.283185307179586232 $26 $42 forward 7 unknown #
face_name-twe-attrib $-1 $-1 $-1 $17 4 #
loop $43 $44 $26 $17 #
plane-surface $45 0 0 0.6490000000000000213 0 0 1 1 0 0 forward_v I I I I #
loop_type-twe-attrib $-1 $-1 $-1 $18 1 #
loop $46 $-1 $37 $9 #
coedge $-1 $33 $33 $25 $39 forward $18 $-1 #
surf-twe-attrib $-1 $-1 $-1 $19 9 #
loop_type-twe-attrib $-1 $-1 $-1 $21 1 #
coedge $-1 $36 $36 $47 $48 reversed $21 $-1 #
coedge $-1 $37 $37 $22 $38 forward $32 $-1 #
edge $49 $50 0 $50 6.283185307179586232 $37 $51 forward 7 unknown #
edge $52 $53 0 $53 6.283185307179586232 $33 $54 forward 7 unknown #
edge_name-twe-attrib $-1 $-1 $-1 $27 3 8704 #
vertex $-1 $27 $55 #
ellipse-curve $56 0 0 0.6490000000000000213 0 0 -1 0 13.87129000000000012 0 1 I I #
loop_type-twe-attrib $-1 $-1 $-1 $29 1 #
loop $57 $-1 $47 $17 #
surf-twe-attrib $-1 $-1 $-1 $30 17 #
loop_type-twe-attrib $-1 $-1 $-1 $32 0 #
coedge $-1 $47 $47 $36 $48 forward $44 $-1 #
edge $58 $59 0 $59 6.283185307179586232 $47 $60 forward 7 unknown #
edge_name-twe-attrib $-1 $-1 $-1 $38 2 8704 #
vertex $-1 $38 $61 #
ellipse-curve $62 0 0 -0.6490000000000000213 0 0 -1 15.01249999999999929 0 0 1 I I #
edge_name-twe-attrib $-1 $-1 $-1 $39 1 8704 #
vertex $-1 $39 $63 #
ellipse-curve $64 0 0 -0.6490000000000000213 0 0 1 0 13.87129000000000012 0 1 I I #
point $-1 0 13.87129000000000012 0.6490000000000000213 #
cur-twe-attrib $-1 $-1 $-1 $42 27 #
loop_type-twe-attrib $-1 $-1 $-1 $44 0 #
edge_name-twe-attrib $-1 $-1 $-1 $48 4 8704 #
vertex $-1 $48 $65 #
ellipse-curve $66 0 0 0.6490000000000000213 0 0 1 15.01249999999999929 0 0 1 I I #
point $-1 15.01249999999999929 0 -0.6490000000000000213 #
cur-twe-attrib $-1 $-1 $-1 $51 38 #
point $-1 0 13.87129000000000012 -0.6490000000000000213 #
cur-twe-attrib $-1 $-1 $-1 $54 39 #
point $-1 15.01249999999999929 0 0.6490000000000000213 #
cur-twe-attrib $-1 $-1 $-1 $60 48 #
End-of-ACIS-data 