  0
SECTION
  2
HEADER
  9
$ACADVER
  1
AC1009
  9
$INSBASE
 10
0.0
 20
0.0
 30
0.0
  9
$EXTMIN
 10
-6.0
 20
-5.0
 30
-13.005816
  9
$EXTMAX
 10
14.0
 20
15.0
 30
10.0
  9
$LIMMIN
 10
0.0
 20
0.0
  9
$LIMMAX
 10
12.0
 20
9.0
  9
$ORTHOMODE
 70
     0
  9
$REGENMODE
 70
     1
  9
$FILLMODE
 70
     1
  9
$QTEXTMODE
 70
     0
  9
$MIRRTEXT
 70
     1
  9
$DRAGMODE
 70
     2
  9
$LTSCALE
 40
1.0
  9
$OSMODE
 70
     0
  9
$ATTMODE
 70
     1
  9
$TEXTSIZE
 40
0.2
  9
$TRACEWID
 40
0.05
  9
$TEXTSTYLE
  7
STANDARD
  9
$CLAYER
  8
0
  9
$CELTYPE
  6
BYLAYER
  9
$CECOLOR
 62
   256
  9
$DIMSCALE
 40
1.0
  9
$DIMASZ
 40
0.18
  9
$DIMEXO
 40
0.0625
  9
$DIMDLI
 40
0.38
  9
$DIMRND
 40
0.0
  9
$DIMDLE
 40
0.0
  9
$DIMEXE
 40
0.18
  9
$DIMTP
 40
0.0
  9
$DIMTM
 40
0.0
  9
$DIMTXT
 40
0.18
  9
$DIMCEN
 40
0.09
  9
$DIMTSZ
 40
0.0
  9
$DIMTOL
 70
     0
  9
$DIMLIM
 70
     0
  9
$DIMTIH
 70
     1
  9
$DIMTOH
 70
     1
  9
$DIMSE1
 70
     0
  9
$DIMSE2
 70
     0
  9
$DIMTAD
 70
     0
  9
$DIMZIN
 70
     0
  9
$DIMBLK
  1

  9
$DIMASO
 70
     1
  9
$DIMSHO
 70
     1
  9
$DIMPOST
  1

  9
$DIMAPOST
  1

  9
$DIMALT
 70
     0
  9
$DIMALTD
 70
     2
  9
$DIMALTF
 40
25.4
  9
$DIMLFAC
 40
1.0
  9
$DIMTOFL
 70
     0
  9
$DIMTVP
 40
0.0
  9
$DIMTIX
 70
     0
  9
$DIMSOXD
 70
     0
  9
$DIMSAH
 70
     0
  9
$DIMBLK1
  1

  9
$DIMBLK2
  1

  9
$DIMSTYLE
  2
*UNNAMED
  9
$DIMCLRD
 70
     0
  9
$DIMCLRE
 70
     0
  9
$DIMCLRT
 70
     0
  9
$DIMTFAC
 40
1.0
  9
$DIMGAP
 40
0.09
  9
$LUNITS
 70
     2
  9
$LUPREC
 70
     4
  9
$SKETCHINC
 40
0.1
  9
$FILLETRAD
 40
0.0
  9
$AUNITS
 70
     0
  9
$AUPREC
 70
     0
  9
$MENU
  1
acad
  9
$ELEVATION
 40
0.0
  9
$PELEVATION
 40
0.0
  9
$THICKNESS
 40
0.0
  9
$LIMCHECK
 70
     0
  9
$BLIPMODE
 70
     1
  9
$CHAMFERA
 40
0.0
  9
$CHAMFERB
 40
0.0
  9
$SKPOLY
 70
     0
  9
$TDCREATE
 40
2449411.011513298
  9
$TDUPDATE
 40
2449411.014277257
  9
$TDINDWG
 40
0.0027639583
  9
$TDUSRTIMER
 40
0.0027639583
  9
$USRTIMER
 70
     1
  9
$ANGBASE
 50
0.0
  9
$ANGDIR
 70
     0
  9
$PDMODE
 70
     0
  9
$PDSIZE
 40
0.0
  9
$PLINEWID
 40
0.0
  9
$COORDS
 70
     1
  9
$SPLFRAME
 70
     0
  9
$SPLINETYPE
 70
     6
  9
$SPLINESEGS
 70
     8
  9
$ATTDIA
 70
     0
  9
$ATTREQ
 70
     1
  9
$HANDLING
 70
     1
  9
$HANDSEED
  5
ED
  9
$SURFTAB1
 70
     6
  9
$SURFTAB2
 70
     6
  9
$SURFTYPE
 70
     6
  9
$SURFU
 70
     6
  9
$SURFV
 70
     6
  9
$UCSNAME
  2

  9
$UCSORG
 10
0.0
 20
0.0
 30
0.0
  9
$UCSXDIR
 10
1.0
 20
0.0
 30
0.0
  9
$UCSYDIR
 10
0.0
 20
1.0
 30
0.0
  9
$PUCSNAME
  2

  9
$PUCSORG
 10
0.0
 20
0.0
 30
0.0
  9
$PUCSXDIR
 10
1.0
 20
0.0
 30
0.0
  9
$PUCSYDIR
 10
0.0
 20
1.0
 30
0.0
  9
$USERI1
 70
     0
  9
$USERI2
 70
     0
  9
$USERI3
 70
     0
  9
$USERI4
 70
     0
  9
$USERI5
 70
     0
  9
$USERR1
 40
0.0
  9
$USERR2
 40
0.0
  9
$USERR3
 40
0.0
  9
$USERR4
 40
0.0
  9
$USERR5
 40
0.0
  9
$WORLDVIEW
 70
     1
  9
$SHADEDGE
 70
     3
  9
$SHADEDIF
 70
    70
  9
$TILEMODE
 70
     1
  9
$MAXACTVP
 70
    16
  9
$PINSBASE
 10
0.0
 20
0.0
 30
0.0
  9
$PLIMCHECK
 70
     0
  9
$PEXTMIN
 10
1.000000E+20
 20
1.000000E+20
 30
1.000000E+20
  9
$PEXTMAX
 10
-1.000000E+20
 20
-1.000000E+20
 30
-1.000000E+20
  9
$PLIMMIN
 10
0.0
 20
0.0
  9
$PLIMMAX
 10
12.0
 20
9.0
  9
$UNITMODE
 70
     0
  9
$VISRETAIN
 70
     0
  9
$PLINEGEN
 70
     0
  9
$PSLTSCALE
 70
     1
  9
$TREEDEPTH
 70
  3020
  9
$DWGCODEPAGE
  3
ascii
  0
ENDSEC
  0
SECTION
  2
TABLES
  0
TABLE
  2
VPORT
 70
     2
  0
VPORT
  2
*ACTIVE
 70
     0
 10
0.0
 20
0.0
 11
1.0
 21
1.0
 12
7.814947
 22
-2.832948
 13
0.0
 23
0.0
 14
1.0
 24
1.0
 15
0.0
 25
0.0
 16
1.0
 26
2.0
 36
0.5
 17
0.0
 27
0.0
 37
0.0
 40
28.306778
 41
1.594883
 42
50.0
 43
0.0
 44
0.0
 50
0.0
 51
0.0
 71
     0
 72
   100
 73
     1
 74
     1
 75
     0
 76
     0
 77
     0
 78
     0
  0
ENDTAB
  0
TABLE
  2
LTYPE
 70
     1
  0
LTYPE
  2
CONTINUOUS
 70
    64
  3
Solid line
 72
    65
 73
     0
 40
0.0
  0
ENDTAB
  0
TABLE
  2
LAYER
 70
     3
  0
LAYER
  2
0
 70
    64
 62
     7
  6
CONTINUOUS
  0
LAYER
  2
ASHADE
 70
    64
 62
     7
  6
CONTINUOUS
  0
LAYER
  2
AME_FRZ
 70
    65
 62
     7
  6
CONTINUOUS
  0
ENDTAB
  0
TABLE
  2
STYLE
 70
     2
  0
STYLE
  2
STANDARD
 70
     0
 40
0.0
 41
1.0
 50
0.0
 71
     0
 42
0.2
  3
txt
  4

  0
STYLE
  2
ASHADE
 70
     0
 40
0.2
 41
1.0
 50
0.0
 71
     0
 42
0.2
  3
simplex
  4

  0
ENDTAB
  0
TABLE
  2
VIEW
 70
     0
  0
ENDTAB
  0
TABLE
  2
UCS
 70
     0
  0
ENDTAB
  0
TABLE
  2
APPID
 70
     5
  0
APPID
  2
ACAD
 70
    64
  0
APPID
  2
AVE_RENDER
 70
    64
  0
APPID
  2
AME_SOL
 70
    64
  0
APPID
  2
AVE_INVOKE
 70
    64
  0
ENDTAB
  0
TABLE
  2
DIMSTYLE
 70
     0
  0
ENDTAB
  0
ENDSEC
  0
SECTION
  2
BLOCKS
  0
BLOCK
  8
0
  5
1
  2
AVE_RENDER
 70
    64
 10
0.0
 20
0.0
 30
0.0
  1
AVE_RENDER
  3
AVE_RENDER
  0
ENDBLK
  8
0
  5
2
  0
BLOCK
  8
0
  5
6
  2
AME_NIL
 70
    64
 10
0.0
 20
0.0
 30
0.0
  1
AME_NIL
  3
AME_NIL
  0
ENDBLK
  8
0
  5
7
  0
BLOCK
  8
0
  5
9
  2
AME_SOL
 70
    64
 10
0.0
 20
0.0
 30
0.0
  1
AME_SOL
  3
AME_SOL
  0
ENDBLK
  8
0
  5
A
  0
BLOCK
  8
0
  5
2A
  2
*U5
 70
    65
 10
0.0
 20
0.0
 30
0.0
  1
*U
  3
*U
  0
LINE
  8
0
 62
     7
  5
2B
 10
13.0
 20
10.0
 30
0.0
 11
13.0
 21
10.0
 31
10.0
1001
AME_SOL
1070
     1
1071
       39
  0
LINE
  8
0
 62
     7
  5
2C
 10
13.0
 20
10.0
 30
10.0
 11
13.0
 21
0.0
 31
10.0
1001
AME_SOL
1070
     1
1071
       38
  0
LINE
  8
0
 62
     7
  5
2D
 10
0.0
 20
10.0
 30
10.0
 11
13.0
 21
10.0
 31
10.0
1001
AME_SOL
1070
     1
1071
       37
  0
LINE
  8
0
 62
     7
  5
2E
 10
0.0
 20
10.0
 30
7.0
 11
0.0
 21
10.0
 31
10.0
1001
AME_SOL
1070
     1
1071
       36
  0
LINE
  8
0
 62
     7
  5
2F
 10
0.0
 20
10.0
 30
0.0
 11
0.0
 21
10.0
 31
3.0
1001
AME_SOL
1070
     1
1071
       35
  0
LINE
  8
0
 62
     7
  5
30
 10
0.0
 20
10.0
 30
10.0
 11
0.0
 21
0.0
 31
10.0
1001
AME_SOL
1070
     1
1071
       34
  0
LINE
  8
0
 62
     7
  5
31
 10
0.0
 20
0.0
 30
7.0
 11
0.0
 21
0.0
 31
10.0
1001
AME_SOL
1070
     1
1071
       33
  0
LINE
  8
0
 62
     7
  5
32
 10
0.0
 20
0.0
 30
0.0
 11
0.0
 21
0.0
 31
3.0
1001
AME_SOL
1070
     1
1071
       32
  0
LINE
  8
0
 62
     7
  5
33
 10
13.0
 20
0.0
 30
10.0
 11
13.0
 21
0.0
 31
0.0
1001
AME_SOL
1070
     1
1071
       31
  0
LINE
  8
0
 62
     7
  5
34
 10
0.0
 20
0.0
 30
10.0
 11
13.0
 21
0.0
 31
10.0
1001
AME_SOL
1070
     1
1071
       30
  0
LINE
  8
0
 62
     7
  5
35
 10
0.0
 20
0.0
 30
0.0
 11
13.0
 21
0.0
 31
0.0
1001
AME_SOL
1070
     1
1071
       29
  0
LINE
  8
0
 62
     7
  5
36
 10
0.0
 20
10.0
 30
0.0
 11
0.0
 21
0.0
 31
0.0
1001
AME_SOL
1070
     1
1071
       28
  0
LINE
  8
0
 62
     7
  5
37
 10
13.0
 20
0.0
 30
0.0
 11
13.0
 21
10.0
 31
0.0
1001
AME_SOL
1070
     1
1071
       27
  0
LINE
  8
0
 62
     7
  5
38
 10
13.0
 20
10.0
 30
0.0
 11
0.0
 21
10.0
 31
0.0
1001
AME_SOL
1070
     1
1071
       26
  0
LINE
  8
0
 62
     7
  5
39
 10
12.660254
 20
0.0
 30
7.0
 11
0.0
 21
0.0
 31
7.0
1001
AME_SOL
1070
     1
1071
       25
  0
LINE
  8
0
 62
     7
  5
3A
 10
0.0
 20
0.0
 30
7.0
 11
0.0
 21
10.0
 31
7.0
1001
AME_SOL
1070
     1
1071
       24
  0
LINE
  8
0
 62
     7
  5
3B
 10
13.0
 20
9.358899
 30
7.0
 11
13.0
 21
0.641101
 31
7.0
1001
AME_SOL
1070
     1
1071
       23
  0
LINE
  8
0
 62
     7
  5
3C
 10
0.0
 20
10.0
 30
7.0
 11
12.660254
 21
10.0
 31
7.0
1001
AME_SOL
1070
     1
1071
       22
  0
LINE
  8
0
 62
     7
  5
3D
 10
0.0
 20
0.0
 30
3.0
 11
12.660254
 21
0.0
 31
3.0
1001
AME_SOL
1070
     1
1071
       21
  0
LINE
  8
0
 62
     7
  5
3E
 10
0.0
 20
10.0
 30
3.0
 11
0.0
 21
0.0
 31
3.0
1001
AME_SOL
1070
     1
1071
       20
  0
LINE
  8
0
 62
     7
  5
3F
 10
13.0
 20
0.641101
 30
3.0
 11
13.0
 21
9.358899
 31
3.0
1001
AME_SOL
1070
     1
1071
       19
  0
LINE
  8
0
 62
     7
  5
40
 10
12.660254
 20
10.0
 30
3.0
 11
0.0
 21
10.0
 31
3.0
1001
AME_SOL
1070
     1
1071
       18
  0
ARC
  8
0
 62
     7
  5
41
 10
4.0
 20
5.0
 30
3.0
 40
10.0
 50
25.841933
 51
30.0
1001
AME_SOL
1070
     1
1071
       17
  0
ARC
  8
0
 62
     7
  5
42
 10
4.0
 20
5.0
 30
3.0
 40
10.0
 50
330.0
 51
334.158067
1001
AME_SOL
1070
     1
1071
       16
  0
LINE
  8
0
 62
     7
  5
43
 10
12.660254
 20
0.0
 30
3.0
 11
12.660254
 21
0.0
 31
7.0
1001
AME_SOL
1070
     1
1071
       15
  0
LINE
  8
0
 62
     7
  5
44
 10
13.0
 20
0.641101
 30
3.0
 11
13.0
 21
0.641101
 31
7.0
1001
AME_SOL
1070
     1
1071
       14
  0
LINE
  8
0
 62
     7
  5
45
 10
13.0
 20
9.358899
 30
3.0
 11
13.0
 21
9.358899
 31
7.0
1001
AME_SOL
1070
     1
1071
       13
  0
LINE
  8
0
 62
     7
  5
46
 10
12.660254
 20
10.0
 30
3.0
 11
12.660254
 21
10.0
 31
7.0
1001
AME_SOL
1070
     1
1071
       12
  0
ARC
  8
0
 62
     7
  5
47
 10
4.0
 20
5.0
 30
7.0
 40
10.0
 50
25.841933
 51
30.0
1001
AME_SOL
1070
     1
1071
       11
  0
ARC
  8
0
 62
     7
  5
48
 10
4.0
 20
5.0
 30
7.0
 40
10.0
 50
330.0
 51
334.158067
1001
AME_SOL
1070
     1
1071
       10
  0
ENDBLK
  8
0
  5
49
  0
BLOCK
  8
0
  5
4D
  2
AME_JNK
 70
     0
 10
0.0
 20
0.0
 30
0.0
  1
AME_JNK
  3
AME_JNK
  0
ENDBLK
  8
0
  5
4E
  0
BLOCK
  8
0
  5
50
  2
SOLAXES
 70
     0
 10
0.0
 20
0.0
 30
0.0
  1
SOLAXES
  3
SOLAXES
  0
LINE
  8
0
 62
     0
  5
51
 10
0.0
 20
0.0
 30
0.0
 11
6.024948
 21
0.0
 31
0.0
  0
LINE
  8
0
 62
     0
  5
52
 10
0.0
 20
0.0
 30
0.0
 11
0.0
 21
6.024948
 31
0.0
  0
LINE
  8
0
 62
     0
  5
53
 10
0.0
 20
0.0
 30
0.0
 11
0.0
 21
0.0
 31
6.024948
  0
CIRCLE
  8
0
 62
     0
  5
54
 10
0.0
 20
0.0
 30
5.422453
 40
0.301247
210
1.0
220
0.0
230
0.0
  0
LINE
  8
0
 62
     0
  5
55
 10
5.422453
 20
0.301247
 30
0.0
 11
6.024948
 21
0.0
 31
0.0
  0
LINE
  8
0
 62
     0
  5
56
 10
5.422453
 20
0.0
 30
0.301247
 11
6.024948
 21
0.0
 31
0.0
  0
LINE
  8
0
 62
     0
  5
57
 10
5.422453
 20
-0.301247
 30
0.0
 11
6.024948
 21
0.0
 31
0.0
  0
LINE
  8
0
 62
     0
  5
58
 10
5.422453
 20
0.0
 30
-0.301247
 11
6.024948
 21
0.0
 31
0.0
  0
CIRCLE
  8
0
 62
     0
  5
59
 10
0.0
 20
0.0
 30
5.422453
 40
0.301247
210
0.0
220
1.0
230
0.0
  0
LINE
  8
0
 62
     0
  5
5A
 10
0.301247
 20
5.422453
 30
0.0
 11
0.0
 21
6.024948
 31
0.0
  0
LINE
  8
0
 62
     0
  5
5B
 10
0.0
 20
5.422453
 30
0.301247
 11
0.0
 21
6.024948
 31
0.0
  0
LINE
  8
0
 62
     0
  5
5C
 10
-0.301247
 20
5.422453
 30
0.0
 11
0.0
 21
6.024948
 31
0.0
  0
LINE
  8
0
 62
     0
  5
5D
 10
0.0
 20
5.422453
 30
-0.301247
 11
0.0
 21
6.024948
 31
0.0
  0
CIRCLE
  8
0
 62
     0
  5
5E
 10
0.0
 20
0.0
 30
4.819959
 40
0.301247
210
0.0
220
1.0
230
0.0
  0
LINE
  8
0
 62
     0
  5
5F
 10
0.301247
 20
4.819959
 30
0.0
 11
0.0
 21
5.422453
 31
0.0
  0
LINE
  8
0
 62
     0
  5
60
 10
0.0
 20
4.819959
 30
0.301247
 11
0.0
 21
5.422453
 31
0.0
  0
LINE
  8
0
 62
     0
  5
61
 10
-0.301247
 20
4.819959
 30
0.0
 11
0.0
 21
5.422453
 31
0.0
  0
LINE
  8
0
 62
     0
  5
62
 10
0.0
 20
4.819959
 30
-0.301247
 11
0.0
 21
5.422453
 31
0.0
  0
CIRCLE
  8
0
 62
     0
  5
63
 10
0.0
 20
0.0
 30
5.422453
 40
0.301247
  0
LINE
  8
0
 62
     0
  5
64
 10
0.301247
 20
0.0
 30
5.422453
 11
0.0
 21
0.0
 31
6.024948
  0
LINE
  8
0
 62
     0
  5
65
 10
0.0
 20
0.301247
 30
5.422453
 11
0.0
 21
0.0
 31
6.024948
  0
LINE
  8
0
 62
     0
  5
66
 10
-0.301247
 20
0.0
 30
5.422453
 11
0.0
 21
0.0
 31
6.024948
  0
LINE
  8
0
 62
     0
  5
67
 10
0.0
 20
-0.301247
 30
5.422453
 11
0.0
 21
0.0
 31
6.024948
  0
CIRCLE
  8
0
 62
     0
  5
68
 10
0.0
 20
0.0
 30
4.819959
 40
0.301247
  0
LINE
  8
0
 62
     0
  5
69
 10
0.301247
 20
0.0
 30
4.819959
 11
0.0
 21
0.0
 31
5.422453
  0
LINE
  8
0
 62
     0
  5
6A
 10
0.0
 20
0.301247
 30
4.819959
 11
0.0
 21
0.0
 31
5.422453
  0
LINE
  8
0
 62
     0
  5
6B
 10
-0.301247
 20
0.0
 30
4.819959
 11
0.0
 21
0.0
 31
5.422453
  0
LINE
  8
0
 62
     0
  5
6C
 10
0.0
 20
-0.301247
 30
4.819959
 11
0.0
 21
0.0
 31
5.422453
  0
CIRCLE
  8
0
 62
     0
  5
6D
 10
0.0
 20
0.0
 30
4.217464
 40
0.301247
  0
LINE
  8
0
 62
     0
  5
6E
 10
0.301247
 20
0.0
 30
4.217464
 11
0.0
 21
0.0
 31
4.819959
  0
LINE
  8
0
 62
     0
  5
6F
 10
0.0
 20
0.301247
 30
4.217464
 11
0.0
 21
0.0
 31
4.819959
  0
LINE
  8
0
 62
     0
  5
70
 10
-0.301247
 20
0.0
 30
4.217464
 11
0.0
 21
0.0
 31
4.819959
  0
LINE
  8
0
 62
     0
  5
71
 10
0.0
 20
-0.301247
 30
4.217464
 11
0.0
 21
0.0
 31
4.819959
  0
ENDBLK
  8
0
  5
72
  0
BLOCK
  8
0
  5
74
  2
*U8
 70
    65
 10
0.0
 20
0.0
 30
0.0
  1
*U
  3
*U
  0
POLYLINE
  8
0
 62
     7
  5
75
 66
     1
 10
0.0
 20
0.0
 30
0.0
 70
    64
  0
VERTEX
  8
0
  5
76
 10
13.0
 20
0.641101
 30
3.0
 70
   192
  0
VERTEX
  8
0
  5
77
 10
13.0
 20
0.0
 30
0.0
 70
   192
  0
VERTEX
  8
0
  5
78
 10
13.0
 20
10.0
 30
0.0
 70
   192
  0
VERTEX
  8
0
  5
79
 10
13.0
 20
0.641101
 30
7.0
 70
   192
  0
VERTEX
  8
0
  5
7A
 10
13.0
 20
9.358899
 30
3.0
 70
   192
  0
VERTEX
  8
0
  5
7B
 10
13.0
 20
10.0
 30
10.0
 70
   192
  0
VERTEX
  8
0
  5
7C
 10
13.0
 20
0.0
 30
10.0
 70
   192
  0
VERTEX
  8
0
  5
7D
 10
13.0
 20
9.358899
 30
7.0
 70
   192
  0
VERTEX
  8
0
 62
     7
  5
7E
 10
0.0
 20
0.0
 30
0.0
 70
   128
 71
    -1
 72
     2
 73
    -3
  0
VERTEX
  8
0
 62
     7
  5
7F
 10
0.0
 20
0.0
 30
0.0
 70
   128
 71
     1
 72
    -4
 73
    -2
  0
VERTEX
  8
0
 62
     7
  5
80
 10
0.0
 20
0.0
 30
0.0
 70
   128
 71
    -3
 72
     5
 73
    -1
  0
VERTEX
  8
0
 62
     7
  5
81
 10
0.0
 20
0.0
 30
0.0
 70
   128
 71
     3
 72
    -6
 73
    -5
  0
VERTEX
  8
0
 62
     7
  5
82
 10
0.0
 20
0.0
 30
0.0
 70
   128
 71
    -4
 72
     7
 73
    -2
  0
VERTEX
  8
0
 62
     7
  5
83
 10
0.0
 20
0.0
 30
0.0
 70
   128
 71
    -4
 72
     6
 73
    -7
  0
VERTEX
  8
0
 62
     7
  5
84
 10
0.0
 20
0.0
 30
0.0
 70
   128
 71
     4
 72
    -8
 73
    -6
  0
VERTEX
  8
0
 62
     7
  5
85
 10
0.0
 20
0.0
 30
0.0
 70
   128
 71
     8
 72
    -5
 73
    -6
  0
SEQEND
  8
0
 62
     7
  5
86
  0
POLYLINE
  8
0
 62
     7
  5
87
 66
     1
 10
0.0
 20
0.0
 30
0.0
 70
    64
  0
VERTEX
  8
0
  5
88
 10
13.0
 20
10.0
 30
10.0
 70
   192
  0
VERTEX
  8
0
  5
89
 10
13.0
 20
10.0
 30
0.0
 70
   192
  0
VERTEX
  8
0
  5
8A
 10
12.660254
 20
10.0
 30
7.0
 70
   192
  0
VERTEX
  8
0
  5
8B
 10
0.0
 20
10.0
 30
10.0
 70
   192
  0
VERTEX
  8
0
  5
8C
 10
0.0
 20
10.0
 30
7.0
 70
   192
  0
VERTEX
  8
0
  5
8D
 10
12.660254
 20
10.0
 30
3.0
 70
   192
  0
VERTEX
  8
0
  5
8E
 10
0.0
 20
10.0
 30
3.0
 70
   192
  0
VERTEX
  8
0
  5
8F
 10
0.0
 20
10.0
 30
0.0
 70
   192
  0
VERTEX
  8
0
 62
     7
  5
90
 10
0.0
 20
0.0
 30
0.0
 70
   128
 71
     1
 72
    -2
 73
    -3
  0
VERTEX
  8
0
 62
     7
  5
91
 10
0.0
 20
0.0
 30
0.0
 70
   128
 71
    -3
 72
     4
 73
    -1
  0
VERTEX
  8
0
 62
     7
  5
92
 10
0.0
 20
0.0
 30
0.0
 70
   128
 71
     3
 72
     5
 73
    -4
  0
VERTEX
  8
0
 62
     7
  5
93
 10
0.0
 20
0.0
 30
0.0
 70
   128
 71
    -2
 72
     6
 73
    -3
  0
VERTEX
  8
0
 62
     7
  5
94
 10
0.0
 20
0.0
 30
0.0
 70
   128
 71
    -2
 72
     7
 73
    -6
  0
VERTEX
  8
0
 62
     7
  5
95
 10
0.0
 20
0.0
 30
0.0
 70
   128
 71
     2
 72
     8
 73
    -7
  0
SEQEND
  8
0
 62
     7
  5
96
  0
POLYLINE
  8
0
 62
     7
  5
97
 66
     1
 10
0.0
 20
0.0
 30
0.0
 70
    64
  0
VERTEX
  8
0
  5
98
 10
13.0
 20
10.0
 30
10.0
 70
   192
  0
VERTEX
  8
0
  5
99
 10
0.0
 20
10.0
 30
10.0
 70
   192
  0
VERTEX
  8
0
  5
9A
 10
0.0
 20
0.0
 30
10.0
 70
   192
  0
VERTEX
  8
0
  5
9B
 10
13.0
 20
0.0
 30
10.0
 70
   192
  0
VERTEX
  8
0
 62
     7
  5
9C
 10
0.0
 20
0.0
 30
0.0
 70
   128
 71
     1
 72
     2
 73
    -3
  0
VERTEX
  8
0
 62
     7
  5
9D
 10
0.0
 20
0.0
 30
0.0
 70
   128
 71
     3
 72
     4
 73
    -1
  0
SEQEND
  8
0
 62
     7
  5
9E
  0
POLYLINE
  8
0
 62
     7
  5
9F
 66
     1
 10
0.0
 20
0.0
 30
0.0
 70
    64
  0
VERTEX
  8
0
  5
A0
 10
0.0
 20
0.0
 30
0.0
 70
   192
  0
VERTEX
  8
0
  5
A1
 10
0.0
 20
0.0
 30
3.0
 70
   192
  0
VERTEX
  8
0
  5
A2
 10
0.0
 20
10.0
 30
3.0
 70
   192
  0
VERTEX
  8
0
  5
A3
 10
0.0
 20
10.0
 30
0.0
 70
   192
  0
VERTEX
  8
0
  5
A4
 10
0.0
 20
0.0
 30
7.0
 70
   192
  0
VERTEX
  8
0
  5
A5
 10
0.0
 20
0.0
 30
10.0
 70
   192
  0
VERTEX
  8
0
  5
A6
 10
0.0
 20
10.0
 30
7.0
 70
   192
  0
VERTEX
  8
0
  5
A7
 10
0.0
 20
10.0
 30
10.0
 70
   192
  0
VERTEX
  8
0
 62
     7
  5
A8
 10
0.0
 20
0.0
 30
0.0
 70
   128
 71
     1
 72
     2
 73
    -3
  0
VERTEX
  8
0
 62
     7
  5
A9
 10
0.0
 20
0.0
 30
0.0
 70
   128
 71
     3
 72
     4
 73
    -1
  0
VERTEX
  8
0
 62
     7
  5
AA
 10
0.0
 20
0.0
 30
0.0
 70
   128
 71
     5
 72
    -6
 73
     7
  0
VERTEX
  8
0
 62
     7
  5
AB
 10
0.0
 20
0.0
 30
0.0
 70
   128
 71
     6
 72
     8
 73
    -7
  0
SEQEND
  8
0
 62
     7
  5
AC
  0
POLYLINE
  8
0
 62
     7
  5
AD
 66
     1
 10
0.0
 20
0.0
 30
0.0
 70
    64
  0
VERTEX
  8
0
  5
AE
 10
0.0
 20
0.0
 30
0.0
 70
   192
  0
VERTEX
  8
0
  5
AF
 10
13.0
 20
0.0
 30
0.0
 70
   192
  0
VERTEX
  8
0
  5
B0
 10
12.660254
 20
0.0
 30
3.0
 70
   192
  0
VERTEX
  8
0
  5
B1
 10
13.0
 20
0.0
 30
10.0
 70
   192
  0
VERTEX
  8
0
  5
B2
 10
0.0
 20
0.0
 30
3.0
 70
   192
  0
VERTEX
  8
0
  5
B3
 10
12.660254
 20
0.0
 30
7.0
 70
   192
  0
VERTEX
  8
0
  5
B4
 10
0.0
 20
0.0
 30
7.0
 70
   192
  0
VERTEX
  8
0
  5
B5
 10
0.0
 20
0.0
 30
10.0
 70
   192
  0
VERTEX
  8
0
 62
     7
  5
B6
 10
0.0
 20
0.0
 30
0.0
 70
   128
 71
     1
 72
    -2
 73
    -3
  0
VERTEX
  8
0
 62
     7
  5
B7
 10
0.0
 20
0.0
 30
0.0
 70
   128
 71
     2
 72
    -4
 73
    -3
  0
VERTEX
  8
0
 62
     7
  5
B8
 10
0.0
 20
0.0
 30
0.0
 70
   128
 71
     3
 72
     5
 73
    -1
  0
VERTEX
  8
0
 62
     7
  5
B9
 10
0.0
 20
0.0
 30
0.0
 70
   128
 71
    -4
 72
     6
 73
    -3
  0
VERTEX
  8
0
 62
     7
  5
BA
 10
0.0
 20
0.0
 30
0.0
 70
   128
 71
    -4
 72
     7
 73
    -6
  0
VERTEX
  8
0
 62
     7
  5
BB
 10
0.0
 20
0.0
 30
0.0
 70
   128
 71
     4
 72
     8
 73
    -7
  0
SEQEND
  8
0
 62
     7
  5
BC
  0
POLYLINE
  8
0
 62
     7
  5
BD
 66
     1
 10
0.0
 20
0.0
 30
0.0
 70
    64
  0
VERTEX
  8
0
  5
BE
 10
13.0
 20
0.0
 30
0.0
 70
   192
  0
VERTEX
  8
0
  5
BF
 10
0.0
 20
10.0
 30
0.0
 70
   192
  0
VERTEX
  8
0
  5
C0
 10
13.0
 20
10.0
 30
0.0
 70
   192
  0
VERTEX
  8
0
  5
C1
 10
0.0
 20
0.0
 30
0.0
 70
   192
  0
VERTEX
  8
0
 62
     7
  5
C2
 10
0.0
 20
0.0
 30
0.0
 70
   128
 71
    -1
 72
     2
 73
     3
  0
VERTEX
  8
0
 62
     7
  5
C3
 10
0.0
 20
0.0
 30
0.0
 70
   128
 71
     1
 72
     4
 73
    -2
  0
SEQEND
  8
0
 62
     7
  5
C4
  0
POLYLINE
  8
0
 62
     7
  5
C5
 66
     1
 10
0.0
 20
0.0
 30
0.0
 70
    64
  0
VERTEX
  8
0
  5
C6
 10
0.0
 20
0.0
 30
7.0
 70
   192
  0
VERTEX
  8
0
  5
C7
 10
13.0
 20
0.641101
 30
7.0
 70
   192
  0
VERTEX
  8
0
  5
C8
 10
12.660254
 20
10.0
 30
7.0
 70
   192
  0
VERTEX
  8
0
  5
C9
 10
0.0
 20
10.0
 30
7.0
 70
   192
  0
VERTEX
  8
0
  5
CA
 10
13.0
 20
9.358899
 30
7.0
 70
   192
  0
VERTEX
  8
0
  5
CB
 10
12.660254
 20
0.0
 30
7.0
 70
   192
  0
VERTEX
  8
0
 62
     7
  5
CC
 10
0.0
 20
0.0
 30
0.0
 70
   128
 71
    -1
 72
    -3
 73
    -2
  0
VERTEX
  8
0
 62
     7
  5
CD
 10
0.0
 20
0.0
 30
0.0
 70
   128
 71
    -3
 72
     1
 73
     4
  0
VERTEX
  8
0
 62
     7
  5
CE
 10
0.0
 20
0.0
 30
0.0
 70
   128
 71
    -2
 72
     3
 73
     5
  0
VERTEX
  8
0
 62
     7
  5
CF
 10
0.0
 20
0.0
 30
0.0
 70
   128
 71
    -1
 72
     2
 73
     6
  0
SEQEND
  8
0
 62
     7
  5
D0
  0
POLYLINE
  8
0
 62
     7
  5
D1
 66
     1
 10
0.0
 20
0.0
 30
0.0
 70
    64
  0
VERTEX
  8
0
  5
D2
 10
12.660254
 20
10.0
 30
3.0
 70
   192
  0
VERTEX
  8
0
  5
D3
 10
13.0
 20
0.641101
 30
3.0
 70
   192
  0
VERTEX
  8
0
  5
D4
 10
0.0
 20
0.0
 30
3.0
 70
   192
  0
VERTEX
  8
0
  5
D5
 10
13.0
 20
9.358899
 30
3.0
 70
   192
  0
VERTEX
  8
0
  5
D6
 10
0.0
 20
10.0
 30
3.0
 70
   192
  0
VERTEX
  8
0
  5
D7
 10
12.660254
 20
0.0
 30
3.0
 70
   192
  0
VERTEX
  8
0
 62
     7
  5
D8
 10
0.0
 20
0.0
 30
0.0
 70
   128
 71
    -1
 72
    -3
 73
    -2
  0
VERTEX
  8
0
 62
     7
  5
D9
 10
0.0
 20
0.0
 30
0.0
 70
   128
 71
    -1
 72
     2
 73
     4
  0
VERTEX
  8
0
 62
     7
  5
DA
 10
0.0
 20
0.0
 30
0.0
 70
   128
 71
    -3
 72
     1
 73
     5
  0
VERTEX
  8
0
 62
     7
  5
DB
 10
0.0
 20
0.0
 30
0.0
 70
   128
 71
    -2
 72
     3
 73
     6
  0
SEQEND
  8
0
 62
     7
  5
DC
  0
POLYLINE
  8
0
 62
     7
  5
DD
 66
     1
 10
0.0
 20
0.0
 30
0.0
 70
    64
  0
VERTEX
  8
0
  5
DE
 10
12.660254
 20
0.0
 30
7.0
 70
   192
  0
VERTEX
  8
0
  5
DF
 10
12.660254
 20
0.0
 30
3.0
 70
   192
  0
VERTEX
  8
0
  5
E0
 10
13.0
 20
0.641101
 30
7.0
 70
   192
  0
VERTEX
  8
0
  5
E1
 10
13.0
 20
0.641101
 30
3.0
 70
   192
  0
VERTEX
  8
0
  5
E2
 10
13.0
 20
9.358899
 30
7.0
 70
   192
  0
VERTEX
  8
0
  5
E3
 10
13.0
 20
9.358899
 30
3.0
 70
   192
  0
VERTEX
  8
0
  5
E4
 10
12.660254
 20
10.0
 30
3.0
 70
   192
  0
VERTEX
  8
0
  5
E5
 10
12.660254
 20
10.0
 30
7.0
 70
   192
  0
VERTEX
  8
0
 62
     7
  5
E6
 10
0.0
 20
0.0
 30
0.0
 70
   128
 71
     1
 72
    -3
 73
     2
  0
VERTEX
  8
0
 62
     7
  5
E7
 10
0.0
 20
0.0
 30
0.0
 70
   128
 71
    -2
 72
     3
 73
     4
  0
VERTEX
  8
0
 62
     7
  5
E8
 10
0.0
 20
0.0
 30
0.0
 70
   128
 71
    -5
 72
     7
 73
     6
  0
VERTEX
  8
0
 62
     7
  5
E9
 10
0.0
 20
0.0
 30
0.0
 70
   128
 71
    -7
 72
     5
 73
     8
  0
SEQEND
  8
0
 62
     7
  5
EA
  0
ENDBLK
  8
0
  5
EB
  0
ENDSEC
  0
SECTION
  2
ENTITIES
  0
INSERT
  8
ASHADE
 62
     1
  5
3
  2
AVE_RENDER
 10
0.0
 20
0.0
 30
0.0
1001
AVE_RENDER
1002
{
1070
     2
1000
Pref
1070
    30
1070
    20
1070
     0
1070
     0
1000

1070
    10
1070
     0
1070
    30
1040
1.0
1070
     1
1040
0.3
1040
0.7
1040
0.0
1040
10.0
1010
-1.0
1020
-1.0
1030
-1.0
1040
0.3
1070
    49
1002
}
  0
INSERT
  8
ASHADE
 62
     3
  5
4
  2
AVE_RENDER
 10
0.0
 20
0.0
 30
0.0
1001
AVE_RENDER
1002
{
1070
     0
1000
Full Opt
1070
     0
1070
     1
1070
     1
1070
     1
1070
     0
1070
     0
1070
     0
1070
     1
1070
     1
1040
0.0001
1040
0.0001
1002
}
  0
INSERT
  8
ASHADE
 62
     4
  5
5
  2
AVE_RENDER
 10
0.0
 20
0.0
 30
0.0
1001
AVE_RENDER
1002
{
1070
     0
1000
Quick Opt
1070
     0
1070
     1
1070
     1
1070
     1
1070
     0
1070
     0
1070
     1
1002
}
  0
INSERT
  8
AME_FRZ
  5
8
  2
AME_NIL
 10
0.0
 20
0.0
 30
0.0
  0
INSERT
  8
AME_FRZ
  5
B
  2
AME_SOL
 10
0.0
 20
0.0
 30
0.0
1001
AME_SOL
1000
R2.1
1000
AME2
1000
sq cm
1070
     3
1070
     0
1070
     3
1000
wire
1040
45.0
1000
U
1040
1.0
1000
cm
1000
gm
1000
MILD_STEEL
1070
    25
1000
CSG
1070
     1
1070
     3
1070
     3
1070
     3
1070
     0
1000
cu cm
1070
     1
1070
     0
1005
8
  0
INSERT
  8
AME_FRZ
  5
1A
  2
AME_NIL
 10
0.0
 20
0.0
 30
0.0
1001
AME_SOL
1002
{
1070
     1
1071
  2452024
1070
  1536
1070
     1
1010
13.0
1020
10.0
1030
10.0
1005
0
1005
0
1005
4A
1040
0.0
1040
1.0
1070
     0
1000
MILD_STEEL
1000
0
1010
0.0
1020
0.0
1030
0.0
1010
0.0
1020
0.0
1030
1.0
1040
0.0
1002
}
1001
AVE_INVOKE
1000
SOLAVEMESH
  0
INSERT
  8
AME_FRZ
  5
26
  2
AME_NIL
 10
4.0
 20
5.0
 30
3.0
1001
AME_SOL
1002
{
1070
     1
1071
  2433608
1070
  1538
1070
     1
1010
10.0
1020
10.0
1030
4.0
1005
0
1005
0
1005
4A
1040
0.0
1040
1.0
1070
     0
1000
MILD_STEEL
1000
0
1010
4.0
1020
5.0
1030
3.0
1010
0.0
1020
0.0
1030
1.0
1040
0.0
1002
}
1001
AVE_INVOKE
1000
SOLAVEMESH
  0
INSERT
  8
0
  5
4A
  2
*U5
 10
0.0
 20
0.0
 30
0.0
 50
270.0
210
1.0
220
0.0
230
0.0000000000000001
1001
AME_SOL
1002
{
1070
     1
1071
  2409808
1070
  9735
1070
    11
1070
     0
1005
1A
1005
26
1005
EC
1005
4B
1005
0
1040
809.215636
1040
1.0
1070
     0
1000
MILD_STEEL
1000
0
1002
}
1001
AVE_INVOKE
1000
SOLAVEMESH
  0
INSERT
  8
AME_FRZ
  5
4B
  2
AME_NIL
 10
1.0
 20
1.0
 30
1.0
1001
AME_SOL
1004
C7CF01002B019501940192018E01860178016A01800057013D012900240119001E00D5006B0158018E00F700590184003E010400570079016C015A01D8007E005B013F01250126001A0103000600070040015B003B00020087017A016D01C00025003F007B0120006E015C0123004E0096008F0188017C01
1004
080054007D01FE004F0089017E01E2000100FF00930190018A017F016F015D01410158002601AB00C400420127011D00B00028012F00EF005E01EE0043019F00E0002A0080011000BF008B01810170015F014401EA0052004501600029011B011001B7000F009100980075007101600118004601DF002A01
1004
5F009200610147012B015D0011002C0166008F0048012D0173008C002E014200EB0082017201620149012F01A3004D003001DC001C01FA006F004A0131011D016E00A2001E01D400640032011F01BE001101B2002800200112013200010109000001130102010B009A0003010D00220063014B0133012101
1004
140104012B00310005013C009E00150106013D003E000701E60089002201160108018800E40009018600850017010A014800CB000B015C00CA007000A400F00091018C018301730164014C017B0012004D01D0007F0065014E013401230118010C01C900C8000D016300BD0019010E01BC00BB000F01BA00
1004
A900810005004F01E800830074016601500121003501C100A80051013601F200380037017C00DD00270040008D0184017501670152012E00F8005301300038010C00FB006801540139011A002C003A012D0037001400760182007100850177016901550134003B01D100FD0056011C003C01FC001B009000
1004
240000005005250052623B8E6DE639CFA8415675378C61459292A0818C28B2527310E8630A2C97A9A4ECECD121C96AB2ECECD121C0D49D9D9A243ED37B8ECA1118C28B25254103185164A4E62130B86A207AA82AD49D9D9A24392D565D9D9A24381AC830A2C949E4D36A01D70BC04CE7CDAD37A8077FD717
1004
FFFFFFF5C5FFFD26FEE6DFC86B17FBEDFDF6FFFFFFA8077FD717FFFFFFF5C5FFFD26FEE6DFC86B17FBEDFDF6FFFFFEBA6B0A802971EA7FD717FFFFFFF5C5FFFD50417F736FE4343BB57D58545815D09553B57D58545815D09558DFEB0A803E3D4FFAE2FFFFFFFEB8BFEB34739CE75196FEE623F21A1DDABE
1004
AC2A2C0AE84AA9DABEAC2A2C0AE84AAC6FF585406F1EA7FD717FFFFFFF5C5FFFDC96FEE6DFC868776AFAB0A8B02BA12AA76AFAB0A8B02BA12AB1BFD615078F53FEB8BFFFFFFFAE2FFACD1CE739D465BFB81BF90D0EED5F56151605742554ED5F5615160574255637FB8ECA0538C61459292A0818C28B2527
1004
310985C35103D54156A4ECECD121C96AB2ECECD121C0D5790378D0CC98C434D830EA002C3939F36B4FE0C3BFEB8BFFFFFC07EBA7FC07E937F736FE4358BFFFFFFFFFF061DFF5C5FFFFFE03F5D3FE03F49BFB9B7F21AC5FFFFFFFFFEBA6E3B2814E3185164A4A820630A2C949CC421D0435054090779DA93B
1004
3B3448725AACBB3B344870359061459293C9A6C1875518EFCE7CDB103830EFFAE2FFFFFFFEB8BFFFA4DFDCDBFBC9AC5FFFFFFFFFF830EFFAE2FFFFFFFEB8BFFFA4DFDCDBFBC9AC5FFFFFFFFFEBA6E3B280EBA18C28B25EA6E8630A2C97A9BA18C28B25EA693B3B344845A93B3B34487DAE8630A2C97A29B0
1004
61D00C4BF379B59C37061DFFFF5C5FFFD717FFFFFFFFFD8BFFFFFFFFFF061DFFFF5C5FFFD717FFFFFFFFFD8BFFFFFFFFFD715C76508BA18C28B25EA6E8630A2C97A9BA18C28B25EA693B3B344845AE8630A2C97A2A4ECECD121F69B061D7130DF9BCDAD04DC1877FD717FFFFFFFFF5C5FFFFFF62FFFFFFFF
1004
FFC1877FD717FFFFFFFFF5C5FFFFFF62FFFFFFFFFF5C571D9422E8630A2C97A9BA18C28B25EA6E8630A2C97A9BA18C28B25E8A93B3B34487DA93B3B34487DA6C187584C07E6F36E237061DFFFFFF5C5FFFD717FFFFFFFD8BFFFFFFFFFF061DFFFFFF5C5FFFD717FFFFFFFD8BFFFFFFFFFD715C76501D7431
1004
85164BD4DD0C614592F535C1210060A38D49D9D9A2422D49D9D9A243ED49D9D9A243ED360C3AC6659F9BCDA0C6E0C3BFEBA7FC07F01FC07EBA7FC07E8B7F7DBFBED62FFFFFFFFFFC1877FD74FF80FE03F80FD74FF80FD16FEFB7F7DAC5FFFFFFFFFEB8AE3B2845D0C614592F535C1210060A38D743185164
1004
BD4D2767668908B5276766890FB5276766890FB4D830EC25F9BCDB80DC1877FE03F80FD74FF5D3FE03F80FD16FEFB7F7DAC5FFFFFFFFFF830EFFC07F01FAE9FEBA7FC07F01FA2DFDF6FEFB58BFFFFFFFFFD715C76508AE090803050235D0C614592F53743185164BD4D2767668908B5276766890FB527676
1004
6890FB4D830EAD582266F36E51B830EFFC07EBA7FC07F01FC07EBA7FA2DFDF6FEFB58BFFFFFFFFFF061DFF80FD74FF80FE03F80FD74FF45BFBEDFDF6B17FFFFFFFFFAE2ADA10C61459292A0818C28B252731087410D4150241DE76A4ECECD121C96AB2ECECD121C0D64185164A4F26AB4AE394CAA859243A
1004
6A3B815756D0CCBAC49877994B19884279B39DC2F0135463BFC3AA31DFB85E026739CE739CEF329FF5C5FFFFFFFD717FFF49BFB9B7F79341DFDF6FEFB55A571CA65542C921D351DC0ABAB68665D624D6D08630A2C9495040C6145929398843A086A0A8120EF3B5276766890E4B55976766890E06B20C28B2
1004
52793547702AEADA199758855695C7299550B2487143BCCA5935109E6CE770BC04D518EFF0EA8C77EE178099CE739CE73BCCA7FD717FFFFFFF5C5FFFD26FEE6DFDE4D077F7DBFBED51DC0ABAB68665D62155A571CA65542C921C55B42743185164BD4D7048401828E3530B86A207AA82AD49D9D9A2422D49
1004
D9D9A243ED64185164A4F26FFFE93438F528059F09E739B70BC04E12FF0EE17809C25F9CE739BC7A9FF5C5FFFFFFFD717FD4083396F138CA10237F7DBF90D0FFFFA4D5B425C1210060A046BA18C28B25EA6985C35103D54156A4ECECD12116A4ECECD121F6B20C28B2527937FFF49A1C7A9620AD1DFE6CE7
1004
70BC04D6AC113C3AD58226E178099BCE739C7A9FF5C5FFFFFFFD717FFF45AF3050B38B3D64946167EDFC8687FFFD26ADA12E090803050235D0C614592F534C2E1A881EAA0AB52767668908B5276766890FB59061459293C9BFFFA4D0E3D4B89EBFCE736E17809AD582278770BC04D6AC11339CE7378F53FE
1004
B8BFFFFFFFAE2FFFE8B55E7ACBAD3968CC75A48BF90D0FFFFA4D5B42743185164BD4DD0C614592F534C2E1A881EAA0AB52767668908B5D0C614592F4564185164A4F26FFFE93438F52A8B437F9B39DC2F0137130DFE1DC4C37EE178099BCE739C7A9FF5C5FFFFFFFD717FD4083396F138CA10237FFF21A1F
1004
FFF49AB6843185164A4A820630A2C949CC426170D440F55055A93B3B3448725AACBB3B344870355E40DE343326310D5695C7299550B24874D47702AEADA199758930EF329512CF028E739B70BC04D00161CE1DC2F0134005872739CE739CEF329FF5C5FFFFFFFD717FFF49BFB9B7F21A0EFEFB7F7DAAD2B8
1004
E532AA16490E9A8EE055D5B4332EB126B6843185164A4A820630A2C949CC426170D440F55055A93B3B3448725AACBB3B344870355E40DE343326310D51DC0ABAB68665D62155A571CA65542C921C50EF3296318279CE6DC2F01340058738770BC04D00161C9CE739CE73BCCA7FD717FFFFFFF5C5FFFD26FE
1004
E6DFC8683BFBEDFDF6A8EE055D5B4332EB10AAD2B8E532AA16490E2ADA13A18C28B25EA6B824200C1471A985C35103D54156A4ECECD12116A4ECECD121F6ABC81BC68664C621AB2956590B240A5B4847EC86871EA5937AFF3673A002C3984BFC3C25FA002C39379CE738F53FFFEB8BFFFFFFFAE9FEC86FEF
1004
B7F21A1D652ACB2164814B6908FD90D5B425C1210060A046BA18C28B25EA6985C35103D54156A4ECECD12116A4ECECD121F6ABC81BC68664C621AB1961596F063AC779C4319CB51AF138CB31E31438F5210C467F9B39D00161CAD58227875AB044D00161C9BCE739C7A9FF5C5FFFFFFFFFD74FF45BF816DF
1004
C868758CB0ACB7831D63BCE218CE5A8D789C6598F18AB684E8630A2C97A9BA18C28B25EA6985C35103D54156BA18C28B25E8A93B3B34487DAAF206F1A19931886FE0588FC1CD0E3D4843115FE6CE74005872C2603FC3B0980FD00161C9BCE739C7A9FF5D3FFFFFFFFFD74FFFF0737F21A1FF02C47E0E6ADA
1004
13A18C28B25EA6E8630A2C97A9A6170D440F55055A93B3B344845AE8630A2C97A2ABC81BC68664C621BFC42810672DE27194225A1C7A9633111FE6CE74005872E261BFC3B8986FD00161C9BCE739C7A9FFFF5D3FFFFFFFD74FFB7FFF21A1FF885020CE5BC4E32844B56D09D0C614592F535C1210060A38D4
1004
3A086A0A8120EF3B52767668908B5276766890FB59061459293C9BFB2042CA559642C90296D26871EA5C2C437F9B39D518EFE12FF0F097EA8C77E6F39CE71EA7FFFD717FFFFFFF5C5FD90DFDF6FEF2687FD9021652ACB2164814B69356D09704840182811AE8630A2C97A9A1D0435054090779DA93B3B344
1004
845A93B3B34487DAC830A2C949E4D63396A35E2719663C69AC658565BC18EB1DE76871EA614C4F3673AA31DFAD58227875AB044D518EFCDE739CE3D4FFAE2FFFFFF01FFFAE2FE8B7F02DBFBC9A1D8CE5A8D789C6598F1A6B1961596F063AC779DAB684E8630A2C97A9BA18C28B25EA687410D4150241DE76
1004
BA18C28B25E8A93B3B34487DAC830A2C949E4DFC1C23F02DA1C7A9482A279B39D518EFD84C07F8761301FAA31DF9BCE739C7A9FF5D3FFFFFFFFFD717FFF0737F79343FE0E11F816D5B42743185164BD4DD0C614592F5343A086A0A8120EF3B52767668908B5D0C614592F4564185164A4F26A810672DE271
1004
9422447F6871EA46204F3673AA31DFB8986FF0EE261BF5463BF379CE738F53FFFEBA7FFFFFFFAE2FF6FFFEF26875020CE5BC4E3284488FED5B42743185164BD4D7048401828E35D0C614592F5349D9D9A2422D49D9D9A243ED743185164BD17F72047EE43438F52C65A5BFCE73601897F097F8700C4BF84B
1004
F379BC7A9FFFF5C5FFFFFFFD74FF721BFBEDFF0FFB9023F721AB684B824200C1408D743185164BD4DD0C614592F5349D9D9A2422D49D9D9A243ED743185164BD17F7311FB9B438F52E15A53FCE73601897EB56089E1C0312FD6AC113379BC7A9FF5C5FFFFFFFFFD74FF45BFB9B7FC3FEE623F736ADA13A18
1004
C28B25EA6E8630A2C97A9BA18C28B25EA6E8630A2C97A2A4ECECD121F6BA18C28B25E8BFBE23F800E3D490B487F9CE6C0312FD84C07F8700C4BF61301F9BCDE3D4FFAE9FFFFFFFFFEBA7FFFFFE1FF7C47F00B684E8630A2C97A9BA18C28B25EA6E8630A2C97A9A4ECECD12116BA18C28B25E8AE8630A2C97
1004
A2FFFE8B438F52C666279CE6C0312FDC4C37F8700C4BF7130DF9BCDE3D4FFFFAE9FFFFFFFEBA7FFFFFE1FFFF45AB684E8630A2C97A9BA18C28B25EA6B824200C1471A93B3B344845AE8630A2C97A2A4ECECD121F6FEE408FDC86871EA5C2B36279CE6DC4C37EC6659FE1DC4C37EC6659F9BCDE3D4FFFFFFA
1004
E2FFFEBA7FFFB90DFFFDF687FDC811FB90D5B425C1210060A046BA18C28B25EA6E8630A2C97A9A4ECECD12116BA18C28B25E8A93B3B34487DBFB988FDCDA1C7A921113CE736E261BF5AB044F0EE261BF5AB044CDE6F1EA7FD717FFFFFFF5D3FFFD16FFFEE6D0FFB988FDCDAB684E8630A2C97A9BA18C28B2
1004
5EA6E8630A2C97A9BA18C28B25E8AE8630A2C97A2A4ECECD121F6FFFE43438F52A8B4013CE736E261BF61301FE1DC4C37EC2603F379BC7A9FF5D3FFFFFFFD74FFFFFFFFC3FFFE4356D09D0C614592F53743185164BD4DD0C614592F53743185164BD15D0C614592F4549D9D9A243EDFDE4DFDF6871EA566D
1004
C913CE736E261BF61301FE1DC4C37EC2603F379BC7A9FF5D3FFFFFFFD74FFFFFFFFC3FEF26FEFB56D09D0C614592F53743185164BD4D7048401828E35D0C614592F4549D9D9A243ED49D9D9A243EDFDCC47EE6D0E3D4B2AE509E739B61301FB19967F8761301FB19967E6F378F53FFFFFEB8BFAE9FFFFFFF
1004
EE6DFDF687FDCC47EE6D5B42743185164BD4D7048401828E35D0C614592F53743185164BD15276766890FB5276766890FB7F7311FC4071EA5698E013CE736C2603F84BFC3B0980FE12FCDE6F1EA7FFFD717FFF5D3FFFFFFFDF6FEE6D0FFB988FE216D09D0C614592F535C1210060A38D743185164BD4DD0C
1004
614592F4549D9D9A243ED49D9D9A243EDFEDFDCDA1C7A9482E14739CDB0980FE12FF0EC2603F84BF379BC7A9FFFF5C5FFFD74FFFFFFFF7DBFB9B43FF6FEE6D5B42743185164BD4D7048401828E357048401828E352767668908B5276766890FB5276766890FB7F4447F001C7A9AD0828E739B6332CFE12FF
1004
0EC6659FC25F9BCDE3D4FFFFAE2FFFFFFFEB8BFA2DFDF6FEFB43FE888FE016D09704840182811AE8630A2C97A9AE090803051C6A4ECECD12116A4ECECD121F6A4ECECD121F6FFFEFB438F52E25A2051CE736C6659FAD58227876332CFD6AC113379BC7A9FF5C5FFFFFE03FFF5C5FD16FEFB7F7DA1FFFF7DA
1004
B684B824200C1408D5C1210060A38D743185164BD4D2767668908B5276766890FB5276766890FB7F7C47F001C7A9512D1428E739B84BF5AB044F0F097EB560899BCDE3D4FFAE2FFFFFFFEB8BFFFA2DFDF6FEFB43FEF88FE000A799677D
1005
4C
  0
INSERT
  8
AME_FRZ
  5
4C
  2
AME_NIL
 10
1.0
 20
1.0
 30
1.0
1001
AME_SOL
1004

1005
0
  0
INSERT
  8
AME_FRZ
  5
EC
  2
*U8
 10
0.0
 20
0.0
 30
0.0
  0
ENDSEC
  0
EOF
