  0
SECTION
  2
HEADER
  9
$ACADVER
  1
AC1009
  9
$INSBASE
 10
0.0
 20
0.0
 30
0.0
  9
$EXTMIN
 10
0.0
 20
0.0
 30
0.0
  9
$EXTMAX
 10
10.0
 20
10.0
 30
10.0
  9
$LIMMIN
 10
0.0
 20
0.0
  9
$LIMMAX
 10
12.0
 20
9.0
  9
$ORTHOMODE
 70
     0
  9
$REGENMODE
 70
     1
  9
$FILLMODE
 70
     1
  9
$QTEXTMODE
 70
     0
  9
$MIRRTEXT
 70
     1
  9
$DRAGMODE
 70
     2
  9
$LTSCALE
 40
1.0
  9
$OSMODE
 70
     0
  9
$ATTMODE
 70
     1
  9
$TEXTSIZE
 40
0.2
  9
$TRACEWID
 40
0.05
  9
$TEXTSTYLE
  7
STANDARD
  9
$CLAYER
  8
0
  9
$CELTYPE
  6
BYLAYER
  9
$CECOLOR
 62
   256
  9
$DIMSCALE
 40
1.0
  9
$DIMASZ
 40
0.18
  9
$DIMEXO
 40
0.0625
  9
$DIMDLI
 40
0.38
  9
$DIMRND
 40
0.0
  9
$DIMDLE
 40
0.0
  9
$DIMEXE
 40
0.18
  9
$DIMTP
 40
0.0
  9
$DIMTM
 40
0.0
  9
$DIMTXT
 40
0.18
  9
$DIMCEN
 40
0.09
  9
$DIMTSZ
 40
0.0
  9
$DIMTOL
 70
     0
  9
$DIMLIM
 70
     0
  9
$DIMTIH
 70
     1
  9
$DIMTOH
 70
     1
  9
$DIMSE1
 70
     0
  9
$DIMSE2
 70
     0
  9
$DIMTAD
 70
     0
  9
$DIMZIN
 70
     0
  9
$DIMBLK
  1

  9
$DIMASO
 70
     1
  9
$DIMSHO
 70
     1
  9
$DIMPOST
  1

  9
$DIMAPOST
  1

  9
$DIMALT
 70
     0
  9
$DIMALTD
 70
     2
  9
$DIMALTF
 40
25.4
  9
$DIMLFAC
 40
1.0
  9
$DIMTOFL
 70
     0
  9
$DIMTVP
 40
0.0
  9
$DIMTIX
 70
     0
  9
$DIMSOXD
 70
     0
  9
$DIMSAH
 70
     0
  9
$DIMBLK1
  1

  9
$DIMBLK2
  1

  9
$DIMSTYLE
  2
*UNNAMED
  9
$DIMCLRD
 70
     0
  9
$DIMCLRE
 70
     0
  9
$DIMCLRT
 70
     0
  9
$DIMTFAC
 40
1.0
  9
$DIMGAP
 40
0.09
  9
$LUNITS
 70
     2
  9
$LUPREC
 70
     4
  9
$SKETCHINC
 40
0.1
  9
$FILLETRAD
 40
0.0
  9
$AUNITS
 70
     0
  9
$AUPREC
 70
     0
  9
$MENU
  1
acad
  9
$ELEVATION
 40
0.0
  9
$PELEVATION
 40
0.0
  9
$THICKNESS
 40
0.0
  9
$LIMCHECK
 70
     0
  9
$BLIPMODE
 70
     1
  9
$CHAMFERA
 40
0.0
  9
$CHAMFERB
 40
0.0
  9
$SKPOLY
 70
     0
  9
$TDCREATE
 40
2449202.593146562
  9
$TDUPDATE
 40
2449202.596715740
  9
$TDINDWG
 40
0.0035691782
  9
$TDUSRTIMER
 40
0.0035691782
  9
$USRTIMER
 70
     1
  9
$ANGBASE
 50
0.0
  9
$ANGDIR
 70
     0
  9
$PDMODE
 70
     0
  9
$PDSIZE
 40
0.0
  9
$PLINEWID
 40
0.0
  9
$COORDS
 70
     0
  9
$SPLFRAME
 70
     0
  9
$SPLINETYPE
 70
     6
  9
$SPLINESEGS
 70
     8
  9
$ATTDIA
 70
     0
  9
$ATTREQ
 70
     1
  9
$HANDLING
 70
     1
  9
$HANDSEED
  5
97
  9
$SURFTAB1
 70
     6
  9
$SURFTAB2
 70
     6
  9
$SURFTYPE
 70
     6
  9
$SURFU
 70
     6
  9
$SURFV
 70
     6
  9
$UCSNAME
  2

  9
$UCSORG
 10
0.0
 20
0.0
 30
0.0
  9
$UCSXDIR
 10
1.0
 20
0.0
 30
0.0
  9
$UCSYDIR
 10
0.0
 20
1.0
 30
0.0
  9
$PUCSNAME
  2

  9
$PUCSORG
 10
0.0
 20
0.0
 30
0.0
  9
$PUCSXDIR
 10
1.0
 20
0.0
 30
0.0
  9
$PUCSYDIR
 10
0.0
 20
1.0
 30
0.0
  9
$USERI1
 70
     0
  9
$USERI2
 70
     0
  9
$USERI3
 70
     0
  9
$USERI4
 70
     0
  9
$USERI5
 70
     0
  9
$USERR1
 40
0.0
  9
$USERR2
 40
0.0
  9
$USERR3
 40
0.0
  9
$USERR4
 40
0.0
  9
$USERR5
 40
0.0
  9
$WORLDVIEW
 70
     1
  9
$SHADEDGE
 70
     3
  9
$SHADEDIF
 70
    70
  9
$TILEMODE
 70
     1
  9
$MAXACTVP
 70
    16
  9
$PINSBASE
 10
0.0
 20
0.0
 30
0.0
  9
$PLIMCHECK
 70
     0
  9
$PEXTMIN
 10
1.000000E+20
 20
1.000000E+20
 30
1.000000E+20
  9
$PEXTMAX
 10
-1.000000E+20
 20
-1.000000E+20
 30
-1.000000E+20
  9
$PLIMMIN
 10
0.0
 20
0.0
  9
$PLIMMAX
 10
12.0
 20
9.0
  9
$UNITMODE
 70
     0
  9
$VISRETAIN
 70
     0
  9
$PLINEGEN
 70
     0
  9
$PSLTSCALE
 70
     0
  9
$TREEDEPTH
 70
  3020
  9
$DWGCODEPAGE
  3
undefined
  0
ENDSEC
  0
SECTION
  2
TABLES
  0
TABLE
  2
VPORT
 70
     2
  0
VPORT
  2
*ACTIVE
 70
     0
 10
0.0
 20
0.0
 11
1.0
 21
1.0
 12
5.951095
 22
0.0
 13
0.0
 23
0.0
 14
1.0
 24
1.0
 15
0.0
 25
0.0
 16
1.0
 26
1.0
 36
1.0
 17
0.0
 27
0.0
 37
0.0
 40
16.329932
 41
1.594883
 42
50.0
 43
0.0
 44
0.0
 50
0.0
 51
0.0
 71
     0
 72
   100
 73
     1
 74
     1
 75
     0
 76
     0
 77
     0
 78
     0
  0
ENDTAB
  0
TABLE
  2
LTYPE
 70
     1
  0
LTYPE
  2
CONTINUOUS
 70
    64
  3
Solid line
 72
    65
 73
     0
 40
0.0
  0
ENDTAB
  0
TABLE
  2
LAYER
 70
     2
  0
LAYER
  2
0
 70
    64
 62
     7
  6
CONTINUOUS
  0
LAYER
  2
AME_FRZ
 70
    65
 62
     7
  6
CONTINUOUS
  0
ENDTAB
  0
TABLE
  2
STYLE
 70
     1
  0
STYLE
  2
STANDARD
 70
     0
 40
0.0
 41
1.0
 50
0.0
 71
     0
 42
0.2
  3
txt
  4

  0
ENDTAB
  0
TABLE
  2
VIEW
 70
     0
  0
ENDTAB
  0
TABLE
  2
UCS
 70
     0
  0
ENDTAB
  0
TABLE
  2
APPID
 70
     2
  0
APPID
  2
ACAD
 70
    64
  0
APPID
  2
AME_SOL
 70
    64
  0
ENDTAB
  0
TABLE
  2
DIMSTYLE
 70
     0
  0
ENDTAB
  0
ENDSEC
  0
SECTION
  2
BLOCKS
  0
BLOCK
  8
0
  5
1
  2
AME_NIL
 70
    64
 10
0.0
 20
0.0
 30
0.0
  1
AME_NIL
  3
AME_NIL
  0
ENDBLK
  8
0
  5
2
  0
BLOCK
  8
0
  5
4
  2
AME_SOL
 70
    64
 10
0.0
 20
0.0
 30
0.0
  1
AME_SOL
  3
AME_SOL
  0
ENDBLK
  8
0
  5
5
  0
BLOCK
  8
0
  5
7
  2
*U2
 70
    65
 10
0.0
 20
0.0
 30
0.0
  1
*U
  3
*U
  0
LINE
  8
0
 62
     0
  5
8
 10
10.0
 20
3.0
 30
0.0
 11
10.0
 21
3.0
 31
10.0
1001
AME_SOL
1070
     1
1071
       18
  0
LINE
  8
0
 62
     0
  5
9
 10
10.0
 20
3.0
 30
10.0
 11
10.0
 21
0.0
 31
10.0
1001
AME_SOL
1070
     1
1071
       17
  0
LINE
  8
0
 62
     0
  5
A
 10
0.0
 20
3.0
 30
10.0
 11
10.0
 21
3.0
 31
10.0
1001
AME_SOL
1070
     1
1071
       16
  0
LINE
  8
0
 62
     0
  5
B
 10
0.0
 20
3.0
 30
0.0
 11
0.0
 21
3.0
 31
10.0
1001
AME_SOL
1070
     1
1071
       15
  0
LINE
  8
0
 62
     0
  5
C
 10
0.0
 20
3.0
 30
10.0
 11
0.0
 21
0.0
 31
10.0
1001
AME_SOL
1070
     1
1071
       14
  0
LINE
  8
0
 62
     0
  5
D
 10
0.0
 20
0.0
 30
0.0
 11
0.0
 21
0.0
 31
10.0
1001
AME_SOL
1070
     1
1071
       13
  0
LINE
  8
0
 62
     0
  5
E
 10
10.0
 20
0.0
 30
10.0
 11
10.0
 21
0.0
 31
0.0
1001
AME_SOL
1070
     1
1071
       12
  0
LINE
  8
0
 62
     0
  5
F
 10
0.0
 20
0.0
 30
10.0
 11
10.0
 21
0.0
 31
10.0
1001
AME_SOL
1070
     1
1071
       11
  0
LINE
  8
0
 62
     0
  5
10
 10
0.0
 20
0.0
 30
0.0
 11
10.0
 21
0.0
 31
0.0
1001
AME_SOL
1070
     1
1071
       10
  0
LINE
  8
0
 62
     0
  5
11
 10
0.0
 20
3.0
 30
0.0
 11
0.0
 21
0.0
 31
0.0
1001
AME_SOL
1070
     1
1071
        9
  0
LINE
  8
0
 62
     0
  5
12
 10
10.0
 20
0.0
 30
0.0
 11
10.0
 21
3.0
 31
0.0
1001
AME_SOL
1070
     1
1071
        8
  0
LINE
  8
0
 62
     0
  5
13
 10
10.0
 20
3.0
 30
0.0
 11
0.0
 21
3.0
 31
0.0
1001
AME_SOL
1070
     1
1071
        7
  0
ENDBLK
  8
0
  5
14
  0
BLOCK
  8
0
  5
18
  2
*U3
 70
    65
 10
0.0
 20
0.0
 30
0.0
  1
*U
  3
*U
  0
LINE
  8
0
 62
     0
  5
19
 10
10.0
 20
9.0
 30
0.0
 11
10.0
 21
9.0
 31
3.0
1001
AME_SOL
1070
     1
1071
       18
  0
LINE
  8
0
 62
     0
  5
1A
 10
10.0
 20
9.0
 30
3.0
 11
10.0
 21
0.0
 31
3.0
1001
AME_SOL
1070
     1
1071
       17
  0
LINE
  8
0
 62
     0
  5
1B
 10
0.0
 20
9.0
 30
3.0
 11
10.0
 21
9.0
 31
3.0
1001
AME_SOL
1070
     1
1071
       16
  0
LINE
  8
0
 62
     0
  5
1C
 10
0.0
 20
9.0
 30
0.0
 11
0.0
 21
9.0
 31
3.0
1001
AME_SOL
1070
     1
1071
       15
  0
LINE
  8
0
 62
     0
  5
1D
 10
0.0
 20
9.0
 30
3.0
 11
0.0
 21
0.0
 31
3.0
1001
AME_SOL
1070
     1
1071
       14
  0
LINE
  8
0
 62
     0
  5
1E
 10
0.0
 20
0.0
 30
0.0
 11
0.0
 21
0.0
 31
3.0
1001
AME_SOL
1070
     1
1071
       13
  0
LINE
  8
0
 62
     0
  5
1F
 10
10.0
 20
0.0
 30
3.0
 11
10.0
 21
0.0
 31
0.0
1001
AME_SOL
1070
     1
1071
       12
  0
LINE
  8
0
 62
     0
  5
20
 10
0.0
 20
0.0
 30
3.0
 11
10.0
 21
0.0
 31
3.0
1001
AME_SOL
1070
     1
1071
       11
  0
LINE
  8
0
 62
     0
  5
21
 10
0.0
 20
0.0
 30
0.0
 11
10.0
 21
0.0
 31
0.0
1001
AME_SOL
1070
     1
1071
       10
  0
LINE
  8
0
 62
     0
  5
22
 10
0.0
 20
9.0
 30
0.0
 11
0.0
 21
0.0
 31
0.0
1001
AME_SOL
1070
     1
1071
        9
  0
LINE
  8
0
 62
     0
  5
23
 10
10.0
 20
0.0
 30
0.0
 11
10.0
 21
9.0
 31
0.0
1001
AME_SOL
1070
     1
1071
        8
  0
LINE
  8
0
 62
     0
  5
24
 10
10.0
 20
9.0
 30
0.0
 11
0.0
 21
9.0
 31
0.0
1001
AME_SOL
1070
     1
1071
        7
  0
ENDBLK
  8
0
  5
25
  0
BLOCK
  8
0
  5
29
  2
*U4
 70
    65
 10
0.0
 20
0.0
 30
0.0
  1
*U
  3
*U
  0
LINE
  8
0
 62
     0
  5
2A
 10
10.0
 20
1.0
 30
0.0
 11
10.0
 21
1.0
 31
10.0
1001
AME_SOL
1070
     1
1071
       18
  0
LINE
  8
0
 62
     0
  5
2B
 10
10.0
 20
1.0
 30
10.0
 11
10.0
 21
0.0
 31
10.0
1001
AME_SOL
1070
     1
1071
       17
  0
LINE
  8
0
 62
     0
  5
2C
 10
0.0
 20
1.0
 30
10.0
 11
10.0
 21
1.0
 31
10.0
1001
AME_SOL
1070
     1
1071
       16
  0
LINE
  8
0
 62
     0
  5
2D
 10
0.0
 20
1.0
 30
0.0
 11
0.0
 21
1.0
 31
10.0
1001
AME_SOL
1070
     1
1071
       15
  0
LINE
  8
0
 62
     0
  5
2E
 10
0.0
 20
1.0
 30
10.0
 11
0.0
 21
0.0
 31
10.0
1001
AME_SOL
1070
     1
1071
       14
  0
LINE
  8
0
 62
     0
  5
2F
 10
0.0
 20
0.0
 30
0.0
 11
0.0
 21
0.0
 31
10.0
1001
AME_SOL
1070
     1
1071
       13
  0
LINE
  8
0
 62
     0
  5
30
 10
10.0
 20
0.0
 30
10.0
 11
10.0
 21
0.0
 31
0.0
1001
AME_SOL
1070
     1
1071
       12
  0
LINE
  8
0
 62
     0
  5
31
 10
0.0
 20
0.0
 30
10.0
 11
10.0
 21
0.0
 31
10.0
1001
AME_SOL
1070
     1
1071
       11
  0
LINE
  8
0
 62
     0
  5
32
 10
0.0
 20
0.0
 30
0.0
 11
10.0
 21
0.0
 31
0.0
1001
AME_SOL
1070
     1
1071
       10
  0
LINE
  8
0
 62
     0
  5
33
 10
0.0
 20
1.0
 30
0.0
 11
0.0
 21
0.0
 31
0.0
1001
AME_SOL
1070
     1
1071
        9
  0
LINE
  8
0
 62
     0
  5
34
 10
10.0
 20
0.0
 30
0.0
 11
10.0
 21
1.0
 31
0.0
1001
AME_SOL
1070
     1
1071
        8
  0
LINE
  8
0
 62
     0
  5
35
 10
10.0
 20
1.0
 30
0.0
 11
0.0
 21
1.0
 31
0.0
1001
AME_SOL
1070
     1
1071
        7
  0
ENDBLK
  8
0
  5
36
  0
BLOCK
  8
0
  5
3C
  2
*U5
 70
    65
 10
0.0
 20
0.0
 30
0.0
  1
*U
  3
*U
  0
LINE
  8
0
 62
     7
  5
3D
 10
10.0
 20
10.0
 30
0.0
 11
10.0
 21
10.0
 31
10.0
1001
AME_SOL
1070
     1
1071
       33
  0
LINE
  8
0
 62
     7
  5
3E
 10
0.0
 20
10.0
 30
10.0
 11
10.0
 21
10.0
 31
10.0
1001
AME_SOL
1070
     1
1071
       32
  0
LINE
  8
0
 62
     7
  5
3F
 10
10.0
 20
3.0
 30
10.0
 11
10.0
 21
0.0
 31
10.0
1001
AME_SOL
1070
     1
1071
       31
  0
LINE
  8
0
 62
     7
  5
40
 10
10.0
 20
10.0
 30
10.0
 11
10.0
 21
9.0
 31
10.0
1001
AME_SOL
1070
     1
1071
       30
  0
LINE
  8
0
 62
     7
  5
41
 10
0.0
 20
10.0
 30
0.0
 11
0.0
 21
10.0
 31
10.0
1001
AME_SOL
1070
     1
1071
       29
  0
LINE
  8
0
 62
     7
  5
42
 10
0.0
 20
3.0
 30
10.0
 11
0.0
 21
0.0
 31
10.0
1001
AME_SOL
1070
     1
1071
       28
  0
LINE
  8
0
 62
     7
  5
43
 10
0.0
 20
10.0
 30
10.0
 11
0.0
 21
9.0
 31
10.0
1001
AME_SOL
1070
     1
1071
       27
  0
LINE
  8
0
 62
     7
  5
44
 10
0.0
 20
9.0
 30
3.0
 11
0.0
 21
9.0
 31
10.0
1001
AME_SOL
1070
     1
1071
       26
  0
LINE
  8
0
 62
     7
  5
45
 10
10.0
 20
9.0
 30
10.0
 11
10.0
 21
9.0
 31
3.0
1001
AME_SOL
1070
     1
1071
       25
  0
LINE
  8
0
 62
     7
  5
46
 10
0.0
 20
9.0
 30
10.0
 11
10.0
 21
9.0
 31
10.0
1001
AME_SOL
1070
     1
1071
       24
  0
LINE
  8
0
 62
     7
  5
47
 10
0.0
 20
10.0
 30
0.0
 11
0.0
 21
0.0
 31
0.0
1001
AME_SOL
1070
     1
1071
       23
  0
LINE
  8
0
 62
     7
  5
48
 10
10.0
 20
10.0
 30
0.0
 11
0.0
 21
10.0
 31
0.0
1001
AME_SOL
1070
     1
1071
       22
  0
LINE
  8
0
 62
     7
  5
49
 10
10.0
 20
0.0
 30
0.0
 11
10.0
 21
10.0
 31
0.0
1001
AME_SOL
1070
     1
1071
       21
  0
LINE
  8
0
 62
     7
  5
4A
 10
0.0
 20
3.0
 30
3.0
 11
0.0
 21
9.0
 31
3.0
1001
AME_SOL
1070
     1
1071
       20
  0
LINE
  8
0
 62
     7
  5
4B
 10
10.0
 20
9.0
 30
3.0
 11
0.0
 21
9.0
 31
3.0
1001
AME_SOL
1070
     1
1071
       19
  0
LINE
  8
0
 62
     7
  5
4C
 10
10.0
 20
9.0
 30
3.0
 11
10.0
 21
3.0
 31
3.0
1001
AME_SOL
1070
     1
1071
       18
  0
LINE
  8
0
 62
     7
  5
4D
 10
10.0
 20
0.0
 30
0.0
 11
0.0
 21
0.0
 31
0.0
1001
AME_SOL
1070
     1
1071
       17
  0
LINE
  8
0
 62
     7
  5
4E
 10
0.0
 20
0.0
 30
0.0
 11
0.0
 21
0.0
 31
10.0
1001
AME_SOL
1070
     1
1071
       16
  0
LINE
  8
0
 62
     7
  5
4F
 10
10.0
 20
0.0
 30
10.0
 11
10.0
 21
0.0
 31
0.0
1001
AME_SOL
1070
     1
1071
       15
  0
LINE
  8
0
 62
     7
  5
50
 10
0.0
 20
0.0
 30
10.0
 11
10.0
 21
0.0
 31
10.0
1001
AME_SOL
1070
     1
1071
       14
  0
LINE
  8
0
 62
     7
  5
51
 10
10.0
 20
3.0
 30
3.0
 11
0.0
 21
3.0
 31
3.0
1001
AME_SOL
1070
     1
1071
       13
  0
LINE
  8
0
 62
     7
  5
52
 10
0.0
 20
3.0
 30
10.0
 11
0.0
 21
3.0
 31
3.0
1001
AME_SOL
1070
     1
1071
       12
  0
LINE
  8
0
 62
     7
  5
53
 10
10.0
 20
3.0
 30
3.0
 11
10.0
 21
3.0
 31
10.0
1001
AME_SOL
1070
     1
1071
       11
  0
LINE
  8
0
 62
     7
  5
54
 10
10.0
 20
3.0
 30
10.0
 11
0.0
 21
3.0
 31
10.0
1001
AME_SOL
1070
     1
1071
       10
  0
ENDBLK
  8
0
  5
55
  0
BLOCK
  8
0
  5
59
  2
*U6
 70
    65
 10
0.0
 20
0.0
 30
0.0
  1
*U
  3
*U
  0
LINE
  8
0
 62
     0
  5
5A
 10
5.0
 20
1.0
 30
0.0
 11
5.0
 21
1.0
 31
3.0
1001
AME_SOL
1070
     1
1071
       18
  0
LINE
  8
0
 62
     0
  5
5B
 10
5.0
 20
1.0
 30
3.0
 11
5.0
 21
0.0
 31
3.0
1001
AME_SOL
1070
     1
1071
       17
  0
LINE
  8
0
 62
     0
  5
5C
 10
0.0
 20
1.0
 30
3.0
 11
5.0
 21
1.0
 31
3.0
1001
AME_SOL
1070
     1
1071
       16
  0
LINE
  8
0
 62
     0
  5
5D
 10
0.0
 20
1.0
 30
0.0
 11
0.0
 21
1.0
 31
3.0
1001
AME_SOL
1070
     1
1071
       15
  0
LINE
  8
0
 62
     0
  5
5E
 10
0.0
 20
1.0
 30
3.0
 11
0.0
 21
0.0
 31
3.0
1001
AME_SOL
1070
     1
1071
       14
  0
LINE
  8
0
 62
     0
  5
5F
 10
0.0
 20
0.0
 30
0.0
 11
0.0
 21
0.0
 31
3.0
1001
AME_SOL
1070
     1
1071
       13
  0
LINE
  8
0
 62
     0
  5
60
 10
5.0
 20
0.0
 30
3.0
 11
5.0
 21
0.0
 31
0.0
1001
AME_SOL
1070
     1
1071
       12
  0
LINE
  8
0
 62
     0
  5
61
 10
0.0
 20
0.0
 30
3.0
 11
5.0
 21
0.0
 31
3.0
1001
AME_SOL
1070
     1
1071
       11
  0
LINE
  8
0
 62
     0
  5
62
 10
0.0
 20
0.0
 30
0.0
 11
5.0
 21
0.0
 31
0.0
1001
AME_SOL
1070
     1
1071
       10
  0
LINE
  8
0
 62
     0
  5
63
 10
0.0
 20
1.0
 30
0.0
 11
0.0
 21
0.0
 31
0.0
1001
AME_SOL
1070
     1
1071
        9
  0
LINE
  8
0
 62
     0
  5
64
 10
5.0
 20
0.0
 30
0.0
 11
5.0
 21
1.0
 31
0.0
1001
AME_SOL
1070
     1
1071
        8
  0
LINE
  8
0
 62
     0
  5
65
 10
5.0
 20
1.0
 30
0.0
 11
0.0
 21
1.0
 31
0.0
1001
AME_SOL
1070
     1
1071
        7
  0
ENDBLK
  8
0
  5
66
  0
BLOCK
  8
0
  5
6B
  2
*U7
 70
    65
 10
0.0
 20
0.0
 30
0.0
  1
*U
  3
*U
  0
LINE
  8
0
 62
     7
  5
6C
 10
10.0
 20
10.0
 30
0.0
 11
10.0
 21
10.0
 31
10.0
1001
AME_SOL
1070
     1
1071
       49
  0
LINE
  8
0
 62
     7
  5
6D
 10
0.0
 20
10.0
 30
10.0
 11
10.0
 21
10.0
 31
10.0
1001
AME_SOL
1070
     1
1071
       48
  0
LINE
  8
0
 62
     7
  5
6E
 10
10.0
 20
3.0
 30
10.0
 11
10.0
 21
0.0
 31
10.0
1001
AME_SOL
1070
     1
1071
       47
  0
LINE
  8
0
 62
     7
  5
6F
 10
10.0
 20
10.0
 30
10.0
 11
10.0
 21
9.0
 31
10.0
1001
AME_SOL
1070
     1
1071
       46
  0
LINE
  8
0
 62
     7
  5
70
 10
0.0
 20
10.0
 30
0.0
 11
0.0
 21
10.0
 31
10.0
1001
AME_SOL
1070
     1
1071
       45
  0
LINE
  8
0
 62
     7
  5
71
 10
0.0
 20
3.0
 30
10.0
 11
0.0
 21
0.0
 31
10.0
1001
AME_SOL
1070
     1
1071
       44
  0
LINE
  8
0
 62
     7
  5
72
 10
0.0
 20
10.0
 30
10.0
 11
0.0
 21
9.0
 31
10.0
1001
AME_SOL
1070
     1
1071
       43
  0
LINE
  8
0
 62
     7
  5
73
 10
0.0
 20
9.0
 30
3.0
 11
0.0
 21
9.0
 31
10.0
1001
AME_SOL
1070
     1
1071
       42
  0
LINE
  8
0
 62
     7
  5
74
 10
10.0
 20
9.0
 30
10.0
 11
10.0
 21
9.0
 31
3.0
1001
AME_SOL
1070
     1
1071
       41
  0
LINE
  8
0
 62
     7
  5
75
 10
0.0
 20
9.0
 30
10.0
 11
10.0
 21
9.0
 31
10.0
1001
AME_SOL
1070
     1
1071
       40
  0
LINE
  8
0
 62
     7
  5
76
 10
0.0
 20
10.0
 30
0.0
 11
0.0
 21
0.0
 31
0.0
1001
AME_SOL
1070
     1
1071
       39
  0
LINE
  8
0
 62
     7
  5
77
 10
10.0
 20
10.0
 30
0.0
 11
0.0
 21
10.0
 31
0.0
1001
AME_SOL
1070
     1
1071
       38
  0
LINE
  8
0
 62
     7
  5
78
 10
10.0
 20
0.0
 30
0.0
 11
10.0
 21
10.0
 31
0.0
1001
AME_SOL
1070
     1
1071
       37
  0
LINE
  8
0
 62
     7
  5
79
 10
0.0
 20
3.0
 30
3.0
 11
0.0
 21
9.0
 31
3.0
1001
AME_SOL
1070
     1
1071
       36
  0
LINE
  8
0
 62
     7
  5
7A
 10
10.0
 20
9.0
 30
3.0
 11
0.0
 21
9.0
 31
3.0
1001
AME_SOL
1070
     1
1071
       35
  0
LINE
  8
0
 62
     7
  5
7B
 10
10.0
 20
9.0
 30
3.0
 11
10.0
 21
3.0
 31
3.0
1001
AME_SOL
1070
     1
1071
       34
  0
LINE
  8
0
 62
     7
  5
7C
 10
10.0
 20
0.0
 30
0.0
 11
0.0
 21
0.0
 31
0.0
1001
AME_SOL
1070
     1
1071
       33
  0
LINE
  8
0
 62
     7
  5
7D
 10
0.0
 20
0.0
 30
0.0
 11
0.0
 21
0.0
 31
10.0
1001
AME_SOL
1070
     1
1071
       32
  0
LINE
  8
0
 62
     7
  5
7E
 10
10.0
 20
0.0
 30
10.0
 11
10.0
 21
0.0
 31
0.0
1001
AME_SOL
1070
     1
1071
       31
  0
LINE
  8
0
 62
     7
  5
7F
 10
0.0
 20
0.0
 30
10.0
 11
10.0
 21
0.0
 31
10.0
1001
AME_SOL
1070
     1
1071
       30
  0
LINE
  8
0
 62
     7
  5
80
 10
10.0
 20
3.0
 30
3.0
 11
0.0
 21
3.0
 31
3.0
1001
AME_SOL
1070
     1
1071
       29
  0
LINE
  8
0
 62
     7
  5
81
 10
0.0
 20
3.0
 30
10.0
 11
0.0
 21
3.0
 31
3.0
1001
AME_SOL
1070
     1
1071
       28
  0
LINE
  8
0
 62
     7
  5
82
 10
10.0
 20
3.0
 30
3.0
 11
10.0
 21
3.0
 31
10.0
1001
AME_SOL
1070
     1
1071
       27
  0
LINE
  8
0
 62
     7
  5
83
 10
10.0
 20
3.0
 30
10.0
 11
0.0
 21
3.0
 31
10.0
1001
AME_SOL
1070
     1
1071
       26
  0
LINE
  8
0
 62
     7
  5
84
 10
9.0
 20
10.0
 30
9.0
 11
9.0
 21
10.0
 31
6.0
1001
AME_SOL
1070
     1
1071
       25
  0
LINE
  8
0
 62
     7
  5
85
 10
9.0
 20
9.0
 30
6.0
 11
9.0
 21
9.0
 31
9.0
1001
AME_SOL
1070
     1
1071
       24
  0
LINE
  8
0
 62
     7
  5
86
 10
4.0
 20
10.0
 30
9.0
 11
9.0
 21
10.0
 31
9.0
1001
AME_SOL
1070
     1
1071
       23
  0
LINE
  8
0
 62
     7
  5
87
 10
9.0
 20
9.0
 30
9.0
 11
4.0
 21
9.0
 31
9.0
1001
AME_SOL
1070
     1
1071
       22
  0
LINE
  8
0
 62
     7
  5
88
 10
9.0
 20
10.0
 30
9.0
 11
9.0
 21
9.0
 31
9.0
1001
AME_SOL
1070
     1
1071
       21
  0
LINE
  8
0
 62
     7
  5
89
 10
4.0
 20
10.0
 30
6.0
 11
4.0
 21
10.0
 31
9.0
1001
AME_SOL
1070
     1
1071
       20
  0
LINE
  8
0
 62
     7
  5
8A
 10
4.0
 20
9.0
 30
9.0
 11
4.0
 21
9.0
 31
6.0
1001
AME_SOL
1070
     1
1071
       19
  0
LINE
  8
0
 62
     7
  5
8B
 10
4.0
 20
10.0
 30
9.0
 11
4.0
 21
9.0
 31
9.0
1001
AME_SOL
1070
     1
1071
       18
  0
LINE
  8
0
 62
     7
  5
8C
 10
4.0
 20
10.0
 30
6.0
 11
4.0
 21
9.0
 31
6.0
1001
AME_SOL
1070
     1
1071
       17
  0
LINE
  8
0
 62
     7
  5
8D
 10
9.0
 20
10.0
 30
6.0
 11
4.0
 21
10.0
 31
6.0
1001
AME_SOL
1070
     1
1071
       16
  0
LINE
  8
0
 62
     7
  5
8E
 10
4.0
 20
9.0
 30
6.0
 11
9.0
 21
9.0
 31
6.0
1001
AME_SOL
1070
     1
1071
       15
  0
LINE
  8
0
 62
     7
  5
8F
 10
9.0
 20
9.0
 30
6.0
 11
9.0
 21
10.0
 31
6.0
1001
AME_SOL
1070
     1
1071
       14
  0
ENDBLK
  8
0
  5
90
  0
BLOCK
  8
0
  5
94
  2
AME_MAT
 70
    64
 10
0.0
 20
0.0
 30
0.0
  1
AME_MAT
  3
AME_MAT
  0
ENDBLK
  8
0
  5
95
  0
ENDSEC
  0
SECTION
  2
ENTITIES
  0
INSERT
  8
AME_FRZ
  5
3
  2
AME_NIL
 10
0.0
 20
0.0
 30
0.0
  0
INSERT
  8
AME_FRZ
  5
6
  2
AME_SOL
 10
0.0
 20
0.0
 30
0.0
1001
AME_SOL
1000
1.0
1000
sq cm
1070
     3
1070
     0
1070
     3
1000
wire
1040
0.0
1000
NONE
1040
1.0
1000
cm
1000
gm
1000
MILD_STEEL
1070
    25
1000
CSG
1070
     3
1070
     2
1070
     3
1000
cu cm
1070
     4
1070
     0
1005
3
  0
INSERT
  8
AME_FRZ
  5
15
  2
*U2
 10
0.0
 20
0.0
 30
0.0
1001
AME_SOL
1002
{
1070
     0
1071
  2025176
1070
  1536
1010
10.0
1020
3.0
1030
10.0
1005
0
1005
0
1005
56
1040
0.0
1040
1.0
1000
MILD_STEEL
1000
0
1010
0.0
1020
0.0
1030
0.0
1010
0.0
1020
0.0
1030
1.0
1040
0.0
1002
}
  0
INSERT
  8
AME_FRZ
  5
26
  2
*U3
 10
0.0
 20
0.0
 30
0.0
1001
AME_SOL
1002
{
1070
     0
1071
  1858408
1070
  1536
1010
10.0
1020
9.0
1030
3.0
1005
0
1005
0
1005
3A
1040
0.0
1040
1.0
1000
MILD_STEEL
1000
0
1010
0.0
1020
0.0
1030
0.0
1010
0.0
1020
0.0
1030
1.0
1040
0.0
1002
}
  0
INSERT
  8
AME_FRZ
  5
37
  2
*U4
 10
0.0
 20
9.0
 30
0.0
1001
AME_SOL
1002
{
1070
     0
1071
  1935728
1070
  1536
1010
10.0
1020
1.0
1030
10.0
1005
0
1005
0
1005
3A
1040
0.0
1040
1.0
1000
MILD_STEEL
1000
0
1010
0.0
1020
9.0
1030
0.0
1010
0.0
1020
0.0
1030
1.0
1040
0.0
1002
}
  0
INSERT
  8
AME_FRZ
  5
3A
  2
AME_NIL
 10
0.0
 20
0.0
 30
0.0
1001
AME_SOL
1002
{
1070
     0
1071
  1955240
1070
   775
1070
     2
1005
37
1005
26
1005
0
1005
0
1005
56
1040
0.0
1040
1.0
1000
MILD_STEEL
1000
0
1010
0.0
1020
0.0
1030
0.0
1010
0.0
1020
0.0
1030
1.0
1040
0.0
1002
}
  0
INSERT
  8
AME_FRZ
  5
56
  2
*U5
 10
0.0
 20
0.0
 30
0.0
1001
AME_SOL
1002
{
1070
     0
1071
  1968184
1070
  1543
1070
     2
1005
3A
1005
15
1005
0
1005
0
1005
91
1040
0.0
1040
1.0
1000
MILD_STEEL
1000
0
1010
0.0
1020
0.0
1030
0.0
1010
0.0
1020
0.0
1030
1.0
1040
0.0
1002
}
  0
INSERT
  8
AME_FRZ
  5
67
  2
*U6
 10
4.0
 20
9.0
 30
6.0
1001
AME_SOL
1002
{
1070
     0
1071
  1950680
1070
  1536
1010
5.0
1020
1.0
1030
3.0
1005
0
1005
0
1005
91
1040
0.0
1040
1.0
1000
MILD_STEEL
1000
0
1010
4.0
1020
9.0
1030
6.0
1010
0.0
1020
0.0
1030
1.0
1040
0.0
1002
}
  0
INSERT
  8
0
  5
91
  2
*U7
 10
0.0
 20
0.0
 30
0.0
1001
AME_SOL
1002
{
1070
     0
1071
  1963280
1070
  1543
1070
     0
1005
56
1005
67
1005
0
1005
92
1005
0
1040
0.0
1040
1.0
1000
MILD_STEEL
1000
0
1002
}
  0
INSERT
  8
AME_FRZ
  5
92
  2
AME_NIL
 10
1.0
 20
1.0
 30
1.0
1001
AME_SOL
1004
E903A9FB0100F0FFFFFF000052F70D00010000002F4FE7BA2F4FE7BA2F4FE7BA3A072041170720413A07204101000000FBF2040000EC7F4000FB0F4100F6BF400005104100052041000AC0400100844E28F41E00FFFF00000100CE000000844E0000000000000000803F000000000000803F000000000000
1004
000000008040000010410000C04005000000000000000000000000000000000000000000844E0000000000000000803F000000000000803F000000000000000000008040000010410000C040050000000000000000000000000000000000FFFFFFFFFBF2040000EC7F4000FB0F4100F6BF40000A80400005
1004
2041000510410100844E70F41E00FFFF00000100CC000000844E000000000000000000000000803F000000000000803F0000000000008040000010410000C04005000000000000000000000000000000000000000000844E000000000000000000000000803F000000000000803F00000000000080400000
1004
10410000C040050000000000000000000000000000000000FFFFFFFFFBF2040000EC7F4000FB0F4100FB0F410005104100052041000510410100844E08F31E00FFFF00000100CB000000844E0000000080BF000000800000008000000080000080BF00000080000010410000204100001041050000000000
1004
00000000000000000000000000000000844E0000000080BF000000800000008000000080000080BF00000080000010410000204100001041050000000000000000000000000000000000FFFFFFFFFBF2040000FB0F4100FB0F4100F6BF400005104100052041000510410100844E10F11E00FFFF00000100
1004
C9000000844E000000000080000080BF000000800000008000000080000080BF00001041000020410000104105000000000000000000000000000000000000000000844E000000000080000080BF000000800000008000000080000080BF0000104100002041000010410500000000000000000000000000
1004
00000000FFFFFFFFFBF204002F4FE7BA16E33F402F4FE7BA3A072041EB1C40403A0720410100844E00D41D0001000000010092010000844E00000000008000000080000080BF000080BF000000800000008000002041000040400000204105000000000000000000000000000000000000000000844E0000
1004
0000008000000080000080BF000080BF000000800000008000002041000040400000204105000000000000000000000000000000000001000000FBF204002F4FE7BA2F4FE7BA2F4FE7BA3A0720412F4FE73A3A0720410100844E60731D0001000000020095010000844E00000000803F0000000000000000
1004
00000000000000000000803F000000000000000000000000050000000000000000000000000000000000000000005D020000844E00000000803F000000000000000000000000000000000000803F00000000000000000000000005000000000000000000000000000000000000000000844E00000000803F
1004
000000000000000000000000000000000000803F00000000000000000000000005000000000000000000000000000000000001000000FBF20400768BDCBA768BDCBA6FE43F40E4062041E4061041921B40400100844EC8611D000100000001005B020000844E0000000080BF000000800000008000000080
1004
000080BF0000008000002041000010410000404005000000000000000000000000000000000000000000844E0000000080BF000000800000008000000080000080BF0000008000002041000010410000404005000000000000000000000000000000000001000000FBF204002F4FE7BA2F4FE7BA2F4FE7BA
1004
3A072041EB1C40402F4FE73A0100844ED8DB1D0001000000030096010000844E0000000000000000803F000000000000803F0000000000000000000000000000000000000000050000000000000000000000000000000000000000005E020000844E0000000000000000803F000000000000803F00000000
1004
0000000000000000000000000000000005000000000000000000000000000000000000000000C2020000844E0000000000000000803F000000000000803F000000000000000000000000000010410000000005000000000000000000000000000000000000000000844E0000000000000000803F00000000
1004
0000803F000000000000000000000000000010410000000005000000000000000000000000000000000001000000FBF20800D2D6E2BAE9F80F41D2D6E2BA1707204117071041170720410100844E68DC1D00010000000100C1020000844E00000000803F000000000000000000000000000000000000803F
1004
00000000000010410000000005000000000000000000000000000000000000000000844E00000000803F000000000000000000000000000000000000803F00000000000010410000000005000000000000000000000000000000000001000000FBF208002F4FE7BA2F4FE7BA2F4FE7BA2F4FE73AEB1C4040
1004
3A0720410100844E88DD1D0001000000030094010000844E000000000000000000000000803F000000000000803F00000000000000000000000000000000050000000000000000000000000000000000000000005C020000844E000000000000000000000000803F000000000000803F0000000000000000
1004
000000000000000005000000000000000000000000000000000000000000C0020000844E000000000000000000000000803F000000000000803F0000000000000000000010410000000005000000000000000000000000000000000000000000844E000000000000000000000000803F000000000000803F
1004
0000000000000000000010410000000005000000000000000000000000000000000001000000FBF208002F4FE7BA2F4FE7BAC5F81F413A072041EB1C40403A0720410100844E18DE1D0001000000020093010000844E0000000080BF000000800000008000000080000080BF000000800000204100004040
1004
0000204105000000000000000000000000000000000000000000BF020000844E0000000080BF000000800000008000000080000080BF0000008000002041000020410000204105000000000000000000000000000000000000000000844E0000000080BF000000800000008000000080000080BF00000080
1004
00002041000020410000204105000000000000000000000000000000000001000000FBF20800D2D6E2BAE9F81F41D2D6E2BA1707204117072041170720410100844E80061E00010000000100BE020000844E00000000008000000080000080BF000080BF0000008000000080000020410000204100002041
1004
05000000000000000000000000000000000000000000844E00000000008000000080000080BF000080BF000000800000008000002041000020410000204105000000000000000000000000000000000001000000FBF20800C5F81F412F4FE7BA2F4FE7BA3A072041EB1C40403A0720410100844E38DF1D00
1004
01000000030091010000844E000000000080000080BF000000800000008000000080000080BF0000204100004040000020410500000000000000000000000000000000000000000059020000844E000000000080000080BF000000800000008000000080000080BF00002041000010410000404005000000
1004
000000000000000000000000000000000000BD020000844E000000000080000080BF000000800000008000000080000080BF00002041000020410000204105000000000000000000000000000000000000000000844E000000000080000080BF000000800000008000000080000080BF0000204100002041
1004
0000204105000000000000000000000000000000000001000000A4EE00FB0F4100FB0F4100F6BF400005104100052041000AC040020000BF0200003F0200967520651C0000000100FFFF28F41E0010F11E000000020010F11E0028F41E00FFFFFFFFFFFFFFFF967500000000803F00000000000000000000
1004
000000000000000080BF00001041000018410000C0400200020000BF0200003FA4EE00EC7F4000FB0F4100F6BF400005104117071041000AC040000000400000E0400200967548DB1D0000000100FFFF28F41E0068DC1D000000020068DC1D0028F41E0001000000FFFFFFFF9675000000000000000080BF
1004
000000000000000000000000000080BF00000040000010410000C0400200000000400000E040A4EE00EC7F40E9F81F4100F6BF400005104100052041000AC040FAFFFFBF020040400200967598D91D0000000100FFFF28F41E0080061E000000020080061E0028F41E0001000000FFFFFFFF967500000000
1004
00000000803F000000000000000000000000000080BF0100E040000020410000C0400200FAFFFFBF02004040A4EE00EC7F4000FB0F4100F6BF40000A804000052041000AC040020080BF000000000200967578D81D0000000100FFFF28F41E0070F41E000000020070F41E0028F41E00FFFFFFFFFFFFFFFF
1004
96750000000080BF00000000000000000000000000000000000080BF00008040000010410000C0400200020080BF00000000A4EE00EC7F4000FB0F4100FB0F41000A80400005204100051041020000BF0200003F0200967568751E0000000100FFFF70F41E0008F31E000000020008F31E0070F41E00FFFF
1004
FFFFFFFFFFFF9675000000000000000000000000803F000080BF00000000000000000000804000001841000010410200020000BF0200003FA4EE00EC7F4000FB0F4100F6BF40000A804017071041000510410000C0C0000040C00200967520A31E0000000100FFFF70F41E0068DC1D000000020068DC1D00
1004
70F41E0001000000FFFFFFFF9675000000000000000080BF00000000000080BF000000000000000000008040000010410000404002000000C0C0000040C0A4EE00EC7F40E9F81F4100F6BF40000A80400005204100051041FFFFFFBF0200803F02009675B0A51E0000000100FFFF70F41E0080061E000000
1004
020080061E0070F41E0001000000FFFFFFFF96750000000000000000803F00000000000080BF00000000000000000000804000002041000000410200FFFFFFBF0200803FA4EE00FB0F4100FB0F4100FB0F41000510410005204100051041000000000200803F02009675108F1E0000000100FFFF08F31E00
1004
10F11E000000020010F11E0008F31E00FFFFFFFFFFFFFFFF967500000000803F000000000000000000000080000000000000803F0000104100002041000010410200000000000200803FA4EE00EC7F4000FB0F4100FB0F41000510411707104100051041000090C0FAFFFF3E02009675B86E1E0000000100
1004
FFFF08F31E0068DC1D000000020068DC1D0008F31E0001000000FFFFFFFF9675000000000000000080BF0000000000000000000000000000803F0000904000001041000010410200000090C0FAFFFF3EA4EE00EC7F40E9F81F4100FB0F41000510410005204100051041FFFFAFC0020000BF02009675A86F
1004
1E0000000100FFFF08F31E0080061E000000020080061E0008F31E0001000000FFFFFFFF96750000000000000000803F0000000000000000000000000000803F0000184100002041000010410200FFFFAFC0020000BFA4EE00FB0F4100FB0F4100F6BF400005104117071041000510410000C03F00009040
1004
0200967598701E0000000100FFFF10F11E0068DC1D000000020068DC1D0010F11E0001000000FFFFFFFF9675000000000000000080BF000000000000803F000000000000000000001041000010410000904002000000C03F00009040A4EE00FB0F41E9F81F4100F6BF400005104100052041000510410200
1004
003F010060400200967588711E0000000100FFFF10F11E0080061E000000020080061E0010F11E0001000000FFFFFFFF96750000000000000000803F000000000000803F000000800000000000001041000020410000184102000200003F01006040A4EE2F4FE7BA16E33F40C5F81F413A072041EB1C4040
1004
3A07204100000000000020410200967578721E000000FFFF010000D41D0018DE1D000000020000D41D0018DE1D0001000000010000009675000000000000000000000000803F000000000000803F0000000000002041000040400000204102000000000000002041A4EEC5F81F4116E33F402F4FE7BA3A07
1004
2041EB1C40403A0720410000E0C0000000800200967568731E000000FFFF010000D41D0038DF1D000000020000D41D0038DF1D000100000001000000967500000000803F0000000000000000000000000000803F0000000000002041000040400000204102000000E0C000000080A4EE2F4FE7BA16E33F40
1004
2F4FE7BA2F4FE73AEB1C40403A0720410000A0C0FFFFFF3F0200967558741E000000FFFF010000D41D0088DD1D000000020000D41D0088DD1D00010000000100000096750000000080BF0000000000000000000000000000803F0000000000000000000040400000A04002000000A0C0FFFFFF3FA4EE768B
1004
DCBA16E33F406FE43F40E4062041EB1C4040921B404000000000000020410200967508361E0000000100FFFF00D41D00C8611D0000000200C8611D0000D41D0001000000010000009675000000000000000000000000803F000000000000803F000000000000204100004040000040400200000000000000
1004
2041A4EE2F4FE7BA2F4FE7BAC5F81F413A0720412F4FE73A3A0720410000A0C00000A04002009675F8361E000000FFFF010060731D0018DE1D000000020060731D0018DE1D0001000000010000009675000000000000000000000000803F00000000000080BF000000000000A04000000000000020410200
1004
0000A0C00000A040A4EEC5F81F412F4FE7BA2F4FE7BA3A0720412F4FE73A3A0720410000A0C00000A04002009675E8371E000000FFFF010060731D0038DF1D000000020060731D0038DF1D000100000001000000967500000000803F000000000000000000000000000080BF000000000000204100000000
1004
0000A04002000000A0C00000A040A4EE2F4FE7BA2F4FE7BA2F4FE7BA2F4FE73A2F4FE73A3A072041000000000000204102009675D8381E000000FFFF010060731D0088DD1D000000020060731D0088DD1D00010000000100000096750000000080BF000000000000000000000000000080BF000000000000
1004
0000000000000000000002000000000000002041A4EE2F4FE7BA2F4FE7BA2F4FE7BA3A0720412F4FE73A2F4FE73A000020C10000008002009675C8391E000000FFFF010060731D00D8DB1D000000020060731D00D8DB1D000100000001000000967500000000000000000000000080BF00000000000080BF
1004
000000000000000000000000000000000200000020C100000080A4EEC5F81F41768BDCBA6FE43F40E4062041E4061041921B40400200003FFFFFCF4002009675B83A1E000000FFFF0100C8611D0038DF1D0000000200C8611D0038DF1D000100000001000000967500000000803F00000000000000000000
1004
0000000000000000803F00002041000018410000404002000200003FFFFFCF40A4EE768BDCBAE9F80F416FE43F40E4062041E4061041921B40400000A0C00000A04002009675A83B1E0000000100FFFFC8611D0068DC1D000000020068DC1D00C8611D0001000000010000009675000000000000000080BF
1004
0000000000000000000000000000803F0000A040000010410000404002000000A0C00000A040A4EE768BDCBA768BDCBA6FE43F402F4FE73AE4061041921B4040FFFFBFC00000000002009675983C1E000000FFFF0100C8611D0088DD1D0000000200C8611D0088DD1D000100000001000000967500000000
1004
80BF000000000000000000000000000000000000803F0000000000001041000040400200FFFFBFC000000000A4EEC5F81F412F4FE7BA2F4FE7BA3A072041170720412F4FE73A000018C10200003F02009675883D1E000000FFFF0100D8DB1D0038DF1D0000000200D8DB1D0038DF1D000100000001000000
1004
967500000000803F00000000000000000000000000000000000080BF0000204100001841000000000200000018C10200003FA4EED2D6E2BAE9F81F41D2D6E2BA1707204117072041D2D6E23A0000A0C00000A04002009675783E1E000000FFFF0100D8DB1D0080061E0000000200D8DB1D0080061E000100
1004
00000100000096750000000000000000803F000000000000000000000000000080BF0000A040000020410000000002000000A0C00000A040A4EE2F4FE7BA2F4FE7BA2F4FE7BA2F4FE73A170720412F4FE73A020080BF0000104102009675683F1E000000FFFF0100D8DB1D0088DD1D0000000200D8DB1D00
1004
88DD1D00010000000100000096750000000080BF00000000000000000000000000000000000080BF0000000000001041000000000200020080BF00001041A4EED2D6E2BAE9F80F41E9F81F411707204117071041170720410000A0C00000A0400200967558401E000000FFFF010068DC1D0018DE1D000000
1004
020068DC1D0018DE1D0001000000010000009675000000000000000000000000803F00000000000080BF000000000000A040000010410000204102000000A0C00000A040A4EEE9F81F41E9F80F41D2D6E2BA1707204117071041170720410000A0C0FFFFFF3F0200967548411E000000FFFF010068DC1D00
1004
38DF1D000000020068DC1D0038DF1D000100000001000000967500000000803F000000000000000000000000000080BF0000000000002041000010410000A04002000000A0C0FFFFFF3FA4EED2D6E2BAE9F80F41D2D6E2BAD2D6E23A170710411707204100004040000020410200967538421E000000FFFF
1004
010068DC1D0088DD1D000000020068DC1D0088DD1D00010000000100000096750000000080BF000000000000000000000000000080BF0000000000000000000010410000000002000000404000002041A4EE2F4FE7BA2F4FE7BAC5F81F412F4FE73A170720413A072041020000BF0200003F020096752843
1004
1E000000FFFF010088DD1D0018DE1D000000020088DD1D0018DE1D0001000000010000009675000000000000000000000000803F000080BF00000000000000000000000000001841000020410200020000BF0200003FA4EE2F4FE7BA2F4FE7BAC5F81F412F4FE73A170720413A072041FFFFCF4000001841
1004
0200967518441E000000FFFF010088DD1D0018DE1D000000020088DD1D0018DE1D0001000000010000009675000000000000000000000000803F000080BF00000000000000000000000000001841000020410200FFFFCF4000001841A4EED2D6E2BAE9F81F41D2D6E2BAD2D6E23A17072041170720410000
1004
A0C00000A0400200967508451E000000FFFF010088DD1D0080061E000000020088DD1D0080061E00010000000100000096750000000000000000803F00000000000080BF000000000000000000000000000020410000A04002000000A0C00000A040A4EEC5F81F412F4FE7BAC5F81F413A07204117072041
1004
3A072041000000000200803F02009675F8451E000000FFFF010018DE1D0038DF1D000000020018DE1D0038DF1D000100000001000000967500000000803F000000000000000000000000000000000000803F0000204100002041000020410200000000000200803FA4EEC5F81F412F4FE7BAC5F81F413A07
1004
2041170720413A0720410000E0400000204102009675E8461E000000FFFF010018DE1D0038DF1D000000020018DE1D0038DF1D000100000001000000967500000000803F000000000000000000000000000000000000803F00002041000020410000204102000000E04000002041A4EED2D6E2BAE9F81F41
1004
E9F81F41170720411707204117072041000020C10000008002009675D8471E000000FFFF010018DE1D0080061E000000020018DE1D0080061E00010000000100000096750000000000000000803F0000000000000000000000000000803F0000204100002041000020410200000020C100000080A4EEE9F8
1004
1F41E9F81F41D2D6E2BA170720411707204117072041000020C1000000800200967510AB1E000000FFFF010080061E0038DF1D000000020080061E0038DF1D000100000001000000967500000000803F0000000000000000000000000000803F000000000000204100002041000020410200000020C10000
1004
008019FC
1005
93
  0
INSERT
  8
AME_FRZ
  5
93
  2
AME_NIL
 10
1.0
 20
1.0
 30
1.0
1001
AME_SOL
1004

1005
0
  0
INSERT
  8
AME_FRZ
  5
96
  2
AME_MAT
 10
0.0
 20
0.0
 30
0.0
1001
AME_SOL
1000
MILD_STEEL
1040
7860.0
1040
220.0
1040
0.275
1040
207.0
1040
345.0
1040
56.0
1040
12.0
1040
0.46
  0
ENDSEC
  0
EOF
