600 0 1 0           
88 GICL ACIS Healer - Source: /gicl/data5/repository/ICEM-CDC/demos/MUTTER/MUTTER.sat - 6 0 18 ACIS 6.0.3 Solaris 24 Sat Apr 13 23:08:15 2002 
1 9.999999999999999547e-07 1.000000000000000036e-10 
body $1 $2 $-1 $3 #
brep_non_volatile_id-cdc-attrib $-1 $-1 $-1 $0 1 #
lump $-1 $-1 $4 $0 #
transform $-1 1 0 0 0 1 0 0 0 1 0 0 0 1 no_rotate no_reflect no_shear #
shell $-1 $-1 $-1 $5 $-1 $2 #
face $6 $7 $8 $4 $-1 $9 reversed single #
face_name-twe-attrib $-1 $10 $-1 $5 1 #
face $11 $12 $13 $4 $-1 $14 forward single #
loop $15 $16 $17 $5 #
cone-surface $18 80 -2.866663874798150074e-14 31 0 -6.12323293943686042e-17 -1 4.999999823709419644 0 0 1 I I 0 1 4.999999823709419644 forward I I I I #
primitive_order-cdc-attrib $-1 $-1 $6 $5 1 3 #
face_name-twe-attrib $-1 $19 $-1 $7 2 #
face $20 $21 $22 $4 $-1 $23 forward single #
loop $24 $-1 $25 $7 #
plane-surface $26 88.50000012344000311 -4.907477485847580034 27 0.5000000016387088353 -0.8660254028383297387 5.302875273048738731e-17 1.060575051133800047e-16 0 -1 forward_v I I I I #
loop_type-twe-attrib $-1 $-1 $-1 $8 0 #
loop $27 $-1 $28 $5 #
coedge $-1 $17 $17 $29 $30 reversed $8 $-1 #
surf-twe-attrib $-1 $-1 $-1 $9 5 #
primitive_order-cdc-attrib $-1 $-1 $11 $7 0 10 #
face_name-twe-attrib $-1 $31 $-1 $12 3 #
face $32 $33 $34 $4 $-1 $35 forward single #
loop $36 $-1 $37 $12 #
plane-surface $38 80.00000012344000311 -9.814954795404529975 27 -0.5000000016387068369 -0.8660254028383307379 5.302875273048738731e-17 1.060575051133800047e-16 0 1 forward_v I I I I #
loop_type-twe-attrib $-1 $-1 $-1 $13 0 #
coedge $-1 $39 $40 $41 $42 forward $13 $-1 #
surf-twe-attrib $-1 $-1 $-1 $14 7 #
loop_type-twe-attrib $-1 $-1 $-1 $16 1 #
coedge $-1 $28 $28 $43 $44 reversed $16 $-1 #
coedge $-1 $29 $29 $17 $30 forward $45 $-1 #
edge $46 $47 0 $47 6.283185307179586232 $29 $48 forward 7 unknown #
primitive_order-cdc-attrib $-1 $-1 $20 $12 0 10 #
face_name-twe-attrib $-1 $49 $-1 $21 4 #
face $50 $51 $52 $4 $-1 $53 forward single #
loop $54 $-1 $55 $21 #
plane-surface $56 71.50000012344000311 -4.907477485847580034 27 -1 0 0 0 0 1 forward_v I I I I #
loop_type-twe-attrib $-1 $-1 $-1 $22 0 #
coedge $-1 $57 $58 $59 $60 forward $22 $-1 #
surf-twe-attrib $-1 $-1 $-1 $23 12 #
coedge $-1 $61 $25 $58 $62 reversed $13 $-1 #
coedge $-1 $25 $61 $63 $64 forward $13 $-1 #
coedge $-1 $65 $59 $25 $42 reversed $66 $-1 #
edge $67 $68 0 $69 9.814954586946202042 $25 $70 forward 7 unknown #
coedge $-1 $43 $43 $28 $44 forward $71 $-1 #
edge $72 $73 0 $73 6.283185307179586232 $43 $74 forward 7 unknown #
loop $75 $66 $29 $76 #
edge_name-twe-attrib $-1 $-1 $-1 $30 13 8704 #
vertex $-1 $30 $77 #
ellipse-curve $78 80 -2.842170943040400112e-14 35 0 0 -1 4.999999823709419644 0 0 1 I I #
primitive_order-cdc-attrib $-1 $-1 $32 $21 0 10 #
face_name-twe-attrib $-1 $79 $-1 $33 5 #
face $80 $81 $82 $4 $-1 $83 forward single #
loop $84 $-1 $85 $33 #
plane-surface $86 71.50000012344000311 4.907477133266380243 27 -0.5000000016387068369 0.8660254028383307379 -5.302875273048738731e-17 -1.060575051133800047e-16 0 1 forward_v I I I I #
loop_type-twe-attrib $-1 $-1 $-1 $34 0 #
coedge $-1 $87 $88 $89 $90 forward $34 $-1 #
surf-twe-attrib $-1 $-1 $-1 $35 21 #
coedge $-1 $91 $37 $88 $92 reversed $22 $-1 #
coedge $-1 $37 $91 $39 $62 forward $22 $-1 #
coedge $-1 $41 $89 $37 $60 reversed $66 $-1 #
edge $93 $69 0 $94 9.814954586946200266 $37 $95 forward 7 unknown #
coedge $-1 $40 $39 $96 $97 reversed $13 $-1 #
edge $98 $99 0 $69 8 $58 $100 forward 7 unknown #
coedge $-1 $101 $102 $40 $64 reversed $103 $-1 #
edge $104 $105 0 $68 8 $40 $106 forward 7 unknown #
coedge $-1 $107 $41 $102 $108 reversed $66 $-1 #
loop $109 $-1 $41 $76 #
edge_name-twe-attrib $-1 $-1 $-1 $42 1 8704 #
vertex $-1 $64 $110 #
vertex $-1 $62 $111 #
straight-curve $112 88.50000012344000311 -4.907477485847580034 35 -0.8660254028383299607 -0.5000000016387089463 0 I I #
loop $113 $114 $43 $115 #
edge_name-twe-attrib $-1 $-1 $-1 $44 14 8704 #
vertex $-1 $44 $116 #
ellipse-curve $117 80 -2.891156806555900035e-14 27 0 0 1 4.999999823709419644 0 0 1 I I #
loop_type-twe-attrib $-1 $-1 $-1 $45 1 #
face $118 $115 $45 $4 $-1 $119 forward single #
point $-1 84.99999982370940188 -2.842170943040400112e-14 35 #
cur-twe-attrib $-1 $-1 $-1 $48 30 #
primitive_order-cdc-attrib $-1 $-1 $50 $33 0 10 #
face_name-twe-attrib $-1 $120 $-1 $51 6 #
face $121 $76 $103 $4 $-1 $122 forward single #
loop $123 $-1 $124 $51 #
plane-surface $125 80.00000012344000311 9.814954442823340841 27 0.5000000016387088353 0.8660254028383297387 -5.302875273048738731e-17 -1.060575051133800047e-16 0 -1 forward_v I I I I #
loop_type-twe-attrib $-1 $-1 $-1 $52 0 #
coedge $-1 $126 $127 $128 $129 forward $52 $-1 #
surf-twe-attrib $-1 $-1 $-1 $53 33 #
coedge $-1 $130 $55 $127 $131 reversed $34 $-1 #
coedge $-1 $55 $130 $57 $92 forward $34 $-1 #
coedge $-1 $59 $128 $55 $90 reversed $66 $-1 #
edge $132 $94 0 $133 9.814954619113960277 $55 $134 forward 7 unknown #
coedge $-1 $58 $57 $135 $136 reversed $22 $-1 #
edge $137 $138 0 $94 8 $88 $139 forward 7 unknown #
edge_name-twe-attrib $-1 $-1 $-1 $60 3 8704 #
vertex $-1 $92 $140 #
straight-curve $141 80.00000012344000311 -9.814954795404529975 35 -0.8660254028383309599 0.5000000016387069479 0 I I #
coedge $-1 $135 $142 $61 $97 forward $114 $-1 #
edge $143 $105 0 $99 9.814954586946202042 $96 $144 forward 7 unknown #
edge_name-twe-attrib $-1 $-1 $-1 $62 4 8448 #
vertex $-1 $97 $145 #
straight-curve $146 80.00000012344000311 -9.814954795404529975 27 0 6.12323293943686042e-17 1 I I #
coedge $-1 $147 $63 $142 $148 reversed $103 $-1 #
coedge $-1 $63 $147 $65 $108 forward $103 $-1 #
loop $149 $-1 $102 $81 #
edge_name-twe-attrib $-1 $-1 $-1 $64 2 8448 #
vertex $-1 $148 $150 #
straight-curve $151 88.50000012344000311 -4.907477485847580034 27 0 6.12323293943686042e-17 1 I I #
coedge $-1 $128 $65 $124 $152 reversed $66 $-1 #
edge $153 $154 0 $68 9.814954619113960277 $102 $155 forward 7 unknown #
loop_type-twe-attrib $-1 $-1 $-1 $66 0 #
point $-1 88.50000012344000311 -4.907477485847580034 35 #
point $-1 80.00000012344000311 -9.814954795404529975 35 #
cur-twe-attrib $-1 $-1 $-1 $70 42 #
loop_type-twe-attrib $-1 $-1 $-1 $71 1 #
loop $156 $-1 $142 $115 #
face $157 $-1 $71 $4 $-1 $158 forward single #
point $-1 84.99999982370940188 -2.891156806555900035e-14 27 #
cur-twe-attrib $-1 $-1 $-1 $74 44 #
face_name-twe-attrib $-1 $159 $-1 $76 8 #
plane-surface $160 80.00000012344000311 -1.762905976296630054e-07 35 0 0 1 1 0 0 forward_v I I I I #
primitive_order-cdc-attrib $-1 $-1 $80 $51 0 10 #
face_name-twe-attrib $-1 $161 $-1 $81 7 #
plane-surface $162 88.50000012344000311 4.907477133266380243 27 1 0 0 0 0 -1 forward_v I I I I #
loop_type-twe-attrib $-1 $-1 $-1 $82 0 #
coedge $-1 $163 $164 $107 $152 forward $82 $-1 #
surf-twe-attrib $-1 $-1 $-1 $83 51 #
coedge $-1 $165 $85 $164 $166 reversed $52 $-1 #
coedge $-1 $85 $165 $87 $131 forward $52 $-1 #
coedge $-1 $89 $107 $85 $129 reversed $66 $-1 #
edge $167 $133 0 $168 9.814954586946205595 $85 $169 forward 7 unknown #
coedge $-1 $88 $87 $170 $171 reversed $34 $-1 #
edge $172 $173 0 $133 8 $127 $174 forward 7 unknown #
edge_name-twe-attrib $-1 $-1 $-1 $90 5 8704 #
vertex $-1 $131 $175 #
straight-curve $176 71.50000012344000311 -4.907477485847580034 35 0 1 0 I I #
coedge $-1 $170 $96 $91 $136 forward $114 $-1 #
edge $177 $99 0 $138 9.814954586946200266 $135 $178 forward 7 unknown #
edge_name-twe-attrib $-1 $-1 $-1 $92 6 8448 #
vertex $-1 $136 $179 #
straight-curve $180 71.50000012344000311 -4.907477485847580034 27 0 6.12323293943686042e-17 1 I I #
point $-1 71.50000012344000311 -4.907477485847580034 35 #
cur-twe-attrib $-1 $-1 $-1 $95 60 #
coedge $-1 $96 $181 $101 $148 forward $114 $-1 #
edge_name-twe-attrib $-1 $-1 $-1 $97 16 8704 #
straight-curve $182 88.50000012344000311 -4.907477485847580034 27 -0.8660254028383299607 -0.5000000016387089463 0 I I #
point $-1 80.00000012344000311 -9.814954795404529975 27 #
cur-twe-attrib $-1 $-1 $-1 $100 62 #
coedge $-1 $102 $101 $163 $183 forward $103 $-1 #
edge $184 $185 0 $105 9.814954619113960277 $142 $186 forward 7 unknown #
loop_type-twe-attrib $-1 $-1 $-1 $103 0 #
point $-1 88.50000012344000311 -4.907477485847580034 27 #
cur-twe-attrib $-1 $-1 $-1 $106 64 #
edge $187 $168 0 $154 9.814954586946207371 $124 $188 forward 7 unknown #
edge_name-twe-attrib $-1 $-1 $-1 $108 11 8704 #
vertex $-1 $183 $189 #
straight-curve $190 88.50000012344000311 4.907477133266380243 35 0 -1 0 I I #
loop_type-twe-attrib $-1 $-1 $-1 $114 0 #
face_name-twe-attrib $-1 $191 $-1 $115 9 #
plane-surface $192 80.00000012344000311 -1.762905981195220111e-07 27 0 0 -1 -1 0 0 forward_v I I I I #
primitive_order-cdc-attrib $-1 $-1 $118 $76 0 10 #
surf-twe-attrib $-1 $-1 $-1 $119 76 #
primitive_order-cdc-attrib $-1 $-1 $121 $81 0 10 #
surf-twe-attrib $-1 $-1 $-1 $122 81 #
coedge $-1 $193 $124 $147 $183 reversed $82 $-1 #
coedge $-1 $124 $193 $126 $166 forward $82 $-1 #
coedge $-1 $127 $126 $194 $195 reversed $52 $-1 #
edge $196 $197 0 $168 8 $164 $198 forward 7 unknown #
edge_name-twe-attrib $-1 $-1 $-1 $129 7 8704 #
vertex $-1 $166 $199 #
straight-curve $200 71.50000012344000311 4.907477133266380243 35 0.8660254028383309599 0.5000000016387069479 0 I I #
coedge $-1 $194 $135 $130 $171 forward $114 $-1 #
edge $201 $138 0 $173 9.814954619113960277 $170 $202 forward 7 unknown #
edge_name-twe-attrib $-1 $-1 $-1 $131 8 8448 #
vertex $-1 $171 $203 #
straight-curve $204 71.50000012344000311 4.907477133266380243 27 0 6.12323293943686042e-17 1 I I #
point $-1 71.50000012344000311 4.907477133266380243 35 #
cur-twe-attrib $-1 $-1 $-1 $134 90 #
edge_name-twe-attrib $-1 $-1 $-1 $136 17 8704 #
straight-curve $205 80.00000012344000311 -9.814954795404529975 27 -0.8660254028383309599 0.5000000016387069479 0 I I #
point $-1 71.50000012344000311 -4.907477485847580034 27 #
cur-twe-attrib $-1 $-1 $-1 $139 92 #
coedge $-1 $142 $194 $193 $206 forward $114 $-1 #
cur-twe-attrib $-1 $-1 $-1 $144 97 #
edge $207 $185 0 $154 8 $147 $208 forward 7 unknown #
edge_name-twe-attrib $-1 $-1 $-1 $148 15 8704 #
vertex $-1 $148 $209 #
straight-curve $210 88.50000012344000311 4.907477133266380243 27 0 -1 0 I I #
edge_name-twe-attrib $-1 $-1 $-1 $152 9 8704 #
straight-curve $211 80.00000012344000311 9.814954442823340841 35 0.8660254028383299607 -0.5000000016387089463 0 I I #
point $-1 88.50000012344000311 4.907477133266380243 35 #
cur-twe-attrib $-1 $-1 $-1 $155 108 #
primitive_order-cdc-attrib $-1 $-1 $157 $115 0 10 #
surf-twe-attrib $-1 $-1 $-1 $158 115 #
coedge $-1 $164 $163 $181 $206 reversed $82 $-1 #
coedge $-1 $181 $170 $165 $195 forward $114 $-1 #
edge $212 $173 0 $197 9.814954586946205595 $194 $213 forward 7 unknown #
edge_name-twe-attrib $-1 $-1 $-1 $166 10 8448 #
vertex $-1 $195 $214 #
straight-curve $215 80.00000012344000311 9.814954442823340841 27 0 6.12323293943686042e-17 1 I I #
point $-1 80.00000012344000311 9.814954442823340841 35 #
cur-twe-attrib $-1 $-1 $-1 $169 129 #
edge_name-twe-attrib $-1 $-1 $-1 $171 18 8704 #
straight-curve $216 71.50000012344000311 -4.907477485847580034 27 0 1 0 I I #
point $-1 71.50000012344000311 4.907477133266380243 27 #
cur-twe-attrib $-1 $-1 $-1 $174 131 #
cur-twe-attrib $-1 $-1 $-1 $178 136 #
edge $217 $197 0 $185 9.814954586946207371 $181 $218 forward 7 unknown #
edge_name-twe-attrib $-1 $-1 $-1 $183 12 8448 #
straight-curve $219 88.50000012344000311 4.907477133266380243 27 0 6.12323293943686042e-17 1 I I #
point $-1 88.50000012344000311 4.907477133266380243 27 #
cur-twe-attrib $-1 $-1 $-1 $186 148 #
cur-twe-attrib $-1 $-1 $-1 $188 152 #
edge_name-twe-attrib $-1 $-1 $-1 $195 19 8704 #
straight-curve $220 71.50000012344000311 4.907477133266380243 27 0.8660254028383309599 0.5000000016387069479 0 I I #
point $-1 80.00000012344000311 9.814954442823340841 27 #
cur-twe-attrib $-1 $-1 $-1 $198 166 #
cur-twe-attrib $-1 $-1 $-1 $202 171 #
edge_name-twe-attrib $-1 $-1 $-1 $206 20 8704 #
straight-curve $221 80.00000012344000311 9.814954442823340841 27 0.8660254028383299607 -0.5000000016387089463 0 I I #
cur-twe-attrib $-1 $-1 $-1 $208 183 #
cur-twe-attrib $-1 $-1 $-1 $213 195 #
cur-twe-attrib $-1 $-1 $-1 $218 206 #
End-of-ACIS-data 