700 0 2 0           
24 FBMach with ACIS - 7.0.3 13 ACIS 7.0.3 NT 24 Tue May 14 12:10:42 2002 
1 9.9999999999999995e-007 1e-010 
body $2 -1 $-1 $3 $-1 $4 #
bdycol-kcp $-1 -1 1 3 $5 $6 $7 #
model_id-kcp-attrib $-1 -1 $8 $-1 $0 1 1021392641 1021392642 -699203583 1 #
lump $-1 -1 $-1 $-1 $9 $0 #
transform $-1 -1 1.0000000000000002 1.2176527717923972e-033 -6.1629758220391547e-033 1.2176527717923972e-033 1.0000000000000002 -1.2325951644078307e-032 -6.1629758220391547e-033 -1.2325951644078309e-032 1 -1.4210854715202004e-014 0 0 1 rotate no_reflect no_shear #
body $10 -1 $-1 $11 $-1 $12 #
body $13 -1 $-1 $14 $-1 $15 #
body $16 -1 $-1 $17 $-1 $18 #
brep_non_volatile_id-cdc-attrib $-1 -1 $-1 $2 $0 1 #
shell $-1 -1 $-1 $-1 $-1 $19 $-1 $3 #
model_id-kcp-attrib $-1 -1 $-1 $-1 $5 1 1021392641 1021392642 -699203582 1 #
lump $-1 -1 $-1 $-1 $20 $5 #
transform $-1 -1 1 0 0 0 1 0 0 0 1 80.000000123440003 -1.7629059723134333e-007 31 1 no_rotate no_reflect no_shear #
rgb_color-st-attrib $-1 -1 $21 $-1 $6 0.5 1 1 #
lump $-1 -1 $-1 $22 $23 $6 #
transform $-1 -1 1 0 0 0 1 0 0 0 1 80.000000123440003 -1.7629059723134333e-007 31 1 no_rotate no_reflect no_shear #
rgb_color-st-attrib $-1 -1 $24 $-1 $7 0.5 1 1 #
lump $-1 -1 $-1 $-1 $25 $7 #
transform $-1 -1 -1 0 -1.2246063538223773e-016 0 1 0 1.2246063538223773e-016 0 -1 80 -2.8666638747981501e-014 31.000000000000004 1 rotate no_reflect no_shear #
face $26 -1 $-1 $27 $28 $9 $-1 $29 reversed single #
shell $-1 -1 $-1 $-1 $-1 $30 $-1 $11 #
model_id-kcp-attrib $-1 -1 $-1 $13 $6 1 1021392641 1021392642 -698941436 1 #
lump $-1 -1 $-1 $-1 $31 $6 #
shell $-1 -1 $-1 $-1 $-1 $32 $-1 $14 #
model_id-kcp-attrib $-1 -1 $-1 $16 $7 1 1021392641 1021392642 -697237501 1 #
shell $-1 -1 $-1 $-1 $-1 $33 $-1 $17 #
model_id-kcp-attrib $-1 -1 $34 $-1 $19 1 1021392641 1021392642 -699203583 2 #
face $35 -1 $-1 $36 $37 $9 $-1 $38 forward single #
loop $39 -1 $-1 $40 $41 $19 #
cone-surface $42 -1 $-1 80 -2.8666638747981501e-014 31 0 -6.1232329394368604e-017 -1 4.9999998237094196 0 0 1 I I 0 1 4.9999998237094196 forward I I I I #
face $43 -1 $-1 $44 $45 $20 $-1 $46 forward single #
shell $-1 -1 $-1 $-1 $-1 $47 $-1 $22 #
face $-1 -1 $-1 $48 $49 $23 $-1 $50 reversed single #
face $-1 -1 $-1 $51 $52 $25 $-1 $53 forward single #
face_name-twe-attrib $-1 -1 $54 $26 $19 1 #
model_id-kcp-attrib $-1 -1 $55 $-1 $27 1 1021392641 1021392642 -699203583 3 #
face $56 -1 $-1 $57 $58 $9 $-1 $59 forward single #
loop $60 -1 $-1 $-1 $61 $27 #
plane-surface $62 -1 $-1 88.500000123440003 -4.90747748584758 27 0.50000000163870884 -0.86602540283832974 5.3028752730487387e-017 1.0605750511338e-016 0 -1 forward_v I I I I #
model_id-kcp-attrib $-1 -1 $63 $-1 $28 1 1021392641 1021392642 -699203583 15 #
loop $64 -1 $-1 $-1 $65 $19 #
coedge $-1 -1 $-1 $41 $41 $66 $67 reversed $28 $-1 #
surf-twe-attrib $-1 -1 $-1 $-1 $29 5 #
model_id-kcp-attrib $-1 -1 $-1 $-1 $30 1 1021392641 1021392642 -699203582 4 #
face $68 -1 $-1 $69 $70 $20 $-1 $71 reversed single #
loop $-1 -1 $-1 $-1 $72 $30 #
plane-surface $-1 -1 $-1 0 0 4 0 0 1 1 0 0 forward_v I I I I #
face $-1 -1 $-1 $73 $74 $31 $-1 $75 reversed single #
face $-1 -1 $-1 $76 $77 $23 $-1 $78 reversed single #
loop $-1 -1 $-1 $-1 $79 $32 #
plane-surface $-1 -1 $-1 8.5 -4.9074773095569837 4 0.50000000163870872 -0.86602540283832974 -1.0674587237928691e-032 0 1.2325951644078309e-032 -1 forward_v I I I I #
face $-1 -1 $-1 $80 $81 $25 $-1 $82 forward single #
loop $-1 -1 $-1 $83 $84 $33 #
cone-surface $-1 -1 $-1 0 0 0 0 0 1 4.9999998237094196 0 0 1 I I 0 1 4.9999998237094196 forward I I I I #
primitive_order-cdc-attrib $-1 -1 $-1 $34 $19 1 3 #
face_name-twe-attrib $-1 -1 $85 $35 $27 2 #
model_id-kcp-attrib $-1 -1 $86 $-1 $36 1 1021392641 1021392642 -699203583 4 #
face $87 -1 $-1 $88 $89 $9 $-1 $90 forward single #
loop $91 -1 $-1 $-1 $92 $36 #
plane-surface $93 -1 $-1 80.000000123440003 -9.81495479540453 27 -0.50000000163870695 -0.86602540283833085 5.3028752730487393e-017 1.0605750511338e-016 0 1 forward_v I I I I #
loop_type-twe-attrib $-1 -1 $-1 $-1 $37 0 #
coedge $-1 -1 $-1 $94 $95 $96 $97 forward $37 $-1 #
surf-twe-attrib $-1 -1 $-1 $-1 $38 7 #
loop_type-twe-attrib $-1 -1 $-1 $39 $28 0 #
model_id-kcp-attrib $-1 -1 $98 $-1 $40 1 1021392641 1021392642 -699203583 16 #
coedge $-1 -1 $-1 $65 $65 $99 $100 reversed $40 $-1 #
coedge $-1 -1 $-1 $66 $66 $41 $67 forward $101 $-1 #
edge $102 -1 $-1 $103 0 $103 6.2831853071795862 $66 $104 forward @7 unknown #
model_id-kcp-attrib $-1 -1 $-1 $-1 $44 1 1021392641 1021392642 -699203582 5 #
face $-1 -1 $-1 $105 $106 $20 $-1 $107 reversed single #
loop $-1 -1 $-1 $-1 $108 $44 #
plane-surface $-1 -1 $-1 0 0 -4 0 0 1 1 0 0 forward_v I I I I #
coedge $-1 -1 $-1 $109 $110 $111 $112 forward $45 $-1 #
face $-1 -1 $-1 $113 $114 $31 $-1 $115 reversed single #
loop $-1 -1 $-1 $-1 $116 $47 #
plane-surface $-1 -1 $-1 0 9.8149546191139372 0 0 -1 0 0 0 -1 forward_v I I I I #
face $-1 -1 $-1 $117 $118 $23 $-1 $119 reversed single #
loop $-1 -1 $-1 $-1 $120 $48 #
plane-surface $-1 -1 $-1 0 -9.8149546191139372 4 -0.50000000163870684 -0.86602540283833085 -1.0674587237928704e-032 0 -1.2325951644078309e-032 1 forward_v I I I I #
coedge $-1 -1 $-1 $121 $122 $123 $124 reversed $49 $-1 #
face $-1 -1 $-1 $-1 $125 $25 $-1 $126 forward single #
loop $-1 -1 $-1 $-1 $127 $51 #
plane-surface $-1 -1 $-1 0 0 -4.0000000000000018 0 0 -1 -1 0 0 forward_v I I I I #
loop $-1 -1 $-1 $-1 $128 $33 #
coedge $-1 -1 $-1 $84 $84 $127 $129 reversed $52 $-1 #
primitive_order-cdc-attrib $-1 -1 $-1 $55 $27 0 10 #
face_name-twe-attrib $-1 -1 $130 $56 $36 3 #
model_id-kcp-attrib $-1 -1 $131 $-1 $57 1 1021392641 1021392642 -699203583 5 #
face $132 -1 $-1 $133 $134 $9 $-1 $135 forward single #
loop $136 -1 $-1 $-1 $137 $57 #
plane-surface $138 -1 $-1 71.500000123440003 -4.90747748584758 27 -1 0 0 0 0 1 forward_v I I I I #
loop_type-twe-attrib $-1 -1 $-1 $-1 $58 0 #
coedge $-1 -1 $-1 $139 $140 $141 $142 forward $58 $-1 #
surf-twe-attrib $-1 -1 $-1 $-1 $59 12 #
coedge $-1 -1 $-1 $143 $61 $140 $144 reversed $37 $-1 #
coedge $-1 -1 $-1 $61 $143 $145 $146 forward $37 $-1 #
coedge $-1 -1 $-1 $147 $141 $61 $97 reversed $148 $-1 #
edge $149 -1 $-1 $150 0 $151 9.814954586946202 $61 $152 forward @7 unknown #
loop_type-twe-attrib $-1 -1 $-1 $64 $40 1 #
coedge $-1 -1 $-1 $99 $99 $65 $100 forward $153 $-1 #
edge $154 -1 $-1 $155 0 $155 6.2831853071795862 $99 $156 forward @7 unknown #
loop $157 -1 $-1 $148 $66 $158 #
attrib_edge_convexity-kcp-attrib $-1 -1 $159 $-1 $67 1 #
vertex $160 -1 $-1 $67 $161 #
ellipse-curve $162 -1 $-1 80 -2.8421709430404001e-014 35 0 0 -1 4.9999998237094196 0 0 1 I I #
face $163 -1 $-1 $164 $165 $20 $-1 $166 reversed single #
loop $-1 -1 $-1 $-1 $167 $69 #
plane-surface $-1 -1 $-1 0 -9.8149546191139372 0 0 1 0 0 0 1 forward_v I I I I #
coedge $-1 -1 $-1 $168 $169 $170 $171 forward $70 $-1 #
coedge $-1 -1 $-1 $172 $72 $173 $174 forward $45 $-1 #
coedge $-1 -1 $-1 $72 $172 $175 $176 forward $45 $-1 #
coedge $-1 -1 $-1 $177 $178 $72 $112 reversed $179 $-1 #
edge $-1 -1 $-1 $180 -9.8149546191139372 $181 9.8149546191139372 $111 $182 forward @7 unknown #
face $-1 -1 $-1 $183 $184 $31 $-1 $185 reversed single #
loop $-1 -1 $-1 $-1 $186 $73 #
plane-surface $-1 -1 $-1 -8.5 0 0 1 0 0 0 0 -1 forward_v I I I I #
coedge $-1 -1 $-1 $187 $188 $189 $190 reversed $74 $-1 #
face $-1 -1 $-1 $191 $192 $23 $-1 $193 reversed single #
loop $-1 -1 $-1 $-1 $194 $76 #
plane-surface $-1 -1 $-1 8.5 0 0 -1 0 0 0 0 1 forward_v I I I I #
coedge $-1 -1 $-1 $195 $196 $197 $198 reversed $77 $-1 #
coedge $-1 -1 $-1 $199 $79 $194 $200 reversed $49 $-1 #
coedge $-1 -1 $-1 $79 $199 $195 $201 forward $49 $-1 #
coedge $-1 -1 $-1 $202 $203 $79 $124 forward $204 $-1 #
edge $-1 -1 $-1 $205 -2.4537386306526927 $206 7.3612159562935133 $123 $207 forward @7 unknown #
loop $-1 -1 $-1 $-1 $208 $80 #
plane-surface $-1 -1 $-1 0 0 4.0000000000000018 0 0 1 1 0 0 forward_v I I I I #
coedge $-1 -1 $-1 $127 $127 $84 $129 forward $81 $-1 #
coedge $-1 -1 $-1 $128 $128 $208 $209 reversed $83 $-1 #
edge $-1 -1 $-1 $210 0 $210 6.2831853071795862 $127 $211 forward @7 unknown #
primitive_order-cdc-attrib $-1 -1 $-1 $86 $36 0 10 #
face_name-twe-attrib $-1 -1 $212 $87 $57 4 #
model_id-kcp-attrib $-1 -1 $213 $-1 $88 1 1021392641 1021392642 -699203583 6 #
face $214 -1 $-1 $215 $216 $9 $-1 $217 forward single #
loop $218 -1 $-1 $-1 $219 $88 #
plane-surface $220 -1 $-1 71.500000123440003 4.9074771332663802 27 -0.50000000163870695 0.86602540283833085 -5.3028752730487393e-017 -1.0605750511338e-016 0 1 forward_v I I I I #
loop_type-twe-attrib $-1 -1 $-1 $-1 $89 0 #
coedge $-1 -1 $-1 $221 $222 $223 $224 forward $89 $-1 #
surf-twe-attrib $-1 -1 $-1 $-1 $90 21 #
coedge $-1 -1 $-1 $225 $92 $222 $226 reversed $58 $-1 #
coedge $-1 -1 $-1 $92 $225 $94 $144 forward $58 $-1 #
coedge $-1 -1 $-1 $96 $223 $92 $142 reversed $148 $-1 #
edge $227 -1 $-1 $151 0 $228 9.8149545869462003 $92 $229 forward @7 unknown #
coedge $-1 -1 $-1 $95 $94 $230 $231 reversed $37 $-1 #
edge $232 -1 $-1 $233 0 $151 8 $140 $234 forward @7 unknown #
coedge $-1 -1 $-1 $235 $236 $95 $146 reversed $237 $-1 #
edge $238 -1 $-1 $239 0 $150 8 $95 $240 forward @7 unknown #
coedge $-1 -1 $-1 $241 $96 $236 $242 reversed $148 $-1 #
loop $243 -1 $-1 $-1 $96 $158 #
attrib_edge_convexity-kcp-attrib $-1 -1 $244 $-1 $97 1 #
vertex $-1 -1 $-1 $146 $245 #
vertex $-1 -1 $-1 $144 $246 #
straight-curve $247 -1 $-1 88.500000123440003 -4.90747748584758 35 -0.86602540283832996 -0.50000000163870895 0 I I #
loop $248 -1 $-1 $249 $99 $250 #
attrib_edge_convexity-kcp-attrib $-1 -1 $251 $-1 $100 1 #
vertex $252 -1 $-1 $100 $253 #
ellipse-curve $254 -1 $-1 80 -2.8911568065559e-014 27 0 0 1 4.9999998237094196 0 0 1 I I #
model_id-kcp-attrib $-1 -1 $255 $-1 $101 1 1021392641 1021392642 -699203583 17 #
face $256 -1 $-1 $250 $101 $9 $-1 $257 forward single #
convexity-sys-attrib $-1 -1 $258 $102 $67 #
model_id-kcp-attrib $-1 -1 $-1 $-1 $103 1 1021392641 1021392642 -699203583 19 #
point $-1 -1 $-1 84.999999823709402 -2.8421709430404001e-014 35 #
cur-twe-attrib $-1 -1 $-1 $-1 $104 30 #
model_id-kcp-attrib $-1 -1 $-1 $-1 $105 1 1021392641 1021392642 -699203582 2 #
face $-1 -1 $-1 $259 $260 $20 $-1 $261 reversed single #
loop $-1 -1 $-1 $-1 $262 $105 #
plane-surface $-1 -1 $-1 -8.5 0 0 1 0 0 0 0 -1 forward_v I I I I #
coedge $-1 -1 $-1 $263 $175 $264 $265 forward $106 $-1 #
coedge $-1 -1 $-1 $266 $108 $263 $267 forward $70 $-1 #
coedge $-1 -1 $-1 $108 $266 $268 $269 forward $70 $-1 #
coedge $-1 -1 $-1 $178 $177 $108 $171 reversed $179 $-1 #
edge $-1 -1 $-1 $270 -9.8149546191139372 $271 9.8149546191139372 $170 $272 forward @7 unknown #
coedge $-1 -1 $-1 $110 $109 $273 $274 forward $45 $-1 #
coedge $-1 -1 $-1 $275 $276 $109 $174 reversed $260 $-1 #
edge $-1 -1 $-1 $181 -8.5 $277 8.5 $173 $278 forward @7 unknown #
coedge $-1 -1 $-1 $167 $279 $110 $176 reversed $106 $-1 #
edge $-1 -1 $-1 $280 -8.5 $180 8.5 $175 $281 forward @7 unknown #
coedge $-1 -1 $-1 $170 $111 $279 $282 forward $179 $-1 #
coedge $-1 -1 $-1 $111 $170 $275 $283 reversed $179 $-1 #
loop $-1 -1 $-1 $-1 $177 $259 #
vertex $-1 -1 $-1 $112 $284 #
vertex $-1 -1 $-1 $112 $285 #
straight-curve $-1 -1 $-1 8.5 0 4 0 1 0 I I #
face $-1 -1 $-1 $286 $287 $31 $-1 $288 forward single #
loop $-1 -1 $-1 $-1 $289 $113 #
plane-surface $-1 -1 $-1 0 0 -4 0 0 1 1 0 0 forward_v I I I I #
coedge $-1 -1 $-1 $290 $291 $292 $293 forward $114 $-1 #
coedge $-1 -1 $-1 $294 $116 $295 $296 reversed $74 $-1 #
coedge $-1 -1 $-1 $116 $294 $297 $298 reversed $74 $-1 #
coedge $-1 -1 $-1 $299 $300 $301 $190 forward $302 $-1 #
edge $-1 -1 $-1 $303 -2 $304 6 $305 $306 forward @7 unknown #
face $-1 -1 $-1 $307 $308 $23 $-1 $288 forward single #
loop $-1 -1 $-1 $-1 $309 $117 #
plane-surface $-1 -1 $-1 0 -9.8149546191139372 0 0 1 0 0 0 1 forward_v I I I I #
coedge $-1 -1 $-1 $310 $311 $121 $200 forward $118 $-1 #
coedge $-1 -1 $-1 $312 $120 $313 $201 reversed $77 $-1 #
coedge $-1 -1 $-1 $120 $312 $314 $315 reversed $77 $-1 #
coedge $-1 -1 $-1 $316 $317 $120 $198 forward $308 $-1 #
edge $-1 -1 $-1 $206 -2.4537386628204003 $318 7.3612159241257977 $197 $319 forward @7 unknown #
coedge $-1 -1 $-1 $122 $121 $320 $321 reversed $49 $-1 #
edge $-1 -1 $-1 $322 -6 $205 2 $194 $323 forward @7 unknown #
edge $-1 -1 $-1 $324 -6 $206 2 $313 $325 forward @7 unknown #
coedge $-1 -1 $-1 $203 $123 $326 $327 forward $204 $-1 #
coedge $-1 -1 $-1 $123 $202 $310 $328 forward $204 $-1 #
loop $-1 -1 $-1 $-1 $123 $307 #
vertex $-1 -1 $-1 $200 $329 #
vertex $-1 -1 $-1 $327 $330 #
straight-curve $-1 -1 $-1 6.3750000139290304 -6.1343466289042929 4 -0.86602540283832974 -0.50000000163870872 0 I I #
coedge $-1 -1 $-1 $208 $208 $128 $209 forward $125 $-1 #
edge $-1 -1 $-1 $331 0 $331 6.2831853071795862 $208 $332 forward @7 unknown #
vertex $-1 -1 $-1 $129 $333 #
ellipse-curve $-1 -1 $-1 0 0 -4.0000000000000018 0 0 -1 4.9999998237094196 0 0 1 I I #
primitive_order-cdc-attrib $-1 -1 $-1 $131 $57 0 10 #
face_name-twe-attrib $-1 -1 $334 $132 $88 5 #
model_id-kcp-attrib $-1 -1 $335 $-1 $133 1 1021392641 1021392642 -699203583 7 #
face $336 -1 $-1 $158 $237 $9 $-1 $337 forward single #
loop $338 -1 $-1 $-1 $339 $133 #
plane-surface $340 -1 $-1 80.000000123440003 9.8149544428233408 27 0.50000000163870884 0.86602540283832974 -5.3028752730487387e-017 -1.0605750511338e-016 0 -1 forward_v I I I I #
loop_type-twe-attrib $-1 -1 $-1 $-1 $134 0 #
coedge $-1 -1 $-1 $341 $342 $343 $344 forward $134 $-1 #
surf-twe-attrib $-1 -1 $-1 $-1 $135 33 #
coedge $-1 -1 $-1 $345 $137 $342 $346 reversed $89 $-1 #
coedge $-1 -1 $-1 $137 $345 $139 $226 forward $89 $-1 #
coedge $-1 -1 $-1 $141 $343 $137 $224 reversed $148 $-1 #
edge $347 -1 $-1 $228 0 $348 9.8149546191139603 $137 $349 forward @7 unknown #
coedge $-1 -1 $-1 $140 $139 $350 $351 reversed $58 $-1 #
edge $352 -1 $-1 $353 0 $228 8 $222 $354 forward @7 unknown #
attrib_edge_convexity-kcp-attrib $-1 -1 $355 $-1 $142 1 #
vertex $-1 -1 $-1 $226 $356 #
straight-curve $357 -1 $-1 80.000000123440003 -9.81495479540453 35 -0.86602540283833096 0.50000000163870695 0 I I #
coedge $-1 -1 $-1 $350 $358 $143 $231 forward $249 $-1 #
edge $359 -1 $-1 $239 0 $233 9.814954586946202 $230 $360 forward @7 unknown #
attrib_edge_convexity-kcp-attrib $-1 -1 $361 $-1 $144 1 #
vertex $-1 -1 $-1 $231 $362 #
straight-curve $363 -1 $-1 80.000000123440003 -9.81495479540453 27 0 6.1232329394368604e-017 1 I I #
coedge $-1 -1 $-1 $364 $145 $358 $365 reversed $237 $-1 #
coedge $-1 -1 $-1 $145 $364 $147 $242 forward $237 $-1 #
loop $366 -1 $-1 $-1 $236 $215 #
attrib_edge_convexity-kcp-attrib $-1 -1 $367 $-1 $146 1 #
vertex $-1 -1 $-1 $365 $368 #
straight-curve $369 -1 $-1 88.500000123440003 -4.90747748584758 27 0 6.1232329394368604e-017 1 I I #
coedge $-1 -1 $-1 $343 $147 $339 $370 reversed $148 $-1 #
edge $371 -1 $-1 $372 0 $150 9.8149546191139603 $236 $373 forward @7 unknown #
loop_type-twe-attrib $-1 -1 $-1 $-1 $148 0 #
convexity-sys-attrib $-1 -1 $374 $149 $97 #
point $-1 -1 $-1 88.500000123440003 -4.90747748584758 35 #
point $-1 -1 $-1 80.000000123440003 -9.81495479540453 35 #
cur-twe-attrib $-1 -1 $-1 $-1 $152 42 #
model_id-kcp-attrib $-1 -1 $375 $-1 $153 1 1021392641 1021392642 -699203583 18 #
loop $376 -1 $-1 $-1 $358 $250 #
face $377 -1 $-1 $-1 $153 $9 $-1 $378 forward single #
convexity-sys-attrib $-1 -1 $379 $154 $100 #
model_id-kcp-attrib $-1 -1 $-1 $-1 $155 1 1021392641 1021392642 -699203583 20 #
point $-1 -1 $-1 84.999999823709402 -2.8911568065559e-014 27 #
cur-twe-attrib $-1 -1 $-1 $-1 $156 44 #
loop_type-twe-attrib $-1 -1 $-1 $157 $101 1 #
model_id-kcp-attrib $-1 -1 $380 $-1 $158 1 1021392641 1021392642 -699203583 9 #
plane-surface $381 -1 $-1 80.000000123440003 -1.7629059762966301e-007 35 0 0 1 1 0 0 forward_v I I I I #
edge_name-twe-attrib $-1 -1 $-1 $159 $67 13 8704 #
face $382 -1 $-1 $-1 $179 $20 $-1 $383 reversed single #
loop $-1 -1 $-1 $-1 $275 $164 #
plane-surface $-1 -1 $-1 0 9.8149546191139372 0 0 -1 0 0 0 -1 forward_v I I I I #
coedge $-1 -1 $-1 $384 $273 $276 $385 forward $165 $-1 #
coedge $-1 -1 $-1 $279 $167 $168 $267 reversed $106 $-1 #
coedge $-1 -1 $-1 $273 $384 $167 $265 reversed $165 $-1 #
edge $-1 -1 $-1 $280 -4 $386 4 $264 $387 forward @7 unknown #
coedge $-1 -1 $-1 $169 $168 $384 $388 forward $70 $-1 #
edge $-1 -1 $-1 $271 -8.5 $386 8.5 $263 $389 forward @7 unknown #
coedge $-1 -1 $-1 $276 $275 $169 $269 reversed $260 $-1 #
edge $-1 -1 $-1 $390 -8.5 $270 8.5 $268 $391 forward @7 unknown #
vertex $-1 -1 $-1 $171 $392 #
vertex $-1 -1 $-1 $282 $393 #
straight-curve $-1 -1 $-1 8.5 0 -4 0 -1 0 I I #
coedge $-1 -1 $-1 $262 $264 $172 $274 reversed $165 $-1 #
edge $-1 -1 $-1 $277 -9.8149546191139372 $280 9.8149546191139372 $273 $394 forward @7 unknown #
coedge $-1 -1 $-1 $268 $173 $178 $283 forward $260 $-1 #
coedge $-1 -1 $-1 $173 $268 $262 $385 reversed $260 $-1 #
vertex $-1 -1 $-1 $174 $395 #
straight-curve $-1 -1 $-1 0 9.8149546191139372 4 -1 0 0 I I #
coedge $-1 -1 $-1 $175 $263 $177 $282 reversed $106 $-1 #
vertex $-1 -1 $-1 $274 $396 #
straight-curve $-1 -1 $-1 0 -9.8149546191139372 4 1 0 0 I I #
edge $-1 -1 $-1 $180 -4 $271 4 $177 $397 forward @7 unknown #
edge $-1 -1 $-1 $181 -4 $270 4 $178 $398 forward @7 unknown #
point $-1 -1 $-1 8.5 -9.8149546191139372 4 #
point $-1 -1 $-1 8.5 9.8149546191139372 4 #
face $-1 -1 $-1 $399 $400 $31 $-1 $185 reversed single #
loop $-1 -1 $-1 $-1 $401 $183 #
plane-surface $-1 -1 $-1 0 0 4 0 0 1 1 0 0 forward_v I I I I #
coedge $-1 -1 $-1 $297 $402 $299 $403 forward $184 $-1 #
coedge $-1 -1 $-1 $404 $186 $405 $406 reversed $114 $-1 #
coedge $-1 -1 $-1 $186 $404 $407 $408 reversed $114 $-1 #
coedge $-1 -1 $-1 $409 $410 $186 $293 reversed $411 $-1 #
edge $-1 -1 $-1 $412 -6 $413 2 $186 $414 forward @7 unknown #
coedge $-1 -1 $-1 $188 $187 $415 $416 forward $74 $-1 #
coedge $-1 -1 $-1 $401 $417 $187 $296 forward $287 $-1 #
edge $-1 -1 $-1 $418 -8.5 $303 -1.4210854715202004e-014 $187 $419 forward @7 unknown #
coedge $-1 -1 $-1 $402 $289 $188 $298 forward $184 $-1 #
edge $-1 -1 $-1 $304 1.4210854715202004e-014 $420 8.5 $188 $421 forward @7 unknown #
coedge $-1 -1 $-1 $422 $189 $289 $403 reversed $302 $-1 #
coedge $-1 -1 $-1 $189 $422 $401 $423 reversed $302 $-1 #
coedge $-1 -1 $-1 $410 $409 $305 $190 reversed $411 $-1 #
loop $-1 -1 $-1 $-1 $300 $424 #
vertex $-1 -1 $-1 $425 $426 #
vertex $-1 -1 $-1 $298 $427 #
coedge $-1 -1 $-1 $428 $429 $116 $190 forward $430 $-1 #
straight-curve $-1 -1 $-1 5.0626169922907138e-014 9.8149546191139372 2 -2.1349174405887333e-032 0 -1 I I #
face $-1 -1 $-1 $431 $204 $23 $-1 $288 forward single #
loop $-1 -1 $-1 $-1 $197 $191 #
coedge $-1 -1 $-1 $432 $326 $122 $201 reversed $192 $-1 #
coedge $-1 -1 $-1 $433 $194 $203 $328 reversed $118 $-1 #
coedge $-1 -1 $-1 $194 $433 $434 $435 reversed $118 $-1 #
coedge $-1 -1 $-1 $196 $195 $436 $437 reversed $77 $-1 #
coedge $-1 -1 $-1 $438 $439 $309 $201 forward $440 $-1 #
coedge $-1 -1 $-1 $441 $442 $196 $315 forward $443 $-1 #
edge $-1 -1 $-1 $318 -2 $444 6 $314 $445 forward @7 unknown #
coedge $-1 -1 $-1 $317 $197 $442 $446 forward $308 $-1 #
coedge $-1 -1 $-1 $197 $316 $438 $447 forward $308 $-1 #
vertex $-1 -1 $-1 $446 $448 #
straight-curve $-1 -1 $-1 -2.125000013929025 -8.5880852836827799 4 -0.86602540283833085 0.50000000163870684 0 I I #
coedge $-1 -1 $-1 $434 $449 $199 $321 forward $450 $-1 #
edge $-1 -1 $-1 $324 -7.3612159562935133 $322 2.4537386306526927 $320 $451 forward @7 unknown #
vertex $-1 -1 $-1 $435 $452 #
straight-curve $-1 -1 $-1 8.5 -4.9074773095569837 2 0 -1.2325951644078309e-032 1 I I #
vertex $-1 -1 $-1 $453 $454 #
straight-curve $-1 -1 $-1 1.0674587272913742e-032 -9.8149546191139372 2 -2.1349174405887333e-032 0 1 I I #
coedge $-1 -1 $-1 $309 $455 $202 $327 reversed $192 $-1 #
edge $-1 -1 $-1 $206 0 $456 8.5 $326 $457 forward @7 unknown #
edge $-1 -1 $-1 $456 -9.8149546191139372 $205 -4.9074773095569837 $310 $458 forward @7 unknown #
point $-1 -1 $-1 8.5 -4.9074773095569837 4 #
point $-1 -1 $-1 0 -9.8149546191139372 4 #
vertex $-1 -1 $-1 $209 $459 #
ellipse-curve $-1 -1 $-1 0 0 4.0000000000000018 0 0 1 4.9999998237094196 0 0 1 I I #
point $-1 -1 $-1 4.9999998237094196 0 -4.0000000000000018 #
primitive_order-cdc-attrib $-1 -1 $-1 $213 $88 0 10 #
face_name-twe-attrib $-1 -1 $460 $214 $133 6 #
model_id-kcp-attrib $-1 -1 $461 $-1 $215 1 1021392641 1021392642 -699203583 8 #
plane-surface $462 -1 $-1 88.500000123440003 4.9074771332663802 27 1 0 0 0 0 -1 forward_v I I I I #
loop_type-twe-attrib $-1 -1 $-1 $-1 $216 0 #
coedge $-1 -1 $-1 $463 $464 $241 $370 forward $216 $-1 #
surf-twe-attrib $-1 -1 $-1 $-1 $217 51 #
coedge $-1 -1 $-1 $465 $219 $464 $466 reversed $134 $-1 #
coedge $-1 -1 $-1 $219 $465 $221 $346 forward $134 $-1 #
coedge $-1 -1 $-1 $223 $241 $219 $344 reversed $148 $-1 #
edge $467 -1 $-1 $348 0 $468 9.8149545869462056 $219 $469 forward @7 unknown #
coedge $-1 -1 $-1 $222 $221 $470 $471 reversed $89 $-1 #
edge $472 -1 $-1 $473 0 $348 8 $342 $474 forward @7 unknown #
attrib_edge_convexity-kcp-attrib $-1 -1 $475 $-1 $224 1 #
vertex $-1 -1 $-1 $346 $476 #
straight-curve $477 -1 $-1 71.500000123440003 -4.90747748584758 35 0 1 0 I I #
coedge $-1 -1 $-1 $470 $230 $225 $351 forward $249 $-1 #
edge $478 -1 $-1 $233 0 $353 9.8149545869462003 $350 $479 forward @7 unknown #
attrib_edge_convexity-kcp-attrib $-1 -1 $480 $-1 $226 1 #
vertex $-1 -1 $-1 $351 $481 #
straight-curve $482 -1 $-1 71.500000123440003 -4.90747748584758 27 0 6.1232329394368604e-017 1 I I #
convexity-sys-attrib $-1 -1 $483 $227 $142 #
point $-1 -1 $-1 71.500000123440003 -4.90747748584758 35 #
cur-twe-attrib $-1 -1 $-1 $-1 $229 60 #
coedge $-1 -1 $-1 $230 $484 $235 $365 forward $249 $-1 #
attrib_edge_convexity-kcp-attrib $-1 -1 $485 $-1 $231 1 #
straight-curve $486 -1 $-1 88.500000123440003 -4.90747748584758 27 -0.86602540283832996 -0.50000000163870895 0 I I #
convexity-sys-attrib $-1 -1 $487 $232 $144 #
point $-1 -1 $-1 80.000000123440003 -9.81495479540453 27 #
cur-twe-attrib $-1 -1 $-1 $-1 $234 62 #
coedge $-1 -1 $-1 $236 $235 $463 $488 forward $237 $-1 #
edge $489 -1 $-1 $490 0 $239 9.8149546191139603 $358 $491 forward @7 unknown #
loop_type-twe-attrib $-1 -1 $-1 $-1 $237 0 #
convexity-sys-attrib $-1 -1 $492 $238 $146 #
point $-1 -1 $-1 88.500000123440003 -4.90747748584758 27 #
cur-twe-attrib $-1 -1 $-1 $-1 $240 64 #
edge $493 -1 $-1 $468 0 $372 9.8149545869462074 $339 $494 forward @7 unknown #
attrib_edge_convexity-kcp-attrib $-1 -1 $495 $-1 $242 1 #
vertex $-1 -1 $-1 $488 $496 #
straight-curve $497 -1 $-1 88.500000123440003 4.9074771332663802 35 0 -1 0 I I #
edge_name-twe-attrib $-1 -1 $-1 $244 $97 1 8704 #
loop_type-twe-attrib $-1 -1 $-1 $248 $153 1 #
loop_type-twe-attrib $-1 -1 $-1 $-1 $249 0 #
model_id-kcp-attrib $-1 -1 $498 $-1 $250 1 1021392641 1021392642 -699203583 10 #
plane-surface $499 -1 $-1 80.000000123440003 -1.7629059811952201e-007 27 0 0 -1 -1 0 0 forward_v I I I I #
edge_name-twe-attrib $-1 -1 $-1 $251 $100 14 8704 #
face_name-twe-attrib $-1 -1 $500 $256 $158 8 #
surf-twe-attrib $-1 -1 $-1 $-1 $257 76 #
model_id-kcp-attrib $-1 -1 $-1 $-1 $259 1 1021392641 1021392642 -699203582 3 #
plane-surface $-1 -1 $-1 8.5 0 0 -1 0 0 0 0 1 forward_v I I I I #
coedge $-1 -1 $-1 $264 $262 $266 $388 reversed $165 $-1 #
edge $-1 -1 $-1 $277 -4 $390 4 $276 $501 forward @7 unknown #
vertex $-1 -1 $-1 $388 $502 #
straight-curve $-1 -1 $-1 -8.5 -9.8149546191139372 0 0 0 -1 I I #
edge $-1 -1 $-1 $386 -9.8149546191139372 $390 9.8149546191139372 $384 $503 forward @7 unknown #
straight-curve $-1 -1 $-1 0 -9.8149546191139372 -4 -1 0 0 I I #
vertex $-1 -1 $-1 $269 $504 #
straight-curve $-1 -1 $-1 0 9.8149546191139372 -4 1 0 0 I I #
point $-1 -1 $-1 8.5 9.8149546191139372 -4 #
point $-1 -1 $-1 8.5 -9.8149546191139372 -4 #
straight-curve $-1 -1 $-1 -8.5 0 4 0 -1 0 I I #
point $-1 -1 $-1 -8.5 9.8149546191139372 4 #
point $-1 -1 $-1 -8.5 -9.8149546191139372 4 #
straight-curve $-1 -1 $-1 8.5 -9.8149546191139372 0 0 0 -1 I I #
straight-curve $-1 -1 $-1 8.5 9.8149546191139372 0 0 0 -1 I I #
face $-1 -1 $-1 $505 $506 $31 $-1 $288 forward single #
loop $-1 -1 $-1 $-1 $507 $286 #
coedge $-1 -1 $-1 $417 $295 $300 $423 forward $287 $-1 #
coedge $-1 -1 $-1 $289 $297 $508 $509 forward $184 $-1 #
edge $-1 -1 $-1 $510 -7.3612159241257853 $304 2.453738662820399 $289 $511 forward @7 unknown #
coedge $-1 -1 $-1 $291 $290 $512 $513 forward $114 $-1 #
coedge $-1 -1 $-1 $514 $515 $290 $406 forward $506 $-1 #
edge $-1 -1 $-1 $516 -9.8149546191139372 $413 -4.9074773095569784 $290 $517 forward @7 unknown #
coedge $-1 -1 $-1 $518 $507 $291 $408 forward $400 $-1 #
edge $-1 -1 $-1 $412 4.9074773095569784 $519 9.8149546191139372 $291 $520 forward @7 unknown #
coedge $-1 -1 $-1 $301 $292 $507 $521 reversed $411 $-1 #
coedge $-1 -1 $-1 $292 $301 $514 $522 reversed $411 $-1 #
loop $-1 -1 $-1 $-1 $410 $523 #
vertex $-1 -1 $-1 $408 $524 #
vertex $-1 -1 $-1 $293 $525 #
straight-curve $-1 -1 $-1 -8.5 4.9074773095569784 2 0 -1.2325951644078309e-032 1 I I #
coedge $-1 -1 $-1 $526 $508 $294 $416 reversed $527 $-1 #
edge $-1 -1 $-1 $418 -4 $420 4 $415 $528 forward @7 unknown #
coedge $-1 -1 $-1 $295 $401 $526 $529 forward $287 $-1 #
vertex $-1 -1 $-1 $529 $530 #
straight-curve $-1 -1 $-1 0 9.8149546191139372 4 -1 0 0 I I #
vertex $-1 -1 $-1 $509 $531 #
straight-curve $-1 -1 $-1 0 9.8149546191139372 -4 1 0 0 I I #
coedge $-1 -1 $-1 $300 $299 $532 $533 reversed $302 $-1 #
edge $-1 -1 $-1 $303 -2.453738662820399 $534 7.3612159241257853 $401 $535 forward @7 unknown #
face $-1 -1 $-1 $523 $302 $31 $-1 $536 reversed single #
edge $-1 -1 $-1 $303 -1.4210854715202004e-014 $516 8.5 $429 $419 forward @7 unknown #
point $-1 -1 $-1 1.4210854715202004e-014 9.8149546191139159 4 #
point $-1 -1 $-1 1.4210854715202004e-014 9.8149546191139159 -4 #
coedge $-1 -1 $-1 $512 $305 $518 $537 reversed $430 $-1 #
coedge $-1 -1 $-1 $305 $512 $515 $425 reversed $430 $-1 #
loop $-1 -1 $-1 $-1 $305 $538 #
face $-1 -1 $-1 $539 $443 $23 $-1 $115 reversed single #
coedge $-1 -1 $-1 $455 $309 $449 $540 reversed $192 $-1 #
coedge $-1 -1 $-1 $311 $310 $455 $541 forward $118 $-1 #
coedge $-1 -1 $-1 $449 $320 $311 $435 forward $450 $-1 #
edge $-1 -1 $-1 $322 4.9074773095569837 $542 9.8149546191139372 $311 $543 forward @7 unknown #
coedge $-1 -1 $-1 $544 $545 $312 $437 forward $546 $-1 #
edge $-1 -1 $-1 $444 -7.3612159241257977 $324 2.4537386628204003 $436 $547 forward @7 unknown #
coedge $-1 -1 $-1 $548 $313 $317 $447 reversed $440 $-1 #
coedge $-1 -1 $-1 $313 $548 $544 $453 reversed $440 $-1 #
loop $-1 -1 $-1 $-1 $313 $549 #
coedge $-1 -1 $-1 $550 $314 $545 $551 reversed $443 $-1 #
coedge $-1 -1 $-1 $314 $550 $316 $446 reversed $443 $-1 #
loop $-1 -1 $-1 $-1 $314 $431 #
vertex $-1 -1 $-1 $437 $552 #
straight-curve $-1 -1 $-1 -8.5 -4.9074773095570086 2 0 1.2325951644078309e-032 -1 I I #
edge $-1 -1 $-1 $318 4.9074773095569988 $553 9.8149546191139372 $442 $517 forward @7 unknown #
edge $-1 -1 $-1 $553 -8.5 $206 0 $438 $457 forward @7 unknown #
point $-1 -1 $-1 -8.5 -4.9074773095569988 4 #
coedge $-1 -1 $-1 $320 $434 $432 $540 forward $450 $-1 #
loop $-1 -1 $-1 $-1 $320 $554 #
straight-curve $-1 -1 $-1 6.3750000139290304 -6.1343466289042929 -4 0.86602540283832974 0.50000000163870872 0 I I #
point $-1 -1 $-1 8.5 -4.9074773095569837 -4 #
edge $-1 -1 $-1 $324 0 $555 8.5 $439 $556 forward @7 unknown #
point $-1 -1 $-1 0 -9.8149546191139372 -4 #
coedge $-1 -1 $-1 $326 $432 $433 $541 reversed $192 $-1 #
vertex $-1 -1 $-1 $328 $557 #
straight-curve $-1 -1 $-1 0 -9.8149546191139372 4 1 0 0 I I #
straight-curve $-1 -1 $-1 8.5 0 4 0 1 0 I I #
point $-1 -1 $-1 4.9999998237094196 0 4.0000000000000018 #
primitive_order-cdc-attrib $-1 -1 $-1 $335 $133 0 10 #
face_name-twe-attrib $-1 -1 $558 $336 $215 7 #
surf-twe-attrib $-1 -1 $-1 $-1 $337 81 #
coedge $-1 -1 $-1 $559 $339 $364 $488 reversed $216 $-1 #
coedge $-1 -1 $-1 $339 $559 $341 $466 forward $216 $-1 #
coedge $-1 -1 $-1 $342 $341 $560 $561 reversed $134 $-1 #
edge $562 -1 $-1 $563 0 $468 8 $464 $564 forward @7 unknown #
attrib_edge_convexity-kcp-attrib $-1 -1 $565 $-1 $344 1 #
vertex $-1 -1 $-1 $466 $566 #
straight-curve $567 -1 $-1 71.500000123440003 4.9074771332663802 35 0.86602540283833096 0.50000000163870695 0 I I #
coedge $-1 -1 $-1 $560 $350 $345 $471 forward $249 $-1 #
edge $568 -1 $-1 $353 0 $473 9.8149546191139603 $470 $569 forward @7 unknown #
attrib_edge_convexity-kcp-attrib $-1 -1 $570 $-1 $346 1 #
vertex $-1 -1 $-1 $471 $571 #
straight-curve $572 -1 $-1 71.500000123440003 4.9074771332663802 27 0 6.1232329394368604e-017 1 I I #
convexity-sys-attrib $-1 -1 $573 $347 $224 #
point $-1 -1 $-1 71.500000123440003 4.9074771332663802 35 #
cur-twe-attrib $-1 -1 $-1 $-1 $349 90 #
attrib_edge_convexity-kcp-attrib $-1 -1 $574 $-1 $351 1 #
straight-curve $575 -1 $-1 80.000000123440003 -9.81495479540453 27 -0.86602540283833096 0.50000000163870695 0 I I #
convexity-sys-attrib $-1 -1 $576 $352 $226 #
point $-1 -1 $-1 71.500000123440003 -4.90747748584758 27 #
cur-twe-attrib $-1 -1 $-1 $-1 $354 92 #
edge_name-twe-attrib $-1 -1 $-1 $355 $142 3 8704 #
coedge $-1 -1 $-1 $358 $560 $559 $577 forward $249 $-1 #
convexity-sys-attrib $-1 -1 $578 $359 $231 #
cur-twe-attrib $-1 -1 $-1 $-1 $360 97 #
edge_name-twe-attrib $-1 -1 $-1 $361 $144 4 8448 #
edge $579 -1 $-1 $490 0 $372 8 $364 $580 forward @7 unknown #
model_id-kcp-attrib $-1 -1 $581 $-1 $365 1 1021392641 1021392642 -699203583 12 #
vertex $-1 -1 $-1 $365 $582 #
straight-curve $583 -1 $-1 88.500000123440003 4.9074771332663802 27 0 -1 0 I I #
edge_name-twe-attrib $-1 -1 $-1 $367 $146 2 8448 #
attrib_edge_convexity-kcp-attrib $-1 -1 $584 $-1 $370 1 #
straight-curve $585 -1 $-1 80.000000123440003 9.8149544428233408 35 0.86602540283832996 -0.50000000163870895 0 I I #
convexity-sys-attrib $-1 -1 $586 $371 $242 #
point $-1 -1 $-1 88.500000123440003 4.9074771332663802 35 #
cur-twe-attrib $-1 -1 $-1 $-1 $373 108 #
face_name-twe-attrib $-1 -1 $587 $377 $250 9 #
surf-twe-attrib $-1 -1 $-1 $-1 $378 115 #
primitive_order-cdc-attrib $-1 -1 $-1 $380 $158 0 10 #
straight-curve $-1 -1 $-1 -8.5 9.8149546191139372 0 0 0 -1 I I #
point $-1 -1 $-1 -8.5 -9.8149546191139372 -4 #
straight-curve $-1 -1 $-1 -8.5 0 -4 0 1 0 I I #
point $-1 -1 $-1 -8.5 9.8149546191139372 -4 #
face $-1 -1 $-1 $538 $527 $31 $-1 $119 reversed single #
loop $-1 -1 $-1 $-1 $514 $399 #
coedge $-1 -1 $-1 $407 $518 $409 $521 forward $400 $-1 #
coedge $-1 -1 $-1 $415 $532 $402 $509 reversed $527 $-1 #
edge $-1 -1 $-1 $420 -9.8149546191139372 $510 -4.9074773095569819 $508 $543 forward @7 unknown #
vertex $-1 -1 $-1 $533 $588 #
straight-curve $-1 -1 $-1 2.1250000139290344 8.5880852836827533 -4 -0.86602540283832974 0.50000000163870884 0 I I #
coedge $-1 -1 $-1 $429 $428 $404 $513 reversed $430 $-1 #
edge $-1 -1 $-1 $516 -4 $519 4 $512 $589 forward @7 unknown #
coedge $-1 -1 $-1 $515 $405 $410 $522 forward $506 $-1 #
coedge $-1 -1 $-1 $405 $514 $429 $425 forward $506 $-1 #
vertex $-1 -1 $-1 $425 $590 #
straight-curve $-1 -1 $-1 -8.5 0 4 0 -1 0 I I #
coedge $-1 -1 $-1 $507 $407 $428 $537 forward $400 $-1 #
vertex $-1 -1 $-1 $537 $591 #
straight-curve $-1 -1 $-1 -8.5 0 -4 0 1 0 I I #
edge $-1 -1 $-1 $304 -7.3612159562935062 $412 2.4537386306527034 $507 $592 forward @7 unknown #
edge $-1 -1 $-1 $413 -2.4537386306527034 $303 7.3612159562935062 $514 $593 forward @7 unknown #
face $-1 -1 $-1 $-1 $411 $31 $-1 $594 reversed single #
point $-1 -1 $-1 -8.5 4.9074773095569784 -4 #
point $-1 -1 $-1 -8.5 4.9074773095569784 4 #
coedge $-1 -1 $-1 $532 $415 $417 $529 reversed $527 $-1 #
loop $-1 -1 $-1 $-1 $532 $505 #
straight-curve $-1 -1 $-1 8.5 9.8149546191139372 0 0 0 -1 I I #
edge $-1 -1 $-1 $534 4.9074773095569819 $418 9.8149546191139372 $526 $458 forward @7 unknown #
point $-1 -1 $-1 8.5 9.8149546191139372 4 #
point $-1 -1 $-1 8.5 9.8149546191139372 -4 #
coedge $-1 -1 $-1 $508 $526 $422 $533 forward $527 $-1 #
edge $-1 -1 $-1 $534 -2 $510 6 $532 $595 forward @7 unknown #
vertex $-1 -1 $-1 $529 $596 #
straight-curve $-1 -1 $-1 2.1250000139290344 8.5880852836827533 4 0.86602540283832974 -0.50000000163870884 0 I I #
plane-surface $-1 -1 $-1 1.4210854715202004e-014 9.8149546191139159 4 0.50000000163870872 0.86602540283832963 1.0674587237928689e-032 0 1.2325951644078309e-032 -1 forward_v I I I I #
edge $-1 -1 $-1 $519 -8.5 $304 1.4210854715202004e-014 $428 $421 forward @7 unknown #
face $-1 -1 $-1 $424 $430 $31 $-1 $75 reversed single #
face $-1 -1 $-1 $554 $546 $23 $-1 $185 reversed single #
edge $-1 -1 $-1 $542 -8.5 $324 0 $432 $556 forward @7 unknown #
edge $-1 -1 $-1 $456 -4 $542 4 $433 $597 forward @7 unknown #
vertex $-1 -1 $-1 $541 $598 #
straight-curve $-1 -1 $-1 8.5 0 -4 0 -1 0 I I #
coedge $-1 -1 $-1 $545 $436 $439 $453 forward $546 $-1 #
coedge $-1 -1 $-1 $436 $544 $441 $551 forward $546 $-1 #
loop $-1 -1 $-1 $-1 $436 $539 #
straight-curve $-1 -1 $-1 -2.125000013929025 -8.5880852836827799 -4 0.86602540283833085 -0.50000000163870684 0 I I #
coedge $-1 -1 $-1 $439 $438 $550 $599 forward $440 $-1 #
face $-1 -1 $-1 $-1 $440 $23 $-1 $193 reversed single #
coedge $-1 -1 $-1 $442 $441 $548 $599 reversed $443 $-1 #
edge $-1 -1 $-1 $555 -9.8149546191139372 $444 -4.9074773095569988 $441 $520 forward @7 unknown #
point $-1 -1 $-1 -8.5 -4.9074773095569988 -4 #
vertex $-1 -1 $-1 $446 $600 #
face $-1 -1 $-1 $549 $450 $23 $-1 $185 reversed single #
vertex $-1 -1 $-1 $551 $601 #
straight-curve $-1 -1 $-1 0 -9.8149546191139372 -4 -1 0 0 I I #
point $-1 -1 $-1 8.5 -9.8149546191139372 4 #
primitive_order-cdc-attrib $-1 -1 $-1 $461 $215 0 10 #
coedge $-1 -1 $-1 $464 $463 $484 $577 reversed $216 $-1 #
coedge $-1 -1 $-1 $484 $470 $465 $561 forward $249 $-1 #
edge $602 -1 $-1 $473 0 $563 9.8149545869462056 $560 $603 forward @7 unknown #
edge_name-twe-attrib $-1 -1 $-1 $-1 $466 10 8448 #
vertex $-1 -1 $-1 $561 $604 #
straight-curve $605 -1 $-1 80.000000123440003 9.8149544428233408 27 0 6.1232329394368604e-017 1 I I #
convexity-sys-attrib $-1 -1 $606 $467 $344 #
point $-1 -1 $-1 80.000000123440003 9.8149544428233408 35 #
cur-twe-attrib $-1 -1 $-1 $-1 $469 129 #
model_id-kcp-attrib $-1 -1 $607 $-1 $471 1 1021392641 1021392642 -699203583 13 #
straight-curve $608 -1 $-1 71.500000123440003 -4.90747748584758 27 0 1 0 I I #
convexity-sys-attrib $-1 -1 $609 $472 $346 #
point $-1 -1 $-1 71.500000123440003 4.9074771332663802 27 #
cur-twe-attrib $-1 -1 $-1 $-1 $474 131 #
edge_name-twe-attrib $-1 -1 $-1 $475 $224 5 8704 #
convexity-sys-attrib $-1 -1 $610 $478 $351 #
cur-twe-attrib $-1 -1 $-1 $-1 $479 136 #
edge_name-twe-attrib $-1 -1 $-1 $480 $226 6 8448 #
edge $611 -1 $-1 $563 0 $490 9.8149545869462074 $484 $612 forward @7 unknown #
edge_name-twe-attrib $-1 -1 $-1 $485 $231 16 8704 #
edge_name-twe-attrib $-1 -1 $-1 $-1 $488 12 8448 #
straight-curve $613 -1 $-1 88.500000123440003 4.9074771332663802 27 0 6.1232329394368604e-017 1 I I #
edge_name-twe-attrib $-1 -1 $-1 $489 $365 15 8704 #
point $-1 -1 $-1 88.500000123440003 4.9074771332663802 27 #
cur-twe-attrib $-1 -1 $-1 $-1 $491 148 #
convexity-sys-attrib $-1 -1 $614 $493 $370 #
cur-twe-attrib $-1 -1 $-1 $-1 $494 152 #
edge_name-twe-attrib $-1 -1 $-1 $495 $242 11 8704 #
primitive_order-cdc-attrib $-1 -1 $-1 $498 $250 0 10 #
point $-1 -1 $-1 8.5 4.9074773095569819 -4 #
straight-curve $-1 -1 $-1 -8.5 9.8149546191139372 0 0 0 -1 I I #
point $-1 -1 $-1 -8.5 9.8149546191139372 4 #
point $-1 -1 $-1 -8.5 9.8149546191139372 -4 #
straight-curve $-1 -1 $-1 -6.3750000139290179 6.1343466289042876 -4 -0.86602540283833085 -0.50000000163870684 0 I I #
straight-curve $-1 -1 $-1 -6.3750000139290179 6.1343466289042876 4 0.86602540283833085 0.50000000163870684 0 I I #
plane-surface $-1 -1 $-1 -8.5 4.9074773095569784 4 -0.50000000163870684 0.86602540283833085 1.0674587237928704e-032 0 -1.2325951644078309e-032 1 forward_v I I I I #
straight-curve $-1 -1 $-1 8.5 4.9074773095569686 2 0 1.2325951644078309e-032 -1 I I #
point $-1 -1 $-1 8.5 4.9074773095569819 4 #
straight-curve $-1 -1 $-1 8.5 -9.8149546191139372 0 0 0 -1 I I #
point $-1 -1 $-1 8.5 -9.8149546191139372 -4 #
edge $-1 -1 $-1 $553 -4 $555 4 $550 $615 forward @7 unknown #
point $-1 -1 $-1 -8.5 -9.8149546191139372 4 #
point $-1 -1 $-1 -8.5 -9.8149546191139372 -4 #
edge_name-twe-attrib $-1 -1 $-1 $-1 $561 19 8704 #
straight-curve $616 -1 $-1 71.500000123440003 4.9074771332663802 27 0.86602540283833096 0.50000000163870695 0 I I #
point $-1 -1 $-1 80.000000123440003 9.8149544428233408 27 #
cur-twe-attrib $-1 -1 $-1 $-1 $564 166 #
edge_name-twe-attrib $-1 -1 $-1 $565 $344 7 8704 #
attrib_edge_convexity-kcp-attrib $-1 -1 $617 $568 $471 1 #
cur-twe-attrib $-1 -1 $-1 $-1 $569 171 #
edge_name-twe-attrib $-1 -1 $-1 $570 $346 8 8448 #
edge_name-twe-attrib $-1 -1 $-1 $574 $351 17 8704 #
edge_name-twe-attrib $-1 -1 $-1 $-1 $577 20 8704 #
straight-curve $618 -1 $-1 80.000000123440003 9.8149544428233408 27 0.86602540283832996 -0.50000000163870895 0 I I #
cur-twe-attrib $-1 -1 $-1 $-1 $580 183 #
edge_name-twe-attrib $-1 -1 $-1 $584 $370 9 8704 #
straight-curve $-1 -1 $-1 -8.5 -9.8149546191139372 0 0 0 -1 I I #
cur-twe-attrib $-1 -1 $-1 $-1 $603 195 #
convexity-sys-attrib $-1 -1 $619 $607 $471 #
cur-twe-attrib $-1 -1 $-1 $-1 $612 206 #
edge_name-twe-attrib $-1 -1 $-1 $617 $471 18 8704 #
End-of-ACIS-data 