600 0 2 0           
24 FBMach with ACIS - 6.0.3 13 ACIS 6.0.3 NT 24 Thu May 24 09:28:18 2001 
1 9.9999999999999995e-007 1e-010 
body $2 $3 $-1 $4 #
bdycol-kcp $-1 1 3 $5 $6 $7 #
model_id-kcp-attrib $-1 $8 $-1 $0 1 990710898 60 -449052671 1 #
lump $-1 $-1 $9 $0 #
transform $-1 1.0000000000000002 1.2176527717923972e-033 -6.1629758220391547e-033 1.2176527717923972e-033 1.0000000000000002 -1.2325951644078307e-032 -6.1629758220391547e-033 -1.2325951644078309e-032 1 -1.4210854715202004e-014 0 0 1 rotate no_reflect no_shear #
body $10 $11 $-1 $12 #
body $13 $14 $-1 $15 #
body $16 $17 $-1 $18 #
brep_non_volatile_id-cdc-attrib $-1 $-1 $2 $0 1 #
shell $-1 $-1 $-1 $19 $-1 $3 #
model_id-kcp-attrib $-1 $-1 $-1 $5 1 990710898 60 -449052670 1 #
lump $-1 $-1 $20 $5 #
transform $-1 1 0 0 0 1 0 0 0 1 80.000000123440003 -1.7629059723134333e-007 31 1 no_rotate no_reflect no_shear #
rgb_color-st-attrib $-1 $21 $-1 $6 0.5 1 1 #
lump $-1 $-1 $22 $6 #
transform $-1 -1 0 -1.2246063538223773e-016 0 1 0 1.2246063538223773e-016 0 -1 80 -2.8666638747981501e-014 31.000000000000004 1 rotate no_reflect no_shear #
rgb_color-st-attrib $-1 $23 $-1 $7 0.5 1 1 #
lump $-1 $24 $25 $7 #
transform $-1 1 0 0 0 1 0 0 0 1 80.000000123440003 -1.7629059723134333e-007 31 1 no_rotate no_reflect no_shear #
face $26 $27 $28 $9 $-1 $29 reversed single #
shell $-1 $-1 $-1 $30 $-1 $11 #
model_id-kcp-attrib $-1 $-1 $13 $6 1 990710898 80 -447741949 1 #
shell $-1 $-1 $-1 $31 $-1 $14 #
model_id-kcp-attrib $-1 $-1 $16 $7 1 990710898 230 -437911548 1 #
lump $-1 $-1 $32 $7 #
shell $-1 $-1 $-1 $33 $-1 $17 #
model_id-kcp-attrib $-1 $34 $-1 $19 1 990710898 60 -449052671 2 #
face $35 $36 $37 $9 $-1 $38 forward single #
loop $39 $40 $41 $19 #
cone-surface $42 80 -2.8666638747981501e-014 31 0 -6.1232329394368604e-017 -1 4.9999998237094196 0 0 1 I I 0 1 4.9999998237094196 forward I I I I #
face $43 $44 $45 $20 $-1 $46 forward single #
face $-1 $47 $48 $22 $-1 $49 forward single #
shell $-1 $-1 $-1 $50 $-1 $24 #
face $-1 $51 $52 $25 $-1 $53 reversed single #
face_name-twe-attrib $-1 $54 $26 $19 1 #
model_id-kcp-attrib $-1 $55 $-1 $27 1 990710898 60 -449052671 3 #
face $56 $57 $58 $9 $-1 $59 forward single #
loop $60 $-1 $61 $27 #
plane-surface $62 88.500000123440003 -4.90747748584758 27 0.50000000163870884 -0.86602540283832974 5.3028752730487387e-017 1.0605750511338e-016 0 -1 forward_v I I I I #
model_id-kcp-attrib $-1 $63 $-1 $28 1 990710898 60 -449052671 15 #
loop $64 $-1 $65 $19 #
coedge $-1 $41 $41 $66 $67 reversed $28 $-1 #
surf-twe-attrib $-1 $-1 $-1 $29 5 #
model_id-kcp-attrib $-1 $-1 $-1 $30 1 990710898 60 -449052670 4 #
face $68 $69 $70 $20 $-1 $71 reversed single #
loop $-1 $-1 $72 $30 #
plane-surface $-1 0 0 4 0 0 1 1 0 0 forward_v I I I I #
face $-1 $73 $74 $22 $-1 $75 forward single #
loop $-1 $76 $77 $31 #
cone-surface $-1 0 0 0 0 0 1 4.9999998237094196 0 0 1 I I 0 1 4.9999998237094196 forward I I I I #
face $-1 $78 $79 $32 $-1 $80 reversed single #
face $-1 $81 $82 $25 $-1 $83 reversed single #
loop $-1 $-1 $84 $33 #
plane-surface $-1 8.5 -4.9074773095569837 4 0.50000000163870872 -0.86602540283832974 -1.0674587237928691e-032 0 1.2325951644078309e-032 -1 forward_v I I I I #
primitive_order-cdc-attrib $-1 $-1 $34 $19 1 3 #
face_name-twe-attrib $-1 $85 $35 $27 2 #
model_id-kcp-attrib $-1 $86 $-1 $36 1 990710898 60 -449052671 4 #
face $87 $88 $89 $9 $-1 $90 forward single #
loop $91 $-1 $92 $36 #
plane-surface $93 80.000000123440003 -9.81495479540453 27 -0.50000000163870684 -0.86602540283833074 5.3028752730487387e-017 1.0605750511338e-016 0 1 forward_v I I I I #
loop_type-twe-attrib $-1 $-1 $-1 $37 0 #
coedge $-1 $94 $95 $96 $97 forward $37 $-1 #
surf-twe-attrib $-1 $-1 $-1 $38 7 #
loop_type-twe-attrib $-1 $-1 $39 $28 0 #
model_id-kcp-attrib $-1 $98 $-1 $40 1 990710898 60 -449052671 16 #
coedge $-1 $65 $65 $99 $100 reversed $40 $-1 #
coedge $-1 $66 $66 $41 $67 forward $101 $-1 #
edge $102 $103 0 $103 6.2831853071795862 $66 $104 forward 7 unknown #
model_id-kcp-attrib $-1 $-1 $-1 $44 1 990710898 60 -449052670 5 #
face $-1 $105 $106 $20 $-1 $107 reversed single #
loop $-1 $-1 $108 $44 #
plane-surface $-1 0 0 -4 0 0 1 1 0 0 forward_v I I I I #
coedge $-1 $109 $110 $111 $112 forward $45 $-1 #
face $-1 $-1 $113 $22 $-1 $114 forward single #
loop $-1 $-1 $115 $47 #
plane-surface $-1 0 0 -4.0000000000000018 0 0 -1 -1 0 0 forward_v I I I I #
loop $-1 $-1 $116 $31 #
coedge $-1 $77 $77 $115 $117 reversed $48 $-1 #
face $-1 $118 $119 $32 $-1 $120 reversed single #
loop $-1 $-1 $121 $50 #
plane-surface $-1 0 9.8149546191139372 0 0 -1 0 0 0 -1 forward_v I I I I #
face $-1 $122 $123 $25 $-1 $124 reversed single #
loop $-1 $-1 $125 $51 #
plane-surface $-1 0 -9.8149546191139372 4 -0.50000000163870684 -0.86602540283833085 -1.0674587237928704e-032 0 -1.2325951644078309e-032 1 forward_v I I I I #
coedge $-1 $126 $127 $128 $129 reversed $52 $-1 #
primitive_order-cdc-attrib $-1 $-1 $55 $27 0 10 #
face_name-twe-attrib $-1 $130 $56 $36 3 #
model_id-kcp-attrib $-1 $131 $-1 $57 1 990710898 60 -449052671 5 #
face $132 $133 $134 $9 $-1 $135 forward single #
loop $136 $-1 $137 $57 #
plane-surface $138 71.500000123440003 -4.90747748584758 27 -1 0 0 0 0 1 forward_v I I I I #
loop_type-twe-attrib $-1 $-1 $-1 $58 0 #
coedge $-1 $139 $140 $141 $142 forward $58 $-1 #
surf-twe-attrib $-1 $-1 $-1 $59 12 #
coedge $-1 $143 $61 $140 $144 reversed $37 $-1 #
coedge $-1 $61 $143 $145 $146 forward $37 $-1 #
coedge $-1 $147 $141 $61 $97 reversed $148 $-1 #
edge $149 $150 0 $151 9.814954586946202 $61 $152 forward 7 unknown #
loop_type-twe-attrib $-1 $-1 $64 $40 1 #
coedge $-1 $99 $99 $65 $100 forward $153 $-1 #
edge $154 $155 0 $155 6.2831853071795862 $99 $156 forward 7 unknown #
loop $157 $148 $66 $158 #
attrib_edge_convexity-kcp-attrib $-1 $159 $-1 $67 1 #
vertex $160 $67 $161 #
ellipse-curve $162 80 -2.8421709430404001e-014 35 0 0 -1 4.9999998237094196 0 0 1 I I #
face $163 $164 $165 $20 $-1 $166 reversed single #
loop $-1 $-1 $167 $69 #
plane-surface $-1 0 -9.8149546191139372 0 0 1 0 0 0 1 forward_v I I I I #
coedge $-1 $168 $169 $170 $171 forward $70 $-1 #
coedge $-1 $172 $72 $173 $174 forward $45 $-1 #
coedge $-1 $72 $172 $175 $176 forward $45 $-1 #
coedge $-1 $177 $178 $72 $112 reversed $179 $-1 #
edge $-1 $180 -9.8149546191139372 $181 9.8149546191139372 $111 $182 forward 7 unknown #
loop $-1 $-1 $183 $73 #
plane-surface $-1 0 0 4.0000000000000018 0 0 1 1 0 0 forward_v I I I I #
coedge $-1 $115 $115 $77 $117 forward $74 $-1 #
coedge $-1 $116 $116 $183 $184 reversed $76 $-1 #
edge $-1 $185 0 $185 6.2831853071795862 $115 $186 forward 7 unknown #
face $-1 $187 $188 $32 $-1 $189 reversed single #
loop $-1 $-1 $190 $78 #
plane-surface $-1 -8.5 0 0 1 0 0 0 0 -1 forward_v I I I I #
coedge $-1 $191 $192 $193 $194 reversed $79 $-1 #
face $-1 $195 $196 $25 $-1 $197 reversed single #
loop $-1 $-1 $198 $81 #
plane-surface $-1 8.5 0 0 -1 0 0 0 0 1 forward_v I I I I #
coedge $-1 $199 $200 $201 $202 reversed $82 $-1 #
coedge $-1 $203 $84 $198 $204 reversed $52 $-1 #
coedge $-1 $84 $203 $199 $205 forward $52 $-1 #
coedge $-1 $206 $207 $84 $129 forward $208 $-1 #
edge $-1 $209 -2.4537386306526927 $210 7.3612159562935133 $128 $211 forward 7 unknown #
primitive_order-cdc-attrib $-1 $-1 $86 $36 0 10 #
face_name-twe-attrib $-1 $212 $87 $57 4 #
model_id-kcp-attrib $-1 $213 $-1 $88 1 990710898 60 -449052671 6 #
face $214 $215 $216 $9 $-1 $217 forward single #
loop $218 $-1 $219 $88 #
plane-surface $220 71.500000123440003 4.9074771332663802 27 -0.50000000163870684 0.86602540283833074 -5.3028752730487387e-017 -1.0605750511338e-016 0 1 forward_v I I I I #
loop_type-twe-attrib $-1 $-1 $-1 $89 0 #
coedge $-1 $221 $222 $223 $224 forward $89 $-1 #
surf-twe-attrib $-1 $-1 $-1 $90 21 #
coedge $-1 $225 $92 $222 $226 reversed $58 $-1 #
coedge $-1 $92 $225 $94 $144 forward $58 $-1 #
coedge $-1 $96 $223 $92 $142 reversed $148 $-1 #
edge $227 $151 0 $228 9.8149545869462003 $92 $229 forward 7 unknown #
coedge $-1 $95 $94 $230 $231 reversed $37 $-1 #
edge $232 $233 0 $151 8 $140 $234 forward 7 unknown #
coedge $-1 $235 $236 $95 $146 reversed $237 $-1 #
edge $238 $239 0 $150 8 $95 $240 forward 7 unknown #
coedge $-1 $241 $96 $236 $242 reversed $148 $-1 #
loop $243 $-1 $96 $158 #
attrib_edge_convexity-kcp-attrib $-1 $244 $-1 $97 1 #
vertex $-1 $146 $245 #
vertex $-1 $144 $246 #
straight-curve $247 88.500000123440003 -4.90747748584758 35 -0.86602540283832996 -0.50000000163870895 0 I I #
loop $248 $249 $99 $250 #
attrib_edge_convexity-kcp-attrib $-1 $251 $-1 $100 1 #
vertex $252 $100 $253 #
ellipse-curve $254 80 -2.8911568065559e-014 27 0 0 1 4.9999998237094196 0 0 1 I I #
model_id-kcp-attrib $-1 $255 $-1 $101 1 990710898 60 -449052671 17 #
face $256 $250 $101 $9 $-1 $257 forward single #
convexity-sys-attrib $-1 $258 $102 $67 #
model_id-kcp-attrib $-1 $-1 $-1 $103 1 990710898 60 -449052671 19 #
point $-1 84.999999823709402 -2.8421709430404001e-014 35 #
cur-twe-attrib $-1 $-1 $-1 $104 30 #
model_id-kcp-attrib $-1 $-1 $-1 $105 1 990710898 60 -449052670 2 #
face $-1 $259 $260 $20 $-1 $261 reversed single #
loop $-1 $-1 $262 $105 #
plane-surface $-1 -8.5 0 0 1 0 0 0 0 -1 forward_v I I I I #
coedge $-1 $263 $175 $264 $265 forward $106 $-1 #
coedge $-1 $266 $108 $263 $267 forward $70 $-1 #
coedge $-1 $108 $266 $268 $269 forward $70 $-1 #
coedge $-1 $178 $177 $108 $171 reversed $179 $-1 #
edge $-1 $270 -9.8149546191139372 $271 9.8149546191139372 $170 $272 forward 7 unknown #
coedge $-1 $110 $109 $273 $274 forward $45 $-1 #
coedge $-1 $275 $276 $109 $174 reversed $260 $-1 #
edge $-1 $181 -8.5 $277 8.5 $173 $278 forward 7 unknown #
coedge $-1 $167 $279 $110 $176 reversed $106 $-1 #
edge $-1 $280 -8.5 $180 8.5 $175 $281 forward 7 unknown #
coedge $-1 $170 $111 $279 $282 forward $179 $-1 #
coedge $-1 $111 $170 $275 $283 reversed $179 $-1 #
loop $-1 $-1 $177 $259 #
vertex $-1 $112 $284 #
vertex $-1 $112 $285 #
straight-curve $-1 8.5 0 4 0 1 0 I I #
coedge $-1 $183 $183 $116 $184 forward $113 $-1 #
edge $-1 $286 0 $286 6.2831853071795862 $183 $287 forward 7 unknown #
vertex $-1 $117 $288 #
ellipse-curve $-1 0 0 -4.0000000000000018 0 0 -1 4.9999998237094196 0 0 1 I I #
face $-1 $289 $290 $32 $-1 $291 forward single #
loop $-1 $-1 $292 $118 #
plane-surface $-1 0 0 -4 0 0 1 1 0 0 forward_v I I I I #
coedge $-1 $293 $294 $295 $296 forward $119 $-1 #
coedge $-1 $297 $121 $298 $299 reversed $79 $-1 #
coedge $-1 $121 $297 $300 $301 reversed $79 $-1 #
coedge $-1 $302 $303 $304 $194 forward $305 $-1 #
edge $-1 $306 -2 $307 6 $308 $309 forward 7 unknown #
face $-1 $310 $311 $25 $-1 $291 forward single #
loop $-1 $-1 $312 $122 #
plane-surface $-1 0 -9.8149546191139372 0 0 1 0 0 0 1 forward_v I I I I #
coedge $-1 $313 $314 $126 $204 forward $123 $-1 #
coedge $-1 $315 $125 $316 $205 reversed $82 $-1 #
coedge $-1 $125 $315 $317 $318 reversed $82 $-1 #
coedge $-1 $319 $320 $125 $202 forward $311 $-1 #
edge $-1 $210 -2.4537386628204003 $321 7.3612159241257977 $201 $322 forward 7 unknown #
coedge $-1 $127 $126 $323 $324 reversed $52 $-1 #
edge $-1 $325 -6 $209 2 $198 $326 forward 7 unknown #
edge $-1 $327 -6 $210 2 $316 $328 forward 7 unknown #
coedge $-1 $207 $128 $329 $330 forward $208 $-1 #
coedge $-1 $128 $206 $313 $331 forward $208 $-1 #
loop $-1 $-1 $128 $310 #
vertex $-1 $204 $332 #
vertex $-1 $330 $333 #
straight-curve $-1 6.3750000139290304 -6.1343466289042929 4 -0.86602540283832974 -0.50000000163870872 0 I I #
primitive_order-cdc-attrib $-1 $-1 $131 $57 0 10 #
face_name-twe-attrib $-1 $334 $132 $88 5 #
model_id-kcp-attrib $-1 $335 $-1 $133 1 990710898 60 -449052671 7 #
face $336 $158 $237 $9 $-1 $337 forward single #
loop $338 $-1 $339 $133 #
plane-surface $340 80.000000123440003 9.8149544428233408 27 0.50000000163870884 0.86602540283832974 -5.3028752730487387e-017 -1.0605750511338e-016 0 -1 forward_v I I I I #
loop_type-twe-attrib $-1 $-1 $-1 $134 0 #
coedge $-1 $341 $342 $343 $344 forward $134 $-1 #
surf-twe-attrib $-1 $-1 $-1 $135 33 #
coedge $-1 $345 $137 $342 $346 reversed $89 $-1 #
coedge $-1 $137 $345 $139 $226 forward $89 $-1 #
coedge $-1 $141 $343 $137 $224 reversed $148 $-1 #
edge $347 $228 0 $348 9.8149546191139603 $137 $349 forward 7 unknown #
coedge $-1 $140 $139 $350 $351 reversed $58 $-1 #
edge $352 $353 0 $228 8 $222 $354 forward 7 unknown #
attrib_edge_convexity-kcp-attrib $-1 $355 $-1 $142 1 #
vertex $-1 $226 $356 #
straight-curve $357 80.000000123440003 -9.81495479540453 35 -0.86602540283833096 0.50000000163870695 0 I I #
coedge $-1 $350 $358 $143 $231 forward $249 $-1 #
edge $359 $239 0 $233 9.814954586946202 $230 $360 forward 7 unknown #
attrib_edge_convexity-kcp-attrib $-1 $361 $-1 $144 1 #
vertex $-1 $231 $362 #
straight-curve $363 80.000000123440003 -9.81495479540453 27 0 6.1232329394368604e-017 1 I I #
coedge $-1 $364 $145 $358 $365 reversed $237 $-1 #
coedge $-1 $145 $364 $147 $242 forward $237 $-1 #
loop $366 $-1 $236 $215 #
attrib_edge_convexity-kcp-attrib $-1 $367 $-1 $146 1 #
vertex $-1 $365 $368 #
straight-curve $369 88.500000123440003 -4.90747748584758 27 0 6.1232329394368604e-017 1 I I #
coedge $-1 $343 $147 $339 $370 reversed $148 $-1 #
edge $371 $372 0 $150 9.8149546191139603 $236 $373 forward 7 unknown #
loop_type-twe-attrib $-1 $-1 $-1 $148 0 #
convexity-sys-attrib $-1 $374 $149 $97 #
point $-1 88.500000123440003 -4.90747748584758 35 #
point $-1 80.000000123440003 -9.81495479540453 35 #
cur-twe-attrib $-1 $-1 $-1 $152 42 #
model_id-kcp-attrib $-1 $375 $-1 $153 1 990710898 60 -449052671 18 #
loop $376 $-1 $358 $250 #
face $377 $-1 $153 $9 $-1 $378 forward single #
convexity-sys-attrib $-1 $379 $154 $100 #
model_id-kcp-attrib $-1 $-1 $-1 $155 1 990710898 60 -449052671 20 #
point $-1 84.999999823709402 -2.8911568065559e-014 27 #
cur-twe-attrib $-1 $-1 $-1 $156 44 #
loop_type-twe-attrib $-1 $-1 $157 $101 1 #
model_id-kcp-attrib $-1 $380 $-1 $158 1 990710898 60 -449052671 11 #
plane-surface $381 80.000000123440003 -1.7629059762966301e-007 35 0 0 1 1 0 0 forward_v I I I I #
edge_name-twe-attrib $-1 $-1 $159 $67 13 8704 #
face $382 $-1 $179 $20 $-1 $383 reversed single #
loop $-1 $-1 $275 $164 #
plane-surface $-1 0 9.8149546191139372 0 0 -1 0 0 0 -1 forward_v I I I I #
coedge $-1 $384 $273 $276 $385 forward $165 $-1 #
coedge $-1 $279 $167 $168 $267 reversed $106 $-1 #
coedge $-1 $273 $384 $167 $265 reversed $165 $-1 #
edge $-1 $280 -4 $386 4 $264 $387 forward 7 unknown #
coedge $-1 $169 $168 $384 $388 forward $70 $-1 #
edge $-1 $271 -8.5 $386 8.5 $263 $389 forward 7 unknown #
coedge $-1 $276 $275 $169 $269 reversed $260 $-1 #
edge $-1 $390 -8.5 $270 8.5 $268 $391 forward 7 unknown #
vertex $-1 $171 $392 #
vertex $-1 $282 $393 #
straight-curve $-1 8.5 0 -4 0 -1 0 I I #
coedge $-1 $262 $264 $172 $274 reversed $165 $-1 #
edge $-1 $277 -9.8149546191139372 $280 9.8149546191139372 $273 $394 forward 7 unknown #
coedge $-1 $268 $173 $178 $283 forward $260 $-1 #
coedge $-1 $173 $268 $262 $385 reversed $260 $-1 #
vertex $-1 $174 $395 #
straight-curve $-1 0 9.8149546191139372 4 -1 0 0 I I #
coedge $-1 $175 $263 $177 $282 reversed $106 $-1 #
vertex $-1 $274 $396 #
straight-curve $-1 0 -9.8149546191139372 4 1 0 0 I I #
edge $-1 $180 -4 $271 4 $177 $397 forward 7 unknown #
edge $-1 $181 -4 $270 4 $178 $398 forward 7 unknown #
point $-1 8.5 -9.8149546191139372 4 #
point $-1 8.5 9.8149546191139372 4 #
vertex $-1 $184 $399 #
ellipse-curve $-1 0 0 4.0000000000000018 0 0 1 4.9999998237094196 0 0 1 I I #
point $-1 4.9999998237094196 0 -4.0000000000000018 #
face $-1 $400 $401 $32 $-1 $189 reversed single #
loop $-1 $-1 $402 $187 #
plane-surface $-1 0 0 4 0 0 1 1 0 0 forward_v I I I I #
coedge $-1 $300 $403 $302 $404 forward $188 $-1 #
coedge $-1 $405 $190 $406 $407 reversed $119 $-1 #
coedge $-1 $190 $405 $408 $409 reversed $119 $-1 #
coedge $-1 $410 $411 $190 $296 reversed $412 $-1 #
edge $-1 $413 -6 $414 2 $190 $415 forward 7 unknown #
coedge $-1 $192 $191 $416 $417 forward $79 $-1 #
coedge $-1 $402 $418 $191 $299 forward $290 $-1 #
edge $-1 $419 -8.5 $306 -1.4210854715202004e-014 $191 $420 forward 7 unknown #
coedge $-1 $403 $292 $192 $301 forward $188 $-1 #
edge $-1 $307 1.4210854715202004e-014 $421 8.5 $192 $422 forward 7 unknown #
coedge $-1 $423 $193 $292 $404 reversed $305 $-1 #
coedge $-1 $193 $423 $402 $424 reversed $305 $-1 #
coedge $-1 $411 $410 $308 $194 reversed $412 $-1 #
loop $-1 $-1 $303 $425 #
vertex $-1 $426 $427 #
vertex $-1 $301 $428 #
coedge $-1 $429 $430 $121 $194 forward $431 $-1 #
straight-curve $-1 5.0626169922907138e-014 9.8149546191139372 2 -2.1349174405887333e-032 0 -1 I I #
face $-1 $432 $208 $25 $-1 $291 forward single #
loop $-1 $-1 $201 $195 #
coedge $-1 $433 $329 $127 $205 reversed $196 $-1 #
coedge $-1 $434 $198 $207 $331 reversed $123 $-1 #
coedge $-1 $198 $434 $435 $436 reversed $123 $-1 #
coedge $-1 $200 $199 $437 $438 reversed $82 $-1 #
coedge $-1 $439 $440 $312 $205 forward $441 $-1 #
coedge $-1 $442 $443 $200 $318 forward $444 $-1 #
edge $-1 $321 -2 $445 6 $317 $446 forward 7 unknown #
coedge $-1 $320 $201 $443 $447 forward $311 $-1 #
coedge $-1 $201 $319 $439 $448 forward $311 $-1 #
vertex $-1 $447 $449 #
straight-curve $-1 -2.125000013929025 -8.5880852836827799 4 -0.86602540283833085 0.50000000163870684 0 I I #
coedge $-1 $435 $450 $203 $324 forward $451 $-1 #
edge $-1 $327 -7.3612159562935133 $325 2.4537386306526927 $323 $452 forward 7 unknown #
vertex $-1 $436 $453 #
straight-curve $-1 8.5 -4.9074773095569837 2 0 -1.2325951644078309e-032 1 I I #
vertex $-1 $454 $455 #
straight-curve $-1 1.0674587272913742e-032 -9.8149546191139372 2 -2.1349174405887333e-032 0 1 I I #
coedge $-1 $312 $456 $206 $330 reversed $196 $-1 #
edge $-1 $210 0 $457 8.5 $329 $458 forward 7 unknown #
edge $-1 $457 -9.8149546191139372 $209 -4.9074773095569837 $313 $459 forward 7 unknown #
point $-1 8.5 -4.9074773095569837 4 #
point $-1 0 -9.8149546191139372 4 #
primitive_order-cdc-attrib $-1 $-1 $213 $88 0 10 #
face_name-twe-attrib $-1 $460 $214 $133 6 #
model_id-kcp-attrib $-1 $461 $-1 $215 1 990710898 60 -449052671 8 #
plane-surface $462 88.500000123440003 4.9074771332663802 27 1 0 0 0 0 -1 forward_v I I I I #
loop_type-twe-attrib $-1 $-1 $-1 $216 0 #
coedge $-1 $463 $464 $241 $370 forward $216 $-1 #
surf-twe-attrib $-1 $-1 $-1 $217 51 #
coedge $-1 $465 $219 $464 $466 reversed $134 $-1 #
coedge $-1 $219 $465 $221 $346 forward $134 $-1 #
coedge $-1 $223 $241 $219 $344 reversed $148 $-1 #
edge $467 $348 0 $468 9.8149545869462056 $219 $469 forward 7 unknown #
coedge $-1 $222 $221 $470 $471 reversed $89 $-1 #
edge $472 $473 0 $348 8 $342 $474 forward 7 unknown #
attrib_edge_convexity-kcp-attrib $-1 $475 $-1 $224 1 #
vertex $-1 $346 $476 #
straight-curve $477 71.500000123440003 -4.90747748584758 35 0 1 0 I I #
coedge $-1 $470 $230 $225 $351 forward $249 $-1 #
edge $478 $233 0 $353 9.8149545869462003 $350 $479 forward 7 unknown #
attrib_edge_convexity-kcp-attrib $-1 $480 $-1 $226 1 #
vertex $-1 $351 $481 #
straight-curve $482 71.500000123440003 -4.90747748584758 27 0 6.1232329394368604e-017 1 I I #
convexity-sys-attrib $-1 $483 $227 $142 #
point $-1 71.500000123440003 -4.90747748584758 35 #
cur-twe-attrib $-1 $-1 $-1 $229 60 #
coedge $-1 $230 $484 $235 $365 forward $249 $-1 #
attrib_edge_convexity-kcp-attrib $-1 $485 $-1 $231 1 #
straight-curve $486 88.500000123440003 -4.90747748584758 27 -0.86602540283832996 -0.50000000163870895 0 I I #
convexity-sys-attrib $-1 $487 $232 $144 #
point $-1 80.000000123440003 -9.81495479540453 27 #
cur-twe-attrib $-1 $-1 $-1 $234 62 #
coedge $-1 $236 $235 $463 $488 forward $237 $-1 #
edge $489 $490 0 $239 9.8149546191139603 $358 $491 forward 7 unknown #
loop_type-twe-attrib $-1 $-1 $-1 $237 0 #
convexity-sys-attrib $-1 $492 $238 $146 #
point $-1 88.500000123440003 -4.90747748584758 27 #
cur-twe-attrib $-1 $-1 $-1 $240 64 #
edge $493 $468 0 $372 9.8149545869462074 $339 $494 forward 7 unknown #
attrib_edge_convexity-kcp-attrib $-1 $495 $-1 $242 1 #
vertex $-1 $488 $496 #
straight-curve $497 88.500000123440003 4.9074771332663802 35 0 -1 0 I I #
edge_name-twe-attrib $-1 $-1 $244 $97 1 8704 #
loop_type-twe-attrib $-1 $-1 $248 $153 1 #
loop_type-twe-attrib $-1 $-1 $-1 $249 0 #
model_id-kcp-attrib $-1 $498 $-1 $250 1 990710898 60 -449052671 14 #
plane-surface $499 80.000000123440003 -1.7629059811952201e-007 27 0 0 -1 -1 0 0 forward_v I I I I #
edge_name-twe-attrib $-1 $-1 $251 $100 14 8704 #
model_id-kcp-attrib $-1 $500 $256 $158 1 990710898 60 -449052671 9 #
surf-twe-attrib $-1 $-1 $-1 $257 76 #
model_id-kcp-attrib $-1 $-1 $-1 $259 1 990710898 60 -449052670 3 #
plane-surface $-1 8.5 0 0 -1 0 0 0 0 1 forward_v I I I I #
coedge $-1 $264 $262 $266 $388 reversed $165 $-1 #
edge $-1 $277 -4 $390 4 $276 $501 forward 7 unknown #
vertex $-1 $388 $502 #
straight-curve $-1 -8.5 -9.8149546191139372 0 0 0 -1 I I #
edge $-1 $386 -9.8149546191139372 $390 9.8149546191139372 $384 $503 forward 7 unknown #
straight-curve $-1 0 -9.8149546191139372 -4 -1 0 0 I I #
vertex $-1 $269 $504 #
straight-curve $-1 0 9.8149546191139372 -4 1 0 0 I I #
point $-1 8.5 9.8149546191139372 -4 #
point $-1 8.5 -9.8149546191139372 -4 #
straight-curve $-1 -8.5 0 4 0 -1 0 I I #
point $-1 -8.5 9.8149546191139372 4 #
point $-1 -8.5 -9.8149546191139372 4 #
straight-curve $-1 8.5 -9.8149546191139372 0 0 0 -1 I I #
straight-curve $-1 8.5 9.8149546191139372 0 0 0 -1 I I #
point $-1 4.9999998237094196 0 4.0000000000000018 #
face $-1 $505 $506 $32 $-1 $291 forward single #
loop $-1 $-1 $507 $289 #
coedge $-1 $418 $298 $303 $424 forward $290 $-1 #
coedge $-1 $292 $300 $508 $509 forward $188 $-1 #
edge $-1 $510 -7.3612159241257853 $307 2.453738662820399 $292 $511 forward 7 unknown #
coedge $-1 $294 $293 $512 $513 forward $119 $-1 #
coedge $-1 $514 $515 $293 $407 forward $506 $-1 #
edge $-1 $516 -9.8149546191139372 $414 -4.9074773095569784 $293 $517 forward 7 unknown #
coedge $-1 $518 $507 $294 $409 forward $401 $-1 #
edge $-1 $413 4.9074773095569784 $519 9.8149546191139372 $294 $520 forward 7 unknown #
coedge $-1 $304 $295 $507 $521 reversed $412 $-1 #
coedge $-1 $295 $304 $514 $522 reversed $412 $-1 #
loop $-1 $-1 $411 $523 #
vertex $-1 $409 $524 #
vertex $-1 $296 $525 #
straight-curve $-1 -8.5 4.9074773095569784 2 0 -1.2325951644078309e-032 1 I I #
coedge $-1 $526 $508 $297 $417 reversed $527 $-1 #
edge $-1 $419 -4 $421 4 $416 $528 forward 7 unknown #
coedge $-1 $298 $402 $526 $529 forward $290 $-1 #
vertex $-1 $529 $530 #
straight-curve $-1 0 9.8149546191139372 4 -1 0 0 I I #
vertex $-1 $509 $531 #
straight-curve $-1 0 9.8149546191139372 -4 1 0 0 I I #
coedge $-1 $303 $302 $532 $533 reversed $305 $-1 #
edge $-1 $306 -2.453738662820399 $534 7.3612159241257853 $402 $535 forward 7 unknown #
face $-1 $523 $305 $32 $-1 $536 reversed single #
edge $-1 $306 -1.4210854715202004e-014 $516 8.5 $430 $420 forward 7 unknown #
point $-1 1.4210854715202004e-014 9.8149546191139159 4 #
point $-1 1.4210854715202004e-014 9.8149546191139159 -4 #
coedge $-1 $512 $308 $518 $537 reversed $431 $-1 #
coedge $-1 $308 $512 $515 $426 reversed $431 $-1 #
loop $-1 $-1 $308 $538 #
face $-1 $539 $444 $25 $-1 $120 reversed single #
coedge $-1 $456 $312 $450 $540 reversed $196 $-1 #
coedge $-1 $314 $313 $456 $541 forward $123 $-1 #
coedge $-1 $450 $323 $314 $436 forward $451 $-1 #
edge $-1 $325 4.9074773095569837 $542 9.8149546191139372 $314 $543 forward 7 unknown #
coedge $-1 $544 $545 $315 $438 forward $546 $-1 #
edge $-1 $445 -7.3612159241257977 $327 2.4537386628204003 $437 $547 forward 7 unknown #
coedge $-1 $548 $316 $320 $448 reversed $441 $-1 #
coedge $-1 $316 $548 $544 $454 reversed $441 $-1 #
loop $-1 $-1 $316 $549 #
coedge $-1 $550 $317 $545 $551 reversed $444 $-1 #
coedge $-1 $317 $550 $319 $447 reversed $444 $-1 #
loop $-1 $-1 $317 $432 #
vertex $-1 $438 $552 #
straight-curve $-1 -8.5 -4.9074773095570086 2 0 1.2325951644078309e-032 -1 I I #
edge $-1 $321 4.9074773095569988 $553 9.8149546191139372 $443 $517 forward 7 unknown #
edge $-1 $553 -8.5 $210 0 $439 $458 forward 7 unknown #
point $-1 -8.5 -4.9074773095569988 4 #
coedge $-1 $323 $435 $433 $540 forward $451 $-1 #
loop $-1 $-1 $323 $554 #
straight-curve $-1 6.3750000139290304 -6.1343466289042929 -4 0.86602540283832974 0.50000000163870872 0 I I #
point $-1 8.5 -4.9074773095569837 -4 #
edge $-1 $327 0 $555 8.5 $440 $556 forward 7 unknown #
point $-1 0 -9.8149546191139372 -4 #
coedge $-1 $329 $433 $434 $541 reversed $196 $-1 #
vertex $-1 $331 $557 #
straight-curve $-1 0 -9.8149546191139372 4 1 0 0 I I #
straight-curve $-1 8.5 0 4 0 1 0 I I #
primitive_order-cdc-attrib $-1 $-1 $335 $133 0 10 #
face_name-twe-attrib $-1 $558 $336 $215 7 #
surf-twe-attrib $-1 $-1 $-1 $337 81 #
coedge $-1 $559 $339 $364 $488 reversed $216 $-1 #
coedge $-1 $339 $559 $341 $466 forward $216 $-1 #
coedge $-1 $342 $341 $560 $561 reversed $134 $-1 #
edge $562 $563 0 $468 8 $464 $564 forward 7 unknown #
attrib_edge_convexity-kcp-attrib $-1 $565 $-1 $344 1 #
vertex $-1 $466 $566 #
straight-curve $567 71.500000123440003 4.9074771332663802 35 0.86602540283833096 0.50000000163870695 0 I I #
coedge $-1 $560 $350 $345 $471 forward $249 $-1 #
edge $568 $353 0 $473 9.8149546191139603 $470 $569 forward 7 unknown #
attrib_edge_convexity-kcp-attrib $-1 $570 $-1 $346 1 #
vertex $-1 $471 $571 #
straight-curve $572 71.500000123440003 4.9074771332663802 27 0 6.1232329394368604e-017 1 I I #
convexity-sys-attrib $-1 $573 $347 $224 #
point $-1 71.500000123440003 4.9074771332663802 35 #
cur-twe-attrib $-1 $-1 $-1 $349 90 #
attrib_edge_convexity-kcp-attrib $-1 $574 $-1 $351 1 #
straight-curve $575 80.000000123440003 -9.81495479540453 27 -0.86602540283833096 0.50000000163870695 0 I I #
convexity-sys-attrib $-1 $576 $352 $226 #
point $-1 71.500000123440003 -4.90747748584758 27 #
cur-twe-attrib $-1 $-1 $-1 $354 92 #
edge_name-twe-attrib $-1 $-1 $355 $142 3 8704 #
coedge $-1 $358 $560 $559 $577 forward $249 $-1 #
convexity-sys-attrib $-1 $578 $359 $231 #
cur-twe-attrib $-1 $-1 $-1 $360 97 #
edge_name-twe-attrib $-1 $-1 $361 $144 4 8448 #
edge $579 $490 0 $372 8 $364 $580 forward 7 unknown #
model_id-kcp-attrib $-1 $581 $-1 $365 1 990710898 60 -449052671 12 #
vertex $-1 $365 $582 #
straight-curve $583 88.500000123440003 4.9074771332663802 27 0 -1 0 I I #
edge_name-twe-attrib $-1 $-1 $367 $146 2 8448 #
attrib_edge_convexity-kcp-attrib $-1 $584 $-1 $370 1 #
straight-curve $585 80.000000123440003 9.8149544428233408 35 0.86602540283832996 -0.50000000163870895 0 I I #
convexity-sys-attrib $-1 $586 $371 $242 #
point $-1 88.500000123440003 4.9074771332663802 35 #
cur-twe-attrib $-1 $-1 $-1 $373 108 #
model_id-kcp-attrib $-1 $587 $377 $250 1 990710898 60 -449052671 10 #
surf-twe-attrib $-1 $-1 $-1 $378 115 #
face_name-twe-attrib $-1 $588 $380 $158 8 #
straight-curve $-1 -8.5 9.8149546191139372 0 0 0 -1 I I #
point $-1 -8.5 -9.8149546191139372 -4 #
straight-curve $-1 -8.5 0 -4 0 1 0 I I #
point $-1 -8.5 9.8149546191139372 -4 #
face $-1 $538 $527 $32 $-1 $124 reversed single #
loop $-1 $-1 $514 $400 #
coedge $-1 $408 $518 $410 $521 forward $401 $-1 #
coedge $-1 $416 $532 $403 $509 reversed $527 $-1 #
edge $-1 $421 -9.8149546191139372 $510 -4.9074773095569819 $508 $543 forward 7 unknown #
vertex $-1 $533 $589 #
straight-curve $-1 2.1250000139290344 8.5880852836827533 -4 -0.86602540283832974 0.50000000163870884 0 I I #
coedge $-1 $430 $429 $405 $513 reversed $431 $-1 #
edge $-1 $516 -4 $519 4 $512 $590 forward 7 unknown #
coedge $-1 $515 $406 $411 $522 forward $506 $-1 #
coedge $-1 $406 $514 $430 $426 forward $506 $-1 #
vertex $-1 $426 $591 #
straight-curve $-1 -8.5 0 4 0 -1 0 I I #
coedge $-1 $507 $408 $429 $537 forward $401 $-1 #
vertex $-1 $537 $592 #
straight-curve $-1 -8.5 0 -4 0 1 0 I I #
edge $-1 $307 -7.3612159562935062 $413 2.4537386306527034 $507 $593 forward 7 unknown #
edge $-1 $414 -2.4537386306527034 $306 7.3612159562935062 $514 $594 forward 7 unknown #
face $-1 $-1 $412 $32 $-1 $595 reversed single #
point $-1 -8.5 4.9074773095569784 -4 #
point $-1 -8.5 4.9074773095569784 4 #
coedge $-1 $532 $416 $418 $529 reversed $527 $-1 #
loop $-1 $-1 $532 $505 #
straight-curve $-1 8.5 9.8149546191139372 0 0 0 -1 I I #
edge $-1 $534 4.9074773095569819 $419 9.8149546191139372 $526 $459 forward 7 unknown #
point $-1 8.5 9.8149546191139372 4 #
point $-1 8.5 9.8149546191139372 -4 #
coedge $-1 $508 $526 $423 $533 forward $527 $-1 #
edge $-1 $534 -2 $510 6 $532 $596 forward 7 unknown #
vertex $-1 $529 $597 #
straight-curve $-1 2.1250000139290344 8.5880852836827533 4 0.86602540283832974 -0.50000000163870884 0 I I #
plane-surface $-1 1.4210854715202004e-014 9.8149546191139159 4 0.50000000163870872 0.86602540283832963 1.0674587237928689e-032 0 1.2325951644078309e-032 -1 forward_v I I I I #
edge $-1 $519 -8.5 $307 1.4210854715202004e-014 $429 $422 forward 7 unknown #
face $-1 $425 $431 $32 $-1 $80 reversed single #
face $-1 $554 $546 $25 $-1 $189 reversed single #
edge $-1 $542 -8.5 $327 0 $433 $556 forward 7 unknown #
edge $-1 $457 -4 $542 4 $434 $598 forward 7 unknown #
vertex $-1 $541 $599 #
straight-curve $-1 8.5 0 -4 0 -1 0 I I #
coedge $-1 $545 $437 $440 $454 forward $546 $-1 #
coedge $-1 $437 $544 $442 $551 forward $546 $-1 #
loop $-1 $-1 $437 $539 #
straight-curve $-1 -2.125000013929025 -8.5880852836827799 -4 0.86602540283833085 -0.50000000163870684 0 I I #
coedge $-1 $440 $439 $550 $600 forward $441 $-1 #
face $-1 $-1 $441 $25 $-1 $197 reversed single #
coedge $-1 $443 $442 $548 $600 reversed $444 $-1 #
edge $-1 $555 -9.8149546191139372 $445 -4.9074773095569988 $442 $520 forward 7 unknown #
point $-1 -8.5 -4.9074773095569988 -4 #
vertex $-1 $447 $601 #
face $-1 $549 $451 $25 $-1 $189 reversed single #
vertex $-1 $551 $602 #
straight-curve $-1 0 -9.8149546191139372 -4 -1 0 0 I I #
point $-1 8.5 -9.8149546191139372 4 #
primitive_order-cdc-attrib $-1 $-1 $461 $215 0 10 #
coedge $-1 $464 $463 $484 $577 reversed $216 $-1 #
coedge $-1 $484 $470 $465 $561 forward $249 $-1 #
edge $603 $473 0 $563 9.8149545869462056 $560 $604 forward 7 unknown #
edge_name-twe-attrib $-1 $-1 $-1 $466 10 8448 #
vertex $-1 $561 $605 #
straight-curve $606 80.000000123440003 9.8149544428233408 27 0 6.1232329394368604e-017 1 I I #
convexity-sys-attrib $-1 $607 $467 $344 #
point $-1 80.000000123440003 9.8149544428233408 35 #
cur-twe-attrib $-1 $-1 $-1 $469 129 #
model_id-kcp-attrib $-1 $608 $-1 $471 1 990710898 60 -449052671 13 #
straight-curve $609 71.500000123440003 -4.90747748584758 27 0 1 0 I I #
convexity-sys-attrib $-1 $610 $472 $346 #
point $-1 71.500000123440003 4.9074771332663802 27 #
cur-twe-attrib $-1 $-1 $-1 $474 131 #
edge_name-twe-attrib $-1 $-1 $475 $224 5 8704 #
convexity-sys-attrib $-1 $611 $478 $351 #
cur-twe-attrib $-1 $-1 $-1 $479 136 #
edge_name-twe-attrib $-1 $-1 $480 $226 6 8448 #
edge $612 $563 0 $490 9.8149545869462074 $484 $613 forward 7 unknown #
edge_name-twe-attrib $-1 $-1 $485 $231 16 8704 #
edge_name-twe-attrib $-1 $-1 $-1 $488 12 8448 #
straight-curve $614 88.500000123440003 4.9074771332663802 27 0 6.1232329394368604e-017 1 I I #
edge_name-twe-attrib $-1 $-1 $489 $365 15 8704 #
point $-1 88.500000123440003 4.9074771332663802 27 #
cur-twe-attrib $-1 $-1 $-1 $491 148 #
convexity-sys-attrib $-1 $615 $493 $370 #
cur-twe-attrib $-1 $-1 $-1 $494 152 #
edge_name-twe-attrib $-1 $-1 $495 $242 11 8704 #
face_name-twe-attrib $-1 $616 $498 $250 9 #
primitive_order-cdc-attrib $-1 $-1 $500 $158 0 10 #
point $-1 8.5 4.9074773095569819 -4 #
straight-curve $-1 -8.5 9.8149546191139372 0 0 0 -1 I I #
point $-1 -8.5 9.8149546191139372 4 #
point $-1 -8.5 9.8149546191139372 -4 #
straight-curve $-1 -6.3750000139290179 6.1343466289042876 -4 -0.86602540283833085 -0.50000000163870684 0 I I #
straight-curve $-1 -6.3750000139290179 6.1343466289042876 4 0.86602540283833085 0.50000000163870684 0 I I #
plane-surface $-1 -8.5 4.9074773095569784 4 -0.50000000163870684 0.86602540283833085 1.0674587237928704e-032 0 -1.2325951644078309e-032 1 forward_v I I I I #
straight-curve $-1 8.5 4.9074773095569686 2 0 1.2325951644078309e-032 -1 I I #
point $-1 8.5 4.9074773095569819 4 #
straight-curve $-1 8.5 -9.8149546191139372 0 0 0 -1 I I #
point $-1 8.5 -9.8149546191139372 -4 #
edge $-1 $553 -4 $555 4 $550 $617 forward 7 unknown #
point $-1 -8.5 -9.8149546191139372 4 #
point $-1 -8.5 -9.8149546191139372 -4 #
edge_name-twe-attrib $-1 $-1 $-1 $561 19 8704 #
straight-curve $618 71.500000123440003 4.9074771332663802 27 0.86602540283833096 0.50000000163870695 0 I I #
point $-1 80.000000123440003 9.8149544428233408 27 #
cur-twe-attrib $-1 $-1 $-1 $564 166 #
edge_name-twe-attrib $-1 $-1 $565 $344 7 8704 #
attrib_edge_convexity-kcp-attrib $-1 $619 $568 $471 1 #
cur-twe-attrib $-1 $-1 $-1 $569 171 #
edge_name-twe-attrib $-1 $-1 $570 $346 8 8448 #
edge_name-twe-attrib $-1 $-1 $574 $351 17 8704 #
edge_name-twe-attrib $-1 $-1 $-1 $577 20 8704 #
straight-curve $620 80.000000123440003 9.8149544428233408 27 0.86602540283832996 -0.50000000163870895 0 I I #
cur-twe-attrib $-1 $-1 $-1 $580 183 #
edge_name-twe-attrib $-1 $-1 $584 $370 9 8704 #
primitive_order-cdc-attrib $-1 $-1 $587 $250 0 10 #
straight-curve $-1 -8.5 -9.8149546191139372 0 0 0 -1 I I #
cur-twe-attrib $-1 $-1 $-1 $604 195 #
convexity-sys-attrib $-1 $621 $608 $471 #
cur-twe-attrib $-1 $-1 $-1 $613 206 #
edge_name-twe-attrib $-1 $-1 $619 $471 18 8704 #
End-of-ACIS-data 