#define _width 224
#define _height 240
static char _bits[] = {
 0x00,0x00,0x00,0x40,0x00,0x00,0x00,0x00,0x00,0x00,0x00,0x00,0x00,0x00,0x00,
 0x00,0x00,0x00,0x00,0x00,0x00,0x00,0x00,0x00,0x00,0x00,0x00,0x00,0x00,0x00,
 0x00,0xb8,0x03,0x00,0x00,0x00,0x00,0x00,0x00,0x00,0x00,0x00,0x00,0x00,0x00,
 0x00,0x00,0x00,0x00,0x00,0x00,0x00,0x00,0x00,0x00,0x00,0x00,0x00,0x00,0xb8,
 0x03,0x00,0x00,0x00,0x00,0x00,0x00,0x00,0x00,0x00,0x00,0x00,0x00,0x00,0x00,
 0x00,0x00,0x00,0x00,0x00,0x00,0x00,0x00,0x00,0x00,0x00,0x00,0x07,0x1c,0x00,
 0xf0,0xff,0xff,0xff,0xff,0xff,0x7f,0x00,0x00,0x00,0x00,0x00,0x00,0x00,0x00,
 0x00,0x00,0x00,0x00,0x00,0x00,0x00,0x00,0x00,0xe0,0x00,0xe0,0x00,0x0e,0x00,
 0x00,0x00,0x00,0x00,0x80,0x03,0x00,0x00,0x00,0x00,0x00,0x00,0x00,0x00,0x00,
 0x00,0x00,0x00,0x00,0x00,0x00,0x00,0xe0,0x00,0xe0,0x00,0x0e,0x00,0x00,0x00,
 0x00,0x00,0x80,0x03,0x00,0x00,0x00,0x00,0x00,0x00,0x00,0x00,0x00,0x00,0x00,
 0x00,0x00,0x00,0x00,0x00,0x10,0x00,0x00,0xc7,0x01,0x00,0x00,0x00,0x00,0x00,
 0x00,0x1c,0x00,0x00,0x00,0x00,0x00,0x00,0x00,0x00,0x00,0x00,0x00,0x00,0x00,
 0x00,0x00,0x00,0x0e,0x00,0x00,0x38,0x00,0x00,0x00,0x00,0x00,0x00,0x00,0xe0,
 0x00,0x00,0x00,0x00,0x00,0x00,0x00,0x00,0x00,0x00,0x00,0x00,0x00,0x00,0x00,
 0xc0,0x01,0x00,0x00,0x00,0x00,0x00,0x00,0x00,0x00,0x00,0x00,0x00,0x01,0x00,
 0x00,0x00,0x00,0x00,0x00,0x00,0x00,0x00,0x00,0x00,0x00,0x00,0x00,0xc0,0x01,
 0x00,0x00,0x00,0x00,0x00,0x00,0x00,0x00,0x00,0x00,0x00,0x01,0x00,0x00,0x00,
 0x00,0x00,0x00,0x00,0x00,0x00,0x00,0x00,0x00,0x00,0x00,0x38,0x00,0x00,0x00,
 0x00,0x00,0x00,0x00,0x00,0x00,0x00,0x00,0x00,0x0e,0x00,0x00,0x00,0x00,0x00,
 0x00,0x00,0x00,0x00,0x00,0x00,0x00,0x00,0x00,0x04,0x00,0x00,0x00,0x00,0x00,
 0x00,0x00,0x00,0x00,0x00,0x00,0x00,0x70,0x00,0x00,0x00,0x00,0x00,0x00,0x00,
 0x00,0x00,0x00,0x00,0x00,0x00,0x00,0x04,0x00,0x00,0x00,0x00,0x00,0x00,0x00,
 0x00,0x00,0x00,0x00,0x00,0x70,0x00,0x00,0x00,0x00,0x00,0x00,0x00,0x00,0x00,
 0x00,0x00,0x00,0x00,0x80,0x03,0x00,0x00,0x00,0x00,0x00,0x00,0x00,0x00,0x00,
 0x00,0x00,0x00,0x80,0x03,0x00,0x00,0x00,0x00,0x00,0x00,0x00,0x00,0x00,0x00,
 0x00,0x00,0x70,0x00,0x00,0x00,0x00,0x00,0x00,0x00,0x00,0x00,0x00,0x00,0x00,
 0x00,0x00,0x0c,0x00,0x00,0x00,0x00,0x00,0x00,0x00,0x00,0x00,0x00,0x00,0x00,
 0x70,0x00,0x00,0x00,0x00,0x00,0x00,0x00,0x00,0x00,0x00,0x00,0x00,0x00,0x00,
 0x0c,0x00,0x00,0x00,0x00,0x00,0x00,0x00,0x00,0x00,0x00,0x00,0x00,0x0e,0x00,
 0x00,0x00,0x00,0x00,0x00,0x00,0x00,0x00,0x00,0x00,0x00,0x00,0x00,0x30,0x00,
 0x00,0x00,0x00,0x00,0x00,0x00,0x00,0x00,0x00,0x00,0x00,0x01,0x00,0x00,0x00,
 0x00,0x00,0x00,0x00,0x00,0x00,0x00,0x00,0x00,0x00,0x00,0xc0,0x01,0x00,0x00,
 0x00,0x00,0x00,0x00,0x00,0x00,0x00,0x00,0x00,0x0f,0x00,0x00,0x00,0x00,0x00,
 0x00,0x00,0x00,0x00,0x00,0x00,0x00,0x00,0x00,0x00,0x0e,0x00,0x00,0x00,0x00,
 0x00,0x00,0x00,0x00,0x00,0x00,0x00,0x0f,0x00,0x00,0x00,0x00,0x00,0x00,0x00,
 0x00,0x00,0x00,0x00,0x00,0x00,0x00,0x00,0x0e,0x00,0x00,0x00,0x00,0x00,0x00,
 0x00,0x00,0x00,0x00,0x00,0x11,0x00,0x00,0x00,0x00,0x00,0x00,0x00,0x00,0x00,
 0x00,0x00,0x00,0x00,0x00,0x00,0x30,0x00,0x00,0x00,0x00,0x00,0x00,0x00,0x00,
 0x00,0x00,0x00,0xe1,0x00,0x00,0x00,0x00,0x00,0x00,0x00,0x00,0x00,0x00,0x00,
 0x00,0x00,0x00,0x00,0xc0,0x00,0x00,0x00,0x00,0x00,0x00,0x00,0x00,0x00,0x00,
 0x00,0xe1,0x00,0x00,0x00,0x00,0x00,0x00,0x00,0x00,0x00,0x00,0x00,0x00,0x00,
 0x00,0x00,0xc0,0x00,0x00,0x00,0x00,0x00,0x00,0x00,0x00,0x00,0x00,0x00,0x01,
 0x07,0x00,0x00,0x00,0x00,0x00,0x00,0x00,0x00,0x00,0x00,0x00,0x00,0xf8,0xff,
 0x00,0x07,0x00,0x00,0x00,0x00,0x00,0x00,0x00,0x00,0x00,0x00,0x01,0x18,0x00,
 0x00,0x00,0x00,0x00,0x00,0x00,0x00,0x00,0x00,0x00,0x00,0x07,0x00,0x01,0x38,
 0x00,0x00,0x00,0x00,0x00,0x00,0x00,0x00,0x00,0x00,0x01,0x18,0x00,0x00,0x00,
 0x00,0x00,0x00,0x00,0x00,0x00,0x00,0x00,0x00,0x07,0x00,0x01,0x38,0x00,0x00,
 0x00,0x00,0x00,0x00,0x00,0x00,0x00,0x00,0x01,0x07,0x00,0x00,0x00,0x00,0x00,
 0x00,0x00,0x00,0x00,0x00,0x00,0x80,0x00,0x00,0x0e,0xc0,0x00,0x00,0x00,0x00,
 0x00,0x00,0x00,0x00,0x00,0x00,0xe1,0x00,0x00,0x00,0x00,0x00,0x00,0x00,0x00,
 0x00,0x00,0x00,0x00,0x60,0x00,0x00,0x30,0x00,0x07,0x00,0x00,0x00,0x00,0x00,
 0x00,0x00,0x00,0x00,0xe1,0x00,0x00,0x00,0x00,0x00,0x00,0x00,0x00,0x00,0x00,
 0x00,0x00,0x60,0x00,0x00,0x30,0x00,0x07,0x00,0x00,0x00,0x00,0x00,0x00,0x00,
 0x00,0x00,0x19,0x00,0x0c,0x00,0x00,0x00,0x00,0x00,0x00,0x00,0x00,0x00,0x00,
 0x60,0x00,0x00,0x30,0x00,0x18,0x00,0x00,0x00,0x00,0x00,0x00,0x00,0x00,0x00,
 0x79,0x00,0x7f,0x00,0x00,0x00,0x00,0x00,0x00,0x00,0x00,0x00,0x00,0x60,0x00,
 0x00,0x30,0x00,0xe0,0x00,0x00,0x00,0x00,0x00,0x00,0x00,0x00,0x00,0x89,0xe3,
 0x8c,0x03,0x00,0x00,0x00,0x00,0x00,0x00,0x00,0x00,0x00,0x60,0x00,0x00,0x30,
 0x00,0x00,0x03,0x00,0x00,0x00,0x00,0x00,0x00,0x00,0x00,0x89,0xe3,0x8c,0x03,
 0x00,0x00,0x00,0x00,0x00,0x00,0x00,0x00,0x00,0x60,0x00,0x00,0x30,0x00,0x00,
 0x03,0x00,0x00,0x00,0x00,0x00,0x00,0x00,0x00,0x09,0x1c,0x0c,0x0c,0x00,0x00,
 0x00,0x00,0x00,0x00,0x00,0x00,0x00,0x80,0x00,0x00,0x08,0x00,0x00,0x1c,0x00,
 0x00,0x00,0x00,0x00,0x00,0x00,0x00,0x09,0x04,0x0c,0x30,0x00,0x00,0x00,0x00,
 0x00,0x00,0x00,0x00,0x00,0x00,0x0f,0xc0,0x07,0x00,0x00,0xe0,0x00,0x00,0x00,
 0x00,0x00,0x00,0x00,0x00,0x09,0x04,0x0c,0x30,0x00,0x00,0x00,0x00,0x00,0x00,
 0x00,0x00,0x00,0x00,0x0f,0xc0,0x07,0x00,0x00,0xe0,0x00,0x00,0x00,0x00,0x00,
 0x00,0x00,0x00,0x09,0x04,0x0c,0xc0,0x01,0x00,0x00,0x00,0x00,0x00,0x00,0x00,
 0x00,0x00,0xf0,0x3f,0x00,0x00,0x00,0x00,0x01,0x00,0x00,0x00,0x00,0x00,0x00,
 0x00,0x09,0x04,0x0c,0x00,0x0e,0x00,0x00,0x00,0x00,0x00,0x00,0x00,0x00,0x00,
 0x00,0x00,0x00,0x00,0x00,0x00,0x0e,0x00,0x00,0x00,0x00,0x00,0x00,0x00,0x09,
 0x04,0x0c,0x00,0x0e,0x00,0x00,0x00,0x00,0x00,0x00,0x00,0x00,0x00,0x00,0x00,
 0x00,0x00,0x00,0x00,0x0e,0x00,0x00,0x00,0x00,0x00,0x00,0x00,0x09,0x04,0x0c,
 0x00,0x70,0x00,0x00,0x00,0x00,0x00,0x00,0x00,0x00,0x00,0x00,0x00,0x00,0x00,
 0x00,0x00,0x70,0x00,0x00,0x00,0x00,0x00,0x00,0x00,0x09,0x04,0x0c,0x00,0x80,
 0x00,0x00,0x00,0x00,0x00,0x00,0x00,0x00,0x00,0x00,0x00,0x00,0x00,0x00,0x00,
 0x80,0x03,0x00,0x00,0x00,0x00,0x00,0x00,0x09,0x04,0x0c,0x00,0x80,0x00,0x00,
 0x00,0x00,0x00,0x00,0x00,0x00,0x00,0x00,0x00,0x00,0x00,0x00,0x00,0x80,0x03,
 0x00,0x00,0x00,0x00,0x00,0x00,0x09,0x04,0x0c,0x00,0x00,0x07,0x00,0x00,0x00,
 0x00,0x00,0x00,0x00,0x00,0x00,0x00,0x00,0x00,0x00,0x00,0x00,0x04,0x00,0x00,
 0x00,0x00,0x00,0x00,0x09,0x04,0x0c,0x00,0x00,0x38,0x00,0x00,0x00,0x00,0x00,
 0x00,0x00,0x00,0x00,0x00,0x00,0x00,0x00,0x00,0x00,0x38,0x00,0x00,0x00,0x00,
 0x00,0x00,0x09,0x04,0x0c,0x00,0x00,0xc0,0x01,0x00,0x00,0x00,0x00,0x00,0x00,
 0x00,0x00,0x00,0x00,0x00,0xf0,0x07,0x00,0xc0,0x01,0x00,0x00,0x00,0x00,0x00,
 0x09,0x04,0x0c,0x00,0x00,0xc0,0x01,0x00,0x00,0x00,0x00,0x00,0x00,0x00,0x00,
 0x00,0x00,0x00,0xf0,0x07,0x00,0xc0,0x01,0x00,0x00,0x00,0x00,0x00,0x09,0x04,
 0x0c,0x00,0x00,0x00,0x02,0x00,0x00,0x00,0x00,0x00,0x00,0x00,0x00,0x00,0x00,
 0xf8,0x0f,0xf8,0x03,0x00,0x0e,0x00,0x00,0x00,0x00,0x00,0x09,0x04,0x0c,0x00,
 0x00,0x00,0x1c,0x00,0x00,0x00,0x00,0x00,0x00,0x00,0x00,0x00,0xc0,0x07,0x00,
 0x00,0xfc,0x00,0x10,0x00,0x00,0x00,0x00,0x00,0x09,0x04,0x0c,0x00,0x00,0x00,
 0x1c,0x00,0x00,0x00,0x00,0x00,0x00,0x00,0x00,0x00,0xc0,0x07,0x00,0x00,0xfc,
 0x00,0x10,0x00,0x00,0x00,0x00,0x00,0x09,0x04,0x0c,0x00,0x00,0x00,0xe0,0x00,
 0x00,0x00,0x00,0x00,0x00,0x00,0x00,0x00,0x38,0x00,0x00,0x00,0x00,0x07,0xe0,
 0x00,0x00,0x00,0x00,0x00,0x09,0x04,0x0c,0x00,0x00,0x00,0x00,0x07,0x00,0x00,
 0x00,0x00,0x00,0x00,0x00,0x00,0x07,0x00,0x00,0x00,0x00,0x38,0x00,0x07,0x00,
 0x00,0x00,0x00,0x09,0x04,0x0c,0x00,0x00,0x00,0x00,0x07,0x00,0x00,0x00,0x00,
 0x00,0x00,0x00,0x00,0x07,0x00,0x00,0x00,0x00,0x38,0x00,0x07,0x00,0x00,0x00,
 0x00,0x09,0x04,0x0c,0x00,0x00,0x00,0x00,0x38,0x00,0x00,0x00,0x00,0x00,0x00,
 0x00,0xe0,0x00,0x00,0x00,0x00,0x00,0xc0,0x01,0x38,0x00,0x00,0x00,0x00,0x09,
 0x04,0x0c,0x00,0x00,0x00,0x00,0x40,0x00,0x00,0x00,0x00,0x00,0x00,0x00,0x10,
 0x00,0x00,0xe0,0x00,0x00,0x00,0x02,0x40,0x00,0x00,0x00,0x00,0x08,0x04,0x0c,
 0x00,0x00,0x00,0x00,0x80,0x03,0x00,0x00,0x00,0x00,0x00,0x00,0x0c,0x00,0xc0,
 0x1f,0xff,0x00,0x00,0x0c,0x80,0x03,0x00,0x00,0x00,0x08,0x04,0x0c,0x00,0x00,
 0x00,0x00,0x80,0x03,0x00,0x00,0x00,0x00,0x00,0x00,0x0c,0x00,0xc0,0x1f,0xff,
 0x00,0x00,0x0c,0x80,0x03,0x00,0x00,0x00,0x08,0x04,0x0c,0x00,0x00,0x00,0x00,
 0x00,0x1c,0x00,0x00,0x00,0x00,0x00,0x00,0x0c,0x00,0x38,0x00,0x00,0x03,0x00,
 0x0c,0x00,0x1c,0x00,0x00,0x00,0x08,0x04,0x0c,0x00,0x00,0x00,0x00,0x00,0xe0,
 0x00,0x00,0x00,0x00,0x00,0x00,0x02,0x00,0x07,0x00,0x00,0x1c,0x00,0x10,0x00,
 0xe0,0x00,0x00,0x00,0x08,0x04,0x0c,0x00,0x00,0x00,0x00,0x00,0xe0,0x00,0x00,
 0x00,0x00,0x00,0x00,0x02,0x00,0x07,0x00,0x00,0x1c,0x00,0x10,0x00,0xe0,0x00,
 0x00,0x00,0x08,0x04,0x0c,0x00,0x00,0x00,0x00,0x00,0x00,0x01,0x00,0x00,0x00,
 0x00,0x00,0x02,0x00,0x03,0x00,0x00,0x60,0x00,0x10,0x00,0x00,0x01,0x00,0x00,
 0x18,0x04,0x03,0x00,0x00,0x00,0x00,0x00,0x00,0x0e,0x00,0x00,0x00,0x00,0x00,
 0x02,0x80,0x00,0x00,0x00,0x60,0x00,0x60,0x00,0x00,0x0e,0x00,0x00,0x18,0x04,
 0x03,0x00,0x00,0x00,0x00,0x00,0x00,0x0e,0x00,0x00,0x00,0x00,0x00,0x02,0x80,
 0x00,0x00,0x00,0x60,0x00,0x60,0x00,0x00,0x0e,0x00,0x00,0xe0,0xe4,0x00,0xc0,
 0x1f,0x00,0x00,0x00,0x00,0x70,0x00,0x00,0x00,0x00,0x80,0x01,0x80,0x00,0x00,
 0x00,0x60,0x00,0x60,0x00,0x00,0x70,0x00,0x00,0x00,0xdf,0x00,0x30,0xe0,0x00,
 0x00,0x00,0x00,0x80,0x03,0x00,0x00,0x00,0x80,0x01,0x80,0x00,0x00,0x00,0x60,
 0x00,0x60,0x00,0x00,0x80,0x03,0x00,0x00,0xdf,0x00,0x30,0xe0,0x00,0x00,0x00,
 0x00,0x80,0x03,0x00,0x00,0x00,0x80,0x01,0x80,0x00,0x00,0x00,0x60,0x00,0x60,
 0x00,0x00,0x80,0x03,0x00,0x00,0xc0,0x00,0x30,0x70,0x07,0x00,0x00,0x00,0x00,
 0x04,0x00,0x00,0x00,0x80,0x01,0x80,0x00,0x00,0x00,0x60,0x00,0x60,0x00,0x00,
 0x00,0x04,0x00,0x00,0xc0,0x00,0x08,0x0e,0x08,0x00,0x00,0x00,0x00,0x38,0x00,
 0x00,0x00,0x80,0x03,0x00,0x03,0x00,0x00,0x60,0x00,0x70,0x00,0x00,0x00,0x38,
 0x00,0x00,0xc0,0x00,0xc8,0x01,0x30,0x00,0x00,0x00,0x00,0xc0,0x01,0x00,0x00,
 0x80,0x03,0x00,0x03,0x00,0x00,0x10,0x00,0x70,0x00,0x00,0x00,0xc0,0x01,0x00,
 0xc0,0x00,0xc8,0x01,0x30,0x00,0x00,0x00,0x00,0xc0,0x01,0x00,0x00,0x80,0x03,
 0x00,0x03,0x00,0x00,0x10,0x00,0x70,0x00,0x00,0x00,0xc0,0x01,0x00,0xc0,0x00,
 0x38,0x00,0x40,0x00,0x00,0x00,0x00,0x00,0x0e,0x00,0x00,0x80,0x0d,0x00,0x1c,
 0x00,0x00,0x0e,0x00,0x6c,0x00,0x00,0x00,0x00,0x0e,0x00,0xc0,0x00,0x08,0x00,
 0x40,0x00,0x00,0x00,0x00,0x00,0x10,0x00,0x00,0x80,0x0d,0x00,0xe0,0x01,0xe0,
 0x01,0x00,0x6c,0x00,0x00,0x00,0x00,0x10,0x00,0xc0,0x00,0x08,0x00,0x40,0x00,
 0x00,0x00,0x00,0x00,0x10,0x00,0x00,0x80,0x0d,0x00,0xe0,0x01,0xe0,0x01,0x00,
 0x6c,0x00,0x00,0x00,0x00,0x10,0x00,0xc0,0x00,0x08,0x00,0x40,0x00,0x00,0x00,
 0x00,0x00,0xe0,0x00,0x00,0x80,0x11,0x00,0x00,0xfe,0x1f,0x00,0x00,0x62,0x00,
 0x00,0x00,0x00,0x10,0x00,0xc0,0x00,0x08,0x00,0x80,0x01,0x00,0x00,0x00,0x00,
 0x00,0x07,0x00,0x80,0xe1,0x00,0x00,0x00,0x00,0x00,0xc0,0x61,0x00,0x00,0x00,
 0x00,0x10,0x00,0xc0,0x00,0x08,0x00,0x80,0x01,0x00,0x00,0x00,0x00,0x00,0x07,
 0x00,0x80,0xe1,0x00,0x00,0x00,0x00,0x00,0xc0,0x61,0x00,0x00,0x00,0x00,0x10,
 0x00,0xc0,0x00,0x08,0x00,0x80,0x01,0x00,0x00,0x00,0x00,0x00,0x38,0x00,0x00,
 0x02,0x07,0x00,0x00,0x00,0x00,0x38,0x60,0x00,0x00,0x00,0x00,0x10,0x00,0xc0,
 0x00,0x08,0x00,0x80,0x03,0x00,0x00,0x00,0x00,0x00,0x40,0x00,0x00,0x02,0x38,
 0x00,0x00,0x00,0x00,0x07,0x10,0x00,0x00,0x00,0x00,0x10,0x00,0xc0,0x00,0x08,
 0x00,0x80,0x03,0x00,0x00,0x00,0x00,0x00,0x40,0x00,0x00,0x02,0x38,0x00,0x00,
 0x00,0x00,0x07,0x10,0x00,0x00,0x00,0x00,0x10,0x00,0xc0,0x00,0x08,0x00,0xc0,
 0x03,0x00,0x00,0x00,0x00,0x00,0x80,0x03,0x00,0x02,0xc0,0x03,0x00,0x00,0xf0,
 0x00,0x10,0x00,0x00,0x00,0x00,0x10,0x00,0xc0,0x00,0x08,0x00,0x38,0x02,0x00,
 0x03,0x00,0x00,0x00,0x00,0x1c,0x00,0x0c,0x00,0x1c,0x00,0x00,0x0e,0x00,0x0c,
 0x00,0x00,0x00,0x00,0x10,0x00,0xc0,0x00,0x08,0x00,0x06,0x0c,0x80,0xfc,0x00,
 0x00,0x00,0x00,0xe0,0x00,0x0c,0x00,0xe0,0xff,0xff,0x01,0x00,0x0c,0x00,0x00,
 0x00,0x00,0x10,0x00,0xc0,0x00,0x08,0x00,0x06,0x0c,0x80,0xfc,0x00,0x00,0x00,
 0x00,0xe0,0x00,0x0c,0x00,0xe0,0xff,0xff,0x01,0x00,0x0c,0x00,0x00,0x00,0x00,
 0x10,0x00,0xc0,0x00,0x08,0x80,0x01,0x0c,0x70,0x00,0x01,0x00,0x00,0x00,0x00,
 0x01,0x10,0x00,0x00,0x00,0x00,0x00,0x00,0x02,0x00,0x00,0x00,0x00,0x10,0x00,
 0xc0,0x00,0x08,0x70,0x00,0x0c,0x30,0x00,0x06,0x00,0x00,0x00,0x00,0x0e,0xe0,
 0x00,0x00,0x00,0x00,0x00,0xc0,0x01,0x00,0x00,0x00,0x00,0x10,0x00,0xc0,0x00,
 0x08,0x70,0x00,0x0c,0x30,0x00,0x06,0x00,0x00,0x00,0x00,0x0e,0xe0,0x00,0x00,
 0x00,0x00,0x00,0xc0,0x01,0x00,0x00,0x00,0x00,0x10,0x00,0xc0,0x00,0x08,0x0c,
 0x00,0x0c,0x30,0x00,0x08,0x00,0x00,0x00,0x00,0x70,0x00,0x07,0x00,0x00,0x00,
 0x00,0x38,0x00,0x00,0x00,0x00,0x00,0x10,0x00,0xc0,0x00,0x88,0x03,0x00,0x0c,
 0x30,0x00,0x10,0x00,0x00,0x00,0x00,0x80,0x03,0x38,0x00,0x00,0x00,0x00,0x07,
 0x00,0x00,0x00,0x00,0x00,0x10,0x00,0xc0,0x00,0x88,0x03,0x00,0x0c,0x30,0x00,
 0x10,0x00,0x00,0x00,0x00,0x80,0x03,0x38,0x00,0x00,0x00,0x00,0x07,0x00,0x00,
 0x00,0x00,0x00,0x10,0x00,0xc0,0x00,0x78,0x00,0x00,0x0c,0x08,0x00,0x60,0x00,
 0x00,0x00,0x00,0x00,0x0c,0xc0,0x07,0x00,0x00,0xfc,0x00,0x00,0x00,0x00,0x00,
 0x00,0x10,0x00,0xc0,0x00,0x08,0x00,0x00,0x0c,0x08,0x00,0x60,0x00,0x00,0x00,
 0x00,0x00,0x30,0x00,0xf8,0x07,0xf8,0x03,0x00,0x00,0x00,0x00,0x00,0x00,0x10,
 0x00,0xc0,0x00,0x08,0x00,0x00,0x0c,0x08,0x00,0x80,0x00,0x00,0x00,0x00,0x00,
 0xc0,0x01,0x00,0xf8,0x07,0x00,0x00,0x00,0x00,0x00,0x00,0x00,0x10,0x00,0xc0,
 0x00,0x08,0x00,0x00,0x0c,0x08,0x00,0x80,0x00,0x00,0x00,0x00,0x00,0xc0,0x01,
 0x00,0xf8,0x07,0x00,0x00,0x00,0x00,0x00,0x00,0x00,0x10,0x00,0xc0,0x00,0x08,
 0x00,0x00,0x0c,0x08,0x00,0x80,0x00,0x00,0x00,0x00,0x00,0x00,0x0e,0x00,0x00,
 0x00,0x00,0x00,0x00,0x00,0x00,0x00,0x00,0x10,0x00,0xc0,0x00,0x08,0x00,0x00,
 0x0c,0x08,0x00,0x00,0x03,0x00,0x00,0x00,0x00,0x00,0x30,0x00,0x00,0x00,0x00,
 0x00,0x00,0x00,0x00,0x00,0x00,0x10,0x00,0xc0,0x00,0x08,0x00,0x00,0x0c,0x08,
 0x00,0x00,0x03,0x00,0x00,0x00,0x00,0x00,0x30,0x00,0x00,0x00,0x00,0x00,0x00,
 0x00,0x00,0x00,0x00,0x10,0x00,0xc0,0x00,0x30,0x00,0x00,0x0c,0x08,0x00,0x00,
 0x03,0x00,0x00,0x00,0x00,0x00,0xc0,0x00,0x00,0x00,0x00,0x00,0x00,0x00,0x00,
 0x00,0x00,0x10,0x00,0xc0,0x00,0x30,0x00,0x00,0x0c,0x08,0x00,0x00,0x03,0x00,
 0x00,0x00,0x00,0x00,0x00,0x07,0x00,0x00,0x00,0x00,0x00,0x00,0x00,0x00,0x00,
 0x10,0x00,0xc0,0x00,0x30,0x00,0x00,0x0c,0x08,0x00,0x00,0x03,0x00,0x00,0x00,
 0x00,0x00,0x00,0x07,0x00,0x00,0x00,0x00,0x00,0x00,0x00,0x00,0x00,0x10,0x00,
 0xc0,0x00,0x40,0x00,0x00,0x0c,0x08,0x00,0x00,0x03,0x00,0x00,0x00,0x00,0x00,
 0x00,0x38,0x00,0x00,0x00,0x00,0x00,0x00,0x00,0x00,0x00,0x10,0x00,0xc0,0x00,
 0x40,0x00,0x00,0x0c,0x08,0x00,0x00,0x04,0x00,0x00,0x00,0x00,0x00,0x00,0xc0,
 0x01,0x00,0x00,0x00,0x00,0x00,0x00,0x00,0x00,0x18,0x00,0xc0,0x00,0x40,0x00,
 0x00,0x0c,0x08,0x00,0x00,0x04,0x00,0x00,0x00,0x00,0x00,0x00,0xc0,0x01,0x00,
 0x00,0x00,0x00,0x00,0x00,0x00,0x00,0x18,0x00,0xc0,0x00,0x80,0x01,0x00,0x0c,
 0x08,0x00,0x00,0x04,0x0c,0x00,0x00,0x00,0x00,0x00,0x00,0x06,0x00,0x00,0x00,
 0x00,0x00,0x00,0x00,0x00,0x07,0x00,0xc0,0x00,0x00,0x02,0x00,0x0c,0x08,0x00,
 0x00,0x04,0x73,0x00,0x00,0x00,0x00,0x00,0x00,0x18,0x00,0x00,0x00,0x00,0x00,
 0x00,0x00,0xe0,0x00,0x00,0xc0,0x00,0x00,0x0c,0x00,0x02,0x08,0x00,0x00,0xc4,
 0x80,0x00,0x00,0x00,0x00,0x00,0x00,0xe0,0x00,0x00,0x00,0x00,0x00,0x00,0x00,
 0x1c,0x00,0x00,0xc0,0x00,0x00,0x0c,0x00,0x02,0x08,0x00,0x00,0xc4,0x80,0x00,
 0x00,0x00,0x00,0x00,0x00,0xe0,0x00,0x00,0x00,0x00,0x00,0x00,0x00,0x1c,0x00,
 0x00,0xc0,0x00,0x00,0x10,0x00,0x02,0x08,0x00,0x00,0x3c,0x00,0x07,0x00,0x00,
 0x00,0x00,0x00,0x00,0x07,0x00,0x00,0x00,0x00,0x00,0x00,0x38,0x00,0x00,0xc0,
 0x00,0x00,0x60,0x80,0x01,0x08,0x00,0x00,0x04,0x00,0x38,0x00,0x00,0x00,0x00,
 0x00,0x00,0x18,0x00,0x00,0x00,0x00,0x00,0x00,0xc0,0x00,0x00,0xc0,0x00,0x00,
 0x60,0x80,0x01,0x08,0x00,0x00,0x04,0x00,0x38,0x00,0x00,0x00,0x00,0x00,0x00,
 0x18,0x00,0x00,0x00,0x00,0x00,0x00,0xc0,0x00,0x00,0x00,0x01,0x00,0x80,0x40,
 0x00,0x08,0x00,0x00,0x3c,0x00,0x40,0x00,0x00,0x00,0x00,0x00,0x00,0xe0,0x00,
 0x00,0x00,0x00,0x00,0x00,0x00,0x07,0x00,0x00,0x01,0x00,0x00,0x3f,0x00,0x08,
 0x00,0x00,0xc4,0x01,0x78,0x00,0x30,0x00,0x00,0x00,0x00,0x00,0x03,0x00,0x00,
 0x00,0x00,0x00,0x00,0x08,0x00,0x00,0x01,0x00,0x00,0x3f,0x00,0x08,0x00,0x00,
 0xc4,0x01,0x78,0x00,0x30,0x00,0x00,0x00,0x00,0x00,0x03,0x00,0x00,0x00,0x00,
 0x00,0x00,0x08,0x00,0x00,0x02,0x00,0x00,0x00,0x00,0x08,0x00,0x00,0x04,0x0e,
 0x47,0x00,0xc8,0x0f,0x00,0x00,0x00,0x00,0x1c,0x00,0x00,0x00,0x00,0x00,0x00,
 0x70,0x00,0x00,0x02,0x00,0x00,0x00,0x00,0x08,0x00,0x00,0x04,0xf0,0x40,0x00,
 0x86,0x13,0x00,0x00,0x00,0x00,0x60,0x00,0x00,0x00,0x00,0x00,0x00,0x80,0x00,
 0x00,0x02,0x00,0x00,0x00,0x00,0x08,0x00,0x00,0x04,0xf0,0x40,0x00,0x86,0x13,
 0x00,0x00,0x00,0x00,0x60,0x00,0x00,0x00,0x00,0x00,0x00,0x80,0x00,0x00,0x1c,
 0x00,0x00,0x00,0x00,0x08,0x00,0x00,0x04,0x60,0x40,0x00,0x46,0x20,0x00,0x00,
 0x00,0x00,0x80,0x03,0x00,0x00,0x00,0x00,0x00,0xf0,0x00,0x00,0xe0,0x00,0x00,
 0x00,0x00,0x08,0x00,0x00,0x04,0x60,0x40,0x00,0x31,0xc0,0x00,0x00,0x00,0x00,
 0x00,0x0c,0x00,0x00,0x00,0x00,0x00,0x8e,0x00,0x00,0x00,0x07,0x00,0x00,0x00,
 0x08,0x00,0x00,0x04,0x60,0x40,0x00,0x0f,0x00,0x01,0x00,0x00,0x00,0x00,0x70,
 0x00,0x00,0x00,0x00,0xc0,0x81,0x00,0x00,0x00,0x07,0x00,0x00,0x00,0x08,0x00,
 0x00,0x04,0x60,0x40,0x00,0x0f,0x00,0x01,0x00,0x00,0x00,0x00,0x70,0x00,0x00,
 0x00,0x00,0xc0,0x81,0x00,0x00,0x00,0x38,0x00,0x00,0x00,0x08,0x00,0x00,0x04,
 0x60,0x40,0x00,0x01,0x00,0x06,0x00,0x00,0x00,0x00,0x80,0x01,0x00,0x00,0x00,
 0x20,0x80,0x00,0x00,0x00,0x40,0x00,0x00,0x00,0x08,0x00,0x00,0x04,0x60,0x40,
 0x00,0x01,0x00,0x08,0x00,0x00,0x00,0x00,0x70,0x00,0x00,0x00,0x00,0x1c,0x80,
 0x00,0x00,0x00,0x40,0x00,0x00,0x00,0x08,0x00,0x00,0x04,0x60,0x40,0x00,0x01,
 0x00,0x08,0x00,0x00,0x00,0x00,0x70,0x00,0x00,0x00,0x00,0x1c,0x80,0x00,0x00,
 0x00,0x80,0x03,0x00,0x00,0x08,0x00,0x00,0x04,0x60,0x40,0x00,0x01,0x00,0x08,
 0x00,0x00,0x00,0x00,0x08,0x00,0x00,0x00,0x80,0x03,0x80,0x00,0x00,0x00,0x00,
 0x1c,0x00,0x00,0x08,0x00,0x00,0x04,0x60,0x40,0x00,0x01,0x00,0x30,0x00,0x00,
 0x00,0x00,0x07,0x80,0x00,0x00,0x70,0x00,0x80,0x00,0x00,0x00,0x00,0x1c,0x00,
 0x00,0x08,0x00,0x00,0x04,0x60,0x40,0x00,0x01,0x00,0x30,0x00,0x00,0x00,0x00,
 0x07,0x80,0x00,0x00,0x70,0x00,0x80,0x00,0x00,0x00,0x00,0xe0,0x00,0x00,0x08,
 0x00,0x80,0x07,0x60,0x40,0x00,0x01,0x00,0x30,0x00,0x00,0x00,0x80,0x00,0xf0,
 0x07,0x00,0x08,0x00,0x80,0x00,0x00,0x00,0x00,0x00,0x07,0x00,0x08,0x00,0x70,
 0x04,0x60,0x40,0x00,0x01,0x00,0x70,0x00,0x00,0x00,0x80,0x07,0x8c,0x08,0x00,
 0x07,0x00,0x80,0x00,0x00,0x00,0x00,0x00,0x38,0x00,0x08,0x00,0x0e,0x04,0x60,
 0x40,0x00,0x01,0x00,0x4e,0x00,0x00,0x00,0x80,0xb8,0x83,0x30,0xe0,0x00,0x3c,
 0x80,0x00,0x00,0x00,0x00,0x00,0x38,0x00,0x08,0x00,0x0e,0x04,0x60,0x40,0x00,
 0x01,0x00,0x4e,0x00,0x00,0x00,0x80,0xb8,0x83,0x30,0xe0,0x00,0x3c,0x80,0x00,
 0x00,0x00,0x00,0x00,0x40,0x00,0x08,0x00,0x01,0x04,0x60,0x40,0x00,0x01,0xc0,
 0x41,0x00,0xf0,0x00,0x80,0x40,0x80,0xc0,0x1d,0x00,0xc3,0x80,0x00,0x00,0x00,
 0x00,0x00,0x80,0x03,0x08,0xe0,0x00,0x04,0x60,0x40,0x00,0x01,0x30,0x40,0x00,
 0x08,0x07,0x80,0x40,0x80,0x00,0x02,0xc0,0x00,0x81,0x00,0x00,0x00,0x00,0x00,
 0x80,0x03,0x08,0xe0,0x00,0x04,0x60,0x40,0x00,0x01,0x30,0x40,0x00,0x08,0x07,
 0x80,0x40,0x80,0x00,0x02,0xc0,0x00,0x81,0x00,0x00,0x00,0x00,0x00,0x00,0x1c,
 0x08,0x1c,0x00,0x04,0x60,0x40,0x00,0x01,0x0c,0x40,0x00,0x86,0x1b,0x80,0x40,
 0x80,0x00,0x02,0x40,0x00,0x86,0x00,0x00,0x00,0x00,0x00,0x00,0xe0,0x88,0x03,
 0x00,0x04,0x60,0x40,0x00,0x81,0x03,0x40,0x00,0x61,0x20,0x80,0x40,0x80,0x00,
 0x02,0x30,0x00,0x86,0x00,0x00,0x00,0x00,0x00,0x00,0xe0,0x88,0x03,0x00,0x04,
 0x60,0x40,0x00,0x81,0x03,0x40,0x00,0x61,0x20,0x80,0x40,0x80,0x00,0x02,0x30,
 0x00,0x86,0x00,0x00,0x00,0x00,0x00,0x00,0x00,0x7f,0x00,0x00,0x04,0x60,0x40,
 0x00,0x71,0x00,0x40,0x00,0x11,0xc0,0x80,0x40,0x80,0x00,0x02,0x08,0x00,0x86,
 0x00,0x00,0x00,0x00,0x00,0x00,0x00,0x08,0x00,0x00,0x04,0x60,0x40,0x00,0x0f,
 0x00,0x40,0x00,0x0f,0x00,0x81,0x40,0x80,0x00,0x02,0x06,0x00,0x86,0x00,0x00,
 0x00,0x00,0x00,0x00,0x00,0x08,0x00,0x00,0x04,0x60,0x40,0x00,0x0f,0x00,0x40,
 0x00,0x0f,0x00,0x81,0x40,0x80,0x00,0x02,0x06,0x00,0x86,0x00,0x00,0x00,0x00,
 0x00,0x00,0x00,0x00,0x00,0x00,0x04,0x60,0x40,0x00,0x01,0x00,0x40,0x00,0x01,
 0x00,0x82,0x40,0x80,0x00,0x02,0x06,0x00,0x86,0x00,0x00,0x00,0x00,0x00,0x00,
 0x00,0x00,0x00,0x00,0x04,0x60,0x40,0x00,0x01,0x00,0x40,0x00,0x01,0x00,0x8c,
 0x40,0x80,0x00,0x02,0x01,0x00,0x86,0x00,0x00,0x00,0x00,0x00,0x00,0x00,0x00,
 0x00,0x00,0x04,0x60,0x40,0x00,0x01,0x00,0x40,0x00,0x01,0x00,0x90,0x40,0x80,
 0x00,0x02,0x01,0x00,0x81,0x00,0x00,0x00,0x00,0x00,0x00,0x00,0x00,0x00,0x00,
 0x04,0x60,0x40,0x00,0x01,0x00,0x40,0x00,0x01,0x00,0x90,0x40,0x80,0x00,0x02,
 0x01,0x00,0x81,0x00,0x00,0x00,0x00,0x00,0x00,0x00,0x00,0x00,0x00,0x04,0x60,
 0x40,0x00,0x01,0x00,0x40,0x00,0x01,0x00,0x90,0x40,0x80,0x00,0x02,0x01,0x00,
 0x81,0x00,0x00,0x00,0x00,0x00,0x00,0x00,0x00,0x00,0x00,0x04,0x60,0x40,0x00,
 0x06,0x00,0x40,0x00,0x01,0x00,0x90,0x40,0x80,0x00,0x02,0x01,0xc0,0x80,0x00,
 0x00,0x00,0x00,0x00,0x00,0x00,0x00,0x00,0x00,0x04,0x60,0x40,0x00,0x06,0x00,
 0x40,0x00,0x01,0x00,0x90,0x40,0x80,0x00,0x02,0x01,0xc0,0x80,0x00,0x00,0x00,
 0x00,0x00,0x00,0x00,0x00,0x00,0x00,0x04,0x60,0x40,0x00,0x06,0x00,0x40,0x00,
 0x01,0x00,0xf0,0x40,0x80,0x00,0x02,0x01,0x20,0x80,0x00,0x00,0x00,0x00,0x00,
 0x00,0x00,0x00,0x00,0x00,0x04,0x60,0x40,0x00,0x06,0x00,0x40,0x00,0x01,0x00,
 0xee,0x40,0x80,0x00,0x02,0x01,0x18,0x80,0x00,0x00,0x00,0x00,0x00,0x00,0x00,
 0x00,0x00,0x00,0x04,0x60,0x40,0x00,0x06,0x00,0x40,0x00,0x01,0x00,0xee,0x40,
 0x80,0x00,0x02,0x01,0x18,0x80,0x00,0x00,0x00,0x00,0x00,0x00,0x00,0x00,0x00,
 0x00,0x04,0x60,0x40,0x00,0x08,0x00,0x40,0x00,0x01,0xc0,0xe1,0x40,0x80,0x00,
 0x02,0x01,0x04,0x80,0x00,0x00,0x00,0x00,0x00,0x00,0x00,0x00,0x00,0x00,0x04,
 0x60,0x40,0x00,0x08,0x00,0x40,0x00,0x01,0x20,0xe0,0x40,0x80,0x00,0x02,0x01,
 0x03,0x70,0x00,0x00,0x00,0x00,0x00,0x00,0x00,0x00,0x00,0x00,0x04,0x60,0x40,
 0x00,0x08,0x00,0x40,0x00,0x01,0x20,0xe0,0x40,0x80,0x00,0x02,0x01,0x03,0x70,
 0x00,0x00,0x00,0x00,0x00,0x00,0x00,0x00,0x00,0x00,0x04,0x60,0x40,0x00,0x30,
 0x00,0x40,0x00,0x01,0x1c,0xe0,0x40,0x80,0x00,0x02,0xfe,0x00,0x0e,0x00,0x00,
 0x00,0x00,0x00,0x00,0x00,0x00,0x00,0x00,0x04,0x60,0x40,0x00,0x30,0x00,0x40,
 0x00,0x81,0x03,0xe0,0x40,0x80,0x00,0x02,0x00,0xc0,0x01,0x00,0x00,0x00,0x00,
 0x00,0x00,0x00,0x00,0x00,0x00,0x04,0x60,0x40,0x00,0x40,0x00,0x40,0x00,0x71,
 0x00,0xe0,0x40,0x80,0x00,0x02,0x00,0x20,0x00,0x00,0x00,0x00,0x00,0x00,0x00,
 0x00,0x00,0x00,0x00,0x04,0x60,0x40,0x00,0x40,0x00,0x40,0x00,0x71,0x00,0xe0,
 0x40,0x80,0x00,0x02,0x00,0x20,0x00,0x00,0x00,0x00,0x00,0x00,0x00,0x00,0x00,
 0x00,0x00,0x04,0x60,0x40,0x00,0x80,0x01,0x40,0x00,0x0f,0x00,0xe0,0x40,0x80,
 0x00,0x02,0x00,0x1c,0x00,0x00,0x00,0x00,0x00,0x00,0x00,0x00,0x00,0x00,0x00,
 0x04,0x60,0x40,0x00,0x00,0x02,0x30,0x00,0x01,0x00,0x60,0x47,0x7c,0x00,0x02,
 0x80,0x03,0x00,0x00,0x00,0x00,0x00,0x00,0x00,0x00,0x00,0x00,0x00,0x04,0x60,
 0x40,0x00,0x00,0x02,0x30,0x00,0x01,0x00,0x60,0x47,0x7c,0x00,0x02,0x80,0x03,
 0x00,0x00,0x00,0x00,0x00,0x00,0x00,0x00,0x00,0x00,0x00,0x04,0x60,0x40,0x00,
 0x00,0x3c,0x08,0x00,0x01,0x00,0x60,0x78,0x7e,0x00,0x02,0x70,0x00,0x00,0x00,
 0x00,0x00,0x00,0x00,0x00,0x00,0x00,0x00,0x00,0x04,0x60,0x40,0x00,0x00,0xc0,
 0x07,0x00,0x01,0x00,0x60,0xc0,0x8d,0x01,0x02,0x08,0x00,0x00,0x00,0x00,0x00,
 0x00,0x00,0x00,0x00,0x00,0x00,0x00,0x04,0x60,0x40,0x00,0x00,0xc0,0x07,0x00,
 0x01,0x00,0x60,0xc0,0x8d,0x01,0x02,0x08,0x00,0x00,0x00,0x00,0x00,0x00,0x00,
 0x00,0x00,0x00,0x00,0x00,0x04,0x60,0x40,0x00,0x00,0x00,0x00,0x00,0x01,0x00,
 0x60,0x00,0x0c,0x06,0x02,0x07,0x00,0x00,0x00,0x00,0x00,0x00,0x00,0x00,0x00,
 0x00,0x00,0x00,0x38,0x60,0xb8,0x03,0x00,0x00,0x00,0x00,0x06,0x00,0x60,0x00,
 0x0c,0x38,0xe2,0x00,0x00,0x00,0x00,0x00,0x00,0x00,0x00,0x00,0x00,0x00,0x00,
 0x00,0xc0,0x61,0x04,0x1c,0x00,0x00,0x00,0x00,0x06,0x00,0x60,0x00,0x0c,0xc0,
 0x1f,0x00,0x00,0x00,0x00,0x00,0x00,0x00,0x00,0x00,0x00,0x00,0x00,0x00,0xc0,
 0x61,0x04,0x1c,0x00,0x00,0x00,0x00,0x06,0x00,0x60,0x00,0x0c,0xc0,0x1f,0x00,
 0x00,0x00,0x00,0x00,0x00,0x00,0x00,0x00,0x00,0x00,0x00,0x00,0x00,0xee,0x03,
 0x60,0x00,0x00,0x00,0x00,0x06,0x00,0x60,0x00,0x0c,0x00,0x0e,0x00,0xc0,0x00,
 0x00,0x00,0x00,0x00,0x00,0x00,0x00,0x00,0x00,0x00,0x00,0x70,0x00,0x80,0x01,
 0x00,0x00,0x00,0x08,0x00,0x60,0x00,0x0c,0x00,0x0c,0x00,0xc0,0x00,0x00,0x00,
 0x00,0x00,0x00,0x00,0x00,0x00,0x00,0x00,0x00,0x70,0x00,0x80,0x01,0x00,0x00,
 0x00,0x08,0x00,0x60,0x00,0x0c,0x00,0x0c,0x00,0xc0,0x00,0x00,0x00,0x00,0x00,
 0x00,0x00,0x00,0x00,0x00,0x00,0x00,0x00,0x00,0x00,0x0e,0x00,0x00,0x00,0x08,
 0x00,0x60,0x00,0x0c,0x00,0x0c,0x00,0x20,0x00,0x00,0x00,0x00,0x00,0x00,0x00,
 0x00,0x00,0x00,0x00,0x00,0x00,0x00,0x00,0x70,0x00,0x00,0x00,0x10,0x00,0x60,
 0x00,0x0c,0x00,0x0c,0x00,0x20,0x00,0x00,0x00,0x00,0x00,0x00,0x00,0x00,0x00,
 0x00,0x00,0x00,0x00,0x00,0x00,0x70,0x00,0x00,0x00,0x10,0x00,0x60,0x00,0x0c,
 0x00,0x0c,0x00,0x20,0x00,0x00,0x00,0x00,0x00,0x00,0x00,0x00,0x00,0x00,0x00,
 0x00,0x00,0x00,0x00,0x80,0x01,0x00,0x00,0x10,0x00,0x60,0x00,0x0c,0x00,0x0c,
 0x00,0x20,0x00,0x00,0x00,0x00,0x00,0x00,0x00,0x00,0x00,0x00,0x00,0x00,0x00,
 0x00,0x00,0x00,0x0e,0x00,0x00,0x60,0x00,0x60,0x00,0x0c,0x00,0x0c,0x00,0x20,
 0x00,0x00,0x00,0x00,0x00,0x00,0x00,0x00,0x00,0x00,0x00,0x00,0x00,0x00,0x00,
 0x00,0x0e,0x00,0x00,0x60,0x00,0x60,0x00,0x0c,0x00,0x0c,0x00,0x20,0x00,0x00,
 0x00,0x00,0x00,0x00,0x00,0x00,0x00,0x00,0x00,0x00,0x00,0x00,0x00,0x00,0x30,
 0x00,0x00,0x80,0x00,0x60,0x00,0x0c,0x00,0x0c,0x00,0x18,0x00,0x00,0x00,0x00,
 0x00,0x00,0x00,0x00,0x00,0x00,0x00,0x00,0x00,0x00,0x00,0x00,0xc0,0x00,0x00,
 0x00,0x07,0x10,0x00,0x0c,0x00,0x0c,0x00,0x18,0x00,0x00,0x00,0x00,0x00,0x00,
 0x00,0x00,0x00,0x00,0x00,0x00,0x00,0x00,0x00,0x00,0x00,0x07,0x00,0x00,0xf8,
 0x0f,0x00,0x0c,0x00,0x0c,0x00,0x04,0x00,0x00,0x00,0x00,0x00,0x00,0x00,0x00,
 0x00,0x00,0x00,0x00,0x00,0x00,0x00,0x00,0x00,0x07,0x00,0x00,0xf8,0x0f,0x00,
 0x0c,0x00,0x0c,0x00,0x04,0x00,0x00,0x00,0x00,0x00,0x00,0x00,0x00,0x00,0x00,
 0x00,0x00,0x00,0x00,0x00,0x00,0x00,0x38,0x00,0x00,0x00,0x00,0x00,0x0c,0x00,
 0x0c,0x00,0x04,0x00,0x00,0x00,0x00,0x00,0x00,0x00,0x00,0x00,0x00,0x00,0x00,
 0x00,0x00,0x00,0x00,0x00,0x40,0x00,0x00,0x00,0x00,0x00,0x0c,0x00,0x0c,0x00,
 0x03,0x00,0x00,0x00,0x00,0x00,0x00,0x00,0x00,0x00,0x00,0x00,0x00,0x00,0x00,
 0x00,0x00,0x00,0x40,0x00,0x00,0x00,0x00,0x00,0x0c,0x00,0x0c,0x00,0x03,0x00,
 0x00,0x00,0x00,0x00,0x00,0x00,0x00,0x00,0x00,0x00,0x00,0x00,0x00,0x00,0x00,
 0x00,0x80,0x03,0x00,0x00,0x00,0x00,0x0c,0x00,0x0c,0x00,0x03,0x00,0x00,0x00,
 0x00,0x00,0x00,0x00,0x00,0x00,0x00,0x00,0x00,0x00,0x00,0x00,0x00,0x00,0x00,
 0x1c,0x00,0x00,0x00,0x00,0x0c,0x00,0x0c,0x80,0x00,0x00,0x00,0x00,0x00,0x00,
 0x00,0x00,0x00,0x00,0x00,0x00,0x00,0x00,0x00,0x00,0x00,0x00,0x00,0x1c,0x00,
 0x00,0x00,0x00,0x0c,0x00,0x0c,0x80,0x00,0x00,0x00,0x00,0x00,0x00,0x00,0x00,
 0x00,0x00,0x00,0x00,0x00,0x00,0x00,0x00,0x00,0x00,0x00,0xe0,0x00,0x00,0x00,
 0x00,0x0c,0x00,0x0c,0x80,0x00,0x00,0x00,0x00,0x00,0x00,0x00,0x00,0x00,0x00,
 0x00,0x00,0x00,0x00,0x00,0x00,0x00,0x00,0x00,0x00,0x01,0x00,0x00,0x00,0x0c,
 0x00,0x0c,0x40,0x00,0x00,0x00,0x00,0x00,0x00,0x00,0x00,0x00,0x00,0x00,0x00,
 0x00,0x00,0x00,0x00,0x00,0x00,0x00,0x00,0x01,0x00,0x00,0x00,0x0c,0x00,0x0c,
 0x40,0x00,0x00,0x00,0x00,0x00,0x00,0x00,0x00,0x00,0x00,0x00,0x00,0x00,0x00,
 0x00,0x00,0x00,0x00,0x00,0x00,0x0e,0x00,0x00,0x00,0x0c,0x00,0x0c,0x38,0x00,
 0x00,0x00,0x00,0x00,0x00,0x00,0x00,0x00,0x00,0x00,0x00,0x00,0x00,0x00,0x00,
 0x00,0x00,0x00,0x00,0x70,0x00,0x00,0x00,0x0c,0x00,0x0c,0x06,0x00,0x00,0x00,
 0x00,0x00,0x00,0x00,0x00,0x00,0x00,0x00,0x00,0x00,0x00,0x00,0x00,0x00,0x00,
 0x00,0x00,0x80,0x00,0x00,0x00,0x0c,0x00,0xcc,0x01,0x00,0x00,0x00,0x00,0x00,
 0x00,0x00,0x00,0x00,0x00,0x00,0x00,0x00,0x00,0x00,0x00,0x00,0x00,0x00,0x00,
 0x80,0x00,0x00,0x00,0x0c,0x00,0xcc,0x01,0x00,0x00,0x00,0x00,0x00,0x00,0x00,
 0x00,0x00,0x00,0x00,0x00,0x00,0x00,0x00,0x00,0x00,0x00,0x00,0x00,0x00,0x07,
 0x00,0x00,0x0c,0x00,0x3c,0x00,0x00,0x00,0x00,0x00,0x00,0x00,0x00,0x00,0x00,
 0x00,0x00,0x00,0x00,0x00,0x00,0x00,0x00,0x00,0x00,0x00,0x00,0x38,0x00,0x00,
 0x0c,0x00,0x0c,0x00,0x00,0x00,0x00,0x00,0x00,0x00,0x00,0x00,0x00,0x00,0x00,
 0x00,0x00,0x00,0x00,0x00,0x00,0x00,0x00,0x00,0x00,0x38,0x00,0x00,0x0c,0x00,
 0x0c,0x00,0x00,0x00,0x00,0x00,0x00,0x00,0x00,0x00,0x00,0x00,0x00,0x00,0x00,
 0x00,0x00,0x00,0x00,0x00,0x00,0x00,0x00,0xc0,0x00,0x00,0x0c,0x80,0x03,0x00,
 0x00,0x00,0x00,0x00,0x00,0x00,0x00,0x00,0x00,0x00,0x00,0x00,0x00,0x00,0x00,
 0x00,0x00,0x00,0x00,0x00,0x00,0x00,0x03,0x00,0x0c,0x40,0x00,0x00,0x00,0x00,
 0x00,0x00,0x00,0x00,0x00,0x00,0x00,0x00,0x00,0x00,0x00,0x00,0x00,0x00,0x00,
 0x00,0x00,0x00,0x00,0x00,0x03,0x00,0x0c,0x40,0x00,0x00,0x00,0x00,0x00,0x00,
 0x00,0x00,0x00,0x00,0x00,0x00,0x00,0x00,0x00,0x00,0x00,0x00,0x00,0x00,0x00,
 0x00,0x00,0x00,0x1c,0x00,0x0c,0x38,0x00,0x00,0x00,0x00,0x00,0x00,0x00,0x00,
 0x00,0x00,0x00,0x00,0x00,0x00,0x00,0x00,0x00,0x00,0x00,0x00,0x00,0x00,0x00,
 0x00,0xe0,0x00,0x0c,0x07,0x00,0x00,0x00,0x00,0x00,0x00,0x00,0x00,0x00,0x00,
 0x00,0x00,0x00,0x00,0x00,0x00,0x00,0x00,0x00,0x00,0x00,0x00,0x00,0x00,0x00,
 0x03,0x8c,0x00,0x00,0x00,0x00,0x00,0x00,0x00,0x00,0x00,0x00,0x00,0x00,0x00,
 0x00,0x00,0x00,0x00,0x00,0x00,0x00,0x00,0x00,0x00,0x00,0x00,0x00,0x03,0x8c,
 0x00,0x00,0x00,0x00,0x00,0x00,0x00,0x00,0x00,0x00,0x00,0x00,0x00,0x00,0x00,
 0x00,0x00,0x00,0x00,0x00,0x00,0x00,0x00,0x00,0x00,0x00,0x0c,0x7c,0x00,0x00,
 0x00,0x00,0x00,0x00,0x00,0x00,0x00,0x00,0x00,0x00,0x00,0x00,0x00,0x00,0x00,
 0x00,0x00,0x00,0x00,0x00,0x00,0x00,0x00,0x00,0x70,0x0c,0x00,0x00,0x00,0x00,
 0x00,0x00,0x00,0x00,0x00,0x00,0x00,0x00,0x00,0x00,0x00,0x00,0x00,0x00,0x00,
 0x00,0x00,0x00,0x00,0x00,0x00,0x00,0x70,0x0c,0x00,0x00,0x00,0x00,0x00,0x00,
 0x00,0x00,0x00,0x00,0x00,0x00,0x00,0x00,0x00,0x00,0x00,0x00,0x00,0x00,0x00,
 0x00,0x00,0x00,0x00,0x00,0x80,0x03,0x00,0x00,0x00,0x00,0x00,0x00,0x00,0x00,
 0x00,0x00,0x00,0x00,0x00,0x00,0x00,0x00,0x00,0x00,0x00,0x00,0x00,0x00,0x00,
 0x00,0x00,0x00,0x00,0x00,0x00,0x00,0x00,0x00,0x00,0x00,0x00,0x00,0x00,0x00,
 0x00,0x00,0x00,0x00,0x00,0x00,0x00,0x00,0x00,0x00,0x00,0x00,0x00,0x00,0x00,
 0x00,0x00,0x00,0x00,0x00,0x00,0x00,0x00,0x00,0x00,0x00,0x00,0x00,0x00,0x00,
 0x00,0x00,0x00,0x00,0x00,0x00,0x00,0x00,0x00,0x00,0x00,0x00,0x00,0x00,0x00,
 0x00,0x00,0x00,0x00,0x00,0x00,0x00,0x00,0x00,0x00,0x00,0x00,0x00,0x00,0x00,
 0x00,0x00,0x00,0x00,0x00,0x00,0x00,0x00,0x00,0x00,0x00,0x00,0x00,0x00,0x00,
 0x00,0x00,0x00,0x00,0x00,0x00,0x00,0x00,0x00,0x00,0x00,0x00,0x00,0x00,0x00,
 0x00,0x00,0x00,0x00,0x00,0x00,0x00,0x00,0x00,0x00,0x00,0x00,0x00,0x00,0x00,
 0x00,0x00,0x00,0x00,0x00,0x00,0x00,0x00,0x00,0x00,0x00,0x00,0x00,0x00,0x00,
 0x00,0x00,0x00,0x00,0x00,0x00,0x00,0x00,0x00,0x00,0x00,0x00,0x00,0x00,0x00,
 0x00,0x00,0x00,0x00,0x00,0x00,0x00,0x00,0x00,0x00,0x00,0x00,0x00,0x00,0x00,
 0x00,0x00,0x00,0x00,0x00,0x00,0x00,0x00,0x00,0x00,0x00,0x00,0x00,0x00,0x00,
 0x00,0x00,0x00,0x00,0x00,0x00,0x00,0x00,0x00,0x00,0x00,0x00,0x00,0x00,0x00,
 0x00,0x00,0x00,0x00,0x00,0x00,0x00,0x00,0x00,0x00,0x00,0x00,0x00,0x00,0x00,
 0x00,0x00,0x00,0x00,0x00,0x00,0x00,0x00,0x00,0x00,0x00,0x00,0x00,0x00,0x00,
 0x00,0x00,0x00,0x00,0x00,0x00,0x00,0x00,0x00,0x00,0x00,0x00,0x00,0x00,0x00,
 0x00,0x00,0x00,0x00,0x00,0x00,0x00,0x00,0x00,0x00,0x00,0x00,0x00,0x00,0x00,
 0x00,0x00,0x00,0x00,0x00,0x00,0x00,0x00,0x00,0x00,0x00,0x00,0x00,0x00,0x00,
 0x00,0x00,0x00,0x00,0x00,0x00,0x00,0x00,0x00,0x00,0x00,0x00,0x00,0x00,0x00,
 0x00,0x00,0x00,0x00,0x00,0x00,0x00,0x00,0x00,0x00,0x00,0x00,0x00,0x00,0x00,
 0x00,0x00,0x00,0x00,0x00,0x00,0x00,0x00,0x00,0x00,0x00,0x00,0x00,0x00,0x00,
 0x00,0x00,0x00,0x00,0x00,0x00,0x00,0x00,0x00,0x00,0x00,0x00,0x00,0x00,0x00,
 0x00,0x00,0x00,0x00,0x00,0x00,0x00,0x00,0x00,0x00,0x00,0x00,0x00,0x00,0x00,
 0x00,0x00,0x00,0x00,0x00,0x00,0x00,0x00,0x00,0x00,0x00,0x00,0x00,0x00,0x00,
 0x00,0x00,0x00,0x00,0x00,0x00,0x00,0x00,0x00,0x00,0x00,0x00,0x00,0x00,0x00,
 0x00,0x00,0x00,0x00,0x00,0x00,0x00,0x00,0x00,0x00,0x00,0x00,0x00,0x00,0x00,
 0x00,0x00,0x00,0x00,0x00,0x00,0x00,0x00,0x00,0x00,0x00,0x00,0x00,0x00,0x00,
 0x00,0x00,0x00,0x00,0x00,0x00,0x00,0x00,0x00,0x00,0x00,0x00,0x00,0x00,0x00,
 0x00,0x00,0x00,0x00,0x00,0x00,0x00,0x00,0x00,0x00,0x00,0x00,0x00,0x00,0x00,
 0x00,0x00,0x00,0x00,0x00,0x00,0x00,0x00,0x00,0x00,0x00,0x00,0x00,0x00,0x00,
 0x00,0x00,0x00,0x00,0x00,0x00,0x00,0x00,0x00,0x00,0x00,0x00,0x00,0x00,0x00,
 0x00,0x00,0x00,0x00,0x00,0x00,0x00,0x00,0x00,0x00,0x00,0x00,0x00,0x00,0x00,
 0x00,0x00,0x00,0x00,0x00,0x00,0x00,0x00,0x00,0x00,0x00,0x00,0x00,0x00,0x00,
 0x00,0x00,0x00,0x00,0x00,0x00,0x00,0x00,0x00,0x00,0x00,0x00,0x00,0x00,0x00,
 0x00,0x00,0x00,0x00,0x00,0x00,0x00,0x00,0x00,0x00,0x00,0x00,0x00,0x00,0x00,
 0x00,0x00,0x10,0x00,0x00,0x00,0x00,0x00,0x00,0x00,0x00,0x00,0x00,0x00,0x00,
 0x00,0x00,0x00,0x00,0x00,0x00,0x00,0x00,0x00,0x00,0x00,0x00,0x00,0x00,0x00,
 0x00,0x00,0x00,0x00,0x00,0x00,0x00,0x00,0x00,0x00,0x00,0x00,0x00,0x00,0x00,
 0x00,0x00,0x00,0x00,0x00,0x00,0x00,0x00,0x00,0x00,0x00,0x00,0x00,0x00,0x00,
 0x00,0x00,0x00,0x00,0x00,0x00,0x00,0x00,0x00,0x00,0x00,0x00,0x00,0x00,0x00,
 0x00,0x00,0x00,0x00,0x00,0x00,0x00,0x00,0x00,0x00,0x00,0x00,0x00,0x00,0x00,
 0x00,0x00,0x00,0x00,0x00,0x00,0x00,0x00,0x00,0x00,0x00,0x00,0x00,0x00,0x00,
 0x00,0x00,0x00,0x00,0x00,0x00,0x00,0x1e,0x7b,0x10,0x3f,0xfc,0xf0,0xc3,0x06,
 0x00,0x00,0x00,0x00,0x00,0x00,0x00,0x00,0x00,0x00,0x00,0x00,0x00,0x00,0x00,
 0x00,0x00,0x00,0x00,0x00,0x1e,0x7b,0x10,0x3f,0xfc,0xf0,0xc3,0x06,0x00,0x00,
 0x00,0x00,0x00,0x00,0x00,0x00,0x00,0x00,0x00,0x00,0x00,0x00,0x00,0x00,0x00,
 0x00,0x00,0x00,0x61,0x87,0x11,0x41,0x0c,0x09,0xc4,0x01,0x00,0x00,0x00,0x00,
 0x00,0x00,0x00,0x00,0x00,0x00,0x00,0x00,0x00,0x00,0x00,0x00,0x00,0x00,0x00,
 0x00,0x0f,0x83,0x11,0x41,0x0c,0xf9,0xc7,0x00,0x00,0x00,0x00,0x00,0x00,0x00,
 0x00,0x00,0x00,0x00,0x00,0x00,0x00,0x00,0x00,0x00,0x00,0x00,0x00,0x00,0x0f,
 0x83,0x11,0x41,0x0c,0xf9,0xc7,0x00,0x00,0x00,0x00,0x00,0x00,0x00,0x00,0x00,
 0x00,0x00,0x00,0x00,0x00,0x00,0x00,0x00,0x00,0x00,0x00,0x00,0x70,0x83,0x11,
 0x41,0x0c,0x09,0xc0,0x00,0x00,0x00,0x00,0x00,0x00,0x00,0x00,0x00,0x00,0x00,
 0x00,0x00,0x00,0x00,0x00,0x00,0x00,0x00,0x00,0x00,0x61,0x87,0x11,0x41,0x0c,
 0x09,0xc4,0x00,0x00,0x00,0x00,0x00,0x00,0x00,0x00,0x00,0x00,0x00,0x00,0x00,
 0x00,0x00,0x00,0x00,0x00,0x00,0x00,0x00,0x1e,0x7b,0x10,0x41,0x0c,0xf1,0xc3,
 0x00,0x00,0x00,0x00,0x00,0x00,0x00,0x00,0x00,0x00,0x00,0x00,0x00,0x00,0x00,
 0x00,0x00,0x00,0x00,0x00,0x00,0x1e,0x7b,0x10,0x41,0x0c,0xf1,0xc3,0x00,0x00,
 0x00,0x00,0x00,0x00,0x00,0x00,0x00,0x00,0x00,0x00,0x00,0x00,0x00,0x00,0x00,
 0x00,0x00,0x00,0x00,0x00,0x03,0x00,0x00,0x00,0x00,0x00,0x00,0x00,0x00,0x00,
 0x00,0x00,0x00,0x00,0x00,0x00,0x00,0x00,0x00,0x00,0x00,0x00,0x00,0x00,0x00,
 0x00,0x00,0x00,0x03,0x00,0x00,0x00,0x00,0x00,0x00,0x00,0x00,0x00,0x00,0x00,
 0x00,0x00,0x00,0x00,0x00,0x00,0x00,0x00,0x00,0x00,0x00,0x00,0x00,0x00,0x00,
 0x00,0x03,0x00,0x00,0x00,0x00,0x00,0x00,0x00,0x00,0x00,0x00,0x00,0x00,0x00,
 0x00,0x00,0x00,0x00,0x00,0x00,0x00,0x00,0x00,0x00,0x00,0x00,0x00,0x00,0x03,
 0x00,0x00,0x00,0x00,0x00,0x00,0x00,0x00,0x00,0x00,0x00,0x00,0x00,0x00,0x00};
