600 0 1 0           
99 GICL ACIS Healer - Source: /gicl/data5/repository/ICEM-CDC/Fixture_Models/TBolt49/TBolt49.sat - 6 0 18 ACIS 6.0.3 Solaris 24 Sat Apr 13 23:06:17 2002 
1 9.999999999999999547e-07 1.000000000000000036e-10 
body $-1 $1 $-1 $2 #
lump $-1 $-1 $3 $0 #
transform $-1 1 0 0 0 1 0 0 0 1 0 0 0 1 no_rotate no_reflect no_shear #
shell $-1 $-1 $-1 $4 $-1 $1 #
face $5 $6 $7 $3 $-1 $8 reversed single #
face_name-twe-attrib $-1 $-1 $-1 $4 1 #
face $9 $10 $11 $3 $-1 $12 forward single #
loop $13 $14 $15 $4 #
plane-surface $16 0 0 0 0 -1 0 0 0 -1 forward_v I I I I #
face_name-twe-attrib $-1 $-1 $-1 $6 2 #
face $17 $18 $19 $3 $-1 $20 forward single #
loop $21 $-1 $22 $6 #
plane-surface $23 0 -0.1562000000000000055 0 0 -1 0 0 0 -1 forward_v I I I I #
loop_type-twe-attrib $-1 $-1 $-1 $7 0 #
loop $24 $-1 $25 $4 #
coedge $-1 $26 $27 $28 $29 forward $7 $-1 #
surf-twe-attrib $-1 $-1 $-1 $8 4 #
face_name-twe-attrib $-1 $-1 $-1 $10 3 #
face $30 $31 $32 $3 $-1 $33 forward single #
loop $34 $-1 $28 $10 #
plane-surface $35 -0.2344999999999999862 0 0.2344999999999999862 -1 0 0 0 0 1 forward_v I I I I #
loop_type-twe-attrib $-1 $-1 $-1 $11 0 #
coedge $-1 $36 $37 $38 $39 reversed $11 $-1 #
surf-twe-attrib $-1 $-1 $-1 $12 6 #
loop_type-twe-attrib $-1 $-1 $-1 $14 1 #
coedge $-1 $25 $25 $40 $41 forward $14 $-1 #
coedge $-1 $42 $15 $43 $44 forward $7 $-1 #
coedge $-1 $15 $42 $45 $46 forward $7 $-1 #
coedge $-1 $47 $48 $15 $29 reversed $19 $-1 #
edge $49 $50 -0.4689999999999999725 $51 0 $28 $52 forward 7 unknown #
face_name-twe-attrib $-1 $-1 $-1 $18 4 #
face $53 $54 $55 $3 $-1 $56 forward single #
loop $57 $-1 $45 $18 #
plane-surface $58 -0.2344999999999999862 0 -0.2344999999999999862 0 0 -1 -1 0 0 forward_v I I I I #
loop_type-twe-attrib $-1 $-1 $-1 $19 0 #
surf-twe-attrib $-1 $-1 $-1 $20 10 #
coedge $-1 $59 $22 $60 $61 reversed $11 $-1 #
coedge $-1 $22 $59 $62 $63 reversed $11 $-1 #
coedge $-1 $48 $47 $22 $39 forward $19 $-1 #
edge $64 $65 -0.4689999999999999725 $66 0 $38 $67 forward 7 unknown #
coedge $-1 $40 $40 $25 $41 reversed $68 $-1 #
edge $69 $70 -3.141592653589793116 $70 3.141592653589793116 $40 $71 forward 7 unknown #
coedge $-1 $27 $26 $72 $73 forward $7 $-1 #
coedge $-1 $74 $75 $26 $44 reversed $76 $-1 #
edge $77 $51 -0.4689999999999999725 $78 0 $43 $79 forward 7 unknown #
coedge $-1 $80 $81 $27 $46 reversed $32 $-1 #
edge $82 $83 -0.4689999999999999725 $50 0 $45 $84 forward 7 unknown #
coedge $-1 $38 $28 $81 $85 reversed $19 $-1 #
coedge $-1 $28 $38 $74 $86 forward $19 $-1 #
edge_name-twe-attrib $-1 $-1 $-1 $29 1 8704 #
vertex $-1 $85 $87 #
vertex $-1 $86 $88 #
straight-curve $89 -0.2344999999999999862 0 0.2344999999999999862 0 0 1 I I #
face_name-twe-attrib $-1 $-1 $-1 $31 5 #
face $90 $91 $76 $3 $-1 $92 forward single #
loop $93 $-1 $72 $31 #
plane-surface $94 0.2344999999999999862 0 -0.2344999999999999862 1 0 0 0 0 -1 forward_v I I I I #
loop_type-twe-attrib $-1 $-1 $-1 $32 0 #
surf-twe-attrib $-1 $-1 $-1 $33 18 #
coedge $-1 $37 $36 $95 $96 reversed $11 $-1 #
coedge $-1 $81 $80 $36 $61 forward $32 $-1 #
edge $97 $98 -0.4689999999999999725 $65 0 $60 $99 forward 7 unknown #
coedge $-1 $75 $74 $37 $63 forward $76 $-1 #
edge $100 $66 -0.4689999999999999725 $101 0 $62 $102 forward 7 unknown #
edge_name-twe-attrib $-1 $-1 $-1 $39 2 8704 #
vertex $-1 $85 $103 #
vertex $-1 $86 $104 #
straight-curve $105 -0.2344999999999999862 -0.1562000000000000055 0.2344999999999999862 0 0 1 I I #
loop $106 $-1 $40 $107 #
edge_name-twe-attrib $-1 $-1 $-1 $41 17 4608 #
vertex $-1 $41 $108 #
ellipse-curve $109 0 0 0 0 -1 0 0.1255000000000000004 0 0 1 I I #
coedge $-1 $110 $111 $42 $73 reversed $55 $-1 #
edge $112 $78 -0.4689999999999999725 $83 0 $72 $113 forward 7 unknown #
coedge $-1 $62 $43 $48 $86 reversed $76 $-1 #
coedge $-1 $43 $62 $110 $114 forward $76 $-1 #
loop $115 $-1 $43 $54 #
edge_name-twe-attrib $-1 $-1 $-1 $44 9 8704 #
vertex $-1 $114 $116 #
straight-curve $117 0.2344999999999999862 0 0.2344999999999999862 1 0 0 I I #
coedge $-1 $60 $45 $111 $118 reversed $32 $-1 #
coedge $-1 $45 $60 $47 $85 forward $32 $-1 #
edge_name-twe-attrib $-1 $-1 $-1 $46 3 8704 #
vertex $-1 $118 $119 #
straight-curve $120 -0.2344999999999999862 0 -0.2344999999999999862 -1 0 0 I I #
edge $121 $65 -0.1562000000000000055 $50 0 $81 $122 forward 7 unknown #
edge $123 $66 -0.1562000000000000055 $51 0 $74 $124 forward 7 unknown #
point $-1 -0.2344999999999999862 0 -0.2344999999999999862 #
point $-1 -0.2344999999999999862 0 0.2344999999999999862 #
cur-twe-attrib $-1 $-1 $-1 $52 29 #
face_name-twe-attrib $-1 $-1 $-1 $54 6 #
face $125 $126 $127 $3 $-1 $128 forward single #
plane-surface $129 0.2344999999999999862 0 0.2344999999999999862 0 0 1 1 0 0 forward_v I I I I #
loop_type-twe-attrib $-1 $-1 $-1 $55 0 #
surf-twe-attrib $-1 $-1 $-1 $56 31 #
coedge $-1 $111 $110 $59 $96 forward $55 $-1 #
edge $130 $101 -0.4689999999999999725 $98 0 $95 $131 forward 7 unknown #
edge_name-twe-attrib $-1 $-1 $-1 $61 4 8704 #
vertex $-1 $118 $132 #
straight-curve $133 -0.2344999999999999862 -0.1562000000000000055 -0.2344999999999999862 -1 0 0 I I #
edge_name-twe-attrib $-1 $-1 $-1 $63 11 8704 #
vertex $-1 $114 $134 #
straight-curve $135 0.2344999999999999862 -0.1562000000000000055 0.2344999999999999862 1 0 0 I I #
point $-1 -0.2344999999999999862 -0.1562000000000000055 -0.2344999999999999862 #
point $-1 -0.2344999999999999862 -0.1562000000000000055 0.2344999999999999862 #
cur-twe-attrib $-1 $-1 $-1 $67 39 #
loop_type-twe-attrib $-1 $-1 $-1 $68 1 #
face $136 $-1 $137 $3 $-1 $138 forward single #
point $-1 -0.1255000000000000004 0 0 #
cur-twe-attrib $-1 $-1 $-1 $71 41 #
coedge $-1 $95 $72 $75 $114 reversed $55 $-1 #
coedge $-1 $72 $95 $80 $118 forward $55 $-1 #
edge_name-twe-attrib $-1 $-1 $-1 $73 6 8704 #
straight-curve $139 0.2344999999999999862 0 -0.2344999999999999862 0 0 -1 I I #
edge $140 $101 -0.1562000000000000055 $78 0 $75 $141 forward 7 unknown #
loop_type-twe-attrib $-1 $-1 $-1 $76 0 #
point $-1 0.2344999999999999862 0 0.2344999999999999862 #
cur-twe-attrib $-1 $-1 $-1 $79 44 #
edge $142 $98 -0.1562000000000000055 $83 0 $111 $143 forward 7 unknown #
point $-1 0.2344999999999999862 0 -0.2344999999999999862 #
cur-twe-attrib $-1 $-1 $-1 $84 46 #
edge_name-twe-attrib $-1 $-1 $-1 $85 5 8704 #
straight-curve $144 -0.2344999999999999862 0 -0.2344999999999999862 0 1 0 I I #
edge_name-twe-attrib $-1 $-1 $-1 $86 10 8704 #
straight-curve $145 -0.2344999999999999862 0 0.2344999999999999862 0 1 0 I I #
face_name-twe-attrib $-1 $-1 $-1 $91 7 #
face $146 $147 $148 $3 $-1 $149 forward single #
loop $150 $-1 $151 $91 #
plane-surface $152 0 1 0 0 1 0 0 0 1 forward_v I I I I #
surf-twe-attrib $-1 $-1 $-1 $92 54 #
edge_name-twe-attrib $-1 $-1 $-1 $96 7 8704 #
straight-curve $153 0.2344999999999999862 -0.1562000000000000055 -0.2344999999999999862 0 0 -1 I I #
point $-1 0.2344999999999999862 -0.1562000000000000055 -0.2344999999999999862 #
cur-twe-attrib $-1 $-1 $-1 $99 61 #
point $-1 0.2344999999999999862 -0.1562000000000000055 0.2344999999999999862 #
cur-twe-attrib $-1 $-1 $-1 $102 63 #
face_name-twe-attrib $-1 $-1 $-1 $107 11 #
loop $154 $68 $155 $107 #
cone-surface $156 0 -0.05000000000000000278 0 0 1 0 0.1255000000000000004 0 0 1 I I 0 1 0.1255000000000000004 forward I I I I #
cur-twe-attrib $-1 $-1 $-1 $113 73 #
edge_name-twe-attrib $-1 $-1 $-1 $114 12 8704 #
straight-curve $157 0.2344999999999999862 0 0.2344999999999999862 0 1 0 I I #
edge_name-twe-attrib $-1 $-1 $-1 $118 8 8704 #
straight-curve $158 0.2344999999999999862 0 -0.2344999999999999862 0 1 0 I I #
cur-twe-attrib $-1 $-1 $-1 $122 85 #
cur-twe-attrib $-1 $-1 $-1 $124 86 #
face_name-twe-attrib $-1 $-1 $-1 $126 8 #
face $159 $160 $161 $3 $-1 $162 forward single #
loop $163 $164 $165 $126 #
plane-surface $166 0 0.25 0 0 1 0 0 0 1 forward_v I I I I #
loop_type-twe-attrib $-1 $-1 $-1 $127 0 #
coedge $-1 $151 $151 $167 $168 forward $127 $-1 #
surf-twe-attrib $-1 $-1 $-1 $128 91 #
cur-twe-attrib $-1 $-1 $-1 $131 96 #
loop_type-twe-attrib $-1 $-1 $-1 $137 0 #
coedge $-1 $155 $155 $169 $170 reversed $137 $-1 #
surf-twe-attrib $-1 $-1 $-1 $138 107 #
cur-twe-attrib $-1 $-1 $-1 $141 114 #
cur-twe-attrib $-1 $-1 $-1 $143 118 #
face_name-twe-attrib $-1 $-1 $-1 $147 9 #
face $171 $107 $172 $3 $-1 $173 forward single #
loop $174 $175 $167 $147 #
cone-surface $176 0 0.9799999999999999822 0 0 -1 0 -0.125 0 0 1 I I 0.7071067811865470176 0.7071067811865480168 0.125 forward I I I I #
loop_type-twe-attrib $-1 $-1 $-1 $148 1 #
loop $177 $-1 $169 $126 #
coedge $-1 $165 $165 $178 $179 forward $148 $-1 #
surf-twe-attrib $-1 $-1 $-1 $149 126 #
coedge $-1 $167 $167 $151 $168 reversed $161 $-1 #
edge $180 $181 0 $181 6.283185307179586232 $167 $182 forward 7 unknown #
coedge $-1 $169 $169 $155 $170 forward $164 $-1 #
edge $183 $184 0 $184 6.283185307179586232 $155 $185 forward 7 unknown #
face_name-twe-attrib $-1 $-1 $-1 $160 10 #
loop $186 $187 $188 $160 #
cone-surface $189 0 -0.05000000000000000278 0 0 1 0 0.125 0 0 1 I I 0 1 0.125 forward I I I I #
loop_type-twe-attrib $-1 $-1 $-1 $161 0 #
loop $190 $-1 $191 $147 #
surf-twe-attrib $-1 $-1 $-1 $162 147 #
loop_type-twe-attrib $-1 $-1 $-1 $164 0 #
coedge $-1 $178 $178 $165 $179 reversed $187 $-1 #
edge $192 $193 -3.141592653589793116 $193 3.141592653589793116 $165 $194 forward 7 unknown #
edge_name-twe-attrib $-1 $-1 $-1 $168 14 8448 #
vertex $-1 $168 $195 #
ellipse-curve $196 0 1 0 0 1 0 -0.1049999999999999961 0 0 1 I I #
edge_name-twe-attrib $-1 $-1 $-1 $170 16 8704 #
vertex $-1 $170 $197 #
ellipse-curve $198 0 0.25 0 0 1 0 -0.1255000000000000004 0 0 1 I I #
loop_type-twe-attrib $-1 $-1 $-1 $172 0 #
loop $199 $-1 $178 $160 #
coedge $-1 $188 $188 $191 $200 reversed $172 $-1 #
surf-twe-attrib $-1 $-1 $-1 $173 160 #
loop_type-twe-attrib $-1 $-1 $-1 $175 1 #
coedge $-1 $191 $191 $188 $200 forward $175 $-1 #
edge_name-twe-attrib $-1 $-1 $-1 $179 13 4608 #
vertex $-1 $179 $201 #
ellipse-curve $202 0 0.25 0 0 -1 0 -0.125 0 0 1 I I #
point $-1 -0.1049999999999999961 1 0 #
cur-twe-attrib $-1 $-1 $-1 $182 168 #
point $-1 -0.1255000000000000004 0.25 0 #
cur-twe-attrib $-1 $-1 $-1 $185 170 #
loop_type-twe-attrib $-1 $-1 $-1 $187 1 #
edge $203 $204 -3.141592653589793116 $204 3.141592653589793116 $188 $205 forward 7 unknown #
point $-1 0.125 0.25 1.530808234859209866e-17 #
cur-twe-attrib $-1 $-1 $-1 $194 179 #
edge_name-twe-attrib $-1 $-1 $-1 $200 15 8448 #
vertex $-1 $200 $206 #
ellipse-curve $207 0 0.9799999999999999822 0 0 1 0 -0.125 0 0 1 I I #
point $-1 0.125 0.9799999999999999822 1.530808234859209866e-17 #
cur-twe-attrib $-1 $-1 $-1 $205 200 #
End-of-ACIS-data 