600 0 2 0           
24 FBMach with ACIS - 6.0.3 13 ACIS 6.0.3 NT 24 Wed May 23 21:57:58 2001 
1 9.9999999999999995e-007 1e-010 
body $2 $3 $-1 $4 #
bdycol-kcp $-1 1 4 $5 $6 $7 $8 #
model_id-kcp-attrib $-1 $-1 $-1 $0 1 990669477 120 1635254273 1 #
lump $-1 $-1 $9 $0 #
transform $-1 1 0 0 0 1 0 0 0 1 0 0 0 1 no_rotate no_reflect no_shear #
body $10 $11 $-1 $12 #
body $13 $14 $-1 $15 #
body $16 $17 $-1 $18 #
body $19 $20 $-1 $21 #
shell $-1 $-1 $-1 $22 $-1 $3 #
model_id-kcp-attrib $-1 $-1 $-1 $5 1 990669477 120 1635254274 1 #
lump $-1 $-1 $23 $5 #
transform $-1 1 0 0 0 1 0 0 0 1 0 0.4219 0 1 no_rotate no_reflect no_shear #
rgb_color-st-attrib $-1 $24 $-1 $6 1 1 0.5 #
lump $-1 $-1 $25 $6 #
transform $-1 -1 0 0 0 0 1 0 1 0 0 0.98999999999999999 0 1 rotate no_reflect no_shear #
rgb_color-st-attrib $-1 $26 $-1 $7 1 0.5 1 #
lump $-1 $-1 $27 $7 #
transform $-1 1 0 0 0 1 0 0 0 1 0 0.4219 0 1 no_rotate no_reflect no_shear #
rgb_color-st-attrib $-1 $28 $-1 $8 1 0.5 1 #
lump $-1 $-1 $29 $8 #
transform $-1 1 0 0 0 1 0 0 0 1 0 0.4219 0 1 no_rotate no_reflect no_shear #
face $30 $31 $32 $9 $-1 $33 reversed single #
shell $-1 $-1 $-1 $34 $-1 $11 #
model_id-kcp-attrib $-1 $-1 $13 $6 1 990669477 140 1636564995 1 #
shell $-1 $-1 $-1 $35 $-1 $14 #
model_id-kcp-attrib $-1 $-1 $16 $7 1 990669477 310 1630928900 1 #
shell $-1 $-1 $-1 $36 $-1 $17 #
model_id-kcp-attrib $-1 $-1 $19 $8 1 990669477 370 1634861061 1 #
shell $-1 $-1 $-1 $37 $-1 $20 #
model_id-kcp-attrib $-1 $38 $-1 $22 1 990669477 120 1635254273 2 #
face $39 $40 $41 $9 $-1 $42 forward single #
loop $43 $44 $45 $22 #
plane-surface $46 0 0 0 0 -1 0 0 0 -1 forward_v I I I I #
face $47 $48 $49 $23 $-1 $50 forward single #
face $-1 $51 $52 $25 $-1 $53 reversed single #
face $-1 $54 $55 $27 $-1 $56 forward single #
face $-1 $57 $58 $29 $-1 $59 forward single #
face_name-twe-attrib $-1 $-1 $30 $22 1 #
model_id-kcp-attrib $-1 $60 $-1 $31 1 990669477 120 1635254273 3 #
face $61 $62 $63 $9 $-1 $64 forward single #
loop $65 $-1 $66 $31 #
plane-surface $67 0 -0.15620000000000001 0 0 -1 0 0 0 -1 forward_v I I I I #
loop_type-twe-attrib $-1 $-1 $-1 $32 0 #
loop $68 $-1 $69 $22 #
coedge $-1 $70 $71 $72 $73 forward $32 $-1 #
surf-twe-attrib $-1 $-1 $-1 $33 4 #
model_id-kcp-attrib $-1 $-1 $-1 $34 1 990669477 120 1635254274 6 #
face $74 $75 $76 $23 $-1 $77 reversed single #
loop $-1 $-1 $78 $34 #
plane-surface $-1 0 0 0.23449999999999999 0 0 1 1 0 0 forward_v I I I I #
face $-1 $79 $80 $25 $-1 $81 forward single #
loop $-1 $82 $83 $35 #
cone-surface $-1 0 0 0.052499999999999991 0 0 1 0.0625 0 0 1 I I -0.70710678118654691 0.70710678118654813 0.0625 forward I I I I #
face $-1 $84 $85 $27 $-1 $86 forward single #
loop $-1 $87 $88 $36 #
cone-surface $-1 0 -0.17189999999999994 0 0 1 0 0.125 0 0 1 I I 0 -1 0.125 forward I I I I #
face $-1 $89 $90 $29 $-1 $91 forward single #
loop $-1 $92 $93 $37 #
cone-surface $-1 0 -0.42189999999999994 0 0 1 0 0.1255 0 0 1 I I 0 -1 0.1255 forward I I I I #
face_name-twe-attrib $-1 $-1 $39 $31 2 #
model_id-kcp-attrib $-1 $94 $-1 $40 1 990669477 120 1635254273 4 #
face $95 $96 $97 $9 $-1 $98 forward single #
loop $99 $-1 $72 $40 #
plane-surface $100 -0.23449999999999999 0 0.23449999999999999 -1 0 0 0 0 1 forward_v I I I I #
loop_type-twe-attrib $-1 $-1 $-1 $41 0 #
coedge $-1 $101 $102 $103 $104 reversed $41 $-1 #
surf-twe-attrib $-1 $-1 $-1 $42 6 #
loop_type-twe-attrib $-1 $-1 $-1 $44 1 #
coedge $-1 $69 $69 $105 $106 forward $44 $-1 #
coedge $-1 $107 $45 $108 $109 forward $32 $-1 #
coedge $-1 $45 $107 $110 $111 forward $32 $-1 #
coedge $-1 $112 $113 $45 $73 reversed $63 $-1 #
edge $114 $115 -0.46899999999999997 $116 0 $72 $117 forward 7 unknown #
model_id-kcp-attrib $-1 $-1 $-1 $48 1 990669477 120 1635254274 4 #
face $118 $119 $120 $23 $-1 $121 reversed single #
loop $-1 $-1 $122 $48 #
plane-surface $-1 0 0 -0.23449999999999999 0 0 1 1 0 0 forward_v I I I I #
coedge $-1 $123 $124 $125 $126 forward $49 $-1 #
face $-1 $-1 $127 $25 $-1 $128 forward single #
loop $-1 $129 $130 $51 #
cone-surface $-1 0 0 0 0 0 1 0.125 0 0 1 I I 0 1 0.125 forward I I I I #
loop $-1 $-1 $131 $35 #
coedge $-1 $83 $83 $132 $133 reversed $52 $-1 #
face $-1 $134 $135 $27 $-1 $136 forward single #
loop $-1 $-1 $137 $54 #
plane-surface $-1 0.23449999999999999 -0.17189999999999994 -0.23449999999999999 1 0 0 0 0 -1 forward_v I I I I #
loop $-1 $-1 $138 $36 #
coedge $-1 $88 $88 $139 $140 forward $55 $-1 #
face $-1 $141 $142 $29 $-1 $143 forward single #
loop $-1 $-1 $144 $57 #
plane-surface $-1 0.23449999999999999 -0.42189999999999994 -0.23449999999999999 1 0 0 0 0 -1 forward_v I I I I #
loop $-1 $-1 $145 $37 #
coedge $-1 $93 $93 $146 $147 forward $58 $-1 #
face_name-twe-attrib $-1 $-1 $61 $40 3 #
model_id-kcp-attrib $-1 $148 $-1 $62 1 990669477 120 1635254273 5 #
face $149 $150 $151 $9 $-1 $152 forward single #
loop $153 $-1 $110 $62 #
plane-surface $154 -0.23449999999999999 0 -0.23449999999999999 0 0 -1 -1 0 0 forward_v I I I I #
loop_type-twe-attrib $-1 $-1 $-1 $63 0 #
surf-twe-attrib $-1 $-1 $-1 $64 10 #
coedge $-1 $155 $66 $156 $157 reversed $41 $-1 #
coedge $-1 $66 $155 $158 $159 reversed $41 $-1 #
coedge $-1 $113 $112 $66 $104 forward $63 $-1 #
edge $160 $161 -0.46899999999999997 $162 0 $103 $163 forward 7 unknown #
coedge $-1 $105 $105 $69 $106 reversed $164 $-1 #
edge $165 $166 -3.1415926535897931 $166 3.1415926535897931 $105 $167 forward 7 unknown #
coedge $-1 $71 $70 $168 $169 forward $32 $-1 #
coedge $-1 $170 $171 $70 $109 reversed $172 $-1 #
edge $173 $116 -0.46899999999999997 $174 0 $108 $175 forward 7 unknown #
coedge $-1 $176 $177 $71 $111 reversed $97 $-1 #
edge $178 $179 -0.46899999999999997 $115 0 $110 $180 forward 7 unknown #
coedge $-1 $103 $72 $177 $181 reversed $63 $-1 #
coedge $-1 $72 $103 $170 $182 forward $63 $-1 #
attrib_edge_convexity-kcp-attrib $-1 $183 $-1 $73 1 #
vertex $-1 $181 $184 #
vertex $-1 $182 $185 #
straight-curve $186 -0.23449999999999999 0 0.23449999999999999 0 0 1 I I #
model_id-kcp-attrib $-1 $-1 $-1 $75 1 990669477 120 1635254274 2 #
face $187 $188 $189 $23 $-1 $190 reversed single #
loop $-1 $-1 $191 $75 #
plane-surface $-1 0 -0.57810000000000006 0 0 1 0 0 0 1 forward_v I I I I #
coedge $-1 $192 $193 $194 $195 forward $76 $-1 #
coedge $-1 $196 $78 $197 $198 forward $49 $-1 #
coedge $-1 $78 $196 $199 $200 forward $49 $-1 #
coedge $-1 $201 $202 $78 $126 reversed $203 $-1 #
edge $-1 $204 -0.57810000000000006 $205 0.57810000000000006 $125 $206 forward 7 unknown #
loop $-1 $207 $132 $79 #
plane-surface $-1 0 0 0.010000000000000009 0 0 1 1 0 0 forward_v I I I I #
loop $-1 $-1 $208 $51 #
coedge $-1 $130 $130 $131 $209 reversed $80 $-1 #
coedge $-1 $131 $131 $130 $209 forward $82 $-1 #
coedge $-1 $132 $132 $83 $133 forward $127 $-1 #
edge $-1 $210 -3.1415926535897931 $210 3.1415926535897931 $132 $211 forward 7 unknown #
face $-1 $212 $213 $27 $-1 $214 forward single #
loop $-1 $-1 $215 $84 #
plane-surface $-1 0.23449999999999999 -0.17189999999999994 0.23449999999999999 0 0 1 1 0 0 forward_v I I I I #
coedge $-1 $216 $217 $218 $219 forward $85 $-1 #
coedge $-1 $138 $138 $220 $221 reversed $87 $-1 #
coedge $-1 $139 $139 $88 $140 reversed $222 $-1 #
edge $-1 $223 -2.2204460492503131e-016 $223 6.2831853071795862 $88 $224 forward 7 unknown #
face $-1 $225 $226 $29 $-1 $227 forward single #
loop $-1 $-1 $228 $89 #
plane-surface $-1 0.23449999999999999 -0.42189999999999994 0.23449999999999999 0 0 1 1 0 0 forward_v I I I I #
coedge $-1 $229 $230 $231 $232 forward $90 $-1 #
coedge $-1 $145 $145 $233 $234 reversed $92 $-1 #
coedge $-1 $146 $146 $93 $147 reversed $235 $-1 #
edge $-1 $236 -3.1415926535897931 $236 3.1415926535897931 $93 $237 forward 7 unknown #
face_name-twe-attrib $-1 $-1 $95 $62 4 #
model_id-kcp-attrib $-1 $238 $-1 $96 1 990669477 120 1635254273 6 #
face $239 $240 $172 $9 $-1 $241 forward single #
loop $242 $-1 $168 $96 #
plane-surface $243 0.23449999999999999 0 -0.23449999999999999 1 0 0 0 0 -1 forward_v I I I I #
loop_type-twe-attrib $-1 $-1 $-1 $97 0 #
surf-twe-attrib $-1 $-1 $-1 $98 18 #
coedge $-1 $102 $101 $244 $245 reversed $41 $-1 #
coedge $-1 $177 $176 $101 $157 forward $97 $-1 #
edge $246 $247 -0.46899999999999997 $161 0 $156 $248 forward 7 unknown #
coedge $-1 $171 $170 $102 $159 forward $172 $-1 #
edge $249 $162 -0.46899999999999997 $250 0 $158 $251 forward 7 unknown #
attrib_edge_convexity-kcp-attrib $-1 $252 $-1 $104 1 #
vertex $-1 $181 $253 #
vertex $-1 $182 $254 #
straight-curve $255 -0.23449999999999999 -0.15620000000000001 0.23449999999999999 0 0 1 I I #
loop $256 $-1 $105 $257 #
edge_name-twe-attrib $-1 $-1 $-1 $106 17 4608 #
vertex $-1 $106 $258 #
ellipse-curve $259 0 0 0 0 -1 0 0.1255 0 0 1 I I #
coedge $-1 $260 $261 $107 $169 reversed $151 $-1 #
edge $262 $174 -0.46899999999999997 $179 0 $168 $263 forward 7 unknown #
coedge $-1 $158 $108 $113 $182 reversed $172 $-1 #
coedge $-1 $108 $158 $260 $264 forward $172 $-1 #
loop $265 $-1 $108 $150 #
edge_name-twe-attrib $-1 $-1 $-1 $109 9 8704 #
vertex $-1 $264 $266 #
straight-curve $267 0.23449999999999999 0 0.23449999999999999 1 0 0 I I #
coedge $-1 $156 $110 $261 $268 reversed $97 $-1 #
coedge $-1 $110 $156 $112 $181 forward $97 $-1 #
attrib_edge_convexity-kcp-attrib $-1 $269 $-1 $111 1 #
vertex $-1 $268 $270 #
straight-curve $271 -0.23449999999999999 0 -0.23449999999999999 -1 0 0 I I #
edge $272 $161 -0.15620000000000001 $115 0 $177 $273 forward 7 unknown #
edge $274 $162 -0.15620000000000001 $116 0 $170 $275 forward 7 unknown #
convexity-sys-attrib $-1 $276 $114 $73 #
point $-1 -0.23449999999999999 0 -0.23449999999999999 #
point $-1 -0.23449999999999999 0 0.23449999999999999 #
cur-twe-attrib $-1 $-1 $-1 $117 29 #
model_id-kcp-attrib $-1 $-1 $-1 $119 1 990669477 120 1635254274 3 #
face $277 $278 $279 $23 $-1 $280 reversed single #
loop $-1 $-1 $281 $119 #
plane-surface $-1 -0.23449999999999999 0 0 1 0 0 0 0 -1 forward_v I I I I #
coedge $-1 $282 $199 $283 $284 forward $120 $-1 #
coedge $-1 $285 $122 $282 $286 forward $76 $-1 #
coedge $-1 $122 $285 $287 $288 forward $76 $-1 #
coedge $-1 $202 $201 $122 $195 reversed $203 $-1 #
edge $-1 $289 -0.57810000000000006 $290 0.57810000000000006 $194 $291 forward 7 unknown #
coedge $-1 $124 $123 $292 $293 forward $49 $-1 #
coedge $-1 $294 $295 $123 $198 reversed $279 $-1 #
edge $-1 $205 -0.23449999999999999 $296 0.23449999999999999 $197 $297 forward 7 unknown #
coedge $-1 $191 $298 $124 $200 reversed $120 $-1 #
edge $-1 $299 -0.23449999999999999 $204 0.23449999999999999 $199 $300 forward 7 unknown #
coedge $-1 $194 $125 $298 $301 forward $203 $-1 #
coedge $-1 $125 $194 $294 $302 reversed $203 $-1 #
loop $-1 $-1 $201 $278 #
vertex $-1 $126 $303 #
vertex $-1 $126 $304 #
straight-curve $-1 0.23449999999999999 0 0.23449999999999999 0 1 0 I I #
loop $-1 $-1 $305 $79 #
coedge $-1 $208 $208 $305 $306 reversed $129 $-1 #
edge $-1 $307 0 $307 6.2831853071795862 $130 $308 forward 7 unknown #
vertex $-1 $133 $309 #
ellipse-curve $-1 0 0 0.010000000000000009 0 0 -1 0.1049999999999999 0 0 1 I I #
face $-1 $310 $311 $27 $-1 $312 forward single #
loop $-1 $-1 $313 $134 #
plane-surface $-1 -0.23449999999999999 -0.17189999999999994 0.23449999999999999 -1 0 0 0 0 1 forward_v I I I I #
coedge $-1 $314 $315 $316 $317 forward $135 $-1 #
coedge $-1 $318 $137 $315 $319 reversed $85 $-1 #
coedge $-1 $137 $318 $320 $321 forward $85 $-1 #
coedge $-1 $322 $316 $137 $219 reversed $323 $-1 #
edge $-1 $324 -0.23449999999999999 $325 0.23449999999999999 $137 $326 forward 7 unknown #
coedge $-1 $220 $220 $138 $221 forward $327 $-1 #
edge $-1 $328 -1.2246465878873679e-016 $328 6.2831853071795862 $138 $329 forward 7 unknown #
loop $-1 $-1 $139 $310 #
vertex $-1 $140 $330 #
ellipse-curve $-1 0 0.57810000000000006 0 0 1 0 0.125 0 0 1 I I #
face $-1 $331 $332 $29 $-1 $333 forward single #
loop $-1 $-1 $334 $141 #
plane-surface $-1 -0.23449999999999999 -0.42189999999999994 0.23449999999999999 -1 0 0 0 0 1 forward_v I I I I #
coedge $-1 $335 $336 $337 $338 forward $142 $-1 #
coedge $-1 $339 $144 $336 $340 reversed $90 $-1 #
coedge $-1 $144 $339 $341 $342 forward $90 $-1 #
coedge $-1 $343 $337 $144 $232 reversed $344 $-1 #
edge $-1 $345 -0.23449999999999999 $346 0.23449999999999999 $144 $347 forward 7 unknown #
coedge $-1 $233 $233 $145 $234 forward $348 $-1 #
edge $-1 $349 -3.1415926535897931 $349 3.1415926535897931 $145 $350 forward 7 unknown #
loop $-1 $-1 $146 $331 #
vertex $-1 $147 $351 #
ellipse-curve $-1 0 -0.17189999999999994 0 0 1 0 0.1255 0 0 1 I I #
face_name-twe-attrib $-1 $-1 $149 $96 5 #
model_id-kcp-attrib $-1 $352 $-1 $150 1 990669477 120 1635254273 7 #
face $353 $354 $355 $9 $-1 $356 forward single #
plane-surface $357 0.23449999999999999 0 0.23449999999999999 0 0 1 1 0 0 forward_v I I I I #
loop_type-twe-attrib $-1 $-1 $-1 $151 0 #
surf-twe-attrib $-1 $-1 $-1 $152 31 #
coedge $-1 $261 $260 $155 $245 forward $151 $-1 #
edge $358 $250 -0.46899999999999997 $247 0 $244 $359 forward 7 unknown #
attrib_edge_convexity-kcp-attrib $-1 $360 $-1 $157 1 #
vertex $-1 $268 $361 #
straight-curve $362 -0.23449999999999999 -0.15620000000000001 -0.23449999999999999 -1 0 0 I I #
attrib_edge_convexity-kcp-attrib $-1 $363 $-1 $159 1 #
vertex $-1 $264 $364 #
straight-curve $365 0.23449999999999999 -0.15620000000000001 0.23449999999999999 1 0 0 I I #
convexity-sys-attrib $-1 $366 $160 $104 #
point $-1 -0.23449999999999999 -0.15620000000000001 -0.23449999999999999 #
point $-1 -0.23449999999999999 -0.15620000000000001 0.23449999999999999 #
cur-twe-attrib $-1 $-1 $-1 $163 39 #
loop_type-twe-attrib $-1 $-1 $-1 $164 1 #
face $367 $-1 $368 $9 $-1 $369 forward single #
point $-1 -0.1255 0 0 #
cur-twe-attrib $-1 $-1 $-1 $167 41 #
coedge $-1 $244 $168 $171 $264 reversed $151 $-1 #
coedge $-1 $168 $244 $176 $268 forward $151 $-1 #
edge_name-twe-attrib $-1 $-1 $-1 $169 6 8704 #
straight-curve $370 0.23449999999999999 0 -0.23449999999999999 0 0 -1 I I #
edge $371 $250 -0.15620000000000001 $174 0 $171 $372 forward 7 unknown #
loop_type-twe-attrib $-1 $-1 $-1 $172 0 #
point $-1 0.23449999999999999 0 0.23449999999999999 #
cur-twe-attrib $-1 $-1 $-1 $175 44 #
edge $373 $247 -0.15620000000000001 $179 0 $261 $374 forward 7 unknown #
convexity-sys-attrib $-1 $375 $178 $111 #
point $-1 0.23449999999999999 0 -0.23449999999999999 #
cur-twe-attrib $-1 $-1 $-1 $180 46 #
attrib_edge_convexity-kcp-attrib $-1 $376 $-1 $181 1 #
straight-curve $377 -0.23449999999999999 0 -0.23449999999999999 0 1 0 I I #
attrib_edge_convexity-kcp-attrib $-1 $378 $-1 $182 1 #
straight-curve $379 -0.23449999999999999 0 0.23449999999999999 0 1 0 I I #
edge_name-twe-attrib $-1 $-1 $183 $73 1 8704 #
model_id-kcp-attrib $-1 $-1 $-1 $188 1 990669477 120 1635254274 7 #
face $380 $-1 $203 $23 $-1 $381 reversed single #
loop $-1 $-1 $294 $188 #
plane-surface $-1 0 0.57810000000000006 0 0 -1 0 0 0 -1 forward_v I I I I #
coedge $-1 $382 $292 $295 $383 forward $189 $-1 #
coedge $-1 $298 $191 $192 $286 reversed $120 $-1 #
coedge $-1 $292 $382 $191 $284 reversed $189 $-1 #
edge $-1 $299 -0.23449999999999999 $384 0.23449999999999999 $283 $385 forward 7 unknown #
coedge $-1 $193 $192 $382 $386 forward $76 $-1 #
edge $-1 $290 -0.23449999999999999 $384 0.23449999999999999 $282 $387 forward 7 unknown #
coedge $-1 $295 $294 $193 $288 reversed $279 $-1 #
edge $-1 $388 -0.23449999999999999 $289 0.23449999999999999 $287 $389 forward 7 unknown #
vertex $-1 $195 $390 #
vertex $-1 $301 $391 #
straight-curve $-1 0.23449999999999999 0 -0.23449999999999999 0 -1 0 I I #
coedge $-1 $281 $283 $196 $293 reversed $189 $-1 #
edge $-1 $296 -0.57810000000000006 $299 0.57810000000000006 $292 $392 forward 7 unknown #
coedge $-1 $287 $197 $202 $302 forward $279 $-1 #
coedge $-1 $197 $287 $281 $383 reversed $279 $-1 #
vertex $-1 $198 $393 #
straight-curve $-1 0 0.57810000000000006 0.23449999999999999 -1 0 0 I I #
coedge $-1 $199 $282 $201 $301 reversed $120 $-1 #
vertex $-1 $293 $394 #
straight-curve $-1 0 -0.57810000000000006 0.23449999999999999 1 0 0 I I #
edge $-1 $204 -0.23449999999999999 $290 0.23449999999999999 $201 $395 forward 7 unknown #
edge $-1 $205 -0.23449999999999999 $289 0.23449999999999999 $202 $396 forward 7 unknown #
point $-1 0.23449999999999999 -0.57810000000000006 0.23449999999999999 #
point $-1 0.23449999999999999 0.57810000000000006 0.23449999999999999 #
coedge $-1 $305 $305 $208 $306 forward $207 $-1 #
edge $-1 $397 0 $397 6.2831853071795862 $305 $398 forward 7 unknown #
vertex $-1 $209 $399 #
ellipse-curve $-1 0 0 -0.010000000000000009 0 0 -1 0.125 0 0 1 I I #
point $-1 -0.1049999999999999 1.2858366715134949e-017 0.010000000000000009 #
face $-1 $400 $323 $27 $-1 $401 forward single #
loop $-1 $-1 $402 $212 #
plane-surface $-1 -0.23449999999999999 -0.17189999999999994 -0.23449999999999999 0 0 -1 -1 0 0 forward_v I I I I #
coedge $-1 $403 $404 $405 $406 forward $213 $-1 #
coedge $-1 $407 $215 $404 $408 reversed $135 $-1 #
coedge $-1 $215 $407 $216 $319 forward $135 $-1 #
coedge $-1 $218 $405 $215 $317 reversed $323 $-1 #
edge $-1 $325 -0.23449999999999999 $409 0.23449999999999999 $215 $410 forward 7 unknown #
coedge $-1 $217 $216 $411 $412 reversed $85 $-1 #
edge $-1 $413 0 $325 0.75 $315 $414 forward 7 unknown #
coedge $-1 $415 $402 $217 $321 reversed $311 $-1 #
edge $-1 $416 0 $324 0.75 $217 $417 forward 7 unknown #
coedge $-1 $405 $218 $402 $418 reversed $323 $-1 #
loop $-1 $222 $218 $310 #
vertex $-1 $321 $419 #
vertex $-1 $319 $420 #
straight-curve $-1 0.23449999999999999 0.57810000000000006 0 0 0 1 I I #
loop $-1 $-1 $220 $400 #
vertex $-1 $221 $421 #
ellipse-curve $-1 0 -0.17189999999999994 0 0 1 0 0.125 0 0 1 I I #
point $-1 0.125 0.57810000000000006 2.7755575615628914e-017 #
face $-1 $422 $344 $29 $-1 $423 forward single #
loop $-1 $-1 $424 $225 #
plane-surface $-1 -0.23449999999999999 -0.42189999999999994 -0.23449999999999999 0 0 -1 -1 0 0 forward_v I I I I #
coedge $-1 $425 $426 $427 $428 forward $226 $-1 #
coedge $-1 $429 $228 $426 $430 reversed $142 $-1 #
coedge $-1 $228 $429 $229 $340 forward $142 $-1 #
coedge $-1 $231 $427 $228 $338 reversed $344 $-1 #
edge $-1 $346 -0.23449999999999999 $431 0.23449999999999999 $228 $432 forward 7 unknown #
coedge $-1 $230 $229 $433 $434 reversed $90 $-1 #
edge $-1 $435 0 $346 0.25 $336 $436 forward 7 unknown #
coedge $-1 $437 $424 $230 $342 reversed $332 $-1 #
edge $-1 $438 0 $345 0.25 $230 $439 forward 7 unknown #
coedge $-1 $427 $231 $424 $440 reversed $344 $-1 #
loop $-1 $235 $231 $331 #
vertex $-1 $342 $441 #
vertex $-1 $340 $442 #
straight-curve $-1 0.23449999999999999 -0.17189999999999994 0 0 0 1 I I #
loop $-1 $-1 $233 $422 #
vertex $-1 $234 $443 #
ellipse-curve $-1 0 -0.42189999999999994 0 0 1 0 0.1255 0 0 1 I I #
point $-1 -0.1255 -0.1719 0 #
face_name-twe-attrib $-1 $-1 $239 $150 6 #
model_id-kcp-attrib $-1 $444 $-1 $240 1 990669477 120 1635254273 13 #
face $445 $446 $447 $9 $-1 $448 forward single #
loop $449 $-1 $450 $240 #
plane-surface $451 0 1 0 0 1 0 0 0 1 forward_v I I I I #
surf-twe-attrib $-1 $-1 $-1 $241 54 #
attrib_edge_convexity-kcp-attrib $-1 $452 $-1 $245 1 #
straight-curve $453 0.23449999999999999 -0.15620000000000001 -0.23449999999999999 0 0 -1 I I #
convexity-sys-attrib $-1 $454 $246 $157 #
point $-1 0.23449999999999999 -0.15620000000000001 -0.23449999999999999 #
cur-twe-attrib $-1 $-1 $-1 $248 61 #
convexity-sys-attrib $-1 $455 $249 $159 #
point $-1 0.23449999999999999 -0.15620000000000001 0.23449999999999999 #
cur-twe-attrib $-1 $-1 $-1 $251 63 #
edge_name-twe-attrib $-1 $-1 $252 $104 2 8704 #
model_id-kcp-attrib $-1 $456 $-1 $257 1 990669477 120 1635254273 12 #
loop $457 $164 $458 $257 #
cone-surface $459 0 -0.050000000000000003 0 0 1 0 0.1255 0 0 1 I I 0 1 0.1255 forward I I I I #
cur-twe-attrib $-1 $-1 $-1 $263 73 #
edge_name-twe-attrib $-1 $-1 $-1 $264 12 8704 #
straight-curve $460 0.23449999999999999 0 0.23449999999999999 0 1 0 I I #
attrib_edge_convexity-kcp-attrib $-1 $461 $-1 $268 1 #
straight-curve $462 0.23449999999999999 0 -0.23449999999999999 0 1 0 I I #
edge_name-twe-attrib $-1 $-1 $269 $111 3 8704 #
convexity-sys-attrib $-1 $463 $272 $181 #
cur-twe-attrib $-1 $-1 $-1 $273 85 #
convexity-sys-attrib $-1 $464 $274 $182 #
cur-twe-attrib $-1 $-1 $-1 $275 86 #
model_id-kcp-attrib $-1 $-1 $-1 $278 1 990669477 120 1635254274 5 #
plane-surface $-1 0.23449999999999999 0 0 -1 0 0 0 0 1 forward_v I I I I #
coedge $-1 $283 $281 $285 $386 reversed $189 $-1 #
edge $-1 $296 -0.23449999999999999 $388 0.23449999999999999 $295 $465 forward 7 unknown #
vertex $-1 $386 $466 #
straight-curve $-1 -0.23449999999999999 -0.57810000000000006 0 0 0 -1 I I #
edge $-1 $384 -0.57810000000000006 $388 0.57810000000000006 $382 $467 forward 7 unknown #
straight-curve $-1 0 -0.57810000000000006 -0.23449999999999999 -1 0 0 I I #
vertex $-1 $288 $468 #
straight-curve $-1 0 0.57810000000000006 -0.23449999999999999 1 0 0 I I #
point $-1 0.23449999999999999 0.57810000000000006 -0.23449999999999999 #
point $-1 0.23449999999999999 -0.57810000000000006 -0.23449999999999999 #
straight-curve $-1 -0.23449999999999999 0 0.23449999999999999 0 -1 0 I I #
point $-1 -0.23449999999999999 0.57810000000000006 0.23449999999999999 #
point $-1 -0.23449999999999999 -0.57810000000000006 0.23449999999999999 #
straight-curve $-1 0.23449999999999999 -0.57810000000000006 0 0 0 -1 I I #
straight-curve $-1 0.23449999999999999 0.57810000000000006 0 0 0 -1 I I #
vertex $-1 $306 $469 #
ellipse-curve $-1 0 0 0.010000000000000009 0 0 1 0.125 0 0 1 I I #
point $-1 0.125 0 -0.010000000000000009 #
face $-1 $-1 $470 $27 $-1 $471 reversed single #
plane-surface $-1 0.0033534926311526193 0.57810000000000006 -9.5726752375086465e-019 2.4820864672422419e-034 1 9.9283458689689626e-034 0 -9.9283458689689626e-034 1 forward_v I I I I #
coedge $-1 $320 $472 $322 $418 forward $311 $-1 #
coedge $-1 $473 $313 $472 $474 reversed $213 $-1 #
coedge $-1 $313 $473 $314 $408 forward $213 $-1 #
coedge $-1 $316 $322 $313 $406 reversed $323 $-1 #
edge $-1 $409 -0.23449999999999999 $475 0.23449999999999999 $313 $476 forward 7 unknown #
coedge $-1 $315 $314 $477 $478 reversed $135 $-1 #
edge $-1 $479 0 $409 0.75 $404 $480 forward 7 unknown #
vertex $-1 $408 $481 #
straight-curve $-1 0 0.57810000000000006 0.23449999999999999 -1 0 0 I I #
coedge $-1 $477 $482 $318 $412 forward $470 $-1 #
edge $483 $416 -0.23449999999999999 $413 0.23449999999999999 $318 $484 forward 7 unknown #
vertex $-1 $412 $485 #
straight-curve $-1 0.23449999999999999 -0.17189999999999994 0.23449999999999999 0 1 0 I I #
coedge $-1 $472 $320 $482 $486 reversed $311 $-1 #
vertex $-1 $486 $487 #
straight-curve $-1 0.23449999999999999 -0.17189999999999994 -0.23449999999999999 0 1 0 I I #
edge $-1 $475 -0.23449999999999999 $324 0.23449999999999999 $402 $488 forward 7 unknown #
point $-1 0.23449999999999999 0.57810000000000006 -0.23449999999999999 #
point $-1 0.23449999999999999 0.57810000000000006 0.23449999999999999 #
point $-1 0.125 -0.1719 1.5308082348592099e-017 #
face $-1 $-1 $489 $29 $-1 $490 reversed single #
plane-surface $-1 -0.0033763886396470546 -0.17189999999999989 -1.4432648578050302e-018 -3.1757890977853533e-032 1 1.1909209116695069e-032 0 -1.1909209116695069e-032 1 forward_v I I I I #
coedge $-1 $341 $491 $343 $440 forward $332 $-1 #
coedge $-1 $492 $334 $491 $493 reversed $226 $-1 #
coedge $-1 $334 $492 $335 $430 forward $226 $-1 #
coedge $-1 $337 $343 $334 $428 reversed $344 $-1 #
edge $-1 $431 -0.23449999999999999 $494 0.23449999999999999 $334 $495 forward 7 unknown #
coedge $-1 $336 $335 $496 $497 reversed $142 $-1 #
edge $-1 $498 0 $431 0.25 $426 $499 forward 7 unknown #
vertex $-1 $430 $500 #
straight-curve $-1 0 -0.17189999999999994 0.23449999999999999 -1 0 0 I I #
coedge $-1 $496 $501 $339 $434 forward $489 $-1 #
edge $502 $438 -0.23449999999999999 $435 0.23449999999999999 $339 $503 forward 7 unknown #
vertex $-1 $434 $504 #
straight-curve $-1 0.23449999999999999 -0.42189999999999994 0.23449999999999999 0 1 0 I I #
coedge $-1 $491 $341 $501 $505 reversed $332 $-1 #
vertex $-1 $505 $506 #
straight-curve $-1 0.23449999999999999 -0.42189999999999994 -0.23449999999999999 0 1 0 I I #
edge $-1 $494 -0.23449999999999999 $345 0.23449999999999999 $424 $507 forward 7 unknown #
point $-1 0.23449999999999999 -0.17189999999999994 -0.23449999999999999 #
point $-1 0.23449999999999999 -0.17189999999999994 0.23449999999999999 #
point $-1 -0.1255 -0.4219 0 #
model_id-kcp-attrib $-1 $508 $353 $240 1 990669477 120 1635254273 8 #
model_id-kcp-attrib $-1 $509 $-1 $354 1 990669477 120 1635254273 9 #
face $510 $511 $512 $9 $-1 $513 forward single #
loop $514 $515 $516 $354 #
plane-surface $517 0 0.25 0 0 1 0 0 0 1 forward_v I I I I #
loop_type-twe-attrib $-1 $-1 $-1 $355 0 #
coedge $-1 $450 $450 $518 $519 forward $355 $-1 #
surf-twe-attrib $-1 $-1 $-1 $356 91 #
convexity-sys-attrib $-1 $520 $358 $245 #
cur-twe-attrib $-1 $-1 $-1 $359 96 #
edge_name-twe-attrib $-1 $-1 $360 $157 4 8704 #
edge_name-twe-attrib $-1 $-1 $363 $159 11 8704 #
face_name-twe-attrib $-1 $-1 $367 $257 11 #
loop_type-twe-attrib $-1 $-1 $-1 $368 0 #
coedge $-1 $458 $458 $521 $522 reversed $368 $-1 #
surf-twe-attrib $-1 $-1 $-1 $369 107 #
cur-twe-attrib $-1 $-1 $-1 $372 114 #
convexity-sys-attrib $-1 $523 $373 $268 #
cur-twe-attrib $-1 $-1 $-1 $374 118 #
edge_name-twe-attrib $-1 $-1 $376 $181 5 8704 #
edge_name-twe-attrib $-1 $-1 $378 $182 10 8704 #
straight-curve $-1 -0.23449999999999999 0.57810000000000006 0 0 0 -1 I I #
point $-1 -0.23449999999999999 -0.57810000000000006 -0.23449999999999999 #
straight-curve $-1 -0.23449999999999999 0 -0.23449999999999999 0 1 0 I I #
point $-1 -0.23449999999999999 0.57810000000000006 -0.23449999999999999 #
point $-1 0.125 0 0.010000000000000009 #
loop $-1 $327 $482 $400 #
plane-surface $-1 0.0033534926311526193 -0.17189999999999994 -9.5726752375086465e-019 2.4820864672422419e-034 1 9.9283458689689626e-034 0 -9.9283458689689626e-034 1 forward_v I I I I #
coedge $-1 $402 $415 $403 $474 forward $311 $-1 #
coedge $-1 $404 $403 $524 $525 reversed $213 $-1 #
edge $-1 $526 0 $475 0.75 $472 $527 forward 7 unknown #
vertex $-1 $474 $528 #
straight-curve $-1 -0.23449999999999999 0.57810000000000006 0 0 0 -1 I I #
coedge $-1 $524 $411 $407 $478 forward $470 $-1 #
edge $529 $413 -0.23449999999999999 $479 0.23449999999999999 $407 $530 forward 7 unknown #
vertex $-1 $478 $531 #
straight-curve $-1 -0.23449999999999999 -0.17189999999999994 0.23449999999999999 0 1 0 I I #
point $-1 -0.23449999999999999 0.57810000000000006 0.23449999999999999 #
coedge $-1 $411 $524 $415 $486 forward $470 $-1 #
convexity-sys-attrib $-1 $-1 $-1 $412 #
straight-curve $-1 0.23449999999999999 -0.17189999999999994 0 0 0 1 I I #
point $-1 0.23449999999999999 -0.17189999999999994 0.23449999999999999 #
edge $532 $526 -0.23449999999999999 $416 0.23449999999999999 $415 $533 forward 7 unknown #
point $-1 0.23449999999999999 -0.17189999999999994 -0.23449999999999999 #
straight-curve $-1 0 0.57810000000000006 -0.23449999999999999 1 0 0 I I #
loop $-1 $348 $501 $422 #
plane-surface $-1 -0.0033763886396470546 -0.42189999999999989 -1.4432648578050302e-018 -3.1757890977853533e-032 1 1.1909209116695069e-032 0 -1.1909209116695069e-032 1 forward_v I I I I #
coedge $-1 $424 $437 $425 $493 forward $332 $-1 #
coedge $-1 $426 $425 $534 $535 reversed $226 $-1 #
edge $-1 $536 0 $494 0.25 $491 $537 forward 7 unknown #
vertex $-1 $493 $538 #
straight-curve $-1 -0.23449999999999999 -0.17189999999999994 0 0 0 -1 I I #
coedge $-1 $534 $433 $429 $497 forward $489 $-1 #
edge $539 $435 -0.23449999999999999 $498 0.23449999999999999 $429 $540 forward 7 unknown #
vertex $-1 $497 $541 #
straight-curve $-1 -0.23449999999999999 -0.42189999999999994 0.23449999999999999 0 1 0 I I #
point $-1 -0.23449999999999999 -0.17189999999999994 0.23449999999999999 #
coedge $-1 $433 $534 $437 $505 forward $489 $-1 #
convexity-sys-attrib $-1 $-1 $-1 $434 #
straight-curve $-1 0.23449999999999999 -0.42189999999999994 0 0 0 1 I I #
point $-1 0.23449999999999999 -0.42189999999999994 0.23449999999999999 #
edge $542 $536 -0.23449999999999999 $438 0.23449999999999999 $437 $543 forward 7 unknown #
point $-1 0.23449999999999999 -0.42189999999999994 -0.23449999999999999 #
straight-curve $-1 0 -0.17189999999999994 -0.23449999999999999 1 0 0 I I #
face_name-twe-attrib $-1 $-1 $444 $240 7 #
face_name-twe-attrib $-1 $-1 $445 $354 8 #
model_id-kcp-attrib $-1 $544 $-1 $446 1 990669477 120 1635254273 10 #
face $545 $257 $546 $9 $-1 $547 forward single #
loop $548 $549 $518 $446 #
cone-surface $550 0 0.97999999999999998 0 0 -1 0 -0.125 0 0 1 I I 0.70710678118654702 0.70710678118654802 0.125 forward I I I I #
loop_type-twe-attrib $-1 $-1 $-1 $447 1 #
loop $551 $-1 $521 $354 #
coedge $-1 $516 $516 $552 $553 forward $447 $-1 #
surf-twe-attrib $-1 $-1 $-1 $448 126 #
coedge $-1 $518 $518 $450 $519 reversed $512 $-1 #
edge $554 $555 0 $555 6.2831853071795862 $518 $556 forward 7 unknown #
edge_name-twe-attrib $-1 $-1 $452 $245 7 8704 #
coedge $-1 $521 $521 $458 $522 forward $515 $-1 #
edge $557 $558 0 $558 6.2831853071795862 $458 $559 forward 7 unknown #
edge_name-twe-attrib $-1 $-1 $461 $268 8 8704 #
coedge $-1 $482 $477 $473 $525 forward $470 $-1 #
edge $560 $479 -0.23449999999999999 $526 0.23449999999999999 $473 $561 forward 7 unknown #
vertex $-1 $486 $562 #
straight-curve $-1 -0.23449999999999999 -0.17189999999999994 -0.23449999999999999 0 1 0 I I #
point $-1 -0.23449999999999999 0.57810000000000006 -0.23449999999999999 #
convexity-sys-attrib $-1 $-1 $-1 $478 #
straight-curve $-1 0 -0.17189999999999994 0.23449999999999999 -1 0 0 I I #
point $-1 -0.23449999999999999 -0.17189999999999994 0.23449999999999999 #
convexity-sys-attrib $-1 $-1 $-1 $486 #
straight-curve $-1 0 -0.17189999999999994 -0.23449999999999999 1 0 0 I I #
coedge $-1 $501 $496 $492 $535 forward $489 $-1 #
edge $563 $498 -0.23449999999999999 $536 0.23449999999999999 $492 $564 forward 7 unknown #
vertex $-1 $505 $565 #
straight-curve $-1 -0.23449999999999999 -0.42189999999999994 -0.23449999999999999 0 1 0 I I #
point $-1 -0.23449999999999999 -0.17189999999999994 -0.23449999999999999 #
convexity-sys-attrib $-1 $-1 $-1 $497 #
straight-curve $-1 0 -0.42189999999999994 0.23449999999999999 -1 0 0 I I #
point $-1 -0.23449999999999999 -0.42189999999999994 0.23449999999999999 #
convexity-sys-attrib $-1 $-1 $-1 $505 #
straight-curve $-1 0 -0.42189999999999994 -0.23449999999999999 1 0 0 I I #
face_name-twe-attrib $-1 $-1 $510 $446 9 #
model_id-kcp-attrib $-1 $566 $-1 $511 1 990669477 120 1635254273 11 #
loop $567 $568 $569 $511 #
cone-surface $570 0 -0.050000000000000003 0 0 1 0 0.125 0 0 1 I I 0 1 0.125 forward I I I I #
loop_type-twe-attrib $-1 $-1 $-1 $512 0 #
loop $571 $-1 $572 $446 #
surf-twe-attrib $-1 $-1 $-1 $513 147 #
loop_type-twe-attrib $-1 $-1 $-1 $515 0 #
coedge $-1 $552 $552 $516 $553 reversed $568 $-1 #
edge $573 $574 -3.1415926535897931 $574 3.1415926535897931 $516 $575 forward 7 unknown #
attrib_edge_convexity-kcp-attrib $-1 $576 $-1 $519 1 #
vertex $-1 $519 $577 #
ellipse-curve $578 0 1 0 0 1 0 -0.105 0 0 1 I I #
edge_name-twe-attrib $-1 $-1 $-1 $522 16 8704 #
vertex $-1 $522 $579 #
ellipse-curve $580 0 0.25 0 0 1 0 -0.1255 0 0 1 I I #
convexity-sys-attrib $-1 $-1 $-1 $525 #
straight-curve $-1 -0.23449999999999999 -0.17189999999999994 0 0 0 -1 I I #
point $-1 -0.23449999999999999 -0.17189999999999994 -0.23449999999999999 #
convexity-sys-attrib $-1 $-1 $-1 $535 #
straight-curve $-1 -0.23449999999999999 -0.42189999999999994 0 0 0 -1 I I #
point $-1 -0.23449999999999999 -0.42189999999999994 -0.23449999999999999 #
face_name-twe-attrib $-1 $-1 $545 $511 10 #
loop_type-twe-attrib $-1 $-1 $-1 $546 0 #
loop $581 $-1 $552 $511 #
coedge $-1 $569 $569 $572 $582 reversed $546 $-1 #
surf-twe-attrib $-1 $-1 $-1 $547 160 #
loop_type-twe-attrib $-1 $-1 $-1 $549 1 #
coedge $-1 $572 $572 $569 $582 forward $549 $-1 #
edge_name-twe-attrib $-1 $-1 $-1 $553 13 4608 #
vertex $-1 $553 $583 #
ellipse-curve $584 0 0.25 0 0 -1 0 -0.125 0 0 1 I I #
convexity-sys-attrib $-1 $585 $554 $519 #
point $-1 -0.105 1 0 #
cur-twe-attrib $-1 $-1 $-1 $556 168 #
point $-1 -0.1255 0.25 0 #
cur-twe-attrib $-1 $-1 $-1 $559 170 #
loop_type-twe-attrib $-1 $-1 $-1 $568 1 #
edge $586 $587 -3.1415926535897931 $587 3.1415926535897931 $569 $588 forward 7 unknown #
point $-1 0.125 0.25 1.5308082348592099e-017 #
cur-twe-attrib $-1 $-1 $-1 $575 179 #
edge_name-twe-attrib $-1 $-1 $576 $519 14 8448 #
attrib_edge_convexity-kcp-attrib $-1 $589 $-1 $582 1 #
vertex $-1 $582 $590 #
ellipse-curve $591 0 0.97999999999999998 0 0 1 0 -0.125 0 0 1 I I #
convexity-sys-attrib $-1 $592 $586 $582 #
point $-1 0.125 0.97999999999999998 1.5308082348592099e-017 #
cur-twe-attrib $-1 $-1 $-1 $588 200 #
edge_name-twe-attrib $-1 $-1 $589 $582 15 8448 #
End-of-ACIS-data 