700 0 2 0           
24 FBMach with ACIS - 7.0.3 13 ACIS 7.0.3 NT 24 Tue May 14 10:16:50 2002 
1 9.9999999999999995e-007 1e-010 
body $2 -1 $-1 $3 $-1 $4 #
bdycol-kcp $-1 -1 1 4 $5 $6 $7 $8 #
model_id-kcp-attrib $-1 -1 $-1 $-1 $0 1 1021385810 1021385810 -619905023 1 #
lump $-1 -1 $-1 $-1 $9 $0 #
transform $-1 -1 1 0 0 0 1 0 0 0 1 0 0 0 1 rotate no_reflect no_shear #
body $10 -1 $-1 $11 $-1 $12 #
body $13 -1 $-1 $14 $-1 $15 #
body $16 -1 $-1 $17 $-1 $18 #
body $19 -1 $-1 $20 $-1 $21 #
shell $-1 -1 $-1 $-1 $-1 $22 $-1 $3 #
model_id-kcp-attrib $-1 -1 $-1 $-1 $5 1 1021385810 1021385810 -619905022 1 #
lump $-1 -1 $-1 $-1 $23 $5 #
transform $-1 -1 1 0 0 0 1 0 0 0 1 0 0.4219 0 1 no_rotate no_reflect no_shear #
rgb_color-st-attrib $-1 -1 $24 $-1 $6 1 1 0.5 #
lump $-1 -1 $-1 $-1 $25 $6 #
transform $-1 -1 -1 0 0 0 0 1 0 1 0 0 0.98999999999999999 0 1 rotate no_reflect no_shear #
rgb_color-st-attrib $-1 -1 $26 $-1 $7 1 0.5 1 #
lump $-1 -1 $-1 $-1 $27 $7 #
transform $-1 -1 1 0 0 0 1 0 0 0 1 0 0.4219 0 1 no_rotate no_reflect no_shear #
rgb_color-st-attrib $-1 -1 $28 $-1 $8 1 0.5 1 #
lump $-1 -1 $-1 $-1 $29 $8 #
transform $-1 -1 1 0 0 0 1 0 0 0 1 0 0.4219 0 1 no_rotate no_reflect no_shear #
face $30 -1 $-1 $31 $32 $9 $-1 $33 reversed single #
shell $-1 -1 $-1 $-1 $-1 $34 $-1 $11 #
model_id-kcp-attrib $-1 -1 $-1 $13 $6 1 1021385810 1021385810 -618594301 1 #
shell $-1 -1 $-1 $-1 $-1 $35 $-1 $14 #
model_id-kcp-attrib $-1 -1 $-1 $16 $7 1 1021385810 1021385810 -617676795 1 #
shell $-1 -1 $-1 $-1 $-1 $36 $-1 $17 #
model_id-kcp-attrib $-1 -1 $-1 $19 $8 1 1021385810 1021385810 -606142460 1 #
shell $-1 -1 $-1 $-1 $-1 $37 $-1 $20 #
model_id-kcp-attrib $-1 -1 $38 $-1 $22 1 1021385810 1021385810 -619905023 2 #
face $39 -1 $-1 $40 $41 $9 $-1 $42 forward single #
loop $43 -1 $-1 $44 $45 $22 #
plane-surface $46 -1 $-1 0 0 0 0 -1 0 0 0 -1 forward_v I I I I #
face $47 -1 $-1 $48 $49 $23 $-1 $50 forward single #
face $-1 -1 $-1 $51 $52 $25 $-1 $53 reversed single #
face $-1 -1 $-1 $54 $55 $27 $-1 $56 forward single #
face $-1 -1 $-1 $57 $58 $29 $-1 $59 forward single #
face_name-twe-attrib $-1 -1 $-1 $30 $22 1 #
model_id-kcp-attrib $-1 -1 $60 $-1 $31 1 1021385810 1021385810 -619905023 3 #
face $61 -1 $-1 $62 $63 $9 $-1 $64 forward single #
loop $65 -1 $-1 $-1 $66 $31 #
plane-surface $67 -1 $-1 0 -0.15620000000000001 0 0 -1 0 0 0 -1 forward_v I I I I #
loop_type-twe-attrib $-1 -1 $-1 $-1 $32 0 #
loop $68 -1 $-1 $-1 $69 $22 #
coedge $-1 -1 $-1 $70 $71 $72 $73 forward $32 $-1 #
surf-twe-attrib $-1 -1 $-1 $-1 $33 4 #
model_id-kcp-attrib $-1 -1 $-1 $-1 $34 1 1021385810 1021385810 -619905022 6 #
face $74 -1 $-1 $75 $76 $23 $-1 $77 reversed single #
loop $-1 -1 $-1 $-1 $78 $34 #
plane-surface $-1 -1 $-1 0 0 0.23449999999999999 0 0 1 1 0 0 forward_v I I I I #
face $-1 -1 $-1 $79 $80 $25 $-1 $81 forward single #
loop $-1 -1 $-1 $82 $83 $35 #
cone-surface $-1 -1 $-1 0 0 0.052499999999999991 0 0 1 0.0625 0 0 1 I I -0.70710678118654691 0.70710678118654813 0.0625 forward I I I I #
face $-1 -1 $-1 $84 $85 $27 $-1 $86 forward single #
loop $-1 -1 $-1 $87 $88 $36 #
cone-surface $-1 -1 $-1 0 -0.17189999999999994 0 0 1 0 0.125 0 0 1 I I 0 -1 0.125 forward I I I I #
face $-1 -1 $-1 $89 $90 $29 $-1 $91 forward single #
loop $-1 -1 $-1 $92 $93 $37 #
cone-surface $-1 -1 $-1 0 -0.42189999999999994 0 0 1 0 0.1255 0 0 1 I I 0 -1 0.1255 forward I I I I #
face_name-twe-attrib $-1 -1 $-1 $39 $31 2 #
model_id-kcp-attrib $-1 -1 $94 $-1 $40 1 1021385810 1021385810 -619905023 4 #
face $95 -1 $-1 $96 $97 $9 $-1 $98 forward single #
loop $99 -1 $-1 $-1 $72 $40 #
plane-surface $100 -1 $-1 -0.23449999999999999 0 0.23449999999999999 -1 0 0 0 0 1 forward_v I I I I #
loop_type-twe-attrib $-1 -1 $-1 $-1 $41 0 #
coedge $-1 -1 $-1 $101 $102 $103 $104 reversed $41 $-1 #
surf-twe-attrib $-1 -1 $-1 $-1 $42 6 #
loop_type-twe-attrib $-1 -1 $-1 $-1 $44 1 #
coedge $-1 -1 $-1 $69 $69 $105 $106 forward $44 $-1 #
coedge $-1 -1 $-1 $107 $45 $108 $109 forward $32 $-1 #
coedge $-1 -1 $-1 $45 $107 $110 $111 forward $32 $-1 #
coedge $-1 -1 $-1 $112 $113 $45 $73 reversed $63 $-1 #
edge $114 -1 $-1 $115 -0.46899999999999997 $116 0 $72 $117 forward @7 unknown #
model_id-kcp-attrib $-1 -1 $-1 $-1 $48 1 1021385810 1021385810 -619905022 4 #
face $118 -1 $-1 $119 $120 $23 $-1 $121 reversed single #
loop $-1 -1 $-1 $-1 $122 $48 #
plane-surface $-1 -1 $-1 0 0 -0.23449999999999999 0 0 1 1 0 0 forward_v I I I I #
coedge $-1 -1 $-1 $123 $124 $125 $126 forward $49 $-1 #
face $-1 -1 $-1 $-1 $127 $25 $-1 $128 forward single #
loop $-1 -1 $-1 $129 $130 $51 #
cone-surface $-1 -1 $-1 0 0 0 0 0 1 0.125 0 0 1 I I 0 1 0.125 forward I I I I #
loop $-1 -1 $-1 $-1 $131 $35 #
coedge $-1 -1 $-1 $83 $83 $132 $133 reversed $52 $-1 #
face $-1 -1 $-1 $134 $135 $27 $-1 $136 forward single #
loop $-1 -1 $-1 $-1 $137 $54 #
plane-surface $-1 -1 $-1 0.23449999999999999 -0.17189999999999994 -0.23449999999999999 1 0 0 0 0 -1 forward_v I I I I #
loop $-1 -1 $-1 $-1 $138 $36 #
coedge $-1 -1 $-1 $88 $88 $139 $140 forward $55 $-1 #
face $-1 -1 $-1 $141 $142 $29 $-1 $143 forward single #
loop $-1 -1 $-1 $-1 $144 $57 #
plane-surface $-1 -1 $-1 0.23449999999999999 -0.42189999999999994 -0.23449999999999999 1 0 0 0 0 -1 forward_v I I I I #
loop $-1 -1 $-1 $-1 $145 $37 #
coedge $-1 -1 $-1 $93 $93 $146 $147 forward $58 $-1 #
face_name-twe-attrib $-1 -1 $-1 $61 $40 3 #
model_id-kcp-attrib $-1 -1 $148 $-1 $62 1 1021385810 1021385810 -619905023 5 #
face $149 -1 $-1 $150 $151 $9 $-1 $152 forward single #
loop $153 -1 $-1 $-1 $110 $62 #
plane-surface $154 -1 $-1 -0.23449999999999999 0 -0.23449999999999999 0 0 -1 -1 0 0 forward_v I I I I #
loop_type-twe-attrib $-1 -1 $-1 $-1 $63 0 #
surf-twe-attrib $-1 -1 $-1 $-1 $64 10 #
coedge $-1 -1 $-1 $155 $66 $156 $157 reversed $41 $-1 #
coedge $-1 -1 $-1 $66 $155 $158 $159 reversed $41 $-1 #
coedge $-1 -1 $-1 $113 $112 $66 $104 forward $63 $-1 #
edge $160 -1 $-1 $161 -0.46899999999999997 $162 0 $103 $163 forward @7 unknown #
coedge $-1 -1 $-1 $105 $105 $69 $106 reversed $164 $-1 #
edge $165 -1 $-1 $166 -3.1415926535897931 $166 3.1415926535897931 $105 $167 forward @7 unknown #
coedge $-1 -1 $-1 $71 $70 $168 $169 forward $32 $-1 #
coedge $-1 -1 $-1 $170 $171 $70 $109 reversed $172 $-1 #
edge $173 -1 $-1 $116 -0.46899999999999997 $174 0 $108 $175 forward @7 unknown #
coedge $-1 -1 $-1 $176 $177 $71 $111 reversed $97 $-1 #
edge $178 -1 $-1 $179 -0.46899999999999997 $115 0 $110 $180 forward @7 unknown #
coedge $-1 -1 $-1 $103 $72 $177 $181 reversed $63 $-1 #
coedge $-1 -1 $-1 $72 $103 $170 $182 forward $63 $-1 #
attrib_edge_convexity-kcp-attrib $-1 -1 $183 $-1 $73 1 #
vertex $-1 -1 $-1 $181 $184 #
vertex $-1 -1 $-1 $182 $185 #
straight-curve $186 -1 $-1 -0.23449999999999999 0 0.23449999999999999 0 0 1 I I #
model_id-kcp-attrib $-1 -1 $-1 $-1 $75 1 1021385810 1021385810 -619905022 2 #
face $187 -1 $-1 $188 $189 $23 $-1 $190 reversed single #
loop $-1 -1 $-1 $-1 $191 $75 #
plane-surface $-1 -1 $-1 0 -0.57810000000000006 0 0 1 0 0 0 1 forward_v I I I I #
coedge $-1 -1 $-1 $192 $193 $194 $195 forward $76 $-1 #
coedge $-1 -1 $-1 $196 $78 $197 $198 forward $49 $-1 #
coedge $-1 -1 $-1 $78 $196 $199 $200 forward $49 $-1 #
coedge $-1 -1 $-1 $201 $202 $78 $126 reversed $203 $-1 #
edge $-1 -1 $-1 $204 -0.57810000000000006 $205 0.57810000000000006 $125 $206 forward @7 unknown #
loop $-1 -1 $-1 $207 $132 $79 #
plane-surface $-1 -1 $-1 0 0 0.010000000000000009 0 0 1 1 0 0 forward_v I I I I #
loop $-1 -1 $-1 $-1 $208 $51 #
coedge $-1 -1 $-1 $130 $130 $131 $209 reversed $80 $-1 #
coedge $-1 -1 $-1 $131 $131 $130 $209 forward $82 $-1 #
coedge $-1 -1 $-1 $132 $132 $83 $133 forward $127 $-1 #
edge $-1 -1 $-1 $210 -3.1415926535897931 $210 3.1415926535897931 $132 $211 forward @7 unknown #
face $-1 -1 $-1 $212 $213 $27 $-1 $214 forward single #
loop $-1 -1 $-1 $-1 $215 $84 #
plane-surface $-1 -1 $-1 0.23449999999999999 -0.17189999999999994 0.23449999999999999 0 0 1 1 0 0 forward_v I I I I #
coedge $-1 -1 $-1 $216 $217 $218 $219 forward $85 $-1 #
coedge $-1 -1 $-1 $138 $138 $220 $221 reversed $87 $-1 #
coedge $-1 -1 $-1 $139 $139 $88 $140 reversed $222 $-1 #
edge $-1 -1 $-1 $223 -2.2204460492503131e-016 $223 6.2831853071795862 $88 $224 forward @7 unknown #
face $-1 -1 $-1 $225 $226 $29 $-1 $227 forward single #
loop $-1 -1 $-1 $-1 $228 $89 #
plane-surface $-1 -1 $-1 0.23449999999999999 -0.42189999999999994 0.23449999999999999 0 0 1 1 0 0 forward_v I I I I #
coedge $-1 -1 $-1 $229 $230 $231 $232 forward $90 $-1 #
coedge $-1 -1 $-1 $145 $145 $233 $234 reversed $92 $-1 #
coedge $-1 -1 $-1 $146 $146 $93 $147 reversed $235 $-1 #
edge $-1 -1 $-1 $236 -3.1415926535897931 $236 3.1415926535897931 $93 $237 forward @7 unknown #
face_name-twe-attrib $-1 -1 $-1 $95 $62 4 #
model_id-kcp-attrib $-1 -1 $238 $-1 $96 1 1021385810 1021385810 -619905023 6 #
face $239 -1 $-1 $240 $172 $9 $-1 $241 forward single #
loop $242 -1 $-1 $-1 $168 $96 #
plane-surface $243 -1 $-1 0.23449999999999999 0 -0.23449999999999999 1 0 0 0 0 -1 forward_v I I I I #
loop_type-twe-attrib $-1 -1 $-1 $-1 $97 0 #
surf-twe-attrib $-1 -1 $-1 $-1 $98 18 #
coedge $-1 -1 $-1 $102 $101 $244 $245 reversed $41 $-1 #
coedge $-1 -1 $-1 $177 $176 $101 $157 forward $97 $-1 #
edge $246 -1 $-1 $247 -0.46899999999999997 $161 0 $156 $248 forward @7 unknown #
coedge $-1 -1 $-1 $171 $170 $102 $159 forward $172 $-1 #
edge $249 -1 $-1 $162 -0.46899999999999997 $250 0 $158 $251 forward @7 unknown #
attrib_edge_convexity-kcp-attrib $-1 -1 $252 $-1 $104 1 #
vertex $-1 -1 $-1 $181 $253 #
vertex $-1 -1 $-1 $182 $254 #
straight-curve $255 -1 $-1 -0.23449999999999999 -0.15620000000000001 0.23449999999999999 0 0 1 I I #
loop $256 -1 $-1 $-1 $105 $257 #
attrib_edge_convexity-kcp-attrib $-1 -1 $258 $-1 $106 2 #
vertex $-1 -1 $-1 $106 $259 #
ellipse-curve $260 -1 $-1 0 0 0 0 -1 0 0.1255 0 0 1 I I #
coedge $-1 -1 $-1 $261 $262 $107 $169 reversed $151 $-1 #
edge $263 -1 $-1 $174 -0.46899999999999997 $179 0 $168 $264 forward @7 unknown #
coedge $-1 -1 $-1 $158 $108 $113 $182 reversed $172 $-1 #
coedge $-1 -1 $-1 $108 $158 $261 $265 forward $172 $-1 #
loop $266 -1 $-1 $-1 $108 $150 #
attrib_edge_convexity-kcp-attrib $-1 -1 $267 $-1 $109 1 #
vertex $-1 -1 $-1 $265 $268 #
straight-curve $269 -1 $-1 0.23449999999999999 0 0.23449999999999999 1 0 0 I I #
coedge $-1 -1 $-1 $156 $110 $262 $270 reversed $97 $-1 #
coedge $-1 -1 $-1 $110 $156 $112 $181 forward $97 $-1 #
attrib_edge_convexity-kcp-attrib $-1 -1 $271 $-1 $111 1 #
vertex $-1 -1 $-1 $270 $272 #
straight-curve $273 -1 $-1 -0.23449999999999999 0 -0.23449999999999999 -1 0 0 I I #
edge $274 -1 $-1 $161 -0.15620000000000001 $115 0 $177 $275 forward @7 unknown #
edge $276 -1 $-1 $162 -0.15620000000000001 $116 0 $170 $277 forward @7 unknown #
convexity-sys-attrib $-1 -1 $278 $114 $73 #
point $-1 -1 $-1 -0.23449999999999999 0 -0.23449999999999999 #
point $-1 -1 $-1 -0.23449999999999999 0 0.23449999999999999 #
cur-twe-attrib $-1 -1 $-1 $-1 $117 29 #
model_id-kcp-attrib $-1 -1 $-1 $-1 $119 1 1021385810 1021385810 -619905022 3 #
face $279 -1 $-1 $280 $281 $23 $-1 $282 reversed single #
loop $-1 -1 $-1 $-1 $283 $119 #
plane-surface $-1 -1 $-1 -0.23449999999999999 0 0 1 0 0 0 0 -1 forward_v I I I I #
coedge $-1 -1 $-1 $284 $199 $285 $286 forward $120 $-1 #
coedge $-1 -1 $-1 $287 $122 $284 $288 forward $76 $-1 #
coedge $-1 -1 $-1 $122 $287 $289 $290 forward $76 $-1 #
coedge $-1 -1 $-1 $202 $201 $122 $195 reversed $203 $-1 #
edge $-1 -1 $-1 $291 -0.57810000000000006 $292 0.57810000000000006 $194 $293 forward @7 unknown #
coedge $-1 -1 $-1 $124 $123 $294 $295 forward $49 $-1 #
coedge $-1 -1 $-1 $296 $297 $123 $198 reversed $281 $-1 #
edge $-1 -1 $-1 $205 -0.23449999999999999 $298 0.23449999999999999 $197 $299 forward @7 unknown #
coedge $-1 -1 $-1 $191 $300 $124 $200 reversed $120 $-1 #
edge $-1 -1 $-1 $301 -0.23449999999999999 $204 0.23449999999999999 $199 $302 forward @7 unknown #
coedge $-1 -1 $-1 $194 $125 $300 $303 forward $203 $-1 #
coedge $-1 -1 $-1 $125 $194 $296 $304 reversed $203 $-1 #
loop $-1 -1 $-1 $-1 $201 $280 #
vertex $-1 -1 $-1 $126 $305 #
vertex $-1 -1 $-1 $126 $306 #
straight-curve $-1 -1 $-1 0.23449999999999999 0 0.23449999999999999 0 1 0 I I #
loop $-1 -1 $-1 $-1 $307 $79 #
coedge $-1 -1 $-1 $208 $208 $307 $308 reversed $129 $-1 #
edge $-1 -1 $-1 $309 0 $309 6.2831853071795862 $130 $310 forward @7 unknown #
vertex $-1 -1 $-1 $133 $311 #
ellipse-curve $-1 -1 $-1 0 0 0.010000000000000009 0 0 -1 0.1049999999999999 0 0 1 I I #
face $-1 -1 $-1 $312 $313 $27 $-1 $314 forward single #
loop $-1 -1 $-1 $-1 $315 $134 #
plane-surface $-1 -1 $-1 -0.23449999999999999 -0.17189999999999994 0.23449999999999999 -1 0 0 0 0 1 forward_v I I I I #
coedge $-1 -1 $-1 $316 $317 $318 $319 forward $135 $-1 #
coedge $-1 -1 $-1 $320 $137 $317 $321 reversed $85 $-1 #
coedge $-1 -1 $-1 $137 $320 $322 $323 forward $85 $-1 #
coedge $-1 -1 $-1 $324 $318 $137 $219 reversed $325 $-1 #
edge $-1 -1 $-1 $326 -0.23449999999999999 $327 0.23449999999999999 $137 $328 forward @7 unknown #
coedge $-1 -1 $-1 $220 $220 $138 $221 forward $329 $-1 #
edge $330 -1 $-1 $331 -1.2246465878873679e-016 $331 6.2831853071795862 $138 $332 forward @7 unknown #
loop $-1 -1 $-1 $-1 $139 $312 #
vertex $-1 -1 $-1 $140 $333 #
ellipse-curve $-1 -1 $-1 0 0.57810000000000006 0 0 1 0 0.125 0 0 1 I I #
face $-1 -1 $-1 $334 $335 $29 $-1 $336 forward single #
loop $-1 -1 $-1 $-1 $337 $141 #
plane-surface $-1 -1 $-1 -0.23449999999999999 -0.42189999999999994 0.23449999999999999 -1 0 0 0 0 1 forward_v I I I I #
coedge $-1 -1 $-1 $338 $339 $340 $341 forward $142 $-1 #
coedge $-1 -1 $-1 $342 $144 $339 $343 reversed $90 $-1 #
coedge $-1 -1 $-1 $144 $342 $344 $345 forward $90 $-1 #
coedge $-1 -1 $-1 $346 $340 $144 $232 reversed $347 $-1 #
edge $-1 -1 $-1 $348 -0.23449999999999999 $349 0.23449999999999999 $144 $350 forward @7 unknown #
coedge $-1 -1 $-1 $233 $233 $145 $234 forward $351 $-1 #
edge $352 -1 $-1 $353 -3.1415926535897931 $353 3.1415926535897931 $145 $354 forward @7 unknown #
loop $-1 -1 $-1 $-1 $146 $334 #
vertex $-1 -1 $-1 $147 $355 #
ellipse-curve $-1 -1 $-1 0 -0.17189999999999994 0 0 1 0 0.1255 0 0 1 I I #
face_name-twe-attrib $-1 -1 $-1 $149 $96 5 #
model_id-kcp-attrib $-1 -1 $356 $-1 $150 1 1021385810 1021385810 -619905023 7 #
face $357 -1 $-1 $358 $359 $9 $-1 $360 forward single #
plane-surface $361 -1 $-1 0.23449999999999999 0 0.23449999999999999 0 0 1 1 0 0 forward_v I I I I #
loop_type-twe-attrib $-1 -1 $-1 $-1 $151 0 #
surf-twe-attrib $-1 -1 $-1 $-1 $152 31 #
coedge $-1 -1 $-1 $262 $261 $155 $245 forward $151 $-1 #
edge $362 -1 $-1 $250 -0.46899999999999997 $247 0 $244 $363 forward @7 unknown #
attrib_edge_convexity-kcp-attrib $-1 -1 $364 $-1 $157 1 #
vertex $-1 -1 $-1 $270 $365 #
straight-curve $366 -1 $-1 -0.23449999999999999 -0.15620000000000001 -0.23449999999999999 -1 0 0 I I #
attrib_edge_convexity-kcp-attrib $-1 -1 $367 $-1 $159 1 #
vertex $-1 -1 $-1 $265 $368 #
straight-curve $369 -1 $-1 0.23449999999999999 -0.15620000000000001 0.23449999999999999 1 0 0 I I #
convexity-sys-attrib $-1 -1 $370 $160 $104 #
point $-1 -1 $-1 -0.23449999999999999 -0.15620000000000001 -0.23449999999999999 #
point $-1 -1 $-1 -0.23449999999999999 -0.15620000000000001 0.23449999999999999 #
cur-twe-attrib $-1 -1 $-1 $-1 $163 39 #
loop_type-twe-attrib $-1 -1 $-1 $-1 $164 1 #
face $371 -1 $-1 $-1 $372 $9 $-1 $373 forward single #
convexity-sys-attrib $-1 -1 $374 $165 $106 #
point $-1 -1 $-1 -0.1255 0 0 #
cur-twe-attrib $-1 -1 $-1 $-1 $167 41 #
coedge $-1 -1 $-1 $244 $168 $171 $265 reversed $151 $-1 #
coedge $-1 -1 $-1 $168 $244 $176 $270 forward $151 $-1 #
attrib_edge_convexity-kcp-attrib $-1 -1 $375 $-1 $169 1 #
straight-curve $376 -1 $-1 0.23449999999999999 0 -0.23449999999999999 0 0 -1 I I #
edge $377 -1 $-1 $250 -0.15620000000000001 $174 0 $171 $378 forward @7 unknown #
loop_type-twe-attrib $-1 -1 $-1 $-1 $172 0 #
convexity-sys-attrib $-1 -1 $379 $173 $109 #
point $-1 -1 $-1 0.23449999999999999 0 0.23449999999999999 #
cur-twe-attrib $-1 -1 $-1 $-1 $175 44 #
edge $380 -1 $-1 $247 -0.15620000000000001 $179 0 $262 $381 forward @7 unknown #
convexity-sys-attrib $-1 -1 $382 $178 $111 #
point $-1 -1 $-1 0.23449999999999999 0 -0.23449999999999999 #
cur-twe-attrib $-1 -1 $-1 $-1 $180 46 #
attrib_edge_convexity-kcp-attrib $-1 -1 $383 $-1 $181 1 #
straight-curve $384 -1 $-1 -0.23449999999999999 0 -0.23449999999999999 0 1 0 I I #
attrib_edge_convexity-kcp-attrib $-1 -1 $385 $-1 $182 1 #
straight-curve $386 -1 $-1 -0.23449999999999999 0 0.23449999999999999 0 1 0 I I #
edge_name-twe-attrib $-1 -1 $-1 $183 $73 1 8704 #
model_id-kcp-attrib $-1 -1 $-1 $-1 $188 1 1021385810 1021385810 -619905022 7 #
face $387 -1 $-1 $-1 $203 $23 $-1 $388 reversed single #
loop $-1 -1 $-1 $-1 $296 $188 #
plane-surface $-1 -1 $-1 0 0.57810000000000006 0 0 -1 0 0 0 -1 forward_v I I I I #
coedge $-1 -1 $-1 $389 $294 $297 $390 forward $189 $-1 #
coedge $-1 -1 $-1 $300 $191 $192 $288 reversed $120 $-1 #
coedge $-1 -1 $-1 $294 $389 $191 $286 reversed $189 $-1 #
edge $-1 -1 $-1 $301 -0.23449999999999999 $391 0.23449999999999999 $285 $392 forward @7 unknown #
coedge $-1 -1 $-1 $193 $192 $389 $393 forward $76 $-1 #
edge $-1 -1 $-1 $292 -0.23449999999999999 $391 0.23449999999999999 $284 $394 forward @7 unknown #
coedge $-1 -1 $-1 $297 $296 $193 $290 reversed $281 $-1 #
edge $-1 -1 $-1 $395 -0.23449999999999999 $291 0.23449999999999999 $289 $396 forward @7 unknown #
vertex $-1 -1 $-1 $195 $397 #
vertex $-1 -1 $-1 $303 $398 #
straight-curve $-1 -1 $-1 0.23449999999999999 0 -0.23449999999999999 0 -1 0 I I #
coedge $-1 -1 $-1 $283 $285 $196 $295 reversed $189 $-1 #
edge $-1 -1 $-1 $298 -0.57810000000000006 $301 0.57810000000000006 $294 $399 forward @7 unknown #
coedge $-1 -1 $-1 $289 $197 $202 $304 forward $281 $-1 #
coedge $-1 -1 $-1 $197 $289 $283 $390 reversed $281 $-1 #
vertex $-1 -1 $-1 $198 $400 #
straight-curve $-1 -1 $-1 0 0.57810000000000006 0.23449999999999999 -1 0 0 I I #
coedge $-1 -1 $-1 $199 $284 $201 $303 reversed $120 $-1 #
vertex $-1 -1 $-1 $295 $401 #
straight-curve $-1 -1 $-1 0 -0.57810000000000006 0.23449999999999999 1 0 0 I I #
edge $-1 -1 $-1 $204 -0.23449999999999999 $292 0.23449999999999999 $201 $402 forward @7 unknown #
edge $-1 -1 $-1 $205 -0.23449999999999999 $291 0.23449999999999999 $202 $403 forward @7 unknown #
point $-1 -1 $-1 0.23449999999999999 -0.57810000000000006 0.23449999999999999 #
point $-1 -1 $-1 0.23449999999999999 0.57810000000000006 0.23449999999999999 #
coedge $-1 -1 $-1 $307 $307 $208 $308 forward $207 $-1 #
edge $-1 -1 $-1 $404 0 $404 6.2831853071795862 $307 $405 forward @7 unknown #
vertex $-1 -1 $-1 $209 $406 #
ellipse-curve $-1 -1 $-1 0 0 -0.010000000000000009 0 0 -1 0.125 0 0 1 I I #
point $-1 -1 $-1 -0.1049999999999999 1.2858366715134949e-017 0.010000000000000009 #
face $-1 -1 $-1 $407 $325 $27 $-1 $408 forward single #
loop $-1 -1 $-1 $-1 $409 $212 #
plane-surface $-1 -1 $-1 -0.23449999999999999 -0.17189999999999994 -0.23449999999999999 0 0 -1 -1 0 0 forward_v I I I I #
coedge $-1 -1 $-1 $410 $411 $412 $413 forward $213 $-1 #
coedge $-1 -1 $-1 $414 $215 $411 $415 reversed $135 $-1 #
coedge $-1 -1 $-1 $215 $414 $216 $321 forward $135 $-1 #
coedge $-1 -1 $-1 $218 $412 $215 $319 reversed $325 $-1 #
edge $-1 -1 $-1 $327 -0.23449999999999999 $416 0.23449999999999999 $215 $417 forward @7 unknown #
coedge $-1 -1 $-1 $217 $216 $418 $419 reversed $85 $-1 #
edge $-1 -1 $-1 $420 0 $327 0.75 $317 $421 forward @7 unknown #
coedge $-1 -1 $-1 $422 $409 $217 $323 reversed $313 $-1 #
edge $-1 -1 $-1 $423 0 $326 0.75 $217 $424 forward @7 unknown #
coedge $-1 -1 $-1 $412 $218 $409 $425 reversed $325 $-1 #
loop $-1 -1 $-1 $222 $218 $312 #
vertex $-1 -1 $-1 $323 $426 #
vertex $-1 -1 $-1 $321 $427 #
straight-curve $-1 -1 $-1 0.23449999999999999 0.57810000000000006 0 0 0 1 I I #
loop $-1 -1 $-1 $-1 $220 $407 #
convexity-sys-attrib $-1 -1 $-1 $-1 $221 #
vertex $-1 -1 $-1 $221 $428 #
ellipse-curve $-1 -1 $-1 0 -0.17189999999999994 0 0 1 0 0.125 0 0 1 I I #
point $-1 -1 $-1 0.125 0.57810000000000006 2.7755575615628914e-017 #
face $-1 -1 $-1 $429 $347 $29 $-1 $430 forward single #
loop $-1 -1 $-1 $-1 $431 $225 #
plane-surface $-1 -1 $-1 -0.23449999999999999 -0.42189999999999994 -0.23449999999999999 0 0 -1 -1 0 0 forward_v I I I I #
coedge $-1 -1 $-1 $432 $433 $434 $435 forward $226 $-1 #
coedge $-1 -1 $-1 $436 $228 $433 $437 reversed $142 $-1 #
coedge $-1 -1 $-1 $228 $436 $229 $343 forward $142 $-1 #
coedge $-1 -1 $-1 $231 $434 $228 $341 reversed $347 $-1 #
edge $-1 -1 $-1 $349 -0.23449999999999999 $438 0.23449999999999999 $228 $439 forward @7 unknown #
coedge $-1 -1 $-1 $230 $229 $440 $441 reversed $90 $-1 #
edge $-1 -1 $-1 $442 0 $349 0.25 $339 $443 forward @7 unknown #
coedge $-1 -1 $-1 $444 $431 $230 $345 reversed $335 $-1 #
edge $-1 -1 $-1 $445 0 $348 0.25 $230 $446 forward @7 unknown #
coedge $-1 -1 $-1 $434 $231 $431 $447 reversed $347 $-1 #
loop $-1 -1 $-1 $235 $231 $334 #
vertex $-1 -1 $-1 $345 $448 #
vertex $-1 -1 $-1 $343 $449 #
straight-curve $-1 -1 $-1 0.23449999999999999 -0.17189999999999994 0 0 0 1 I I #
loop $-1 -1 $-1 $-1 $233 $429 #
convexity-sys-attrib $-1 -1 $-1 $-1 $234 #
vertex $-1 -1 $-1 $234 $450 #
ellipse-curve $-1 -1 $-1 0 -0.42189999999999994 0 0 1 0 0.1255 0 0 1 I I #
point $-1 -1 $-1 -0.1255 -0.1719 0 #
face_name-twe-attrib $-1 -1 $-1 $239 $150 6 #
model_id-kcp-attrib $-1 -1 $451 $-1 $240 1 1021385810 1021385810 -619905023 8 #
face $452 -1 $-1 $453 $454 $9 $-1 $455 forward single #
loop $456 -1 $-1 $-1 $457 $240 #
plane-surface $458 -1 $-1 0 1 0 0 1 0 0 0 1 forward_v I I I I #
surf-twe-attrib $-1 -1 $-1 $-1 $241 54 #
attrib_edge_convexity-kcp-attrib $-1 -1 $459 $-1 $245 1 #
straight-curve $460 -1 $-1 0.23449999999999999 -0.15620000000000001 -0.23449999999999999 0 0 -1 I I #
convexity-sys-attrib $-1 -1 $461 $246 $157 #
point $-1 -1 $-1 0.23449999999999999 -0.15620000000000001 -0.23449999999999999 #
cur-twe-attrib $-1 -1 $-1 $-1 $248 61 #
convexity-sys-attrib $-1 -1 $462 $249 $159 #
point $-1 -1 $-1 0.23449999999999999 -0.15620000000000001 0.23449999999999999 #
cur-twe-attrib $-1 -1 $-1 $-1 $251 63 #
edge_name-twe-attrib $-1 -1 $-1 $252 $104 2 8704 #
model_id-kcp-attrib $-1 -1 $463 $-1 $257 1 1021385810 1021385810 -619905023 12 #
loop $464 -1 $-1 $164 $465 $257 #
cone-surface $466 -1 $-1 0 -0.050000000000000003 0 0 1 0 0.1255 0 0 1 I I 0 1 0.1255 forward I I I I #
edge_name-twe-attrib $-1 -1 $-1 $258 $106 17 4608 #
convexity-sys-attrib $-1 -1 $467 $263 $169 #
cur-twe-attrib $-1 -1 $-1 $-1 $264 73 #
edge_name-twe-attrib $-1 -1 $-1 $-1 $265 12 8704 #
straight-curve $468 -1 $-1 0.23449999999999999 0 0.23449999999999999 0 1 0 I I #
edge_name-twe-attrib $-1 -1 $-1 $267 $109 9 8704 #
attrib_edge_convexity-kcp-attrib $-1 -1 $469 $-1 $270 1 #
straight-curve $470 -1 $-1 0.23449999999999999 0 -0.23449999999999999 0 1 0 I I #
edge_name-twe-attrib $-1 -1 $-1 $271 $111 3 8704 #
convexity-sys-attrib $-1 -1 $471 $274 $181 #
cur-twe-attrib $-1 -1 $-1 $-1 $275 85 #
convexity-sys-attrib $-1 -1 $472 $276 $182 #
cur-twe-attrib $-1 -1 $-1 $-1 $277 86 #
model_id-kcp-attrib $-1 -1 $-1 $-1 $280 1 1021385810 1021385810 -619905022 5 #
plane-surface $-1 -1 $-1 0.23449999999999999 0 0 -1 0 0 0 0 1 forward_v I I I I #
coedge $-1 -1 $-1 $285 $283 $287 $393 reversed $189 $-1 #
edge $-1 -1 $-1 $298 -0.23449999999999999 $395 0.23449999999999999 $297 $473 forward @7 unknown #
vertex $-1 -1 $-1 $393 $474 #
straight-curve $-1 -1 $-1 -0.23449999999999999 -0.57810000000000006 0 0 0 -1 I I #
edge $-1 -1 $-1 $391 -0.57810000000000006 $395 0.57810000000000006 $389 $475 forward @7 unknown #
straight-curve $-1 -1 $-1 0 -0.57810000000000006 -0.23449999999999999 -1 0 0 I I #
vertex $-1 -1 $-1 $290 $476 #
straight-curve $-1 -1 $-1 0 0.57810000000000006 -0.23449999999999999 1 0 0 I I #
point $-1 -1 $-1 0.23449999999999999 0.57810000000000006 -0.23449999999999999 #
point $-1 -1 $-1 0.23449999999999999 -0.57810000000000006 -0.23449999999999999 #
straight-curve $-1 -1 $-1 -0.23449999999999999 0 0.23449999999999999 0 -1 0 I I #
point $-1 -1 $-1 -0.23449999999999999 0.57810000000000006 0.23449999999999999 #
point $-1 -1 $-1 -0.23449999999999999 -0.57810000000000006 0.23449999999999999 #
straight-curve $-1 -1 $-1 0.23449999999999999 -0.57810000000000006 0 0 0 -1 I I #
straight-curve $-1 -1 $-1 0.23449999999999999 0.57810000000000006 0 0 0 -1 I I #
vertex $-1 -1 $-1 $308 $477 #
ellipse-curve $-1 -1 $-1 0 0 0.010000000000000009 0 0 1 0.125 0 0 1 I I #
point $-1 -1 $-1 0.125 0 -0.010000000000000009 #
face $-1 -1 $-1 $-1 $478 $27 $-1 $479 reversed single #
plane-surface $-1 -1 $-1 0.0033534926311526193 0.57810000000000006 -9.5726752375086465e-019 2.4820864672422419e-034 1 9.9283458689689626e-034 0 -9.9283458689689626e-034 1 forward_v I I I I #
coedge $-1 -1 $-1 $322 $480 $324 $425 forward $313 $-1 #
coedge $-1 -1 $-1 $481 $315 $480 $482 reversed $213 $-1 #
coedge $-1 -1 $-1 $315 $481 $316 $415 forward $213 $-1 #
coedge $-1 -1 $-1 $318 $324 $315 $413 reversed $325 $-1 #
edge $-1 -1 $-1 $416 -0.23449999999999999 $483 0.23449999999999999 $315 $484 forward @7 unknown #
coedge $-1 -1 $-1 $317 $316 $485 $486 reversed $135 $-1 #
edge $-1 -1 $-1 $487 0 $416 0.75 $411 $488 forward @7 unknown #
vertex $-1 -1 $-1 $415 $489 #
straight-curve $-1 -1 $-1 0 0.57810000000000006 0.23449999999999999 -1 0 0 I I #
coedge $-1 -1 $-1 $485 $490 $320 $419 forward $478 $-1 #
edge $491 -1 $-1 $423 -0.23449999999999999 $420 0.23449999999999999 $320 $492 forward @7 unknown #
vertex $-1 -1 $-1 $419 $493 #
straight-curve $-1 -1 $-1 0.23449999999999999 -0.17189999999999994 0.23449999999999999 0 1 0 I I #
coedge $-1 -1 $-1 $480 $322 $490 $494 reversed $313 $-1 #
vertex $-1 -1 $-1 $494 $495 #
straight-curve $-1 -1 $-1 0.23449999999999999 -0.17189999999999994 -0.23449999999999999 0 1 0 I I #
edge $-1 -1 $-1 $483 -0.23449999999999999 $326 0.23449999999999999 $409 $496 forward @7 unknown #
point $-1 -1 $-1 0.23449999999999999 0.57810000000000006 -0.23449999999999999 #
point $-1 -1 $-1 0.23449999999999999 0.57810000000000006 0.23449999999999999 #
point $-1 -1 $-1 0.125 -0.1719 1.5308082348592099e-017 #
face $-1 -1 $-1 $-1 $497 $29 $-1 $498 reversed single #
plane-surface $-1 -1 $-1 -0.0033763886396470546 -0.17189999999999989 -1.4432648578050302e-018 -3.1757890977853533e-032 1 1.1909209116695069e-032 0 -1.1909209116695069e-032 1 forward_v I I I I #
coedge $-1 -1 $-1 $344 $499 $346 $447 forward $335 $-1 #
coedge $-1 -1 $-1 $500 $337 $499 $501 reversed $226 $-1 #
coedge $-1 -1 $-1 $337 $500 $338 $437 forward $226 $-1 #
coedge $-1 -1 $-1 $340 $346 $337 $435 reversed $347 $-1 #
edge $-1 -1 $-1 $438 -0.23449999999999999 $502 0.23449999999999999 $337 $503 forward @7 unknown #
coedge $-1 -1 $-1 $339 $338 $504 $505 reversed $142 $-1 #
edge $-1 -1 $-1 $506 0 $438 0.25 $433 $507 forward @7 unknown #
vertex $-1 -1 $-1 $437 $508 #
straight-curve $-1 -1 $-1 0 -0.17189999999999994 0.23449999999999999 -1 0 0 I I #
coedge $-1 -1 $-1 $504 $509 $342 $441 forward $497 $-1 #
edge $510 -1 $-1 $445 -0.23449999999999999 $442 0.23449999999999999 $342 $511 forward @7 unknown #
vertex $-1 -1 $-1 $441 $512 #
straight-curve $-1 -1 $-1 0.23449999999999999 -0.42189999999999994 0.23449999999999999 0 1 0 I I #
coedge $-1 -1 $-1 $499 $344 $509 $513 reversed $335 $-1 #
vertex $-1 -1 $-1 $513 $514 #
straight-curve $-1 -1 $-1 0.23449999999999999 -0.42189999999999994 -0.23449999999999999 0 1 0 I I #
edge $-1 -1 $-1 $502 -0.23449999999999999 $348 0.23449999999999999 $431 $515 forward @7 unknown #
point $-1 -1 $-1 0.23449999999999999 -0.17189999999999994 -0.23449999999999999 #
point $-1 -1 $-1 0.23449999999999999 -0.17189999999999994 0.23449999999999999 #
point $-1 -1 $-1 -0.1255 -0.4219 0 #
face_name-twe-attrib $-1 -1 $-1 $357 $240 7 #
model_id-kcp-attrib $-1 -1 $516 $-1 $358 1 1021385810 1021385810 -619905023 9 #
face $517 -1 $-1 $518 $519 $9 $-1 $520 forward single #
loop $521 -1 $-1 $522 $523 $358 #
plane-surface $524 -1 $-1 0 0.25 0 0 1 0 0 0 1 forward_v I I I I #
loop_type-twe-attrib $-1 -1 $-1 $-1 $359 0 #
coedge $-1 -1 $-1 $457 $457 $525 $526 forward $359 $-1 #
surf-twe-attrib $-1 -1 $-1 $-1 $360 91 #
convexity-sys-attrib $-1 -1 $527 $362 $245 #
cur-twe-attrib $-1 -1 $-1 $-1 $363 96 #
edge_name-twe-attrib $-1 -1 $-1 $364 $157 4 8704 #
edge_name-twe-attrib $-1 -1 $-1 $367 $159 11 8704 #
face_name-twe-attrib $-1 -1 $-1 $371 $257 11 #
loop_type-twe-attrib $-1 -1 $-1 $-1 $372 0 #
coedge $-1 -1 $-1 $465 $465 $528 $529 reversed $372 $-1 #
surf-twe-attrib $-1 -1 $-1 $-1 $373 107 #
edge_name-twe-attrib $-1 -1 $-1 $375 $169 6 8704 #
cur-twe-attrib $-1 -1 $-1 $-1 $378 114 #
convexity-sys-attrib $-1 -1 $530 $380 $270 #
cur-twe-attrib $-1 -1 $-1 $-1 $381 118 #
edge_name-twe-attrib $-1 -1 $-1 $383 $181 5 8704 #
edge_name-twe-attrib $-1 -1 $-1 $385 $182 10 8704 #
straight-curve $-1 -1 $-1 -0.23449999999999999 0.57810000000000006 0 0 0 -1 I I #
point $-1 -1 $-1 -0.23449999999999999 -0.57810000000000006 -0.23449999999999999 #
straight-curve $-1 -1 $-1 -0.23449999999999999 0 -0.23449999999999999 0 1 0 I I #
point $-1 -1 $-1 -0.23449999999999999 0.57810000000000006 -0.23449999999999999 #
point $-1 -1 $-1 0.125 0 0.010000000000000009 #
loop $-1 -1 $-1 $329 $490 $407 #
plane-surface $-1 -1 $-1 0.0033534926311526193 -0.17189999999999994 -9.5726752375086465e-019 2.4820864672422419e-034 1 9.9283458689689626e-034 0 -9.9283458689689626e-034 1 forward_v I I I I #
coedge $-1 -1 $-1 $409 $422 $410 $482 forward $313 $-1 #
coedge $-1 -1 $-1 $411 $410 $531 $532 reversed $213 $-1 #
edge $-1 -1 $-1 $533 0 $483 0.75 $480 $534 forward @7 unknown #
vertex $-1 -1 $-1 $482 $535 #
straight-curve $-1 -1 $-1 -0.23449999999999999 0.57810000000000006 0 0 0 -1 I I #
coedge $-1 -1 $-1 $531 $418 $414 $486 forward $478 $-1 #
edge $536 -1 $-1 $420 -0.23449999999999999 $487 0.23449999999999999 $414 $537 forward @7 unknown #
vertex $-1 -1 $-1 $486 $538 #
straight-curve $-1 -1 $-1 -0.23449999999999999 -0.17189999999999994 0.23449999999999999 0 1 0 I I #
point $-1 -1 $-1 -0.23449999999999999 0.57810000000000006 0.23449999999999999 #
coedge $-1 -1 $-1 $418 $531 $422 $494 forward $478 $-1 #
convexity-sys-attrib $-1 -1 $-1 $-1 $419 #
straight-curve $-1 -1 $-1 0.23449999999999999 -0.17189999999999994 0 0 0 1 I I #
point $-1 -1 $-1 0.23449999999999999 -0.17189999999999994 0.23449999999999999 #
edge $539 -1 $-1 $533 -0.23449999999999999 $423 0.23449999999999999 $422 $540 forward @7 unknown #
point $-1 -1 $-1 0.23449999999999999 -0.17189999999999994 -0.23449999999999999 #
straight-curve $-1 -1 $-1 0 0.57810000000000006 -0.23449999999999999 1 0 0 I I #
loop $-1 -1 $-1 $351 $509 $429 #
plane-surface $-1 -1 $-1 -0.0033763886396470546 -0.42189999999999989 -1.4432648578050302e-018 -3.1757890977853533e-032 1 1.1909209116695069e-032 0 -1.1909209116695069e-032 1 forward_v I I I I #
coedge $-1 -1 $-1 $431 $444 $432 $501 forward $335 $-1 #
coedge $-1 -1 $-1 $433 $432 $541 $542 reversed $226 $-1 #
edge $-1 -1 $-1 $543 0 $502 0.25 $499 $544 forward @7 unknown #
vertex $-1 -1 $-1 $501 $545 #
straight-curve $-1 -1 $-1 -0.23449999999999999 -0.17189999999999994 0 0 0 -1 I I #
coedge $-1 -1 $-1 $541 $440 $436 $505 forward $497 $-1 #
edge $546 -1 $-1 $442 -0.23449999999999999 $506 0.23449999999999999 $436 $547 forward @7 unknown #
vertex $-1 -1 $-1 $505 $548 #
straight-curve $-1 -1 $-1 -0.23449999999999999 -0.42189999999999994 0.23449999999999999 0 1 0 I I #
point $-1 -1 $-1 -0.23449999999999999 -0.17189999999999994 0.23449999999999999 #
coedge $-1 -1 $-1 $440 $541 $444 $513 forward $497 $-1 #
convexity-sys-attrib $-1 -1 $-1 $-1 $441 #
straight-curve $-1 -1 $-1 0.23449999999999999 -0.42189999999999994 0 0 0 1 I I #
point $-1 -1 $-1 0.23449999999999999 -0.42189999999999994 0.23449999999999999 #
edge $549 -1 $-1 $543 -0.23449999999999999 $445 0.23449999999999999 $444 $550 forward @7 unknown #
point $-1 -1 $-1 0.23449999999999999 -0.42189999999999994 -0.23449999999999999 #
straight-curve $-1 -1 $-1 0 -0.17189999999999994 -0.23449999999999999 1 0 0 I I #
face_name-twe-attrib $-1 -1 $-1 $452 $358 8 #
model_id-kcp-attrib $-1 -1 $551 $-1 $453 1 1021385810 1021385810 -619905023 10 #
face $552 -1 $-1 $257 $553 $9 $-1 $554 forward single #
loop $555 -1 $-1 $556 $525 $453 #
cone-surface $557 -1 $-1 0 0.97999999999999998 0 0 -1 0 -0.125 0 0 1 I I 0.70710678118654702 0.70710678118654802 0.125 forward I I I I #
loop_type-twe-attrib $-1 -1 $-1 $-1 $454 1 #
loop $558 -1 $-1 $-1 $528 $358 #
coedge $-1 -1 $-1 $523 $523 $559 $560 forward $454 $-1 #
surf-twe-attrib $-1 -1 $-1 $-1 $455 126 #
coedge $-1 -1 $-1 $525 $525 $457 $526 reversed $519 $-1 #
edge $561 -1 $-1 $562 0 $562 6.2831853071795862 $525 $563 forward @7 unknown #
edge_name-twe-attrib $-1 -1 $-1 $459 $245 7 8704 #
coedge $-1 -1 $-1 $528 $528 $465 $529 forward $522 $-1 #
edge $564 -1 $-1 $565 0 $565 6.2831853071795862 $465 $566 forward @7 unknown #
edge_name-twe-attrib $-1 -1 $-1 $469 $270 8 8704 #
coedge $-1 -1 $-1 $490 $485 $481 $532 forward $478 $-1 #
edge $567 -1 $-1 $487 -0.23449999999999999 $533 0.23449999999999999 $481 $568 forward @7 unknown #
vertex $-1 -1 $-1 $494 $569 #
straight-curve $-1 -1 $-1 -0.23449999999999999 -0.17189999999999994 -0.23449999999999999 0 1 0 I I #
point $-1 -1 $-1 -0.23449999999999999 0.57810000000000006 -0.23449999999999999 #
convexity-sys-attrib $-1 -1 $-1 $-1 $486 #
straight-curve $-1 -1 $-1 0 -0.17189999999999994 0.23449999999999999 -1 0 0 I I #
point $-1 -1 $-1 -0.23449999999999999 -0.17189999999999994 0.23449999999999999 #
convexity-sys-attrib $-1 -1 $-1 $-1 $494 #
straight-curve $-1 -1 $-1 0 -0.17189999999999994 -0.23449999999999999 1 0 0 I I #
coedge $-1 -1 $-1 $509 $504 $500 $542 forward $497 $-1 #
edge $570 -1 $-1 $506 -0.23449999999999999 $543 0.23449999999999999 $500 $571 forward @7 unknown #
vertex $-1 -1 $-1 $513 $572 #
straight-curve $-1 -1 $-1 -0.23449999999999999 -0.42189999999999994 -0.23449999999999999 0 1 0 I I #
point $-1 -1 $-1 -0.23449999999999999 -0.17189999999999994 -0.23449999999999999 #
convexity-sys-attrib $-1 -1 $-1 $-1 $505 #
straight-curve $-1 -1 $-1 0 -0.42189999999999994 0.23449999999999999 -1 0 0 I I #
point $-1 -1 $-1 -0.23449999999999999 -0.42189999999999994 0.23449999999999999 #
convexity-sys-attrib $-1 -1 $-1 $-1 $513 #
straight-curve $-1 -1 $-1 0 -0.42189999999999994 -0.23449999999999999 1 0 0 I I #
face_name-twe-attrib $-1 -1 $-1 $517 $453 9 #
model_id-kcp-attrib $-1 -1 $573 $-1 $518 1 1021385810 1021385810 -619905023 11 #
loop $574 -1 $-1 $575 $576 $518 #
cone-surface $577 -1 $-1 0 -0.050000000000000003 0 0 1 0 0.125 0 0 1 I I 0 1 0.125 forward I I I I #
loop_type-twe-attrib $-1 -1 $-1 $-1 $519 0 #
loop $578 -1 $-1 $-1 $579 $453 #
surf-twe-attrib $-1 -1 $-1 $-1 $520 147 #
loop_type-twe-attrib $-1 -1 $-1 $-1 $522 0 #
coedge $-1 -1 $-1 $559 $559 $523 $560 reversed $575 $-1 #
edge $580 -1 $-1 $581 -3.1415926535897931 $581 3.1415926535897931 $523 $582 forward @7 unknown #
attrib_edge_convexity-kcp-attrib $-1 -1 $583 $-1 $526 1 #
vertex $-1 -1 $-1 $526 $584 #
ellipse-curve $585 -1 $-1 0 1 0 0 1 0 -0.105 0 0 1 I I #
attrib_edge_convexity-kcp-attrib $-1 -1 $586 $-1 $529 1 #
vertex $-1 -1 $-1 $529 $587 #
ellipse-curve $588 -1 $-1 0 0.25 0 0 1 0 -0.1255 0 0 1 I I #
convexity-sys-attrib $-1 -1 $-1 $-1 $532 #
straight-curve $-1 -1 $-1 -0.23449999999999999 -0.17189999999999994 0 0 0 -1 I I #
point $-1 -1 $-1 -0.23449999999999999 -0.17189999999999994 -0.23449999999999999 #
convexity-sys-attrib $-1 -1 $-1 $-1 $542 #
straight-curve $-1 -1 $-1 -0.23449999999999999 -0.42189999999999994 0 0 0 -1 I I #
point $-1 -1 $-1 -0.23449999999999999 -0.42189999999999994 -0.23449999999999999 #
face_name-twe-attrib $-1 -1 $-1 $552 $518 10 #
loop_type-twe-attrib $-1 -1 $-1 $-1 $553 0 #
loop $589 -1 $-1 $-1 $559 $518 #
coedge $-1 -1 $-1 $576 $576 $579 $590 reversed $553 $-1 #
surf-twe-attrib $-1 -1 $-1 $-1 $554 160 #
loop_type-twe-attrib $-1 -1 $-1 $-1 $556 1 #
coedge $-1 -1 $-1 $579 $579 $576 $590 forward $556 $-1 #
attrib_edge_convexity-kcp-attrib $-1 -1 $591 $-1 $560 2 #
vertex $-1 -1 $-1 $560 $592 #
ellipse-curve $593 -1 $-1 0 0.25 0 0 -1 0 -0.125 0 0 1 I I #
convexity-sys-attrib $-1 -1 $594 $561 $526 #
point $-1 -1 $-1 -0.105 1 0 #
cur-twe-attrib $-1 -1 $-1 $-1 $563 168 #
convexity-sys-attrib $-1 -1 $595 $564 $529 #
point $-1 -1 $-1 -0.1255 0.25 0 #
cur-twe-attrib $-1 -1 $-1 $-1 $566 170 #
loop_type-twe-attrib $-1 -1 $-1 $-1 $575 1 #
edge $596 -1 $-1 $597 -3.1415926535897931 $597 3.1415926535897931 $576 $598 forward @7 unknown #
convexity-sys-attrib $-1 -1 $599 $580 $560 #
point $-1 -1 $-1 0.125 0.25 1.5308082348592099e-017 #
cur-twe-attrib $-1 -1 $-1 $-1 $582 179 #
edge_name-twe-attrib $-1 -1 $-1 $583 $526 14 8448 #
edge_name-twe-attrib $-1 -1 $-1 $586 $529 16 8704 #
attrib_edge_convexity-kcp-attrib $-1 -1 $600 $-1 $590 1 #
vertex $-1 -1 $-1 $590 $601 #
ellipse-curve $602 -1 $-1 0 0.97999999999999998 0 0 1 0 -0.125 0 0 1 I I #
edge_name-twe-attrib $-1 -1 $-1 $591 $560 13 4608 #
convexity-sys-attrib $-1 -1 $603 $596 $590 #
point $-1 -1 $-1 0.125 0.97999999999999998 1.5308082348592099e-017 #
cur-twe-attrib $-1 -1 $-1 $-1 $598 200 #
edge_name-twe-attrib $-1 -1 $-1 $600 $590 15 8448 #
End-of-ACIS-data 