600 0 1 0           
124 GICL ACIS Healer - Source: /gicl/data5/repository/tar/spectrometer-new/flange_pt202_16_right/flange_pt202_16_right.sat - 6 0 18 ACIS 6.0.3 Solaris 24 Sun Apr 14 00:13:46 2002 
1 9.999999999999999547e-07 1.000000000000000036e-10 
body $-1 $1 $-1 $-1 #
lump $-1 $-1 $2 $0 #
shell $-1 $-1 $-1 $3 $-1 $1 #
face $-1 $4 $5 $2 $-1 $6 reversed single #
face $-1 $7 $8 $2 $-1 $9 forward single #
loop $-1 $-1 $10 $3 #
plane-surface $-1 5.133106914189776049 -1.5625 5.283293085810223388 0 1 0 -0.7071067811865474617 0 -0.7071067811865474617 forward_v I I I I #
face $-1 $11 $12 $2 $-1 $13 forward single #
loop $-1 $-1 $14 $4 #
plane-surface $-1 5.133106914189776049 1.5625 5.283293085810223388 0 1 0 -0.7071067811865474617 0 -0.7071067811865474617 forward_v I I I I #
coedge $-1 $10 $10 $15 $16 forward $5 $-1 #
face $-1 $17 $18 $2 $-1 $19 forward single #
loop $-1 $20 $21 $7 #
plane-surface $-1 4.927658828998135121 0 6.052658828998135121 0.7071067811865474617 0 0.7071067811865474617 0.7071067811865474617 0 -0.7071067811865474617 forward_v I I I I #
coedge $-1 $14 $14 $22 $23 reversed $8 $-1 #
coedge $-1 $15 $15 $10 $16 reversed $24 $-1 #
edge $-1 $25 -3.141592653589799777 $25 3.141592653589786455 $15 $26 forward 7 unknown #
face $-1 $27 $28 $2 $-1 $19 forward single #
loop $-1 $-1 $29 $11 #
plane-surface $-1 4.928542712474619059 0 6.053542712474619059 0.7071067811865474617 0 0.7071067811865474617 0.7071067811865474617 0 -0.7071067811865474617 forward_v I I I I #
loop $-1 $-1 $30 $7 #
coedge $-1 $21 $21 $31 $32 reversed $12 $-1 #
coedge $-1 $22 $22 $14 $23 forward $33 $-1 #
edge $-1 $34 -6.6313528998559424e-15 $34 6.283185307179580015 $22 $35 forward 7 unknown #
loop $-1 $36 $15 $37 #
vertex $-1 $16 $38 #
ellipse-curve $-1 5.173201658765163913 -1.5625 5.724030952441687248 -0 -1 0 0.06717514421272201275 0 -0.06717514421272201275 1 I I #
face $-1 $39 $40 $2 $-1 $19 forward single #
loop $-1 $-1 $41 $17 #
coedge $-1 $29 $29 $42 $43 reversed $18 $-1 #
coedge $-1 $30 $30 $44 $45 reversed $20 $-1 #
coedge $-1 $31 $31 $21 $32 forward $46 $-1 #
edge $-1 $47 0 $47 6.283185307179586232 $31 $48 forward 7 unknown #
loop $-1 $49 $22 $50 #
vertex $-1 $23 $51 #
ellipse-curve $-1 5.173201658765163913 1.5625 5.724030952441687248 -0 -1 0 -0.06717514421272201275 0 0.06717514421272201275 1 I I #
loop $-1 $-1 $52 $37 #
face $-1 $53 $24 $2 $-1 $54 reversed single #
point $-1 5.106026514552442386 -1.5625 5.791206096654409663 #
face $-1 $55 $56 $2 $-1 $57 reversed single #
loop $-1 $-1 $58 $27 #
coedge $-1 $41 $41 $59 $60 reversed $28 $-1 #
coedge $-1 $42 $42 $29 $43 forward $61 $-1 #
edge $-1 $62 0 $62 6.283185307179586232 $42 $63 forward 7 unknown #
coedge $-1 $44 $44 $30 $45 forward $64 $-1 #
edge $-1 $65 0 $65 6.283185307179586232 $44 $66 forward 7 unknown #
loop $-1 $67 $31 $68 #
vertex $-1 $32 $69 #
ellipse-curve $-1 4.927658828998135121 -1.875 6.052658828998135121 0.7071067811865474617 0 0.7071067811865474617 0.09943689110435824374 0 -0.09943689110435824374 1 I I #
loop $-1 $-1 $70 $50 #
face $-1 $71 $33 $2 $-1 $72 reversed single #
point $-1 5.106026514552442386 1.5625 5.791206096654409663 #
coedge $-1 $52 $52 $73 $74 forward $36 $-1 #
face $-1 $75 $76 $2 $-1 $77 reversed single #
cone-surface $-1 5.173201658765163913 -2.125 5.724030952441687248 0 1 0 -0.06717514421272201275 0 0.06717514421272201275 1 I I 0 1 0.09500000000000000111 forward I I I I #
face $-1 $78 $79 $2 $-1 $80 reversed single #
loop $-1 $-1 $81 $39 #
plane-surface $-1 3.525642858600508411 -0.0625 7.809995956942002771 -0 -1 0 0.7071067811865474617 0 0.7071067811865474617 forward_v I I I I #
coedge $-1 $58 $58 $82 $83 reversed $40 $-1 #
coedge $-1 $59 $59 $41 $60 forward $84 $-1 #
edge $-1 $85 0 $85 6.283185307179586232 $59 $86 forward 7 unknown #
loop $-1 $87 $42 $88 #
vertex $-1 $43 $89 #
ellipse-curve $-1 4.928542712474619059 1.094000000000000083 6.053542712474619059 -0.7071067811865474617 0 -0.7071067811865474617 -0.04242640687119284687 0 0.04242640687119284687 1 I I #
loop $-1 $90 $44 $91 #
vertex $-1 $45 $92 #
ellipse-curve $-1 4.927658828998135121 -1.875 6.052658828998135121 -0.7071067811865474617 0 -0.7071067811865474617 -0.1436310649285174601 0 0.1436310649285174601 1 I I #
loop $-1 $-1 $93 $68 #
face $-1 $94 $46 $2 $-1 $95 reversed single #
point $-1 5.02709572010249417 -1.875 5.95322193789377696 #
coedge $-1 $70 $70 $96 $97 reversed $49 $-1 #
face $-1 $98 $99 $2 $-1 $100 reversed single #
cone-surface $-1 5.173201658765163913 2.125 5.724030952441687248 0 1 0 -0.06717514421272201275 0 0.06717514421272201275 1 I I 0 1 0.09500000000000000111 forward I I I I #
coedge $-1 $73 $73 $52 $74 reversed $101 $-1 #
edge $-1 $102 -6.6313528998559424e-15 $102 6.283185307179580015 $52 $103 forward 7 unknown #
face $-1 $104 $105 $2 $-1 $106 reversed single #
loop $-1 $107 $108 $53 #
cone-surface $-1 4.599030952441687248 -2.125 6.298201658765163913 0 1 0 -0.06717514421272201275 0 0.06717514421272201275 1 I I 0 1 0.09500000000000000111 forward I I I I #
face $-1 $109 $110 $2 $-1 $111 reversed single #
loop $-1 $-1 $112 $55 #
plane-surface $-1 3.525642858600508411 0.0625 7.809995956942002771 -0.7071067811865474617 0 -0.7071067811865474617 -0.7071067811865474617 0 0.7071067811865474617 forward_v I I I I #
coedge $-1 $113 $114 $115 $116 reversed $56 $-1 #
coedge $-1 $82 $82 $58 $83 forward $117 $-1 #
edge $-1 $118 0 $118 6.283185307179586232 $82 $119 forward 7 unknown #
loop $-1 $120 $59 $121 #
vertex $-1 $60 $122 #
ellipse-curve $-1 4.155144670551832675 0 6.826940754397405442 -0.7071067811865474617 0 -0.7071067811865474617 -0.04242640687119284687 0 0.04242640687119284687 1 I I #
loop $-1 $-1 $123 $88 #
face $-1 $124 $61 $2 $-1 $125 reversed single #
point $-1 4.88611630560342558 1.094000000000000083 6.095969119345811649 #
loop $-1 $-1 $126 $91 #
face $-1 $127 $64 $2 $-1 $128 reversed single #
point $-1 4.784027764069618271 -1.875 6.196289893926652859 #
coedge $-1 $93 $93 $129 $130 reversed $67 $-1 #
face $-1 $131 $132 $2 $-1 $133 reversed single #
cone-surface $-1 4.645699999999999719 -1.875 5.770699999999999719 -0.7071067811865474617 0 -0.7071067811865474617 0.09943689110435824374 0 -0.09943689110435824374 1 I I 0 1 0.140625 forward I I I I #
coedge $-1 $96 $96 $70 $97 forward $134 $-1 #
edge $-1 $135 -3.141592653589799777 $135 3.141592653589786455 $70 $136 forward 7 unknown #
face $-1 $37 $137 $2 $-1 $6 reversed single #
loop $-1 $138 $139 $71 #
cone-surface $-1 4.599030952441687248 2.125 6.298201658765163913 0 1 0 -0.06717514421272201275 0 0.06717514421272201275 1 I I 0 1 0.09500000000000000111 forward I I I I #
loop $-1 $140 $73 $141 #
vertex $-1 $74 $142 #
ellipse-curve $-1 5.173201658765163913 -2.125 5.724030952441687248 -0 -1 0 -0.06717514421272201275 0 0.06717514421272201275 1 I I #
face $-1 $-1 $143 $2 $-1 $144 reversed single #
loop $-1 $145 $146 $75 #
plane-surface $-1 5.034608729652600978 0 6.159608729652600978 -0.7071067811865474617 0 -0.7071067811865474617 -0.7071067811865474617 0 0.7071067811865474617 forward_v I I I I #
loop $-1 $-1 $147 $53 #
coedge $-1 $108 $108 $148 $149 reversed $76 $-1 #
face $-1 $150 $151 $2 $-1 $152 reversed single #
loop $-1 $-1 $153 $78 #
plane-surface $-1 3.546856062036105151 0.0625 7.831209160377598621 0 1 0 -0.7071067811865474617 0 -0.7071067811865474617 forward_v I I I I #
coedge $-1 $154 $155 $156 $157 reversed $79 $-1 #
coedge $-1 $158 $81 $159 $160 reversed $56 $-1 #
coedge $-1 $81 $158 $161 $162 forward $56 $-1 #
coedge $-1 $163 $164 $81 $116 forward $165 $-1 #
edge $-1 $166 -0.6093279241593597684 $167 0 $81 $168 forward 7 unknown #
loop $-1 $169 $82 $170 #
vertex $-1 $83 $171 #
ellipse-curve $-1 4.928542712474619059 -1.094000000000000083 6.053542712474619059 -0.7071067811865474617 0 -0.7071067811865474617 -0.04242640687119284687 0 0.04242640687119284687 1 I I #
loop $-1 $-1 $172 $121 #
face $-1 $173 $84 $2 $-1 $174 reversed single #
point $-1 4.112718263680639197 0 6.869367161268598032 #
coedge $-1 $123 $123 $175 $176 reversed $87 $-1 #
face $-1 $121 $177 $2 $-1 $178 reversed single #
cone-surface $-1 5.062893000900063001 1.094000000000000083 6.187893000900063001 0.7071067811865474617 0 0.7071067811865474617 -0.04242640687119284687 0 0.04242640687119284687 1 I I 0 1 0.05999999999999999778 forward I I I I #
coedge $-1 $126 $126 $179 $180 reversed $90 $-1 #
face $-1 $68 $181 $2 $-1 $182 reversed single #
cone-surface $-1 5.12653261120685233 -1.875 6.25153261120685233 0.7071067811865474617 0 0.7071067811865474617 -0.1436310649285174601 0 0.1436310649285174601 1 I I 0 1 0.203125 forward I I I I #
coedge $-1 $129 $129 $93 $130 forward $183 $-1 #
edge $-1 $184 -3.141592653589793116 $184 3.141592653589793116 $93 $185 forward 7 unknown #
face $-1 $50 $186 $2 $-1 $9 forward single #
loop $-1 $187 $188 $94 #
cone-surface $-1 4.645699999999999719 1.875 5.770699999999999719 -0.7071067811865474617 0 -0.7071067811865474617 0.09943689110435824374 0 -0.09943689110435824374 1 I I 0 1 0.140625 forward I I I I #
loop $-1 $189 $96 $190 #
vertex $-1 $97 $191 #
ellipse-curve $-1 5.173201658765163913 2.125 5.724030952441687248 -0 -1 0 0.06717514421272201275 0 -0.06717514421272201275 1 I I #
loop $-1 $-1 $148 $98 #
loop $-1 $-1 $192 $71 #
coedge $-1 $139 $139 $193 $194 forward $99 $-1 #
loop $-1 $-1 $195 $141 #
face $-1 $196 $197 $2 $-1 $198 reversed single #
point $-1 5.106026514552442386 -2.125 5.791206096654409663 #
loop $-1 $199 $200 $104 #
cone-surface $-1 5.062893000900063001 0 6.187893000900063001 -0.7071067811865474617 0 -0.7071067811865474617 -0.8803479425772516853 0 0.8803479425772516853 1 I I 0 1 1.245000000000000107 forward I I I I #
loop $-1 $201 $202 $75 #
coedge $-1 $146 $146 $200 $203 forward $105 $-1 #
coedge $-1 $147 $147 $195 $204 forward $107 $-1 #
coedge $-1 $148 $148 $108 $149 forward $137 $-1 #
edge $-1 $205 -3.141592653589799777 $205 3.141592653589786455 $108 $206 forward 7 unknown #
face $-1 $207 $208 $2 $-1 $209 forward single #
loop $-1 $210 $211 $109 #
plane-surface $-1 5.12653261120685233 0 6.25153261120685233 -0.7071067811865474617 0 -0.7071067811865474617 -0.7071067811865474617 0 0.7071067811865474617 forward_v I I I I #
coedge $-1 $212 $213 $214 $215 reversed $110 $-1 #
coedge $-1 $216 $112 $158 $217 reversed $79 $-1 #
coedge $-1 $112 $216 $212 $218 forward $79 $-1 #
coedge $-1 $214 $161 $112 $157 forward $219 $-1 #
edge $-1 $220 -0.05596074840397798067 $221 5.56139703396216704e-18 $112 $222 forward 7 unknown #
coedge $-1 $114 $113 $154 $217 forward $56 $-1 #
coedge $-1 $223 $224 $113 $160 forward $225 $-1 #
edge $-1 $226 -0.03000000000000044645 $166 0 $113 $227 forward 7 unknown #
coedge $-1 $156 $228 $114 $162 reversed $219 $-1 #
edge $-1 $220 -0.0300000000000001342 $167 0 $114 $229 forward 7 unknown #
coedge $-1 $230 $115 $228 $231 reversed $165 $-1 #
coedge $-1 $115 $232 $223 $233 forward $165 $-1 #
loop $-1 $234 $230 $235 #
vertex $-1 $160 $236 #
vertex $-1 $162 $237 #
straight-curve $-1 3.547474387137833585 -0.06249999999999920203 7.830590835275870631 -0.7071067811865474617 1.298207211062510005e-15 0.7071067811865474617 I I #
loop $-1 $-1 $238 $170 #
face $-1 $88 $117 $2 $-1 $239 reversed single #
point $-1 4.88611630560342558 -1.094000000000000083 6.095969119345811649 #
coedge $-1 $172 $172 $240 $241 reversed $120 $-1 #
face $-1 $91 $242 $2 $-1 $13 forward single #
cone-surface $-1 4.289494958977276617 0 6.961291042822848496 0.7071067811865474617 0 0.7071067811865474617 -0.04242640687119284687 0 0.04242640687119284687 1 I I 0 1 0.05999999999999999778 forward I I I I #
coedge $-1 $175 $175 $123 $176 forward $243 $-1 #
edge $-1 $244 -3.141592653589793116 $244 3.141592653589793116 $175 $245 forward 7 unknown #
loop $-1 $246 $247 $124 #
cone-surface $-1 5.836467819518145639 0 5.414318182281979475 0.7071067811865474617 0 0.7071067811865474617 -0.04242640687119284687 0 0.04242640687119284687 1 I I 0 1 0.05999999999999999778 forward I I I I #
coedge $-1 $179 $179 $126 $180 forward $248 $-1 #
edge $-1 $249 -3.141592653589793116 $249 3.141592653589793116 $126 $250 forward 7 unknown #
loop $-1 $251 $252 $127 #
cone-surface $-1 5.12653261120685233 1.875 6.25153261120685233 0.7071067811865474617 0 0.7071067811865474617 -0.1435426765808691385 0 0.1435426765808691385 1 I I 0 1 0.2030000000000000138 forward I I I I #
loop $-1 $253 $129 $207 #
vertex $-1 $130 $254 #
ellipse-curve $-1 4.645699999999999719 -1.875 5.770699999999999719 0.7071067811865474617 0 0.7071067811865474617 -0.09943689110435824374 0 0.09943689110435824374 1 I I #
loop $-1 $-1 $193 $131 #
loop $-1 $-1 $255 $94 #
coedge $-1 $188 $188 $256 $257 forward $132 $-1 #
loop $-1 $-1 $258 $190 #
face $-1 $141 $259 $2 $-1 $260 reversed single #
point $-1 5.106026514552442386 2.125 5.791206096654409663 #
coedge $-1 $192 $192 $258 $261 reversed $138 $-1 #
coedge $-1 $193 $193 $139 $194 reversed $186 $-1 #
edge $-1 $262 -6.6313528998559424e-15 $262 6.283185307179580015 $139 $263 forward 7 unknown #
coedge $-1 $195 $195 $147 $204 reversed $140 $-1 #
face $-1 $170 $264 $2 $-1 $19 forward single #
loop $-1 $101 $265 $141 #
plane-surface $-1 4.158293085810223388 -2.125 6.258106914189776049 0 1 0 -0.7071067811865474617 0 -0.7071067811865474617 forward_v I I I I #
loop $-1 $-1 $266 $104 #
coedge $-1 $200 $200 $146 $203 reversed $143 $-1 #
loop $-1 $243 $267 $75 #
coedge $-1 $202 $202 $268 $269 reversed $145 $-1 #
edge $-1 $270 -3.141592653589793116 $270 3.141592653589793116 $200 $271 forward 7 unknown #
edge $-1 $272 -6.6313528998559424e-15 $272 6.283185307179580015 $147 $273 forward 7 unknown #
vertex $-1 $149 $274 #
ellipse-curve $-1 4.599030952441687248 -1.5625 6.298201658765163913 -0 -1 0 0.06717514421272201275 0 -0.06717514421272201275 1 I I #
face $-1 $275 $276 $2 $-1 $277 forward single #
loop $-1 $-1 $278 $150 #
cone-surface $-1 5.150574241767194472 0 6.275574241767194472 -0.7071067811865474617 0 -0.7071067811865474617 1.579676549170746958 0 -1.579676549170746958 1 I I 0 1 2.233999999999999986 forward I I I I #
loop $-1 $279 $280 $109 #
coedge $-1 $211 $211 $281 $282 forward $151 $-1 #
coedge $-1 $283 $153 $155 $218 reversed $110 $-1 #
coedge $-1 $153 $283 $284 $285 forward $110 $-1 #
coedge $-1 $286 $156 $153 $215 forward $219 $-1 #
edge $-1 $221 -0.0300000000000001342 $287 0 $153 $288 forward 7 unknown #
coedge $-1 $155 $154 $224 $289 reversed $79 $-1 #
edge $-1 $226 -0.6093279241593594353 $220 0 $158 $290 forward 7 unknown #
edge $-1 $291 -0.6093279241593594353 $221 0 $155 $292 forward 7 unknown #
loop $-1 $-1 $293 $275 #
vertex $-1 $217 $294 #
vertex $-1 $218 $295 #
ellipse-curve $-1 5.105319407771255591 0 6.230319407771255591 -0.7071067811865474617 0 -0.7071067811865474617 -1.579058224069018523 0.06249999999999920203 1.579058224069018523 1 I I #
coedge $-1 $296 $159 $164 $233 reversed $225 $-1 #
coedge $-1 $159 $297 $216 $289 forward $225 $-1 #
loop $-1 $-1 $298 $299 #
vertex $-1 $160 $300 #
straight-curve $-1 3.97833429427723928 -0.0625 7.39973092813646538 0.7071067811865370256 -2.498001805406600007e-14 0.7071067811865578978 I I #
coedge $-1 $161 $293 $163 $231 forward $219 $-1 #
straight-curve $-1 3.547474387137833585 -0.06249999999999920203 7.830590835275870631 0.7071067811865474617 2.382353573674810133e-14 0.7071067811865474617 I I #
coedge $-1 $301 $163 $265 $302 reversed $165 $-1 #
edge $-1 $303 -1.229149195767548219 $167 0 $163 $304 forward 7 unknown #
coedge $-1 $164 $301 $305 $306 forward $165 $-1 #
edge $-1 $307 -3.064650598775136903 $166 -4.204394886154452553e-16 $223 $308 forward 7 unknown #
loop $-1 $309 $310 $235 #
face $-1 $311 $248 $2 $-1 $152 reversed single #
point $-1 3.97833429427723928 -0.0625 7.39973092813646538 #
point $-1 3.547474387137833585 -0.06249999999999920203 7.830590835275870631 #
coedge $-1 $238 $238 $267 $312 reversed $169 $-1 #
cone-surface $-1 5.062893000900063001 -1.094000000000000083 6.187893000900063001 0.7071067811865474617 0 0.7071067811865474617 -0.04242640687119284687 0 0.04242640687119284687 1 I I 0 1 0.05999999999999999778 forward I I I I #
coedge $-1 $240 $240 $172 $241 forward $313 $-1 #
edge $-1 $314 -3.141592653589793116 $314 3.141592653589793116 $240 $315 forward 7 unknown #
loop $-1 $316 $256 $173 #
loop $-1 $317 $175 $75 #
vertex $-1 $176 $318 #
ellipse-curve $-1 5.034608729652600978 1.094000000000000083 6.159608729652600978 -0.7071067811865474617 0 -0.7071067811865474617 0.04242640687119284687 0 -0.04242640687119284687 1 I I #
loop $-1 $-1 $319 $124 #
coedge $-1 $247 $247 $320 $321 forward $177 $-1 #
loop $-1 $165 $179 $235 #
vertex $-1 $180 $322 #
ellipse-curve $-1 5.12653261120685233 -1.875 6.25153261120685233 -0.7071067811865474617 0 -0.7071067811865474617 0.1436310649285174601 0 -0.1436310649285174601 1 I I #
loop $-1 $-1 $281 $127 #
coedge $-1 $252 $252 $323 $324 forward $181 $-1 #
loop $-1 $-1 $325 $207 #
point $-1 4.745136891104357879 -1.875 5.671263108895641558 #
coedge $-1 $255 $255 $325 $326 reversed $187 $-1 #
coedge $-1 $256 $256 $188 $257 reversed $242 $-1 #
edge $-1 $327 0 $327 6.283185307179586232 $188 $328 forward 7 unknown #
coedge $-1 $258 $258 $192 $261 forward $189 $-1 #
loop $-1 $134 $329 $190 #
plane-surface $-1 5.133106914189776049 2.125 5.283293085810223388 -0 -1 0 0.7071067811865474617 0 0.7071067811865474617 forward_v I I I I #
edge $-1 $330 -3.141592653589799777 $330 3.141592653589786455 $192 $331 forward 7 unknown #
vertex $-1 $194 $332 #
ellipse-curve $-1 4.599030952441687248 1.5625 6.298201658765163913 -0 -1 0 -0.06717514421272201275 0 0.06717514421272201275 1 I I #
loop $-1 $-1 $320 $196 #
coedge $-1 $333 $334 $230 $302 forward $197 $-1 #
coedge $-1 $266 $266 $335 $336 forward $199 $-1 #
coedge $-1 $267 $267 $238 $312 forward $201 $-1 #
coedge $-1 $268 $268 $202 $269 forward $337 $-1 #
edge $-1 $338 -3.141592653589793116 $338 3.141592653589793116 $202 $339 forward 7 unknown #
vertex $-1 $203 $340 #
ellipse-curve $-1 5.034608729652600978 0 6.159608729652600978 0.7071067811865474617 0 0.7071067811865474617 0.8803479425772516853 0 -0.8803479425772516853 1 I I #
vertex $-1 $204 $341 #
ellipse-curve $-1 4.599030952441687248 -2.125 6.298201658765163913 -0 -1 0 -0.06717514421272201275 0 0.06717514421272201275 1 I I #
point $-1 4.531855808228965721 -1.5625 6.365376802977886328 #
face $-1 $235 $219 $2 $-1 $209 forward single #
loop $-1 $342 $343 $207 #
plane-surface $-1 4.645699999999999719 0 5.770699999999999719 -0.7071067811865474617 0 -0.7071067811865474617 -0.7071067811865474617 0 0.7071067811865474617 forward_v I I I I #
coedge $-1 $344 $345 $334 $346 reversed $208 $-1 #
loop $-1 $347 $348 $109 #
coedge $-1 $349 $350 $329 $351 reversed $210 $-1 #
coedge $-1 $281 $281 $211 $282 reversed $251 $-1 #
edge $-1 $352 -3.141592653589793116 $352 3.141592653589793116 $281 $353 forward 7 unknown #
coedge $-1 $213 $212 $297 $354 forward $110 $-1 #
coedge $-1 $355 $349 $213 $285 reversed $210 $-1 #
edge $-1 $356 -0.6093279241593597684 $287 0 $213 $357 forward 7 unknown #
coedge $-1 $358 $214 $349 $359 reversed $219 $-1 #
vertex $-1 $215 $360 #
straight-curve $-1 3.547474387137833585 0.0625 7.830590835275870631 0.7071067811865684449 2.636779683484740157e-14 0.7071067811865264785 I I #
edge $-1 $291 -0.07694205481465633822 $226 -1.051098721538613107e-17 $216 $361 forward 7 unknown #
straight-curve $-1 3.52626118370223729 -0.06249999999999990286 7.809377631840273892 -0.7071067811865474617 -1.104614907658449932e-15 0.7071067811865474617 I I #
vertex $-1 $289 $362 #
straight-curve $-1 3.52626118370223729 0.06249999999999920203 7.809377631840273892 -0.7071067811865474617 -1.298207211062510005e-15 0.7071067811865474617 I I #
coedge $-1 $228 $363 $333 $364 forward $219 $-1 #
point $-1 3.52626118370223729 -0.06249999999999990286 7.809377631840273892 #
point $-1 3.52626118370223729 0.06249999999999920203 7.809377631840273892 #
coedge $-1 $298 $223 $365 $366 reversed $225 $-1 #
coedge $-1 $224 $367 $283 $354 reversed $225 $-1 #
coedge $-1 $368 $296 $369 $370 forward $225 $-1 #
face $-1 $371 $372 $2 $-1 $373 reversed single #
point $-1 3.957121090841642541 -0.06249999999999929917 7.378517724700868641 #
coedge $-1 $232 $230 $345 $374 reversed $165 $-1 #
edge $-1 $375 -1.378594936883202449 $303 0 $265 $376 forward 7 unknown #
vertex $-1 $364 $377 #
ellipse-curve $-1 5.12653261120685233 0 6.25153261120685233 -0.7071067811865474617 0 -0.7071067811865474617 -1.579058224069018523 -0.06249999999999920203 1.579058224069018523 1 I I #
coedge $-1 $378 $365 $232 $306 reversed $379 $-1 #
edge $-1 $380 -0.6093279241593594353 $307 0 $305 $381 forward 7 unknown #
vertex $-1 $366 $382 #
ellipse-curve $-1 5.12653261120685233 0 6.25153261120685233 -0.7071067811865474617 0 -0.7071067811865474617 -1.148198316929612828 -0.06249999999999929917 1.148198316929612828 1 I I #
loop $-1 $383 $384 $235 #
coedge $-1 $310 $310 $385 $386 reversed $234 $-1 #
face $-1 $387 $388 $2 $-1 $389 reversed single #
edge $-1 $390 -3.141592653589793116 $390 3.141592653589793116 $267 $391 forward 7 unknown #
loop $-1 $-1 $240 $75 #
vertex $-1 $241 $392 #
ellipse-curve $-1 4.261210687729814595 0 6.933006771575387361 -0.7071067811865474617 0 -0.7071067811865474617 0.04242640687119284687 0 -0.04242640687119284687 1 I I #
loop $-1 $-1 $323 $173 #
loop $-1 $313 $393 $75 #
point $-1 4.992182322781408388 1.094000000000000083 6.202035136523793568 #
coedge $-1 $319 $319 $393 $394 reversed $246 $-1 #
coedge $-1 $320 $320 $247 $321 reversed $264 $-1 #
edge $-1 $395 0 $395 6.283185307179586232 $247 $396 forward 7 unknown #
point $-1 4.982901546278334592 -1.875 6.39516367613536918 #
coedge $-1 $323 $323 $252 $324 reversed $316 $-1 #
edge $-1 $397 0 $397 6.283185307179586232 $252 $398 forward 7 unknown #
coedge $-1 $325 $325 $255 $326 forward $253 $-1 #
edge $-1 $399 -3.141592653589793116 $399 3.141592653589793116 $255 $400 forward 7 unknown #
vertex $-1 $257 $401 #
ellipse-curve $-1 4.927658828998135121 1.875 6.052658828998135121 0.7071067811865474617 0 0.7071067811865474617 0.09943689110435824374 0 -0.09943689110435824374 1 I I #
coedge $-1 $402 $403 $280 $351 forward $259 $-1 #
vertex $-1 $261 $404 #
ellipse-curve $-1 4.599030952441687248 2.125 6.298201658765163913 -0 -1 0 0.06717514421272201275 0 -0.06717514421272201275 1 I I #
point $-1 4.531855808228965721 1.5625 6.365376802977886328 #
coedge $-1 $405 $265 $293 $364 reversed $197 $-1 #
coedge $-1 $265 $405 $278 $346 forward $197 $-1 #
coedge $-1 $335 $335 $266 $336 reversed $406 $-1 #
edge $-1 $407 0 $407 6.283185307179586232 $266 $408 forward 7 unknown #
loop $-1 $-1 $268 $409 #
vertex $-1 $269 $410 #
ellipse-curve $-1 5.034608729652600978 0 6.159608729652600978 0.7071067811865474617 0 0.7071067811865474617 0.6629126073623882176 0 -0.6629126073623882176 1 I I #
point $-1 4.154260787075349626 0 7.03995667222985233 #
point $-1 4.531855808228965721 -2.125 6.365376802977886328 #
loop $-1 $411 $412 $207 #
coedge $-1 $343 $343 $413 $414 reversed $276 $-1 #
coedge $-1 $415 $278 $416 $417 forward $208 $-1 #
coedge $-1 $278 $418 $301 $374 forward $208 $-1 #
edge $-1 $419 -0.680000000000000604 $375 0 $334 $420 forward 7 unknown #
loop $-1 $421 $422 $109 #
coedge $-1 $348 $348 $423 $424 reversed $279 $-1 #
coedge $-1 $284 $280 $286 $359 forward $210 $-1 #
coedge $-1 $280 $425 $426 $427 forward $210 $-1 #
edge $-1 $428 -1.378594936883202449 $429 0 $329 $430 forward 7 unknown #
vertex $-1 $282 $431 #
ellipse-curve $-1 5.12653261120685233 1.875 6.25153261120685233 -0.7071067811865474617 0 -0.7071067811865474617 0.1435426765808691385 0 -0.1435426765808691385 1 I I #
edge $-1 $291 -0.03000000000000044992 $356 0 $283 $432 forward 7 unknown #
coedge $-1 $425 $284 $367 $433 reversed $210 $-1 #
vertex $-1 $354 $434 #
straight-curve $-1 3.547474387137833585 0.0625 7.830590835275870631 -0.7071067811865474617 0 0.7071067811865474617 I I #
coedge $-1 $363 $286 $403 $435 reversed $219 $-1 #
edge $-1 $428 -1.229149195767548219 $287 -3.55929410173578592e-16 $349 $436 forward 7 unknown #
point $-1 3.547474387137833585 0.0625 7.830590835275870631 #
ellipse-curve $-1 5.105319407771255591 0 6.230319407771255591 0.7071067811865474617 0 0.7071067811865474617 -1.148198316929612828 -0.06249999999999929917 1.148198316929612828 1 I I #
point $-1 3.957121090841642541 0.0625 7.378517724700868641 #
coedge $-1 $293 $358 $437 $438 forward $219 $-1 #
edge $-1 $439 -0.680000000000000604 $303 0 $333 $440 forward 7 unknown #
coedge $-1 $305 $441 $296 $366 forward $379 $-1 #
edge $-1 $442 -0.03000000000000044645 $307 0 $365 $443 forward 7 unknown #
coedge $-1 $297 $368 $355 $433 forward $225 $-1 #
coedge $-1 $367 $298 $444 $445 forward $225 $-1 #
coedge $-1 $446 $447 $298 $370 reversed $448 $-1 #
edge $-1 $442 -0.07694205481465603291 $449 4.204394886154452553e-16 $369 $450 forward 7 unknown #
face $-1 $409 $451 $2 $-1 $452 forward single #
loop $-1 $225 $453 $299 #
cone-surface $-1 5.150574241767194472 0 6.275574241767194472 -0.7071067811865474617 0 -0.7071067811865474617 1.149048519428139681 0 -1.149048519428139681 1 I I 0 1 1.625 forward I I I I #
edge $-1 $380 -1.229149195767547775 $375 -4.449117627169737946e-17 $301 $454 forward 7 unknown #
vertex $-1 $346 $455 #
straight-curve $-1 4.639125697017076 -2.125 6.73893952539662866 -0.7071067811865474617 0 0.7071067811865474617 I I #
point $-1 4.639125697017076 -2.125 6.73893952539662866 #
coedge $-1 $441 $305 $418 $456 reversed $379 $-1 #
loop $-1 $-1 $305 $457 #
vertex $-1 $456 $458 #
straight-curve $-1 6.27473092813646538 -0.0625 5.10333429427723928 -0.7071067811865474617 0 0.7071067811865474617 I I #
point $-1 6.27473092813646538 -0.0625 5.10333429427723928 #
loop $-1 $459 $460 $235 #
coedge $-1 $384 $384 $461 $462 reversed $309 $-1 #
coedge $-1 $385 $385 $310 $386 forward $463 $-1 #
edge $-1 $464 0 $464 6.283185307179586232 $385 $465 forward 7 unknown #
face $-1 $466 $467 $2 $-1 $468 forward single #
loop $-1 $406 $469 $311 #
plane-surface $-1 5.062893000900063001 0 6.187893000900063001 -0.7071067811865474617 0 -0.7071067811865474617 -0.7071067811865474617 0 0.7071067811865474617 forward_v I I I I #
vertex $-1 $312 $470 #
ellipse-curve $-1 5.034608729652600978 -1.094000000000000083 6.159608729652600978 -0.7071067811865474617 0 -0.7071067811865474617 0.04242640687119284687 0 -0.04242640687119284687 1 I I #
point $-1 4.218784280858622004 0 6.975433178446579952 #
coedge $-1 $393 $393 $319 $394 forward $317 $-1 #
edge $-1 $471 -3.141592653589793116 $471 3.141592653589793116 $393 $472 forward 7 unknown #
vertex $-1 $321 $473 #
ellipse-curve $-1 5.702117531092701697 0 5.279967893856535532 -0.7071067811865474617 0 -0.7071067811865474617 -0.04242640687119284687 0 0.04242640687119284687 1 I I #
vertex $-1 $324 $474 #
ellipse-curve $-1 4.927658828998135121 1.875 6.052658828998135121 -0.7071067811865474617 0 -0.7071067811865474617 -0.1435426765808691385 0 0.1435426765808691385 1 I I #
vertex $-1 $326 $475 #
ellipse-curve $-1 4.645699999999999719 1.875 5.770699999999999719 0.7071067811865474617 0 0.7071067811865474617 -0.09943689110435824374 0 0.09943689110435824374 1 I I #
point $-1 5.02709572010249417 1.875 5.95322193789377696 #
coedge $-1 $476 $329 $415 $477 reversed $259 $-1 #
coedge $-1 $329 $476 $358 $435 forward $259 $-1 #
point $-1 4.531855808228965721 2.125 6.365376802977886328 #
coedge $-1 $334 $333 $478 $479 reversed $197 $-1 #
loop $-1 $-1 $335 $311 #
vertex $-1 $336 $480 #
ellipse-curve $-1 5.062893000900063001 0 6.187893000900063001 0.7071067811865474617 0 0.7071067811865474617 -0.8803479425772516853 0 0.8803479425772516853 1 I I #
face $-1 $481 $482 $2 $-1 $483 reversed single #
point $-1 4.371696122290212649 0 6.822521337014989307 #
loop $-1 $484 $485 $207 #
coedge $-1 $412 $412 $486 $487 forward $342 $-1 #
coedge $-1 $413 $413 $343 $414 forward $488 $-1 #
edge $-1 $489 0 $489 6.283185307179586232 $413 $490 forward 7 unknown #
coedge $-1 $426 $344 $402 $477 forward $208 $-1 #
coedge $-1 $478 $491 $344 $417 reversed $492 $-1 #
edge $-1 $419 -2.514259139939074128 $493 -4.449117627169737946e-17 $344 $494 forward 7 unknown #
coedge $-1 $345 $495 $378 $456 forward $208 $-1 #
vertex $-1 $346 $496 #
straight-curve $-1 5.61393952539662866 -2.125 5.764125697017076 0.7071067811865474617 0 0.7071067811865474617 I I #
loop $-1 $497 $498 $109 #
coedge $-1 $422 $422 $499 $500 reversed $347 $-1 #
coedge $-1 $423 $423 $348 $424 forward $501 $-1 #
edge $-1 $502 0 $502 6.283185307179586232 $423 $503 forward 7 unknown #
coedge $-1 $350 $355 $504 $505 reversed $210 $-1 #
coedge $-1 $506 $415 $350 $427 reversed $208 $-1 #
edge $-1 $507 -1.229149195767547997 $429 -4.449117627169737946e-17 $350 $508 forward 7 unknown #
vertex $-1 $435 $509 #
vertex $-1 $477 $510 #
straight-curve $-1 5.61393952539662866 2.125 5.764125697017076 0.7071067811865474617 0 -0.7071067811865474617 I I #
point $-1 4.98298993462598272 1.875 6.395075287787721052 #
straight-curve $-1 3.97833429427723928 0.0625 7.39973092813646538 0.7071067811865474617 0 0.7071067811865474617 I I #
edge $-1 $511 -3.064650598775136903 $356 -4.204394886154452553e-16 $367 $512 forward 7 unknown #
point $-1 3.97833429427723928 0.0625 7.39973092813646538 #
edge $-1 $513 -0.680000000000000604 $428 0 $403 $514 forward 7 unknown #
ellipse-curve $-1 5.12653261120685233 0 6.25153261120685233 0.7071067811865474617 0 0.7071067811865474617 -1.579058224069018523 0.06249999999999920203 1.579058224069018523 1 I I #
coedge $-1 $491 $478 $363 $438 reversed $492 $-1 #
edge $-1 $513 -2.514259139939074128 $439 4.894029389886712357e-16 $363 $515 forward 7 unknown #
vertex $-1 $364 $516 #
straight-curve $-1 4.639125697017076 -2.125 6.73893952539662866 0.7071067811865464625 0 0.7071067811865484609 I I #
coedge $-1 $365 $378 $446 $517 forward $379 $-1 #
vertex $-1 $517 $518 #
straight-curve $-1 6.27473092813646538 -0.0625 5.10333429427723928 0.7071067811865578978 -1.711593829630449877e-14 0.7071067811865370256 I I #
coedge $-1 $519 $504 $368 $445 reversed $520 $-1 #
edge $-1 $449 -0.03000000000000044992 $511 0 $444 $521 forward 7 unknown #
coedge $-1 $522 $369 $441 $517 reversed $448 $-1 #
coedge $-1 $369 $522 $519 $523 forward $448 $-1 #
loop $-1 $-1 $522 $524 #
vertex $-1 $523 $525 #
ellipse-curve $-1 5.105319407771255591 0 6.230319407771255591 0.7071067811865474617 0 0.7071067811865474617 1.148198316929612828 0.06249999999999929917 -1.148198316929612828 1 I I #
loop $-1 $526 $527 $371 #
cone-surface $-1 5.041679797464466262 0 6.166679797464466262 -0.7071067811865474617 0 -0.7071067811865474617 -1.149048519428139681 0 1.149048519428139681 1 I I 0.9848077530122080203 0.1736481776669299981 1.625 forward I I I I #
coedge $-1 $453 $453 $528 $529 forward $372 $-1 #
ellipse-curve $-1 5.12653261120685233 0 6.25153261120685233 -0.7071067811865474617 0 -0.7071067811865474617 0.4874069141897762747 -2.125 -0.4874069141897762747 1 I I #
point $-1 5.61393952539662866 -2.125 5.764125697017076 #
edge $-1 $530 -0.03000000000000044645 $380 0 $378 $531 forward 7 unknown #
face $-1 $532 $379 $2 $-1 $57 reversed single #
point $-1 6.705590835275870631 -0.0625 4.672474387137834029 #
loop $-1 $-1 $533 $235 #
coedge $-1 $460 $460 $534 $535 reversed $383 $-1 #
coedge $-1 $461 $461 $384 $462 forward $536 $-1 #
edge $-1 $537 0 $537 6.283185307179586232 $461 $538 forward 7 unknown #
loop $-1 $539 $385 $540 #
vertex $-1 $386 $541 #
ellipse-curve $-1 3.941480002063981747 -0.6941877463102740231 7.436585220349722469 0.7071067811865474617 0 0.7071067811865474617 0.09192388155425117169 0 -0.09192388155425117169 1 I I #
face $-1 $542 $543 $2 $-1 $544 reversed single #
loop $-1 $545 $546 $387 #
plane-surface $-1 4.866317315730202431 0 5.991317315730202431 -0.7071067811865474617 0 -0.7071067811865474617 -0.7071067811865474617 0 0.7071067811865474617 forward_v I I I I #
coedge $-1 $469 $469 $527 $547 forward $388 $-1 #
point $-1 4.992182322781408388 -1.094000000000000083 6.202035136523793568 #
vertex $-1 $394 $548 #
ellipse-curve $-1 5.808183548270683616 0 5.38603391103451834 -0.7071067811865474617 0 -0.7071067811865474617 0.04242640687119284687 0 -0.04242640687119284687 1 I I #
point $-1 5.659691124221508218 0 5.322394300727729011 #
point $-1 4.784116152417266399 1.875 6.196201505579004731 #
point $-1 4.745136891104357879 1.875 5.671263108895641558 #
coedge $-1 $403 $402 $491 $549 reversed $259 $-1 #
edge $-1 $493 -0.680000000000000604 $429 0 $402 $550 forward 7 unknown #
coedge $-1 $437 $416 $405 $479 forward $492 $-1 #
edge $-1 $419 -1.378594936883201116 $439 0 $405 $551 forward 7 unknown #
point $-1 4.18254505832281076 0 7.068240943477314353 #
face $-1 $552 $553 $2 $-1 $554 reversed single #
loop $-1 $337 $555 $409 #
cone-surface $-1 5.150574241767194472 0 6.275574241767194472 -0.7071067811865474617 0 -0.7071067811865474617 0.6629126073623882176 0 -0.6629126073623882176 1 I I 0 1 0.9375 forward I I I I #
loop $-1 $556 $557 $207 #
coedge $-1 $485 $485 $558 $559 forward $411 $-1 #
coedge $-1 $486 $486 $412 $487 reversed $560 $-1 #
edge $-1 $561 -3.141592653589793116 $561 3.141592653589793116 $486 $562 forward 7 unknown #
loop $-1 $563 $413 $564 #
vertex $-1 $414 $565 #
ellipse-curve $-1 4.645699999999999719 0 5.770699999999999719 -0.7071067811865474617 0 -0.7071067811865474617 -0.7071067811865474617 0 0.7071067811865474617 1 I I #
coedge $-1 $416 $437 $476 $549 forward $492 $-1 #
loop $-1 $183 $478 $207 #
vertex $-1 $477 $566 #
ellipse-curve $-1 4.645699999999999719 0 5.770699999999999719 0.7071067811865474617 0 0.7071067811865474617 0.4874069141897762747 2.125 -0.4874069141897762747 1 I I #
coedge $-1 $418 $506 $522 $567 forward $208 $-1 #
point $-1 5.133106914189776049 -2.125 5.283293085810223388 #
loop $-1 $-1 $568 $109 #
coedge $-1 $498 $498 $569 $570 reversed $421 $-1 #
coedge $-1 $499 $499 $422 $500 forward $571 $-1 #
edge $-1 $572 0 $572 6.283185307179586232 $499 $573 forward 7 unknown #
loop $-1 $574 $423 $575 #
vertex $-1 $424 $576 #
ellipse-curve $-1 3.941480002063981747 0.6941877463102720247 7.436585220349722469 0.7071067811865474617 0 0.7071067811865474617 0.09192388155425117169 0 -0.09192388155425117169 1 I I #
coedge $-1 $444 $577 $425 $505 forward $520 $-1 #
edge $-1 $507 -0.6093279241593594353 $511 0 $504 $578 forward 7 unknown #
coedge $-1 $495 $426 $577 $579 reversed $208 $-1 #
vertex $-1 $579 $580 #
ellipse-curve $-1 5.12653261120685233 0 6.25153261120685233 0.7071067811865474617 0 0.7071067811865474617 0.4874069141897762747 2.125 -0.4874069141897762747 1 I I #
point $-1 4.639125697017076 2.125 6.73893952539662866 #
point $-1 5.61393952539662866 2.125 5.764125697017076 #
vertex $-1 $445 $581 #
ellipse-curve $-1 5.12653261120685233 0 6.25153261120685233 0.7071067811865474617 0 0.7071067811865474617 -1.148198316929612828 0.06249999999999929917 1.148198316929612828 1 I I #
vertex $-1 $435 $582 #
straight-curve $-1 4.639125697017076 2.125 6.73893952539662866 0.7071067811865474617 0 0.7071067811865474617 I I #
ellipse-curve $-1 4.645699999999999719 0 5.770699999999999719 0.7071067811865474617 0 0.7071067811865474617 -0.4874069141897762747 -2.125 0.4874069141897762747 1 I I #
point $-1 4.158293085810224277 -2.125 6.258106914189775161 #
edge $-1 $530 -0.6093279241593594353 $442 0 $441 $583 forward 7 unknown #
point $-1 6.253517724700868641 -0.0624999999999995004 5.082121090841642541 #
coedge $-1 $577 $444 $447 $523 reversed $520 $-1 #
loop $-1 $-1 $577 $584 #
straight-curve $-1 6.27473092813646538 0.0625 5.10333429427723928 0.7071067811865474617 0 0.7071067811865474617 I I #
coedge $-1 $447 $446 $495 $567 reversed $448 $-1 #
edge $-1 $585 -0.6093279241593594353 $449 0 $447 $586 forward 7 unknown #
face $-1 $457 $448 $2 $-1 $80 reversed single #
point $-1 6.253517724700868641 0.0625 5.082121090841642541 #
loop $-1 $-1 $528 $371 #
coedge $-1 $527 $527 $469 $547 reversed $451 $-1 #
coedge $-1 $528 $528 $453 $529 reversed $526 $-1 #
edge $-1 $587 -3.141592653589793116 $587 3.141592653589793116 $528 $588 forward 7 unknown #
vertex $-1 $456 $589 #
straight-curve $-1 6.705590835275870631 -0.0625 4.672474387137834029 0.7071067811865264785 -2.636779683484740157e-14 0.7071067811865684449 I I #
face $-1 $590 $591 $2 $-1 $592 reversed single #
coedge $-1 $533 $533 $593 $594 reversed $459 $-1 #
coedge $-1 $534 $534 $460 $535 forward $595 $-1 #
edge $-1 $596 0 $596 6.283185307179586232 $534 $597 forward 7 unknown #
loop $-1 $598 $461 $599 #
vertex $-1 $462 $600 #
ellipse-curve $-1 6.311585220349722469 -0.6941877463102720247 5.066480002063981303 0.7071067811865474617 0 0.7071067811865474617 0.09192388155425117169 0 -0.09192388155425117169 1 I I #
loop $-1 $-1 $601 $540 #
face $-1 $190 $463 $2 $-1 $602 reversed single #
point $-1 4.033403883618232655 -0.6941877463102740231 7.344661338795471117 #
face $-1 $299 $603 $2 $-1 $604 forward single #
loop $-1 $605 $606 $466 #
plane-surface $-1 4.822476695296636251 0 5.947476695296636251 -0.7071067811865474617 0 -0.7071067811865474617 -0.7071067811865474617 0 0.7071067811865474617 forward_v I I I I #
loop $-1 $-1 $607 $387 #
coedge $-1 $546 $546 $608 $609 forward $467 $-1 #
edge $-1 $610 -3.141592653589793116 $610 3.141592653589793116 $469 $611 forward 7 unknown #
point $-1 5.765757141399491026 0 5.42846031790571093 #
edge $-1 $513 -1.378594936883202449 $493 0 $476 $612 forward 7 unknown #
straight-curve $-1 5.61393952539662866 2.125 5.764125697017076 0.7071067811865474617 0 0.7071067811865474617 I I #
straight-curve $-1 4.158293085810224277 -2.125 6.258106914189775161 -0.7071067811865474617 0 0.7071067811865474617 I I #
face $-1 $564 $613 $2 $-1 $614 reversed single #
loop $-1 $615 $616 $481 #
cone-surface $-1 5.150574241767194472 0 6.275574241767194472 -0.7071067811865474617 0 -0.7071067811865474617 0.7513009550107067058 0 -0.7513009550107067058 1 I I 0 1 1.0625 forward I I I I #
coedge $-1 $555 $555 $607 $617 reversed $482 $-1 #
loop $-1 $618 $619 $207 #
coedge $-1 $557 $557 $620 $621 forward $484 $-1 #
coedge $-1 $558 $558 $485 $559 reversed $622 $-1 #
edge $-1 $623 -3.141592653589793116 $623 3.141592653589793116 $558 $624 forward 7 unknown #
loop $-1 $-1 $486 $532 #
vertex $-1 $487 $625 #
ellipse-curve $-1 4.154835137167398607 -1.675917471975469919 6.261564862832600831 0.7071067811865474617 0 0.7071067811865474617 -0.09192388155425117169 0 0.09192388155425117169 1 I I #
loop $-1 $-1 $626 $564 #
face $-1 $584 $488 $2 $-1 $627 reversed single #
point $-1 3.938593218813452257 0 6.477806781186547624 #
point $-1 5.133106914189776049 2.125 5.283293085810223388 #
edge $-1 $585 -0.05596074840397798067 $530 5.56139703396216704e-18 $522 $628 forward 7 unknown #
coedge $-1 $568 $568 $629 $630 reversed $497 $-1 #
coedge $-1 $569 $569 $498 $570 forward $631 $-1 #
edge $-1 $632 0 $632 6.283185307179586232 $569 $633 forward 7 unknown #
loop $-1 $634 $499 $635 #
vertex $-1 $500 $636 #
ellipse-curve $-1 4.63566774837425033 1.675917471975469919 6.742397474039453442 0.7071067811865474617 0 0.7071067811865474617 0.09192388155425117169 0 -0.09192388155425117169 1 I I #
loop $-1 $-1 $637 $575 #
face $-1 $540 $501 $2 $-1 $638 reversed single #
point $-1 4.033403883618232655 0.6941877463102720247 7.344661338795471117 #
coedge $-1 $504 $519 $506 $579 forward $520 $-1 #
straight-curve $-1 6.27473092813646538 0.0625 5.10333429427723928 -0.7071067811865474617 5.921646927653550447e-16 0.7071067811865474617 I I #
edge $-1 $585 -0.03000000000000044645 $507 0 $577 $639 forward 7 unknown #
point $-1 6.705590835275870631 0.06249999999999959754 4.672474387137834029 #
point $-1 6.27473092813646538 0.0625 5.10333429427723928 #
point $-1 4.158293085810223388 2.125 6.258106914189776049 #
straight-curve $-1 6.253517724700868641 -0.0624999999999995004 5.082121090841642541 -0.7071067811865474617 -4.555113021271950277e-16 0.7071067811865474617 I I #
face $-1 $524 $520 $2 $-1 $111 reversed single #
vertex $-1 $523 $640 #
straight-curve $-1 6.253517724700868641 0.0625 5.082121090841642541 -0.7071067811865474617 1.252656080849790049e-16 0.7071067811865474617 I I #
vertex $-1 $529 $641 #
ellipse-curve $-1 5.041679797464466262 0 6.166679797464466262 -0.7071067811865474617 0 -0.7071067811865474617 -1.149048519428139681 0 1.149048519428139681 1 I I #
point $-1 6.684377631840273892 -0.06249999999999920203 4.65126118370223729 #
face $-1 $599 $595 $2 $-1 $642 reversed single #
loop $-1 $560 $593 $532 #
cone-surface $-1 4.154835137167398607 -1.675917471975469919 6.261564862832600831 -0.7071067811865474617 0 -0.7071067811865474617 0.09192388155425117169 0 -0.09192388155425117169 1 I I 0 1 0.1300000000000000044 forward I I I I #
coedge $-1 $593 $593 $533 $594 forward $591 $-1 #
edge $-1 $643 0 $643 6.283185307179586232 $593 $644 forward 7 unknown #
loop $-1 $622 $534 $590 #
vertex $-1 $535 $645 #
ellipse-curve $-1 5.617397474039453442 -1.675917471975469919 5.76066774837425033 0.7071067811865474617 0 0.7071067811865474617 0.09192388155425117169 0 -0.09192388155425117169 1 I I #
loop $-1 $-1 $620 $599 #
face $-1 $646 $536 $2 $-1 $647 reversed single #
point $-1 6.403509101903973821 -0.6941877463102720247 4.974556120509729951 #
coedge $-1 $601 $601 $648 $649 reversed $539 $-1 #
cone-surface $-1 3.460647390857129579 -0.6941877463102740231 6.955752609142869858 -0.7071067811865474617 0 -0.7071067811865474617 0.09192388155425117169 0 -0.09192388155425117169 1 I I 0 1 0.1300000000000000044 forward I I I I #
loop $-1 $650 $651 $542 #
plane-surface $-1 4.744694949366116354 0 5.869694949366116354 -0.7071067811865474617 0 -0.7071067811865474617 -0.7071067811865474617 0 0.7071067811865474617 forward_v I I I I #
loop $-1 $-1 $652 $466 #
coedge $-1 $606 $606 $653 $654 forward $543 $-1 #
coedge $-1 $607 $607 $555 $617 forward $545 $-1 #
coedge $-1 $608 $608 $546 $609 reversed $615 $-1 #
edge $-1 $655 0 $655 6.283185307179586232 $608 $656 forward 7 unknown #
vertex $-1 $547 $657 #
ellipse-curve $-1 5.062893000900063001 0 6.187893000900063001 0.7071067811865474617 0 0.7071067811865474617 -1.028742464447990557 0 1.028742464447990557 1 I I #
straight-curve $-1 5.133106914189776049 2.125 5.283293085810223388 0.7071067811865474617 0 -0.7071067811865474617 I I #
loop $-1 $658 $659 $552 #
cone-surface $-1 5.150574241767194472 0 6.275574241767194472 -0.7071067811865474617 0 -0.7071067811865474617 0.6629126073623882176 0 -0.6629126073623882176 1 I I 0 1 0.9375 forward I I I I #
loop $-1 $-1 $608 $481 #
coedge $-1 $616 $616 $652 $660 reversed $553 $-1 #
edge $-1 $661 -3.141592653589793116 $661 3.141592653589793116 $607 $662 forward 7 unknown #
loop $-1 $663 $664 $207 #
coedge $-1 $619 $619 $665 $666 forward $556 $-1 #
coedge $-1 $620 $620 $557 $621 reversed $598 $-1 #
edge $-1 $667 -3.141592653589793116 $667 3.141592653589793116 $620 $668 forward 7 unknown #
loop $-1 $-1 $558 $590 #
vertex $-1 $559 $669 #
ellipse-curve $-1 5.136564862832600831 -1.675917471975469919 5.279835137167398607 0.7071067811865474617 0 0.7071067811865474617 -0.09192388155425117169 0 0.09192388155425117169 1 I I #
point $-1 4.246759018721649959 -1.675917471975469919 6.169640981278349479 #
coedge $-1 $626 $626 $651 $670 reversed $563 $-1 #
cone-surface $-1 5.150574241767194472 0 6.275574241767194472 -0.7071067811865474617 0 -0.7071067811865474617 0.7071067811865474617 0 -0.7071067811865474617 1 I I 0 1 1 forward I I I I #
ellipse-curve $-1 5.105319407771255591 0 6.230319407771255591 -0.7071067811865474617 0 -0.7071067811865474617 1.579058224069018523 -0.06249999999999920203 -1.579058224069018523 1 I I #
coedge $-1 $629 $629 $568 $630 forward $671 $-1 #
edge $-1 $672 0 $672 6.283185307179586232 $629 $673 forward 7 unknown #
loop $-1 $674 $569 $675 #
vertex $-1 $570 $676 #
ellipse-curve $-1 5.617397474039451666 1.675917471975469919 5.760667748374252106 0.7071067811865474617 0 0.7071067811865474617 0.09192388155425117169 0 -0.09192388155425117169 1 I I #
loop $-1 $-1 $677 $635 #
face $-1 $575 $571 $2 $-1 $678 reversed single #
point $-1 4.727591629928501682 1.675917471975469919 6.65047359248520209 #
coedge $-1 $637 $637 $679 $680 reversed $574 $-1 #
cone-surface $-1 3.460647390857129579 0.6941877463102720247 6.955752609142869858 -0.7071067811865474617 0 -0.7071067811865474617 0.09192388155425117169 0 -0.09192388155425117169 1 I I 0 1 0.1300000000000000044 forward I I I I #
straight-curve $-1 6.705590835275870631 0.06249999999999959754 4.672474387137834029 0.7071067811865264785 -9.483155002006539664e-15 0.7071067811865684449 I I #
point $-1 6.684377631840273892 0.06249999999999990286 4.65126118370223729 #
point $-1 6.190728316892606387 0 5.017631278036326137 #
cone-surface $-1 5.136564862832600831 -1.675917471975469919 5.279835137167398607 -0.7071067811865474617 0 -0.7071067811865474617 0.09192388155425117169 0 -0.09192388155425117169 1 I I 0 1 0.1300000000000000044 forward I I I I #
vertex $-1 $594 $681 #
ellipse-curve $-1 4.635667748374251218 -1.675917471975469919 6.742397474039452554 0.7071067811865474617 0 0.7071067811865474617 0.09192388155425117169 0 -0.09192388155425117169 1 I I #
point $-1 5.709321355593704794 -1.675917471975469919 5.668743866819999866 #
face $-1 $675 $671 $2 $-1 $682 reversed single #
cone-surface $-1 5.830752609142869858 -0.6941877463102720247 4.585647390857129579 -0.7071067811865474617 0 -0.7071067811865474617 0.09192388155425117169 0 -0.09192388155425117169 1 I I 0 1 0.1300000000000000044 forward I I I I #
coedge $-1 $648 $648 $601 $649 forward $683 $-1 #
edge $-1 $684 -3.141592653589793116 $684 3.141592653589793116 $601 $685 forward 7 unknown #
loop $-1 $-1 $686 $542 #
coedge $-1 $651 $651 $626 $670 forward $603 $-1 #
coedge $-1 $652 $652 $616 $660 forward $605 $-1 #
coedge $-1 $653 $653 $606 $654 reversed $658 $-1 #
edge $-1 $687 0 $687 6.283185307179586232 $653 $688 forward 7 unknown #
vertex $-1 $609 $689 #
ellipse-curve $-1 4.866317315730202431 0 5.991317315730202431 -0.7071067811865474617 0 -0.7071067811865474617 -0.7513009550107067058 0 0.7513009550107067058 1 I I #
point $-1 6.091635465348053557 0 5.159150536452072444 #
loop $-1 $-1 $653 $552 #
coedge $-1 $659 $659 $686 $690 reversed $613 $-1 #
edge $-1 $691 -3.141592653589793116 $691 3.141592653589793116 $652 $692 forward 7 unknown #
vertex $-1 $617 $693 #
ellipse-curve $-1 4.866317315730202431 0 5.991317315730202431 0.7071067811865474617 0 0.7071067811865474617 -0.6629126073623882176 0 0.6629126073623882176 1 I I #
loop $-1 $694 $695 $207 #
coedge $-1 $664 $664 $696 $697 forward $618 $-1 #
coedge $-1 $665 $665 $619 $666 reversed $698 $-1 #
edge $-1 $699 -3.141592653589793116 $699 3.141592653589793116 $665 $700 forward 7 unknown #
vertex $-1 $621 $701 #
ellipse-curve $-1 5.830752609142869858 -0.6941877463102720247 4.585647390857129579 0.7071067811865474617 0 0.7071067811865474617 -0.09192388155425117169 0 0.09192388155425117169 1 I I #
point $-1 5.228488744386852183 -1.675917471975469919 5.187911255613147254 #
edge $-1 $702 0 $702 6.283185307179586232 $626 $703 forward 7 unknown #
loop $-1 $698 $629 $646 #
vertex $-1 $630 $704 #
ellipse-curve $-1 6.311585220349722469 0.6941877463102740231 5.066480002063981303 0.7071067811865474617 0 0.7071067811865474617 0.09192388155425117169 0 -0.09192388155425117169 1 I I #
loop $-1 $-1 $696 $675 #
face $-1 $635 $631 $2 $-1 $705 reversed single #
point $-1 5.709321355593703018 1.675917471975469919 5.668743866820000754 #
coedge $-1 $677 $677 $695 $706 reversed $634 $-1 #
cone-surface $-1 4.154835137167398607 1.675917471975469919 6.261564862832600831 -0.7071067811865474617 0 -0.7071067811865474617 0.09192388155425117169 0 -0.09192388155425117169 1 I I 0 1 0.1300000000000000044 forward I I I I #
coedge $-1 $679 $679 $637 $680 forward $694 $-1 #
edge $-1 $707 -3.141592653589793116 $707 3.141592653589793116 $637 $708 forward 7 unknown #
point $-1 4.72759162992850257 -1.675917471975469919 6.65047359248520209 #
cone-surface $-1 5.830752609142869858 0.6941877463102740231 4.585647390857129579 -0.7071067811865474617 0 -0.7071067811865474617 0.09192388155425117169 0 -0.09192388155425117169 1 I I 0 1 0.1300000000000000044 forward I I I I #
loop $-1 $492 $648 $207 #
vertex $-1 $649 $709 #
ellipse-curve $-1 3.460647390857129579 -0.6941877463102740231 6.955752609142869858 0.7071067811865474617 0 0.7071067811865474617 -0.09192388155425117169 0 0.09192388155425117169 1 I I #
coedge $-1 $686 $686 $659 $690 forward $650 $-1 #
vertex $-1 $654 $710 #
ellipse-curve $-1 4.822476695296636251 0 5.947476695296636251 -0.7071067811865474617 0 -0.7071067811865474617 -0.6629126073623882176 0 0.6629126073623882176 1 I I #
point $-1 4.115016360719495836 0 6.742618270740909026 #
edge $-1 $711 -3.141592653589793116 $711 3.141592653589793116 $686 $712 forward 7 unknown #
vertex $-1 $660 $713 #
ellipse-curve $-1 4.822476695296636251 0 5.947476695296636251 0.7071067811865474617 0 0.7071067811865474617 -0.7513009550107067058 0 0.7513009550107067058 1 I I #
point $-1 5.529229923092590759 0 5.328404708367814102 #
loop $-1 $683 $679 $207 #
coedge $-1 $695 $695 $677 $706 forward $663 $-1 #
coedge $-1 $696 $696 $664 $697 reversed $674 $-1 #
edge $-1 $714 -3.141592653589793116 $714 3.141592653589793116 $696 $715 forward 7 unknown #
loop $-1 $-1 $665 $646 #
vertex $-1 $666 $716 #
ellipse-curve $-1 5.830752609142869858 0.6941877463102740231 4.585647390857129579 0.7071067811865474617 0 0.7071067811865474617 -0.09192388155425117169 0 0.09192388155425117169 1 I I #
point $-1 5.92267649069712121 -0.6941877463102720247 4.493723509302878227 #
vertex $-1 $670 $717 #
ellipse-curve $-1 4.744694949366116354 0 5.869694949366116354 -0.7071067811865474617 0 -0.7071067811865474617 -0.7071067811865474617 0 0.7071067811865474617 1 I I #
point $-1 6.403509101903973821 0.6941877463102740231 4.974556120509729951 #
cone-surface $-1 5.136564862832599943 1.675917471975469919 5.279835137167399495 -0.7071067811865474617 0 -0.7071067811865474617 0.09192388155425117169 0 -0.09192388155425117169 1 I I 0 1 0.1300000000000000044 forward I I I I #
edge $-1 $718 -3.141592653589793116 $718 3.141592653589793116 $677 $719 forward 7 unknown #
vertex $-1 $680 $720 #
ellipse-curve $-1 3.460647390857129579 0.6941877463102720247 6.955752609142869858 0.7071067811865474617 0 0.7071067811865474617 -0.09192388155425117169 0 0.09192388155425117169 1 I I #
point $-1 3.552571272411380487 -0.6941877463102740231 6.863828727588618506 #
point $-1 4.159564087934247922 0 6.61038930265902458 #
vertex $-1 $690 $721 #
ellipse-curve $-1 4.744694949366116354 0 5.869694949366116354 0.7071067811865474617 0 0.7071067811865474617 -0.6629126073623882176 0 0.6629126073623882176 1 I I #
point $-1 5.573777650307343734 0 5.196175740285929656 #
vertex $-1 $697 $722 #
ellipse-curve $-1 5.136564862832599943 1.675917471975469919 5.279835137167399495 0.7071067811865474617 0 0.7071067811865474617 -0.09192388155425117169 0 0.09192388155425117169 1 I I #
point $-1 5.92267649069712121 0.6941877463102740231 4.493723509302878227 #
point $-1 4.037588168179569337 0 6.576801730552663372 #
vertex $-1 $706 $723 #
ellipse-curve $-1 4.154835137167398607 1.675917471975469919 6.261564862832600831 0.7071067811865474617 0 0.7071067811865474617 -0.09192388155425117169 0 0.09192388155425117169 1 I I #
point $-1 3.552571272411380487 0.6941877463102720247 6.863828727588618506 #
point $-1 5.407607556728504683 0 5.206782342003728026 #
point $-1 5.228488744386851295 1.675917471975469919 5.187911255613148143 #
point $-1 4.24675901872164907 1.675917471975469919 6.169640981278350367 #
End-of-ACIS-data 