700 0 2 0           
24 FBMach with ACIS - 7.0.3 13 ACIS 7.0.3 NT 24 Tue May 14 10:17:25 2002 
1 9.9999999999999995e-007 1e-010 
body $2 -1 $-1 $3 $-1 $4 #
bdycol-kcp $-1 -1 1 3 $5 $6 $7 #
model_id-kcp-attrib $-1 -1 $8 $-1 $0 1 1021385844 1021385844 -2084634623 1 #
lump $-1 -1 $-1 $-1 $9 $0 #
transform $-1 -1 1.0000000000000004 1.0525955700715649e-063 0 1.0525955700715647e-063 1.0000000000000004 0 -2.7369110631344083e-048 0 1 -2.8421709430404007e-014 3.5527136788005009e-015 0 1 rotate no_reflect no_shear #
body $10 -1 $-1 $11 $-1 $12 #
body $13 -1 $-1 $14 $-1 $15 #
body $16 -1 $-1 $17 $-1 $18 #
brep_non_volatile_id-cdc-attrib $-1 -1 $-1 $2 $0 1 #
shell $-1 -1 $-1 $-1 $-1 $19 $-1 $3 #
model_id-kcp-attrib $-1 -1 $-1 $-1 $5 1 1021385844 1021385844 -2084634622 1 #
lump $-1 -1 $-1 $-1 $20 $5 #
transform $-1 -1 1 0 0 0 1 0 0 0 1 98.5 3.5527136788005009e-015 19.5 1 no_rotate no_reflect no_shear #
rgb_color-st-attrib $-1 -1 $21 $-1 $6 0.5 1 1 #
lump $-1 -1 $-1 $-1 $22 $6 #
transform $-1 -1 1 0 0 0 1 0 0 0 1 0 0 0 1 no_rotate no_reflect no_shear #
rgb_color-st-attrib $-1 -1 $23 $-1 $7 0.5 1 1 #
lump $-1 -1 $-1 $24 $25 $7 #
transform $-1 -1 1 0 0 0 1 0 0 0 1 98.5 3.5527136788005009e-015 19.5 1 no_rotate no_reflect no_shear #
face $26 -1 $-1 $27 $28 $9 $-1 $29 reversed single #
shell $-1 -1 $-1 $-1 $-1 $30 $-1 $11 #
model_id-kcp-attrib $-1 -1 $-1 $13 $6 1 1021385844 1021385845 -2096300028 1 #
shell $-1 -1 $-1 $-1 $-1 $31 $-1 $14 #
model_id-kcp-attrib $-1 -1 $-1 $16 $7 1 1021385844 1021385845 -2085421053 1 #
lump $-1 -1 $-1 $-1 $32 $7 #
shell $-1 -1 $-1 $-1 $-1 $33 $-1 $17 #
model_id-kcp-attrib $-1 -1 $34 $-1 $19 1 1021385844 1021385844 -2084634623 2 #
face $35 -1 $-1 $36 $37 $9 $-1 $38 reversed single #
loop $39 -1 $-1 $-1 $40 $19 #
plane-surface $41 -1 $-1 80 5.4999999999999796 12 0 1 0 -1 0 0 forward_v I I I I #
face $42 -1 $-1 $43 $44 $20 $-1 $45 forward single #
face $-1 -1 $-1 $46 $47 $22 $-1 $48 forward single #
shell $-1 -1 $-1 $-1 $-1 $49 $-1 $24 #
face $-1 -1 $-1 $50 $51 $25 $-1 $52 reversed single #
face_name-twe-attrib $-1 -1 $53 $26 $19 1 #
model_id-kcp-attrib $-1 -1 $54 $-1 $27 1 1021385844 1021385844 -2084634623 3 #
face $55 -1 $-1 $56 $57 $9 $-1 $58 reversed single #
loop $59 -1 $-1 $-1 $60 $27 #
cone-surface $61 -1 $-1 99 -2.40936974796611e-014 12 0 0 1 5.5 0 0 1 I I 0 1 5.5 forward I I I I #
loop_type-twe-attrib $-1 -1 $-1 $-1 $28 0 #
coedge $-1 -1 $-1 $62 $63 $64 $65 reversed $28 $-1 #
surf-twe-attrib $-1 -1 $-1 $-1 $29 5 #
model_id-kcp-attrib $-1 -1 $-1 $-1 $30 1 1021385844 1021385844 -2084634622 6 #
face $66 -1 $-1 $67 $68 $20 $-1 $69 reversed single #
loop $-1 -1 $-1 $-1 $70 $30 #
plane-surface $-1 -1 $-1 0 0 7.5000000000000018 0 0 1 1 0 0 forward_v I I I I #
face $-1 -1 $-1 $71 $72 $22 $-1 $73 forward single #
loop $-1 -1 $-1 $-1 $74 $31 #
cone-surface $-1 -1 $-1 80 -2.40936974796611e-014 27 0 -5.9211894646675015e-017 -1 5.5 0 0 1 I I 0 1 5.5 forward I I I I #
face $-1 -1 $-1 $75 $76 $32 $-1 $77 reversed single #
face $-1 -1 $-1 $78 $79 $25 $-1 $80 forward single #
loop $-1 -1 $-1 $-1 $81 $33 #
plane-surface $-1 -1 $-1 -24.411542731880004 -15.000000000000005 7.5 -0.49999999999999983 -0.86602540378443882 5.3028752788419853e-017 0 6.1232329394368629e-017 1 forward_v I I I I #
primitive_order-cdc-attrib $-1 -1 $-1 $34 $19 1 10 #
face_name-twe-attrib $-1 -1 $82 $35 $27 2 #
model_id-kcp-attrib $-1 -1 $83 $-1 $36 1 1021385844 1021385844 -2084634623 4 #
face $84 -1 $-1 $85 $86 $9 $-1 $87 reversed single #
loop $88 -1 $-1 $-1 $89 $36 #
plane-surface $90 -1 $-1 99 -5.5000000000000204 12 0 -1 0 1 0 0 forward_v I I I I #
loop_type-twe-attrib $-1 -1 $-1 $-1 $37 0 #
coedge $-1 -1 $-1 $91 $92 $93 $94 reversed $37 $-1 #
surf-twe-attrib $-1 -1 $-1 $-1 $38 7 #
coedge $-1 -1 $-1 $95 $40 $96 $97 reversed $28 $-1 #
coedge $-1 -1 $-1 $40 $95 $91 $98 forward $28 $-1 #
coedge $-1 -1 $-1 $93 $99 $40 $65 forward $100 $-1 #
edge $101 -1 $-1 $102 -5.1814095446869999 $103 13.818590455313 $64 $104 forward @7 unknown #
model_id-kcp-attrib $-1 -1 $-1 $-1 $43 1 1021385844 1021385844 -2084634622 7 #
face $105 -1 $-1 $106 $107 $20 $-1 $108 reversed single #
loop $-1 -1 $-1 $-1 $109 $43 #
plane-surface $-1 -1 $-1 0 0 -7.5000000000000018 0 0 1 1 0 0 forward_v I I I I #
coedge $-1 -1 $-1 $110 $111 $112 $113 forward $44 $-1 #
face $-1 -1 $-1 $114 $115 $22 $-1 $116 forward single #
loop $-1 -1 $-1 $-1 $117 $46 #
plane-surface $-1 -1 $-1 80 -5.5000000000000204 27 -3.3073323724885132e-049 -1 5.9211894646675015e-017 0 -5.9211894646675015e-017 -1 forward_v I I I I #
coedge $-1 -1 $-1 $118 $119 $120 $121 forward $47 $-1 #
face $-1 -1 $-1 $122 $123 $32 $-1 $80 forward single #
loop $-1 -1 $-1 $-1 $124 $49 #
plane-surface $-1 -1 $-1 -40 0 0 1 0 0 0 0 -1 forward_v I I I I #
face $-1 -1 $-1 $125 $126 $25 $-1 $77 reversed single #
loop $-1 -1 $-1 $-1 $127 $50 #
plane-surface $-1 -1 $-1 0 0 7.5000000000000018 0 0 1 1 0 0 forward_v I I I I #
coedge $-1 -1 $-1 $128 $129 $127 $130 reversed $51 $-1 #
primitive_order-cdc-attrib $-1 -1 $-1 $54 $27 1 10 #
face_name-twe-attrib $-1 -1 $131 $55 $36 3 #
model_id-kcp-attrib $-1 -1 $132 $-1 $56 1 1021385844 1021385844 -2084634623 5 #
face $133 -1 $-1 $134 $135 $9 $-1 $136 forward single #
loop $137 -1 $-1 $-1 $138 $56 #
cone-surface $139 -1 $-1 80 -2.40936974796611e-014 12 0 0 1 5.5 0 0 1 I I 0 1 5.5 forward I I I I #
loop_type-twe-attrib $-1 -1 $-1 $-1 $57 0 #
coedge $-1 -1 $-1 $140 $141 $142 $143 reversed $57 $-1 #
surf-twe-attrib $-1 -1 $-1 $-1 $58 12 #
coedge $-1 -1 $-1 $144 $60 $63 $98 reversed $37 $-1 #
coedge $-1 -1 $-1 $60 $144 $140 $145 forward $37 $-1 #
coedge $-1 -1 $-1 $142 $64 $60 $94 forward $100 $-1 #
edge $146 -1 $-1 $103 -1.5707963267948966 $147 1.5707963267948968 $93 $148 forward @7 unknown #
coedge $-1 -1 $-1 $63 $62 $149 $150 reversed $28 $-1 #
coedge $-1 -1 $-1 $138 $151 $62 $97 forward $86 $-1 #
edge $152 -1 $-1 $153 0 $102 15 $62 $154 forward @7 unknown #
edge $155 -1 $-1 $156 0 $103 15 $91 $157 forward @7 unknown #
coedge $-1 -1 $-1 $64 $142 $138 $158 forward $100 $-1 #
loop $159 -1 $-1 $160 $64 $161 #
attrib_edge_convexity-kcp-attrib $-1 -1 $162 $-1 $65 1 #
vertex $-1 -1 $-1 $65 $163 #
vertex $-1 -1 $-1 $65 $164 #
straight-curve $165 -1 $-1 85.181409544687 5.4999999999999796 27 1 1.5192908393215702e-064 5.5855878151236198e-033 I I #
model_id-kcp-attrib $-1 -1 $-1 $-1 $67 1 1021385844 1021385844 -2084634622 5 #
face $166 -1 $-1 $167 $168 $20 $-1 $169 reversed single #
loop $-1 -1 $-1 $-1 $170 $67 #
plane-surface $-1 -1 $-1 0 -15.000000000000004 0 0 1 0 0 0 1 forward_v I I I I #
coedge $-1 -1 $-1 $171 $172 $173 $174 forward $68 $-1 #
coedge $-1 -1 $-1 $175 $70 $176 $177 forward $44 $-1 #
coedge $-1 -1 $-1 $70 $175 $178 $179 forward $44 $-1 #
coedge $-1 -1 $-1 $180 $181 $70 $113 reversed $182 $-1 #
edge $-1 -1 $-1 $183 -15.000000000000004 $184 15.000000000000004 $112 $185 forward @7 unknown #
face $-1 -1 $-1 $186 $187 $22 $-1 $188 forward single #
loop $-1 -1 $-1 $-1 $189 $71 #
cone-surface $-1 -1 $-1 99 -2.40936974796611e-014 27 0 -5.9211894646675015e-017 -1 5.5 0 0 1 I I 0 1 5.5 forward I I I I #
coedge $-1 -1 $-1 $190 $191 $192 $193 forward $72 $-1 #
coedge $-1 -1 $-1 $194 $74 $191 $195 reversed $47 $-1 #
coedge $-1 -1 $-1 $74 $194 $196 $197 forward $47 $-1 #
coedge $-1 -1 $-1 $198 $192 $74 $121 reversed $199 $-1 #
edge $-1 -1 $-1 $200 1.5707963267948966 $201 4.7123889803846897 $74 $202 forward @7 unknown #
face $-1 -1 $-1 $203 $204 $32 $-1 $205 reversed single #
loop $-1 -1 $-1 $-1 $206 $75 #
coedge $-1 -1 $-1 $207 $208 $209 $210 forward $76 $-1 #
face $-1 -1 $-1 $211 $212 $25 $-1 $205 reversed single #
loop $-1 -1 $-1 $-1 $213 $78 #
coedge $-1 -1 $-1 $214 $215 $81 $130 forward $79 $-1 #
coedge $-1 -1 $-1 $216 $81 $217 $218 reversed $51 $-1 #
coedge $-1 -1 $-1 $81 $216 $213 $219 reversed $51 $-1 #
edge $-1 -1 $-1 $220 6.820508075688732 $221 24.820508075688814 $127 $222 forward @7 unknown #
primitive_order-cdc-attrib $-1 -1 $-1 $83 $36 1 10 #
face_name-twe-attrib $-1 -1 $223 $84 $56 4 #
model_id-kcp-attrib $-1 -1 $224 $-1 $85 1 1021385844 1021385844 -2084634623 6 #
face $225 -1 $-1 $226 $227 $9 $-1 $228 forward single #
loop $229 -1 $-1 $-1 $230 $85 #
plane-surface $231 -1 $-1 58.5 -6.0000000000000302 12 -1 0 0 0 -1 6.1232329394368604e-017 forward_v I I I I #
loop_type-twe-attrib $-1 -1 $-1 $-1 $86 0 #
coedge $-1 -1 $-1 $232 $96 $99 $158 reversed $86 $-1 #
surf-twe-attrib $-1 -1 $-1 $-1 $87 20 #
coedge $-1 -1 $-1 $233 $89 $92 $145 reversed $57 $-1 #
coedge $-1 -1 $-1 $89 $233 $232 $234 forward $57 $-1 #
coedge $-1 -1 $-1 $99 $93 $89 $143 forward $100 $-1 #
edge $235 -1 $-1 $147 -4.3185904553130001 $236 14.681409544687 $142 $237 forward @7 unknown #
coedge $-1 -1 $-1 $92 $91 $238 $239 reversed $37 $-1 #
edge $240 -1 $-1 $241 0 $147 15 $140 $242 forward @7 unknown #
attrib_edge_convexity-kcp-attrib $-1 -1 $243 $-1 $94 1 #
vertex $-1 -1 $-1 $94 $244 #
ellipse-curve $245 -1 $-1 99 -2.40936974796611e-014 27 5.5855878151236198e-033 -6.1232329394368604e-017 -1 5.5 0 0 1 I I #
coedge $-1 -1 $-1 $246 $238 $95 $150 forward $247 $-1 #
edge $248 -1 $-1 $156 -13.818590455313 $153 5.1814095446869999 $149 $249 forward @7 unknown #
coedge $-1 -1 $-1 $96 $232 $246 $250 reversed $86 $-1 #
edge_name-twe-attrib $-1 -1 $-1 $-1 $97 1 20480 #
vertex $-1 -1 $-1 $150 $251 #
straight-curve $252 -1 $-1 80 5.4999999999999796 12 0 0 1 I I #
edge_name-twe-attrib $-1 -1 $-1 $-1 $98 2 20480 #
vertex $-1 -1 $-1 $150 $253 #
straight-curve $254 -1 $-1 99 5.4999999999999796 12 0 0 1 I I #
edge $255 -1 $-1 $236 1.5707963267948968 $102 4.7123889803846897 $99 $256 forward @7 unknown #
loop_type-twe-attrib $-1 -1 $-1 $-1 $100 1 #
loop $257 -1 $-1 $-1 $258 $161 #
face $259 -1 $-1 $260 $100 $9 $-1 $261 forward single #
convexity-sys-attrib $-1 -1 $262 $101 $65 #
point $-1 -1 $-1 80 5.4999999999999796 27 #
point $-1 -1 $-1 99 5.4999999999999796 27 #
cur-twe-attrib $-1 -1 $-1 $-1 $104 29 #
model_id-kcp-attrib $-1 -1 $-1 $-1 $106 1 1021385844 1021385844 -2084634622 2 #
face $263 -1 $-1 $264 $265 $20 $-1 $266 reversed single #
loop $-1 -1 $-1 $-1 $267 $106 #
plane-surface $-1 -1 $-1 -40 0 0 1 0 0 0 0 -1 forward_v I I I I #
coedge $-1 -1 $-1 $268 $178 $269 $270 forward $107 $-1 #
coedge $-1 -1 $-1 $271 $109 $268 $272 forward $68 $-1 #
coedge $-1 -1 $-1 $109 $271 $273 $274 forward $68 $-1 #
coedge $-1 -1 $-1 $181 $180 $109 $174 reversed $182 $-1 #
edge $-1 -1 $-1 $275 -15.000000000000004 $276 15.000000000000004 $173 $277 forward @7 unknown #
coedge $-1 -1 $-1 $111 $110 $278 $279 forward $44 $-1 #
coedge $-1 -1 $-1 $280 $281 $110 $177 reversed $265 $-1 #
edge $-1 -1 $-1 $184 -40 $282 40 $176 $283 forward @7 unknown #
coedge $-1 -1 $-1 $170 $284 $111 $179 reversed $107 $-1 #
edge $-1 -1 $-1 $285 -40 $183 40 $178 $286 forward @7 unknown #
coedge $-1 -1 $-1 $173 $112 $284 $287 forward $182 $-1 #
coedge $-1 -1 $-1 $112 $173 $280 $288 reversed $182 $-1 #
loop $-1 -1 $-1 $-1 $180 $264 #
vertex $-1 -1 $-1 $113 $289 #
vertex $-1 -1 $-1 $113 $290 #
straight-curve $-1 -1 $-1 40 0 7.5000000000000018 0 1 0 I I #
face $-1 -1 $-1 $291 $199 $22 $-1 $292 reversed single #
loop $-1 -1 $-1 $-1 $293 $114 #
plane-surface $-1 -1 $-1 99 5.4999999999999796 27 3.3073323724885132e-049 1 -5.9211894646675015e-017 0 5.9211894646675015e-017 1 forward_v I I I I #
coedge $-1 -1 $-1 $294 $295 $296 $297 forward $115 $-1 #
coedge $-1 -1 $-1 $298 $117 $295 $299 reversed $72 $-1 #
coedge $-1 -1 $-1 $117 $298 $118 $195 forward $72 $-1 #
coedge $-1 -1 $-1 $120 $296 $117 $193 reversed $199 $-1 #
edge $-1 -1 $-1 $201 -14.681409544687 $300 4.3185904553130001 $117 $301 forward @7 unknown #
coedge $-1 -1 $-1 $119 $118 $302 $303 forward $47 $-1 #
edge $-1 -1 $-1 $304 0 $201 15 $191 $305 forward @7 unknown #
coedge $-1 -1 $-1 $306 $293 $119 $197 reversed $187 $-1 #
edge $-1 -1 $-1 $307 0 $200 15 $119 $308 forward @7 unknown #
coedge $-1 -1 $-1 $296 $120 $293 $309 reversed $199 $-1 #
loop $-1 -1 $-1 $-1 $120 $186 #
vertex $-1 -1 $-1 $197 $310 #
vertex $-1 -1 $-1 $195 $311 #
ellipse-curve $-1 -1 $-1 80 -2.4981875899361226e-014 12 -5.5855878151236198e-033 6.1232329394368604e-017 1 5.5 0 0 1 I I #
face $-1 -1 $-1 $312 $313 $32 $-1 $314 reversed single #
loop $-1 -1 $-1 $-1 $315 $122 #
plane-surface $-1 -1 $-1 0 0 -7.5000000000000018 0 0 1 1 0 0 forward_v I I I I #
coedge $-1 -1 $-1 $316 $317 $318 $319 forward $123 $-1 #
coedge $-1 -1 $-1 $320 $124 $317 $321 reversed $76 $-1 #
coedge $-1 -1 $-1 $124 $320 $322 $323 reversed $76 $-1 #
coedge $-1 -1 $-1 $324 $318 $124 $210 reversed $325 $-1 #
edge $-1 -1 $-1 $326 -11.250000000000002 $327 3.7500000000000018 $124 $328 forward @7 unknown #
face $-1 -1 $-1 $-1 $329 $25 $-1 $330 reversed single #
loop $-1 -1 $-1 $-1 $331 $125 #
coedge $-1 -1 $-1 $332 $333 $129 $219 forward $126 $-1 #
coedge $-1 -1 $-1 $215 $127 $333 $334 forward $79 $-1 #
coedge $-1 -1 $-1 $127 $214 $335 $336 forward $79 $-1 #
coedge $-1 -1 $-1 $129 $128 $331 $337 reversed $51 $-1 #
coedge $-1 -1 $-1 $335 $338 $128 $218 forward $329 $-1 #
edge $-1 -1 $-1 $339 -11.250000000000004 $220 3.7500000000000004 $217 $340 forward @7 unknown #
edge $-1 -1 $-1 $221 -3.7500000000000022 $341 11.250000000000002 $213 $342 forward @7 unknown #
vertex $-1 -1 $-1 $218 $343 #
vertex $-1 -1 $-1 $334 $344 #
straight-curve $-1 -1 $-1 -18.504809471616646 -18.410254037844371 7.5000000000000018 -0.86602540378443882 0.49999999999999983 0 I I #
primitive_order-cdc-attrib $-1 -1 $-1 $132 $56 1 10 #
face_name-twe-attrib $-1 -1 $345 $133 $85 5 #
model_id-kcp-attrib $-1 -1 $346 $-1 $134 1 1021385844 1021385844 -2084634623 7 #
face $347 -1 $-1 $348 $349 $9 $-1 $350 forward single #
loop $351 -1 $-1 $-1 $352 $134 #
plane-surface $353 -1 $-1 58.5 5.9999999999999796 12 -0.49999999999999989 0.86602540378443882 -4.9303806576313189e-032 -0.86602540378443904 -0.5 3.0616164697184302e-017 forward_v I I I I #
loop_type-twe-attrib $-1 -1 $-1 $-1 $135 0 #
coedge $-1 -1 $-1 $354 $355 $258 $356 forward $135 $-1 #
surf-twe-attrib $-1 -1 $-1 $-1 $136 32 #
coedge $-1 -1 $-1 $151 $138 $141 $234 reversed $86 $-1 #
coedge $-1 -1 $-1 $141 $140 $357 $358 reversed $57 $-1 #
edge $359 -1 $-1 $360 0 $236 15 $232 $361 forward @7 unknown #
attrib_edge_convexity-kcp-attrib $-1 -1 $362 $-1 $143 1 #
vertex $-1 -1 $-1 $143 $363 #
straight-curve $364 -1 $-1 94.681409544687 -5.5000000000000204 27 -1 -1.5192908393215702e-064 -5.5855878151236198e-033 I I #
coedge $-1 -1 $-1 $149 $357 $144 $239 forward $247 $-1 #
edge $365 -1 $-1 $241 -1.5707963267948966 $156 1.5707963267948968 $238 $366 forward @7 unknown #
edge_name-twe-attrib $-1 -1 $-1 $-1 $145 3 20480 #
vertex $-1 -1 $-1 $239 $367 #
straight-curve $368 -1 $-1 99 -5.5000000000000204 12 0 0 1 I I #
convexity-sys-attrib $-1 -1 $369 $146 $94 #
point $-1 -1 $-1 99 -5.5000000000000204 27 #
cur-twe-attrib $-1 -1 $-1 $-1 $148 41 #
coedge $-1 -1 $-1 $357 $149 $151 $250 forward $247 $-1 #
loop $370 -1 $-1 $371 $149 $260 #
edge_name-twe-attrib $-1 -1 $-1 $-1 $150 21 8704 #
straight-curve $372 -1 $-1 85.181409544687 5.4999999999999796 12 -1 1.5192908393215702e-064 5.5855878151236198e-033 I I #
edge $373 -1 $-1 $153 1.5707963267948968 $360 4.7123889803846897 $246 $374 forward @7 unknown #
point $-1 -1 $-1 80 5.4999999999999796 12 #
cur-twe-attrib $-1 -1 $-1 $-1 $154 44 #
point $-1 -1 $-1 99 5.4999999999999796 12 #
cur-twe-attrib $-1 -1 $-1 $-1 $157 45 #
attrib_edge_convexity-kcp-attrib $-1 -1 $375 $-1 $158 1 #
ellipse-curve $376 -1 $-1 80 -2.40936974796611e-014 27 5.5855878151236198e-033 -6.1232329394368604e-017 -1 5.5 0 0 1 I I #
loop_type-twe-attrib $-1 -1 $-1 $-1 $160 0 #
coedge $-1 -1 $-1 $377 $378 $230 $356 reversed $160 $-1 #
model_id-kcp-attrib $-1 -1 $379 $-1 $161 1 1021385844 1021385844 -2084634623 12 #
face $380 -1 $-1 $-1 $247 $9 $-1 $381 forward single #
plane-surface $382 -1 $-1 90.362819089373005 -3.4899868252679298e-014 27 -5.5855878151236198e-033 6.1232329394368604e-017 1 0 -1 6.1232329394368604e-017 forward_v I I I I #
edge_name-twe-attrib $-1 -1 $-1 $162 $65 17 8704 #
model_id-kcp-attrib $-1 -1 $-1 $-1 $167 1 1021385844 1021385844 -2084634622 3 #
face $383 -1 $-1 $-1 $182 $20 $-1 $384 reversed single #
loop $-1 -1 $-1 $-1 $280 $167 #
plane-surface $-1 -1 $-1 0 15.000000000000004 0 0 -1 0 0 0 -1 forward_v I I I I #
coedge $-1 -1 $-1 $385 $278 $281 $386 forward $168 $-1 #
coedge $-1 -1 $-1 $284 $170 $171 $272 reversed $107 $-1 #
coedge $-1 -1 $-1 $278 $385 $170 $270 reversed $168 $-1 #
edge $-1 -1 $-1 $285 -7.5000000000000018 $387 7.5000000000000018 $269 $388 forward @7 unknown #
coedge $-1 -1 $-1 $172 $171 $385 $389 forward $68 $-1 #
edge $-1 -1 $-1 $276 -40 $387 40 $268 $390 forward @7 unknown #
coedge $-1 -1 $-1 $281 $280 $172 $274 reversed $265 $-1 #
edge $-1 -1 $-1 $391 -40 $275 40 $273 $392 forward @7 unknown #
vertex $-1 -1 $-1 $174 $393 #
vertex $-1 -1 $-1 $287 $394 #
straight-curve $-1 -1 $-1 40 0 -7.5000000000000018 0 -1 0 I I #
coedge $-1 -1 $-1 $267 $269 $175 $279 reversed $168 $-1 #
edge $-1 -1 $-1 $282 -15.000000000000004 $285 15.000000000000004 $278 $395 forward @7 unknown #
coedge $-1 -1 $-1 $273 $176 $181 $288 forward $265 $-1 #
coedge $-1 -1 $-1 $176 $273 $267 $386 reversed $265 $-1 #
vertex $-1 -1 $-1 $177 $396 #
straight-curve $-1 -1 $-1 0 15.000000000000004 7.5000000000000018 -1 0 0 I I #
coedge $-1 -1 $-1 $178 $268 $180 $287 reversed $107 $-1 #
vertex $-1 -1 $-1 $279 $397 #
straight-curve $-1 -1 $-1 0 -15.000000000000004 7.5000000000000018 1 0 0 I I #
edge $-1 -1 $-1 $183 -7.5000000000000018 $276 7.5000000000000018 $180 $398 forward @7 unknown #
edge $-1 -1 $-1 $184 -7.5000000000000018 $275 7.5000000000000018 $181 $399 forward @7 unknown #
point $-1 -1 $-1 40 -15.000000000000004 7.5000000000000018 #
point $-1 -1 $-1 40 15.000000000000004 7.5000000000000018 #
face $-1 -1 $-1 $-1 $400 $22 $-1 $401 forward single #
plane-surface $-1 -1 $-1 89.5 -2.3145610874992998e-014 12 0 0 1 1 0 0 forward_v I I I I #
coedge $-1 -1 $-1 $196 $402 $198 $309 forward $187 $-1 #
coedge $-1 -1 $-1 $403 $189 $402 $404 reversed $115 $-1 #
coedge $-1 -1 $-1 $189 $403 $190 $299 forward $115 $-1 #
coedge $-1 -1 $-1 $192 $198 $189 $297 reversed $199 $-1 #
edge $-1 -1 $-1 $300 -1.5707963267948966 $405 1.5707963267948966 $189 $406 forward @7 unknown #
coedge $-1 -1 $-1 $191 $190 $407 $408 forward $72 $-1 #
edge $-1 -1 $-1 $409 0 $300 15 $295 $410 forward @7 unknown #
vertex $-1 -1 $-1 $299 $411 #
straight-curve $-1 -1 $-1 94.681409544687 -5.5000000000000213 12 1 1.5192908393215702e-064 5.5855878151236198e-033 I I #
coedge $-1 -1 $-1 $407 $412 $194 $303 reversed $400 $-1 #
edge $-1 -1 $-1 $304 1.5707963267948966 $307 4.7123889803846897 $194 $413 forward @7 unknown #
vertex $-1 -1 $-1 $408 $414 #
straight-curve $-1 -1 $-1 80 -5.5000000000000204 27 0 -5.9211894646675015e-017 -1 I I #
coedge $-1 -1 $-1 $402 $196 $412 $415 forward $187 $-1 #
vertex $-1 -1 $-1 $415 $416 #
straight-curve $-1 -1 $-1 80 5.4999999999999796 27 0 -5.9211894646675015e-017 -1 I I #
edge $-1 -1 $-1 $405 -13.818590455313 $200 5.1814095446869999 $293 $417 forward @7 unknown #
point $-1 -1 $-1 80 5.4999999999999787 12 #
point $-1 -1 $-1 80 -5.5000000000000213 12 #
face $-1 -1 $-1 $-1 $325 $32 $-1 $418 reversed single #
loop $-1 -1 $-1 $-1 $419 $203 #
plane-surface $-1 -1 $-1 0 15.000000000000004 0 0 -1 0 0 0 -1 forward_v I I I I #
coedge $-1 -1 $-1 $322 $420 $324 $421 forward $204 $-1 #
coedge $-1 -1 $-1 $317 $206 $422 $423 forward $123 $-1 #
coedge $-1 -1 $-1 $206 $316 $207 $321 forward $123 $-1 #
coedge $-1 -1 $-1 $209 $424 $206 $319 reversed $325 $-1 #
edge $-1 -1 $-1 $327 -15.820508075688775 $425 2.1794919243112814 $206 $426 forward @7 unknown #
coedge $-1 -1 $-1 $208 $207 $427 $428 forward $76 $-1 #
edge $-1 -1 $-1 $429 -15.000000000000004 $327 -5.9999999999999805 $207 $430 forward @7 unknown #
coedge $-1 -1 $-1 $420 $315 $208 $323 forward $204 $-1 #
edge $-1 -1 $-1 $326 5.9999999999999796 $431 15.000000000000004 $208 $432 forward @7 unknown #
coedge $-1 -1 $-1 $424 $209 $315 $421 reversed $325 $-1 #
loop $-1 -1 $-1 $-1 $318 $312 #
vertex $-1 -1 $-1 $323 $433 #
vertex $-1 -1 $-1 $210 $434 #
straight-curve $-1 -1 $-1 -40 5.9999999999999831 3.75 0 6.1232329394368629e-017 1 I I #
loop $-1 -1 $-1 $-1 $217 $211 #
plane-surface $-1 -1 $-1 0 -15.000000000000004 0 0 1 0 0 0 1 forward_v I I I I #
coedge $-1 -1 $-1 $435 $436 $216 $337 forward $212 $-1 #
coedge $-1 -1 $-1 $437 $213 $436 $438 reversed $126 $-1 #
coedge $-1 -1 $-1 $213 $437 $214 $334 reversed $126 $-1 #
edge $-1 -1 $-1 $221 5.999999999999968 $439 15.000000000000004 $333 $430 forward @7 unknown #
coedge $-1 -1 $-1 $440 $217 $215 $336 reversed $329 $-1 #
edge $-1 -1 $-1 $439 -40 $220 -24.411542731880004 $335 $441 forward @7 unknown #
edge $-1 -1 $-1 $341 -24.820508075688814 $339 -6.8205080756887311 $331 $442 forward @7 unknown #
coedge $-1 -1 $-1 $217 $440 $435 $443 reversed $329 $-1 #
vertex $-1 -1 $-1 $443 $444 #
straight-curve $-1 -1 $-1 -24.411542731880004 -15.000000000000004 3.7500000000000013 1.0605750557683974e-016 0 1 I I #
vertex $-1 -1 $-1 $337 $445 #
straight-curve $-1 -1 $-1 -40 -5.9999999999999547 3.7499999999999996 0 -6.1232329394368629e-017 -1 I I #
point $-1 -1 $-1 -24.411542731880004 -15.000000000000005 7.5000000000000018 #
point $-1 -1 $-1 -39.999999999999972 -5.999999999999968 7.5000000000000018 #
primitive_order-cdc-attrib $-1 -1 $-1 $224 $85 0 10 #
face_name-twe-attrib $-1 -1 $446 $225 $134 6 #
model_id-kcp-attrib $-1 -1 $447 $-1 $226 1 1021385844 1021385844 -2084634623 8 #
face $448 -1 $-1 $449 $450 $9 $-1 $451 forward single #
loop $452 -1 $-1 $-1 $453 $226 #
plane-surface $454 -1 $-1 74.088457268119996 14.999999999999901 12 0 1 0 -1 0 0 forward_v I I I I #
loop_type-twe-attrib $-1 -1 $-1 $-1 $227 0 #
coedge $-1 -1 $-1 $455 $456 $378 $457 forward $227 $-1 #
surf-twe-attrib $-1 -1 $-1 $-1 $228 54 #
coedge $-1 -1 $-1 $458 $230 $456 $459 reversed $135 $-1 #
coedge $-1 -1 $-1 $230 $458 $460 $461 forward $135 $-1 #
edge $462 -1 $-1 $463 -9.7699626167013776e-015 $464 12 $230 $465 forward @7 unknown #
coedge $-1 -1 $-1 $238 $246 $233 $358 forward $247 $-1 #
edge $466 -1 $-1 $360 -14.681409544687 $241 4.3185904553130001 $357 $467 forward @7 unknown #
edge_name-twe-attrib $-1 -1 $-1 $-1 $234 4 20480 #
vertex $-1 -1 $-1 $358 $468 #
straight-curve $469 -1 $-1 80 -5.5000000000000204 12 0 0 1 I I #
convexity-sys-attrib $-1 -1 $470 $235 $143 #
point $-1 -1 $-1 80 -5.5000000000000204 27 #
cur-twe-attrib $-1 -1 $-1 $-1 $237 63 #
edge_name-twe-attrib $-1 -1 $-1 $-1 $239 24 8704 #
ellipse-curve $471 -1 $-1 99 -2.40936974796611e-014 12 5.5855878151236198e-033 6.1232329394368604e-017 1 5.5 0 0 1 I I #
point $-1 -1 $-1 99 -5.5000000000000204 12 #
cur-twe-attrib $-1 -1 $-1 $-1 $242 65 #
edge_name-twe-attrib $-1 -1 $-1 $243 $94 18 8704 #
loop_type-twe-attrib $-1 -1 $-1 $-1 $247 1 #
loop $472 -1 $-1 $-1 $473 $260 #
cur-twe-attrib $-1 -1 $-1 $-1 $249 70 #
edge_name-twe-attrib $-1 -1 $-1 $-1 $250 22 8704 #
ellipse-curve $474 -1 $-1 80 -2.40936974796611e-014 12 5.5855878151236198e-033 6.1232329394368604e-017 1 5.5 0 0 1 I I #
convexity-sys-attrib $-1 -1 $475 $255 $158 #
cur-twe-attrib $-1 -1 $-1 $-1 $256 78 #
coedge $-1 -1 $-1 $476 $258 $477 $478 reversed $160 $-1 #
coedge $-1 -1 $-1 $258 $479 $352 $457 reversed $160 $-1 #
face_name-twe-attrib $-1 -1 $480 $259 $161 11 #
model_id-kcp-attrib $-1 -1 $481 $-1 $260 1 1021385844 1021385844 -2084634623 13 #
plane-surface $482 -1 $-1 90.362819089373005 -3.47518385160626e-014 12 -5.5855878151236198e-033 -6.1232329394368604e-017 -1 0 1 -6.1232329394368604e-017 forward_v I I I I #
surf-twe-attrib $-1 -1 $-1 $-1 $261 81 #
model_id-kcp-attrib $-1 -1 $-1 $-1 $264 1 1021385844 1021385844 -2084634622 4 #
plane-surface $-1 -1 $-1 40 0 0 -1 0 0 0 0 1 forward_v I I I I #
coedge $-1 -1 $-1 $269 $267 $271 $389 reversed $168 $-1 #
edge $-1 -1 $-1 $282 -7.5000000000000018 $391 7.5000000000000018 $281 $483 forward @7 unknown #
vertex $-1 -1 $-1 $389 $484 #
straight-curve $-1 -1 $-1 -40 -15.000000000000004 0 0 0 -1 I I #
edge $-1 -1 $-1 $387 -15.000000000000004 $391 15.000000000000004 $385 $485 forward @7 unknown #
straight-curve $-1 -1 $-1 0 -15.000000000000004 -7.5000000000000018 -1 0 0 I I #
vertex $-1 -1 $-1 $274 $486 #
straight-curve $-1 -1 $-1 0 15.000000000000004 -7.5000000000000018 1 0 0 I I #
point $-1 -1 $-1 40 15.000000000000004 -7.5000000000000018 #
point $-1 -1 $-1 40 -15.000000000000004 -7.5000000000000018 #
straight-curve $-1 -1 $-1 -40 0 7.5000000000000018 0 -1 0 I I #
point $-1 -1 $-1 -40 15.000000000000004 7.5000000000000018 #
point $-1 -1 $-1 -40 -15.000000000000004 7.5000000000000018 #
straight-curve $-1 -1 $-1 40 -15.000000000000004 0 0 0 -1 I I #
straight-curve $-1 -1 $-1 40 15.000000000000004 0 0 0 -1 I I #
loop $-1 -1 $-1 $-1 $412 $291 #
plane-surface $-1 -1 $-1 89.5 -2.2257432455292873e-014 27 0 0 1 1 0 0 forward_v I I I I #
coedge $-1 -1 $-1 $293 $306 $294 $404 forward $187 $-1 #
coedge $-1 -1 $-1 $295 $294 $487 $488 forward $115 $-1 #
edge $-1 -1 $-1 $489 0 $405 15 $402 $490 forward @7 unknown #
vertex $-1 -1 $-1 $404 $491 #
ellipse-curve $-1 -1 $-1 99 -2.4981875899361226e-014 12 -5.5855878151236198e-033 6.1232329394368604e-017 1 5.5 0 0 1 I I #
coedge $-1 -1 $-1 $487 $302 $298 $408 reversed $400 $-1 #
edge $-1 -1 $-1 $409 -4.3185904553130001 $304 14.681409544687 $298 $492 forward @7 unknown #
vertex $-1 -1 $-1 $488 $493 #
straight-curve $-1 -1 $-1 99 -5.5000000000000204 27 0 -5.9211894646675015e-017 -1 I I #
point $-1 -1 $-1 99 -5.5000000000000213 12 #
coedge $-1 -1 $-1 $302 $487 $306 $415 reversed $400 $-1 #
ellipse-curve $-1 -1 $-1 80 -2.40936974796611e-014 27 5.5855878151236198e-033 -6.1232329394368604e-017 -1 5.5 0 0 1 I I #
point $-1 -1 $-1 80 -5.5000000000000204 27 #
edge $-1 -1 $-1 $307 -5.1814095446869999 $489 13.818590455313 $306 $494 forward @7 unknown #
point $-1 -1 $-1 80 5.4999999999999796 27 #
straight-curve $-1 -1 $-1 85.181409544687 5.4999999999999787 12 -1 -1.5192908393215702e-064 -5.5855878151236198e-033 I I #
plane-surface $-1 -1 $-1 -40 5.9999999999999805 7.5 -0.50000000000000033 0.86602540378443849 -5.3028752788419835e-017 0 6.1232329394368629e-017 1 forward_v I I I I #
coedge $-1 -1 $-1 $495 $422 $424 $496 forward $313 $-1 #
coedge $-1 -1 $-1 $315 $322 $495 $497 forward $204 $-1 #
edge $-1 -1 $-1 $498 -2.1794919243112805 $326 15.820508075688775 $315 $499 forward @7 unknown #
coedge $-1 -1 $-1 $419 $427 $316 $423 reversed $313 $-1 #
edge $-1 -1 $-1 $425 24.411542731880061 $429 40 $422 $500 forward @7 unknown #
coedge $-1 -1 $-1 $318 $324 $419 $496 reversed $325 $-1 #
vertex $-1 -1 $-1 $423 $501 #
straight-curve $-1 -1 $-1 -26.299038105676662 13.910254037844375 7.5000000000000018 0.86602540378443849 0.50000000000000033 0 I I #
coedge $-1 -1 $-1 $422 $495 $320 $428 reversed $313 $-1 #
edge $-1 -1 $-1 $429 -7.5000000000000018 $431 7.5000000000000018 $427 $502 forward @7 unknown #
vertex $-1 -1 $-1 $423 $503 #
straight-curve $-1 -1 $-1 -40 0 7.5000000000000018 0 -1 0 I I #
vertex $-1 -1 $-1 $497 $504 #
straight-curve $-1 -1 $-1 -40 0 -7.5000000000000018 0 1 0 I I #
point $-1 -1 $-1 -40 5.9999999999999796 -7.5000000000000018 #
point $-1 -1 $-1 -40 5.9999999999999805 7.5000000000000018 #
coedge $-1 -1 $-1 $436 $331 $338 $443 forward $212 $-1 #
coedge $-1 -1 $-1 $331 $435 $332 $438 forward $212 $-1 #
coedge $-1 -1 $-1 $333 $332 $440 $505 reversed $126 $-1 #
edge $-1 -1 $-1 $506 -15.000000000000004 $341 -5.9999999999999689 $332 $432 forward @7 unknown #
vertex $-1 -1 $-1 $334 $507 #
coedge $-1 -1 $-1 $338 $335 $437 $505 forward $329 $-1 #
straight-curve $-1 -1 $-1 0 -15.000000000000004 7.5000000000000018 1 0 0 I I #
straight-curve $-1 -1 $-1 -18.504809471616646 -18.410254037844371 -7.5000000000000009 0.86602540378443882 -0.49999999999999983 0 I I #
edge $-1 -1 $-1 $339 24.411542731880004 $506 40 $338 $508 forward @7 unknown #
point $-1 -1 $-1 -24.411542731880004 -15.000000000000007 -7.5000000000000018 #
point $-1 -1 $-1 -39.999999999999972 -5.9999999999999689 -7.5000000000000018 #
primitive_order-cdc-attrib $-1 -1 $-1 $346 $134 0 10 #
face_name-twe-attrib $-1 -1 $509 $347 $226 7 #
model_id-kcp-attrib $-1 -1 $510 $-1 $348 1 1021385844 1021385844 -2084634623 9 #
face $511 -1 $-1 $512 $513 $9 $-1 $514 forward single #
loop $515 -1 $-1 $-1 $516 $348 #
plane-surface $517 -1 $-1 138.5 15 12 1 0 0 0 1 -6.1232329394368604e-017 forward_v I I I I #
loop_type-twe-attrib $-1 -1 $-1 $-1 $349 0 #
coedge $-1 -1 $-1 $518 $519 $479 $520 forward $349 $-1 #
surf-twe-attrib $-1 -1 $-1 $-1 $350 87 #
coedge $-1 -1 $-1 $521 $352 $519 $522 reversed $227 $-1 #
coedge $-1 -1 $-1 $352 $521 $354 $459 forward $227 $-1 #
edge $523 -1 $-1 $464 0 $524 18.000000000000057 $352 $525 forward @7 unknown #
coedge $-1 -1 $-1 $355 $354 $526 $527 reversed $135 $-1 #
edge $528 -1 $-1 $529 0 $464 15 $456 $530 forward @7 unknown #
coedge $-1 -1 $-1 $531 $477 $355 $461 reversed $532 $-1 #
edge $533 -1 $-1 $534 0 $463 15 $355 $535 forward @7 unknown #
attrib_edge_convexity-kcp-attrib $-1 -1 $536 $-1 $356 1 #
vertex $-1 -1 $-1 $461 $537 #
vertex $-1 -1 $-1 $459 $538 #
straight-curve $539 -1 $-1 58.5 -6.0000000000000204 27 0 1 -6.1232329394368604e-017 I I #
edge_name-twe-attrib $-1 -1 $-1 $-1 $358 23 8704 #
straight-curve $540 -1 $-1 94.681409544687 -5.5000000000000204 12 1 -1.5192908393215702e-064 -5.5855878151236198e-033 I I #
point $-1 -1 $-1 80 -5.5000000000000204 12 #
cur-twe-attrib $-1 -1 $-1 $-1 $361 95 #
edge_name-twe-attrib $-1 -1 $-1 $362 $143 19 8704 #
cur-twe-attrib $-1 -1 $-1 $-1 $366 100 #
loop_type-twe-attrib $-1 -1 $-1 $-1 $371 0 #
coedge $-1 -1 $-1 $526 $541 $531 $542 forward $371 $-1 #
cur-twe-attrib $-1 -1 $-1 $-1 $374 110 #
edge_name-twe-attrib $-1 -1 $-1 $375 $158 20 8704 #
coedge $-1 -1 $-1 $543 $377 $544 $545 reversed $160 $-1 #
coedge $-1 -1 $-1 $460 $546 $377 $478 forward $532 $-1 #
edge $547 -1 $-1 $548 0 $463 18.000000000000068 $477 $549 forward @7 unknown #
coedge $-1 -1 $-1 $378 $543 $453 $520 reversed $160 $-1 #
primitive_order-cdc-attrib $-1 -1 $-1 $379 $161 0 10 #
face_name-twe-attrib $-1 -1 $550 $380 $260 12 #
surf-twe-attrib $-1 -1 $-1 $-1 $381 120 #
straight-curve $-1 -1 $-1 -40 15.000000000000004 0 0 0 -1 I I #
point $-1 -1 $-1 -40 -15.000000000000004 -7.5000000000000018 #
straight-curve $-1 -1 $-1 -40 0 -7.5000000000000018 0 1 0 I I #
point $-1 -1 $-1 -40 15.000000000000004 -7.5000000000000018 #
coedge $-1 -1 $-1 $412 $407 $403 $488 reversed $400 $-1 #
edge $-1 -1 $-1 $489 -1.5707963267948966 $409 1.5707963267948966 $403 $551 forward @7 unknown #
vertex $-1 -1 $-1 $415 $552 #
straight-curve $-1 -1 $-1 99 5.4999999999999796 27 0 -5.9211894646675015e-017 -1 I I #
point $-1 -1 $-1 99 5.4999999999999787 12 #
straight-curve $-1 -1 $-1 94.681409544687 -5.5000000000000204 27 -1 -1.5192908393215702e-064 -5.5855878151236198e-033 I I #
point $-1 -1 $-1 99 -5.5000000000000204 27 #
straight-curve $-1 -1 $-1 85.181409544687 5.4999999999999796 27 1 1.5192908393215702e-064 5.5855878151236198e-033 I I #
coedge $-1 -1 $-1 $427 $419 $420 $497 reversed $313 $-1 #
edge $-1 -1 $-1 $425 -3.7500000000000022 $498 11.250000000000002 $419 $553 forward @7 unknown #
edge $-1 -1 $-1 $431 -40 $498 -24.411542731880061 $495 $554 forward @7 unknown #
vertex $-1 -1 $-1 $421 $555 #
straight-curve $-1 -1 $-1 -26.299038105676662 13.910254037844375 -7.5000000000000018 -0.86602540378443849 -0.50000000000000033 0 I I #
straight-curve $-1 -1 $-1 0 15.000000000000004 7.5000000000000018 -1 0 0 I I #
point $-1 -1 $-1 -24.411542731880061 15.000000000000016 7.5000000000000018 #
straight-curve $-1 -1 $-1 -40 15.000000000000004 0 0 0 -1 I I #
point $-1 -1 $-1 -40 15.000000000000004 7.5000000000000018 #
point $-1 -1 $-1 -40 15.000000000000004 -7.5000000000000018 #
edge $-1 -1 $-1 $439 -7.5000000000000018 $506 7.5000000000000018 $437 $556 forward @7 unknown #
vertex $-1 -1 $-1 $438 $557 #
point $-1 -1 $-1 -40 -15.000000000000004 7.5000000000000018 #
straight-curve $-1 -1 $-1 0 -15.000000000000004 -7.5000000000000018 -1 0 0 I I #
primitive_order-cdc-attrib $-1 -1 $-1 $447 $226 0 10 #
face_name-twe-attrib $-1 -1 $558 $448 $348 8 #
model_id-kcp-attrib $-1 -1 $559 $-1 $449 1 1021385844 1021385844 -2084634623 10 #
face $560 -1 $-1 $161 $532 $9 $-1 $561 forward single #
loop $562 -1 $-1 $-1 $544 $449 #
plane-surface $563 -1 $-1 138.5 -15 12 0 -1 0 1 0 0 forward_v I I I I #
loop_type-twe-attrib $-1 -1 $-1 $-1 $450 0 #
coedge $-1 -1 $-1 $564 $565 $543 $566 forward $450 $-1 #
surf-twe-attrib $-1 -1 $-1 $-1 $451 124 #
coedge $-1 -1 $-1 $567 $453 $565 $568 reversed $349 $-1 #
coedge $-1 -1 $-1 $453 $567 $455 $522 forward $349 $-1 #
edge $569 -1 $-1 $524 0 $570 64.411542731880004 $453 $571 forward @7 unknown #
coedge $-1 -1 $-1 $456 $455 $572 $573 reversed $227 $-1 #
edge $574 -1 $-1 $575 0 $524 15 $519 $576 forward @7 unknown #
attrib_edge_convexity-kcp-attrib $-1 -1 $577 $-1 $457 1 #
vertex $-1 -1 $-1 $522 $578 #
straight-curve $579 -1 $-1 58.5 5.9999999999999796 27 0.86602540378443804 0.5 -3.0616164697184302e-017 I I #
coedge $-1 -1 $-1 $572 $473 $458 $527 forward $371 $-1 #
edge $580 -1 $-1 $534 -9.7699626167013776e-015 $529 12 $526 $581 forward @7 unknown #
attrib_edge_convexity-kcp-attrib $-1 -1 $582 $-1 $459 1 #
vertex $-1 -1 $-1 $527 $583 #
straight-curve $584 -1 $-1 58.5 5.9999999999999796 12 0 0 1 I I #
coedge $-1 -1 $-1 $546 $460 $473 $542 reversed $532 $-1 #
loop $585 -1 $-1 $-1 $477 $512 #
attrib_edge_convexity-kcp-attrib $-1 -1 $586 $-1 $461 1 #
vertex $-1 -1 $-1 $542 $587 #
straight-curve $588 -1 $-1 58.5 -6.0000000000000302 12 0 0 1 I I #
convexity-sys-attrib $-1 -1 $589 $462 $356 #
point $-1 -1 $-1 58.5 -6.0000000000000302 27 #
point $-1 -1 $-1 58.5 5.9999999999999796 27 #
cur-twe-attrib $-1 -1 $-1 $-1 $465 132 #
cur-twe-attrib $-1 -1 $-1 $-1 $467 134 #
coedge $-1 -1 $-1 $473 $590 $591 $592 forward $371 $-1 #
edge $593 -1 $-1 $594 0 $534 18.000000000000068 $473 $595 forward @7 unknown #
coedge $-1 -1 $-1 $479 $476 $516 $566 reversed $160 $-1 #
coedge $-1 -1 $-1 $596 $597 $476 $545 forward $513 $-1 #
edge $598 -1 $-1 $599 0 $548 64.411542731880004 $544 $600 forward @7 unknown #
coedge $-1 -1 $-1 $477 $531 $596 $601 forward $532 $-1 #
attrib_edge_convexity-kcp-attrib $-1 -1 $602 $-1 $478 1 #
vertex $-1 -1 $-1 $601 $603 #
straight-curve $604 -1 $-1 74.088457268119996 -15 27 -0.86602540378443904 0.5 -3.0616164697184302e-017 I I #
primitive_order-cdc-attrib $-1 -1 $-1 $481 $260 0 10 #
ellipse-curve $-1 -1 $-1 99 -2.40936974796611e-014 27 5.5855878151236198e-033 -6.1232329394368604e-017 -1 5.5 0 0 1 I I #
point $-1 -1 $-1 99 5.4999999999999796 27 #
straight-curve $-1 -1 $-1 -24.411542731880079 15.000000000000004 3.7499999999999996 1.060575055768396e-016 0 -1 I I #
straight-curve $-1 -1 $-1 0 15.000000000000004 -7.5000000000000018 1 0 0 I I #
point $-1 -1 $-1 -24.411542731880061 15.000000000000014 -7.5000000000000018 #
straight-curve $-1 -1 $-1 -40 -15.000000000000004 0 0 0 -1 I I #
point $-1 -1 $-1 -40 -15.000000000000004 -7.5000000000000018 #
primitive_order-cdc-attrib $-1 -1 $-1 $510 $348 0 10 #
face_name-twe-attrib $-1 -1 $605 $511 $449 9 #
model_id-kcp-attrib $-1 -1 $606 $-1 $512 1 1021385844 1021385844 -2084634623 11 #
plane-surface $607 -1 $-1 74.088457268119996 -15 12 -0.49999999999999989 -0.86602540378443882 4.9303806576313189e-032 0.86602540378443904 -0.5 3.0616164697184302e-017 forward_v I I I I #
loop_type-twe-attrib $-1 -1 $-1 $-1 $513 0 #
surf-twe-attrib $-1 -1 $-1 $-1 $514 158 #
coedge $-1 -1 $-1 $608 $516 $597 $609 reversed $450 $-1 #
coedge $-1 -1 $-1 $516 $608 $518 $568 forward $450 $-1 #
edge $610 -1 $-1 $570 0 $599 30 $516 $611 forward @7 unknown #
coedge $-1 -1 $-1 $519 $518 $612 $613 reversed $349 $-1 #
edge $614 -1 $-1 $615 0 $570 15 $565 $616 forward @7 unknown #
attrib_edge_convexity-kcp-attrib $-1 -1 $617 $-1 $520 1 #
vertex $-1 -1 $-1 $568 $618 #
straight-curve $619 -1 $-1 74.088457268119996 15 27 1 0 0 I I #
coedge $-1 -1 $-1 $612 $526 $521 $573 forward $371 $-1 #
edge $620 -1 $-1 $529 0 $575 18.000000000000057 $572 $621 forward @7 unknown #
attrib_edge_convexity-kcp-attrib $-1 -1 $622 $-1 $522 1 #
vertex $-1 -1 $-1 $573 $623 #
straight-curve $624 -1 $-1 74.088457268119996 14.999999999999901 12 0 0 1 I I #
convexity-sys-attrib $-1 -1 $625 $523 $457 #
point $-1 -1 $-1 74.088457268119996 14.999999999999901 27 #
cur-twe-attrib $-1 -1 $-1 $-1 $525 166 #
model_id-kcp-attrib $-1 -1 $626 $-1 $527 1 1021385844 1021385844 -2084634623 17 #
straight-curve $627 -1 $-1 58.5 -6.0000000000000204 12 0 1 -6.1232329394368604e-017 I I #
convexity-sys-attrib $-1 -1 $628 $528 $459 #
point $-1 -1 $-1 58.5 5.9999999999999796 12 #
cur-twe-attrib $-1 -1 $-1 $-1 $530 168 #
loop_type-twe-attrib $-1 -1 $-1 $-1 $532 0 #
convexity-sys-attrib $-1 -1 $629 $533 $461 #
point $-1 -1 $-1 58.5 -6.0000000000000302 12 #
cur-twe-attrib $-1 -1 $-1 $-1 $535 170 #
edge_name-twe-attrib $-1 -1 $-1 $536 $356 5 8704 #
coedge $-1 -1 $-1 $541 $612 $608 $630 forward $371 $-1 #
coedge $-1 -1 $-1 $597 $596 $541 $592 reversed $513 $-1 #
edge $631 -1 $-1 $632 0 $594 64.411542731880004 $541 $633 forward @7 unknown #
attrib_edge_convexity-kcp-attrib $-1 -1 $634 $-1 $542 1 #
vertex $-1 -1 $-1 $542 $635 #
straight-curve $636 -1 $-1 74.088457268119996 -15 12 -0.86602540378443904 0.5 -3.0616164697184302e-017 I I #
coedge $-1 -1 $-1 $591 $544 $546 $601 reversed $513 $-1 #
coedge $-1 -1 $-1 $544 $591 $564 $609 forward $513 $-1 #
attrib_edge_convexity-kcp-attrib $-1 -1 $637 $-1 $545 1 #
vertex $-1 -1 $-1 $609 $638 #
straight-curve $639 -1 $-1 138.5 -15 27 -1 0 0 I I #
edge $640 -1 $-1 $594 0 $548 15 $546 $641 forward @7 unknown #
convexity-sys-attrib $-1 -1 $642 $547 $478 #
point $-1 -1 $-1 74.088457268119996 -15 27 #
cur-twe-attrib $-1 -1 $-1 $-1 $549 185 #
primitive_order-cdc-attrib $-1 -1 $-1 $559 $449 0 10 #
face_name-twe-attrib $-1 -1 $643 $560 $512 10 #
surf-twe-attrib $-1 -1 $-1 $-1 $561 191 #
coedge $-1 -1 $-1 $565 $564 $590 $630 reversed $450 $-1 #
edge $644 -1 $-1 $632 0 $599 15 $597 $645 forward @7 unknown #
attrib_edge_convexity-kcp-attrib $-1 -1 $646 $-1 $566 1 #
straight-curve $647 -1 $-1 138.5 15 27 0 -1 6.1232329394368604e-017 I I #
coedge $-1 -1 $-1 $590 $572 $567 $613 forward $371 $-1 #
edge $648 -1 $-1 $575 0 $615 64.411542731880004 $612 $649 forward @7 unknown #
attrib_edge_convexity-kcp-attrib $-1 -1 $650 $-1 $568 1 #
vertex $-1 -1 $-1 $613 $651 #
straight-curve $652 -1 $-1 138.5 15 12 0 0 1 I I #
convexity-sys-attrib $-1 -1 $653 $569 $520 #
point $-1 -1 $-1 138.5 15 27 #
cur-twe-attrib $-1 -1 $-1 $-1 $571 199 #
attrib_edge_convexity-kcp-attrib $-1 -1 $654 $-1 $573 1 #
straight-curve $655 -1 $-1 58.5 5.9999999999999796 12 0.86602540378443804 0.5 -3.0616164697184302e-017 I I #
convexity-sys-attrib $-1 -1 $656 $574 $522 #
point $-1 -1 $-1 74.088457268119996 14.999999999999901 12 #
cur-twe-attrib $-1 -1 $-1 $-1 $576 201 #
edge_name-twe-attrib $-1 -1 $-1 $577 $457 7 8704 #
attrib_edge_convexity-kcp-attrib $-1 -1 $657 $580 $527 1 #
cur-twe-attrib $-1 -1 $-1 $-1 $581 206 #
edge_name-twe-attrib $-1 -1 $-1 $582 $459 8 8448 #
edge_name-twe-attrib $-1 -1 $-1 $586 $461 6 8448 #
edge $658 -1 $-1 $615 0 $632 30 $590 $659 forward @7 unknown #
model_id-kcp-attrib $-1 -1 $660 $-1 $592 1 1021385844 1021385844 -2084634623 18 #
vertex $-1 -1 $-1 $630 $661 #
straight-curve $662 -1 $-1 138.5 -15 12 -1 0 0 I I #
convexity-sys-attrib $-1 -1 $663 $593 $542 #
point $-1 -1 $-1 74.088457268119996 -15 12 #
cur-twe-attrib $-1 -1 $-1 $-1 $595 220 #
convexity-sys-attrib $-1 -1 $664 $598 $545 #
point $-1 -1 $-1 138.5 -15 27 #
cur-twe-attrib $-1 -1 $-1 $-1 $600 223 #
attrib_edge_convexity-kcp-attrib $-1 -1 $665 $-1 $601 1 #
straight-curve $666 -1 $-1 74.088457268119996 -15 12 0 0 1 I I #
edge_name-twe-attrib $-1 -1 $-1 $602 $478 15 8704 #
primitive_order-cdc-attrib $-1 -1 $-1 $606 $512 0 10 #
edge_name-twe-attrib $-1 -1 $-1 $-1 $609 14 8704 #
straight-curve $667 -1 $-1 138.5 -15 12 0 0 1 I I #
convexity-sys-attrib $-1 -1 $668 $610 $566 #
cur-twe-attrib $-1 -1 $-1 $-1 $611 235 #
model_id-kcp-attrib $-1 -1 $669 $-1 $613 1 1021385844 1021385844 -2084634623 16 #
straight-curve $670 -1 $-1 74.088457268119996 15 12 1 0 0 I I #
convexity-sys-attrib $-1 -1 $671 $614 $568 #
point $-1 -1 $-1 138.5 15 12 #
cur-twe-attrib $-1 -1 $-1 $-1 $616 237 #
edge_name-twe-attrib $-1 -1 $-1 $617 $520 9 8704 #
convexity-sys-attrib $-1 -1 $672 $620 $573 #
cur-twe-attrib $-1 -1 $-1 $-1 $621 242 #
edge_name-twe-attrib $-1 -1 $-1 $622 $522 10 8448 #
convexity-sys-attrib $-1 -1 $673 $626 $527 #
model_id-kcp-attrib $-1 -1 $674 $-1 $630 1 1021385844 1021385844 -2084634623 15 #
straight-curve $675 -1 $-1 138.5 15 12 0 -1 6.1232329394368604e-017 I I #
edge_name-twe-attrib $-1 -1 $-1 $631 $592 30 8704 #
point $-1 -1 $-1 138.5 -15 12 #
cur-twe-attrib $-1 -1 $-1 $-1 $633 257 #
edge_name-twe-attrib $-1 -1 $-1 $634 $542 25 8704 #
edge_name-twe-attrib $-1 -1 $-1 $637 $545 13 8704 #
convexity-sys-attrib $-1 -1 $676 $640 $601 #
cur-twe-attrib $-1 -1 $-1 $-1 $641 266 #
cur-twe-attrib $-1 -1 $-1 $-1 $645 272 #
edge_name-twe-attrib $-1 -1 $-1 $646 $566 11 8704 #
attrib_edge_convexity-kcp-attrib $-1 -1 $677 $648 $613 1 #
cur-twe-attrib $-1 -1 $-1 $-1 $649 276 #
edge_name-twe-attrib $-1 -1 $-1 $650 $568 12 8704 #
edge_name-twe-attrib $-1 -1 $-1 $654 $573 27 8704 #
edge_name-twe-attrib $-1 -1 $-1 $657 $527 26 8704 #
edge_name-twe-attrib $-1 -1 $-1 $658 $630 29 8704 #
cur-twe-attrib $-1 -1 $-1 $-1 $659 287 #
edge_name-twe-attrib $-1 -1 $-1 $665 $601 16 8448 #
convexity-sys-attrib $-1 -1 $678 $669 $613 #
edge_name-twe-attrib $-1 -1 $-1 $677 $613 28 8704 #
End-of-ACIS-data 