600 0 2 0           
24 FBMach with ACIS - 6.0.3 13 ACIS 6.0.3 NT 24 Wed May 23 21:58:23 2001 
1 9.9999999999999995e-007 1e-010 
body $2 $3 $-1 $4 #
bdycol-kcp $-1 1 3 $5 $6 $7 #
model_id-kcp-attrib $-1 $8 $-1 $0 1 990669503 80 1515192321 1 #
lump $-1 $-1 $9 $0 #
transform $-1 1.0000000000000004 1.0525955700715649e-063 0 1.0525955700715647e-063 1.0000000000000004 0 -2.7369110631344083e-048 0 1 -2.8421709430404007e-014 3.5527136788005009e-015 0 1 rotate no_reflect no_shear #
body $10 $11 $-1 $12 #
body $13 $14 $-1 $15 #
body $16 $17 $-1 $18 #
brep_non_volatile_id-cdc-attrib $-1 $-1 $2 $0 1 #
shell $-1 $-1 $-1 $19 $-1 $3 #
model_id-kcp-attrib $-1 $-1 $-1 $5 1 990669503 100 1516503042 1 #
lump $-1 $-1 $20 $5 #
transform $-1 1 0 0 0 1 0 0 0 1 98.5 3.5527136788005009e-015 19.5 1 no_rotate no_reflect no_shear #
rgb_color-st-attrib $-1 $21 $-1 $6 0.5 1 1 #
lump $-1 $22 $23 $6 #
transform $-1 1 0 0 0 1 0 0 0 1 98.5 3.5527136788005009e-015 19.5 1 no_rotate no_reflect no_shear #
rgb_color-st-attrib $-1 $24 $-1 $7 0.5 1 1 #
lump $-1 $-1 $25 $7 #
transform $-1 1 0 0 0 1 0 0 0 1 0 0 0 1 no_rotate no_reflect no_shear #
face $26 $27 $28 $9 $-1 $29 reversed single #
shell $-1 $-1 $-1 $30 $-1 $11 #
model_id-kcp-attrib $-1 $-1 $13 $6 1 990669503 290 1512177667 1 #
lump $-1 $-1 $31 $6 #
shell $-1 $-1 $-1 $32 $-1 $14 #
model_id-kcp-attrib $-1 $-1 $16 $7 1 990669503 370 1517420548 1 #
shell $-1 $-1 $-1 $33 $-1 $17 #
model_id-kcp-attrib $-1 $34 $-1 $19 1 990669503 80 1515192321 2 #
face $35 $36 $37 $9 $-1 $38 reversed single #
loop $39 $-1 $40 $19 #
plane-surface $41 80 5.4999999999999796 12 0 1 0 -1 0 0 forward_v I I I I #
face $42 $43 $44 $20 $-1 $45 forward single #
shell $-1 $-1 $-1 $46 $-1 $22 #
face $-1 $47 $48 $23 $-1 $49 reversed single #
face $-1 $50 $51 $25 $-1 $52 forward single #
face_name-twe-attrib $-1 $53 $26 $19 1 #
model_id-kcp-attrib $-1 $54 $-1 $27 1 990669503 80 1515192321 3 #
face $55 $56 $57 $9 $-1 $58 reversed single #
loop $59 $-1 $60 $27 #
cone-surface $61 99 -2.40936974796611e-014 12 0 0 1 5.5 0 0 1 I I 0 1 5.5 forward I I I I #
loop_type-twe-attrib $-1 $-1 $-1 $28 0 #
coedge $-1 $62 $63 $64 $65 reversed $28 $-1 #
surf-twe-attrib $-1 $-1 $-1 $29 5 #
model_id-kcp-attrib $-1 $-1 $-1 $30 1 990669503 100 1516503042 6 #
face $66 $67 $68 $20 $-1 $69 reversed single #
loop $-1 $-1 $70 $30 #
plane-surface $-1 0 0 7.5000000000000018 0 0 1 1 0 0 forward_v I I I I #
face $-1 $71 $72 $31 $-1 $73 reversed single #
face $-1 $74 $75 $23 $-1 $76 forward single #
loop $-1 $-1 $77 $32 #
plane-surface $-1 -24.411542731880004 -15.000000000000005 7.5 -0.49999999999999983 -0.86602540378443882 5.3028752788419853e-017 0 6.1232329394368629e-017 1 forward_v I I I I #
face $-1 $78 $79 $25 $-1 $80 forward single #
loop $-1 $-1 $81 $33 #
cone-surface $-1 80 -2.40936974796611e-014 27 0 -5.9211894646675015e-017 -1 5.5 0 0 1 I I 0 1 5.5 forward I I I I #
primitive_order-cdc-attrib $-1 $-1 $34 $19 1 10 #
face_name-twe-attrib $-1 $82 $35 $27 2 #
model_id-kcp-attrib $-1 $83 $-1 $36 1 990669503 80 1515192321 4 #
face $84 $85 $86 $9 $-1 $87 reversed single #
loop $88 $-1 $89 $36 #
plane-surface $90 99 -5.5000000000000204 12 0 -1 0 1 0 0 forward_v I I I I #
loop_type-twe-attrib $-1 $-1 $-1 $37 0 #
coedge $-1 $91 $92 $93 $94 reversed $37 $-1 #
surf-twe-attrib $-1 $-1 $-1 $38 7 #
coedge $-1 $95 $40 $96 $97 reversed $28 $-1 #
coedge $-1 $40 $95 $91 $98 forward $28 $-1 #
coedge $-1 $93 $99 $40 $65 forward $100 $-1 #
edge $101 $102 -5.1814095446869999 $103 13.818590455313 $64 $104 forward 7 unknown #
model_id-kcp-attrib $-1 $-1 $-1 $43 1 990669503 100 1516503042 7 #
face $105 $106 $107 $20 $-1 $108 reversed single #
loop $-1 $-1 $109 $43 #
plane-surface $-1 0 0 -7.5000000000000018 0 0 1 1 0 0 forward_v I I I I #
coedge $-1 $110 $111 $112 $113 forward $44 $-1 #
face $-1 $114 $115 $31 $-1 $76 forward single #
loop $-1 $-1 $116 $46 #
plane-surface $-1 -40 0 0 1 0 0 0 0 -1 forward_v I I I I #
face $-1 $117 $118 $23 $-1 $73 reversed single #
loop $-1 $-1 $119 $47 #
plane-surface $-1 0 0 7.5000000000000018 0 0 1 1 0 0 forward_v I I I I #
coedge $-1 $120 $121 $119 $122 reversed $48 $-1 #
face $-1 $123 $124 $25 $-1 $125 forward single #
loop $-1 $-1 $126 $50 #
plane-surface $-1 80 -5.5000000000000204 27 -3.3073323724885132e-049 -1 5.9211894646675015e-017 0 -5.9211894646675015e-017 -1 forward_v I I I I #
coedge $-1 $127 $128 $129 $130 forward $51 $-1 #
primitive_order-cdc-attrib $-1 $-1 $54 $27 1 10 #
face_name-twe-attrib $-1 $131 $55 $36 3 #
model_id-kcp-attrib $-1 $132 $-1 $56 1 990669503 80 1515192321 5 #
face $133 $134 $135 $9 $-1 $136 forward single #
loop $137 $-1 $138 $56 #
cone-surface $139 80 -2.40936974796611e-014 12 0 0 1 5.5 0 0 1 I I 0 1 5.5 forward I I I I #
loop_type-twe-attrib $-1 $-1 $-1 $57 0 #
coedge $-1 $140 $141 $142 $143 reversed $57 $-1 #
surf-twe-attrib $-1 $-1 $-1 $58 12 #
coedge $-1 $144 $60 $63 $98 reversed $37 $-1 #
coedge $-1 $60 $144 $140 $145 forward $37 $-1 #
coedge $-1 $142 $64 $60 $94 forward $100 $-1 #
edge $146 $103 -1.5707963267948966 $147 1.5707963267948966 $93 $148 forward 7 unknown #
coedge $-1 $63 $62 $149 $150 reversed $28 $-1 #
coedge $-1 $138 $151 $62 $97 forward $86 $-1 #
edge $152 $153 0 $102 15 $62 $154 forward 7 unknown #
edge $155 $156 0 $103 15 $91 $157 forward 7 unknown #
coedge $-1 $64 $142 $138 $158 forward $100 $-1 #
loop $159 $160 $64 $161 #
attrib_edge_convexity-kcp-attrib $-1 $162 $-1 $65 1 #
vertex $-1 $65 $163 #
vertex $-1 $65 $164 #
straight-curve $165 85.181409544687 5.4999999999999796 27 1 1.5192908393215702e-064 5.5855878151236198e-033 I I #
model_id-kcp-attrib $-1 $-1 $-1 $67 1 990669503 100 1516503042 5 #
face $166 $167 $168 $20 $-1 $169 reversed single #
loop $-1 $-1 $170 $67 #
plane-surface $-1 0 -15.000000000000004 0 0 1 0 0 0 1 forward_v I I I I #
coedge $-1 $171 $172 $173 $174 forward $68 $-1 #
coedge $-1 $175 $70 $176 $177 forward $44 $-1 #
coedge $-1 $70 $175 $178 $179 forward $44 $-1 #
coedge $-1 $180 $181 $70 $113 reversed $182 $-1 #
edge $-1 $183 -15.000000000000004 $184 15.000000000000004 $112 $185 forward 7 unknown #
face $-1 $186 $187 $31 $-1 $188 reversed single #
loop $-1 $-1 $189 $71 #
coedge $-1 $190 $191 $192 $193 forward $72 $-1 #
face $-1 $194 $195 $23 $-1 $188 reversed single #
loop $-1 $-1 $196 $74 #
coedge $-1 $197 $198 $77 $122 forward $75 $-1 #
coedge $-1 $199 $77 $200 $201 reversed $48 $-1 #
coedge $-1 $77 $199 $196 $202 reversed $48 $-1 #
edge $-1 $203 6.820508075688732 $204 24.820508075688814 $119 $205 forward 7 unknown #
face $-1 $206 $207 $25 $-1 $208 forward single #
loop $-1 $-1 $209 $78 #
cone-surface $-1 99 -2.40936974796611e-014 27 0 -5.9211894646675015e-017 -1 5.5 0 0 1 I I 0 1 5.5 forward I I I I #
coedge $-1 $210 $211 $212 $213 forward $79 $-1 #
coedge $-1 $214 $81 $211 $215 reversed $51 $-1 #
coedge $-1 $81 $214 $216 $217 forward $51 $-1 #
coedge $-1 $218 $212 $81 $130 reversed $219 $-1 #
edge $-1 $220 1.5707963267948966 $221 4.7123889803846897 $81 $222 forward 7 unknown #
primitive_order-cdc-attrib $-1 $-1 $83 $36 1 10 #
face_name-twe-attrib $-1 $223 $84 $56 4 #
model_id-kcp-attrib $-1 $224 $-1 $85 1 990669503 80 1515192321 6 #
face $225 $226 $227 $9 $-1 $228 forward single #
loop $229 $-1 $230 $85 #
plane-surface $231 58.5 -6.0000000000000302 12 -1 0 0 0 -1 6.1232329394368604e-017 forward_v I I I I #
loop_type-twe-attrib $-1 $-1 $-1 $86 0 #
coedge $-1 $232 $96 $99 $158 reversed $86 $-1 #
surf-twe-attrib $-1 $-1 $-1 $87 20 #
coedge $-1 $233 $89 $92 $145 reversed $57 $-1 #
coedge $-1 $89 $233 $232 $234 forward $57 $-1 #
coedge $-1 $99 $93 $89 $143 forward $100 $-1 #
edge $235 $147 -4.3185904553130001 $236 14.681409544687 $142 $237 forward 7 unknown #
coedge $-1 $92 $91 $238 $239 reversed $37 $-1 #
edge $240 $241 0 $147 15 $140 $242 forward 7 unknown #
attrib_edge_convexity-kcp-attrib $-1 $243 $-1 $94 1 #
vertex $-1 $94 $244 #
ellipse-curve $245 99 -2.40936974796611e-014 27 5.5855878151236198e-033 -6.1232329394368604e-017 -1 5.5 0 0 1 I I #
coedge $-1 $246 $238 $95 $150 forward $247 $-1 #
edge $248 $156 -13.818590455313 $153 5.1814095446869999 $149 $249 forward 7 unknown #
coedge $-1 $96 $232 $246 $250 reversed $86 $-1 #
edge_name-twe-attrib $-1 $-1 $-1 $97 1 20480 #
vertex $-1 $150 $251 #
straight-curve $252 80 5.4999999999999796 12 0 0 1 I I #
edge_name-twe-attrib $-1 $-1 $-1 $98 2 20480 #
vertex $-1 $150 $253 #
straight-curve $254 99 5.4999999999999796 12 0 0 1 I I #
edge $255 $236 1.5707963267948966 $102 4.7123889803846897 $99 $256 forward 7 unknown #
loop_type-twe-attrib $-1 $-1 $-1 $100 1 #
loop $257 $-1 $258 $161 #
face $259 $260 $100 $9 $-1 $261 forward single #
convexity-sys-attrib $-1 $262 $101 $65 #
point $-1 80 5.4999999999999796 27 #
point $-1 99 5.4999999999999796 27 #
cur-twe-attrib $-1 $-1 $-1 $104 29 #
model_id-kcp-attrib $-1 $-1 $-1 $106 1 990669503 100 1516503042 2 #
face $263 $264 $265 $20 $-1 $266 reversed single #
loop $-1 $-1 $267 $106 #
plane-surface $-1 -40 0 0 1 0 0 0 0 -1 forward_v I I I I #
coedge $-1 $268 $178 $269 $270 forward $107 $-1 #
coedge $-1 $271 $109 $268 $272 forward $68 $-1 #
coedge $-1 $109 $271 $273 $274 forward $68 $-1 #
coedge $-1 $181 $180 $109 $174 reversed $182 $-1 #
edge $-1 $275 -15.000000000000004 $276 15.000000000000004 $173 $277 forward 7 unknown #
coedge $-1 $111 $110 $278 $279 forward $44 $-1 #
coedge $-1 $280 $281 $110 $177 reversed $265 $-1 #
edge $-1 $184 -40 $282 40 $176 $283 forward 7 unknown #
coedge $-1 $170 $284 $111 $179 reversed $107 $-1 #
edge $-1 $285 -40 $183 40 $178 $286 forward 7 unknown #
coedge $-1 $173 $112 $284 $287 forward $182 $-1 #
coedge $-1 $112 $173 $280 $288 reversed $182 $-1 #
loop $-1 $-1 $180 $264 #
vertex $-1 $113 $289 #
vertex $-1 $113 $290 #
straight-curve $-1 40 0 7.5000000000000018 0 1 0 I I #
face $-1 $291 $292 $31 $-1 $293 reversed single #
loop $-1 $-1 $294 $114 #
plane-surface $-1 0 0 -7.5000000000000018 0 0 1 1 0 0 forward_v I I I I #
coedge $-1 $295 $296 $297 $298 forward $115 $-1 #
coedge $-1 $299 $116 $296 $300 reversed $72 $-1 #
coedge $-1 $116 $299 $301 $302 reversed $72 $-1 #
coedge $-1 $303 $297 $116 $193 reversed $304 $-1 #
edge $-1 $305 -11.250000000000002 $306 3.7500000000000018 $116 $307 forward 7 unknown #
face $-1 $-1 $308 $23 $-1 $309 reversed single #
loop $-1 $-1 $310 $117 #
coedge $-1 $311 $312 $121 $202 forward $118 $-1 #
coedge $-1 $198 $119 $312 $313 forward $75 $-1 #
coedge $-1 $119 $197 $314 $315 forward $75 $-1 #
coedge $-1 $121 $120 $310 $316 reversed $48 $-1 #
coedge $-1 $314 $317 $120 $201 forward $308 $-1 #
edge $-1 $318 -11.250000000000004 $203 3.7500000000000004 $200 $319 forward 7 unknown #
edge $-1 $204 -3.7500000000000022 $320 11.250000000000002 $196 $321 forward 7 unknown #
vertex $-1 $201 $322 #
vertex $-1 $313 $323 #
straight-curve $-1 -18.504809471616646 -18.410254037844371 7.5000000000000018 -0.86602540378443882 0.49999999999999983 0 I I #
face $-1 $324 $219 $25 $-1 $325 reversed single #
loop $-1 $-1 $326 $123 #
plane-surface $-1 99 5.4999999999999796 27 3.3073323724885132e-049 1 -5.9211894646675015e-017 0 5.9211894646675015e-017 1 forward_v I I I I #
coedge $-1 $327 $328 $329 $330 forward $124 $-1 #
coedge $-1 $331 $126 $328 $332 reversed $79 $-1 #
coedge $-1 $126 $331 $127 $215 forward $79 $-1 #
coedge $-1 $129 $329 $126 $213 reversed $219 $-1 #
edge $-1 $221 -14.681409544687 $333 4.3185904553130001 $126 $334 forward 7 unknown #
coedge $-1 $128 $127 $335 $336 forward $51 $-1 #
edge $-1 $337 0 $221 15 $211 $338 forward 7 unknown #
coedge $-1 $339 $326 $128 $217 reversed $207 $-1 #
edge $-1 $340 0 $220 15 $128 $341 forward 7 unknown #
coedge $-1 $329 $129 $326 $342 reversed $219 $-1 #
loop $-1 $-1 $129 $206 #
vertex $-1 $217 $343 #
vertex $-1 $215 $344 #
ellipse-curve $-1 80 -2.4981875899361226e-014 12 -5.5855878151236198e-033 6.1232329394368604e-017 1 5.5 0 0 1 I I #
primitive_order-cdc-attrib $-1 $-1 $132 $56 1 10 #
face_name-twe-attrib $-1 $345 $133 $85 5 #
model_id-kcp-attrib $-1 $346 $-1 $134 1 990669503 80 1515192321 7 #
face $347 $348 $349 $9 $-1 $350 forward single #
loop $351 $-1 $352 $134 #
plane-surface $353 58.5 5.9999999999999796 12 -0.49999999999999989 0.86602540378443882 -4.9303806576313189e-032 -0.86602540378443904 -0.5 3.0616164697184302e-017 forward_v I I I I #
loop_type-twe-attrib $-1 $-1 $-1 $135 0 #
coedge $-1 $354 $355 $258 $356 forward $135 $-1 #
surf-twe-attrib $-1 $-1 $-1 $136 32 #
coedge $-1 $151 $138 $141 $234 reversed $86 $-1 #
coedge $-1 $141 $140 $357 $358 reversed $57 $-1 #
edge $359 $360 0 $236 15 $232 $361 forward 7 unknown #
attrib_edge_convexity-kcp-attrib $-1 $362 $-1 $143 1 #
vertex $-1 $143 $363 #
straight-curve $364 94.681409544687 -5.5000000000000204 27 -1 -1.5192908393215702e-064 -5.5855878151236198e-033 I I #
coedge $-1 $149 $357 $144 $239 forward $247 $-1 #
edge $365 $241 -1.5707963267948966 $156 1.5707963267948966 $238 $366 forward 7 unknown #
edge_name-twe-attrib $-1 $-1 $-1 $145 3 20480 #
vertex $-1 $239 $367 #
straight-curve $368 99 -5.5000000000000204 12 0 0 1 I I #
convexity-sys-attrib $-1 $369 $146 $94 #
point $-1 99 -5.5000000000000204 27 #
cur-twe-attrib $-1 $-1 $-1 $148 41 #
coedge $-1 $357 $149 $151 $250 forward $247 $-1 #
loop $370 $371 $149 $260 #
edge_name-twe-attrib $-1 $-1 $-1 $150 21 8704 #
straight-curve $372 85.181409544687 5.4999999999999796 12 -1 1.5192908393215702e-064 5.5855878151236198e-033 I I #
edge $373 $153 1.5707963267948966 $360 4.7123889803846897 $246 $374 forward 7 unknown #
point $-1 80 5.4999999999999796 12 #
cur-twe-attrib $-1 $-1 $-1 $154 44 #
point $-1 99 5.4999999999999796 12 #
cur-twe-attrib $-1 $-1 $-1 $157 45 #
attrib_edge_convexity-kcp-attrib $-1 $375 $-1 $158 1 #
ellipse-curve $376 80 -2.40936974796611e-014 27 5.5855878151236198e-033 -6.1232329394368604e-017 -1 5.5 0 0 1 I I #
loop_type-twe-attrib $-1 $-1 $-1 $160 0 #
coedge $-1 $377 $378 $230 $356 reversed $160 $-1 #
model_id-kcp-attrib $-1 $379 $-1 $161 1 990669503 80 1515192321 14 #
face $380 $-1 $247 $9 $-1 $381 forward single #
plane-surface $382 90.362819089373005 -3.4899868252679298e-014 27 -5.5855878151236198e-033 6.1232329394368604e-017 1 0 -1 6.1232329394368604e-017 forward_v I I I I #
edge_name-twe-attrib $-1 $-1 $162 $65 17 8704 #
model_id-kcp-attrib $-1 $-1 $-1 $167 1 990669503 100 1516503042 3 #
face $383 $-1 $182 $20 $-1 $384 reversed single #
loop $-1 $-1 $280 $167 #
plane-surface $-1 0 15.000000000000004 0 0 -1 0 0 0 -1 forward_v I I I I #
coedge $-1 $385 $278 $281 $386 forward $168 $-1 #
coedge $-1 $284 $170 $171 $272 reversed $107 $-1 #
coedge $-1 $278 $385 $170 $270 reversed $168 $-1 #
edge $-1 $285 -7.5000000000000018 $387 7.5000000000000018 $269 $388 forward 7 unknown #
coedge $-1 $172 $171 $385 $389 forward $68 $-1 #
edge $-1 $276 -40 $387 40 $268 $390 forward 7 unknown #
coedge $-1 $281 $280 $172 $274 reversed $265 $-1 #
edge $-1 $391 -40 $275 40 $273 $392 forward 7 unknown #
vertex $-1 $174 $393 #
vertex $-1 $287 $394 #
straight-curve $-1 40 0 -7.5000000000000018 0 -1 0 I I #
coedge $-1 $267 $269 $175 $279 reversed $168 $-1 #
edge $-1 $282 -15.000000000000004 $285 15.000000000000004 $278 $395 forward 7 unknown #
coedge $-1 $273 $176 $181 $288 forward $265 $-1 #
coedge $-1 $176 $273 $267 $386 reversed $265 $-1 #
vertex $-1 $177 $396 #
straight-curve $-1 0 15.000000000000004 7.5000000000000018 -1 0 0 I I #
coedge $-1 $178 $268 $180 $287 reversed $107 $-1 #
vertex $-1 $279 $397 #
straight-curve $-1 0 -15.000000000000004 7.5000000000000018 1 0 0 I I #
edge $-1 $183 -7.5000000000000018 $276 7.5000000000000018 $180 $398 forward 7 unknown #
edge $-1 $184 -7.5000000000000018 $275 7.5000000000000018 $181 $399 forward 7 unknown #
point $-1 40 -15.000000000000004 7.5000000000000018 #
point $-1 40 15.000000000000004 7.5000000000000018 #
face $-1 $-1 $304 $31 $-1 $400 reversed single #
loop $-1 $-1 $401 $186 #
plane-surface $-1 0 15.000000000000004 0 0 -1 0 0 0 -1 forward_v I I I I #
coedge $-1 $301 $402 $303 $403 forward $187 $-1 #
coedge $-1 $296 $189 $404 $405 forward $115 $-1 #
coedge $-1 $189 $295 $190 $300 forward $115 $-1 #
coedge $-1 $192 $406 $189 $298 reversed $304 $-1 #
edge $-1 $306 -15.820508075688775 $407 2.1794919243112814 $189 $408 forward 7 unknown #
coedge $-1 $191 $190 $409 $410 forward $72 $-1 #
edge $-1 $411 -15.000000000000004 $306 -5.9999999999999805 $190 $412 forward 7 unknown #
coedge $-1 $402 $294 $191 $302 forward $187 $-1 #
edge $-1 $305 5.9999999999999796 $413 15.000000000000004 $191 $414 forward 7 unknown #
coedge $-1 $406 $192 $294 $403 reversed $304 $-1 #
loop $-1 $-1 $297 $291 #
vertex $-1 $302 $415 #
vertex $-1 $193 $416 #
straight-curve $-1 -40 5.9999999999999831 3.75 0 6.1232329394368629e-017 1 I I #
loop $-1 $-1 $200 $194 #
plane-surface $-1 0 -15.000000000000004 0 0 1 0 0 0 1 forward_v I I I I #
coedge $-1 $417 $418 $199 $316 forward $195 $-1 #
coedge $-1 $419 $196 $418 $420 reversed $118 $-1 #
coedge $-1 $196 $419 $197 $313 reversed $118 $-1 #
edge $-1 $204 5.999999999999968 $421 15.000000000000004 $312 $412 forward 7 unknown #
coedge $-1 $422 $200 $198 $315 reversed $308 $-1 #
edge $-1 $421 -40 $203 -24.411542731880004 $314 $423 forward 7 unknown #
edge $-1 $320 -24.820508075688814 $318 -6.8205080756887311 $310 $424 forward 7 unknown #
coedge $-1 $200 $422 $417 $425 reversed $308 $-1 #
vertex $-1 $425 $426 #
straight-curve $-1 -24.411542731880004 -15.000000000000004 3.7500000000000013 1.0605750557683974e-016 0 1 I I #
vertex $-1 $316 $427 #
straight-curve $-1 -40 -5.9999999999999547 3.7499999999999996 0 -6.1232329394368629e-017 -1 I I #
point $-1 -24.411542731880004 -15.000000000000005 7.5000000000000018 #
point $-1 -39.999999999999972 -5.999999999999968 7.5000000000000018 #
face $-1 $-1 $428 $25 $-1 $429 forward single #
plane-surface $-1 89.5 -2.3145610874992998e-014 12 0 0 1 1 0 0 forward_v I I I I #
coedge $-1 $216 $430 $218 $342 forward $207 $-1 #
coedge $-1 $431 $209 $430 $432 reversed $124 $-1 #
coedge $-1 $209 $431 $210 $332 forward $124 $-1 #
coedge $-1 $212 $218 $209 $330 reversed $219 $-1 #
edge $-1 $333 -1.5707963267948966 $433 1.5707963267948966 $209 $434 forward 7 unknown #
coedge $-1 $211 $210 $435 $436 forward $79 $-1 #
edge $-1 $437 0 $333 15 $328 $438 forward 7 unknown #
vertex $-1 $332 $439 #
straight-curve $-1 94.681409544687 -5.5000000000000213 12 1 1.5192908393215702e-064 5.5855878151236198e-033 I I #
coedge $-1 $435 $440 $214 $336 reversed $428 $-1 #
edge $-1 $337 1.5707963267948966 $340 4.7123889803846897 $214 $441 forward 7 unknown #
vertex $-1 $436 $442 #
straight-curve $-1 80 -5.5000000000000204 27 0 -5.9211894646675015e-017 -1 I I #
coedge $-1 $430 $216 $440 $443 forward $207 $-1 #
vertex $-1 $443 $444 #
straight-curve $-1 80 5.4999999999999796 27 0 -5.9211894646675015e-017 -1 I I #
edge $-1 $433 -13.818590455313 $220 5.1814095446869999 $326 $445 forward 7 unknown #
point $-1 80 5.4999999999999787 12 #
point $-1 80 -5.5000000000000213 12 #
primitive_order-cdc-attrib $-1 $-1 $224 $85 0 10 #
face_name-twe-attrib $-1 $446 $225 $134 6 #
model_id-kcp-attrib $-1 $447 $-1 $226 1 990669503 80 1515192321 8 #
face $448 $449 $450 $9 $-1 $451 forward single #
loop $452 $-1 $453 $226 #
plane-surface $454 74.088457268119996 14.999999999999901 12 0 1 0 -1 0 0 forward_v I I I I #
loop_type-twe-attrib $-1 $-1 $-1 $227 0 #
coedge $-1 $455 $456 $378 $457 forward $227 $-1 #
surf-twe-attrib $-1 $-1 $-1 $228 54 #
coedge $-1 $458 $230 $456 $459 reversed $135 $-1 #
coedge $-1 $230 $458 $460 $461 forward $135 $-1 #
edge $462 $463 -9.7699626167013776e-015 $464 12 $230 $465 forward 7 unknown #
coedge $-1 $238 $246 $233 $358 forward $247 $-1 #
edge $466 $360 -14.681409544687 $241 4.3185904553130001 $357 $467 forward 7 unknown #
edge_name-twe-attrib $-1 $-1 $-1 $234 4 20480 #
vertex $-1 $358 $468 #
straight-curve $469 80 -5.5000000000000204 12 0 0 1 I I #
convexity-sys-attrib $-1 $470 $235 $143 #
point $-1 80 -5.5000000000000204 27 #
cur-twe-attrib $-1 $-1 $-1 $237 63 #
edge_name-twe-attrib $-1 $-1 $-1 $239 24 8704 #
ellipse-curve $471 99 -2.40936974796611e-014 12 5.5855878151236198e-033 6.1232329394368604e-017 1 5.5 0 0 1 I I #
point $-1 99 -5.5000000000000204 12 #
cur-twe-attrib $-1 $-1 $-1 $242 65 #
edge_name-twe-attrib $-1 $-1 $243 $94 18 8704 #
loop_type-twe-attrib $-1 $-1 $-1 $247 1 #
loop $472 $-1 $473 $260 #
cur-twe-attrib $-1 $-1 $-1 $249 70 #
edge_name-twe-attrib $-1 $-1 $-1 $250 22 8704 #
ellipse-curve $474 80 -2.40936974796611e-014 12 5.5855878151236198e-033 6.1232329394368604e-017 1 5.5 0 0 1 I I #
convexity-sys-attrib $-1 $475 $255 $158 #
cur-twe-attrib $-1 $-1 $-1 $256 78 #
coedge $-1 $476 $258 $477 $478 reversed $160 $-1 #
coedge $-1 $258 $479 $352 $457 reversed $160 $-1 #
model_id-kcp-attrib $-1 $480 $259 $161 1 990669503 80 1515192321 12 #
model_id-kcp-attrib $-1 $481 $-1 $260 1 990669503 80 1515192321 13 #
plane-surface $482 90.362819089373005 -3.47518385160626e-014 12 -5.5855878151236198e-033 -6.1232329394368604e-017 -1 0 1 -6.1232329394368604e-017 forward_v I I I I #
surf-twe-attrib $-1 $-1 $-1 $261 81 #
model_id-kcp-attrib $-1 $-1 $-1 $264 1 990669503 100 1516503042 4 #
plane-surface $-1 40 0 0 -1 0 0 0 0 1 forward_v I I I I #
coedge $-1 $269 $267 $271 $389 reversed $168 $-1 #
edge $-1 $282 -7.5000000000000018 $391 7.5000000000000018 $281 $483 forward 7 unknown #
vertex $-1 $389 $484 #
straight-curve $-1 -40 -15.000000000000004 0 0 0 -1 I I #
edge $-1 $387 -15.000000000000004 $391 15.000000000000004 $385 $485 forward 7 unknown #
straight-curve $-1 0 -15.000000000000004 -7.5000000000000018 -1 0 0 I I #
vertex $-1 $274 $486 #
straight-curve $-1 0 15.000000000000004 -7.5000000000000018 1 0 0 I I #
point $-1 40 15.000000000000004 -7.5000000000000018 #
point $-1 40 -15.000000000000004 -7.5000000000000018 #
straight-curve $-1 -40 0 7.5000000000000018 0 -1 0 I I #
point $-1 -40 15.000000000000004 7.5000000000000018 #
point $-1 -40 -15.000000000000004 7.5000000000000018 #
straight-curve $-1 40 -15.000000000000004 0 0 0 -1 I I #
straight-curve $-1 40 15.000000000000004 0 0 0 -1 I I #
plane-surface $-1 -40 5.9999999999999805 7.5 -0.50000000000000033 0.86602540378443849 -5.3028752788419835e-017 0 6.1232329394368629e-017 1 forward_v I I I I #
coedge $-1 $487 $404 $406 $488 forward $292 $-1 #
coedge $-1 $294 $301 $487 $489 forward $187 $-1 #
edge $-1 $490 -2.1794919243112805 $305 15.820508075688775 $294 $491 forward 7 unknown #
coedge $-1 $401 $409 $295 $405 reversed $292 $-1 #
edge $-1 $407 24.411542731880061 $411 40 $404 $492 forward 7 unknown #
coedge $-1 $297 $303 $401 $488 reversed $304 $-1 #
vertex $-1 $405 $493 #
straight-curve $-1 -26.299038105676662 13.910254037844375 7.5000000000000018 0.86602540378443849 0.50000000000000033 0 I I #
coedge $-1 $404 $487 $299 $410 reversed $292 $-1 #
edge $-1 $411 -7.5000000000000018 $413 7.5000000000000018 $409 $494 forward 7 unknown #
vertex $-1 $405 $495 #
straight-curve $-1 -40 0 7.5000000000000018 0 -1 0 I I #
vertex $-1 $489 $496 #
straight-curve $-1 -40 0 -7.5000000000000018 0 1 0 I I #
point $-1 -40 5.9999999999999796 -7.5000000000000018 #
point $-1 -40 5.9999999999999805 7.5000000000000018 #
coedge $-1 $418 $310 $317 $425 forward $195 $-1 #
coedge $-1 $310 $417 $311 $420 forward $195 $-1 #
coedge $-1 $312 $311 $422 $497 reversed $118 $-1 #
edge $-1 $498 -15.000000000000004 $320 -5.9999999999999689 $311 $414 forward 7 unknown #
vertex $-1 $313 $499 #
coedge $-1 $317 $314 $419 $497 forward $308 $-1 #
straight-curve $-1 0 -15.000000000000004 7.5000000000000018 1 0 0 I I #
straight-curve $-1 -18.504809471616646 -18.410254037844371 -7.5000000000000009 0.86602540378443882 -0.49999999999999983 0 I I #
edge $-1 $318 24.411542731880004 $498 40 $317 $500 forward 7 unknown #
point $-1 -24.411542731880004 -15.000000000000007 -7.5000000000000018 #
point $-1 -39.999999999999972 -5.9999999999999689 -7.5000000000000018 #
loop $-1 $-1 $440 $324 #
plane-surface $-1 89.5 -2.2257432455292873e-014 27 0 0 1 1 0 0 forward_v I I I I #
coedge $-1 $326 $339 $327 $432 forward $207 $-1 #
coedge $-1 $328 $327 $501 $502 forward $124 $-1 #
edge $-1 $503 0 $433 15 $430 $504 forward 7 unknown #
vertex $-1 $432 $505 #
ellipse-curve $-1 99 -2.4981875899361226e-014 12 -5.5855878151236198e-033 6.1232329394368604e-017 1 5.5 0 0 1 I I #
coedge $-1 $501 $335 $331 $436 reversed $428 $-1 #
edge $-1 $437 -4.3185904553130001 $337 14.681409544687 $331 $506 forward 7 unknown #
vertex $-1 $502 $507 #
straight-curve $-1 99 -5.5000000000000204 27 0 -5.9211894646675015e-017 -1 I I #
point $-1 99 -5.5000000000000213 12 #
coedge $-1 $335 $501 $339 $443 reversed $428 $-1 #
ellipse-curve $-1 80 -2.40936974796611e-014 27 5.5855878151236198e-033 -6.1232329394368604e-017 -1 5.5 0 0 1 I I #
point $-1 80 -5.5000000000000204 27 #
edge $-1 $340 -5.1814095446869999 $503 13.818590455313 $339 $508 forward 7 unknown #
point $-1 80 5.4999999999999796 27 #
straight-curve $-1 85.181409544687 5.4999999999999787 12 -1 -1.5192908393215702e-064 -5.5855878151236198e-033 I I #
primitive_order-cdc-attrib $-1 $-1 $346 $134 0 10 #
face_name-twe-attrib $-1 $509 $347 $226 7 #
model_id-kcp-attrib $-1 $510 $-1 $348 1 990669503 80 1515192321 9 #
face $511 $512 $513 $9 $-1 $514 forward single #
loop $515 $-1 $516 $348 #
plane-surface $517 138.5 15 12 1 0 0 0 1 -6.1232329394368604e-017 forward_v I I I I #
loop_type-twe-attrib $-1 $-1 $-1 $349 0 #
coedge $-1 $518 $519 $479 $520 forward $349 $-1 #
surf-twe-attrib $-1 $-1 $-1 $350 87 #
coedge $-1 $521 $352 $519 $522 reversed $227 $-1 #
coedge $-1 $352 $521 $354 $459 forward $227 $-1 #
edge $523 $464 0 $524 18.000000000000057 $352 $525 forward 7 unknown #
coedge $-1 $355 $354 $526 $527 reversed $135 $-1 #
edge $528 $529 0 $464 15 $456 $530 forward 7 unknown #
coedge $-1 $531 $477 $355 $461 reversed $532 $-1 #
edge $533 $534 0 $463 15 $355 $535 forward 7 unknown #
attrib_edge_convexity-kcp-attrib $-1 $536 $-1 $356 1 #
vertex $-1 $461 $537 #
vertex $-1 $459 $538 #
straight-curve $539 58.5 -6.0000000000000204 27 0 1 -6.1232329394368604e-017 I I #
edge_name-twe-attrib $-1 $-1 $-1 $358 23 8704 #
straight-curve $540 94.681409544687 -5.5000000000000204 12 1 -1.5192908393215702e-064 -5.5855878151236198e-033 I I #
point $-1 80 -5.5000000000000204 12 #
cur-twe-attrib $-1 $-1 $-1 $361 95 #
edge_name-twe-attrib $-1 $-1 $362 $143 19 8704 #
cur-twe-attrib $-1 $-1 $-1 $366 100 #
loop_type-twe-attrib $-1 $-1 $-1 $371 0 #
coedge $-1 $526 $541 $531 $542 forward $371 $-1 #
cur-twe-attrib $-1 $-1 $-1 $374 110 #
edge_name-twe-attrib $-1 $-1 $375 $158 20 8704 #
coedge $-1 $543 $377 $544 $545 reversed $160 $-1 #
coedge $-1 $460 $546 $377 $478 forward $532 $-1 #
edge $547 $548 0 $463 18.000000000000068 $477 $549 forward 7 unknown #
coedge $-1 $378 $543 $453 $520 reversed $160 $-1 #
face_name-twe-attrib $-1 $550 $379 $161 11 #
face_name-twe-attrib $-1 $551 $380 $260 12 #
surf-twe-attrib $-1 $-1 $-1 $381 120 #
straight-curve $-1 -40 15.000000000000004 0 0 0 -1 I I #
point $-1 -40 -15.000000000000004 -7.5000000000000018 #
straight-curve $-1 -40 0 -7.5000000000000018 0 1 0 I I #
point $-1 -40 15.000000000000004 -7.5000000000000018 #
coedge $-1 $409 $401 $402 $489 reversed $292 $-1 #
edge $-1 $407 -3.7500000000000022 $490 11.250000000000002 $401 $552 forward 7 unknown #
edge $-1 $413 -40 $490 -24.411542731880061 $487 $553 forward 7 unknown #
vertex $-1 $403 $554 #
straight-curve $-1 -26.299038105676662 13.910254037844375 -7.5000000000000018 -0.86602540378443849 -0.50000000000000033 0 I I #
straight-curve $-1 0 15.000000000000004 7.5000000000000018 -1 0 0 I I #
point $-1 -24.411542731880061 15.000000000000016 7.5000000000000018 #
straight-curve $-1 -40 15.000000000000004 0 0 0 -1 I I #
point $-1 -40 15.000000000000004 7.5000000000000018 #
point $-1 -40 15.000000000000004 -7.5000000000000018 #
edge $-1 $421 -7.5000000000000018 $498 7.5000000000000018 $419 $555 forward 7 unknown #
vertex $-1 $420 $556 #
point $-1 -40 -15.000000000000004 7.5000000000000018 #
straight-curve $-1 0 -15.000000000000004 -7.5000000000000018 -1 0 0 I I #
coedge $-1 $440 $435 $431 $502 reversed $428 $-1 #
edge $-1 $503 -1.5707963267948966 $437 1.5707963267948966 $431 $557 forward 7 unknown #
vertex $-1 $443 $558 #
straight-curve $-1 99 5.4999999999999796 27 0 -5.9211894646675015e-017 -1 I I #
point $-1 99 5.4999999999999787 12 #
straight-curve $-1 94.681409544687 -5.5000000000000204 27 -1 -1.5192908393215702e-064 -5.5855878151236198e-033 I I #
point $-1 99 -5.5000000000000204 27 #
straight-curve $-1 85.181409544687 5.4999999999999796 27 1 1.5192908393215702e-064 5.5855878151236198e-033 I I #
primitive_order-cdc-attrib $-1 $-1 $447 $226 0 10 #
face_name-twe-attrib $-1 $559 $448 $348 8 #
model_id-kcp-attrib $-1 $560 $-1 $449 1 990669503 80 1515192321 10 #
face $561 $161 $532 $9 $-1 $562 forward single #
loop $563 $-1 $544 $449 #
plane-surface $564 138.5 -15 12 0 -1 0 1 0 0 forward_v I I I I #
loop_type-twe-attrib $-1 $-1 $-1 $450 0 #
coedge $-1 $565 $566 $543 $567 forward $450 $-1 #
surf-twe-attrib $-1 $-1 $-1 $451 124 #
coedge $-1 $568 $453 $566 $569 reversed $349 $-1 #
coedge $-1 $453 $568 $455 $522 forward $349 $-1 #
edge $570 $524 0 $571 64.411542731880004 $453 $572 forward 7 unknown #
coedge $-1 $456 $455 $573 $574 reversed $227 $-1 #
edge $575 $576 0 $524 15 $519 $577 forward 7 unknown #
attrib_edge_convexity-kcp-attrib $-1 $578 $-1 $457 1 #
vertex $-1 $522 $579 #
straight-curve $580 58.5 5.9999999999999796 27 0.86602540378443804 0.5 -3.0616164697184302e-017 I I #
coedge $-1 $573 $473 $458 $527 forward $371 $-1 #
edge $581 $534 -9.7699626167013776e-015 $529 12 $526 $582 forward 7 unknown #
attrib_edge_convexity-kcp-attrib $-1 $583 $-1 $459 1 #
vertex $-1 $527 $584 #
straight-curve $585 58.5 5.9999999999999796 12 0 0 1 I I #
coedge $-1 $546 $460 $473 $542 reversed $532 $-1 #
loop $586 $-1 $477 $512 #
attrib_edge_convexity-kcp-attrib $-1 $587 $-1 $461 1 #
vertex $-1 $542 $588 #
straight-curve $589 58.5 -6.0000000000000302 12 0 0 1 I I #
convexity-sys-attrib $-1 $590 $462 $356 #
point $-1 58.5 -6.0000000000000302 27 #
point $-1 58.5 5.9999999999999796 27 #
cur-twe-attrib $-1 $-1 $-1 $465 132 #
cur-twe-attrib $-1 $-1 $-1 $467 134 #
coedge $-1 $473 $591 $592 $593 forward $371 $-1 #
edge $594 $595 0 $534 18.000000000000068 $473 $596 forward 7 unknown #
coedge $-1 $479 $476 $516 $567 reversed $160 $-1 #
coedge $-1 $597 $598 $476 $545 forward $513 $-1 #
edge $599 $600 0 $548 64.411542731880004 $544 $601 forward 7 unknown #
coedge $-1 $477 $531 $597 $602 forward $532 $-1 #
attrib_edge_convexity-kcp-attrib $-1 $603 $-1 $478 1 #
vertex $-1 $602 $604 #
straight-curve $605 74.088457268119996 -15 27 -0.86602540378443904 0.5 -3.0616164697184302e-017 I I #
primitive_order-cdc-attrib $-1 $-1 $480 $161 0 10 #
primitive_order-cdc-attrib $-1 $-1 $481 $260 0 10 #
straight-curve $-1 -24.411542731880079 15.000000000000004 3.7499999999999996 1.060575055768396e-016 0 -1 I I #
straight-curve $-1 0 15.000000000000004 -7.5000000000000018 1 0 0 I I #
point $-1 -24.411542731880061 15.000000000000014 -7.5000000000000018 #
straight-curve $-1 -40 -15.000000000000004 0 0 0 -1 I I #
point $-1 -40 -15.000000000000004 -7.5000000000000018 #
ellipse-curve $-1 99 -2.40936974796611e-014 27 5.5855878151236198e-033 -6.1232329394368604e-017 -1 5.5 0 0 1 I I #
point $-1 99 5.4999999999999796 27 #
primitive_order-cdc-attrib $-1 $-1 $510 $348 0 10 #
face_name-twe-attrib $-1 $606 $511 $449 9 #
model_id-kcp-attrib $-1 $607 $-1 $512 1 990669503 80 1515192321 11 #
plane-surface $608 74.088457268119996 -15 12 -0.49999999999999989 -0.86602540378443882 4.9303806576313189e-032 0.86602540378443904 -0.5 3.0616164697184302e-017 forward_v I I I I #
loop_type-twe-attrib $-1 $-1 $-1 $513 0 #
surf-twe-attrib $-1 $-1 $-1 $514 158 #
coedge $-1 $609 $516 $598 $610 reversed $450 $-1 #
coedge $-1 $516 $609 $518 $569 forward $450 $-1 #
edge $611 $571 0 $600 30 $516 $612 forward 7 unknown #
coedge $-1 $519 $518 $613 $614 reversed $349 $-1 #
edge $615 $616 0 $571 15 $566 $617 forward 7 unknown #
attrib_edge_convexity-kcp-attrib $-1 $618 $-1 $520 1 #
vertex $-1 $569 $619 #
straight-curve $620 74.088457268119996 15 27 1 0 0 I I #
coedge $-1 $613 $526 $521 $574 forward $371 $-1 #
edge $621 $529 0 $576 18.000000000000057 $573 $622 forward 7 unknown #
attrib_edge_convexity-kcp-attrib $-1 $623 $-1 $522 1 #
vertex $-1 $574 $624 #
straight-curve $625 74.088457268119996 14.999999999999901 12 0 0 1 I I #
convexity-sys-attrib $-1 $626 $523 $457 #
point $-1 74.088457268119996 14.999999999999901 27 #
cur-twe-attrib $-1 $-1 $-1 $525 166 #
model_id-kcp-attrib $-1 $627 $-1 $527 1 990669503 80 1515192321 17 #
straight-curve $628 58.5 -6.0000000000000204 12 0 1 -6.1232329394368604e-017 I I #
convexity-sys-attrib $-1 $629 $528 $459 #
point $-1 58.5 5.9999999999999796 12 #
cur-twe-attrib $-1 $-1 $-1 $530 168 #
loop_type-twe-attrib $-1 $-1 $-1 $532 0 #
convexity-sys-attrib $-1 $630 $533 $461 #
point $-1 58.5 -6.0000000000000302 12 #
cur-twe-attrib $-1 $-1 $-1 $535 170 #
edge_name-twe-attrib $-1 $-1 $536 $356 5 8704 #
coedge $-1 $541 $613 $609 $631 forward $371 $-1 #
coedge $-1 $598 $597 $541 $593 reversed $513 $-1 #
edge $632 $633 0 $595 64.411542731880004 $541 $634 forward 7 unknown #
attrib_edge_convexity-kcp-attrib $-1 $635 $-1 $542 1 #
vertex $-1 $542 $636 #
straight-curve $637 74.088457268119996 -15 12 -0.86602540378443904 0.5 -3.0616164697184302e-017 I I #
coedge $-1 $592 $544 $546 $602 reversed $513 $-1 #
coedge $-1 $544 $592 $565 $610 forward $513 $-1 #
attrib_edge_convexity-kcp-attrib $-1 $638 $-1 $545 1 #
vertex $-1 $610 $639 #
straight-curve $640 138.5 -15 27 -1 0 0 I I #
edge $641 $595 0 $548 15 $546 $642 forward 7 unknown #
convexity-sys-attrib $-1 $643 $547 $478 #
point $-1 74.088457268119996 -15 27 #
cur-twe-attrib $-1 $-1 $-1 $549 185 #
primitive_order-cdc-attrib $-1 $-1 $560 $449 0 10 #
face_name-twe-attrib $-1 $644 $561 $512 10 #
surf-twe-attrib $-1 $-1 $-1 $562 191 #
coedge $-1 $566 $565 $591 $631 reversed $450 $-1 #
edge $645 $633 0 $600 15 $598 $646 forward 7 unknown #
attrib_edge_convexity-kcp-attrib $-1 $647 $-1 $567 1 #
straight-curve $648 138.5 15 27 0 -1 6.1232329394368604e-017 I I #
coedge $-1 $591 $573 $568 $614 forward $371 $-1 #
edge $649 $576 0 $616 64.411542731880004 $613 $650 forward 7 unknown #
attrib_edge_convexity-kcp-attrib $-1 $651 $-1 $569 1 #
vertex $-1 $614 $652 #
straight-curve $653 138.5 15 12 0 0 1 I I #
convexity-sys-attrib $-1 $654 $570 $520 #
point $-1 138.5 15 27 #
cur-twe-attrib $-1 $-1 $-1 $572 199 #
attrib_edge_convexity-kcp-attrib $-1 $655 $-1 $574 1 #
straight-curve $656 58.5 5.9999999999999796 12 0.86602540378443804 0.5 -3.0616164697184302e-017 I I #
convexity-sys-attrib $-1 $657 $575 $522 #
point $-1 74.088457268119996 14.999999999999901 12 #
cur-twe-attrib $-1 $-1 $-1 $577 201 #
edge_name-twe-attrib $-1 $-1 $578 $457 7 8704 #
attrib_edge_convexity-kcp-attrib $-1 $658 $581 $527 1 #
cur-twe-attrib $-1 $-1 $-1 $582 206 #
edge_name-twe-attrib $-1 $-1 $583 $459 8 8448 #
edge_name-twe-attrib $-1 $-1 $587 $461 6 8448 #
edge $659 $616 0 $633 30 $591 $660 forward 7 unknown #
model_id-kcp-attrib $-1 $661 $-1 $593 1 990669503 80 1515192321 18 #
vertex $-1 $631 $662 #
straight-curve $663 138.5 -15 12 -1 0 0 I I #
convexity-sys-attrib $-1 $664 $594 $542 #
point $-1 74.088457268119996 -15 12 #
cur-twe-attrib $-1 $-1 $-1 $596 220 #
convexity-sys-attrib $-1 $665 $599 $545 #
point $-1 138.5 -15 27 #
cur-twe-attrib $-1 $-1 $-1 $601 223 #
attrib_edge_convexity-kcp-attrib $-1 $666 $-1 $602 1 #
straight-curve $667 74.088457268119996 -15 12 0 0 1 I I #
edge_name-twe-attrib $-1 $-1 $603 $478 15 8704 #
primitive_order-cdc-attrib $-1 $-1 $607 $512 0 10 #
edge_name-twe-attrib $-1 $-1 $-1 $610 14 8704 #
straight-curve $668 138.5 -15 12 0 0 1 I I #
convexity-sys-attrib $-1 $669 $611 $567 #
cur-twe-attrib $-1 $-1 $-1 $612 235 #
model_id-kcp-attrib $-1 $670 $-1 $614 1 990669503 80 1515192321 16 #
straight-curve $671 74.088457268119996 15 12 1 0 0 I I #
convexity-sys-attrib $-1 $672 $615 $569 #
point $-1 138.5 15 12 #
cur-twe-attrib $-1 $-1 $-1 $617 237 #
edge_name-twe-attrib $-1 $-1 $618 $520 9 8704 #
convexity-sys-attrib $-1 $673 $621 $574 #
cur-twe-attrib $-1 $-1 $-1 $622 242 #
edge_name-twe-attrib $-1 $-1 $623 $522 10 8448 #
convexity-sys-attrib $-1 $674 $627 $527 #
model_id-kcp-attrib $-1 $675 $-1 $631 1 990669503 80 1515192321 15 #
straight-curve $676 138.5 15 12 0 -1 6.1232329394368604e-017 I I #
edge_name-twe-attrib $-1 $-1 $632 $593 30 8704 #
point $-1 138.5 -15 12 #
cur-twe-attrib $-1 $-1 $-1 $634 257 #
edge_name-twe-attrib $-1 $-1 $635 $542 25 8704 #
edge_name-twe-attrib $-1 $-1 $638 $545 13 8704 #
convexity-sys-attrib $-1 $677 $641 $602 #
cur-twe-attrib $-1 $-1 $-1 $642 266 #
cur-twe-attrib $-1 $-1 $-1 $646 272 #
edge_name-twe-attrib $-1 $-1 $647 $567 11 8704 #
attrib_edge_convexity-kcp-attrib $-1 $678 $649 $614 1 #
cur-twe-attrib $-1 $-1 $-1 $650 276 #
edge_name-twe-attrib $-1 $-1 $651 $569 12 8704 #
edge_name-twe-attrib $-1 $-1 $655 $574 27 8704 #
edge_name-twe-attrib $-1 $-1 $658 $527 26 8704 #
edge_name-twe-attrib $-1 $-1 $659 $631 29 8704 #
cur-twe-attrib $-1 $-1 $-1 $660 287 #
edge_name-twe-attrib $-1 $-1 $666 $602 16 8448 #
convexity-sys-attrib $-1 $679 $670 $614 #
edge_name-twe-attrib $-1 $-1 $678 $614 28 8704 #
End-of-ACIS-data 