106 0 1 0           
body $-1 $1 $-1 $-1 #
lump $-1 $-1 $2 $0 #
shell $-1 $-1 $-1 $3 $1 #
face $-1 $4 $5 $2 $-1 $6 forward single #
face $-1 $7 $8 $2 $-1 $9 forward single #
loop $-1 $10 $11 $3 #
cone-surface $-1 70 70 0 0 0 1 20 0 0 1 I I 0 1 0 I I I I #
face $-1 $12 $13 $2 $-1 $14 forward single #
loop $-1 $-1 $15 $4 #
plane-surface $-1 70 70 -40 0 0 -1 -1 0 0 0 I I I I #
loop $-1 $16 $17 $3 #
coedge $-1 $11 $11 $18 $19 1 $5 $-1 #
face $-1 $20 $21 $2 $-1 $22 forward single #
loop $-1 $-1 $23 $7 #
plane-surface $-1 70 70 40 0 0 1 1 0 0 0 I I I I #
coedge $-1 $15 $15 $17 $24 0 $8 $-1 #
loop $-1 $-1 $25 $3 #
coedge $-1 $17 $17 $15 $24 1 $10 $-1 #
coedge $-1 $18 $18 $11 $19 0 $26 $-1 #
edge $-1 $27 $27 $18 $28 0 #
face $-1 $29 $26 $2 $-1 $22 forward single #
loop $-1 $30 $31 $12 #
torus-surface $-1 50 50 20 0.70710678118654746 -0.70710678118654757 6.1232329394368592e-17 20 4 0.70710678118654757 0.70710678118654746 0 0 I I I I #
coedge $-1 $32 $32 $33 $34 1 $13 $-1 #
edge $-1 $35 $35 $15 $36 0 #
coedge $-1 $37 $37 $38 $39 1 $16 $-1 #
loop $-1 $40 $18 $20 #
vertex $-1 $19 $41 #
intcurve-curve $-1 0 { surfintcur nubs 3 periodic 49 
	0 3 0.70050592207548201 2 1.401011844150964 2 1.6979206561089266 2 1.994829468066889 2 
	2.5722002518 2 3.149571035533111 2 3.6026608346746443 2 4.055750633816178 2 4.5903209519240065 2 
	5.1248912700318341 2 5.6594615881396617 2 6.1940319062474902 2 6.7449698891721344 2 7.2959078720967776 2 
	7.8468458550214208 2 8.397783837946065 2 8.9293916409657754 2 9.4609994439854859 2 9.9926072470051963 2 
	10.524215050024907 2 10.824537534687796 2 11.124860019350685 2 11.824339214148894 2 12.523818408947104 2 
	13.223297603745316 2 13.922776798543525 2 14.223099283206414 2 14.523421767869303 2 15.055029570889015 2 
	15.586637373908726 2 16.118245176928436 2 16.649852979948147 2 17.200790962872787 2 17.751728945797431 2 
	18.302666928722076 2 18.85360491164672 2 19.388175229754548 2 19.922745547862377 2 20.457315865970205 2 
	20.991886184078034 2 21.444975983219567 2 21.898065782361101 2 22.475436566094213 2 23.052807349827326 2 
	23.349716161785302 2 23.646624973743283 2 24.347130895818751 2 25.047636817894215 3 
	55.857864376269056 55.857864376269056 6.3116527696556437 
	55.692753547015421 56.022975205522691 6.3116527696556437 
	55.515574772906888 56.206384502059969 6.2888038132944599 
	55.175575365723525 56.572459758264031 6.1904588492512147 
	55.012706712172118 56.755084324679331 6.1149747885860908 
	54.811341767971172 56.987964805655416 5.9894511214451152 
	54.746996103009337 57.063413122737664 5.9446598519118323 
	54.622238875251163 57.21196376665138 5.8465178031546436 
	54.56181840687411 57.285060847840143 5.7931704049639237 
	54.404574985550283 57.477633004433784 5.6411181295821304 
	54.297515295206473 57.612191695803332 5.5183551675558222 
	54.100498546827929 57.866094031500481 5.2461612104993494 
	54.010457123376369 57.985402709565562 5.0967586719123013 
	53.875863818001427 58.166906416295085 4.8380614159496229 
	53.815520628848155 58.249619089679001 4.7074597519868782 
	53.705858206122365 58.402165406379396 4.4345948974373544 
	53.656495578476139 58.47199364932068 4.2923461294553871 
	53.567508104371996 58.599111277195355 4.0019874335808314 
	53.523321991067107 58.66317177735769 3.8327850531320622 
	53.446874971710159 58.775088233841075 3.4786564814411607 
	53.41460135788931 58.822941100256884 3.2937320570808559 
	53.363631226360845 58.898949245335245 2.9180477805417722 
	53.344908585164454 58.92713179042952 2.72716781626358 
	53.320678493747202 58.963663899908447 2.3501230047302557 
	53.315166414702787 58.972020664195171 2.163959152590242 
	53.315166414702787 58.972020664195171 1.8021230522460843 
	53.321022691799485 58.963141711801796 1.6103367621929694 
	53.346353155922998 58.92495725904638 1.2218377281181896 
	53.365827110328894 58.89565330998353 1.0251248164583113 
	53.418368768085635 58.817346969182239 0.63766705626105669 
	53.451458046020839 58.768325218789954 0.44680677586822259 
	53.529334759410013 58.654430568460953 0.080821684477755174 
	53.57413343999967 58.589562613875415 -0.094302272596910625 
	53.669658181290075 58.453285527033486 -0.41448235964782998 
	53.724195247924939 58.37634186237144 -0.57409312745751306 
	53.84838826543151 58.20437847317779 -0.88606939322005807 
	53.91805815574493 58.109359606567082 -1.0384298148074356 
	54.070614574361286 57.905750849810758 -1.3260031760572004 
	54.153571421297642 57.797092024868505 -1.4613087934830524 
	54.32886872023272 57.57277560504906 -1.7076398207799248 
	54.421225974391916 57.457120934088941 -1.8186559359020169 
	54.568181427345635 57.277342976929219 -1.9702635552735199 
	54.62829496638301 57.204687304965411 -2.0270189202786573 
	54.752685965656319 57.056709949045057 -2.1317992409132582 
	54.816976468714792 56.98138999289371 -2.1798111519224275 
	55.016763615680176 56.75053777091005 -2.3134501872489395 
	55.178235429095544 56.569550290969893 -2.3943079524287771 
	55.516317916232289 56.205630217063529 -2.5000756818053724 
	55.692995548955466 56.022733203582618 -2.5248940041562831 
	56.022733203582618 55.692995548955466 -2.524894004156284 
	56.205630217063536 55.516317916232289 -2.5000756818053711 
	56.5695502909699 55.178235429095544 -2.3943079524287745 
	56.75053777091005 55.016763615680176 -2.313450187248939 
	56.98138999289371 54.816976468714792 -2.1798111519224275 
	57.056709949045057 54.752685965656312 -2.1317992409132649 
	57.204687304965411 54.628294966383002 -2.0270189202786644 
	57.277342976929219 54.568181427345635 -1.9702635552735197 
	57.457120934088941 54.421225974391916 -1.8186559359020169 
	57.57277560504906 54.328868720232727 -1.7076398207799282 
	57.797092024868505 54.153571421297642 -1.461308793483052 
	57.905750849810772 54.070614574361272 -1.3260031760572042 
	58.109359606567097 53.91805815574493 -1.0384298148074396 
	58.204378473177783 53.84838826543151 -0.88606939322005895 
	58.376341862371433 53.724195247924939 -0.57409312745751251 
	58.453285527033486 53.669658181290075 -0.41448235964782987 
	58.589562613875401 53.574133439999663 -0.094302272596911901 
	58.65443056846096 53.529334759410006 0.080821684477750511 
	58.768325218789961 53.451458046020832 0.44680677586821677 
	58.817346969182239 53.418368768085628 0.63766705626105358 
	58.89565330998353 53.365827110328894 1.025124816458308 
	58.924957259046373 53.346353155922998 1.2218377281181858 
	58.963141711801789 53.321022691799485 1.6103367621929658 
	58.972020664195171 53.315166414702801 1.8021230522460823 
	58.972020664195163 53.315166414702794 2.1639591525902393 
	58.963663899908447 53.320678493747195 2.3501230047302566 
	58.92713179042952 53.344908585164447 2.7271678162635808 
	58.898949245335245 53.363631226360837 2.9180477805417735 
	58.822941100256884 53.414601357889296 3.2937320570808577 
	58.775088233841082 53.446874971710159 3.4786564814411611 
	58.663171777357697 53.523321991067107 3.8327850531320635 
	58.599111277195355 53.567508104371996 4.0019874335808296 
	58.47199364932068 53.656495578476139 4.2923461294553853 
	58.402165406379396 53.705858206122365 4.4345948974373561 
	58.249619089679001 53.815520628848155 4.7074597519868808 
	58.166906416295085 53.875863818001427 4.8380614159496229 
	57.985402709565562 54.010457123376369 5.0967586719123021 
	57.866094031500495 54.100498546827922 5.2461612104993556 
	57.61219169580334 54.297515295206466 5.5183551675558276 
	57.477633004433791 54.404574985550283 5.6411181295821411 
	57.28506084784015 54.56181840687411 5.7931704049639379 
	57.211963766651365 54.62223887525117 5.8465178031546463 
	57.063413122737643 54.746996103009351 5.9446598519118394 
	56.987964805655409 54.8113417679712 5.9894511214451303 
	56.755084324679316 55.012706712172147 6.1149747885861032 
	56.57245975826401 55.175575365723539 6.1904588492512245 
	56.206384502059962 55.515574772906888 6.2888038132944635 
	56.022975205522684 55.692753547015428 6.3116527696556437 
	55.857864376269056 55.857864376269056 6.3116527696556437 
	0.001 
	cone 70 70 0 0 0 1 20 0 0 1 I I 0 1 0 I I I I 
	torus 50 50 20 0.70710678118654746 -0.70710678118654757 6.1232329394368592e-17 20 4 0.70710678118654757 0.70710678118654746 0 0 I I I I 
	nullbs 
	nullbs 
	} I I #
face $-1 $42 $43 $2 $-1 $44 reversed single #
loop $-1 $-1 $38 $12 #
coedge $-1 $31 $31 $45 $46 1 $21 $-1 #
coedge $-1 $23 $23 $37 $47 0 $13 $-1 #
coedge $-1 $38 $38 $23 $34 0 $30 $-1 #
edge $-1 $48 $49 $33 $50 0 #
vertex $-1 $24 $51 #
ellipse-curve $-1 70 70 -40 0 0 -1 20 0 0 1 I I #
coedge $-1 $25 $25 $32 $47 1 $16 $-1 #
coedge $-1 $33 $33 $25 $39 0 $30 $-1 #
edge $-1 $49 $48 $38 $52 0 #
loop $-1 $-1 $53 $20 #
point $-1 55.857864376269049 55.857864376269049 6.3116527696556401 #
face $-1 $54 $55 $2 $-1 $56 forward single #
loop $-1 $-1 $57 $29 #
plane-surface $-1 50 0 0 -1 0 0 0 0 1 0 I I I I #
coedge $-1 $45 $45 $31 $46 0 $58 $59 #
edge $-1 $60 $60 $45 $61 0 #
edge $-1 $48 $49 $32 $62 0 #
vertex $-1 $39 $63 #
vertex $-1 $39 $64 #
intcurve-curve $-1 0 { surfintcur nubs 3 open 15 
	36.422525447243288 3 37.844342128205739 2 38.939066308593688 2 40.033790488981637 2 40.722489881895484 2 
	41.411189274809324 2 41.936665106276607 2 42.462140937743897 2 42.987616769211186 2 43.513092600678469 2 
	44.201791993592309 2 44.890491386506149 2 45.985215566894098 2 47.07993974728204 2 48.501756428253707 3 
	58.622027902279299 53.551846579524828 40 
	58.895557272418444 53.958409183937178 40 
	59.143982313530657 54.37203524527331 40 
	59.522820021849299 55.120464401992692 40 
	59.684324394565877 55.487579196345678 40 
	59.937442333811418 56.242972203057924 40 
	60.028101179979615 56.631569988730178 40 
	60.094574609178004 57.22231633312137 40 
	60.104334472166947 57.474237437364671 40 
	60.067590898277835 57.972578751260507 40 
	60.020428424276908 58.218950149873976 40 
	59.895193984397636 58.603812100753636 40 
	59.818602981441117 58.779944438832139 40 
	59.623459659225531 59.106591961903774 40 
	59.504687360906914 59.256975678386802 40 
	59.256975678386809 59.504687360906914 40 
	59.106591961903774 59.623459659225531 40 
	58.779944438832146 59.818602981441117 40 
	58.603812100753643 59.895193984397636 40 
	58.218950149873976 60.020428424276908 40 
	57.9725787512605 60.067590898277842 39.999999999999993 
	57.474237437364678 60.104334472166954 39.999999999999993 
	57.22231633312137 60.094574609177997 40 
	56.631569988730178 60.028101179979615 40 
	56.242972203057917 59.937442333811418 40 
	55.487579196345678 59.684324394565877 40 
	55.120464401992692 59.522820021849299 40 
	54.372035245270581 59.143982313529278 40 
	53.958409183939885 58.895557272420263 40 
	53.55184657952482 58.622027902279292 40 
	0.001 
	torus 50 50 20 0.70710678118654746 -0.70710678118654757 6.1232329394368592e-17 20 -4 0.70710678118654757 0.70710678118654746 0 0 I I I I 
	plane 70 70 40 0 0 1 1 0 0 0 I I I I 
	nullbs 
	nullbs 
	} I I #
point $-1 90 70 -40 #
intcurve-curve $-1 0 { surfintcur nubs 3 open 33 
	-8.1178352382411916 3 -7.8468458550214208 2 -7.2959078720967767 2 -6.7449698891721326 2 -6.1940319062474849 2 
	-5.6594615881396635 2 -5.1248912700318385 2 -4.5903209519240171 2 -4.0557506338161957 2 -3.6026608346746549 2 
	-3.1495710355331141 2 -2.5722002518000053 2 -1.994829468066893 2 -1.6979206561089129 2 -1.4010118441509327 2 
	-0.70050592207546458 2 0 3 0.70050592207546603 2 1.4010118441509321 2 1.6979206561089122 2 
	1.9948294680668923 2 2.5722002518000027 2 3.1495710355331132 2 3.6026608346746589 2 4.0557506338162046 2 
	4.590320951924026 2 5.1248912700318483 2 5.6594615881396706 2 6.194031906247492 2 6.7449698891721344 2 
	7.2959078720967767 2 7.8468458550214191 2 8.1178352382411934 3 
	53.55184657952482 58.622027902279292 40 
	53.530102047968747 58.653462097056611 39.914311220778949 
	53.50954897812553 58.683367262664014 39.826194153036553 
	53.451458046020839 58.768325218789954 39.553193224131796 
	53.418368768085642 58.817346969182232 39.362332943738956 
	53.365827110328894 58.895653309983516 38.974875183541698 
	53.346353155923005 58.92495725904638 38.778162271881826 
	53.321022691799492 58.963141711801796 38.389663237807028 
	53.315166414702787 58.972020664195171 38.197876947753912 
	53.315166414702787 58.972020664195171 37.836040847409755 
	53.320678493747202 58.963663899908447 37.649876995269743 
	53.344908585164454 58.92713179042952 37.272832183736426 
	53.363631226360837 58.898949245335245 37.081952219458238 
	53.414601357889296 58.822941100256884 36.706267942919155 
	53.446874971710152 58.775088233841089 36.521343518558844 
	53.5233219910671 58.663171777357704 36.167214946867936 
	53.567508104371981 58.599111277195348 35.998012566419185 
	53.656495578476125 58.47199364932068 35.707653870544632 
	53.705858206122365 58.402165406379403 35.565405102562643 
	53.815520628848155 58.249619089679008 35.292540248013111 
	53.875863818001427 58.166906416295092 35.161938584050382 
	54.010457123376369 57.985402709565562 34.903241328087702 
	54.100498546827929 57.866094031500495 34.753838789500655 
	54.297515295206473 57.61219169580334 34.481644832444182 
	54.404574985550283 57.477633004433798 34.358881870417861 
	54.56181840687411 57.285060847840157 34.206829595036069 
	54.622238875251163 57.211963766651373 34.153482196845353 
	54.746996103009351 57.063413122737643 34.055340148088156 
	54.8113417679712 56.987964805655409 34.010548878554872 
	55.012706712172147 56.755084324679316 33.885025211413904 
	55.175575365723539 56.57245975826401 33.809541150748778 
	55.515574772906888 56.206384502059962 33.711196186705543 
	55.692753547015428 56.022975205522684 33.688347230344363 
	55.857864376269056 55.857864376269056 33.688347230344363 
	56.022975205522684 55.692753547015428 33.688347230344363 
	56.20638450205994 55.515574772906902 33.711196186705536 
	56.572459758263996 55.175575365723546 33.809541150748771 
	56.755084324679316 55.012706712172147 33.885025211413904 
	56.987964805655409 54.8113417679712 34.010548878554872 
	57.063413122737643 54.746996103009351 34.055340148088156 
	57.211963766651373 54.622238875251163 34.153482196845353 
	57.285060847840157 54.56181840687411 34.206829595036069 
	57.477633004433798 54.404574985550283 34.358881870417861 
	57.61219169580334 54.297515295206473 34.481644832444182 
	57.866094031500495 54.100498546827929 34.753838789500655 
	57.985402709565562 54.010457123376369 34.903241328087702 
	58.166906416295092 53.875863818001427 35.161938584050382 
	58.249619089679008 53.815520628848148 35.292540248013132 
	58.402165406379403 53.705858206122358 35.565405102562664 
	58.471993649320694 53.656495578476125 35.707653870544632 
	58.599111277195362 53.567508104371981 35.998012566419192 
	58.663171777357704 53.5233219910671 36.167214946867972 
	58.775088233841089 53.446874971710152 36.521343518558872 
	58.822941100256891 53.41460135788931 36.706267942919169 
	58.898949245335245 53.363631226360837 37.081952219458245 
	58.92713179042952 53.344908585164454 37.27283218373644 
	58.963663899908447 53.320678493747202 37.649876995269757 
	58.972020664195163 53.315166414702794 37.836040847409762 
	58.972020664195163 53.315166414702794 38.197876947753919 
	58.963141711801789 53.321022691799485 38.389663237807035 
	58.924957259046373 53.346353155922998 38.778162271881818 
	58.895653309983523 53.365827110328894 38.974875183541691 
	58.817346969182232 53.418368768085628 39.362332943738949 
	58.768325218789961 53.451458046020832 39.553193224131782 
	58.683367262664021 53.50954897812553 39.826194153036546 
	58.653462097056618 53.530102047968754 39.914311220778949 
	58.622027902279299 53.551846579524828 40 
	0.001 
	cone 70 70 0 0 0 1 20 0 0 1 I I 0 1 0 I I I I 
	torus 50 50 20 0.70710678118654746 -0.70710678118654757 6.1232329394368592e-17 20 4 0.70710678118654757 0.70710678118654746 0 0 I I I I 
	nullbs 
	nullbs 
	} I I #
coedge $-1 $65 $65 $66 $67 1 $40 $-1 #
face $-1 $68 $69 $2 $-1 $70 forward single #
loop $-1 $-1 $71 $42 #
plane-surface $-1 30 0 25 -1 0 0 0 0 1 0 I I I I #
coedge $-1 $72 $73 $65 $74 0 $43 $-1 #
loop $-1 $75 $45 $76 #
pcurve $-1 2 $61 0 0 #
vertex $-1 $46 $77 #
intcurve-curve $-1 0 { surfintcur nubs 3 periodic 18 
	-26.315221350061456 3 -25.347713340169769 2 -24.390941634833744 2 -23.226467788334503 2 -21.848533635615155 2 
	-20.13674342958074 2 -17.979540788915678 2 -15.821309572959656 2 -14.123766031609575 2 -12.796503948865714 2 
	-11.561065344441058 2 -10.453559257074156 2 -9.2916246651703531 2 -7.8694260559966818 2 -6.0547644990908527 2 
	-3.867074473155558 2 -1.7246635723745378 2 0 3 
	40.50106863662225 43.441901497365173 32.086457481941139 
	40.822376844938127 43.415716536235294 32.077327574312413 
	41.139744753615112 43.351477815456491 32.067331348537891 
	41.742454691909465 43.134262985637733 32.050657842973429 
	42.021994169220022 42.984415724452496 32.044207073719654 
	42.577401681340291 42.556203219011515 32.037892868215962 
	42.826461393643463 42.266945511450551 32.040052976391195 
	43.240377224394415 41.541762920438877 32.054909568391757 
	43.371270872206175 41.10715951866657 32.068802042983897 
	43.493430631543141 40.104844761853528 32.098099243463913 
	43.4461036592838 39.508909530673137 32.113621631703559 
	43.092184159504384 38.13956523676363 32.11892110459798 
	42.726455809835272 37.380192205193964 32.099424778906126 
	41.720083739745299 35.999278848998266 31.994794112231514 
	41.091640653844557 35.395123262379656 31.911150978204336 
	39.82887070215385 34.573155382627121 31.73142211928457 
	39.218101159547253 34.296539551106498 31.641372858324743 
	38.081702941635527 34.025831711677597 31.485540210221068 
	37.567482440052032 33.983805055131519 31.419036840192245 
	36.590192454305779 34.091934419808631 31.311618403053689 
	36.135230616714054 34.228226744867705 31.270401248739372 
	35.351775230149769 34.660856778040632 31.224773151402026 
	35.028571271013675 34.931897762603178 31.217844849125264 
	34.489631825164913 35.604185575707582 31.235323544262616 
	34.291243583263437 35.996806498179303 31.2608569960612 
	34.017455022225761 36.929953586573703 31.344782695560539 
	33.98399102670539 37.466792485983703 31.407511772322376 
	34.116707645450418 38.668045470726199 31.562810840441465 
	34.342921761226329 39.350960631785064 31.662111126077779 
	35.140775936855043 40.787841311580493 31.868736362264876 
	35.749693913279884 41.484967695244301 31.965614289690105 
	37.144128632387414 42.591636745801559 32.088718469874941 
	37.912579094992147 42.996782204080198 32.115098716248639 
	39.313468871775001 43.41711221154182 32.117145735710459 
	39.928310006490229 43.488578370469092 32.102732302351335 
	40.50106863662225 43.441901497365173 32.086457481941139 
	0.00037065832420910862 
	torus 50 50 20 0.70710678118654746 -0.70710678118654757 6.1232329394368592e-17 20 4 0.70710678118654757 0.70710678118654746 0 0 I I I I 
	spline 0 { exactsur nubs 3 3 open open none none 3 3 
	0 3 50 1 100 3 
	0 3 50 1 100 3 
	-50 -50 25 
	-38.214886980224207 -50 36.785113019775793 
	0 -50.000000000000007 25.000000000000004 
	38.214886980224207 -50 13.214886980224207 
	50 -50 25 
	-50 -38.214886980224207 36.785113019775793 
	-38.214886980224207 -38.214886980224207 48.570226039551585 
	0 -38.214886980224207 34.820927516479827 
	38.214886980224207 -38.214886980224207 28.928371006591931 
	50 -38.214886980224207 36.785113019775793 
	-50.000000000000007 0 25.000000000000004 
	-38.214886980224207 0 34.820927516479827 
	0 0 13.214886980224211 
	38.214886980224207 0 15.179072483520176 
	50.000000000000007 0 13.214886980224211 
	-50 38.214886980224207 13.214886980224207 
	-38.214886980224207 38.214886980224207 28.928371006591931 
	0 38.214886980224207 15.179072483520176 
	38.214886980224207 38.214886980224207 40.713484026367723 
	50 38.214886980224207 36.785113019775793 
	-50 50 25 
	-38.214886980224207 50 36.785113019775793 
	0 50.000000000000007 13.214886980224211 
	38.214886980224207 50 36.785113019775793 
	50 50 25 
	0 
	} I I I I 
	nullbs 
	nubs 3 periodic 18 
	-26.315221350061456 3 -25.347713340169769 3 -24.390941634833744 3 -23.226467788334503 3 -21.848533635615155 3 
	-20.13674342958074 3 -17.979540788915678 3 -15.821309572959656 3 -14.123766031609575 3 -12.796503948865714 3 
	-11.561065344441058 3 -10.453559257074156 3 -9.2916246651703531 3 -7.8694260559966818 3 -6.0547644990908527 3 
	-3.867074473155558 3 -1.7246635723745378 3 0 3 
	88.168721760040839 91.560687768387652 
	88.533107309181176 91.529317877046196 
	88.892586636867961 91.452029558952987 
	89.234963897507711 91.324325328912352 
	89.580130200475978 91.195580806352154 
	89.90090737554128 91.018565375354271 
	90.189453241046351 90.793859250836718 
	90.543047047860554 90.518496809432307 
	90.833450599444745 90.183886800102854 
	91.057641394770556 89.799194428583618 
	91.318004379043288 89.35243365176342 
	91.476005024148719 88.858108058865184 
	91.541530123463858 88.347625466935995 
	91.620634426740097 87.73135215806245 
	91.567052969281676 87.066455093011939 
	91.38018261188941 86.397335251194093 
	91.147976445271382 85.565883138377572 
	90.715991133516866 84.746795366235716 
	90.132539287865626 84.01387851057892 
	89.550244305661224 83.282414876342543 
	88.83288405545261 82.652677050833574 
	88.038293316355549 82.174258439946087 
	87.41783788900905 81.80068571997451 
	86.744584123066332 81.515791505248956 
	86.044983534767141 81.358637429105656 
	85.505790277593661 81.237516292830165 
	84.953048671190743 81.193078107618021 
	84.408695998064502 81.251055276888508 
	83.910795338950152 81.304084998645138 
	83.430192265433874 81.442382737259095 
	82.994258117742888 81.679400532921647 
	82.607748837455887 81.889545982875433 
	82.270941523383215 82.170210777288048 
	81.998735435924161 82.511824053808724 
	81.711857894902352 82.871849715480948 
	81.508433669595689 83.284083623863907 
	81.3827981481991 83.724403998089343 
	81.226407869186346 84.272511932968243 
	81.194318031625414 84.844819268894611 
	81.253616413520362 85.409762938089088 
	81.330672349860578 86.143885219644403 
	81.563928939131387 86.889705340279804 
	81.935751850920113 87.611064554429134 
	82.388500728200739 88.48942509641671 
	83.020813057611917 89.280772119489029 
	83.764361578602148 89.925221476136358 
	84.49438199427567 90.557945735467371 
	85.31985787983848 91.035476534877134 
	86.163086636466886 91.309423341482173 
	86.850195408051519 91.532650137634803 
	87.534342886265676 91.615301340156861 
	88.168721760040839 91.560687768387652 
	
	} I I #
ellipse-curve $-1 70 70 40 0 0 1 20 0 0 1 I I #
point $-1 58.622027902279299 53.551846579524828 40 #
point $-1 53.55184657952482 58.622027902279292 40 #
coedge $-1 $53 $53 $57 $74 1 $40 $-1 #
coedge $-1 $78 $79 $53 $67 0 $80 $-1 #
edge $-1 $81 $82 $66 $83 0 #
face $-1 $84 $85 $2 $-1 $86 forward single #
loop $-1 $-1 $87 $54 #
plane-surface $-1 -30 0 25 1 0 0 0 0 -1 0 I I I I #
coedge $-1 $88 $89 $90 $91 1 $55 $-1 #
coedge $-1 $92 $57 $79 $93 1 $43 $-1 #
coedge $-1 $57 $94 $78 $95 1 $43 $-1 #
edge $-1 $82 $81 $57 $96 0 #
loop $-1 $97 $98 $76 #
face $-1 $99 $58 $2 $-1 $100 forward single #
point $-1 40.50106863662225 43.44190149736518 32.086457481941139 #
coedge $-1 $101 $66 $73 $95 0 $80 $-1 #
coedge $-1 $66 $102 $72 $93 0 $80 $-1 #
loop $-1 $-1 $66 $103 #
vertex $-1 $93 $104 #
vertex $-1 $67 $105 #
intcurve-curve $-1 0 { surfintcur nubs 3 open 17 
	-14.455950528866047 3 -13.230764774793837 2 -12.005579020721626 2 -11.086926337662273 2 -10.16827365460292 2 
	-9.4514289985831965 2 -8.7345843425634726 2 -8.0886376638906512 2 -7.4426909852178298 2 -6.7358345205960219 2 
	-6.0289780559742105 2 -5.1574446812094799 2 -4.2859113064447492 2 -3.266109083233772 2 -2.2463068600227984 2 
	-1.1231534300113992 2 0 3 
	50 50 4 
	49.591604748642595 50 4 
	49.143532372591878 50 3.9754506907181342 
	48.256159291164849 50 3.8628991292432695 
	47.816918278573056 50 3.774426749194022 
	47.129681440711536 50 3.5785262634883379 
	46.812047330823638 50 3.4674710410379803 
	46.203623380186137 50 3.1899127434550816 
	45.913181010231995 50 3.0226486225375915 
	45.472875418972734 50 2.7011883393700735 
	45.274811645879375 50 2.5292983308372174 
	44.92704510627641 50 2.1434537586545592 
	44.777795094659936 50 1.9290913619416121 
	44.565982079719177 50 1.5272321491390795 
	44.479807358429817 50 1.3078003010380499 
	44.36843049066561 50 0.85387290041698871 
	44.343145750507617 50 0.61939761729213816 
	44.343145750507631 50 0.16846323619392828 
	44.373340395827377 50 -0.087483088135478865 
	44.494551092885807 50 -0.58542230155193353 
	44.58515994873963 50 -0.82751422399825891 
	44.812072897620304 50 -1.3021964694999986 
	44.979511312240234 50 -1.5725552249320731 
	45.369210861585948 50 -2.0716027901510969 
	45.59115081559402 50 -2.3005423224842767 
	46.064487715455542 50 -2.7169715824813698 
	46.365968654061902 50 -2.9359390006240011 
	47.006449390280842 50 -3.3108587509234648 
	47.345316348959628 50 -3.4670379676265304 
	48.01504873645537 50 -3.7154519800088801 
	48.410781951186884 50 -3.8251735407985259 
	49.216073399727499 50 -3.9674019506648963 
	49.625615523329529 50 -4 
	50 50 -4 
	0.001 
	torus 50 50 20 0.70710678118654746 -0.70710678118654757 6.1232329394368592e-17 20 4 0.70710678118654757 0.70710678118654746 0 0 I I I I 
	plane 0 50 0 0 1 0 0 0 -1 1 I I I I 
	nullbs 
	nullbs 
	} I I #
face $-1 $106 $107 $2 $-1 $86 forward single #
loop $-1 $-1 $108 $68 #
plane-surface $-1 0 -10 25 0 1 0 0 0 1 0 I I I I #
coedge $-1 $109 $110 $111 $112 1 $69 $-1 #
coedge $-1 $113 $71 $114 $115 0 $55 $-1 #
coedge $-1 $71 $113 $116 $117 1 $55 $-1 #
coedge $-1 $118 $119 $71 $91 0 $97 $120 #
edge $-1 $121 $122 $90 $123 0 #
coedge $-1 $124 $72 $98 $125 1 $43 $-1 #
edge $-1 $126 $81 $72 $127 0 #
coedge $-1 $73 $124 $128 $129 1 $43 $-1 #
edge $-1 $82 $130 $73 $127 0 #
intcurve-curve $-1 0 { surfintcur nubs 3 open 20 
	0 3 1.0554826385182026 2 2.1109652770364051 2 3.0799186034683483 2 4.048871929900292 2 
	4.9909206926487784 2 5.9329694553972647 2 6.6881156401504196 2 7.4432618249035745 2 7.8017851367426649 2 
	8.1603084485817554 2 8.5174828140395462 2 8.8746571794973352 2 9.2913671434977445 2 9.7080771074981556 2 
	10.541497035498974 2 11.399158753527573 2 12.256820471556169 2 13.35245384884583 2 14.448087226135488 3 
	50 50 -4 
	50 49.648172453827264 -4 
	50 49.263055342846286 -3.9712012650029895 
	50 48.50426034996844 -3.8454189406731962 
	50 48.130594935404588 -3.7483601524017569 
	50 47.492883238523845 -3.5276906909045946 
	50 47.167031555920353 -3.3878215102060496 
	50 46.546587543570261 -3.0512883350790396 
	50 46.252099255694233 -2.8544325608816115 
	50 45.754900689808153 -2.456232267955301 
	50 45.504781746649492 -2.2192162749422617 
	50 45.064193074390296 -1.6963694553053923 
	50 44.874064151414785 -1.410251535656069 
	50 44.617094805958786 -0.90624850554079905 
	50.000000000000007 44.514801399056545 -0.64981274927740695 
	50.000000000000007 44.377589263797212 -0.12056671022519388 
	50 44.343145750507624 0.15236666281687294 
	50 44.343145750507624 0.52358982834762124 
	50 44.350903856777805 0.65464852548497987 
	50 44.385511186605228 0.9141860287623651 
	50 44.412394642748062 1.0426602691015183 
	50 44.475874108209098 1.2726255762606584 
	50 44.518514115329211 1.3962434308413805 
	50 44.621551775062713 1.6358757712640064 
	50 44.681924214747163 1.7519010974327549 
	50 44.81436703093221 1.9732673247449064 
	50 44.897229811224634 2.0921353221366541 
	50 45.082902993806826 2.3213043387970491 
	50 45.185698356505398 2.4316175427630049 
	50 45.514432098029758 2.7417792513949051 
	50 45.761658189352133 2.9202495726971485 
	50 46.245274488802636 3.2098459599693063 
	50 46.527380209181729 3.3464243870358636 
	50 47.110490132535922 3.5733310955545634 
	50 47.411272055439255 3.6642301838780629 
	50 48.043362694204951 3.8204047830566648 
	50 48.438164093246691 3.8906604277509853 
	50 49.233895522796601 3.9802953770530562 
	50 49.634788874236776 4 
	50 50 4 
	0.001 
	torus 50 50 20 0.70710678118654746 -0.70710678118654757 6.1232329394368592e-17 20 4 0.70710678118654757 0.70710678118654746 0 0 I I I I 
	plane 50 0 0 1 0 0 0 0 1 1 I I I I 
	nullbs 
	nullbs 
	} I I #
loop $-1 $-1 $119 $76 #
coedge $-1 $131 $132 $92 $125 0 $75 $133 #
face $-1 $134 $135 $2 $-1 $136 forward single #
spline-surface $-1 0 { ref 4 } I I I I #
coedge $-1 $137 $78 $138 $139 1 $80 $-1 #
coedge $-1 $79 $137 $131 $140 1 $80 $-1 #
face $-1 $-1 $80 $2 $-1 $141 reversed single #
point $-1 50 50 4 #
point $-1 50 50 -4 #
face $-1 $142 $143 $2 $-1 $144 forward single #
loop $-1 $-1 $145 $84 #
coedge $-1 $146 $147 $148 $149 1 $85 $-1 #
coedge $-1 $150 $87 $147 $151 0 $69 $-1 #
coedge $-1 $87 $150 $152 $153 1 $69 $-1 #
coedge $-1 $154 $148 $87 $112 0 $97 $155 #
edge $-1 $156 $157 $111 $158 0 #
coedge $-1 $89 $88 $159 $160 0 $55 $-1 #
coedge $-1 $161 $162 $88 $115 1 $163 $-1 #
edge $-1 $121 $164 $88 $165 0 #
coedge $-1 $166 $145 $89 $117 0 $107 $-1 #
edge $-1 $122 $167 $89 $168 0 #
coedge $-1 $169 $90 $145 $170 0 $97 $171 #
coedge $-1 $90 $172 $161 $173 0 $97 $174 #
pcurve $-1 2 $123 0 0 #
vertex $-1 $173 $175 #
vertex $-1 $170 $176 #
intcurve-curve $-1 0 { surfintcur nubs 3 open 3 
	-20.077709940086471 3 -10.019637762242551 2 0 3 
	30.000000000000007 10.000000000000002 25.0167511403505 
	30.000000000000007 6.6941247939645994 24.482270936948414 
	30.000000000000007 3.3473569346142837 24.101510755519971 
	30.000000000000007 -3.334565844501161 23.898774918945708 
	30.000000000000007 -6.6727396167146864 24.074177512350982 
	30.000000000000007 -10 24.364232289349623 
	4.4103475761235171e-05 
	plane 30 0 25 1 0 0 0 0 1 1 I I I I 
	spline 0 { ref 4 } I I I I 
	nullbs 
	nubs 3 open 3 
	-20.077709940086471 3 -10.019637762242551 3 0 3 
	77.195541579016549 58.756915633395238 
	77.195541579016549 55.839440221970158 
	77.195541579016549 52.917557789483773 
	77.195541579016549 50 
	77.195541579016549 47.080541526398967 
	77.195541579016549 44.165849803992018 
	77.195541579016549 41.243084366604762 
	
	} I I #
coedge $-1 $94 $92 $177 $178 0 $43 $-1 #
edge $-1 $179 $126 $92 $180 0 #
vertex $-1 $125 $181 #
straight-curve $-1 50 50 0 0 0 -1 I I #
coedge $-1 $182 $138 $94 $129 0 $183 $-1 #
edge $-1 $130 $184 $94 $185 0 #
vertex $-1 $129 $186 #
coedge $-1 $187 $98 $102 $140 0 $75 $188 #
coedge $-1 $98 $187 $189 $190 0 $75 $191 #
pcurve $-1 1 $180 0 0 #
face $-1 $192 $193 $2 $-1 $194 forward single #
loop $-1 $-1 $195 $99 #
plane-surface $-1 0 20 0 0 -1 0 0 0 -1 0 I I I I #
coedge $-1 $102 $101 $196 $197 1 $80 $-1 #
coedge $-1 $128 $198 $101 $139 0 $183 $-1 #
edge $-1 $199 $130 $101 $200 0 #
edge $-1 $126 $201 $102 $202 1 #
plane-surface $-1 0 50 0 0 -1 0 0 0 -1 0 I I I I #
face $-1 $203 $204 $2 $-1 $205 forward single #
loop $-1 $-1 $206 $106 #
plane-surface $-1 0 10 25 0 -1 0 0 0 -1 0 I I I I #
coedge $-1 $116 $207 $118 $170 1 $107 $-1 #
coedge $-1 $208 $108 $209 $210 1 $85 $-1 #
coedge $-1 $108 $208 $109 $151 1 $85 $-1 #
coedge $-1 $111 $211 $108 $149 0 $97 $212 #
edge $-1 $213 $156 $148 $214 0 #
coedge $-1 $110 $109 $215 $216 0 $69 $-1 #
edge $-1 $156 $217 $109 $218 0 #
coedge $-1 $219 $206 $110 $153 0 $143 $-1 #
edge $-1 $157 $220 $152 $221 0 #
coedge $-1 $222 $111 $206 $223 0 $97 $224 #
pcurve $-1 2 $158 -6.4919447595457314e-10 -1.5907630768197123e-10 #
vertex $-1 $149 $225 #
vertex $-1 $112 $226 #
intcurve-curve $-1 0 { surfintcur nubs 3 open 3 
	-20.574839095361483 3 -10.230895186655347 2 0 3 
	-30 -10 33.466345134179932 
	-30 -6.7003137719282897 32.565073618583284 
	-30 -3.3404825313512996 31.62403676212411 
	-30 3.3039744755714922 29.92631209903616 
	-30.000000000000004 6.6556863654766243 29.150273099657969 
	-30.000000000000004 10.000000000000002 28.48266433650091 
	4.6193673534376726e-05 
	plane -30 0 25 -1 0 0 0 0 -1 1 I I I I 
	spline 0 { ref 4 } I I I I 
	nullbs 
	nubs 3 open 3 
	-20.574839095361483 3 -10.230895186655347 3 0 3 
	22.804458420983455 41.243084366604762 
	22.804458420983455 44.135189262518573 
	22.804458420983455 47.084861381272866 
	22.804458420983455 50 
	22.804458420983455 52.91100054539357 
	22.804458420983451 55.845762753105362 
	22.804458420983451 58.756915633395238 
	
	} I I #
coedge $-1 $227 $228 $113 $160 1 $229 $-1 #
edge $-1 $164 $167 $113 $230 0 #
coedge $-1 $231 $114 $119 $173 1 $163 $-1 #
coedge $-1 $114 $231 $227 $232 0 $163 $-1 #
loop $-1 $-1 $161 $233 #
vertex $-1 $160 $234 #
straight-curve $-1 30 10 25 0 0 -1 I I #
coedge $-1 $207 $116 $228 $235 0 $107 $-1 #
vertex $-1 $117 $236 #
straight-curve $-1 30 -10 25 0 0 -1 I I #
coedge $-1 $237 $118 $238 $239 0 $97 $240 #
edge $-1 $122 $241 $118 $242 0 #
pcurve $-1 2 $242 0 0 #
coedge $-1 $119 $243 $244 $245 0 $97 $246 #
edge $-1 $247 $121 $119 $248 0 #
pcurve $-1 2 $248 0 0 #
point $-1 30 10 25.0167511403505 #
point $-1 30 -10 24.364232289349616 #
coedge $-1 $189 $249 $124 $178 1 $250 $-1 #
edge $-1 $179 $184 $124 $251 0 #
vertex $-1 $125 $252 #
intcurve-curve $-1 0 { exactcur nubs 3 open 3 
	0 3 50 1 100 3 
	50 -50 25 
	50 -38.214886980224207 36.785113019775793 
	50.000000000000007 0 13.214886980224211 
	50 38.214886980224207 36.785113019775793 
	50 50 25 
	0 
	spline 0 { ref 4 } I I I I 
	plane 50 0 0 1 0 0 0 0 1 1 I I I I 
	nubs 1 open 2 
	0 1 100 1 
	100 0 
	100 100 
	
	nullbs 
	} I I #
point $-1 50 50 25 #
coedge $-1 $198 $128 $249 $253 0 $183 $-1 #
loop $-1 $-1 $128 $254 #
vertex $-1 $178 $255 #
straight-curve $-1 50 0 -25 0 -1 0 I I #
point $-1 50 50 -25 #
coedge $-1 $132 $131 $256 $257 0 $75 $258 #
pcurve $-1 -2 $202 0 0 #
coedge $-1 $259 $177 $132 $190 1 $250 $-1 #
edge $-1 $260 $179 $189 $261 0 #
pcurve $-1 1 $261 0 0 #
face $-1 $262 $263 $2 $-1 $264 forward single #
loop $-1 $-1 $265 $134 #
plane-surface $-1 20 0 0 -1 0 0 0 0 1 0 I I I I #
coedge $-1 $266 $267 $243 $268 1 $135 $-1 #
coedge $-1 $269 $256 $137 $197 0 $270 $-1 #
edge $-1 $201 $199 $137 $271 0 #
coedge $-1 $138 $182 $269 $272 0 $183 $-1 #
vertex $-1 $139 $273 #
straight-curve $-1 0 50 -25 1 0 0 I I #
vertex $-1 $140 $274 #
intcurve-curve $-1 0 { exactcur nubs 3 open 3 
	0 3 50 1 100 3 
	-50 50 25 
	-38.214886980224207 50 36.785113019775793 
	0 50.000000000000007 13.214886980224211 
	38.214886980224207 50 36.785113019775793 
	50 50 25 
	0 
	plane 0 50 0 0 1 0 0 0 -1 1 I I I I 
	spline 0 { ref 4 } I I I I 
	nullbs 
	nubs 1 open 2 
	0 1 100 1 
	0 100 
	100 100 
	
	} I I #
face $-1 $233 $229 $2 $-1 $205 forward single #
loop $-1 $-1 $275 $142 #
plane-surface $-1 0 0 0 0 0 1 1 0 0 0 I I I I #
coedge $-1 $152 $276 $154 $223 1 $143 $-1 #
coedge $-1 $145 $166 $277 $278 1 $107 $-1 #
coedge $-1 $147 $146 $279 $280 0 $85 $-1 #
coedge $-1 $281 $282 $146 $210 0 $283 $-1 #
edge $-1 $284 $213 $209 $285 0 #
coedge $-1 $148 $237 $281 $286 0 $97 $287 #
pcurve $-1 2 $214 -6.4919447595457314e-10 -1.5907630768197123e-10 #
vertex $-1 $286 $288 #
intcurve-curve $-1 0 { surfintcur nubs 3 open 2 
	-9.6747049276544175 3 0 3 
	-20 -9.9999999999999769 31.724689367714053 
	-23.443167527059099 -9.9999999999999769 32.504872221098381 
	-26.791480262702244 -10 33.141704256436654 
	-30 -10 33.466345134179932 
	0.00070193203692597936 
	plane 0 -10 25 0 -1 0 0 0 1 1 I I I I 
	spline 0 { ref 4 } I I I I 
	nullbs 
	nubs 3 open 2 
	-9.6747049276544175 3 0 3 
	32.270010691542574 41.243084366764201 
	28.762433446563733 41.243084366604762 
	25.701379484570619 41.243084366604762 
	22.804458420983455 41.243084366604762 
	
	} I I #
coedge $-1 $279 $289 $150 $216 1 $204 $-1 #
edge $-1 $217 $220 $150 $290 0 #
vertex $-1 $216 $291 #
straight-curve $-1 -30 -10 25 0 0 -1 I I #
coedge $-1 $276 $152 $289 $292 0 $143 $-1 #
vertex $-1 $292 $293 #
straight-curve $-1 -30 10 25 0 0 -1 I I #
coedge $-1 $243 $154 $294 $295 0 $97 $296 #
edge $-1 $157 $297 $154 $298 0 #
pcurve $-1 2 $298 -6.4919447595457314e-10 -1.5907630768197123e-10 #
point $-1 -30 -10 33.466345134179932 #
point $-1 -30 10 28.482664336500907 #
coedge $-1 $299 $159 $162 $232 1 $229 $-1 #
coedge $-1 $159 $299 $166 $235 1 $229 $-1 #
loop $-1 $-1 $299 $203 #
straight-curve $-1 30 0 0 0 -1 0 I I #
coedge $-1 $162 $161 $265 $300 1 $163 $-1 #
edge $-1 $301 $164 $162 $302 0 #
face $-1 $76 $163 $2 $-1 $144 forward single #
point $-1 30 10 0 #
edge $-1 $167 $303 $166 $304 0 #
point $-1 30 -10 0 #
coedge $-1 $211 $169 $305 $306 0 $97 $307 #
coedge $-1 $277 $308 $169 $239 1 $193 $-1 #
edge $-1 $241 $309 $169 $310 0 #
pcurve $-1 2 $310 0 0 #
vertex $-1 $278 $311 #
intcurve-curve $-1 0 { surfintcur nubs 3 open 2 
	-51.433089293173659 3 -43.500519935335447 3 
	30.000000000000007 -10 24.364232289349623 
	26.690708597857721 -10 24.318707870599319 
	23.347635465182414 -10 24.373103746239121 
	20 -10 24.537613479906277 
	0.00070193203692597936 
	plane 0 -10 25 0 -1 0 0 0 1 1 I I I I 
	spline 0 { ref 4 } I I I I 
	nullbs 
	nubs 3 open 2 
	-51.433089293173659 3 -43.500519935335447 3 
	77.195541579016549 41.243084366604762 
	74.198376079729059 41.243084366604762 
	71.178375253547287 41.243084366604762 
	67.729989309106614 41.243084366604755 
	
	} I I #
coedge $-1 $172 $222 $195 $268 0 $97 $312 #
coedge $-1 $313 $265 $172 $245 1 $193 $-1 #
edge $-1 $314 $247 $172 $315 0 #
pcurve $-1 2 $315 -6.4794392073963536e-10 -1.5407408682222012e-10 #
vertex $-1 $245 $316 #
intcurve-curve $-1 0 { surfintcur nubs 3 open 3 
	-17.688566263748836 3 -11.233550709934169 2 0 3 
	19.999999999999996 9.9999999999999858 24.063037485019439 
	20.959854882808028 9.9999999999999858 24.138749577271426 
	21.921660275589606 10.000000000000002 24.221165343984513 
	24.565891928209435 10.000000000000002 24.461338776349017 
	26.27559419814898 10.000000000000002 24.629184033486244 
	30.000000000000007 10.000000000000002 25.0167511403505 
	0.00073825933266092529 
	plane 0 10 25 0 1 0 0 0 -1 1 I I I I 
	spline 0 { ref 4 } I I I I 
	nullbs 
	nubs 3 open 3 
	-17.688566263748836 3 -11.233550709934169 3 0 3 
	67.729989309106429 58.756915633395231 
	68.653461439523085 58.756915633395238 
	69.523297170592699 58.756915633395238 
	70.396656184262412 58.756915633395238 
	72.000377343804217 58.756915633395238 
	73.634175360566772 58.756915633395238 
	77.195541579016549 58.756915633395238 
	
	} I I #
coedge $-1 $177 $259 $182 $253 1 $250 $-1 #
loop $-1 $-1 $259 $317 #
straight-curve $-1 50 -50 0 0 0 -1 I I #
point $-1 50 -50 25 #
edge $-1 $184 $318 $249 $319 0 #
face $-1 $317 $320 $2 $-1 $321 reversed single #
point $-1 50 -50 -25 #
coedge $-1 $196 $322 $187 $257 1 $270 $-1 #
edge $-1 $201 $260 $256 $323 1 #
pcurve $-1 -2 $323 0 0 #
coedge $-1 $249 $189 $322 $324 0 $250 $-1 #
vertex $-1 $257 $325 #
intcurve-curve $-1 0 { exactcur nubs 3 open 3 
	0 3 50 1 100 3 
	-50 -50 25 
	-38.214886980224207 -50 36.785113019775793 
	0 -50.000000000000007 25.000000000000004 
	38.214886980224207 -50 13.214886980224207 
	50 -50 25 
	0 
	spline 0 { ref 4 } I I I I 
	plane 0 -50 0 0 -1 0 0 0 1 1 I I I I 
	nubs 1 open 2 
	0 1 100 1 
	0 0 
	100 0 
	
	nullbs 
	} I I #
face $-1 $254 $283 $2 $-1 $326 forward single #
loop $-1 $-1 $305 $192 #
plane-surface $-1 0 -20 0 0 1 0 0 0 1 0 I I I I #
coedge $-1 $244 $327 $231 $300 0 $193 $-1 #
coedge $-1 $328 $195 $329 $330 0 $135 $-1 #
coedge $-1 $195 $328 $313 $331 1 $135 $-1 #
edge $-1 $332 $314 $243 $333 0 #
coedge $-1 $322 $196 $198 $272 1 $270 $-1 #
loop $-1 $-1 $196 $334 #
straight-curve $-1 -50 50 0 0 0 -1 I I #
edge $-1 $318 $199 $269 $335 0 #
point $-1 -50 50 -25 #
point $-1 -50 50 25 #
coedge $-1 $289 $279 $282 $336 1 $204 $-1 #
coedge $-1 $206 $219 $337 $338 1 $143 $-1 #
coedge $-1 $327 $238 $207 $278 0 $193 $-1 #
edge $-1 $241 $303 $277 $339 0 #
coedge $-1 $275 $215 $208 $280 1 $204 $-1 #
edge $-1 $284 $217 $208 $304 0 #
coedge $-1 $340 $209 $211 $286 1 $283 $-1 #
coedge $-1 $209 $337 $275 $336 0 $283 $-1 #
loop $-1 $-1 $209 $262 #
vertex $-1 $336 $341 #
straight-curve $-1 -20 -10 12.5 0 0 1 I I #
edge $-1 $342 $213 $211 $343 0 #
pcurve $-1 2 $343 0 0 #
point $-1 -20 -9.9999999999999769 31.724689367714053 #
coedge $-1 $215 $275 $219 $292 1 $204 $-1 #
straight-curve $-1 -30 0 0 0 1 0 I I #
point $-1 -30 -10 0 #
edge $-1 $220 $344 $219 $302 0 #
point $-1 -30 10 0 #
coedge $-1 $337 $329 $222 $295 1 $283 $-1 #
edge $-1 $297 $332 $222 $345 0 #
pcurve $-1 2 $345 -6.4793681531227776e-10 -1.5407408682222012e-10 #
vertex $-1 $338 $346 #
intcurve-curve $-1 0 { surfintcur nubs 3 open 2 
	-129.8923965340918 3 -106.32283300182876 3 
	-30.000000000000004 10.000000000000002 28.48266433650091 
	-26.792797893536324 10.000000000000002 28.291245585532266 
	-23.442915422884411 10.000000000000124 27.800930759403531 
	-20 10.000000000000124 27.202137309742952 
	0.00073825933266092529 
	plane 0 10 25 0 1 0 0 0 -1 1 I I I I 
	spline 0 { ref 4 } I I I I 
	nullbs 
	nubs 3 open 2 
	-129.8923965340918 3 -106.32283300182876 3 
	22.804458420983451 58.756915633395238 
	25.685695836138798 58.756915633395245 
	28.723685847272435 58.756915633395252 
	32.270010690893379 58.756915633395344 
	
	} I I #
coedge $-1 $228 $227 $327 $347 1 $229 $-1 #
edge $-1 $301 $247 $265 $348 0 #
vertex $-1 $347 $349 #
straight-curve $-1 0 10 0 1 0 0 I I #
vertex $-1 $347 $350 #
straight-curve $-1 0 -10 0 -1 0 0 I I #
coedge $-1 $351 $352 $237 $306 1 $263 $-1 #
edge $-1 $309 $342 $237 $353 0 #
pcurve $-1 2 $353 0 0 #
coedge $-1 $238 $354 $351 $355 1 $193 $-1 #
vertex $-1 $306 $356 #
intcurve-curve $-1 0 { surfintcur nubs 3 open 2 
	-9.8801452667469469 3 0 3 
	20 -10 24.537613479906277 
	20 -13.388578187234005 24.96765118301796 
	19.999999999999993 -16.735923516127919 25.48752181714665 
	19.999999999999993 -20 25.92589163298225 
	5.2740413880046344e-05 
	plane 20 0 0 1 0 0 0 0 1 1 I I I I 
	spline 0 { ref 4 } I I I I 
	nullbs 
	nubs 3 open 2 
	-9.8801452667469469 3 0 3 
	67.729989309106614 41.243084366604826 
	67.729989309106628 38.147853016969165 
	67.729989309106628 35.171587906780665 
	67.729989309106614 32.270010690893379 
	
	} I I #
point $-1 20 -10 24.537613479906277 #
pcurve $-1 2 $333 -6.4793681531227776e-10 -1.5407408682222012e-10 #
coedge $-1 $354 $244 $267 $331 0 $193 $-1 #
vertex $-1 $268 $357 #
intcurve-curve $-1 0 { surfintcur nubs 3 open 2 
	-39.056130997307861 3 -29.167149763616671 3 
	19.999999999999993 19.999999999999993 25.349639024716463 
	19.999999999999993 16.737634899007755 24.837108121077247 
	19.999999999999996 13.390031002871728 24.372986372982425 
	19.999999999999996 9.9999999999999858 24.063037485019439 
	5.2740413880046344e-05 
	plane 20 0 0 1 0 0 0 0 1 1 I I I I 
	spline 0 { ref 4 } I I I I 
	nullbs 
	nubs 3 open 2 
	-39.056130997307861 3 -29.167149763616671 3 
	67.729989309106614 67.729989309106614 
	67.729989309106614 64.812405497321777 
	67.729989309106614 61.840378706893802 
	67.7299893091066 58.756915633395181 
	
	} I I #
point $-1 19.999999999999996 9.9999999999999858 24.063037485019439 #
face $-1 $334 $250 $2 $-1 $358 reversed single #
vertex $-1 $272 $359 #
straight-curve $-1 0 -50 -25 -1 0 0 I I #
loop $-1 $183 $360 $254 #
plane-surface $-1 0 0 -25 0 0 1 1 0 0 0 I I I I #
coedge $-1 $256 $269 $259 $324 1 $270 $-1 #
intcurve-curve $-1 0 { exactcur nubs 3 open 3 
	0 3 50 1 100 3 
	-50 -50 25 
	-50 -38.214886980224207 36.785113019775793 
	-50.000000000000007 0 25.000000000000004 
	-50 38.214886980224207 13.214886980224207 
	-50 50 25 
	0 
	plane -50 0 0 -1 0 0 0 0 -1 1 I I I I 
	spline 0 { ref 4 } I I I I 
	nullbs 
	nubs 1 open 2 
	0 1 100 1 
	0 0 
	0 100 
	
	} I I #
edge $-1 $260 $318 $322 $361 0 #
point $-1 -50 -50 25 #
plane-surface $-1 -20 0 0 1 0 0 0 0 -1 0 I I I I #
coedge $-1 $265 $277 $299 $347 0 $193 $-1 #
coedge $-1 $267 $266 $362 $363 1 $135 $-1 #
coedge $-1 $294 $364 $266 $330 1 $283 $-1 #
edge $-1 $332 $365 $266 $366 0 #
edge $-1 $314 $367 $313 $368 0 #
vertex $-1 $295 $369 #
intcurve-curve $-1 0 { surfintcur nubs 3 open 3 
	-39.127848874638829 3 -19.569316733611224 2 0 3 
	-20 19.999999999999993 25.92589163298225 
	-13.5503447527791 19.999999999999993 25.059694349647351 
	-6.7755763615491542 19.999999999999993 23.875284571197962 
	6.7793124205770656 19.999999999999993 23.513526629557926 
	13.555934907540049 19.999999999999993 24.337250036143757 
	19.999999999999993 19.999999999999993 25.349639024716463 
	5.2740413876147838e-05 
	plane 0 20 0 0 1 0 0 0 -1 1 I I I I 
	spline 0 { ref 4 } I I I I 
	nullbs 
	nubs 3 open 3 
	-39.127848874638829 3 -19.569316733611224 3 0 3 
	32.270010690893379 67.729989309106614 
	38.003385140950364 67.729989309106614 
	44.028369692563182 67.729989309106614 
	49.999999999999993 67.729989309106614 
	55.991513604311379 67.729989309106614 
	61.966961746639541 67.729989309106614 
	67.729989309106614 67.729989309106614 
	
	} I I #
face $-1 $103 $270 $2 $-1 $370 reversed single #
straight-curve $-1 -50 0 -25 0 1 0 I I #
edge $-1 $344 $284 $282 $371 0 #
coedge $-1 $282 $294 $276 $338 0 $283 $-1 #
edge $-1 $297 $344 $337 $372 0 #
straight-curve $-1 20 -10 12.5 0 0 -1 I I #
coedge $-1 $364 $281 $352 $373 0 $283 $-1 #
point $-1 -20 -10 0 #
vertex $-1 $306 $374 #
intcurve-curve $-1 0 { surfintcur nubs 3 open 2 
	-40.920950957410341 3 -30.388709878100212 3 
	-20.000000000000004 -20.000000000000004 34.275383736452277 
	-20.000000000000004 -16.735426034840593 33.524481363126085 
	-20 -13.388249969168932 32.6292441920465 
	-20 -9.9999999999999769 31.724689367714053 
	0.00017535115740544122 
	plane -20 0 0 -1 0 0 0 0 -1 1 I I I I 
	spline 0 { ref 4 } I I I I 
	nullbs 
	nubs 3 open 2 
	-40.920950957410341 3 -30.388709878100212 3 
	32.270010690893372 32.270010690893372 
	32.270010690893372 35.147520418642799 
	32.270010690893372 38.123238932340236 
	32.270010690893379 41.243084366605125 
	
	} I I #
vertex $-1 $336 $375 #
intcurve-curve $-1 0 { surfintcur nubs 3 open 2 
	-10.00606398586431 3 0 3 
	-20 10.000000000000124 27.202137309742952 
	-20 13.331362172446884 26.659321649446454 
	-20 16.678422722784248 26.228736663496974 
	-20 19.999999999999993 25.92589163298225 
	0.00017535115740544122 
	plane -20 0 0 -1 0 0 0 0 -1 1 I I I I 
	spline 0 { ref 4 } I I I I 
	nullbs 
	nubs 3 open 2 
	-10.00606398586431 3 0 3 
	32.270010690892121 58.756915633390342 
	32.270010690893372 61.863351794237872 
	32.270010690893379 64.811455068739235 
	32.270010690893379 67.729989309106614 
	
	} I I #
point $-1 -20 10.000000000000124 27.202137309742952 #
edge $-1 $303 $301 $327 $376 0 #
straight-curve $-1 20 10 12.5 0 0 1 I I #
point $-1 20 10 0 #
point $-1 20 -10 0 #
coedge $-1 $377 $305 $308 $355 0 $263 $-1 #
coedge $-1 $305 $377 $340 $373 1 $263 $-1 #
intcurve-curve $-1 0 { surfintcur nubs 3 open 3 
	-39.045206156576697 3 -19.858212029346152 2 0 3 
	19.999999999999993 -20 25.92589163298225 
	13.324773213077307 -20 26.534505881955209 
	6.5465018302528888 -20.000000000000004 27.65825913849778 
	-6.7755178603595931 -20.000000000000004 30.744284170269921 
	-13.54904722944813 -20.000000000000004 32.791565082833245 
	-20.000000000000004 -20.000000000000004 34.275383736452277 
	0.00017535115740811077 
	plane 0 -20 0 0 -1 0 0 0 1 1 I I I I 
	spline 0 { ref 4 } I I I I 
	nullbs 
	nubs 3 open 3 
	-39.045206156576697 3 -19.858212029346152 3 0 3 
	67.729989309106614 32.270010690893379 
	61.864740268090273 32.270010690893379 
	55.880070292031533 32.270010690893372 
	49.999999999999986 32.270010690893372 
	44.025683752654807 32.270010690893372 
	37.956106196347385 32.270010690893372 
	32.270010690893372 32.270010690893372 
	
	} I I #
coedge $-1 $308 $313 $378 $379 1 $193 $-1 #
edge $-1 $309 $380 $308 $381 0 #
point $-1 20 -20 25.925891632982243 #
point $-1 20 20 25.349639024716467 #
plane-surface $-1 0 -50 0 0 1 0 0 0 1 0 I I I I #
point $-1 -50 -50 -25 #
coedge $-1 $378 $382 $377 $383 0 $320 $-1 #
straight-curve $-1 -50 -50 0 0 0 -1 I I #
coedge $-1 $382 $378 $328 $363 0 $320 $-1 #
edge $-1 $367 $365 $362 $384 0 #
coedge $-1 $329 $340 $382 $385 1 $283 $-1 #
vertex $-1 $385 $386 #
straight-curve $-1 -20 20 0 0 0 -1 I I #
vertex $-1 $363 $387 #
straight-curve $-1 20 20 0 0 0 -1 I I #
point $-1 -20 20 25.925891632982243 #
plane-surface $-1 -50 0 0 1 0 0 0 0 -1 0 I I I I #
straight-curve $-1 -20 0 0 0 -1 0 I I #
straight-curve $-1 -20 10 12.5 0 0 -1 I I #
edge $-1 $342 $388 $340 $389 0 #
point $-1 -20 -20 34.27538373645227 #
point $-1 -20 10 0 #
straight-curve $-1 20 0 0 0 1 0 I I #
coedge $-1 $352 $351 $360 $383 1 $263 $-1 #
coedge $-1 $362 $360 $354 $379 0 $320 $-1 #
edge $-1 $380 $367 $378 $390 0 #
vertex $-1 $383 $391 #
straight-curve $-1 20 -20 0 0 0 -1 I I #
coedge $-1 $360 $362 $364 $385 0 $320 $-1 #
edge $-1 $388 $380 $360 $392 0 #
straight-curve $-1 0 20 -25 -1 0 0 I I #
edge $-1 $365 $388 $382 $393 0 #
point $-1 -20 20 -25 #
point $-1 20 20 -25 #
vertex $-1 $383 $394 #
straight-curve $-1 -20 -20 0 0 0 -1 I I #
straight-curve $-1 20 0 -25 0 1 0 I I #
point $-1 20 -20 -25 #
straight-curve $-1 0 -20 -25 1 0 0 I I #
straight-curve $-1 -20 0 -25 0 -1 0 I I #
point $-1 -20 -20 -25 #
End-of-ACIS-data 