600 0 1 0           
87 GICL ACIS Healer - Source: /gicl/data5/repository/UMD/base2-Stock/base2-Stock.sat - 6 0 18 ACIS 6.0.3 Solaris 24 Sun Apr 14 00:36:06 2002 
1 9.999999999999999547e-07 1.000000000000000036e-10 
body $-1 $1 $-1 $-1 #
lump $-1 $-1 $2 $0 #
shell $-1 $-1 $-1 $3 $-1 $1 #
face $-1 $4 $5 $2 $-1 $6 forward single #
face $-1 $7 $8 $2 $-1 $9 reversed single #
loop $-1 $-1 $10 $3 #
plane-surface $-1 0 0 37.5 0 0 1 1 0 0 forward_v I I I I #
face $-1 $11 $12 $2 $-1 $13 reversed single #
loop $-1 $-1 $14 $4 #
plane-surface $-1 0 0 -37.5 0 0 1 1 0 0 forward_v I I I I #
coedge $-1 $15 $16 $17 $18 forward $5 $-1 #
face $-1 $19 $20 $2 $-1 $21 reversed single #
loop $-1 $-1 $22 $7 #
plane-surface $-1 0 -50 0 0 1 -0 -0 0 1 forward_v I I I I #
coedge $-1 $23 $24 $25 $26 forward $8 $-1 #
coedge $-1 $27 $10 $28 $29 forward $5 $-1 #
coedge $-1 $10 $27 $30 $31 forward $5 $-1 #
coedge $-1 $32 $33 $10 $18 reversed $34 $-1 #
edge $-1 $35 -50 $36 50 $17 $37 forward 7 unknown #
face $-1 $38 $39 $2 $-1 $40 reversed single #
loop $-1 $-1 $41 $11 #
plane-surface $-1 -50 0 0 1 0 0 0 0 -1 forward_v I I I I #
coedge $-1 $42 $30 $43 $44 forward $12 $-1 #
coedge $-1 $45 $14 $42 $46 forward $8 $-1 #
coedge $-1 $14 $45 $47 $48 forward $8 $-1 #
coedge $-1 $33 $32 $14 $26 reversed $34 $-1 #
edge $-1 $49 -50 $50 50 $25 $51 forward 7 unknown #
coedge $-1 $16 $15 $52 $53 forward $5 $-1 #
coedge $-1 $54 $55 $15 $29 reversed $39 $-1 #
edge $-1 $36 -50 $56 50 $28 $57 forward 7 unknown #
coedge $-1 $22 $58 $16 $31 reversed $12 $-1 #
edge $-1 $59 -50 $35 50 $30 $60 forward 7 unknown #
coedge $-1 $25 $17 $58 $61 forward $34 $-1 #
coedge $-1 $17 $25 $54 $62 reversed $34 $-1 #
loop $-1 $-1 $32 $38 #
vertex $-1 $18 $63 #
vertex $-1 $18 $64 #
straight-curve $-1 50 0 37.5 0 1 0 I I #
face $-1 $-1 $34 $2 $-1 $65 reversed single #
loop $-1 $-1 $54 $19 #
plane-surface $-1 0 50 0 0 -1 0 0 0 -1 forward_v I I I I #
coedge $-1 $66 $52 $55 $67 forward $20 $-1 #
coedge $-1 $58 $22 $23 $46 reversed $12 $-1 #
coedge $-1 $52 $66 $22 $44 reversed $20 $-1 #
edge $-1 $59 -37.5 $68 37.5 $43 $69 forward 7 unknown #
coedge $-1 $24 $23 $66 $70 forward $8 $-1 #
edge $-1 $50 -50 $68 50 $42 $71 forward 7 unknown #
coedge $-1 $55 $54 $24 $48 reversed $39 $-1 #
edge $-1 $72 -50 $49 50 $47 $73 forward 7 unknown #
vertex $-1 $26 $74 #
vertex $-1 $61 $75 #
straight-curve $-1 50 0 -37.5 0 -1 0 I I #
coedge $-1 $41 $43 $27 $53 reversed $20 $-1 #
edge $-1 $56 -50 $59 50 $52 $76 forward 7 unknown #
coedge $-1 $47 $28 $33 $62 forward $39 $-1 #
coedge $-1 $28 $47 $41 $67 reversed $39 $-1 #
vertex $-1 $29 $77 #
straight-curve $-1 0 50 37.5 -1 0 0 I I #
coedge $-1 $30 $42 $32 $61 reversed $12 $-1 #
vertex $-1 $53 $78 #
straight-curve $-1 0 -50 37.5 1 0 0 I I #
edge $-1 $35 -37.5 $50 37.5 $32 $79 forward 7 unknown #
edge $-1 $36 -37.5 $49 37.5 $33 $80 forward 7 unknown #
point $-1 50 -50 37.5 #
point $-1 50 50 37.5 #
plane-surface $-1 50 0 0 -1 0 0 0 -0 1 forward_v I I I I #
coedge $-1 $43 $41 $45 $70 reversed $20 $-1 #
edge $-1 $56 -37.5 $72 37.5 $55 $81 forward 7 unknown #
vertex $-1 $70 $82 #
straight-curve $-1 -50 -50 0 0 0 -1 I I #
edge $-1 $68 -50 $72 50 $66 $83 forward 7 unknown #
straight-curve $-1 0 -50 -37.5 -1 0 0 I I #
vertex $-1 $48 $84 #
straight-curve $-1 0 50 -37.5 1 0 0 I I #
point $-1 50 50 -37.5 #
point $-1 50 -50 -37.5 #
straight-curve $-1 -50 0 37.5 0 -1 0 I I #
point $-1 -50 50 37.5 #
point $-1 -50 -50 37.5 #
straight-curve $-1 50 -50 0 0 0 -1 I I #
straight-curve $-1 50 50 0 0 0 -1 I I #
straight-curve $-1 -50 50 0 0 0 -1 I I #
point $-1 -50 -50 -37.5 #
straight-curve $-1 -50 0 -37.5 0 1 0 I I #
point $-1 -50 50 -37.5 #
End-of-ACIS-data 