600 0 1 0           
81 GICL ACIS Healer - Source: /gicl/data5/repository/Heriot_Watt/ex02/ex02.sat - 6 0 18 ACIS 6.0.3 Solaris 24 Sat Apr 13 23:39:17 2002 
1 9.999999999999999547e-07 1.000000000000000036e-10 
body $-1 $1 $-1 $-1 #
lump $-1 $-1 $2 $0 #
shell $-1 $-1 $-1 $3 $-1 $1 #
face $-1 $4 $5 $2 $-1 $6 reversed single #
face $-1 $7 $8 $2 $-1 $9 reversed single #
loop $-1 $10 $11 $3 #
cone-surface $-1 0 0 10 0 0 1 25 0 0 1 I I 0 1 25 forward I I I I #
face $-1 $12 $13 $2 $-1 $14 forward single #
loop $-1 $-1 $15 $4 #
plane-surface $-1 0 0 -25 0 0 -1 -1 0 0 forward_v I I I I #
loop $-1 $-1 $16 $3 #
coedge $-1 $11 $11 $17 $18 reversed $5 $-1 #
face $-1 $19 $20 $2 $-1 $21 forward single #
loop $-1 $22 $17 $7 #
plane-surface $-1 0 0 15 0 0 1 1 0 0 forward_v I I I I #
coedge $-1 $15 $15 $16 $23 reversed $8 $-1 #
coedge $-1 $16 $16 $15 $23 forward $10 $-1 #
coedge $-1 $17 $17 $11 $18 forward $13 $-1 #
edge $-1 $24 -3.141592653589799777 $24 3.141592653589786455 $17 $25 forward 7 unknown #
face $-1 $26 $27 $2 $-1 $28 forward single #
loop $-1 $-1 $29 $12 #
plane-surface $-1 0 -30 30 0 1 0 0 0 1 forward_v I I I I #
loop $-1 $-1 $30 $7 #
edge $-1 $31 0 $31 6.283185307179586232 $15 $32 forward 7 unknown #
vertex $-1 $18 $33 #
ellipse-curve $-1 0 0 15 0 0 -1 25 0 0 1 I I #
face $-1 $34 $35 $2 $-1 $36 reversed single #
loop $-1 $-1 $37 $19 #
plane-surface $-1 0 30 30 0 -1 0 0 0 -1 forward_v I I I I #
coedge $-1 $38 $39 $40 $41 reversed $20 $-1 #
coedge $-1 $42 $43 $44 $45 reversed $22 $-1 #
vertex $-1 $23 $46 #
ellipse-curve $-1 0 0 -25 0 0 -1 25 0 0 1 I I #
point $-1 -25 -1.745740833521739992e-13 15 #
face $-1 $47 $48 $2 $-1 $49 reversed single #
loop $-1 $-1 $50 $26 #
cone-surface $-1 -25 20 30 0 0 1 10 0 0 1 I I 0 1 10 forward I I I I #
coedge $-1 $51 $52 $53 $54 reversed $27 $-1 #
coedge $-1 $55 $29 $56 $57 reversed $20 $-1 #
coedge $-1 $29 $58 $59 $60 reversed $20 $-1 #
coedge $-1 $61 $62 $29 $41 forward $63 $-1 #
edge $-1 $64 -11.25 $65 3.75 $40 $66 forward 7 unknown #
coedge $-1 $67 $30 $68 $69 reversed $22 $-1 #
coedge $-1 $30 $70 $71 $72 reversed $22 $-1 #
coedge $-1 $73 $50 $30 $45 forward $35 $-1 #
edge $-1 $74 -3.141592653589793116 $75 -1.570796326794896558 $30 $76 forward 7 unknown #
point $-1 25 0 -25 #
face $-1 $77 $78 $2 $-1 $79 reversed single #
loop $-1 $-1 $80 $34 #
cone-surface $-1 -25 -20 30 0 0 1 10 0 0 1 I I 0 1 10 forward I I I I #
coedge $-1 $44 $81 $82 $83 reversed $35 $-1 #
coedge $-1 $84 $37 $85 $86 reversed $27 $-1 #
coedge $-1 $37 $87 $88 $89 reversed $27 $-1 #
coedge $-1 $90 $91 $37 $54 forward $92 $-1 #
edge $-1 $93 -3.75 $94 11.25 $53 $95 forward 7 unknown #
coedge $-1 $96 $38 $97 $98 reversed $20 $-1 #
coedge $-1 $99 $100 $38 $57 forward $101 $-1 #
edge $-1 $102 -25 $64 -10 $56 $103 forward 7 unknown #
coedge $-1 $39 $104 $105 $106 reversed $20 $-1 #
coedge $-1 $107 $108 $39 $60 forward $109 $-1 #
edge $-1 $65 -10 $110 10 $59 $111 forward 7 unknown #
coedge $-1 $112 $40 $108 $113 forward $63 $-1 #
coedge $-1 $40 $112 $99 $114 reversed $63 $-1 #
loop $-1 $-1 $40 $115 #
vertex $-1 $57 $116 #
vertex $-1 $41 $117 #
straight-curve $-1 10 -30 33.75 0 0 -1 I I #
coedge $-1 $118 $42 $119 $120 reversed $22 $-1 #
coedge $-1 $82 $121 $42 $69 forward $122 $-1 #
edge $-1 $123 -20 $74 20 $68 $124 forward 7 unknown #
coedge $-1 $43 $125 $126 $127 reversed $22 $-1 #
coedge $-1 $87 $128 $43 $72 forward $27 $-1 #
edge $-1 $75 -25 $129 25 $71 $130 forward 7 unknown #
coedge $-1 $81 $44 $128 $131 forward $35 $-1 #
vertex $-1 $69 $132 #
vertex $-1 $131 $133 #
ellipse-curve $-1 -25 20 15 0 0 -1 10 0 0 1 I I #
face $-1 $134 $135 $2 $-1 $136 reversed single #
loop $-1 $-1 $97 $47 #
cone-surface $-1 25 -20 30 0 0 1 10 0 0 1 I I 0 1 10 forward I I I I #
coedge $-1 $137 $119 $121 $138 forward $48 $-1 #
coedge $-1 $50 $73 $139 $140 reversed $35 $-1 #
coedge $-1 $141 $68 $50 $83 forward $122 $-1 #
edge $-1 $74 -15 $142 15 $82 $143 reversed 7 unknown #
coedge $-1 $144 $51 $145 $146 reversed $27 $-1 #
coedge $-1 $147 $148 $51 $86 forward $149 $-1 #
edge $-1 $150 -10 $93 10 $85 $151 forward 7 unknown #
coedge $-1 $52 $71 $152 $153 forward $27 $-1 #
coedge $-1 $154 $155 $52 $89 forward $101 $-1 #
edge $-1 $94 10 $156 25 $88 $157 forward 7 unknown #
coedge $-1 $158 $53 $155 $159 reversed $92 $-1 #
coedge $-1 $53 $158 $147 $160 forward $92 $-1 #
loop $-1 $-1 $53 $161 #
vertex $-1 $160 $162 #
vertex $-1 $159 $163 #
straight-curve $-1 10 30 33.75 0 0 1 I I #
coedge $-1 $164 $55 $118 $165 forward $20 $-1 #
coedge $-1 $166 $167 $55 $98 forward $78 $-1 #
edge $-1 $168 -15 $102 15 $55 $169 forward 7 unknown #
coedge $-1 $170 $56 $62 $114 forward $101 $-1 #
coedge $-1 $56 $171 $166 $172 forward $101 $-1 #
loop $-1 $173 $56 $174 #
vertex $-1 $172 $175 #
straight-curve $-1 0 -30 45 -1 0 0 I I #
coedge $-1 $58 $164 $176 $177 reversed $20 $-1 #
coedge $-1 $178 $179 $58 $106 forward $180 $-1 #
edge $-1 $110 -3.75 $181 11.25 $105 $182 forward 7 unknown #
coedge $-1 $183 $59 $179 $184 reversed $109 $-1 #
coedge $-1 $59 $183 $61 $113 reversed $109 $-1 #
loop $-1 $-1 $59 $185 #
vertex $-1 $184 $186 #
straight-curve $-1 0 -30 30 -1 0 0 I I #
coedge $-1 $62 $61 $187 $188 reversed $63 $-1 #
edge $-1 $65 30 $189 50 $61 $190 forward 7 unknown #
edge $-1 $64 30 $191 50 $99 $192 forward 7 unknown #
face $-1 $185 $63 $2 $-1 $193 forward single #
point $-1 10 -30 45 #
point $-1 10 -30 30 #
coedge $-1 $194 $67 $96 $165 reversed $22 $-1 #
coedge $-1 $80 $195 $67 $120 forward $48 $-1 #
edge $-1 $196 1.570796326794896558 $123 3.141592653589793116 $67 $197 forward 7 unknown #
coedge $-1 $68 $141 $80 $138 reversed $122 $-1 #
loop $-1 $-1 $121 $198 #
vertex $-1 $69 $199 #
straight-curve $-1 -35 0 15 0 1 0 I I #
coedge $-1 $70 $194 $200 $201 reversed $22 $-1 #
coedge $-1 $202 $152 $70 $127 forward $135 $-1 #
edge $-1 $129 -1.570796326794896558 $203 0 $70 $204 forward 7 unknown #
coedge $-1 $71 $144 $73 $131 reversed $27 $-1 #
vertex $-1 $72 $205 #
straight-curve $-1 0 30 15 1 0 0 I I #
edge $-1 $75 -15 $206 15 $128 $207 forward 7 unknown #
point $-1 -35 20 15 #
point $-1 -25 30 15 #
face $-1 $198 $208 $2 $-1 $209 forward single #
loop $-1 $-1 $152 $77 #
cone-surface $-1 25 20 30 0 0 1 10 0 0 1 I I 0 1 10 forward I I I I #
coedge $-1 $195 $80 $210 $211 reversed $48 $-1 #
edge $-1 $123 -15 $212 15 $121 $213 forward 7 unknown #
coedge $-1 $214 $215 $81 $140 forward $216 $-1 #
edge $-1 $142 -3.141592653589793116 $206 -1.570796326794896558 $139 $217 forward 7 unknown #
coedge $-1 $121 $82 $215 $218 reversed $122 $-1 #
vertex $-1 $140 $219 #
straight-curve $-1 -35 20 30 0 0 -1 I I #
coedge $-1 $128 $84 $214 $220 reversed $27 $-1 #
coedge $-1 $221 $222 $84 $146 forward $223 $-1 #
edge $-1 $224 -11.25 $150 3.75 $145 $225 forward 7 unknown #
coedge $-1 $226 $85 $91 $160 reversed $149 $-1 #
coedge $-1 $85 $226 $221 $227 reversed $149 $-1 #
loop $-1 $-1 $85 $228 #
vertex $-1 $86 $229 #
straight-curve $-1 0 30 30 1 0 0 I I #
coedge $-1 $126 $230 $87 $153 reversed $135 $-1 #
edge $-1 $129 -15 $156 15 $87 $231 reversed 7 unknown #
coedge $-1 $171 $88 $230 $232 forward $101 $-1 #
coedge $-1 $88 $233 $90 $159 forward $101 $-1 #
vertex $-1 $232 $234 #
straight-curve $-1 0 30 45 1 0 0 I I #
coedge $-1 $91 $90 $235 $236 reversed $92 $-1 #
edge $-1 $237 -50 $94 -30 $155 $192 forward 7 unknown #
edge $-1 $238 -50 $93 -30 $91 $190 forward 7 unknown #
face $-1 $239 $92 $2 $-1 $193 forward single #
point $-1 10 30 30 #
point $-1 10 30 45 #
coedge $-1 $104 $96 $195 $240 forward $20 $-1 #
edge $-1 $168 -25 $196 25 $96 $241 forward 7 unknown #
coedge $-1 $242 $97 $100 $172 reversed $78 $-1 #
coedge $-1 $97 $242 $194 $243 forward $78 $-1 #
vertex $-1 $165 $244 #
straight-curve $-1 25 -30 30 0 0 1 I I #
coedge $-1 $245 $99 $246 $247 forward $101 $-1 #
coedge $-1 $100 $154 $248 $249 forward $101 $-1 #
edge $-1 $250 0 $102 1.570796326794896558 $100 $251 forward 7 unknown #
loop $-1 $-1 $252 $174 #
face $-1 $253 $101 $2 $-1 $254 forward single #
point $-1 25 -30 45 #
coedge $-1 $210 $255 $104 $177 forward $216 $-1 #
edge $-1 $181 10 $256 25 $176 $257 forward 7 unknown #
coedge $-1 $258 $105 $255 $259 reversed $180 $-1 #
coedge $-1 $105 $258 $107 $184 forward $180 $-1 #
loop $-1 $-1 $105 $260 #
vertex $-1 $259 $261 #
straight-curve $-1 -10 -30 33.75 0 0 1 I I #
coedge $-1 $108 $107 $262 $263 reversed $109 $-1 #
edge $-1 $264 -50 $110 -30 $179 $265 forward 7 unknown #
face $-1 $260 $109 $2 $-1 $266 forward single #
point $-1 -10 -30 30 #
coedge $-1 $262 $246 $112 $188 forward $267 $-1 #
edge $-1 $191 -26.25 $189 -11.25 $187 $268 forward 7 unknown #
vertex $-1 $263 $269 #
straight-curve $-1 10 0 30 0 -1 0 I I #
vertex $-1 $114 $270 #
straight-curve $-1 10 0 45 0 -1 0 I I #
plane-surface $-1 10 0 37.5 -1 0 0 0 0 1 forward_v I I I I #
coedge $-1 $125 $118 $167 $243 reversed $22 $-1 #
coedge $-1 $119 $137 $164 $240 reversed $48 $-1 #
vertex $-1 $165 $271 #
ellipse-curve $-1 -25 -20 15 0 0 -1 10 0 0 1 I I #
face $-1 $115 $122 $2 $-1 $272 forward single #
point $-1 -35 -20 15 #
coedge $-1 $273 $274 $125 $201 forward $208 $-1 #
edge $-1 $203 -20 $275 20 $200 $276 forward 7 unknown #
coedge $-1 $230 $126 $274 $277 forward $135 $-1 #
vertex $-1 $201 $278 #
ellipse-curve $-1 25 20 15 0 0 -1 10 0 0 1 I I #
point $-1 25 30 15 #
vertex $-1 $140 $279 #
straight-curve $-1 -25 30 30 0 0 1 I I #
loop $-1 $-1 $273 $134 #
plane-surface $-1 35 0 30 -1 0 0 0 0 1 forward_v I I I I #
coedge $-1 $215 $176 $137 $211 forward $216 $-1 #
edge $-1 $256 1.570796326794896558 $212 3.141592653589793116 $210 $280 forward 7 unknown #
vertex $-1 $211 $281 #
straight-curve $-1 -35 -20 30 0 0 1 I I #
coedge $-1 $282 $139 $144 $220 forward $216 $-1 #
coedge $-1 $139 $210 $141 $218 forward $216 $-1 #
loop $-1 $283 $176 $253 #
ellipse-curve $-1 -25 20 45 0 0 -1 10 0 0 1 I I #
edge $-1 $212 -20 $142 20 $215 $284 forward 7 unknown #
point $-1 -35 20 45 #
edge $-1 $206 -25 $224 -10 $214 $285 forward 7 unknown #
coedge $-1 $286 $145 $148 $227 forward $223 $-1 #
coedge $-1 $145 $286 $282 $287 reversed $223 $-1 #
loop $-1 $-1 $145 $239 #
vertex $-1 $146 $288 #
straight-curve $-1 -10 30 33.75 0 0 -1 I I #
coedge $-1 $148 $147 $289 $290 reversed $149 $-1 #
edge $-1 $150 30 $291 50 $221 $265 forward 7 unknown #
face $-1 $292 $149 $2 $-1 $266 forward single #
point $-1 -10 30 30 #
coedge $-1 $152 $202 $154 $232 reversed $135 $-1 #
straight-curve $-1 25 30 30 0 0 -1 I I #
edge $-1 $156 -1.570796326794896558 $293 0 $154 $294 forward 7 unknown #
coedge $-1 $155 $295 $296 $297 forward $101 $-1 #
point $-1 25 30 45 #
coedge $-1 $296 $289 $158 $236 forward $298 $-1 #
edge $-1 $238 11.25 $237 26.25 $235 $299 forward 7 unknown #
vertex $-1 $297 $300 #
vertex $-1 $290 $301 #
face $-1 $228 $223 $2 $-1 $302 forward single #
edge $-1 $196 -15 $256 15 $164 $303 reversed 7 unknown #
straight-curve $-1 0 -30 15 -1 0 0 I I #
coedge $-1 $167 $166 $273 $304 forward $78 $-1 #
edge $-1 $275 0 $168 1.570796326794896558 $194 $305 forward 7 unknown #
point $-1 25 -30 15 #
coedge $-1 $306 $170 $307 $308 forward $101 $-1 #
coedge $-1 $187 $309 $170 $247 reversed $267 $-1 #
edge $-1 $191 10 $310 60 $246 $311 forward 7 unknown #
coedge $-1 $274 $273 $171 $249 reversed $208 $-1 #
edge $-1 $293 -20 $250 20 $171 $312 forward 7 unknown #
vertex $-1 $172 $313 #
ellipse-curve $-1 25 -20 45 0 0 -1 10 0 0 1 I I #
coedge $-1 $252 $252 $314 $315 forward $173 $-1 #
face $-1 $161 $216 $2 $-1 $254 forward single #
plane-surface $-1 0 0 45 0 0 1 1 0 0 forward_v I I I I #
coedge $-1 $176 $316 $178 $259 forward $216 $-1 #
vertex $-1 $211 $317 #
straight-curve $-1 0 -30 45 -1 0 0 I I #
coedge $-1 $179 $178 $318 $319 reversed $180 $-1 #
edge $-1 $320 -50 $181 -30 $255 $321 forward 7 unknown #
face $-1 $174 $180 $2 $-1 $302 forward single #
point $-1 -10 -30 45 #
coedge $-1 $318 $187 $183 $263 forward $267 $-1 #
edge $-1 $189 -10 $264 10 $262 $322 forward 7 unknown #
vertex $-1 $263 $323 #
straight-curve $-1 -10 0 30 0 1 0 I I #
plane-surface $-1 0 0 30 0 0 1 1 0 0 forward_v I I I I #
loop $-1 $-1 $187 $292 #
straight-curve $-1 10 -50 18.75 0 0 -1 I I #
point $-1 10 -50 30 #
point $-1 10 -50 45 #
point $-1 -25 -30 15 #
plane-surface $-1 -35 0 30 1 0 0 0 0 -1 forward_v I I I I #
coedge $-1 $248 $200 $242 $304 reversed $208 $-1 #
coedge $-1 $200 $248 $202 $277 reversed $208 $-1 #
vertex $-1 $201 $324 #
straight-curve $-1 35 0 15 0 -1 0 I I #
edge $-1 $203 -15 $293 15 $274 $325 forward 7 unknown #
point $-1 35 20 15 #
point $-1 -25 30 45 #
ellipse-curve $-1 -25 -20 45 0 0 -1 10 0 0 1 I I #
point $-1 -35 -20 45 #
coedge $-1 $326 $214 $222 $287 forward $216 $-1 #
loop $-1 $327 $328 $253 #
straight-curve $-1 -35 0 45 0 1 0 I I #
straight-curve $-1 0 30 45 1 0 0 I I #
coedge $-1 $222 $221 $329 $330 reversed $223 $-1 #
edge $-1 $224 30 $331 50 $282 $321 forward 7 unknown #
point $-1 -10 30 45 #
coedge $-1 $235 $329 $226 $290 forward $298 $-1 #
edge $-1 $291 -10 $238 10 $289 $332 forward 7 unknown #
vertex $-1 $290 $333 #
face $-1 $334 $267 $2 $-1 $335 reversed single #
vertex $-1 $232 $336 #
ellipse-curve $-1 25 20 45 0 0 -1 10 0 0 1 I I #
coedge $-1 $233 $337 $338 $339 forward $101 $-1 #
coedge $-1 $340 $235 $233 $297 reversed $298 $-1 #
edge $-1 $341 -60 $237 -10 $296 $342 forward 7 unknown #
loop $-1 $-1 $235 $334 #
straight-curve $-1 10 50 18.75 0 0 1 I I #
point $-1 10 50 45 #
point $-1 10 50 30 #
plane-surface $-1 -10 0 37.5 1 0 0 0 0 -1 forward_v I I I I #
straight-curve $-1 -25 -30 30 0 0 -1 I I #
edge $-1 $250 -15 $275 15 $273 $343 forward 7 unknown #
ellipse-curve $-1 25 -20 15 0 0 -1 10 0 0 1 I I #
coedge $-1 $344 $245 $345 $346 forward $101 $-1 #
coedge $-1 $347 $348 $245 $308 reversed $349 $-1 #
edge $-1 $310 -50 $350 -30 $307 $351 forward 7 unknown #
coedge $-1 $246 $352 $347 $353 reversed $267 $-1 #
vertex $-1 $308 $354 #
straight-curve $-1 0 -50 45 1 0 0 I I #
straight-curve $-1 35 0 45 0 -1 0 I I #
point $-1 35 -20 45 #
coedge $-1 $314 $314 $252 $315 reversed $355 $-1 #
edge $-1 $356 0 $356 6.283185307179586232 $252 $357 forward 7 unknown #
coedge $-1 $255 $358 $359 $360 forward $216 $-1 #
point $-1 -25 -30 45 #
coedge $-1 $359 $262 $258 $319 forward $267 $-1 #
edge $-1 $264 11.25 $320 26.25 $318 $361 forward 7 unknown #
vertex $-1 $360 $362 #
straight-curve $-1 -10 0 45 0 1 0 I I #
straight-curve $-1 0 -50 30 -1 0 0 I I #
point $-1 -10 -50 30 #
point $-1 35 -20 15 #
straight-curve $-1 35 20 30 0 0 1 I I #
coedge $-1 $358 $282 $363 $364 forward $216 $-1 #
loop $-1 $-1 $365 $253 #
coedge $-1 $328 $328 $366 $367 forward $283 $-1 #
coedge $-1 $289 $363 $286 $330 forward $298 $-1 #
edge $-1 $331 -26.25 $291 -11.25 $329 $368 forward 7 unknown #
vertex $-1 $330 $369 #
straight-curve $-1 0 50 30 1 0 0 I I #
point $-1 -10 50 30 #
face $-1 $370 $298 $2 $-1 $371 reversed single #
plane-surface $-1 0 -50 0 0 1 0 0 0 1 forward_v I I I I #
point $-1 35 20 45 #
coedge $-1 $295 $372 $373 $374 forward $101 $-1 #
coedge $-1 $375 $376 $295 $339 reversed $377 $-1 #
edge $-1 $378 30 $341 50 $338 $351 forward 7 unknown #
coedge $-1 $379 $296 $376 $380 forward $298 $-1 #
vertex $-1 $339 $381 #
straight-curve $-1 0 50 45 -1 0 0 I I #
straight-curve $-1 35 -20 30 0 0 -1 I I #
coedge $-1 $372 $306 $382 $383 forward $101 $-1 #
coedge $-1 $384 $385 $306 $346 reversed $386 $-1 #
edge $-1 $350 -3.141592653589793116 $387 -1.570796326794896558 $306 $388 forward 7 unknown #
coedge $-1 $389 $307 $309 $353 forward $349 $-1 #
coedge $-1 $307 $389 $384 $390 reversed $349 $-1 #
loop $-1 $-1 $348 $391 #
vertex $-1 $308 $392 #
straight-curve $-1 60 0 45 0 1 0 I I #
coedge $-1 $309 $393 $394 $395 reversed $267 $-1 #
edge $-1 $310 -45 $396 45 $347 $397 forward 7 unknown #
point $-1 60 -50 45 #
loop $-1 $-1 $314 $398 #
vertex $-1 $315 $399 #
ellipse-curve $-1 70 0 45 0 0 -1 10 0 0 1 I I #
coedge $-1 $316 $326 $400 $401 forward $216 $-1 #
coedge $-1 $393 $318 $316 $360 reversed $267 $-1 #
edge $-1 $402 -60 $320 -10 $359 $311 forward 7 unknown #
straight-curve $-1 -10 -50 18.75 0 0 1 I I #
point $-1 -10 -50 45 #
coedge $-1 $329 $403 $326 $364 reversed $298 $-1 #
edge $-1 $331 10 $404 60 $363 $342 forward 7 unknown #
coedge $-1 $365 $365 $405 $406 forward $327 $-1 #
coedge $-1 $366 $366 $328 $367 reversed $407 $-1 #
edge $-1 $408 0 $408 6.283185307179586232 $328 $409 forward 7 unknown #
straight-curve $-1 -10 50 18.75 0 0 -1 I I #
point $-1 -10 50 45 #
face $-1 $410 $411 $2 $-1 $412 reversed single #
plane-surface $-1 0 50 0 0 -1 0 0 0 -1 forward_v I I I I #
coedge $-1 $337 $344 $413 $414 forward $101 $-1 #
coedge $-1 $415 $416 $337 $374 reversed $417 $-1 #
edge $-1 $418 1.570796326794896558 $378 3.141592653589793116 $337 $419 forward 7 unknown #
coedge $-1 $420 $338 $416 $421 forward $377 $-1 #
coedge $-1 $338 $420 $340 $380 reversed $377 $-1 #
loop $-1 $-1 $375 $422 #
vertex $-1 $339 $423 #
coedge $-1 $403 $340 $424 $425 reversed $298 $-1 #
edge $-1 $341 -45 $426 45 $376 $427 forward 7 unknown #
point $-1 60 50 45 #
coedge $-1 $428 $413 $344 $383 reversed $429 $-1 #
edge $-1 $387 -1.570796326794896558 $430 0 $344 $431 forward 7 unknown #
coedge $-1 $432 $345 $348 $390 forward $386 $-1 #
coedge $-1 $345 $432 $428 $433 reversed $386 $-1 #
loop $-1 $-1 $385 $434 #
vertex $-1 $383 $435 #
ellipse-curve $-1 70 -30 45 0 0 -1 10 0 0 1 I I #
coedge $-1 $348 $347 $436 $437 reversed $349 $-1 #
edge $-1 $350 -45 $438 45 $348 $439 forward 7 unknown #
face $-1 $422 $349 $2 $-1 $440 reversed single #
point $-1 60 -30 45 #
coedge $-1 $352 $359 $441 $442 forward $267 $-1 #
coedge $-1 $443 $436 $352 $395 forward $444 $-1 #
edge $-1 $396 -60 $445 60 $352 $446 forward 7 unknown #
vertex $-1 $353 $447 #
straight-curve $-1 60 -50 0 0 0 -1 I I #
face $-1 $448 $449 $2 $-1 $450 reversed single #
point $-1 80 0 45 #
coedge $-1 $451 $441 $358 $401 reversed $452 $-1 #
edge $-1 $404 -50 $402 50 $400 $453 forward 7 unknown #
vertex $-1 $401 $454 #
coedge $-1 $363 $379 $451 $455 reversed $298 $-1 #
vertex $-1 $364 $456 #
coedge $-1 $405 $405 $365 $406 reversed $457 $-1 #
edge $-1 $458 0 $458 6.283185307179586232 $365 $459 forward 7 unknown #
loop $-1 $-1 $366 $370 #
vertex $-1 $367 $460 #
ellipse-curve $-1 -45 -35 45 0 0 -1 10 0 0 1 I I #
face $-1 $461 $462 $2 $-1 $463 reversed single #
loop $-1 $407 $464 $370 #
cone-surface $-1 -45 -35 0 0 0 1 10 0 0 1 I I 0 1 10 forward I I I I #
coedge $-1 $382 $465 $372 $414 reversed $429 $-1 #
edge $-1 $430 0 $418 1.570796326794896558 $372 $431 forward 7 unknown #
coedge $-1 $466 $373 $465 $467 reversed $417 $-1 #
coedge $-1 $373 $466 $375 $421 reversed $417 $-1 #
loop $-1 $-1 $415 $448 #
vertex $-1 $414 $468 #
ellipse-curve $-1 70 30 45 0 0 -1 10 0 0 1 I I #
coedge $-1 $376 $375 $469 $470 reversed $377 $-1 #
edge $-1 $378 -45 $471 45 $375 $472 forward 7 unknown #
face $-1 $473 $377 $2 $-1 $440 reversed single #
point $-1 60 30 45 #
coedge $-1 $469 $443 $379 $425 forward $444 $-1 #
edge $-1 $474 -60 $426 60 $379 $475 forward 7 unknown #
vertex $-1 $470 $476 #
straight-curve $-1 60 50 0 0 0 -1 I I #
coedge $-1 $477 $382 $385 $433 forward $429 $-1 #
loop $-1 $-1 $465 $478 #
vertex $-1 $383 $479 #
ellipse-curve $-1 70 0 45 0 0 1 20 0 0 1 I I #
coedge $-1 $385 $384 $480 $481 reversed $386 $-1 #
edge $-1 $387 -45 $482 45 $428 $483 forward 7 unknown #
face $-1 $478 $386 $2 $-1 $484 reversed single #
point $-1 70 -20 45 #
coedge $-1 $394 $480 $389 $437 forward $444 $-1 #
edge $-1 $438 30 $396 50 $389 $485 forward 7 unknown #
vertex $-1 $437 $486 #
straight-curve $-1 60 -30 0 0 0 -1 I I #
plane-surface $-1 60 0 0 -1 0 0 0 0 1 forward_v I I I I #
coedge $-1 $400 $487 $393 $442 reversed $452 $-1 #
edge $-1 $402 -45 $445 45 $441 $488 forward 7 unknown #
coedge $-1 $424 $394 $487 $489 forward $444 $-1 #
loop $-1 $490 $436 $410 #
vertex $-1 $489 $491 #
straight-curve $-1 0 -50 -45 -1 0 0 I I #
point $-1 60 -50 -45 #
face $-1 $434 $417 $2 $-1 $492 reversed single #
loop $-1 $355 $493 $398 #
cone-surface $-1 70 0 0 0 0 1 10 0 0 1 I I 0 1 10 forward I I I I #
coedge $-1 $487 $400 $403 $455 forward $452 $-1 #
loop $-1 $-1 $400 $473 #
straight-curve $-1 -60 0 45 0 -1 0 I I #
point $-1 -60 -50 45 #
edge $-1 $404 -45 $474 45 $403 $494 forward 7 unknown #
point $-1 -60 50 45 #
loop $-1 $-1 $405 $461 #
vertex $-1 $406 $495 #
ellipse-curve $-1 -45 35 45 0 0 -1 10 0 0 1 I I #
point $-1 -35 -35 45 #
face $-1 $398 $496 $2 $-1 $497 reversed single #
loop $-1 $498 $499 $410 #
plane-surface $-1 0 0 -45 0 0 1 1 0 0 forward_v I I I I #
coedge $-1 $464 $464 $499 $500 reversed $411 $-1 #
coedge $-1 $413 $501 $415 $467 forward $429 $-1 #
coedge $-1 $416 $415 $502 $503 reversed $417 $-1 #
edge $-1 $504 -45 $418 45 $465 $505 forward 7 unknown #
point $-1 70 20 45 #
coedge $-1 $502 $424 $420 $470 forward $444 $-1 #
edge $-1 $426 -50 $471 -30 $420 $485 forward 7 unknown #
vertex $-1 $470 $506 #
straight-curve $-1 60 30 0 0 0 -1 I I #
face $-1 $-1 $452 $2 $-1 $507 reversed single #
vertex $-1 $425 $508 #
straight-curve $-1 0 50 -45 1 0 0 I I #
point $-1 60 50 -45 #
coedge $-1 $501 $428 $509 $510 reversed $429 $-1 #
face $-1 $391 $429 $2 $-1 $511 forward single #
point $-1 90 0 45 #
coedge $-1 $436 $509 $432 $481 forward $444 $-1 #
edge $-1 $482 1.570796326794896558 $438 3.141592653589793116 $480 $512 forward 7 unknown #
vertex $-1 $510 $513 #
straight-curve $-1 70 -20 0 0 0 -1 I I #
cone-surface $-1 70 -30 0 0 0 1 10 0 0 1 I I 0 1 10 forward I I I I #
straight-curve $-1 60 0 -45 0 -1 0 I I #
point $-1 60 -30 -45 #
coedge $-1 $441 $451 $443 $489 reversed $452 $-1 #
straight-curve $-1 -60 -50 0 0 0 -1 I I #
edge $-1 $445 -50 $474 50 $487 $514 forward 7 unknown #
loop $-1 $-1 $515 $410 #
point $-1 -60 -50 -45 #
cone-surface $-1 70 30 0 0 0 1 10 0 0 1 I I 0 1 10 forward I I I I #
coedge $-1 $493 $493 $516 $517 reversed $449 $-1 #
straight-curve $-1 -60 50 0 0 0 -1 I I #
point $-1 -35 35 45 #
loop $-1 $457 $518 $461 #
cone-surface $-1 -45 35 0 0 0 1 10 0 0 1 I I 0 1 10 forward I I I I #
loop $-1 $444 $516 $410 #
coedge $-1 $499 $499 $464 $500 forward $462 $-1 #
edge $-1 $519 0 $519 6.283185307179586232 $499 $520 forward 7 unknown #
coedge $-1 $465 $477 $521 $522 reversed $429 $-1 #
coedge $-1 $521 $469 $466 $503 forward $444 $-1 #
edge $-1 $471 -3.141592653589793116 $504 -1.570796326794896558 $502 $523 forward 7 unknown #
vertex $-1 $522 $524 #
straight-curve $-1 70 20 0 0 0 1 I I #
point $-1 60 30 -45 #
plane-surface $-1 -60 0 0 1 0 0 0 0 -1 forward_v I I I I #
point $-1 -60 50 -45 #
coedge $-1 $480 $521 $477 $510 forward $444 $-1 #
edge $-1 $525 0 $482 1.570796326794896558 $509 $526 forward 7 unknown #
cone-surface $-1 70 0 0 0 0 1 20 0 0 1 I I 0 1 20 forward I I I I #
ellipse-curve $-1 70 -30 -45 0 0 1 10 0 0 1 I I #
point $-1 70 -20 -45 #
straight-curve $-1 -60 0 -45 0 1 0 I I #
coedge $-1 $515 $515 $518 $527 forward $490 $-1 #
coedge $-1 $516 $516 $493 $517 forward $498 $-1 #
edge $-1 $528 0 $528 6.283185307179586232 $516 $529 forward 7 unknown #
coedge $-1 $518 $518 $515 $527 reversed $496 $-1 #
vertex $-1 $500 $530 #
ellipse-curve $-1 -45 -35 -45 0 0 1 10 0 0 1 I I #
coedge $-1 $509 $502 $501 $522 forward $444 $-1 #
edge $-1 $504 -1.570796326794896558 $525 0 $521 $526 forward 7 unknown #
ellipse-curve $-1 70 30 -45 0 0 1 10 0 0 1 I I #
point $-1 70 20 -45 #
vertex $-1 $522 $531 #
ellipse-curve $-1 70 0 -45 0 0 -1 20 0 0 1 I I #
edge $-1 $532 0 $532 6.283185307179586232 $515 $533 forward 7 unknown #
vertex $-1 $517 $534 #
ellipse-curve $-1 70 0 -45 0 0 1 10 0 0 1 I I #
point $-1 -35 -35 -45 #
point $-1 90 0 -45 #
vertex $-1 $527 $535 #
ellipse-curve $-1 -45 35 -45 0 0 1 10 0 0 1 I I #
point $-1 80 0 -45 #
point $-1 -35 35 -45 #
End-of-ACIS-data 