106 0 1 0           
body $-1 $1 $-1 $-1 #
lump $-1 $-1 $2 $0 #
shell $-1 $-1 $-1 $3 $1 #
face $-1 $4 $5 $2 $-1 $6 reversed single #
face $-1 $7 $8 $2 $-1 $9 reversed single #
loop $-1 $10 $11 $3 #
cone-surface $-1 0 0 10 0 0 1 25 0 0 1 I I 0 1 0 I I I I #
face $-1 $12 $13 $2 $-1 $14 forward single #
loop $-1 $-1 $15 $4 #
plane-surface $-1 0 0 -25 0 0 -1 -1 0 0 0 I I I I #
loop $-1 $-1 $16 $3 #
coedge $-1 $11 $11 $17 $18 1 $5 $-1 #
face $-1 $19 $20 $2 $-1 $21 forward single #
loop $-1 $22 $17 $7 #
plane-surface $-1 0 0 15 0 0 1 1 0 0 0 I I I I #
coedge $-1 $15 $15 $16 $23 1 $8 $-1 #
coedge $-1 $16 $16 $15 $23 0 $10 $-1 #
coedge $-1 $17 $17 $11 $18 0 $13 $-1 #
edge $-1 $24 $24 $17 $25 0 #
face $-1 $26 $27 $2 $-1 $28 forward single #
loop $-1 $-1 $29 $12 #
plane-surface $-1 0 -30 30 0 1 0 0 0 1 0 I I I I #
loop $-1 $-1 $30 $7 #
edge $-1 $31 $31 $15 $32 0 #
vertex $-1 $18 $33 #
ellipse-curve $-1 0 0 15 0 0 -1 25 0 0 1 I I #
face $-1 $34 $35 $2 $-1 $36 reversed single #
loop $-1 $-1 $37 $19 #
plane-surface $-1 0 30 30 0 -1 0 0 0 -1 0 I I I I #
coedge $-1 $38 $39 $40 $41 1 $20 $-1 #
coedge $-1 $42 $43 $44 $45 1 $22 $-1 #
vertex $-1 $23 $46 #
ellipse-curve $-1 0 0 -25 0 0 -1 25 0 0 1 I I #
point $-1 -25 -1.74574083352174e-13 15 #
face $-1 $47 $48 $2 $-1 $49 reversed single #
loop $-1 $-1 $50 $26 #
cone-surface $-1 -25 20 30 0 0 1 10 0 0 1 I I 0 1 0 I I I I #
coedge $-1 $51 $52 $53 $54 1 $27 $-1 #
coedge $-1 $55 $29 $56 $57 1 $20 $-1 #
coedge $-1 $29 $58 $59 $60 1 $20 $-1 #
coedge $-1 $61 $62 $29 $41 0 $63 $-1 #
edge $-1 $64 $65 $40 $66 0 #
coedge $-1 $67 $30 $68 $69 1 $22 $-1 #
coedge $-1 $30 $70 $71 $72 1 $22 $-1 #
coedge $-1 $73 $50 $30 $45 0 $35 $-1 #
edge $-1 $74 $75 $30 $76 0 #
point $-1 25 0 -25 #
face $-1 $77 $78 $2 $-1 $79 reversed single #
loop $-1 $-1 $80 $34 #
cone-surface $-1 -25 -20 30 0 0 1 10 0 0 1 I I 0 1 0 I I I I #
coedge $-1 $44 $81 $82 $83 1 $35 $-1 #
coedge $-1 $84 $37 $85 $86 1 $27 $-1 #
coedge $-1 $37 $87 $88 $89 1 $27 $-1 #
coedge $-1 $90 $91 $37 $54 0 $92 $-1 #
edge $-1 $93 $94 $53 $95 0 #
coedge $-1 $96 $38 $97 $98 1 $20 $-1 #
coedge $-1 $99 $100 $38 $57 0 $101 $-1 #
edge $-1 $102 $64 $56 $103 0 #
coedge $-1 $39 $104 $105 $106 1 $20 $-1 #
coedge $-1 $107 $108 $39 $60 0 $109 $-1 #
edge $-1 $65 $110 $59 $111 0 #
coedge $-1 $112 $40 $108 $113 0 $63 $-1 #
coedge $-1 $40 $112 $99 $114 1 $63 $-1 #
loop $-1 $-1 $40 $115 #
vertex $-1 $57 $116 #
vertex $-1 $41 $117 #
straight-curve $-1 10 -30 33.75 0 0 -1 I I #
coedge $-1 $118 $42 $119 $120 1 $22 $-1 #
coedge $-1 $82 $121 $42 $69 0 $122 $-1 #
edge $-1 $123 $74 $68 $124 0 #
coedge $-1 $43 $125 $126 $127 1 $22 $-1 #
coedge $-1 $87 $128 $43 $72 0 $27 $-1 #
edge $-1 $75 $129 $71 $130 0 #
coedge $-1 $81 $44 $128 $131 0 $35 $-1 #
vertex $-1 $69 $132 #
vertex $-1 $131 $133 #
ellipse-curve $-1 -25 20 15 0 0 -1 10 0 0 1 I I #
face $-1 $134 $135 $2 $-1 $136 reversed single #
loop $-1 $-1 $97 $47 #
cone-surface $-1 25 -20 30 0 0 1 10 0 0 1 I I 0 1 0 I I I I #
coedge $-1 $137 $119 $121 $138 0 $48 $-1 #
coedge $-1 $50 $73 $139 $140 1 $35 $-1 #
coedge $-1 $141 $68 $50 $83 0 $122 $-1 #
edge $-1 $74 $142 $82 $143 1 #
coedge $-1 $144 $51 $145 $146 1 $27 $-1 #
coedge $-1 $147 $148 $51 $86 0 $149 $-1 #
edge $-1 $150 $93 $85 $151 0 #
coedge $-1 $52 $71 $152 $153 0 $27 $-1 #
coedge $-1 $154 $155 $52 $89 0 $101 $-1 #
edge $-1 $94 $156 $88 $157 0 #
coedge $-1 $158 $53 $155 $159 1 $92 $-1 #
coedge $-1 $53 $158 $147 $160 0 $92 $-1 #
loop $-1 $-1 $53 $161 #
vertex $-1 $160 $162 #
vertex $-1 $159 $163 #
straight-curve $-1 10 30 33.75 0 0 1 I I #
coedge $-1 $164 $55 $118 $165 0 $20 $-1 #
coedge $-1 $166 $167 $55 $98 0 $78 $-1 #
edge $-1 $168 $102 $55 $169 0 #
coedge $-1 $170 $56 $62 $114 0 $101 $-1 #
coedge $-1 $56 $171 $166 $172 0 $101 $-1 #
loop $-1 $173 $56 $174 #
vertex $-1 $172 $175 #
straight-curve $-1 0 -30 45 -1 0 0 I I #
coedge $-1 $58 $164 $176 $177 1 $20 $-1 #
coedge $-1 $178 $179 $58 $106 0 $180 $-1 #
edge $-1 $110 $181 $105 $182 0 #
coedge $-1 $183 $59 $179 $184 1 $109 $-1 #
coedge $-1 $59 $183 $61 $113 1 $109 $-1 #
loop $-1 $-1 $59 $185 #
vertex $-1 $184 $186 #
straight-curve $-1 0 -30 30 -1 0 0 I I #
coedge $-1 $62 $61 $187 $188 1 $63 $-1 #
edge $-1 $65 $189 $61 $190 0 #
edge $-1 $64 $191 $99 $192 0 #
face $-1 $185 $63 $2 $-1 $193 forward single #
point $-1 10 -30 45 #
point $-1 10 -30 30 #
coedge $-1 $194 $67 $96 $165 1 $22 $-1 #
coedge $-1 $80 $195 $67 $120 0 $48 $-1 #
edge $-1 $196 $123 $67 $197 0 #
coedge $-1 $68 $141 $80 $138 1 $122 $-1 #
loop $-1 $-1 $121 $198 #
vertex $-1 $69 $199 #
straight-curve $-1 -35 0 15 0 1 0 I I #
coedge $-1 $70 $194 $200 $201 1 $22 $-1 #
coedge $-1 $202 $152 $70 $127 0 $135 $-1 #
edge $-1 $129 $203 $70 $204 0 #
coedge $-1 $71 $144 $73 $131 1 $27 $-1 #
vertex $-1 $72 $205 #
straight-curve $-1 0 30 15 1 0 0 I I #
edge $-1 $75 $206 $128 $207 0 #
point $-1 -35 20 15 #
point $-1 -25 30 15 #
face $-1 $198 $208 $2 $-1 $209 forward single #
loop $-1 $-1 $152 $77 #
cone-surface $-1 25 20 30 0 0 1 10 0 0 1 I I 0 1 0 I I I I #
coedge $-1 $195 $80 $210 $211 1 $48 $-1 #
edge $-1 $123 $212 $121 $213 0 #
coedge $-1 $214 $215 $81 $140 0 $216 $-1 #
edge $-1 $142 $206 $139 $217 0 #
coedge $-1 $121 $82 $215 $218 1 $122 $-1 #
vertex $-1 $140 $219 #
straight-curve $-1 -35 20 30 0 0 -1 I I #
coedge $-1 $128 $84 $214 $220 1 $27 $-1 #
coedge $-1 $221 $222 $84 $146 0 $223 $-1 #
edge $-1 $224 $150 $145 $225 0 #
coedge $-1 $226 $85 $91 $160 1 $149 $-1 #
coedge $-1 $85 $226 $221 $227 1 $149 $-1 #
loop $-1 $-1 $85 $228 #
vertex $-1 $86 $229 #
straight-curve $-1 0 30 30 1 0 0 I I #
coedge $-1 $126 $230 $87 $153 1 $135 $-1 #
edge $-1 $129 $156 $87 $231 1 #
coedge $-1 $171 $88 $230 $232 0 $101 $-1 #
coedge $-1 $88 $233 $90 $159 0 $101 $-1 #
vertex $-1 $232 $234 #
straight-curve $-1 0 30 45 1 0 0 I I #
coedge $-1 $91 $90 $235 $236 1 $92 $-1 #
edge $-1 $237 $94 $155 $192 0 #
edge $-1 $238 $93 $91 $190 0 #
face $-1 $239 $92 $2 $-1 $193 forward single #
point $-1 10 30 30 #
point $-1 10 30 45 #
coedge $-1 $104 $96 $195 $240 0 $20 $-1 #
edge $-1 $168 $196 $96 $241 0 #
coedge $-1 $242 $97 $100 $172 1 $78 $-1 #
coedge $-1 $97 $242 $194 $243 0 $78 $-1 #
vertex $-1 $165 $244 #
straight-curve $-1 25 -30 30 0 0 1 I I #
coedge $-1 $245 $99 $246 $247 0 $101 $-1 #
coedge $-1 $100 $154 $248 $249 0 $101 $-1 #
edge $-1 $250 $102 $100 $251 0 #
loop $-1 $-1 $252 $174 #
face $-1 $253 $101 $2 $-1 $254 forward single #
point $-1 25 -30 45 #
coedge $-1 $210 $255 $104 $177 0 $216 $-1 #
edge $-1 $181 $256 $176 $257 0 #
coedge $-1 $258 $105 $255 $259 1 $180 $-1 #
coedge $-1 $105 $258 $107 $184 0 $180 $-1 #
loop $-1 $-1 $105 $260 #
vertex $-1 $259 $261 #
straight-curve $-1 -10 -30 33.75 0 0 1 I I #
coedge $-1 $108 $107 $262 $263 1 $109 $-1 #
edge $-1 $264 $110 $179 $265 0 #
face $-1 $260 $109 $2 $-1 $266 forward single #
point $-1 -10 -30 30 #
coedge $-1 $262 $246 $112 $188 0 $267 $-1 #
edge $-1 $191 $189 $187 $268 0 #
vertex $-1 $263 $269 #
straight-curve $-1 10 0 30 0 -1 0 I I #
vertex $-1 $114 $270 #
straight-curve $-1 10 0 45 0 -1 0 I I #
plane-surface $-1 10 0 37.5 -1 0 0 0 0 1 0 I I I I #
coedge $-1 $125 $118 $167 $243 1 $22 $-1 #
coedge $-1 $119 $137 $164 $240 1 $48 $-1 #
vertex $-1 $165 $271 #
ellipse-curve $-1 -25 -20 15 0 0 -1 10 0 0 1 I I #
face $-1 $115 $122 $2 $-1 $272 forward single #
point $-1 -35 -20 15 #
coedge $-1 $273 $274 $125 $201 0 $208 $-1 #
edge $-1 $203 $275 $200 $276 0 #
coedge $-1 $230 $126 $274 $277 0 $135 $-1 #
vertex $-1 $201 $278 #
ellipse-curve $-1 25 20 15 0 0 -1 10 0 0 1 I I #
point $-1 25 30 15 #
vertex $-1 $140 $279 #
straight-curve $-1 -25 30 30 0 0 1 I I #
loop $-1 $-1 $273 $134 #
plane-surface $-1 35 0 30 -1 0 0 0 0 1 0 I I I I #
coedge $-1 $215 $176 $137 $211 0 $216 $-1 #
edge $-1 $256 $212 $210 $280 0 #
vertex $-1 $211 $281 #
straight-curve $-1 -35 -20 30 0 0 1 I I #
coedge $-1 $282 $139 $144 $220 0 $216 $-1 #
coedge $-1 $139 $210 $141 $218 0 $216 $-1 #
loop $-1 $283 $176 $253 #
ellipse-curve $-1 -25 20 45 0 0 -1 10 0 0 1 I I #
edge $-1 $212 $142 $215 $284 0 #
point $-1 -35 20 45 #
edge $-1 $206 $224 $214 $285 0 #
coedge $-1 $286 $145 $148 $227 0 $223 $-1 #
coedge $-1 $145 $286 $282 $287 1 $223 $-1 #
loop $-1 $-1 $145 $239 #
vertex $-1 $146 $288 #
straight-curve $-1 -10 30 33.75 0 0 -1 I I #
coedge $-1 $148 $147 $289 $290 1 $149 $-1 #
edge $-1 $150 $291 $221 $265 0 #
face $-1 $292 $149 $2 $-1 $266 forward single #
point $-1 -10 30 30 #
coedge $-1 $152 $202 $154 $232 1 $135 $-1 #
straight-curve $-1 25 30 30 0 0 -1 I I #
edge $-1 $156 $293 $154 $294 0 #
coedge $-1 $155 $295 $296 $297 0 $101 $-1 #
point $-1 25 30 45 #
coedge $-1 $296 $289 $158 $236 0 $298 $-1 #
edge $-1 $238 $237 $235 $299 0 #
vertex $-1 $297 $300 #
vertex $-1 $290 $301 #
face $-1 $228 $223 $2 $-1 $302 forward single #
edge $-1 $196 $256 $164 $303 1 #
straight-curve $-1 0 -30 15 -1 0 0 I I #
coedge $-1 $167 $166 $273 $304 0 $78 $-1 #
edge $-1 $275 $168 $194 $305 0 #
point $-1 25 -30 15 #
coedge $-1 $306 $170 $307 $308 0 $101 $-1 #
coedge $-1 $187 $309 $170 $247 1 $267 $-1 #
edge $-1 $191 $310 $246 $311 0 #
coedge $-1 $274 $273 $171 $249 1 $208 $-1 #
edge $-1 $293 $250 $171 $312 0 #
vertex $-1 $172 $313 #
ellipse-curve $-1 25 -20 45 0 0 -1 10 0 0 1 I I #
coedge $-1 $252 $252 $314 $315 0 $173 $-1 #
face $-1 $161 $216 $2 $-1 $254 forward single #
plane-surface $-1 0 0 45 0 0 1 1 0 0 0 I I I I #
coedge $-1 $176 $316 $178 $259 0 $216 $-1 #
vertex $-1 $211 $317 #
straight-curve $-1 0 -30 45 -1 0 0 I I #
coedge $-1 $179 $178 $318 $319 1 $180 $-1 #
edge $-1 $320 $181 $255 $321 0 #
face $-1 $174 $180 $2 $-1 $302 forward single #
point $-1 -10 -30 45 #
coedge $-1 $318 $187 $183 $263 0 $267 $-1 #
edge $-1 $189 $264 $262 $322 0 #
vertex $-1 $263 $323 #
straight-curve $-1 -10 0 30 0 1 0 I I #
plane-surface $-1 0 0 30 0 0 1 1 0 0 0 I I I I #
loop $-1 $-1 $187 $292 #
straight-curve $-1 10 -50 18.75 0 0 -1 I I #
point $-1 10 -50 30 #
point $-1 10 -50 45 #
point $-1 -25 -30 15 #
plane-surface $-1 -35 0 30 1 0 0 0 0 -1 0 I I I I #
coedge $-1 $248 $200 $242 $304 1 $208 $-1 #
coedge $-1 $200 $248 $202 $277 1 $208 $-1 #
vertex $-1 $201 $324 #
straight-curve $-1 35 0 15 0 -1 0 I I #
edge $-1 $203 $293 $274 $325 0 #
point $-1 35 20 15 #
point $-1 -25 30 45 #
ellipse-curve $-1 -25 -20 45 0 0 -1 10 0 0 1 I I #
point $-1 -35 -20 45 #
coedge $-1 $326 $214 $222 $287 0 $216 $-1 #
loop $-1 $327 $328 $253 #
straight-curve $-1 -35 0 45 0 1 0 I I #
straight-curve $-1 0 30 45 1 0 0 I I #
coedge $-1 $222 $221 $329 $330 1 $223 $-1 #
edge $-1 $224 $331 $282 $321 0 #
point $-1 -10 30 45 #
coedge $-1 $235 $329 $226 $290 0 $298 $-1 #
edge $-1 $291 $238 $289 $332 0 #
vertex $-1 $290 $333 #
face $-1 $334 $267 $2 $-1 $335 reversed single #
vertex $-1 $232 $336 #
ellipse-curve $-1 25 20 45 0 0 -1 10 0 0 1 I I #
coedge $-1 $233 $337 $338 $339 0 $101 $-1 #
coedge $-1 $340 $235 $233 $297 1 $298 $-1 #
edge $-1 $341 $237 $296 $342 0 #
loop $-1 $-1 $235 $334 #
straight-curve $-1 10 50 18.75 0 0 1 I I #
point $-1 10 50 45 #
point $-1 10 50 30 #
plane-surface $-1 -10 0 37.5 1 0 0 0 0 -1 0 I I I I #
straight-curve $-1 -25 -30 30 0 0 -1 I I #
edge $-1 $250 $275 $273 $343 0 #
ellipse-curve $-1 25 -20 15 0 0 -1 10 0 0 1 I I #
coedge $-1 $344 $245 $345 $346 0 $101 $-1 #
coedge $-1 $347 $348 $245 $308 1 $349 $-1 #
edge $-1 $310 $350 $307 $351 0 #
coedge $-1 $246 $352 $347 $353 1 $267 $-1 #
vertex $-1 $308 $354 #
straight-curve $-1 0 -50 45 1 0 0 I I #
straight-curve $-1 35 0 45 0 -1 0 I I #
point $-1 35 -20 45 #
coedge $-1 $314 $314 $252 $315 1 $355 $-1 #
edge $-1 $356 $356 $252 $357 0 #
coedge $-1 $255 $358 $359 $360 0 $216 $-1 #
point $-1 -25 -30 45 #
coedge $-1 $359 $262 $258 $319 0 $267 $-1 #
edge $-1 $264 $320 $318 $361 0 #
vertex $-1 $360 $362 #
straight-curve $-1 -10 0 45 0 1 0 I I #
straight-curve $-1 0 -50 30 -1 0 0 I I #
point $-1 -10 -50 30 #
point $-1 35 -20 15 #
straight-curve $-1 35 20 30 0 0 1 I I #
coedge $-1 $358 $282 $363 $364 0 $216 $-1 #
loop $-1 $-1 $365 $253 #
coedge $-1 $328 $328 $366 $367 0 $283 $-1 #
coedge $-1 $289 $363 $286 $330 0 $298 $-1 #
edge $-1 $331 $291 $329 $368 0 #
vertex $-1 $330 $369 #
straight-curve $-1 0 50 30 1 0 0 I I #
point $-1 -10 50 30 #
face $-1 $370 $298 $2 $-1 $371 reversed single #
plane-surface $-1 0 -50 0 0 1 0 0 0 1 0 I I I I #
point $-1 35 20 45 #
coedge $-1 $295 $372 $373 $374 0 $101 $-1 #
coedge $-1 $375 $376 $295 $339 1 $377 $-1 #
edge $-1 $378 $341 $338 $351 0 #
coedge $-1 $379 $296 $376 $380 0 $298 $-1 #
vertex $-1 $339 $381 #
straight-curve $-1 0 50 45 -1 0 0 I I #
straight-curve $-1 35 -20 30 0 0 -1 I I #
coedge $-1 $372 $306 $382 $383 0 $101 $-1 #
coedge $-1 $384 $385 $306 $346 1 $386 $-1 #
edge $-1 $350 $387 $306 $388 0 #
coedge $-1 $389 $307 $309 $353 0 $349 $-1 #
coedge $-1 $307 $389 $384 $390 1 $349 $-1 #
loop $-1 $-1 $348 $391 #
vertex $-1 $308 $392 #
straight-curve $-1 60 0 45 0 1 0 I I #
coedge $-1 $309 $393 $394 $395 1 $267 $-1 #
edge $-1 $310 $396 $347 $397 0 #
point $-1 60 -50 45 #
loop $-1 $-1 $314 $398 #
vertex $-1 $315 $399 #
ellipse-curve $-1 70 0 45 0 0 -1 10 0 0 1 I I #
coedge $-1 $316 $326 $400 $401 0 $216 $-1 #
coedge $-1 $393 $318 $316 $360 1 $267 $-1 #
edge $-1 $402 $320 $359 $311 0 #
straight-curve $-1 -10 -50 18.75 0 0 1 I I #
point $-1 -10 -50 45 #
coedge $-1 $329 $403 $326 $364 1 $298 $-1 #
edge $-1 $331 $404 $363 $342 0 #
coedge $-1 $365 $365 $405 $406 0 $327 $-1 #
coedge $-1 $366 $366 $328 $367 1 $407 $-1 #
edge $-1 $408 $408 $328 $409 0 #
straight-curve $-1 -10 50 18.75 0 0 -1 I I #
point $-1 -10 50 45 #
face $-1 $410 $411 $2 $-1 $412 reversed single #
plane-surface $-1 0 50 0 0 -1 0 0 0 -1 0 I I I I #
coedge $-1 $337 $344 $413 $414 0 $101 $-1 #
coedge $-1 $415 $416 $337 $374 1 $417 $-1 #
edge $-1 $418 $378 $337 $419 0 #
coedge $-1 $420 $338 $416 $421 0 $377 $-1 #
coedge $-1 $338 $420 $340 $380 1 $377 $-1 #
loop $-1 $-1 $375 $422 #
vertex $-1 $339 $423 #
coedge $-1 $403 $340 $424 $425 1 $298 $-1 #
edge $-1 $341 $426 $376 $427 0 #
point $-1 60 50 45 #
coedge $-1 $428 $413 $344 $383 1 $429 $-1 #
edge $-1 $387 $430 $344 $431 0 #
coedge $-1 $432 $345 $348 $390 0 $386 $-1 #
coedge $-1 $345 $432 $428 $433 1 $386 $-1 #
loop $-1 $-1 $385 $434 #
vertex $-1 $383 $435 #
ellipse-curve $-1 70 -30 45 0 0 -1 10 0 0 1 I I #
coedge $-1 $348 $347 $436 $437 1 $349 $-1 #
edge $-1 $350 $438 $348 $439 0 #
face $-1 $422 $349 $2 $-1 $440 reversed single #
point $-1 60 -30 45 #
coedge $-1 $352 $359 $441 $442 0 $267 $-1 #
coedge $-1 $443 $436 $352 $395 0 $444 $-1 #
edge $-1 $396 $445 $352 $446 0 #
vertex $-1 $353 $447 #
straight-curve $-1 60 -50 0 0 0 -1 I I #
face $-1 $448 $449 $2 $-1 $450 reversed single #
point $-1 80 0 45 #
coedge $-1 $451 $441 $358 $401 1 $452 $-1 #
edge $-1 $404 $402 $400 $453 0 #
vertex $-1 $401 $454 #
coedge $-1 $363 $379 $451 $455 1 $298 $-1 #
vertex $-1 $364 $456 #
coedge $-1 $405 $405 $365 $406 1 $457 $-1 #
edge $-1 $458 $458 $365 $459 0 #
loop $-1 $-1 $366 $370 #
vertex $-1 $367 $460 #
ellipse-curve $-1 -45 -35 45 0 0 -1 10 0 0 1 I I #
face $-1 $461 $462 $2 $-1 $463 reversed single #
loop $-1 $407 $464 $370 #
cone-surface $-1 -45 -35 0 0 0 1 10 0 0 1 I I 0 1 0 I I I I #
coedge $-1 $382 $465 $372 $414 1 $429 $-1 #
edge $-1 $430 $418 $372 $431 0 #
coedge $-1 $466 $373 $465 $467 1 $417 $-1 #
coedge $-1 $373 $466 $375 $421 1 $417 $-1 #
loop $-1 $-1 $415 $448 #
vertex $-1 $414 $468 #
ellipse-curve $-1 70 30 45 0 0 -1 10 0 0 1 I I #
coedge $-1 $376 $375 $469 $470 1 $377 $-1 #
edge $-1 $378 $471 $375 $472 0 #
face $-1 $473 $377 $2 $-1 $440 reversed single #
point $-1 60 30 45 #
coedge $-1 $469 $443 $379 $425 0 $444 $-1 #
edge $-1 $474 $426 $379 $475 0 #
vertex $-1 $470 $476 #
straight-curve $-1 60 50 0 0 0 -1 I I #
coedge $-1 $477 $382 $385 $433 0 $429 $-1 #
loop $-1 $-1 $465 $478 #
vertex $-1 $383 $479 #
ellipse-curve $-1 70 0 45 0 0 1 20 0 0 1 I I #
coedge $-1 $385 $384 $480 $481 1 $386 $-1 #
edge $-1 $387 $482 $428 $483 0 #
face $-1 $478 $386 $2 $-1 $484 reversed single #
point $-1 70 -20 45 #
coedge $-1 $394 $480 $389 $437 0 $444 $-1 #
edge $-1 $438 $396 $389 $485 0 #
vertex $-1 $437 $486 #
straight-curve $-1 60 -30 0 0 0 -1 I I #
plane-surface $-1 60 0 0 -1 0 0 0 0 1 0 I I I I #
coedge $-1 $400 $487 $393 $442 1 $452 $-1 #
edge $-1 $402 $445 $441 $488 0 #
coedge $-1 $424 $394 $487 $489 0 $444 $-1 #
loop $-1 $490 $436 $410 #
vertex $-1 $489 $491 #
straight-curve $-1 0 -50 -45 -1 0 0 I I #
point $-1 60 -50 -45 #
face $-1 $434 $417 $2 $-1 $492 reversed single #
loop $-1 $355 $493 $398 #
cone-surface $-1 70 0 0 0 0 1 10 0 0 1 I I 0 1 0 I I I I #
coedge $-1 $487 $400 $403 $455 0 $452 $-1 #
loop $-1 $-1 $400 $473 #
straight-curve $-1 -60 0 45 0 -1 0 I I #
point $-1 -60 -50 45 #
edge $-1 $404 $474 $403 $494 0 #
point $-1 -60 50 45 #
loop $-1 $-1 $405 $461 #
vertex $-1 $406 $495 #
ellipse-curve $-1 -45 35 45 0 0 -1 10 0 0 1 I I #
point $-1 -35 -35 45 #
face $-1 $398 $496 $2 $-1 $497 reversed single #
loop $-1 $498 $499 $410 #
plane-surface $-1 0 0 -45 0 0 1 1 0 0 0 I I I I #
coedge $-1 $464 $464 $499 $500 1 $411 $-1 #
coedge $-1 $413 $501 $415 $467 0 $429 $-1 #
coedge $-1 $416 $415 $502 $503 1 $417 $-1 #
edge $-1 $504 $418 $465 $505 0 #
point $-1 70 20 45 #
coedge $-1 $502 $424 $420 $470 0 $444 $-1 #
edge $-1 $426 $471 $420 $485 0 #
vertex $-1 $470 $506 #
straight-curve $-1 60 30 0 0 0 -1 I I #
face $-1 $-1 $452 $2 $-1 $507 reversed single #
vertex $-1 $425 $508 #
straight-curve $-1 0 50 -45 1 0 0 I I #
point $-1 60 50 -45 #
coedge $-1 $501 $428 $509 $510 1 $429 $-1 #
face $-1 $391 $429 $2 $-1 $511 forward single #
point $-1 90 0 45 #
coedge $-1 $436 $509 $432 $481 0 $444 $-1 #
edge $-1 $482 $438 $480 $512 0 #
vertex $-1 $510 $513 #
straight-curve $-1 70 -20 0 0 0 -1 I I #
cone-surface $-1 70 -30 0 0 0 1 10 0 0 1 I I 0 1 0 I I I I #
straight-curve $-1 60 0 -45 0 -1 0 I I #
point $-1 60 -30 -45 #
coedge $-1 $441 $451 $443 $489 1 $452 $-1 #
straight-curve $-1 -60 -50 0 0 0 -1 I I #
edge $-1 $445 $474 $487 $514 0 #
loop $-1 $-1 $515 $410 #
point $-1 -60 -50 -45 #
cone-surface $-1 70 30 0 0 0 1 10 0 0 1 I I 0 1 0 I I I I #
coedge $-1 $493 $493 $516 $517 1 $449 $-1 #
straight-curve $-1 -60 50 0 0 0 -1 I I #
point $-1 -35 35 45 #
loop $-1 $457 $518 $461 #
cone-surface $-1 -45 35 0 0 0 1 10 0 0 1 I I 0 1 0 I I I I #
loop $-1 $444 $516 $410 #
coedge $-1 $499 $499 $464 $500 0 $462 $-1 #
edge $-1 $519 $519 $499 $520 0 #
coedge $-1 $465 $477 $521 $522 1 $429 $-1 #
coedge $-1 $521 $469 $466 $503 0 $444 $-1 #
edge $-1 $471 $504 $502 $523 0 #
vertex $-1 $522 $524 #
straight-curve $-1 70 20 0 0 0 1 I I #
point $-1 60 30 -45 #
plane-surface $-1 -60 0 0 1 0 0 0 0 -1 0 I I I I #
point $-1 -60 50 -45 #
coedge $-1 $480 $521 $477 $510 0 $444 $-1 #
edge $-1 $525 $482 $509 $526 0 #
cone-surface $-1 70 0 0 0 0 1 20 0 0 1 I I 0 1 0 I I I I #
ellipse-curve $-1 70 -30 -45 0 0 1 10 0 0 1 I I #
point $-1 70 -20 -45 #
straight-curve $-1 -60 0 -45 0 1 0 I I #
coedge $-1 $515 $515 $518 $527 0 $490 $-1 #
coedge $-1 $516 $516 $493 $517 0 $498 $-1 #
edge $-1 $528 $528 $516 $529 0 #
coedge $-1 $518 $518 $515 $527 1 $496 $-1 #
vertex $-1 $500 $530 #
ellipse-curve $-1 -45 -35 -45 0 0 1 10 0 0 1 I I #
coedge $-1 $509 $502 $501 $522 0 $444 $-1 #
edge $-1 $504 $525 $521 $526 0 #
ellipse-curve $-1 70 30 -45 0 0 1 10 0 0 1 I I #
point $-1 70 20 -45 #
vertex $-1 $522 $531 #
ellipse-curve $-1 70 0 -45 0 0 -1 20 0 0 1 I I #
edge $-1 $532 $532 $515 $533 0 #
vertex $-1 $517 $534 #
ellipse-curve $-1 70 0 -45 0 0 1 10 0 0 1 I I #
point $-1 -35 -35 -45 #
point $-1 90 0 -45 #
vertex $-1 $527 $535 #
ellipse-curve $-1 -45 35 -45 0 0 1 10 0 0 1 I I #
point $-1 80 0 -45 #
point $-1 -35 35 -45 #
End-of-ACIS-data 