106 0 1 0           
-0 body $-1 $1 $-1 $-1 #
-1 lump $-1 $-1 $2 $0 #
-2 shell $-1 $-1 $-1 $3 $1 #
-3 face $-1 $4 $5 $2 $-1 $6 forward single #
-4 face $-1 $7 $8 $2 $-1 $9 forward single #
-5 loop $-1 $-1 $10 $3 #
-6 cone-surface $-1 0.40699999999999997 1.8140000000000001 0 0 0 -1 0.014999999999999999 0 0 1 I I 0 1 0 I I I I #
-7 face $-1 $11 $12 $2 $-1 $13 forward single #
-8 loop $-1 $-1 $14 $4 #
-9 cone-surface $-1 1.155 1.8140000000000001 0.28599999999999998 0 0 1 0.014999999999999999 0 0 1 I I 0 1 0 I I I I #
-10 coedge $-1 $15 $16 $17 $18 0 $5 $-1 #
-11 face $-1 $19 $20 $2 $-1 $21 forward single #
-12 loop $-1 $-1 $22 $7 #
-13 plane-surface $-1 0.42200000000000004 1.6967500000000002 0.28599999999999998 1 3.2276086881666595e-017 0 0 0 -1 0 I I I I #
-14 coedge $-1 $23 $24 $25 $26 0 $8 $-1 #
-15 coedge $-1 $27 $10 $28 $29 0 $5 $-1 #
-16 coedge $-1 $10 $27 $30 $31 0 $5 $-1 #
-17 coedge $-1 $32 $33 $10 $18 1 $20 $-1 #
-18 edge $-1 $34 $35 $10 $36 1 #
-19 face $-1 $37 $38 $2 $-1 $39 forward single #
-20 loop $-1 $-1 $40 $11 #
-21 plane-surface $-1 0.78100000000000014 0.8145 0.070000000000000007 0 0 1 1 0 0 0 I I I I #
-22 coedge $-1 $28 $41 $42 $43 0 $12 $-1 #
-23 coedge $-1 $44 $14 $45 $46 0 $8 $-1 #
-24 coedge $-1 $14 $44 $47 $48 0 $8 $-1 #
-25 coedge $-1 $49 $40 $14 $26 1 $20 $-1 #
-26 edge $-1 $50 $51 $14 $52 1 #
-27 coedge $-1 $16 $15 $53 $54 0 $5 $-1 #
-28 coedge $-1 $55 $22 $15 $29 1 $12 $-1 #
-29 edge $-1 $35 $56 $15 $57 1 #
-30 coedge $-1 $58 $59 $16 $31 1 $38 $-1 #
-31 edge $-1 $60 $34 $16 $61 1 #
-32 coedge $-1 $62 $17 $59 $63 0 $20 $-1 #
-33 coedge $-1 $17 $64 $55 $65 1 $20 $-1 #
-34 vertex $-1 $18 $66 #
-35 vertex $-1 $18 $67 #
-36 ellipse-curve $-1 0.40699999999999997 1.8140000000000001 0.070000000000000007 0 0 1 0.014999999999999999 0 0 1 I I #
-37 face $-1 $68 $69 $2 $-1 $70 forward single #
-38 loop $-1 $-1 $58 $19 #
-39 plane-surface $-1 0.78100000000000014 1.8290000000000002 0 0 1 0 0 0 1 0 I I I I #
-40 coedge $-1 $25 $71 $72 $73 0 $20 $-1 #
-41 coedge $-1 $22 $74 $75 $76 0 $12 $-1 #
-42 coedge $-1 $77 $53 $22 $43 1 $78 $-1 #
-43 edge $-1 $79 $56 $22 $80 1 #
-44 coedge $-1 $24 $23 $81 $82 0 $8 $-1 #
-45 coedge $-1 $72 $58 $23 $46 1 $38 $-1 #
-46 edge $-1 $51 $83 $23 $84 1 #
-47 coedge $-1 $85 $86 $24 $48 1 $87 $-1 #
-48 edge $-1 $88 $50 $24 $89 1 #
-49 coedge $-1 $90 $25 $86 $91 0 $20 $-1 #
-50 vertex $-1 $26 $92 #
-51 vertex $-1 $26 $93 #
-52 ellipse-curve $-1 1.155 1.8140000000000001 0.070000000000000007 0 0 1 0.014999999999999999 0 0 1 I I #
-53 coedge $-1 $42 $94 $27 $54 1 $78 $-1 #
-54 edge $-1 $56 $60 $27 $95 1 #
-55 coedge $-1 $96 $28 $33 $65 0 $12 $-1 #
-56 vertex $-1 $29 $97 #
-57 straight-curve $-1 0.42200000000000004 1.8140000000000001 0.059000000000000004 0 0 1 I I #
-58 coedge $-1 $45 $30 $94 $98 0 $38 $-1 #
-59 coedge $-1 $30 $99 $32 $63 1 $38 $-1 #
-60 vertex $-1 $54 $100 #
-61 straight-curve $-1 0.40699999999999997 1.8290000000000002 0.070000000000000007 0 0 -1 I I #
-62 coedge $-1 $101 $32 $102 $103 0 $20 $-1 #
-63 edge $-1 $34 $104 $32 $105 1 #
-64 coedge $-1 $33 $106 $107 $108 0 $20 $-1 #
-65 edge $-1 $35 $109 $55 $110 1 #
-66 point $-1 0.40699999999999997 1.8290000000000002 0.070000000000000007 #
-67 point $-1 0.42200000000000004 1.8140000000000001 0.070000000000000007 #
-68 face $-1 $111 $112 $2 $-1 $113 forward single #
-69 loop $-1 $-1 $114 $37 #
-70 cone-surface $-1 1.4570000000000001 1.2614999999999998 0.070000000000000007 0 0 1 0.0050000000000000001 0 0 1 I I 0 1 0 I I I I #
-71 coedge $-1 $40 $115 $116 $117 0 $20 $-1 #
-72 coedge $-1 $118 $45 $40 $73 1 $38 $-1 #
-73 edge $-1 $119 $51 $40 $120 1 #
-74 coedge $-1 $41 $96 $121 $122 0 $12 $-1 #
-75 coedge $-1 $123 $124 $41 $76 1 $125 $-1 #
-76 edge $-1 $126 $79 $41 $127 0 #
-77 coedge $-1 $128 $42 $124 $129 1 $78 $-1 #
-78 loop $-1 $-1 $94 $130 #
-79 vertex $-1 $43 $131 #
-80 straight-curve $-1 0.42200000000000004 1.8140000000000001 0.059000000000000004 0 -1 0 I I #
-81 coedge $-1 $94 $132 $44 $82 1 $78 $-1 #
-82 edge $-1 $83 $88 $44 $133 1 #
-83 vertex $-1 $46 $134 #
-84 straight-curve $-1 1.155 1.8290000000000002 0.059000000000000004 0 0 1 I I #
-85 coedge $-1 $135 $47 $132 $136 0 $87 $-1 #
-86 coedge $-1 $47 $137 $49 $91 1 $87 $-1 #
-87 loop $-1 $-1 $86 $138 #
-88 vertex $-1 $82 $139 #
-89 straight-curve $-1 1.1399999999999999 1.8140000000000001 0.070000000000000007 0 0 -1 I I #
-90 coedge $-1 $140 $49 $141 $142 0 $20 $-1 #
-91 edge $-1 $50 $143 $49 $144 1 #
-92 point $-1 1.1399999999999999 1.8140000000000001 0.070000000000000007 #
-93 point $-1 1.155 1.8290000000000002 0.070000000000000007 #
-94 coedge $-1 $53 $81 $58 $98 1 $78 $-1 #
-95 ellipse-curve $-1 0.40699999999999997 1.8140000000000001 0.059000000000000004 0 0 -1 0.014999999999999999 0 0 1 I I #
-96 coedge $-1 $74 $55 $145 $146 0 $12 $-1 #
-97 point $-1 0.42200000000000004 1.8140000000000001 0.059000000000000004 #
-98 edge $-1 $60 $83 $58 $147 1 #
-99 coedge $-1 $59 $148 $149 $150 0 $38 $-1 #
-100 point $-1 0.40699999999999997 1.8290000000000002 0.059000000000000004 #
-101 coedge $-1 $151 $62 $152 $153 0 $20 $-1 #
-102 coedge $-1 $149 $154 $62 $103 1 $155 $-1 #
-103 edge $-1 $104 $156 $62 $157 0 #
-104 vertex $-1 $63 $158 #
-105 straight-curve $-1 0.25 1.8290000000000002 0.070000000000000007 1 0 0 I I #
-106 coedge $-1 $64 $159 $160 $161 0 $20 $-1 #
-107 coedge $-1 $162 $145 $64 $108 1 $163 $-1 #
-108 edge $-1 $164 $109 $64 $165 0 #
-109 vertex $-1 $65 $166 #
-110 straight-curve $-1 0.42200000000000004 1.724 0.070000000000000007 0 1 0 I I #
-111 face $-1 $167 $168 $2 $-1 $169 forward single #
-112 loop $-1 $-1 $170 $68 #
-113 cone-surface $-1 1.4570000000000001 0.52350000000000008 0.070000000000000007 0 0 1 0.0050000000000000001 0 0 1 I I 0 1 0 I I I I #
-114 coedge $-1 $171 $172 $173 $174 0 $69 $-1 #
-115 coedge $-1 $71 $175 $176 $177 0 $20 $-1 #
-116 coedge $-1 $178 $179 $71 $117 1 $180 $-1 #
-117 edge $-1 $181 $119 $71 $182 0 #
-118 coedge $-1 $148 $72 $179 $183 0 $38 $-1 #
-119 vertex $-1 $73 $184 #
-120 straight-curve $-1 1.155 1.8290000000000002 0.070000000000000007 1 0 0 I I #
-121 coedge $-1 $185 $186 $74 $122 1 $187 $-1 #
-122 edge $-1 $188 $126 $74 $189 0 #
-123 coedge $-1 $190 $75 $186 $191 1 $125 $-1 #
-124 coedge $-1 $75 $190 $77 $129 0 $125 $-1 #
-125 loop $-1 $-1 $75 $192 #
-126 vertex $-1 $122 $193 #
-127 straight-curve $-1 0.42200000000000004 1.5645 0.28599999999999998 0 0 -1 I I #
-128 coedge $-1 $194 $77 $195 $196 1 $78 $-1 #
-129 edge $-1 $197 $79 $124 $198 0 #
-130 face $-1 $199 $78 $2 $-1 $200 forward single #
-131 point $-1 0.42200000000000004 1.5645 0.059000000000000004 #
-132 coedge $-1 $81 $201 $85 $136 1 $78 $-1 #
-133 ellipse-curve $-1 1.155 1.8140000000000001 0.059000000000000004 0 0 -1 0.014999999999999999 0 0 1 I I #
-134 point $-1 1.155 1.8290000000000002 0.059000000000000004 #
-135 coedge $-1 $202 $85 $203 $204 1 $87 $-1 #
-136 edge $-1 $88 $205 $85 $206 0 #
-137 coedge $-1 $86 $202 $207 $208 1 $87 $-1 #
-138 face $-1 $130 $87 $2 $-1 $209 reversed single #
-139 point $-1 1.1399999999999999 1.8140000000000001 0.059000000000000004 #
-140 coedge $-1 $210 $90 $211 $212 0 $20 $-1 #
-141 coedge $-1 $207 $213 $90 $142 1 $214 $-1 #
-142 edge $-1 $143 $215 $90 $216 0 #
-143 vertex $-1 $91 $217 #
-144 straight-curve $-1 1.1399999999999999 1.724 0.070000000000000007 0 1 0 I I #
-145 coedge $-1 $107 $218 $96 $146 1 $163 $-1 #
-146 edge $-1 $109 $188 $96 $219 0 #
-147 straight-curve $-1 1.155 1.8290000000000002 0.059000000000000004 -1 0 0 I I #
-148 coedge $-1 $99 $118 $220 $221 0 $38 $-1 #
-149 coedge $-1 $222 $102 $99 $150 1 $155 $-1 #
-150 edge $-1 $223 $104 $99 $224 0 #
-151 coedge $-1 $225 $101 $226 $227 0 $20 $-1 #
-152 coedge $-1 $228 $229 $101 $153 1 $230 $-1 #
-153 edge $-1 $156 $231 $101 $232 1 #
-154 coedge $-1 $102 $222 $228 $233 0 $155 $-1 #
-155 loop $-1 $-1 $222 $234 #
-156 vertex $-1 $103 $235 #
-157 ellipse-curve $-1 0.25 1.579 0.070000000000000007 0 0 1 0.25 0 0 1 I I #
-158 point $-1 0.25 1.8290000000000002 0.070000000000000007 #
-159 coedge $-1 $106 $236 $237 $238 0 $20 $-1 #
-160 coedge $-1 $239 $240 $106 $161 1 $241 $-1 #
-161 edge $-1 $242 $164 $106 $243 1 #
-162 coedge $-1 $218 $107 $240 $244 0 $163 $-1 #
-163 loop $-1 $-1 $218 $245 #
-164 vertex $-1 $161 $246 #
-165 ellipse-curve $-1 0.41700000000000004 1.724 0.070000000000000007 0 0 -1 0.0050000000000000001 0 0 1 I I #
-166 point $-1 0.42200000000000004 1.724 0.070000000000000007 #
-167 face $-1 $247 $248 $2 $-1 $249 forward single #
-168 loop $-1 $250 $251 $111 #
-169 plane-surface $-1 0.78100000000000014 0.91450000000000009 0.28599999999999998 0 0 1 1 0 0 0 I I I I #
-170 coedge $-1 $252 $253 $254 $255 0 $112 $-1 #
-171 coedge $-1 $256 $114 $257 $258 0 $69 $-1 #
-172 coedge $-1 $114 $256 $259 $260 0 $69 $-1 #
-173 coedge $-1 $261 $262 $114 $174 1 $263 $-1 #
-174 edge $-1 $264 $265 $114 $266 1 #
-175 coedge $-1 $115 $225 $267 $268 0 $20 $-1 #
-176 coedge $-1 $269 $270 $115 $177 1 $271 $-1 #
-177 edge $-1 $272 $181 $115 $273 1 #
-178 coedge $-1 $274 $116 $270 $275 0 $180 $-1 #
-179 coedge $-1 $116 $274 $118 $183 1 $180 $-1 #
-180 loop $-1 $-1 $274 $276 #
-181 vertex $-1 $177 $277 #
-182 ellipse-curve $-1 1.3120000000000001 1.579 0.070000000000000007 0 0 1 0.25 0 0 1 I I #
-183 edge $-1 $119 $278 $118 $279 0 #
-184 point $-1 1.3120000000000001 1.8290000000000002 0.070000000000000007 #
-185 coedge $-1 $280 $121 $218 $281 0 $187 $-1 #
-186 coedge $-1 $121 $282 $123 $191 0 $187 $-1 #
-187 loop $-1 $-1 $283 $247 #
-188 vertex $-1 $146 $284 #
-189 straight-curve $-1 0.42200000000000004 1.724 0.28599999999999998 0 -1 0 I I #
-190 coedge $-1 $124 $123 $285 $286 0 $125 $-1 #
-191 edge $-1 $287 $126 $186 $288 0 #
-192 face $-1 $289 $125 $2 $-1 $290 forward single #
-193 point $-1 0.42200000000000004 1.5645 0.28599999999999998 #
-194 coedge $-1 $291 $128 $292 $293 1 $78 $-1 #
-195 coedge $-1 $285 $294 $128 $196 0 $295 $-1 #
-196 edge $-1 $296 $197 $195 $297 0 #
-197 vertex $-1 $286 $298 #
-198 ellipse-curve $-1 0.26900000000000002 1.5645 0.059000000000000004 0 0 1 0.153 0 0 1 I I #
-199 face $-1 $299 $300 $2 $-1 $301 reversed single #
-200 plane-surface $-1 0.26900000000000002 1.5645 0.059000000000000004 0 0 1 1 0 0 0 I I I I #
-201 coedge $-1 $132 $302 $303 $304 1 $78 $-1 #
-202 coedge $-1 $137 $135 $305 $306 1 $87 $-1 #
-203 coedge $-1 $303 $307 $135 $204 0 $308 $-1 #
-204 edge $-1 $309 $205 $203 $310 0 #
-205 vertex $-1 $204 $311 #
-206 straight-curve $-1 1.1399999999999999 1.8140000000000001 0.059000000000000004 0 -1 0 I I #
-207 coedge $-1 $312 $141 $137 $208 0 $214 $-1 #
-208 edge $-1 $143 $313 $207 $314 1 #
-209 plane-surface $-1 1.1399999999999999 1.6967500000000002 0.28599999999999998 1 0 0 0 0 -1 0 I I I I #
-210 coedge $-1 $315 $140 $316 $317 0 $20 $-1 #
-211 coedge $-1 $318 $319 $140 $212 1 $320 $-1 #
-212 edge $-1 $215 $321 $140 $322 1 #
-213 coedge $-1 $141 $312 $318 $323 0 $214 $-1 #
-214 loop $-1 $-1 $312 $324 #
-215 vertex $-1 $142 $325 #
-216 ellipse-curve $-1 1.145 1.724 0.070000000000000007 0 0 -1 0.0050000000000000001 0 0 1 I I #
-217 point $-1 1.1399999999999999 1.724 0.070000000000000007 #
-218 coedge $-1 $145 $162 $185 $281 1 $163 $-1 #
-219 straight-curve $-1 0.42200000000000004 1.724 0.070000000000000007 0 0 1 I I #
-220 coedge $-1 $326 $327 $148 $221 1 $328 $-1 #
-221 edge $-1 $278 $223 $148 $329 0 #
-222 coedge $-1 $154 $149 $327 $330 0 $155 $-1 #
-223 vertex $-1 $221 $331 #
-224 straight-curve $-1 0.25 1.8290000000000002 0 0 0 1 I I #
-225 coedge $-1 $175 $151 $332 $333 0 $20 $-1 #
-226 coedge $-1 $334 $335 $151 $227 1 $336 $-1 #
-227 edge $-1 $231 $337 $151 $338 0 #
-228 coedge $-1 $339 $152 $154 $233 1 $230 $-1 #
-229 coedge $-1 $152 $339 $334 $340 1 $230 $-1 #
-230 loop $-1 $-1 $152 $341 #
-231 vertex $-1 $153 $342 #
-232 straight-curve $-1 0 0.25 0.070000000000000007 0 1 0 I I #
-233 edge $-1 $343 $156 $154 $344 1 #
-234 face $-1 $345 $155 $2 $-1 $346 forward single #
-235 point $-1 0 1.579 0.070000000000000007 #
-236 coedge $-1 $159 $347 $348 $349 0 $20 $-1 #
-237 coedge $-1 $350 $351 $159 $238 1 $352 $-1 #
-238 edge $-1 $353 $242 $159 $354 0 #
-239 coedge $-1 $355 $160 $351 $356 0 $241 $-1 #
-240 coedge $-1 $160 $355 $162 $244 1 $241 $-1 #
-241 loop $-1 $-1 $355 $357 #
-242 vertex $-1 $238 $358 #
-243 straight-curve $-1 0.41700000000000004 1.7290000000000001 0.070000000000000007 -1 0 0 I I #
-244 edge $-1 $164 $359 $162 $360 1 #
-245 face $-1 $361 $163 $2 $-1 $362 forward single #
-246 point $-1 0.41700000000000004 1.7290000000000001 0.070000000000000007 #
-247 face $-1 $363 $364 $2 $-1 $365 forward single #
-248 loop $-1 $-1 $366 $167 #
-249 plane-surface $-1 1.50510257414212 0.52850000000000008 0.38600000000000001 -1.5004237628473348e-016 1 0 0 0 1 0 I I I I #
-250 loop $-1 $-1 $367 $111 #
-251 coedge $-1 $251 $251 $368 $369 0 $168 $-1 #
-252 coedge $-1 $370 $170 $371 $372 0 $112 $-1 #
-253 coedge $-1 $170 $370 $373 $374 0 $112 $-1 #
-254 coedge $-1 $262 $375 $170 $255 1 $263 $-1 #
-255 edge $-1 $376 $377 $170 $378 1 #
-256 coedge $-1 $172 $171 $379 $380 0 $69 $-1 #
-257 coedge $-1 $381 $382 $171 $258 1 $383 $-1 #
-258 edge $-1 $265 $384 $171 $385 1 #
-259 coedge $-1 $386 $387 $172 $260 1 $388 $-1 #
-260 edge $-1 $389 $264 $172 $390 1 #
-261 coedge $-1 $391 $173 $387 $392 1 $263 $-1 #
-262 coedge $-1 $173 $254 $381 $393 1 $263 $-1 #
-263 loop $-1 $-1 $261 $394 #
-264 vertex $-1 $174 $395 #
-265 vertex $-1 $174 $396 #
-266 ellipse-curve $-1 1.4570000000000001 1.2614999999999998 0.13300000000000001 0 0 -1 0.0050000000000000001 0 0 1 I I #
-267 coedge $-1 $397 $398 $175 $268 1 $399 $-1 #
-268 edge $-1 $400 $272 $175 $401 0 #
-269 coedge $-1 $402 $176 $398 $403 1 $271 $-1 #
-270 coedge $-1 $176 $402 $178 $275 1 $271 $-1 #
-271 loop $-1 $-1 $402 $404 #
-272 vertex $-1 $268 $405 #
-273 straight-curve $-1 1.5620000000000003 1.579 0.070000000000000007 0 -1 0 I I #
-274 coedge $-1 $179 $178 $326 $406 0 $180 $-1 #
-275 edge $-1 $181 $407 $178 $408 1 #
-276 face $-1 $234 $180 $2 $-1 $409 forward single #
-277 point $-1 1.5620000000000003 1.579 0.070000000000000007 #
-278 vertex $-1 $183 $410 #
-279 straight-curve $-1 1.3120000000000001 1.8290000000000002 0.070000000000000007 0 0 -1 I I #
-280 coedge $-1 $411 $185 $355 $412 0 $187 $-1 #
-281 edge $-1 $188 $359 $185 $413 0 #
-282 coedge $-1 $186 $414 $415 $416 0 $187 $-1 #
-283 coedge $-1 $417 $418 $419 $420 0 $187 $-1 #
-284 point $-1 0.42200000000000004 1.724 0.28599999999999998 #
-285 coedge $-1 $415 $195 $190 $286 1 $295 $-1 #
-286 edge $-1 $287 $197 $190 $421 0 #
-287 vertex $-1 $416 $422 #
-288 ellipse-curve $-1 0.26900000000000002 1.5645 0.28599999999999998 0 0 1 0.153 0 0 1 I I #
-289 face $-1 $423 $295 $2 $-1 $424 reversed single #
-290 cone-surface $-1 0.26900000000000002 1.5645 0.28599999999999998 0 0 -1 0.153 0 0 1 I I 0 1 0 I I I I #
-291 coedge $-1 $425 $194 $426 $427 1 $78 $-1 #
-292 coedge $-1 $428 $429 $194 $293 0 $430 $-1 #
-293 edge $-1 $431 $296 $292 $432 1 #
-294 coedge $-1 $195 $415 $428 $433 0 $295 $-1 #
-295 loop $-1 $-1 $285 $289 #
-296 vertex $-1 $433 $434 #
-297 straight-curve $-1 0.2221648419466071 1.3014953080834606 0.059000000000000004 0.70757490107287069 0.70663835118943075 0 I I #
-298 point $-1 0.37711566773198307 1.4562410401358505 0.059000000000000004 #
-299 face $-1 $435 $436 $2 $-1 $437 reversed single #
-300 loop $-1 $-1 $438 $199 #
-301 plane-surface $-1 1.302 0.28249999999999997 0.13600000000000001 0 0 -1 -1 0 0 0 I I I I #
-302 coedge $-1 $201 $439 $440 $441 1 $78 $-1 #
-303 coedge $-1 $442 $203 $201 $304 0 $308 $-1 #
-304 edge $-1 $205 $443 $303 $444 0 #
-305 coedge $-1 $445 $446 $202 $306 0 $250 $-1 #
-306 edge $-1 $313 $309 $305 $447 0 #
-307 coedge $-1 $203 $442 $445 $448 1 $308 $-1 #
-308 loop $-1 $-1 $442 $449 #
-309 vertex $-1 $306 $450 #
-310 straight-curve $-1 1.1399999999999999 1.5645 0.28599999999999998 0 0 -1 I I #
-311 point $-1 1.1399999999999999 1.5645 0.059000000000000004 #
-312 coedge $-1 $213 $207 $446 $451 1 $214 $-1 #
-313 vertex $-1 $451 $452 #
-314 straight-curve $-1 1.1399999999999999 1.724 0.28599999999999998 0 0 -1 I I #
-315 coedge $-1 $453 $210 $454 $455 0 $20 $-1 #
-316 coedge $-1 $456 $457 $210 $317 1 $458 $-1 #
-317 edge $-1 $321 $459 $210 $460 1 #
-318 coedge $-1 $461 $211 $213 $323 1 $320 $-1 #
-319 coedge $-1 $211 $461 $456 $462 0 $320 $-1 #
-320 loop $-1 $-1 $211 $361 #
-321 vertex $-1 $212 $463 #
-322 straight-curve $-1 1.2989999999999999 1.7290000000000001 0.070000000000000007 -1 0 0 I I #
-323 edge $-1 $464 $215 $213 $465 1 #
-324 face $-1 $245 $214 $2 $-1 $466 forward single #
-325 point $-1 1.145 1.7290000000000001 0.070000000000000007 #
-326 coedge $-1 $467 $220 $274 $406 1 $328 $-1 #
-327 coedge $-1 $220 $468 $222 $330 1 $328 $-1 #
-328 loop $-1 $-1 $468 $469 #
-329 straight-curve $-1 1.3120000000000001 1.8290000000000002 0 -1 0 0 I I #
-330 edge $-1 $223 $343 $222 $470 1 #
-331 point $-1 0.25 1.8290000000000002 0 #
-332 coedge $-1 $471 $472 $225 $333 1 $473 $-1 #
-333 edge $-1 $337 $400 $225 $474 1 #
-334 coedge $-1 $475 $226 $229 $340 0 $336 $-1 #
-335 coedge $-1 $226 $475 $471 $476 0 $336 $-1 #
-336 loop $-1 $-1 $475 $477 #
-337 vertex $-1 $227 $478 #
-338 ellipse-curve $-1 0.25 0.25 0.070000000000000007 0 0 1 0.25 0 0 1 I I #
-339 coedge $-1 $229 $228 $468 $479 1 $230 $-1 #
-340 edge $-1 $231 $480 $334 $481 1 #
-341 face $-1 $482 $230 $2 $-1 $483 forward single #
-342 point $-1 0 0.25 0.070000000000000007 #
-343 vertex $-1 $330 $484 #
-344 straight-curve $-1 0 1.579 0.070000000000000007 0 0 -1 I I #
-345 face $-1 $404 $473 $2 $-1 $485 forward single #
-346 cone-surface $-1 0.25 1.579 0 0 0 1 0.25 0 0 1 I I 0 1 0 I I I I #
-347 coedge $-1 $236 $486 $487 $488 0 $20 $-1 #
-348 coedge $-1 $489 $490 $236 $349 1 $491 $-1 #
-349 edge $-1 $492 $353 $236 $493 1 #
-350 coedge $-1 $494 $237 $490 $495 0 $352 $-1 #
-351 coedge $-1 $237 $494 $239 $356 1 $352 $-1 #
-352 loop $-1 $-1 $237 $496 #
-353 vertex $-1 $349 $497 #
-354 ellipse-curve $-1 0.26300000000000001 1.5660000000000003 0.070000000000000007 0 0 -1 0.16300000000000001 0 0 1 I I #
-355 coedge $-1 $240 $239 $280 $412 1 $241 $-1 #
-356 edge $-1 $242 $498 $239 $499 0 #
-357 face $-1 $192 $241 $2 $-1 $500 forward single #
-358 point $-1 0.26300000000000001 1.7290000000000001 0.070000000000000007 #
-359 vertex $-1 $281 $501 #
-360 straight-curve $-1 0.41700000000000004 1.7290000000000001 0.28599999999999998 0 0 -1 I I #
-361 face $-1 $357 $320 $2 $-1 $502 forward single #
-362 cone-surface $-1 0.41700000000000004 1.724 0.28599999999999998 0 0 -1 0.0050000000000000001 0 0 1 I I 0 1 0 I I I I #
-363 face $-1 $503 $383 $2 $-1 $504 forward single #
-364 loop $-1 $505 $506 $247 #
-365 plane-surface $-1 0.78100000000000014 0.91450000000000009 0.28599999999999998 0 0 1 1 0 0 0 I I I I #
-366 coedge $-1 $371 $507 $508 $509 0 $248 $-1 #
-367 coedge $-1 $379 $510 $386 $511 0 $250 $-1 #
-368 coedge $-1 $368 $368 $251 $369 1 $512 $-1 #
-369 edge $-1 $513 $513 $251 $514 1 #
-370 coedge $-1 $253 $252 $417 $515 0 $112 $-1 #
-371 coedge $-1 $516 $366 $252 $372 1 $248 $-1 #
-372 edge $-1 $377 $517 $252 $518 1 #
-373 coedge $-1 $419 $381 $253 $374 1 $383 $-1 #
-374 edge $-1 $519 $376 $253 $520 1 #
-375 coedge $-1 $254 $521 $516 $522 1 $263 $-1 #
-376 vertex $-1 $255 $523 #
-377 vertex $-1 $255 $524 #
-378 ellipse-curve $-1 1.4570000000000001 0.52350000000000008 0.13300000000000001 0 0 -1 0.0050000000000000001 0 0 1 I I #
-379 coedge $-1 $525 $367 $256 $380 1 $250 $-1 #
-380 edge $-1 $384 $389 $256 $526 1 #
-381 coedge $-1 $373 $257 $262 $393 0 $383 $-1 #
-382 coedge $-1 $257 $527 $525 $528 1 $383 $-1 #
-383 loop $-1 $-1 $381 $363 #
-384 vertex $-1 $258 $529 #
-385 straight-curve $-1 1.4620000000000002 1.2614999999999998 0.28599999999999998 0 0 -1 I I #
-386 coedge $-1 $530 $259 $367 $511 1 $388 $-1 #
-387 coedge $-1 $259 $530 $261 $392 0 $388 $-1 #
-388 loop $-1 $-1 $387 $531 #
-389 vertex $-1 $380 $532 #
-390 straight-curve $-1 1.4570000000000001 1.2565000000000002 0.13300000000000001 0 0 1 I I #
-391 coedge $-1 $533 $261 $534 $535 1 $263 $-1 #
-392 edge $-1 $536 $264 $387 $537 0 #
-393 edge $-1 $265 $376 $381 $538 0 #
-394 face $-1 $539 $263 $2 $-1 $540 forward single #
-395 point $-1 1.4570000000000001 1.2565000000000002 0.13300000000000001 #
-396 point $-1 1.4620000000000002 1.2614999999999998 0.13300000000000001 #
-397 coedge $-1 $541 $267 $472 $542 0 $399 $-1 #
-398 coedge $-1 $267 $541 $269 $403 0 $399 $-1 #
-399 loop $-1 $-1 $541 $543 #
-400 vertex $-1 $333 $544 #
-401 ellipse-curve $-1 1.3120000000000001 0.25 0.070000000000000007 0 0 1 0.25 0 0 1 I I #
-402 coedge $-1 $270 $269 $467 $545 0 $271 $-1 #
-403 edge $-1 $546 $272 $398 $547 1 #
-404 face $-1 $469 $271 $2 $-1 $548 forward single #
-405 point $-1 1.5620000000000003 0.25 0.070000000000000007 #
-406 edge $-1 $407 $278 $274 $549 1 #
-407 vertex $-1 $406 $550 #
-408 straight-curve $-1 1.5620000000000003 1.579 0 0 0 1 I I #
-409 cone-surface $-1 1.3120000000000001 1.579 0 0 0 -1 0.25 0 0 1 I I 0 1 0 I I I I #
-410 point $-1 1.3120000000000001 1.8290000000000002 0 #
-411 coedge $-1 $551 $280 $494 $552 0 $187 $-1 #
-412 edge $-1 $359 $498 $280 $553 1 #
-413 ellipse-curve $-1 0.41700000000000004 1.724 0.28599999999999998 0 0 1 0.0050000000000000001 0 0 1 I I #
-414 coedge $-1 $282 $554 $555 $556 0 $187 $-1 #
-415 coedge $-1 $294 $285 $282 $416 1 $295 $-1 #
-416 edge $-1 $557 $287 $282 $558 0 #
-417 coedge $-1 $508 $283 $370 $515 1 $187 $-1 #
-418 coedge $-1 $283 $559 $560 $561 0 $187 $-1 #
-419 coedge $-1 $562 $373 $283 $420 1 $383 $-1 #
-420 edge $-1 $563 $519 $283 $564 1 #
-421 straight-curve $-1 0.37711566773198307 1.4562410401358505 0.28599999999999998 0 0 -1 I I #
-422 point $-1 0.37711566773198307 1.4562410401358505 0.28599999999999998 #
-423 face $-1 $565 $430 $2 $-1 $566 reversed single #
-424 plane-surface $-1 0.29964025483929529 1.3788681741096556 0.28599999999999998 -0.70663835118943119 0.70757490107287013 0 0 0 1 0 I I I I #
-425 coedge $-1 $567 $291 $568 $569 1 $78 $-1 #
-426 coedge $-1 $570 $571 $291 $427 0 $572 $-1 #
-427 edge $-1 $573 $431 $426 $574 1 #
-428 coedge $-1 $555 $292 $294 $433 1 $430 $-1 #
-429 coedge $-1 $292 $555 $570 $575 0 $430 $-1 #
-430 loop $-1 $-1 $428 $423 #
-431 vertex $-1 $575 $576 #
-432 ellipse-curve $-1 0.34300000000000003 1.1805000000000001 0.059000000000000004 0 0 1 0.17100000000000001 0 0 1 I I #
-433 edge $-1 $557 $296 $294 $577 0 #
-434 point $-1 0.2221648419466071 1.3014953080834606 0.059000000000000004 #
-435 face $-1 $578 $579 $2 $-1 $580 reversed single #
-436 loop $-1 $581 $582 $299 #
-437 cone-surface $-1 1.302 0.28249999999999997 0.28599999999999998 0 0 -1 0.058000000000000003 0 0 1 I I 0 1 0 I I I I #
-438 coedge $-1 $438 $438 $582 $583 0 $300 $-1 #
-439 coedge $-1 $302 $584 $585 $586 1 $78 $-1 #
-440 coedge $-1 $587 $588 $302 $441 0 $589 $-1 #
-441 edge $-1 $443 $590 $440 $591 1 #
-442 coedge $-1 $307 $303 $588 $592 1 $308 $-1 #
-443 vertex $-1 $592 $593 #
-444 ellipse-curve $-1 1.2930000000000001 1.5645 0.059000000000000004 0 0 1 0.153 0 0 1 I I #
-445 coedge $-1 $594 $305 $307 $448 0 $250 $-1 #
-446 coedge $-1 $305 $595 $312 $451 0 $250 $-1 #
-447 straight-curve $-1 1.1399999999999999 1.724 0.28599999999999998 0 -1 0 I I #
-448 edge $-1 $309 $596 $445 $597 0 #
-449 face $-1 $138 $308 $2 $-1 $598 forward single #
-450 point $-1 1.1399999999999999 1.5645 0.28599999999999998 #
-451 edge $-1 $464 $313 $446 $599 0 #
-452 point $-1 1.1399999999999999 1.724 0.28599999999999998 #
-453 coedge $-1 $486 $315 $600 $601 0 $20 $-1 #
-454 coedge $-1 $527 $562 $315 $455 1 $383 $-1 #
-455 edge $-1 $459 $602 $315 $603 1 #
-456 coedge $-1 $604 $316 $319 $462 1 $458 $-1 #
-457 coedge $-1 $316 $604 $527 $605 1 $458 $-1 #
-458 loop $-1 $-1 $316 $606 #
-459 vertex $-1 $317 $607 #
-460 ellipse-curve $-1 1.2989999999999999 1.5660000000000003 0.070000000000000007 0 0 1 0.16300000000000001 0 0 1 I I #
-461 coedge $-1 $319 $318 $595 $608 1 $320 $-1 #
-462 edge $-1 $609 $321 $319 $610 0 #
-463 point $-1 1.2989999999999999 1.7290000000000001 0.070000000000000007 #
-464 vertex $-1 $608 $611 #
-465 straight-curve $-1 1.145 1.7290000000000001 0.070000000000000007 0 0 1 I I #
-466 cone-surface $-1 1.145 1.724 0.28599999999999998 0 0 -1 0.0050000000000000001 0 0 1 I I 0 1 0 I I I I #
-467 coedge $-1 $612 $326 $402 $545 1 $328 $-1 #
-468 coedge $-1 $327 $613 $339 $479 0 $328 $-1 #
-469 face $-1 $341 $328 $2 $-1 $614 forward single #
-470 ellipse-curve $-1 0.25 1.579 0 0 0 -1 0.25 0 0 1 I I #
-471 coedge $-1 $615 $332 $335 $476 1 $473 $-1 #
-472 coedge $-1 $332 $615 $397 $542 1 $473 $-1 #
-473 loop $-1 $-1 $615 $345 #
-474 straight-curve $-1 1.3120000000000001 0 0.070000000000000007 -1 0 0 I I #
-475 coedge $-1 $335 $334 $613 $616 0 $336 $-1 #
-476 edge $-1 $617 $337 $335 $618 1 #
-477 face $-1 $543 $336 $2 $-1 $619 forward single #
-478 point $-1 0.25 0 0.070000000000000007 #
-479 edge $-1 $480 $343 $468 $620 1 #
-480 vertex $-1 $616 $621 #
-481 straight-curve $-1 0 0.25 0 0 0 1 I I #
-482 face $-1 $622 $623 $2 $-1 $624 forward single #
-483 plane-surface $-1 0 0.8145 0 -1 0 0 0 0 1 0 I I I I #
-484 point $-1 0 1.579 0 #
-485 plane-surface $-1 0.78100000000000014 0 0 0 -1 0 0 0 -1 0 I I I I #
-486 coedge $-1 $347 $453 $625 $626 0 $20 $-1 #
-487 coedge $-1 $627 $628 $347 $488 1 $623 $-1 #
-488 edge $-1 $629 $492 $347 $630 1 #
-489 coedge $-1 $631 $348 $628 $632 1 $491 $-1 #
-490 coedge $-1 $348 $631 $350 $495 1 $491 $-1 #
-491 loop $-1 $-1 $631 $633 #
-492 vertex $-1 $488 $634 #
-493 straight-curve $-1 0.10000000000000001 1.5660000000000003 0.070000000000000007 0 -1 0 I I #
-494 coedge $-1 $351 $350 $411 $552 1 $352 $-1 #
-495 edge $-1 $353 $635 $350 $636 1 #
-496 face $-1 $637 $352 $2 $-1 $638 forward single #
-497 point $-1 0.10000000000000001 1.5660000000000003 0.070000000000000007 #
-498 vertex $-1 $412 $639 #
-499 straight-curve $-1 0.26300000000000001 1.7290000000000001 0.070000000000000007 0 0 1 I I #
-500 plane-surface $-1 0.78100000000000014 1.7290000000000001 0.070000000000000007 0 1 0 0 0 1 0 I I I I #
-501 point $-1 0.41700000000000004 1.7290000000000001 0.28599999999999998 #
-502 plane-surface $-1 0.78100000000000014 1.7290000000000001 0.070000000000000007 0 1 0 0 0 1 0 I I I I #
-503 face $-1 $640 $641 $2 $-1 $642 forward single #
-504 plane-surface $-1 1.4620000000000002 0.91450000000000009 0.070000000000000007 1 0 0 0 0 -1 0 I I I I #
-505 loop $-1 $643 $644 $247 #
-506 coedge $-1 $506 $506 $645 $646 0 $364 $-1 #
-507 coedge $-1 $366 $516 $647 $648 0 $248 $-1 #
-508 coedge $-1 $649 $417 $366 $509 1 $187 $-1 #
-509 edge $-1 $650 $517 $366 $651 1 #
-510 coedge $-1 $367 $652 $653 $654 0 $250 $-1 #
-511 edge $-1 $655 $389 $367 $656 1 #
-512 loop $-1 $-1 $368 $657 #
-513 vertex $-1 $369 $658 #
-514 ellipse-curve $-1 1.302 1.5685 0.28599999999999998 0 0 1 0.058000000000000003 0 0 1 I I #
-515 edge $-1 $517 $519 $370 $659 1 #
-516 coedge $-1 $507 $371 $375 $522 0 $248 $-1 #
-517 vertex $-1 $372 $660 #
-518 straight-curve $-1 1.4570000000000001 0.52850000000000008 0.28599999999999998 0 0 -1 I I #
-519 vertex $-1 $515 $661 #
-520 straight-curve $-1 1.4620000000000002 0.52350000000000008 0.13300000000000001 0 0 1 I I #
-521 coedge $-1 $375 $662 $663 $664 1 $263 $-1 #
-522 edge $-1 $377 $665 $516 $666 1 #
-523 point $-1 1.4620000000000002 0.52350000000000008 0.13300000000000001 #
-524 point $-1 1.4570000000000001 0.52850000000000008 0.13300000000000001 #
-525 coedge $-1 $667 $379 $382 $528 0 $250 $-1 #
-526 ellipse-curve $-1 1.4570000000000001 1.2614999999999998 0.28599999999999998 0 0 1 0.0050000000000000001 0 0 1 I I #
-527 coedge $-1 $382 $454 $457 $605 0 $383 $-1 #
-528 edge $-1 $384 $668 $525 $669 1 #
-529 point $-1 1.4620000000000002 1.2614999999999998 0.28599999999999998 #
-530 coedge $-1 $387 $386 $670 $671 1 $388 $-1 #
-531 face $-1 $394 $388 $2 $-1 $672 reversed single #
-532 point $-1 1.4570000000000001 1.2565000000000002 0.28599999999999998 #
-533 coedge $-1 $673 $391 $674 $675 0 $263 $-1 #
-534 coedge $-1 $670 $676 $391 $535 0 $677 $-1 #
-535 edge $-1 $678 $536 $534 $679 0 #
-536 vertex $-1 $535 $680 #
-537 straight-curve $-1 1.4482051482842382 1.2565000000000002 0.13300000000000001 1 0 0 I I #
-538 straight-curve $-1 1.4620000000000002 1.2614999999999998 0.13300000000000001 0 -1 0 I I #
-539 face $-1 $681 $682 $2 $-1 $683 reversed single #
-540 plane-surface $-1 1.4482051482842382 0.3755 0.13300000000000001 0 0 1 1 0 0 0 I I I I #
-541 coedge $-1 $398 $397 $612 $684 0 $399 $-1 #
-542 edge $-1 $400 $685 $397 $686 1 #
-543 face $-1 $276 $399 $2 $-1 $687 forward single #
-544 point $-1 1.3120000000000001 0 0.070000000000000007 #
-545 edge $-1 $546 $407 $402 $688 0 #
-546 vertex $-1 $684 $689 #
-547 straight-curve $-1 1.5620000000000003 0.25 0.070000000000000007 0 0 -1 I I #
-548 plane-surface $-1 1.5620000000000003 0.8145 0 1 0 0 0 0 -1 0 I I I I #
-549 ellipse-curve $-1 1.3120000000000001 1.579 0 0 0 -1 0.25 0 0 1 I I #
-550 point $-1 1.5620000000000003 1.579 0 #
-551 coedge $-1 $690 $411 $631 $691 0 $187 $-1 #
-552 edge $-1 $498 $635 $411 $692 0 #
-553 straight-curve $-1 0.26300000000000001 1.7290000000000001 0.28599999999999998 1 0 0 I I #
-554 coedge $-1 $414 $693 $694 $695 0 $187 $-1 #
-555 coedge $-1 $429 $428 $414 $556 1 $430 $-1 #
-556 edge $-1 $696 $557 $414 $697 1 #
-557 vertex $-1 $556 $698 #
-558 straight-curve $-1 0.2221648419466071 1.3014953080834606 0.28599999999999998 0.70757490107287069 0.70663835118943075 0 I I #
-559 coedge $-1 $418 $690 $699 $700 0 $187 $-1 #
-560 coedge $-1 $701 $702 $418 $561 1 $703 $-1 #
-561 edge $-1 $704 $563 $418 $705 0 #
-562 coedge $-1 $454 $419 $702 $706 0 $383 $-1 #
-563 vertex $-1 $420 $707 #
-564 straight-curve $-1 1.4620000000000002 0.52350000000000008 0.28599999999999998 0 -1 0 I I #
-565 face $-1 $708 $572 $2 $-1 $709 forward single #
-566 cone-surface $-1 0.34300000000000003 1.1805000000000001 0.28599999999999998 0 0 -1 0.17100000000000001 0 0 1 I I 0 1 0 I I I I #
-567 coedge $-1 $710 $425 $711 $712 1 $78 $-1 #
-568 coedge $-1 $713 $714 $425 $569 0 $715 $-1 #
-569 edge $-1 $716 $573 $568 $717 1 #
-570 coedge $-1 $694 $426 $429 $575 1 $572 $-1 #
-571 coedge $-1 $426 $694 $713 $718 0 $572 $-1 #
-572 loop $-1 $-1 $570 $565 #
-573 vertex $-1 $718 $719 #
-574 straight-curve $-1 0.17200000000000001 1.1805000000000001 0.059000000000000004 0 -1 0 I I #
-575 edge $-1 $696 $431 $429 $720 0 #
-576 point $-1 0.17200000000000001 1.1805000000000001 0.059000000000000004 #
-577 straight-curve $-1 0.2221648419466071 1.3014953080834606 0.28599999999999998 0 0 -1 I I #
-578 face $-1 $721 $722 $2 $-1 $723 reversed single #
-579 loop $-1 $-1 $724 $435 #
-580 plane-surface $-1 0.26000000000000001 0.28249999999999997 0.13600000000000001 0 0 -1 -1 0 0 0 I I I I #
-581 loop $-1 $-1 $725 $299 #
-582 coedge $-1 $582 $582 $438 $583 1 $436 $-1 #
-583 edge $-1 $726 $726 $438 $727 0 #
-584 coedge $-1 $439 $710 $728 $729 1 $78 $-1 #
-585 coedge $-1 $730 $731 $439 $586 0 $732 $-1 #
-586 edge $-1 $590 $733 $585 $734 1 #
-587 coedge $-1 $735 $440 $731 $736 1 $589 $-1 #
-588 coedge $-1 $440 $735 $442 $592 0 $589 $-1 #
-589 loop $-1 $-1 $587 $737 #
-590 vertex $-1 $736 $738 #
-591 straight-curve $-1 1.3398351580533938 1.3014953080834606 0.059000000000000004 -0.70757490107287113 0.70663835118943041 0 I I #
-592 edge $-1 $596 $443 $588 $739 0 #
-593 point $-1 1.1848843322680178 1.4562410401358505 0.059000000000000004 #
-594 coedge $-1 $652 $445 $735 $740 0 $250 $-1 #
-595 coedge $-1 $446 $667 $461 $608 0 $250 $-1 #
-596 vertex $-1 $448 $741 #
-597 ellipse-curve $-1 1.2930000000000001 1.5645 0.28599999999999998 0 0 1 0.153 0 0 1 I I #
-598 cone-surface $-1 1.2930000000000001 1.5645 0.28599999999999998 0 0 -1 0.153 0 0 1 I I 0 1 0 I I I I #
-599 ellipse-curve $-1 1.145 1.724 0.28599999999999998 0 0 1 0.0050000000000000001 0 0 1 I I #
-600 coedge $-1 $702 $701 $453 $601 1 $703 $-1 #
-601 edge $-1 $602 $742 $453 $743 1 #
-602 vertex $-1 $455 $744 #
-603 straight-curve $-1 1.4620000000000002 0.26300000000000001 0.070000000000000007 0 1 0 I I #
-604 coedge $-1 $457 $456 $667 $745 1 $458 $-1 #
-605 edge $-1 $459 $668 $527 $746 0 #
-606 face $-1 $496 $458 $2 $-1 $747 forward single #
-607 point $-1 1.4620000000000002 1.5660000000000003 0.070000000000000007 #
-608 edge $-1 $609 $464 $595 $748 1 #
-609 vertex $-1 $745 $749 #
-610 straight-curve $-1 1.2989999999999999 1.7290000000000001 0.28599999999999998 0 0 -1 I I #
-611 point $-1 1.145 1.7290000000000001 0.28599999999999998 #
-612 coedge $-1 $750 $467 $541 $684 1 $328 $-1 #
-613 coedge $-1 $468 $750 $475 $616 1 $328 $-1 #
-614 plane-surface $-1 0.78100000000000014 0.8145 0 0 0 -1 -1 0 0 0 I I I I #
-615 coedge $-1 $472 $471 $750 $751 0 $473 $-1 #
-616 edge $-1 $480 $617 $475 $752 1 #
-617 vertex $-1 $616 $753 #
-618 straight-curve $-1 0.25 0 0.070000000000000007 0 0 -1 I I #
-619 cone-surface $-1 0.25 0.25 0 0 0 1 0.25 0 0 1 I I 0 1 0 I I I I #
-620 straight-curve $-1 0 1.579 0 0 -1 0 I I #
-621 point $-1 0 0.25 0 #
-622 face $-1 $606 $703 $2 $-1 $754 forward single #
-623 loop $-1 $-1 $487 $482 #
-624 cone-surface $-1 0.26300000000000001 0.26300000000000001 0.070000000000000007 0 0 1 0.16300000000000001 0 0 1 I I 0 1 0 I I I I #
-625 coedge $-1 $755 $756 $486 $626 1 $757 $-1 #
-626 edge $-1 $742 $629 $486 $758 1 #
-627 coedge $-1 $759 $487 $756 $760 0 $623 $-1 #
-628 coedge $-1 $487 $759 $489 $632 0 $623 $-1 #
-629 vertex $-1 $626 $761 #
-630 ellipse-curve $-1 0.26300000000000001 0.26300000000000001 0.070000000000000007 0 0 1 0.16300000000000001 0 0 1 I I #
-631 coedge $-1 $490 $489 $551 $691 1 $491 $-1 #
-632 edge $-1 $762 $492 $628 $763 1 #
-633 face $-1 $-1 $491 $2 $-1 $764 forward single #
-634 point $-1 0.10000000000000001 0.26300000000000001 0.070000000000000007 #
-635 vertex $-1 $552 $765 #
-636 straight-curve $-1 0.10000000000000001 1.5660000000000003 0.28599999999999998 0 0 -1 I I #
-637 face $-1 $633 $757 $2 $-1 $766 forward single #
-638 cone-surface $-1 0.26300000000000001 1.5660000000000003 0.070000000000000007 0 0 1 0.16300000000000001 0 0 1 I I 0 1 0 I I I I #
-639 point $-1 0.26300000000000001 1.7290000000000001 0.28599999999999998 #
-640 face $-1 $531 $677 $2 $-1 $767 forward single #
-641 loop $-1 $-1 $768 $503 #
-642 cone-surface $-1 1.4482051482842382 0.3755 0.38600000000000001 0 0 -1 0.153 0 0 1 I I 0 1 0 I I I I #
-643 loop $-1 $187 $769 $247 #
-644 coedge $-1 $644 $644 $770 $771 0 $505 $-1 #
-645 coedge $-1 $645 $645 $506 $646 1 $772 $-1 #
-646 edge $-1 $773 $773 $506 $774 1 #
-647 coedge $-1 $663 $768 $507 $648 1 $641 $-1 #
-648 edge $-1 $665 $650 $507 $775 1 #
-649 coedge $-1 $776 $508 $768 $777 0 $187 $-1 #
-650 vertex $-1 $509 $778 #
-651 straight-curve $-1 1.4570000000000001 0.52850000000000008 0.28599999999999998 -1 0 0 I I #
-652 coedge $-1 $510 $594 $779 $780 0 $250 $-1 #
-653 coedge $-1 $676 $670 $510 $654 1 $677 $-1 #
-654 edge $-1 $781 $655 $510 $782 1 #
-655 vertex $-1 $511 $783 #
-656 straight-curve $-1 1.4570000000000001 1.2565000000000002 0.28599999999999998 -1 0 0 I I #
-657 face $-1 $477 $784 $2 $-1 $785 reversed single #
-658 point $-1 1.3599999999999999 1.5685 0.28599999999999998 #
-659 ellipse-curve $-1 1.4570000000000001 0.52350000000000008 0.28599999999999998 0 0 1 0.0050000000000000001 0 0 1 I I #
-660 point $-1 1.4570000000000001 0.52850000000000008 0.28599999999999998 #
-661 point $-1 1.4620000000000002 0.52350000000000008 0.28599999999999998 #
-662 coedge $-1 $521 $673 $786 $787 0 $263 $-1 #
-663 coedge $-1 $788 $647 $521 $664 0 $641 $-1 #
-664 edge $-1 $665 $789 $663 $790 0 #
-665 vertex $-1 $522 $791 #
-666 straight-curve $-1 1.4482051482842382 0.52850000000000008 0.13300000000000001 1 0 0 I I #
-667 coedge $-1 $595 $525 $604 $745 0 $250 $-1 #
-668 vertex $-1 $528 $792 #
-669 straight-curve $-1 1.4620000000000002 1.5660000000000003 0.28599999999999998 0 -1 0 I I #
-670 coedge $-1 $653 $534 $530 $671 0 $677 $-1 #
-671 edge $-1 $536 $655 $670 $793 1 #
-672 plane-surface $-1 1.50510257414212 1.2565000000000002 0.38600000000000001 3.0008475256946701e-016 1 0 0 0 1 0 I I I I #
-673 coedge $-1 $662 $533 $794 $795 0 $263 $-1 #
-674 coedge $-1 $796 $730 $533 $675 1 $732 $-1 #
-675 edge $-1 $678 $797 $533 $798 1 #
-676 coedge $-1 $534 $653 $796 $799 0 $677 $-1 #
-677 loop $-1 $-1 $653 $640 #
-678 vertex $-1 $799 $800 #
-679 ellipse-curve $-1 1.4482051482842382 1.4095000000000002 0.13300000000000001 0 0 1 0.153 0 0 1 I I #
-680 point $-1 1.4482051482842382 1.2565000000000002 0.13300000000000001 #
-681 face $-1 $324 $801 $2 $-1 $802 forward single #
-682 loop $-1 $-1 $803 $539 #
-683 cone-surface $-1 1.2190000000000001 0.60450000000000004 0.28599999999999998 0 0 -1 0.17100000000000001 0 0 1 I I 0 1 0 I I I I #
-684 edge $-1 $685 $546 $541 $804 1 #
-685 vertex $-1 $684 $805 #
-686 straight-curve $-1 1.3120000000000001 0 0 0 0 1 I I #
-687 cone-surface $-1 1.3120000000000001 0.25 0 0 0 -1 0.25 0 0 1 I I 0 1 0 I I I I #
-688 straight-curve $-1 1.5620000000000003 0.25 0 0 1 0 I I #
-689 point $-1 1.5620000000000003 0.25 0 #
-690 coedge $-1 $559 $551 $759 $806 0 $187 $-1 #
-691 edge $-1 $635 $762 $551 $807 1 #
-692 ellipse-curve $-1 0.26300000000000001 1.5660000000000003 0.28599999999999998 0 0 1 0.16300000000000001 0 0 1 I I #
-693 coedge $-1 $554 $808 $809 $810 0 $187 $-1 #
-694 coedge $-1 $571 $570 $554 $695 1 $572 $-1 #
-695 edge $-1 $811 $696 $554 $812 1 #
-696 vertex $-1 $695 $813 #
-697 ellipse-curve $-1 0.34300000000000003 1.1805000000000001 0.28599999999999998 0 0 1 0.17100000000000001 0 0 1 I I #
-698 point $-1 0.2221648419466071 1.3014953080834606 0.28599999999999998 #
-699 coedge $-1 $756 $755 $559 $700 1 $757 $-1 #
-700 edge $-1 $814 $704 $559 $815 1 #
-701 coedge $-1 $600 $560 $755 $816 0 $703 $-1 #
-702 coedge $-1 $560 $600 $562 $706 1 $703 $-1 #
-703 loop $-1 $-1 $600 $622 #
-704 vertex $-1 $700 $817 #
-705 ellipse-curve $-1 1.2989999999999999 0.26300000000000001 0.28599999999999998 0 0 1 0.16300000000000001 0 0 1 I I #
-706 edge $-1 $563 $602 $562 $818 0 #
-707 point $-1 1.4620000000000002 0.26300000000000001 0.28599999999999998 #
-708 face $-1 $819 $715 $2 $-1 $820 reversed single #
-709 plane-surface $-1 0.17200000000000001 0.89249999999999996 0.28599999999999998 1 0 0 0 0 -1 0 I I I I #
-710 coedge $-1 $584 $567 $821 $822 1 $78 $-1 #
-711 coedge $-1 $823 $824 $567 $712 0 $825 $-1 #
-712 edge $-1 $826 $716 $711 $827 1 #
-713 coedge $-1 $809 $568 $571 $718 1 $715 $-1 #
-714 coedge $-1 $568 $809 $823 $828 0 $715 $-1 #
-715 loop $-1 $-1 $713 $708 #
-716 vertex $-1 $828 $829 #
-717 ellipse-curve $-1 0.34300000000000003 0.60450000000000004 0.059000000000000004 0 0 1 0.17100000000000001 0 0 1 I I #
-718 edge $-1 $811 $573 $571 $830 0 #
-719 point $-1 0.17200000000000001 0.60450000000000004 0.059000000000000004 #
-720 straight-curve $-1 0.17200000000000001 1.1805000000000001 0.28599999999999998 0 0 -1 I I #
-721 face $-1 $831 $832 $2 $-1 $833 reversed single #
-722 loop $-1 $834 $835 $578 #
-723 cone-surface $-1 0.26000000000000001 0.28249999999999997 0.28599999999999998 0 0 -1 0.058000000000000003 0 0 1 I I 0 1 0 I I I I #
-724 coedge $-1 $724 $724 $835 $836 0 $579 $-1 #
-725 coedge $-1 $725 $725 $769 $837 1 $581 $-1 #
-726 vertex $-1 $583 $838 #
-727 ellipse-curve $-1 1.302 0.28249999999999997 0.13600000000000001 0 0 1 0.058000000000000003 0 0 1 I I #
-728 coedge $-1 $839 $840 $584 $729 0 $801 $-1 #
-729 edge $-1 $733 $841 $728 $842 1 #
-730 coedge $-1 $674 $585 $840 $843 1 $732 $-1 #
-731 coedge $-1 $585 $779 $587 $736 0 $732 $-1 #
-732 loop $-1 $-1 $796 $844 #
-733 vertex $-1 $843 $845 #
-734 ellipse-curve $-1 1.2190000000000001 1.1805000000000001 0.059000000000000004 0 0 1 0.17100000000000001 0 0 1 I I #
-735 coedge $-1 $588 $587 $594 $740 1 $589 $-1 #
-736 edge $-1 $846 $590 $731 $847 0 #
-737 face $-1 $449 $589 $2 $-1 $848 forward single #
-738 point $-1 1.3398351580533938 1.3014953080834606 0.059000000000000004 #
-739 straight-curve $-1 1.1848843322680178 1.4562410401358505 0.28599999999999998 0 0 -1 I I #
-740 edge $-1 $596 $846 $594 $849 1 #
-741 point $-1 1.1848843322680178 1.4562410401358505 0.28599999999999998 #
-742 vertex $-1 $601 $850 #
-743 ellipse-curve $-1 1.2989999999999999 0.26300000000000001 0.070000000000000007 0 0 1 0.16300000000000001 0 0 1 I I #
-744 point $-1 1.4620000000000002 0.26300000000000001 0.070000000000000007 #
-745 edge $-1 $668 $609 $667 $851 0 #
-746 straight-curve $-1 1.4620000000000002 1.5660000000000003 0.070000000000000007 0 0 1 I I #
-747 cone-surface $-1 1.2989999999999999 1.5660000000000003 0.070000000000000007 0 0 -1 0.16300000000000001 0 0 1 I I 0 1 0 I I I I #
-748 straight-curve $-1 1.145 1.7290000000000001 0.28599999999999998 1 0 0 I I #
-749 point $-1 1.2989999999999999 1.7290000000000001 0.28599999999999998 #
-750 coedge $-1 $613 $612 $615 $751 1 $328 $-1 #
-751 edge $-1 $617 $685 $615 $852 0 #
-752 ellipse-curve $-1 0.25 0.25 0 0 0 -1 0.25 0 0 1 I I #
-753 point $-1 0.25 0 0 #
-754 cone-surface $-1 1.2989999999999999 0.26300000000000001 0.070000000000000007 0 0 -1 0.16300000000000001 0 0 1 I I 0 1 0 I I I I #
-755 coedge $-1 $699 $625 $701 $816 1 $757 $-1 #
-756 coedge $-1 $625 $699 $627 $760 1 $757 $-1 #
-757 loop $-1 $-1 $625 $637 #
-758 straight-curve $-1 0.26300000000000001 0.10000000000000001 0.070000000000000007 1 0 0 I I #
-759 coedge $-1 $628 $627 $690 $806 1 $623 $-1 #
-760 edge $-1 $629 $814 $627 $853 1 #
-761 point $-1 0.26300000000000001 0.10000000000000001 0.070000000000000007 #
-762 vertex $-1 $691 $854 #
-763 straight-curve $-1 0.10000000000000001 0.26300000000000001 0.070000000000000007 0 0 1 I I #
-764 plane-surface $-1 0.10000000000000001 0.91450000000000009 0.070000000000000007 -1 0 0 0 0 1 0 I I I I #
-765 point $-1 0.10000000000000001 1.5660000000000003 0.28599999999999998 #
-766 plane-surface $-1 0.78100000000000014 0.10000000000000001 0.070000000000000007 0 -1 0 0 0 -1 0 I I I I #
-767 cone-surface $-1 1.4482051482842382 1.4095000000000002 0.38600000000000001 0 0 -1 0.153 0 0 1 I I 0 1 0 I I I I #
-768 coedge $-1 $647 $788 $649 $777 1 $641 $-1 #
-769 coedge $-1 $769 $769 $725 $837 0 $643 $-1 #
-770 coedge $-1 $770 $770 $644 $771 1 $834 $-1 #
-771 edge $-1 $855 $855 $644 $856 1 #
-772 loop $-1 $-1 $645 $831 #
-773 vertex $-1 $646 $857 #
-774 ellipse-curve $-1 0.26000000000000001 1.5685 0.28599999999999998 0 0 1 0.058000000000000003 0 0 1 I I #
-775 straight-curve $-1 1.4482051482842382 0.52850000000000008 0.28599999999999998 0 0 -1 I I #
-776 coedge $-1 $808 $649 $803 $858 0 $187 $-1 #
-777 edge $-1 $650 $859 $649 $860 1 #
-778 point $-1 1.4482051482842382 0.52850000000000008 0.28599999999999998 #
-779 coedge $-1 $731 $796 $652 $780 1 $732 $-1 #
-780 edge $-1 $846 $781 $652 $861 1 #
-781 vertex $-1 $780 $862 #
-782 ellipse-curve $-1 1.4482051482842382 1.4095000000000002 0.28599999999999998 0 0 -1 0.153 0 0 1 I I #
-783 point $-1 1.4482051482842382 1.2565000000000002 0.28599999999999998 #
-784 loop $-1 $512 $863 $657 #
-785 cone-surface $-1 1.302 1.5685 0.28599999999999998 0 0 -1 0.058000000000000003 0 0 1 I I 0 1 0 I I I I #
-786 coedge $-1 $864 $865 $662 $787 1 $682 $-1 #
-787 edge $-1 $866 $789 $662 $867 1 #
-788 coedge $-1 $768 $663 $865 $868 0 $641 $-1 #
-789 vertex $-1 $664 $869 #
-790 ellipse-curve $-1 1.4482051482842382 0.3755 0.13300000000000001 0 0 1 0.153 0 0 1 I I #
-791 point $-1 1.4482051482842382 0.52850000000000008 0.13300000000000001 #
-792 point $-1 1.4620000000000002 1.5660000000000003 0.28599999999999998 #
-793 straight-curve $-1 1.4482051482842382 1.2565000000000002 0.28599999999999998 0 0 -1 I I #
-794 coedge $-1 $840 $839 $673 $795 1 $801 $-1 #
-795 edge $-1 $797 $866 $673 $870 0 #
-796 coedge $-1 $779 $674 $676 $799 1 $732 $-1 #
-797 vertex $-1 $675 $871 #
-798 ellipse-curve $-1 1.2190000000000001 1.1805000000000001 0.13300000000000001 0 0 1 0.17100000000000001 0 0 1 I I #
-799 edge $-1 $781 $678 $676 $872 0 #
-800 point $-1 1.3399693838166813 1.3013611111111103 0.13300000000000001 #
-801 loop $-1 $-1 $839 $681 #
-802 plane-surface $-1 1.3899999999999999 0.89249999999999996 0.28599999999999998 -1 0 0 0 0 1 0 I I I I #
-803 coedge $-1 $865 $873 $776 $858 1 $682 $-1 #
-804 ellipse-curve $-1 1.3120000000000001 0.25 0 0 0 -1 0.25 0 0 1 I I #
-805 point $-1 1.3120000000000001 0 0 #
-806 edge $-1 $762 $814 $690 $874 0 #
-807 straight-curve $-1 0.10000000000000001 0.26300000000000001 0.28599999999999998 0 1 0 I I #
-808 coedge $-1 $693 $776 $875 $876 0 $187 $-1 #
-809 coedge $-1 $714 $713 $693 $810 1 $715 $-1 #
-810 edge $-1 $877 $811 $693 $878 1 #
-811 vertex $-1 $810 $879 #
-812 straight-curve $-1 0.17200000000000001 1.1805000000000001 0.28599999999999998 0 -1 0 I I #
-813 point $-1 0.17200000000000001 1.1805000000000001 0.28599999999999998 #
-814 vertex $-1 $806 $880 #
-815 straight-curve $-1 1.2989999999999999 0.10000000000000001 0.28599999999999998 -1 0 0 I I #
-816 edge $-1 $704 $742 $701 $881 1 #
-817 point $-1 1.2989999999999999 0.10000000000000001 0.28599999999999998 #
-818 straight-curve $-1 1.4620000000000002 0.26300000000000001 0.28599999999999998 0 0 -1 I I #
-819 face $-1 $844 $825 $2 $-1 $882 forward single #
-820 cone-surface $-1 0.34300000000000003 0.60450000000000004 0.28599999999999998 0 0 -1 0.17100000000000001 0 0 1 I I 0 1 0 I I I I #
-821 coedge $-1 $873 $864 $710 $822 0 $682 $-1 #
-822 edge $-1 $841 $826 $821 $883 1 #
-823 coedge $-1 $875 $711 $714 $828 1 $825 $-1 #
-824 coedge $-1 $711 $875 $873 $884 1 $825 $-1 #
-825 loop $-1 $-1 $823 $819 #
-826 vertex $-1 $822 $885 #
-827 straight-curve $-1 0.34300000000000003 0.43350000000000005 0.059000000000000004 1 0 0 I I #
-828 edge $-1 $877 $716 $714 $886 0 #
-829 point $-1 0.34300000000000003 0.43350000000000005 0.059000000000000004 #
-830 straight-curve $-1 0.17200000000000001 0.60450000000000004 0.28599999999999998 0 0 -1 I I #
-831 face $-1 $887 $888 $2 $-1 $889 reversed single #
-832 loop $-1 $-1 $890 $721 #
-833 plane-surface $-1 0.26000000000000001 1.5685 0.13600000000000001 0 0 -1 -1 0 0 0 I I I I #
-834 loop $-1 $-1 $770 $578 #
-835 coedge $-1 $835 $835 $724 $836 1 $722 $-1 #
-836 edge $-1 $891 $891 $724 $892 0 #
-837 edge $-1 $893 $893 $769 $894 1 #
-838 point $-1 1.3599999999999999 0.28249999999999997 0.13600000000000001 #
-839 coedge $-1 $794 $728 $864 $895 1 $801 $-1 #
-840 coedge $-1 $728 $794 $730 $843 0 $801 $-1 #
-841 vertex $-1 $895 $896 #
-842 straight-curve $-1 1.3899999999999999 0.60450000000000004 0.059000000000000004 0 1 0 I I #
-843 edge $-1 $797 $733 $840 $897 0 #
-844 face $-1 $737 $732 $2 $-1 $898 reversed single #
-845 point $-1 1.3899999999999999 1.1805000000000001 0.059000000000000004 #
-846 vertex $-1 $740 $899 #
-847 straight-curve $-1 1.3398351580533938 1.3014953080834606 0.28599999999999998 0 0 -1 I I #
-848 plane-surface $-1 1.2623597451607047 1.3788681741096556 0.28599999999999998 -0.70663835118943175 -0.70757490107286969 0 0 0 1 0 I I I I #
-849 straight-curve $-1 1.3398351580533938 1.3014953080834606 0.28599999999999998 -0.70757490107287113 0.70663835118943041 0 I I #
-850 point $-1 1.2989999999999999 0.10000000000000001 0.070000000000000007 #
-851 ellipse-curve $-1 1.2989999999999999 1.5660000000000003 0.28599999999999998 0 0 1 0.16300000000000001 0 0 1 I I #
-852 straight-curve $-1 0.25 0 0 1 0 0 I I #
-853 straight-curve $-1 0.26300000000000001 0.10000000000000001 0.28599999999999998 0 0 -1 I I #
-854 point $-1 0.10000000000000001 0.26300000000000001 0.28599999999999998 #
-855 vertex $-1 $771 $900 #
-856 ellipse-curve $-1 0.26000000000000001 0.28249999999999997 0.28599999999999998 0 0 1 0.058000000000000003 0 0 1 I I #
-857 point $-1 0.318 1.5685 0.28599999999999998 #
-858 edge $-1 $859 $901 $776 $902 1 #
-859 vertex $-1 $777 $903 #
-860 ellipse-curve $-1 1.4482051482842382 0.3755 0.28599999999999998 0 0 -1 0.153 0 0 1 I I #
-861 ellipse-curve $-1 1.2190000000000001 1.1805000000000001 0.28599999999999998 0 0 1 0.17100000000000001 0 0 1 I I #
-862 point $-1 1.3399693838166813 1.3013611111111103 0.28599999999999998 #
-863 coedge $-1 $863 $863 $904 $905 1 $784 $-1 #
-864 coedge $-1 $821 $786 $839 $895 0 $682 $-1 #
-865 coedge $-1 $786 $803 $788 $868 1 $682 $-1 #
-866 vertex $-1 $795 $906 #
-867 ellipse-curve $-1 1.2190000000000001 0.60450000000000004 0.13300000000000001 0 0 1 0.17100000000000001 0 0 1 I I #
-868 edge $-1 $789 $859 $788 $907 1 #
-869 point $-1 1.3399693838166813 0.48363888888888901 0.13300000000000001 #
-870 straight-curve $-1 1.3899999999999999 1.1805000000000001 0.13300000000000001 0 -1 0 I I #
-871 point $-1 1.3899999999999999 1.1805000000000001 0.13300000000000001 #
-872 straight-curve $-1 1.3399693838166813 1.3013611111111103 0.28599999999999998 0 0 -1 I I #
-873 coedge $-1 $803 $821 $824 $884 0 $682 $-1 #
-874 ellipse-curve $-1 0.26300000000000001 0.26300000000000001 0.28599999999999998 0 0 1 0.16300000000000001 0 0 1 I I #
-875 coedge $-1 $824 $823 $808 $876 1 $825 $-1 #
-876 edge $-1 $901 $877 $808 $908 1 #
-877 vertex $-1 $876 $909 #
-878 ellipse-curve $-1 0.34300000000000003 0.60450000000000004 0.28599999999999998 0 0 1 0.17100000000000001 0 0 1 I I #
-879 point $-1 0.17200000000000001 0.60450000000000004 0.28599999999999998 #
-880 point $-1 0.26300000000000001 0.10000000000000001 0.28599999999999998 #
-881 straight-curve $-1 1.2989999999999999 0.10000000000000001 0.070000000000000007 0 0 1 I I #
-882 plane-surface $-1 0.78100000000000014 0.43350000000000005 0.28599999999999998 0 1 0 0 0 1 0 I I I I #
-883 ellipse-curve $-1 1.2190000000000001 0.60450000000000004 0.059000000000000004 0 0 1 0.17100000000000001 0 0 1 I I #
-884 edge $-1 $826 $901 $873 $910 1 #
-885 point $-1 1.2190000000000001 0.43350000000000005 0.059000000000000004 #
-886 straight-curve $-1 0.34300000000000003 0.43350000000000005 0.28599999999999998 0 0 -1 I I #
-887 face $-1 $657 $911 $2 $-1 $912 reversed single #
-888 loop $-1 $772 $913 $831 #
-889 cone-surface $-1 0.26000000000000001 1.5685 0.28599999999999998 0 0 -1 0.058000000000000003 0 0 1 I I 0 1 0 I I I I #
-890 coedge $-1 $890 $890 $913 $914 0 $832 $-1 #
-891 vertex $-1 $836 $915 #
-892 ellipse-curve $-1 0.26000000000000001 0.28249999999999997 0.13600000000000001 0 0 1 0.058000000000000003 0 0 1 I I #
-893 vertex $-1 $837 $916 #
-894 ellipse-curve $-1 1.302 0.28249999999999997 0.28599999999999998 0 0 1 0.058000000000000003 0 0 1 I I #
-895 edge $-1 $866 $841 $864 $917 0 #
-896 point $-1 1.3899999999999999 0.60450000000000004 0.059000000000000004 #
-897 straight-curve $-1 1.3899999999999999 1.1805000000000001 0.13300000000000001 0 0 -1 I I #
-898 cone-surface $-1 1.2190000000000001 1.1805000000000001 0.28599999999999998 0 0 -1 0.17100000000000001 0 0 1 I I 0 1 0 I I I I #
-899 point $-1 1.3398351580533938 1.3014953080834606 0.28599999999999998 #
-900 point $-1 0.318 0.28249999999999997 0.28599999999999998 #
-901 vertex $-1 $858 $918 #
-902 ellipse-curve $-1 1.2190000000000001 0.60450000000000004 0.28599999999999998 0 0 1 0.17100000000000001 0 0 1 I I #
-903 point $-1 1.3399693838166813 0.48363888888888901 0.28599999999999998 #
-904 coedge $-1 $904 $904 $863 $905 0 $911 $-1 #
-905 edge $-1 $919 $919 $904 $920 0 #
-906 point $-1 1.3899999999999999 0.60450000000000004 0.13300000000000001 #
-907 straight-curve $-1 1.3399693838166813 0.48363888888888901 0.28599999999999998 0 0 -1 I I #
-908 straight-curve $-1 0.34300000000000003 0.43350000000000005 0.28599999999999998 1 0 0 I I #
-909 point $-1 0.34300000000000003 0.43350000000000005 0.28599999999999998 #
-910 straight-curve $-1 1.2190000000000001 0.43350000000000005 0.28599999999999998 0 0 -1 I I #
-911 loop $-1 $-1 $904 $887 #
-912 plane-surface $-1 1.302 1.5685 0.13600000000000001 0 0 -1 -1 0 0 0 I I I I #
-913 coedge $-1 $913 $913 $890 $914 1 $888 $-1 #
-914 edge $-1 $921 $921 $890 $922 0 #
-915 point $-1 0.318 0.28249999999999997 0.13600000000000001 #
-916 point $-1 1.3599999999999999 0.28249999999999997 0.28599999999999998 #
-917 straight-curve $-1 1.3899999999999999 0.60450000000000004 0.13300000000000001 0 0 -1 I I #
-918 point $-1 1.2190000000000001 0.43350000000000005 0.28599999999999998 #
-919 vertex $-1 $905 $923 #
-920 ellipse-curve $-1 1.302 1.5685 0.13600000000000001 0 0 1 0.058000000000000003 0 0 1 I I #
-921 vertex $-1 $914 $924 #
-922 ellipse-curve $-1 0.26000000000000001 1.5685 0.13600000000000001 0 0 1 0.058000000000000003 0 0 1 I I #
-923 point $-1 1.3599999999999999 1.5685 0.13600000000000001 #
-924 point $-1 0.318 1.5685 0.13600000000000001 #
End-of-ACIS-data 