600 0 1 0           
87 GICL ACIS Healer - Source: /gicl/data5/repository/Allied-Signal/part08/part08.sat - 6 0 18 ACIS 6.0.3 Solaris 24 Sun Apr 14 00:15:26 2002 
1 9.999999999999999547e-07 1.000000000000000036e-10 
body $-1 $1 $-1 $-1 #
lump $-1 $-1 $2 $0 #
shell $-1 $-1 $-1 $3 $-1 $1 #
face $-1 $4 $5 $2 $-1 $6 forward single #
face $-1 $7 $8 $2 $-1 $9 forward single #
loop $-1 $-1 $10 $3 #
cone-surface $-1 0.4069999999999999729 1.814000000000000057 0 0 0 -1 0.01499999999999999944 0 0 1 I I 0 1 0.01499999999999999944 forward I I I I #
face $-1 $11 $12 $2 $-1 $13 forward single #
loop $-1 $-1 $14 $4 #
cone-surface $-1 1.155000000000000027 1.814000000000000057 0.2859999999999999765 0 0 1 0.01499999999999999944 0 0 1 I I 0 1 0.01499999999999999944 forward I I I I #
coedge $-1 $15 $16 $17 $18 forward $5 $-1 #
face $-1 $19 $20 $2 $-1 $21 forward single #
loop $-1 $-1 $22 $7 #
plane-surface $-1 0.4220000000000000417 1.696750000000000203 0.2859999999999999765 1 3.227608688166659538e-17 0 0 0 -1 forward_v I I I I #
coedge $-1 $23 $24 $25 $26 forward $8 $-1 #
coedge $-1 $27 $10 $28 $29 forward $5 $-1 #
coedge $-1 $10 $27 $30 $31 forward $5 $-1 #
coedge $-1 $32 $33 $10 $18 reversed $20 $-1 #
edge $-1 $34 -1.570796326794896558 $35 -0 $10 $36 reversed 7 unknown #
face $-1 $37 $38 $2 $-1 $39 forward single #
loop $-1 $-1 $40 $11 #
plane-surface $-1 0.7810000000000001386 0.8145000000000000018 0.07000000000000000666 0 0 1 1 0 0 forward_v I I I I #
coedge $-1 $28 $41 $42 $43 forward $12 $-1 #
coedge $-1 $44 $14 $45 $46 forward $8 $-1 #
coedge $-1 $14 $44 $47 $48 forward $8 $-1 #
coedge $-1 $49 $40 $14 $26 reversed $20 $-1 #
edge $-1 $50 -3.141592653589793116 $51 -1.570796326794896558 $14 $52 reversed 7 unknown #
coedge $-1 $16 $15 $53 $54 forward $5 $-1 #
coedge $-1 $55 $22 $15 $29 reversed $12 $-1 #
edge $-1 $35 -0.01100000000000000283 $56 -0 $15 $57 reversed 7 unknown #
coedge $-1 $58 $59 $16 $31 reversed $38 $-1 #
edge $-1 $60 -0.01100000000000000283 $34 -0 $16 $61 reversed 7 unknown #
coedge $-1 $62 $17 $59 $63 forward $20 $-1 #
coedge $-1 $17 $64 $55 $65 reversed $20 $-1 #
vertex $-1 $18 $66 #
vertex $-1 $18 $67 #
ellipse-curve $-1 0.4069999999999999729 1.814000000000000057 0.07000000000000000666 0 0 1 0.01499999999999999944 0 0 1 I I #
face $-1 $68 $69 $2 $-1 $70 forward single #
loop $-1 $-1 $58 $19 #
plane-surface $-1 0.7810000000000001386 1.829000000000000181 0 0 1 0 0 0 1 forward_v I I I I #
coedge $-1 $25 $71 $72 $73 forward $20 $-1 #
coedge $-1 $22 $74 $75 $76 forward $12 $-1 #
coedge $-1 $77 $53 $22 $43 reversed $78 $-1 #
edge $-1 $79 -0.2495000000000000551 $56 -0 $22 $80 reversed 7 unknown #
coedge $-1 $24 $23 $81 $82 forward $8 $-1 #
coedge $-1 $72 $58 $23 $46 reversed $38 $-1 #
edge $-1 $51 -0.01100000000000000283 $83 -0 $23 $84 reversed 7 unknown #
coedge $-1 $85 $86 $24 $48 reversed $87 $-1 #
edge $-1 $88 -0.01100000000000000283 $50 -0 $24 $89 reversed 7 unknown #
coedge $-1 $90 $25 $86 $91 forward $20 $-1 #
vertex $-1 $26 $92 #
vertex $-1 $26 $93 #
ellipse-curve $-1 1.155000000000000027 1.814000000000000057 0.07000000000000000666 0 0 1 0.01499999999999999944 0 0 1 I I #
coedge $-1 $42 $94 $27 $54 reversed $78 $-1 #
edge $-1 $56 -0 $60 1.570796326794896558 $27 $95 reversed 7 unknown #
coedge $-1 $96 $28 $33 $65 forward $12 $-1 #
vertex $-1 $29 $97 #
straight-curve $-1 0.4220000000000000417 1.814000000000000057 0.05900000000000000383 0 0 1 I I #
coedge $-1 $45 $30 $94 $98 forward $38 $-1 #
coedge $-1 $30 $99 $32 $63 reversed $38 $-1 #
vertex $-1 $54 $100 #
straight-curve $-1 0.4069999999999999729 1.829000000000000181 0.07000000000000000666 0 0 -1 I I #
coedge $-1 $101 $32 $102 $103 forward $20 $-1 #
edge $-1 $34 -0.1569999999999999729 $104 -0 $32 $105 reversed 7 unknown #
coedge $-1 $33 $106 $107 $108 forward $20 $-1 #
edge $-1 $35 -0.09000000000000007994 $109 -0 $55 $110 reversed 7 unknown #
point $-1 0.4069999999999999729 1.829000000000000181 0.07000000000000000666 #
point $-1 0.4220000000000000417 1.814000000000000057 0.07000000000000000666 #
face $-1 $111 $112 $2 $-1 $113 forward single #
loop $-1 $-1 $114 $37 #
cone-surface $-1 1.457000000000000073 1.261499999999999844 0.07000000000000000666 0 0 1 0.005000000000000000104 0 0 1 I I 0 1 0.005000000000000000104 forward I I I I #
coedge $-1 $40 $115 $116 $117 forward $20 $-1 #
coedge $-1 $118 $45 $40 $73 reversed $38 $-1 #
edge $-1 $119 -0.1570000000000000284 $51 -0 $40 $120 reversed 7 unknown #
coedge $-1 $41 $96 $121 $122 forward $12 $-1 #
coedge $-1 $123 $124 $41 $76 reversed $125 $-1 #
edge $-1 $126 0 $79 0.2269999999999999796 $41 $127 forward 7 unknown #
coedge $-1 $128 $42 $124 $129 reversed $78 $-1 #
loop $-1 $-1 $94 $130 #
vertex $-1 $43 $131 #
straight-curve $-1 0.4220000000000000417 1.814000000000000057 0.05900000000000000383 0 -1 0 I I #
coedge $-1 $94 $132 $44 $82 reversed $78 $-1 #
edge $-1 $83 1.570796326794896558 $88 3.141592653589793116 $44 $133 reversed 7 unknown #
vertex $-1 $46 $134 #
straight-curve $-1 1.155000000000000027 1.829000000000000181 0.05900000000000000383 0 0 1 I I #
coedge $-1 $135 $47 $132 $136 forward $87 $-1 #
coedge $-1 $47 $137 $49 $91 reversed $87 $-1 #
loop $-1 $-1 $86 $138 #
vertex $-1 $82 $139 #
straight-curve $-1 1.139999999999999902 1.814000000000000057 0.07000000000000000666 0 0 -1 I I #
coedge $-1 $140 $49 $141 $142 forward $20 $-1 #
edge $-1 $50 -0.09000000000000007994 $143 -0 $49 $144 reversed 7 unknown #
point $-1 1.139999999999999902 1.814000000000000057 0.07000000000000000666 #
point $-1 1.155000000000000027 1.829000000000000181 0.07000000000000000666 #
coedge $-1 $53 $81 $58 $98 reversed $78 $-1 #
ellipse-curve $-1 0.4069999999999999729 1.814000000000000057 0.05900000000000000383 0 0 -1 0.01499999999999999944 0 0 1 I I #
coedge $-1 $74 $55 $145 $146 forward $12 $-1 #
point $-1 0.4220000000000000417 1.814000000000000057 0.05900000000000000383 #
edge $-1 $60 -0.7479999999999999982 $83 -0 $58 $147 reversed 7 unknown #
coedge $-1 $59 $148 $149 $150 forward $38 $-1 #
point $-1 0.4069999999999999729 1.829000000000000181 0.05900000000000000383 #
coedge $-1 $151 $62 $152 $153 forward $20 $-1 #
coedge $-1 $149 $154 $62 $103 reversed $155 $-1 #
edge $-1 $104 1.570796326794896558 $156 3.141592653589793116 $62 $157 forward 7 unknown #
vertex $-1 $63 $158 #
straight-curve $-1 0.25 1.829000000000000181 0.07000000000000000666 1 0 0 I I #
coedge $-1 $64 $159 $160 $161 forward $20 $-1 #
coedge $-1 $162 $145 $64 $108 reversed $163 $-1 #
edge $-1 $164 -1.570796326794896558 $109 0 $64 $165 forward 7 unknown #
vertex $-1 $65 $166 #
straight-curve $-1 0.4220000000000000417 1.723999999999999977 0.07000000000000000666 0 1 0 I I #
face $-1 $167 $168 $2 $-1 $169 forward single #
loop $-1 $-1 $170 $68 #
cone-surface $-1 1.457000000000000073 0.5235000000000000764 0.07000000000000000666 0 0 1 0.005000000000000000104 0 0 1 I I 0 1 0.005000000000000000104 forward I I I I #
coedge $-1 $171 $172 $173 $174 forward $69 $-1 #
coedge $-1 $71 $175 $176 $177 forward $20 $-1 #
coedge $-1 $178 $179 $71 $117 reversed $180 $-1 #
edge $-1 $181 0 $119 1.570796326794896558 $71 $182 forward 7 unknown #
coedge $-1 $148 $72 $179 $183 forward $38 $-1 #
vertex $-1 $73 $184 #
straight-curve $-1 1.155000000000000027 1.829000000000000181 0.07000000000000000666 1 0 0 I I #
coedge $-1 $185 $186 $74 $122 reversed $187 $-1 #
edge $-1 $188 0 $126 0.1594999999999999751 $74 $189 forward 7 unknown #
coedge $-1 $190 $75 $186 $191 reversed $125 $-1 #
coedge $-1 $75 $190 $77 $129 forward $125 $-1 #
loop $-1 $-1 $75 $192 #
vertex $-1 $122 $193 #
straight-curve $-1 0.4220000000000000417 1.564500000000000002 0.2859999999999999765 0 0 -1 I I #
coedge $-1 $194 $77 $195 $196 reversed $78 $-1 #
edge $-1 $197 -0.7860604042193543028 $79 0 $124 $198 forward 7 unknown #
face $-1 $199 $78 $2 $-1 $200 forward single #
point $-1 0.4220000000000000417 1.564500000000000002 0.05900000000000000383 #
coedge $-1 $81 $201 $85 $136 reversed $78 $-1 #
ellipse-curve $-1 1.155000000000000027 1.814000000000000057 0.05900000000000000383 0 0 -1 0.01499999999999999944 0 0 1 I I #
point $-1 1.155000000000000027 1.829000000000000181 0.05900000000000000383 #
coedge $-1 $202 $85 $203 $204 reversed $87 $-1 #
edge $-1 $88 0 $205 0.2495000000000000551 $85 $206 forward 7 unknown #
coedge $-1 $86 $202 $207 $208 reversed $87 $-1 #
face $-1 $130 $87 $2 $-1 $209 reversed single #
point $-1 1.139999999999999902 1.814000000000000057 0.05900000000000000383 #
coedge $-1 $210 $90 $211 $212 forward $20 $-1 #
coedge $-1 $207 $213 $90 $142 reversed $214 $-1 #
edge $-1 $143 -3.141592653589793116 $215 -1.570796326794896558 $90 $216 forward 7 unknown #
vertex $-1 $91 $217 #
straight-curve $-1 1.139999999999999902 1.723999999999999977 0.07000000000000000666 0 1 0 I I #
coedge $-1 $107 $218 $96 $146 reversed $163 $-1 #
edge $-1 $109 0 $188 0.2159999999999999698 $96 $219 forward 7 unknown #
straight-curve $-1 1.155000000000000027 1.829000000000000181 0.05900000000000000383 -1 0 0 I I #
coedge $-1 $99 $118 $220 $221 forward $38 $-1 #
coedge $-1 $222 $102 $99 $150 reversed $155 $-1 #
edge $-1 $223 0 $104 0.07000000000000000666 $99 $224 forward 7 unknown #
coedge $-1 $225 $101 $226 $227 forward $20 $-1 #
coedge $-1 $228 $229 $101 $153 reversed $230 $-1 #
edge $-1 $156 -1.328999999999999959 $231 -0 $101 $232 reversed 7 unknown #
coedge $-1 $102 $222 $228 $233 forward $155 $-1 #
loop $-1 $-1 $222 $234 #
vertex $-1 $103 $235 #
ellipse-curve $-1 0.25 1.578999999999999959 0.07000000000000000666 0 0 1 0.25 0 0 1 I I #
point $-1 0.25 1.829000000000000181 0.07000000000000000666 #
coedge $-1 $106 $236 $237 $238 forward $20 $-1 #
coedge $-1 $239 $240 $106 $161 reversed $241 $-1 #
edge $-1 $242 -0.1540000000000000258 $164 -0 $106 $243 reversed 7 unknown #
coedge $-1 $218 $107 $240 $244 forward $163 $-1 #
loop $-1 $-1 $218 $245 #
vertex $-1 $161 $246 #
ellipse-curve $-1 0.4170000000000000373 1.723999999999999977 0.07000000000000000666 0 0 -1 0.005000000000000000104 0 0 1 I I #
point $-1 0.4220000000000000417 1.723999999999999977 0.07000000000000000666 #
face $-1 $247 $248 $2 $-1 $249 forward single #
loop $-1 $250 $251 $111 #
plane-surface $-1 0.7810000000000001386 0.9145000000000000906 0.2859999999999999765 0 0 1 1 0 0 forward_v I I I I #
coedge $-1 $252 $253 $254 $255 forward $112 $-1 #
coedge $-1 $256 $114 $257 $258 forward $69 $-1 #
coedge $-1 $114 $256 $259 $260 forward $69 $-1 #
coedge $-1 $261 $262 $114 $174 reversed $263 $-1 #
edge $-1 $264 -1.570796326794896558 $265 -0 $114 $266 reversed 7 unknown #
coedge $-1 $115 $225 $267 $268 forward $20 $-1 #
coedge $-1 $269 $270 $115 $177 reversed $271 $-1 #
edge $-1 $272 -1.328999999999999959 $181 -0 $115 $273 reversed 7 unknown #
coedge $-1 $274 $116 $270 $275 forward $180 $-1 #
coedge $-1 $116 $274 $118 $183 reversed $180 $-1 #
loop $-1 $-1 $274 $276 #
vertex $-1 $177 $277 #
ellipse-curve $-1 1.312000000000000055 1.578999999999999959 0.07000000000000000666 0 0 1 0.25 0 0 1 I I #
edge $-1 $119 0 $278 0.07000000000000000666 $118 $279 forward 7 unknown #
point $-1 1.312000000000000055 1.829000000000000181 0.07000000000000000666 #
coedge $-1 $280 $121 $218 $281 forward $187 $-1 #
coedge $-1 $121 $282 $123 $191 forward $187 $-1 #
loop $-1 $-1 $283 $247 #
vertex $-1 $146 $284 #
straight-curve $-1 0.4220000000000000417 1.723999999999999977 0.2859999999999999765 0 -1 0 I I #
coedge $-1 $124 $123 $285 $286 forward $125 $-1 #
edge $-1 $287 -0.7860604042193543028 $126 0 $186 $288 forward 7 unknown #
face $-1 $289 $125 $2 $-1 $290 forward single #
point $-1 0.4220000000000000417 1.564500000000000002 0.2859999999999999765 #
coedge $-1 $291 $128 $292 $293 reversed $78 $-1 #
coedge $-1 $285 $294 $128 $196 forward $295 $-1 #
edge $-1 $296 0 $197 0.2189885841773492881 $195 $297 forward 7 unknown #
vertex $-1 $286 $298 #
ellipse-curve $-1 0.2690000000000000169 1.564500000000000002 0.05900000000000000383 0 0 1 0.1529999999999999971 0 0 1 I I #
face $-1 $299 $300 $2 $-1 $301 reversed single #
plane-surface $-1 0.2690000000000000169 1.564500000000000002 0.05900000000000000383 0 0 1 1 0 0 forward_v I I I I #
coedge $-1 $132 $302 $303 $304 reversed $78 $-1 #
coedge $-1 $137 $135 $305 $306 reversed $87 $-1 #
coedge $-1 $303 $307 $135 $204 forward $308 $-1 #
edge $-1 $309 0 $205 0.2269999999999999796 $203 $310 forward 7 unknown #
vertex $-1 $204 $311 #
straight-curve $-1 1.139999999999999902 1.814000000000000057 0.05900000000000000383 0 -1 0 I I #
coedge $-1 $312 $141 $137 $208 forward $214 $-1 #
edge $-1 $143 -0.2159999999999999698 $313 -0 $207 $314 reversed 7 unknown #
plane-surface $-1 1.139999999999999902 1.696750000000000203 0.2859999999999999765 1 0 0 0 0 -1 forward_v I I I I #
coedge $-1 $315 $140 $316 $317 forward $20 $-1 #
coedge $-1 $318 $319 $140 $212 reversed $320 $-1 #
edge $-1 $215 -0.1539999999999999147 $321 -0 $140 $322 reversed 7 unknown #
coedge $-1 $141 $312 $318 $323 forward $214 $-1 #
loop $-1 $-1 $312 $324 #
vertex $-1 $142 $325 #
ellipse-curve $-1 1.145000000000000018 1.723999999999999977 0.07000000000000000666 0 0 -1 0.005000000000000000104 0 0 1 I I #
point $-1 1.139999999999999902 1.723999999999999977 0.07000000000000000666 #
coedge $-1 $145 $162 $185 $281 reversed $163 $-1 #
straight-curve $-1 0.4220000000000000417 1.723999999999999977 0.07000000000000000666 0 0 1 I I #
coedge $-1 $326 $327 $148 $221 reversed $328 $-1 #
edge $-1 $278 0 $223 1.062000000000000055 $148 $329 forward 7 unknown #
coedge $-1 $154 $149 $327 $330 forward $155 $-1 #
vertex $-1 $221 $331 #
straight-curve $-1 0.25 1.829000000000000181 0 0 0 1 I I #
coedge $-1 $175 $151 $332 $333 forward $20 $-1 #
coedge $-1 $334 $335 $151 $227 reversed $336 $-1 #
edge $-1 $231 -3.141592653589793116 $337 -1.570796326794896558 $151 $338 forward 7 unknown #
coedge $-1 $339 $152 $154 $233 reversed $230 $-1 #
coedge $-1 $152 $339 $334 $340 reversed $230 $-1 #
loop $-1 $-1 $152 $341 #
vertex $-1 $153 $342 #
straight-curve $-1 0 0.25 0.07000000000000000666 0 1 0 I I #
edge $-1 $343 -0.07000000000000000666 $156 -0 $154 $344 reversed 7 unknown #
face $-1 $345 $155 $2 $-1 $346 forward single #
point $-1 0 1.578999999999999959 0.07000000000000000666 #
coedge $-1 $159 $347 $348 $349 forward $20 $-1 #
coedge $-1 $350 $351 $159 $238 reversed $352 $-1 #
edge $-1 $353 -3.141592653589793116 $242 -1.570796326794896558 $159 $354 forward 7 unknown #
coedge $-1 $355 $160 $351 $356 forward $241 $-1 #
coedge $-1 $160 $355 $162 $244 reversed $241 $-1 #
loop $-1 $-1 $355 $357 #
vertex $-1 $238 $358 #
straight-curve $-1 0.4170000000000000373 1.729000000000000092 0.07000000000000000666 -1 0 0 I I #
edge $-1 $164 -0.2159999999999999698 $359 -0 $162 $360 reversed 7 unknown #
face $-1 $361 $163 $2 $-1 $362 forward single #
point $-1 0.4170000000000000373 1.729000000000000092 0.07000000000000000666 #
face $-1 $363 $364 $2 $-1 $365 forward single #
loop $-1 $-1 $366 $167 #
plane-surface $-1 1.505102574142120009 0.5285000000000000808 0.3860000000000000098 -1.500423762847334812e-16 1 0 0 0 1 forward_v I I I I #
loop $-1 $-1 $367 $111 #
coedge $-1 $251 $251 $368 $369 forward $168 $-1 #
coedge $-1 $370 $170 $371 $372 forward $112 $-1 #
coedge $-1 $170 $370 $373 $374 forward $112 $-1 #
coedge $-1 $262 $375 $170 $255 reversed $263 $-1 #
edge $-1 $376 -0 $377 1.570796326794896558 $170 $378 reversed 7 unknown #
coedge $-1 $172 $171 $379 $380 forward $69 $-1 #
coedge $-1 $381 $382 $171 $258 reversed $383 $-1 #
edge $-1 $265 -0.1529999999999999694 $384 -0 $171 $385 reversed 7 unknown #
coedge $-1 $386 $387 $172 $260 reversed $388 $-1 #
edge $-1 $389 -0.1529999999999999694 $264 -0 $172 $390 reversed 7 unknown #
coedge $-1 $391 $173 $387 $392 reversed $263 $-1 #
coedge $-1 $173 $254 $381 $393 reversed $263 $-1 #
loop $-1 $-1 $261 $394 #
vertex $-1 $174 $395 #
vertex $-1 $174 $396 #
ellipse-curve $-1 1.457000000000000073 1.261499999999999844 0.1330000000000000071 0 0 -1 0.005000000000000000104 0 0 1 I I #
coedge $-1 $397 $398 $175 $268 reversed $399 $-1 #
edge $-1 $400 -1.570796326794896558 $272 0 $175 $401 forward 7 unknown #
coedge $-1 $402 $176 $398 $403 reversed $271 $-1 #
coedge $-1 $176 $402 $178 $275 reversed $271 $-1 #
loop $-1 $-1 $402 $404 #
vertex $-1 $268 $405 #
straight-curve $-1 1.562000000000000277 1.578999999999999959 0.07000000000000000666 0 -1 0 I I #
coedge $-1 $179 $178 $326 $406 forward $180 $-1 #
edge $-1 $181 -0.07000000000000000666 $407 -0 $178 $408 reversed 7 unknown #
face $-1 $234 $180 $2 $-1 $409 forward single #
point $-1 1.562000000000000277 1.578999999999999959 0.07000000000000000666 #
vertex $-1 $183 $410 #
straight-curve $-1 1.312000000000000055 1.829000000000000181 0.07000000000000000666 0 0 -1 I I #
coedge $-1 $411 $185 $355 $412 forward $187 $-1 #
edge $-1 $188 0 $359 1.570796326794896558 $185 $413 forward 7 unknown #
coedge $-1 $186 $414 $415 $416 forward $187 $-1 #
coedge $-1 $417 $418 $419 $420 forward $187 $-1 #
point $-1 0.4220000000000000417 1.723999999999999977 0.2859999999999999765 #
coedge $-1 $415 $195 $190 $286 reversed $295 $-1 #
edge $-1 $287 0 $197 0.2269999999999999796 $190 $421 forward 7 unknown #
vertex $-1 $416 $422 #
ellipse-curve $-1 0.2690000000000000169 1.564500000000000002 0.2859999999999999765 0 0 1 0.1529999999999999971 0 0 1 I I #
face $-1 $423 $295 $2 $-1 $424 reversed single #
cone-surface $-1 0.2690000000000000169 1.564500000000000002 0.2859999999999999765 0 0 -1 0.1529999999999999971 0 0 1 I I 0 1 0.1529999999999999971 forward I I I I #
coedge $-1 $425 $194 $426 $427 reversed $78 $-1 #
coedge $-1 $428 $429 $194 $293 forward $430 $-1 #
edge $-1 $431 -3.141592653589793116 $296 -2.355532249370442255 $292 $432 reversed 7 unknown #
coedge $-1 $195 $415 $428 $433 forward $295 $-1 #
loop $-1 $-1 $285 $289 #
vertex $-1 $433 $434 #
straight-curve $-1 0.2221648419466071001 1.301495308083460589 0.05900000000000000383 0.7075749010728706878 0.7066383511894307468 0 I I #
point $-1 0.377115667731983073 1.45624104013585054 0.05900000000000000383 #
face $-1 $435 $436 $2 $-1 $437 reversed single #
loop $-1 $-1 $438 $199 #
plane-surface $-1 1.302000000000000046 0.2824999999999999734 0.1360000000000000098 0 0 -1 -1 0 0 forward_v I I I I #
coedge $-1 $201 $439 $440 $441 reversed $78 $-1 #
coedge $-1 $442 $203 $201 $304 forward $308 $-1 #
edge $-1 $205 -3.141592653589793116 $443 -2.355532249370435594 $303 $444 forward 7 unknown #
coedge $-1 $445 $446 $202 $306 forward $250 $-1 #
edge $-1 $313 0 $309 0.1594999999999999751 $305 $447 forward 7 unknown #
coedge $-1 $203 $442 $445 $448 reversed $308 $-1 #
loop $-1 $-1 $442 $449 #
vertex $-1 $306 $450 #
straight-curve $-1 1.139999999999999902 1.564500000000000002 0.2859999999999999765 0 0 -1 I I #
point $-1 1.139999999999999902 1.564500000000000002 0.05900000000000000383 #
coedge $-1 $213 $207 $446 $451 reversed $214 $-1 #
vertex $-1 $451 $452 #
straight-curve $-1 1.139999999999999902 1.723999999999999977 0.2859999999999999765 0 0 -1 I I #
coedge $-1 $453 $210 $454 $455 forward $20 $-1 #
coedge $-1 $456 $457 $210 $317 reversed $458 $-1 #
edge $-1 $321 -1.570796326794896558 $459 -0 $210 $460 reversed 7 unknown #
coedge $-1 $461 $211 $213 $323 reversed $320 $-1 #
coedge $-1 $211 $461 $456 $462 forward $320 $-1 #
loop $-1 $-1 $211 $361 #
vertex $-1 $212 $463 #
straight-curve $-1 1.298999999999999932 1.729000000000000092 0.07000000000000000666 -1 0 0 I I #
edge $-1 $464 -0.2159999999999999698 $215 -0 $213 $465 reversed 7 unknown #
face $-1 $245 $214 $2 $-1 $466 forward single #
point $-1 1.145000000000000018 1.729000000000000092 0.07000000000000000666 #
coedge $-1 $467 $220 $274 $406 reversed $328 $-1 #
coedge $-1 $220 $468 $222 $330 reversed $328 $-1 #
loop $-1 $-1 $468 $469 #
straight-curve $-1 1.312000000000000055 1.829000000000000181 0 -1 0 0 I I #
edge $-1 $223 1.570796326794896558 $343 3.141592653589793116 $222 $470 reversed 7 unknown #
point $-1 0.25 1.829000000000000181 0 #
coedge $-1 $471 $472 $225 $333 reversed $473 $-1 #
edge $-1 $337 -1.062000000000000055 $400 -0 $225 $474 reversed 7 unknown #
coedge $-1 $475 $226 $229 $340 forward $336 $-1 #
coedge $-1 $226 $475 $471 $476 forward $336 $-1 #
loop $-1 $-1 $475 $477 #
vertex $-1 $227 $478 #
ellipse-curve $-1 0.25 0.25 0.07000000000000000666 0 0 1 0.25 0 0 1 I I #
coedge $-1 $229 $228 $468 $479 reversed $230 $-1 #
edge $-1 $231 -0.07000000000000000666 $480 -0 $334 $481 reversed 7 unknown #
face $-1 $482 $230 $2 $-1 $483 forward single #
point $-1 0 0.25 0.07000000000000000666 #
vertex $-1 $330 $484 #
straight-curve $-1 0 1.578999999999999959 0.07000000000000000666 0 0 -1 I I #
face $-1 $404 $473 $2 $-1 $485 forward single #
cone-surface $-1 0.25 1.578999999999999959 0 0 0 1 0.25 0 0 1 I I 0 1 0.25 forward I I I I #
coedge $-1 $236 $486 $487 $488 forward $20 $-1 #
coedge $-1 $489 $490 $236 $349 reversed $491 $-1 #
edge $-1 $492 -1.30300000000000038 $353 -0 $236 $493 reversed 7 unknown #
coedge $-1 $494 $237 $490 $495 forward $352 $-1 #
coedge $-1 $237 $494 $239 $356 reversed $352 $-1 #
loop $-1 $-1 $237 $496 #
vertex $-1 $349 $497 #
ellipse-curve $-1 0.2630000000000000115 1.566000000000000281 0.07000000000000000666 0 0 -1 0.163000000000000006 0 0 1 I I #
coedge $-1 $240 $239 $280 $412 reversed $241 $-1 #
edge $-1 $242 0 $498 0.2159999999999999698 $239 $499 forward 7 unknown #
face $-1 $192 $241 $2 $-1 $500 forward single #
point $-1 0.2630000000000000115 1.729000000000000092 0.07000000000000000666 #
vertex $-1 $281 $501 #
straight-curve $-1 0.4170000000000000373 1.729000000000000092 0.2859999999999999765 0 0 -1 I I #
face $-1 $357 $320 $2 $-1 $502 forward single #
cone-surface $-1 0.4170000000000000373 1.723999999999999977 0.2859999999999999765 0 0 -1 0.005000000000000000104 0 0 1 I I 0 1 0.005000000000000000104 forward I I I I #
face $-1 $503 $383 $2 $-1 $504 forward single #
loop $-1 $505 $506 $247 #
plane-surface $-1 0.7810000000000001386 0.9145000000000000906 0.2859999999999999765 0 0 1 1 0 0 forward_v I I I I #
coedge $-1 $371 $507 $508 $509 forward $248 $-1 #
coedge $-1 $379 $510 $386 $511 forward $250 $-1 #
coedge $-1 $368 $368 $251 $369 reversed $512 $-1 #
edge $-1 $513 -6.283185307179586232 $513 -0 $251 $514 reversed 7 unknown #
coedge $-1 $253 $252 $417 $515 forward $112 $-1 #
coedge $-1 $516 $366 $252 $372 reversed $248 $-1 #
edge $-1 $377 -0.1529999999999999694 $517 -0 $252 $518 reversed 7 unknown #
coedge $-1 $419 $381 $253 $374 reversed $383 $-1 #
edge $-1 $519 -0.1529999999999999694 $376 -0 $253 $520 reversed 7 unknown #
coedge $-1 $254 $521 $516 $522 reversed $263 $-1 #
vertex $-1 $255 $523 #
vertex $-1 $255 $524 #
ellipse-curve $-1 1.457000000000000073 0.5235000000000000764 0.1330000000000000071 0 0 -1 0.005000000000000000104 0 0 1 I I #
coedge $-1 $525 $367 $256 $380 reversed $250 $-1 #
edge $-1 $384 -0 $389 1.570796326794896558 $256 $526 reversed 7 unknown #
coedge $-1 $373 $257 $262 $393 forward $383 $-1 #
coedge $-1 $257 $527 $525 $528 reversed $383 $-1 #
loop $-1 $-1 $381 $363 #
vertex $-1 $258 $529 #
straight-curve $-1 1.462000000000000188 1.261499999999999844 0.2859999999999999765 0 0 -1 I I #
coedge $-1 $530 $259 $367 $511 reversed $388 $-1 #
coedge $-1 $259 $530 $261 $392 forward $388 $-1 #
loop $-1 $-1 $387 $531 #
vertex $-1 $380 $532 #
straight-curve $-1 1.457000000000000073 1.256500000000000172 0.1330000000000000071 0 0 1 I I #
coedge $-1 $533 $261 $534 $535 reversed $263 $-1 #
edge $-1 $536 0 $264 0.008794851715761886624 $387 $537 forward 7 unknown #
edge $-1 $265 0 $376 0.7379999999999997673 $381 $538 forward 7 unknown #
face $-1 $539 $263 $2 $-1 $540 forward single #
point $-1 1.457000000000000073 1.256500000000000172 0.1330000000000000071 #
point $-1 1.462000000000000188 1.261499999999999844 0.1330000000000000071 #
coedge $-1 $541 $267 $472 $542 forward $399 $-1 #
coedge $-1 $267 $541 $269 $403 forward $399 $-1 #
loop $-1 $-1 $541 $543 #
vertex $-1 $333 $544 #
ellipse-curve $-1 1.312000000000000055 0.25 0.07000000000000000666 0 0 1 0.25 0 0 1 I I #
coedge $-1 $270 $269 $467 $545 forward $271 $-1 #
edge $-1 $546 -0.07000000000000000666 $272 -0 $398 $547 reversed 7 unknown #
face $-1 $469 $271 $2 $-1 $548 forward single #
point $-1 1.562000000000000277 0.25 0.07000000000000000666 #
edge $-1 $407 -0 $278 1.570796326794896558 $274 $549 reversed 7 unknown #
vertex $-1 $406 $550 #
straight-curve $-1 1.562000000000000277 1.578999999999999959 0 0 0 1 I I #
cone-surface $-1 1.312000000000000055 1.578999999999999959 0 0 0 -1 0.25 0 0 1 I I 0 1 0.25 forward I I I I #
point $-1 1.312000000000000055 1.829000000000000181 0 #
coedge $-1 $551 $280 $494 $552 forward $187 $-1 #
edge $-1 $359 -0.1540000000000000258 $498 -0 $280 $553 reversed 7 unknown #
ellipse-curve $-1 0.4170000000000000373 1.723999999999999977 0.2859999999999999765 0 0 1 0.005000000000000000104 0 0 1 I I #
coedge $-1 $282 $554 $555 $556 forward $187 $-1 #
coedge $-1 $294 $285 $282 $416 reversed $295 $-1 #
edge $-1 $557 0 $287 0.2189885841773492881 $282 $558 forward 7 unknown #
coedge $-1 $508 $283 $370 $515 reversed $187 $-1 #
coedge $-1 $283 $559 $560 $561 forward $187 $-1 #
coedge $-1 $562 $373 $283 $420 reversed $383 $-1 #
edge $-1 $563 -0.2605000000000000648 $519 -0 $283 $564 reversed 7 unknown #
straight-curve $-1 0.377115667731983073 1.45624104013585054 0.2859999999999999765 0 0 -1 I I #
point $-1 0.377115667731983073 1.45624104013585054 0.2859999999999999765 #
face $-1 $565 $430 $2 $-1 $566 reversed single #
plane-surface $-1 0.2996402548392952947 1.378868174109655564 0.2859999999999999765 -0.7066383511894313019 0.7075749010728702437 0 0 0 1 forward_v I I I I #
coedge $-1 $567 $291 $568 $569 reversed $78 $-1 #
coedge $-1 $570 $571 $291 $427 forward $572 $-1 #
edge $-1 $573 -0.5760000000000000675 $431 -0 $426 $574 reversed 7 unknown #
coedge $-1 $555 $292 $294 $433 reversed $430 $-1 #
coedge $-1 $292 $555 $570 $575 forward $430 $-1 #
loop $-1 $-1 $428 $423 #
vertex $-1 $575 $576 #
ellipse-curve $-1 0.3430000000000000271 1.180500000000000105 0.05900000000000000383 0 0 1 0.1710000000000000131 0 0 1 I I #
edge $-1 $557 0 $296 0.2269999999999999796 $294 $577 forward 7 unknown #
point $-1 0.2221648419466071001 1.301495308083460589 0.05900000000000000383 #
face $-1 $578 $579 $2 $-1 $580 reversed single #
loop $-1 $581 $582 $299 #
cone-surface $-1 1.302000000000000046 0.2824999999999999734 0.2859999999999999765 0 0 -1 0.05800000000000000294 0 0 1 I I 0 1 0.05800000000000000294 forward I I I I #
coedge $-1 $438 $438 $582 $583 forward $300 $-1 #
coedge $-1 $302 $584 $585 $586 reversed $78 $-1 #
coedge $-1 $587 $588 $302 $441 forward $589 $-1 #
edge $-1 $443 -0.2189885841773493436 $590 -0 $440 $591 reversed 7 unknown #
coedge $-1 $307 $303 $588 $592 reversed $308 $-1 #
vertex $-1 $592 $593 #
ellipse-curve $-1 1.293000000000000149 1.564500000000000002 0.05900000000000000383 0 0 1 0.1529999999999999971 0 0 1 I I #
coedge $-1 $594 $305 $307 $448 forward $250 $-1 #
coedge $-1 $305 $595 $312 $451 forward $250 $-1 #
straight-curve $-1 1.139999999999999902 1.723999999999999977 0.2859999999999999765 0 -1 0 I I #
edge $-1 $309 -3.141592653589793116 $596 -2.355532249370435594 $445 $597 forward 7 unknown #
face $-1 $138 $308 $2 $-1 $598 forward single #
point $-1 1.139999999999999902 1.564500000000000002 0.2859999999999999765 #
edge $-1 $464 1.570796326794896558 $313 3.141592653589793116 $446 $599 forward 7 unknown #
point $-1 1.139999999999999902 1.723999999999999977 0.2859999999999999765 #
coedge $-1 $486 $315 $600 $601 forward $20 $-1 #
coedge $-1 $527 $562 $315 $455 reversed $383 $-1 #
edge $-1 $459 -1.30300000000000038 $602 -0 $315 $603 reversed 7 unknown #
coedge $-1 $604 $316 $319 $462 reversed $458 $-1 #
coedge $-1 $316 $604 $527 $605 reversed $458 $-1 #
loop $-1 $-1 $316 $606 #
vertex $-1 $317 $607 #
ellipse-curve $-1 1.298999999999999932 1.566000000000000281 0.07000000000000000666 0 0 1 0.163000000000000006 0 0 1 I I #
coedge $-1 $319 $318 $595 $608 reversed $320 $-1 #
edge $-1 $609 0 $321 0.2159999999999999698 $319 $610 forward 7 unknown #
point $-1 1.298999999999999932 1.729000000000000092 0.07000000000000000666 #
vertex $-1 $608 $611 #
straight-curve $-1 1.145000000000000018 1.729000000000000092 0.07000000000000000666 0 0 1 I I #
cone-surface $-1 1.145000000000000018 1.723999999999999977 0.2859999999999999765 0 0 -1 0.005000000000000000104 0 0 1 I I 0 1 0.005000000000000000104 forward I I I I #
coedge $-1 $612 $326 $402 $545 reversed $328 $-1 #
coedge $-1 $327 $613 $339 $479 forward $328 $-1 #
face $-1 $341 $328 $2 $-1 $614 forward single #
ellipse-curve $-1 0.25 1.578999999999999959 0 0 0 -1 0.25 0 0 1 I I #
coedge $-1 $615 $332 $335 $476 reversed $473 $-1 #
coedge $-1 $332 $615 $397 $542 reversed $473 $-1 #
loop $-1 $-1 $615 $345 #
straight-curve $-1 1.312000000000000055 0 0.07000000000000000666 -1 0 0 I I #
coedge $-1 $335 $334 $613 $616 forward $336 $-1 #
edge $-1 $617 -0.07000000000000000666 $337 -0 $335 $618 reversed 7 unknown #
face $-1 $543 $336 $2 $-1 $619 forward single #
point $-1 0.25 0 0.07000000000000000666 #
edge $-1 $480 -1.328999999999999959 $343 -0 $468 $620 reversed 7 unknown #
vertex $-1 $616 $621 #
straight-curve $-1 0 0.25 0 0 0 1 I I #
face $-1 $622 $623 $2 $-1 $624 forward single #
plane-surface $-1 0 0.8145000000000000018 0 -1 0 0 0 0 1 forward_v I I I I #
point $-1 0 1.578999999999999959 0 #
plane-surface $-1 0.7810000000000001386 0 0 0 -1 0 0 0 -1 forward_v I I I I #
coedge $-1 $347 $453 $625 $626 forward $20 $-1 #
coedge $-1 $627 $628 $347 $488 reversed $623 $-1 #
edge $-1 $629 1.570796326794896558 $492 3.141592653589793116 $347 $630 reversed 7 unknown #
coedge $-1 $631 $348 $628 $632 reversed $491 $-1 #
coedge $-1 $348 $631 $350 $495 reversed $491 $-1 #
loop $-1 $-1 $631 $633 #
vertex $-1 $488 $634 #
straight-curve $-1 0.1000000000000000056 1.566000000000000281 0.07000000000000000666 0 -1 0 I I #
coedge $-1 $351 $350 $411 $552 reversed $352 $-1 #
edge $-1 $353 -0.2159999999999999698 $635 -0 $350 $636 reversed 7 unknown #
face $-1 $637 $352 $2 $-1 $638 forward single #
point $-1 0.1000000000000000056 1.566000000000000281 0.07000000000000000666 #
vertex $-1 $412 $639 #
straight-curve $-1 0.2630000000000000115 1.729000000000000092 0.07000000000000000666 0 0 1 I I #
plane-surface $-1 0.7810000000000001386 1.729000000000000092 0.07000000000000000666 0 1 0 0 0 1 forward_v I I I I #
point $-1 0.4170000000000000373 1.729000000000000092 0.2859999999999999765 #
plane-surface $-1 0.7810000000000001386 1.729000000000000092 0.07000000000000000666 0 1 0 0 0 1 forward_v I I I I #
face $-1 $640 $641 $2 $-1 $642 forward single #
plane-surface $-1 1.462000000000000188 0.9145000000000000906 0.07000000000000000666 1 0 0 0 0 -1 forward_v I I I I #
loop $-1 $643 $644 $247 #
coedge $-1 $506 $506 $645 $646 forward $364 $-1 #
coedge $-1 $366 $516 $647 $648 forward $248 $-1 #
coedge $-1 $649 $417 $366 $509 reversed $187 $-1 #
edge $-1 $650 -0.008794851715761886624 $517 -0 $366 $651 reversed 7 unknown #
coedge $-1 $367 $652 $653 $654 forward $250 $-1 #
edge $-1 $655 -0.008794851715761886624 $389 -0 $367 $656 reversed 7 unknown #
loop $-1 $-1 $368 $657 #
vertex $-1 $369 $658 #
ellipse-curve $-1 1.302000000000000046 1.568500000000000005 0.2859999999999999765 0 0 1 0.05800000000000000294 0 0 1 I I #
edge $-1 $517 -1.570796326794896558 $519 -0 $370 $659 reversed 7 unknown #
coedge $-1 $507 $371 $375 $522 forward $248 $-1 #
vertex $-1 $372 $660 #
straight-curve $-1 1.457000000000000073 0.5285000000000000808 0.2859999999999999765 0 0 -1 I I #
vertex $-1 $515 $661 #
straight-curve $-1 1.462000000000000188 0.5235000000000000764 0.1330000000000000071 0 0 1 I I #
coedge $-1 $375 $662 $663 $664 reversed $263 $-1 #
edge $-1 $377 -0.008794851715761886624 $665 -0 $516 $666 reversed 7 unknown #
point $-1 1.462000000000000188 0.5235000000000000764 0.1330000000000000071 #
point $-1 1.457000000000000073 0.5285000000000000808 0.1330000000000000071 #
coedge $-1 $667 $379 $382 $528 forward $250 $-1 #
ellipse-curve $-1 1.457000000000000073 1.261499999999999844 0.2859999999999999765 0 0 1 0.005000000000000000104 0 0 1 I I #
coedge $-1 $382 $454 $457 $605 forward $383 $-1 #
edge $-1 $384 -0.304500000000000437 $668 -0 $525 $669 reversed 7 unknown #
point $-1 1.462000000000000188 1.261499999999999844 0.2859999999999999765 #
coedge $-1 $387 $386 $670 $671 reversed $388 $-1 #
face $-1 $394 $388 $2 $-1 $672 reversed single #
point $-1 1.457000000000000073 1.256500000000000172 0.2859999999999999765 #
coedge $-1 $673 $391 $674 $675 forward $263 $-1 #
coedge $-1 $670 $676 $391 $535 forward $677 $-1 #
edge $-1 $678 -2.356642211636105433 $536 -1.570796326794896558 $534 $679 forward 7 unknown #
vertex $-1 $535 $680 #
straight-curve $-1 1.448205148284238186 1.256500000000000172 0.1330000000000000071 1 0 0 I I #
straight-curve $-1 1.462000000000000188 1.261499999999999844 0.1330000000000000071 0 -1 0 I I #
face $-1 $681 $682 $2 $-1 $683 reversed single #
plane-surface $-1 1.448205148284238186 0.3755000000000000004 0.1330000000000000071 0 0 1 1 0 0 forward_v I I I I #
coedge $-1 $398 $397 $612 $684 forward $399 $-1 #
edge $-1 $400 -0.07000000000000000666 $685 -0 $397 $686 reversed 7 unknown #
face $-1 $276 $399 $2 $-1 $687 forward single #
point $-1 1.312000000000000055 0 0.07000000000000000666 #
edge $-1 $546 0 $407 1.328999999999999959 $402 $688 forward 7 unknown #
vertex $-1 $684 $689 #
straight-curve $-1 1.562000000000000277 0.25 0.07000000000000000666 0 0 -1 I I #
plane-surface $-1 1.562000000000000277 0.8145000000000000018 0 1 0 0 0 0 -1 forward_v I I I I #
ellipse-curve $-1 1.312000000000000055 1.578999999999999959 0 0 0 -1 0.25 0 0 1 I I #
point $-1 1.562000000000000277 1.578999999999999959 0 #
coedge $-1 $690 $411 $631 $691 forward $187 $-1 #
edge $-1 $498 1.570796326794896558 $635 3.141592653589793116 $411 $692 forward 7 unknown #
straight-curve $-1 0.2630000000000000115 1.729000000000000092 0.2859999999999999765 1 0 0 I I #
coedge $-1 $414 $693 $694 $695 forward $187 $-1 #
coedge $-1 $429 $428 $414 $556 reversed $430 $-1 #
edge $-1 $696 -3.141592653589793116 $557 -2.355532249370442255 $414 $697 reversed 7 unknown #
vertex $-1 $556 $698 #
straight-curve $-1 0.2221648419466071001 1.301495308083460589 0.2859999999999999765 0.7075749010728706878 0.7066383511894307468 0 I I #
coedge $-1 $418 $690 $699 $700 forward $187 $-1 #
coedge $-1 $701 $702 $418 $561 reversed $703 $-1 #
edge $-1 $704 -1.570796326794896558 $563 0 $418 $705 forward 7 unknown #
coedge $-1 $454 $419 $702 $706 forward $383 $-1 #
vertex $-1 $420 $707 #
straight-curve $-1 1.462000000000000188 0.5235000000000000764 0.2859999999999999765 0 -1 0 I I #
face $-1 $708 $572 $2 $-1 $709 forward single #
cone-surface $-1 0.3430000000000000271 1.180500000000000105 0.2859999999999999765 0 0 -1 0.1710000000000000131 0 0 1 I I 0 1 0.1710000000000000131 forward I I I I #
coedge $-1 $710 $425 $711 $712 reversed $78 $-1 #
coedge $-1 $713 $714 $425 $569 forward $715 $-1 #
edge $-1 $716 1.570796326794896558 $573 3.141592653589793116 $568 $717 reversed 7 unknown #
coedge $-1 $694 $426 $429 $575 reversed $572 $-1 #
coedge $-1 $426 $694 $713 $718 forward $572 $-1 #
loop $-1 $-1 $570 $565 #
vertex $-1 $718 $719 #
straight-curve $-1 0.172000000000000014 1.180500000000000105 0.05900000000000000383 0 -1 0 I I #
edge $-1 $696 0 $431 0.2269999999999999796 $429 $720 forward 7 unknown #
point $-1 0.172000000000000014 1.180500000000000105 0.05900000000000000383 #
straight-curve $-1 0.2221648419466071001 1.301495308083460589 0.2859999999999999765 0 0 -1 I I #
face $-1 $721 $722 $2 $-1 $723 reversed single #
loop $-1 $-1 $724 $435 #
plane-surface $-1 0.2600000000000000089 0.2824999999999999734 0.1360000000000000098 0 0 -1 -1 0 0 forward_v I I I I #
loop $-1 $-1 $725 $299 #
coedge $-1 $582 $582 $438 $583 reversed $436 $-1 #
edge $-1 $726 0 $726 6.283185307179586232 $438 $727 forward 7 unknown #
coedge $-1 $439 $710 $728 $729 reversed $78 $-1 #
coedge $-1 $730 $731 $439 $586 forward $732 $-1 #
edge $-1 $590 -0.7860604042193477525 $733 -0 $585 $734 reversed 7 unknown #
coedge $-1 $735 $440 $731 $736 reversed $589 $-1 #
coedge $-1 $440 $735 $442 $592 forward $589 $-1 #
loop $-1 $-1 $587 $737 #
vertex $-1 $736 $738 #
straight-curve $-1 1.339835158053393815 1.301495308083460589 0.05900000000000000383 -0.7075749010728711319 0.7066383511894304137 0 I I #
edge $-1 $596 0 $443 0.2269999999999999796 $588 $739 forward 7 unknown #
point $-1 1.184884332268017815 1.45624104013585054 0.05900000000000000383 #
coedge $-1 $652 $445 $735 $740 forward $250 $-1 #
coedge $-1 $446 $667 $461 $608 forward $250 $-1 #
vertex $-1 $448 $741 #
ellipse-curve $-1 1.293000000000000149 1.564500000000000002 0.2859999999999999765 0 0 1 0.1529999999999999971 0 0 1 I I #
cone-surface $-1 1.293000000000000149 1.564500000000000002 0.2859999999999999765 0 0 -1 0.1529999999999999971 0 0 1 I I 0 1 0.1529999999999999971 forward I I I I #
ellipse-curve $-1 1.145000000000000018 1.723999999999999977 0.2859999999999999765 0 0 1 0.005000000000000000104 0 0 1 I I #
coedge $-1 $702 $701 $453 $601 reversed $703 $-1 #
edge $-1 $602 -0 $742 1.570796326794896558 $453 $743 reversed 7 unknown #
vertex $-1 $455 $744 #
straight-curve $-1 1.462000000000000188 0.2630000000000000115 0.07000000000000000666 0 1 0 I I #
coedge $-1 $457 $456 $667 $745 reversed $458 $-1 #
edge $-1 $459 0 $668 0.2159999999999999698 $527 $746 forward 7 unknown #
face $-1 $496 $458 $2 $-1 $747 forward single #
point $-1 1.462000000000000188 1.566000000000000281 0.07000000000000000666 #
edge $-1 $609 -0.1539999999999999147 $464 -0 $595 $748 reversed 7 unknown #
vertex $-1 $745 $749 #
straight-curve $-1 1.298999999999999932 1.729000000000000092 0.2859999999999999765 0 0 -1 I I #
point $-1 1.145000000000000018 1.729000000000000092 0.2859999999999999765 #
coedge $-1 $750 $467 $541 $684 reversed $328 $-1 #
coedge $-1 $468 $750 $475 $616 reversed $328 $-1 #
plane-surface $-1 0.7810000000000001386 0.8145000000000000018 0 0 0 -1 -1 0 0 forward_v I I I I #
coedge $-1 $472 $471 $750 $751 forward $473 $-1 #
edge $-1 $480 -3.141592653589793116 $617 -1.570796326794896558 $475 $752 reversed 7 unknown #
vertex $-1 $616 $753 #
straight-curve $-1 0.25 0 0.07000000000000000666 0 0 -1 I I #
cone-surface $-1 0.25 0.25 0 0 0 1 0.25 0 0 1 I I 0 1 0.25 forward I I I I #
straight-curve $-1 0 1.578999999999999959 0 0 -1 0 I I #
point $-1 0 0.25 0 #
face $-1 $606 $703 $2 $-1 $754 forward single #
loop $-1 $-1 $487 $482 #
cone-surface $-1 0.2630000000000000115 0.2630000000000000115 0.07000000000000000666 0 0 1 0.163000000000000006 0 0 1 I I 0 1 0.163000000000000006 forward I I I I #
coedge $-1 $755 $756 $486 $626 reversed $757 $-1 #
edge $-1 $742 -1.036000000000000032 $629 -0 $486 $758 reversed 7 unknown #
coedge $-1 $759 $487 $756 $760 forward $623 $-1 #
coedge $-1 $487 $759 $489 $632 forward $623 $-1 #
vertex $-1 $626 $761 #
ellipse-curve $-1 0.2630000000000000115 0.2630000000000000115 0.07000000000000000666 0 0 1 0.163000000000000006 0 0 1 I I #
coedge $-1 $490 $489 $551 $691 reversed $491 $-1 #
edge $-1 $762 -0.2159999999999999698 $492 -0 $628 $763 reversed 7 unknown #
face $-1 $-1 $491 $2 $-1 $764 forward single #
point $-1 0.1000000000000000056 0.2630000000000000115 0.07000000000000000666 #
vertex $-1 $552 $765 #
straight-curve $-1 0.1000000000000000056 1.566000000000000281 0.2859999999999999765 0 0 -1 I I #
face $-1 $633 $757 $2 $-1 $766 forward single #
cone-surface $-1 0.2630000000000000115 1.566000000000000281 0.07000000000000000666 0 0 1 0.163000000000000006 0 0 1 I I 0 1 0.163000000000000006 forward I I I I #
point $-1 0.2630000000000000115 1.729000000000000092 0.2859999999999999765 #
face $-1 $531 $677 $2 $-1 $767 forward single #
loop $-1 $-1 $768 $503 #
cone-surface $-1 1.448205148284238186 0.3755000000000000004 0.3860000000000000098 0 0 -1 0.1529999999999999971 0 0 1 I I 0 1 0.1529999999999999971 forward I I I I #
loop $-1 $187 $769 $247 #
coedge $-1 $644 $644 $770 $771 forward $505 $-1 #
coedge $-1 $645 $645 $506 $646 reversed $772 $-1 #
edge $-1 $773 -6.283185307179586232 $773 -0 $506 $774 reversed 7 unknown #
coedge $-1 $663 $768 $507 $648 reversed $641 $-1 #
edge $-1 $665 -0.1529999999999999694 $650 -0 $507 $775 reversed 7 unknown #
coedge $-1 $776 $508 $768 $777 forward $187 $-1 #
vertex $-1 $509 $778 #
straight-curve $-1 1.457000000000000073 0.5285000000000000808 0.2859999999999999765 -1 0 0 I I #
coedge $-1 $510 $594 $779 $780 forward $250 $-1 #
coedge $-1 $676 $670 $510 $654 reversed $677 $-1 #
edge $-1 $781 -2.356642211636105433 $655 -1.570796326794896558 $510 $782 reversed 7 unknown #
vertex $-1 $511 $783 #
straight-curve $-1 1.457000000000000073 1.256500000000000172 0.2859999999999999765 -1 0 0 I I #
face $-1 $477 $784 $2 $-1 $785 reversed single #
point $-1 1.359999999999999876 1.568500000000000005 0.2859999999999999765 #
ellipse-curve $-1 1.457000000000000073 0.5235000000000000764 0.2859999999999999765 0 0 1 0.005000000000000000104 0 0 1 I I #
point $-1 1.457000000000000073 0.5285000000000000808 0.2859999999999999765 #
point $-1 1.462000000000000188 0.5235000000000000764 0.2859999999999999765 #
coedge $-1 $521 $673 $786 $787 forward $263 $-1 #
coedge $-1 $788 $647 $521 $664 forward $641 $-1 #
edge $-1 $665 1.570796326794896558 $789 2.35664221163610943 $663 $790 forward 7 unknown #
vertex $-1 $522 $791 #
straight-curve $-1 1.448205148284238186 0.5285000000000000808 0.1330000000000000071 1 0 0 I I #
coedge $-1 $595 $525 $604 $745 forward $250 $-1 #
vertex $-1 $528 $792 #
straight-curve $-1 1.462000000000000188 1.566000000000000281 0.2859999999999999765 0 -1 0 I I #
coedge $-1 $653 $534 $530 $671 forward $677 $-1 #
edge $-1 $536 -0.1529999999999999694 $655 -0 $670 $793 reversed 7 unknown #
plane-surface $-1 1.505102574142120009 1.256500000000000172 0.3860000000000000098 3.000847525694670117e-16 1 0 0 0 1 forward_v I I I I #
coedge $-1 $662 $533 $794 $795 forward $263 $-1 #
coedge $-1 $796 $730 $533 $675 reversed $732 $-1 #
edge $-1 $678 -0.7849504419536793565 $797 -0 $533 $798 reversed 7 unknown #
coedge $-1 $534 $653 $796 $799 forward $677 $-1 #
loop $-1 $-1 $653 $640 #
vertex $-1 $799 $800 #
ellipse-curve $-1 1.448205148284238186 1.409500000000000197 0.1330000000000000071 0 0 1 0.1529999999999999971 0 0 1 I I #
point $-1 1.448205148284238186 1.256500000000000172 0.1330000000000000071 #
face $-1 $324 $801 $2 $-1 $802 forward single #
loop $-1 $-1 $803 $539 #
cone-surface $-1 1.219000000000000083 0.6045000000000000373 0.2859999999999999765 0 0 -1 0.1710000000000000131 0 0 1 I I 0 1 0.1710000000000000131 forward I I I I #
edge $-1 $685 -1.570796326794896558 $546 -0 $541 $804 reversed 7 unknown #
vertex $-1 $684 $805 #
straight-curve $-1 1.312000000000000055 0 0 0 0 1 I I #
cone-surface $-1 1.312000000000000055 0.25 0 0 0 -1 0.25 0 0 1 I I 0 1 0.25 forward I I I I #
straight-curve $-1 1.562000000000000277 0.25 0 0 1 0 I I #
point $-1 1.562000000000000277 0.25 0 #
coedge $-1 $559 $551 $759 $806 forward $187 $-1 #
edge $-1 $635 -1.30300000000000038 $762 -0 $551 $807 reversed 7 unknown #
ellipse-curve $-1 0.2630000000000000115 1.566000000000000281 0.2859999999999999765 0 0 1 0.163000000000000006 0 0 1 I I #
coedge $-1 $554 $808 $809 $810 forward $187 $-1 #
coedge $-1 $571 $570 $554 $695 reversed $572 $-1 #
edge $-1 $811 -0.5760000000000000675 $696 -0 $554 $812 reversed 7 unknown #
vertex $-1 $695 $813 #
ellipse-curve $-1 0.3430000000000000271 1.180500000000000105 0.2859999999999999765 0 0 1 0.1710000000000000131 0 0 1 I I #
point $-1 0.2221648419466071001 1.301495308083460589 0.2859999999999999765 #
coedge $-1 $756 $755 $559 $700 reversed $757 $-1 #
edge $-1 $814 -1.036000000000000032 $704 -0 $559 $815 reversed 7 unknown #
coedge $-1 $600 $560 $755 $816 forward $703 $-1 #
coedge $-1 $560 $600 $562 $706 reversed $703 $-1 #
loop $-1 $-1 $600 $622 #
vertex $-1 $700 $817 #
ellipse-curve $-1 1.298999999999999932 0.2630000000000000115 0.2859999999999999765 0 0 1 0.163000000000000006 0 0 1 I I #
edge $-1 $563 0 $602 0.2159999999999999698 $562 $818 forward 7 unknown #
point $-1 1.462000000000000188 0.2630000000000000115 0.2859999999999999765 #
face $-1 $819 $715 $2 $-1 $820 reversed single #
plane-surface $-1 0.172000000000000014 0.89249999999999996 0.2859999999999999765 1 0 0 0 0 -1 forward_v I I I I #
coedge $-1 $584 $567 $821 $822 reversed $78 $-1 #
coedge $-1 $823 $824 $567 $712 forward $825 $-1 #
edge $-1 $826 -0.8760000000000001119 $716 -0 $711 $827 reversed 7 unknown #
coedge $-1 $809 $568 $571 $718 reversed $715 $-1 #
coedge $-1 $568 $809 $823 $828 forward $715 $-1 #
loop $-1 $-1 $713 $708 #
vertex $-1 $828 $829 #
ellipse-curve $-1 0.3430000000000000271 0.6045000000000000373 0.05900000000000000383 0 0 1 0.1710000000000000131 0 0 1 I I #
edge $-1 $811 0 $573 0.2269999999999999796 $571 $830 forward 7 unknown #
point $-1 0.172000000000000014 0.6045000000000000373 0.05900000000000000383 #
straight-curve $-1 0.172000000000000014 1.180500000000000105 0.2859999999999999765 0 0 -1 I I #
face $-1 $831 $832 $2 $-1 $833 reversed single #
loop $-1 $834 $835 $578 #
cone-surface $-1 0.2600000000000000089 0.2824999999999999734 0.2859999999999999765 0 0 -1 0.05800000000000000294 0 0 1 I I 0 1 0.05800000000000000294 forward I I I I #
coedge $-1 $724 $724 $835 $836 forward $579 $-1 #
coedge $-1 $725 $725 $769 $837 reversed $581 $-1 #
vertex $-1 $583 $838 #
ellipse-curve $-1 1.302000000000000046 0.2824999999999999734 0.1360000000000000098 0 0 1 0.05800000000000000294 0 0 1 I I #
coedge $-1 $839 $840 $584 $729 forward $801 $-1 #
edge $-1 $733 -0.5760000000000000675 $841 -0 $728 $842 reversed 7 unknown #
coedge $-1 $674 $585 $840 $843 reversed $732 $-1 #
coedge $-1 $585 $779 $587 $736 forward $732 $-1 #
loop $-1 $-1 $796 $844 #
vertex $-1 $843 $845 #
ellipse-curve $-1 1.219000000000000083 1.180500000000000105 0.05900000000000000383 0 0 1 0.1710000000000000131 0 0 1 I I #
coedge $-1 $588 $587 $594 $740 reversed $589 $-1 #
edge $-1 $846 0 $590 0.2269999999999999796 $731 $847 forward 7 unknown #
face $-1 $449 $589 $2 $-1 $848 forward single #
point $-1 1.339835158053393815 1.301495308083460589 0.05900000000000000383 #
straight-curve $-1 1.184884332268017815 1.45624104013585054 0.2859999999999999765 0 0 -1 I I #
edge $-1 $596 -0.2189885841773493436 $846 -0 $594 $849 reversed 7 unknown #
point $-1 1.184884332268017815 1.45624104013585054 0.2859999999999999765 #
vertex $-1 $601 $850 #
ellipse-curve $-1 1.298999999999999932 0.2630000000000000115 0.07000000000000000666 0 0 1 0.163000000000000006 0 0 1 I I #
point $-1 1.462000000000000188 0.2630000000000000115 0.07000000000000000666 #
edge $-1 $668 0 $609 1.570796326794896558 $667 $851 forward 7 unknown #
straight-curve $-1 1.462000000000000188 1.566000000000000281 0.07000000000000000666 0 0 1 I I #
cone-surface $-1 1.298999999999999932 1.566000000000000281 0.07000000000000000666 0 0 -1 0.163000000000000006 0 0 1 I I 0 1 0.163000000000000006 forward I I I I #
straight-curve $-1 1.145000000000000018 1.729000000000000092 0.2859999999999999765 1 0 0 I I #
point $-1 1.298999999999999932 1.729000000000000092 0.2859999999999999765 #
coedge $-1 $613 $612 $615 $751 reversed $328 $-1 #
edge $-1 $617 0 $685 1.062000000000000055 $615 $852 forward 7 unknown #
ellipse-curve $-1 0.25 0.25 0 0 0 -1 0.25 0 0 1 I I #
point $-1 0.25 0 0 #
cone-surface $-1 1.298999999999999932 0.2630000000000000115 0.07000000000000000666 0 0 -1 0.163000000000000006 0 0 1 I I 0 1 0.163000000000000006 forward I I I I #
coedge $-1 $699 $625 $701 $816 reversed $757 $-1 #
coedge $-1 $625 $699 $627 $760 reversed $757 $-1 #
loop $-1 $-1 $625 $637 #
straight-curve $-1 0.2630000000000000115 0.1000000000000000056 0.07000000000000000666 1 0 0 I I #
coedge $-1 $628 $627 $690 $806 reversed $623 $-1 #
edge $-1 $629 -0.2159999999999999698 $814 -0 $627 $853 reversed 7 unknown #
point $-1 0.2630000000000000115 0.1000000000000000056 0.07000000000000000666 #
vertex $-1 $691 $854 #
straight-curve $-1 0.1000000000000000056 0.2630000000000000115 0.07000000000000000666 0 0 1 I I #
plane-surface $-1 0.1000000000000000056 0.9145000000000000906 0.07000000000000000666 -1 0 0 0 0 1 forward_v I I I I #
point $-1 0.1000000000000000056 1.566000000000000281 0.2859999999999999765 #
plane-surface $-1 0.7810000000000001386 0.1000000000000000056 0.07000000000000000666 0 -1 0 0 0 -1 forward_v I I I I #
cone-surface $-1 1.448205148284238186 1.409500000000000197 0.3860000000000000098 0 0 -1 0.1529999999999999971 0 0 1 I I 0 1 0.1529999999999999971 forward I I I I #
coedge $-1 $647 $788 $649 $777 reversed $641 $-1 #
coedge $-1 $769 $769 $725 $837 forward $643 $-1 #
coedge $-1 $770 $770 $644 $771 reversed $834 $-1 #
edge $-1 $855 -6.283185307179586232 $855 -0 $644 $856 reversed 7 unknown #
loop $-1 $-1 $645 $831 #
vertex $-1 $646 $857 #
ellipse-curve $-1 0.2600000000000000089 1.568500000000000005 0.2859999999999999765 0 0 1 0.05800000000000000294 0 0 1 I I #
straight-curve $-1 1.448205148284238186 0.5285000000000000808 0.2859999999999999765 0 0 -1 I I #
coedge $-1 $808 $649 $803 $858 forward $187 $-1 #
edge $-1 $650 1.570796326794896558 $859 2.35664221163610943 $649 $860 reversed 7 unknown #
point $-1 1.448205148284238186 0.5285000000000000808 0.2859999999999999765 #
coedge $-1 $731 $796 $652 $780 reversed $732 $-1 #
edge $-1 $846 -0.7860604042193477525 $781 -0.7849504419536793565 $652 $861 reversed 7 unknown #
vertex $-1 $780 $862 #
ellipse-curve $-1 1.448205148284238186 1.409500000000000197 0.2859999999999999765 0 0 -1 0.1529999999999999971 0 0 1 I I #
point $-1 1.448205148284238186 1.256500000000000172 0.2859999999999999765 #
loop $-1 $512 $863 $657 #
cone-surface $-1 1.302000000000000046 1.568500000000000005 0.2859999999999999765 0 0 -1 0.05800000000000000294 0 0 1 I I 0 1 0.05800000000000000294 forward I I I I #
coedge $-1 $864 $865 $662 $787 reversed $682 $-1 #
edge $-1 $866 -0 $789 0.7849504419536827982 $662 $867 reversed 7 unknown #
coedge $-1 $768 $663 $865 $868 forward $641 $-1 #
vertex $-1 $664 $869 #
ellipse-curve $-1 1.448205148284238186 0.3755000000000000004 0.1330000000000000071 0 0 1 0.1529999999999999971 0 0 1 I I #
point $-1 1.448205148284238186 0.5285000000000000808 0.1330000000000000071 #
point $-1 1.462000000000000188 1.566000000000000281 0.2859999999999999765 #
straight-curve $-1 1.448205148284238186 1.256500000000000172 0.2859999999999999765 0 0 -1 I I #
coedge $-1 $840 $839 $673 $795 reversed $801 $-1 #
edge $-1 $797 0 $866 0.5760000000000000675 $673 $870 forward 7 unknown #
coedge $-1 $779 $674 $676 $799 reversed $732 $-1 #
vertex $-1 $675 $871 #
ellipse-curve $-1 1.219000000000000083 1.180500000000000105 0.1330000000000000071 0 0 1 0.1710000000000000131 0 0 1 I I #
edge $-1 $781 0 $678 0.1529999999999999694 $676 $872 forward 7 unknown #
point $-1 1.339969383816681292 1.301361111111110302 0.1330000000000000071 #
loop $-1 $-1 $839 $681 #
plane-surface $-1 1.389999999999999902 0.89249999999999996 0.2859999999999999765 -1 0 0 0 0 1 forward_v I I I I #
coedge $-1 $865 $873 $776 $858 reversed $682 $-1 #
ellipse-curve $-1 1.312000000000000055 0.25 0 0 0 -1 0.25 0 0 1 I I #
point $-1 1.312000000000000055 0 0 #
edge $-1 $762 -3.141592653589793116 $814 -1.570796326794896558 $690 $874 forward 7 unknown #
straight-curve $-1 0.1000000000000000056 0.2630000000000000115 0.2859999999999999765 0 1 0 I I #
coedge $-1 $693 $776 $875 $876 forward $187 $-1 #
coedge $-1 $714 $713 $693 $810 reversed $715 $-1 #
edge $-1 $877 1.570796326794896558 $811 3.141592653589793116 $693 $878 reversed 7 unknown #
vertex $-1 $810 $879 #
straight-curve $-1 0.172000000000000014 1.180500000000000105 0.2859999999999999765 0 -1 0 I I #
point $-1 0.172000000000000014 1.180500000000000105 0.2859999999999999765 #
vertex $-1 $806 $880 #
straight-curve $-1 1.298999999999999932 0.1000000000000000056 0.2859999999999999765 -1 0 0 I I #
edge $-1 $704 -0.2159999999999999698 $742 -0 $701 $881 reversed 7 unknown #
point $-1 1.298999999999999932 0.1000000000000000056 0.2859999999999999765 #
straight-curve $-1 1.462000000000000188 0.2630000000000000115 0.2859999999999999765 0 0 -1 I I #
face $-1 $844 $825 $2 $-1 $882 forward single #
cone-surface $-1 0.3430000000000000271 0.6045000000000000373 0.2859999999999999765 0 0 -1 0.1710000000000000131 0 0 1 I I 0 1 0.1710000000000000131 forward I I I I #
coedge $-1 $873 $864 $710 $822 forward $682 $-1 #
edge $-1 $841 -0 $826 1.570796326794896558 $821 $883 reversed 7 unknown #
coedge $-1 $875 $711 $714 $828 reversed $825 $-1 #
coedge $-1 $711 $875 $873 $884 reversed $825 $-1 #
loop $-1 $-1 $823 $819 #
vertex $-1 $822 $885 #
straight-curve $-1 0.3430000000000000271 0.433500000000000052 0.05900000000000000383 1 0 0 I I #
edge $-1 $877 0 $716 0.2269999999999999796 $714 $886 forward 7 unknown #
point $-1 0.3430000000000000271 0.433500000000000052 0.05900000000000000383 #
straight-curve $-1 0.172000000000000014 0.6045000000000000373 0.2859999999999999765 0 0 -1 I I #
face $-1 $887 $888 $2 $-1 $889 reversed single #
loop $-1 $-1 $890 $721 #
plane-surface $-1 0.2600000000000000089 1.568500000000000005 0.1360000000000000098 0 0 -1 -1 0 0 forward_v I I I I #
loop $-1 $-1 $770 $578 #
coedge $-1 $835 $835 $724 $836 reversed $722 $-1 #
edge $-1 $891 0 $891 6.283185307179586232 $724 $892 forward 7 unknown #
edge $-1 $893 -6.283185307179586232 $893 -0 $769 $894 reversed 7 unknown #
point $-1 1.359999999999999876 0.2824999999999999734 0.1360000000000000098 #
coedge $-1 $794 $728 $864 $895 reversed $801 $-1 #
coedge $-1 $728 $794 $730 $843 forward $801 $-1 #
vertex $-1 $895 $896 #
straight-curve $-1 1.389999999999999902 0.6045000000000000373 0.05900000000000000383 0 1 0 I I #
edge $-1 $797 0 $733 0.07400000000000001021 $840 $897 forward 7 unknown #
face $-1 $737 $732 $2 $-1 $898 reversed single #
point $-1 1.389999999999999902 1.180500000000000105 0.05900000000000000383 #
vertex $-1 $740 $899 #
straight-curve $-1 1.339835158053393815 1.301495308083460589 0.2859999999999999765 0 0 -1 I I #
plane-surface $-1 1.262359745160704705 1.378868174109655564 0.2859999999999999765 -0.706638351189431746 -0.7075749010728696886 0 0 0 1 forward_v I I I I #
straight-curve $-1 1.339835158053393815 1.301495308083460589 0.2859999999999999765 -0.7075749010728711319 0.7066383511894304137 0 I I #
point $-1 1.298999999999999932 0.1000000000000000056 0.07000000000000000666 #
ellipse-curve $-1 1.298999999999999932 1.566000000000000281 0.2859999999999999765 0 0 1 0.163000000000000006 0 0 1 I I #
straight-curve $-1 0.25 0 0 1 0 0 I I #
straight-curve $-1 0.2630000000000000115 0.1000000000000000056 0.2859999999999999765 0 0 -1 I I #
point $-1 0.1000000000000000056 0.2630000000000000115 0.2859999999999999765 #
vertex $-1 $771 $900 #
ellipse-curve $-1 0.2600000000000000089 0.2824999999999999734 0.2859999999999999765 0 0 1 0.05800000000000000294 0 0 1 I I #
point $-1 0.3180000000000000049 1.568500000000000005 0.2859999999999999765 #
edge $-1 $859 0.7849504419536827982 $901 1.570796326794896558 $776 $902 reversed 7 unknown #
vertex $-1 $777 $903 #
ellipse-curve $-1 1.448205148284238186 0.3755000000000000004 0.2859999999999999765 0 0 -1 0.1529999999999999971 0 0 1 I I #
ellipse-curve $-1 1.219000000000000083 1.180500000000000105 0.2859999999999999765 0 0 1 0.1710000000000000131 0 0 1 I I #
point $-1 1.339969383816681292 1.301361111111110302 0.2859999999999999765 #
coedge $-1 $863 $863 $904 $905 reversed $784 $-1 #
coedge $-1 $821 $786 $839 $895 forward $682 $-1 #
coedge $-1 $786 $803 $788 $868 reversed $682 $-1 #
vertex $-1 $795 $906 #
ellipse-curve $-1 1.219000000000000083 0.6045000000000000373 0.1330000000000000071 0 0 1 0.1710000000000000131 0 0 1 I I #
edge $-1 $789 -0.1529999999999999694 $859 -0 $788 $907 reversed 7 unknown #
point $-1 1.339969383816681292 0.483638888888889007 0.1330000000000000071 #
straight-curve $-1 1.389999999999999902 1.180500000000000105 0.1330000000000000071 0 -1 0 I I #
point $-1 1.389999999999999902 1.180500000000000105 0.1330000000000000071 #
straight-curve $-1 1.339969383816681292 1.301361111111110302 0.2859999999999999765 0 0 -1 I I #
coedge $-1 $803 $821 $824 $884 forward $682 $-1 #
ellipse-curve $-1 0.2630000000000000115 0.2630000000000000115 0.2859999999999999765 0 0 1 0.163000000000000006 0 0 1 I I #
coedge $-1 $824 $823 $808 $876 reversed $825 $-1 #
edge $-1 $901 -0.8760000000000001119 $877 -0 $808 $908 reversed 7 unknown #
vertex $-1 $876 $909 #
ellipse-curve $-1 0.3430000000000000271 0.6045000000000000373 0.2859999999999999765 0 0 1 0.1710000000000000131 0 0 1 I I #
point $-1 0.172000000000000014 0.6045000000000000373 0.2859999999999999765 #
point $-1 0.2630000000000000115 0.1000000000000000056 0.2859999999999999765 #
straight-curve $-1 1.298999999999999932 0.1000000000000000056 0.07000000000000000666 0 0 1 I I #
plane-surface $-1 0.7810000000000001386 0.433500000000000052 0.2859999999999999765 0 1 0 0 0 1 forward_v I I I I #
ellipse-curve $-1 1.219000000000000083 0.6045000000000000373 0.05900000000000000383 0 0 1 0.1710000000000000131 0 0 1 I I #
edge $-1 $826 -0.2269999999999999796 $901 -0 $873 $910 reversed 7 unknown #
point $-1 1.219000000000000083 0.433500000000000052 0.05900000000000000383 #
straight-curve $-1 0.3430000000000000271 0.433500000000000052 0.2859999999999999765 0 0 -1 I I #
face $-1 $657 $911 $2 $-1 $912 reversed single #
loop $-1 $772 $913 $831 #
cone-surface $-1 0.2600000000000000089 1.568500000000000005 0.2859999999999999765 0 0 -1 0.05800000000000000294 0 0 1 I I 0 1 0.05800000000000000294 forward I I I I #
coedge $-1 $890 $890 $913 $914 forward $832 $-1 #
vertex $-1 $836 $915 #
ellipse-curve $-1 0.2600000000000000089 0.2824999999999999734 0.1360000000000000098 0 0 1 0.05800000000000000294 0 0 1 I I #
vertex $-1 $837 $916 #
ellipse-curve $-1 1.302000000000000046 0.2824999999999999734 0.2859999999999999765 0 0 1 0.05800000000000000294 0 0 1 I I #
edge $-1 $866 0 $841 0.07400000000000001021 $864 $917 forward 7 unknown #
point $-1 1.389999999999999902 0.6045000000000000373 0.05900000000000000383 #
straight-curve $-1 1.389999999999999902 1.180500000000000105 0.1330000000000000071 0 0 -1 I I #
cone-surface $-1 1.219000000000000083 1.180500000000000105 0.2859999999999999765 0 0 -1 0.1710000000000000131 0 0 1 I I 0 1 0.1710000000000000131 forward I I I I #
point $-1 1.339835158053393815 1.301495308083460589 0.2859999999999999765 #
point $-1 0.3180000000000000049 0.2824999999999999734 0.2859999999999999765 #
vertex $-1 $858 $918 #
ellipse-curve $-1 1.219000000000000083 0.6045000000000000373 0.2859999999999999765 0 0 1 0.1710000000000000131 0 0 1 I I #
point $-1 1.339969383816681292 0.483638888888889007 0.2859999999999999765 #
coedge $-1 $904 $904 $863 $905 forward $911 $-1 #
edge $-1 $919 0 $919 6.283185307179586232 $904 $920 forward 7 unknown #
point $-1 1.389999999999999902 0.6045000000000000373 0.1330000000000000071 #
straight-curve $-1 1.339969383816681292 0.483638888888889007 0.2859999999999999765 0 0 -1 I I #
straight-curve $-1 0.3430000000000000271 0.433500000000000052 0.2859999999999999765 1 0 0 I I #
point $-1 0.3430000000000000271 0.433500000000000052 0.2859999999999999765 #
straight-curve $-1 1.219000000000000083 0.433500000000000052 0.2859999999999999765 0 0 -1 I I #
loop $-1 $-1 $904 $887 #
plane-surface $-1 1.302000000000000046 1.568500000000000005 0.1360000000000000098 0 0 -1 -1 0 0 forward_v I I I I #
coedge $-1 $913 $913 $890 $914 reversed $888 $-1 #
edge $-1 $921 0 $921 6.283185307179586232 $890 $922 forward 7 unknown #
point $-1 0.3180000000000000049 0.2824999999999999734 0.1360000000000000098 #
point $-1 1.359999999999999876 0.2824999999999999734 0.2859999999999999765 #
straight-curve $-1 1.389999999999999902 0.6045000000000000373 0.1330000000000000071 0 0 -1 I I #
point $-1 1.219000000000000083 0.433500000000000052 0.2859999999999999765 #
vertex $-1 $905 $923 #
ellipse-curve $-1 1.302000000000000046 1.568500000000000005 0.1360000000000000098 0 0 1 0.05800000000000000294 0 0 1 I I #
vertex $-1 $914 $924 #
ellipse-curve $-1 0.2600000000000000089 1.568500000000000005 0.1360000000000000098 0 0 1 0.05800000000000000294 0 0 1 I I #
point $-1 1.359999999999999876 1.568500000000000005 0.1360000000000000098 #
point $-1 0.3180000000000000049 1.568500000000000005 0.1360000000000000098 #
End-of-ACIS-data 