  0
SECTION
  2
HEADER
  9
$ACADVER
  1
AC1009
  9
$INSBASE
 10
0.0
 20
0.0
 30
0.0
  9
$EXTMIN
 10
-2.0
 20
-6.0
 30
-2.0
  9
$EXTMAX
 10
6.0
 20
6.0
 30
6.0
  9
$LIMMIN
 10
0.0
 20
0.0
  9
$LIMMAX
 10
12.0
 20
9.0
  9
$ORTHOMODE
 70
     0
  9
$REGENMODE
 70
     1
  9
$FILLMODE
 70
     1
  9
$QTEXTMODE
 70
     0
  9
$MIRRTEXT
 70
     1
  9
$DRAGMODE
 70
     2
  9
$LTSCALE
 40
1.0
  9
$OSMODE
 70
     0
  9
$ATTMODE
 70
     1
  9
$TEXTSIZE
 40
0.2
  9
$TRACEWID
 40
0.05
  9
$TEXTSTYLE
  7
STANDARD
  9
$CLAYER
  8
0
  9
$CELTYPE
  6
BYLAYER
  9
$CECOLOR
 62
   256
  9
$DIMSCALE
 40
1.0
  9
$DIMASZ
 40
0.18
  9
$DIMEXO
 40
0.0625
  9
$DIMDLI
 40
0.38
  9
$DIMRND
 40
0.0
  9
$DIMDLE
 40
0.0
  9
$DIMEXE
 40
0.18
  9
$DIMTP
 40
0.0
  9
$DIMTM
 40
0.0
  9
$DIMTXT
 40
0.18
  9
$DIMCEN
 40
0.09
  9
$DIMTSZ
 40
0.0
  9
$DIMTOL
 70
     0
  9
$DIMLIM
 70
     0
  9
$DIMTIH
 70
     1
  9
$DIMTOH
 70
     1
  9
$DIMSE1
 70
     0
  9
$DIMSE2
 70
     0
  9
$DIMTAD
 70
     0
  9
$DIMZIN
 70
     0
  9
$DIMBLK
  1

  9
$DIMASO
 70
     1
  9
$DIMSHO
 70
     1
  9
$DIMPOST
  1

  9
$DIMAPOST
  1

  9
$DIMALT
 70
     0
  9
$DIMALTD
 70
     2
  9
$DIMALTF
 40
25.4
  9
$DIMLFAC
 40
1.0
  9
$DIMTOFL
 70
     0
  9
$DIMTVP
 40
0.0
  9
$DIMTIX
 70
     0
  9
$DIMSOXD
 70
     0
  9
$DIMSAH
 70
     0
  9
$DIMBLK1
  1

  9
$DIMBLK2
  1

  9
$DIMSTYLE
  2
*UNNAMED
  9
$DIMCLRD
 70
     0
  9
$DIMCLRE
 70
     0
  9
$DIMCLRT
 70
     0
  9
$DIMTFAC
 40
1.0
  9
$DIMGAP
 40
0.09
  9
$LUNITS
 70
     2
  9
$LUPREC
 70
     4
  9
$SKETCHINC
 40
0.1
  9
$FILLETRAD
 40
0.0
  9
$AUNITS
 70
     0
  9
$AUPREC
 70
     0
  9
$MENU
  1
acad
  9
$ELEVATION
 40
0.0
  9
$PELEVATION
 40
0.0
  9
$THICKNESS
 40
0.0
  9
$LIMCHECK
 70
     0
  9
$BLIPMODE
 70
     1
  9
$CHAMFERA
 40
0.0
  9
$CHAMFERB
 40
0.0
  9
$SKPOLY
 70
     0
  9
$TDCREATE
 40
2449377.556220138
  9
$TDUPDATE
 40
2449377.562213530
  9
$TDINDWG
 40
0.0059933912
  9
$TDUSRTIMER
 40
0.0059933912
  9
$USRTIMER
 70
     1
  9
$ANGBASE
 50
0.0
  9
$ANGDIR
 70
     0
  9
$PDMODE
 70
     0
  9
$PDSIZE
 40
0.0
  9
$PLINEWID
 40
0.0
  9
$COORDS
 70
     1
  9
$SPLFRAME
 70
     0
  9
$SPLINETYPE
 70
     6
  9
$SPLINESEGS
 70
     8
  9
$ATTDIA
 70
     0
  9
$ATTREQ
 70
     1
  9
$HANDLING
 70
     1
  9
$HANDSEED
  5
149
  9
$SURFTAB1
 70
     6
  9
$SURFTAB2
 70
     6
  9
$SURFTYPE
 70
     6
  9
$SURFU
 70
     6
  9
$SURFV
 70
     6
  9
$UCSNAME
  2

  9
$UCSORG
 10
0.0
 20
0.0
 30
0.0
  9
$UCSXDIR
 10
1.0
 20
0.0
 30
0.0
  9
$UCSYDIR
 10
0.0
 20
1.0
 30
0.0
  9
$PUCSNAME
  2

  9
$PUCSORG
 10
0.0
 20
0.0
 30
0.0
  9
$PUCSXDIR
 10
1.0
 20
0.0
 30
0.0
  9
$PUCSYDIR
 10
0.0
 20
1.0
 30
0.0
  9
$USERI1
 70
     0
  9
$USERI2
 70
     0
  9
$USERI3
 70
     0
  9
$USERI4
 70
     0
  9
$USERI5
 70
     0
  9
$USERR1
 40
0.0
  9
$USERR2
 40
0.0
  9
$USERR3
 40
0.0
  9
$USERR4
 40
0.0
  9
$USERR5
 40
0.0
  9
$WORLDVIEW
 70
     1
  9
$SHADEDGE
 70
     3
  9
$SHADEDIF
 70
    70
  9
$TILEMODE
 70
     1
  9
$MAXACTVP
 70
    16
  9
$PINSBASE
 10
0.0
 20
0.0
 30
0.0
  9
$PLIMCHECK
 70
     0
  9
$PEXTMIN
 10
1.000000E+20
 20
1.000000E+20
 30
1.000000E+20
  9
$PEXTMAX
 10
-1.000000E+20
 20
-1.000000E+20
 30
-1.000000E+20
  9
$PLIMMIN
 10
0.0
 20
0.0
  9
$PLIMMAX
 10
12.0
 20
9.0
  9
$UNITMODE
 70
     0
  9
$VISRETAIN
 70
     0
  9
$PLINEGEN
 70
     0
  9
$PSLTSCALE
 70
     1
  9
$TREEDEPTH
 70
  3020
  9
$DWGCODEPAGE
  3
ascii
  0
ENDSEC
  0
SECTION
  2
TABLES
  0
TABLE
  2
VPORT
 70
     2
  0
VPORT
  2
*ACTIVE
 70
     0
 10
0.0
 20
0.0
 11
1.0
 21
1.0
 12
2.432794
 22
1.460593
 13
0.0
 23
0.0
 14
1.0
 24
1.0
 15
0.0
 25
0.0
 16
1.0
 26
2.0
 36
1.0
 17
0.0
 27
0.0
 37
0.0
 40
13.145341
 41
1.594883
 42
50.0
 43
0.0
 44
0.0
 50
0.0
 51
0.0
 71
     0
 72
   100
 73
     1
 74
     1
 75
     0
 76
     0
 77
     0
 78
     0
  0
ENDTAB
  0
TABLE
  2
LTYPE
 70
     1
  0
LTYPE
  2
CONTINUOUS
 70
    64
  3
Solid line
 72
    65
 73
     0
 40
0.0
  0
ENDTAB
  0
TABLE
  2
LAYER
 70
     2
  0
LAYER
  2
0
 70
    64
 62
     7
  6
CONTINUOUS
  0
LAYER
  2
AME_FRZ
 70
    65
 62
     7
  6
CONTINUOUS
  0
ENDTAB
  0
TABLE
  2
STYLE
 70
     1
  0
STYLE
  2
STANDARD
 70
     0
 40
0.0
 41
1.0
 50
0.0
 71
     0
 42
0.2
  3
txt
  4

  0
ENDTAB
  0
TABLE
  2
VIEW
 70
     0
  0
ENDTAB
  0
TABLE
  2
UCS
 70
     0
  0
ENDTAB
  0
TABLE
  2
APPID
 70
     3
  0
APPID
  2
ACAD
 70
    64
  0
APPID
  2
AME_SOL
 70
    64
  0
APPID
  2
AVE_INVOKE
 70
    64
  0
ENDTAB
  0
TABLE
  2
DIMSTYLE
 70
     0
  0
ENDTAB
  0
ENDSEC
  0
SECTION
  2
BLOCKS
  0
BLOCK
  8
0
  5
1
  2
AME_NIL
 70
    64
 10
0.0
 20
0.0
 30
0.0
  1
AME_NIL
  3
AME_NIL
  0
ENDBLK
  8
0
  5
2
  0
BLOCK
  8
0
  5
4
  2
AME_SOL
 70
    64
 10
0.0
 20
0.0
 30
0.0
  1
AME_SOL
  3
AME_SOL
  0
ENDBLK
  8
0
  5
5
  0
BLOCK
  8
0
  5
B9
  2
SOLAXES
 70
     0
 10
0.0
 20
0.0
 30
0.0
  1
SOLAXES
  3
SOLAXES
  0
LINE
  8
0
 62
     0
  5
BA
 10
0.0
 20
0.0
 30
0.0
 11
2.4
 21
0.0
 31
0.0
  0
LINE
  8
0
 62
     0
  5
BB
 10
0.0
 20
0.0
 30
0.0
 11
0.0
 21
2.4
 31
0.0
  0
LINE
  8
0
 62
     0
  5
BC
 10
0.0
 20
0.0
 30
0.0
 11
0.0
 21
0.0
 31
2.4
  0
CIRCLE
  8
0
 62
     0
  5
BD
 10
0.0
 20
0.0
 30
2.16
 40
0.12
210
1.0
220
0.0
230
0.0
  0
LINE
  8
0
 62
     0
  5
BE
 10
2.16
 20
0.12
 30
0.0
 11
2.4
 21
0.0
 31
0.0
  0
LINE
  8
0
 62
     0
  5
BF
 10
2.16
 20
0.0
 30
0.12
 11
2.4
 21
0.0
 31
0.0
  0
LINE
  8
0
 62
     0
  5
C0
 10
2.16
 20
-0.12
 30
0.0
 11
2.4
 21
0.0
 31
0.0
  0
LINE
  8
0
 62
     0
  5
C1
 10
2.16
 20
0.0
 30
-0.12
 11
2.4
 21
0.0
 31
0.0
  0
CIRCLE
  8
0
 62
     0
  5
C2
 10
0.0
 20
0.0
 30
2.16
 40
0.12
210
0.0
220
1.0
230
0.0
  0
LINE
  8
0
 62
     0
  5
C3
 10
0.12
 20
2.16
 30
0.0
 11
0.0
 21
2.4
 31
0.0
  0
LINE
  8
0
 62
     0
  5
C4
 10
0.0
 20
2.16
 30
0.12
 11
0.0
 21
2.4
 31
0.0
  0
LINE
  8
0
 62
     0
  5
C5
 10
-0.12
 20
2.16
 30
0.0
 11
0.0
 21
2.4
 31
0.0
  0
LINE
  8
0
 62
     0
  5
C6
 10
0.0
 20
2.16
 30
-0.12
 11
0.0
 21
2.4
 31
0.0
  0
CIRCLE
  8
0
 62
     0
  5
C7
 10
0.0
 20
0.0
 30
1.92
 40
0.12
210
0.0
220
1.0
230
0.0
  0
LINE
  8
0
 62
     0
  5
C8
 10
0.12
 20
1.92
 30
0.0
 11
0.0
 21
2.16
 31
0.0
  0
LINE
  8
0
 62
     0
  5
C9
 10
0.0
 20
1.92
 30
0.12
 11
0.0
 21
2.16
 31
0.0
  0
LINE
  8
0
 62
     0
  5
CA
 10
-0.12
 20
1.92
 30
0.0
 11
0.0
 21
2.16
 31
0.0
  0
LINE
  8
0
 62
     0
  5
CB
 10
0.0
 20
1.92
 30
-0.12
 11
0.0
 21
2.16
 31
0.0
  0
CIRCLE
  8
0
 62
     0
  5
CC
 10
0.0
 20
0.0
 30
2.16
 40
0.12
  0
LINE
  8
0
 62
     0
  5
CD
 10
0.12
 20
0.0
 30
2.16
 11
0.0
 21
0.0
 31
2.4
  0
LINE
  8
0
 62
     0
  5
CE
 10
0.0
 20
0.12
 30
2.16
 11
0.0
 21
0.0
 31
2.4
  0
LINE
  8
0
 62
     0
  5
CF
 10
-0.12
 20
0.0
 30
2.16
 11
0.0
 21
0.0
 31
2.4
  0
LINE
  8
0
 62
     0
  5
D0
 10
0.0
 20
-0.12
 30
2.16
 11
0.0
 21
0.0
 31
2.4
  0
CIRCLE
  8
0
 62
     0
  5
D1
 10
0.0
 20
0.0
 30
1.92
 40
0.12
  0
LINE
  8
0
 62
     0
  5
D2
 10
0.12
 20
0.0
 30
1.92
 11
0.0
 21
0.0
 31
2.16
  0
LINE
  8
0
 62
     0
  5
D3
 10
0.0
 20
0.12
 30
1.92
 11
0.0
 21
0.0
 31
2.16
  0
LINE
  8
0
 62
     0
  5
D4
 10
-0.12
 20
0.0
 30
1.92
 11
0.0
 21
0.0
 31
2.16
  0
LINE
  8
0
 62
     0
  5
D5
 10
0.0
 20
-0.12
 30
1.92
 11
0.0
 21
0.0
 31
2.16
  0
CIRCLE
  8
0
 62
     0
  5
D6
 10
0.0
 20
0.0
 30
1.68
 40
0.12
  0
LINE
  8
0
 62
     0
  5
D7
 10
0.12
 20
0.0
 30
1.68
 11
0.0
 21
0.0
 31
1.92
  0
LINE
  8
0
 62
     0
  5
D8
 10
0.0
 20
0.12
 30
1.68
 11
0.0
 21
0.0
 31
1.92
  0
LINE
  8
0
 62
     0
  5
D9
 10
-0.12
 20
0.0
 30
1.68
 11
0.0
 21
0.0
 31
1.92
  0
LINE
  8
0
 62
     0
  5
DA
 10
0.0
 20
-0.12
 30
1.68
 11
0.0
 21
0.0
 31
1.92
  0
ENDBLK
  8
0
  5
DB
  0
BLOCK
  8
0
  5
DF
  2
*U6
 70
    65
 10
0.0
 20
0.0
 30
0.0
  1
*U
  3
*U
  0
LINE
  8
0
 62
     7
  5
E0
 10
6.0
 20
6.0
 30
0.0
 11
6.0
 21
6.0
 31
6.0
1001
AME_SOL
1070
     1
1071
       24
  0
LINE
  8
0
 62
     7
  5
E1
 10
6.0
 20
6.0
 30
6.0
 11
6.0
 21
0.0
 31
6.0
1001
AME_SOL
1070
     1
1071
       23
  0
LINE
  8
0
 62
     7
  5
E2
 10
0.0
 20
6.0
 30
6.0
 11
6.0
 21
6.0
 31
6.0
1001
AME_SOL
1070
     1
1071
       22
  0
LINE
  8
0
 62
     7
  5
E3
 10
0.0
 20
6.0
 30
0.0
 11
0.0
 21
6.0
 31
6.0
1001
AME_SOL
1070
     1
1071
       21
  0
LINE
  8
0
 62
     7
  5
E4
 10
0.0
 20
6.0
 30
6.0
 11
0.0
 21
0.0
 31
6.0
1001
AME_SOL
1070
     1
1071
       20
  0
LINE
  8
0
 62
     7
  5
E5
 10
0.0
 20
0.0
 30
0.0
 11
0.0
 21
0.0
 31
6.0
1001
AME_SOL
1070
     1
1071
       19
  0
LINE
  8
0
 62
     7
  5
E6
 10
6.0
 20
0.0
 30
6.0
 11
6.0
 21
0.0
 31
0.0
1001
AME_SOL
1070
     1
1071
       18
  0
LINE
  8
0
 62
     7
  5
E7
 10
0.0
 20
0.0
 30
6.0
 11
6.0
 21
0.0
 31
6.0
1001
AME_SOL
1070
     1
1071
       17
  0
LINE
  8
0
 62
     7
  5
E8
 10
0.0
 20
0.0
 30
0.0
 11
6.0
 21
0.0
 31
0.0
1001
AME_SOL
1070
     1
1071
       16
  0
LINE
  8
0
 62
     7
  5
E9
 10
0.0
 20
6.0
 30
0.0
 11
0.0
 21
0.0
 31
0.0
1001
AME_SOL
1070
     1
1071
       15
  0
LINE
  8
0
 62
     7
  5
EA
 10
6.0
 20
0.0
 30
0.0
 11
6.0
 21
6.0
 31
0.0
1001
AME_SOL
1070
     1
1071
       14
  0
LINE
  8
0
 62
     7
  5
EB
 10
6.0
 20
6.0
 30
0.0
 11
0.0
 21
6.0
 31
0.0
1001
AME_SOL
1070
     1
1071
       13
  0
CIRCLE
  8
0
 62
     7
  5
EC
 10
3.0
 20
3.0
 30
6.0
 40
1.0
210
1.0
220
0.0
230
0.0000000000000001
1001
AME_SOL
1070
     1
1071
       12
  0
CIRCLE
  8
0
 62
     7
  5
ED
 10
-3.0
 20
3.0
 30
0.0
 40
2.0
210
0.0
220
1.0
230
0.0000000000000001
1001
AME_SOL
1070
     1
1071
       11
  0
CIRCLE
  8
0
 62
     7
  5
EE
 10
-3.0
 20
3.0
 30
6.0
 40
2.0
210
0.0
220
1.0
230
0.0000000000000001
1001
AME_SOL
1070
     1
1071
       10
  0
POLYLINE
  8
0
 62
     7
  5
EF
 66
     1
 10
0.0
 20
0.0
 30
0.0
 70
     8
  0
VERTEX
  8
0
 62
     7
  5
F0
 10
4.732051
 20
3.0
 30
4.0
 70
    32
  0
VERTEX
  8
0
 62
     7
  5
F1
 10
4.733338
 20
2.933207
 30
3.997767
 70
    32
  0
VERTEX
  8
0
 62
     7
  5
F2
 10
4.737172
 20
2.866713
 30
3.991077
 70
    32
  0
VERTEX
  8
0
 62
     7
  5
F3
 10
4.743466
 20
2.800814
 30
3.979962
 70
    32
  0
VERTEX
  8
0
 62
     7
  5
F4
 10
4.752084
 20
2.735805
 30
3.964469
 70
    32
  0
VERTEX
  8
0
 62
     7
  5
F5
 10
4.762839
 20
2.671975
 30
3.944669
 70
    32
  0
VERTEX
  8
0
 62
     7
  5
F6
 10
4.775501
 20
2.609611
 30
3.92065
 70
    32
  0
VERTEX
  8
0
 62
     7
  5
F7
 10
4.789807
 20
2.54899
 30
3.892519
 70
    32
  0
VERTEX
  8
0
 62
     7
  5
F8
 10
4.805466
 20
2.490383
 30
3.860402
 70
    32
  0
VERTEX
  8
0
 62
     7
  5
F9
 10
4.822168
 20
2.434053
 30
3.824442
 70
    32
  0
VERTEX
  8
0
 62
     7
  5
FA
 10
4.83959
 20
2.38025
 30
3.784799
 70
    32
  0
VERTEX
  8
0
 62
     7
  5
FB
 10
4.857405
 20
2.329215
 30
3.741652
 70
    32
  0
VERTEX
  8
0
 62
     7
  5
FC
 10
4.875289
 20
2.281176
 30
3.695192
 70
    32
  0
VERTEX
  8
0
 62
     7
  5
FD
 10
4.892925
 20
2.236348
 30
3.645628
 70
    32
  0
VERTEX
  8
0
 62
     7
  5
FE
 10
4.91001
 20
2.19493
 30
3.59318
 70
    32
  0
VERTEX
  8
0
 62
     7
  5
FF
 10
4.926257
 20
2.157108
 30
3.538082
 70
    32
  0
VERTEX
  8
0
 62
     7
  5
100
 10
4.941402
 20
2.12305
 30
3.480582
 70
    32
  0
VERTEX
  8
0
 62
     7
  5
101
 10
4.955202
 20
2.092909
 30
3.420935
 70
    32
  0
VERTEX
  8
0
 62
     7
  5
102
 10
4.967441
 20
2.066819
 30
3.359408
 70
    32
  0
VERTEX
  8
0
 62
     7
  5
103
 10
4.977933
 20
2.044898
 30
3.296276
 70
    32
  0
VERTEX
  8
0
 62
     7
  5
104
 10
4.986519
 20
2.027241
 30
3.23182
 70
    32
  0
VERTEX
  8
0
 62
     7
  5
105
 10
4.993072
 20
2.01393
 30
3.166329
 70
    32
  0
VERTEX
  8
0
 62
     7
  5
106
 10
4.997494
 20
2.005022
 30
3.100096
 70
    32
  0
VERTEX
  8
0
 62
     7
  5
107
 10
4.999721
 20
2.000558
 30
3.033415
 70
    32
  0
VERTEX
  8
0
 62
     7
  5
108
 10
4.999721
 20
2.000558
 30
2.966585
 70
    32
  0
VERTEX
  8
0
 62
     7
  5
109
 10
4.997494
 20
2.005022
 30
2.899904
 70
    32
  0
VERTEX
  8
0
 62
     7
  5
10A
 10
4.993072
 20
2.01393
 30
2.833671
 70
    32
  0
VERTEX
  8
0
 62
     7
  5
10B
 10
4.986519
 20
2.027241
 30
2.76818
 70
    32
  0
VERTEX
  8
0
 62
     7
  5
10C
 10
4.977933
 20
2.044898
 30
2.703724
 70
    32
  0
VERTEX
  8
0
 62
     7
  5
10D
 10
4.967441
 20
2.066819
 30
2.640592
 70
    32
  0
VERTEX
  8
0
 62
     7
  5
10E
 10
4.955202
 20
2.092909
 30
2.579065
 70
    32
  0
VERTEX
  8
0
 62
     7
  5
10F
 10
4.941402
 20
2.12305
 30
2.519418
 70
    32
  0
VERTEX
  8
0
 62
     7
  5
110
 10
4.926257
 20
2.157108
 30
2.461918
 70
    32
  0
VERTEX
  8
0
 62
     7
  5
111
 10
4.91001
 20
2.19493
 30
2.40682
 70
    32
  0
VERTEX
  8
0
 62
     7
  5
112
 10
4.892925
 20
2.236348
 30
2.354372
 70
    32
  0
VERTEX
  8
0
 62
     7
  5
113
 10
4.875289
 20
2.281176
 30
2.304808
 70
    32
  0
VERTEX
  8
0
 62
     7
  5
114
 10
4.857405
 20
2.329215
 30
2.258348
 70
    32
  0
VERTEX
  8
0
 62
     7
  5
115
 10
4.83959
 20
2.38025
 30
2.215201
 70
    32
  0
VERTEX
  8
0
 62
     7
  5
116
 10
4.822168
 20
2.434053
 30
2.175558
 70
    32
  0
VERTEX
  8
0
 62
     7
  5
117
 10
4.805466
 20
2.490383
 30
2.139598
 70
    32
  0
VERTEX
  8
0
 62
     7
  5
118
 10
4.789807
 20
2.54899
 30
2.107481
 70
    32
  0
VERTEX
  8
0
 62
     7
  5
119
 10
4.775501
 20
2.609611
 30
2.07935
 70
    32
  0
VERTEX
  8
0
 62
     7
  5
11A
 10
4.762839
 20
2.671975
 30
2.055331
 70
    32
  0
VERTEX
  8
0
 62
     7
  5
11B
 10
4.752084
 20
2.735805
 30
2.035531
 70
    32
  0
VERTEX
  8
0
 62
     7
  5
11C
 10
4.743466
 20
2.800814
 30
2.020038
 70
    32
  0
VERTEX
  8
0
 62
     7
  5
11D
 10
4.737172
 20
2.866713
 30
2.008923
 70
    32
  0
VERTEX
  8
0
 62
     7
  5
11E
 10
4.733338
 20
2.933207
 30
2.002233
 70
    32
  0
VERTEX
  8
0
 62
     7
  5
11F
 10
4.732051
 20
3.0
 30
2.0
 70
    32
  0
VERTEX
  8
0
 62
     7
  5
120
 10
4.733338
 20
3.066793
 30
2.002233
 70
    32
  0
VERTEX
  8
0
 62
     7
  5
121
 10
4.737172
 20
3.133287
 30
2.008923
 70
    32
  0
VERTEX
  8
0
 62
     7
  5
122
 10
4.743466
 20
3.199186
 30
2.020038
 70
    32
  0
VERTEX
  8
0
 62
     7
  5
123
 10
4.762839
 20
3.328025
 30
2.055331
 70
    32
  0
VERTEX
  8
0
 62
     7
  5
124
 10
4.789807
 20
3.45101
 30
2.107481
 70
    32
  0
VERTEX
  8
0
 62
     7
  5
125
 10
4.822168
 20
3.565947
 30
2.175558
 70
    32
  0
VERTEX
  8
0
 62
     7
  5
126
 10
4.857405
 20
3.670785
 30
2.258348
 70
    32
  0
VERTEX
  8
0
 62
     7
  5
127
 10
4.892925
 20
3.763652
 30
2.354372
 70
    32
  0
VERTEX
  8
0
 62
     7
  5
128
 10
4.926257
 20
3.842892
 30
2.461918
 70
    32
  0
VERTEX
  8
0
 62
     7
  5
129
 10
4.955202
 20
3.907091
 30
2.579065
 70
    32
  0
VERTEX
  8
0
 62
     7
  5
12A
 10
4.977933
 20
3.955102
 30
2.703724
 70
    32
  0
VERTEX
  8
0
 62
     7
  5
12B
 10
4.993072
 20
3.98607
 30
2.833671
 70
    32
  0
VERTEX
  8
0
 62
     7
  5
12C
 10
4.999721
 20
3.999442
 30
2.966585
 70
    32
  0
VERTEX
  8
0
 62
     7
  5
12D
 10
4.997494
 20
3.994978
 30
3.100096
 70
    32
  0
VERTEX
  8
0
 62
     7
  5
12E
 10
4.986519
 20
3.972759
 30
3.23182
 70
    32
  0
VERTEX
  8
0
 62
     7
  5
12F
 10
4.967441
 20
3.933181
 30
3.359408
 70
    32
  0
VERTEX
  8
0
 62
     7
  5
130
 10
4.941402
 20
3.87695
 30
3.480582
 70
    32
  0
VERTEX
  8
0
 62
     7
  5
131
 10
4.91001
 20
3.80507
 30
3.59318
 70
    32
  0
VERTEX
  8
0
 62
     7
  5
132
 10
4.875289
 20
3.718824
 30
3.695192
 70
    32
  0
VERTEX
  8
0
 62
     7
  5
133
 10
4.83959
 20
3.61975
 30
3.784799
 70
    32
  0
VERTEX
  8
0
 62
     7
  5
134
 10
4.805466
 20
3.509617
 30
3.860402
 70
    32
  0
VERTEX
  8
0
 62
     7
  5
135
 10
4.775501
 20
3.390389
 30
3.92065
 70
    32
  0
VERTEX
  8
0
 62
     7
  5
136
 10
4.752084
 20
3.264195
 30
3.964469
 70
    32
  0
VERTEX
  8
0
 62
     7
  5
137
 10
4.732051
 20
3.0
 30
4.0
 70
    32
  0
SEQEND
  8
0
 62
     7
  5
138
1001
AME_SOL
1070
     1
1071
        9
  0
LINE
  8
0
 62
     7
  5
139
 10
4.732051
 20
3.0
 30
4.0
 11
6.0
 21
3.0
 31
4.0
1001
AME_SOL
1070
     0
1071
        2
  0
LINE
  8
0
 62
     7
  5
13A
 10
5.0
 20
2.0
 30
3.0
 11
6.0
 21
2.0
 31
3.0
1001
AME_SOL
1070
     0
1071
        2
  0
LINE
  8
0
 62
     7
  5
13B
 10
4.732051
 20
3.0
 30
2.0
 11
6.0
 21
3.0
 31
2.0
1001
AME_SOL
1070
     0
1071
        2
  0
LINE
  8
0
 62
     7
  5
13C
 10
5.0
 20
4.0
 30
3.0
 11
6.0
 21
4.0
 31
3.0
1001
AME_SOL
1070
     0
1071
        2
  0
LINE
  8
0
 62
     7
  5
13D
 10
1.0
 20
0.0
 30
3.0
 11
1.0
 21
6.0
 31
3.0
1001
AME_SOL
1070
     0
1071
        1
  0
LINE
  8
0
 62
     7
  5
13E
 10
3.0
 20
0.0
 30
5.0
 11
3.0
 21
6.0
 31
5.0
1001
AME_SOL
1070
     0
1071
        1
  0
LINE
  8
0
 62
     7
  5
13F
 10
5.0
 20
4.0
 30
3.0
 11
5.0
 21
6.0
 31
3.0
1001
AME_SOL
1070
     0
1071
        1
  0
LINE
  8
0
 62
     7
  5
140
 10
5.0
 20
0.0
 30
3.0
 11
5.0
 21
2.0
 31
3.0
1001
AME_SOL
1070
     0
1071
        1
  0
LINE
  8
0
 62
     7
  5
141
 10
3.0
 20
0.0
 30
1.0
 11
3.0
 21
6.0
 31
1.0
1001
AME_SOL
1070
     0
1071
        1
  0
ENDBLK
  8
0
  5
142
  0
BLOCK
  8
0
  5
146
  2
AME_JNK
 70
     0
 10
0.0
 20
0.0
 30
0.0
  1
AME_JNK
  3
AME_JNK
  0
ENDBLK
  8
0
  5
147
  0
ENDSEC
  0
SECTION
  2
ENTITIES
  0
INSERT
  8
AME_FRZ
  5
3
  2
AME_NIL
 10
0.0
 20
0.0
 30
0.0
  0
INSERT
  8
AME_FRZ
  5
6
  2
AME_SOL
 10
0.0
 20
0.0
 30
0.0
1001
AME_SOL
1000
R2.1
1000
AME2
1000
sq cm
1070
     3
1070
     0
1070
     3
1000
wire
1040
45.0
1000
U
1040
1.0
1000
cm
1000
gm
1000
MILD_STEEL
1070
    25
1000
CSG
1070
     1
1070
     3
1070
     3
1070
     3
1070
     0
1000
cu cm
1070
     1
1070
     0
1005
3
  0
INSERT
  8
AME_FRZ
  5
7A
  2
AME_NIL
 10
0.0
 20
0.0
 30
0.0
1001
AME_SOL
1002
{
1070
     1
1071
  2427320
1070
  1536
1070
     1
1010
6.0
1020
6.0
1030
6.0
1005
0
1005
0
1005
143
1040
0.0
1040
1.0
1070
     0
1000
MILD_STEEL
1000
0
1010
0.0
1020
0.0
1030
0.0
1010
0.0
1020
0.0
1030
1.0
1040
0.0
1002
}
1001
AVE_INVOKE
1000
SOLAVEMESH
  0
INSERT
  8
AME_FRZ
  5
86
  2
AME_NIL
 10
-3.0
 20
3.0
 30
0.0
 50
180.0
210
0.0
220
1.0
230
0.0000000000000001
1001
AME_SOL
1002
{
1070
     1
1071
  2424792
1070
  1538
1070
     1
1010
2.0
1020
2.0
1030
6.0
1005
0
1005
0
1005
DD
1040
0.0
1040
1.0
1070
     0
1000
MILD_STEEL
1000
0
1010
-3.0
1020
3.0
1030
0.0
1010
0.0
1020
1.0
1030
0.0
1040
3.141593
1002
}
  0
INSERT
  8
AME_FRZ
  5
B6
  2
AME_NIL
 10
3.0
 20
3.0
 30
3.0
 50
270.0
210
1.0
220
0.0
230
0.0000000000000001
1001
AME_SOL
1002
{
1070
     1
1071
  2401640
1070
  1538
1070
     1
1010
1.0
1020
1.0
1030
3.0
1005
0
1005
0
1005
DD
1040
0.0
1040
1.0
1070
     0
1000
MILD_STEEL
1000
0
1010
3.0
1020
3.0
1030
3.0
1010
1.0
1020
0.0
1030
0.0
1040
4.712389
1002
}
  0
INSERT
  8
AME_FRZ
  5
DD
  2
AME_NIL
 10
0.0
 20
0.0
 30
0.0
1001
AME_SOL
1002
{
1070
     1
1071
  2389904
1070
   775
1070
     0
1070
     2
1005
B6
1005
86
1005
0
1005
0
1005
143
1040
0.0
1040
1.0
1070
     0
1000
MILD_STEEL
1000
0
1010
0.0
1020
0.0
1030
0.0
1010
0.0
1020
0.0
1030
1.0
1040
0.0
1002
}
  0
INSERT
  8
0
  5
143
  2
*U6
 10
0.0
 20
0.0
 30
0.0
1001
AME_SOL
1002
{
1070
     1
1071
  2389072
1070
  1543
1070
     1
1070
     0
1005
7A
1005
DD
1005
0
1005
144
1005
0
1040
0.0
1040
1.0
1070
     0
1000
MILD_STEEL
1000
0
1002
}
1001
AVE_INVOKE
1000
SOLAVEMESH
  0
INSERT
  8
AME_FRZ
  5
144
  2
AME_NIL
 10
1.0
 20
1.0
 30
1.0
1001
AME_SOL
1004
C7CF010009018401830181017D01750168015601400128016000C700A000A6005F0069015701750041017600050008007601F0006A015801C0004201BC002901F500E800590143012A016800B0002B014C00D10044012C011C0115010A015700B3000B019300AF00860011007A007E0177016B015A014501
1004
91002D01B600980046012E01AB0043005800BF006C013F005B0147012F01C80004004E00540078016D013C005C014801FE00F80049013001A900770031013000B9006E015D014A01320139001D011F00EF0033011E01E100C5001F01C30016011E006A004400180082017F017901FF006F0101005E014B01
1004
F2003401900020013800DA004C01AA00350121019E00B500220117010C01AE001900A500FC007A0170015F0189007C0060010F007E00400080017B0171016101FD007F0062014D01720096004E016B006100720163014F018D003601A400210050013701EE0079003801EA002D006401510139014D002301
1004
330037003A012401A20018010D01F70020000E01ED00E300250119010F018C003D001001B100010100010E001A0111010201FA00F90003018800F60012010401F1002F000501E000DE0007007C01730165015201DB003B0109008300030025007401660153013C011700DF00FB0054013D0126011B011301
1004
0601DD003A000701D000CC00140108014800520009015300B400140084003E0110002800670155013F01A10027016D0024008000020000006B396B39363CA54FD0846F456D40E9772609831755929A304C18BAAC97260983175592A94A0150DCF5AA528054373D6A94A0150DCF5A5DE531CC79388B34F4E6
1004
38CA4D18260C5D5648F2711669E9CC7194A94A0150DDE95AA528054373D6A94A0150DDE95A56B16A6C9E3B4234ADBD4B6B16FF88AEB1F36914DFF02F833E05F067C09019F889FC35FFFE1AC2FFD7FD7FFFFFED62DFF115D63E6D229BFE05F067C0BE0CF812033F113F86BFFFC3585FFAFFAFFFFFF112D86B
1004
7B284FF115D63E6D229BFE05F067C0BE0CF812033F112DBC421084375FC0BE0C4BE229FCEB43338339764789D686670672EC80FFBFE75A199C19CBB23C7E04806BF3D675A199C19CBB20297F81201AFCF5BF8ECD1081D9A21097F81201AFCF5B61AC976509FE22BAC7CDA4537FC0BE0CF817C19F024067E2
1004
252FBD2BEB1F36BD18DE97C35BF9D686670672EC8F13AD0CCE0CE5D901FF73CEB4333833976478F58F9B48A703442108420A4BEF65FE7ACEB4333833976405FFEB1F36914E068842108414FE3B3442076688425F7B2FF3D6FE3B344207668843FFD63E6D229C0D10842108292FBD97F9EB6C359FF6509FE2
1004
2BAC7CDA4537FC0BE0CF817C19F024067E22448421086EBF817C0D25F7A56FE75A199C19CBB23C4EB4333833976407FDFF3AD0CCE0CE5D91E268842109F480CFCF59D686670672EC80A5CD1084213E9019F9EB7F1D9A2103B344212E68842109F480CFCF5B61ACE7B284FF115D63E6D229BFE05F067C0BE0
1004
CF812033F11297C457C0B6D1C1B7C8421086EB7F3AD0CCE0CE5D91E275A199C19CBB203FEFF9D686670672EC8F1F9CE6D0DFF9EB3AD0CCE0CE5D9014BFCE73686FFCF5BF8ECD1081D9A21097F9CE6D0DFF9EB794C7F6D76E92DB584DD672AA7EFA9B9C8828E554FDF537391052A528054373D6F652805437
1004
7B2DECA500A86EF65A56B169AB68ED08D28F125B58B7F812033ED54E1AFC44F00366D9360E1F88AFB55386BF0D7F86BFC3585FF115F88AFFFFFF6B16FF024067DAA9C35F889E006CDB26C1C3F115F6AA70D7E1AFF0D7F86B0BFE22BF115FFFFF8896C35BD9427F024067DAA9C35F889E006CDB26C1C3F115
1004
F6AA70D7E1AFF7B2C3F86B7F3AD0CCE0CE5D91E275A199C19CBB203E97FC319FC639E75A199C19CBB23C7F0C67F19FD7F86B3AD0CCE0CE5D9014BFF5FE1ADFDF234421F2344212FFD7F86B6C3592ECA13F812033ED54E1AFC44F00366D9360E1F88AFB55386BF0D7F86B4BF5BF9D686670672EC8F13AD0CC
1004
E0CE5D901F4BFE18C220E88C6E3E427925CF3AD0CCE0CE5D91E3F8630883A231B8F909E49220E88C6E3E42792BF0D675A199C19CBB20297220E88C6E3E42792BF0D6FEF91A210F91A21097220E88C6E3E42792BF0D6D86B3FECA13F812033ED54E1AFC44F00366D9360E1F88AFB55386BF0D697EB717C35B
1004
F9D686670672EC8F13AD0CCE0CE5D901F4BFE18CFE31CF3AD0CCE0CE5D91E3F8633F8CFEBFC359D686670672EC80A5FFAFF0D6FEF91A210F91A21097FEBFC35B61ACE7B284FE0480CFB55386BF113C00D9B64D8387E22BED54E1AFC35BDBE1AFF7B2DFCEB43338339764789D686670672EC80FA5FF0C6110
1004
7446371F213C92E79D686670672EC8F1FC318441D118DC7C84F249107446371F213C95F86B3AD0CCE0CE5D9014B9107446371F213C95F86B7F7C8D1087C8D1084B9107446371F213C95F86B794C2CDC98260C5D564B9304C18BAAC97260983175592A94A0150DCF5AA528054373D6E4C13062EAB292BD4B4
1004
70367CE974ADB84B7A96FFFF88AFFFC457FFFFFFFFF85FFFFFFFFFFDEA5BFFFE22BFFF115FFFFFFFFFE17FFFFFFFFFC453CA605DC98260C5D564B9304C18BAAC97260983175592A94A0150DCF5B9304C18BAACA54A500A86E7AD2BD4B4DC3D76974ADB94B7A96FF88AFFFFFFFFFC457FFFFF85FFFFFFFFFF
1004
DEA5BFE22BFFFFFFFFF115FFFFFE17FFFFFFFFFC453CA6166E4C13062EAB25C98260C5D564B9304C18BAAC97260983175594A94A0150DCF5AA528054373D695EA5A4300BB4BA5354B7A96FFFFFF88AFFFC457FFFFFFF85FFFFFFFFFFDEA5BFFFFFE22BFFF115FFFFFFFE17FFFFFFFFFC453CA6166E4C1306
1004
2EAB25C98260C5D564A638E02146AF05AA528054373D6A94A0150DCF5AA528054373D695EA5A392C3B4BA56D44B7A96FF889FEFBFDF7FBEFE227FBEFE7AFF3D7F9EB0BFFFFFFFFFFBD4B7FC44FF7DFEFBFDF7F113FDF7F3D7F9EBFCF585FFFFFFFFFF114F29817726098317559298E380851ABC16E4C1306
1004
2EAB25529402A1B9EB54A500A86E7AD529402A1B9EB4AF52D23363B4BA56DDA5BD4B7FEFBFDF7F113F889FEFBFDF7F3D7F9EBFCF585FFFFFFFFFFDEA5BFF7DFEFBF889FC44FF7DFEFBF9EBFCF5FE7AC2FFFFFFFFFF88A794C0BA638E02146AF05B9304C18BAAC97260983175592A94A0150DCF5AA5280543
1004
73D6A94A0150DCF5A57A96A6939DA5D28D92DEA5BFF7DFC44FF7DFEFBFDF7F113F9EBFCF5FE7AC2FFFFFFFFFFEF52DFFBEFE227FBEFF7DFEFBF889FCF5FE7AFF3D617FFFFFFFFFC45349A8DAEDD25B6B09BACE554FDF537391051CAA9FBEA6E7220A54A500A86EF4ADECA500A86EF65BD94A0150DDECB7BB
1004
5CE977969B8863DDAE74BBCB4DC4B7F39E1402F93BD2A109B278ECD5B477BF9AB68ED364F1DA1084210841CF0AFE0480CFB55386BF113C00D9B64D8387E22BED54E1AFC35FE1AFF0D6DB7FDB55B617FFFFFFF3D3E8C42108233A3C0DB2840244729C9F2F41F7A18582DB3F6D56D819F88AFC457E229EED73
1004
A5DE5A6E218F76B9D2EF2D3712DA4D41E4E22CD3D398E32931C7010A35782C79388B34F4E638CA54A500A86EF4AD529402A1B9EB54A500A86EF4ADEED73A5DE5A6E218F76B9D2EF2D3712DFD3F08F71C3BD2A109B278EC8CD8EF7F23363B4D93C7697421084FC27F88AEB1F36914DFF02F833E05F067C090
1004
19F889FC35FE7AD2F86B2CFFAFFADEED73A5DE5A6E218F76B9D2EF2D3712DA4D41E4E22CD3D398E329C98260C5D5648F2711669E9CC7194A94A0150DDE95B9304C18BAACA54A500A86EF4ADEED73A5DE5A6E218F76B9D2EF2D3712DFD3F085839EEF4212A6C9E3B370F5DEFE9B278ECDC3D7684210974FC2
1004
7F88AEB1F36914DFF02F833E05F067C09019F889FC35FFFE1ACB3FEBFEB7BB5CE977969B8863DDAE74BBCB4DC4B6935131C7010A35782CE554FDF537391051CAA9FBEA6E7220A54A500A86E7ADECA500A86EF65BD94A0150DDECB7BB5CE977969B8863DDAE74BBCB4DC4B7F4FC210D3E1DE9508356D1DA69
1004
39DEFE9A4E766ADA3B4BA108427E13F812033ED54E1AFC44F00366D9360E1F88AFB55386BF3D7F86BFC35967F88AFC453DDAE74BBCB4DC431EED73A5DE5A6E25B49A8E4C13062EAB2531C7010A35782DC98260C5D564AA528054373D6A94A0150DCF5B9304C18BAACAFC319F86B7F6508431E377A1094703
1004
67CE466C77BF8E06CF9C8CD8ED2E976509FFFE22BFFFFFFF113F86BFCF5FFBFFE18CFC35B49A898E380851ABC16E4C13062EAB25C98260C5D564AA528054373D6A94A0150DCF5B9304C18BAACAFC319F86B7F6508581CBBD084A381B3E74D273BDFC70367CE9A4E76974BB284FF115FFFFFFFFF889FCF5FE
1004
1AFFDFFF0C67E1ADA4D47260983175592E4C13062EAB25C98260C5D564B9304C18BAACA54A500A86E7ADC98260C5D5657E78CFEFAFECA10D5B69DE84251C0D9F390C02EF7F1C0D9F390C02ED2E976509FE227FFFFFFFFF113FFFFFEFFF9E33FBEB49A8E4C13062EAB25C98260C5D564B9304C18BAAC954A5
1004
00A86E7ADC98260C5D56539304C18BAACAFFFCF5BFB2847B8F0BBD084A381B3E7370F5DEFE381B3E7370F5DA5D2ECA13FFFC44FFFFFFFE227FFFFFDFFFFF3D6D26A39304C18BAAC9726098317559298E380851ABC16A94A0150DCF5B9304C18BAACA54A500A86E7AFF0C67E1ADFD94211BD1DDE8425370F5
1004
D8E4B0EF7F370F5D8E4B0ED2E976509FFFFFE22BFFF113FFF86BFFFCF5BFFE18CFC35B49A898E380851ABC16E4C13062EAB25C98260C5D564AA528054373D6E4C13062EAB29529402A1B9EBFC319F86B7F6508DBA4F5DE8425370F5DA6939DEFE6E1EBB4D273B4BA5D9427F88AFFFFFFFC44FFFE7AFFFF0D
1004
6FFF8633F0D6D26A39304C18BAAC97260983175592E4C13062EAB25C98260C5D56539304C18BAACA54A500A86E7AFFFF3D6FECA11E884277A1094DC3D764300BBDFCDC3D764300BB4BA5D9427F889FFFFFFFC44FFFFFFFFBFFFFE7ADA4D47260983175592E4C13062EAB2531C7010A35782DC98260C5D565
1004
2A528054373D6A94A0150DCF5FE18CFC35BFB284014DDDE842521805D8E4B0EF7F21805D8E4B0ED2E976509FFFFFE22BF113FFFFFFF86BFCF5BFFE18CFC35B49A8E4C13062EAB2531C7010A35782DC98260C5D564B9304C18BAACA54A500A86E7AD529402A1B9EBFC319F86B7F6508F427077A1094860176
1004
466C77BF90C02EC8CD8ED2E976509FFFE22BFFF113FFFFFFF9EBFC35BFFE18CFC35B49A8E4C13062EAB2531C7010A35782D31C7010A35782D529402A1B9EB54A500A86E7AD529402A1B9EBFCF19FDF5FD9425E80EF42128E4B0EC8CD8EF7F1C961D919B1DA5D2ECA13FFFC457FFFFFFE22BF3D7F9EBFCF5B
1004
FFE78CFEFAD26A2638E02146AF05B9304C18BAAC94C71C0428D5E0B54A500A86E7AD529402A1B9EB54A500A86E7AFFFF3D6FECA10DCDBF77A10947258769A4E77BF8E4B0ED349CED2E976509FE22BFFFFFBEFFFE22BF3D7F9EBFCF5BFFFFE7ADA4D44C71C0428D5E0B4C71C0428D5E0B7260983175592A94
1004
A0150DCF5AA528054373D6A94A0150DCF5FE78CFEFAFECA1000F177A10948CD8ED349CEF7F23363B4D273B4BA5D9427F88AFFFFFFFC457FFE7AFF3D7F9EB7FFCF19FDF53E53F6DB2
1005
145
  0
INSERT
  8
AME_FRZ
  5
145
  2
AME_NIL
 10
1.0
 20
1.0
 30
1.0
1001
AME_SOL
1004

1005
0
  0
ENDSEC
  0
EOF
