**ABCDEFGHIJKLMNOPQRSTUVWXYZabcdefghijklmnopqrstuvwxyz**************************
**PARASOLID !"#$%&'()*+,-./:;<=>?@[\]^_`{|}~0123456789**************************
**PART1;
MC=HP risc;
MC_MODEL=9000/780;
MC_ID=tmphpp4;
OS=hp-ux;
OS_RELEASE=b.10.20;
FRU=mdc_ugii_v7.0_djl_can_vrh;
APPL=unigraphics;
SITE=unknown;
USER=bakerj;
FORMAT=text;
GUISE=transmit;
KEY=bottle;
FILE=/jrbdisk2/users/bakerj/tape/bottle.xmt_txt;
DATE=9-dec-1997;
**PART2;
SCH=SCH_900254_9008;
USFLD_SIZE=0;
**PART3;
**END_OF_HEADER*****************************************************************
T50 : TRANSMIT FILE created by modeller version 90025415 SCH_900254_90080 12 1 4
14 2 3 0 0 0 0 1e3 1e-8 0 0 0 1 0 1 4 5 6 0 7 8 0 90 2 236 9 1 10 0 2 11 70 3 0
 1 0 0 4 6 20 4 12 12 1 F13 4 155 0 1 0 13 0 0 14 0 54 5 234 0 13 15 0 0 +.00517
088088766821 -.02070093293889495 0 -1 110627785512034e-29 0 .0668187731710006 .0
1 -110627785512034e-29 -1 0 31 6 222 0 8 16 0 0 +-.00392348257972242 -.020700932
9388949 0 -1 110627785512034e-29 0 -110627785512034e-29 -1 0 .0626603416009271 1
9 7 173 0 1 14 0 17 V16 8 219 0 ?18 0 19 6 0 0 1 17 18 20 18 18 0 21 8 0 0 +16 1
9 213 0 ?22 8 23 16 0 0 1 17 22 24 22 22 0 25 19 0 0 +16 23 183 0 ?26 19 27 28 0
 0 1 31 16 216 0 19 28 6 0 -.01169110613549154 -.02070093293889495 0 -1 11062778
5512034e-29 0 -110627785512034e-29 -1 0 .0592367772123069 31 28 186 0 23 29 16 0
 --.00665179161994005 -.0207009329388949 0 1 -110627785512034e-29 0 110627785512
034e-29 1 0 .0644128121299049 134 29 68 0 1 30 28 31 +32 33 31 30 98 0 27 34 29
 0 +.2679356176395245 -.02070093293889515 0 -1 110627785512034e-29 0 -1106277855
12034e-29 -1 0 .04458230040534515 141 31 15 31 31 29 136 32 3 13 3 11 6 FFF1 35
 36 37 135 33 1 45 39 35 -.00365179161994 .02371187919101 0 .00496577512039339 .
03307373558615465 0 .02212415701503395 .0481028850019014 0 .0493733105165619 .06
4812897216778 0 .0750617602413098 .0733994594662172 0 .0985877533227077 .0754246
313209125 0 .119465192511434 .0724049393562596 0 .13757213017485 .06576641480953
25 0 .153267585208126 .0567968748260609 0 .1677533163943845 .0467516366222468 0
 .1879966690610355 .0338669199694638 0 .205290986531614 .02388136746640525 0 .21
79356176395245 .02388136746645 0 127 11 36 4 1 1 1 1 1 1 1 1 1 4 128 11 37 0 .15
13193255800965 .2765473110382635 .382609748704118 .475411529624449 .558998954415
584 .635240993753191 .706766316924732 .776834142409604 .847346788324571 1 68 15
 67 0 38 39 5 40 +29 .2179356176395255 -.02070093293889515 0 -1 110627785512034e
-29 0 ????1245138782129832e-30 1 0 .04458230040534515 14 38 32 41 ?42 43 24 4 15
 +0 0 42 43 17 51 39 95 0 42 44 15 0 +.2679356176395245 -.02070093293889515 0 -1
 0 0 .04458230040534515 0 0 1 141 40 45 40 40 15 60 45 128 0 46 47 48 0 +UF15 -.
002 .037111816123647 14 46 113 49 ?50 51 52 4 45 -0 0 50 51 17 50 47 129 0 51 53
 45 0 +-.00165179161994 .02371187919101 0 1 -110627785512034e-29 0 1106277855120
34e-29 1 0 51 48 126 0 50 45 44 0 +.2679356176395245 -.02070093293889515 0 -1 0
 0 .04258230040534515 0 0 1 14 50 117 54 ?55 46 56 4 48 -0 0 55 46 17 50 44 96 0
 43 48 39 0 +.2679356176395255 .0238813674664261 0 1 -110627785512034e-29 0 1106
27785512034e-29 1 0 14 43 87 57 ?38 58 59 4 44 +0 0 38 60 17 81 1 57 402 61 43 6
2 0 63 41 64 14 58 166 63 ?43 60 65 4 66 -0 0 60 13 17 15 59 89 0 67 43 68 14 60
 162 69 ?58 13 70 4 53 -0 0 43 58 17 13 17 174 0 0 0 0 0 0 7 13 14 13 230 71 ?60
 0 72 4 5 -0 0 58 0 17 81 1 71 396 61 13 73 0 0 69 74 15 72 215 0 25 13 75 17 25
 72 25 25 0 22 19 0 0 -15 75 221 0 21 13 0 17 21 75 21 21 0 18 8 0 0 -80 1 61 0
 76 8001 0 0 0 0 3 5 0 0 FFFFTFTFFFFFF2 81 1 73 395 77 13 78 71 0 79 80 81 1 69
 398 61 60 79 0 71 63 81 83 3 74 0 1 0 81 1 79 397 77 60 82 69 73 83 84 81 1 63
 400 61 58 83 0 69 57 85 83 3 81 0 1 0 81 1 83 399 77 58 86 63 79 62 87 83 3 85
 0 1 0 80 1 77 88 89 8015 0 0 0 0 3 5 0 0 FFFFTFFFFFFFF2 81 2 86 387 90 58 91 83
 82 92 93 94 81 1 62 401 77 43 92 57 83 95 96 83 1 87 0 81 2 92 388 90 43 97 62
 86 98 99 100 81 1 95 403 77 38 98 41 62 101 102 83 1 96 0 81 2 98 389 90 38 103
 95 92 104 105 106 81 1 41 404 61 38 95 0 57 107 108 81 1 101 405 77 42 104 107
 95 109 110 83 1 102 0 14 42 83 107 ?51 38 111 4 39 +0 0 51 38 17 81 2 104 390 9
0 42 112 101 98 113 114 115 81 1 107 406 61 42 101 0 41 116 117 81 1 109 407 77
 51 113 116 101 118 119 83 1 110 0 14 51 110 116 ?46 42 120 4 47 +0 0 46 42 17 8
1 2 113 391 90 51 121 109 104 122 123 124 81 1 116 408 61 51 109 0 107 49 125 81
 1 118 409 77 46 122 49 109 126 127 83 1 119 0 81 2 122 392 90 46 128 118 113 12
9 130 131 81 1 49 410 61 46 118 0 116 54 132 81 1 126 411 77 50 129 54 118 133 1
34 83 1 127 0 81 2 129 393 90 50 135 126 122 136 137 138 81 1 54 412 61 50 126 0
 49 139 140 81 1 133 413 77 55 136 139 126 0 141 83 1 134 0 14 55 203 139 ?0 50
 20 4 142 +0 0 0 50 17 81 2 136 394 90 55 143 133 129 0 144 145 81 1 139 414 61
 55 133 0 54 0 146 83 1 141 0 83 3 146 0 1 0 80 2 90 147 148 9000 0 0 0 0 3 6 0
 0 FFFFTFFFFFFFF1 1 91 143 -32764 10 55 0 136 0 0 82 1 144 2346 82 1 145 2326 90
 10 209 149 1 150 2 2 143 81 1 149 377 151 10 152 0 9 153 154 81 2 150 181 155 1
 156 10 0 0 157 158 80 2 155 159 160 8004 0 0 0 0 3 5 0 0 FFTFFFFFFFFFF2 3 90 15
6 152 153 1 161 150 2 162 83 1 157 7830.6436993535 84 8 158 KG/CU M 81 1 153 378
 151 156 163 0 149 164 165 90 161 149 164 1 166 156 2 167 91 162 -32764 156 60 0
 167 168 0 91 167 -32764 161 60 162 169 0 0 91 168 -32764 156 58 0 91 0 162 91 9
1 -32764 166 58 168 86 0 169 90 166 146 170 1 171 161 2 169 91 169 -32764 166 60
 167 82 91 0 81 2 82 386 90 60 169 79 78 86 172 173 81 2 78 385 90 13 11 73 0 82
 174 175 82 1 172 2341 82 1 173 344 91 11 -32764 2 13 0 78 0 0 82 1 174 2345 82
 1 175 1 81 1 170 380 151 166 176 0 164 177 178 90 171 138 177 1 179 166 2 135 8
1 1 177 381 151 171 180 0 170 181 182 90 179 77 181 1 183 171 2 97 91 135 -32764
 171 50 0 129 128 0 91 128 -32764 171 46 0 122 121 135 91 121 -32764 171 51 0 11
3 0 128 81 1 181 382 151 179 184 0 177 185 186 90 183 69 185 1 187 179 2 103 91
 97 -32764 179 43 0 92 112 0 91 112 -32764 179 42 0 104 0 97 81 1 185 383 151 18
3 188 0 181 189 190 90 187 59 189 1 0 183 2 191 91 103 -32764 183 38 191 98 0 0
 91 191 -32764 187 38 0 103 0 0 81 1 189 384 151 187 192 0 185 0 193 80 1 151 19
4 195 9000 0 0 0 0 3 5 0 0 FFFFFFFFTFFFF1 81 1 192 61 196 187 0 189 0 188 197 82
 1 193 2340 80 1 196 151 198 9000 0 0 0 0 3 5 0 0 FFFFFFFFTFFFF1 81 1 188 71 196
 183 0 185 192 184 199 82 1 197 0 81 1 184 78 196 179 0 181 188 180 200 82 1 199
 0 81 1 180 140 196 171 0 177 184 176 201 82 1 200 0 81 1 176 147 196 166 0 170
 180 202 203 82 1 201 0 81 1 202 150 196 161 0 164 176 163 204 82 1 203 0 81 1 1
64 379 151 161 202 0 153 170 205 81 1 163 153 196 156 0 153 202 152 206 82 1 204
 1 81 1 152 211 196 10 0 149 163 207 208 82 1 206 1 81 1 207 238 196 2 0 9 152 0
 209 82 1 208 0 81 1 9 376 151 2 207 0 0 149 210 82 1 209 0 82 1 210 2345 82 1 2
05 2342 79 23 198 UG2/CMOD_NEST_ATTRIBUTE79 23 195 UG2/CMOD_FEAT_ATTRIBUTE82 1 1
90 2348 82 1 186 2347 82 1 182 2344 82 1 178 2343 82 1 165 2341 79 16 160 SDL/TY
SA_DENSITY82 1 154 2346 79 23 148 UG2/CMOD_FACR_ATTRIBUTE15 20 220 0 18 55 211 5
4 142 208 0 55 0 66 0 +-.00665179161994005 -.0207009329388949 0 1 -1106277855120
34e-29 0 .0614128121299049 .003 110627785512034e-29 1 0 50 66 176 0 58 142 53 0
 +-.00865179161994 .02371187919101 0 1 -110627785512034e-29 0 110627785512034e-2
9 1 0 51 53 175 0 60 66 47 0 --.00865179161994006 -.0207009329388949 0 1 0 0 .06
44128121299049 0 0 -1 15 211 205 0 212 55 0 17 212 211 212 212 0 26 23 0 0 -17 2
6 70 26 26 0 212 23 0 0 +15 70 184 0 26 60 213 15 213 164 0 214 60 0 17 214 213
 214 214 0 215 216 0 0 -17 215 65 215 215 0 214 216 0 0 +16 216 157 0 ?215 217 0
 218 0 0 1 16 217 108 0 ?219 220 216 221 0 0 1 31 218 180 0 216 0 222 0 --.00865
179161994005 -.0207009329388949 0 1 -110627785512034e-29 0 110627785512034e-29 1
 0 .0644128121299049 31 222 134 0 223 218 221 0 +-.001651791619940055 -.02070093
29388949 0 -1 110627785512034e-29 0 -110627785512034e-29 -1 0 .04362995826185385
 16 223 107 0 ?224 225 220 222 0 0 1 31 221 133 0 217 222 226 0 +.21793561763953
15 -.02070093293889515 0 -1 110627785512034e-29 0 130362030005053e-29 1 0 .04258
230040534515 31 226 132 0 220 221 34 0 -.267935617639525 -.02070093293889515 0 1
 -110627785512034e-29 0 110627785512034e-29 1 0 .04258230040534515 16 220 109 0
 ?227 223 217 226 0 0 1 31 34 99 0 225 226 30 0 +.217935617639524 -.020700932938
89515 0 -1 110627785512034e-29 0 -110627785512034e-29 -1 0 .04458230040534515 16
 225 82 0 ?228 27 223 34 0 0 1 17 228 229 228 228 0 230 225 0 0 +16 27 81 0 ?231
 23 225 30 0 0 1 17 231 111 231 231 0 67 27 0 0 +15 111 85 0 231 42 232 17 67 59
 67 67 0 231 27 0 0 -15 232 86 0 230 42 0 17 230 232 230 230 0 228 225 0 0 -15 2
29 56 0 228 38 0 17 227 68 227 227 0 233 220 0 0 +15 68 102 0 227 43 0 17 233 56
 233 233 0 227 220 0 0 -15 56 119 0 233 50 234 15 234 120 0 219 50 0 17 219 234
 219 219 0 235 217 0 0 +17 235 52 235 235 0 219 217 0 0 -15 52 115 0 235 46 236
 15 236 116 0 224 46 0 17 224 236 224 224 0 237 223 0 0 +17 237 120 237 237 0 22
4 223 0 0 -15 120 112 0 237 51 0 15 65 168 0 215 58 0 83 3 140 0 1 0 82 1 137 23
44 82 1 138 2321 83 3 132 0 1 0 82 1 130 2344 82 1 131 2322 83 3 125 0 1 0 82 1
 123 2344 82 1 124 2323 83 3 117 0 1 0 82 1 114 2347 82 1 115 324 83 3 108 0 1 0
 82 1 105 2340 82 1 106 1371 82 1 99 2347 82 1 100 2 82 1 93 2341 82 1 94 2 79 2
1 89 SDL/TYSA_TRANSLUCENCY83 1 84 0 83 1 80 0 79 15 76 SDL/TYSA_COLOUR83 3 64 0
 1 0 15 24 214 0 22 38 229 19 14 1 0 1 0 7 4 S74 20 12 6 0 136 189 207 150 133 1
39 0 0 0 0 0 0 0 0 0 0 0 0 0 0 1 0 
