**ABCDEFGHIJKLMNOPQRSTUVWXYZabcdefghijklmnopqrstuvwxyz**************************
**PARASOLID !"#$%&'()*+,-./:;<=>?@[\]^_`{|}~0123456789**************************
**PART1;
MC=unknown;
MC_MODEL=unknown;
MC_ID=unknown;
OS=unknown;
OS_RELEASE=unknown;
FRU=sdl_parasolid_customer_support;
APPL=parasolid_acceptance_tests;
SITE=unknown;
USER=unknown;
FORMAT=text;
GUISE=transmit;
KEY=D:\\projects\\ehlc\\tests\\hub;
FILE=D:\\projects\\ehlc\\tests\\hub.xmt_txt;
DATE=unknown;
**PART2;
SCH=SCH_901209_9008;
USFLD_SIZE=0;
**PART3;
**END_OF_HEADER*****************************************************************
T50 : TRANSMIT FILE created by modeller version 90120915 SCH_901209_90080 12 1 4
034 2 3 0 0 0 0 1e3 1e-8 0 4 5 1 0 1 6 7 8 0 9 10 0 81 2 2 1695 11 1 12 0 0 0 13
 14 70 3 0 1 0 0 4 6 20 4 15 15 1 F13 6 3 0 1 0 16 0 0 17 0 51 7 240 0 16 18 0 0
 -.8638 -1.179643856360066 .419148032673232 -1171455354019524e-30 -1 0 .105 0 0
 -1 31 8 263 0 10 19 0 0 +.8638 .615838146096937 .419148032673232 11714553540195
24e-30 1 0 0 0 -1 .105 19 9 101 0 1 17 0 20 V16 10 210 0 ?21 0 22 8 0 0 1 17 21
 23 21 21 0 24 10 0 0 +16 22 205 0 ?25 10 26 19 0 0 1 17 25 27 25 25 0 28 22 0 0
 +16 26 200 0 ?29 22 30 31 0 0 1 31 19 262 0 22 31 8 0 +.8638 .615838146096937 .
419148032673232 1171455354019524e-30 1 0 0 0 -1 .1338485807048076 31 31 261 0 26
 32 19 0 +.8638 .621838146096937 .419148032673232 1171455354019524e-30 1 0 0 0 -
1 .1398485807048076 31 32 260 0 30 33 31 0 +.8638 .681028657231575 .419148032673
232 1171455354019524e-30 1 0 0 0 -1 .2101915195615195 16 30 195 0 ?34 26 35 32 0
 0 1 31 33 259 0 35 36 32 0 +.8638 .704714999188285 .419148032673232 11714553540
19524e-30 1 0 0 0 -1 .252710710697409 16 35 190 0 ?37 30 38 33 0 0 1 31 36 258 0
 38 39 33 0 +.8638 .734838146096937 .419148032673232 1171455354019524e-30 1 0 0
 0 -1 .319 16 38 185 0 ?40 35 41 36 0 0 1 31 39 257 0 41 42 36 0 +.8638 .6898381
46096937 .419148032673232 1171455354019524e-30 1 0 0 0 -1 .364 16 41 180 0 ?43 3
8 44 39 0 0 1 31 42 256 0 44 45 39 0 +.8638 .679838146096937 .419148032673232 11
71455354019524e-30 1 0 0 0 -1 .364 16 44 175 0 ?46 41 47 42 0 0 1 31 45 255 0 47
 48 42 0 +.8638 .679838146096937 .419148032673232 1171455354019524e-30 1 0 0 0 -
1 .434891181035027 16 47 170 0 ?49 44 50 45 0 0 1 31 48 254 0 50 51 45 0 +.8638
 .692838146096937 .419148032673232 1171455354019524e-30 1 0 0 0 -1 .449757249782
3455 16 50 165 0 ?52 47 53 48 0 0 1 31 51 253 0 53 54 48 0 +.8638 .7044660571210
1 .419148032673232 1171455354019524e-30 1 0 0 0 -1 .4411585601618995 16 53 160 0
 ?55 50 56 51 0 0 1 31 54 252 0 56 57 51 0 +.8638 .709118762474469 .419148032673
232 1171455354019524e-30 1 0 0 0 -1 .4310416271832795 16 56 155 0 ?58 53 59 54 0
 0 1 31 57 251 0 59 60 54 0 +.8638 .721151808786431 .419148032673232 11714553540
19524e-30 1 0 0 0 -1 .422908014687729 16 59 150 0 ?61 56 62 57 0 0 1 31 60 250 0
 62 63 57 0 +.8638 .814838146096937 .419148032673232 1171455354019524e-30 1 0 0
 0 -1 .41830959776385 16 62 145 0 ?64 59 65 60 0 0 1 31 63 249 0 65 66 60 0 +.86
38 .819838146096937 .419148032673232 1171455354019524e-30 1 0 0 0 -1 .4130581629
50824 16 65 140 0 ?67 62 68 63 0 0 1 31 66 248 0 68 69 63 0 +.8638 .819838146096
937 .419148032673232 1171455354019524e-30 1 0 0 0 -1 .364 16 68 135 0 ?70 65 71
 66 0 0 1 31 69 247 0 71 72 66 0 +.8638 .801838146096937 .419148032673232 117145
5354019524e-30 1 0 0 0 -1 .364 16 71 130 0 ?73 68 74 69 0 0 1 31 72 246 0 74 75
 69 0 +.8638 .756838146096937 .419148032673232 1171455354019524e-30 1 0 0 0 -1 .
319 16 74 125 0 ?76 71 77 72 0 0 1 31 75 245 0 77 78 72 0 +.8638 .71918421246112
2 .419148032673232 1171455354019524e-30 1 0 0 0 -1 .2361383883717615 16 77 120 0
 ?79 74 80 75 0 0 1 31 78 244 0 80 81 75 0 +.8638 .741246807384301 .419148032673
232 1171455354019524e-30 1 0 0 0 -1 .1496592190938384 16 80 115 0 ?82 77 83 78 0
 0 1 31 81 243 0 83 84 78 0 +.8638 .78098971821135 .419148032673232 117145535401
9524e-30 1 0 0 0 -1 .1408484278855874 16 83 110 0 ?85 80 86 81 0 0 1 31 84 242 0
 86 87 81 0 +.8638 .793838146096937 .419148032673232 1171455354019524e-30 1 0 0
 0 -1 .128 16 86 105 0 ?88 83 89 84 0 0 1 31 87 241 0 89 0 84 0 +.8638 .79383814
6096937 .419148032673232 1171455354019524e-30 1 0 0 0 -1 .105 16 89 103 0 ?90 86
 0 87 0 0 1 17 90 91 90 90 0 92 89 0 0 +15 91 215 0 90 16 0 17 92 93 92 92 0 90
 89 0 0 -15 93 107 0 92 94 0 14 94 108 95 ?0 96 97 6 98 -0 0 0 96 20 81 1 95 403
4 99 94 100 0 101 0 102 14 96 113 101 ?94 103 104 6 105 +0 0 94 103 20 15 97 264
 0 88 94 93 50 98 218 0 94 0 105 0 +.7588 .793838146096937 .419148032673232 -117
1455354019524e-30 -1 0 0 0 -1 13 20 100 0 0 0 0 0 0 9 16 14 16 216 106 ?107 0 10
8 6 7 +0 0 107 0 20 81 1 106 3990 99 16 109 0 0 110 111 14 107 213 110 ?112 16 1
13 6 18 +0 0 112 16 20 15 108 286 0 24 16 91 17 24 108 24 24 0 21 10 0 0 -81 1 1
10 3992 99 107 114 0 106 115 116 14 112 208 115 ?117 107 118 6 119 +0 0 117 107
 20 15 113 285 0 28 107 23 50 18 239 0 107 119 7 0 +.7588 .615838146096937 .4191
48032673232 -1171455354019524e-30 -1 0 0 0 -1 52 119 238 0 112 120 18 0 +.8638 .
615838146096937 .419148032673232 1171455354019524e-30 1 0 .1338485807048076 .707
106781186561 .707106781186535 0 0 1 54 120 237 0 117 121 119 0 +.8638 .592228493
669536 .419148032673232 -1171455354019524e-30 -1 0 .2248383947011245 .09 0 0 -1
 14 117 203 122 ?123 112 124 6 120 -0 0 123 112 20 54 121 236 0 123 125 120 0 +.
8638 .752068788081206 .419148032673232 -1171455354019524e-30 -1 0 .1984740194498
35 .072 0 0 -1 14 123 198 126 ?127 117 128 6 121 +0 0 127 117 20 54 125 235 0 12
7 129 121 0 +.8638 .646838146096937 .419148032673232 -1171455354019524e-30 -1 0
 .319 .088 0 0 -1 14 127 193 130 ?131 123 132 6 125 -0 0 131 123 20 54 129 234 0
 131 133 125 0 +.8638 .689838146096937 .419148032673232 -1171455354019524e-30 -1
 0 .319 .045 0 0 -1 14 131 188 134 ?135 127 136 6 129 -0 0 135 127 20 51 133 233
 0 135 137 129 0 -.8638 -1.179643856360066 .419148032673232 -1171455354019524e-3
0 -1 0 .364 0 0 -1 14 135 183 138 ?139 131 140 6 133 +0 0 139 131 20 50 137 232
 0 139 141 133 0 +.4998 .679838146096938 .4191480326732325 -1171455354019524e-30
 -1 0 0 0 -1 14 139 178 142 ?143 135 144 6 137 +0 0 143 135 20 54 141 231 0 143
 145 137 0 +.8638 .694838146096937 .419148032673232 -1171455354019524e-30 -1 0 .
434891181035027 .015 0 0 -1 14 143 173 146 ?147 139 148 6 141 +0 0 147 139 20 54
 145 230 0 147 149 141 0 +.8638 .690838146096937 .419148032673232 -1171455354019
524e-30 -1 0 .434891181035027 .015 0 0 -1 14 147 168 150 ?151 143 152 6 145 +0 0
 151 143 20 52 149 229 0 151 153 145 0 -.8638 .709118762474469 .419148032673232
 -1171455354019524e-30 -1 0 .4310416271832795 .908527401604845 .41782527512484 0
 0 -1 14 151 163 154 ?155 147 156 6 149 -0 0 155 147 20 54 153 228 0 155 157 149
 0 +.8638 .721838146096937 .419148032673232 -1171455354019524e-30 -1 0 .43689118
1035027 .014 0 0 -1 14 155 158 158 ?159 151 160 6 153 -0 0 159 151 20 52 157 227
 0 159 161 153 0 +.8638 .721151808786431 .419148032673232 -1171455354019524e-30
 -1 0 .422908014687729 .04902409360756 .998797596235572 0 0 -1 14 159 153 162 ?1
63 155 164 6 157 +0 0 163 155 20 52 161 226 0 163 165 157 0 +.8638 .814838146096
937 .419148032673232 -1171455354019524e-30 -1 0 .41830959776385 .72423203933806
 .689556345193223 0 0 -1 14 163 148 166 ?167 159 168 6 161 +0 0 167 159 20 50 16
5 225 0 167 169 161 0 +.4998 .819838146096938 .4191480326732325 -117145535401952
4e-30 -1 0 0 0 -1 14 167 143 170 ?171 163 172 6 165 -0 0 171 163 20 51 169 224 0
 171 173 165 0 +.8638 -1.179643856360066 .419148032673232 -1171455354019524e-30
 -1 0 .364 0 0 -1 14 171 138 174 ?175 167 176 6 169 -0 0 175 167 20 54 173 223 0
 175 177 169 0 +.8638 .801838146096937 .419148032673232 -1171455354019524e-30 -1
 0 .319 .045 0 0 -1 14 175 133 178 ?179 171 180 6 173 -0 0 179 171 20 54 177 222
 0 179 181 173 0 +.8638 .646838146096937 .419148032673232 -1171455354019524e-30
 -1 0 .319 .11 0 0 -1 14 179 128 182 ?183 175 184 6 177 +0 0 183 175 20 54 181 2
21 0 183 185 177 0 +.8638 .752068788081206 .419148032673232 -1171455354019524e-3
0 -1 0 .198474019449835 .05 0 0 -1 14 183 123 186 ?103 179 187 6 181 -0 0 103 17
9 20 52 185 220 0 103 105 181 0 +.8638 .741246807384301 .419148032673232 -117145
5354019524e-30 -1 0 .1496592190938384 .216439613938103 .976296007119933 0 0 -1 1
4 103 118 188 ?96 183 189 6 185 +0 0 96 183 20 52 105 219 0 96 98 185 0 +.8638 .
78098971821135 .419148032673232 -1171455354019524e-30 -1 0 .1408484278855874 .70
7106781186549 .707106781186546 0 0 -1 81 1 188 4030 99 103 190 0 186 101 191 15
 189 266 0 192 103 193 17 192 189 192 192 0 85 83 0 0 -15 193 117 0 82 103 0 17
 82 193 82 82 0 194 80 0 0 +17 194 195 194 194 0 82 80 0 0 -15 195 122 0 194 183
 0 17 85 196 85 85 0 192 83 0 0 +15 196 112 0 85 96 0 80 1 99 0 197 8001 0 0 0 0
 3 5 0 0 FFFFTFTFFFFFF2 81 1 190 4029 198 103 199 188 200 201 202 81 1 186 4028
 99 183 200 0 182 188 203 81 1 101 4032 99 96 201 0 188 95 204 83 3 191 .40015 .
40015 .40015 81 1 201 4031 198 96 205 101 190 100 206 83 3 204 .40015 .40015 .40
015 80 1 198 207 208 8015 0 0 0 0 3 5 0 0 FFFFTFFFFFFFF2 81 2 205 3987 209 96 21
0 201 199 211 212 213 81 1 100 4033 198 94 211 95 201 0 214 83 1 206 0 81 2 211
 3988 209 94 215 100 205 0 216 217 83 1 214 0 80 2 209 218 219 9000 0 0 0 0 3 6
 0 0 FFFFTFFFFFFFF1 1 91 215 -32764 12 94 0 211 210 0 82 1 216 2092 82 1 217 23
 90 12 1688 220 1 0 2 2 215 91 210 -32764 12 96 0 205 221 215 91 221 -32764 12 1
03 0 199 222 210 81 2 199 3986 209 103 221 190 223 205 224 225 91 222 -32764 12
 183 0 223 226 221 81 2 223 3985 209 183 222 200 227 199 228 229 91 226 -32764 1
2 179 0 227 230 222 81 2 227 3984 209 179 226 231 232 223 233 234 91 230 -32764
 12 175 0 232 235 226 81 2 232 3983 209 175 230 236 237 227 238 239 91 235 -3276
4 12 171 0 237 240 230 81 2 237 3982 209 171 235 241 242 232 243 244 91 240 -327
64 12 167 0 242 245 235 81 2 242 3981 209 167 240 246 247 237 248 249 91 245 -32
764 12 163 0 247 250 240 81 2 247 3980 209 163 245 251 252 242 253 254 91 250 -3
2764 12 159 0 252 255 245 81 2 252 3979 209 159 250 256 257 247 258 259 91 255 -
32764 12 155 0 257 260 250 81 2 257 3978 209 155 255 261 262 252 263 264 91 260
 -32764 12 151 0 262 265 255 81 2 262 3977 209 151 260 266 267 257 268 269 91 26
5 -32764 12 147 0 267 270 260 81 2 267 3976 209 147 265 271 272 262 273 274 91 2
70 -32764 12 143 0 272 275 265 81 2 272 3975 209 143 270 276 277 267 278 279 91
 275 -32764 12 139 0 277 280 270 81 2 277 3974 209 139 275 281 282 272 283 284 9
1 280 -32764 12 135 0 282 285 275 81 2 282 3973 209 135 280 286 287 277 288 289
 91 285 -32764 12 131 0 287 290 280 81 2 287 3972 209 131 285 291 292 282 293 29
4 91 290 -32764 12 127 0 292 295 285 81 2 292 3971 209 127 290 296 297 287 298 2
99 91 295 -32764 12 123 0 297 300 290 81 2 297 3970 209 123 295 301 302 292 303
 304 91 300 -32764 12 117 0 302 305 295 81 2 302 3969 209 117 300 306 307 297 30
8 309 91 305 -32764 12 112 0 307 310 300 81 2 307 3968 209 112 305 311 312 302 3
13 314 91 310 -32764 12 107 0 312 315 305 81 2 312 3967 209 107 310 114 316 307
 317 318 91 315 -32764 12 16 0 316 0 310 81 2 316 3966 209 16 315 109 0 312 319
 320 81 1 109 3989 198 16 316 106 0 114 321 82 1 319 2092 82 1 320 1 81 1 114 39
91 198 107 312 110 109 311 322 83 1 321 0 81 1 311 3993 198 112 307 115 114 306
 323 83 1 322 0 81 1 115 3994 99 112 311 0 110 122 324 81 1 306 3995 198 117 302
 122 311 301 325 83 1 323 0 81 1 122 3996 99 117 306 0 115 126 326 81 1 301 3997
 198 123 297 126 306 296 327 83 1 325 0 81 1 126 3998 99 123 301 0 122 130 328 8
1 1 296 3999 198 127 292 130 301 291 329 83 1 327 0 81 1 130 4000 99 127 296 0 1
26 134 330 81 1 291 4001 198 131 287 134 296 286 331 83 1 329 0 81 1 134 4002 99
 131 291 0 130 138 332 81 1 286 4003 198 135 282 138 291 281 333 83 1 331 0 81 1
 138 4004 99 135 286 0 134 142 334 81 1 281 4005 198 139 277 142 286 276 335 83
 1 333 0 81 1 142 4006 99 139 281 0 138 146 336 81 1 276 4007 198 143 272 146 28
1 271 337 83 1 335 0 81 1 146 4008 99 143 276 0 142 150 338 81 1 271 4009 198 14
7 267 150 276 266 339 83 1 337 0 81 1 150 4010 99 147 271 0 146 154 340 81 1 266
 4011 198 151 262 154 271 261 341 83 1 339 0 81 1 154 4012 99 151 266 0 150 158
 342 81 1 261 4013 198 155 257 158 266 256 343 83 1 341 0 81 1 158 4014 99 155 2
61 0 154 162 344 81 1 256 4015 198 159 252 162 261 251 345 83 1 343 0 81 1 162 4
016 99 159 256 0 158 166 346 81 1 251 4017 198 163 247 166 256 246 347 83 1 345
 0 81 1 166 4018 99 163 251 0 162 170 348 81 1 246 4019 198 167 242 170 251 241
 349 83 1 347 0 81 1 170 4020 99 167 246 0 166 174 350 81 1 241 4021 198 171 237
 174 246 236 351 83 1 349 0 81 1 174 4022 99 171 241 0 170 178 352 81 1 236 4023
 198 175 232 178 241 231 353 83 1 351 0 81 1 178 4024 99 175 236 0 174 182 354 8
1 1 231 4025 198 179 227 182 236 200 355 83 1 353 0 81 1 182 4026 99 179 231 0 1
78 186 356 81 1 200 4027 198 183 223 186 231 190 357 83 1 355 0 83 1 357 0 83 3
 356 .40015 .40015 .40015 83 3 354 .40015 .40015 .40015 83 3 352 .40015 .40015 .
40015 83 3 350 .40015 .40015 .40015 83 3 348 .40015 .40015 .40015 83 3 346 .4001
5 .40015 .40015 83 3 344 .40015 .40015 .40015 83 3 342 .40015 .40015 .40015 83 3
 340 .40015 .40015 .40015 83 3 338 .40015 .40015 .40015 83 3 336 .40015 .40015 .
40015 83 3 334 .40015 .40015 .40015 83 3 332 .40015 .40015 .40015 83 3 330 .4001
5 .40015 .40015 83 3 328 .40015 .40015 .40015 83 3 326 .40015 .40015 .40015 83 3
 324 .40015 .40015 .40015 82 1 317 2092 82 1 318 2 82 1 313 2092 82 1 314 3 82 1
 308 2092 82 1 309 4 82 1 303 2092 82 1 304 5 82 1 298 2092 82 1 299 6 82 1 293
 2092 82 1 294 7 82 1 288 2092 82 1 289 8 82 1 283 2092 82 1 284 9 82 1 278 2092
 82 1 279 10 82 1 273 2092 82 1 274 11 82 1 268 2092 82 1 269 12 82 1 263 2092 8
2 1 264 13 82 1 258 2092 82 1 259 14 82 1 253 2092 82 1 254 15 82 1 248 2092 82
 1 249 16 82 1 243 2092 82 1 244 17 82 1 238 2092 82 1 239 18 82 1 233 2092 82 1
 234 19 82 1 228 2092 82 1 229 20 82 1 224 2092 82 1 225 21 81 1 220 3965 358 12
 359 0 0 0 360 80 1 358 361 362 9000 0 0 0 0 3 5 0 0 FFFFFFFFTFFFF1 81 1 359 169
0 361 12 0 220 0 0 363 82 1 360 2092 80 1 361 209 364 9000 0 0 0 0 3 5 0 0 FFFFF
FFFTFFFF1 82 1 363 0 79 23 364 UG2/CMOD_NEST_ATTRIBUTE79 23 362 UG2/CMOD_FEAT_AT
TRIBUTE79 23 219 UG2/CMOD_FACR_ATTRIBUTE82 1 212 2092 82 1 213 22 79 21 208 SDL/
TYSA_TRANSLUCENCY83 3 203 .40015 .40015 .40015 83 1 202 0 79 15 197 SDL/TYSA_COL
OUR15 187 267 0 79 183 195 17 79 187 79 79 0 365 77 0 0 +17 365 184 365 365 0 79
 77 0 0 -15 184 268 0 365 179 366 15 366 127 0 76 179 0 17 76 366 76 76 0 367 74
 0 0 +17 367 368 367 367 0 76 74 0 0 -15 368 132 0 367 175 0 15 180 269 0 73 175
 368 17 73 180 73 73 0 369 71 0 0 +17 369 370 369 369 0 73 71 0 0 -15 370 137 0
 369 171 0 15 176 270 0 70 171 370 17 70 176 70 70 0 371 68 0 0 +17 371 372 371
 371 0 70 68 0 0 -15 372 142 0 371 167 0 15 172 271 0 67 167 372 17 67 172 67 67
 0 373 65 0 0 +17 373 168 373 373 0 67 65 0 0 -15 168 272 0 373 163 374 15 374 1
47 0 64 163 0 17 64 374 64 64 0 375 62 0 0 +17 375 164 375 375 0 64 62 0 0 -15 1
64 273 0 375 159 376 15 376 152 0 61 159 0 17 61 376 61 61 0 377 59 0 0 +17 377
 378 377 377 0 61 59 0 0 -15 378 157 0 377 155 0 15 160 274 0 58 155 378 17 58 1
60 58 58 0 379 56 0 0 +17 379 380 379 379 0 58 56 0 0 -15 380 162 0 379 151 0 15
 156 275 0 55 151 380 17 55 156 55 55 0 381 53 0 0 +17 381 152 381 381 0 55 53 0
 0 -15 152 276 0 381 147 382 15 382 167 0 52 147 0 17 52 382 52 52 0 383 50 0 0
 +17 383 148 383 383 0 52 50 0 0 -15 148 277 0 383 143 384 15 384 172 0 49 143 0
 17 49 384 49 49 0 385 47 0 0 +17 385 144 385 385 0 49 47 0 0 -15 144 278 0 385
 139 386 15 386 177 0 46 139 0 17 46 386 46 46 0 387 44 0 0 +17 387 140 387 387
 0 46 44 0 0 -15 140 279 0 387 135 388 15 388 182 0 43 135 0 17 43 388 43 43 0 3
89 41 0 0 +17 389 390 389 389 0 43 41 0 0 -15 390 187 0 389 131 0 15 136 280 0 4
0 131 390 17 40 136 40 40 0 391 38 0 0 +17 391 392 391 391 0 40 38 0 0 -15 392 1
92 0 391 127 0 15 132 281 0 37 127 392 17 37 132 37 37 0 393 35 0 0 +17 393 128
 393 393 0 37 35 0 0 -15 128 282 0 393 123 394 15 394 197 0 34 123 0 17 34 394 3
4 34 0 395 30 0 0 +17 395 396 395 395 0 34 30 0 0 -15 396 202 0 395 117 0 15 124
 283 0 29 117 396 17 29 124 29 29 0 397 26 0 0 +17 397 118 397 397 0 29 26 0 0 -
15 118 284 0 397 112 27 15 27 207 0 25 112 0 17 28 113 28 28 0 25 22 0 0 -15 23
 212 0 21 107 0 83 3 116 .40015 .40015 .40015 83 3 111 .40015 .40015 .40015 17 8
8 97 88 88 0 398 86 0 0 +17 398 104 398 398 0 88 86 0 0 -15 104 265 0 398 96 196
 83 3 102 .40015 .40015 .40015 19 17 1 0 1 0 9 6 S74 20 15 6 0 95 100 211 359 2
 220 0 0 0 0 0 0 0 0 0 0 0 0 0 0 80 2 11 399 400 8004 0 0 0 0 3 5 0 0 FFTFFFFFFF
FFF2 3 83 1 13 7830.64369935348 84 8 14 KG/CU M 79 16 400 SDL/TYSA_DENSITY1 0 
