**ABCDEFGHIJKLMNOPQRSTUVWXYZabcdefghijklmnopqrstuvwxyz**************************
**PARASOLID !"#$%&'()*+,-./:;<=>?@[\]^_`{|}~0123456789**************************
**PART1;
MC=unknown;
MC_MODEL=unknown;
MC_ID=unknown;
OS=unknown;
OS_RELEASE=unknown;
FRU=sdl_parasolid_customer_support;
APPL=parasolid_acceptance_tests;
SITE=unknown;
USER=unknown;
FORMAT=text;
GUISE=transmit;
KEY=Parasolid_temporary_file.x_t;
FILE=Parasolid_temporary_file.x_t;
DATE=unknown;
**PART2;
SCH=SCH_1101167_11004;
USFLD_SIZE=0;
**PART3;
**END_OF_HEADER*****************************************************************
T51 : TRANSMIT FILE created by modeller version 110116717 SCH_1101167_110040 12
 1 433 2 3 0 0 0 0 1e3 1e-8 0 0 0 1 0 1 1 4 5 6 7 8 9 10 81 2 2 433 11 1 12 0 0
 0 13 14 70 3 0 1 0 0 4 8 20 4 15 15 1 F13 4 176 0 1 0 16 0 0 17 0 59 5 301 0 1
 18 0 19 +0 20 38 6 300 0 9 21 0 0 +22 5 23 24 25 29 7 292 0 10 26 0 .19812 .180
34 .254 19 8 189 0 1 17 0 27 V16 9 298 28 ?29 0 30 6 0 0 1 18 10 290 0 31 0 32 7
 ?1 17 31 0 33 34 35 10 36 30 0 37 +18 32 287 0 38 10 39 26 ?1 17 38 0 40 41 42
 32 43 44 0 36 +18 39 277 0 45 32 46 47 ?1 29 26 289 0 32 47 7 .19812 .07366 .25
4 29 47 279 0 39 48 26 .1778 .0889 .2794 29 48 276 0 46 49 47 .1778 .1651 .2794
 18 46 274 0 50 39 51 48 ?1 29 49 230 0 52 53 48 .508 0 .2544681793280955 18 52
 17 0 54 55 56 49 ?1 29 53 224 0 55 57 49 .508 .254 .2544681793280955 18 55 19 0
 58 59 52 53 ?1 29 57 211 0 51 60 53 .2390096834287635 .254 .254 18 51 209 0 34
 46 61 57 ?1 29 60 208 0 61 62 57 .2390096834287635 0 .254 18 61 206 0 63 51 64
 60 ?1 29 62 58 0 64 65 60 0 0 .254 18 64 23 0 66 61 59 62 ?1 29 65 57 0 59 67 6
2 0 .254 .254 18 59 21 0 68 64 55 65 ?1 29 67 41 0 69 70 65 0 0 0 18 69 11 0 71
 72 73 67 ?1 29 70 40 0 72 74 67 0 .254 0 18 72 13 0 75 56 69 70 ?1 29 74 39 0 5
6 76 70 .508 .254 0 18 56 15 0 77 52 72 74 ?1 29 76 38 0 73 0 74 .508 0 0 18 73
 10 0 78 69 0 76 ?1 17 78 0 79 80 54 73 81 82 0 83 -15 79 7 0 80 84 0 17 80 0 79
 85 78 56 86 87 0 0 +17 54 0 79 78 85 52 88 89 0 81 +17 81 0 90 63 83 52 78 82 0
 91 +16 82 18 92 ?81 93 87 94 0 0 1 17 83 0 90 81 71 73 95 96 0 86 +15 90 32 0 8
1 97 0 17 71 0 90 83 66 69 98 99 0 100 -17 95 0 101 102 86 69 83 96 0 0 -16 96 1
2 103 ?83 104 105 106 0 0 1 17 86 0 101 95 107 73 80 87 0 0 -15 101 8 0 86 108 0
 17 107 0 101 86 102 56 109 110 0 80 -16 87 6 111 ?80 82 110 112 0 0 1 81 1 111
 425 113 87 0 0 92 114 115 16 110 16 114 ?109 87 104 116 0 0 1 30 112 43 0 87 10
6 116 0 +.508 .127 0 0 1 0 30 106 42 0 96 117 112 0 +.254 0 0 1 0 0 30 116 44 0
 110 112 118 0 +.254 .254 0 -1 0 0 30 118 45 0 104 116 94 0 +0 .127 0 0 -1 0 16
 104 14 119 ?100 110 96 118 0 0 1 30 94 50 0 82 118 120 0 +.508 0 0 0 0 1 30 120
 51 0 93 94 121 0 +.508 .254 0 0 0 1 16 93 20 122 ?85 123 82 120 0 0 1 30 121 52
 0 123 120 124 0 +0 .254 0 0 0 1 16 123 22 125 ?126 99 93 121 0 0 1 30 124 53 0
 99 121 127 0 +0 0 0 0 0 1 16 99 24 128 ?98 129 123 124 0 0 1 30 127 60 0 129 12
4 130 0 +.254 .254 .254 1 0 0 16 129 28 131 ?132 133 99 127 0 0 1 30 130 61 0 13
3 127 134 0 +0 .127 .254 0 1 0 16 133 31 135 ?68 136 129 130 0 0 1 30 134 62 0 1
36 130 137 0 +.254 0 .254 -1 0 0 16 136 207 138 ?66 139 133 134 0 0 1 31 137 201
 0 139 134 140 0 +.381 .127 .381 0 0 1 1 0 0 .0635 16 139 198 141 ?142 143 136 1
37 0 0 1 31 140 213 0 143 137 144 0 -.381 .127 .254 0 0 1 1 0 0 .1905 16 143 291
 145 ?34 146 139 140 0 0 1 31 144 216 0 146 140 147 0 -.381 .127 .254 0 0 1 1 0
 0 .1905 16 146 214 148 ?35 149 143 144 0 0 1 38 147 223 0 149 144 150 0 +22 151
 152 153 154 16 149 219 155 ?58 89 146 147 0 0 1 38 150 229 0 89 147 156 0 +22 1
57 158 159 160 54 22 261 0 161 162 163 164 +.381 .127 .381 0 0 1 .1905 .127 1 0
 0 50 151 47 0 165 157 166 167 +.254 .254 0 0 1 0 0 0 1 40 4 152 0 1 4 .01641175
578717755 .3354059865657445 ??.2390096834287635 .254 .254 .3342596834287635 .254
 .266610113297746 .4309117382524015 .254 .2660729667754525 .508 .254 .2544681793
280955 41 1 153 L.2390096834287635 .254 .254 41 1 154 L.508 .254 .25446817932809
55 14 165 27 168 ?108 169 170 4 151 +0 0 108 169 27 50 157 46 0 84 171 151 172 +
.508 .127 0 1 0 0 0 0 -1 50 166 48 0 169 151 173 0 +0 .127 0 -1 0 0 0 0 1 141 16
7 147 167 167 151 14 169 30 174 ?165 97 175 4 166 +0 0 165 97 27 50 173 49 0 97
 166 176 177 +.254 0 0 0 -1 0 0 0 -1 14 97 33 178 ?169 179 90 4 173 +0 0 169 179
 27 50 176 54 0 179 173 18 0 +.254 .127 .254 0 0 1 1 0 0 141 177 156 177 177 173
 38 156 235 0 180 150 181 0 +22 173 182 183 184 16 180 231 185 ?63 186 89 156 0
 0 1 31 181 280 0 186 156 187 0 +.127 .127 .2794 0 0 1 1 0 0 .0635 40 4 182 0 1
 4 .0299077813296318 .3575249603176295 ??.508 0 .2544681793280955 .4632810655665
01 0 .26019313686999 .3167312158268525 0 .263487410430648 .2390096834287635 0 .2
54 41 1 183 L.508 0 .2544681793280955 41 1 184 L.2390096834287635 0 .254 16 186
 278 188 ?45 189 180 181 0 0 1 38 187 283 0 189 181 21 0 +190 18 191 192 193 16
 189 281 194 ?195 30 186 187 0 0 1 31 21 295 0 30 187 6 0 -.127 .127 .254 0 0 1
 1 0 0 .0889 51 190 161 0 196 197 171 198 +.127 .127 .254 0 0 1 .0635 1 0 0 59 1
8 284 0 1 176 5 199 +1 20 40 5 191 0 1 5 .003815428077529515 .3516626968766715 ?
?.1778 .0889 .2794 .1873693955762155 .1073077152731734 .2811525428672725 .190495
122927388 .1277869971003092 .2826235114498185 .1871322628812545 .147404924914826
2 .2810615070473515 .1778 .1651 .2794 41 1 192 L.1778 .0889 .2794 41 1 193 L.177
8 .1651 .2794 141 199 187 199 199 18 56 20 330 0 200 0 201 202 +R190 22 203 .025
4 -.0254 1 1 0 0 0 0 14 200 323 204 ?0 205 40 4 20 -0 0 0 205 27 51 201 329 0 1
 20 206 207 +.127 .127 .254 0 0 1 .0889 1 0 0 141 202 18 208 208 20 38 203 331 0
 1 209 210 211 -201 206 212 213 214 134 215 0 0 0 0 0 0 -216 217 136 216 3 22 3
 8 1 FFF2 218 219 220 135 217 1 45 66 218 .1724892081607585 .0506197542494973 .2
84426093145958 .1791595243934575 .0545923442906251 .281932714177746 .18566038781
5125 .0597076282473939 .2804221385076165 .19127668579383 .0655856884483655 .2797
919526252375 .196624929657443 .0711832011727606 .2791918441923965 .2013097188116
4 .0775901296666113 .2793532295555595 .205024063835281 .0843918380749882 .279839
4342741455 .2092077392654665 .0920529842986954 .2803870739581925 .21227404177514
2 .100397916319115 .2813283432595055 .214046408441294 .1089408533570542 .2819392
06547176 .216068541768862 .1186876839816896 .282636154326762 .216435021756677 .1
289786108729768 .282817385929426 .2151058848677255 .1388559289671932 .2823199434
469655 .213856575947048 .148140015286706 .281852377362518 .211098126296169 .1573
016530583075 .28084947777539 .2070244781203005 .1657207037845845 .28014334392236
4 .2045439799001475 .170847175055623 .2797133696855125 .201546754222969 .1757709
94369375 .2794 .19812 .18034 .2794 .193330525578569 .186725965895241 .2794 .1875
743602463385 .192537617438435 .28004350482799 .181384816143779 .197324261624331
 .2816237601519245 127 8 219 4 3 3 3 3 3 3 4 128 8 220 .3151303666812645 .339494
704706165 .362610888849826 .388662025453427 .4185354587393045 .4465191181243645
 .463433411475276 .487259289791221 31 209 332 0 44 221 203 0 +.19812 .07366 .279
4 -.6 -.8 218547839493141e-30 .8 -.6 0 .0254 31 210 194 0 222 203 117 0 +.381 .1
27 .508 0 0 -1 -1 0 0 .0635 141 211 20 211 211 203 54 206 328 0 1 201 162 223 +.
381 .127 .381 0 0 1 .1905 .1016 1 0 0 40 8 212 .3151303666812645 .99597904619954
9 8 .00706905393734683 .39762547118739 ??.1724892081607585 .0506197542494973 .28
4426093145958 .19127668579383 .0655856884483655 .2797919526252375 .2050240638352
81 .0843918380749882 .2798394342741455 .214046408441294 .1089408533570542 .28193
9206547176 .2151058848677255 .1388559289671932 .2823199434469655 .20702447812030
05 .1657207037845845 .280143343922364 .19812 .18034 .2794 .181384816143779 .1973
24261624331 .2816237601519245 41 1 213 L.1724892081607585 .0506197542494973 .284
426093145958 41 1 214 L.181384816143779 .197324261624331 .2816237601519245 54 16
2 327 0 205 206 22 0 +.127 .127 .2794 0 0 1 .0889 .0254 1 0 0 141 223 203 223 22
3 206 14 205 321 224 ?200 161 225 4 162 -0 0 200 161 27 81 1 224 405 113 205 226
 0 227 204 228 14 161 256 227 ?205 84 229 4 22 -0 0 205 84 27 15 225 322 0 230 2
05 0 13 27 190 0 0 0 0 0 0 8 16 14 16 179 231 ?232 0 233 4 163 +0 0 232 0 27 81
 1 231 383 113 16 234 0 0 235 236 14 232 185 235 ?237 16 238 4 239 +0 0 237 16 2
7 15 233 181 0 240 16 0 50 163 192 0 16 22 239 0 +.381 .127 .508 0 0 1 1 0 0 51
 239 191 0 232 163 197 0 +.381 .127 .254 0 0 1 .0635 1 0 0 50 197 162 0 237 239
 190 0 +.127 .127 .508 0 0 1 1 0 0 14 237 149 241 ?196 232 242 4 197 +0 0 196 23
2 27 81 1 241 387 113 237 243 0 235 244 245 14 196 155 244 ?179 237 246 4 190 +0
 0 179 237 27 15 242 151 0 247 237 0 17 247 0 242 247 247 0 248 105 0 0 -17 248
 0 249 248 248 0 247 105 0 0 +16 105 147 250 ?248 96 222 117 0 0 1 81 1 250 429
 113 105 0 0 103 251 252 16 222 177 251 ?253 105 44 210 0 0 1 31 117 164 0 105 2
10 106 0 +.127 .127 .508 0 0 -1 -1 0 0 .0635 81 1 251 430 113 222 0 0 250 254 25
5 17 253 0 256 253 253 0 240 222 0 0 +16 44 309 254 ?38 222 257 209 0 0 1 81 1 2
54 431 113 44 0 0 251 258 259 16 257 311 258 ?50 44 0 221 0 0 1 81 1 258 432 113
 257 0 0 254 0 260 17 50 0 40 42 41 46 230 257 0 261 +31 221 333 0 257 0 209 0 +
.19812 .18034 .2794 -.6 .8 0 -.8 -.6 0 .0254 15 40 324 0 38 200 0 17 42 0 40 38
 50 39 195 189 0 0 -17 41 0 40 50 38 10 29 9 0 230 -17 230 0 225 36 261 10 50 25
7 0 0 -17 261 0 225 230 43 46 45 186 0 195 -17 43 0 225 261 36 39 38 44 0 42 -17
 45 0 246 195 195 39 261 186 0 43 +17 195 0 246 45 45 46 42 189 0 0 +15 246 275
 0 45 196 249 15 249 157 0 248 196 0 17 36 0 225 43 230 32 31 30 0 29 -16 30 293
 262 ?31 9 189 21 0 0 1 17 29 0 229 263 37 32 41 9 0 35 +15 229 257 0 37 161 264
 17 263 0 229 91 29 61 35 146 0 0 -17 37 0 229 29 265 10 34 143 0 41 -17 35 0 33
 31 266 32 263 146 0 0 +15 33 139 0 35 179 0 17 266 0 33 35 267 61 66 136 0 263
 -17 267 0 33 266 268 64 68 133 0 98 -17 66 0 90 71 63 64 266 136 0 267 +17 63 0
 90 66 81 61 91 180 0 266 +17 91 0 229 88 263 52 63 180 0 0 -17 88 0 229 265 91
 55 54 89 0 0 -17 265 0 229 37 88 51 58 149 0 0 -16 89 225 269 ?54 180 149 150 0
 0 1 81 1 269 413 113 89 0 0 185 155 270 80 1 113 0 271 8001 0 0 0 0 3 5 0 0 FFF
FTFTFFFFFFF2 81 1 185 412 113 180 0 0 188 269 272 81 1 155 414 113 149 0 0 269 1
48 273 83 3 270 1 1 0 81 1 148 415 113 146 0 0 155 145 274 83 3 273 1 1 0 81 1 1
45 416 113 143 0 0 148 141 275 83 3 274 1 1 0 81 1 141 417 113 139 0 0 145 138 2
76 83 3 275 1 1 0 81 1 138 418 113 136 0 0 141 135 277 83 3 276 1 1 0 81 1 135 4
19 113 133 0 0 138 131 278 83 3 277 1 1 0 81 1 131 420 113 129 0 0 135 128 279 8
3 3 278 1 1 0 81 1 128 421 113 99 0 0 131 125 280 83 3 279 1 1 0 81 1 125 422 11
3 123 0 0 128 122 281 83 3 280 1 1 0 81 1 122 423 113 93 0 0 125 92 282 83 3 281
 1 1 0 81 1 92 424 113 82 0 0 122 111 283 83 3 282 1 1 0 83 3 283 1 1 0 81 1 188
 411 113 186 0 0 194 185 284 83 3 272 1 1 0 81 1 194 410 113 189 0 0 262 188 285
 83 3 284 1 1 0 81 1 262 409 113 30 0 0 28 194 286 83 3 285 1 1 0 81 1 28 408 11
3 9 0 0 204 262 287 83 3 286 1 1 0 81 1 204 407 113 200 288 0 224 28 289 83 3 28
7 1 1 0 81 1 288 406 290 200 291 204 226 0 292 83 3 289 1 1 0 80 1 290 293 294 8
015 0 0 0 0 3 5 0 0 FFFFTFFFFFFFFF2 81 2 291 381 295 200 296 288 297 0 298 299 8
1 1 226 404 290 205 297 224 300 288 301 83 1 292 0 81 2 297 380 295 205 302 226
 303 291 304 305 81 1 300 402 290 161 303 227 306 226 307 83 1 301 0 81 2 303 37
9 295 161 308 300 309 297 310 311 81 1 227 403 113 161 300 0 312 224 313 81 1 30
6 400 290 84 309 312 314 300 315 83 1 307 0 14 84 2 312 ?161 108 79 4 157 +0 0 1
61 108 27 81 2 309 378 295 84 316 306 317 303 318 319 81 1 312 401 113 84 306 0
 320 227 321 81 1 314 398 290 108 317 320 322 306 323 83 1 315 0 14 108 9 320 ?8
4 165 101 4 171 +0 0 84 165 27 81 2 317 377 295 108 324 314 325 309 326 327 81 1
 320 399 113 108 314 0 168 312 328 81 1 322 396 290 165 325 168 329 314 330 83 1
 323 0 81 2 325 376 295 165 331 322 332 317 333 334 81 1 168 397 113 165 322 0 1
74 320 335 81 1 329 394 290 169 332 174 336 322 337 83 1 330 0 81 2 332 375 295
 169 338 329 339 325 340 341 81 1 174 395 113 169 329 0 178 168 342 81 1 336 392
 290 97 339 178 343 329 344 83 1 337 0 81 2 339 374 295 97 345 336 346 332 347 3
48 81 1 178 393 113 97 336 0 349 174 350 81 1 343 390 290 179 346 349 351 336 35
2 83 1 344 0 14 179 36 349 ?97 196 33 4 176 +0 0 97 196 27 81 2 346 373 295 179
 353 343 354 339 355 356 81 1 349 391 113 179 343 0 244 178 357 81 1 351 388 290
 196 354 244 243 343 358 83 1 352 0 81 2 354 372 295 196 359 351 360 346 361 362
 81 1 244 389 113 196 351 0 241 349 363 81 1 243 386 290 237 360 241 364 351 365
 83 1 358 0 81 2 360 371 295 237 366 243 367 354 368 369 81 1 364 384 290 232 36
7 235 234 243 370 83 1 365 0 81 2 367 370 295 232 371 364 372 360 373 374 81 1 2
35 385 113 232 364 0 231 241 375 81 1 234 382 290 16 372 231 0 364 376 83 1 370
 0 81 2 372 369 295 16 377 234 0 367 378 379 83 1 376 0 80 2 295 380 381 9000 0
 0 0 0 3 6 0 0 FFFFTFFFFFFFFF1 1 91 377 -32764 382 16 0 372 371 0 82 1 378 1150
 82 1 379 1 90 382 173 383 1 384 385 2 377 91 371 -32764 382 232 0 367 0 377 81
 1 383 366 386 382 387 0 388 389 390 90 384 143 389 1 391 382 2 366 81 2 385 196
 392 1 382 393 0 0 394 395 80 2 392 396 397 8004 0 0 0 0 3 5 0 0 FFTFFFFFFFFFFF2
 3 90 393 268 388 1 385 398 2 308 83 1 394 7830.64369935348 84 8 395 KG/CU M 81
 1 388 365 386 393 399 0 400 383 401 90 398 340 400 1 393 12 2 302 91 308 -32764
 393 161 0 303 0 0 81 1 400 364 386 398 402 0 0 388 403 81 1 12 345 404 1 398 2
 0 0 405 91 302 -32764 398 205 0 297 296 0 91 296 -32764 398 200 0 291 0 302 80
 1 404 406 407 9000 0 0 0 0 3 5 0 0 FFTFFFFFFFFFFF1 82 1 405 4 79 7 407 body_id8
0 1 386 295 408 9000 0 0 0 0 3 5 0 0 FFFFFFFFTFFFFF1 81 1 402 342 406 398 0 400
 399 0 409 82 1 403 1147 80 1 406 386 410 9000 0 0 0 0 3 5 0 0 FFFFFFFFTFFFFF1 8
1 1 399 270 406 393 0 388 387 402 411 82 1 409 0 81 1 387 174 406 382 0 383 412
 399 413 82 1 411 0 81 1 412 144 406 384 0 389 414 387 415 82 1 413 0 81 1 389 3
67 386 384 412 0 383 416 417 81 1 414 71 406 391 0 416 0 412 418 82 1 415 0 90 3
91 69 416 1 0 384 2 353 81 1 416 368 386 391 414 0 389 0 419 82 1 418 0 82 1 419
 1148 91 353 -32764 391 179 0 346 345 0 91 345 -32764 391 97 0 339 338 353 91 33
8 -32764 391 169 0 332 331 345 91 331 -32764 391 165 0 325 324 338 91 324 -32764
 391 108 0 317 316 331 91 316 -32764 391 84 0 309 0 324 82 1 417 1151 79 23 410
 UG2/CMOD_NEST_ATTRIBUTE79 23 408 UG2/CMOD_FEAT_ATTRIBUTE82 1 401 1303 79 16 397
 SDL/TYSA_DENSITY91 366 -32764 384 237 0 360 359 0 91 359 -32764 384 196 0 354 0
 366 82 1 390 1150 79 23 381 UG2/CMOD_FACR_ATTRIBUTE83 3 375 1 1 0 82 1 373 1150
 82 1 374 3 82 1 368 1151 82 1 369 1 83 3 363 1 1 0 82 1 361 1151 82 1 362 3 83
 3 357 1 1 0 82 1 355 1148 82 1 356 1 83 3 350 1 1 0 82 1 347 1148 82 1 348 2 83
 3 342 1 1 0 82 1 340 1148 82 1 341 3 83 3 335 1 1 0 82 1 333 1148 82 1 334 4 83
 3 328 1 1 0 82 1 326 1148 82 1 327 5 50 171 37 0 108 190 157 0 +.254 .127 0 0 0
 -1 -1 0 0 83 3 321 1 1 0 82 1 318 1148 82 1 319 6 83 3 313 1 1 0 82 1 310 1303
 82 1 311 1103 82 1 304 1147 82 1 305 1099 82 1 298 1147 82 1 299 1099 79 21 294
 SDL/TYSA_TRANSLUCENCY79 15 271 SDL/TYSA_COLOUR17 58 0 170 77 132 55 265 149 0 8
5 +15 170 26 0 126 165 0 17 77 0 170 109 58 56 85 93 0 107 -17 132 0 170 58 126
 51 268 129 0 265 +17 85 0 79 54 80 55 77 93 0 88 +17 126 0 170 132 109 59 75 12
3 0 0 +17 268 0 33 267 34 59 132 129 0 126 -17 34 0 33 268 31 51 37 143 0 132 +1
7 109 0 170 126 77 72 107 110 0 102 +17 75 0 175 100 68 72 126 123 0 109 -15 175
 29 0 98 169 0 17 100 0 175 98 75 69 102 104 0 95 +17 68 0 175 75 98 59 267 133
 0 268 +17 98 0 175 68 100 64 71 99 0 0 +17 102 0 101 107 95 72 100 104 0 0 -15
 264 258 0 420 161 0 17 420 0 264 420 420 0 142 139 0 0 -17 142 0 238 142 142 0
 420 139 0 0 +15 238 199 0 142 232 256 15 256 187 0 253 232 0 83 3 260 1 1 0 83
 3 259 1 1 0 17 240 0 233 240 240 0 253 222 0 0 -83 3 255 1 1 0 81 1 103 428 113
 96 0 0 119 250 421 83 3 252 1 1 0 81 1 119 427 113 104 0 0 114 103 422 83 3 421
 1 1 0 81 1 114 426 113 110 0 0 111 119 423 83 3 422 1 1 0 83 3 423 1 1 0 83 3 2
45 1 1 0 83 3 236 1 1 0 83 3 228 1 1 0 141 208 5 202 202 20 141 207 203 207 207
 201 141 198 20 424 424 190 141 424 187 198 198 190 141 172 150 172 172 157 141
 164 147 425 426 22 141 425 6 427 164 22 141 426 150 164 428 22 141 428 156 426
 427 22 141 427 20 428 425 22 40 4 158 0 1 4 .02990778132963185 .357524960317629
5 ??.508 .254 .2544681793280955 .508 .2092810655665005 .26019313686999 .508 .062
7312158268523 .263487410430648 .508 -357134071416912e-32 .2544681793280955 41 1
 159 L.508 .254 .2544681793280955 41 1 160 L.508 -357134071416912e-32 .254468179
3280955 83 3 115 1 1 0 19 17 5 0 1 0 8 4 S40 6 23 0 1 6 .0044761789600058 .39673
774880172 ??.19812 .18034 .254 .214654887916649 .156949888168734 .25582971230375
55 .2215746668067655 .1358931160807832 .257798104064343 .2206863246227425 .11345
8151954929 .2575013020897925 .2111406186653035 .0907403532535743 .25511789871963
3 .19812 .07366 .254 41 1 24 L.19812 .18034 .254 41 1 25 L.19812 .07366 .254 141
 19 6 19 19 5 74 20 15 8 0 291 416 402 385 12 288 258 2 0 0 0 0 0 0 0 0 0 0 0 0
 80 2 11 404 429 9000 0 0 0 0 3 5 0 0 FFTFFFFFFFFFFF2 1 83 24 13 -.9197264909744
26 -.3824073672294615 .0887030959129334 0 .3863720297813415 -.841850876808167 .3
76834362745285 0 -.0694296285510063 .380856603384018 .922024071216583 0 0 0 0 1
 1 .258726649811533 .16462417444653 .2381681490639845 .2822222222222225 0 0 0 82
 1 14 0 79 12 429 SDL/ParaView1 0 
