104 1429 0 0                            
body $-1 $1 $-1 $-1 #
lump $-1 $-1 $2 $0 #
shell $-1 $-1 $-1 $3 $1 #
face $-1 $4 $5 $2 $-1 $6 1 #
face $-1 $7 $8 $2 $-1 $9 1 #
loop $-1 $10 $11 $3 #
cone-surface $-1 31 -35 -11.75 -6.98296267768627e-15 0 -1 -0.375 0 2.61861100413235e-15 1 -0.447213595499958 0.894427190999916 0 #
face $-1 $12 $13 $2 $-1 $14 1 #
loop $-1 $15 $16 $4 #
cone-surface $-1 31 -35 -7 0 0 1 0.75 0 0 1 0 1 0 #
loop $-1 $-1 $17 $3 #
coedge $-1 $18 $18 $16 $19 1 $5 $-1 #
face $-1 $20 $21 $2 $-1 $22 1 #
loop $-1 $23 $24 $7 #
cone-surface $-1 55 -35 -11.75 -6.98296267768627e-15 0 -1 -0.375 0 2.61861100413235e-15 1 -0.447213595499958 0.894427190999916 0 #
loop $-1 $-1 $25 $4 #
coedge $-1 $26 $26 $11 $19 0 $8 $-1 #
coedge $-1 $17 $17 $-1 $27 0 $10 $-1 #
coedge $-1 $11 $11 $26 $28 1 $5 $-1 #
edge $-1 $29 $30 $16 $31 0 #
face $-1 $32 $33 $2 $-1 $34 1 #
loop $-1 $35 $36 $12 #
cone-surface $-1 55 -35 -7 0 0 1 0.75 0 0 1 0 1 0 #
loop $-1 $-1 $37 $7 #
coedge $-1 $38 $38 $36 $39 1 $13 $-1 #
coedge $-1 $25 $25 $40 $41 1 $15 $-1 #
coedge $-1 $16 $16 $18 $28 0 $8 $-1 #
edge $-1 $42 $42 $17 $-1 0 #
edge $-1 $30 $29 $26 $31 0 #
vertex $-1 $28 $43 #
vertex $-1 $19 $44 #
ellipse-curve $-1 31 -35 -11 0 0 -1 0.75 0 0 1 #
face $-1 $45 $46 $2 $-1 $47 1 #
loop $-1 $48 $49 $20 #
cone-surface $-1 60 10 16.25 -6.98296267768627e-15 0 -1 -0.375 0 2.61861100413235e-15 1 -0.447213595499958 0.894427190999916 0 #
loop $-1 $-1 $50 $12 #
coedge $-1 $51 $51 $24 $39 0 $21 $-1 #
coedge $-1 $37 $37 $-1 $52 0 $23 $-1 #
coedge $-1 $24 $24 $51 $53 1 $13 $-1 #
edge $-1 $54 $55 $36 $56 0 #
coedge $-1 $40 $40 $25 $41 0 $57 $-1 #
edge $-1 $58 $58 $40 $59 0 #
vertex $-1 $27 $60 #
point $-1 31.75 -35 -11 #
point $-1 30.25 -35 -11 #
face $-1 $61 $62 $2 $-1 $63 1 #
loop $-1 $64 $65 $32 #
cone-surface $-1 60 10 21 0 0 1 0.75 0 0 1 0 1 0 #
loop $-1 $-1 $66 $20 #
coedge $-1 $67 $67 $65 $68 1 $33 $-1 #
coedge $-1 $50 $50 $69 $70 1 $35 $-1 #
coedge $-1 $36 $36 $38 $53 0 $21 $-1 #
edge $-1 $71 $71 $37 $-1 0 #
edge $-1 $55 $54 $51 $56 0 #
vertex $-1 $53 $72 #
vertex $-1 $39 $73 #
ellipse-curve $-1 55 -35 -11 0 0 -1 0.75 0 0 1 #
loop $-1 $74 $40 $75 #
vertex $-1 $41 $76 #
ellipse-curve $-1 31 -35 -3 -0 -0 -1 0.75 0 0 1 #
point $-1 31 -35 -12.5 #
face $-1 $77 $78 $2 $-1 $79 1 #
loop $-1 $80 $81 $45 #
cone-surface $-1 60 -15 16.25 -6.98296267768627e-15 0 -1 -0.375 0 2.61861100413235e-15 1 -0.447213595499958 0.894427190999916 0 #
loop $-1 $-1 $82 $32 #
coedge $-1 $83 $83 $49 $68 0 $46 $-1 #
coedge $-1 $66 $66 $-1 $84 0 $48 $-1 #
coedge $-1 $49 $49 $83 $85 1 $33 $-1 #
edge $-1 $86 $87 $65 $88 0 #
coedge $-1 $69 $69 $50 $70 0 $74 $-1 #
edge $-1 $89 $89 $69 $90 0 #
vertex $-1 $52 $91 #
point $-1 55.75 -35 -11 #
point $-1 54.25 -35 -11 #
loop $-1 $92 $69 $75 #
face $-1 $93 $57 $2 $-1 $94 0 #
point $-1 31.75 -35 -3 #
face $-1 $95 $96 $2 $-1 $97 1 #
loop $-1 $98 $99 $61 #
cone-surface $-1 60 -15 21 0 0 1 0.75 0 0 1 0 1 0 #
loop $-1 $-1 $100 $45 #
coedge $-1 $101 $101 $99 $102 1 $62 $-1 #
coedge $-1 $82 $82 $103 $104 1 $64 $-1 #
coedge $-1 $65 $65 $67 $85 0 $46 $-1 #
edge $-1 $105 $105 $66 $-1 0 #
edge $-1 $87 $86 $83 $88 0 #
vertex $-1 $85 $106 #
vertex $-1 $68 $107 #
ellipse-curve $-1 60 10 17 0 0 -1 0.75 0 0 1 #
vertex $-1 $70 $108 #
ellipse-curve $-1 55 -35 -3 -0 -0 -1 0.75 0 0 1 #
point $-1 55 -35 -12.5 #
loop $-1 $109 $110 $75 #
face $-1 $111 $112 $2 $-1 $113 0 #
plane-surface $-1 30.5 -2.5 -3 0 0 1 1 0 0 0 #
face $-1 $114 $115 $2 $-1 $116 1 #
loop $-1 $117 $118 $77 #
cone-surface $-1 -56 -15 16.25 -6.98296267768627e-15 0 -1 -0.375 0 2.61861100413235e-15 1 -0.447213595499958 0.894427190999916 0 #
loop $-1 $-1 $119 $61 #
coedge $-1 $120 $120 $81 $102 0 $78 $-1 #
coedge $-1 $100 $100 $-1 $121 0 $80 $-1 #
coedge $-1 $81 $81 $120 $122 1 $62 $-1 #
edge $-1 $123 $124 $99 $125 0 #
coedge $-1 $103 $103 $82 $104 0 $126 $-1 #
edge $-1 $127 $127 $103 $128 0 #
vertex $-1 $84 $129 #
point $-1 60.75 10 17 #
point $-1 59.25 10 17 #
point $-1 55.75 -35 -3 #
loop $-1 $-1 $130 $75 #
coedge $-1 $131 $132 $133 $134 0 $92 $-1 #
face $-1 $135 $136 $2 $-1 $137 1 #
loop $-1 $-1 $138 $93 #
plane-surface $-1 58 -2.5 11 -1 0 0 0 0 1 0 #
face $-1 $139 $140 $2 $-1 $141 1 #
loop $-1 $142 $143 $95 #
cone-surface $-1 -56 -15 21 0 0 1 0.75 0 0 1 0 1 0 #
loop $-1 $-1 $144 $77 #
coedge $-1 $145 $145 $143 $146 1 $96 $-1 #
coedge $-1 $119 $119 $147 $148 1 $98 $-1 #
coedge $-1 $99 $99 $101 $122 0 $78 $-1 #
edge $-1 $149 $149 $100 $-1 0 #
edge $-1 $124 $123 $120 $125 0 #
vertex $-1 $122 $150 #
vertex $-1 $102 $151 #
ellipse-curve $-1 60 -15 17 0 0 -1 0.75 0 0 1 #
loop $-1 $152 $103 $153 #
vertex $-1 $104 $154 #
ellipse-curve $-1 60 10 25 -0 -0 -1 0.75 0 0 1 #
point $-1 60 10 15.5 #
coedge $-1 $155 $156 $157 $158 0 $109 $-1 #
coedge $-1 $159 $110 $160 $161 0 $92 $-1 #
coedge $-1 $110 $162 $163 $164 0 $92 $-1 #
coedge $-1 $165 $166 $110 $134 1 $167 $-1 #
edge $-1 $168 $169 $110 $170 0 #
face $-1 $171 $172 $2 $-1 $173 0 #
loop $-1 $-1 $174 $111 #
cone-surface $-1 55.5 -34 11 0 0 -1 1.76776695296637 -1.76776695296637 0 1 0 1 0 #
coedge $-1 $175 $176 $177 $178 0 $112 $-1 #
face $-1 $179 $180 $2 $-1 $181 1 #
loop $-1 $182 $183 $114 #
cone-surface $-1 -56 10 16.25 -6.98296267768627e-15 0 -1 -0.375 0 2.61861100413235e-15 1 -0.447213595499958 0.894427190999916 0 #
loop $-1 $-1 $184 $95 #
coedge $-1 $185 $185 $118 $146 0 $115 $-1 #
coedge $-1 $144 $144 $-1 $186 0 $117 $-1 #
coedge $-1 $118 $118 $185 $187 1 $96 $-1 #
edge $-1 $188 $189 $143 $190 0 #
coedge $-1 $147 $147 $119 $148 0 $152 $-1 #
edge $-1 $191 $191 $147 $192 0 #
vertex $-1 $121 $193 #
point $-1 60.75 -15 17 #
point $-1 59.25 -15 17 #
loop $-1 $194 $147 $153 #
face $-1 $195 $126 $2 $-1 $196 0 #
point $-1 60.75 10 25 #
coedge $-1 $197 $130 $198 $199 1 $109 $-1 #
coedge $-1 $130 $200 $175 $201 1 $109 $-1 #
coedge $-1 $177 $202 $130 $158 1 $203 $-1 #
edge $-1 $204 $205 $130 $206 0 #
coedge $-1 $207 $131 $208 $209 0 $92 $-1 #
coedge $-1 $210 $211 $131 $161 1 $212 $-1 #
edge $-1 $169 $213 $131 $214 0 #
coedge $-1 $132 $215 $216 $217 0 $92 $-1 #
coedge $-1 $218 $219 $132 $164 1 $220 $-1 #
edge $-1 $221 $168 $132 $222 0 #
coedge $-1 $223 $133 $219 $224 1 $167 $-1 #
coedge $-1 $133 $223 $210 $225 1 $167 $-1 #
loop $-1 $-1 $223 $226 #
vertex $-1 $134 $227 #
vertex $-1 $134 $228 #
ellipse-curve $-1 50 -28.5 -3 -0 -0 -1 2.12132034355964 -2.12132034355964 0 1 #
face $-1 $229 $230 $2 $-1 $231 1 #
loop $-1 $-1 $232 $135 #
plane-surface $-1 30.5 -36.5 11 0 1 0 0 0 1 0 #
coedge $-1 $233 $234 $200 $235 1 $136 $-1 #
coedge $-1 $236 $138 $156 $201 0 $112 $-1 #
coedge $-1 $138 $236 $237 $238 1 $112 $-1 #
coedge $-1 $239 $157 $138 $178 1 $203 $-1 #
edge $-1 $240 $204 $138 $241 0 #
face $-1 $242 $243 $2 $-1 $244 1 #
loop $-1 $245 $246 $139 #
cone-surface $-1 -56 10 21 0 0 1 0.75 0 0 1 0 1 0 #
loop $-1 $-1 $247 $114 #
coedge $-1 $248 $248 $246 $249 1 $140 $-1 #
coedge $-1 $184 $184 $250 $251 1 $142 $-1 #
coedge $-1 $143 $143 $145 $187 0 $115 $-1 #
edge $-1 $252 $252 $144 $-1 0 #
edge $-1 $189 $188 $185 $190 0 #
vertex $-1 $187 $253 #
vertex $-1 $146 $254 #
ellipse-curve $-1 -56 -15 17 0 0 -1 0.75 0 0 1 #
vertex $-1 $148 $255 #
ellipse-curve $-1 60 -15 25 -0 -0 -1 0.75 0 0 1 #
point $-1 60 -15 15.5 #
loop $-1 $256 $250 $153 #
face $-1 $257 $258 $2 $-1 $259 0 #
plane-surface $-1 0 0 25 0 0 1 1 0 0 0 #
coedge $-1 $260 $155 $261 $262 0 $109 $-1 #
coedge $-1 $263 $264 $155 $199 0 $265 $-1 #
edge $-1 $266 $205 $198 $267 0 #
coedge $-1 $156 $268 $174 $235 0 $109 $-1 #
edge $-1 $204 $269 $175 $270 0 #
coedge $-1 $157 $239 $263 $271 1 $203 $-1 #
loop $-1 $-1 $157 $272 #
vertex $-1 $178 $273 #
vertex $-1 $199 $274 #
ellipse-curve $-1 55.5 29 -3 0 0 1 1.76776695296637 1.76776695296637 0 1 #
coedge $-1 $275 $159 $276 $277 0 $92 $-1 #
coedge $-1 $278 $279 $159 $209 1 $280 $-1 #
edge $-1 $213 $281 $159 $282 0 #
coedge $-1 $283 $160 $166 $225 0 $212 $-1 #
coedge $-1 $160 $283 $278 $284 0 $212 $-1 #
loop $-1 $-1 $210 $285 #
vertex $-1 $161 $286 #
straight-curve $-1 30.5 -31.5 -3 -1 0 0 #
coedge $-1 $162 $275 $287 $288 0 $92 $-1 #
coedge $-1 $289 $290 $162 $217 1 $291 $-1 #
edge $-1 $292 $221 $162 $293 0 #
coedge $-1 $294 $163 $290 $295 0 $220 $-1 #
coedge $-1 $163 $294 $165 $224 0 $220 $-1 #
loop $-1 $-1 $219 $296 #
vertex $-1 $217 $297 #
straight-curve $-1 53 -2.5 -3 0 -1 0 #
coedge $-1 $166 $165 $298 $299 1 $167 $-1 #
edge $-1 $300 $168 $219 $301 0 #
edge $-1 $169 $302 $210 $303 0 #
face $-1 $304 $167 $2 $-1 $305 1 #
point $-1 53 -28.5 -3 #
point $-1 50 -31.5 -3 #
face $-1 $306 $307 $2 $-1 $308 0 #
loop $-1 $-1 $309 $171 #
cone-surface $-1 5.5 -34 11 -0 -0 -1 -1.76776695296637 -1.76776695296637 0 1 0 1 0 #
coedge $-1 $310 $311 $233 $312 0 $172 $-1 #
coedge $-1 $313 $174 $232 $312 1 $136 $-1 #
coedge $-1 $174 $313 $236 $314 1 $136 $-1 #
edge $-1 $315 $269 $200 $316 0 #
coedge $-1 $176 $175 $234 $314 0 $112 $-1 #
coedge $-1 $317 $318 $176 $238 0 $319 $-1 #
edge $-1 $240 $320 $237 $321 0 #
coedge $-1 $202 $177 $318 $322 1 $203 $-1 #
vertex $-1 $322 $323 #
straight-curve $-1 58 29 11 0 0 -1 #
face $-1 $324 $325 $2 $-1 $326 1 #
loop $-1 $327 $328 $179 #
cone-surface $-1 -56 35 16.25 -6.98296267768627e-15 0 -1 -0.375 0 2.61861100413235e-15 1 -0.447213595499958 0.894427190999916 0 #
loop $-1 $-1 $329 $139 #
coedge $-1 $330 $330 $183 $249 0 $180 $-1 #
coedge $-1 $247 $247 $-1 $331 0 $182 $-1 #
coedge $-1 $183 $183 $330 $332 1 $140 $-1 #
edge $-1 $333 $334 $246 $335 0 #
coedge $-1 $250 $250 $184 $251 0 $194 $-1 #
edge $-1 $336 $336 $250 $337 0 #
vertex $-1 $186 $338 #
point $-1 -55.25 -15 17 #
point $-1 -56.75 -15 17 #
point $-1 60.75 -15 25 #
loop $-1 $339 $340 $153 #
face $-1 $341 $342 $2 $-1 $343 0 #
loop $-1 $344 $345 $195 #
plane-surface $-1 0 43.5 5 0 0 1 1 0 0 0 #
coedge $-1 $346 $197 $347 $348 1 $109 $-1 #
coedge $-1 $349 $350 $197 $262 1 $351 $-1 #
edge $-1 $266 $352 $197 $353 0 #
coedge $-1 $354 $198 $202 $271 0 $265 $-1 #
coedge $-1 $198 $354 $349 $355 0 $265 $-1 #
loop $-1 $-1 $263 $356 #
vertex $-1 $355 $357 #
straight-curve $-1 30.5 31.5 -3 1 0 0 #
coedge $-1 $200 $346 $310 $358 1 $109 $-1 #
vertex $-1 $201 $359 #
straight-curve $-1 58 -2.5 -3 0 -1 0 #
edge $-1 $205 $360 $263 $361 0 #
face $-1 $75 $203 $2 $-1 $362 1 #
point $-1 58 29 -3 #
point $-1 55.5 31.5 -3 #
coedge $-1 $215 $207 $363 $364 0 $92 $-1 #
coedge $-1 $365 $366 $207 $277 1 $367 $-1 #
edge $-1 $281 $368 $207 $369 0 #
coedge $-1 $370 $208 $211 $284 1 $280 $-1 #
coedge $-1 $208 $370 $365 $371 1 $280 $-1 #
loop $-1 $-1 $370 $372 #
vertex $-1 $209 $373 #
ellipse-curve $-1 11 -28.5 -3 -0 -0 -1 -2.12132034355964 -2.12132034355964 0 1 #
coedge $-1 $211 $210 $374 $375 0 $212 $-1 #
edge $-1 $376 $213 $211 $377 0 #
face $-1 $372 $212 $2 $-1 $378 0 #
point $-1 11 -31.5 -3 #
coedge $-1 $379 $380 $215 $288 1 $381 $-1 #
edge $-1 $382 $292 $215 $383 0 #
coedge $-1 $384 $216 $380 $385 1 $291 $-1 #
coedge $-1 $216 $384 $218 $295 1 $291 $-1 #
loop $-1 $-1 $384 $386 #
vertex $-1 $288 $387 #
ellipse-curve $-1 50 23.5 -3 -0 -0 -1 2.12132034355964 2.12132034355964 0 1 #
coedge $-1 $219 $218 $388 $389 0 $220 $-1 #
edge $-1 $221 $390 $218 $391 0 #
face $-1 $392 $220 $2 $-1 $393 0 #
point $-1 53 23.5 -3 #
coedge $-1 $388 $374 $223 $299 0 $394 $-1 #
edge $-1 $302 $300 $298 $395 0 #
vertex $-1 $389 $396 #
straight-curve $-1 53 -28.5 -8 0 0 1 #
vertex $-1 $225 $397 #
straight-curve $-1 50 -31.5 -8 0 0 -1 #
face $-1 $285 $398 $2 $-1 $399 0 #
cone-surface $-1 50 -28.5 -8 0 0 -1 2.12132034355964 -2.12132034355964 0 1 0 1 0 #
face $-1 $356 $351 $2 $-1 $400 1 #
loop $-1 $-1 $401 $229 #
plane-surface $-1 3 -2.5 11 1 0 0 0 0 -1 0 #
coedge $-1 $402 $403 $346 $404 1 $230 $-1 #
coedge $-1 $405 $232 $268 $358 0 $172 $-1 #
coedge $-1 $232 $405 $406 $407 1 $172 $-1 #
edge $-1 $408 $315 $232 $409 0 #
coedge $-1 $234 $233 $317 $410 1 $136 $-1 #
edge $-1 $269 $320 $236 $411 0 #
vertex $-1 $312 $412 #
ellipse-curve $-1 55.5 -34 -3 0 0 1 1.76776695296637 -1.76776695296637 0 1 #
coedge $-1 $406 $237 $313 $410 0 $319 $-1 #
coedge $-1 $237 $413 $239 $322 0 $319 $-1 #
loop $-1 $414 $318 $153 #
vertex $-1 $238 $415 #
straight-curve $-1 58 -1.25 25 0 -1 0 #
edge $-1 $360 $240 $318 $416 0 #
point $-1 58 29 25 #
face $-1 $417 $418 $2 $-1 $419 1 #
loop $-1 $420 $421 $242 #
cone-surface $-1 -56 35 21 0 0 1 0.75 0 0 1 0 1 0 #
loop $-1 $-1 $422 $179 #
coedge $-1 $423 $423 $421 $424 1 $243 $-1 #
coedge $-1 $329 $329 $340 $425 1 $245 $-1 #
coedge $-1 $246 $246 $248 $332 0 $180 $-1 #
edge $-1 $426 $426 $247 $-1 0 #
edge $-1 $334 $333 $330 $335 0 #
vertex $-1 $332 $427 #
vertex $-1 $249 $428 #
ellipse-curve $-1 -56 10 17 0 0 -1 0.75 0 0 1 #
vertex $-1 $251 $429 #
ellipse-curve $-1 -56 -15 25 -0 -0 -1 0.75 0 0 1 #
point $-1 -56 -15 15.5 #
loop $-1 $430 $431 $153 #
coedge $-1 $340 $340 $329 $425 0 $256 $-1 #
face $-1 $432 $433 $2 $-1 $434 0 #
loop $-1 $-1 $435 $257 #
plane-surface $-1 0 37 15 0 1 0 0 0 1 0 #
loop $-1 $-1 $436 $195 #
coedge $-1 $437 $438 $439 $440 1 $258 $-1 #
coedge $-1 $268 $260 $309 $404 0 $109 $-1 #
coedge $-1 $441 $401 $260 $348 0 $307 $-1 #
edge $-1 $442 $352 $347 $443 0 #
coedge $-1 $444 $261 $264 $355 1 $351 $-1 #
coedge $-1 $261 $444 $441 $445 1 $351 $-1 #
loop $-1 $-1 $261 $306 #
vertex $-1 $348 $446 #
ellipse-curve $-1 5.5 29 -3 0 0 1 -1.76776695296637 1.76776695296637 0 1 #
coedge $-1 $264 $263 $413 $447 1 $265 $-1 #
edge $-1 $448 $266 $264 $449 0 #
face $-1 $450 $265 $2 $-1 $451 0 #
point $-1 5.5 31.5 -3 #
edge $-1 $315 $452 $310 $453 0 #
point $-1 58 -34 -3 #
vertex $-1 $322 $454 #
straight-curve $-1 55.5 31.5 11 0 0 1 #
cone-surface $-1 55.5 29 11 0 0 -1 1.76776695296637 1.76776695296637 0 1 0 1 0 #
coedge $-1 $455 $456 $275 $364 1 $457 $-1 #
edge $-1 $368 $382 $275 $458 0 #
coedge $-1 $459 $276 $279 $371 0 $367 $-1 #
coedge $-1 $276 $459 $455 $460 0 $367 $-1 #
loop $-1 $-1 $365 $461 #
vertex $-1 $277 $462 #
straight-curve $-1 8 -2.5 -3 0 1 0 #
coedge $-1 $279 $278 $463 $464 1 $280 $-1 #
edge $-1 $281 $465 $365 $466 0 #
face $-1 $461 $280 $2 $-1 $467 1 #
point $-1 8 -28.5 -3 #
coedge $-1 $298 $463 $283 $375 1 $394 $-1 #
edge $-1 $302 $376 $283 $468 0 #
vertex $-1 $375 $469 #
straight-curve $-1 11 -31.5 -8 0 0 1 #
plane-surface $-1 30.5 -31.5 -8 0 1 0 0 0 1 0 #
coedge $-1 $470 $287 $456 $471 0 $381 $-1 #
coedge $-1 $287 $470 $289 $385 0 $381 $-1 #
loop $-1 $-1 $379 $472 #
vertex $-1 $364 $473 #
straight-curve $-1 30.5 26.5 -3 1 0 -0 #
coedge $-1 $290 $289 $474 $475 1 $291 $-1 #
edge $-1 $476 $292 $380 $477 0 #
face $-1 $296 $291 $2 $-1 $478 1 #
point $-1 50 26.5 -3 #
coedge $-1 $474 $298 $294 $389 1 $394 $-1 #
edge $-1 $390 $300 $294 $479 0 #
vertex $-1 $295 $480 #
straight-curve $-1 53 23.5 -8 0 0 -1 #
face $-1 $481 $482 $2 $-1 $483 1 #
plane-surface $-1 53 -2.5 -8 -1 0 0 0 0 1 0 #
loop $-1 $-1 $298 $304 #
ellipse-curve $-1 50 -28.5 -13 0 0 1 2.12132034355964 -2.12132034355964 0 1 #
point $-1 53 -28.5 -13 #
point $-1 50 -31.5 -13 #
loop $-1 $394 $484 $304 #
plane-surface $-1 30.5 -2.5 -13 0 0 1 1 0 0 0 #
cone-surface $-1 5.5 29 11 0 0 -1 -1.76776695296637 1.76776695296637 0 1 0 1 0 #
coedge $-1 $347 $485 $402 $486 0 $307 $-1 #
coedge $-1 $487 $309 $401 $486 1 $230 $-1 #
coedge $-1 $309 $487 $405 $488 1 $230 $-1 #
edge $-1 $442 $452 $346 $489 0 #
coedge $-1 $311 $310 $403 $488 0 $172 $-1 #
coedge $-1 $490 $317 $311 $407 0 $319 $-1 #
edge $-1 $408 $491 $406 $492 0 #
vertex $-1 $410 $493 #
straight-curve $-1 55.5 -36.5 11 0 0 -1 #
edge $-1 $320 $408 $317 $494 0 #
straight-curve $-1 58 -34 11 0 0 1 #
point $-1 55.5 -36.5 -3 #
coedge $-1 $318 $495 $354 $447 0 $319 $-1 #
loop $-1 $-1 $496 $153 #
point $-1 58 -34 25 #
ellipse-curve $-1 55.5 29 25 -0 -0 -1 1.76776695296637 1.76776695296637 0 1 #
face $-1 $497 $498 $2 $-1 $499 1 #
loop $-1 $500 $501 $324 #
cone-surface $-1 -27 35 16.25 -6.98296267768627e-15 0 -1 -0.375 0 2.61861100413235e-15 1 -0.447213595499958 0.894427190999916 0 #
loop $-1 $-1 $502 $242 #
coedge $-1 $503 $503 $328 $424 0 $325 $-1 #
coedge $-1 $422 $422 $-1 $504 0 $327 $-1 #
coedge $-1 $328 $328 $503 $505 1 $243 $-1 #
edge $-1 $506 $507 $421 $508 0 #
edge $-1 $509 $509 $340 $510 0 #
vertex $-1 $331 $511 #
point $-1 -55.25 10 17 #
point $-1 -56.75 10 17 #
point $-1 -55.25 -15 25 #
loop $-1 $512 $513 $153 #
coedge $-1 $431 $431 $502 $514 0 $339 $-1 #
face $-1 $515 $516 $2 $-1 $517 1 #
loop $-1 $-1 $518 $341 #
plane-surface $-1 -59 0 15 -1 0 0 0 0 1 0 #
coedge $-1 $519 $520 $521 $522 0 $342 $-1 #
coedge $-1 $523 $524 $525 $526 1 $344 $-1 #
coedge $-1 $527 $345 $528 $529 1 $258 $-1 #
coedge $-1 $345 $527 $530 $531 1 $258 $-1 #
coedge $-1 $532 $533 $345 $440 0 $534 $-1 #
edge $-1 $535 $536 $439 $537 0 #
coedge $-1 $485 $347 $350 $445 0 $307 $-1 #
vertex $-1 $486 $538 #
straight-curve $-1 3 -2.5 -3 0 1 0 #
coedge $-1 $350 $349 $495 $539 1 $351 $-1 #
edge $-1 $352 $540 $441 $541 0 #
point $-1 3 29 -3 #
edge $-1 $448 $360 $413 $542 0 #
vertex $-1 $539 $543 #
straight-curve $-1 5.5 31.5 11 0 0 -1 #
face $-1 $544 $545 $2 $-1 $546 0 #
plane-surface $-1 30.5 31.5 11 0 -1 0 0 0 -1 0 #
vertex $-1 $358 $547 #
straight-curve $-1 30.5 -36.5 -3 -1 0 0 #
point $-1 55.5 31.5 25 #
coedge $-1 $548 $363 $366 $460 1 $457 $-1 #
coedge $-1 $363 $548 $379 $471 1 $457 $-1 #
loop $-1 $-1 $548 $549 #
ellipse-curve $-1 11 23.5 -3 -0 -0 -1 -2.12132034355964 2.12132034355964 0 1 #
coedge $-1 $366 $365 $550 $551 0 $367 $-1 #
edge $-1 $552 $368 $366 $553 0 #
face $-1 $549 $367 $2 $-1 $554 0 #
point $-1 8 23.5 -3 #
coedge $-1 $374 $550 $370 $464 0 $394 $-1 #
edge $-1 $465 $376 $463 $555 0 #
vertex $-1 $371 $556 #
straight-curve $-1 8 -28.5 -8 0 0 -1 #
cone-surface $-1 11 -28.5 -8 -0 -0 -1 -2.12132034355964 -2.12132034355964 0 1 0 1 0 #
straight-curve $-1 30.5 -31.5 -13 -1 0 0 #
point $-1 11 -31.5 -13 #
coedge $-1 $380 $379 $557 $558 0 $381 $-1 #
edge $-1 $382 $559 $379 $560 0 #
face $-1 $386 $381 $2 $-1 $561 0 #
point $-1 11 26.5 -3 #
coedge $-1 $557 $388 $384 $475 0 $394 $-1 #
edge $-1 $390 $476 $474 $562 0 #
vertex $-1 $558 $563 #
straight-curve $-1 50 26.5 -8 0 0 1 #
cone-surface $-1 50 23.5 -8 0 0 -1 2.12132034355964 2.12132034355964 0 1 0 1 0 #
straight-curve $-1 53 -2.5 -13 0 -1 0 #
point $-1 53 23.5 -13 #
face $-1 $564 $565 $2 $-1 $566 0 #
loop $-1 $-1 $567 $392 #
cone-surface $-1 -1.5 29 11 0 0 -1 1.76776695296637 1.76776695296637 0 1 0 1 0 #
coedge $-1 $568 $569 $570 $571 0 $398 $-1 #
coedge $-1 $401 $441 $572 $573 1 $307 $-1 #
edge $-1 $574 $442 $401 $575 0 #
coedge $-1 $403 $402 $490 $576 1 $230 $-1 #
edge $-1 $452 $491 $405 $577 0 #
ellipse-curve $-1 5.5 -34 -3 0 0 1 -1.76776695296637 -1.76776695296637 0 1 #
coedge $-1 $572 $406 $487 $576 0 $319 $-1 #
vertex $-1 $407 $578 #
straight-curve $-1 15.25 -36.5 25 -1 0 0 #
point $-1 55.5 -36.5 25 #
ellipse-curve $-1 55.5 -34 25 -0 -0 -1 1.76776695296637 -1.76776695296637 0 1 #
coedge $-1 $413 $572 $444 $539 0 $319 $-1 #
coedge $-1 $579 $580 $581 $582 0 $414 $-1 #
face $-1 $583 $584 $2 $-1 $585 1 #
loop $-1 $586 $587 $417 #
cone-surface $-1 -27 35 21 0 0 1 0.75 0 0 1 0 1 0 #
loop $-1 $-1 $588 $324 #
coedge $-1 $589 $589 $587 $590 1 $418 $-1 #
coedge $-1 $502 $502 $431 $514 1 $420 $-1 #
coedge $-1 $421 $421 $423 $505 0 $325 $-1 #
edge $-1 $591 $591 $422 $-1 0 #
edge $-1 $507 $506 $503 $508 0 #
vertex $-1 $505 $592 #
vertex $-1 $424 $593 #
ellipse-curve $-1 -56 35 17 0 0 -1 0.75 0 0 1 #
vertex $-1 $425 $594 #
ellipse-curve $-1 -56 10 25 -0 -0 -1 0.75 0 0 1 #
point $-1 -56 10 15.5 #
loop $-1 $595 $596 $153 #
coedge $-1 $513 $513 $597 $598 0 $430 $-1 #
edge $-1 $599 $599 $431 $600 0 #
face $-1 $601 $602 $2 $-1 $603 1 #
loop $-1 $-1 $604 $432 #
plane-surface $-1 -65 0 0 1 0 0 0 0 -1 0 #
coedge $-1 $528 $605 $606 $607 1 $433 $-1 #
coedge $-1 $606 $435 $527 $608 0 $342 $-1 #
coedge $-1 $435 $606 $579 $609 1 $342 $-1 #
coedge $-1 $581 $530 $435 $522 1 $545 $-1 #
edge $-1 $610 $611 $435 $612 0 #
coedge $-1 $613 $436 $614 $615 1 $344 $-1 #
coedge $-1 $436 $613 $616 $617 1 $344 $-1 #
coedge $-1 $618 $619 $436 $526 0 $602 $-1 #
edge $-1 $620 $621 $525 $622 0 #
coedge $-1 $438 $437 $519 $608 1 $258 $-1 #
coedge $-1 $623 $518 $437 $529 0 $433 $-1 #
edge $-1 $624 $535 $528 $625 0 #
coedge $-1 $521 $626 $438 $531 0 $545 $-1 #
edge $-1 $536 $611 $530 $627 0 #
coedge $-1 $628 $439 $626 $629 0 $534 $-1 #
coedge $-1 $439 $628 $623 $630 0 $534 $-1 #
loop $-1 $-1 $532 $544 #
vertex $-1 $529 $631 #
vertex $-1 $440 $632 #
straight-curve $-1 0 -42 5 1 0 0 #
point $-1 3 -34 -3 #
edge $-1 $540 $448 $495 $633 0 #
vertex $-1 $573 $634 #
straight-curve $-1 3 29 11 0 0 1 #
straight-curve $-1 15.25 31.5 25 1 0 -0 #
point $-1 5.5 31.5 25 #
face $-1 $153 $534 $2 $-1 $635 0 #
loop $-1 $-1 $626 $450 #
plane-surface $-1 63 0 15 1 0 0 0 0 -1 0 #
point $-1 5.5 -36.5 -3 #
coedge $-1 $456 $455 $636 $637 1 $457 $-1 #
face $-1 $472 $457 $2 $-1 $638 1 #
coedge $-1 $463 $636 $459 $551 1 $394 $-1 #
edge $-1 $465 $552 $459 $639 0 #
vertex $-1 $551 $640 #
straight-curve $-1 8 23.5 -8 0 0 1 #
plane-surface $-1 8 -2.5 -8 1 0 0 0 0 -1 0 #
ellipse-curve $-1 11 -28.5 -13 0 0 1 -2.12132034355964 -2.12132034355964 0 1 #
point $-1 8 -28.5 -13 #
coedge $-1 $636 $474 $470 $558 1 $394 $-1 #
edge $-1 $559 $476 $470 $641 0 #
vertex $-1 $471 $642 #
straight-curve $-1 11 26.5 -8 0 0 -1 #
plane-surface $-1 30.5 26.5 -8 0 -1 0 0 0 -1 0 #
ellipse-curve $-1 50 23.5 -13 0 0 1 2.12132034355964 2.12132034355964 0 1 #
point $-1 50 26.5 -13 #
face $-1 $643 $644 $2 $-1 $645 0 #
loop $-1 $646 $647 $481 #
plane-surface $-1 -26.5 -2.5 -3 0 0 1 1 0 0 0 #
coedge $-1 $648 $649 $650 $651 1 $482 $-1 #
coedge $-1 $652 $484 $653 $654 0 $398 $-1 #
coedge $-1 $484 $652 $655 $656 0 $398 $-1 #
coedge $-1 $657 $658 $484 $571 1 $659 $-1 #
edge $-1 $660 $661 $484 $662 0 #
coedge $-1 $495 $490 $485 $573 0 $319 $-1 #
edge $-1 $574 $540 $572 $663 0 #
vertex $-1 $576 $664 #
straight-curve $-1 3 -34 11 0 0 -1 #
edge $-1 $491 $574 $490 $665 0 #
straight-curve $-1 5.5 -36.5 11 0 0 1 #
point $-1 5.5 -36.5 25 #
coedge $-1 $666 $496 $520 $609 0 $414 $-1 #
coedge $-1 $496 $666 $628 $667 0 $414 $-1 #
coedge $-1 $626 $521 $496 $582 1 $545 $-1 #
edge $-1 $668 $610 $496 $669 0 #
face $-1 $670 $671 $2 $-1 $672 1 #
loop $-1 $673 $674 $497 #
cone-surface $-1 31 35 16.25 -6.98296267768627e-15 0 -1 -0.375 0 2.61861100413235e-15 1 -0.447213595499958 0.894427190999916 0 #
loop $-1 $-1 $597 $417 #
coedge $-1 $675 $675 $501 $590 0 $498 $-1 #
coedge $-1 $588 $588 $-1 $676 0 $500 $-1 #
coedge $-1 $501 $501 $675 $677 1 $418 $-1 #
edge $-1 $678 $679 $587 $680 0 #
vertex $-1 $504 $681 #
point $-1 -55.25 35 17 #
point $-1 -56.75 35 17 #
point $-1 -55.25 10 25 #
loop $-1 $682 $683 $153 #
coedge $-1 $596 $596 $684 $685 0 $512 $-1 #
coedge $-1 $597 $597 $513 $598 1 $586 $-1 #
edge $-1 $686 $686 $513 $687 0 #
vertex $-1 $514 $688 #
ellipse-curve $-1 -56 35 25 -0 -0 -1 0.75 0 0 1 #
face $-1 $689 $690 $2 $-1 $691 1 #
loop $-1 $-1 $525 $515 #
plane-surface $-1 65 0 0 -1 0 0 0 -0 1 0 #
coedge $-1 $692 $693 $613 $694 0 $516 $-1 #
coedge $-1 $518 $623 $666 $695 1 $433 $-1 #
coedge $-1 $520 $519 $518 $607 0 $342 $-1 #
edge $-1 $624 $696 $606 $697 0 #
edge $-1 $611 $624 $519 $698 0 #
edge $-1 $610 $696 $579 $699 0 #
vertex $-1 $522 $700 #
vertex $-1 $531 $701 #
straight-curve $-1 63 37 15 0 0 -1 #
coedge $-1 $524 $523 $604 $694 1 $344 $-1 #
coedge $-1 $702 $703 $523 $615 0 $704 $-1 #
edge $-1 $705 $620 $614 $706 0 #
coedge $-1 $707 $708 $524 $617 0 $709 $-1 #
edge $-1 $621 $710 $616 $711 0 #
coedge $-1 $712 $525 $708 $713 0 $602 $-1 #
coedge $-1 $525 $712 $702 $714 1 $602 $-1 #
vertex $-1 $615 $715 #
vertex $-1 $617 $716 #
straight-curve $-1 65 -23 5 0 -1 0 #
coedge $-1 $605 $528 $533 $630 1 $433 $-1 #
vertex $-1 $608 $717 #
straight-curve $-1 -59 0 5 0 -1 0 #
coedge $-1 $530 $581 $532 $629 1 $545 $-1 #
straight-curve $-1 63 0 5 0 1 0 #
coedge $-1 $533 $532 $580 $667 1 $534 $-1 #
edge $-1 $536 $668 $532 $718 0 #
edge $-1 $719 $535 $533 $720 0 #
point $-1 -59 -42 5 #
point $-1 63 -42 5 #
ellipse-curve $-1 5.5 29 25 -0 -0 -1 -1.76776695296637 1.76776695296637 0 1 #
point $-1 3 29 25 #
plane-surface $-1 0 -42 15 0 -1 0 0 0 -1 0 #
coedge $-1 $550 $557 $548 $637 0 $394 $-1 #
edge $-1 $559 $552 $636 $721 0 #
cone-surface $-1 11 23.5 -8 0 0 -1 -2.12132034355964 2.12132034355964 0 1 0 1 0 #
straight-curve $-1 8 -2.5 -13 0 1 0 #
point $-1 8 23.5 -13 #
straight-curve $-1 30.5 26.5 -13 1 0 0 #
point $-1 11 26.5 -13 #
face $-1 $722 $723 $2 $-1 $724 1 #
loop $-1 $-1 $725 $564 #
plane-surface $-1 1 -2.5 11 -1 0 0 0 0 1 0 #
loop $-1 $-1 $650 $481 #
coedge $-1 $726 $727 $728 $729 0 $565 $-1 #
coedge $-1 $730 $567 $725 $731 1 $482 $-1 #
coedge $-1 $567 $730 $732 $733 1 $482 $-1 #
coedge $-1 $734 $735 $567 $651 0 $646 $-1 #
edge $-1 $736 $737 $650 $738 0 #
coedge $-1 $569 $568 $739 $740 0 $398 $-1 #
coedge $-1 $741 $742 $568 $654 1 $743 $-1 #
edge $-1 $661 $744 $568 $745 0 #
coedge $-1 $746 $747 $569 $656 1 $748 $-1 #
edge $-1 $749 $660 $569 $750 0 #
coedge $-1 $751 $570 $747 $752 1 $659 $-1 #
coedge $-1 $570 $751 $741 $753 0 $659 $-1 #
loop $-1 $-1 $658 $754 #
vertex $-1 $571 $755 #
vertex $-1 $571 $756 #
straight-curve $-1 30.25 18 -13 -1 0 0 #
straight-curve $-1 3 -1.25 25 0 1 0 #
point $-1 3 -34 25 #
ellipse-curve $-1 5.5 -34 25 -0 -0 -1 -1.76776695296637 -1.76776695296637 0 1 #
coedge $-1 $580 $579 $605 $695 0 $414 $-1 #
edge $-1 $719 $668 $580 $757 0 #
vertex $-1 $667 $758 #
straight-curve $-1 63 0 25 0 1 0 #
face $-1 $759 $760 $2 $-1 $761 1 #
loop $-1 $762 $763 $583 #
cone-surface $-1 31 35 21 0 0 1 0.75 0 0 1 0 1 0 #
loop $-1 $-1 $764 $497 #
coedge $-1 $765 $765 $763 $766 1 $584 $-1 #
coedge $-1 $587 $587 $589 $677 0 $498 $-1 #
edge $-1 $767 $767 $588 $-1 0 #
edge $-1 $679 $678 $675 $680 0 #
vertex $-1 $677 $768 #
vertex $-1 $590 $769 #
ellipse-curve $-1 -27 35 17 0 0 -1 0.75 0 0 1 #
point $-1 -56 35 15.5 #
loop $-1 $770 $771 $153 #
coedge $-1 $683 $683 $772 $773 0 $595 $-1 #
coedge $-1 $684 $684 $596 $685 1 $762 $-1 #
edge $-1 $774 $774 $596 $775 0 #
vertex $-1 $598 $776 #
ellipse-curve $-1 -27 35 25 -0 -0 -1 0.75 0 0 1 #
point $-1 -55.25 35 25 #
face $-1 $777 $709 $2 $-1 $778 1 #
loop $-1 $-1 $779 $601 #
plane-surface $-1 0 0 -25 0 0 1 1 0 0 0 #
coedge $-1 $780 $604 $703 $781 0 $516 $-1 #
coedge $-1 $604 $780 $707 $782 1 $516 $-1 #
edge $-1 $710 $705 $604 $783 0 #
edge $-1 $696 $719 $666 $784 0 #
vertex $-1 $609 $785 #
straight-curve $-1 -59 37 15 0 -0 1 #
straight-curve $-1 0 37 5 -1 0 0 #
straight-curve $-1 0 37 25 -1 0 0 #
point $-1 63 37 25 #
point $-1 63 37 5 #
coedge $-1 $786 $614 $619 $714 0 $704 $-1 #
coedge $-1 $614 $786 $692 $781 1 $704 $-1 #
loop $-1 $-1 $614 $777 #
vertex $-1 $694 $787 #
straight-curve $-1 0 50 5 1 0 -0 #
coedge $-1 $788 $616 $693 $782 0 $709 $-1 #
coedge $-1 $616 $788 $618 $713 1 $709 $-1 #
loop $-1 $-1 $616 $689 #
vertex $-1 $617 $789 #
straight-curve $-1 0 -50 5 -1 0 0 #
coedge $-1 $619 $618 $779 $790 1 $602 $-1 #
edge $-1 $621 $791 $618 $792 0 #
edge $-1 $620 $793 $619 $794 0 #
point $-1 65 50 5 #
point $-1 65 -50 5 #
point $-1 -59 37 5 #
straight-curve $-1 63 -42 15 -0 0 1 #
vertex $-1 $630 $795 #
straight-curve $-1 -59 -42 15 -0 -0 -1 #
ellipse-curve $-1 11 23.5 -13 0 0 1 -2.12132034355964 2.12132034355964 0 1 #
face $-1 $796 $797 $2 $-1 $798 0 #
loop $-1 $-1 $799 $643 #
cone-surface $-1 -1.5 -34 11 0 0 -1 1.76776695296637 -1.76776695296637 0 1 0 1 0 #
coedge $-1 $800 $801 $648 $731 0 $644 $-1 #
coedge $-1 $802 $647 $803 $804 0 $565 $-1 #
coedge $-1 $647 $805 $806 $807 0 $565 $-1 #
coedge $-1 $808 $809 $647 $729 1 $810 $-1 #
edge $-1 $811 $812 $647 $813 0 #
coedge $-1 $649 $648 $814 $815 1 $482 $-1 #
edge $-1 $816 $736 $725 $817 0 #
coedge $-1 $818 $819 $649 $733 0 $820 $-1 #
edge $-1 $737 $821 $732 $822 0 #
coedge $-1 $823 $650 $819 $824 1 $646 $-1 #
coedge $-1 $650 $825 $800 $826 1 $646 $-1 #
vertex $-1 $731 $827 #
vertex $-1 $824 $828 #
ellipse-curve $-1 -1.5 29 -3 0 0 1 1.76776695296637 1.76776695296637 0 1 #
coedge $-1 $829 $830 $652 $740 1 $831 $-1 #
edge $-1 $744 $749 $652 $832 0 #
coedge $-1 $833 $653 $658 $753 1 $743 $-1 #
coedge $-1 $653 $833 $829 $834 0 $743 $-1 #
loop $-1 $-1 $742 $835 #
vertex $-1 $654 $836 #
straight-curve $-1 15 8.75 -13 0 1 0 #
coedge $-1 $837 $655 $830 $838 1 $748 $-1 #
coedge $-1 $655 $837 $657 $752 0 $748 $-1 #
loop $-1 $-1 $747 $839 #
vertex $-1 $740 $840 #
straight-curve $-1 45 8.75 -13 0 -1 0 #
coedge $-1 $658 $657 $841 $842 1 $659 $-1 #
edge $-1 $843 $660 $747 $844 0 #
edge $-1 $845 $661 $741 $846 0 #
face $-1 $835 $659 $2 $-1 $847 1 #
point $-1 45 18 -13 #
point $-1 15 18 -13 #
straight-curve $-1 0 -42 25 1 0 -0 #
point $-1 63 -42 25 #
face $-1 $848 $849 $2 $-1 $850 1 #
loop $-1 $851 $852 $670 #
cone-surface $-1 60 35 16.25 -6.98296267768627e-15 0 -1 -0.375 0 2.61861100413235e-15 1 -0.447213595499958 0.894427190999916 0 #
loop $-1 $-1 $684 $583 #
coedge $-1 $853 $853 $674 $766 0 $671 $-1 #
coedge $-1 $764 $764 $-1 $854 0 $673 $-1 #
coedge $-1 $674 $674 $853 $855 1 $584 $-1 #
edge $-1 $856 $857 $763 $858 0 #
vertex $-1 $676 $859 #
point $-1 -26.25 35 17 #
point $-1 -27.75 35 17 #
loop $-1 $860 $861 $153 #
coedge $-1 $771 $771 $862 $863 0 $682 $-1 #
coedge $-1 $772 $772 $683 $773 1 $864 $-1 #
edge $-1 $865 $865 $683 $866 0 #
vertex $-1 $685 $867 #
ellipse-curve $-1 31 35 25 -0 -0 -1 0.75 0 0 1 #
point $-1 -26.25 35 25 #
face $-1 $-1 $704 $2 $-1 $868 1 #
plane-surface $-1 0 -50 0 0 1 -0 -0 0 1 0 #
coedge $-1 $869 $870 $712 $790 0 $690 $-1 #
coedge $-1 $693 $692 $871 $872 1 $516 $-1 #
edge $-1 $705 $873 $703 $874 0 #
edge $-1 $710 $875 $693 $876 0 #
straight-curve $-1 -65 21.75 5 0 1 0 #
straight-curve $-1 -59 0 25 0 -1 0 #
point $-1 -59 37 25 #
coedge $-1 $703 $702 $870 $877 1 $704 $-1 #
point $-1 -65 50 5 #
coedge $-1 $708 $707 $869 $878 1 $709 $-1 #
point $-1 -65 -50 5 #
edge $-1 $793 $791 $712 $879 0 #
vertex $-1 $713 $880 #
straight-curve $-1 65 -50 0 0 0 -1 #
vertex $-1 $790 $881 #
straight-curve $-1 65 50 0 0 0 -1 #
point $-1 -59 -42 25 #
face $-1 $882 $883 $2 $-1 $884 1 #
loop $-1 $-1 $885 $722 #
plane-surface $-1 -26.5 -36.5 11 0 1 0 0 0 1 0 #
coedge $-1 $886 $887 $825 $888 1 $723 $-1 #
coedge $-1 $889 $725 $735 $826 0 $644 $-1 #
coedge $-1 $725 $889 $890 $891 1 $644 $-1 #
coedge $-1 $892 $726 $893 $894 0 $565 $-1 #
coedge $-1 $895 $896 $726 $804 1 $897 $-1 #
edge $-1 $812 $898 $726 $899 0 #
coedge $-1 $727 $900 $901 $902 0 $565 $-1 #
coedge $-1 $903 $904 $727 $807 1 $905 $-1 #
edge $-1 $906 $811 $727 $907 0 #
coedge $-1 $908 $728 $904 $909 1 $810 $-1 #
coedge $-1 $728 $908 $895 $910 1 $810 $-1 #
loop $-1 $-1 $908 $911 #
vertex $-1 $729 $912 #
vertex $-1 $729 $913 #
ellipse-curve $-1 -7 -28.5 -3 -0 -0 -1 2.12132034355964 -2.12132034355964 0 1 #
coedge $-1 $890 $914 $730 $815 0 $915 $-1 #
edge $-1 $821 $816 $814 $916 0 #
vertex $-1 $815 $917 #
straight-curve $-1 1 29 11 0 0 -1 #
coedge $-1 $918 $732 $914 $919 1 $820 $-1 #
coedge $-1 $732 $918 $734 $824 0 $820 $-1 #
loop $-1 $-1 $732 $920 #
vertex $-1 $815 $921 #
straight-curve $-1 -1.5 31.5 11 0 0 1 #
coedge $-1 $922 $734 $923 $924 0 $646 $-1 #
edge $-1 $925 $737 $819 $926 0 #
coedge $-1 $735 $927 $799 $888 0 $646 $-1 #
edge $-1 $736 $928 $800 $929 0 #
point $-1 1 29 -3 #
point $-1 -1.5 31.5 -3 #
coedge $-1 $930 $739 $742 $834 1 $831 $-1 #
coedge $-1 $739 $930 $746 $838 0 $831 $-1 #
loop $-1 $-1 $830 $931 #
straight-curve $-1 30.25 22 -13 1 0 -0 #
coedge $-1 $742 $741 $932 $933 1 $743 $-1 #
edge $-1 $934 $744 $829 $935 0 #
face $-1 $931 $743 $2 $-1 $936 1 #
point $-1 15 22 -13 #
coedge $-1 $747 $746 $937 $938 1 $748 $-1 #
edge $-1 $939 $749 $746 $940 0 #
face $-1 $911 $748 $2 $-1 $941 1 #
point $-1 45 22 -13 #
coedge $-1 $937 $932 $751 $842 0 $942 $-1 #
edge $-1 $845 $843 $751 $943 0 #
vertex $-1 $938 $944 #
straight-curve $-1 45 18 -12.5 0 0 -1 #
vertex $-1 $933 $945 #
straight-curve $-1 15 18 -12.5 0 0 -1 #
plane-surface $-1 30 18 -12.5 0 1 0 0 0 1 0 #
face $-1 $946 $947 $2 $-1 $948 1 #
loop $-1 $864 $949 $759 #
cone-surface $-1 60 35 21 0 0 1 0.75 0 0 1 0 1 0 #
loop $-1 $-1 $950 $670 #
coedge $-1 $951 $951 $949 $952 1 $760 $-1 #
coedge $-1 $763 $763 $765 $855 0 $671 $-1 #
edge $-1 $953 $953 $764 $-1 0 #
edge $-1 $857 $856 $853 $858 0 #
vertex $-1 $855 $954 #
vertex $-1 $766 $955 #
ellipse-curve $-1 31 35 17 0 0 -1 0.75 0 0 1 #
point $-1 -27 35 15.5 #
loop $-1 $956 $957 $153 #
coedge $-1 $861 $861 $958 $959 0 $770 $-1 #
coedge $-1 $862 $862 $771 $863 1 $960 $-1 #
edge $-1 $961 $961 $771 $962 0 #
loop $-1 $-1 $772 $759 #
vertex $-1 $773 $963 #
ellipse-curve $-1 60 35 25 -0 -0 -1 0.75 0 0 1 #
point $-1 31.75 35 25 #
plane-surface $-1 0 50 0 0 -1 0 0 0 -1 0 #
coedge $-1 $871 $779 $788 $878 0 $690 $-1 #
coedge $-1 $779 $871 $786 $877 0 $690 $-1 #
coedge $-1 $870 $869 $780 $872 0 $690 $-1 #
edge $-1 $875 $873 $780 $964 0 #
vertex $-1 $877 $965 #
straight-curve $-1 -65 50 0 0 0 -1 #
vertex $-1 $872 $966 #
straight-curve $-1 -65 -50 0 0 0 -1 #
edge $-1 $873 $793 $786 $967 0 #
edge $-1 $791 $875 $788 $968 0 #
straight-curve $-1 65 0 -25 0 -1 0 #
point $-1 65 -50 -25 #
point $-1 65 50 -25 #
face $-1 $969 $970 $2 $-1 $971 0 #
loop $-1 $-1 $972 $796 #
cone-surface $-1 -51.5 -34 11 -0 -0 -1 -1.76776695296637 -1.76776695296637 0 1 0 1 0 #
coedge $-1 $973 $974 $886 $975 0 $797 $-1 #
coedge $-1 $976 $799 $885 $975 1 $723 $-1 #
coedge $-1 $799 $976 $889 $977 1 $723 $-1 #
edge $-1 $978 $928 $825 $979 0 #
coedge $-1 $801 $800 $887 $977 0 $644 $-1 #
coedge $-1 $980 $814 $801 $891 0 $915 $-1 #
edge $-1 $816 $981 $890 $982 0 #
coedge $-1 $983 $802 $984 $985 0 $565 $-1 #
coedge $-1 $986 $987 $802 $894 1 $988 $-1 #
edge $-1 $898 $989 $802 $990 0 #
coedge $-1 $991 $803 $809 $910 0 $897 $-1 #
coedge $-1 $803 $991 $986 $992 0 $897 $-1 #
loop $-1 $-1 $895 $993 #
vertex $-1 $804 $994 #
straight-curve $-1 -26.5 -31.5 -3 -1 0 0 #
coedge $-1 $805 $983 $995 $996 0 $565 $-1 #
coedge $-1 $997 $998 $805 $902 1 $999 $-1 #
edge $-1 $1000 $906 $805 $1001 0 #
coedge $-1 $1002 $806 $998 $1003 0 $905 $-1 #
coedge $-1 $806 $1002 $808 $909 0 $905 $-1 #
loop $-1 $-1 $904 $1004 #
vertex $-1 $902 $1005 #
straight-curve $-1 -4 -2.5 -3 0 -1 0 #
coedge $-1 $809 $808 $1006 $1007 1 $810 $-1 #
edge $-1 $1008 $811 $904 $1009 0 #
edge $-1 $812 $1010 $895 $1011 0 #
face $-1 $1012 $810 $2 $-1 $1013 1 #
point $-1 -4 -28.5 -3 #
point $-1 -7 -31.5 -3 #
coedge $-1 $814 $1014 $818 $919 0 $915 $-1 #
loop $-1 $319 $814 $153 #
ellipse-curve $-1 -1.5 29 25 -0 -0 -1 1.76776695296637 1.76776695296637 0 1 #
point $-1 1 29 25 #
coedge $-1 $819 $818 $1015 $1016 0 $820 $-1 #
edge $-1 $1017 $821 $914 $1018 0 #
face $-1 $272 $820 $2 $-1 $1019 0 #
point $-1 -1.5 31.5 25 #
coedge $-1 $1020 $823 $1021 $1022 1 $646 $-1 #
coedge $-1 $1015 $1023 $823 $924 1 $1024 $-1 #
edge $-1 $925 $1025 $823 $1026 0 #
vertex $-1 $1016 $1027 #
straight-curve $-1 -26.5 31.5 -3 1 0 0 #
coedge $-1 $825 $1020 $973 $1028 1 $646 $-1 #
vertex $-1 $826 $1029 #
straight-curve $-1 1 -2.5 -3 0 -1 0 #
coedge $-1 $830 $829 $1030 $1031 1 $831 $-1 #
face $-1 $839 $831 $2 $-1 $1032 1 #
coedge $-1 $841 $1030 $833 $933 0 $942 $-1 #
edge $-1 $934 $845 $833 $1033 0 #
vertex $-1 $1031 $1034 #
straight-curve $-1 15 22 -12.5 0 0 -1 #
plane-surface $-1 15 20 -12.5 1 0 0 0 0 -1 0 #
coedge $-1 $1030 $841 $837 $938 0 $942 $-1 #
edge $-1 $843 $939 $837 $1035 0 #
vertex $-1 $938 $1036 #
straight-curve $-1 45 22 -12.5 0 0 -1 #
plane-surface $-1 45 20 -12.5 -1 0 0 0 0 1 0 #
loop $-1 $-1 $937 $1037 #
straight-curve $-1 30 18 -12 1 0 0 #
point $-1 45 18 -12 #
point $-1 15 18 -12 #
face $-1 $1038 $1039 $2 $-1 $1040 1 #
loop $-1 $1041 $1042 $848 #
cone-surface $-1 2 35 16.25 -6.98296267768627e-15 0 -1 -0.375 0 2.61861100413235e-15 1 -0.447213595499958 0.894427190999916 0 #
coedge $-1 $1043 $1043 $852 $952 0 $849 $-1 #
coedge $-1 $950 $950 $-1 $1044 0 $851 $-1 #
coedge $-1 $852 $852 $1043 $1045 1 $760 $-1 #
edge $-1 $1046 $1047 $949 $1048 0 #
vertex $-1 $854 $1049 #
point $-1 31.75 35 17 #
point $-1 30.25 35 17 #
loop $-1 $1050 $1051 $153 #
coedge $-1 $957 $957 $1052 $1053 0 $860 $-1 #
coedge $-1 $958 $958 $861 $959 1 $1054 $-1 #
edge $-1 $1055 $1055 $861 $1056 0 #
loop $-1 $-1 $862 $946 #
vertex $-1 $863 $1057 #
ellipse-curve $-1 2 35 25 -0 -0 -1 0.75 0 0 1 #
point $-1 60.75 35 25 #
straight-curve $-1 -65 0 -25 0 1 0 #
point $-1 -65 50 -25 #
point $-1 -65 -50 -25 #
straight-curve $-1 0 50 -25 1 0 0 #
straight-curve $-1 0 -50 -25 -1 0 0 #
face $-1 $920 $1024 $2 $-1 $1058 1 #
loop $-1 $-1 $1059 $882 #
plane-surface $-1 -54 -2.5 11 1 0 0 0 0 -1 0 #
coedge $-1 $1060 $1061 $1020 $1062 1 $883 $-1 #
coedge $-1 $1063 $885 $927 $1028 0 $797 $-1 #
coedge $-1 $885 $1063 $1064 $1065 1 $797 $-1 #
edge $-1 $1066 $978 $885 $1067 0 #
coedge $-1 $887 $886 $980 $1068 1 $723 $-1 #
edge $-1 $928 $981 $889 $1069 0 #
vertex $-1 $975 $1070 #
ellipse-curve $-1 -1.5 -34 -3 0 0 1 1.76776695296637 -1.76776695296637 0 1 #
coedge $-1 $1064 $890 $976 $1068 0 $915 $-1 #
vertex $-1 $891 $1071 #
straight-curve $-1 1 -1.25 25 0 -1 0 #
coedge $-1 $900 $892 $1072 $1073 0 $565 $-1 #
coedge $-1 $1074 $1075 $892 $985 1 $1076 $-1 #
edge $-1 $989 $1077 $892 $1078 0 #
coedge $-1 $1079 $893 $896 $992 1 $988 $-1 #
coedge $-1 $893 $1079 $1074 $1080 1 $988 $-1 #
loop $-1 $-1 $1079 $1081 #
vertex $-1 $894 $1082 #
ellipse-curve $-1 -46 -28.5 -3 -0 -0 -1 -2.12132034355964 -2.12132034355964 0 1 #
coedge $-1 $896 $895 $1083 $1084 0 $897 $-1 #
edge $-1 $1085 $898 $896 $1086 0 #
face $-1 $1081 $897 $2 $-1 $1087 0 #
point $-1 -46 -31.5 -3 #
coedge $-1 $1088 $1089 $900 $996 1 $1090 $-1 #
edge $-1 $1091 $1000 $900 $1092 0 #
coedge $-1 $1093 $901 $1089 $1094 1 $999 $-1 #
coedge $-1 $901 $1093 $903 $1003 1 $999 $-1 #
loop $-1 $-1 $1093 $1095 #
vertex $-1 $996 $1096 #
ellipse-curve $-1 -7 23.5 -3 -0 -0 -1 2.12132034355964 2.12132034355964 0 1 #
coedge $-1 $904 $903 $1097 $1098 0 $905 $-1 #
edge $-1 $906 $1099 $903 $1100 0 #
face $-1 $226 $905 $2 $-1 $1101 0 #
point $-1 -4 23.5 -3 #
coedge $-1 $1097 $1083 $908 $1007 0 $1102 $-1 #
edge $-1 $1010 $1008 $1006 $1103 0 #
vertex $-1 $1098 $1104 #
straight-curve $-1 -4 -28.5 -8 0 0 1 #
vertex $-1 $910 $1105 #
straight-curve $-1 -7 -31.5 -8 0 0 -1 #
face $-1 $993 $1106 $2 $-1 $1107 0 #
cone-surface $-1 -7 -28.5 -8 0 0 -1 2.12132034355964 -2.12132034355964 0 1 0 1 0 #
coedge $-1 $914 $1108 $1109 $1110 0 $915 $-1 #
coedge $-1 $1109 $923 $918 $1016 1 $1024 $-1 #
edge $-1 $1017 $925 $918 $1111 0 #
vertex $-1 $1110 $1112 #
straight-curve $-1 -13.25 31.5 25 1 0 -0 #
plane-surface $-1 -26.5 31.5 11 0 -1 0 0 0 -1 0 #
coedge $-1 $927 $922 $972 $1062 0 $646 $-1 #
coedge $-1 $1113 $1059 $922 $1022 0 $970 $-1 #
edge $-1 $1114 $1025 $1021 $1115 0 #
coedge $-1 $923 $1109 $1113 $1116 1 $1024 $-1 #
loop $-1 $-1 $923 $969 #
vertex $-1 $1022 $1117 #
ellipse-curve $-1 -51.5 29 -3 0 0 1 -1.76776695296637 1.76776695296637 0 1 #
point $-1 -51.5 31.5 -3 #
edge $-1 $978 $1118 $973 $1119 0 #
point $-1 1 -34 -3 #
coedge $-1 $932 $937 $930 $1031 0 $942 $-1 #
edge $-1 $939 $934 $930 $1120 0 #
plane-surface $-1 30 22 -12.5 0 -1 0 0 0 -1 0 #
straight-curve $-1 15 20 -12 0 -1 0 #
point $-1 15 22 -12 #
straight-curve $-1 45 20 -12 0 1 0 #
point $-1 45 22 -12 #
face $-1 $754 $942 $2 $-1 $1121 0 #
face $-1 $1122 $1123 $2 $-1 $1124 1 #
loop $-1 $960 $1125 $946 #
cone-surface $-1 2 35 21 0 0 1 0.75 0 0 1 0 1 0 #
loop $-1 $-1 $1126 $848 #
coedge $-1 $1127 $1127 $1125 $1128 1 $947 $-1 #
coedge $-1 $949 $949 $951 $1045 0 $849 $-1 #
edge $-1 $1129 $1129 $950 $-1 0 #
edge $-1 $1047 $1046 $1043 $1048 0 #
vertex $-1 $1045 $1130 #
vertex $-1 $952 $1131 #
ellipse-curve $-1 60 35 17 0 0 -1 0.75 0 0 1 #
point $-1 31 35 15.5 #
loop $-1 $1132 $1133 $153 #
coedge $-1 $1051 $1051 $1134 $1135 0 $956 $-1 #
coedge $-1 $1052 $1052 $957 $1053 1 $1136 $-1 #
edge $-1 $1137 $1137 $957 $1138 0 #
loop $-1 $-1 $958 $1122 #
vertex $-1 $959 $1139 #
ellipse-curve $-1 -27 -40 25 -0 -0 -1 0.75 0 0 1 #
point $-1 2.75 35 25 #
cone-surface $-1 -51.5 29 11 0 0 -1 -1.76776695296637 1.76776695296637 0 1 0 1 0 #
coedge $-1 $1021 $1140 $1060 $1141 0 $970 $-1 #
coedge $-1 $1142 $972 $1059 $1141 1 $883 $-1 #
coedge $-1 $972 $1142 $1063 $1143 1 $883 $-1 #
edge $-1 $1114 $1118 $1020 $1144 0 #
coedge $-1 $974 $973 $1061 $1143 0 $797 $-1 #
coedge $-1 $1145 $980 $974 $1065 0 $915 $-1 #
edge $-1 $1066 $1146 $1064 $1147 0 #
vertex $-1 $1068 $1148 #
straight-curve $-1 -1.5 -36.5 11 0 0 -1 #
edge $-1 $981 $1066 $980 $1149 0 #
straight-curve $-1 1 -34 11 0 0 1 #
point $-1 -1.5 -36.5 -3 #
point $-1 1 -34 25 #
coedge $-1 $1150 $1151 $983 $1073 1 $1152 $-1 #
edge $-1 $1077 $1091 $983 $1153 0 #
coedge $-1 $1154 $984 $987 $1080 0 $1076 $-1 #
coedge $-1 $984 $1154 $1150 $1155 0 $1076 $-1 #
loop $-1 $-1 $1074 $1156 #
vertex $-1 $985 $1157 #
straight-curve $-1 -49 -2.5 -3 0 1 0 #
coedge $-1 $987 $986 $1158 $1159 1 $988 $-1 #
edge $-1 $989 $1160 $1074 $1161 0 #
face $-1 $1156 $988 $2 $-1 $1162 1 #
point $-1 -49 -28.5 -3 #
coedge $-1 $1006 $1158 $991 $1084 1 $1102 $-1 #
edge $-1 $1010 $1085 $991 $1163 0 #
vertex $-1 $1084 $1164 #
straight-curve $-1 -46 -31.5 -8 0 0 1 #
plane-surface $-1 -26.5 -31.5 -8 0 1 0 0 0 1 0 #
coedge $-1 $1165 $995 $1151 $1166 0 $1090 $-1 #
coedge $-1 $995 $1165 $997 $1094 0 $1090 $-1 #
loop $-1 $-1 $1088 $1167 #
vertex $-1 $1073 $1168 #
straight-curve $-1 -26.5 26.5 -3 1 0 -0 #
coedge $-1 $998 $997 $1169 $1170 1 $999 $-1 #
edge $-1 $1171 $1000 $1089 $1172 0 #
face $-1 $1004 $999 $2 $-1 $1173 1 #
point $-1 -7 26.5 -3 #
coedge $-1 $1169 $1006 $1002 $1098 1 $1102 $-1 #
edge $-1 $1099 $1008 $1002 $1174 0 #
vertex $-1 $1003 $1175 #
straight-curve $-1 -4 23.5 -8 0 0 -1 #
plane-surface $-1 -4 -2.5 -8 -1 0 0 0 0 1 0 #
loop $-1 $-1 $1006 $1012 #
ellipse-curve $-1 -7 -28.5 -13 0 0 1 2.12132034355964 -2.12132034355964 0 1 #
point $-1 -4 -28.5 -13 #
point $-1 -7 -31.5 -13 #
loop $-1 $1102 $1176 $1012 #
plane-surface $-1 -26.5 -2.5 -13 0 0 1 1 0 0 0 #
coedge $-1 $1014 $1145 $1140 $1177 0 $915 $-1 #
coedge $-1 $1023 $1015 $1014 $1110 1 $1024 $-1 #
edge $-1 $1178 $1017 $1014 $1179 0 #
straight-curve $-1 -51.5 31.5 11 0 0 -1 #
point $-1 -51.5 31.5 25 #
coedge $-1 $1140 $1021 $1023 $1116 0 $970 $-1 #
vertex $-1 $1141 $1180 #
straight-curve $-1 -54 -2.5 -3 0 1 0 #
edge $-1 $1025 $1178 $1113 $1181 0 #
point $-1 -54 29 -3 #
vertex $-1 $1028 $1182 #
straight-curve $-1 -26.5 -36.5 -3 -1 0 0 #
straight-curve $-1 30 22 -12 -1 0 0 #
plane-surface $-1 30 20 -12 0 0 1 1 0 0 0 #
face $-1 $1183 $1184 $2 $-1 $1185 1 #
loop $-1 $1186 $1187 $1038 #
cone-surface $-1 -27 -40 16.25 -6.98296267768627e-15 0 -1 -0.375 0 2.61861100413235e-15 1 -0.447213595499958 0.894427190999916 0 #
coedge $-1 $1188 $1188 $1042 $1128 0 $1039 $-1 #
coedge $-1 $1126 $1126 $-1 $1189 0 $1041 $-1 #
coedge $-1 $1042 $1042 $1188 $1190 1 $947 $-1 #
edge $-1 $1191 $1192 $1125 $1193 0 #
vertex $-1 $1044 $1194 #
point $-1 60.75 35 17 #
point $-1 59.25 35 17 #
loop $-1 $915 $1195 $153 #
coedge $-1 $1133 $1133 $1196 $1197 0 $1050 $-1 #
coedge $-1 $1134 $1134 $1051 $1135 1 $1198 $-1 #
edge $-1 $1199 $1199 $1051 $1200 0 #
loop $-1 $-1 $1052 $1201 #
vertex $-1 $1053 $1202 #
ellipse-curve $-1 31 -40 25 -0 -0 -1 0.75 0 0 1 #
point $-1 -26.25 -40 25 #
coedge $-1 $1059 $1113 $1108 $1177 1 $970 $-1 #
edge $-1 $1203 $1114 $1059 $1204 0 #
coedge $-1 $1061 $1060 $1145 $1205 1 $883 $-1 #
edge $-1 $1118 $1146 $1063 $1206 0 #
ellipse-curve $-1 -51.5 -34 -3 0 0 1 -1.76776695296637 -1.76776695296637 0 1 #
coedge $-1 $1108 $1064 $1142 $1205 0 $915 $-1 #
vertex $-1 $1065 $1207 #
straight-curve $-1 -13.25 -36.5 25 -1 0 0 #
point $-1 -1.5 -36.5 25 #
ellipse-curve $-1 -1.5 -34 25 -0 -0 -1 1.76776695296637 -1.76776695296637 0 1 #
coedge $-1 $1208 $1072 $1075 $1155 1 $1152 $-1 #
coedge $-1 $1072 $1208 $1088 $1166 1 $1152 $-1 #
loop $-1 $-1 $1208 $1209 #
ellipse-curve $-1 -46 23.5 -3 -0 -0 -1 -2.12132034355964 2.12132034355964 0 1 #
coedge $-1 $1075 $1074 $1210 $1211 0 $1076 $-1 #
edge $-1 $1212 $1077 $1075 $1213 0 #
face $-1 $1209 $1076 $2 $-1 $1214 0 #
point $-1 -49 23.5 -3 #
coedge $-1 $1083 $1210 $1079 $1159 0 $1102 $-1 #
edge $-1 $1160 $1085 $1158 $1215 0 #
vertex $-1 $1080 $1216 #
straight-curve $-1 -49 -28.5 -8 0 0 -1 #
cone-surface $-1 -46 -28.5 -8 -0 -0 -1 -2.12132034355964 -2.12132034355964 0 1 0 1 0 #
straight-curve $-1 -26.5 -31.5 -13 -1 0 0 #
point $-1 -46 -31.5 -13 #
coedge $-1 $1089 $1088 $1217 $1218 0 $1090 $-1 #
edge $-1 $1091 $1219 $1088 $1220 0 #
face $-1 $1095 $1090 $2 $-1 $1221 0 #
point $-1 -46 26.5 -3 #
coedge $-1 $1217 $1097 $1093 $1170 0 $1102 $-1 #
edge $-1 $1099 $1171 $1169 $1222 0 #
vertex $-1 $1218 $1223 #
straight-curve $-1 -7 26.5 -8 0 0 1 #
cone-surface $-1 -7 23.5 -8 0 0 -1 2.12132034355964 2.12132034355964 0 1 0 1 0 #
straight-curve $-1 -4 -2.5 -13 0 -1 0 #
point $-1 -4 23.5 -13 #
coedge $-1 $1224 $1225 $1226 $1227 0 $1106 $-1 #
edge $-1 $1203 $1178 $1108 $1228 0 #
vertex $-1 $1177 $1229 #
ellipse-curve $-1 -51.5 29 25 -0 -0 -1 -1.76776695296637 1.76776695296637 0 1 #
point $-1 -54 -34 -3 #
straight-curve $-1 -54 29 11 0 0 1 #
point $-1 -51.5 -36.5 -3 #
face $-1 $1201 $1230 $2 $-1 $1231 1 #
loop $-1 $1054 $1232 $1122 #
cone-surface $-1 -27 -40 21 0 0 1 0.75 0 0 1 0 1 0 #
loop $-1 $-1 $1233 $1038 #
coedge $-1 $1234 $1234 $1232 $1235 1 $1123 $-1 #
coedge $-1 $1125 $1125 $1127 $1190 0 $1039 $-1 #
edge $-1 $1236 $1236 $1126 $-1 0 #
edge $-1 $1192 $1191 $1188 $1193 0 #
vertex $-1 $1190 $1237 #
vertex $-1 $1128 $1238 #
ellipse-curve $-1 2 35 17 0 0 -1 0.75 0 0 1 #
point $-1 60 35 15.5 #
coedge $-1 $1195 $1195 $1239 $1240 0 $1132 $-1 #
coedge $-1 $1196 $1196 $1133 $1197 1 $1241 $-1 #
edge $-1 $1242 $1242 $1133 $1243 0 #
loop $-1 $-1 $1134 $1244 #
vertex $-1 $1135 $1245 #
ellipse-curve $-1 2 -40 25 -0 -0 -1 0.75 0 0 1 #
face $-1 $1246 $1247 $2 $-1 $1248 1 #
point $-1 31.75 -40 25 #
vertex $-1 $1205 $1249 #
straight-curve $-1 -54 -34 11 0 0 -1 #
edge $-1 $1146 $1203 $1145 $1250 0 #
straight-curve $-1 -51.5 -36.5 11 0 0 1 #
point $-1 -51.5 -36.5 25 #
coedge $-1 $1151 $1150 $1251 $1252 1 $1152 $-1 #
face $-1 $1167 $1152 $2 $-1 $1253 1 #
coedge $-1 $1158 $1251 $1154 $1211 1 $1102 $-1 #
edge $-1 $1160 $1212 $1154 $1254 0 #
vertex $-1 $1211 $1255 #
straight-curve $-1 -49 23.5 -8 0 0 1 #
plane-surface $-1 -49 -2.5 -8 1 0 0 0 0 -1 0 #
ellipse-curve $-1 -46 -28.5 -13 0 0 1 -2.12132034355964 -2.12132034355964 0 1 #
point $-1 -49 -28.5 -13 #
coedge $-1 $1251 $1169 $1165 $1218 1 $1102 $-1 #
edge $-1 $1219 $1171 $1165 $1256 0 #
vertex $-1 $1166 $1257 #
straight-curve $-1 -46 26.5 -8 0 0 -1 #
plane-surface $-1 -26.5 26.5 -8 0 -1 0 0 0 -1 0 #
ellipse-curve $-1 -7 23.5 -13 0 0 1 2.12132034355964 2.12132034355964 0 1 #
point $-1 -7 26.5 -13 #
coedge $-1 $1258 $1176 $1259 $1260 0 $1106 $-1 #
coedge $-1 $1176 $1258 $1261 $1262 0 $1106 $-1 #
coedge $-1 $1263 $1264 $1176 $1227 1 $1265 $-1 #
edge $-1 $1266 $1267 $1176 $1268 0 #
straight-curve $-1 -54 -1.25 25 0 1 0 #
point $-1 -54 29 25 #
loop $-1 $1269 $1270 $1183 #
cone-surface $-1 31 -40 16.25 -6.98296267768627e-15 0 -1 -0.375 0 2.61861100413235e-15 1 -0.447213595499958 0.894427190999916 0 #
coedge $-1 $1271 $1271 $1187 $1235 0 $1184 $-1 #
coedge $-1 $1233 $1233 $-1 $1272 0 $1186 $-1 #
coedge $-1 $1187 $1187 $1271 $1273 1 $1123 $-1 #
edge $-1 $1274 $1275 $1232 $1276 0 #
vertex $-1 $1189 $1277 #
point $-1 2.75 35 17 #
point $-1 1.25 35 17 #
coedge $-1 $1239 $1239 $1195 $1240 1 $1278 $-1 #
edge $-1 $1279 $1279 $1195 $1280 0 #
loop $-1 $-1 $1196 $1281 #
vertex $-1 $1197 $1282 #
ellipse-curve $-1 -56 -40 25 -0 -0 -1 0.75 0 0 1 #
face $-1 $1283 $1284 $2 $-1 $1285 1 #
point $-1 2.75 -40 25 #
face $-1 $1244 $1286 $2 $-1 $1287 1 #
loop $-1 $1136 $1288 $1201 #
cone-surface $-1 31 -40 21 0 0 1 0.75 0 0 1 0 1 0 #
point $-1 -54 -34 25 #
ellipse-curve $-1 -51.5 -34 25 -0 -0 -1 -1.76776695296637 -1.76776695296637 0 1 #
coedge $-1 $1210 $1217 $1208 $1252 0 $1102 $-1 #
edge $-1 $1219 $1212 $1251 $1289 0 #
cone-surface $-1 -46 23.5 -8 0 0 -1 -2.12132034355964 2.12132034355964 0 1 0 1 0 #
straight-curve $-1 -49 -2.5 -13 0 1 0 #
point $-1 -49 23.5 -13 #
straight-curve $-1 -26.5 26.5 -13 1 0 0 #
point $-1 -46 26.5 -13 #
coedge $-1 $1225 $1224 $1290 $1291 0 $1106 $-1 #
coedge $-1 $1292 $1293 $1224 $1260 1 $1294 $-1 #
edge $-1 $1267 $1295 $1224 $1296 0 #
coedge $-1 $1297 $1298 $1225 $1262 1 $1299 $-1 #
edge $-1 $1300 $1266 $1225 $1301 0 #
coedge $-1 $1302 $1226 $1298 $1303 1 $1265 $-1 #
coedge $-1 $1226 $1302 $1292 $1304 0 $1265 $-1 #
loop $-1 $-1 $1264 $1305 #
vertex $-1 $1227 $1306 #
vertex $-1 $1227 $1307 #
straight-curve $-1 -26.75 18 -13 -1 0 0 #
loop $-1 $-1 $1308 $1183 #
coedge $-1 $1309 $1309 $1288 $1310 1 $1230 $-1 #
coedge $-1 $1232 $1232 $1234 $1273 0 $1184 $-1 #
edge $-1 $1311 $1311 $1233 $-1 0 #
edge $-1 $1275 $1274 $1271 $1276 0 #
vertex $-1 $1273 $1312 #
vertex $-1 $1235 $1313 #
ellipse-curve $-1 -27 -40 17 0 0 -1 0.75 0 0 1 #
point $-1 1.99999999999999 35 15.5 #
loop $-1 $-1 $1239 $1314 #
vertex $-1 $1240 $1315 #
ellipse-curve $-1 60 -40 25 -0 -0 -1 0.75 0 0 1 #
face $-1 $1316 $1317 $2 $-1 $1318 1 #
point $-1 -55.25 -40 25 #
face $-1 $1281 $1319 $2 $-1 $1320 1 #
loop $-1 $1198 $1321 $1244 #
cone-surface $-1 2 -40 21 0 0 1 0.75 0 0 1 0 1 0 #
loop $-1 $1322 $1323 $1246 #
cone-surface $-1 2 -40 16.25 -6.98296267768627e-15 0 -1 -0.375 0 2.61861100413235e-15 1 -0.447213595499958 0.894427190999916 0 #
coedge $-1 $1324 $1324 $1270 $1310 0 $1247 $-1 #
ellipse-curve $-1 -46 23.5 -13 0 0 1 -2.12132034355964 2.12132034355964 0 1 #
coedge $-1 $1325 $1326 $1258 $1291 1 $1327 $-1 #
edge $-1 $1295 $1300 $1258 $1328 0 #
coedge $-1 $1329 $1259 $1264 $1304 1 $1294 $-1 #
coedge $-1 $1259 $1329 $1325 $1330 0 $1294 $-1 #
loop $-1 $-1 $1293 $1331 #
vertex $-1 $1260 $1332 #
straight-curve $-1 -42 8.75 -13 0 1 0 #
coedge $-1 $1333 $1261 $1326 $1334 1 $1299 $-1 #
coedge $-1 $1261 $1333 $1263 $1303 0 $1299 $-1 #
loop $-1 $-1 $1298 $1335 #
vertex $-1 $1291 $1336 #
straight-curve $-1 -12 8.75 -13 0 -1 0 #
coedge $-1 $1264 $1263 $1337 $1338 1 $1265 $-1 #
edge $-1 $1339 $1266 $1298 $1340 0 #
edge $-1 $1341 $1267 $1292 $1342 0 #
face $-1 $1331 $1265 $2 $-1 $1343 1 #
point $-1 -12 18 -13 #
point $-1 -42 18 -13 #
coedge $-1 $1308 $1308 $-1 $1344 0 $1269 $-1 #
coedge $-1 $1270 $1270 $1324 $1345 1 $1230 $-1 #
edge $-1 $1346 $1347 $1288 $1348 0 #
vertex $-1 $1272 $1349 #
point $-1 -26.25 -40 17 #
point $-1 -27.75 -40 17 #
face $-1 $1350 $1351 $2 $-1 $1352 1 #
point $-1 60.75 -40 25 #
face $-1 $1314 $1353 $2 $-1 $1354 1 #
loop $-1 $1241 $1355 $1281 #
cone-surface $-1 -56 -40 21 0 0 1 0.75 0 0 1 0 1 0 #
loop $-1 $1356 $1357 $1283 #
cone-surface $-1 -56 -40 16.25 -6.98296267768627e-15 0 -1 -0.375 0 2.61861100413235e-15 1 -0.447213595499958 0.894427190999916 0 #
coedge $-1 $1358 $1358 $1323 $1359 0 $1284 $-1 #
loop $-1 $-1 $1360 $1246 #
coedge $-1 $1361 $1361 $1321 $1359 1 $1286 $-1 #
coedge $-1 $1288 $1288 $1309 $1345 0 $1247 $-1 #
coedge $-1 $1362 $1290 $1293 $1330 1 $1327 $-1 #
coedge $-1 $1290 $1362 $1297 $1334 0 $1327 $-1 #
loop $-1 $-1 $1326 $1363 #
straight-curve $-1 -26.75 22 -13 1 0 -0 #
coedge $-1 $1293 $1292 $1364 $1365 1 $1294 $-1 #
edge $-1 $1366 $1295 $1325 $1367 0 #
face $-1 $1363 $1294 $2 $-1 $1368 1 #
point $-1 -42 22 -13 #
coedge $-1 $1298 $1297 $1369 $1370 1 $1299 $-1 #
edge $-1 $1371 $1300 $1297 $1372 0 #
face $-1 $1037 $1299 $2 $-1 $1373 1 #
point $-1 -12 22 -13 #
coedge $-1 $1369 $1364 $1302 $1338 0 $1374 $-1 #
edge $-1 $1341 $1339 $1302 $1375 0 #
vertex $-1 $1370 $1376 #
straight-curve $-1 -12 18 -12.5 0 0 -1 #
vertex $-1 $1365 $1377 #
straight-curve $-1 -42 18 -12.5 0 0 -1 #
plane-surface $-1 -27 18 -12.5 0 1 0 0 0 1 0 #
edge $-1 $1378 $1378 $1308 $-1 0 #
edge $-1 $1347 $1346 $1324 $1348 0 #
vertex $-1 $1345 $1379 #
vertex $-1 $1310 $1380 #
ellipse-curve $-1 31 -40 17 0 0 -1 0.75 0 0 1 #
point $-1 -27 -40 15.5 #
face $-1 $1305 $1374 $2 $-1 $1381 0 #
loop $-1 $1278 $1382 $1314 #
cone-surface $-1 60 -40 21 0 0 1 0.75 0 0 1 0 1 0 #
loop $-1 $1383 $1384 $1316 #
cone-surface $-1 60 -40 16.25 -6.98296267768627e-15 0 -1 -0.375 0 2.61861100413235e-15 1 -0.447213595499958 0.894427190999916 0 #
coedge $-1 $1385 $1385 $1357 $1386 0 $1317 $-1 #
loop $-1 $-1 $1387 $1283 #
coedge $-1 $1388 $1388 $1355 $1386 1 $1319 $-1 #
coedge $-1 $1321 $1321 $1361 $1389 0 $1284 $-1 #
edge $-1 $1390 $1391 $1321 $1392 0 #
coedge $-1 $1360 $1360 $-1 $1393 0 $1322 $-1 #
coedge $-1 $1323 $1323 $1358 $1389 1 $1286 $-1 #
coedge $-1 $1326 $1325 $1394 $1395 1 $1327 $-1 #
face $-1 $1335 $1327 $2 $-1 $1396 1 #
coedge $-1 $1337 $1394 $1329 $1365 0 $1374 $-1 #
edge $-1 $1366 $1341 $1329 $1397 0 #
vertex $-1 $1395 $1398 #
straight-curve $-1 -42 22 -12.5 0 0 -1 #
plane-surface $-1 -42 20 -12.5 1 0 0 0 0 -1 0 #
coedge $-1 $1394 $1337 $1333 $1370 0 $1374 $-1 #
edge $-1 $1339 $1371 $1333 $1399 0 #
vertex $-1 $1370 $1400 #
straight-curve $-1 -12 22 -12.5 0 0 -1 #
plane-surface $-1 -12 20 -12.5 -1 0 0 0 0 1 0 #
loop $-1 $-1 $1369 $1350 #
straight-curve $-1 -27 18 -12 1 0 0 #
point $-1 -12 18 -12 #
point $-1 -42 18 -12 #
vertex $-1 $1344 $1401 #
point $-1 31.75 -40 17 #
point $-1 30.25 -40 17 #
plane-surface $-1 -27 20 -12 0 0 1 1 0 0 0 #
coedge $-1 $1402 $1402 $1384 $1403 0 $1351 $-1 #
loop $-1 $-1 $1404 $1316 #
coedge $-1 $1405 $1405 $1382 $1403 1 $1353 $-1 #
coedge $-1 $1355 $1355 $1388 $1406 0 $1317 $-1 #
edge $-1 $1407 $1408 $1355 $1409 0 #
coedge $-1 $1387 $1387 $-1 $1410 0 $1356 $-1 #
coedge $-1 $1357 $1357 $1385 $1406 1 $1319 $-1 #
edge $-1 $1391 $1390 $1358 $1392 0 #
vertex $-1 $1389 $1411 #
vertex $-1 $1359 $1412 #
ellipse-curve $-1 2 -40 17 0 0 -1 0.75 0 0 1 #
edge $-1 $1413 $1413 $1360 $-1 0 #
coedge $-1 $1364 $1369 $1362 $1395 0 $1374 $-1 #
edge $-1 $1371 $1366 $1362 $1414 0 #
plane-surface $-1 -27 22 -12.5 0 -1 0 0 0 -1 0 #
straight-curve $-1 -42 20 -12 0 -1 0 #
point $-1 -42 22 -12 #
straight-curve $-1 -12 20 -12 0 1 0 #
point $-1 -12 22 -12 #
point $-1 31 -40 15.5 #
coedge $-1 $1382 $1382 $1405 $1415 0 $1351 $-1 #
edge $-1 $1416 $1417 $1382 $1418 0 #
coedge $-1 $1404 $1404 $-1 $1419 0 $1383 $-1 #
coedge $-1 $1384 $1384 $1402 $1415 1 $1353 $-1 #
edge $-1 $1408 $1407 $1385 $1409 0 #
vertex $-1 $1406 $1420 #
vertex $-1 $1386 $1421 #
ellipse-curve $-1 -56 -40 17 0 0 -1 0.75 0 0 1 #
edge $-1 $1422 $1422 $1387 $-1 0 #
point $-1 2.75 -40 17 #
point $-1 1.25 -40 17 #
vertex $-1 $1393 $1423 #
straight-curve $-1 -27 22 -12 -1 0 0 #
edge $-1 $1417 $1416 $1402 $1418 0 #
vertex $-1 $1415 $1424 #
vertex $-1 $1403 $1425 #
ellipse-curve $-1 60 -40 17 0 0 -1 0.75 0 0 1 #
edge $-1 $1426 $1426 $1404 $-1 0 #
point $-1 -55.25 -40 17 #
point $-1 -56.75 -40 17 #
vertex $-1 $1410 $1427 #
point $-1 1.99999999999999 -40 15.5 #
point $-1 60.75 -40 17 #
point $-1 59.25 -40 17 #
vertex $-1 $1419 $1428 #
point $-1 -56 -40 15.5 #
point $-1 60 -40 15.5 #
