104 738 0 0                             
body $-1 $1 $-1 $2 #
lump $-1 $-1 $3 $0 #
transform $-1 1 0 0 0 1 0 0 0 1 0 0 0 1 0 0 0 #
shell $-1 $-1 $-1 $4 $1 #
face $5 $6 $7 $3 $-1 $8 1 #
face_name-twe-attrib $-1 $-1 $-1 $4 1 #
face $9 $10 $11 $3 $-1 $12 0 #
loop $13 $14 $15 $4 #
plane-surface $16 0 0 0 0 1 0 0 0 1 0 #
face_name-twe-attrib $-1 $-1 $-1 $6 2 #
face $17 $18 $19 $3 $-1 $20 0 #
loop $21 $22 $23 $6 #
plane-surface $24 0 1 0 0 1 0 0 0 1 0 #
loop_type-twe-attrib $-1 $-1 $-1 $7 0 #
loop $25 $26 $27 $4 #
coedge $-1 $28 $29 $30 $31 0 $7 $-1 #
surf-twe-attrib $-1 $-1 $-1 $8 4 #
face_name-twe-attrib $-1 $-1 $-1 $10 3 #
face $32 $33 $34 $3 $-1 $35 0 #
loop $36 $-1 $30 $10 #
plane-surface $37 1.6875 0 1.6875 1 0 0 0 0 -1 0 #
loop_type-twe-attrib $-1 $-1 $-1 $11 0 #
loop $38 $39 $40 $6 #
coedge $-1 $41 $42 $43 $44 1 $11 $-1 #
surf-twe-attrib $-1 $-1 $-1 $12 6 #
loop_type-twe-attrib $-1 $-1 $-1 $14 1 #
loop $45 $-1 $46 $4 #
coedge $-1 $27 $27 $47 $48 0 $14 $-1 #
coedge $-1 $49 $15 $50 $51 0 $7 $-1 #
coedge $-1 $15 $49 $52 $53 0 $7 $-1 #
coedge $-1 $54 $55 $15 $31 1 $19 $-1 #
edge $56 $57 $58 $30 $59 0 #
face_name-twe-attrib $-1 $-1 $-1 $18 4 #
face $60 $61 $62 $3 $-1 $63 0 #
loop $64 $-1 $52 $18 #
plane-surface $65 1.6875 0 -1.6875 0 0 -1 -1 0 0 0 #
loop_type-twe-attrib $-1 $-1 $-1 $19 0 #
surf-twe-attrib $-1 $-1 $-1 $20 10 #
loop_type-twe-attrib $-1 $-1 $-1 $22 1 #
loop $66 $67 $68 $6 #
coedge $-1 $40 $40 $69 $70 1 $22 $-1 #
coedge $-1 $71 $23 $72 $73 1 $11 $-1 #
coedge $-1 $23 $71 $74 $75 1 $11 $-1 #
coedge $-1 $55 $54 $23 $44 0 $19 $-1 #
edge $76 $77 $78 $43 $79 0 #
loop_type-twe-attrib $-1 $-1 $-1 $26 1 #
coedge $-1 $46 $46 $80 $81 0 $26 $-1 #
coedge $-1 $47 $47 $27 $48 1 $82 $-1 #
edge $83 $84 $84 $47 $85 0 #
coedge $-1 $29 $28 $86 $87 0 $7 $-1 #
coedge $-1 $88 $89 $28 $51 1 $90 $-1 #
edge $91 $58 $92 $50 $93 0 #
coedge $-1 $94 $95 $29 $53 1 $34 $-1 #
edge $96 $97 $57 $52 $98 0 #
coedge $-1 $43 $30 $95 $99 1 $19 $-1 #
coedge $-1 $30 $43 $88 $100 0 $19 $-1 #
edge_name-twe-attrib $-1 $-1 $-1 $31 1 8704 #
vertex $-1 $99 $101 #
vertex $-1 $100 $102 #
straight-curve $103 1.6875 0 1.6875 0 0 1 #
face_name-twe-attrib $-1 $-1 $-1 $33 5 #
face $104 $105 $90 $3 $-1 $106 0 #
loop $107 $-1 $86 $33 #
plane-surface $108 -1.6875 0 -1.6875 -1 0 0 0 0 1 0 #
loop_type-twe-attrib $-1 $-1 $-1 $34 0 #
surf-twe-attrib $-1 $-1 $-1 $35 18 #
loop_type-twe-attrib $-1 $-1 $-1 $39 1 #
loop $109 $110 $111 $6 #
coedge $-1 $68 $68 $112 $113 1 $39 $-1 #
coedge $-1 $69 $69 $40 $70 0 $114 $-1 #
edge $115 $116 $116 $69 $117 0 #
coedge $-1 $42 $41 $118 $119 1 $11 $-1 #
coedge $-1 $95 $94 $41 $73 0 $34 $-1 #
edge $120 $121 $77 $72 $122 0 #
coedge $-1 $89 $88 $42 $75 0 $90 $-1 #
edge $123 $78 $124 $74 $125 0 #
edge_name-twe-attrib $-1 $-1 $-1 $44 2 8704 #
vertex $-1 $99 $126 #
vertex $-1 $100 $127 #
straight-curve $128 1.6875 1 1.6875 0 0 1 #
coedge $-1 $80 $80 $46 $81 1 $129 $-1 #
edge $130 $131 $131 $80 $132 0 #
loop $133 $-1 $47 $134 #
edge_name-twe-attrib $-1 $-1 $-1 $48 17 8704 #
vertex $-1 $48 $135 #
ellipse-curve $136 1 0 1 2e-15 1 0 0.2655 -5.31e-16 0 1 #
coedge $-1 $137 $138 $49 $87 1 $62 $-1 #
edge $139 $92 $97 $86 $140 0 #
coedge $-1 $74 $50 $55 $100 1 $90 $-1 #
coedge $-1 $50 $74 $137 $141 0 $90 $-1 #
loop $142 $-1 $50 $61 #
edge_name-twe-attrib $-1 $-1 $-1 $51 9 8704 #
vertex $-1 $141 $143 #
straight-curve $144 -1.6875 0 1.6875 -1 0 0 #
coedge $-1 $72 $52 $138 $145 1 $34 $-1 #
coedge $-1 $52 $72 $54 $99 0 $34 $-1 #
edge_name-twe-attrib $-1 $-1 $-1 $53 3 8704 #
vertex $-1 $145 $146 #
straight-curve $147 1.6875 0 -1.6875 1 0 0 #
edge $148 $77 $57 $95 $149 0 #
edge $150 $78 $58 $88 $151 0 #
point $-1 1.6875 0 -1.6875 #
point $-1 1.6875 0 1.6875 #
cur-twe-attrib $-1 $-1 $-1 $59 31 #
face_name-twe-attrib $-1 $-1 $-1 $61 6 #
face $152 $153 $154 $3 $-1 $155 1 #
plane-surface $156 -1.6875 0 1.6875 0 0 1 1 0 0 0 #
loop_type-twe-attrib $-1 $-1 $-1 $62 0 #
surf-twe-attrib $-1 $-1 $-1 $63 33 #
loop_type-twe-attrib $-1 $-1 $-1 $67 1 #
loop $157 $158 $159 $6 #
coedge $-1 $111 $111 $160 $161 1 $67 $-1 #
coedge $-1 $112 $112 $68 $113 0 $162 $-1 #
edge $163 $164 $164 $112 $165 0 #
loop $166 $167 $69 $153 #
edge_name-twe-attrib $-1 $-1 $-1 $70 14 8704 #
vertex $-1 $70 $168 #
ellipse-curve $169 1 1 1 0 1 0 -0.40625 0 0 1 #
coedge $-1 $138 $137 $71 $119 0 $62 $-1 #
edge $170 $124 $121 $118 $171 0 #
edge_name-twe-attrib $-1 $-1 $-1 $73 4 8704 #
vertex $-1 $145 $172 #
straight-curve $173 1.6875 1 -1.6875 1 0 0 #
edge_name-twe-attrib $-1 $-1 $-1 $75 11 8704 #
vertex $-1 $141 $174 #
straight-curve $175 -1.6875 1 1.6875 -1 0 0 #
point $-1 1.6875 1 -1.6875 #
point $-1 1.6875 1 1.6875 #
cur-twe-attrib $-1 $-1 $-1 $79 44 #
loop $176 $-1 $80 $177 #
edge_name-twe-attrib $-1 $-1 $-1 $81 22 8704 #
vertex $-1 $81 $178 #
ellipse-curve $179 -1 0 -1 2e-15 1 0 0.2655 -5.31e-16 0 1 #
loop_type-twe-attrib $-1 $-1 $-1 $82 1 #
face $180 $181 $182 $3 $-1 $183 1 #
point $-1 0.7345 -5.31e-16 1 #
cur-twe-attrib $-1 $-1 $-1 $85 48 #
coedge $-1 $118 $86 $89 $141 1 $62 $-1 #
coedge $-1 $86 $118 $94 $145 0 $62 $-1 #
edge_name-twe-attrib $-1 $-1 $-1 $87 6 8704 #
straight-curve $184 -1.6875 0 -1.6875 0 0 -1 #
edge $185 $124 $92 $89 $186 0 #
loop_type-twe-attrib $-1 $-1 $-1 $90 0 #
point $-1 -1.6875 0 1.6875 #
cur-twe-attrib $-1 $-1 $-1 $93 51 #
edge $187 $121 $97 $138 $188 0 #
point $-1 -1.6875 0 -1.6875 #
cur-twe-attrib $-1 $-1 $-1 $98 53 #
edge_name-twe-attrib $-1 $-1 $-1 $99 5 8704 #
straight-curve $189 1.6875 0 -1.6875 0 -1 0 #
edge_name-twe-attrib $-1 $-1 $-1 $100 10 8704 #
straight-curve $190 1.6875 0 1.6875 0 -1 0 #
face_name-twe-attrib $-1 $-1 $-1 $105 7 #
face $191 $192 $114 $3 $-1 $193 1 #
loop $194 $195 $196 $105 #
plane-surface $197 1 0.688 1 0 -1 0 0 0 -1 0 #
surf-twe-attrib $-1 $-1 $-1 $106 61 #
loop_type-twe-attrib $-1 $-1 $-1 $110 1 #
loop $198 $199 $200 $6 #
coedge $-1 $159 $159 $201 $202 0 $110 $-1 #
coedge $-1 $160 $160 $111 $161 0 $203 $-1 #
edge $204 $205 $205 $160 $206 0 #
loop $207 $208 $112 $209 #
edge_name-twe-attrib $-1 $-1 $-1 $113 19 8704 #
vertex $-1 $113 $210 #
ellipse-curve $211 -1 1 -1 0 1 0 -0.40625 0 0 1 #
loop_type-twe-attrib $-1 $-1 $-1 $114 0 #
loop $212 $-1 $213 $153 #
point $-1 0.59375 1 1 #
cur-twe-attrib $-1 $-1 $-1 $117 70 #
edge_name-twe-attrib $-1 $-1 $-1 $119 7 8704 #
straight-curve $214 -1.6875 1 -1.6875 0 0 -1 #
point $-1 -1.6875 1 -1.6875 #
cur-twe-attrib $-1 $-1 $-1 $122 73 #
point $-1 -1.6875 1 1.6875 #
cur-twe-attrib $-1 $-1 $-1 $125 75 #
loop_type-twe-attrib $-1 $-1 $-1 $129 1 #
face $215 $216 $217 $3 $-1 $218 1 #
point $-1 -1.2655 -5.31e-16 -1 #
cur-twe-attrib $-1 $-1 $-1 $132 81 #
face_name-twe-attrib $-1 $-1 $-1 $134 10 #
face $219 $209 $220 $3 $-1 $221 1 #
loop $222 $82 $223 $134 #
cone-surface $224 1 1.1056 1 0 -1 0 -0.2655 0 0 1 0 1 0 #
cur-twe-attrib $-1 $-1 $-1 $140 87 #
edge_name-twe-attrib $-1 $-1 $-1 $141 12 8704 #
straight-curve $225 -1.6875 0 1.6875 0 -1 0 #
edge_name-twe-attrib $-1 $-1 $-1 $145 8 8704 #
straight-curve $226 -1.6875 0 -1.6875 0 -1 0 #
cur-twe-attrib $-1 $-1 $-1 $149 99 #
cur-twe-attrib $-1 $-1 $-1 $151 100 #
face_name-twe-attrib $-1 $-1 $-1 $153 8 #
face $227 $134 $228 $3 $-1 $229 1 #
cone-surface $230 1 1.1056 1 0 -1 0 -0.40625 0 0 1 0 1 0 #
loop_type-twe-attrib $-1 $-1 $-1 $154 1 #
loop $231 $-1 $232 $105 #
coedge $-1 $196 $196 $233 $234 0 $154 $-1 #
surf-twe-attrib $-1 $235 $-1 $155 181 #
loop_type-twe-attrib $-1 $-1 $-1 $158 1 #
loop $236 $237 $238 $6 #
coedge $-1 $200 $200 $239 $240 1 $158 $-1 #
coedge $-1 $201 $201 $159 $202 1 $241 $-1 #
edge $242 $243 $243 $201 $244 0 #
loop $245 $246 $160 $247 #
edge_name-twe-attrib $-1 $-1 $-1 $161 24 8704 #
vertex $-1 $161 $248 #
ellipse-curve $249 0 1 -1 0 1 0 -0.25 0 0 1 #
loop_type-twe-attrib $-1 $-1 $-1 $162 0 #
loop $250 $-1 $251 $209 #
face $252 $253 $162 $3 $-1 $254 1 #
point $-1 -1.40625 1 -1 #
cur-twe-attrib $-1 $-1 $-1 $165 113 #
loop_type-twe-attrib $-1 $-1 $-1 $167 1 #
coedge $-1 $213 $213 $232 $255 1 $167 $-1 #
cur-twe-attrib $-1 $-1 $-1 $171 119 #
face_name-twe-attrib $-1 $-1 $-1 $177 14 #
face $256 $247 $257 $3 $-1 $258 1 #
loop $259 $129 $260 $177 #
cone-surface $261 -1 1.1056 -1 0 -1 0 -0.2655 0 0 1 0 1 0 #
face_name-twe-attrib $-1 $-1 $-1 $181 11 #
loop $262 $263 $264 $181 #
plane-surface $265 -1 0.688 -1 0 -1 0 0 0 -1 0 #
loop_type-twe-attrib $-1 $-1 $-1 $182 0 #
coedge $-1 $223 $223 $266 $267 1 $182 $-1 #
surf-twe-attrib $-1 $-1 $-1 $183 134 #
cur-twe-attrib $-1 $-1 $-1 $186 141 #
cur-twe-attrib $-1 $-1 $-1 $188 145 #
face_name-twe-attrib $-1 $-1 $-1 $192 9 #
loop $268 $269 $233 $192 #
cone-surface $270 1 0.688 1 0 1 0 -0.276 0 0 1 0.5 0.866025403784439 0 #
surf-twe-attrib $-1 $-1 $-1 $193 153 #
loop_type-twe-attrib $-1 $-1 $-1 $195 0 #
coedge $-1 $232 $232 $213 $255 0 $195 $-1 #
coedge $-1 $233 $233 $196 $234 1 $228 $-1 #
edge $271 $272 $272 $233 $273 0 #
surf-twe-attrib $-1 $-1 $197 $155 105 #
loop_type-twe-attrib $-1 $-1 $-1 $199 1 #
loop $274 $275 $276 $6 #
coedge $-1 $238 $238 $277 $278 1 $199 $-1 #
coedge $-1 $239 $239 $200 $240 0 $279 $-1 #
edge $280 $281 $281 $239 $282 0 #
loop $283 $284 $201 $285 #
edge_name-twe-attrib $-1 $-1 $-1 $202 29 8704 #
vertex $-1 $202 $286 #
ellipse-curve $287 0 1 1 0 -1 0 0.25 0 0 1 #
loop_type-twe-attrib $-1 $-1 $-1 $203 0 #
loop $288 $-1 $289 $247 #
face $290 $291 $203 $3 $-1 $292 1 #
point $-1 -0.25 1 -1 #
cur-twe-attrib $-1 $-1 $-1 $206 161 #
loop_type-twe-attrib $-1 $-1 $-1 $208 1 #
coedge $-1 $251 $251 $293 $294 1 $208 $-1 #
face_name-twe-attrib $-1 $-1 $-1 $209 12 #
face $295 $177 $296 $3 $-1 $297 1 #
cone-surface $298 -1 1.1056 -1 0 -1 0 -0.40625 0 0 1 0 1 0 #
edge $299 $300 $300 $232 $301 0 #
face_name-twe-attrib $-1 $-1 $-1 $216 15 #
loop $302 $303 $304 $216 #
plane-surface $305 0 0.37 -1 0 -1 0 0 0 -1 0 #
loop_type-twe-attrib $-1 $-1 $-1 $217 0 #
coedge $-1 $260 $260 $306 $307 1 $217 $-1 #
surf-twe-attrib $-1 $-1 $-1 $218 177 #
loop_type-twe-attrib $-1 $-1 $-1 $220 1 #
loop $308 $-1 $293 $181 #
coedge $-1 $264 $264 $309 $310 0 $220 $-1 #
surf-twe-attrib $-1 $311 $-1 $221 181 #
coedge $-1 $266 $266 $223 $267 0 $269 $-1 #
edge $312 $313 $313 $223 $314 0 #
loop_type-twe-attrib $-1 $-1 $-1 $228 0 #
loop $315 $-1 $266 $192 #
surf-twe-attrib $-1 $-1 $-1 $229 192 #
edge_name-twe-attrib $-1 $-1 $-1 $234 15 8448 #
vertex $-1 $234 $316 #
ellipse-curve $317 1 0.688 1 0 -1 0 -0.276 0 0 1 #
loop_type-twe-attrib $-1 $-1 $-1 $237 1 #
loop $318 $-1 $319 $6 #
coedge $-1 $276 $276 $320 $321 1 $237 $-1 #
coedge $-1 $277 $277 $238 $278 0 $322 $-1 #
edge $323 $324 $324 $277 $325 0 #
loop $326 $327 $239 $328 #
edge_name-twe-attrib $-1 $-1 $-1 $240 34 8704 #
vertex $-1 $240 $329 #
ellipse-curve $330 -1 1 1 0 1 0 -0.25 0 0 1 #
loop_type-twe-attrib $-1 $-1 $-1 $241 0 #
loop $331 $-1 $332 $285 #
face $333 $334 $241 $3 $-1 $335 1 #
point $-1 -0.25 1 1 #
cur-twe-attrib $-1 $-1 $-1 $244 202 #
loop_type-twe-attrib $-1 $-1 $-1 $246 1 #
coedge $-1 $289 $289 $336 $337 1 $246 $-1 #
face_name-twe-attrib $-1 $-1 $-1 $247 16 #
face $338 $339 $340 $3 $-1 $341 1 #
cone-surface $342 0 1.045 -1 0 -1 0 -0.25 0 0 1 0 1 0 #
coedge $-1 $293 $293 $251 $294 0 $263 $-1 #
edge $343 $344 $344 $293 $345 0 #
face_name-twe-attrib $-1 $-1 $-1 $253 13 #
loop $346 $347 $309 $253 #
cone-surface $348 -1 0.688 -1 0 1 0 -0.276 0 0 1 0.5 0.866025403784439 0 #
surf-twe-attrib $-1 $-1 $-1 $254 209 #
edge_name-twe-attrib $-1 $-1 $-1 $255 13 4608 #
vertex $-1 $255 $349 #
ellipse-curve $350 1 0.688 1 0 1 0 -0.40625 0 0 1 #
loop_type-twe-attrib $-1 $-1 $-1 $257 1 #
loop $351 $-1 $336 $216 #
coedge $-1 $304 $304 $352 $353 0 $257 $-1 #
surf-twe-attrib $-1 $354 $-1 $258 355 #
coedge $-1 $306 $306 $260 $307 0 $347 $-1 #
edge $356 $357 $357 $260 $358 0 #
loop_type-twe-attrib $-1 $-1 $-1 $263 0 #
coedge $-1 $309 $309 $264 $310 1 $296 $-1 #
edge $359 $360 $360 $309 $361 0 #
surf-twe-attrib $-1 $-1 $265 $221 105 #
edge_name-twe-attrib $-1 $-1 $-1 $267 16 8448 #
vertex $-1 $267 $362 #
ellipse-curve $363 1 0.669813466520527 1 0 -1 0 -0.2655 0 0 1 #
loop_type-twe-attrib $-1 $-1 $-1 $269 1 #
point $-1 0.724 0.688 1 #
cur-twe-attrib $-1 $-1 $-1 $273 234 #
loop_type-twe-attrib $-1 $-1 $-1 $275 1 #
coedge $-1 $319 $319 $364 $365 1 $275 $-1 #
coedge $-1 $320 $320 $276 $321 0 $366 $-1 #
edge $367 $368 $368 $320 $369 0 #
loop $370 $371 $277 $372 #
edge_name-twe-attrib $-1 $-1 $-1 $278 39 8704 #
vertex $-1 $278 $373 #
ellipse-curve $374 1 1 -1 0 1 0 -0.25 0 0 1 #
loop_type-twe-attrib $-1 $-1 $-1 $279 0 #
loop $375 $-1 $376 $328 #
face $377 $378 $279 $3 $-1 $379 1 #
point $-1 -1.25 1 1 #
cur-twe-attrib $-1 $-1 $-1 $282 240 #
loop_type-twe-attrib $-1 $-1 $-1 $284 1 #
coedge $-1 $332 $332 $380 $381 0 $284 $-1 #
face_name-twe-attrib $-1 $-1 $-1 $285 20 #
face $382 $383 $384 $3 $-1 $385 1 #
cone-surface $386 0 1.045 1 0 1 0 -0.25 0 0 1 0 1 0 #
coedge $-1 $336 $336 $289 $337 0 $303 $-1 #
edge $387 $388 $388 $336 $389 0 #
face_name-twe-attrib $-1 $-1 $-1 $291 17 #
face $390 $391 $392 $3 $-1 $393 1 #
loop $394 $395 $352 $291 #
cone-surface $396 0 1.045 -1 0 -1 0 -0.2 0 0 1 0 1 0 #
surf-twe-attrib $-1 $-1 $-1 $292 247 #
edge_name-twe-attrib $-1 $-1 $-1 $294 18 4608 #
vertex $-1 $294 $397 #
ellipse-curve $398 -1 0.688 -1 0 1 0 -0.40625 0 0 1 #
loop_type-twe-attrib $-1 $-1 $-1 $296 0 #
loop $399 $-1 $306 $253 #
surf-twe-attrib $-1 $-1 $-1 $297 253 #
point $-1 1.40625 0.688 1 #
cur-twe-attrib $-1 $-1 $-1 $301 255 #
loop_type-twe-attrib $-1 $-1 $-1 $303 0 #
coedge $-1 $352 $352 $304 $353 1 $340 $-1 #
edge $400 $401 $401 $352 $402 0 #
surf-twe-attrib $-1 $403 $305 $258 404 #
face $405 $406 $407 $3 $-1 $408 1 #
edge_name-twe-attrib $-1 $-1 $-1 $307 21 8448 #
vertex $-1 $307 $409 #
ellipse-curve $410 -1 0.669813466520527 -1 0 -1 0 -0.2655 0 0 1 #
edge_name-twe-attrib $-1 $-1 $-1 $310 20 8448 #
vertex $-1 $310 $411 #
ellipse-curve $412 -1 0.688 -1 0 -1 0 -0.276 0 0 1 #
point $-1 1.2655 0.669813466520527 1 #
cur-twe-attrib $-1 $-1 $-1 $314 267 #
coedge $-1 $364 $364 $319 $365 0 $413 $-1 #
edge $414 $415 $415 $364 $416 0 #
loop $417 $418 $320 $419 #
edge_name-twe-attrib $-1 $-1 $-1 $321 44 8704 #
vertex $-1 $321 $420 #
ellipse-curve $421 -0.375 1 0 0 1 0 -0.25 0 0 1 #
loop_type-twe-attrib $-1 $-1 $-1 $322 0 #
loop $422 $-1 $423 $372 #
face $424 $425 $322 $3 $-1 $426 1 #
point $-1 0.75 1 -1 #
cur-twe-attrib $-1 $-1 $-1 $325 278 #
loop_type-twe-attrib $-1 $-1 $-1 $327 1 #
coedge $-1 $376 $376 $427 $428 1 $327 $-1 #
face_name-twe-attrib $-1 $-1 $-1 $328 24 #
face $429 $430 $431 $3 $-1 $432 1 #
cone-surface $433 -1 1.045 1 0 -1 0 -0.25 0 0 1 0 1 0 #
coedge $-1 $380 $380 $332 $381 1 $434 $-1 #
edge $435 $436 $436 $380 $437 0 #
face_name-twe-attrib $-1 $-1 $-1 $334 21 #
face $438 $439 $440 $3 $-1 $441 1 #
loop $442 $443 $444 $334 #
cone-surface $445 0 1.045 1 0 1 0 -0.2 0 0 1 0 1 0 #
surf-twe-attrib $-1 $-1 $-1 $335 285 #
edge_name-twe-attrib $-1 $-1 $-1 $337 23 4608 #
vertex $-1 $337 $446 #
ellipse-curve $447 0 0.37 -1 0 1 0 -0.25 0 0 1 #
face_name-twe-attrib $-1 $-1 $-1 $339 18 #
face $448 $285 $449 $3 $-1 $450 0 #
loop $451 $452 $453 $339 #
cone-surface $454 0 0.220172123805512 -1 0 1 0 -0.2 0 0 1 0.857167300702112 0.515038074910054 0 #
loop_type-twe-attrib $-1 $-1 $-1 $340 0 #
loop $455 $-1 $456 $291 #
surf-twe-attrib $-1 $-1 $-1 $341 291 #
point $-1 -0.59375 0.688 -1 #
cur-twe-attrib $-1 $-1 $-1 $345 294 #
loop_type-twe-attrib $-1 $-1 $-1 $347 1 #
edge_name-twe-attrib $-1 $-1 $-1 $353 25 8704 #
vertex $-1 $353 $457 #
ellipse-curve $458 0 0.37 -1 0 -1 0 -0.2 0 0 1 #
surf-twe-attrib $-1 $459 $354 $258 460 #
face $461 $419 $462 $3 $-1 $463 1 #
face_name-twe-attrib $-1 $-1 $-1 $355 35 #
face $464 $465 $413 $3 $-1 $466 1 #
loop $467 $468 $469 $355 #
plane-surface $470 1 0.37 -0.1875 0 -1 0 0 0 -1 0 #
point $-1 -0.7345 0.669813466520527 -1 #
cur-twe-attrib $-1 $-1 $-1 $358 307 #
point $-1 -1.276 0.688 -1 #
cur-twe-attrib $-1 $-1 $-1 $361 310 #
loop $471 $472 $364 $406 #
edge_name-twe-attrib $-1 $-1 $-1 $365 49 8704 #
vertex $-1 $365 $473 #
ellipse-curve $474 1 1 -0.1875 0 1 0 -0.25 0 0 1 #
loop_type-twe-attrib $-1 $-1 $-1 $366 0 #
loop $475 $-1 $476 $419 #
face $477 $478 $366 $3 $-1 $479 1 #
point $-1 -0.625 1 0 #
cur-twe-attrib $-1 $-1 $-1 $369 321 #
loop_type-twe-attrib $-1 $-1 $-1 $371 1 #
coedge $-1 $423 $423 $480 $481 1 $371 $-1 #
face_name-twe-attrib $-1 $-1 $-1 $372 28 #
face $482 $483 $484 $3 $-1 $485 1 #
cone-surface $486 1 1.045 -1 0 -1 0 -0.25 0 0 1 0 1 0 #
coedge $-1 $427 $427 $376 $428 0 $487 $-1 #
edge $488 $489 $489 $427 $490 0 #
face_name-twe-attrib $-1 $-1 $-1 $378 25 #
face $491 $460 $492 $3 $-1 $493 1 #
loop $494 $495 $496 $378 #
cone-surface $497 -1 1.045 1 0 -1 0 -0.2 0 0 1 0 1 0 #
surf-twe-attrib $-1 $-1 $-1 $379 328 #
loop $498 $-1 $380 $391 #
edge_name-twe-attrib $-1 $-1 $-1 $381 28 4608 #
vertex $-1 $381 $499 #
ellipse-curve $500 0 0.37 1 0 -1 0 -0.25 0 0 1 #
face_name-twe-attrib $-1 $-1 $-1 $383 22 #
face $501 $328 $502 $3 $-1 $503 1 #
loop $504 $505 $506 $383 #
cone-surface $507 0 0.220172123805512 1 0 1 0 -0.2 0 0 1 0.857167300702112 0.515038074910055 0 #
loop_type-twe-attrib $-1 $-1 $-1 $384 0 #
loop $508 $-1 $509 $334 #
coedge $-1 $444 $444 $510 $511 0 $384 $-1 #
surf-twe-attrib $-1 $-1 $-1 $385 334 #
point $-1 0.25 0.37 -1 #
cur-twe-attrib $-1 $-1 $-1 $389 337 #
face_name-twe-attrib $-1 $-1 $-1 $391 19 #
loop $512 $434 $510 $391 #
plane-surface $513 0 0.37 1 0 1 0 0 0 1 0 #
loop_type-twe-attrib $-1 $-1 $-1 $392 0 #
loop $514 $-1 $515 $339 #
coedge $-1 $453 $453 $-1 $516 0 $392 $-1 #
surf-twe-attrib $-1 $-1 $-1 $393 339 #
loop_type-twe-attrib $-1 $-1 $-1 $395 1 #
coedge $-1 $456 $456 $515 $517 0 $395 $-1 #
point $-1 -0.2 0.37 -1 #
cur-twe-attrib $-1 $-1 $-1 $402 353 #
surf-twe-attrib $-1 $518 $403 $258 439 #
face $519 $372 $520 $3 $-1 $521 1 #
face_name-twe-attrib $-1 $-1 $-1 $404 31 #
loop $522 $523 $524 $404 #
plane-surface $525 -0.375 0.37 0 0 -1 0 0 0 -1 0 #
face_name-twe-attrib $-1 $-1 $-1 $406 36 #
face $526 $527 $528 $3 $-1 $529 1 #
cone-surface $530 1 1.045 -0.1875 0 -1 0 -0.25 0 0 1 0 1 0 #
loop_type-twe-attrib $-1 $-1 $-1 $407 1 #
loop $531 $-1 $532 $355 #
coedge $-1 $469 $469 $533 $534 0 $407 $-1 #
surf-twe-attrib $-1 $535 $-1 $408 355 #
loop_type-twe-attrib $-1 $-1 $-1 $413 0 #
loop $536 $-1 $537 $406 #
point $-1 0.75 1 -0.1875 #
cur-twe-attrib $-1 $-1 $-1 $416 365 #
loop_type-twe-attrib $-1 $-1 $-1 $418 1 #
coedge $-1 $476 $476 $538 $539 1 $418 $-1 #
face_name-twe-attrib $-1 $-1 $-1 $419 32 #
face $540 $541 $542 $3 $-1 $543 1 #
cone-surface $544 -0.375 1.045 0 0 -1 0 -0.25 0 0 1 0 1 0 #
coedge $-1 $480 $480 $423 $481 0 $545 $-1 #
edge $546 $547 $547 $480 $548 0 #
face_name-twe-attrib $-1 $-1 $-1 $425 29 #
face $549 $404 $550 $3 $-1 $551 1 #
loop $552 $553 $554 $425 #
cone-surface $555 1 1.045 -1 0 -1 0 -0.2 0 0 1 0 1 0 #
surf-twe-attrib $-1 $-1 $-1 $426 372 #
loop $556 $-1 $427 $439 #
edge_name-twe-attrib $-1 $-1 $-1 $428 33 4608 #
vertex $-1 $428 $557 #
ellipse-curve $558 -1 0.37 1 0 1 0 -0.25 0 0 1 #
face_name-twe-attrib $-1 $-1 $-1 $430 26 #
loop $559 $560 $561 $430 #
cone-surface $562 -1 0.220172123805512 1 0 1 0 -0.2 0 0 1 0.857167300702112 0.515038074910054 0 #
loop_type-twe-attrib $-1 $-1 $-1 $431 0 #
loop $563 $-1 $564 $378 #
coedge $-1 $496 $496 $565 $566 1 $431 $-1 #
surf-twe-attrib $-1 $-1 $-1 $432 378 #
loop_type-twe-attrib $-1 $-1 $-1 $434 0 #
point $-1 -0.25 0.37 1 #
cur-twe-attrib $-1 $-1 $-1 $437 381 #
face_name-twe-attrib $-1 $-1 $-1 $439 23 #
loop $567 $487 $565 $439 #
plane-surface $568 -1 0.37 1 0 -1 0 0 0 -1 0 #
loop_type-twe-attrib $-1 $-1 $-1 $440 0 #
loop $569 $-1 $570 $383 #
coedge $-1 $506 $506 $-1 $571 0 $440 $-1 #
surf-twe-attrib $-1 $-1 $-1 $441 383 #
loop_type-twe-attrib $-1 $-1 $-1 $443 1 #
coedge $-1 $509 $509 $570 $572 1 $443 $-1 #
coedge $-1 $510 $510 $444 $511 1 $449 $-1 #
edge $573 $574 $574 $444 $575 0 #
loop_type-twe-attrib $-1 $-1 $-1 $449 1 #
surf-twe-attrib $-1 $576 $-1 $450 355 #
loop_type-twe-attrib $-1 $-1 $-1 $452 1 #
coedge $-1 $515 $515 $456 $517 1 $452 $-1 #
edge $577 $578 $578 $453 $-1 0 #
edge $579 $580 $580 $515 $581 0 #
surf-twe-attrib $-1 $582 $459 $258 391 #
face_name-twe-attrib $-1 $-1 $-1 $460 27 #
loop $583 $545 $584 $460 #
plane-surface $585 1 0.37 -1 0 -1 0 0 0 -1 0 #
loop_type-twe-attrib $-1 $-1 $-1 $462 1 #
loop $586 $-1 $538 $404 #
coedge $-1 $524 $524 $587 $588 0 $462 $-1 #
surf-twe-attrib $-1 $589 $-1 $463 355 #
face_name-twe-attrib $-1 $-1 $-1 $465 37 #
face $590 $-1 $591 $3 $-1 $592 1 #
loop $593 $594 $533 $465 #
cone-surface $595 1 1.045 -0.1875 0 -1 0 -0.2 0 0 1 0 1 0 #
surf-twe-attrib $-1 $-1 $-1 $466 406 #
loop_type-twe-attrib $-1 $-1 $-1 $468 0 #
coedge $-1 $532 $532 $537 $596 0 $468 $-1 #
coedge $-1 $533 $533 $469 $534 1 $528 $-1 #
edge $597 $598 $598 $533 $599 0 #
surf-twe-attrib $-1 $600 $470 $408 404 #
loop_type-twe-attrib $-1 $-1 $-1 $472 1 #
coedge $-1 $537 $537 $532 $596 1 $472 $-1 #
coedge $-1 $538 $538 $476 $539 0 $523 $-1 #
edge $601 $602 $602 $538 $603 0 #
face_name-twe-attrib $-1 $-1 $-1 $478 33 #
face $604 $355 $605 $3 $-1 $606 1 #
loop $607 $608 $587 $478 #
cone-surface $609 -0.375 1.045 0 0 -1 0 -0.2 0 0 1 0 1 0 #
surf-twe-attrib $-1 $-1 $-1 $479 419 #
loop $610 $-1 $480 $460 #
edge_name-twe-attrib $-1 $-1 $-1 $481 38 4608 #
vertex $-1 $481 $611 #
ellipse-curve $612 1 0.37 -1 0 1 0 -0.25 0 0 1 #
face_name-twe-attrib $-1 $-1 $-1 $483 30 #
loop $613 $614 $615 $483 #
cone-surface $616 1 0.220172123805512 -1 0 1 0 -0.2 0 0 1 0.857167300702112 0.515038074910054 0 #
loop_type-twe-attrib $-1 $-1 $-1 $484 0 #
loop $617 $-1 $618 $425 #
coedge $-1 $554 $554 $584 $619 1 $484 $-1 #
surf-twe-attrib $-1 $-1 $-1 $485 425 #
loop_type-twe-attrib $-1 $-1 $-1 $487 0 #
point $-1 -0.75 0.37 1 #
cur-twe-attrib $-1 $-1 $-1 $490 428 #
loop_type-twe-attrib $-1 $-1 $-1 $492 0 #
loop $620 $-1 $621 $430 #
coedge $-1 $561 $561 $-1 $622 0 $492 $-1 #
surf-twe-attrib $-1 $-1 $-1 $493 430 #
loop_type-twe-attrib $-1 $-1 $-1 $495 1 #
coedge $-1 $564 $564 $621 $623 0 $495 $-1 #
coedge $-1 $565 $565 $496 $566 0 $502 $-1 #
edge $624 $625 $625 $496 $626 0 #
loop_type-twe-attrib $-1 $-1 $-1 $502 1 #
surf-twe-attrib $-1 $627 $-1 $503 355 #
loop_type-twe-attrib $-1 $-1 $-1 $505 1 #
coedge $-1 $570 $570 $509 $572 0 $505 $-1 #
edge $628 $629 $629 $506 $-1 0 #
edge $630 $631 $631 $570 $632 0 #
edge_name-twe-attrib $-1 $-1 $-1 $511 30 8704 #
vertex $-1 $511 $633 #
ellipse-curve $634 0 0.37 1 0 1 0 -0.2 0 0 1 #
surf-twe-attrib $-1 $635 $513 $450 404 #
edge_name-twe-attrib $-1 $-1 $-1 $516 26 128 #
vertex $-1 $516 $636 #
edge_name-twe-attrib $-1 $-1 $-1 $517 27 4352 #
vertex $-1 $517 $637 #
ellipse-curve $638 0 0.220172123805512 -1 0 -1 0 -0.2 0 0 1 #
surf-twe-attrib $-1 $-1 $518 $258 216 #
loop_type-twe-attrib $-1 $-1 $-1 $520 1 #
coedge $-1 $584 $584 $554 $619 0 $520 $-1 #
surf-twe-attrib $-1 $639 $-1 $521 355 #
loop_type-twe-attrib $-1 $-1 $-1 $523 0 #
coedge $-1 $587 $587 $524 $588 1 $542 $-1 #
edge $640 $641 $641 $587 $642 0 #
surf-twe-attrib $-1 $643 $525 $463 404 #
face_name-twe-attrib $-1 $-1 $-1 $527 38 #
loop $644 $645 $646 $527 #
cone-surface $647 1 0.220172123805512 -0.1875 0 1 0 -0.2 0 0 1 0.857167300702112 0.515038074910054 0 #
loop_type-twe-attrib $-1 $-1 $-1 $528 0 #
loop $648 $-1 $649 $465 #
surf-twe-attrib $-1 $-1 $-1 $529 465 #
edge $650 $651 $651 $532 $652 0 #
edge_name-twe-attrib $-1 $-1 $-1 $534 50 8704 #
vertex $-1 $534 $653 #
ellipse-curve $654 1 0.37 -0.1875 0 -1 0 -0.2 0 0 1 #
surf-twe-attrib $-1 $655 $535 $408 460 #
edge_name-twe-attrib $-1 $-1 $-1 $539 43 4608 #
vertex $-1 $539 $656 #
ellipse-curve $657 -0.375 0.37 0 0 1 0 -0.25 0 0 1 #
face_name-twe-attrib $-1 $-1 $-1 $541 34 #
loop $658 $659 $660 $541 #
cone-surface $661 -0.375 0.220172123805512 0 0 1 0 -0.2 0 0 1 0.857167300702112 0.515038074910054 0 #
loop_type-twe-attrib $-1 $-1 $-1 $542 0 #
loop $662 $-1 $663 $478 #
surf-twe-attrib $-1 $-1 $-1 $543 478 #
loop_type-twe-attrib $-1 $-1 $-1 $545 0 #
point $-1 1.25 0.37 -1 #
cur-twe-attrib $-1 $-1 $-1 $548 481 #
loop_type-twe-attrib $-1 $-1 $-1 $550 0 #
loop $664 $-1 $665 $483 #
coedge $-1 $615 $615 $-1 $666 0 $550 $-1 #
surf-twe-attrib $-1 $-1 $-1 $551 483 #
loop_type-twe-attrib $-1 $-1 $-1 $553 1 #
coedge $-1 $618 $618 $665 $667 0 $553 $-1 #
edge $668 $669 $669 $554 $670 0 #
loop_type-twe-attrib $-1 $-1 $-1 $560 1 #
coedge $-1 $621 $621 $564 $623 1 $560 $-1 #
edge $671 $672 $672 $561 $-1 0 #
edge $673 $674 $674 $621 $675 0 #
edge_name-twe-attrib $-1 $-1 $-1 $566 35 8704 #
vertex $-1 $566 $676 #
ellipse-curve $677 -1 0.37 1 0 -1 0 -0.2 0 0 1 #
surf-twe-attrib $-1 $678 $568 $503 404 #
edge_name-twe-attrib $-1 $-1 $-1 $571 31 128 #
vertex $-1 $571 $679 #
edge_name-twe-attrib $-1 $-1 $-1 $572 32 4352 #
vertex $-1 $572 $680 #
ellipse-curve $681 0 0.220172123805512 1 0 1 0 -0.2 0 0 1 #
point $-1 -0.2 0.37 1 #
cur-twe-attrib $-1 $-1 $-1 $575 511 #
surf-twe-attrib $-1 $682 $576 $450 460 #
point $-1 0 0.1 -1 #
point $-1 0.2 0.220172123805512 -1 #
cur-twe-attrib $-1 $-1 $-1 $581 517 #
surf-twe-attrib $-1 $683 $585 $521 404 #
edge_name-twe-attrib $-1 $-1 $-1 $588 45 8704 #
vertex $-1 $588 $684 #
ellipse-curve $685 -0.375 0.37 0 0 -1 0 -0.2 0 0 1 #
surf-twe-attrib $-1 $686 $589 $463 460 #
loop_type-twe-attrib $-1 $-1 $-1 $591 0 #
loop $687 $-1 $688 $527 #
coedge $-1 $646 $646 $-1 $689 0 $591 $-1 #
surf-twe-attrib $-1 $-1 $-1 $592 527 #
loop_type-twe-attrib $-1 $-1 $-1 $594 1 #
coedge $-1 $649 $649 $688 $690 0 $594 $-1 #
edge_name-twe-attrib $-1 $-1 $-1 $596 48 4608 #
vertex $-1 $596 $691 #
ellipse-curve $692 1 0.37 -0.1875 0 1 0 -0.25 0 0 1 #
point $-1 0.8 0.37 -0.1875 #
cur-twe-attrib $-1 $-1 $-1 $599 534 #
surf-twe-attrib $-1 $693 $600 $408 439 #
point $-1 -0.125 0.37 3.06161646971843e-17 #
cur-twe-attrib $-1 $-1 $-1 $603 539 #
loop_type-twe-attrib $-1 $-1 $-1 $605 0 #
loop $694 $-1 $695 $541 #
coedge $-1 $660 $660 $-1 $696 0 $605 $-1 #
surf-twe-attrib $-1 $-1 $-1 $606 541 #
loop_type-twe-attrib $-1 $-1 $-1 $608 1 #
coedge $-1 $663 $663 $695 $697 0 $608 $-1 #
loop_type-twe-attrib $-1 $-1 $-1 $614 1 #
coedge $-1 $665 $665 $618 $667 1 $614 $-1 #
edge $698 $699 $699 $615 $-1 0 #
edge $700 $701 $701 $665 $702 0 #
edge_name-twe-attrib $-1 $-1 $-1 $619 40 8704 #
vertex $-1 $619 $703 #
ellipse-curve $704 1 0.37 -1 0 -1 0 -0.2 0 0 1 #
edge_name-twe-attrib $-1 $-1 $-1 $622 36 128 #
vertex $-1 $622 $705 #
edge_name-twe-attrib $-1 $-1 $-1 $623 37 4352 #
vertex $-1 $623 $706 #
ellipse-curve $707 -1 0.220172123805512 1 0 -1 0 -0.2 0 0 1 #
point $-1 -1.2 0.37 1 #
cur-twe-attrib $-1 $-1 $-1 $626 566 #
surf-twe-attrib $-1 $708 $627 $503 460 #
point $-1 0 0.1 1 #
point $-1 0.2 0.220172123805512 1 #
cur-twe-attrib $-1 $-1 $-1 $632 572 #
surf-twe-attrib $-1 $709 $635 $450 439 #
surf-twe-attrib $-1 $710 $639 $521 460 #
point $-1 -0.575 0.37 0 #
cur-twe-attrib $-1 $-1 $-1 $642 588 #
surf-twe-attrib $-1 $711 $643 $463 439 #
loop_type-twe-attrib $-1 $-1 $-1 $645 1 #
coedge $-1 $688 $688 $649 $690 1 $645 $-1 #
edge $712 $713 $713 $646 $-1 0 #
edge $714 $715 $715 $688 $716 0 #
point $-1 1.25 0.37 -0.1875 #
cur-twe-attrib $-1 $-1 $-1 $652 596 #
surf-twe-attrib $-1 $717 $655 $408 391 #
loop_type-twe-attrib $-1 $-1 $-1 $659 1 #
coedge $-1 $695 $695 $663 $697 1 $659 $-1 #
edge $718 $719 $719 $660 $-1 0 #
edge $720 $721 $721 $695 $722 0 #
edge_name-twe-attrib $-1 $-1 $-1 $666 41 128 #
vertex $-1 $666 $723 #
edge_name-twe-attrib $-1 $-1 $-1 $667 42 4352 #
vertex $-1 $667 $724 #
ellipse-curve $725 1 0.220172123805512 -1 0 -1 0 -0.2 0 0 1 #
point $-1 0.8 0.37 -1 #
cur-twe-attrib $-1 $-1 $-1 $670 619 #
point $-1 -1 0.1 1 #
point $-1 -0.8 0.220172123805512 1 #
cur-twe-attrib $-1 $-1 $-1 $675 623 #
surf-twe-attrib $-1 $726 $678 $503 439 #
surf-twe-attrib $-1 $727 $682 $450 391 #
surf-twe-attrib $-1 $728 $683 $521 439 #
surf-twe-attrib $-1 $729 $686 $463 391 #
edge_name-twe-attrib $-1 $-1 $-1 $689 51 128 #
vertex $-1 $689 $730 #
edge_name-twe-attrib $-1 $-1 $-1 $690 52 4352 #
vertex $-1 $690 $731 #
ellipse-curve $732 1 0.220172123805512 -0.1875 0 -1 0 -0.2 0 0 1 #
surf-twe-attrib $-1 $-1 $693 $408 216 #
edge_name-twe-attrib $-1 $-1 $-1 $696 46 128 #
vertex $-1 $696 $733 #
edge_name-twe-attrib $-1 $-1 $-1 $697 47 4352 #
vertex $-1 $697 $734 #
ellipse-curve $735 -0.375 0.220172123805512 0 0 -1 0 -0.2 0 0 1 #
point $-1 1 0.1 -1 #
point $-1 1.2 0.220172123805512 -1 #
cur-twe-attrib $-1 $-1 $-1 $702 667 #
surf-twe-attrib $-1 $736 $708 $503 391 #
surf-twe-attrib $-1 $-1 $709 $450 216 #
surf-twe-attrib $-1 $737 $710 $521 391 #
surf-twe-attrib $-1 $-1 $711 $463 216 #
point $-1 1 0.1 -0.1875 #
point $-1 1.2 0.220172123805512 -0.1875 #
cur-twe-attrib $-1 $-1 $-1 $716 690 #
point $-1 -0.375 0.1 0 #
point $-1 -0.175 0.220172123805512 -2.44929317577474e-17 #
cur-twe-attrib $-1 $-1 $-1 $722 697 #
surf-twe-attrib $-1 $-1 $726 $503 216 #
surf-twe-attrib $-1 $-1 $728 $521 216 #
