600 0 1 0           
107 GICL ACIS Healer - Source: /gicl/data5/repository/ICEM-CDC/Fixture_Models/RiserBlock1/RiserBlock1.sat - 6 0 18 ACIS 6.0.3 Solaris 24 Sat Apr 13 23:06:30 2002 
1 9.999999999999999547e-07 1.000000000000000036e-10 
body $-1 $1 $-1 $2 #
lump $-1 $-1 $3 $0 #
transform $-1 1 0 0 0 1 0 0 0 1 0 0 0 1 no_rotate no_reflect no_shear #
shell $-1 $-1 $-1 $4 $-1 $1 #
face $5 $6 $7 $3 $-1 $8 reversed single #
face_name-twe-attrib $-1 $-1 $-1 $4 1 #
face $9 $10 $11 $3 $-1 $12 forward single #
loop $13 $14 $15 $4 #
plane-surface $16 0 0 0 0 1 0 0 0 1 forward_v I I I I #
face_name-twe-attrib $-1 $-1 $-1 $6 2 #
face $17 $18 $19 $3 $-1 $20 forward single #
loop $21 $22 $23 $6 #
plane-surface $24 0 1 0 0 1 0 0 0 1 forward_v I I I I #
loop_type-twe-attrib $-1 $-1 $-1 $7 0 #
loop $25 $26 $27 $4 #
coedge $-1 $28 $29 $30 $31 forward $7 $-1 #
surf-twe-attrib $-1 $-1 $-1 $8 4 #
face_name-twe-attrib $-1 $-1 $-1 $10 3 #
face $32 $33 $34 $3 $-1 $35 forward single #
loop $36 $-1 $30 $10 #
plane-surface $37 1.6875 0 1.6875 1 0 0 0 0 -1 forward_v I I I I #
loop_type-twe-attrib $-1 $-1 $-1 $11 0 #
loop $38 $39 $40 $6 #
coedge $-1 $41 $42 $43 $44 reversed $11 $-1 #
surf-twe-attrib $-1 $-1 $-1 $12 6 #
loop_type-twe-attrib $-1 $-1 $-1 $14 1 #
loop $45 $-1 $46 $4 #
coedge $-1 $27 $27 $47 $48 forward $14 $-1 #
coedge $-1 $49 $15 $50 $51 forward $7 $-1 #
coedge $-1 $15 $49 $52 $53 forward $7 $-1 #
coedge $-1 $54 $55 $15 $31 reversed $19 $-1 #
edge $56 $57 -3.375 $58 0 $30 $59 forward 7 unknown #
face_name-twe-attrib $-1 $-1 $-1 $18 4 #
face $60 $61 $62 $3 $-1 $63 forward single #
loop $64 $-1 $52 $18 #
plane-surface $65 1.6875 0 -1.6875 0 0 -1 -1 0 0 forward_v I I I I #
loop_type-twe-attrib $-1 $-1 $-1 $19 0 #
surf-twe-attrib $-1 $-1 $-1 $20 10 #
loop_type-twe-attrib $-1 $-1 $-1 $22 1 #
loop $66 $67 $68 $6 #
coedge $-1 $40 $40 $69 $70 reversed $22 $-1 #
coedge $-1 $71 $23 $72 $73 reversed $11 $-1 #
coedge $-1 $23 $71 $74 $75 reversed $11 $-1 #
coedge $-1 $55 $54 $23 $44 forward $19 $-1 #
edge $76 $77 -3.375 $78 0 $43 $79 forward 7 unknown #
loop_type-twe-attrib $-1 $-1 $-1 $26 1 #
coedge $-1 $46 $46 $80 $81 forward $26 $-1 #
coedge $-1 $47 $47 $27 $48 reversed $82 $-1 #
edge $83 $84 -3.141592653589793116 $84 3.141592653589793116 $47 $85 forward 7 unknown #
coedge $-1 $29 $28 $86 $87 forward $7 $-1 #
coedge $-1 $88 $89 $28 $51 reversed $90 $-1 #
edge $91 $58 -3.375 $92 0 $50 $93 forward 7 unknown #
coedge $-1 $94 $95 $29 $53 reversed $34 $-1 #
edge $96 $97 -3.375 $57 0 $52 $98 forward 7 unknown #
coedge $-1 $43 $30 $95 $99 reversed $19 $-1 #
coedge $-1 $30 $43 $88 $100 forward $19 $-1 #
edge_name-twe-attrib $-1 $-1 $-1 $31 1 8704 #
vertex $-1 $99 $101 #
vertex $-1 $100 $102 #
straight-curve $103 1.6875 0 1.6875 0 0 1 I I #
face_name-twe-attrib $-1 $-1 $-1 $33 5 #
face $104 $105 $90 $3 $-1 $106 forward single #
loop $107 $-1 $86 $33 #
plane-surface $108 -1.6875 0 -1.6875 -1 0 0 0 0 1 forward_v I I I I #
loop_type-twe-attrib $-1 $-1 $-1 $34 0 #
surf-twe-attrib $-1 $-1 $-1 $35 18 #
loop_type-twe-attrib $-1 $-1 $-1 $39 1 #
loop $109 $110 $111 $6 #
coedge $-1 $68 $68 $112 $113 reversed $39 $-1 #
coedge $-1 $69 $69 $40 $70 forward $114 $-1 #
edge $115 $116 0 $116 6.283185307179586232 $69 $117 forward 7 unknown #
coedge $-1 $42 $41 $118 $119 reversed $11 $-1 #
coedge $-1 $95 $94 $41 $73 forward $34 $-1 #
edge $120 $121 -3.375 $77 0 $72 $122 forward 7 unknown #
coedge $-1 $89 $88 $42 $75 forward $90 $-1 #
edge $123 $78 -3.375 $124 0 $74 $125 forward 7 unknown #
edge_name-twe-attrib $-1 $-1 $-1 $44 2 8704 #
vertex $-1 $99 $126 #
vertex $-1 $100 $127 #
straight-curve $128 1.6875 1 1.6875 0 0 1 I I #
coedge $-1 $80 $80 $46 $81 reversed $129 $-1 #
edge $130 $131 -3.141592653589793116 $131 3.141592653589793116 $80 $132 forward 7 unknown #
loop $133 $-1 $47 $134 #
edge_name-twe-attrib $-1 $-1 $-1 $48 17 8704 #
vertex $-1 $48 $135 #
ellipse-curve $136 1 0 1 2.000000000000000155e-15 1 0 0.2655000000000000138 -5.309999999999999509e-16 0 1 I I #
coedge $-1 $137 $138 $49 $87 reversed $62 $-1 #
edge $139 $92 -3.375 $97 0 $86 $140 forward 7 unknown #
coedge $-1 $74 $50 $55 $100 reversed $90 $-1 #
coedge $-1 $50 $74 $137 $141 forward $90 $-1 #
loop $142 $-1 $50 $61 #
edge_name-twe-attrib $-1 $-1 $-1 $51 9 8704 #
vertex $-1 $141 $143 #
straight-curve $144 -1.6875 0 1.6875 -1 0 0 I I #
coedge $-1 $72 $52 $138 $145 reversed $34 $-1 #
coedge $-1 $52 $72 $54 $99 forward $34 $-1 #
edge_name-twe-attrib $-1 $-1 $-1 $53 3 8704 #
vertex $-1 $145 $146 #
straight-curve $147 1.6875 0 -1.6875 1 0 0 I I #
edge $148 $77 -1 $57 0 $95 $149 forward 7 unknown #
edge $150 $78 -1 $58 0 $88 $151 forward 7 unknown #
point $-1 1.6875 0 -1.6875 #
point $-1 1.6875 0 1.6875 #
cur-twe-attrib $-1 $-1 $-1 $59 31 #
face_name-twe-attrib $-1 $-1 $-1 $61 6 #
face $152 $153 $154 $3 $-1 $155 reversed single #
plane-surface $156 -1.6875 0 1.6875 0 0 1 1 0 0 forward_v I I I I #
loop_type-twe-attrib $-1 $-1 $-1 $62 0 #
surf-twe-attrib $-1 $-1 $-1 $63 33 #
loop_type-twe-attrib $-1 $-1 $-1 $67 1 #
loop $157 $158 $159 $6 #
coedge $-1 $111 $111 $160 $161 reversed $67 $-1 #
coedge $-1 $112 $112 $68 $113 forward $162 $-1 #
edge $163 $164 0 $164 6.283185307179586232 $112 $165 forward 7 unknown #
loop $166 $167 $69 $153 #
edge_name-twe-attrib $-1 $-1 $-1 $70 14 8704 #
vertex $-1 $70 $168 #
ellipse-curve $169 1 1 1 0 1 0 -0.40625 0 0 1 I I #
coedge $-1 $138 $137 $71 $119 forward $62 $-1 #
edge $170 $124 -3.375 $121 0 $118 $171 forward 7 unknown #
edge_name-twe-attrib $-1 $-1 $-1 $73 4 8704 #
vertex $-1 $145 $172 #
straight-curve $173 1.6875 1 -1.6875 1 0 0 I I #
edge_name-twe-attrib $-1 $-1 $-1 $75 11 8704 #
vertex $-1 $141 $174 #
straight-curve $175 -1.6875 1 1.6875 -1 0 0 I I #
point $-1 1.6875 1 -1.6875 #
point $-1 1.6875 1 1.6875 #
cur-twe-attrib $-1 $-1 $-1 $79 44 #
loop $176 $-1 $80 $177 #
edge_name-twe-attrib $-1 $-1 $-1 $81 22 8704 #
vertex $-1 $81 $178 #
ellipse-curve $179 -1 0 -1 2.000000000000000155e-15 1 0 0.2655000000000000138 -5.309999999999999509e-16 0 1 I I #
loop_type-twe-attrib $-1 $-1 $-1 $82 1 #
face $180 $181 $182 $3 $-1 $183 reversed single #
point $-1 0.7345000000000000417 -5.309999999999999509e-16 1 #
cur-twe-attrib $-1 $-1 $-1 $85 48 #
coedge $-1 $118 $86 $89 $141 reversed $62 $-1 #
coedge $-1 $86 $118 $94 $145 forward $62 $-1 #
edge_name-twe-attrib $-1 $-1 $-1 $87 6 8704 #
straight-curve $184 -1.6875 0 -1.6875 0 0 -1 I I #
edge $185 $124 -1 $92 0 $89 $186 forward 7 unknown #
loop_type-twe-attrib $-1 $-1 $-1 $90 0 #
point $-1 -1.6875 0 1.6875 #
cur-twe-attrib $-1 $-1 $-1 $93 51 #
edge $187 $121 -1 $97 0 $138 $188 forward 7 unknown #
point $-1 -1.6875 0 -1.6875 #
cur-twe-attrib $-1 $-1 $-1 $98 53 #
edge_name-twe-attrib $-1 $-1 $-1 $99 5 8704 #
straight-curve $189 1.6875 0 -1.6875 0 -1 0 I I #
edge_name-twe-attrib $-1 $-1 $-1 $100 10 8704 #
straight-curve $190 1.6875 0 1.6875 0 -1 0 I I #
face_name-twe-attrib $-1 $-1 $-1 $105 7 #
face $191 $192 $114 $3 $-1 $193 reversed single #
loop $194 $195 $196 $105 #
plane-surface $197 1 0.6879999999999999449 1 0 -1 0 0 0 -1 forward_v I I I I #
surf-twe-attrib $-1 $-1 $-1 $106 61 #
loop_type-twe-attrib $-1 $-1 $-1 $110 1 #
loop $198 $199 $200 $6 #
coedge $-1 $159 $159 $201 $202 forward $110 $-1 #
coedge $-1 $160 $160 $111 $161 forward $203 $-1 #
edge $204 $205 0 $205 6.283185307179586232 $160 $206 forward 7 unknown #
loop $207 $208 $112 $209 #
edge_name-twe-attrib $-1 $-1 $-1 $113 19 8704 #
vertex $-1 $113 $210 #
ellipse-curve $211 -1 1 -1 0 1 0 -0.40625 0 0 1 I I #
loop_type-twe-attrib $-1 $-1 $-1 $114 0 #
loop $212 $-1 $213 $153 #
point $-1 0.59375 1 1 #
cur-twe-attrib $-1 $-1 $-1 $117 70 #
edge_name-twe-attrib $-1 $-1 $-1 $119 7 8704 #
straight-curve $214 -1.6875 1 -1.6875 0 0 -1 I I #
point $-1 -1.6875 1 -1.6875 #
cur-twe-attrib $-1 $-1 $-1 $122 73 #
point $-1 -1.6875 1 1.6875 #
cur-twe-attrib $-1 $-1 $-1 $125 75 #
loop_type-twe-attrib $-1 $-1 $-1 $129 1 #
face $215 $216 $217 $3 $-1 $218 reversed single #
point $-1 -1.265500000000000069 -5.309999999999999509e-16 -1 #
cur-twe-attrib $-1 $-1 $-1 $132 81 #
face_name-twe-attrib $-1 $-1 $-1 $134 10 #
face $219 $209 $220 $3 $-1 $221 reversed single #
loop $222 $82 $223 $134 #
cone-surface $224 1 1.105599999999999916 1 0 -1 0 -0.2655000000000000138 0 0 1 I I 0 1 0.2655000000000000138 forward I I I I #
cur-twe-attrib $-1 $-1 $-1 $140 87 #
edge_name-twe-attrib $-1 $-1 $-1 $141 12 8704 #
straight-curve $225 -1.6875 0 1.6875 0 -1 0 I I #
edge_name-twe-attrib $-1 $-1 $-1 $145 8 8704 #
straight-curve $226 -1.6875 0 -1.6875 0 -1 0 I I #
cur-twe-attrib $-1 $-1 $-1 $149 99 #
cur-twe-attrib $-1 $-1 $-1 $151 100 #
face_name-twe-attrib $-1 $-1 $-1 $153 8 #
face $227 $134 $228 $3 $-1 $229 reversed single #
cone-surface $230 1 1.105599999999999916 1 0 -1 0 -0.40625 0 0 1 I I 0 1 0.40625 forward I I I I #
loop_type-twe-attrib $-1 $-1 $-1 $154 1 #
loop $231 $-1 $232 $105 #
coedge $-1 $196 $196 $233 $234 forward $154 $-1 #
surf-twe-attrib $-1 $235 $-1 $155 181 #
loop_type-twe-attrib $-1 $-1 $-1 $158 1 #
loop $236 $237 $238 $6 #
coedge $-1 $200 $200 $239 $240 reversed $158 $-1 #
coedge $-1 $201 $201 $159 $202 reversed $241 $-1 #
edge $242 $243 -3.141592653589793116 $243 3.141592653589793116 $201 $244 forward 7 unknown #
loop $245 $246 $160 $247 #
edge_name-twe-attrib $-1 $-1 $-1 $161 24 8704 #
vertex $-1 $161 $248 #
ellipse-curve $249 0 1 -1 0 1 0 -0.25 0 0 1 I I #
loop_type-twe-attrib $-1 $-1 $-1 $162 0 #
loop $250 $-1 $251 $209 #
face $252 $253 $162 $3 $-1 $254 reversed single #
point $-1 -1.40625 1 -1 #
cur-twe-attrib $-1 $-1 $-1 $165 113 #
loop_type-twe-attrib $-1 $-1 $-1 $167 1 #
coedge $-1 $213 $213 $232 $255 reversed $167 $-1 #
cur-twe-attrib $-1 $-1 $-1 $171 119 #
face_name-twe-attrib $-1 $-1 $-1 $177 14 #
face $256 $247 $257 $3 $-1 $258 reversed single #
loop $259 $129 $260 $177 #
cone-surface $261 -1 1.105599999999999916 -1 0 -1 0 -0.2655000000000000138 0 0 1 I I 0 1 0.2655000000000000138 forward I I I I #
face_name-twe-attrib $-1 $-1 $-1 $181 11 #
loop $262 $263 $264 $181 #
plane-surface $265 -1 0.6879999999999999449 -1 0 -1 0 0 0 -1 forward_v I I I I #
loop_type-twe-attrib $-1 $-1 $-1 $182 0 #
coedge $-1 $223 $223 $266 $267 reversed $182 $-1 #
surf-twe-attrib $-1 $-1 $-1 $183 134 #
cur-twe-attrib $-1 $-1 $-1 $186 141 #
cur-twe-attrib $-1 $-1 $-1 $188 145 #
face_name-twe-attrib $-1 $-1 $-1 $192 9 #
loop $268 $269 $233 $192 #
cone-surface $270 1 0.6879999999999999449 1 0 1 0 -0.2760000000000000231 0 0 1 I I 0.5 0.8660254037844390407 0.2760000000000000231 forward I I I I #
surf-twe-attrib $-1 $-1 $-1 $193 153 #
loop_type-twe-attrib $-1 $-1 $-1 $195 0 #
coedge $-1 $232 $232 $213 $255 forward $195 $-1 #
coedge $-1 $233 $233 $196 $234 reversed $228 $-1 #
edge $271 $272 0 $272 6.283185307179586232 $233 $273 forward 7 unknown #
surf-twe-attrib $-1 $-1 $197 $155 105 #
loop_type-twe-attrib $-1 $-1 $-1 $199 1 #
loop $274 $275 $276 $6 #
coedge $-1 $238 $238 $277 $278 reversed $199 $-1 #
coedge $-1 $239 $239 $200 $240 forward $279 $-1 #
edge $280 $281 0 $281 6.283185307179586232 $239 $282 forward 7 unknown #
loop $283 $284 $201 $285 #
edge_name-twe-attrib $-1 $-1 $-1 $202 29 8704 #
vertex $-1 $202 $286 #
ellipse-curve $287 0 1 1 0 -1 0 0.25 0 0 1 I I #
loop_type-twe-attrib $-1 $-1 $-1 $203 0 #
loop $288 $-1 $289 $247 #
face $290 $291 $203 $3 $-1 $292 reversed single #
point $-1 -0.25 1 -1 #
cur-twe-attrib $-1 $-1 $-1 $206 161 #
loop_type-twe-attrib $-1 $-1 $-1 $208 1 #
coedge $-1 $251 $251 $293 $294 reversed $208 $-1 #
face_name-twe-attrib $-1 $-1 $-1 $209 12 #
face $295 $177 $296 $3 $-1 $297 reversed single #
cone-surface $298 -1 1.105599999999999916 -1 0 -1 0 -0.40625 0 0 1 I I 0 1 0.40625 forward I I I I #
edge $299 $300 -3.141592653589793116 $300 3.141592653589793116 $232 $301 forward 7 unknown #
face_name-twe-attrib $-1 $-1 $-1 $216 15 #
loop $302 $303 $304 $216 #
plane-surface $305 0 0.3699999999999999956 -1 0 -1 0 0 0 -1 forward_v I I I I #
loop_type-twe-attrib $-1 $-1 $-1 $217 0 #
coedge $-1 $260 $260 $306 $307 reversed $217 $-1 #
surf-twe-attrib $-1 $-1 $-1 $218 177 #
loop_type-twe-attrib $-1 $-1 $-1 $220 1 #
loop $308 $-1 $293 $181 #
coedge $-1 $264 $264 $309 $310 forward $220 $-1 #
surf-twe-attrib $-1 $311 $-1 $221 181 #
coedge $-1 $266 $266 $223 $267 forward $269 $-1 #
edge $312 $313 -3.141592653589793116 $313 3.141592653589793116 $223 $314 forward 7 unknown #
loop_type-twe-attrib $-1 $-1 $-1 $228 0 #
loop $315 $-1 $266 $192 #
surf-twe-attrib $-1 $-1 $-1 $229 192 #
edge_name-twe-attrib $-1 $-1 $-1 $234 15 8448 #
vertex $-1 $234 $316 #
ellipse-curve $317 1 0.6879999999999999449 1 0 -1 0 -0.2760000000000000231 0 0 1 I I #
loop_type-twe-attrib $-1 $-1 $-1 $237 1 #
loop $318 $-1 $319 $6 #
coedge $-1 $276 $276 $320 $321 reversed $237 $-1 #
coedge $-1 $277 $277 $238 $278 forward $322 $-1 #
edge $323 $324 0 $324 6.283185307179586232 $277 $325 forward 7 unknown #
loop $326 $327 $239 $328 #
edge_name-twe-attrib $-1 $-1 $-1 $240 34 8704 #
vertex $-1 $240 $329 #
ellipse-curve $330 -1 1 1 0 1 0 -0.25 0 0 1 I I #
loop_type-twe-attrib $-1 $-1 $-1 $241 0 #
loop $331 $-1 $332 $285 #
face $333 $334 $241 $3 $-1 $335 reversed single #
point $-1 -0.25 1 1 #
cur-twe-attrib $-1 $-1 $-1 $244 202 #
loop_type-twe-attrib $-1 $-1 $-1 $246 1 #
coedge $-1 $289 $289 $336 $337 reversed $246 $-1 #
face_name-twe-attrib $-1 $-1 $-1 $247 16 #
face $338 $339 $340 $3 $-1 $341 reversed single #
cone-surface $342 0 1.044999999999999929 -1 0 -1 0 -0.25 0 0 1 I I 0 1 0.25 forward I I I I #
coedge $-1 $293 $293 $251 $294 forward $263 $-1 #
edge $343 $344 -3.141592653589793116 $344 3.141592653589793116 $293 $345 forward 7 unknown #
face_name-twe-attrib $-1 $-1 $-1 $253 13 #
loop $346 $347 $309 $253 #
cone-surface $348 -1 0.6879999999999999449 -1 0 1 0 -0.2760000000000000231 0 0 1 I I 0.5 0.8660254037844390407 0.2760000000000000231 forward I I I I #
surf-twe-attrib $-1 $-1 $-1 $254 209 #
edge_name-twe-attrib $-1 $-1 $-1 $255 13 4608 #
vertex $-1 $255 $349 #
ellipse-curve $350 1 0.6879999999999999449 1 0 1 0 -0.40625 0 0 1 I I #
loop_type-twe-attrib $-1 $-1 $-1 $257 1 #
loop $351 $-1 $336 $216 #
coedge $-1 $304 $304 $352 $353 forward $257 $-1 #
surf-twe-attrib $-1 $354 $-1 $258 355 #
coedge $-1 $306 $306 $260 $307 forward $347 $-1 #
edge $355 $356 -3.141592653589793116 $356 3.141592653589793116 $260 $357 forward 7 unknown #
loop_type-twe-attrib $-1 $-1 $-1 $263 0 #
coedge $-1 $309 $309 $264 $310 reversed $296 $-1 #
edge $358 $359 0 $359 6.283185307179586232 $309 $360 forward 7 unknown #
surf-twe-attrib $-1 $-1 $265 $221 105 #
edge_name-twe-attrib $-1 $-1 $-1 $267 16 8448 #
vertex $-1 $267 $361 #
ellipse-curve $362 1 0.6698134665205269789 1 0 -1 0 -0.2655000000000000138 0 0 1 I I #
loop_type-twe-attrib $-1 $-1 $-1 $269 1 #
point $-1 0.7239999999999999769 0.6879999999999999449 1 #
cur-twe-attrib $-1 $-1 $-1 $273 234 #
loop_type-twe-attrib $-1 $-1 $-1 $275 1 #
coedge $-1 $319 $319 $363 $364 reversed $275 $-1 #
coedge $-1 $320 $320 $276 $321 forward $365 $-1 #
edge $366 $367 0 $367 6.283185307179586232 $320 $368 forward 7 unknown #
loop $369 $370 $277 $371 #
edge_name-twe-attrib $-1 $-1 $-1 $278 39 8704 #
vertex $-1 $278 $372 #
ellipse-curve $373 1 1 -1 0 1 0 -0.25 0 0 1 I I #
loop_type-twe-attrib $-1 $-1 $-1 $279 0 #
loop $374 $-1 $375 $328 #
face $376 $377 $279 $3 $-1 $378 reversed single #
point $-1 -1.25 1 1 #
cur-twe-attrib $-1 $-1 $-1 $282 240 #
loop_type-twe-attrib $-1 $-1 $-1 $284 1 #
coedge $-1 $332 $332 $379 $380 forward $284 $-1 #
face_name-twe-attrib $-1 $-1 $-1 $285 20 #
face $381 $382 $383 $3 $-1 $384 reversed single #
cone-surface $385 0 1.044999999999999929 1 0 1 0 -0.25 0 0 1 I I 0 1 0.25 forward I I I I #
coedge $-1 $336 $336 $289 $337 forward $303 $-1 #
edge $386 $387 -3.141592653589793116 $387 3.141592653589793116 $336 $388 forward 7 unknown #
face_name-twe-attrib $-1 $-1 $-1 $291 17 #
face $389 $390 $391 $3 $-1 $392 reversed single #
loop $393 $394 $352 $291 #
cone-surface $395 0 1.044999999999999929 -1 0 -1 0 -0.2000000000000000111 0 0 1 I I 0 1 0.2000000000000000111 forward I I I I #
surf-twe-attrib $-1 $-1 $-1 $292 247 #
edge_name-twe-attrib $-1 $-1 $-1 $294 18 4608 #
vertex $-1 $294 $396 #
ellipse-curve $397 -1 0.6879999999999999449 -1 0 1 0 -0.40625 0 0 1 I I #
loop_type-twe-attrib $-1 $-1 $-1 $296 0 #
loop $398 $-1 $306 $253 #
surf-twe-attrib $-1 $-1 $-1 $297 253 #
point $-1 1.40625 0.6879999999999999449 1 #
cur-twe-attrib $-1 $-1 $-1 $301 255 #
loop_type-twe-attrib $-1 $-1 $-1 $303 0 #
coedge $-1 $352 $352 $304 $353 reversed $340 $-1 #
edge $399 $400 0 $400 6.283185307179586232 $352 $401 forward 7 unknown #
surf-twe-attrib $-1 $402 $305 $258 404 #
edge_name-twe-attrib $-1 $-1 $-1 $307 21 8448 #
vertex $-1 $307 $403 #
ellipse-curve $404 -1 0.6698134665205269789 -1 0 -1 0 -0.2655000000000000138 0 0 1 I I #
edge_name-twe-attrib $-1 $-1 $-1 $310 20 8448 #
vertex $-1 $310 $405 #
ellipse-curve $406 -1 0.6879999999999999449 -1 0 -1 0 -0.2760000000000000231 0 0 1 I I #
point $-1 1.265500000000000069 0.6698134665205269789 1 #
cur-twe-attrib $-1 $-1 $-1 $314 267 #
coedge $-1 $363 $363 $319 $364 forward $407 $-1 #
edge $408 $409 0 $409 6.283185307179586232 $363 $410 forward 7 unknown #
loop $411 $412 $320 $413 #
edge_name-twe-attrib $-1 $-1 $-1 $321 44 8704 #
vertex $-1 $321 $414 #
ellipse-curve $415 -0.375 1 0 0 1 0 -0.25 0 0 1 I I #
loop_type-twe-attrib $-1 $-1 $-1 $322 0 #
loop $416 $-1 $417 $371 #
face $418 $419 $322 $3 $-1 $420 reversed single #
point $-1 0.75 1 -1 #
cur-twe-attrib $-1 $-1 $-1 $325 278 #
loop_type-twe-attrib $-1 $-1 $-1 $327 1 #
coedge $-1 $375 $375 $421 $422 reversed $327 $-1 #
face_name-twe-attrib $-1 $-1 $-1 $328 24 #
face $423 $424 $425 $3 $-1 $426 reversed single #
cone-surface $427 -1 1.044999999999999929 1 0 -1 0 -0.25 0 0 1 I I 0 1 0.25 forward I I I I #
coedge $-1 $379 $379 $332 $380 reversed $428 $-1 #
edge $429 $430 0 $430 6.283185307179586232 $379 $431 forward 7 unknown #
face_name-twe-attrib $-1 $-1 $-1 $334 21 #
face $432 $433 $434 $3 $-1 $435 reversed single #
loop $436 $437 $438 $334 #
cone-surface $439 0 1.044999999999999929 1 0 1 0 -0.2000000000000000111 0 0 1 I I 0 1 0.2000000000000000111 forward I I I I #
surf-twe-attrib $-1 $-1 $-1 $335 285 #
edge_name-twe-attrib $-1 $-1 $-1 $337 23 4608 #
vertex $-1 $337 $440 #
ellipse-curve $441 0 0.3699999999999999956 -1 0 1 0 -0.25 0 0 1 I I #
face_name-twe-attrib $-1 $-1 $-1 $339 18 #
face $442 $285 $443 $3 $-1 $444 forward single #
loop $445 $446 $447 $339 #
cone-surface $448 0 0.2201721238055119878 -1 0 1 0 -0.2000000000000000111 0 0 1 I I 0.8571673007021120005 0.5150380749100540445 0.2000000000000000111 forward I I I I #
loop_type-twe-attrib $-1 $-1 $-1 $340 0 #
loop $449 $-1 $450 $291 #
surf-twe-attrib $-1 $-1 $-1 $341 291 #
point $-1 -0.59375 0.6879999999999999449 -1 #
cur-twe-attrib $-1 $-1 $-1 $345 294 #
loop_type-twe-attrib $-1 $-1 $-1 $347 1 #
edge_name-twe-attrib $-1 $-1 $-1 $353 25 8704 #
vertex $-1 $353 $451 #
ellipse-curve $452 0 0.3699999999999999956 -1 0 -1 0 -0.2000000000000000111 0 0 1 I I #
surf-twe-attrib $-1 $453 $354 $258 460 #
point $-1 -0.7345000000000000417 0.6698134665205269789 -1 #
cur-twe-attrib $-1 $-1 $-1 $357 307 #
point $-1 -1.276000000000000023 0.6879999999999999449 -1 #
cur-twe-attrib $-1 $-1 $-1 $360 310 #
loop $454 $455 $363 $456 #
edge_name-twe-attrib $-1 $-1 $-1 $364 49 8704 #
vertex $-1 $364 $457 #
ellipse-curve $458 1 1 -0.1875 0 1 0 -0.25 0 0 1 I I #
loop_type-twe-attrib $-1 $-1 $-1 $365 0 #
loop $459 $-1 $460 $413 #
face $461 $462 $365 $3 $-1 $463 reversed single #
point $-1 -0.625 1 0 #
cur-twe-attrib $-1 $-1 $-1 $368 321 #
loop_type-twe-attrib $-1 $-1 $-1 $370 1 #
coedge $-1 $417 $417 $464 $465 reversed $370 $-1 #
face_name-twe-attrib $-1 $-1 $-1 $371 28 #
face $466 $467 $468 $3 $-1 $469 reversed single #
cone-surface $470 1 1.044999999999999929 -1 0 -1 0 -0.25 0 0 1 I I 0 1 0.25 forward I I I I #
coedge $-1 $421 $421 $375 $422 forward $471 $-1 #
edge $472 $473 -3.141592653589793116 $473 3.141592653589793116 $421 $474 forward 7 unknown #
face_name-twe-attrib $-1 $-1 $-1 $377 25 #
face $475 $476 $477 $3 $-1 $478 reversed single #
loop $479 $480 $481 $377 #
cone-surface $482 -1 1.044999999999999929 1 0 -1 0 -0.2000000000000000111 0 0 1 I I 0 1 0.2000000000000000111 forward I I I I #
surf-twe-attrib $-1 $-1 $-1 $378 328 #
loop $483 $-1 $379 $390 #
edge_name-twe-attrib $-1 $-1 $-1 $380 28 4608 #
vertex $-1 $380 $484 #
ellipse-curve $485 0 0.3699999999999999956 1 0 -1 0 -0.25 0 0 1 I I #
face_name-twe-attrib $-1 $-1 $-1 $382 22 #
face $486 $328 $487 $3 $-1 $488 reversed single #
loop $489 $490 $491 $382 #
cone-surface $492 0 0.2201721238055119878 1 0 1 0 -0.2000000000000000111 0 0 1 I I 0.8571673007021120005 0.5150380749100550437 0.2000000000000000111 forward I I I I #
loop_type-twe-attrib $-1 $-1 $-1 $383 0 #
loop $493 $-1 $494 $334 #
coedge $-1 $438 $438 $495 $496 forward $383 $-1 #
surf-twe-attrib $-1 $-1 $-1 $384 334 #
point $-1 0.25 0.3699999999999999956 -1 #
cur-twe-attrib $-1 $-1 $-1 $388 337 #
face_name-twe-attrib $-1 $-1 $-1 $390 19 #
loop $497 $428 $495 $390 #
plane-surface $498 0 0.3699999999999999956 1 0 1 0 0 0 1 forward_v I I I I #
loop_type-twe-attrib $-1 $-1 $-1 $391 0 #
loop $499 $-1 $500 $339 #
coedge $-1 $447 $447 $-1 $501 forward $391 $-1 #
surf-twe-attrib $-1 $-1 $-1 $392 339 #
loop_type-twe-attrib $-1 $-1 $-1 $394 1 #
coedge $-1 $450 $450 $500 $502 forward $394 $-1 #
point $-1 -0.2000000000000000111 0.3699999999999999956 -1 #
cur-twe-attrib $-1 $-1 $-1 $401 353 #
surf-twe-attrib $-1 $503 $402 $258 439 #
loop_type-twe-attrib $-1 $-1 $-1 $407 0 #
loop $504 $-1 $505 $456 #
face $506 $507 $407 $3 $-1 $508 reversed single #
point $-1 0.75 1 -0.1875 #
cur-twe-attrib $-1 $-1 $-1 $410 365 #
loop_type-twe-attrib $-1 $-1 $-1 $412 1 #
coedge $-1 $460 $460 $509 $510 reversed $412 $-1 #
face_name-twe-attrib $-1 $-1 $-1 $413 32 #
face $511 $512 $513 $3 $-1 $514 reversed single #
cone-surface $515 -0.375 1.044999999999999929 0 0 -1 0 -0.25 0 0 1 I I 0 1 0.25 forward I I I I #
coedge $-1 $464 $464 $417 $465 forward $516 $-1 #
edge $517 $518 -3.141592653589793116 $518 3.141592653589793116 $464 $519 forward 7 unknown #
face_name-twe-attrib $-1 $-1 $-1 $419 29 #
face $520 $521 $522 $3 $-1 $523 reversed single #
loop $524 $525 $526 $419 #
cone-surface $527 1 1.044999999999999929 -1 0 -1 0 -0.2000000000000000111 0 0 1 I I 0 1 0.2000000000000000111 forward I I I I #
surf-twe-attrib $-1 $-1 $-1 $420 372 #
loop $528 $-1 $421 $433 #
edge_name-twe-attrib $-1 $-1 $-1 $422 33 4608 #
vertex $-1 $422 $529 #
ellipse-curve $530 -1 0.3699999999999999956 1 0 1 0 -0.25 0 0 1 I I #
face_name-twe-attrib $-1 $-1 $-1 $424 26 #
face $531 $371 $532 $3 $-1 $533 reversed single #
loop $534 $535 $536 $424 #
cone-surface $537 -1 0.2201721238055119878 1 0 1 0 -0.2000000000000000111 0 0 1 I I 0.8571673007021120005 0.5150380749100540445 0.2000000000000000111 forward I I I I #
loop_type-twe-attrib $-1 $-1 $-1 $425 0 #
loop $538 $-1 $539 $377 #
coedge $-1 $481 $481 $540 $541 reversed $425 $-1 #
surf-twe-attrib $-1 $-1 $-1 $426 378 #
loop_type-twe-attrib $-1 $-1 $-1 $428 0 #
point $-1 -0.25 0.3699999999999999956 1 #
cur-twe-attrib $-1 $-1 $-1 $431 381 #
face_name-twe-attrib $-1 $-1 $-1 $433 23 #
loop $542 $471 $540 $433 #
plane-surface $543 -1 0.3699999999999999956 1 0 -1 0 0 0 -1 forward_v I I I I #
loop_type-twe-attrib $-1 $-1 $-1 $434 0 #
loop $544 $-1 $545 $382 #
coedge $-1 $491 $491 $-1 $546 forward $434 $-1 #
surf-twe-attrib $-1 $-1 $-1 $435 383 #
loop_type-twe-attrib $-1 $-1 $-1 $437 1 #
coedge $-1 $494 $494 $545 $547 reversed $437 $-1 #
coedge $-1 $495 $495 $438 $496 reversed $443 $-1 #
edge $548 $549 0 $549 6.283185307179586232 $438 $550 forward 7 unknown #
loop_type-twe-attrib $-1 $-1 $-1 $443 1 #
surf-twe-attrib $-1 $551 $-1 $444 355 #
loop_type-twe-attrib $-1 $-1 $-1 $446 1 #
coedge $-1 $500 $500 $450 $502 reversed $446 $-1 #
edge $552 $553 1 $553 0 $447 $-1 forward 7 unknown #
edge $554 $555 -3.141592653589793116 $555 3.141592653589793116 $500 $556 forward 7 unknown #
surf-twe-attrib $-1 $557 $453 $258 391 #
loop_type-twe-attrib $-1 $-1 $-1 $455 1 #
coedge $-1 $505 $505 $558 $559 reversed $455 $-1 #
face_name-twe-attrib $-1 $-1 $-1 $456 36 #
face $560 $561 $562 $3 $-1 $563 reversed single #
cone-surface $564 1 1.044999999999999929 -0.1875 0 -1 0 -0.25 0 0 1 I I 0 1 0.25 forward I I I I #
coedge $-1 $509 $509 $460 $510 forward $565 $-1 #
edge $566 $567 -3.141592653589793116 $567 3.141592653589793116 $509 $568 forward 7 unknown #
face_name-twe-attrib $-1 $-1 $-1 $462 33 #
face $569 $570 $571 $3 $-1 $572 reversed single #
loop $573 $574 $575 $462 #
cone-surface $576 -0.375 1.044999999999999929 0 0 -1 0 -0.2000000000000000111 0 0 1 I I 0 1 0.2000000000000000111 forward I I I I #
surf-twe-attrib $-1 $-1 $-1 $463 419 #
loop $577 $-1 $464 $476 #
edge_name-twe-attrib $-1 $-1 $-1 $465 38 4608 #
vertex $-1 $465 $578 #
ellipse-curve $579 1 0.3699999999999999956 -1 0 1 0 -0.25 0 0 1 I I #
face_name-twe-attrib $-1 $-1 $-1 $467 30 #
face $580 $413 $581 $3 $-1 $582 reversed single #
loop $583 $584 $585 $467 #
cone-surface $586 1 0.2201721238055119878 -1 0 1 0 -0.2000000000000000111 0 0 1 I I 0.8571673007021120005 0.5150380749100540445 0.2000000000000000111 forward I I I I #
loop_type-twe-attrib $-1 $-1 $-1 $468 0 #
loop $587 $-1 $588 $419 #
coedge $-1 $526 $526 $589 $590 reversed $468 $-1 #
surf-twe-attrib $-1 $-1 $-1 $469 425 #
loop_type-twe-attrib $-1 $-1 $-1 $471 0 #
point $-1 -0.75 0.3699999999999999956 1 #
cur-twe-attrib $-1 $-1 $-1 $474 428 #
face_name-twe-attrib $-1 $-1 $-1 $476 27 #
loop $591 $516 $589 $476 #
plane-surface $592 1 0.3699999999999999956 -1 0 -1 0 0 0 -1 forward_v I I I I #
loop_type-twe-attrib $-1 $-1 $-1 $477 0 #
loop $593 $-1 $594 $424 #
coedge $-1 $536 $536 $-1 $595 forward $477 $-1 #
surf-twe-attrib $-1 $-1 $-1 $478 430 #
loop_type-twe-attrib $-1 $-1 $-1 $480 1 #
coedge $-1 $539 $539 $594 $596 forward $480 $-1 #
coedge $-1 $540 $540 $481 $541 forward $487 $-1 #
edge $597 $598 0 $598 6.283185307179586232 $481 $599 forward 7 unknown #
loop_type-twe-attrib $-1 $-1 $-1 $487 1 #
surf-twe-attrib $-1 $600 $-1 $488 355 #
loop_type-twe-attrib $-1 $-1 $-1 $490 1 #
coedge $-1 $545 $545 $494 $547 forward $490 $-1 #
edge $601 $602 1 $602 0 $491 $-1 forward 7 unknown #
edge $603 $604 -3.141592653589793116 $604 3.141592653589793116 $545 $605 forward 7 unknown #
edge_name-twe-attrib $-1 $-1 $-1 $496 30 8704 #
vertex $-1 $496 $606 #
ellipse-curve $607 0 0.3699999999999999956 1 0 1 0 -0.2000000000000000111 0 0 1 I I #
surf-twe-attrib $-1 $608 $498 $444 404 #
edge_name-twe-attrib $-1 $-1 $-1 $501 26 128 #
vertex $-1 $501 $609 #
edge_name-twe-attrib $-1 $-1 $-1 $502 27 4352 #
vertex $-1 $502 $610 #
ellipse-curve $611 0 0.2201721238055119878 -1 0 -1 0 -0.2000000000000000111 0 0 1 I I #
surf-twe-attrib $-1 $-1 $503 $258 216 #
coedge $-1 $558 $558 $505 $559 forward $612 $-1 #
edge $613 $614 -3.141592653589793116 $614 3.141592653589793116 $558 $615 forward 7 unknown #
face_name-twe-attrib $-1 $-1 $-1 $507 37 #
face $616 $-1 $617 $3 $-1 $618 reversed single #
loop $619 $620 $621 $507 #
cone-surface $622 1 1.044999999999999929 -0.1875 0 -1 0 -0.2000000000000000111 0 0 1 I I 0 1 0.2000000000000000111 forward I I I I #
surf-twe-attrib $-1 $-1 $-1 $508 406 #
loop $623 $-1 $509 $521 #
edge_name-twe-attrib $-1 $-1 $-1 $510 43 4608 #
vertex $-1 $510 $624 #
ellipse-curve $625 -0.375 0.3699999999999999956 0 0 1 0 -0.25 0 0 1 I I #
face_name-twe-attrib $-1 $-1 $-1 $512 34 #
face $626 $456 $627 $3 $-1 $628 reversed single #
loop $629 $630 $631 $512 #
cone-surface $632 -0.375 0.2201721238055119878 0 0 1 0 -0.2000000000000000111 0 0 1 I I 0.8571673007021120005 0.5150380749100540445 0.2000000000000000111 forward I I I I #
loop_type-twe-attrib $-1 $-1 $-1 $513 0 #
loop $633 $-1 $634 $462 #
coedge $-1 $575 $575 $635 $636 reversed $513 $-1 #
surf-twe-attrib $-1 $-1 $-1 $514 478 #
loop_type-twe-attrib $-1 $-1 $-1 $516 0 #
point $-1 1.25 0.3699999999999999956 -1 #
cur-twe-attrib $-1 $-1 $-1 $519 481 #
face_name-twe-attrib $-1 $-1 $-1 $521 31 #
loop $637 $565 $635 $521 #
plane-surface $638 -0.375 0.3699999999999999956 0 0 -1 0 0 0 -1 forward_v I I I I #
loop_type-twe-attrib $-1 $-1 $-1 $522 0 #
loop $639 $-1 $640 $467 #
coedge $-1 $585 $585 $-1 $641 forward $522 $-1 #
surf-twe-attrib $-1 $-1 $-1 $523 483 #
loop_type-twe-attrib $-1 $-1 $-1 $525 1 #
coedge $-1 $588 $588 $640 $642 forward $525 $-1 #
coedge $-1 $589 $589 $526 $590 forward $532 $-1 #
edge $643 $644 0 $644 6.283185307179586232 $526 $645 forward 7 unknown #
loop_type-twe-attrib $-1 $-1 $-1 $532 1 #
surf-twe-attrib $-1 $646 $-1 $533 355 #
loop_type-twe-attrib $-1 $-1 $-1 $535 1 #
coedge $-1 $594 $594 $539 $596 reversed $535 $-1 #
edge $647 $648 1 $648 0 $536 $-1 forward 7 unknown #
edge $649 $650 -3.141592653589793116 $650 3.141592653589793116 $594 $651 forward 7 unknown #
edge_name-twe-attrib $-1 $-1 $-1 $541 35 8704 #
vertex $-1 $541 $652 #
ellipse-curve $653 -1 0.3699999999999999956 1 0 -1 0 -0.2000000000000000111 0 0 1 I I #
surf-twe-attrib $-1 $654 $543 $488 404 #
edge_name-twe-attrib $-1 $-1 $-1 $546 31 128 #
vertex $-1 $546 $655 #
edge_name-twe-attrib $-1 $-1 $-1 $547 32 4352 #
vertex $-1 $547 $656 #
ellipse-curve $657 0 0.2201721238055119878 1 0 1 0 -0.2000000000000000111 0 0 1 I I #
point $-1 -0.2000000000000000111 0.3699999999999999956 1 #
cur-twe-attrib $-1 $-1 $-1 $550 511 #
surf-twe-attrib $-1 $658 $551 $444 460 #
point $-1 0 0.1000000000000000056 -1 #
point $-1 0.2000000000000000111 0.2201721238055119878 -1 #
cur-twe-attrib $-1 $-1 $-1 $556 517 #
loop $659 $-1 $558 $570 #
edge_name-twe-attrib $-1 $-1 $-1 $559 48 4608 #
vertex $-1 $559 $660 #
ellipse-curve $661 1 0.3699999999999999956 -0.1875 0 1 0 -0.25 0 0 1 I I #
face_name-twe-attrib $-1 $-1 $-1 $561 38 #
loop $662 $663 $664 $561 #
cone-surface $665 1 0.2201721238055119878 -0.1875 0 1 0 -0.2000000000000000111 0 0 1 I I 0.8571673007021120005 0.5150380749100540445 0.2000000000000000111 forward I I I I #
loop_type-twe-attrib $-1 $-1 $-1 $562 0 #
loop $666 $-1 $667 $507 #
coedge $-1 $621 $621 $668 $669 reversed $562 $-1 #
surf-twe-attrib $-1 $-1 $-1 $563 465 #
loop_type-twe-attrib $-1 $-1 $-1 $565 0 #
point $-1 -0.125 0.3699999999999999956 3.06161646971843021e-17 #
cur-twe-attrib $-1 $-1 $-1 $568 539 #
face_name-twe-attrib $-1 $-1 $-1 $570 35 #
loop $670 $612 $668 $570 #
plane-surface $671 1 0.3699999999999999956 -0.1875 0 -1 0 0 0 -1 forward_v I I I I #
loop_type-twe-attrib $-1 $-1 $-1 $571 0 #
loop $672 $-1 $673 $512 #
coedge $-1 $631 $631 $-1 $674 forward $571 $-1 #
surf-twe-attrib $-1 $-1 $-1 $572 541 #
loop_type-twe-attrib $-1 $-1 $-1 $574 1 #
coedge $-1 $634 $634 $673 $675 forward $574 $-1 #
coedge $-1 $635 $635 $575 $636 forward $581 $-1 #
edge $676 $677 0 $677 6.283185307179586232 $575 $678 forward 7 unknown #
loop_type-twe-attrib $-1 $-1 $-1 $581 1 #
surf-twe-attrib $-1 $679 $-1 $582 355 #
loop_type-twe-attrib $-1 $-1 $-1 $584 1 #
coedge $-1 $640 $640 $588 $642 reversed $584 $-1 #
edge $680 $681 1 $681 0 $585 $-1 forward 7 unknown #
edge $682 $683 -3.141592653589793116 $683 3.141592653589793116 $640 $684 forward 7 unknown #
edge_name-twe-attrib $-1 $-1 $-1 $590 40 8704 #
vertex $-1 $590 $685 #
ellipse-curve $686 1 0.3699999999999999956 -1 0 -1 0 -0.2000000000000000111 0 0 1 I I #
surf-twe-attrib $-1 $687 $592 $533 404 #
edge_name-twe-attrib $-1 $-1 $-1 $595 36 128 #
vertex $-1 $595 $688 #
edge_name-twe-attrib $-1 $-1 $-1 $596 37 4352 #
vertex $-1 $596 $689 #
ellipse-curve $690 -1 0.2201721238055119878 1 0 -1 0 -0.2000000000000000111 0 0 1 I I #
point $-1 -1.199999999999999956 0.3699999999999999956 1 #
cur-twe-attrib $-1 $-1 $-1 $599 566 #
surf-twe-attrib $-1 $691 $600 $488 460 #
point $-1 0 0.1000000000000000056 1 #
point $-1 0.2000000000000000111 0.2201721238055119878 1 #
cur-twe-attrib $-1 $-1 $-1 $605 572 #
surf-twe-attrib $-1 $692 $608 $444 439 #
loop_type-twe-attrib $-1 $-1 $-1 $612 0 #
point $-1 1.25 0.3699999999999999956 -0.1875 #
cur-twe-attrib $-1 $-1 $-1 $615 596 #
loop_type-twe-attrib $-1 $-1 $-1 $617 0 #
loop $693 $-1 $694 $561 #
coedge $-1 $664 $664 $-1 $695 forward $617 $-1 #
surf-twe-attrib $-1 $-1 $-1 $618 527 #
loop_type-twe-attrib $-1 $-1 $-1 $620 1 #
coedge $-1 $667 $667 $694 $696 forward $620 $-1 #
coedge $-1 $668 $668 $621 $669 forward $627 $-1 #
edge $697 $698 0 $698 6.283185307179586232 $621 $699 forward 7 unknown #
loop_type-twe-attrib $-1 $-1 $-1 $627 1 #
surf-twe-attrib $-1 $700 $-1 $628 355 #
loop_type-twe-attrib $-1 $-1 $-1 $630 1 #
coedge $-1 $673 $673 $634 $675 reversed $630 $-1 #
edge $701 $702 1 $702 0 $631 $-1 forward 7 unknown #
edge $703 $704 -3.141592653589793116 $704 3.141592653589793116 $673 $705 forward 7 unknown #
edge_name-twe-attrib $-1 $-1 $-1 $636 45 8704 #
vertex $-1 $636 $706 #
ellipse-curve $707 -0.375 0.3699999999999999956 0 0 -1 0 -0.2000000000000000111 0 0 1 I I #
surf-twe-attrib $-1 $708 $638 $582 404 #
edge_name-twe-attrib $-1 $-1 $-1 $641 41 128 #
vertex $-1 $641 $709 #
edge_name-twe-attrib $-1 $-1 $-1 $642 42 4352 #
vertex $-1 $642 $710 #
ellipse-curve $711 1 0.2201721238055119878 -1 0 -1 0 -0.2000000000000000111 0 0 1 I I #
point $-1 0.8000000000000000444 0.3699999999999999956 -1 #
cur-twe-attrib $-1 $-1 $-1 $645 619 #
surf-twe-attrib $-1 $712 $646 $533 460 #
point $-1 -1 0.1000000000000000056 1 #
point $-1 -0.8000000000000000444 0.2201721238055119878 1 #
cur-twe-attrib $-1 $-1 $-1 $651 623 #
surf-twe-attrib $-1 $713 $654 $488 439 #
surf-twe-attrib $-1 $714 $658 $444 391 #
loop_type-twe-attrib $-1 $-1 $-1 $663 1 #
coedge $-1 $694 $694 $667 $696 reversed $663 $-1 #
edge $715 $716 1 $716 0 $664 $-1 forward 7 unknown #
edge $717 $718 -3.141592653589793116 $718 3.141592653589793116 $694 $719 forward 7 unknown #
edge_name-twe-attrib $-1 $-1 $-1 $669 50 8704 #
vertex $-1 $669 $720 #
ellipse-curve $721 1 0.3699999999999999956 -0.1875 0 -1 0 -0.2000000000000000111 0 0 1 I I #
surf-twe-attrib $-1 $722 $671 $628 404 #
edge_name-twe-attrib $-1 $-1 $-1 $674 46 128 #
vertex $-1 $674 $723 #
edge_name-twe-attrib $-1 $-1 $-1 $675 47 4352 #
vertex $-1 $675 $724 #
ellipse-curve $725 -0.375 0.2201721238055119878 0 0 -1 0 -0.2000000000000000111 0 0 1 I I #
point $-1 -0.5749999999999999556 0.3699999999999999956 0 #
cur-twe-attrib $-1 $-1 $-1 $678 588 #
surf-twe-attrib $-1 $726 $679 $582 460 #
point $-1 1 0.1000000000000000056 -1 #
point $-1 1.199999999999999956 0.2201721238055119878 -1 #
cur-twe-attrib $-1 $-1 $-1 $684 667 #
surf-twe-attrib $-1 $727 $687 $533 439 #
surf-twe-attrib $-1 $728 $691 $488 391 #
surf-twe-attrib $-1 $-1 $692 $444 216 #
edge_name-twe-attrib $-1 $-1 $-1 $695 51 128 #
vertex $-1 $695 $729 #
edge_name-twe-attrib $-1 $-1 $-1 $696 52 4352 #
vertex $-1 $696 $730 #
ellipse-curve $731 1 0.2201721238055119878 -0.1875 0 -1 0 -0.2000000000000000111 0 0 1 I I #
point $-1 0.8000000000000000444 0.3699999999999999956 -0.1875 #
cur-twe-attrib $-1 $-1 $-1 $699 534 #
surf-twe-attrib $-1 $732 $700 $628 460 #
point $-1 -0.375 0.1000000000000000056 0 #
point $-1 -0.1749999999999999889 0.2201721238055119878 -2.4492931757747401e-17 #
cur-twe-attrib $-1 $-1 $-1 $705 697 #
surf-twe-attrib $-1 $733 $708 $582 439 #
surf-twe-attrib $-1 $734 $712 $533 391 #
surf-twe-attrib $-1 $-1 $713 $488 216 #
point $-1 1 0.1000000000000000056 -0.1875 #
point $-1 1.199999999999999956 0.2201721238055119878 -0.1875 #
cur-twe-attrib $-1 $-1 $-1 $719 690 #
surf-twe-attrib $-1 $735 $722 $628 439 #
surf-twe-attrib $-1 $736 $726 $582 391 #
surf-twe-attrib $-1 $-1 $727 $533 216 #
surf-twe-attrib $-1 $737 $732 $628 391 #
surf-twe-attrib $-1 $-1 $733 $582 216 #
surf-twe-attrib $-1 $-1 $735 $628 216 #
End-of-ACIS-data 