**ABCDEFGHIJKLMNOPQRSTUVWXYZabcdefghijklmnopqrstuvwxyz**************************
**PARASOLID !"#$%&'()*+,-./:;<=>?@[\]^_`{|}~0123456789**************************
**PART1;
MC=unknown;
MC_MODEL=unknown;
MC_ID=unknown;
OS=WindowsNT;
OS_RELEASE=4.0;
FRU=unknown;
APPL=IronCAD;
SITE=Visionary Design Systems Inc, Atlanta, GA;
USER=market;
FORMAT=text;
GUISE=transmit;
KEY=V:\ZData\nativeICS\ICS3\motor_flange;
FILE=V:\ZData\nativeICS\ICS3\motor_flange.X_T;
DATE=unknown;
**PART2;
SCH=SCH_1100129_11004;
USFLD_SIZE=0;
**PART3;
**END_OF_HEADER*****************************************************************
T51 : TRANSMIT FILE created by modeller version 110012917 SCH_1100129_110040 12
 1 548 0 0 0 0 0 0 1e3 1e-8 0 2 0 1 0 1 1 3 4 5 6 7 8 9 13 3 353 0 1 0 10 0 0 11
 0 50 4 352 0 10 12 0 0 +.00138976427088546 .04105167817808255 .0500520134334699
 104348137355333e-29 -.654616219161769 .755961378385399 830159712167214e-30 .755
961378385399 .654616219161769 30 5 336 0 8 13 0 0 +.001389764270885406 -.0088325
1337710868 .00685536105746352 1 1665334536937735e-31 -1387778780781446e-30 29 6
 38 0 9 14 0 .00138976427088546 .04105167817808255 .0500520134334699 19 7 1 0 1
 11 0 15 V16 8 282 0 ?16 0 17 5 0 0 1 18 9 35 0 18 0 19 6 ?1 17 18 0 20 21 22 9
 23 24 0 25 +18 19 30 0 22 9 26 14 ?1 17 22 0 20 18 27 19 28 29 0 30 +18 26 25 0
 27 19 31 32 ?1 29 14 33 0 19 32 6 .001389764270885538 .0198421126772412 .106945
162093157 29 32 28 0 26 33 14 .00138976427088554 -.0461456350195602 .10694516209
31568 29 33 23 0 31 34 32 .00138976427088554 -.0618999696201168 .104724728915957
6 18 31 20 0 35 26 36 33 ?1 29 34 18 0 36 37 33 .00138976427088554 -.06425277463
01642 .1050235743353598 18 36 15 0 38 31 39 34 ?1 29 37 13 0 39 40 34 .001389764
270885492 -.101224047261763 .0680523017037607 18 39 10 0 41 36 42 37 ?1 29 40 8
 0 42 43 37 .00138976427088549 -.1009252018423608 .0656994966937146 18 42 5 0 44
 39 45 40 ?1 29 43 4 0 45 46 40 .001389764270885406 -.00883251337710868 .0068553
6105746352 18 45 2 0 47 42 48 43 ?1 29 46 265 0 48 49 43 .00538976427088546 .041
05167817808255 .0500520134334699 18 48 238 0 50 45 51 46 ?1 29 49 266 0 51 52 46
 .00538976427088554 .0198421126772412 .106945162093157 18 51 239 0 53 48 54 49 ?
1 29 52 267 0 54 55 49 .00538976427088554 -.0461456350195602 .1069451620931568 1
8 54 240 0 56 51 57 52 ?1 29 55 268 0 57 58 52 .00538976427088554 -.061899969620
1168 .1047247289159576 18 57 241 0 59 54 60 55 ?1 29 58 269 0 60 61 55 .00538976
427088554 -.0642527746301642 .1050235743353598 18 60 242 0 62 57 63 58 ?1 29 61
 270 0 63 64 58 .00538976427088549 -.101224047261763 .0680523017037606 18 63 243
 0 65 60 66 61 ?1 29 64 271 0 66 67 61 .00538976427088549 -.1009252018423608 .06
56994966937146 18 66 244 0 68 63 69 64 ?1 29 67 272 0 69 0 64 .00538976427088541
 -.00883251337710868 .00685536105746352 18 69 245 0 70 66 0 67 ?1 17 70 0 71 72
 73 69 68 74 0 16 -15 71 199 0 72 75 76 17 72 0 71 77 70 48 78 79 0 0 -17 73 0 7
1 70 80 66 65 81 0 0 -17 68 0 82 83 16 66 70 74 0 84 +16 74 232 0 ?68 81 79 85 0
 0 1 17 16 0 82 68 47 69 86 8 0 78 +15 82 323 0 68 87 0 17 47 0 82 16 83 45 44 8
8 0 21 -17 86 0 89 90 78 45 16 8 0 0 -17 78 0 89 86 91 69 72 79 0 0 +15 89 325 0
 78 10 0 17 91 0 89 78 90 48 25 92 0 72 +16 79 234 0 ?78 74 0 93 0 0 1 30 93 255
 0 79 94 95 0 +.00538976427088546 .04105167817808255 .0500520134334699 -83015971
2167214e-30 -.755961378385398 -.654616219161769 31 94 256 0 96 97 93 0 +.0053897
642708855 .01984211267724105 .0745451620931568 -1 -1665334536937735e-31 13877787
80781446e-30 555111512312578e-31 -1 1665334536937735e-31 .0324 31 95 253 0 98 93
 99 0 +.00538976427088547 -.0461178600404287 .05 1 1665334536937735e-31 -1387778
780781446e-30 -555111512312578e-31 1 -1665334536937735e-31 .04496310969775505 16
 98 216 0 ?100 101 96 95 0 0 1 31 99 252 0 101 95 102 0 +.00538976427088541 -.00
890091743564107 .0127004445092378 1 1665334536937735e-31 -1387778780781446e-30 5
55111512312578e-31 -1 1665334536937735e-31 .001853035162448105 16 101 214 0 ?103
 104 98 99 0 0 1 31 102 251 0 104 99 105 0 +.0053897642708854 -.0461456350195601
 -.002726822640777115 1 1665334536937735e-31 -1387778780781446e-30 5551115123125
78e-31 -1 1665334536937735e-31 .0018530351624481 16 104 212 0 ?106 107 101 102 0
 0 1 31 105 250 0 107 102 108 0 +.00538976427088542 -.0833903526034792 .01270044
45092378 1 1665334536937735e-31 -1387778780781446e-30 555111512312578e-31 -1 166
5334536937735e-31 .001853035162448095 16 107 210 0 ?109 110 104 105 0 0 1 31 108
 249 0 110 105 111 0 +.00538976427088554 -.0461456350195602 .102617146827091 1 1
665334536937735e-31 -1387778780781446e-30 555111512312578e-31 -1 166533453693773
5e-31 .001853035162448055 16 110 208 0 ?112 113 107 108 0 0 1 31 111 248 0 113 1
08 114 0 +.00538976427088553 -.094429171005741 .0982286980793376 1 1665334536937
735e-31 -1387778780781446e-30 555111512312578e-31 -1 1665334536937735e-31 .00185
303516244805 16 113 206 0 ?115 116 110 111 0 0 1 31 114 247 0 116 111 117 0 +.00
538976427088547 -.0988176197534942 .0499451620931569 1 1665334536937735e-31 -138
7778780781446e-30 555111512312578e-31 -1 1665334536937735e-31 .00185303516244804
 16 116 204 0 ?118 119 113 114 0 0 1 31 117 7 0 88 114 120 0 +.00138976427088546
4 -.0461456350195601 .0499451620931568 -1 -1665334536937735e-31 1387778780781446
e-30 -555111512312578e-31 1 -1665334536937735e-31 .057 16 88 6 0 ?44 121 119 117
 0 0 1 31 120 12 0 121 117 122 0 +.00138976427088549 -.103808336938293 .06652867
21990075 1 1665334536937735e-31 -1387778780781446e-30 555111512312578e-31 -1 166
5334536937735e-31 .002999999999995685 16 121 11 0 ?41 123 88 120 0 0 1 31 122 17
 0 123 120 124 0 +.00138976427088551 -.0779654401729549 .0817649672465516 -1 -16
65334536937735e-31 1387778780781446e-30 -555111512312578e-31 1 -1665334536937735
e-31 .027 16 123 16 0 ?38 125 121 122 0 0 1 31 124 22 0 125 122 126 0 +.00138976
4270885542 -.0627291451254098 .107607864011897 1 1665334536937735e-31 -138777878
0781446e-30 555111512312578e-31 -1 1665334536937735e-31 .00300000000000261 16 12
5 21 0 ?35 127 123 124 0 0 1 31 126 27 0 127 124 128 0 +.001389764270885464 -.04
61456350195603 .0499451620931578 -1 -1665334536937735e-31 1387778780781446e-30 -
555111512312578e-31 1 -1665334536937735e-31 .0569999999999991 16 127 26 0 ?27 29
 125 126 0 0 1 30 128 32 0 29 126 129 0 +.00138976427088554 -.0461456350195602 .
1069451620931568 -555111512312574e-31 1 1226408082225766e-31 16 29 31 0 ?22 24 1
27 128 0 0 1 31 129 37 0 24 128 130 0 +.001389764270885494 .01984211267724105 .0
745451620931568 -1 -1665334536937735e-31 1387778780781446e-30 555111512312578e-3
1 -1 1665334536937735e-31 .0324 16 24 36 0 ?18 131 29 129 0 0 1 30 130 41 0 119
 129 132 0 +.00138976427088546 .04105167817808255 .0500520134334699 -83015971216
7214e-30 -.755961378385398 -.654616219161769 16 119 40 0 ?21 88 116 130 0 0 1 31
 132 60 0 131 130 133 0 +.001389764270885464 -.0461178600404286 .05 1 1665334536
937735e-31 -1387778780781446e-30 555111512312578e-31 -1 1665334536937735e-31 .04
496310969775515 16 131 55 0 ?134 135 24 132 0 0 1 31 133 74 0 135 132 136 0 +.00
1389764270885414 -.00890091743564107 .0127004445092378 1 1665334536937735e-31 -1
387778780781446e-30 555111512312578e-31 -1 1665334536937735e-31 .001853035162448
105 16 135 70 0 ?137 138 131 133 0 0 1 31 136 88 0 138 133 139 0 +.0013897642708
85394 -.0461456350195601 -.002726822640777115 1 1665334536937735e-31 -1387778780
781446e-30 555111512312578e-31 -1 1665334536937735e-31 .0018530351624481 16 138
 84 0 ?140 141 135 136 0 0 1 31 139 104 0 141 136 142 0 +.001389764270885416 -.0
833903526034792 .0127004445092378 1 1665334536937735e-31 -1387778780781446e-30 5
55111512312578e-31 -1 1665334536937735e-31 .001853035162448095 16 141 100 0 ?143
 144 138 139 0 0 1 31 142 122 0 144 139 145 0 +.001389764270885534 -.04614563501
95602 .102617146827091 1 1665334536937735e-31 -1387778780781446e-30 555111512312
578e-31 -1 1665334536937735e-31 .001853035162448055 16 144 118 0 ?146 147 141 14
2 0 0 1 31 145 142 0 147 142 148 0 +.001389764270885532 -.094429171005741 .09822
86980793376 1 1665334536937735e-31 -1387778780781446e-30 555111512312578e-31 -1
 1665334536937735e-31 .00185303516244805 16 147 138 0 ?149 150 144 145 0 0 1 31
 148 164 0 150 145 151 0 +.001389764270885468 -.0988176197534942 .04994516209315
69 1 1665334536937735e-31 -1387778780781446e-30 555111512312578e-31 -1 166533453
6937735e-31 .00185303516244804 16 150 160 0 ?152 92 147 148 0 0 1 30 151 329 0 9
2 148 153 0 +.00138976427088546 .04105167817808255 .0500520134334699 1 166533453
6937735e-31 -1387778780781446e-30 16 92 275 0 ?91 154 150 151 0 0 1 30 153 330 0
 154 151 155 0 +.001389764270885538 .0198421126772412 .106945162093157 1 1665334
536937735e-31 -1387778780781446e-30 16 154 276 0 ?156 157 92 153 0 0 1 30 155 33
1 0 157 153 158 0 +.00138976427088554 -.0461456350195602 .1069451620931568 1 166
5334536937735e-31 -1387778780781446e-30 16 157 277 0 ?159 160 154 155 0 0 1 30 1
58 332 0 160 155 161 0 +.00138976427088554 -.0618999696201168 .1047247289159576
 1 1665334536937735e-31 -1387778780781446e-30 16 160 278 0 ?162 163 157 158 0 0
 1 30 161 333 0 163 158 164 0 +.00138976427088554 -.0642527746301642 .1050235743
353598 1 1665334536937735e-31 -1387778780781446e-30 16 163 279 0 ?165 166 160 16
1 0 0 1 30 164 334 0 166 161 13 0 +.001389764270885492 -.101224047261763 .068052
3017037607 1 1665334536937735e-31 -1387778780781446e-30 16 166 280 0 ?167 17 163
 164 0 0 1 30 13 335 0 17 164 5 0 +.00138976427088549 -.1009252018423608 .065699
4966937146 1 1665334536937735e-31 -1387778780781446e-30 16 17 281 0 ?84 8 166 13
 0 0 1 17 84 0 168 65 169 66 83 17 0 73 +15 168 321 0 65 170 0 17 65 0 168 171 8
4 63 73 81 0 167 +17 169 0 168 84 171 42 41 121 0 0 -17 83 0 82 47 68 42 84 17 0
 169 -17 171 0 168 169 65 39 167 166 0 172 -17 41 0 20 38 44 39 169 121 0 171 +1
5 20 42 0 21 173 174 17 38 0 20 35 41 36 172 123 0 175 +17 44 0 20 41 21 42 47 8
8 0 83 +17 21 0 20 44 18 45 90 119 0 86 +17 90 0 89 91 86 9 21 119 0 0 -17 35 0
 20 27 38 31 176 125 0 177 +17 172 0 178 167 175 39 38 123 0 0 -17 175 0 178 172
 62 36 165 163 0 176 -15 178 319 0 62 179 0 17 62 0 178 175 167 60 80 180 0 165
 +17 165 0 181 59 176 60 175 163 0 182 +17 176 0 181 165 177 36 35 125 0 0 -15 1
81 317 0 59 183 0 17 177 0 181 176 59 31 162 160 0 184 -17 59 0 181 177 165 57 1
82 185 0 162 +17 162 0 186 56 184 57 177 160 0 187 +17 184 0 186 162 188 31 27 1
27 0 0 -15 186 315 0 56 189 0 17 188 0 186 184 56 26 159 157 0 28 -17 27 0 20 22
 35 26 184 127 0 188 +17 56 0 186 188 162 54 187 190 0 159 +17 159 0 191 53 28 5
4 188 157 0 192 +17 28 0 191 159 30 26 22 29 0 0 -15 191 313 0 53 193 0 17 30 0
 191 28 53 19 156 154 0 23 -17 53 0 191 30 159 51 192 194 0 156 +17 156 0 195 50
 23 51 30 154 0 77 +17 23 0 195 156 25 19 18 24 0 0 -15 195 311 0 50 196 0 17 25
 0 195 23 50 9 91 92 0 90 -17 50 0 195 25 156 48 77 96 0 91 +17 77 0 71 192 72 5
1 50 96 0 0 -16 96 220 0 ?50 98 194 94 0 0 1 16 194 222 0 ?53 96 190 97 0 0 1 16
 190 224 0 ?56 194 185 197 0 0 1 30 97 257 0 194 197 94 0 +.00538976427088554 -.
0461456350195602 .1069451620931568 -555111512312574e-31 1 1226408082225766e-31 3
1 197 258 0 190 198 97 0 +.00538976427088547 -.0461456350195603 .049945162093157
8 -1 -1665334536937735e-31 1387778780781446e-30 -555111512312578e-31 1 -16653345
36937735e-31 .0569999999999991 31 198 259 0 185 199 197 0 +.00538976427088554 -.
0627291451254098 .107607864011897 1 1665334536937735e-31 -1387778780781446e-30 5
55111512312578e-31 -1 1665334536937735e-31 .00300000000000261 16 185 226 0 ?59 1
90 180 198 0 0 1 31 199 260 0 180 200 198 0 +.00538976427088551 -.07796544017295
49 .0817649672465516 -1 -1665334536937735e-31 1387778780781446e-30 -555111512312
578e-31 1 -1665334536937735e-31 .027 16 180 228 0 ?62 185 81 199 0 0 1 31 200 26
1 0 81 85 199 0 +.00538976427088549 -.103808336938293 .0665286721990075 1 166533
4536937735e-31 -1387778780781446e-30 555111512312578e-31 -1 1665334536937735e-31
 .002999999999995685 16 81 230 0 ?65 180 74 200 0 0 1 31 85 262 0 74 0 200 0 +.0
0538976427088547 -.0461456350195601 .0499451620931568 -1 -1665334536937735e-31 1
387778780781446e-30 -555111512312578e-31 1 -1665334536937735e-31 .057 17 192 0 7
1 187 77 54 53 194 0 0 -17 187 0 71 182 192 57 56 190 0 0 -17 182 0 71 80 187 60
 59 185 0 0 -17 80 0 71 73 182 63 62 180 0 0 -14 196 312 0 ?201 202 195 3 203 -0
 0 201 202 15 14 201 304 0 ?204 196 205 3 206 -0 0 204 196 15 14 202 308 0 ?196
 207 208 3 209 -0 0 196 207 15 51 203 345 0 196 209 210 0 -.001389764270885494 .
01984211267724105 .0745451620931568 1 1665334536937735e-31 -1387778780781446e-30
 .0324 555111512312578e-31 -1 1665334536937735e-31 13 15 3 0 0 0 0 0 0 7 10 14 1
0 326 0 ?87 0 89 3 4 -0 0 87 0 15 14 87 324 0 ?170 10 82 3 12 -0 0 170 10 15 14
 170 322 0 ?179 87 168 3 211 -0 0 179 87 15 51 12 351 0 87 211 4 0 -.00138976427
0885464 -.0461456350195601 .0499451620931568 1 1665334536937735e-31 -13877787807
81446e-30 .057 555111512312578e-31 -1 1665334536937735e-31 51 211 350 0 170 212
 12 0 +.00138976427088549 -.103808336938293 .0665286721990075 1 1665334536937735
e-31 -1387778780781446e-30 .002999999999995685 555111512312578e-31 -1 1665334536
937735e-31 51 212 349 0 179 213 211 0 -.00138976427088551 -.0779654401729549 .08
17649672465516 1 1665334536937735e-31 -1387778780781446e-30 .027 555111512312578
e-31 -1 1665334536937735e-31 14 179 320 0 ?183 170 178 3 212 -0 0 183 170 15 51
 213 348 0 183 214 212 0 +.001389764270885542 -.0627291451254098 .10760786401189
7 1 1665334536937735e-31 -1387778780781446e-30 .00300000000000261 55511151231257
8e-31 -1 1665334536937735e-31 14 183 318 0 ?189 179 181 3 213 -0 0 189 179 15 51
 214 347 0 189 210 213 0 -.001389764270885464 -.0461456350195603 .04994516209315
78 1 1665334536937735e-31 -1387778780781446e-30 .0569999999999991 55511151231257
8e-31 -1 1665334536937735e-31 14 189 316 0 ?193 183 186 3 214 -0 0 193 183 15 50
 210 346 0 193 203 214 0 +.00138976427088554 -.0461456350195602 .106945162093156
8 -1332267629550188e-30 2336631106850925e-31 -1 555111512312574e-31 -1 -12264080
82225766e-31 14 193 314 0 ?207 189 191 3 210 -0 0 207 189 15 14 207 300 0 ?202 1
93 215 3 216 -0 0 202 193 15 15 215 299 0 217 207 218 51 216 341 0 207 219 206 0
 +.001389764270885394 -.0461456350195601 -.002726822640777115 1 1665334536937735
e-31 -1387778780781446e-30 .0018530351624481 555111512312578e-31 -1 166533453693
7735e-31 51 219 340 0 204 220 216 0 +.001389764270885416 -.0833903526034792 .012
7004445092378 1 1665334536937735e-31 -1387778780781446e-30 .001853035162448095 5
55111512312578e-31 -1 1665334536937735e-31 51 206 342 0 201 216 209 0 +.00138976
4270885414 -.00890091743564107 .0127004445092378 1 1665334536937735e-31 -1387778
780781446e-30 .001853035162448105 555111512312578e-31 -1 1665334536937735e-31 51
 209 343 0 202 206 203 0 +.001389764270885464 -.0461178600404287 .05 1 166533453
6937735e-31 -1387778780781446e-30 .04496310969775505 555111512312578e-31 -1 1665
334536937735e-31 14 204 296 0 ?221 201 222 3 219 -0 0 221 201 15 51 220 339 0 22
3 224 219 0 +.001389764270885534 -.0461456350195602 .102617146827091 1 166533453
6937735e-31 -1387778780781446e-30 .001853035162448055 555111512312578e-31 -1 166
5334536937735e-31 14 223 292 0 ?173 225 226 3 220 -0 0 173 225 15 51 224 338 0 2
21 227 220 0 +.001389764270885532 -.094429171005741 .0982286980793376 1 16653345
36937735e-31 -1387778780781446e-30 .00185303516244805 555111512312578e-31 -1 166
5334536937735e-31 14 221 288 0 ?225 204 228 3 224 -0 0 225 204 15 51 227 337 0 2
25 229 224 0 +.001389764270885468 -.0988176197534942 .0499451620931569 1 1665334
536937735e-31 -1387778780781446e-30 .00185303516244804 555111512312578e-31 -1 16
65334536937735e-31 14 225 284 0 ?223 221 230 3 227 -0 0 223 221 15 50 229 44 0 1
73 231 227 0 +.001389764270885464 -.0461456350195601 .0499451620931568 -1 -16653
34536937735e-31 1387778780781446e-30 -555111512312578e-31 1 -1665334536937735e-3
1 14 173 163 0 ?75 223 232 3 229 +0 0 75 223 15 50 231 246 0 75 0 229 0 +.005389
76427088547 -.0461456350195601 .0499451620931568 -1 -1665334536937735e-31 138777
8780781446e-30 -555111512312578e-31 1 -1665334536937735e-31 14 75 194 0 ?0 173 2
33 3 231 -0 0 0 173 15 15 233 196 0 234 75 235 17 234 0 233 234 234 0 115 113 0
 0 -15 235 197 0 236 75 237 17 236 0 235 236 236 0 109 107 0 0 -15 237 198 0 238
 75 71 17 238 0 237 238 238 0 103 101 0 0 -17 103 0 239 103 103 0 238 101 0 0 +1
5 239 305 0 103 201 0 17 109 0 240 109 109 0 236 107 0 0 +15 240 297 0 109 204 0
 17 115 0 241 115 115 0 234 113 0 0 +15 241 289 0 115 221 0 15 232 139 0 149 173
 242 17 149 0 232 149 149 0 243 147 0 0 +15 242 101 0 143 173 244 17 143 0 242 1
43 143 0 245 141 0 0 +15 244 71 0 137 173 20 17 137 0 244 137 137 0 246 135 0 0
 +17 246 0 205 246 246 0 137 135 0 0 -15 205 303 0 246 201 239 17 245 0 222 245
 245 0 143 141 0 0 -15 222 295 0 245 204 240 17 243 0 228 243 243 0 149 147 0 0
 -15 228 287 0 243 221 241 15 230 283 0 247 225 248 17 247 0 230 247 247 0 152 1
50 0 0 -15 248 285 0 118 225 0 17 118 0 248 118 118 0 249 116 0 0 +17 249 0 250
 249 249 0 118 116 0 0 -15 250 203 0 249 75 0 17 152 0 251 152 152 0 247 150 0 0
 +15 251 161 0 152 173 0 15 226 291 0 252 223 253 17 252 0 226 252 252 0 146 144
 0 0 -15 253 293 0 112 223 0 17 112 0 253 112 112 0 254 110 0 0 +17 254 0 255 25
4 254 0 112 110 0 0 -15 255 202 0 254 75 250 17 146 0 256 146 146 0 252 144 0 0
 +15 256 119 0 146 173 251 17 217 0 215 217 217 0 140 138 0 0 -15 218 301 0 106
 207 0 17 106 0 218 106 106 0 257 104 0 0 +17 257 0 258 257 257 0 106 104 0 0 -1
5 258 201 0 257 75 255 17 140 0 259 140 140 0 217 138 0 0 +15 259 85 0 140 173 2
56 15 208 371 0 100 202 260 17 100 0 208 100 100 0 261 98 0 0 +15 260 307 0 262
 202 0 17 262 0 260 262 262 0 134 131 0 0 -17 134 0 174 134 134 0 262 131 0 0 +1
5 174 52 0 134 173 259 17 261 0 76 261 261 0 100 98 0 0 -15 76 200 0 261 75 258
 17 167 0 178 62 172 63 171 166 0 80 +19 11 354 0 1 0 7 3 S1 0 
