600 0 1 0           
89 GICL ACIS Healer - Source: /gicl/data5/repository/VDS/motor_flange/motor_flange.sat - 6 0 18 ACIS 6.0.3 Solaris 24 Sat Apr 13 20:03:58 2002 
1 9.999999999999999547e-07 1.000000000000000036e-10 
body $-1 $1 $-1 $-1 #
lump $-1 $-1 $2 $0 #
shell $-1 $-1 $-1 $3 $-1 $1 #
face $-1 $4 $5 $2 $-1 $6 forward single #
face $-1 $7 $8 $2 $-1 $9 forward single #
loop $-1 $10 $11 $3 #
cone-surface $-1 5.389764270885468278 -98.8176197534941565 49.94516209315684563 -1 -1.665334536937734811e-16 1.387778780781445676e-15 1.028641151394915574e-16 -1.853035162448039896 3.085923454184746599e-16 1 I I 0 -1 1.853035162448039896 forward I I I I #
face $-1 $12 $13 $2 $-1 $14 forward single #
loop $-1 $15 $16 $4 #
cone-surface $-1 5.389764270885532227 -94.42917100574102562 98.22869807933760455 -1 -1.665334536937734811e-16 1.387778780781445676e-15 1.028641151394915574e-16 -1.853035162448039896 3.085923454184746599e-16 1 I I 0 -1 1.853035162448049 forward I I I I #
loop $-1 $-1 $17 $3 #
coedge $-1 $11 $11 $18 $19 forward $5 $-1 #
face $-1 $20 $21 $2 $-1 $22 forward single #
loop $-1 $23 $24 $7 #
cone-surface $-1 5.389764270885534891 -46.14563501956021696 102.6171468270908633 -1 -1.665334536937734811e-16 1.387778780781445676e-15 1.028641151394915574e-16 -1.853035162448039896 3.085923454184746599e-16 1 I I 0 -1 1.853035162448053441 forward I I I I #
loop $-1 $-1 $25 $4 #
coedge $-1 $16 $16 $26 $27 forward $8 $-1 #
coedge $-1 $17 $17 $28 $29 forward $10 $-1 #
coedge $-1 $18 $18 $11 $19 reversed $30 $-1 #
edge $-1 $31 -3.141592653589789563 $31 3.141592653589796669 $11 $32 forward 7 unknown #
face $-1 $33 $34 $2 $-1 $35 forward single #
loop $-1 $36 $37 $12 #
cone-surface $-1 5.389764270885417652 -83.39035260347921508 12.70044450923779777 -1 -1.665334536937734811e-16 1.387778780781445676e-15 1.028641151394915574e-16 -1.853035162448039896 3.085923454184746599e-16 1 I I 0 -1 1.853035162448095408 forward I I I I #
loop $-1 $-1 $38 $7 #
coedge $-1 $24 $24 $39 $40 forward $13 $-1 #
coedge $-1 $25 $25 $41 $42 forward $15 $-1 #
coedge $-1 $26 $26 $16 $27 reversed $43 $-1 #
edge $-1 $44 -3.141592653589793116 $44 3.141592653589793116 $16 $45 forward 7 unknown #
coedge $-1 $28 $28 $17 $29 reversed $46 $-1 #
edge $-1 $47 -3.141592653589796669 $47 3.141592653589789563 $17 $48 forward 7 unknown #
loop $-1 $-1 $18 $49 #
vertex $-1 $19 $50 #
ellipse-curve $-1 1.389764270885480268 -98.8176197534941565 49.94516209315685273 -1 -1.665334536937734811e-16 1.387778780781445676e-15 1.028641151394915574e-16 -1.853035162448039896 3.085923454184746599e-16 1 I I #
face $-1 $51 $52 $2 $-1 $53 forward single #
loop $-1 $54 $55 $20 #
cone-surface $-1 5.389764270885394559 -46.1456350195601388 -2.726822640777115225 -1 -1.665334536937734811e-16 1.387778780781445676e-15 1.028641151394915574e-16 -1.853035162448039896 3.085923454184747092e-16 1 I I 0 -1 1.853035162448098294 forward I I I I #
loop $-1 $-1 $56 $12 #
coedge $-1 $37 $37 $57 $58 forward $21 $-1 #
coedge $-1 $38 $38 $59 $60 forward $23 $-1 #
coedge $-1 $39 $39 $24 $40 reversed $61 $-1 #
edge $-1 $62 -3.141592653589793116 $62 3.141592653589793116 $24 $63 forward 7 unknown #
coedge $-1 $41 $41 $25 $42 reversed $64 $-1 #
edge $-1 $65 -3.141592653589793116 $65 3.141592653589793116 $25 $66 forward 7 unknown #
loop $-1 $30 $26 $49 #
vertex $-1 $27 $67 #
ellipse-curve $-1 1.389764270885546438 -94.42917100574102562 98.22869807933760455 -1 -1.665334536937734811e-16 1.387778780781445676e-15 1.028641151394915574e-16 -1.853035162448039896 3.085923454184746599e-16 1 I I #
loop $-1 $-1 $28 $68 #
vertex $-1 $29 $69 #
ellipse-curve $-1 5.389764270885471831 -98.8176197534941565 49.94516209315684563 1 1.665334536937734811e-16 -1.387778780781445676e-15 1.028641151394915574e-16 -1.853035162448039896 3.085923454184746599e-16 1 I I #
face $-1 $-1 $70 $2 $-1 $71 forward single #
point $-1 1.38976427088546739 -96.96458459104610483 49.94516209315684563 #
face $-1 $72 $73 $2 $-1 $74 forward single #
loop $-1 $75 $76 $33 #
cone-surface $-1 5.389764270885413211 -8.900917435641076736 12.70044450923779777 -1 -1.665334536937734811e-16 1.387778780781445676e-15 1.028641151394915574e-16 -1.853035162448039896 3.085923454184746599e-16 1 I I 0 -1 1.853035162448107398 forward I I I I #
loop $-1 $-1 $77 $20 #
coedge $-1 $55 $55 $78 $79 forward $34 $-1 #
coedge $-1 $56 $56 $80 $81 forward $36 $-1 #
coedge $-1 $57 $57 $37 $58 reversed $82 $-1 #
edge $-1 $83 -3.141592653589790451 $83 3.141592653589795781 $37 $84 forward 7 unknown #
coedge $-1 $59 $59 $38 $60 reversed $85 $-1 #
edge $-1 $86 -3.141592653589793116 $86 3.141592653589793116 $38 $87 forward 7 unknown #
loop $-1 $43 $39 $49 #
vertex $-1 $40 $88 #
ellipse-curve $-1 1.389764270885544217 -46.14563501956021696 102.6171468270908633 -1 -1.665334536937734811e-16 1.387778780781445676e-15 1.028641151394915574e-16 -1.853035162448039896 3.085923454184746599e-16 1 I I #
loop $-1 $46 $41 $68 #
vertex $-1 $42 $89 #
ellipse-curve $-1 5.389764270885538444 -94.42917100574102562 98.22869807933760455 1 1.665334536937734811e-16 -1.387778780781445676e-15 1.028641151394915574e-16 -1.853035162448039896 3.085923454184746599e-16 1 I I #
point $-1 1.389764270885531339 -92.57613584329297396 98.22869807933760455 #
face $-1 $49 $90 $2 $-1 $91 forward single #
point $-1 5.38976427088546739 -96.96458459104610483 49.94516209315683852 #
loop $-1 $92 $93 $49 #
plane-surface $-1 1.389764270885405217 -8.832513377108682562 6.855361057463525754 -1 -1.665334536937734811e-16 1.387778780781445676e-15 -5.551115123125782702e-14 1000 -1.665334536937734811e-13 forward_v I I I I #
face $-1 $94 $95 $2 $-1 $96 forward single #
loop $-1 $97 $98 $51 #
cone-surface $-1 5.389764270885464725 -46.11786004042868115 50.00000000000007105 -1 -1.665334536937734811e-16 1.387778780781445676e-15 2.495953982259717241e-15 -44.9631096977550726 7.487861946779150145e-15 1 I I 0 -1 44.9631096977550726 forward I I I I #
loop $-1 $-1 $99 $33 #
coedge $-1 $76 $76 $100 $101 forward $52 $-1 #
coedge $-1 $77 $77 $102 $103 forward $54 $-1 #
coedge $-1 $78 $78 $55 $79 reversed $104 $-1 #
edge $-1 $105 -3.141592653589790451 $105 3.141592653589795781 $55 $106 forward 7 unknown #
coedge $-1 $80 $80 $56 $81 reversed $107 $-1 #
edge $-1 $108 -3.141592653589793116 $108 3.141592653589793116 $56 $109 forward 7 unknown #
loop $-1 $61 $57 $49 #
vertex $-1 $58 $110 #
ellipse-curve $-1 1.389764270885425645 -83.39035260347921508 12.7004445092378031 -1 -1.665334536937734811e-16 1.387778780781445676e-15 1.028641151394915574e-16 -1.853035162448039896 3.085923454184746599e-16 1 I I #
loop $-1 $64 $59 $68 #
vertex $-1 $60 $111 #
ellipse-curve $-1 5.389764270885536668 -46.14563501956021696 102.6171468270908633 1 1.665334536937734811e-16 -1.387778780781445676e-15 1.028641151394915574e-16 -1.853035162448039896 3.085923454184746599e-16 1 I I #
point $-1 1.389764270885534891 -44.2925998571121653 102.6171468270908633 #
point $-1 5.389764270885532227 -92.57613584329297396 98.22869807933760455 #
loop $-1 $112 $113 $68 #
plane-surface $-1 5.389764270885478936 -56.6801183823791348 59.98983082417279178 1 1.665334536937734811e-16 -1.387778780781445676e-15 5.551115123125782702e-14 -1000 1.665334536937734811e-13 forward_v I I I I #
loop $-1 $114 $115 $49 #
coedge $-1 $116 $117 $118 $119 reversed $70 $-1 #
face $-1 $120 $121 $2 $-1 $122 forward single #
loop $-1 $-1 $118 $72 #
plane-surface $-1 5.389764270885405217 -8.832513377108682562 6.855361057463525754 -1.043481373553330366e-15 0.6546162191617685977 -0.7559613783853984526 1000 1.665334536937734811e-13 -1.387778780781445676e-12 forward_v I I I I #
loop $-1 $-1 $123 $51 #
coedge $-1 $98 $98 $115 $124 forward $73 $-1 #
coedge $-1 $99 $99 $125 $126 forward $75 $-1 #
coedge $-1 $100 $100 $76 $101 reversed $114 $-1 #
edge $-1 $127 -3.141592653589790451 $127 3.141592653589795781 $76 $128 forward 7 unknown #
coedge $-1 $102 $102 $77 $103 reversed $129 $-1 #
edge $-1 $130 -3.141592653589793116 $130 3.141592653589793116 $77 $131 forward 7 unknown #
loop $-1 $82 $78 $49 #
vertex $-1 $79 $132 #
ellipse-curve $-1 1.389764270885398112 -46.1456350195601388 -2.726822640777109896 -1 -1.665334536937734811e-16 1.387778780781445676e-15 1.028641151394915574e-16 -1.853035162448039896 3.085923454184747092e-16 1 I I #
loop $-1 $85 $80 $68 #
vertex $-1 $81 $133 #
ellipse-curve $-1 5.389764270885417652 -83.39035260347921508 12.70044450923779777 1 1.665334536937734811e-16 -1.387778780781445676e-15 1.028641151394915574e-16 -1.853035162448039896 3.085923454184746599e-16 1 I I #
point $-1 1.389764270885416764 -81.53731744103112078 12.70044450923779777 #
point $-1 5.389764270885534891 -44.2925998571121653 102.6171468270908633 #
loop $-1 $134 $135 $68 #
coedge $-1 $136 $137 $138 $139 reversed $90 $-1 #
loop $-1 $104 $100 $49 #
coedge $-1 $115 $115 $98 $124 reversed $92 $-1 #
coedge $-1 $140 $93 $141 $142 reversed $70 $-1 #
coedge $-1 $93 $143 $144 $145 reversed $70 $-1 #
coedge $-1 $146 $147 $93 $119 forward $95 $-1 #
edge $-1 $148 3.769728748722190646e-06 $149 65.98775146652995716 $118 $150 forward 7 unknown #
face $-1 $151 $152 $2 $-1 $153 forward single #
loop $-1 $-1 $144 $94 #
cone-surface $-1 5.389764270885494035 19.84211267724104744 74.54516209315674757 -1 -1.665334536937734811e-16 1.387778780781445676e-15 -1.798561299892757461e-15 32.40000000000006963 -5.395683899678271988e-15 1 I I 0 1 32.40000000000006963 forward I I I I #
coedge $-1 $123 $123 $135 $154 forward $97 $-1 #
edge $-1 $155 0.378229509522213625 $155 6.661414816701800135 $98 $156 forward 7 unknown #
coedge $-1 $125 $125 $99 $126 reversed $134 $-1 #
edge $-1 $157 -3.141592653589793116 $157 3.141592653589793116 $99 $158 forward 7 unknown #
vertex $-1 $101 $159 #
ellipse-curve $-1 1.389764270885413211 -8.900917435641076736 12.7004445092378031 -1 -1.665334536937734811e-16 1.387778780781445676e-15 1.028641151394915574e-16 -1.853035162448039896 3.085923454184746599e-16 1 I I #
loop $-1 $107 $102 $68 #
vertex $-1 $103 $160 #
ellipse-curve $-1 5.389764270885390118 -46.1456350195601388 -2.726822640777115225 1 1.665334536937734811e-16 -1.387778780781445676e-15 1.028641151394915574e-16 -1.853035162448039896 3.085923454184747092e-16 1 I I #
point $-1 1.389764270885394559 -44.2925998571120445 -2.726822640777115225 #
point $-1 5.389764270885417652 -81.53731744103112078 12.70044450923779777 #
loop $-1 $129 $125 $68 #
coedge $-1 $135 $135 $123 $154 reversed $112 $-1 #
coedge $-1 $161 $113 $162 $163 reversed $90 $-1 #
coedge $-1 $113 $164 $165 $166 reversed $90 $-1 #
coedge $-1 $167 $168 $113 $139 forward $169 $-1 #
edge $-1 $170 0.8571214905260728933 $171 3.421630306703115298 $138 $172 forward 7 unknown #
coedge $-1 $173 $116 $174 $175 reversed $70 $-1 #
coedge $-1 $168 $167 $116 $142 forward $169 $-1 #
edge $-1 $176 2.861555000476470934 $148 5.426063816653513783 $141 $177 forward 7 unknown #
coedge $-1 $117 $178 $179 $180 reversed $70 $-1 #
coedge $-1 $181 $182 $117 $145 forward $121 $-1 #
edge $-1 $149 -0.8571214905260724493 $183 1.570796326794897002 $144 $184 forward 7 unknown #
coedge $-1 $162 $118 $182 $185 reversed $95 $-1 #
coedge $-1 $118 $162 $168 $186 forward $95 $-1 #
vertex $-1 $186 $187 #
vertex $-1 $185 $188 #
straight-curve $-1 1.389764270885405217 -8.832513377108684338 6.855361057463530194 7.825696393064528977e-16 0.7559613783853984526 0.6546162191617685977 I I #
face $-1 $189 $190 $2 $-1 $191 forward single #
loop $-1 $-1 $179 $120 #
plane-surface $-1 5.389764270885537556 19.84211267724118954 106.9451620931568385 1.332267629550187849e-15 -2.336631106850923339e-16 1 1000 1.665334536937734811e-13 -1.387778780781445676e-12 forward_v I I I I #
edge $-1 $192 -0.3782295095222137915 $192 5.904955797657372329 $123 $193 forward 7 unknown #
vertex $-1 $124 $194 #
ellipse-curve $-1 1.389764270885471387 -46.11786004042868115 50.00000000000007816 -1 -1.665334536937734811e-16 1.387778780781445676e-15 2.495953982259717241e-15 -44.9631096977550726 7.487861946779150145e-15 1 I I #
vertex $-1 $126 $195 #
ellipse-curve $-1 5.389764270885405217 -8.900917435641076736 12.70044450923779777 1 1.665334536937734811e-16 -1.387778780781445676e-15 1.028641151394915574e-16 -1.853035162448039896 3.085923454184746599e-16 1 I I #
point $-1 1.389764270885413211 -7.047882273192954017 12.70044450923779777 #
point $-1 5.389764270885394559 -44.2925998571120445 -2.726822640777115225 #
coedge $-1 $196 $136 $197 $198 reversed $90 $-1 #
coedge $-1 $147 $146 $136 $163 forward $95 $-1 #
edge $-1 $199 -66.6818793297178587 $170 -0.6941316329166560273 $162 $200 forward 7 unknown #
coedge $-1 $137 $201 $202 $203 reversed $90 $-1 #
coedge $-1 $204 $205 $137 $166 forward $206 $-1 #
edge $-1 $171 2.861555000476464272 $207 3.674310561845222978 $165 $208 forward 7 unknown #
coedge $-1 $141 $138 $205 $209 forward $169 $-1 #
coedge $-1 $138 $141 $147 $186 reversed $169 $-1 #
loop $-1 $-1 $141 $210 #
vertex $-1 $139 $211 #
vertex $-1 $139 $212 #
ellipse-curve $-1 5.389764270885462949 -46.1456350195601317 49.94516209315678879 -1 -1.665334536937734811e-16 1.387778780781445676e-15 -3.164135620181643681e-15 56.99999999999905498 -9.492406860544930648e-15 1 I I #
coedge $-1 $213 $140 $214 $215 reversed $70 $-1 #
coedge $-1 $205 $204 $140 $175 forward $206 $-1 #
edge $-1 $216 2.608874745334363254 $176 3.421630306703117075 $174 $217 forward 7 unknown #
vertex $-1 $209 $218 #
ellipse-curve $-1 1.389764270885471387 -46.1456350195601317 49.94516209315679589 1 1.665334536937734811e-16 -1.387778780781445676e-15 -3.164135620181643681e-15 56.99999999999905498 -9.492406860544930648e-15 1 I I #
coedge $-1 $143 $213 $219 $220 reversed $70 $-1 #
coedge $-1 $221 $222 $143 $180 forward $152 $-1 #
edge $-1 $183 -14.3373130271747975 $223 51.6504346696265344 $179 $224 forward 7 unknown #
coedge $-1 $197 $144 $222 $225 reversed $121 $-1 #
coedge $-1 $144 $197 $146 $185 forward $121 $-1 #
vertex $-1 $225 $226 #
ellipse-curve $-1 1.389764270885494923 19.84211267724104744 74.54516209315674757 1 1.665334536937734811e-16 -1.387778780781445676e-15 -1.798561299892757461e-15 32.40000000000006963 -5.395683899678271988e-15 1 I I #
edge $-1 $199 6.217248937900854538e-15 $149 3.999999999999996891 $182 $227 forward 7 unknown #
edge $-1 $170 -2.664535259099308763e-15 $148 3.999999999999992895 $147 $228 forward 7 unknown #
point $-1 1.389764270885405217 -8.832510527339342943 6.855363525189110518 #
point $-1 1.38976427088545984 41.05167817808240471 50.0520134334697957 #
face $-1 $229 $230 $2 $-1 $231 forward single #
loop $-1 $-1 $219 $151 #
cone-surface $-1 5.389764270885464725 -46.14563501956028091 49.94516209315777644 -1 -1.665334536937734811e-16 1.387778780781445676e-15 -3.164135620181643681e-15 56.99999999999905498 -9.492406860544932226e-15 1 I I 0 1 56.99999999999905498 forward I I I I #
vertex $-1 $154 $232 #
ellipse-curve $-1 5.389764270885462949 -46.11786004042868115 50.00000000000007105 1 1.665334536937734811e-16 -1.387778780781445676e-15 2.495953982259717241e-15 -44.9631096977550726 7.487861946779150145e-15 1 I I #
point $-1 1.389764270885489594 -87.902972238365777 66.60378367415592038 #
point $-1 5.389764270885413211 -7.047882273192954017 12.70044450923779777 #
coedge $-1 $233 $161 $234 $235 reversed $90 $-1 #
coedge $-1 $182 $181 $161 $198 forward $121 $-1 #
edge $-1 $236 -1.570796326794897002 $199 0.8571214905260726713 $197 $237 forward 7 unknown #
vertex $-1 $198 $238 #
straight-curve $-1 5.389764270885396336 -9.357247233339919035 6.400973700048609771 -7.825696393064528977e-16 -0.7559613783853984526 -0.6546162191617685977 I I #
coedge $-1 $164 $233 $239 $240 reversed $90 $-1 #
coedge $-1 $241 $242 $164 $203 forward $243 $-1 #
edge $-1 $207 2.608874745334358813 $244 5.245106888640025389 $202 $245 forward 7 unknown #
coedge $-1 $174 $165 $242 $246 forward $206 $-1 #
coedge $-1 $165 $174 $167 $209 reversed $206 $-1 #
loop $-1 $-1 $174 $247 #
vertex $-1 $166 $248 #
ellipse-curve $-1 5.389764270885495812 -103.8083369382930243 66.52867219900745965 1 1.665334536937734811e-16 -1.387778780781445676e-15 1.665334536939183603e-16 -3.000000000002609912 4.996003610817550069e-16 1 I I #
edge $-1 $171 7.993605777304156317e-15 $176 3.999999999999999556 $167 $249 forward 7 unknown #
face $-1 $68 $169 $2 $-1 $250 forward single #
point $-1 5.389764270885400776 -8.832510527339941575 6.855363525189794416 #
point $-1 5.389764270885487818 -100.9252018423593427 65.69949669371575851 #
coedge $-1 $178 $173 $251 $252 reversed $70 $-1 #
coedge $-1 $242 $241 $173 $215 forward $243 $-1 #
edge $-1 $253 1.038078418539561065 $216 3.674310561845227419 $214 $254 forward 7 unknown #
vertex $-1 $246 $255 #
ellipse-curve $-1 1.389764270885503805 -103.8083369382930243 66.52867219900745965 -1 -1.665334536937734811e-16 1.387778780781445676e-15 1.665334536939183603e-16 -3.000000000002609912 4.996003610817550069e-16 1 I I #
point $-1 1.389764270885496256 -100.9252018423593427 65.69949669371577272 #
coedge $-1 $256 $257 $178 $220 forward $190 $-1 #
edge $-1 $223 1.570796326794897224 $258 1.850833979908171445 $219 $259 forward 7 unknown #
coedge $-1 $234 $179 $257 $260 reversed $152 $-1 #
coedge $-1 $179 $234 $181 $225 forward $152 $-1 #
vertex $-1 $260 $261 #
straight-curve $-1 1.389764270885541997 5.504799650066241945 106.9451620931568385 1.665334536937731606e-16 -1 -2.336631106850925311e-16 I I #
edge $-1 $236 7.993605777301127091e-15 $183 4 $222 $262 forward 7 unknown #
point $-1 1.389764270885539554 19.84211267724104033 106.9451620931568385 #
straight-curve $-1 5.389764270885456732 41.0516781780823834 50.05201343346980991 -1 -1.665334536937734811e-16 1.387778780781445676e-15 I I #
straight-curve $-1 5.389764270885398112 -8.832510527339337614 6.855363525189098084 -1 -1.665334536937734811e-16 1.387778780781445676e-15 I I #
face $-1 $247 $243 $2 $-1 $263 forward single #
loop $-1 $-1 $251 $189 #
cone-surface $-1 5.389764270885542885 -62.7291451254098007 107.607864011897135 -1 -1.665334536937734811e-16 1.387778780781445676e-15 1.665334536939183603e-16 -3.000000000002609912 4.996003610817551055e-16 1 I I 0 -1 3.000000000002609912 forward I I I I #
point $-1 5.389764270885489594 -87.902972238365777 66.60378367415592038 #
coedge $-1 $201 $196 $264 $265 reversed $90 $-1 #
coedge $-1 $222 $221 $196 $235 forward $152 $-1 #
edge $-1 $266 -27.72663216699131539 $236 38.26111552981002006 $234 $267 forward 7 unknown #
vertex $-1 $235 $268 #
ellipse-curve $-1 5.389764270885486042 19.84211267724104744 74.54516209315674757 -1 -1.665334536937734811e-16 1.387778780781445676e-15 -1.798561299892757461e-15 32.40000000000006963 -5.395683899678271988e-15 1 I I #
point $-1 5.389764270885450514 41.05167817808239761 50.0520134334697957 #
coedge $-1 $269 $270 $201 $240 forward $230 $-1 #
edge $-1 $244 1.038078418539558623 $271 1.850833979908170557 $239 $272 forward 7 unknown #
coedge $-1 $214 $202 $270 $273 forward $243 $-1 #
coedge $-1 $202 $214 $204 $246 reversed $243 $-1 #
loop $-1 $-1 $214 $229 #
vertex $-1 $203 $274 #
ellipse-curve $-1 5.389764270885512687 -77.96544017295487095 81.76496724655154935 -1 -1.665334536937734811e-16 1.387778780781445676e-15 -1.498801083243959949e-15 26.99999999999997513 -4.496403249731880044e-15 1 I I #
edge $-1 $207 -5.329070518200377474e-15 $216 3.999999999999986677 $204 $275 forward 7 unknown #
face $-1 $210 $206 $2 $-1 $276 forward single #
point $-1 5.389764270885497588 -101.2240472617565814 68.05230170376340482 #
straight-curve $-1 5.389764270885495812 -100.9252018423539425 65.69949669371422374 -1 -1.665334536937734811e-16 1.387778780781445676e-15 I I #
cone-surface $-1 5.389764270885464725 -46.1456350195601317 49.94516209315678879 -1 -1.665334536937734811e-16 1.387778780781445676e-15 -3.164135620181643681e-15 56.99999999999905498 -9.492406860544930648e-15 1 I I 0 1 57.00000000000010658 forward I I I I #
coedge $-1 $270 $269 $213 $252 forward $230 $-1 #
edge $-1 $258 -1.850833979908170557 $253 -1.038078418539558623 $251 $277 forward 7 unknown #
vertex $-1 $273 $278 #
ellipse-curve $-1 1.389764270885520681 -77.96544017295487095 81.76496724655154935 1 1.665334536937734811e-16 -1.387778780781445676e-15 -1.498801083243959949e-15 26.99999999999997513 -4.496403249731880044e-15 1 I I #
point $-1 1.389764270885505804 -101.2240472617565814 68.05230170376340482 #
coedge $-1 $264 $219 $269 $279 reversed $190 $-1 #
coedge $-1 $219 $264 $221 $260 forward $190 $-1 #
vertex $-1 $279 $280 #
ellipse-curve $-1 1.389764270885471387 -46.14563501956028091 49.94516209315778354 1 1.665334536937734811e-16 -1.387778780781445676e-15 -3.164135620181643681e-15 56.99999999999905498 -9.492406860544932226e-15 1 I I #
edge $-1 $266 1.776356839400250465e-15 $223 3.999999999999993339 $257 $281 forward 7 unknown #
point $-1 1.389764270885550435 -46.14563501956029512 106.9451620931568385 #
straight-curve $-1 5.389764270885539332 19.84211267724104033 106.9451620931568385 -1 -1.665334536937734811e-16 1.387778780781445676e-15 I I #
cone-surface $-1 5.389764270885509134 -77.96544017295487095 81.76496724655154935 -1 -1.665334536937734811e-16 1.387778780781445676e-15 -1.498801083243959949e-15 26.99999999999997513 -4.496403249731880044e-15 1 I I 0 1 26.99999999999997513 forward I I I I #
coedge $-1 $257 $256 $233 $265 forward $190 $-1 #
edge $-1 $271 -1.850833979908171223 $266 -1.570796326794897224 $264 $282 forward 7 unknown #
vertex $-1 $265 $283 #
straight-curve $-1 5.389764270885537556 -18.41900285256897973 106.9451620931568243 -1.665334536937731606e-16 1 2.336631106850925311e-16 I I #
point $-1 5.389764270885531339 19.84211267724104033 106.9451620931568385 #
coedge $-1 $251 $239 $256 $279 forward $230 $-1 #
coedge $-1 $239 $251 $241 $273 reversed $230 $-1 #
vertex $-1 $240 $284 #
ellipse-curve $-1 5.389764270885546438 -62.7291451254098007 107.607864011897135 1 1.665334536937734811e-16 -1.387778780781445676e-15 1.665334536939183603e-16 -3.000000000002609912 4.996003610817551055e-16 1 I I #
edge $-1 $244 -4.440892098500643517e-15 $253 3.999999999999987121 $241 $285 forward 7 unknown #
point $-1 5.389764270885543773 -64.25277463016551849 105.0235743353605358 #
straight-curve $-1 5.389764270885492259 -101.2240472617571783 68.05230170376306376 -1 -1.665334536937734811e-16 1.387778780781445676e-15 I I #
cone-surface $-1 5.389764270885490482 -103.8083369382930243 66.52867219900745965 -1 -1.665334536937734811e-16 1.387778780781445676e-15 1.665334536939183603e-16 -3.000000000002609912 4.996003610817550069e-16 1 I I 0 -1 2.999999999995685673 forward I I I I #
ellipse-curve $-1 1.389764270885553987 -62.7291451254098007 107.607864011897135 -1 -1.665334536937734811e-16 1.387778780781445676e-15 1.665334536939183603e-16 -3.000000000002609912 4.996003610817551055e-16 1 I I #
point $-1 1.389764270885552211 -64.25277463016551849 105.0235743353605358 #
edge $-1 $271 -3.552713678800500929e-15 $258 3.999999999999988454 $269 $286 forward 7 unknown #
point $-1 1.38976427088554999 -61.89996962011662873 104.7247289159577406 #
straight-curve $-1 5.389764270885543773 -46.14563501956029512 106.9451620931568243 -1 -1.665334536937734811e-16 1.387778780781445676e-15 I I #
ellipse-curve $-1 5.389764270885462949 -46.14563501956028091 49.94516209315777644 -1 -1.665334536937734811e-16 1.387778780781445676e-15 -3.164135620181643681e-15 56.99999999999905498 -9.492406860544932226e-15 1 I I #
point $-1 5.389764270885541997 -46.14563501956029512 106.9451620931568243 #
point $-1 5.389764270885541997 -61.89996962011662873 104.7247289159577406 #
straight-curve $-1 5.389764270885539332 -64.25277463016550428 105.02357433536055 -1 -1.665334536937734811e-16 1.387778780781445676e-15 I I #
straight-curve $-1 5.389764270885538444 -61.89996962011662873 104.7247289159577406 -1 -1.665334536937734811e-16 1.387778780781445676e-15 I I #
End-of-ACIS-data 