500 0 1 0           
7 Unknown 13 ACIS 5.0.1 NT 24 Thu Jun 17 11:56:28 1999 
1 9.9999999999999995e-007 1e-010 
body $-1 $1 $-1 $2 #
lump $-1 $-1 $3 $0 #
transform $-1 -5.5511151231257827e-017 1 -1.6653345369377348e-016 -1.3322676295501878e-015 -5.5511151231257827e-017 -1 -1 -1.6653345369377348e-016 1.3877787807814457e-015 5.3897642708855384 -77.218074952838876 103.82805064111423 1000 rotate no_reflect no_shear #
shell $-1 $-1 $-1 $4 $-1 $1 #
face $-1 $5 $6 $3 $-1 $7 forward single #
face $-1 $8 $9 $3 $-1 $10 forward single #
loop $-1 $11 $12 $4 #
cone-surface $-1 -0.021599544800655273 0.053882888547957392 0 0 0 1 -0.0018530351624480399 0 0 1 I I 0 -1 0.0018530351624480399 forward I I I I #
face $-1 $13 $14 $3 $-1 $15 forward single #
loop $-1 $16 $17 $5 #
cone-surface $-1 -0.01721109605290215 0.005599352561776634 0 0 0 1 -0.001853035162448049 0 0 1 I I 0 -1 0.001853035162448049 forward I I I I #
loop $-1 $-1 $18 $4 #
coedge $-1 $12 $12 $19 $20 forward $6 $-1 #
face $-1 $21 $22 $3 $-1 $23 forward single #
loop $-1 $24 $25 $8 #
cone-surface $-1 0.03107243993327866 0.0012109038140233619 0 0 0 1 -0.0018530351624480535 0 0 1 I I 0 -1 0.0018530351624480535 forward I I I I #
loop $-1 $-1 $26 $5 #
coedge $-1 $17 $17 $27 $28 forward $9 $-1 #
coedge $-1 $18 $18 $29 $30 forward $11 $-1 #
coedge $-1 $19 $19 $12 $20 reversed $31 $-1 #
edge $32 $33 -3.1415926535898073 $33 3.1415926535897931 $12 $34 forward 7 unknown #
face $-1 $35 $36 $3 $-1 $37 forward single #
loop $-1 $38 $39 $13 #
cone-surface $-1 -0.0061722776506403301 0.09112760613187644 0 0 0 1 -0.0018530351624480954 0 0 1 I I 0 -1 0.0018530351624480954 forward I I I I #
loop $-1 $-1 $40 $8 #
coedge $-1 $25 $25 $41 $42 forward $14 $-1 #
coedge $-1 $26 $26 $43 $44 forward $16 $-1 #
coedge $-1 $27 $27 $17 $28 reversed $45 $-1 #
edge $46 $47 -3.1415926535898073 $47 3.1415926535897931 $17 $48 forward 7 unknown #
coedge $-1 $29 $29 $18 $30 reversed $49 $-1 #
edge $50 $51 -3.1415926535898073 $51 3.1415926535897931 $18 $52 forward 7 unknown #
loop $-1 $-1 $19 $53 #
ptlist-eye-attrib $-1 $-1 $-1 $20 #
vertex $-1 $20 $54 #
ellipse-curve $-1 -0.021599544800655273 0.053882888547957392 0.0040000000000000001 0 0 1 -0.0018530351624480399 0 0 1 I I #
face $-1 $55 $56 $3 $-1 $57 forward single #
loop $-1 $58 $59 $21 #
cone-surface $-1 0.031072439933278743 0.10655487328189135 0 0 0 1 -0.0018530351624480982 0 0 1 I I 0 -1 0.0018530351624480982 forward I I I I #
loop $-1 $-1 $60 $13 #
coedge $-1 $39 $39 $61 $62 forward $22 $-1 #
coedge $-1 $40 $40 $63 $64 forward $24 $-1 #
coedge $-1 $41 $41 $25 $42 reversed $65 $-1 #
edge $66 $67 -3.1415926535898073 $67 3.1415926535897931 $25 $68 forward 7 unknown #
coedge $-1 $43 $43 $26 $44 reversed $69 $-1 #
edge $70 $71 -3.1415926535898073 $71 3.1415926535897931 $26 $72 forward 7 unknown #
loop $-1 $31 $27 $53 #
ptlist-eye-attrib $-1 $-1 $-1 $28 #
vertex $-1 $28 $73 #
ellipse-curve $-1 -0.01721109605290215 0.005599352561776634 0.0040000000000000001 0 0 1 -0.001853035162448049 0 0 1 I I #
loop $-1 $-1 $29 $74 #
ptlist-eye-attrib $-1 $-1 $-1 $30 #
vertex $-1 $30 $75 #
ellipse-curve $-1 -0.021599544800655273 0.053882888547957392 0 0 0 -1 -0.0018530351624480399 0 0 1 I I #
face $-1 $-1 $76 $3 $-1 $77 forward single #
point $-1 -0.019746509638207232 0.053882888547957392 0.0040000000000000001 #
face $-1 $78 $79 $3 $-1 $80 forward single #
loop $-1 $81 $82 $35 #
cone-surface $-1 0.068317157517197802 0.091127606131876412 0 0 0 1 -0.0018530351624481073 0 0 1 I I 0 -1 0.0018530351624481073 forward I I I I #
loop $-1 $-1 $83 $21 #
coedge $-1 $59 $59 $84 $85 forward $36 $-1 #
coedge $-1 $60 $60 $86 $87 forward $38 $-1 #
coedge $-1 $61 $61 $39 $62 reversed $88 $-1 #
edge $89 $90 -3.1415926535898073 $90 3.1415926535897931 $39 $91 forward 7 unknown #
coedge $-1 $63 $63 $40 $64 reversed $92 $-1 #
edge $93 $94 -3.1415926535898073 $94 3.1415926535897931 $40 $95 forward 7 unknown #
loop $-1 $45 $41 $53 #
ptlist-eye-attrib $-1 $-1 $-1 $42 #
vertex $-1 $42 $96 #
ellipse-curve $-1 0.03107243993327866 0.0012109038140233619 0.0040000000000000001 0 0 1 -0.0018530351624480535 0 0 1 I I #
loop $-1 $49 $43 $74 #
ptlist-eye-attrib $-1 $-1 $-1 $44 #
vertex $-1 $44 $97 #
ellipse-curve $-1 -0.01721109605290215 0.005599352561776634 0 0 0 -1 -0.001853035162448049 0 0 1 I I #
point $-1 -0.015358060890454101 0.005599352561776634 0.0040000000000000001 #
face $-1 $53 $98 $3 $-1 $99 forward single #
point $-1 -0.019746509638207232 0.053882888547957392 0 #
loop $-1 $100 $101 $53 #
plane-surface $-1 0.068385561575730197 0.096972689583650698 0.0040000000000000001 0 0 1 1 0 0 forward_v I I I I #
face $-1 $102 $103 $3 $-1 $104 forward single #
loop $-1 $105 $106 $55 #
cone-surface $-1 0.031100214912410194 0.05382805064111415 0 0 0 1 -0.04496310969775507 0 0 1 I I 0 -1 0.04496310969775507 forward I I I I #
loop $-1 $-1 $107 $35 #
coedge $-1 $82 $82 $108 $109 forward $56 $-1 #
coedge $-1 $83 $83 $110 $111 forward $58 $-1 #
coedge $-1 $84 $84 $59 $85 reversed $112 $-1 #
edge $113 $114 -3.1415926535898073 $114 3.1415926535897931 $59 $115 forward 7 unknown #
coedge $-1 $86 $86 $60 $87 reversed $116 $-1 #
edge $117 $118 -3.1415926535898073 $118 3.1415926535897931 $60 $119 forward 7 unknown #
loop $-1 $65 $61 $53 #
ptlist-eye-attrib $-1 $-1 $-1 $62 #
vertex $-1 $62 $120 #
ellipse-curve $-1 -0.0061722776506403301 0.09112760613187644 0.0040000000000000001 0 0 1 -0.0018530351624480954 0 0 1 I I #
loop $-1 $69 $63 $74 #
ptlist-eye-attrib $-1 $-1 $-1 $64 #
vertex $-1 $64 $121 #
ellipse-curve $-1 0.03107243993327866 0.0012109038140233619 0 0 0 -1 -0.0018530351624480535 0 0 1 I I #
point $-1 0.032925475095726714 0.0012109038140233619 0.0040000000000000001 #
point $-1 -0.015358060890454101 0.005599352561776634 0 #
loop $-1 $122 $123 $74 #
plane-surface $-1 0.020537956570459742 0.043838219816941443 0 0 0 -1 -1 0 0 forward_v I I I I #
loop $-1 $124 $125 $53 #
coedge $-1 $126 $127 $128 $129 reversed $76 $-1 #
face $-1 $130 $131 $3 $-1 $132 forward single #
loop $-1 $-1 $128 $78 #
plane-surface $-1 0.068385561575730197 0.096972689583650698 0 0.6546162191617686 0.75596137838539834 0 0 0 -1 forward_v I I I I #
loop $-1 $-1 $133 $55 #
coedge $-1 $106 $106 $125 $134 forward $79 $-1 #
coedge $-1 $107 $107 $135 $136 forward $81 $-1 #
coedge $-1 $108 $108 $82 $109 reversed $124 $-1 #
edge $137 $138 -3.1415926535898073 $138 3.1415926535897931 $82 $139 forward 7 unknown #
coedge $-1 $110 $110 $83 $111 reversed $140 $-1 #
edge $141 $142 -3.1415926535898073 $142 3.1415926535897931 $83 $143 forward 7 unknown #
loop $-1 $88 $84 $53 #
ptlist-eye-attrib $-1 $-1 $-1 $85 #
vertex $-1 $85 $144 #
ellipse-curve $-1 0.031072439933278743 0.10655487328189135 0.0040000000000000001 0 0 1 -0.0018530351624480982 0 0 1 I I #
loop $-1 $92 $86 $74 #
ptlist-eye-attrib $-1 $-1 $-1 $87 #
vertex $-1 $87 $145 #
ellipse-curve $-1 -0.0061722776506403301 0.09112760613187644 0 0 0 -1 -0.0018530351624480954 0 0 1 I I #
point $-1 -0.0043192424881922341 0.09112760613187644 0.0040000000000000001 #
point $-1 0.032925475095726714 0.0012109038140233619 0 #
loop $-1 $146 $147 $74 #
coedge $-1 $148 $149 $150 $151 reversed $98 $-1 #
loop $-1 $112 $108 $53 #
coedge $-1 $125 $125 $106 $134 reversed $100 $-1 #
coedge $-1 $152 $101 $153 $154 reversed $76 $-1 #
coedge $-1 $101 $155 $156 $157 reversed $76 $-1 #
coedge $-1 $158 $159 $101 $129 forward $103 $-1 #
edge $160 $161 -0.065987751466530131 $162 0 $128 $163 forward 7 unknown #
face $-1 $164 $165 $3 $-1 $166 forward single #
loop $-1 $-1 $156 $102 #
cone-surface $-1 0.097060187630079925 0.029282888547957468 0 0 0 1 0.032400000000000068 0 0 1 I I 0 1 0.032400000000000068 forward I I I I #
coedge $-1 $133 $133 $147 $167 forward $105 $-1 #
edge $168 $169 0.37822950952221368 $169 6.6614148167018143 $106 $170 forward 7 unknown #
coedge $-1 $135 $135 $107 $136 reversed $146 $-1 #
edge $171 $172 -3.1415926535898073 $172 3.1415926535897931 $107 $173 forward 7 unknown #
ptlist-eye-attrib $-1 $-1 $-1 $109 #
vertex $-1 $109 $174 #
ellipse-curve $-1 0.068317157517197802 0.091127606131876412 0.0040000000000000001 0 0 1 -0.0018530351624481073 0 0 1 I I #
loop $-1 $116 $110 $74 #
ptlist-eye-attrib $-1 $-1 $-1 $111 #
vertex $-1 $111 $175 #
ellipse-curve $-1 0.031072439933278743 0.10655487328189135 0 0 0 -1 -0.0018530351624480982 0 0 1 I I #
point $-1 0.032925475095726839 0.10655487328189135 0.0040000000000000001 #
point $-1 -0.0043192424881922341 0.09112760613187644 0 #
loop $-1 $140 $135 $74 #
coedge $-1 $147 $147 $133 $167 reversed $122 $-1 #
coedge $-1 $176 $123 $177 $178 reversed $98 $-1 #
coedge $-1 $123 $179 $180 $181 reversed $98 $-1 #
coedge $-1 $182 $183 $123 $151 forward $184 $-1 #
edge $185 $186 0.85712155666166501 $187 3.4216303067031029 $150 $188 forward 7 unknown #
coedge $-1 $189 $126 $190 $191 reversed $76 $-1 #
coedge $-1 $183 $182 $126 $154 forward $184 $-1 #
edge $192 $193 -3.4216303067031029 $161 -0.85712155666166501 $153 $194 forward 7 unknown #
coedge $-1 $127 $195 $196 $197 reversed $76 $-1 #
coedge $-1 $198 $199 $127 $157 forward $131 $-1 #
edge $200 $162 -0.85712149052606723 $201 1.5707963267948923 $156 $202 forward 7 unknown #
coedge $-1 $177 $128 $199 $203 reversed $103 $-1 #
coedge $-1 $128 $177 $183 $204 forward $103 $-1 #
ptlist-eye-attrib $-1 $-1 $-1 $129 #
vertex $-1 $204 $205 #
vertex $-1 $203 $206 #
straight-curve $-1 0.1182697531309214 0.053776037207644289 0.0040000000000000001 0.75596137838539834 -0.6546162191617686 0 I I #
face $-1 $207 $208 $3 $-1 $209 forward single #
loop $-1 $-1 $196 $130 #
plane-surface $-1 0.097060187630080064 -0.0031171114520426283 0 -2.8917426191635016e-016 -1 0 0 0 -1 forward_v I I I I #
edge $210 $211 -0.37822950952221412 $211 5.9049557976573865 $133 $212 forward 7 unknown #
ptlist-eye-attrib $-1 $-1 $-1 $134 #
vertex $-1 $134 $213 #
ellipse-curve $-1 0.031100214912410194 0.05382805064111415 0.0040000000000000001 0 0 1 -0.04496310969775507 0 0 1 I I #
ptlist-eye-attrib $-1 $-1 $-1 $136 #
vertex $-1 $136 $214 #
ellipse-curve $-1 0.068317157517197802 0.091127606131876412 0 0 0 -1 -0.0018530351624481073 0 0 1 I I #
point $-1 0.070170192679645915 0.091127606131876412 0.0040000000000000001 #
point $-1 0.032925475095726839 0.10655487328189135 0 #
coedge $-1 $215 $148 $216 $217 reversed $98 $-1 #
coedge $-1 $159 $158 $148 $178 forward $103 $-1 #
edge $218 $219 0 $186 0.065987751466530131 $177 $220 forward 7 unknown #
coedge $-1 $149 $221 $222 $223 reversed $98 $-1 #
coedge $-1 $224 $225 $149 $181 forward $226 $-1 #
edge $227 $187 2.8615550004759593 $228 3.6743105618455294 $180 $229 forward 7 unknown #
coedge $-1 $153 $150 $225 $230 forward $184 $-1 #
coedge $-1 $150 $153 $159 $204 reversed $184 $-1 #
loop $-1 $-1 $153 $231 #
ptlist-eye-attrib $-1 $-1 $-1 $151 #
vertex $-1 $151 $232 #
vertex $-1 $151 $233 #
ellipse-curve $-1 0.031072439933278743 0.053882888547957433 0 0 0 1 0.057000000000000106 0 0 1 F 0.85712155666166501 F 3.4216303067031029 #
coedge $-1 $234 $152 $235 $236 reversed $76 $-1 #
coedge $-1 $225 $224 $152 $191 forward $226 $-1 #
edge $237 $238 -3.6743105618455294 $193 -2.8615550004759593 $190 $239 forward 7 unknown #
ptlist-eye-attrib $-1 $-1 $-1 $154 #
vertex $-1 $230 $240 #
ellipse-curve $-1 0.031072439933278743 0.053882888547957433 0.0040000000000000001 0 0 -1 0.057000000000000106 0 0 1 F -3.4216303067031029 F -0.85712155666166501 #
coedge $-1 $155 $234 $241 $242 reversed $76 $-1 #
coedge $-1 $243 $244 $155 $197 forward $165 $-1 #
edge $245 $201 -0.065987747696801394 $246 6.2704672599319823e-034 $196 $247 forward 7 unknown #
coedge $-1 $216 $156 $244 $248 reversed $131 $-1 #
coedge $-1 $156 $216 $158 $203 forward $131 $-1 #
ptlist-eye-attrib $-1 $-1 $-1 $157 #
vertex $-1 $248 $249 #
ellipse-curve $-1 0.097060187630079925 0.029282888547957468 0.0040000000000000001 0 0 -1 0.032400000000000068 0 0 1 F -0.85712149052606723 F 1.5707963267948923 #
edge $250 $219 0 $162 0.0040000000000000001 $199 $251 forward 7 unknown #
edge $252 $186 0 $161 0.0040000000000000001 $159 $253 forward 7 unknown #
point $-1 0.068385561575730197 0.096972689583650698 0.0040000000000000001 #
point $-1 0.1182697531309214 0.053776037207644289 0.0040000000000000001 #
face $-1 $254 $255 $3 $-1 $256 forward single #
loop $-1 $-1 $241 $164 #
cone-surface $-1 0.031072439933278597 0.053882888547956448 0 0 0 1 0.056999999999999058 0 0 1 I I 0 1 0.056999999999999058 forward I I I I #
ptlist-eye-attrib $-1 $-1 $-1 $167 #
vertex $-1 $167 $257 #
ellipse-curve $-1 0.031100214912410249 0.053828050641114192 0 0 0 -1 -0.044963109697755133 0 0 1 I I #
point $-1 -0.010684897285526903 0.037224266966958311 0.0040000000000000001 #
point $-1 0.070170192679645915 0.091127606131876412 0 #
coedge $-1 $258 $176 $259 $260 reversed $98 $-1 #
coedge $-1 $199 $198 $176 $217 forward $131 $-1 #
edge $261 $262 -1.5707963267948923 $219 0.85712149052606723 $216 $263 forward 7 unknown #
ptlist-eye-attrib $-1 $-1 $-1 $178 #
vertex $-1 $217 $264 #
straight-curve $-1 0.1182697531309214 0.053776037207644289 0 -0.75596137838539834 0.6546162191617686 0 I I #
coedge $-1 $179 $258 $265 $266 reversed $98 $-1 #
coedge $-1 $267 $268 $179 $223 forward $269 $-1 #
edge $270 $228 2.6088747453343917 $271 5.2451068886400947 $222 $272 forward 7 unknown #
coedge $-1 $190 $180 $268 $273 forward $226 $-1 #
coedge $-1 $180 $190 $182 $230 reversed $226 $-1 #
loop $-1 $-1 $190 $274 #
ptlist-eye-attrib $-1 $-1 $-1 $181 #
vertex $-1 $181 $275 #
ellipse-curve $-1 -0.026590261985454139 0.037299378442106776 0 0 0 -1 -0.0029999999999956858 0 0 1 F 2.8615550004759593 F 3.6743105618455294 #
edge $276 $187 0 $193 0.0040000000000000001 $182 $277 forward 7 unknown #
face $-1 $74 $184 $3 $-1 $278 forward single #
point $-1 0.068385561575730197 0.096972689583650698 0 #
point $-1 -0.023707126889521892 0.03812855394739964 0 #
coedge $-1 $195 $189 $279 $280 reversed $76 $-1 #
coedge $-1 $268 $267 $189 $236 forward $269 $-1 #
edge $281 $282 -5.2451068886400947 $238 -2.6088747453343917 $235 $283 forward 7 unknown #
ptlist-eye-attrib $-1 $-1 $-1 $191 #
vertex $-1 $273 $284 #
ellipse-curve $-1 -0.026590261985454139 0.037299378442106776 0.0040000000000000001 0 0 1 -0.0029999999999956858 0 0 1 F -3.6743105618455294 F -2.8615550004759593 #
point $-1 -0.023707126889521892 0.03812855394739964 0.0040000000000000001 #
coedge $-1 $285 $286 $195 $242 forward $208 $-1 #
edge $287 $246 1.5707963267948952 $288 1.8508339799081739 $241 $289 forward 7 unknown #
coedge $-1 $259 $196 $286 $290 reversed $165 $-1 #
coedge $-1 $196 $259 $198 $248 forward $165 $-1 #
ptlist-eye-attrib $-1 $-1 $-1 $197 #
vertex $-1 $290 $291 #
straight-curve $-1 0.031072439933278673 -0.0031171114520426092 0.0040000000000000001 -1 2.8917426191635016e-016 0 I I #
edge $292 $262 0 $201 0.0040000000000000001 $244 $293 forward 7 unknown #
point $-1 0.097060187630080064 -0.0031171114520426283 0.0040000000000000001 #
ptlist-eye-attrib $-1 $-1 $-1 $203 #
straight-curve $-1 0.1182697531309214 0.053776037207644289 0 0 0 1 I I #
ptlist-eye-attrib $-1 $-1 $-1 $204 #
straight-curve $-1 0.068385561575730197 0.096972689583650698 0 0 0 1 I I #
face $-1 $274 $269 $3 $-1 $294 forward single #
loop $-1 $-1 $279 $207 #
cone-surface $-1 0.014488929827429071 -0.0037798133707828995 0 0 0 1 -0.00300000000000261 0 0 1 I I 0 -1 0.00300000000000261 forward I I I I #
point $-1 -0.010684897285526903 0.037224266966958311 0 #
coedge $-1 $221 $215 $295 $296 reversed $98 $-1 #
coedge $-1 $244 $243 $215 $260 forward $165 $-1 #
edge $297 $298 -6.2704672599319823e-034 $262 0.065987747696801394 $259 $299 forward 7 unknown #
ptlist-eye-attrib $-1 $-1 $-1 $217 #
vertex $-1 $260 $300 #
ellipse-curve $-1 0.097060187630079925 0.029282888547957468 0 0 0 1 0.032400000000000068 0 0 1 F -1.5707963267948923 F 0.85712149052606723 #
point $-1 0.1182697531309214 0.053776037207644289 0 #
coedge $-1 $301 $302 $221 $266 forward $255 $-1 #
edge $303 $271 1.0380784185400551 $304 1.8508339799081213 $265 $305 forward 7 unknown #
coedge $-1 $235 $222 $302 $306 forward $269 $-1 #
coedge $-1 $222 $235 $224 $273 reversed $269 $-1 #
loop $-1 $-1 $235 $254 #
ptlist-eye-attrib $-1 $-1 $-1 $223 #
vertex $-1 $223 $307 #
ellipse-curve $-1 -0.00074736522011598777 0.022063083394562682 0 0 0 1 0.026999999999999975 0 0 1 F 2.6088747453343912 F 5.2451068886400947 #
edge $308 $228 0 $238 0.0040000000000000001 $224 $309 forward 7 unknown #
face $-1 $231 $226 $3 $-1 $310 forward single #
point $-1 -0.024005972308924109 0.035775748937353594 0 #
ptlist-eye-attrib $-1 $-1 $-1 $230 #
straight-curve $-1 -0.023707126889521892 0.03812855394739964 0 0 0 1 I I #
cone-surface $-1 0.031072439933278743 0.053882888547957433 0 0 0 1 0.057000000000000106 0 0 1 I I 0 1 0.057000000000000106 forward I I I I #
coedge $-1 $302 $301 $234 $280 forward $255 $-1 #
edge $311 $288 -1.8508339799081213 $282 -1.0380784185400551 $279 $312 forward 7 unknown #
ptlist-eye-attrib $-1 $-1 $-1 $236 #
vertex $-1 $306 $313 #
ellipse-curve $-1 -0.00074736522011598777 0.022063083394562682 0.0040000000000000001 0 0 -1 0.026999999999999975 0 0 1 F -5.2451068886400947 F -2.6088747453343912 #
point $-1 -0.024005972308924109 0.035775748937353594 0.0040000000000000001 #
coedge $-1 $295 $241 $301 $314 reversed $208 $-1 #
coedge $-1 $241 $295 $243 $290 forward $208 $-1 #
ptlist-eye-attrib $-1 $-1 $-1 $242 #
vertex $-1 $314 $315 #
ellipse-curve $-1 0.031072439933278597 0.053882888547956448 0.0040000000000000001 0 0 -1 0.056999999999999058 0 0 1 F 1.5707963267948952 F 1.8508339799081739 #
edge $316 $298 0 $246 0.0040000000000000001 $286 $317 forward 7 unknown #
point $-1 0.031072439933278673 -0.003117111452042607 0.0040000000000000001 #
ptlist-eye-attrib $-1 $-1 $-1 $248 #
straight-curve $-1 0.097060187630080064 -0.0031171114520426283 0 0 0 1 I I #
cone-surface $-1 -0.00074736522011598777 0.022063083394562682 0 0 0 1 0.026999999999999975 0 0 1 I I 0 1 0.026999999999999975 forward I I I I #
coedge $-1 $286 $285 $258 $296 forward $208 $-1 #
edge $318 $304 -1.8508339799081739 $298 -1.5707963267948952 $295 $319 forward 7 unknown #
ptlist-eye-attrib $-1 $-1 $-1 $260 #
vertex $-1 $296 $320 #
straight-curve $-1 0.031072439933278673 -0.0031171114520426092 0 1 -2.8917426191635016e-016 0 I I #
point $-1 0.097060187630080064 -0.0031171114520426283 0 #
coedge $-1 $279 $265 $285 $314 forward $255 $-1 #
coedge $-1 $265 $279 $267 $306 reversed $255 $-1 #
ptlist-eye-attrib $-1 $-1 $-1 $266 #
vertex $-1 $266 $321 #
ellipse-curve $-1 0.014488929827429071 -0.0037798133707828995 0 0 0 -1 -0.00300000000000261 0 0 1 F 1.0380784185400551 F 1.8508339799081213 #
edge $322 $271 0 $282 0.0040000000000000001 $267 $323 forward 7 unknown #
point $-1 0.012965300322674646 -0.0011955236942455608 0 #
ptlist-eye-attrib $-1 $-1 $-1 $273 #
straight-curve $-1 -0.024005972308924109 0.035775748937353594 0 0 0 1 I I #
cone-surface $-1 -0.026590261985454139 0.037299378442106776 0 0 0 1 -0.0029999999999956858 0 0 1 I I 0 -1 0.0029999999999956858 forward I I I I #
ptlist-eye-attrib $-1 $-1 $-1 $280 #
ellipse-curve $-1 0.014488929827429071 -0.0037798133707828995 0.0040000000000000001 0 0 1 -0.00300000000000261 0 0 1 F -1.8508339799081213 F -1.0380784185400551 #
point $-1 0.012965300322674646 -0.0011955236942455608 0.0040000000000000001 #
edge $324 $304 0 $288 0.0040000000000000001 $301 $325 forward 7 unknown #
point $-1 0.015318105332722102 -0.00089667827484346194 0.0040000000000000001 #
ptlist-eye-attrib $-1 $-1 $-1 $290 #
straight-curve $-1 0.031072439933278673 -0.003117111452042607 0 0 0 1 I I #
ptlist-eye-attrib $-1 $-1 $-1 $296 #
ellipse-curve $-1 0.031072439933278597 0.053882888547956448 0 0 0 1 0.056999999999999058 0 0 1 F -1.8508339799081739 F -1.5707963267948952 #
point $-1 0.031072439933278673 -0.003117111452042607 0 #
point $-1 0.015318105332722102 -0.00089667827484346194 0 #
ptlist-eye-attrib $-1 $-1 $-1 $306 #
straight-curve $-1 0.012965300322674646 -0.0011955236942455608 0 0 0 1 I I #
ptlist-eye-attrib $-1 $-1 $-1 $314 #
straight-curve $-1 0.015318105332722102 -0.00089667827484346194 0 0 0 1 I I #
End-of-ACIS-data 