  0
SECTION
  2
HEADER
  9
$ACADVER
  1
AC1009
  9
$INSBASE
 10
0.0
 20
0.0
 30
0.0
  9
$EXTMIN
 10
0.0
 20
0.0
 30
0.0
  9
$EXTMAX
 10
6.0
 20
8.0
 30
4.0
  9
$LIMMIN
 10
0.0
 20
0.0
  9
$LIMMAX
 10
12.0
 20
9.0
  9
$ORTHOMODE
 70
     0
  9
$REGENMODE
 70
     1
  9
$FILLMODE
 70
     1
  9
$QTEXTMODE
 70
     0
  9
$MIRRTEXT
 70
     1
  9
$DRAGMODE
 70
     2
  9
$LTSCALE
 40
1.0
  9
$OSMODE
 70
     0
  9
$ATTMODE
 70
     1
  9
$TEXTSIZE
 40
0.2
  9
$TRACEWID
 40
0.05
  9
$TEXTSTYLE
  7
STANDARD
  9
$CLAYER
  8
0
  9
$CELTYPE
  6
BYLAYER
  9
$CECOLOR
 62
   256
  9
$DIMSCALE
 40
1.0
  9
$DIMASZ
 40
0.18
  9
$DIMEXO
 40
0.0625
  9
$DIMDLI
 40
0.38
  9
$DIMRND
 40
0.0
  9
$DIMDLE
 40
0.0
  9
$DIMEXE
 40
0.18
  9
$DIMTP
 40
0.0
  9
$DIMTM
 40
0.0
  9
$DIMTXT
 40
0.18
  9
$DIMCEN
 40
0.09
  9
$DIMTSZ
 40
0.0
  9
$DIMTOL
 70
     0
  9
$DIMLIM
 70
     0
  9
$DIMTIH
 70
     1
  9
$DIMTOH
 70
     1
  9
$DIMSE1
 70
     0
  9
$DIMSE2
 70
     0
  9
$DIMTAD
 70
     0
  9
$DIMZIN
 70
     0
  9
$DIMBLK
  1

  9
$DIMASO
 70
     1
  9
$DIMSHO
 70
     1
  9
$DIMPOST
  1

  9
$DIMAPOST
  1

  9
$DIMALT
 70
     0
  9
$DIMALTD
 70
     2
  9
$DIMALTF
 40
25.4
  9
$DIMLFAC
 40
1.0
  9
$DIMTOFL
 70
     0
  9
$DIMTVP
 40
0.0
  9
$DIMTIX
 70
     0
  9
$DIMSOXD
 70
     0
  9
$DIMSAH
 70
     0
  9
$DIMBLK1
  1

  9
$DIMBLK2
  1

  9
$DIMSTYLE
  2
*UNNAMED
  9
$DIMCLRD
 70
     0
  9
$DIMCLRE
 70
     0
  9
$DIMCLRT
 70
     0
  9
$DIMTFAC
 40
1.0
  9
$DIMGAP
 40
0.09
  9
$LUNITS
 70
     2
  9
$LUPREC
 70
     4
  9
$SKETCHINC
 40
0.1
  9
$FILLETRAD
 40
0.0
  9
$AUNITS
 70
     0
  9
$AUPREC
 70
     0
  9
$MENU
  1
acad
  9
$ELEVATION
 40
0.0
  9
$PELEVATION
 40
0.0
  9
$THICKNESS
 40
0.0
  9
$LIMCHECK
 70
     0
  9
$BLIPMODE
 70
     1
  9
$CHAMFERA
 40
0.0
  9
$CHAMFERB
 40
0.0
  9
$SKPOLY
 70
     0
  9
$TDCREATE
 40
2449378.494666516
  9
$TDUPDATE
 40
2449378.532086504
  9
$TDINDWG
 40
0.0374199884
  9
$TDUSRTIMER
 40
0.0374199884
  9
$USRTIMER
 70
     1
  9
$ANGBASE
 50
0.0
  9
$ANGDIR
 70
     0
  9
$PDMODE
 70
     0
  9
$PDSIZE
 40
0.0
  9
$PLINEWID
 40
0.0
  9
$COORDS
 70
     1
  9
$SPLFRAME
 70
     0
  9
$SPLINETYPE
 70
     6
  9
$SPLINESEGS
 70
     8
  9
$ATTDIA
 70
     0
  9
$ATTREQ
 70
     1
  9
$HANDLING
 70
     1
  9
$HANDSEED
  5
52
  9
$SURFTAB1
 70
     6
  9
$SURFTAB2
 70
     6
  9
$SURFTYPE
 70
     6
  9
$SURFU
 70
     6
  9
$SURFV
 70
     6
  9
$UCSNAME
  2

  9
$UCSORG
 10
0.0
 20
0.0
 30
0.0
  9
$UCSXDIR
 10
1.0
 20
0.0
 30
0.0
  9
$UCSYDIR
 10
0.0
 20
1.0
 30
0.0
  9
$PUCSNAME
  2

  9
$PUCSORG
 10
0.0
 20
0.0
 30
0.0
  9
$PUCSXDIR
 10
1.0
 20
0.0
 30
0.0
  9
$PUCSYDIR
 10
0.0
 20
1.0
 30
0.0
  9
$USERI1
 70
     0
  9
$USERI2
 70
     0
  9
$USERI3
 70
     0
  9
$USERI4
 70
     0
  9
$USERI5
 70
     0
  9
$USERR1
 40
0.0
  9
$USERR2
 40
0.0
  9
$USERR3
 40
0.0
  9
$USERR4
 40
0.0
  9
$USERR5
 40
0.0
  9
$WORLDVIEW
 70
     1
  9
$SHADEDGE
 70
     3
  9
$SHADEDIF
 70
    70
  9
$TILEMODE
 70
     1
  9
$MAXACTVP
 70
    16
  9
$PINSBASE
 10
0.0
 20
0.0
 30
0.0
  9
$PLIMCHECK
 70
     0
  9
$PEXTMIN
 10
1.000000E+20
 20
1.000000E+20
 30
1.000000E+20
  9
$PEXTMAX
 10
-1.000000E+20
 20
-1.000000E+20
 30
-1.000000E+20
  9
$PLIMMIN
 10
0.0
 20
0.0
  9
$PLIMMAX
 10
12.0
 20
9.0
  9
$UNITMODE
 70
     0
  9
$VISRETAIN
 70
     0
  9
$PLINEGEN
 70
     0
  9
$PSLTSCALE
 70
     1
  9
$TREEDEPTH
 70
  3020
  9
$DWGCODEPAGE
  3
ascii
  0
ENDSEC
  0
SECTION
  2
TABLES
  0
TABLE
  2
VPORT
 70
     2
  0
VPORT
  2
*ACTIVE
 70
     0
 10
0.0
 20
0.0
 11
1.0
 21
1.0
 12
7.896686
 22
4.951264
 13
0.0
 23
0.0
 14
1.0
 24
1.0
 15
0.0
 25
0.0
 16
0.0
 26
0.0
 36
1.0
 17
0.0
 27
0.0
 37
0.0
 40
9.902529
 41
1.594883
 42
50.0
 43
0.0
 44
0.0
 50
0.0
 51
0.0
 71
     0
 72
   100
 73
     1
 74
     1
 75
     0
 76
     0
 77
     0
 78
     0
  0
ENDTAB
  0
TABLE
  2
LTYPE
 70
     1
  0
LTYPE
  2
CONTINUOUS
 70
    64
  3
Solid line
 72
    65
 73
     0
 40
0.0
  0
ENDTAB
  0
TABLE
  2
LAYER
 70
     2
  0
LAYER
  2
0
 70
    64
 62
     7
  6
CONTINUOUS
  0
LAYER
  2
AME_FRZ
 70
    65
 62
     7
  6
CONTINUOUS
  0
ENDTAB
  0
TABLE
  2
STYLE
 70
     1
  0
STYLE
  2
STANDARD
 70
     0
 40
0.0
 41
1.0
 50
0.0
 71
     0
 42
0.2
  3
txt
  4

  0
ENDTAB
  0
TABLE
  2
VIEW
 70
     0
  0
ENDTAB
  0
TABLE
  2
UCS
 70
     0
  0
ENDTAB
  0
TABLE
  2
APPID
 70
     3
  0
APPID
  2
ACAD
 70
    64
  0
APPID
  2
AME_SOL
 70
    64
  0
APPID
  2
AVE_INVOKE
 70
    64
  0
ENDTAB
  0
TABLE
  2
DIMSTYLE
 70
     0
  0
ENDTAB
  0
ENDSEC
  0
SECTION
  2
BLOCKS
  0
BLOCK
  8
0
  5
1
  2
AME_NIL
 70
    64
 10
0.0
 20
0.0
 30
0.0
  1
AME_NIL
  3
AME_NIL
  0
ENDBLK
  8
0
  5
2
  0
BLOCK
  8
0
  5
4
  2
AME_SOL
 70
    64
 10
0.0
 20
0.0
 30
0.0
  1
AME_SOL
  3
AME_SOL
  0
ENDBLK
  8
0
  5
5
  0
BLOCK
  8
0
  5
32
  2
*U5
 70
    65
 10
0.0
 20
0.0
 30
0.0
  1
*U
  3
*U
  0
LINE
  8
0
 62
     7
  5
33
 10
6.0
 20
8.0
 30
0.0
 11
6.0
 21
8.0
 31
4.0
1001
AME_SOL
1070
     1
1071
       26
  0
LINE
  8
0
 62
     7
  5
34
 10
6.0
 20
8.0
 30
4.0
 11
6.0
 21
0.0
 31
4.0
1001
AME_SOL
1070
     1
1071
       25
  0
LINE
  8
0
 62
     7
  5
35
 10
0.0
 20
8.0
 30
4.0
 11
6.0
 21
8.0
 31
4.0
1001
AME_SOL
1070
     1
1071
       24
  0
LINE
  8
0
 62
     7
  5
36
 10
0.0
 20
8.0
 30
0.0
 11
0.0
 21
8.0
 31
4.0
1001
AME_SOL
1070
     1
1071
       23
  0
LINE
  8
0
 62
     7
  5
37
 10
0.0
 20
8.0
 30
4.0
 11
0.0
 21
0.0
 31
4.0
1001
AME_SOL
1070
     1
1071
       22
  0
LINE
  8
0
 62
     7
  5
38
 10
0.0
 20
0.0
 30
0.0
 11
0.0
 21
0.0
 31
4.0
1001
AME_SOL
1070
     1
1071
       21
  0
LINE
  8
0
 62
     7
  5
39
 10
6.0
 20
0.0
 30
4.0
 11
6.0
 21
0.0
 31
0.0
1001
AME_SOL
1070
     1
1071
       20
  0
LINE
  8
0
 62
     7
  5
3A
 10
0.0
 20
0.0
 30
4.0
 11
6.0
 21
0.0
 31
4.0
1001
AME_SOL
1070
     1
1071
       19
  0
LINE
  8
0
 62
     7
  5
3B
 10
0.0
 20
0.0
 30
0.0
 11
6.0
 21
0.0
 31
0.0
1001
AME_SOL
1070
     1
1071
       18
  0
LINE
  8
0
 62
     7
  5
3C
 10
0.0
 20
8.0
 30
0.0
 11
0.0
 21
0.0
 31
0.0
1001
AME_SOL
1070
     1
1071
       17
  0
LINE
  8
0
 62
     7
  5
3D
 10
6.0
 20
0.0
 30
0.0
 11
6.0
 21
8.0
 31
0.0
1001
AME_SOL
1070
     1
1071
       16
  0
LINE
  8
0
 62
     7
  5
3E
 10
6.0
 20
8.0
 30
0.0
 11
0.0
 21
8.0
 31
0.0
1001
AME_SOL
1070
     1
1071
       15
  0
ARC
  8
0
 62
     7
  5
3F
 10
3.0
 20
5.0
 30
0.0
 40
2.0
 50
330.0
 51
210.0
1001
AME_SOL
1070
     1
1071
       14
  0
ARC
  8
0
 62
     7
  5
40
 10
3.0
 20
5.0
 30
4.0
 40
2.0
 50
330.0
 51
210.0
1001
AME_SOL
1070
     1
1071
       13
  0
ARC
  8
0
 62
     7
  5
41
 10
3.0
 20
3.0
 30
0.0
 40
2.0
 50
150.0
 51
30.0
1001
AME_SOL
1070
     1
1071
       12
  0
ARC
  8
0
 62
     7
  5
42
 10
3.0
 20
3.0
 30
4.0
 40
2.0
 50
150.0
 51
30.0
1001
AME_SOL
1070
     1
1071
       11
  0
LINE
  8
0
 62
     7
  5
43
 10
1.267949
 20
4.0
 30
0.0
 11
1.267949
 21
4.0
 31
4.0
1001
AME_SOL
1070
     1
1071
       10
  0
LINE
  8
0
 62
     7
  5
44
 10
4.732051
 20
4.0
 30
0.0
 11
4.732051
 21
4.0
 31
4.0
1001
AME_SOL
1070
     1
1071
        9
  0
LINE
  8
0
 62
     7
  5
45
 10
1.0
 20
5.0
 30
0.0
 11
1.0
 21
5.0
 31
4.0
1001
AME_SOL
1070
     0
1071
        2
  0
LINE
  8
0
 62
     7
  5
46
 10
5.0
 20
5.0
 30
0.0
 11
5.0
 21
5.0
 31
4.0
1001
AME_SOL
1070
     0
1071
        2
  0
LINE
  8
0
 62
     7
  5
47
 10
3.0
 20
7.0
 30
0.0
 11
3.0
 21
7.0
 31
4.0
1001
AME_SOL
1070
     0
1071
        2
  0
LINE
  8
0
 62
     7
  5
48
 10
1.0
 20
3.0
 30
0.0
 11
1.0
 21
3.0
 31
4.0
1001
AME_SOL
1070
     0
1071
        1
  0
LINE
  8
0
 62
     7
  5
49
 10
3.0
 20
1.0
 30
0.0
 11
3.0
 21
1.0
 31
4.0
1001
AME_SOL
1070
     0
1071
        1
  0
LINE
  8
0
 62
     7
  5
4A
 10
5.0
 20
3.0
 30
0.0
 11
5.0
 21
3.0
 31
4.0
1001
AME_SOL
1070
     0
1071
        1
  0
ENDBLK
  8
0
  5
4B
  0
BLOCK
  8
0
  5
4F
  2
AME_JNK
 70
     0
 10
0.0
 20
0.0
 30
0.0
  1
AME_JNK
  3
AME_JNK
  0
ENDBLK
  8
0
  5
50
  0
ENDSEC
  0
SECTION
  2
ENTITIES
  0
INSERT
  8
AME_FRZ
  5
3
  2
AME_NIL
 10
0.0
 20
0.0
 30
0.0
  0
INSERT
  8
AME_FRZ
  5
6
  2
AME_SOL
 10
0.0
 20
0.0
 30
0.0
1001
AME_SOL
1000
R2.1
1000
AME2
1000
sq cm
1070
     3
1070
     0
1070
     3
1000
wire
1040
45.0
1000
U
1040
1.0
1000
cm
1000
gm
1000
MILD_STEEL
1070
    25
1000
CSG
1070
     1
1070
     3
1070
     3
1070
     3
1070
     0
1000
cu cm
1070
     1
1070
     0
1005
3
  0
INSERT
  8
AME_FRZ
  5
15
  2
AME_NIL
 10
0.0
 20
0.0
 30
0.0
1001
AME_SOL
1002
{
1070
     1
1071
  2396400
1070
  1536
1070
     1
1010
6.0
1020
8.0
1030
4.0
1005
0
1005
0
1005
4C
1040
0.0
1040
1.0
1070
     0
1000
MILD_STEEL
1000
0
1010
0.0
1020
0.0
1030
0.0
1010
0.0
1020
0.0
1030
1.0
1040
0.0
1002
}
1001
AVE_INVOKE
1000
SOLAVEMESH
  0
INSERT
  8
AME_FRZ
  5
21
  2
AME_NIL
 10
3.0
 20
5.0
 30
0.0
1001
AME_SOL
1002
{
1070
     1
1071
  2425096
1070
  1538
1070
     1
1010
2.0
1020
2.0
1030
4.0
1005
0
1005
0
1005
30
1040
0.0
1040
1.0
1070
     0
1000
MILD_STEEL
1000
0
1010
3.0
1020
5.0
1030
0.0
1010
0.0
1020
0.0
1030
1.0
1040
0.0
1002
}
1001
AVE_INVOKE
1000
SOLAVEMESH
  0
INSERT
  8
AME_FRZ
  5
2D
  2
AME_NIL
 10
3.0
 20
3.0
 30
0.0
1001
AME_SOL
1002
{
1070
     1
1071
  2429272
1070
  1538
1070
     1
1010
2.0
1020
2.0
1030
4.0
1005
0
1005
0
1005
30
1040
0.0
1040
1.0
1070
     0
1000
MILD_STEEL
1000
0
1010
3.0
1020
3.0
1030
0.0
1010
0.0
1020
0.0
1030
1.0
1040
0.0
1002
}
1001
AVE_INVOKE
1000
SOLAVEMESH
  0
INSERT
  8
AME_FRZ
  5
30
  2
AME_NIL
 10
0.0
 20
0.0
 30
0.0
1001
AME_SOL
1002
{
1070
     1
1071
  2415752
1070
   775
1070
     0
1070
     2
1005
21
1005
2D
1005
0
1005
0
1005
4C
1040
0.0
1040
1.0
1070
     0
1000
MILD_STEEL
1000
0
1010
0.0
1020
0.0
1030
0.0
1010
0.0
1020
0.0
1030
1.0
1040
0.0
1002
}
  0
INSERT
  8
0
  5
4C
  2
*U5
 10
0.0
 20
0.0
 30
0.0
1001
AME_SOL
1002
{
1070
     1
1071
  2405160
1070
  1543
1070
     1
1070
     0
1005
15
1005
30
1005
0
1005
4D
1005
0
1040
0.0
1040
1.0
1070
     0
1000
MILD_STEEL
1000
0
1002
}
1001
AVE_INVOKE
1000
SOLAVEMESH
  0
INSERT
  8
AME_FRZ
  5
4D
  2
AME_NIL
 10
1.0
 20
1.0
 30
1.0
1001
AME_SOL
1004
C7CF0100FD007E017D017B0177016F01620153013F012A011B010E01F800F7000F01010100011B000201FA00F9001C0110010301F6002C0004012F003000110105018500F40006014900D200FB0040012B011D0112010701D000BA000801B9006000130109019300B2000A01A900A700C800A40010006301
1004
540196004101EE00D800550142012C01070021002D014400240043012E012B0052002F01F20090007001010064012500FE007801710165015601700044013001EC000400F500A000660157014501EB003101FC0098000500280072016701BF0058014601AF0032011E01130014010B0168009E00D4009C00
1004
750068018400590147013301EF0062003401F300E70080007C0179017301690118005A0148014E00350126001F016D00D1000C006A015B01500049010800C000F000740140006B015C014A015F0036012900DF0014005D014B017900E4004C0178005B007A0175016C015E014D018200BC004E0137011500
1004
A800ED003F00FF0076016D015F014F01380120010F0017001F0039012101D900C100EA007F0060010A00500120003A0106002D006E01610151013B01220109005400230158007A003C0124014D004C002501B600380052013D012601E800E0002701150103001C0016018B00F1003E012801170135003600
1004
1801E6008C0029011901730072001A010C01120016000D0119001E000200000071BD471BD40260114A4D6B70E8014A8BBE5923B5038C7CB2476A0718F9648ED40E318891AE51BA414E98AD65DC55D94B5235CA3740A85C043C459E5C959ACD0F0C9E5C959ACD0F0CBE5923B5038C5A91AE51BA5AA5A91AE5
1004
1BA5AA5A91AE51BA0542B8D103EE11AD6E28050B71A27FA6CFFFFFFFE9B3FE2FA5285F4A57F95FF57F57FFFFFB8D13FD367FFFFFFF4D9FF17D2942FA52BFCAFFABFABFFFFF4CC791C7E10DFFA6CFFFFFFFE9B3FEF5DAD6B5A1857EB55FEFD7D8575718082F2CD7D8575718082F2C0BFBC8E317086FFD367F
1004
FFFFFF4D9FFFD6A85F4A57FBF5F615D5C6020BCB35F615D5C6020BCB1FEFF5F615D5C6020BCB3FFFC152FB0AEAE30105E5817FFFC153F45C76B5171DAD17FFFC153C8E37F8437FE9B3FFFFFFFA6CFFBD76B5AD68614FFD367FDFAFB0AEAE30105E59AFB0AEAE30105E58FF7FAFB0AEAE30105E59FFFE0A97
1004
D8575718082F2C0BFFFE0A9FA2E3B5A8B8ED68BFFFE0A9E471BD4E10DFFA6CFFFFFFFE9B3FEFFD365DBE94AFF7EBEC2BAB8C0417966BEC2BAB8C0417963FDFEBEC2BAB8C0417967FFF82A5F615D5C6020BCB02FFFF82A7E8B8ED6A2E3B5A2FFFF82A010F1167972566B343C3216B029ECA030A7CB2476A07
1004
18B5235CA374B546A246B946E9EAA96A46B946E8150AE3442D8C376B7140905B8D13FD367FFFFFFF4D9FF17D295FAD57F95FF57F57FFFFFB8D13FD367FFFFFFF4D9FF17D295FAD57F95FF57F57FFFFE998F238FC21BFF4D9FFFFFFFD367FDEBB5AD6B430AFDEAABFDFAFB0AEAE30105E59AFB0AEAE30105E
1004
58FF7FAFB0AEAE30105E59FFFE0A97D8575718082F2C0BFFFE0A9FA2C3B5A8B0ED68BFFFE0A9E4718B8437FE9B3FFFFFFFA6CFFFEB55FAD57FBF5F615D5C6020BCB35F615D5C6020BCB1FEFF5F615D5C6020BCB3FFFC152FB0AEAE30105E5817FFFC153F45876B5161DAD17FFFC153C8E37F8437FE9B3FFF
1004
FFFFA6CFFBD76B5AD68615FA52BFDFAFB0AEAE30105E59AFB0AEAE30105E5817F791C6F538437FE9B3FFFFFFFA6CFFBFF4D907EB55FEFD7D8575718082F2CD7D8575718082F2C7FBFD7D8575718082F2CFFFF054BEC2BAB8C04179605FFFF054FD161DAD45876B45FFFF054021E775F2C91DA81C63E5923B
1004
5038C7CB2476A0718C448D728DD20A74C56B2EE2AECA7CB2476A073229C8816B21A2E28030B3913FFFD367FFF4D9FFFFFFFFFF2BFFFFFFFFFF3913FFFD367FFF4D9FFFFFFFFFF2BFFFFFFFFFD364043C45BE5923B5038C7CB2476A0718F9648ED40E318891AE51BA414F9648ED40E656A46B946E8150A722
1004
438345C5007167227FA6CFFFFFFFFFE9B3FFFFFE57FFFFFFFFFE7227FA6CFFFFFFFFFE9B3FFFFFE57FFFFFFFFFA6C808788B7CB2476A0718F9648ED40E31F2C91DA81C63E5923B5039974C56B2EE2AECA5A91AE51BA05429C8805231A2E2800167227FFFFFA6CFFFE9B3FFFFFFFE57FFFFFFFFFE7227FFFF
1004
FA6CFFFE9B3FFFFFFFE57FFFFFFFFFA6C80879DD7CB2476A0718F9648ED40E31C45814F650E0298891AE51BA414E98AD65DC55D94B5235CA3740A85391094C68B8A00459C89FE999FCFFF3FFCFFE999FCF8BE82BF7657E0A8AFFFFFFFFFFCE44FF4CCFE7FF9FFE7FF4CCFE7C5F415FBB2BF05457FFFFFFFF
1004
FA6C808788B7CB2476A0718C6693E7A2370A9F2C91DA81C6311235CA374829D315ACBB8ABB296A46B946E8150A72210220D171402059C89FF3FFCFFE999FA667F3FFCF8BE82BF7657E0A8AFFFFFFFFFFCE44FF9FFE7FF4CCFD333F9FFE7C5F415FBB2BF05457FFFFFFFFFA6C808788B63349F3D11B82A7CB
1004
2476A0718F9648ED40E318891AE51BA414E98AD65DC55D94B5235CA3740A853910A6C6345C523167227FCFFE999FCFFF3FFCFFE9982FA0AFDD95F82A2BFFFFFFFFFF3913FE7FF4CCFE7FF9FFE7FF4CC17D057EECAFC1515FFFFFFFFFE9B206147972566B343C3216B029ECA030A7CB2476A0718B5235CA37
1004
4B54B5235CA374B54B5235CA3740ABFFF054FC21B02335115DAD143EE11A5B186FBF0FB84696C61BB5AD6B5AD68437FE9B3FFFFFFFA6CFF8049A8F7A0426AAC6F78AFC157FBFFFFC1501851E5C959ACD0F0C85AC0A7B280C29F2C91DA81C62D48D728DD2D52D48D728DD2D52D48D728DD02AFFFC153F086C
1004
D51EF115C56B43EE11A5B186FBF2D8C370FB846B5AD6B5AD68437FE9B3FFFFFFFA6CFF811012813B8201801C01AC86BE0ABFDFFFFE0A80C28F2E4ACD6687864F2E4ACD6687865C45814F650E0296A46B946E96A96A46B946E96A96A46B946E81516EF0D3C202197812CE7B8EF79C3AE2A6CBF291B0203563
1004
715AD0FB8469298DDF9298D0FB8468BB5AD6948DEF59E5789E878DE62865ECFDE933FDECFDE965EB3CAF13D0F1BCC50CFF3E2FA5285F4A57E0A88BFEAFEA2DDE1A7840432F0259CF71DEF3875C54D9030A3CB92B359A1E193CB92B359A1E197CB2476A0718B5235CA374B54B5235CA374B54F9648ED40E64
1004
B77869E1010CBC09673DC77BCE1D715365F948D8058078DDAD143EE11A16B21BBF0FB84685AC86B5AD68B948DEF59E5789E878DE62865ECFDE933FDECFDE965EB3CAF13D0F1BCC50CFF3E2FA5285F4A57F917FD5FD45BBC34F080865E04B39EE3BDE70EB8A9B206147972566B343C3216B029ECA030A7116
1004
053D94380A5A91AE51BA5AA351235CA374F554B5235CA3740A8B77869E1010CBC096F69EEBBDE70EB8A9B2FCA46CA67A1B8AD696C61B9298DDF9298D2D8C37176B5AD291BDEDBCAF13D0F1BCC5063D8FBD2CFFBD8FBD263DB795E27A1E3798A0CFF17D295FAD57E0A88BFEAFEA2DDE1A7840432F025BDA7B
1004
AEF79C3AE2A6C81851E5C959ACD0F0C85AC0A7B280C29F2C91DA81C62D48D728DD2D51A891AE51BA7AAA7CB2476A07325BBC34F080865E04B7B4F75DEF3875C54D97E52360003C376B452D8C370B590DDF96C61B85AC86B5AD68B948DEF6DE5789E878DE62831EC7DE967FDEC7DE931EDBCAF13D0F1BCC50
1004
67F8BE94AFD6ABFC8BFEAFEA2DDE1A7840432F025BDA7BAEF79C3AE2A6C81853E5923B5038C63349F3D11B854F9648ED40E318891AE51BA414E98AD65DC55D94F9648ED40E645F4A4B17D294FC21BBDFA2BB5A285AC8690220DDF85AC8690220D1717086FFFFD367FFFFFFF4CC17D295FBB2BFDF8BE94962
1004
FA5280C298CD27CF446E0A9F2C91DA81C63E5923B5038C62246B946E9053A62B5977157653E5923B50399FC14BFC153F086CFBDFA2BB5A285AC8694D8C6EFC2D6434A6C6345C5C21BFF4D9FFFFFFFFFD3305F415F82AFF7FF8297F82A030A7CB2476A0718F9648ED40E31F2C91DA81C63E5923B5039974C5
1004
6B2EE2AECA7CB2476A0733FBB25FF3EFC21B2401515DAD142D64340A46377E16B21A05231A2E2E10DFFA667FFFFFFFFE999FFFFFEFFF764BFE7C0C29F2C91DA81C63E5923B5038C7CB2476A0718C448D728DD20A7CB2476A0732F9648ED40E67FC5F414FC21B7670A2BB5A285AC86C38377E16B21B0E0D17
1004
17086FFFFD333FFFFFFF4CCFFFFFF7FFE2FA0A030A7CB2476A0718F9648ED40E31C45814F650E0298891AE51BA414F9648ED40E656A46B946E8150BE94962FA529F843691D915DAD161C1A4A6377F0E0D2531A2E2E10DFFFFFFA6CFFFE999FE2FA52BFFF054FC5F4A4B17D2940614C6693E7A237054F9648
1004
ED40E31F2C91DA81C6311235CA374829F2C91DA81CCAD48D728DD02AFE97FD4FC21B3E194576B45870694D8C6EFE1C1A53631A2E2E10DFFA6CFFFFFFFE999FE2FA0AFFFEA7FFD2FFA80C29F2C91DA81C63E5923B5038C7CB2476A0718F9648ED40E65F2C91DA81CCAD48D728DD02AFFFC153F086D23DEA2B
1004
B5A2C38340A46377F0E0D02918D1717086FFD333FFFFFFF4CCFFFFFFFF7FFFF82A030A7CB2476A0718F9648ED40E31C45814F650E029F2C91DA81CCBA62B5977157652D48D728DD02AFC14BFC153F086CFB828AED68A05231A4A6377E05231A4A6345C5C21BFFFFFF4D9FD333FFFFFFF055F82A7FF8297F8
1004
2A030A7CB2476A0718C6693E7A2370A9F2C91DA81C63E5923B5039974C56B2EE2AECA5A91AE51BA055FD2FFA9F84364104576B4502918D20441BBF02918D20441A2E2E10DFFFFA6CFFFE999FFFFFFFBB2BFA9FFF4BFEA030A7CB2476A0718C6693E7A2370A9C45814F650E0298891AE51BA414E98AD65DC5
1004
5D94B5235CA3740A85F412FF9F7E10D92F7C8AED68A4A63481106EFC94C690220D1717086FFFFD367FFFFFFF4D917D057EECAFC153F17D04BFE7C0C298CD27CF446E0A9F2C91DA81C6388B029ECA1C05311235CA374829D315ACBB8ABB296A46B946E8157FFEECA7E10DCD58DDAD1494C694D8C6EFC94C69
1004
4D8C68B8B8437FE9B3FFFFFCFFFFE9B22FA0AFDD95F82A7FFFFBB280C298CD27CF446E0A98CD27CF446E153E5923B5038C62246B946E9053A62B5977157652D48D728DD02AFC14BFE7DF84367CD58DDAD148110694D8C6EFC8110694D8C68B8B8437FE9B3FFFFFFFA6CFF8BE82BF7657E0A9FFE0A5FF3EF7
1004
C5200471
1005
4E
  0
INSERT
  8
AME_FRZ
  5
4E
  2
AME_NIL
 10
1.0
 20
1.0
 30
1.0
1001
AME_SOL
1004

1005
0
  0
ENDSEC
  0
EOF
