600 0 1 0           
122 GICL Pro/E ACIS Translator - Source: f:/data5/repository/PTC/V20/web_demos/models/shtmtl_manual/part/form_clip.prt.1 - 6 0 13 ACIS 6.0.3 NT 24 Thu Apr 04 13:10:15 2002 
1 9.9999999999999995e-007 1e-010 
body $-1 $1 $-1 $-1 #
lump $-1 $-1 $2 $0 #
shell $-1 $-1 $-1 $3 $-1 $1 #
face $-1 $4 $5 $2 $-1 $6 reversed single #
face $-1 $7 $8 $2 $-1 $9 forward single #
loop $-1 $-1 $10 $3 #
plane-surface $-1 0 0 0 0 1 0 1 0 0 forward_v I I I I #
face $-1 $11 $12 $2 $-1 $13 forward single #
loop $-1 $-1 $14 $4 #
cone-surface $-1 0 0 0 0 1 0 25 0 0 1 I I 0 1 25 forward I I I I #
coedge $-1 $15 $15 $16 $17 reversed $5 $-1 #
face $-1 $18 $19 $2 $-1 $20 forward single #
loop $-1 $-1 $21 $7 #
cone-surface $-1 0 0 0 0 1 0 25 0 0 1 I I 0 1 25 forward I I I I #
coedge $-1 $22 $16 $23 $24 forward $8 $-1 #
coedge $-1 $10 $10 $25 $26 reversed $5 $-1 #
coedge $-1 $14 $27 $10 $17 forward $8 $-1 #
edge $-1 $28 0 $29 3.1415926535897931 $10 $30 forward 7 unknown #
face $-1 $31 $32 $2 $-1 $33 forward single #
loop $-1 $34 $35 $11 #
plane-surface $-1 0 25 0 0 1 0 1 0 0 forward_v I I I I #
coedge $-1 $36 $25 $27 $37 forward $12 $-1 #
coedge $-1 $27 $14 $35 $38 reversed $8 $-1 #
coedge $-1 $25 $36 $14 $24 reversed $12 $-1 #
edge $-1 $29 0 $39 25 $23 $40 forward 7 unknown #
coedge $-1 $21 $23 $15 $26 forward $12 $-1 #
edge $-1 $29 0 $28 3.1415926535897931 $15 $41 forward 7 unknown #
coedge $-1 $16 $22 $21 $37 reversed $8 $-1 #
vertex $-1 $26 $42 #
vertex $-1 $26 $43 #
ellipse-curve $-1 0 0 0 0 1 0 -25 0 -3.0616164697184296e-015 1 I I #
face $-1 $44 $45 $2 $-1 $46 reversed single #
loop $-1 $-1 $47 $18 #
plane-surface $-1 9.5 25 -5.1999999999999993 1 0 0 0 1 0 forward_v I I I I #
loop $-1 $-1 $48 $11 #
coedge $-1 $49 $49 $22 $38 forward $19 $-1 #
coedge $-1 $23 $21 $49 $50 reversed $12 $-1 #
edge $-1 $28 0 $51 25 $21 $52 forward 7 unknown #
edge $-1 $51 0 $39 3.1415926535897931 $35 $53 forward 7 unknown #
vertex $-1 $50 $54 #
straight-curve $-1 25 0 0 0 1 0 I I #
ellipse-curve $-1 0 0 0 0 1 0 25 0 3.0616164697184304e-015 1 I I #
point $-1 -25 0 -3.0616164697184296e-015 #
point $-1 25 0 3.0616164697184304e-015 #
face $-1 $55 $56 $2 $-1 $57 forward single #
loop $-1 $-1 $58 $31 #
plane-surface $-1 0 0 -5.1999999999999993 0 0 1 1 0 0 forward_v I I I I #
coedge $-1 $59 $60 $61 $62 forward $32 $-1 #
coedge $-1 $63 $64 $60 $65 forward $34 $-1 #
coedge $-1 $35 $35 $36 $50 forward $19 $-1 #
edge $-1 $39 0 $51 3.1415926535897931 $49 $66 forward 7 unknown #
vertex $-1 $50 $67 #
straight-curve $-1 -25 0 -3.0615158845559431e-015 0 1 0 I I #
ellipse-curve $-1 -8.8817841970012523e-016 25 0 0 1 0 -25 0 -3.0616164697184296e-015 1 I I #
point $-1 25 25 3.0616164697184304e-015 #
face $-1 $68 $69 $2 $-1 $70 forward single #
loop $-1 $-1 $71 $44 #
plane-surface $-1 0 28.549705377986982 -5.1999999999999993 -1 0 0 0 -1 0 forward_v I I I I #
coedge $-1 $72 $73 $74 $75 reversed $45 $-1 #
coedge $-1 $76 $47 $77 $78 forward $32 $-1 #
coedge $-1 $47 $76 $48 $65 reversed $32 $-1 #
coedge $-1 $73 $79 $47 $62 reversed $45 $-1 #
edge $-1 $80 0 $81 0.68503110994465644 $61 $82 forward 7 unknown #
coedge $-1 $83 $48 $84 $85 reversed $34 $-1 #
coedge $-1 $48 $83 $73 $86 forward $34 $-1 #
edge $-1 $80 0 $87 10.399999999999999 $48 $88 forward 7 unknown #
ellipse-curve $-1 2.6645352591003757e-015 25 0 0 1 0 24.999999999999996 0 3.0616164697184304e-015 1 I I #
point $-1 -25 25 -3.0616164697184296e-015 #
face $-1 $89 $90 $2 $-1 $91 forward single #
loop $-1 $-1 $92 $55 #
plane-surface $-1 0 0 5.1999999999999993 0 0 1 1 0 0 forward_v I I I I #
coedge $-1 $93 $94 $95 $96 reversed $56 $-1 #
coedge $-1 $97 $58 $98 $99 reversed $45 $-1 #
coedge $-1 $58 $61 $64 $86 reversed $45 $-1 #
coedge $-1 $94 $93 $58 $75 forward $56 $-1 #
edge $-1 $100 0 $101 3.5497053779869816 $58 $102 forward 7 unknown #
coedge $-1 $60 $59 $92 $103 reversed $32 $-1 #
coedge $-1 $104 $105 $59 $78 reversed $90 $-1 #
edge $-1 $81 0 $106 10.399999999999999 $59 $107 forward 7 unknown #
coedge $-1 $61 $108 $104 $109 reversed $45 $-1 #
vertex $-1 $86 $110 #
vertex $-1 $62 $111 #
straight-curve $-1 9.5 25 -5.1999999999999993 0 1 0 I I #
coedge $-1 $64 $63 $94 $112 forward $34 $-1 #
coedge $-1 $92 $95 $63 $85 forward $69 $-1 #
edge $-1 $113 0 $87 9.5 $63 $114 forward 7 unknown #
edge $-1 $101 0 $80 9.5 $64 $115 forward 7 unknown #
vertex $-1 $85 $116 #
straight-curve $-1 9.5 25 -5.1999999999999993 0 0 1 I I #
face $-1 $117 $118 $2 $-1 $119 forward single #
loop $-1 $-1 $120 $68 #
cone-surface $-1 6.5 25.685031109944656 -5.1999999999999993 0 0 1 3 0 0 1 I I 0 1 3 forward I I I I #
coedge $-1 $121 $84 $76 $103 forward $69 $-1 #
coedge $-1 $74 $71 $122 $123 reversed $56 $-1 #
coedge $-1 $71 $74 $83 $112 reversed $56 $-1 #
coedge $-1 $84 $124 $71 $96 forward $69 $-1 #
edge $-1 $125 0 $113 3.5497053779869816 $95 $126 forward 7 unknown #
coedge $-1 $108 $72 $127 $128 reversed $45 $-1 #
coedge $-1 $122 $129 $72 $99 forward $130 $-1 #
edge $-1 $131 0 $100 2.3628749202859884 $72 $132 forward 7 unknown #
vertex $-1 $99 $133 #
vertex $-1 $86 $134 #
straight-curve $-1 0 28.549705377986982 -5.1999999999999993 0 -1 0 I I #
edge $-1 $87 0 $106 0.68503110994465644 $92 $135 forward 7 unknown #
coedge $-1 $120 $77 $79 $109 forward $90 $-1 #
coedge $-1 $77 $120 $121 $136 reversed $90 $-1 #
vertex $-1 $136 $137 #
straight-curve $-1 9.5 25.685031109944656 -5.1999999999999993 0 0 1 I I #
coedge $-1 $79 $97 $138 $139 reversed $45 $-1 #
edge $-1 $81 0 $140 1.8325957145940139 $79 $141 forward 7 unknown #
point $-1 9.5 25 -5.1999999999999993 #
point $-1 9.5 25.685031109944656 -5.1999999999999993 #
edge $-1 $113 0 $101 10.399999999999999 $83 $142 forward 7 unknown #
vertex $-1 $112 $143 #
straight-curve $-1 0 25 5.1999999999999993 1 0 0 I I #
straight-curve $-1 0 25 -5.1999999999999993 1 0 0 I I #
point $-1 9.5 25 5.1999999999999993 #
face $-1 $144 $145 $2 $-1 $146 reversed single #
loop $-1 $-1 $147 $89 #
plane-surface $-1 5.723542864692531 28.582808588811886 -5.1999999999999993 -0.2588190451024896 0.96592582628907664 0 -0.96592582628907653 -0.25881904510248954 0 forward_v I I I I #
coedge $-1 $105 $104 $148 $149 forward $90 $-1 #
coedge $-1 $150 $92 $105 $136 forward $69 $-1 #
coedge $-1 $151 $98 $93 $123 forward $130 $-1 #
edge $-1 $100 0 $125 10.399999999999999 $93 $152 forward 7 unknown #
coedge $-1 $95 $153 $151 $154 forward $69 $-1 #
vertex $-1 $96 $155 #
straight-curve $-1 0 28.549705377986982 5.1999999999999993 0 -1 0 I I #
coedge $-1 $156 $157 $97 $128 forward $145 $-1 #
edge $-1 $158 0 $131 0.52359877559826684 $97 $159 forward 7 unknown #
coedge $-1 $98 $151 $156 $160 reversed $130 $-1 #
loop $-1 $-1 $122 $144 #
vertex $-1 $128 $161 #
straight-curve $-1 2.2823619097949592 27.938148347421865 -5.1999999999999993 -0.96592582628906809 0.25881904510252152 0 I I #
point $-1 0 28.549705377986982 -5.1999999999999993 #
point $-1 0 25 -5.1999999999999993 #
straight-curve $-1 9.5 25 5.1999999999999993 0 1 0 I I #
edge $-1 $106 0 $162 1.8325957145940117 $121 $163 forward 7 unknown #
point $-1 9.5 25.685031109944656 5.1999999999999993 #
coedge $-1 $147 $148 $108 $139 forward $118 $-1 #
edge $-1 $140 0 $158 2.4907759053618332 $108 $164 forward 7 unknown #
vertex $-1 $109 $165 #
ellipse-curve $-1 6.5 25.685031109944656 -5.1999999999999993 0 0 1 3 0 0 1 I I #
straight-curve $-1 0 25 5.1999999999999993 0 0 -1 I I #
point $-1 0 25 5.1999999999999993 #
face $-1 $-1 $130 $2 $-1 $166 forward single #
loop $-1 $-1 $156 $117 #
cone-surface $-1 2.7999999999999998 29.870000000000001 -5.1999999999999993 0 0 1 2 0 0 1 I I 0 1 2 forward I I I I #
coedge $-1 $167 $138 $157 $168 forward $118 $-1 #
coedge $-1 $138 $167 $120 $149 reversed $118 $-1 #
edge $-1 $140 0 $162 10.399999999999999 $120 $169 forward 7 unknown #
coedge $-1 $153 $121 $167 $170 forward $69 $-1 #
coedge $-1 $129 $122 $124 $154 reversed $130 $-1 #
straight-curve $-1 0 28.549705377986982 -5.1999999999999993 0 0 1 I I #
coedge $-1 $124 $150 $171 $172 forward $69 $-1 #
edge $-1 $173 0 $125 2.3628749202859884 $124 $174 forward 7 unknown #
point $-1 0 28.549705377986982 5.1999999999999993 #
coedge $-1 $171 $127 $129 $160 forward $145 $-1 #
coedge $-1 $127 $171 $147 $168 reversed $145 $-1 #
vertex $-1 $139 $175 #
ellipse-curve $-1 2.7999999999999998 29.870000000000001 -5.1999999999999993 0 0 -1 0.51763809020498019 -1.9318516525781533 0 1 I I #
edge $-1 $131 5.1200106829248364e-031 $173 10.399999999999999 $156 $176 forward 7 unknown #
point $-1 2.2823619097949592 27.938148347421865 -5.1999999999999993 #
vertex $-1 $170 $177 #
ellipse-curve $-1 6.4999999999999982 25.685031109944653 5.1999999999999993 0 0 1 3.0000000000000018 3.5527136788005009e-015 0 1 I I #
straight-curve $-1 5.723542864692531 28.582808588811886 -5.1999999999999993 -0.96592582628907653 -0.25881904510248965 0 I I #
point $-1 5.723542864692531 28.582808588811886 -5.1999999999999993 #
plane-surface $-1 2.2823619097949566 27.938148347421865 -5.1999999999999993 0.25881904510252179 0.96592582628906798 0 -0.96592582628906798 0.25881904510252179 0 forward_v I I I I #
coedge $-1 $148 $147 $150 $170 reversed $118 $-1 #
edge $-1 $158 0 $178 10.399999999999999 $147 $179 forward 7 unknown #
straight-curve $-1 5.723542864692531 28.582808588811886 -5.1999999999999993 0 0 1 I I #
edge $-1 $162 0 $178 2.4907759053618346 $150 $180 forward 7 unknown #
coedge $-1 $157 $156 $153 $172 reversed $145 $-1 #
edge $-1 $178 6.3837823915951353e-016 $173 0.52359877559828705 $153 $181 forward 7 unknown #
vertex $-1 $154 $182 #
straight-curve $-1 2.2823619097949592 27.938148347421865 5.1999999999999993 -0.96592582628906809 0.25881904510252152 0 I I #
point $-1 3.31763809020498 27.938148347421848 -5.1999999999999993 #
straight-curve $-1 2.2823619097949552 27.938148347421865 -5.1999999999999993 1.2810265668751808e-016 0 1 I I #
point $-1 5.723542864692531 28.582808588811886 5.1999999999999993 #
vertex $-1 $172 $183 #
straight-curve $-1 3.3176380902049787 27.938148347421848 -5.1999999999999993 0 0 1 I I #
straight-curve $-1 5.723542864692531 28.582808588811886 5.1999999999999993 -0.96592582628907653 -0.25881904510248965 0 I I #
ellipse-curve $-1 2.8000000000000025 29.869999999999923 5.1999999999999993 0 0 -1 0.51763809020497753 -1.9318516525780751 0 1 I I #
point $-1 2.2823619097949592 27.938148347421865 5.1999999999999993 #
point $-1 3.3176380902049787 27.938148347421848 5.1999999999999993 #
End-of-ACIS-data 