600 0 1 0           
123 GICL Pro/E ACIS Translator - Source: f:/data5/repository/PTC/V20/web_demos/models/shtmtl_manual/part/lance_f781.prt.1 - 6 0 13 ACIS 6.0.3 NT 24 Thu Apr 04 13:10:15 2002 
1 9.9999999999999995e-007 1e-010 
body $-1 $1 $-1 $2 #
lump $-1 $-1 $3 $0 #
transform $-1 1 0 0 0 1 0 0 0 1 0 0 0 25.399999999999999 no_rotate no_reflect no_shear #
shell $-1 $-1 $-1 $4 $-1 $1 #
face $-1 $5 $6 $3 $-1 $7 reversed single #
face $-1 $8 $9 $3 $-1 $10 forward single #
loop $-1 $-1 $11 $4 #
plane-surface $-1 0 0 0 0 1 0 1 0 0 forward_v I I I I #
face $-1 $12 $13 $3 $-1 $14 forward single #
loop $-1 $-1 $15 $5 #
cone-surface $-1 0 0 0 0 1 0 0.62598425196850382 0 0 1 I I 0 1 0.62598425196850382 forward I I I I #
coedge $-1 $16 $16 $17 $18 reversed $6 $-1 #
face $-1 $19 $20 $3 $-1 $21 forward single #
loop $-1 $-1 $22 $8 #
cone-surface $-1 0 0 0 0 1 0 0.62598425196850382 0 0 1 I I 0 1 0.62598425196850382 forward I I I I #
coedge $-1 $23 $17 $24 $25 forward $9 $-1 #
coedge $-1 $11 $11 $26 $27 reversed $6 $-1 #
coedge $-1 $15 $28 $11 $18 forward $9 $-1 #
edge $-1 $29 0 $30 3.1415926535897931 $11 $31 forward 7 unknown #
face $-1 $32 $33 $3 $-1 $34 reversed single #
loop $-1 $35 $36 $12 #
plane-surface $-1 0 0.98425196850393704 0 0 1 0 1 0 0 forward_v I I I I #
coedge $-1 $37 $26 $28 $38 forward $13 $-1 #
coedge $-1 $28 $15 $36 $39 reversed $9 $-1 #
coedge $-1 $26 $37 $15 $25 reversed $13 $-1 #
edge $-1 $30 0 $40 0.98425196850393704 $24 $41 forward 7 unknown #
coedge $-1 $22 $24 $16 $27 forward $13 $-1 #
edge $-1 $30 0 $29 3.1415926535897931 $16 $42 forward 7 unknown #
coedge $-1 $17 $23 $22 $38 reversed $9 $-1 #
vertex $-1 $27 $43 #
vertex $-1 $27 $44 #
ellipse-curve $-1 0 0 0 0 1 0 -0.62598425196850382 0 0 1 I I #
face $-1 $45 $46 $3 $-1 $47 forward single #
loop $-1 $-1 $48 $19 #
cone-surface $-1 -0.040000000000000001 1.0629921259842521 -0.39394307316726901 -1 0 0 0 -0.07874015748031496 0 1 I I 0 1 0.07874015748031496 forward I I I I #
loop $-1 $-1 $49 $12 #
coedge $-1 $50 $50 $23 $39 forward $20 $-1 #
coedge $-1 $24 $22 $50 $51 reversed $13 $-1 #
edge $-1 $29 0 $52 0.98425196850393704 $22 $53 forward 7 unknown #
edge $-1 $52 0 $40 3.1415926535897931 $36 $54 forward 7 unknown #
vertex $-1 $51 $55 #
straight-curve $-1 0.62598425196850382 0 0 0 1 0 I I #
ellipse-curve $-1 0 0 0 0 1 0 0.62598425196850382 0 0 1 I I #
point $-1 -0.62598425196850382 0 0 #
point $-1 0.62598425196850382 0 0 #
face $-1 $56 $57 $3 $-1 $58 reversed single #
loop $-1 $-1 $59 $32 #
plane-surface $-1 -0.040000000000000001 0.98425196850393704 -0.36500000000000005 -1 0 0 0 0 1 forward_v I I I I #
coedge $-1 $60 $61 $59 $62 forward $33 $-1 #
coedge $-1 $63 $64 $61 $65 forward $35 $-1 #
coedge $-1 $36 $36 $37 $51 forward $20 $-1 #
edge $-1 $40 0 $52 3.1415926535897931 $50 $66 forward 7 unknown #
vertex $-1 $51 $67 #
straight-curve $-1 -0.62598425196850382 0 -7.6658429235337769e-017 0 1 0 I I #
ellipse-curve $-1 0 0.98425196850393704 0 0 1 0 -0.62598425196850382 0 0 1 I I #
point $-1 0.62598425196850382 0.98425196850393704 0 #
face $-1 $68 $69 $3 $-1 $70 forward single #
loop $-1 $-1 $71 $45 #
cone-surface $-1 -0.040000000000000001 1.0629921259842521 0.39394307316726895 1 0 0 0 -0.07874015748031496 0 1 I I 0 1 0.07874015748031496 forward I I I I #
coedge $-1 $72 $73 $48 $62 reversed $46 $-1 #
coedge $-1 $74 $48 $75 $76 forward $33 $-1 #
coedge $-1 $48 $74 $49 $65 reversed $33 $-1 #
edge $-1 $77 -3.9761054813466667e-030 $78 0.7044940642422064 $59 $79 forward 7 unknown #
coedge $-1 $80 $49 $81 $82 reversed $35 $-1 #
coedge $-1 $49 $80 $72 $83 reversed $35 $-1 #
edge $-1 $77 0 $84 0.079999999999999988 $49 $85 forward 7 unknown #
ellipse-curve $-1 0 0.98425196850393704 0 0 1 0 0.62598425196850382 0 0 1 I I #
point $-1 -0.62598425196850382 0.98425196850393704 0 #
face $-1 $86 $87 $3 $-1 $88 forward single #
loop $-1 $-1 $89 $56 #
plane-surface $-1 0.040000000000000001 0.98425196850393704 0.36499999999999994 1 0 0 0 0 -1 forward_v I I I I #
coedge $-1 $90 $91 $92 $93 forward $57 $-1 #
coedge $-1 $94 $59 $64 $83 forward $46 $-1 #
coedge $-1 $59 $95 $96 $97 reversed $46 $-1 #
coedge $-1 $61 $60 $98 $99 reversed $33 $-1 #
coedge $-1 $96 $100 $60 $76 reversed $101 $-1 #
edge $-1 $78 3.4694469519536142e-017 $102 0.080000000000000043 $75 $103 forward 7 unknown #
vertex $-1 $83 $104 #
vertex $-1 $97 $105 #
ellipse-curve $-1 -0.040000000000000001 1.0629921259842532 -0.39394307316726923 -1 0 0 0 -0.078740157480316042 2.2204460492503131e-016 1 I I #
coedge $-1 $64 $63 $91 $106 reversed $35 $-1 #
coedge $-1 $98 $92 $63 $82 forward $69 $-1 #
edge $-1 $107 0 $84 0.78788614633453791 $63 $108 forward 7 unknown #
edge $-1 $77 0 $109 0.78788614633453791 $64 $110 forward 7 unknown #
vertex $-1 $82 $111 #
straight-curve $-1 -0.040000000000000001 0.98425196850393704 -0.39394307316726901 1 0 0 I I #
face $-1 $112 $101 $3 $-1 $113 forward single #
loop $-1 $-1 $114 $68 #
cone-surface $-1 -0.040000000000000001 1.0755118110236219 -0.13605692683273099 -1 0 0 0 0.07874015748031496 0 1 I I 0 1 0.07874015748031496 forward I I I I #
coedge $-1 $115 $116 $114 $117 reversed $69 $-1 #
coedge $-1 $118 $71 $119 $120 reversed $57 $-1 #
coedge $-1 $71 $118 $80 $106 forward $57 $-1 #
coedge $-1 $81 $121 $71 $93 reversed $69 $-1 #
edge $-1 $107 0 $122 0.7044940642422115 $92 $123 forward 7 unknown #
coedge $-1 $124 $72 $118 $125 forward $46 $-1 #
coedge $-1 $73 $126 $127 $128 forward $46 $-1 #
coedge $-1 $129 $75 $73 $97 forward $101 $-1 #
edge $-1 $78 0 $130 0.20460194863359593 $73 $131 forward 7 unknown #
coedge $-1 $116 $81 $74 $99 forward $69 $-1 #
edge $-1 $84 0 $102 0.70449406424221217 $98 $132 forward 7 unknown #
coedge $-1 $75 $129 $116 $133 reversed $101 $-1 #
loop $-1 $-1 $75 $86 #
vertex $-1 $133 $134 #
straight-curve $-1 -0.040000000000000036 1.0029969041134283 -0.34294713457706905 1 0 0 I I #
point $-1 -0.040000000000000001 0.98425196850393704 -0.39394307316726901 #
point $-1 -0.040000000000000001 1.0029969041134283 -0.34294713457706899 #
edge $-1 $109 0 $107 0.079999999999999988 $80 $135 forward 7 unknown #
vertex $-1 $106 $136 #
straight-curve $-1 0.040000000000000001 0.98425196850393704 0.39394307316726895 0 0 -1 I I #
vertex $-1 $83 $137 #
straight-curve $-1 -0.040000000000000001 0.98425196850393704 -0.39394307316726901 0 0 1 I I #
point $-1 0.039999999999999987 0.98425196850393715 -0.39394307316726901 #
face $-1 $138 $139 $3 $-1 $140 forward single #
plane-surface $-1 0.75118110236220459 0.98425196850393704 -0.36499999999999994 0 0.76193931775945944 -0.64764842009554047 0 0.64764842009554047 0.76193931775945944 forward_v I I I I #
coedge $-1 $141 $142 $89 $117 forward $87 $-1 #
coedge $-1 $143 $89 $144 $145 reversed $69 $-1 #
coedge $-1 $89 $98 $100 $133 forward $69 $-1 #
edge $-1 $146 0 $147 0.70449406424220251 $89 $148 forward 7 unknown #
coedge $-1 $91 $90 $94 $125 reversed $57 $-1 #
coedge $-1 $149 $150 $90 $120 forward $151 $-1 #
edge $-1 $152 3.4694469519536142e-017 $122 0.080000000000000071 $119 $153 forward 7 unknown #
coedge $-1 $92 $143 $149 $154 reversed $69 $-1 #
vertex $-1 $93 $155 #
ellipse-curve $-1 0.040000000000000001 1.0629921259842525 0.39394307316726895 1 -1.7624790515924268e-016 0 -1.3877787807814457e-017 -0.078740157480315376 0 1 I I #
coedge $-1 $156 $94 $150 $157 forward $46 $-1 #
edge $-1 $109 9.9402637033668891e-031 $152 0.70449406424221406 $94 $158 forward 7 unknown #
coedge $-1 $95 $156 $159 $160 reversed $46 $-1 #
coedge $-1 $142 $141 $95 $128 reversed $87 $-1 #
edge $-1 $161 0 $130 0.70449406424220329 $95 $162 forward 7 unknown #
coedge $-1 $100 $96 $141 $163 forward $101 $-1 #
vertex $-1 $97 $164 #
straight-curve $-1 -0.040000000000000036 1.0029969041134283 -0.34294713457706899 0 0.64764842009554047 0.76193931775945933 I I #
ellipse-curve $-1 0.040000000000000001 1.0629921259842525 -0.39394307316726912 -1 1.7624790515924268e-016 -2.4850659258417122e-031 -1.3877787807814457e-017 -0.078740157480315376 1.1102230246251565e-016 1 I I #
edge $-1 $102 0 $147 0.20460194863359601 $116 $165 forward 7 unknown #
point $-1 0.040000000000000001 1.0029969041134283 -0.34294713457706899 #
straight-curve $-1 -0.040000000000000001 0.98425196850393704 0.39394307316726895 1 0 0 I I #
point $-1 0.039999999999999987 0.98425196850393715 0.39394307316726895 #
point $-1 -0.040000000000000001 0.98425196850393704 0.39394307316726895 #
face $-1 $166 $167 $3 $-1 $168 forward single #
loop $-1 $-1 $159 $112 #
plane-surface $-1 0 1.154251968503937 0 0 1 0 1 0 0 forward_v I I I I #
coedge $-1 $127 $114 $129 $163 reversed $87 $-1 #
coedge $-1 $114 $127 $169 $170 forward $87 $-1 #
coedge $-1 $121 $115 $171 $172 forward $69 $-1 #
coedge $-1 $169 $173 $115 $145 forward $139 $-1 #
edge $-1 $174 5.5511151231257827e-017 $146 0.27211385366546204 $144 $175 forward 7 unknown #
vertex $-1 $170 $176 #
vertex $-1 $133 $177 #
ellipse-curve $-1 0.040000000000000001 1.0755118110236206 -0.13605692683273035 -1 -1.7624790515924044e-016 1.428912907358948e-030 -1.3877787807814457e-017 0.078740157480316375 -6.3837823915946501e-016 1 I I #
coedge $-1 $178 $119 $121 $154 forward $151 $-1 #
coedge $-1 $119 $178 $124 $157 reversed $151 $-1 #
loop $-1 $-1 $119 $166 #
vertex $-1 $157 $179 #
straight-curve $-1 -0.040000000000000036 1.0029969041134283 0.34294713457706905 1 0 0 I I #
edge $-1 $122 -8.4592257394373519e-017 $180 0.20460194863359588 $121 $181 forward 7 unknown #
point $-1 0.040000000000000029 1.0029969041134283 0.34294713457706905 #
coedge $-1 $126 $124 $182 $183 reversed $46 $-1 #
edge $-1 $152 0 $184 0.20460194863359582 $124 $185 forward 7 unknown #
ellipse-curve $-1 -0.040000000000000001 1.0629921259842523 0.3939430731672689 1 0 0 0 -0.078740157480315154 5.5511151231257827e-017 1 I I #
coedge $-1 $173 $169 $126 $160 forward $139 $-1 #
edge $-1 $161 0 $186 0.27211385366546198 $159 $187 forward 7 unknown #
vertex $-1 $170 $188 #
ellipse-curve $-1 -0.040000000000000001 1.0755118110236206 -0.13605692683273041 -1 0 0 0 0.078740157480316375 -5.8286708792820718e-016 1 I I #
edge $-1 $130 3.4694469519536142e-017 $147 0.080000000000000043 $129 $189 forward 7 unknown #
point $-1 -0.040000000000000001 1.1355070328944457 -0.18705286542293098 #
straight-curve $-1 0.040000000000000036 1.0029969041134283 -0.34294713457706899 0 0.64764842009554036 0.76193931775945933 I I #
face $-1 $-1 $151 $3 $-1 $190 reversed single #
loop $-1 $-1 $182 $138 #
cone-surface $-1 -0.040000000000000001 1.0755118110236219 0.13605692683273099 1 0 0 0 0.07874015748031496 0 1 I I 0 1 0.07874015748031496 forward I I I I #
coedge $-1 $159 $144 $142 $170 reversed $139 $-1 #
edge $-1 $161 0 $146 0.079999999999999988 $169 $191 forward 7 unknown #
coedge $-1 $192 $193 $143 $172 reversed $167 $-1 #
edge $-1 $174 4.9009283894832826e-062 $180 0.70449406424219918 $143 $194 forward 7 unknown #
coedge $-1 $144 $159 $192 $195 forward $139 $-1 #
vertex $-1 $145 $196 #
straight-curve $-1 0.040000000000000001 1.154251968503937 0.13605692683273105 0 0 -1 I I #
point $-1 0.039999999999999987 1.154251968503937 -0.13605692683273099 #
point $-1 0.040000000000000001 1.1355070328944457 -0.18705286542293093 #
coedge $-1 $150 $149 $193 $197 reversed $151 $-1 #
point $-1 -0.040000000000000001 1.0029969041134283 0.34294713457706899 #
vertex $-1 $154 $198 #
straight-curve $-1 0.040000000000000036 1.0029969041134283 0.34294713457706894 0 0.64764842009554069 -0.76193931775945933 I I #
coedge $-1 $193 $192 $156 $183 forward $167 $-1 #
edge $-1 $186 0 $184 0.70449406424221273 $156 $199 forward 7 unknown #
vertex $-1 $183 $200 #
straight-curve $-1 -0.040000000000000036 1.0029969041134283 0.34294713457706899 0 0.64764842009554069 -0.76193931775945911 I I #
vertex $-1 $195 $201 #
straight-curve $-1 -0.040000000000000001 1.154251968503937 -0.13605692683273099 0 0 1 I I #
point $-1 -0.040000000000000001 1.154251968503937 -0.13605692683273099 #
straight-curve $-1 -0.040000000000000036 1.1355070328944457 -0.18705286542293095 1 0 0 I I #
plane-surface $-1 0.75118110236220459 0.98425196850393704 0.36499999999999994 0 -0.76193931775945944 -0.64764842009554047 0 0.64764842009554047 -0.76193931775945944 forward_v I I I I #
straight-curve $-1 -0.040000000000000001 1.154251968503937 -0.13605692683273099 1 0 0 I I #
coedge $-1 $182 $171 $173 $195 reversed $167 $-1 #
coedge $-1 $171 $182 $178 $197 forward $167 $-1 #
ellipse-curve $-1 0.040000000000000001 1.0755118110236201 0.13605692683273027 1 1.7624790515923945e-016 1.6152928517970538e-030 -1.3877787807814457e-017 0.078740157480316819 7.2164496600635175e-016 1 I I #
edge $-1 $186 0 $174 0.079999999999999988 $173 $202 forward 7 unknown #
point $-1 0.039999999999999987 1.154251968503937 0.13605692683273099 #
edge $-1 $184 3.4694469519536142e-017 $180 0.080000000000000043 $178 $203 forward 7 unknown #
point $-1 0.040000000000000001 1.1355070328944457 0.18705286542293098 #
ellipse-curve $-1 -0.040000000000000001 1.0755118110236215 0.13605692683273068 1 0 0 0 0.078740157480315487 3.0531133177191805e-016 1 I I #
point $-1 -0.040000000000000001 1.1355070328944454 0.18705286542293093 #
point $-1 -0.040000000000000001 1.154251968503937 0.13605692683273099 #
straight-curve $-1 -0.040000000000000001 1.154251968503937 0.13605692683273099 1 0 0 I I #
straight-curve $-1 -0.040000000000000036 1.1355070328944457 0.18705286542293095 1 0 0 I I #
End-of-ACIS-data 