600 0 1 0           
123 GICL Pro/E ACIS Translator - Source: f:/data5/repository/PTC/V20/web_demos/models/shtmtl_manual/part/pem-f-m3-1.prt.1 - 6 0 13 ACIS 6.0.3 NT 24 Thu Apr 04 13:10:10 2002 
1 9.9999999999999995e-007 1e-010 
body $-1 $1 $-1 $2 #
lump $-1 $-1 $3 $0 #
transform $-1 1 0 0 0 1 0 0 0 1 0 0 0 25.399999999999999 no_rotate no_reflect no_shear #
shell $-1 $-1 $-1 $4 $-1 $1 #
face $-1 $5 $6 $3 $-1 $7 reversed single #
face $-1 $8 $9 $3 $-1 $10 forward single #
loop $-1 $11 $12 $4 #
plane-surface $-1 0 0 0 0 1 0 1 0 0 forward_v I I I I #
face $-1 $13 $14 $3 $-1 $15 forward single #
loop $-1 $-1 $16 $5 #
plane-surface $-1 0.095262794416288044 0 -0.054559600438419641 0.50000000000000011 0 -0.8660254037844386 -0.86602540378443837 0 -0.5 forward_v I I I I #
loop $-1 $-1 $17 $4 #
coedge $-1 $18 $19 $20 $21 reversed $6 $-1 #
face $-1 $22 $23 $3 $-1 $24 forward single #
loop $-1 $-1 $25 $8 #
plane-surface $-1 0 0 -0.10955960043841957 -0.5 0 -0.86602540378443871 -0.86602540378443871 0 0.5 forward_v I I I I #
coedge $-1 $26 $20 $27 $28 forward $9 $-1 #
coedge $-1 $29 $29 $30 $31 reversed $11 $-1 #
coedge $-1 $32 $12 $33 $34 reversed $6 $-1 #
coedge $-1 $12 $35 $36 $37 reversed $6 $-1 #
coedge $-1 $16 $38 $12 $21 forward $9 $-1 #
edge $-1 $39 0 $40 0.10999999999999981 $12 $41 forward 7 unknown #
face $-1 $42 $43 $3 $-1 $44 forward single #
loop $-1 $-1 $45 $13 #
plane-surface $-1 -0.093737205583711958 0 -0.055440399561580214 -1 0 0 0 0 1 forward_v I I I I #
coedge $-1 $46 $36 $47 $48 forward $14 $-1 #
coedge $-1 $38 $16 $49 $50 reversed $9 $-1 #
coedge $-1 $36 $46 $16 $28 reversed $14 $-1 #
edge $-1 $40 0 $51 0.023 $27 $52 forward 7 unknown #
coedge $-1 $17 $17 $53 $54 reversed $11 $-1 #
coedge $-1 $55 $56 $17 $31 forward $57 $-1 #
edge $-1 $58 0 $59 3.1415926535897931 $17 $60 forward 7 unknown #
coedge $-1 $61 $18 $62 $63 reversed $6 $-1 #
coedge $-1 $64 $65 $18 $34 forward $66 $-1 #
edge $-1 $67 0 $39 0.10735760263051806 $18 $68 forward 7 unknown #
coedge $-1 $19 $61 $69 $70 reversed $6 $-1 #
coedge $-1 $25 $27 $19 $37 forward $14 $-1 #
edge $-1 $40 0 $71 0.10823840175367878 $19 $72 forward 7 unknown #
coedge $-1 $20 $26 $64 $73 reversed $9 $-1 #
vertex $-1 $34 $74 #
vertex $-1 $37 $75 #
straight-curve $-1 0.095262794416288044 0 -0.054559600438419641 -0.86602540378443849 0 -0.50000000000000011 I I #
face $-1 $76 $77 $3 $-1 $78 forward single #
loop $-1 $-1 $79 $22 #
plane-surface $-1 -0.093737205583711958 0 0.053678801315259053 -0.5 0 0.86602540378443871 0.86602540378443871 0 0.5 forward_v I I I I #
coedge $-1 $80 $69 $81 $82 forward $23 $-1 #
coedge $-1 $27 $25 $83 $84 reversed $14 $-1 #
coedge $-1 $69 $80 $25 $48 reversed $23 $-1 #
edge $-1 $71 0 $85 0.023 $25 $86 forward 7 unknown #
coedge $-1 $83 $87 $26 $50 forward $88 $-1 #
edge $-1 $89 0 $51 0.10999999999999981 $49 $90 forward 7 unknown #
vertex $-1 $84 $91 #
straight-curve $-1 -2.7755575615628914e-017 0 -0.10955960043841956 0 1 0 I I #
coedge $-1 $92 $93 $29 $54 forward $94 $-1 #
edge $-1 $59 0 $58 3.1415926535897931 $29 $95 forward 7 unknown #
coedge $-1 $96 $30 $93 $97 reversed $57 $-1 #
coedge $-1 $30 $96 $92 $98 forward $57 $-1 #
loop $-1 $-1 $55 $99 #
vertex $-1 $54 $100 #
vertex $-1 $54 $101 #
ellipse-curve $-1 -5.2041704279304213e-018 0 -1.0408340855860843e-017 0 -1 0 -0.064000000000000001 0 1.0408340855860843e-017 1 I I #
coedge $-1 $35 $32 $102 $103 reversed $6 $-1 #
coedge $-1 $104 $105 $32 $63 forward $77 $-1 #
edge $-1 $106 0 $67 0.10999999999999983 $32 $107 forward 7 unknown #
coedge $-1 $108 $33 $38 $73 forward $66 $-1 #
coedge $-1 $33 $108 $104 $109 reversed $66 $-1 #
loop $-1 $-1 $64 $76 #
vertex $-1 $63 $110 #
straight-curve $-1 0.095262794416288044 0 0.052798002192098424 0 0 -1 I I #
coedge $-1 $45 $47 $35 $70 forward $23 $-1 #
edge $-1 $71 0 $111 0.10911920087683927 $35 $112 forward 7 unknown #
vertex $-1 $37 $113 #
straight-curve $-1 0 0 -0.10955960043841957 -0.8660254037844386 0 0.49999999999999994 I I #
edge $-1 $39 0 $89 0.023 $64 $114 forward 7 unknown #
point $-1 0.095262794416288044 0 -0.054559600438419641 #
point $-1 0 0 -0.10955960043841957 #
face $-1 $115 $66 $3 $-1 $116 forward single #
loop $-1 $-1 $104 $42 #
plane-surface $-1 0 0 0.10779800219209842 0.50000000000000033 0 0.8660254037844386 0.86602540378443815 0 -0.5 forward_v I I I I #
coedge $-1 $117 $102 $105 $118 forward $43 $-1 #
coedge $-1 $47 $45 $119 $120 reversed $23 $-1 #
coedge $-1 $102 $117 $45 $82 reversed $43 $-1 #
edge $-1 $111 0 $121 0.023 $45 $122 forward 7 unknown #
coedge $-1 $119 $49 $46 $84 forward $88 $-1 #
edge $-1 $51 0 $85 0.10823840175367878 $83 $123 forward 7 unknown #
vertex $-1 $84 $124 #
straight-curve $-1 -0.093737205583711958 0 -0.055440399561580186 0 1 0 I I #
coedge $-1 $49 $125 $108 $126 forward $88 $-1 #
loop $-1 $127 $119 $115 #
vertex $-1 $50 $128 #
straight-curve $-1 0.095262794416288044 0.023 -0.054559600438419641 -0.86602540378443849 0 -0.50000000000000011 I I #
point $-1 0 0.023 -0.10955960043841957 #
coedge $-1 $129 $53 $56 $98 reversed $94 $-1 #
coedge $-1 $53 $129 $55 $97 forward $94 $-1 #
loop $-1 $-1 $92 $130 #
ellipse-curve $-1 -1.7347234759768071e-018 0 3.4694469519536142e-018 0 -1 0 0.064000000000000001 0 -3.4694469519536142e-018 1 I I #
coedge $-1 $56 $55 $131 $132 reversed $57 $-1 #
edge $-1 $133 0 $59 0.055677165354330711 $93 $134 forward 7 unknown #
edge $-1 $135 0 $58 0.055677165354330711 $92 $136 forward 7 unknown #
face $-1 $130 $57 $3 $-1 $137 reversed single #
point $-1 -0.064000000000000001 0 0 #
point $-1 0.064000000000000001 0 0 #
coedge $-1 $79 $81 $61 $103 forward $43 $-1 #
edge $-1 $111 0 $106 0.10823840175367878 $61 $138 forward 7 unknown #
coedge $-1 $139 $62 $65 $109 forward $77 $-1 #
coedge $-1 $62 $139 $79 $118 reversed $77 $-1 #
vertex $-1 $103 $140 #
straight-curve $-1 0 0 0.10779800219209842 0.86602540378443849 0 -0.50000000000000022 I I #
coedge $-1 $65 $64 $87 $126 reversed $66 $-1 #
edge $-1 $67 0 $141 0.023 $104 $142 forward 7 unknown #
point $-1 0.095262794416288044 0 0.052798002192098424 #
vertex $-1 $70 $143 #
straight-curve $-1 -0.093737205583711958 0 -0.055440399561580214 0 0 1 I I #
point $-1 -0.093737205583711958 0 -0.055440399561580214 #
straight-curve $-1 0.095262794416288044 0 -0.054559600438419641 0 1 0 I I #
face $-1 $144 $88 $3 $-1 $145 forward single #
plane-surface $-1 0.095262794416288044 0 0.052798002192098424 1 0 0 0 0 -1 forward_v I I I I #
coedge $-1 $81 $79 $146 $147 reversed $43 $-1 #
edge $-1 $106 0 $148 0.023 $79 $149 forward 7 unknown #
coedge $-1 $146 $83 $80 $120 forward $88 $-1 #
edge $-1 $85 0 $121 0.10911920087683927 $119 $150 forward 7 unknown #
vertex $-1 $147 $151 #
straight-curve $-1 -0.093737205583711958 0 0.053678801315259053 0 1 0 I I #
straight-curve $-1 0 0.023 -0.10955960043841957 -0.8660254037844386 0 0.49999999999999994 I I #
point $-1 -0.093737205583711958 0.023 -0.055440399561580214 #
coedge $-1 $87 $146 $139 $152 forward $88 $-1 #
edge $-1 $141 0 $89 0.10735760263051806 $87 $153 forward 7 unknown #
loop $-1 $-1 $154 $115 #
point $-1 0.095262794416288044 0.023 -0.054559600438419641 #
coedge $-1 $93 $92 $155 $156 reversed $94 $-1 #
face $-1 $-1 $94 $3 $-1 $157 reversed single #
coedge $-1 $155 $155 $96 $132 forward $158 $-1 #
edge $-1 $135 0 $133 3.1415926535897931 $131 $159 forward 7 unknown #
vertex $-1 $156 $160 #
straight-curve $-1 0.064000000000000001 0.055677165354330711 0 0 -1 0 I I #
vertex $-1 $156 $161 #
straight-curve $-1 -0.064000000000000001 0.055677165354330711 7.8374806644632141e-018 0 -1 0 I I #
cone-surface $-1 0 0.055677165354330711 0 0 -1 0 0.064000000000000001 0 0 1 I I 0 1 0.064000000000000001 forward I I I I #
straight-curve $-1 -0.093737205583711958 0 0.053678801315259053 0.8660254037844386 0 0.49999999999999994 I I #
coedge $-1 $105 $104 $125 $152 reversed $77 $-1 #
point $-1 0 0 0.10779800219209842 #
vertex $-1 $126 $162 #
straight-curve $-1 0.095262794416288071 0 0.052798002192098493 0 1 0 I I #
point $-1 -0.093737205583711958 0 0.053678801315259053 #
face $-1 $163 $164 $3 $-1 $165 forward single #
plane-surface $-1 0 0.023 0 0 1 0 1 0 0 forward_v I I I I #
coedge $-1 $125 $119 $117 $147 forward $88 $-1 #
edge $-1 $121 0 $148 0.10823840175367878 $146 $166 forward 7 unknown #
vertex $-1 $152 $167 #
straight-curve $-1 0 0 0.10779800219209844 0 1 0 I I #
straight-curve $-1 -0.093737205583711958 0.023 -0.055440399561580214 0 0 1 I I #
point $-1 -0.093737205583711958 0.023 0.053678801315259053 #
edge $-1 $148 0 $141 0.10999999999999983 $125 $168 forward 7 unknown #
straight-curve $-1 0.095262794416288044 0.023 0.052798002192098424 0 0 -1 I I #
coedge $-1 $169 $169 $170 $171 reversed $127 $-1 #
coedge $-1 $131 $131 $129 $156 forward $158 $-1 #
edge $-1 $133 0 $135 3.1415926535897931 $155 $172 forward 7 unknown #
cone-surface $-1 0 0.055677165354330711 0 0 -1 0 0.064000000000000001 0 0 1 I I 0 1 0.064000000000000001 forward I I I I #
loop $-1 $-1 $131 $173 #
ellipse-curve $-1 0 0.055677165354330711 0 0 -1 0 -0.064000000000000001 0 0 1 I I #
point $-1 0.064000000000000001 0.055677165354330711 0 #
point $-1 -0.064000000000000001 0.055677165354330711 0 #
point $-1 0.095262794416288044 0.023 0.052798002192098424 #
face $-1 $174 $175 $3 $-1 $176 forward single #
loop $-1 $-1 $177 $144 #
cone-surface $-1 0 0.021366141732283461 0 0 1 0 0 0 -0.065000000000000002 1 I I 0 1 0.065000000000000002 forward I I I I #
straight-curve $-1 -0.093737205583711958 0.023 0.053678801315259053 0.8660254037844386 0 0.49999999999999994 I I #
point $-1 0 0.023 0.10779800219209842 #
straight-curve $-1 0 0.023 0.10779800219209842 0.86602540378443849 0 -0.50000000000000022 I I #
coedge $-1 $154 $154 $178 $179 reversed $127 $-1 #
coedge $-1 $177 $180 $154 $171 forward $164 $-1 #
edge $-1 $181 0 $182 3.1415926535897931 $154 $183 forward 7 unknown #
ellipse-curve $-1 0 0.055677165354330711 0 0 -1 0 0.064000000000000001 0 0 1 I I #
face $-1 $99 $184 $3 $-1 $185 forward single #
face $-1 $186 $187 $3 $-1 $188 forward single #
loop $-1 $-1 $189 $163 #
cone-surface $-1 0 0.021366141732283461 0 0 1 0 0 0 -0.065000000000000002 1 I I 0 1 0.065000000000000002 forward I I I I #
coedge $-1 $190 $170 $191 $192 reversed $164 $-1 #
coedge $-1 $189 $191 $169 $179 forward $175 $-1 #
edge $-1 $182 0 $181 3.1415926535897931 $169 $193 forward 7 unknown #
coedge $-1 $170 $190 $189 $194 forward $164 $-1 #
vertex $-1 $179 $195 #
vertex $-1 $179 $196 #
ellipse-curve $-1 3.4694469519536142e-018 0.023 -3.4694469519536142e-018 0 1 0 -3.4694469519536142e-018 0 -0.065000000000000002 1 I I #
loop $-1 $158 $197 $173 #
plane-surface $-1 0 0.055677165354330711 0 0 1 0 0 0 -1 forward_v I I I I #
face $-1 $173 $198 $3 $-1 $199 forward single #
loop $-1 $-1 $200 $174 #
cone-surface $-1 0 0.95884744094488195 0 0 -1 0 0 0 -0.87782961810955595 1 I I -0.6597081652569482 0.75152188038227541 0.87782961810955595 forward I I I I #
coedge $-1 $201 $178 $180 $194 reversed $175 $-1 #
coedge $-1 $180 $177 $202 $203 forward $164 $-1 #
coedge $-1 $178 $201 $177 $192 forward $175 $-1 #
edge $-1 $204 -1.5265566588595902e-016 $182 0.0098937007874015728 $191 $205 forward 7 unknown #
ellipse-curve $-1 0 0.023 5.2041704279304213e-018 0 1 0 0 0 0.065000000000000002 1 I I #
edge $-1 $206 0 $181 0.0098937007874015728 $189 $207 forward 7 unknown #
point $-1 0 0.023 -0.065000000000000002 #
point $-1 0 0.023 0.065000000000000002 #
coedge $-1 $208 $208 $209 $210 reversed $184 $-1 #
loop $-1 $-1 $209 $186 #
cone-surface $-1 0 0.95884744094488195 0 0 -1 0 0 0 -0.87782961810955595 1 I I -0.6597081652569482 0.75152188038227541 0.87782961810955595 forward I I I I #
coedge $-1 $211 $212 $201 $213 forward $187 $-1 #
coedge $-1 $191 $189 $200 $213 reversed $175 $-1 #
coedge $-1 $214 $215 $190 $203 reversed $198 $-1 #
edge $-1 $204 1.3675242208666751e-031 $206 3.1415926535897931 $202 $216 forward 7 unknown #
vertex $-1 $217 $218 #
straight-curve $-1 7.9599412998454526e-018 0.032893700787401572 0.065000000000000002 0 -1 0 I I #
vertex $-1 $219 $220 #
straight-curve $-1 -1.5919882599690905e-017 0.032893700787401572 -0.065000000000000002 0 -1 0 I I #
coedge $-1 $197 $197 $221 $222 forward $184 $-1 #
coedge $-1 $215 $214 $197 $210 forward $198 $-1 #
edge $-1 $223 0 $224 3.141592653589794 $197 $225 forward 7 unknown #
coedge $-1 $221 $200 $215 $219 reversed $187 $-1 #
coedge $-1 $200 $221 $214 $217 forward $187 $-1 #
edge $-1 $204 -1.8233656278222334e-031 $206 3.1415926535897931 $200 $226 forward 7 unknown #
coedge $-1 $209 $202 $212 $217 reversed $198 $-1 #
coedge $-1 $202 $209 $211 $219 forward $198 $-1 #
ellipse-curve $-1 -3.4694469519536142e-018 0.032893700787401572 0 0 -1 0 1.1429388251799067e-017 0 0.065000000000000002 1 I I #
edge $-1 $223 0 $204 0.03031643543810052 $212 $227 forward 7 unknown #
point $-1 7.9599412998454542e-018 0.032893700787401725 0.065000000000000058 #
edge $-1 $224 3.3637506392240614e-033 $206 0.03031643543810067 $211 $228 forward 7 unknown #
point $-1 -1.5919882599690905e-017 0.032893700787401572 -0.065000000000000002 #
coedge $-1 $212 $211 $208 $222 reversed $187 $-1 #
edge $-1 $223 0 $224 3.1415926535897936 $208 $229 forward 7 unknown #
vertex $-1 $222 $230 #
vertex $-1 $222 $231 #
ellipse-curve $-1 -3.1225022567582528e-017 0.055677165354330711 3.4694469519536142e-018 9.19666170617617e-031 -1 1.8775830563513663e-015 4.163417657507274e-017 1.5959455978986625e-016 0.085000000000000075 1 I I #
ellipse-curve $-1 -6.9388939039072284e-018 0.032893700787401572 0 0 1 0 1.4898835203752683e-017 0 0.065000000000000002 1 I I #
straight-curve $-1 1.0409154007490212e-017 0.055677165354330871 0.085000000000000075 -8.0788281084216225e-017 -0.7515218803822753 -0.65970816525694831 I I #
straight-curve $-1 -2.0818308014980424e-017 0.055677165354330871 -0.085000000000000075 1.6157656216843245e-016 -0.7515218803822753 0.65970816525694831 I I #
ellipse-curve $-1 2.4286128663675299e-017 0.055677165354330711 0 3.0653144103376967e-031 1 -1.8775830563513663e-015 -1.3876974656185087e-017 1.5959455978986625e-016 0.085000000000000075 1 I I #
point $-1 1.0409154007490212e-017 0.055677165354330871 0.085000000000000075 #
point $-1 0 0.055677165354330871 -0.085000000000000075 #
End-of-ACIS-data 