600 0 1 0           
127 GICL Pro/E ACIS Translator - Source: f:/data5/repository/PTC/V20/web_demos/models/shtmtl_manual/part/pem_m3x05_pf32.prt.1 - 6 0 13 ACIS 6.0.3 NT 24 Thu Apr 04 13:10:12 2002 
1 9.9999999999999995e-007 1e-010 
body $-1 $1 $-1 $2 #
lump $-1 $-1 $3 $0 #
transform $-1 1 0 0 0 1 0 0 0 1 0 0 0 25.399999999999999 no_rotate no_reflect no_shear #
shell $-1 $-1 $-1 $4 $-1 $1 #
face $-1 $5 $6 $3 $-1 $7 forward single #
face $-1 $8 $9 $3 $-1 $10 forward single #
loop $-1 $-1 $11 $4 #
plane-surface $-1 0 0 0 0 -1 0 -1 0 0 forward_v I I I I #
face $-1 $12 $13 $3 $-1 $14 forward single #
loop $-1 $-1 $15 $5 #
cone-surface $-1 0 0.95100000000000007 0 0 -1 0 -0.99999999999999922 0 0 1 I I -0.70710678118654724 0.70710678118654779 0.99999999999999922 forward I I I I #
coedge $-1 $16 $16 $17 $18 forward $6 $-1 #
face $-1 $19 $20 $3 $-1 $21 forward single #
loop $-1 $-1 $22 $8 #
cone-surface $-1 0 0.65834999999999999 0 0 -1 0 -0.058999999999999997 0 0 1 I I 0 1 0.058999999999999997 forward I I I I #
coedge $-1 $23 $24 $25 $26 forward $9 $-1 #
coedge $-1 $11 $11 $27 $28 reversed $6 $-1 #
coedge $-1 $24 $23 $11 $18 reversed $9 $-1 #
edge $-1 $29 0 $30 3.1415926535897833 $11 $31 forward 7 unknown #
face $-1 $32 $33 $3 $-1 $34 forward single #
loop $-1 $35 $36 $12 #
plane-surface $-1 0 0.24199999999999999 0 0 -1 0 -1 0 0 forward_v I I I I #
coedge $-1 $37 $38 $39 $40 forward $13 $-1 #
coedge $-1 $17 $15 $41 $42 reversed $9 $-1 #
coedge $-1 $15 $17 $43 $44 forward $9 $-1 #
coedge $-1 $38 $37 $15 $26 reversed $13 $-1 #
edge $-1 $45 0 $46 3.1415926535897931 $15 $47 forward 7 unknown #
coedge $-1 $41 $43 $16 $28 forward $48 $-1 #
edge $-1 $29 0 $30 3.1415926535897873 $16 $49 forward 7 unknown #
vertex $-1 $28 $50 #
vertex $-1 $28 $51 #
ellipse-curve $-1 1.7347234759768071e-018 0 -2.445960101127298e-016 2.2657612747452154e-015 -1 1.1587592436158579e-029 0.049000000000000044 1.1102230246251565e-016 2.5059658124645944e-016 1 I I #
face $-1 $52 $48 $3 $-1 $53 forward single #
loop $-1 $-1 $54 $19 #
cone-surface $-1 0 0.65834999999999999 0 0 -1 0 -0.058999999999999997 0 0 1 I I 0 1 0.058999999999999997 forward I I I I #
loop $-1 $-1 $55 $12 #
coedge $-1 $39 $39 $56 $57 forward $20 $-1 #
coedge $-1 $25 $22 $58 $59 reversed $13 $-1 #
coedge $-1 $22 $25 $60 $61 forward $13 $-1 #
coedge $-1 $36 $36 $22 $40 reversed $20 $-1 #
edge $-1 $62 1.2246063538223773e-016 $63 3.1415926535897931 $22 $64 forward 7 unknown #
coedge $-1 $65 $27 $23 $42 forward $48 $-1 #
edge $-1 $30 0 $46 0.014142135623730848 $23 $66 forward 7 unknown #
coedge $-1 $27 $65 $24 $44 reversed $48 $-1 #
edge $-1 $29 0 $45 0.014142135623730848 $24 $67 forward 7 unknown #
vertex $-1 $44 $68 #
vertex $-1 $42 $69 #
ellipse-curve $-1 0 0.010000000000000009 -1.7347234759768071e-018 0 -1 0 0.058999999999999997 0 8.9599009635288332e-018 1 I I #
loop $-1 $-1 $27 $32 #
ellipse-curve $-1 0 0 1.3704315460216776e-016 -2.2657612747452154e-015 1 6.0594124686807018e-030 0.049000000000000044 1.1102230246251565e-016 -1.3104258346843812e-016 1 I I #
point $-1 0.049000000000000044 1.1102230246251565e-016 6.0005711337296379e-018 #
point $-1 -0.049000000000000044 1.1102230246251565e-016 -1.2001142267459276e-017 #
face $-1 $70 $71 $3 $-1 $72 forward single #
cone-surface $-1 0 0.95100000000000007 0 0 -1 0 -0.99999999999999922 0 0 1 I I -0.70710678118654724 0.70710678118654779 0.99999999999999922 forward I I I I #
coedge $-1 $58 $60 $65 $73 forward $33 $-1 #
coedge $-1 $74 $74 $75 $76 forward $35 $-1 #
coedge $-1 $60 $58 $36 $57 reversed $33 $-1 #
edge $-1 $62 -1.2246063538223773e-016 $63 3.1415926535897931 $36 $77 forward 7 unknown #
coedge $-1 $56 $54 $37 $59 forward $33 $-1 #
edge $-1 $46 0 $63 0.23199999999999998 $37 $78 forward 7 unknown #
coedge $-1 $54 $56 $38 $61 reversed $33 $-1 #
edge $-1 $45 0 $62 0.23199999999999998 $38 $79 forward 7 unknown #
vertex $-1 $61 $80 #
vertex $-1 $59 $81 #
ellipse-curve $-1 3.4694469519536142e-018 0.24199999999999999 8.6736173798840355e-018 0 -1 0 0.058999999999999997 0 -8.6736173798840355e-018 1 I I #
coedge $-1 $43 $41 $54 $73 reversed $48 $-1 #
straight-curve $-1 -0.049000000000000044 1.1102230246251565e-016 -1.2001142267459276e-017 -0.70710678118654358 0.70710678118655135 -1.7318549141438708e-016 I I #
straight-curve $-1 0.049000000000000044 1.1102230246251565e-016 6.0005711337296379e-018 0.70710678118654358 0.70710678118655135 8.6592745707193542e-017 I I #
point $-1 0.058999999999999997 0.010000000000000009 7.2251774875520261e-018 #
point $-1 -0.058999999999999997 0.010000000000000009 0 #
face $-1 $82 $83 $3 $-1 $84 forward single #
loop $-1 $-1 $85 $52 #
cone-surface $-1 0 0.65834999999999999 0 0 -1 0 -0.1075 0 0 1 I I 0 1 0.1075 forward I I I I #
edge $-1 $45 0 $46 3.1415926535897931 $65 $86 forward 7 unknown #
coedge $-1 $55 $55 $87 $88 reversed $35 $-1 #
coedge $-1 $89 $90 $55 $76 reversed $71 $-1 #
edge $-1 $91 0 $92 3.1415926535897931 $55 $93 forward 7 unknown #
ellipse-curve $-1 3.4694469519536142e-018 0.24199999999999999 -8.6736173798840355e-018 0 1 0 0.058999999999999997 0 8.6736173798840355e-018 1 I I #
straight-curve $-1 -0.058999999999999997 0.010000000000000009 -1.4450354975104052e-017 0 1 0 I I #
straight-curve $-1 0.058999999999999997 0.010000000000000009 7.2251774875520261e-018 0 1 0 I I #
point $-1 0.058999999999999997 0.24199999999999999 7.2251774875520261e-018 #
point $-1 -0.058999999999999997 0.24199999999999999 0 #
face $-1 $94 $95 $3 $-1 $96 forward single #
loop $-1 $97 $98 $70 #
plane-surface $-1 0 0.29999999999999999 0 0 -1 0 -1 0 0 forward_v I I I I #
coedge $-1 $90 $89 $99 $100 forward $71 $-1 #
ellipse-curve $-1 -1.7347234759768071e-018 0.010000000000000009 -1.7347234759768071e-018 0 1 0 0.058999999999999997 0 8.9599009635288332e-018 1 I I #
coedge $-1 $101 $102 $74 $88 forward $95 $-1 #
edge $-1 $91 0 $92 3.1415926535897931 $74 $103 forward 7 unknown #
coedge $-1 $85 $75 $102 $104 forward $71 $-1 #
coedge $-1 $75 $85 $101 $105 reversed $71 $-1 #
vertex $-1 $88 $106 #
vertex $-1 $88 $107 #
ellipse-curve $-1 0 0.24199999999999999 -1.0408340855860843e-017 0 -1 0 0.1075 0 2.3572859159451397e-017 1 I I #
face $-1 $108 $109 $3 $-1 $110 forward single #
loop $-1 $-1 $87 $82 #
cone-surface $-1 0 0.65834999999999999 0 0 -1 0 -0.1075 0 0 1 I I 0 1 0.1075 forward I I I I #
loop $-1 $-1 $111 $70 #
coedge $-1 $99 $99 $112 $113 forward $83 $-1 #
coedge $-1 $98 $98 $85 $100 reversed $83 $-1 #
edge $-1 $114 0 $115 3.1415926535897931 $85 $116 forward 7 unknown #
coedge $-1 $112 $87 $90 $105 forward $95 $-1 #
coedge $-1 $87 $112 $89 $104 reversed $95 $-1 #
ellipse-curve $-1 3.4694469519536142e-018 0.24199999999999999 -6.9388939039072284e-018 0 1 0 0.1075 0 2.0103412207497782e-017 1 I I #
edge $-1 $91 0 $114 0.057999999999999996 $89 $117 forward 7 unknown #
edge $-1 $92 0 $115 0.057999999999999996 $90 $118 forward 7 unknown #
point $-1 0.1075 0.24199999999999999 1.3164518303590556e-017 #
point $-1 -0.1075 0.24199999999999999 -2.6329036607181111e-017 #
face $-1 $119 $120 $3 $-1 $121 reversed single #
loop $-1 $-1 $122 $94 #
cone-surface $-1 0 0.65834999999999999 0 0 -1 0 -0.20300000000000001 0 0 1 I I 0 1 0.20300000000000001 forward I I I I #
coedge $-1 $123 $123 $124 $125 forward $97 $-1 #
coedge $-1 $102 $101 $98 $113 reversed $95 $-1 #
edge $-1 $114 0 $115 3.1415926535897931 $98 $126 forward 7 unknown #
vertex $-1 $104 $127 #
vertex $-1 $105 $128 #
ellipse-curve $-1 0 0.29999999999999999 0 0 -1 0 0.1075 0 0 1 I I #
straight-curve $-1 0.1075 0.24199999999999999 1.3164518303590556e-017 0 1 0 I I #
straight-curve $-1 -0.1075 0.24199999999999999 -2.6329036607181111e-017 0 1 0 I I #
face $-1 $129 $130 $3 $-1 $131 forward single #
loop $-1 $132 $133 $108 #
plane-surface $-1 0 0.39999999999999997 0 0 -1 0 -1 0 0 forward_v I I I I #
coedge $-1 $134 $135 $136 $137 forward $109 $-1 #
coedge $-1 $111 $111 $138 $139 reversed $97 $-1 #
coedge $-1 $135 $134 $111 $125 reversed $109 $-1 #
edge $-1 $140 0 $141 3.1415926535897931 $111 $142 forward 7 unknown #
ellipse-curve $-1 0 0.29999999999999999 0 0 1 0 0.1075 0 0 1 I I #
point $-1 0.1075 0.29999999999999999 0 #
point $-1 -0.1075 0.29999999999999999 0 #
face $-1 $143 $144 $3 $-1 $145 forward single #
loop $-1 $-1 $138 $119 #
cone-surface $-1 0 0.65834999999999999 0 0 -1 0 -0.20300000000000001 0 0 1 I I 0 1 0.20300000000000001 forward I I I I #
loop $-1 $-1 $146 $108 #
coedge $-1 $136 $136 $147 $148 forward $120 $-1 #
coedge $-1 $124 $122 $149 $150 reversed $109 $-1 #
coedge $-1 $122 $124 $151 $152 forward $109 $-1 #
coedge $-1 $133 $133 $122 $137 reversed $120 $-1 #
edge $-1 $153 1.2246063538223775e-016 $154 3.1415926535897931 $122 $155 forward 7 unknown #
coedge $-1 $149 $151 $123 $139 forward $130 $-1 #
edge $-1 $140 0 $141 3.1415926535897931 $123 $156 forward 7 unknown #
vertex $-1 $139 $157 #
vertex $-1 $139 $158 #
ellipse-curve $-1 6.9388939039072284e-018 0.29999999999999999 -1.3877787807814457e-017 2.7345394695200901e-016 -1 5.2181609367431786e-032 0.20300000000000001 5.5511151231257827e-017 3.8737296790408715e-017 1 I I #
face $-1 $159 $160 $3 $-1 $161 forward single #
loop $-1 $-1 $162 $129 #
cone-surface $-1 0 0.65834999999999999 0 0 -1 0 -0.18300000000000002 0 0 1 I I 0 1 0.18300000000000002 forward I I I I #
coedge $-1 $163 $163 $164 $165 forward $132 $-1 #
coedge $-1 $151 $149 $133 $148 reversed $130 $-1 #
edge $-1 $153 -1.2246063538223775e-016 $154 3.1415926535897931 $133 $166 forward 7 unknown #
coedge $-1 $147 $138 $134 $150 forward $130 $-1 #
edge $-1 $141 0 $154 0.099999999999999922 $134 $167 forward 7 unknown #
coedge $-1 $138 $147 $135 $152 reversed $130 $-1 #
edge $-1 $140 0 $153 0.099999999999999978 $135 $168 forward 7 unknown #
vertex $-1 $152 $169 #
vertex $-1 $150 $170 #
ellipse-curve $-1 6.9388939039072284e-018 0.39999999999999997 0 0 -1 0 0.20300000000000001 0 0 1 I I #
ellipse-curve $-1 -6.9388939039072284e-018 0.29999999999999999 1.3877787807814457e-017 -2.7345394695200901e-016 1 -1.4793078815615717e-032 0.20300000000000001 5.5511151231257827e-017 1.0981721174779805e-017 1 I I #
point $-1 0.20300000000000001 0.30000000000000004 2.4859508982594261e-017 #
point $-1 -0.20300000000000001 0.30000000000000004 -4.9719017965188523e-017 #
face $-1 $171 $172 $3 $-1 $173 forward single #
loop $-1 $174 $175 $143 #
plane-surface $-1 0 0.42599999999999999 0 0 -1 0 -1 0 0 forward_v I I I I #
coedge $-1 $176 $177 $178 $179 forward $144 $-1 #
coedge $-1 $146 $146 $180 $181 reversed $132 $-1 #
coedge $-1 $177 $176 $146 $165 reversed $144 $-1 #
edge $-1 $182 0 $183 3.1415926535897931 $146 $184 forward 7 unknown #
ellipse-curve $-1 6.9388939039072284e-018 0.39999999999999997 0 0 1 0 0.20300000000000001 0 0 1 I I #
straight-curve $-1 -0.20300000000000001 0.30000000000000004 -4.9719017965188523e-017 0 1 0 I I #
straight-curve $-1 0.20300000000000001 0.30000000000000004 2.4859508982594261e-017 0 1 0 I I #
point $-1 0.20300000000000001 0.40000000000000002 2.4859508982594261e-017 #
point $-1 -0.20300000000000001 0.39999999999999997 0 #
face $-1 $185 $186 $3 $-1 $187 forward single #
loop $-1 $-1 $180 $159 #
cone-surface $-1 0 0.65834999999999999 0 0 -1 0 -0.18300000000000002 0 0 1 I I 0 1 0.18300000000000002 forward I I I I #
loop $-1 $-1 $188 $143 #
coedge $-1 $178 $178 $189 $190 forward $160 $-1 #
coedge $-1 $164 $162 $191 $192 reversed $144 $-1 #
coedge $-1 $162 $164 $193 $194 forward $144 $-1 #
coedge $-1 $175 $175 $162 $179 reversed $160 $-1 #
edge $-1 $195 1.224606353822377e-016 $196 3.1415926535897931 $162 $197 forward 7 unknown #
coedge $-1 $191 $193 $163 $181 forward $172 $-1 #
edge $-1 $182 0 $183 3.1415926535897931 $163 $198 forward 7 unknown #
vertex $-1 $181 $199 #
vertex $-1 $181 $200 #
ellipse-curve $-1 0 0.39999999999999997 -6.9388939039072284e-018 3.0333962421452359e-016 -1 4.8649029070245831e-032 0.18300000000000002 5.5511151231257827e-017 2.9349190178856735e-017 1 I I #
face $-1 $201 $202 $3 $-1 $203 forward single #
loop $-1 $-1 $204 $171 #
cone-surface $-1 0 0.65834999999999999 0 0 -1 0 -0.20300000000000001 0 0 1 I I 0 1 0.20300000000000001 forward I I I I #
coedge $-1 $205 $205 $206 $207 forward $174 $-1 #
coedge $-1 $193 $191 $175 $190 reversed $172 $-1 #
edge $-1 $195 -1.224606353822377e-016 $196 3.1415926535897931 $175 $208 forward 7 unknown #
coedge $-1 $189 $180 $176 $192 forward $172 $-1 #
edge $-1 $183 0 $196 0.025999999999999968 $176 $209 forward 7 unknown #
coedge $-1 $180 $189 $177 $194 reversed $172 $-1 #
edge $-1 $182 0 $195 0.026000000000000023 $177 $210 forward 7 unknown #
vertex $-1 $194 $211 #
vertex $-1 $192 $212 #
ellipse-curve $-1 0 0.42599999999999999 0 0 -1 0 0.18300000000000002 0 0 1 I I #
ellipse-curve $-1 0 0.39999999999999997 0 -3.0333962421452359e-016 1 -3.7147163117919781e-032 0.18300000000000002 5.5511151231257827e-017 2.2410296274949506e-017 1 I I #
point $-1 0.18300000000000002 0.40000000000000002 2.2410296274949506e-017 #
point $-1 -0.18300000000000002 0.40000000000000002 -4.4820592549899013e-017 #
face $-1 $213 $214 $3 $-1 $215 forward single #
loop $-1 $-1 $216 $185 #
cone-surface $-1 0 -0.20999999999999952 0 0 1 0 -0.99999999999999734 0 0 1 I I -0.70710678118654657 0.70710678118654846 0.99999999999999734 forward I I I I #
coedge $-1 $217 $218 $219 $220 forward $186 $-1 #
coedge $-1 $188 $188 $221 $222 reversed $174 $-1 #
coedge $-1 $218 $217 $188 $207 reversed $186 $-1 #
edge $-1 $223 0 $224 3.1415926535897931 $188 $225 forward 7 unknown #
ellipse-curve $-1 0 0.42599999999999999 0 0 1 0 0.18300000000000002 0 0 1 I I #
straight-curve $-1 -0.18300000000000002 0.40000000000000002 -4.4820592549899013e-017 0 1 0 I I #
straight-curve $-1 0.18300000000000002 0.40000000000000002 2.2410296274949506e-017 0 1 0 I I #
point $-1 0.18300000000000002 0.42600000000000005 2.2410296274949506e-017 #
point $-1 -0.18300000000000002 0.42599999999999999 0 #
face $-1 $226 $227 $3 $-1 $228 forward single #
loop $-1 $-1 $229 $201 #
plane-surface $-1 0 0.59699999999999998 0 0 1 0 1 0 0 forward_v I I I I #
coedge $-1 $230 $231 $232 $233 forward $202 $-1 #
coedge $-1 $206 $204 $234 $235 reversed $186 $-1 #
coedge $-1 $204 $206 $236 $237 forward $186 $-1 #
coedge $-1 $238 $239 $204 $220 reversed $202 $-1 #
edge $-1 $240 -3.7388530551816064e-032 $241 3.1415926535897931 $204 $242 forward 7 unknown #
coedge $-1 $234 $236 $205 $222 forward $243 $-1 #
edge $-1 $223 0 $224 3.1415926535897931 $205 $244 forward 7 unknown #
vertex $-1 $222 $245 #
vertex $-1 $222 $246 #
ellipse-curve $-1 6.9388939039072284e-018 0.42599999999999999 -1.3877787807814457e-017 2.7345394695200901e-016 -1 5.2181609367431786e-032 0.20300000000000001 5.5511151231257827e-017 3.8737296790408715e-017 1 I I #
face $-1 $247 $248 $3 $-1 $249 reversed single #
loop $-1 $-1 $250 $213 #
cone-surface $-1 0 -0.20999999999999952 0 0 1 0 -0.99999999999999734 0 0 1 I I -0.70710678118654657 0.70710678118654846 0.99999999999999734 forward I I I I #
coedge $-1 $251 $252 $253 $254 reversed $214 $-1 #
coedge $-1 $255 $216 $256 $257 reversed $202 $-1 #
coedge $-1 $216 $258 $259 $260 forward $202 $-1 #
coedge $-1 $252 $251 $216 $233 reversed $214 $-1 #
edge $-1 $261 2.3285503986373398e-017 $262 0.25979736373764539 $216 $263 forward 7 unknown #
coedge $-1 $264 $221 $217 $235 forward $243 $-1 #
edge $-1 $224 0 $241 0.16099999999999981 $217 $265 forward 7 unknown #
coedge $-1 $221 $264 $218 $237 reversed $243 $-1 #
edge $-1 $223 0 $240 0.16099999999999992 $218 $266 forward 7 unknown #
coedge $-1 $258 $219 $267 $268 forward $202 $-1 #
coedge $-1 $219 $255 $269 $270 reversed $202 $-1 #
vertex $-1 $237 $271 #
vertex $-1 $235 $272 #
ellipse-curve $-1 1.3877787807814457e-017 0.58699999999999986 1.3877787807814457e-017 0 -1 0 0.20300000000000007 0 1.0981721174779814e-017 1 I I #
loop $-1 $-1 $221 $273 #
ellipse-curve $-1 -6.9388939039072284e-018 0.42599999999999999 1.3877787807814457e-017 -2.7345394695200901e-016 1 -1.4793078815615717e-032 0.20300000000000001 5.5511151231257827e-017 1.0981721174779805e-017 1 I I #
point $-1 0.20300000000000001 0.42600000000000005 2.4859508982594261e-017 #
point $-1 -0.20300000000000001 0.42600000000000005 -4.9719017965188523e-017 #
face $-1 $273 $274 $3 $-1 $275 reversed single #
loop $-1 $-1 $276 $226 #
plane-surface $-1 0 0.627 0 0 -1 0 -1 0 0 forward_v I I I I #
coedge $-1 $267 $277 $278 $279 reversed $227 $-1 #
coedge $-1 $232 $229 $280 $281 forward $214 $-1 #
coedge $-1 $229 $232 $282 $283 forward $214 $-1 #
coedge $-1 $277 $284 $229 $254 forward $227 $-1 #
edge $-1 $285 2.3285503986373506e-017 $286 0.25979736373764611 $253 $287 forward 7 unknown #
coedge $-1 $239 $230 $288 $289 forward $202 $-1 #
coedge $-1 $280 $290 $230 $257 forward $291 $-1 #
edge $-1 $292 0 $262 1 $230 $293 forward 7 unknown #
coedge $-1 $231 $238 $276 $294 forward $202 $-1 #
coedge $-1 $295 $282 $231 $260 reversed $274 $-1 #
edge $-1 $296 0 $261 1 $231 $297 forward 7 unknown #
vertex $-1 $260 $298 #
vertex $-1 $257 $299 #
ellipse-curve $-1 8.6736173798840355e-019 0.59699999999999998 2.1371793224034263e-015 0 -1 0 0.024999999999999998 0 0.19137397942248882 1 I I #
coedge $-1 $236 $234 $300 $301 reversed $243 $-1 #
straight-curve $-1 -0.20300000000000001 0.42600000000000005 -4.9719017965188523e-017 0 1 0 I I #
straight-curve $-1 0.20300000000000001 0.42600000000000005 2.4859508982594261e-017 0 1 0 I I #
coedge $-1 $300 $250 $238 $268 reversed $227 $-1 #
edge $-1 $240 1.1775693440128319e-016 $302 0.056568542494923775 $238 $303 forward 7 unknown #
coedge $-1 $304 $300 $239 $270 forward $227 $-1 #
edge $-1 $241 0 $305 0.056568542494923775 $239 $306 forward 7 unknown #
point $-1 0.20300000000000001 0.58699999999999997 2.4859508982594261e-017 #
point $-1 -0.20300000000000007 0.58699999999999986 -4.9719017965188541e-017 #
face $-1 $307 $243 $3 $-1 $308 forward single #
loop $-1 $-1 $295 $247 #
plane-surface $-1 0.024999999999999998 0.65700000000000003 0.2030000000000001 1 0 0 0 0 -1 forward_v I I I I #
coedge $-1 $278 $309 $258 $294 reversed $248 $-1 #
coedge $-1 $250 $253 $310 $311 forward $227 $-1 #
coedge $-1 $309 $276 $250 $279 forward $248 $-1 #
edge $-1 $302 -1.2246063538223819e-016 $312 1.416814317286198 $278 $313 forward 7 unknown #
coedge $-1 $314 $256 $251 $281 reversed $291 $-1 #
edge $-1 $285 -5.5511151231257827e-017 $262 0.38274795884498192 $251 $315 forward 7 unknown #
coedge $-1 $259 $310 $252 $283 reversed $274 $-1 #
edge $-1 $261 -2.7755575615628914e-017 $286 0.38274795884498181 $252 $316 forward 7 unknown #
coedge $-1 $253 $304 $314 $317 forward $227 $-1 #
vertex $-1 $254 $318 #
vertex $-1 $311 $319 #
ellipse-curve $-1 0 0.59699999999999998 -2.6229018956769323e-015 0 -1 0 -0.024999999999999998 0 -0.19137397942248835 1 I I #
coedge $-1 $320 $321 $255 $289 reversed $322 $-1 #
edge $-1 $292 0 $305 1.4168143172861982 $255 $323 forward 7 unknown #
coedge $-1 $256 $314 $320 $324 reversed $291 $-1 #
loop $-1 $-1 $280 $325 #
vertex $-1 $289 $326 #
intcurve-curve $-1 forward { surfintcur full nurbs 3 open 4 
	0 3 0.33139113349687366 1 0.66472626491864073 1 1 3 
	-0.024999999999999998 0.627 0.16107141273360712 1 
	-0.025000000000000001 0.62377638730325458 0.16433345285699211 0.99999999999999978 
	-0.024999999999999994 0.61725019459525887 0.17093338867460831 1.0000000000000002 
	-0.024999999999999998 0.60724857205600291 0.1810350887647319 0.99999999999999978 
	-0.024999999999999994 0.60044291446146092 0.18790194601953047 1 
	-0.024999999999999998 0.59699999999999998 0.19137397942249099 1 
	0.001 
	cone 0 -0.20999999999999952 0 0 1 0 -0.99999999999999734 0 0 1 I I -0.70710678118654657 0.70710678118654846 0.99999999999999734 forward I I I I 
	plane -0.024999999999999998 0.65700000000000003 -0.2030000000000001 -1 0 0 0 0 1 forward_v I I I I 
	nullbs 
	nullbs 
	I I 
	0 
	0 
	0 
	} I I #
edge $-1 $302 1.2246063538223721e-016 $296 1.4168143172861978 $258 $327 forward 7 unknown #
coedge $-1 $310 $259 $309 $328 forward $274 $-1 #
vertex $-1 $260 $329 #
intcurve-curve $-1 forward { surfintcur full nurbs 3 open 4 
	0 3 0.33132131602832127 1 0.66465591685094472 1 1 3 
	0.024999999999999998 0.627 0.16107141273360709 1 
	0.025000000000000001 0.62378021108519299 0.16432958637841913 1 
	0.024999999999999991 0.61725893933758325 0.1709245478720865 1 
	0.025000000000000001 0.60725734829892908 0.18102623231733042 1 
	0.025000000000000001 0.6004468000364831 0.18789802557868174 0.99999999999999989 
	0.024999999999999998 0.59699999999999998 0.19137397942249099 1 
	0.001 
	plane 0.024999999999999998 0.65700000000000003 0.2030000000000001 1 0 0 0 0 -1 forward_v I I I I 
	cone 0 -0.20999999999999952 0 0 1 0 -0.99999999999999734 0 0 1 I I -0.70710678118654657 0.70710678118654846 0.99999999999999734 forward I I I I 
	nullbs 
	nullbs 
	I I 
	0 
	0 
	0 
	} I I #
point $-1 0.024999999999999998 0.59699999999999998 0.19137397942249099 #
point $-1 -0.024999999999999998 0.59699999999999998 0.19137397942249099 #
coedge $-1 $269 $267 $264 $301 forward $227 $-1 #
edge $-1 $240 1.8694265275908032e-032 $241 3.1415926535897931 $264 $330 forward 7 unknown #
vertex $-1 $294 $331 #
straight-curve $-1 0.20300000000000007 0.58699999999999986 2.4859508982594271e-017 -0.70710678118654657 0.70710678118654846 -8.6592745707193493e-017 I I #
coedge $-1 $284 $269 $321 $332 reversed $227 $-1 #
vertex $-1 $270 $333 #
straight-curve $-1 -0.20300000000000007 0.58699999999999986 -4.9719017965188541e-017 0.70710678118654657 0.70710678118654846 1.7318549141438699e-016 I I #
face $-1 $325 $322 $3 $-1 $334 reversed single #
cone-surface $-1 0 0.65834999999999999 0 0 -1 0 -0.20300000000000001 0 0 1 I I 0 1 0.20300000000000001 forward I I I I #
coedge $-1 $276 $278 $295 $328 reversed $248 $-1 #
coedge $-1 $282 $295 $277 $311 reversed $274 $-1 #
edge $-1 $286 0 $312 1 $277 $335 forward 7 unknown #
vertex $-1 $328 $336 #
ellipse-curve $-1 -1.7347234759768071e-016 0.627 1.8388068845354155e-016 0 1 0 0.16300000000000026 0 -1.8388068845354155e-016 1 I I #
coedge $-1 $290 $280 $284 $317 reversed $291 $-1 #
straight-curve $-1 -0.024999999999999998 0.59699999999999998 -0.19137397942249096 0 0 1 I I #
straight-curve $-1 0.024999999999999998 0.59699999999999998 0.19137397942249096 0 0 -1 I I #
edge $-1 $337 0 $285 1 $284 $338 forward 7 unknown #
point $-1 -0.024999999999999998 0.59699999999999998 -0.19137397942249101 #
point $-1 0.024999999999999998 0.59699999999999998 -0.19137397942249088 #
coedge $-1 $321 $288 $290 $324 forward $322 $-1 #
coedge $-1 $288 $320 $304 $332 forward $322 $-1 #
loop $-1 $-1 $321 $307 #
ellipse-curve $-1 1.7347234759768071e-016 0.627 -1.8388068845354155e-016 0 -1 0 -0.025000000000000171 0 0.16107141273360734 1 I I #
edge $-1 $292 -2.7755575615628914e-017 $337 0.32214282546721429 $320 $339 forward 7 unknown #
face $-1 $-1 $291 $3 $-1 $340 reversed single #
point $-1 -0.024999999999999998 0.627 0.16107141273360714 #
ellipse-curve $-1 -1.8735013540549517e-016 0.627 -1.8735013540549517e-016 0 -1 0 0.16300000000000028 0 1.8735013540549517e-016 1 I I #
edge $-1 $296 5.5511151231257827e-017 $312 0.32214282546721429 $309 $341 forward 7 unknown #
point $-1 0.024999999999999998 0.627 0.16107141273360709 #
ellipse-curve $-1 1.3877787807814457e-017 0.58699999999999986 6.9388939039072284e-018 0 1 0 0.20300000000000007 0 1.7920615078687042e-017 1 I I #
point $-1 0.16300000000000014 0.62699999999999989 1.9961083567304767e-017 #
edge $-1 $337 0 $305 1.4168143172861984 $321 $342 forward 7 unknown #
point $-1 -0.16300000000000014 0.62699999999999989 -3.9922167134609534e-017 #
plane-surface $-1 0 0.627 0 0 -1 0 -1 0 0 forward_v I I I I #
intcurve-curve $-1 forward { surfintcur full nurbs 3 open 4 
	0 3 0.33527373508135894 1 0.66860886650312579 1 1 3 
	0.024999999999999998 0.59699999999999998 -0.19137397942249088 1 
	0.025000000000000001 0.60044291446146103 -0.18790194601953045 0.99999999999999989 
	0.024999999999999998 0.60724857205600302 -0.1810350887647319 1 
	0.024999999999999998 0.61725019459525898 -0.17093338867460839 1 
	0.024999999999999994 0.62377638730325424 -0.16433345285699208 1.0000000000000002 
	0.024999999999999998 0.627 -0.16107141273360706 1 
	0.001 
	plane 0.024999999999999998 0.65700000000000003 0.2030000000000001 1 0 0 0 0 -1 forward_v I I I I 
	cone 0 -0.20999999999999952 0 0 1 0 -0.99999999999999734 0 0 1 I I -0.70710678118654657 0.70710678118654846 0.99999999999999734 forward I I I I 
	nullbs 
	nullbs 
	I I 
	0 
	0 
	0 
	} I I #
point $-1 0.024999999999999998 0.627 -0.16107141273360714 #
vertex $-1 $324 $343 #
intcurve-curve $-1 forward { surfintcur full nurbs 3 open 4 
	0 3 0.33132131602832104 1 0.66465591685094461 1 1 3 
	-0.024999999999999998 0.627 -0.16107141273360709 1 
	-0.025000000000000001 0.62378021108519299 -0.1643295863784191 0.99999999999999989 
	-0.024999999999999998 0.61725893933758336 -0.17092454787208644 0.99999999999999978 
	-0.025000000000000005 0.60725734829892908 -0.18102623231733048 1 
	-0.025000000000000001 0.6004468000364831 -0.18789802557868177 0.99999999999999989 
	-0.024999999999999998 0.59699999999999998 -0.19137397942249101 1 
	0.001 
	plane -0.024999999999999998 0.65700000000000003 -0.2030000000000001 -1 0 0 0 0 1 forward_v I I I I 
	cone 0 -0.20999999999999952 0 0 1 0 -0.99999999999999734 0 0 1 I I -0.70710678118654657 0.70710678118654846 0.99999999999999734 forward I I I I 
	nullbs 
	nullbs 
	I I 
	0 
	0 
	0 
	} I I #
straight-curve $-1 -0.024999999999999998 0.627 0.16107141273360712 0 0 -1 I I #
plane-surface $-1 -0.024999999999999998 0.65700000000000003 -0.2030000000000001 -1 0 0 0 0 1 forward_v I I I I #
straight-curve $-1 0.024999999999999998 0.627 0.16107141273360714 0 0 -1 I I #
ellipse-curve $-1 9.7144514654701197e-017 0.627 1.1449174941446927e-016 0 1 0 -0.025000000000000095 0 -0.16107141273360726 1 I I #
point $-1 -0.024999999999999998 0.627 -0.16107141273360714 #
End-of-ACIS-data 