600 0 1 0           
123 GICL Pro/E ACIS Translator - Source: f:/data5/repository/PTC/V20/web_demos/models/shtmtl_manual/part/pem_f-m4-1.prt.1 - 6 0 13 ACIS 6.0.3 NT 24 Thu Apr 04 13:10:11 2002 
1 9.9999999999999995e-007 1e-010 
body $-1 $1 $-1 $2 #
lump $-1 $-1 $3 $0 #
transform $-1 1 0 0 0 1 0 0 0 1 0 0 0 25.399999999999999 no_rotate no_reflect no_shear #
shell $-1 $-1 $-1 $4 $-1 $1 #
face $-1 $5 $6 $3 $-1 $7 reversed single #
face $-1 $8 $9 $3 $-1 $10 forward single #
loop $-1 $11 $12 $4 #
plane-surface $-1 0 0 0 0 1 0 1 0 0 forward_v I I I I #
face $-1 $13 $14 $3 $-1 $15 forward single #
loop $-1 $-1 $16 $5 #
plane-surface $-1 0.15501854727741413 0 -0.089489291724392003 0.50000000000000011 0 -0.8660254037844386 -0.86602540378443837 0 -0.5 forward_v I I I I #
loop $-1 $-1 $17 $4 #
coedge $-1 $18 $19 $20 $21 reversed $6 $-1 #
face $-1 $22 $23 $3 $-1 $24 forward single #
loop $-1 $-1 $25 $8 #
plane-surface $-1 0 0 -0.17898929172439187 -0.5 0 -0.86602540378443871 -0.86602540378443871 0 0.5 forward_v I I I I #
coedge $-1 $26 $20 $27 $28 forward $9 $-1 #
coedge $-1 $29 $29 $30 $31 reversed $11 $-1 #
coedge $-1 $32 $12 $33 $34 reversed $6 $-1 #
coedge $-1 $12 $35 $36 $37 reversed $6 $-1 #
coedge $-1 $16 $38 $12 $21 forward $9 $-1 #
edge $-1 $39 0 $40 0.17899999999999963 $12 $41 forward 7 unknown #
face $-1 $42 $43 $3 $-1 $44 forward single #
loop $-1 $-1 $45 $13 #
plane-surface $-1 -0.15498145272258587 0 -0.089510708275607712 -1 0 0 0 0 1 forward_v I I I I #
coedge $-1 $46 $36 $47 $48 forward $14 $-1 #
coedge $-1 $38 $16 $49 $50 reversed $9 $-1 #
coedge $-1 $36 $46 $16 $28 reversed $14 $-1 #
edge $-1 $40 0 $51 0.023 $27 $52 forward 7 unknown #
coedge $-1 $17 $17 $53 $54 reversed $11 $-1 #
coedge $-1 $55 $56 $17 $31 forward $57 $-1 #
edge $-1 $58 0 $59 3.1415926535897931 $17 $60 forward 7 unknown #
coedge $-1 $61 $18 $62 $63 reversed $6 $-1 #
coedge $-1 $64 $65 $18 $34 forward $66 $-1 #
edge $-1 $67 0 $39 0.17893575034635245 $18 $68 forward 7 unknown #
coedge $-1 $19 $61 $69 $70 reversed $6 $-1 #
coedge $-1 $25 $27 $19 $37 forward $14 $-1 #
edge $-1 $40 0 $71 0.17895716689756841 $19 $72 forward 7 unknown #
coedge $-1 $20 $26 $64 $73 reversed $9 $-1 #
vertex $-1 $34 $74 #
vertex $-1 $37 $75 #
straight-curve $-1 0.15501854727741413 0 -0.089489291724392003 -0.86602540378443849 0 -0.50000000000000011 I I #
face $-1 $76 $77 $3 $-1 $78 forward single #
loop $-1 $-1 $79 $22 #
plane-surface $-1 -0.15498145272258587 0 0.089467875173176309 -0.49999999999999994 0 0.86602540378443871 0.86602540378443882 0 0.5 forward_v I I I I #
coedge $-1 $80 $69 $81 $82 forward $23 $-1 #
coedge $-1 $27 $25 $83 $84 reversed $14 $-1 #
coedge $-1 $69 $80 $25 $48 reversed $23 $-1 #
edge $-1 $71 0 $85 0.023 $25 $86 forward 7 unknown #
coedge $-1 $83 $87 $26 $50 forward $88 $-1 #
edge $-1 $89 0 $51 0.17899999999999963 $49 $90 forward 7 unknown #
vertex $-1 $84 $91 #
straight-curve $-1 -2.7755575615628914e-017 0 -0.17898929172439182 0 1 0 I I #
coedge $-1 $92 $93 $29 $54 forward $94 $-1 #
edge $-1 $59 0 $58 3.1415926535897931 $29 $95 forward 7 unknown #
coedge $-1 $96 $30 $93 $97 reversed $57 $-1 #
coedge $-1 $30 $96 $92 $98 forward $57 $-1 #
loop $-1 $-1 $55 $99 #
vertex $-1 $54 $100 #
vertex $-1 $54 $101 #
ellipse-curve $-1 0 0 0 0 -1 0 -0.064000000000000001 0 0 1 I I #
coedge $-1 $35 $32 $102 $103 reversed $6 $-1 #
coedge $-1 $104 $105 $32 $63 forward $77 $-1 #
edge $-1 $106 0 $67 0.17899999999999966 $32 $107 forward 7 unknown #
coedge $-1 $108 $33 $38 $73 forward $66 $-1 #
coedge $-1 $33 $108 $104 $109 reversed $66 $-1 #
loop $-1 $-1 $64 $76 #
vertex $-1 $63 $110 #
straight-curve $-1 0.15501854727741413 0 0.089446458621960462 0 0 -1 I I #
coedge $-1 $45 $47 $35 $70 forward $23 $-1 #
edge $-1 $71 0 $111 0.17897858344878403 $35 $112 forward 7 unknown #
vertex $-1 $37 $113 #
straight-curve $-1 0 0 -0.17898929172439187 -0.86602540378443871 0 0.5 I I #
edge $-1 $39 0 $89 0.023 $64 $114 forward 7 unknown #
point $-1 0.15501854727741413 0 -0.089489291724392003 #
point $-1 0 0 -0.17898929172439187 #
face $-1 $115 $66 $3 $-1 $116 forward single #
loop $-1 $-1 $104 $42 #
plane-surface $-1 0 0 0.17894645862196046 0.50000000000000033 0 0.8660254037844386 0.86602540378443815 0 -0.5 forward_v I I I I #
coedge $-1 $117 $102 $105 $118 forward $43 $-1 #
coedge $-1 $47 $45 $119 $120 reversed $23 $-1 #
coedge $-1 $102 $117 $45 $82 reversed $43 $-1 #
edge $-1 $111 0 $121 0.023 $45 $122 forward 7 unknown #
coedge $-1 $119 $49 $46 $84 forward $88 $-1 #
edge $-1 $51 0 $85 0.17895716689756841 $83 $123 forward 7 unknown #
vertex $-1 $84 $124 #
straight-curve $-1 -0.15498145272258587 0 -0.08951070827560767 0 1 0 I I #
coedge $-1 $49 $125 $108 $126 forward $88 $-1 #
loop $-1 $127 $119 $115 #
vertex $-1 $50 $128 #
straight-curve $-1 0.15501854727741413 0.023 -0.089489291724392003 -0.86602540378443849 0 -0.50000000000000011 I I #
point $-1 0 0.023 -0.17898929172439187 #
coedge $-1 $129 $53 $56 $98 reversed $94 $-1 #
coedge $-1 $53 $129 $55 $97 forward $94 $-1 #
loop $-1 $-1 $92 $130 #
ellipse-curve $-1 0 0 0 0 -1 0 0.064000000000000001 0 0 1 I I #
coedge $-1 $56 $55 $131 $132 reversed $57 $-1 #
edge $-1 $133 0 $59 0.055677165354330711 $93 $134 forward 7 unknown #
edge $-1 $135 0 $58 0.055677165354330711 $92 $136 forward 7 unknown #
face $-1 $130 $57 $3 $-1 $137 reversed single #
point $-1 -0.064000000000000001 0 0 #
point $-1 0.064000000000000001 0 0 #
coedge $-1 $79 $81 $61 $103 forward $43 $-1 #
edge $-1 $111 0 $106 0.17895716689756838 $61 $138 forward 7 unknown #
coedge $-1 $139 $62 $65 $109 forward $77 $-1 #
coedge $-1 $62 $139 $79 $118 reversed $77 $-1 #
vertex $-1 $103 $140 #
straight-curve $-1 0 0 0.17894645862196046 0.8660254037844386 0 -0.50000000000000022 I I #
coedge $-1 $65 $64 $87 $126 reversed $66 $-1 #
edge $-1 $67 0 $141 0.023 $104 $142 forward 7 unknown #
point $-1 0.15501854727741413 0 0.089446458621960462 #
vertex $-1 $70 $143 #
straight-curve $-1 -0.15498145272258587 0 -0.089510708275607712 0 0 1 I I #
point $-1 -0.15498145272258587 0 -0.089510708275607712 #
straight-curve $-1 0.15501854727741413 0 -0.089489291724391989 0 1 0 I I #
face $-1 $144 $88 $3 $-1 $145 forward single #
plane-surface $-1 0.15501854727741413 0 0.089446458621960462 1 0 0 0 0 -1 forward_v I I I I #
coedge $-1 $81 $79 $146 $147 reversed $43 $-1 #
edge $-1 $106 0 $148 0.023 $79 $149 forward 7 unknown #
coedge $-1 $146 $83 $80 $120 forward $88 $-1 #
edge $-1 $85 0 $121 0.17897858344878403 $119 $150 forward 7 unknown #
vertex $-1 $147 $151 #
straight-curve $-1 -0.15498145272258587 0 0.089467875173176323 0 1 0 I I #
straight-curve $-1 0 0.023 -0.17898929172439187 -0.86602540378443871 0 0.5 I I #
point $-1 -0.15498145272258587 0.023 -0.089510708275607712 #
coedge $-1 $87 $146 $139 $152 forward $88 $-1 #
edge $-1 $141 0 $89 0.17893575034635245 $87 $153 forward 7 unknown #
loop $-1 $-1 $154 $115 #
point $-1 0.15501854727741413 0.023 -0.089489291724392003 #
coedge $-1 $93 $92 $155 $156 reversed $94 $-1 #
face $-1 $-1 $94 $3 $-1 $157 reversed single #
coedge $-1 $155 $155 $96 $132 forward $158 $-1 #
edge $-1 $135 0 $133 3.1415926535897931 $131 $159 forward 7 unknown #
vertex $-1 $156 $160 #
straight-curve $-1 0.064000000000000001 0.055677165354330711 0 0 -1 0 I I #
vertex $-1 $156 $161 #
straight-curve $-1 -0.064000000000000001 0.055677165354330711 7.8374806644632141e-018 0 -1 0 I I #
cone-surface $-1 0 0.055677165354330711 0 0 -1 0 0.064000000000000001 0 0 1 I I 0 1 0.064000000000000001 forward I I I I #
straight-curve $-1 -0.15498145272258587 0 0.089467875173176309 0.86602540378443871 0 0.49999999999999983 I I #
coedge $-1 $105 $104 $125 $152 reversed $77 $-1 #
point $-1 0 0 0.17894645862196046 #
vertex $-1 $126 $162 #
straight-curve $-1 0.15501854727741424 0 0.089446458621960573 0 1 0 I I #
point $-1 -0.15498145272258587 0 0.089467875173176309 #
face $-1 $163 $164 $3 $-1 $165 forward single #
plane-surface $-1 0 0.023 0 0 1 0 1 0 0 forward_v I I I I #
coedge $-1 $125 $119 $117 $147 forward $88 $-1 #
edge $-1 $121 0 $148 0.17895716689756838 $146 $166 forward 7 unknown #
vertex $-1 $152 $167 #
straight-curve $-1 -5.5511151231257827e-017 0 0.17894645862196046 0 1 0 I I #
straight-curve $-1 -0.15498145272258587 0.023 -0.089510708275607712 0 0 1 I I #
point $-1 -0.15498145272258587 0.023 0.089467875173176309 #
edge $-1 $148 0 $141 0.17899999999999966 $125 $168 forward 7 unknown #
straight-curve $-1 0.15501854727741413 0.023 0.089446458621960462 0 0 -1 I I #
coedge $-1 $169 $169 $170 $171 reversed $127 $-1 #
coedge $-1 $131 $131 $129 $156 forward $158 $-1 #
edge $-1 $133 0 $135 3.1415926535897931 $155 $172 forward 7 unknown #
cone-surface $-1 0 0.055677165354330711 0 0 -1 0 0.064000000000000001 0 0 1 I I 0 1 0.064000000000000001 forward I I I I #
loop $-1 $-1 $131 $173 #
ellipse-curve $-1 0 0.055677165354330711 0 0 -1 0 -0.064000000000000001 0 0 1 I I #
point $-1 0.064000000000000001 0.055677165354330711 0 #
point $-1 -0.064000000000000001 0.055677165354330711 0 #
point $-1 0.15501854727741413 0.023 0.089446458621960462 #
face $-1 $174 $175 $3 $-1 $176 forward single #
loop $-1 $-1 $177 $144 #
cone-surface $-1 0 0.021366141732283461 0 0 1 0 0 0 -0.11173228346456694 1 I I 0 1 0.11173228346456694 forward I I I I #
straight-curve $-1 -0.15498145272258587 0.023 0.089467875173176309 0.86602540378443871 0 0.49999999999999983 I I #
point $-1 0 0.023 0.17894645862196046 #
straight-curve $-1 0 0.023 0.17894645862196046 0.8660254037844386 0 -0.50000000000000022 I I #
coedge $-1 $154 $154 $178 $179 reversed $127 $-1 #
coedge $-1 $177 $180 $154 $171 forward $164 $-1 #
edge $-1 $181 0 $182 3.1415926535897931 $154 $183 forward 7 unknown #
ellipse-curve $-1 0 0.055677165354330711 0 0 -1 0 0.064000000000000001 0 0 1 I I #
face $-1 $99 $184 $3 $-1 $185 forward single #
face $-1 $186 $187 $3 $-1 $188 forward single #
loop $-1 $-1 $189 $163 #
cone-surface $-1 0 0.021366141732283461 0 0 1 0 0 0 -0.11173228346456694 1 I I 0 1 0.11173228346456694 forward I I I I #
coedge $-1 $190 $170 $191 $192 reversed $164 $-1 #
coedge $-1 $189 $191 $169 $179 forward $175 $-1 #
edge $-1 $182 0 $181 3.1415926535897931 $169 $193 forward 7 unknown #
coedge $-1 $170 $190 $189 $194 forward $164 $-1 #
vertex $-1 $179 $195 #
vertex $-1 $179 $196 #
ellipse-curve $-1 -6.9388939039072284e-018 0.023 0 0 1 0 6.9388939039072284e-018 0 -0.11173228346456694 1 I I #
loop $-1 $158 $197 $173 #
plane-surface $-1 0 0.055677165354330711 0 0 1 0 0 0 -1 forward_v I I I I #
face $-1 $173 $198 $3 $-1 $199 forward single #
loop $-1 $-1 $200 $174 #
cone-surface $-1 0 0.9551779887189582 0 0 -1 0 0 0 -1.4377052013132885 1 I I -0.82094341142453175 0.57100955792232755 1.4377052013132885 forward I I I I #
coedge $-1 $201 $178 $180 $194 reversed $175 $-1 #
coedge $-1 $180 $177 $202 $203 forward $164 $-1 #
coedge $-1 $178 $201 $177 $192 forward $175 $-1 #
edge $-1 $204 -4.163336342344337e-017 $182 0.0098937007874015728 $191 $205 forward 7 unknown #
ellipse-curve $-1 6.9388939039072284e-018 0.023 0 0 1 0 -6.9388939039072284e-018 0 0.11173228346456694 1 I I #
edge $-1 $206 0 $181 0.0098937007874015728 $189 $207 forward 7 unknown #
point $-1 0 0.023 -0.11173228346456694 #
point $-1 0 0.023 0.11173228346456694 #
coedge $-1 $208 $208 $209 $210 reversed $184 $-1 #
loop $-1 $-1 $209 $186 #
cone-surface $-1 0 0.9551779887189582 0 0 -1 0 0 0 -1.4377052013132885 1 I I -0.82094341142453175 0.57100955792232755 1.4377052013132885 forward I I I I #
coedge $-1 $211 $212 $201 $213 forward $187 $-1 #
coedge $-1 $191 $189 $200 $213 reversed $175 $-1 #
coedge $-1 $214 $215 $190 $203 reversed $198 $-1 #
edge $-1 $204 2.1597882409437979e-031 $206 3.1415926535897931 $202 $216 forward 7 unknown #
vertex $-1 $217 $218 #
straight-curve $-1 1.3682806425779162e-017 0.032893700787401572 0.11173228346456694 0 -1 0 I I #
vertex $-1 $219 $220 #
straight-curve $-1 -2.7365612851558324e-017 0.032893700787401572 -0.11173228346456694 0 -1 0 I I #
coedge $-1 $197 $197 $221 $222 forward $184 $-1 #
coedge $-1 $215 $214 $197 $210 forward $198 $-1 #
edge $-1 $223 0 $224 3.141592653589794 $197 $225 forward 7 unknown #
coedge $-1 $221 $200 $215 $219 reversed $187 $-1 #
coedge $-1 $200 $221 $214 $217 forward $187 $-1 #
edge $-1 $204 -3.0854117727768543e-031 $206 3.1415926535897931 $200 $226 forward 7 unknown #
coedge $-1 $209 $202 $212 $217 reversed $198 $-1 #
coedge $-1 $202 $209 $211 $219 forward $198 $-1 #
ellipse-curve $-1 -3.4694469519536142e-018 0.032893700787401572 0 0 -1 0 1.7152253377732776e-017 0 0.11173228346456694 1 I I #
edge $-1 $223 0 $204 0.039900320845466873 $212 $227 forward 7 unknown #
point $-1 1.3682806425779159e-017 0.032893700787401614 0.11173228346456709 #
edge $-1 $224 7.1153878448094502e-033 $206 0.039900320845467019 $211 $228 forward 7 unknown #
point $-1 -2.7365612851558324e-017 0.032893700787401572 -0.11173228346456694 #
coedge $-1 $212 $211 $208 $222 reversed $187 $-1 #
edge $-1 $223 0 $224 3.1415926535897936 $208 $229 forward 7 unknown #
vertex $-1 $222 $230 #
vertex $-1 $222 $231 #
ellipse-curve $-1 -4.8572257327350599e-017 0.055677165354330711 1.3877787807814457e-017 -1.9822629348969338e-031 -1 -4.3221557123520201e-016 6.6266372754626676e-017 -6.2450045135165055e-017 0.14448818897637805 1 I I #
ellipse-curve $-1 -1.0408340855860843e-017 0.032893700787401572 0 0 1 0 2.4091147281640005e-017 0 0.11173228346456694 1 I I #
straight-curve $-1 1.7694115427276078e-017 0.055677165354330649 0.14448818897637805 -1.0053325177591019e-016 -0.57100955792232666 -0.82094341142453242 I I #
straight-curve $-1 -3.5388230854552156e-017 0.055677165354330649 -0.14448818897637805 2.0106650355182039e-016 -0.57100955792232666 0.82094341142453242 I I #
ellipse-curve $-1 4.8572257327350599e-017 0.055677165354330711 1.3877787807814457e-017 -9.2367506538574122e-032 1 4.3221557123520201e-016 -3.0878141900074521e-017 -6.2450045135165055e-017 0.14448818897637805 1 I I #
point $-1 1.7694115427276078e-017 0.055677165354330649 0.14448818897637805 #
point $-1 0 0.055677165354330649 -0.14448818897637805 #
End-of-ACIS-data 