500 0 9 0           
7 Unknown 11 ACIS 5.0 NT 24 Fri Mar 26 01:47:43 1999 
-1 9.9999999999999995e-007 1e-010 
body $-1 $9 $-1 $10 #
body $-1 $11 $-1 $12 #
body $-1 $13 $-1 $14 #
body $-1 $15 $-1 $16 #
body $-1 $17 $-1 $18 #
body $-1 $19 $-1 $20 #
body $-1 $21 $-1 $22 #
body $-1 $23 $-1 $24 #
body $-1 $25 $-1 $26 #
lump $-1 $-1 $27 $0 #
transform $-1 1 0 0 0 1 0 0 0 1 62.692342905972467 36.898692231434751 10.56275317028895 1 rotate no_reflect no_shear #
lump $-1 $-1 $28 $1 #
transform $-1 1 0 0 0 1 0 0 0 1 62.692342905972467 36.898692231434751 10.56275317028895 1 rotate no_reflect no_shear #
lump $-1 $-1 $29 $2 #
transform $-1 1 0 0 0 1 0 0 0 1 62.692342905972467 36.898692231434751 10.56275317028895 1 rotate no_reflect no_shear #
lump $-1 $-1 $30 $3 #
transform $-1 1 0 0 0 1 0 0 0 1 62.692342905972467 36.898692231434751 10.56275317028895 1 rotate no_reflect no_shear #
lump $-1 $-1 $31 $4 #
transform $-1 1 0 0 0 1 0 0 0 1 62.692342905972467 36.898692231434751 10.56275317028895 1 rotate no_reflect no_shear #
lump $-1 $-1 $32 $5 #
transform $-1 1 0 0 0 1 0 0 0 1 62.692342905972467 36.898692231434751 10.56275317028895 1 rotate no_reflect no_shear #
lump $-1 $-1 $33 $6 #
transform $-1 1 0 0 0 1 0 0 0 1 62.692342905972467 36.898692231434751 10.56275317028895 1 rotate no_reflect no_shear #
lump $-1 $-1 $34 $7 #
transform $-1 1 0 0 0 1 0 0 0 1 62.692342905972467 36.898692231434751 10.56275317028895 1 rotate no_reflect no_shear #
lump $-1 $-1 $35 $8 #
transform $-1 1 0 0 0 1 0 0 0 1 62.692342905972467 36.898692231434751 10.56275317028895 1 rotate no_reflect no_shear #
shell $-1 $-1 $-1 $36 $-1 $9 #
shell $-1 $-1 $-1 $37 $-1 $11 #
shell $-1 $-1 $-1 $38 $-1 $13 #
shell $-1 $-1 $-1 $39 $-1 $15 #
shell $-1 $-1 $-1 $40 $-1 $17 #
shell $-1 $-1 $-1 $41 $-1 $19 #
shell $-1 $-1 $-1 $42 $-1 $21 #
shell $-1 $-1 $-1 $43 $-1 $23 #
shell $-1 $-1 $-1 $44 $-1 $25 #
face $-1 $45 $46 $27 $-1 $47 forward single #
face $-1 $48 $49 $28 $-1 $50 reversed single #
face $-1 $51 $52 $29 $-1 $53 forward single #
face $-1 $54 $55 $30 $-1 $56 reversed single #
face $-1 $57 $58 $31 $-1 $59 forward single #
face $-1 $60 $61 $32 $-1 $62 reversed single #
face $-1 $63 $64 $33 $-1 $65 forward single #
face $-1 $66 $67 $34 $-1 $68 reversed single #
face $-1 $69 $70 $35 $-1 $71 forward single #
face $-1 $72 $73 $27 $-1 $74 reversed single #
loop $-1 $-1 $75 $36 #
plane-surface $-1 0 0 10.56275317028895 0 0 1 1 0 0 forward_v I I I I #
face $-1 $76 $77 $28 $-1 $78 reversed single #
loop $-1 $-1 $79 $37 #
plane-surface $-1 -149.79186545583912 -25.58359626870763 96.887046935931579 0 -1 0 0.69465837861970381 0 -0.71933979245794832 forward_v I I I I #
face $-1 $80 $81 $29 $-1 $82 forward single #
loop $-1 $83 $84 $38 #
cone-surface $-1 -60.161491151043776 -31.241144250071191 8.0819208757938554 0.69465837861970381 0 -0.71933979245794832 0.35966989622897416 0 0.3473291893098519 1 I I 0 1 0.5 forward I I I I #
face $-1 $85 $86 $30 $-1 $87 reversed single #
loop $-1 $-1 $88 $39 #
plane-surface $-1 -62.692342905972467 31.241144250071187 6.6928530665620514 -0.69465837861970381 0 0.71933979245794832 0.71933979245794832 0 0.69465837861970381 forward_v I I I I #
face $-1 $89 $90 $31 $-1 $91 forward single #
loop $-1 $92 $93 $40 #
cone-surface $-1 -60.161491151043776 31.241144250071187 8.0819208757938554 0.69465837861970381 0 -0.71933979245794832 0.35966989622897416 0 0.3473291893098519 1 I I 0 1 0.5 forward I I I I #
face $-1 $94 $95 $32 $-1 $96 reversed single #
loop $-1 $-1 $97 $41 #
plane-surface $-1 -27.501850963397061 -31.241144250071191 93.792375616428714 0.69465837861970381 0 0.71933979245794832 0.71933979245794832 0 -0.69465837861970381 forward_v I I I I #
face $-1 $98 $99 $33 $-1 $100 forward single #
loop $-1 $101 $102 $42 #
cone-surface $-1 60.161491151043776 -31.241144250071191 8.0819208757938732 -0.69465837861970381 0 -0.71933979245794832 0.35966989622897416 0 -0.3473291893098519 1 I I 0 1 0.5 forward I I I I #
face $-1 $103 $104 $34 $-1 $105 reversed single #
loop $-1 $-1 $106 $43 #
plane-surface $-1 -27.501850963397061 31.241144250071187 93.792375616428714 0.69465837861970381 0 0.71933979245794832 0.71933979245794832 0 -0.69465837861970381 forward_v I I I I #
face $-1 $107 $108 $35 $-1 $109 forward single #
loop $-1 $110 $111 $44 #
cone-surface $-1 60.161491151043776 31.241144250071187 8.0819208757938732 -0.69465837861970381 0 -0.71933979245794832 0.35966989622897416 0 -0.3473291893098519 1 I I 0 1 0.5 forward I I I I #
face $-1 $112 $113 $27 $-1 $114 reversed single #
loop $-1 $-1 $115 $45 #
plane-surface $-1 0 0 -10.56275317028895 0 0 1 1 0 0 forward_v I I I I #
coedge $-1 $116 $117 $118 $119 forward $46 $-1 #
face $-1 $120 $121 $28 $-1 $122 forward single #
loop $-1 $-1 $123 $48 #
plane-surface $-1 -62.692342905972467 -31.241144250071191 6.6928530665620514 -0.69465837861970381 0 0.71933979245794832 0.71933979245794832 0 0.69465837861970381 forward_v I I I I #
coedge $-1 $124 $125 $126 $127 reversed $49 $-1 #
face $-1 $-1 $128 $29 $-1 $129 forward single #
loop $-1 $130 $131 $51 #
cone-surface $-1 -59.460674190344875 -31.241144250071191 7.3562036850477206 0.69465837861970381 0 -0.71933979245794832 0.17983494811448708 0 0.17366459465492595 1 I I -0.70710678118654746 0.70710678118654746 0.25 forward I I I I #
loop $-1 $-1 $132 $38 #
coedge $-1 $84 $84 $133 $134 reversed $52 $-1 #
face $-1 $135 $136 $30 $-1 $137 forward single #
loop $-1 $-1 $138 $54 #
plane-surface $-1 -149.79186545583912 25.583596268707627 96.887046935931579 0 1 0 -0.69465837861970381 0 0.71933979245794832 forward_v I I I I #
coedge $-1 $139 $140 $141 $142 reversed $55 $-1 #
face $-1 $-1 $143 $31 $-1 $144 forward single #
loop $-1 $145 $146 $57 #
cone-surface $-1 -59.460674190344875 31.241144250071187 7.3562036850477206 0.69465837861970381 0 -0.71933979245794832 0.17983494811448708 0 0.17366459465492595 1 I I -0.70710678118654746 0.70710678118654746 0.25 forward I I I I #
loop $-1 $-1 $147 $40 #
coedge $-1 $93 $93 $148 $149 reversed $58 $-1 #
face $-1 $150 $151 $32 $-1 $152 forward single #
loop $-1 $-1 $153 $60 #
plane-surface $-1 59.597671586469588 -25.58359626870763 183.98656948579824 0 -1 0 -0.69465837861970381 0 -0.71933979245794832 forward_v I I I I #
coedge $-1 $154 $155 $156 $157 reversed $61 $-1 #
face $-1 $-1 $158 $33 $-1 $159 forward single #
loop $-1 $160 $161 $63 #
cone-surface $-1 59.460674190344875 -31.241144250071191 7.3562036850477384 -0.69465837861970381 0 -0.71933979245794832 0.17983494811448708 0 -0.17366459465492595 1 I I -0.70710678118654746 0.70710678118654746 0.25 forward I I I I #
loop $-1 $-1 $162 $42 #
coedge $-1 $102 $102 $163 $164 reversed $64 $-1 #
face $-1 $165 $166 $34 $-1 $167 reversed single #
loop $-1 $-1 $168 $66 #
plane-surface $-1 59.597671586469588 25.583596268707627 183.98656948579824 0 1 0 0.69465837861970381 0 0.71933979245794832 forward_v I I I I #
coedge $-1 $169 $170 $171 $172 reversed $67 $-1 #
face $-1 $-1 $173 $35 $-1 $174 forward single #
loop $-1 $175 $176 $69 #
cone-surface $-1 59.460674190344875 31.241144250071187 7.3562036850477384 -0.69465837861970381 0 -0.71933979245794832 0.17983494811448708 0 -0.17366459465492595 1 I I -0.70710678118654746 0.70710678118654746 0.25 forward I I I I #
loop $-1 $-1 $177 $44 #
coedge $-1 $111 $111 $178 $179 reversed $70 $-1 #
face $-1 $180 $181 $27 $-1 $182 reversed single #
loop $-1 $-1 $183 $72 #
plane-surface $-1 0 -36.898692231434751 0 0 1 0 0 0 1 forward_v I I I I #
coedge $-1 $184 $185 $186 $187 forward $73 $-1 #
coedge $-1 $188 $75 $189 $190 forward $46 $-1 #
coedge $-1 $75 $188 $191 $192 forward $46 $-1 #
coedge $-1 $193 $194 $75 $119 reversed $195 $-1 #
edge $-1 $196 -36.898692231434751 $197 36.898692231434751 $118 $198 forward 7 unknown #
face $-1 $199 $200 $28 $-1 $201 reversed single #
loop $-1 $-1 $202 $76 #
plane-surface $-1 0 0 10.56275317028895 0 0 1 1 0 0 forward_v I I I I #
coedge $-1 $203 $204 $205 $206 reversed $77 $-1 #
coedge $-1 $125 $79 $207 $208 reversed $49 $-1 #
coedge $-1 $79 $124 $203 $209 reversed $49 $-1 #
coedge $-1 $205 $210 $79 $127 forward $200 $-1 #
edge $-1 $211 37.88077029767684 $212 41.750670401403738 $126 $213 forward 7 unknown #
loop $-1 $-1 $133 $80 #
plane-surface $-1 -62.692342905972467 -31.241144250071191 6.6928530665620514 -0.69465837861970381 0 0.71933979245794832 0.71933979245794832 0 0.69465837861970381 forward_v I I I I #
loop $-1 $-1 $214 $51 #
coedge $-1 $131 $131 $132 $215 reversed $81 $-1 #
coedge $-1 $132 $132 $131 $215 forward $83 $-1 #
coedge $-1 $133 $133 $84 $134 forward $128 $-1 #
edge $-1 $216 0 $216 6.2831853071796004 $133 $217 forward 7 unknown #
face $-1 $218 $219 $30 $-1 $220 reversed single #
loop $-1 $-1 $221 $85 #
plane-surface $-1 0 0 10.56275317028895 0 0 1 1 0 0 forward_v I I I I #
coedge $-1 $222 $223 $224 $225 reversed $86 $-1 #
coedge $-1 $226 $88 $227 $228 reversed $55 $-1 #
coedge $-1 $88 $226 $222 $229 forward $55 $-1 #
coedge $-1 $224 $230 $88 $142 forward $231 $-1 #
edge $-1 $232 -21.278120106399157 $233 -9.9630241436720333 $141 $234 forward 7 unknown #
loop $-1 $-1 $148 $89 #
plane-surface $-1 -62.692342905972467 31.241144250071187 6.6928530665620514 -0.69465837861970381 0 0.71933979245794832 0.71933979245794832 0 0.69465837861970381 forward_v I I I I #
loop $-1 $-1 $235 $57 #
coedge $-1 $146 $146 $147 $236 reversed $90 $-1 #
coedge $-1 $147 $147 $146 $236 forward $92 $-1 #
coedge $-1 $148 $148 $93 $149 forward $143 $-1 #
edge $-1 $237 0 $237 6.2831853071796004 $148 $238 forward 7 unknown #
face $-1 $239 $240 $32 $-1 $241 reversed single #
loop $-1 $-1 $242 $94 #
plane-surface $-1 0 0 10.56275317028895 0 0 1 1 0 0 forward_v I I I I #
coedge $-1 $243 $244 $245 $246 reversed $95 $-1 #
coedge $-1 $247 $97 $248 $249 reversed $61 $-1 #
coedge $-1 $97 $247 $243 $250 forward $61 $-1 #
coedge $-1 $245 $251 $97 $157 forward $252 $-1 #
edge $-1 $253 -21.278120106399157 $254 -9.963024143672035 $156 $255 forward 7 unknown #
loop $-1 $-1 $163 $98 #
plane-surface $-1 -27.501850963397061 -31.241144250071191 93.792375616428714 0.69465837861970381 0 0.71933979245794832 0.71933979245794832 0 -0.69465837861970381 forward_v I I I I #
loop $-1 $-1 $256 $63 #
coedge $-1 $161 $161 $162 $257 reversed $99 $-1 #
coedge $-1 $162 $162 $161 $257 forward $101 $-1 #
coedge $-1 $163 $163 $102 $164 forward $158 $-1 #
edge $-1 $258 0 $258 6.2831853071796004 $163 $259 forward 7 unknown #
face $-1 $260 $261 $34 $-1 $262 reversed single #
loop $-1 $-1 $263 $103 #
plane-surface $-1 62.692342905972467 0 0 -1 0 0 0 0 1 forward_v I I I I #
coedge $-1 $264 $265 $266 $267 reversed $104 $-1 #
coedge $-1 $268 $106 $269 $270 reversed $67 $-1 #
coedge $-1 $106 $268 $264 $271 forward $67 $-1 #
coedge $-1 $266 $272 $106 $172 forward $273 $-1 #
edge $-1 $274 -21.278120106399157 $275 -9.9630241436720333 $171 $276 forward 7 unknown #
loop $-1 $-1 $178 $107 #
plane-surface $-1 -27.501850963397061 31.241144250071187 93.792375616428714 0.69465837861970381 0 0.71933979245794832 0.71933979245794832 0 -0.69465837861970381 forward_v I I I I #
loop $-1 $-1 $277 $69 #
coedge $-1 $176 $176 $177 $278 reversed $108 $-1 #
coedge $-1 $177 $177 $176 $278 forward $110 $-1 #
coedge $-1 $178 $178 $111 $179 forward $173 $-1 #
edge $-1 $279 0 $279 6.2831853071796004 $178 $280 forward 7 unknown #
face $-1 $281 $282 $27 $-1 $283 reversed single #
loop $-1 $-1 $284 $112 #
plane-surface $-1 -62.692342905972467 0 0 1 0 0 0 0 -1 forward_v I I I I #
coedge $-1 $285 $191 $286 $287 forward $113 $-1 #
coedge $-1 $288 $115 $285 $289 forward $73 $-1 #
coedge $-1 $115 $288 $290 $291 forward $73 $-1 #
coedge $-1 $194 $193 $115 $187 reversed $195 $-1 #
edge $-1 $292 -36.898692231434751 $293 36.898692231434751 $186 $294 forward 7 unknown #
coedge $-1 $117 $116 $295 $296 forward $46 $-1 #
coedge $-1 $297 $298 $116 $190 reversed $282 $-1 #
edge $-1 $197 -62.692342905972467 $299 62.692342905972467 $189 $300 forward 7 unknown #
coedge $-1 $183 $301 $117 $192 reversed $113 $-1 #
edge $-1 $302 -62.692342905972467 $196 62.692342905972467 $191 $303 forward 7 unknown #
coedge $-1 $186 $118 $301 $304 forward $195 $-1 #
coedge $-1 $118 $186 $297 $305 reversed $195 $-1 #
loop $-1 $-1 $193 $281 #
vertex $-1 $119 $306 #
vertex $-1 $119 $307 #
straight-curve $-1 62.692342905972467 0 10.56275317028895 0 1 0 I I #
face $-1 $-1 $308 $28 $-1 $309 reversed single #
loop $-1 $-1 $126 $120 #
plane-surface $-1 -62.692342905972467 0 0 1 0 0 0 0 -1 forward_v I I I I #
coedge $-1 $207 $310 $311 $312 forward $121 $-1 #
coedge $-1 $311 $123 $125 $209 forward $77 $-1 #
coedge $-1 $123 $311 $313 $314 reversed $77 $-1 #
coedge $-1 $315 $126 $123 $206 forward $200 $-1 #
edge $-1 $212 9.963024143672035 $316 21.278120106399157 $205 $317 forward 7 unknown #
coedge $-1 $318 $202 $124 $208 forward $121 $-1 #
edge $-1 $319 -16.210988599716529 $211 -12.203589821947091 $207 $320 forward 7 unknown #
edge $-1 $212 0 $319 5.5709399365720547 $125 $321 forward 7 unknown #
coedge $-1 $126 $315 $318 $322 reversed $200 $-1 #
vertex $-1 $322 $323 #
vertex $-1 $127 $324 #
straight-curve $-1 -62.692342905972467 -25.58359626870763 48.44352346796579 0 0 -1 I I #
coedge $-1 $214 $214 $-1 $325 reversed $130 $-1 #
edge $-1 $326 0 $326 6.2831853071796004 $131 $327 forward 7 unknown #
vertex $-1 $134 $328 #
ellipse-curve $-1 -60.688643517087748 -31.241144250071191 8.6278031184255006 -0.69465837861970381 0 0.71933979245794832 0.35966989622897416 0 0.3473291893098519 1 I I #
face $-1 $-1 $231 $30 $-1 $329 reversed single #
loop $-1 $-1 $227 $135 #
plane-surface $-1 0 36.898692231434751 0 0 -1 0 0 0 -1 forward_v I I I I #
coedge $-1 $330 $331 $223 $332 forward $136 $-1 #
coedge $-1 $223 $138 $140 $229 reversed $86 $-1 #
coedge $-1 $138 $222 $221 $332 reversed $86 $-1 #
coedge $-1 $333 $141 $138 $225 forward $231 $-1 #
edge $-1 $233 -41.750670401403738 $334 -37.88077029767684 $224 $335 forward 7 unknown #
coedge $-1 $140 $139 $330 $336 reversed $55 $-1 #
coedge $-1 $337 $338 $139 $228 forward $219 $-1 #
edge $-1 $339 14.652985300991375 $232 20.223925237563428 $227 $340 forward 7 unknown #
edge $-1 $341 -5.5709399365720547 $233 0 $222 $342 forward 7 unknown #
coedge $-1 $141 $333 $337 $343 forward $231 $-1 #
loop $-1 $-1 $224 $218 #
vertex $-1 $228 $344 #
vertex $-1 $142 $345 #
straight-curve $-1 -62.692342905972467 15.620572125035594 6.6928530665620549 0 -1 0 I I #
coedge $-1 $235 $235 $-1 $346 reversed $145 $-1 #
edge $-1 $347 0 $347 6.2831853071796004 $146 $348 forward 7 unknown #
vertex $-1 $149 $349 #
ellipse-curve $-1 -60.688643517087748 31.241144250071187 8.6278031184255006 -0.69465837861970381 0 0.71933979245794832 0.35966989622897416 0 0.3473291893098519 1 I I #
face $-1 $-1 $252 $32 $-1 $350 reversed single #
loop $-1 $-1 $248 $150 #
plane-surface $-1 0 -36.898692231434751 0 0 1 0 0 0 1 forward_v I I I I #
coedge $-1 $351 $352 $244 $353 forward $151 $-1 #
coedge $-1 $244 $153 $155 $250 reversed $95 $-1 #
coedge $-1 $153 $243 $242 $353 reversed $95 $-1 #
coedge $-1 $354 $156 $153 $246 forward $252 $-1 #
edge $-1 $254 -85.300431676337055 $355 -81.430531572610164 $245 $356 forward 7 unknown #
coedge $-1 $155 $154 $351 $357 reversed $61 $-1 #
coedge $-1 $358 $359 $154 $249 forward $240 $-1 #
edge $-1 $360 77.345328206963842 $253 82.916268143535888 $248 $361 forward 7 unknown #
edge $-1 $362 119.81374587537287 $254 125.38468581194493 $243 $363 forward 7 unknown #
coedge $-1 $156 $354 $358 $364 forward $252 $-1 #
loop $-1 $-1 $245 $239 #
vertex $-1 $249 $365 #
vertex $-1 $157 $366 #
straight-curve $-1 62.69234290597246 -15.620572125035595 6.6928530665620727 0 1 0 I I #
coedge $-1 $256 $256 $-1 $367 reversed $160 $-1 #
edge $-1 $368 0 $368 6.2831853071796004 $161 $369 forward 7 unknown #
vertex $-1 $164 $370 #
ellipse-curve $-1 60.688643517087748 -31.241144250071191 8.6278031184255166 0.69465837861970381 0 0.71933979245794832 0.35966989622897416 0 -0.3473291893098519 1 I I #
face $-1 $-1 $273 $34 $-1 $371 forward single #
loop $-1 $-1 $269 $165 #
plane-surface $-1 0 36.898692231434751 0 0 -1 0 0 0 -1 forward_v I I I I #
coedge $-1 $372 $373 $265 $374 forward $166 $-1 #
coedge $-1 $265 $168 $170 $271 reversed $104 $-1 #
coedge $-1 $168 $264 $263 $374 reversed $104 $-1 #
coedge $-1 $375 $171 $168 $267 forward $273 $-1 #
edge $-1 $275 28.886108334968235 $376 32.893507112737673 $266 $377 forward 7 unknown #
coedge $-1 $170 $169 $372 $378 reversed $67 $-1 #
coedge $-1 $379 $380 $169 $270 forward $261 $-1 #
edge $-1 $381 -82.916268143535888 $274 -77.345328206963842 $269 $382 forward 7 unknown #
edge $-1 $383 -125.38468581194493 $275 -119.81374587537287 $264 $384 forward 7 unknown #
coedge $-1 $171 $375 $379 $385 forward $273 $-1 #
loop $-1 $-1 $266 $260 #
vertex $-1 $270 $386 #
vertex $-1 $172 $387 #
straight-curve $-1 58.684944128203043 15.620572125035594 10.56275317028895 0 -1 0 I I #
coedge $-1 $277 $277 $-1 $388 reversed $175 $-1 #
edge $-1 $389 0 $389 6.2831853071796004 $176 $390 forward 7 unknown #
vertex $-1 $179 $391 #
ellipse-curve $-1 60.688643517087748 31.241144250071187 8.6278031184255166 0.69465837861970381 0 0.71933979245794832 0.35966989622897416 0 -0.3473291893098519 1 I I #
face $-1 $-1 $195 $27 $-1 $392 reversed single #
loop $-1 $-1 $297 $180 #
plane-surface $-1 0 36.898692231434751 0 0 -1 0 0 0 -1 forward_v I I I I #
coedge $-1 $393 $295 $298 $394 forward $181 $-1 #
coedge $-1 $301 $183 $184 $289 reversed $113 $-1 #
coedge $-1 $295 $393 $183 $287 reversed $181 $-1 #
edge $-1 $302 -10.56275317028895 $395 10.56275317028895 $286 $396 forward 7 unknown #
coedge $-1 $185 $184 $393 $397 forward $73 $-1 #
edge $-1 $293 -62.692342905972467 $395 62.692342905972467 $285 $398 forward 7 unknown #
coedge $-1 $298 $297 $185 $291 reversed $282 $-1 #
edge $-1 $399 -62.692342905972467 $292 62.692342905972467 $290 $400 forward 7 unknown #
vertex $-1 $187 $401 #
vertex $-1 $304 $402 #
straight-curve $-1 62.692342905972467 0 -10.56275317028895 0 -1 0 I I #
coedge $-1 $284 $286 $188 $296 reversed $181 $-1 #
edge $-1 $299 -36.898692231434751 $302 36.898692231434751 $295 $403 forward 7 unknown #
coedge $-1 $290 $189 $194 $305 forward $282 $-1 #
coedge $-1 $189 $290 $284 $394 reversed $282 $-1 #
vertex $-1 $190 $404 #
straight-curve $-1 0 36.898692231434751 10.56275317028895 -1 0 0 I I #
coedge $-1 $191 $285 $193 $304 reversed $113 $-1 #
vertex $-1 $296 $405 #
straight-curve $-1 0 -36.898692231434751 10.56275317028895 1 0 0 I I #
edge $-1 $196 -10.56275317028895 $293 10.56275317028895 $193 $406 forward 7 unknown #
edge $-1 $197 -10.56275317028895 $292 10.56275317028895 $194 $407 forward 7 unknown #
point $-1 62.692342905972467 -36.898692231434751 10.56275317028895 #
point $-1 62.692342905972467 36.898692231434751 10.56275317028895 #
loop $-1 $-1 $313 $199 #
plane-surface $-1 0 -36.898692231434751 0 0 1 0 0 0 1 forward_v I I I I #
coedge $-1 $202 $318 $408 $409 forward $121 $-1 #
coedge $-1 $204 $203 $202 $312 reversed $77 $-1 #
edge $-1 $410 -21.278120106399157 $319 -9.963024143672035 $202 $411 forward 7 unknown #
coedge $-1 $408 $412 $204 $314 forward $308 $-1 #
edge $-1 $316 -20.223925237563428 $410 -14.652985300991375 $313 $413 forward 7 unknown #
coedge $-1 $210 $205 $412 $414 reversed $200 $-1 #
vertex $-1 $206 $415 #
straight-curve $-1 -62.692342905972467 -15.620572125035595 6.6928530665620549 0 -1 0 I I #
coedge $-1 $310 $207 $210 $322 forward $121 $-1 #
vertex $-1 $208 $416 #
straight-curve $-1 -74.895932727919558 -25.58359626870763 10.56275317028895 -1 0 0 I I #
straight-curve $-1 -62.692342905972467 -25.58359626870763 6.6928530665620514 0.71933979245794832 0 0.69465837861970381 I I #
edge $-1 $211 25.58359626870763 $417 36.898692231434751 $210 $418 forward 7 unknown #
point $-1 -62.692342905972467 -25.58359626870763 10.56275317028895 #
point $-1 -62.692342905972467 -25.58359626870763 6.6928530665620514 #
edge $-1 $419 1 $419 0 $214 $-1 forward 7 unknown #
vertex $-1 $215 $420 #
ellipse-curve $-1 -59.634338784999798 -31.241144250071191 7.5360386331622076 -0.69465837861970381 0 0.71933979245794832 0.35966989622897416 0 0.3473291893098519 1 I I #
point $-1 -60.328973620858775 -31.241144250071191 8.9751323077353558 #
plane-surface $-1 -62.692342905972467 0 0 1 0 0 0 0 -1 forward_v I I I I #
coedge $-1 $421 $221 $226 $336 forward $136 $-1 #
coedge $-1 $221 $421 $333 $422 forward $136 $-1 #
edge $-1 $334 12.203589821947091 $341 16.210988599716529 $221 $423 forward 7 unknown #
coedge $-1 $230 $224 $331 $422 reversed $231 $-1 #
vertex $-1 $225 $424 #
straight-curve $-1 -62.692342905972467 25.583596268707627 48.44352346796579 0 0 1 I I #
edge $-1 $341 9.9630241436720333 $339 21.278120106399157 $330 $425 forward 7 unknown #
coedge $-1 $338 $227 $230 $343 reversed $219 $-1 #
coedge $-1 $227 $337 $421 $426 reversed $219 $-1 #
vertex $-1 $426 $427 #
straight-curve $-1 -48.144468722898523 36.898692231434751 20.741572181413972 -0.71933979245794832 0 -0.69465837861970381 I I #
vertex $-1 $336 $428 #
straight-curve $-1 -62.692342905972467 25.583596268707627 6.6928530665620514 -0.71933979245794832 0 -0.69465837861970381 I I #
edge $-1 $429 -10.56275317028895 $232 -6.6928530665620514 $337 $430 forward 7 unknown #
point $-1 -62.692342905972467 36.898692231434751 6.6928530665620514 #
point $-1 -62.692342905972467 25.583596268707627 6.6928530665620514 #
edge $-1 $431 1 $431 0 $235 $-1 forward 7 unknown #
vertex $-1 $236 $432 #
ellipse-curve $-1 -59.634338784999798 31.241144250071187 7.5360386331622076 -0.69465837861970381 0 0.71933979245794832 0.35966989622897416 0 0.3473291893098519 1 I I #
point $-1 -60.328973620858775 31.241144250071187 8.9751323077353558 #
plane-surface $-1 62.692342905972467 0 0 -1 0 0 0 0 1 forward_v I I I I #
coedge $-1 $433 $242 $247 $357 forward $151 $-1 #
coedge $-1 $242 $433 $354 $434 forward $151 $-1 #
edge $-1 $355 -32.893507112737673 $362 -28.886108334968235 $242 $435 forward 7 unknown #
coedge $-1 $251 $245 $352 $434 reversed $252 $-1 #
vertex $-1 $353 $436 #
straight-curve $-1 62.692342905972467 -25.58359626870763 91.993284742899121 0 0 1 I I #
edge $-1 $362 9.963024143672035 $360 21.278120106399157 $351 $437 forward 7 unknown #
coedge $-1 $359 $248 $251 $364 reversed $240 $-1 #
coedge $-1 $248 $358 $433 $438 reversed $240 $-1 #
vertex $-1 $438 $439 #
straight-curve $-1 3.0473717882137628 -36.898692231434751 64.291333456347303 0.71933979245794832 0 -0.69465837861970381 I I #
vertex $-1 $357 $440 #
straight-curve $-1 -27.501850963397061 -25.58359626870763 93.792375616428714 0.71933979245794832 0 -0.69465837861970381 I I #
edge $-1 $441 -10.56275317028895 $253 -6.6928530665620629 $251 $442 forward 7 unknown #
point $-1 62.692342905972467 -36.898692231434751 6.6928530665620629 #
point $-1 62.692342905972467 -25.58359626870763 6.6928530665620656 #
edge $-1 $443 1 $443 0 $256 $-1 forward 7 unknown #
vertex $-1 $257 $444 #
ellipse-curve $-1 59.634338784999798 -31.241144250071191 7.5360386331622253 0.69465837861970381 0 0.71933979245794832 0.35966989622897416 0 -0.3473291893098519 1 I I #
point $-1 61.04831341331672 -31.241144250071191 8.2804739291156704 #
plane-surface $-1 0 0 10.56275317028895 0 0 1 1 0 0 forward_v I I I I #
coedge $-1 $445 $263 $268 $378 forward $166 $-1 #
coedge $-1 $263 $445 $375 $446 reversed $166 $-1 #
edge $-1 $376 81.430531572610164 $383 85.300431676337055 $263 $447 forward 7 unknown #
coedge $-1 $272 $266 $373 $446 forward $273 $-1 #
vertex $-1 $446 $448 #
straight-curve $-1 29.798835793234794 25.583596268707627 10.562753170288957 1 0 0 I I #
edge $-1 $383 9.9630241436720333 $381 21.278120106399157 $372 $449 forward 7 unknown #
coedge $-1 $380 $269 $272 $385 reversed $261 $-1 #
coedge $-1 $269 $379 $445 $450 forward $261 $-1 #
vertex $-1 $270 $451 #
straight-curve $-1 3.0473717882137628 36.898692231434751 64.291333456347303 -0.71933979245794832 0 0.69465837861970381 I I #
vertex $-1 $378 $452 #
straight-curve $-1 -27.501850963397061 25.583596268707627 93.792375616428714 -0.71933979245794832 0 0.69465837861970381 I I #
edge $-1 $453 -62.692342905972467 $274 -58.684944128203036 $379 $454 forward 7 unknown #
point $-1 58.684944128203036 36.898692231434751 10.56275317028895 #
point $-1 58.684944128203028 25.583596268707627 10.562753170288957 #
edge $-1 $455 1 $455 0 $277 $-1 forward 7 unknown #
vertex $-1 $278 $456 #
ellipse-curve $-1 59.634338784999798 31.241144250071187 7.5360386331622253 0.69465837861970381 0 0.71933979245794832 0.35966989622897416 0 -0.3473291893098519 1 I I #
point $-1 61.04831341331672 31.241144250071187 8.2804739291156704 #
plane-surface $-1 62.692342905972467 0 0 -1 0 0 0 0 1 forward_v I I I I #
coedge $-1 $286 $284 $288 $397 reversed $181 $-1 #
edge $-1 $299 -10.56275317028895 $399 10.56275317028895 $298 $457 forward 7 unknown #
vertex $-1 $397 $458 #
straight-curve $-1 -62.692342905972467 -36.898692231434751 0 0 0 -1 I I #
edge $-1 $395 -36.898692231434751 $399 36.898692231434751 $393 $459 forward 7 unknown #
straight-curve $-1 0 -36.898692231434751 -10.56275317028895 -1 0 0 I I #
vertex $-1 $291 $460 #
straight-curve $-1 0 36.898692231434751 -10.56275317028895 1 0 0 I I #
point $-1 62.692342905972467 36.898692231434751 -10.56275317028895 #
point $-1 62.692342905972467 -36.898692231434751 -10.56275317028895 #
straight-curve $-1 -62.692342905972467 0 10.56275317028895 0 -1 0 I I #
point $-1 -62.692342905972467 36.898692231434751 10.56275317028895 #
point $-1 -62.692342905972467 -36.898692231434751 10.56275317028895 #
straight-curve $-1 62.692342905972467 -36.898692231434751 0 0 0 -1 I I #
straight-curve $-1 62.692342905972467 36.898692231434751 0 0 0 -1 I I #
coedge $-1 $412 $313 $310 $409 reversed $308 $-1 #
edge $-1 $417 -62.692342905972467 $410 -58.684944128203028 $408 $461 forward 7 unknown #
vertex $-1 $314 $462 #
straight-curve $-1 -58.684944128203028 -15.620572125035595 10.56275317028895 0 1 0 I I #
coedge $-1 $313 $408 $315 $414 forward $308 $-1 #
straight-curve $-1 -48.144468722898523 -36.898692231434751 20.741572181413972 0.71933979245794832 0 0.69465837861970381 I I #
edge $-1 $417 -10.56275317028895 $316 -6.6928530665620514 $315 $463 forward 7 unknown #
point $-1 -62.692342905972467 -36.898692231434751 6.6928530665620514 #
point $-1 -58.684944128203028 -25.58359626870763 10.56275317028895 #
vertex $-1 $322 $464 #
straight-curve $-1 -62.692342905972467 0 10.56275317028895 0 -1 0 I I #
vertex $-1 $325 $465 #
point $-1 -59.274668888770826 -31.241144250071191 7.88336782247206 #
coedge $-1 $331 $330 $338 $426 forward $136 $-1 #
edge $-1 $429 -36.898692231434751 $334 -25.583596268707627 $333 $466 forward 7 unknown #
straight-curve $-1 -74.895932727919558 25.583596268707627 10.56275317028895 1 0 0 I I #
point $-1 -62.692342905972467 25.583596268707627 10.56275317028895 #
straight-curve $-1 -58.684944128203028 15.620572125035594 10.56275317028895 0 1 0 I I #
edge $-1 $339 58.684944128203028 $429 62.692342905972467 $338 $467 forward 7 unknown #
point $-1 -58.684944128203028 36.898692231434751 10.56275317028895 #
point $-1 -58.684944128203028 25.583596268707627 10.56275317028895 #
vertex $-1 $426 $468 #
straight-curve $-1 -62.692342905972467 36.898692231434751 0 0 0 -1 I I #
vertex $-1 $346 $469 #
point $-1 -59.274668888770826 31.241144250071187 7.88336782247206 #
coedge $-1 $352 $351 $359 $438 forward $151 $-1 #
edge $-1 $441 -36.898692231434751 $355 -25.58359626870763 $354 $470 forward 7 unknown #
straight-curve $-1 29.798835793234794 -25.58359626870763 10.562753170288957 -1 0 0 I I #
point $-1 62.692342905972467 -25.58359626870763 10.56275317028895 #
straight-curve $-1 58.684944128203043 -15.620572125035595 10.56275317028895 0 -1 0 I I #
edge $-1 $360 58.684944128203028 $441 62.692342905972467 $359 $471 forward 7 unknown #
point $-1 58.684944128203028 -36.898692231434751 10.562753170288957 #
point $-1 58.684944128203028 -25.58359626870763 10.562753170288957 #
vertex $-1 $434 $472 #
straight-curve $-1 62.692342905972467 -36.898692231434751 0 0 0 -1 I I #
vertex $-1 $367 $473 #
point $-1 59.994008681228777 -31.241144250071191 7.1887094438523738 #
coedge $-1 $373 $372 $380 $450 reversed $166 $-1 #
edge $-1 $376 25.583596268707627 $453 36.898692231434751 $373 $474 forward 7 unknown #
straight-curve $-1 62.692342905972467 25.583596268707627 91.993284742899121 0 0 -1 I I #
point $-1 62.692342905972467 25.583596268707627 10.56275317028895 #
straight-curve $-1 62.69234290597246 15.620572125035594 6.6928530665620727 0 1 0 I I #
edge $-1 $453 -10.56275317028895 $381 -6.6928530665620656 $445 $475 forward 7 unknown #
point $-1 62.692342905972467 36.898692231434751 6.6928530665620656 #
point $-1 62.692342905972467 25.583596268707627 6.6928530665620656 #
vertex $-1 $446 $476 #
straight-curve $-1 0 36.898692231434751 10.56275317028895 -1 0 0 I I #
vertex $-1 $388 $477 #
point $-1 59.994008681228777 31.241144250071187 7.1887094438523738 #
straight-curve $-1 -62.692342905972467 36.898692231434751 0 0 0 -1 I I #
point $-1 -62.692342905972467 -36.898692231434751 -10.56275317028895 #
straight-curve $-1 -62.692342905972467 0 -10.56275317028895 0 1 0 I I #
point $-1 -62.692342905972467 36.898692231434751 -10.56275317028895 #
straight-curve $-1 0 -36.898692231434751 10.56275317028895 1 0 0 I I #
point $-1 -58.684944128203028 -36.898692231434751 10.56275317028895 #
straight-curve $-1 -62.692342905972467 -36.898692231434751 0 0 0 -1 I I #
point $-1 -62.692342905972467 -36.898692231434751 10.56275317028895 #
point $-1 -59.287009595689952 -31.241144250071191 7.1763687369332336 #
straight-curve $-1 -62.692342905972467 0 10.56275317028895 0 -1 0 I I #
straight-curve $-1 0 36.898692231434751 10.56275317028895 -1 0 0 I I #
point $-1 -62.692342905972467 36.898692231434751 10.56275317028895 #
point $-1 -59.287009595689952 31.241144250071187 7.1763687369332336 #
straight-curve $-1 62.692342905972467 0 10.56275317028895 0 1 0 I I #
straight-curve $-1 0 -36.898692231434751 10.56275317028895 1 0 0 I I #
point $-1 62.692342905972467 -36.898692231434751 10.56275317028895 #
point $-1 59.287009595689952 -31.241144250071191 7.1763687369332514 #
straight-curve $-1 62.692342905972467 0 10.56275317028895 0 1 0 I I #
straight-curve $-1 62.692342905972467 36.898692231434751 0 0 0 -1 I I #
point $-1 62.692342905972467 36.898692231434751 10.56275317028895 #
point $-1 59.287009595689952 31.241144250071187 7.1763687369332514 #
End-of-ACIS-data 