500 0 9 0           
7 Unknown 11 ACIS 5.0 NT 24 Fri Mar 26 20:44:07 1999 
-1 9.9999999999999995e-007 1e-010 
body $-1 $9 $-1 $10 #
body $-1 $11 $-1 $12 #
body $-1 $13 $-1 $14 #
body $-1 $15 $-1 $16 #
body $-1 $17 $-1 $18 #
body $-1 $19 $-1 $20 #
body $-1 $21 $-1 $22 #
body $-1 $23 $-1 $24 #
body $-1 $25 $-1 $26 #
lump $-1 $-1 $27 $0 #
transform $-1 1 0 0 0 1 0 0 0 1 64.948271126438186 32.564322224684986 7.1842855727484292 1 rotate no_reflect no_shear #
lump $-1 $-1 $28 $1 #
transform $-1 1 0 0 0 1 0 0 0 1 64.948271126438186 32.564322224684986 7.1842855727484292 1 rotate no_reflect no_shear #
lump $-1 $-1 $29 $2 #
transform $-1 1 0 0 0 1 0 0 0 1 64.948271126438186 32.564322224684986 7.1842855727484292 1 rotate no_reflect no_shear #
lump $-1 $-1 $30 $3 #
transform $-1 1 0 0 0 1 0 0 0 1 64.948271126438186 32.564322224684986 7.1842855727484292 1 rotate no_reflect no_shear #
lump $-1 $-1 $31 $4 #
transform $-1 1 0 0 0 1 0 0 0 1 64.948271126438186 32.564322224684986 7.1842855727484292 1 rotate no_reflect no_shear #
lump $-1 $-1 $32 $5 #
transform $-1 1 0 0 0 1 0 0 0 1 64.948271126438186 32.564322224684986 7.1842855727484292 1 rotate no_reflect no_shear #
lump $-1 $-1 $33 $6 #
transform $-1 1 0 0 0 1 0 0 0 1 64.948271126438186 32.564322224684986 7.1842855727484292 1 rotate no_reflect no_shear #
lump $-1 $-1 $34 $7 #
transform $-1 1 0 0 0 1 0 0 0 1 64.948271126438186 32.564322224684986 7.1842855727484292 1 rotate no_reflect no_shear #
lump $-1 $-1 $35 $8 #
transform $-1 1 0 0 0 1 0 0 0 1 64.948271126438186 32.564322224684986 7.1842855727484292 1 rotate no_reflect no_shear #
shell $-1 $-1 $-1 $36 $-1 $9 #
shell $-1 $-1 $-1 $37 $-1 $11 #
shell $-1 $-1 $-1 $38 $-1 $13 #
shell $-1 $-1 $-1 $39 $-1 $15 #
shell $-1 $-1 $-1 $40 $-1 $17 #
shell $-1 $-1 $-1 $41 $-1 $19 #
shell $-1 $-1 $-1 $42 $-1 $21 #
shell $-1 $-1 $-1 $43 $-1 $23 #
shell $-1 $-1 $-1 $44 $-1 $25 #
face $-1 $45 $46 $27 $-1 $47 forward single #
face $-1 $48 $49 $28 $-1 $50 reversed single #
face $-1 $51 $52 $29 $-1 $53 reversed single #
face $-1 $54 $55 $30 $-1 $56 reversed single #
face $-1 $57 $58 $31 $-1 $59 forward single #
face $-1 $60 $61 $32 $-1 $62 reversed single #
face $-1 $63 $64 $33 $-1 $65 forward single #
face $-1 $66 $67 $34 $-1 $68 forward single #
face $-1 $69 $70 $35 $-1 $71 forward single #
face $-1 $72 $73 $27 $-1 $74 reversed single #
loop $-1 $-1 $75 $36 #
plane-surface $-1 0 0 7.1842855727484292 0 0 1 1 0 0 forward_v I I I I #
face $-1 $76 $77 $28 $-1 $78 reversed single #
loop $-1 $-1 $79 $37 #
plane-surface $-1 0 -29.924930988846011 3.5220912332722198 0 0 1 1 0 0 forward_v I I I I #
face $-1 $80 $81 $29 $-1 $82 reversed single #
loop $-1 $-1 $83 $38 #
plane-surface $-1 0 29.924930988846015 3.5220912332722198 0 0 1 1 0 0 forward_v I I I I #
face $-1 $84 $85 $30 $-1 $86 reversed single #
loop $-1 $-1 $87 $39 #
plane-surface $-1 -64.948271126438186 -19.956690280696467 0.47184469714363786 -0.80901700255871778 0 0.5877852410284794 0.5877852410284794 0 0.80901700255871778 forward_v I I I I #
face $-1 $88 $89 $31 $-1 $90 forward single #
loop $-1 $91 $92 $40 #
cone-surface $-1 -61.204857078281343 -19.956690280696467 2.8799437011272562 0.80901700255871778 0 -0.5877852410284794 0.5877852410284794 0 0.80901700255871778 1 I I 0 1 1 forward I I I I #
face $-1 $93 $94 $32 $-1 $95 reversed single #
loop $-1 $-1 $96 $41 #
plane-surface $-1 26.754593214341654 -21.108290039667075 180.9259344542445 0 -1 0 -0.54463904215088732 0 -0.83867056331134215 forward_v I I I I #
face $-1 $97 $98 $33 $-1 $99 forward single #
loop $-1 $100 $101 $42 #
cone-surface $-1 60.098329103896006 -26.050089810339045 3.792207424473665 -0.54463904215088732 0 -0.83867056331134215 0.41933528165567108 0 -0.27231952107544366 1 I I 0 1 0.5 forward I I I I #
face $-1 $102 $103 $34 $-1 $104 forward single #
loop $-1 $105 $106 $43 #
cone-surface $-1 60.098329103896006 -24.196914896337056 3.792207424473665 -0.54463904215088732 0 -0.83867056331134215 0.41933528165567108 0 -0.27231952107544366 1 I I 0 1 0.5 forward I I I I #
face $-1 $107 $108 $35 $-1 $109 forward single #
loop $-1 $110 $111 $44 #
cone-surface $-1 60.098329103896006 -22.34373998233507 3.792207424473665 -0.54463904215088732 0 -0.83867056331134215 0.41933528165567108 0 -0.27231952107544366 1 I I 0 1 0.5 forward I I I I #
face $-1 $112 $113 $27 $-1 $114 reversed single #
loop $-1 $-1 $115 $45 #
plane-surface $-1 0 0 -7.1842855727484292 0 0 1 1 0 0 forward_v I I I I #
coedge $-1 $116 $117 $118 $119 forward $46 $-1 #
face $-1 $120 $121 $28 $-1 $122 reversed single #
loop $-1 $-1 $123 $48 #
plane-surface $-1 0 -27.285539753007036 5.3531884030103249 0 -1 0 0 0 -1 forward_v I I I I #
coedge $-1 $124 $125 $126 $127 reversed $49 $-1 #
face $-1 $128 $129 $29 $-1 $130 forward single #
loop $-1 $-1 $131 $51 #
plane-surface $-1 0 27.28553975300704 5.3531884030103249 0 1 0 0 0 1 forward_v I I I I #
coedge $-1 $132 $133 $134 $135 reversed $52 $-1 #
face $-1 $136 $137 $30 $-1 $138 reversed single #
loop $-1 $-1 $139 $54 #
plane-surface $-1 -170.03678238260207 -12.627840808385898 76.823115094016629 0 -1 0 0.80901700255871778 0 -0.5877852410284794 forward_v I I I I #
coedge $-1 $140 $141 $142 $143 reversed $55 $-1 #
face $-1 $-1 $144 $31 $-1 $145 forward single #
loop $-1 $146 $147 $57 #
cone-surface $-1 -59.495371338873994 -19.956690280696467 1.6379296467942428 0.80901700255871778 0 -0.5877852410284794 0.2938926205142397 0 0.40450850127935889 1 I I -0.70710678118654746 0.70710678118654746 0.5 forward I I I I #
loop $-1 $-1 $148 $40 #
coedge $-1 $92 $92 $149 $150 reversed $58 $-1 #
face $-1 $151 $152 $32 $-1 $153 forward single #
loop $-1 $-1 $154 $60 #
plane-surface $-1 -43.992135136977197 -24.196914896337056 71.985528190829115 0.54463904215088732 0 0.83867056331134215 0.83867056331134215 0 -0.54463904215088732 forward_v I I I I #
coedge $-1 $155 $156 $157 $158 reversed $61 $-1 #
face $-1 $-1 $159 $33 $-1 $160 forward single #
loop $-1 $161 $162 $63 #
cone-surface $-1 59.689849822282838 -26.050089810339045 3.1632045019901582 -0.54463904215088732 0 -0.83867056331134215 0.20966764082783554 0 -0.13615976053772183 1 I I -0.70710678118654746 0.70710678118654746 0.25 forward I I I I #
loop $-1 $-1 $163 $42 #
coedge $-1 $101 $101 $164 $165 reversed $64 $-1 #
face $-1 $-1 $166 $34 $-1 $167 forward single #
loop $-1 $168 $169 $66 #
cone-surface $-1 59.689849822282838 -24.196914896337056 3.1632045019901582 -0.54463904215088732 0 -0.83867056331134215 0.20966764082783554 0 -0.13615976053772183 1 I I -0.70710678118654746 0.70710678118654746 0.25 forward I I I I #
loop $-1 $-1 $170 $43 #
coedge $-1 $106 $106 $171 $172 reversed $67 $-1 #
face $-1 $-1 $173 $35 $-1 $174 forward single #
loop $-1 $175 $176 $69 #
cone-surface $-1 59.689849822282838 -22.34373998233507 3.1632045019901582 -0.54463904215088732 0 -0.83867056331134215 0.20966764082783554 0 -0.13615976053772183 1 I I -0.70710678118654746 0.70710678118654746 0.25 forward I I I I #
loop $-1 $-1 $177 $44 #
coedge $-1 $111 $111 $178 $179 reversed $70 $-1 #
face $-1 $180 $181 $27 $-1 $182 reversed single #
loop $-1 $-1 $183 $72 #
plane-surface $-1 0 -32.564322224684986 0 0 1 0 0 0 1 forward_v I I I I #
coedge $-1 $184 $185 $186 $187 forward $73 $-1 #
coedge $-1 $188 $75 $189 $190 forward $46 $-1 #
coedge $-1 $75 $188 $191 $192 forward $46 $-1 #
coedge $-1 $193 $194 $75 $119 reversed $195 $-1 #
edge $-1 $196 -32.564322224684986 $197 32.564322224684986 $118 $198 forward 7 unknown #
face $-1 $199 $200 $28 $-1 $201 reversed single #
loop $-1 $-1 $202 $76 #
plane-surface $-1 -64.948271126438186 0 0 1 0 0 0 0 -1 forward_v I I I I #
coedge $-1 $203 $204 $205 $206 reversed $77 $-1 #
coedge $-1 $207 $79 $208 $209 reversed $49 $-1 #
coedge $-1 $79 $207 $203 $210 forward $49 $-1 #
coedge $-1 $205 $211 $79 $127 forward $212 $-1 #
edge $-1 $213 -17.601856730261979 $214 -12.323074258584031 $126 $215 forward 7 unknown #
face $-1 $216 $217 $29 $-1 $218 reversed single #
loop $-1 $-1 $219 $80 #
plane-surface $-1 0 0 7.1842855727484292 0 0 1 1 0 0 forward_v I I I I #
coedge $-1 $220 $221 $222 $223 reversed $81 $-1 #
coedge $-1 $224 $83 $220 $225 forward $52 $-1 #
coedge $-1 $83 $224 $226 $227 reversed $52 $-1 #
coedge $-1 $228 $229 $83 $135 forward $217 $-1 #
edge $-1 $230 12.323074258584032 $231 17.601856730261979 $134 $232 forward 7 unknown #
face $-1 $233 $234 $30 $-1 $235 forward single #
loop $-1 $-1 $236 $84 #
plane-surface $-1 -64.948271126438186 0 0 1 0 0 0 0 -1 forward_v I I I I #
coedge $-1 $237 $238 $239 $240 reversed $85 $-1 #
coedge $-1 $241 $87 $242 $243 reversed $55 $-1 #
coedge $-1 $87 $241 $237 $244 forward $55 $-1 #
coedge $-1 $239 $245 $87 $143 forward $234 $-1 #
edge $-1 $246 -17.307194612658805 $247 -2.6494956680376642 $142 $248 forward 7 unknown #
loop $-1 $-1 $149 $88 #
plane-surface $-1 -64.948271126438186 -19.956690280696467 0.47184469714363786 -0.80901700255871778 0 0.5877852410284794 0.5877852410284794 0 0.80901700255871778 forward_v I I I I #
loop $-1 $-1 $249 $57 #
coedge $-1 $147 $147 $148 $250 reversed $89 $-1 #
coedge $-1 $148 $148 $147 $250 forward $91 $-1 #
coedge $-1 $149 $149 $92 $150 forward $144 $-1 #
edge $-1 $251 0 $251 6.2831853071796004 $149 $252 forward 7 unknown #
face $-1 $253 $254 $32 $-1 $255 forward single #
loop $-1 $-1 $157 $93 #
plane-surface $-1 0 0 7.1842855727484292 0 0 1 1 0 0 forward_v I I I I #
coedge $-1 $256 $257 $258 $259 reversed $94 $-1 #
coedge $-1 $156 $96 $260 $261 reversed $61 $-1 #
coedge $-1 $96 $155 $256 $262 reversed $61 $-1 #
coedge $-1 $258 $263 $96 $158 forward $152 $-1 #
edge $-1 $264 -51.570974519267359 $265 -42.415729516333876 $157 $266 forward 7 unknown #
loop $-1 $-1 $164 $97 #
plane-surface $-1 -43.992135136977197 -24.196914896337056 71.985528190829115 0.54463904215088732 0 0.83867056331134215 0.83867056331134215 0 -0.54463904215088732 forward_v I I I I #
loop $-1 $-1 $267 $63 #
coedge $-1 $162 $162 $163 $268 reversed $98 $-1 #
coedge $-1 $163 $163 $162 $268 forward $100 $-1 #
coedge $-1 $164 $164 $101 $165 forward $159 $-1 #
edge $-1 $269 0 $269 6.2831853071796004 $164 $270 forward 7 unknown #
loop $-1 $-1 $171 $102 #
plane-surface $-1 -43.992135136977197 -24.196914896337056 71.985528190829115 0.54463904215088732 0 0.83867056331134215 0.83867056331134215 0 -0.54463904215088732 forward_v I I I I #
loop $-1 $-1 $271 $66 #
coedge $-1 $169 $169 $170 $272 reversed $103 $-1 #
coedge $-1 $170 $170 $169 $272 forward $105 $-1 #
coedge $-1 $171 $171 $106 $172 forward $166 $-1 #
edge $-1 $273 0 $273 6.2831853071796004 $171 $274 forward 7 unknown #
loop $-1 $-1 $178 $107 #
plane-surface $-1 -43.992135136977197 -24.196914896337056 71.985528190829115 0.54463904215088732 0 0.83867056331134215 0.83867056331134215 0 -0.54463904215088732 forward_v I I I I #
loop $-1 $-1 $275 $69 #
coedge $-1 $176 $176 $177 $276 reversed $108 $-1 #
coedge $-1 $177 $177 $176 $276 forward $110 $-1 #
coedge $-1 $178 $178 $111 $179 forward $173 $-1 #
edge $-1 $277 0 $277 6.2831853071796004 $178 $278 forward 7 unknown #
face $-1 $279 $280 $27 $-1 $281 reversed single #
loop $-1 $-1 $282 $112 #
plane-surface $-1 -64.948271126438186 0 0 1 0 0 0 0 -1 forward_v I I I I #
coedge $-1 $283 $191 $284 $285 forward $113 $-1 #
coedge $-1 $286 $115 $283 $287 forward $73 $-1 #
coedge $-1 $115 $286 $288 $289 forward $73 $-1 #
coedge $-1 $194 $193 $115 $187 reversed $195 $-1 #
edge $-1 $290 -32.564322224684986 $291 32.564322224684986 $186 $292 forward 7 unknown #
coedge $-1 $117 $116 $293 $294 forward $46 $-1 #
coedge $-1 $295 $296 $116 $190 reversed $280 $-1 #
edge $-1 $197 -64.948271126438186 $297 64.948271126438186 $189 $298 forward 7 unknown #
coedge $-1 $183 $299 $117 $192 reversed $113 $-1 #
edge $-1 $300 -64.948271126438186 $196 64.948271126438186 $191 $301 forward 7 unknown #
coedge $-1 $186 $118 $299 $302 forward $195 $-1 #
coedge $-1 $118 $186 $295 $303 reversed $195 $-1 #
loop $-1 $-1 $193 $279 #
vertex $-1 $119 $304 #
vertex $-1 $119 $305 #
straight-curve $-1 64.948271126438186 0 7.1842855727484292 0 1 0 I I #
face $-1 $306 $307 $28 $-1 $308 forward single #
loop $-1 $-1 $208 $120 #
plane-surface $-1 0 -32.564322224684986 0 0 1 0 0 0 1 forward_v I I I I #
coedge $-1 $309 $310 $311 $312 forward $121 $-1 #
coedge $-1 $311 $123 $125 $210 reversed $77 $-1 #
coedge $-1 $123 $311 $313 $314 reversed $77 $-1 #
coedge $-1 $315 $126 $123 $206 forward $212 $-1 #
edge $-1 $214 0.84549703176705737 $316 4.5076913712432676 $205 $317 forward 7 unknown #
coedge $-1 $125 $124 $309 $318 reversed $49 $-1 #
coedge $-1 $319 $320 $124 $209 forward $200 $-1 #
edge $-1 $321 -64.948271126438186 $213 64.948271126438186 $208 $322 forward 7 unknown #
edge $-1 $323 -64.948271126438186 $214 64.948271126438186 $203 $324 forward 7 unknown #
coedge $-1 $126 $315 $319 $325 forward $212 $-1 #
loop $-1 $-1 $205 $306 #
vertex $-1 $209 $326 #
vertex $-1 $127 $327 #
straight-curve $-1 64.948271126438186 -14.962465494423006 3.5220912332722198 0 1 0 I I #
face $-1 $328 $329 $29 $-1 $330 reversed single #
loop $-1 $-1 $229 $128 #
plane-surface $-1 64.948271126438186 0 0 -1 0 0 0 0 1 forward_v I I I I #
coedge $-1 $331 $332 $221 $333 forward $129 $-1 #
coedge $-1 $334 $131 $132 $225 reversed $81 $-1 #
coedge $-1 $131 $334 $219 $333 reversed $81 $-1 #
coedge $-1 $335 $336 $131 $223 forward $329 $-1 #
edge $-1 $337 0.84549703176705737 $338 4.5076913712432676 $222 $339 forward 7 unknown #
coedge $-1 $133 $132 $336 $340 reversed $52 $-1 #
edge $-1 $230 -64.948271126438186 $337 64.948271126438186 $220 $341 forward 7 unknown #
coedge $-1 $342 $343 $133 $227 forward $344 $-1 #
edge $-1 $231 -64.948271126438186 $345 64.948271126438186 $226 $346 forward 7 unknown #
coedge $-1 $347 $134 $343 $348 reversed $217 $-1 #
coedge $-1 $134 $347 $334 $349 forward $217 $-1 #
vertex $-1 $135 $350 #
vertex $-1 $227 $351 #
straight-curve $-1 64.948271126438186 14.962465494423007 3.5220912332722198 0 1 0 I I #
face $-1 $-1 $352 $30 $-1 $353 forward single #
loop $-1 $-1 $239 $136 #
plane-surface $-1 0 0 7.1842855727484292 0 0 1 1 0 0 forward_v I I I I #
coedge $-1 $354 $355 $238 $356 forward $137 $-1 #
coedge $-1 $238 $139 $141 $244 reversed $85 $-1 #
coedge $-1 $139 $237 $236 $356 reversed $85 $-1 #
coedge $-1 $357 $142 $139 $240 forward $234 $-1 #
edge $-1 $247 -24.946993684920571 $358 -20.070120064862849 $239 $359 forward 7 unknown #
coedge $-1 $141 $140 $354 $360 reversed $55 $-1 #
coedge $-1 $361 $362 $140 $243 forward $352 $-1 #
edge $-1 $363 -21.062362625907816 $246 -12.765329492642351 $242 $364 forward 7 unknown #
edge $-1 $365 0 $247 8.2970331332654634 $237 $366 forward 7 unknown #
coedge $-1 $142 $357 $361 $367 forward $234 $-1 #
vertex $-1 $243 $368 #
vertex $-1 $143 $369 #
straight-curve $-1 -60.071397506380471 -9.9783451403482335 7.1842855727484292 0 1 0 I I #
coedge $-1 $249 $249 $-1 $370 reversed $146 $-1 #
edge $-1 $371 0 $371 6.2831853071796004 $147 $372 forward 7 unknown #
vertex $-1 $150 $373 #
ellipse-curve $-1 -62.509834316409332 -19.956690280696467 3.8280651349460295 -0.80901700255871778 0 0.5877852410284794 0.5877852410284794 0 0.80901700255871778 1 I I #
face $-1 $-1 $374 $32 $-1 $375 reversed single #
loop $-1 $-1 $376 $151 #
plane-surface $-1 0 -27.285539753007036 5.3531884030103249 0 -1 0 0 0 -1 forward_v I I I I #
coedge $-1 $377 $154 $156 $262 forward $94 $-1 #
coedge $-1 $154 $377 $376 $378 forward $94 $-1 #
coedge $-1 $379 $157 $154 $259 forward $152 $-1 #
edge $-1 $265 9.0098325914985473 $380 15.187082304838508 $258 $381 forward 7 unknown #
coedge $-1 $382 $383 $155 $261 forward $374 $-1 #
edge $-1 $384 -89.224167387611985 $264 -83.278681654373827 $260 $385 forward 7 unknown #
edge $-1 $265 118.98016411414019 $384 129.89654225287637 $156 $386 forward 7 unknown #
coedge $-1 $157 $379 $382 $387 forward $152 $-1 #
vertex $-1 $261 $388 #
vertex $-1 $158 $389 #
straight-curve $-1 13.377296607170827 -21.108290039667075 7.1842855727484221 -1 0 0 I I #
coedge $-1 $267 $267 $-1 $390 reversed $161 $-1 #
edge $-1 $391 0 $391 6.2831853071796004 $162 $392 forward 7 unknown #
vertex $-1 $165 $393 #
ellipse-curve $-1 60.370648624971452 -26.050089810339045 4.2115427061293422 0.54463904215088732 0 0.83867056331134215 0.41933528165567108 0 -0.27231952107544366 1 I I #
coedge $-1 $271 $271 $-1 $394 reversed $168 $-1 #
edge $-1 $395 0 $395 6.2831853071796004 $169 $396 forward 7 unknown #
vertex $-1 $172 $397 #
ellipse-curve $-1 60.370648624971452 -24.196914896337056 4.2115427061293422 0.54463904215088732 0 0.83867056331134215 0.41933528165567108 0 -0.27231952107544366 1 I I #
coedge $-1 $275 $275 $-1 $398 reversed $175 $-1 #
edge $-1 $399 0 $399 6.2831853071796004 $176 $400 forward 7 unknown #
vertex $-1 $179 $401 #
ellipse-curve $-1 60.370648624971452 -22.34373998233507 4.2115427061293422 0.54463904215088732 0 0.83867056331134215 0.41933528165567108 0 -0.27231952107544366 1 I I #
face $-1 $-1 $195 $27 $-1 $402 reversed single #
loop $-1 $-1 $295 $180 #
plane-surface $-1 0 32.564322224684986 0 0 -1 0 0 0 -1 forward_v I I I I #
coedge $-1 $403 $293 $296 $404 forward $181 $-1 #
coedge $-1 $299 $183 $184 $287 reversed $113 $-1 #
coedge $-1 $293 $403 $183 $285 reversed $181 $-1 #
edge $-1 $300 -7.1842855727484292 $405 7.1842855727484292 $284 $406 forward 7 unknown #
coedge $-1 $185 $184 $403 $407 forward $73 $-1 #
edge $-1 $291 -64.948271126438186 $405 64.948271126438186 $283 $408 forward 7 unknown #
coedge $-1 $296 $295 $185 $289 reversed $280 $-1 #
edge $-1 $409 -64.948271126438186 $290 64.948271126438186 $288 $410 forward 7 unknown #
vertex $-1 $187 $411 #
vertex $-1 $302 $412 #
straight-curve $-1 64.948271126438186 0 -7.1842855727484292 0 -1 0 I I #
coedge $-1 $282 $284 $188 $294 reversed $181 $-1 #
edge $-1 $297 -32.564322224684986 $300 32.564322224684986 $293 $413 forward 7 unknown #
coedge $-1 $288 $189 $194 $303 forward $280 $-1 #
coedge $-1 $189 $288 $282 $404 reversed $280 $-1 #
vertex $-1 $190 $414 #
straight-curve $-1 0 32.564322224684986 7.1842855727484292 -1 0 0 I I #
coedge $-1 $191 $283 $193 $302 reversed $113 $-1 #
vertex $-1 $294 $415 #
straight-curve $-1 0 -32.564322224684986 7.1842855727484292 1 0 0 I I #
edge $-1 $196 -7.1842855727484292 $291 7.1842855727484292 $193 $416 forward 7 unknown #
edge $-1 $197 -7.1842855727484292 $290 7.1842855727484292 $194 $417 forward 7 unknown #
point $-1 64.948271126438186 -32.564322224684986 7.1842855727484292 #
point $-1 64.948271126438186 32.564322224684986 7.1842855727484292 #
face $-1 $-1 $212 $28 $-1 $418 reversed single #
loop $-1 $-1 $313 $199 #
plane-surface $-1 0 0 7.1842855727484292 0 0 1 1 0 0 forward_v I I I I #
coedge $-1 $419 $202 $207 $318 forward $121 $-1 #
coedge $-1 $202 $419 $420 $421 reversed $121 $-1 #
coedge $-1 $204 $203 $202 $312 reversed $77 $-1 #
edge $-1 $422 -4.5076913712432676 $323 -0.84549703176705737 $202 $423 forward 7 unknown #
coedge $-1 $420 $424 $204 $314 forward $307 $-1 #
edge $-1 $316 -64.948271126438186 $422 64.948271126438186 $313 $425 forward 7 unknown #
coedge $-1 $211 $205 $424 $426 reversed $212 $-1 #
vertex $-1 $206 $427 #
straight-curve $-1 64.948271126438186 -27.285539753007036 2.6765942015051625 0 0 1 I I #
edge $-1 $323 12.323074258584031 $321 17.601856730261979 $309 $428 forward 7 unknown #
coedge $-1 $429 $208 $211 $325 reversed $200 $-1 #
coedge $-1 $208 $429 $419 $430 forward $200 $-1 #
vertex $-1 $209 $431 #
straight-curve $-1 0 -32.564322224684986 3.5220912332722198 1 0 0 I I #
vertex $-1 $318 $432 #
straight-curve $-1 0 -27.285539753007036 3.5220912332722198 1 0 0 I I #
edge $-1 $433 -7.1842855727484292 $213 -3.5220912332722198 $211 $434 forward 7 unknown #
point $-1 64.948271126438186 -32.564322224684986 3.5220912332722198 #
point $-1 64.948271126438186 -27.285539753007036 3.5220912332722198 #
face $-1 $-1 $344 $29 $-1 $435 reversed single #
loop $-1 $-1 $222 $216 #
plane-surface $-1 -64.948271126438186 0 0 1 0 0 0 0 -1 forward_v I I I I #
coedge $-1 $436 $219 $347 $437 forward $129 $-1 #
coedge $-1 $219 $436 $335 $438 forward $129 $-1 #
edge $-1 $338 -64.948271126438186 $439 64.948271126438186 $219 $440 forward 7 unknown #
coedge $-1 $221 $220 $229 $349 reversed $81 $-1 #
coedge $-1 $441 $222 $332 $438 reversed $329 $-1 #
coedge $-1 $222 $441 $224 $340 forward $329 $-1 #
vertex $-1 $340 $442 #
vertex $-1 $223 $443 #
straight-curve $-1 -64.948271126438186 27.28553975300704 2.6765942015051625 0 0 1 I I #
edge $-1 $345 -17.601856730261979 $337 -12.323074258584032 $336 $444 forward 7 unknown #
straight-curve $-1 0 27.28553975300704 3.5220912332722198 -1 0 0 I I #
coedge $-1 $445 $226 $441 $446 reversed $344 $-1 #
coedge $-1 $226 $445 $228 $348 forward $344 $-1 #
loop $-1 $-1 $226 $328 #
vertex $-1 $227 $447 #
straight-curve $-1 0 32.564322224684986 3.5220912332722198 -1 0 0 I I #
coedge $-1 $229 $228 $331 $437 reversed $217 $-1 #
edge $-1 $448 -7.1842855727484292 $231 -3.5220912332722198 $228 $449 forward 7 unknown #
edge $-1 $439 -4.5076913712432676 $230 -0.84549703176705737 $229 $450 forward 7 unknown #
point $-1 64.948271126438186 27.28553975300704 3.5220912332722198 #
point $-1 64.948271126438186 32.564322224684986 3.5220912332722198 #
loop $-1 $-1 $242 $233 #
plane-surface $-1 0 -27.285539753007036 5.3531884030103249 0 -1 0 0 0 -1 forward_v I I I I #
coedge $-1 $451 $236 $241 $360 forward $137 $-1 #
coedge $-1 $236 $451 $357 $452 reversed $137 $-1 #
edge $-1 $358 31.227271974259885 $365 37.939712849864677 $236 $453 forward 7 unknown #
coedge $-1 $245 $239 $355 $452 forward $234 $-1 #
vertex $-1 $452 $454 #
straight-curve $-1 -85.018391191301035 -12.627840808385898 7.1842855727484292 -1 0 0 I I #
edge $-1 $365 2.6494956680376642 $363 17.307194612658805 $354 $455 forward 7 unknown #
coedge $-1 $362 $242 $245 $367 reversed $352 $-1 #
coedge $-1 $242 $361 $451 $456 reversed $352 $-1 #
vertex $-1 $456 $457 #
straight-curve $-1 -52.568125233739721 -27.285539753007036 17.511654175560341 0.5877852410284794 0 0.80901700255871778 I I #
vertex $-1 $360 $458 #
straight-curve $-1 -64.948271126438186 -12.627840808385898 0.47184469714363786 0.5877852410284794 0 0.80901700255871778 I I #
edge $-1 $459 -64.948271126438186 $246 -60.071397506380464 $245 $460 forward 7 unknown #
point $-1 -60.071397506380464 -27.285539753007036 7.1842855727484292 #
point $-1 -60.071397506380464 -12.627840808385898 7.1842855727484292 #
edge $-1 $461 1 $461 0 $249 $-1 forward 7 unknown #
vertex $-1 $250 $462 #
ellipse-curve $-1 -59.899879840153353 -19.956690280696467 1.9318222673084824 -0.80901700255871778 0 0.5877852410284794 0.5877852410284794 0 0.80901700255871778 1 I I #
point $-1 -61.922049075380848 -19.956690280696467 4.6370821375047475 #
loop $-1 $-1 $260 $253 #
plane-surface $-1 64.948271126438186 0 0 -1 0 0 0 0 1 forward_v I I I I #
coedge $-1 $463 $464 $257 $378 reversed $254 $-1 #
coedge $-1 $257 $256 $383 $465 reversed $94 $-1 #
edge $-1 $466 -129.89654225287637 $380 -118.98016411414019 $376 $467 forward 7 unknown #
coedge $-1 $263 $258 $464 $468 forward $152 $-1 #
vertex $-1 $468 $469 #
straight-curve $-1 55.793026123504696 -12.098457448168528 7.1842855727484292 0 -1 0 I I #
coedge $-1 $470 $260 $263 $387 reversed $374 $-1 #
coedge $-1 $260 $470 $377 $465 forward $374 $-1 #
vertex $-1 $261 $471 #
straight-curve $-1 64.948271126438186 -21.108290039667075 90.462967227122249 0 0 1 I I #
straight-curve $-1 -43.992135136977197 -21.108290039667075 71.985528190829115 0.83867056331134215 0 -0.54463904215088732 I I #
edge $-1 $472 -27.285539753007036 $264 -21.108290039667075 $382 $473 forward 7 unknown #
point $-1 64.948271126438186 -21.108290039667075 7.1842855727484292 #
point $-1 55.793026123504703 -21.108290039667075 7.1842855727484221 #
edge $-1 $474 1 $474 0 $267 $-1 forward 7 unknown #
vertex $-1 $268 $475 #
ellipse-curve $-1 59.826009582820561 -26.050089810339045 3.372872142817994 0.54463904215088732 0 0.83867056331134215 0.41933528165567108 0 -0.27231952107544366 1 I I #
point $-1 60.789983906627121 -26.050089810339045 3.9392231850538924 #
edge $-1 $476 1 $476 0 $271 $-1 forward 7 unknown #
vertex $-1 $272 $477 #
ellipse-curve $-1 59.826009582820561 -24.196914896337056 3.372872142817994 0.54463904215088732 0 0.83867056331134215 0.41933528165567108 0 -0.27231952107544366 1 I I #
point $-1 60.789983906627121 -24.196914896337056 3.9392231850538924 #
edge $-1 $478 1 $478 0 $275 $-1 forward 7 unknown #
vertex $-1 $276 $479 #
ellipse-curve $-1 59.826009582820561 -22.34373998233507 3.372872142817994 0.54463904215088732 0 0.83867056331134215 0.41933528165567108 0 -0.27231952107544366 1 I I #
point $-1 60.789983906627121 -22.34373998233507 3.9392231850538924 #
plane-surface $-1 64.948271126438186 0 0 -1 0 0 0 0 1 forward_v I I I I #
coedge $-1 $284 $282 $286 $407 reversed $181 $-1 #
edge $-1 $297 -7.1842855727484292 $409 7.1842855727484292 $296 $480 forward 7 unknown #
vertex $-1 $407 $481 #
straight-curve $-1 -64.948271126438186 -32.564322224684986 0 0 0 -1 I I #
edge $-1 $405 -32.564322224684986 $409 32.564322224684986 $403 $482 forward 7 unknown #
straight-curve $-1 0 -32.564322224684986 -7.1842855727484292 -1 0 0 I I #
vertex $-1 $289 $483 #
straight-curve $-1 0 32.564322224684986 -7.1842855727484292 1 0 0 I I #
point $-1 64.948271126438186 32.564322224684986 -7.1842855727484292 #
point $-1 64.948271126438186 -32.564322224684986 -7.1842855727484292 #
straight-curve $-1 -64.948271126438186 0 7.1842855727484292 0 -1 0 I I #
point $-1 -64.948271126438186 32.564322224684986 7.1842855727484292 #
point $-1 -64.948271126438186 -32.564322224684986 7.1842855727484292 #
straight-curve $-1 64.948271126438186 -32.564322224684986 0 0 0 -1 I I #
straight-curve $-1 64.948271126438186 32.564322224684986 0 0 0 -1 I I #
plane-surface $-1 64.948271126438186 0 0 -1 0 0 0 0 1 forward_v I I I I #
coedge $-1 $310 $309 $320 $430 reversed $121 $-1 #
coedge $-1 $484 $313 $310 $421 forward $307 $-1 #
edge $-1 $422 27.285539753007036 $485 32.564322224684986 $310 $486 forward 7 unknown #
vertex $-1 $421 $487 #
straight-curve $-1 -64.948271126438186 -27.285539753007036 2.6765942015051625 0 0 -1 I I #
coedge $-1 $313 $484 $315 $426 forward $307 $-1 #
straight-curve $-1 0 -27.285539753007036 7.1842855727484292 -1 0 0 I I #
edge $-1 $433 -32.564322224684986 $316 -27.285539753007036 $315 $488 forward 7 unknown #
point $-1 64.948271126438186 -27.285539753007036 7.18428557274843 #
straight-curve $-1 -64.948271126438186 -14.962465494423006 3.5220912332722198 0 -1 0 I I #
coedge $-1 $320 $319 $484 $489 reversed $200 $-1 #
edge $-1 $485 -7.1842855727484292 $321 -3.5220912332722198 $419 $490 forward 7 unknown #
point $-1 -64.948271126438186 -32.564322224684986 3.5220912332722198 #
point $-1 -64.948271126438186 -27.285539753007036 3.5220912332722198 #
vertex $-1 $426 $491 #
straight-curve $-1 64.948271126438186 -32.564322224684986 0 0 0 -1 I I #
plane-surface $-1 0 32.564322224684986 0 0 -1 0 0 0 -1 forward_v I I I I #
coedge $-1 $332 $331 $445 $492 forward $129 $-1 #
edge $-1 $439 27.28553975300704 $448 32.564322224684986 $347 $493 forward 7 unknown #
edge $-1 $494 -32.564322224684986 $338 -27.28553975300704 $335 $495 forward 7 unknown #
vertex $-1 $437 $496 #
straight-curve $-1 0 27.28553975300704 7.1842855727484292 1 0 0 I I #
coedge $-1 $336 $335 $342 $446 forward $329 $-1 #
point $-1 -64.948271126438186 27.28553975300704 3.5220912332722198 #
point $-1 -64.948271126438186 27.28553975300704 7.18428557274843 #
straight-curve $-1 -64.948271126438186 14.962465494423007 3.5220912332722198 0 -1 0 I I #
coedge $-1 $343 $342 $436 $492 reversed $344 $-1 #
edge $-1 $494 -7.1842855727484292 $345 -3.5220912332722198 $342 $497 forward 7 unknown #
point $-1 -64.948271126438186 32.564322224684986 3.5220912332722198 #
vertex $-1 $437 $498 #
straight-curve $-1 64.948271126438186 32.564322224684986 0 0 0 -1 I I #
straight-curve $-1 64.948271126438186 27.28553975300704 2.6765942015051625 0 0 -1 I I #
coedge $-1 $355 $354 $362 $456 forward $137 $-1 #
edge $-1 $358 12.627840808385898 $459 27.285539753007036 $355 $499 forward 7 unknown #
straight-curve $-1 -64.948271126438186 -12.627840808385898 38.411557547008314 0 0 -1 I I #
point $-1 -64.948271126438186 -12.627840808385898 7.1842855727484292 #
straight-curve $-1 -64.948271126438186 -9.9783451403482335 0.47184469714364097 0 -1 0 I I #
edge $-1 $363 -37.939712849864677 $459 -31.227271974259885 $451 $500 forward 7 unknown #
point $-1 -64.948271126438186 -27.285539753007036 0.47184469714363786 #
point $-1 -64.948271126438186 -12.627840808385898 0.47184469714363786 #
vertex $-1 $456 $501 #
straight-curve $-1 0 -27.285539753007036 7.1842855727484292 1 0 0 I I #
vertex $-1 $370 $502 #
point $-1 -59.312094599124876 -19.956690280696467 2.7408392698672004 #
coedge $-1 $464 $376 $470 $503 reversed $254 $-1 #
coedge $-1 $376 $463 $379 $468 reversed $254 $-1 #
edge $-1 $466 -15.187082304838508 $384 -9.0098325914985473 $383 $504 forward 7 unknown #
vertex $-1 $503 $505 #
straight-curve $-1 -43.992135136977197 -27.285539753007036 71.985528190829115 -0.83867056331134215 0 0.54463904215088732 I I #
edge $-1 $380 55.793026123504696 $472 64.948271126438186 $379 $506 forward 7 unknown #
point $-1 55.793026123504696 -27.285539753007036 7.1842855727484292 #
coedge $-1 $383 $382 $463 $503 forward $374 $-1 #
point $-1 64.948271126438186 -21.108290039667075 1.2387998395102642 #
vertex $-1 $387 $507 #
straight-curve $-1 64.948271126438186 0 7.1842855727484292 0 1 0 I I #
vertex $-1 $390 $508 #
point $-1 60.24534486447623 -26.050089810339045 3.1005526217425503 #
vertex $-1 $394 $509 #
point $-1 60.24534486447623 -24.196914896337056 3.1005526217425503 #
vertex $-1 $398 $510 #
point $-1 60.24534486447623 -22.34373998233507 3.1005526217425503 #
straight-curve $-1 -64.948271126438186 32.564322224684986 0 0 0 -1 I I #
point $-1 -64.948271126438186 -32.564322224684986 -7.1842855727484292 #
straight-curve $-1 -64.948271126438186 0 -7.1842855727484292 0 1 0 I I #
point $-1 -64.948271126438186 32.564322224684986 -7.1842855727484292 #
coedge $-1 $424 $420 $429 $489 forward $307 $-1 #
vertex $-1 $421 $511 #
straight-curve $-1 -64.948271126438186 0 7.1842855727484292 0 -1 0 I I #
point $-1 -64.948271126438186 -27.285539753007036 7.18428557274843 #
straight-curve $-1 64.948271126438186 0 7.1842855727484292 0 1 0 I I #
edge $-1 $485 -64.948271126438186 $433 64.948271126438186 $429 $512 forward 7 unknown #
straight-curve $-1 -64.948271126438186 -32.564322224684986 0 0 0 -1 I I #
point $-1 64.948271126438186 -32.564322224684986 7.1842855727484292 #
edge $-1 $448 -64.948271126438186 $494 64.948271126438186 $445 $513 forward 7 unknown #
straight-curve $-1 64.948271126438186 0 7.1842855727484292 0 1 0 I I #
vertex $-1 $492 $514 #
straight-curve $-1 -64.948271126438186 0 7.1842855727484292 0 -1 0 I I #
point $-1 64.948271126438186 27.28553975300704 7.18428557274843 #
straight-curve $-1 -64.948271126438186 32.564322224684986 0 0 0 -1 I I #
point $-1 64.948271126438186 32.564322224684986 7.1842855727484292 #
straight-curve $-1 -64.948271126438186 0 7.1842855727484292 0 -1 0 I I #
straight-curve $-1 -64.948271126438186 -27.285539753007036 38.411557547008314 0 0 1 I I #
point $-1 -64.948271126438186 -27.285539753007036 7.18428557274843 #
point $-1 -59.090862837594635 -19.956690280696467 1.3440370262800032 #
edge $-1 $472 83.278681654373813 $466 89.224167387611985 $470 $515 forward 7 unknown #
straight-curve $-1 64.948271126438186 -12.098457448168528 1.2387998395102642 0 1 0 I I #
point $-1 64.948271126438186 -27.285539753007036 1.2387998395102642 #
straight-curve $-1 0 -27.285539753007036 7.1842855727484292 1 0 0 I I #
point $-1 64.948271126438186 -27.285539753007036 7.18428557274843 #
point $-1 59.553690061745115 -26.050089810339045 2.9535368611623225 #
point $-1 59.553690061745115 -24.196914896337056 2.9535368611623225 #
point $-1 59.553690061745115 -22.34373998233507 2.9535368611623225 #
point $-1 -64.948271126438186 -32.564322224684986 7.1842855727484292 #
straight-curve $-1 0 -32.564322224684986 7.1842855727484292 1 0 0 I I #
straight-curve $-1 0 32.564322224684986 7.1842855727484292 -1 0 0 I I #
point $-1 -64.948271126438186 32.564322224684986 7.1842855727484292 #
straight-curve $-1 64.948271126438186 -27.285539753007036 90.462967227122249 0 0 -1 I I #
End-of-ACIS-data 