500 0 11 0           
7 Unknown 11 ACIS 5.0 NT 24 Fri Mar 26 00:48:51 1999 
-1 9.9999999999999995e-007 1e-010 
body $-1 $11 $-1 $12 #
body $-1 $13 $-1 $14 #
body $-1 $15 $-1 $16 #
body $-1 $17 $-1 $18 #
body $-1 $19 $-1 $20 #
body $-1 $21 $-1 $22 #
body $-1 $23 $-1 $24 #
body $-1 $25 $-1 $26 #
body $-1 $27 $-1 $28 #
body $-1 $29 $-1 $30 #
body $-1 $31 $-1 $32 #
lump $-1 $-1 $33 $0 #
transform $-1 1 0 0 0 1 0 0 0 1 44.445936460463273 22.046633144936667 7.2233051379160917 1 rotate no_reflect no_shear #
lump $-1 $-1 $34 $1 #
transform $-1 1 0 0 0 1 0 0 0 1 44.445936460463273 22.046633144936667 7.2233051379160917 1 rotate no_reflect no_shear #
lump $-1 $-1 $35 $2 #
transform $-1 1 0 0 0 1 0 0 0 1 44.445936460463273 22.046633144936667 7.2233051379160917 1 rotate no_reflect no_shear #
lump $-1 $-1 $36 $3 #
transform $-1 1 0 0 0 1 0 0 0 1 44.445936460463273 22.046633144936667 7.2233051379160917 1 rotate no_reflect no_shear #
lump $-1 $-1 $37 $4 #
transform $-1 1 0 0 0 1 0 0 0 1 44.445936460463273 22.046633144936667 7.2233051379160917 1 rotate no_reflect no_shear #
lump $-1 $-1 $38 $5 #
transform $-1 1 0 0 0 1 0 0 0 1 44.445936460463273 22.046633144936667 7.2233051379160917 1 rotate no_reflect no_shear #
lump $-1 $-1 $39 $6 #
transform $-1 1 0 0 0 1 0 0 0 1 44.445936460463273 22.046633144936667 7.2233051379160917 1 rotate no_reflect no_shear #
lump $-1 $-1 $40 $7 #
transform $-1 1 0 0 0 1 0 0 0 1 44.445936460463273 22.046633144936667 7.2233051379160917 1 rotate no_reflect no_shear #
lump $-1 $-1 $41 $8 #
transform $-1 1 0 0 0 1 0 0 0 1 44.445936460463273 22.046633144936667 7.2233051379160917 1 rotate no_reflect no_shear #
lump $-1 $-1 $42 $9 #
transform $-1 1 0 0 0 1 0 0 0 1 44.445936460463273 22.046633144936667 7.2233051379160917 1 rotate no_reflect no_shear #
lump $-1 $-1 $43 $10 #
transform $-1 1 0 0 0 1 0 0 0 1 44.445936460463273 22.046633144936667 7.2233051379160917 1 rotate no_reflect no_shear #
shell $-1 $-1 $-1 $44 $-1 $11 #
shell $-1 $-1 $-1 $45 $-1 $13 #
shell $-1 $-1 $-1 $46 $-1 $15 #
shell $-1 $-1 $-1 $47 $-1 $17 #
shell $-1 $-1 $-1 $48 $-1 $19 #
shell $-1 $-1 $-1 $49 $-1 $21 #
shell $-1 $-1 $-1 $50 $-1 $23 #
shell $-1 $-1 $-1 $51 $-1 $25 #
shell $-1 $-1 $-1 $52 $-1 $27 #
shell $-1 $-1 $-1 $53 $-1 $29 #
shell $-1 $-1 $-1 $54 $-1 $31 #
face $-1 $55 $56 $33 $-1 $57 forward single #
face $-1 $58 $59 $34 $-1 $60 reversed single #
face $-1 $61 $62 $35 $-1 $63 reversed single #
face $-1 $64 $65 $36 $-1 $66 forward single #
face $-1 $67 $68 $37 $-1 $69 forward single #
face $-1 $70 $71 $38 $-1 $72 reversed single #
face $-1 $73 $74 $39 $-1 $75 forward single #
face $-1 $76 $77 $40 $-1 $78 forward single #
face $-1 $79 $80 $41 $-1 $81 reversed single #
face $-1 $82 $83 $42 $-1 $84 forward single #
face $-1 $85 $86 $43 $-1 $87 forward single #
face $-1 $88 $89 $33 $-1 $90 reversed single #
loop $-1 $-1 $91 $44 #
plane-surface $-1 0 0 7.2233051379160917 0 0 1 1 0 0 forward_v I I I I #
face $-1 $92 $93 $34 $-1 $94 reversed single #
loop $-1 $-1 $95 $45 #
plane-surface $-1 0 -18.973449349291123 4.2233051379160917 0 0 1 1 0 0 forward_v I I I I #
face $-1 $96 $97 $35 $-1 $98 reversed single #
loop $-1 $-1 $99 $46 #
plane-surface $-1 -95.43222080812464 -10.588507658723731 75.08479164121583 0 1 0 -0.57357644374324357 0 0.81915203911291934 forward_v I I I I #
face $-1 $100 $101 $36 $-1 $102 forward single #
loop $-1 $103 $104 $47 #
cone-surface $-1 -40.512601651410193 -8.1533726401654576 4.1812722389830679 0.57357644374324357 0 -0.81915203911291934 0.40957601955645967 0 0.28678822187162178 1 I I 0 1 0.5 forward I I I I #
face $-1 $105 $106 $37 $-1 $107 forward single #
loop $-1 $108 $109 $48 #
cone-surface $-1 -40.512601651410193 -4.5006701123280486 4.1812722389830679 0.57357644374324357 0 -0.81915203911291934 0.40957601955645967 0 0.28678822187162178 1 I I 0 1 0.5 forward I I I I #
face $-1 $110 $111 $38 $-1 $112 reversed single #
loop $-1 $-1 $113 $49 #
plane-surface $-1 -95.43222080812464 8.3849416905673877 75.08479164121583 0 1 0 -0.57357644374324357 0 0.81915203911291934 forward_v I I I I #
face $-1 $114 $115 $39 $-1 $116 forward single #
loop $-1 $117 $118 $50 #
cone-surface $-1 -40.512601651410193 10.820076709125669 4.1812722389830679 0.57357644374324357 0 -0.81915203911291934 0.40957601955645967 0 0.28678822187162178 1 I I 0 1 0.5 forward I I I I #
face $-1 $119 $120 $40 $-1 $121 forward single #
loop $-1 $122 $123 $51 #
cone-surface $-1 -40.512601651410193 14.472779236963074 4.1812722389830679 0.57357644374324357 0 -0.81915203911291934 0.40957601955645967 0 0.28678822187162178 1 I I 0 1 0.5 forward I I I I #
face $-1 $124 $125 $41 $-1 $126 reversed single #
loop $-1 $-1 $127 $52 #
plane-surface $-1 18.308923846721406 -8.7130984974861185 126.3628817826724 0 -1 0 -0.54463904215088732 0 -0.83867056331134215 forward_v I I I I #
face $-1 $128 $129 $42 $-1 $130 forward single #
loop $-1 $131 $132 $53 #
cone-surface $-1 40.790800405198752 -13.846789251885733 4.2175564031188868 -0.54463904215088732 0 -0.83867056331134215 0.83867056331134215 0 -0.54463904215088732 1 I I 0 1 1 forward I I I I #
face $-1 $133 $134 $43 $-1 $135 forward single #
loop $-1 $136 $137 $54 #
cone-surface $-1 40.790800405198752 -10.766574799245964 4.2175564031188868 -0.54463904215088732 0 -0.83867056331134215 0.83867056331134215 0 -0.54463904215088732 1 I I 0 1 1 forward I I I I #
face $-1 $138 $139 $33 $-1 $140 reversed single #
loop $-1 $-1 $141 $55 #
plane-surface $-1 0 0 -7.2233051379160917 0 0 1 1 0 0 forward_v I I I I #
coedge $-1 $142 $143 $144 $145 forward $56 $-1 #
face $-1 $146 $147 $34 $-1 $148 reversed single #
loop $-1 $-1 $149 $58 #
plane-surface $-1 0 -15.900265553645578 5.7233051379160917 0 -1 0 0 0 -1 forward_v I I I I #
coedge $-1 $150 $151 $152 $153 reversed $59 $-1 #
face $-1 $154 $155 $35 $-1 $156 reversed single #
loop $-1 $-1 $157 $61 #
plane-surface $-1 -44.445936460463258 -6.3270213762467549 2.2688326774723464 -0.57357644374324357 0 0.81915203911291934 0.81915203911291934 0 0.57357644374324357 forward_v I I I I #
coedge $-1 $158 $159 $160 $161 reversed $62 $-1 #
face $-1 $-1 $162 $36 $-1 $163 forward single #
loop $-1 $164 $165 $64 #
cone-surface $-1 -39.973732647891318 -8.1533726401654576 3.4116875604936761 0.57357644374324357 0 -0.81915203911291934 0.20478800977822983 0 0.14339411093581089 1 I I -0.70710678118654746 0.70710678118654746 0.25 forward I I I I #
loop $-1 $-1 $166 $47 #
coedge $-1 $104 $104 $167 $168 reversed $65 $-1 #
face $-1 $-1 $169 $37 $-1 $170 forward single #
loop $-1 $171 $172 $67 #
cone-surface $-1 -39.973732647891318 -4.5006701123280486 3.4116875604936761 0.57357644374324357 0 -0.81915203911291934 0.20478800977822983 0 0.14339411093581089 1 I I -0.70710678118654746 0.70710678118654746 0.25 forward I I I I #
loop $-1 $-1 $173 $48 #
coedge $-1 $109 $109 $174 $175 reversed $68 $-1 #
face $-1 $176 $177 $38 $-1 $178 reversed single #
loop $-1 $-1 $179 $70 #
plane-surface $-1 -44.445936460463258 12.646427973044364 2.2688326774723464 -0.57357644374324357 0 0.81915203911291934 0.81915203911291934 0 0.57357644374324357 forward_v I I I I #
coedge $-1 $180 $181 $182 $183 reversed $71 $-1 #
face $-1 $-1 $184 $39 $-1 $185 forward single #
loop $-1 $186 $187 $73 #
cone-surface $-1 -39.973732647891318 10.820076709125669 3.4116875604936761 0.57357644374324357 0 -0.81915203911291934 0.20478800977822983 0 0.14339411093581089 1 I I -0.70710678118654746 0.70710678118654746 0.25 forward I I I I #
loop $-1 $-1 $188 $50 #
coedge $-1 $118 $118 $189 $190 reversed $74 $-1 #
face $-1 $-1 $191 $40 $-1 $192 forward single #
loop $-1 $193 $194 $76 #
cone-surface $-1 -39.973732647891318 14.472779236963074 3.4116875604936761 0.57357644374324357 0 -0.81915203911291934 0.20478800977822983 0 0.14339411093581089 1 I I -0.70710678118654746 0.70710678118654746 0.25 forward I I I I #
loop $-1 $-1 $195 $51 #
coedge $-1 $123 $123 $196 $197 reversed $77 $-1 #
face $-1 $198 $199 $41 $-1 $200 forward single #
loop $-1 $-1 $201 $79 #
plane-surface $-1 -30.105060675930424 -12.306682025565848 51.811884646278699 0.54463904215088732 0 0.83867056331134215 0.83867056331134215 0 -0.54463904215088732 forward_v I I I I #
coedge $-1 $202 $203 $204 $205 reversed $80 $-1 #
face $-1 $-1 $206 $42 $-1 $207 forward single #
loop $-1 $208 $209 $82 #
cone-surface $-1 39.808648350947408 -13.846789251885733 2.7051748938106224 -0.54463904215088732 0 -0.83867056331134215 0.41933528165567108 0 -0.27231952107544366 1 I I -0.70710678118654746 0.70710678118654746 0.5 forward I I I I #
loop $-1 $-1 $210 $53 #
coedge $-1 $132 $132 $211 $212 reversed $83 $-1 #
face $-1 $-1 $213 $43 $-1 $214 forward single #
loop $-1 $215 $216 $85 #
cone-surface $-1 39.808648350947408 -10.766574799245964 2.7051748938106224 -0.54463904215088732 0 -0.83867056331134215 0.41933528165567108 0 -0.27231952107544366 1 I I -0.70710678118654746 0.70710678118654746 0.5 forward I I I I #
loop $-1 $-1 $217 $54 #
coedge $-1 $137 $137 $218 $219 reversed $86 $-1 #
face $-1 $220 $221 $33 $-1 $222 reversed single #
loop $-1 $-1 $223 $88 #
plane-surface $-1 0 -22.046633144936667 0 0 1 0 0 0 1 forward_v I I I I #
coedge $-1 $224 $225 $226 $227 forward $89 $-1 #
coedge $-1 $228 $91 $229 $230 forward $56 $-1 #
coedge $-1 $91 $228 $231 $232 forward $56 $-1 #
coedge $-1 $233 $234 $91 $145 reversed $235 $-1 #
edge $-1 $236 -22.046633144936667 $237 22.046633144936667 $144 $238 forward 7 unknown #
face $-1 $239 $240 $34 $-1 $241 reversed single #
loop $-1 $-1 $242 $92 #
plane-surface $-1 -44.445936460463273 0 0 1 0 0 0 0 -1 forward_v I I I I #
coedge $-1 $243 $244 $245 $246 reversed $93 $-1 #
coedge $-1 $247 $95 $248 $249 reversed $59 $-1 #
coedge $-1 $95 $247 $243 $250 forward $59 $-1 #
coedge $-1 $245 $251 $95 $153 forward $252 $-1 #
edge $-1 $253 -12.559908470291106 $254 -6.413540879000017 $152 $255 forward 7 unknown #
face $-1 $256 $257 $35 $-1 $258 forward single #
loop $-1 $-1 $259 $96 #
plane-surface $-1 -95.43222080812464 -2.0655350937697783 75.08479164121583 0 -1 0 0.57357644374324357 0 -0.81915203911291934 forward_v I I I I #
coedge $-1 $260 $261 $262 $263 reversed $97 $-1 #
coedge $-1 $159 $99 $264 $265 reversed $62 $-1 #
coedge $-1 $99 $158 $260 $266 reversed $62 $-1 #
coedge $-1 $262 $267 $99 $161 forward $257 $-1 #
edge $-1 $268 3.2701739435990476 $269 10.345893776539121 $160 $270 forward 7 unknown #
loop $-1 $-1 $167 $100 #
plane-surface $-1 -44.445936460463258 -6.3270213762467549 2.2688326774723464 -0.57357644374324357 0 0.81915203911291934 0.81915203911291934 0 0.57357644374324357 forward_v I I I I #
loop $-1 $-1 $271 $64 #
coedge $-1 $165 $165 $166 $272 reversed $101 $-1 #
coedge $-1 $166 $166 $165 $272 forward $103 $-1 #
coedge $-1 $167 $167 $104 $168 forward $162 $-1 #
edge $-1 $273 0 $273 6.2831853071796004 $167 $274 forward 7 unknown #
loop $-1 $-1 $174 $105 #
plane-surface $-1 -44.445936460463258 -6.3270213762467549 2.2688326774723464 -0.57357644374324357 0 0.81915203911291934 0.81915203911291934 0 0.57357644374324357 forward_v I I I I #
loop $-1 $-1 $275 $67 #
coedge $-1 $172 $172 $173 $276 reversed $106 $-1 #
coedge $-1 $173 $173 $172 $276 forward $108 $-1 #
coedge $-1 $174 $174 $109 $175 forward $169 $-1 #
edge $-1 $277 0 $277 6.2831853071796004 $174 $278 forward 7 unknown #
face $-1 $279 $280 $38 $-1 $281 forward single #
loop $-1 $-1 $282 $110 #
plane-surface $-1 -95.43222080812464 16.907914255521341 75.08479164121583 0 -1 0 0.57357644374324357 0 -0.81915203911291934 forward_v I I I I #
coedge $-1 $283 $284 $285 $286 reversed $111 $-1 #
coedge $-1 $181 $113 $287 $288 reversed $71 $-1 #
coedge $-1 $113 $180 $283 $289 reversed $71 $-1 #
coedge $-1 $285 $290 $113 $183 forward $280 $-1 #
edge $-1 $291 3.2701739435990476 $292 10.345893776539121 $182 $293 forward 7 unknown #
loop $-1 $-1 $189 $114 #
plane-surface $-1 -44.445936460463258 12.646427973044364 2.2688326774723464 -0.57357644374324357 0 0.81915203911291934 0.81915203911291934 0 0.57357644374324357 forward_v I I I I #
loop $-1 $-1 $294 $73 #
coedge $-1 $187 $187 $188 $295 reversed $115 $-1 #
coedge $-1 $188 $188 $187 $295 forward $117 $-1 #
coedge $-1 $189 $189 $118 $190 forward $184 $-1 #
edge $-1 $296 0 $296 6.2831853071796004 $189 $297 forward 7 unknown #
loop $-1 $-1 $196 $119 #
plane-surface $-1 -44.445936460463258 12.646427973044364 2.2688326774723464 -0.57357644374324357 0 0.81915203911291934 0.81915203911291934 0 0.57357644374324357 forward_v I I I I #
loop $-1 $-1 $298 $76 #
coedge $-1 $194 $194 $195 $299 reversed $120 $-1 #
coedge $-1 $195 $195 $194 $299 forward $122 $-1 #
coedge $-1 $196 $196 $123 $197 forward $191 $-1 #
edge $-1 $300 0 $300 6.2831853071796004 $196 $301 forward 7 unknown #
face $-1 $302 $303 $41 $-1 $304 forward single #
loop $-1 $-1 $305 $124 #
plane-surface $-1 0 -15.900265553645578 5.7233051379160917 0 -1 0 0 0 -1 forward_v I I I I #
coedge $-1 $306 $307 $308 $309 reversed $125 $-1 #
coedge $-1 $203 $127 $310 $311 reversed $80 $-1 #
coedge $-1 $127 $202 $306 $312 reversed $80 $-1 #
coedge $-1 $308 $313 $127 $205 forward $303 $-1 #
edge $-1 $314 -35.291474537102573 $315 -29.400867492925318 $204 $316 forward 7 unknown #
loop $-1 $-1 $211 $128 #
plane-surface $-1 -30.105060675930424 -12.306682025565848 51.811884646278699 0.54463904215088732 0 0.83867056331134215 0.83867056331134215 0 -0.54463904215088732 forward_v I I I I #
loop $-1 $-1 $317 $82 #
coedge $-1 $209 $209 $210 $318 reversed $129 $-1 #
coedge $-1 $210 $210 $209 $318 forward $131 $-1 #
coedge $-1 $211 $211 $132 $212 forward $206 $-1 #
edge $-1 $319 0 $319 6.2831853071796004 $211 $320 forward 7 unknown #
loop $-1 $-1 $218 $133 #
plane-surface $-1 -30.105060675930424 -12.306682025565848 51.811884646278699 0.54463904215088732 0 0.83867056331134215 0.83867056331134215 0 -0.54463904215088732 forward_v I I I I #
loop $-1 $-1 $321 $85 #
coedge $-1 $216 $216 $217 $322 reversed $134 $-1 #
coedge $-1 $217 $217 $216 $322 forward $136 $-1 #
coedge $-1 $218 $218 $137 $219 forward $213 $-1 #
edge $-1 $323 0 $323 6.2831853071796004 $218 $324 forward 7 unknown #
face $-1 $325 $326 $33 $-1 $327 reversed single #
loop $-1 $-1 $328 $138 #
plane-surface $-1 -44.445936460463273 0 0 1 0 0 0 0 -1 forward_v I I I I #
coedge $-1 $329 $231 $330 $331 forward $139 $-1 #
coedge $-1 $332 $141 $329 $333 forward $89 $-1 #
coedge $-1 $141 $332 $334 $335 forward $89 $-1 #
coedge $-1 $234 $233 $141 $227 reversed $235 $-1 #
edge $-1 $336 -22.046633144936667 $337 22.046633144936667 $226 $338 forward 7 unknown #
coedge $-1 $143 $142 $339 $340 forward $56 $-1 #
coedge $-1 $341 $342 $142 $230 reversed $326 $-1 #
edge $-1 $237 -44.445936460463273 $343 44.445936460463273 $229 $344 forward 7 unknown #
coedge $-1 $223 $345 $143 $232 reversed $139 $-1 #
edge $-1 $346 -44.445936460463273 $236 44.445936460463273 $231 $347 forward 7 unknown #
coedge $-1 $226 $144 $345 $348 forward $235 $-1 #
coedge $-1 $144 $226 $341 $349 reversed $235 $-1 #
loop $-1 $-1 $233 $325 #
vertex $-1 $145 $350 #
vertex $-1 $145 $351 #
straight-curve $-1 44.445936460463273 0 7.2233051379160917 0 1 0 I I #
face $-1 $352 $353 $34 $-1 $354 forward single #
loop $-1 $-1 $248 $146 #
plane-surface $-1 0 -22.046633144936667 0 0 1 0 0 0 1 forward_v I I I I #
coedge $-1 $355 $356 $357 $358 forward $147 $-1 #
coedge $-1 $357 $149 $151 $250 reversed $93 $-1 #
coedge $-1 $149 $357 $359 $360 reversed $93 $-1 #
coedge $-1 $361 $152 $149 $246 forward $252 $-1 #
edge $-1 $254 1.3616525689580459 $362 4.3616525689580463 $245 $363 forward 7 unknown #
coedge $-1 $151 $150 $355 $364 reversed $59 $-1 #
coedge $-1 $365 $366 $150 $249 forward $240 $-1 #
edge $-1 $367 -44.445936460463273 $253 44.445936460463273 $248 $368 forward 7 unknown #
edge $-1 $369 -44.445936460463273 $254 44.445936460463273 $243 $370 forward 7 unknown #
coedge $-1 $152 $361 $365 $371 forward $252 $-1 #
loop $-1 $-1 $245 $352 #
vertex $-1 $249 $372 #
vertex $-1 $153 $373 #
straight-curve $-1 44.445936460463273 -9.4867246746455614 4.2233051379160917 0 1 0 I I #
face $-1 $-1 $374 $35 $-1 $375 reversed single #
loop $-1 $-1 $160 $154 #
plane-surface $-1 0 0 7.2233051379160917 0 0 1 1 0 0 forward_v I I I I #
coedge $-1 $376 $377 $378 $379 reversed $155 $-1 #
coedge $-1 $380 $157 $159 $266 forward $97 $-1 #
coedge $-1 $157 $380 $376 $381 forward $97 $-1 #
coedge $-1 $378 $160 $157 $263 forward $257 $-1 #
edge $-1 $269 -7.424996970600354 $382 1.0979755943535991 $262 $383 forward 7 unknown #
coedge $-1 $384 $385 $158 $265 forward $374 $-1 #
edge $-1 $386 -35.273563143135576 $268 -30.319090682691822 $264 $387 forward 7 unknown #
edge $-1 $269 -8.6378590238297352 $386 1.7244671030687178e-014 $159 $388 forward 7 unknown #
coedge $-1 $160 $378 $384 $389 forward $257 $-1 #
vertex $-1 $265 $390 #
vertex $-1 $161 $391 #
straight-curve $-1 -47.71611040406232 -10.588507658723731 7.2233051379160926 1 0 0 I I #
coedge $-1 $271 $271 $-1 $392 reversed $164 $-1 #
edge $-1 $393 0 $393 6.2831853071796004 $165 $394 forward 7 unknown #
vertex $-1 $168 $395 #
ellipse-curve $-1 -40.908076543993239 -8.1533726401654576 4.7460689076942097 -0.57357644374324357 0 0.81915203911291934 0.40957601955645967 0 0.28678822187162178 1 I I #
coedge $-1 $275 $275 $-1 $396 reversed $171 $-1 #
edge $-1 $397 0 $397 6.2831853071796004 $172 $398 forward 7 unknown #
vertex $-1 $175 $399 #
ellipse-curve $-1 -40.908076543993239 -4.5006701123280486 4.7460689076942097 -0.57357644374324357 0 0.81915203911291934 0.40957601955645967 0 0.28678822187162178 1 I I #
face $-1 $-1 $400 $38 $-1 $401 reversed single #
loop $-1 $-1 $182 $176 #
plane-surface $-1 0 0 7.2233051379160917 0 0 1 1 0 0 forward_v I I I I #
coedge $-1 $402 $403 $404 $405 reversed $177 $-1 #
coedge $-1 $406 $179 $181 $289 forward $111 $-1 #
coedge $-1 $179 $406 $402 $407 forward $111 $-1 #
coedge $-1 $404 $182 $179 $286 forward $280 $-1 #
edge $-1 $292 2.0617277040452056 $408 10.584700268999159 $285 $409 forward 7 unknown #
coedge $-1 $410 $411 $180 $288 forward $400 $-1 #
edge $-1 $412 -35.273563143135576 $291 -30.319090682691822 $287 $413 forward 7 unknown #
edge $-1 $292 -8.6378590238297352 $412 1.7244671030687178e-014 $181 $414 forward 7 unknown #
coedge $-1 $182 $404 $410 $415 forward $280 $-1 #
vertex $-1 $183 $416 #
vertex $-1 $183 $417 #
straight-curve $-1 -47.71611040406232 8.3849416905673877 7.2233051379160926 1 0 0 I I #
coedge $-1 $294 $294 $-1 $418 reversed $186 $-1 #
edge $-1 $419 0 $419 6.2831853071796004 $187 $420 forward 7 unknown #
vertex $-1 $190 $421 #
ellipse-curve $-1 -40.908076543993239 10.820076709125669 4.7460689076942097 -0.57357644374324357 0 0.81915203911291934 0.40957601955645967 0 0.28678822187162178 1 I I #
coedge $-1 $298 $298 $-1 $422 reversed $193 $-1 #
edge $-1 $423 0 $423 6.2831853071796004 $194 $424 forward 7 unknown #
vertex $-1 $197 $425 #
ellipse-curve $-1 -40.908076543993239 14.472779236963074 4.7460689076942097 -0.57357644374324357 0 0.81915203911291934 0.40957601955645967 0 0.28678822187162178 1 I I #
face $-1 $-1 $426 $41 $-1 $427 reversed single #
loop $-1 $-1 $308 $198 #
plane-surface $-1 0 0 7.2233051379160917 0 0 1 1 0 0 forward_v I I I I #
coedge $-1 $428 $429 $307 $430 reversed $199 $-1 #
coedge $-1 $431 $201 $203 $312 forward $125 $-1 #
coedge $-1 $201 $431 $305 $430 forward $125 $-1 #
coedge $-1 $432 $204 $201 $309 forward $303 $-1 #
edge $-1 $315 2.5597574847031943 $433 9.7469245408626541 $308 $434 forward 7 unknown #
coedge $-1 $435 $436 $202 $311 forward $426 $-1 #
edge $-1 $437 -59.783540767709333 $314 -55.958135753420109 $310 $438 forward 7 unknown #
edge $-1 $315 81.868129270118956 $437 88.891872920926545 $203 $439 forward 7 unknown #
coedge $-1 $204 $432 $435 $440 forward $303 $-1 #
vertex $-1 $311 $441 #
vertex $-1 $205 $442 #
straight-curve $-1 9.154461923360703 -8.7130984974861185 7.2233051379160926 -1 0 0 I I #
coedge $-1 $317 $317 $-1 $443 reversed $208 $-1 #
edge $-1 $444 0 $444 6.2831853071796004 $209 $445 forward 7 unknown #
vertex $-1 $212 $446 #
ellipse-curve $-1 41.50063293837465 -13.846789251885733 5.3106026307714789 0.54463904215088732 0 0.83867056331134215 0.83867056331134215 0 -0.54463904215088732 1 I I #
coedge $-1 $321 $321 $-1 $447 reversed $215 $-1 #
edge $-1 $448 0 $448 6.2831853071796004 $216 $449 forward 7 unknown #
vertex $-1 $219 $450 #
ellipse-curve $-1 41.50063293837465 -10.766574799245964 5.3106026307714789 0.54463904215088732 0 0.83867056331134215 0.83867056331134215 0 -0.54463904215088732 1 I I #
face $-1 $-1 $235 $33 $-1 $451 reversed single #
loop $-1 $-1 $341 $220 #
plane-surface $-1 0 22.046633144936667 0 0 -1 0 0 0 -1 forward_v I I I I #
coedge $-1 $452 $339 $342 $453 forward $221 $-1 #
coedge $-1 $345 $223 $224 $333 reversed $139 $-1 #
coedge $-1 $339 $452 $223 $331 reversed $221 $-1 #
edge $-1 $346 -7.2233051379160917 $454 7.2233051379160917 $330 $455 forward 7 unknown #
coedge $-1 $225 $224 $452 $456 forward $89 $-1 #
edge $-1 $337 -44.445936460463273 $454 44.445936460463273 $329 $457 forward 7 unknown #
coedge $-1 $342 $341 $225 $335 reversed $326 $-1 #
edge $-1 $458 -44.445936460463273 $336 44.445936460463273 $334 $459 forward 7 unknown #
vertex $-1 $227 $460 #
vertex $-1 $348 $461 #
straight-curve $-1 44.445936460463273 0 -7.2233051379160917 0 -1 0 I I #
coedge $-1 $328 $330 $228 $340 reversed $221 $-1 #
edge $-1 $343 -22.046633144936667 $346 22.046633144936667 $339 $462 forward 7 unknown #
coedge $-1 $334 $229 $234 $349 forward $326 $-1 #
coedge $-1 $229 $334 $328 $453 reversed $326 $-1 #
vertex $-1 $230 $463 #
straight-curve $-1 0 22.046633144936667 7.2233051379160917 -1 0 0 I I #
coedge $-1 $231 $329 $233 $348 reversed $139 $-1 #
vertex $-1 $340 $464 #
straight-curve $-1 0 -22.046633144936667 7.2233051379160917 1 0 0 I I #
edge $-1 $236 -7.2233051379160917 $337 7.2233051379160917 $233 $465 forward 7 unknown #
edge $-1 $237 -7.2233051379160917 $336 7.2233051379160917 $234 $466 forward 7 unknown #
point $-1 44.445936460463273 -22.046633144936667 7.2233051379160917 #
point $-1 44.445936460463273 22.046633144936667 7.2233051379160917 #
face $-1 $-1 $252 $34 $-1 $467 reversed single #
loop $-1 $-1 $359 $239 #
plane-surface $-1 0 0 7.2233051379160917 0 0 1 1 0 0 forward_v I I I I #
coedge $-1 $468 $242 $247 $364 forward $147 $-1 #
coedge $-1 $242 $468 $469 $470 reversed $147 $-1 #
coedge $-1 $244 $243 $242 $358 reversed $93 $-1 #
edge $-1 $471 -4.3616525689580463 $369 -1.3616525689580459 $242 $472 forward 7 unknown #
coedge $-1 $469 $473 $244 $360 forward $353 $-1 #
edge $-1 $362 -44.445936460463273 $471 44.445936460463273 $359 $474 forward 7 unknown #
coedge $-1 $251 $245 $473 $475 reversed $252 $-1 #
vertex $-1 $246 $476 #
straight-curve $-1 44.445936460463273 -15.900265553645578 2.8616525689580459 0 0 1 I I #
edge $-1 $369 6.413540879000017 $367 12.559908470291106 $355 $477 forward 7 unknown #
coedge $-1 $478 $248 $251 $371 reversed $240 $-1 #
coedge $-1 $248 $478 $468 $479 forward $240 $-1 #
vertex $-1 $249 $480 #
straight-curve $-1 0 -22.046633144936667 4.2233051379160917 1 0 0 I I #
vertex $-1 $364 $481 #
straight-curve $-1 0 -15.900265553645578 4.2233051379160917 1 0 0 I I #
edge $-1 $482 -7.2233051379160917 $253 -4.2233051379160917 $251 $483 forward 7 unknown #
point $-1 44.445936460463273 -22.046633144936667 4.2233051379160917 #
point $-1 44.445936460463273 -15.900265553645578 4.2233051379160917 #
loop $-1 $-1 $264 $256 #
plane-surface $-1 -44.445936460463273 0 0 1 0 0 0 0 -1 forward_v I I I I #
coedge $-1 $377 $259 $261 $381 reversed $155 $-1 #
coedge $-1 $259 $376 $484 $485 reversed $155 $-1 #
coedge $-1 $267 $262 $259 $379 forward $257 $-1 #
edge $-1 $382 -10.345893776539121 $486 -3.2701739435990476 $378 $487 forward 7 unknown #
coedge $-1 $261 $260 $385 $488 reversed $97 $-1 #
edge $-1 $489 -1.7244671030687178e-014 $382 8.6378590238297352 $376 $490 forward 7 unknown #
vertex $-1 $263 $491 #
straight-curve $-1 -37.370216627523199 -3.1635106881233774 7.2233051379160926 0 1 0 I I #
coedge $-1 $484 $264 $267 $389 reversed $374 $-1 #
coedge $-1 $264 $484 $380 $488 forward $374 $-1 #
vertex $-1 $265 $492 #
straight-curve $-1 -44.445936460463273 -10.588507658723731 37.542395820607915 0 0 1 I I #
straight-curve $-1 -44.445936460463258 -10.588507658723731 2.2688326774723464 -0.81915203911291934 0 -0.57357644374324357 I I #
edge $-1 $486 2.0655350937697783 $268 10.588507658723731 $384 $493 forward 7 unknown #
point $-1 -44.445936460463273 -10.588507658723731 7.2233051379160917 #
point $-1 -37.370216627523199 -10.588507658723731 7.2233051379160917 #
edge $-1 $494 1 $494 0 $271 $-1 forward 7 unknown #
vertex $-1 $272 $495 #
ellipse-curve $-1 -40.117126758827126 -8.1533726401654576 3.616475570271906 -0.57357644374324357 0 0.81915203911291934 0.40957601955645967 0 0.28678822187162178 1 I I #
point $-1 -40.498500524436793 -8.1533726401654576 5.0328571295658504 #
edge $-1 $496 1 $496 0 $275 $-1 forward 7 unknown #
vertex $-1 $276 $497 #
ellipse-curve $-1 -40.117126758827126 -4.5006701123280486 3.616475570271906 -0.57357644374324357 0 0.81915203911291934 0.40957601955645967 0 0.28678822187162178 1 I I #
point $-1 -40.498500524436793 -4.5006701123280486 5.0328571295658504 #
loop $-1 $-1 $287 $279 #
plane-surface $-1 -44.445936460463273 0 0 1 0 0 0 0 -1 forward_v I I I I #
coedge $-1 $403 $282 $284 $407 reversed $177 $-1 #
coedge $-1 $282 $402 $498 $499 reversed $177 $-1 #
coedge $-1 $290 $285 $282 $405 forward $280 $-1 #
edge $-1 $408 -10.345893776539121 $500 -3.2701739435990476 $404 $501 forward 7 unknown #
coedge $-1 $284 $283 $411 $502 reversed $111 $-1 #
edge $-1 $503 -1.7244671030687178e-014 $408 8.6378590238297352 $402 $504 forward 7 unknown #
vertex $-1 $286 $505 #
straight-curve $-1 -37.370216627523199 6.3232139865221821 7.2233051379160926 0 1 0 I I #
coedge $-1 $498 $287 $290 $415 reversed $400 $-1 #
coedge $-1 $287 $498 $406 $502 forward $400 $-1 #
vertex $-1 $288 $506 #
straight-curve $-1 -44.445936460463273 8.3849416905673877 37.542395820607915 0 0 1 I I #
straight-curve $-1 -44.445936460463258 8.3849416905673877 2.2688326774723464 -0.81915203911291934 0 -0.57357644374324357 I I #
edge $-1 $500 -16.907914255521341 $291 -8.3849416905673877 $410 $507 forward 7 unknown #
point $-1 -44.445936460463273 8.3849416905673877 7.2233051379160917 #
point $-1 -37.370216627523199 8.3849416905673877 7.2233051379160917 #
edge $-1 $508 1 $508 0 $294 $-1 forward 7 unknown #
vertex $-1 $295 $509 #
ellipse-curve $-1 -40.117126758827126 10.820076709125669 3.616475570271906 -0.57357644374324357 0 0.81915203911291934 0.40957601955645967 0 0.28678822187162178 1 I I #
point $-1 -40.498500524436793 10.820076709125669 5.0328571295658504 #
edge $-1 $510 1 $510 0 $298 $-1 forward 7 unknown #
vertex $-1 $299 $511 #
ellipse-curve $-1 -40.117126758827126 14.472779236963074 3.616475570271906 -0.57357644374324357 0 0.81915203911291934 0.40957601955645967 0 0.28678822187162178 1 I I #
point $-1 -40.498500524436793 14.472779236963074 5.0328571295658504 #
loop $-1 $-1 $310 $302 #
plane-surface $-1 44.445936460463273 0 0 -1 0 0 0 0 1 forward_v I I I I #
coedge $-1 $429 $305 $512 $513 reversed $199 $-1 #
coedge $-1 $305 $428 $432 $514 reversed $199 $-1 #
edge $-1 $515 -88.891872920926545 $433 -81.868129270118956 $305 $516 forward 7 unknown #
coedge $-1 $307 $306 $436 $517 reversed $125 $-1 #
coedge $-1 $313 $308 $429 $514 forward $303 $-1 #
vertex $-1 $514 $518 #
straight-curve $-1 38.555329416286021 -6.1533410127829242 7.2233051379160891 0 -1 0 I I #
coedge $-1 $512 $310 $313 $440 reversed $426 $-1 #
coedge $-1 $310 $512 $431 $517 forward $426 $-1 #
vertex $-1 $311 $519 #
straight-curve $-1 44.445936460463273 -8.7130984974861185 63.181440891336202 0 0 1 I I #
straight-curve $-1 -30.105060675930424 -8.7130984974861185 51.811884646278699 0.83867056331134215 0 -0.54463904215088732 I I #
edge $-1 $520 -15.900265553645578 $314 -8.7130984974861185 $435 $521 forward 7 unknown #
point $-1 44.445936460463273 -8.7130984974861185 7.2233051379160917 #
point $-1 38.555329416286021 -8.7130984974861185 7.2233051379160855 #
edge $-1 $522 1 $522 0 $317 $-1 forward 7 unknown #
vertex $-1 $318 $523 #
ellipse-curve $-1 40.080967872022853 -13.846789251885733 3.1245101754662934 0.54463904215088732 0 0.83867056331134215 0.83867056331134215 0 -0.54463904215088732 1 I I #
point $-1 42.339303501685997 -13.846789251885733 4.7659635886205933 #
edge $-1 $524 1 $524 0 $321 $-1 forward 7 unknown #
vertex $-1 $322 $525 #
ellipse-curve $-1 40.080967872022853 -10.766574799245964 3.1245101754662934 0.54463904215088732 0 0.83867056331134215 0.83867056331134215 0 -0.54463904215088732 1 I I #
point $-1 42.339303501685997 -10.766574799245964 4.7659635886205933 #
plane-surface $-1 44.445936460463273 0 0 -1 0 0 0 0 1 forward_v I I I I #
coedge $-1 $330 $328 $332 $456 reversed $221 $-1 #
edge $-1 $343 -7.2233051379160917 $458 7.2233051379160917 $342 $526 forward 7 unknown #
vertex $-1 $456 $527 #
straight-curve $-1 -44.445936460463273 -22.046633144936667 0 0 0 -1 I I #
edge $-1 $454 -22.046633144936667 $458 22.046633144936667 $452 $528 forward 7 unknown #
straight-curve $-1 0 -22.046633144936667 -7.2233051379160917 -1 0 0 I I #
vertex $-1 $335 $529 #
straight-curve $-1 0 22.046633144936667 -7.2233051379160917 1 0 0 I I #
point $-1 44.445936460463273 22.046633144936667 -7.2233051379160917 #
point $-1 44.445936460463273 -22.046633144936667 -7.2233051379160917 #
straight-curve $-1 -44.445936460463273 0 7.2233051379160917 0 -1 0 I I #
point $-1 -44.445936460463273 22.046633144936667 7.2233051379160917 #
point $-1 -44.445936460463273 -22.046633144936667 7.2233051379160917 #
straight-curve $-1 44.445936460463273 -22.046633144936667 0 0 0 -1 I I #
straight-curve $-1 44.445936460463273 22.046633144936667 0 0 0 -1 I I #
plane-surface $-1 44.445936460463273 0 0 -1 0 0 0 0 1 forward_v I I I I #
coedge $-1 $356 $355 $366 $479 reversed $147 $-1 #
coedge $-1 $530 $359 $356 $470 forward $353 $-1 #
edge $-1 $471 15.900265553645578 $531 22.046633144936667 $356 $532 forward 7 unknown #
vertex $-1 $470 $533 #
straight-curve $-1 -44.445936460463273 -15.900265553645578 2.8616525689580459 0 0 -1 I I #
coedge $-1 $359 $530 $361 $475 forward $353 $-1 #
straight-curve $-1 0 -15.900265553645578 7.2233051379160917 -1 0 0 I I #
edge $-1 $482 -22.046633144936667 $362 -15.900265553645578 $361 $534 forward 7 unknown #
point $-1 44.445936460463273 -15.900265553645578 7.2233051379160917 #
straight-curve $-1 -44.445936460463273 -9.4867246746455614 4.2233051379160917 0 -1 0 I I #
coedge $-1 $366 $365 $530 $535 reversed $240 $-1 #
edge $-1 $531 -7.2233051379160917 $367 -4.2233051379160917 $468 $536 forward 7 unknown #
point $-1 -44.445936460463273 -22.046633144936667 4.2233051379160917 #
point $-1 -44.445936460463273 -15.900265553645578 4.2233051379160917 #
vertex $-1 $475 $537 #
straight-curve $-1 44.445936460463273 -22.046633144936667 0 0 0 -1 I I #
coedge $-1 $385 $384 $377 $485 forward $374 $-1 #
edge $-1 $486 30.319090682691822 $489 35.273563143135576 $484 $538 forward 7 unknown #
vertex $-1 $389 $539 #
straight-curve $-1 -47.71611040406232 -2.0655350937697783 7.2233051379160926 -1 0 0 I I #
edge $-1 $489 -1.0979755943535991 $386 7.424996970600354 $385 $540 forward 7 unknown #
vertex $-1 $488 $541 #
straight-curve $-1 -44.445936460463258 -2.0655350937697783 2.2688326774723464 0.81915203911291934 0 0.57357644374324357 I I #
point $-1 -37.370216627523199 -2.0655350937697783 7.2233051379160917 #
point $-1 -44.445936460463273 -10.588507658723731 2.2688326774723366 #
straight-curve $-1 -44.445936460463273 0 7.2233051379160917 0 -1 0 I I #
vertex $-1 $392 $542 #
point $-1 -39.707550739270665 -8.1533726401654576 3.9032637921435276 #
vertex $-1 $396 $543 #
point $-1 -39.707550739270665 -4.5006701123280486 3.9032637921435276 #
coedge $-1 $411 $410 $403 $499 forward $400 $-1 #
edge $-1 $500 30.319090682691822 $503 35.273563143135576 $498 $544 forward 7 unknown #
vertex $-1 $415 $545 #
straight-curve $-1 -47.71611040406232 16.907914255521341 7.2233051379160926 -1 0 0 I I #
edge $-1 $503 -10.584700268999159 $412 -2.0617277040452056 $411 $546 forward 7 unknown #
vertex $-1 $502 $547 #
straight-curve $-1 -44.445936460463258 16.907914255521341 2.2688326774723464 0.81915203911291934 0 0.57357644374324357 I I #
point $-1 -37.370216627523199 16.907914255521341 7.2233051379160917 #
point $-1 -44.445936460463273 8.3849416905673877 2.2688326774723366 #
straight-curve $-1 -44.445936460463273 0 7.2233051379160917 0 -1 0 I I #
vertex $-1 $418 $548 #
point $-1 -39.707550739270665 10.820076709125669 3.9032637921435276 #
vertex $-1 $422 $549 #
point $-1 -39.707550739270665 14.472779236963074 3.9032637921435276 #
coedge $-1 $436 $435 $428 $513 forward $426 $-1 #
edge $-1 $520 55.958135753420109 $515 59.783540767709333 $512 $550 forward 7 unknown #
edge $-1 $433 38.555329416286021 $520 44.445936460463273 $432 $551 forward 7 unknown #
vertex $-1 $513 $552 #
straight-curve $-1 -30.105060675930424 -15.900265553645578 51.811884646278699 -0.83867056331134215 0 0.54463904215088732 I I #
edge $-1 $515 -9.7469245408626541 $437 -2.5597574847031943 $436 $553 forward 7 unknown #
point $-1 38.555329416286021 -15.900265553645578 7.2233051379160855 #
point $-1 44.44593646046328 -8.7130984974861185 3.3979001236268687 #
vertex $-1 $440 $554 #
straight-curve $-1 44.445936460463273 0 7.2233051379160917 0 1 0 I I #
vertex $-1 $443 $555 #
point $-1 40.919638435334193 -13.846789251885733 2.5798711333154061 #
vertex $-1 $447 $556 #
point $-1 40.919638435334193 -10.766574799245964 2.5798711333154061 #
straight-curve $-1 -44.445936460463273 22.046633144936667 0 0 0 -1 I I #
point $-1 -44.445936460463273 -22.046633144936667 -7.2233051379160917 #
straight-curve $-1 -44.445936460463273 0 -7.2233051379160917 0 1 0 I I #
point $-1 -44.445936460463273 22.046633144936667 -7.2233051379160917 #
coedge $-1 $473 $469 $478 $535 forward $353 $-1 #
vertex $-1 $470 $557 #
straight-curve $-1 -44.445936460463273 0 7.2233051379160917 0 -1 0 I I #
point $-1 -44.445936460463273 -15.900265553645578 7.2233051379160917 #
straight-curve $-1 44.445936460463273 0 7.2233051379160917 0 1 0 I I #
edge $-1 $531 -44.445936460463273 $482 44.445936460463273 $478 $558 forward 7 unknown #
straight-curve $-1 -44.445936460463273 -22.046633144936667 0 0 0 -1 I I #
point $-1 44.445936460463273 -22.046633144936667 7.2233051379160917 #
straight-curve $-1 -44.445936460463273 -2.0655350937697783 37.542395820607915 0 0 -1 I I #
point $-1 -44.445936460463273 -2.0655350937697783 7.2233051379160917 #
straight-curve $-1 -44.445936460463273 -3.1635106881233774 2.268832677472334 0 -1 0 I I #
point $-1 -44.445936460463273 -2.0655350937697783 2.2688326774723366 #
point $-1 -39.830338536955509 -8.1533726401654576 3.2068995507154461 #
point $-1 -39.830338536955509 -4.5006701123280486 3.2068995507154461 #
straight-curve $-1 -44.445936460463273 16.907914255521341 37.542395820607915 0 0 -1 I I #
point $-1 -44.445936460463273 16.907914255521341 7.2233051379160917 #
straight-curve $-1 -44.445936460463273 6.3232139865221821 2.268832677472334 0 -1 0 I I #
point $-1 -44.445936460463273 16.907914255521341 2.2688326774723366 #
point $-1 -39.830338536955509 10.820076709125669 3.2068995507154461 #
point $-1 -39.830338536955509 14.472779236963074 3.2068995507154461 #
straight-curve $-1 44.445936460463273 -15.900265553645578 63.181440891336202 0 0 -1 I I #
straight-curve $-1 0 -15.900265553645578 7.2233051379160917 1 0 0 I I #
point $-1 44.44593646046328 -15.900265553645578 3.3979001236268687 #
straight-curve $-1 44.445936460463273 -6.1533410127829242 3.3979001236268687 0 1 0 I I #
point $-1 44.445936460463273 -15.900265553645578 7.2233051379160917 #
point $-1 39.536328829871962 -13.846789251885733 2.2858396121549514 #
point $-1 39.536328829871962 -10.766574799245964 2.2858396121549514 #
point $-1 -44.445936460463273 -22.046633144936667 7.2233051379160917 #
straight-curve $-1 0 -22.046633144936667 7.2233051379160917 1 0 0 I I #
End-of-ACIS-data 