500 0 7 0           
7 Unknown 11 ACIS 5.0 NT 24 Thu Mar 25 21:09:06 1999 
-1 9.9999999999999995e-007 1e-010 
body $-1 $7 $-1 $8 #
body $-1 $9 $-1 $10 #
body $-1 $11 $-1 $12 #
body $-1 $13 $-1 $14 #
body $-1 $15 $-1 $16 #
body $-1 $17 $-1 $18 #
body $-1 $19 $-1 $20 #
lump $-1 $-1 $21 $0 #
transform $-1 1 0 0 0 1 0 0 0 1 47.468489638966034 20.105187737828494 5.6569041520099432 1 rotate no_reflect no_shear #
lump $-1 $-1 $22 $1 #
transform $-1 1 0 0 0 1 0 0 0 1 47.468489638966034 20.105187737828494 5.6569041520099432 1 rotate no_reflect no_shear #
lump $-1 $-1 $23 $2 #
transform $-1 1 0 0 0 1 0 0 0 1 47.468489638966034 20.105187737828494 5.6569041520099432 1 rotate no_reflect no_shear #
lump $-1 $-1 $24 $3 #
transform $-1 1 0 0 0 1 0 0 0 1 47.468489638966034 20.105187737828494 5.6569041520099432 1 rotate no_reflect no_shear #
lump $-1 $-1 $25 $4 #
transform $-1 1 0 0 0 1 0 0 0 1 47.468489638966034 20.105187737828494 5.6569041520099432 1 rotate no_reflect no_shear #
lump $-1 $-1 $26 $5 #
transform $-1 1 0 0 0 1 0 0 0 1 47.468489638966034 20.105187737828494 5.6569041520099432 1 rotate no_reflect no_shear #
lump $-1 $-1 $27 $6 #
transform $-1 1 0 0 0 1 0 0 0 1 47.468489638966034 20.105187737828494 5.6569041520099432 1 rotate no_reflect no_shear #
shell $-1 $-1 $-1 $28 $-1 $7 #
shell $-1 $-1 $-1 $29 $-1 $9 #
shell $-1 $-1 $-1 $30 $-1 $11 #
shell $-1 $-1 $-1 $31 $-1 $13 #
shell $-1 $-1 $-1 $32 $-1 $15 #
shell $-1 $-1 $-1 $33 $-1 $17 #
shell $-1 $-1 $-1 $34 $-1 $19 #
face $-1 $35 $36 $21 $-1 $37 forward single #
face $-1 $38 $39 $22 $-1 $40 reversed single #
face $-1 $41 $42 $23 $-1 $43 reversed single #
face $-1 $44 $45 $24 $-1 $46 forward single #
face $-1 $47 $48 $25 $-1 $49 reversed single #
face $-1 $50 $51 $26 $-1 $52 forward single #
face $-1 $53 $54 $27 $-1 $55 forward single #
face $-1 $56 $57 $21 $-1 $58 reversed single #
loop $-1 $-1 $59 $28 #
plane-surface $-1 0 0 5.6569041520099432 0 0 1 1 0 0 forward_v I I I I #
face $-1 $60 $61 $22 $-1 $62 reversed single #
loop $-1 $-1 $63 $29 #
plane-surface $-1 -39.154681334946147 -17.808560959117528 0 1 0 0 0 0 -1 forward_v I I I I #
face $-1 $64 $65 $23 $-1 $66 reversed single #
loop $-1 $-1 $67 $30 #
plane-surface $-1 -97.777424510724231 -12.611616791786595 80.895060429154825 0 1 0 -0.52991927123019833 0 0.84804809178421925 forward_v I I I I #
face $-1 $68 $69 $24 $-1 $70 forward single #
loop $-1 $71 $72 $31 #
cone-surface $-1 -42.822101583350921 -7.4994662289382887 2.336866346940595 0.52991927123019833 0 -0.84804809178421925 1.2720721376763289 0 0.79487890684529749 1 I I 0 1 1.5 forward I I I I #
face $-1 $73 $74 $25 $-1 $75 reversed single #
loop $-1 $-1 $76 $32 #
plane-surface $-1 19.554025207497091 -4.8113264677863619 132.30803653964711 0 -1 0 -0.54463904215088732 0 -0.83867056331134215 forward_v I I I I #
face $-1 $77 $78 $26 $-1 $79 forward single #
loop $-1 $80 $81 $33 #
cone-surface $-1 43.59588662646506 -9.9619881016091494 2.8995173898068018 -0.54463904215088732 0 -0.83867056331134215 0.41933528165567108 0 -0.27231952107544366 1 I I 0 1 0.5 forward I I I I #
face $-1 $82 $83 $27 $-1 $84 forward single #
loop $-1 $85 $86 $34 #
cone-surface $-1 43.59588662646506 -6.8715911213154772 2.8995173898068018 -0.54463904215088732 0 -0.83867056331134215 0.41933528165567108 0 -0.27231952107544366 1 I I 0 1 0.5 forward I I I I #
face $-1 $87 $88 $21 $-1 $89 reversed single #
loop $-1 $-1 $90 $35 #
plane-surface $-1 0 0 -5.6569041520099432 0 0 1 1 0 0 forward_v I I I I #
coedge $-1 $91 $92 $93 $94 forward $36 $-1 #
face $-1 $95 $96 $22 $-1 $97 reversed single #
loop $-1 $-1 $98 $38 #
plane-surface $-1 -37.654681334946147 -15.511934180406563 0 0 -1 0 0 0 -1 forward_v I I I I #
coedge $-1 $99 $100 $101 $102 forward $39 $-1 #
face $-1 $103 $104 $23 $-1 $105 reversed single #
loop $-1 $-1 $106 $41 #
plane-surface $-1 -47.468489638966027 -7.4994662289382887 0.38393631274657025 -0.52991927123019833 0 0.84804809178421925 0.84804809178421925 0 0.52991927123019833 forward_v I I I I #
coedge $-1 $107 $108 $109 $110 reversed $42 $-1 #
face $-1 $-1 $111 $24 $-1 $112 forward single #
loop $-1 $113 $114 $44 #
cone-surface $-1 -41.997530248697807 -7.4994662289382887 1.0172763926647654 0.52991927123019833 0 -0.84804809178421925 0.63603606883816444 0 0.39743945342264875 1 I I -0.70710678118654757 0.70710678118654757 0.75 forward I I I I #
loop $-1 $-1 $115 $31 #
coedge $-1 $72 $72 $116 $117 reversed $45 $-1 #
face $-1 $118 $119 $25 $-1 $120 reversed single #
loop $-1 $-1 $121 $47 #
plane-surface $-1 -32.152360251134468 -8.4167896114623133 52.687186649546604 0.54463904215088732 0 0.83867056331134215 0.83867056331134215 0 -0.54463904215088732 forward_v I I I I #
coedge $-1 $122 $123 $124 $125 reversed $48 $-1 #
face $-1 $-1 $126 $26 $-1 $127 forward single #
loop $-1 $128 $129 $50 #
cone-surface $-1 43.187407344851891 -9.9619881016091494 2.2705144673232951 -0.54463904215088732 0 -0.83867056331134215 0.20966764082783554 0 -0.13615976053772183 1 I I -0.70710678118654746 0.70710678118654746 0.25 forward I I I I #
loop $-1 $-1 $130 $33 #
coedge $-1 $81 $81 $131 $132 reversed $51 $-1 #
face $-1 $-1 $133 $27 $-1 $134 forward single #
loop $-1 $135 $136 $53 #
cone-surface $-1 43.187407344851891 -6.8715911213154772 2.2705144673232951 -0.54463904215088732 0 -0.83867056331134215 0.20966764082783554 0 -0.13615976053772183 1 I I -0.70710678118654746 0.70710678118654746 0.25 forward I I I I #
loop $-1 $-1 $137 $34 #
coedge $-1 $86 $86 $138 $139 reversed $54 $-1 #
face $-1 $140 $141 $21 $-1 $142 reversed single #
loop $-1 $-1 $143 $56 #
plane-surface $-1 0 -20.105187737828494 0 0 1 0 0 0 1 forward_v I I I I #
coedge $-1 $144 $145 $146 $147 forward $57 $-1 #
coedge $-1 $148 $59 $149 $150 forward $36 $-1 #
coedge $-1 $59 $148 $151 $152 forward $36 $-1 #
coedge $-1 $153 $154 $59 $94 reversed $155 $-1 #
edge $-1 $156 -20.105187737828494 $157 20.105187737828494 $93 $158 forward 7 unknown #
face $-1 $159 $160 $22 $-1 $161 forward single #
loop $-1 $-1 $162 $60 #
plane-surface $-1 -36.154681334946147 -17.808560959117528 0 -1 0 0 0 0 1 forward_v I I I I #
coedge $-1 $163 $164 $165 $166 forward $61 $-1 #
coedge $-1 $167 $63 $168 $169 reversed $39 $-1 #
coedge $-1 $63 $167 $170 $171 reversed $39 $-1 #
coedge $-1 $164 $163 $63 $102 reversed $61 $-1 #
edge $-1 $172 -5.6569041520099432 $173 5.6569041520099432 $101 $174 forward 7 unknown #
face $-1 $175 $176 $23 $-1 $177 reversed single #
loop $-1 $-1 $178 $64 #
plane-surface $-1 -97.777424510724231 -2.3873156660899824 80.895060429154825 0 -1 0 0.52991927123019833 0 -0.84804809178421925 forward_v I I I I #
coedge $-1 $179 $180 $181 $182 reversed $65 $-1 #
coedge $-1 $108 $67 $183 $184 reversed $42 $-1 #
coedge $-1 $67 $107 $179 $185 reversed $42 $-1 #
coedge $-1 $181 $186 $67 $110 forward $187 $-1 #
edge $-1 $188 1.4202226163960816 $189 9.8587349651653966 $109 $190 forward 7 unknown #
loop $-1 $-1 $116 $68 #
plane-surface $-1 -47.468489638966027 -7.4994662289382887 0.38393631274657025 -0.52991927123019833 0 0.84804809178421925 0.84804809178421925 0 0.52991927123019833 forward_v I I I I #
loop $-1 $-1 $191 $44 #
coedge $-1 $114 $114 $115 $192 reversed $69 $-1 #
coedge $-1 $115 $115 $114 $192 forward $71 $-1 #
coedge $-1 $116 $116 $72 $117 forward $111 $-1 #
edge $-1 $193 0 $193 6.2831853071796004 $116 $194 forward 7 unknown #
face $-1 $195 $196 $25 $-1 $197 forward single #
loop $-1 $-1 $198 $73 #
plane-surface $-1 19.554025207497091 -12.022252755138265 132.30803653964711 0 1 0 0.54463904215088732 0 0.83867056331134215 forward_v I I I I #
coedge $-1 $199 $200 $201 $202 reversed $74 $-1 #
coedge $-1 $123 $76 $203 $204 reversed $48 $-1 #
coedge $-1 $76 $122 $199 $205 reversed $48 $-1 #
coedge $-1 $201 $206 $76 $125 forward $196 $-1 #
edge $-1 $207 -37.691477035217488 $208 -30.490910052366459 $124 $209 forward 7 unknown #
loop $-1 $-1 $131 $77 #
plane-surface $-1 -32.152360251134468 -8.4167896114623133 52.687186649546604 0.54463904215088732 0 0.83867056331134215 0.83867056331134215 0 -0.54463904215088732 forward_v I I I I #
loop $-1 $-1 $210 $50 #
coedge $-1 $129 $129 $130 $211 reversed $78 $-1 #
coedge $-1 $130 $130 $129 $211 forward $80 $-1 #
coedge $-1 $131 $131 $81 $132 forward $126 $-1 #
edge $-1 $212 0 $212 6.2831853071796004 $131 $213 forward 7 unknown #
loop $-1 $-1 $138 $82 #
plane-surface $-1 -32.152360251134468 -8.4167896114623133 52.687186649546604 0.54463904215088732 0 0.83867056331134215 0.83867056331134215 0 -0.54463904215088732 forward_v I I I I #
loop $-1 $-1 $214 $53 #
coedge $-1 $136 $136 $137 $215 reversed $83 $-1 #
coedge $-1 $137 $137 $136 $215 forward $85 $-1 #
coedge $-1 $138 $138 $86 $139 forward $133 $-1 #
edge $-1 $216 0 $216 6.2831853071796004 $138 $217 forward 7 unknown #
face $-1 $218 $219 $21 $-1 $220 reversed single #
loop $-1 $-1 $221 $87 #
plane-surface $-1 -47.468489638966034 0 0 1 0 0 0 0 -1 forward_v I I I I #
coedge $-1 $222 $151 $223 $224 forward $88 $-1 #
coedge $-1 $225 $90 $222 $226 forward $57 $-1 #
coedge $-1 $90 $225 $227 $228 forward $57 $-1 #
coedge $-1 $154 $153 $90 $147 reversed $155 $-1 #
edge $-1 $229 -20.105187737828494 $230 20.105187737828494 $146 $231 forward 7 unknown #
coedge $-1 $92 $91 $232 $233 forward $36 $-1 #
coedge $-1 $234 $235 $91 $150 reversed $219 $-1 #
edge $-1 $157 -47.468489638966034 $236 47.468489638966034 $149 $237 forward 7 unknown #
coedge $-1 $143 $238 $92 $152 reversed $88 $-1 #
edge $-1 $239 -47.468489638966034 $156 47.468489638966034 $151 $240 forward 7 unknown #
coedge $-1 $146 $93 $238 $241 forward $155 $-1 #
coedge $-1 $93 $146 $234 $242 reversed $155 $-1 #
loop $-1 $-1 $153 $218 #
vertex $-1 $94 $243 #
vertex $-1 $94 $244 #
straight-curve $-1 47.468489638966034 0 5.6569041520099432 0 1 0 I I #
face $-1 $245 $246 $22 $-1 $247 reversed single #
loop $-1 $-1 $248 $95 #
plane-surface $-1 0 0 5.6569041520099432 0 0 1 1 0 0 forward_v I I I I #
coedge $-1 $249 $250 $251 $252 reversed $96 $-1 #
coedge $-1 $101 $98 $253 $254 reversed $61 $-1 #
coedge $-1 $98 $101 $255 $256 reversed $61 $-1 #
coedge $-1 $250 $249 $98 $166 reversed $96 $-1 #
edge $-1 $257 -5.6569041520099432 $258 5.6569041520099432 $165 $259 forward 7 unknown #
coedge $-1 $100 $99 $260 $261 reversed $39 $-1 #
coedge $-1 $253 $262 $99 $169 forward $246 $-1 #
edge $-1 $263 -11.20090725826973 $173 -6.6076537008477985 $168 $264 forward 7 unknown #
coedge $-1 $265 $255 $100 $171 forward $160 $-1 #
edge $-1 $172 6.6076537008477985 $266 11.20090725826973 $170 $267 forward 7 unknown #
vertex $-1 $171 $268 #
vertex $-1 $169 $269 #
straight-curve $-1 -39.154681334946147 -15.511934180406563 0 0 0 -1 I I #
face $-1 $-1 $187 $23 $-1 $270 forward single #
loop $-1 $-1 $271 $103 #
plane-surface $-1 -47.468489638966034 0 0 1 0 0 0 0 -1 forward_v I I I I #
coedge $-1 $272 $273 $274 $275 reversed $104 $-1 #
coedge $-1 $276 $106 $108 $185 forward $65 $-1 #
coedge $-1 $106 $276 $272 $277 forward $65 $-1 #
coedge $-1 $274 $109 $106 $182 forward $187 $-1 #
edge $-1 $189 -8.8618836773174507 $278 1.362417448379162 $181 $279 forward 7 unknown #
coedge $-1 $280 $281 $107 $184 forward $176 $-1 #
edge $-1 $282 -40.063593901830849 $188 -34.790626062567469 $183 $283 forward 7 unknown #
edge $-1 $189 -9.9505115694741022 $282 8.3790584163743152e-015 $108 $284 forward 7 unknown #
coedge $-1 $109 $274 $280 $285 forward $187 $-1 #
loop $-1 $-1 $274 $175 #
vertex $-1 $184 $286 #
vertex $-1 $110 $287 #
straight-curve $-1 -48.888712255362115 -12.611616791786595 5.6569041520099432 1 0 0 I I #
coedge $-1 $191 $191 $-1 $288 reversed $113 $-1 #
edge $-1 $289 0 $289 6.2831853071796004 $114 $290 forward 7 unknown #
vertex $-1 $117 $291 #
ellipse-curve $-1 -43.24923346458138 -7.4994662289382887 3.0204202323782523 -0.52991927123019833 0 0.84804809178421925 1.2720721376763289 0 0.79487890684529749 1 I I #
face $-1 $-1 $292 $25 $-1 $293 reversed single #
loop $-1 $-1 $124 $118 #
plane-surface $-1 0 0 5.6569041520099432 0 0 1 1 0 0 forward_v I I I I #
coedge $-1 $294 $295 $296 $297 reversed $119 $-1 #
coedge $-1 $298 $121 $123 $205 forward $74 $-1 #
coedge $-1 $121 $298 $294 $299 forward $74 $-1 #
coedge $-1 $296 $124 $121 $202 forward $196 $-1 #
edge $-1 $208 0.60293166205520521 $300 7.8138579494071081 $201 $301 forward 7 unknown #
coedge $-1 $302 $303 $122 $204 forward $292 $-1 #
edge $-1 $304 -65.173217078908507 $207 -60.497114117813609 $203 $305 forward 7 unknown #
edge $-1 $208 86.351287472533684 $304 94.936979277932068 $123 $306 forward 7 unknown #
coedge $-1 $124 $296 $302 $307 forward $196 $-1 #
vertex $-1 $204 $308 #
vertex $-1 $125 $309 #
straight-curve $-1 9.7770126037485454 -4.8113264677863619 5.6569041520099432 -1 0 0 I I #
coedge $-1 $210 $210 $-1 $310 reversed $128 $-1 #
edge $-1 $311 0 $311 6.2831853071796004 $129 $312 forward 7 unknown #
vertex $-1 $132 $313 #
ellipse-curve $-1 43.868206147540512 -9.9619881016091494 3.3188526714624906 0.54463904215088732 0 0.83867056331134215 0.41933528165567108 0 -0.27231952107544366 1 I I #
coedge $-1 $214 $214 $-1 $314 reversed $135 $-1 #
edge $-1 $315 0 $315 6.2831853071796004 $136 $316 forward 7 unknown #
vertex $-1 $139 $317 #
ellipse-curve $-1 43.868206147540512 -6.8715911213154772 3.3188526714624906 0.54463904215088732 0 0.83867056331134215 0.41933528165567108 0 -0.27231952107544366 1 I I #
face $-1 $-1 $155 $21 $-1 $318 reversed single #
loop $-1 $-1 $234 $140 #
plane-surface $-1 0 20.105187737828494 0 0 -1 0 0 0 -1 forward_v I I I I #
coedge $-1 $319 $232 $235 $320 forward $141 $-1 #
coedge $-1 $238 $143 $144 $226 reversed $88 $-1 #
coedge $-1 $232 $319 $143 $224 reversed $141 $-1 #
edge $-1 $239 -5.6569041520099432 $321 5.6569041520099432 $223 $322 forward 7 unknown #
coedge $-1 $145 $144 $319 $323 forward $57 $-1 #
edge $-1 $230 -47.468489638966034 $321 47.468489638966034 $222 $324 forward 7 unknown #
coedge $-1 $235 $234 $145 $228 reversed $219 $-1 #
edge $-1 $325 -47.468489638966034 $229 47.468489638966034 $227 $326 forward 7 unknown #
vertex $-1 $147 $327 #
vertex $-1 $241 $328 #
straight-curve $-1 47.468489638966034 0 -5.6569041520099432 0 -1 0 I I #
coedge $-1 $221 $223 $148 $233 reversed $141 $-1 #
edge $-1 $236 -20.105187737828494 $239 20.105187737828494 $232 $329 forward 7 unknown #
coedge $-1 $227 $149 $154 $242 forward $219 $-1 #
coedge $-1 $149 $227 $221 $320 reversed $219 $-1 #
vertex $-1 $150 $330 #
straight-curve $-1 0 20.105187737828494 5.6569041520099432 -1 0 0 I I #
coedge $-1 $151 $222 $153 $241 reversed $88 $-1 #
vertex $-1 $233 $331 #
straight-curve $-1 0 -20.105187737828494 5.6569041520099432 1 0 0 I I #
edge $-1 $156 -5.6569041520099432 $230 5.6569041520099432 $153 $332 forward 7 unknown #
edge $-1 $157 -5.6569041520099432 $229 5.6569041520099432 $154 $333 forward 7 unknown #
point $-1 47.468489638966034 -20.105187737828494 5.6569041520099432 #
point $-1 47.468489638966034 20.105187737828494 5.6569041520099432 #
face $-1 $-1 $334 $22 $-1 $335 reversed single #
loop $-1 $-1 $336 $159 #
plane-surface $-1 0 0 -5.6569041520099432 0 0 1 1 0 0 forward_v I I I I #
coedge $-1 $255 $265 $250 $337 forward $160 $-1 #
coedge $-1 $165 $162 $336 $338 reversed $96 $-1 #
coedge $-1 $162 $165 $248 $337 reversed $96 $-1 #
coedge $-1 $339 $340 $162 $252 forward $334 $-1 #
edge $-1 $341 -5.6569041520099432 $342 5.6569041520099432 $251 $343 forward 7 unknown #
coedge $-1 $336 $168 $163 $254 forward $246 $-1 #
edge $-1 $173 -20.327340667473074 $258 -17.327340667473074 $253 $344 forward 7 unknown #
coedge $-1 $170 $248 $164 $256 forward $160 $-1 #
edge $-1 $257 17.327340667473074 $172 20.327340667473074 $255 $345 forward 7 unknown #
vertex $-1 $256 $346 #
vertex $-1 $254 $347 #
straight-curve $-1 -36.154681334946147 -15.511934180406563 0 0 0 -1 I I #
coedge $-1 $340 $339 $167 $261 forward $334 $-1 #
edge $-1 $266 -5.6569041520099432 $263 5.6569041520099432 $260 $348 forward 7 unknown #
coedge $-1 $168 $336 $340 $349 forward $246 $-1 #
vertex $-1 $169 $350 #
straight-curve $-1 -39.154681334946147 -8.9042804795587642 -5.6569041520099432 0 1 0 I I #
coedge $-1 $248 $170 $339 $351 forward $160 $-1 #
vertex $-1 $351 $352 #
straight-curve $-1 -39.154681334946147 -8.9042804795587642 5.6569041520099432 0 -1 0 I I #
point $-1 -39.154681334946147 -15.511934180406563 5.6569041520099432 #
point $-1 -39.154681334946147 -15.511934180406563 -5.6569041520099432 #
plane-surface $-1 0 0 5.6569041520099432 0 0 1 1 0 0 forward_v I I I I #
coedge $-1 $281 $280 $273 $353 forward $176 $-1 #
coedge $-1 $273 $178 $180 $277 reversed $104 $-1 #
coedge $-1 $178 $272 $271 $353 reversed $104 $-1 #
coedge $-1 $186 $181 $178 $275 forward $187 $-1 #
edge $-1 $278 -9.8587349651653966 $354 -1.4202226163960816 $274 $355 forward 7 unknown #
coedge $-1 $180 $179 $281 $356 reversed $65 $-1 #
edge $-1 $357 -8.3790584163743152e-015 $278 9.9505115694741022 $272 $358 forward 7 unknown #
vertex $-1 $182 $359 #
straight-curve $-1 -39.029977290196726 -3.7497331144691444 5.6569041520099423 0 1 0 I I #
coedge $-1 $271 $183 $186 $285 reversed $176 $-1 #
coedge $-1 $183 $271 $276 $356 forward $176 $-1 #
vertex $-1 $184 $360 #
straight-curve $-1 -47.468489638966034 -12.611616791786595 40.447530214577412 0 0 1 I I #
straight-curve $-1 -47.468489638966027 -12.611616791786595 0.38393631274657025 -0.84804809178421925 0 -0.52991927123019833 I I #
edge $-1 $354 2.3873156660899824 $188 12.611616791786595 $280 $361 forward 7 unknown #
point $-1 -47.468489638966034 -12.611616791786595 5.6569041520099432 #
point $-1 -39.029977290196719 -12.611616791786595 5.6569041520099432 #
edge $-1 $362 1 $362 0 $191 $-1 forward 7 unknown #
vertex $-1 $192 $363 #
ellipse-curve $-1 -42.394969702120456 -7.4994662289382887 1.6533124615029298 -0.52991927123019833 0 0.84804809178421925 1.2720721376763289 0 0.79487890684529749 1 I I #
point $-1 -41.977161326905055 -7.4994662289382887 3.8152991392235576 #
loop $-1 $-1 $203 $195 #
plane-surface $-1 47.468489638966034 0 0 -1 0 0 0 0 1 forward_v I I I I #
coedge $-1 $295 $198 $200 $299 reversed $119 $-1 #
coedge $-1 $198 $294 $364 $365 reversed $119 $-1 #
coedge $-1 $206 $201 $198 $297 forward $196 $-1 #
edge $-1 $300 30.490910052366459 $366 37.691477035217488 $296 $367 forward 7 unknown #
coedge $-1 $200 $199 $303 $368 reversed $74 $-1 #
edge $-1 $369 -94.936979277932068 $300 -86.351287472533684 $294 $370 forward 7 unknown #
vertex $-1 $202 $371 #
straight-curve $-1 40.267922656115005 -4.2083948057311567 5.6569041520099432 0 -1 0 I I #
coedge $-1 $364 $203 $206 $307 reversed $292 $-1 #
coedge $-1 $203 $364 $298 $368 forward $292 $-1 #
vertex $-1 $204 $372 #
straight-curve $-1 47.468489638966034 -4.8113264677863619 66.154018269823553 0 0 1 I I #
straight-curve $-1 -32.152360251134468 -4.8113264677863619 52.687186649546604 0.83867056331134215 0 -0.54463904215088732 I I #
edge $-1 $366 -12.022252755138265 $207 -4.8113264677863619 $302 $373 forward 7 unknown #
point $-1 47.468489638966034 -4.8113264677863619 5.6569041520099432 #
point $-1 40.267922656115005 -4.8113264677863619 5.6569041520099432 #
edge $-1 $374 1 $374 0 $210 $-1 forward 7 unknown #
vertex $-1 $211 $375 #
ellipse-curve $-1 43.323567105389614 -9.9619881016091494 2.4801821081511308 0.54463904215088732 0 0.83867056331134215 0.41933528165567108 0 -0.27231952107544366 1 I I #
point $-1 44.287541429196175 -9.9619881016091494 3.0465331503870292 #
edge $-1 $376 1 $376 0 $214 $-1 forward 7 unknown #
vertex $-1 $215 $377 #
ellipse-curve $-1 43.323567105389614 -6.8715911213154772 2.4801821081511308 0.54463904215088732 0 0.83867056331134215 0.41933528165567108 0 -0.27231952107544366 1 I I #
point $-1 44.287541429196175 -6.8715911213154772 3.0465331503870292 #
plane-surface $-1 47.468489638966034 0 0 -1 0 0 0 0 1 forward_v I I I I #
coedge $-1 $223 $221 $225 $323 reversed $141 $-1 #
edge $-1 $236 -5.6569041520099432 $325 5.6569041520099432 $235 $378 forward 7 unknown #
vertex $-1 $323 $379 #
straight-curve $-1 -47.468489638966034 -20.105187737828494 0 0 0 -1 I I #
edge $-1 $321 -20.105187737828494 $325 20.105187737828494 $319 $380 forward 7 unknown #
straight-curve $-1 0 -20.105187737828494 -5.6569041520099432 -1 0 0 I I #
vertex $-1 $228 $381 #
straight-curve $-1 0 20.105187737828494 -5.6569041520099432 1 0 0 I I #
point $-1 47.468489638966034 20.105187737828494 -5.6569041520099432 #
point $-1 47.468489638966034 -20.105187737828494 -5.6569041520099432 #
straight-curve $-1 -47.468489638966034 0 5.6569041520099432 0 -1 0 I I #
point $-1 -47.468489638966034 20.105187737828494 5.6569041520099432 #
point $-1 -47.468489638966034 -20.105187737828494 5.6569041520099432 #
straight-curve $-1 47.468489638966034 -20.105187737828494 0 0 0 -1 I I #
straight-curve $-1 47.468489638966034 20.105187737828494 0 0 0 -1 I I #
loop $-1 $-1 $251 $245 #
plane-surface $-1 0 -20.105187737828494 0 0 1 0 0 0 1 forward_v I I I I #
coedge $-1 $262 $253 $249 $338 forward $246 $-1 #
edge $-1 $342 -11.20090725826973 $257 -6.6076537008477985 $248 $382 forward 7 unknown #
edge $-1 $258 6.6076537008477985 $341 11.20090725826973 $336 $383 forward 7 unknown #
coedge $-1 $260 $251 $265 $351 reversed $334 $-1 #
coedge $-1 $251 $260 $262 $349 reversed $334 $-1 #
vertex $-1 $349 $384 #
vertex $-1 $252 $385 #
straight-curve $-1 -36.154681334946147 -20.105187737828494 0 0 0 1 I I #
straight-curve $-1 -18.827340667473074 -15.511934180406563 -5.6569041520099432 1 0 0 I I #
straight-curve $-1 -18.827340667473074 -15.511934180406563 5.6569041520099432 -1 0 0 I I #
point $-1 -36.154681334946147 -15.511934180406563 5.6569041520099432 #
point $-1 -36.154681334946147 -15.511934180406563 -5.6569041520099432 #
straight-curve $-1 -39.154681334946147 -20.105187737828494 0 0 0 -1 I I #
edge $-1 $341 36.154681334946147 $263 39.154681334946147 $340 $386 forward 7 unknown #
point $-1 -39.154681334946147 -20.105187737828494 -5.6569041520099432 #
edge $-1 $266 -39.154681334946147 $342 -36.154681334946147 $339 $387 forward 7 unknown #
point $-1 -39.154681334946147 -20.105187737828494 5.6569041520099432 #
edge $-1 $354 34.790626062567469 $357 40.063593901830849 $271 $388 forward 7 unknown #
vertex $-1 $285 $389 #
straight-curve $-1 -48.888712255362115 -2.3873156660899824 5.6569041520099432 -1 0 0 I I #
edge $-1 $357 -1.362417448379162 $282 8.8618836773174507 $281 $390 forward 7 unknown #
vertex $-1 $356 $391 #
straight-curve $-1 -47.468489638966027 -2.3873156660899824 0.38393631274657025 0.84804809178421925 0 0.52991927123019833 I I #
point $-1 -39.029977290196719 -2.3873156660899824 5.6569041520099432 #
point $-1 -47.468489638966034 -12.611616791786595 0.38393631274656581 #
straight-curve $-1 -47.468489638966034 0 5.6569041520099432 0 -1 0 I I #
vertex $-1 $288 $392 #
point $-1 -41.122897564444123 -7.4994662289382887 2.4481913683482275 #
coedge $-1 $303 $302 $295 $365 forward $292 $-1 #
edge $-1 $366 60.497114117813609 $369 65.173217078908507 $364 $393 forward 7 unknown #
vertex $-1 $307 $394 #
straight-curve $-1 9.7770126037485454 -12.022252755138265 5.6569041520099432 1 0 0 I I #
edge $-1 $369 -7.8138579494071081 $304 -0.60293166205520521 $303 $395 forward 7 unknown #
vertex $-1 $368 $396 #
straight-curve $-1 -32.152360251134468 -12.022252755138265 52.687186649546604 -0.83867056331134215 0 0.54463904215088732 I I #
point $-1 40.267922656115005 -12.022252755138265 5.6569041520099432 #
point $-1 47.468489638966034 -4.8113264677863619 0.98080119091504514 #
straight-curve $-1 47.468489638966034 0 5.6569041520099432 0 1 0 I I #
vertex $-1 $310 $397 #
point $-1 43.742902387045284 -9.9619881016091494 2.2078625870756872 #
vertex $-1 $314 $398 #
point $-1 43.742902387045284 -6.8715911213154772 2.2078625870756872 #
straight-curve $-1 -47.468489638966034 20.105187737828494 0 0 0 -1 I I #
point $-1 -47.468489638966034 -20.105187737828494 -5.6569041520099432 #
straight-curve $-1 -47.468489638966034 0 -5.6569041520099432 0 1 0 I I #
point $-1 -47.468489638966034 20.105187737828494 -5.6569041520099432 #
straight-curve $-1 -36.154681334946147 -8.9042804795587642 5.6569041520099432 0 1 0 I I #
straight-curve $-1 -36.154681334946147 -8.9042804795587642 -5.6569041520099432 0 -1 0 I I #
point $-1 -36.154681334946147 -20.105187737828494 -5.6569041520099432 #
point $-1 -36.154681334946147 -20.105187737828494 5.6569041520099432 #
straight-curve $-1 0 -20.105187737828494 -5.6569041520099432 -1 0 0 I I #
straight-curve $-1 0 -20.105187737828494 5.6569041520099432 1 0 0 I I #
straight-curve $-1 -47.468489638966034 -2.3873156660899824 40.447530214577412 0 0 -1 I I #
point $-1 -47.468489638966034 -2.3873156660899824 5.6569041520099432 #
straight-curve $-1 -47.468489638966034 -3.7497331144691444 0.38393631274656814 0 -1 0 I I #
point $-1 -47.468489638966034 -2.3873156660899824 0.38393631274656581 #
point $-1 -41.600090795275158 -7.4994662289382887 0.381240323826601 #
straight-curve $-1 47.468489638966034 -12.022252755138265 66.154018269823553 0 0 -1 I I #
point $-1 47.468489638966034 -12.022252755138265 5.6569041520099432 #
straight-curve $-1 47.468489638966034 -4.2083948057311567 0.98080119091504869 0 1 0 I I #
point $-1 47.468489638966034 -12.022252755138265 0.98080119091504514 #
point $-1 43.051247584314169 -9.9619881016091494 2.0608468264954594 #
point $-1 43.051247584314169 -6.8715911213154772 2.0608468264954594 #
End-of-ACIS-data 