500 0 16 0           
7 Unknown 11 ACIS 5.0 NT 24 Fri Mar 26 19:42:34 1999 
-1 9.9999999999999995e-007 1e-010 
body $-1 $16 $-1 $17 #
body $-1 $18 $-1 $19 #
body $-1 $20 $-1 $21 #
body $-1 $22 $-1 $23 #
body $-1 $24 $-1 $25 #
body $-1 $26 $-1 $27 #
body $-1 $28 $-1 $29 #
body $-1 $30 $-1 $31 #
body $-1 $32 $-1 $33 #
body $-1 $34 $-1 $35 #
body $-1 $36 $-1 $37 #
body $-1 $38 $-1 $39 #
body $-1 $40 $-1 $41 #
body $-1 $42 $-1 $43 #
body $-1 $44 $-1 $45 #
body $-1 $46 $-1 $47 #
lump $-1 $-1 $48 $0 #
transform $-1 1 0 0 0 1 0 0 0 1 52.449110385448776 32.972173980830085 14.848999986740234 1 rotate no_reflect no_shear #
lump $-1 $-1 $49 $1 #
transform $-1 1 0 0 0 1 0 0 0 1 52.449110385448776 32.972173980830085 14.848999986740234 1 rotate no_reflect no_shear #
lump $-1 $-1 $50 $2 #
transform $-1 1 0 0 0 1 0 0 0 1 52.449110385448776 32.972173980830085 14.848999986740234 1 rotate no_reflect no_shear #
lump $-1 $-1 $51 $3 #
transform $-1 1 0 0 0 1 0 0 0 1 52.449110385448776 32.972173980830085 14.848999986740234 1 rotate no_reflect no_shear #
lump $-1 $-1 $52 $4 #
transform $-1 1 0 0 0 1 0 0 0 1 52.449110385448776 32.972173980830085 14.848999986740234 1 rotate no_reflect no_shear #
lump $-1 $-1 $53 $5 #
transform $-1 1 0 0 0 1 0 0 0 1 52.449110385448776 32.972173980830085 14.848999986740234 1 rotate no_reflect no_shear #
lump $-1 $-1 $54 $6 #
transform $-1 1 0 0 0 1 0 0 0 1 52.449110385448776 32.972173980830085 14.848999986740234 1 rotate no_reflect no_shear #
lump $-1 $-1 $55 $7 #
transform $-1 1 0 0 0 1 0 0 0 1 52.449110385448776 32.972173980830085 14.848999986740234 1 rotate no_reflect no_shear #
lump $-1 $-1 $56 $8 #
transform $-1 1 0 0 0 1 0 0 0 1 52.449110385448776 32.972173980830085 14.848999986740234 1 rotate no_reflect no_shear #
lump $-1 $-1 $57 $9 #
transform $-1 1 0 0 0 1 0 0 0 1 52.449110385448776 32.972173980830085 14.848999986740234 1 rotate no_reflect no_shear #
lump $-1 $-1 $58 $10 #
transform $-1 1 0 0 0 1 0 0 0 1 52.449110385448776 32.972173980830085 14.848999986740234 1 rotate no_reflect no_shear #
lump $-1 $-1 $59 $11 #
transform $-1 1 0 0 0 1 0 0 0 1 52.449110385448776 32.972173980830085 14.848999986740234 1 rotate no_reflect no_shear #
lump $-1 $-1 $60 $12 #
transform $-1 1 0 0 0 1 0 0 0 1 52.449110385448776 32.972173980830085 14.848999986740234 1 rotate no_reflect no_shear #
lump $-1 $-1 $61 $13 #
transform $-1 1 0 0 0 1 0 0 0 1 52.449110385448776 32.972173980830085 14.848999986740234 1 rotate no_reflect no_shear #
lump $-1 $-1 $62 $14 #
transform $-1 1 0 0 0 1 0 0 0 1 52.449110385448776 32.972173980830085 14.848999986740234 1 rotate no_reflect no_shear #
lump $-1 $-1 $63 $15 #
transform $-1 1 0 0 0 1 0 0 0 1 52.449110385448776 32.972173980830085 14.848999986740234 1 rotate no_reflect no_shear #
shell $-1 $-1 $-1 $64 $-1 $16 #
shell $-1 $-1 $-1 $65 $-1 $18 #
shell $-1 $-1 $-1 $66 $-1 $20 #
shell $-1 $-1 $-1 $67 $-1 $22 #
shell $-1 $-1 $-1 $68 $-1 $24 #
shell $-1 $-1 $-1 $69 $-1 $26 #
shell $-1 $-1 $-1 $70 $-1 $28 #
shell $-1 $-1 $-1 $71 $-1 $30 #
shell $-1 $-1 $-1 $72 $-1 $32 #
shell $-1 $-1 $-1 $73 $-1 $34 #
shell $-1 $-1 $-1 $74 $-1 $36 #
shell $-1 $-1 $-1 $75 $-1 $38 #
shell $-1 $-1 $-1 $76 $-1 $40 #
shell $-1 $-1 $-1 $77 $-1 $42 #
shell $-1 $-1 $-1 $78 $-1 $44 #
shell $-1 $-1 $-1 $79 $-1 $46 #
face $-1 $80 $81 $48 $-1 $82 reversed single #
face $-1 $83 $84 $49 $-1 $85 forward single #
face $-1 $86 $87 $50 $-1 $88 reversed single #
face $-1 $89 $90 $51 $-1 $91 forward single #
face $-1 $92 $93 $52 $-1 $94 forward single #
face $-1 $95 $96 $53 $-1 $97 reversed single #
face $-1 $98 $99 $54 $-1 $100 forward single #
face $-1 $101 $102 $55 $-1 $103 forward single #
face $-1 $104 $105 $56 $-1 $106 reversed single #
face $-1 $107 $108 $57 $-1 $109 forward single #
face $-1 $110 $111 $58 $-1 $112 forward single #
face $-1 $113 $114 $59 $-1 $115 forward single #
face $-1 $116 $117 $60 $-1 $118 reversed single #
face $-1 $119 $120 $61 $-1 $121 forward single #
face $-1 $122 $123 $62 $-1 $124 forward single #
face $-1 $125 $126 $63 $-1 $127 forward single #
face $-1 $128 $129 $48 $-1 $130 forward single #
loop $-1 $-1 $131 $64 #
plane-surface $-1 0 -32.972173980830085 0 0 1 0 0 0 1 forward_v I I I I #
face $-1 $132 $133 $49 $-1 $134 forward single #
loop $-1 $-1 $135 $65 #
plane-surface $-1 0 -32.972173980830085 0 0 1 0 0 0 1 forward_v I I I I #
face $-1 $136 $137 $50 $-1 $138 reversed single #
loop $-1 $-1 $139 $66 #
plane-surface $-1 52.449112106669759 1.3887626519684773 150.19344018436692 0 -1 0 -0.70710678939079041 0 -0.70710677298230451 forward_v I I I I #
face $-1 $140 $141 $51 $-1 $142 forward single #
loop $-1 $143 $144 $67 #
cone-surface $-1 44.637600803866157 -6.5938286771713948 7.0374902846642637 -0.70710678939079041 0 -0.70710677298230451 1.0606601594734568 0 -1.0606601840861856 1 I I 0 1 1.5 forward I I I I #
face $-1 $145 $146 $52 $-1 $147 forward single #
loop $-1 $148 $149 $68 #
cone-surface $-1 44.637600803866157 -1.8042738796874715 7.0374902846642637 -0.70710678939079041 0 -0.70710677298230451 1.0606601594734568 0 -1.0606601840861856 1 I I 0 1 1.5 forward I I I I #
face $-1 $150 $151 $53 $-1 $152 reversed single #
loop $-1 $-1 $153 $69 #
plane-surface $-1 52.449112106669759 25.312812440310655 150.19344018436692 0 -1 0 -0.70710678939079041 0 -0.70710677298230451 forward_v I I I I #
face $-1 $154 $155 $54 $-1 $156 forward single #
loop $-1 $157 $158 $70 #
cone-surface $-1 44.637600803866157 17.330221111170779 7.0374902846642637 -0.70710678939079041 0 -0.70710677298230451 1.0606601594734568 0 -1.0606601840861856 1 I I 0 1 1.5 forward I I I I #
face $-1 $159 $160 $55 $-1 $161 forward single #
loop $-1 $162 $163 $71 #
cone-surface $-1 44.637600803866157 22.119775908654709 7.0374902846642637 -0.70710678939079041 0 -0.70710677298230451 1.0606601594734568 0 -1.0606601840861856 1 I I 0 1 1.5 forward I I I I #
face $-1 $164 $165 $56 $-1 $166 reversed single #
loop $-1 $-1 $167 $72 #
plane-surface $-1 -112.61625881021385 -14.875925595854268 92.600089620479679 0 1 0 -0.57357644374324357 0 0.81915203911291934 forward_v I I I I #
face $-1 $168 $169 $57 $-1 $170 forward single #
loop $-1 $171 $172 $73 #
cone-surface $-1 -45.866139590125051 -12.710887977710875 9.6977163785895861 0.57357644374324357 0 -0.81915203911291934 0.81915203911291934 0 0.57357644374324357 1 I I 0 1 1 forward I I I I #
face $-1 $173 $174 $58 $-1 $175 forward single #
loop $-1 $176 $177 $74 #
cone-surface $-1 -45.866139590125051 -9.4633315504957842 9.6977163785895861 0.57357644374324357 0 -0.81915203911291934 0.81915203911291934 0 0.57357644374324357 1 I I 0 1 1 forward I I I I #
face $-1 $178 $179 $59 $-1 $180 forward single #
loop $-1 $181 $182 $75 #
cone-surface $-1 -45.866139590125051 -6.215775123280693 9.6977163785895861 0.57357644374324357 0 -0.81915203911291934 0.81915203911291934 0 0.57357644374324357 1 I I 0 1 1 forward I I I I #
face $-1 $183 $184 $60 $-1 $185 reversed single #
loop $-1 $-1 $186 $76 #
plane-surface $-1 -112.61625881021385 9.0481241924879132 92.600089620479679 0 1 0 -0.57357644374324357 0 0.81915203911291934 forward_v I I I I #
face $-1 $187 $188 $61 $-1 $189 forward single #
loop $-1 $190 $191 $77 #
cone-surface $-1 -45.866139590125051 11.213161810631298 9.6977163785895861 0.57357644374324357 0 -0.81915203911291934 0.81915203911291934 0 0.57357644374324357 1 I I 0 1 1 forward I I I I #
face $-1 $192 $193 $62 $-1 $194 forward single #
loop $-1 $195 $196 $78 #
cone-surface $-1 -45.866139590125051 14.460718237846393 9.6977163785895861 0.57357644374324357 0 -0.81915203911291934 0.81915203911291934 0 0.57357644374324357 1 I I 0 1 1 forward I I I I #
face $-1 $197 $198 $63 $-1 $199 forward single #
loop $-1 $200 $201 $79 #
cone-surface $-1 -45.866139590125051 17.708274665061488 9.6977163785895861 0.57357644374324357 0 -0.81915203911291934 0.81915203911291934 0 0.57357644374324357 1 I I 0 1 1 forward I I I I #
face $-1 $202 $203 $48 $-1 $204 reversed single #
loop $-1 $-1 $205 $80 #
plane-surface $-1 0 0 14.848999986740234 0 0 1 1 0 0 forward_v I I I I #
coedge $-1 $206 $207 $208 $209 reversed $81 $-1 #
face $-1 $210 $211 $49 $-1 $212 reversed single #
loop $-1 $-1 $213 $83 #
plane-surface $-1 0 0 14.848999986740234 0 0 1 1 0 0 forward_v I I I I #
coedge $-1 $214 $215 $216 $217 forward $84 $-1 #
face $-1 $218 $219 $50 $-1 $220 reversed single #
loop $-1 $-1 $221 $86 #
plane-surface $-1 -21.725131995445935 -4.1990512784294332 76.01919780347221 0.70710678939079041 0 0.70710677298230451 0.70710677298230451 0 -0.70710678939079041 forward_v I I I I #
coedge $-1 $222 $223 $224 $225 reversed $87 $-1 #
face $-1 $-1 $226 $51 $-1 $227 forward single #
loop $-1 $228 $229 $89 #
cone-surface $-1 42.797784122052178 -6.5938286771713948 5.1976736455434231 -0.70710678939079041 0 -0.70710677298230451 0.53033007973672841 0 -0.53033009204309278 1 I I -0.70710678118654757 0.70710678118654757 0.75 forward I I I I #
loop $-1 $-1 $230 $67 #
coedge $-1 $144 $144 $231 $232 reversed $90 $-1 #
face $-1 $-1 $233 $52 $-1 $234 forward single #
loop $-1 $235 $236 $92 #
cone-surface $-1 42.797784122052178 -1.8042738796874715 5.1976736455434231 -0.70710678939079041 0 -0.70710677298230451 0.53033007973672841 0 -0.53033009204309278 1 I I -0.70710678118654757 0.70710678118654757 0.75 forward I I I I #
loop $-1 $-1 $237 $68 #
coedge $-1 $149 $149 $238 $239 reversed $93 $-1 #
face $-1 $240 $241 $53 $-1 $242 reversed single #
loop $-1 $-1 $243 $95 #
plane-surface $-1 -21.725131995445935 19.724998509912744 76.01919780347221 0.70710678939079041 0 0.70710677298230451 0.70710677298230451 0 -0.70710678939079041 forward_v I I I I #
coedge $-1 $244 $245 $246 $247 reversed $96 $-1 #
face $-1 $-1 $248 $54 $-1 $249 forward single #
loop $-1 $250 $251 $98 #
cone-surface $-1 42.797784122052178 17.330221111170779 5.1976736455434231 -0.70710678939079041 0 -0.70710677298230451 0.53033007973672841 0 -0.53033009204309278 1 I I -0.70710678118654757 0.70710678118654757 0.75 forward I I I I #
loop $-1 $-1 $252 $70 #
coedge $-1 $158 $158 $253 $254 reversed $99 $-1 #
face $-1 $-1 $255 $55 $-1 $256 forward single #
loop $-1 $257 $258 $101 #
cone-surface $-1 42.797784122052178 22.119775908654709 5.1976736455434231 -0.70710678939079041 0 -0.70710677298230451 0.53033007973672841 0 -0.53033009204309278 1 I I -0.70710678118654757 0.70710678118654757 0.75 forward I I I I #
loop $-1 $-1 $259 $71 #
coedge $-1 $163 $163 $260 $261 reversed $102 $-1 #
face $-1 $262 $263 $56 $-1 $264 reversed single #
loop $-1 $-1 $265 $104 #
plane-surface $-1 -52.449110385448783 -9.4633315504957807 6.6724981766817564 -0.57357644374324357 0 0.81915203911291934 0.81915203911291934 0 0.57357644374324357 forward_v I I I I #
coedge $-1 $266 $267 $268 $269 reversed $105 $-1 #
face $-1 $-1 $270 $57 $-1 $271 forward single #
loop $-1 $272 $273 $107 #
cone-surface $-1 -44.835007841867977 -12.710887977710875 8.2251076559117191 0.57357644374324357 0 -0.81915203911291934 0.40957601955645967 0 0.28678822187162178 1 I I -0.70710678118654746 0.70710678118654746 0.5 forward I I I I #
loop $-1 $-1 $274 $73 #
coedge $-1 $172 $172 $275 $276 reversed $108 $-1 #
face $-1 $-1 $277 $58 $-1 $278 forward single #
loop $-1 $279 $280 $110 #
cone-surface $-1 -44.835007841867977 -9.4633315504957842 8.2251076559117191 0.57357644374324357 0 -0.81915203911291934 0.40957601955645967 0 0.28678822187162178 1 I I -0.70710678118654746 0.70710678118654746 0.5 forward I I I I #
loop $-1 $-1 $281 $74 #
coedge $-1 $177 $177 $282 $283 reversed $111 $-1 #
face $-1 $-1 $284 $59 $-1 $285 forward single #
loop $-1 $286 $287 $113 #
cone-surface $-1 -44.835007841867977 -6.215775123280693 8.2251076559117191 0.57357644374324357 0 -0.81915203911291934 0.40957601955645967 0 0.28678822187162178 1 I I -0.70710678118654746 0.70710678118654746 0.5 forward I I I I #
loop $-1 $-1 $288 $75 #
coedge $-1 $182 $182 $289 $290 reversed $114 $-1 #
face $-1 $291 $292 $60 $-1 $293 reversed single #
loop $-1 $-1 $294 $116 #
plane-surface $-1 -52.449110385448783 14.4607182378464 6.6724981766817564 -0.57357644374324357 0 0.81915203911291934 0.81915203911291934 0 0.57357644374324357 forward_v I I I I #
coedge $-1 $295 $296 $297 $298 reversed $117 $-1 #
face $-1 $-1 $299 $61 $-1 $300 forward single #
loop $-1 $301 $302 $119 #
cone-surface $-1 -44.835007841867977 11.213161810631298 8.2251076559117191 0.57357644374324357 0 -0.81915203911291934 0.40957601955645967 0 0.28678822187162178 1 I I -0.70710678118654746 0.70710678118654746 0.5 forward I I I I #
loop $-1 $-1 $303 $77 #
coedge $-1 $191 $191 $304 $305 reversed $120 $-1 #
face $-1 $-1 $306 $62 $-1 $307 forward single #
loop $-1 $308 $309 $122 #
cone-surface $-1 -44.835007841867977 14.460718237846393 8.2251076559117191 0.57357644374324357 0 -0.81915203911291934 0.40957601955645967 0 0.28678822187162178 1 I I -0.70710678118654746 0.70710678118654746 0.5 forward I I I I #
loop $-1 $-1 $310 $78 #
coedge $-1 $196 $196 $311 $312 reversed $123 $-1 #
face $-1 $-1 $313 $63 $-1 $314 forward single #
loop $-1 $315 $316 $125 #
cone-surface $-1 -44.835007841867977 17.708274665061488 8.2251076559117191 0.57357644374324357 0 -0.81915203911291934 0.40957601955645967 0 0.28678822187162178 1 I I -0.70710678118654746 0.70710678118654746 0.5 forward I I I I #
loop $-1 $-1 $317 $79 #
coedge $-1 $201 $201 $318 $319 reversed $126 $-1 #
face $-1 $320 $321 $48 $-1 $322 reversed single #
loop $-1 $-1 $323 $128 #
plane-surface $-1 0 0 -14.848999986740234 0 0 1 1 0 0 forward_v I I I I #
coedge $-1 $324 $325 $326 $327 forward $129 $-1 #
coedge $-1 $328 $131 $329 $330 reversed $81 $-1 #
coedge $-1 $131 $328 $331 $332 forward $81 $-1 #
coedge $-1 $333 $323 $131 $209 forward $203 $-1 #
edge $-1 $334 -52.449110385448776 $335 52.449110385448776 $131 $336 forward 7 unknown #
face $-1 $337 $338 $49 $-1 $339 reversed single #
loop $-1 $-1 $340 $132 #
plane-surface $-1 -52.449110385448776 0 0 1 0 0 0 0 -1 forward_v I I I I #
coedge $-1 $341 $342 $215 $343 forward $133 $-1 #
coedge $-1 $344 $135 $345 $346 reversed $84 $-1 #
coedge $-1 $135 $344 $213 $343 reversed $84 $-1 #
coedge $-1 $347 $348 $135 $217 reversed $349 $-1 #
edge $-1 $350 -14.848999986740234 $351 14.848999986740234 $216 $352 forward 7 unknown #
face $-1 $353 $354 $50 $-1 $355 forward single #
loop $-1 $-1 $356 $136 #
plane-surface $-1 52.449112106669759 -9.7868652088273436 150.19344018436692 0 1 0 0.70710678939079041 0 0.70710677298230451 forward_v I I I I #
coedge $-1 $357 $358 $359 $360 reversed $137 $-1 #
coedge $-1 $223 $139 $361 $362 reversed $87 $-1 #
coedge $-1 $139 $222 $357 $363 reversed $87 $-1 #
coedge $-1 $359 $364 $139 $225 forward $354 $-1 #
edge $-1 $365 -26.224554332113897 $366 -13.220508348490426 $224 $367 forward 7 unknown #
loop $-1 $-1 $231 $140 #
plane-surface $-1 -21.725131995445935 -4.1990512784294332 76.01919780347221 0.70710678939079041 0 0.70710677298230451 0.70710677298230451 0 -0.70710678939079041 forward_v I I I I #
loop $-1 $-1 $368 $89 #
coedge $-1 $229 $229 $230 $369 reversed $141 $-1 #
coedge $-1 $230 $230 $229 $369 forward $143 $-1 #
coedge $-1 $231 $231 $144 $232 forward $226 $-1 #
edge $-1 $370 0 $370 6.2831853071796004 $231 $371 forward 7 unknown #
loop $-1 $-1 $238 $145 #
plane-surface $-1 -21.725131995445935 -4.1990512784294332 76.01919780347221 0.70710678939079041 0 0.70710677298230451 0.70710677298230451 0 -0.70710678939079041 forward_v I I I I #
loop $-1 $-1 $372 $92 #
coedge $-1 $236 $236 $237 $373 reversed $146 $-1 #
coedge $-1 $237 $237 $236 $373 forward $148 $-1 #
coedge $-1 $238 $238 $149 $239 forward $233 $-1 #
edge $-1 $374 0 $374 6.2831853071796004 $238 $375 forward 7 unknown #
face $-1 $376 $377 $53 $-1 $378 reversed single #
loop $-1 $-1 $379 $150 #
plane-surface $-1 52.449112106669759 14.137184579514834 150.19344018436692 0 1 0 0.70710678939079041 0 0.70710677298230451 forward_v I I I I #
coedge $-1 $380 $381 $382 $383 reversed $151 $-1 #
coedge $-1 $245 $153 $384 $385 reversed $96 $-1 #
coedge $-1 $153 $244 $380 $386 reversed $96 $-1 #
coedge $-1 $382 $387 $153 $247 forward $388 $-1 #
edge $-1 $389 -26.224554332113897 $390 -13.220508348490426 $246 $391 forward 7 unknown #
loop $-1 $-1 $253 $154 #
plane-surface $-1 -21.725131995445935 19.724998509912744 76.01919780347221 0.70710678939079041 0 0.70710677298230451 0.70710677298230451 0 -0.70710678939079041 forward_v I I I I #
loop $-1 $-1 $392 $98 #
coedge $-1 $251 $251 $252 $393 reversed $155 $-1 #
coedge $-1 $252 $252 $251 $393 forward $157 $-1 #
coedge $-1 $253 $253 $158 $254 forward $248 $-1 #
edge $-1 $394 0 $394 6.2831853071796004 $253 $395 forward 7 unknown #
loop $-1 $-1 $260 $159 #
plane-surface $-1 -21.725131995445935 19.724998509912744 76.01919780347221 0.70710678939079041 0 0.70710677298230451 0.70710677298230451 0 -0.70710678939079041 forward_v I I I I #
loop $-1 $-1 $396 $101 #
coedge $-1 $258 $258 $259 $397 reversed $160 $-1 #
coedge $-1 $259 $259 $258 $397 forward $162 $-1 #
coedge $-1 $260 $260 $163 $261 forward $255 $-1 #
edge $-1 $398 0 $398 6.2831853071796004 $260 $399 forward 7 unknown #
face $-1 $400 $401 $56 $-1 $402 reversed single #
loop $-1 $-1 $403 $164 #
plane-surface $-1 -112.61625881021385 -4.0507375051372936 92.600089620479679 0 -1 0 0.57357644374324357 0 -0.81915203911291934 forward_v I I I I #
coedge $-1 $404 $405 $406 $407 reversed $165 $-1 #
coedge $-1 $267 $167 $408 $409 reversed $105 $-1 #
coedge $-1 $167 $266 $404 $410 reversed $105 $-1 #
coedge $-1 $406 $411 $167 $269 forward $412 $-1 #
edge $-1 $413 3.8590190196581489 $414 15.536273557534678 $268 $415 forward 7 unknown #
loop $-1 $-1 $275 $168 #
plane-surface $-1 -52.449110385448783 -9.4633315504957807 6.6724981766817564 -0.57357644374324357 0 0.81915203911291934 0.81915203911291934 0 0.57357644374324357 forward_v I I I I #
loop $-1 $-1 $416 $107 #
coedge $-1 $273 $273 $274 $417 reversed $169 $-1 #
coedge $-1 $274 $274 $273 $417 forward $171 $-1 #
coedge $-1 $275 $275 $172 $276 forward $270 $-1 #
edge $-1 $418 0 $418 6.2831853071796004 $275 $419 forward 7 unknown #
loop $-1 $-1 $282 $173 #
plane-surface $-1 -52.449110385448783 -9.4633315504957807 6.6724981766817564 -0.57357644374324357 0 0.81915203911291934 0.81915203911291934 0 0.57357644374324357 forward_v I I I I #
loop $-1 $-1 $420 $110 #
coedge $-1 $280 $280 $281 $421 reversed $174 $-1 #
coedge $-1 $281 $281 $280 $421 forward $176 $-1 #
coedge $-1 $282 $282 $177 $283 forward $277 $-1 #
edge $-1 $422 0 $422 6.2831853071796004 $282 $423 forward 7 unknown #
loop $-1 $-1 $289 $178 #
plane-surface $-1 -52.449110385448783 -9.4633315504957807 6.6724981766817564 -0.57357644374324357 0 0.81915203911291934 0.81915203911291934 0 0.57357644374324357 forward_v I I I I #
loop $-1 $-1 $424 $113 #
coedge $-1 $287 $287 $288 $425 reversed $179 $-1 #
coedge $-1 $288 $288 $287 $425 forward $181 $-1 #
coedge $-1 $289 $289 $182 $290 forward $284 $-1 #
edge $-1 $426 0 $426 6.2831853071796004 $289 $427 forward 7 unknown #
face $-1 $428 $429 $60 $-1 $430 forward single #
loop $-1 $-1 $431 $183 #
plane-surface $-1 -112.61625881021385 19.873312283204889 92.600089620479679 0 -1 0 0.57357644374324357 0 -0.81915203911291934 forward_v I I I I #
coedge $-1 $432 $433 $434 $435 reversed $184 $-1 #
coedge $-1 $296 $186 $436 $437 reversed $117 $-1 #
coedge $-1 $186 $295 $432 $438 reversed $117 $-1 #
coedge $-1 $434 $439 $186 $298 forward $429 $-1 #
edge $-1 $440 3.8590190196581489 $441 15.536273557534678 $297 $442 forward 7 unknown #
loop $-1 $-1 $304 $187 #
plane-surface $-1 -52.449110385448783 14.4607182378464 6.6724981766817564 -0.57357644374324357 0 0.81915203911291934 0.81915203911291934 0 0.57357644374324357 forward_v I I I I #
loop $-1 $-1 $443 $119 #
coedge $-1 $302 $302 $303 $444 reversed $188 $-1 #
coedge $-1 $303 $303 $302 $444 forward $190 $-1 #
coedge $-1 $304 $304 $191 $305 forward $299 $-1 #
edge $-1 $445 0 $445 6.2831853071796004 $304 $446 forward 7 unknown #
loop $-1 $-1 $311 $192 #
plane-surface $-1 -52.449110385448783 14.4607182378464 6.6724981766817564 -0.57357644374324357 0 0.81915203911291934 0.81915203911291934 0 0.57357644374324357 forward_v I I I I #
loop $-1 $-1 $447 $122 #
coedge $-1 $309 $309 $310 $448 reversed $193 $-1 #
coedge $-1 $310 $310 $309 $448 forward $195 $-1 #
coedge $-1 $311 $311 $196 $312 forward $306 $-1 #
edge $-1 $449 0 $449 6.2831853071796004 $311 $450 forward 7 unknown #
loop $-1 $-1 $318 $197 #
plane-surface $-1 -52.449110385448783 14.4607182378464 6.6724981766817564 -0.57357644374324357 0 0.81915203911291934 0.81915203911291934 0 0.57357644374324357 forward_v I I I I #
loop $-1 $-1 $451 $125 #
coedge $-1 $316 $316 $317 $452 reversed $198 $-1 #
coedge $-1 $317 $317 $316 $452 forward $200 $-1 #
coedge $-1 $318 $318 $201 $319 forward $313 $-1 #
edge $-1 $453 0 $453 6.2831853071796004 $318 $454 forward 7 unknown #
face $-1 $455 $456 $48 $-1 $457 reversed single #
loop $-1 $-1 $458 $202 #
plane-surface $-1 -52.449110385448776 0 0 1 0 0 0 0 -1 forward_v I I I I #
coedge $-1 $208 $459 $460 $461 forward $203 $-1 #
coedge $-1 $462 $205 $463 $464 forward $129 $-1 #
coedge $-1 $205 $462 $328 $465 forward $129 $-1 #
coedge $-1 $329 $466 $205 $327 reversed $467 $-1 #
edge $-1 $468 -32.972173980830085 $469 32.972173980830085 $326 $470 forward 7 unknown #
coedge $-1 $207 $206 $325 $465 reversed $81 $-1 #
coedge $-1 $460 $326 $206 $330 forward $467 $-1 #
edge $-1 $468 -14.848999986740234 $334 14.848999986740234 $329 $471 forward 7 unknown #
coedge $-1 $472 $473 $207 $332 reversed $321 $-1 #
edge $-1 $474 -14.848999986740234 $335 14.848999986740234 $331 $475 forward 7 unknown #
coedge $-1 $459 $208 $473 $476 forward $203 $-1 #
vertex $-1 $330 $477 #
vertex $-1 $476 $478 #
straight-curve $-1 0 -32.972173980830085 -14.848999986740234 -1 0 0 I I #
face $-1 $479 $349 $49 $-1 $480 reversed single #
loop $-1 $-1 $481 $210 #
plane-surface $-1 -49.225218335347492 -51.068422365805901 0 0 1 0 0 0 1 forward_v I I I I #
coedge $-1 $482 $483 $344 $484 forward $211 $-1 #
coedge $-1 $485 $213 $483 $486 forward $133 $-1 #
coedge $-1 $213 $485 $347 $487 forward $133 $-1 #
edge $-1 $350 46.001326285246208 $488 52.449110385448776 $213 $489 forward 7 unknown #
coedge $-1 $215 $214 $340 $484 reversed $84 $-1 #
coedge $-1 $490 $491 $214 $346 forward $492 $-1 #
edge $-1 $493 -52.449110385448776 $351 -46.001326285246208 $345 $494 forward 7 unknown #
coedge $-1 $495 $216 $342 $487 reversed $349 $-1 #
coedge $-1 $216 $495 $490 $496 reversed $349 $-1 #
loop $-1 $-1 $495 $337 #
vertex $-1 $343 $497 #
vertex $-1 $496 $498 #
straight-curve $-1 -46.001326285246208 -32.972173980830085 0 0 0 -1 I I #
face $-1 $-1 $499 $50 $-1 $500 reversed single #
loop $-1 $-1 $224 $218 #
plane-surface $-1 0 0 14.848999986740234 0 0 1 1 0 0 forward_v I I I I #
coedge $-1 $501 $502 $503 $504 reversed $219 $-1 #
coedge $-1 $505 $221 $223 $363 forward $137 $-1 #
coedge $-1 $221 $505 $501 $506 forward $137 $-1 #
coedge $-1 $503 $224 $221 $360 forward $354 $-1 #
edge $-1 $366 -3.4882882911831938 $507 7.687339569612627 $359 $508 forward 7 unknown #
coedge $-1 $509 $510 $222 $362 forward $499 $-1 #
edge $-1 $511 -73.25176639082693 $365 -60.247720105443229 $361 $512 forward 7 unknown #
edge $-1 $366 86.50772236175716 $511 104.89822077089757 $223 $513 forward 7 unknown #
coedge $-1 $224 $503 $509 $514 forward $354 $-1 #
vertex $-1 $362 $515 #
vertex $-1 $225 $516 #
straight-curve $-1 26.224556053334879 1.3887626519684773 14.848999986740239 -1 0 0 I I #
coedge $-1 $368 $368 $-1 $517 reversed $228 $-1 #
edge $-1 $518 0 $518 6.2831853071796004 $229 $519 forward 7 unknown #
vertex $-1 $232 $520 #
ellipse-curve $-1 45.947087393637048 -6.5938286771713948 8.3469768440483847 0.70710678939079041 0 0.70710677298230451 1.0606601594734568 0 -1.0606601840861856 1 I I #
coedge $-1 $372 $372 $-1 $521 reversed $235 $-1 #
edge $-1 $522 0 $522 6.2831853071796004 $236 $523 forward 7 unknown #
vertex $-1 $239 $524 #
ellipse-curve $-1 45.947087393637048 -1.8042738796874715 8.3469768440483847 0.70710678939079041 0 0.70710677298230451 1.0606601594734568 0 -1.0606601840861856 1 I I #
face $-1 $-1 $388 $53 $-1 $525 forward single #
loop $-1 $-1 $526 $240 #
plane-surface $-1 52.449110385448776 0 0 -1 0 0 0 0 1 forward_v I I I I #
coedge $-1 $527 $528 $529 $530 reversed $241 $-1 #
coedge $-1 $531 $243 $245 $386 forward $151 $-1 #
coedge $-1 $243 $531 $527 $532 forward $151 $-1 #
coedge $-1 $529 $246 $243 $383 forward $388 $-1 #
edge $-1 $390 -15.450313185354283 $533 -4.2746853245584617 $382 $534 forward 7 unknown #
coedge $-1 $535 $536 $244 $385 forward $377 $-1 #
edge $-1 $537 -73.25176639082693 $389 -60.247720105443229 $384 $538 forward 7 unknown #
edge $-1 $390 86.50772236175716 $537 104.89822077089757 $245 $539 forward 7 unknown #
coedge $-1 $246 $529 $535 $540 forward $388 $-1 #
loop $-1 $-1 $529 $376 #
vertex $-1 $385 $541 #
vertex $-1 $247 $542 #
straight-curve $-1 26.224556053334879 25.312812440310655 14.848999986740239 -1 0 0 I I #
coedge $-1 $392 $392 $-1 $543 reversed $250 $-1 #
edge $-1 $544 0 $544 6.2831853071796004 $251 $545 forward 7 unknown #
vertex $-1 $254 $546 #
ellipse-curve $-1 45.947087393637048 17.330221111170779 8.3469768440483847 0.70710678939079041 0 0.70710677298230451 1.0606601594734568 0 -1.0606601840861856 1 I I #
coedge $-1 $396 $396 $-1 $547 reversed $257 $-1 #
edge $-1 $548 0 $548 6.2831853071796004 $258 $549 forward 7 unknown #
vertex $-1 $261 $550 #
ellipse-curve $-1 45.947087393637048 22.119775908654709 8.3469768440483847 0.70710678939079041 0 0.70710677298230451 1.0606601594734568 0 -1.0606601840861856 1 I I #
face $-1 $-1 $412 $56 $-1 $551 forward single #
loop $-1 $-1 $552 $262 #
plane-surface $-1 -52.449110385448776 0 0 1 0 0 0 0 -1 forward_v I I I I #
coedge $-1 $553 $554 $555 $556 reversed $263 $-1 #
coedge $-1 $557 $265 $267 $410 forward $165 $-1 #
coedge $-1 $265 $557 $553 $558 forward $165 $-1 #
coedge $-1 $555 $268 $265 $407 forward $412 $-1 #
edge $-1 $414 -10.144259820606377 $559 0.68092827011059676 $406 $560 forward 7 unknown #
coedge $-1 $561 $562 $266 $409 forward $401 $-1 #
edge $-1 $563 -39.627546633558076 $413 -31.451044823499608 $408 $564 forward 7 unknown #
edge $-1 $414 -14.25529569641569 $563 -8.8770546250341341e-015 $267 $565 forward 7 unknown #
coedge $-1 $268 $555 $561 $566 forward $412 $-1 #
loop $-1 $-1 $555 $400 #
vertex $-1 $409 $567 #
vertex $-1 $269 $568 #
straight-curve $-1 -56.308129405106925 -14.875925595854268 14.848999986740232 1 0 0 I I #
coedge $-1 $416 $416 $-1 $569 reversed $272 $-1 #
edge $-1 $570 0 $570 6.2831853071796004 $273 $571 forward 7 unknown #
vertex $-1 $276 $572 #
ellipse-curve $-1 -46.610483116510508 -12.710887977710875 10.760749081710999 -0.57357644374324357 0 0.81915203911291934 0.81915203911291934 0 0.57357644374324357 1 I I #
coedge $-1 $420 $420 $-1 $573 reversed $279 $-1 #
edge $-1 $574 0 $574 6.2831853071796004 $280 $575 forward 7 unknown #
vertex $-1 $283 $576 #
ellipse-curve $-1 -46.610483116510508 -9.4633315504957842 10.760749081710999 -0.57357644374324357 0 0.81915203911291934 0.81915203911291934 0 0.57357644374324357 1 I I #
coedge $-1 $424 $424 $-1 $577 reversed $286 $-1 #
edge $-1 $578 0 $578 6.2831853071796004 $287 $579 forward 7 unknown #
vertex $-1 $290 $580 #
ellipse-curve $-1 -46.610483116510508 -6.215775123280693 10.760749081710999 -0.57357644374324357 0 0.81915203911291934 0.81915203911291934 0 0.57357644374324357 1 I I #
face $-1 $-1 $581 $60 $-1 $582 reversed single #
loop $-1 $-1 $297 $291 #
plane-surface $-1 0 0 14.848999986740234 0 0 1 1 0 0 forward_v I I I I #
coedge $-1 $583 $584 $585 $586 reversed $292 $-1 #
coedge $-1 $587 $294 $296 $438 forward $184 $-1 #
coedge $-1 $294 $587 $583 $588 forward $184 $-1 #
coedge $-1 $585 $297 $294 $435 forward $429 $-1 #
edge $-1 $441 1.8177650735647131 $589 12.642953164281689 $434 $590 forward 7 unknown #
coedge $-1 $591 $592 $295 $437 forward $581 $-1 #
edge $-1 $593 -39.627546633558076 $440 -31.451044823499608 $436 $594 forward 7 unknown #
edge $-1 $441 -14.25529569641569 $593 -8.8770546250341341e-015 $296 $595 forward 7 unknown #
coedge $-1 $297 $585 $591 $596 forward $429 $-1 #
vertex $-1 $437 $597 #
vertex $-1 $298 $598 #
straight-curve $-1 -56.308129405106925 9.0481241924879132 14.848999986740232 1 0 0 I I #
coedge $-1 $443 $443 $-1 $599 reversed $301 $-1 #
edge $-1 $600 0 $600 6.2831853071796004 $302 $601 forward 7 unknown #
vertex $-1 $305 $602 #
ellipse-curve $-1 -46.610483116510508 11.213161810631298 10.760749081710999 -0.57357644374324357 0 0.81915203911291934 0.81915203911291934 0 0.57357644374324357 1 I I #
coedge $-1 $447 $447 $-1 $603 reversed $308 $-1 #
edge $-1 $604 0 $604 6.2831853071796004 $309 $605 forward 7 unknown #
vertex $-1 $312 $606 #
ellipse-curve $-1 -46.610483116510508 14.460718237846393 10.760749081710999 -0.57357644374324357 0 0.81915203911291934 0.81915203911291934 0 0.57357644374324357 1 I I #
coedge $-1 $451 $451 $-1 $607 reversed $315 $-1 #
edge $-1 $608 0 $608 6.2831853071796004 $316 $609 forward 7 unknown #
vertex $-1 $319 $610 #
ellipse-curve $-1 -46.610483116510508 17.708274665061488 10.760749081710999 -0.57357644374324357 0 0.81915203911291934 0.81915203911291934 0 0.57357644374324357 1 I I #
face $-1 $-1 $467 $48 $-1 $611 reversed single #
loop $-1 $-1 $612 $320 #
plane-surface $-1 0 32.972173980830085 0 0 -1 0 0 0 -1 forward_v I I I I #
coedge $-1 $473 $472 $613 $614 forward $321 $-1 #
coedge $-1 $323 $333 $615 $616 forward $203 $-1 #
coedge $-1 $466 $329 $323 $461 reversed $467 $-1 #
edge $-1 $617 -32.972173980830085 $334 32.972173980830085 $460 $618 forward 7 unknown #
coedge $-1 $325 $324 $472 $619 forward $129 $-1 #
coedge $-1 $612 $613 $324 $464 reversed $456 $-1 #
edge $-1 $469 -52.449110385448776 $620 52.449110385448776 $463 $621 forward 7 unknown #
edge $-1 $474 -52.449110385448776 $468 52.449110385448776 $328 $622 forward 7 unknown #
coedge $-1 $326 $460 $612 $623 reversed $467 $-1 #
loop $-1 $-1 $329 $455 #
vertex $-1 $327 $624 #
vertex $-1 $327 $625 #
straight-curve $-1 52.449110385448776 0 14.848999986740234 0 1 0 I I #
straight-curve $-1 52.449110385448776 -32.972173980830085 0 0 0 -1 I I #
coedge $-1 $458 $331 $462 $619 reversed $321 $-1 #
coedge $-1 $331 $458 $333 $476 reversed $321 $-1 #
vertex $-1 $619 $626 #
straight-curve $-1 -52.449110385448776 -32.972173980830085 0 0 0 -1 I I #
edge $-1 $335 -32.972173980830085 $627 32.972173980830085 $473 $628 forward 7 unknown #
point $-1 52.449110385448776 -32.972173980830085 -14.848999986740234 #
point $-1 -52.449110385448776 -32.972173980830085 -14.848999986740234 #
face $-1 $-1 $492 $49 $-1 $629 reversed single #
plane-surface $-1 -46.001326285246208 -42.020298173317997 0 -1 0 0 0 0 1 forward_v I I I I #
coedge $-1 $630 $631 $632 $633 forward $338 $-1 #
coedge $-1 $632 $340 $491 $634 reversed $211 $-1 #
coedge $-1 $340 $632 $341 $486 reversed $211 $-1 #
edge $-1 $488 -14.848999986740234 $493 14.848999986740234 $340 $635 forward 7 unknown #
coedge $-1 $342 $341 $631 $636 forward $133 $-1 #
edge $-1 $488 32.972173980830085 $637 51.068422365805901 $483 $638 forward 7 unknown #
edge $-1 $639 -9.0481241924879043 $350 9.0481241924879043 $347 $640 forward 7 unknown #
vertex $-1 $486 $641 #
straight-curve $-1 0 -32.972173980830085 14.848999986740234 -1 0 0 I I #
coedge $-1 $642 $345 $348 $496 forward $492 $-1 #
coedge $-1 $345 $642 $482 $634 forward $492 $-1 #
loop $-1 $-1 $345 $479 #
vertex $-1 $484 $643 #
straight-curve $-1 0 -32.972173980830085 -14.848999986740234 1 0 0 I I #
coedge $-1 $348 $347 $644 $645 forward $349 $-1 #
edge $-1 $351 -9.0481241924879043 $646 9.0481241924879043 $348 $647 forward 7 unknown #
point $-1 -46.001326285246208 -32.972173980830092 14.848999986740234 #
point $-1 -46.001326285246208 -32.972173980830092 -14.848999986740234 #
loop $-1 $-1 $361 $353 #
plane-surface $-1 52.449110385448776 0 0 -1 0 0 0 0 1 forward_v I I I I #
coedge $-1 $502 $356 $358 $506 reversed $219 $-1 #
coedge $-1 $356 $501 $648 $649 reversed $219 $-1 #
coedge $-1 $364 $359 $356 $504 forward $354 $-1 #
edge $-1 $507 13.220508348490426 $650 26.224554332113897 $503 $651 forward 7 unknown #
coedge $-1 $358 $357 $510 $652 reversed $137 $-1 #
edge $-1 $653 -104.89822077089757 $507 -86.50772236175716 $501 $654 forward 7 unknown #
vertex $-1 $360 $655 #
straight-curve $-1 39.445064401825306 -2.0995256392147166 14.848999986740225 0 -1 0 I I #
coedge $-1 $648 $361 $364 $514 reversed $499 $-1 #
coedge $-1 $361 $648 $505 $652 forward $499 $-1 #
vertex $-1 $362 $656 #
straight-curve $-1 52.449110385448776 1.3887626519684773 75.09672009218346 0 0 1 I I #
straight-curve $-1 -21.725131995445935 1.3887626519684773 76.01919780347221 0.70710677298230451 0 -0.70710678939079041 I I #
edge $-1 $650 -9.7868652088273436 $365 1.3887626519684773 $509 $657 forward 7 unknown #
point $-1 52.449110385448776 1.3887626519684773 14.848999986740234 #
point $-1 39.445064401825306 1.3887626519684773 14.848999986740232 #
edge $-1 $658 1 $658 0 $368 $-1 forward 7 unknown #
vertex $-1 $369 $659 #
ellipse-curve $-1 43.328114214095272 -6.5938286771713948 5.7280037252801517 0.70710678939079041 0 0.70710677298230451 1.0606601594734568 0 -1.0606601840861856 1 I I #
point $-1 47.007747553110491 -6.5938286771713948 7.28631665996219 #
edge $-1 $660 1 $660 0 $372 $-1 forward 7 unknown #
vertex $-1 $373 $661 #
ellipse-curve $-1 43.328114214095272 -1.8042738796874715 5.7280037252801517 0.70710678939079041 0 0.70710677298230451 1.0606601594734568 0 -1.0606601840861856 1 I I #
point $-1 47.007747553110491 -1.8042738796874715 7.28631665996219 #
plane-surface $-1 0 0 14.848999986740234 0 0 1 1 0 0 forward_v I I I I #
coedge $-1 $536 $535 $528 $662 forward $377 $-1 #
coedge $-1 $528 $379 $381 $532 reversed $241 $-1 #
coedge $-1 $379 $527 $526 $662 reversed $241 $-1 #
coedge $-1 $387 $382 $379 $530 forward $388 $-1 #
edge $-1 $533 13.220508348490426 $663 26.224554332113897 $529 $664 forward 7 unknown #
coedge $-1 $381 $380 $536 $665 reversed $151 $-1 #
edge $-1 $666 -104.89822077089757 $533 -86.50772236175716 $527 $667 forward 7 unknown #
vertex $-1 $383 $668 #
straight-curve $-1 39.445064401825306 9.8624992549563721 14.848999986740225 0 -1 0 I I #
coedge $-1 $526 $384 $387 $540 reversed $377 $-1 #
coedge $-1 $384 $526 $531 $665 forward $377 $-1 #
vertex $-1 $385 $669 #
straight-curve $-1 52.449110385448776 25.312812440310655 75.09672009218346 0 0 1 I I #
straight-curve $-1 -21.725131995445935 25.312812440310655 76.01919780347221 0.70710677298230451 0 -0.70710678939079041 I I #
edge $-1 $663 14.137184579514834 $389 25.312812440310655 $535 $670 forward 7 unknown #
point $-1 52.449110385448776 25.312812440310655 14.848999986740234 #
point $-1 39.445064401825306 25.312812440310655 14.848999986740232 #
edge $-1 $671 1 $671 0 $392 $-1 forward 7 unknown #
vertex $-1 $393 $672 #
ellipse-curve $-1 43.328114214095272 17.330221111170779 5.7280037252801517 0.70710678939079041 0 0.70710677298230451 1.0606601594734568 0 -1.0606601840861856 1 I I #
point $-1 47.007747553110491 17.330221111170779 7.28631665996219 #
edge $-1 $673 1 $673 0 $396 $-1 forward 7 unknown #
vertex $-1 $397 $674 #
ellipse-curve $-1 43.328114214095272 22.119775908654709 5.7280037252801517 0.70710678939079041 0 0.70710677298230451 1.0606601594734568 0 -1.0606601840861856 1 I I #
point $-1 47.007747553110491 22.119775908654709 7.28631665996219 #
plane-surface $-1 0 0 14.848999986740234 0 0 1 1 0 0 forward_v I I I I #
coedge $-1 $562 $561 $554 $675 forward $401 $-1 #
coedge $-1 $554 $403 $405 $558 reversed $263 $-1 #
coedge $-1 $403 $553 $552 $675 reversed $263 $-1 #
coedge $-1 $411 $406 $403 $556 forward $412 $-1 #
edge $-1 $559 -15.536273557534678 $676 -3.8590190196581489 $555 $677 forward 7 unknown #
coedge $-1 $405 $404 $562 $678 reversed $165 $-1 #
edge $-1 $679 8.8770546250341341e-015 $559 14.25529569641569 $553 $680 forward 7 unknown #
vertex $-1 $407 $681 #
straight-curve $-1 -40.77185584757224 -4.7316657752478903 14.848999986740235 0 1 0 I I #
coedge $-1 $552 $408 $411 $566 reversed $401 $-1 #
coedge $-1 $408 $552 $557 $678 forward $401 $-1 #
vertex $-1 $409 $682 #
straight-curve $-1 -52.449110385448776 -14.875925595854268 46.300044810239839 0 0 1 I I #
straight-curve $-1 -52.449110385448783 -14.875925595854268 6.6724981766817564 -0.81915203911291934 0 -0.57357644374324357 I I #
edge $-1 $676 4.0507375051372936 $413 14.875925595854268 $561 $683 forward 7 unknown #
point $-1 -52.449110385448776 -14.875925595854268 14.848999986740234 #
point $-1 -40.771855847572247 -14.875925595854268 14.848999986740234 #
edge $-1 $684 1 $684 0 $416 $-1 forward 7 unknown #
vertex $-1 $417 $685 #
ellipse-curve $-1 -45.121796063739602 -12.710887977710875 8.6346836754681782 -0.57357644374324357 0 0.81915203911291934 0.81915203911291934 0 0.57357644374324357 1 I I #
point $-1 -45.791331077397587 -12.710887977710875 11.334325525454236 #
edge $-1 $686 1 $686 0 $420 $-1 forward 7 unknown #
vertex $-1 $421 $687 #
ellipse-curve $-1 -45.121796063739602 -9.4633315504957842 8.6346836754681782 -0.57357644374324357 0 0.81915203911291934 0.81915203911291934 0 0.57357644374324357 1 I I #
point $-1 -45.791331077397587 -9.4633315504957842 11.334325525454236 #
edge $-1 $688 1 $688 0 $424 $-1 forward 7 unknown #
vertex $-1 $425 $689 #
ellipse-curve $-1 -45.121796063739602 -6.215775123280693 8.6346836754681782 -0.57357644374324357 0 0.81915203911291934 0.81915203911291934 0 0.57357644374324357 1 I I #
point $-1 -45.791331077397587 -6.215775123280693 11.334325525454236 #
loop $-1 $-1 $436 $428 #
plane-surface $-1 -52.449110385448776 0 0 1 0 0 0 0 -1 forward_v I I I I #
coedge $-1 $584 $431 $433 $588 reversed $292 $-1 #
coedge $-1 $431 $583 $690 $691 reversed $292 $-1 #
coedge $-1 $439 $434 $431 $586 forward $429 $-1 #
edge $-1 $589 -15.536273557534678 $692 -3.8590190196581489 $585 $693 forward 7 unknown #
coedge $-1 $433 $432 $592 $694 reversed $184 $-1 #
edge $-1 $695 8.8770546250341341e-015 $589 14.25529569641569 $583 $696 forward 7 unknown #
vertex $-1 $435 $697 #
straight-curve $-1 -40.77185584757224 7.2303591189232002 14.848999986740235 0 1 0 I I #
coedge $-1 $690 $436 $439 $596 reversed $581 $-1 #
coedge $-1 $436 $690 $587 $694 forward $581 $-1 #
vertex $-1 $437 $698 #
straight-curve $-1 -52.449110385448776 9.0481241924879132 46.300044810239839 0 0 1 I I #
straight-curve $-1 -52.449110385448783 9.0481241924879132 6.6724981766817564 -0.81915203911291934 0 -0.57357644374324357 I I #
edge $-1 $692 -19.873312283204889 $440 -9.0481241924879132 $591 $699 forward 7 unknown #
point $-1 -52.449110385448776 9.0481241924879132 14.848999986740234 #
point $-1 -40.771855847572247 9.0481241924879132 14.848999986740234 #
edge $-1 $700 1 $700 0 $443 $-1 forward 7 unknown #
vertex $-1 $444 $701 #
ellipse-curve $-1 -45.121796063739602 11.213161810631298 8.6346836754681782 -0.57357644374324357 0 0.81915203911291934 0.81915203911291934 0 0.57357644374324357 1 I I #
point $-1 -45.791331077397587 11.213161810631298 11.334325525454236 #
edge $-1 $702 1 $702 0 $447 $-1 forward 7 unknown #
vertex $-1 $448 $703 #
ellipse-curve $-1 -45.121796063739602 14.460718237846393 8.6346836754681782 -0.57357644374324357 0 0.81915203911291934 0.81915203911291934 0 0.57357644374324357 1 I I #
point $-1 -45.791331077397587 14.460718237846393 11.334325525454236 #
edge $-1 $704 1 $704 0 $451 $-1 forward 7 unknown #
vertex $-1 $452 $705 #
ellipse-curve $-1 -45.121796063739602 17.708274665061488 8.6346836754681782 -0.57357644374324357 0 0.81915203911291934 0.81915203911291934 0 0.57357644374324357 1 I I #
point $-1 -45.791331077397587 17.708274665061488 11.334325525454236 #
plane-surface $-1 52.449110385448776 0 0 -1 0 0 0 0 1 forward_v I I I I #
coedge $-1 $615 $463 $466 $623 forward $456 $-1 #
coedge $-1 $463 $615 $458 $614 reversed $456 $-1 #
edge $-1 $620 -14.848999986740234 $627 14.848999986740234 $613 $706 forward 7 unknown #
coedge $-1 $613 $612 $459 $616 reversed $456 $-1 #
edge $-1 $627 -52.449110385448776 $617 52.449110385448776 $615 $707 forward 7 unknown #
vertex $-1 $461 $708 #
straight-curve $-1 52.449110385448776 0 -14.848999986740234 0 -1 0 I I #
edge $-1 $620 -32.972173980830085 $474 32.972173980830085 $472 $709 forward 7 unknown #
vertex $-1 $464 $710 #
straight-curve $-1 0 32.972173980830085 14.848999986740234 -1 0 0 I I #
straight-curve $-1 0 -32.972173980830085 14.848999986740234 1 0 0 I I #
edge $-1 $469 -14.848999986740234 $617 14.848999986740234 $466 $711 forward 7 unknown #
point $-1 52.449110385448776 -32.972173980830085 14.848999986740234 #
point $-1 52.449110385448776 32.972173980830085 14.848999986740234 #
point $-1 -52.449110385448776 -32.972173980830085 14.848999986740234 #
vertex $-1 $616 $712 #
straight-curve $-1 -52.449110385448776 0 -14.848999986740234 0 1 0 I I #
plane-surface $-1 0 0 -14.848999986740234 0 0 1 1 0 0 forward_v I I I I #
coedge $-1 $644 $481 $642 $713 reversed $338 $-1 #
coedge $-1 $481 $644 $485 $636 reversed $338 $-1 #
coedge $-1 $483 $482 $481 $633 reversed $211 $-1 #
edge $-1 $637 -14.848999986740234 $714 14.848999986740234 $632 $715 forward 7 unknown #
edge $-1 $714 -51.068422365805901 $493 -32.972173980830085 $482 $716 forward 7 unknown #
straight-curve $-1 -52.449110385448776 -32.972173980830085 0 0 0 -1 I I #
edge $-1 $637 -3.2238920501012842 $639 3.2238920501012842 $631 $717 forward 7 unknown #
vertex $-1 $486 $718 #
straight-curve $-1 -52.449110385448776 0 14.848999986740234 0 -1 0 I I #
vertex $-1 $487 $719 #
straight-curve $-1 -46.001326285246208 -42.020298173317997 14.848999986740234 0 1 0 I I #
point $-1 -52.449110385448776 -32.972173980830085 14.848999986740234 #
coedge $-1 $491 $490 $630 $713 forward $492 $-1 #
point $-1 -52.449110385448776 -32.972173980830085 -14.848999986740234 #
coedge $-1 $631 $630 $495 $645 reversed $338 $-1 #
edge $-1 $639 -14.848999986740234 $646 14.848999986740234 $495 $720 forward 7 unknown #
vertex $-1 $645 $721 #
straight-curve $-1 -46.001326285246208 -42.020298173317997 -14.848999986740234 0 -1 0 I I #
coedge $-1 $510 $509 $502 $649 forward $499 $-1 #
edge $-1 $650 60.247720105443229 $653 73.25176639082693 $648 $722 forward 7 unknown #
vertex $-1 $514 $723 #
straight-curve $-1 26.224556053334879 -9.7868652088273436 14.848999986740239 1 0 0 I I #
edge $-1 $653 -7.687339569612627 $511 3.4882882911831938 $510 $724 forward 7 unknown #
vertex $-1 $652 $725 #
straight-curve $-1 -21.725131995445935 -9.7868652088273436 76.01919780347221 -0.70710677298230451 0 0.70710678939079041 I I #
point $-1 39.445064401825306 -9.7868652088273436 14.848999986740232 #
point $-1 52.449110385448776 1.3887626519684773 1.8449537013565305 #
straight-curve $-1 52.449110385448776 0 14.848999986740234 0 1 0 I I #
vertex $-1 $517 $726 #
point $-1 44.388774373568729 -6.5938286771713948 4.6673435411939659 #
vertex $-1 $521 $727 #
point $-1 44.388774373568729 -1.8042738796874715 4.6673435411939659 #
edge $-1 $663 60.247720105443229 $666 73.25176639082693 $526 $728 forward 7 unknown #
vertex $-1 $540 $729 #
straight-curve $-1 26.224556053334879 14.137184579514834 14.848999986740239 1 0 0 I I #
edge $-1 $666 4.2746853245584617 $537 15.450313185354283 $536 $730 forward 7 unknown #
vertex $-1 $665 $731 #
straight-curve $-1 -21.725131995445935 14.137184579514834 76.01919780347221 -0.70710677298230451 0 0.70710678939079041 I I #
point $-1 39.445064401825306 14.137184579514834 14.848999986740232 #
point $-1 52.449110385448776 25.312812440310655 1.8449537013565305 #
straight-curve $-1 52.449110385448776 0 14.848999986740234 0 1 0 I I #
vertex $-1 $543 $732 #
point $-1 44.388774373568729 17.330221111170779 4.6673435411939659 #
vertex $-1 $547 $733 #
point $-1 44.388774373568729 22.119775908654709 4.6673435411939659 #
edge $-1 $676 31.451044823499608 $679 39.627546633558076 $552 $734 forward 7 unknown #
vertex $-1 $566 $735 #
straight-curve $-1 -56.308129405106925 -4.0507375051372936 14.848999986740232 -1 0 0 I I #
edge $-1 $679 -0.68092827011059676 $563 10.144259820606377 $562 $736 forward 7 unknown #
vertex $-1 $678 $737 #
straight-curve $-1 -52.449110385448783 -4.0507375051372936 6.6724981766817564 0.81915203911291934 0 0.57357644374324357 I I #
point $-1 -40.771855847572247 -4.0507375051372936 14.848999986740234 #
point $-1 -52.449110385448776 -14.875925595854268 6.6724981766817617 #
straight-curve $-1 -52.449110385448776 0 14.848999986740234 0 -1 0 I I #
vertex $-1 $569 $738 #
point $-1 -44.30264402462668 -12.710887977710875 9.2082601192114222 #
vertex $-1 $573 $739 #
point $-1 -44.30264402462668 -9.4633315504957842 9.2082601192114222 #
vertex $-1 $577 $740 #
point $-1 -44.30264402462668 -6.215775123280693 9.2082601192114222 #
coedge $-1 $592 $591 $584 $691 forward $581 $-1 #
edge $-1 $692 31.451044823499608 $695 39.627546633558076 $690 $741 forward 7 unknown #
vertex $-1 $596 $742 #
straight-curve $-1 -56.308129405106925 19.873312283204889 14.848999986740232 -1 0 0 I I #
edge $-1 $695 -12.642953164281689 $593 -1.8177650735647131 $592 $743 forward 7 unknown #
vertex $-1 $694 $744 #
straight-curve $-1 -52.449110385448783 19.873312283204889 6.6724981766817564 0.81915203911291934 0 0.57357644374324357 I I #
point $-1 -40.771855847572247 19.873312283204889 14.848999986740234 #
point $-1 -52.449110385448776 9.0481241924879132 6.6724981766817617 #
straight-curve $-1 -52.449110385448776 0 14.848999986740234 0 -1 0 I I #
vertex $-1 $599 $745 #
point $-1 -44.30264402462668 11.213161810631298 9.2082601192114222 #
vertex $-1 $603 $746 #
point $-1 -44.30264402462668 14.460718237846393 9.2082601192114222 #
vertex $-1 $607 $747 #
point $-1 -44.30264402462668 17.708274665061488 9.2082601192114222 #
straight-curve $-1 -52.449110385448776 32.972173980830085 0 0 0 -1 I I #
straight-curve $-1 0 32.972173980830085 -14.848999986740234 1 0 0 I I #
point $-1 52.449110385448776 32.972173980830085 -14.848999986740234 #
straight-curve $-1 -52.449110385448776 0 14.848999986740234 0 -1 0 I I #
point $-1 -52.449110385448776 32.972173980830085 14.848999986740234 #
straight-curve $-1 52.449110385448776 32.972173980830085 0 0 0 -1 I I #
point $-1 -52.449110385448776 32.972173980830085 -14.848999986740234 #
edge $-1 $646 -3.2238920501012842 $714 3.2238920501012842 $630 $748 forward 7 unknown #
vertex $-1 $634 $749 #
straight-curve $-1 -52.449110385448776 -51.068422365805901 0 0 0 -1 I I #
straight-curve $-1 -52.449110385448776 0 -14.848999986740234 0 1 0 I I #
straight-curve $-1 -49.225218335347492 -51.068422365805901 14.848999986740234 1 0 0 I I #
point $-1 -52.449110385448776 -51.068422365805901 14.848999986740234 #
point $-1 -46.001326285246208 -51.068422365805901 14.848999986740234 #
straight-curve $-1 -46.001326285246208 -51.068422365805901 0 0 0 -1 I I #
point $-1 -46.001326285246208 -51.068422365805901 -14.848999986740234 #
straight-curve $-1 52.449110385448776 -9.7868652088273436 75.09672009218346 0 0 -1 I I #
point $-1 52.449110385448776 -9.7868652088273436 14.848999986740234 #
straight-curve $-1 52.449110385448776 -2.0995256392147166 1.8449537013565092 0 1 0 I I #
point $-1 52.449110385448776 -9.7868652088273436 1.8449537013565305 #
point $-1 42.267454030009084 -6.5938286771713948 4.6673435658066946 #
point $-1 42.267454030009084 -1.8042738796874715 4.6673435658066946 #
straight-curve $-1 52.449110385448776 14.137184579514834 75.09672009218346 0 0 -1 I I #
point $-1 52.449110385448776 14.137184579514834 14.848999986740234 #
straight-curve $-1 52.449110385448776 9.8624992549563721 1.8449537013565092 0 1 0 I I #
point $-1 52.449110385448776 14.137184579514834 1.8449537013565305 #
point $-1 42.267454030009084 17.330221111170779 4.6673435658066946 #
point $-1 42.267454030009084 22.119775908654709 4.6673435658066946 #
straight-curve $-1 -52.449110385448776 -4.0507375051372936 46.300044810239839 0 0 -1 I I #
point $-1 -52.449110385448776 -4.0507375051372936 14.848999986740234 #
straight-curve $-1 -52.449110385448776 -4.7316657752478903 6.6724981766817582 0 -1 0 I I #
point $-1 -52.449110385448776 -4.0507375051372936 6.6724981766817617 #
point $-1 -44.548219619996352 -12.710887977710875 7.8155316363552592 #
point $-1 -44.548219619996352 -9.4633315504957842 7.8155316363552592 #
point $-1 -44.548219619996352 -6.215775123280693 7.8155316363552592 #
straight-curve $-1 -52.449110385448776 19.873312283204889 46.300044810239839 0 0 -1 I I #
point $-1 -52.449110385448776 19.873312283204889 14.848999986740234 #
straight-curve $-1 -52.449110385448776 7.2303591189232002 6.6724981766817582 0 -1 0 I I #
point $-1 -52.449110385448776 19.873312283204889 6.6724981766817617 #
point $-1 -44.548219619996352 11.213161810631298 7.8155316363552592 #
point $-1 -44.548219619996352 14.460718237846393 7.8155316363552592 #
point $-1 -44.548219619996352 17.708274665061488 7.8155316363552592 #
straight-curve $-1 -49.225218335347492 -51.068422365805901 -14.848999986740234 -1 0 0 I I #
point $-1 -52.449110385448776 -51.068422365805901 -14.848999986740234 #
End-of-ACIS-data 