500 0 14 0           
7 Unknown 11 ACIS 5.0 NT 24 Fri Mar 26 18:17:51 1999 
-1 9.9999999999999995e-007 1e-010 
body $-1 $14 $-1 $15 #
body $-1 $16 $-1 $17 #
body $-1 $18 $-1 $19 #
body $-1 $20 $-1 $21 #
body $-1 $22 $-1 $23 #
body $-1 $24 $-1 $25 #
body $-1 $26 $-1 $27 #
body $-1 $28 $-1 $29 #
body $-1 $30 $-1 $31 #
body $-1 $32 $-1 $33 #
body $-1 $34 $-1 $35 #
body $-1 $36 $-1 $37 #
body $-1 $38 $-1 $39 #
body $-1 $40 $-1 $41 #
lump $-1 $-1 $42 $0 #
transform $-1 1 0 0 0 1 0 0 0 1 72.356944486831253 50.105975053343094 18.800712365667984 1 rotate no_reflect no_shear #
lump $-1 $-1 $43 $1 #
transform $-1 1 0 0 0 1 0 0 0 1 72.356944486831253 50.105975053343094 18.800712365667984 1 rotate no_reflect no_shear #
lump $-1 $-1 $44 $2 #
transform $-1 1 0 0 0 1 0 0 0 1 72.356944486831253 50.105975053343094 18.800712365667984 1 rotate no_reflect no_shear #
lump $-1 $-1 $45 $3 #
transform $-1 1 0 0 0 1 0 0 0 1 72.356944486831253 50.105975053343094 18.800712365667984 1 rotate no_reflect no_shear #
lump $-1 $-1 $46 $4 #
transform $-1 1 0 0 0 1 0 0 0 1 72.356944486831253 50.105975053343094 18.800712365667984 1 rotate no_reflect no_shear #
lump $-1 $-1 $47 $5 #
transform $-1 1 0 0 0 1 0 0 0 1 72.356944486831253 50.105975053343094 18.800712365667984 1 rotate no_reflect no_shear #
lump $-1 $-1 $48 $6 #
transform $-1 1 0 0 0 1 0 0 0 1 72.356944486831253 50.105975053343094 18.800712365667984 1 rotate no_reflect no_shear #
lump $-1 $-1 $49 $7 #
transform $-1 1 0 0 0 1 0 0 0 1 72.356944486831253 50.105975053343094 18.800712365667984 1 rotate no_reflect no_shear #
lump $-1 $-1 $50 $8 #
transform $-1 1 0 0 0 1 0 0 0 1 72.356944486831253 50.105975053343094 18.800712365667984 1 rotate no_reflect no_shear #
lump $-1 $-1 $51 $9 #
transform $-1 1 0 0 0 1 0 0 0 1 72.356944486831253 50.105975053343094 18.800712365667984 1 rotate no_reflect no_shear #
lump $-1 $-1 $52 $10 #
transform $-1 1 0 0 0 1 0 0 0 1 72.356944486831253 50.105975053343094 18.800712365667984 1 rotate no_reflect no_shear #
lump $-1 $-1 $53 $11 #
transform $-1 1 0 0 0 1 0 0 0 1 72.356944486831253 50.105975053343094 18.800712365667984 1 rotate no_reflect no_shear #
lump $-1 $-1 $54 $12 #
transform $-1 1 0 0 0 1 0 0 0 1 72.356944486831253 50.105975053343094 18.800712365667984 1 rotate no_reflect no_shear #
lump $-1 $-1 $55 $13 #
transform $-1 1 0 0 0 1 0 0 0 1 72.356944486831253 50.105975053343094 18.800712365667984 1 rotate no_reflect no_shear #
shell $-1 $-1 $-1 $56 $-1 $14 #
shell $-1 $-1 $-1 $57 $-1 $16 #
shell $-1 $-1 $-1 $58 $-1 $18 #
shell $-1 $-1 $-1 $59 $-1 $20 #
shell $-1 $-1 $-1 $60 $-1 $22 #
shell $-1 $-1 $-1 $61 $-1 $24 #
shell $-1 $-1 $-1 $62 $-1 $26 #
shell $-1 $-1 $-1 $63 $-1 $28 #
shell $-1 $-1 $-1 $64 $-1 $30 #
shell $-1 $-1 $-1 $65 $-1 $32 #
shell $-1 $-1 $-1 $66 $-1 $34 #
shell $-1 $-1 $-1 $67 $-1 $36 #
shell $-1 $-1 $-1 $68 $-1 $38 #
shell $-1 $-1 $-1 $69 $-1 $40 #
face $-1 $70 $71 $42 $-1 $72 forward single #
face $-1 $73 $74 $43 $-1 $75 reversed single #
face $-1 $76 $77 $44 $-1 $78 reversed single #
face $-1 $79 $80 $45 $-1 $81 forward single #
face $-1 $82 $83 $46 $-1 $84 forward single #
face $-1 $85 $86 $47 $-1 $87 reversed single #
face $-1 $88 $89 $48 $-1 $90 forward single #
face $-1 $91 $92 $49 $-1 $93 forward single #
face $-1 $94 $95 $50 $-1 $96 reversed single #
face $-1 $97 $98 $51 $-1 $99 forward single #
face $-1 $100 $101 $52 $-1 $102 forward single #
face $-1 $103 $104 $53 $-1 $105 reversed single #
face $-1 $106 $107 $54 $-1 $108 forward single #
face $-1 $109 $110 $55 $-1 $111 forward single #
face $-1 $112 $113 $42 $-1 $114 reversed single #
loop $-1 $-1 $115 $56 #
plane-surface $-1 0 0 18.800712365667984 0 0 1 1 0 0 forward_v I I I I #
face $-1 $116 $117 $43 $-1 $118 reversed single #
loop $-1 $-1 $119 $57 #
plane-surface $-1 -61.026220413907879 0 11.889197090715644 0 0 1 1 0 0 forward_v I I I I #
face $-1 $120 $121 $44 $-1 $122 reversed single #
loop $-1 $-1 $123 $58 #
plane-surface $-1 -19.182386134030565 -172.83031423165323 88.909358809409241 -1 0 0 0 -0.84804810408105047 0.52991925155115449 forward_v I I I I #
face $-1 $124 $125 $45 $-1 $126 forward single #
loop $-1 $127 $128 $59 #
cone-surface $-1 -33.52262602880235 -46.887425286281839 14.784758867507431 0 0.84804810408105047 -0.52991925155115449 1 0 0 1 I I 0 1 1 forward I I I I #
face $-1 $129 $130 $46 $-1 $131 forward single #
loop $-1 $132 $133 $60 #
cone-surface $-1 -24.918482091939282 -46.887425286281839 14.784758867507431 0 0.84804810408105047 -0.52991925155115449 1 0 0 1 I I 0 1 1 forward I I I I #
face $-1 $134 $135 $47 $-1 $136 reversed single #
loop $-1 $-1 $137 $61 #
plane-surface $-1 7.8517992881655658 -172.83031423165323 88.909358809409241 -1 0 0 0 -0.84804810408105047 0.52991925155115449 forward_v I I I I #
face $-1 $138 $139 $48 $-1 $140 forward single #
loop $-1 $141 $142 $62 #
cone-surface $-1 -6.4884406066062184 -46.887425286281839 14.784758867507431 0 0.84804810408105047 -0.52991925155115449 1 0 0 1 I I 0 1 1 forward I I I I #
face $-1 $143 $144 $49 $-1 $145 forward single #
loop $-1 $146 $147 $63 #
cone-surface $-1 2.1157033302568493 -46.887425286281839 14.784758867507431 0 0.84804810408105047 -0.52991925155115449 1 0 0 1 I I 0 1 1 forward I I I I #
face $-1 $148 $149 $50 $-1 $150 reversed single #
loop $-1 $-1 $151 $64 #
plane-surface $-1 34.885984710361697 -172.83031423165323 88.909358809409241 -1 0 0 0 -0.84804810408105047 0.52991925155115449 forward_v I I I I #
face $-1 $152 $153 $51 $-1 $154 forward single #
loop $-1 $155 $156 $65 #
cone-surface $-1 20.545744815589913 -46.887425286281839 14.784758867507431 0 0.84804810408105047 -0.52991925155115449 1 0 0 1 I I 0 1 1 forward I I I I #
face $-1 $157 $158 $52 $-1 $159 forward single #
loop $-1 $160 $161 $66 #
cone-surface $-1 29.149888752452981 -46.887425286281839 14.784758867507431 0 0.84804810408105047 -0.52991925155115449 1 0 0 1 I I 0 1 1 forward I I I I #
face $-1 $162 $163 $53 $-1 $164 reversed single #
loop $-1 $-1 $165 $67 #
plane-surface $-1 61.920170132557828 -172.83031423165323 88.909358809409241 -1 0 0 0 -0.84804810408105047 0.52991925155115449 forward_v I I I I #
face $-1 $166 $167 $54 $-1 $168 forward single #
loop $-1 $169 $170 $68 #
cone-surface $-1 47.579930237786044 -46.887425286281839 14.784758867507431 0 0.84804810408105047 -0.52991925155115449 1 0 0 1 I I 0 1 1 forward I I I I #
face $-1 $171 $172 $55 $-1 $173 forward single #
loop $-1 $174 $175 $69 #
cone-surface $-1 56.184074174649112 -46.887425286281839 14.784758867507431 0 0.84804810408105047 -0.52991925155115449 1 0 0 1 I I 0 1 1 forward I I I I #
face $-1 $176 $177 $42 $-1 $178 reversed single #
loop $-1 $-1 $179 $70 #
plane-surface $-1 0 0 -18.800712365667984 0 0 1 1 0 0 forward_v I I I I #
coedge $-1 $180 $181 $182 $183 forward $71 $-1 #
face $-1 $184 $185 $43 $-1 $186 reversed single #
loop $-1 $-1 $187 $73 #
plane-surface $-1 -49.695496340984505 0 15.344954728191816 -1 0 0 0 0 1 forward_v I I I I #
coedge $-1 $188 $189 $190 $191 forward $74 $-1 #
face $-1 $192 $193 $44 $-1 $194 reversed single #
loop $-1 $-1 $195 $76 #
plane-surface $-1 -29.220554060370816 -50.105975053343116 12.222683075429131 0 -0.84804810408105047 0.52991925155115449 1 0 0 forward_v I I I I #
coedge $-1 $196 $197 $198 $199 reversed $77 $-1 #
face $-1 $-1 $200 $45 $-1 $201 forward single #
loop $-1 $202 $203 $79 #
cone-surface $-1 -33.52262602880235 -45.300055848505934 13.792860388690727 0 0.84804810408105047 -0.52991925155115449 0.5 0 0 1 I I -0.70710678118654746 0.70710678118654746 0.5 forward I I I I #
loop $-1 $-1 $204 $59 #
coedge $-1 $128 $128 $205 $206 reversed $80 $-1 #
face $-1 $-1 $207 $46 $-1 $208 forward single #
loop $-1 $209 $210 $82 #
cone-surface $-1 -24.918482091939282 -45.300055848505934 13.792860388690727 0 0.84804810408105047 -0.52991925155115449 0.5 0 0 1 I I -0.70710678118654746 0.70710678118654746 0.5 forward I I I I #
loop $-1 $-1 $211 $60 #
coedge $-1 $133 $133 $212 $213 reversed $83 $-1 #
face $-1 $214 $215 $47 $-1 $216 reversed single #
loop $-1 $-1 $217 $85 #
plane-surface $-1 -2.1863686381746845 -50.105975053343116 12.222683075429131 0 -0.84804810408105047 0.52991925155115449 1 0 0 forward_v I I I I #
coedge $-1 $218 $219 $220 $221 reversed $86 $-1 #
face $-1 $-1 $222 $48 $-1 $223 forward single #
loop $-1 $224 $225 $88 #
cone-surface $-1 -6.4884406066062184 -45.300055848505934 13.792860388690727 0 0.84804810408105047 -0.52991925155115449 0.5 0 0 1 I I -0.70710678118654746 0.70710678118654746 0.5 forward I I I I #
loop $-1 $-1 $226 $62 #
coedge $-1 $142 $142 $227 $228 reversed $89 $-1 #
face $-1 $-1 $229 $49 $-1 $230 forward single #
loop $-1 $231 $232 $91 #
cone-surface $-1 2.1157033302568493 -45.300055848505934 13.792860388690727 0 0.84804810408105047 -0.52991925155115449 0.5 0 0 1 I I -0.70710678118654746 0.70710678118654746 0.5 forward I I I I #
loop $-1 $-1 $233 $63 #
coedge $-1 $147 $147 $234 $235 reversed $92 $-1 #
face $-1 $236 $237 $50 $-1 $238 reversed single #
loop $-1 $-1 $239 $94 #
plane-surface $-1 24.847816784021447 -50.105975053343116 12.222683075429131 0 -0.84804810408105047 0.52991925155115449 1 0 0 forward_v I I I I #
coedge $-1 $240 $241 $242 $243 reversed $95 $-1 #
face $-1 $-1 $244 $51 $-1 $245 forward single #
loop $-1 $246 $247 $97 #
cone-surface $-1 20.545744815589913 -45.300055848505934 13.792860388690727 0 0.84804810408105047 -0.52991925155115449 0.5 0 0 1 I I -0.70710678118654746 0.70710678118654746 0.5 forward I I I I #
loop $-1 $-1 $248 $65 #
coedge $-1 $156 $156 $249 $250 reversed $98 $-1 #
face $-1 $-1 $251 $52 $-1 $252 forward single #
loop $-1 $253 $254 $100 #
cone-surface $-1 29.149888752452981 -45.300055848505934 13.792860388690727 0 0.84804810408105047 -0.52991925155115449 0.5 0 0 1 I I -0.70710678118654746 0.70710678118654746 0.5 forward I I I I #
loop $-1 $-1 $255 $66 #
coedge $-1 $161 $161 $256 $257 reversed $101 $-1 #
face $-1 $258 $259 $53 $-1 $260 reversed single #
loop $-1 $-1 $261 $103 #
plane-surface $-1 51.882002206217578 -50.105975053343116 12.222683075429131 0 -0.84804810408105047 0.52991925155115449 1 0 0 forward_v I I I I #
coedge $-1 $262 $263 $264 $265 reversed $104 $-1 #
face $-1 $-1 $266 $54 $-1 $267 forward single #
loop $-1 $268 $269 $106 #
cone-surface $-1 47.579930237786044 -45.300055848505934 13.792860388690727 0 0.84804810408105047 -0.52991925155115449 0.5 0 0 1 I I -0.70710678118654746 0.70710678118654746 0.5 forward I I I I #
loop $-1 $-1 $270 $68 #
coedge $-1 $170 $170 $271 $272 reversed $107 $-1 #
face $-1 $-1 $273 $55 $-1 $274 forward single #
loop $-1 $275 $276 $109 #
cone-surface $-1 56.184074174649112 -45.300055848505934 13.792860388690727 0 0.84804810408105047 -0.52991925155115449 0.5 0 0 1 I I -0.70710678118654746 0.70710678118654746 0.5 forward I I I I #
loop $-1 $-1 $277 $69 #
coedge $-1 $175 $175 $278 $279 reversed $110 $-1 #
face $-1 $280 $281 $42 $-1 $282 reversed single #
loop $-1 $-1 $283 $112 #
plane-surface $-1 0 -50.105975053343094 0 0 1 0 0 0 1 forward_v I I I I #
coedge $-1 $284 $285 $286 $287 forward $113 $-1 #
coedge $-1 $288 $115 $289 $290 forward $71 $-1 #
coedge $-1 $115 $288 $291 $292 forward $71 $-1 #
coedge $-1 $293 $294 $115 $183 reversed $295 $-1 #
edge $-1 $296 -50.105975053343094 $297 50.105975053343094 $182 $298 forward 7 unknown #
face $-1 $299 $300 $43 $-1 $301 reversed single #
loop $-1 $-1 $302 $116 #
plane-surface $-1 0 50.105975053343094 0 0 -1 0 0 0 -1 forward_v I I I I #
coedge $-1 $190 $303 $304 $305 reversed $117 $-1 #
coedge $-1 $306 $119 $307 $308 reversed $74 $-1 #
coedge $-1 $119 $306 $309 $310 reversed $74 $-1 #
coedge $-1 $311 $187 $119 $191 reversed $117 $-1 #
edge $-1 $312 -50.105975053343094 $313 50.105975053343094 $190 $314 forward 7 unknown #
face $-1 $315 $316 $44 $-1 $317 reversed single #
loop $-1 $-1 $318 $120 #
plane-surface $-1 -39.258721986711066 -172.83031423165323 88.909358809409241 1 0 0 0 0.84804810408105047 -0.52991925155115449 forward_v I I I I #
coedge $-1 $319 $320 $321 $322 reversed $121 $-1 #
coedge $-1 $197 $123 $323 $324 reversed $77 $-1 #
coedge $-1 $123 $196 $319 $325 reversed $77 $-1 #
coedge $-1 $321 $326 $123 $199 forward $327 $-1 #
edge $-1 $328 36.309182062483522 $329 40.419590825135245 $198 $330 forward 7 unknown #
loop $-1 $-1 $205 $124 #
plane-surface $-1 -29.220554060370816 -50.105975053343116 12.222683075429131 0 -0.84804810408105047 0.52991925155115449 1 0 0 forward_v I I I I #
loop $-1 $-1 $331 $79 #
coedge $-1 $203 $203 $204 $332 reversed $125 $-1 #
coedge $-1 $204 $204 $203 $332 forward $127 $-1 #
coedge $-1 $205 $205 $128 $206 forward $200 $-1 #
edge $-1 $333 -1.5080108043666962e-015 $333 6.2831853071795987 $205 $334 forward 7 unknown #
loop $-1 $-1 $212 $129 #
plane-surface $-1 -29.220554060370816 -50.105975053343116 12.222683075429131 0 -0.84804810408105047 0.52991925155115449 1 0 0 forward_v I I I I #
loop $-1 $-1 $335 $82 #
coedge $-1 $210 $210 $211 $336 reversed $130 $-1 #
coedge $-1 $211 $211 $210 $336 forward $132 $-1 #
coedge $-1 $212 $212 $133 $213 forward $207 $-1 #
edge $-1 $337 -1.5080108043666962e-015 $337 6.2831853071795987 $212 $338 forward 7 unknown #
face $-1 $339 $340 $47 $-1 $341 reversed single #
loop $-1 $-1 $342 $134 #
plane-surface $-1 -12.224536564514935 -172.83031423165323 88.909358809409241 1 0 0 0 0.84804810408105047 -0.52991925155115449 forward_v I I I I #
coedge $-1 $343 $344 $345 $346 reversed $135 $-1 #
coedge $-1 $219 $137 $347 $348 reversed $86 $-1 #
coedge $-1 $137 $218 $343 $349 reversed $86 $-1 #
coedge $-1 $345 $350 $137 $221 forward $351 $-1 #
edge $-1 $352 36.309182062483522 $353 40.419590825135245 $220 $354 forward 7 unknown #
loop $-1 $-1 $227 $138 #
plane-surface $-1 -2.1863686381746845 -50.105975053343116 12.222683075429131 0 -0.84804810408105047 0.52991925155115449 1 0 0 forward_v I I I I #
loop $-1 $-1 $355 $88 #
coedge $-1 $225 $225 $226 $356 reversed $139 $-1 #
coedge $-1 $226 $226 $225 $356 forward $141 $-1 #
coedge $-1 $227 $227 $142 $228 forward $222 $-1 #
edge $-1 $357 -1.5080108043666962e-015 $357 6.2831853071795987 $227 $358 forward 7 unknown #
loop $-1 $-1 $234 $143 #
plane-surface $-1 -2.1863686381746845 -50.105975053343116 12.222683075429131 0 -0.84804810408105047 0.52991925155115449 1 0 0 forward_v I I I I #
loop $-1 $-1 $359 $91 #
coedge $-1 $232 $232 $233 $360 reversed $144 $-1 #
coedge $-1 $233 $233 $232 $360 forward $146 $-1 #
coedge $-1 $234 $234 $147 $235 forward $229 $-1 #
edge $-1 $361 -1.5080108043666962e-015 $361 6.2831853071795987 $234 $362 forward 7 unknown #
face $-1 $363 $364 $50 $-1 $365 reversed single #
loop $-1 $-1 $366 $148 #
plane-surface $-1 14.809648857681196 -172.83031423165323 88.909358809409241 1 0 0 0 0.84804810408105047 -0.52991925155115449 forward_v I I I I #
coedge $-1 $367 $368 $369 $370 reversed $149 $-1 #
coedge $-1 $241 $151 $371 $372 reversed $95 $-1 #
coedge $-1 $151 $240 $367 $373 reversed $95 $-1 #
coedge $-1 $369 $374 $151 $243 forward $375 $-1 #
edge $-1 $376 36.309182062483522 $377 40.419590825135245 $242 $378 forward 7 unknown #
loop $-1 $-1 $249 $152 #
plane-surface $-1 24.847816784021447 -50.105975053343116 12.222683075429131 0 -0.84804810408105047 0.52991925155115449 1 0 0 forward_v I I I I #
loop $-1 $-1 $379 $97 #
coedge $-1 $247 $247 $248 $380 reversed $153 $-1 #
coedge $-1 $248 $248 $247 $380 forward $155 $-1 #
coedge $-1 $249 $249 $156 $250 forward $244 $-1 #
edge $-1 $381 -1.5080108043666962e-015 $381 6.2831853071795987 $249 $382 forward 7 unknown #
loop $-1 $-1 $256 $157 #
plane-surface $-1 24.847816784021447 -50.105975053343116 12.222683075429131 0 -0.84804810408105047 0.52991925155115449 1 0 0 forward_v I I I I #
loop $-1 $-1 $383 $100 #
coedge $-1 $254 $254 $255 $384 reversed $158 $-1 #
coedge $-1 $255 $255 $254 $384 forward $160 $-1 #
coedge $-1 $256 $256 $161 $257 forward $251 $-1 #
edge $-1 $385 -1.5080108043666962e-015 $385 6.2831853071795987 $256 $386 forward 7 unknown #
face $-1 $387 $388 $53 $-1 $389 reversed single #
loop $-1 $-1 $390 $162 #
plane-surface $-1 41.843834279877328 -172.83031423165323 88.909358809409241 1 0 0 0 0.84804810408105047 -0.52991925155115449 forward_v I I I I #
coedge $-1 $391 $392 $393 $394 reversed $163 $-1 #
coedge $-1 $263 $165 $395 $396 reversed $104 $-1 #
coedge $-1 $165 $262 $391 $397 reversed $104 $-1 #
coedge $-1 $393 $398 $165 $265 forward $399 $-1 #
edge $-1 $400 36.309182062483522 $401 40.419590825135245 $264 $402 forward 7 unknown #
loop $-1 $-1 $271 $166 #
plane-surface $-1 51.882002206217578 -50.105975053343116 12.222683075429131 0 -0.84804810408105047 0.52991925155115449 1 0 0 forward_v I I I I #
loop $-1 $-1 $403 $106 #
coedge $-1 $269 $269 $270 $404 reversed $167 $-1 #
coedge $-1 $270 $270 $269 $404 forward $169 $-1 #
coedge $-1 $271 $271 $170 $272 forward $266 $-1 #
edge $-1 $405 -1.5080108043666962e-015 $405 6.2831853071795987 $271 $406 forward 7 unknown #
loop $-1 $-1 $278 $171 #
plane-surface $-1 51.882002206217578 -50.105975053343116 12.222683075429131 0 -0.84804810408105047 0.52991925155115449 1 0 0 forward_v I I I I #
loop $-1 $-1 $407 $109 #
coedge $-1 $276 $276 $277 $408 reversed $172 $-1 #
coedge $-1 $277 $277 $276 $408 forward $174 $-1 #
coedge $-1 $278 $278 $175 $279 forward $273 $-1 #
edge $-1 $409 -1.5080108043666962e-015 $409 6.2831853071795987 $278 $410 forward 7 unknown #
face $-1 $411 $412 $42 $-1 $413 reversed single #
loop $-1 $-1 $414 $176 #
plane-surface $-1 -72.356944486831253 0 0 1 0 0 0 0 -1 forward_v I I I I #
coedge $-1 $415 $291 $416 $417 forward $177 $-1 #
coedge $-1 $418 $179 $415 $419 forward $113 $-1 #
coedge $-1 $179 $418 $420 $421 forward $113 $-1 #
coedge $-1 $294 $293 $179 $287 reversed $295 $-1 #
edge $-1 $422 -50.105975053343094 $423 50.105975053343094 $286 $424 forward 7 unknown #
coedge $-1 $181 $180 $425 $426 forward $71 $-1 #
coedge $-1 $427 $428 $180 $290 reversed $412 $-1 #
edge $-1 $297 -72.356944486831253 $429 72.356944486831253 $289 $430 forward 7 unknown #
coedge $-1 $283 $431 $181 $292 reversed $177 $-1 #
edge $-1 $432 -72.356944486831253 $296 72.356944486831253 $291 $433 forward 7 unknown #
coedge $-1 $286 $182 $431 $434 forward $295 $-1 #
coedge $-1 $182 $286 $427 $435 reversed $295 $-1 #
loop $-1 $-1 $293 $411 #
vertex $-1 $183 $436 #
vertex $-1 $183 $437 #
straight-curve $-1 72.356944486831253 0 18.800712365667984 0 1 0 I I #
face $-1 $438 $439 $43 $-1 $440 forward single #
loop $-1 $-1 $441 $184 #
plane-surface $-1 -72.356944486831253 0 0 1 0 0 0 0 -1 forward_v I I I I #
coedge $-1 $309 $442 $311 $443 forward $185 $-1 #
coedge $-1 $187 $311 $444 $445 reversed $117 $-1 #
coedge $-1 $446 $307 $187 $305 forward $447 $-1 #
edge $-1 $313 4.2167197266197363 $448 11.128235001572079 $304 $449 forward 7 unknown #
coedge $-1 $189 $188 $441 $450 reversed $74 $-1 #
coedge $-1 $304 $451 $188 $308 forward $447 $-1 #
edge $-1 $452 -41.843834279877314 $313 -19.182386134030565 $307 $453 forward 7 unknown #
coedge $-1 $454 $302 $189 $310 forward $185 $-1 #
edge $-1 $312 19.182386134030565 $455 41.843834279877314 $309 $456 forward 7 unknown #
coedge $-1 $303 $190 $302 $443 reversed $117 $-1 #
vertex $-1 $310 $457 #
vertex $-1 $308 $458 #
straight-curve $-1 -49.695496340984505 0 11.889197090715644 0 -1 0 I I #
face $-1 $-1 $327 $44 $-1 $459 forward single #
loop $-1 $-1 $460 $192 #
plane-surface $-1 0 -50.105975053343094 0 0 1 0 0 0 1 forward_v I I I I #
coedge $-1 $461 $462 $463 $464 reversed $193 $-1 #
coedge $-1 $465 $195 $197 $325 forward $121 $-1 #
coedge $-1 $195 $465 $461 $466 forward $121 $-1 #
coedge $-1 $463 $198 $195 $322 forward $327 $-1 #
edge $-1 $329 4.5721091038451576 $467 24.648444956525658 $321 $468 forward 7 unknown #
coedge $-1 $469 $470 $196 $324 forward $316 $-1 #
edge $-1 $471 -32.231996329275454 $328 -25.653967039036637 $323 $472 forward 7 unknown #
edge $-1 $329 -7.7566700032503961 $471 -3.9918193188544054e-014 $197 $473 forward 7 unknown #
coedge $-1 $198 $463 $469 $474 forward $327 $-1 #
loop $-1 $-1 $463 $315 #
vertex $-1 $324 $475 #
vertex $-1 $199 $476 #
straight-curve $-1 -19.182386134030565 -86.415157115826617 18.800712365667984 0 1 0 I I #
coedge $-1 $331 $331 $-1 $477 reversed $202 $-1 #
edge $-1 $478 0 $478 6.2831853071796004 $203 $479 forward 7 unknown #
vertex $-1 $206 $480 #
ellipse-curve $-1 -33.52262602880235 -48.050770672017237 15.51169772054857 0 -0.84804810408105047 0.52991925155115449 1 0 0 1 I I #
coedge $-1 $335 $335 $-1 $481 reversed $209 $-1 #
edge $-1 $482 0 $482 6.2831853071796004 $210 $483 forward 7 unknown #
vertex $-1 $213 $484 #
ellipse-curve $-1 -24.918482091939282 -48.050770672017237 15.51169772054857 0 -0.84804810408105047 0.52991925155115449 1 0 0 1 I I #
face $-1 $-1 $351 $47 $-1 $485 forward single #
loop $-1 $-1 $486 $214 #
plane-surface $-1 0 -50.105975053343094 0 0 1 0 0 0 1 forward_v I I I I #
coedge $-1 $487 $488 $489 $490 reversed $215 $-1 #
coedge $-1 $491 $217 $219 $349 forward $135 $-1 #
coedge $-1 $217 $491 $487 $492 forward $135 $-1 #
coedge $-1 $489 $220 $217 $346 forward $351 $-1 #
edge $-1 $353 -8.9449836072529081 $493 11.131352245427593 $345 $494 forward 7 unknown #
coedge $-1 $495 $496 $218 $348 forward $340 $-1 #
edge $-1 $497 -32.231996329275454 $352 -25.653967039036637 $347 $498 forward 7 unknown #
edge $-1 $353 -7.7566700032503961 $497 -3.9918193188544054e-014 $219 $499 forward 7 unknown #
coedge $-1 $220 $489 $495 $500 forward $351 $-1 #
loop $-1 $-1 $489 $339 #
vertex $-1 $348 $501 #
vertex $-1 $221 $502 #
straight-curve $-1 7.8517992881655658 -86.415157115826617 18.800712365667984 0 1 0 I I #
coedge $-1 $355 $355 $-1 $503 reversed $224 $-1 #
edge $-1 $504 0 $504 6.2831853071796004 $225 $505 forward 7 unknown #
vertex $-1 $228 $506 #
ellipse-curve $-1 -6.4884406066062184 -48.050770672017237 15.51169772054857 0 -0.84804810408105047 0.52991925155115449 1 0 0 1 I I #
coedge $-1 $359 $359 $-1 $507 reversed $231 $-1 #
edge $-1 $508 0 $508 6.2831853071796004 $232 $509 forward 7 unknown #
vertex $-1 $235 $510 #
ellipse-curve $-1 2.1157033302568493 -48.050770672017237 15.51169772054857 0 -0.84804810408105047 0.52991925155115449 1 0 0 1 I I #
face $-1 $-1 $375 $50 $-1 $511 forward single #
loop $-1 $-1 $512 $236 #
plane-surface $-1 0 -50.105975053343094 0 0 1 0 0 0 1 forward_v I I I I #
coedge $-1 $513 $514 $515 $516 reversed $237 $-1 #
coedge $-1 $517 $239 $241 $373 forward $149 $-1 #
coedge $-1 $239 $517 $513 $518 forward $149 $-1 #
coedge $-1 $515 $242 $239 $370 forward $375 $-1 #
edge $-1 $377 -22.462076318350974 $519 -2.385740465670473 $369 $520 forward 7 unknown #
coedge $-1 $521 $522 $240 $372 forward $364 $-1 #
edge $-1 $523 -32.231996329275454 $376 -25.653967039036637 $371 $524 forward 7 unknown #
edge $-1 $377 -7.7566700032503961 $523 -3.9918193188544054e-014 $241 $525 forward 7 unknown #
coedge $-1 $242 $515 $521 $526 forward $375 $-1 #
loop $-1 $-1 $515 $363 #
vertex $-1 $372 $527 #
vertex $-1 $243 $528 #
straight-curve $-1 34.885984710361697 -86.415157115826617 18.800712365667984 0 1 0 I I #
coedge $-1 $379 $379 $-1 $529 reversed $246 $-1 #
edge $-1 $530 0 $530 6.2831853071796004 $247 $531 forward 7 unknown #
vertex $-1 $250 $532 #
ellipse-curve $-1 20.545744815589913 -48.050770672017237 15.51169772054857 0 -0.84804810408105047 0.52991925155115449 1 0 0 1 I I #
coedge $-1 $383 $383 $-1 $533 reversed $253 $-1 #
edge $-1 $534 0 $534 6.2831853071796004 $254 $535 forward 7 unknown #
vertex $-1 $257 $536 #
ellipse-curve $-1 29.149888752452981 -48.050770672017237 15.51169772054857 0 -0.84804810408105047 0.52991925155115449 1 0 0 1 I I #
face $-1 $-1 $399 $53 $-1 $537 forward single #
loop $-1 $-1 $538 $258 #
plane-surface $-1 0 -50.105975053343094 0 0 1 0 0 0 1 forward_v I I I I #
coedge $-1 $539 $540 $541 $542 reversed $259 $-1 #
coedge $-1 $543 $261 $263 $397 forward $163 $-1 #
coedge $-1 $261 $543 $539 $544 forward $163 $-1 #
coedge $-1 $541 $264 $261 $394 forward $399 $-1 #
edge $-1 $401 -35.979169029449039 $545 -15.902833176768539 $393 $546 forward 7 unknown #
coedge $-1 $547 $548 $262 $396 forward $388 $-1 #
edge $-1 $549 -32.231996329275454 $400 -25.653967039036637 $395 $550 forward 7 unknown #
edge $-1 $401 -7.7566700032503961 $549 -3.9918193188544054e-014 $263 $551 forward 7 unknown #
coedge $-1 $264 $541 $547 $552 forward $399 $-1 #
loop $-1 $-1 $541 $387 #
vertex $-1 $396 $553 #
vertex $-1 $265 $554 #
straight-curve $-1 61.920170132557828 -86.415157115826617 18.800712365667984 0 1 0 I I #
coedge $-1 $403 $403 $-1 $555 reversed $268 $-1 #
edge $-1 $556 0 $556 6.2831853071796004 $269 $557 forward 7 unknown #
vertex $-1 $272 $558 #
ellipse-curve $-1 47.579930237786044 -48.050770672017237 15.51169772054857 0 -0.84804810408105047 0.52991925155115449 1 0 0 1 I I #
coedge $-1 $407 $407 $-1 $559 reversed $275 $-1 #
edge $-1 $560 0 $560 6.2831853071796004 $276 $561 forward 7 unknown #
vertex $-1 $279 $562 #
ellipse-curve $-1 56.184074174649112 -48.050770672017237 15.51169772054857 0 -0.84804810408105047 0.52991925155115449 1 0 0 1 I I #
face $-1 $-1 $295 $42 $-1 $563 reversed single #
loop $-1 $-1 $427 $280 #
plane-surface $-1 0 50.105975053343094 0 0 -1 0 0 0 -1 forward_v I I I I #
coedge $-1 $564 $425 $428 $565 forward $281 $-1 #
coedge $-1 $431 $283 $284 $419 reversed $177 $-1 #
coedge $-1 $425 $564 $283 $417 reversed $281 $-1 #
edge $-1 $432 -18.800712365667984 $566 18.800712365667984 $416 $567 forward 7 unknown #
coedge $-1 $285 $284 $564 $568 forward $113 $-1 #
edge $-1 $423 -72.356944486831253 $566 72.356944486831253 $415 $569 forward 7 unknown #
coedge $-1 $428 $427 $285 $421 reversed $412 $-1 #
edge $-1 $570 -72.356944486831253 $422 72.356944486831253 $420 $571 forward 7 unknown #
vertex $-1 $287 $572 #
vertex $-1 $434 $573 #
straight-curve $-1 72.356944486831253 0 -18.800712365667984 0 -1 0 I I #
coedge $-1 $414 $416 $288 $426 reversed $281 $-1 #
edge $-1 $429 -50.105975053343094 $432 50.105975053343094 $425 $574 forward 7 unknown #
coedge $-1 $420 $289 $294 $435 forward $412 $-1 #
coedge $-1 $289 $420 $414 $565 reversed $412 $-1 #
vertex $-1 $290 $575 #
straight-curve $-1 0 50.105975053343094 18.800712365667984 -1 0 0 I I #
coedge $-1 $291 $415 $293 $434 reversed $177 $-1 #
vertex $-1 $426 $576 #
straight-curve $-1 0 -50.105975053343094 18.800712365667984 1 0 0 I I #
edge $-1 $296 -18.800712365667984 $423 18.800712365667984 $293 $577 forward 7 unknown #
edge $-1 $297 -18.800712365667984 $422 18.800712365667984 $294 $578 forward 7 unknown #
point $-1 72.356944486831253 -50.105975053343094 18.800712365667984 #
point $-1 72.356944486831253 50.105975053343094 18.800712365667984 #
face $-1 $-1 $447 $43 $-1 $579 reversed single #
loop $-1 $-1 $444 $299 #
plane-surface $-1 0 0 18.800712365667984 0 0 1 1 0 0 forward_v I I I I #
coedge $-1 $580 $581 $306 $450 forward $300 $-1 #
coedge $-1 $302 $454 $582 $583 reversed $185 $-1 #
edge $-1 $584 -11.128235001572079 $312 -4.2167197266197363 $302 $585 forward 7 unknown #
coedge $-1 $582 $586 $303 $445 forward $439 $-1 #
edge $-1 $448 -50.105975053343094 $584 50.105975053343094 $444 $587 forward 7 unknown #
coedge $-1 $451 $304 $586 $588 reversed $447 $-1 #
loop $-1 $-1 $304 $438 #
vertex $-1 $305 $589 #
straight-curve $-1 -49.695496340984505 -50.105975053343094 7.6724773640959079 0 0 1 I I #
edge $-1 $455 -50.105975053343094 $452 50.105975053343094 $441 $590 forward 7 unknown #
coedge $-1 $307 $446 $580 $591 forward $447 $-1 #
vertex $-1 $450 $592 #
straight-curve $-1 -30.513110206953939 -50.105975053343094 11.889197090715644 1 0 0 I I #
coedge $-1 $442 $309 $581 $593 reversed $185 $-1 #
vertex $-1 $450 $594 #
straight-curve $-1 -30.513110206953939 50.105975053343094 11.889197090715644 -1 0 0 I I #
point $-1 -49.695496340984505 50.105975053343094 11.889197090715644 #
point $-1 -49.695496340984505 -50.105975053343094 11.889197090715644 #
plane-surface $-1 0 0 18.800712365667984 0 0 1 1 0 0 forward_v I I I I #
coedge $-1 $470 $469 $462 $595 forward $316 $-1 #
coedge $-1 $462 $318 $320 $466 reversed $193 $-1 #
coedge $-1 $318 $461 $460 $595 reversed $193 $-1 #
coedge $-1 $326 $321 $318 $464 forward $327 $-1 #
edge $-1 $467 -40.419590825135245 $596 -36.309182062483522 $463 $597 forward 7 unknown #
coedge $-1 $320 $319 $470 $598 reversed $121 $-1 #
edge $-1 $599 3.9918193188544054e-014 $467 7.7566700032503961 $461 $600 forward 7 unknown #
vertex $-1 $322 $601 #
straight-curve $-1 -14.610277030185408 -45.995566290691372 18.800712365667984 -1 0 0 I I #
coedge $-1 $460 $323 $326 $474 reversed $316 $-1 #
coedge $-1 $323 $460 $465 $598 forward $316 $-1 #
vertex $-1 $324 $602 #
straight-curve $-1 -19.182386134030565 -50.105975053343094 44.454679404704621 0 0 1 I I #
straight-curve $-1 -19.182386134030565 -50.105975053343116 12.222683075429131 0 -0.52991925155115449 -0.84804810408105047 I I #
edge $-1 $596 -39.258721986711066 $328 -19.182386134030565 $469 $603 forward 7 unknown #
point $-1 -19.182386134030565 -50.105975053343094 18.800712365667984 #
point $-1 -19.182386134030565 -45.995566290691372 18.800712365667984 #
edge $-1 $604 1 $604 0 $331 $-1 forward 7 unknown #
vertex $-1 $332 $605 #
ellipse-curve $-1 -33.52262602880235 -45.724079900546457 14.057820014466303 0 -0.84804810408105047 0.52991925155115449 1 0 0 1 I I #
point $-1 -32.52262602880235 -48.050770672017222 15.511697720548559 #
edge $-1 $606 1 $606 0 $335 $-1 forward 7 unknown #
vertex $-1 $336 $607 #
ellipse-curve $-1 -24.918482091939282 -45.724079900546457 14.057820014466303 0 -0.84804810408105047 0.52991925155115449 1 0 0 1 I I #
point $-1 -23.918482091939282 -48.050770672017222 15.511697720548559 #
plane-surface $-1 0 0 18.800712365667984 0 0 1 1 0 0 forward_v I I I I #
coedge $-1 $496 $495 $488 $608 forward $340 $-1 #
coedge $-1 $488 $342 $344 $492 reversed $215 $-1 #
coedge $-1 $342 $487 $486 $608 reversed $215 $-1 #
coedge $-1 $350 $345 $342 $490 forward $351 $-1 #
edge $-1 $493 -40.419590825135245 $609 -36.309182062483522 $489 $610 forward 7 unknown #
coedge $-1 $344 $343 $496 $611 reversed $135 $-1 #
edge $-1 $612 3.9918193188544054e-014 $493 7.7566700032503961 $487 $613 forward 7 unknown #
vertex $-1 $346 $614 #
straight-curve $-1 -1.0931843190873423 -45.995566290691372 18.800712365667984 -1 0 0 I I #
coedge $-1 $486 $347 $350 $500 reversed $340 $-1 #
coedge $-1 $347 $486 $491 $611 forward $340 $-1 #
vertex $-1 $348 $615 #
straight-curve $-1 7.8517992881655658 -50.105975053343094 44.454679404704621 0 0 1 I I #
straight-curve $-1 7.8517992881655658 -50.105975053343116 12.222683075429131 0 -0.52991925155115449 -0.84804810408105047 I I #
edge $-1 $609 -12.224536564514935 $352 7.8517992881655658 $495 $616 forward 7 unknown #
point $-1 7.8517992881655658 -50.105975053343094 18.800712365667984 #
point $-1 7.8517992881655658 -45.995566290691372 18.800712365667984 #
edge $-1 $617 1 $617 0 $355 $-1 forward 7 unknown #
vertex $-1 $356 $618 #
ellipse-curve $-1 -6.4884406066062184 -45.724079900546457 14.057820014466303 0 -0.84804810408105047 0.52991925155115449 1 0 0 1 I I #
point $-1 -5.4884406066062184 -48.050770672017222 15.511697720548559 #
edge $-1 $619 1 $619 0 $359 $-1 forward 7 unknown #
vertex $-1 $360 $620 #
ellipse-curve $-1 2.1157033302568493 -45.724079900546457 14.057820014466303 0 -0.84804810408105047 0.52991925155115449 1 0 0 1 I I #
point $-1 3.1157033302568493 -48.050770672017222 15.511697720548559 #
plane-surface $-1 0 0 18.800712365667984 0 0 1 1 0 0 forward_v I I I I #
coedge $-1 $522 $521 $514 $621 forward $364 $-1 #
coedge $-1 $514 $366 $368 $518 reversed $237 $-1 #
coedge $-1 $366 $513 $512 $621 reversed $237 $-1 #
coedge $-1 $374 $369 $366 $516 forward $375 $-1 #
edge $-1 $519 -40.419590825135245 $622 -36.309182062483522 $515 $623 forward 7 unknown #
coedge $-1 $368 $367 $522 $624 reversed $149 $-1 #
edge $-1 $625 3.9918193188544054e-014 $519 7.7566700032503961 $513 $626 forward 7 unknown #
vertex $-1 $370 $627 #
straight-curve $-1 12.423908392010723 -45.995566290691372 18.800712365667984 -1 0 0 I I #
coedge $-1 $512 $371 $374 $526 reversed $364 $-1 #
coedge $-1 $371 $512 $517 $624 forward $364 $-1 #
vertex $-1 $372 $628 #
straight-curve $-1 34.885984710361697 -50.105975053343094 44.454679404704621 0 0 1 I I #
straight-curve $-1 34.885984710361697 -50.105975053343116 12.222683075429131 0 -0.52991925155115449 -0.84804810408105047 I I #
edge $-1 $622 14.809648857681196 $376 34.885984710361697 $521 $629 forward 7 unknown #
point $-1 34.885984710361697 -50.105975053343094 18.800712365667984 #
point $-1 34.885984710361697 -45.995566290691372 18.800712365667984 #
edge $-1 $630 1 $630 0 $379 $-1 forward 7 unknown #
vertex $-1 $380 $631 #
ellipse-curve $-1 20.545744815589913 -45.724079900546457 14.057820014466303 0 -0.84804810408105047 0.52991925155115449 1 0 0 1 I I #
point $-1 21.545744815589913 -48.050770672017222 15.511697720548559 #
edge $-1 $632 1 $632 0 $383 $-1 forward 7 unknown #
vertex $-1 $384 $633 #
ellipse-curve $-1 29.149888752452981 -45.724079900546457 14.057820014466303 0 -0.84804810408105047 0.52991925155115449 1 0 0 1 I I #
point $-1 30.149888752452981 -48.050770672017222 15.511697720548559 #
plane-surface $-1 0 0 18.800712365667984 0 0 1 1 0 0 forward_v I I I I #
coedge $-1 $548 $547 $540 $634 forward $388 $-1 #
coedge $-1 $540 $390 $392 $544 reversed $259 $-1 #
coedge $-1 $390 $539 $538 $634 reversed $259 $-1 #
coedge $-1 $398 $393 $390 $542 forward $399 $-1 #
edge $-1 $545 -40.419590825135245 $635 -36.309182062483522 $541 $636 forward 7 unknown #
coedge $-1 $392 $391 $548 $637 reversed $163 $-1 #
edge $-1 $638 3.9918193188544054e-014 $545 7.7566700032503961 $539 $639 forward 7 unknown #
vertex $-1 $394 $640 #
straight-curve $-1 25.941001103108789 -45.995566290691372 18.800712365667984 -1 0 0 I I #
coedge $-1 $538 $395 $398 $552 reversed $388 $-1 #
coedge $-1 $395 $538 $543 $637 forward $388 $-1 #
vertex $-1 $396 $641 #
straight-curve $-1 61.920170132557828 -50.105975053343094 44.454679404704621 0 0 1 I I #
straight-curve $-1 61.920170132557828 -50.105975053343116 12.222683075429131 0 -0.52991925155115449 -0.84804810408105047 I I #
edge $-1 $635 41.843834279877328 $400 61.920170132557828 $547 $642 forward 7 unknown #
point $-1 61.920170132557828 -50.105975053343094 18.800712365667984 #
point $-1 61.920170132557828 -45.995566290691372 18.800712365667984 #
edge $-1 $643 1 $643 0 $403 $-1 forward 7 unknown #
vertex $-1 $404 $644 #
ellipse-curve $-1 47.579930237786044 -45.724079900546457 14.057820014466303 0 -0.84804810408105047 0.52991925155115449 1 0 0 1 I I #
point $-1 48.579930237786044 -48.050770672017222 15.511697720548559 #
edge $-1 $645 1 $645 0 $407 $-1 forward 7 unknown #
vertex $-1 $408 $646 #
ellipse-curve $-1 56.184074174649112 -45.724079900546457 14.057820014466303 0 -0.84804810408105047 0.52991925155115449 1 0 0 1 I I #
point $-1 57.184074174649112 -48.050770672017222 15.511697720548559 #
plane-surface $-1 72.356944486831253 0 0 -1 0 0 0 0 1 forward_v I I I I #
coedge $-1 $416 $414 $418 $568 reversed $281 $-1 #
edge $-1 $429 -18.800712365667984 $570 18.800712365667984 $428 $647 forward 7 unknown #
vertex $-1 $568 $648 #
straight-curve $-1 -72.356944486831253 -50.105975053343094 0 0 0 -1 I I #
edge $-1 $566 -50.105975053343094 $570 50.105975053343094 $564 $649 forward 7 unknown #
straight-curve $-1 0 -50.105975053343094 -18.800712365667984 -1 0 0 I I #
vertex $-1 $421 $650 #
straight-curve $-1 0 50.105975053343094 -18.800712365667984 1 0 0 I I #
point $-1 72.356944486831253 50.105975053343094 -18.800712365667984 #
point $-1 72.356944486831253 -50.105975053343094 -18.800712365667984 #
straight-curve $-1 -72.356944486831253 0 18.800712365667984 0 -1 0 I I #
point $-1 -72.356944486831253 50.105975053343094 18.800712365667984 #
point $-1 -72.356944486831253 -50.105975053343094 18.800712365667984 #
straight-curve $-1 72.356944486831253 -50.105975053343094 0 0 0 -1 I I #
straight-curve $-1 72.356944486831253 50.105975053343094 0 0 0 -1 I I #
plane-surface $-1 0 -50.105975053343094 0 0 1 0 0 0 1 forward_v I I I I #
coedge $-1 $651 $441 $451 $591 reversed $300 $-1 #
coedge $-1 $441 $651 $454 $593 forward $300 $-1 #
coedge $-1 $652 $444 $442 $583 forward $439 $-1 #
edge $-1 $584 49.695496340984505 $653 72.356944486831253 $442 $654 forward 7 unknown #
vertex $-1 $583 $655 #
straight-curve $-1 -49.695496340984505 50.105975053343094 7.6724773640959079 0 0 -1 I I #
coedge $-1 $444 $652 $446 $588 forward $439 $-1 #
straight-curve $-1 -49.695496340984505 0 18.800712365667984 0 1 0 I I #
edge $-1 $656 -72.356944486831253 $448 -49.695496340984505 $446 $657 forward 7 unknown #
point $-1 -49.695496340984505 -50.105975053343094 18.800712365667987 #
straight-curve $-1 -72.356944486831253 0 11.889197090715644 0 -1 0 I I #
edge $-1 $656 -18.800712365667984 $452 -11.889197090715644 $580 $658 forward 7 unknown #
point $-1 -72.356944486831253 -50.105975053343094 11.889197090715644 #
edge $-1 $653 -18.800712365667984 $455 -11.889197090715644 $454 $659 forward 7 unknown #
point $-1 -72.356944486831253 50.105975053343094 11.889197090715644 #
edge $-1 $596 25.653967039036637 $599 32.231996329275454 $460 $660 forward 7 unknown #
vertex $-1 $474 $661 #
straight-curve $-1 -39.258721986711066 -86.415157115826617 18.800712365667984 0 -1 0 I I #
edge $-1 $599 -24.648444956525658 $471 -4.5721091038451576 $470 $662 forward 7 unknown #
vertex $-1 $598 $663 #
straight-curve $-1 -39.258721986711066 -50.105975053343116 12.222683075429131 0 0.52991925155115449 0.84804810408105047 I I #
point $-1 -39.258721986711066 -45.995566290691372 18.800712365667984 #
point $-1 -19.182386134030565 -50.105975053343094 12.222683075429165 #
straight-curve $-1 0 -50.105975053343094 18.800712365667984 1 0 0 I I #
vertex $-1 $477 $664 #
point $-1 -32.52262602880235 -45.724079900546457 14.057820014466303 #
vertex $-1 $481 $665 #
point $-1 -23.918482091939282 -45.724079900546457 14.057820014466303 #
edge $-1 $609 25.653967039036637 $612 32.231996329275454 $486 $666 forward 7 unknown #
vertex $-1 $500 $667 #
straight-curve $-1 -12.224536564514935 -86.415157115826617 18.800712365667984 0 -1 0 I I #
edge $-1 $612 -11.131352245427593 $497 8.9449836072529081 $496 $668 forward 7 unknown #
vertex $-1 $611 $669 #
straight-curve $-1 -12.224536564514935 -50.105975053343116 12.222683075429131 0 0.52991925155115449 0.84804810408105047 I I #
point $-1 -12.224536564514935 -45.995566290691372 18.800712365667984 #
point $-1 7.8517992881655658 -50.105975053343094 12.222683075429165 #
straight-curve $-1 0 -50.105975053343094 18.800712365667984 1 0 0 I I #
vertex $-1 $503 $670 #
point $-1 -5.4884406066062184 -45.724079900546457 14.057820014466303 #
vertex $-1 $507 $671 #
point $-1 3.1157033302568493 -45.724079900546457 14.057820014466303 #
edge $-1 $622 25.653967039036637 $625 32.231996329275454 $512 $672 forward 7 unknown #
vertex $-1 $526 $673 #
straight-curve $-1 14.809648857681196 -86.415157115826617 18.800712365667984 0 -1 0 I I #
edge $-1 $625 2.385740465670473 $523 22.462076318350974 $522 $674 forward 7 unknown #
vertex $-1 $624 $675 #
straight-curve $-1 14.809648857681196 -50.105975053343116 12.222683075429131 0 0.52991925155115449 0.84804810408105047 I I #
point $-1 14.809648857681196 -45.995566290691372 18.800712365667984 #
point $-1 34.885984710361697 -50.105975053343094 12.222683075429165 #
straight-curve $-1 0 -50.105975053343094 18.800712365667984 1 0 0 I I #
vertex $-1 $529 $676 #
point $-1 21.545744815589913 -45.724079900546457 14.057820014466303 #
vertex $-1 $533 $677 #
point $-1 30.149888752452981 -45.724079900546457 14.057820014466303 #
edge $-1 $635 25.653967039036637 $638 32.231996329275454 $538 $678 forward 7 unknown #
vertex $-1 $552 $679 #
straight-curve $-1 41.843834279877328 -86.415157115826617 18.800712365667984 0 -1 0 I I #
edge $-1 $638 15.902833176768539 $549 35.979169029449039 $548 $680 forward 7 unknown #
vertex $-1 $637 $681 #
straight-curve $-1 41.843834279877328 -50.105975053343116 12.222683075429131 0 0.52991925155115449 0.84804810408105047 I I #
point $-1 41.843834279877328 -45.995566290691372 18.800712365667984 #
point $-1 61.920170132557828 -50.105975053343094 12.222683075429165 #
straight-curve $-1 0 -50.105975053343094 18.800712365667984 1 0 0 I I #
vertex $-1 $555 $682 #
point $-1 48.579930237786044 -45.724079900546457 14.057820014466303 #
vertex $-1 $559 $683 #
point $-1 57.184074174649112 -45.724079900546457 14.057820014466303 #
straight-curve $-1 -72.356944486831253 50.105975053343094 0 0 0 -1 I I #
point $-1 -72.356944486831253 -50.105975053343094 -18.800712365667984 #
straight-curve $-1 -72.356944486831253 0 -18.800712365667984 0 1 0 I I #
point $-1 -72.356944486831253 50.105975053343094 -18.800712365667984 #
coedge $-1 $581 $580 $652 $684 reversed $300 $-1 #
coedge $-1 $586 $582 $651 $684 forward $439 $-1 #
vertex $-1 $583 $685 #
straight-curve $-1 0 50.105975053343094 18.800712365667984 -1 0 0 I I #
point $-1 -49.695496340984505 50.105975053343094 18.800712365667987 #
vertex $-1 $684 $686 #
straight-curve $-1 0 -50.105975053343094 18.800712365667984 1 0 0 I I #
straight-curve $-1 -72.356944486831253 -50.105975053343094 0 0 0 -1 I I #
straight-curve $-1 -72.356944486831253 50.105975053343094 0 0 0 -1 I I #
straight-curve $-1 -39.258721986711066 -50.105975053343094 44.454679404704621 0 0 -1 I I #
point $-1 -39.258721986711066 -50.105975053343094 18.800712365667984 #
straight-curve $-1 -14.610277030185408 -50.105975053343094 12.222683075429156 1 0 0 I I #
point $-1 -39.258721986711066 -50.105975053343094 12.222683075429165 #
point $-1 -33.52262602880235 -44.876031796465412 13.52790076291515 #
point $-1 -24.918482091939282 -44.876031796465412 13.52790076291515 #
straight-curve $-1 -12.224536564514935 -50.105975053343094 44.454679404704621 0 0 -1 I I #
point $-1 -12.224536564514935 -50.105975053343094 18.800712365667984 #
straight-curve $-1 -1.0931843190873423 -50.105975053343094 12.222683075429156 1 0 0 I I #
point $-1 -12.224536564514935 -50.105975053343094 12.222683075429165 #
point $-1 -6.4884406066062184 -44.876031796465412 13.52790076291515 #
point $-1 2.1157033302568493 -44.876031796465412 13.52790076291515 #
straight-curve $-1 14.809648857681196 -50.105975053343094 44.454679404704621 0 0 -1 I I #
point $-1 14.809648857681196 -50.105975053343094 18.800712365667984 #
straight-curve $-1 12.423908392010723 -50.105975053343094 12.222683075429156 1 0 0 I I #
point $-1 14.809648857681196 -50.105975053343094 12.222683075429165 #
point $-1 20.545744815589913 -44.876031796465412 13.52790076291515 #
point $-1 29.149888752452981 -44.876031796465412 13.52790076291515 #
straight-curve $-1 41.843834279877328 -50.105975053343094 44.454679404704621 0 0 -1 I I #
point $-1 41.843834279877328 -50.105975053343094 18.800712365667984 #
straight-curve $-1 25.941001103108789 -50.105975053343094 12.222683075429156 1 0 0 I I #
point $-1 41.843834279877328 -50.105975053343094 12.222683075429165 #
point $-1 47.579930237786044 -44.876031796465412 13.52790076291515 #
point $-1 56.184074174649112 -44.876031796465412 13.52790076291515 #
edge $-1 $653 -50.105975053343094 $656 50.105975053343094 $651 $687 forward 7 unknown #
point $-1 -72.356944486831253 50.105975053343094 18.800712365667984 #
point $-1 -72.356944486831253 -50.105975053343094 18.800712365667984 #
straight-curve $-1 -72.356944486831253 0 18.800712365667984 0 -1 0 I I #
End-of-ACIS-data 