500 0 10 0           
7 Unknown 11 ACIS 5.0 NT 24 Thu Mar 25 20:48:49 1999 
-1 9.9999999999999995e-007 1e-010 
body $-1 $10 $-1 $11 #
body $-1 $12 $-1 $13 #
body $-1 $14 $-1 $15 #
body $-1 $16 $-1 $17 #
body $-1 $18 $-1 $19 #
body $-1 $20 $-1 $21 #
body $-1 $22 $-1 $23 #
body $-1 $24 $-1 $25 #
body $-1 $26 $-1 $27 #
body $-1 $28 $-1 $29 #
lump $-1 $-1 $30 $0 #
transform $-1 1 0 0 0 1 0 0 0 1 53.097323526718952 31.586320364386843 7.3522758888886655 1 rotate no_reflect no_shear #
lump $-1 $-1 $31 $1 #
transform $-1 1 0 0 0 1 0 0 0 1 53.097323526718952 31.586320364386843 7.3522758888886655 1 rotate no_reflect no_shear #
lump $-1 $-1 $32 $2 #
transform $-1 1 0 0 0 1 0 0 0 1 53.097323526718952 31.586320364386843 7.3522758888886655 1 rotate no_reflect no_shear #
lump $-1 $-1 $33 $3 #
transform $-1 1 0 0 0 1 0 0 0 1 53.097323526718952 31.586320364386843 7.3522758888886655 1 rotate no_reflect no_shear #
lump $-1 $-1 $34 $4 #
transform $-1 1 0 0 0 1 0 0 0 1 53.097323526718952 31.586320364386843 7.3522758888886655 1 rotate no_reflect no_shear #
lump $-1 $-1 $35 $5 #
transform $-1 1 0 0 0 1 0 0 0 1 53.097323526718952 31.586320364386843 7.3522758888886655 1 rotate no_reflect no_shear #
lump $-1 $-1 $36 $6 #
transform $-1 1 0 0 0 1 0 0 0 1 53.097323526718952 31.586320364386843 7.3522758888886655 1 rotate no_reflect no_shear #
lump $-1 $-1 $37 $7 #
transform $-1 1 0 0 0 1 0 0 0 1 53.097323526718952 31.586320364386843 7.3522758888886655 1 rotate no_reflect no_shear #
lump $-1 $-1 $38 $8 #
transform $-1 1 0 0 0 1 0 0 0 1 53.097323526718952 31.586320364386843 7.3522758888886655 1 rotate no_reflect no_shear #
lump $-1 $-1 $39 $9 #
transform $-1 1 0 0 0 1 0 0 0 1 53.097323526718952 31.586320364386843 7.3522758888886655 1 rotate no_reflect no_shear #
shell $-1 $-1 $-1 $40 $-1 $10 #
shell $-1 $-1 $-1 $41 $-1 $12 #
shell $-1 $-1 $-1 $42 $-1 $14 #
shell $-1 $-1 $-1 $43 $-1 $16 #
shell $-1 $-1 $-1 $44 $-1 $18 #
shell $-1 $-1 $-1 $45 $-1 $20 #
shell $-1 $-1 $-1 $46 $-1 $22 #
shell $-1 $-1 $-1 $47 $-1 $24 #
shell $-1 $-1 $-1 $48 $-1 $26 #
shell $-1 $-1 $-1 $49 $-1 $28 #
face $-1 $50 $51 $30 $-1 $52 forward single #
face $-1 $53 $54 $31 $-1 $55 forward single #
face $-1 $56 $57 $32 $-1 $58 reversed single #
face $-1 $59 $60 $33 $-1 $61 forward single #
face $-1 $62 $63 $34 $-1 $64 forward single #
face $-1 $65 $66 $35 $-1 $67 forward single #
face $-1 $68 $69 $36 $-1 $70 reversed single #
face $-1 $71 $72 $37 $-1 $73 forward single #
face $-1 $74 $75 $38 $-1 $76 forward single #
face $-1 $77 $78 $39 $-1 $79 forward single #
face $-1 $80 $81 $30 $-1 $82 reversed single #
loop $-1 $-1 $83 $40 #
plane-surface $-1 0 0 7.3522758888886655 0 0 1 1 0 0 forward_v I I I I #
face $-1 $84 $85 $31 $-1 $86 reversed single #
loop $-1 $-1 $87 $41 #
plane-surface $-1 -53.097323526718952 0 0 1 0 0 0 0 -1 forward_v I I I I #
face $-1 $88 $89 $32 $-1 $90 reversed single #
loop $-1 $-1 $91 $42 #
plane-surface $-1 40.641527000218218 93.839549187098157 109.55769014003749 1 0 0 0 -0.87461971476443456 -0.48480960649040278 forward_v I I I I #
face $-1 $92 $93 $33 $-1 $94 forward single #
loop $-1 $95 $96 $43 #
cone-surface $-1 43.132686305518362 29.748865782712077 4.7644189239186918 0 -0.87461971476443456 -0.48480960649040278 0.5 0 0 1 I I 0 1 0.5 forward I I I I #
face $-1 $97 $98 $34 $-1 $99 forward single #
loop $-1 $100 $101 $44 #
cone-surface $-1 46.869425263468585 29.748865782712077 4.7644189239186918 0 -0.87461971476443456 -0.48480960649040278 0.5 0 0 1 I I 0 1 0.5 forward I I I I #
face $-1 $102 $103 $35 $-1 $104 forward single #
loop $-1 $105 $106 $45 #
cone-surface $-1 50.606164221418808 29.748865782712077 4.7644189239186918 0 -0.87461971476443456 -0.48480960649040278 0.5 0 0 1 I I 0 1 0.5 forward I I I I #
face $-1 $107 $108 $36 $-1 $109 reversed single #
loop $-1 $-1 $110 $46 #
plane-surface $-1 46.869425263468585 -31.586320364386864 2.8214680755569077 0 -0.87461971476443456 0.48480960649040278 1 0 0 forward_v I I I I #
face $-1 $111 $112 $37 $-1 $113 forward single #
loop $-1 $114 $115 $47 #
cone-surface $-1 43.132686305518362 -29.748865782712077 4.7644189239186918 0 0.87461971476443456 -0.48480960649040278 0.5 0 0 1 I I 0 1 0.5 forward I I I I #
face $-1 $116 $117 $38 $-1 $118 forward single #
loop $-1 $119 $120 $48 #
cone-surface $-1 46.869425263468585 -29.748865782712077 4.7644189239186918 0 0.87461971476443456 -0.48480960649040278 0.5 0 0 1 I I 0 1 0.5 forward I I I I #
face $-1 $121 $122 $39 $-1 $123 forward single #
loop $-1 $124 $125 $49 #
cone-surface $-1 50.606164221418808 -29.748865782712077 4.7644189239186918 0 0.87461971476443456 -0.48480960649040278 0.5 0 0 1 I I 0 1 0.5 forward I I I I #
face $-1 $126 $127 $30 $-1 $128 reversed single #
loop $-1 $-1 $129 $50 #
plane-surface $-1 0 0 -7.3522758888886655 0 0 1 1 0 0 forward_v I I I I #
coedge $-1 $130 $131 $132 $133 forward $51 $-1 #
face $-1 $134 $135 $31 $-1 $136 forward single #
loop $-1 $-1 $137 $53 #
plane-surface $-1 0 31.586320364386843 0 0 -1 0 0 0 -1 forward_v I I I I #
coedge $-1 $138 $139 $140 $141 forward $54 $-1 #
face $-1 $142 $143 $32 $-1 $144 reversed single #
loop $-1 $-1 $145 $56 #
plane-surface $-1 46.869425263468585 0.95961727171049915 58.073505090673052 0 0.87461971476443456 0.48480960649040278 1 0 0 forward_v I I I I #
coedge $-1 $146 $147 $148 $149 reversed $57 $-1 #
face $-1 $-1 $150 $33 $-1 $151 forward single #
loop $-1 $152 $153 $59 #
cone-surface $-1 43.132686305518362 28.948490116429873 4.320763463991999 0 -0.87461971476443456 -0.48480960649040278 0.25 0 0 1 I I -0.70710678118654746 0.70710678118654746 0.25 forward I I I I #
loop $-1 $-1 $154 $43 #
coedge $-1 $96 $96 $155 $156 reversed $60 $-1 #
face $-1 $-1 $157 $34 $-1 $158 forward single #
loop $-1 $159 $160 $62 #
cone-surface $-1 46.869425263468585 28.948490116429873 4.320763463991999 0 -0.87461971476443456 -0.48480960649040278 0.25 0 0 1 I I -0.70710678118654746 0.70710678118654746 0.25 forward I I I I #
loop $-1 $-1 $161 $44 #
coedge $-1 $101 $101 $162 $163 reversed $63 $-1 #
face $-1 $-1 $164 $35 $-1 $165 forward single #
loop $-1 $166 $167 $65 #
cone-surface $-1 50.606164221418808 28.948490116429873 4.320763463991999 0 -0.87461971476443456 -0.48480960649040278 0.25 0 0 1 I I -0.70710678118654746 0.70710678118654746 0.25 forward I I I I #
loop $-1 $-1 $168 $45 #
coedge $-1 $106 $106 $169 $170 reversed $66 $-1 #
face $-1 $171 $172 $36 $-1 $173 forward single #
loop $-1 $-1 $174 $68 #
plane-surface $-1 40.641527000218218 -124.46625227977452 54.305653124921349 1 0 0 0 0.87461971476443456 -0.48480960649040278 forward_v I I I I #
coedge $-1 $175 $176 $177 $178 reversed $69 $-1 #
face $-1 $-1 $179 $37 $-1 $180 forward single #
loop $-1 $181 $182 $71 #
cone-surface $-1 43.132686305518362 -28.948490116429873 4.320763463991999 0 0.87461971476443456 -0.48480960649040278 0.25 0 0 1 I I -0.70710678118654746 0.70710678118654746 0.25 forward I I I I #
loop $-1 $-1 $183 $47 #
coedge $-1 $115 $115 $184 $185 reversed $72 $-1 #
face $-1 $-1 $186 $38 $-1 $187 forward single #
loop $-1 $188 $189 $74 #
cone-surface $-1 46.869425263468585 -28.948490116429873 4.320763463991999 0 0.87461971476443456 -0.48480960649040278 0.25 0 0 1 I I -0.70710678118654746 0.70710678118654746 0.25 forward I I I I #
loop $-1 $-1 $190 $48 #
coedge $-1 $120 $120 $191 $192 reversed $75 $-1 #
face $-1 $-1 $193 $39 $-1 $194 forward single #
loop $-1 $195 $196 $77 #
cone-surface $-1 50.606164221418808 -28.948490116429873 4.320763463991999 0 0.87461971476443456 -0.48480960649040278 0.25 0 0 1 I I -0.70710678118654746 0.70710678118654746 0.25 forward I I I I #
loop $-1 $-1 $197 $49 #
coedge $-1 $125 $125 $198 $199 reversed $78 $-1 #
face $-1 $200 $201 $30 $-1 $202 reversed single #
loop $-1 $-1 $203 $80 #
plane-surface $-1 0 -31.586320364386843 0 0 1 0 0 0 1 forward_v I I I I #
coedge $-1 $204 $205 $206 $207 forward $81 $-1 #
coedge $-1 $208 $83 $209 $210 forward $51 $-1 #
coedge $-1 $83 $208 $211 $212 forward $51 $-1 #
coedge $-1 $213 $214 $83 $133 reversed $215 $-1 #
edge $-1 $216 -31.586320364386843 $217 31.586320364386843 $132 $218 forward 7 unknown #
face $-1 $219 $220 $31 $-1 $221 reversed single #
loop $-1 $-1 $140 $84 #
plane-surface $-1 -57.211295143516217 0 -4.3522758888886655 0 0 1 1 0 0 forward_v I I I I #
coedge $-1 $222 $223 $139 $224 forward $85 $-1 #
coedge $-1 $225 $87 $226 $227 reversed $54 $-1 #
coedge $-1 $87 $225 $137 $224 reversed $54 $-1 #
coedge $-1 $228 $229 $87 $141 reversed $135 $-1 #
edge $-1 $230 -31.586320364386843 $231 31.586320364386843 $140 $232 forward 7 unknown #
face $-1 $233 $234 $32 $-1 $235 reversed single #
loop $-1 $-1 $236 $88 #
plane-surface $-1 53.097323526718952 0 0 -1 0 0 0 0 1 forward_v I I I I #
coedge $-1 $237 $238 $239 $240 reversed $89 $-1 #
coedge $-1 $147 $91 $241 $242 reversed $57 $-1 #
coedge $-1 $91 $146 $237 $243 reversed $57 $-1 #
coedge $-1 $239 $244 $91 $149 forward $245 $-1 #
edge $-1 $246 15.333454229162236 $247 17.844921917329554 $148 $248 forward 7 unknown #
loop $-1 $-1 $155 $92 #
plane-surface $-1 46.869425263468585 0.95961727171049915 58.073505090673052 0 0.87461971476443456 0.48480960649040278 1 0 0 forward_v I I I I #
loop $-1 $-1 $249 $59 #
coedge $-1 $153 $153 $154 $250 reversed $93 $-1 #
coedge $-1 $154 $154 $153 $250 forward $95 $-1 #
coedge $-1 $155 $155 $96 $156 forward $150 $-1 #
edge $-1 $251 -1.3389337176632714e-016 $251 6.2831853071796004 $155 $252 forward 7 unknown #
loop $-1 $-1 $162 $97 #
plane-surface $-1 46.869425263468585 0.95961727171049915 58.073505090673052 0 0.87461971476443456 0.48480960649040278 1 0 0 forward_v I I I I #
loop $-1 $-1 $253 $62 #
coedge $-1 $160 $160 $161 $254 reversed $98 $-1 #
coedge $-1 $161 $161 $160 $254 forward $100 $-1 #
coedge $-1 $162 $162 $101 $163 forward $157 $-1 #
edge $-1 $255 -1.3389337176632714e-016 $255 6.2831853071796004 $162 $256 forward 7 unknown #
loop $-1 $-1 $169 $102 #
plane-surface $-1 46.869425263468585 0.95961727171049915 58.073505090673052 0 0.87461971476443456 0.48480960649040278 1 0 0 forward_v I I I I #
loop $-1 $-1 $257 $65 #
coedge $-1 $167 $167 $168 $258 reversed $103 $-1 #
coedge $-1 $168 $168 $167 $258 forward $105 $-1 #
coedge $-1 $169 $169 $106 $170 forward $164 $-1 #
edge $-1 $259 -1.3389337176632714e-016 $259 6.2831853071796004 $169 $260 forward 7 unknown #
face $-1 $261 $262 $36 $-1 $263 reversed single #
loop $-1 $-1 $177 $107 #
plane-surface $-1 0 0 7.3522758888886655 0 0 1 1 0 0 forward_v I I I I #
coedge $-1 $264 $265 $266 $267 reversed $108 $-1 #
coedge $-1 $268 $110 $269 $270 reversed $69 $-1 #
coedge $-1 $110 $268 $264 $271 forward $69 $-1 #
coedge $-1 $266 $272 $110 $178 forward $172 $-1 #
edge $-1 $273 -29.66261089498466 $274 -17.206814368483926 $177 $275 forward 7 unknown #
loop $-1 $-1 $184 $111 #
plane-surface $-1 46.869425263468585 -31.586320364386864 2.8214680755569077 0 -0.87461971476443456 0.48480960649040278 1 0 0 forward_v I I I I #
loop $-1 $-1 $276 $71 #
coedge $-1 $182 $182 $183 $277 reversed $112 $-1 #
coedge $-1 $183 $183 $182 $277 forward $114 $-1 #
coedge $-1 $184 $184 $115 $185 forward $179 $-1 #
edge $-1 $278 1.3389337176632714e-016 $278 6.2831853071796004 $184 $279 forward 7 unknown #
loop $-1 $-1 $191 $116 #
plane-surface $-1 46.869425263468585 -31.586320364386864 2.8214680755569077 0 -0.87461971476443456 0.48480960649040278 1 0 0 forward_v I I I I #
loop $-1 $-1 $280 $74 #
coedge $-1 $189 $189 $190 $281 reversed $117 $-1 #
coedge $-1 $190 $190 $189 $281 forward $119 $-1 #
coedge $-1 $191 $191 $120 $192 forward $186 $-1 #
edge $-1 $282 1.3389337176632714e-016 $282 6.2831853071796004 $191 $283 forward 7 unknown #
loop $-1 $-1 $198 $121 #
plane-surface $-1 46.869425263468585 -31.586320364386864 2.8214680755569077 0 -0.87461971476443456 0.48480960649040278 1 0 0 forward_v I I I I #
loop $-1 $-1 $284 $77 #
coedge $-1 $196 $196 $197 $285 reversed $122 $-1 #
coedge $-1 $197 $197 $196 $285 forward $124 $-1 #
coedge $-1 $198 $198 $125 $199 forward $193 $-1 #
edge $-1 $286 1.3389337176632714e-016 $286 6.2831853071796004 $198 $287 forward 7 unknown #
face $-1 $288 $289 $30 $-1 $290 reversed single #
loop $-1 $-1 $291 $126 #
plane-surface $-1 -53.097323526718952 0 0 1 0 0 0 0 -1 forward_v I I I I #
coedge $-1 $292 $211 $293 $294 forward $127 $-1 #
coedge $-1 $295 $129 $292 $296 forward $81 $-1 #
coedge $-1 $129 $295 $297 $298 forward $81 $-1 #
coedge $-1 $214 $213 $129 $207 reversed $215 $-1 #
edge $-1 $299 -31.586320364386843 $300 31.586320364386843 $206 $301 forward 7 unknown #
coedge $-1 $131 $130 $302 $303 forward $51 $-1 #
coedge $-1 $304 $305 $130 $210 reversed $289 $-1 #
edge $-1 $217 -53.097323526718952 $306 53.097323526718952 $209 $307 forward 7 unknown #
coedge $-1 $203 $308 $131 $212 reversed $127 $-1 #
edge $-1 $309 -53.097323526718952 $216 53.097323526718952 $211 $310 forward 7 unknown #
coedge $-1 $206 $132 $308 $311 forward $215 $-1 #
coedge $-1 $132 $206 $304 $312 reversed $215 $-1 #
loop $-1 $-1 $213 $288 #
vertex $-1 $133 $313 #
vertex $-1 $133 $314 #
straight-curve $-1 53.097323526718952 0 7.3522758888886655 0 1 0 I I #
face $-1 $315 $316 $31 $-1 $317 reversed single #
loop $-1 $-1 $318 $134 #
plane-surface $-1 -61.325266760313482 0 -5.8522758888886655 1 0 0 0 0 -1 forward_v I I I I #
coedge $-1 $319 $137 $320 $321 reversed $85 $-1 #
coedge $-1 $137 $319 $228 $322 reversed $85 $-1 #
edge $-1 $230 4.3522758888886655 $323 7.3522758888886655 $137 $324 forward 7 unknown #
coedge $-1 $139 $138 $325 $326 reversed $54 $-1 #
coedge $-1 $327 $328 $138 $227 forward $329 $-1 #
edge $-1 $330 -7.3522758888886655 $231 -4.3522758888886655 $226 $331 forward 7 unknown #
coedge $-1 $332 $140 $223 $322 forward $135 $-1 #
coedge $-1 $140 $332 $327 $333 forward $135 $-1 #
vertex $-1 $224 $334 #
vertex $-1 $333 $335 #
straight-curve $-1 -53.097323526718952 0 -4.3522758888886655 0 -1 0 I I #
face $-1 $-1 $245 $32 $-1 $336 forward single #
loop $-1 $-1 $337 $142 #
plane-surface $-1 0 31.586320364386843 0 0 -1 0 0 0 -1 forward_v I I I I #
coedge $-1 $338 $339 $238 $340 forward $143 $-1 #
coedge $-1 $341 $145 $147 $243 forward $89 $-1 #
coedge $-1 $145 $341 $236 $340 reversed $89 $-1 #
coedge $-1 $342 $148 $145 $240 forward $245 $-1 #
edge $-1 $247 17.206814368483926 $343 29.66261089498466 $239 $344 forward 7 unknown #
coedge $-1 $345 $337 $146 $242 forward $234 $-1 #
edge $-1 $346 -51.957376994461804 $246 -47.426569181130084 $241 $347 forward 7 unknown #
edge $-1 $247 57.992323229811227 $346 63.172640728773658 $147 $348 forward 7 unknown #
coedge $-1 $148 $342 $345 $349 forward $245 $-1 #
loop $-1 $-1 $239 $233 #
vertex $-1 $242 $350 #
vertex $-1 $149 $351 #
straight-curve $-1 40.641527000218218 46.919774593549079 7.3522758888886628 0 -1 0 I I #
coedge $-1 $249 $249 $-1 $352 reversed $152 $-1 #
edge $-1 $353 0 $353 6.2831853071796004 $153 $354 forward 7 unknown #
vertex $-1 $156 $355 #
ellipse-curve $-1 43.132686305518362 30.330586520303189 5.086871982222795 0 0.87461971476443456 0.48480960649040278 0.5 0 0 1 I I #
coedge $-1 $253 $253 $-1 $356 reversed $159 $-1 #
edge $-1 $357 0 $357 6.2831853071796004 $160 $358 forward 7 unknown #
vertex $-1 $163 $359 #
ellipse-curve $-1 46.869425263468585 30.330586520303189 5.086871982222795 0 0.87461971476443456 0.48480960649040278 0.5 0 0 1 I I #
coedge $-1 $257 $257 $-1 $360 reversed $166 $-1 #
edge $-1 $361 0 $361 6.2831853071796004 $167 $362 forward 7 unknown #
vertex $-1 $170 $363 #
ellipse-curve $-1 50.606164221418808 30.330586520303189 5.086871982222795 0 0.87461971476443456 0.48480960649040278 0.5 0 0 1 I I #
face $-1 $-1 $364 $36 $-1 $365 reversed single #
loop $-1 $-1 $366 $171 #
plane-surface $-1 0 -31.586320364386843 0 0 1 0 0 0 1 forward_v I I I I #
coedge $-1 $265 $174 $176 $271 reversed $108 $-1 #
coedge $-1 $174 $264 $367 $368 reversed $108 $-1 #
coedge $-1 $369 $177 $174 $267 forward $172 $-1 #
edge $-1 $274 -33.15827346366774 $370 -30.646805775500418 $266 $371 forward 7 unknown #
coedge $-1 $176 $175 $366 $372 reversed $69 $-1 #
coedge $-1 $373 $374 $175 $270 forward $364 $-1 #
edge $-1 $375 -6.4228199714387815 $273 -1.2425024724763627 $269 $376 forward 7 unknown #
edge $-1 $377 4.4125936813819218e-014 $274 5.180317498962463 $264 $378 forward 7 unknown #
coedge $-1 $177 $369 $373 $379 forward $172 $-1 #
vertex $-1 $270 $380 #
vertex $-1 $178 $381 #
straight-curve $-1 23.434712631734293 -29.074852676219528 7.3522758888886663 -1 0 0 I I #
coedge $-1 $276 $276 $-1 $382 reversed $181 $-1 #
edge $-1 $383 0 $383 6.2831853071796004 $182 $384 forward 7 unknown #
vertex $-1 $185 $385 #
ellipse-curve $-1 43.132686305518362 -30.330586520303189 5.086871982222795 0 -0.87461971476443456 0.48480960649040278 0.5 0 0 1 I I #
coedge $-1 $280 $280 $-1 $386 reversed $188 $-1 #
edge $-1 $387 0 $387 6.2831853071796004 $189 $388 forward 7 unknown #
vertex $-1 $192 $389 #
ellipse-curve $-1 46.869425263468585 -30.330586520303189 5.086871982222795 0 -0.87461971476443456 0.48480960649040278 0.5 0 0 1 I I #
coedge $-1 $284 $284 $-1 $390 reversed $195 $-1 #
edge $-1 $391 0 $391 6.2831853071796004 $196 $392 forward 7 unknown #
vertex $-1 $199 $393 #
ellipse-curve $-1 50.606164221418808 -30.330586520303189 5.086871982222795 0 -0.87461971476443456 0.48480960649040278 0.5 0 0 1 I I #
face $-1 $-1 $215 $30 $-1 $394 reversed single #
loop $-1 $-1 $304 $200 #
plane-surface $-1 0 31.586320364386843 0 0 -1 0 0 0 -1 forward_v I I I I #
coedge $-1 $395 $302 $305 $396 forward $201 $-1 #
coedge $-1 $308 $203 $204 $296 reversed $127 $-1 #
coedge $-1 $302 $395 $203 $294 reversed $201 $-1 #
edge $-1 $309 -7.3522758888886655 $397 7.3522758888886655 $293 $398 forward 7 unknown #
coedge $-1 $205 $204 $395 $399 forward $81 $-1 #
edge $-1 $300 -53.097323526718952 $397 53.097323526718952 $292 $400 forward 7 unknown #
coedge $-1 $305 $304 $205 $298 reversed $289 $-1 #
edge $-1 $401 -53.097323526718952 $299 53.097323526718952 $297 $402 forward 7 unknown #
vertex $-1 $207 $403 #
vertex $-1 $311 $404 #
straight-curve $-1 53.097323526718952 0 -7.3522758888886655 0 -1 0 I I #
coedge $-1 $291 $293 $208 $303 reversed $201 $-1 #
edge $-1 $306 -31.586320364386843 $309 31.586320364386843 $302 $405 forward 7 unknown #
coedge $-1 $297 $209 $214 $312 forward $289 $-1 #
coedge $-1 $209 $297 $291 $396 reversed $289 $-1 #
vertex $-1 $210 $406 #
straight-curve $-1 0 31.586320364386843 7.3522758888886655 -1 0 0 I I #
coedge $-1 $211 $292 $213 $311 reversed $127 $-1 #
vertex $-1 $303 $407 #
straight-curve $-1 0 -31.586320364386843 7.3522758888886655 1 0 0 I I #
edge $-1 $216 -7.3522758888886655 $300 7.3522758888886655 $213 $408 forward 7 unknown #
edge $-1 $217 -7.3522758888886655 $299 7.3522758888886655 $214 $409 forward 7 unknown #
point $-1 53.097323526718952 -31.586320364386843 7.3522758888886655 #
point $-1 53.097323526718952 31.586320364386843 7.3522758888886655 #
face $-1 $-1 $329 $31 $-1 $410 reversed single #
loop $-1 $-1 $325 $219 #
plane-surface $-1 0 0 -7.3522758888886655 0 0 1 1 0 0 forward_v I I I I #
coedge $-1 $411 $412 $319 $413 forward $220 $-1 #
coedge $-1 $223 $222 $318 $413 reversed $85 $-1 #
coedge $-1 $325 $414 $222 $321 forward $316 $-1 #
edge $-1 $415 -61.325266760313482 $323 -53.097323526718952 $222 $416 forward 7 unknown #
edge $-1 $230 -4.1139716167972651 $417 4.1139716167972651 $223 $418 forward 7 unknown #
vertex $-1 $224 $419 #
straight-curve $-1 -53.097323526718952 31.586320364386843 0 0 0 -1 I I #
coedge $-1 $420 $320 $225 $326 forward $316 $-1 #
edge $-1 $323 -31.586320364386843 $330 31.586320364386843 $325 $421 forward 7 unknown #
coedge $-1 $422 $226 $229 $333 reversed $329 $-1 #
coedge $-1 $226 $422 $420 $423 reversed $329 $-1 #
loop $-1 $-1 $226 $315 #
vertex $-1 $423 $424 #
straight-curve $-1 -53.097323526718952 -31.586320364386843 0 0 0 1 I I #
coedge $-1 $229 $228 $412 $425 forward $135 $-1 #
edge $-1 $426 -4.1139716167972651 $231 4.1139716167972651 $327 $427 forward 7 unknown #
point $-1 -53.097323526718952 31.586320364386843 -4.3522758888886655 #
point $-1 -53.097323526718952 -31.586320364386843 -4.3522758888886655 #
plane-surface $-1 0 0 7.3522758888886655 0 0 1 1 0 0 forward_v I I I I #
coedge $-1 $241 $428 $341 $429 forward $234 $-1 #
coedge $-1 $339 $236 $428 $430 reversed $143 $-1 #
coedge $-1 $236 $338 $342 $431 reversed $143 $-1 #
edge $-1 $343 32.82882283686321 $432 38.009140335825634 $236 $433 forward 7 unknown #
coedge $-1 $238 $237 $337 $429 reversed $89 $-1 #
coedge $-1 $244 $239 $339 $431 forward $245 $-1 #
vertex $-1 $431 $434 #
straight-curve $-1 23.434712631734293 29.074852676219528 7.3522758888886734 1 0 0 I I #
coedge $-1 $428 $241 $244 $349 reversed $234 $-1 #
vertex $-1 $242 $435 #
straight-curve $-1 40.641527000218218 31.586320364386843 54.778845070018747 0 0 1 I I #
straight-curve $-1 40.641527000218218 0.95961727171049915 58.073505090673052 0 0.48480960649040278 -0.87461971476443456 I I #
edge $-1 $436 -53.097323526718952 $246 -40.641527000218218 $345 $437 forward 7 unknown #
point $-1 40.641527000218218 31.586320364386843 7.3522758888886655 #
point $-1 40.641527000218218 29.074852676219525 7.3522758888886628 #
edge $-1 $438 1 $438 0 $249 $-1 forward 7 unknown #
vertex $-1 $250 $439 #
ellipse-curve $-1 43.132686305518362 29.167145045120982 4.4419658656145993 0 0.87461971476443456 0.48480960649040278 0.5 0 0 1 I I #
point $-1 43.632686305518362 30.330586520303171 5.0868719822227852 #
edge $-1 $440 1 $440 0 $253 $-1 forward 7 unknown #
vertex $-1 $254 $441 #
ellipse-curve $-1 46.869425263468585 29.167145045120982 4.4419658656145993 0 0.87461971476443456 0.48480960649040278 0.5 0 0 1 I I #
point $-1 47.369425263468585 30.330586520303171 5.0868719822227852 #
edge $-1 $442 1 $442 0 $257 $-1 forward 7 unknown #
vertex $-1 $258 $443 #
ellipse-curve $-1 50.606164221418808 29.167145045120982 4.4419658656145993 0 0.87461971476443456 0.48480960649040278 0.5 0 0 1 I I #
point $-1 51.106164221418808 30.330586520303171 5.0868719822227852 #
loop $-1 $-1 $269 $261 #
plane-surface $-1 53.097323526718952 0 0 -1 0 0 0 0 1 forward_v I I I I #
coedge $-1 $444 $367 $268 $372 forward $262 $-1 #
coedge $-1 $366 $445 $265 $368 forward $262 $-1 #
edge $-1 $370 19.800550673572008 $377 24.331358486903728 $367 $446 forward 7 unknown #
coedge $-1 $272 $266 $445 $447 forward $172 $-1 #
vertex $-1 $447 $448 #
straight-curve $-1 40.641527000218218 -62.233126139887261 7.3522758888886663 0 -1 0 I I #
edge $-1 $377 17.206814368483926 $375 29.66261089498466 $366 $449 forward 7 unknown #
coedge $-1 $374 $269 $272 $379 reversed $364 $-1 #
coedge $-1 $269 $373 $444 $450 forward $364 $-1 #
vertex $-1 $372 $451 #
straight-curve $-1 53.097323526718952 -28.472475541474907 8.4389930469600465 0 0.48480960649040278 0.87461971476443456 I I #
vertex $-1 $372 $452 #
straight-curve $-1 40.641527000218218 -31.586320364386864 2.8214680755569077 0 0.48480960649040278 0.87461971476443456 I I #
edge $-1 $453 -31.586320364386843 $273 -29.074852676219525 $373 $454 forward 7 unknown #
point $-1 53.097323526718952 -29.074852676219525 7.3522758888886655 #
point $-1 40.641527000218218 -29.074852676219525 7.3522758888886655 #
edge $-1 $455 1 $455 0 $276 $-1 forward 7 unknown #
vertex $-1 $277 $456 #
ellipse-curve $-1 43.132686305518362 -29.167145045120982 4.4419658656145993 0 -0.87461971476443456 0.48480960649040278 0.5 0 0 1 I I #
point $-1 43.632686305518362 -30.330586520303171 5.0868719822227852 #
edge $-1 $457 1 $457 0 $280 $-1 forward 7 unknown #
vertex $-1 $281 $458 #
ellipse-curve $-1 46.869425263468585 -29.167145045120982 4.4419658656145993 0 -0.87461971476443456 0.48480960649040278 0.5 0 0 1 I I #
point $-1 47.369425263468585 -30.330586520303171 5.0868719822227852 #
edge $-1 $459 1 $459 0 $284 $-1 forward 7 unknown #
vertex $-1 $285 $460 #
ellipse-curve $-1 50.606164221418808 -29.167145045120982 4.4419658656145993 0 -0.87461971476443456 0.48480960649040278 0.5 0 0 1 I I #
point $-1 51.106164221418808 -30.330586520303171 5.0868719822227852 #
plane-surface $-1 53.097323526718952 0 0 -1 0 0 0 0 1 forward_v I I I I #
coedge $-1 $293 $291 $295 $399 reversed $201 $-1 #
edge $-1 $306 -7.3522758888886655 $401 7.3522758888886655 $305 $461 forward 7 unknown #
vertex $-1 $399 $462 #
straight-curve $-1 -53.097323526718952 -31.586320364386843 0 0 0 -1 I I #
edge $-1 $397 -31.586320364386843 $401 31.586320364386843 $395 $463 forward 7 unknown #
straight-curve $-1 0 -31.586320364386843 -7.3522758888886655 -1 0 0 I I #
vertex $-1 $298 $464 #
straight-curve $-1 0 31.586320364386843 -7.3522758888886655 1 0 0 I I #
point $-1 53.097323526718952 31.586320364386843 -7.3522758888886655 #
point $-1 53.097323526718952 -31.586320364386843 -7.3522758888886655 #
straight-curve $-1 -53.097323526718952 0 7.3522758888886655 0 -1 0 I I #
point $-1 -53.097323526718952 31.586320364386843 7.3522758888886655 #
point $-1 -53.097323526718952 -31.586320364386843 7.3522758888886655 #
straight-curve $-1 53.097323526718952 -31.586320364386843 0 0 0 -1 I I #
straight-curve $-1 53.097323526718952 31.586320364386843 0 0 0 -1 I I #
plane-surface $-1 0 -31.586320364386843 0 0 1 0 0 0 1 forward_v I I I I #
coedge $-1 $465 $318 $414 $466 reversed $220 $-1 #
coedge $-1 $318 $465 $332 $425 reversed $220 $-1 #
edge $-1 $417 -1.5 $415 1.5 $319 $467 forward 7 unknown #
coedge $-1 $320 $420 $411 $466 forward $316 $-1 #
vertex $-1 $321 $468 #
straight-curve $-1 0 31.586320364386843 -7.3522758888886655 1 0 0 I I #
vertex $-1 $322 $469 #
straight-curve $-1 -57.211295143516217 31.586320364386843 -4.3522758888886655 -1 0 0 I I #
point $-1 -53.097323526718952 31.586320364386843 -7.3522758888886655 #
coedge $-1 $414 $325 $328 $423 forward $316 $-1 #
straight-curve $-1 -53.097323526718952 0 -7.3522758888886655 0 -1 0 I I #
coedge $-1 $328 $327 $465 $470 forward $329 $-1 #
edge $-1 $330 -4.1139716167972651 $471 4.1139716167972651 $328 $472 forward 7 unknown #
point $-1 -53.097323526718952 -31.586320364386843 -7.3522758888886655 #
edge $-1 $417 -31.586320364386843 $426 31.586320364386843 $412 $473 forward 7 unknown #
vertex $-1 $425 $474 #
straight-curve $-1 -57.211295143516217 -31.586320364386843 -4.3522758888886655 1 0 0 I I #
coedge $-1 $337 $345 $338 $430 forward $234 $-1 #
edge $-1 $432 -29.66261089498466 $346 -17.206814368483926 $337 $475 forward 7 unknown #
edge $-1 $436 -7.3522758888886655 $432 -2.8214680755569432 $338 $476 forward 7 unknown #
edge $-1 $343 29.074852676219525 $436 31.586320364386843 $339 $477 forward 7 unknown #
vertex $-1 $340 $478 #
straight-curve $-1 53.097323526718952 13.159123995136726 36.065011554518122 0 0.48480960649040278 -0.87461971476443456 I I #
point $-1 53.097323526718952 29.074852676219525 7.3522758888886628 #
point $-1 40.641527000218218 31.586320364386843 2.8214680755569432 #
vertex $-1 $431 $479 #
straight-curve $-1 0 31.586320364386843 7.3522758888886655 -1 0 0 I I #
vertex $-1 $352 $480 #
point $-1 43.632686305518362 29.167145045120982 4.4419658656145993 #
vertex $-1 $356 $481 #
point $-1 47.369425263468585 29.167145045120982 4.4419658656145993 #
vertex $-1 $360 $482 #
point $-1 51.106164221418808 29.167145045120982 4.4419658656145993 #
coedge $-1 $445 $366 $374 $450 reversed $262 $-1 #
coedge $-1 $367 $444 $369 $447 reversed $262 $-1 #
straight-curve $-1 40.641527000218218 -31.586320364386843 27.152826562460675 0 0 -1 I I #
edge $-1 $370 40.641527000218218 $453 53.097323526718952 $445 $483 forward 7 unknown #
point $-1 40.641527000218218 -31.586320364386843 7.3522758888886655 #
straight-curve $-1 23.434712631734293 -31.586320364386843 2.8214680755569459 1 0 0 I I #
edge $-1 $453 -7.3522758888886655 $375 -2.8214680755569463 $374 $484 forward 7 unknown #
point $-1 53.097323526718952 -31.586320364386843 2.8214680755569463 #
point $-1 40.641527000218218 -31.586320364386843 2.8214680755569463 #
vertex $-1 $379 $485 #
straight-curve $-1 53.097323526718952 0 7.3522758888886655 0 1 0 I I #
vertex $-1 $382 $486 #
point $-1 43.632686305518362 -29.167145045120982 4.4419658656145993 #
vertex $-1 $386 $487 #
point $-1 47.369425263468585 -29.167145045120982 4.4419658656145993 #
vertex $-1 $390 $488 #
point $-1 51.106164221418808 -29.167145045120982 4.4419658656145993 #
straight-curve $-1 -53.097323526718952 31.586320364386843 0 0 0 -1 I I #
point $-1 -53.097323526718952 -31.586320364386843 -7.3522758888886655 #
straight-curve $-1 -53.097323526718952 0 -7.3522758888886655 0 1 0 I I #
point $-1 -53.097323526718952 31.586320364386843 -7.3522758888886655 #
coedge $-1 $412 $411 $422 $470 reversed $220 $-1 #
edge $-1 $471 -31.586320364386843 $415 31.586320364386843 $411 $489 forward 7 unknown #
straight-curve $-1 -61.325266760313482 31.586320364386843 -5.8522758888886655 0 0 -1 I I #
point $-1 -61.325266760313482 31.586320364386843 -7.3522758888886655 #
point $-1 -61.325266760313482 31.586320364386843 -4.3522758888886655 #
edge $-1 $426 -1.5 $471 1.5 $465 $490 forward 7 unknown #
vertex $-1 $466 $491 #
straight-curve $-1 -57.211295143516217 -31.586320364386843 -7.3522758888886655 -1 0 0 I I #
straight-curve $-1 -61.325266760313482 0 -4.3522758888886655 0 -1 0 I I #
point $-1 -61.325266760313482 -31.586320364386843 -4.3522758888886655 #
straight-curve $-1 23.434712631734293 31.586320364386843 2.8214680755569468 -1 0 0 I I #
straight-curve $-1 53.097323526718952 31.586320364386843 0 0 0 -1 I I #
straight-curve $-1 53.097323526718952 0 7.3522758888886655 0 1 0 I I #
point $-1 53.097323526718952 31.586320364386843 2.8214680755569432 #
point $-1 53.097323526718952 31.586320364386843 7.3522758888886655 #
point $-1 43.132686305518362 28.729835187738765 4.1995610623693986 #
point $-1 46.869425263468585 28.729835187738765 4.1995610623693986 #
point $-1 50.606164221418808 28.729835187738765 4.1995610623693986 #
straight-curve $-1 0 -31.586320364386843 7.3522758888886655 1 0 0 I I #
straight-curve $-1 53.097323526718952 -31.586320364386843 0 0 0 -1 I I #
point $-1 53.097323526718952 -31.586320364386843 7.3522758888886655 #
point $-1 43.132686305518362 -28.729835187738765 4.1995610623693986 #
point $-1 46.869425263468585 -28.729835187738765 4.1995610623693986 #
point $-1 50.606164221418808 -28.729835187738765 4.1995610623693986 #
straight-curve $-1 -61.325266760313482 0 -7.3522758888886655 0 1 0 I I #
straight-curve $-1 -61.325266760313482 -31.586320364386843 -5.8522758888886655 0 0 -1 I I #
point $-1 -61.325266760313482 -31.586320364386843 -7.3522758888886655 #
End-of-ACIS-data 