500 0 11 0           
7 Unknown 11 ACIS 5.0 NT 24 Thu Mar 25 19:11:25 1999 
-1 9.9999999999999995e-007 1e-010 
body $-1 $11 $-1 $12 #
body $-1 $13 $-1 $14 #
body $-1 $15 $-1 $16 #
body $-1 $17 $-1 $18 #
body $-1 $19 $-1 $20 #
body $-1 $21 $-1 $22 #
body $-1 $23 $-1 $24 #
body $-1 $25 $-1 $26 #
body $-1 $27 $-1 $28 #
body $-1 $29 $-1 $30 #
body $-1 $31 $-1 $32 #
lump $-1 $-1 $33 $0 #
transform $-1 1 0 0 0 1 0 0 0 1 71.31443220313119 44.590944587768568 19.985158666556341 1 rotate no_reflect no_shear #
lump $-1 $-1 $34 $1 #
transform $-1 1 0 0 0 1 0 0 0 1 71.31443220313119 44.590944587768568 19.985158666556341 1 rotate no_reflect no_shear #
lump $-1 $-1 $35 $2 #
transform $-1 1 0 0 0 1 0 0 0 1 71.31443220313119 44.590944587768568 19.985158666556341 1 rotate no_reflect no_shear #
lump $-1 $-1 $36 $3 #
transform $-1 1 0 0 0 1 0 0 0 1 71.31443220313119 44.590944587768568 19.985158666556341 1 rotate no_reflect no_shear #
lump $-1 $-1 $37 $4 #
transform $-1 1 0 0 0 1 0 0 0 1 71.31443220313119 44.590944587768568 19.985158666556341 1 rotate no_reflect no_shear #
lump $-1 $-1 $38 $5 #
transform $-1 1 0 0 0 1 0 0 0 1 71.31443220313119 44.590944587768568 19.985158666556341 1 rotate no_reflect no_shear #
lump $-1 $-1 $39 $6 #
transform $-1 1 0 0 0 1 0 0 0 1 71.31443220313119 44.590944587768568 19.985158666556341 1 rotate no_reflect no_shear #
lump $-1 $-1 $40 $7 #
transform $-1 1 0 0 0 1 0 0 0 1 71.31443220313119 44.590944587768568 19.985158666556341 1 rotate no_reflect no_shear #
lump $-1 $-1 $41 $8 #
transform $-1 1 0 0 0 1 0 0 0 1 71.31443220313119 44.590944587768568 19.985158666556341 1 rotate no_reflect no_shear #
lump $-1 $-1 $42 $9 #
transform $-1 1 0 0 0 1 0 0 0 1 71.31443220313119 44.590944587768568 19.985158666556341 1 rotate no_reflect no_shear #
lump $-1 $-1 $43 $10 #
transform $-1 1 0 0 0 1 0 0 0 1 71.31443220313119 44.590944587768568 19.985158666556341 1 rotate no_reflect no_shear #
shell $-1 $-1 $-1 $44 $-1 $11 #
shell $-1 $-1 $-1 $45 $-1 $13 #
shell $-1 $-1 $-1 $46 $-1 $15 #
shell $-1 $-1 $-1 $47 $-1 $17 #
shell $-1 $-1 $-1 $48 $-1 $19 #
shell $-1 $-1 $-1 $49 $-1 $21 #
shell $-1 $-1 $-1 $50 $-1 $23 #
shell $-1 $-1 $-1 $51 $-1 $25 #
shell $-1 $-1 $-1 $52 $-1 $27 #
shell $-1 $-1 $-1 $53 $-1 $29 #
shell $-1 $-1 $-1 $54 $-1 $31 #
face $-1 $55 $56 $33 $-1 $57 forward single #
face $-1 $58 $59 $34 $-1 $60 reversed single #
face $-1 $61 $62 $35 $-1 $63 forward single #
face $-1 $64 $65 $36 $-1 $66 reversed single #
face $-1 $67 $68 $37 $-1 $69 forward single #
face $-1 $70 $71 $38 $-1 $72 forward single #
face $-1 $73 $74 $39 $-1 $75 forward single #
face $-1 $76 $77 $40 $-1 $78 reversed single #
face $-1 $79 $80 $41 $-1 $81 forward single #
face $-1 $82 $83 $42 $-1 $84 forward single #
face $-1 $85 $86 $43 $-1 $87 forward single #
face $-1 $88 $89 $33 $-1 $90 reversed single #
loop $-1 $-1 $91 $44 #
plane-surface $-1 0 0 19.985158666556341 0 0 1 1 0 0 forward_v I I I I #
face $-1 $92 $93 $34 $-1 $94 reversed single #
loop $-1 $-1 $95 $45 #
plane-surface $-1 50.658123232523018 41.606442466378589 179.0257374848203 1 0 0 0 -0.51503808176128008 -0.85716729658548041 forward_v I I I I #
face $-1 $96 $97 $35 $-1 $98 forward single #
loop $-1 $99 $100 $46 #
cone-surface $-1 60.986277717827107 35.906450953801532 13.627174151847242 0 -0.51503808176128008 -0.85716729658548041 2 0 0 1 I I 0 1 2 forward I I I I #
face $-1 $101 $102 $36 $-1 $103 reversed single #
loop $-1 $-1 $104 $47 #
plane-surface $-1 -24.983089504329136 -148.90309370779877 100.60364280802474 -1 0 0 0 -0.73135370988377701 0.68199835119979291 forward_v I I I I #
face $-1 $105 $106 $37 $-1 $107 forward single #
loop $-1 $108 $109 $48 #
cone-surface $-1 -36.715681475539185 -35.936815519437218 10.829070939691873 0 0.73135370988377701 -0.68199835119979291 1 0 0 1 I I 0 1 1 forward I I I I #
face $-1 $110 $111 $38 $-1 $112 forward single #
loop $-1 $113 $114 $49 #
cone-surface $-1 -32.315959486335416 -35.936815519437218 10.829070939691873 0 0.73135370988377701 -0.68199835119979291 1 0 0 1 I I 0 1 1 forward I I I I #
face $-1 $115 $116 $39 $-1 $117 forward single #
loop $-1 $118 $119 $50 #
cone-surface $-1 -27.916237497131647 -35.936815519437218 10.829070939691873 0 0.73135370988377701 -0.68199835119979291 1 0 0 1 I I 0 1 1 forward I I I I #
face $-1 $120 $121 $40 $-1 $122 reversed single #
loop $-1 $-1 $123 $51 #
plane-surface $-1 39.648829468341695 -148.90309370779877 100.60364280802474 -1 0 0 0 -0.73135370988377701 0.68199835119979291 forward_v I I I I #
face $-1 $124 $125 $41 $-1 $126 forward single #
loop $-1 $127 $128 $52 #
cone-surface $-1 27.916237497131647 -35.936815519437218 10.829070939691873 0 0.73135370988377701 -0.68199835119979291 1 0 0 1 I I 0 1 1 forward I I I I #
face $-1 $129 $130 $42 $-1 $131 forward single #
loop $-1 $132 $133 $53 #
cone-surface $-1 32.315959486335416 -35.936815519437218 10.829070939691873 0 0.73135370988377701 -0.68199835119979291 1 0 0 1 I I 0 1 1 forward I I I I #
face $-1 $134 $135 $43 $-1 $136 forward single #
loop $-1 $137 $138 $54 #
cone-surface $-1 36.715681475539185 -35.936815519437218 10.829070939691873 0 0.73135370988377701 -0.68199835119979291 1 0 0 1 I I 0 1 1 forward I I I I #
face $-1 $139 $140 $33 $-1 $141 reversed single #
loop $-1 $-1 $142 $55 #
plane-surface $-1 0 0 -19.985158666556341 0 0 1 1 0 0 forward_v I I I I #
coedge $-1 $143 $144 $145 $146 forward $56 $-1 #
face $-1 $147 $148 $34 $-1 $149 forward single #
loop $-1 $-1 $150 $58 #
plane-surface $-1 60.986277717827107 -31.852854261212507 56.768939366647317 0 0.51503808176128008 0.85716729658548041 1 0 0 forward_v I I I I #
coedge $-1 $151 $152 $153 $154 reversed $59 $-1 #
face $-1 $-1 $155 $35 $-1 $156 forward single #
loop $-1 $157 $158 $61 #
cone-surface $-1 60.986277717827107 34.319573465522005 10.986166554915055 0 -0.51503808176128008 -0.85716729658548041 1 0 0 1 I I -0.70710678118654746 0.70710678118654746 1 forward I I I I #
loop $-1 $-1 $159 $46 #
coedge $-1 $100 $100 $160 $161 reversed $62 $-1 #
face $-1 $162 $163 $36 $-1 $164 reversed single #
loop $-1 $-1 $165 $64 #
plane-surface $-1 -32.315959486335416 -44.59094458776859 3.3309924494549676 0 -0.73135370988377701 0.68199835119979291 1 0 0 forward_v I I I I #
coedge $-1 $166 $167 $168 $169 reversed $65 $-1 #
face $-1 $-1 $170 $37 $-1 $171 forward single #
loop $-1 $172 $173 $67 #
cone-surface $-1 -36.715681475539185 -34.682140029750897 9.6590671457781916 0 0.73135370988377701 -0.68199835119979291 0.5 0 0 1 I I -0.70710678118654746 0.70710678118654746 0.5 forward I I I I #
loop $-1 $-1 $174 $48 #
coedge $-1 $109 $109 $175 $176 reversed $68 $-1 #
face $-1 $-1 $177 $38 $-1 $178 forward single #
loop $-1 $179 $180 $70 #
cone-surface $-1 -32.315959486335416 -34.682140029750897 9.6590671457781916 0 0.73135370988377701 -0.68199835119979291 0.5 0 0 1 I I -0.70710678118654746 0.70710678118654746 0.5 forward I I I I #
loop $-1 $-1 $181 $49 #
coedge $-1 $114 $114 $182 $183 reversed $71 $-1 #
face $-1 $-1 $184 $39 $-1 $185 forward single #
loop $-1 $186 $187 $73 #
cone-surface $-1 -27.916237497131647 -34.682140029750897 9.6590671457781916 0 0.73135370988377701 -0.68199835119979291 0.5 0 0 1 I I -0.70710678118654746 0.70710678118654746 0.5 forward I I I I #
loop $-1 $-1 $188 $50 #
coedge $-1 $119 $119 $189 $190 reversed $74 $-1 #
face $-1 $191 $192 $40 $-1 $193 reversed single #
loop $-1 $-1 $194 $76 #
plane-surface $-1 32.315959486335416 -44.59094458776859 3.3309924494549676 0 -0.73135370988377701 0.68199835119979291 1 0 0 forward_v I I I I #
coedge $-1 $195 $196 $197 $198 reversed $77 $-1 #
face $-1 $-1 $199 $41 $-1 $200 forward single #
loop $-1 $201 $202 $79 #
cone-surface $-1 27.916237497131647 -34.682140029750897 9.6590671457781916 0 0.73135370988377701 -0.68199835119979291 0.5 0 0 1 I I -0.70710678118654746 0.70710678118654746 0.5 forward I I I I #
loop $-1 $-1 $203 $52 #
coedge $-1 $128 $128 $204 $205 reversed $80 $-1 #
face $-1 $-1 $206 $42 $-1 $207 forward single #
loop $-1 $208 $209 $82 #
cone-surface $-1 32.315959486335416 -34.682140029750897 9.6590671457781916 0 0.73135370988377701 -0.68199835119979291 0.5 0 0 1 I I -0.70710678118654746 0.70710678118654746 0.5 forward I I I I #
loop $-1 $-1 $210 $53 #
coedge $-1 $133 $133 $211 $212 reversed $83 $-1 #
face $-1 $-1 $213 $43 $-1 $214 forward single #
loop $-1 $215 $216 $85 #
cone-surface $-1 36.715681475539185 -34.682140029750897 9.6590671457781916 0 0.73135370988377701 -0.68199835119979291 0.5 0 0 1 I I -0.70710678118654746 0.70710678118654746 0.5 forward I I I I #
loop $-1 $-1 $217 $54 #
coedge $-1 $138 $138 $218 $219 reversed $86 $-1 #
face $-1 $220 $221 $33 $-1 $222 reversed single #
loop $-1 $-1 $223 $88 #
plane-surface $-1 0 -44.590944587768568 0 0 1 0 0 0 1 forward_v I I I I #
coedge $-1 $224 $225 $226 $227 forward $89 $-1 #
coedge $-1 $228 $91 $229 $230 forward $56 $-1 #
coedge $-1 $91 $228 $231 $232 forward $56 $-1 #
coedge $-1 $233 $234 $91 $146 reversed $235 $-1 #
edge $-1 $236 -44.590944587768568 $237 44.590944587768568 $145 $238 forward 7 unknown #
face $-1 $239 $240 $34 $-1 $241 reversed single #
loop $-1 $-1 $153 $92 #
plane-surface $-1 0 0 19.985158666556341 0 0 1 1 0 0 forward_v I I I I #
coedge $-1 $242 $243 $244 $245 reversed $93 $-1 #
coedge $-1 $152 $95 $246 $247 reversed $59 $-1 #
coedge $-1 $95 $151 $242 $248 reversed $59 $-1 #
coedge $-1 $244 $249 $95 $154 forward $148 $-1 #
edge $-1 $250 -23.787723354579274 $251 -8.5624148996817588 $153 $252 forward 7 unknown #
loop $-1 $-1 $160 $96 #
plane-surface $-1 60.986277717827107 -31.852854261212507 56.768939366647317 0 0.51503808176128008 0.85716729658548041 1 0 0 forward_v I I I I #
loop $-1 $-1 $253 $61 #
coedge $-1 $158 $158 $159 $254 reversed $97 $-1 #
coedge $-1 $159 $159 $158 $254 forward $99 $-1 #
coedge $-1 $160 $160 $100 $161 forward $155 $-1 #
edge $-1 $255 -9.0178716700492916e-016 $255 6.2831853071795996 $160 $256 forward 7 unknown #
face $-1 $257 $258 $36 $-1 $259 reversed single #
loop $-1 $-1 $260 $101 #
plane-surface $-1 -39.648829468341695 -148.90309370779877 100.60364280802474 1 0 0 0 0.73135370988377701 -0.68199835119979291 forward_v I I I I #
coedge $-1 $261 $262 $263 $264 reversed $102 $-1 #
coedge $-1 $167 $104 $265 $266 reversed $65 $-1 #
coedge $-1 $104 $166 $261 $267 reversed $65 $-1 #
coedge $-1 $263 $268 $104 $169 forward $269 $-1 #
edge $-1 $270 29.860602266130819 $271 45.390863133304634 $168 $272 forward 7 unknown #
loop $-1 $-1 $175 $105 #
plane-surface $-1 -32.315959486335416 -44.59094458776859 3.3309924494549676 0 -0.73135370988377701 0.68199835119979291 1 0 0 forward_v I I I I #
loop $-1 $-1 $273 $67 #
coedge $-1 $173 $173 $174 $274 reversed $106 $-1 #
coedge $-1 $174 $174 $173 $274 forward $108 $-1 #
coedge $-1 $175 $175 $109 $176 forward $170 $-1 #
edge $-1 $275 -1.6498360804101847e-015 $275 6.2831853071795987 $175 $276 forward 7 unknown #
loop $-1 $-1 $182 $110 #
plane-surface $-1 -32.315959486335416 -44.59094458776859 3.3309924494549676 0 -0.73135370988377701 0.68199835119979291 1 0 0 forward_v I I I I #
loop $-1 $-1 $277 $70 #
coedge $-1 $180 $180 $181 $278 reversed $111 $-1 #
coedge $-1 $181 $181 $180 $278 forward $113 $-1 #
coedge $-1 $182 $182 $114 $183 forward $177 $-1 #
edge $-1 $279 -1.6498360804101847e-015 $279 6.2831853071795987 $182 $280 forward 7 unknown #
loop $-1 $-1 $189 $115 #
plane-surface $-1 -32.315959486335416 -44.59094458776859 3.3309924494549676 0 -0.73135370988377701 0.68199835119979291 1 0 0 forward_v I I I I #
loop $-1 $-1 $281 $73 #
coedge $-1 $187 $187 $188 $282 reversed $116 $-1 #
coedge $-1 $188 $188 $187 $282 forward $118 $-1 #
coedge $-1 $189 $189 $119 $190 forward $184 $-1 #
edge $-1 $283 -1.6498360804101847e-015 $283 6.2831853071795987 $189 $284 forward 7 unknown #
face $-1 $285 $286 $40 $-1 $287 reversed single #
loop $-1 $-1 $288 $120 #
plane-surface $-1 24.983089504329136 -148.90309370779877 100.60364280802474 1 0 0 0 0.73135370988377701 -0.68199835119979291 forward_v I I I I #
coedge $-1 $289 $290 $291 $292 reversed $121 $-1 #
coedge $-1 $196 $123 $293 $294 reversed $77 $-1 #
coedge $-1 $123 $195 $289 $295 reversed $77 $-1 #
coedge $-1 $291 $296 $123 $198 forward $297 $-1 #
edge $-1 $298 29.860602266130819 $299 45.390863133304634 $197 $300 forward 7 unknown #
loop $-1 $-1 $204 $124 #
plane-surface $-1 32.315959486335416 -44.59094458776859 3.3309924494549676 0 -0.73135370988377701 0.68199835119979291 1 0 0 forward_v I I I I #
loop $-1 $-1 $301 $79 #
coedge $-1 $202 $202 $203 $302 reversed $125 $-1 #
coedge $-1 $203 $203 $202 $302 forward $127 $-1 #
coedge $-1 $204 $204 $128 $205 forward $199 $-1 #
edge $-1 $303 -1.6498360804101847e-015 $303 6.2831853071795987 $204 $304 forward 7 unknown #
loop $-1 $-1 $211 $129 #
plane-surface $-1 32.315959486335416 -44.59094458776859 3.3309924494549676 0 -0.73135370988377701 0.68199835119979291 1 0 0 forward_v I I I I #
loop $-1 $-1 $305 $82 #
coedge $-1 $209 $209 $210 $306 reversed $130 $-1 #
coedge $-1 $210 $210 $209 $306 forward $132 $-1 #
coedge $-1 $211 $211 $133 $212 forward $206 $-1 #
edge $-1 $307 -1.6498360804101847e-015 $307 6.2831853071795987 $211 $308 forward 7 unknown #
loop $-1 $-1 $218 $134 #
plane-surface $-1 32.315959486335416 -44.59094458776859 3.3309924494549676 0 -0.73135370988377701 0.68199835119979291 1 0 0 forward_v I I I I #
loop $-1 $-1 $309 $85 #
coedge $-1 $216 $216 $217 $310 reversed $135 $-1 #
coedge $-1 $217 $217 $216 $310 forward $137 $-1 #
coedge $-1 $218 $218 $138 $219 forward $213 $-1 #
edge $-1 $311 -1.6498360804101847e-015 $311 6.2831853071795987 $218 $312 forward 7 unknown #
face $-1 $313 $314 $33 $-1 $315 reversed single #
loop $-1 $-1 $316 $139 #
plane-surface $-1 -71.31443220313119 0 0 1 0 0 0 0 -1 forward_v I I I I #
coedge $-1 $317 $231 $318 $319 forward $140 $-1 #
coedge $-1 $320 $142 $317 $321 forward $89 $-1 #
coedge $-1 $142 $320 $322 $323 forward $89 $-1 #
coedge $-1 $234 $233 $142 $227 reversed $235 $-1 #
edge $-1 $324 -44.590944587768568 $325 44.590944587768568 $226 $326 forward 7 unknown #
coedge $-1 $144 $143 $327 $328 forward $56 $-1 #
coedge $-1 $329 $330 $143 $230 reversed $314 $-1 #
edge $-1 $237 -71.31443220313119 $331 71.31443220313119 $229 $332 forward 7 unknown #
coedge $-1 $223 $333 $144 $232 reversed $140 $-1 #
edge $-1 $334 -71.31443220313119 $236 71.31443220313119 $231 $335 forward 7 unknown #
coedge $-1 $226 $145 $333 $336 forward $235 $-1 #
coedge $-1 $145 $226 $329 $337 reversed $235 $-1 #
loop $-1 $-1 $233 $313 #
vertex $-1 $146 $338 #
vertex $-1 $146 $339 #
straight-curve $-1 71.31443220313119 0 19.985158666556341 0 1 0 I I #
face $-1 $-1 $340 $34 $-1 $341 reversed single #
loop $-1 $-1 $246 $147 #
plane-surface $-1 0 44.590944587768568 0 0 -1 0 0 0 -1 forward_v I I I I #
coedge $-1 $342 $150 $152 $248 forward $93 $-1 #
coedge $-1 $150 $342 $343 $344 reversed $93 $-1 #
coedge $-1 $345 $153 $150 $245 forward $148 $-1 #
edge $-1 $251 20.164984373609464 $346 40.821293344217636 $244 $347 forward 7 unknown #
coedge $-1 $348 $349 $151 $247 forward $240 $-1 #
edge $-1 $350 -78.67599850457853 $250 -69.527710075853804 $246 $351 forward 7 unknown #
edge $-1 $251 71.419535763843257 $350 89.181889175537123 $152 $352 forward 7 unknown #
coedge $-1 $153 $345 $348 $353 forward $148 $-1 #
vertex $-1 $247 $354 #
vertex $-1 $154 $355 #
straight-curve $-1 50.658123232523018 20.803221233189294 19.985158666556345 0 -1 0 I I #
coedge $-1 $253 $253 $-1 $356 reversed $157 $-1 #
edge $-1 $357 0 $357 6.2831853071796004 $158 $358 forward 7 unknown #
vertex $-1 $161 $359 #
ellipse-curve $-1 60.986277717827107 36.978290360319804 15.411014452193982 0 0.51503808176128008 0.85716729658548041 2 0 0 1 I I #
face $-1 $-1 $269 $36 $-1 $360 forward single #
loop $-1 $-1 $361 $162 #
plane-surface $-1 0 -44.590944587768568 0 0 1 0 0 0 1 forward_v I I I I #
coedge $-1 $362 $363 $364 $365 reversed $163 $-1 #
coedge $-1 $366 $165 $167 $267 forward $102 $-1 #
coedge $-1 $165 $366 $362 $367 forward $102 $-1 #
coedge $-1 $364 $168 $165 $264 forward $269 $-1 #
edge $-1 $271 8.8251097611614284 $368 23.490849725173987 $263 $369 forward 7 unknown #
coedge $-1 $370 $371 $166 $266 forward $258 $-1 #
edge $-1 $372 -46.970828954557383 $270 -30.316662737456031 $265 $373 forward 7 unknown #
edge $-1 $271 -22.77169855301338 $372 -3.1101770075664475e-014 $167 $374 forward 7 unknown #
coedge $-1 $168 $364 $370 $375 forward $269 $-1 #
loop $-1 $-1 $364 $257 #
vertex $-1 $266 $376 #
vertex $-1 $169 $377 #
straight-curve $-1 -24.983089504329136 -74.451546853899387 19.985158666556345 0 1 0 I I #
coedge $-1 $273 $273 $-1 $378 reversed $172 $-1 #
edge $-1 $379 0 $379 6.2831853071796004 $173 $380 forward 7 unknown #
vertex $-1 $176 $381 #
ellipse-curve $-1 -36.715681475539185 -36.825814154181664 11.658075558005665 0 -0.73135370988377701 0.68199835119979291 1 0 0 1 I I #
coedge $-1 $277 $277 $-1 $382 reversed $179 $-1 #
edge $-1 $383 0 $383 6.2831853071796004 $180 $384 forward 7 unknown #
vertex $-1 $183 $385 #
ellipse-curve $-1 -32.315959486335416 -36.825814154181664 11.658075558005665 0 -0.73135370988377701 0.68199835119979291 1 0 0 1 I I #
coedge $-1 $281 $281 $-1 $386 reversed $186 $-1 #
edge $-1 $387 0 $387 6.2831853071796004 $187 $388 forward 7 unknown #
vertex $-1 $190 $389 #
ellipse-curve $-1 -27.916237497131647 -36.825814154181664 11.658075558005665 0 -0.73135370988377701 0.68199835119979291 1 0 0 1 I I #
face $-1 $-1 $297 $40 $-1 $390 forward single #
loop $-1 $-1 $391 $191 #
plane-surface $-1 0 -44.590944587768568 0 0 1 0 0 0 1 forward_v I I I I #
coedge $-1 $392 $393 $394 $395 reversed $192 $-1 #
coedge $-1 $396 $194 $196 $295 forward $121 $-1 #
coedge $-1 $194 $396 $392 $397 forward $121 $-1 #
coedge $-1 $394 $197 $194 $292 forward $297 $-1 #
edge $-1 $299 -23.490849725173987 $398 -8.8251097611614284 $291 $399 forward 7 unknown #
coedge $-1 $400 $401 $195 $294 forward $286 $-1 #
edge $-1 $402 -46.970828954557383 $298 -30.316662737456031 $293 $403 forward 7 unknown #
edge $-1 $299 -22.77169855301338 $402 -3.1101770075664475e-014 $196 $404 forward 7 unknown #
coedge $-1 $197 $394 $400 $405 forward $297 $-1 #
loop $-1 $-1 $394 $285 #
vertex $-1 $294 $406 #
vertex $-1 $198 $407 #
straight-curve $-1 39.648829468341695 -74.451546853899387 19.985158666556345 0 1 0 I I #
coedge $-1 $301 $301 $-1 $408 reversed $201 $-1 #
edge $-1 $409 0 $409 6.2831853071796004 $202 $410 forward 7 unknown #
vertex $-1 $205 $411 #
ellipse-curve $-1 27.916237497131647 -36.825814154181664 11.658075558005665 0 -0.73135370988377701 0.68199835119979291 1 0 0 1 I I #
coedge $-1 $305 $305 $-1 $412 reversed $208 $-1 #
edge $-1 $413 0 $413 6.2831853071796004 $209 $414 forward 7 unknown #
vertex $-1 $212 $415 #
ellipse-curve $-1 32.315959486335416 -36.825814154181664 11.658075558005665 0 -0.73135370988377701 0.68199835119979291 1 0 0 1 I I #
coedge $-1 $309 $309 $-1 $416 reversed $215 $-1 #
edge $-1 $417 0 $417 6.2831853071796004 $216 $418 forward 7 unknown #
vertex $-1 $219 $419 #
ellipse-curve $-1 36.715681475539185 -36.825814154181664 11.658075558005665 0 -0.73135370988377701 0.68199835119979291 1 0 0 1 I I #
face $-1 $-1 $235 $33 $-1 $420 reversed single #
loop $-1 $-1 $329 $220 #
plane-surface $-1 0 44.590944587768568 0 0 -1 0 0 0 -1 forward_v I I I I #
coedge $-1 $421 $327 $330 $422 forward $221 $-1 #
coedge $-1 $333 $223 $224 $321 reversed $140 $-1 #
coedge $-1 $327 $421 $223 $319 reversed $221 $-1 #
edge $-1 $334 -19.985158666556341 $423 19.985158666556341 $318 $424 forward 7 unknown #
coedge $-1 $225 $224 $421 $425 forward $89 $-1 #
edge $-1 $325 -71.31443220313119 $423 71.31443220313119 $317 $426 forward 7 unknown #
coedge $-1 $330 $329 $225 $323 reversed $314 $-1 #
edge $-1 $427 -71.31443220313119 $324 71.31443220313119 $322 $428 forward 7 unknown #
vertex $-1 $227 $429 #
vertex $-1 $336 $430 #
straight-curve $-1 71.31443220313119 0 -19.985158666556341 0 -1 0 I I #
coedge $-1 $316 $318 $228 $328 reversed $221 $-1 #
edge $-1 $331 -44.590944587768568 $334 44.590944587768568 $327 $431 forward 7 unknown #
coedge $-1 $322 $229 $234 $337 forward $314 $-1 #
coedge $-1 $229 $322 $316 $422 reversed $314 $-1 #
vertex $-1 $230 $432 #
straight-curve $-1 0 44.590944587768568 19.985158666556341 -1 0 0 I I #
coedge $-1 $231 $317 $233 $336 reversed $140 $-1 #
vertex $-1 $328 $433 #
straight-curve $-1 0 -44.590944587768568 19.985158666556341 1 0 0 I I #
edge $-1 $236 -19.985158666556341 $325 19.985158666556341 $233 $434 forward 7 unknown #
edge $-1 $237 -19.985158666556341 $324 19.985158666556341 $234 $435 forward 7 unknown #
point $-1 71.31443220313119 -44.590944587768568 19.985158666556341 #
point $-1 71.31443220313119 44.590944587768568 19.985158666556341 #
loop $-1 $-1 $343 $239 #
plane-surface $-1 71.31443220313119 0 0 -1 0 0 0 0 1 forward_v I I I I #
coedge $-1 $243 $242 $349 $436 reversed $93 $-1 #
coedge $-1 $437 $438 $243 $344 forward $340 $-1 #
edge $-1 $346 43.148840458525619 $439 60.911193870219478 $343 $440 forward 7 unknown #
coedge $-1 $249 $244 $438 $441 forward $148 $-1 #
vertex $-1 $441 $442 #
straight-curve $-1 30.493138858913554 29.365636132871067 19.985158666556337 1 0 0 I I #
coedge $-1 $443 $246 $249 $353 reversed $240 $-1 #
coedge $-1 $246 $443 $342 $436 forward $240 $-1 #
vertex $-1 $247 $444 #
straight-curve $-1 50.658123232523018 44.590944587768568 89.512868742410149 0 0 1 I I #
straight-curve $-1 50.658123232523018 -31.852854261212507 56.768939366647317 0 0.85716729658548041 -0.51503808176128008 I I #
edge $-1 $445 -71.31443220313119 $250 -50.658123232523018 $348 $446 forward 7 unknown #
point $-1 50.658123232523018 44.590944587768568 19.985158666556341 #
point $-1 50.658123232523018 29.365636132871053 19.985158666556345 #
edge $-1 $447 1 $447 0 $253 $-1 forward 7 unknown #
vertex $-1 $254 $448 #
ellipse-curve $-1 60.986277717827107 34.834611547283288 11.843333851500535 0 0.51503808176128008 0.85716729658548041 2 0 0 1 I I #
point $-1 62.986277717827107 36.978290360319782 15.41101445219395 #
plane-surface $-1 0 0 19.985158666556341 0 0 1 1 0 0 forward_v I I I I #
coedge $-1 $371 $370 $363 $449 forward $258 $-1 #
coedge $-1 $363 $260 $262 $367 reversed $163 $-1 #
coedge $-1 $260 $362 $361 $449 reversed $163 $-1 #
coedge $-1 $268 $263 $260 $365 forward $269 $-1 #
edge $-1 $368 -45.390863133304634 $450 -29.860602266130819 $364 $451 forward 7 unknown #
coedge $-1 $262 $261 $371 $452 reversed $102 $-1 #
edge $-1 $453 3.1101770075664475e-014 $368 22.77169855301338 $362 $454 forward 7 unknown #
vertex $-1 $264 $455 #
straight-curve $-1 -16.157979743167708 -29.060683720594753 19.985158666556341 -1 0 0 I I #
coedge $-1 $361 $265 $268 $375 reversed $258 $-1 #
coedge $-1 $265 $361 $366 $452 forward $258 $-1 #
vertex $-1 $266 $456 #
straight-curve $-1 -24.983089504329136 -44.590944587768568 50.301821404012372 0 0 1 I I #
straight-curve $-1 -24.983089504329136 -44.59094458776859 3.3309924494549676 0 -0.68199835119979291 -0.73135370988377701 I I #
edge $-1 $450 -39.648829468341695 $270 -24.983089504329136 $370 $457 forward 7 unknown #
point $-1 -24.983089504329136 -44.590944587768568 19.985158666556341 #
point $-1 -24.983089504329136 -29.060683720594753 19.985158666556341 #
edge $-1 $458 1 $458 0 $273 $-1 forward 7 unknown #
vertex $-1 $274 $459 #
ellipse-curve $-1 -36.715681475539185 -35.047816884692786 10.000066321378089 0 -0.73135370988377701 0.68199835119979291 1 0 0 1 I I #
point $-1 -35.715681475539185 -36.825814154181657 11.658075558005656 #
edge $-1 $460 1 $460 0 $277 $-1 forward 7 unknown #
vertex $-1 $278 $461 #
ellipse-curve $-1 -32.315959486335416 -35.047816884692786 10.000066321378089 0 -0.73135370988377701 0.68199835119979291 1 0 0 1 I I #
point $-1 -31.315959486335416 -36.825814154181657 11.658075558005656 #
edge $-1 $462 1 $462 0 $281 $-1 forward 7 unknown #
vertex $-1 $282 $463 #
ellipse-curve $-1 -27.916237497131647 -35.047816884692786 10.000066321378089 0 -0.73135370988377701 0.68199835119979291 1 0 0 1 I I #
point $-1 -26.916237497131647 -36.825814154181657 11.658075558005656 #
plane-surface $-1 0 0 19.985158666556341 0 0 1 1 0 0 forward_v I I I I #
coedge $-1 $401 $400 $393 $464 forward $286 $-1 #
coedge $-1 $393 $288 $290 $397 reversed $192 $-1 #
coedge $-1 $288 $392 $391 $464 reversed $192 $-1 #
coedge $-1 $296 $291 $288 $395 forward $297 $-1 #
edge $-1 $398 -45.390863133304634 $465 -29.860602266130819 $394 $466 forward 7 unknown #
coedge $-1 $290 $289 $401 $467 reversed $121 $-1 #
edge $-1 $468 3.1101770075664475e-014 $398 22.77169855301338 $392 $469 forward 7 unknown #
vertex $-1 $292 $470 #
straight-curve $-1 16.157979743167708 -29.060683720594753 19.985158666556341 -1 0 0 I I #
coedge $-1 $391 $293 $296 $405 reversed $286 $-1 #
coedge $-1 $293 $391 $396 $467 forward $286 $-1 #
vertex $-1 $294 $471 #
straight-curve $-1 39.648829468341695 -44.590944587768568 50.301821404012372 0 0 1 I I #
straight-curve $-1 39.648829468341695 -44.59094458776859 3.3309924494549676 0 -0.68199835119979291 -0.73135370988377701 I I #
edge $-1 $465 24.983089504329136 $298 39.648829468341695 $400 $472 forward 7 unknown #
point $-1 39.648829468341695 -44.590944587768568 19.985158666556341 #
point $-1 39.648829468341695 -29.060683720594753 19.985158666556341 #
edge $-1 $473 1 $473 0 $301 $-1 forward 7 unknown #
vertex $-1 $302 $474 #
ellipse-curve $-1 27.916237497131647 -35.047816884692786 10.000066321378089 0 -0.73135370988377701 0.68199835119979291 1 0 0 1 I I #
point $-1 28.916237497131647 -36.825814154181657 11.658075558005656 #
edge $-1 $475 1 $475 0 $305 $-1 forward 7 unknown #
vertex $-1 $306 $476 #
ellipse-curve $-1 32.315959486335416 -35.047816884692786 10.000066321378089 0 -0.73135370988377701 0.68199835119979291 1 0 0 1 I I #
point $-1 33.315959486335416 -36.825814154181657 11.658075558005656 #
edge $-1 $477 1 $477 0 $309 $-1 forward 7 unknown #
vertex $-1 $310 $478 #
ellipse-curve $-1 36.715681475539185 -35.047816884692786 10.000066321378089 0 -0.73135370988377701 0.68199835119979291 1 0 0 1 I I #
point $-1 37.715681475539185 -36.825814154181657 11.658075558005656 #
plane-surface $-1 71.31443220313119 0 0 -1 0 0 0 0 1 forward_v I I I I #
coedge $-1 $318 $316 $320 $425 reversed $221 $-1 #
edge $-1 $331 -19.985158666556341 $427 19.985158666556341 $330 $479 forward 7 unknown #
vertex $-1 $425 $480 #
straight-curve $-1 -71.31443220313119 -44.590944587768568 0 0 0 -1 I I #
edge $-1 $423 -44.590944587768568 $427 44.590944587768568 $421 $481 forward 7 unknown #
straight-curve $-1 0 -44.590944587768568 -19.985158666556341 -1 0 0 I I #
vertex $-1 $323 $482 #
straight-curve $-1 0 44.590944587768568 -19.985158666556341 1 0 0 I I #
point $-1 71.31443220313119 44.590944587768568 -19.985158666556341 #
point $-1 71.31443220313119 -44.590944587768568 -19.985158666556341 #
straight-curve $-1 -71.31443220313119 0 19.985158666556341 0 -1 0 I I #
point $-1 -71.31443220313119 44.590944587768568 19.985158666556341 #
point $-1 -71.31443220313119 -44.590944587768568 19.985158666556341 #
straight-curve $-1 71.31443220313119 -44.590944587768568 0 0 0 -1 I I #
straight-curve $-1 71.31443220313119 44.590944587768568 0 0 0 -1 I I #
edge $-1 $439 -40.821293344217636 $350 -20.164984373609464 $349 $483 forward 7 unknown #
coedge $-1 $438 $343 $443 $484 reversed $340 $-1 #
coedge $-1 $343 $437 $345 $441 reversed $340 $-1 #
vertex $-1 $344 $485 #
straight-curve $-1 71.31443220313119 -7.6201387937615532 42.208454686538893 0 0.85716729658548041 -0.51503808176128008 I I #
edge $-1 $346 29.365636132871053 $445 44.590944587768568 $438 $486 forward 7 unknown #
point $-1 71.31443220313119 29.365636132871053 19.985158666556345 #
coedge $-1 $349 $348 $437 $484 forward $240 $-1 #
point $-1 50.658123232523018 44.590944587768568 10.836870237831612 #
vertex $-1 $441 $487 #
straight-curve $-1 0 44.590944587768568 19.985158666556341 -1 0 0 I I #
vertex $-1 $356 $488 #
point $-1 62.986277717827107 34.834611547283288 11.843333851500535 #
edge $-1 $450 30.316662737456031 $453 46.970828954557383 $361 $489 forward 7 unknown #
vertex $-1 $375 $490 #
straight-curve $-1 -39.648829468341695 -74.451546853899387 19.985158666556345 0 -1 0 I I #
edge $-1 $453 -23.490849725173987 $372 -8.8251097611614284 $371 $491 forward 7 unknown #
vertex $-1 $452 $492 #
straight-curve $-1 -39.648829468341695 -44.59094458776859 3.3309924494549676 0 0.68199835119979291 0.73135370988377701 I I #
point $-1 -39.648829468341695 -29.060683720594753 19.985158666556341 #
point $-1 -24.983089504329136 -44.590944587768568 3.3309924494549903 #
straight-curve $-1 0 -44.590944587768568 19.985158666556341 1 0 0 I I #
vertex $-1 $378 $493 #
point $-1 -35.715681475539185 -35.047816884692786 10.000066321378089 #
vertex $-1 $382 $494 #
point $-1 -31.315959486335416 -35.047816884692786 10.000066321378089 #
vertex $-1 $386 $495 #
point $-1 -26.916237497131647 -35.047816884692786 10.000066321378089 #
edge $-1 $465 30.316662737456031 $468 46.970828954557383 $391 $496 forward 7 unknown #
vertex $-1 $405 $497 #
straight-curve $-1 24.983089504329136 -74.451546853899387 19.985158666556345 0 -1 0 I I #
edge $-1 $468 8.8251097611614284 $402 23.490849725173987 $401 $498 forward 7 unknown #
vertex $-1 $467 $499 #
straight-curve $-1 24.983089504329136 -44.59094458776859 3.3309924494549676 0 0.68199835119979291 0.73135370988377701 I I #
point $-1 24.983089504329136 -29.060683720594753 19.985158666556341 #
point $-1 39.648829468341695 -44.590944587768568 3.3309924494549903 #
straight-curve $-1 0 -44.590944587768568 19.985158666556341 1 0 0 I I #
vertex $-1 $408 $500 #
point $-1 28.916237497131647 -35.047816884692786 10.000066321378089 #
vertex $-1 $412 $501 #
point $-1 33.315959486335416 -35.047816884692786 10.000066321378089 #
vertex $-1 $416 $502 #
point $-1 37.715681475539185 -35.047816884692786 10.000066321378089 #
straight-curve $-1 -71.31443220313119 44.590944587768568 0 0 0 -1 I I #
point $-1 -71.31443220313119 -44.590944587768568 -19.985158666556341 #
straight-curve $-1 -71.31443220313119 0 -19.985158666556341 0 1 0 I I #
point $-1 -71.31443220313119 44.590944587768568 -19.985158666556341 #
straight-curve $-1 30.493138858913554 44.590944587768568 10.836870237831615 -1 0 0 I I #
edge $-1 $445 -19.985158666556341 $439 -10.836870237831612 $437 $503 forward 7 unknown #
point $-1 71.31443220313119 44.590944587768568 10.836870237831612 #
straight-curve $-1 71.31443220313119 0 19.985158666556341 0 1 0 I I #
point $-1 71.31443220313119 44.590944587768568 19.985158666556341 #
point $-1 60.986277717827107 33.804535383760722 10.128999258329575 #
straight-curve $-1 -39.648829468341695 -44.590944587768568 50.301821404012372 0 0 -1 I I #
point $-1 -39.648829468341695 -44.590944587768568 19.985158666556341 #
straight-curve $-1 -16.157979743167708 -44.590944587768568 3.3309924494549836 1 0 0 I I #
point $-1 -39.648829468341695 -44.590944587768568 3.3309924494549903 #
point $-1 -36.715681475539185 -34.316463174809009 9.3180679701782942 #
point $-1 -32.315959486335416 -34.316463174809009 9.3180679701782942 #
point $-1 -27.916237497131647 -34.316463174809009 9.3180679701782942 #
straight-curve $-1 24.983089504329136 -44.590944587768568 50.301821404012372 0 0 -1 I I #
point $-1 24.983089504329136 -44.590944587768568 19.985158666556341 #
straight-curve $-1 16.157979743167708 -44.590944587768568 3.3309924494549836 1 0 0 I I #
point $-1 24.983089504329136 -44.590944587768568 3.3309924494549903 #
point $-1 27.916237497131647 -34.316463174809009 9.3180679701782942 #
point $-1 32.315959486335416 -34.316463174809009 9.3180679701782942 #
point $-1 36.715681475539185 -34.316463174809009 9.3180679701782942 #
straight-curve $-1 71.31443220313119 44.590944587768568 0 0 0 -1 I I #
End-of-ACIS-data 