500 0 6 0           
7 Unknown 11 ACIS 5.0 NT 24 Fri Mar 26 01:03:05 1999 
-1 9.9999999999999995e-007 1e-010 
body $-1 $6 $-1 $7 #
body $-1 $8 $-1 $9 #
body $-1 $10 $-1 $11 #
body $-1 $12 $-1 $13 #
body $-1 $14 $-1 $15 #
body $-1 $16 $-1 $17 #
lump $-1 $-1 $18 $0 #
transform $-1 1 0 0 0 1 0 0 0 1 73.28470717490157 51.017490978605366 12.272721667829186 1 rotate no_reflect no_shear #
lump $-1 $-1 $19 $1 #
transform $-1 1 0 0 0 1 0 0 0 1 73.28470717490157 51.017490978605366 12.272721667829186 1 rotate no_reflect no_shear #
lump $-1 $-1 $20 $2 #
transform $-1 1 0 0 0 1 0 0 0 1 73.28470717490157 51.017490978605366 12.272721667829186 1 rotate no_reflect no_shear #
lump $-1 $-1 $21 $3 #
transform $-1 1 0 0 0 1 0 0 0 1 73.28470717490157 51.017490978605366 12.272721667829186 1 rotate no_reflect no_shear #
lump $-1 $-1 $22 $4 #
transform $-1 1 0 0 0 1 0 0 0 1 73.28470717490157 51.017490978605366 12.272721667829186 1 rotate no_reflect no_shear #
lump $-1 $-1 $23 $5 #
transform $-1 1 0 0 0 1 0 0 0 1 73.28470717490157 51.017490978605366 12.272721667829186 1 rotate no_reflect no_shear #
shell $-1 $-1 $-1 $24 $-1 $6 #
shell $-1 $-1 $-1 $25 $-1 $8 #
shell $-1 $-1 $-1 $26 $-1 $10 #
shell $-1 $-1 $-1 $27 $-1 $12 #
shell $-1 $-1 $-1 $28 $-1 $14 #
shell $-1 $-1 $-1 $29 $-1 $16 #
face $-1 $30 $31 $18 $-1 $32 reversed single #
face $-1 $33 $34 $19 $-1 $35 forward single #
face $-1 $36 $37 $20 $-1 $38 reversed single #
face $-1 $39 $40 $21 $-1 $41 forward single #
face $-1 $42 $43 $22 $-1 $44 reversed single #
face $-1 $45 $46 $23 $-1 $47 forward single #
face $-1 $48 $49 $18 $-1 $50 forward single #
loop $-1 $-1 $51 $24 #
plane-surface $-1 -73.28470717490157 0 0 1 0 0 0 0 -1 forward_v I I I I #
face $-1 $52 $53 $19 $-1 $54 reversed single #
loop $-1 $-1 $55 $25 #
plane-surface $-1 -73.28470717490157 0 0 1 0 0 0 0 -1 forward_v I I I I #
face $-1 $56 $57 $20 $-1 $58 reversed single #
loop $-1 $-1 $59 $26 #
plane-surface $-1 67.305156743698504 -135.08625442289537 125.6632826823718 -1 0 0 0 -0.57357644374324357 0.81915203911291934 forward_v I I I I #
face $-1 $60 $61 $21 $-1 $62 forward single #
loop $-1 $63 $64 $27 #
cone-surface $-1 54.801065710738357 -44.642293159593834 6.6361618408024983 0 0.57357644374324357 -0.81915203911291934 1.5 0 0 1 I I 0 1 1.5 forward I I I I #
face $-1 $65 $66 $22 $-1 $67 reversed single #
loop $-1 $-1 $68 $28 #
plane-surface $-1 42.296974677778209 51.504090891796267 184.18814477079476 1 0 0 0 -0.57357644374324357 -0.81915203911291934 forward_v I I I I #
face $-1 $69 $70 $23 $-1 $71 forward single #
loop $-1 $72 $73 $29 #
cone-surface $-1 54.801065710738357 44.642293159593848 6.6361618408025054 0 -0.57357644374324357 -0.81915203911291934 1.5 0 0 1 I I 0 1 1.5 forward I I I I #
face $-1 $74 $75 $18 $-1 $76 reversed single #
loop $-1 $-1 $77 $30 #
plane-surface $-1 0 0 12.272721667829186 0 0 1 1 0 0 forward_v I I I I #
coedge $-1 $78 $79 $80 $81 reversed $31 $-1 #
face $-1 $82 $83 $19 $-1 $84 reversed single #
loop $-1 $-1 $85 $33 #
plane-surface $-1 0 0 -12.272721667829186 0 0 1 1 0 0 forward_v I I I I #
coedge $-1 $86 $87 $88 $89 forward $34 $-1 #
face $-1 $90 $91 $20 $-1 $92 reversed single #
loop $-1 $-1 $93 $36 #
plane-surface $-1 54.801065710738357 -51.017490978605352 5.6006480461441726 0 -0.57357644374324357 0.81915203911291934 1 0 0 forward_v I I I I #
coedge $-1 $94 $95 $96 $97 reversed $37 $-1 #
face $-1 $-1 $98 $21 $-1 $99 forward single #
loop $-1 $100 $101 $39 #
cone-surface $-1 54.801065710738357 -42.601267238090259 3.7212747952836072 0 0.57357644374324357 -0.81915203911291934 0.75 0 0 1 I I -0.70710678118654757 0.70710678118654757 0.75 forward I I I I #
loop $-1 $-1 $102 $27 #
coedge $-1 $64 $64 $103 $104 reversed $40 $-1 #
face $-1 $105 $106 $22 $-1 $107 reversed single #
loop $-1 $-1 $108 $42 #
plane-surface $-1 54.801065710738357 -32.564672552493747 64.125510134567136 0 0.57357644374324357 0.81915203911291934 1 0 0 forward_v I I I I #
coedge $-1 $109 $110 $111 $112 reversed $43 $-1 #
face $-1 $-1 $113 $23 $-1 $114 forward single #
loop $-1 $115 $116 $45 #
cone-surface $-1 54.801065710738357 42.601267238090273 3.7212747952836143 0 -0.57357644374324357 -0.81915203911291934 0.75 0 0 1 I I -0.70710678118654757 0.70710678118654757 0.75 forward I I I I #
loop $-1 $-1 $117 $29 #
coedge $-1 $73 $73 $118 $119 reversed $46 $-1 #
face $-1 $120 $121 $18 $-1 $122 reversed single #
loop $-1 $-1 $123 $48 #
plane-surface $-1 0 0 -12.272721667829186 0 0 1 1 0 0 forward_v I I I I #
coedge $-1 $124 $125 $126 $127 forward $49 $-1 #
coedge $-1 $128 $51 $129 $130 reversed $31 $-1 #
coedge $-1 $51 $128 $131 $132 forward $31 $-1 #
coedge $-1 $133 $134 $51 $81 forward $75 $-1 #
edge $-1 $135 -51.017490978605366 $136 51.017490978605366 $51 $137 forward 7 unknown #
face $-1 $138 $139 $19 $-1 $140 reversed single #
loop $-1 $-1 $141 $52 #
plane-surface $-1 -77.505520396662817 -31.569682349923184 0 0 1 0 0 0 1 forward_v I I I I #
coedge $-1 $142 $143 $87 $144 forward $53 $-1 #
coedge $-1 $145 $55 $146 $147 reversed $34 $-1 #
coedge $-1 $55 $145 $85 $144 reversed $34 $-1 #
coedge $-1 $148 $149 $55 $89 reversed $150 $-1 #
edge $-1 $151 -12.272721667829186 $152 12.272721667829186 $88 $153 forward 7 unknown #
face $-1 $154 $155 $20 $-1 $156 forward single #
loop $-1 $-1 $157 $56 #
plane-surface $-1 42.296974677778209 -135.08625442289537 125.6632826823718 1 0 0 0 0.57357644374324357 -0.81915203911291934 forward_v I I I I #
coedge $-1 $158 $159 $160 $161 reversed $57 $-1 #
coedge $-1 $95 $59 $162 $163 reversed $37 $-1 #
coedge $-1 $59 $94 $158 $164 reversed $37 $-1 #
coedge $-1 $160 $165 $59 $97 forward $155 $-1 #
edge $-1 $166 16.525636232842317 $167 26.054344693473183 $96 $168 forward 7 unknown #
loop $-1 $-1 $103 $60 #
plane-surface $-1 54.801065710738357 -51.017490978605352 5.6006480461441726 0 -0.57357644374324357 0.81915203911291934 1 0 0 forward_v I I I I #
loop $-1 $-1 $169 $39 #
coedge $-1 $101 $101 $102 $170 reversed $61 $-1 #
coedge $-1 $102 $102 $101 $170 forward $63 $-1 #
coedge $-1 $103 $103 $64 $104 forward $98 $-1 #
edge $-1 $171 1.9441685660006169e-015 $171 6.2831853071796022 $103 $172 forward 7 unknown #
face $-1 $173 $174 $22 $-1 $175 reversed single #
loop $-1 $-1 $176 $65 #
plane-surface $-1 67.305156743698504 51.504090891796267 184.18814477079476 -1 0 0 0 0.57357644374324357 0.81915203911291934 forward_v I I I I #
coedge $-1 $177 $178 $179 $180 reversed $66 $-1 #
coedge $-1 $110 $68 $181 $182 reversed $43 $-1 #
coedge $-1 $68 $109 $177 $183 reversed $43 $-1 #
coedge $-1 $179 $184 $68 $112 forward $185 $-1 #
edge $-1 $186 -25.265445532707233 $187 -15.73673707207638 $111 $188 forward 7 unknown #
loop $-1 $-1 $118 $69 #
plane-surface $-1 54.801065710738357 -32.564672552493747 64.125510134567136 0 0.57357644374324357 0.81915203911291934 1 0 0 forward_v I I I I #
loop $-1 $-1 $189 $45 #
coedge $-1 $116 $116 $117 $190 reversed $70 $-1 #
coedge $-1 $117 $117 $116 $190 forward $72 $-1 #
coedge $-1 $118 $118 $73 $119 forward $113 $-1 #
edge $-1 $191 -2.6234195251754068e-015 $191 6.2831853071795978 $118 $192 forward 7 unknown #
face $-1 $193 $194 $18 $-1 $195 reversed single #
loop $-1 $-1 $129 $74 #
plane-surface $-1 0 -51.017490978605366 0 0 1 0 0 0 1 forward_v I I I I #
coedge $-1 $134 $133 $196 $197 forward $75 $-1 #
coedge $-1 $198 $77 $199 $200 forward $49 $-1 #
coedge $-1 $77 $198 $201 $202 forward $49 $-1 #
coedge $-1 $203 $204 $77 $127 reversed $205 $-1 #
edge $-1 $206 -51.017490978605366 $207 51.017490978605366 $126 $208 forward 7 unknown #
coedge $-1 $79 $78 $198 $209 reversed $31 $-1 #
coedge $-1 $210 $201 $78 $130 forward $121 $-1 #
edge $-1 $211 -12.272721667829186 $135 12.272721667829186 $78 $212 forward 7 unknown #
coedge $-1 $199 $213 $79 $132 reversed $194 $-1 #
edge $-1 $214 -12.272721667829186 $136 12.272721667829186 $131 $215 forward 7 unknown #
coedge $-1 $123 $80 $213 $216 forward $75 $-1 #
coedge $-1 $80 $123 $210 $217 forward $75 $-1 #
vertex $-1 $81 $218 #
vertex $-1 $216 $219 #
straight-curve $-1 -73.28470717490157 0 -12.272721667829186 0 1 0 I I #
face $-1 $220 $150 $19 $-1 $221 reversed single #
loop $-1 $-1 $222 $82 #
plane-surface $-1 -81.726333618424064 -29.02086499643509 0 1 0 0 0 0 -1 forward_v I I I I #
coedge $-1 $223 $224 $225 $226 forward $83 $-1 #
coedge $-1 $227 $85 $223 $228 forward $53 $-1 #
coedge $-1 $85 $227 $148 $229 forward $53 $-1 #
edge $-1 $151 26.472047642946997 $230 31.569682349923184 $85 $231 forward 7 unknown #
coedge $-1 $87 $86 $232 $233 forward $34 $-1 #
coedge $-1 $234 $235 $86 $147 forward $236 $-1 #
edge $-1 $237 -31.569682349923184 $152 -26.472047642946997 $146 $238 forward 7 unknown #
coedge $-1 $239 $88 $143 $229 reversed $150 $-1 #
coedge $-1 $88 $239 $234 $240 reversed $150 $-1 #
loop $-1 $-1 $88 $138 #
vertex $-1 $144 $241 #
vertex $-1 $240 $242 #
straight-curve $-1 -73.28470717490157 -26.472047642946997 0 0 0 1 I I #
face $-1 $-1 $243 $20 $-1 $244 reversed single #
loop $-1 $-1 $96 $90 #
plane-surface $-1 0 0 12.272721667829186 0 0 1 1 0 0 forward_v I I I I #
coedge $-1 $245 $246 $247 $248 reversed $91 $-1 #
coedge $-1 $249 $93 $95 $164 forward $57 $-1 #
coedge $-1 $93 $249 $245 $250 forward $57 $-1 #
coedge $-1 $247 $96 $93 $161 forward $155 $-1 #
edge $-1 $167 -39.904623888329326 $251 -14.896441822409031 $160 $252 forward 7 unknown #
coedge $-1 $253 $254 $94 $163 forward $243 $-1 #
edge $-1 $255 -57.230993295041735 $166 -50.558919673356712 $162 $256 forward 7 unknown #
edge $-1 $167 -11.632405225957482 $255 1.7244671030687178e-014 $95 $257 forward 7 unknown #
coedge $-1 $96 $247 $253 $258 forward $155 $-1 #
vertex $-1 $97 $259 #
vertex $-1 $97 $260 #
straight-curve $-1 67.305156743698504 -67.543127211447683 12.272721667829188 0 1 0 I I #
coedge $-1 $169 $169 $-1 $261 reversed $100 $-1 #
edge $-1 $262 0 $262 6.2831853071796004 $101 $263 forward 7 unknown #
vertex $-1 $104 $264 #
ellipse-curve $-1 54.801065710738357 -46.253136748289947 8.9366848569866644 0 -0.57357644374324357 0.81915203911291934 1.5 0 0 1 I I #
face $-1 $-1 $185 $22 $-1 $265 forward single #
loop $-1 $-1 $266 $105 #
plane-surface $-1 0 51.017490978605366 0 0 -1 0 0 0 -1 forward_v I I I I #
coedge $-1 $267 $268 $269 $270 reversed $106 $-1 #
coedge $-1 $271 $108 $110 $183 forward $66 $-1 #
coedge $-1 $108 $271 $267 $272 forward $66 $-1 #
coedge $-1 $269 $111 $108 $180 forward $185 $-1 #
edge $-1 $187 14.896441822409031 $273 39.904623888329326 $179 $274 forward 7 unknown #
coedge $-1 $275 $276 $109 $182 forward $174 $-1 #
edge $-1 $277 -86.49342433925321 $186 -79.821350717568194 $181 $278 forward 7 unknown #
edge $-1 $187 90.402576731253248 $277 102.03498195721075 $110 $279 forward 7 unknown #
coedge $-1 $111 $269 $275 $280 forward $185 $-1 #
loop $-1 $-1 $269 $173 #
vertex $-1 $182 $281 #
vertex $-1 $112 $282 #
straight-curve $-1 42.296974677778209 25.752045445898133 12.272721667829188 0 -1 0 I I #
coedge $-1 $189 $189 $-1 $283 reversed $115 $-1 #
edge $-1 $284 0 $284 6.2831853071796004 $116 $285 forward 7 unknown #
vertex $-1 $119 $286 #
ellipse-curve $-1 54.801065710738357 46.253136748289961 8.9366848569866697 0 0.57357644374324357 0.81915203911291934 1.5 0 0 1 I I #
face $-1 $-1 $205 $18 $-1 $287 reversed single #
loop $-1 $-1 $288 $120 #
plane-surface $-1 0 51.017490978605366 0 0 -1 0 0 0 -1 forward_v I I I I #
coedge $-1 $204 $203 $123 $197 reversed $205 $-1 #
edge $-1 $289 -51.017490978605366 $290 51.017490978605366 $196 $291 forward 7 unknown #
coedge $-1 $125 $124 $128 $209 forward $49 $-1 #
coedge $-1 $288 $131 $124 $200 reversed $194 $-1 #
edge $-1 $207 -73.28470717490157 $214 73.28470717490157 $199 $292 forward 7 unknown #
coedge $-1 $129 $293 $125 $202 reversed $121 $-1 #
edge $-1 $211 -73.28470717490157 $206 73.28470717490157 $201 $294 forward 7 unknown #
coedge $-1 $196 $126 $293 $295 forward $205 $-1 #
coedge $-1 $126 $196 $288 $296 reversed $205 $-1 #
loop $-1 $-1 $203 $193 #
vertex $-1 $127 $297 #
vertex $-1 $127 $298 #
straight-curve $-1 73.28470717490157 0 12.272721667829186 0 1 0 I I #
edge $-1 $214 -51.017490978605366 $211 51.017490978605366 $128 $299 forward 7 unknown #
coedge $-1 $293 $129 $134 $217 reversed $121 $-1 #
vertex $-1 $209 $300 #
straight-curve $-1 -73.28470717490157 -51.017490978605366 0 0 0 -1 I I #
coedge $-1 $131 $288 $133 $216 reversed $194 $-1 #
vertex $-1 $200 $301 #
straight-curve $-1 -73.28470717490157 51.017490978605366 0 0 0 -1 I I #
edge $-1 $136 -73.28470717490157 $289 73.28470717490157 $213 $302 forward 7 unknown #
edge $-1 $290 -73.28470717490157 $135 73.28470717490157 $210 $303 forward 7 unknown #
point $-1 -73.28470717490157 -51.017490978605366 -12.272721667829186 #
point $-1 -73.28470717490157 51.017490978605366 -12.272721667829186 #
face $-1 $-1 $236 $19 $-1 $304 forward single #
plane-surface $-1 -77.505520396662817 -26.472047642946997 0 0 -1 0 0 0 -1 forward_v I I I I #
coedge $-1 $305 $306 $239 $307 forward $139 $-1 #
coedge $-1 $232 $141 $142 $228 reversed $83 $-1 #
coedge $-1 $141 $232 $235 $308 reversed $83 $-1 #
coedge $-1 $306 $305 $141 $226 reversed $139 $-1 #
edge $-1 $309 -12.272721667829186 $310 12.272721667829186 $225 $311 forward 7 unknown #
coedge $-1 $143 $142 $305 $312 forward $53 $-1 #
edge $-1 $230 -4.2208132217612473 $310 4.2208132217612473 $223 $313 forward 7 unknown #
edge $-1 $314 -4.2208132217612473 $151 4.2208132217612473 $148 $315 forward 7 unknown #
vertex $-1 $228 $316 #
straight-curve $-1 -73.28470717490157 0 -12.272721667829186 0 -1 0 I I #
coedge $-1 $224 $223 $145 $233 reversed $83 $-1 #
edge $-1 $237 -12.272721667829186 $230 12.272721667829186 $232 $317 forward 7 unknown #
coedge $-1 $318 $146 $149 $240 forward $236 $-1 #
coedge $-1 $146 $318 $224 $308 forward $236 $-1 #
loop $-1 $-1 $146 $220 #
vertex $-1 $147 $319 #
straight-curve $-1 -73.28470717490157 0 12.272721667829186 0 1 0 I I #
coedge $-1 $149 $148 $222 $307 reversed $150 $-1 #
edge $-1 $152 -4.2208132217612473 $320 4.2208132217612473 $149 $321 forward 7 unknown #
point $-1 -73.28470717490157 -26.472047642946997 -12.272721667829186 #
point $-1 -73.28470717490157 -26.472047642946997 12.272721667829186 #
loop $-1 $-1 $162 $154 #
plane-surface $-1 0 -51.017490978605366 0 0 1 0 0 0 1 forward_v I I I I #
coedge $-1 $246 $157 $159 $250 reversed $91 $-1 #
coedge $-1 $157 $245 $322 $323 reversed $91 $-1 #
coedge $-1 $165 $160 $157 $248 forward $155 $-1 #
edge $-1 $251 -26.054344693473183 $324 -16.525636232842317 $247 $325 forward 7 unknown #
coedge $-1 $159 $158 $254 $326 reversed $57 $-1 #
edge $-1 $327 -1.7244671030687178e-014 $251 11.632405225957482 $245 $328 forward 7 unknown #
vertex $-1 $161 $329 #
straight-curve $-1 27.400532855369178 -41.488782517974499 12.272721667829188 -1 0 0 I I #
coedge $-1 $322 $162 $165 $258 reversed $243 $-1 #
coedge $-1 $162 $322 $249 $326 forward $243 $-1 #
vertex $-1 $163 $330 #
straight-curve $-1 67.305156743698504 -51.017490978605366 62.8316413411859 0 0 1 I I #
straight-curve $-1 67.305156743698504 -51.017490978605352 5.6006480461441726 0 -0.81915203911291934 -0.57357644374324357 I I #
edge $-1 $324 42.296974677778209 $166 67.305156743698504 $253 $331 forward 7 unknown #
point $-1 67.305156743698504 -51.017490978605366 12.272721667829186 #
point $-1 67.305156743698504 -41.488782517974499 12.272721667829185 #
edge $-1 $332 1 $332 0 $169 $-1 forward 7 unknown #
vertex $-1 $170 $333 #
ellipse-curve $-1 54.801065710738357 -43.031449570897692 4.3356388246182966 0 -0.57357644374324357 0.81915203911291934 1.5 0 0 1 I I #
point $-1 56.301065710738357 -46.253136748289968 8.9366848569866999 #
plane-surface $-1 0 0 12.272721667829186 0 0 1 1 0 0 forward_v I I I I #
coedge $-1 $276 $275 $268 $334 forward $174 $-1 #
coedge $-1 $268 $176 $178 $272 reversed $106 $-1 #
coedge $-1 $176 $267 $266 $334 reversed $106 $-1 #
coedge $-1 $184 $179 $176 $270 forward $185 $-1 #
edge $-1 $273 15.73673707207638 $335 25.265445532707233 $269 $336 forward 7 unknown #
coedge $-1 $178 $177 $276 $337 reversed $66 $-1 #
edge $-1 $338 -102.03498195721075 $273 -90.402576731253248 $267 $339 forward 7 unknown #
vertex $-1 $180 $340 #
straight-curve $-1 27.400532855369178 41.488782517974514 12.272721667829195 1 0 0 I I #
coedge $-1 $266 $181 $184 $280 reversed $174 $-1 #
coedge $-1 $181 $266 $271 $337 forward $174 $-1 #
vertex $-1 $182 $341 #
straight-curve $-1 42.296974677778209 51.017490978605366 92.094072385397382 0 0 1 I I #
straight-curve $-1 42.296974677778209 -32.564672552493747 64.125510134567136 0 0.81915203911291934 -0.57357644374324357 I I #
edge $-1 $335 -67.305156743698504 $186 -42.296974677778209 $275 $342 forward 7 unknown #
point $-1 42.296974677778209 51.017490978605366 12.272721667829186 #
point $-1 42.296974677778209 41.488782517974514 12.272721667829188 #
edge $-1 $343 1 $343 0 $189 $-1 forward 7 unknown #
vertex $-1 $190 $344 #
ellipse-curve $-1 54.801065710738357 43.031449570897706 4.3356388246183037 0 0.57357644374324357 0.81915203911291934 1.5 0 0 1 I I #
point $-1 56.301065710738357 46.253136748289982 8.936684856986707 #
plane-surface $-1 73.28470717490157 0 0 -1 0 0 0 0 1 forward_v I I I I #
coedge $-1 $213 $199 $204 $296 forward $194 $-1 #
vertex $-1 $197 $345 #
vertex $-1 $295 $346 #
straight-curve $-1 73.28470717490157 0 -12.272721667829186 0 -1 0 I I #
straight-curve $-1 0 51.017490978605366 12.272721667829186 -1 0 0 I I #
coedge $-1 $201 $210 $203 $295 reversed $121 $-1 #
straight-curve $-1 0 -51.017490978605366 12.272721667829186 1 0 0 I I #
edge $-1 $206 -12.272721667829186 $290 12.272721667829186 $203 $347 forward 7 unknown #
edge $-1 $207 -12.272721667829186 $289 12.272721667829186 $204 $348 forward 7 unknown #
point $-1 73.28470717490157 -51.017490978605366 12.272721667829186 #
point $-1 73.28470717490157 51.017490978605366 12.272721667829186 #
straight-curve $-1 -73.28470717490157 0 12.272721667829186 0 -1 0 I I #
point $-1 -73.28470717490157 -51.017490978605366 12.272721667829186 #
point $-1 -73.28470717490157 51.017490978605366 12.272721667829186 #
straight-curve $-1 0 51.017490978605366 -12.272721667829186 1 0 0 I I #
straight-curve $-1 0 -51.017490978605366 -12.272721667829186 -1 0 0 I I #
plane-surface $-1 0 0 12.272721667829186 0 0 1 1 0 0 forward_v I I I I #
coedge $-1 $225 $222 $227 $312 reversed $139 $-1 #
coedge $-1 $222 $225 $318 $349 reversed $139 $-1 #
edge $-1 $320 -12.272721667829186 $314 12.272721667829186 $239 $350 forward 7 unknown #
edge $-1 $309 -4.2208132217612473 $237 4.2208132217612473 $224 $351 forward 7 unknown #
vertex $-1 $349 $352 #
vertex $-1 $312 $353 #
straight-curve $-1 -81.726333618424064 -31.569682349923184 0 0 0 -1 I I #
edge $-1 $310 -2.5488173534880936 $314 2.5488173534880936 $305 $354 forward 7 unknown #
straight-curve $-1 -77.505520396662817 -31.569682349923184 -12.272721667829186 -1 0 0 I I #
vertex $-1 $229 $355 #
straight-curve $-1 -77.505520396662817 -26.472047642946997 -12.272721667829186 1 0 0 I I #
point $-1 -73.28470717490157 -31.569682349923184 -12.272721667829186 #
straight-curve $-1 -73.28470717490157 -31.569682349923184 0 0 0 -1 I I #
coedge $-1 $235 $234 $306 $349 forward $236 $-1 #
point $-1 -73.28470717490157 -31.569682349923184 12.272721667829186 #
vertex $-1 $240 $356 #
straight-curve $-1 -77.505520396662817 -26.472047642946997 12.272721667829186 -1 0 0 I I #
coedge $-1 $254 $253 $246 $323 forward $243 $-1 #
edge $-1 $324 50.558919673356712 $327 57.230993295041735 $322 $357 forward 7 unknown #
vertex $-1 $258 $358 #
straight-curve $-1 42.296974677778209 -67.543127211447683 12.272721667829188 0 -1 0 I I #
edge $-1 $327 14.896441822409031 $255 39.904623888329326 $254 $359 forward 7 unknown #
vertex $-1 $326 $360 #
straight-curve $-1 42.296974677778209 -51.017490978605352 5.6006480461441726 0 0.81915203911291934 0.57357644374324357 I I #
point $-1 42.296974677778209 -41.488782517974499 12.272721667829185 #
point $-1 67.305156743698504 -51.017490978605366 5.6006480461441628 #
straight-curve $-1 0 -51.017490978605366 12.272721667829186 1 0 0 I I #
vertex $-1 $261 $361 #
point $-1 56.301065710738357 -43.031449570897692 4.3356388246182966 #
edge $-1 $335 79.821350717568194 $338 86.49342433925321 $266 $362 forward 7 unknown #
vertex $-1 $280 $363 #
straight-curve $-1 67.305156743698504 25.752045445898133 12.272721667829188 0 1 0 I I #
edge $-1 $338 -39.904623888329326 $277 -14.896441822409031 $276 $364 forward 7 unknown #
vertex $-1 $337 $365 #
straight-curve $-1 67.305156743698504 -32.564672552493747 64.125510134567136 0 -0.81915203911291934 0.57357644374324357 I I #
point $-1 67.305156743698504 41.488782517974514 12.272721667829188 #
point $-1 42.296974677778209 51.017490978605366 5.6006480461441726 #
straight-curve $-1 0 51.017490978605366 12.272721667829186 -1 0 0 I I #
vertex $-1 $283 $366 #
point $-1 56.301065710738357 43.031449570897706 4.3356388246183037 #
point $-1 73.28470717490157 51.017490978605366 -12.272721667829186 #
point $-1 73.28470717490157 -51.017490978605366 -12.272721667829186 #
straight-curve $-1 73.28470717490157 -51.017490978605366 0 0 0 -1 I I #
straight-curve $-1 73.28470717490157 51.017490978605366 0 0 0 -1 I I #
edge $-1 $320 -2.5488173534880936 $309 2.5488173534880936 $306 $367 forward 7 unknown #
straight-curve $-1 -81.726333618424064 -26.472047642946997 0 0 0 -1 I I #
straight-curve $-1 -77.505520396662817 -31.569682349923184 12.272721667829186 1 0 0 I I #
point $-1 -81.726333618424064 -31.569682349923184 12.272721667829186 #
point $-1 -81.726333618424064 -31.569682349923184 -12.272721667829186 #
straight-curve $-1 -81.726333618424064 -29.02086499643509 -12.272721667829186 0 1 0 I I #
point $-1 -81.726333618424064 -26.472047642946997 -12.272721667829186 #
point $-1 -81.726333618424064 -26.472047642946997 12.272721667829186 #
straight-curve $-1 42.296974677778209 -51.017490978605366 62.8316413411859 0 0 -1 I I #
point $-1 42.296974677778209 -51.017490978605366 12.272721667829186 #
straight-curve $-1 27.400532855369178 -51.017490978605366 5.6006480461441654 1 0 0 I I #
point $-1 42.296974677778209 -51.017490978605366 5.6006480461441628 #
point $-1 54.801065710738357 -42.171084905282825 3.1069107659489177 #
straight-curve $-1 67.305156743698504 51.017490978605366 92.094072385397382 0 0 -1 I I #
point $-1 67.305156743698504 51.017490978605366 12.272721667829186 #
straight-curve $-1 27.400532855369178 51.017490978605366 5.6006480461441797 -1 0 0 I I #
point $-1 67.305156743698504 51.017490978605366 5.6006480461441726 #
point $-1 54.801065710738357 42.171084905282839 3.1069107659489248 #
straight-curve $-1 -81.726333618424064 -29.02086499643509 12.272721667829186 0 -1 0 I I #
End-of-ACIS-data 