500 0 9 0           
7 Unknown 11 ACIS 5.0 NT 24 Thu Mar 25 15:30:29 1999 
-1 9.9999999999999995e-007 1e-010 
body $-1 $9 $-1 $10 #
body $-1 $11 $-1 $12 #
body $-1 $13 $-1 $14 #
body $-1 $15 $-1 $16 #
body $-1 $17 $-1 $18 #
body $-1 $19 $-1 $20 #
body $-1 $21 $-1 $22 #
body $-1 $23 $-1 $24 #
body $-1 $25 $-1 $26 #
lump $-1 $-1 $27 $0 #
transform $-1 1 0 0 0 1 0 0 0 1 61.702322458571125 35.497995578814539 11.602851412952651 1 rotate no_reflect no_shear #
lump $-1 $-1 $28 $1 #
transform $-1 1 0 0 0 1 0 0 0 1 61.702322458571125 35.497995578814539 11.602851412952651 1 rotate no_reflect no_shear #
lump $-1 $-1 $29 $2 #
transform $-1 1 0 0 0 1 0 0 0 1 61.702322458571125 35.497995578814539 11.602851412952651 1 rotate no_reflect no_shear #
lump $-1 $-1 $30 $3 #
transform $-1 1 0 0 0 1 0 0 0 1 61.702322458571125 35.497995578814539 11.602851412952651 1 rotate no_reflect no_shear #
lump $-1 $-1 $31 $4 #
transform $-1 1 0 0 0 1 0 0 0 1 61.702322458571125 35.497995578814539 11.602851412952651 1 rotate no_reflect no_shear #
lump $-1 $-1 $32 $5 #
transform $-1 1 0 0 0 1 0 0 0 1 61.702322458571125 35.497995578814539 11.602851412952651 1 rotate no_reflect no_shear #
lump $-1 $-1 $33 $6 #
transform $-1 1 0 0 0 1 0 0 0 1 61.702322458571125 35.497995578814539 11.602851412952651 1 rotate no_reflect no_shear #
lump $-1 $-1 $34 $7 #
transform $-1 1 0 0 0 1 0 0 0 1 61.702322458571125 35.497995578814539 11.602851412952651 1 rotate no_reflect no_shear #
lump $-1 $-1 $35 $8 #
transform $-1 1 0 0 0 1 0 0 0 1 61.702322458571125 35.497995578814539 11.602851412952651 1 rotate no_reflect no_shear #
shell $-1 $-1 $-1 $36 $-1 $9 #
shell $-1 $-1 $-1 $37 $-1 $11 #
shell $-1 $-1 $-1 $38 $-1 $13 #
shell $-1 $-1 $-1 $39 $-1 $15 #
shell $-1 $-1 $-1 $40 $-1 $17 #
shell $-1 $-1 $-1 $41 $-1 $19 #
shell $-1 $-1 $-1 $42 $-1 $21 #
shell $-1 $-1 $-1 $43 $-1 $23 #
shell $-1 $-1 $-1 $44 $-1 $25 #
face $-1 $45 $46 $27 $-1 $47 forward single #
face $-1 $48 $49 $28 $-1 $50 forward single #
face $-1 $51 $52 $29 $-1 $53 reversed single #
face $-1 $54 $55 $30 $-1 $56 forward single #
face $-1 $57 $58 $31 $-1 $59 forward single #
face $-1 $60 $61 $32 $-1 $62 reversed single #
face $-1 $63 $64 $33 $-1 $65 forward single #
face $-1 $66 $67 $34 $-1 $68 forward single #
face $-1 $69 $70 $35 $-1 $71 forward single #
face $-1 $72 $73 $27 $-1 $74 reversed single #
loop $-1 $-1 $75 $36 #
plane-surface $-1 0 0 11.602851412952651 0 0 1 1 0 0 forward_v I I I I #
face $-1 $76 $77 $28 $-1 $78 reversed single #
loop $-1 $-1 $79 $37 #
plane-surface $-1 -61.702322458571125 0 0 1 0 0 0 0 -1 forward_v I I I I #
face $-1 $80 $81 $29 $-1 $82 reversed single #
loop $-1 $-1 $83 $38 #
plane-surface $-1 -18.353572107185489 -97.200318864040838 113.57987498264769 -1 0 0 0 -0.50000000669873634 0.8660253999169214 forward_v I I I I #
face $-1 $84 $85 $30 $-1 $86 forward single #
loop $-1 $87 $88 $39 #
cone-surface $-1 -42.360672124027658 -30.08938894684648 7.1294032295542884 0 0.50000000669873634 -0.8660253999169214 1.5 0 0 1 I I 0 1 1.5 forward I I I I #
face $-1 $89 $90 $31 $-1 $91 forward single #
loop $-1 $92 $93 $40 #
cone-surface $-1 -27.956412113922354 -30.08938894684648 7.1294032295542884 0 0.50000000669873634 -0.8660253999169214 1.5 0 0 1 I I 0 1 1.5 forward I I I I #
face $-1 $94 $95 $32 $-1 $96 reversed single #
loop $-1 $-1 $97 $41 #
plane-surface $-1 34.758937228344706 102.52892823820909 130.59771681724095 1 0 0 0 -0.84804810408105047 -0.52991925155115449 forward_v I I I I #
face $-1 $98 $99 $33 $-1 $100 forward single #
loop $-1 $101 $102 $42 #
cone-surface $-1 40.147614274390001 32.099758162039969 7.4655899370297174 0 -0.84804810408105047 -0.52991925155115449 1.5 0 0 1 I I 0 1 1.5 forward I I I I #
face $-1 $103 $104 $34 $-1 $105 forward single #
loop $-1 $106 $107 $43 #
cone-surface $-1 48.230629843457926 32.099758162039969 7.4655899370297174 0 -0.84804810408105047 -0.52991925155115449 1.5 0 0 1 I I 0 1 1.5 forward I I I I #
face $-1 $108 $109 $35 $-1 $110 forward single #
loop $-1 $111 $112 $44 #
cone-surface $-1 56.313645412525851 32.099758162039969 7.4655899370297174 0 -0.84804810408105047 -0.52991925155115449 1.5 0 0 1 I I 0 1 1.5 forward I I I I #
face $-1 $113 $114 $27 $-1 $115 reversed single #
loop $-1 $-1 $116 $45 #
plane-surface $-1 0 0 -11.602851412952651 0 0 1 1 0 0 forward_v I I I I #
coedge $-1 $117 $118 $119 $120 forward $46 $-1 #
face $-1 $121 $122 $28 $-1 $123 forward single #
loop $-1 $-1 $124 $48 #
plane-surface $-1 0 35.497995578814539 0 0 -1 0 0 0 -1 forward_v I I I I #
coedge $-1 $125 $126 $127 $128 forward $49 $-1 #
face $-1 $129 $130 $29 $-1 $131 reversed single #
loop $-1 $-1 $132 $51 #
plane-surface $-1 -35.158542118975006 -35.497995578814539 6.708318016673914 0 -0.50000000669873634 0.8660253999169214 1 0 0 forward_v I I I I #
coedge $-1 $133 $134 $135 $136 reversed $52 $-1 #
face $-1 $-1 $137 $30 $-1 $138 forward single #
loop $-1 $139 $140 $54 #
cone-surface $-1 -42.360672124027658 -28.544572494984344 4.4537026943576183 0 0.50000000669873634 -0.8660253999169214 0.75 0 0 1 I I -0.70710678118654757 0.70710678118654757 0.75 forward I I I I #
loop $-1 $-1 $141 $39 #
coedge $-1 $88 $88 $142 $143 reversed $55 $-1 #
face $-1 $-1 $144 $31 $-1 $145 forward single #
loop $-1 $146 $147 $57 #
cone-surface $-1 -27.956412113922354 -28.544572494984344 4.4537026943576183 0 0.50000000669873634 -0.8660253999169214 0.75 0 0 1 I I -0.70710678118654757 0.70710678118654757 0.75 forward I I I I #
loop $-1 $-1 $148 $40 #
coedge $-1 $93 $93 $149 $150 reversed $58 $-1 #
face $-1 $151 $152 $32 $-1 $153 reversed single #
loop $-1 $-1 $154 $60 #
plane-surface $-1 48.230629843457912 -2.124146918568627 65.203219744812955 0 0.84804810408105047 0.52991925155115449 1 0 0 forward_v I I I I #
coedge $-1 $155 $156 $157 $158 reversed $61 $-1 #
face $-1 $-1 $159 $33 $-1 $160 forward single #
loop $-1 $161 $162 $63 #
cone-surface $-1 40.147614274390001 30.129942762350993 6.2347127058044496 0 -0.84804810408105047 -0.52991925155115449 0.75 0 0 1 I I -0.70710678118654757 0.70710678118654757 0.75 forward I I I I #
loop $-1 $-1 $163 $42 #
coedge $-1 $102 $102 $164 $165 reversed $64 $-1 #
face $-1 $-1 $166 $34 $-1 $167 forward single #
loop $-1 $168 $169 $66 #
cone-surface $-1 48.230629843457926 30.129942762350993 6.2347127058044496 0 -0.84804810408105047 -0.52991925155115449 0.75 0 0 1 I I -0.70710678118654757 0.70710678118654757 0.75 forward I I I I #
loop $-1 $-1 $170 $43 #
coedge $-1 $107 $107 $171 $172 reversed $67 $-1 #
face $-1 $-1 $173 $35 $-1 $174 forward single #
loop $-1 $175 $176 $69 #
cone-surface $-1 56.313645412525851 30.129942762350993 6.2347127058044496 0 -0.84804810408105047 -0.52991925155115449 0.75 0 0 1 I I -0.70710678118654757 0.70710678118654757 0.75 forward I I I I #
loop $-1 $-1 $177 $44 #
coedge $-1 $112 $112 $178 $179 reversed $70 $-1 #
face $-1 $180 $181 $27 $-1 $182 reversed single #
loop $-1 $-1 $183 $72 #
plane-surface $-1 0 -35.497995578814539 0 0 1 0 0 0 1 forward_v I I I I #
coedge $-1 $184 $185 $186 $187 forward $73 $-1 #
coedge $-1 $188 $75 $189 $190 forward $46 $-1 #
coedge $-1 $75 $188 $191 $192 forward $46 $-1 #
coedge $-1 $193 $194 $75 $120 reversed $195 $-1 #
edge $-1 $196 -35.497995578814539 $197 35.497995578814539 $119 $198 forward 7 unknown #
face $-1 $199 $200 $28 $-1 $201 reversed single #
loop $-1 $-1 $127 $76 #
plane-surface $-1 -66.571727622474427 0 -8.5587804740022211 0 0 1 1 0 0 forward_v I I I I #
coedge $-1 $202 $203 $126 $204 forward $77 $-1 #
coedge $-1 $205 $79 $206 $207 reversed $49 $-1 #
coedge $-1 $79 $205 $124 $204 reversed $49 $-1 #
coedge $-1 $208 $209 $79 $128 reversed $122 $-1 #
edge $-1 $210 -35.497995578814539 $211 35.497995578814539 $127 $212 forward 7 unknown #
face $-1 $213 $214 $29 $-1 $215 reversed single #
loop $-1 $-1 $216 $80 #
plane-surface $-1 -51.963512130764528 -97.200318864040838 113.57987498264769 1 0 0 0 0.50000000669873634 -0.8660253999169214 forward_v I I I I #
coedge $-1 $217 $218 $219 $220 reversed $81 $-1 #
coedge $-1 $134 $83 $221 $222 reversed $52 $-1 #
coedge $-1 $83 $133 $217 $223 reversed $52 $-1 #
coedge $-1 $219 $224 $83 $136 forward $225 $-1 #
edge $-1 $226 13.10216385320588 $227 21.57974422346577 $135 $228 forward 7 unknown #
loop $-1 $-1 $142 $84 #
plane-surface $-1 -35.158542118975006 -35.497995578814539 6.708318016673914 0 -0.50000000669873634 0.8660253999169214 1 0 0 forward_v I I I I #
loop $-1 $-1 $229 $54 #
coedge $-1 $140 $140 $141 $230 reversed $85 $-1 #
coedge $-1 $141 $141 $140 $230 forward $87 $-1 #
coedge $-1 $142 $142 $88 $143 forward $137 $-1 #
edge $-1 $231 -2.1361847926480249e-015 $231 6.2831853071795987 $142 $232 forward 7 unknown #
loop $-1 $-1 $149 $89 #
plane-surface $-1 -35.158542118975006 -35.497995578814539 6.708318016673914 0 -0.50000000669873634 0.8660253999169214 1 0 0 forward_v I I I I #
loop $-1 $-1 $233 $57 #
coedge $-1 $147 $147 $148 $234 reversed $90 $-1 #
coedge $-1 $148 $148 $147 $234 forward $92 $-1 #
coedge $-1 $149 $149 $93 $150 forward $144 $-1 #
edge $-1 $235 -2.1361847926480249e-015 $235 6.2831853071795987 $149 $236 forward 7 unknown #
face $-1 $237 $238 $32 $-1 $239 reversed single #
loop $-1 $-1 $240 $94 #
plane-surface $-1 61.702322458571125 0 0 -1 0 0 0 0 1 forward_v I I I I #
coedge $-1 $241 $242 $243 $244 reversed $95 $-1 #
coedge $-1 $156 $97 $245 $246 reversed $61 $-1 #
coedge $-1 $97 $155 $241 $247 reversed $61 $-1 #
coedge $-1 $243 $248 $97 $158 forward $249 $-1 #
edge $-1 $250 15.766468540290006 $251 19.895384730582727 $157 $252 forward 7 unknown #
loop $-1 $-1 $164 $98 #
plane-surface $-1 48.230629843457912 -2.124146918568627 65.203219744812955 0 0.84804810408105047 0.52991925155115449 1 0 0 forward_v I I I I #
loop $-1 $-1 $253 $63 #
coedge $-1 $162 $162 $163 $254 reversed $99 $-1 #
coedge $-1 $163 $163 $162 $254 forward $101 $-1 #
coedge $-1 $164 $164 $102 $165 forward $159 $-1 #
edge $-1 $255 2.009631236127657e-015 $255 6.2831853071796022 $164 $256 forward 7 unknown #
loop $-1 $-1 $171 $103 #
plane-surface $-1 48.230629843457912 -2.124146918568627 65.203219744812955 0 0.84804810408105047 0.52991925155115449 1 0 0 forward_v I I I I #
loop $-1 $-1 $257 $66 #
coedge $-1 $169 $169 $170 $258 reversed $104 $-1 #
coedge $-1 $170 $170 $169 $258 forward $106 $-1 #
coedge $-1 $171 $171 $107 $172 forward $166 $-1 #
edge $-1 $259 2.009631236127657e-015 $259 6.2831853071796022 $171 $260 forward 7 unknown #
loop $-1 $-1 $178 $108 #
plane-surface $-1 48.230629843457912 -2.124146918568627 65.203219744812955 0 0.84804810408105047 0.52991925155115449 1 0 0 forward_v I I I I #
loop $-1 $-1 $261 $69 #
coedge $-1 $176 $176 $177 $262 reversed $109 $-1 #
coedge $-1 $177 $177 $176 $262 forward $111 $-1 #
coedge $-1 $178 $178 $112 $179 forward $173 $-1 #
edge $-1 $263 2.009631236127657e-015 $263 6.2831853071796022 $178 $264 forward 7 unknown #
face $-1 $265 $266 $27 $-1 $267 reversed single #
loop $-1 $-1 $268 $113 #
plane-surface $-1 -61.702322458571125 0 0 1 0 0 0 0 -1 forward_v I I I I #
coedge $-1 $269 $191 $268 $270 forward $114 $-1 #
coedge $-1 $271 $116 $269 $272 forward $73 $-1 #
coedge $-1 $116 $271 $273 $274 forward $73 $-1 #
coedge $-1 $194 $193 $116 $187 reversed $195 $-1 #
edge $-1 $275 -35.497995578814539 $276 35.497995578814539 $186 $277 forward 7 unknown #
coedge $-1 $118 $117 $278 $279 forward $46 $-1 #
coedge $-1 $280 $281 $117 $190 reversed $266 $-1 #
edge $-1 $197 -61.702322458571125 $282 61.702322458571125 $189 $283 forward 7 unknown #
coedge $-1 $183 $284 $118 $192 reversed $114 $-1 #
edge $-1 $285 -61.702322458571125 $196 61.702322458571125 $191 $286 forward 7 unknown #
coedge $-1 $186 $119 $284 $287 forward $195 $-1 #
coedge $-1 $119 $186 $280 $288 reversed $195 $-1 #
loop $-1 $-1 $193 $265 #
vertex $-1 $120 $289 #
vertex $-1 $120 $290 #
straight-curve $-1 61.702322458571125 0 11.602851412952651 0 1 0 I I #
face $-1 $291 $292 $28 $-1 $293 reversed single #
loop $-1 $-1 $294 $121 #
plane-surface $-1 -71.441132786377722 0 -10.080815943477436 1 0 0 0 0 -1 forward_v I I I I #
coedge $-1 $295 $124 $296 $297 reversed $77 $-1 #
coedge $-1 $124 $295 $208 $298 reversed $77 $-1 #
edge $-1 $210 8.5587804740022211 $299 11.602851412952651 $124 $300 forward 7 unknown #
coedge $-1 $126 $125 $301 $302 reversed $49 $-1 #
coedge $-1 $303 $304 $125 $207 forward $305 $-1 #
edge $-1 $306 -11.602851412952651 $211 -8.5587804740022211 $206 $307 forward 7 unknown #
coedge $-1 $308 $127 $203 $298 forward $122 $-1 #
coedge $-1 $127 $308 $303 $309 forward $122 $-1 #
vertex $-1 $204 $310 #
vertex $-1 $309 $311 #
straight-curve $-1 -61.702322458571125 0 -8.5587804740022211 0 -1 0 I I #
face $-1 $-1 $225 $29 $-1 $312 forward single #
loop $-1 $-1 $313 $129 #
plane-surface $-1 0 -35.497995578814539 0 0 1 0 0 0 1 forward_v I I I I #
coedge $-1 $314 $315 $316 $317 reversed $130 $-1 #
coedge $-1 $318 $132 $134 $223 forward $81 $-1 #
coedge $-1 $132 $318 $314 $319 forward $81 $-1 #
coedge $-1 $316 $135 $132 $220 forward $225 $-1 #
edge $-1 $227 0.77430104769798547 $320 34.384241071277025 $219 $321 forward 7 unknown #
coedge $-1 $322 $323 $133 $222 forward $214 $-1 #
edge $-1 $324 -50.081619474649933 $226 -45.187086078371195 $221 $325 forward 7 unknown #
edge $-1 $227 -9.7890666614087216 $324 0 $134 $326 forward 7 unknown #
coedge $-1 $135 $316 $322 $327 forward $225 $-1 #
loop $-1 $-1 $316 $213 #
vertex $-1 $222 $328 #
vertex $-1 $136 $329 #
straight-curve $-1 -18.353572107185489 -48.600159432020419 11.602851412952653 0 1 0 I I #
coedge $-1 $229 $229 $-1 $330 reversed $139 $-1 #
edge $-1 $331 0 $331 6.2831853071796004 $140 $332 forward 7 unknown #
vertex $-1 $143 $333 #
ellipse-curve $-1 -42.360672124027658 -31.259205393684578 9.1555847148132905 0 -0.50000000669873634 0.8660253999169214 1.5 0 0 1 I I #
coedge $-1 $233 $233 $-1 $334 reversed $146 $-1 #
edge $-1 $335 0 $335 6.2831853071796004 $147 $336 forward 7 unknown #
vertex $-1 $150 $337 #
ellipse-curve $-1 -27.956412113922354 -31.259205393684578 9.1555847148132905 0 -0.50000000669873634 0.8660253999169214 1.5 0 0 1 I I #
face $-1 $-1 $249 $32 $-1 $338 forward single #
loop $-1 $-1 $339 $151 #
plane-surface $-1 0 35.497995578814539 0 0 -1 0 0 0 -1 forward_v I I I I #
coedge $-1 $340 $341 $242 $342 forward $152 $-1 #
coedge $-1 $343 $154 $156 $247 forward $95 $-1 #
coedge $-1 $154 $343 $240 $342 reversed $95 $-1 #
coedge $-1 $344 $157 $154 $244 forward $249 $-1 #
edge $-1 $251 10.64362230661575 $345 37.587007536842165 $243 $346 forward 7 unknown #
coedge $-1 $347 $339 $155 $246 forward $238 $-1 #
edge $-1 $348 -60.303654362389857 $250 -53.696006995667823 $245 $349 forward 7 unknown #
edge $-1 $251 63.204396158566908 $348 70.995991157629049 $156 $350 forward 7 unknown #
coedge $-1 $157 $344 $347 $351 forward $249 $-1 #
loop $-1 $-1 $243 $237 #
vertex $-1 $246 $352 #
vertex $-1 $158 $353 #
straight-curve $-1 34.758937228344706 51.264464119104545 11.602851412952653 0 -1 0 I I #
coedge $-1 $253 $253 $-1 $354 reversed $161 $-1 #
edge $-1 $355 0 $355 6.2831853071796004 $162 $356 forward 7 unknown #
vertex $-1 $165 $357 #
ellipse-curve $-1 40.147614274390001 33.433537483668175 8.2990277295916322 0 0.84804810408105047 0.52991925155115449 1.5 0 0 1 I I #
coedge $-1 $257 $257 $-1 $358 reversed $168 $-1 #
edge $-1 $359 0 $359 6.2831853071796004 $169 $360 forward 7 unknown #
vertex $-1 $172 $361 #
ellipse-curve $-1 48.230629843457926 33.433537483668175 8.2990277295916322 0 0.84804810408105047 0.52991925155115449 1.5 0 0 1 I I #
coedge $-1 $261 $261 $-1 $362 reversed $175 $-1 #
edge $-1 $363 0 $363 6.2831853071796004 $176 $364 forward 7 unknown #
vertex $-1 $179 $365 #
ellipse-curve $-1 56.313645412525851 33.433537483668175 8.2990277295916322 0 0.84804810408105047 0.52991925155115449 1.5 0 0 1 I I #
face $-1 $-1 $195 $27 $-1 $366 reversed single #
loop $-1 $-1 $280 $180 #
plane-surface $-1 0 35.497995578814539 0 0 -1 0 0 0 -1 forward_v I I I I #
coedge $-1 $278 $367 $183 $270 reversed $181 $-1 #
coedge $-1 $284 $183 $184 $272 reversed $114 $-1 #
edge $-1 $285 -11.602851412952651 $368 11.602851412952651 $268 $369 forward 7 unknown #
coedge $-1 $185 $184 $367 $370 forward $73 $-1 #
edge $-1 $276 -61.702322458571125 $368 61.702322458571125 $269 $371 forward 7 unknown #
coedge $-1 $281 $280 $185 $274 reversed $266 $-1 #
edge $-1 $372 -61.702322458571125 $275 61.702322458571125 $273 $373 forward 7 unknown #
vertex $-1 $187 $374 #
vertex $-1 $287 $375 #
straight-curve $-1 61.702322458571125 0 -11.602851412952651 0 -1 0 I I #
coedge $-1 $376 $268 $188 $279 reversed $181 $-1 #
edge $-1 $282 -35.497995578814539 $285 35.497995578814539 $278 $377 forward 7 unknown #
coedge $-1 $273 $189 $194 $288 forward $266 $-1 #
coedge $-1 $189 $273 $376 $378 reversed $266 $-1 #
vertex $-1 $190 $379 #
straight-curve $-1 0 35.497995578814539 11.602851412952651 -1 0 0 I I #
coedge $-1 $191 $269 $193 $287 reversed $114 $-1 #
vertex $-1 $279 $380 #
straight-curve $-1 0 -35.497995578814539 11.602851412952651 1 0 0 I I #
edge $-1 $196 -11.602851412952651 $276 11.602851412952651 $193 $381 forward 7 unknown #
edge $-1 $197 -11.602851412952651 $275 11.602851412952651 $194 $382 forward 7 unknown #
point $-1 61.702322458571125 -35.497995578814539 11.602851412952651 #
point $-1 61.702322458571125 35.497995578814539 11.602851412952651 #
face $-1 $-1 $305 $28 $-1 $383 reversed single #
loop $-1 $-1 $301 $199 #
plane-surface $-1 0 0 -11.602851412952651 0 0 1 1 0 0 forward_v I I I I #
coedge $-1 $384 $385 $295 $386 forward $200 $-1 #
coedge $-1 $203 $202 $294 $386 reversed $77 $-1 #
coedge $-1 $301 $387 $202 $297 forward $292 $-1 #
edge $-1 $388 -71.441132786377722 $299 -61.702322458571125 $202 $389 forward 7 unknown #
edge $-1 $210 -4.869405163903302 $390 4.8694051639032949 $203 $391 forward 7 unknown #
vertex $-1 $204 $392 #
straight-curve $-1 -61.702322458571125 35.497995578814539 0 0 0 -1 I I #
coedge $-1 $393 $296 $205 $302 forward $292 $-1 #
edge $-1 $299 -35.497995578814539 $306 35.497995578814539 $301 $394 forward 7 unknown #
coedge $-1 $395 $206 $209 $309 reversed $305 $-1 #
coedge $-1 $206 $395 $393 $396 reversed $305 $-1 #
loop $-1 $-1 $206 $291 #
vertex $-1 $396 $397 #
straight-curve $-1 -61.702322458571125 -35.497995578814539 0 0 0 1 I I #
coedge $-1 $209 $208 $385 $398 forward $122 $-1 #
edge $-1 $399 -4.8694051639032949 $211 4.869405163903302 $303 $400 forward 7 unknown #
point $-1 -61.702322458571125 35.497995578814539 -8.5587804740022211 #
point $-1 -61.702322458571125 -35.497995578814539 -8.5587804740022211 #
plane-surface $-1 0 0 11.602851412952651 0 0 1 1 0 0 forward_v I I I I #
coedge $-1 $323 $322 $315 $401 forward $214 $-1 #
coedge $-1 $315 $216 $218 $319 reversed $130 $-1 #
coedge $-1 $216 $314 $313 $401 reversed $130 $-1 #
coedge $-1 $224 $219 $216 $317 forward $225 $-1 #
edge $-1 $320 -21.57974422346577 $402 -13.10216385320588 $316 $403 forward 7 unknown #
coedge $-1 $218 $217 $323 $404 reversed $81 $-1 #
edge $-1 $405 0 $320 9.7890666614087216 $314 $406 forward 7 unknown #
vertex $-1 $220 $407 #
straight-curve $-1 -17.579271059487503 -27.020415208554653 11.602851412952651 -1 0 0 I I #
coedge $-1 $313 $221 $224 $327 reversed $214 $-1 #
coedge $-1 $221 $313 $318 $404 forward $214 $-1 #
vertex $-1 $222 $408 #
straight-curve $-1 -18.353572107185489 -35.497995578814539 56.789937491323847 0 0 1 I I #
straight-curve $-1 -18.353572107185489 -35.497995578814539 6.708318016673914 0 -0.8660253999169214 -0.50000000669873634 I I #
edge $-1 $402 -51.963512130764528 $226 -18.353572107185489 $322 $409 forward 7 unknown #
point $-1 -18.353572107185489 -35.497995578814539 11.602851412952651 #
point $-1 -18.353572107185489 -27.020415208554649 11.602851412952651 #
edge $-1 $410 1 $410 0 $229 $-1 forward 7 unknown #
vertex $-1 $230 $411 #
ellipse-curve $-1 -42.360672124027658 -28.919572500008396 5.1032217442953094 0 -0.50000000669873634 0.8660253999169214 1.5 0 0 1 I I #
point $-1 -40.860672124027658 -31.259205393684567 9.1555847148132656 #
edge $-1 $412 1 $412 0 $233 $-1 forward 7 unknown #
vertex $-1 $234 $413 #
ellipse-curve $-1 -27.956412113922354 -28.919572500008396 5.1032217442953094 0 -0.50000000669873634 0.8660253999169214 1.5 0 0 1 I I #
point $-1 -26.456412113922354 -31.259205393684567 9.1555847148132656 #
plane-surface $-1 0 0 11.602851412952651 0 0 1 1 0 0 forward_v I I I I #
coedge $-1 $245 $414 $343 $415 forward $238 $-1 #
coedge $-1 $341 $240 $414 $416 reversed $152 $-1 #
coedge $-1 $240 $340 $344 $417 reversed $152 $-1 #
edge $-1 $345 34.993849543646256 $418 42.78544454270839 $240 $419 forward 7 unknown #
coedge $-1 $242 $241 $339 $415 reversed $95 $-1 #
coedge $-1 $248 $243 $341 $417 forward $249 $-1 #
vertex $-1 $417 $420 #
straight-curve $-1 24.115314921728956 31.369079388521811 11.60285141295266 1 0 0 I I #
coedge $-1 $414 $245 $248 $351 reversed $238 $-1 #
vertex $-1 $246 $421 #
straight-curve $-1 34.758937228344706 35.497995578814539 65.298858408620475 0 0 1 I I #
straight-curve $-1 34.758937228344706 -2.124146918568627 65.203219744812955 0 0.52991925155115449 -0.84804810408105047 I I #
edge $-1 $422 -61.702322458571125 $250 -34.758937228344706 $347 $423 forward 7 unknown #
point $-1 34.758937228344706 35.497995578814539 11.602851412952651 #
point $-1 34.758937228344706 31.369079388521818 11.602851412952653 #
edge $-1 $424 1 $424 0 $253 $-1 forward 7 unknown #
vertex $-1 $254 $425 #
ellipse-curve $-1 40.147614274390001 30.76597884041178 6.6321521444678151 0 0.84804810408105047 0.52991925155115449 1.5 0 0 1 I I #
point $-1 41.647614274390001 33.433537483668161 8.2990277295916197 #
edge $-1 $426 1 $426 0 $257 $-1 forward 7 unknown #
vertex $-1 $258 $427 #
ellipse-curve $-1 48.230629843457926 30.76597884041178 6.6321521444678151 0 0.84804810408105047 0.52991925155115449 1.5 0 0 1 I I #
point $-1 49.730629843457926 33.433537483668161 8.2990277295916197 #
edge $-1 $428 1 $428 0 $261 $-1 forward 7 unknown #
vertex $-1 $262 $429 #
ellipse-curve $-1 56.313645412525851 30.76597884041178 6.6321521444678151 0 0.84804810408105047 0.52991925155115449 1.5 0 0 1 I I #
point $-1 57.813645412525851 33.433537483668161 8.2990277295916197 #
plane-surface $-1 61.702322458571125 0 0 -1 0 0 0 0 1 forward_v I I I I #
coedge $-1 $268 $376 $271 $370 reversed $181 $-1 #
vertex $-1 $370 $430 #
straight-curve $-1 -61.702322458571125 -35.497995578814539 0 0 0 -1 I I #
edge $-1 $368 -35.497995578814539 $372 35.497995578814539 $367 $431 forward 7 unknown #
straight-curve $-1 0 -35.497995578814539 -11.602851412952651 -1 0 0 I I #
vertex $-1 $274 $432 #
straight-curve $-1 0 35.497995578814539 -11.602851412952651 1 0 0 I I #
point $-1 61.702322458571125 35.497995578814539 -11.602851412952651 #
point $-1 61.702322458571125 -35.497995578814539 -11.602851412952651 #
coedge $-1 $367 $278 $281 $378 forward $181 $-1 #
straight-curve $-1 -61.702322458571125 0 11.602851412952651 0 -1 0 I I #
edge $-1 $282 -11.602851412952651 $372 11.602851412952651 $281 $433 forward 7 unknown #
point $-1 -61.702322458571125 35.497995578814539 11.602851412952651 #
point $-1 -61.702322458571125 -35.497995578814539 11.602851412952651 #
straight-curve $-1 61.702322458571125 -35.497995578814539 0 0 0 -1 I I #
straight-curve $-1 61.702322458571125 35.497995578814539 0 0 0 -1 I I #
plane-surface $-1 0 -35.497995578814539 0 0 1 0 0 0 1 forward_v I I I I #
coedge $-1 $434 $294 $387 $435 reversed $200 $-1 #
coedge $-1 $294 $434 $308 $398 reversed $200 $-1 #
edge $-1 $390 -1.522035469475215 $388 1.522035469475215 $295 $436 forward 7 unknown #
coedge $-1 $296 $393 $384 $435 forward $292 $-1 #
vertex $-1 $297 $437 #
straight-curve $-1 0 35.497995578814539 -11.602851412952651 1 0 0 I I #
vertex $-1 $298 $438 #
straight-curve $-1 -66.571727622474427 35.497995578814539 -8.5587804740022211 -1 0 0 I I #
point $-1 -61.702322458571125 35.497995578814539 -11.602851412952651 #
coedge $-1 $387 $301 $304 $396 forward $292 $-1 #
straight-curve $-1 -61.702322458571125 0 -11.602851412952651 0 -1 0 I I #
coedge $-1 $304 $303 $434 $439 forward $305 $-1 #
edge $-1 $306 -4.869405163903302 $440 4.8694051639032949 $304 $441 forward 7 unknown #
point $-1 -61.702322458571125 -35.497995578814539 -11.602851412952651 #
edge $-1 $390 -35.497995578814539 $399 35.497995578814539 $385 $442 forward 7 unknown #
vertex $-1 $398 $443 #
straight-curve $-1 -66.571727622474427 -35.497995578814539 -8.5587804740022211 1 0 0 I I #
edge $-1 $402 45.187086078371195 $405 50.081619474649933 $313 $444 forward 7 unknown #
vertex $-1 $327 $445 #
straight-curve $-1 -51.963512130764528 -48.600159432020419 11.602851412952653 0 -1 0 I I #
edge $-1 $405 -34.384241071277025 $324 -0.77430104769798547 $323 $446 forward 7 unknown #
vertex $-1 $404 $447 #
straight-curve $-1 -51.963512130764528 -35.497995578814539 6.708318016673914 0 0.8660253999169214 0.50000000669873634 I I #
point $-1 -51.963512130764528 -27.020415208554649 11.602851412952651 #
point $-1 -18.353572107185489 -35.497995578814539 6.708318016673914 #
straight-curve $-1 0 -35.497995578814539 11.602851412952651 1 0 0 I I #
vertex $-1 $330 $448 #
point $-1 -40.860672124027658 -28.919572500008396 5.1032217442953094 #
vertex $-1 $334 $449 #
point $-1 -26.456412113922354 -28.919572500008396 5.1032217442953094 #
coedge $-1 $339 $347 $340 $416 forward $238 $-1 #
edge $-1 $418 -37.587007536842165 $348 -10.64362230661575 $339 $450 forward 7 unknown #
edge $-1 $422 -11.602851412952651 $418 -4.9952040462306186 $340 $451 forward 7 unknown #
edge $-1 $345 31.369079388521818 $422 35.497995578814539 $341 $452 forward 7 unknown #
vertex $-1 $342 $453 #
straight-curve $-1 61.702322458571125 12.825164829459084 41.279319172939395 0 0.52991925155115449 -0.84804810408105047 I I #
point $-1 61.702322458571118 31.369079388521818 11.602851412952653 #
point $-1 34.758937228344706 35.497995578814539 4.9952040462306186 #
vertex $-1 $417 $454 #
straight-curve $-1 0 35.497995578814539 11.602851412952651 -1 0 0 I I #
vertex $-1 $354 $455 #
point $-1 41.647614274390001 30.76597884041178 6.6321521444678151 #
vertex $-1 $358 $456 #
point $-1 49.730629843457926 30.76597884041178 6.6321521444678151 #
vertex $-1 $362 $457 #
point $-1 57.813645412525851 30.76597884041178 6.6321521444678151 #
point $-1 -61.702322458571125 -35.497995578814539 -11.602851412952651 #
straight-curve $-1 -61.702322458571125 0 -11.602851412952651 0 1 0 I I #
point $-1 -61.702322458571125 35.497995578814539 -11.602851412952651 #
straight-curve $-1 -61.702322458571125 35.497995578814539 0 0 0 -1 I I #
coedge $-1 $385 $384 $395 $439 reversed $200 $-1 #
edge $-1 $440 -35.497995578814539 $388 35.497995578814539 $384 $458 forward 7 unknown #
straight-curve $-1 -71.441132786377722 35.497995578814539 -10.080815943477436 0 0 -1 I I #
point $-1 -71.441132786377722 35.497995578814539 -11.602851412952651 #
point $-1 -71.441132786377722 35.497995578814539 -8.5587804740022211 #
edge $-1 $399 -1.522035469475215 $440 1.522035469475215 $434 $459 forward 7 unknown #
vertex $-1 $435 $460 #
straight-curve $-1 -66.571727622474427 -35.497995578814539 -11.602851412952651 -1 0 0 I I #
straight-curve $-1 -71.441132786377722 0 -8.5587804740022211 0 -1 0 I I #
point $-1 -71.441132786377722 -35.497995578814539 -8.5587804740022211 #
straight-curve $-1 -51.963512130764528 -35.497995578814539 56.789937491323847 0 0 -1 I I #
point $-1 -51.963512130764528 -35.497995578814539 11.602851412952651 #
straight-curve $-1 -17.579271059487503 -35.497995578814539 6.708318016673914 1 0 0 I I #
point $-1 -51.963512130764528 -35.497995578814539 6.708318016673914 #
point $-1 -42.360672124027658 -28.169572489960292 3.8041836444199273 #
point $-1 -27.956412113922354 -28.169572489960292 3.8041836444199273 #
straight-curve $-1 24.115314921728956 35.497995578814539 4.9952040462306151 -1 0 0 I I #
straight-curve $-1 61.702322458571125 35.497995578814539 0 0 0 -1 I I #
straight-curve $-1 61.702322458571125 0 11.602851412952651 0 1 0 I I #
point $-1 61.702322458571118 35.497995578814539 4.9952040462306186 #
point $-1 61.702322458571125 35.497995578814539 11.602851412952651 #
point $-1 40.147614274390001 29.493906684290206 5.8372732671410841 #
point $-1 48.230629843457926 29.493906684290206 5.8372732671410841 #
point $-1 56.313645412525851 29.493906684290206 5.8372732671410841 #
straight-curve $-1 -71.441132786377722 0 -11.602851412952651 0 1 0 I I #
straight-curve $-1 -71.441132786377722 -35.497995578814539 -10.080815943477436 0 0 -1 I I #
point $-1 -71.441132786377722 -35.497995578814539 -11.602851412952651 #
End-of-ACIS-data 