500 0 3 0           
7 Unknown 11 ACIS 5.0 NT 24 Thu Mar 25 20:50:10 1999 
-1 9.9999999999999995e-007 1e-010 
body $-1 $3 $-1 $4 #
body $-1 $5 $-1 $6 #
body $-1 $7 $-1 $8 #
lump $-1 $-1 $9 $0 #
transform $-1 1 0 0 0 1 0 0 0 1 64.214606158635206 44.270588536765196 10.643207747344022 1 rotate no_reflect no_shear #
lump $-1 $-1 $10 $1 #
transform $-1 1 0 0 0 1 0 0 0 1 64.214606158635206 44.270588536765196 10.643207747344022 1 rotate no_reflect no_shear #
lump $-1 $-1 $11 $2 #
transform $-1 1 0 0 0 1 0 0 0 1 64.214606158635206 44.270588536765196 10.643207747344022 1 rotate no_reflect no_shear #
shell $-1 $-1 $-1 $12 $-1 $3 #
shell $-1 $-1 $-1 $13 $-1 $5 #
shell $-1 $-1 $-1 $14 $-1 $7 #
face $-1 $15 $16 $9 $-1 $17 forward single #
face $-1 $18 $19 $10 $-1 $20 forward single #
face $-1 $21 $22 $11 $-1 $23 forward single #
face $-1 $24 $25 $9 $-1 $26 reversed single #
loop $-1 $-1 $27 $12 #
plane-surface $-1 0 0 10.643207747344022 0 0 1 1 0 0 forward_v I I I I #
face $-1 $28 $29 $10 $-1 $30 reversed single #
loop $-1 $-1 $31 $13 #
plane-surface $-1 -64.214606158635206 0 0 1 0 0 0 0 -1 forward_v I I I I #
face $-1 $32 $33 $11 $-1 $34 reversed single #
loop $-1 $-1 $35 $14 #
plane-surface $-1 64.214606158635206 0 0 -1 0 0 0 0 1 forward_v I I I I #
face $-1 $36 $37 $9 $-1 $38 reversed single #
loop $-1 $-1 $39 $15 #
plane-surface $-1 0 0 -10.643207747344022 0 0 1 1 0 0 forward_v I I I I #
coedge $-1 $40 $41 $42 $43 forward $16 $-1 #
face $-1 $44 $45 $10 $-1 $46 forward single #
loop $-1 $-1 $47 $18 #
plane-surface $-1 0 44.270588536765196 0 0 -1 0 0 0 -1 forward_v I I I I #
coedge $-1 $48 $49 $50 $51 forward $19 $-1 #
face $-1 $52 $53 $11 $-1 $54 forward single #
loop $-1 $-1 $55 $21 #
plane-surface $-1 0 44.270588536765196 0 0 -1 0 0 0 -1 forward_v I I I I #
coedge $-1 $56 $57 $58 $59 forward $22 $-1 #
face $-1 $60 $61 $9 $-1 $62 reversed single #
loop $-1 $-1 $63 $24 #
plane-surface $-1 0 -44.270588536765196 0 0 1 0 0 0 1 forward_v I I I I #
coedge $-1 $64 $65 $66 $67 forward $25 $-1 #
coedge $-1 $68 $27 $69 $70 forward $16 $-1 #
coedge $-1 $27 $68 $71 $72 forward $16 $-1 #
coedge $-1 $73 $74 $27 $43 reversed $75 $-1 #
edge $-1 $76 -44.270588536765196 $77 44.270588536765196 $42 $78 forward 7 unknown #
face $-1 $79 $80 $10 $-1 $81 reversed single #
loop $-1 $-1 $50 $28 #
plane-surface $-1 -70.309259598713851 0 -6.7461443020764023 0 0 1 1 0 0 forward_v I I I I #
coedge $-1 $82 $83 $49 $84 forward $29 $-1 #
coedge $-1 $85 $31 $86 $87 reversed $19 $-1 #
coedge $-1 $31 $85 $47 $84 reversed $19 $-1 #
coedge $-1 $88 $89 $31 $51 reversed $45 $-1 #
edge $-1 $90 -44.270588536765196 $91 44.270588536765196 $50 $92 forward 7 unknown #
face $-1 $93 $94 $11 $-1 $95 reversed single #
loop $-1 $-1 $96 $32 #
plane-surface $-1 70.309259598713851 0 -6.7461443020764023 0 0 1 1 0 0 forward_v I I I I #
coedge $-1 $97 $98 $56 $99 forward $33 $-1 #
coedge $-1 $100 $35 $55 $99 reversed $22 $-1 #
coedge $-1 $35 $100 $101 $102 reversed $22 $-1 #
coedge $-1 $103 $104 $35 $59 reversed $53 $-1 #
edge $-1 $105 -44.270588536765196 $106 44.270588536765196 $58 $107 forward 7 unknown #
face $-1 $108 $109 $9 $-1 $110 reversed single #
loop $-1 $-1 $111 $36 #
plane-surface $-1 -64.214606158635206 0 0 1 0 0 0 0 -1 forward_v I I I I #
coedge $-1 $112 $71 $113 $114 forward $37 $-1 #
coedge $-1 $115 $39 $112 $116 forward $25 $-1 #
coedge $-1 $39 $115 $117 $118 forward $25 $-1 #
coedge $-1 $74 $73 $39 $67 reversed $75 $-1 #
edge $-1 $119 -44.270588536765196 $120 44.270588536765196 $66 $121 forward 7 unknown #
coedge $-1 $41 $40 $122 $123 forward $16 $-1 #
coedge $-1 $124 $125 $40 $70 reversed $109 $-1 #
edge $-1 $77 -64.214606158635206 $126 64.214606158635206 $69 $127 forward 7 unknown #
coedge $-1 $63 $128 $41 $72 reversed $37 $-1 #
edge $-1 $129 -64.214606158635206 $76 64.214606158635206 $71 $130 forward 7 unknown #
coedge $-1 $66 $42 $128 $131 forward $75 $-1 #
coedge $-1 $42 $66 $124 $132 reversed $75 $-1 #
loop $-1 $-1 $73 $108 #
vertex $-1 $43 $133 #
vertex $-1 $43 $134 #
straight-curve $-1 64.214606158635206 0 10.643207747344022 0 1 0 I I #
face $-1 $135 $136 $10 $-1 $137 reversed single #
loop $-1 $-1 $138 $44 #
plane-surface $-1 -76.403913038792496 0 -8.6946760247102119 1 0 0 0 0 -1 forward_v I I I I #
coedge $-1 $139 $47 $140 $141 reversed $29 $-1 #
coedge $-1 $47 $139 $88 $142 reversed $29 $-1 #
edge $-1 $90 6.7461443020764023 $143 10.643207747344022 $47 $144 forward 7 unknown #
coedge $-1 $49 $48 $145 $146 reversed $19 $-1 #
coedge $-1 $147 $148 $48 $87 forward $149 $-1 #
edge $-1 $150 -10.643207747344022 $91 -6.7461443020764023 $86 $151 forward 7 unknown #
coedge $-1 $152 $50 $83 $142 forward $45 $-1 #
coedge $-1 $50 $152 $147 $153 forward $45 $-1 #
vertex $-1 $84 $154 #
vertex $-1 $153 $155 #
straight-curve $-1 -64.214606158635206 0 -6.7461443020764023 0 -1 0 I I #
face $-1 $156 $157 $11 $-1 $158 reversed single #
loop $-1 $-1 $159 $52 #
plane-surface $-1 76.403913038792496 0 -8.6946760247102119 -1 0 0 0 0 1 forward_v I I I I #
coedge $-1 $104 $103 $160 $161 forward $53 $-1 #
coedge $-1 $162 $55 $104 $163 reversed $33 $-1 #
coedge $-1 $55 $162 $164 $165 reversed $33 $-1 #
edge $-1 $166 -10.643207747344022 $106 -6.7461443020764023 $55 $167 forward 7 unknown #
coedge $-1 $57 $56 $168 $169 reversed $22 $-1 #
coedge $-1 $170 $171 $57 $102 forward $172 $-1 #
edge $-1 $105 6.7461443020764023 $173 10.643207747344022 $101 $174 forward 7 unknown #
coedge $-1 $96 $58 $171 $175 forward $53 $-1 #
coedge $-1 $58 $96 $97 $163 forward $53 $-1 #
vertex $-1 $102 $176 #
vertex $-1 $163 $177 #
straight-curve $-1 64.214606158635206 0 -6.7461443020764023 0 1 0 I I #
face $-1 $-1 $75 $9 $-1 $178 reversed single #
loop $-1 $-1 $124 $60 #
plane-surface $-1 0 44.270588536765196 0 0 -1 0 0 0 -1 forward_v I I I I #
coedge $-1 $179 $122 $125 $180 forward $61 $-1 #
coedge $-1 $128 $63 $64 $116 reversed $37 $-1 #
coedge $-1 $122 $179 $63 $114 reversed $61 $-1 #
edge $-1 $129 -10.643207747344022 $181 10.643207747344022 $113 $182 forward 7 unknown #
coedge $-1 $65 $64 $179 $183 forward $25 $-1 #
edge $-1 $120 -64.214606158635206 $181 64.214606158635206 $112 $184 forward 7 unknown #
coedge $-1 $125 $124 $65 $118 reversed $109 $-1 #
edge $-1 $185 -64.214606158635206 $119 64.214606158635206 $117 $186 forward 7 unknown #
vertex $-1 $67 $187 #
vertex $-1 $131 $188 #
straight-curve $-1 64.214606158635206 0 -10.643207747344022 0 -1 0 I I #
coedge $-1 $111 $113 $68 $123 reversed $61 $-1 #
edge $-1 $126 -44.270588536765196 $129 44.270588536765196 $122 $189 forward 7 unknown #
coedge $-1 $117 $69 $74 $132 forward $109 $-1 #
coedge $-1 $69 $117 $111 $180 reversed $109 $-1 #
vertex $-1 $70 $190 #
straight-curve $-1 0 44.270588536765196 10.643207747344022 -1 0 0 I I #
coedge $-1 $71 $112 $73 $131 reversed $37 $-1 #
vertex $-1 $123 $191 #
straight-curve $-1 0 -44.270588536765196 10.643207747344022 1 0 0 I I #
edge $-1 $76 -10.643207747344022 $120 10.643207747344022 $73 $192 forward 7 unknown #
edge $-1 $77 -10.643207747344022 $119 10.643207747344022 $74 $193 forward 7 unknown #
point $-1 64.214606158635206 -44.270588536765196 10.643207747344022 #
point $-1 64.214606158635206 44.270588536765196 10.643207747344022 #
face $-1 $-1 $149 $10 $-1 $194 reversed single #
loop $-1 $-1 $145 $79 #
plane-surface $-1 0 0 -10.643207747344022 0 0 1 1 0 0 forward_v I I I I #
coedge $-1 $195 $196 $139 $197 forward $80 $-1 #
coedge $-1 $83 $82 $138 $197 reversed $29 $-1 #
coedge $-1 $145 $198 $82 $141 forward $136 $-1 #
edge $-1 $199 -76.403913038792496 $143 -64.214606158635206 $82 $200 forward 7 unknown #
edge $-1 $90 -6.0946534400786447 $201 6.0946534400786447 $83 $202 forward 7 unknown #
vertex $-1 $84 $203 #
straight-curve $-1 -64.214606158635206 44.270588536765196 0 0 0 -1 I I #
coedge $-1 $204 $140 $85 $146 forward $136 $-1 #
edge $-1 $143 -44.270588536765196 $150 44.270588536765196 $145 $205 forward 7 unknown #
coedge $-1 $206 $86 $89 $153 reversed $149 $-1 #
coedge $-1 $86 $206 $204 $207 reversed $149 $-1 #
loop $-1 $-1 $86 $135 #
vertex $-1 $207 $208 #
straight-curve $-1 -64.214606158635206 -44.270588536765196 0 0 0 1 I I #
coedge $-1 $89 $88 $196 $209 forward $45 $-1 #
edge $-1 $210 -6.0946534400786447 $91 6.0946534400786447 $147 $211 forward 7 unknown #
point $-1 -64.214606158635206 44.270588536765196 -6.7461443020764023 #
point $-1 -64.214606158635206 -44.270588536765196 -6.7461443020764023 #
face $-1 $-1 $172 $11 $-1 $212 reversed single #
loop $-1 $-1 $168 $93 #
plane-surface $-1 0 0 -10.643207747344022 0 0 1 1 0 0 forward_v I I I I #
coedge $-1 $213 $160 $214 $215 forward $94 $-1 #
coedge $-1 $159 $216 $96 $161 reversed $94 $-1 #
edge $-1 $217 -44.270588536765196 $218 44.270588536765196 $160 $219 forward 7 unknown #
coedge $-1 $98 $97 $216 $220 forward $33 $-1 #
edge $-1 $218 -6.0946534400786447 $106 6.0946534400786447 $97 $221 forward 7 unknown #
coedge $-1 $222 $168 $98 $165 forward $157 $-1 #
edge $-1 $166 -6.0946534400786447 $223 6.0946534400786447 $98 $224 forward 7 unknown #
vertex $-1 $165 $225 #
straight-curve $-1 64.214606158635206 44.270588536765196 0 0 0 1 I I #
coedge $-1 $164 $226 $100 $169 forward $157 $-1 #
edge $-1 $173 -44.270588536765196 $166 44.270588536765196 $168 $227 forward 7 unknown #
coedge $-1 $214 $101 $226 $228 reversed $172 $-1 #
coedge $-1 $101 $214 $103 $175 reversed $172 $-1 #
loop $-1 $-1 $101 $156 #
vertex $-1 $102 $229 #
straight-curve $-1 64.214606158635206 -44.270588536765196 0 0 0 -1 I I #
edge $-1 $105 -6.0946534400786447 $217 6.0946534400786447 $171 $230 forward 7 unknown #
point $-1 64.214606158635206 -44.270588536765196 -6.7461443020764023 #
point $-1 64.214606158635206 44.270588536765196 -6.7461443020764023 #
plane-surface $-1 64.214606158635206 0 0 -1 0 0 0 0 1 forward_v I I I I #
coedge $-1 $113 $111 $115 $183 reversed $61 $-1 #
edge $-1 $126 -10.643207747344022 $185 10.643207747344022 $125 $231 forward 7 unknown #
vertex $-1 $183 $232 #
straight-curve $-1 -64.214606158635206 -44.270588536765196 0 0 0 -1 I I #
edge $-1 $181 -44.270588536765196 $185 44.270588536765196 $179 $233 forward 7 unknown #
straight-curve $-1 0 -44.270588536765196 -10.643207747344022 -1 0 0 I I #
vertex $-1 $118 $234 #
straight-curve $-1 0 44.270588536765196 -10.643207747344022 1 0 0 I I #
point $-1 64.214606158635206 44.270588536765196 -10.643207747344022 #
point $-1 64.214606158635206 -44.270588536765196 -10.643207747344022 #
straight-curve $-1 -64.214606158635206 0 10.643207747344022 0 -1 0 I I #
point $-1 -64.214606158635206 44.270588536765196 10.643207747344022 #
point $-1 -64.214606158635206 -44.270588536765196 10.643207747344022 #
straight-curve $-1 64.214606158635206 -44.270588536765196 0 0 0 -1 I I #
straight-curve $-1 64.214606158635206 44.270588536765196 0 0 0 -1 I I #
plane-surface $-1 0 -44.270588536765196 0 0 1 0 0 0 1 forward_v I I I I #
coedge $-1 $235 $138 $198 $236 reversed $80 $-1 #
coedge $-1 $138 $235 $152 $209 reversed $80 $-1 #
edge $-1 $201 -1.9485317226338097 $199 1.9485317226338097 $139 $237 forward 7 unknown #
coedge $-1 $140 $204 $195 $236 forward $136 $-1 #
vertex $-1 $141 $238 #
straight-curve $-1 0 44.270588536765196 -10.643207747344022 1 0 0 I I #
vertex $-1 $142 $239 #
straight-curve $-1 -70.309259598713851 44.270588536765196 -6.7461443020764023 -1 0 0 I I #
point $-1 -64.214606158635206 44.270588536765196 -10.643207747344022 #
coedge $-1 $198 $145 $148 $207 forward $136 $-1 #
straight-curve $-1 -64.214606158635206 0 -10.643207747344022 0 -1 0 I I #
coedge $-1 $148 $147 $235 $240 forward $149 $-1 #
edge $-1 $150 -6.0946534400786447 $241 6.0946534400786447 $148 $242 forward 7 unknown #
point $-1 -64.214606158635206 -44.270588536765196 -10.643207747344022 #
edge $-1 $201 -44.270588536765196 $210 44.270588536765196 $196 $243 forward 7 unknown #
vertex $-1 $209 $244 #
straight-curve $-1 -70.309259598713851 -44.270588536765196 -6.7461443020764023 1 0 0 I I #
plane-surface $-1 0 -44.270588536765196 0 0 1 0 0 0 1 forward_v I I I I #
coedge $-1 $216 $159 $222 $245 reversed $94 $-1 #
coedge $-1 $171 $170 $159 $215 reversed $172 $-1 #
edge $-1 $217 -1.9485317226338097 $246 1.9485317226338097 $159 $247 forward 7 unknown #
coedge $-1 $160 $213 $162 $220 reversed $94 $-1 #
vertex $-1 $161 $248 #
vertex $-1 $161 $249 #
straight-curve $-1 76.403913038792496 0 -6.7461443020764023 0 1 0 I I #
edge $-1 $218 -1.9485317226338097 $223 1.9485317226338097 $216 $250 forward 7 unknown #
straight-curve $-1 70.309259598713851 44.270588536765196 -6.7461443020764023 -1 0 0 I I #
coedge $-1 $226 $164 $213 $245 forward $157 $-1 #
vertex $-1 $245 $251 #
straight-curve $-1 70.309259598713851 44.270588536765196 -10.643207747344022 1 0 0 I I #
point $-1 64.214606158635206 44.270588536765196 -10.643207747344022 #
coedge $-1 $168 $222 $170 $228 forward $157 $-1 #
straight-curve $-1 64.214606158635206 0 -10.643207747344022 0 1 0 I I #
edge $-1 $246 -6.0946534400786447 $173 6.0946534400786447 $170 $252 forward 7 unknown #
point $-1 64.214606158635206 -44.270588536765196 -10.643207747344022 #
straight-curve $-1 70.309259598713851 -44.270588536765196 -6.7461443020764023 1 0 0 I I #
straight-curve $-1 -64.214606158635206 44.270588536765196 0 0 0 -1 I I #
point $-1 -64.214606158635206 -44.270588536765196 -10.643207747344022 #
straight-curve $-1 -64.214606158635206 0 -10.643207747344022 0 1 0 I I #
point $-1 -64.214606158635206 44.270588536765196 -10.643207747344022 #
coedge $-1 $196 $195 $206 $240 reversed $80 $-1 #
edge $-1 $241 -44.270588536765196 $199 44.270588536765196 $195 $253 forward 7 unknown #
straight-curve $-1 -76.403913038792496 44.270588536765196 -8.6946760247102119 0 0 -1 I I #
point $-1 -76.403913038792496 44.270588536765196 -10.643207747344022 #
point $-1 -76.403913038792496 44.270588536765196 -6.7461443020764023 #
edge $-1 $210 -1.9485317226338097 $241 1.9485317226338097 $235 $254 forward 7 unknown #
vertex $-1 $236 $255 #
straight-curve $-1 -70.309259598713851 -44.270588536765196 -10.643207747344022 -1 0 0 I I #
straight-curve $-1 -76.403913038792496 0 -6.7461443020764023 0 -1 0 I I #
point $-1 -76.403913038792496 -44.270588536765196 -6.7461443020764023 #
edge $-1 $223 -44.270588536765196 $246 44.270588536765196 $213 $256 forward 7 unknown #
vertex $-1 $215 $257 #
straight-curve $-1 76.403913038792496 -44.270588536765196 -8.6946760247102119 0 0 -1 I I #
point $-1 76.403913038792496 -44.270588536765196 -6.7461443020764023 #
point $-1 76.403913038792496 44.270588536765196 -6.7461443020764023 #
straight-curve $-1 76.403913038792496 44.270588536765196 -8.6946760247102119 0 0 -1 I I #
point $-1 76.403913038792496 44.270588536765196 -10.643207747344022 #
straight-curve $-1 70.309259598713851 -44.270588536765196 -10.643207747344022 -1 0 0 I I #
straight-curve $-1 -76.403913038792496 0 -10.643207747344022 0 1 0 I I #
straight-curve $-1 -76.403913038792496 -44.270588536765196 -8.6946760247102119 0 0 -1 I I #
point $-1 -76.403913038792496 -44.270588536765196 -10.643207747344022 #
straight-curve $-1 76.403913038792496 0 -10.643207747344022 0 -1 0 I I #
point $-1 76.403913038792496 -44.270588536765196 -10.643207747344022 #
End-of-ACIS-data 