500 0 9 0           
7 Unknown 11 ACIS 5.0 NT 24 Fri Mar 26 02:40:36 1999 
-1 9.9999999999999995e-007 1e-010 
body $-1 $9 $-1 $10 #
body $-1 $11 $-1 $12 #
body $-1 $13 $-1 $14 #
body $-1 $15 $-1 $16 #
body $-1 $17 $-1 $18 #
body $-1 $19 $-1 $20 #
body $-1 $21 $-1 $22 #
body $-1 $23 $-1 $24 #
body $-1 $25 $-1 $26 #
lump $-1 $-1 $27 $0 #
transform $-1 1 0 0 0 1 0 0 0 1 68.982818079165014 44.299571250008299 18.1770603185022 1 rotate no_reflect no_shear #
lump $-1 $-1 $28 $1 #
transform $-1 1 0 0 0 1 0 0 0 1 68.982818079165014 44.299571250008299 18.1770603185022 1 rotate no_reflect no_shear #
lump $-1 $-1 $29 $2 #
transform $-1 1 0 0 0 1 0 0 0 1 68.982818079165014 44.299571250008299 18.1770603185022 1 rotate no_reflect no_shear #
lump $-1 $-1 $30 $3 #
transform $-1 1 0 0 0 1 0 0 0 1 68.982818079165014 44.299571250008299 18.1770603185022 1 rotate no_reflect no_shear #
lump $-1 $-1 $31 $4 #
transform $-1 1 0 0 0 1 0 0 0 1 68.982818079165014 44.299571250008299 18.1770603185022 1 rotate no_reflect no_shear #
lump $-1 $-1 $32 $5 #
transform $-1 1 0 0 0 1 0 0 0 1 68.982818079165014 44.299571250008299 18.1770603185022 1 rotate no_reflect no_shear #
lump $-1 $-1 $33 $6 #
transform $-1 1 0 0 0 1 0 0 0 1 68.982818079165014 44.299571250008299 18.1770603185022 1 rotate no_reflect no_shear #
lump $-1 $-1 $34 $7 #
transform $-1 1 0 0 0 1 0 0 0 1 68.982818079165014 44.299571250008299 18.1770603185022 1 rotate no_reflect no_shear #
lump $-1 $-1 $35 $8 #
transform $-1 1 0 0 0 1 0 0 0 1 68.982818079165014 44.299571250008299 18.1770603185022 1 rotate no_reflect no_shear #
shell $-1 $-1 $-1 $36 $-1 $9 #
shell $-1 $-1 $-1 $37 $-1 $11 #
shell $-1 $-1 $-1 $38 $-1 $13 #
shell $-1 $-1 $-1 $39 $-1 $15 #
shell $-1 $-1 $-1 $40 $-1 $17 #
shell $-1 $-1 $-1 $41 $-1 $19 #
shell $-1 $-1 $-1 $42 $-1 $21 #
shell $-1 $-1 $-1 $43 $-1 $23 #
shell $-1 $-1 $-1 $44 $-1 $25 #
face $-1 $45 $46 $27 $-1 $47 forward single #
face $-1 $48 $49 $28 $-1 $50 reversed single #
face $-1 $51 $52 $29 $-1 $53 reversed single #
face $-1 $54 $55 $30 $-1 $56 reversed single #
face $-1 $57 $58 $31 $-1 $59 forward single #
face $-1 $60 $61 $32 $-1 $62 reversed single #
face $-1 $63 $64 $33 $-1 $65 forward single #
face $-1 $66 $67 $34 $-1 $68 forward single #
face $-1 $69 $70 $35 $-1 $71 forward single #
face $-1 $72 $73 $27 $-1 $74 reversed single #
loop $-1 $-1 $75 $36 #
plane-surface $-1 0 0 18.1770603185022 0 0 1 1 0 0 forward_v I I I I #
face $-1 $76 $77 $28 $-1 $78 reversed single #
loop $-1 $-1 $79 $37 #
plane-surface $-1 0 -34.469446763654119 7.5140207350741903 0 0 1 1 0 0 forward_v I I I I #
face $-1 $80 $81 $29 $-1 $82 reversed single #
loop $-1 $-1 $83 $38 #
plane-surface $-1 0 34.469446763654119 7.5140207350741903 0 0 1 1 0 0 forward_v I I I I #
face $-1 $84 $85 $30 $-1 $86 reversed single #
loop $-1 $-1 $87 $39 #
plane-surface $-1 41.828356238908384 15.84262958064042 205.73476477745828 0 1 0 0.6018150307709319 0 0.79863550430605224 forward_v I I I I #
face $-1 $88 $89 $31 $-1 $90 forward single #
loop $-1 $91 $92 $40 #
cone-surface $-1 63.992557880690654 20.240975928970173 13.707136022782226 -0.6018150307709319 0 -0.79863550430605224 1.1979532564590785 0 -0.90272254615639791 1 I I 0 1 1.5 forward I I I I #
face $-1 $93 $94 $32 $-1 $95 reversed single #
loop $-1 $-1 $96 $41 #
plane-surface $-1 -148.1166570256342 -16.034084153864889 126.66941570628994 0 1 0 -0.57357644374324357 0 0.81915203911291934 forward_v I I I I #
face $-1 $97 $98 $33 $-1 $99 forward single #
loop $-1 $100 $101 $42 #
cone-surface $-1 -65.099205687911407 -13.11484057298734 14.981485608602481 0.57357644374324357 0 -0.81915203911291934 0.81915203911291934 0 0.57357644374324357 1 I I 0 1 1 forward I I I I #
face $-1 $102 $103 $34 $-1 $104 forward single #
loop $-1 $105 $106 $43 #
cone-surface $-1 -65.099205687911407 -8.7359752016710246 14.981485608602481 0.57357644374324357 0 -0.81915203911291934 0.81915203911291934 0 0.57357644374324357 1 I I 0 1 1 forward I I I I #
face $-1 $107 $108 $35 $-1 $109 forward single #
loop $-1 $110 $111 $44 #
cone-surface $-1 -65.099205687911407 -4.3571098303547089 14.981485608602481 0.57357644374324357 0 -0.81915203911291934 0.81915203911291934 0 0.57357644374324357 1 I I 0 1 1 forward I I I I #
face $-1 $112 $113 $27 $-1 $114 reversed single #
loop $-1 $-1 $115 $45 #
plane-surface $-1 0 0 -18.1770603185022 0 0 1 1 0 0 forward_v I I I I #
coedge $-1 $116 $117 $118 $119 forward $46 $-1 #
face $-1 $120 $121 $28 $-1 $122 reversed single #
loop $-1 $-1 $123 $48 #
plane-surface $-1 0 -24.639322277299939 12.845540526788195 0 -1 0 0 0 -1 forward_v I I I I #
coedge $-1 $124 $125 $126 $127 reversed $49 $-1 #
face $-1 $128 $129 $29 $-1 $130 forward single #
loop $-1 $-1 $131 $51 #
plane-surface $-1 0 24.639322277299939 12.845540526788195 0 1 0 0 0 1 forward_v I I I I #
coedge $-1 $132 $133 $134 $135 reversed $52 $-1 #
face $-1 $136 $137 $30 $-1 $138 forward single #
loop $-1 $-1 $139 $54 #
plane-surface $-1 -41.201437331048197 20.240975928970173 95.55050936724507 0.6018150307709319 0 0.79863550430605224 0.79863550430605224 0 -0.6018150307709319 forward_v I I I I #
coedge $-1 $140 $141 $142 $143 reversed $55 $-1 #
face $-1 $-1 $144 $31 $-1 $145 forward single #
loop $-1 $146 $147 $57 #
cone-surface $-1 62.304047687732719 20.240975928970173 11.466407359439572 -0.6018150307709319 0 -0.79863550430605224 0.59897662822953923 0 -0.45136127307819895 1 I I -0.70710678118654757 0.70710678118654757 0.75 forward I I I I #
loop $-1 $-1 $148 $40 #
coedge $-1 $92 $92 $149 $150 reversed $58 $-1 #
face $-1 $151 $152 $32 $-1 $153 reversed single #
loop $-1 $-1 $154 $60 #
plane-surface $-1 -68.982818079165 -8.7359752016710246 13.654583519682788 -0.57357644374324357 0 0.81915203911291934 0.81915203911291934 0 0.57357644374324357 forward_v I I I I #
coedge $-1 $155 $156 $157 $158 reversed $61 $-1 #
face $-1 $-1 $159 $33 $-1 $160 forward single #
loop $-1 $161 $162 $63 #
cone-surface $-1 -64.158188125646035 -13.11484057298734 13.637573278556022 0.57357644374324357 0 -0.81915203911291934 0.40957601955645967 0 0.28678822187162178 1 I I -0.70710678118654746 0.70710678118654746 0.5 forward I I I I #
loop $-1 $-1 $163 $42 #
coedge $-1 $101 $101 $164 $165 reversed $64 $-1 #
face $-1 $-1 $166 $34 $-1 $167 forward single #
loop $-1 $168 $169 $66 #
cone-surface $-1 -64.158188125646035 -8.7359752016710246 13.637573278556022 0.57357644374324357 0 -0.81915203911291934 0.40957601955645967 0 0.28678822187162178 1 I I -0.70710678118654746 0.70710678118654746 0.5 forward I I I I #
loop $-1 $-1 $170 $43 #
coedge $-1 $106 $106 $171 $172 reversed $67 $-1 #
face $-1 $-1 $173 $35 $-1 $174 forward single #
loop $-1 $175 $176 $69 #
cone-surface $-1 -64.158188125646035 -4.3571098303547089 13.637573278556022 0.57357644374324357 0 -0.81915203911291934 0.40957601955645967 0 0.28678822187162178 1 I I -0.70710678118654746 0.70710678118654746 0.5 forward I I I I #
loop $-1 $-1 $177 $44 #
coedge $-1 $111 $111 $178 $179 reversed $70 $-1 #
face $-1 $180 $181 $27 $-1 $182 reversed single #
loop $-1 $-1 $183 $72 #
plane-surface $-1 0 -44.299571250008299 0 0 1 0 0 0 1 forward_v I I I I #
coedge $-1 $184 $185 $186 $187 forward $73 $-1 #
coedge $-1 $188 $75 $189 $190 forward $46 $-1 #
coedge $-1 $75 $188 $191 $192 forward $46 $-1 #
coedge $-1 $193 $194 $75 $119 reversed $195 $-1 #
edge $-1 $196 -44.299571250008299 $197 44.299571250008299 $118 $198 forward 7 unknown #
face $-1 $199 $200 $28 $-1 $201 reversed single #
loop $-1 $-1 $202 $76 #
plane-surface $-1 -68.982818079165014 0 0 1 0 0 0 0 -1 forward_v I I I I #
coedge $-1 $203 $204 $205 $206 reversed $77 $-1 #
coedge $-1 $207 $79 $208 $209 reversed $49 $-1 #
coedge $-1 $79 $207 $203 $210 forward $49 $-1 #
coedge $-1 $205 $211 $79 $127 forward $212 $-1 #
edge $-1 $213 -27.064847868181239 $214 -7.4045988954728799 $126 $215 forward 7 unknown #
face $-1 $216 $217 $29 $-1 $218 reversed single #
loop $-1 $-1 $219 $80 #
plane-surface $-1 0 0 18.1770603185022 0 0 1 1 0 0 forward_v I I I I #
coedge $-1 $220 $221 $222 $223 reversed $81 $-1 #
coedge $-1 $224 $83 $220 $225 forward $52 $-1 #
coedge $-1 $83 $224 $226 $227 reversed $52 $-1 #
coedge $-1 $228 $229 $83 $135 forward $217 $-1 #
edge $-1 $230 7.4045988954728799 $231 27.064847868181239 $134 $232 forward 7 unknown #
face $-1 $233 $234 $30 $-1 $235 reversed single #
loop $-1 $-1 $236 $84 #
plane-surface $-1 0 0 18.1770603185022 0 0 1 1 0 0 forward_v I I I I #
coedge $-1 $237 $238 $239 $240 reversed $85 $-1 #
coedge $-1 $141 $87 $241 $242 reversed $55 $-1 #
coedge $-1 $87 $140 $237 $243 reversed $55 $-1 #
coedge $-1 $239 $244 $87 $143 forward $234 $-1 #
edge $-1 $245 84.690322070226941 $246 90.346666591440652 $142 $247 forward 7 unknown #
loop $-1 $-1 $149 $88 #
plane-surface $-1 -41.201437331048197 20.240975928970173 95.55050936724507 0.6018150307709319 0 0.79863550430605224 0.79863550430605224 0 -0.6018150307709319 forward_v I I I I #
loop $-1 $-1 $248 $57 #
coedge $-1 $147 $147 $148 $249 reversed $89 $-1 #
coedge $-1 $148 $148 $147 $249 forward $91 $-1 #
coedge $-1 $149 $149 $92 $150 forward $144 $-1 #
edge $-1 $250 0 $250 6.2831853071796004 $149 $251 forward 7 unknown #
face $-1 $252 $253 $32 $-1 $254 reversed single #
loop $-1 $-1 $255 $93 #
plane-surface $-1 -148.1166570256342 -1.4378662494771621 126.66941570628994 0 -1 0 0.57357644374324357 0 -0.81915203911291934 forward_v I I I I #
coedge $-1 $256 $257 $258 $259 reversed $94 $-1 #
coedge $-1 $156 $96 $260 $261 reversed $61 $-1 #
coedge $-1 $96 $155 $256 $262 reversed $61 $-1 #
coedge $-1 $258 $263 $96 $158 forward $264 $-1 #
edge $-1 $265 5.0755104336520844 $266 11.534276535371781 $157 $267 forward 7 unknown #
loop $-1 $-1 $164 $97 #
plane-surface $-1 -68.982818079165 -8.7359752016710246 13.654583519682788 -0.57357644374324357 0 0.81915203911291934 0.81915203911291934 0 0.57357644374324357 forward_v I I I I #
loop $-1 $-1 $268 $63 #
coedge $-1 $162 $162 $163 $269 reversed $98 $-1 #
coedge $-1 $163 $163 $162 $269 forward $100 $-1 #
coedge $-1 $164 $164 $101 $165 forward $159 $-1 #
edge $-1 $270 0 $270 6.2831853071796004 $164 $271 forward 7 unknown #
loop $-1 $-1 $171 $102 #
plane-surface $-1 -68.982818079165 -8.7359752016710246 13.654583519682788 -0.57357644374324357 0 0.81915203911291934 0.81915203911291934 0 0.57357644374324357 forward_v I I I I #
loop $-1 $-1 $272 $66 #
coedge $-1 $169 $169 $170 $273 reversed $103 $-1 #
coedge $-1 $170 $170 $169 $273 forward $105 $-1 #
coedge $-1 $171 $171 $106 $172 forward $166 $-1 #
edge $-1 $274 0 $274 6.2831853071796004 $171 $275 forward 7 unknown #
loop $-1 $-1 $178 $107 #
plane-surface $-1 -68.982818079165 -8.7359752016710246 13.654583519682788 -0.57357644374324357 0 0.81915203911291934 0.81915203911291934 0 0.57357644374324357 forward_v I I I I #
loop $-1 $-1 $276 $69 #
coedge $-1 $176 $176 $177 $277 reversed $108 $-1 #
coedge $-1 $177 $177 $176 $277 forward $110 $-1 #
coedge $-1 $178 $178 $111 $179 forward $173 $-1 #
edge $-1 $278 0 $278 6.2831853071796004 $178 $279 forward 7 unknown #
face $-1 $280 $281 $27 $-1 $282 reversed single #
loop $-1 $-1 $283 $112 #
plane-surface $-1 -68.982818079165014 0 0 1 0 0 0 0 -1 forward_v I I I I #
coedge $-1 $284 $191 $285 $286 forward $113 $-1 #
coedge $-1 $287 $115 $284 $288 forward $73 $-1 #
coedge $-1 $115 $287 $289 $290 forward $73 $-1 #
coedge $-1 $194 $193 $115 $187 reversed $195 $-1 #
edge $-1 $291 -44.299571250008299 $292 44.299571250008299 $186 $293 forward 7 unknown #
coedge $-1 $117 $116 $294 $295 forward $46 $-1 #
coedge $-1 $296 $297 $116 $190 reversed $281 $-1 #
edge $-1 $197 -68.982818079165014 $298 68.982818079165014 $189 $299 forward 7 unknown #
coedge $-1 $183 $300 $117 $192 reversed $113 $-1 #
edge $-1 $301 -68.982818079165014 $196 68.982818079165014 $191 $302 forward 7 unknown #
coedge $-1 $186 $118 $300 $303 forward $195 $-1 #
coedge $-1 $118 $186 $296 $304 reversed $195 $-1 #
loop $-1 $-1 $193 $280 #
vertex $-1 $119 $305 #
vertex $-1 $119 $306 #
straight-curve $-1 68.982818079165014 0 18.1770603185022 0 1 0 I I #
face $-1 $307 $308 $28 $-1 $309 forward single #
loop $-1 $-1 $208 $120 #
plane-surface $-1 0 -44.299571250008299 0 0 1 0 0 0 1 forward_v I I I I #
coedge $-1 $310 $311 $312 $313 forward $121 $-1 #
coedge $-1 $312 $123 $125 $210 reversed $77 $-1 #
coedge $-1 $123 $312 $314 $315 reversed $77 $-1 #
coedge $-1 $316 $126 $123 $206 forward $212 $-1 #
edge $-1 $214 1.0912504716800928 $317 11.754290055108102 $205 $318 forward 7 unknown #
coedge $-1 $125 $124 $310 $319 reversed $49 $-1 #
coedge $-1 $320 $321 $124 $209 forward $200 $-1 #
edge $-1 $322 -68.982818079165014 $213 68.982818079165014 $208 $323 forward 7 unknown #
edge $-1 $324 -68.982818079165014 $214 68.982818079165014 $203 $325 forward 7 unknown #
coedge $-1 $126 $316 $320 $326 forward $212 $-1 #
loop $-1 $-1 $205 $307 #
vertex $-1 $209 $327 #
vertex $-1 $127 $328 #
straight-curve $-1 68.982818079165014 -17.23472338182706 7.5140207350741903 0 1 0 I I #
face $-1 $329 $330 $29 $-1 $331 reversed single #
loop $-1 $-1 $229 $128 #
plane-surface $-1 68.982818079165014 0 0 -1 0 0 0 0 1 forward_v I I I I #
coedge $-1 $332 $333 $221 $334 forward $129 $-1 #
coedge $-1 $335 $131 $132 $225 reversed $81 $-1 #
coedge $-1 $131 $335 $219 $334 reversed $81 $-1 #
coedge $-1 $336 $337 $131 $223 forward $330 $-1 #
edge $-1 $338 1.0912504716800928 $339 11.754290055108102 $222 $340 forward 7 unknown #
coedge $-1 $133 $132 $337 $341 reversed $52 $-1 #
edge $-1 $230 -68.982818079165014 $338 68.982818079165014 $220 $342 forward 7 unknown #
coedge $-1 $343 $344 $133 $227 forward $345 $-1 #
edge $-1 $231 -68.982818079165014 $346 68.982818079165014 $226 $347 forward 7 unknown #
coedge $-1 $348 $134 $344 $349 reversed $217 $-1 #
coedge $-1 $134 $348 $335 $350 forward $217 $-1 #
vertex $-1 $135 $351 #
vertex $-1 $227 $352 #
straight-curve $-1 68.982818079165014 17.23472338182706 7.5140207350741903 0 1 0 I I #
face $-1 $-1 $353 $30 $-1 $354 forward single #
loop $-1 $-1 $142 $136 #
plane-surface $-1 68.982818079165014 0 0 -1 0 0 0 0 1 forward_v I I I I #
coedge $-1 $241 $355 $356 $357 forward $137 $-1 #
coedge $-1 $356 $139 $141 $243 forward $85 $-1 #
coedge $-1 $139 $356 $358 $359 reversed $85 $-1 #
coedge $-1 $360 $142 $139 $240 forward $234 $-1 #
edge $-1 $246 5.7221416161553336 $361 14.518834312814853 $239 $362 forward 7 unknown #
coedge $-1 $363 $236 $140 $242 forward $137 $-1 #
edge $-1 $364 40.562417402521632 $245 48.068639959710822 $241 $365 forward 7 unknown #
edge $-1 $246 -137.96563615833003 $364 -128.56682716885058 $141 $366 forward 7 unknown #
coedge $-1 $142 $360 $363 $367 reversed $234 $-1 #
vertex $-1 $367 $368 #
vertex $-1 $143 $369 #
straight-curve $-1 68.982818079165014 15.84262958064042 102.86738238872914 0 0 -1 I I #
coedge $-1 $248 $248 $-1 $370 reversed $146 $-1 #
edge $-1 $371 0 $371 6.2831853071796004 $147 $372 forward 7 unknown #
vertex $-1 $150 $373 #
ellipse-curve $-1 65.229706800570398 20.240975928970173 15.34888805789536 0.6018150307709319 0 0.79863550430605224 1.1979532564590785 0 -0.90272254615639791 1 I I #
face $-1 $-1 $264 $32 $-1 $374 forward single #
loop $-1 $-1 $375 $151 #
plane-surface $-1 -68.982818079165014 0 0 1 0 0 0 0 -1 forward_v I I I I #
coedge $-1 $376 $377 $378 $379 reversed $152 $-1 #
coedge $-1 $380 $154 $156 $262 forward $94 $-1 #
coedge $-1 $154 $380 $376 $381 forward $94 $-1 #
coedge $-1 $378 $157 $154 $259 forward $264 $-1 #
edge $-1 $266 -11.666096553029377 $382 2.9301213513583502 $258 $383 forward 7 unknown #
coedge $-1 $384 $385 $155 $261 forward $253 $-1 #
edge $-1 $386 -49.680124333462189 $265 -45.15764753464277 $260 $387 forward 7 unknown #
edge $-1 $266 -7.8846975815552458 $386 1.7754109250068268e-014 $156 $388 forward 7 unknown #
coedge $-1 $157 $378 $384 $389 forward $264 $-1 #
loop $-1 $-1 $378 $252 #
vertex $-1 $261 $390 #
vertex $-1 $158 $391 #
straight-curve $-1 -74.058328512817098 -16.034084153864889 18.1770603185022 1 0 0 I I #
coedge $-1 $268 $268 $-1 $392 reversed $161 $-1 #
edge $-1 $393 0 $393 6.2831853071796004 $162 $394 forward 7 unknown #
vertex $-1 $165 $395 #
ellipse-curve $-1 -65.753435028305162 -13.11484057298734 15.915821919092492 -0.57357644374324357 0 0.81915203911291934 0.81915203911291934 0 0.57357644374324357 1 I I #
coedge $-1 $272 $272 $-1 $396 reversed $168 $-1 #
edge $-1 $397 0 $397 6.2831853071796004 $169 $398 forward 7 unknown #
vertex $-1 $172 $399 #
ellipse-curve $-1 -65.753435028305162 -8.7359752016710246 15.915821919092492 -0.57357644374324357 0 0.81915203911291934 0.81915203911291934 0 0.57357644374324357 1 I I #
coedge $-1 $276 $276 $-1 $400 reversed $175 $-1 #
edge $-1 $401 0 $401 6.2831853071796004 $176 $402 forward 7 unknown #
vertex $-1 $179 $403 #
ellipse-curve $-1 -65.753435028305162 -4.3571098303547089 15.915821919092492 -0.57357644374324357 0 0.81915203911291934 0.81915203911291934 0 0.57357644374324357 1 I I #
face $-1 $-1 $195 $27 $-1 $404 reversed single #
loop $-1 $-1 $296 $180 #
plane-surface $-1 0 44.299571250008299 0 0 -1 0 0 0 -1 forward_v I I I I #
coedge $-1 $405 $294 $297 $406 forward $181 $-1 #
coedge $-1 $300 $183 $184 $288 reversed $113 $-1 #
coedge $-1 $294 $405 $183 $286 reversed $181 $-1 #
edge $-1 $301 -18.1770603185022 $407 18.1770603185022 $285 $408 forward 7 unknown #
coedge $-1 $185 $184 $405 $409 forward $73 $-1 #
edge $-1 $292 -68.982818079165014 $407 68.982818079165014 $284 $410 forward 7 unknown #
coedge $-1 $297 $296 $185 $290 reversed $281 $-1 #
edge $-1 $411 -68.982818079165014 $291 68.982818079165014 $289 $412 forward 7 unknown #
vertex $-1 $187 $413 #
vertex $-1 $303 $414 #
straight-curve $-1 68.982818079165014 0 -18.1770603185022 0 -1 0 I I #
coedge $-1 $283 $285 $188 $295 reversed $181 $-1 #
edge $-1 $298 -44.299571250008299 $301 44.299571250008299 $294 $415 forward 7 unknown #
coedge $-1 $289 $189 $194 $304 forward $281 $-1 #
coedge $-1 $189 $289 $283 $406 reversed $281 $-1 #
vertex $-1 $190 $416 #
straight-curve $-1 0 44.299571250008299 18.1770603185022 -1 0 0 I I #
coedge $-1 $191 $284 $193 $303 reversed $113 $-1 #
vertex $-1 $295 $417 #
straight-curve $-1 0 -44.299571250008299 18.1770603185022 1 0 0 I I #
edge $-1 $196 -18.1770603185022 $292 18.1770603185022 $193 $418 forward 7 unknown #
edge $-1 $197 -18.1770603185022 $291 18.1770603185022 $194 $419 forward 7 unknown #
point $-1 68.982818079165014 -44.299571250008299 18.1770603185022 #
point $-1 68.982818079165014 44.299571250008299 18.1770603185022 #
face $-1 $-1 $212 $28 $-1 $420 reversed single #
loop $-1 $-1 $314 $199 #
plane-surface $-1 0 0 18.1770603185022 0 0 1 1 0 0 forward_v I I I I #
coedge $-1 $421 $202 $207 $319 forward $121 $-1 #
coedge $-1 $202 $421 $422 $423 reversed $121 $-1 #
coedge $-1 $204 $203 $202 $313 reversed $77 $-1 #
edge $-1 $424 -11.754290055108102 $324 -1.0912504716800928 $202 $425 forward 7 unknown #
coedge $-1 $422 $426 $204 $315 forward $308 $-1 #
edge $-1 $317 -68.982818079165014 $424 68.982818079165014 $314 $427 forward 7 unknown #
coedge $-1 $211 $205 $426 $428 reversed $212 $-1 #
vertex $-1 $206 $429 #
straight-curve $-1 68.982818079165014 -24.639322277299939 6.4227702633940975 0 0 1 I I #
edge $-1 $324 7.4045988954728799 $322 27.064847868181239 $310 $430 forward 7 unknown #
coedge $-1 $431 $208 $211 $326 reversed $200 $-1 #
coedge $-1 $208 $431 $421 $432 forward $200 $-1 #
vertex $-1 $209 $433 #
straight-curve $-1 0 -44.299571250008299 7.5140207350741903 1 0 0 I I #
vertex $-1 $319 $434 #
straight-curve $-1 0 -24.639322277299939 7.5140207350741903 1 0 0 I I #
edge $-1 $435 -18.1770603185022 $213 -7.5140207350741903 $211 $436 forward 7 unknown #
point $-1 68.982818079165014 -44.299571250008299 7.5140207350741903 #
point $-1 68.982818079165014 -24.639322277299939 7.5140207350741903 #
face $-1 $-1 $345 $29 $-1 $437 reversed single #
loop $-1 $-1 $222 $216 #
plane-surface $-1 -68.982818079165014 0 0 1 0 0 0 0 -1 forward_v I I I I #
coedge $-1 $438 $219 $348 $439 forward $129 $-1 #
coedge $-1 $219 $438 $336 $440 forward $129 $-1 #
edge $-1 $339 -68.982818079165014 $441 68.982818079165014 $219 $442 forward 7 unknown #
coedge $-1 $221 $220 $229 $350 reversed $81 $-1 #
coedge $-1 $443 $222 $333 $440 reversed $330 $-1 #
coedge $-1 $222 $443 $224 $341 forward $330 $-1 #
vertex $-1 $341 $444 #
vertex $-1 $223 $445 #
straight-curve $-1 -68.982818079165014 24.639322277299939 6.4227702633940975 0 0 1 I I #
edge $-1 $346 -27.064847868181239 $338 -7.4045988954728799 $337 $446 forward 7 unknown #
straight-curve $-1 0 24.639322277299939 7.5140207350741903 -1 0 0 I I #
coedge $-1 $447 $226 $443 $448 reversed $345 $-1 #
coedge $-1 $226 $447 $228 $349 forward $345 $-1 #
loop $-1 $-1 $226 $329 #
vertex $-1 $227 $449 #
straight-curve $-1 0 44.299571250008299 7.5140207350741903 -1 0 0 I I #
coedge $-1 $229 $228 $332 $439 reversed $217 $-1 #
edge $-1 $450 -18.1770603185022 $231 -7.5140207350741903 $228 $451 forward 7 unknown #
edge $-1 $441 -11.754290055108102 $230 -1.0912504716800928 $229 $452 forward 7 unknown #
point $-1 68.982818079165014 24.639322277299939 7.5140207350741903 #
point $-1 68.982818079165014 44.299571250008299 7.5140207350741903 #
loop $-1 $-1 $358 $233 #
plane-surface $-1 0 24.639322277299939 12.845540526788195 0 1 0 0 0 1 forward_v I I I I #
coedge $-1 $236 $363 $453 $454 forward $137 $-1 #
coedge $-1 $238 $237 $236 $357 reversed $85 $-1 #
edge $-1 $455 -14.518834312814853 $364 -5.7221416161553336 $236 $456 forward 7 unknown #
coedge $-1 $453 $457 $238 $359 forward $353 $-1 #
edge $-1 $361 -96.626624134007841 $455 -87.22781514452835 $358 $458 forward 7 unknown #
coedge $-1 $244 $239 $457 $459 forward $234 $-1 #
vertex $-1 $459 $460 #
straight-curve $-1 68.982818079165014 10.120487964485086 12.520715797288496 0 1 0 I I #
coedge $-1 $355 $241 $244 $367 forward $137 $-1 #
vertex $-1 $242 $461 #
straight-curve $-1 20.914178119454192 15.84262958064042 18.1770603185022 1 0 0 I I #
straight-curve $-1 -41.201437331048197 15.84262958064042 95.55050936724507 -0.79863550430605224 0 0.6018150307709319 I I #
edge $-1 $245 15.84262958064042 $462 24.639322277299939 $244 $463 forward 7 unknown #
point $-1 68.982818079165014 15.84262958064042 18.1770603185022 #
point $-1 68.982818079165014 15.84262958064042 12.520715797288489 #
edge $-1 $464 1 $464 0 $248 $-1 forward 7 unknown #
vertex $-1 $249 $465 #
ellipse-curve $-1 62.755408960810918 20.240975928970173 12.065383987669112 0.6018150307709319 0 0.79863550430605224 1.1979532564590785 0 -0.90272254615639791 1 I I #
point $-1 66.42766005702947 20.240975928970173 14.44616551173894 #
plane-surface $-1 0 0 18.1770603185022 0 0 1 1 0 0 forward_v I I I I #
coedge $-1 $385 $384 $377 $466 forward $253 $-1 #
coedge $-1 $377 $255 $257 $381 reversed $152 $-1 #
coedge $-1 $255 $376 $375 $466 reversed $152 $-1 #
coedge $-1 $263 $258 $255 $379 forward $264 $-1 #
edge $-1 $382 -11.534276535371781 $467 -5.0755104336520844 $378 $468 forward 7 unknown #
coedge $-1 $257 $256 $385 $469 reversed $94 $-1 #
edge $-1 $470 -1.7754109250068268e-014 $382 7.8846975815552458 $376 $471 forward 7 unknown #
vertex $-1 $259 $472 #
straight-curve $-1 -62.524051977445311 -4.3679876008355123 18.1770603185022 0 1 0 I I #
coedge $-1 $375 $260 $263 $389 reversed $253 $-1 #
coedge $-1 $260 $375 $380 $469 forward $253 $-1 #
vertex $-1 $261 $473 #
straight-curve $-1 -68.982818079165014 -16.034084153864889 63.33470785314497 0 0 1 I I #
straight-curve $-1 -68.982818079165 -16.034084153864889 13.654583519682788 -0.81915203911291934 0 -0.57357644374324357 I I #
edge $-1 $467 1.4378662494771621 $265 16.034084153864889 $384 $474 forward 7 unknown #
point $-1 -68.982818079165014 -16.034084153864889 18.1770603185022 #
point $-1 -62.524051977445318 -16.034084153864889 18.1770603185022 #
edge $-1 $475 1 $475 0 $268 $-1 forward 7 unknown #
vertex $-1 $269 $476 #
ellipse-curve $-1 -64.444976347517652 -13.11484057298734 14.047149298112481 -0.57357644374324357 0 0.81915203911291934 0.81915203911291934 0 0.57357644374324357 1 I I #
point $-1 -64.934282989192226 -13.11484057298734 16.489398362835722 #
edge $-1 $477 1 $477 0 $272 $-1 forward 7 unknown #
vertex $-1 $273 $478 #
ellipse-curve $-1 -64.444976347517652 -8.7359752016710246 14.047149298112481 -0.57357644374324357 0 0.81915203911291934 0.81915203911291934 0 0.57357644374324357 1 I I #
point $-1 -64.934282989192226 -8.7359752016710246 16.489398362835722 #
edge $-1 $479 1 $479 0 $276 $-1 forward 7 unknown #
vertex $-1 $277 $480 #
ellipse-curve $-1 -64.444976347517652 -4.3571098303547089 14.047149298112481 -0.57357644374324357 0 0.81915203911291934 0.81915203911291934 0 0.57357644374324357 1 I I #
point $-1 -64.934282989192226 -4.3571098303547089 16.489398362835722 #
plane-surface $-1 68.982818079165014 0 0 -1 0 0 0 0 1 forward_v I I I I #
coedge $-1 $285 $283 $287 $409 reversed $181 $-1 #
edge $-1 $298 -18.1770603185022 $411 18.1770603185022 $297 $481 forward 7 unknown #
vertex $-1 $409 $482 #
straight-curve $-1 -68.982818079165014 -44.299571250008299 0 0 0 -1 I I #
edge $-1 $407 -44.299571250008299 $411 44.299571250008299 $405 $483 forward 7 unknown #
straight-curve $-1 0 -44.299571250008299 -18.1770603185022 -1 0 0 I I #
vertex $-1 $290 $484 #
straight-curve $-1 0 44.299571250008299 -18.1770603185022 1 0 0 I I #
point $-1 68.982818079165014 44.299571250008299 -18.1770603185022 #
point $-1 68.982818079165014 -44.299571250008299 -18.1770603185022 #
straight-curve $-1 -68.982818079165014 0 18.1770603185022 0 -1 0 I I #
point $-1 -68.982818079165014 44.299571250008299 18.1770603185022 #
point $-1 -68.982818079165014 -44.299571250008299 18.1770603185022 #
straight-curve $-1 68.982818079165014 -44.299571250008299 0 0 0 -1 I I #
straight-curve $-1 68.982818079165014 44.299571250008299 0 0 0 -1 I I #
plane-surface $-1 68.982818079165014 0 0 -1 0 0 0 0 1 forward_v I I I I #
coedge $-1 $311 $310 $321 $432 reversed $121 $-1 #
coedge $-1 $485 $314 $311 $423 forward $308 $-1 #
edge $-1 $424 24.639322277299939 $486 44.299571250008299 $311 $487 forward 7 unknown #
vertex $-1 $423 $488 #
straight-curve $-1 -68.982818079165014 -24.639322277299939 6.4227702633940975 0 0 -1 I I #
coedge $-1 $314 $485 $316 $428 forward $308 $-1 #
straight-curve $-1 0 -24.639322277299939 18.1770603185022 -1 0 0 I I #
edge $-1 $435 -44.299571250008299 $317 -24.639322277299939 $316 $489 forward 7 unknown #
point $-1 68.982818079165014 -24.639322277299939 18.1770603185022 #
straight-curve $-1 -68.982818079165014 -17.23472338182706 7.5140207350741903 0 -1 0 I I #
coedge $-1 $321 $320 $485 $490 reversed $200 $-1 #
edge $-1 $486 -18.1770603185022 $322 -7.5140207350741903 $421 $491 forward 7 unknown #
point $-1 -68.982818079165014 -44.299571250008299 7.5140207350741903 #
point $-1 -68.982818079165014 -24.639322277299939 7.5140207350741903 #
vertex $-1 $428 $492 #
straight-curve $-1 68.982818079165014 -44.299571250008299 0 0 0 -1 I I #
plane-surface $-1 0 44.299571250008299 0 0 -1 0 0 0 -1 forward_v I I I I #
coedge $-1 $333 $332 $447 $493 forward $129 $-1 #
edge $-1 $441 24.639322277299939 $450 44.299571250008299 $348 $494 forward 7 unknown #
edge $-1 $495 -44.299571250008299 $339 -24.639322277299939 $336 $496 forward 7 unknown #
vertex $-1 $439 $497 #
straight-curve $-1 0 24.639322277299939 18.1770603185022 1 0 0 I I #
coedge $-1 $337 $336 $343 $448 forward $330 $-1 #
point $-1 -68.982818079165014 24.639322277299939 7.5140207350741903 #
point $-1 -68.982818079165014 24.639322277299939 18.1770603185022 #
straight-curve $-1 -68.982818079165014 17.23472338182706 7.5140207350741903 0 -1 0 I I #
coedge $-1 $344 $343 $438 $493 reversed $345 $-1 #
edge $-1 $495 -18.1770603185022 $346 -7.5140207350741903 $343 $498 forward 7 unknown #
point $-1 -68.982818079165014 44.299571250008299 7.5140207350741903 #
vertex $-1 $439 $499 #
straight-curve $-1 68.982818079165014 44.299571250008299 0 0 0 -1 I I #
straight-curve $-1 68.982818079165014 24.639322277299939 6.4227702633940975 0 0 -1 I I #
coedge $-1 $457 $358 $355 $454 reversed $353 $-1 #
edge $-1 $462 -68.982818079165014 $455 -61.476595521975817 $355 $500 forward 7 unknown #
vertex $-1 $359 $501 #
straight-curve $-1 61.476595521975817 10.120487964485086 18.1770603185022 0 -1 0 I I #
coedge $-1 $358 $453 $360 $459 reversed $353 $-1 #
straight-curve $-1 -8.1866346154896803 24.639322277299939 70.672070573787693 -0.79863550430605224 0 0.6018150307709319 I I #
edge $-1 $361 6.0979455338943893 $462 11.754290055108102 $360 $502 forward 7 unknown #
point $-1 68.982818079165014 24.639322277299939 12.520715797288487 #
point $-1 61.476595521975824 15.84262958064042 18.177060318502186 #
vertex $-1 $454 $503 #
straight-curve $-1 68.982818079165014 0 18.1770603185022 0 1 0 I I #
vertex $-1 $370 $504 #
point $-1 63.953362217269998 20.240975928970173 11.162661441512713 #
edge $-1 $467 45.15764753464277 $470 49.680124333462189 $375 $505 forward 7 unknown #
vertex $-1 $389 $506 #
straight-curve $-1 -74.058328512817098 -1.4378662494771621 18.1770603185022 -1 0 0 I I #
edge $-1 $470 -2.9301213513583502 $386 11.666096553029377 $385 $507 forward 7 unknown #
vertex $-1 $469 $508 #
straight-curve $-1 -68.982818079165 -1.4378662494771621 13.654583519682788 0.81915203911291934 0 0.57357644374324357 I I #
point $-1 -62.524051977445318 -1.4378662494771621 18.1770603185022 #
point $-1 -68.982818079165014 -16.034084153864889 13.654583519682777 #
straight-curve $-1 -68.982818079165014 0 18.1770603185022 0 -1 0 I I #
vertex $-1 $392 $509 #
point $-1 -63.625824308404738 -13.11484057298734 14.620725741855725 #
vertex $-1 $396 $510 #
point $-1 -63.625824308404738 -8.7359752016710246 14.620725741855725 #
vertex $-1 $400 $511 #
point $-1 -63.625824308404738 -4.3571098303547089 14.620725741855725 #
straight-curve $-1 -68.982818079165014 44.299571250008299 0 0 0 -1 I I #
point $-1 -68.982818079165014 -44.299571250008299 -18.1770603185022 #
straight-curve $-1 -68.982818079165014 0 -18.1770603185022 0 1 0 I I #
point $-1 -68.982818079165014 44.299571250008299 -18.1770603185022 #
coedge $-1 $426 $422 $431 $490 forward $308 $-1 #
vertex $-1 $423 $512 #
straight-curve $-1 -68.982818079165014 0 18.1770603185022 0 -1 0 I I #
point $-1 -68.982818079165014 -24.639322277299939 18.1770603185022 #
straight-curve $-1 68.982818079165014 0 18.1770603185022 0 1 0 I I #
edge $-1 $486 -68.982818079165014 $435 68.982818079165014 $431 $513 forward 7 unknown #
straight-curve $-1 -68.982818079165014 -44.299571250008299 0 0 0 -1 I I #
point $-1 68.982818079165014 -44.299571250008299 18.1770603185022 #
edge $-1 $450 -68.982818079165014 $495 68.982818079165014 $447 $514 forward 7 unknown #
straight-curve $-1 68.982818079165014 0 18.1770603185022 0 1 0 I I #
vertex $-1 $493 $515 #
straight-curve $-1 -68.982818079165014 0 18.1770603185022 0 -1 0 I I #
point $-1 68.982818079165014 24.639322277299939 18.1770603185022 #
straight-curve $-1 -68.982818079165014 44.299571250008299 0 0 0 -1 I I #
point $-1 68.982818079165014 44.299571250008299 18.1770603185022 #
straight-curve $-1 0 24.639322277299939 18.1770603185022 -1 0 0 I I #
point $-1 61.476595521975817 24.639322277299939 18.1770603185022 #
straight-curve $-1 68.982818079165014 24.639322277299939 6.4227702633940975 0 0 1 I I #
point $-1 68.982818079165014 24.639322277299939 18.1770603185022 #
point $-1 61.852686414654521 20.240975928970173 10.867430731210032 #
straight-curve $-1 -68.982818079165014 -1.4378662494771621 63.33470785314497 0 0 -1 I I #
point $-1 -68.982818079165014 -1.4378662494771621 18.1770603185022 #
straight-curve $-1 -68.982818079165014 -4.3679876008355123 13.654583519682784 0 -1 0 I I #
point $-1 -68.982818079165014 -1.4378662494771621 13.654583519682777 #
point $-1 -63.87139990377441 -13.11484057298734 13.227997258999563 #
point $-1 -63.87139990377441 -8.7359752016710246 13.227997258999563 #
point $-1 -63.87139990377441 -4.3571098303547089 13.227997258999563 #
point $-1 -68.982818079165014 -44.299571250008299 18.1770603185022 #
straight-curve $-1 0 -44.299571250008299 18.1770603185022 1 0 0 I I #
straight-curve $-1 0 44.299571250008299 18.1770603185022 -1 0 0 I I #
point $-1 -68.982818079165014 44.299571250008299 18.1770603185022 #
End-of-ACIS-data 