500 0 2 0           
7 Unknown 11 ACIS 5.0 NT 24 Fri Mar 26 15:40:06 1999 
-1 9.9999999999999995e-007 1e-010 
body $-1 $2 $-1 $3 #
body $-1 $4 $-1 $5 #
lump $-1 $-1 $6 $0 #
transform $-1 1 0 0 0 1 0 0 0 1 53.446455275124364 24.729526588250845 7.4733479151230311 1 rotate no_reflect no_shear #
lump $-1 $-1 $7 $1 #
transform $-1 1 0 0 0 1 0 0 0 1 53.446455275124364 24.729526588250845 7.4733479151230311 1 rotate no_reflect no_shear #
shell $-1 $-1 $-1 $8 $-1 $2 #
shell $-1 $-1 $-1 $9 $-1 $4 #
face $-1 $10 $11 $6 $-1 $12 forward single #
face $-1 $13 $14 $7 $-1 $15 reversed single #
face $-1 $16 $17 $6 $-1 $18 reversed single #
loop $-1 $-1 $19 $8 #
plane-surface $-1 0 0 7.4733479151230311 0 0 1 1 0 0 forward_v I I I I #
face $-1 $20 $21 $7 $-1 $22 reversed single #
loop $-1 $-1 $23 $9 #
plane-surface $-1 0 -27.885684692014198 4.4733479151230311 0 0 1 1 0 0 forward_v I I I I #
face $-1 $24 $25 $6 $-1 $26 reversed single #
loop $-1 $-1 $27 $10 #
plane-surface $-1 0 0 -7.4733479151230311 0 0 1 1 0 0 forward_v I I I I #
coedge $-1 $28 $29 $30 $31 forward $11 $-1 #
face $-1 $32 $33 $7 $-1 $34 forward single #
loop $-1 $-1 $35 $13 #
plane-surface $-1 0 -31.041842795777551 5.9733479151230311 0 1 0 0 0 1 forward_v I I I I #
coedge $-1 $36 $37 $38 $39 forward $14 $-1 #
face $-1 $40 $41 $6 $-1 $42 reversed single #
loop $-1 $-1 $43 $16 #
plane-surface $-1 0 -24.729526588250845 0 0 1 0 0 0 1 forward_v I I I I #
coedge $-1 $44 $45 $46 $47 forward $17 $-1 #
coedge $-1 $48 $19 $49 $50 forward $11 $-1 #
coedge $-1 $19 $48 $51 $52 forward $11 $-1 #
coedge $-1 $53 $54 $19 $31 reversed $55 $-1 #
edge $-1 $56 -24.729526588250845 $57 24.729526588250845 $30 $58 forward 7 unknown #
face $-1 $59 $60 $7 $-1 $61 reversed single #
loop $-1 $-1 $62 $20 #
plane-surface $-1 0 0 7.4733479151230311 0 0 1 1 0 0 forward_v I I I I #
coedge $-1 $63 $64 $65 $66 forward $21 $-1 #
coedge $-1 $67 $23 $63 $68 forward $14 $-1 #
coedge $-1 $23 $67 $69 $70 reversed $14 $-1 #
coedge $-1 $71 $72 $23 $39 reversed $73 $-1 #
edge $-1 $74 -3.156158103763353 $75 3.156158103763353 $38 $76 forward 7 unknown #
face $-1 $77 $78 $6 $-1 $79 reversed single #
loop $-1 $-1 $80 $24 #
plane-surface $-1 -53.446455275124364 0 0 1 0 0 0 0 -1 forward_v I I I I #
coedge $-1 $81 $51 $82 $83 forward $25 $-1 #
coedge $-1 $84 $27 $81 $85 forward $17 $-1 #
coedge $-1 $27 $84 $86 $87 forward $17 $-1 #
coedge $-1 $54 $53 $27 $47 reversed $55 $-1 #
edge $-1 $88 -24.729526588250845 $89 24.729526588250845 $46 $90 forward 7 unknown #
coedge $-1 $29 $28 $91 $92 forward $11 $-1 #
coedge $-1 $93 $94 $28 $50 reversed $78 $-1 #
edge $-1 $57 -53.446455275124364 $95 53.446455275124364 $49 $96 forward 7 unknown #
coedge $-1 $43 $97 $29 $52 reversed $25 $-1 #
edge $-1 $98 -53.446455275124364 $56 53.446455275124364 $51 $99 forward 7 unknown #
coedge $-1 $46 $30 $97 $100 forward $55 $-1 #
coedge $-1 $30 $46 $93 $101 reversed $55 $-1 #
loop $-1 $-1 $53 $77 #
vertex $-1 $31 $102 #
vertex $-1 $31 $103 #
straight-curve $-1 53.446455275124364 0 7.4733479151230311 0 1 0 I I #
face $-1 $104 $105 $7 $-1 $106 reversed single #
loop $-1 $-1 $107 $32 #
plane-surface $-1 0 0 -7.4733479151230311 0 0 1 1 0 0 forward_v I I I I #
coedge $-1 $108 $109 $110 $111 forward $33 $-1 #
coedge $-1 $112 $35 $36 $68 reversed $21 $-1 #
coedge $-1 $35 $112 $109 $113 reversed $21 $-1 #
coedge $-1 $114 $115 $35 $66 reversed $116 $-1 #
edge $-1 $117 -1.5 $118 1.5 $65 $119 forward 7 unknown #
coedge $-1 $37 $36 $115 $120 forward $14 $-1 #
edge $-1 $75 -53.446455275124364 $118 53.446455275124364 $63 $121 forward 7 unknown #
coedge $-1 $122 $123 $37 $70 forward $105 $-1 #
edge $-1 $74 -53.446455275124364 $124 53.446455275124364 $69 $125 forward 7 unknown #
coedge $-1 $126 $38 $123 $127 forward $73 $-1 #
coedge $-1 $38 $110 $112 $128 forward $73 $-1 #
loop $-1 $-1 $71 $129 #
vertex $-1 $127 $130 #
vertex $-1 $128 $131 #
straight-curve $-1 53.446455275124364 -27.885684692014198 4.4733479151230311 0 -1 0 I I #
face $-1 $-1 $55 $6 $-1 $132 reversed single #
loop $-1 $-1 $93 $40 #
plane-surface $-1 0 24.729526588250845 0 0 -1 0 0 0 -1 forward_v I I I I #
coedge $-1 $133 $91 $94 $134 forward $41 $-1 #
coedge $-1 $97 $43 $44 $85 reversed $25 $-1 #
coedge $-1 $91 $133 $43 $83 reversed $41 $-1 #
edge $-1 $98 -7.4733479151230311 $135 7.4733479151230311 $82 $136 forward 7 unknown #
coedge $-1 $45 $44 $133 $137 forward $17 $-1 #
edge $-1 $89 -53.446455275124364 $135 53.446455275124364 $81 $138 forward 7 unknown #
coedge $-1 $94 $93 $45 $87 reversed $78 $-1 #
edge $-1 $139 -53.446455275124364 $88 53.446455275124364 $86 $140 forward 7 unknown #
vertex $-1 $47 $141 #
vertex $-1 $100 $142 #
straight-curve $-1 53.446455275124364 0 -7.4733479151230311 0 -1 0 I I #
coedge $-1 $80 $82 $48 $92 reversed $41 $-1 #
edge $-1 $95 -24.729526588250845 $98 24.729526588250845 $91 $143 forward 7 unknown #
coedge $-1 $86 $49 $54 $101 forward $78 $-1 #
coedge $-1 $49 $86 $80 $134 reversed $78 $-1 #
vertex $-1 $50 $144 #
straight-curve $-1 0 24.729526588250845 7.4733479151230311 -1 0 0 I I #
coedge $-1 $51 $81 $53 $100 reversed $25 $-1 #
vertex $-1 $92 $145 #
straight-curve $-1 0 -24.729526588250845 7.4733479151230311 1 0 0 I I #
edge $-1 $56 -7.4733479151230311 $89 7.4733479151230311 $53 $146 forward 7 unknown #
edge $-1 $57 -7.4733479151230311 $88 7.4733479151230311 $54 $147 forward 7 unknown #
point $-1 53.446455275124364 -24.729526588250845 7.4733479151230311 #
point $-1 53.446455275124364 24.729526588250845 7.4733479151230311 #
face $-1 $148 $116 $7 $-1 $149 reversed single #
loop $-1 $-1 $69 $59 #
plane-surface $-1 0 -24.729526588250845 0 0 1 0 0 0 1 forward_v I I I I #
coedge $-1 $150 $151 $126 $152 forward $60 $-1 #
coedge $-1 $153 $62 $154 $155 forward $33 $-1 #
coedge $-1 $62 $153 $64 $113 forward $33 $-1 #
coedge $-1 $72 $156 $62 $111 reversed $73 $-1 #
edge $-1 $157 -31.041842795777551 $158 24.729526588250845 $110 $159 forward 7 unknown #
coedge $-1 $64 $63 $72 $128 reversed $21 $-1 #
edge $-1 $117 -53.446455275124364 $157 53.446455275124364 $64 $160 forward 7 unknown #
coedge $-1 $161 $65 $153 $162 reversed $116 $-1 #
coedge $-1 $65 $163 $67 $120 reversed $116 $-1 #
loop $-1 $-1 $161 $104 #
vertex $-1 $162 $164 #
vertex $-1 $120 $165 #
straight-curve $-1 -53.446455275124364 -31.041842795777551 5.9733479151230311 0 0 -1 I I #
edge $-1 $118 -3.156158103763353 $124 3.156158103763353 $115 $166 forward 7 unknown #
straight-curve $-1 0 -31.041842795777551 4.4733479151230311 -1 0 0 I I #
coedge $-1 $167 $69 $163 $168 forward $105 $-1 #
coedge $-1 $69 $167 $71 $127 reversed $105 $-1 #
vertex $-1 $168 $169 #
straight-curve $-1 0 -24.729526588250845 4.4733479151230311 -1 0 0 I I #
coedge $-1 $156 $71 $107 $152 reversed $73 $-1 #
edge $-1 $74 -4.4733479151230311 $170 7.4733479151230311 $71 $171 forward 7 unknown #
edge $-1 $157 -1.5 $75 1.5 $72 $172 forward 7 unknown #
face $-1 $-1 $73 $7 $-1 $173 reversed single #
point $-1 53.446455275124364 -24.729526588250845 4.4733479151230311 #
point $-1 53.446455275124364 -31.041842795777551 4.4733479151230311 #
plane-surface $-1 53.446455275124364 0 0 -1 0 0 0 0 1 forward_v I I I I #
coedge $-1 $82 $80 $84 $137 reversed $41 $-1 #
edge $-1 $95 -7.4733479151230311 $139 7.4733479151230311 $94 $174 forward 7 unknown #
vertex $-1 $137 $175 #
straight-curve $-1 -53.446455275124364 -24.729526588250845 0 0 0 -1 I I #
edge $-1 $135 -24.729526588250845 $139 24.729526588250845 $133 $176 forward 7 unknown #
straight-curve $-1 0 -24.729526588250845 -7.4733479151230311 -1 0 0 I I #
vertex $-1 $87 $177 #
straight-curve $-1 0 24.729526588250845 -7.4733479151230311 1 0 0 I I #
point $-1 53.446455275124364 24.729526588250845 -7.4733479151230311 #
point $-1 53.446455275124364 -24.729526588250845 -7.4733479151230311 #
straight-curve $-1 -53.446455275124364 0 7.4733479151230311 0 -1 0 I I #
point $-1 -53.446455275124364 24.729526588250845 7.4733479151230311 #
point $-1 -53.446455275124364 -24.729526588250845 7.4733479151230311 #
straight-curve $-1 53.446455275124364 -24.729526588250845 0 0 0 -1 I I #
straight-curve $-1 53.446455275124364 24.729526588250845 0 0 0 -1 I I #
face $-1 $129 $178 $7 $-1 $179 reversed single #
plane-surface $-1 -53.446455275124364 0 0 1 0 0 0 0 -1 forward_v I I I I #
coedge $-1 $180 $107 $167 $181 forward $60 $-1 #
coedge $-1 $107 $180 $182 $183 forward $60 $-1 #
edge $-1 $184 -24.729526588250845 $170 24.729526588250845 $126 $185 forward 7 unknown #
coedge $-1 $109 $108 $114 $162 forward $33 $-1 #
coedge $-1 $186 $187 $108 $155 reversed $178 $-1 #
edge $-1 $158 -53.446455275124364 $188 53.446455275124364 $154 $189 forward 7 unknown #
coedge $-1 $110 $126 $186 $190 reversed $73 $-1 #
vertex $-1 $111 $191 #
vertex $-1 $111 $192 #
straight-curve $-1 53.446455275124364 0 7.4733479151230311 0 1 0 I I #
straight-curve $-1 0 -31.041842795777551 7.4733479151230311 1 0 0 I I #
coedge $-1 $193 $114 $187 $194 forward $116 $-1 #
edge $-1 $188 -24.729526588250845 $117 31.041842795777551 $114 $195 forward 7 unknown #
coedge $-1 $115 $193 $122 $168 reversed $116 $-1 #
point $-1 -53.446455275124364 -31.041842795777551 7.4733479151230311 #
point $-1 -53.446455275124364 -31.041842795777551 4.4733479151230311 #
straight-curve $-1 -53.446455275124364 -27.885684692014198 4.4733479151230311 0 1 0 I I #
coedge $-1 $123 $122 $150 $181 reversed $105 $-1 #
edge $-1 $124 -4.4733479151230311 $196 7.4733479151230311 $163 $197 forward 7 unknown #
point $-1 -53.446455275124364 -24.729526588250845 4.4733479151230311 #
vertex $-1 $127 $198 #
straight-curve $-1 53.446455275124364 -24.729526588250845 0 0 0 -1 I I #
straight-curve $-1 53.446455275124364 -31.041842795777551 5.9733479151230311 0 0 -1 I I #
plane-surface $-1 53.446455275124364 0 0 -1 0 0 0 0 1 forward_v I I I I #
straight-curve $-1 -53.446455275124364 24.729526588250845 0 0 0 -1 I I #
point $-1 -53.446455275124364 -24.729526588250845 -7.4733479151230311 #
straight-curve $-1 -53.446455275124364 0 -7.4733479151230311 0 1 0 I I #
point $-1 -53.446455275124364 24.729526588250845 -7.4733479151230311 #
loop $-1 $-1 $186 $148 #
plane-surface $-1 0 24.729526588250845 0 0 -1 0 0 0 -1 forward_v I I I I #
coedge $-1 $151 $150 $193 $199 forward $60 $-1 #
edge $-1 $170 -53.446455275124364 $196 53.446455275124364 $167 $200 forward 7 unknown #
coedge $-1 $187 $186 $151 $183 reversed $178 $-1 #
edge $-1 $201 -53.446455275124364 $184 53.446455275124364 $182 $202 forward 7 unknown #
vertex $-1 $152 $203 #
straight-curve $-1 53.446455275124364 0 -7.4733479151230311 0 -1 0 I I #
coedge $-1 $182 $154 $156 $190 forward $178 $-1 #
coedge $-1 $154 $182 $161 $194 reversed $178 $-1 #
vertex $-1 $155 $204 #
straight-curve $-1 0 24.729526588250845 7.4733479151230311 -1 0 0 I I #
edge $-1 $158 -7.4733479151230311 $184 7.4733479151230311 $156 $205 forward 7 unknown #
point $-1 53.446455275124364 -31.041842795777551 7.4733479151230311 #
point $-1 53.446455275124364 24.729526588250845 7.4733479151230311 #
coedge $-1 $163 $161 $180 $199 reversed $116 $-1 #
edge $-1 $188 -7.4733479151230311 $201 7.4733479151230311 $187 $206 forward 7 unknown #
straight-curve $-1 -53.446455275124364 0 7.4733479151230311 0 -1 0 I I #
vertex $-1 $199 $207 #
straight-curve $-1 -53.446455275124364 -24.729526588250845 0 0 0 -1 I I #
point $-1 53.446455275124364 -24.729526588250845 -7.4733479151230311 #
edge $-1 $196 -24.729526588250845 $201 24.729526588250845 $193 $208 forward 7 unknown #
straight-curve $-1 0 -24.729526588250845 -7.4733479151230311 -1 0 0 I I #
vertex $-1 $183 $209 #
straight-curve $-1 0 24.729526588250845 -7.4733479151230311 1 0 0 I I #
point $-1 53.446455275124364 24.729526588250845 -7.4733479151230311 #
point $-1 -53.446455275124364 24.729526588250845 7.4733479151230311 #
straight-curve $-1 53.446455275124364 24.729526588250845 0 0 0 -1 I I #
straight-curve $-1 -53.446455275124364 24.729526588250845 0 0 0 -1 I I #
point $-1 -53.446455275124364 -24.729526588250845 -7.4733479151230311 #
straight-curve $-1 -53.446455275124364 0 -7.4733479151230311 0 1 0 I I #
point $-1 -53.446455275124364 24.729526588250845 -7.4733479151230311 #
End-of-ACIS-data 