500 0 7 0           
7 Unknown 11 ACIS 5.0 NT 24 Thu Mar 25 19:03:53 1999 
-1 9.9999999999999995e-007 1e-010 
body $-1 $7 $-1 $8 #
body $-1 $9 $-1 $10 #
body $-1 $11 $-1 $12 #
body $-1 $13 $-1 $14 #
body $-1 $15 $-1 $16 #
body $-1 $17 $-1 $18 #
body $-1 $19 $-1 $20 #
lump $-1 $-1 $21 $0 #
transform $-1 1 0 0 0 1 0 0 0 1 77.806329538865327 32.542265219009607 10.443974586310219 1 rotate no_reflect no_shear #
lump $-1 $-1 $22 $1 #
transform $-1 1 0 0 0 1 0 0 0 1 77.806329538865327 32.542265219009607 10.443974586310219 1 rotate no_reflect no_shear #
lump $-1 $-1 $23 $2 #
transform $-1 1 0 0 0 1 0 0 0 1 77.806329538865327 32.542265219009607 10.443974586310219 1 rotate no_reflect no_shear #
lump $-1 $-1 $24 $3 #
transform $-1 1 0 0 0 1 0 0 0 1 77.806329538865327 32.542265219009607 10.443974586310219 1 rotate no_reflect no_shear #
lump $-1 $-1 $25 $4 #
transform $-1 1 0 0 0 1 0 0 0 1 77.806329538865327 32.542265219009607 10.443974586310219 1 rotate no_reflect no_shear #
lump $-1 $-1 $26 $5 #
transform $-1 1 0 0 0 1 0 0 0 1 77.806329538865327 32.542265219009607 10.443974586310219 1 rotate no_reflect no_shear #
lump $-1 $-1 $27 $6 #
transform $-1 1 0 0 0 1 0 0 0 1 77.806329538865327 32.542265219009607 10.443974586310219 1 rotate no_reflect no_shear #
shell $-1 $-1 $-1 $28 $-1 $7 #
shell $-1 $-1 $-1 $29 $-1 $9 #
shell $-1 $-1 $-1 $30 $-1 $11 #
shell $-1 $-1 $-1 $31 $-1 $13 #
shell $-1 $-1 $-1 $32 $-1 $15 #
shell $-1 $-1 $-1 $33 $-1 $17 #
shell $-1 $-1 $-1 $34 $-1 $19 #
face $-1 $35 $36 $21 $-1 $37 forward single #
face $-1 $38 $39 $22 $-1 $40 reversed single #
face $-1 $41 $42 $23 $-1 $43 reversed single #
face $-1 $44 $45 $24 $-1 $46 forward single #
face $-1 $47 $48 $25 $-1 $49 forward single #
face $-1 $50 $51 $26 $-1 $52 reversed single #
face $-1 $53 $54 $27 $-1 $55 forward single #
face $-1 $56 $57 $21 $-1 $58 reversed single #
loop $-1 $-1 $59 $28 #
plane-surface $-1 0 0 10.443974586310219 0 0 1 1 0 0 forward_v I I I I #
face $-1 $60 $61 $22 $-1 $62 reversed single #
loop $-1 $-1 $63 $29 #
plane-surface $-1 -73.20449447305316 -16.585713061815497 0 0 1 0 0 0 1 forward_v I I I I #
face $-1 $64 $65 $23 $-1 $66 reversed single #
loop $-1 $-1 $67 $30 #
plane-surface $-1 40.046152388541827 107.28533789782622 154.94673933794147 1 0 0 0 -0.75470958851134928 -0.65605901945558964 forward_v I I I I #
face $-1 $68 $69 $24 $-1 $70 forward single #
loop $-1 $71 $72 $31 #
cone-surface $-1 50.834774431491383 28.192711278217921 5.843417051172751 0 -0.75470958851134928 -0.65605901945558964 1 0 0 1 I I 0 1 1 forward I I I I #
face $-1 $73 $74 $25 $-1 $75 forward single #
loop $-1 $76 $77 $32 #
cone-surface $-1 67.017707495915744 28.192711278217921 5.843417051172751 0 -0.75470958851134928 -0.65605901945558964 1 0 0 1 I I 0 1 1 forward I I I I #
face $-1 $78 $79 $26 $-1 $80 reversed single #
loop $-1 $-1 $81 $33 #
plane-surface $-1 -38.025535042639746 -155.16671525408955 99.659036688939437 -1 0 0 0 -0.78801076186113728 0.61566146476048833 forward_v I I I I #
face $-1 $82 $83 $27 $-1 $84 forward single #
loop $-1 $85 $86 $34 #
cone-surface $-1 -53.314097224940369 -29.081506520466512 6.4564924487274951 0 0.78801076186113728 -0.61566146476048833 1.5 0 0 1 I I 0 1 1.5 forward I I I I #
face $-1 $87 $88 $21 $-1 $89 reversed single #
loop $-1 $-1 $90 $35 #
plane-surface $-1 0 0 -10.443974586310219 0 0 1 1 0 0 forward_v I I I I #
coedge $-1 $91 $92 $93 $94 forward $36 $-1 #
face $-1 $95 $96 $22 $-1 $97 reversed single #
loop $-1 $-1 $98 $38 #
plane-surface $-1 -73.20449447305316 -11.65431604638917 0 0 -1 0 0 0 -1 forward_v I I I I #
coedge $-1 $99 $100 $101 $102 reversed $39 $-1 #
face $-1 $103 $104 $23 $-1 $105 forward single #
loop $-1 $-1 $106 $41 #
plane-surface $-1 58.926240963703577 -10.157028001884754 52.855650808528537 0 0.75470958851134928 0.65605901945558964 1 0 0 forward_v I I I I #
coedge $-1 $107 $108 $109 $110 reversed $42 $-1 #
face $-1 $-1 $111 $24 $-1 $112 forward single #
loop $-1 $113 $114 $44 #
cone-surface $-1 50.834774431491383 26.381495789715252 4.268951487864264 0 -0.75470958851134928 -0.65605901945558964 0.5 0 0 1 I I -0.70710678118654746 0.70710678118654746 0.5 forward I I I I #
loop $-1 $-1 $115 $31 #
coedge $-1 $72 $72 $116 $117 reversed $45 $-1 #
face $-1 $-1 $118 $25 $-1 $119 forward single #
loop $-1 $120 $121 $47 #
cone-surface $-1 67.017707495915744 26.381495789715252 4.268951487864264 0 -0.75470958851134928 -0.65605901945558964 0.5 0 0 1 I I -0.70710678118654746 0.70710678118654746 0.5 forward I I I I #
loop $-1 $-1 $122 $32 #
coedge $-1 $77 $77 $123 $124 reversed $48 $-1 #
face $-1 $125 $126 $26 $-1 $127 reversed single #
loop $-1 $-1 $128 $50 #
plane-surface $-1 -53.314097224940369 -32.542265219009593 3.8543190658692765 0 -0.78801076186113728 0.61566146476048833 1 0 0 forward_v I I I I #
coedge $-1 $129 $130 $131 $132 reversed $51 $-1 #
face $-1 $-1 $133 $27 $-1 $134 forward single #
loop $-1 $135 $136 $53 #
cone-surface $-1 -53.314097224940369 -27.603941250263311 5.3020919727948677 0 0.78801076186113728 -0.61566146476048833 0.75 0 0 1 I I -0.70710678118654757 0.70710678118654757 0.75 forward I I I I #
loop $-1 $-1 $137 $34 #
coedge $-1 $86 $86 $138 $139 reversed $54 $-1 #
face $-1 $140 $141 $21 $-1 $142 reversed single #
loop $-1 $-1 $143 $56 #
plane-surface $-1 0 -32.542265219009607 0 0 1 0 0 0 1 forward_v I I I I #
coedge $-1 $144 $145 $146 $147 forward $57 $-1 #
coedge $-1 $148 $59 $149 $150 forward $36 $-1 #
coedge $-1 $59 $148 $151 $152 forward $36 $-1 #
coedge $-1 $153 $154 $59 $94 reversed $155 $-1 #
edge $-1 $156 -32.542265219009607 $157 32.542265219009607 $93 $158 forward 7 unknown #
face $-1 $159 $160 $22 $-1 $161 reversed single #
loop $-1 $-1 $162 $60 #
plane-surface $-1 -68.602659407240992 -14.120014554102333 0 -1 0 0 0 0 1 forward_v I I I I #
coedge $-1 $163 $164 $165 $166 forward $61 $-1 #
coedge $-1 $167 $63 $168 $169 reversed $39 $-1 #
coedge $-1 $63 $167 $170 $171 reversed $39 $-1 #
coedge $-1 $172 $173 $63 $102 forward $174 $-1 #
edge $-1 $175 -10.443974586310219 $176 10.443974586310219 $101 $177 forward 7 unknown #
face $-1 $178 $179 $23 $-1 $180 reversed single #
loop $-1 $-1 $109 $64 #
plane-surface $-1 0 0 10.443974586310219 0 0 1 1 0 0 forward_v I I I I #
coedge $-1 $181 $182 $183 $184 reversed $65 $-1 #
coedge $-1 $108 $67 $185 $186 reversed $42 $-1 #
coedge $-1 $67 $107 $181 $187 reversed $42 $-1 #
coedge $-1 $183 $188 $67 $110 forward $104 $-1 #
edge $-1 $189 21.100403729903505 $190 26.931790222992895 $109 $191 forward 7 unknown #
loop $-1 $-1 $116 $68 #
plane-surface $-1 58.926240963703577 -10.157028001884754 52.855650808528537 0 0.75470958851134928 0.65605901945558964 1 0 0 forward_v I I I I #
loop $-1 $-1 $192 $44 #
coedge $-1 $114 $114 $115 $193 reversed $69 $-1 #
coedge $-1 $115 $115 $114 $193 forward $71 $-1 #
coedge $-1 $116 $116 $72 $117 forward $111 $-1 #
edge $-1 $194 0 $194 6.2831853071796004 $116 $195 forward 7 unknown #
loop $-1 $-1 $123 $73 #
plane-surface $-1 58.926240963703577 -10.157028001884754 52.855650808528537 0 0.75470958851134928 0.65605901945558964 1 0 0 forward_v I I I I #
loop $-1 $-1 $196 $47 #
coedge $-1 $121 $121 $122 $197 reversed $74 $-1 #
coedge $-1 $122 $122 $121 $197 forward $76 $-1 #
coedge $-1 $123 $123 $77 $124 forward $118 $-1 #
edge $-1 $198 0 $198 6.2831853071796004 $123 $199 forward 7 unknown #
face $-1 $200 $201 $26 $-1 $202 reversed single #
loop $-1 $-1 $203 $78 #
plane-surface $-1 -68.602659407240992 -155.16671525408955 99.659036688939437 1 0 0 0 0.78801076186113728 -0.61566146476048833 forward_v I I I I #
coedge $-1 $204 $205 $206 $207 reversed $79 $-1 #
coedge $-1 $130 $81 $208 $209 reversed $51 $-1 #
coedge $-1 $81 $129 $204 $210 reversed $51 $-1 #
coedge $-1 $206 $211 $81 $132 forward $212 $-1 #
edge $-1 $213 45.041092408035169 $214 50.189495407506698 $131 $215 forward 7 unknown #
loop $-1 $-1 $138 $82 #
plane-surface $-1 -53.314097224940369 -32.542265219009593 3.8543190658692765 0 -0.78801076186113728 0.61566146476048833 1 0 0 forward_v I I I I #
loop $-1 $-1 $216 $53 #
coedge $-1 $136 $136 $137 $217 reversed $83 $-1 #
coedge $-1 $137 $137 $136 $217 forward $85 $-1 #
coedge $-1 $138 $138 $86 $139 forward $133 $-1 #
edge $-1 $218 1.7464127599971184e-016 $218 6.2831853071796004 $138 $219 forward 7 unknown #
face $-1 $220 $221 $21 $-1 $222 reversed single #
loop $-1 $-1 $223 $87 #
plane-surface $-1 -77.806329538865327 0 0 1 0 0 0 0 -1 forward_v I I I I #
coedge $-1 $224 $151 $225 $226 forward $88 $-1 #
coedge $-1 $227 $90 $224 $228 forward $57 $-1 #
coedge $-1 $90 $227 $229 $230 forward $57 $-1 #
coedge $-1 $154 $153 $90 $147 reversed $155 $-1 #
edge $-1 $231 -32.542265219009607 $232 32.542265219009607 $146 $233 forward 7 unknown #
coedge $-1 $92 $91 $234 $235 forward $36 $-1 #
coedge $-1 $236 $237 $91 $150 reversed $221 $-1 #
edge $-1 $157 -77.806329538865327 $238 77.806329538865327 $149 $239 forward 7 unknown #
coedge $-1 $143 $240 $92 $152 reversed $88 $-1 #
edge $-1 $241 -77.806329538865327 $156 77.806329538865327 $151 $242 forward 7 unknown #
coedge $-1 $146 $93 $240 $243 forward $155 $-1 #
coedge $-1 $93 $146 $236 $244 reversed $155 $-1 #
loop $-1 $-1 $153 $220 #
vertex $-1 $94 $245 #
vertex $-1 $94 $246 #
straight-curve $-1 77.806329538865327 0 10.443974586310219 0 1 0 I I #
face $-1 $247 $248 $22 $-1 $249 forward single #
loop $-1 $-1 $250 $95 #
plane-surface $-1 0 0 -10.443974586310219 0 0 1 1 0 0 forward_v I I I I #
coedge $-1 $251 $252 $167 $253 forward $96 $-1 #
coedge $-1 $254 $98 $250 $255 reversed $61 $-1 #
coedge $-1 $98 $254 $256 $257 reversed $61 $-1 #
coedge $-1 $252 $251 $98 $166 reversed $96 $-1 #
edge $-1 $258 -10.443974586310219 $259 10.443974586310219 $165 $260 forward 7 unknown #
coedge $-1 $100 $99 $162 $253 reversed $39 $-1 #
coedge $-1 $261 $262 $99 $169 forward $160 $-1 #
edge $-1 $263 32.000412170714412 $175 41.204082302338747 $168 $264 forward 7 unknown #
coedge $-1 $265 $266 $100 $171 forward $248 $-1 #
edge $-1 $176 -41.204082302338747 $267 -32.000412170714412 $170 $268 forward 7 unknown #
coedge $-1 $269 $101 $266 $270 reversed $174 $-1 #
coedge $-1 $101 $269 $261 $271 reversed $174 $-1 #
loop $-1 $-1 $269 $247 #
vertex $-1 $271 $272 #
vertex $-1 $102 $273 #
straight-curve $-1 -77.806329538865327 -16.585713061815497 0 0 0 1 I I #
face $-1 $-1 $274 $23 $-1 $275 reversed single #
loop $-1 $-1 $276 $103 #
plane-surface $-1 77.806329538865327 0 0 -1 0 0 0 0 1 forward_v I I I I #
coedge $-1 $277 $106 $108 $187 forward $65 $-1 #
coedge $-1 $106 $277 $276 $278 reversed $65 $-1 #
coedge $-1 $279 $109 $106 $184 forward $104 $-1 #
edge $-1 $190 10.583031906690039 $280 48.343209057013539 $183 $281 forward 7 unknown #
coedge $-1 $282 $283 $107 $186 forward $274 $-1 #
edge $-1 $284 -73.737638045774062 $189 -67.029395082660514 $185 $285 forward 7 unknown #
edge $-1 $190 56.196021446970839 $284 65.084530438019229 $108 $286 forward 7 unknown #
coedge $-1 $109 $279 $282 $287 forward $104 $-1 #
vertex $-1 $186 $288 #
vertex $-1 $110 $289 #
straight-curve $-1 40.046152388541827 53.642668948913112 10.443974586310219 0 -1 0 I I #
coedge $-1 $192 $192 $-1 $290 reversed $113 $-1 #
edge $-1 $291 0 $291 6.2831853071796004 $114 $292 forward 7 unknown #
vertex $-1 $117 $293 #
ellipse-curve $-1 50.834774431491383 29.626571972464916 7.089853104753443 0 0.75470958851134928 0.65605901945558964 1 0 0 1 I I #
coedge $-1 $196 $196 $-1 $294 reversed $120 $-1 #
edge $-1 $295 0 $295 6.2831853071796004 $121 $296 forward 7 unknown #
vertex $-1 $124 $297 #
ellipse-curve $-1 67.017707495915744 29.626571972464916 7.089853104753443 0 0.75470958851134928 0.65605901945558964 1 0 0 1 I I #
face $-1 $-1 $212 $26 $-1 $298 forward single #
loop $-1 $-1 $299 $125 #
plane-surface $-1 0 -32.542265219009607 0 0 1 0 0 0 1 forward_v I I I I #
coedge $-1 $300 $301 $302 $303 reversed $126 $-1 #
coedge $-1 $304 $128 $130 $210 forward $79 $-1 #
coedge $-1 $128 $304 $300 $305 forward $79 $-1 #
coedge $-1 $302 $131 $128 $207 forward $212 $-1 #
edge $-1 $214 11.368486430169561 $306 41.945610794770808 $206 $307 forward 7 unknown #
coedge $-1 $308 $309 $129 $209 forward $201 $-1 #
edge $-1 $310 -45.975199278600464 $213 -39.3855437581595 $208 $311 forward 7 unknown #
edge $-1 $214 -8.3623927988970372 $310 2.3096905769578348e-014 $130 $312 forward 7 unknown #
coedge $-1 $131 $302 $308 $313 forward $212 $-1 #
loop $-1 $-1 $302 $200 #
vertex $-1 $209 $314 #
vertex $-1 $132 $315 #
straight-curve $-1 -38.025535042639746 -77.583357627044776 10.443974586310219 0 1 0 I I #
coedge $-1 $216 $216 $-1 $316 reversed $135 $-1 #
edge $-1 $317 0 $317 6.2831853071796004 $136 $318 forward 7 unknown #
vertex $-1 $139 $319 #
ellipse-curve $-1 -53.314097224940369 -29.968063719273843 7.1491468260897424 0 -0.78801076186113728 0.61566146476048833 1.5 0 0 1 I I #
face $-1 $-1 $155 $21 $-1 $320 reversed single #
loop $-1 $-1 $236 $140 #
plane-surface $-1 0 32.542265219009607 0 0 -1 0 0 0 -1 forward_v I I I I #
coedge $-1 $321 $234 $237 $322 forward $141 $-1 #
coedge $-1 $240 $143 $144 $228 reversed $88 $-1 #
coedge $-1 $234 $321 $143 $226 reversed $141 $-1 #
edge $-1 $241 -10.443974586310219 $323 10.443974586310219 $225 $324 forward 7 unknown #
coedge $-1 $145 $144 $321 $325 forward $57 $-1 #
edge $-1 $232 -77.806329538865327 $323 77.806329538865327 $224 $326 forward 7 unknown #
coedge $-1 $237 $236 $145 $230 reversed $221 $-1 #
edge $-1 $327 -77.806329538865327 $231 77.806329538865327 $229 $328 forward 7 unknown #
vertex $-1 $147 $329 #
vertex $-1 $243 $330 #
straight-curve $-1 77.806329538865327 0 -10.443974586310219 0 -1 0 I I #
coedge $-1 $223 $225 $148 $235 reversed $141 $-1 #
edge $-1 $238 -32.542265219009607 $241 32.542265219009607 $234 $331 forward 7 unknown #
coedge $-1 $229 $149 $154 $244 forward $221 $-1 #
coedge $-1 $149 $229 $223 $322 reversed $221 $-1 #
vertex $-1 $150 $332 #
straight-curve $-1 0 32.542265219009607 10.443974586310219 -1 0 0 I I #
coedge $-1 $151 $224 $153 $243 reversed $88 $-1 #
vertex $-1 $235 $333 #
straight-curve $-1 0 -32.542265219009607 10.443974586310219 1 0 0 I I #
edge $-1 $156 -10.443974586310219 $232 10.443974586310219 $153 $334 forward 7 unknown #
edge $-1 $157 -10.443974586310219 $231 10.443974586310219 $154 $335 forward 7 unknown #
point $-1 77.806329538865327 -32.542265219009607 10.443974586310219 #
point $-1 77.806329538865327 32.542265219009607 10.443974586310219 #
face $-1 $-1 $174 $22 $-1 $336 reversed single #
loop $-1 $-1 $256 $159 #
plane-surface $-1 0 0 10.443974586310219 0 0 1 1 0 0 forward_v I I I I #
coedge $-1 $262 $261 $163 $255 forward $160 $-1 #
coedge $-1 $165 $162 $262 $337 reversed $96 $-1 #
coedge $-1 $162 $165 $265 $338 reversed $96 $-1 #
edge $-1 $267 -10.443974586310219 $263 10.443974586310219 $162 $339 forward 7 unknown #
coedge $-1 $164 $163 $269 $340 reversed $61 $-1 #
edge $-1 $341 -41.204082302338747 $259 -32.000412170714412 $250 $342 forward 7 unknown #
coedge $-1 $266 $265 $164 $257 forward $248 $-1 #
edge $-1 $258 32.000412170714412 $343 41.204082302338747 $256 $344 forward 7 unknown #
vertex $-1 $257 $345 #
vertex $-1 $255 $346 #
straight-curve $-1 -68.602659407240992 -11.65431604638917 0 0 0 -1 I I #
coedge $-1 $250 $168 $173 $271 forward $160 $-1 #
coedge $-1 $168 $250 $251 $337 forward $160 $-1 #
vertex $-1 $169 $347 #
straight-curve $-1 -36.60224723652658 -16.585713061815497 -10.443974586310219 -1 0 0 I I #
coedge $-1 $256 $170 $252 $338 forward $248 $-1 #
coedge $-1 $170 $256 $172 $270 forward $248 $-1 #
vertex $-1 $171 $348 #
straight-curve $-1 -36.60224723652658 -16.585713061815497 10.443974586310219 1 0 0 I I #
coedge $-1 $173 $172 $254 $340 forward $174 $-1 #
edge $-1 $343 11.65431604638917 $176 16.585713061815497 $172 $349 forward 7 unknown #
edge $-1 $175 -16.585713061815497 $341 -11.65431604638917 $173 $350 forward 7 unknown #
point $-1 -77.806329538865327 -16.585713061815497 -10.443974586310219 #
point $-1 -77.806329538865327 -16.585713061815497 10.443974586310219 #
loop $-1 $-1 $185 $178 #
plane-surface $-1 0 32.542265219009607 0 0 -1 0 0 0 -1 forward_v I I I I #
coedge $-1 $351 $352 $182 $278 forward $179 $-1 #
coedge $-1 $182 $181 $283 $353 reversed $65 $-1 #
edge $-1 $280 32.918883295119031 $354 41.807392286167406 $276 $355 forward 7 unknown #
coedge $-1 $188 $183 $352 $356 forward $104 $-1 #
vertex $-1 $356 $357 #
straight-curve $-1 29.463120481851789 26.710878725920224 10.443974586310219 1 0 0 I I #
coedge $-1 $358 $185 $188 $287 reversed $274 $-1 #
coedge $-1 $185 $358 $277 $353 forward $274 $-1 #
vertex $-1 $186 $359 #
straight-curve $-1 40.046152388541827 32.542265219009607 77.473369668970733 0 0 1 I I #
straight-curve $-1 40.046152388541827 -10.157028001884754 52.855650808528537 0 0.65605901945558964 -0.75470958851134928 I I #
edge $-1 $360 -77.806329538865327 $189 -40.046152388541827 $282 $361 forward 7 unknown #
point $-1 40.046152388541827 32.542265219009607 10.443974586310219 #
point $-1 40.046152388541827 26.710878725920217 10.443974586310219 #
edge $-1 $362 1 $362 0 $192 $-1 forward 7 unknown #
vertex $-1 $193 $363 #
ellipse-curve $-1 50.834774431491383 26.758850583970926 4.596980997592059 0 0.75470958851134928 0.65605901945558964 1 0 0 1 I I #
point $-1 51.834774431491383 29.626571972464916 7.089853104753443 #
edge $-1 $364 1 $364 0 $196 $-1 forward 7 unknown #
vertex $-1 $197 $365 #
ellipse-curve $-1 67.017707495915744 26.758850583970926 4.596980997592059 0 0.75470958851134928 0.65605901945558964 1 0 0 1 I I #
point $-1 68.017707495915744 29.626571972464916 7.089853104753443 #
plane-surface $-1 0 0 10.443974586310219 0 0 1 1 0 0 forward_v I I I I #
coedge $-1 $309 $308 $301 $366 forward $201 $-1 #
coedge $-1 $301 $203 $205 $305 reversed $126 $-1 #
coedge $-1 $203 $300 $299 $366 reversed $126 $-1 #
coedge $-1 $211 $206 $203 $303 forward $212 $-1 #
edge $-1 $306 -50.189495407506698 $367 -45.041092408035169 $302 $368 forward 7 unknown #
coedge $-1 $205 $204 $309 $369 reversed $79 $-1 #
edge $-1 $370 -2.3096905769578348e-014 $306 8.3623927988970372 $300 $371 forward 7 unknown #
vertex $-1 $207 $372 #
straight-curve $-1 -26.657048612470184 -27.393862219538082 10.443974586310219 -1 0 0 I I #
coedge $-1 $299 $208 $211 $313 reversed $201 $-1 #
coedge $-1 $208 $299 $304 $369 forward $201 $-1 #
vertex $-1 $209 $373 #
straight-curve $-1 -38.025535042639746 -32.542265219009607 49.829518344469719 0 0 1 I I #
straight-curve $-1 -38.025535042639746 -32.542265219009593 3.8543190658692765 0 -0.61566146476048833 -0.78801076186113728 I I #
edge $-1 $367 -68.602659407240992 $213 -38.025535042639746 $308 $374 forward 7 unknown #
point $-1 -38.025535042639746 -32.542265219009607 10.443974586310219 #
point $-1 -38.025535042639746 -27.393862219538082 10.443974586310219 #
edge $-1 $375 1 $375 0 $216 $-1 forward 7 unknown #
vertex $-1 $217 $376 #
ellipse-curve $-1 -53.314097224940369 -28.194949321659163 5.7638380713652335 0 -0.78801076186113728 0.61566146476048833 1.5 0 0 1 I I #
point $-1 -51.814097224940369 -29.968063719273861 7.1491468260897566 #
plane-surface $-1 77.806329538865327 0 0 -1 0 0 0 0 1 forward_v I I I I #
coedge $-1 $225 $223 $227 $325 reversed $141 $-1 #
edge $-1 $238 -10.443974586310219 $327 10.443974586310219 $237 $377 forward 7 unknown #
vertex $-1 $325 $378 #
straight-curve $-1 -77.806329538865327 -32.542265219009607 0 0 0 -1 I I #
edge $-1 $323 -32.542265219009607 $327 32.542265219009607 $321 $379 forward 7 unknown #
straight-curve $-1 0 -32.542265219009607 -10.443974586310219 -1 0 0 I I #
vertex $-1 $230 $380 #
straight-curve $-1 0 32.542265219009607 -10.443974586310219 1 0 0 I I #
point $-1 77.806329538865327 32.542265219009607 -10.443974586310219 #
point $-1 77.806329538865327 -32.542265219009607 -10.443974586310219 #
straight-curve $-1 -77.806329538865327 0 10.443974586310219 0 -1 0 I I #
point $-1 -77.806329538865327 32.542265219009607 10.443974586310219 #
point $-1 -77.806329538865327 -32.542265219009607 10.443974586310219 #
straight-curve $-1 77.806329538865327 -32.542265219009607 0 0 0 -1 I I #
straight-curve $-1 77.806329538865327 32.542265219009607 0 0 0 -1 I I #
plane-surface $-1 -77.806329538865327 0 0 1 0 0 0 0 -1 forward_v I I I I #
edge $-1 $259 4.5943087693380029 $263 9.5257057847643303 $262 $381 forward 7 unknown #
edge $-1 $267 -9.5257057847643303 $258 -4.5943087693380029 $265 $382 forward 7 unknown #
straight-curve $-1 -68.602659407240992 -16.585713061815497 0 0 0 -1 I I #
edge $-1 $343 -10.443974586310219 $341 10.443974586310219 $269 $383 forward 7 unknown #
vertex $-1 $340 $384 #
straight-curve $-1 -36.60224723652658 -11.65431604638917 -10.443974586310219 1 0 0 I I #
vertex $-1 $270 $385 #
straight-curve $-1 -36.60224723652658 -11.65431604638917 10.443974586310219 -1 0 0 I I #
point $-1 -68.602659407240992 -11.65431604638917 10.443974586310219 #
point $-1 -68.602659407240992 -11.65431604638917 -10.443974586310219 #
point $-1 -68.602659407240992 -16.585713061815497 -10.443974586310219 #
point $-1 -68.602659407240992 -16.585713061815497 10.443974586310219 #
straight-curve $-1 -77.806329538865327 0 10.443974586310219 0 -1 0 I I #
straight-curve $-1 -77.806329538865327 0 -10.443974586310219 0 1 0 I I #
coedge $-1 $352 $276 $358 $386 reversed $179 $-1 #
coedge $-1 $276 $351 $279 $356 reversed $179 $-1 #
edge $-1 $354 -48.343209057013539 $284 -10.583031906690039 $283 $387 forward 7 unknown #
vertex $-1 $278 $388 #
straight-curve $-1 77.806329538865327 5.1141484297514399 35.288171452222628 0 0.65605901945558975 -0.75470958851134939 I I #
edge $-1 $280 26.710878725920217 $360 32.542265219009607 $352 $389 forward 7 unknown #
point $-1 77.806329538865327 26.710878725920217 10.443974586310219 #
coedge $-1 $283 $282 $351 $386 forward $274 $-1 #
point $-1 40.046152388541827 32.542265219009607 3.7357316231966706 #
vertex $-1 $356 $390 #
straight-curve $-1 0 32.542265219009607 10.443974586310219 -1 0 0 I I #
vertex $-1 $290 $391 #
point $-1 51.834774431491383 26.758850583970926 4.596980997592059 #
vertex $-1 $294 $392 #
point $-1 68.017707495915744 26.758850583970926 4.596980997592059 #
edge $-1 $367 39.3855437581595 $370 45.975199278600464 $299 $393 forward 7 unknown #
vertex $-1 $313 $394 #
straight-curve $-1 -68.602659407240992 -77.583357627044776 10.443974586310219 0 -1 0 I I #
edge $-1 $370 -41.945610794770808 $310 -11.368486430169561 $309 $395 forward 7 unknown #
vertex $-1 $369 $396 #
straight-curve $-1 -68.602659407240992 -32.542265219009593 3.8543190658692765 0 0.61566146476048833 0.78801076186113728 I I #
point $-1 -68.602659407240992 -27.393862219538082 10.443974586310219 #
point $-1 -38.025535042639746 -32.542265219009607 3.8543190658692583 #
straight-curve $-1 0 -32.542265219009607 10.443974586310219 1 0 0 I I #
vertex $-1 $316 $397 #
point $-1 -51.814097224940369 -28.194949321659163 5.7638380713652335 #
straight-curve $-1 -77.806329538865327 32.542265219009607 0 0 0 -1 I I #
point $-1 -77.806329538865327 -32.542265219009607 -10.443974586310219 #
straight-curve $-1 -77.806329538865327 0 -10.443974586310219 0 1 0 I I #
point $-1 -77.806329538865327 32.542265219009607 -10.443974586310219 #
straight-curve $-1 -68.602659407240992 -7.0600072770511666 -10.443974586310219 0 -1 0 I I #
straight-curve $-1 -68.602659407240992 -7.0600072770511666 10.443974586310219 0 1 0 I I #
straight-curve $-1 -77.806329538865327 -11.65431604638917 0 0 0 -1 I I #
point $-1 -77.806329538865327 -11.65431604638917 -10.443974586310219 #
point $-1 -77.806329538865327 -11.65431604638917 10.443974586310219 #
edge $-1 $360 -10.443974586310219 $354 -3.7357316231966706 $351 $398 forward 7 unknown #
straight-curve $-1 29.463120481851789 32.542265219009607 3.7357316231966742 -1 0 0 I I #
point $-1 77.806329538865327 32.542265219009607 3.7357316231966706 #
straight-curve $-1 77.806329538865327 0 10.443974586310219 0 1 0 I I #
point $-1 77.806329538865327 32.542265219009607 10.443974586310219 #
point $-1 50.834774431491383 26.004140995459579 3.9409219781364691 #
point $-1 67.017707495915744 26.004140995459579 3.9409219781364691 #
straight-curve $-1 -68.602659407240992 -32.542265219009607 49.829518344469719 0 0 -1 I I #
point $-1 -68.602659407240992 -32.542265219009607 10.443974586310219 #
straight-curve $-1 -26.657048612470184 -32.542265219009607 3.8543190658692597 1 0 0 I I #
point $-1 -68.602659407240992 -32.542265219009607 3.8543190658692583 #
point $-1 -53.314097224940369 -27.01293317886746 4.8403458742245018 #
straight-curve $-1 77.806329538865327 32.542265219009607 0 0 0 -1 I I #
End-of-ACIS-data 