500 0 8 0           
7 Unknown 11 ACIS 5.0 NT 24 Fri Mar 26 18:00:00 1999 
-1 9.9999999999999995e-007 1e-010 
body $-1 $8 $-1 $9 #
body $-1 $10 $-1 $11 #
body $-1 $12 $-1 $13 #
body $-1 $14 $-1 $15 #
body $-1 $16 $-1 $17 #
body $-1 $18 $-1 $19 #
body $-1 $20 $-1 $21 #
body $-1 $22 $-1 $23 #
lump $-1 $-1 $24 $0 #
transform $-1 1 0 0 0 1 0 0 0 1 61.590014343699451 30.493137720767901 6.6849087650185908 1 rotate no_reflect no_shear #
lump $-1 $-1 $25 $1 #
transform $-1 1 0 0 0 1 0 0 0 1 61.590014343699451 30.493137720767901 6.6849087650185908 1 rotate no_reflect no_shear #
lump $-1 $-1 $26 $2 #
transform $-1 1 0 0 0 1 0 0 0 1 61.590014343699451 30.493137720767901 6.6849087650185908 1 rotate no_reflect no_shear #
lump $-1 $-1 $27 $3 #
transform $-1 1 0 0 0 1 0 0 0 1 61.590014343699451 30.493137720767901 6.6849087650185908 1 rotate no_reflect no_shear #
lump $-1 $-1 $28 $4 #
transform $-1 1 0 0 0 1 0 0 0 1 61.590014343699451 30.493137720767901 6.6849087650185908 1 rotate no_reflect no_shear #
lump $-1 $-1 $29 $5 #
transform $-1 1 0 0 0 1 0 0 0 1 61.590014343699451 30.493137720767901 6.6849087650185908 1 rotate no_reflect no_shear #
lump $-1 $-1 $30 $6 #
transform $-1 1 0 0 0 1 0 0 0 1 61.590014343699451 30.493137720767901 6.6849087650185908 1 rotate no_reflect no_shear #
lump $-1 $-1 $31 $7 #
transform $-1 1 0 0 0 1 0 0 0 1 61.590014343699451 30.493137720767901 6.6849087650185908 1 rotate no_reflect no_shear #
shell $-1 $-1 $-1 $32 $-1 $8 #
shell $-1 $-1 $-1 $33 $-1 $10 #
shell $-1 $-1 $-1 $34 $-1 $12 #
shell $-1 $-1 $-1 $35 $-1 $14 #
shell $-1 $-1 $-1 $36 $-1 $16 #
shell $-1 $-1 $-1 $37 $-1 $18 #
shell $-1 $-1 $-1 $38 $-1 $20 #
shell $-1 $-1 $-1 $39 $-1 $22 #
face $-1 $40 $41 $24 $-1 $42 forward single #
face $-1 $43 $44 $25 $-1 $45 forward single #
face $-1 $46 $47 $26 $-1 $48 reversed single #
face $-1 $49 $50 $27 $-1 $51 forward single #
face $-1 $52 $53 $28 $-1 $54 forward single #
face $-1 $55 $56 $29 $-1 $57 forward single #
face $-1 $58 $59 $30 $-1 $60 reversed single #
face $-1 $61 $62 $31 $-1 $63 forward single #
face $-1 $64 $65 $24 $-1 $66 reversed single #
loop $-1 $-1 $67 $32 #
plane-surface $-1 0 0 6.6849087650185908 0 0 1 1 0 0 forward_v I I I I #
face $-1 $68 $69 $25 $-1 $70 reversed single #
loop $-1 $-1 $71 $33 #
plane-surface $-1 0 -27.878256510312372 0.21971505423855042 0 0 1 1 0 0 forward_v I I I I #
face $-1 $72 $73 $26 $-1 $74 reversed single #
loop $-1 $-1 $75 $34 #
plane-surface $-1 -153.13061628497502 15.514015685216627 82.708606988954983 0 1 0 -0.74314483375859142 0 0.66913059716165679 forward_v I I I I #
face $-1 $76 $77 $27 $-1 $78 forward single #
loop $-1 $79 $80 $35 #
cone-surface $-1 -57.981235041246222 18.509840092326879 2.8298933394695007 0.74314483375859142 0 -0.66913059716165679 0.3345652985808284 0 0.37157241687929571 1 I I 0 1 0.5 forward I I I I #
face $-1 $81 $82 $28 $-1 $83 forward single #
loop $-1 $84 $85 $36 #
cone-surface $-1 -57.981235041246222 23.003576702992259 2.8298933394695007 0.74314483375859142 0 -0.66913059716165679 0.3345652985808284 0 0.37157241687929571 1 I I 0 1 0.5 forward I I I I #
face $-1 $86 $87 $29 $-1 $88 forward single #
loop $-1 $89 $90 $37 #
cone-surface $-1 -57.981235041246222 27.497313313657639 2.8298933394695007 0.74314483375859142 0 -0.66913059716165679 0.3345652985808284 0 0.37157241687929571 1 I I 0 1 0.5 forward I I I I #
face $-1 $91 $92 $30 $-1 $93 reversed single #
loop $-1 $-1 $94 $38 #
plane-surface $-1 31.340005461137736 25.014125447725878 172.78561202898578 0 -1 0 -0.57357644374324357 0 -0.81915203911291934 forward_v I I I I #
face $-1 $95 $96 $31 $-1 $97 forward single #
loop $-1 $98 $99 $39 #
cone-surface $-1 55.505432527485745 18.696060281059335 0.8310807833507905 -0.57357644374324357 0 -0.81915203911291934 1.6383040782258387 0 -1.1471528874864871 1 I I 0 1 2 forward I I I I #
face $-1 $100 $101 $24 $-1 $102 reversed single #
loop $-1 $-1 $103 $40 #
plane-surface $-1 0 0 -6.6849087650185908 0 0 1 1 0 0 forward_v I I I I #
coedge $-1 $104 $105 $106 $107 forward $41 $-1 #
face $-1 $108 $109 $25 $-1 $110 reversed single #
loop $-1 $-1 $111 $43 #
plane-surface $-1 0 -27.878256510312372 -2.7802849457614496 0 0 1 1 0 0 forward_v I I I I #
coedge $-1 $112 $113 $114 $115 reversed $44 $-1 #
face $-1 $116 $117 $26 $-1 $118 forward single #
loop $-1 $-1 $119 $46 #
plane-surface $-1 -61.590014343699437 23.003576702992266 0.28508083496573988 -0.74314483375859142 0 0.66913059716165679 0.66913059716165679 0 0.74314483375859142 forward_v I I I I #
coedge $-1 $120 $121 $122 $123 reversed $47 $-1 #
face $-1 $-1 $124 $27 $-1 $125 forward single #
loop $-1 $126 $127 $49 #
cone-surface $-1 -57.067884934159288 18.509840092326879 2.0075092296564279 0.74314483375859142 0 -0.66913059716165679 0.1672826492904142 0 0.18578620843964785 1 I I -0.70710678118654746 0.70710678118654746 0.25 forward I I I I #
loop $-1 $-1 $128 $35 #
coedge $-1 $80 $80 $129 $130 reversed $50 $-1 #
face $-1 $-1 $131 $28 $-1 $132 forward single #
loop $-1 $133 $134 $52 #
cone-surface $-1 -57.067884934159288 23.003576702992259 2.0075092296564279 0.74314483375859142 0 -0.66913059716165679 0.1672826492904142 0 0.18578620843964785 1 I I -0.70710678118654746 0.70710678118654746 0.25 forward I I I I #
loop $-1 $-1 $135 $36 #
coedge $-1 $85 $85 $136 $137 reversed $53 $-1 #
face $-1 $-1 $138 $29 $-1 $139 forward single #
loop $-1 $140 $141 $55 #
cone-surface $-1 -57.067884934159288 27.497313313657639 2.0075092296564279 0.74314483375859142 0 -0.66913059716165679 0.1672826492904142 0 0.18578620843964785 1 I I -0.70710678118654746 0.70710678118654746 0.25 forward I I I I #
loop $-1 $-1 $142 $37 #
coedge $-1 $90 $90 $143 $144 reversed $56 $-1 #
face $-1 $145 $146 $30 $-1 $147 reversed single #
loop $-1 $-1 $148 $58 #
plane-surface $-1 -39.313157333571255 18.696060281059335 71.882440351715076 0.57357644374324357 0 0.81915203911291934 0.81915203911291934 0 -0.57357644374324357 forward_v I I I I #
coedge $-1 $149 $150 $151 $152 reversed $59 $-1 #
face $-1 $-1 $153 $31 $-1 $154 forward single #
loop $-1 $155 $156 $61 #
cone-surface $-1 52.742998610326254 18.696060281059335 -3.1140836334236752 -0.57357644374324357 0 -0.81915203911291934 0.81915203911291934 0 -0.57357644374324357 1 I I -0.70710678118654746 0.70710678118654746 1 forward I I I I #
loop $-1 $-1 $157 $39 #
coedge $-1 $99 $99 $158 $159 reversed $62 $-1 #
face $-1 $160 $161 $24 $-1 $162 reversed single #
loop $-1 $-1 $163 $64 #
plane-surface $-1 0 -30.493137720767901 0 0 1 0 0 0 1 forward_v I I I I #
coedge $-1 $164 $165 $166 $167 forward $65 $-1 #
coedge $-1 $168 $67 $169 $170 forward $41 $-1 #
coedge $-1 $67 $168 $171 $172 forward $41 $-1 #
coedge $-1 $173 $174 $67 $107 reversed $175 $-1 #
edge $-1 $176 -30.493137720767901 $177 30.493137720767901 $106 $178 forward 7 unknown #
face $-1 $179 $180 $25 $-1 $181 reversed single #
loop $-1 $-1 $182 $68 #
plane-surface $-1 0 -25.263375299856843 -1.2802849457614496 0 -1 0 0 0 -1 forward_v I I I I #
coedge $-1 $183 $184 $185 $186 reversed $69 $-1 #
coedge $-1 $187 $71 $188 $189 forward $44 $-1 #
coedge $-1 $71 $187 $190 $191 reversed $44 $-1 #
coedge $-1 $192 $193 $71 $115 forward $194 $-1 #
edge $-1 $195 11.324247044700657 $196 16.554009465611713 $114 $197 forward 7 unknown #
face $-1 $198 $199 $26 $-1 $200 reversed single #
loop $-1 $-1 $122 $72 #
plane-surface $-1 0 0 6.6849087650185908 0 0 1 1 0 0 forward_v I I I I #
coedge $-1 $201 $202 $203 $204 reversed $73 $-1 #
coedge $-1 $121 $75 $205 $206 reversed $47 $-1 #
coedge $-1 $75 $120 $201 $207 reversed $47 $-1 #
coedge $-1 $203 $208 $75 $123 forward $117 $-1 #
edge $-1 $209 14.975293798788059 $210 20.737724606399951 $122 $211 forward 7 unknown #
loop $-1 $-1 $129 $76 #
plane-surface $-1 -61.590014343699437 23.003576702992266 0.28508083496573988 -0.74314483375859142 0 0.66913059716165679 0.66913059716165679 0 0.74314483375859142 forward_v I I I I #
loop $-1 $-1 $212 $49 #
coedge $-1 $127 $127 $128 $213 reversed $77 $-1 #
coedge $-1 $128 $128 $127 $213 forward $79 $-1 #
coedge $-1 $129 $129 $80 $130 forward $124 $-1 #
edge $-1 $214 0 $214 6.2831853071796004 $129 $215 forward 7 unknown #
loop $-1 $-1 $136 $81 #
plane-surface $-1 -61.590014343699437 23.003576702992266 0.28508083496573988 -0.74314483375859142 0 0.66913059716165679 0.66913059716165679 0 0.74314483375859142 forward_v I I I I #
loop $-1 $-1 $216 $52 #
coedge $-1 $134 $134 $135 $217 reversed $82 $-1 #
coedge $-1 $135 $135 $134 $217 forward $84 $-1 #
coedge $-1 $136 $136 $85 $137 forward $131 $-1 #
edge $-1 $218 0 $218 6.2831853071796004 $136 $219 forward 7 unknown #
loop $-1 $-1 $143 $86 #
plane-surface $-1 -61.590014343699437 23.003576702992266 0.28508083496573988 -0.74314483375859142 0 0.66913059716165679 0.66913059716165679 0 0.74314483375859142 forward_v I I I I #
loop $-1 $-1 $220 $55 #
coedge $-1 $141 $141 $142 $221 reversed $87 $-1 #
coedge $-1 $142 $142 $141 $221 forward $89 $-1 #
coedge $-1 $143 $143 $90 $144 forward $138 $-1 #
edge $-1 $222 0 $222 6.2831853071796004 $143 $223 forward 7 unknown #
face $-1 $224 $225 $30 $-1 $226 reversed single #
loop $-1 $-1 $227 $91 #
plane-surface $-1 31.340005461137736 12.377995114392792 172.78561202898578 0 1 0 0.57357644374324357 0 0.81915203911291934 forward_v I I I I #
coedge $-1 $228 $229 $230 $231 reversed $92 $-1 #
coedge $-1 $150 $94 $232 $233 reversed $59 $-1 #
coedge $-1 $94 $149 $228 $234 reversed $59 $-1 #
coedge $-1 $230 $235 $94 $152 forward $236 $-1 #
edge $-1 $237 -45.920011613130583 $238 -38.12856292753564 $151 $239 forward 7 unknown #
loop $-1 $-1 $158 $95 #
plane-surface $-1 -39.313157333571255 18.696060281059335 71.882440351715076 0.57357644374324357 0 0.81915203911291934 0.81915203911291934 0 -0.57357644374324357 forward_v I I I I #
loop $-1 $-1 $240 $61 #
coedge $-1 $156 $156 $157 $241 reversed $96 $-1 #
coedge $-1 $157 $157 $156 $241 forward $98 $-1 #
coedge $-1 $158 $158 $99 $159 forward $153 $-1 #
edge $-1 $242 0 $242 6.2831853071796004 $158 $243 forward 7 unknown #
face $-1 $244 $245 $24 $-1 $246 reversed single #
loop $-1 $-1 $247 $100 #
plane-surface $-1 -61.590014343699451 0 0 1 0 0 0 0 -1 forward_v I I I I #
coedge $-1 $248 $171 $249 $250 forward $101 $-1 #
coedge $-1 $251 $103 $248 $252 forward $65 $-1 #
coedge $-1 $103 $251 $253 $254 forward $65 $-1 #
coedge $-1 $174 $173 $103 $167 reversed $175 $-1 #
edge $-1 $255 -30.493137720767901 $256 30.493137720767901 $166 $257 forward 7 unknown #
coedge $-1 $105 $104 $258 $259 forward $41 $-1 #
coedge $-1 $260 $261 $104 $170 reversed $245 $-1 #
edge $-1 $177 -61.590014343699451 $262 61.590014343699451 $169 $263 forward 7 unknown #
coedge $-1 $163 $264 $105 $172 reversed $101 $-1 #
edge $-1 $265 -61.590014343699451 $176 61.590014343699451 $171 $266 forward 7 unknown #
coedge $-1 $166 $106 $264 $267 forward $175 $-1 #
coedge $-1 $106 $166 $260 $268 reversed $175 $-1 #
loop $-1 $-1 $173 $244 #
vertex $-1 $107 $269 #
vertex $-1 $107 $270 #
straight-curve $-1 61.590014343699451 0 6.6849087650185908 0 1 0 I I #
face $-1 $271 $272 $25 $-1 $273 reversed single #
loop $-1 $-1 $274 $108 #
plane-surface $-1 -61.590014343699451 0 0 1 0 0 0 0 -1 forward_v I I I I #
coedge $-1 $275 $188 $193 $276 reversed $109 $-1 #
coedge $-1 $277 $111 $278 $279 reversed $69 $-1 #
coedge $-1 $111 $277 $275 $280 forward $69 $-1 #
coedge $-1 $193 $192 $111 $186 forward $194 $-1 #
edge $-1 $281 -16.554009465611713 $282 -11.324247044700657 $185 $283 forward 7 unknown #
coedge $-1 $113 $112 $274 $284 reversed $44 $-1 #
coedge $-1 $182 $285 $112 $189 reversed $109 $-1 #
edge $-1 $195 -61.590014343699451 $286 61.590014343699451 $188 $287 forward 7 unknown #
coedge $-1 $288 $289 $113 $191 forward $272 $-1 #
edge $-1 $196 -61.590014343699451 $290 61.590014343699451 $190 $291 forward 7 unknown #
coedge $-1 $185 $114 $289 $292 forward $194 $-1 #
coedge $-1 $114 $185 $182 $276 forward $194 $-1 #
loop $-1 $-1 $114 $271 #
vertex $-1 $115 $293 #
vertex $-1 $292 $294 #
straight-curve $-1 61.590014343699451 -13.939128255156186 0.21971505423855042 0 -1 0 I I #
face $-1 $-1 $295 $26 $-1 $296 reversed single #
loop $-1 $-1 $297 $116 #
plane-surface $-1 0 30.493137720767901 0 0 -1 0 0 0 -1 forward_v I I I I #
coedge $-1 $298 $119 $121 $207 forward $73 $-1 #
coedge $-1 $119 $298 $297 $299 reversed $73 $-1 #
coedge $-1 $300 $122 $119 $204 forward $117 $-1 #
edge $-1 $210 4.0122273337204941 $301 18.991349369271774 $203 $302 forward 7 unknown #
coedge $-1 $303 $304 $120 $206 forward $295 $-1 #
edge $-1 $305 -41.069222659511766 $209 -34.669394729458901 $205 $306 forward 7 unknown #
edge $-1 $210 -8.6118178305627797 $305 2.1224720073754982e-014 $121 $307 forward 7 unknown #
coedge $-1 $122 $300 $303 $308 forward $117 $-1 #
vertex $-1 $206 $309 #
vertex $-1 $123 $310 #
straight-curve $-1 -76.56530814248751 15.514015685216627 6.6849087650185908 1 0 0 I I #
coedge $-1 $212 $212 $-1 $311 reversed $126 $-1 #
edge $-1 $312 0 $312 6.2831853071796004 $127 $313 forward 7 unknown #
vertex $-1 $130 $314 #
ellipse-curve $-1 -58.708798939893505 18.509840092326879 3.4849947999921573 -0.74314483375859142 0 0.66913059716165679 0.3345652985808284 0 0.37157241687929571 1 I I #
coedge $-1 $216 $216 $-1 $315 reversed $133 $-1 #
edge $-1 $316 0 $316 6.2831853071796004 $134 $317 forward 7 unknown #
vertex $-1 $137 $318 #
ellipse-curve $-1 -58.708798939893505 23.003576702992259 3.4849947999921573 -0.74314483375859142 0 0.66913059716165679 0.3345652985808284 0 0.37157241687929571 1 I I #
coedge $-1 $220 $220 $-1 $319 reversed $140 $-1 #
edge $-1 $320 0 $320 6.2831853071796004 $141 $321 forward 7 unknown #
vertex $-1 $144 $322 #
ellipse-curve $-1 -58.708798939893505 27.497313313657639 3.4849947999921573 -0.74314483375859142 0 0.66913059716165679 0.3345652985808284 0 0.37157241687929571 1 I I #
face $-1 $-1 $236 $30 $-1 $323 forward single #
loop $-1 $-1 $324 $145 #
plane-surface $-1 61.590014343699451 0 0 -1 0 0 0 0 1 forward_v I I I I #
coedge $-1 $325 $326 $327 $328 reversed $146 $-1 #
coedge $-1 $329 $148 $150 $234 forward $92 $-1 #
coedge $-1 $148 $329 $325 $330 forward $92 $-1 #
coedge $-1 $327 $151 $148 $231 forward $236 $-1 #
edge $-1 $238 -15.66609530719621 $331 -3.0299649738631249 $230 $332 forward 7 unknown #
coedge $-1 $333 $334 $149 $233 forward $225 $-1 #
edge $-1 $335 -85.163528457486791 $237 -79.7078972494743 $232 $336 forward 7 unknown #
edge $-1 $238 113.66842606228366 $335 123.18002868739889 $150 $337 forward 7 unknown #
coedge $-1 $151 $327 $333 $338 forward $236 $-1 #
loop $-1 $-1 $327 $224 #
vertex $-1 $233 $339 #
vertex $-1 $152 $340 #
straight-curve $-1 15.670002730568868 25.014125447725878 6.6849087650185908 -1 0 0 I I #
coedge $-1 $240 $240 $-1 $341 reversed $155 $-1 #
edge $-1 $342 0 $342 6.2831853071796004 $156 $343 forward 7 unknown #
vertex $-1 $159 $344 #
ellipse-curve $-1 57.694290000901994 18.696060281059335 3.9570931610123412 0.57357644374324357 0 0.81915203911291934 1.6383040782258387 0 -1.1471528874864871 1 I I #
face $-1 $-1 $175 $24 $-1 $345 reversed single #
loop $-1 $-1 $260 $160 #
plane-surface $-1 0 30.493137720767901 0 0 -1 0 0 0 -1 forward_v I I I I #
coedge $-1 $346 $258 $261 $347 forward $161 $-1 #
coedge $-1 $264 $163 $164 $252 reversed $101 $-1 #
coedge $-1 $258 $346 $163 $250 reversed $161 $-1 #
edge $-1 $265 -6.6849087650185908 $348 6.6849087650185908 $249 $349 forward 7 unknown #
coedge $-1 $165 $164 $346 $350 forward $65 $-1 #
edge $-1 $256 -61.590014343699451 $348 61.590014343699451 $248 $351 forward 7 unknown #
coedge $-1 $261 $260 $165 $254 reversed $245 $-1 #
edge $-1 $352 -61.590014343699451 $255 61.590014343699451 $253 $353 forward 7 unknown #
vertex $-1 $167 $354 #
vertex $-1 $267 $355 #
straight-curve $-1 61.590014343699451 0 -6.6849087650185908 0 -1 0 I I #
coedge $-1 $247 $249 $168 $259 reversed $161 $-1 #
edge $-1 $262 -30.493137720767901 $265 30.493137720767901 $258 $356 forward 7 unknown #
coedge $-1 $253 $169 $174 $268 forward $245 $-1 #
coedge $-1 $169 $253 $247 $347 reversed $245 $-1 #
vertex $-1 $170 $357 #
straight-curve $-1 0 30.493137720767901 6.6849087650185908 -1 0 0 I I #
coedge $-1 $171 $248 $173 $267 reversed $101 $-1 #
vertex $-1 $259 $358 #
straight-curve $-1 0 -30.493137720767901 6.6849087650185908 1 0 0 I I #
edge $-1 $176 -6.6849087650185908 $256 6.6849087650185908 $173 $359 forward 7 unknown #
edge $-1 $177 -6.6849087650185908 $255 6.6849087650185908 $174 $360 forward 7 unknown #
point $-1 61.590014343699451 -30.493137720767901 6.6849087650185908 #
point $-1 61.590014343699451 30.493137720767901 6.6849087650185908 #
face $-1 $-1 $194 $25 $-1 $361 reversed single #
loop $-1 $-1 $190 $179 #
plane-surface $-1 0 -30.493137720767901 0 0 1 0 0 0 1 forward_v I I I I #
coedge $-1 $362 $363 $187 $284 forward $180 $-1 #
coedge $-1 $285 $182 $184 $280 reversed $109 $-1 #
edge $-1 $282 -2.1401424728807248 $195 0.85985752711927521 $193 $364 forward 7 unknown #
coedge $-1 $184 $183 $365 $366 reversed $69 $-1 #
coedge $-1 $289 $288 $183 $279 forward $272 $-1 #
edge $-1 $367 -61.590014343699451 $281 61.590014343699451 $278 $368 forward 7 unknown #
edge $-1 $369 -61.590014343699451 $282 61.590014343699451 $275 $370 forward 7 unknown #
vertex $-1 $279 $371 #
vertex $-1 $186 $372 #
straight-curve $-1 61.590014343699451 -13.939128255156186 -2.7802849457614496 0 1 0 I I #
edge $-1 $290 -16.554009465611713 $286 -11.324247044700657 $274 $373 forward 7 unknown #
coedge $-1 $188 $275 $362 $374 reversed $109 $-1 #
vertex $-1 $284 $375 #
straight-curve $-1 0 -25.263375299856843 0.21971505423855042 -1 0 0 I I #
coedge $-1 $278 $190 $363 $376 forward $272 $-1 #
coedge $-1 $190 $278 $192 $292 reversed $272 $-1 #
vertex $-1 $376 $377 #
straight-curve $-1 0 -30.493137720767901 0.21971505423855042 -1 0 0 I I #
edge $-1 $196 -0.21971505423855042 $281 2.7802849457614496 $192 $378 forward 7 unknown #
point $-1 61.590014343699451 -25.263375299856843 0.21971505423855042 #
point $-1 61.590014343699451 -30.493137720767901 0.21971505423855042 #
loop $-1 $-1 $205 $198 #
plane-surface $-1 -61.590014343699451 0 0 1 0 0 0 0 -1 forward_v I I I I #
coedge $-1 $379 $380 $202 $299 forward $199 $-1 #
coedge $-1 $202 $201 $304 $381 reversed $73 $-1 #
edge $-1 $301 11.888135533080341 $382 20.499953363643144 $297 $383 forward 7 unknown #
coedge $-1 $208 $203 $380 $384 forward $117 $-1 #
vertex $-1 $384 $385 #
straight-curve $-1 -55.827583536087559 11.501788351496133 6.6849087650185908 0 1 0 I I #
coedge $-1 $386 $205 $208 $308 reversed $295 $-1 #
coedge $-1 $205 $386 $298 $381 forward $295 $-1 #
vertex $-1 $206 $387 #
straight-curve $-1 -61.590014343699451 15.514015685216627 41.354303494477492 0 0 1 I I #
straight-curve $-1 -61.590014343699437 15.514015685216627 0.28508083496573988 -0.66913059716165679 0 -0.74314483375859142 I I #
edge $-1 $388 -30.493137720767901 $209 -15.514015685216627 $303 $389 forward 7 unknown #
point $-1 -61.590014343699451 15.514015685216627 6.6849087650185908 #
point $-1 -55.827583536087559 15.514015685216627 6.6849087650185899 #
edge $-1 $390 1 $390 0 $212 $-1 forward 7 unknown #
vertex $-1 $213 $391 #
ellipse-curve $-1 -57.253671142598932 18.509840092326879 2.1747918789468419 -0.74314483375859142 0 0.66913059716165679 0.3345652985808284 0 0.37157241687929571 1 I I #
point $-1 -58.374233641312678 18.509840092326879 3.8565672168714551 #
edge $-1 $392 1 $392 0 $216 $-1 forward 7 unknown #
vertex $-1 $217 $393 #
ellipse-curve $-1 -57.253671142598932 23.003576702992259 2.1747918789468419 -0.74314483375859142 0 0.66913059716165679 0.3345652985808284 0 0.37157241687929571 1 I I #
point $-1 -58.374233641312678 23.003576702992259 3.8565672168714551 #
edge $-1 $394 1 $394 0 $220 $-1 forward 7 unknown #
vertex $-1 $221 $395 #
ellipse-curve $-1 -57.253671142598932 27.497313313657639 2.1747918789468419 -0.74314483375859142 0 0.66913059716165679 0.3345652985808284 0 0.37157241687929571 1 I I #
point $-1 -58.374233641312678 27.497313313657639 3.8565672168714551 #
plane-surface $-1 0 0 6.6849087650185908 0 0 1 1 0 0 forward_v I I I I #
coedge $-1 $334 $333 $326 $396 forward $225 $-1 #
coedge $-1 $326 $227 $229 $330 reversed $146 $-1 #
coedge $-1 $227 $325 $324 $396 reversed $146 $-1 #
coedge $-1 $235 $230 $227 $328 forward $236 $-1 #
edge $-1 $331 38.12856292753564 $397 45.920011613130583 $327 $398 forward 7 unknown #
coedge $-1 $229 $228 $334 $399 reversed $92 $-1 #
edge $-1 $400 -123.18002868739889 $331 -113.66842606228366 $325 $401 forward 7 unknown #
vertex $-1 $231 $402 #
straight-curve $-1 53.798565658104508 9.3480301405296675 6.6849087650185979 0 -1 0 I I #
coedge $-1 $324 $232 $235 $338 reversed $225 $-1 #
coedge $-1 $232 $324 $329 $399 forward $225 $-1 #
vertex $-1 $233 $403 #
straight-curve $-1 61.590014343699451 25.014125447725878 86.392806014492891 0 0 1 I I #
straight-curve $-1 -39.313157333571255 25.014125447725878 71.882440351715076 0.81915203911291934 0 -0.57357644374324357 I I #
edge $-1 $397 12.377995114392792 $237 25.014125447725878 $333 $404 forward 7 unknown #
point $-1 61.590014343699451 25.014125447725878 6.6849087650185908 #
point $-1 53.798565658104508 25.014125447725878 6.6849087650185908 #
edge $-1 $405 1 $405 0 $240 $-1 forward 7 unknown #
vertex $-1 $241 $406 #
ellipse-curve $-1 53.316575054069496 18.696060281059335 -2.2949315943107558 0.57357644374324357 0 0.81915203911291934 1.6383040782258387 0 -1.1471528874864871 1 I I #
point $-1 59.33259407912783 18.696060281059335 2.8099402735258492 #
plane-surface $-1 61.590014343699451 0 0 -1 0 0 0 0 1 forward_v I I I I #
coedge $-1 $249 $247 $251 $350 reversed $161 $-1 #
edge $-1 $262 -6.6849087650185908 $352 6.6849087650185908 $261 $407 forward 7 unknown #
vertex $-1 $350 $408 #
straight-curve $-1 -61.590014343699451 -30.493137720767901 0 0 0 -1 I I #
edge $-1 $348 -30.493137720767901 $352 30.493137720767901 $346 $409 forward 7 unknown #
straight-curve $-1 0 -30.493137720767901 -6.6849087650185908 -1 0 0 I I #
vertex $-1 $254 $410 #
straight-curve $-1 0 30.493137720767901 -6.6849087650185908 1 0 0 I I #
point $-1 61.590014343699451 30.493137720767901 -6.6849087650185908 #
point $-1 61.590014343699451 -30.493137720767901 -6.6849087650185908 #
straight-curve $-1 -61.590014343699451 0 6.6849087650185908 0 -1 0 I I #
point $-1 -61.590014343699451 30.493137720767901 6.6849087650185908 #
point $-1 -61.590014343699451 -30.493137720767901 6.6849087650185908 #
straight-curve $-1 61.590014343699451 -30.493137720767901 0 0 0 -1 I I #
straight-curve $-1 61.590014343699451 30.493137720767901 0 0 0 -1 I I #
plane-surface $-1 61.590014343699451 0 0 -1 0 0 0 0 1 forward_v I I I I #
coedge $-1 $365 $274 $285 $374 forward $180 $-1 #
coedge $-1 $274 $365 $288 $376 reversed $180 $-1 #
straight-curve $-1 61.590014343699451 -25.263375299856843 -0.64014247288072479 0 0 1 I I #
coedge $-1 $363 $362 $277 $366 forward $180 $-1 #
edge $-1 $369 11.324247044700657 $367 16.554009465611713 $365 $411 forward 7 unknown #
vertex $-1 $279 $412 #
straight-curve $-1 0 -30.493137720767901 -2.7802849457614496 1 0 0 I I #
vertex $-1 $366 $413 #
straight-curve $-1 0 -25.263375299856843 -2.7802849457614496 1 0 0 I I #
point $-1 61.590014343699451 -30.493137720767901 -2.7802849457614496 #
point $-1 61.590014343699451 -25.263375299856843 -2.7802849457614496 #
straight-curve $-1 -61.590014343699451 -13.939128255156186 0.21971505423855042 0 1 0 I I #
edge $-1 $286 -0.85985752711927521 $369 2.1401424728807248 $362 $414 forward 7 unknown #
point $-1 -61.590014343699451 -25.263375299856843 0.21971505423855042 #
edge $-1 $290 -0.21971505423855042 $367 2.7802849457614496 $363 $415 forward 7 unknown #
point $-1 -61.590014343699451 -30.493137720767901 0.21971505423855042 #
straight-curve $-1 61.590014343699451 -30.493137720767901 0 0 0 -1 I I #
coedge $-1 $380 $297 $386 $416 reversed $199 $-1 #
coedge $-1 $297 $379 $300 $384 reversed $199 $-1 #
edge $-1 $382 -18.991349369271774 $305 -4.0122273337204941 $304 $417 forward 7 unknown #
vertex $-1 $299 $418 #
straight-curve $-1 -47.872868307698795 30.493137720767901 15.519515269449181 -0.66913059716165679 0 -0.74314483375859142 I I #
edge $-1 $301 55.827583536087559 $388 61.590014343699451 $380 $419 forward 7 unknown #
point $-1 -55.827583536087559 30.493137720767905 6.6849087650185899 #
coedge $-1 $304 $303 $379 $416 forward $295 $-1 #
point $-1 -61.590014343699451 15.514015685216627 0.28508083496572412 #
vertex $-1 $384 $420 #
straight-curve $-1 -61.590014343699451 0 6.6849087650185908 0 -1 0 I I #
vertex $-1 $311 $421 #
point $-1 -56.919105844018105 18.509840092326879 2.5463642958261379 #
vertex $-1 $315 $422 #
point $-1 -56.919105844018105 23.003576702992259 2.5463642958261379 #
vertex $-1 $319 $423 #
point $-1 -56.919105844018105 27.497313313657639 2.5463642958261379 #
edge $-1 $397 79.7078972494743 $400 85.163528457486791 $324 $424 forward 7 unknown #
vertex $-1 $338 $425 #
straight-curve $-1 15.670002730568868 12.377995114392792 6.6849087650185908 1 0 0 I I #
edge $-1 $400 3.0299649738631249 $335 15.66609530719621 $334 $426 forward 7 unknown #
vertex $-1 $399 $427 #
straight-curve $-1 -39.313157333571255 12.377995114392792 71.882440351715076 -0.81915203911291934 0 0.57357644374324357 I I #
point $-1 53.798565658104508 12.377995114392792 6.6849087650185908 #
point $-1 61.590014343699451 25.014125447725878 1.2292775570060996 #
straight-curve $-1 61.590014343699451 0 6.6849087650185908 0 1 0 I I #
vertex $-1 $341 $428 #
point $-1 54.954879132295332 18.696060281059335 -3.4420844817972429 #
straight-curve $-1 -61.590014343699451 30.493137720767901 0 0 0 -1 I I #
point $-1 -61.590014343699451 -30.493137720767901 -6.6849087650185908 #
straight-curve $-1 -61.590014343699451 0 -6.6849087650185908 0 1 0 I I #
point $-1 -61.590014343699451 30.493137720767901 -6.6849087650185908 #
straight-curve $-1 -61.590014343699451 -13.939128255156186 -2.7802849457614496 0 -1 0 I I #
point $-1 -61.590014343699451 -30.493137720767901 -2.7802849457614496 #
point $-1 -61.590014343699451 -25.263375299856843 -2.7802849457614496 #
straight-curve $-1 -61.590014343699451 -25.263375299856843 -0.64014247288072479 0 0 -1 I I #
straight-curve $-1 -61.590014343699451 -30.493137720767901 0 0 0 -1 I I #
edge $-1 $388 -6.6849087650185908 $382 -0.28508083496572412 $379 $429 forward 7 unknown #
straight-curve $-1 -61.590014343699451 11.501788351496133 0.28508083496572795 0 -1 0 I I #
point $-1 -61.590014343699451 30.493137720767905 0.28508083496572412 #
straight-curve $-1 0 30.493137720767901 6.6849087650185908 -1 0 0 I I #
point $-1 -61.590014343699451 30.493137720767901 6.6849087650185908 #
point $-1 -56.882098725719644 18.509840092326879 1.8402265803660136 #
point $-1 -56.882098725719644 23.003576702992259 1.8402265803660136 #
point $-1 -56.882098725719644 27.497313313657639 1.8402265803660136 #
straight-curve $-1 61.590014343699451 12.377995114392792 86.392806014492891 0 0 -1 I I #
point $-1 61.590014343699451 12.377995114392792 6.6849087650185908 #
straight-curve $-1 61.590014343699451 9.3480301405296675 1.2292775570060996 0 1 0 I I #
point $-1 61.590014343699451 12.377995114392792 1.2292775570060996 #
point $-1 52.169422166583011 18.696060281059335 -3.9332356725365947 #
straight-curve $-1 -61.590014343699451 30.493137720767901 0 0 0 -1 I I #
End-of-ACIS-data 