500 0 13 0           
7 Unknown 11 ACIS 5.0 NT 24 Thu Mar 25 18:43:07 1999 
-1 9.9999999999999995e-007 1e-010 
body $-1 $13 $-1 $14 #
body $-1 $15 $-1 $16 #
body $-1 $17 $-1 $18 #
body $-1 $19 $-1 $20 #
body $-1 $21 $-1 $22 #
body $-1 $23 $-1 $24 #
body $-1 $25 $-1 $26 #
body $-1 $27 $-1 $28 #
body $-1 $29 $-1 $30 #
body $-1 $31 $-1 $32 #
body $-1 $33 $-1 $34 #
body $-1 $35 $-1 $36 #
body $-1 $37 $-1 $38 #
lump $-1 $-1 $39 $0 #
transform $-1 1 0 0 0 1 0 0 0 1 56.409192175054173 30.120480665658064 12.843052327654092 1 rotate no_reflect no_shear #
lump $-1 $-1 $40 $1 #
transform $-1 1 0 0 0 1 0 0 0 1 56.409192175054173 30.120480665658064 12.843052327654092 1 rotate no_reflect no_shear #
lump $-1 $-1 $41 $2 #
transform $-1 1 0 0 0 1 0 0 0 1 56.409192175054173 30.120480665658064 12.843052327654092 1 rotate no_reflect no_shear #
lump $-1 $-1 $42 $3 #
transform $-1 1 0 0 0 1 0 0 0 1 56.409192175054173 30.120480665658064 12.843052327654092 1 rotate no_reflect no_shear #
lump $-1 $-1 $43 $4 #
transform $-1 1 0 0 0 1 0 0 0 1 56.409192175054173 30.120480665658064 12.843052327654092 1 rotate no_reflect no_shear #
lump $-1 $-1 $44 $5 #
transform $-1 1 0 0 0 1 0 0 0 1 56.409192175054173 30.120480665658064 12.843052327654092 1 rotate no_reflect no_shear #
lump $-1 $-1 $45 $6 #
transform $-1 1 0 0 0 1 0 0 0 1 56.409192175054173 30.120480665658064 12.843052327654092 1 rotate no_reflect no_shear #
lump $-1 $-1 $46 $7 #
transform $-1 1 0 0 0 1 0 0 0 1 56.409192175054173 30.120480665658064 12.843052327654092 1 rotate no_reflect no_shear #
lump $-1 $-1 $47 $8 #
transform $-1 1 0 0 0 1 0 0 0 1 56.409192175054173 30.120480665658064 12.843052327654092 1 rotate no_reflect no_shear #
lump $-1 $-1 $48 $9 #
transform $-1 1 0 0 0 1 0 0 0 1 56.409192175054173 30.120480665658064 12.843052327654092 1 rotate no_reflect no_shear #
lump $-1 $-1 $49 $10 #
transform $-1 1 0 0 0 1 0 0 0 1 56.409192175054173 30.120480665658064 12.843052327654092 1 rotate no_reflect no_shear #
lump $-1 $-1 $50 $11 #
transform $-1 1 0 0 0 1 0 0 0 1 56.409192175054173 30.120480665658064 12.843052327654092 1 rotate no_reflect no_shear #
lump $-1 $-1 $51 $12 #
transform $-1 1 0 0 0 1 0 0 0 1 56.409192175054173 30.120480665658064 12.843052327654092 1 rotate no_reflect no_shear #
shell $-1 $-1 $-1 $52 $-1 $13 #
shell $-1 $-1 $-1 $53 $-1 $15 #
shell $-1 $-1 $-1 $54 $-1 $17 #
shell $-1 $-1 $-1 $55 $-1 $19 #
shell $-1 $-1 $-1 $56 $-1 $21 #
shell $-1 $-1 $-1 $57 $-1 $23 #
shell $-1 $-1 $-1 $58 $-1 $25 #
shell $-1 $-1 $-1 $59 $-1 $27 #
shell $-1 $-1 $-1 $60 $-1 $29 #
shell $-1 $-1 $-1 $61 $-1 $31 #
shell $-1 $-1 $-1 $62 $-1 $33 #
shell $-1 $-1 $-1 $63 $-1 $35 #
shell $-1 $-1 $-1 $64 $-1 $37 #
face $-1 $65 $66 $39 $-1 $67 forward single #
face $-1 $68 $69 $40 $-1 $70 reversed single #
face $-1 $71 $72 $41 $-1 $73 reversed single #
face $-1 $74 $75 $42 $-1 $76 forward single #
face $-1 $77 $78 $43 $-1 $79 forward single #
face $-1 $80 $81 $44 $-1 $82 reversed single #
face $-1 $83 $84 $45 $-1 $85 forward single #
face $-1 $86 $87 $46 $-1 $88 forward single #
face $-1 $89 $90 $47 $-1 $91 forward single #
face $-1 $92 $93 $48 $-1 $94 reversed single #
face $-1 $95 $96 $49 $-1 $97 forward single #
face $-1 $98 $99 $50 $-1 $100 forward single #
face $-1 $101 $102 $51 $-1 $103 forward single #
face $-1 $104 $105 $39 $-1 $106 reversed single #
loop $-1 $-1 $107 $52 #
plane-surface $-1 0 0 12.843052327654092 0 0 1 1 0 0 forward_v I I I I #
face $-1 $108 $109 $40 $-1 $110 reversed single #
loop $-1 $-1 $111 $53 #
plane-surface $-1 -52.106442366360227 -26.760599896496515 0 0 -1 0 0 0 -1 forward_v I I I I #
face $-1 $112 $113 $41 $-1 $114 reversed single #
loop $-1 $-1 $115 $54 #
plane-surface $-1 -47.803692557666281 52.107889516233982 132.33779176811987 1 0 0 0 -0.61566148304635926 -0.78801074757464917 forward_v I I I I #
face $-1 $116 $117 $42 $-1 $118 forward single #
loop $-1 $119 $120 $55 #
cone-surface $-1 -41.308634932581235 24.473312478521564 7.6878528613299357 0 -0.61566148304635926 -0.78801074757464917 2.5 0 0 1 I I 0 1 2.5 forward I I I I #
face $-1 $121 $122 $43 $-1 $123 forward single #
loop $-1 $124 $125 $56 #
cone-surface $-1 -31.566048494953662 24.473312478521564 7.6878528613299357 0 -0.61566148304635926 -0.78801074757464917 2.5 0 0 1 I I 0 1 2.5 forward I I I I #
face $-1 $126 $127 $44 $-1 $128 reversed single #
loop $-1 $-1 $129 $57 #
plane-surface $-1 4.302749808693946 -119.02258166932955 76.028477845764655 -1 0 0 0 -0.78801076186113728 0.61566146476048833 forward_v I I I I #
face $-1 $130 $131 $45 $-1 $132 forward single #
loop $-1 $133 $134 $58 #
cone-surface $-1 -13.795377463068832 -26.835289153483558 9.0545178435891227 0 0.78801076186113728 -0.61566146476048833 1.5 0 0 1 I I 0 1 1.5 forward I I I I #
face $-1 $135 $136 $46 $-1 $137 forward single #
loop $-1 $138 $139 $59 #
cone-surface $-1 -7.0085797361577846 -26.835289153483558 9.0545178435891227 0 0.78801076186113728 -0.61566146476048833 1.5 0 0 1 I I 0 1 1.5 forward I I I I #
face $-1 $140 $141 $47 $-1 $142 forward single #
loop $-1 $143 $144 $60 #
cone-surface $-1 -0.22178200924673774 -26.835289153483558 9.0545178435891227 0 0.78801076186113728 -0.61566146476048833 1.5 0 0 1 I I 0 1 1.5 forward I I I I #
face $-1 $145 $146 $48 $-1 $147 reversed single #
loop $-1 $-1 $148 $61 #
plane-surface $-1 26.925408898397428 -119.02258166932955 76.028477845764655 -1 0 0 0 -0.78801076186113728 0.61566146476048833 forward_v I I I I #
face $-1 $149 $150 $49 $-1 $151 forward single #
loop $-1 $152 $153 $62 #
cone-surface $-1 8.8272816266346439 -26.835289153483558 9.0545178435891227 0 0.78801076186113728 -0.61566146476048833 1.5 0 0 1 I I 0 1 1.5 forward I I I I #
face $-1 $154 $155 $50 $-1 $156 forward single #
loop $-1 $157 $158 $63 #
cone-surface $-1 15.614079353545705 -26.835289153483558 9.0545178435891227 0 0.78801076186113728 -0.61566146476048833 1.5 0 0 1 I I 0 1 1.5 forward I I I I #
face $-1 $159 $160 $51 $-1 $161 forward single #
loop $-1 $162 $163 $64 #
cone-surface $-1 22.400877080456738 -26.835289153483558 9.0545178435891227 0 0.78801076186113728 -0.61566146476048833 1.5 0 0 1 I I 0 1 1.5 forward I I I I #
face $-1 $164 $165 $39 $-1 $166 reversed single #
loop $-1 $-1 $167 $65 #
plane-surface $-1 0 0 -12.843052327654092 0 0 1 1 0 0 forward_v I I I I #
coedge $-1 $168 $169 $170 $171 forward $66 $-1 #
face $-1 $172 $173 $40 $-1 $174 forward single #
loop $-1 $-1 $175 $68 #
plane-surface $-1 -47.803692557666281 -28.44054028107729 0 -1 0 0 0 0 1 forward_v I I I I #
coedge $-1 $176 $177 $178 $179 forward $69 $-1 #
face $-1 $180 $181 $41 $-1 $182 reversed single #
loop $-1 $-1 $183 $71 #
plane-surface $-1 -36.437341713767452 -17.350044307647892 43.435692376226896 0 0.61566148304635926 0.78801074757464917 1 0 0 forward_v I I I I #
coedge $-1 $184 $185 $186 $187 reversed $72 $-1 #
face $-1 $-1 $188 $42 $-1 $189 forward single #
loop $-1 $190 $191 $74 #
cone-surface $-1 -41.308634932581235 22.213433501189044 4.7953397329393184 0 -0.61566148304635926 -0.78801074757464917 1.25 0 0 1 I I -0.70710678118654746 0.70710678118654746 1.25 forward I I I I #
loop $-1 $-1 $192 $55 #
coedge $-1 $120 $120 $193 $194 reversed $75 $-1 #
face $-1 $-1 $195 $43 $-1 $196 forward single #
loop $-1 $197 $198 $77 #
cone-surface $-1 -31.566048494953662 22.213433501189044 4.7953397329393184 0 -0.61566148304635926 -0.78801074757464917 1.25 0 0 1 I I -0.70710678118654746 0.70710678118654746 1.25 forward I I I I #
loop $-1 $-1 $199 $56 #
coedge $-1 $125 $125 $200 $201 reversed $78 $-1 #
face $-1 $202 $203 $44 $-1 $204 reversed single #
loop $-1 $-1 $205 $80 #
plane-surface $-1 -7.0085797361577917 -30.120480665658064 6.5705460848651995 0 -0.78801076186113728 0.61566146476048833 1 0 0 forward_v I I I I #
coedge $-1 $206 $207 $208 $209 reversed $81 $-1 #
face $-1 $-1 $210 $45 $-1 $211 forward single #
loop $-1 $212 $213 $83 #
cone-surface $-1 -13.795377463068832 -25.40939898702953 7.94049038234823 0 0.78801076186113728 -0.61566146476048833 0.75 0 0 1 I I -0.70710678118654757 0.70710678118654757 0.75 forward I I I I #
loop $-1 $-1 $214 $58 #
coedge $-1 $134 $134 $215 $216 reversed $84 $-1 #
face $-1 $-1 $217 $46 $-1 $218 forward single #
loop $-1 $219 $220 $86 #
cone-surface $-1 -7.0085797361577846 -25.40939898702953 7.94049038234823 0 0.78801076186113728 -0.61566146476048833 0.75 0 0 1 I I -0.70710678118654757 0.70710678118654757 0.75 forward I I I I #
loop $-1 $-1 $221 $59 #
coedge $-1 $139 $139 $222 $223 reversed $87 $-1 #
face $-1 $-1 $224 $47 $-1 $225 forward single #
loop $-1 $226 $227 $89 #
cone-surface $-1 -0.22178200924673774 -25.40939898702953 7.94049038234823 0 0.78801076186113728 -0.61566146476048833 0.75 0 0 1 I I -0.70710678118654757 0.70710678118654757 0.75 forward I I I I #
loop $-1 $-1 $228 $60 #
coedge $-1 $144 $144 $229 $230 reversed $90 $-1 #
face $-1 $231 $232 $48 $-1 $233 forward single #
loop $-1 $-1 $234 $92 #
plane-surface $-1 -7.0085797361577917 -30.120480665658064 6.5705460848651995 0 -0.78801076186113728 0.61566146476048833 1 0 0 forward_v I I I I #
coedge $-1 $235 $236 $237 $238 reversed $93 $-1 #
face $-1 $-1 $239 $49 $-1 $240 forward single #
loop $-1 $241 $242 $95 #
cone-surface $-1 8.8272816266346439 -25.40939898702953 7.94049038234823 0 0.78801076186113728 -0.61566146476048833 0.75 0 0 1 I I -0.70710678118654757 0.70710678118654757 0.75 forward I I I I #
loop $-1 $-1 $243 $62 #
coedge $-1 $153 $153 $244 $245 reversed $96 $-1 #
face $-1 $-1 $246 $50 $-1 $247 forward single #
loop $-1 $248 $249 $98 #
cone-surface $-1 15.614079353545705 -25.40939898702953 7.94049038234823 0 0.78801076186113728 -0.61566146476048833 0.75 0 0 1 I I -0.70710678118654757 0.70710678118654757 0.75 forward I I I I #
loop $-1 $-1 $250 $63 #
coedge $-1 $158 $158 $251 $252 reversed $99 $-1 #
face $-1 $-1 $253 $51 $-1 $254 forward single #
loop $-1 $255 $256 $101 #
cone-surface $-1 22.400877080456738 -25.40939898702953 7.94049038234823 0 0.78801076186113728 -0.61566146476048833 0.75 0 0 1 I I -0.70710678118654757 0.70710678118654757 0.75 forward I I I I #
loop $-1 $-1 $257 $64 #
coedge $-1 $163 $163 $258 $259 reversed $102 $-1 #
face $-1 $260 $261 $39 $-1 $262 reversed single #
loop $-1 $-1 $263 $104 #
plane-surface $-1 0 -30.120480665658064 0 0 1 0 0 0 1 forward_v I I I I #
coedge $-1 $264 $265 $266 $267 forward $105 $-1 #
coedge $-1 $268 $107 $269 $270 forward $66 $-1 #
coedge $-1 $107 $268 $271 $272 forward $66 $-1 #
coedge $-1 $273 $274 $107 $171 reversed $275 $-1 #
edge $-1 $276 -30.120480665658064 $277 30.120480665658064 $170 $278 forward 7 unknown #
face $-1 $279 $280 $40 $-1 $281 reversed single #
loop $-1 $-1 $282 $108 #
plane-surface $-1 0 0 12.843052327654092 0 0 1 1 0 0 forward_v I I I I #
coedge $-1 $283 $284 $285 $286 reversed $109 $-1 #
coedge $-1 $287 $111 $288 $289 reversed $69 $-1 #
coedge $-1 $111 $287 $290 $291 reversed $69 $-1 #
coedge $-1 $284 $283 $111 $179 reversed $109 $-1 #
edge $-1 $292 -12.843052327654092 $293 12.843052327654092 $178 $294 forward 7 unknown #
face $-1 $295 $296 $41 $-1 $297 reversed single #
loop $-1 $-1 $298 $112 #
plane-surface $-1 -25.07099086986862 52.107889516233982 132.33779176811987 -1 0 0 0 0.61566148304635926 0.78801074757464917 forward_v I I I I #
coedge $-1 $299 $300 $301 $302 reversed $113 $-1 #
coedge $-1 $185 $115 $303 $304 reversed $72 $-1 #
coedge $-1 $115 $184 $299 $305 reversed $72 $-1 #
coedge $-1 $301 $306 $115 $187 forward $307 $-1 #
edge $-1 $308 -4.0665359075410734 $309 4.2471962196827278 $186 $310 forward 7 unknown #
loop $-1 $-1 $193 $116 #
plane-surface $-1 -36.437341713767452 -17.350044307647892 43.435692376226896 0 0.61566148304635926 0.78801074757464917 1 0 0 forward_v I I I I #
loop $-1 $-1 $311 $74 #
coedge $-1 $191 $191 $192 $312 reversed $117 $-1 #
coedge $-1 $192 $192 $191 $312 forward $119 $-1 #
coedge $-1 $193 $193 $120 $194 forward $188 $-1 #
edge $-1 $313 8.7746204155918907e-017 $313 6.2831853071796004 $193 $314 forward 7 unknown #
loop $-1 $-1 $200 $121 #
plane-surface $-1 -36.437341713767452 -17.350044307647892 43.435692376226896 0 0.61566148304635926 0.78801074757464917 1 0 0 forward_v I I I I #
loop $-1 $-1 $315 $77 #
coedge $-1 $198 $198 $199 $316 reversed $122 $-1 #
coedge $-1 $199 $199 $198 $316 forward $124 $-1 #
coedge $-1 $200 $200 $125 $201 forward $195 $-1 #
edge $-1 $317 8.7746204155918907e-017 $317 6.2831853071796004 $200 $318 forward 7 unknown #
face $-1 $319 $320 $44 $-1 $321 forward single #
loop $-1 $-1 $322 $126 #
plane-surface $-1 -18.319909281009529 -119.02258166932955 76.028477845764655 1 0 0 0 0.78801076186113728 -0.61566146476048833 forward_v I I I I #
coedge $-1 $323 $324 $325 $326 reversed $127 $-1 #
coedge $-1 $207 $129 $327 $328 reversed $81 $-1 #
coedge $-1 $129 $206 $323 $329 reversed $81 $-1 #
coedge $-1 $325 $330 $129 $209 forward $320 $-1 #
edge $-1 $331 29.390810169006713 $332 34.291429003239372 $208 $333 forward 7 unknown #
loop $-1 $-1 $215 $130 #
plane-surface $-1 -7.0085797361577917 -30.120480665658064 6.5705460848651995 0 -0.78801076186113728 0.61566146476048833 1 0 0 forward_v I I I I #
loop $-1 $-1 $334 $83 #
coedge $-1 $213 $213 $214 $335 reversed $131 $-1 #
coedge $-1 $214 $214 $213 $335 forward $133 $-1 #
coedge $-1 $215 $215 $134 $216 forward $210 $-1 #
edge $-1 $336 9.3319220423535563e-016 $336 6.2831853071796013 $215 $337 forward 7 unknown #
loop $-1 $-1 $222 $135 #
plane-surface $-1 -7.0085797361577917 -30.120480665658064 6.5705460848651995 0 -0.78801076186113728 0.61566146476048833 1 0 0 forward_v I I I I #
loop $-1 $-1 $338 $86 #
coedge $-1 $220 $220 $221 $339 reversed $136 $-1 #
coedge $-1 $221 $221 $220 $339 forward $138 $-1 #
coedge $-1 $222 $222 $139 $223 forward $217 $-1 #
edge $-1 $340 9.3319220423535563e-016 $340 6.2831853071796013 $222 $341 forward 7 unknown #
loop $-1 $-1 $229 $140 #
plane-surface $-1 -7.0085797361577917 -30.120480665658064 6.5705460848651995 0 -0.78801076186113728 0.61566146476048833 1 0 0 forward_v I I I I #
loop $-1 $-1 $342 $89 #
coedge $-1 $227 $227 $228 $343 reversed $141 $-1 #
coedge $-1 $228 $228 $227 $343 forward $143 $-1 #
coedge $-1 $229 $229 $144 $230 forward $224 $-1 #
edge $-1 $344 9.3319220423535563e-016 $344 6.2831853071796013 $229 $345 forward 7 unknown #
face $-1 $346 $347 $48 $-1 $348 forward single #
loop $-1 $-1 $349 $145 #
plane-surface $-1 0 0 12.843052327654092 0 0 1 1 0 0 forward_v I I I I #
coedge $-1 $350 $351 $352 $353 reversed $146 $-1 #
coedge $-1 $236 $148 $354 $355 reversed $93 $-1 #
coedge $-1 $148 $235 $349 $356 reversed $93 $-1 #
coedge $-1 $357 $358 $148 $238 forward $359 $-1 #
edge $-1 $360 -31.443692838017128 $361 -25.171186595228235 $237 $362 forward 7 unknown #
loop $-1 $-1 $244 $149 #
plane-surface $-1 -7.0085797361577917 -30.120480665658064 6.5705460848651995 0 -0.78801076186113728 0.61566146476048833 1 0 0 forward_v I I I I #
loop $-1 $-1 $363 $95 #
coedge $-1 $242 $242 $243 $364 reversed $150 $-1 #
coedge $-1 $243 $243 $242 $364 forward $152 $-1 #
coedge $-1 $244 $244 $153 $245 forward $239 $-1 #
edge $-1 $365 9.3319220423535563e-016 $365 6.2831853071796013 $244 $366 forward 7 unknown #
loop $-1 $-1 $251 $154 #
plane-surface $-1 -7.0085797361577917 -30.120480665658064 6.5705460848651995 0 -0.78801076186113728 0.61566146476048833 1 0 0 forward_v I I I I #
loop $-1 $-1 $367 $98 #
coedge $-1 $249 $249 $250 $368 reversed $155 $-1 #
coedge $-1 $250 $250 $249 $368 forward $157 $-1 #
coedge $-1 $251 $251 $158 $252 forward $246 $-1 #
edge $-1 $369 9.3319220423535563e-016 $369 6.2831853071796013 $251 $370 forward 7 unknown #
loop $-1 $-1 $258 $159 #
plane-surface $-1 -7.0085797361577917 -30.120480665658064 6.5705460848651995 0 -0.78801076186113728 0.61566146476048833 1 0 0 forward_v I I I I #
loop $-1 $-1 $371 $101 #
coedge $-1 $256 $256 $257 $372 reversed $160 $-1 #
coedge $-1 $257 $257 $256 $372 forward $162 $-1 #
coedge $-1 $258 $258 $163 $259 forward $253 $-1 #
edge $-1 $373 9.3319220423535563e-016 $373 6.2831853071796013 $258 $374 forward 7 unknown #
face $-1 $375 $376 $39 $-1 $377 reversed single #
loop $-1 $-1 $378 $164 #
plane-surface $-1 -56.409192175054173 0 0 1 0 0 0 0 -1 forward_v I I I I #
coedge $-1 $379 $271 $380 $381 forward $165 $-1 #
coedge $-1 $382 $167 $379 $383 forward $105 $-1 #
coedge $-1 $167 $382 $384 $385 forward $105 $-1 #
coedge $-1 $274 $273 $167 $267 reversed $275 $-1 #
edge $-1 $386 -30.120480665658064 $387 30.120480665658064 $266 $388 forward 7 unknown #
coedge $-1 $169 $168 $389 $390 forward $66 $-1 #
coedge $-1 $391 $392 $168 $270 reversed $376 $-1 #
edge $-1 $277 -56.409192175054173 $393 56.409192175054173 $269 $394 forward 7 unknown #
coedge $-1 $263 $395 $169 $272 reversed $165 $-1 #
edge $-1 $396 -56.409192175054173 $276 56.409192175054173 $271 $397 forward 7 unknown #
coedge $-1 $266 $170 $395 $398 forward $275 $-1 #
coedge $-1 $170 $266 $391 $399 reversed $275 $-1 #
loop $-1 $-1 $273 $375 #
vertex $-1 $171 $400 #
vertex $-1 $171 $401 #
straight-curve $-1 56.409192175054173 0 12.843052327654092 0 1 0 I I #
face $-1 $402 $403 $40 $-1 $404 reversed single #
loop $-1 $-1 $405 $172 #
plane-surface $-1 -56.409192175054173 0 0 1 0 0 0 0 -1 forward_v I I I I #
coedge $-1 $290 $406 $284 $407 forward $173 $-1 #
coedge $-1 $178 $175 $408 $409 reversed $109 $-1 #
coedge $-1 $175 $178 $282 $407 reversed $109 $-1 #
coedge $-1 $410 $411 $175 $286 forward $412 $-1 #
edge $-1 $413 -12.843052327654092 $414 12.843052327654092 $285 $415 forward 7 unknown #
coedge $-1 $177 $176 $405 $416 reversed $69 $-1 #
coedge $-1 $408 $417 $176 $289 forward $403 $-1 #
edge $-1 $418 -30.355970991874059 $293 -21.750471374486168 $288 $419 forward 7 unknown #
coedge $-1 $420 $282 $177 $291 forward $173 $-1 #
edge $-1 $292 21.750471374486168 $421 30.355970991874059 $290 $422 forward 7 unknown #
vertex $-1 $291 $423 #
vertex $-1 $289 $424 #
straight-curve $-1 -47.803692557666281 -26.760599896496515 0 0 0 -1 I I #
face $-1 $-1 $307 $41 $-1 $425 forward single #
loop $-1 $-1 $426 $180 #
plane-surface $-1 0 30.120480665658064 0 0 -1 0 0 0 -1 forward_v I I I I #
coedge $-1 $427 $428 $429 $430 reversed $181 $-1 #
coedge $-1 $431 $183 $185 $305 forward $113 $-1 #
coedge $-1 $183 $431 $427 $432 forward $113 $-1 #
coedge $-1 $429 $186 $183 $302 forward $307 $-1 #
edge $-1 $309 -29.585021700782555 $433 -6.8523200129848938 $301 $434 forward 7 unknown #
coedge $-1 $435 $436 $184 $304 forward $296 $-1 #
edge $-1 $437 -59.821243101209511 $308 -53.325843556405843 $303 $438 forward 7 unknown #
edge $-1 $309 49.690683745874651 $437 60.240961331316129 $185 $439 forward 7 unknown #
coedge $-1 $186 $429 $435 $440 forward $307 $-1 #
loop $-1 $-1 $429 $295 #
vertex $-1 $304 $441 #
vertex $-1 $187 $442 #
straight-curve $-1 -47.803692557666281 26.053944758116991 12.843052327654092 0 -1 0 I I #
coedge $-1 $311 $311 $-1 $443 reversed $190 $-1 #
edge $-1 $444 0 $444 6.2831853071796004 $191 $445 forward 7 unknown #
vertex $-1 $194 $446 #
ellipse-curve $-1 -41.308634932581235 25.963614602046153 9.5953525552522674 0 0.61566148304635926 0.78801074757464917 2.5 0 0 1 I I #
coedge $-1 $315 $315 $-1 $447 reversed $197 $-1 #
edge $-1 $448 0 $448 6.2831853071796004 $198 $449 forward 7 unknown #
vertex $-1 $201 $450 #
ellipse-curve $-1 -31.566048494953662 25.963614602046153 9.5953525552522674 0 0.61566148304635926 0.78801074757464917 2.5 0 0 1 I I #
face $-1 $-1 $451 $44 $-1 $452 reversed single #
loop $-1 $-1 $208 $202 #
plane-surface $-1 0 0 12.843052327654092 0 0 1 1 0 0 forward_v I I I I #
coedge $-1 $453 $454 $455 $456 reversed $203 $-1 #
coedge $-1 $457 $205 $207 $329 forward $127 $-1 #
coedge $-1 $205 $457 $453 $458 forward $127 $-1 #
coedge $-1 $455 $208 $205 $326 forward $320 $-1 #
edge $-1 $332 -7.8070396767728418 $459 14.815619412930634 $325 $460 forward 7 unknown #
coedge $-1 $461 $462 $206 $328 forward $451 $-1 #
edge $-1 $463 -31.443692838017128 $331 -25.171186595228235 $327 $464 forward 7 unknown #
edge $-1 $332 -7.9599245928753311 $463 0 $207 $465 forward 7 unknown #
coedge $-1 $208 $455 $461 $466 forward $320 $-1 #
vertex $-1 $209 $467 #
vertex $-1 $209 $468 #
straight-curve $-1 4.302749808693946 -59.511290834664777 12.843052327654092 0 1 0 I I #
coedge $-1 $334 $334 $-1 $469 reversed $212 $-1 #
edge $-1 $470 0 $470 6.2831853071796004 $213 $471 forward 7 unknown #
vertex $-1 $216 $472 #
ellipse-curve $-1 -13.795377463068832 -27.670171248541735 9.7067992062596478 0 -0.78801076186113728 0.61566146476048833 1.5 0 0 1 I I #
coedge $-1 $338 $338 $-1 $473 reversed $219 $-1 #
edge $-1 $474 0 $474 6.2831853071796004 $220 $475 forward 7 unknown #
vertex $-1 $223 $476 #
ellipse-curve $-1 -7.0085797361577846 -27.670171248541735 9.7067992062596478 0 -0.78801076186113728 0.61566146476048833 1.5 0 0 1 I I #
coedge $-1 $342 $342 $-1 $477 reversed $226 $-1 #
edge $-1 $478 0 $478 6.2831853071796004 $227 $479 forward 7 unknown #
vertex $-1 $230 $480 #
ellipse-curve $-1 -0.22178200924673774 -27.670171248541735 9.7067992062596478 0 -0.78801076186113728 0.61566146476048833 1.5 0 0 1 I I #
face $-1 $-1 $359 $48 $-1 $481 reversed single #
loop $-1 $-1 $482 $231 #
plane-surface $-1 4.302749808693946 -119.02258166932955 76.028477845764655 -1 0 0 0 -0.78801076186113728 0.61566146476048833 forward_v I I I I #
coedge $-1 $483 $484 $236 $356 forward $232 $-1 #
coedge $-1 $354 $234 $483 $485 reversed $146 $-1 #
coedge $-1 $234 $354 $358 $486 reversed $146 $-1 #
coedge $-1 $487 $482 $234 $353 forward $347 $-1 #
edge $-1 $488 -7.9599245928753311 $489 0 $352 $490 forward 7 unknown #
coedge $-1 $351 $350 $235 $355 forward $146 $-1 #
edge $-1 $491 -7.9599245928753311 $360 0 $235 $492 forward 7 unknown #
edge $-1 $361 29.390810169006713 $491 34.291429003239372 $349 $493 forward 7 unknown #
coedge $-1 $494 $237 $484 $495 reversed $359 $-1 #
coedge $-1 $237 $494 $351 $486 forward $359 $-1 #
loop $-1 $-1 $237 $346 #
vertex $-1 $238 $496 #
vertex $-1 $238 $497 #
straight-curve $-1 26.925408898397428 -30.120480665658064 38.014238922882328 0 0 1 I I #
coedge $-1 $363 $363 $-1 $498 reversed $241 $-1 #
edge $-1 $499 0 $499 6.2831853071796004 $242 $500 forward 7 unknown #
vertex $-1 $245 $501 #
ellipse-curve $-1 8.8272816266346439 -27.670171248541735 9.7067992062596478 0 -0.78801076186113728 0.61566146476048833 1.5 0 0 1 I I #
coedge $-1 $367 $367 $-1 $502 reversed $248 $-1 #
edge $-1 $503 0 $503 6.2831853071796004 $249 $504 forward 7 unknown #
vertex $-1 $252 $505 #
ellipse-curve $-1 15.614079353545705 -27.670171248541735 9.7067992062596478 0 -0.78801076186113728 0.61566146476048833 1.5 0 0 1 I I #
coedge $-1 $371 $371 $-1 $506 reversed $255 $-1 #
edge $-1 $507 0 $507 6.2831853071796004 $256 $508 forward 7 unknown #
vertex $-1 $259 $509 #
ellipse-curve $-1 22.400877080456738 -27.670171248541735 9.7067992062596478 0 -0.78801076186113728 0.61566146476048833 1.5 0 0 1 I I #
face $-1 $-1 $275 $39 $-1 $510 reversed single #
loop $-1 $-1 $391 $260 #
plane-surface $-1 0 30.120480665658064 0 0 -1 0 0 0 -1 forward_v I I I I #
coedge $-1 $511 $389 $392 $512 forward $261 $-1 #
coedge $-1 $395 $263 $264 $383 reversed $165 $-1 #
coedge $-1 $389 $511 $263 $381 reversed $261 $-1 #
edge $-1 $396 -12.843052327654092 $513 12.843052327654092 $380 $514 forward 7 unknown #
coedge $-1 $265 $264 $511 $515 forward $105 $-1 #
edge $-1 $387 -56.409192175054173 $513 56.409192175054173 $379 $516 forward 7 unknown #
coedge $-1 $392 $391 $265 $385 reversed $376 $-1 #
edge $-1 $517 -56.409192175054173 $386 56.409192175054173 $384 $518 forward 7 unknown #
vertex $-1 $267 $519 #
vertex $-1 $398 $520 #
straight-curve $-1 56.409192175054173 0 -12.843052327654092 0 -1 0 I I #
coedge $-1 $378 $380 $268 $390 reversed $261 $-1 #
edge $-1 $393 -30.120480665658064 $396 30.120480665658064 $389 $521 forward 7 unknown #
coedge $-1 $384 $269 $274 $399 forward $376 $-1 #
coedge $-1 $269 $384 $378 $512 reversed $376 $-1 #
vertex $-1 $270 $522 #
straight-curve $-1 0 30.120480665658064 12.843052327654092 -1 0 0 I I #
coedge $-1 $271 $379 $273 $398 reversed $165 $-1 #
vertex $-1 $390 $523 #
straight-curve $-1 0 -30.120480665658064 12.843052327654092 1 0 0 I I #
edge $-1 $276 -12.843052327654092 $387 12.843052327654092 $273 $524 forward 7 unknown #
edge $-1 $277 -12.843052327654092 $386 12.843052327654092 $274 $525 forward 7 unknown #
point $-1 56.409192175054173 -30.120480665658064 12.843052327654092 #
point $-1 56.409192175054173 30.120480665658064 12.843052327654092 #
face $-1 $-1 $412 $40 $-1 $526 reversed single #
loop $-1 $-1 $408 $279 #
plane-surface $-1 0 0 -12.843052327654092 0 0 1 1 0 0 forward_v I I I I #
coedge $-1 $527 $528 $287 $416 forward $280 $-1 #
coedge $-1 $282 $420 $410 $529 forward $173 $-1 #
edge $-1 $414 -15.900210525119419 $292 -12.54032975595787 $282 $530 forward 7 unknown #
coedge $-1 $531 $288 $283 $409 forward $403 $-1 #
edge $-1 $293 12.54032975595787 $413 15.900210525119419 $408 $532 forward 7 unknown #
coedge $-1 $533 $285 $406 $529 reversed $412 $-1 #
coedge $-1 $285 $533 $531 $534 reversed $412 $-1 #
loop $-1 $-1 $285 $402 #
vertex $-1 $534 $535 #
vertex $-1 $286 $536 #
straight-curve $-1 -47.803692557666281 -30.120480665658064 0 0 0 1 I I #
edge $-1 $421 -12.843052327654092 $418 12.843052327654092 $405 $537 forward 7 unknown #
coedge $-1 $288 $531 $527 $538 forward $403 $-1 #
vertex $-1 $289 $539 #
straight-curve $-1 -26.053221183180113 -26.760599896496515 -12.843052327654092 1 0 0 I I #
coedge $-1 $406 $290 $528 $540 forward $173 $-1 #
vertex $-1 $540 $541 #
straight-curve $-1 -26.053221183180113 -26.760599896496515 12.843052327654092 -1 0 0 I I #
point $-1 -47.803692557666281 -26.760599896496515 12.843052327654092 #
point $-1 -47.803692557666281 -26.760599896496515 -12.843052327654092 #
plane-surface $-1 0 0 12.843052327654092 0 0 1 1 0 0 forward_v I I I I #
coedge $-1 $436 $435 $428 $542 forward $296 $-1 #
coedge $-1 $428 $298 $300 $432 reversed $181 $-1 #
coedge $-1 $298 $427 $426 $542 reversed $181 $-1 #
coedge $-1 $306 $301 $298 $430 forward $307 $-1 #
edge $-1 $433 -4.2471962196827278 $543 4.0665359075410734 $429 $544 forward 7 unknown #
coedge $-1 $300 $299 $436 $545 reversed $113 $-1 #
edge $-1 $546 -60.240961331316129 $433 -49.690683745874651 $427 $547 forward 7 unknown #
vertex $-1 $302 $548 #
straight-curve $-1 -18.218670856883726 21.806748538434256 12.843052327654092 1 0 0 I I #
coedge $-1 $426 $303 $306 $440 reversed $296 $-1 #
coedge $-1 $303 $426 $431 $545 forward $296 $-1 #
vertex $-1 $304 $549 #
straight-curve $-1 -47.803692557666281 30.120480665658064 66.168895884059935 0 0 1 I I #
straight-curve $-1 -47.803692557666281 -17.350044307647892 43.435692376226896 0 0.78801074757464917 -0.61566148304635926 I I #
edge $-1 $543 25.07099086986862 $308 47.803692557666281 $435 $550 forward 7 unknown #
point $-1 -47.803692557666281 30.120480665658064 12.843052327654092 #
point $-1 -47.803692557666281 21.806748538434263 12.843052327654089 #
edge $-1 $551 1 $551 0 $311 $-1 forward 7 unknown #
vertex $-1 $312 $552 #
ellipse-curve $-1 -41.308634932581235 22.983010354996992 5.7803531674076298 0 0.61566148304635926 0.78801074757464917 2.5 0 0 1 I I #
point $-1 -38.808634932581235 25.963614602046135 9.5953525552522443 #
edge $-1 $553 1 $553 0 $315 $-1 forward 7 unknown #
vertex $-1 $316 $554 #
ellipse-curve $-1 -31.566048494953662 22.983010354996992 5.7803531674076298 0 0.61566148304635926 0.78801074757464917 2.5 0 0 1 I I #
point $-1 -29.066048494953662 25.963614602046135 9.5953525552522443 #
loop $-1 $-1 $327 $319 #
plane-surface $-1 0 -30.120480665658064 0 0 1 0 0 0 1 forward_v I I I I #
coedge $-1 $454 $322 $324 $458 reversed $203 $-1 #
coedge $-1 $322 $453 $555 $556 reversed $203 $-1 #
coedge $-1 $330 $325 $322 $456 forward $320 $-1 #
edge $-1 $459 -34.291429003239372 $557 -29.390810169006713 $455 $558 forward 7 unknown #
coedge $-1 $324 $323 $462 $559 reversed $127 $-1 #
edge $-1 $560 0 $459 7.9599245928753311 $453 $561 forward 7 unknown #
vertex $-1 $326 $562 #
straight-curve $-1 -3.5042898680788959 -25.219861831425405 12.843052327654092 -1 0 0 I I #
coedge $-1 $555 $327 $330 $466 reversed $451 $-1 #
coedge $-1 $327 $555 $457 $559 forward $451 $-1 #
vertex $-1 $328 $563 #
straight-curve $-1 4.302749808693946 -30.120480665658064 38.014238922882328 0 0 1 I I #
straight-curve $-1 4.302749808693946 -30.120480665658064 6.5705460848651995 0 -0.61566146476048833 -0.78801076186113728 I I #
edge $-1 $557 -18.319909281009529 $331 4.302749808693946 $461 $564 forward 7 unknown #
point $-1 4.302749808693946 -30.120480665658064 12.843052327654092 #
point $-1 4.302749808693946 -25.219861831425405 12.843052327654092 #
edge $-1 $565 1 $565 0 $334 $-1 forward 7 unknown #
vertex $-1 $335 $566 #
ellipse-curve $-1 -13.795377463068832 -26.000407058425381 8.4022364809185959 0 -0.78801076186113728 0.61566146476048833 1.5 0 0 1 I I #
point $-1 -12.295377463068832 -27.670171248541735 9.7067992062596495 #
edge $-1 $567 1 $567 0 $338 $-1 forward 7 unknown #
vertex $-1 $339 $568 #
ellipse-curve $-1 -7.0085797361577846 -26.000407058425381 8.4022364809185959 0 -0.78801076186113728 0.61566146476048833 1.5 0 0 1 I I #
point $-1 -5.5085797361577846 -27.670171248541735 9.7067992062596495 #
edge $-1 $569 1 $569 0 $342 $-1 forward 7 unknown #
vertex $-1 $343 $570 #
ellipse-curve $-1 -0.22178200924673774 -26.000407058425381 8.4022364809185959 0 -0.78801076186113728 0.61566146476048833 1.5 0 0 1 I I #
point $-1 1.2782179907532623 -27.670171248541735 9.7067992062596495 #
plane-surface $-1 0 -30.120480665658064 0 0 1 0 0 0 1 forward_v I I I I #
coedge $-1 $352 $487 $571 $572 reversed $347 $-1 #
coedge $-1 $571 $349 $350 $485 forward $232 $-1 #
coedge $-1 $349 $571 $357 $495 forward $232 $-1 #
edge $-1 $491 -30.429698766476324 $488 -7.8070396767728418 $483 $573 forward 7 unknown #
edge $-1 $489 7.8070396767728418 $360 30.429698766476324 $358 $574 forward 7 unknown #
coedge $-1 $482 $352 $494 $575 reversed $347 $-1 #
vertex $-1 $485 $576 #
vertex $-1 $486 $577 #
straight-curve $-1 4.302749808693946 -30.120480665658064 6.5705460848651995 0 -0.61566146476048833 -0.78801076186113728 I I #
vertex $-1 $356 $578 #
straight-curve $-1 26.925408898397428 -30.120480665658064 6.5705460848651995 0 -0.61566146476048833 -0.78801076186113728 I I #
straight-curve $-1 26.925408898397428 -59.511290834664777 12.843052327654092 0 1 0 I I #
coedge $-1 $358 $357 $487 $575 forward $359 $-1 #
edge $-1 $579 4.302749808693946 $361 26.925408898397428 $357 $580 forward 7 unknown #
point $-1 26.925408898397428 -30.120480665658064 6.5705460848651995 #
point $-1 26.925408898397428 -30.120480665658064 12.843052327654092 #
edge $-1 $581 1 $581 0 $363 $-1 forward 7 unknown #
vertex $-1 $364 $582 #
ellipse-curve $-1 8.8272816266346439 -26.000407058425381 8.4022364809185959 0 -0.78801076186113728 0.61566146476048833 1.5 0 0 1 I I #
point $-1 10.327281626634644 -27.670171248541735 9.7067992062596495 #
edge $-1 $583 1 $583 0 $367 $-1 forward 7 unknown #
vertex $-1 $368 $584 #
ellipse-curve $-1 15.614079353545705 -26.000407058425381 8.4022364809185959 0 -0.78801076186113728 0.61566146476048833 1.5 0 0 1 I I #
point $-1 17.114079353545705 -27.670171248541735 9.7067992062596495 #
edge $-1 $585 1 $585 0 $371 $-1 forward 7 unknown #
vertex $-1 $372 $586 #
ellipse-curve $-1 22.400877080456738 -26.000407058425381 8.4022364809185959 0 -0.78801076186113728 0.61566146476048833 1.5 0 0 1 I I #
point $-1 23.900877080456738 -27.670171248541735 9.7067992062596495 #
plane-surface $-1 56.409192175054173 0 0 -1 0 0 0 0 1 forward_v I I I I #
coedge $-1 $380 $378 $382 $515 reversed $261 $-1 #
edge $-1 $393 -12.843052327654092 $517 12.843052327654092 $392 $587 forward 7 unknown #
vertex $-1 $515 $588 #
straight-curve $-1 -56.409192175054173 -30.120480665658064 0 0 0 -1 I I #
edge $-1 $513 -30.120480665658064 $517 30.120480665658064 $511 $589 forward 7 unknown #
straight-curve $-1 0 -30.120480665658064 -12.843052327654092 -1 0 0 I I #
vertex $-1 $385 $590 #
straight-curve $-1 0 30.120480665658064 -12.843052327654092 1 0 0 I I #
point $-1 56.409192175054173 30.120480665658064 -12.843052327654092 #
point $-1 56.409192175054173 -30.120480665658064 -12.843052327654092 #
straight-curve $-1 -56.409192175054173 0 12.843052327654092 0 -1 0 I I #
point $-1 -56.409192175054173 30.120480665658064 12.843052327654092 #
point $-1 -56.409192175054173 -30.120480665658064 12.843052327654092 #
straight-curve $-1 56.409192175054173 -30.120480665658064 0 0 0 -1 I I #
straight-curve $-1 56.409192175054173 30.120480665658064 0 0 0 -1 I I #
plane-surface $-1 0 -30.120480665658064 0 0 1 0 0 0 1 forward_v I I I I #
coedge $-1 $591 $405 $417 $538 reversed $280 $-1 #
coedge $-1 $405 $591 $420 $540 reversed $280 $-1 #
edge $-1 $592 -56.409192175054173 $414 -47.803692557666281 $410 $593 forward 7 unknown #
straight-curve $-1 -47.803692557666281 -14.220270140538645 12.843052327654092 0 1 0 I I #
coedge $-1 $417 $408 $411 $534 forward $403 $-1 #
straight-curve $-1 -47.803692557666281 -14.220270140538645 -12.843052327654092 0 -1 0 I I #
coedge $-1 $411 $410 $591 $594 forward $412 $-1 #
edge $-1 $413 47.803692557666281 $595 56.409192175054173 $411 $596 forward 7 unknown #
point $-1 -47.803692557666281 -30.120480665658064 -12.843052327654092 #
point $-1 -47.803692557666281 -30.120480665658064 12.843052327654092 #
straight-curve $-1 -56.409192175054173 -26.760599896496515 0 0 0 -1 I I #
edge $-1 $595 -30.120480665658064 $418 -26.760599896496515 $527 $597 forward 7 unknown #
point $-1 -56.409192175054173 -26.760599896496515 -12.843052327654092 #
edge $-1 $421 26.760599896496515 $592 30.120480665658064 $528 $598 forward 7 unknown #
point $-1 -56.409192175054173 -26.760599896496515 12.843052327654092 #
edge $-1 $543 53.325843556405843 $546 59.821243101209511 $426 $599 forward 7 unknown #
vertex $-1 $440 $600 #
straight-curve $-1 -25.07099086986862 26.053944758116991 12.843052327654092 0 1 0 I I #
edge $-1 $546 6.8523200129848938 $437 29.585021700782555 $436 $601 forward 7 unknown #
vertex $-1 $545 $602 #
straight-curve $-1 -25.07099086986862 -17.350044307647892 43.435692376226896 0 -0.78801074757464917 0.61566148304635926 I I #
point $-1 -25.07099086986862 21.806748538434263 12.843052327654089 #
point $-1 -47.803692557666281 30.120480665658064 6.3476527828504246 #
straight-curve $-1 0 30.120480665658064 12.843052327654092 -1 0 0 I I #
vertex $-1 $443 $603 #
point $-1 -38.808634932581235 22.983010354996992 5.7803531674076298 #
vertex $-1 $447 $604 #
point $-1 -29.066048494953662 22.983010354996992 5.7803531674076298 #
coedge $-1 $462 $461 $454 $556 forward $451 $-1 #
edge $-1 $557 25.171186595228235 $560 31.443692838017128 $555 $605 forward 7 unknown #
vertex $-1 $466 $606 #
straight-curve $-1 -18.319909281009529 -59.511290834664777 12.843052327654092 0 -1 0 I I #
edge $-1 $560 -14.815619412930634 $463 7.8070396767728418 $462 $607 forward 7 unknown #
vertex $-1 $559 $608 #
straight-curve $-1 -18.319909281009529 -30.120480665658064 6.5705460848651995 0 0.61566146476048833 0.78801076186113728 I I #
point $-1 -18.319909281009529 -25.219861831425405 12.843052327654092 #
point $-1 4.302749808693946 -30.120480665658064 6.5705460848651995 #
straight-curve $-1 0 -30.120480665658064 12.843052327654092 1 0 0 I I #
vertex $-1 $469 $609 #
point $-1 -12.295377463068832 -26.000407058425381 8.4022364809185959 #
vertex $-1 $473 $610 #
point $-1 -5.5085797361577846 -26.000407058425381 8.4022364809185959 #
vertex $-1 $477 $611 #
point $-1 1.2782179907532623 -26.000407058425381 8.4022364809185959 #
coedge $-1 $484 $483 $482 $572 forward $232 $-1 #
edge $-1 $488 -34.291429003239372 $579 -29.390810169006713 $571 $612 forward 7 unknown #
straight-curve $-1 -3.5042898680788959 -25.219861831425405 12.843052327654092 -1 0 0 I I #
straight-curve $-1 -3.5042898680788959 -30.120480665658064 6.5705460848652013 1 0 0 I I #
edge $-1 $579 25.171186595228235 $489 31.443692838017128 $494 $613 forward 7 unknown #
point $-1 4.302749808693946 -25.219861831425405 12.843052327654092 #
point $-1 4.302749808693946 -30.120480665658064 6.5705460848651995 #
point $-1 26.925408898397428 -25.219861831425405 12.843052327654092 #
vertex $-1 $495 $614 #
straight-curve $-1 0 -30.120480665658064 12.843052327654092 1 0 0 I I #
vertex $-1 $498 $615 #
point $-1 10.327281626634644 -26.000407058425381 8.4022364809185959 #
vertex $-1 $502 $616 #
point $-1 17.114079353545705 -26.000407058425381 8.4022364809185959 #
vertex $-1 $506 $617 #
point $-1 23.900877080456738 -26.000407058425381 8.4022364809185959 #
straight-curve $-1 -56.409192175054173 30.120480665658064 0 0 0 -1 I I #
point $-1 -56.409192175054173 -30.120480665658064 -12.843052327654092 #
straight-curve $-1 -56.409192175054173 0 -12.843052327654092 0 1 0 I I #
point $-1 -56.409192175054173 30.120480665658064 -12.843052327654092 #
coedge $-1 $528 $527 $533 $594 reversed $280 $-1 #
vertex $-1 $540 $618 #
straight-curve $-1 0 -30.120480665658064 12.843052327654092 1 0 0 I I #
edge $-1 $592 -12.843052327654092 $595 12.843052327654092 $591 $619 forward 7 unknown #
vertex $-1 $538 $620 #
straight-curve $-1 0 -30.120480665658064 -12.843052327654092 -1 0 0 I I #
straight-curve $-1 -56.409192175054173 0 -12.843052327654092 0 1 0 I I #
straight-curve $-1 -56.409192175054173 0 12.843052327654092 0 -1 0 I I #
straight-curve $-1 -25.07099086986862 30.120480665658064 66.168895884059935 0 0 -1 I I #
point $-1 -25.07099086986862 30.120480665658064 12.843052327654092 #
straight-curve $-1 -18.218670856883726 30.120480665658064 6.3476527828504246 -1 0 0 I I #
point $-1 -25.07099086986862 30.120480665658064 6.3476527828504246 #
point $-1 -41.308634932581235 21.443856647381097 3.8103262984710069 #
point $-1 -31.566048494953662 21.443856647381097 3.8103262984710069 #
straight-curve $-1 -18.319909281009529 -30.120480665658064 38.014238922882328 0 0 -1 I I #
point $-1 -18.319909281009529 -30.120480665658064 12.843052327654092 #
straight-curve $-1 -3.5042898680788959 -30.120480665658064 6.5705460848652013 1 0 0 I I #
point $-1 -18.319909281009529 -30.120480665658064 6.5705460848651995 #
point $-1 -13.795377463068832 -24.818390915633678 7.4787442837778642 #
point $-1 -7.0085797361577846 -24.818390915633678 7.4787442837778642 #
point $-1 -0.22178200924673774 -24.818390915633678 7.4787442837778642 #
straight-curve $-1 4.302749808693946 -59.511290834664777 12.843052327654092 0 -1 0 I I #
straight-curve $-1 4.302749808693946 -30.120480665658064 38.014238922882328 0 0 -1 I I #
point $-1 4.302749808693946 -30.120480665658064 12.843052327654092 #
point $-1 8.8272816266346439 -24.818390915633678 7.4787442837778642 #
point $-1 15.614079353545705 -24.818390915633678 7.4787442837778642 #
point $-1 22.400877080456738 -24.818390915633678 7.4787442837778642 #
point $-1 -56.409192175054173 -30.120480665658064 12.843052327654092 #
straight-curve $-1 -56.409192175054173 -30.120480665658064 0 0 0 -1 I I #
point $-1 -56.409192175054173 -30.120480665658064 -12.843052327654092 #
End-of-ACIS-data 