500 0 6 0           
7 Unknown 11 ACIS 5.0 NT 24 Fri Mar 26 01:32:42 1999 
-1 9.9999999999999995e-007 1e-010 
body $-1 $6 $-1 $7 #
body $-1 $8 $-1 $9 #
body $-1 $10 $-1 $11 #
body $-1 $12 $-1 $13 #
body $-1 $14 $-1 $15 #
body $-1 $16 $-1 $17 #
lump $-1 $-1 $18 $0 #
transform $-1 1 0 0 0 1 0 0 0 1 64.26587725455488 42.120068165163687 12.360550293361644 1 rotate no_reflect no_shear #
lump $-1 $-1 $19 $1 #
transform $-1 1 0 0 0 1 0 0 0 1 64.26587725455488 42.120068165163687 12.360550293361644 1 rotate no_reflect no_shear #
lump $-1 $-1 $20 $2 #
transform $-1 1 0 0 0 1 0 0 0 1 64.26587725455488 42.120068165163687 12.360550293361644 1 rotate no_reflect no_shear #
lump $-1 $-1 $21 $3 #
transform $-1 1 0 0 0 1 0 0 0 1 64.26587725455488 42.120068165163687 12.360550293361644 1 rotate no_reflect no_shear #
lump $-1 $-1 $22 $4 #
transform $-1 1 0 0 0 1 0 0 0 1 64.26587725455488 42.120068165163687 12.360550293361644 1 rotate no_reflect no_shear #
lump $-1 $-1 $23 $5 #
transform $-1 1 0 0 0 1 0 0 0 1 64.26587725455488 42.120068165163687 12.360550293361644 1 rotate no_reflect no_shear #
shell $-1 $-1 $-1 $24 $-1 $6 #
shell $-1 $-1 $-1 $25 $-1 $8 #
shell $-1 $-1 $-1 $26 $-1 $10 #
shell $-1 $-1 $-1 $27 $-1 $12 #
shell $-1 $-1 $-1 $28 $-1 $14 #
shell $-1 $-1 $-1 $29 $-1 $16 #
face $-1 $30 $31 $18 $-1 $32 forward single #
face $-1 $33 $34 $19 $-1 $35 forward single #
face $-1 $36 $37 $20 $-1 $38 reversed single #
face $-1 $39 $40 $21 $-1 $41 forward single #
face $-1 $42 $43 $22 $-1 $44 reversed single #
face $-1 $45 $46 $23 $-1 $47 forward single #
face $-1 $48 $49 $18 $-1 $50 reversed single #
loop $-1 $-1 $51 $24 #
plane-surface $-1 0 0 12.360550293361644 0 0 1 1 0 0 forward_v I I I I #
face $-1 $52 $53 $19 $-1 $54 reversed single #
loop $-1 $-1 $55 $25 #
plane-surface $-1 0 -34.284146213982389 -6.8268774983715836 0 0 1 1 0 0 forward_v I I I I #
face $-1 $56 $57 $20 $-1 $58 reversed single #
loop $-1 $-1 $59 $26 #
plane-surface $-1 17.219991269334741 -19.011639613126725 178.22066145257986 0 -1 0 -0.50000000669873634 0 -0.8660253999169214 forward_v I I I I #
face $-1 $60 $61 $21 $-1 $62 forward single #
loop $-1 $63 $64 $27 #
cone-surface $-1 54.672398202796956 -22.729931937963904 5.4616879875436908 -0.50000000669873634 0 -0.8660253999169214 1.2990380998753821 0 -0.75000001004810457 1 I I 0 1 1.5 forward I I I I #
face $-1 $65 $66 $22 $-1 $67 reversed single #
loop $-1 $-1 $68 $28 #
plane-surface $-1 17.219991269334741 34.683483515489343 178.22066145257986 0 1 0 0.50000000669873634 0 0.8660253999169214 forward_v I I I I #
face $-1 $69 $70 $23 $-1 $71 forward single #
loop $-1 $72 $73 $29 #
cone-surface $-1 54.672398202796956 38.401775840326522 5.4616879875436908 -0.50000000669873634 0 -0.8660253999169214 1.2990380998753821 0 -0.75000001004810457 1 I I 0 1 1.5 forward I I I I #
face $-1 $74 $75 $18 $-1 $76 reversed single #
loop $-1 $-1 $77 $30 #
plane-surface $-1 0 0 -12.360550293361644 0 0 1 1 0 0 forward_v I I I I #
coedge $-1 $78 $79 $80 $81 forward $31 $-1 #
face $-1 $82 $83 $19 $-1 $84 reversed single #
loop $-1 $-1 $85 $33 #
plane-surface $-1 0 -26.448224262801087 -9.5937138958666139 0 -1 0 0 0 -1 forward_v I I I I #
coedge $-1 $86 $87 $88 $89 reversed $34 $-1 #
face $-1 $90 $91 $20 $-1 $92 reversed single #
loop $-1 $-1 $93 $36 #
plane-surface $-1 -47.045886846220469 -22.729931937963904 66.908897351804512 0.50000000669873634 0 0.8660253999169214 0.8660253999169214 0 -0.50000000669873634 forward_v I I I I #
coedge $-1 $94 $95 $96 $97 reversed $37 $-1 #
face $-1 $-1 $98 $21 $-1 $99 forward single #
loop $-1 $100 $101 $39 #
cone-surface $-1 53.119547753207627 -22.729931937963904 2.7720721603442051 -0.50000000669873634 0 -0.8660253999169214 0.64951904993769105 0 -0.37500000502405229 1 I I -0.70710678118654757 0.70710678118654757 0.75 forward I I I I #
loop $-1 $-1 $102 $27 #
coedge $-1 $64 $64 $103 $104 reversed $40 $-1 #
face $-1 $105 $106 $22 $-1 $107 reversed single #
loop $-1 $-1 $108 $42 #
plane-surface $-1 -47.045886846220469 38.401775840326522 66.908897351804512 0.50000000669873634 0 0.8660253999169214 0.8660253999169214 0 -0.50000000669873634 forward_v I I I I #
coedge $-1 $109 $110 $111 $112 reversed $43 $-1 #
face $-1 $-1 $113 $23 $-1 $114 forward single #
loop $-1 $115 $116 $45 #
cone-surface $-1 53.119547753207627 38.401775840326522 2.7720721603442051 -0.50000000669873634 0 -0.8660253999169214 0.64951904993769105 0 -0.37500000502405229 1 I I -0.70710678118654757 0.70710678118654757 0.75 forward I I I I #
loop $-1 $-1 $117 $29 #
coedge $-1 $73 $73 $118 $119 reversed $46 $-1 #
face $-1 $120 $121 $18 $-1 $122 reversed single #
loop $-1 $-1 $123 $48 #
plane-surface $-1 0 -42.120068165163687 0 0 1 0 0 0 1 forward_v I I I I #
coedge $-1 $124 $125 $126 $127 forward $49 $-1 #
coedge $-1 $128 $51 $129 $130 forward $31 $-1 #
coedge $-1 $51 $128 $131 $132 forward $31 $-1 #
coedge $-1 $133 $134 $51 $81 reversed $135 $-1 #
edge $-1 $136 -42.120068165163687 $137 42.120068165163687 $80 $138 forward 7 unknown #
face $-1 $139 $140 $19 $-1 $141 reversed single #
loop $-1 $-1 $142 $52 #
plane-surface $-1 0 0 -12.360550293361644 0 0 1 1 0 0 forward_v I I I I #
coedge $-1 $143 $144 $145 $146 reversed $53 $-1 #
coedge $-1 $147 $55 $144 $148 forward $34 $-1 #
coedge $-1 $55 $147 $149 $150 reversed $34 $-1 #
coedge $-1 $151 $145 $55 $89 forward $140 $-1 #
edge $-1 $152 9.3061511558098928 $153 24.977995058172493 $88 $154 forward 7 unknown #
face $-1 $155 $156 $20 $-1 $157 reversed single #
loop $-1 $-1 $158 $56 #
plane-surface $-1 17.219991269334741 -26.448224262801084 178.22066145257986 0 1 0 0.50000000669873634 0 0.8660253999169214 forward_v I I I I #
coedge $-1 $159 $160 $161 $162 reversed $57 $-1 #
coedge $-1 $95 $59 $163 $164 reversed $37 $-1 #
coedge $-1 $59 $94 $159 $165 reversed $37 $-1 #
coedge $-1 $161 $166 $59 $97 forward $167 $-1 #
edge $-1 $168 -55.655881619887509 $169 -38.824624405502178 $96 $170 forward 7 unknown #
loop $-1 $-1 $103 $60 #
plane-surface $-1 -47.045886846220469 -22.729931937963904 66.908897351804512 0.50000000669873634 0 0.8660253999169214 0.8660253999169214 0 -0.50000000669873634 forward_v I I I I #
loop $-1 $-1 $171 $39 #
coedge $-1 $101 $101 $102 $172 reversed $61 $-1 #
coedge $-1 $102 $102 $101 $172 forward $63 $-1 #
coedge $-1 $103 $103 $64 $104 forward $98 $-1 #
edge $-1 $173 0 $173 6.2831853071796004 $103 $174 forward 7 unknown #
face $-1 $175 $176 $22 $-1 $177 forward single #
loop $-1 $-1 $111 $65 #
plane-surface $-1 64.26587725455488 0 0 -1 0 0 0 0 1 forward_v I I I I #
coedge $-1 $178 $179 $180 $181 reversed $66 $-1 #
coedge $-1 $110 $68 $182 $183 reversed $43 $-1 #
coedge $-1 $68 $109 $178 $184 reversed $43 $-1 #
coedge $-1 $180 $185 $68 $112 forward $106 $-1 #
edge $-1 $186 76.74978043292829 $187 86.467311490040629 $111 $188 forward 7 unknown #
loop $-1 $-1 $118 $69 #
plane-surface $-1 -47.045886846220469 38.401775840326522 66.908897351804512 0.50000000669873634 0 0.8660253999169214 0.8660253999169214 0 -0.50000000669873634 forward_v I I I I #
loop $-1 $-1 $189 $45 #
coedge $-1 $116 $116 $117 $190 reversed $70 $-1 #
coedge $-1 $117 $117 $116 $190 forward $72 $-1 #
coedge $-1 $118 $118 $73 $119 forward $113 $-1 #
edge $-1 $191 0 $191 6.2831853071796004 $118 $192 forward 7 unknown #
face $-1 $193 $194 $18 $-1 $195 reversed single #
loop $-1 $-1 $196 $74 #
plane-surface $-1 -64.26587725455488 0 0 1 0 0 0 0 -1 forward_v I I I I #
coedge $-1 $197 $131 $198 $199 forward $75 $-1 #
coedge $-1 $200 $77 $197 $201 forward $49 $-1 #
coedge $-1 $77 $200 $202 $203 forward $49 $-1 #
coedge $-1 $134 $133 $77 $127 reversed $135 $-1 #
edge $-1 $204 -42.120068165163687 $205 42.120068165163687 $126 $206 forward 7 unknown #
coedge $-1 $79 $78 $207 $208 forward $31 $-1 #
coedge $-1 $209 $210 $78 $130 reversed $194 $-1 #
edge $-1 $137 -64.26587725455488 $211 64.26587725455488 $129 $212 forward 7 unknown #
coedge $-1 $123 $213 $79 $132 reversed $75 $-1 #
edge $-1 $214 -64.26587725455488 $136 64.26587725455488 $131 $215 forward 7 unknown #
coedge $-1 $126 $80 $213 $216 forward $135 $-1 #
coedge $-1 $80 $126 $209 $217 reversed $135 $-1 #
loop $-1 $-1 $133 $193 #
vertex $-1 $81 $218 #
vertex $-1 $81 $219 #
straight-curve $-1 64.26587725455488 0 12.360550293361644 0 1 0 I I #
face $-1 $220 $221 $19 $-1 $222 reversed single #
loop $-1 $-1 $145 $82 #
plane-surface $-1 64.26587725455488 0 0 -1 0 0 0 0 1 forward_v I I I I #
coedge $-1 $223 $224 $143 $225 forward $83 $-1 #
coedge $-1 $226 $85 $142 $225 reversed $53 $-1 #
coedge $-1 $85 $226 $86 $148 reversed $53 $-1 #
coedge $-1 $88 $227 $85 $146 forward $140 $-1 #
edge $-1 $228 -7.5636933454283373 $152 -2.0300205504382767 $145 $229 forward 7 unknown #
coedge $-1 $87 $86 $230 $231 reversed $34 $-1 #
edge $-1 $152 -64.26587725455488 $232 64.26587725455488 $144 $233 forward 7 unknown #
coedge $-1 $234 $235 $87 $150 forward $221 $-1 #
edge $-1 $153 -64.26587725455488 $236 64.26587725455488 $149 $237 forward 7 unknown #
coedge $-1 $227 $88 $235 $238 forward $140 $-1 #
vertex $-1 $89 $239 #
vertex $-1 $238 $240 #
straight-curve $-1 64.26587725455488 -17.142073106991194 -6.8268774983715836 0 -1 0 I I #
face $-1 $-1 $167 $20 $-1 $241 forward single #
loop $-1 $-1 $242 $90 #
plane-surface $-1 64.26587725455488 0 0 -1 0 0 0 0 1 forward_v I I I I #
coedge $-1 $243 $244 $245 $246 reversed $91 $-1 #
coedge $-1 $247 $93 $95 $165 forward $57 $-1 #
coedge $-1 $93 $247 $243 $248 forward $57 $-1 #
coedge $-1 $245 $96 $93 $162 forward $167 $-1 #
edge $-1 $169 7.6466736441447729 $249 15.083258293819132 $161 $250 forward 7 unknown #
coedge $-1 $251 $252 $94 $164 forward $156 $-1 #
edge $-1 $253 -86.467311490040629 $168 -76.74978043292829 $163 $254 forward 7 unknown #
edge $-1 $169 109.09669265526578 $253 128.53175450910976 $95 $255 forward 7 unknown #
coedge $-1 $96 $245 $251 $256 forward $167 $-1 #
loop $-1 $-1 $245 $155 #
vertex $-1 $164 $257 #
vertex $-1 $97 $258 #
straight-curve $-1 8.6099956346673707 -19.011639613126725 12.360550293361641 -1 0 0 I I #
coedge $-1 $171 $171 $-1 $259 reversed $100 $-1 #
edge $-1 $260 0 $260 6.2831853071796004 $101 $261 forward 7 unknown #
vertex $-1 $104 $262 #
ellipse-curve $-1 55.850248647362221 -22.729931937963904 7.5017847648054641 0.50000000669873634 0 0.8660253999169214 1.2990380998753821 0 -0.75000001004810457 1 I I #
face $-1 $-1 $263 $22 $-1 $264 reversed single #
loop $-1 $-1 $182 $105 #
plane-surface $-1 0 0 12.360550293361644 0 0 1 1 0 0 forward_v I I I I #
coedge $-1 $265 $108 $110 $184 forward $66 $-1 #
coedge $-1 $108 $265 $266 $267 reversed $66 $-1 #
coedge $-1 $268 $111 $108 $181 forward $106 $-1 #
edge $-1 $187 15.482595595326082 $269 22.919180245000426 $180 $270 forward 7 unknown #
coedge $-1 $271 $272 $109 $183 forward $176 $-1 #
edge $-1 $273 38.824624405502178 $186 55.655881619887509 $182 $274 forward 7 unknown #
edge $-1 $187 -128.53175450910976 $273 -109.09669265526578 $110 $275 forward 7 unknown #
coedge $-1 $111 $268 $271 $276 reversed $106 $-1 #
vertex $-1 $276 $277 #
vertex $-1 $112 $278 #
straight-curve $-1 64.26587725455488 34.683483515489343 89.110330726289931 0 0 -1 I I #
coedge $-1 $189 $189 $-1 $279 reversed $115 $-1 #
edge $-1 $280 0 $280 6.2831853071796004 $116 $281 forward 7 unknown #
vertex $-1 $119 $282 #
ellipse-curve $-1 55.850248647362221 38.401775840326522 7.5017847648054641 0.50000000669873634 0 0.8660253999169214 1.2990380998753821 0 -0.75000001004810457 1 I I #
face $-1 $-1 $135 $18 $-1 $283 reversed single #
loop $-1 $-1 $209 $120 #
plane-surface $-1 0 42.120068165163687 0 0 -1 0 0 0 -1 forward_v I I I I #
coedge $-1 $284 $207 $210 $285 forward $121 $-1 #
coedge $-1 $213 $123 $124 $201 reversed $75 $-1 #
coedge $-1 $207 $284 $123 $199 reversed $121 $-1 #
edge $-1 $214 -12.360550293361644 $286 12.360550293361644 $198 $287 forward 7 unknown #
coedge $-1 $125 $124 $284 $288 forward $49 $-1 #
edge $-1 $205 -64.26587725455488 $286 64.26587725455488 $197 $289 forward 7 unknown #
coedge $-1 $210 $209 $125 $203 reversed $194 $-1 #
edge $-1 $290 -64.26587725455488 $204 64.26587725455488 $202 $291 forward 7 unknown #
vertex $-1 $127 $292 #
vertex $-1 $216 $293 #
straight-curve $-1 64.26587725455488 0 -12.360550293361644 0 -1 0 I I #
coedge $-1 $196 $198 $128 $208 reversed $121 $-1 #
edge $-1 $211 -42.120068165163687 $214 42.120068165163687 $207 $294 forward 7 unknown #
coedge $-1 $202 $129 $134 $217 forward $194 $-1 #
coedge $-1 $129 $202 $196 $285 reversed $194 $-1 #
vertex $-1 $130 $295 #
straight-curve $-1 0 42.120068165163687 12.360550293361644 -1 0 0 I I #
coedge $-1 $131 $197 $133 $216 reversed $75 $-1 #
vertex $-1 $208 $296 #
straight-curve $-1 0 -42.120068165163687 12.360550293361644 1 0 0 I I #
edge $-1 $136 -12.360550293361644 $205 12.360550293361644 $133 $297 forward 7 unknown #
edge $-1 $137 -12.360550293361644 $204 12.360550293361644 $134 $298 forward 7 unknown #
point $-1 64.26587725455488 -42.120068165163687 12.360550293361644 #
point $-1 64.26587725455488 42.120068165163687 12.360550293361644 #
face $-1 $-1 $299 $19 $-1 $300 reversed single #
loop $-1 $-1 $149 $139 #
plane-surface $-1 0 -42.120068165163687 0 0 1 0 0 0 1 forward_v I I I I #
coedge $-1 $301 $142 $227 $302 forward $83 $-1 #
coedge $-1 $142 $301 $303 $304 forward $83 $-1 #
edge $-1 $305 -64.26587725455488 $228 64.26587725455488 $142 $306 forward 7 unknown #
coedge $-1 $144 $143 $307 $308 reversed $53 $-1 #
coedge $-1 $145 $151 $223 $302 reversed $140 $-1 #
vertex $-1 $302 $309 #
straight-curve $-1 64.26587725455488 -26.448224262801087 -4.796856947933307 0 0 1 I I #
coedge $-1 $307 $310 $147 $231 forward $299 $-1 #
edge $-1 $236 -24.977995058172493 $232 -9.3061511558098928 $230 $311 forward 7 unknown #
vertex $-1 $231 $312 #
straight-curve $-1 0 -26.448224262801087 -6.8268774983715836 -1 0 0 I I #
coedge $-1 $313 $149 $310 $314 forward $221 $-1 #
coedge $-1 $149 $313 $151 $238 reversed $221 $-1 #
vertex $-1 $314 $315 #
straight-curve $-1 0 -42.120068165163687 -6.8268774983715836 -1 0 0 I I #
edge $-1 $153 6.8268774983715836 $316 12.360550293361644 $151 $317 forward 7 unknown #
point $-1 64.26587725455488 -26.448224262801087 -6.8268774983715836 #
point $-1 64.26587725455488 -42.120068165163687 -6.8268774983715836 #
plane-surface $-1 0 0 12.360550293361644 0 0 1 1 0 0 forward_v I I I I #
coedge $-1 $252 $251 $244 $318 forward $156 $-1 #
coedge $-1 $244 $158 $160 $248 reversed $91 $-1 #
coedge $-1 $158 $243 $242 $318 reversed $91 $-1 #
coedge $-1 $166 $161 $158 $246 forward $167 $-1 #
edge $-1 $249 38.824624405502178 $319 55.655881619887509 $245 $320 forward 7 unknown #
coedge $-1 $160 $159 $252 $321 reversed $57 $-1 #
edge $-1 $322 -128.53175450910976 $249 -109.09669265526578 $243 $323 forward 7 unknown #
vertex $-1 $162 $324 #
straight-curve $-1 47.434620040169534 -11.364965968981952 12.360550293361648 0 -1 0 I I #
coedge $-1 $242 $163 $166 $256 reversed $156 $-1 #
coedge $-1 $163 $242 $247 $321 forward $156 $-1 #
vertex $-1 $164 $325 #
straight-curve $-1 64.26587725455488 -19.011639613126725 89.110330726289931 0 0 1 I I #
straight-curve $-1 -47.045886846220469 -19.011639613126725 66.908897351804512 0.8660253999169214 0 -0.50000000669873634 I I #
edge $-1 $319 -26.448224262801084 $168 -19.011639613126725 $251 $326 forward 7 unknown #
point $-1 64.26587725455488 -19.011639613126725 12.360550293361644 #
point $-1 47.434620040169548 -19.011639613126725 12.360550293361641 #
edge $-1 $327 1 $327 0 $171 $-1 forward 7 unknown #
vertex $-1 $172 $328 #
ellipse-curve $-1 53.494547758231676 -22.729931937963904 3.4215912102818962 0.50000000669873634 0 0.8660253999169214 1.2990380998753821 0 -0.75000001004810457 1 I I #
point $-1 57.149286747237618 -22.729931937963904 6.7517847547573817 #
loop $-1 $-1 $266 $175 #
plane-surface $-1 0 42.120068165163687 0 0 -1 0 0 0 -1 forward_v I I I I #
coedge $-1 $179 $178 $272 $329 reversed $66 $-1 #
coedge $-1 $330 $331 $179 $267 forward $263 $-1 #
edge $-1 $269 -91.433063461833939 $332 -71.998001607989977 $266 $333 forward 7 unknown #
coedge $-1 $185 $180 $331 $334 reversed $106 $-1 #
vertex $-1 $181 $335 #
straight-curve $-1 64.26587725455488 19.200887920163261 2.6430192362492946 0 1 0 I I #
coedge $-1 $336 $182 $185 $276 forward $176 $-1 #
coedge $-1 $182 $336 $265 $329 forward $176 $-1 #
vertex $-1 $183 $337 #
straight-curve $-1 8.6099956346673707 34.683483515489343 12.360550293361641 1 0 0 I I #
straight-curve $-1 -47.045886846220469 34.683483515489343 66.908897351804512 -0.8660253999169214 0 0.50000000669873634 I I #
edge $-1 $186 34.683483515489343 $338 42.120068165163687 $185 $339 forward 7 unknown #
point $-1 64.26587725455488 34.683483515489343 12.360550293361644 #
point $-1 64.26587725455488 34.683483515489343 2.6430192362493017 #
edge $-1 $340 1 $340 0 $189 $-1 forward 7 unknown #
vertex $-1 $190 $341 #
ellipse-curve $-1 53.494547758231676 38.401775840326522 3.4215912102818962 0.50000000669873634 0 0.8660253999169214 1.2990380998753821 0 -0.75000001004810457 1 I I #
point $-1 57.149286747237618 38.401775840326522 6.7517847547573817 #
plane-surface $-1 64.26587725455488 0 0 -1 0 0 0 0 1 forward_v I I I I #
coedge $-1 $198 $196 $200 $288 reversed $121 $-1 #
edge $-1 $211 -12.360550293361644 $290 12.360550293361644 $210 $342 forward 7 unknown #
vertex $-1 $288 $343 #
straight-curve $-1 -64.26587725455488 -42.120068165163687 0 0 0 -1 I I #
edge $-1 $286 -42.120068165163687 $290 42.120068165163687 $284 $344 forward 7 unknown #
straight-curve $-1 0 -42.120068165163687 -12.360550293361644 -1 0 0 I I #
vertex $-1 $203 $345 #
straight-curve $-1 0 42.120068165163687 -12.360550293361644 1 0 0 I I #
point $-1 64.26587725455488 42.120068165163687 -12.360550293361644 #
point $-1 64.26587725455488 -42.120068165163687 -12.360550293361644 #
straight-curve $-1 -64.26587725455488 0 12.360550293361644 0 -1 0 I I #
point $-1 -64.26587725455488 42.120068165163687 12.360550293361644 #
point $-1 -64.26587725455488 -42.120068165163687 12.360550293361644 #
straight-curve $-1 64.26587725455488 -42.120068165163687 0 0 0 -1 I I #
straight-curve $-1 64.26587725455488 42.120068165163687 0 0 0 -1 I I #
loop $-1 $-1 $307 $220 #
plane-surface $-1 -64.26587725455488 0 0 1 0 0 0 0 -1 forward_v I I I I #
coedge $-1 $224 $223 $313 $346 forward $83 $-1 #
edge $-1 $228 26.448224262801087 $316 42.120068165163687 $227 $347 forward 7 unknown #
coedge $-1 $310 $307 $224 $304 reversed $299 $-1 #
edge $-1 $348 -42.120068165163687 $305 -26.448224262801087 $303 $349 forward 7 unknown #
vertex $-1 $308 $350 #
straight-curve $-1 0 -26.448224262801087 -12.360550293361644 1 0 0 I I #
coedge $-1 $303 $230 $226 $308 forward $299 $-1 #
edge $-1 $232 2.0300205504382767 $305 7.5636933454283373 $307 $351 forward 7 unknown #
point $-1 64.26587725455488 -26.448224262801087 -12.360550293361644 #
coedge $-1 $230 $303 $234 $314 reversed $299 $-1 #
straight-curve $-1 -64.26587725455488 -17.142073106991194 -6.8268774983715836 0 1 0 I I #
point $-1 -64.26587725455488 -26.448224262801087 -6.8268774983715836 #
coedge $-1 $235 $234 $301 $346 reversed $221 $-1 #
edge $-1 $236 6.8268774983715836 $348 12.360550293361644 $310 $352 forward 7 unknown #
point $-1 -64.26587725455488 -42.120068165163687 -6.8268774983715836 #
vertex $-1 $238 $353 #
straight-curve $-1 64.26587725455488 -42.120068165163687 0 0 0 -1 I I #
edge $-1 $319 76.74978043292829 $322 86.467311490040629 $242 $354 forward 7 unknown #
vertex $-1 $256 $355 #
straight-curve $-1 8.6099956346673707 -26.448224262801084 12.360550293361641 1 0 0 I I #
edge $-1 $322 -15.083258293819132 $253 -7.6466736441447729 $252 $356 forward 7 unknown #
vertex $-1 $321 $357 #
straight-curve $-1 -47.045886846220469 -26.448224262801084 66.908897351804512 -0.8660253999169214 0 0.50000000669873634 I I #
point $-1 47.434620040169548 -26.448224262801084 12.360550293361641 #
point $-1 64.26587725455488 -19.011639613126725 2.6430192362493017 #
straight-curve $-1 64.26587725455488 0 12.360550293361644 0 1 0 I I #
vertex $-1 $259 $358 #
point $-1 54.793585858107065 -22.729931937963904 2.6715912002337916 #
edge $-1 $332 -22.91918024500044 $273 -15.482595595326082 $272 $359 forward 7 unknown #
coedge $-1 $331 $266 $336 $360 reversed $263 $-1 #
coedge $-1 $266 $330 $268 $334 forward $263 $-1 #
vertex $-1 $267 $361 #
straight-curve $-1 -14.91747809560912 42.120068165163687 48.359551579652255 -0.8660253999169214 0 0.50000000669873634 I I #
edge $-1 $338 -12.360550293361644 $269 -2.6430192362492981 $268 $362 forward 7 unknown #
point $-1 64.26587725455488 42.120068165163687 2.6430192362492981 #
coedge $-1 $272 $271 $330 $360 forward $176 $-1 #
point $-1 47.434620040169548 34.683483515489343 12.360550293361641 #
vertex $-1 $276 $363 #
straight-curve $-1 64.26587725455488 0 12.360550293361644 0 1 0 I I #
vertex $-1 $279 $364 #
point $-1 54.793585858107065 38.401775840326522 2.6715912002337916 #
straight-curve $-1 -64.26587725455488 42.120068165163687 0 0 0 -1 I I #
point $-1 -64.26587725455488 -42.120068165163687 -12.360550293361644 #
straight-curve $-1 -64.26587725455488 0 -12.360550293361644 0 1 0 I I #
point $-1 -64.26587725455488 42.120068165163687 -12.360550293361644 #
edge $-1 $316 -64.26587725455488 $348 64.26587725455488 $313 $365 forward 7 unknown #
straight-curve $-1 64.26587725455488 0 -12.360550293361644 0 -1 0 I I #
vertex $-1 $304 $366 #
straight-curve $-1 -64.26587725455488 0 -12.360550293361644 0 1 0 I I #
point $-1 -64.26587725455488 -26.448224262801087 -12.360550293361644 #
straight-curve $-1 -64.26587725455488 -26.448224262801087 -4.796856947933307 0 0 -1 I I #
straight-curve $-1 -64.26587725455488 -42.120068165163687 0 0 0 -1 I I #
point $-1 64.26587725455488 -42.120068165163687 -12.360550293361644 #
straight-curve $-1 64.26587725455488 -26.448224262801084 89.110330726289931 0 0 -1 I I #
point $-1 64.26587725455488 -26.448224262801084 12.360550293361644 #
straight-curve $-1 64.26587725455488 -11.364965968981952 2.6430192362492946 0 1 0 I I #
point $-1 64.26587725455488 -26.448224262801084 2.6430192362493017 #
point $-1 52.744547748183578 -22.729931937963904 2.1225531104065141 #
straight-curve $-1 47.434620040169534 19.200887920163261 12.360550293361648 0 -1 0 I I #
edge $-1 $338 -64.26587725455488 $332 -47.434620040169548 $330 $367 forward 7 unknown #
point $-1 47.434620040169548 42.120068165163701 12.360550293361641 #
straight-curve $-1 64.26587725455488 42.120068165163687 0 0 0 -1 I I #
point $-1 64.26587725455488 42.120068165163687 12.360550293361644 #
point $-1 52.744547748183578 38.401775840326522 2.1225531104065141 #
straight-curve $-1 0 -42.120068165163687 -12.360550293361644 -1 0 0 I I #
point $-1 -64.26587725455488 -42.120068165163687 -12.360550293361644 #
straight-curve $-1 0 42.120068165163687 12.360550293361644 -1 0 0 I I #
End-of-ACIS-data 