500 0 21 0           
7 Unknown 11 ACIS 5.0 NT 24 Fri Mar 26 17:59:37 1999 
-1 9.9999999999999995e-007 1e-010 
body $-1 $21 $-1 $22 #
body $-1 $23 $-1 $24 #
body $-1 $25 $-1 $26 #
body $-1 $27 $-1 $28 #
body $-1 $29 $-1 $30 #
body $-1 $31 $-1 $32 #
body $-1 $33 $-1 $34 #
body $-1 $35 $-1 $36 #
body $-1 $37 $-1 $38 #
body $-1 $39 $-1 $40 #
body $-1 $41 $-1 $42 #
body $-1 $43 $-1 $44 #
body $-1 $45 $-1 $46 #
body $-1 $47 $-1 $48 #
body $-1 $49 $-1 $50 #
body $-1 $51 $-1 $52 #
body $-1 $53 $-1 $54 #
body $-1 $55 $-1 $56 #
body $-1 $57 $-1 $58 #
body $-1 $59 $-1 $60 #
body $-1 $61 $-1 $62 #
lump $-1 $-1 $63 $0 #
transform $-1 1 0 0 0 1 0 0 0 1 44.613177892391732 18.964038461689452 8.2253123881153805 1 rotate no_reflect no_shear #
lump $-1 $-1 $64 $1 #
transform $-1 1 0 0 0 1 0 0 0 1 44.613177892391732 -4.565285593343023 14.950624776230761 1 rotate no_reflect no_shear #
lump $-1 $-1 $65 $2 #
transform $-1 1 0 0 0 1 0 0 0 1 1.5 34.36098935583442 8.2253123881153805 1 rotate no_reflect no_shear #
lump $-1 $-1 $66 $3 #
transform $-1 0.84804809178421925 0 0.52991927123019833 0 1 0 -0.52991927123019833 0 0.84804809178421925 -47.282765431998847 14.286482906391468 88.1708238435955 1 rotate no_reflect no_shear #
lump $-1 $-1 $67 $4 #
transform $-1 0.84804809178421925 0 0.52991927123019833 0 -1 0 0.52991927123019833 0 -0.84804809178421925 4.2773265053910787 13.060918738518541 12.687057334351129 1 rotate no_reflect no_shear #
lump $-1 $-1 $68 $5 #
transform $-1 0.84804809178421925 0 0.52991927123019833 0 -1 0 0.52991927123019833 0 -0.84804809178421925 4.2773265053910787 15.512047074264391 12.687057334351129 1 rotate no_reflect no_shear #
lump $-1 $-1 $69 $6 #
transform $-1 0.84804809178421925 0 0.52991927123019833 0 1 0 -0.52991927123019833 0 0.84804809178421925 -47.282765431998847 25.118148207193414 88.1708238435955 1 rotate no_reflect no_shear #
lump $-1 $-1 $70 $7 #
transform $-1 0.84804809178421925 0 0.52991927123019833 0 -1 0 0.52991927123019833 0 -0.84804809178421925 4.2773265053910787 23.892584039320489 12.687057334351129 1 rotate no_reflect no_shear #
lump $-1 $-1 $71 $8 #
transform $-1 0.84804809178421925 0 0.52991927123019833 0 -1 0 0.52991927123019833 0 -0.84804809178421925 4.2773265053910787 26.343712375066339 12.687057334351129 1 rotate no_reflect no_shear #
lump $-1 $-1 $72 $9 #
transform $-1 0.79863550430605224 0 -0.6018150307709319 0 1 0 0.6018150307709319 0 0.79863550430605224 71.664782187409259 13.127090913005034 137.95674486535356 1 rotate no_reflect no_shear #
lump $-1 $-1 $73 $10 #
transform $-1 0.79863550430605224 0 -0.6018150307709319 0 -1 0 -0.6018150307709319 0 -0.79863550430605224 86.259512935420332 11.688829142035447 13.826671027563165 1 rotate no_reflect no_shear #
lump $-1 $-1 $74 $11 #
transform $-1 0.79863550430605224 0 -0.6018150307709319 0 -1 0 -0.6018150307709319 0 -0.79863550430605224 86.259512935420332 13.127090913005032 13.826671027563165 1 rotate no_reflect no_shear #
lump $-1 $-1 $75 $12 #
transform $-1 0.79863550430605224 0 -0.6018150307709319 0 -1 0 -0.6018150307709319 0 -0.79863550430605224 86.259512935420332 14.565352683974618 13.826671027563165 1 rotate no_reflect no_shear #
lump $-1 $-1 $76 $13 #
transform $-1 0.79863550430605224 0 -0.6018150307709319 0 1 0 0.6018150307709319 0 0.79863550430605224 71.664782187409259 20.348201113539666 137.95674486535356 1 rotate no_reflect no_shear #
lump $-1 $-1 $77 $14 #
transform $-1 0.79863550430605224 0 -0.6018150307709319 0 -1 0 -0.6018150307709319 0 -0.79863550430605224 86.259512935420332 18.909939342570077 13.826671027563165 1 rotate no_reflect no_shear #
lump $-1 $-1 $78 $15 #
transform $-1 0.79863550430605224 0 -0.6018150307709319 0 -1 0 -0.6018150307709319 0 -0.79863550430605224 86.259512935420332 20.348201113539666 13.826671027563165 1 rotate no_reflect no_shear #
lump $-1 $-1 $79 $16 #
transform $-1 0.79863550430605224 0 -0.6018150307709319 0 -1 0 -0.6018150307709319 0 -0.79863550430605224 86.259512935420332 21.786462884509248 13.826671027563165 1 rotate no_reflect no_shear #
lump $-1 $-1 $80 $17 #
transform $-1 0.79863550430605224 0 -0.6018150307709319 0 1 0 0.6018150307709319 0 0.79863550430605224 71.664782187409259 27.569311314074298 137.95674486535356 1 rotate no_reflect no_shear #
lump $-1 $-1 $81 $18 #
transform $-1 0.79863550430605224 0 -0.6018150307709319 0 -1 0 -0.6018150307709319 0 -0.79863550430605224 86.259512935420332 26.131049543104709 13.826671027563165 1 rotate no_reflect no_shear #
lump $-1 $-1 $82 $19 #
transform $-1 0.79863550430605224 0 -0.6018150307709319 0 -1 0 -0.6018150307709319 0 -0.79863550430605224 86.259512935420332 27.569311314074298 13.826671027563165 1 rotate no_reflect no_shear #
lump $-1 $-1 $83 $20 #
transform $-1 0.79863550430605224 0 -0.6018150307709319 0 -1 0 -0.6018150307709319 0 -0.79863550430605224 86.259512935420332 29.00757308504388 13.826671027563165 1 rotate no_reflect no_shear #
shell $-1 $-1 $-1 $84 $-1 $21 #
shell $-1 $-1 $-1 $85 $-1 $23 #
shell $-1 $-1 $-1 $86 $-1 $25 #
shell $-1 $-1 $-1 $87 $-1 $27 #
shell $-1 $-1 $-1 $88 $-1 $29 #
shell $-1 $-1 $-1 $89 $-1 $31 #
shell $-1 $-1 $-1 $90 $-1 $33 #
shell $-1 $-1 $-1 $91 $-1 $35 #
shell $-1 $-1 $-1 $92 $-1 $37 #
shell $-1 $-1 $-1 $93 $-1 $39 #
shell $-1 $-1 $-1 $94 $-1 $41 #
shell $-1 $-1 $-1 $95 $-1 $43 #
shell $-1 $-1 $-1 $96 $-1 $45 #
shell $-1 $-1 $-1 $97 $-1 $47 #
shell $-1 $-1 $-1 $98 $-1 $49 #
shell $-1 $-1 $-1 $99 $-1 $51 #
shell $-1 $-1 $-1 $100 $-1 $53 #
shell $-1 $-1 $-1 $101 $-1 $55 #
shell $-1 $-1 $-1 $102 $-1 $57 #
shell $-1 $-1 $-1 $103 $-1 $59 #
shell $-1 $-1 $-1 $104 $-1 $61 #
face $-1 $105 $106 $63 $-1 $107 forward single #
face $-1 $108 $109 $64 $-1 $110 forward single #
face $-1 $111 $112 $65 $-1 $113 forward single #
face $-1 $114 $115 $66 $-1 $116 forward single #
face $-1 $117 $118 $67 $-1 $119 forward single #
face $-1 $120 $121 $68 $-1 $122 forward single #
face $-1 $123 $124 $69 $-1 $125 forward single #
face $-1 $126 $127 $70 $-1 $128 forward single #
face $-1 $129 $130 $71 $-1 $131 forward single #
face $-1 $132 $133 $72 $-1 $134 forward single #
face $-1 $135 $136 $73 $-1 $137 forward single #
face $-1 $138 $139 $74 $-1 $140 forward single #
face $-1 $141 $142 $75 $-1 $143 forward single #
face $-1 $144 $145 $76 $-1 $146 forward single #
face $-1 $147 $148 $77 $-1 $149 forward single #
face $-1 $150 $151 $78 $-1 $152 forward single #
face $-1 $153 $154 $79 $-1 $155 forward single #
face $-1 $156 $157 $80 $-1 $158 forward single #
face $-1 $159 $160 $81 $-1 $161 forward single #
face $-1 $162 $163 $82 $-1 $164 forward single #
face $-1 $165 $166 $83 $-1 $167 forward single #
face $-1 $168 $169 $63 $-1 $170 reversed single #
loop $-1 $-1 $171 $84 #
plane-surface $-1 0 0 8.2253123881153805 0 0 1 1 0 0 forward_v I I I I #
face $-1 $172 $173 $64 $-1 $174 reversed single #
loop $-1 $-1 $175 $85 #
plane-surface $-1 0 0 1.5 0 0 1 1 0 0 forward_v I I I I #
face $-1 $176 $177 $65 $-1 $178 reversed single #
loop $-1 $-1 $179 $86 #
plane-surface $-1 0 0 8.2253123881153805 0 0 1 1 0 0 forward_v I I I I #
face $-1 $180 $181 $66 $-1 $182 reversed single #
loop $-1 $-1 $183 $87 #
plane-surface $-1 0 0 89.226355784783465 0 0 1 1 0 0 forward_v I I I I #
face $-1 $184 $185 $67 $-1 $186 forward single #
loop $-1 $187 $188 $88 #
cone-surface $-1 0 0 -1.1800973540452286 0 0 1 0.5 0 0 1 I I 0 1 0.5 forward I I I I #
face $-1 $189 $190 $68 $-1 $191 forward single #
loop $-1 $192 $193 $89 #
cone-surface $-1 0 0 -1.1800973540452286 0 0 1 0.5 0 0 1 I I 0 1 0.5 forward I I I I #
face $-1 $194 $195 $69 $-1 $196 reversed single #
loop $-1 $-1 $197 $90 #
plane-surface $-1 0 0 89.226355784783465 0 0 1 1 0 0 forward_v I I I I #
face $-1 $198 $199 $70 $-1 $200 forward single #
loop $-1 $201 $202 $91 #
cone-surface $-1 0 0 -1.1800973540452286 0 0 1 0.5 0 0 1 I I 0 1 0.5 forward I I I I #
face $-1 $203 $204 $71 $-1 $205 forward single #
loop $-1 $206 $207 $92 #
cone-surface $-1 0 0 -1.1800973540452286 0 0 1 0.5 0 0 1 I I 0 1 0.5 forward I I I I #
face $-1 $208 $209 $72 $-1 $210 reversed single #
loop $-1 $-1 $211 $93 #
plane-surface $-1 0 0 89.226355784783465 0 0 1 1 0 0 forward_v I I I I #
face $-1 $212 $213 $73 $-1 $214 forward single #
loop $-1 $215 $216 $94 #
cone-surface $-1 0 0 -0.625 0 0 1 0.25 0 0 1 I I 0 1 0.25 forward I I I I #
face $-1 $217 $218 $74 $-1 $219 forward single #
loop $-1 $220 $221 $95 #
cone-surface $-1 0 0 -0.625 0 0 1 0.25 0 0 1 I I 0 1 0.25 forward I I I I #
face $-1 $222 $223 $75 $-1 $224 forward single #
loop $-1 $225 $226 $96 #
cone-surface $-1 0 0 -0.625 0 0 1 0.25 0 0 1 I I 0 1 0.25 forward I I I I #
face $-1 $227 $228 $76 $-1 $229 reversed single #
loop $-1 $-1 $230 $97 #
plane-surface $-1 0 0 89.226355784783465 0 0 1 1 0 0 forward_v I I I I #
face $-1 $231 $232 $77 $-1 $233 forward single #
loop $-1 $234 $235 $98 #
cone-surface $-1 0 0 -0.625 0 0 1 0.25 0 0 1 I I 0 1 0.25 forward I I I I #
face $-1 $236 $237 $78 $-1 $238 forward single #
loop $-1 $239 $240 $99 #
cone-surface $-1 0 0 -0.625 0 0 1 0.25 0 0 1 I I 0 1 0.25 forward I I I I #
face $-1 $241 $242 $79 $-1 $243 forward single #
loop $-1 $244 $245 $100 #
cone-surface $-1 0 0 -0.625 0 0 1 0.25 0 0 1 I I 0 1 0.25 forward I I I I #
face $-1 $246 $247 $80 $-1 $248 reversed single #
loop $-1 $-1 $249 $101 #
plane-surface $-1 0 0 89.226355784783465 0 0 1 1 0 0 forward_v I I I I #
face $-1 $250 $251 $81 $-1 $252 forward single #
loop $-1 $253 $254 $102 #
cone-surface $-1 0 0 -0.625 0 0 1 0.25 0 0 1 I I 0 1 0.25 forward I I I I #
face $-1 $255 $256 $82 $-1 $257 forward single #
loop $-1 $258 $259 $103 #
cone-surface $-1 0 0 -0.625 0 0 1 0.25 0 0 1 I I 0 1 0.25 forward I I I I #
face $-1 $260 $261 $83 $-1 $262 forward single #
loop $-1 $263 $264 $104 #
cone-surface $-1 0 0 -0.625 0 0 1 0.25 0 0 1 I I 0 1 0.25 forward I I I I #
face $-1 $265 $266 $63 $-1 $267 reversed single #
loop $-1 $-1 $268 $105 #
plane-surface $-1 0 0 -8.2253123881153805 0 0 1 1 0 0 forward_v I I I I #
coedge $-1 $269 $270 $271 $272 forward $106 $-1 #
face $-1 $273 $274 $64 $-1 $275 reversed single #
loop $-1 $-1 $276 $108 #
plane-surface $-1 0 0 -1.5 0 0 1 1 0 0 forward_v I I I I #
coedge $-1 $277 $278 $279 $280 forward $109 $-1 #
face $-1 $281 $282 $65 $-1 $283 reversed single #
loop $-1 $-1 $284 $111 #
plane-surface $-1 0 0 -8.2253123881153805 0 0 1 1 0 0 forward_v I I I I #
coedge $-1 $285 $286 $287 $288 forward $112 $-1 #
face $-1 $289 $290 $66 $-1 $291 reversed single #
loop $-1 $-1 $292 $114 #
plane-surface $-1 0 0 -89.226355784783465 0 0 1 1 0 0 forward_v I I I I #
coedge $-1 $293 $294 $295 $296 forward $115 $-1 #
face $-1 $-1 $297 $67 $-1 $298 forward single #
loop $-1 $-1 $299 $117 #
plane-surface $-1 0 0 -2.1101947080904573 0 0 -1 -1 0 0 forward_v I I I I #
loop $-1 $-1 $300 $88 #
coedge $-1 $188 $188 $299 $301 reversed $118 $-1 #
face $-1 $-1 $302 $68 $-1 $303 forward single #
loop $-1 $-1 $304 $120 #
plane-surface $-1 0 0 -2.1101947080904573 0 0 -1 -1 0 0 forward_v I I I I #
loop $-1 $-1 $305 $89 #
coedge $-1 $193 $193 $304 $306 reversed $121 $-1 #
face $-1 $307 $308 $69 $-1 $309 reversed single #
loop $-1 $-1 $310 $123 #
plane-surface $-1 0 0 -89.226355784783465 0 0 1 1 0 0 forward_v I I I I #
coedge $-1 $311 $312 $313 $314 forward $124 $-1 #
face $-1 $-1 $315 $70 $-1 $316 forward single #
loop $-1 $-1 $317 $126 #
plane-surface $-1 0 0 -2.1101947080904573 0 0 -1 -1 0 0 forward_v I I I I #
loop $-1 $-1 $318 $91 #
coedge $-1 $202 $202 $317 $319 reversed $127 $-1 #
face $-1 $-1 $320 $71 $-1 $321 forward single #
loop $-1 $-1 $322 $129 #
plane-surface $-1 0 0 -2.1101947080904573 0 0 -1 -1 0 0 forward_v I I I I #
loop $-1 $-1 $323 $92 #
coedge $-1 $207 $207 $322 $324 reversed $130 $-1 #
face $-1 $325 $326 $72 $-1 $327 reversed single #
loop $-1 $-1 $328 $132 #
plane-surface $-1 0 0 -89.226355784783465 0 0 1 1 0 0 forward_v I I I I #
coedge $-1 $329 $330 $331 $332 forward $133 $-1 #
face $-1 $-1 $333 $73 $-1 $334 forward single #
loop $-1 $-1 $335 $135 #
plane-surface $-1 0 0 -1.125 0 0 -1 -1 0 0 forward_v I I I I #
loop $-1 $-1 $336 $94 #
coedge $-1 $216 $216 $335 $337 reversed $136 $-1 #
face $-1 $-1 $338 $74 $-1 $339 forward single #
loop $-1 $-1 $340 $138 #
plane-surface $-1 0 0 -1.125 0 0 -1 -1 0 0 forward_v I I I I #
loop $-1 $-1 $341 $95 #
coedge $-1 $221 $221 $340 $342 reversed $139 $-1 #
face $-1 $-1 $343 $75 $-1 $344 forward single #
loop $-1 $-1 $345 $141 #
plane-surface $-1 0 0 -1.125 0 0 -1 -1 0 0 forward_v I I I I #
loop $-1 $-1 $346 $96 #
coedge $-1 $226 $226 $345 $347 reversed $142 $-1 #
face $-1 $348 $349 $76 $-1 $350 reversed single #
loop $-1 $-1 $351 $144 #
plane-surface $-1 0 0 -89.226355784783465 0 0 1 1 0 0 forward_v I I I I #
coedge $-1 $352 $353 $354 $355 forward $145 $-1 #
face $-1 $-1 $356 $77 $-1 $357 forward single #
loop $-1 $-1 $358 $147 #
plane-surface $-1 0 0 -1.125 0 0 -1 -1 0 0 forward_v I I I I #
loop $-1 $-1 $359 $98 #
coedge $-1 $235 $235 $358 $360 reversed $148 $-1 #
face $-1 $-1 $361 $78 $-1 $362 forward single #
loop $-1 $-1 $363 $150 #
plane-surface $-1 0 0 -1.125 0 0 -1 -1 0 0 forward_v I I I I #
loop $-1 $-1 $364 $99 #
coedge $-1 $240 $240 $363 $365 reversed $151 $-1 #
face $-1 $-1 $366 $79 $-1 $367 forward single #
loop $-1 $-1 $368 $153 #
plane-surface $-1 0 0 -1.125 0 0 -1 -1 0 0 forward_v I I I I #
loop $-1 $-1 $369 $100 #
coedge $-1 $245 $245 $368 $370 reversed $154 $-1 #
face $-1 $371 $372 $80 $-1 $373 reversed single #
loop $-1 $-1 $374 $156 #
plane-surface $-1 0 0 -89.226355784783465 0 0 1 1 0 0 forward_v I I I I #
coedge $-1 $375 $376 $377 $378 forward $157 $-1 #
face $-1 $-1 $379 $81 $-1 $380 forward single #
loop $-1 $-1 $381 $159 #
plane-surface $-1 0 0 -1.125 0 0 -1 -1 0 0 forward_v I I I I #
loop $-1 $-1 $382 $102 #
coedge $-1 $254 $254 $381 $383 reversed $160 $-1 #
face $-1 $-1 $384 $82 $-1 $385 forward single #
loop $-1 $-1 $386 $162 #
plane-surface $-1 0 0 -1.125 0 0 -1 -1 0 0 forward_v I I I I #
loop $-1 $-1 $387 $103 #
coedge $-1 $259 $259 $386 $388 reversed $163 $-1 #
face $-1 $-1 $389 $83 $-1 $390 forward single #
loop $-1 $-1 $391 $165 #
plane-surface $-1 0 0 -1.125 0 0 -1 -1 0 0 forward_v I I I I #
loop $-1 $-1 $392 $104 #
coedge $-1 $264 $264 $391 $393 reversed $166 $-1 #
face $-1 $394 $395 $63 $-1 $396 reversed single #
loop $-1 $-1 $397 $168 #
plane-surface $-1 0 -18.964038461689452 0 0 1 0 0 0 1 forward_v I I I I #
coedge $-1 $398 $399 $400 $401 forward $169 $-1 #
coedge $-1 $402 $171 $403 $404 forward $106 $-1 #
coedge $-1 $171 $402 $405 $406 forward $106 $-1 #
coedge $-1 $407 $408 $171 $272 reversed $409 $-1 #
edge $-1 $410 -18.964038461689452 $411 18.964038461689452 $271 $412 forward 7 unknown #
face $-1 $413 $414 $64 $-1 $415 reversed single #
loop $-1 $-1 $416 $172 #
plane-surface $-1 0 -4.565285593343023 0 0 1 0 0 0 1 forward_v I I I I #
coedge $-1 $417 $418 $419 $420 forward $173 $-1 #
coedge $-1 $421 $175 $422 $423 forward $109 $-1 #
coedge $-1 $175 $421 $424 $425 forward $109 $-1 #
coedge $-1 $426 $427 $175 $280 reversed $428 $-1 #
edge $-1 $429 -4.565285593343023 $430 4.565285593343023 $279 $431 forward 7 unknown #
face $-1 $432 $433 $65 $-1 $434 reversed single #
loop $-1 $-1 $435 $176 #
plane-surface $-1 0 -3.5670875675444815 0 0 1 0 0 0 1 forward_v I I I I #
coedge $-1 $436 $437 $438 $439 forward $177 $-1 #
coedge $-1 $440 $179 $441 $442 forward $112 $-1 #
coedge $-1 $179 $440 $443 $444 forward $112 $-1 #
coedge $-1 $445 $446 $179 $288 reversed $447 $-1 #
edge $-1 $448 -3.5670875675444815 $449 3.5670875675444815 $287 $450 forward 7 unknown #
face $-1 $451 $452 $66 $-1 $453 reversed single #
loop $-1 $-1 $454 $180 #
plane-surface $-1 0 -2.8596497250368262 0 0 1 0 0 0 1 forward_v I I I I #
coedge $-1 $455 $456 $457 $458 forward $181 $-1 #
coedge $-1 $459 $183 $460 $461 forward $115 $-1 #
coedge $-1 $183 $459 $462 $463 forward $115 $-1 #
coedge $-1 $464 $465 $183 $296 reversed $466 $-1 #
edge $-1 $467 -2.8596497250368262 $468 2.8596497250368262 $295 $469 forward 7 unknown #
loop $-1 $470 $471 $184 #
cone-surface $-1 0 0 0 0 0 1 0.25 0 0 1 I I -0.70710678118654746 0.70710678118654746 0.25 forward I I I I #
coedge $-1 $299 $299 $188 $301 forward $185 $-1 #
coedge $-1 $300 $300 $471 $472 forward $187 $-1 #
edge $-1 $473 0 $473 6.2831853071796004 $299 $474 forward 7 unknown #
loop $-1 $475 $476 $189 #
cone-surface $-1 0 0 0 0 0 1 0.25 0 0 1 I I -0.70710678118654746 0.70710678118654746 0.25 forward I I I I #
coedge $-1 $304 $304 $193 $306 forward $190 $-1 #
coedge $-1 $305 $305 $476 $477 forward $192 $-1 #
edge $-1 $478 0 $478 6.2831853071796004 $304 $479 forward 7 unknown #
face $-1 $480 $481 $69 $-1 $482 reversed single #
loop $-1 $-1 $483 $194 #
plane-surface $-1 0 -2.8596497250368262 0 0 1 0 0 0 1 forward_v I I I I #
coedge $-1 $484 $485 $486 $487 forward $195 $-1 #
coedge $-1 $488 $197 $489 $490 forward $124 $-1 #
coedge $-1 $197 $488 $491 $492 forward $124 $-1 #
coedge $-1 $493 $494 $197 $314 reversed $495 $-1 #
edge $-1 $496 -2.8596497250368262 $497 2.8596497250368262 $313 $498 forward 7 unknown #
loop $-1 $499 $500 $198 #
cone-surface $-1 0 0 0 0 0 1 0.25 0 0 1 I I -0.70710678118654746 0.70710678118654746 0.25 forward I I I I #
coedge $-1 $317 $317 $202 $319 forward $199 $-1 #
coedge $-1 $318 $318 $500 $501 forward $201 $-1 #
edge $-1 $502 0 $502 6.2831853071796004 $317 $503 forward 7 unknown #
loop $-1 $504 $505 $203 #
cone-surface $-1 0 0 0 0 0 1 0.25 0 0 1 I I -0.70710678118654746 0.70710678118654746 0.25 forward I I I I #
coedge $-1 $322 $322 $207 $324 forward $204 $-1 #
coedge $-1 $323 $323 $505 $506 forward $206 $-1 #
edge $-1 $507 0 $507 6.2831853071796004 $322 $508 forward 7 unknown #
face $-1 $509 $510 $72 $-1 $511 reversed single #
loop $-1 $-1 $512 $208 #
plane-surface $-1 0 -2.3971029516159765 0 0 1 0 0 0 1 forward_v I I I I #
coedge $-1 $513 $514 $515 $516 forward $209 $-1 #
coedge $-1 $517 $211 $518 $519 forward $133 $-1 #
coedge $-1 $211 $517 $520 $521 forward $133 $-1 #
coedge $-1 $522 $523 $211 $332 reversed $524 $-1 #
edge $-1 $525 -2.3971029516159765 $526 2.3971029516159765 $331 $527 forward 7 unknown #
loop $-1 $528 $529 $212 #
cone-surface $-1 0 0 0 0 0 1 0.125 0 0 1 I I -0.70710678118654746 0.70710678118654746 0.125 forward I I I I #
coedge $-1 $335 $335 $216 $337 forward $213 $-1 #
coedge $-1 $336 $336 $529 $530 forward $215 $-1 #
edge $-1 $531 0 $531 6.2831853071796004 $335 $532 forward 7 unknown #
loop $-1 $533 $534 $217 #
cone-surface $-1 0 0 0 0 0 1 0.125 0 0 1 I I -0.70710678118654746 0.70710678118654746 0.125 forward I I I I #
coedge $-1 $340 $340 $221 $342 forward $218 $-1 #
coedge $-1 $341 $341 $534 $535 forward $220 $-1 #
edge $-1 $536 0 $536 6.2831853071796004 $340 $537 forward 7 unknown #
loop $-1 $538 $539 $222 #
cone-surface $-1 0 0 0 0 0 1 0.125 0 0 1 I I -0.70710678118654746 0.70710678118654746 0.125 forward I I I I #
coedge $-1 $345 $345 $226 $347 forward $223 $-1 #
coedge $-1 $346 $346 $539 $540 forward $225 $-1 #
edge $-1 $541 0 $541 6.2831853071796004 $345 $542 forward 7 unknown #
face $-1 $543 $544 $76 $-1 $545 reversed single #
loop $-1 $-1 $546 $227 #
plane-surface $-1 0 -2.3971029516159765 0 0 1 0 0 0 1 forward_v I I I I #
coedge $-1 $547 $548 $549 $550 forward $228 $-1 #
coedge $-1 $551 $230 $552 $553 forward $145 $-1 #
coedge $-1 $230 $551 $554 $555 forward $145 $-1 #
coedge $-1 $556 $557 $230 $355 reversed $558 $-1 #
edge $-1 $559 -2.3971029516159765 $560 2.3971029516159765 $354 $561 forward 7 unknown #
loop $-1 $562 $563 $231 #
cone-surface $-1 0 0 0 0 0 1 0.125 0 0 1 I I -0.70710678118654746 0.70710678118654746 0.125 forward I I I I #
coedge $-1 $358 $358 $235 $360 forward $232 $-1 #
coedge $-1 $359 $359 $563 $564 forward $234 $-1 #
edge $-1 $565 0 $565 6.2831853071796004 $358 $566 forward 7 unknown #
loop $-1 $567 $568 $236 #
cone-surface $-1 0 0 0 0 0 1 0.125 0 0 1 I I -0.70710678118654746 0.70710678118654746 0.125 forward I I I I #
coedge $-1 $363 $363 $240 $365 forward $237 $-1 #
coedge $-1 $364 $364 $568 $569 forward $239 $-1 #
edge $-1 $570 0 $570 6.2831853071796004 $363 $571 forward 7 unknown #
loop $-1 $572 $573 $241 #
cone-surface $-1 0 0 0 0 0 1 0.125 0 0 1 I I -0.70710678118654746 0.70710678118654746 0.125 forward I I I I #
coedge $-1 $368 $368 $245 $370 forward $242 $-1 #
coedge $-1 $369 $369 $573 $574 forward $244 $-1 #
edge $-1 $575 0 $575 6.2831853071796004 $368 $576 forward 7 unknown #
face $-1 $577 $578 $80 $-1 $579 reversed single #
loop $-1 $-1 $580 $246 #
plane-surface $-1 0 -2.3971029516159765 0 0 1 0 0 0 1 forward_v I I I I #
coedge $-1 $581 $582 $583 $584 forward $247 $-1 #
coedge $-1 $585 $249 $586 $587 forward $157 $-1 #
coedge $-1 $249 $585 $588 $589 forward $157 $-1 #
coedge $-1 $590 $591 $249 $378 reversed $592 $-1 #
edge $-1 $593 -2.3971029516159765 $594 2.3971029516159765 $377 $595 forward 7 unknown #
loop $-1 $596 $597 $250 #
cone-surface $-1 0 0 0 0 0 1 0.125 0 0 1 I I -0.70710678118654746 0.70710678118654746 0.125 forward I I I I #
coedge $-1 $381 $381 $254 $383 forward $251 $-1 #
coedge $-1 $382 $382 $597 $598 forward $253 $-1 #
edge $-1 $599 0 $599 6.2831853071796004 $381 $600 forward 7 unknown #
loop $-1 $601 $602 $255 #
cone-surface $-1 0 0 0 0 0 1 0.125 0 0 1 I I -0.70710678118654746 0.70710678118654746 0.125 forward I I I I #
coedge $-1 $386 $386 $259 $388 forward $256 $-1 #
coedge $-1 $387 $387 $602 $603 forward $258 $-1 #
edge $-1 $604 0 $604 6.2831853071796004 $386 $605 forward 7 unknown #
loop $-1 $606 $607 $260 #
cone-surface $-1 0 0 0 0 0 1 0.125 0 0 1 I I -0.70710678118654746 0.70710678118654746 0.125 forward I I I I #
coedge $-1 $391 $391 $264 $393 forward $261 $-1 #
coedge $-1 $392 $392 $607 $608 forward $263 $-1 #
edge $-1 $609 0 $609 6.2831853071796004 $391 $610 forward 7 unknown #
face $-1 $611 $612 $63 $-1 $613 reversed single #
loop $-1 $-1 $614 $265 #
plane-surface $-1 -44.613177892391732 0 0 1 0 0 0 0 -1 forward_v I I I I #
coedge $-1 $615 $405 $616 $617 forward $266 $-1 #
coedge $-1 $618 $268 $615 $619 forward $169 $-1 #
coedge $-1 $268 $618 $620 $621 forward $169 $-1 #
coedge $-1 $408 $407 $268 $401 reversed $409 $-1 #
edge $-1 $622 -18.964038461689452 $623 18.964038461689452 $400 $624 forward 7 unknown #
coedge $-1 $270 $269 $625 $626 forward $106 $-1 #
coedge $-1 $627 $628 $269 $404 reversed $612 $-1 #
edge $-1 $411 -44.613177892391732 $629 44.613177892391732 $403 $630 forward 7 unknown #
coedge $-1 $397 $631 $270 $406 reversed $266 $-1 #
edge $-1 $632 -44.613177892391732 $410 44.613177892391732 $405 $633 forward 7 unknown #
coedge $-1 $400 $271 $631 $634 forward $409 $-1 #
coedge $-1 $271 $400 $627 $635 reversed $409 $-1 #
loop $-1 $-1 $407 $611 #
vertex $-1 $272 $636 #
vertex $-1 $272 $637 #
straight-curve $-1 44.613177892391732 0 8.2253123881153805 0 1 0 I I #
face $-1 $638 $639 $64 $-1 $640 reversed single #
loop $-1 $-1 $641 $273 #
plane-surface $-1 -44.613177892391732 0 0 1 0 0 0 0 -1 forward_v I I I I #
coedge $-1 $642 $424 $643 $644 forward $274 $-1 #
coedge $-1 $645 $276 $642 $646 forward $173 $-1 #
coedge $-1 $276 $645 $647 $648 forward $173 $-1 #
coedge $-1 $427 $426 $276 $420 reversed $428 $-1 #
edge $-1 $649 -4.565285593343023 $650 4.565285593343023 $419 $651 forward 7 unknown #
coedge $-1 $278 $277 $652 $653 forward $109 $-1 #
coedge $-1 $654 $655 $277 $423 reversed $639 $-1 #
edge $-1 $430 -44.613177892391732 $656 44.613177892391732 $422 $657 forward 7 unknown #
coedge $-1 $416 $658 $278 $425 reversed $274 $-1 #
edge $-1 $659 -44.613177892391732 $429 44.613177892391732 $424 $660 forward 7 unknown #
coedge $-1 $419 $279 $658 $661 forward $428 $-1 #
coedge $-1 $279 $419 $654 $662 reversed $428 $-1 #
loop $-1 $-1 $426 $638 #
vertex $-1 $280 $663 #
vertex $-1 $280 $664 #
straight-curve $-1 44.613177892391732 0 1.5 0 1 0 I I #
face $-1 $665 $666 $65 $-1 $667 reversed single #
loop $-1 $-1 $668 $281 #
plane-surface $-1 -1.5 0 0 1 0 0 0 0 -1 forward_v I I I I #
coedge $-1 $669 $443 $670 $671 forward $282 $-1 #
coedge $-1 $672 $284 $669 $673 forward $177 $-1 #
coedge $-1 $284 $672 $674 $675 forward $177 $-1 #
coedge $-1 $446 $445 $284 $439 reversed $447 $-1 #
edge $-1 $676 -3.5670875675444815 $677 3.5670875675444815 $438 $678 forward 7 unknown #
coedge $-1 $286 $285 $679 $680 forward $112 $-1 #
coedge $-1 $681 $682 $285 $442 reversed $666 $-1 #
edge $-1 $449 -1.5 $683 1.5 $441 $684 forward 7 unknown #
coedge $-1 $435 $685 $286 $444 reversed $282 $-1 #
edge $-1 $686 -1.5 $448 1.5 $443 $687 forward 7 unknown #
coedge $-1 $438 $287 $685 $688 forward $447 $-1 #
coedge $-1 $287 $438 $681 $689 reversed $447 $-1 #
loop $-1 $-1 $445 $665 #
vertex $-1 $288 $690 #
vertex $-1 $288 $691 #
straight-curve $-1 1.5 0 8.2253123881153805 0 1 0 I I #
face $-1 $692 $693 $66 $-1 $694 reversed single #
loop $-1 $-1 $695 $289 #
plane-surface $-1 -178.45271156956693 0 0 1 0 0 0 0 -1 forward_v I I I I #
coedge $-1 $696 $462 $697 $698 forward $290 $-1 #
coedge $-1 $699 $292 $696 $700 forward $181 $-1 #
coedge $-1 $292 $699 $701 $702 forward $181 $-1 #
coedge $-1 $465 $464 $292 $458 reversed $466 $-1 #
edge $-1 $703 -2.8596497250368262 $704 2.8596497250368262 $457 $705 forward 7 unknown #
coedge $-1 $294 $293 $706 $707 forward $115 $-1 #
coedge $-1 $708 $709 $293 $461 reversed $693 $-1 #
edge $-1 $468 -178.45271156956693 $710 178.45271156956693 $460 $711 forward 7 unknown #
coedge $-1 $454 $712 $294 $463 reversed $290 $-1 #
edge $-1 $713 -178.45271156956693 $467 178.45271156956693 $462 $714 forward 7 unknown #
coedge $-1 $457 $295 $712 $715 forward $466 $-1 #
coedge $-1 $295 $457 $708 $716 reversed $466 $-1 #
loop $-1 $-1 $464 $692 #
vertex $-1 $296 $717 #
vertex $-1 $296 $718 #
straight-curve $-1 178.45271156956693 0 89.226355784783465 0 1 0 I I #
loop $-1 $-1 $719 $184 #
coedge $-1 $471 $471 $300 $472 reversed $297 $-1 #
edge $-1 $720 0 $720 6.2831853071796004 $471 $721 forward 7 unknown #
vertex $-1 $301 $722 #
ellipse-curve $-1 0 0 -2.1101947080904573 0 0 -1 0.5 0 0 1 I I #
loop $-1 $-1 $723 $189 #
coedge $-1 $476 $476 $305 $477 reversed $302 $-1 #
edge $-1 $724 0 $724 6.2831853071796004 $476 $725 forward 7 unknown #
vertex $-1 $306 $726 #
ellipse-curve $-1 0 0 -2.1101947080904573 0 0 -1 0.5 0 0 1 I I #
face $-1 $727 $728 $69 $-1 $729 reversed single #
loop $-1 $-1 $730 $307 #
plane-surface $-1 -178.45271156956693 0 0 1 0 0 0 0 -1 forward_v I I I I #
coedge $-1 $731 $491 $732 $733 forward $308 $-1 #
coedge $-1 $734 $310 $731 $735 forward $195 $-1 #
coedge $-1 $310 $734 $736 $737 forward $195 $-1 #
coedge $-1 $494 $493 $310 $487 reversed $495 $-1 #
edge $-1 $738 -2.8596497250368262 $739 2.8596497250368262 $486 $740 forward 7 unknown #
coedge $-1 $312 $311 $741 $742 forward $124 $-1 #
coedge $-1 $743 $744 $311 $490 reversed $728 $-1 #
edge $-1 $497 -178.45271156956693 $745 178.45271156956693 $489 $746 forward 7 unknown #
coedge $-1 $483 $747 $312 $492 reversed $308 $-1 #
edge $-1 $748 -178.45271156956693 $496 178.45271156956693 $491 $749 forward 7 unknown #
coedge $-1 $486 $313 $747 $750 forward $495 $-1 #
coedge $-1 $313 $486 $743 $751 reversed $495 $-1 #
loop $-1 $-1 $493 $727 #
vertex $-1 $314 $752 #
vertex $-1 $314 $753 #
straight-curve $-1 178.45271156956693 0 89.226355784783465 0 1 0 I I #
loop $-1 $-1 $754 $198 #
coedge $-1 $500 $500 $318 $501 reversed $315 $-1 #
edge $-1 $755 0 $755 6.2831853071796004 $500 $756 forward 7 unknown #
vertex $-1 $319 $757 #
ellipse-curve $-1 0 0 -2.1101947080904573 0 0 -1 0.5 0 0 1 I I #
loop $-1 $-1 $758 $203 #
coedge $-1 $505 $505 $323 $506 reversed $320 $-1 #
edge $-1 $759 0 $759 6.2831853071796004 $505 $760 forward 7 unknown #
vertex $-1 $324 $761 #
ellipse-curve $-1 0 0 -2.1101947080904573 0 0 -1 0.5 0 0 1 I I #
face $-1 $762 $763 $72 $-1 $764 reversed single #
loop $-1 $-1 $765 $325 #
plane-surface $-1 -178.45271156956693 0 0 1 0 0 0 0 -1 forward_v I I I I #
coedge $-1 $766 $520 $767 $768 forward $326 $-1 #
coedge $-1 $769 $328 $766 $770 forward $209 $-1 #
coedge $-1 $328 $769 $771 $772 forward $209 $-1 #
coedge $-1 $523 $522 $328 $516 reversed $524 $-1 #
edge $-1 $773 -2.3971029516159765 $774 2.3971029516159765 $515 $775 forward 7 unknown #
coedge $-1 $330 $329 $776 $777 forward $133 $-1 #
coedge $-1 $778 $779 $329 $519 reversed $763 $-1 #
edge $-1 $526 -178.45271156956693 $780 178.45271156956693 $518 $781 forward 7 unknown #
coedge $-1 $512 $782 $330 $521 reversed $326 $-1 #
edge $-1 $783 -178.45271156956693 $525 178.45271156956693 $520 $784 forward 7 unknown #
coedge $-1 $515 $331 $782 $785 forward $524 $-1 #
coedge $-1 $331 $515 $778 $786 reversed $524 $-1 #
loop $-1 $-1 $522 $762 #
vertex $-1 $332 $787 #
vertex $-1 $332 $788 #
straight-curve $-1 178.45271156956693 0 89.226355784783465 0 1 0 I I #
loop $-1 $-1 $789 $212 #
coedge $-1 $529 $529 $336 $530 reversed $333 $-1 #
edge $-1 $790 0 $790 6.2831853071796004 $529 $791 forward 7 unknown #
vertex $-1 $337 $792 #
ellipse-curve $-1 0 0 -1.125 0 0 -1 0.25 0 0 1 I I #
loop $-1 $-1 $793 $217 #
coedge $-1 $534 $534 $341 $535 reversed $338 $-1 #
edge $-1 $794 0 $794 6.2831853071796004 $534 $795 forward 7 unknown #
vertex $-1 $342 $796 #
ellipse-curve $-1 0 0 -1.125 0 0 -1 0.25 0 0 1 I I #
loop $-1 $-1 $797 $222 #
coedge $-1 $539 $539 $346 $540 reversed $343 $-1 #
edge $-1 $798 0 $798 6.2831853071796004 $539 $799 forward 7 unknown #
vertex $-1 $347 $800 #
ellipse-curve $-1 0 0 -1.125 0 0 -1 0.25 0 0 1 I I #
face $-1 $801 $802 $76 $-1 $803 reversed single #
loop $-1 $-1 $804 $348 #
plane-surface $-1 -178.45271156956693 0 0 1 0 0 0 0 -1 forward_v I I I I #
coedge $-1 $805 $554 $806 $807 forward $349 $-1 #
coedge $-1 $808 $351 $805 $809 forward $228 $-1 #
coedge $-1 $351 $808 $810 $811 forward $228 $-1 #
coedge $-1 $557 $556 $351 $550 reversed $558 $-1 #
edge $-1 $812 -2.3971029516159765 $813 2.3971029516159765 $549 $814 forward 7 unknown #
coedge $-1 $353 $352 $815 $816 forward $145 $-1 #
coedge $-1 $817 $818 $352 $553 reversed $802 $-1 #
edge $-1 $560 -178.45271156956693 $819 178.45271156956693 $552 $820 forward 7 unknown #
coedge $-1 $546 $821 $353 $555 reversed $349 $-1 #
edge $-1 $822 -178.45271156956693 $559 178.45271156956693 $554 $823 forward 7 unknown #
coedge $-1 $549 $354 $821 $824 forward $558 $-1 #
coedge $-1 $354 $549 $817 $825 reversed $558 $-1 #
loop $-1 $-1 $556 $801 #
vertex $-1 $355 $826 #
vertex $-1 $355 $827 #
straight-curve $-1 178.45271156956693 0 89.226355784783465 0 1 0 I I #
loop $-1 $-1 $828 $231 #
coedge $-1 $563 $563 $359 $564 reversed $356 $-1 #
edge $-1 $829 0 $829 6.2831853071796004 $563 $830 forward 7 unknown #
vertex $-1 $360 $831 #
ellipse-curve $-1 0 0 -1.125 0 0 -1 0.25 0 0 1 I I #
loop $-1 $-1 $832 $236 #
coedge $-1 $568 $568 $364 $569 reversed $361 $-1 #
edge $-1 $833 0 $833 6.2831853071796004 $568 $834 forward 7 unknown #
vertex $-1 $365 $835 #
ellipse-curve $-1 0 0 -1.125 0 0 -1 0.25 0 0 1 I I #
loop $-1 $-1 $836 $241 #
coedge $-1 $573 $573 $369 $574 reversed $366 $-1 #
edge $-1 $837 0 $837 6.2831853071796004 $573 $838 forward 7 unknown #
vertex $-1 $370 $839 #
ellipse-curve $-1 0 0 -1.125 0 0 -1 0.25 0 0 1 I I #
face $-1 $840 $841 $80 $-1 $842 reversed single #
loop $-1 $-1 $843 $371 #
plane-surface $-1 -178.45271156956693 0 0 1 0 0 0 0 -1 forward_v I I I I #
coedge $-1 $844 $588 $845 $846 forward $372 $-1 #
coedge $-1 $847 $374 $844 $848 forward $247 $-1 #
coedge $-1 $374 $847 $849 $850 forward $247 $-1 #
coedge $-1 $591 $590 $374 $584 reversed $592 $-1 #
edge $-1 $851 -2.3971029516159765 $852 2.3971029516159765 $583 $853 forward 7 unknown #
coedge $-1 $376 $375 $854 $855 forward $157 $-1 #
coedge $-1 $856 $857 $375 $587 reversed $841 $-1 #
edge $-1 $594 -178.45271156956693 $858 178.45271156956693 $586 $859 forward 7 unknown #
coedge $-1 $580 $860 $376 $589 reversed $372 $-1 #
edge $-1 $861 -178.45271156956693 $593 178.45271156956693 $588 $862 forward 7 unknown #
coedge $-1 $583 $377 $860 $863 forward $592 $-1 #
coedge $-1 $377 $583 $856 $864 reversed $592 $-1 #
loop $-1 $-1 $590 $840 #
vertex $-1 $378 $865 #
vertex $-1 $378 $866 #
straight-curve $-1 178.45271156956693 0 89.226355784783465 0 1 0 I I #
loop $-1 $-1 $867 $250 #
coedge $-1 $597 $597 $382 $598 reversed $379 $-1 #
edge $-1 $868 0 $868 6.2831853071796004 $597 $869 forward 7 unknown #
vertex $-1 $383 $870 #
ellipse-curve $-1 0 0 -1.125 0 0 -1 0.25 0 0 1 I I #
loop $-1 $-1 $871 $255 #
coedge $-1 $602 $602 $387 $603 reversed $384 $-1 #
edge $-1 $872 0 $872 6.2831853071796004 $602 $873 forward 7 unknown #
vertex $-1 $388 $874 #
ellipse-curve $-1 0 0 -1.125 0 0 -1 0.25 0 0 1 I I #
loop $-1 $-1 $875 $260 #
coedge $-1 $607 $607 $392 $608 reversed $389 $-1 #
edge $-1 $876 0 $876 6.2831853071796004 $607 $877 forward 7 unknown #
vertex $-1 $393 $878 #
ellipse-curve $-1 0 0 -1.125 0 0 -1 0.25 0 0 1 I I #
face $-1 $-1 $409 $63 $-1 $879 reversed single #
loop $-1 $-1 $627 $394 #
plane-surface $-1 0 18.964038461689452 0 0 -1 0 0 0 -1 forward_v I I I I #
coedge $-1 $880 $625 $628 $881 forward $395 $-1 #
coedge $-1 $631 $397 $398 $619 reversed $266 $-1 #
coedge $-1 $625 $880 $397 $617 reversed $395 $-1 #
edge $-1 $632 -8.2253123881153805 $882 8.2253123881153805 $616 $883 forward 7 unknown #
coedge $-1 $399 $398 $880 $884 forward $169 $-1 #
edge $-1 $623 -44.613177892391732 $882 44.613177892391732 $615 $885 forward 7 unknown #
coedge $-1 $628 $627 $399 $621 reversed $612 $-1 #
edge $-1 $886 -44.613177892391732 $622 44.613177892391732 $620 $887 forward 7 unknown #
vertex $-1 $401 $888 #
vertex $-1 $634 $889 #
straight-curve $-1 44.613177892391732 0 -8.2253123881153805 0 -1 0 I I #
coedge $-1 $614 $616 $402 $626 reversed $395 $-1 #
edge $-1 $629 -18.964038461689452 $632 18.964038461689452 $625 $890 forward 7 unknown #
coedge $-1 $620 $403 $408 $635 forward $612 $-1 #
coedge $-1 $403 $620 $614 $881 reversed $612 $-1 #
vertex $-1 $404 $891 #
straight-curve $-1 0 18.964038461689452 8.2253123881153805 -1 0 0 I I #
coedge $-1 $405 $615 $407 $634 reversed $266 $-1 #
vertex $-1 $626 $892 #
straight-curve $-1 0 -18.964038461689452 8.2253123881153805 1 0 0 I I #
edge $-1 $410 -8.2253123881153805 $623 8.2253123881153805 $407 $893 forward 7 unknown #
edge $-1 $411 -8.2253123881153805 $622 8.2253123881153805 $408 $894 forward 7 unknown #
point $-1 44.613177892391732 -18.964038461689452 8.2253123881153805 #
point $-1 44.613177892391732 18.964038461689452 8.2253123881153805 #
face $-1 $-1 $428 $64 $-1 $895 reversed single #
loop $-1 $-1 $654 $413 #
plane-surface $-1 0 4.565285593343023 0 0 -1 0 0 0 -1 forward_v I I I I #
coedge $-1 $896 $652 $655 $897 forward $414 $-1 #
coedge $-1 $658 $416 $417 $646 reversed $274 $-1 #
coedge $-1 $652 $896 $416 $644 reversed $414 $-1 #
edge $-1 $659 -1.5 $898 1.5 $643 $899 forward 7 unknown #
coedge $-1 $418 $417 $896 $900 forward $173 $-1 #
edge $-1 $650 -44.613177892391732 $898 44.613177892391732 $642 $901 forward 7 unknown #
coedge $-1 $655 $654 $418 $648 reversed $639 $-1 #
edge $-1 $902 -44.613177892391732 $649 44.613177892391732 $647 $903 forward 7 unknown #
vertex $-1 $420 $904 #
vertex $-1 $661 $905 #
straight-curve $-1 44.613177892391732 0 -1.5 0 -1 0 I I #
coedge $-1 $641 $643 $421 $653 reversed $414 $-1 #
edge $-1 $656 -4.565285593343023 $659 4.565285593343023 $652 $906 forward 7 unknown #
coedge $-1 $647 $422 $427 $662 forward $639 $-1 #
coedge $-1 $422 $647 $641 $897 reversed $639 $-1 #
vertex $-1 $423 $907 #
straight-curve $-1 0 4.565285593343023 1.5 -1 0 0 I I #
coedge $-1 $424 $642 $426 $661 reversed $274 $-1 #
vertex $-1 $653 $908 #
straight-curve $-1 0 -4.565285593343023 1.5 1 0 0 I I #
edge $-1 $429 -1.5 $650 1.5 $426 $909 forward 7 unknown #
edge $-1 $430 -1.5 $649 1.5 $427 $910 forward 7 unknown #
point $-1 44.613177892391732 -4.565285593343023 1.5 #
point $-1 44.613177892391732 4.565285593343023 1.5 #
face $-1 $-1 $447 $65 $-1 $911 reversed single #
loop $-1 $-1 $681 $432 #
plane-surface $-1 0 3.5670875675444815 0 0 -1 0 0 0 -1 forward_v I I I I #
coedge $-1 $912 $679 $682 $913 forward $433 $-1 #
coedge $-1 $685 $435 $436 $673 reversed $282 $-1 #
coedge $-1 $679 $912 $435 $671 reversed $433 $-1 #
edge $-1 $686 -8.2253123881153805 $914 8.2253123881153805 $670 $915 forward 7 unknown #
coedge $-1 $437 $436 $912 $916 forward $177 $-1 #
edge $-1 $677 -1.5 $914 1.5 $669 $917 forward 7 unknown #
coedge $-1 $682 $681 $437 $675 reversed $666 $-1 #
edge $-1 $918 -1.5 $676 1.5 $674 $919 forward 7 unknown #
vertex $-1 $439 $920 #
vertex $-1 $688 $921 #
straight-curve $-1 1.5 0 -8.2253123881153805 0 -1 0 I I #
coedge $-1 $668 $670 $440 $680 reversed $433 $-1 #
edge $-1 $683 -3.5670875675444815 $686 3.5670875675444815 $679 $922 forward 7 unknown #
coedge $-1 $674 $441 $446 $689 forward $666 $-1 #
coedge $-1 $441 $674 $668 $913 reversed $666 $-1 #
vertex $-1 $442 $923 #
straight-curve $-1 0 3.5670875675444815 8.2253123881153805 -1 0 0 I I #
coedge $-1 $443 $669 $445 $688 reversed $282 $-1 #
vertex $-1 $680 $924 #
straight-curve $-1 0 -3.5670875675444815 8.2253123881153805 1 0 0 I I #
edge $-1 $448 -8.2253123881153805 $677 8.2253123881153805 $445 $925 forward 7 unknown #
edge $-1 $449 -8.2253123881153805 $676 8.2253123881153805 $446 $926 forward 7 unknown #
point $-1 1.5 -3.5670875675444815 8.2253123881153805 #
point $-1 1.5 3.5670875675444815 8.2253123881153805 #
face $-1 $-1 $466 $66 $-1 $927 reversed single #
loop $-1 $-1 $708 $451 #
plane-surface $-1 0 2.8596497250368262 0 0 -1 0 0 0 -1 forward_v I I I I #
coedge $-1 $928 $706 $709 $929 forward $452 $-1 #
coedge $-1 $712 $454 $455 $700 reversed $290 $-1 #
coedge $-1 $706 $928 $454 $698 reversed $452 $-1 #
edge $-1 $713 -89.226355784783465 $930 89.226355784783465 $697 $931 forward 7 unknown #
coedge $-1 $456 $455 $928 $932 forward $181 $-1 #
edge $-1 $704 -178.45271156956693 $930 178.45271156956693 $696 $933 forward 7 unknown #
coedge $-1 $709 $708 $456 $702 reversed $693 $-1 #
edge $-1 $934 -178.45271156956693 $703 178.45271156956693 $701 $935 forward 7 unknown #
vertex $-1 $458 $936 #
vertex $-1 $715 $937 #
straight-curve $-1 178.45271156956693 0 -89.226355784783465 0 -1 0 I I #
coedge $-1 $695 $697 $459 $707 reversed $452 $-1 #
edge $-1 $710 -2.8596497250368262 $713 2.8596497250368262 $706 $938 forward 7 unknown #
coedge $-1 $701 $460 $465 $716 forward $693 $-1 #
coedge $-1 $460 $701 $695 $929 reversed $693 $-1 #
vertex $-1 $461 $939 #
straight-curve $-1 0 2.8596497250368262 89.226355784783465 -1 0 0 I I #
coedge $-1 $462 $696 $464 $715 reversed $290 $-1 #
vertex $-1 $707 $940 #
straight-curve $-1 0 -2.8596497250368262 89.226355784783465 1 0 0 I I #
edge $-1 $467 -89.226355784783465 $704 89.226355784783465 $464 $941 forward 7 unknown #
edge $-1 $468 -89.226355784783465 $703 89.226355784783465 $465 $942 forward 7 unknown #
point $-1 178.45271156956693 -2.8596497250368262 89.226355784783465 #
point $-1 178.45271156956693 2.8596497250368262 89.226355784783465 #
coedge $-1 $719 $719 $-1 $943 reversed $470 $-1 #
vertex $-1 $472 $944 #
ellipse-curve $-1 0 0 -0.25 0 0 -1 0.5 0 0 1 I I #
point $-1 0.5 0 -2.1101947080904573 #
coedge $-1 $723 $723 $-1 $945 reversed $475 $-1 #
vertex $-1 $477 $946 #
ellipse-curve $-1 0 0 -0.25 0 0 -1 0.5 0 0 1 I I #
point $-1 0.5 0 -2.1101947080904573 #
face $-1 $-1 $495 $69 $-1 $947 reversed single #
loop $-1 $-1 $743 $480 #
plane-surface $-1 0 2.8596497250368262 0 0 -1 0 0 0 -1 forward_v I I I I #
coedge $-1 $948 $741 $744 $949 forward $481 $-1 #
coedge $-1 $747 $483 $484 $735 reversed $308 $-1 #
coedge $-1 $741 $948 $483 $733 reversed $481 $-1 #
edge $-1 $748 -89.226355784783465 $950 89.226355784783465 $732 $951 forward 7 unknown #
coedge $-1 $485 $484 $948 $952 forward $195 $-1 #
edge $-1 $739 -178.45271156956693 $950 178.45271156956693 $731 $953 forward 7 unknown #
coedge $-1 $744 $743 $485 $737 reversed $728 $-1 #
edge $-1 $954 -178.45271156956693 $738 178.45271156956693 $736 $955 forward 7 unknown #
vertex $-1 $487 $956 #
vertex $-1 $750 $957 #
straight-curve $-1 178.45271156956693 0 -89.226355784783465 0 -1 0 I I #
coedge $-1 $730 $732 $488 $742 reversed $481 $-1 #
edge $-1 $745 -2.8596497250368262 $748 2.8596497250368262 $741 $958 forward 7 unknown #
coedge $-1 $736 $489 $494 $751 forward $728 $-1 #
coedge $-1 $489 $736 $730 $949 reversed $728 $-1 #
vertex $-1 $490 $959 #
straight-curve $-1 0 2.8596497250368262 89.226355784783465 -1 0 0 I I #
coedge $-1 $491 $731 $493 $750 reversed $308 $-1 #
vertex $-1 $742 $960 #
straight-curve $-1 0 -2.8596497250368262 89.226355784783465 1 0 0 I I #
edge $-1 $496 -89.226355784783465 $739 89.226355784783465 $493 $961 forward 7 unknown #
edge $-1 $497 -89.226355784783465 $738 89.226355784783465 $494 $962 forward 7 unknown #
point $-1 178.45271156956693 -2.8596497250368262 89.226355784783465 #
point $-1 178.45271156956693 2.8596497250368262 89.226355784783465 #
coedge $-1 $754 $754 $-1 $963 reversed $499 $-1 #
vertex $-1 $501 $964 #
ellipse-curve $-1 0 0 -0.25 0 0 -1 0.5 0 0 1 I I #
point $-1 0.5 0 -2.1101947080904573 #
coedge $-1 $758 $758 $-1 $965 reversed $504 $-1 #
vertex $-1 $506 $966 #
ellipse-curve $-1 0 0 -0.25 0 0 -1 0.5 0 0 1 I I #
point $-1 0.5 0 -2.1101947080904573 #
face $-1 $-1 $524 $72 $-1 $967 reversed single #
loop $-1 $-1 $778 $509 #
plane-surface $-1 0 2.3971029516159765 0 0 -1 0 0 0 -1 forward_v I I I I #
coedge $-1 $968 $776 $779 $969 forward $510 $-1 #
coedge $-1 $782 $512 $513 $770 reversed $326 $-1 #
coedge $-1 $776 $968 $512 $768 reversed $510 $-1 #
edge $-1 $783 -89.226355784783465 $970 89.226355784783465 $767 $971 forward 7 unknown #
coedge $-1 $514 $513 $968 $972 forward $209 $-1 #
edge $-1 $774 -178.45271156956693 $970 178.45271156956693 $766 $973 forward 7 unknown #
coedge $-1 $779 $778 $514 $772 reversed $763 $-1 #
edge $-1 $974 -178.45271156956693 $773 178.45271156956693 $771 $975 forward 7 unknown #
vertex $-1 $516 $976 #
vertex $-1 $785 $977 #
straight-curve $-1 178.45271156956693 0 -89.226355784783465 0 -1 0 I I #
coedge $-1 $765 $767 $517 $777 reversed $510 $-1 #
edge $-1 $780 -2.3971029516159765 $783 2.3971029516159765 $776 $978 forward 7 unknown #
coedge $-1 $771 $518 $523 $786 forward $763 $-1 #
coedge $-1 $518 $771 $765 $969 reversed $763 $-1 #
vertex $-1 $519 $979 #
straight-curve $-1 0 2.3971029516159765 89.226355784783465 -1 0 0 I I #
coedge $-1 $520 $766 $522 $785 reversed $326 $-1 #
vertex $-1 $777 $980 #
straight-curve $-1 0 -2.3971029516159765 89.226355784783465 1 0 0 I I #
edge $-1 $525 -89.226355784783465 $774 89.226355784783465 $522 $981 forward 7 unknown #
edge $-1 $526 -89.226355784783465 $773 89.226355784783465 $523 $982 forward 7 unknown #
point $-1 178.45271156956693 -2.3971029516159765 89.226355784783465 #
point $-1 178.45271156956693 2.3971029516159765 89.226355784783465 #
coedge $-1 $789 $789 $-1 $983 reversed $528 $-1 #
vertex $-1 $530 $984 #
ellipse-curve $-1 0 0 -0.125 0 0 -1 0.25 0 0 1 I I #
point $-1 0.25 0 -1.125 #
coedge $-1 $793 $793 $-1 $985 reversed $533 $-1 #
vertex $-1 $535 $986 #
ellipse-curve $-1 0 0 -0.125 0 0 -1 0.25 0 0 1 I I #
point $-1 0.25 0 -1.125 #
coedge $-1 $797 $797 $-1 $987 reversed $538 $-1 #
vertex $-1 $540 $988 #
ellipse-curve $-1 0 0 -0.125 0 0 -1 0.25 0 0 1 I I #
point $-1 0.25 0 -1.125 #
face $-1 $-1 $558 $76 $-1 $989 reversed single #
loop $-1 $-1 $817 $543 #
plane-surface $-1 0 2.3971029516159765 0 0 -1 0 0 0 -1 forward_v I I I I #
coedge $-1 $990 $815 $818 $991 forward $544 $-1 #
coedge $-1 $821 $546 $547 $809 reversed $349 $-1 #
coedge $-1 $815 $990 $546 $807 reversed $544 $-1 #
edge $-1 $822 -89.226355784783465 $992 89.226355784783465 $806 $993 forward 7 unknown #
coedge $-1 $548 $547 $990 $994 forward $228 $-1 #
edge $-1 $813 -178.45271156956693 $992 178.45271156956693 $805 $995 forward 7 unknown #
coedge $-1 $818 $817 $548 $811 reversed $802 $-1 #
edge $-1 $996 -178.45271156956693 $812 178.45271156956693 $810 $997 forward 7 unknown #
vertex $-1 $550 $998 #
vertex $-1 $824 $999 #
straight-curve $-1 178.45271156956693 0 -89.226355784783465 0 -1 0 I I #
coedge $-1 $804 $806 $551 $816 reversed $544 $-1 #
edge $-1 $819 -2.3971029516159765 $822 2.3971029516159765 $815 $1000 forward 7 unknown #
coedge $-1 $810 $552 $557 $825 forward $802 $-1 #
coedge $-1 $552 $810 $804 $991 reversed $802 $-1 #
vertex $-1 $553 $1001 #
straight-curve $-1 0 2.3971029516159765 89.226355784783465 -1 0 0 I I #
coedge $-1 $554 $805 $556 $824 reversed $349 $-1 #
vertex $-1 $816 $1002 #
straight-curve $-1 0 -2.3971029516159765 89.226355784783465 1 0 0 I I #
edge $-1 $559 -89.226355784783465 $813 89.226355784783465 $556 $1003 forward 7 unknown #
edge $-1 $560 -89.226355784783465 $812 89.226355784783465 $557 $1004 forward 7 unknown #
point $-1 178.45271156956693 -2.3971029516159765 89.226355784783465 #
point $-1 178.45271156956693 2.3971029516159765 89.226355784783465 #
coedge $-1 $828 $828 $-1 $1005 reversed $562 $-1 #
vertex $-1 $564 $1006 #
ellipse-curve $-1 0 0 -0.125 0 0 -1 0.25 0 0 1 I I #
point $-1 0.25 0 -1.125 #
coedge $-1 $832 $832 $-1 $1007 reversed $567 $-1 #
vertex $-1 $569 $1008 #
ellipse-curve $-1 0 0 -0.125 0 0 -1 0.25 0 0 1 I I #
point $-1 0.25 0 -1.125 #
coedge $-1 $836 $836 $-1 $1009 reversed $572 $-1 #
vertex $-1 $574 $1010 #
ellipse-curve $-1 0 0 -0.125 0 0 -1 0.25 0 0 1 I I #
point $-1 0.25 0 -1.125 #
face $-1 $-1 $592 $80 $-1 $1011 reversed single #
loop $-1 $-1 $856 $577 #
plane-surface $-1 0 2.3971029516159765 0 0 -1 0 0 0 -1 forward_v I I I I #
coedge $-1 $1012 $854 $857 $1013 forward $578 $-1 #
coedge $-1 $860 $580 $581 $848 reversed $372 $-1 #
coedge $-1 $854 $1012 $580 $846 reversed $578 $-1 #
edge $-1 $861 -89.226355784783465 $1014 89.226355784783465 $845 $1015 forward 7 unknown #
coedge $-1 $582 $581 $1012 $1016 forward $247 $-1 #
edge $-1 $852 -178.45271156956693 $1014 178.45271156956693 $844 $1017 forward 7 unknown #
coedge $-1 $857 $856 $582 $850 reversed $841 $-1 #
edge $-1 $1018 -178.45271156956693 $851 178.45271156956693 $849 $1019 forward 7 unknown #
vertex $-1 $584 $1020 #
vertex $-1 $863 $1021 #
straight-curve $-1 178.45271156956693 0 -89.226355784783465 0 -1 0 I I #
coedge $-1 $843 $845 $585 $855 reversed $578 $-1 #
edge $-1 $858 -2.3971029516159765 $861 2.3971029516159765 $854 $1022 forward 7 unknown #
coedge $-1 $849 $586 $591 $864 forward $841 $-1 #
coedge $-1 $586 $849 $843 $1013 reversed $841 $-1 #
vertex $-1 $587 $1023 #
straight-curve $-1 0 2.3971029516159765 89.226355784783465 -1 0 0 I I #
coedge $-1 $588 $844 $590 $863 reversed $372 $-1 #
vertex $-1 $855 $1024 #
straight-curve $-1 0 -2.3971029516159765 89.226355784783465 1 0 0 I I #
edge $-1 $593 -89.226355784783465 $852 89.226355784783465 $590 $1025 forward 7 unknown #
edge $-1 $594 -89.226355784783465 $851 89.226355784783465 $591 $1026 forward 7 unknown #
point $-1 178.45271156956693 -2.3971029516159765 89.226355784783465 #
point $-1 178.45271156956693 2.3971029516159765 89.226355784783465 #
coedge $-1 $867 $867 $-1 $1027 reversed $596 $-1 #
vertex $-1 $598 $1028 #
ellipse-curve $-1 0 0 -0.125 0 0 -1 0.25 0 0 1 I I #
point $-1 0.25 0 -1.125 #
coedge $-1 $871 $871 $-1 $1029 reversed $601 $-1 #
vertex $-1 $603 $1030 #
ellipse-curve $-1 0 0 -0.125 0 0 -1 0.25 0 0 1 I I #
point $-1 0.25 0 -1.125 #
coedge $-1 $875 $875 $-1 $1031 reversed $606 $-1 #
vertex $-1 $608 $1032 #
ellipse-curve $-1 0 0 -0.125 0 0 -1 0.25 0 0 1 I I #
point $-1 0.25 0 -1.125 #
plane-surface $-1 44.613177892391732 0 0 -1 0 0 0 0 1 forward_v I I I I #
coedge $-1 $616 $614 $618 $884 reversed $395 $-1 #
edge $-1 $629 -8.2253123881153805 $886 8.2253123881153805 $628 $1033 forward 7 unknown #
vertex $-1 $884 $1034 #
straight-curve $-1 -44.613177892391732 -18.964038461689452 0 0 0 -1 I I #
edge $-1 $882 -18.964038461689452 $886 18.964038461689452 $880 $1035 forward 7 unknown #
straight-curve $-1 0 -18.964038461689452 -8.2253123881153805 -1 0 0 I I #
vertex $-1 $621 $1036 #
straight-curve $-1 0 18.964038461689452 -8.2253123881153805 1 0 0 I I #
point $-1 44.613177892391732 18.964038461689452 -8.2253123881153805 #
point $-1 44.613177892391732 -18.964038461689452 -8.2253123881153805 #
straight-curve $-1 -44.613177892391732 0 8.2253123881153805 0 -1 0 I I #
point $-1 -44.613177892391732 18.964038461689452 8.2253123881153805 #
point $-1 -44.613177892391732 -18.964038461689452 8.2253123881153805 #
straight-curve $-1 44.613177892391732 -18.964038461689452 0 0 0 -1 I I #
straight-curve $-1 44.613177892391732 18.964038461689452 0 0 0 -1 I I #
plane-surface $-1 44.613177892391732 0 0 -1 0 0 0 0 1 forward_v I I I I #
coedge $-1 $643 $641 $645 $900 reversed $414 $-1 #
edge $-1 $656 -1.5 $902 1.5 $655 $1037 forward 7 unknown #
vertex $-1 $900 $1038 #
straight-curve $-1 -44.613177892391732 -4.565285593343023 0 0 0 -1 I I #
edge $-1 $898 -4.565285593343023 $902 4.565285593343023 $896 $1039 forward 7 unknown #
straight-curve $-1 0 -4.565285593343023 -1.5 -1 0 0 I I #
vertex $-1 $648 $1040 #
straight-curve $-1 0 4.565285593343023 -1.5 1 0 0 I I #
point $-1 44.613177892391732 4.565285593343023 -1.5 #
point $-1 44.613177892391732 -4.565285593343023 -1.5 #
straight-curve $-1 -44.613177892391732 0 1.5 0 -1 0 I I #
point $-1 -44.613177892391732 4.565285593343023 1.5 #
point $-1 -44.613177892391732 -4.565285593343023 1.5 #
straight-curve $-1 44.613177892391732 -4.565285593343023 0 0 0 -1 I I #
straight-curve $-1 44.613177892391732 4.565285593343023 0 0 0 -1 I I #
plane-surface $-1 1.5 0 0 -1 0 0 0 0 1 forward_v I I I I #
coedge $-1 $670 $668 $672 $916 reversed $433 $-1 #
edge $-1 $683 -8.2253123881153805 $918 8.2253123881153805 $682 $1041 forward 7 unknown #
vertex $-1 $916 $1042 #
straight-curve $-1 -1.5 -3.5670875675444815 0 0 0 -1 I I #
edge $-1 $914 -3.5670875675444815 $918 3.5670875675444815 $912 $1043 forward 7 unknown #
straight-curve $-1 0 -3.5670875675444815 -8.2253123881153805 -1 0 0 I I #
vertex $-1 $675 $1044 #
straight-curve $-1 0 3.5670875675444815 -8.2253123881153805 1 0 0 I I #
point $-1 1.5 3.5670875675444815 -8.2253123881153805 #
point $-1 1.5 -3.5670875675444815 -8.2253123881153805 #
straight-curve $-1 -1.5 0 8.2253123881153805 0 -1 0 I I #
point $-1 -1.5 3.5670875675444815 8.2253123881153805 #
point $-1 -1.5 -3.5670875675444815 8.2253123881153805 #
straight-curve $-1 1.5 -3.5670875675444815 0 0 0 -1 I I #
straight-curve $-1 1.5 3.5670875675444815 0 0 0 -1 I I #
plane-surface $-1 178.45271156956693 0 0 -1 0 0 0 0 1 forward_v I I I I #
coedge $-1 $697 $695 $699 $932 reversed $452 $-1 #
edge $-1 $710 -89.226355784783465 $934 89.226355784783465 $709 $1045 forward 7 unknown #
vertex $-1 $932 $1046 #
straight-curve $-1 -178.45271156956693 -2.8596497250368262 0 0 0 -1 I I #
edge $-1 $930 -2.8596497250368262 $934 2.8596497250368262 $928 $1047 forward 7 unknown #
straight-curve $-1 0 -2.8596497250368262 -89.226355784783465 -1 0 0 I I #
vertex $-1 $702 $1048 #
straight-curve $-1 0 2.8596497250368262 -89.226355784783465 1 0 0 I I #
point $-1 178.45271156956693 2.8596497250368262 -89.226355784783465 #
point $-1 178.45271156956693 -2.8596497250368262 -89.226355784783465 #
straight-curve $-1 -178.45271156956693 0 89.226355784783465 0 -1 0 I I #
point $-1 -178.45271156956693 2.8596497250368262 89.226355784783465 #
point $-1 -178.45271156956693 -2.8596497250368262 89.226355784783465 #
straight-curve $-1 178.45271156956693 -2.8596497250368262 0 0 0 -1 I I #
straight-curve $-1 178.45271156956693 2.8596497250368262 0 0 0 -1 I I #
edge $-1 $1049 1 $1049 0 $719 $-1 forward 7 unknown #
point $-1 0.5 0 -0.25 #
edge $-1 $1050 1 $1050 0 $723 $-1 forward 7 unknown #
point $-1 0.5 0 -0.25 #
plane-surface $-1 178.45271156956693 0 0 -1 0 0 0 0 1 forward_v I I I I #
coedge $-1 $732 $730 $734 $952 reversed $481 $-1 #
edge $-1 $745 -89.226355784783465 $954 89.226355784783465 $744 $1051 forward 7 unknown #
vertex $-1 $952 $1052 #
straight-curve $-1 -178.45271156956693 -2.8596497250368262 0 0 0 -1 I I #
edge $-1 $950 -2.8596497250368262 $954 2.8596497250368262 $948 $1053 forward 7 unknown #
straight-curve $-1 0 -2.8596497250368262 -89.226355784783465 -1 0 0 I I #
vertex $-1 $737 $1054 #
straight-curve $-1 0 2.8596497250368262 -89.226355784783465 1 0 0 I I #
point $-1 178.45271156956693 2.8596497250368262 -89.226355784783465 #
point $-1 178.45271156956693 -2.8596497250368262 -89.226355784783465 #
straight-curve $-1 -178.45271156956693 0 89.226355784783465 0 -1 0 I I #
point $-1 -178.45271156956693 2.8596497250368262 89.226355784783465 #
point $-1 -178.45271156956693 -2.8596497250368262 89.226355784783465 #
straight-curve $-1 178.45271156956693 -2.8596497250368262 0 0 0 -1 I I #
straight-curve $-1 178.45271156956693 2.8596497250368262 0 0 0 -1 I I #
edge $-1 $1055 1 $1055 0 $754 $-1 forward 7 unknown #
point $-1 0.5 0 -0.25 #
edge $-1 $1056 1 $1056 0 $758 $-1 forward 7 unknown #
point $-1 0.5 0 -0.25 #
plane-surface $-1 178.45271156956693 0 0 -1 0 0 0 0 1 forward_v I I I I #
coedge $-1 $767 $765 $769 $972 reversed $510 $-1 #
edge $-1 $780 -89.226355784783465 $974 89.226355784783465 $779 $1057 forward 7 unknown #
vertex $-1 $972 $1058 #
straight-curve $-1 -178.45271156956693 -2.3971029516159765 0 0 0 -1 I I #
edge $-1 $970 -2.3971029516159765 $974 2.3971029516159765 $968 $1059 forward 7 unknown #
straight-curve $-1 0 -2.3971029516159765 -89.226355784783465 -1 0 0 I I #
vertex $-1 $772 $1060 #
straight-curve $-1 0 2.3971029516159765 -89.226355784783465 1 0 0 I I #
point $-1 178.45271156956693 2.3971029516159765 -89.226355784783465 #
point $-1 178.45271156956693 -2.3971029516159765 -89.226355784783465 #
straight-curve $-1 -178.45271156956693 0 89.226355784783465 0 -1 0 I I #
point $-1 -178.45271156956693 2.3971029516159765 89.226355784783465 #
point $-1 -178.45271156956693 -2.3971029516159765 89.226355784783465 #
straight-curve $-1 178.45271156956693 -2.3971029516159765 0 0 0 -1 I I #
straight-curve $-1 178.45271156956693 2.3971029516159765 0 0 0 -1 I I #
edge $-1 $1061 1 $1061 0 $789 $-1 forward 7 unknown #
point $-1 0.25 0 -0.125 #
edge $-1 $1062 1 $1062 0 $793 $-1 forward 7 unknown #
point $-1 0.25 0 -0.125 #
edge $-1 $1063 1 $1063 0 $797 $-1 forward 7 unknown #
point $-1 0.25 0 -0.125 #
plane-surface $-1 178.45271156956693 0 0 -1 0 0 0 0 1 forward_v I I I I #
coedge $-1 $806 $804 $808 $994 reversed $544 $-1 #
edge $-1 $819 -89.226355784783465 $996 89.226355784783465 $818 $1064 forward 7 unknown #
vertex $-1 $994 $1065 #
straight-curve $-1 -178.45271156956693 -2.3971029516159765 0 0 0 -1 I I #
edge $-1 $992 -2.3971029516159765 $996 2.3971029516159765 $990 $1066 forward 7 unknown #
straight-curve $-1 0 -2.3971029516159765 -89.226355784783465 -1 0 0 I I #
vertex $-1 $811 $1067 #
straight-curve $-1 0 2.3971029516159765 -89.226355784783465 1 0 0 I I #
point $-1 178.45271156956693 2.3971029516159765 -89.226355784783465 #
point $-1 178.45271156956693 -2.3971029516159765 -89.226355784783465 #
straight-curve $-1 -178.45271156956693 0 89.226355784783465 0 -1 0 I I #
point $-1 -178.45271156956693 2.3971029516159765 89.226355784783465 #
point $-1 -178.45271156956693 -2.3971029516159765 89.226355784783465 #
straight-curve $-1 178.45271156956693 -2.3971029516159765 0 0 0 -1 I I #
straight-curve $-1 178.45271156956693 2.3971029516159765 0 0 0 -1 I I #
edge $-1 $1068 1 $1068 0 $828 $-1 forward 7 unknown #
point $-1 0.25 0 -0.125 #
edge $-1 $1069 1 $1069 0 $832 $-1 forward 7 unknown #
point $-1 0.25 0 -0.125 #
edge $-1 $1070 1 $1070 0 $836 $-1 forward 7 unknown #
point $-1 0.25 0 -0.125 #
plane-surface $-1 178.45271156956693 0 0 -1 0 0 0 0 1 forward_v I I I I #
coedge $-1 $845 $843 $847 $1016 reversed $578 $-1 #
edge $-1 $858 -89.226355784783465 $1018 89.226355784783465 $857 $1071 forward 7 unknown #
vertex $-1 $1016 $1072 #
straight-curve $-1 -178.45271156956693 -2.3971029516159765 0 0 0 -1 I I #
edge $-1 $1014 -2.3971029516159765 $1018 2.3971029516159765 $1012 $1073 forward 7 unknown #
straight-curve $-1 0 -2.3971029516159765 -89.226355784783465 -1 0 0 I I #
vertex $-1 $850 $1074 #
straight-curve $-1 0 2.3971029516159765 -89.226355784783465 1 0 0 I I #
point $-1 178.45271156956693 2.3971029516159765 -89.226355784783465 #
point $-1 178.45271156956693 -2.3971029516159765 -89.226355784783465 #
straight-curve $-1 -178.45271156956693 0 89.226355784783465 0 -1 0 I I #
point $-1 -178.45271156956693 2.3971029516159765 89.226355784783465 #
point $-1 -178.45271156956693 -2.3971029516159765 89.226355784783465 #
straight-curve $-1 178.45271156956693 -2.3971029516159765 0 0 0 -1 I I #
straight-curve $-1 178.45271156956693 2.3971029516159765 0 0 0 -1 I I #
edge $-1 $1075 1 $1075 0 $867 $-1 forward 7 unknown #
point $-1 0.25 0 -0.125 #
edge $-1 $1076 1 $1076 0 $871 $-1 forward 7 unknown #
point $-1 0.25 0 -0.125 #
edge $-1 $1077 1 $1077 0 $875 $-1 forward 7 unknown #
point $-1 0.25 0 -0.125 #
straight-curve $-1 -44.613177892391732 18.964038461689452 0 0 0 -1 I I #
point $-1 -44.613177892391732 -18.964038461689452 -8.2253123881153805 #
straight-curve $-1 -44.613177892391732 0 -8.2253123881153805 0 1 0 I I #
point $-1 -44.613177892391732 18.964038461689452 -8.2253123881153805 #
straight-curve $-1 -44.613177892391732 4.565285593343023 0 0 0 -1 I I #
point $-1 -44.613177892391732 -4.565285593343023 -1.5 #
straight-curve $-1 -44.613177892391732 0 -1.5 0 1 0 I I #
point $-1 -44.613177892391732 4.565285593343023 -1.5 #
straight-curve $-1 -1.5 3.5670875675444815 0 0 0 -1 I I #
point $-1 -1.5 -3.5670875675444815 -8.2253123881153805 #
straight-curve $-1 -1.5 0 -8.2253123881153805 0 1 0 I I #
point $-1 -1.5 3.5670875675444815 -8.2253123881153805 #
straight-curve $-1 -178.45271156956693 2.8596497250368262 0 0 0 -1 I I #
point $-1 -178.45271156956693 -2.8596497250368262 -89.226355784783465 #
straight-curve $-1 -178.45271156956693 0 -89.226355784783465 0 1 0 I I #
point $-1 -178.45271156956693 2.8596497250368262 -89.226355784783465 #
vertex $-1 $943 $1078 #
vertex $-1 $945 $1079 #
straight-curve $-1 -178.45271156956693 2.8596497250368262 0 0 0 -1 I I #
point $-1 -178.45271156956693 -2.8596497250368262 -89.226355784783465 #
straight-curve $-1 -178.45271156956693 0 -89.226355784783465 0 1 0 I I #
point $-1 -178.45271156956693 2.8596497250368262 -89.226355784783465 #
vertex $-1 $963 $1080 #
vertex $-1 $965 $1081 #
straight-curve $-1 -178.45271156956693 2.3971029516159765 0 0 0 -1 I I #
point $-1 -178.45271156956693 -2.3971029516159765 -89.226355784783465 #
straight-curve $-1 -178.45271156956693 0 -89.226355784783465 0 1 0 I I #
point $-1 -178.45271156956693 2.3971029516159765 -89.226355784783465 #
vertex $-1 $983 $1082 #
vertex $-1 $985 $1083 #
vertex $-1 $987 $1084 #
straight-curve $-1 -178.45271156956693 2.3971029516159765 0 0 0 -1 I I #
point $-1 -178.45271156956693 -2.3971029516159765 -89.226355784783465 #
straight-curve $-1 -178.45271156956693 0 -89.226355784783465 0 1 0 I I #
point $-1 -178.45271156956693 2.3971029516159765 -89.226355784783465 #
vertex $-1 $1005 $1085 #
vertex $-1 $1007 $1086 #
vertex $-1 $1009 $1087 #
straight-curve $-1 -178.45271156956693 2.3971029516159765 0 0 0 -1 I I #
point $-1 -178.45271156956693 -2.3971029516159765 -89.226355784783465 #
straight-curve $-1 -178.45271156956693 0 -89.226355784783465 0 1 0 I I #
point $-1 -178.45271156956693 2.3971029516159765 -89.226355784783465 #
vertex $-1 $1027 $1088 #
vertex $-1 $1029 $1089 #
vertex $-1 $1031 $1090 #
point $-1 0 0 0.25 #
point $-1 0 0 0.25 #
point $-1 0 0 0.25 #
point $-1 0 0 0.25 #
point $-1 0 0 0.125 #
point $-1 0 0 0.125 #
point $-1 0 0 0.125 #
point $-1 0 0 0.125 #
point $-1 0 0 0.125 #
point $-1 0 0 0.125 #
point $-1 0 0 0.125 #
point $-1 0 0 0.125 #
point $-1 0 0 0.125 #
End-of-ACIS-data 