600 0 9 0           
107 GICL ACIS Healer - Source: /gicl/data5/repository/Drexel/CICIRELLO-THESISDATA/Part10010.smdg.feat.sat - 6 0 18 ACIS 6.0.3 Solaris 24 Fri Apr 12 10:24:25 2002 
1 9.999999999999999547e-07 1.000000000000000036e-10 
body $-1 $9 $-1 $-1 #
body $-1 $10 $-1 $-1 #
body $-1 $11 $-1 $-1 #
body $-1 $12 $-1 $-1 #
body $-1 $13 $-1 $-1 #
body $-1 $14 $-1 $-1 #
body $-1 $15 $-1 $-1 #
body $-1 $16 $-1 $-1 #
body $-1 $17 $-1 $-1 #
lump $-1 $-1 $18 $0 #
lump $-1 $-1 $19 $1 #
lump $-1 $-1 $20 $2 #
lump $-1 $-1 $21 $3 #
lump $-1 $-1 $22 $4 #
lump $-1 $-1 $23 $5 #
lump $-1 $-1 $24 $6 #
lump $-1 $-1 $25 $7 #
lump $-1 $-1 $26 $8 #
shell $-1 $-1 $-1 $27 $-1 $9 #
shell $-1 $-1 $-1 $28 $-1 $10 #
shell $-1 $-1 $-1 $29 $-1 $11 #
shell $-1 $-1 $-1 $30 $-1 $12 #
shell $-1 $-1 $-1 $31 $-1 $13 #
shell $-1 $-1 $-1 $32 $-1 $14 #
shell $-1 $-1 $-1 $33 $-1 $15 #
shell $-1 $-1 $-1 $34 $-1 $16 #
shell $-1 $-1 $-1 $35 $-1 $17 #
face $-1 $36 $37 $18 $-1 $38 forward single #
face $-1 $39 $40 $19 $-1 $41 forward single #
face $-1 $42 $43 $20 $-1 $44 forward single #
face $-1 $45 $46 $21 $-1 $47 forward single #
face $-1 $48 $49 $22 $-1 $50 forward single #
face $-1 $51 $52 $23 $-1 $53 forward single #
face $-1 $54 $55 $24 $-1 $56 forward single #
face $-1 $57 $58 $25 $-1 $59 forward single #
face $-1 $60 $61 $26 $-1 $62 forward single #
face $-1 $63 $64 $18 $-1 $65 reversed single #
loop $-1 $-1 $66 $27 #
plane-surface $-1 58.36603900265511413 26.43349046893220589 24.94365709395054864 0 0 1 1 0 0 forward_v I I I I #
face $-1 $67 $68 $19 $-1 $69 reversed single #
loop $-1 $-1 $70 $28 #
plane-surface $-1 -5.477765491851734225 26.43349046893220589 6.475972327767165027 0 0 1 1 0 0 forward_v I I I I #
face $-1 $71 $72 $20 $-1 $73 reversed single #
loop $-1 $-1 $74 $29 #
plane-surface $-1 33.91037091326680297 151.1477711888558133 234.8399824916706677 0 0.6018150307709319025 0.7986355043060522352 1 0 0 forward_v I I I I #
face $-1 $75 $76 $21 $-1 $77 forward single #
loop $-1 $78 $79 $30 #
cone-surface $-1 28.20852578074018524 45.43250865077209255 18.26374739417352799 0 -0.6018150307709319025 -0.7986355043060522352 2 0 0 1 I I 0 1 2 forward I I I I #
face $-1 $80 $81 $22 $-1 $82 forward single #
loop $-1 $83 $84 $31 #
cone-surface $-1 39.61221604579341715 45.43250865077209255 18.26374739417352799 0 -0.6018150307709319025 -0.7986355043060522352 2 0 0 1 I I 0 1 2 forward I I I I #
face $-1 $85 $86 $23 $-1 $87 reversed single #
loop $-1 $-1 $88 $32 #
plane-surface $-1 85.92111138477068266 -143.7348885276651913 196.4498739785741463 0 -0.6156614830463592591 0.788010747574649173 1 0 0 forward_v I I I I #
face $-1 $89 $90 $24 $-1 $91 forward single #
loop $-1 $92 $93 $33 #
cone-surface $-1 81.84619475917649822 8.77731545606411423 17.68743638452995626 0 0.6156614830463592591 -0.788010747574649173 1 0 0 1 I I 0 1 1 forward I I I I #
face $-1 $94 $95 $25 $-1 $96 forward single #
loop $-1 $97 $98 $34 #
cone-surface $-1 85.92111138477068266 8.77731545606411423 17.68743638452995626 0 0.6156614830463592591 -0.788010747574649173 1 0 0 1 I I 0 1 1 forward I I I I #
face $-1 $99 $100 $26 $-1 $101 forward single #
loop $-1 $102 $103 $35 #
cone-surface $-1 89.9960280103648671 8.77731545606411423 17.68743638452995626 0 0.6156614830463592591 -0.788010747574649173 1 0 0 1 I I 0 1 1 forward I I I I #
face $-1 $104 $105 $18 $-1 $106 reversed single #
loop $-1 $-1 $107 $36 #
plane-surface $-1 58.36603900265511413 26.43349046893220589 0 0 0 1 1 0 0 forward_v I I I I #
coedge $-1 $108 $109 $110 $111 forward $37 $-1 #
face $-1 $112 $113 $19 $-1 $114 reversed single #
loop $-1 $-1 $115 $39 #
plane-surface $-1 -5.477765491851734225 26.43349046893220589 0 0 0 1 1 0 0 forward_v I I I I #
coedge $-1 $116 $117 $118 $119 forward $40 $-1 #
face $-1 $120 $121 $20 $-1 $122 reversed single #
loop $-1 $-1 $123 $42 #
plane-surface $-1 33.91037091326680297 10.64553295541459477 48.38721851874194613 0 0.6018150307709319025 0.7986355043060522352 1 0 0 forward_v I I I I #
coedge $-1 $124 $125 $126 $127 forward $43 $-1 #
face $-1 $-1 $128 $21 $-1 $129 forward single #
loop $-1 $-1 $130 $45 #
plane-surface $-1 28.20852578074018524 47.31158503244188296 20.7573659264026702 0 0.6018150307709319025 0.7986355043060522352 -1 -0 0 forward_v I I I I #
loop $-1 $-1 $131 $30 #
coedge $-1 $79 $79 $130 $132 reversed $46 $-1 #
face $-1 $-1 $133 $22 $-1 $134 forward single #
loop $-1 $-1 $135 $48 #
plane-surface $-1 39.61221604579341715 47.31158503244188296 20.7573659264026702 0 0.6018150307709319025 0.7986355043060522352 -1 -0 0 forward_v I I I I #
loop $-1 $-1 $136 $31 #
coedge $-1 $84 $84 $135 $137 reversed $49 $-1 #
face $-1 $138 $139 $23 $-1 $140 reversed single #
loop $-1 $-1 $141 $51 #
plane-surface $-1 85.92111138477068266 0 12.47760986876059519 0 -0.6156614830463592591 0.788010747574649173 1 0 0 forward_v I I I I #
coedge $-1 $142 $143 $144 $145 forward $52 $-1 #
face $-1 $-1 $146 $24 $-1 $147 forward single #
loop $-1 $-1 $148 $54 #
plane-surface $-1 81.84619475917649822 7.977906255086546494 18.71063348135556836 0 -0.6156614830463592591 0.788010747574649173 -1 0 -0 forward_v I I I I #
loop $-1 $-1 $149 $33 #
coedge $-1 $93 $93 $148 $150 reversed $55 $-1 #
face $-1 $-1 $151 $25 $-1 $152 forward single #
loop $-1 $-1 $153 $57 #
plane-surface $-1 85.92111138477068266 7.977906255086546494 18.71063348135556836 0 -0.6156614830463592591 0.788010747574649173 -1 0 -0 forward_v I I I I #
loop $-1 $-1 $154 $34 #
coedge $-1 $98 $98 $153 $155 reversed $58 $-1 #
face $-1 $-1 $156 $26 $-1 $157 forward single #
loop $-1 $-1 $158 $60 #
plane-surface $-1 89.9960280103648671 7.977906255086546494 18.71063348135556836 0 -0.6156614830463592591 0.788010747574649173 -1 0 -0 forward_v I I I I #
loop $-1 $-1 $159 $35 #
coedge $-1 $103 $103 $158 $160 reversed $61 $-1 #
face $-1 $161 $162 $18 $-1 $163 reversed single #
loop $-1 $-1 $164 $63 #
plane-surface $-1 58.36603900265511413 0 12.47182854697527432 0 1 0 0 0 1 forward_v I I I I #
coedge $-1 $165 $166 $167 $168 forward $64 $-1 #
coedge $-1 $169 $66 $170 $171 forward $37 $-1 #
coedge $-1 $66 $169 $172 $173 forward $37 $-1 #
coedge $-1 $174 $175 $66 $111 reversed $176 $-1 #
edge $-1 $177 -26.43349046893220589 $178 26.43349046893220589 $110 $179 forward 7 unknown #
face $-1 $180 $181 $19 $-1 $182 reversed single #
loop $-1 $-1 $183 $67 #
plane-surface $-1 -5.477765491851734225 0 3.237986163883582513 0 1 0 0 0 1 forward_v I I I I #
coedge $-1 $184 $185 $186 $187 forward $68 $-1 #
coedge $-1 $188 $70 $189 $190 forward $40 $-1 #
coedge $-1 $70 $188 $191 $192 forward $40 $-1 #
coedge $-1 $193 $194 $70 $119 reversed $195 $-1 #
edge $-1 $196 -26.43349046893220589 $197 26.43349046893220589 $118 $198 forward 7 unknown #
face $-1 $199 $200 $20 $-1 $201 reversed single #
loop $-1 $-1 $202 $71 #
plane-surface $-1 33.91037091326680297 -105.5561119007935247 282.1158387386475397 0 0.7986355043060522352 -0.6018150307709319025 0 0.6018150307709319025 0.7986355043060522352 forward_v I I I I #
coedge $-1 $203 $204 $205 $206 forward $72 $-1 #
coedge $-1 $207 $74 $208 $209 forward $43 $-1 #
coedge $-1 $74 $207 $210 $211 forward $43 $-1 #
coedge $-1 $212 $213 $74 $127 reversed $214 $-1 #
edge $-1 $215 -233.4641560106204565 $216 233.4641560106204565 $126 $217 forward 7 unknown #
loop $-1 $218 $219 $75 #
cone-surface $-1 28.20852578074018524 42.95161723833136591 14.97149335763833733 0 -0.6018150307709319025 -0.7986355043060522352 1 0 0 1 I I -0.7071067811865474617 0.7071067811865474617 1 forward I I I I #
coedge $-1 $130 $130 $79 $132 forward $76 $-1 #
coedge $-1 $131 $131 $219 $220 forward $78 $-1 #
edge $-1 $221 0 $221 6.283185307179586232 $130 $222 forward 7 unknown #
loop $-1 $223 $224 $80 #
cone-surface $-1 39.61221604579341715 42.95161723833136591 14.97149335763833733 0 -0.6018150307709319025 -0.7986355043060522352 1 0 0 1 I I -0.7071067811865474617 0.7071067811865474617 1 forward I I I I #
coedge $-1 $135 $135 $84 $137 forward $81 $-1 #
coedge $-1 $136 $136 $224 $225 forward $83 $-1 #
edge $-1 $226 0 $226 6.283185307179586232 $135 $227 forward 7 unknown #
face $-1 $228 $229 $23 $-1 $230 reversed single #
loop $-1 $-1 $231 $85 #
plane-surface $-1 85.92111138477068266 -255.8397083736461468 -39.27114660399782053 0 0.788010747574649173 0.6156614830463592591 0 -0.6156614830463592591 0.788010747574649173 forward_v I I I I #
coedge $-1 $232 $233 $234 $235 forward $86 $-1 #
coedge $-1 $236 $88 $237 $238 forward $52 $-1 #
coedge $-1 $88 $236 $239 $240 forward $52 $-1 #
coedge $-1 $241 $242 $88 $145 reversed $243 $-1 #
edge $-1 $244 -233.4641560106204849 $245 233.4641560106204565 $144 $246 forward 7 unknown #
loop $-1 $247 $248 $89 #
cone-surface $-1 81.84619475917649822 9.884555398564859985 16.27023391391702134 0 0.6156614830463592591 -0.788010747574649173 0.5 0 0 1 I I -0.7071067811865474617 0.7071067811865474617 0.5 forward I I I I #
coedge $-1 $148 $148 $93 $150 forward $90 $-1 #
coedge $-1 $149 $149 $248 $249 forward $92 $-1 #
edge $-1 $250 0 $250 6.283185307179586232 $148 $251 forward 7 unknown #
loop $-1 $252 $253 $94 #
cone-surface $-1 85.92111138477068266 9.884555398564859985 16.27023391391702134 0 0.6156614830463592591 -0.788010747574649173 0.5 0 0 1 I I -0.7071067811865474617 0.7071067811865474617 0.5 forward I I I I #
coedge $-1 $153 $153 $98 $155 forward $95 $-1 #
coedge $-1 $154 $154 $253 $254 forward $97 $-1 #
edge $-1 $255 0 $255 6.283185307179586232 $153 $256 forward 7 unknown #
loop $-1 $257 $258 $99 #
cone-surface $-1 89.9960280103648671 9.884555398564859985 16.27023391391702134 0 0.6156614830463592591 -0.788010747574649173 0.5 0 0 1 I I -0.7071067811865474617 0.7071067811865474617 0.5 forward I I I I #
coedge $-1 $158 $158 $103 $160 forward $100 $-1 #
coedge $-1 $159 $159 $258 $259 forward $102 $-1 #
edge $-1 $260 0 $260 6.283185307179586232 $158 $261 forward 7 unknown #
face $-1 $262 $263 $18 $-1 $264 reversed single #
loop $-1 $-1 $265 $104 #
plane-surface $-1 0 26.43349046893220589 12.47182854697527432 1 0 0 0 0 -1 forward_v I I I I #
coedge $-1 $266 $172 $267 $268 forward $105 $-1 #
coedge $-1 $269 $107 $266 $270 forward $64 $-1 #
coedge $-1 $107 $269 $271 $272 forward $64 $-1 #
coedge $-1 $175 $174 $107 $168 reversed $176 $-1 #
edge $-1 $273 -26.43349046893220589 $274 26.43349046893220589 $167 $275 forward 7 unknown #
coedge $-1 $109 $108 $276 $277 forward $37 $-1 #
coedge $-1 $278 $279 $108 $171 reversed $263 $-1 #
edge $-1 $178 -58.36603900265511413 $280 58.36603900265511413 $170 $281 forward 7 unknown #
coedge $-1 $164 $282 $109 $173 reversed $105 $-1 #
edge $-1 $283 -58.36603900265511413 $177 58.36603900265511413 $172 $284 forward 7 unknown #
coedge $-1 $167 $110 $282 $285 forward $176 $-1 #
coedge $-1 $110 $167 $278 $286 reversed $176 $-1 #
loop $-1 $-1 $174 $262 #
vertex $-1 $111 $287 #
vertex $-1 $111 $288 #
straight-curve $-1 116.7320780053102283 26.43349046893220589 24.94365709395054864 0 1 0 I I #
face $-1 $289 $290 $19 $-1 $291 reversed single #
loop $-1 $-1 $292 $112 #
plane-surface $-1 -10.95553098370346845 26.43349046893220589 3.237986163883582513 1 0 0 0 0 -1 forward_v I I I I #
coedge $-1 $293 $191 $294 $295 forward $113 $-1 #
coedge $-1 $296 $115 $293 $297 forward $68 $-1 #
coedge $-1 $115 $296 $298 $299 forward $68 $-1 #
coedge $-1 $194 $193 $115 $187 reversed $195 $-1 #
edge $-1 $300 -26.43349046893220589 $301 26.43349046893220589 $186 $302 forward 7 unknown #
coedge $-1 $117 $116 $303 $304 forward $40 $-1 #
coedge $-1 $305 $306 $116 $190 reversed $290 $-1 #
edge $-1 $197 -5.477765491851734225 $307 5.477765491851734225 $189 $308 forward 7 unknown #
coedge $-1 $183 $309 $117 $192 reversed $113 $-1 #
edge $-1 $310 -5.477765491851734225 $196 5.477765491851734225 $191 $311 forward 7 unknown #
coedge $-1 $186 $118 $309 $312 forward $195 $-1 #
coedge $-1 $118 $186 $305 $313 reversed $195 $-1 #
loop $-1 $-1 $193 $289 #
vertex $-1 $119 $314 #
vertex $-1 $119 $315 #
straight-curve $-1 0 26.43349046893220589 6.475972327767165027 0 1 0 I I #
face $-1 $316 $317 $20 $-1 $318 reversed single #
loop $-1 $-1 $319 $120 #
plane-surface $-1 20.60606560403803655 80.89665207213519693 141.6136005052063069 1 0 0 0 -0.6018150307709319025 -0.7986355043060522352 forward_v I I I I #
coedge $-1 $320 $210 $321 $322 forward $121 $-1 #
coedge $-1 $323 $123 $320 $324 forward $72 $-1 #
coedge $-1 $123 $323 $325 $326 forward $72 $-1 #
coedge $-1 $213 $212 $123 $206 reversed $214 $-1 #
edge $-1 $327 -233.4641560106204565 $328 233.4641560106204565 $205 $329 forward 7 unknown #
coedge $-1 $125 $124 $330 $331 forward $43 $-1 #
coedge $-1 $332 $333 $124 $209 reversed $317 $-1 #
edge $-1 $216 -13.30430530922876642 $334 13.30430530922876642 $208 $335 forward 7 unknown #
coedge $-1 $202 $336 $125 $211 reversed $121 $-1 #
edge $-1 $337 -13.30430530922876642 $215 13.30430530922876642 $210 $338 forward 7 unknown #
coedge $-1 $205 $126 $336 $339 forward $214 $-1 #
coedge $-1 $126 $205 $332 $340 reversed $214 $-1 #
loop $-1 $-1 $212 $316 #
vertex $-1 $127 $341 #
vertex $-1 $127 $342 #
straight-curve $-1 47.21467622249556939 151.1477711888558133 234.8399824916706677 0 0.7986355043060522352 -0.6018150307709319025 I I #
loop $-1 $-1 $343 $75 #
coedge $-1 $219 $219 $131 $220 reversed $128 $-1 #
edge $-1 $344 0 $344 6.283185307179586232 $219 $345 forward 7 unknown #
vertex $-1 $132 $346 #
ellipse-curve $-1 28.20852578074018524 47.31158503244188296 20.7573659264026702 0 0.6018150307709319025 0.7986355043060522352 2 0 0 1 I I #
loop $-1 $-1 $347 $80 #
coedge $-1 $224 $224 $136 $225 reversed $133 $-1 #
edge $-1 $348 0 $348 6.283185307179586232 $224 $349 forward 7 unknown #
vertex $-1 $137 $350 #
ellipse-curve $-1 39.61221604579341715 47.31158503244188296 20.7573659264026702 0 0.6018150307709319025 0.7986355043060522352 2 0 0 1 I I #
face $-1 $351 $352 $23 $-1 $353 reversed single #
loop $-1 $-1 $354 $138 #
plane-surface $-1 79.12958367544705141 -71.86744426383259565 104.4637419236673708 1 0 0 0 0.6156614830463592591 -0.788010747574649173 forward_v I I I I #
coedge $-1 $355 $239 $356 $357 forward $139 $-1 #
coedge $-1 $358 $141 $355 $359 forward $86 $-1 #
coedge $-1 $141 $358 $360 $361 forward $86 $-1 #
coedge $-1 $242 $241 $141 $235 reversed $243 $-1 #
edge $-1 $362 -233.4641560106204565 $363 233.4641560106204565 $234 $364 forward 7 unknown #
coedge $-1 $143 $142 $365 $366 forward $52 $-1 #
coedge $-1 $367 $368 $142 $238 reversed $352 $-1 #
edge $-1 $245 -6.791527709323631257 $369 6.791527709323631257 $237 $370 forward 7 unknown #
coedge $-1 $231 $371 $143 $240 reversed $139 $-1 #
edge $-1 $372 -6.791527709323631257 $244 6.791527709323631257 $239 $373 forward 7 unknown #
coedge $-1 $234 $144 $371 $374 forward $243 $-1 #
coedge $-1 $144 $234 $367 $375 reversed $243 $-1 #
loop $-1 $-1 $241 $351 #
vertex $-1 $145 $376 #
vertex $-1 $145 $377 #
straight-curve $-1 92.71263909409431392 -143.7348885276651913 196.4498739785741463 0 0.788010747574649173 0.6156614830463592591 I I #
loop $-1 $-1 $378 $89 #
coedge $-1 $248 $248 $149 $249 reversed $146 $-1 #
edge $-1 $379 0 $379 6.283185307179586232 $248 $380 forward 7 unknown #
vertex $-1 $150 $381 #
ellipse-curve $-1 81.84619475917649822 7.977906255086546494 18.71063348135556836 0 -0.6156614830463592591 0.788010747574649173 1 0 0 1 I I #
loop $-1 $-1 $382 $94 #
coedge $-1 $253 $253 $154 $254 reversed $151 $-1 #
edge $-1 $383 0 $383 6.283185307179586232 $253 $384 forward 7 unknown #
vertex $-1 $155 $385 #
ellipse-curve $-1 85.92111138477068266 7.977906255086546494 18.71063348135556836 0 -0.6156614830463592591 0.788010747574649173 1 0 0 1 I I #
loop $-1 $-1 $386 $99 #
coedge $-1 $258 $258 $159 $259 reversed $156 $-1 #
edge $-1 $387 0 $387 6.283185307179586232 $258 $388 forward 7 unknown #
vertex $-1 $160 $389 #
ellipse-curve $-1 89.9960280103648671 7.977906255086546494 18.71063348135556836 0 -0.6156614830463592591 0.788010747574649173 1 0 0 1 I I #
face $-1 $-1 $176 $18 $-1 $390 reversed single #
loop $-1 $-1 $278 $161 #
plane-surface $-1 58.36603900265511413 52.86698093786441177 12.47182854697527432 0 -1 0 0 0 -1 forward_v I I I I #
coedge $-1 $391 $276 $279 $392 forward $162 $-1 #
coedge $-1 $282 $164 $165 $270 reversed $105 $-1 #
coedge $-1 $276 $391 $164 $268 reversed $162 $-1 #
edge $-1 $283 -12.47182854697527432 $393 12.47182854697527432 $267 $394 forward 7 unknown #
coedge $-1 $166 $165 $391 $395 forward $64 $-1 #
edge $-1 $274 -58.36603900265511413 $393 58.36603900265511413 $266 $396 forward 7 unknown #
coedge $-1 $279 $278 $166 $272 reversed $263 $-1 #
edge $-1 $397 -58.36603900265511413 $273 58.36603900265511413 $271 $398 forward 7 unknown #
vertex $-1 $168 $399 #
vertex $-1 $285 $400 #
straight-curve $-1 116.7320780053102283 26.43349046893220589 0 0 -1 0 I I #
coedge $-1 $265 $267 $169 $277 reversed $162 $-1 #
edge $-1 $280 -26.43349046893220589 $283 26.43349046893220589 $276 $401 forward 7 unknown #
coedge $-1 $271 $170 $175 $286 forward $263 $-1 #
coedge $-1 $170 $271 $265 $392 reversed $263 $-1 #
vertex $-1 $171 $402 #
straight-curve $-1 58.36603900265511413 52.86698093786441177 24.94365709395054864 -1 0 0 I I #
coedge $-1 $172 $266 $174 $285 reversed $105 $-1 #
vertex $-1 $277 $403 #
straight-curve $-1 58.36603900265511413 0 24.94365709395054864 1 0 0 I I #
edge $-1 $177 -12.47182854697527432 $274 12.47182854697527432 $174 $404 forward 7 unknown #
edge $-1 $178 -12.47182854697527432 $273 12.47182854697527432 $175 $405 forward 7 unknown #
point $-1 116.7320780053102283 0 24.94365709395054864 #
point $-1 116.7320780053102283 52.86698093786441177 24.94365709395054864 #
face $-1 $-1 $195 $19 $-1 $406 reversed single #
loop $-1 $-1 $305 $180 #
plane-surface $-1 -5.477765491851734225 52.86698093786441177 3.237986163883582513 0 -1 0 0 0 -1 forward_v I I I I #
coedge $-1 $407 $303 $306 $408 forward $181 $-1 #
coedge $-1 $309 $183 $184 $297 reversed $113 $-1 #
coedge $-1 $303 $407 $183 $295 reversed $181 $-1 #
edge $-1 $310 -3.237986163883582513 $409 3.237986163883582513 $294 $410 forward 7 unknown #
coedge $-1 $185 $184 $407 $411 forward $68 $-1 #
edge $-1 $301 -5.477765491851734225 $409 5.477765491851734225 $293 $412 forward 7 unknown #
coedge $-1 $306 $305 $185 $299 reversed $290 $-1 #
edge $-1 $413 -5.477765491851734225 $300 5.477765491851734225 $298 $414 forward 7 unknown #
vertex $-1 $187 $415 #
vertex $-1 $312 $416 #
straight-curve $-1 0 26.43349046893220589 0 0 -1 0 I I #
coedge $-1 $292 $294 $188 $304 reversed $181 $-1 #
edge $-1 $307 -26.43349046893220589 $310 26.43349046893220589 $303 $417 forward 7 unknown #
coedge $-1 $298 $189 $194 $313 forward $290 $-1 #
coedge $-1 $189 $298 $292 $408 reversed $290 $-1 #
vertex $-1 $190 $418 #
straight-curve $-1 -5.477765491851734225 52.86698093786441177 6.475972327767165027 -1 0 0 I I #
coedge $-1 $191 $293 $193 $312 reversed $113 $-1 #
vertex $-1 $304 $419 #
straight-curve $-1 -5.477765491851734225 0 6.475972327767165027 1 0 0 I I #
edge $-1 $196 -3.237986163883582513 $301 3.237986163883582513 $193 $420 forward 7 unknown #
edge $-1 $197 -3.237986163883582513 $300 3.237986163883582513 $194 $421 forward 7 unknown #
point $-1 0 0 6.475972327767165027 #
point $-1 0 52.86698093786441177 6.475972327767165027 #
face $-1 $-1 $214 $20 $-1 $422 reversed single #
loop $-1 $-1 $332 $199 #
plane-surface $-1 33.91037091326680297 267.3494160450638901 1.111362271765102605 0 -0.7986355043060522352 0.6018150307709319025 0 -0.6018150307709319025 -0.7986355043060522352 forward_v I I I I #
coedge $-1 $423 $330 $333 $424 forward $200 $-1 #
coedge $-1 $336 $202 $203 $324 reversed $121 $-1 #
coedge $-1 $330 $423 $202 $322 reversed $200 $-1 #
edge $-1 $337 -116.7320780053102283 $425 116.7320780053102567 $321 $426 forward 7 unknown #
coedge $-1 $204 $203 $423 $427 forward $72 $-1 #
edge $-1 $328 -13.30430530922876642 $425 13.30430530922876642 $320 $428 forward 7 unknown #
coedge $-1 $333 $332 $204 $326 reversed $317 $-1 #
edge $-1 $429 -13.30430530922876642 $327 13.30430530922876642 $325 $430 forward 7 unknown #
vertex $-1 $206 $431 #
vertex $-1 $339 $432 #
straight-curve $-1 47.21467622249556939 10.64553295541459477 48.38721851874194613 0 -0.7986355043060522352 0.6018150307709319025 I I #
coedge $-1 $319 $321 $207 $331 reversed $200 $-1 #
edge $-1 $334 -233.4641560106204565 $337 233.4641560106204565 $330 $433 forward 7 unknown #
coedge $-1 $325 $208 $213 $340 forward $317 $-1 #
coedge $-1 $208 $325 $319 $424 reversed $317 $-1 #
vertex $-1 $209 $434 #
straight-curve $-1 33.91037091326680297 337.6005351617844781 94.33774425822946341 -1 0 0 I I #
coedge $-1 $210 $320 $212 $339 reversed $121 $-1 #
vertex $-1 $331 $435 #
straight-curve $-1 33.91037091326680297 -35.30499278407292252 375.3422207251118721 1 0 0 I I #
edge $-1 $215 -116.7320780053102283 $328 116.7320780053102567 $212 $436 forward 7 unknown #
edge $-1 $216 -116.7320780053102283 $327 116.7320780053102283 $213 $437 forward 7 unknown #
point $-1 47.21467622249556939 -35.30499278407292252 375.3422207251118721 #
point $-1 47.21467622249556939 337.6005351617844781 94.33774425822946341 #
coedge $-1 $343 $343 $-1 $438 reversed $218 $-1 #
vertex $-1 $220 $439 #
ellipse-curve $-1 28.20852578074018524 43.55343226910229504 15.77012886194438934 0 0.6018150307709319025 0.7986355043060522352 2 0 0 1 I I #
point $-1 30.20852578074018524 47.31158503244188296 20.7573659264026702 #
coedge $-1 $347 $347 $-1 $440 reversed $223 $-1 #
vertex $-1 $225 $441 #
ellipse-curve $-1 39.61221604579341715 43.55343226910229504 15.77012886194438934 0 0.6018150307709319025 0.7986355043060522352 2 0 0 1 I I #
point $-1 41.61221604579341715 47.31158503244188296 20.7573659264026702 #
face $-1 $-1 $243 $23 $-1 $442 reversed single #
loop $-1 $-1 $367 $228 #
plane-surface $-1 85.92111138477068266 112.1048198459809555 248.1986304513325763 0 -0.788010747574649173 -0.6156614830463592591 0 0.6156614830463592591 -0.788010747574649173 forward_v I I I I #
coedge $-1 $443 $365 $368 $444 forward $229 $-1 #
coedge $-1 $371 $231 $232 $359 reversed $139 $-1 #
coedge $-1 $365 $443 $231 $357 reversed $229 $-1 #
edge $-1 $372 -116.7320780053102425 $445 116.7320780053101998 $356 $446 forward 7 unknown #
coedge $-1 $233 $232 $443 $447 forward $86 $-1 #
edge $-1 $363 -6.791527709323631257 $445 6.791527709323631257 $355 $448 forward 7 unknown #
coedge $-1 $368 $367 $233 $361 reversed $352 $-1 #
edge $-1 $449 -6.791527709323631257 $362 6.791527709323631257 $360 $450 forward 7 unknown #
vertex $-1 $235 $451 #
vertex $-1 $374 $452 #
straight-curve $-1 92.71263909409431392 0 12.47760986876059519 0 -0.788010747574649173 -0.6156614830463592591 I I #
coedge $-1 $354 $356 $236 $366 reversed $229 $-1 #
edge $-1 $369 -233.4641560106204565 $372 233.4641560106204849 $365 $453 forward 7 unknown #
coedge $-1 $360 $237 $242 $375 forward $352 $-1 #
coedge $-1 $237 $360 $354 $444 reversed $352 $-1 #
vertex $-1 $238 $454 #
straight-curve $-1 85.92111138477068266 40.23737558214835985 340.1847625062393377 -1 0 0 I I #
coedge $-1 $239 $355 $241 $374 reversed $139 $-1 #
vertex $-1 $366 $455 #
straight-curve $-1 85.92111138477068266 -327.7071526374787709 52.71498545090895504 1 0 0 I I #
edge $-1 $244 -116.7320780053102425 $363 116.7320780053101998 $241 $456 forward 7 unknown #
edge $-1 $245 -116.7320780053102141 $362 116.7320780053102425 $242 $457 forward 7 unknown #
point $-1 92.71263909409431392 -327.7071526374787709 52.71498545090895504 #
point $-1 92.71263909409431392 40.23737558214835985 340.1847625062393377 #
coedge $-1 $378 $378 $-1 $458 reversed $247 $-1 #
vertex $-1 $249 $459 #
ellipse-curve $-1 81.84619475917649822 9.576724657041680189 16.6642392877043477 0 -0.6156614830463592591 0.788010747574649173 1 0 0 1 I I #
point $-1 82.84619475917649822 7.977906255086546494 18.71063348135556836 #
coedge $-1 $382 $382 $-1 $460 reversed $252 $-1 #
vertex $-1 $254 $461 #
ellipse-curve $-1 85.92111138477068266 9.576724657041680189 16.6642392877043477 0 -0.6156614830463592591 0.788010747574649173 1 0 0 1 I I #
point $-1 86.92111138477068266 7.977906255086546494 18.71063348135556836 #
coedge $-1 $386 $386 $-1 $462 reversed $257 $-1 #
vertex $-1 $259 $463 #
ellipse-curve $-1 89.9960280103648671 9.576724657041680189 16.6642392877043477 0 -0.6156614830463592591 0.788010747574649173 1 0 0 1 I I #
point $-1 90.9960280103648671 7.977906255086546494 18.71063348135556836 #
plane-surface $-1 116.7320780053102283 26.43349046893220589 12.47182854697527432 -1 0 0 0 0 1 forward_v I I I I #
coedge $-1 $267 $265 $269 $395 reversed $162 $-1 #
edge $-1 $280 -12.47182854697527432 $397 12.47182854697527432 $279 $464 forward 7 unknown #
vertex $-1 $395 $465 #
straight-curve $-1 0 0 12.47182854697527432 0 0 -1 I I #
edge $-1 $393 -26.43349046893220589 $397 26.43349046893220589 $391 $466 forward 7 unknown #
straight-curve $-1 58.36603900265511413 0 0 -1 0 0 I I #
vertex $-1 $272 $467 #
straight-curve $-1 58.36603900265511413 52.86698093786441177 0 1 0 0 I I #
point $-1 116.7320780053102283 52.86698093786441177 0 #
point $-1 116.7320780053102283 0 0 #
straight-curve $-1 0 26.43349046893220589 24.94365709395054864 0 -1 0 I I #
point $-1 0 52.86698093786441177 24.94365709395054864 #
point $-1 0 0 24.94365709395054864 #
straight-curve $-1 116.7320780053102283 0 12.47182854697527432 0 0 -1 I I #
straight-curve $-1 116.7320780053102283 52.86698093786441177 12.47182854697527432 0 0 -1 I I #
plane-surface $-1 0 26.43349046893220589 3.237986163883582513 -1 0 0 0 0 1 forward_v I I I I #
coedge $-1 $294 $292 $296 $411 reversed $181 $-1 #
edge $-1 $307 -3.237986163883582513 $413 3.237986163883582513 $306 $468 forward 7 unknown #
vertex $-1 $411 $469 #
straight-curve $-1 -10.95553098370346845 0 3.237986163883582513 0 0 -1 I I #
edge $-1 $409 -26.43349046893220589 $413 26.43349046893220589 $407 $470 forward 7 unknown #
straight-curve $-1 -5.477765491851734225 0 0 -1 0 0 I I #
vertex $-1 $299 $471 #
straight-curve $-1 -5.477765491851734225 52.86698093786441177 0 1 0 0 I I #
point $-1 0 52.86698093786441177 0 #
point $-1 0 0 0 #
straight-curve $-1 -10.95553098370346845 26.43349046893220589 6.475972327767165027 0 -1 0 I I #
point $-1 -10.95553098370346845 52.86698093786441177 6.475972327767165027 #
point $-1 -10.95553098370346845 0 6.475972327767165027 #
straight-curve $-1 0 0 3.237986163883582513 0 0 -1 I I #
straight-curve $-1 0 52.86698093786441177 3.237986163883582513 0 0 -1 I I #
plane-surface $-1 47.21467622249556939 80.89665207213519693 141.6136005052063069 -1 0 0 0 0.6018150307709319025 0.7986355043060522352 forward_v I I I I #
coedge $-1 $321 $319 $323 $427 reversed $200 $-1 #
edge $-1 $334 -116.7320780053102283 $429 116.7320780053102283 $333 $472 forward 7 unknown #
vertex $-1 $427 $473 #
straight-curve $-1 20.60606560403803655 -105.5561119007935247 282.1158387386475397 0 -0.6018150307709319025 -0.7986355043060522352 I I #
edge $-1 $425 -233.4641560106204565 $429 233.4641560106204565 $423 $474 forward 7 unknown #
straight-curve $-1 33.91037091326680297 -175.8072310175141126 188.8894567521831505 -1 0 0 I I #
vertex $-1 $326 $475 #
straight-curve $-1 33.91037091326680297 197.0982969283433022 -92.1150197146992582 1 0 0 I I #
point $-1 47.21467622249556939 197.0982969283433022 -92.1150197146992582 #
point $-1 47.21467622249556939 -175.8072310175141126 188.8894567521831505 #
straight-curve $-1 20.60606560403803655 151.1477711888558133 234.8399824916706677 0 -0.7986355043060522352 0.6018150307709319025 I I #
point $-1 20.60606560403803655 337.6005351617844781 94.33774425822946341 #
point $-1 20.60606560403803655 -35.30499278407292252 375.3422207251118721 #
straight-curve $-1 47.21467622249556939 -105.5561119007935247 282.1158387386475397 0 -0.6018150307709319025 -0.7986355043060522352 I I #
straight-curve $-1 47.21467622249556939 267.3494160450638901 1.111362271765102605 0 -0.6018150307709319025 -0.7986355043060522352 I I #
edge $-1 $476 1 $476 0 $343 $-1 forward 7 unknown #
point $-1 30.20852578074018524 43.55343226910229504 15.77012886194438934 #
edge $-1 $477 1 $477 0 $347 $-1 forward 7 unknown #
point $-1 41.61221604579341715 43.55343226910229504 15.77012886194438934 #
plane-surface $-1 92.71263909409431392 -71.86744426383259565 104.4637419236673708 -1 0 0 0 -0.6156614830463592591 0.788010747574649173 forward_v I I I I #
coedge $-1 $356 $354 $358 $447 reversed $229 $-1 #
edge $-1 $369 -116.7320780053102141 $449 116.7320780053102425 $368 $478 forward 7 unknown #
vertex $-1 $447 $479 #
straight-curve $-1 79.12958367544705141 -255.8397083736461468 -39.27114660399782053 0 0.6156614830463592591 -0.788010747574649173 I I #
edge $-1 $445 -233.4641560106204565 $449 233.4641560106204565 $443 $480 forward 7 unknown #
straight-curve $-1 85.92111138477068266 -183.9722641098135512 -131.2572786589045677 -1 0 0 I I #
vertex $-1 $361 $481 #
straight-curve $-1 85.92111138477068266 183.9722641098135512 156.2124983964257865 1 0 0 I I #
point $-1 92.71263909409431392 183.9722641098135512 156.2124983964257865 #
point $-1 92.71263909409431392 -183.9722641098135512 -131.2572786589045677 #
straight-curve $-1 79.12958367544705141 -143.7348885276651913 196.4498739785741463 0 -0.788010747574649173 -0.6156614830463592591 I I #
point $-1 79.12958367544705141 40.23737558214835985 340.1847625062393377 #
point $-1 79.12958367544705141 -327.7071526374787709 52.71498545090895504 #
straight-curve $-1 92.71263909409431392 -255.8397083736461468 -39.27114660399782053 0 0.6156614830463592591 -0.788010747574649173 I I #
straight-curve $-1 92.71263909409431392 112.1048198459809555 248.1986304513325763 0 0.6156614830463592591 -0.788010747574649173 I I #
edge $-1 $482 1 $482 0 $378 $-1 forward 7 unknown #
point $-1 82.84619475917649822 9.576724657041680189 16.6642392877043477 #
edge $-1 $483 1 $483 0 $382 $-1 forward 7 unknown #
point $-1 86.92111138477068266 9.576724657041680189 16.6642392877043477 #
edge $-1 $484 1 $484 0 $386 $-1 forward 7 unknown #
point $-1 90.9960280103648671 9.576724657041680189 16.6642392877043477 #
straight-curve $-1 0 52.86698093786441177 12.47182854697527432 0 0 -1 I I #
point $-1 0 0 0 #
straight-curve $-1 0 26.43349046893220589 0 0 1 0 I I #
point $-1 0 52.86698093786441177 0 #
straight-curve $-1 -10.95553098370346845 52.86698093786441177 3.237986163883582513 0 0 -1 I I #
point $-1 -10.95553098370346845 0 0 #
straight-curve $-1 -10.95553098370346845 26.43349046893220589 0 0 1 0 I I #
point $-1 -10.95553098370346845 52.86698093786441177 0 #
straight-curve $-1 20.60606560403803655 267.3494160450638901 1.111362271765102605 0 -0.6018150307709319025 -0.7986355043060522352 I I #
point $-1 20.60606560403803655 -175.8072310175141126 188.8894567521831505 #
straight-curve $-1 20.60606560403803655 10.64553295541459477 48.38721851874194613 0 0.7986355043060522352 -0.6018150307709319025 I I #
point $-1 20.60606560403803655 197.0982969283433022 -92.1150197146992582 #
vertex $-1 $438 $485 #
vertex $-1 $440 $486 #
straight-curve $-1 79.12958367544705141 112.1048198459809555 248.1986304513325763 0 0.6156614830463592591 -0.788010747574649173 I I #
point $-1 79.12958367544705141 -183.9722641098135512 -131.2572786589045677 #
straight-curve $-1 79.12958367544705141 0 12.47760986876059519 0 0.788010747574649173 0.6156614830463592591 I I #
point $-1 79.12958367544705141 183.9722641098135512 156.2124983964257865 #
vertex $-1 $458 $487 #
vertex $-1 $460 $488 #
vertex $-1 $462 $489 #
point $-1 28.20852578074018524 42.34980220756043678 14.17285785333228532 #
point $-1 39.61221604579341715 42.34980220756043678 14.17285785333228532 #
point $-1 81.84619475917649822 10.19238614008803978 15.87622854012969675 #
point $-1 85.92111138477068266 10.19238614008803978 15.87622854012969675 #
point $-1 89.9960280103648671 10.19238614008803978 15.87622854012969675 #
End-of-ACIS-data 