500 0 14 0           
7 Unknown 11 ACIS 5.0 NT 24 Fri Mar 26 14:43:59 1999 
-1 9.9999999999999995e-007 1e-010 
body $-1 $14 $-1 $15 #
body $-1 $16 $-1 $17 #
body $-1 $18 $-1 $19 #
body $-1 $20 $-1 $21 #
body $-1 $22 $-1 $23 #
body $-1 $24 $-1 $25 #
body $-1 $26 $-1 $27 #
body $-1 $28 $-1 $29 #
body $-1 $30 $-1 $31 #
body $-1 $32 $-1 $33 #
body $-1 $34 $-1 $35 #
body $-1 $36 $-1 $37 #
body $-1 $38 $-1 $39 #
body $-1 $40 $-1 $41 #
lump $-1 $-1 $42 $0 #
transform $-1 1 0 0 0 1 0 0 0 1 41.024201178014465 20.951802101312865 6.0545189897430722 1 rotate no_reflect no_shear #
lump $-1 $-1 $43 $1 #
transform $-1 1 0 0 0 1 0 0 0 1 41.024201178014465 20.951802101312865 6.0545189897430722 1 rotate no_reflect no_shear #
lump $-1 $-1 $44 $2 #
transform $-1 1 0 0 0 1 0 0 0 1 41.024201178014465 20.951802101312865 6.0545189897430722 1 rotate no_reflect no_shear #
lump $-1 $-1 $45 $3 #
transform $-1 1 0 0 0 1 0 0 0 1 41.024201178014465 20.951802101312865 6.0545189897430722 1 rotate no_reflect no_shear #
lump $-1 $-1 $46 $4 #
transform $-1 1 0 0 0 1 0 0 0 1 41.024201178014465 20.951802101312865 6.0545189897430722 1 rotate no_reflect no_shear #
lump $-1 $-1 $47 $5 #
transform $-1 1 0 0 0 1 0 0 0 1 41.024201178014465 20.951802101312865 6.0545189897430722 1 rotate no_reflect no_shear #
lump $-1 $-1 $48 $6 #
transform $-1 1 0 0 0 1 0 0 0 1 41.024201178014465 20.951802101312865 6.0545189897430722 1 rotate no_reflect no_shear #
lump $-1 $-1 $49 $7 #
transform $-1 1 0 0 0 1 0 0 0 1 41.024201178014465 20.951802101312865 6.0545189897430722 1 rotate no_reflect no_shear #
lump $-1 $-1 $50 $8 #
transform $-1 1 0 0 0 1 0 0 0 1 41.024201178014465 20.951802101312865 6.0545189897430722 1 rotate no_reflect no_shear #
lump $-1 $-1 $51 $9 #
transform $-1 1 0 0 0 1 0 0 0 1 41.024201178014465 20.951802101312865 6.0545189897430722 1 rotate no_reflect no_shear #
lump $-1 $-1 $52 $10 #
transform $-1 1 0 0 0 1 0 0 0 1 41.024201178014465 20.951802101312865 6.0545189897430722 1 rotate no_reflect no_shear #
lump $-1 $-1 $53 $11 #
transform $-1 1 0 0 0 1 0 0 0 1 41.024201178014465 20.951802101312865 6.0545189897430722 1 rotate no_reflect no_shear #
lump $-1 $-1 $54 $12 #
transform $-1 1 0 0 0 1 0 0 0 1 41.024201178014465 20.951802101312865 6.0545189897430722 1 rotate no_reflect no_shear #
lump $-1 $-1 $55 $13 #
transform $-1 1 0 0 0 1 0 0 0 1 41.024201178014465 20.951802101312865 6.0545189897430722 1 rotate no_reflect no_shear #
shell $-1 $-1 $-1 $56 $-1 $14 #
shell $-1 $-1 $-1 $57 $-1 $16 #
shell $-1 $-1 $-1 $58 $-1 $18 #
shell $-1 $-1 $-1 $59 $-1 $20 #
shell $-1 $-1 $-1 $60 $-1 $22 #
shell $-1 $-1 $-1 $61 $-1 $24 #
shell $-1 $-1 $-1 $62 $-1 $26 #
shell $-1 $-1 $-1 $63 $-1 $28 #
shell $-1 $-1 $-1 $64 $-1 $30 #
shell $-1 $-1 $-1 $65 $-1 $32 #
shell $-1 $-1 $-1 $66 $-1 $34 #
shell $-1 $-1 $-1 $67 $-1 $36 #
shell $-1 $-1 $-1 $68 $-1 $38 #
shell $-1 $-1 $-1 $69 $-1 $40 #
face $-1 $70 $71 $42 $-1 $72 forward single #
face $-1 $73 $74 $43 $-1 $75 reversed single #
face $-1 $76 $77 $44 $-1 $78 reversed single #
face $-1 $79 $80 $45 $-1 $81 forward single #
face $-1 $82 $83 $46 $-1 $84 reversed single #
face $-1 $85 $86 $47 $-1 $87 forward single #
face $-1 $88 $89 $48 $-1 $90 reversed single #
face $-1 $91 $92 $49 $-1 $93 forward single #
face $-1 $94 $95 $50 $-1 $96 reversed single #
face $-1 $97 $98 $51 $-1 $99 forward single #
face $-1 $100 $101 $52 $-1 $102 forward single #
face $-1 $103 $104 $53 $-1 $105 reversed single #
face $-1 $106 $107 $54 $-1 $108 forward single #
face $-1 $109 $110 $55 $-1 $111 forward single #
face $-1 $112 $113 $42 $-1 $114 reversed single #
loop $-1 $-1 $115 $56 #
plane-surface $-1 0 0 6.0545189897430722 0 0 1 1 0 0 forward_v I I I I #
face $-1 $116 $117 $43 $-1 $118 reversed single #
loop $-1 $-1 $119 $57 #
plane-surface $-1 -31.915163198528319 -18.167711911720161 0 1 0 0 0 0 -1 forward_v I I I I #
face $-1 $120 $121 $44 $-1 $122 reversed single #
loop $-1 $-1 $123 $58 #
plane-surface $-1 14.922239708149235 -5.4779779578740371 113.72187813788803 0 -1 0 -0.52991927123019833 0 -0.84804809178421925 forward_v I I I I #
face $-1 $124 $125 $45 $-1 $126 forward single #
loop $-1 $127 $128 $59 #
cone-surface $-1 35.33078886309216 -9.373596691787613 1.1523172516008668 -0.52991927123019833 0 -0.84804809178421925 1.2720721376763289 0 -0.79487890684529749 1 I I 0 1 1.5 forward I I I I #
face $-1 $129 $130 $46 $-1 $131 reversed single #
loop $-1 $-1 $132 $60 #
plane-surface $-1 14.922239708149235 6.6338299832727365 113.72187813788803 0 -1 0 -0.52991927123019833 0 -0.84804809178421925 forward_v I I I I #
face $-1 $133 $134 $47 $-1 $135 forward single #
loop $-1 $136 $137 $61 #
cone-surface $-1 35.33078886309216 2.7382112493591606 1.1523172516008668 -0.52991927123019833 0 -0.84804809178421925 1.2720721376763289 0 -0.79487890684529749 1 I I 0 1 1.5 forward I I I I #
face $-1 $138 $139 $48 $-1 $140 reversed single #
loop $-1 $-1 $141 $62 #
plane-surface $-1 14.922239708149235 18.745637924419508 113.72187813788803 0 -1 0 -0.52991927123019833 0 -0.84804809178421925 forward_v I I I I #
face $-1 $142 $143 $49 $-1 $144 forward single #
loop $-1 $145 $146 $63 #
cone-surface $-1 35.33078886309216 14.850019190505932 1.1523172516008668 -0.52991927123019833 0 -0.84804809178421925 1.2720721376763289 0 -0.79487890684529749 1 I I 0 1 1.5 forward I I I I #
face $-1 $147 $148 $50 $-1 $149 reversed single #
loop $-1 $-1 $150 $64 #
plane-surface $-1 -84.503230760123415 -6.5209513626446078 71.407251665642093 0 1 0 -0.52991927123019833 0 0.84804809178421925 forward_v I I I I #
face $-1 $151 $152 $51 $-1 $153 forward single #
loop $-1 $154 $155 $65 #
cone-surface $-1 -37.306103560892616 -4.6402171015476519 3.4046238314297543 0.52991927123019833 0 -0.84804809178421925 0.42402404589210962 0 0.26495963561509916 1 I I 0 1 0.5 forward I I I I #
face $-1 $156 $157 $52 $-1 $158 forward single #
loop $-1 $159 $160 $66 #
cone-surface $-1 -37.306103560892616 -1.819115709902217 3.4046238314297543 0.52991927123019833 0 -0.84804809178421925 0.42402404589210962 0 0.26495963561509916 1 I I 0 1 0.5 forward I I I I #
face $-1 $161 $162 $53 $-1 $163 reversed single #
loop $-1 $-1 $164 $67 #
plane-surface $-1 -84.503230760123415 11.646760549075553 71.407251665642093 0 1 0 -0.52991927123019833 0 0.84804809178421925 forward_v I I I I #
face $-1 $165 $166 $54 $-1 $167 forward single #
loop $-1 $168 $169 $68 #
cone-surface $-1 -37.306103560892616 13.527494810172513 3.4046238314297543 0.52991927123019833 0 -0.84804809178421925 0.42402404589210962 0 0.26495963561509916 1 I I 0 1 0.5 forward I I I I #
face $-1 $170 $171 $55 $-1 $172 forward single #
loop $-1 $173 $174 $69 #
cone-surface $-1 -37.306103560892616 16.348596201817941 3.4046238314297543 0.52991927123019833 0 -0.84804809178421925 0.42402404589210962 0 0.26495963561509916 1 I I 0 1 0.5 forward I I I I #
face $-1 $175 $176 $42 $-1 $177 reversed single #
loop $-1 $-1 $178 $70 #
plane-surface $-1 0 0 -6.0545189897430722 0 0 1 1 0 0 forward_v I I I I #
coedge $-1 $179 $180 $181 $182 forward $71 $-1 #
face $-1 $183 $184 $43 $-1 $185 reversed single #
loop $-1 $-1 $186 $73 #
plane-surface $-1 -30.415163198528319 -15.38362172212746 0 0 -1 0 0 0 -1 forward_v I I I I #
coedge $-1 $187 $188 $189 $190 forward $74 $-1 #
face $-1 $191 $192 $44 $-1 $193 reversed single #
loop $-1 $-1 $194 $76 #
plane-surface $-1 -28.556789873959701 -9.373596691787613 44.14088708591386 0.52991927123019833 0 0.84804809178421925 0.84804809178421925 0 -0.52991927123019833 forward_v I I I I #
coedge $-1 $195 $196 $197 $198 reversed $77 $-1 #
face $-1 $-1 $199 $45 $-1 $200 forward single #
loop $-1 $201 $202 $79 #
cone-surface $-1 33.554968205213711 -9.373596691787613 -1.6895898124104241 -0.52991927123019833 0 -0.84804809178421925 0.63603606883816444 0 -0.39743945342264875 1 I I -0.70710678118654757 0.70710678118654757 0.75 forward I I I I #
loop $-1 $-1 $203 $59 #
coedge $-1 $128 $128 $204 $205 reversed $80 $-1 #
face $-1 $206 $207 $46 $-1 $208 reversed single #
loop $-1 $-1 $209 $82 #
plane-surface $-1 -28.556789873959701 2.7382112493591606 44.14088708591386 0.52991927123019833 0 0.84804809178421925 0.84804809178421925 0 -0.52991927123019833 forward_v I I I I #
coedge $-1 $210 $211 $212 $213 reversed $83 $-1 #
face $-1 $-1 $214 $47 $-1 $215 forward single #
loop $-1 $216 $217 $85 #
cone-surface $-1 33.554968205213711 2.7382112493591606 -1.6895898124104241 -0.52991927123019833 0 -0.84804809178421925 0.63603606883816444 0 -0.39743945342264875 1 I I -0.70710678118654757 0.70710678118654757 0.75 forward I I I I #
loop $-1 $-1 $218 $61 #
coedge $-1 $137 $137 $219 $220 reversed $86 $-1 #
face $-1 $221 $222 $48 $-1 $223 reversed single #
loop $-1 $-1 $224 $88 #
plane-surface $-1 -28.556789873959701 14.850019190505932 44.14088708591386 0.52991927123019833 0 0.84804809178421925 0.84804809178421925 0 -0.52991927123019833 forward_v I I I I #
coedge $-1 $225 $226 $227 $228 reversed $89 $-1 #
face $-1 $-1 $229 $49 $-1 $230 forward single #
loop $-1 $231 $232 $91 #
cone-surface $-1 33.554968205213711 14.850019190505932 -1.6895898124104241 -0.52991927123019833 0 -0.84804809178421925 0.63603606883816444 0 -0.39743945342264875 1 I I -0.70710678118654757 0.70710678118654757 0.75 forward I I I I #
loop $-1 $-1 $233 $63 #
coedge $-1 $146 $146 $234 $235 reversed $92 $-1 #
face $-1 $236 $237 $50 $-1 $238 reversed single #
loop $-1 $-1 $239 $94 #
plane-surface $-1 -41.024201178014479 -3.2296664057249345 1.8262606136679267 -0.52991927123019833 0 0.84804809178421925 0.84804809178421925 0 0.52991927123019833 forward_v I I I I #
coedge $-1 $240 $241 $242 $243 reversed $95 $-1 #
face $-1 $-1 $244 $51 $-1 $245 forward single #
loop $-1 $246 $247 $97 #
cone-surface $-1 -36.838840002317333 -4.6402171015476519 2.6568458382079614 0.52991927123019833 0 -0.84804809178421925 0.21201202294605481 0 0.13247981780754958 1 I I -0.70710678118654746 0.70710678118654746 0.25 forward I I I I #
loop $-1 $-1 $248 $65 #
coedge $-1 $155 $155 $249 $250 reversed $98 $-1 #
face $-1 $-1 $251 $52 $-1 $252 forward single #
loop $-1 $253 $254 $100 #
cone-surface $-1 -36.838840002317333 -1.819115709902217 2.6568458382079614 0.52991927123019833 0 -0.84804809178421925 0.21201202294605481 0 0.13247981780754958 1 I I -0.70710678118654746 0.70710678118654746 0.25 forward I I I I #
loop $-1 $-1 $255 $66 #
coedge $-1 $160 $160 $256 $257 reversed $101 $-1 #
face $-1 $258 $259 $53 $-1 $260 reversed single #
loop $-1 $-1 $261 $103 #
plane-surface $-1 -41.024201178014479 14.938045505995227 1.8262606136679267 -0.52991927123019833 0 0.84804809178421925 0.84804809178421925 0 0.52991927123019833 forward_v I I I I #
coedge $-1 $262 $263 $264 $265 reversed $104 $-1 #
face $-1 $-1 $266 $54 $-1 $267 forward single #
loop $-1 $268 $269 $106 #
cone-surface $-1 -36.838840002317333 13.527494810172513 2.6568458382079614 0.52991927123019833 0 -0.84804809178421925 0.21201202294605481 0 0.13247981780754958 1 I I -0.70710678118654746 0.70710678118654746 0.25 forward I I I I #
loop $-1 $-1 $270 $68 #
coedge $-1 $169 $169 $271 $272 reversed $107 $-1 #
face $-1 $-1 $273 $55 $-1 $274 forward single #
loop $-1 $275 $276 $109 #
cone-surface $-1 -36.838840002317333 16.348596201817941 2.6568458382079614 0.52991927123019833 0 -0.84804809178421925 0.21201202294605481 0 0.13247981780754958 1 I I -0.70710678118654746 0.70710678118654746 0.25 forward I I I I #
loop $-1 $-1 $277 $69 #
coedge $-1 $174 $174 $278 $279 reversed $110 $-1 #
face $-1 $280 $281 $42 $-1 $282 reversed single #
loop $-1 $-1 $283 $112 #
plane-surface $-1 0 -20.951802101312865 0 0 1 0 0 0 1 forward_v I I I I #
coedge $-1 $284 $285 $286 $287 forward $113 $-1 #
coedge $-1 $288 $115 $289 $290 forward $71 $-1 #
coedge $-1 $115 $288 $291 $292 forward $71 $-1 #
coedge $-1 $293 $294 $115 $182 reversed $295 $-1 #
edge $-1 $296 -20.951802101312865 $297 20.951802101312865 $181 $298 forward 7 unknown #
face $-1 $299 $300 $43 $-1 $301 forward single #
loop $-1 $-1 $302 $116 #
plane-surface $-1 -28.915163198528319 -18.167711911720161 0 -1 0 0 0 0 1 forward_v I I I I #
coedge $-1 $303 $304 $305 $306 forward $117 $-1 #
coedge $-1 $307 $119 $308 $309 reversed $74 $-1 #
coedge $-1 $119 $307 $310 $311 reversed $74 $-1 #
coedge $-1 $304 $303 $119 $190 reversed $117 $-1 #
edge $-1 $312 -6.0545189897430722 $313 6.0545189897430722 $189 $314 forward 7 unknown #
face $-1 $315 $316 $44 $-1 $317 reversed single #
loop $-1 $-1 $318 $120 #
plane-surface $-1 14.922239708149235 -13.269215425701189 113.72187813788803 0 1 0 0.52991927123019833 0 0.84804809178421925 forward_v I I I I #
coedge $-1 $319 $320 $321 $322 reversed $121 $-1 #
coedge $-1 $196 $123 $323 $324 reversed $77 $-1 #
coedge $-1 $123 $195 $319 $325 reversed $77 $-1 #
coedge $-1 $321 $326 $123 $198 forward $327 $-1 #
edge $-1 $328 -33.563081323939848 $329 -24.933019103006814 $197 $330 forward 7 unknown #
loop $-1 $-1 $204 $124 #
plane-surface $-1 -28.556789873959701 -9.373596691787613 44.14088708591386 0.52991927123019833 0 0.84804809178421925 0.84804809178421925 0 -0.52991927123019833 forward_v I I I I #
loop $-1 $-1 $331 $79 #
coedge $-1 $202 $202 $203 $332 reversed $125 $-1 #
coedge $-1 $203 $203 $202 $332 forward $127 $-1 #
coedge $-1 $204 $204 $128 $205 forward $199 $-1 #
edge $-1 $333 0 $333 6.2831853071796004 $204 $334 forward 7 unknown #
face $-1 $335 $336 $46 $-1 $337 reversed single #
loop $-1 $-1 $338 $129 #
plane-surface $-1 14.922239708149235 -1.1574074845544153 113.72187813788803 0 1 0 0.52991927123019833 0 0.84804809178421925 forward_v I I I I #
coedge $-1 $339 $340 $341 $342 reversed $130 $-1 #
coedge $-1 $211 $132 $343 $344 reversed $83 $-1 #
coedge $-1 $132 $210 $339 $345 reversed $83 $-1 #
coedge $-1 $341 $346 $132 $213 forward $347 $-1 #
edge $-1 $348 -33.563081323939848 $349 -24.933019103006814 $212 $350 forward 7 unknown #
loop $-1 $-1 $219 $133 #
plane-surface $-1 -28.556789873959701 2.7382112493591606 44.14088708591386 0.52991927123019833 0 0.84804809178421925 0.84804809178421925 0 -0.52991927123019833 forward_v I I I I #
loop $-1 $-1 $351 $85 #
coedge $-1 $217 $217 $218 $352 reversed $134 $-1 #
coedge $-1 $218 $218 $217 $352 forward $136 $-1 #
coedge $-1 $219 $219 $137 $220 forward $214 $-1 #
edge $-1 $353 0 $353 6.2831853071796004 $219 $354 forward 7 unknown #
face $-1 $355 $356 $48 $-1 $357 reversed single #
loop $-1 $-1 $358 $138 #
plane-surface $-1 14.922239708149235 10.954400456592357 113.72187813788803 0 1 0 0.52991927123019833 0 0.84804809178421925 forward_v I I I I #
coedge $-1 $359 $360 $361 $362 reversed $139 $-1 #
coedge $-1 $226 $141 $363 $364 reversed $89 $-1 #
coedge $-1 $141 $225 $359 $365 reversed $89 $-1 #
coedge $-1 $361 $366 $141 $228 forward $367 $-1 #
edge $-1 $368 -33.563081323939848 $369 -24.933019103006814 $227 $370 forward 7 unknown #
loop $-1 $-1 $234 $142 #
plane-surface $-1 -28.556789873959701 14.850019190505932 44.14088708591386 0.52991927123019833 0 0.84804809178421925 0.84804809178421925 0 -0.52991927123019833 forward_v I I I I #
loop $-1 $-1 $371 $91 #
coedge $-1 $232 $232 $233 $372 reversed $143 $-1 #
coedge $-1 $233 $233 $232 $372 forward $145 $-1 #
coedge $-1 $234 $234 $146 $235 forward $229 $-1 #
edge $-1 $373 0 $373 6.2831853071796004 $234 $374 forward 7 unknown #
face $-1 $375 $376 $50 $-1 $377 reversed single #
loop $-1 $-1 $378 $147 #
plane-surface $-1 -84.503230760123415 0.061618551194738913 71.407251665642093 0 -1 0 0.52991927123019833 0 -0.84804809178421925 forward_v I I I I #
coedge $-1 $379 $380 $381 $382 reversed $148 $-1 #
coedge $-1 $241 $150 $383 $384 reversed $95 $-1 #
coedge $-1 $150 $240 $379 $385 reversed $95 $-1 #
coedge $-1 $381 $386 $150 $243 forward $387 $-1 #
edge $-1 $388 1.2274142020472425 $389 7.9940419547554384 $242 $390 forward 7 unknown #
loop $-1 $-1 $249 $151 #
plane-surface $-1 -41.024201178014479 -3.2296664057249345 1.8262606136679267 -0.52991927123019833 0 0.84804809178421925 0.84804809178421925 0 0.52991927123019833 forward_v I I I I #
loop $-1 $-1 $391 $97 #
coedge $-1 $247 $247 $248 $392 reversed $152 $-1 #
coedge $-1 $248 $248 $247 $392 forward $154 $-1 #
coedge $-1 $249 $249 $155 $250 forward $244 $-1 #
edge $-1 $393 0 $393 6.2831853071796004 $249 $394 forward 7 unknown #
loop $-1 $-1 $256 $156 #
plane-surface $-1 -41.024201178014479 -3.2296664057249345 1.8262606136679267 -0.52991927123019833 0 0.84804809178421925 0.84804809178421925 0 0.52991927123019833 forward_v I I I I #
loop $-1 $-1 $395 $100 #
coedge $-1 $254 $254 $255 $396 reversed $157 $-1 #
coedge $-1 $255 $255 $254 $396 forward $159 $-1 #
coedge $-1 $256 $256 $160 $257 forward $251 $-1 #
edge $-1 $397 0 $397 6.2831853071796004 $256 $398 forward 7 unknown #
face $-1 $399 $400 $53 $-1 $401 forward single #
loop $-1 $-1 $402 $161 #
plane-surface $-1 -84.503230760123415 18.229330462914902 71.407251665642093 0 -1 0 0.52991927123019833 0 -0.84804809178421925 forward_v I I I I #
coedge $-1 $403 $404 $405 $406 reversed $162 $-1 #
coedge $-1 $263 $164 $407 $408 reversed $104 $-1 #
coedge $-1 $164 $262 $403 $409 reversed $104 $-1 #
coedge $-1 $405 $410 $164 $265 forward $400 $-1 #
edge $-1 $411 1.2274142020472425 $412 7.9940419547554384 $264 $413 forward 7 unknown #
loop $-1 $-1 $271 $165 #
plane-surface $-1 -41.024201178014479 14.938045505995227 1.8262606136679267 -0.52991927123019833 0 0.84804809178421925 0.84804809178421925 0 0.52991927123019833 forward_v I I I I #
loop $-1 $-1 $414 $106 #
coedge $-1 $269 $269 $270 $415 reversed $166 $-1 #
coedge $-1 $270 $270 $269 $415 forward $168 $-1 #
coedge $-1 $271 $271 $169 $272 forward $266 $-1 #
edge $-1 $416 0 $416 6.2831853071796004 $271 $417 forward 7 unknown #
loop $-1 $-1 $278 $170 #
plane-surface $-1 -41.024201178014479 14.938045505995227 1.8262606136679267 -0.52991927123019833 0 0.84804809178421925 0.84804809178421925 0 0.52991927123019833 forward_v I I I I #
loop $-1 $-1 $418 $109 #
coedge $-1 $276 $276 $277 $419 reversed $171 $-1 #
coedge $-1 $277 $277 $276 $419 forward $173 $-1 #
coedge $-1 $278 $278 $174 $279 forward $273 $-1 #
edge $-1 $420 0 $420 6.2831853071796004 $278 $421 forward 7 unknown #
face $-1 $422 $423 $42 $-1 $424 reversed single #
loop $-1 $-1 $425 $175 #
plane-surface $-1 -41.024201178014465 0 0 1 0 0 0 0 -1 forward_v I I I I #
coedge $-1 $426 $291 $427 $428 forward $176 $-1 #
coedge $-1 $429 $178 $426 $430 forward $113 $-1 #
coedge $-1 $178 $429 $431 $432 forward $113 $-1 #
coedge $-1 $294 $293 $178 $287 reversed $295 $-1 #
edge $-1 $433 -20.951802101312865 $434 20.951802101312865 $286 $435 forward 7 unknown #
coedge $-1 $180 $179 $436 $437 forward $71 $-1 #
coedge $-1 $438 $439 $179 $290 reversed $423 $-1 #
edge $-1 $297 -41.024201178014465 $440 41.024201178014465 $289 $441 forward 7 unknown #
coedge $-1 $283 $442 $180 $292 reversed $176 $-1 #
edge $-1 $443 -41.024201178014465 $296 41.024201178014465 $291 $444 forward 7 unknown #
coedge $-1 $286 $181 $442 $445 forward $295 $-1 #
coedge $-1 $181 $286 $438 $446 reversed $295 $-1 #
loop $-1 $-1 $293 $422 #
vertex $-1 $182 $447 #
vertex $-1 $182 $448 #
straight-curve $-1 41.024201178014465 0 6.0545189897430722 0 1 0 I I #
face $-1 $449 $450 $43 $-1 $451 reversed single #
loop $-1 $-1 $452 $183 #
plane-surface $-1 0 0 6.0545189897430722 0 0 1 1 0 0 forward_v I I I I #
coedge $-1 $453 $454 $455 $456 reversed $184 $-1 #
coedge $-1 $189 $186 $457 $458 reversed $117 $-1 #
coedge $-1 $186 $189 $459 $460 reversed $117 $-1 #
coedge $-1 $454 $453 $186 $306 reversed $184 $-1 #
edge $-1 $461 -6.0545189897430722 $462 6.0545189897430722 $305 $463 forward 7 unknown #
coedge $-1 $188 $187 $464 $465 reversed $74 $-1 #
coedge $-1 $457 $466 $187 $309 forward $450 $-1 #
edge $-1 $467 -11.867946145452784 $313 -6.2997657662673792 $308 $468 forward 7 unknown #
coedge $-1 $469 $459 $188 $311 forward $300 $-1 #
edge $-1 $312 6.2997657662673792 $470 11.867946145452784 $310 $471 forward 7 unknown #
vertex $-1 $311 $472 #
vertex $-1 $309 $473 #
straight-curve $-1 -31.915163198528319 -15.38362172212746 0 0 0 -1 I I #
face $-1 $-1 $327 $44 $-1 $474 forward single #
loop $-1 $-1 $475 $191 #
plane-surface $-1 41.024201178014465 0 0 -1 0 0 0 0 1 forward_v I I I I #
coedge $-1 $476 $477 $478 $479 reversed $192 $-1 #
coedge $-1 $480 $194 $196 $325 forward $121 $-1 #
coedge $-1 $194 $480 $476 $481 forward $121 $-1 #
coedge $-1 $478 $197 $194 $322 forward $327 $-1 #
edge $-1 $329 0.79117961198023057 $482 8.5824170798073816 $321 $483 forward 7 unknown #
coedge $-1 $484 $485 $195 $324 forward $316 $-1 #
edge $-1 $486 -56.199081565139082 $328 -50.80642007920094 $323 $487 forward 7 unknown #
edge $-1 $329 71.872019312968078 $486 82.04840235602893 $196 $488 forward 7 unknown #
coedge $-1 $197 $478 $484 $489 forward $327 $-1 #
loop $-1 $-1 $478 $315 #
vertex $-1 $324 $490 #
vertex $-1 $198 $491 #
straight-curve $-1 7.4611198540746173 -5.4779779578740371 6.0545189897430731 -1 0 0 I I #
coedge $-1 $331 $331 $-1 $492 reversed $201 $-1 #
edge $-1 $493 0 $493 6.2831853071796004 $202 $494 forward 7 unknown #
vertex $-1 $205 $495 #
ellipse-curve $-1 36.709170067547959 -9.373596691787613 3.3581882467739912 0.52991927123019833 0 0.84804809178421925 1.2720721376763289 0 -0.79487890684529749 1 I I #
face $-1 $-1 $347 $46 $-1 $496 forward single #
loop $-1 $-1 $497 $206 #
plane-surface $-1 41.024201178014465 0 0 -1 0 0 0 0 1 forward_v I I I I #
coedge $-1 $498 $499 $500 $501 reversed $207 $-1 #
coedge $-1 $502 $209 $211 $345 forward $130 $-1 #
coedge $-1 $209 $502 $498 $503 forward $130 $-1 #
coedge $-1 $500 $212 $209 $342 forward $347 $-1 #
edge $-1 $349 -5.2647243585931562 $504 2.5265131092339956 $341 $505 forward 7 unknown #
coedge $-1 $506 $507 $210 $344 forward $336 $-1 #
edge $-1 $508 -56.199081565139082 $348 -50.80642007920094 $343 $509 forward 7 unknown #
edge $-1 $349 71.872019312968078 $508 82.04840235602893 $211 $510 forward 7 unknown #
coedge $-1 $212 $500 $506 $511 forward $347 $-1 #
loop $-1 $-1 $500 $335 #
vertex $-1 $344 $512 #
vertex $-1 $213 $513 #
straight-curve $-1 7.4611198540746173 6.6338299832727365 6.0545189897430731 -1 0 0 I I #
coedge $-1 $351 $351 $-1 $514 reversed $216 $-1 #
edge $-1 $515 0 $515 6.2831853071796004 $217 $516 forward 7 unknown #
vertex $-1 $220 $517 #
ellipse-curve $-1 36.709170067547959 2.7382112493591606 3.3581882467739912 0.52991927123019833 0 0.84804809178421925 1.2720721376763289 0 -0.79487890684529749 1 I I #
face $-1 $-1 $367 $48 $-1 $518 forward single #
loop $-1 $-1 $519 $221 #
plane-surface $-1 41.024201178014465 0 0 -1 0 0 0 0 1 forward_v I I I I #
coedge $-1 $520 $521 $522 $523 reversed $222 $-1 #
coedge $-1 $524 $224 $226 $365 forward $139 $-1 #
coedge $-1 $224 $524 $520 $525 forward $139 $-1 #
coedge $-1 $522 $227 $224 $362 forward $367 $-1 #
edge $-1 $369 -11.320628329166542 $526 -3.5293908613393903 $361 $527 forward 7 unknown #
coedge $-1 $528 $529 $225 $364 forward $356 $-1 #
edge $-1 $530 -56.199081565139082 $368 -50.80642007920094 $363 $531 forward 7 unknown #
edge $-1 $369 71.872019312968078 $530 82.04840235602893 $226 $532 forward 7 unknown #
coedge $-1 $227 $522 $528 $533 forward $367 $-1 #
loop $-1 $-1 $522 $355 #
vertex $-1 $364 $534 #
vertex $-1 $228 $535 #
straight-curve $-1 7.4611198540746173 18.745637924419508 6.0545189897430731 -1 0 0 I I #
coedge $-1 $371 $371 $-1 $536 reversed $231 $-1 #
edge $-1 $537 0 $537 6.2831853071796004 $232 $538 forward 7 unknown #
vertex $-1 $235 $539 #
ellipse-curve $-1 36.709170067547959 14.850019190505932 3.3581882467739912 0.52991927123019833 0 0.84804809178421925 1.2720721376763289 0 -0.79487890684529749 1 I I #
face $-1 $-1 $387 $50 $-1 $540 forward single #
loop $-1 $-1 $541 $236 #
plane-surface $-1 -41.024201178014465 0 0 1 0 0 0 0 -1 forward_v I I I I #
coedge $-1 $542 $543 $544 $545 reversed $237 $-1 #
coedge $-1 $546 $239 $241 $385 forward $148 $-1 #
coedge $-1 $239 $546 $542 $547 forward $148 $-1 #
coedge $-1 $544 $242 $239 $382 forward $387 $-1 #
edge $-1 $389 -4.9061181597821406 $548 1.6764517540572061 $381 $549 forward 7 unknown #
coedge $-1 $550 $551 $240 $384 forward $376 $-1 #
edge $-1 $552 -33.877365219153113 $388 -29.649106843077973 $383 $553 forward 7 unknown #
edge $-1 $389 -7.9790613507210608 $552 -1.675811683274863e-014 $241 $554 forward 7 unknown #
coedge $-1 $242 $544 $550 $555 forward $387 $-1 #
loop $-1 $-1 $544 $375 #
vertex $-1 $384 $556 #
vertex $-1 $243 $557 #
straight-curve $-1 -42.251615380061708 -6.5209513626446078 6.0545189897430731 1 0 0 I I #
coedge $-1 $391 $391 $-1 $558 reversed $246 $-1 #
edge $-1 $559 0 $559 6.2831853071796004 $247 $560 forward 7 unknown #
vertex $-1 $250 $561 #
ellipse-curve $-1 -37.640887301660356 -4.6402171015476519 3.9403898017055088 -0.52991927123019833 0 0.84804809178421925 0.42402404589210962 0 0.26495963561509916 1 I I #
coedge $-1 $395 $395 $-1 $562 reversed $253 $-1 #
edge $-1 $563 0 $563 6.2831853071796004 $254 $564 forward 7 unknown #
vertex $-1 $257 $565 #
ellipse-curve $-1 -37.640887301660356 -1.819115709902217 3.9403898017055088 -0.52991927123019833 0 0.84804809178421925 0.42402404589210962 0 0.26495963561509916 1 I I #
face $-1 $-1 $566 $53 $-1 $567 reversed single #
loop $-1 $-1 $264 $258 #
plane-surface $-1 0 0 6.0545189897430722 0 0 1 1 0 0 forward_v I I I I #
coedge $-1 $568 $569 $570 $571 reversed $259 $-1 #
coedge $-1 $572 $261 $263 $409 forward $162 $-1 #
coedge $-1 $261 $572 $568 $573 forward $162 $-1 #
coedge $-1 $570 $264 $261 $406 forward $400 $-1 #
edge $-1 $412 4.17773779607794 $574 10.760307709917289 $405 $575 forward 7 unknown #
coedge $-1 $576 $577 $262 $408 forward $566 $-1 #
edge $-1 $578 -33.877365219153113 $411 -29.649106843077973 $407 $579 forward 7 unknown #
edge $-1 $412 -7.9790613507210608 $578 -1.675811683274863e-014 $263 $580 forward 7 unknown #
coedge $-1 $264 $570 $576 $581 forward $400 $-1 #
vertex $-1 $408 $582 #
vertex $-1 $265 $583 #
straight-curve $-1 -42.251615380061708 11.646760549075553 6.0545189897430731 1 0 0 I I #
coedge $-1 $414 $414 $-1 $584 reversed $268 $-1 #
edge $-1 $585 0 $585 6.2831853071796004 $269 $586 forward 7 unknown #
vertex $-1 $272 $587 #
ellipse-curve $-1 -37.640887301660356 13.527494810172513 3.9403898017055088 -0.52991927123019833 0 0.84804809178421925 0.42402404589210962 0 0.26495963561509916 1 I I #
coedge $-1 $418 $418 $-1 $588 reversed $275 $-1 #
edge $-1 $589 0 $589 6.2831853071796004 $276 $590 forward 7 unknown #
vertex $-1 $279 $591 #
ellipse-curve $-1 -37.640887301660356 16.348596201817941 3.9403898017055088 -0.52991927123019833 0 0.84804809178421925 0.42402404589210962 0 0.26495963561509916 1 I I #
face $-1 $-1 $295 $42 $-1 $592 reversed single #
loop $-1 $-1 $438 $280 #
plane-surface $-1 0 20.951802101312865 0 0 -1 0 0 0 -1 forward_v I I I I #
coedge $-1 $593 $436 $439 $594 forward $281 $-1 #
coedge $-1 $442 $283 $284 $430 reversed $176 $-1 #
coedge $-1 $436 $593 $283 $428 reversed $281 $-1 #
edge $-1 $443 -6.0545189897430722 $595 6.0545189897430722 $427 $596 forward 7 unknown #
coedge $-1 $285 $284 $593 $597 forward $113 $-1 #
edge $-1 $434 -41.024201178014465 $595 41.024201178014465 $426 $598 forward 7 unknown #
coedge $-1 $439 $438 $285 $432 reversed $423 $-1 #
edge $-1 $599 -41.024201178014465 $433 41.024201178014465 $431 $600 forward 7 unknown #
vertex $-1 $287 $601 #
vertex $-1 $445 $602 #
straight-curve $-1 41.024201178014465 0 -6.0545189897430722 0 -1 0 I I #
coedge $-1 $425 $427 $288 $437 reversed $281 $-1 #
edge $-1 $440 -20.951802101312865 $443 20.951802101312865 $436 $603 forward 7 unknown #
coedge $-1 $431 $289 $294 $446 forward $423 $-1 #
coedge $-1 $289 $431 $425 $594 reversed $423 $-1 #
vertex $-1 $290 $604 #
straight-curve $-1 0 20.951802101312865 6.0545189897430722 -1 0 0 I I #
coedge $-1 $291 $426 $293 $445 reversed $176 $-1 #
vertex $-1 $437 $605 #
straight-curve $-1 0 -20.951802101312865 6.0545189897430722 1 0 0 I I #
edge $-1 $296 -6.0545189897430722 $434 6.0545189897430722 $293 $606 forward 7 unknown #
edge $-1 $297 -6.0545189897430722 $433 6.0545189897430722 $294 $607 forward 7 unknown #
point $-1 41.024201178014465 -20.951802101312865 6.0545189897430722 #
point $-1 41.024201178014465 20.951802101312865 6.0545189897430722 #
face $-1 $-1 $608 $43 $-1 $609 reversed single #
loop $-1 $-1 $610 $299 #
plane-surface $-1 0 0 -6.0545189897430722 0 0 1 1 0 0 forward_v I I I I #
coedge $-1 $459 $469 $454 $611 forward $300 $-1 #
coedge $-1 $305 $302 $610 $612 reversed $184 $-1 #
coedge $-1 $302 $305 $452 $611 reversed $184 $-1 #
coedge $-1 $613 $614 $302 $456 forward $608 $-1 #
edge $-1 $615 -6.0545189897430722 $616 6.0545189897430722 $455 $617 forward 7 unknown #
coedge $-1 $610 $308 $303 $458 forward $450 $-1 #
edge $-1 $313 -16.707581599264159 $462 -13.707581599264159 $457 $618 forward 7 unknown #
coedge $-1 $310 $452 $304 $460 forward $300 $-1 #
edge $-1 $461 13.707581599264159 $312 16.707581599264159 $459 $619 forward 7 unknown #
vertex $-1 $460 $620 #
vertex $-1 $458 $621 #
straight-curve $-1 -28.915163198528319 -15.38362172212746 0 0 0 -1 I I #
coedge $-1 $614 $613 $307 $465 forward $608 $-1 #
edge $-1 $470 -6.0545189897430722 $467 6.0545189897430722 $464 $622 forward 7 unknown #
coedge $-1 $308 $610 $614 $623 forward $450 $-1 #
vertex $-1 $309 $624 #
straight-curve $-1 -31.915163198528319 -9.0838559558600807 -6.0545189897430722 0 1 0 I I #
coedge $-1 $452 $310 $613 $625 forward $300 $-1 #
vertex $-1 $625 $626 #
straight-curve $-1 -31.915163198528319 -9.0838559558600807 6.0545189897430722 0 -1 0 I I #
point $-1 -31.915163198528319 -15.38362172212746 6.0545189897430722 #
point $-1 -31.915163198528319 -15.38362172212746 -6.0545189897430722 #
plane-surface $-1 0 0 6.0545189897430722 0 0 1 1 0 0 forward_v I I I I #
coedge $-1 $485 $484 $477 $627 forward $316 $-1 #
coedge $-1 $477 $318 $320 $481 reversed $192 $-1 #
coedge $-1 $318 $476 $475 $627 reversed $192 $-1 #
coedge $-1 $326 $321 $318 $479 forward $327 $-1 #
edge $-1 $482 24.933019103006814 $628 33.563081323939848 $478 $629 forward 7 unknown #
coedge $-1 $320 $319 $485 $630 reversed $121 $-1 #
edge $-1 $631 -82.04840235602893 $482 -71.872019312968078 $476 $632 forward 7 unknown #
vertex $-1 $322 $633 #
straight-curve $-1 32.394138957081445 -4.6867983458938065 6.0545189897430696 0 -1 0 I I #
coedge $-1 $475 $323 $326 $489 reversed $316 $-1 #
coedge $-1 $323 $475 $480 $630 forward $316 $-1 #
vertex $-1 $324 $634 #
straight-curve $-1 41.024201178014465 -5.4779779578740371 56.860939068944013 0 0 1 I I #
straight-curve $-1 -28.556789873959701 -5.4779779578740371 44.14088708591386 0.84804809178421925 0 -0.52991927123019833 I I #
edge $-1 $628 -13.269215425701189 $328 -5.4779779578740371 $484 $635 forward 7 unknown #
point $-1 41.024201178014465 -5.4779779578740371 6.0545189897430722 #
point $-1 32.394138957081431 -5.4779779578740371 6.0545189897430802 #
edge $-1 $636 1 $636 0 $331 $-1 forward 7 unknown #
vertex $-1 $332 $637 #
ellipse-curve $-1 33.952407658636361 -9.373596691787613 -1.0535537435722597 0.52991927123019833 0 0.84804809178421925 1.2720721376763289 0 -0.79487890684529749 1 I I #
point $-1 37.981242205224291 -9.373596691787613 2.5633093399286961 #
plane-surface $-1 0 0 6.0545189897430722 0 0 1 1 0 0 forward_v I I I I #
coedge $-1 $507 $506 $499 $638 forward $336 $-1 #
coedge $-1 $499 $338 $340 $503 reversed $207 $-1 #
coedge $-1 $338 $498 $497 $638 reversed $207 $-1 #
coedge $-1 $346 $341 $338 $501 forward $347 $-1 #
edge $-1 $504 24.933019103006814 $639 33.563081323939848 $500 $640 forward 7 unknown #
coedge $-1 $340 $339 $507 $641 reversed $130 $-1 #
edge $-1 $642 -82.04840235602893 $504 -71.872019312968078 $498 $643 forward 7 unknown #
vertex $-1 $342 $644 #
straight-curve $-1 32.394138957081445 1.3691056246795803 6.0545189897430696 0 -1 0 I I #
coedge $-1 $497 $343 $346 $511 reversed $336 $-1 #
coedge $-1 $343 $497 $502 $641 forward $336 $-1 #
vertex $-1 $344 $645 #
straight-curve $-1 41.024201178014465 6.6338299832727365 56.860939068944013 0 0 1 I I #
straight-curve $-1 -28.556789873959701 6.6338299832727365 44.14088708591386 0.84804809178421925 0 -0.52991927123019833 I I #
edge $-1 $639 -1.1574074845544153 $348 6.6338299832727365 $506 $646 forward 7 unknown #
point $-1 41.024201178014465 6.6338299832727365 6.0545189897430722 #
point $-1 32.394138957081431 6.6338299832727365 6.0545189897430802 #
edge $-1 $647 1 $647 0 $351 $-1 forward 7 unknown #
vertex $-1 $352 $648 #
ellipse-curve $-1 33.952407658636361 2.7382112493591606 -1.0535537435722597 0.52991927123019833 0 0.84804809178421925 1.2720721376763289 0 -0.79487890684529749 1 I I #
point $-1 37.981242205224291 2.7382112493591606 2.5633093399286961 #
plane-surface $-1 0 0 6.0545189897430722 0 0 1 1 0 0 forward_v I I I I #
coedge $-1 $529 $528 $521 $649 forward $356 $-1 #
coedge $-1 $521 $358 $360 $525 reversed $222 $-1 #
coedge $-1 $358 $520 $519 $649 reversed $222 $-1 #
coedge $-1 $366 $361 $358 $523 forward $367 $-1 #
edge $-1 $526 24.933019103006814 $650 33.563081323939848 $522 $651 forward 7 unknown #
coedge $-1 $360 $359 $529 $652 reversed $139 $-1 #
edge $-1 $653 -82.04840235602893 $526 -71.872019312968078 $520 $654 forward 7 unknown #
vertex $-1 $362 $655 #
straight-curve $-1 32.394138957081445 7.4250095952529662 6.0545189897430696 0 -1 0 I I #
coedge $-1 $519 $363 $366 $533 reversed $356 $-1 #
coedge $-1 $363 $519 $524 $652 forward $356 $-1 #
vertex $-1 $364 $656 #
straight-curve $-1 41.024201178014465 18.745637924419508 56.860939068944013 0 0 1 I I #
straight-curve $-1 -28.556789873959701 18.745637924419508 44.14088708591386 0.84804809178421925 0 -0.52991927123019833 I I #
edge $-1 $650 10.954400456592357 $368 18.745637924419508 $528 $657 forward 7 unknown #
point $-1 41.024201178014465 18.745637924419508 6.0545189897430722 #
point $-1 32.394138957081431 18.745637924419508 6.0545189897430802 #
edge $-1 $658 1 $658 0 $371 $-1 forward 7 unknown #
vertex $-1 $372 $659 #
ellipse-curve $-1 33.952407658636361 14.850019190505932 -1.0535537435722597 0.52991927123019833 0 0.84804809178421925 1.2720721376763289 0 -0.79487890684529749 1 I I #
point $-1 37.981242205224291 14.850019190505932 2.5633093399286961 #
plane-surface $-1 0 0 6.0545189897430722 0 0 1 1 0 0 forward_v I I I I #
coedge $-1 $551 $550 $543 $660 forward $376 $-1 #
coedge $-1 $543 $378 $380 $547 reversed $237 $-1 #
coedge $-1 $378 $542 $541 $660 reversed $237 $-1 #
coedge $-1 $386 $381 $378 $545 forward $387 $-1 #
edge $-1 $548 -7.9940419547554384 $661 -1.2274142020472425 $544 $662 forward 7 unknown #
coedge $-1 $380 $379 $551 $663 reversed $148 $-1 #
edge $-1 $664 1.675811683274863e-014 $548 7.9790613507210608 $542 $665 forward 7 unknown #
vertex $-1 $382 $666 #
straight-curve $-1 -34.257573425306269 -1.6148332028624672 6.0545189897430722 0 1 0 I I #
coedge $-1 $541 $383 $386 $555 reversed $376 $-1 #
coedge $-1 $383 $541 $546 $663 forward $376 $-1 #
vertex $-1 $384 $667 #
straight-curve $-1 -41.024201178014465 -6.5209513626446078 35.703625832821047 0 0 1 I I #
straight-curve $-1 -41.024201178014479 -6.5209513626446078 1.8262606136679267 -0.84804809178421925 0 -0.52991927123019833 I I #
edge $-1 $661 -0.061618551194738913 $388 6.5209513626446078 $550 $668 forward 7 unknown #
point $-1 -41.024201178014465 -6.5209513626446078 6.0545189897430722 #
point $-1 -34.257573425306269 -6.5209513626446078 6.0545189897430722 #
edge $-1 $669 1 $669 0 $391 $-1 forward 7 unknown #
vertex $-1 $392 $670 #
ellipse-curve $-1 -36.971319820124883 -4.6402171015476519 2.8688578611540163 -0.52991927123019833 0 0.84804809178421925 0.42402404589210962 0 0.26495963561509916 1 I I #
point $-1 -37.216863255768239 -4.6402171015476519 4.2053494373205922 #
edge $-1 $671 1 $671 0 $395 $-1 forward 7 unknown #
vertex $-1 $396 $672 #
ellipse-curve $-1 -36.971319820124883 -1.819115709902217 2.8688578611540163 -0.52991927123019833 0 0.84804809178421925 0.42402404589210962 0 0.26495963561509916 1 I I #
point $-1 -37.216863255768239 -1.819115709902217 4.2053494373205922 #
loop $-1 $-1 $407 $399 #
plane-surface $-1 -41.024201178014465 0 0 1 0 0 0 0 -1 forward_v I I I I #
coedge $-1 $569 $402 $404 $573 reversed $259 $-1 #
coedge $-1 $402 $568 $673 $674 reversed $259 $-1 #
coedge $-1 $410 $405 $402 $571 forward $400 $-1 #
edge $-1 $574 -7.9940419547554384 $675 -1.2274142020472425 $570 $676 forward 7 unknown #
coedge $-1 $404 $403 $577 $677 reversed $162 $-1 #
edge $-1 $678 1.675811683274863e-014 $574 7.9790613507210608 $568 $679 forward 7 unknown #
vertex $-1 $406 $680 #
straight-curve $-1 -34.257573425306269 7.4690227529976134 6.0545189897430722 0 1 0 I I #
coedge $-1 $673 $407 $410 $581 reversed $566 $-1 #
coedge $-1 $407 $673 $572 $677 forward $566 $-1 #
vertex $-1 $408 $681 #
straight-curve $-1 -41.024201178014465 11.646760549075553 35.703625832821047 0 0 1 I I #
straight-curve $-1 -41.024201178014479 11.646760549075553 1.8262606136679267 -0.84804809178421925 0 -0.52991927123019833 I I #
edge $-1 $675 -18.229330462914902 $411 -11.646760549075553 $576 $682 forward 7 unknown #
point $-1 -41.024201178014465 11.646760549075553 6.0545189897430722 #
point $-1 -34.257573425306269 11.646760549075553 6.0545189897430722 #
edge $-1 $683 1 $683 0 $414 $-1 forward 7 unknown #
vertex $-1 $415 $684 #
ellipse-curve $-1 -36.971319820124883 13.527494810172513 2.8688578611540163 -0.52991927123019833 0 0.84804809178421925 0.42402404589210962 0 0.26495963561509916 1 I I #
point $-1 -37.216863255768239 13.527494810172513 4.2053494373205922 #
edge $-1 $685 1 $685 0 $418 $-1 forward 7 unknown #
vertex $-1 $419 $686 #
ellipse-curve $-1 -36.971319820124883 16.348596201817941 2.8688578611540163 -0.52991927123019833 0 0.84804809178421925 0.42402404589210962 0 0.26495963561509916 1 I I #
point $-1 -37.216863255768239 16.348596201817941 4.2053494373205922 #
plane-surface $-1 41.024201178014465 0 0 -1 0 0 0 0 1 forward_v I I I I #
coedge $-1 $427 $425 $429 $597 reversed $281 $-1 #
edge $-1 $440 -6.0545189897430722 $599 6.0545189897430722 $439 $687 forward 7 unknown #
vertex $-1 $597 $688 #
straight-curve $-1 -41.024201178014465 -20.951802101312865 0 0 0 -1 I I #
edge $-1 $595 -20.951802101312865 $599 20.951802101312865 $593 $689 forward 7 unknown #
straight-curve $-1 0 -20.951802101312865 -6.0545189897430722 -1 0 0 I I #
vertex $-1 $432 $690 #
straight-curve $-1 0 20.951802101312865 -6.0545189897430722 1 0 0 I I #
point $-1 41.024201178014465 20.951802101312865 -6.0545189897430722 #
point $-1 41.024201178014465 -20.951802101312865 -6.0545189897430722 #
straight-curve $-1 -41.024201178014465 0 6.0545189897430722 0 -1 0 I I #
point $-1 -41.024201178014465 20.951802101312865 6.0545189897430722 #
point $-1 -41.024201178014465 -20.951802101312865 6.0545189897430722 #
straight-curve $-1 41.024201178014465 -20.951802101312865 0 0 0 -1 I I #
straight-curve $-1 41.024201178014465 20.951802101312865 0 0 0 -1 I I #
loop $-1 $-1 $455 $449 #
plane-surface $-1 0 -20.951802101312865 0 0 1 0 0 0 1 forward_v I I I I #
coedge $-1 $466 $457 $453 $612 forward $450 $-1 #
edge $-1 $616 -11.867946145452784 $461 -6.2997657662673792 $452 $691 forward 7 unknown #
edge $-1 $462 6.2997657662673792 $615 11.867946145452784 $610 $692 forward 7 unknown #
coedge $-1 $464 $455 $469 $625 reversed $608 $-1 #
coedge $-1 $455 $464 $466 $623 reversed $608 $-1 #
vertex $-1 $623 $693 #
vertex $-1 $456 $694 #
straight-curve $-1 -28.915163198528319 -20.951802101312865 0 0 0 1 I I #
straight-curve $-1 -15.207581599264159 -15.38362172212746 -6.0545189897430722 1 0 0 I I #
straight-curve $-1 -15.207581599264159 -15.38362172212746 6.0545189897430722 -1 0 0 I I #
point $-1 -28.915163198528319 -15.38362172212746 6.0545189897430722 #
point $-1 -28.915163198528319 -15.38362172212746 -6.0545189897430722 #
straight-curve $-1 -31.915163198528319 -20.951802101312865 0 0 0 -1 I I #
edge $-1 $615 28.915163198528319 $467 31.915163198528319 $614 $695 forward 7 unknown #
point $-1 -31.915163198528319 -20.951802101312865 -6.0545189897430722 #
edge $-1 $470 -31.915163198528319 $616 -28.915163198528319 $613 $696 forward 7 unknown #
point $-1 -31.915163198528319 -20.951802101312865 6.0545189897430722 #
edge $-1 $628 50.80642007920094 $631 56.199081565139082 $475 $697 forward 7 unknown #
vertex $-1 $489 $698 #
straight-curve $-1 7.4611198540746173 -13.269215425701189 6.0545189897430731 1 0 0 I I #
edge $-1 $631 -8.5824170798073816 $486 -0.79117961198023057 $485 $699 forward 7 unknown #
vertex $-1 $630 $700 #
straight-curve $-1 -28.556789873959701 -13.269215425701189 44.14088708591386 -0.84804809178421925 0 0.52991927123019833 I I #
point $-1 32.394138957081431 -13.269215425701189 6.0545189897430802 #
point $-1 41.024201178014465 -5.4779779578740371 0.66185750380493147 #
straight-curve $-1 41.024201178014465 0 6.0545189897430722 0 1 0 I I #
vertex $-1 $492 $701 #
point $-1 35.224479796312693 -9.373596691787613 -1.848432650417557 #
edge $-1 $639 50.80642007920094 $642 56.199081565139082 $497 $702 forward 7 unknown #
vertex $-1 $511 $703 #
straight-curve $-1 7.4611198540746173 -1.1574074845544153 6.0545189897430731 1 0 0 I I #
edge $-1 $642 -2.5265131092339956 $508 5.2647243585931562 $507 $704 forward 7 unknown #
vertex $-1 $641 $705 #
straight-curve $-1 -28.556789873959701 -1.1574074845544153 44.14088708591386 -0.84804809178421925 0 0.52991927123019833 I I #
point $-1 32.394138957081431 -1.1574074845544153 6.0545189897430802 #
point $-1 41.024201178014465 6.6338299832727365 0.66185750380493147 #
straight-curve $-1 41.024201178014465 0 6.0545189897430722 0 1 0 I I #
vertex $-1 $514 $706 #
point $-1 35.224479796312693 2.7382112493591606 -1.848432650417557 #
edge $-1 $650 50.80642007920094 $653 56.199081565139082 $519 $707 forward 7 unknown #
vertex $-1 $533 $708 #
straight-curve $-1 7.4611198540746173 10.954400456592357 6.0545189897430731 1 0 0 I I #
edge $-1 $653 3.5293908613393903 $530 11.320628329166542 $529 $709 forward 7 unknown #
vertex $-1 $652 $710 #
straight-curve $-1 -28.556789873959701 10.954400456592357 44.14088708591386 -0.84804809178421925 0 0.52991927123019833 I I #
point $-1 32.394138957081431 10.954400456592357 6.0545189897430802 #
point $-1 41.024201178014465 18.745637924419508 0.66185750380493147 #
straight-curve $-1 41.024201178014465 0 6.0545189897430722 0 1 0 I I #
vertex $-1 $536 $711 #
point $-1 35.224479796312693 14.850019190505932 -1.848432650417557 #
edge $-1 $661 29.649106843077973 $664 33.877365219153113 $541 $712 forward 7 unknown #
vertex $-1 $555 $713 #
straight-curve $-1 -42.251615380061708 0.061618551194738913 6.0545189897430731 -1 0 0 I I #
edge $-1 $664 -1.6764517540572061 $552 4.9061181597821406 $551 $714 forward 7 unknown #
vertex $-1 $663 $715 #
straight-curve $-1 -41.024201178014479 0.061618551194738913 1.8262606136679267 0.84804809178421925 0 0.52991927123019833 I I #
point $-1 -34.257573425306269 0.061618551194738913 6.0545189897430722 #
point $-1 -41.024201178014465 -6.5209513626446078 1.8262606136679356 #
straight-curve $-1 -41.024201178014465 0 6.0545189897430722 0 -1 0 I I #
vertex $-1 $558 $716 #
point $-1 -36.547295774232772 -4.6402171015476519 3.1338174967691153 #
vertex $-1 $562 $717 #
point $-1 -36.547295774232772 -1.819115709902217 3.1338174967691153 #
coedge $-1 $577 $576 $569 $674 forward $566 $-1 #
edge $-1 $675 29.649106843077973 $678 33.877365219153113 $673 $718 forward 7 unknown #
vertex $-1 $581 $719 #
straight-curve $-1 -42.251615380061708 18.229330462914902 6.0545189897430731 -1 0 0 I I #
edge $-1 $678 -10.760307709917289 $578 -4.17773779607794 $577 $720 forward 7 unknown #
vertex $-1 $677 $721 #
straight-curve $-1 -41.024201178014479 18.229330462914902 1.8262606136679267 0.84804809178421925 0 0.52991927123019833 I I #
point $-1 -34.257573425306269 18.229330462914902 6.0545189897430722 #
point $-1 -41.024201178014465 11.646760549075553 1.8262606136679356 #
straight-curve $-1 -41.024201178014465 0 6.0545189897430722 0 -1 0 I I #
vertex $-1 $584 $722 #
point $-1 -36.547295774232772 13.527494810172513 3.1338174967691153 #
vertex $-1 $588 $723 #
point $-1 -36.547295774232772 16.348596201817941 3.1338174967691153 #
straight-curve $-1 -41.024201178014465 20.951802101312865 0 0 0 -1 I I #
point $-1 -41.024201178014465 -20.951802101312865 -6.0545189897430722 #
straight-curve $-1 -41.024201178014465 0 -6.0545189897430722 0 1 0 I I #
point $-1 -41.024201178014465 20.951802101312865 -6.0545189897430722 #
straight-curve $-1 -28.915163198528319 -9.0838559558600807 6.0545189897430722 0 1 0 I I #
straight-curve $-1 -28.915163198528319 -9.0838559558600807 -6.0545189897430722 0 -1 0 I I #
point $-1 -28.915163198528319 -20.951802101312865 -6.0545189897430722 #
point $-1 -28.915163198528319 -20.951802101312865 6.0545189897430722 #
straight-curve $-1 0 -20.951802101312865 -6.0545189897430722 -1 0 0 I I #
straight-curve $-1 0 -20.951802101312865 6.0545189897430722 1 0 0 I I #
straight-curve $-1 41.024201178014465 -13.269215425701189 56.860939068944013 0 0 -1 I I #
point $-1 41.024201178014465 -13.269215425701189 6.0545189897430722 #
straight-curve $-1 41.024201178014472 -4.6867983458938065 0.66185750380492436 0 1 0 I I #
point $-1 41.024201178014465 -13.269215425701189 0.66185750380493147 #
point $-1 33.157528751791062 -9.373596691787613 -2.3256258812485884 #
straight-curve $-1 41.024201178014465 -1.1574074845544153 56.860939068944013 0 0 -1 I I #
point $-1 41.024201178014465 -1.1574074845544153 6.0545189897430722 #
straight-curve $-1 41.024201178014472 1.3691056246795803 0.66185750380492436 0 1 0 I I #
point $-1 41.024201178014465 -1.1574074845544153 0.66185750380493147 #
point $-1 33.157528751791062 2.7382112493591606 -2.3256258812485884 #
straight-curve $-1 41.024201178014465 10.954400456592357 56.860939068944013 0 0 -1 I I #
point $-1 41.024201178014465 10.954400456592357 6.0545189897430722 #
straight-curve $-1 41.024201178014472 7.4250095952529662 0.66185750380492436 0 1 0 I I #
point $-1 41.024201178014465 10.954400456592357 0.66185750380493147 #
point $-1 33.157528751791062 14.850019190505932 -2.3256258812485884 #
straight-curve $-1 -41.024201178014465 0.061618551194738913 35.703625832821047 0 0 -1 I I #
point $-1 -41.024201178014465 0.061618551194738913 6.0545189897430722 #
straight-curve $-1 -41.024201178014465 -1.6148332028624672 1.8262606136679356 0 -1 0 I I #
point $-1 -41.024201178014465 0.061618551194738913 1.8262606136679356 #
point $-1 -36.706360184509784 -4.6402171015476519 2.4448338152619065 #
point $-1 -36.706360184509784 -1.819115709902217 2.4448338152619065 #
straight-curve $-1 -41.024201178014465 18.229330462914902 35.703625832821047 0 0 -1 I I #
point $-1 -41.024201178014465 18.229330462914902 6.0545189897430722 #
straight-curve $-1 -41.024201178014465 7.4690227529976134 1.8262606136679356 0 -1 0 I I #
point $-1 -41.024201178014465 18.229330462914902 1.8262606136679356 #
point $-1 -36.706360184509784 13.527494810172513 2.4448338152619065 #
point $-1 -36.706360184509784 16.348596201817941 2.4448338152619065 #
End-of-ACIS-data 