500 0 13 0           
7 Unknown 11 ACIS 5.0 NT 24 Fri Mar 26 19:09:11 1999 
-1 9.9999999999999995e-007 1e-010 
body $-1 $13 $-1 $14 #
body $-1 $15 $-1 $16 #
body $-1 $17 $-1 $18 #
body $-1 $19 $-1 $20 #
body $-1 $21 $-1 $22 #
body $-1 $23 $-1 $24 #
body $-1 $25 $-1 $26 #
body $-1 $27 $-1 $28 #
body $-1 $29 $-1 $30 #
body $-1 $31 $-1 $32 #
body $-1 $33 $-1 $34 #
body $-1 $35 $-1 $36 #
body $-1 $37 $-1 $38 #
lump $-1 $-1 $39 $0 #
transform $-1 1 0 0 0 1 0 0 0 1 49.866023743400376 33.969373936691262 6.9755036918369351 1 rotate no_reflect no_shear #
lump $-1 $-1 $40 $1 #
transform $-1 1 0 0 0 1 0 0 0 1 49.866023743400376 33.969373936691262 6.9755036918369351 1 rotate no_reflect no_shear #
lump $-1 $-1 $41 $2 #
transform $-1 1 0 0 0 1 0 0 0 1 49.866023743400376 33.969373936691262 6.9755036918369351 1 rotate no_reflect no_shear #
lump $-1 $-1 $42 $3 #
transform $-1 1 0 0 0 1 0 0 0 1 49.866023743400376 33.969373936691262 6.9755036918369351 1 rotate no_reflect no_shear #
lump $-1 $-1 $43 $4 #
transform $-1 1 0 0 0 1 0 0 0 1 49.866023743400376 33.969373936691262 6.9755036918369351 1 rotate no_reflect no_shear #
lump $-1 $-1 $44 $5 #
transform $-1 1 0 0 0 1 0 0 0 1 49.866023743400376 33.969373936691262 6.9755036918369351 1 rotate no_reflect no_shear #
lump $-1 $-1 $45 $6 #
transform $-1 1 0 0 0 1 0 0 0 1 49.866023743400376 33.969373936691262 6.9755036918369351 1 rotate no_reflect no_shear #
lump $-1 $-1 $46 $7 #
transform $-1 1 0 0 0 1 0 0 0 1 49.866023743400376 33.969373936691262 6.9755036918369351 1 rotate no_reflect no_shear #
lump $-1 $-1 $47 $8 #
transform $-1 1 0 0 0 1 0 0 0 1 49.866023743400376 33.969373936691262 6.9755036918369351 1 rotate no_reflect no_shear #
lump $-1 $-1 $48 $9 #
transform $-1 1 0 0 0 1 0 0 0 1 49.866023743400376 33.969373936691262 6.9755036918369351 1 rotate no_reflect no_shear #
lump $-1 $-1 $49 $10 #
transform $-1 1 0 0 0 1 0 0 0 1 49.866023743400376 33.969373936691262 6.9755036918369351 1 rotate no_reflect no_shear #
lump $-1 $-1 $50 $11 #
transform $-1 1 0 0 0 1 0 0 0 1 49.866023743400376 33.969373936691262 6.9755036918369351 1 rotate no_reflect no_shear #
lump $-1 $-1 $51 $12 #
transform $-1 1 0 0 0 1 0 0 0 1 49.866023743400376 33.969373936691262 6.9755036918369351 1 rotate no_reflect no_shear #
shell $-1 $-1 $-1 $52 $-1 $13 #
shell $-1 $-1 $-1 $53 $-1 $15 #
shell $-1 $-1 $-1 $54 $-1 $17 #
shell $-1 $-1 $-1 $55 $-1 $19 #
shell $-1 $-1 $-1 $56 $-1 $21 #
shell $-1 $-1 $-1 $57 $-1 $23 #
shell $-1 $-1 $-1 $58 $-1 $25 #
shell $-1 $-1 $-1 $59 $-1 $27 #
shell $-1 $-1 $-1 $60 $-1 $29 #
shell $-1 $-1 $-1 $61 $-1 $31 #
shell $-1 $-1 $-1 $62 $-1 $33 #
shell $-1 $-1 $-1 $63 $-1 $35 #
shell $-1 $-1 $-1 $64 $-1 $37 #
face $-1 $65 $66 $39 $-1 $67 forward single #
face $-1 $68 $69 $40 $-1 $70 forward single #
face $-1 $71 $72 $41 $-1 $73 forward single #
face $-1 $74 $75 $42 $-1 $76 reversed single #
face $-1 $77 $78 $43 $-1 $79 forward single #
face $-1 $80 $81 $44 $-1 $82 forward single #
face $-1 $83 $84 $45 $-1 $85 reversed single #
face $-1 $86 $87 $46 $-1 $88 forward single #
face $-1 $89 $90 $47 $-1 $91 forward single #
face $-1 $92 $93 $48 $-1 $94 reversed single #
face $-1 $95 $96 $49 $-1 $97 forward single #
face $-1 $98 $99 $50 $-1 $100 forward single #
face $-1 $101 $102 $51 $-1 $103 forward single #
face $-1 $104 $105 $39 $-1 $106 reversed single #
loop $-1 $-1 $107 $52 #
plane-surface $-1 0 0 6.9755036918369351 0 0 1 1 0 0 forward_v I I I I #
face $-1 $108 $109 $40 $-1 $110 reversed single #
loop $-1 $-1 $111 $53 #
plane-surface $-1 0 -30.362965935257915 -3.1516750711663404 0 0 1 1 0 0 forward_v I I I I #
face $-1 $112 $113 $41 $-1 $114 reversed single #
loop $-1 $-1 $115 $54 #
plane-surface $-1 0 30.362965935257911 -3.1516750711663404 0 0 1 1 0 0 forward_v I I I I #
face $-1 $116 $117 $42 $-1 $118 reversed single #
loop $-1 $-1 $119 $55 #
plane-surface $-1 -108.48705118599524 -1.7763568394002505e-015 80.903914993507868 0 -1 0 0.5877852598018023 0 -0.80901698891910034 forward_v I I I I #
face $-1 $120 $121 $43 $-1 $122 forward single #
loop $-1 $123 $124 $56 #
cone-surface $-1 -44.151512072445222 -8.6968744456865643 2.1317559336240235 0.5877852598018023 0 -0.80901698891910034 1.2135254833786506 0 0.88167788970270344 1 I I 0 1 1.5 forward I I I I #
face $-1 $125 $126 $44 $-1 $127 forward single #
loop $-1 $128 $129 $57 #
cone-surface $-1 -44.151512072445222 -3.4787497782746257 2.1317559336240235 0.5877852598018023 0 -0.80901698891910034 1.2135254833786506 0 0.88167788970270344 1 I I 0 1 1.5 forward I I I I #
face $-1 $130 $131 $45 $-1 $132 reversed single #
loop $-1 $-1 $133 $58 #
plane-surface $-1 -108.48705118599524 26.756557933824567 80.903914993507868 0 -1 0 0.5877852598018023 0 -0.80901698891910034 forward_v I I I I #
face $-1 $134 $135 $46 $-1 $136 forward single #
loop $-1 $137 $138 $59 #
cone-surface $-1 -44.151512072445222 18.059683488137999 2.1317559336240235 0.5877852598018023 0 -0.80901698891910034 1.2135254833786506 0 0.88167788970270344 1 I I 0 1 1.5 forward I I I I #
face $-1 $139 $140 $47 $-1 $141 forward single #
loop $-1 $142 $143 $60 #
cone-surface $-1 -44.151512072445222 23.277808155549941 2.1317559336240235 0.5877852598018023 0 -0.80901698891910034 1.2135254833786506 0 0.88167788970270344 1 I I 0 1 1.5 forward I I I I #
face $-1 $144 $145 $48 $-1 $146 reversed single #
loop $-1 $-1 $147 $61 #
plane-surface $-1 81.593665570833394 20.606485233295402 137.61446980213984 0 -1 0 -0.84804810408105047 0 -0.52991925155115449 forward_v I I I I #
face $-1 $148 $149 $49 $-1 $150 forward single #
loop $-1 $151 $152 $62 #
cone-surface $-1 47.035516518513326 15.314082678794804 3.1378690160373566 -0.84804810408105047 0 -0.52991925155115449 0.26495962577557725 0 -0.42402405204052523 1 I I 0 1 0.5 forward I I I I #
face $-1 $153 $154 $50 $-1 $155 forward single #
loop $-1 $156 $157 $63 #
cone-surface $-1 47.035516518513326 17.298733636732528 3.1378690160373566 -0.84804810408105047 0 -0.52991925155115449 0.26495962577557725 0 -0.42402405204052523 1 I I 0 1 0.5 forward I I I I #
face $-1 $158 $159 $51 $-1 $160 forward single #
loop $-1 $161 $162 $64 #
cone-surface $-1 47.035516518513326 19.283384594670252 3.1378690160373566 -0.84804810408105047 0 -0.52991925155115449 0.26495962577557725 0 -0.42402405204052523 1 I I 0 1 0.5 forward I I I I #
face $-1 $163 $164 $39 $-1 $165 reversed single #
loop $-1 $-1 $166 $65 #
plane-surface $-1 0 0 -6.9755036918369351 0 0 1 1 0 0 forward_v I I I I #
coedge $-1 $167 $168 $169 $170 forward $66 $-1 #
face $-1 $171 $172 $40 $-1 $173 reversed single #
loop $-1 $-1 $174 $68 #
plane-surface $-1 0 -26.756557933824567 -5.0635893815016377 0 -1 0 0 0 -1 forward_v I I I I #
coedge $-1 $175 $176 $177 $178 reversed $69 $-1 #
face $-1 $179 $180 $41 $-1 $181 reversed single #
loop $-1 $-1 $182 $71 #
plane-surface $-1 0 26.756557933824563 -5.0635893815016377 0 1 0 0 0 1 forward_v I I I I #
coedge $-1 $183 $184 $185 $186 reversed $72 $-1 #
face $-1 $187 $188 $42 $-1 $189 reversed single #
loop $-1 $-1 $190 $74 #
plane-surface $-1 -49.866023743400376 -6.0878121119805968 0.21899423699959186 -0.5877852598018023 0 0.80901698891910034 0.80901698891910034 0 0.5877852598018023 forward_v I I I I #
coedge $-1 $191 $192 $193 $194 reversed $75 $-1 #
face $-1 $-1 $195 $43 $-1 $196 forward single #
loop $-1 $197 $198 $77 #
cone-surface $-1 -42.645930095443205 -8.6968744456865643 0.059500161140457308 0.5877852598018023 0 -0.80901698891910034 0.60676274168932531 0 0.44083894485135172 1 I I -0.70710678118654757 0.70710678118654757 0.75 forward I I I I #
loop $-1 $-1 $199 $56 #
coedge $-1 $124 $124 $200 $201 reversed $78 $-1 #
face $-1 $-1 $202 $44 $-1 $203 forward single #
loop $-1 $204 $205 $80 #
cone-surface $-1 -42.645930095443205 -3.4787497782746257 0.059500161140457308 0.5877852598018023 0 -0.80901698891910034 0.60676274168932531 0 0.44083894485135172 1 I I -0.70710678118654757 0.70710678118654757 0.75 forward I I I I #
loop $-1 $-1 $206 $57 #
coedge $-1 $129 $129 $207 $208 reversed $81 $-1 #
face $-1 $209 $210 $45 $-1 $211 reversed single #
loop $-1 $-1 $212 $83 #
plane-surface $-1 -49.866023743400376 20.66874582184397 0.21899423699959186 -0.5877852598018023 0 0.80901698891910034 0.80901698891910034 0 0.5877852598018023 forward_v I I I I #
coedge $-1 $213 $214 $215 $216 reversed $84 $-1 #
face $-1 $-1 $217 $46 $-1 $218 forward single #
loop $-1 $219 $220 $86 #
cone-surface $-1 -42.645930095443205 18.059683488137999 0.059500161140457308 0.5877852598018023 0 -0.80901698891910034 0.60676274168932531 0 0.44083894485135172 1 I I -0.70710678118654757 0.70710678118654757 0.75 forward I I I I #
loop $-1 $-1 $221 $59 #
coedge $-1 $138 $138 $222 $223 reversed $87 $-1 #
face $-1 $-1 $224 $47 $-1 $225 forward single #
loop $-1 $226 $227 $89 #
cone-surface $-1 -42.645930095443205 23.277808155549941 0.059500161140457308 0.5877852598018023 0 -0.80901698891910034 0.60676274168932531 0 0.44083894485135172 1 I I -0.70710678118654757 0.70710678118654757 0.75 forward I I I I #
loop $-1 $-1 $228 $60 #
coedge $-1 $143 $143 $229 $230 reversed $90 $-1 #
face $-1 $231 $232 $48 $-1 $233 reversed single #
loop $-1 $-1 $234 $92 #
plane-surface $-1 -2.9839082164692741 17.298733636732528 84.764537842270187 0.84804810408105047 0 0.52991925155115449 0.52991925155115449 0 -0.84804810408105047 forward_v I I I I #
coedge $-1 $235 $236 $237 $238 reversed $93 $-1 #
face $-1 $-1 $239 $49 $-1 $240 forward single #
loop $-1 $241 $242 $95 #
cone-surface $-1 46.113972378677886 15.314082678794804 2.5620243457846916 -0.84804810408105047 0 -0.52991925155115449 0.13247981288778862 0 -0.21201202602026262 1 I I -0.70710678118654746 0.70710678118654746 0.25 forward I I I I #
loop $-1 $-1 $243 $62 #
coedge $-1 $152 $152 $244 $245 reversed $96 $-1 #
face $-1 $-1 $246 $50 $-1 $247 forward single #
loop $-1 $248 $249 $98 #
cone-surface $-1 46.113972378677886 17.298733636732528 2.5620243457846916 -0.84804810408105047 0 -0.52991925155115449 0.13247981288778862 0 -0.21201202602026262 1 I I -0.70710678118654746 0.70710678118654746 0.25 forward I I I I #
loop $-1 $-1 $250 $63 #
coedge $-1 $157 $157 $251 $252 reversed $99 $-1 #
face $-1 $-1 $253 $51 $-1 $254 forward single #
loop $-1 $255 $256 $101 #
cone-surface $-1 46.113972378677886 19.283384594670252 2.5620243457846916 -0.84804810408105047 0 -0.52991925155115449 0.13247981288778862 0 -0.21201202602026262 1 I I -0.70710678118654746 0.70710678118654746 0.25 forward I I I I #
loop $-1 $-1 $257 $64 #
coedge $-1 $162 $162 $258 $259 reversed $102 $-1 #
face $-1 $260 $261 $39 $-1 $262 reversed single #
loop $-1 $-1 $263 $104 #
plane-surface $-1 0 -33.969373936691262 0 0 1 0 0 0 1 forward_v I I I I #
coedge $-1 $264 $265 $266 $267 forward $105 $-1 #
coedge $-1 $268 $107 $269 $270 forward $66 $-1 #
coedge $-1 $107 $268 $271 $272 forward $66 $-1 #
coedge $-1 $273 $274 $107 $170 reversed $275 $-1 #
edge $-1 $276 -33.969373936691262 $277 33.969373936691262 $169 $278 forward 7 unknown #
face $-1 $279 $280 $40 $-1 $281 reversed single #
loop $-1 $-1 $282 $108 #
plane-surface $-1 0 0 -6.9755036918369351 0 0 1 1 0 0 forward_v I I I I #
coedge $-1 $283 $284 $285 $286 reversed $109 $-1 #
coedge $-1 $287 $111 $284 $288 forward $69 $-1 #
coedge $-1 $111 $287 $289 $290 reversed $69 $-1 #
coedge $-1 $291 $285 $111 $178 forward $280 $-1 #
edge $-1 $292 11.57507496619561 $293 18.787890969062303 $177 $294 forward 7 unknown #
face $-1 $295 $296 $41 $-1 $297 reversed single #
loop $-1 $-1 $185 $112 #
plane-surface $-1 49.866023743400376 0 0 -1 0 0 0 0 1 forward_v I I I I #
coedge $-1 $298 $299 $300 $301 reversed $113 $-1 #
coedge $-1 $302 $115 $303 $304 reversed $72 $-1 #
coedge $-1 $115 $302 $299 $305 forward $72 $-1 #
coedge $-1 $306 $307 $115 $186 forward $180 $-1 #
edge $-1 $308 -18.7878909690623 $309 -11.575074966195608 $185 $310 forward 7 unknown #
face $-1 $311 $312 $42 $-1 $313 reversed single #
loop $-1 $-1 $314 $116 #
plane-surface $-1 -108.48705118599524 -12.175624223961192 80.903914993507868 0 1 0 -0.5877852598018023 0 0.80901698891910034 forward_v I I I I #
coedge $-1 $315 $316 $317 $318 reversed $117 $-1 #
coedge $-1 $192 $119 $319 $320 reversed $75 $-1 #
coedge $-1 $119 $191 $315 $321 reversed $75 $-1 #
coedge $-1 $317 $322 $119 $194 forward $312 $-1 #
edge $-1 $323 33.476453804917 $324 40.232963259754342 $193 $325 forward 7 unknown #
loop $-1 $-1 $200 $120 #
plane-surface $-1 -49.866023743400376 -6.0878121119805968 0.21899423699959186 -0.5877852598018023 0 0.80901698891910034 0.80901698891910034 0 0.5877852598018023 forward_v I I I I #
loop $-1 $-1 $326 $77 #
coedge $-1 $198 $198 $199 $327 reversed $121 $-1 #
coedge $-1 $199 $199 $198 $327 forward $123 $-1 #
coedge $-1 $200 $200 $124 $201 forward $195 $-1 #
edge $-1 $328 0 $328 6.2831853071796004 $200 $329 forward 7 unknown #
loop $-1 $-1 $207 $125 #
plane-surface $-1 -49.866023743400376 -6.0878121119805968 0.21899423699959186 -0.5877852598018023 0 0.80901698891910034 0.80901698891910034 0 0.5877852598018023 forward_v I I I I #
loop $-1 $-1 $330 $80 #
coedge $-1 $205 $205 $206 $331 reversed $126 $-1 #
coedge $-1 $206 $206 $205 $331 forward $128 $-1 #
coedge $-1 $207 $207 $129 $208 forward $202 $-1 #
edge $-1 $332 0 $332 6.2831853071796004 $207 $333 forward 7 unknown #
face $-1 $334 $335 $45 $-1 $336 forward single #
loop $-1 $-1 $337 $130 #
plane-surface $-1 -108.48705118599524 14.580933709863375 80.903914993507868 0 1 0 -0.5877852598018023 0 0.80901698891910034 forward_v I I I I #
coedge $-1 $338 $339 $340 $341 reversed $131 $-1 #
coedge $-1 $214 $133 $342 $343 reversed $84 $-1 #
coedge $-1 $133 $213 $338 $344 reversed $84 $-1 #
coedge $-1 $340 $345 $133 $216 forward $346 $-1 #
edge $-1 $347 33.476453804917 $348 40.232963259754342 $215 $349 forward 7 unknown #
loop $-1 $-1 $222 $134 #
plane-surface $-1 -49.866023743400376 20.66874582184397 0.21899423699959186 -0.5877852598018023 0 0.80901698891910034 0.80901698891910034 0 0.5877852598018023 forward_v I I I I #
loop $-1 $-1 $350 $86 #
coedge $-1 $220 $220 $221 $351 reversed $135 $-1 #
coedge $-1 $221 $221 $220 $351 forward $137 $-1 #
coedge $-1 $222 $222 $138 $223 forward $217 $-1 #
edge $-1 $352 0 $352 6.2831853071796004 $222 $353 forward 7 unknown #
loop $-1 $-1 $229 $139 #
plane-surface $-1 -49.866023743400376 20.66874582184397 0.21899423699959186 -0.5877852598018023 0 0.80901698891910034 0.80901698891910034 0 0.5877852598018023 forward_v I I I I #
loop $-1 $-1 $354 $89 #
coedge $-1 $227 $227 $228 $355 reversed $140 $-1 #
coedge $-1 $228 $228 $227 $355 forward $142 $-1 #
coedge $-1 $229 $229 $143 $230 forward $224 $-1 #
edge $-1 $356 0 $356 6.2831853071796004 $229 $357 forward 7 unknown #
face $-1 $358 $359 $48 $-1 $360 forward single #
loop $-1 $-1 $361 $144 #
plane-surface $-1 81.593665570833394 13.990982040169655 137.61446980213984 0 1 0 0.84804810408105047 0 0.52991925155115449 forward_v I I I I #
coedge $-1 $362 $363 $364 $365 reversed $145 $-1 #
coedge $-1 $236 $147 $366 $367 reversed $93 $-1 #
coedge $-1 $147 $235 $362 $368 reversed $93 $-1 #
coedge $-1 $364 $369 $147 $238 forward $359 $-1 #
edge $-1 $370 -9.0691909579836789 $371 -4.8272407358399434 $237 $372 forward 7 unknown #
loop $-1 $-1 $244 $148 #
plane-surface $-1 -2.9839082164692741 17.298733636732528 84.764537842270187 0.84804810408105047 0 0.52991925155115449 0.52991925155115449 0 -0.84804810408105047 forward_v I I I I #
loop $-1 $-1 $373 $95 #
coedge $-1 $242 $242 $243 $374 reversed $149 $-1 #
coedge $-1 $243 $243 $242 $374 forward $151 $-1 #
coedge $-1 $244 $244 $152 $245 forward $239 $-1 #
edge $-1 $375 0 $375 6.2831853071796004 $244 $376 forward 7 unknown #
loop $-1 $-1 $251 $153 #
plane-surface $-1 -2.9839082164692741 17.298733636732528 84.764537842270187 0.84804810408105047 0 0.52991925155115449 0.52991925155115449 0 -0.84804810408105047 forward_v I I I I #
loop $-1 $-1 $377 $98 #
coedge $-1 $249 $249 $250 $378 reversed $154 $-1 #
coedge $-1 $250 $250 $249 $378 forward $156 $-1 #
coedge $-1 $251 $251 $157 $252 forward $246 $-1 #
edge $-1 $379 0 $379 6.2831853071796004 $251 $380 forward 7 unknown #
loop $-1 $-1 $258 $158 #
plane-surface $-1 -2.9839082164692741 17.298733636732528 84.764537842270187 0.84804810408105047 0 0.52991925155115449 0.52991925155115449 0 -0.84804810408105047 forward_v I I I I #
loop $-1 $-1 $381 $101 #
coedge $-1 $256 $256 $257 $382 reversed $159 $-1 #
coedge $-1 $257 $257 $256 $382 forward $161 $-1 #
coedge $-1 $258 $258 $162 $259 forward $253 $-1 #
edge $-1 $383 0 $383 6.2831853071796004 $258 $384 forward 7 unknown #
face $-1 $385 $386 $39 $-1 $387 reversed single #
loop $-1 $-1 $388 $163 #
plane-surface $-1 -49.866023743400376 0 0 1 0 0 0 0 -1 forward_v I I I I #
coedge $-1 $389 $271 $390 $391 forward $164 $-1 #
coedge $-1 $392 $166 $389 $393 forward $105 $-1 #
coedge $-1 $166 $392 $394 $395 forward $105 $-1 #
coedge $-1 $274 $273 $166 $267 reversed $275 $-1 #
edge $-1 $396 -33.969373936691262 $397 33.969373936691262 $266 $398 forward 7 unknown #
coedge $-1 $168 $167 $399 $400 forward $66 $-1 #
coedge $-1 $401 $402 $167 $270 reversed $386 $-1 #
edge $-1 $277 -49.866023743400376 $403 49.866023743400376 $269 $404 forward 7 unknown #
coedge $-1 $263 $405 $168 $272 reversed $164 $-1 #
edge $-1 $406 -49.866023743400376 $276 49.866023743400376 $271 $407 forward 7 unknown #
coedge $-1 $266 $169 $405 $408 forward $275 $-1 #
coedge $-1 $169 $266 $401 $409 reversed $275 $-1 #
loop $-1 $-1 $273 $385 #
vertex $-1 $170 $410 #
vertex $-1 $170 $411 #
straight-curve $-1 49.866023743400376 0 6.9755036918369351 0 1 0 I I #
face $-1 $412 $413 $40 $-1 $414 reversed single #
loop $-1 $-1 $285 $171 #
plane-surface $-1 49.866023743400376 0 0 -1 0 0 0 0 1 forward_v I I I I #
coedge $-1 $415 $416 $283 $417 forward $172 $-1 #
coedge $-1 $418 $174 $282 $417 reversed $109 $-1 #
coedge $-1 $174 $418 $175 $288 reversed $109 $-1 #
coedge $-1 $177 $419 $174 $286 forward $280 $-1 #
edge $-1 $420 -4.4437090010861162 $292 -0.61988038041552151 $285 $421 forward 7 unknown #
coedge $-1 $176 $175 $422 $423 reversed $69 $-1 #
edge $-1 $292 -49.866023743400376 $424 49.866023743400376 $284 $425 forward 7 unknown #
coedge $-1 $426 $427 $176 $290 forward $413 $-1 #
edge $-1 $293 -49.866023743400376 $428 49.866023743400376 $289 $429 forward 7 unknown #
coedge $-1 $419 $177 $427 $430 forward $280 $-1 #
vertex $-1 $178 $431 #
vertex $-1 $430 $432 #
straight-curve $-1 49.866023743400376 -15.181482967628957 -3.1516750711663404 0 -1 0 I I #
face $-1 $433 $434 $41 $-1 $435 reversed single #
loop $-1 $-1 $436 $179 #
plane-surface $-1 0 0 -6.9755036918369351 0 0 1 1 0 0 forward_v I I I I #
coedge $-1 $437 $182 $436 $438 reversed $113 $-1 #
coedge $-1 $182 $437 $184 $305 reversed $113 $-1 #
coedge $-1 $439 $440 $182 $301 forward $434 $-1 #
edge $-1 $441 -4.4437090010861162 $442 -0.61988038041552151 $300 $443 forward 7 unknown #
coedge $-1 $184 $183 $439 $444 reversed $72 $-1 #
coedge $-1 $445 $446 $183 $304 forward $447 $-1 #
edge $-1 $448 -49.866023743400376 $308 49.866023743400376 $303 $449 forward 7 unknown #
edge $-1 $442 -49.866023743400376 $309 49.866023743400376 $299 $450 forward 7 unknown #
coedge $-1 $451 $185 $437 $452 forward $180 $-1 #
coedge $-1 $185 $451 $445 $453 reversed $180 $-1 #
vertex $-1 $453 $454 #
vertex $-1 $186 $455 #
straight-curve $-1 49.866023743400376 15.181482967628956 -3.1516750711663404 0 -1 0 I I #
face $-1 $-1 $456 $42 $-1 $457 forward single #
loop $-1 $-1 $193 $187 #
plane-surface $-1 -49.866023743400376 0 0 1 0 0 0 0 -1 forward_v I I I I #
coedge $-1 $458 $459 $460 $461 reversed $188 $-1 #
coedge $-1 $462 $190 $192 $321 forward $117 $-1 #
coedge $-1 $190 $462 $458 $463 forward $117 $-1 #
coedge $-1 $460 $193 $190 $318 forward $312 $-1 #
edge $-1 $324 -3.0439060559902966 $464 9.1317181679708934 $317 $465 forward 7 unknown #
coedge $-1 $466 $467 $191 $320 forward $456 $-1 #
edge $-1 $468 -13.677039127206221 $323 -4.3775018495972446 $319 $469 forward 7 unknown #
edge $-1 $324 0 $468 11.494860311937042 $192 $470 forward 7 unknown #
coedge $-1 $193 $460 $466 $471 reversed $312 $-1 #
vertex $-1 $471 $472 #
vertex $-1 $194 $473 #
straight-curve $-1 -49.866023743400376 -1.7763568394002505e-015 40.451957496753934 0 0 -1 I I #
coedge $-1 $326 $326 $-1 $474 reversed $197 $-1 #
edge $-1 $475 0 $475 6.2831853071796004 $198 $476 forward 7 unknown #
vertex $-1 $201 $477 #
ellipse-curve $-1 -45.216255104595888 -8.6968744456865643 3.5972489644182639 -0.5877852598018023 0 0.80901698891910034 1.2135254833786506 0 0.88167788970270344 1 I I #
coedge $-1 $330 $330 $-1 $478 reversed $204 $-1 #
edge $-1 $479 0 $479 6.2831853071796004 $205 $480 forward 7 unknown #
vertex $-1 $208 $481 #
ellipse-curve $-1 -45.216255104595888 -3.4787497782746257 3.5972489644182639 -0.5877852598018023 0 0.80901698891910034 1.2135254833786506 0 0.88167788970270344 1 I I #
face $-1 $-1 $346 $45 $-1 $482 reversed single #
loop $-1 $-1 $483 $209 #
plane-surface $-1 0 0 6.9755036918369351 0 0 1 1 0 0 forward_v I I I I #
coedge $-1 $484 $485 $486 $487 reversed $210 $-1 #
coedge $-1 $488 $212 $214 $344 forward $131 $-1 #
coedge $-1 $212 $488 $484 $489 forward $131 $-1 #
coedge $-1 $486 $215 $212 $341 forward $346 $-1 #
edge $-1 $348 -16.422185022902582 $490 -4.24656079894139 $340 $491 forward 7 unknown #
coedge $-1 $492 $493 $213 $343 forward $335 $-1 #
edge $-1 $494 -13.677039127206221 $347 -4.3775018495972446 $342 $495 forward 7 unknown #
edge $-1 $348 0 $494 11.494860311937042 $214 $496 forward 7 unknown #
coedge $-1 $215 $486 $492 $497 reversed $346 $-1 #
loop $-1 $-1 $486 $334 #
vertex $-1 $497 $498 #
vertex $-1 $216 $499 #
straight-curve $-1 -49.866023743400376 26.756557933824567 40.451957496753934 0 0 -1 I I #
coedge $-1 $350 $350 $-1 $500 reversed $219 $-1 #
edge $-1 $501 0 $501 6.2831853071796004 $220 $502 forward 7 unknown #
vertex $-1 $223 $503 #
ellipse-curve $-1 -45.216255104595888 18.059683488137999 3.5972489644182639 -0.5877852598018023 0 0.80901698891910034 1.2135254833786506 0 0.88167788970270344 1 I I #
coedge $-1 $354 $354 $-1 $504 reversed $226 $-1 #
edge $-1 $505 0 $505 6.2831853071796004 $227 $506 forward 7 unknown #
vertex $-1 $230 $507 #
ellipse-curve $-1 -45.216255104595888 23.277808155549941 3.5972489644182639 -0.5877852598018023 0 0.80901698891910034 1.2135254833786506 0 0.88167788970270344 1 I I #
face $-1 $-1 $508 $48 $-1 $509 reversed single #
loop $-1 $-1 $237 $231 #
plane-surface $-1 0 0 6.9755036918369351 0 0 1 1 0 0 forward_v I I I I #
coedge $-1 $510 $511 $512 $513 reversed $232 $-1 #
coedge $-1 $514 $234 $236 $368 forward $145 $-1 #
coedge $-1 $234 $514 $510 $515 forward $145 $-1 #
coedge $-1 $512 $237 $234 $365 forward $359 $-1 #
edge $-1 $371 -11.957118414929138 $516 -5.3416152218033908 $364 $517 forward 7 unknown #
coedge $-1 $518 $519 $235 $367 forward $508 $-1 #
edge $-1 $520 -68.6202708461024 $370 -61.831731209232984 $366 $521 forward 7 unknown #
edge $-1 $371 91.727148231438917 $520 99.732047486800752 $236 $522 forward 7 unknown #
coedge $-1 $237 $512 $518 $523 forward $359 $-1 #
vertex $-1 $238 $524 #
vertex $-1 $238 $525 #
straight-curve $-1 40.796832785416697 20.606485233295402 6.9755036918369342 -1 0 0 I I #
coedge $-1 $373 $373 $-1 $526 reversed $241 $-1 #
edge $-1 $527 0 $527 6.2831853071796004 $242 $528 forward 7 unknown #
vertex $-1 $245 $529 #
ellipse-curve $-1 47.745048632328505 15.314082678794804 3.5812338734022315 0.84804810408105047 0 0.52991925155115449 0.26495962577557725 0 -0.42402405204052523 1 I I #
coedge $-1 $377 $377 $-1 $530 reversed $248 $-1 #
edge $-1 $531 0 $531 6.2831853071796004 $249 $532 forward 7 unknown #
vertex $-1 $252 $533 #
ellipse-curve $-1 47.745048632328505 17.298733636732528 3.5812338734022315 0.84804810408105047 0 0.52991925155115449 0.26495962577557725 0 -0.42402405204052523 1 I I #
coedge $-1 $381 $381 $-1 $534 reversed $255 $-1 #
edge $-1 $535 0 $535 6.2831853071796004 $256 $536 forward 7 unknown #
vertex $-1 $259 $537 #
ellipse-curve $-1 47.745048632328505 19.283384594670252 3.5812338734022315 0.84804810408105047 0 0.52991925155115449 0.26495962577557725 0 -0.42402405204052523 1 I I #
face $-1 $-1 $275 $39 $-1 $538 reversed single #
loop $-1 $-1 $401 $260 #
plane-surface $-1 0 33.969373936691262 0 0 -1 0 0 0 -1 forward_v I I I I #
coedge $-1 $539 $399 $402 $540 forward $261 $-1 #
coedge $-1 $405 $263 $264 $393 reversed $164 $-1 #
coedge $-1 $399 $539 $263 $391 reversed $261 $-1 #
edge $-1 $406 -6.9755036918369351 $541 6.9755036918369351 $390 $542 forward 7 unknown #
coedge $-1 $265 $264 $539 $543 forward $105 $-1 #
edge $-1 $397 -49.866023743400376 $541 49.866023743400376 $389 $544 forward 7 unknown #
coedge $-1 $402 $401 $265 $395 reversed $386 $-1 #
edge $-1 $545 -49.866023743400376 $396 49.866023743400376 $394 $546 forward 7 unknown #
vertex $-1 $267 $547 #
vertex $-1 $408 $548 #
straight-curve $-1 49.866023743400376 0 -6.9755036918369351 0 -1 0 I I #
coedge $-1 $388 $390 $268 $400 reversed $261 $-1 #
edge $-1 $403 -33.969373936691262 $406 33.969373936691262 $399 $549 forward 7 unknown #
coedge $-1 $394 $269 $274 $409 forward $386 $-1 #
coedge $-1 $269 $394 $388 $540 reversed $386 $-1 #
vertex $-1 $270 $550 #
straight-curve $-1 0 33.969373936691262 6.9755036918369351 -1 0 0 I I #
coedge $-1 $271 $389 $273 $408 reversed $164 $-1 #
vertex $-1 $400 $551 #
straight-curve $-1 0 -33.969373936691262 6.9755036918369351 1 0 0 I I #
edge $-1 $276 -6.9755036918369351 $397 6.9755036918369351 $273 $552 forward 7 unknown #
edge $-1 $277 -6.9755036918369351 $396 6.9755036918369351 $274 $553 forward 7 unknown #
point $-1 49.866023743400376 -33.969373936691262 6.9755036918369351 #
point $-1 49.866023743400376 33.969373936691262 6.9755036918369351 #
face $-1 $-1 $554 $40 $-1 $555 reversed single #
loop $-1 $-1 $289 $279 #
plane-surface $-1 0 -33.969373936691262 0 0 1 0 0 0 1 forward_v I I I I #
coedge $-1 $556 $282 $419 $557 forward $172 $-1 #
coedge $-1 $282 $556 $558 $559 forward $172 $-1 #
edge $-1 $560 -49.866023743400376 $420 49.866023743400376 $282 $561 forward 7 unknown #
coedge $-1 $284 $283 $562 $563 reversed $109 $-1 #
coedge $-1 $285 $291 $415 $557 reversed $280 $-1 #
vertex $-1 $557 $564 #
straight-curve $-1 49.866023743400376 -26.756557933824567 -2.5317946907508189 0 0 1 I I #
coedge $-1 $562 $565 $287 $423 forward $554 $-1 #
edge $-1 $428 -18.787890969062303 $424 -11.57507496619561 $422 $566 forward 7 unknown #
vertex $-1 $423 $567 #
straight-curve $-1 0 -26.756557933824567 -3.1516750711663404 -1 0 0 I I #
coedge $-1 $568 $289 $565 $569 forward $413 $-1 #
coedge $-1 $289 $568 $291 $430 reversed $413 $-1 #
vertex $-1 $569 $570 #
straight-curve $-1 0 -33.969373936691262 -3.1516750711663404 -1 0 0 I I #
edge $-1 $293 3.1516750711663404 $571 6.9755036918369351 $291 $572 forward 7 unknown #
point $-1 49.866023743400376 -26.756557933824567 -3.1516750711663404 #
point $-1 49.866023743400376 -33.969373936691262 -3.1516750711663404 #
face $-1 $-1 $447 $41 $-1 $573 reversed single #
loop $-1 $-1 $439 $295 #
plane-surface $-1 -49.866023743400376 0 0 1 0 0 0 0 -1 forward_v I I I I #
coedge $-1 $574 $575 $298 $438 forward $296 $-1 #
coedge $-1 $299 $298 $306 $452 reversed $113 $-1 #
edge $-1 $576 -49.866023743400376 $441 49.866023743400376 $436 $577 forward 7 unknown #
coedge $-1 $578 $300 $302 $444 forward $434 $-1 #
coedge $-1 $300 $578 $574 $579 reversed $434 $-1 #
vertex $-1 $579 $580 #
vertex $-1 $444 $581 #
straight-curve $-1 -49.866023743400376 26.756557933824563 -2.5317946907508189 0 0 1 I I #
edge $-1 $442 11.575074966195608 $448 18.7878909690623 $439 $582 forward 7 unknown #
coedge $-1 $583 $303 $307 $453 forward $447 $-1 #
coedge $-1 $303 $583 $578 $584 reversed $447 $-1 #
loop $-1 $-1 $303 $433 #
vertex $-1 $584 $585 #
straight-curve $-1 0 33.969373936691262 -3.1516750711663404 1 0 0 I I #
straight-curve $-1 0 26.756557933824563 -3.1516750711663404 1 0 0 I I #
coedge $-1 $307 $306 $575 $586 reversed $180 $-1 #
edge $-1 $309 0.61988038041552151 $576 4.4437090010861162 $306 $587 forward 7 unknown #
edge $-1 $308 3.1516750711663404 $588 6.9755036918369351 $307 $589 forward 7 unknown #
point $-1 49.866023743400376 33.969373936691255 -3.1516750711663404 #
point $-1 49.866023743400376 26.756557933824563 -3.1516750711663404 #
loop $-1 $-1 $319 $311 #
plane-surface $-1 0 0 6.9755036918369351 0 0 1 1 0 0 forward_v I I I I #
coedge $-1 $459 $314 $316 $463 reversed $188 $-1 #
coedge $-1 $314 $458 $590 $591 reversed $188 $-1 #
coedge $-1 $322 $317 $314 $461 forward $312 $-1 #
edge $-1 $464 -40.232963259754342 $592 -33.476453804917 $460 $593 forward 7 unknown #
coedge $-1 $316 $315 $467 $594 reversed $117 $-1 #
edge $-1 $595 -11.494860311937042 $464 0 $458 $596 forward 7 unknown #
vertex $-1 $318 $597 #
straight-curve $-1 -49.866023743400376 -3.0439060559902984 0.21899423699959422 0 -1 0 I I #
coedge $-1 $590 $319 $322 $471 forward $456 $-1 #
coedge $-1 $319 $590 $462 $594 forward $456 $-1 #
vertex $-1 $320 $598 #
straight-curve $-1 -54.243525592997621 -1.7763568394002505e-015 6.9755036918369342 -1 0 0 I I #
straight-curve $-1 -49.866023743400376 -1.7763568394002505e-015 0.21899423699959186 0.80901698891910034 0 0.5877852598018023 I I #
edge $-1 $323 1.7763568394002505e-015 $592 12.175624223961192 $322 $599 forward 7 unknown #
point $-1 -49.866023743400376 -1.7763568394002505e-015 6.9755036918369351 #
point $-1 -49.866023743400376 -1.7763568394002505e-015 0.21899423699959186 #
edge $-1 $600 1 $600 0 $326 $-1 forward 7 unknown #
vertex $-1 $327 $601 #
ellipse-curve $-1 -43.086769040294556 -8.6968744456865643 0.66626290282978262 -0.5877852598018023 0 0.80901698891910034 1.2135254833786506 0 0.88167788970270344 1 I I #
point $-1 -44.002729621217235 -8.6968744456865643 4.4789268541209681 #
edge $-1 $602 1 $602 0 $330 $-1 forward 7 unknown #
vertex $-1 $331 $603 #
ellipse-curve $-1 -43.086769040294556 -3.4787497782746257 0.66626290282978262 -0.5877852598018023 0 0.80901698891910034 1.2135254833786506 0 0.88167788970270344 1 I I #
point $-1 -44.002729621217235 -3.4787497782746257 4.4789268541209681 #
plane-surface $-1 -49.866023743400376 0 0 1 0 0 0 0 -1 forward_v I I I I #
coedge $-1 $493 $492 $485 $604 forward $335 $-1 #
coedge $-1 $485 $337 $339 $489 reversed $210 $-1 #
coedge $-1 $337 $484 $483 $604 reversed $210 $-1 #
coedge $-1 $345 $340 $337 $487 forward $346 $-1 #
edge $-1 $490 -40.232963259754342 $605 -33.476453804917 $486 $606 forward 7 unknown #
coedge $-1 $339 $338 $493 $607 reversed $131 $-1 #
edge $-1 $608 -11.494860311937042 $490 0 $484 $609 forward 7 unknown #
vertex $-1 $341 $610 #
straight-curve $-1 -49.866023743400376 10.334372910921985 0.21899423699959422 0 -1 0 I I #
coedge $-1 $483 $342 $345 $497 forward $335 $-1 #
coedge $-1 $342 $483 $488 $607 forward $335 $-1 #
vertex $-1 $343 $611 #
straight-curve $-1 -54.243525592997621 26.756557933824567 6.9755036918369342 -1 0 0 I I #
straight-curve $-1 -49.866023743400376 26.756557933824567 0.21899423699959186 0.80901698891910034 0 0.5877852598018023 I I #
edge $-1 $347 -26.756557933824567 $605 -14.580933709863375 $345 $612 forward 7 unknown #
point $-1 -49.866023743400376 26.756557933824567 6.9755036918369351 #
point $-1 -49.866023743400376 26.756557933824567 0.21899423699959186 #
edge $-1 $613 1 $613 0 $350 $-1 forward 7 unknown #
vertex $-1 $351 $614 #
ellipse-curve $-1 -43.086769040294556 18.059683488137999 0.66626290282978262 -0.5877852598018023 0 0.80901698891910034 1.2135254833786506 0 0.88167788970270344 1 I I #
point $-1 -44.002729621217235 18.059683488137999 4.4789268541209681 #
edge $-1 $615 1 $615 0 $354 $-1 forward 7 unknown #
vertex $-1 $355 $616 #
ellipse-curve $-1 -43.086769040294556 23.277808155549941 0.66626290282978262 -0.5877852598018023 0 0.80901698891910034 1.2135254833786506 0 0.88167788970270344 1 I I #
point $-1 -44.002729621217235 23.277808155549941 4.4789268541209681 #
loop $-1 $-1 $366 $358 #
plane-surface $-1 49.866023743400376 0 0 -1 0 0 0 0 1 forward_v I I I I #
coedge $-1 $511 $361 $363 $515 reversed $232 $-1 #
coedge $-1 $361 $510 $617 $618 reversed $232 $-1 #
coedge $-1 $369 $364 $361 $513 forward $359 $-1 #
edge $-1 $516 4.8272407358399434 $619 9.0691909579836789 $512 $620 forward 7 unknown #
coedge $-1 $363 $362 $519 $621 reversed $145 $-1 #
edge $-1 $622 -99.732047486800752 $516 -91.727148231438917 $510 $623 forward 7 unknown #
vertex $-1 $365 $624 #
straight-curve $-1 45.624073521256641 8.6493668183662642 6.9755036918369413 0 -1 0 I I #
coedge $-1 $617 $366 $369 $523 reversed $508 $-1 #
coedge $-1 $366 $617 $514 $621 forward $508 $-1 #
vertex $-1 $367 $625 #
straight-curve $-1 49.866023743400376 20.606485233295402 68.807234901069918 0 0 1 I I #
straight-curve $-1 -2.9839082164692741 20.606485233295402 84.764537842270187 0.52991925155115449 0 -0.84804810408105047 I I #
edge $-1 $619 13.990982040169655 $370 20.606485233295402 $518 $626 forward 7 unknown #
point $-1 49.866023743400376 20.606485233295402 6.9755036918369351 #
point $-1 45.624073521256641 20.606485233295402 6.9755036918369342 #
edge $-1 $627 1 $627 0 $373 $-1 forward 7 unknown #
vertex $-1 $374 $628 #
ellipse-curve $-1 46.325984404698147 15.314082678794804 2.6945041586724803 0.84804810408105047 0 0.52991925155115449 0.26495962577557725 0 -0.42402405204052523 1 I I #
point $-1 48.010008258104087 15.314082678794804 3.1572098213617075 #
edge $-1 $629 1 $629 0 $377 $-1 forward 7 unknown #
vertex $-1 $378 $630 #
ellipse-curve $-1 46.325984404698147 17.298733636732528 2.6945041586724803 0.84804810408105047 0 0.52991925155115449 0.26495962577557725 0 -0.42402405204052523 1 I I #
point $-1 48.010008258104087 17.298733636732528 3.1572098213617075 #
edge $-1 $631 1 $631 0 $381 $-1 forward 7 unknown #
vertex $-1 $382 $632 #
ellipse-curve $-1 46.325984404698147 19.283384594670252 2.6945041586724803 0.84804810408105047 0 0.52991925155115449 0.26495962577557725 0 -0.42402405204052523 1 I I #
point $-1 48.010008258104087 19.283384594670252 3.1572098213617075 #
plane-surface $-1 49.866023743400376 0 0 -1 0 0 0 0 1 forward_v I I I I #
coedge $-1 $390 $388 $392 $543 reversed $261 $-1 #
edge $-1 $403 -6.9755036918369351 $545 6.9755036918369351 $402 $633 forward 7 unknown #
vertex $-1 $543 $634 #
straight-curve $-1 -49.866023743400376 -33.969373936691262 0 0 0 -1 I I #
edge $-1 $541 -33.969373936691262 $545 33.969373936691262 $539 $635 forward 7 unknown #
straight-curve $-1 0 -33.969373936691262 -6.9755036918369351 -1 0 0 I I #
vertex $-1 $395 $636 #
straight-curve $-1 0 33.969373936691262 -6.9755036918369351 1 0 0 I I #
point $-1 49.866023743400376 33.969373936691262 -6.9755036918369351 #
point $-1 49.866023743400376 -33.969373936691262 -6.9755036918369351 #
straight-curve $-1 -49.866023743400376 0 6.9755036918369351 0 -1 0 I I #
point $-1 -49.866023743400376 33.969373936691262 6.9755036918369351 #
point $-1 -49.866023743400376 -33.969373936691262 6.9755036918369351 #
straight-curve $-1 49.866023743400376 -33.969373936691262 0 0 0 -1 I I #
straight-curve $-1 49.866023743400376 33.969373936691262 0 0 0 -1 I I #
loop $-1 $-1 $562 $412 #
plane-surface $-1 -49.866023743400376 0 0 1 0 0 0 0 -1 forward_v I I I I #
coedge $-1 $416 $415 $568 $637 forward $172 $-1 #
edge $-1 $420 26.756557933824567 $571 33.969373936691262 $419 $638 forward 7 unknown #
coedge $-1 $565 $562 $416 $559 reversed $554 $-1 #
edge $-1 $639 -33.969373936691262 $560 -26.756557933824567 $558 $640 forward 7 unknown #
vertex $-1 $563 $641 #
straight-curve $-1 0 -26.756557933824567 -6.9755036918369351 1 0 0 I I #
coedge $-1 $558 $422 $418 $563 forward $554 $-1 #
edge $-1 $424 0.61988038041552151 $560 4.4437090010861162 $562 $642 forward 7 unknown #
point $-1 49.866023743400376 -26.756557933824567 -6.9755036918369351 #
coedge $-1 $422 $558 $426 $569 reversed $554 $-1 #
straight-curve $-1 -49.866023743400376 -15.181482967628957 -3.1516750711663404 0 1 0 I I #
point $-1 -49.866023743400376 -26.756557933824567 -3.1516750711663404 #
coedge $-1 $427 $426 $556 $637 reversed $413 $-1 #
edge $-1 $428 3.1516750711663404 $639 6.9755036918369351 $565 $643 forward 7 unknown #
point $-1 -49.866023743400376 -33.969373936691262 -3.1516750711663404 #
vertex $-1 $430 $644 #
straight-curve $-1 49.866023743400376 -33.969373936691262 0 0 0 -1 I I #
plane-surface $-1 0 33.969373936691262 0 0 -1 0 0 0 -1 forward_v I I I I #
coedge $-1 $645 $436 $440 $579 forward $296 $-1 #
coedge $-1 $436 $645 $451 $586 forward $296 $-1 #
vertex $-1 $438 $646 #
straight-curve $-1 0 26.756557933824563 -6.9755036918369351 -1 0 0 I I #
coedge $-1 $440 $439 $446 $584 forward $434 $-1 #
edge $-1 $441 26.756557933824563 $647 33.969373936691262 $440 $648 forward 7 unknown #
point $-1 -49.866023743400376 26.756557933824563 -6.9755036918369351 #
point $-1 -49.866023743400376 26.756557933824563 -3.1516750711663404 #
straight-curve $-1 -49.866023743400376 15.181482967628956 -3.1516750711663404 0 1 0 I I #
coedge $-1 $446 $445 $645 $649 reversed $447 $-1 #
edge $-1 $448 3.1516750711663404 $647 6.9755036918369351 $446 $650 forward 7 unknown #
point $-1 -49.866023743400376 33.969373936691255 -3.1516750711663404 #
edge $-1 $588 -33.969373936691262 $576 -26.756557933824563 $451 $651 forward 7 unknown #
straight-curve $-1 49.866023743400376 26.756557933824563 -2.5317946907508189 0 0 -1 I I #
vertex $-1 $586 $652 #
straight-curve $-1 49.866023743400376 33.969373936691262 0 0 0 -1 I I #
coedge $-1 $467 $466 $459 $591 forward $456 $-1 #
edge $-1 $592 4.3775018495972446 $595 13.677039127206221 $590 $653 forward 7 unknown #
vertex $-1 $591 $654 #
straight-curve $-1 -49.866023743400376 -12.175624223961192 40.451957496753934 0 0 1 I I #
edge $-1 $595 -9.1317181679708934 $468 3.0439060559902966 $467 $655 forward 7 unknown #
vertex $-1 $594 $656 #
straight-curve $-1 -49.866023743400376 -12.175624223961192 0.21899423699959186 -0.80901698891910034 0 -0.5877852598018023 I I #
point $-1 -49.866023743400376 -12.175624223961192 0.21899423699959186 #
point $-1 -40.566486465791399 -1.7763568394002505e-015 6.9755036918369351 #
straight-curve $-1 -49.866023743400376 0 6.9755036918369351 0 -1 0 I I #
vertex $-1 $474 $657 #
point $-1 -41.873243556915909 -8.6968744456865643 1.547940792532486 #
vertex $-1 $478 $658 #
point $-1 -41.873243556915909 -3.4787497782746257 1.547940792532486 #
edge $-1 $605 4.3775018495972446 $608 13.677039127206221 $483 $659 forward 7 unknown #
vertex $-1 $604 $660 #
straight-curve $-1 -49.866023743400376 14.580933709863375 40.451957496753934 0 0 1 I I #
edge $-1 $608 4.24656079894139 $494 16.422185022902582 $493 $661 forward 7 unknown #
vertex $-1 $607 $662 #
straight-curve $-1 -49.866023743400376 14.580933709863375 0.21899423699959186 -0.80901698891910034 0 -0.5877852598018023 I I #
point $-1 -49.866023743400376 14.580933709863375 0.21899423699959186 #
point $-1 -40.566486465791399 26.756557933824567 6.9755036918369351 #
straight-curve $-1 -49.866023743400376 0 6.9755036918369351 0 -1 0 I I #
vertex $-1 $500 $663 #
point $-1 -41.873243556915909 18.059683488137999 1.547940792532486 #
vertex $-1 $504 $664 #
point $-1 -41.873243556915909 23.277808155549941 1.547940792532486 #
coedge $-1 $519 $518 $511 $618 forward $508 $-1 #
edge $-1 $619 61.831731209232984 $622 68.6202708461024 $617 $665 forward 7 unknown #
vertex $-1 $523 $666 #
straight-curve $-1 40.796832785416697 13.990982040169655 6.9755036918369342 1 0 0 I I #
edge $-1 $622 5.3416152218033908 $520 11.957118414929138 $519 $667 forward 7 unknown #
vertex $-1 $621 $668 #
straight-curve $-1 -2.9839082164692741 13.990982040169655 84.764537842270187 -0.52991925155115449 0 0.84804810408105047 I I #
point $-1 45.624073521256641 13.990982040169655 6.9755036918369342 #
point $-1 49.866023743400376 20.606485233295402 0.18696405496751822 #
straight-curve $-1 49.866023743400376 0 6.9755036918369351 0 1 0 I I #
vertex $-1 $526 $669 #
point $-1 46.590944030473729 15.314082678794804 2.2704801066319549 #
vertex $-1 $530 $670 #
point $-1 46.590944030473729 17.298733636732528 2.2704801066319549 #
vertex $-1 $534 $671 #
point $-1 46.590944030473729 19.283384594670252 2.2704801066319549 #
straight-curve $-1 -49.866023743400376 33.969373936691262 0 0 0 -1 I I #
point $-1 -49.866023743400376 -33.969373936691262 -6.9755036918369351 #
straight-curve $-1 -49.866023743400376 0 -6.9755036918369351 0 1 0 I I #
point $-1 -49.866023743400376 33.969373936691262 -6.9755036918369351 #
edge $-1 $571 -49.866023743400376 $639 49.866023743400376 $568 $672 forward 7 unknown #
straight-curve $-1 49.866023743400376 0 -6.9755036918369351 0 -1 0 I I #
vertex $-1 $559 $673 #
straight-curve $-1 -49.866023743400376 0 -6.9755036918369351 0 1 0 I I #
point $-1 -49.866023743400376 -26.756557933824567 -6.9755036918369351 #
straight-curve $-1 -49.866023743400376 -26.756557933824567 -2.5317946907508189 0 0 -1 I I #
straight-curve $-1 -49.866023743400376 -33.969373936691262 0 0 0 -1 I I #
point $-1 49.866023743400376 -33.969373936691262 -6.9755036918369351 #
coedge $-1 $575 $574 $583 $649 forward $296 $-1 #
point $-1 49.866023743400376 26.756557933824563 -6.9755036918369351 #
vertex $-1 $649 $674 #
straight-curve $-1 -49.866023743400376 0 -6.9755036918369351 0 1 0 I I #
edge $-1 $647 -49.866023743400376 $588 49.866023743400376 $583 $675 forward 7 unknown #
straight-curve $-1 -49.866023743400376 33.969373936691262 0 0 0 -1 I I #
straight-curve $-1 49.866023743400376 0 -6.9755036918369351 0 -1 0 I I #
point $-1 49.866023743400376 33.969373936691262 -6.9755036918369351 #
straight-curve $-1 -54.243525592997621 -12.175624223961192 6.9755036918369342 1 0 0 I I #
point $-1 -49.866023743400376 -12.175624223961192 6.9755036918369351 #
straight-curve $-1 -40.566486465791399 -3.0439060559902984 6.9755036918369351 0 1 0 I I #
point $-1 -40.566486465791399 -12.175624223961192 6.9755036918369351 #
point $-1 -42.205091150591855 -8.6968744456865643 -0.54726258054886801 #
point $-1 -42.205091150591855 -3.4787497782746257 -0.54726258054886801 #
straight-curve $-1 -54.243525592997621 14.580933709863375 6.9755036918369342 1 0 0 I I #
point $-1 -49.866023743400376 14.580933709863375 6.9755036918369351 #
straight-curve $-1 -40.566486465791399 10.334372910921985 6.9755036918369351 0 1 0 I I #
point $-1 -40.566486465791399 14.580933709863375 6.9755036918369351 #
point $-1 -42.205091150591855 18.059683488137999 -0.54726258054886801 #
point $-1 -42.205091150591855 23.277808155549941 -0.54726258054886801 #
straight-curve $-1 49.866023743400376 13.990982040169655 68.807234901069918 0 0 -1 I I #
point $-1 49.866023743400376 13.990982040169655 6.9755036918369351 #
straight-curve $-1 49.866023743400376 8.6493668183662642 0.18696405496752533 0 1 0 I I #
point $-1 49.866023743400376 13.990982040169655 0.18696405496751822 #
point $-1 45.901960352657625 15.314082678794804 2.429544532896903 #
point $-1 45.901960352657625 17.298733636732528 2.429544532896903 #
point $-1 45.901960352657625 19.283384594670252 2.429544532896903 #
straight-curve $-1 0 -33.969373936691262 -6.9755036918369351 -1 0 0 I I #
point $-1 -49.866023743400376 -33.969373936691262 -6.9755036918369351 #
point $-1 -49.866023743400376 33.969373936691262 -6.9755036918369351 #
straight-curve $-1 0 33.969373936691262 -6.9755036918369351 1 0 0 I I #
End-of-ACIS-data 