500 0 10 0           
7 Unknown 11 ACIS 5.0 NT 24 Thu Mar 25 17:06:24 1999 
-1 9.9999999999999995e-007 1e-010 
body $-1 $10 $-1 $11 #
body $-1 $12 $-1 $13 #
body $-1 $14 $-1 $15 #
body $-1 $16 $-1 $17 #
body $-1 $18 $-1 $19 #
body $-1 $20 $-1 $21 #
body $-1 $22 $-1 $23 #
body $-1 $24 $-1 $25 #
body $-1 $26 $-1 $27 #
body $-1 $28 $-1 $29 #
lump $-1 $-1 $30 $0 #
transform $-1 1 0 0 0 1 0 0 0 1 62.715536973174224 43.160163798681033 10.764685160213652 1 rotate no_reflect no_shear #
lump $-1 $-1 $31 $1 #
transform $-1 1 0 0 0 1 0 0 0 1 62.715536973174224 43.160163798681033 10.764685160213652 1 rotate no_reflect no_shear #
lump $-1 $-1 $32 $2 #
transform $-1 1 0 0 0 1 0 0 0 1 62.715536973174224 43.160163798681033 10.764685160213652 1 rotate no_reflect no_shear #
lump $-1 $-1 $33 $3 #
transform $-1 1 0 0 0 1 0 0 0 1 62.715536973174224 43.160163798681033 10.764685160213652 1 rotate no_reflect no_shear #
lump $-1 $-1 $34 $4 #
transform $-1 1 0 0 0 1 0 0 0 1 62.715536973174224 43.160163798681033 10.764685160213652 1 rotate no_reflect no_shear #
lump $-1 $-1 $35 $5 #
transform $-1 1 0 0 0 1 0 0 0 1 62.715536973174224 43.160163798681033 10.764685160213652 1 rotate no_reflect no_shear #
lump $-1 $-1 $36 $6 #
transform $-1 1 0 0 0 1 0 0 0 1 62.715536973174224 43.160163798681033 10.764685160213652 1 rotate no_reflect no_shear #
lump $-1 $-1 $37 $7 #
transform $-1 1 0 0 0 1 0 0 0 1 62.715536973174224 43.160163798681033 10.764685160213652 1 rotate no_reflect no_shear #
lump $-1 $-1 $38 $8 #
transform $-1 1 0 0 0 1 0 0 0 1 62.715536973174224 43.160163798681033 10.764685160213652 1 rotate no_reflect no_shear #
lump $-1 $-1 $39 $9 #
transform $-1 1 0 0 0 1 0 0 0 1 62.715536973174224 43.160163798681033 10.764685160213652 1 rotate no_reflect no_shear #
shell $-1 $-1 $-1 $40 $-1 $10 #
shell $-1 $-1 $-1 $41 $-1 $12 #
shell $-1 $-1 $-1 $42 $-1 $14 #
shell $-1 $-1 $-1 $43 $-1 $16 #
shell $-1 $-1 $-1 $44 $-1 $18 #
shell $-1 $-1 $-1 $45 $-1 $20 #
shell $-1 $-1 $-1 $46 $-1 $22 #
shell $-1 $-1 $-1 $47 $-1 $24 #
shell $-1 $-1 $-1 $48 $-1 $26 #
shell $-1 $-1 $-1 $49 $-1 $28 #
face $-1 $50 $51 $30 $-1 $52 forward single #
face $-1 $53 $54 $31 $-1 $55 reversed single #
face $-1 $56 $57 $32 $-1 $58 reversed single #
face $-1 $59 $60 $33 $-1 $61 forward single #
face $-1 $62 $63 $34 $-1 $64 forward single #
face $-1 $65 $66 $35 $-1 $67 forward single #
face $-1 $68 $69 $36 $-1 $70 reversed single #
face $-1 $71 $72 $37 $-1 $73 forward single #
face $-1 $74 $75 $38 $-1 $76 forward single #
face $-1 $77 $78 $39 $-1 $79 forward single #
face $-1 $80 $81 $30 $-1 $82 reversed single #
loop $-1 $-1 $83 $40 #
plane-surface $-1 0 0 10.764685160213652 0 0 1 1 0 0 forward_v I I I I #
face $-1 $84 $85 $31 $-1 $86 reversed single #
loop $-1 $-1 $87 $41 #
plane-surface $-1 -60.334704128404049 -30.538802877748871 0 0 -1 0 0 0 -1 forward_v I I I I #
face $-1 $88 $89 $32 $-1 $90 reversed single #
loop $-1 $-1 $91 $42 #
plane-surface $-1 50.341694257332904 34.378384119443176 180.89568762543254 0 -1 0 -0.6560590369687036 0 -0.75470957328743171 forward_v I I I I #
face $-1 $92 $93 $33 $-1 $94 forward single #
loop $-1 $95 $96 $43 #
cone-surface $-1 57.769739817569317 22.677416428774983 6.1783316671075017 -0.6560590369687036 0 -0.75470957328743171 0.75470957328743171 0 -0.6560590369687036 1 I I 0 1 1 forward I I I I #
face $-1 $97 $98 $34 $-1 $99 forward single #
loop $-1 $100 $101 $44 #
cone-surface $-1 57.769739817569317 27.065279312775552 6.1783316671075017 -0.6560590369687036 0 -0.75470957328743171 0.75470957328743171 0 -0.6560590369687036 1 I I 0 1 1 forward I I I I #
face $-1 $102 $103 $35 $-1 $104 forward single #
loop $-1 $105 $106 $45 #
cone-surface $-1 57.769739817569317 31.45314219677612 6.1783316671075017 -0.6560590369687036 0 -0.75470957328743171 0.75470957328743171 0 -0.6560590369687036 1 I I 0 1 1 forward I I I I #
face $-1 $107 $108 $36 $-1 $109 reversed single #
loop $-1 $-1 $110 $46 #
plane-surface $-1 -166.70261105336186 19.299668829160275 73.89253131440239 0 1 0 -0.82903758062907751 0 0.55919289150049634 forward_v I I I I #
face $-1 $111 $112 $37 $-1 $113 forward single #
loop $-1 $114 $115 $47 #
cone-surface $-1 -59.601263222122206 22.179927099569603 6.7530899444801689 0.82903758062907751 0 -0.55919289150049634 0.27959644575024817 0 0.41451879031453875 1 I I 0 1 0.5 forward I I I I #
face $-1 $116 $117 $38 $-1 $118 forward single #
loop $-1 $119 $120 $48 #
cone-surface $-1 -59.601263222122206 26.500314505183603 6.7530899444801689 0.82903758062907751 0 -0.55919289150049634 0.27959644575024817 0 0.41451879031453875 1 I I 0 1 0.5 forward I I I I #
face $-1 $121 $122 $39 $-1 $123 forward single #
loop $-1 $124 $125 $49 #
cone-surface $-1 -59.601263222122206 30.820701910797602 6.7530899444801689 0.82903758062907751 0 -0.55919289150049634 0.27959644575024817 0 0.41451879031453875 1 I I 0 1 0.5 forward I I I I #
face $-1 $126 $127 $30 $-1 $128 reversed single #
loop $-1 $-1 $129 $50 #
plane-surface $-1 0 0 -10.764685160213652 0 0 1 1 0 0 forward_v I I I I #
coedge $-1 $130 $131 $132 $133 forward $51 $-1 #
face $-1 $134 $135 $31 $-1 $136 forward single #
loop $-1 $-1 $137 $53 #
plane-surface $-1 -57.953871283633873 -36.849483338214952 0 -1 0 0 0 0 1 forward_v I I I I #
coedge $-1 $138 $139 $140 $141 forward $54 $-1 #
face $-1 $142 $143 $32 $-1 $144 reversed single #
loop $-1 $-1 $145 $56 #
plane-surface $-1 -31.948495321858701 27.065279312775552 86.231655330399619 0.6560590369687036 0 0.75470957328743171 0.75470957328743171 0 -0.6560590369687036 forward_v I I I I #
coedge $-1 $146 $147 $148 $149 reversed $57 $-1 #
face $-1 $-1 $150 $33 $-1 $151 forward single #
loop $-1 $152 $153 $59 #
cone-surface $-1 56.420521081517492 22.677416428774983 4.6262330918604491 -0.6560590369687036 0 -0.75470957328743171 0.37735478664371586 0 -0.3280295184843518 1 I I -0.70710678118654746 0.70710678118654746 0.5 forward I I I I #
loop $-1 $-1 $154 $43 #
coedge $-1 $96 $96 $155 $156 reversed $60 $-1 #
face $-1 $-1 $157 $34 $-1 $158 forward single #
loop $-1 $159 $160 $62 #
cone-surface $-1 56.420521081517492 27.065279312775552 4.6262330918604491 -0.6560590369687036 0 -0.75470957328743171 0.37735478664371586 0 -0.3280295184843518 1 I I -0.70710678118654746 0.70710678118654746 0.5 forward I I I I #
loop $-1 $-1 $161 $44 #
coedge $-1 $101 $101 $162 $163 reversed $63 $-1 #
face $-1 $-1 $164 $35 $-1 $165 forward single #
loop $-1 $166 $167 $65 #
cone-surface $-1 56.420521081517492 31.45314219677612 4.6262330918604491 -0.6560590369687036 0 -0.75470957328743171 0.37735478664371586 0 -0.3280295184843518 1 I I -0.70710678118654746 0.70710678118654746 0.5 forward I I I I #
loop $-1 $-1 $168 $45 #
coedge $-1 $106 $106 $169 $170 reversed $66 $-1 #
face $-1 $171 $172 $36 $-1 $173 reversed single #
loop $-1 $-1 $174 $68 #
plane-surface $-1 -62.715536973174224 26.500314505183603 3.7523663903312325 -0.82903758062907751 0 0.55919289150049634 0.55919289150049634 0 0.82903758062907751 forward_v I I I I #
coedge $-1 $175 $176 $177 $178 reversed $69 $-1 #
face $-1 $-1 $179 $37 $-1 $180 forward single #
loop $-1 $181 $182 $71 #
cone-surface $-1 -58.644664368806076 22.179927099569603 6.1078558908127789 0.82903758062907751 0 -0.55919289150049634 0.13979822287512408 0 0.20725939515726938 1 I I -0.70710678118654746 0.70710678118654746 0.25 forward I I I I #
loop $-1 $-1 $183 $47 #
coedge $-1 $115 $115 $184 $185 reversed $72 $-1 #
face $-1 $-1 $186 $38 $-1 $187 forward single #
loop $-1 $188 $189 $74 #
cone-surface $-1 -58.644664368806076 26.500314505183603 6.1078558908127789 0.82903758062907751 0 -0.55919289150049634 0.13979822287512408 0 0.20725939515726938 1 I I -0.70710678118654746 0.70710678118654746 0.25 forward I I I I #
loop $-1 $-1 $190 $48 #
coedge $-1 $120 $120 $191 $192 reversed $75 $-1 #
face $-1 $-1 $193 $39 $-1 $194 forward single #
loop $-1 $195 $196 $77 #
cone-surface $-1 -58.644664368806076 30.820701910797602 6.1078558908127789 0.82903758062907751 0 -0.55919289150049634 0.13979822287512408 0 0.20725939515726938 1 I I -0.70710678118654746 0.70710678118654746 0.25 forward I I I I #
loop $-1 $-1 $197 $49 #
coedge $-1 $125 $125 $198 $199 reversed $78 $-1 #
face $-1 $200 $201 $30 $-1 $202 reversed single #
loop $-1 $-1 $203 $80 #
plane-surface $-1 0 -43.160163798681033 0 0 1 0 0 0 1 forward_v I I I I #
coedge $-1 $204 $205 $206 $207 forward $81 $-1 #
coedge $-1 $208 $83 $209 $210 forward $51 $-1 #
coedge $-1 $83 $208 $211 $212 forward $51 $-1 #
coedge $-1 $213 $214 $83 $133 reversed $215 $-1 #
edge $-1 $216 -43.160163798681033 $217 43.160163798681033 $132 $218 forward 7 unknown #
face $-1 $219 $220 $31 $-1 $221 reversed single #
loop $-1 $-1 $222 $84 #
plane-surface $-1 0 0 10.764685160213652 0 0 1 1 0 0 forward_v I I I I #
coedge $-1 $223 $224 $225 $226 reversed $85 $-1 #
coedge $-1 $227 $87 $228 $229 reversed $54 $-1 #
coedge $-1 $87 $227 $230 $231 reversed $54 $-1 #
coedge $-1 $224 $223 $87 $141 reversed $85 $-1 #
edge $-1 $232 -10.764685160213652 $233 10.764685160213652 $140 $234 forward 7 unknown #
face $-1 $235 $236 $32 $-1 $237 reversed single #
loop $-1 $-1 $238 $88 #
plane-surface $-1 50.341694257332904 19.752174506107927 180.89568762543254 0 1 0 0.6560590369687036 0 0.75470957328743171 forward_v I I I I #
coedge $-1 $239 $240 $241 $242 reversed $89 $-1 #
coedge $-1 $147 $91 $243 $244 reversed $57 $-1 #
coedge $-1 $91 $146 $239 $245 reversed $57 $-1 #
coedge $-1 $241 $246 $91 $149 forward $247 $-1 #
edge $-1 $248 -37.544689844507772 $249 -29.695473968432836 $148 $250 forward 7 unknown #
loop $-1 $-1 $155 $92 #
plane-surface $-1 -31.948495321858701 27.065279312775552 86.231655330399619 0.6560590369687036 0 0.75470957328743171 0.75470957328743171 0 -0.6560590369687036 forward_v I I I I #
loop $-1 $-1 $251 $59 #
coedge $-1 $153 $153 $154 $252 reversed $93 $-1 #
coedge $-1 $154 $154 $153 $252 forward $95 $-1 #
coedge $-1 $155 $155 $96 $156 forward $150 $-1 #
edge $-1 $253 0 $253 6.2831853071796004 $155 $254 forward 7 unknown #
loop $-1 $-1 $162 $97 #
plane-surface $-1 -31.948495321858701 27.065279312775552 86.231655330399619 0.6560590369687036 0 0.75470957328743171 0.75470957328743171 0 -0.6560590369687036 forward_v I I I I #
loop $-1 $-1 $255 $62 #
coedge $-1 $160 $160 $161 $256 reversed $98 $-1 #
coedge $-1 $161 $161 $160 $256 forward $100 $-1 #
coedge $-1 $162 $162 $101 $163 forward $157 $-1 #
edge $-1 $257 0 $257 6.2831853071796004 $162 $258 forward 7 unknown #
loop $-1 $-1 $169 $102 #
plane-surface $-1 -31.948495321858701 27.065279312775552 86.231655330399619 0.6560590369687036 0 0.75470957328743171 0.75470957328743171 0 -0.6560590369687036 forward_v I I I I #
loop $-1 $-1 $259 $65 #
coedge $-1 $167 $167 $168 $260 reversed $103 $-1 #
coedge $-1 $168 $168 $167 $260 forward $105 $-1 #
coedge $-1 $169 $169 $106 $170 forward $164 $-1 #
edge $-1 $261 0 $261 6.2831853071796004 $169 $262 forward 7 unknown #
face $-1 $263 $264 $36 $-1 $265 reversed single #
loop $-1 $-1 $266 $107 #
plane-surface $-1 -166.70261105336186 33.700960181206931 73.89253131440239 0 -1 0 0.82903758062907751 0 -0.55919289150049634 forward_v I I I I #
coedge $-1 $267 $268 $269 $270 reversed $108 $-1 #
coedge $-1 $176 $110 $271 $272 reversed $69 $-1 #
coedge $-1 $110 $175 $267 $273 reversed $69 $-1 #
coedge $-1 $269 $274 $110 $178 forward $275 $-1 #
edge $-1 $276 20.635768553506708 $277 25.365637139293014 $177 $278 forward 7 unknown #
loop $-1 $-1 $184 $111 #
plane-surface $-1 -62.715536973174224 26.500314505183603 3.7523663903312325 -0.82903758062907751 0 0.55919289150049634 0.55919289150049634 0 0.82903758062907751 forward_v I I I I #
loop $-1 $-1 $279 $71 #
coedge $-1 $182 $182 $183 $280 reversed $112 $-1 #
coedge $-1 $183 $183 $182 $280 forward $114 $-1 #
coedge $-1 $184 $184 $115 $185 forward $179 $-1 #
edge $-1 $281 0 $281 6.2831853071796004 $184 $282 forward 7 unknown #
loop $-1 $-1 $191 $116 #
plane-surface $-1 -62.715536973174224 26.500314505183603 3.7523663903312325 -0.82903758062907751 0 0.55919289150049634 0.55919289150049634 0 0.82903758062907751 forward_v I I I I #
loop $-1 $-1 $283 $74 #
coedge $-1 $189 $189 $190 $284 reversed $117 $-1 #
coedge $-1 $190 $190 $189 $284 forward $119 $-1 #
coedge $-1 $191 $191 $120 $192 forward $186 $-1 #
edge $-1 $285 0 $285 6.2831853071796004 $191 $286 forward 7 unknown #
loop $-1 $-1 $198 $121 #
plane-surface $-1 -62.715536973174224 26.500314505183603 3.7523663903312325 -0.82903758062907751 0 0.55919289150049634 0.55919289150049634 0 0.82903758062907751 forward_v I I I I #
loop $-1 $-1 $287 $77 #
coedge $-1 $196 $196 $197 $288 reversed $122 $-1 #
coedge $-1 $197 $197 $196 $288 forward $124 $-1 #
coedge $-1 $198 $198 $125 $199 forward $193 $-1 #
edge $-1 $289 0 $289 6.2831853071796004 $198 $290 forward 7 unknown #
face $-1 $291 $292 $30 $-1 $293 reversed single #
loop $-1 $-1 $294 $126 #
plane-surface $-1 -62.715536973174224 0 0 1 0 0 0 0 -1 forward_v I I I I #
coedge $-1 $295 $211 $296 $297 forward $127 $-1 #
coedge $-1 $298 $129 $295 $299 forward $81 $-1 #
coedge $-1 $129 $298 $300 $301 forward $81 $-1 #
coedge $-1 $214 $213 $129 $207 reversed $215 $-1 #
edge $-1 $302 -43.160163798681033 $303 43.160163798681033 $206 $304 forward 7 unknown #
coedge $-1 $131 $130 $305 $306 forward $51 $-1 #
coedge $-1 $307 $308 $130 $210 reversed $292 $-1 #
edge $-1 $217 -62.715536973174224 $309 62.715536973174224 $209 $310 forward 7 unknown #
coedge $-1 $203 $311 $131 $212 reversed $127 $-1 #
edge $-1 $312 -62.715536973174224 $216 62.715536973174224 $211 $313 forward 7 unknown #
coedge $-1 $206 $132 $311 $314 forward $215 $-1 #
coedge $-1 $132 $206 $307 $315 reversed $215 $-1 #
loop $-1 $-1 $213 $291 #
vertex $-1 $133 $316 #
vertex $-1 $133 $317 #
straight-curve $-1 62.715536973174224 0 10.764685160213652 0 1 0 I I #
face $-1 $318 $319 $31 $-1 $320 reversed single #
loop $-1 $-1 $321 $134 #
plane-surface $-1 -62.715536973174224 0 0 1 0 0 0 0 -1 forward_v I I I I #
coedge $-1 $230 $322 $224 $323 forward $135 $-1 #
coedge $-1 $140 $137 $324 $325 reversed $85 $-1 #
coedge $-1 $137 $140 $222 $323 reversed $85 $-1 #
coedge $-1 $326 $327 $137 $226 forward $328 $-1 #
edge $-1 $329 -10.764685160213652 $330 10.764685160213652 $225 $331 forward 7 unknown #
coedge $-1 $139 $138 $321 $332 reversed $54 $-1 #
coedge $-1 $324 $333 $138 $229 forward $319 $-1 #
edge $-1 $334 -32.548184908972203 $233 -27.786519219431849 $228 $335 forward 7 unknown #
coedge $-1 $336 $222 $139 $231 forward $135 $-1 #
edge $-1 $232 27.786519219431849 $337 32.548184908972203 $230 $338 forward 7 unknown #
vertex $-1 $231 $339 #
vertex $-1 $229 $340 #
straight-curve $-1 -57.953871283633873 -30.538802877748871 0 0 0 -1 I I #
face $-1 $-1 $247 $32 $-1 $341 forward single #
loop $-1 $-1 $342 $142 #
plane-surface $-1 62.715536973174224 0 0 -1 0 0 0 0 1 forward_v I I I I #
coedge $-1 $343 $344 $345 $346 reversed $143 $-1 #
coedge $-1 $347 $145 $147 $245 forward $89 $-1 #
coedge $-1 $145 $347 $343 $348 forward $89 $-1 #
coedge $-1 $345 $148 $145 $242 forward $247 $-1 #
edge $-1 $249 -20.8457444630554 $349 -6.2195348497201515 $241 $350 forward 7 unknown #
coedge $-1 $351 $352 $146 $244 forward $236 $-1 #
edge $-1 $353 -86.506378061508258 $248 -79.683158652502613 $243 $354 forward 7 unknown #
edge $-1 $249 115.03076082737658 $353 125.43107394634845 $147 $355 forward 7 unknown #
coedge $-1 $148 $345 $351 $356 forward $247 $-1 #
loop $-1 $-1 $345 $235 #
vertex $-1 $244 $357 #
vertex $-1 $149 $358 #
straight-curve $-1 25.170847128666452 34.378384119443176 10.764685160213645 -1 0 0 I I #
coedge $-1 $251 $251 $-1 $359 reversed $152 $-1 #
edge $-1 $360 0 $360 6.2831853071796004 $153 $361 forward 7 unknown #
vertex $-1 $156 $362 #
ellipse-curve $-1 58.790929035136777 22.677416428774983 7.353075455710826 0.6560590369687036 0 0.75470957328743171 0.75470957328743171 0 -0.6560590369687036 1 I I #
coedge $-1 $255 $255 $-1 $363 reversed $159 $-1 #
edge $-1 $364 0 $364 6.2831853071796004 $160 $365 forward 7 unknown #
vertex $-1 $163 $366 #
ellipse-curve $-1 58.790929035136777 27.065279312775552 7.353075455710826 0.6560590369687036 0 0.75470957328743171 0.75470957328743171 0 -0.6560590369687036 1 I I #
coedge $-1 $259 $259 $-1 $367 reversed $166 $-1 #
edge $-1 $368 0 $368 6.2831853071796004 $167 $369 forward 7 unknown #
vertex $-1 $170 $370 #
ellipse-curve $-1 58.790929035136777 31.45314219677612 7.353075455710826 0.6560590369687036 0 0.75470957328743171 0.75470957328743171 0 -0.6560590369687036 1 I I #
face $-1 $-1 $275 $36 $-1 $371 forward single #
loop $-1 $-1 $372 $171 #
plane-surface $-1 -62.715536973174224 0 0 1 0 0 0 0 -1 forward_v I I I I #
coedge $-1 $373 $374 $375 $376 reversed $172 $-1 #
coedge $-1 $377 $174 $176 $273 forward $108 $-1 #
coedge $-1 $174 $377 $373 $378 forward $108 $-1 #
coedge $-1 $375 $177 $174 $270 forward $275 $-1 #
edge $-1 $277 6.0495115765684737 $379 20.450802928615129 $269 $380 forward 7 unknown #
coedge $-1 $381 $382 $175 $272 forward $264 $-1 #
edge $-1 $383 -33.193899266869963 $276 -26.181580496987543 $271 $384 forward 7 unknown #
edge $-1 $277 -8.4583846784863983 $383 0 $176 $385 forward 7 unknown #
coedge $-1 $177 $375 $381 $386 forward $275 $-1 #
loop $-1 $-1 $375 $263 #
vertex $-1 $272 $387 #
vertex $-1 $178 $388 #
straight-curve $-1 -83.351305526680932 19.299668829160275 10.764685160213652 1 0 0 I I #
coedge $-1 $279 $279 $-1 $389 reversed $181 $-1 #
edge $-1 $390 0 $390 6.2831853071796004 $182 $391 forward 7 unknown #
vertex $-1 $185 $392 #
ellipse-curve $-1 -60.350602680281071 22.179927099569603 7.2585257752724397 -0.82903758062907751 0 0.55919289150049634 0.27959644575024817 0 0.41451879031453875 1 I I #
coedge $-1 $283 $283 $-1 $393 reversed $188 $-1 #
edge $-1 $394 0 $394 6.2831853071796004 $189 $395 forward 7 unknown #
vertex $-1 $192 $396 #
ellipse-curve $-1 -60.350602680281071 26.500314505183603 7.2585257752724397 -0.82903758062907751 0 0.55919289150049634 0.27959644575024817 0 0.41451879031453875 1 I I #
coedge $-1 $287 $287 $-1 $397 reversed $195 $-1 #
edge $-1 $398 0 $398 6.2831853071796004 $196 $399 forward 7 unknown #
vertex $-1 $199 $400 #
ellipse-curve $-1 -60.350602680281071 30.820701910797602 7.2585257752724397 -0.82903758062907751 0 0.55919289150049634 0.27959644575024817 0 0.41451879031453875 1 I I #
face $-1 $-1 $215 $30 $-1 $401 reversed single #
loop $-1 $-1 $307 $200 #
plane-surface $-1 0 43.160163798681033 0 0 -1 0 0 0 -1 forward_v I I I I #
coedge $-1 $402 $305 $308 $403 forward $201 $-1 #
coedge $-1 $311 $203 $204 $299 reversed $127 $-1 #
coedge $-1 $305 $402 $203 $297 reversed $201 $-1 #
edge $-1 $312 -10.764685160213652 $404 10.764685160213652 $296 $405 forward 7 unknown #
coedge $-1 $205 $204 $402 $406 forward $81 $-1 #
edge $-1 $303 -62.715536973174224 $404 62.715536973174224 $295 $407 forward 7 unknown #
coedge $-1 $308 $307 $205 $301 reversed $292 $-1 #
edge $-1 $408 -62.715536973174224 $302 62.715536973174224 $300 $409 forward 7 unknown #
vertex $-1 $207 $410 #
vertex $-1 $314 $411 #
straight-curve $-1 62.715536973174224 0 -10.764685160213652 0 -1 0 I I #
coedge $-1 $294 $296 $208 $306 reversed $201 $-1 #
edge $-1 $309 -43.160163798681033 $312 43.160163798681033 $305 $412 forward 7 unknown #
coedge $-1 $300 $209 $214 $315 forward $292 $-1 #
coedge $-1 $209 $300 $294 $403 reversed $292 $-1 #
vertex $-1 $210 $413 #
straight-curve $-1 0 43.160163798681033 10.764685160213652 -1 0 0 I I #
coedge $-1 $211 $295 $213 $314 reversed $127 $-1 #
vertex $-1 $306 $414 #
straight-curve $-1 0 -43.160163798681033 10.764685160213652 1 0 0 I I #
edge $-1 $216 -10.764685160213652 $303 10.764685160213652 $213 $415 forward 7 unknown #
edge $-1 $217 -10.764685160213652 $302 10.764685160213652 $214 $416 forward 7 unknown #
point $-1 62.715536973174224 -43.160163798681033 10.764685160213652 #
point $-1 62.715536973174224 43.160163798681033 10.764685160213652 #
face $-1 $-1 $328 $31 $-1 $417 reversed single #
loop $-1 $-1 $324 $219 #
plane-surface $-1 0 0 -10.764685160213652 0 0 1 1 0 0 forward_v I I I I #
coedge $-1 $418 $419 $227 $332 forward $220 $-1 #
coedge $-1 $222 $336 $326 $420 forward $135 $-1 #
edge $-1 $330 -24.735422129573557 $232 -12.114061208641395 $222 $421 forward 7 unknown #
coedge $-1 $422 $228 $223 $325 forward $319 $-1 #
edge $-1 $233 12.114061208641395 $329 24.735422129573557 $324 $423 forward 7 unknown #
coedge $-1 $424 $225 $322 $420 reversed $328 $-1 #
coedge $-1 $225 $424 $422 $425 reversed $328 $-1 #
loop $-1 $-1 $225 $318 #
vertex $-1 $425 $426 #
vertex $-1 $226 $427 #
straight-curve $-1 -57.953871283633873 -43.160163798681033 0 0 0 1 I I #
edge $-1 $337 -10.764685160213652 $334 10.764685160213652 $321 $428 forward 7 unknown #
coedge $-1 $228 $422 $418 $429 forward $319 $-1 #
vertex $-1 $229 $430 #
straight-curve $-1 -30.167352064202024 -30.538802877748871 -10.764685160213652 1 0 0 I I #
coedge $-1 $322 $230 $419 $431 forward $135 $-1 #
vertex $-1 $431 $432 #
straight-curve $-1 -30.167352064202024 -30.538802877748871 10.764685160213652 -1 0 0 I I #
point $-1 -57.953871283633873 -30.538802877748871 10.764685160213652 #
point $-1 -57.953871283633873 -30.538802877748871 -10.764685160213652 #
plane-surface $-1 0 0 10.764685160213652 0 0 1 1 0 0 forward_v I I I I #
coedge $-1 $352 $351 $344 $433 forward $236 $-1 #
coedge $-1 $344 $238 $240 $348 reversed $143 $-1 #
coedge $-1 $238 $343 $342 $433 reversed $143 $-1 #
coedge $-1 $246 $241 $238 $346 forward $247 $-1 #
edge $-1 $349 29.695473968432836 $434 37.544689844507772 $345 $435 forward 7 unknown #
coedge $-1 $240 $239 $352 $436 reversed $89 $-1 #
edge $-1 $437 -125.43107394634845 $349 -115.03076082737658 $343 $438 forward 7 unknown #
vertex $-1 $242 $439 #
straight-curve $-1 54.866321097099288 13.532639656387776 10.764685160213659 0 -1 0 I I #
coedge $-1 $342 $243 $246 $356 reversed $236 $-1 #
coedge $-1 $243 $342 $347 $436 forward $236 $-1 #
vertex $-1 $244 $440 #
straight-curve $-1 62.715536973174224 34.378384119443176 90.447843812716272 0 0 1 I I #
straight-curve $-1 -31.948495321858701 34.378384119443176 86.231655330399619 0.75470957328743171 0 -0.6560590369687036 I I #
edge $-1 $434 19.752174506107927 $248 34.378384119443176 $351 $441 forward 7 unknown #
point $-1 62.715536973174224 34.378384119443176 10.764685160213652 #
point $-1 54.866321097099288 34.378384119443176 10.764685160213659 #
edge $-1 $442 1 $442 0 $251 $-1 forward 7 unknown #
vertex $-1 $252 $443 #
ellipse-curve $-1 56.748550600001842 22.677416428774983 5.003587878504165 0.6560590369687036 0 0.75470957328743171 0.75470957328743171 0 -0.6560590369687036 1 I I #
point $-1 59.545638608424213 22.677416428774983 6.6970164187421339 #
edge $-1 $444 1 $444 0 $255 $-1 forward 7 unknown #
vertex $-1 $256 $445 #
ellipse-curve $-1 56.748550600001842 27.065279312775552 5.003587878504165 0.6560590369687036 0 0.75470957328743171 0.75470957328743171 0 -0.6560590369687036 1 I I #
point $-1 59.545638608424213 27.065279312775552 6.6970164187421339 #
edge $-1 $446 1 $446 0 $259 $-1 forward 7 unknown #
vertex $-1 $260 $447 #
ellipse-curve $-1 56.748550600001842 31.45314219677612 5.003587878504165 0.6560590369687036 0 0.75470957328743171 0.75470957328743171 0 -0.6560590369687036 1 I I #
point $-1 59.545638608424213 31.45314219677612 6.6970164187421339 #
plane-surface $-1 0 0 10.764685160213652 0 0 1 1 0 0 forward_v I I I I #
coedge $-1 $382 $381 $374 $448 forward $264 $-1 #
coedge $-1 $374 $266 $268 $378 reversed $172 $-1 #
coedge $-1 $266 $373 $372 $448 reversed $172 $-1 #
coedge $-1 $274 $269 $266 $376 forward $275 $-1 #
edge $-1 $379 -25.365637139293014 $449 -20.635768553506708 $375 $450 forward 7 unknown #
coedge $-1 $268 $267 $382 $451 reversed $108 $-1 #
edge $-1 $452 0 $379 8.4583846784863983 $373 $453 forward 7 unknown #
vertex $-1 $270 $454 #
straight-curve $-1 -57.985668387387918 13.250157252591801 10.76468516021365 0 1 0 I I #
coedge $-1 $372 $271 $274 $386 reversed $264 $-1 #
coedge $-1 $271 $372 $377 $451 forward $264 $-1 #
vertex $-1 $272 $455 #
straight-curve $-1 -62.715536973174224 19.299668829160275 36.946265657201195 0 0 1 I I #
straight-curve $-1 -62.715536973174224 19.299668829160275 3.7523663903312325 -0.55919289150049634 0 -0.82903758062907751 I I #
edge $-1 $449 -33.700960181206931 $276 -19.299668829160275 $381 $456 forward 7 unknown #
point $-1 -62.715536973174224 19.299668829160275 10.764685160213652 #
point $-1 -57.985668387387918 19.299668829160275 10.764685160213652 #
edge $-1 $457 1 $457 0 $279 $-1 forward 7 unknown #
vertex $-1 $280 $458 #
ellipse-curve $-1 -58.851923763963349 22.179927099569603 6.2476541136879034 -0.82903758062907751 0 0.55919289150049634 0.27959644575024817 0 0.41451879031453875 1 I I #
point $-1 -60.07100623453082 22.179927099569603 7.6730445655869746 #
edge $-1 $459 1 $459 0 $283 $-1 forward 7 unknown #
vertex $-1 $284 $460 #
ellipse-curve $-1 -58.851923763963349 26.500314505183603 6.2476541136879034 -0.82903758062907751 0 0.55919289150049634 0.27959644575024817 0 0.41451879031453875 1 I I #
point $-1 -60.07100623453082 26.500314505183603 7.6730445655869746 #
edge $-1 $461 1 $461 0 $287 $-1 forward 7 unknown #
vertex $-1 $288 $462 #
ellipse-curve $-1 -58.851923763963349 30.820701910797602 6.2476541136879034 -0.82903758062907751 0 0.55919289150049634 0.27959644575024817 0 0.41451879031453875 1 I I #
point $-1 -60.07100623453082 30.820701910797602 7.6730445655869746 #
plane-surface $-1 62.715536973174224 0 0 -1 0 0 0 0 1 forward_v I I I I #
coedge $-1 $296 $294 $298 $406 reversed $201 $-1 #
edge $-1 $309 -10.764685160213652 $408 10.764685160213652 $308 $463 forward 7 unknown #
vertex $-1 $406 $464 #
straight-curve $-1 -62.715536973174224 -43.160163798681033 0 0 0 -1 I I #
edge $-1 $404 -43.160163798681033 $408 43.160163798681033 $402 $465 forward 7 unknown #
straight-curve $-1 0 -43.160163798681033 -10.764685160213652 -1 0 0 I I #
vertex $-1 $301 $466 #
straight-curve $-1 0 43.160163798681033 -10.764685160213652 1 0 0 I I #
point $-1 62.715536973174224 43.160163798681033 -10.764685160213652 #
point $-1 62.715536973174224 -43.160163798681033 -10.764685160213652 #
straight-curve $-1 -62.715536973174224 0 10.764685160213652 0 -1 0 I I #
point $-1 -62.715536973174224 43.160163798681033 10.764685160213652 #
point $-1 -62.715536973174224 -43.160163798681033 10.764685160213652 #
straight-curve $-1 62.715536973174224 -43.160163798681033 0 0 0 -1 I I #
straight-curve $-1 62.715536973174224 43.160163798681033 0 0 0 -1 I I #
plane-surface $-1 0 -43.160163798681033 0 0 1 0 0 0 1 forward_v I I I I #
coedge $-1 $467 $321 $333 $429 reversed $220 $-1 #
coedge $-1 $321 $467 $336 $431 reversed $220 $-1 #
edge $-1 $468 -62.715536973174224 $330 -57.953871283633873 $326 $469 forward 7 unknown #
straight-curve $-1 -57.953871283633873 -18.424741669107476 10.764685160213652 0 1 0 I I #
coedge $-1 $333 $324 $327 $425 forward $319 $-1 #
straight-curve $-1 -57.953871283633873 -18.424741669107476 -10.764685160213652 0 -1 0 I I #
coedge $-1 $327 $326 $467 $470 forward $328 $-1 #
edge $-1 $329 57.953871283633873 $471 62.715536973174224 $327 $472 forward 7 unknown #
point $-1 -57.953871283633873 -43.160163798681033 -10.764685160213652 #
point $-1 -57.953871283633873 -43.160163798681033 10.764685160213652 #
straight-curve $-1 -62.715536973174224 -30.538802877748871 0 0 0 -1 I I #
edge $-1 $471 -43.160163798681033 $334 -30.538802877748871 $418 $473 forward 7 unknown #
point $-1 -62.715536973174224 -30.538802877748871 -10.764685160213652 #
edge $-1 $337 30.538802877748871 $468 43.160163798681033 $419 $474 forward 7 unknown #
point $-1 -62.715536973174224 -30.538802877748871 10.764685160213652 #
edge $-1 $434 79.683158652502613 $437 86.506378061508258 $342 $475 forward 7 unknown #
vertex $-1 $356 $476 #
straight-curve $-1 25.170847128666452 19.752174506107927 10.764685160213645 1 0 0 I I #
edge $-1 $437 6.2195348497201515 $353 20.8457444630554 $352 $477 forward 7 unknown #
vertex $-1 $436 $478 #
straight-curve $-1 -31.948495321858701 19.752174506107927 86.231655330399619 -0.75470957328743171 0 0.6560590369687036 I I #
point $-1 54.866321097099288 19.752174506107927 10.764685160213659 #
point $-1 62.715536973174224 34.378384119443176 3.941465751208014 #
straight-curve $-1 62.715536973174224 0 10.764685160213652 0 1 0 I I #
vertex $-1 $359 $479 #
point $-1 57.503260173289277 22.677416428774983 4.3475288415354614 #
vertex $-1 $363 $480 #
point $-1 57.503260173289277 27.065279312775552 4.3475288415354614 #
vertex $-1 $367 $481 #
point $-1 57.503260173289277 31.45314219677612 4.3475288415354614 #
edge $-1 $449 26.181580496987543 $452 33.193899266869963 $372 $482 forward 7 unknown #
vertex $-1 $386 $483 #
straight-curve $-1 -83.351305526680932 33.700960181206931 10.764685160213652 -1 0 0 I I #
edge $-1 $452 -20.450802928615129 $383 -6.0495115765684737 $382 $484 forward 7 unknown #
vertex $-1 $451 $485 #
straight-curve $-1 -62.715536973174224 33.700960181206931 3.7523663903312325 0.55919289150049634 0 0.82903758062907751 I I #
point $-1 -57.985668387387918 33.700960181206931 10.764685160213652 #
point $-1 -62.715536973174224 19.299668829160275 3.7523663903312325 #
straight-curve $-1 -62.715536973174224 0 10.764685160213652 0 -1 0 I I #
vertex $-1 $389 $486 #
point $-1 -58.572327318213098 22.179927099569603 6.6621729040024418 #
vertex $-1 $393 $487 #
point $-1 -58.572327318213098 26.500314505183603 6.6621729040024418 #
vertex $-1 $397 $488 #
point $-1 -58.572327318213098 30.820701910797602 6.6621729040024418 #
straight-curve $-1 -62.715536973174224 43.160163798681033 0 0 0 -1 I I #
point $-1 -62.715536973174224 -43.160163798681033 -10.764685160213652 #
straight-curve $-1 -62.715536973174224 0 -10.764685160213652 0 1 0 I I #
point $-1 -62.715536973174224 43.160163798681033 -10.764685160213652 #
coedge $-1 $419 $418 $424 $470 reversed $220 $-1 #
vertex $-1 $431 $489 #
straight-curve $-1 0 -43.160163798681033 10.764685160213652 1 0 0 I I #
edge $-1 $468 -10.764685160213652 $471 10.764685160213652 $467 $490 forward 7 unknown #
vertex $-1 $429 $491 #
straight-curve $-1 0 -43.160163798681033 -10.764685160213652 -1 0 0 I I #
straight-curve $-1 -62.715536973174224 0 -10.764685160213652 0 1 0 I I #
straight-curve $-1 -62.715536973174224 0 10.764685160213652 0 -1 0 I I #
straight-curve $-1 62.715536973174224 19.752174506107927 90.447843812716272 0 0 -1 I I #
point $-1 62.715536973174224 19.752174506107927 10.764685160213652 #
straight-curve $-1 62.715536973174224 13.532639656387776 3.941465751208014 0 1 0 I I #
point $-1 62.715536973174224 19.752174506107927 3.941465751208014 #
point $-1 56.092491563033143 22.677416428774983 4.2488783052167332 #
point $-1 56.092491563033143 27.065279312775552 4.2488783052167332 #
point $-1 56.092491563033143 31.45314219677612 4.2488783052167332 #
straight-curve $-1 -62.715536973174224 33.700960181206931 36.946265657201195 0 0 -1 I I #
point $-1 -62.715536973174224 33.700960181206931 10.764685160213652 #
straight-curve $-1 -62.715536973174224 13.250157252591801 3.7523663903312352 0 -1 0 I I #
point $-1 -62.715536973174224 33.700960181206931 3.7523663903312325 #
point $-1 -58.437404973648803 22.179927099569603 5.9680576679376545 #
point $-1 -58.437404973648803 26.500314505183603 5.9680576679376545 #
point $-1 -58.437404973648803 30.820701910797602 5.9680576679376545 #
point $-1 -62.715536973174224 -43.160163798681033 10.764685160213652 #
straight-curve $-1 -62.715536973174224 -43.160163798681033 0 0 0 -1 I I #
point $-1 -62.715536973174224 -43.160163798681033 -10.764685160213652 #
End-of-ACIS-data 