500 0 12 0           
7 Unknown 11 ACIS 5.0 NT 24 Fri Mar 26 17:43:00 1999 
-1 9.9999999999999995e-007 1e-010 
body $-1 $12 $-1 $13 #
body $-1 $14 $-1 $15 #
body $-1 $16 $-1 $17 #
body $-1 $18 $-1 $19 #
body $-1 $20 $-1 $21 #
body $-1 $22 $-1 $23 #
body $-1 $24 $-1 $25 #
body $-1 $26 $-1 $27 #
body $-1 $28 $-1 $29 #
body $-1 $30 $-1 $31 #
body $-1 $32 $-1 $33 #
body $-1 $34 $-1 $35 #
lump $-1 $-1 $36 $0 #
transform $-1 1 0 0 0 1 0 0 0 1 48.475600451673941 23.049987499537675 6.2934267148232621 1 rotate no_reflect no_shear #
lump $-1 $-1 $37 $1 #
transform $-1 1 0 0 0 1 0 0 0 1 48.475600451673941 23.049987499537675 6.2934267148232621 1 rotate no_reflect no_shear #
lump $-1 $-1 $38 $2 #
transform $-1 1 0 0 0 1 0 0 0 1 48.475600451673941 23.049987499537675 6.2934267148232621 1 rotate no_reflect no_shear #
lump $-1 $-1 $39 $3 #
transform $-1 1 0 0 0 1 0 0 0 1 48.475600451673941 23.049987499537675 6.2934267148232621 1 rotate no_reflect no_shear #
lump $-1 $-1 $40 $4 #
transform $-1 1 0 0 0 1 0 0 0 1 48.475600451673941 23.049987499537675 6.2934267148232621 1 rotate no_reflect no_shear #
lump $-1 $-1 $41 $5 #
transform $-1 1 0 0 0 1 0 0 0 1 48.475600451673941 23.049987499537675 6.2934267148232621 1 rotate no_reflect no_shear #
lump $-1 $-1 $42 $6 #
transform $-1 1 0 0 0 1 0 0 0 1 48.475600451673941 23.049987499537675 6.2934267148232621 1 rotate no_reflect no_shear #
lump $-1 $-1 $43 $7 #
transform $-1 1 0 0 0 1 0 0 0 1 48.475600451673941 23.049987499537675 6.2934267148232621 1 rotate no_reflect no_shear #
lump $-1 $-1 $44 $8 #
transform $-1 1 0 0 0 1 0 0 0 1 48.475600451673941 23.049987499537675 6.2934267148232621 1 rotate no_reflect no_shear #
lump $-1 $-1 $45 $9 #
transform $-1 1 0 0 0 1 0 0 0 1 48.475600451673941 23.049987499537675 6.2934267148232621 1 rotate no_reflect no_shear #
lump $-1 $-1 $46 $10 #
transform $-1 1 0 0 0 1 0 0 0 1 48.475600451673941 23.049987499537675 6.2934267148232621 1 rotate no_reflect no_shear #
lump $-1 $-1 $47 $11 #
transform $-1 1 0 0 0 1 0 0 0 1 48.475600451673941 23.049987499537675 6.2934267148232621 1 rotate no_reflect no_shear #
shell $-1 $-1 $-1 $48 $-1 $12 #
shell $-1 $-1 $-1 $49 $-1 $14 #
shell $-1 $-1 $-1 $50 $-1 $16 #
shell $-1 $-1 $-1 $51 $-1 $18 #
shell $-1 $-1 $-1 $52 $-1 $20 #
shell $-1 $-1 $-1 $53 $-1 $22 #
shell $-1 $-1 $-1 $54 $-1 $24 #
shell $-1 $-1 $-1 $55 $-1 $26 #
shell $-1 $-1 $-1 $56 $-1 $28 #
shell $-1 $-1 $-1 $57 $-1 $30 #
shell $-1 $-1 $-1 $58 $-1 $32 #
shell $-1 $-1 $-1 $59 $-1 $34 #
face $-1 $60 $61 $36 $-1 $62 forward single #
face $-1 $63 $64 $37 $-1 $65 forward single #
face $-1 $66 $67 $38 $-1 $68 reversed single #
face $-1 $69 $70 $39 $-1 $71 forward single #
face $-1 $72 $73 $40 $-1 $74 forward single #
face $-1 $75 $76 $41 $-1 $77 reversed single #
face $-1 $78 $79 $42 $-1 $80 forward single #
face $-1 $81 $82 $43 $-1 $83 forward single #
face $-1 $84 $85 $44 $-1 $86 reversed single #
face $-1 $87 $88 $45 $-1 $89 forward single #
face $-1 $90 $91 $46 $-1 $92 forward single #
face $-1 $93 $94 $47 $-1 $95 forward single #
face $-1 $96 $97 $36 $-1 $98 reversed single #
loop $-1 $-1 $99 $48 #
plane-surface $-1 0 0 6.2934267148232621 0 0 1 1 0 0 forward_v I I I I #
face $-1 $100 $101 $37 $-1 $102 reversed single #
loop $-1 $-1 $103 $49 #
plane-surface $-1 0 -20.448038628600905 -1.8874415100432425 0 0 1 1 0 0 forward_v I I I I #
face $-1 $104 $105 $38 $-1 $106 reversed single #
loop $-1 $-1 $107 $50 #
plane-surface $-1 48.475602042496348 -4.804725489170858 138.4144296741224 0 1 0 0.70710678939079041 0 0.70710677298230451 forward_v I I I I #
face $-1 $108 $109 $39 $-1 $110 forward single #
loop $-1 $111 $112 $51 #
cone-surface $-1 45.337631501610787 -2.6885328148543941 3.155457721813721 -0.70710678939079041 0 -0.70710677298230451 0.70710677298230451 0 -0.70710678939079041 1 I I 0 1 1 forward I I I I #
face $-1 $113 $114 $40 $-1 $115 forward single #
loop $-1 $116 $117 $52 #
cone-surface $-1 45.337631501610787 0.48575619662030434 3.155457721813721 -0.70710678939079041 0 -0.70710677298230451 0.70710677298230451 0 -0.70710678939079041 1 I I 0 1 1 forward I I I I #
face $-1 $118 $119 $41 $-1 $120 reversed single #
loop $-1 $-1 $121 $53 #
plane-surface $-1 48.475602042496348 15.643313139430047 138.4144296741224 0 1 0 0.70710678939079041 0 0.70710677298230451 forward_v I I I I #
face $-1 $122 $123 $42 $-1 $124 forward single #
loop $-1 $125 $126 $54 #
cone-surface $-1 45.337631501610787 17.759505813746511 3.155457721813721 -0.70710678939079041 0 -0.70710677298230451 0.70710677298230451 0 -0.70710678939079041 1 I I 0 1 1 forward I I I I #
face $-1 $127 $128 $43 $-1 $129 forward single #
loop $-1 $130 $131 $55 #
cone-surface $-1 45.337631501610787 20.933794825221209 3.155457721813721 -0.70710678939079041 0 -0.70710677298230451 0.70710677298230451 0 -0.70710678939079041 1 I I 0 1 1 forward I I I I #
face $-1 $132 $133 $44 $-1 $134 reversed single #
loop $-1 $-1 $135 $56 #
plane-surface $-1 -130.69488256613914 10.035161622147545 51.600546688084918 0 1 0 -0.84804810408105047 0 0.52991925155115449 forward_v I I I I #
face $-1 $136 $137 $45 $-1 $138 forward single #
loop $-1 $139 $140 $57 #
cone-surface $-1 -46.155351724627195 11.947313097554581 2.9938731658346467 0.84804810408105047 0 -0.52991925155115449 0.26495962577557725 0 0.42402405204052523 1 I I 0 1 0.5 forward I I I I #
face $-1 $141 $142 $46 $-1 $143 forward single #
loop $-1 $144 $145 $58 #
cone-surface $-1 -46.155351724627195 14.815540310665138 2.9938731658346467 0.84804810408105047 0 -0.52991925155115449 0.26495962577557725 0 0.42402405204052523 1 I I 0 1 0.5 forward I I I I #
face $-1 $146 $147 $47 $-1 $148 forward single #
loop $-1 $149 $150 $59 #
cone-surface $-1 -46.155351724627195 17.683767523775696 2.9938731658346467 0.84804810408105047 0 -0.52991925155115449 0.26495962577557725 0 0.42402405204052523 1 I I 0 1 0.5 forward I I I I #
face $-1 $151 $152 $36 $-1 $153 reversed single #
loop $-1 $-1 $154 $60 #
plane-surface $-1 0 0 -6.2934267148232621 0 0 1 1 0 0 forward_v I I I I #
coedge $-1 $155 $156 $157 $158 forward $61 $-1 #
face $-1 $159 $160 $37 $-1 $161 reversed single #
loop $-1 $-1 $162 $63 #
plane-surface $-1 0 -20.448038628600905 -5.0161582829894371 0 0 1 1 0 0 forward_v I I I I #
coedge $-1 $163 $164 $165 $166 reversed $64 $-1 #
face $-1 $167 $168 $38 $-1 $169 reversed single #
loop $-1 $-1 $170 $66 #
plane-surface $-1 -20.079250355851471 -1.1013883091170449 69.859578866596991 0.70710678939079041 0 0.70710677298230451 0.70710677298230451 0 -0.70710678939079041 forward_v I I I I #
coedge $-1 $171 $172 $173 $174 reversed $67 $-1 #
face $-1 $-1 $175 $39 $-1 $176 forward single #
loop $-1 $177 $178 $69 #
cone-surface $-1 44.34045922225765 -2.6885328148543941 2.1582854656000663 -0.70710678939079041 0 -0.70710677298230451 0.35355338649115226 0 -0.35355339469539521 1 I I -0.70710678118654746 0.70710678118654746 0.5 forward I I I I #
loop $-1 $-1 $179 $51 #
coedge $-1 $112 $112 $180 $181 reversed $70 $-1 #
face $-1 $-1 $182 $40 $-1 $183 forward single #
loop $-1 $184 $185 $72 #
cone-surface $-1 44.34045922225765 0.48575619662030434 2.1582854656000663 -0.70710678939079041 0 -0.70710677298230451 0.35355338649115226 0 -0.35355339469539521 1 I I -0.70710678118654746 0.70710678118654746 0.5 forward I I I I #
loop $-1 $-1 $186 $52 #
coedge $-1 $117 $117 $187 $188 reversed $73 $-1 #
face $-1 $189 $190 $41 $-1 $191 reversed single #
loop $-1 $-1 $192 $75 #
plane-surface $-1 -20.079250355851471 19.34665031948386 69.859578866596991 0.70710678939079041 0 0.70710677298230451 0.70710677298230451 0 -0.70710678939079041 forward_v I I I I #
coedge $-1 $193 $194 $195 $196 reversed $76 $-1 #
face $-1 $-1 $197 $42 $-1 $198 forward single #
loop $-1 $199 $200 $78 #
cone-surface $-1 44.34045922225765 17.759505813746511 2.1582854656000663 -0.70710678939079041 0 -0.70710677298230451 0.35355338649115226 0 -0.35355339469539521 1 I I -0.70710678118654746 0.70710678118654746 0.5 forward I I I I #
loop $-1 $-1 $201 $54 #
coedge $-1 $126 $126 $202 $203 reversed $79 $-1 #
face $-1 $-1 $204 $43 $-1 $205 forward single #
loop $-1 $206 $207 $81 #
cone-surface $-1 44.34045922225765 20.933794825221209 2.1582854656000663 -0.70710678939079041 0 -0.70710677298230451 0.35355338649115226 0 -0.35355339469539521 1 I I -0.70710678118654746 0.70710678118654746 0.5 forward I I I I #
loop $-1 $-1 $208 $55 #
coedge $-1 $131 $131 $209 $210 reversed $82 $-1 #
face $-1 $211 $212 $44 $-1 $213 reversed single #
loop $-1 $-1 $214 $84 #
plane-surface $-1 -48.475600451673941 14.815540310665138 0.22423886839719387 -0.84804810408105047 0 0.52991925155115449 0.52991925155115449 0 0.84804810408105047 forward_v I I I I #
coedge $-1 $215 $216 $217 $218 reversed $85 $-1 #
face $-1 $-1 $219 $45 $-1 $220 forward single #
loop $-1 $221 $222 $87 #
cone-surface $-1 -45.519315646566405 11.947313097554581 2.5964337271712807 0.84804810408105047 0 -0.52991925155115449 0.13247981288778862 0 0.21201202602026262 1 I I -0.70710678118654746 0.70710678118654746 0.25 forward I I I I #
loop $-1 $-1 $223 $57 #
coedge $-1 $140 $140 $224 $225 reversed $88 $-1 #
face $-1 $-1 $226 $46 $-1 $227 forward single #
loop $-1 $228 $229 $90 #
cone-surface $-1 -45.519315646566405 14.815540310665138 2.5964337271712807 0.84804810408105047 0 -0.52991925155115449 0.13247981288778862 0 0.21201202602026262 1 I I -0.70710678118654746 0.70710678118654746 0.25 forward I I I I #
loop $-1 $-1 $230 $58 #
coedge $-1 $145 $145 $231 $232 reversed $91 $-1 #
face $-1 $-1 $233 $47 $-1 $234 forward single #
loop $-1 $235 $236 $93 #
cone-surface $-1 -45.519315646566405 17.683767523775696 2.5964337271712807 0.84804810408105047 0 -0.52991925155115449 0.13247981288778862 0 0.21201202602026262 1 I I -0.70710678118654746 0.70710678118654746 0.25 forward I I I I #
loop $-1 $-1 $237 $59 #
coedge $-1 $150 $150 $238 $239 reversed $94 $-1 #
face $-1 $240 $241 $36 $-1 $242 reversed single #
loop $-1 $-1 $243 $96 #
plane-surface $-1 0 -23.049987499537675 0 0 1 0 0 0 1 forward_v I I I I #
coedge $-1 $244 $245 $246 $247 forward $97 $-1 #
coedge $-1 $248 $99 $249 $250 forward $61 $-1 #
coedge $-1 $99 $248 $251 $252 forward $61 $-1 #
coedge $-1 $253 $254 $99 $158 reversed $255 $-1 #
edge $-1 $256 -23.049987499537675 $257 23.049987499537675 $157 $258 forward 7 unknown #
face $-1 $259 $260 $37 $-1 $261 reversed single #
loop $-1 $-1 $262 $100 #
plane-surface $-1 0 -17.846089757664135 -3.4517998965163397 0 -1 0 0 0 -1 forward_v I I I I #
coedge $-1 $263 $264 $265 $266 reversed $101 $-1 #
coedge $-1 $267 $103 $268 $269 forward $64 $-1 #
coedge $-1 $103 $267 $270 $271 reversed $64 $-1 #
coedge $-1 $272 $273 $103 $166 forward $274 $-1 #
edge $-1 $275 7.6220704433636826 $276 12.825968185237222 $165 $277 forward 7 unknown #
face $-1 $278 $279 $38 $-1 $280 forward single #
loop $-1 $-1 $281 $104 #
plane-surface $-1 48.475602042496348 2.6019488709367682 138.4144296741224 0 -1 0 -0.70710678939079041 0 -0.70710677298230451 forward_v I I I I #
coedge $-1 $282 $283 $284 $285 reversed $105 $-1 #
coedge $-1 $172 $107 $286 $287 reversed $67 $-1 #
coedge $-1 $107 $171 $282 $288 reversed $67 $-1 #
coedge $-1 $284 $289 $107 $174 forward $290 $-1 #
edge $-1 $291 62.913788122237939 $292 67.90248836881203 $173 $293 forward 7 unknown #
loop $-1 $-1 $180 $108 #
plane-surface $-1 -20.079250355851471 -1.1013883091170449 69.859578866596991 0.70710678939079041 0 0.70710677298230451 0.70710677298230451 0 -0.70710678939079041 forward_v I I I I #
loop $-1 $-1 $294 $69 #
coedge $-1 $178 $178 $179 $295 reversed $109 $-1 #
coedge $-1 $179 $179 $178 $295 forward $111 $-1 #
coedge $-1 $180 $180 $112 $181 forward $175 $-1 #
edge $-1 $296 0 $296 6.2831853071796004 $180 $297 forward 7 unknown #
loop $-1 $-1 $187 $113 #
plane-surface $-1 -20.079250355851471 -1.1013883091170449 69.859578866596991 0.70710678939079041 0 0.70710677298230451 0.70710677298230451 0 -0.70710678939079041 forward_v I I I I #
loop $-1 $-1 $298 $72 #
coedge $-1 $185 $185 $186 $299 reversed $114 $-1 #
coedge $-1 $186 $186 $185 $299 forward $116 $-1 #
coedge $-1 $187 $187 $117 $188 forward $182 $-1 #
edge $-1 $300 0 $300 6.2831853071796004 $187 $301 forward 7 unknown #
face $-1 $302 $303 $41 $-1 $304 forward single #
loop $-1 $-1 $195 $118 #
plane-surface $-1 48.475600451673941 0 0 -1 0 0 0 0 1 forward_v I I I I #
coedge $-1 $305 $306 $307 $308 reversed $119 $-1 #
coedge $-1 $194 $121 $309 $310 reversed $76 $-1 #
coedge $-1 $121 $193 $305 $311 reversed $76 $-1 #
coedge $-1 $307 $312 $121 $196 forward $190 $-1 #
edge $-1 $313 62.913788122237939 $314 67.90248836881203 $195 $315 forward 7 unknown #
loop $-1 $-1 $202 $122 #
plane-surface $-1 -20.079250355851471 19.34665031948386 69.859578866596991 0.70710678939079041 0 0.70710677298230451 0.70710677298230451 0 -0.70710678939079041 forward_v I I I I #
loop $-1 $-1 $316 $78 #
coedge $-1 $200 $200 $201 $317 reversed $123 $-1 #
coedge $-1 $201 $201 $200 $317 forward $125 $-1 #
coedge $-1 $202 $202 $126 $203 forward $197 $-1 #
edge $-1 $318 0 $318 6.2831853071796004 $202 $319 forward 7 unknown #
loop $-1 $-1 $209 $127 #
plane-surface $-1 -20.079250355851471 19.34665031948386 69.859578866596991 0.70710678939079041 0 0.70710677298230451 0.70710677298230451 0 -0.70710678939079041 forward_v I I I I #
loop $-1 $-1 $320 $81 #
coedge $-1 $207 $207 $208 $321 reversed $128 $-1 #
coedge $-1 $208 $208 $207 $321 forward $130 $-1 #
coedge $-1 $209 $209 $131 $210 forward $204 $-1 #
edge $-1 $322 0 $322 6.2831853071796004 $209 $323 forward 7 unknown #
face $-1 $324 $325 $44 $-1 $326 reversed single #
loop $-1 $-1 $327 $132 #
plane-surface $-1 -130.69488256613914 19.595918999182732 51.600546688084918 0 -1 0 0.84804810408105047 0 -0.52991925155115449 forward_v I I I I #
coedge $-1 $328 $329 $330 $331 reversed $133 $-1 #
coedge $-1 $216 $135 $332 $333 reversed $85 $-1 #
coedge $-1 $135 $215 $328 $334 reversed $85 $-1 #
coedge $-1 $330 $335 $135 $218 forward $336 $-1 #
edge $-1 $337 16.87184083139563 $338 20.664290181408077 $217 $339 forward 7 unknown #
loop $-1 $-1 $224 $136 #
plane-surface $-1 -48.475600451673941 14.815540310665138 0.22423886839719387 -0.84804810408105047 0 0.52991925155115449 0.52991925155115449 0 0.84804810408105047 forward_v I I I I #
loop $-1 $-1 $340 $87 #
coedge $-1 $222 $222 $223 $341 reversed $137 $-1 #
coedge $-1 $223 $223 $222 $341 forward $139 $-1 #
coedge $-1 $224 $224 $140 $225 forward $219 $-1 #
edge $-1 $342 0 $342 6.2831853071796004 $224 $343 forward 7 unknown #
loop $-1 $-1 $231 $141 #
plane-surface $-1 -48.475600451673941 14.815540310665138 0.22423886839719387 -0.84804810408105047 0 0.52991925155115449 0.52991925155115449 0 0.84804810408105047 forward_v I I I I #
loop $-1 $-1 $344 $90 #
coedge $-1 $229 $229 $230 $345 reversed $142 $-1 #
coedge $-1 $230 $230 $229 $345 forward $144 $-1 #
coedge $-1 $231 $231 $145 $232 forward $226 $-1 #
edge $-1 $346 0 $346 6.2831853071796004 $231 $347 forward 7 unknown #
loop $-1 $-1 $238 $146 #
plane-surface $-1 -48.475600451673941 14.815540310665138 0.22423886839719387 -0.84804810408105047 0 0.52991925155115449 0.52991925155115449 0 0.84804810408105047 forward_v I I I I #
loop $-1 $-1 $348 $93 #
coedge $-1 $236 $236 $237 $349 reversed $147 $-1 #
coedge $-1 $237 $237 $236 $349 forward $149 $-1 #
coedge $-1 $238 $238 $150 $239 forward $233 $-1 #
edge $-1 $350 0 $350 6.2831853071796004 $238 $351 forward 7 unknown #
face $-1 $352 $353 $36 $-1 $354 reversed single #
loop $-1 $-1 $355 $151 #
plane-surface $-1 -48.475600451673941 0 0 1 0 0 0 0 -1 forward_v I I I I #
coedge $-1 $356 $251 $357 $358 forward $152 $-1 #
coedge $-1 $359 $154 $356 $360 forward $97 $-1 #
coedge $-1 $154 $359 $361 $362 forward $97 $-1 #
coedge $-1 $254 $253 $154 $247 reversed $255 $-1 #
edge $-1 $363 -23.049987499537675 $364 23.049987499537675 $246 $365 forward 7 unknown #
coedge $-1 $156 $155 $366 $367 forward $61 $-1 #
coedge $-1 $368 $369 $155 $250 reversed $353 $-1 #
edge $-1 $257 -48.475600451673941 $370 48.475600451673941 $249 $371 forward 7 unknown #
coedge $-1 $243 $372 $156 $252 reversed $152 $-1 #
edge $-1 $373 -48.475600451673941 $256 48.475600451673941 $251 $374 forward 7 unknown #
coedge $-1 $246 $157 $372 $375 forward $255 $-1 #
coedge $-1 $157 $246 $368 $376 reversed $255 $-1 #
loop $-1 $-1 $253 $352 #
vertex $-1 $158 $377 #
vertex $-1 $158 $378 #
straight-curve $-1 48.475600451673941 0 6.2934267148232621 0 1 0 I I #
face $-1 $379 $380 $37 $-1 $381 reversed single #
loop $-1 $-1 $382 $159 #
plane-surface $-1 -48.475600451673941 0 0 1 0 0 0 0 -1 forward_v I I I I #
coedge $-1 $383 $268 $273 $384 reversed $160 $-1 #
coedge $-1 $385 $162 $386 $387 reversed $101 $-1 #
coedge $-1 $162 $385 $383 $388 forward $101 $-1 #
coedge $-1 $273 $272 $162 $266 forward $274 $-1 #
edge $-1 $389 -12.825968185237222 $390 -7.6220704433636826 $265 $391 forward 7 unknown #
coedge $-1 $164 $163 $382 $392 reversed $64 $-1 #
coedge $-1 $262 $393 $163 $269 reversed $160 $-1 #
edge $-1 $275 -48.475600451673941 $394 48.475600451673941 $268 $395 forward 7 unknown #
coedge $-1 $396 $397 $164 $271 forward $380 $-1 #
edge $-1 $276 -48.475600451673941 $398 48.475600451673941 $270 $399 forward 7 unknown #
coedge $-1 $265 $165 $397 $400 forward $274 $-1 #
coedge $-1 $165 $265 $262 $384 forward $274 $-1 #
loop $-1 $-1 $165 $379 #
vertex $-1 $166 $401 #
vertex $-1 $400 $402 #
straight-curve $-1 48.475600451673941 -10.224019314300453 -1.8874415100432425 0 -1 0 I I #
face $-1 $-1 $290 $38 $-1 $403 reversed single #
loop $-1 $-1 $404 $167 #
plane-surface $-1 0 0 6.2934267148232621 0 0 1 1 0 0 forward_v I I I I #
coedge $-1 $405 $406 $407 $408 reversed $168 $-1 #
coedge $-1 $409 $170 $172 $288 forward $105 $-1 #
coedge $-1 $170 $409 $405 $410 forward $105 $-1 #
coedge $-1 $407 $173 $170 $285 forward $290 $-1 #
edge $-1 $292 -4.2540313346123355 $411 3.1526430254952906 $284 $412 forward 7 unknown #
coedge $-1 $413 $414 $171 $287 forward $279 $-1 #
edge $-1 $415 19.249099299614976 $291 24.237799430425767 $286 $416 forward 7 unknown #
edge $-1 $292 -96.95120090334791 $415 -89.896113437885845 $172 $417 forward 7 unknown #
coedge $-1 $173 $407 $413 $418 reversed $290 $-1 #
loop $-1 $-1 $407 $278 #
vertex $-1 $418 $419 #
vertex $-1 $174 $420 #
straight-curve $-1 48.475600451673941 -4.804725489170858 69.207214837061201 0 0 -1 I I #
coedge $-1 $294 $294 $-1 $421 reversed $177 $-1 #
edge $-1 $422 0 $422 6.2831853071796004 $178 $423 forward 7 unknown #
vertex $-1 $181 $424 #
ellipse-curve $-1 45.981250386268535 -2.6885328148543941 3.7990765915362248 0.70710678939079041 0 0.70710677298230451 0.70710677298230451 0 -0.70710678939079041 1 I I #
coedge $-1 $298 $298 $-1 $425 reversed $184 $-1 #
edge $-1 $426 0 $426 6.2831853071796004 $185 $427 forward 7 unknown #
vertex $-1 $188 $428 #
ellipse-curve $-1 45.981250386268535 0.48575619662030434 3.7990765915362248 0.70710678939079041 0 0.70710677298230451 0.70710677298230451 0 -0.70710678939079041 1 I I #
face $-1 $-1 $429 $41 $-1 $430 reversed single #
loop $-1 $-1 $309 $189 #
plane-surface $-1 0 0 6.2934267148232621 0 0 1 1 0 0 forward_v I I I I #
coedge $-1 $431 $192 $194 $311 forward $119 $-1 #
coedge $-1 $192 $431 $432 $433 reversed $119 $-1 #
coedge $-1 $434 $195 $192 $308 forward $190 $-1 #
edge $-1 $314 5.969987979688117 $435 13.376662339795741 $307 $436 forward 7 unknown #
coedge $-1 $437 $438 $193 $310 forward $303 $-1 #
edge $-1 $439 19.249099299614976 $313 24.237799430425767 $309 $440 forward 7 unknown #
edge $-1 $314 -96.95120090334791 $439 -89.896113437885845 $194 $441 forward 7 unknown #
coedge $-1 $195 $434 $437 $442 reversed $190 $-1 #
vertex $-1 $442 $443 #
vertex $-1 $196 $444 #
straight-curve $-1 48.475600451673941 15.643313139430047 69.207214837061201 0 0 -1 I I #
coedge $-1 $316 $316 $-1 $445 reversed $199 $-1 #
edge $-1 $446 0 $446 6.2831853071796004 $200 $447 forward 7 unknown #
vertex $-1 $203 $448 #
ellipse-curve $-1 45.981250386268535 17.759505813746511 3.7990765915362248 0.70710678939079041 0 0.70710677298230451 0.70710677298230451 0 -0.70710678939079041 1 I I #
coedge $-1 $320 $320 $-1 $449 reversed $206 $-1 #
edge $-1 $450 0 $450 6.2831853071796004 $207 $451 forward 7 unknown #
vertex $-1 $210 $452 #
ellipse-curve $-1 45.981250386268535 20.933794825221209 3.7990765915362248 0.70710678939079041 0 0.70710677298230451 0.70710677298230451 0 -0.70710678939079041 1 I I #
face $-1 $-1 $336 $44 $-1 $453 forward single #
loop $-1 $-1 $454 $211 #
plane-surface $-1 -48.475600451673941 0 0 1 0 0 0 0 -1 forward_v I I I I #
coedge $-1 $455 $456 $457 $458 reversed $212 $-1 #
coedge $-1 $459 $214 $216 $334 forward $133 $-1 #
coedge $-1 $214 $459 $455 $460 forward $133 $-1 #
coedge $-1 $457 $217 $214 $331 forward $336 $-1 #
edge $-1 $338 2.6273914668149754 $461 12.188148843850163 $330 $462 forward 7 unknown #
coedge $-1 $463 $464 $215 $333 forward $325 $-1 #
edge $-1 $465 -25.576034475645265 $337 -19.506846629219197 $332 $466 forward 7 unknown #
edge $-1 $338 -7.1566551675776395 $465 0 $216 $467 forward 7 unknown #
coedge $-1 $217 $457 $463 $468 forward $336 $-1 #
loop $-1 $-1 $457 $324 #
vertex $-1 $333 $469 #
vertex $-1 $218 $470 #
straight-curve $-1 -65.347441283069571 10.035161622147545 6.2934267148232621 1 0 0 I I #
coedge $-1 $340 $340 $-1 $471 reversed $221 $-1 #
edge $-1 $472 0 $472 6.2831853071796004 $222 $473 forward 7 unknown #
vertex $-1 $225 $474 #
ellipse-curve $-1 -46.579375776667725 11.947313097554581 3.2588327916102244 -0.84804810408105047 0 0.52991925155115449 0.26495962577557725 0 0.42402405204052523 1 I I #
coedge $-1 $344 $344 $-1 $475 reversed $228 $-1 #
edge $-1 $476 0 $476 6.2831853071796004 $229 $477 forward 7 unknown #
vertex $-1 $232 $478 #
ellipse-curve $-1 -46.579375776667725 14.815540310665138 3.2588327916102244 -0.84804810408105047 0 0.52991925155115449 0.26495962577557725 0 0.42402405204052523 1 I I #
coedge $-1 $348 $348 $-1 $479 reversed $235 $-1 #
edge $-1 $480 0 $480 6.2831853071796004 $236 $481 forward 7 unknown #
vertex $-1 $239 $482 #
ellipse-curve $-1 -46.579375776667725 17.683767523775696 3.2588327916102244 -0.84804810408105047 0 0.52991925155115449 0.26495962577557725 0 0.42402405204052523 1 I I #
face $-1 $-1 $255 $36 $-1 $483 reversed single #
loop $-1 $-1 $368 $240 #
plane-surface $-1 0 23.049987499537675 0 0 -1 0 0 0 -1 forward_v I I I I #
coedge $-1 $484 $366 $369 $485 forward $241 $-1 #
coedge $-1 $372 $243 $244 $360 reversed $152 $-1 #
coedge $-1 $366 $484 $243 $358 reversed $241 $-1 #
edge $-1 $373 -6.2934267148232621 $486 6.2934267148232621 $357 $487 forward 7 unknown #
coedge $-1 $245 $244 $484 $488 forward $97 $-1 #
edge $-1 $364 -48.475600451673941 $486 48.475600451673941 $356 $489 forward 7 unknown #
coedge $-1 $369 $368 $245 $362 reversed $353 $-1 #
edge $-1 $490 -48.475600451673941 $363 48.475600451673941 $361 $491 forward 7 unknown #
vertex $-1 $247 $492 #
vertex $-1 $375 $493 #
straight-curve $-1 48.475600451673941 0 -6.2934267148232621 0 -1 0 I I #
coedge $-1 $355 $357 $248 $367 reversed $241 $-1 #
edge $-1 $370 -23.049987499537675 $373 23.049987499537675 $366 $494 forward 7 unknown #
coedge $-1 $361 $249 $254 $376 forward $353 $-1 #
coedge $-1 $249 $361 $355 $485 reversed $353 $-1 #
vertex $-1 $250 $495 #
straight-curve $-1 0 23.049987499537675 6.2934267148232621 -1 0 0 I I #
coedge $-1 $251 $356 $253 $375 reversed $152 $-1 #
vertex $-1 $367 $496 #
straight-curve $-1 0 -23.049987499537675 6.2934267148232621 1 0 0 I I #
edge $-1 $256 -6.2934267148232621 $364 6.2934267148232621 $253 $497 forward 7 unknown #
edge $-1 $257 -6.2934267148232621 $363 6.2934267148232621 $254 $498 forward 7 unknown #
point $-1 48.475600451673941 -23.049987499537675 6.2934267148232621 #
point $-1 48.475600451673941 23.049987499537675 6.2934267148232621 #
face $-1 $-1 $274 $37 $-1 $499 reversed single #
loop $-1 $-1 $270 $259 #
plane-surface $-1 0 -23.049987499537675 0 0 1 0 0 0 1 forward_v I I I I #
coedge $-1 $500 $501 $267 $392 forward $260 $-1 #
coedge $-1 $393 $262 $264 $388 reversed $160 $-1 #
edge $-1 $390 -3.2902583347312673 $275 -0.16154156178507262 $273 $502 forward 7 unknown #
coedge $-1 $264 $263 $503 $504 reversed $101 $-1 #
coedge $-1 $397 $396 $263 $387 forward $380 $-1 #
edge $-1 $505 -48.475600451673941 $389 48.475600451673941 $386 $506 forward 7 unknown #
edge $-1 $507 -48.475600451673941 $390 48.475600451673941 $383 $508 forward 7 unknown #
vertex $-1 $387 $509 #
vertex $-1 $266 $510 #
straight-curve $-1 48.475600451673941 -10.224019314300453 -5.0161582829894371 0 1 0 I I #
edge $-1 $398 -12.825968185237222 $394 -7.6220704433636826 $382 $511 forward 7 unknown #
coedge $-1 $268 $383 $500 $512 reversed $160 $-1 #
vertex $-1 $392 $513 #
straight-curve $-1 0 -17.846089757664135 -1.8874415100432425 -1 0 0 I I #
coedge $-1 $386 $270 $501 $514 forward $380 $-1 #
coedge $-1 $270 $386 $272 $400 reversed $380 $-1 #
vertex $-1 $514 $515 #
straight-curve $-1 0 -23.049987499537675 -1.8874415100432425 -1 0 0 I I #
edge $-1 $276 1.8874415100432425 $389 5.0161582829894371 $272 $516 forward 7 unknown #
point $-1 48.475600451673941 -17.846089757664135 -1.8874415100432425 #
point $-1 48.475600451673941 -23.049987499537675 -1.8874415100432425 #
plane-surface $-1 48.475600451673941 0 0 -1 0 0 0 0 1 forward_v I I I I #
coedge $-1 $414 $413 $406 $517 forward $279 $-1 #
coedge $-1 $406 $281 $283 $410 reversed $168 $-1 #
coedge $-1 $281 $405 $404 $517 reversed $168 $-1 #
coedge $-1 $289 $284 $281 $408 forward $290 $-1 #
edge $-1 $411 -67.90248836881203 $518 -62.913788122237939 $407 $519 forward 7 unknown #
coedge $-1 $283 $282 $414 $520 reversed $105 $-1 #
edge $-1 $521 89.896113437885845 $411 96.95120090334791 $405 $522 forward 7 unknown #
vertex $-1 $285 $523 #
straight-curve $-1 48.475600451673941 -0.55069415455852244 1.3047264682491573 0 1 0 I I #
coedge $-1 $404 $286 $289 $418 forward $279 $-1 #
coedge $-1 $286 $404 $409 $520 forward $279 $-1 #
vertex $-1 $287 $524 #
straight-curve $-1 24.237801021248174 -4.804725489170858 6.2934267148232692 1 0 0 I I #
straight-curve $-1 -20.079250355851471 -4.804725489170858 69.859578866596991 -0.70710677298230451 0 0.70710678939079041 I I #
edge $-1 $291 -4.804725489170858 $518 2.6019488709367682 $289 $525 forward 7 unknown #
point $-1 48.475600451673941 -4.804725489170858 6.2934267148232621 #
point $-1 48.475600451673941 -4.804725489170858 1.3047264682491715 #
edge $-1 $526 1 $526 0 $294 $-1 forward 7 unknown #
vertex $-1 $295 $527 #
ellipse-curve $-1 44.694012616953046 -2.6885328148543941 2.5118388520912185 0.70710678939079041 0 0.70710677298230451 0.70710677298230451 0 -0.70710678939079041 1 I I #
point $-1 46.688357159250842 -2.6885328148543941 3.0919698021454325 #
edge $-1 $528 1 $528 0 $298 $-1 forward 7 unknown #
vertex $-1 $299 $529 #
ellipse-curve $-1 44.694012616953046 0.48575619662030434 2.5118388520912185 0.70710678939079041 0 0.70710677298230451 0.70710677298230451 0 -0.70710678939079041 1 I I #
point $-1 46.688357159250842 0.48575619662030434 3.0919698021454325 #
loop $-1 $-1 $432 $302 #
plane-surface $-1 0 23.049987499537675 0 0 -1 0 0 0 -1 forward_v I I I I #
coedge $-1 $306 $305 $438 $530 reversed $119 $-1 #
coedge $-1 $531 $532 $306 $433 forward $429 $-1 #
edge $-1 $435 -65.153022681556877 $533 -58.097935216094797 $432 $534 forward 7 unknown #
coedge $-1 $312 $307 $532 $535 reversed $190 $-1 #
vertex $-1 $433 $536 #
straight-curve $-1 48.475600451673941 9.6733251597419301 1.3047264682491573 0 1 0 I I #
coedge $-1 $537 $309 $312 $442 forward $303 $-1 #
coedge $-1 $309 $537 $431 $530 forward $303 $-1 #
vertex $-1 $310 $538 #
straight-curve $-1 24.237801021248174 15.643313139430047 6.2934267148232692 1 0 0 I I #
straight-curve $-1 -20.079250355851471 15.643313139430047 69.859578866596991 -0.70710677298230451 0 0.70710678939079041 I I #
edge $-1 $313 15.643313139430047 $539 23.049987499537675 $312 $540 forward 7 unknown #
point $-1 48.475600451673941 15.643313139430047 6.2934267148232621 #
point $-1 48.475600451673941 15.643313139430047 1.3047264682491715 #
edge $-1 $541 1 $541 0 $316 $-1 forward 7 unknown #
vertex $-1 $317 $542 #
ellipse-curve $-1 44.694012616953046 17.759505813746511 2.5118388520912185 0.70710678939079041 0 0.70710677298230451 0.70710677298230451 0 -0.70710678939079041 1 I I #
point $-1 46.688357159250842 17.759505813746511 3.0919698021454325 #
edge $-1 $543 1 $543 0 $320 $-1 forward 7 unknown #
vertex $-1 $321 $544 #
ellipse-curve $-1 44.694012616953046 20.933794825221209 2.5118388520912185 0.70710678939079041 0 0.70710677298230451 0.70710677298230451 0 -0.70710678939079041 1 I I #
point $-1 46.688357159250842 20.933794825221209 3.0919698021454325 #
plane-surface $-1 0 0 6.2934267148232621 0 0 1 1 0 0 forward_v I I I I #
coedge $-1 $464 $463 $456 $545 forward $325 $-1 #
coedge $-1 $456 $327 $329 $460 reversed $212 $-1 #
coedge $-1 $327 $455 $454 $545 reversed $212 $-1 #
coedge $-1 $335 $330 $327 $458 forward $336 $-1 #
edge $-1 $461 -20.664290181408077 $546 -16.87184083139563 $457 $547 forward 7 unknown #
coedge $-1 $329 $328 $464 $548 reversed $133 $-1 #
edge $-1 $549 0 $461 7.1566551675776395 $455 $550 forward 7 unknown #
vertex $-1 $331 $551 #
straight-curve $-1 -44.683151101661494 7.4077701553325692 6.293426714823263 0 1 0 I I #
coedge $-1 $454 $332 $335 $468 reversed $325 $-1 #
coedge $-1 $332 $454 $459 $548 forward $325 $-1 #
vertex $-1 $333 $552 #
straight-curve $-1 -48.475600451673941 10.035161622147545 25.800273344042459 0 0 1 I I #
straight-curve $-1 -48.475600451673941 10.035161622147545 0.22423886839719387 -0.52991925155115449 0 -0.84804810408105047 I I #
edge $-1 $546 -19.595918999182732 $337 -10.035161622147545 $463 $553 forward 7 unknown #
point $-1 -48.475600451673941 10.035161622147545 6.2934267148232621 #
point $-1 -44.683151101661494 10.035161622147545 6.2934267148232621 #
edge $-1 $554 1 $554 0 $340 $-1 forward 7 unknown #
vertex $-1 $341 $555 #
ellipse-curve $-1 -45.731327672586666 11.947313097554581 2.7289135400590694 -0.84804810408105047 0 0.52991925155115449 0.26495962577557725 0 0.42402405204052523 1 I I #
point $-1 -46.314416150892143 11.947313097554581 3.6828568436507494 #
edge $-1 $556 1 $556 0 $344 $-1 forward 7 unknown #
vertex $-1 $345 $557 #
ellipse-curve $-1 -45.731327672586666 14.815540310665138 2.7289135400590694 -0.84804810408105047 0 0.52991925155115449 0.26495962577557725 0 0.42402405204052523 1 I I #
point $-1 -46.314416150892143 14.815540310665138 3.6828568436507494 #
edge $-1 $558 1 $558 0 $348 $-1 forward 7 unknown #
vertex $-1 $349 $559 #
ellipse-curve $-1 -45.731327672586666 17.683767523775696 2.7289135400590694 -0.84804810408105047 0 0.52991925155115449 0.26495962577557725 0 0.42402405204052523 1 I I #
point $-1 -46.314416150892143 17.683767523775696 3.6828568436507494 #
plane-surface $-1 48.475600451673941 0 0 -1 0 0 0 0 1 forward_v I I I I #
coedge $-1 $357 $355 $359 $488 reversed $241 $-1 #
edge $-1 $370 -6.2934267148232621 $490 6.2934267148232621 $369 $560 forward 7 unknown #
vertex $-1 $488 $561 #
straight-curve $-1 -48.475600451673941 -23.049987499537675 0 0 0 -1 I I #
edge $-1 $486 -23.049987499537675 $490 23.049987499537675 $484 $562 forward 7 unknown #
straight-curve $-1 0 -23.049987499537675 -6.2934267148232621 -1 0 0 I I #
vertex $-1 $362 $563 #
straight-curve $-1 0 23.049987499537675 -6.2934267148232621 1 0 0 I I #
point $-1 48.475600451673941 23.049987499537675 -6.2934267148232621 #
point $-1 48.475600451673941 -23.049987499537675 -6.2934267148232621 #
straight-curve $-1 -48.475600451673941 0 6.2934267148232621 0 -1 0 I I #
point $-1 -48.475600451673941 23.049987499537675 6.2934267148232621 #
point $-1 -48.475600451673941 -23.049987499537675 6.2934267148232621 #
straight-curve $-1 48.475600451673941 -23.049987499537675 0 0 0 -1 I I #
straight-curve $-1 48.475600451673941 23.049987499537675 0 0 0 -1 I I #
plane-surface $-1 48.475600451673941 0 0 -1 0 0 0 0 1 forward_v I I I I #
coedge $-1 $503 $382 $393 $512 forward $260 $-1 #
coedge $-1 $382 $503 $396 $514 reversed $260 $-1 #
straight-curve $-1 48.475600451673941 -17.846089757664135 -1.7258999482581698 0 0 1 I I #
coedge $-1 $501 $500 $385 $504 forward $260 $-1 #
edge $-1 $507 7.6220704433636826 $505 12.825968185237222 $503 $564 forward 7 unknown #
vertex $-1 $387 $565 #
straight-curve $-1 0 -23.049987499537675 -5.0161582829894371 1 0 0 I I #
vertex $-1 $504 $566 #
straight-curve $-1 0 -17.846089757664135 -5.0161582829894371 1 0 0 I I #
point $-1 48.475600451673941 -23.049987499537675 -5.0161582829894371 #
point $-1 48.475600451673941 -17.846089757664135 -5.0161582829894371 #
straight-curve $-1 -48.475600451673941 -10.224019314300453 -1.8874415100432425 0 1 0 I I #
edge $-1 $394 0.16154156178507262 $507 3.2902583347312673 $500 $567 forward 7 unknown #
point $-1 -48.475600451673941 -17.846089757664135 -1.8874415100432425 #
edge $-1 $398 1.8874415100432425 $505 5.0161582829894371 $501 $568 forward 7 unknown #
point $-1 -48.475600451673941 -23.049987499537675 -1.8874415100432425 #
straight-curve $-1 48.475600451673941 -23.049987499537675 0 0 0 -1 I I #
edge $-1 $518 -24.237799430425767 $521 -19.249099299614976 $404 $569 forward 7 unknown #
vertex $-1 $517 $570 #
straight-curve $-1 48.475600451673941 2.6019488709367682 69.207214837061201 0 0 1 I I #
edge $-1 $521 -3.1526430254952906 $415 4.2540313346123355 $414 $571 forward 7 unknown #
vertex $-1 $520 $572 #
straight-curve $-1 -20.079250355851471 2.6019488709367682 69.859578866596991 0.70710677298230451 0 -0.70710678939079041 I I #
point $-1 48.475600451673941 2.6019488709367682 1.3047264682491715 #
point $-1 43.48690032086315 -4.804725489170858 6.2934267148232621 #
straight-curve $-1 48.475600451673941 0 6.2934267148232621 0 1 0 I I #
vertex $-1 $421 $573 #
point $-1 45.401119389935346 -2.6885328148543941 1.8047320627004282 #
vertex $-1 $425 $574 #
point $-1 45.401119389935346 0.48575619662030434 1.8047320627004282 #
edge $-1 $533 -13.376662339795741 $439 -5.969987979688117 $438 $575 forward 7 unknown #
coedge $-1 $532 $432 $537 $576 reversed $429 $-1 #
coedge $-1 $432 $531 $434 $535 forward $429 $-1 #
vertex $-1 $433 $577 #
straight-curve $-1 2.4054568332753696 23.049987499537675 47.374871155710188 -0.70710677298230462 0 0.70710678939079052 I I #
edge $-1 $539 -6.2934267148232621 $435 -1.3047264682491715 $434 $578 forward 7 unknown #
point $-1 48.475600451673941 23.049987499537671 1.3047264682491715 #
coedge $-1 $438 $437 $531 $576 forward $303 $-1 #
point $-1 43.48690032086315 15.643313139430047 6.2934267148232621 #
vertex $-1 $442 $579 #
straight-curve $-1 48.475600451673941 0 6.2934267148232621 0 1 0 I I #
vertex $-1 $445 $580 #
point $-1 45.401119389935346 17.759505813746511 1.8047320627004282 #
vertex $-1 $449 $581 #
point $-1 45.401119389935346 20.933794825221209 1.8047320627004282 #
edge $-1 $546 19.506846629219197 $549 25.576034475645265 $454 $582 forward 7 unknown #
vertex $-1 $468 $583 #
straight-curve $-1 -65.347441283069571 19.595918999182732 6.2934267148232621 -1 0 0 I I #
edge $-1 $549 -12.188148843850163 $465 -2.6273914668149754 $464 $584 forward 7 unknown #
vertex $-1 $548 $585 #
straight-curve $-1 -48.475600451673941 19.595918999182732 0.22423886839719387 0.52991925155115449 0 0.84804810408105047 I I #
point $-1 -44.683151101661494 19.595918999182732 6.2934267148232621 #
point $-1 -48.475600451673941 10.035161622147545 0.22423886839719387 #
straight-curve $-1 -48.475600451673941 0 6.2934267148232621 0 -1 0 I I #
vertex $-1 $471 $586 #
point $-1 -45.466368046811091 11.947313097554581 3.1529375920995948 #
vertex $-1 $475 $587 #
point $-1 -45.466368046811091 14.815540310665138 3.1529375920995948 #
vertex $-1 $479 $588 #
point $-1 -45.466368046811091 17.683767523775696 3.1529375920995948 #
straight-curve $-1 -48.475600451673941 23.049987499537675 0 0 0 -1 I I #
point $-1 -48.475600451673941 -23.049987499537675 -6.2934267148232621 #
straight-curve $-1 -48.475600451673941 0 -6.2934267148232621 0 1 0 I I #
point $-1 -48.475600451673941 23.049987499537675 -6.2934267148232621 #
straight-curve $-1 -48.475600451673941 -10.224019314300453 -5.0161582829894371 0 -1 0 I I #
point $-1 -48.475600451673941 -23.049987499537675 -5.0161582829894371 #
point $-1 -48.475600451673941 -17.846089757664135 -5.0161582829894371 #
straight-curve $-1 -48.475600451673941 -17.846089757664135 -1.7258999482581698 0 0 -1 I I #
straight-curve $-1 -48.475600451673941 -23.049987499537675 0 0 0 -1 I I #
straight-curve $-1 24.237801021248174 2.6019488709367682 6.2934267148232692 -1 0 0 I I #
point $-1 48.475600451673941 2.6019488709367682 6.2934267148232621 #
straight-curve $-1 43.486900320863143 -0.55069415455852244 6.293426714823255 0 -1 0 I I #
point $-1 43.48690032086315 2.6019488709367682 6.2934267148232621 #
point $-1 43.986905827562254 -2.6885328148543941 1.8047320791089141 #
point $-1 43.986905827562254 0.48575619662030434 1.8047320791089141 #
straight-curve $-1 43.486900320863143 9.6733251597419301 6.293426714823255 0 -1 0 I I #
edge $-1 $539 -48.475600451673941 $533 -43.48690032086315 $531 $589 forward 7 unknown #
point $-1 43.48690032086315 23.049987499537671 6.2934267148232621 #
straight-curve $-1 48.475600451673941 23.049987499537675 0 0 0 -1 I I #
point $-1 48.475600451673941 23.049987499537675 6.2934267148232621 #
point $-1 43.986905827562254 17.759505813746511 1.8047320791089141 #
point $-1 43.986905827562254 20.933794825221209 1.8047320791089141 #
straight-curve $-1 -48.475600451673941 19.595918999182732 25.800273344042459 0 0 -1 I I #
point $-1 -48.475600451673941 19.595918999182732 6.2934267148232621 #
straight-curve $-1 -48.475600451673941 7.4077701553325692 0.22423886839719523 0 -1 0 I I #
point $-1 -48.475600451673941 19.595918999182732 0.22423886839719387 #
point $-1 -45.307303620546143 11.947313097554581 2.4639539142834921 #
point $-1 -45.307303620546143 14.815540310665138 2.4639539142834921 #
point $-1 -45.307303620546143 17.683767523775696 2.4639539142834921 #
straight-curve $-1 0 23.049987499537675 6.2934267148232621 -1 0 0 I I #
End-of-ACIS-data 