500 0 8 0           
7 Unknown 11 ACIS 5.0 NT 24 Thu Mar 25 19:16:39 1999 
-1 9.9999999999999995e-007 1e-010 
body $-1 $8 $-1 $9 #
body $-1 $10 $-1 $11 #
body $-1 $12 $-1 $13 #
body $-1 $14 $-1 $15 #
body $-1 $16 $-1 $17 #
body $-1 $18 $-1 $19 #
body $-1 $20 $-1 $21 #
body $-1 $22 $-1 $23 #
lump $-1 $-1 $24 $0 #
transform $-1 1 0 0 0 1 0 0 0 1 44.580217902157656 19.423081356693718 4.4572258050331968 1 rotate no_reflect no_shear #
lump $-1 $-1 $25 $1 #
transform $-1 1 0 0 0 1 0 0 0 1 44.580217902157656 19.423081356693718 4.4572258050331968 1 rotate no_reflect no_shear #
lump $-1 $-1 $26 $2 #
transform $-1 1 0 0 0 1 0 0 0 1 44.580217902157656 19.423081356693718 4.4572258050331968 1 rotate no_reflect no_shear #
lump $-1 $-1 $27 $3 #
transform $-1 1 0 0 0 1 0 0 0 1 44.580217902157656 19.423081356693718 4.4572258050331968 1 rotate no_reflect no_shear #
lump $-1 $-1 $28 $4 #
transform $-1 1 0 0 0 1 0 0 0 1 44.580217902157656 19.423081356693718 4.4572258050331968 1 rotate no_reflect no_shear #
lump $-1 $-1 $29 $5 #
transform $-1 1 0 0 0 1 0 0 0 1 44.580217902157656 19.423081356693718 4.4572258050331968 1 rotate no_reflect no_shear #
lump $-1 $-1 $30 $6 #
transform $-1 1 0 0 0 1 0 0 0 1 44.580217902157656 19.423081356693718 4.4572258050331968 1 rotate no_reflect no_shear #
lump $-1 $-1 $31 $7 #
transform $-1 1 0 0 0 1 0 0 0 1 44.580217902157656 19.423081356693718 4.4572258050331968 1 rotate no_reflect no_shear #
shell $-1 $-1 $-1 $32 $-1 $8 #
shell $-1 $-1 $-1 $33 $-1 $10 #
shell $-1 $-1 $-1 $34 $-1 $12 #
shell $-1 $-1 $-1 $35 $-1 $14 #
shell $-1 $-1 $-1 $36 $-1 $16 #
shell $-1 $-1 $-1 $37 $-1 $18 #
shell $-1 $-1 $-1 $38 $-1 $20 #
shell $-1 $-1 $-1 $39 $-1 $22 #
face $-1 $40 $41 $24 $-1 $42 forward single #
face $-1 $43 $44 $25 $-1 $45 forward single #
face $-1 $46 $47 $26 $-1 $48 forward single #
face $-1 $49 $50 $27 $-1 $51 reversed single #
face $-1 $52 $53 $28 $-1 $54 forward single #
face $-1 $55 $56 $29 $-1 $57 forward single #
face $-1 $58 $59 $30 $-1 $60 reversed single #
face $-1 $61 $62 $31 $-1 $63 forward single #
face $-1 $64 $65 $24 $-1 $66 reversed single #
loop $-1 $-1 $67 $32 #
plane-surface $-1 0 0 4.4572258050331968 0 0 1 1 0 0 forward_v I I I I #
face $-1 $68 $69 $25 $-1 $70 reversed single #
loop $-1 $-1 $71 $33 #
plane-surface $-1 -44.580217902157656 0 0 1 0 0 0 0 -1 forward_v I I I I #
face $-1 $72 $73 $26 $-1 $74 reversed single #
loop $-1 $-1 $75 $34 #
plane-surface $-1 44.580217902157656 0 0 -1 0 0 0 0 1 forward_v I I I I #
face $-1 $76 $77 $27 $-1 $78 reversed single #
loop $-1 $-1 $79 $35 #
plane-surface $-1 -9.366779787650632 32.046440906594029 96.89468619171447 1 0 0 0 -0.51503808176128008 -0.85716729658548041 forward_v I I I I #
face $-1 $80 $81 $28 $-1 $82 forward single #
loop $-1 $83 $84 $36 #
cone-surface $-1 -3.7498576281254543 14.758275306803364 0.229091733600157 0 -0.51503808176128008 -0.85716729658548041 1.5 0 0 1 I I 0 1 1.5 forward I I I I #
face $-1 $85 $86 $29 $-1 $87 forward single #
loop $-1 $88 $89 $37 #
cone-surface $-1 4.6755256111623211 14.758275306803364 0.229091733600157 0 -0.51503808176128008 -0.85716729658548041 1.5 0 0 1 I I 0 1 1.5 forward I I I I #
face $-1 $90 $91 $30 $-1 $92 reversed single #
loop $-1 $-1 $93 $38 #
plane-surface $-1 30.63582783153182 -89.682464302723247 54.964111587748356 -1 0 0 0 -0.78801076186113728 0.61566146476048833 forward_v I I I I #
face $-1 $94 $95 $31 $-1 $96 forward single #
loop $-1 $97 $98 $39 #
cone-surface $-1 26.469633082213448 -17.094969720836673 1.7839756789546348 0 0.78801076186113728 -0.61566146476048833 1 0 0 1 I I 0 1 1 forward I I I I #
face $-1 $99 $100 $24 $-1 $101 reversed single #
loop $-1 $-1 $102 $40 #
plane-surface $-1 0 0 -4.4572258050331968 0 0 1 1 0 0 forward_v I I I I #
coedge $-1 $103 $104 $105 $106 forward $41 $-1 #
face $-1 $107 $108 $25 $-1 $109 forward single #
loop $-1 $-1 $110 $43 #
plane-surface $-1 0 19.423081356693718 0 0 -1 0 0 0 -1 forward_v I I I I #
coedge $-1 $111 $112 $113 $114 forward $44 $-1 #
face $-1 $115 $116 $26 $-1 $117 forward single #
loop $-1 $-1 $118 $46 #
plane-surface $-1 0 -19.423081356693718 0 0 1 0 0 0 1 forward_v I I I I #
coedge $-1 $119 $120 $121 $122 forward $47 $-1 #
face $-1 $123 $124 $27 $-1 $125 reversed single #
loop $-1 $-1 $126 $49 #
plane-surface $-1 0.46283399151843696 -13.874578919060284 20.469276470946241 0 0.51503808176128008 0.85716729658548041 1 0 0 forward_v I I I I #
coedge $-1 $127 $128 $129 $130 reversed $50 $-1 #
face $-1 $-1 $131 $28 $-1 $132 forward single #
loop $-1 $133 $134 $52 #
cone-surface $-1 -3.7498576281254543 13.03175737788639 -2.6443165793837089 0 -0.51503808176128008 -0.85716729658548041 0.75 0 0 1 I I -0.70710678118654757 0.70710678118654757 0.75 forward I I I I #
loop $-1 $-1 $135 $36 #
coedge $-1 $84 $84 $136 $137 reversed $53 $-1 #
face $-1 $-1 $138 $29 $-1 $139 forward single #
loop $-1 $140 $141 $55 #
cone-surface $-1 4.6755256111623211 13.03175737788639 -2.6443165793837089 0 -0.51503808176128008 -0.85716729658548041 0.75 0 0 1 I I -0.70710678118654757 0.70710678118654757 0.75 forward I I I I #
loop $-1 $-1 $142 $37 #
coedge $-1 $89 $89 $143 $144 reversed $56 $-1 #
face $-1 $145 $146 $30 $-1 $147 reversed single #
loop $-1 $-1 $148 $58 #
plane-surface $-1 26.469633082213463 -19.423081356693714 0.071467081780099306 0 -0.78801076186113728 0.61566146476048833 1 0 0 forward_v I I I I #
coedge $-1 $149 $150 $151 $152 reversed $59 $-1 #
face $-1 $-1 $153 $31 $-1 $154 forward single #
loop $-1 $155 $156 $61 #
cone-surface $-1 26.469633082213448 -16.086117782603857 0.99577418212238022 0 0.78801076186113728 -0.61566146476048833 0.5 0 0 1 I I -0.70710678118654746 0.70710678118654746 0.5 forward I I I I #
loop $-1 $-1 $157 $39 #
coedge $-1 $98 $98 $158 $159 reversed $62 $-1 #
face $-1 $160 $161 $24 $-1 $162 reversed single #
loop $-1 $-1 $163 $64 #
plane-surface $-1 0 -19.423081356693718 0 0 1 0 0 0 1 forward_v I I I I #
coedge $-1 $164 $165 $166 $167 forward $65 $-1 #
coedge $-1 $168 $67 $169 $170 forward $41 $-1 #
coedge $-1 $67 $168 $171 $172 forward $41 $-1 #
coedge $-1 $173 $174 $67 $106 reversed $175 $-1 #
edge $-1 $176 -19.423081356693718 $177 19.423081356693718 $105 $178 forward 7 unknown #
face $-1 $179 $180 $25 $-1 $181 reversed single #
loop $-1 $-1 $113 $68 #
plane-surface $-1 -46.345036919254447 0 1.3111064909837806 0 0 1 1 0 0 forward_v I I I I #
coedge $-1 $182 $183 $112 $184 forward $69 $-1 #
coedge $-1 $185 $71 $186 $187 reversed $44 $-1 #
coedge $-1 $71 $185 $110 $184 reversed $44 $-1 #
coedge $-1 $188 $189 $71 $114 reversed $108 $-1 #
edge $-1 $190 -19.423081356693718 $191 19.423081356693718 $113 $192 forward 7 unknown #
face $-1 $193 $194 $26 $-1 $195 reversed single #
loop $-1 $-1 $196 $72 #
plane-surface $-1 46.34503691925444 0 1.3111064909837806 0 0 1 1 0 0 forward_v I I I I #
coedge $-1 $197 $198 $120 $199 forward $73 $-1 #
coedge $-1 $200 $75 $201 $202 reversed $47 $-1 #
coedge $-1 $75 $200 $118 $199 reversed $47 $-1 #
coedge $-1 $203 $204 $75 $122 reversed $116 $-1 #
edge $-1 $205 -19.423081356693718 $206 19.423081356693718 $121 $207 forward 7 unknown #
face $-1 $208 $209 $27 $-1 $210 reversed single #
loop $-1 $-1 $211 $76 #
plane-surface $-1 10.292447770687506 32.046440906594029 96.89468619171447 -1 0 0 0 0.51503808176128008 0.85716729658548041 forward_v I I I I #
coedge $-1 $212 $213 $214 $215 reversed $77 $-1 #
coedge $-1 $128 $79 $216 $217 reversed $50 $-1 #
coedge $-1 $79 $127 $212 $218 reversed $50 $-1 #
coedge $-1 $214 $219 $79 $130 forward $220 $-1 #
edge $-1 $221 -3.3998609033967035 $222 3.2492724611919996 $129 $223 forward 7 unknown #
loop $-1 $-1 $136 $80 #
plane-surface $-1 0.46283399151843696 -13.874578919060284 20.469276470946241 0 0.51503808176128008 0.85716729658548041 1 0 0 forward_v I I I I #
loop $-1 $-1 $224 $52 #
coedge $-1 $134 $134 $135 $225 reversed $81 $-1 #
coedge $-1 $135 $135 $134 $225 forward $83 $-1 #
coedge $-1 $136 $136 $84 $137 forward $131 $-1 #
edge $-1 $226 -5.1409712264160027e-016 $226 6.2831853071795996 $136 $227 forward 7 unknown #
loop $-1 $-1 $143 $85 #
plane-surface $-1 0.46283399151843696 -13.874578919060284 20.469276470946241 0 0.51503808176128008 0.85716729658548041 1 0 0 forward_v I I I I #
loop $-1 $-1 $228 $55 #
coedge $-1 $141 $141 $142 $229 reversed $86 $-1 #
coedge $-1 $142 $142 $141 $229 forward $88 $-1 #
coedge $-1 $143 $143 $89 $144 forward $138 $-1 #
edge $-1 $230 -5.1409712264160027e-016 $230 6.2831853071795996 $143 $231 forward 7 unknown #
face $-1 $232 $233 $30 $-1 $234 forward single #
loop $-1 $-1 $235 $90 #
plane-surface $-1 22.303438332895105 -89.682464302723247 54.964111587748356 1 0 0 0 0.78801076186113728 -0.61566146476048833 forward_v I I I I #
coedge $-1 $236 $237 $238 $239 reversed $91 $-1 #
coedge $-1 $150 $93 $240 $241 reversed $59 $-1 #
coedge $-1 $93 $149 $236 $242 reversed $59 $-1 #
coedge $-1 $238 $243 $93 $152 forward $233 $-1 #
edge $-1 $244 25.418150794667906 $245 28.844680951777498 $151 $246 forward 7 unknown #
loop $-1 $-1 $158 $94 #
plane-surface $-1 26.469633082213463 -19.423081356693714 0.071467081780099306 0 -0.78801076186113728 0.61566146476048833 1 0 0 forward_v I I I I #
loop $-1 $-1 $247 $61 #
coedge $-1 $156 $156 $157 $248 reversed $95 $-1 #
coedge $-1 $157 $157 $156 $248 forward $97 $-1 #
coedge $-1 $158 $158 $98 $159 forward $153 $-1 #
edge $-1 $249 -2.1872689073649395e-015 $249 6.2831853071795987 $158 $250 forward 7 unknown #
face $-1 $251 $252 $24 $-1 $253 reversed single #
loop $-1 $-1 $254 $99 #
plane-surface $-1 -44.580217902157656 0 0 1 0 0 0 0 -1 forward_v I I I I #
coedge $-1 $255 $171 $256 $257 forward $100 $-1 #
coedge $-1 $258 $102 $255 $259 forward $65 $-1 #
coedge $-1 $102 $258 $260 $261 forward $65 $-1 #
coedge $-1 $174 $173 $102 $167 reversed $175 $-1 #
edge $-1 $262 -19.423081356693718 $263 19.423081356693718 $166 $264 forward 7 unknown #
coedge $-1 $104 $103 $265 $266 forward $41 $-1 #
coedge $-1 $267 $268 $103 $170 reversed $252 $-1 #
edge $-1 $177 -44.580217902157656 $269 44.580217902157656 $169 $270 forward 7 unknown #
coedge $-1 $163 $271 $104 $172 reversed $100 $-1 #
edge $-1 $272 -44.580217902157656 $176 44.580217902157656 $171 $273 forward 7 unknown #
coedge $-1 $166 $105 $271 $274 forward $175 $-1 #
coedge $-1 $105 $166 $267 $275 reversed $175 $-1 #
loop $-1 $-1 $173 $251 #
vertex $-1 $106 $276 #
vertex $-1 $106 $277 #
straight-curve $-1 44.580217902157656 0 4.4572258050331968 0 1 0 I I #
face $-1 $278 $279 $25 $-1 $280 reversed single #
loop $-1 $-1 $281 $107 #
plane-surface $-1 -46.345036919254447 0 -1.6888935090162198 0 0 1 1 0 0 forward_v I I I I #
coedge $-1 $282 $110 $283 $284 reversed $69 $-1 #
coedge $-1 $110 $282 $188 $285 reversed $69 $-1 #
edge $-1 $190 -1.3111064909837806 $286 1.6888935090162198 $110 $287 forward 7 unknown #
coedge $-1 $112 $111 $281 $288 forward $44 $-1 #
coedge $-1 $289 $290 $111 $187 forward $291 $-1 #
edge $-1 $292 -1.6888935090162198 $191 1.3111064909837806 $186 $293 forward 7 unknown #
coedge $-1 $294 $113 $183 $285 forward $108 $-1 #
coedge $-1 $113 $294 $289 $295 forward $108 $-1 #
vertex $-1 $184 $296 #
vertex $-1 $295 $297 #
straight-curve $-1 -44.580217902157656 0 1.3111064909837806 0 -1 0 I I #
face $-1 $298 $299 $26 $-1 $300 reversed single #
loop $-1 $-1 $301 $115 #
plane-surface $-1 46.34503691925444 0 -1.6888935090162198 0 0 1 1 0 0 forward_v I I I I #
coedge $-1 $204 $203 $302 $303 forward $116 $-1 #
coedge $-1 $304 $118 $305 $306 reversed $73 $-1 #
coedge $-1 $118 $304 $203 $307 reversed $73 $-1 #
edge $-1 $205 -1.3111064909837806 $308 1.6888935090162198 $118 $309 forward 7 unknown #
coedge $-1 $120 $119 $310 $311 forward $47 $-1 #
coedge $-1 $312 $313 $119 $202 forward $314 $-1 #
edge $-1 $315 -1.6888935090162198 $206 1.3111064909837806 $201 $316 forward 7 unknown #
coedge $-1 $196 $121 $198 $307 forward $116 $-1 #
coedge $-1 $121 $196 $312 $317 forward $116 $-1 #
vertex $-1 $199 $318 #
vertex $-1 $317 $319 #
straight-curve $-1 44.580217902157656 0 1.3111064909837806 0 1 0 I I #
face $-1 $-1 $220 $27 $-1 $320 forward single #
loop $-1 $-1 $321 $123 #
plane-surface $-1 0 19.423081356693718 0 0 -1 0 0 0 -1 forward_v I I I I #
coedge $-1 $322 $323 $324 $325 reversed $124 $-1 #
coedge $-1 $326 $126 $128 $218 forward $77 $-1 #
coedge $-1 $126 $326 $322 $327 forward $77 $-1 #
coedge $-1 $324 $129 $126 $215 forward $220 $-1 #
edge $-1 $222 -9.5981967834098505 $328 10.061030774928287 $214 $329 forward 7 unknown #
coedge $-1 $330 $331 $127 $217 forward $209 $-1 #
edge $-1 $332 -47.985319752600617 $221 -43.990117290824038 $216 $333 forward 7 unknown #
edge $-1 $222 31.089061630465263 $332 38.846162713387429 $128 $334 forward 7 unknown #
coedge $-1 $129 $324 $330 $335 forward $220 $-1 #
loop $-1 $-1 $324 $208 #
vertex $-1 $217 $336 #
vertex $-1 $130 $337 #
straight-curve $-1 -9.366779787650632 16.023220453297014 4.4572258050331968 0 -1 0 I I #
coedge $-1 $224 $224 $-1 $338 reversed $133 $-1 #
edge $-1 $339 0 $339 6.2831853071796004 $134 $340 forward 7 unknown #
vertex $-1 $137 $341 #
ellipse-curve $-1 -3.7498576281254543 16.098514674399372 2.4596245741448994 0 0.51503808176128008 0.85716729658548041 1.5 0 0 1 I I #
coedge $-1 $228 $228 $-1 $342 reversed $140 $-1 #
edge $-1 $343 0 $343 6.2831853071796004 $141 $344 forward 7 unknown #
vertex $-1 $144 $345 #
ellipse-curve $-1 4.6755256111623211 16.098514674399372 2.4596245741448994 0 0.51503808176128008 0.85716729658548041 1.5 0 0 1 I I #
face $-1 $-1 $346 $30 $-1 $347 reversed single #
loop $-1 $-1 $151 $145 #
plane-surface $-1 0 0 4.4572258050331968 0 0 1 1 0 0 forward_v I I I I #
coedge $-1 $348 $349 $350 $351 reversed $146 $-1 #
coedge $-1 $352 $148 $150 $242 forward $91 $-1 #
coedge $-1 $148 $352 $348 $353 forward $91 $-1 #
coedge $-1 $350 $151 $148 $239 forward $233 $-1 #
edge $-1 $245 -17.401011290425089 $354 -9.0686217917883738 $238 $355 forward 7 unknown #
coedge $-1 $356 $357 $149 $241 forward $346 $-1 #
edge $-1 $358 -27.410588712094082 $244 -23.024829988840981 $240 $359 forward 7 unknown #
edge $-1 $245 -5.5656076484218788 $358 5.7742264423945871e-015 $150 $360 forward 7 unknown #
coedge $-1 $151 $350 $356 $361 forward $233 $-1 #
vertex $-1 $241 $362 #
vertex $-1 $152 $363 #
straight-curve $-1 30.63582783153182 -44.841232151361623 4.4572258050331968 0 1 0 I I #
coedge $-1 $247 $247 $-1 $364 reversed $155 $-1 #
edge $-1 $365 0 $365 6.2831853071796004 $156 $366 forward 7 unknown #
vertex $-1 $159 $367 #
ellipse-curve $-1 26.469633082213448 -17.70981627813892 2.2643464434066454 0 -0.78801076186113728 0.61566146476048833 1 0 0 1 I I #
face $-1 $-1 $175 $24 $-1 $368 reversed single #
loop $-1 $-1 $267 $160 #
plane-surface $-1 0 19.423081356693718 0 0 -1 0 0 0 -1 forward_v I I I I #
coedge $-1 $369 $265 $268 $370 forward $161 $-1 #
coedge $-1 $271 $163 $164 $259 reversed $100 $-1 #
coedge $-1 $265 $369 $163 $257 reversed $161 $-1 #
edge $-1 $272 -4.4572258050331968 $371 4.4572258050331968 $256 $372 forward 7 unknown #
coedge $-1 $165 $164 $369 $373 forward $65 $-1 #
edge $-1 $263 -44.580217902157656 $371 44.580217902157656 $255 $374 forward 7 unknown #
coedge $-1 $268 $267 $165 $261 reversed $252 $-1 #
edge $-1 $375 -44.580217902157656 $262 44.580217902157656 $260 $376 forward 7 unknown #
vertex $-1 $167 $377 #
vertex $-1 $274 $378 #
straight-curve $-1 44.580217902157656 0 -4.4572258050331968 0 -1 0 I I #
coedge $-1 $254 $256 $168 $266 reversed $161 $-1 #
edge $-1 $269 -19.423081356693718 $272 19.423081356693718 $265 $379 forward 7 unknown #
coedge $-1 $260 $169 $174 $275 forward $252 $-1 #
coedge $-1 $169 $260 $254 $370 reversed $252 $-1 #
vertex $-1 $170 $380 #
straight-curve $-1 0 19.423081356693718 4.4572258050331968 -1 0 0 I I #
coedge $-1 $171 $255 $173 $274 reversed $100 $-1 #
vertex $-1 $266 $381 #
straight-curve $-1 0 -19.423081356693718 4.4572258050331968 1 0 0 I I #
edge $-1 $176 -4.4572258050331968 $263 4.4572258050331968 $173 $382 forward 7 unknown #
edge $-1 $177 -4.4572258050331968 $262 4.4572258050331968 $174 $383 forward 7 unknown #
point $-1 44.580217902157656 -19.423081356693718 4.4572258050331968 #
point $-1 44.580217902157656 19.423081356693718 4.4572258050331968 #
face $-1 $-1 $291 $25 $-1 $384 reversed single #
loop $-1 $-1 $385 $179 #
plane-surface $-1 -48.109855936351238 0 -0.1888935090162196 1 0 0 0 0 -1 forward_v I I I I #
coedge $-1 $386 $283 $185 $288 reversed $180 $-1 #
coedge $-1 $183 $182 $385 $387 reversed $69 $-1 #
coedge $-1 $281 $388 $182 $284 forward $180 $-1 #
edge $-1 $389 -1.7648190170967908 $286 1.7648190170967908 $182 $390 forward 7 unknown #
edge $-1 $190 -1.7648190170967908 $391 1.7648190170967908 $183 $392 forward 7 unknown #
vertex $-1 $184 $393 #
straight-curve $-1 -44.580217902157656 19.423081356693718 0 0 0 -1 I I #
edge $-1 $292 -19.423081356693718 $286 19.423081356693718 $281 $394 forward 7 unknown #
coedge $-1 $395 $186 $189 $295 reversed $291 $-1 #
coedge $-1 $186 $395 $386 $396 reversed $291 $-1 #
loop $-1 $-1 $186 $278 #
vertex $-1 $187 $397 #
straight-curve $-1 -44.580217902157656 -19.423081356693718 0 0 0 1 I I #
coedge $-1 $189 $188 $398 $399 forward $108 $-1 #
edge $-1 $400 -1.7648190170967908 $191 1.7648190170967908 $289 $401 forward 7 unknown #
point $-1 -44.580217902157656 19.423081356693718 1.3111064909837806 #
point $-1 -44.580217902157656 -19.423081356693718 1.3111064909837806 #
face $-1 $-1 $314 $26 $-1 $402 reversed single #
loop $-1 $-1 $403 $193 #
plane-surface $-1 48.109855936351231 0 -0.1888935090162196 -1 0 0 0 0 1 forward_v I I I I #
coedge $-1 $305 $404 $405 $406 forward $194 $-1 #
coedge $-1 $403 $407 $196 $303 reversed $299 $-1 #
edge $-1 $408 -19.423081356693718 $409 19.423081356693718 $302 $410 forward 7 unknown #
coedge $-1 $198 $197 $403 $411 reversed $73 $-1 #
coedge $-1 $310 $301 $197 $306 forward $194 $-1 #
edge $-1 $412 -1.7648190170967908 $308 1.7648190170967908 $197 $413 forward 7 unknown #
edge $-1 $205 -1.7648190170967908 $408 1.7648190170967908 $198 $414 forward 7 unknown #
vertex $-1 $199 $415 #
straight-curve $-1 44.580217902157656 -19.423081356693718 0 0 0 -1 I I #
coedge $-1 $404 $305 $200 $311 reversed $194 $-1 #
edge $-1 $315 -19.423081356693718 $308 19.423081356693718 $310 $416 forward 7 unknown #
coedge $-1 $417 $201 $204 $317 reversed $314 $-1 #
coedge $-1 $201 $417 $404 $418 reversed $314 $-1 #
loop $-1 $-1 $201 $298 #
vertex $-1 $202 $419 #
straight-curve $-1 44.580217902157656 19.423081356693718 0 0 0 1 I I #
edge $-1 $409 -1.7648190170967908 $206 1.7648190170967908 $312 $420 forward 7 unknown #
point $-1 44.580217902157649 -19.423081356693718 1.3111064909837806 #
point $-1 44.580217902157649 19.423081356693718 1.3111064909837806 #
plane-surface $-1 0 0 4.4572258050331968 0 0 1 1 0 0 forward_v I I I I #
coedge $-1 $331 $330 $323 $421 forward $209 $-1 #
coedge $-1 $323 $211 $213 $327 reversed $124 $-1 #
coedge $-1 $211 $322 $321 $421 reversed $124 $-1 #
coedge $-1 $219 $214 $211 $325 forward $220 $-1 #
edge $-1 $328 -3.2492724611919996 $422 3.3998609033967035 $324 $423 forward 7 unknown #
coedge $-1 $213 $212 $331 $424 reversed $77 $-1 #
edge $-1 $425 -38.846162713387429 $328 -31.089061630465263 $322 $426 forward 7 unknown #
vertex $-1 $215 $427 #
straight-curve $-1 0.23141699575921848 12.773947992105015 4.457225805033195 1 0 0 I I #
coedge $-1 $321 $216 $219 $335 reversed $209 $-1 #
coedge $-1 $216 $321 $326 $424 forward $209 $-1 #
vertex $-1 $217 $428 #
straight-curve $-1 -9.366779787650632 19.423081356693718 48.447343095857235 0 0 1 I I #
straight-curve $-1 -9.366779787650632 -13.874578919060284 20.469276470946241 0 0.85716729658548041 -0.51503808176128008 I I #
edge $-1 $422 -10.292447770687506 $221 9.366779787650632 $330 $429 forward 7 unknown #
point $-1 -9.366779787650632 19.423081356693718 4.4572258050331968 #
point $-1 -9.366779787650632 12.773947992105015 4.4572258050331968 #
edge $-1 $430 1 $430 0 $224 $-1 forward 7 unknown #
vertex $-1 $225 $431 #
ellipse-curve $-1 -3.7498576281254543 13.41803593920735 -2.0014411069445988 0 0.51503808176128008 0.85716729658548041 1.5 0 0 1 I I #
point $-1 -2.2498576281254543 16.098514674399379 2.4596245741449128 #
edge $-1 $432 1 $432 0 $228 $-1 forward 7 unknown #
vertex $-1 $229 $433 #
ellipse-curve $-1 4.6755256111623211 13.41803593920735 -2.0014411069445988 0 0.51503808176128008 0.85716729658548041 1.5 0 0 1 I I #
point $-1 6.1755256111623211 16.098514674399379 2.4596245741449128 #
loop $-1 $-1 $240 $232 #
plane-surface $-1 0 -19.423081356693718 0 0 1 0 0 0 1 forward_v I I I I #
coedge $-1 $349 $235 $237 $353 reversed $146 $-1 #
coedge $-1 $235 $348 $434 $435 reversed $146 $-1 #
coedge $-1 $243 $238 $235 $351 forward $233 $-1 #
edge $-1 $354 -28.844680951777498 $436 -25.418150794667906 $350 $437 forward 7 unknown #
coedge $-1 $237 $236 $357 $438 reversed $91 $-1 #
edge $-1 $439 -5.7742264423945871e-015 $354 5.5656076484218788 $348 $440 forward 7 unknown #
vertex $-1 $239 $441 #
straight-curve $-1 13.234816541106731 -15.996551199584124 4.4572258050331968 -1 0 0 I I #
coedge $-1 $434 $240 $243 $361 reversed $346 $-1 #
coedge $-1 $240 $434 $352 $438 forward $346 $-1 #
vertex $-1 $241 $442 #
straight-curve $-1 30.63582783153182 -19.423081356693721 27.482055793874178 0 0 1 I I #
straight-curve $-1 30.63582783153182 -19.423081356693714 0.071467081780099306 0 -0.61566146476048833 -0.78801076186113728 I I #
edge $-1 $436 22.303438332895105 $244 30.63582783153182 $356 $443 forward 7 unknown #
point $-1 30.63582783153182 -19.423081356693718 4.4572258050331968 #
point $-1 30.63582783153182 -15.996551199584124 4.4572258050331968 #
edge $-1 $444 1 $444 0 $247 $-1 forward 7 unknown #
vertex $-1 $248 $445 #
ellipse-curve $-1 26.469633082213448 -16.480123163534426 1.3036049145026243 0 -0.78801076186113728 0.61566146476048833 1 0 0 1 I I #
point $-1 27.469633082213448 -17.709816278138923 2.2643464434066454 #
plane-surface $-1 44.580217902157656 0 0 -1 0 0 0 0 1 forward_v I I I I #
coedge $-1 $256 $254 $258 $373 reversed $161 $-1 #
edge $-1 $269 -4.4572258050331968 $375 4.4572258050331968 $268 $446 forward 7 unknown #
vertex $-1 $373 $447 #
straight-curve $-1 -44.580217902157656 -19.423081356693718 0 0 0 -1 I I #
edge $-1 $371 -19.423081356693718 $375 19.423081356693718 $369 $448 forward 7 unknown #
straight-curve $-1 0 -19.423081356693718 -4.4572258050331968 -1 0 0 I I #
vertex $-1 $261 $449 #
straight-curve $-1 0 19.423081356693718 -4.4572258050331968 1 0 0 I I #
point $-1 44.580217902157656 19.423081356693718 -4.4572258050331968 #
point $-1 44.580217902157656 -19.423081356693718 -4.4572258050331968 #
straight-curve $-1 -44.580217902157656 0 4.4572258050331968 0 -1 0 I I #
point $-1 -44.580217902157656 19.423081356693718 4.4572258050331968 #
point $-1 -44.580217902157656 -19.423081356693718 4.4572258050331968 #
straight-curve $-1 44.580217902157656 -19.423081356693718 0 0 0 -1 I I #
straight-curve $-1 44.580217902157656 19.423081356693718 0 0 0 -1 I I #
plane-surface $-1 0 -19.423081356693718 0 0 1 0 0 0 1 forward_v I I I I #
coedge $-1 $450 $398 $282 $387 forward $279 $-1 #
coedge $-1 $388 $281 $290 $396 forward $180 $-1 #
edge $-1 $391 -1.5000000000000002 $389 1.5000000000000002 $282 $451 forward 7 unknown #
coedge $-1 $283 $386 $450 $452 forward $180 $-1 #
vertex $-1 $284 $453 #
straight-curve $-1 -46.345036919254447 19.423081356693718 -1.6888935090162198 1 0 0 I I #
vertex $-1 $285 $454 #
straight-curve $-1 -46.345036919254447 19.423081356693718 1.3111064909837806 -1 0 0 I I #
point $-1 -44.580217902157656 19.423081356693718 -1.6888935090162198 #
straight-curve $-1 -44.580217902157656 0 -1.6888935090162198 0 1 0 I I #
coedge $-1 $290 $289 $455 $456 forward $291 $-1 #
edge $-1 $292 -1.7648190170967908 $457 1.7648190170967908 $290 $458 forward 7 unknown #
point $-1 -44.580217902157656 -19.423081356693718 -1.6888935090162198 #
coedge $-1 $385 $455 $294 $399 reversed $279 $-1 #
edge $-1 $391 -19.423081356693718 $400 19.423081356693718 $398 $459 forward 7 unknown #
vertex $-1 $399 $460 #
straight-curve $-1 -46.345036919254447 -19.423081356693718 1.3111064909837806 1 0 0 I I #
plane-surface $-1 0 19.423081356693718 0 0 -1 0 0 0 -1 forward_v I I I I #
coedge $-1 $405 $302 $304 $411 forward $299 $-1 #
coedge $-1 $301 $310 $313 $418 forward $194 $-1 #
coedge $-1 $407 $403 $301 $406 reversed $299 $-1 #
edge $-1 $461 -19.423081356693718 $412 19.423081356693718 $405 $462 forward 7 unknown #
coedge $-1 $302 $405 $417 $463 reversed $299 $-1 #
vertex $-1 $303 $464 #
vertex $-1 $303 $465 #
straight-curve $-1 48.109855936351231 0 1.3111064909837806 0 1 0 I I #
edge $-1 $408 -1.5000000000000002 $412 1.5000000000000002 $403 $466 forward 7 unknown #
vertex $-1 $411 $467 #
straight-curve $-1 46.34503691925444 -19.423081356693718 -1.6888935090162198 -1 0 0 I I #
straight-curve $-1 46.34503691925444 -19.423081356693718 1.3111064909837806 1 0 0 I I #
point $-1 44.580217902157649 -19.423081356693718 -1.6888935090162198 #
straight-curve $-1 44.580217902157656 0 -1.6888935090162198 0 -1 0 I I #
coedge $-1 $313 $312 $407 $463 forward $314 $-1 #
edge $-1 $315 -1.7648190170967908 $461 1.7648190170967908 $313 $468 forward 7 unknown #
point $-1 44.580217902157649 19.423081356693718 -1.6888935090162198 #
straight-curve $-1 46.34503691925444 19.423081356693718 1.3111064909837806 -1 0 0 I I #
edge $-1 $422 43.990117290824038 $425 47.985319752600617 $321 $469 forward 7 unknown #
vertex $-1 $335 $470 #
straight-curve $-1 10.292447770687506 16.023220453297014 4.4572258050331968 0 1 0 I I #
edge $-1 $425 -10.061030774928287 $332 9.5981967834098505 $331 $471 forward 7 unknown #
vertex $-1 $424 $472 #
straight-curve $-1 10.292447770687506 -13.874578919060284 20.469276470946241 0 -0.85716729658548041 0.51503808176128008 I I #
point $-1 10.292447770687506 12.773947992105015 4.4572258050331968 #
point $-1 -9.366779787650632 19.423081356693714 0.46202334325661454 #
straight-curve $-1 0 19.423081356693718 4.4572258050331968 -1 0 0 I I #
vertex $-1 $338 $473 #
point $-1 -2.2498576281254543 13.41803593920735 -2.0014411069445988 #
vertex $-1 $342 $474 #
point $-1 6.1755256111623211 13.41803593920735 -2.0014411069445988 #
coedge $-1 $357 $356 $349 $435 forward $346 $-1 #
edge $-1 $436 23.024829988840981 $439 27.410588712094082 $434 $475 forward 7 unknown #
vertex $-1 $361 $476 #
straight-curve $-1 22.303438332895105 -44.841232151361623 4.4572258050331968 0 -1 0 I I #
edge $-1 $439 9.0686217917883738 $358 17.401011290425089 $357 $477 forward 7 unknown #
vertex $-1 $438 $478 #
straight-curve $-1 22.303438332895105 -19.423081356693714 0.071467081780099306 0 0.61566146476048833 0.78801076186113728 I I #
point $-1 22.303438332895105 -15.996551199584124 4.4572258050331968 #
point $-1 30.63582783153182 -19.423081356693718 0.071467081780094754 #
straight-curve $-1 0 -19.423081356693718 4.4572258050331968 1 0 0 I I #
vertex $-1 $364 $479 #
point $-1 27.469633082213448 -16.480123163534426 1.3036049145026243 #
straight-curve $-1 -44.580217902157656 19.423081356693718 0 0 0 -1 I I #
point $-1 -44.580217902157656 -19.423081356693718 -4.4572258050331968 #
straight-curve $-1 -44.580217902157656 0 -4.4572258050331968 0 1 0 I I #
point $-1 -44.580217902157656 19.423081356693718 -4.4572258050331968 #
coedge $-1 $455 $385 $388 $452 reversed $279 $-1 #
straight-curve $-1 -48.109855936351238 19.423081356693718 -0.1888935090162196 0 0 -1 I I #
edge $-1 $457 -19.423081356693718 $389 19.423081356693718 $450 $480 forward 7 unknown #
point $-1 -48.109855936351238 19.423081356693718 -1.6888935090162198 #
point $-1 -48.109855936351238 19.423081356693718 1.3111064909837806 #
coedge $-1 $398 $450 $395 $456 reversed $279 $-1 #
edge $-1 $400 -1.5000000000000002 $457 1.5000000000000002 $455 $481 forward 7 unknown #
vertex $-1 $452 $482 #
straight-curve $-1 -46.345036919254447 -19.423081356693718 -1.6888935090162198 -1 0 0 I I #
straight-curve $-1 -48.109855936351238 0 1.3111064909837806 0 -1 0 I I #
point $-1 -48.109855936351238 -19.423081356693718 1.3111064909837806 #
vertex $-1 $406 $483 #
straight-curve $-1 48.109855936351231 0 -1.6888935090162198 0 -1 0 I I #
edge $-1 $409 -1.5000000000000002 $461 1.5000000000000002 $407 $484 forward 7 unknown #
point $-1 48.109855936351231 -19.423081356693718 1.3111064909837806 #
point $-1 48.109855936351231 19.423081356693718 1.3111064909837806 #
straight-curve $-1 48.109855936351231 -19.423081356693718 -0.1888935090162196 0 0 -1 I I #
point $-1 48.109855936351231 -19.423081356693718 -1.6888935090162198 #
straight-curve $-1 46.34503691925444 19.423081356693718 -1.6888935090162198 1 0 0 I I #
straight-curve $-1 10.292447770687506 19.423081356693718 48.447343095857235 0 0 -1 I I #
point $-1 10.292447770687506 19.423081356693718 4.4572258050331968 #
straight-curve $-1 0.23141699575921848 19.423081356693714 0.46202334325661276 -1 0 0 I I #
point $-1 10.292447770687506 19.423081356693714 0.46202334325661454 #
point $-1 -3.7498576281254543 12.645478816565429 -3.287192051822819 #
point $-1 4.6755256111623211 12.645478816565429 -3.287192051822819 #
straight-curve $-1 22.303438332895105 -19.423081356693721 27.482055793874178 0 0 -1 I I #
point $-1 22.303438332895105 -19.423081356693718 4.4572258050331968 #
straight-curve $-1 13.234816541106731 -19.423081356693718 0.071467081780094713 1 0 0 I I #
point $-1 22.303438332895105 -19.423081356693718 0.071467081780094754 #
point $-1 26.469633082213448 -15.692112401673288 0.68794344974213606 #
straight-curve $-1 -48.109855936351238 0 -1.6888935090162198 0 1 0 I I #
straight-curve $-1 -48.109855936351238 -19.423081356693718 -0.1888935090162196 0 0 -1 I I #
point $-1 -48.109855936351238 -19.423081356693718 -1.6888935090162198 #
point $-1 48.109855936351231 19.423081356693718 -1.6888935090162198 #
straight-curve $-1 48.109855936351231 19.423081356693718 -0.1888935090162196 0 0 -1 I I #
End-of-ACIS-data 