500 0 11 0           
7 Unknown 11 ACIS 5.0 NT 24 Fri Mar 26 03:35:52 1999 
-1 9.9999999999999995e-007 1e-010 
body $-1 $11 $-1 $12 #
body $-1 $13 $-1 $14 #
body $-1 $15 $-1 $16 #
body $-1 $17 $-1 $18 #
body $-1 $19 $-1 $20 #
body $-1 $21 $-1 $22 #
body $-1 $23 $-1 $24 #
body $-1 $25 $-1 $26 #
body $-1 $27 $-1 $28 #
body $-1 $29 $-1 $30 #
body $-1 $31 $-1 $32 #
lump $-1 $-1 $33 $0 #
transform $-1 1 0 0 0 1 0 0 0 1 70.181585131382178 41.045100456716895 20.433487859436283 1 rotate no_reflect no_shear #
lump $-1 $-1 $34 $1 #
transform $-1 1 0 0 0 1 0 0 0 1 70.181585131382178 41.045100456716895 20.433487859436283 1 rotate no_reflect no_shear #
lump $-1 $-1 $35 $2 #
transform $-1 1 0 0 0 1 0 0 0 1 70.181585131382178 41.045100456716895 20.433487859436283 1 rotate no_reflect no_shear #
lump $-1 $-1 $36 $3 #
transform $-1 1 0 0 0 1 0 0 0 1 70.181585131382178 41.045100456716895 20.433487859436283 1 rotate no_reflect no_shear #
lump $-1 $-1 $37 $4 #
transform $-1 1 0 0 0 1 0 0 0 1 70.181585131382178 41.045100456716895 20.433487859436283 1 rotate no_reflect no_shear #
lump $-1 $-1 $38 $5 #
transform $-1 1 0 0 0 1 0 0 0 1 70.181585131382178 41.045100456716895 20.433487859436283 1 rotate no_reflect no_shear #
lump $-1 $-1 $39 $6 #
transform $-1 1 0 0 0 1 0 0 0 1 70.181585131382178 41.045100456716895 20.433487859436283 1 rotate no_reflect no_shear #
lump $-1 $-1 $40 $7 #
transform $-1 1 0 0 0 1 0 0 0 1 70.181585131382178 41.045100456716895 20.433487859436283 1 rotate no_reflect no_shear #
lump $-1 $-1 $41 $8 #
transform $-1 1 0 0 0 1 0 0 0 1 70.181585131382178 41.045100456716895 20.433487859436283 1 rotate no_reflect no_shear #
lump $-1 $-1 $42 $9 #
transform $-1 1 0 0 0 1 0 0 0 1 70.181585131382178 41.045100456716895 20.433487859436283 1 rotate no_reflect no_shear #
lump $-1 $-1 $43 $10 #
transform $-1 1 0 0 0 1 0 0 0 1 70.181585131382178 41.045100456716895 20.433487859436283 1 rotate no_reflect no_shear #
shell $-1 $-1 $-1 $44 $-1 $11 #
shell $-1 $-1 $-1 $45 $-1 $13 #
shell $-1 $-1 $-1 $46 $-1 $15 #
shell $-1 $-1 $-1 $47 $-1 $17 #
shell $-1 $-1 $-1 $48 $-1 $19 #
shell $-1 $-1 $-1 $49 $-1 $21 #
shell $-1 $-1 $-1 $50 $-1 $23 #
shell $-1 $-1 $-1 $51 $-1 $25 #
shell $-1 $-1 $-1 $52 $-1 $27 #
shell $-1 $-1 $-1 $53 $-1 $29 #
shell $-1 $-1 $-1 $54 $-1 $31 #
face $-1 $55 $56 $33 $-1 $57 forward single #
face $-1 $58 $59 $34 $-1 $60 reversed single #
face $-1 $61 $62 $35 $-1 $63 reversed single #
face $-1 $64 $65 $36 $-1 $66 reversed single #
face $-1 $67 $68 $37 $-1 $69 forward single #
face $-1 $70 $71 $38 $-1 $72 forward single #
face $-1 $73 $74 $39 $-1 $75 forward single #
face $-1 $76 $77 $40 $-1 $78 reversed single #
face $-1 $79 $80 $41 $-1 $81 forward single #
face $-1 $82 $83 $42 $-1 $84 forward single #
face $-1 $85 $86 $43 $-1 $87 forward single #
face $-1 $88 $89 $33 $-1 $90 reversed single #
loop $-1 $-1 $91 $44 #
plane-surface $-1 0 0 20.433487859436283 0 0 1 1 0 0 forward_v I I I I #
face $-1 $92 $93 $34 $-1 $94 reversed single #
loop $-1 $-1 $95 $45 #
plane-surface $-1 0 -31.197739509836929 8.9648677470398894 0 0 1 1 0 0 forward_v I I I I #
face $-1 $96 $97 $35 $-1 $98 reversed single #
loop $-1 $-1 $99 $46 #
plane-surface $-1 0 31.197739509836921 8.9648677470398894 0 0 1 1 0 0 forward_v I I I I #
face $-1 $100 $101 $36 $-1 $102 reversed single #
loop $-1 $-1 $103 $47 #
plane-surface $-1 -27.32286479827934 15.114549029951007 106.70371899873344 0.71933980857756763 0 0.69465836192734942 0.69465836192734942 0 -0.71933980857756763 forward_v I I I I #
face $-1 $104 $105 $37 $-1 $106 forward single #
loop $-1 $107 $108 $48 #
cone-surface $-1 62.321231870545674 11.373051310147432 12.347158377414488 -0.71933980857756763 0 -0.69465836192734942 0.69465836192734942 0 -0.71933980857756763 1 I I 0 1 1 forward I I I I #
face $-1 $109 $110 $38 $-1 $111 forward single #
loop $-1 $112 $113 $49 #
cone-surface $-1 62.321231870545674 15.114549029951007 12.347158377414488 -0.71933980857756763 0 -0.69465836192734942 0.69465836192734942 0 -0.71933980857756763 1 I I 0 1 1 forward I I I I #
face $-1 $114 $115 $39 $-1 $116 forward single #
loop $-1 $117 $118 $50 #
cone-surface $-1 62.321231870545674 18.856046749754583 12.347158377414488 -0.71933980857756763 0 -0.69465836192734942 0.69465836192734942 0 -0.71933980857756763 1 I I 0 1 1 forward I I I I #
face $-1 $119 $120 $40 $-1 $121 reversed single #
loop $-1 $-1 $122 $51 #
plane-surface $-1 -179.26425719993199 -18.138699138220154 90.399862910645581 0 1 0 -0.77714596973225614 0 0.62932038083071107 forward_v I I I I #
face $-1 $123 $124 $41 $-1 $125 forward single #
loop $-1 $126 $127 $52 #
cone-surface $-1 -62.123865788793424 -16.626484922504204 10.747052083064112 0.77714596973225614 0 -0.62932038083071107 0.31466019041535553 0 0.38857298486612807 1 I I 0 1 0.5 forward I I I I #
face $-1 $128 $129 $42 $-1 $130 forward single #
loop $-1 $131 $132 $53 #
cone-surface $-1 -62.123865788793424 -14.358163598930286 10.747052083064112 0.77714596973225614 0 -0.62932038083071107 0.31466019041535553 0 0.38857298486612807 1 I I 0 1 0.5 forward I I I I #
face $-1 $133 $134 $43 $-1 $135 forward single #
loop $-1 $136 $137 $54 #
cone-surface $-1 -62.123865788793424 -12.089842275356368 10.747052083064112 0.77714596973225614 0 -0.62932038083071107 0.31466019041535553 0 0.38857298486612807 1 I I 0 1 0.5 forward I I I I #
face $-1 $138 $139 $33 $-1 $140 reversed single #
loop $-1 $-1 $141 $55 #
plane-surface $-1 0 0 -20.433487859436283 0 0 1 1 0 0 forward_v I I I I #
coedge $-1 $142 $143 $144 $145 forward $56 $-1 #
face $-1 $146 $147 $34 $-1 $148 reversed single #
loop $-1 $-1 $149 $58 #
plane-surface $-1 0 -21.350378562956962 14.699177803238086 0 -1 0 0 0 -1 forward_v I I I I #
coedge $-1 $150 $151 $152 $153 reversed $59 $-1 #
face $-1 $154 $155 $35 $-1 $156 forward single #
loop $-1 $-1 $157 $61 #
plane-surface $-1 0 21.350378562956955 14.699177803238086 0 1 0 0 0 1 forward_v I I I I #
coedge $-1 $158 $159 $160 $161 reversed $62 $-1 #
face $-1 $162 $163 $36 $-1 $164 forward single #
loop $-1 $-1 $165 $64 #
plane-surface $-1 73.645951229878108 8.8787194969450525 204.20816892839497 0 1 0 0.71933980857756763 0 0.69465836192734942 forward_v I I I I #
coedge $-1 $166 $167 $168 $169 reversed $65 $-1 #
face $-1 $-1 $170 $37 $-1 $171 forward single #
loop $-1 $172 $173 $67 #
cone-surface $-1 61.198337753329014 11.373051310147432 11.262792158859142 -0.71933980857756763 0 -0.69465836192734942 0.34732918096367471 0 -0.35966990428878381 1 I I -0.70710678118654746 0.70710678118654746 0.5 forward I I I I #
loop $-1 $-1 $174 $48 #
coedge $-1 $108 $108 $175 $176 reversed $68 $-1 #
face $-1 $-1 $177 $38 $-1 $178 forward single #
loop $-1 $179 $180 $70 #
cone-surface $-1 61.198337753329014 15.114549029951007 11.262792158859142 -0.71933980857756763 0 -0.69465836192734942 0.34732918096367471 0 -0.35966990428878381 1 I I -0.70710678118654746 0.70710678118654746 0.5 forward I I I I #
loop $-1 $-1 $181 $49 #
coedge $-1 $113 $113 $182 $183 reversed $71 $-1 #
face $-1 $-1 $184 $39 $-1 $185 forward single #
loop $-1 $186 $187 $73 #
cone-surface $-1 61.198337753329014 18.856046749754583 11.262792158859142 -0.71933980857756763 0 -0.69465836192734942 0.34732918096367471 0 -0.35966990428878381 1 I I -0.70710678118654746 0.70710678118654746 0.5 forward I I I I #
loop $-1 $-1 $188 $50 #
coedge $-1 $118 $118 $189 $190 reversed $74 $-1 #
face $-1 $191 $192 $40 $-1 $193 reversed single #
loop $-1 $-1 $194 $76 #
plane-surface $-1 -70.181585131382207 -14.35816359893029 2.0664591462767703 -0.77714596973225614 0 0.62932038083071107 0.62932038083071107 0 0.77714596973225614 forward_v I I I I #
coedge $-1 $195 $196 $197 $198 reversed $77 $-1 #
face $-1 $-1 $199 $41 $-1 $200 forward single #
loop $-1 $201 $202 $79 #
cone-surface $-1 -61.308523048400019 -16.626484922504204 10.086800568064028 0.77714596973225614 0 -0.62932038083071107 0.15733009520767777 0 0.19428649243306403 1 I I -0.70710678118654746 0.70710678118654746 0.25 forward I I I I #
loop $-1 $-1 $203 $52 #
coedge $-1 $127 $127 $204 $205 reversed $80 $-1 #
face $-1 $-1 $206 $42 $-1 $207 forward single #
loop $-1 $208 $209 $82 #
cone-surface $-1 -61.308523048400019 -14.358163598930286 10.086800568064028 0.77714596973225614 0 -0.62932038083071107 0.15733009520767777 0 0.19428649243306403 1 I I -0.70710678118654746 0.70710678118654746 0.25 forward I I I I #
loop $-1 $-1 $210 $53 #
coedge $-1 $132 $132 $211 $212 reversed $83 $-1 #
face $-1 $-1 $213 $43 $-1 $214 forward single #
loop $-1 $215 $216 $85 #
cone-surface $-1 -61.308523048400019 -12.089842275356368 10.086800568064028 0.77714596973225614 0 -0.62932038083071107 0.15733009520767777 0 0.19428649243306403 1 I I -0.70710678118654746 0.70710678118654746 0.25 forward I I I I #
loop $-1 $-1 $217 $54 #
coedge $-1 $137 $137 $218 $219 reversed $86 $-1 #
face $-1 $220 $221 $33 $-1 $222 reversed single #
loop $-1 $-1 $223 $88 #
plane-surface $-1 0 -41.045100456716895 0 0 1 0 0 0 1 forward_v I I I I #
coedge $-1 $224 $225 $226 $227 forward $89 $-1 #
coedge $-1 $228 $91 $229 $230 forward $56 $-1 #
coedge $-1 $91 $228 $231 $232 forward $56 $-1 #
coedge $-1 $233 $234 $91 $145 reversed $235 $-1 #
edge $-1 $236 -41.045100456716895 $237 41.045100456716895 $144 $238 forward 7 unknown #
face $-1 $239 $240 $34 $-1 $241 reversed single #
loop $-1 $-1 $242 $92 #
plane-surface $-1 -70.181585131382178 0 0 1 0 0 0 0 -1 forward_v I I I I #
coedge $-1 $243 $244 $245 $246 reversed $93 $-1 #
coedge $-1 $247 $95 $248 $249 reversed $59 $-1 #
coedge $-1 $95 $247 $243 $250 forward $59 $-1 #
coedge $-1 $245 $251 $95 $153 forward $252 $-1 #
edge $-1 $253 -25.446230701798431 $254 -5.7515088080384977 $152 $255 forward 7 unknown #
face $-1 $256 $257 $35 $-1 $258 reversed single #
loop $-1 $-1 $259 $96 #
plane-surface $-1 0 0 20.433487859436283 0 0 1 1 0 0 forward_v I I I I #
coedge $-1 $260 $261 $259 $262 reversed $97 $-1 #
coedge $-1 $263 $99 $264 $265 forward $62 $-1 #
coedge $-1 $99 $263 $266 $267 reversed $62 $-1 #
coedge $-1 $268 $269 $99 $161 forward $257 $-1 #
edge $-1 $270 5.7515088080384942 $271 25.446230701798427 $160 $272 forward 7 unknown #
face $-1 $273 $274 $36 $-1 $275 reversed single #
loop $-1 $-1 $168 $100 #
plane-surface $-1 0 0 20.433487859436283 0 0 1 1 0 0 forward_v I I I I #
coedge $-1 $276 $277 $278 $279 reversed $101 $-1 #
coedge $-1 $280 $103 $281 $282 reversed $65 $-1 #
coedge $-1 $103 $280 $276 $283 forward $65 $-1 #
coedge $-1 $278 $284 $103 $169 forward $163 $-1 #
edge $-1 $285 -13.793104047981451 $286 -1.3214449819695488 $168 $287 forward 7 unknown #
loop $-1 $-1 $175 $104 #
plane-surface $-1 -27.32286479827934 15.114549029951007 106.70371899873344 0.71933980857756763 0 0.69465836192734942 0.69465836192734942 0 -0.71933980857756763 forward_v I I I I #
loop $-1 $-1 $288 $67 #
coedge $-1 $173 $173 $174 $289 reversed $105 $-1 #
coedge $-1 $174 $174 $173 $289 forward $107 $-1 #
coedge $-1 $175 $175 $108 $176 forward $170 $-1 #
edge $-1 $290 0 $290 6.2831853071796004 $175 $291 forward 7 unknown #
loop $-1 $-1 $182 $109 #
plane-surface $-1 -27.32286479827934 15.114549029951007 106.70371899873344 0.71933980857756763 0 0.69465836192734942 0.69465836192734942 0 -0.71933980857756763 forward_v I I I I #
loop $-1 $-1 $292 $70 #
coedge $-1 $180 $180 $181 $293 reversed $110 $-1 #
coedge $-1 $181 $181 $180 $293 forward $112 $-1 #
coedge $-1 $182 $182 $113 $183 forward $177 $-1 #
edge $-1 $294 0 $294 6.2831853071796004 $182 $295 forward 7 unknown #
loop $-1 $-1 $189 $114 #
plane-surface $-1 -27.32286479827934 15.114549029951007 106.70371899873344 0.71933980857756763 0 0.69465836192734942 0.69465836192734942 0 -0.71933980857756763 forward_v I I I I #
loop $-1 $-1 $296 $73 #
coedge $-1 $187 $187 $188 $297 reversed $115 $-1 #
coedge $-1 $188 $188 $187 $297 forward $117 $-1 #
coedge $-1 $189 $189 $118 $190 forward $184 $-1 #
edge $-1 $298 0 $298 6.2831853071796004 $189 $299 forward 7 unknown #
face $-1 $300 $301 $40 $-1 $302 reversed single #
loop $-1 $-1 $303 $119 #
plane-surface $-1 -179.26425719993199 -10.577628059640427 90.399862910645581 0 -1 0 0.77714596973225614 0 -0.62932038083071107 forward_v I I I I #
coedge $-1 $304 $305 $306 $307 reversed $120 $-1 #
coedge $-1 $196 $122 $308 $309 reversed $77 $-1 #
coedge $-1 $122 $195 $304 $310 reversed $77 $-1 #
coedge $-1 $306 $311 $122 $198 forward $312 $-1 #
edge $-1 $313 19.450543468583817 $314 34.323869657840604 $197 $315 forward 7 unknown #
loop $-1 $-1 $204 $123 #
plane-surface $-1 -70.181585131382207 -14.35816359893029 2.0664591462767703 -0.77714596973225614 0 0.62932038083071107 0.62932038083071107 0 0.77714596973225614 forward_v I I I I #
loop $-1 $-1 $316 $79 #
coedge $-1 $202 $202 $203 $317 reversed $124 $-1 #
coedge $-1 $203 $203 $202 $317 forward $126 $-1 #
coedge $-1 $204 $204 $127 $205 forward $199 $-1 #
edge $-1 $318 0 $318 6.2831853071796004 $204 $319 forward 7 unknown #
loop $-1 $-1 $211 $128 #
plane-surface $-1 -70.181585131382207 -14.35816359893029 2.0664591462767703 -0.77714596973225614 0 0.62932038083071107 0.62932038083071107 0 0.77714596973225614 forward_v I I I I #
loop $-1 $-1 $320 $82 #
coedge $-1 $209 $209 $210 $321 reversed $129 $-1 #
coedge $-1 $210 $210 $209 $321 forward $131 $-1 #
coedge $-1 $211 $211 $132 $212 forward $206 $-1 #
edge $-1 $322 0 $322 6.2831853071796004 $211 $323 forward 7 unknown #
loop $-1 $-1 $218 $133 #
plane-surface $-1 -70.181585131382207 -14.35816359893029 2.0664591462767703 -0.77714596973225614 0 0.62932038083071107 0.62932038083071107 0 0.77714596973225614 forward_v I I I I #
loop $-1 $-1 $324 $85 #
coedge $-1 $216 $216 $217 $325 reversed $134 $-1 #
coedge $-1 $217 $217 $216 $325 forward $136 $-1 #
coedge $-1 $218 $218 $137 $219 forward $213 $-1 #
edge $-1 $326 0 $326 6.2831853071796004 $218 $327 forward 7 unknown #
face $-1 $328 $329 $33 $-1 $330 reversed single #
loop $-1 $-1 $331 $138 #
plane-surface $-1 -70.181585131382178 0 0 1 0 0 0 0 -1 forward_v I I I I #
coedge $-1 $332 $231 $333 $334 forward $139 $-1 #
coedge $-1 $335 $141 $332 $336 forward $89 $-1 #
coedge $-1 $141 $335 $337 $338 forward $89 $-1 #
coedge $-1 $234 $233 $141 $227 reversed $235 $-1 #
edge $-1 $339 -41.045100456716895 $340 41.045100456716895 $226 $341 forward 7 unknown #
coedge $-1 $143 $142 $342 $343 forward $56 $-1 #
coedge $-1 $344 $345 $142 $230 reversed $329 $-1 #
edge $-1 $237 -70.181585131382178 $346 70.181585131382178 $229 $347 forward 7 unknown #
coedge $-1 $223 $348 $143 $232 reversed $139 $-1 #
edge $-1 $349 -70.181585131382178 $236 70.181585131382178 $231 $350 forward 7 unknown #
coedge $-1 $226 $144 $348 $351 forward $235 $-1 #
coedge $-1 $144 $226 $344 $352 reversed $235 $-1 #
loop $-1 $-1 $233 $328 #
vertex $-1 $145 $353 #
vertex $-1 $145 $354 #
straight-curve $-1 70.181585131382178 0 20.433487859436283 0 1 0 I I #
face $-1 $355 $356 $34 $-1 $357 forward single #
loop $-1 $-1 $248 $146 #
plane-surface $-1 0 -41.045100456716895 0 0 1 0 0 0 1 forward_v I I I I #
coedge $-1 $358 $359 $360 $361 forward $147 $-1 #
coedge $-1 $360 $149 $151 $250 reversed $93 $-1 #
coedge $-1 $149 $360 $362 $363 reversed $93 $-1 #
coedge $-1 $364 $152 $149 $246 forward $252 $-1 #
edge $-1 $254 1.6152788454208462 $365 13.08389895781724 $245 $366 forward 7 unknown #
coedge $-1 $151 $150 $358 $367 reversed $59 $-1 #
coedge $-1 $368 $369 $150 $249 forward $240 $-1 #
edge $-1 $370 -70.181585131382178 $253 70.181585131382178 $248 $371 forward 7 unknown #
edge $-1 $372 -70.181585131382178 $254 70.181585131382178 $243 $373 forward 7 unknown #
coedge $-1 $152 $364 $368 $374 forward $252 $-1 #
loop $-1 $-1 $245 $355 #
vertex $-1 $249 $375 #
vertex $-1 $153 $376 #
straight-curve $-1 70.181585131382178 -15.598869754918464 8.9648677470398894 0 1 0 I I #
face $-1 $377 $378 $35 $-1 $379 reversed single #
loop $-1 $-1 $269 $154 #
plane-surface $-1 70.181585131382178 0 0 -1 0 0 0 0 1 forward_v I I I I #
coedge $-1 $380 $381 $157 $262 forward $155 $-1 #
coedge $-1 $264 $157 $382 $383 reversed $97 $-1 #
coedge $-1 $157 $264 $269 $384 reversed $97 $-1 #
edge $-1 $385 -70.181585131382178 $386 70.181585131382178 $259 $387 forward 7 unknown #
coedge $-1 $159 $158 $388 $389 reversed $62 $-1 #
coedge $-1 $261 $260 $158 $265 reversed $97 $-1 #
edge $-1 $270 -70.181585131382178 $390 70.181585131382178 $264 $391 forward 7 unknown #
coedge $-1 $392 $393 $159 $267 forward $394 $-1 #
edge $-1 $271 -70.181585131382178 $395 70.181585131382178 $266 $396 forward 7 unknown #
coedge $-1 $397 $160 $393 $398 reversed $257 $-1 #
coedge $-1 $160 $397 $261 $384 forward $257 $-1 #
vertex $-1 $161 $399 #
vertex $-1 $267 $400 #
straight-curve $-1 70.181585131382178 15.598869754918461 8.9648677470398894 0 1 0 I I #
face $-1 $-1 $401 $36 $-1 $402 forward single #
loop $-1 $-1 $403 $162 #
plane-surface $-1 70.181585131382178 0 0 -1 0 0 0 0 1 forward_v I I I I #
coedge $-1 $277 $165 $167 $283 reversed $101 $-1 #
coedge $-1 $165 $276 $403 $404 reversed $101 $-1 #
coedge $-1 $405 $168 $165 $279 forward $163 $-1 #
edge $-1 $286 19.164351420625863 $406 33.358609516443124 $278 $407 forward 7 unknown #
coedge $-1 $167 $166 $408 $409 reversed $65 $-1 #
coedge $-1 $410 $411 $166 $282 forward $401 $-1 #
edge $-1 $412 -97.781877484879459 $285 -77.348440166951164 $281 $413 forward 7 unknown #
edge $-1 $414 -140.36317026276433 $286 -119.92973294483602 $276 $415 forward 7 unknown #
coedge $-1 $168 $405 $410 $416 forward $163 $-1 #
vertex $-1 $282 $417 #
vertex $-1 $169 $418 #
straight-curve $-1 55.98732703556491 7.5572745149755036 20.433487859436291 0 -1 0 I I #
coedge $-1 $288 $288 $-1 $419 reversed $172 $-1 #
edge $-1 $420 0 $420 6.2831853071796004 $173 $421 forward 7 unknown #
vertex $-1 $176 $422 #
ellipse-curve $-1 63.084456083473547 11.373051310147432 13.084195415006155 0.71933980857756763 0 0.69465836192734942 0.69465836192734942 0 -0.71933980857756763 1 I I #
coedge $-1 $292 $292 $-1 $423 reversed $179 $-1 #
edge $-1 $424 0 $424 6.2831853071796004 $180 $425 forward 7 unknown #
vertex $-1 $183 $426 #
ellipse-curve $-1 63.084456083473547 15.114549029951007 13.084195415006155 0.71933980857756763 0 0.69465836192734942 0.69465836192734942 0 -0.71933980857756763 1 I I #
coedge $-1 $296 $296 $-1 $427 reversed $186 $-1 #
edge $-1 $428 0 $428 6.2831853071796004 $187 $429 forward 7 unknown #
vertex $-1 $190 $430 #
ellipse-curve $-1 63.084456083473547 18.856046749754583 13.084195415006155 0.71933980857756763 0 0.69465836192734942 0.69465836192734942 0 -0.71933980857756763 1 I I #
face $-1 $-1 $312 $40 $-1 $431 forward single #
loop $-1 $-1 $432 $191 #
plane-surface $-1 -70.181585131382178 0 0 1 0 0 0 0 -1 forward_v I I I I #
coedge $-1 $433 $434 $435 $436 reversed $192 $-1 #
coedge $-1 $437 $194 $196 $310 forward $120 $-1 #
coedge $-1 $194 $437 $433 $438 forward $120 $-1 #
coedge $-1 $435 $197 $194 $307 forward $312 $-1 #
edge $-1 $314 -10.95961733875501 $439 -3.3985462601752818 $306 $440 forward 7 unknown #
coedge $-1 $441 $442 $195 $309 forward $301 $-1 #
edge $-1 $443 -43.133472309045985 $313 -24.766443595886507 $308 $444 forward 7 unknown #
edge $-1 $314 -23.633949642031027 $443 -4.5151010033889764e-014 $196 $445 forward 7 unknown #
coedge $-1 $197 $435 $441 $446 forward $312 $-1 #
loop $-1 $-1 $435 $300 #
vertex $-1 $309 $447 #
vertex $-1 $198 $448 #
straight-curve $-1 -89.632128599965995 -18.138699138220154 20.433487859436283 1 0 0 I I #
coedge $-1 $316 $316 $-1 $449 reversed $201 $-1 #
edge $-1 $450 0 $450 6.2831853071796004 $202 $451 forward 7 unknown #
vertex $-1 $205 $452 #
ellipse-curve $-1 -62.744922036753792 -16.626484922504204 11.249973502856539 -0.77714596973225614 0 0.62932038083071107 0.31466019041535553 0 0.38857298486612807 1 I I #
coedge $-1 $320 $320 $-1 $453 reversed $208 $-1 #
edge $-1 $454 0 $454 6.2831853071796004 $209 $455 forward 7 unknown #
vertex $-1 $212 $456 #
ellipse-curve $-1 -62.744922036753792 -14.358163598930286 11.249973502856539 -0.77714596973225614 0 0.62932038083071107 0.31466019041535553 0 0.38857298486612807 1 I I #
coedge $-1 $324 $324 $-1 $457 reversed $215 $-1 #
edge $-1 $458 0 $458 6.2831853071796004 $216 $459 forward 7 unknown #
vertex $-1 $219 $460 #
ellipse-curve $-1 -62.744922036753792 -12.089842275356368 11.249973502856539 -0.77714596973225614 0 0.62932038083071107 0.31466019041535553 0 0.38857298486612807 1 I I #
face $-1 $-1 $235 $33 $-1 $461 reversed single #
loop $-1 $-1 $344 $220 #
plane-surface $-1 0 41.045100456716895 0 0 -1 0 0 0 -1 forward_v I I I I #
coedge $-1 $462 $342 $345 $463 forward $221 $-1 #
coedge $-1 $348 $223 $224 $336 reversed $139 $-1 #
coedge $-1 $342 $462 $223 $334 reversed $221 $-1 #
edge $-1 $349 -20.433487859436283 $464 20.433487859436283 $333 $465 forward 7 unknown #
coedge $-1 $225 $224 $462 $466 forward $89 $-1 #
edge $-1 $340 -70.181585131382178 $464 70.181585131382178 $332 $467 forward 7 unknown #
coedge $-1 $345 $344 $225 $338 reversed $329 $-1 #
edge $-1 $468 -70.181585131382178 $339 70.181585131382178 $337 $469 forward 7 unknown #
vertex $-1 $227 $470 #
vertex $-1 $351 $471 #
straight-curve $-1 70.181585131382178 0 -20.433487859436283 0 -1 0 I I #
coedge $-1 $331 $333 $228 $343 reversed $221 $-1 #
edge $-1 $346 -41.045100456716895 $349 41.045100456716895 $342 $472 forward 7 unknown #
coedge $-1 $337 $229 $234 $352 forward $329 $-1 #
coedge $-1 $229 $337 $331 $463 reversed $329 $-1 #
vertex $-1 $230 $473 #
straight-curve $-1 0 41.045100456716895 20.433487859436283 -1 0 0 I I #
coedge $-1 $231 $332 $233 $351 reversed $139 $-1 #
vertex $-1 $343 $474 #
straight-curve $-1 0 -41.045100456716895 20.433487859436283 1 0 0 I I #
edge $-1 $236 -20.433487859436283 $340 20.433487859436283 $233 $475 forward 7 unknown #
edge $-1 $237 -20.433487859436283 $339 20.433487859436283 $234 $476 forward 7 unknown #
point $-1 70.181585131382178 -41.045100456716895 20.433487859436283 #
point $-1 70.181585131382178 41.045100456716895 20.433487859436283 #
face $-1 $-1 $252 $34 $-1 $477 reversed single #
loop $-1 $-1 $362 $239 #
plane-surface $-1 0 0 20.433487859436283 0 0 1 1 0 0 forward_v I I I I #
coedge $-1 $478 $242 $247 $367 forward $147 $-1 #
coedge $-1 $242 $478 $479 $480 reversed $147 $-1 #
coedge $-1 $244 $243 $242 $361 reversed $93 $-1 #
edge $-1 $481 -13.08389895781724 $372 -1.6152788454208462 $242 $482 forward 7 unknown #
coedge $-1 $479 $483 $244 $363 forward $356 $-1 #
edge $-1 $365 -70.181585131382178 $481 70.181585131382178 $362 $484 forward 7 unknown #
coedge $-1 $251 $245 $483 $485 reversed $252 $-1 #
vertex $-1 $246 $486 #
straight-curve $-1 70.181585131382178 -21.350378562956962 7.3495889016190432 0 0 1 I I #
edge $-1 $372 5.7515088080384977 $370 25.446230701798431 $358 $487 forward 7 unknown #
coedge $-1 $488 $248 $251 $374 reversed $240 $-1 #
coedge $-1 $248 $488 $478 $489 forward $240 $-1 #
vertex $-1 $249 $490 #
straight-curve $-1 0 -41.045100456716895 8.9648677470398894 1 0 0 I I #
vertex $-1 $367 $491 #
straight-curve $-1 0 -21.350378562956962 8.9648677470398894 1 0 0 I I #
edge $-1 $492 -20.433487859436283 $253 -8.9648677470398894 $251 $493 forward 7 unknown #
point $-1 70.181585131382178 -41.045100456716895 8.9648677470398894 #
point $-1 70.181585131382178 -21.350378562956962 8.9648677470398894 #
face $-1 $-1 $394 $35 $-1 $494 reversed single #
loop $-1 $-1 $382 $256 #
plane-surface $-1 -70.181585131382178 0 0 1 0 0 0 0 -1 forward_v I I I I #
coedge $-1 $495 $259 $397 $496 forward $155 $-1 #
coedge $-1 $259 $495 $497 $498 forward $155 $-1 #
coedge $-1 $497 $388 $260 $383 forward $378 $-1 #
edge $-1 $390 1.6152788454208462 $385 13.08389895781724 $382 $499 forward 7 unknown #
edge $-1 $386 -13.08389895781724 $270 -1.6152788454208462 $269 $500 forward 7 unknown #
vertex $-1 $383 $501 #
vertex $-1 $496 $502 #
straight-curve $-1 0 21.350378562956955 20.433487859436283 1 0 0 I I #
coedge $-1 $382 $503 $263 $389 forward $378 $-1 #
edge $-1 $395 -25.446230701798427 $390 -5.7515088080384942 $388 $504 forward 7 unknown #
vertex $-1 $389 $505 #
straight-curve $-1 0 21.350378562956955 8.9648677470398894 -1 0 0 I I #
coedge $-1 $506 $266 $503 $507 reversed $394 $-1 #
coedge $-1 $266 $506 $268 $398 forward $394 $-1 #
loop $-1 $-1 $266 $377 #
vertex $-1 $267 $508 #
straight-curve $-1 0 41.045100456716895 8.9648677470398894 -1 0 0 I I #
coedge $-1 $269 $268 $380 $496 reversed $257 $-1 #
edge $-1 $509 -20.433487859436283 $271 -8.9648677470398894 $268 $510 forward 7 unknown #
point $-1 70.181585131382178 21.350378562956955 8.9648677470398894 #
point $-1 70.181585131382178 41.045100456716888 8.9648677470398894 #
loop $-1 $-1 $281 $273 #
plane-surface $-1 0 21.350378562956955 14.699177803238086 0 1 0 0 0 1 forward_v I I I I #
coedge $-1 $408 $511 $277 $404 forward $274 $-1 #
edge $-1 $406 81.670596604761201 $414 96.369181493621468 $403 $512 forward 7 unknown #
coedge $-1 $284 $278 $511 $513 forward $163 $-1 #
vertex $-1 $513 $514 #
straight-curve $-1 36.822975614939054 8.8787194969450525 20.433487859436283 1 0 0 I I #
coedge $-1 $515 $403 $280 $409 forward $274 $-1 #
edge $-1 $414 1.3214449819695488 $412 13.793104047981458 $408 $516 forward 7 unknown #
coedge $-1 $411 $281 $284 $416 reversed $401 $-1 #
coedge $-1 $281 $410 $515 $517 reversed $401 $-1 #
vertex $-1 $517 $518 #
straight-curve $-1 2.256586291555033 21.350378562956955 76.073300002904375 -0.69465836192734942 0 0.71933980857756763 I I #
vertex $-1 $409 $519 #
straight-curve $-1 -27.32286479827934 8.8787194969450525 106.70371899873344 -0.69465836192734942 0 0.71933980857756763 I I #
edge $-1 $520 -70.181585131382178 $285 -55.987327035564917 $284 $521 forward 7 unknown #
point $-1 55.987327035564917 21.350378562956955 20.433487859436283 #
point $-1 55.987327035564917 8.8787194969450525 20.433487859436283 #
edge $-1 $522 1 $522 0 $288 $-1 forward 7 unknown #
vertex $-1 $289 $523 #
ellipse-curve $-1 61.5580076576178 11.373051310147432 11.610121339822816 0.71933980857756763 0 0.69465836192734942 0.69465836192734942 0 -0.71933980857756763 1 I I #
point $-1 63.7791144454009 11.373051310147432 12.364855606428589 #
edge $-1 $524 1 $524 0 $292 $-1 forward 7 unknown #
vertex $-1 $293 $525 #
ellipse-curve $-1 61.5580076576178 15.114549029951007 11.610121339822816 0.71933980857756763 0 0.69465836192734942 0.69465836192734942 0 -0.71933980857756763 1 I I #
point $-1 63.7791144454009 15.114549029951007 12.364855606428589 #
edge $-1 $526 1 $526 0 $296 $-1 forward 7 unknown #
vertex $-1 $297 $527 #
ellipse-curve $-1 61.5580076576178 18.856046749754583 11.610121339822816 0.71933980857756763 0 0.69465836192734942 0.69465836192734942 0 -0.71933980857756763 1 I I #
point $-1 63.7791144454009 18.856046749754583 12.364855606428589 #
plane-surface $-1 0 0 20.433487859436283 0 0 1 1 0 0 forward_v I I I I #
coedge $-1 $442 $441 $434 $528 forward $301 $-1 #
coedge $-1 $434 $303 $305 $438 reversed $192 $-1 #
coedge $-1 $303 $433 $432 $528 reversed $192 $-1 #
coedge $-1 $311 $306 $303 $436 forward $312 $-1 #
edge $-1 $439 -34.323869657840604 $529 -19.450543468583817 $435 $530 forward 7 unknown #
coedge $-1 $305 $304 $442 $531 reversed $120 $-1 #
edge $-1 $532 4.5151010033889764e-014 $439 23.633949642031027 $433 $533 forward 7 unknown #
vertex $-1 $307 $534 #
straight-curve $-1 -55.308258942125391 -7.1790817994651448 20.433487859436283 0 1 0 I I #
coedge $-1 $432 $308 $311 $446 reversed $301 $-1 #
coedge $-1 $308 $432 $437 $531 forward $301 $-1 #
vertex $-1 $309 $535 #
straight-curve $-1 -70.181585131382178 -18.138699138220154 45.19993145532279 0 0 1 I I #
straight-curve $-1 -70.181585131382207 -18.138699138220154 2.0664591462767703 -0.62932038083071107 0 -0.77714596973225614 I I #
edge $-1 $529 10.577628059640427 $313 18.138699138220154 $441 $536 forward 7 unknown #
point $-1 -70.181585131382178 -18.138699138220154 20.433487859436283 #
point $-1 -55.308258942125391 -18.138699138220154 20.433487859436283 #
edge $-1 $537 1 $537 0 $316 $-1 forward 7 unknown #
vertex $-1 $317 $538 #
ellipse-curve $-1 -61.502809540833084 -16.626484922504204 10.244130663271706 -0.77714596973225614 0 0.62932038083071107 0.31466019041535553 0 0.38857298486612807 1 I I #
point $-1 -62.430261846338404 -16.626484922504204 11.638546487722646 #
edge $-1 $539 1 $539 0 $320 $-1 forward 7 unknown #
vertex $-1 $321 $540 #
ellipse-curve $-1 -61.502809540833084 -14.358163598930286 10.244130663271706 -0.77714596973225614 0 0.62932038083071107 0.31466019041535553 0 0.38857298486612807 1 I I #
point $-1 -62.430261846338404 -14.358163598930286 11.638546487722646 #
edge $-1 $541 1 $541 0 $324 $-1 forward 7 unknown #
vertex $-1 $325 $542 #
ellipse-curve $-1 -61.502809540833084 -12.089842275356368 10.244130663271706 -0.77714596973225614 0 0.62932038083071107 0.31466019041535553 0 0.38857298486612807 1 I I #
point $-1 -62.430261846338404 -12.089842275356368 11.638546487722646 #
plane-surface $-1 70.181585131382178 0 0 -1 0 0 0 0 1 forward_v I I I I #
coedge $-1 $333 $331 $335 $466 reversed $221 $-1 #
edge $-1 $346 -20.433487859436283 $468 20.433487859436283 $345 $543 forward 7 unknown #
vertex $-1 $466 $544 #
straight-curve $-1 -70.181585131382178 -41.045100456716895 0 0 0 -1 I I #
edge $-1 $464 -41.045100456716895 $468 41.045100456716895 $462 $545 forward 7 unknown #
straight-curve $-1 0 -41.045100456716895 -20.433487859436283 -1 0 0 I I #
vertex $-1 $338 $546 #
straight-curve $-1 0 41.045100456716895 -20.433487859436283 1 0 0 I I #
point $-1 70.181585131382178 41.045100456716895 -20.433487859436283 #
point $-1 70.181585131382178 -41.045100456716895 -20.433487859436283 #
straight-curve $-1 -70.181585131382178 0 20.433487859436283 0 -1 0 I I #
point $-1 -70.181585131382178 41.045100456716895 20.433487859436283 #
point $-1 -70.181585131382178 -41.045100456716895 20.433487859436283 #
straight-curve $-1 70.181585131382178 -41.045100456716895 0 0 0 -1 I I #
straight-curve $-1 70.181585131382178 41.045100456716895 0 0 0 -1 I I #
plane-surface $-1 70.181585131382178 0 0 -1 0 0 0 0 1 forward_v I I I I #
coedge $-1 $359 $358 $369 $489 reversed $147 $-1 #
coedge $-1 $547 $362 $359 $480 forward $356 $-1 #
edge $-1 $481 21.350378562956962 $548 41.045100456716895 $359 $549 forward 7 unknown #
vertex $-1 $480 $550 #
straight-curve $-1 -70.181585131382178 -21.350378562956962 7.3495889016190432 0 0 -1 I I #
coedge $-1 $362 $547 $364 $485 forward $356 $-1 #
straight-curve $-1 0 -21.350378562956962 20.433487859436283 -1 0 0 I I #
edge $-1 $492 -41.045100456716895 $365 -21.350378562956962 $364 $551 forward 7 unknown #
point $-1 70.181585131382178 -21.350378562956962 20.433487859436283 #
straight-curve $-1 -70.181585131382178 -15.598869754918464 8.9648677470398894 0 -1 0 I I #
coedge $-1 $369 $368 $547 $552 reversed $240 $-1 #
edge $-1 $548 -20.433487859436283 $370 -8.9648677470398894 $478 $553 forward 7 unknown #
point $-1 -70.181585131382178 -41.045100456716895 8.9648677470398894 #
point $-1 -70.181585131382178 -21.350378562956962 8.9648677470398894 #
vertex $-1 $485 $554 #
straight-curve $-1 70.181585131382178 -41.045100456716895 0 0 0 -1 I I #
plane-surface $-1 0 41.045100456716895 0 0 -1 0 0 0 -1 forward_v I I I I #
coedge $-1 $381 $380 $506 $555 forward $155 $-1 #
edge $-1 $386 21.350378562956955 $509 41.045100456716895 $397 $556 forward 7 unknown #
coedge $-1 $503 $382 $381 $498 reversed $378 $-1 #
edge $-1 $557 -41.045100456716895 $385 -21.350378562956955 $497 $558 forward 7 unknown #
straight-curve $-1 -70.181585131382178 21.350378562956955 7.3495889016190432 0 0 1 I I #
straight-curve $-1 70.181585131382178 21.350378562956955 7.3495889016190432 0 0 -1 I I #
point $-1 -70.181585131382178 21.350378562956955 20.433487859436283 #
point $-1 70.181585131382178 21.350378562956955 20.433487859436283 #
coedge $-1 $388 $497 $392 $507 forward $378 $-1 #
straight-curve $-1 -70.181585131382178 15.598869754918461 8.9648677470398894 0 -1 0 I I #
point $-1 -70.181585131382178 21.350378562956955 8.9648677470398894 #
coedge $-1 $393 $392 $495 $555 reversed $394 $-1 #
edge $-1 $557 -20.433487859436283 $395 -8.9648677470398894 $392 $559 forward 7 unknown #
point $-1 -70.181585131382178 41.045100456716888 8.9648677470398894 #
vertex $-1 $496 $560 #
straight-curve $-1 70.181585131382178 41.045100456716895 0 0 0 -1 I I #
coedge $-1 $403 $515 $405 $513 reversed $274 $-1 #
straight-curve $-1 70.181585131382178 8.8787194969450525 102.10408446419748 0 0 -1 I I #
edge $-1 $406 8.8787194969450525 $520 21.350378562956955 $511 $561 forward 7 unknown #
point $-1 70.181585131382178 8.8787194969450525 20.433487859436283 #
coedge $-1 $511 $408 $411 $517 forward $274 $-1 #
straight-curve $-1 70.181585131382178 7.5572745149755036 5.7349029705760088 0 1 0 I I #
edge $-1 $412 -96.369181493621468 $520 -81.670596604761201 $515 $562 forward 7 unknown #
point $-1 70.181585131382178 21.350378562956962 5.7349029705760159 #
point $-1 70.181585131382178 8.8787194969450525 5.7349029705760159 #
vertex $-1 $416 $563 #
straight-curve $-1 0 21.350378562956955 20.433487859436283 -1 0 0 I I #
vertex $-1 $419 $564 #
point $-1 62.252666019545146 11.373051310147432 10.890781531245249 #
vertex $-1 $423 $565 #
point $-1 62.252666019545146 15.114549029951007 10.890781531245249 #
vertex $-1 $427 $566 #
point $-1 62.252666019545146 18.856046749754583 10.890781531245249 #
edge $-1 $529 24.766443595886507 $532 43.133472309045985 $432 $567 forward 7 unknown #
vertex $-1 $446 $568 #
straight-curve $-1 -89.632128599965995 -10.577628059640427 20.433487859436283 -1 0 0 I I #
edge $-1 $532 3.3985462601752818 $443 10.95961733875501 $442 $569 forward 7 unknown #
vertex $-1 $531 $570 #
straight-curve $-1 -70.181585131382207 -10.577628059640427 2.0664591462767703 0.62932038083071107 0 0.77714596973225614 I I #
point $-1 -55.308258942125391 -10.577628059640427 20.433487859436283 #
point $-1 -70.181585131382178 -18.138699138220154 2.0664591462768054 #
straight-curve $-1 -70.181585131382178 0 20.433487859436283 0 -1 0 I I #
vertex $-1 $449 $571 #
point $-1 -61.188149350417724 -16.626484922504204 10.632703648137834 #
vertex $-1 $453 $572 #
point $-1 -61.188149350417724 -14.358163598930286 10.632703648137834 #
vertex $-1 $457 $573 #
point $-1 -61.188149350417724 -12.089842275356368 10.632703648137834 #
straight-curve $-1 -70.181585131382178 41.045100456716895 0 0 0 -1 I I #
point $-1 -70.181585131382178 -41.045100456716895 -20.433487859436283 #
straight-curve $-1 -70.181585131382178 0 -20.433487859436283 0 1 0 I I #
point $-1 -70.181585131382178 41.045100456716895 -20.433487859436283 #
coedge $-1 $483 $479 $488 $552 forward $356 $-1 #
vertex $-1 $480 $574 #
straight-curve $-1 -70.181585131382178 0 20.433487859436283 0 -1 0 I I #
point $-1 -70.181585131382178 -21.350378562956962 20.433487859436283 #
straight-curve $-1 70.181585131382178 0 20.433487859436283 0 1 0 I I #
edge $-1 $548 -70.181585131382178 $492 70.181585131382178 $488 $575 forward 7 unknown #
straight-curve $-1 -70.181585131382178 -41.045100456716895 0 0 0 -1 I I #
point $-1 70.181585131382178 -41.045100456716895 20.433487859436283 #
edge $-1 $509 -70.181585131382178 $557 70.181585131382178 $506 $576 forward 7 unknown #
straight-curve $-1 70.181585131382178 0 20.433487859436283 0 1 0 I I #
vertex $-1 $555 $577 #
straight-curve $-1 -70.181585131382178 0 20.433487859436283 0 -1 0 I I #
straight-curve $-1 -70.181585131382178 41.045100456716895 0 0 0 -1 I I #
point $-1 70.181585131382178 41.045100456716895 20.433487859436283 #
straight-curve $-1 70.181585131382178 0 20.433487859436283 0 1 0 I I #
straight-curve $-1 70.181585131382178 21.350378562956962 102.10408446419748 0 0 1 I I #
point $-1 70.181585131382178 21.350378562956955 20.433487859436283 #
point $-1 60.838667849040228 11.373051310147432 10.915462977895467 #
point $-1 60.838667849040228 15.114549029951007 10.915462977895467 #
point $-1 60.838667849040228 18.856046749754583 10.915462977895467 #
straight-curve $-1 -70.181585131382178 -10.577628059640427 45.19993145532279 0 0 -1 I I #
point $-1 -70.181585131382178 -10.577628059640427 20.433487859436283 #
straight-curve $-1 -70.181585131382178 -7.1790817994651448 2.0664591462768014 0 -1 0 I I #
point $-1 -70.181585131382178 -10.577628059640427 2.0664591462768054 #
point $-1 -61.114236555966954 -16.626484922504204 9.9294704728563499 #
point $-1 -61.114236555966954 -14.358163598930286 9.9294704728563499 #
point $-1 -61.114236555966954 -12.089842275356368 9.9294704728563499 #
point $-1 -70.181585131382178 -41.045100456716895 20.433487859436283 #
straight-curve $-1 0 -41.045100456716895 20.433487859436283 1 0 0 I I #
straight-curve $-1 0 41.045100456716895 20.433487859436283 -1 0 0 I I #
point $-1 -70.181585131382178 41.045100456716895 20.433487859436283 #
End-of-ACIS-data 