500 0 8 0           
7 Unknown 11 ACIS 5.0 NT 24 Fri Mar 26 01:36:19 1999 
-1 9.9999999999999995e-007 1e-010 
body $-1 $8 $-1 $9 #
body $-1 $10 $-1 $11 #
body $-1 $12 $-1 $13 #
body $-1 $14 $-1 $15 #
body $-1 $16 $-1 $17 #
body $-1 $18 $-1 $19 #
body $-1 $20 $-1 $21 #
body $-1 $22 $-1 $23 #
lump $-1 $-1 $24 $0 #
transform $-1 1 0 0 0 1 0 0 0 1 69.618823816644806 46.885994890402209 11.180121234066855 1 rotate no_reflect no_shear #
lump $-1 $-1 $25 $1 #
transform $-1 1 0 0 0 1 0 0 0 1 69.618823816644806 46.885994890402209 11.180121234066855 1 rotate no_reflect no_shear #
lump $-1 $-1 $26 $2 #
transform $-1 1 0 0 0 1 0 0 0 1 69.618823816644806 46.885994890402209 11.180121234066855 1 rotate no_reflect no_shear #
lump $-1 $-1 $27 $3 #
transform $-1 1 0 0 0 1 0 0 0 1 69.618823816644806 46.885994890402209 11.180121234066855 1 rotate no_reflect no_shear #
lump $-1 $-1 $28 $4 #
transform $-1 1 0 0 0 1 0 0 0 1 69.618823816644806 46.885994890402209 11.180121234066855 1 rotate no_reflect no_shear #
lump $-1 $-1 $29 $5 #
transform $-1 1 0 0 0 1 0 0 0 1 69.618823816644806 46.885994890402209 11.180121234066855 1 rotate no_reflect no_shear #
lump $-1 $-1 $30 $6 #
transform $-1 1 0 0 0 1 0 0 0 1 69.618823816644806 46.885994890402209 11.180121234066855 1 rotate no_reflect no_shear #
lump $-1 $-1 $31 $7 #
transform $-1 1 0 0 0 1 0 0 0 1 69.618823816644806 46.885994890402209 11.180121234066855 1 rotate no_reflect no_shear #
shell $-1 $-1 $-1 $32 $-1 $8 #
shell $-1 $-1 $-1 $33 $-1 $10 #
shell $-1 $-1 $-1 $34 $-1 $12 #
shell $-1 $-1 $-1 $35 $-1 $14 #
shell $-1 $-1 $-1 $36 $-1 $16 #
shell $-1 $-1 $-1 $37 $-1 $18 #
shell $-1 $-1 $-1 $38 $-1 $20 #
shell $-1 $-1 $-1 $39 $-1 $22 #
face $-1 $40 $41 $24 $-1 $42 forward single #
face $-1 $43 $44 $25 $-1 $45 reversed single #
face $-1 $46 $47 $26 $-1 $48 reversed single #
face $-1 $49 $50 $27 $-1 $51 forward single #
face $-1 $52 $53 $28 $-1 $54 forward single #
face $-1 $55 $56 $29 $-1 $57 reversed single #
face $-1 $58 $59 $30 $-1 $60 forward single #
face $-1 $61 $62 $31 $-1 $63 forward single #
face $-1 $64 $65 $24 $-1 $66 reversed single #
loop $-1 $-1 $67 $32 #
plane-surface $-1 0 0 11.180121234066855 0 0 1 1 0 0 forward_v I I I I #
face $-1 $68 $69 $25 $-1 $70 reversed single #
loop $-1 $-1 $71 $33 #
plane-surface $-1 -63.679486344736745 0 7.085099443026369 0 0 1 1 0 0 forward_v I I I I #
face $-1 $72 $73 $26 $-1 $74 reversed single #
loop $-1 $-1 $75 $34 #
plane-surface $-1 28.639502468786553 101.65273459331718 160.36505984518686 1 0 0 0 -0.79863551827123203 -0.60181501223851219 forward_v I I I I #
face $-1 $76 $77 $27 $-1 $78 forward single #
loop $-1 $79 $80 $35 #
cone-surface $-1 32.474891592666722 42.469738692174644 5.7994889487747168 0 -0.79863551827123203 -0.60181501223851219 1.5 0 0 1 I I 0 1 1.5 forward I I I I #
face $-1 $81 $82 $28 $-1 $83 forward single #
loop $-1 $84 $85 $36 #
cone-surface $-1 38.227975278486966 42.469738692174644 5.7994889487747168 0 -0.79863551827123203 -0.60181501223851219 1.5 0 0 1 I I 0 1 1.5 forward I I I I #
face $-1 $86 $87 $29 $-1 $88 reversed single #
loop $-1 $-1 $89 $37 #
plane-surface $-1 42.063364402367121 -158.08612577088161 85.47541818726944 -1 0 0 0 -0.79863551827123203 0.60181501223851219 forward_v I I I I #
face $-1 $90 $91 $30 $-1 $92 forward single #
loop $-1 $93 $94 $38 #
cone-surface $-1 32.474891592666722 -42.469738692174658 5.7994889487747061 0 0.79863551827123203 -0.60181501223851219 1.5 0 0 1 I I 0 1 1.5 forward I I I I #
face $-1 $95 $96 $31 $-1 $97 forward single #
loop $-1 $98 $99 $39 #
cone-surface $-1 38.227975278486966 -42.469738692174658 5.7994889487747061 0 0.79863551827123203 -0.60181501223851219 1.5 0 0 1 I I 0 1 1.5 forward I I I I #
face $-1 $100 $101 $24 $-1 $102 reversed single #
loop $-1 $-1 $103 $40 #
plane-surface $-1 0 0 -11.180121234066855 0 0 1 1 0 0 forward_v I I I I #
coedge $-1 $104 $105 $106 $107 forward $41 $-1 #
face $-1 $108 $109 $25 $-1 $110 reversed single #
loop $-1 $-1 $111 $43 #
plane-surface $-1 -57.740148872828684 0 9.1326103385466109 -1 0 0 0 0 1 forward_v I I I I #
coedge $-1 $112 $113 $114 $115 forward $44 $-1 #
face $-1 $116 $117 $26 $-1 $118 reversed single #
loop $-1 $-1 $119 $46 #
plane-surface $-1 35.351433435576837 -9.5473962871622575 76.569753230697032 0 0.79863551827123203 0.60181501223851219 1 0 0 forward_v I I I I #
coedge $-1 $120 $121 $122 $123 reversed $47 $-1 #
face $-1 $-1 $124 $27 $-1 $125 forward single #
loop $-1 $126 $127 $49 #
cone-surface $-1 32.474891592666722 41.033891131614432 4.7175002349473001 0 -0.79863551827123203 -0.60181501223851219 0.75 0 0 1 I I -0.70710678118654757 0.70710678118654757 0.75 forward I I I I #
loop $-1 $-1 $128 $35 #
coedge $-1 $80 $80 $129 $130 reversed $50 $-1 #
face $-1 $-1 $131 $28 $-1 $132 forward single #
loop $-1 $133 $134 $52 #
cone-surface $-1 38.227975278486966 41.033891131614432 4.7175002349473001 0 -0.79863551827123203 -0.60181501223851219 0.75 0 0 1 I I -0.70710678118654757 0.70710678118654757 0.75 forward I I I I #
loop $-1 $-1 $135 $36 #
coedge $-1 $85 $85 $136 $137 reversed $53 $-1 #
face $-1 $138 $139 $29 $-1 $140 reversed single #
loop $-1 $-1 $141 $55 #
plane-surface $-1 35.351433435576837 -46.885994890402173 1.6801115727796088 0 -0.79863551827123203 0.60181501223851219 1 0 0 forward_v I I I I #
coedge $-1 $142 $143 $144 $145 reversed $56 $-1 #
face $-1 $-1 $146 $30 $-1 $147 forward single #
loop $-1 $148 $149 $58 #
cone-surface $-1 32.474891592666722 -41.033891131614446 4.7175002349472894 0 0.79863551827123203 -0.60181501223851219 0.75 0 0 1 I I -0.70710678118654757 0.70710678118654757 0.75 forward I I I I #
loop $-1 $-1 $150 $38 #
coedge $-1 $94 $94 $151 $152 reversed $59 $-1 #
face $-1 $-1 $153 $31 $-1 $154 forward single #
loop $-1 $155 $156 $61 #
cone-surface $-1 38.227975278486966 -41.033891131614446 4.7175002349472894 0 0.79863551827123203 -0.60181501223851219 0.75 0 0 1 I I -0.70710678118654757 0.70710678118654757 0.75 forward I I I I #
loop $-1 $-1 $157 $39 #
coedge $-1 $99 $99 $158 $159 reversed $62 $-1 #
face $-1 $160 $161 $24 $-1 $162 reversed single #
loop $-1 $-1 $163 $64 #
plane-surface $-1 0 -46.885994890402209 0 0 1 0 0 0 1 forward_v I I I I #
coedge $-1 $164 $165 $166 $167 forward $65 $-1 #
coedge $-1 $168 $67 $169 $170 forward $41 $-1 #
coedge $-1 $67 $168 $171 $172 forward $41 $-1 #
coedge $-1 $173 $174 $67 $107 reversed $175 $-1 #
edge $-1 $176 -46.885994890402209 $177 46.885994890402209 $106 $178 forward 7 unknown #
face $-1 $179 $180 $25 $-1 $181 reversed single #
loop $-1 $-1 $182 $68 #
plane-surface $-1 0 46.885994890402209 0 0 -1 0 0 0 -1 forward_v I I I I #
coedge $-1 $114 $183 $184 $185 reversed $69 $-1 #
coedge $-1 $186 $71 $187 $188 reversed $44 $-1 #
coedge $-1 $71 $186 $189 $190 reversed $44 $-1 #
coedge $-1 $191 $111 $71 $115 reversed $69 $-1 #
edge $-1 $192 -46.885994890402209 $193 46.885994890402209 $114 $194 forward 7 unknown #
face $-1 $195 $196 $26 $-1 $197 forward single #
loop $-1 $-1 $198 $72 #
plane-surface $-1 42.063364402367121 101.65273459331718 160.36505984518686 -1 0 0 0 0.79863551827123203 0.60181501223851219 forward_v I I I I #
coedge $-1 $199 $200 $201 $202 reversed $73 $-1 #
coedge $-1 $121 $75 $203 $204 reversed $47 $-1 #
coedge $-1 $75 $120 $199 $205 reversed $47 $-1 #
coedge $-1 $201 $206 $75 $123 forward $196 $-1 #
edge $-1 $207 3.9403724062563796 $208 11.099142958997916 $122 $209 forward 7 unknown #
loop $-1 $-1 $129 $76 #
plane-surface $-1 35.351433435576837 -9.5473962871622575 76.569753230697032 0 0.79863551827123203 0.60181501223851219 1 0 0 forward_v I I I I #
loop $-1 $-1 $210 $49 #
coedge $-1 $127 $127 $128 $211 reversed $77 $-1 #
coedge $-1 $128 $128 $127 $211 forward $79 $-1 #
coedge $-1 $129 $129 $80 $130 forward $124 $-1 #
edge $-1 $212 4.9977769764609677e-016 $212 6.2831853071796013 $129 $213 forward 7 unknown #
loop $-1 $-1 $136 $81 #
plane-surface $-1 35.351433435576837 -9.5473962871622575 76.569753230697032 0 0.79863551827123203 0.60181501223851219 1 0 0 forward_v I I I I #
loop $-1 $-1 $214 $52 #
coedge $-1 $134 $134 $135 $215 reversed $82 $-1 #
coedge $-1 $135 $135 $134 $215 forward $84 $-1 #
coedge $-1 $136 $136 $85 $137 forward $131 $-1 #
edge $-1 $216 4.9977769764609677e-016 $216 6.2831853071796013 $136 $217 forward 7 unknown #
face $-1 $218 $219 $29 $-1 $220 reversed single #
loop $-1 $-1 $221 $86 #
plane-surface $-1 28.639502468786553 -158.08612577088161 85.47541818726944 1 0 0 0 0.79863551827123203 -0.60181501223851219 forward_v I I I I #
coedge $-1 $222 $223 $224 $225 reversed $87 $-1 #
coedge $-1 $143 $89 $226 $227 reversed $56 $-1 #
coedge $-1 $89 $142 $222 $228 reversed $56 $-1 #
coedge $-1 $224 $229 $89 $145 forward $230 $-1 #
edge $-1 $231 32.157067995038595 $232 39.31583854778016 $144 $233 forward 7 unknown #
loop $-1 $-1 $151 $90 #
plane-surface $-1 35.351433435576837 -46.885994890402173 1.6801115727796088 0 -0.79863551827123203 0.60181501223851219 1 0 0 forward_v I I I I #
loop $-1 $-1 $234 $58 #
coedge $-1 $149 $149 $150 $235 reversed $91 $-1 #
coedge $-1 $150 $150 $149 $235 forward $93 $-1 #
coedge $-1 $151 $151 $94 $152 forward $146 $-1 #
edge $-1 $236 -1.9587750766497755e-015 $236 6.2831853071795987 $151 $237 forward 7 unknown #
loop $-1 $-1 $158 $95 #
plane-surface $-1 35.351433435576837 -46.885994890402173 1.6801115727796088 0 -0.79863551827123203 0.60181501223851219 1 0 0 forward_v I I I I #
loop $-1 $-1 $238 $61 #
coedge $-1 $156 $156 $157 $239 reversed $96 $-1 #
coedge $-1 $157 $157 $156 $239 forward $98 $-1 #
coedge $-1 $158 $158 $99 $159 forward $153 $-1 #
edge $-1 $240 -1.9587750766497755e-015 $240 6.2831853071795987 $158 $241 forward 7 unknown #
face $-1 $242 $243 $24 $-1 $244 reversed single #
loop $-1 $-1 $245 $100 #
plane-surface $-1 -69.618823816644806 0 0 1 0 0 0 0 -1 forward_v I I I I #
coedge $-1 $246 $171 $247 $248 forward $101 $-1 #
coedge $-1 $249 $103 $246 $250 forward $65 $-1 #
coedge $-1 $103 $249 $251 $252 forward $65 $-1 #
coedge $-1 $174 $173 $103 $167 reversed $175 $-1 #
edge $-1 $253 -46.885994890402209 $254 46.885994890402209 $166 $255 forward 7 unknown #
coedge $-1 $105 $104 $256 $257 forward $41 $-1 #
coedge $-1 $258 $259 $104 $170 reversed $243 $-1 #
edge $-1 $177 -69.618823816644806 $260 69.618823816644806 $169 $261 forward 7 unknown #
coedge $-1 $163 $262 $105 $172 reversed $101 $-1 #
edge $-1 $263 -69.618823816644806 $176 69.618823816644806 $171 $264 forward 7 unknown #
coedge $-1 $166 $106 $262 $265 forward $175 $-1 #
coedge $-1 $106 $166 $258 $266 reversed $175 $-1 #
loop $-1 $-1 $173 $242 #
vertex $-1 $107 $267 #
vertex $-1 $107 $268 #
straight-curve $-1 69.618823816644806 0 11.180121234066855 0 1 0 I I #
face $-1 $269 $270 $25 $-1 $271 forward single #
loop $-1 $-1 $272 $108 #
plane-surface $-1 -69.618823816644806 0 0 1 0 0 0 0 -1 forward_v I I I I #
coedge $-1 $189 $273 $191 $274 forward $109 $-1 #
coedge $-1 $111 $191 $275 $276 reversed $69 $-1 #
coedge $-1 $277 $187 $111 $185 forward $278 $-1 #
edge $-1 $193 2.5187942737530635 $279 6.6138160647935473 $184 $280 forward 7 unknown #
coedge $-1 $113 $112 $272 $281 reversed $44 $-1 #
coedge $-1 $184 $282 $112 $188 forward $278 $-1 #
edge $-1 $283 -37.779080644276434 $193 -25.900405700460311 $187 $284 forward 7 unknown #
coedge $-1 $285 $182 $113 $190 forward $109 $-1 #
edge $-1 $192 25.900405700460311 $286 37.779080644276434 $189 $287 forward 7 unknown #
coedge $-1 $183 $114 $182 $274 reversed $69 $-1 #
vertex $-1 $190 $288 #
vertex $-1 $188 $289 #
straight-curve $-1 -57.740148872828684 0 7.085099443026369 0 -1 0 I I #
face $-1 $-1 $290 $26 $-1 $291 reversed single #
loop $-1 $-1 $122 $116 #
plane-surface $-1 0 0 11.180121234066855 0 0 1 1 0 0 forward_v I I I I #
coedge $-1 $292 $293 $294 $295 reversed $117 $-1 #
coedge $-1 $296 $119 $121 $205 forward $73 $-1 #
coedge $-1 $119 $296 $292 $297 forward $73 $-1 #
coedge $-1 $294 $122 $119 $202 forward $196 $-1 #
edge $-1 $208 10.963785750998134 $298 24.387647684578702 $201 $299 forward 7 unknown #
coedge $-1 $300 $301 $120 $204 forward $290 $-1 #
edge $-1 $302 -78.502418349813837 $207 -69.002408688526572 $203 $303 forward 7 unknown #
edge $-1 $208 81.87668905356972 $302 93.771989780804446 $121 $304 forward 7 unknown #
coedge $-1 $122 $294 $300 $305 forward $196 $-1 #
vertex $-1 $204 $306 #
vertex $-1 $123 $307 #
straight-curve $-1 28.639502468786553 50.826367296658589 11.18012123406686 0 -1 0 I I #
coedge $-1 $210 $210 $-1 $308 reversed $126 $-1 #
edge $-1 $309 0 $309 6.2831853071796004 $127 $310 forward 7 unknown #
vertex $-1 $130 $311 #
ellipse-curve $-1 32.474891592666722 43.306609614031423 6.4301164034232405 0 0.79863551827123203 0.60181501223851219 1.5 0 0 1 I I #
coedge $-1 $214 $214 $-1 $312 reversed $133 $-1 #
edge $-1 $313 0 $313 6.2831853071796004 $134 $314 forward 7 unknown #
vertex $-1 $137 $315 #
ellipse-curve $-1 38.227975278486966 43.306609614031423 6.4301164034232405 0 0.79863551827123203 0.60181501223851219 1.5 0 0 1 I I #
face $-1 $-1 $230 $29 $-1 $316 forward single #
loop $-1 $-1 $317 $138 #
plane-surface $-1 0 -46.885994890402209 0 0 1 0 0 0 1 forward_v I I I I #
coedge $-1 $318 $319 $320 $321 reversed $139 $-1 #
coedge $-1 $322 $141 $143 $228 forward $87 $-1 #
coedge $-1 $141 $322 $318 $323 forward $87 $-1 #
coedge $-1 $320 $144 $141 $225 forward $230 $-1 #
edge $-1 $232 -24.387647684578702 $324 -10.963785750998134 $224 $325 forward 7 unknown #
coedge $-1 $326 $327 $142 $227 forward $219 $-1 #
edge $-1 $328 -41.057597520855161 $231 -31.557587859567867 $226 $329 forward 7 unknown #
edge $-1 $232 -11.895300727234694 $328 5.8975298385202805e-014 $143 $330 forward 7 unknown #
coedge $-1 $144 $320 $326 $331 forward $230 $-1 #
loop $-1 $-1 $320 $218 #
vertex $-1 $227 $332 #
vertex $-1 $145 $333 #
straight-curve $-1 42.063364402367121 -79.043062885440804 11.180121234066853 0 1 0 I I #
coedge $-1 $234 $234 $-1 $334 reversed $148 $-1 #
edge $-1 $335 0 $335 6.2831853071796004 $149 $336 forward 7 unknown #
vertex $-1 $152 $337 #
ellipse-curve $-1 32.474891592666722 -43.306609614031416 6.4301164034232166 0 -0.79863551827123203 0.60181501223851219 1.5 0 0 1 I I #
coedge $-1 $238 $238 $-1 $338 reversed $155 $-1 #
edge $-1 $339 0 $339 6.2831853071796004 $156 $340 forward 7 unknown #
vertex $-1 $159 $341 #
ellipse-curve $-1 38.227975278486966 -43.306609614031416 6.4301164034232166 0 -0.79863551827123203 0.60181501223851219 1.5 0 0 1 I I #
face $-1 $-1 $175 $24 $-1 $342 reversed single #
loop $-1 $-1 $258 $160 #
plane-surface $-1 0 46.885994890402209 0 0 -1 0 0 0 -1 forward_v I I I I #
coedge $-1 $343 $256 $259 $344 forward $161 $-1 #
coedge $-1 $262 $163 $164 $250 reversed $101 $-1 #
coedge $-1 $256 $343 $163 $248 reversed $161 $-1 #
edge $-1 $263 -11.180121234066855 $345 11.180121234066855 $247 $346 forward 7 unknown #
coedge $-1 $165 $164 $343 $347 forward $65 $-1 #
edge $-1 $254 -69.618823816644806 $345 69.618823816644806 $246 $348 forward 7 unknown #
coedge $-1 $259 $258 $165 $252 reversed $243 $-1 #
edge $-1 $349 -69.618823816644806 $253 69.618823816644806 $251 $350 forward 7 unknown #
vertex $-1 $167 $351 #
vertex $-1 $265 $352 #
straight-curve $-1 69.618823816644806 0 -11.180121234066855 0 -1 0 I I #
coedge $-1 $245 $247 $168 $257 reversed $161 $-1 #
edge $-1 $260 -46.885994890402209 $263 46.885994890402209 $256 $353 forward 7 unknown #
coedge $-1 $251 $169 $174 $266 forward $243 $-1 #
coedge $-1 $169 $251 $245 $344 reversed $243 $-1 #
vertex $-1 $170 $354 #
straight-curve $-1 0 46.885994890402209 11.180121234066855 -1 0 0 I I #
coedge $-1 $171 $246 $173 $265 reversed $101 $-1 #
vertex $-1 $257 $355 #
straight-curve $-1 0 -46.885994890402209 11.180121234066855 1 0 0 I I #
edge $-1 $176 -11.180121234066855 $254 11.180121234066855 $173 $356 forward 7 unknown #
edge $-1 $177 -11.180121234066855 $253 11.180121234066855 $174 $357 forward 7 unknown #
point $-1 69.618823816644806 -46.885994890402209 11.180121234066855 #
point $-1 69.618823816644806 46.885994890402209 11.180121234066855 #
face $-1 $-1 $278 $25 $-1 $358 reversed single #
loop $-1 $-1 $275 $179 #
plane-surface $-1 0 0 11.180121234066855 0 0 1 1 0 0 forward_v I I I I #
coedge $-1 $359 $360 $186 $281 forward $180 $-1 #
coedge $-1 $182 $285 $361 $362 reversed $109 $-1 #
edge $-1 $363 -6.6138160647935473 $192 -2.5187942737530635 $182 $364 forward 7 unknown #
coedge $-1 $361 $365 $183 $276 forward $270 $-1 #
edge $-1 $279 -46.885994890402209 $363 46.885994890402209 $275 $366 forward 7 unknown #
coedge $-1 $282 $184 $365 $367 reversed $278 $-1 #
loop $-1 $-1 $184 $269 #
vertex $-1 $185 $368 #
straight-curve $-1 -57.740148872828684 -46.885994890402209 4.5663051692733054 0 0 1 I I #
edge $-1 $286 -46.885994890402209 $283 46.885994890402209 $272 $369 forward 7 unknown #
coedge $-1 $187 $277 $359 $370 forward $278 $-1 #
vertex $-1 $281 $371 #
straight-curve $-1 -31.839743172368372 -46.885994890402209 7.085099443026369 1 0 0 I I #
coedge $-1 $273 $189 $360 $372 reversed $109 $-1 #
vertex $-1 $281 $373 #
straight-curve $-1 -31.839743172368372 46.885994890402209 7.085099443026369 -1 0 0 I I #
point $-1 -57.740148872828684 46.885994890402209 7.085099443026369 #
point $-1 -57.740148872828684 -46.885994890402209 7.085099443026369 #
loop $-1 $-1 $203 $195 #
plane-surface $-1 0 46.885994890402209 0 0 -1 0 0 0 -1 forward_v I I I I #
coedge $-1 $293 $198 $200 $297 reversed $117 $-1 #
coedge $-1 $198 $292 $374 $375 reversed $117 $-1 #
coedge $-1 $206 $201 $198 $295 forward $196 $-1 #
edge $-1 $298 -11.099142958997916 $376 -3.9403724062563796 $294 $377 forward 7 unknown #
coedge $-1 $200 $199 $301 $378 reversed $73 $-1 #
edge $-1 $379 -93.771989780804446 $298 -81.87668905356972 $292 $380 forward 7 unknown #
vertex $-1 $202 $381 #
straight-curve $-1 17.675716717788418 39.727224337660672 11.180121234066853 1 0 0 I I #
coedge $-1 $374 $203 $206 $305 reversed $290 $-1 #
coedge $-1 $203 $374 $296 $378 forward $290 $-1 #
vertex $-1 $204 $382 #
straight-curve $-1 28.639502468786553 46.885994890402209 80.182529922593432 0 0 1 I I #
straight-curve $-1 28.639502468786553 -9.5473962871622575 76.569753230697032 0 0.60181501223851219 -0.79863551827123203 I I #
edge $-1 $376 -42.063364402367121 $207 -28.639502468786553 $300 $383 forward 7 unknown #
point $-1 28.639502468786553 46.885994890402209 11.180121234066855 #
point $-1 28.639502468786553 39.727224337660672 11.18012123406686 #
edge $-1 $384 1 $384 0 $210 $-1 forward 7 unknown #
vertex $-1 $211 $385 #
ellipse-curve $-1 32.474891592666722 41.632867770317858 5.1688614941261841 0 0.79863551827123203 0.60181501223851219 1.5 0 0 1 I I #
point $-1 33.974891592666722 43.306609614031437 6.4301164034232503 #
edge $-1 $386 1 $386 0 $214 $-1 forward 7 unknown #
vertex $-1 $215 $387 #
ellipse-curve $-1 38.227975278486966 41.632867770317858 5.1688614941261841 0 0.79863551827123203 0.60181501223851219 1.5 0 0 1 I I #
point $-1 39.727975278486966 43.306609614031437 6.4301164034232503 #
plane-surface $-1 0 0 11.180121234066855 0 0 1 1 0 0 forward_v I I I I #
coedge $-1 $327 $326 $319 $388 forward $219 $-1 #
coedge $-1 $319 $221 $223 $323 reversed $139 $-1 #
coedge $-1 $221 $318 $317 $388 reversed $139 $-1 #
coedge $-1 $229 $224 $221 $321 forward $230 $-1 #
edge $-1 $324 -39.31583854778016 $389 -32.157067995038595 $320 $390 forward 7 unknown #
coedge $-1 $223 $222 $327 $391 reversed $87 $-1 #
edge $-1 $392 -5.8975298385202805e-014 $324 11.895300727234694 $318 $393 forward 7 unknown #
vertex $-1 $225 $394 #
straight-curve $-1 17.675716717788418 -39.727224337660637 11.180121234066855 -1 0 0 I I #
coedge $-1 $317 $226 $229 $331 reversed $219 $-1 #
coedge $-1 $226 $317 $322 $391 forward $219 $-1 #
vertex $-1 $227 $395 #
straight-curve $-1 42.063364402367121 -46.885994890402209 42.73770909363472 0 0 1 I I #
straight-curve $-1 42.063364402367121 -46.885994890402173 1.6801115727796088 0 -0.60181501223851219 -0.79863551827123203 I I #
edge $-1 $389 28.639502468786553 $231 42.063364402367121 $326 $396 forward 7 unknown #
point $-1 42.063364402367121 -46.885994890402209 11.180121234066855 #
point $-1 42.063364402367121 -39.727224337660644 11.180121234066855 #
edge $-1 $397 1 $397 0 $234 $-1 forward 7 unknown #
vertex $-1 $235 $398 #
ellipse-curve $-1 32.474891592666722 -41.632867770317873 5.1688614941261735 0 -0.79863551827123203 0.60181501223851219 1.5 0 0 1 I I #
point $-1 33.974891592666722 -43.306609614031451 6.4301164034232396 #
edge $-1 $399 1 $399 0 $238 $-1 forward 7 unknown #
vertex $-1 $239 $400 #
ellipse-curve $-1 38.227975278486966 -41.632867770317873 5.1688614941261735 0 -0.79863551827123203 0.60181501223851219 1.5 0 0 1 I I #
point $-1 39.727975278486966 -43.306609614031451 6.4301164034232396 #
plane-surface $-1 69.618823816644806 0 0 -1 0 0 0 0 1 forward_v I I I I #
coedge $-1 $247 $245 $249 $347 reversed $161 $-1 #
edge $-1 $260 -11.180121234066855 $349 11.180121234066855 $259 $401 forward 7 unknown #
vertex $-1 $347 $402 #
straight-curve $-1 -69.618823816644806 -46.885994890402209 0 0 0 -1 I I #
edge $-1 $345 -46.885994890402209 $349 46.885994890402209 $343 $403 forward 7 unknown #
straight-curve $-1 0 -46.885994890402209 -11.180121234066855 -1 0 0 I I #
vertex $-1 $252 $404 #
straight-curve $-1 0 46.885994890402209 -11.180121234066855 1 0 0 I I #
point $-1 69.618823816644806 46.885994890402209 -11.180121234066855 #
point $-1 69.618823816644806 -46.885994890402209 -11.180121234066855 #
straight-curve $-1 -69.618823816644806 0 11.180121234066855 0 -1 0 I I #
point $-1 -69.618823816644806 46.885994890402209 11.180121234066855 #
point $-1 -69.618823816644806 -46.885994890402209 11.180121234066855 #
straight-curve $-1 69.618823816644806 -46.885994890402209 0 0 0 -1 I I #
straight-curve $-1 69.618823816644806 46.885994890402209 0 0 0 -1 I I #
plane-surface $-1 0 -46.885994890402209 0 0 1 0 0 0 1 forward_v I I I I #
coedge $-1 $405 $272 $282 $370 reversed $180 $-1 #
coedge $-1 $272 $405 $285 $372 forward $180 $-1 #
coedge $-1 $406 $275 $273 $362 forward $270 $-1 #
edge $-1 $363 57.740148872828684 $407 69.618823816644806 $273 $408 forward 7 unknown #
vertex $-1 $362 $409 #
straight-curve $-1 -57.740148872828684 46.885994890402209 4.5663051692733054 0 0 -1 I I #
coedge $-1 $275 $406 $277 $367 forward $270 $-1 #
straight-curve $-1 -57.740148872828684 0 11.180121234066855 0 1 0 I I #
edge $-1 $410 -69.618823816644806 $279 -57.740148872828684 $277 $411 forward 7 unknown #
point $-1 -57.740148872828684 -46.885994890402209 11.180121234066853 #
straight-curve $-1 -69.618823816644806 0 7.085099443026369 0 -1 0 I I #
edge $-1 $410 -11.180121234066855 $283 -7.085099443026369 $359 $412 forward 7 unknown #
point $-1 -69.618823816644806 -46.885994890402209 7.085099443026369 #
edge $-1 $407 -11.180121234066855 $286 -7.085099443026369 $285 $413 forward 7 unknown #
point $-1 -69.618823816644806 46.885994890402209 7.085099443026369 #
coedge $-1 $301 $300 $293 $375 forward $290 $-1 #
edge $-1 $376 69.002408688526572 $379 78.502418349813837 $374 $414 forward 7 unknown #
vertex $-1 $305 $415 #
straight-curve $-1 42.063364402367121 50.826367296658589 11.18012123406686 0 1 0 I I #
edge $-1 $379 -24.387647684578702 $302 -10.963785750998134 $301 $416 forward 7 unknown #
vertex $-1 $378 $417 #
straight-curve $-1 42.063364402367121 -9.5473962871622575 76.569753230697032 0 -0.60181501223851219 0.79863551827123203 I I #
point $-1 42.063364402367121 39.727224337660672 11.18012123406686 #
point $-1 28.639502468786553 46.885994890402209 1.6801115727795946 #
straight-curve $-1 0 46.885994890402209 11.180121234066855 -1 0 0 I I #
vertex $-1 $308 $418 #
point $-1 33.974891592666722 41.632867770317858 5.1688614941261841 #
vertex $-1 $312 $419 #
point $-1 39.727975278486966 41.632867770317858 5.1688614941261841 #
edge $-1 $389 31.557587859567867 $392 41.057597520855161 $317 $420 forward 7 unknown #
vertex $-1 $331 $421 #
straight-curve $-1 28.639502468786553 -79.043062885440804 11.180121234066853 0 -1 0 I I #
edge $-1 $392 10.963785750998134 $328 24.387647684578702 $327 $422 forward 7 unknown #
vertex $-1 $391 $423 #
straight-curve $-1 28.639502468786553 -46.885994890402173 1.6801115727796088 0 0.60181501223851219 0.79863551827123203 I I #
point $-1 28.639502468786553 -39.727224337660644 11.180121234066855 #
point $-1 42.063364402367121 -46.885994890402209 1.6801115727795617 #
straight-curve $-1 0 -46.885994890402209 11.180121234066855 1 0 0 I I #
vertex $-1 $334 $424 #
point $-1 33.974891592666722 -41.632867770317873 5.1688614941261735 #
vertex $-1 $338 $425 #
point $-1 39.727975278486966 -41.632867770317873 5.1688614941261735 #
straight-curve $-1 -69.618823816644806 46.885994890402209 0 0 0 -1 I I #
point $-1 -69.618823816644806 -46.885994890402209 -11.180121234066855 #
straight-curve $-1 -69.618823816644806 0 -11.180121234066855 0 1 0 I I #
point $-1 -69.618823816644806 46.885994890402209 -11.180121234066855 #
coedge $-1 $360 $359 $406 $426 reversed $180 $-1 #
coedge $-1 $365 $361 $405 $426 forward $270 $-1 #
vertex $-1 $362 $427 #
straight-curve $-1 0 46.885994890402209 11.180121234066855 -1 0 0 I I #
point $-1 -57.740148872828684 46.885994890402209 11.180121234066853 #
vertex $-1 $426 $428 #
straight-curve $-1 0 -46.885994890402209 11.180121234066855 1 0 0 I I #
straight-curve $-1 -69.618823816644806 -46.885994890402209 0 0 0 -1 I I #
straight-curve $-1 -69.618823816644806 46.885994890402209 0 0 0 -1 I I #
straight-curve $-1 42.063364402367121 46.885994890402209 80.182529922593432 0 0 -1 I I #
point $-1 42.063364402367121 46.885994890402209 11.180121234066855 #
straight-curve $-1 17.675716717788418 46.885994890402209 1.6801115727796017 -1 0 0 I I #
point $-1 42.063364402367121 46.885994890402209 1.6801115727795946 #
point $-1 32.474891592666722 40.434914492911005 4.2661389757684161 #
point $-1 38.227975278486966 40.434914492911005 4.2661389757684161 #
straight-curve $-1 28.639502468786553 -46.885994890402209 42.73770909363472 0 0 -1 I I #
point $-1 28.639502468786553 -46.885994890402209 11.180121234066855 #
straight-curve $-1 17.675716717788418 -46.885994890402209 1.6801115727795577 1 0 0 I I #
point $-1 28.639502468786553 -46.885994890402209 1.6801115727795617 #
point $-1 32.474891592666722 -40.43491449291102 4.2661389757684054 #
point $-1 38.227975278486966 -40.43491449291102 4.2661389757684054 #
edge $-1 $407 -46.885994890402209 $410 46.885994890402209 $405 $429 forward 7 unknown #
point $-1 -69.618823816644806 46.885994890402209 11.180121234066855 #
point $-1 -69.618823816644806 -46.885994890402209 11.180121234066855 #
straight-curve $-1 -69.618823816644806 0 11.180121234066855 0 -1 0 I I #
End-of-ACIS-data 