500 0 10 0           
7 Unknown 11 ACIS 5.0 NT 24 Fri Mar 26 19:34:30 1999 
-1 9.9999999999999995e-007 1e-010 
body $-1 $10 $-1 $11 #
body $-1 $12 $-1 $13 #
body $-1 $14 $-1 $15 #
body $-1 $16 $-1 $17 #
body $-1 $18 $-1 $19 #
body $-1 $20 $-1 $21 #
body $-1 $22 $-1 $23 #
body $-1 $24 $-1 $25 #
body $-1 $26 $-1 $27 #
body $-1 $28 $-1 $29 #
lump $-1 $-1 $30 $0 #
transform $-1 1 0 0 0 1 0 0 0 1 75.287942136906025 39.096102158590185 8.5322497188048469 1 rotate no_reflect no_shear #
lump $-1 $-1 $31 $1 #
transform $-1 1 0 0 0 1 0 0 0 1 75.287942136906025 39.096102158590185 8.5322497188048469 1 rotate no_reflect no_shear #
lump $-1 $-1 $32 $2 #
transform $-1 1 0 0 0 1 0 0 0 1 75.287942136906025 39.096102158590185 8.5322497188048469 1 rotate no_reflect no_shear #
lump $-1 $-1 $33 $3 #
transform $-1 1 0 0 0 1 0 0 0 1 75.287942136906025 39.096102158590185 8.5322497188048469 1 rotate no_reflect no_shear #
lump $-1 $-1 $34 $4 #
transform $-1 1 0 0 0 1 0 0 0 1 75.287942136906025 39.096102158590185 8.5322497188048469 1 rotate no_reflect no_shear #
lump $-1 $-1 $35 $5 #
transform $-1 1 0 0 0 1 0 0 0 1 75.287942136906025 39.096102158590185 8.5322497188048469 1 rotate no_reflect no_shear #
lump $-1 $-1 $36 $6 #
transform $-1 1 0 0 0 1 0 0 0 1 75.287942136906025 39.096102158590185 8.5322497188048469 1 rotate no_reflect no_shear #
lump $-1 $-1 $37 $7 #
transform $-1 1 0 0 0 1 0 0 0 1 75.287942136906025 39.096102158590185 8.5322497188048469 1 rotate no_reflect no_shear #
lump $-1 $-1 $38 $8 #
transform $-1 1 0 0 0 1 0 0 0 1 75.287942136906025 39.096102158590185 8.5322497188048469 1 rotate no_reflect no_shear #
lump $-1 $-1 $39 $9 #
transform $-1 1 0 0 0 1 0 0 0 1 75.287942136906025 39.096102158590185 8.5322497188048469 1 rotate no_reflect no_shear #
shell $-1 $-1 $-1 $40 $-1 $10 #
shell $-1 $-1 $-1 $41 $-1 $12 #
shell $-1 $-1 $-1 $42 $-1 $14 #
shell $-1 $-1 $-1 $43 $-1 $16 #
shell $-1 $-1 $-1 $44 $-1 $18 #
shell $-1 $-1 $-1 $45 $-1 $20 #
shell $-1 $-1 $-1 $46 $-1 $22 #
shell $-1 $-1 $-1 $47 $-1 $24 #
shell $-1 $-1 $-1 $48 $-1 $26 #
shell $-1 $-1 $-1 $49 $-1 $28 #
face $-1 $50 $51 $30 $-1 $52 forward single #
face $-1 $53 $54 $31 $-1 $55 forward single #
face $-1 $56 $57 $32 $-1 $58 reversed single #
face $-1 $59 $60 $33 $-1 $61 forward single #
face $-1 $62 $63 $34 $-1 $64 forward single #
face $-1 $65 $66 $35 $-1 $67 forward single #
face $-1 $68 $69 $36 $-1 $70 reversed single #
face $-1 $71 $72 $37 $-1 $73 forward single #
face $-1 $74 $75 $38 $-1 $76 forward single #
face $-1 $77 $78 $39 $-1 $79 forward single #
face $-1 $80 $81 $30 $-1 $82 reversed single #
loop $-1 $-1 $83 $40 #
plane-surface $-1 0 0 8.5322497188048469 0 0 1 1 0 0 forward_v I I I I #
face $-1 $84 $85 $31 $-1 $86 reversed single #
loop $-1 $-1 $87 $41 #
plane-surface $-1 -70.237968424663038 0 -3.807132684978848 0 0 1 1 0 0 forward_v I I I I #
face $-1 $88 $89 $32 $-1 $90 reversed single #
loop $-1 $-1 $91 $42 #
plane-surface $-1 71.571516423084461 -24.408247695793435 214.28142786083708 0 -1 0 -0.69465837861970381 0 -0.71933979245794832 forward_v I I I I #
face $-1 $92 $93 $33 $-1 $94 forward single #
loop $-1 $95 $96 $43 #
cone-surface $-1 70.246316254038234 -36.158531266030835 3.5705849492928761 -0.69465837861970381 0 -0.71933979245794832 0.71933979245794832 0 -0.69465837861970381 1 I I 0 1 1 forward I I I I #
face $-1 $97 $98 $34 $-1 $99 forward single #
loop $-1 $100 $101 $44 #
cone-surface $-1 70.246316254038234 -31.75217492719181 3.5705849492928761 -0.69465837861970381 0 -0.71933979245794832 0.71933979245794832 0 -0.69465837861970381 1 I I 0 1 1 forward I I I I #
face $-1 $102 $103 $35 $-1 $104 forward single #
loop $-1 $105 $106 $45 #
cone-surface $-1 70.246316254038234 -27.345818588352788 3.5705849492928761 -0.69465837861970381 0 -0.71933979245794832 0.71933979245794832 0 -0.69465837861970381 1 I I 0 1 1 forward I I I I #
face $-1 $107 $108 $36 $-1 $109 reversed single #
loop $-1 $-1 $110 $46 #
plane-surface $-1 71.571516423084461 24.408247695793428 214.28142786083708 0 1 0 0.69465837861970381 0 0.71933979245794832 forward_v I I I I #
face $-1 $111 $112 $37 $-1 $113 forward single #
loop $-1 $114 $115 $47 #
cone-surface $-1 70.246316254038234 27.345818588352785 3.5705849492928761 -0.69465837861970381 0 -0.71933979245794832 0.71933979245794832 0 -0.69465837861970381 1 I I 0 1 1 forward I I I I #
face $-1 $116 $117 $38 $-1 $118 forward single #
loop $-1 $119 $120 $48 #
cone-surface $-1 70.246316254038234 31.752174927191803 3.5705849492928761 -0.69465837861970381 0 -0.71933979245794832 0.71933979245794832 0 -0.69465837861970381 1 I I 0 1 1 forward I I I I #
face $-1 $121 $122 $39 $-1 $123 forward single #
loop $-1 $124 $125 $49 #
cone-surface $-1 70.246316254038234 36.158531266030835 3.5705849492928761 -0.69465837861970381 0 -0.71933979245794832 0.71933979245794832 0 -0.69465837861970381 1 I I 0 1 1 forward I I I I #
face $-1 $126 $127 $30 $-1 $128 reversed single #
loop $-1 $-1 $129 $50 #
plane-surface $-1 0 0 -8.5322497188048469 0 0 1 1 0 0 forward_v I I I I #
coedge $-1 $130 $131 $132 $133 forward $51 $-1 #
face $-1 $134 $135 $31 $-1 $136 reversed single #
loop $-1 $-1 $137 $53 #
plane-surface $-1 -65.18799471242005 0 -6.1696912018918475 -1 0 0 0 0 1 forward_v I I I I #
coedge $-1 $138 $139 $140 $141 forward $54 $-1 #
face $-1 $142 $143 $32 $-1 $144 forward single #
loop $-1 $-1 $145 $56 #
plane-surface $-1 -33.027283205789971 -31.75217492719181 105.96620251814107 0.69465837861970381 0 0.71933979245794832 0.71933979245794832 0 -0.69465837861970381 forward_v I I I I #
coedge $-1 $146 $147 $148 $149 reversed $57 $-1 #
face $-1 $-1 $150 $33 $-1 $151 forward single #
loop $-1 $152 $153 $59 #
cone-surface $-1 68.567069140464611 -36.158531266030835 1.8316736983210422 -0.69465837861970381 0 -0.71933979245794832 0.35966989622897416 0 -0.3473291893098519 1 I I -0.70710678118654746 0.70710678118654746 0.5 forward I I I I #
loop $-1 $-1 $154 $43 #
coedge $-1 $96 $96 $155 $156 reversed $60 $-1 #
face $-1 $-1 $157 $34 $-1 $158 forward single #
loop $-1 $159 $160 $62 #
cone-surface $-1 68.567069140464611 -31.75217492719181 1.8316736983210422 -0.69465837861970381 0 -0.71933979245794832 0.35966989622897416 0 -0.3473291893098519 1 I I -0.70710678118654746 0.70710678118654746 0.5 forward I I I I #
loop $-1 $-1 $161 $44 #
coedge $-1 $101 $101 $162 $163 reversed $63 $-1 #
face $-1 $-1 $164 $35 $-1 $165 forward single #
loop $-1 $166 $167 $65 #
cone-surface $-1 68.567069140464611 -27.345818588352788 1.8316736983210422 -0.69465837861970381 0 -0.71933979245794832 0.35966989622897416 0 -0.3473291893098519 1 I I -0.70710678118654746 0.70710678118654746 0.5 forward I I I I #
loop $-1 $-1 $168 $45 #
coedge $-1 $106 $106 $169 $170 reversed $66 $-1 #
face $-1 $171 $172 $36 $-1 $173 reversed single #
loop $-1 $-1 $174 $68 #
plane-surface $-1 -33.027283205789971 31.752174927191803 105.96620251814107 0.69465837861970381 0 0.71933979245794832 0.71933979245794832 0 -0.69465837861970381 forward_v I I I I #
coedge $-1 $175 $176 $177 $178 reversed $69 $-1 #
face $-1 $-1 $179 $37 $-1 $180 forward single #
loop $-1 $181 $182 $71 #
cone-surface $-1 68.567069140464611 27.345818588352785 1.8316736983210422 -0.69465837861970381 0 -0.71933979245794832 0.35966989622897416 0 -0.3473291893098519 1 I I -0.70710678118654746 0.70710678118654746 0.5 forward I I I I #
loop $-1 $-1 $183 $47 #
coedge $-1 $115 $115 $184 $185 reversed $72 $-1 #
face $-1 $-1 $186 $38 $-1 $187 forward single #
loop $-1 $188 $189 $74 #
cone-surface $-1 68.567069140464611 31.752174927191803 1.8316736983210422 -0.69465837861970381 0 -0.71933979245794832 0.35966989622897416 0 -0.3473291893098519 1 I I -0.70710678118654746 0.70710678118654746 0.5 forward I I I I #
loop $-1 $-1 $190 $48 #
coedge $-1 $120 $120 $191 $192 reversed $75 $-1 #
face $-1 $-1 $193 $39 $-1 $194 forward single #
loop $-1 $195 $196 $77 #
cone-surface $-1 68.567069140464611 36.158531266030835 1.8316736983210422 -0.69465837861970381 0 -0.71933979245794832 0.35966989622897416 0 -0.3473291893098519 1 I I -0.70710678118654746 0.70710678118654746 0.5 forward I I I I #
loop $-1 $-1 $197 $49 #
coedge $-1 $125 $125 $198 $199 reversed $78 $-1 #
face $-1 $200 $201 $30 $-1 $202 reversed single #
loop $-1 $-1 $203 $80 #
plane-surface $-1 0 -39.096102158590185 0 0 1 0 0 0 1 forward_v I I I I #
coedge $-1 $204 $205 $206 $207 forward $81 $-1 #
coedge $-1 $208 $83 $209 $210 forward $51 $-1 #
coedge $-1 $83 $208 $211 $212 forward $51 $-1 #
coedge $-1 $213 $214 $83 $133 reversed $215 $-1 #
edge $-1 $216 -39.096102158590185 $217 39.096102158590185 $132 $218 forward 7 unknown #
face $-1 $219 $220 $31 $-1 $221 reversed single #
loop $-1 $-1 $222 $84 #
plane-surface $-1 0 0 -8.5322497188048469 0 0 1 1 0 0 forward_v I I I I #
coedge $-1 $223 $140 $224 $225 reversed $85 $-1 #
coedge $-1 $226 $87 $227 $228 reversed $54 $-1 #
coedge $-1 $87 $226 $229 $230 reversed $54 $-1 #
coedge $-1 $137 $231 $87 $141 reversed $85 $-1 #
edge $-1 $232 -39.096102158590185 $233 39.096102158590185 $140 $234 forward 7 unknown #
face $-1 $235 $236 $32 $-1 $237 reversed single #
loop $-1 $-1 $148 $88 #
plane-surface $-1 0 0 8.5322497188048469 0 0 1 1 0 0 forward_v I I I I #
coedge $-1 $238 $239 $240 $241 reversed $89 $-1 #
coedge $-1 $147 $91 $242 $243 reversed $57 $-1 #
coedge $-1 $91 $146 $238 $244 reversed $57 $-1 #
coedge $-1 $240 $245 $91 $149 forward $143 $-1 #
edge $-1 $246 -39.502183925363795 $247 -32.082768008155696 $148 $248 forward 7 unknown #
loop $-1 $-1 $155 $92 #
plane-surface $-1 -33.027283205789971 -31.75217492719181 105.96620251814107 0.69465837861970381 0 0.71933979245794832 0.71933979245794832 0 -0.69465837861970381 forward_v I I I I #
loop $-1 $-1 $249 $59 #
coedge $-1 $153 $153 $154 $250 reversed $93 $-1 #
coedge $-1 $154 $154 $153 $250 forward $95 $-1 #
coedge $-1 $155 $155 $96 $156 forward $150 $-1 #
edge $-1 $251 0 $251 6.2831853071796004 $155 $252 forward 7 unknown #
loop $-1 $-1 $162 $97 #
plane-surface $-1 -33.027283205789971 -31.75217492719181 105.96620251814107 0.69465837861970381 0 0.71933979245794832 0.71933979245794832 0 -0.69465837861970381 forward_v I I I I #
loop $-1 $-1 $253 $62 #
coedge $-1 $160 $160 $161 $254 reversed $98 $-1 #
coedge $-1 $161 $161 $160 $254 forward $100 $-1 #
coedge $-1 $162 $162 $101 $163 forward $157 $-1 #
edge $-1 $255 0 $255 6.2831853071796004 $162 $256 forward 7 unknown #
loop $-1 $-1 $169 $102 #
plane-surface $-1 -33.027283205789971 -31.75217492719181 105.96620251814107 0.69465837861970381 0 0.71933979245794832 0.71933979245794832 0 -0.69465837861970381 forward_v I I I I #
loop $-1 $-1 $257 $65 #
coedge $-1 $167 $167 $168 $258 reversed $103 $-1 #
coedge $-1 $168 $168 $167 $258 forward $105 $-1 #
coedge $-1 $169 $169 $106 $170 forward $164 $-1 #
edge $-1 $259 0 $259 6.2831853071796004 $169 $260 forward 7 unknown #
face $-1 $261 $262 $36 $-1 $263 reversed single #
loop $-1 $-1 $177 $107 #
plane-surface $-1 75.287942136906025 0 0 -1 0 0 0 0 1 forward_v I I I I #
coedge $-1 $264 $265 $266 $267 reversed $108 $-1 #
coedge $-1 $176 $110 $268 $269 reversed $69 $-1 #
coedge $-1 $110 $175 $264 $270 reversed $69 $-1 #
coedge $-1 $266 $271 $110 $178 forward $172 $-1 #
edge $-1 $272 98.608464211613693 $273 105.7733110411519 $177 $274 forward 7 unknown #
loop $-1 $-1 $184 $111 #
plane-surface $-1 -33.027283205789971 31.752174927191803 105.96620251814107 0.69465837861970381 0 0.71933979245794832 0.71933979245794832 0 -0.69465837861970381 forward_v I I I I #
loop $-1 $-1 $275 $71 #
coedge $-1 $182 $182 $183 $276 reversed $112 $-1 #
coedge $-1 $183 $183 $182 $276 forward $114 $-1 #
coedge $-1 $184 $184 $115 $185 forward $179 $-1 #
edge $-1 $277 0 $277 6.2831853071796004 $184 $278 forward 7 unknown #
loop $-1 $-1 $191 $116 #
plane-surface $-1 -33.027283205789971 31.752174927191803 105.96620251814107 0.69465837861970381 0 0.71933979245794832 0.71933979245794832 0 -0.69465837861970381 forward_v I I I I #
loop $-1 $-1 $279 $74 #
coedge $-1 $189 $189 $190 $280 reversed $117 $-1 #
coedge $-1 $190 $190 $189 $280 forward $119 $-1 #
coedge $-1 $191 $191 $120 $192 forward $186 $-1 #
edge $-1 $281 0 $281 6.2831853071796004 $191 $282 forward 7 unknown #
loop $-1 $-1 $198 $121 #
plane-surface $-1 -33.027283205789971 31.752174927191803 105.96620251814107 0.69465837861970381 0 0.71933979245794832 0.71933979245794832 0 -0.69465837861970381 forward_v I I I I #
loop $-1 $-1 $283 $77 #
coedge $-1 $196 $196 $197 $284 reversed $122 $-1 #
coedge $-1 $197 $197 $196 $284 forward $124 $-1 #
coedge $-1 $198 $198 $125 $199 forward $193 $-1 #
edge $-1 $285 0 $285 6.2831853071796004 $198 $286 forward 7 unknown #
face $-1 $287 $288 $30 $-1 $289 reversed single #
loop $-1 $-1 $290 $126 #
plane-surface $-1 -75.287942136906025 0 0 1 0 0 0 0 -1 forward_v I I I I #
coedge $-1 $291 $211 $292 $293 forward $127 $-1 #
coedge $-1 $294 $129 $291 $295 forward $81 $-1 #
coedge $-1 $129 $294 $296 $297 forward $81 $-1 #
coedge $-1 $214 $213 $129 $207 reversed $215 $-1 #
edge $-1 $298 -39.096102158590185 $299 39.096102158590185 $206 $300 forward 7 unknown #
coedge $-1 $131 $130 $301 $302 forward $51 $-1 #
coedge $-1 $303 $304 $130 $210 reversed $288 $-1 #
edge $-1 $217 -75.287942136906025 $305 75.287942136906025 $209 $306 forward 7 unknown #
coedge $-1 $203 $307 $131 $212 reversed $127 $-1 #
edge $-1 $308 -75.287942136906025 $216 75.287942136906025 $211 $309 forward 7 unknown #
coedge $-1 $206 $132 $307 $310 forward $215 $-1 #
coedge $-1 $132 $206 $303 $311 reversed $215 $-1 #
loop $-1 $-1 $213 $287 #
vertex $-1 $133 $312 #
vertex $-1 $133 $313 #
straight-curve $-1 75.287942136906025 0 8.5322497188048469 0 1 0 I I #
face $-1 $314 $315 $31 $-1 $316 reversed single #
loop $-1 $-1 $224 $134 #
plane-surface $-1 0 -39.096102158590185 0 0 1 0 0 0 1 forward_v I I I I #
coedge $-1 $317 $318 $223 $319 forward $135 $-1 #
coedge $-1 $231 $137 $222 $319 reversed $85 $-1 #
coedge $-1 $229 $320 $137 $225 forward $220 $-1 #
edge $-1 $321 -5.4474041178589232 $232 -0.7222870840329243 $224 $322 forward 7 unknown #
coedge $-1 $139 $138 $323 $324 reversed $54 $-1 #
coedge $-1 $325 $326 $138 $228 forward $327 $-1 #
edge $-1 $328 -40.168957924574507 $233 -30.069010500088531 $227 $329 forward 7 unknown #
coedge $-1 $330 $224 $139 $230 forward $220 $-1 #
edge $-1 $232 30.069010500088531 $331 40.168957924574507 $229 $332 forward 7 unknown #
coedge $-1 $140 $223 $325 $333 reversed $85 $-1 #
vertex $-1 $230 $334 #
vertex $-1 $228 $335 #
straight-curve $-1 -65.18799471242005 0 -3.807132684978848 0 1 0 I I #
face $-1 $-1 $336 $32 $-1 $337 reversed single #
loop $-1 $-1 $338 $142 #
plane-surface $-1 0 -39.096102158590185 0 0 1 0 0 0 1 forward_v I I I I #
coedge $-1 $339 $145 $147 $244 forward $89 $-1 #
coedge $-1 $145 $339 $338 $340 reversed $89 $-1 #
coedge $-1 $341 $148 $145 $241 forward $143 $-1 #
edge $-1 $247 8.5321602321975298 $342 23.22001469499428 $240 $343 forward 7 unknown #
coedge $-1 $344 $345 $146 $243 forward $336 $-1 #
edge $-1 $346 -105.7733110411519 $246 -98.608464211613693 $242 $347 forward 7 unknown #
edge $-1 $247 140.26168228610283 $346 150.57588427381205 $147 $348 forward 7 unknown #
coedge $-1 $148 $341 $344 $349 forward $143 $-1 #
vertex $-1 $149 $350 #
vertex $-1 $149 $351 #
straight-curve $-1 35.78575821154223 -24.408247695793435 8.5322497188048487 -1 0 0 I I #
coedge $-1 $249 $249 $-1 $352 reversed $152 $-1 #
edge $-1 $353 0 $353 6.2831853071796004 $153 $354 forward 7 unknown #
vertex $-1 $156 $355 #
ellipse-curve $-1 71.578234178301997 -36.158531266030835 4.949826304035728 0.69465837861970381 0 0.71933979245794832 0.71933979245794832 0 -0.69465837861970381 1 I I #
coedge $-1 $253 $253 $-1 $356 reversed $159 $-1 #
edge $-1 $357 0 $357 6.2831853071796004 $160 $358 forward 7 unknown #
vertex $-1 $163 $359 #
ellipse-curve $-1 71.578234178301997 -31.75217492719181 4.949826304035728 0.69465837861970381 0 0.71933979245794832 0.71933979245794832 0 -0.69465837861970381 1 I I #
coedge $-1 $257 $257 $-1 $360 reversed $166 $-1 #
edge $-1 $361 0 $361 6.2831853071796004 $167 $362 forward 7 unknown #
vertex $-1 $170 $363 #
ellipse-curve $-1 71.578234178301997 -27.345818588352788 4.949826304035728 0.69465837861970381 0 0.71933979245794832 0.71933979245794832 0 -0.69465837861970381 1 I I #
face $-1 $-1 $364 $36 $-1 $365 forward single #
loop $-1 $-1 $366 $171 #
plane-surface $-1 0 39.096102158590185 0 0 -1 0 0 0 -1 forward_v I I I I #
coedge $-1 $367 $174 $176 $270 forward $108 $-1 #
coedge $-1 $174 $367 $366 $368 reversed $108 $-1 #
coedge $-1 $369 $177 $174 $267 forward $172 $-1 #
edge $-1 $273 8.5321602321975263 $370 23.220014694994276 $266 $371 forward 7 unknown #
coedge $-1 $372 $373 $175 $269 forward $364 $-1 #
edge $-1 $374 32.082768008155696 $272 39.502183925363795 $268 $375 forward 7 unknown #
edge $-1 $273 -150.57588427381205 $374 -140.26168228610283 $176 $376 forward 7 unknown #
coedge $-1 $177 $369 $372 $377 reversed $172 $-1 #
vertex $-1 $377 $378 #
vertex $-1 $178 $379 #
straight-curve $-1 75.287942136906025 24.408247695793428 107.14071393041854 0 0 -1 I I #
coedge $-1 $275 $275 $-1 $380 reversed $181 $-1 #
edge $-1 $381 0 $381 6.2831853071796004 $182 $382 forward 7 unknown #
vertex $-1 $185 $383 #
ellipse-curve $-1 71.578234178301997 27.345818588352785 4.949826304035728 0.69465837861970381 0 0.71933979245794832 0.71933979245794832 0 -0.69465837861970381 1 I I #
coedge $-1 $279 $279 $-1 $384 reversed $188 $-1 #
edge $-1 $385 0 $385 6.2831853071796004 $189 $386 forward 7 unknown #
vertex $-1 $192 $387 #
ellipse-curve $-1 71.578234178301997 31.752174927191803 4.949826304035728 0.69465837861970381 0 0.71933979245794832 0.71933979245794832 0 -0.69465837861970381 1 I I #
coedge $-1 $283 $283 $-1 $388 reversed $195 $-1 #
edge $-1 $389 0 $389 6.2831853071796004 $196 $390 forward 7 unknown #
vertex $-1 $199 $391 #
ellipse-curve $-1 71.578234178301997 36.158531266030835 4.949826304035728 0.69465837861970381 0 0.71933979245794832 0.71933979245794832 0 -0.69465837861970381 1 I I #
face $-1 $-1 $215 $30 $-1 $392 reversed single #
loop $-1 $-1 $303 $200 #
plane-surface $-1 0 39.096102158590185 0 0 -1 0 0 0 -1 forward_v I I I I #
coedge $-1 $393 $301 $304 $394 forward $201 $-1 #
coedge $-1 $307 $203 $204 $295 reversed $127 $-1 #
coedge $-1 $301 $393 $203 $293 reversed $201 $-1 #
edge $-1 $308 -8.5322497188048469 $395 8.5322497188048469 $292 $396 forward 7 unknown #
coedge $-1 $205 $204 $393 $397 forward $81 $-1 #
edge $-1 $299 -75.287942136906025 $395 75.287942136906025 $291 $398 forward 7 unknown #
coedge $-1 $304 $303 $205 $297 reversed $288 $-1 #
edge $-1 $399 -75.287942136906025 $298 75.287942136906025 $296 $400 forward 7 unknown #
vertex $-1 $207 $401 #
vertex $-1 $310 $402 #
straight-curve $-1 75.287942136906025 0 -8.5322497188048469 0 -1 0 I I #
coedge $-1 $290 $292 $208 $302 reversed $201 $-1 #
edge $-1 $305 -39.096102158590185 $308 39.096102158590185 $301 $403 forward 7 unknown #
coedge $-1 $296 $209 $214 $311 forward $288 $-1 #
coedge $-1 $209 $296 $290 $394 reversed $288 $-1 #
vertex $-1 $210 $404 #
straight-curve $-1 0 39.096102158590185 8.5322497188048469 -1 0 0 I I #
coedge $-1 $211 $291 $213 $310 reversed $127 $-1 #
vertex $-1 $302 $405 #
straight-curve $-1 0 -39.096102158590185 8.5322497188048469 1 0 0 I I #
edge $-1 $216 -8.5322497188048469 $299 8.5322497188048469 $213 $406 forward 7 unknown #
edge $-1 $217 -8.5322497188048469 $298 8.5322497188048469 $214 $407 forward 7 unknown #
point $-1 75.287942136906025 -39.096102158590185 8.5322497188048469 #
point $-1 75.287942136906025 39.096102158590185 8.5322497188048469 #
face $-1 $-1 $327 $31 $-1 $408 reversed single #
loop $-1 $-1 $323 $219 #
plane-surface $-1 -75.287942136906025 0 0 1 0 0 0 0 -1 forward_v I I I I #
coedge $-1 $409 $222 $320 $410 forward $135 $-1 #
coedge $-1 $222 $409 $411 $412 forward $135 $-1 #
edge $-1 $413 -39.096102158590185 $321 39.096102158590185 $222 $414 forward 7 unknown #
coedge $-1 $224 $330 $317 $410 reversed $220 $-1 #
vertex $-1 $410 $415 #
straight-curve $-1 -65.18799471242005 -39.096102158590185 -3.0848456009459237 0 0 1 I I #
coedge $-1 $416 $417 $226 $324 forward $315 $-1 #
edge $-1 $331 -39.096102158590185 $328 39.096102158590185 $323 $418 forward 7 unknown #
coedge $-1 $411 $227 $231 $333 forward $327 $-1 #
coedge $-1 $227 $411 $416 $419 reversed $327 $-1 #
loop $-1 $-1 $325 $314 #
vertex $-1 $419 $420 #
straight-curve $-1 -35.118984212331519 39.096102158590185 -3.807132684978848 1 0 0 I I #
coedge $-1 $320 $229 $417 $421 forward $220 $-1 #
vertex $-1 $421 $422 #
straight-curve $-1 -35.118984212331519 -39.096102158590185 -3.807132684978848 -1 0 0 I I #
edge $-1 $233 0.7222870840329243 $413 5.4474041178589232 $325 $423 forward 7 unknown #
point $-1 -65.18799471242005 -39.096102158590185 -3.807132684978848 #
point $-1 -65.18799471242005 39.096102158590185 -3.807132684978848 #
loop $-1 $-1 $242 $235 #
plane-surface $-1 75.287942136906025 0 0 -1 0 0 0 0 1 forward_v I I I I #
coedge $-1 $424 $425 $239 $340 forward $236 $-1 #
coedge $-1 $239 $238 $345 $426 reversed $89 $-1 #
edge $-1 $342 91.577607547881883 $427 101.89180953559108 $338 $428 forward 7 unknown #
coedge $-1 $245 $240 $425 $429 forward $143 $-1 #
vertex $-1 $429 $430 #
straight-curve $-1 67.868526219697927 -15.876087463595905 8.5322497188048487 0 -1 0 I I #
coedge $-1 $431 $242 $245 $349 reversed $336 $-1 #
coedge $-1 $242 $431 $339 $426 forward $336 $-1 #
vertex $-1 $243 $432 #
straight-curve $-1 75.287942136906025 -24.408247695793435 107.14071393041854 0 0 1 I I #
straight-curve $-1 -33.027283205789971 -24.408247695793435 105.96620251814107 0.71933979245794832 0 -0.69465837861970381 I I #
edge $-1 $433 -39.096102158590185 $246 -24.408247695793435 $344 $434 forward 7 unknown #
point $-1 75.287942136906025 -24.408247695793435 8.5322497188048469 #
point $-1 67.868526219697927 -24.408247695793435 8.5322497188048487 #
edge $-1 $435 1 $435 0 $249 $-1 forward 7 unknown #
vertex $-1 $250 $436 #
ellipse-curve $-1 68.914398329774457 -36.158531266030835 2.1913435945500161 0.69465837861970381 0 0.71933979245794832 0.71933979245794832 0 -0.69465837861970381 1 I I #
point $-1 72.297573970759942 -36.158531266030835 4.2551679254160319 #
edge $-1 $437 1 $437 0 $253 $-1 forward 7 unknown #
vertex $-1 $254 $438 #
ellipse-curve $-1 68.914398329774457 -31.75217492719181 2.1913435945500161 0.69465837861970381 0 0.71933979245794832 0.71933979245794832 0 -0.69465837861970381 1 I I #
point $-1 72.297573970759942 -31.75217492719181 4.2551679254160319 #
edge $-1 $439 1 $439 0 $257 $-1 forward 7 unknown #
vertex $-1 $258 $440 #
ellipse-curve $-1 68.914398329774457 -27.345818588352788 2.1913435945500161 0.69465837861970381 0 0.71933979245794832 0.71933979245794832 0 -0.69465837861970381 1 I I #
point $-1 72.297573970759942 -27.345818588352788 4.2551679254160319 #
loop $-1 $-1 $268 $261 #
plane-surface $-1 0 0 8.5322497188048469 0 0 1 1 0 0 forward_v I I I I #
coedge $-1 $441 $442 $265 $368 forward $262 $-1 #
coedge $-1 $265 $264 $373 $443 reversed $108 $-1 #
edge $-1 $370 -101.89180953559109 $444 -91.577607547881883 $366 $445 forward 7 unknown #
coedge $-1 $271 $266 $442 $446 reversed $172 $-1 #
vertex $-1 $368 $447 #
straight-curve $-1 75.287942136906011 15.876087463595901 1.3674028892666641 0 1 0 I I #
coedge $-1 $448 $268 $271 $377 forward $364 $-1 #
coedge $-1 $268 $448 $367 $443 forward $364 $-1 #
vertex $-1 $269 $449 #
straight-curve $-1 35.78575821154223 24.408247695793428 8.5322497188048487 1 0 0 I I #
straight-curve $-1 -33.027283205789971 24.408247695793428 105.96620251814107 -0.71933979245794832 0 0.69465837861970381 I I #
edge $-1 $272 24.408247695793428 $450 39.096102158590185 $271 $451 forward 7 unknown #
point $-1 75.287942136906025 24.408247695793428 8.5322497188048469 #
point $-1 75.28794213690604 24.408247695793428 1.3674028892666428 #
edge $-1 $452 1 $452 0 $275 $-1 forward 7 unknown #
vertex $-1 $276 $453 #
ellipse-curve $-1 68.914398329774457 27.345818588352785 2.1913435945500161 0.69465837861970381 0 0.71933979245794832 0.71933979245794832 0 -0.69465837861970381 1 I I #
point $-1 72.297573970759942 27.345818588352785 4.2551679254160319 #
edge $-1 $454 1 $454 0 $279 $-1 forward 7 unknown #
vertex $-1 $280 $455 #
ellipse-curve $-1 68.914398329774457 31.752174927191803 2.1913435945500161 0.69465837861970381 0 0.71933979245794832 0.71933979245794832 0 -0.69465837861970381 1 I I #
point $-1 72.297573970759942 31.752174927191803 4.2551679254160319 #
edge $-1 $456 1 $456 0 $283 $-1 forward 7 unknown #
vertex $-1 $284 $457 #
ellipse-curve $-1 68.914398329774457 36.158531266030835 2.1913435945500161 0.69465837861970381 0 0.71933979245794832 0.71933979245794832 0 -0.69465837861970381 1 I I #
point $-1 72.297573970759942 36.158531266030835 4.2551679254160319 #
plane-surface $-1 75.287942136906025 0 0 -1 0 0 0 0 1 forward_v I I I I #
coedge $-1 $292 $290 $294 $397 reversed $201 $-1 #
edge $-1 $305 -8.5322497188048469 $399 8.5322497188048469 $304 $458 forward 7 unknown #
vertex $-1 $397 $459 #
straight-curve $-1 -75.287942136906025 -39.096102158590185 0 0 0 -1 I I #
edge $-1 $395 -39.096102158590185 $399 39.096102158590185 $393 $460 forward 7 unknown #
straight-curve $-1 0 -39.096102158590185 -8.5322497188048469 -1 0 0 I I #
vertex $-1 $297 $461 #
straight-curve $-1 0 39.096102158590185 -8.5322497188048469 1 0 0 I I #
point $-1 75.287942136906025 39.096102158590185 -8.5322497188048469 #
point $-1 75.287942136906025 -39.096102158590185 -8.5322497188048469 #
straight-curve $-1 -75.287942136906025 0 8.5322497188048469 0 -1 0 I I #
point $-1 -75.287942136906025 39.096102158590185 8.5322497188048469 #
point $-1 -75.287942136906025 -39.096102158590185 8.5322497188048469 #
straight-curve $-1 75.287942136906025 -39.096102158590185 0 0 0 -1 I I #
straight-curve $-1 75.287942136906025 39.096102158590185 0 0 0 -1 I I #
plane-surface $-1 0 39.096102158590185 0 0 -1 0 0 0 -1 forward_v I I I I #
coedge $-1 $318 $317 $462 $463 forward $135 $-1 #
edge $-1 $321 65.18799471242005 $464 75.287942136906025 $320 $465 forward 7 unknown #
coedge $-1 $326 $325 $318 $412 reversed $327 $-1 #
edge $-1 $466 -75.287942136906025 $413 -65.18799471242005 $411 $467 forward 7 unknown #
vertex $-1 $333 $468 #
straight-curve $-1 -65.18799471242005 0 -8.5322497188048469 0 -1 0 I I #
point $-1 -65.18799471242005 -39.096102158590185 -8.5322497188048469 #
coedge $-1 $462 $323 $326 $419 forward $315 $-1 #
coedge $-1 $323 $462 $330 $421 reversed $315 $-1 #
straight-curve $-1 -75.287942136906025 0 -3.807132684978848 0 1 0 I I #
edge $-1 $328 3.807132684978848 $466 8.5322497188048469 $326 $469 forward 7 unknown #
point $-1 -75.287942136906025 39.096102158590185 -3.807132684978848 #
edge $-1 $331 3.807132684978848 $464 8.5322497188048469 $417 $470 forward 7 unknown #
point $-1 -75.287942136906025 -39.096102158590185 -3.807132684978848 #
straight-curve $-1 -65.18799471242005 39.096102158590185 -3.0848456009459237 0 0 -1 I I #
coedge $-1 $425 $338 $431 $471 reversed $236 $-1 #
coedge $-1 $338 $424 $341 $429 reversed $236 $-1 #
edge $-1 $427 -23.22001469499428 $346 -8.5321602321975298 $345 $472 forward 7 unknown #
vertex $-1 $340 $473 #
straight-curve $-1 1.993109012409132 -39.096102158590185 72.147402095888026 0.71933979245794832 0 -0.69465837861970381 I I #
edge $-1 $342 67.868526219697927 $433 75.287942136906025 $425 $474 forward 7 unknown #
point $-1 67.868526219697927 -39.096102158590185 8.5322497188048469 #
coedge $-1 $345 $344 $424 $471 forward $336 $-1 #
point $-1 75.28794213690604 -24.408247695793435 1.3674028892666428 #
vertex $-1 $349 $475 #
straight-curve $-1 75.287942136906025 0 8.5322497188048469 0 1 0 I I #
vertex $-1 $352 $476 #
point $-1 69.633738122232415 -36.158531266030835 1.4966852159303126 #
vertex $-1 $356 $477 #
point $-1 69.633738122232415 -31.75217492719181 1.4966852159303126 #
vertex $-1 $360 $478 #
point $-1 69.633738122232415 -27.345818588352788 1.4966852159303126 #
coedge $-1 $442 $366 $448 $479 reversed $262 $-1 #
coedge $-1 $366 $441 $369 $446 forward $262 $-1 #
edge $-1 $444 -23.220014694994276 $374 -8.5321602321975263 $373 $480 forward 7 unknown #
vertex $-1 $368 $481 #
straight-curve $-1 1.993109012409132 39.096102158590185 72.147402095888026 -0.71933979245794832 0 0.69465837861970381 I I #
edge $-1 $450 -8.5322497188048469 $370 -1.3674028892666428 $369 $482 forward 7 unknown #
point $-1 75.28794213690604 39.096102158590178 1.3674028892666428 #
coedge $-1 $373 $372 $441 $479 forward $364 $-1 #
point $-1 67.868526219697927 24.408247695793428 8.5322497188048487 #
vertex $-1 $377 $483 #
straight-curve $-1 75.287942136906025 0 8.5322497188048469 0 1 0 I I #
vertex $-1 $380 $484 #
point $-1 69.633738122232415 27.345818588352785 1.4966852159303126 #
vertex $-1 $384 $485 #
point $-1 69.633738122232415 31.752174927191803 1.4966852159303126 #
vertex $-1 $388 $486 #
point $-1 69.633738122232415 36.158531266030835 1.4966852159303126 #
straight-curve $-1 -75.287942136906025 39.096102158590185 0 0 0 -1 I I #
point $-1 -75.287942136906025 -39.096102158590185 -8.5322497188048469 #
straight-curve $-1 -75.287942136906025 0 -8.5322497188048469 0 1 0 I I #
point $-1 -75.287942136906025 39.096102158590185 -8.5322497188048469 #
coedge $-1 $417 $416 $409 $463 reversed $315 $-1 #
edge $-1 $464 -39.096102158590185 $466 39.096102158590185 $462 $487 forward 7 unknown #
vertex $-1 $463 $488 #
straight-curve $-1 0 -39.096102158590185 -8.5322497188048469 -1 0 0 I I #
vertex $-1 $412 $489 #
straight-curve $-1 0 39.096102158590185 -8.5322497188048469 1 0 0 I I #
point $-1 -65.18799471242005 39.096102158590185 -8.5322497188048469 #
straight-curve $-1 -75.287942136906025 39.096102158590185 0 0 0 -1 I I #
straight-curve $-1 -75.287942136906025 -39.096102158590185 0 0 0 -1 I I #
edge $-1 $433 -8.5322497188048469 $427 -1.3674028892666601 $431 $490 forward 7 unknown #
straight-curve $-1 75.287942136906011 -15.876087463595905 1.3674028892666641 0 1 0 I I #
point $-1 75.287942136906025 -39.096102158590185 1.3674028892666601 #
straight-curve $-1 0 -39.096102158590185 8.5322497188048469 1 0 0 I I #
point $-1 75.287942136906025 -39.096102158590185 8.5322497188048469 #
point $-1 68.219739951154764 -36.158531266030835 1.472003802092068 #
point $-1 68.219739951154764 -31.75217492719181 1.472003802092068 #
point $-1 68.219739951154764 -27.345818588352788 1.472003802092068 #
edge $-1 $450 -75.287942136906025 $444 -67.868526219697927 $441 $491 forward 7 unknown #
straight-curve $-1 67.868526219697927 15.876087463595901 8.5322497188048487 0 -1 0 I I #
point $-1 67.868526219697927 39.096102158590178 8.5322497188048487 #
straight-curve $-1 75.287942136906025 39.096102158590185 0 0 0 -1 I I #
point $-1 75.287942136906025 39.096102158590185 8.5322497188048469 #
point $-1 68.219739951154764 27.345818588352785 1.472003802092068 #
point $-1 68.219739951154764 31.752174927191803 1.472003802092068 #
point $-1 68.219739951154764 36.158531266030835 1.472003802092068 #
straight-curve $-1 -75.287942136906025 0 -8.5322497188048469 0 1 0 I I #
point $-1 -75.287942136906025 -39.096102158590185 -8.5322497188048469 #
point $-1 -75.287942136906025 39.096102158590185 -8.5322497188048469 #
straight-curve $-1 75.287942136906025 -39.096102158590185 0 0 0 -1 I I #
straight-curve $-1 0 39.096102158590185 8.5322497188048469 -1 0 0 I I #
End-of-ACIS-data 