500 0 9 0           
7 Unknown 11 ACIS 5.0 NT 24 Thu Mar 25 16:39:38 1999 
-1 9.9999999999999995e-007 1e-010 
body $-1 $9 $-1 $10 #
body $-1 $11 $-1 $12 #
body $-1 $13 $-1 $14 #
body $-1 $15 $-1 $16 #
body $-1 $17 $-1 $18 #
body $-1 $19 $-1 $20 #
body $-1 $21 $-1 $22 #
body $-1 $23 $-1 $24 #
body $-1 $25 $-1 $26 #
lump $-1 $-1 $27 $0 #
transform $-1 1 0 0 0 1 0 0 0 1 52.967925046540728 31.516133630478262 7.8735029114381865 1 rotate no_reflect no_shear #
lump $-1 $-1 $28 $1 #
transform $-1 1 0 0 0 1 0 0 0 1 52.967925046540728 31.516133630478262 7.8735029114381865 1 rotate no_reflect no_shear #
lump $-1 $-1 $29 $2 #
transform $-1 1 0 0 0 1 0 0 0 1 52.967925046540728 31.516133630478262 7.8735029114381865 1 rotate no_reflect no_shear #
lump $-1 $-1 $30 $3 #
transform $-1 1 0 0 0 1 0 0 0 1 52.967925046540728 31.516133630478262 7.8735029114381865 1 rotate no_reflect no_shear #
lump $-1 $-1 $31 $4 #
transform $-1 1 0 0 0 1 0 0 0 1 52.967925046540728 31.516133630478262 7.8735029114381865 1 rotate no_reflect no_shear #
lump $-1 $-1 $32 $5 #
transform $-1 1 0 0 0 1 0 0 0 1 52.967925046540728 31.516133630478262 7.8735029114381865 1 rotate no_reflect no_shear #
lump $-1 $-1 $33 $6 #
transform $-1 1 0 0 0 1 0 0 0 1 52.967925046540728 31.516133630478262 7.8735029114381865 1 rotate no_reflect no_shear #
lump $-1 $-1 $34 $7 #
transform $-1 1 0 0 0 1 0 0 0 1 52.967925046540728 31.516133630478262 7.8735029114381865 1 rotate no_reflect no_shear #
lump $-1 $-1 $35 $8 #
transform $-1 1 0 0 0 1 0 0 0 1 52.967925046540728 31.516133630478262 7.8735029114381865 1 rotate no_reflect no_shear #
shell $-1 $-1 $-1 $36 $-1 $9 #
shell $-1 $-1 $-1 $37 $-1 $11 #
shell $-1 $-1 $-1 $38 $-1 $13 #
shell $-1 $-1 $-1 $39 $-1 $15 #
shell $-1 $-1 $-1 $40 $-1 $17 #
shell $-1 $-1 $-1 $41 $-1 $19 #
shell $-1 $-1 $-1 $42 $-1 $21 #
shell $-1 $-1 $-1 $43 $-1 $23 #
shell $-1 $-1 $-1 $44 $-1 $25 #
face $-1 $45 $46 $27 $-1 $47 forward single #
face $-1 $48 $49 $28 $-1 $50 forward single #
face $-1 $51 $52 $29 $-1 $53 reversed single #
face $-1 $54 $55 $30 $-1 $56 forward single #
face $-1 $57 $58 $31 $-1 $59 forward single #
face $-1 $60 $61 $32 $-1 $62 reversed single #
face $-1 $63 $64 $33 $-1 $65 forward single #
face $-1 $66 $67 $34 $-1 $68 forward single #
face $-1 $69 $70 $35 $-1 $71 forward single #
face $-1 $72 $73 $27 $-1 $74 reversed single #
loop $-1 $-1 $75 $36 #
plane-surface $-1 0 0 7.8735029114381865 0 0 1 1 0 0 forward_v I I I I #
face $-1 $76 $77 $28 $-1 $78 forward single #
loop $-1 $-1 $79 $37 #
plane-surface $-1 0 -31.516133630478262 0 0 1 0 0 0 1 forward_v I I I I #
face $-1 $80 $81 $29 $-1 $82 reversed single #
loop $-1 $-1 $83 $38 #
plane-surface $-1 26.952665588939524 25.836758973276318 148.1121966885442 0 -1 0 -0.57357644374324357 0 -0.81915203911291934 forward_v I I I I #
face $-1 $84 $85 $30 $-1 $86 forward single #
loop $-1 $87 $88 $39 #
cone-surface $-1 47.006951540514955 20.550416030388153 3.1555293286895294 -0.57357644374324357 0 -0.81915203911291934 0.81915203911291934 0 -0.57357644374324357 1 I I 0 1 1 forward I I I I #
face $-1 $89 $90 $31 $-1 $91 forward single #
loop $-1 $92 $93 $40 #
cone-surface $-1 47.006951540514955 23.722221796121051 3.1555293286895294 -0.57357644374324357 0 -0.81915203911291934 0.81915203911291934 0 -0.57357644374324357 1 I I 0 1 1 forward I I I I #
face $-1 $94 $95 $32 $-1 $96 reversed single #
loop $-1 $-1 $97 $41 #
plane-surface $-1 -112.20650141163762 -21.76111654602094 90.75556443088486 0 1 0 -0.55919291073839883 0 0.82903756765294845 forward_v I I I I #
face $-1 $98 $99 $33 $-1 $100 forward single #
loop $-1 $101 $102 $42 #
cone-surface $-1 -48.624856096057989 -18.668496427336777 4.3953062964968037 0.55919291073839883 0 -0.82903756765294845 0.82903756765294845 0 0.55919291073839883 1 I I 0 1 1 forward I I I I #
face $-1 $103 $104 $34 $-1 $105 forward single #
loop $-1 $106 $107 $43 #
cone-surface $-1 -48.624856096057989 -14.029566249310538 4.3953062964968037 0.55919291073839883 0 -0.82903756765294845 0.82903756765294845 0 0.55919291073839883 1 I I 0 1 1 forward I I I I #
face $-1 $108 $109 $35 $-1 $110 forward single #
loop $-1 $111 $112 $44 #
cone-surface $-1 -48.624856096057989 -9.3906360712842947 4.3953062964968037 0.55919291073839883 0 -0.82903756765294845 0.82903756765294845 0 0.55919291073839883 1 I I 0 1 1 forward I I I I #
face $-1 $113 $114 $27 $-1 $115 reversed single #
loop $-1 $-1 $116 $45 #
plane-surface $-1 0 0 -7.8735029114381865 0 0 1 1 0 0 forward_v I I I I #
coedge $-1 $117 $118 $119 $120 forward $46 $-1 #
face $-1 $121 $122 $28 $-1 $123 reversed single #
loop $-1 $-1 $124 $48 #
plane-surface $-1 0 0 7.8735029114381865 0 0 1 1 0 0 forward_v I I I I #
coedge $-1 $125 $126 $127 $128 forward $49 $-1 #
face $-1 $129 $130 $29 $-1 $131 reversed single #
loop $-1 $-1 $132 $51 #
plane-surface $-1 -33.809642572367494 22.136318913254602 61.33462906963598 0.57357644374324357 0 0.81915203911291934 0.81915203911291934 0 -0.57357644374324357 forward_v I I I I #
coedge $-1 $133 $134 $135 $136 reversed $52 $-1 #
face $-1 $-1 $137 $30 $-1 $138 forward single #
loop $-1 $139 $140 $54 #
cone-surface $-1 45.97277397478264 20.550416030388153 1.6785707279390403 -0.57357644374324357 0 -0.81915203911291934 0.40957601955645967 0 -0.28678822187162178 1 I I -0.70710678118654746 0.70710678118654746 0.5 forward I I I I #
loop $-1 $-1 $141 $39 #
coedge $-1 $88 $88 $142 $143 reversed $55 $-1 #
face $-1 $-1 $144 $31 $-1 $145 forward single #
loop $-1 $146 $147 $57 #
cone-surface $-1 45.97277397478264 23.722221796121051 1.6785707279390403 -0.57357644374324357 0 -0.81915203911291934 0.40957601955645967 0 -0.28678822187162178 1 I I -0.70710678118654746 0.70710678118654746 0.5 forward I I I I #
loop $-1 $-1 $148 $40 #
coedge $-1 $93 $93 $149 $150 reversed $58 $-1 #
face $-1 $151 $152 $32 $-1 $153 reversed single #
loop $-1 $-1 $154 $60 #
plane-surface $-1 -52.967925046540721 -14.029566249310538 2.9307649424692386 -0.55919291073839883 0 0.82903756765294845 0.82903756765294845 0 0.55919291073839883 forward_v I I I I #
coedge $-1 $155 $156 $157 $158 reversed $61 $-1 #
face $-1 $-1 $159 $33 $-1 $160 forward single #
loop $-1 $161 $162 $63 #
cone-surface $-1 -47.666145816111509 -18.668496427336777 2.9739598822134239 0.55919291073839883 0 -0.82903756765294845 0.41451878382647422 0 0.27959645536919941 1 I I -0.70710678118654746 0.70710678118654746 0.5 forward I I I I #
loop $-1 $-1 $163 $42 #
coedge $-1 $102 $102 $164 $165 reversed $64 $-1 #
face $-1 $-1 $166 $34 $-1 $167 forward single #
loop $-1 $168 $169 $66 #
cone-surface $-1 -47.666145816111509 -14.029566249310538 2.9739598822134239 0.55919291073839883 0 -0.82903756765294845 0.41451878382647422 0 0.27959645536919941 1 I I -0.70710678118654746 0.70710678118654746 0.5 forward I I I I #
loop $-1 $-1 $170 $43 #
coedge $-1 $107 $107 $171 $172 reversed $67 $-1 #
face $-1 $-1 $173 $35 $-1 $174 forward single #
loop $-1 $175 $176 $69 #
cone-surface $-1 -47.666145816111509 -9.3906360712842947 2.9739598822134239 0.55919291073839883 0 -0.82903756765294845 0.41451878382647422 0 0.27959645536919941 1 I I -0.70710678118654746 0.70710678118654746 0.5 forward I I I I #
loop $-1 $-1 $177 $44 #
coedge $-1 $112 $112 $178 $179 reversed $70 $-1 #
face $-1 $180 $181 $27 $-1 $182 reversed single #
loop $-1 $-1 $183 $72 #
plane-surface $-1 0 -31.516133630478262 0 0 1 0 0 0 1 forward_v I I I I #
coedge $-1 $184 $185 $186 $187 forward $73 $-1 #
coedge $-1 $188 $75 $189 $190 forward $46 $-1 #
coedge $-1 $75 $188 $191 $192 forward $46 $-1 #
coedge $-1 $193 $194 $75 $120 reversed $195 $-1 #
edge $-1 $196 -31.516133630478262 $197 31.516133630478262 $119 $198 forward 7 unknown #
face $-1 $199 $200 $28 $-1 $201 reversed single #
loop $-1 $-1 $202 $76 #
plane-surface $-1 -52.967925046540728 0 0 1 0 0 0 0 -1 forward_v I I I I #
coedge $-1 $203 $204 $205 $206 forward $77 $-1 #
coedge $-1 $205 $79 $202 $207 reversed $49 $-1 #
coedge $-1 $79 $205 $208 $209 reversed $49 $-1 #
coedge $-1 $210 $211 $79 $128 reversed $200 $-1 #
edge $-1 $212 -52.967925046540728 $213 52.967925046540728 $127 $214 forward 7 unknown #
face $-1 $215 $216 $29 $-1 $217 reversed single #
loop $-1 $-1 $218 $80 #
plane-surface $-1 26.952665588939524 18.435878853232886 148.1121966885442 0 1 0 0.57357644374324357 0 0.81915203911291934 forward_v I I I I #
coedge $-1 $219 $220 $221 $222 reversed $81 $-1 #
coedge $-1 $134 $83 $223 $224 reversed $52 $-1 #
coedge $-1 $83 $133 $219 $225 reversed $52 $-1 #
coedge $-1 $221 $226 $83 $136 forward $227 $-1 #
edge $-1 $228 -39.491592252070966 $229 -29.06442392774084 $135 $230 forward 7 unknown #
loop $-1 $-1 $142 $84 #
plane-surface $-1 -33.809642572367494 22.136318913254602 61.33462906963598 0.57357644374324357 0 0.81915203911291934 0.81915203911291934 0 -0.57357644374324357 forward_v I I I I #
loop $-1 $-1 $231 $54 #
coedge $-1 $140 $140 $141 $232 reversed $85 $-1 #
coedge $-1 $141 $141 $140 $232 forward $87 $-1 #
coedge $-1 $142 $142 $88 $143 forward $137 $-1 #
edge $-1 $233 0 $233 6.2831853071796004 $142 $234 forward 7 unknown #
loop $-1 $-1 $149 $89 #
plane-surface $-1 -33.809642572367494 22.136318913254602 61.33462906963598 0.57357644374324357 0 0.81915203911291934 0.81915203911291934 0 -0.57357644374324357 forward_v I I I I #
loop $-1 $-1 $235 $57 #
coedge $-1 $147 $147 $148 $236 reversed $90 $-1 #
coedge $-1 $148 $148 $147 $236 forward $92 $-1 #
coedge $-1 $149 $149 $93 $150 forward $144 $-1 #
edge $-1 $237 0 $237 6.2831853071796004 $149 $238 forward 7 unknown #
face $-1 $239 $240 $32 $-1 $241 forward single #
loop $-1 $-1 $242 $94 #
plane-surface $-1 -112.20650141163762 -6.2980159526001351 90.75556443088486 0 -1 0 0.55919291073839883 0 -0.82903756765294845 forward_v I I I I #
coedge $-1 $243 $244 $245 $246 reversed $95 $-1 #
coedge $-1 $156 $97 $247 $248 reversed $61 $-1 #
coedge $-1 $97 $155 $243 $249 reversed $61 $-1 #
coedge $-1 $245 $250 $97 $158 forward $240 $-1 #
edge $-1 $251 3.1353256592780809 $252 10.463235911088987 $157 $253 forward 7 unknown #
loop $-1 $-1 $164 $98 #
plane-surface $-1 -52.967925046540721 -14.029566249310538 2.9307649424692386 -0.55919291073839883 0 0.82903756765294845 0.82903756765294845 0 0.55919291073839883 forward_v I I I I #
loop $-1 $-1 $254 $63 #
coedge $-1 $162 $162 $163 $255 reversed $99 $-1 #
coedge $-1 $163 $163 $162 $255 forward $101 $-1 #
coedge $-1 $164 $164 $102 $165 forward $159 $-1 #
edge $-1 $256 0 $256 6.2831853071796004 $164 $257 forward 7 unknown #
loop $-1 $-1 $171 $103 #
plane-surface $-1 -52.967925046540721 -14.029566249310538 2.9307649424692386 -0.55919291073839883 0 0.82903756765294845 0.82903756765294845 0 0.55919291073839883 forward_v I I I I #
loop $-1 $-1 $258 $66 #
coedge $-1 $169 $169 $170 $259 reversed $104 $-1 #
coedge $-1 $170 $170 $169 $259 forward $106 $-1 #
coedge $-1 $171 $171 $107 $172 forward $166 $-1 #
edge $-1 $260 0 $260 6.2831853071796004 $171 $261 forward 7 unknown #
loop $-1 $-1 $178 $108 #
plane-surface $-1 -52.967925046540721 -14.029566249310538 2.9307649424692386 -0.55919291073839883 0 0.82903756765294845 0.82903756765294845 0 0.55919291073839883 forward_v I I I I #
loop $-1 $-1 $262 $69 #
coedge $-1 $176 $176 $177 $263 reversed $109 $-1 #
coedge $-1 $177 $177 $176 $263 forward $111 $-1 #
coedge $-1 $178 $178 $112 $179 forward $173 $-1 #
edge $-1 $264 0 $264 6.2831853071796004 $178 $265 forward 7 unknown #
face $-1 $266 $267 $27 $-1 $268 reversed single #
loop $-1 $-1 $269 $113 #
plane-surface $-1 -52.967925046540728 0 0 1 0 0 0 0 -1 forward_v I I I I #
coedge $-1 $270 $191 $271 $272 forward $114 $-1 #
coedge $-1 $273 $116 $270 $274 forward $73 $-1 #
coedge $-1 $116 $273 $275 $276 forward $73 $-1 #
coedge $-1 $194 $193 $116 $187 reversed $195 $-1 #
edge $-1 $277 -31.516133630478262 $278 31.516133630478262 $186 $279 forward 7 unknown #
coedge $-1 $118 $117 $280 $281 forward $46 $-1 #
coedge $-1 $282 $283 $117 $190 reversed $267 $-1 #
edge $-1 $197 -52.967925046540728 $284 52.967925046540728 $189 $285 forward 7 unknown #
coedge $-1 $183 $286 $118 $192 reversed $114 $-1 #
edge $-1 $287 -52.967925046540728 $196 52.967925046540728 $191 $288 forward 7 unknown #
coedge $-1 $186 $119 $286 $289 forward $195 $-1 #
coedge $-1 $119 $186 $282 $290 reversed $195 $-1 #
loop $-1 $-1 $193 $266 #
vertex $-1 $120 $291 #
vertex $-1 $120 $292 #
straight-curve $-1 52.967925046540728 0 7.8735029114381865 0 1 0 I I #
face $-1 $293 $294 $28 $-1 $295 reversed single #
loop $-1 $-1 $210 $121 #
plane-surface $-1 0 -36.393642172706919 4.7087713996919858 0 0 1 1 0 0 forward_v I I I I #
coedge $-1 $296 $297 $125 $207 forward $122 $-1 #
coedge $-1 $298 $124 $297 $299 forward $77 $-1 #
coedge $-1 $124 $298 $300 $301 forward $77 $-1 #
coedge $-1 $126 $125 $124 $206 reversed $49 $-1 #
edge $-1 $302 -52.967925046540728 $303 52.967925046540728 $124 $304 forward 7 unknown #
edge $-1 $303 -7.8735029114381865 $213 -4.7087713996919858 $202 $305 forward 7 unknown #
coedge $-1 $300 $306 $126 $209 forward $307 $-1 #
edge $-1 $212 4.7087713996919858 $302 7.8735029114381865 $208 $308 forward 7 unknown #
coedge $-1 $309 $127 $306 $310 forward $200 $-1 #
coedge $-1 $127 $309 $296 $311 forward $200 $-1 #
vertex $-1 $209 $312 #
vertex $-1 $207 $313 #
straight-curve $-1 0 -31.516133630478262 4.7087713996919858 -1 0 0 I I #
face $-1 $-1 $227 $29 $-1 $314 forward single #
loop $-1 $-1 $315 $129 #
plane-surface $-1 52.967925046540728 0 0 -1 0 0 0 0 1 forward_v I I I I #
coedge $-1 $316 $317 $318 $319 reversed $130 $-1 #
coedge $-1 $320 $132 $134 $225 forward $81 $-1 #
coedge $-1 $132 $320 $316 $321 forward $81 $-1 #
coedge $-1 $318 $135 $132 $222 forward $227 $-1 #
edge $-1 $229 -14.768599516649017 $322 -7.3677193966055849 $221 $323 forward 7 unknown #
coedge $-1 $324 $325 $133 $224 forward $216 $-1 #
edge $-1 $326 -73.483777435943139 $228 -66.182595432833921 $223 $327 forward 7 unknown #
edge $-1 $229 93.20662788956723 $326 105.93585009308146 $134 $328 forward 7 unknown #
coedge $-1 $135 $318 $324 $329 forward $227 $-1 #
loop $-1 $-1 $318 $215 #
vertex $-1 $224 $330 #
vertex $-1 $136 $331 #
straight-curve $-1 13.476332794469762 25.836758973276318 7.8735029114381803 -1 0 0 I I #
coedge $-1 $231 $231 $-1 $332 reversed $139 $-1 #
edge $-1 $333 0 $333 6.2831853071796004 $140 $334 forward 7 unknown #
vertex $-1 $143 $335 #
ellipse-curve $-1 47.754340884375658 20.550416030388153 4.2229119098835692 0.57357644374324357 0 0.81915203911291934 0.81915203911291934 0 -0.57357644374324357 1 I I #
coedge $-1 $235 $235 $-1 $336 reversed $146 $-1 #
edge $-1 $337 0 $337 6.2831853071796004 $147 $338 forward 7 unknown #
vertex $-1 $150 $339 #
ellipse-curve $-1 47.754340884375658 23.722221796121051 4.2229119098835692 0.57357644374324357 0 0.81915203911291934 0.81915203911291934 0 -0.57357644374324357 1 I I #
face $-1 $-1 $340 $32 $-1 $341 reversed single #
loop $-1 $-1 $157 $151 #
plane-surface $-1 0 0 7.8735029114381865 0 0 1 1 0 0 forward_v I I I I #
coedge $-1 $342 $343 $344 $345 reversed $152 $-1 #
coedge $-1 $346 $154 $156 $249 forward $95 $-1 #
coedge $-1 $154 $346 $342 $347 forward $95 $-1 #
coedge $-1 $344 $157 $154 $246 forward $240 $-1 #
edge $-1 $252 -14.746333421365671 $348 0.71676717205513363 $245 $349 forward 7 unknown #
coedge $-1 $350 $351 $155 $248 forward $340 $-1 #
edge $-1 $352 -42.447017272973198 $251 -37.504279304004243 $247 $353 forward 7 unknown #
edge $-1 $252 -8.8390569230253604 $352 8.6223131303995443e-015 $156 $354 forward 7 unknown #
coedge $-1 $157 $344 $350 $355 forward $240 $-1 #
vertex $-1 $248 $356 #
vertex $-1 $158 $357 #
straight-curve $-1 -56.103250705818809 -21.76111654602094 7.8735029114381874 1 0 0 I I #
coedge $-1 $254 $254 $-1 $358 reversed $161 $-1 #
edge $-1 $359 0 $359 6.2831853071796004 $162 $360 forward 7 unknown #
vertex $-1 $165 $361 #
ellipse-curve $-1 -49.303969920635275 -18.668496427336777 5.4021339269537103 -0.55919291073839883 0 0.82903756765294845 0.82903756765294845 0 0.55919291073839883 1 I I #
coedge $-1 $258 $258 $-1 $362 reversed $168 $-1 #
edge $-1 $363 0 $363 6.2831853071796004 $169 $364 forward 7 unknown #
vertex $-1 $172 $365 #
ellipse-curve $-1 -49.303969920635275 -14.029566249310538 5.4021339269537103 -0.55919291073839883 0 0.82903756765294845 0.82903756765294845 0 0.55919291073839883 1 I I #
coedge $-1 $262 $262 $-1 $366 reversed $175 $-1 #
edge $-1 $367 0 $367 6.2831853071796004 $176 $368 forward 7 unknown #
vertex $-1 $179 $369 #
ellipse-curve $-1 -49.303969920635275 -9.3906360712842947 5.4021339269537103 -0.55919291073839883 0 0.82903756765294845 0.82903756765294845 0 0.55919291073839883 1 I I #
face $-1 $-1 $195 $27 $-1 $370 reversed single #
loop $-1 $-1 $282 $180 #
plane-surface $-1 0 31.516133630478262 0 0 -1 0 0 0 -1 forward_v I I I I #
coedge $-1 $371 $280 $283 $372 forward $181 $-1 #
coedge $-1 $286 $183 $184 $274 reversed $114 $-1 #
coedge $-1 $280 $371 $183 $272 reversed $181 $-1 #
edge $-1 $287 -7.8735029114381865 $373 7.8735029114381865 $271 $374 forward 7 unknown #
coedge $-1 $185 $184 $371 $375 forward $73 $-1 #
edge $-1 $278 -52.967925046540728 $373 52.967925046540728 $270 $376 forward 7 unknown #
coedge $-1 $283 $282 $185 $276 reversed $267 $-1 #
edge $-1 $377 -52.967925046540728 $277 52.967925046540728 $275 $378 forward 7 unknown #
vertex $-1 $187 $379 #
vertex $-1 $289 $380 #
straight-curve $-1 52.967925046540728 0 -7.8735029114381865 0 -1 0 I I #
coedge $-1 $269 $271 $188 $281 reversed $181 $-1 #
edge $-1 $284 -31.516133630478262 $287 31.516133630478262 $280 $381 forward 7 unknown #
coedge $-1 $275 $189 $194 $290 forward $267 $-1 #
coedge $-1 $189 $275 $269 $372 reversed $267 $-1 #
vertex $-1 $190 $382 #
straight-curve $-1 0 31.516133630478262 7.8735029114381865 -1 0 0 I I #
coedge $-1 $191 $270 $193 $289 reversed $114 $-1 #
vertex $-1 $281 $383 #
straight-curve $-1 0 -31.516133630478262 7.8735029114381865 1 0 0 I I #
edge $-1 $196 -7.8735029114381865 $278 7.8735029114381865 $193 $384 forward 7 unknown #
edge $-1 $197 -7.8735029114381865 $277 7.8735029114381865 $194 $385 forward 7 unknown #
point $-1 52.967925046540728 -31.516133630478262 7.8735029114381865 #
point $-1 52.967925046540728 31.516133630478262 7.8735029114381865 #
face $-1 $-1 $307 $28 $-1 $386 reversed single #
loop $-1 $-1 $387 $199 #
plane-surface $-1 0 -41.27115071493558 6.2911371555650861 0 1 0 0 0 1 forward_v I I I I #
coedge $-1 $388 $202 $211 $311 reversed $122 $-1 #
coedge $-1 $202 $388 $203 $299 reversed $122 $-1 #
coedge $-1 $204 $203 $389 $390 forward $77 $-1 #
edge $-1 $303 31.516133630478262 $391 41.27115071493558 $297 $392 forward 7 unknown #
coedge $-1 $393 $208 $204 $301 reversed $307 $-1 #
edge $-1 $394 -41.27115071493558 $302 -31.516133630478262 $300 $395 forward 7 unknown #
vertex $-1 $209 $396 #
vertex $-1 $299 $397 #
straight-curve $-1 0 -31.516133630478262 7.8735029114381865 -1 0 0 I I #
straight-curve $-1 -52.967925046540728 -31.516133630478262 0 0 0 -1 I I #
coedge $-1 $208 $393 $210 $310 reversed $307 $-1 #
loop $-1 $-1 $208 $293 #
straight-curve $-1 52.967925046540728 -31.516133630478262 0 0 0 1 I I #
coedge $-1 $211 $210 $398 $399 forward $200 $-1 #
edge $-1 $212 -4.8775085422286608 $400 4.8775085422286608 $306 $401 forward 7 unknown #
edge $-1 $402 -4.8775085422286608 $213 4.8775085422286608 $296 $403 forward 7 unknown #
point $-1 52.967925046540728 -31.516133630478258 4.7087713996919858 #
point $-1 -52.967925046540728 -31.516133630478258 4.7087713996919858 #
plane-surface $-1 0 0 7.8735029114381865 0 0 1 1 0 0 forward_v I I I I #
coedge $-1 $325 $324 $317 $404 forward $216 $-1 #
coedge $-1 $317 $218 $220 $321 reversed $130 $-1 #
coedge $-1 $218 $316 $315 $404 reversed $130 $-1 #
coedge $-1 $226 $221 $218 $319 forward $227 $-1 #
edge $-1 $322 29.06442392774084 $405 39.491592252070966 $318 $406 forward 7 unknown #
coedge $-1 $220 $219 $325 $407 reversed $81 $-1 #
edge $-1 $408 -105.93585009308146 $322 -93.20662788956723 $316 $409 forward 7 unknown #
vertex $-1 $222 $410 #
straight-curve $-1 42.540756722210581 11.068159456627301 7.8735029114381945 0 -1 0 I I #
coedge $-1 $315 $223 $226 $329 reversed $216 $-1 #
coedge $-1 $223 $315 $320 $407 forward $216 $-1 #
vertex $-1 $224 $411 #
straight-curve $-1 52.967925046540728 25.836758973276318 74.056098344272101 0 0 1 I I #
straight-curve $-1 -33.809642572367494 25.836758973276318 61.33462906963598 0.81915203911291934 0 -0.57357644374324357 I I #
edge $-1 $405 18.435878853232886 $228 25.836758973276318 $324 $412 forward 7 unknown #
point $-1 52.967925046540728 25.836758973276318 7.8735029114381865 #
point $-1 42.540756722210602 25.836758973276318 7.8735029114381874 #
edge $-1 $413 1 $413 0 $231 $-1 forward 7 unknown #
vertex $-1 $232 $414 #
ellipse-curve $-1 46.259562196654265 20.550416030388153 2.0881467474954998 0.57357644374324357 0 0.81915203911291934 0.81915203911291934 0 -0.57357644374324357 1 I I #
point $-1 48.573492923488573 20.550416030388153 3.6493354661403155 #
edge $-1 $415 1 $415 0 $235 $-1 forward 7 unknown #
vertex $-1 $236 $416 #
ellipse-curve $-1 46.259562196654265 23.722221796121051 2.0881467474954998 0.57357644374324357 0 0.81915203911291934 0.81915203911291934 0 -0.57357644374324357 1 I I #
point $-1 48.573492923488573 23.722221796121051 3.6493354661403155 #
loop $-1 $-1 $247 $239 #
plane-surface $-1 -52.967925046540728 0 0 1 0 0 0 0 -1 forward_v I I I I #
coedge $-1 $343 $242 $244 $347 reversed $152 $-1 #
coedge $-1 $242 $342 $417 $418 reversed $152 $-1 #
coedge $-1 $250 $245 $242 $345 forward $240 $-1 #
edge $-1 $348 -10.463235911088987 $419 -3.1353256592780809 $344 $420 forward 7 unknown #
coedge $-1 $244 $243 $351 $421 reversed $95 $-1 #
edge $-1 $422 -8.6223131303995443e-015 $348 8.8390569230253604 $342 $423 forward 7 unknown #
vertex $-1 $246 $424 #
straight-curve $-1 -45.640014794729822 -7.0147831246552688 7.8735029114381856 0 1 0 I I #
coedge $-1 $417 $247 $250 $355 reversed $340 $-1 #
coedge $-1 $247 $417 $346 $421 forward $340 $-1 #
vertex $-1 $248 $425 #
straight-curve $-1 -52.967925046540728 -21.76111654602094 45.37778221544243 0 0 1 I I #
straight-curve $-1 -52.967925046540721 -21.76111654602094 2.9307649424692386 -0.82903756765294845 0 -0.55919291073839883 I I #
edge $-1 $419 6.2980159526001351 $251 21.76111654602094 $350 $426 forward 7 unknown #
point $-1 -52.967925046540728 -21.76111654602094 7.8735029114381865 #
point $-1 -45.640014794729822 -21.76111654602094 7.8735029114381865 #
edge $-1 $427 1 $427 0 $254 $-1 forward 7 unknown #
vertex $-1 $255 $428 #
ellipse-curve $-1 -47.945742271480711 -18.668496427336777 3.388478666039898 -0.55919291073839883 0 0.82903756765294845 0.82903756765294845 0 0.55919291073839883 1 I I #
point $-1 -48.474932352982329 -18.668496427336777 5.9613268376921074 #
edge $-1 $429 1 $429 0 $258 $-1 forward 7 unknown #
vertex $-1 $259 $430 #
ellipse-curve $-1 -47.945742271480711 -14.029566249310538 3.388478666039898 -0.55919291073839883 0 0.82903756765294845 0.82903756765294845 0 0.55919291073839883 1 I I #
point $-1 -48.474932352982329 -14.029566249310538 5.9613268376921074 #
edge $-1 $431 1 $431 0 $262 $-1 forward 7 unknown #
vertex $-1 $263 $432 #
ellipse-curve $-1 -47.945742271480711 -9.3906360712842947 3.388478666039898 -0.55919291073839883 0 0.82903756765294845 0.82903756765294845 0 0.55919291073839883 1 I I #
point $-1 -48.474932352982329 -9.3906360712842947 5.9613268376921074 #
plane-surface $-1 52.967925046540728 0 0 -1 0 0 0 0 1 forward_v I I I I #
coedge $-1 $271 $269 $273 $375 reversed $181 $-1 #
edge $-1 $284 -7.8735029114381865 $377 7.8735029114381865 $283 $433 forward 7 unknown #
vertex $-1 $375 $434 #
straight-curve $-1 -52.967925046540728 -31.516133630478262 0 0 0 -1 I I #
edge $-1 $373 -31.516133630478262 $377 31.516133630478262 $371 $435 forward 7 unknown #
straight-curve $-1 0 -31.516133630478262 -7.8735029114381865 -1 0 0 I I #
vertex $-1 $276 $436 #
straight-curve $-1 0 31.516133630478262 -7.8735029114381865 1 0 0 I I #
point $-1 52.967925046540728 31.516133630478262 -7.8735029114381865 #
point $-1 52.967925046540728 -31.516133630478262 -7.8735029114381865 #
straight-curve $-1 -52.967925046540728 0 7.8735029114381865 0 -1 0 I I #
point $-1 -52.967925046540728 31.516133630478262 7.8735029114381865 #
point $-1 -52.967925046540728 -31.516133630478262 7.8735029114381865 #
straight-curve $-1 52.967925046540728 -31.516133630478262 0 0 0 -1 I I #
straight-curve $-1 52.967925046540728 31.516133630478262 0 0 0 -1 I I #
plane-surface $-1 52.967925046540728 0 0 -1 0 0 0 0 1 forward_v I I I I #
coedge $-1 $398 $389 $388 $437 forward $294 $-1 #
coedge $-1 $297 $296 $387 $437 reversed $122 $-1 #
coedge $-1 $387 $438 $298 $390 reversed $294 $-1 #
edge $-1 $391 -52.967925046540728 $394 52.967925046540728 $389 $439 forward 7 unknown #
vertex $-1 $299 $440 #
straight-curve $-1 -52.967925046540728 0 7.8735029114381865 0 -1 0 I I #
coedge $-1 $306 $300 $438 $441 forward $307 $-1 #
vertex $-1 $301 $442 #
straight-curve $-1 52.967925046540728 0 7.8735029114381865 0 1 0 I I #
point $-1 52.967925046540728 -31.516133630478262 7.8735029114381865 #
point $-1 -52.967925046540728 -31.516133630478262 7.8735029114381865 #
coedge $-1 $438 $387 $309 $399 reversed $294 $-1 #
edge $-1 $400 -52.967925046540728 $402 52.967925046540728 $398 $443 forward 7 unknown #
vertex $-1 $441 $444 #
straight-curve $-1 52.967925046540728 -36.393642172706919 4.7087713996919858 0 -1 0 I I #
vertex $-1 $311 $445 #
straight-curve $-1 -52.967925046540728 -36.393642172706919 4.7087713996919858 0 1 0 I I #
edge $-1 $405 66.182595432833921 $408 73.483777435943139 $315 $446 forward 7 unknown #
vertex $-1 $329 $447 #
straight-curve $-1 13.476332794469762 18.435878853232886 7.8735029114381803 1 0 0 I I #
edge $-1 $408 7.3677193966055849 $326 14.768599516649017 $325 $448 forward 7 unknown #
vertex $-1 $407 $449 #
straight-curve $-1 -33.809642572367494 18.435878853232886 61.33462906963598 -0.81915203911291934 0 0.57357644374324357 I I #
point $-1 42.540756722210602 18.435878853232886 7.8735029114381874 #
point $-1 52.967925046540728 25.836758973276318 0.57232090832896176 #
straight-curve $-1 52.967925046540728 0 7.8735029114381865 0 1 0 I I #
vertex $-1 $332 $450 #
point $-1 47.07871423576718 20.550416030388153 1.5145703037522564 #
vertex $-1 $336 $451 #
point $-1 47.07871423576718 23.722221796121051 1.5145703037522564 #
coedge $-1 $351 $350 $343 $418 forward $340 $-1 #
edge $-1 $419 37.504279304004243 $422 42.447017272973198 $417 $452 forward 7 unknown #
vertex $-1 $355 $453 #
straight-curve $-1 -56.103250705818809 -6.2980159526001351 7.8735029114381874 -1 0 0 I I #
edge $-1 $422 -0.71676717205513363 $352 14.746333421365671 $351 $454 forward 7 unknown #
vertex $-1 $421 $455 #
straight-curve $-1 -52.967925046540721 -6.2980159526001351 2.9307649424692386 0.82903756765294845 0 0.55919291073839883 I I #
point $-1 -45.640014794729822 -6.2980159526001351 7.8735029114381865 #
point $-1 -52.967925046540728 -21.76111654602094 2.9307649424692337 #
straight-curve $-1 -52.967925046540728 0 7.8735029114381865 0 -1 0 I I #
vertex $-1 $358 $456 #
point $-1 -47.116704703827757 -18.668496427336777 3.9476715767782968 #
vertex $-1 $362 $457 #
point $-1 -47.116704703827757 -14.029566249310538 3.9476715767782968 #
vertex $-1 $366 $458 #
point $-1 -47.116704703827757 -9.3906360712842947 3.9476715767782968 #
straight-curve $-1 -52.967925046540728 31.516133630478262 0 0 0 -1 I I #
point $-1 -52.967925046540728 -31.516133630478262 -7.8735029114381865 #
straight-curve $-1 -52.967925046540728 0 -7.8735029114381865 0 1 0 I I #
point $-1 -52.967925046540728 31.516133630478262 -7.8735029114381865 #
edge $-1 $391 -1.5823657558731004 $402 1.5823657558731004 $388 $459 forward 7 unknown #
coedge $-1 $389 $398 $393 $441 reversed $294 $-1 #
straight-curve $-1 0 -41.27115071493558 7.8735029114381865 1 0 0 I I #
point $-1 -52.967925046540728 -41.27115071493558 7.8735029114381865 #
edge $-1 $394 -1.5823657558731004 $400 1.5823657558731004 $393 $460 forward 7 unknown #
point $-1 52.967925046540728 -41.27115071493558 7.8735029114381865 #
straight-curve $-1 0 -41.27115071493558 4.7087713996919858 -1 0 0 I I #
point $-1 52.967925046540728 -41.27115071493558 4.7087713996919858 #
point $-1 -52.967925046540728 -41.27115071493558 4.7087713996919858 #
straight-curve $-1 52.967925046540728 18.435878853232886 74.056098344272101 0 0 -1 I I #
point $-1 52.967925046540728 18.435878853232886 7.8735029114381865 #
straight-curve $-1 52.967925046540735 11.068159456627301 0.57232090832895821 0 1 0 I I #
point $-1 52.967925046540728 18.435878853232886 0.57232090832896176 #
point $-1 45.685985752911016 20.550416030388153 1.2689947083825805 #
point $-1 45.685985752911016 23.722221796121051 1.2689947083825805 #
straight-curve $-1 -52.967925046540728 -6.2980159526001351 45.37778221544243 0 0 -1 I I #
point $-1 -52.967925046540728 -6.2980159526001351 7.8735029114381865 #
straight-curve $-1 -52.967925046540728 -7.0147831246552688 2.9307649424692341 0 -1 0 I I #
point $-1 -52.967925046540728 -6.2980159526001351 2.9307649424692337 #
point $-1 -47.386549360742308 -18.668496427336777 2.5594410983869498 #
point $-1 -47.386549360742308 -14.029566249310538 2.5594410983869498 #
point $-1 -47.386549360742308 -9.3906360712842947 2.5594410983869498 #
straight-curve $-1 -52.967925046540728 -41.27115071493558 6.2911371555650861 0 0 -1 I I #
straight-curve $-1 52.967925046540728 -41.27115071493558 6.2911371555650861 0 0 -1 I I #
End-of-ACIS-data 