500 0 8 0           
7 Unknown 11 ACIS 5.0 NT 24 Thu Mar 25 20:56:22 1999 
-1 9.9999999999999995e-007 1e-010 
body $-1 $8 $-1 $9 #
body $-1 $10 $-1 $11 #
body $-1 $12 $-1 $13 #
body $-1 $14 $-1 $15 #
body $-1 $16 $-1 $17 #
body $-1 $18 $-1 $19 #
body $-1 $20 $-1 $21 #
body $-1 $22 $-1 $23 #
lump $-1 $-1 $24 $0 #
transform $-1 1 0 0 0 1 0 0 0 1 55.44724875637074 34.251329288692155 13.453841029355724 1 rotate no_reflect no_shear #
lump $-1 $-1 $25 $1 #
transform $-1 1 0 0 0 1 0 0 0 1 55.44724875637074 34.251329288692155 13.453841029355724 1 rotate no_reflect no_shear #
lump $-1 $-1 $26 $2 #
transform $-1 1 0 0 0 1 0 0 0 1 55.44724875637074 34.251329288692155 13.453841029355724 1 rotate no_reflect no_shear #
lump $-1 $-1 $27 $3 #
transform $-1 1 0 0 0 1 0 0 0 1 55.44724875637074 34.251329288692155 13.453841029355724 1 rotate no_reflect no_shear #
lump $-1 $-1 $28 $4 #
transform $-1 1 0 0 0 1 0 0 0 1 55.44724875637074 34.251329288692155 13.453841029355724 1 rotate no_reflect no_shear #
lump $-1 $-1 $29 $5 #
transform $-1 1 0 0 0 1 0 0 0 1 55.44724875637074 34.251329288692155 13.453841029355724 1 rotate no_reflect no_shear #
lump $-1 $-1 $30 $6 #
transform $-1 1 0 0 0 1 0 0 0 1 55.44724875637074 34.251329288692155 13.453841029355724 1 rotate no_reflect no_shear #
lump $-1 $-1 $31 $7 #
transform $-1 1 0 0 0 1 0 0 0 1 55.44724875637074 34.251329288692155 13.453841029355724 1 rotate no_reflect no_shear #
shell $-1 $-1 $-1 $32 $-1 $8 #
shell $-1 $-1 $-1 $33 $-1 $10 #
shell $-1 $-1 $-1 $34 $-1 $12 #
shell $-1 $-1 $-1 $35 $-1 $14 #
shell $-1 $-1 $-1 $36 $-1 $16 #
shell $-1 $-1 $-1 $37 $-1 $18 #
shell $-1 $-1 $-1 $38 $-1 $20 #
shell $-1 $-1 $-1 $39 $-1 $22 #
face $-1 $40 $41 $24 $-1 $42 forward single #
face $-1 $43 $44 $25 $-1 $45 reversed single #
face $-1 $46 $47 $26 $-1 $48 reversed single #
face $-1 $49 $50 $27 $-1 $51 forward single #
face $-1 $52 $53 $28 $-1 $54 forward single #
face $-1 $55 $56 $29 $-1 $57 reversed single #
face $-1 $58 $59 $30 $-1 $60 forward single #
face $-1 $61 $62 $31 $-1 $63 forward single #
face $-1 $64 $65 $24 $-1 $66 reversed single #
loop $-1 $-1 $67 $32 #
plane-surface $-1 0 0 13.453841029355724 0 0 1 1 0 0 forward_v I I I I #
face $-1 $68 $69 $25 $-1 $70 reversed single #
loop $-1 $-1 $71 $33 #
plane-surface $-1 -52.127988639014418 -17.017709080164089 0 0 -1 0 0 0 -1 forward_v I I I I #
face $-1 $72 $73 $26 $-1 $74 reversed single #
loop $-1 $-1 $75 $34 #
plane-surface $-1 -140.39736326742053 -10.712242629714833 74.295856676724881 0 -1 0 0.7660444514056185 0 -0.64278759981090561 forward_v I I I I #
face $-1 $76 $77 $27 $-1 $78 forward single #
loop $-1 $79 $80 $35 #
cone-surface $-1 -50.684297645773015 -15.216147237178589 7.9126511089090821 0.7660444514056185 0 -0.64278759981090561 0.3213937999054528 0 0.38302222570280925 1 I I 0 1 0.5 forward I I I I #
face $-1 $81 $82 $28 $-1 $83 forward single #
loop $-1 $84 $85 $36 #
cone-surface $-1 -50.684297645773015 -12.513804472700336 7.9126511089090821 0.7660444514056185 0 -0.64278759981090561 0.3213937999054528 0 0.38302222570280925 1 I I 0 1 0.5 forward I I I I #
face $-1 $86 $87 $29 $-1 $88 reversed single #
loop $-1 $-1 $89 $37 #
plane-surface $-1 69.115755378968984 -10.712242629714833 159.24597118777467 0 -1 0 -0.7660444514056185 0 -0.64278759981090561 forward_v I I I I #
face $-1 $90 $91 $30 $-1 $92 forward single #
loop $-1 $93 $94 $38 #
cone-surface $-1 50.684297645773007 -15.216147237178589 7.9126511089090963 -0.7660444514056185 0 -0.64278759981090561 0.3213937999054528 0 -0.38302222570280925 1 I I 0 1 0.5 forward I I I I #
face $-1 $95 $96 $31 $-1 $97 forward single #
loop $-1 $98 $99 $39 #
cone-surface $-1 50.684297645773007 -12.513804472700336 7.9126511089090963 -0.7660444514056185 0 -0.64278759981090561 0.3213937999054528 0 -0.38302222570280925 1 I I 0 1 0.5 forward I I I I #
face $-1 $100 $101 $24 $-1 $102 reversed single #
loop $-1 $-1 $103 $40 #
plane-surface $-1 0 0 -13.453841029355724 0 0 1 1 0 0 forward_v I I I I #
coedge $-1 $104 $105 $106 $107 forward $41 $-1 #
face $-1 $108 $109 $25 $-1 $110 forward single #
loop $-1 $-1 $111 $43 #
plane-surface $-1 -48.808728521658097 -25.634519184428122 0 -1 0 0 0 0 1 forward_v I I I I #
coedge $-1 $112 $113 $114 $115 forward $44 $-1 #
face $-1 $116 $117 $26 $-1 $118 forward single #
loop $-1 $-1 $119 $46 #
plane-surface $-1 -55.447248756370755 -13.864975854939463 3.0142487882733491 -0.7660444514056185 0 0.64278759981090561 0.64278759981090561 0 0.7660444514056185 forward_v I I I I #
coedge $-1 $120 $121 $122 $123 reversed $47 $-1 #
face $-1 $-1 $124 $27 $-1 $125 forward single #
loop $-1 $126 $127 $49 #
cone-surface $-1 -50.109764307218803 -15.216147237178589 7.4305604090509032 0.7660444514056185 0 -0.64278759981090561 0.1606968999527264 0 0.19151111285140462 1 I I -0.70710678118654746 0.70710678118654746 0.25 forward I I I I #
loop $-1 $-1 $128 $35 #
coedge $-1 $80 $80 $129 $130 reversed $50 $-1 #
face $-1 $-1 $131 $28 $-1 $132 forward single #
loop $-1 $133 $134 $52 #
cone-surface $-1 -50.109764307218803 -12.513804472700336 7.4305604090509032 0.7660444514056185 0 -0.64278759981090561 0.1606968999527264 0 0.19151111285140462 1 I I -0.70710678118654746 0.70710678118654746 0.25 forward I I I I #
loop $-1 $-1 $135 $36 #
coedge $-1 $85 $85 $136 $137 reversed $53 $-1 #
face $-1 $138 $139 $29 $-1 $140 reversed single #
loop $-1 $-1 $141 $55 #
plane-surface $-1 -15.834359132080792 -13.864975854939463 87.964363299323139 0.7660444514056185 0 0.64278759981090561 0.64278759981090561 0 -0.7660444514056185 forward_v I I I I #
coedge $-1 $142 $143 $144 $145 reversed $56 $-1 #
face $-1 $-1 $146 $30 $-1 $147 forward single #
loop $-1 $148 $149 $58 #
cone-surface $-1 50.109764307218796 -15.216147237178589 7.4305604090509174 -0.7660444514056185 0 -0.64278759981090561 0.1606968999527264 0 -0.19151111285140462 1 I I -0.70710678118654746 0.70710678118654746 0.25 forward I I I I #
loop $-1 $-1 $150 $38 #
coedge $-1 $94 $94 $151 $152 reversed $59 $-1 #
face $-1 $-1 $153 $31 $-1 $154 forward single #
loop $-1 $155 $156 $61 #
cone-surface $-1 50.109764307218796 -12.513804472700336 7.4305604090509174 -0.7660444514056185 0 -0.64278759981090561 0.1606968999527264 0 -0.19151111285140462 1 I I -0.70710678118654746 0.70710678118654746 0.25 forward I I I I #
loop $-1 $-1 $157 $39 #
coedge $-1 $99 $99 $158 $159 reversed $62 $-1 #
face $-1 $160 $161 $24 $-1 $162 reversed single #
loop $-1 $-1 $163 $64 #
plane-surface $-1 0 -34.251329288692155 0 0 1 0 0 0 1 forward_v I I I I #
coedge $-1 $164 $165 $166 $167 forward $65 $-1 #
coedge $-1 $168 $67 $169 $170 forward $41 $-1 #
coedge $-1 $67 $168 $171 $172 forward $41 $-1 #
coedge $-1 $173 $174 $67 $107 reversed $175 $-1 #
edge $-1 $176 -34.251329288692155 $177 34.251329288692155 $106 $178 forward 7 unknown #
face $-1 $179 $180 $25 $-1 $181 reversed single #
loop $-1 $-1 $182 $68 #
plane-surface $-1 0 0 13.453841029355724 0 0 1 1 0 0 forward_v I I I I #
coedge $-1 $183 $184 $185 $186 reversed $69 $-1 #
coedge $-1 $187 $71 $188 $189 reversed $44 $-1 #
coedge $-1 $71 $187 $190 $191 reversed $44 $-1 #
coedge $-1 $184 $183 $71 $115 reversed $69 $-1 #
edge $-1 $192 -13.453841029355724 $193 13.453841029355724 $114 $194 forward 7 unknown #
face $-1 $195 $196 $26 $-1 $197 forward single #
loop $-1 $-1 $198 $72 #
plane-surface $-1 0 0 13.453841029355724 0 0 1 1 0 0 forward_v I I I I #
coedge $-1 $199 $200 $201 $202 reversed $73 $-1 #
coedge $-1 $121 $75 $203 $204 reversed $47 $-1 #
coedge $-1 $75 $120 $199 $205 reversed $47 $-1 #
coedge $-1 $201 $206 $75 $123 forward $207 $-1 #
edge $-1 $208 23.694087309006719 $209 34.133679550089077 $122 $210 forward 7 unknown #
loop $-1 $-1 $129 $76 #
plane-surface $-1 -55.447248756370755 -13.864975854939463 3.0142487882733491 -0.7660444514056185 0 0.64278759981090561 0.64278759981090561 0 0.7660444514056185 forward_v I I I I #
loop $-1 $-1 $211 $49 #
coedge $-1 $127 $127 $128 $212 reversed $77 $-1 #
coedge $-1 $128 $128 $127 $212 forward $79 $-1 #
coedge $-1 $129 $129 $80 $130 forward $124 $-1 #
edge $-1 $213 0 $213 6.2831853071796004 $129 $214 forward 7 unknown #
loop $-1 $-1 $136 $81 #
plane-surface $-1 -55.447248756370755 -13.864975854939463 3.0142487882733491 -0.7660444514056185 0 0.64278759981090561 0.64278759981090561 0 0.7660444514056185 forward_v I I I I #
loop $-1 $-1 $215 $52 #
coedge $-1 $134 $134 $135 $216 reversed $82 $-1 #
coedge $-1 $135 $135 $134 $216 forward $84 $-1 #
coedge $-1 $136 $136 $85 $137 forward $131 $-1 #
edge $-1 $217 0 $217 6.2831853071796004 $136 $218 forward 7 unknown #
face $-1 $219 $220 $29 $-1 $221 reversed single #
loop $-1 $-1 $222 $86 #
plane-surface $-1 69.115755378968984 -17.017709080164092 159.24597118777467 0 1 0 0.7660444514056185 0 0.64278759981090561 forward_v I I I I #
coedge $-1 $223 $224 $225 $226 reversed $87 $-1 #
coedge $-1 $143 $89 $227 $228 reversed $56 $-1 #
coedge $-1 $89 $142 $223 $229 reversed $56 $-1 #
coedge $-1 $225 $230 $89 $145 forward $231 $-1 #
edge $-1 $232 -20.889371066886248 $233 -12.129513297096437 $144 $234 forward 7 unknown #
loop $-1 $-1 $151 $90 #
plane-surface $-1 -15.834359132080792 -13.864975854939463 87.964363299323139 0.7660444514056185 0 0.64278759981090561 0.64278759981090561 0 -0.7660444514056185 forward_v I I I I #
loop $-1 $-1 $235 $58 #
coedge $-1 $149 $149 $150 $236 reversed $91 $-1 #
coedge $-1 $150 $150 $149 $236 forward $93 $-1 #
coedge $-1 $151 $151 $94 $152 forward $146 $-1 #
edge $-1 $237 0 $237 6.2831853071796004 $151 $238 forward 7 unknown #
loop $-1 $-1 $158 $95 #
plane-surface $-1 -15.834359132080792 -13.864975854939463 87.964363299323139 0.7660444514056185 0 0.64278759981090561 0.64278759981090561 0 -0.7660444514056185 forward_v I I I I #
loop $-1 $-1 $239 $61 #
coedge $-1 $156 $156 $157 $240 reversed $96 $-1 #
coedge $-1 $157 $157 $156 $240 forward $98 $-1 #
coedge $-1 $158 $158 $99 $159 forward $153 $-1 #
edge $-1 $241 0 $241 6.2831853071796004 $158 $242 forward 7 unknown #
face $-1 $243 $244 $24 $-1 $245 reversed single #
loop $-1 $-1 $246 $100 #
plane-surface $-1 -55.44724875637074 0 0 1 0 0 0 0 -1 forward_v I I I I #
coedge $-1 $247 $171 $248 $249 forward $101 $-1 #
coedge $-1 $250 $103 $247 $251 forward $65 $-1 #
coedge $-1 $103 $250 $252 $253 forward $65 $-1 #
coedge $-1 $174 $173 $103 $167 reversed $175 $-1 #
edge $-1 $254 -34.251329288692155 $255 34.251329288692155 $166 $256 forward 7 unknown #
coedge $-1 $105 $104 $257 $258 forward $41 $-1 #
coedge $-1 $259 $260 $104 $170 reversed $244 $-1 #
edge $-1 $177 -55.44724875637074 $261 55.44724875637074 $169 $262 forward 7 unknown #
coedge $-1 $163 $263 $105 $172 reversed $101 $-1 #
edge $-1 $264 -55.44724875637074 $176 55.44724875637074 $171 $265 forward 7 unknown #
coedge $-1 $166 $106 $263 $266 forward $175 $-1 #
coedge $-1 $106 $166 $259 $267 reversed $175 $-1 #
loop $-1 $-1 $173 $243 #
vertex $-1 $107 $268 #
vertex $-1 $107 $269 #
straight-curve $-1 55.44724875637074 0 13.453841029355724 0 1 0 I I #
face $-1 $270 $271 $25 $-1 $272 reversed single #
loop $-1 $-1 $273 $108 #
plane-surface $-1 -55.44724875637074 0 0 1 0 0 0 0 -1 forward_v I I I I #
coedge $-1 $190 $274 $184 $275 forward $109 $-1 #
coedge $-1 $114 $111 $276 $277 reversed $69 $-1 #
coedge $-1 $111 $114 $182 $275 reversed $69 $-1 #
coedge $-1 $278 $279 $111 $186 forward $280 $-1 #
edge $-1 $281 -13.453841029355724 $282 13.453841029355724 $185 $283 forward 7 unknown #
coedge $-1 $113 $112 $273 $284 reversed $44 $-1 #
coedge $-1 $276 $285 $112 $189 forward $271 $-1 #
edge $-1 $286 -29.383254436863531 $193 -22.744734202150887 $188 $287 forward 7 unknown #
coedge $-1 $288 $182 $113 $191 forward $109 $-1 #
edge $-1 $192 22.744734202150887 $289 29.383254436863531 $190 $290 forward 7 unknown #
vertex $-1 $191 $291 #
vertex $-1 $189 $292 #
straight-curve $-1 -48.808728521658097 -17.017709080164089 0 0 0 -1 I I #
face $-1 $-1 $207 $26 $-1 $293 reversed single #
loop $-1 $-1 $294 $116 #
plane-surface $-1 -52.127988639014418 -17.017709080164089 0 0 -1 0 0 0 -1 forward_v I I I I #
coedge $-1 $295 $296 $297 $298 forward $117 $-1 #
coedge $-1 $299 $119 $121 $205 forward $73 $-1 #
coedge $-1 $119 $299 $294 $300 reversed $73 $-1 #
coedge $-1 $301 $122 $119 $202 forward $207 $-1 #
edge $-1 $209 3.7797547022451017 $302 10.085221152694357 $201 $303 forward 7 unknown #
coedge $-1 $296 $295 $120 $204 forward $117 $-1 #
edge $-1 $304 -23.511290647129336 $208 -14.751432877339525 $203 $305 forward 7 unknown #
edge $-1 $209 2.2061860048766535e-014 $304 13.627919661746416 $121 $306 forward 7 unknown #
coedge $-1 $122 $301 $296 $307 reversed $207 $-1 #
loop $-1 $-1 $201 $195 #
vertex $-1 $307 $308 #
vertex $-1 $123 $309 #
straight-curve $-1 -55.44724875637074 -10.712242629714833 37.147928338362441 0 0 -1 I I #
coedge $-1 $211 $211 $-1 $310 reversed $126 $-1 #
edge $-1 $311 0 $311 6.2831853071796004 $127 $312 forward 7 unknown #
vertex $-1 $130 $313 #
ellipse-curve $-1 -51.067319871475831 -15.216147237178589 8.2340449088145444 -0.7660444514056185 0 0.64278759981090561 0.3213937999054528 0 0.38302222570280925 1 I I #
coedge $-1 $215 $215 $-1 $314 reversed $133 $-1 #
edge $-1 $315 0 $315 6.2831853071796004 $134 $316 forward 7 unknown #
vertex $-1 $137 $317 #
ellipse-curve $-1 -51.067319871475831 -12.513804472700336 8.2340449088145444 -0.7660444514056185 0 0.64278759981090561 0.3213937999054528 0 0.38302222570280925 1 I I #
face $-1 $-1 $231 $29 $-1 $318 forward single #
loop $-1 $-1 $319 $138 #
plane-surface $-1 55.44724875637074 0 0 -1 0 0 0 0 1 forward_v I I I I #
coedge $-1 $320 $321 $322 $323 reversed $139 $-1 #
coedge $-1 $324 $141 $143 $229 forward $87 $-1 #
coedge $-1 $141 $324 $320 $325 forward $87 $-1 #
coedge $-1 $322 $144 $141 $226 forward $231 $-1 #
edge $-1 $233 3.7797547022451017 $326 10.085221152694361 $225 $327 forward 7 unknown #
coedge $-1 $328 $329 $142 $228 forward $220 $-1 #
edge $-1 $330 -76.608736805613958 $232 -66.169144564531607 $227 $331 forward 7 unknown #
edge $-1 $233 97.266577850995105 $330 110.89449751274149 $143 $332 forward 7 unknown #
coedge $-1 $144 $322 $328 $333 forward $231 $-1 #
loop $-1 $-1 $322 $219 #
vertex $-1 $228 $334 #
vertex $-1 $145 $335 #
straight-curve $-1 34.557877689484492 -10.712242629714833 13.453841029355729 -1 0 0 I I #
coedge $-1 $235 $235 $-1 $336 reversed $148 $-1 #
edge $-1 $337 0 $337 6.2831853071796004 $149 $338 forward 7 unknown #
vertex $-1 $152 $339 #
ellipse-curve $-1 51.067319871475824 -15.216147237178589 8.2340449088145533 0.7660444514056185 0 0.64278759981090561 0.3213937999054528 0 -0.38302222570280925 1 I I #
coedge $-1 $239 $239 $-1 $340 reversed $155 $-1 #
edge $-1 $341 0 $341 6.2831853071796004 $156 $342 forward 7 unknown #
vertex $-1 $159 $343 #
ellipse-curve $-1 51.067319871475824 -12.513804472700336 8.2340449088145533 0.7660444514056185 0 0.64278759981090561 0.3213937999054528 0 -0.38302222570280925 1 I I #
face $-1 $-1 $175 $24 $-1 $344 reversed single #
loop $-1 $-1 $259 $160 #
plane-surface $-1 0 34.251329288692155 0 0 -1 0 0 0 -1 forward_v I I I I #
coedge $-1 $345 $257 $260 $346 forward $161 $-1 #
coedge $-1 $263 $163 $164 $251 reversed $101 $-1 #
coedge $-1 $257 $345 $163 $249 reversed $161 $-1 #
edge $-1 $264 -13.453841029355724 $347 13.453841029355724 $248 $348 forward 7 unknown #
coedge $-1 $165 $164 $345 $349 forward $65 $-1 #
edge $-1 $255 -55.44724875637074 $347 55.44724875637074 $247 $350 forward 7 unknown #
coedge $-1 $260 $259 $165 $253 reversed $244 $-1 #
edge $-1 $351 -55.44724875637074 $254 55.44724875637074 $252 $352 forward 7 unknown #
vertex $-1 $167 $353 #
vertex $-1 $266 $354 #
straight-curve $-1 55.44724875637074 0 -13.453841029355724 0 -1 0 I I #
coedge $-1 $246 $248 $168 $258 reversed $161 $-1 #
edge $-1 $261 -34.251329288692155 $264 34.251329288692155 $257 $355 forward 7 unknown #
coedge $-1 $252 $169 $174 $267 forward $244 $-1 #
coedge $-1 $169 $252 $246 $346 reversed $244 $-1 #
vertex $-1 $170 $356 #
straight-curve $-1 0 34.251329288692155 13.453841029355724 -1 0 0 I I #
coedge $-1 $171 $247 $173 $266 reversed $101 $-1 #
vertex $-1 $258 $357 #
straight-curve $-1 0 -34.251329288692155 13.453841029355724 1 0 0 I I #
edge $-1 $176 -13.453841029355724 $255 13.453841029355724 $173 $358 forward 7 unknown #
edge $-1 $177 -13.453841029355724 $254 13.453841029355724 $174 $359 forward 7 unknown #
point $-1 55.44724875637074 -34.251329288692155 13.453841029355724 #
point $-1 55.44724875637074 34.251329288692155 13.453841029355724 #
face $-1 $-1 $280 $25 $-1 $360 reversed single #
loop $-1 $-1 $276 $179 #
plane-surface $-1 0 0 -13.453841029355724 0 0 1 1 0 0 forward_v I I I I #
coedge $-1 $361 $362 $187 $284 forward $180 $-1 #
coedge $-1 $182 $288 $278 $363 forward $109 $-1 #
edge $-1 $282 -21.434069696478094 $192 -4.2004494879500278 $182 $364 forward 7 unknown #
coedge $-1 $365 $188 $183 $277 forward $271 $-1 #
edge $-1 $193 4.2004494879500278 $281 21.434069696478094 $276 $366 forward 7 unknown #
coedge $-1 $367 $185 $274 $363 reversed $280 $-1 #
coedge $-1 $185 $367 $365 $368 reversed $280 $-1 #
loop $-1 $-1 $185 $270 #
vertex $-1 $368 $369 #
vertex $-1 $186 $370 #
straight-curve $-1 -48.808728521658097 -34.251329288692155 0 0 0 1 I I #
edge $-1 $289 -13.453841029355724 $286 13.453841029355724 $273 $371 forward 7 unknown #
coedge $-1 $188 $365 $361 $372 forward $271 $-1 #
vertex $-1 $189 $373 #
straight-curve $-1 -26.063994319507209 -17.017709080164089 -13.453841029355724 1 0 0 I I #
coedge $-1 $274 $190 $362 $374 forward $109 $-1 #
vertex $-1 $374 $375 #
straight-curve $-1 -26.063994319507209 -17.017709080164089 13.453841029355724 -1 0 0 I I #
point $-1 -48.808728521658097 -17.017709080164089 13.453841029355724 #
point $-1 -48.808728521658097 -17.017709080164089 -13.453841029355724 #
plane-surface $-1 -55.44724875637074 0 0 1 0 0 0 0 -1 forward_v I I I I #
coedge $-1 $297 $376 $200 $300 forward $196 $-1 #
coedge $-1 $203 $198 $299 $377 forward $117 $-1 #
coedge $-1 $198 $203 $206 $307 forward $117 $-1 #
coedge $-1 $376 $294 $198 $298 reversed $196 $-1 #
edge $-1 $378 -29.383254436863531 $379 -20.62339666707372 $198 $380 forward 7 unknown #
coedge $-1 $200 $199 $295 $377 reversed $73 $-1 #
edge $-1 $302 0.087734657714705788 $379 13.715654319461098 $294 $381 forward 7 unknown #
coedge $-1 $206 $201 $376 $382 forward $207 $-1 #
vertex $-1 $382 $383 #
straight-curve $-1 -55.44724875637074 -6.9324879274697313 3.0142487882733664 0 -1 0 I I #
vertex $-1 $204 $384 #
straight-curve $-1 -70.198681633710265 -10.712242629714833 13.453841029355722 -1 0 0 I I #
straight-curve $-1 -55.447248756370755 -10.712242629714833 3.0142487882733491 0.64278759981090561 0 0.7660444514056185 I I #
edge $-1 $208 10.712242629714833 $378 17.017709080164089 $206 $385 forward 7 unknown #
point $-1 -55.44724875637074 -10.712242629714833 13.453841029355724 #
point $-1 -55.44724875637074 -10.712242629714833 3.014248788273366 #
edge $-1 $386 1 $386 0 $211 $-1 forward 7 unknown #
vertex $-1 $212 $387 #
ellipse-curve $-1 -50.301275420070205 -15.216147237178589 7.5912573090036295 -0.7660444514056185 0 0.64278759981090561 0.3213937999054528 0 0.38302222570280925 1 I I #
point $-1 -50.745926071570373 -15.216147237178589 8.6170671345173453 #
edge $-1 $388 1 $388 0 $215 $-1 forward 7 unknown #
vertex $-1 $216 $389 #
ellipse-curve $-1 -50.301275420070205 -12.513804472700336 7.5912573090036295 -0.7660444514056185 0 0.64278759981090561 0.3213937999054528 0 0.38302222570280925 1 I I #
point $-1 -50.745926071570373 -12.513804472700336 8.6170671345173453 #
plane-surface $-1 0 0 13.453841029355724 0 0 1 1 0 0 forward_v I I I I #
coedge $-1 $329 $328 $321 $390 forward $220 $-1 #
coedge $-1 $321 $222 $224 $325 reversed $139 $-1 #
coedge $-1 $222 $320 $319 $390 reversed $139 $-1 #
coedge $-1 $230 $225 $222 $323 forward $231 $-1 #
edge $-1 $326 12.129513297096437 $391 20.889371066886248 $322 $392 forward 7 unknown #
coedge $-1 $224 $223 $329 $393 reversed $87 $-1 #
edge $-1 $394 -110.89449751274149 $326 -97.266577850995105 $320 $395 forward 7 unknown #
vertex $-1 $226 $396 #
straight-curve $-1 46.687390986580937 -6.9324879274697313 13.453841029355722 0 -1 0 I I #
coedge $-1 $319 $227 $230 $333 reversed $220 $-1 #
coedge $-1 $227 $319 $324 $393 forward $220 $-1 #
vertex $-1 $228 $397 #
straight-curve $-1 55.44724875637074 -10.712242629714833 79.622985593887336 0 0 1 I I #
straight-curve $-1 -15.834359132080792 -10.712242629714833 87.964363299323139 0.64278759981090561 0 -0.7660444514056185 I I #
edge $-1 $391 -17.017709080164092 $232 -10.712242629714833 $328 $398 forward 7 unknown #
point $-1 55.44724875637074 -10.712242629714833 13.453841029355724 #
point $-1 46.68739098658093 -10.712242629714833 13.453841029355729 #
edge $-1 $399 1 $399 0 $235 $-1 forward 7 unknown #
vertex $-1 $236 $400 #
ellipse-curve $-1 50.301275420070198 -15.216147237178589 7.5912573090036437 0.7660444514056185 0 0.64278759981090561 0.3213937999054528 0 -0.38302222570280925 1 I I #
point $-1 51.388713671381275 -15.216147237178589 7.85102268311174 #
edge $-1 $401 1 $401 0 $239 $-1 forward 7 unknown #
vertex $-1 $240 $402 #
ellipse-curve $-1 50.301275420070198 -12.513804472700336 7.5912573090036437 0.7660444514056185 0 0.64278759981090561 0.3213937999054528 0 -0.38302222570280925 1 I I #
point $-1 51.388713671381275 -12.513804472700336 7.85102268311174 #
plane-surface $-1 55.44724875637074 0 0 -1 0 0 0 0 1 forward_v I I I I #
coedge $-1 $248 $246 $250 $349 reversed $161 $-1 #
edge $-1 $261 -13.453841029355724 $351 13.453841029355724 $260 $403 forward 7 unknown #
vertex $-1 $349 $404 #
straight-curve $-1 -55.44724875637074 -34.251329288692155 0 0 0 -1 I I #
edge $-1 $347 -34.251329288692155 $351 34.251329288692155 $345 $405 forward 7 unknown #
straight-curve $-1 0 -34.251329288692155 -13.453841029355724 -1 0 0 I I #
vertex $-1 $253 $406 #
straight-curve $-1 0 34.251329288692155 -13.453841029355724 1 0 0 I I #
point $-1 55.44724875637074 34.251329288692155 -13.453841029355724 #
point $-1 55.44724875637074 -34.251329288692155 -13.453841029355724 #
straight-curve $-1 -55.44724875637074 0 13.453841029355724 0 -1 0 I I #
point $-1 -55.44724875637074 34.251329288692155 13.453841029355724 #
point $-1 -55.44724875637074 -34.251329288692155 13.453841029355724 #
straight-curve $-1 55.44724875637074 -34.251329288692155 0 0 0 -1 I I #
straight-curve $-1 55.44724875637074 34.251329288692155 0 0 0 -1 I I #
plane-surface $-1 0 -34.251329288692155 0 0 1 0 0 0 1 forward_v I I I I #
coedge $-1 $407 $273 $285 $372 reversed $180 $-1 #
coedge $-1 $273 $407 $288 $374 reversed $180 $-1 #
edge $-1 $408 -55.44724875637074 $282 -48.808728521658097 $278 $409 forward 7 unknown #
straight-curve $-1 -48.808728521658097 -12.817259592214061 13.453841029355724 0 1 0 I I #
coedge $-1 $285 $276 $279 $368 forward $271 $-1 #
straight-curve $-1 -48.808728521658097 -12.817259592214061 -13.453841029355724 0 -1 0 I I #
coedge $-1 $279 $278 $407 $410 forward $280 $-1 #
edge $-1 $281 48.808728521658097 $411 55.44724875637074 $279 $412 forward 7 unknown #
point $-1 -48.808728521658097 -34.251329288692155 -13.453841029355724 #
point $-1 -48.808728521658097 -34.251329288692155 13.453841029355724 #
straight-curve $-1 -55.44724875637074 -17.017709080164089 0 0 0 -1 I I #
edge $-1 $411 -34.251329288692155 $286 -17.017709080164089 $361 $413 forward 7 unknown #
point $-1 -55.44724875637074 -17.017709080164089 -13.453841029355724 #
edge $-1 $289 17.017709080164089 $408 34.251329288692155 $362 $414 forward 7 unknown #
point $-1 -55.44724875637074 -17.017709080164089 13.453841029355724 #
coedge $-1 $294 $297 $301 $382 reversed $196 $-1 #
edge $-1 $379 -10.085221152694361 $304 -3.7797547022451017 $295 $415 forward 7 unknown #
vertex $-1 $382 $416 #
vertex $-1 $298 $417 #
straight-curve $-1 -26.063994319507209 -17.017709080164089 13.453841029355724 1 0 0 I I #
straight-curve $-1 -55.503643506423408 -17.017709080164089 2.9470401405350453 0.64278759981090572 0 0.76604445140561861 I I #
edge $-1 $302 3.014248788273366 $378 13.453841029355724 $301 $418 forward 7 unknown #
point $-1 -55.44724875637074 -17.017709080164089 3.014248788273366 #
point $-1 -46.68739098658093 -10.712242629714833 13.453841029355724 #
straight-curve $-1 -55.44724875637074 0 13.453841029355724 0 -1 0 I I #
vertex $-1 $310 $419 #
point $-1 -49.979881620164754 -15.216147237178589 7.9742795347064384 #
vertex $-1 $314 $420 #
point $-1 -49.979881620164754 -12.513804472700336 7.9742795347064384 #
edge $-1 $391 66.169144564531607 $394 76.608736805613958 $319 $421 forward 7 unknown #
vertex $-1 $333 $422 #
straight-curve $-1 34.557877689484492 -17.017709080164092 13.453841029355729 1 0 0 I I #
edge $-1 $394 -10.085221152694361 $330 -3.7797547022451017 $329 $423 forward 7 unknown #
vertex $-1 $393 $424 #
straight-curve $-1 -15.834359132080792 -17.017709080164092 87.964363299323139 -0.64278759981090561 0 0.7660444514056185 I I #
point $-1 46.68739098658093 -17.017709080164092 13.453841029355729 #
point $-1 55.44724875637074 -10.712242629714833 3.0142487882733775 #
straight-curve $-1 55.44724875637074 0 13.453841029355724 0 1 0 I I #
vertex $-1 $336 $425 #
point $-1 50.622669219975656 -15.216147237178589 7.2082350833008348 #
vertex $-1 $340 $426 #
point $-1 50.622669219975656 -12.513804472700336 7.2082350833008348 #
straight-curve $-1 -55.44724875637074 34.251329288692155 0 0 0 -1 I I #
point $-1 -55.44724875637074 -34.251329288692155 -13.453841029355724 #
straight-curve $-1 -55.44724875637074 0 -13.453841029355724 0 1 0 I I #
point $-1 -55.44724875637074 34.251329288692155 -13.453841029355724 #
coedge $-1 $362 $361 $367 $410 reversed $180 $-1 #
vertex $-1 $374 $427 #
straight-curve $-1 0 -34.251329288692155 13.453841029355724 1 0 0 I I #
edge $-1 $408 -13.453841029355724 $411 13.453841029355724 $407 $428 forward 7 unknown #
vertex $-1 $372 $429 #
straight-curve $-1 0 -34.251329288692155 -13.453841029355724 -1 0 0 I I #
straight-curve $-1 -55.44724875637074 0 -13.453841029355724 0 1 0 I I #
straight-curve $-1 -55.44724875637074 0 13.453841029355724 0 -1 0 I I #
straight-curve $-1 -46.687390986580922 -6.9324879274697313 13.453841029355722 0 1 0 I I #
point $-1 -55.44724875637074 -17.017709080164089 13.453841029355724 #
point $-1 -46.68739098658093 -17.017709080164092 13.453841029355724 #
straight-curve $-1 -55.44724875637074 -17.017709080164089 0 0 0 1 I I #
point $-1 -49.918253194367402 -15.216147237178589 7.2698635090981769 #
point $-1 -49.918253194367402 -12.513804472700336 7.2698635090981769 #
straight-curve $-1 55.44724875637074 -17.017709080164092 79.622985593887336 0 0 -1 I I #
point $-1 55.44724875637074 -17.017709080164092 13.453841029355724 #
straight-curve $-1 55.44724875637074 -6.9324879274697313 3.0142487882733704 0 1 0 I I #
point $-1 55.44724875637074 -17.017709080164092 3.0142487882733775 #
point $-1 49.918253194367395 -15.216147237178589 7.2698635090981911 #
point $-1 49.918253194367395 -12.513804472700336 7.2698635090981911 #
point $-1 -55.44724875637074 -34.251329288692155 13.453841029355724 #
straight-curve $-1 -55.44724875637074 -34.251329288692155 0 0 0 -1 I I #
point $-1 -55.44724875637074 -34.251329288692155 -13.453841029355724 #
End-of-ACIS-data 