500 0 9 0           
7 Unknown 11 ACIS 5.0 NT 24 Thu Mar 25 18:59:18 1999 
-1 9.9999999999999995e-007 1e-010 
body $-1 $9 $-1 $10 #
body $-1 $11 $-1 $12 #
body $-1 $13 $-1 $14 #
body $-1 $15 $-1 $16 #
body $-1 $17 $-1 $18 #
body $-1 $19 $-1 $20 #
body $-1 $21 $-1 $22 #
body $-1 $23 $-1 $24 #
body $-1 $25 $-1 $26 #
lump $-1 $-1 $27 $0 #
transform $-1 1 0 0 0 1 0 0 0 1 46.863002410962252 23.300495894624344 11.312334935772347 1 rotate no_reflect no_shear #
lump $-1 $-1 $28 $1 #
transform $-1 1 0 0 0 1 0 0 0 1 46.863002410962252 23.300495894624344 11.312334935772347 1 rotate no_reflect no_shear #
lump $-1 $-1 $29 $2 #
transform $-1 1 0 0 0 1 0 0 0 1 46.863002410962252 23.300495894624344 11.312334935772347 1 rotate no_reflect no_shear #
lump $-1 $-1 $30 $3 #
transform $-1 1 0 0 0 1 0 0 0 1 46.863002410962252 23.300495894624344 11.312334935772347 1 rotate no_reflect no_shear #
lump $-1 $-1 $31 $4 #
transform $-1 1 0 0 0 1 0 0 0 1 46.863002410962252 23.300495894624344 11.312334935772347 1 rotate no_reflect no_shear #
lump $-1 $-1 $32 $5 #
transform $-1 1 0 0 0 1 0 0 0 1 46.863002410962252 23.300495894624344 11.312334935772347 1 rotate no_reflect no_shear #
lump $-1 $-1 $33 $6 #
transform $-1 1 0 0 0 1 0 0 0 1 46.863002410962252 23.300495894624344 11.312334935772347 1 rotate no_reflect no_shear #
lump $-1 $-1 $34 $7 #
transform $-1 1 0 0 0 1 0 0 0 1 46.863002410962252 23.300495894624344 11.312334935772347 1 rotate no_reflect no_shear #
lump $-1 $-1 $35 $8 #
transform $-1 1 0 0 0 1 0 0 0 1 46.863002410962252 23.300495894624344 11.312334935772347 1 rotate no_reflect no_shear #
shell $-1 $-1 $-1 $36 $-1 $9 #
shell $-1 $-1 $-1 $37 $-1 $11 #
shell $-1 $-1 $-1 $38 $-1 $13 #
shell $-1 $-1 $-1 $39 $-1 $15 #
shell $-1 $-1 $-1 $40 $-1 $17 #
shell $-1 $-1 $-1 $41 $-1 $19 #
shell $-1 $-1 $-1 $42 $-1 $21 #
shell $-1 $-1 $-1 $43 $-1 $23 #
shell $-1 $-1 $-1 $44 $-1 $25 #
face $-1 $45 $46 $27 $-1 $47 forward single #
face $-1 $48 $49 $28 $-1 $50 reversed single #
face $-1 $51 $52 $29 $-1 $53 reversed single #
face $-1 $54 $55 $30 $-1 $56 reversed single #
face $-1 $57 $58 $31 $-1 $59 forward single #
face $-1 $60 $61 $32 $-1 $62 reversed single #
face $-1 $63 $64 $33 $-1 $65 forward single #
face $-1 $66 $67 $34 $-1 $68 reversed single #
face $-1 $69 $70 $35 $-1 $71 forward single #
face $-1 $72 $73 $27 $-1 $74 reversed single #
loop $-1 $-1 $75 $36 #
plane-surface $-1 0 0 11.312334935772347 0 0 1 1 0 0 forward_v I I I I #
face $-1 $76 $77 $28 $-1 $78 reversed single #
loop $-1 $-1 $79 $37 #
plane-surface $-1 -27.62364379504659 -17.830255059620651 0 1 0 0 0 0 -1 forward_v I I I I #
face $-1 $80 $81 $29 $-1 $82 reversed single #
loop $-1 $-1 $83 $38 #
plane-surface $-1 -25.930988167232073 12.360014224616958 0 0 1 0 0 0 1 forward_v I I I I #
face $-1 $84 $85 $30 $-1 $86 reversed single #
loop $-1 $-1 $87 $39 #
plane-surface $-1 -111.97055695506288 -10.727294392839269 68.701421862521244 0 1 0 -0.69465837861970381 0 0.71933979245794832 forward_v I I I I #
face $-1 $88 $89 $31 $-1 $90 forward single #
loop $-1 $91 $92 $40 #
cone-surface $-1 -41.321578621134002 -8.3760582546100384 5.9367860746598966 0.69465837861970381 0 -0.71933979245794832 0.35966989622897416 0 0.3473291893098519 1 I I 0 1 0.5 forward I I I I #
face $-1 $93 $94 $32 $-1 $95 reversed single #
loop $-1 $-1 $96 $41 #
plane-surface $-1 -111.97055695506288 -2.4872849097612972 68.701421862521244 0 1 0 -0.69465837861970381 0 0.71933979245794832 forward_v I I I I #
face $-1 $97 $98 $33 $-1 $99 forward single #
loop $-1 $100 $101 $42 #
cone-surface $-1 -41.321578621134002 -0.13604877153206729 5.9367860746598966 0.69465837861970381 0 -0.71933979245794832 0.35966989622897416 0 0.3473291893098519 1 I I 0 1 0.5 forward I I I I #
face $-1 $102 $103 $34 $-1 $104 reversed single #
loop $-1 $-1 $105 $43 #
plane-surface $-1 -111.97055695506288 5.7527245733166721 68.701421862521244 0 1 0 -0.69465837861970381 0 0.71933979245794832 forward_v I I I I #
face $-1 $106 $107 $35 $-1 $108 forward single #
loop $-1 $109 $110 $44 #
cone-surface $-1 -41.321578621134002 8.1039607115459056 5.9367860746598966 0.69465837861970381 0 -0.71933979245794832 0.35966989622897416 0 0.3473291893098519 1 I I 0 1 0.5 forward I I I I #
face $-1 $111 $112 $27 $-1 $113 reversed single #
loop $-1 $-1 $114 $45 #
plane-surface $-1 0 0 -11.312334935772347 0 0 1 1 0 0 forward_v I I I I #
coedge $-1 $115 $116 $117 $118 forward $46 $-1 #
face $-1 $119 $120 $28 $-1 $121 reversed single #
loop $-1 $-1 $122 $48 #
plane-surface $-1 -25.930988167232073 -12.360014224616958 0 0 -1 0 0 0 -1 forward_v I I I I #
coedge $-1 $123 $124 $125 $126 forward $49 $-1 #
face $-1 $127 $128 $29 $-1 $129 reversed single #
loop $-1 $-1 $130 $51 #
plane-surface $-1 -27.62364379504659 17.830255059620651 0 1 0 0 0 0 -1 forward_v I I I I #
coedge $-1 $131 $132 $133 $134 forward $52 $-1 #
face $-1 $135 $136 $30 $-1 $137 reversed single #
loop $-1 $-1 $138 $54 #
plane-surface $-1 -46.863002410962252 -8.3760582546100366 1.2805770060054016 -0.69465837861970381 0 0.71933979245794832 0.71933979245794832 0 0.69465837861970381 forward_v I I I I #
coedge $-1 $139 $140 $141 $142 reversed $55 $-1 #
face $-1 $-1 $143 $31 $-1 $144 forward single #
loop $-1 $145 $146 $57 #
cone-surface $-1 -40.800584837169225 -8.3760582546100384 5.3972812303164357 0.69465837861970381 0 -0.71933979245794832 0.17983494811448708 0 0.17366459465492595 1 I I -0.70710678118654746 0.70710678118654746 0.25 forward I I I I #
loop $-1 $-1 $147 $40 #
coedge $-1 $92 $92 $148 $149 reversed $58 $-1 #
face $-1 $150 $151 $32 $-1 $152 reversed single #
loop $-1 $-1 $153 $60 #
plane-surface $-1 -46.863002410962252 -0.13604877153206374 1.2805770060054016 -0.69465837861970381 0 0.71933979245794832 0.71933979245794832 0 0.69465837861970381 forward_v I I I I #
coedge $-1 $154 $155 $156 $157 reversed $61 $-1 #
face $-1 $-1 $158 $33 $-1 $159 forward single #
loop $-1 $160 $161 $63 #
cone-surface $-1 -40.800584837169225 -0.13604877153206729 5.3972812303164357 0.69465837861970381 0 -0.71933979245794832 0.17983494811448708 0 0.17366459465492595 1 I I -0.70710678118654746 0.70710678118654746 0.25 forward I I I I #
loop $-1 $-1 $162 $42 #
coedge $-1 $101 $101 $163 $164 reversed $64 $-1 #
face $-1 $165 $166 $34 $-1 $167 reversed single #
loop $-1 $-1 $168 $66 #
plane-surface $-1 -46.863002410962252 8.1039607115459056 1.2805770060054016 -0.69465837861970381 0 0.71933979245794832 0.71933979245794832 0 0.69465837861970381 forward_v I I I I #
coedge $-1 $169 $170 $171 $172 reversed $67 $-1 #
face $-1 $-1 $173 $35 $-1 $174 forward single #
loop $-1 $175 $176 $69 #
cone-surface $-1 -40.800584837169225 8.1039607115459056 5.3972812303164357 0.69465837861970381 0 -0.71933979245794832 0.17983494811448708 0 0.17366459465492595 1 I I -0.70710678118654746 0.70710678118654746 0.25 forward I I I I #
loop $-1 $-1 $177 $44 #
coedge $-1 $110 $110 $178 $179 reversed $70 $-1 #
face $-1 $180 $181 $27 $-1 $182 reversed single #
loop $-1 $-1 $183 $72 #
plane-surface $-1 0 -23.300495894624344 0 0 1 0 0 0 1 forward_v I I I I #
coedge $-1 $184 $185 $186 $187 forward $73 $-1 #
coedge $-1 $188 $75 $189 $190 forward $46 $-1 #
coedge $-1 $75 $188 $191 $192 forward $46 $-1 #
coedge $-1 $193 $194 $75 $118 reversed $195 $-1 #
edge $-1 $196 -23.300495894624344 $197 23.300495894624344 $117 $198 forward 7 unknown #
face $-1 $199 $200 $28 $-1 $201 forward single #
loop $-1 $-1 $202 $76 #
plane-surface $-1 -24.238332539417556 -17.830255059620651 0 -1 0 0 0 0 1 forward_v I I I I #
coedge $-1 $203 $204 $205 $206 forward $77 $-1 #
coedge $-1 $207 $79 $208 $209 reversed $49 $-1 #
coedge $-1 $79 $207 $210 $211 reversed $49 $-1 #
coedge $-1 $204 $203 $79 $126 reversed $77 $-1 #
edge $-1 $212 -11.312334935772347 $213 11.312334935772347 $125 $214 forward 7 unknown #
face $-1 $215 $216 $29 $-1 $217 reversed single #
loop $-1 $-1 $218 $80 #
plane-surface $-1 -24.238332539417556 17.830255059620651 0 -1 0 0 0 0 1 forward_v I I I I #
coedge $-1 $219 $220 $221 $222 reversed $81 $-1 #
coedge $-1 $223 $83 $224 $225 reversed $52 $-1 #
coedge $-1 $83 $223 $226 $227 reversed $52 $-1 #
coedge $-1 $220 $219 $83 $134 reversed $81 $-1 #
edge $-1 $228 -11.312334935772347 $229 11.312334935772347 $133 $230 forward 7 unknown #
face $-1 $231 $232 $30 $-1 $233 reversed single #
loop $-1 $-1 $234 $84 #
plane-surface $-1 -111.97055695506288 -6.0248221163808031 68.701421862521244 0 -1 0 0.69465837861970381 0 -0.71933979245794832 forward_v I I I I #
coedge $-1 $235 $236 $237 $238 reversed $85 $-1 #
coedge $-1 $140 $87 $239 $240 reversed $55 $-1 #
coedge $-1 $87 $139 $235 $241 reversed $55 $-1 #
coedge $-1 $237 $242 $87 $142 forward $243 $-1 #
edge $-1 $244 9.1222760665691851 $245 19.510465267605973 $141 $246 forward 7 unknown #
loop $-1 $-1 $148 $88 #
plane-surface $-1 -46.863002410962252 -8.3760582546100366 1.2805770060054016 -0.69465837861970381 0 0.71933979245794832 0.71933979245794832 0 0.69465837861970381 forward_v I I I I #
loop $-1 $-1 $247 $57 #
coedge $-1 $146 $146 $147 $248 reversed $89 $-1 #
coedge $-1 $147 $147 $146 $248 forward $91 $-1 #
coedge $-1 $148 $148 $92 $149 forward $143 $-1 #
edge $-1 $249 0 $249 6.2831853071796004 $148 $250 forward 7 unknown #
face $-1 $251 $252 $32 $-1 $253 forward single #
loop $-1 $-1 $254 $93 #
plane-surface $-1 -111.97055695506288 2.2151873666971698 68.701421862521244 0 -1 0 0.69465837861970381 0 -0.71933979245794832 forward_v I I I I #
coedge $-1 $255 $256 $257 $258 reversed $94 $-1 #
coedge $-1 $155 $96 $259 $260 reversed $61 $-1 #
coedge $-1 $96 $154 $255 $261 reversed $61 $-1 #
coedge $-1 $257 $262 $96 $157 forward $252 $-1 #
edge $-1 $263 9.1222760665691851 $264 19.510465267605973 $156 $265 forward 7 unknown #
loop $-1 $-1 $163 $97 #
plane-surface $-1 -46.863002410962252 -0.13604877153206374 1.2805770060054016 -0.69465837861970381 0 0.71933979245794832 0.71933979245794832 0 0.69465837861970381 forward_v I I I I #
loop $-1 $-1 $266 $63 #
coedge $-1 $161 $161 $162 $267 reversed $98 $-1 #
coedge $-1 $162 $162 $161 $267 forward $100 $-1 #
coedge $-1 $163 $163 $101 $164 forward $158 $-1 #
edge $-1 $268 0 $268 6.2831853071796004 $163 $269 forward 7 unknown #
face $-1 $270 $271 $34 $-1 $272 forward single #
loop $-1 $-1 $273 $102 #
plane-surface $-1 -111.97055695506288 10.455196849775138 68.701421862521244 0 -1 0 0.69465837861970381 0 -0.71933979245794832 forward_v I I I I #
coedge $-1 $274 $275 $276 $277 reversed $103 $-1 #
coedge $-1 $170 $105 $278 $279 reversed $67 $-1 #
coedge $-1 $105 $169 $274 $280 reversed $67 $-1 #
coedge $-1 $276 $281 $105 $172 forward $271 $-1 #
edge $-1 $282 9.1222760665691851 $283 19.510465267605973 $171 $284 forward 7 unknown #
loop $-1 $-1 $178 $106 #
plane-surface $-1 -46.863002410962252 8.1039607115459056 1.2805770060054016 -0.69465837861970381 0 0.71933979245794832 0.71933979245794832 0 0.69465837861970381 forward_v I I I I #
loop $-1 $-1 $285 $69 #
coedge $-1 $176 $176 $177 $286 reversed $107 $-1 #
coedge $-1 $177 $177 $176 $286 forward $109 $-1 #
coedge $-1 $178 $178 $110 $179 forward $173 $-1 #
edge $-1 $287 0 $287 6.2831853071796004 $178 $288 forward 7 unknown #
face $-1 $289 $290 $27 $-1 $291 reversed single #
loop $-1 $-1 $292 $111 #
plane-surface $-1 -46.863002410962252 0 0 1 0 0 0 0 -1 forward_v I I I I #
coedge $-1 $293 $191 $294 $295 forward $112 $-1 #
coedge $-1 $296 $114 $293 $297 forward $73 $-1 #
coedge $-1 $114 $296 $298 $299 forward $73 $-1 #
coedge $-1 $194 $193 $114 $187 reversed $195 $-1 #
edge $-1 $300 -23.300495894624344 $301 23.300495894624344 $186 $302 forward 7 unknown #
coedge $-1 $116 $115 $303 $304 forward $46 $-1 #
coedge $-1 $305 $306 $115 $190 reversed $290 $-1 #
edge $-1 $197 -46.863002410962252 $307 46.863002410962252 $189 $308 forward 7 unknown #
coedge $-1 $183 $309 $116 $192 reversed $112 $-1 #
edge $-1 $310 -46.863002410962252 $196 46.863002410962252 $191 $311 forward 7 unknown #
coedge $-1 $186 $117 $309 $312 forward $195 $-1 #
coedge $-1 $117 $186 $305 $313 reversed $195 $-1 #
loop $-1 $-1 $193 $289 #
vertex $-1 $118 $314 #
vertex $-1 $118 $315 #
straight-curve $-1 46.863002410962252 0 11.312334935772347 0 1 0 I I #
face $-1 $316 $317 $28 $-1 $318 reversed single #
loop $-1 $-1 $319 $119 #
plane-surface $-1 0 0 11.312334935772347 0 0 1 1 0 0 forward_v I I I I #
coedge $-1 $320 $321 $322 $323 reversed $120 $-1 #
coedge $-1 $125 $122 $324 $325 reversed $77 $-1 #
coedge $-1 $122 $125 $326 $327 reversed $77 $-1 #
coedge $-1 $321 $320 $122 $206 reversed $120 $-1 #
edge $-1 $328 -11.312334935772347 $329 11.312334935772347 $205 $330 forward 7 unknown #
coedge $-1 $124 $123 $331 $332 reversed $49 $-1 #
coedge $-1 $324 $333 $123 $209 forward $317 $-1 #
edge $-1 $334 -14.385368364814019 $213 -3.4448866948066321 $208 $335 forward 7 unknown #
coedge $-1 $336 $326 $124 $211 forward $200 $-1 #
edge $-1 $212 3.4448866948066321 $337 14.385368364814019 $210 $338 forward 7 unknown #
vertex $-1 $211 $339 #
vertex $-1 $209 $340 #
straight-curve $-1 -27.62364379504659 -12.360014224616958 0 0 0 -1 I I #
face $-1 $341 $342 $29 $-1 $343 forward single #
loop $-1 $-1 $344 $127 #
plane-surface $-1 0 0 -11.312334935772347 0 0 1 1 0 0 forward_v I I I I #
coedge $-1 $345 $346 $223 $347 forward $128 $-1 #
coedge $-1 $133 $130 $348 $349 reversed $81 $-1 #
coedge $-1 $130 $133 $350 $351 reversed $81 $-1 #
coedge $-1 $352 $353 $130 $222 forward $354 $-1 #
edge $-1 $355 -11.312334935772347 $356 11.312334935772347 $221 $357 forward 7 unknown #
coedge $-1 $132 $131 $218 $347 reversed $52 $-1 #
coedge $-1 $348 $344 $131 $225 forward $216 $-1 #
edge $-1 $358 11.272838455801519 $229 14.658149711430553 $224 $359 forward 7 unknown #
coedge $-1 $360 $350 $132 $227 forward $342 $-1 #
edge $-1 $228 -14.658149711430553 $361 -11.272838455801519 $226 $362 forward 7 unknown #
vertex $-1 $227 $363 #
vertex $-1 $225 $364 #
straight-curve $-1 -27.62364379504659 12.360014224616958 0 0 0 -1 I I #
face $-1 $-1 $243 $30 $-1 $365 forward single #
loop $-1 $-1 $366 $135 #
plane-surface $-1 -46.863002410962252 0 0 1 0 0 0 0 -1 forward_v I I I I #
coedge $-1 $367 $368 $369 $370 reversed $136 $-1 #
coedge $-1 $371 $138 $140 $241 forward $85 $-1 #
coedge $-1 $138 $371 $367 $372 forward $85 $-1 #
coedge $-1 $369 $141 $138 $238 forward $243 $-1 #
edge $-1 $245 -6.5392652655342509 $373 -1.8367929890757848 $237 $374 forward 7 unknown #
coedge $-1 $375 $376 $139 $240 forward $232 $-1 #
edge $-1 $377 -33.07013392525522 $244 -23.038375995488273 $239 $378 forward 7 unknown #
edge $-1 $245 -14.441282562084966 $377 0 $140 $379 forward 7 unknown #
coedge $-1 $141 $369 $375 $380 forward $243 $-1 #
loop $-1 $-1 $369 $231 #
vertex $-1 $240 $381 #
vertex $-1 $142 $382 #
straight-curve $-1 -55.985278477531438 -10.727294392839269 11.312334935772348 1 0 0 I I #
coedge $-1 $247 $247 $-1 $383 reversed $145 $-1 #
edge $-1 $384 0 $384 6.2831853071796004 $146 $385 forward 7 unknown #
vertex $-1 $149 $386 #
ellipse-curve $-1 -41.668907810443855 -8.3760582546100384 6.296455970888875 -0.69465837861970381 0 0.71933979245794832 0.35966989622897416 0 0.3473291893098519 1 I I #
face $-1 $-1 $387 $32 $-1 $388 reversed single #
loop $-1 $-1 $156 $150 #
plane-surface $-1 0 0 11.312334935772347 0 0 1 1 0 0 forward_v I I I I #
coedge $-1 $389 $390 $391 $392 reversed $151 $-1 #
coedge $-1 $393 $153 $155 $261 forward $94 $-1 #
coedge $-1 $153 $393 $389 $394 forward $94 $-1 #
coedge $-1 $391 $156 $153 $258 forward $252 $-1 #
edge $-1 $264 -2.4192605239952654 $395 2.2832117524632016 $257 $396 forward 7 unknown #
coedge $-1 $397 $398 $154 $260 forward $387 $-1 #
edge $-1 $399 -33.07013392525522 $263 -23.038375995488273 $259 $400 forward 7 unknown #
edge $-1 $264 -14.441282562084966 $399 0 $155 $401 forward 7 unknown #
coedge $-1 $156 $391 $397 $402 forward $252 $-1 #
vertex $-1 $260 $403 #
vertex $-1 $157 $404 #
straight-curve $-1 -55.985278477531438 -2.4872849097612972 11.312334935772348 1 0 0 I I #
coedge $-1 $266 $266 $-1 $405 reversed $160 $-1 #
edge $-1 $406 0 $406 6.2831853071796004 $161 $407 forward 7 unknown #
vertex $-1 $164 $408 #
ellipse-curve $-1 -41.668907810443855 -0.13604877153206729 6.296455970888875 -0.69465837861970381 0 0.71933979245794832 0.35966989622897416 0 0.3473291893098519 1 I I #
face $-1 $-1 $409 $34 $-1 $410 reversed single #
loop $-1 $-1 $171 $165 #
plane-surface $-1 0 0 11.312334935772347 0 0 1 1 0 0 forward_v I I I I #
coedge $-1 $411 $412 $413 $414 reversed $166 $-1 #
coedge $-1 $415 $168 $170 $280 forward $103 $-1 #
coedge $-1 $168 $415 $411 $416 forward $103 $-1 #
coedge $-1 $413 $171 $168 $277 forward $271 $-1 #
edge $-1 $283 1.7007442175437193 $417 6.4032164940021854 $276 $418 forward 7 unknown #
coedge $-1 $419 $420 $169 $279 forward $409 $-1 #
edge $-1 $421 -33.07013392525522 $282 -23.038375995488273 $278 $422 forward 7 unknown #
edge $-1 $283 -14.441282562084966 $421 0 $170 $423 forward 7 unknown #
coedge $-1 $171 $413 $419 $424 forward $271 $-1 #
vertex $-1 $172 $425 #
vertex $-1 $172 $426 #
straight-curve $-1 -55.985278477531438 5.7527245733166721 11.312334935772348 1 0 0 I I #
coedge $-1 $285 $285 $-1 $427 reversed $175 $-1 #
edge $-1 $428 0 $428 6.2831853071796004 $176 $429 forward 7 unknown #
vertex $-1 $179 $430 #
ellipse-curve $-1 -41.668907810443855 8.1039607115459056 6.296455970888875 -0.69465837861970381 0 0.71933979245794832 0.35966989622897416 0 0.3473291893098519 1 I I #
face $-1 $-1 $195 $27 $-1 $431 reversed single #
loop $-1 $-1 $305 $180 #
plane-surface $-1 0 23.300495894624344 0 0 -1 0 0 0 -1 forward_v I I I I #
coedge $-1 $432 $303 $306 $433 forward $181 $-1 #
coedge $-1 $309 $183 $184 $297 reversed $112 $-1 #
coedge $-1 $303 $432 $183 $295 reversed $181 $-1 #
edge $-1 $310 -11.312334935772347 $434 11.312334935772347 $294 $435 forward 7 unknown #
coedge $-1 $185 $184 $432 $436 forward $73 $-1 #
edge $-1 $301 -46.863002410962252 $434 46.863002410962252 $293 $437 forward 7 unknown #
coedge $-1 $306 $305 $185 $299 reversed $290 $-1 #
edge $-1 $438 -46.863002410962252 $300 46.863002410962252 $298 $439 forward 7 unknown #
vertex $-1 $187 $440 #
vertex $-1 $312 $441 #
straight-curve $-1 46.863002410962252 0 -11.312334935772347 0 -1 0 I I #
coedge $-1 $292 $294 $188 $304 reversed $181 $-1 #
edge $-1 $307 -23.300495894624344 $310 23.300495894624344 $303 $442 forward 7 unknown #
coedge $-1 $298 $189 $194 $313 forward $290 $-1 #
coedge $-1 $189 $298 $292 $433 reversed $290 $-1 #
vertex $-1 $190 $443 #
straight-curve $-1 0 23.300495894624344 11.312334935772347 -1 0 0 I I #
coedge $-1 $191 $293 $193 $312 reversed $112 $-1 #
vertex $-1 $304 $444 #
straight-curve $-1 0 -23.300495894624344 11.312334935772347 1 0 0 I I #
edge $-1 $196 -11.312334935772347 $301 11.312334935772347 $193 $445 forward 7 unknown #
edge $-1 $197 -11.312334935772347 $300 11.312334935772347 $194 $446 forward 7 unknown #
point $-1 46.863002410962252 -23.300495894624344 11.312334935772347 #
point $-1 46.863002410962252 23.300495894624344 11.312334935772347 #
face $-1 $-1 $447 $28 $-1 $448 reversed single #
loop $-1 $-1 $449 $199 #
plane-surface $-1 0 0 -11.312334935772347 0 0 1 1 0 0 forward_v I I I I #
coedge $-1 $326 $336 $321 $450 forward $200 $-1 #
coedge $-1 $205 $202 $449 $451 reversed $120 $-1 #
coedge $-1 $202 $205 $319 $450 reversed $120 $-1 #
coedge $-1 $452 $453 $202 $323 forward $447 $-1 #
edge $-1 $454 -11.312334935772347 $455 11.312334935772347 $322 $456 forward 7 unknown #
coedge $-1 $449 $208 $203 $325 forward $317 $-1 #
edge $-1 $213 -14.658149711430553 $329 -11.272838455801519 $324 $457 forward 7 unknown #
coedge $-1 $210 $319 $204 $327 forward $200 $-1 #
edge $-1 $328 11.272838455801519 $212 14.658149711430553 $326 $458 forward 7 unknown #
vertex $-1 $327 $459 #
vertex $-1 $325 $460 #
straight-curve $-1 -24.238332539417556 -12.360014224616958 0 0 0 -1 I I #
coedge $-1 $453 $452 $207 $332 forward $447 $-1 #
edge $-1 $337 -11.312334935772347 $334 11.312334935772347 $331 $461 forward 7 unknown #
coedge $-1 $208 $449 $453 $462 forward $317 $-1 #
vertex $-1 $209 $463 #
straight-curve $-1 -27.62364379504659 -8.9151275298103254 -11.312334935772347 0 1 0 I I #
coedge $-1 $319 $210 $452 $464 forward $200 $-1 #
vertex $-1 $464 $465 #
straight-curve $-1 -27.62364379504659 -8.9151275298103254 11.312334935772347 0 -1 0 I I #
point $-1 -27.62364379504659 -12.360014224616958 11.312334935772347 #
point $-1 -27.62364379504659 -12.360014224616958 -11.312334935772347 #
face $-1 $-1 $354 $29 $-1 $466 reversed single #
loop $-1 $-1 $360 $215 #
plane-surface $-1 0 0 11.312334935772347 0 0 1 1 0 0 forward_v I I I I #
coedge $-1 $224 $467 $345 $468 forward $216 $-1 #
coedge $-1 $469 $218 $344 $468 reversed $128 $-1 #
coedge $-1 $218 $469 $360 $470 reversed $128 $-1 #
edge $-1 $361 -11.312334935772347 $358 11.312334935772347 $218 $471 forward 7 unknown #
coedge $-1 $467 $224 $219 $349 forward $216 $-1 #
edge $-1 $229 3.4448866948066321 $355 14.385368364814019 $348 $472 forward 7 unknown #
coedge $-1 $226 $473 $220 $351 forward $342 $-1 #
edge $-1 $356 -14.385368364814019 $228 -3.4448866948066321 $350 $474 forward 7 unknown #
coedge $-1 $475 $221 $473 $476 reversed $354 $-1 #
coedge $-1 $221 $475 $467 $477 reversed $354 $-1 #
loop $-1 $-1 $475 $341 #
vertex $-1 $477 $478 #
vertex $-1 $222 $479 #
straight-curve $-1 -27.62364379504659 23.300495894624344 0 0 0 1 I I #
vertex $-1 $225 $480 #
straight-curve $-1 -12.965494083616036 12.360014224616958 -11.312334935772347 -1 0 0 I I #
coedge $-1 $473 $226 $346 $470 forward $342 $-1 #
vertex $-1 $227 $481 #
straight-curve $-1 -12.965494083616036 12.360014224616958 11.312334935772347 1 0 0 I I #
point $-1 -27.62364379504659 12.360014224616958 11.312334935772347 #
point $-1 -27.62364379504659 12.360014224616958 -11.312334935772347 #
plane-surface $-1 0 0 11.312334935772347 0 0 1 1 0 0 forward_v I I I I #
coedge $-1 $376 $375 $368 $482 forward $232 $-1 #
coedge $-1 $368 $234 $236 $372 reversed $136 $-1 #
coedge $-1 $234 $367 $366 $482 reversed $136 $-1 #
coedge $-1 $242 $237 $234 $370 forward $243 $-1 #
edge $-1 $373 -19.510465267605973 $483 -9.1222760665691851 $369 $484 forward 7 unknown #
coedge $-1 $236 $235 $376 $485 reversed $85 $-1 #
edge $-1 $486 0 $373 14.441282562084966 $367 $487 forward 7 unknown #
vertex $-1 $238 $488 #
straight-curve $-1 -36.474813209925465 -4.1880291273050183 11.312334935772347 0 1 0 I I #
coedge $-1 $366 $239 $242 $380 reversed $232 $-1 #
coedge $-1 $239 $366 $371 $485 forward $232 $-1 #
vertex $-1 $240 $489 #
straight-curve $-1 -46.863002410962252 -10.727294392839269 34.350710931260622 0 0 1 I I #
straight-curve $-1 -46.863002410962252 -10.727294392839269 1.2805770060054016 -0.71933979245794832 0 -0.69465837861970381 I I #
edge $-1 $483 6.0248221163808031 $244 10.727294392839269 $375 $490 forward 7 unknown #
point $-1 -46.863002410962252 -10.727294392839269 11.312334935772347 #
point $-1 -36.474813209925465 -10.727294392839269 11.312334935772347 #
edge $-1 $491 1 $491 0 $247 $-1 forward 7 unknown #
vertex $-1 $248 $492 #
ellipse-curve $-1 -40.974249431824148 -8.3760582546100384 5.5771161784309227 -0.69465837861970381 0 0.71933979245794832 0.35966989622897416 0 0.3473291893098519 1 I I #
point $-1 -41.309237914214883 -8.3760582546100384 6.643785160198723 #
loop $-1 $-1 $259 $251 #
plane-surface $-1 -46.863002410962252 0 0 1 0 0 0 0 -1 forward_v I I I I #
coedge $-1 $390 $254 $256 $394 reversed $151 $-1 #
coedge $-1 $254 $389 $493 $494 reversed $151 $-1 #
coedge $-1 $262 $257 $254 $392 forward $252 $-1 #
edge $-1 $395 -19.510465267605973 $495 -9.1222760665691851 $391 $496 forward 7 unknown #
coedge $-1 $256 $255 $398 $497 reversed $94 $-1 #
edge $-1 $498 0 $395 14.441282562084966 $389 $499 forward 7 unknown #
vertex $-1 $258 $500 #
straight-curve $-1 -36.474813209925465 -0.06802438576603187 11.312334935772347 0 1 0 I I #
coedge $-1 $493 $259 $262 $402 reversed $387 $-1 #
coedge $-1 $259 $493 $393 $497 forward $387 $-1 #
vertex $-1 $260 $501 #
straight-curve $-1 -46.863002410962252 -2.4872849097612972 34.350710931260622 0 0 1 I I #
straight-curve $-1 -46.863002410962252 -2.4872849097612972 1.2805770060054016 -0.71933979245794832 0 -0.69465837861970381 I I #
edge $-1 $495 -2.2151873666971698 $263 2.4872849097612972 $397 $502 forward 7 unknown #
point $-1 -46.863002410962252 -2.4872849097612972 11.312334935772347 #
point $-1 -36.474813209925465 -2.4872849097612972 11.312334935772347 #
edge $-1 $503 1 $503 0 $266 $-1 forward 7 unknown #
vertex $-1 $267 $504 #
ellipse-curve $-1 -40.974249431824148 -0.13604877153206729 5.5771161784309227 -0.69465837861970381 0 0.71933979245794832 0.35966989622897416 0 0.3473291893098519 1 I I #
point $-1 -41.309237914214883 -0.13604877153206729 6.643785160198723 #
loop $-1 $-1 $278 $270 #
plane-surface $-1 -46.863002410962252 0 0 1 0 0 0 0 -1 forward_v I I I I #
coedge $-1 $412 $273 $275 $416 reversed $166 $-1 #
coedge $-1 $273 $411 $505 $506 reversed $166 $-1 #
coedge $-1 $281 $276 $273 $414 forward $271 $-1 #
edge $-1 $417 -19.510465267605973 $507 -9.1222760665691851 $413 $508 forward 7 unknown #
coedge $-1 $275 $274 $420 $509 reversed $103 $-1 #
edge $-1 $510 0 $417 14.441282562084966 $411 $511 forward 7 unknown #
vertex $-1 $277 $512 #
straight-curve $-1 -36.474813209925465 4.0519803557729528 11.312334935772347 0 1 0 I I #
coedge $-1 $505 $278 $281 $424 reversed $409 $-1 #
coedge $-1 $278 $505 $415 $509 forward $409 $-1 #
vertex $-1 $279 $513 #
straight-curve $-1 -46.863002410962252 5.7527245733166721 34.350710931260622 0 0 1 I I #
straight-curve $-1 -46.863002410962252 5.7527245733166721 1.2805770060054016 -0.71933979245794832 0 -0.69465837861970381 I I #
edge $-1 $507 -10.455196849775138 $282 -5.7527245733166721 $419 $514 forward 7 unknown #
point $-1 -46.863002410962252 5.7527245733166721 11.312334935772347 #
point $-1 -36.474813209925465 5.7527245733166721 11.312334935772347 #
edge $-1 $515 1 $515 0 $285 $-1 forward 7 unknown #
vertex $-1 $286 $516 #
ellipse-curve $-1 -40.974249431824148 8.1039607115459056 5.5771161784309227 -0.69465837861970381 0 0.71933979245794832 0.35966989622897416 0 0.3473291893098519 1 I I #
point $-1 -41.309237914214883 8.1039607115459056 6.643785160198723 #
plane-surface $-1 46.863002410962252 0 0 -1 0 0 0 0 1 forward_v I I I I #
coedge $-1 $294 $292 $296 $436 reversed $181 $-1 #
edge $-1 $307 -11.312334935772347 $438 11.312334935772347 $306 $517 forward 7 unknown #
vertex $-1 $436 $518 #
straight-curve $-1 -46.863002410962252 -23.300495894624344 0 0 0 -1 I I #
edge $-1 $434 -23.300495894624344 $438 23.300495894624344 $432 $519 forward 7 unknown #
straight-curve $-1 0 -23.300495894624344 -11.312334935772347 -1 0 0 I I #
vertex $-1 $299 $520 #
straight-curve $-1 0 23.300495894624344 -11.312334935772347 1 0 0 I I #
point $-1 46.863002410962252 23.300495894624344 -11.312334935772347 #
point $-1 46.863002410962252 -23.300495894624344 -11.312334935772347 #
straight-curve $-1 -46.863002410962252 0 11.312334935772347 0 -1 0 I I #
point $-1 -46.863002410962252 23.300495894624344 11.312334935772347 #
point $-1 -46.863002410962252 -23.300495894624344 11.312334935772347 #
straight-curve $-1 46.863002410962252 -23.300495894624344 0 0 0 -1 I I #
straight-curve $-1 46.863002410962252 23.300495894624344 0 0 0 -1 I I #
loop $-1 $-1 $322 $316 #
plane-surface $-1 0 -23.300495894624344 0 0 1 0 0 0 1 forward_v I I I I #
coedge $-1 $333 $324 $320 $451 forward $317 $-1 #
edge $-1 $455 -14.385368364814019 $328 -3.4448866948066321 $319 $521 forward 7 unknown #
edge $-1 $329 3.4448866948066321 $454 14.385368364814019 $449 $522 forward 7 unknown #
coedge $-1 $331 $322 $336 $464 reversed $447 $-1 #
coedge $-1 $322 $331 $333 $462 reversed $447 $-1 #
vertex $-1 $462 $523 #
vertex $-1 $323 $524 #
straight-curve $-1 -24.238332539417556 -23.300495894624344 0 0 0 1 I I #
straight-curve $-1 -12.965494083616036 -12.360014224616958 -11.312334935772347 1 0 0 I I #
straight-curve $-1 -12.965494083616036 -12.360014224616958 11.312334935772347 -1 0 0 I I #
point $-1 -24.238332539417556 -12.360014224616958 11.312334935772347 #
point $-1 -24.238332539417556 -12.360014224616958 -11.312334935772347 #
straight-curve $-1 -27.62364379504659 -23.300495894624344 0 0 0 -1 I I #
edge $-1 $454 24.238332539417556 $334 27.62364379504659 $453 $525 forward 7 unknown #
point $-1 -27.62364379504659 -23.300495894624344 -11.312334935772347 #
edge $-1 $337 -27.62364379504659 $455 -24.238332539417556 $452 $526 forward 7 unknown #
point $-1 -27.62364379504659 -23.300495894624344 11.312334935772347 #
plane-surface $-1 0 23.300495894624344 0 0 -1 0 0 0 -1 forward_v I I I I #
coedge $-1 $344 $348 $353 $477 forward $216 $-1 #
edge $-1 $527 -14.385368364814019 $358 -3.4448866948066321 $344 $528 forward 7 unknown #
coedge $-1 $346 $345 $475 $529 reversed $128 $-1 #
edge $-1 $361 3.4448866948066321 $530 14.385368364814019 $360 $531 forward 7 unknown #
straight-curve $-1 -24.238332539417556 12.360014224616958 0 0 0 -1 I I #
straight-curve $-1 -27.62364379504659 8.9151275298103254 -11.312334935772347 0 1 0 I I #
coedge $-1 $350 $360 $352 $476 forward $342 $-1 #
straight-curve $-1 -27.62364379504659 8.9151275298103254 11.312334935772347 0 -1 0 I I #
coedge $-1 $353 $352 $469 $529 forward $354 $-1 #
edge $-1 $530 24.238332539417556 $356 27.62364379504659 $352 $532 forward 7 unknown #
edge $-1 $355 -27.62364379504659 $527 -24.238332539417556 $353 $533 forward 7 unknown #
point $-1 -27.62364379504659 23.300495894624344 -11.312334935772347 #
point $-1 -27.62364379504659 23.300495894624344 11.312334935772347 #
point $-1 -24.238332539417556 12.360014224616958 -11.312334935772347 #
point $-1 -24.238332539417556 12.360014224616958 11.312334935772347 #
edge $-1 $483 23.038375995488273 $486 33.07013392525522 $366 $534 forward 7 unknown #
vertex $-1 $380 $535 #
straight-curve $-1 -55.985278477531438 -6.0248221163808031 11.312334935772348 -1 0 0 I I #
edge $-1 $486 1.8367929890757848 $377 6.5392652655342509 $376 $536 forward 7 unknown #
vertex $-1 $485 $537 #
straight-curve $-1 -46.863002410962252 -6.0248221163808031 1.2805770060054016 0.71933979245794832 0 0.69465837861970381 I I #
point $-1 -36.474813209925465 -6.0248221163808031 11.312334935772347 #
point $-1 -46.863002410962252 -10.727294392839269 1.2805770060054016 #
straight-curve $-1 -46.863002410962252 0 11.312334935772347 0 -1 0 I I #
vertex $-1 $383 $538 #
point $-1 -40.614579535595176 -8.3760582546100384 5.9244453677407751 #
coedge $-1 $398 $397 $390 $494 forward $387 $-1 #
edge $-1 $495 23.038375995488273 $498 33.07013392525522 $493 $539 forward 7 unknown #
vertex $-1 $402 $540 #
straight-curve $-1 -55.985278477531438 2.2151873666971698 11.312334935772348 -1 0 0 I I #
edge $-1 $498 -2.2832117524632016 $399 2.4192605239952654 $398 $541 forward 7 unknown #
vertex $-1 $497 $542 #
straight-curve $-1 -46.863002410962252 2.2151873666971698 1.2805770060054016 0.71933979245794832 0 0.69465837861970381 I I #
point $-1 -36.474813209925465 2.2151873666971698 11.312334935772347 #
point $-1 -46.863002410962252 -2.4872849097612972 1.2805770060054016 #
straight-curve $-1 -46.863002410962252 0 11.312334935772347 0 -1 0 I I #
vertex $-1 $405 $543 #
point $-1 -40.614579535595176 -0.13604877153206729 5.9244453677407751 #
coedge $-1 $420 $419 $412 $506 forward $409 $-1 #
edge $-1 $507 23.038375995488273 $510 33.07013392525522 $505 $544 forward 7 unknown #
vertex $-1 $424 $545 #
straight-curve $-1 -55.985278477531438 10.455196849775138 11.312334935772348 -1 0 0 I I #
edge $-1 $510 -6.4032164940021854 $421 -1.7007442175437193 $420 $546 forward 7 unknown #
vertex $-1 $509 $547 #
straight-curve $-1 -46.863002410962252 10.455196849775138 1.2805770060054016 0.71933979245794832 0 0.69465837861970381 I I #
point $-1 -36.474813209925465 10.455196849775138 11.312334935772347 #
point $-1 -46.863002410962252 5.7527245733166721 1.2805770060054016 #
straight-curve $-1 -46.863002410962252 0 11.312334935772347 0 -1 0 I I #
vertex $-1 $427 $548 #
point $-1 -40.614579535595176 8.1039607115459056 5.9244453677407751 #
straight-curve $-1 -46.863002410962252 23.300495894624344 0 0 0 -1 I I #
point $-1 -46.863002410962252 -23.300495894624344 -11.312334935772347 #
straight-curve $-1 -46.863002410962252 0 -11.312334935772347 0 1 0 I I #
point $-1 -46.863002410962252 23.300495894624344 -11.312334935772347 #
straight-curve $-1 -24.238332539417556 -8.9151275298103254 11.312334935772347 0 1 0 I I #
straight-curve $-1 -24.238332539417556 -8.9151275298103254 -11.312334935772347 0 -1 0 I I #
point $-1 -24.238332539417556 -23.300495894624344 -11.312334935772347 #
point $-1 -24.238332539417556 -23.300495894624344 11.312334935772347 #
straight-curve $-1 0 -23.300495894624344 -11.312334935772347 -1 0 0 I I #
straight-curve $-1 0 -23.300495894624344 11.312334935772347 1 0 0 I I #
vertex $-1 $529 $549 #
straight-curve $-1 -24.238332539417556 8.9151275298103254 -11.312334935772347 0 -1 0 I I #
edge $-1 $530 -11.312334935772347 $527 11.312334935772347 $475 $550 forward 7 unknown #
vertex $-1 $476 $551 #
straight-curve $-1 -24.238332539417556 8.9151275298103254 11.312334935772347 0 1 0 I I #
straight-curve $-1 0 23.300495894624344 11.312334935772347 -1 0 0 I I #
straight-curve $-1 0 23.300495894624344 -11.312334935772347 1 0 0 I I #
straight-curve $-1 -46.863002410962252 -6.0248221163808031 34.350710931260622 0 0 -1 I I #
point $-1 -46.863002410962252 -6.0248221163808031 11.312334935772347 #
straight-curve $-1 -46.863002410962252 -4.1880291273050183 1.2805770060054034 0 -1 0 I I #
point $-1 -46.863002410962252 -6.0248221163808031 1.2805770060054016 #
point $-1 -40.626920242514302 -8.3760582546100384 5.2174462822019487 #
straight-curve $-1 -46.863002410962252 2.2151873666971698 34.350710931260622 0 0 -1 I I #
point $-1 -46.863002410962252 2.2151873666971698 11.312334935772347 #
straight-curve $-1 -46.863002410962252 -0.06802438576603187 1.2805770060054034 0 -1 0 I I #
point $-1 -46.863002410962252 2.2151873666971698 1.2805770060054016 #
point $-1 -40.626920242514302 -0.13604877153206729 5.2174462822019487 #
straight-curve $-1 -46.863002410962252 10.455196849775138 34.350710931260622 0 0 -1 I I #
point $-1 -46.863002410962252 10.455196849775138 11.312334935772347 #
straight-curve $-1 -46.863002410962252 4.0519803557729528 1.2805770060054034 0 -1 0 I I #
point $-1 -46.863002410962252 10.455196849775138 1.2805770060054016 #
point $-1 -40.626920242514302 8.1039607115459056 5.2174462822019487 #
point $-1 -24.238332539417556 23.300495894624344 -11.312334935772347 #
straight-curve $-1 -24.238332539417556 23.300495894624344 0 0 0 -1 I I #
point $-1 -24.238332539417556 23.300495894624344 11.312334935772347 #
End-of-ACIS-data 