500 0 7 0           
7 Unknown 11 ACIS 5.0 NT 24 Fri Mar 26 00:29:16 1999 
-1 9.9999999999999995e-007 1e-010 
body $-1 $7 $-1 $8 #
body $-1 $9 $-1 $10 #
body $-1 $11 $-1 $12 #
body $-1 $13 $-1 $14 #
body $-1 $15 $-1 $16 #
body $-1 $17 $-1 $18 #
body $-1 $19 $-1 $20 #
lump $-1 $-1 $21 $0 #
transform $-1 1 0 0 0 1 0 0 0 1 54.259468367564928 29.545387507388646 14.092375296883363 1 rotate no_reflect no_shear #
lump $-1 $-1 $22 $1 #
transform $-1 1 0 0 0 1 0 0 0 1 54.259468367564928 29.545387507388646 14.092375296883363 1 rotate no_reflect no_shear #
lump $-1 $-1 $23 $2 #
transform $-1 1 0 0 0 1 0 0 0 1 54.259468367564928 29.545387507388646 14.092375296883363 1 rotate no_reflect no_shear #
lump $-1 $-1 $24 $3 #
transform $-1 1 0 0 0 1 0 0 0 1 54.259468367564928 29.545387507388646 14.092375296883363 1 rotate no_reflect no_shear #
lump $-1 $-1 $25 $4 #
transform $-1 1 0 0 0 1 0 0 0 1 54.259468367564928 29.545387507388646 14.092375296883363 1 rotate no_reflect no_shear #
lump $-1 $-1 $26 $5 #
transform $-1 1 0 0 0 1 0 0 0 1 54.259468367564928 29.545387507388646 14.092375296883363 1 rotate no_reflect no_shear #
lump $-1 $-1 $27 $6 #
transform $-1 1 0 0 0 1 0 0 0 1 54.259468367564928 29.545387507388646 14.092375296883363 1 rotate no_reflect no_shear #
shell $-1 $-1 $-1 $28 $-1 $7 #
shell $-1 $-1 $-1 $29 $-1 $9 #
shell $-1 $-1 $-1 $30 $-1 $11 #
shell $-1 $-1 $-1 $31 $-1 $13 #
shell $-1 $-1 $-1 $32 $-1 $15 #
shell $-1 $-1 $-1 $33 $-1 $17 #
shell $-1 $-1 $-1 $34 $-1 $19 #
face $-1 $35 $36 $21 $-1 $37 forward single #
face $-1 $38 $39 $22 $-1 $40 reversed single #
face $-1 $41 $42 $23 $-1 $43 reversed single #
face $-1 $44 $45 $24 $-1 $46 reversed single #
face $-1 $47 $48 $25 $-1 $49 forward single #
face $-1 $50 $51 $26 $-1 $52 reversed single #
face $-1 $53 $54 $27 $-1 $55 forward single #
face $-1 $56 $57 $21 $-1 $58 reversed single #
loop $-1 $-1 $59 $28 #
plane-surface $-1 0 0 14.092375296883363 0 0 1 1 0 0 forward_v I I I I #
face $-1 $60 $61 $22 $-1 $62 reversed single #
loop $-1 $-1 $63 $29 #
plane-surface $-1 -47.430281020639875 0 9.7037704198895192 0 0 1 1 0 0 forward_v I I I I #
face $-1 $64 $65 $23 $-1 $66 reversed single #
loop $-1 $-1 $67 $30 #
plane-surface $-1 47.430281020639875 0 9.7037704198895192 0 0 1 1 0 0 forward_v I I I I #
face $-1 $68 $69 $24 $-1 $70 reversed single #
loop $-1 $-1 $71 $31 #
plane-surface $-1 -35.132144818229889 -8.4374299353262785 55.688599082965581 0 0.7660444514056185 0.64278759981090561 1 0 0 forward_v I I I I #
face $-1 $72 $73 $25 $-1 $74 forward single #
loop $-1 $75 $76 $32 #
cone-surface $-1 -35.132144818229889 26.957337777316667 11.377754931479549 0 -0.7660444514056185 -0.64278759981090561 1 0 0 1 I I 0 1 1 forward I I I I #
face $-1 $77 $78 $26 $-1 $79 reversed single #
loop $-1 $-1 $80 $33 #
plane-surface $-1 35.132144818229882 -8.4374299353262785 55.688599082965581 0 0.7660444514056185 0.64278759981090561 1 0 0 forward_v I I I I #
face $-1 $81 $82 $27 $-1 $83 forward single #
loop $-1 $84 $85 $34 #
cone-surface $-1 35.132144818229882 26.957337777316667 11.377754931479549 0 -0.7660444514056185 -0.64278759981090561 1 0 0 1 I I 0 1 1 forward I I I I #
face $-1 $86 $87 $21 $-1 $88 reversed single #
loop $-1 $-1 $89 $35 #
plane-surface $-1 0 0 -14.092375296883363 0 0 1 1 0 0 forward_v I I I I #
coedge $-1 $90 $91 $92 $93 forward $36 $-1 #
face $-1 $94 $95 $22 $-1 $96 reversed single #
loop $-1 $-1 $97 $38 #
plane-surface $-1 -40.601093673714821 0 11.89807285838644 -1 0 0 0 0 1 forward_v I I I I #
coedge $-1 $98 $99 $100 $101 forward $39 $-1 #
face $-1 $102 $103 $23 $-1 $104 forward single #
loop $-1 $-1 $105 $41 #
plane-surface $-1 40.601093673714821 0 11.89807285838644 1 0 0 0 0 -1 forward_v I I I I #
coedge $-1 $106 $107 $108 $109 reversed $42 $-1 #
face $-1 $110 $111 $24 $-1 $112 reversed single #
loop $-1 $-1 $113 $44 #
plane-surface $-1 -29.663195962744947 74.692899423057298 125.44322596097122 -1 0 0 0 0.7660444514056185 0.64278759981090561 forward_v I I I I #
coedge $-1 $114 $115 $116 $117 reversed $45 $-1 #
face $-1 $-1 $118 $25 $-1 $119 forward single #
loop $-1 $120 $121 $47 #
cone-surface $-1 -35.132144818229889 25.525986981170881 10.176709037793136 0 -0.7660444514056185 -0.64278759981090561 0.5 0 0 1 I I -0.70710678118654746 0.70710678118654746 0.5 forward I I I I #
loop $-1 $-1 $122 $32 #
coedge $-1 $76 $76 $123 $124 reversed $48 $-1 #
face $-1 $125 $126 $26 $-1 $127 forward single #
loop $-1 $-1 $128 $50 #
plane-surface $-1 29.66319596274494 74.692899423057298 125.44322596097122 1 0 0 0 -0.7660444514056185 -0.64278759981090561 forward_v I I I I #
coedge $-1 $129 $130 $131 $132 reversed $51 $-1 #
face $-1 $-1 $133 $27 $-1 $134 forward single #
loop $-1 $135 $136 $53 #
cone-surface $-1 35.132144818229882 25.525986981170881 10.176709037793136 0 -0.7660444514056185 -0.64278759981090561 0.5 0 0 1 I I -0.70710678118654746 0.70710678118654746 0.5 forward I I I I #
loop $-1 $-1 $137 $34 #
coedge $-1 $85 $85 $138 $139 reversed $54 $-1 #
face $-1 $140 $141 $21 $-1 $142 reversed single #
loop $-1 $-1 $143 $56 #
plane-surface $-1 0 -29.545387507388646 0 0 1 0 0 0 1 forward_v I I I I #
coedge $-1 $144 $145 $146 $147 forward $57 $-1 #
coedge $-1 $148 $59 $149 $150 forward $36 $-1 #
coedge $-1 $59 $148 $151 $152 forward $36 $-1 #
coedge $-1 $153 $154 $59 $93 reversed $155 $-1 #
edge $-1 $156 -29.545387507388646 $157 29.545387507388646 $92 $158 forward 7 unknown #
face $-1 $159 $160 $22 $-1 $161 reversed single #
loop $-1 $-1 $162 $60 #
plane-surface $-1 0 29.545387507388646 0 0 -1 0 0 0 -1 forward_v I I I I #
coedge $-1 $100 $163 $164 $165 reversed $61 $-1 #
coedge $-1 $166 $63 $167 $168 reversed $39 $-1 #
coedge $-1 $63 $166 $169 $170 reversed $39 $-1 #
coedge $-1 $171 $97 $63 $101 reversed $61 $-1 #
edge $-1 $172 -29.545387507388646 $173 29.545387507388646 $100 $174 forward 7 unknown #
face $-1 $175 $176 $23 $-1 $177 reversed single #
loop $-1 $-1 $178 $64 #
plane-surface $-1 0 0 14.092375296883363 0 0 1 1 0 0 forward_v I I I I #
coedge $-1 $179 $180 $181 $182 reversed $65 $-1 #
coedge $-1 $183 $67 $184 $185 reversed $42 $-1 #
coedge $-1 $67 $183 $186 $187 reversed $42 $-1 #
coedge $-1 $188 $189 $67 $109 forward $190 $-1 #
edge $-1 $191 -29.545387507388646 $192 29.545387507388646 $108 $193 forward 7 unknown #
face $-1 $194 $195 $24 $-1 $196 forward single #
loop $-1 $-1 $197 $68 #
plane-surface $-1 0 29.545387507388646 0 0 -1 0 0 0 -1 forward_v I I I I #
coedge $-1 $198 $199 $200 $201 reversed $69 $-1 #
coedge $-1 $202 $71 $203 $204 reversed $45 $-1 #
coedge $-1 $71 $202 $198 $205 forward $45 $-1 #
coedge $-1 $200 $206 $71 $117 forward $195 $-1 #
edge $-1 $207 -23.035021264599884 $208 -12.097123553630002 $116 $209 forward 7 unknown #
loop $-1 $-1 $123 $72 #
plane-surface $-1 -35.132144818229889 -8.4374299353262785 55.688599082965581 0 0.7660444514056185 0.64278759981090561 1 0 0 forward_v I I I I #
loop $-1 $-1 $210 $47 #
coedge $-1 $121 $121 $122 $211 reversed $73 $-1 #
coedge $-1 $122 $122 $121 $211 forward $75 $-1 #
coedge $-1 $123 $123 $76 $124 forward $118 $-1 #
edge $-1 $212 2.6744572085382425e-015 $212 6.2831853071796031 $123 $213 forward 7 unknown #
face $-1 $214 $215 $26 $-1 $216 forward single #
loop $-1 $-1 $217 $77 #
plane-surface $-1 0 0 14.092375296883363 0 0 1 1 0 0 forward_v I I I I #
coedge $-1 $218 $219 $220 $221 reversed $78 $-1 #
coedge $-1 $222 $80 $223 $224 reversed $51 $-1 #
coedge $-1 $80 $222 $218 $225 forward $51 $-1 #
coedge $-1 $220 $226 $80 $132 forward $227 $-1 #
edge $-1 $228 -23.03502126459988 $229 -12.097123553629999 $131 $230 forward 7 unknown #
loop $-1 $-1 $138 $81 #
plane-surface $-1 35.132144818229882 -8.4374299353262785 55.688599082965581 0 0.7660444514056185 0.64278759981090561 1 0 0 forward_v I I I I #
loop $-1 $-1 $231 $53 #
coedge $-1 $136 $136 $137 $232 reversed $82 $-1 #
coedge $-1 $137 $137 $136 $232 forward $84 $-1 #
coedge $-1 $138 $138 $85 $139 forward $133 $-1 #
edge $-1 $233 2.6744572085382425e-015 $233 6.2831853071796031 $138 $234 forward 7 unknown #
face $-1 $235 $236 $21 $-1 $237 reversed single #
loop $-1 $-1 $238 $86 #
plane-surface $-1 -54.259468367564928 0 0 1 0 0 0 0 -1 forward_v I I I I #
coedge $-1 $239 $151 $240 $241 forward $87 $-1 #
coedge $-1 $242 $89 $239 $243 forward $57 $-1 #
coedge $-1 $89 $242 $244 $245 forward $57 $-1 #
coedge $-1 $154 $153 $89 $147 reversed $155 $-1 #
edge $-1 $246 -29.545387507388646 $247 29.545387507388646 $146 $248 forward 7 unknown #
coedge $-1 $91 $90 $249 $250 forward $36 $-1 #
coedge $-1 $251 $252 $90 $150 reversed $236 $-1 #
edge $-1 $157 -54.259468367564928 $253 54.259468367564928 $149 $254 forward 7 unknown #
coedge $-1 $143 $255 $91 $152 reversed $87 $-1 #
edge $-1 $256 -54.259468367564928 $156 54.259468367564928 $151 $257 forward 7 unknown #
coedge $-1 $146 $92 $255 $258 forward $155 $-1 #
coedge $-1 $92 $146 $251 $259 reversed $155 $-1 #
loop $-1 $-1 $153 $235 #
vertex $-1 $93 $260 #
vertex $-1 $93 $261 #
straight-curve $-1 54.259468367564928 0 14.092375296883363 0 1 0 I I #
face $-1 $262 $263 $22 $-1 $264 forward single #
loop $-1 $-1 $265 $94 #
plane-surface $-1 -54.259468367564928 0 0 1 0 0 0 0 -1 forward_v I I I I #
coedge $-1 $169 $266 $171 $267 forward $95 $-1 #
coedge $-1 $97 $171 $268 $269 reversed $61 $-1 #
coedge $-1 $270 $167 $97 $165 forward $271 $-1 #
edge $-1 $173 3.7547339906962991 $272 8.1433388676901401 $164 $273 forward 7 unknown #
coedge $-1 $99 $98 $265 $274 reversed $39 $-1 #
coedge $-1 $164 $275 $98 $168 forward $271 $-1 #
edge $-1 $276 -30.544327857244991 $173 -16.885953163394884 $167 $277 forward 7 unknown #
coedge $-1 $278 $162 $99 $170 forward $95 $-1 #
edge $-1 $172 16.885953163394884 $279 30.544327857244991 $169 $280 forward 7 unknown #
coedge $-1 $163 $100 $162 $267 reversed $61 $-1 #
vertex $-1 $170 $281 #
vertex $-1 $168 $282 #
straight-curve $-1 -40.601093673714821 0 9.7037704198895192 0 -1 0 I I #
face $-1 $283 $284 $23 $-1 $285 reversed single #
loop $-1 $-1 $286 $102 #
plane-surface $-1 0 -29.545387507388646 0 0 1 0 0 0 1 forward_v I I I I #
coedge $-1 $287 $288 $180 $289 forward $103 $-1 #
coedge $-1 $290 $105 $183 $291 reversed $65 $-1 #
coedge $-1 $105 $290 $178 $289 reversed $65 $-1 #
coedge $-1 $292 $186 $105 $182 forward $284 $-1 #
edge $-1 $293 3.7547339906962991 $294 8.1433388676901401 $181 $295 forward 7 unknown #
coedge $-1 $107 $106 $179 $291 forward $42 $-1 #
coedge $-1 $296 $286 $106 $185 forward $176 $-1 #
edge $-1 $297 16.885953163394884 $191 30.544327857244991 $184 $298 forward 7 unknown #
coedge $-1 $181 $299 $107 $187 forward $284 $-1 #
edge $-1 $192 -30.544327857244991 $293 -16.885953163394884 $186 $300 forward 7 unknown #
coedge $-1 $301 $108 $299 $302 reversed $190 $-1 #
coedge $-1 $108 $301 $296 $303 forward $190 $-1 #
loop $-1 $-1 $108 $283 #
vertex $-1 $185 $304 #
vertex $-1 $109 $305 #
straight-curve $-1 54.259468367564928 0 9.7037704198895192 0 1 0 I I #
face $-1 $-1 $306 $24 $-1 $307 forward single #
loop $-1 $-1 $200 $110 #
plane-surface $-1 0 0 14.092375296883363 0 0 1 1 0 0 forward_v I I I I #
coedge $-1 $308 $309 $199 $310 forward $111 $-1 #
coedge $-1 $199 $113 $115 $205 reversed $69 $-1 #
coedge $-1 $113 $198 $197 $310 reversed $69 $-1 #
coedge $-1 $311 $116 $113 $201 forward $195 $-1 #
edge $-1 $208 -10.880504523397974 $312 -7.8010622041400026 $200 $313 forward 7 unknown #
coedge $-1 $115 $114 $308 $314 reversed $45 $-1 #
coedge $-1 $315 $316 $114 $204 forward $306 $-1 #
edge $-1 $317 -39.606292527191222 $207 -34.815530664075197 $203 $318 forward 7 unknown #
edge $-1 $319 -59.0907750147773 $208 -54.300013151661275 $198 $320 forward 7 unknown #
coedge $-1 $116 $311 $315 $321 forward $195 $-1 #
vertex $-1 $204 $322 #
vertex $-1 $117 $323 #
straight-curve $-1 -17.566072409114945 26.465945188130668 14.092375296883358 1 0 0 I I #
coedge $-1 $210 $210 $-1 $324 reversed $120 $-1 #
edge $-1 $325 0 $325 6.2831853071796004 $121 $326 forward 7 unknown #
vertex $-1 $124 $327 #
ellipse-curve $-1 -35.132144818229889 28.005666347759657 12.257407025260521 0 0.7660444514056185 0.64278759981090561 1 0 0 1 I I #
face $-1 $-1 $227 $26 $-1 $328 reversed single #
loop $-1 $-1 $223 $125 #
plane-surface $-1 40.601093673714821 0 11.89807285838644 1 0 0 0 0 -1 forward_v I I I I #
coedge $-1 $329 $330 $219 $331 forward $126 $-1 #
coedge $-1 $219 $128 $130 $225 reversed $78 $-1 #
coedge $-1 $128 $218 $217 $331 reversed $78 $-1 #
coedge $-1 $332 $131 $128 $221 forward $227 $-1 #
edge $-1 $229 -52.299174226847924 $333 -48.629237683602248 $220 $334 forward 7 unknown #
coedge $-1 $130 $129 $329 $335 reversed $51 $-1 #
coedge $-1 $336 $337 $129 $224 forward $215 $-1 #
edge $-1 $338 34.815530664075197 $228 39.606292527191229 $223 $339 forward 7 unknown #
edge $-1 $340 54.300013151661275 $229 59.0907750147773 $218 $341 forward 7 unknown #
coedge $-1 $131 $332 $336 $342 forward $227 $-1 #
loop $-1 $-1 $220 $214 #
vertex $-1 $224 $343 #
vertex $-1 $132 $344 #
straight-curve $-1 17.566072409114941 29.545387507388646 10.422438753637678 -1 0 0 I I #
coedge $-1 $231 $231 $-1 $345 reversed $135 $-1 #
edge $-1 $346 0 $346 6.2831853071796004 $136 $347 forward 7 unknown #
vertex $-1 $139 $348 #
ellipse-curve $-1 35.132144818229882 28.005666347759657 12.257407025260521 0 0.7660444514056185 0.64278759981090561 1 0 0 1 I I #
face $-1 $-1 $155 $21 $-1 $349 reversed single #
loop $-1 $-1 $251 $140 #
plane-surface $-1 0 29.545387507388646 0 0 -1 0 0 0 -1 forward_v I I I I #
coedge $-1 $350 $249 $252 $351 forward $141 $-1 #
coedge $-1 $255 $143 $144 $243 reversed $87 $-1 #
coedge $-1 $249 $350 $143 $241 reversed $141 $-1 #
edge $-1 $256 -14.092375296883363 $352 14.092375296883363 $240 $353 forward 7 unknown #
coedge $-1 $145 $144 $350 $354 forward $57 $-1 #
edge $-1 $247 -54.259468367564928 $352 54.259468367564928 $239 $355 forward 7 unknown #
coedge $-1 $252 $251 $145 $245 reversed $236 $-1 #
edge $-1 $356 -54.259468367564928 $246 54.259468367564928 $244 $357 forward 7 unknown #
vertex $-1 $147 $358 #
vertex $-1 $258 $359 #
straight-curve $-1 54.259468367564928 0 -14.092375296883363 0 -1 0 I I #
coedge $-1 $238 $240 $148 $250 reversed $141 $-1 #
edge $-1 $253 -29.545387507388646 $256 29.545387507388646 $249 $360 forward 7 unknown #
coedge $-1 $244 $149 $154 $259 forward $236 $-1 #
coedge $-1 $149 $244 $238 $351 reversed $236 $-1 #
vertex $-1 $150 $361 #
straight-curve $-1 0 29.545387507388646 14.092375296883363 -1 0 0 I I #
coedge $-1 $151 $239 $153 $258 reversed $87 $-1 #
vertex $-1 $250 $362 #
straight-curve $-1 0 -29.545387507388646 14.092375296883363 1 0 0 I I #
edge $-1 $156 -14.092375296883363 $247 14.092375296883363 $153 $363 forward 7 unknown #
edge $-1 $157 -14.092375296883363 $246 14.092375296883363 $154 $364 forward 7 unknown #
point $-1 54.259468367564928 -29.545387507388646 14.092375296883363 #
point $-1 54.259468367564928 29.545387507388646 14.092375296883363 #
face $-1 $-1 $271 $22 $-1 $365 reversed single #
loop $-1 $-1 $268 $159 #
plane-surface $-1 0 0 14.092375296883363 0 0 1 1 0 0 forward_v I I I I #
coedge $-1 $366 $367 $166 $274 forward $160 $-1 #
coedge $-1 $162 $278 $368 $369 reversed $95 $-1 #
edge $-1 $370 -8.1433388676901401 $172 -3.7547339906962991 $162 $371 forward 7 unknown #
coedge $-1 $368 $372 $163 $269 forward $263 $-1 #
edge $-1 $272 -29.545387507388646 $370 29.545387507388646 $268 $373 forward 7 unknown #
coedge $-1 $275 $164 $372 $374 reversed $271 $-1 #
loop $-1 $-1 $164 $262 #
vertex $-1 $165 $375 #
straight-curve $-1 -40.601093673714821 -29.545387507388646 5.9490364291932201 0 0 1 I I #
edge $-1 $279 -29.545387507388646 $276 29.545387507388646 $265 $376 forward 7 unknown #
coedge $-1 $167 $270 $366 $377 forward $271 $-1 #
vertex $-1 $274 $378 #
straight-curve $-1 -23.715140510319937 -29.545387507388646 9.7037704198895192 1 0 0 I I #
coedge $-1 $266 $169 $367 $379 reversed $95 $-1 #
vertex $-1 $274 $380 #
straight-curve $-1 -23.715140510319937 29.545387507388646 9.7037704198895192 -1 0 0 I I #
point $-1 -40.601093673714821 29.545387507388646 9.7037704198895192 #
point $-1 -40.601093673714821 -29.545387507388646 9.7037704198895192 #
face $-1 $-1 $190 $23 $-1 $381 reversed single #
loop $-1 $-1 $181 $175 #
plane-surface $-1 0 29.545387507388646 0 0 -1 0 0 0 -1 forward_v I I I I #
coedge $-1 $184 $382 $290 $383 forward $176 $-1 #
coedge $-1 $384 $178 $382 $385 forward $103 $-1 #
coedge $-1 $178 $384 $292 $386 forward $103 $-1 #
edge $-1 $294 -29.545387507388646 $387 29.545387507388646 $178 $388 forward 7 unknown #
coedge $-1 $180 $179 $286 $383 reversed $65 $-1 #
edge $-1 $297 -29.545387507388646 $293 29.545387507388646 $179 $389 forward 7 unknown #
coedge $-1 $299 $181 $288 $386 reversed $284 $-1 #
vertex $-1 $187 $390 #
vertex $-1 $182 $391 #
straight-curve $-1 40.601093673714821 29.545387507388646 5.9490364291932201 0 0 1 I I #
coedge $-1 $382 $184 $189 $303 reversed $176 $-1 #
vertex $-1 $185 $392 #
straight-curve $-1 23.715140510319937 -29.545387507388646 9.7037704198895192 1 0 0 I I #
coedge $-1 $186 $292 $188 $302 forward $284 $-1 #
straight-curve $-1 23.715140510319937 29.545387507388646 9.7037704198895192 -1 0 0 I I #
coedge $-1 $189 $188 $384 $393 reversed $190 $-1 #
edge $-1 $394 -14.092375296883363 $192 -9.7037704198895192 $188 $395 forward 7 unknown #
edge $-1 $396 -14.092375296883363 $191 -9.7037704198895192 $189 $397 forward 7 unknown #
point $-1 54.259468367564928 -29.545387507388646 9.7037704198895192 #
point $-1 54.259468367564928 29.545387507388646 9.7037704198895192 #
loop $-1 $-1 $203 $194 #
plane-surface $-1 -40.601093673714821 0 11.89807285838644 -1 0 0 0 0 1 forward_v I I I I #
coedge $-1 $398 $197 $202 $314 forward $111 $-1 #
coedge $-1 $197 $398 $311 $399 reversed $111 $-1 #
edge $-1 $312 48.629237683602248 $319 52.299174226847924 $197 $400 forward 7 unknown #
coedge $-1 $206 $200 $309 $399 forward $195 $-1 #
vertex $-1 $399 $401 #
straight-curve $-1 -29.663195962744947 37.346449711528649 14.092375296883361 0 1 0 I I #
edge $-1 $319 12.097123553630002 $317 23.035021264599884 $308 $402 forward 7 unknown #
coedge $-1 $316 $203 $206 $321 reversed $306 $-1 #
coedge $-1 $203 $315 $398 $403 reversed $306 $-1 #
vertex $-1 $403 $404 #
straight-curve $-1 -40.601093673714821 4.0869537964267941 40.762619384840328 0 -0.64278759981090572 0.76604445140561861 I I #
vertex $-1 $314 $405 #
straight-curve $-1 -29.663195962744947 -8.4374299353262785 55.688599082965581 0 -0.64278759981090561 0.7660444514056185 I I #
edge $-1 $406 -29.545387507388646 $207 -26.465945188130675 $206 $407 forward 7 unknown #
point $-1 -40.601093673714828 26.465945188130675 14.092375296883361 #
point $-1 -29.663195962744947 26.465945188130675 14.092375296883361 #
edge $-1 $408 1 $408 0 $210 $-1 forward 7 unknown #
vertex $-1 $211 $409 #
ellipse-curve $-1 -35.132144818229889 25.909009206873691 10.498102837698589 0 0.7660444514056185 0.64278759981090561 1 0 0 1 I I #
point $-1 -34.132144818229889 28.005666347759647 12.257407025260509 #
plane-surface $-1 0 29.545387507388646 0 0 -1 0 0 0 -1 forward_v I I I I #
coedge $-1 $410 $217 $222 $335 forward $126 $-1 #
coedge $-1 $217 $410 $332 $411 forward $126 $-1 #
edge $-1 $333 7.8010622041400026 $340 10.880504523397974 $217 $412 forward 7 unknown #
coedge $-1 $226 $220 $330 $411 reversed $227 $-1 #
vertex $-1 $221 $413 #
straight-curve $-1 29.66319596274494 29.545387507388646 62.72161298048561 0 0 1 I I #
edge $-1 $340 12.097123553629999 $338 23.03502126459988 $329 $414 forward 7 unknown #
coedge $-1 $337 $223 $226 $342 reversed $215 $-1 #
coedge $-1 $223 $336 $410 $415 reversed $215 $-1 #
vertex $-1 $415 $416 #
straight-curve $-1 40.601093673714821 4.0869537964267941 40.762619384840328 0 0.64278759981090572 -0.76604445140561861 I I #
vertex $-1 $335 $417 #
straight-curve $-1 29.66319596274494 -8.4374299353262785 55.688599082965581 0 0.64278759981090561 -0.7660444514056185 I I #
edge $-1 $418 -8.1433388676901401 $228 -4.4734023244444616 $226 $419 forward 7 unknown #
point $-1 40.601093673714821 29.545387507388646 10.422438753637682 #
point $-1 29.66319596274494 29.545387507388646 10.422438753637685 #
edge $-1 $420 1 $420 0 $231 $-1 forward 7 unknown #
vertex $-1 $232 $421 #
ellipse-curve $-1 35.132144818229882 25.909009206873691 10.498102837698589 0 0.7660444514056185 0.64278759981090561 1 0 0 1 I I #
point $-1 36.132144818229882 28.005666347759647 12.257407025260509 #
plane-surface $-1 54.259468367564928 0 0 -1 0 0 0 0 1 forward_v I I I I #
coedge $-1 $240 $238 $242 $354 reversed $141 $-1 #
edge $-1 $253 -14.092375296883363 $356 14.092375296883363 $252 $422 forward 7 unknown #
vertex $-1 $354 $423 #
straight-curve $-1 -54.259468367564928 -29.545387507388646 0 0 0 -1 I I #
edge $-1 $352 -29.545387507388646 $356 29.545387507388646 $350 $424 forward 7 unknown #
straight-curve $-1 0 -29.545387507388646 -14.092375296883363 -1 0 0 I I #
vertex $-1 $245 $425 #
straight-curve $-1 0 29.545387507388646 -14.092375296883363 1 0 0 I I #
point $-1 54.259468367564928 29.545387507388646 -14.092375296883363 #
point $-1 54.259468367564928 -29.545387507388646 -14.092375296883363 #
straight-curve $-1 -54.259468367564928 0 14.092375296883363 0 -1 0 I I #
point $-1 -54.259468367564928 29.545387507388646 14.092375296883363 #
point $-1 -54.259468367564928 -29.545387507388646 14.092375296883363 #
straight-curve $-1 54.259468367564928 -29.545387507388646 0 0 0 -1 I I #
straight-curve $-1 54.259468367564928 29.545387507388646 0 0 0 -1 I I #
plane-surface $-1 0 -29.545387507388646 0 0 1 0 0 0 1 forward_v I I I I #
coedge $-1 $426 $265 $275 $377 reversed $160 $-1 #
coedge $-1 $265 $426 $278 $379 forward $160 $-1 #
coedge $-1 $427 $268 $266 $369 forward $263 $-1 #
edge $-1 $370 40.601093673714821 $428 54.259468367564928 $266 $429 forward 7 unknown #
vertex $-1 $369 $430 #
straight-curve $-1 -40.601093673714821 29.545387507388646 5.9490364291932201 0 0 -1 I I #
coedge $-1 $268 $427 $270 $374 forward $263 $-1 #
straight-curve $-1 -40.601093673714821 0 14.092375296883363 0 1 0 I I #
edge $-1 $431 -54.259468367564928 $272 -40.601093673714821 $270 $432 forward 7 unknown #
point $-1 -40.601093673714821 -29.545387507388646 14.092375296883361 #
straight-curve $-1 -54.259468367564928 0 9.7037704198895192 0 -1 0 I I #
edge $-1 $431 -14.092375296883363 $276 -9.7037704198895192 $366 $433 forward 7 unknown #
point $-1 -54.259468367564928 -29.545387507388646 9.7037704198895192 #
edge $-1 $428 -14.092375296883363 $279 -9.7037704198895192 $278 $434 forward 7 unknown #
point $-1 -54.259468367564928 29.545387507388646 9.7037704198895192 #
plane-surface $-1 54.259468367564928 0 0 -1 0 0 0 0 1 forward_v I I I I #
coedge $-1 $286 $296 $287 $385 reversed $176 $-1 #
edge $-1 $387 -8.1433388676901401 $297 -3.7547339906962991 $286 $435 forward 7 unknown #
coedge $-1 $288 $287 $301 $393 forward $103 $-1 #
edge $-1 $387 40.601093673714821 $396 54.259468367564928 $382 $436 forward 7 unknown #
edge $-1 $394 -54.259468367564928 $294 -40.601093673714821 $292 $437 forward 7 unknown #
vertex $-1 $385 $438 #
straight-curve $-1 40.601093673714821 0 14.092375296883363 0 -1 0 I I #
straight-curve $-1 40.601093673714821 0 9.7037704198895192 0 1 0 I I #
point $-1 40.601093673714821 29.545387507388646 9.7037704198895192 #
point $-1 40.601093673714821 29.545387507388646 14.092375296883361 #
point $-1 40.601093673714821 -29.545387507388646 9.7037704198895192 #
edge $-1 $396 -29.545387507388646 $394 29.545387507388646 $301 $439 forward 7 unknown #
vertex $-1 $393 $440 #
straight-curve $-1 54.259468367564928 29.545387507388646 0 0 0 -1 I I #
vertex $-1 $393 $441 #
straight-curve $-1 54.259468367564928 -29.545387507388646 0 0 0 -1 I I #
coedge $-1 $309 $308 $316 $403 forward $111 $-1 #
edge $-1 $312 29.663195962744947 $406 40.601093673714821 $309 $442 forward 7 unknown #
straight-curve $-1 -29.663195962744947 29.545387507388646 62.72161298048561 0 0 -1 I I #
point $-1 -29.663195962744947 29.545387507388646 14.092375296883363 #
straight-curve $-1 -17.566072409114945 29.545387507388646 10.422438753637678 -1 0 0 I I #
edge $-1 $317 4.4734023244444652 $406 8.1433388676901401 $398 $443 forward 7 unknown #
point $-1 -40.601093673714828 29.545387507388646 10.422438753637685 #
point $-1 -29.663195962744947 29.545387507388646 10.422438753637685 #
vertex $-1 $321 $444 #
straight-curve $-1 -40.601093673714821 0 14.092375296883363 0 -1 0 I I #
vertex $-1 $324 $445 #
point $-1 -34.132144818229889 25.909009206873691 10.498102837698589 #
coedge $-1 $330 $329 $337 $415 forward $126 $-1 #
edge $-1 $418 -40.601093673714821 $333 -29.66319596274494 $332 $446 forward 7 unknown #
straight-curve $-1 29.66319596274494 37.346449711528649 14.092375296883361 0 -1 0 I I #
point $-1 29.66319596274494 29.545387507388646 14.092375296883363 #
straight-curve $-1 17.566072409114941 26.465945188130668 14.092375296883358 1 0 0 I I #
edge $-1 $338 26.465945188130675 $418 29.545387507388646 $410 $447 forward 7 unknown #
point $-1 40.601093673714821 26.465945188130675 14.092375296883361 #
point $-1 29.66319596274494 26.465945188130675 14.092375296883361 #
vertex $-1 $411 $448 #
straight-curve $-1 40.601093673714821 29.545387507388646 5.9490364291932201 0 0 -1 I I #
vertex $-1 $345 $449 #
point $-1 36.132144818229882 25.909009206873691 10.498102837698589 #
straight-curve $-1 -54.259468367564928 29.545387507388646 0 0 0 -1 I I #
point $-1 -54.259468367564928 -29.545387507388646 -14.092375296883363 #
straight-curve $-1 -54.259468367564928 0 -14.092375296883363 0 1 0 I I #
point $-1 -54.259468367564928 29.545387507388646 -14.092375296883363 #
coedge $-1 $367 $366 $427 $450 reversed $160 $-1 #
coedge $-1 $372 $368 $426 $450 forward $263 $-1 #
vertex $-1 $369 $451 #
straight-curve $-1 0 29.545387507388646 14.092375296883363 -1 0 0 I I #
point $-1 -40.601093673714821 29.545387507388646 14.092375296883361 #
vertex $-1 $450 $452 #
straight-curve $-1 0 -29.545387507388646 14.092375296883363 1 0 0 I I #
straight-curve $-1 -54.259468367564928 -29.545387507388646 0 0 0 -1 I I #
straight-curve $-1 -54.259468367564928 29.545387507388646 0 0 0 -1 I I #
straight-curve $-1 40.601093673714821 -29.545387507388646 5.9490364291932201 0 0 -1 I I #
straight-curve $-1 0 -29.545387507388646 14.092375296883363 1 0 0 I I #
straight-curve $-1 0 29.545387507388646 14.092375296883363 -1 0 0 I I #
point $-1 40.601093673714821 -29.545387507388646 14.092375296883361 #
straight-curve $-1 54.259468367564928 0 14.092375296883363 0 1 0 I I #
point $-1 54.259468367564928 29.545387507388646 14.092375296883363 #
point $-1 54.259468367564928 -29.545387507388646 14.092375296883363 #
straight-curve $-1 0 29.545387507388646 14.092375296883363 -1 0 0 I I #
straight-curve $-1 -40.601093673714821 29.545387507388646 5.9490364291932201 0 0 1 I I #
point $-1 -40.601093673714821 29.545387507388646 14.092375296883361 #
point $-1 -35.132144818229889 25.142964755468071 9.8553152378876838 #
straight-curve $-1 0 29.545387507388646 14.092375296883363 -1 0 0 I I #
straight-curve $-1 40.601093673714821 0 14.092375296883363 0 1 0 I I #
point $-1 40.601093673714821 29.545387507388646 14.092375296883361 #
point $-1 35.132144818229882 25.142964755468071 9.8553152378876838 #
edge $-1 $428 -29.545387507388646 $431 29.545387507388646 $426 $453 forward 7 unknown #
point $-1 -54.259468367564928 29.545387507388646 14.092375296883363 #
point $-1 -54.259468367564928 -29.545387507388646 14.092375296883363 #
straight-curve $-1 -54.259468367564928 0 14.092375296883363 0 -1 0 I I #
End-of-ACIS-data 