500 0 7 0           
7 Unknown 11 ACIS 5.0 NT 24 Thu Mar 25 21:13:57 1999 
-1 9.9999999999999995e-007 1e-010 
body $-1 $7 $-1 $8 #
body $-1 $9 $-1 $10 #
body $-1 $11 $-1 $12 #
body $-1 $13 $-1 $14 #
body $-1 $15 $-1 $16 #
body $-1 $17 $-1 $18 #
body $-1 $19 $-1 $20 #
lump $-1 $-1 $21 $0 #
transform $-1 1 0 0 0 1 0 0 0 1 55.45091097750786 24.952317642175299 6.0011363387226986 1 rotate no_reflect no_shear #
lump $-1 $-1 $22 $1 #
transform $-1 1 0 0 0 1 0 0 0 1 55.45091097750786 24.952317642175299 6.0011363387226986 1 rotate no_reflect no_shear #
lump $-1 $-1 $23 $2 #
transform $-1 1 0 0 0 1 0 0 0 1 55.45091097750786 24.952317642175299 6.0011363387226986 1 rotate no_reflect no_shear #
lump $-1 $-1 $24 $3 #
transform $-1 1 0 0 0 1 0 0 0 1 55.45091097750786 24.952317642175299 6.0011363387226986 1 rotate no_reflect no_shear #
lump $-1 $-1 $25 $4 #
transform $-1 1 0 0 0 1 0 0 0 1 55.45091097750786 24.952317642175299 6.0011363387226986 1 rotate no_reflect no_shear #
lump $-1 $-1 $26 $5 #
transform $-1 1 0 0 0 1 0 0 0 1 55.45091097750786 24.952317642175299 6.0011363387226986 1 rotate no_reflect no_shear #
lump $-1 $-1 $27 $6 #
transform $-1 1 0 0 0 1 0 0 0 1 55.45091097750786 24.952317642175299 6.0011363387226986 1 rotate no_reflect no_shear #
shell $-1 $-1 $-1 $28 $-1 $7 #
shell $-1 $-1 $-1 $29 $-1 $9 #
shell $-1 $-1 $-1 $30 $-1 $11 #
shell $-1 $-1 $-1 $31 $-1 $13 #
shell $-1 $-1 $-1 $32 $-1 $15 #
shell $-1 $-1 $-1 $33 $-1 $17 #
shell $-1 $-1 $-1 $34 $-1 $19 #
face $-1 $35 $36 $21 $-1 $37 forward single #
face $-1 $38 $39 $22 $-1 $40 forward single #
face $-1 $41 $42 $23 $-1 $43 forward single #
face $-1 $44 $45 $24 $-1 $46 reversed single #
face $-1 $47 $48 $25 $-1 $49 forward single #
face $-1 $50 $51 $26 $-1 $52 forward single #
face $-1 $53 $54 $27 $-1 $55 forward single #
face $-1 $56 $57 $21 $-1 $58 reversed single #
loop $-1 $-1 $59 $28 #
plane-surface $-1 0 0 6.0011363387226986 0 0 1 1 0 0 forward_v I I I I #
face $-1 $60 $61 $22 $-1 $62 reversed single #
loop $-1 $-1 $63 $29 #
plane-surface $-1 0 -24.952317642175299 0 0 1 0 0 0 1 forward_v I I I I #
face $-1 $64 $65 $23 $-1 $66 reversed single #
loop $-1 $-1 $67 $30 #
plane-surface $-1 0 24.952317642175299 0 0 -1 0 0 0 -1 forward_v I I I I #
face $-1 $68 $69 $24 $-1 $70 reversed single #
loop $-1 $-1 $71 $31 #
plane-surface $-1 -145.17237055385527 11.91823423041258 66.700806643960462 0 1 0 -0.80901700255871778 0 0.5877852410284794 forward_v I I I I #
face $-1 $72 $73 $25 $-1 $74 forward single #
loop $-1 $75 $76 $32 #
cone-surface $-1 -53.271145241824733 13.302750920891338 3.3582578203674331 0.80901700255871778 0 -0.5877852410284794 0.2938926205142397 0 0.40450850127935889 1 I I 0 1 0.5 forward I I I I #
face $-1 $77 $78 $26 $-1 $79 forward single #
loop $-1 $80 $81 $33 #
cone-surface $-1 -53.271145241824733 15.379525956609481 3.3582578203674331 0.80901700255871778 0 -0.5877852410284794 0.2938926205142397 0 0.40450850127935889 1 I I 0 1 0.5 forward I I I I #
face $-1 $82 $83 $27 $-1 $84 forward single #
loop $-1 $85 $86 $34 #
cone-surface $-1 -53.271145241824733 17.456300992327623 3.3582578203674331 0.80901700255871778 0 -0.5877852410284794 0.2938926205142397 0 0.40450850127935889 1 I I 0 1 0.5 forward I I I I #
face $-1 $87 $88 $21 $-1 $89 reversed single #
loop $-1 $-1 $90 $35 #
plane-surface $-1 0 0 -6.0011363387226986 0 0 1 1 0 0 forward_v I I I I #
coedge $-1 $91 $92 $93 $94 forward $36 $-1 #
face $-1 $95 $96 $22 $-1 $97 forward single #
loop $-1 $-1 $98 $38 #
plane-surface $-1 -55.45091097750786 0 0 1 0 0 0 0 -1 forward_v I I I I #
coedge $-1 $99 $100 $101 $102 forward $39 $-1 #
face $-1 $103 $104 $23 $-1 $105 forward single #
loop $-1 $-1 $106 $41 #
plane-surface $-1 55.45091097750786 0 0 -1 0 0 0 0 1 forward_v I I I I #
coedge $-1 $107 $108 $109 $110 forward $42 $-1 #
face $-1 $111 $112 $24 $-1 $113 reversed single #
loop $-1 $-1 $114 $44 #
plane-surface $-1 -55.45091097750786 15.379525956609488 1.5143524956340428 -0.80901700255871778 0 0.5877852410284794 0.5877852410284794 0 0.80901700255871778 forward_v I I I I #
coedge $-1 $115 $116 $117 $118 reversed $45 $-1 #
face $-1 $-1 $119 $25 $-1 $120 forward single #
loop $-1 $121 $122 $47 #
cone-surface $-1 -52.519044845764888 13.302750920891338 2.8118249132993682 0.80901700255871778 0 -0.5877852410284794 0.14694631025711985 0 0.20225425063967944 1 I I -0.70710678118654746 0.70710678118654746 0.25 forward I I I I #
loop $-1 $-1 $123 $32 #
coedge $-1 $76 $76 $124 $125 reversed $48 $-1 #
face $-1 $-1 $126 $26 $-1 $127 forward single #
loop $-1 $128 $129 $50 #
cone-surface $-1 -52.519044845764888 15.379525956609481 2.8118249132993682 0.80901700255871778 0 -0.5877852410284794 0.14694631025711985 0 0.20225425063967944 1 I I -0.70710678118654746 0.70710678118654746 0.25 forward I I I I #
loop $-1 $-1 $130 $33 #
coedge $-1 $81 $81 $131 $132 reversed $51 $-1 #
face $-1 $-1 $133 $27 $-1 $134 forward single #
loop $-1 $135 $136 $53 #
cone-surface $-1 -52.519044845764888 17.456300992327623 2.8118249132993682 0.80901700255871778 0 -0.5877852410284794 0.14694631025711985 0 0.20225425063967944 1 I I -0.70710678118654746 0.70710678118654746 0.25 forward I I I I #
loop $-1 $-1 $137 $34 #
coedge $-1 $86 $86 $138 $139 reversed $54 $-1 #
face $-1 $140 $141 $21 $-1 $142 reversed single #
loop $-1 $-1 $143 $56 #
plane-surface $-1 0 -24.952317642175299 0 0 1 0 0 0 1 forward_v I I I I #
coedge $-1 $144 $145 $146 $147 forward $57 $-1 #
coedge $-1 $148 $59 $149 $150 forward $36 $-1 #
coedge $-1 $59 $148 $151 $152 forward $36 $-1 #
coedge $-1 $153 $154 $59 $94 reversed $155 $-1 #
edge $-1 $156 -24.952317642175299 $157 24.952317642175299 $93 $158 forward 7 unknown #
face $-1 $159 $160 $22 $-1 $161 reversed single #
loop $-1 $-1 $162 $60 #
plane-surface $-1 0 -28.008067621859752 2.9164011593545243 0 0 1 1 0 0 forward_v I I I I #
coedge $-1 $163 $164 $100 $165 forward $61 $-1 #
coedge $-1 $166 $63 $167 $168 reversed $39 $-1 #
coedge $-1 $63 $166 $98 $165 reversed $39 $-1 #
coedge $-1 $169 $162 $63 $102 reversed $96 $-1 #
edge $-1 $170 -55.45091097750786 $171 55.45091097750786 $101 $172 forward 7 unknown #
face $-1 $173 $174 $23 $-1 $175 reversed single #
loop $-1 $-1 $176 $64 #
plane-surface $-1 0 28.008067621859755 2.9164011593545243 0 0 1 1 0 0 forward_v I I I I #
coedge $-1 $177 $178 $108 $179 forward $65 $-1 #
coedge $-1 $180 $67 $181 $182 reversed $42 $-1 #
coedge $-1 $67 $180 $106 $179 reversed $42 $-1 #
coedge $-1 $176 $183 $67 $110 reversed $104 $-1 #
edge $-1 $184 -55.45091097750786 $185 55.45091097750786 $109 $186 forward 7 unknown #
face $-1 $187 $188 $24 $-1 $189 reversed single #
loop $-1 $-1 $190 $68 #
plane-surface $-1 -145.17237055385527 18.840817682806396 66.700806643960462 0 -1 0 0.80901700255871778 0 -0.5877852410284794 forward_v I I I I #
coedge $-1 $191 $192 $193 $194 reversed $69 $-1 #
coedge $-1 $116 $71 $195 $196 reversed $45 $-1 #
coedge $-1 $71 $115 $191 $197 reversed $45 $-1 #
coedge $-1 $193 $198 $71 $118 forward $199 $-1 #
edge $-1 $200 17.135274299419777 $201 20.395113479945707 $117 $202 forward 7 unknown #
loop $-1 $-1 $124 $72 #
plane-surface $-1 -55.45091097750786 15.379525956609488 1.5143524956340428 -0.80901700255871778 0 0.5877852410284794 0.5877852410284794 0 0.80901700255871778 forward_v I I I I #
loop $-1 $-1 $203 $47 #
coedge $-1 $122 $122 $123 $204 reversed $73 $-1 #
coedge $-1 $123 $123 $122 $204 forward $75 $-1 #
coedge $-1 $124 $124 $76 $125 forward $119 $-1 #
edge $-1 $205 0 $205 6.2831853071796004 $124 $206 forward 7 unknown #
loop $-1 $-1 $131 $77 #
plane-surface $-1 -55.45091097750786 15.379525956609488 1.5143524956340428 -0.80901700255871778 0 0.5877852410284794 0.5877852410284794 0 0.80901700255871778 forward_v I I I I #
loop $-1 $-1 $207 $50 #
coedge $-1 $129 $129 $130 $208 reversed $78 $-1 #
coedge $-1 $130 $130 $129 $208 forward $80 $-1 #
coedge $-1 $131 $131 $81 $132 forward $126 $-1 #
edge $-1 $209 0 $209 6.2831853071796004 $131 $210 forward 7 unknown #
loop $-1 $-1 $138 $82 #
plane-surface $-1 -55.45091097750786 15.379525956609488 1.5143524956340428 -0.80901700255871778 0 0.5877852410284794 0.5877852410284794 0 0.80901700255871778 forward_v I I I I #
loop $-1 $-1 $211 $53 #
coedge $-1 $136 $136 $137 $212 reversed $83 $-1 #
coedge $-1 $137 $137 $136 $212 forward $85 $-1 #
coedge $-1 $138 $138 $86 $139 forward $133 $-1 #
edge $-1 $213 0 $213 6.2831853071796004 $138 $214 forward 7 unknown #
face $-1 $215 $216 $21 $-1 $217 reversed single #
loop $-1 $-1 $218 $87 #
plane-surface $-1 -55.45091097750786 0 0 1 0 0 0 0 -1 forward_v I I I I #
coedge $-1 $219 $151 $220 $221 forward $88 $-1 #
coedge $-1 $222 $90 $219 $223 forward $57 $-1 #
coedge $-1 $90 $222 $224 $225 forward $57 $-1 #
coedge $-1 $154 $153 $90 $147 reversed $155 $-1 #
edge $-1 $226 -24.952317642175299 $227 24.952317642175299 $146 $228 forward 7 unknown #
coedge $-1 $92 $91 $229 $230 forward $36 $-1 #
coedge $-1 $231 $232 $91 $150 reversed $216 $-1 #
edge $-1 $157 -55.45091097750786 $233 55.45091097750786 $149 $234 forward 7 unknown #
coedge $-1 $143 $235 $92 $152 reversed $88 $-1 #
edge $-1 $236 -55.45091097750786 $156 55.45091097750786 $151 $237 forward 7 unknown #
coedge $-1 $146 $93 $235 $238 forward $155 $-1 #
coedge $-1 $93 $146 $231 $239 reversed $155 $-1 #
loop $-1 $-1 $153 $215 #
vertex $-1 $94 $240 #
vertex $-1 $94 $241 #
straight-curve $-1 55.45091097750786 0 6.0011363387226986 0 1 0 I I #
face $-1 $242 $243 $22 $-1 $244 reversed single #
loop $-1 $-1 $245 $95 #
plane-surface $-1 0 -28.008067621859752 -0.083598840645474848 0 0 1 1 0 0 forward_v I I I I #
coedge $-1 $101 $246 $247 $248 forward $96 $-1 #
coedge $-1 $249 $98 $250 $251 reversed $61 $-1 #
coedge $-1 $98 $249 $169 $252 reversed $61 $-1 #
edge $-1 $170 -2.9164011593545243 $253 0.083598840645474848 $98 $254 forward 7 unknown #
coedge $-1 $100 $99 $255 $256 forward $39 $-1 #
coedge $-1 $247 $257 $99 $168 forward $258 $-1 #
edge $-1 $259 -0.083598840645474848 $171 2.9164011593545243 $167 $260 forward 7 unknown #
coedge $-1 $246 $101 $164 $252 forward $96 $-1 #
vertex $-1 $165 $261 #
vertex $-1 $248 $262 #
straight-curve $-1 0 -24.952317642175299 2.9164011593545243 1 0 0 I I #
face $-1 $263 $264 $23 $-1 $265 reversed single #
loop $-1 $-1 $266 $103 #
plane-surface $-1 0 28.008067621859755 -0.083598840645474848 0 0 1 1 0 0 forward_v I I I I #
coedge $-1 $267 $109 $178 $268 forward $104 $-1 #
coedge $-1 $269 $106 $266 $270 reversed $65 $-1 #
coedge $-1 $106 $269 $176 $268 reversed $65 $-1 #
edge $-1 $184 -2.9164011593545243 $271 0.083598840645474848 $106 $272 forward 7 unknown #
coedge $-1 $108 $107 $273 $274 forward $42 $-1 #
coedge $-1 $275 $276 $107 $182 forward $277 $-1 #
edge $-1 $278 -0.083598840645474848 $185 2.9164011593545243 $181 $279 forward 7 unknown #
coedge $-1 $109 $267 $275 $280 forward $104 $-1 #
vertex $-1 $179 $281 #
vertex $-1 $280 $282 #
straight-curve $-1 0 24.952317642175299 2.9164011593545243 -1 0 0 I I #
face $-1 $-1 $199 $24 $-1 $283 forward single #
loop $-1 $-1 $284 $111 #
plane-surface $-1 -55.45091097750786 0 0 1 0 0 0 0 -1 forward_v I I I I #
coedge $-1 $285 $286 $287 $288 reversed $112 $-1 #
coedge $-1 $289 $114 $116 $197 forward $69 $-1 #
coedge $-1 $114 $289 $285 $290 forward $69 $-1 #
coedge $-1 $287 $117 $114 $194 forward $199 $-1 #
edge $-1 $201 4.2284712521078358 $291 11.151054704501652 $193 $292 forward 7 unknown #
coedge $-1 $293 $294 $115 $196 forward $188 $-1 #
edge $-1 $295 -31.836050826346188 $200 -27.349266983257532 $195 $296 forward 7 unknown #
edge $-1 $201 -5.5459697743039831 $295 0 $116 $297 forward 7 unknown #
coedge $-1 $117 $287 $293 $298 forward $199 $-1 #
loop $-1 $-1 $287 $187 #
vertex $-1 $196 $299 #
vertex $-1 $118 $300 #
straight-curve $-1 -72.586185276927637 11.91823423041258 6.0011363387226986 1 0 0 I I #
coedge $-1 $203 $203 $-1 $301 reversed $121 $-1 #
edge $-1 $302 0 $302 6.2831853071796004 $122 $303 forward 7 unknown #
vertex $-1 $125 $304 #
ellipse-curve $-1 -53.820991387244895 13.302750920891338 3.7577444171783734 -0.80901700255871778 0 0.5877852410284794 0.2938926205142397 0 0.40450850127935889 1 I I #
coedge $-1 $207 $207 $-1 $305 reversed $128 $-1 #
edge $-1 $306 0 $306 6.2831853071796004 $129 $307 forward 7 unknown #
vertex $-1 $132 $308 #
ellipse-curve $-1 -53.820991387244895 15.379525956609481 3.7577444171783734 -0.80901700255871778 0 0.5877852410284794 0.2938926205142397 0 0.40450850127935889 1 I I #
coedge $-1 $211 $211 $-1 $309 reversed $135 $-1 #
edge $-1 $310 0 $310 6.2831853071796004 $136 $311 forward 7 unknown #
vertex $-1 $139 $312 #
ellipse-curve $-1 -53.820991387244895 17.456300992327623 3.7577444171783734 -0.80901700255871778 0 0.5877852410284794 0.2938926205142397 0 0.40450850127935889 1 I I #
face $-1 $-1 $155 $21 $-1 $313 reversed single #
loop $-1 $-1 $232 $140 #
plane-surface $-1 0 24.952317642175299 0 0 -1 0 0 0 -1 forward_v I I I I #
coedge $-1 $314 $229 $232 $315 forward $141 $-1 #
coedge $-1 $235 $143 $144 $223 reversed $88 $-1 #
coedge $-1 $229 $314 $143 $221 reversed $141 $-1 #
edge $-1 $236 -6.0011363387226986 $316 6.0011363387226986 $220 $317 forward 7 unknown #
coedge $-1 $145 $144 $314 $318 forward $57 $-1 #
edge $-1 $227 -55.45091097750786 $316 55.45091097750786 $219 $319 forward 7 unknown #
coedge $-1 $232 $231 $145 $225 reversed $216 $-1 #
edge $-1 $320 -55.45091097750786 $226 55.45091097750786 $224 $321 forward 7 unknown #
vertex $-1 $147 $322 #
vertex $-1 $238 $323 #
straight-curve $-1 55.45091097750786 0 -6.0011363387226986 0 -1 0 I I #
coedge $-1 $218 $220 $148 $230 reversed $141 $-1 #
edge $-1 $233 -24.952317642175299 $236 24.952317642175299 $229 $324 forward 7 unknown #
coedge $-1 $224 $149 $154 $239 forward $216 $-1 #
coedge $-1 $149 $224 $218 $315 reversed $216 $-1 #
vertex $-1 $150 $325 #
straight-curve $-1 0 24.952317642175299 6.0011363387226986 -1 0 0 I I #
coedge $-1 $151 $219 $153 $238 reversed $88 $-1 #
vertex $-1 $230 $326 #
straight-curve $-1 0 -24.952317642175299 6.0011363387226986 1 0 0 I I #
edge $-1 $156 -6.0011363387226986 $227 6.0011363387226986 $153 $327 forward 7 unknown #
edge $-1 $157 -6.0011363387226986 $226 6.0011363387226986 $154 $328 forward 7 unknown #
point $-1 55.45091097750786 -24.952317642175299 6.0011363387226986 #
point $-1 55.45091097750786 24.952317642175299 6.0011363387226986 #
face $-1 $-1 $258 $22 $-1 $329 reversed single #
loop $-1 $-1 $330 $159 #
plane-surface $-1 0 -31.063817601544205 1.4164011593545247 0 1 0 0 0 1 forward_v I I I I #
coedge $-1 $331 $255 $257 $332 forward $160 $-1 #
coedge $-1 $162 $169 $333 $334 forward $96 $-1 #
coedge $-1 $335 $167 $162 $248 reversed $258 $-1 #
edge $-1 $336 -3.0557499796844532 $171 3.0557499796844532 $247 $337 forward 7 unknown #
coedge $-1 $164 $163 $330 $338 reversed $61 $-1 #
coedge $-1 $255 $331 $163 $251 forward $160 $-1 #
edge $-1 $339 -3.0557499796844532 $253 3.0557499796844532 $163 $340 forward 7 unknown #
edge $-1 $170 -3.0557499796844532 $341 3.0557499796844532 $164 $342 forward 7 unknown #
vertex $-1 $165 $343 #
straight-curve $-1 -55.45091097750786 -24.952317642175299 0 0 0 -1 I I #
coedge $-1 $245 $250 $166 $256 reversed $160 $-1 #
edge $-1 $259 -55.45091097750786 $253 55.45091097750786 $255 $344 forward 7 unknown #
coedge $-1 $167 $335 $245 $332 reversed $258 $-1 #
loop $-1 $-1 $167 $242 #
vertex $-1 $168 $345 #
straight-curve $-1 55.45091097750786 -24.952317642175299 0 0 0 1 I I #
point $-1 -55.45091097750786 -24.952317642175299 2.9164011593545243 #
point $-1 55.45091097750786 -24.952317642175299 2.9164011593545243 #
face $-1 $-1 $277 $23 $-1 $346 reversed single #
loop $-1 $-1 $347 $173 #
plane-surface $-1 0 31.063817601544208 1.4164011593545247 0 -1 0 0 0 -1 forward_v I I I I #
coedge $-1 $273 $348 $177 $270 forward $174 $-1 #
coedge $-1 $183 $176 $349 $350 forward $104 $-1 #
edge $-1 $184 -3.0557499796844532 $351 3.0557499796844532 $178 $352 forward 7 unknown #
coedge $-1 $178 $177 $347 $353 reversed $65 $-1 #
edge $-1 $354 -3.0557499796844532 $271 3.0557499796844532 $177 $355 forward 7 unknown #
vertex $-1 $179 $356 #
straight-curve $-1 55.45091097750786 24.952317642175299 0 0 0 -1 I I #
coedge $-1 $357 $266 $180 $274 reversed $174 $-1 #
edge $-1 $278 -55.45091097750786 $271 55.45091097750786 $273 $358 forward 7 unknown #
coedge $-1 $359 $181 $183 $280 reversed $277 $-1 #
coedge $-1 $181 $359 $357 $360 reversed $277 $-1 #
loop $-1 $-1 $181 $263 #
vertex $-1 $182 $361 #
straight-curve $-1 -55.45091097750786 24.952317642175299 0 0 0 1 I I #
edge $-1 $362 -3.0557499796844532 $185 3.0557499796844532 $275 $363 forward 7 unknown #
point $-1 55.45091097750786 24.952317642175302 2.9164011593545243 #
point $-1 -55.45091097750786 24.952317642175302 2.9164011593545243 #
plane-surface $-1 0 0 6.0011363387226986 0 0 1 1 0 0 forward_v I I I I #
coedge $-1 $294 $293 $286 $364 forward $188 $-1 #
coedge $-1 $286 $190 $192 $290 reversed $112 $-1 #
coedge $-1 $190 $285 $284 $364 reversed $112 $-1 #
coedge $-1 $198 $193 $190 $288 forward $199 $-1 #
edge $-1 $291 -20.395113479945707 $365 -17.135274299419777 $287 $366 forward 7 unknown #
coedge $-1 $192 $191 $294 $367 reversed $69 $-1 #
edge $-1 $368 0 $291 5.5459697743039831 $285 $369 forward 7 unknown #
vertex $-1 $194 $370 #
straight-curve $-1 -52.19107179698193 7.6897629783047439 6.0011363387226986 0 1 0 I I #
coedge $-1 $284 $195 $198 $298 reversed $188 $-1 #
coedge $-1 $195 $284 $289 $367 forward $188 $-1 #
vertex $-1 $196 $371 #
straight-curve $-1 -55.45091097750786 11.91823423041258 33.350403321980231 0 0 1 I I #
straight-curve $-1 -55.45091097750786 11.91823423041258 1.5143524956340428 -0.5877852410284794 0 -0.80901700255871778 I I #
edge $-1 $365 -18.840817682806396 $200 -11.91823423041258 $293 $372 forward 7 unknown #
point $-1 -55.45091097750786 11.91823423041258 6.0011363387226986 #
point $-1 -52.19107179698193 11.91823423041258 6.0011363387226986 #
edge $-1 $373 1 $373 0 $203 $-1 forward 7 unknown #
vertex $-1 $204 $374 #
ellipse-curve $-1 -52.721299096404564 13.302750920891338 2.958771223556488 -0.80901700255871778 0 0.5877852410284794 0.2938926205142397 0 0.40450850127935889 1 I I #
point $-1 -53.527098766730667 13.302750920891338 4.162252918457737 #
edge $-1 $375 1 $375 0 $207 $-1 forward 7 unknown #
vertex $-1 $208 $376 #
ellipse-curve $-1 -52.721299096404564 15.379525956609481 2.958771223556488 -0.80901700255871778 0 0.5877852410284794 0.2938926205142397 0 0.40450850127935889 1 I I #
point $-1 -53.527098766730667 15.379525956609481 4.162252918457737 #
edge $-1 $377 1 $377 0 $211 $-1 forward 7 unknown #
vertex $-1 $212 $378 #
ellipse-curve $-1 -52.721299096404564 17.456300992327623 2.958771223556488 -0.80901700255871778 0 0.5877852410284794 0.2938926205142397 0 0.40450850127935889 1 I I #
point $-1 -53.527098766730667 17.456300992327623 4.162252918457737 #
plane-surface $-1 55.45091097750786 0 0 -1 0 0 0 0 1 forward_v I I I I #
coedge $-1 $220 $218 $222 $318 reversed $141 $-1 #
edge $-1 $233 -6.0011363387226986 $320 6.0011363387226986 $232 $379 forward 7 unknown #
vertex $-1 $318 $380 #
straight-curve $-1 -55.45091097750786 -24.952317642175299 0 0 0 -1 I I #
edge $-1 $316 -24.952317642175299 $320 24.952317642175299 $314 $381 forward 7 unknown #
straight-curve $-1 0 -24.952317642175299 -6.0011363387226986 -1 0 0 I I #
vertex $-1 $225 $382 #
straight-curve $-1 0 24.952317642175299 -6.0011363387226986 1 0 0 I I #
point $-1 55.45091097750786 24.952317642175299 -6.0011363387226986 #
point $-1 55.45091097750786 -24.952317642175299 -6.0011363387226986 #
straight-curve $-1 -55.45091097750786 0 6.0011363387226986 0 -1 0 I I #
point $-1 -55.45091097750786 24.952317642175299 6.0011363387226986 #
point $-1 -55.45091097750786 -24.952317642175299 6.0011363387226986 #
straight-curve $-1 55.45091097750786 -24.952317642175299 0 0 0 -1 I I #
straight-curve $-1 55.45091097750786 24.952317642175299 0 0 0 -1 I I #
plane-surface $-1 55.45091097750786 0 0 -1 0 0 0 0 1 forward_v I I I I #
coedge $-1 $383 $333 $249 $338 forward $243 $-1 #
coedge $-1 $250 $245 $383 $384 forward $160 $-1 #
edge $-1 $259 -3.0557499796844532 $385 3.0557499796844532 $257 $386 forward 7 unknown #
coedge $-1 $330 $387 $246 $334 reversed $243 $-1 #
edge $-1 $341 -55.45091097750786 $336 55.45091097750786 $333 $388 forward 7 unknown #
coedge $-1 $257 $247 $387 $389 forward $258 $-1 #
vertex $-1 $248 $390 #
straight-curve $-1 55.45091097750786 -28.008067621859752 2.9164011593545243 0 1 0 I I #
edge $-1 $341 -1.4999999999999996 $339 1.4999999999999996 $249 $391 forward 7 unknown #
vertex $-1 $251 $392 #
straight-curve $-1 -55.45091097750786 -28.008067621859752 -0.083598840645474848 0 1 0 I I #
vertex $-1 $252 $393 #
straight-curve $-1 -55.45091097750786 -28.008067621859752 2.9164011593545243 0 -1 0 I I #
point $-1 -55.45091097750786 -24.952317642175299 -0.083598840645474848 #
straight-curve $-1 0 -24.952317642175299 -0.083598840645474848 -1 0 0 I I #
point $-1 55.45091097750786 -24.952317642175299 -0.083598840645474848 #
plane-surface $-1 -55.45091097750786 0 0 1 0 0 0 0 -1 forward_v I I I I #
coedge $-1 $394 $349 $269 $353 forward $264 $-1 #
coedge $-1 $266 $357 $394 $395 forward $174 $-1 #
coedge $-1 $347 $396 $267 $350 reversed $264 $-1 #
edge $-1 $351 -55.45091097750786 $362 55.45091097750786 $349 $397 forward 7 unknown #
vertex $-1 $268 $398 #
straight-curve $-1 55.45091097750786 28.008067621859755 2.9164011593545243 0 1 0 I I #
edge $-1 $351 -1.4999999999999996 $354 1.4999999999999996 $269 $399 forward 7 unknown #
vertex $-1 $270 $400 #
straight-curve $-1 55.45091097750786 28.008067621859755 -0.083598840645474848 0 -1 0 I I #
point $-1 55.45091097750786 24.952317642175302 -0.083598840645474848 #
coedge $-1 $348 $273 $276 $360 forward $174 $-1 #
straight-curve $-1 0 24.952317642175299 -0.083598840645474848 1 0 0 I I #
coedge $-1 $276 $275 $396 $401 forward $277 $-1 #
edge $-1 $278 -3.0557499796844532 $402 3.0557499796844532 $276 $403 forward 7 unknown #
point $-1 -55.45091097750786 24.952317642175302 -0.083598840645474848 #
vertex $-1 $350 $404 #
straight-curve $-1 -55.45091097750786 28.008067621859755 2.9164011593545243 0 -1 0 I I #
edge $-1 $365 27.349266983257532 $368 31.836050826346188 $284 $405 forward 7 unknown #
vertex $-1 $298 $406 #
straight-curve $-1 -72.586185276927637 18.840817682806396 6.0011363387226986 -1 0 0 I I #
edge $-1 $368 -11.151054704501652 $295 -4.2284712521078358 $294 $407 forward 7 unknown #
vertex $-1 $367 $408 #
straight-curve $-1 -55.45091097750786 18.840817682806396 1.5143524956340428 0.5877852410284794 0 0.80901700255871778 I I #
point $-1 -52.19107179698193 18.840817682806396 6.0011363387226986 #
point $-1 -55.45091097750786 11.91823423041258 1.5143524956340428 #
straight-curve $-1 -55.45091097750786 0 6.0011363387226986 0 -1 0 I I #
vertex $-1 $301 $409 #
point $-1 -52.427406475890329 13.302750920891338 3.3632797248358468 #
vertex $-1 $305 $410 #
point $-1 -52.427406475890329 15.379525956609481 3.3632797248358468 #
vertex $-1 $309 $411 #
point $-1 -52.427406475890329 17.456300992327623 3.3632797248358468 #
straight-curve $-1 -55.45091097750786 24.952317642175299 0 0 0 -1 I I #
point $-1 -55.45091097750786 -24.952317642175299 -6.0011363387226986 #
straight-curve $-1 -55.45091097750786 0 -6.0011363387226986 0 1 0 I I #
point $-1 -55.45091097750786 24.952317642175299 -6.0011363387226986 #
coedge $-1 $387 $330 $331 $384 reversed $243 $-1 #
edge $-1 $385 -55.45091097750786 $339 55.45091097750786 $383 $412 forward 7 unknown #
vertex $-1 $389 $413 #
straight-curve $-1 55.45091097750786 -28.008067621859752 -0.083598840645474848 0 -1 0 I I #
coedge $-1 $333 $383 $335 $389 reversed $243 $-1 #
straight-curve $-1 0 -31.063817601544205 2.9164011593545243 1 0 0 I I #
edge $-1 $336 -1.4999999999999996 $385 1.4999999999999996 $335 $414 forward 7 unknown #
point $-1 55.45091097750786 -31.063817601544205 2.9164011593545243 #
straight-curve $-1 -55.45091097750786 -31.063817601544205 1.4164011593545247 0 0 -1 I I #
point $-1 -55.45091097750786 -31.063817601544205 -0.083598840645474848 #
point $-1 -55.45091097750786 -31.063817601544205 2.9164011593545243 #
coedge $-1 $396 $347 $348 $395 reversed $264 $-1 #
edge $-1 $402 -55.45091097750786 $354 55.45091097750786 $394 $415 forward 7 unknown #
coedge $-1 $349 $394 $359 $401 reversed $264 $-1 #
straight-curve $-1 0 31.063817601544208 2.9164011593545243 -1 0 0 I I #
point $-1 55.45091097750786 31.063817601544208 2.9164011593545243 #
straight-curve $-1 55.45091097750786 31.063817601544208 1.4164011593545247 0 0 -1 I I #
point $-1 55.45091097750786 31.063817601544208 -0.083598840645474848 #
edge $-1 $362 -1.4999999999999996 $402 1.4999999999999996 $396 $416 forward 7 unknown #
vertex $-1 $395 $417 #
straight-curve $-1 -55.45091097750786 28.008067621859755 -0.083598840645474848 0 1 0 I I #
point $-1 -55.45091097750786 31.063817601544208 2.9164011593545243 #
straight-curve $-1 -55.45091097750786 18.840817682806396 33.350403321980231 0 0 -1 I I #
point $-1 -55.45091097750786 18.840817682806396 6.0011363387226986 #
straight-curve $-1 -55.45091097750786 7.6897629783047439 1.5143524956340459 0 -1 0 I I #
point $-1 -55.45091097750786 18.840817682806396 1.5143524956340428 #
point $-1 -52.316790595125212 13.302750920891338 2.6648786030422484 #
point $-1 -52.316790595125212 15.379525956609481 2.6648786030422484 #
point $-1 -52.316790595125212 17.456300992327623 2.6648786030422484 #
straight-curve $-1 0 -31.063817601544205 -0.083598840645474848 -1 0 0 I I #
point $-1 55.45091097750786 -31.063817601544205 -0.083598840645474848 #
straight-curve $-1 55.45091097750786 -31.063817601544205 1.4164011593545247 0 0 -1 I I #
straight-curve $-1 0 31.063817601544208 -0.083598840645474848 1 0 0 I I #
straight-curve $-1 -55.45091097750786 31.063817601544208 1.4164011593545247 0 0 -1 I I #
point $-1 -55.45091097750786 31.063817601544208 -0.083598840645474848 #
End-of-ACIS-data 