500 0 11 0           
7 Unknown 11 ACIS 5.0 NT 24 Thu Mar 25 15:17:40 1999 
-1 9.9999999999999995e-007 1e-010 
body $-1 $11 $-1 $12 #
body $-1 $13 $-1 $14 #
body $-1 $15 $-1 $16 #
body $-1 $17 $-1 $18 #
body $-1 $19 $-1 $20 #
body $-1 $21 $-1 $22 #
body $-1 $23 $-1 $24 #
body $-1 $25 $-1 $26 #
body $-1 $27 $-1 $28 #
body $-1 $29 $-1 $30 #
body $-1 $31 $-1 $32 #
lump $-1 $-1 $33 $0 #
transform $-1 1 0 0 0 1 0 0 0 1 49.278847621082186 26.928084667798785 13.357289863476497 1 rotate no_reflect no_shear #
lump $-1 $-1 $34 $1 #
transform $-1 1 0 0 0 1 0 0 0 1 49.278847621082186 26.928084667798785 13.357289863476497 1 rotate no_reflect no_shear #
lump $-1 $-1 $35 $2 #
transform $-1 1 0 0 0 1 0 0 0 1 49.278847621082186 26.928084667798785 13.357289863476497 1 rotate no_reflect no_shear #
lump $-1 $-1 $36 $3 #
transform $-1 1 0 0 0 1 0 0 0 1 49.278847621082186 26.928084667798785 13.357289863476497 1 rotate no_reflect no_shear #
lump $-1 $-1 $37 $4 #
transform $-1 1 0 0 0 1 0 0 0 1 49.278847621082186 26.928084667798785 13.357289863476497 1 rotate no_reflect no_shear #
lump $-1 $-1 $38 $5 #
transform $-1 1 0 0 0 1 0 0 0 1 49.278847621082186 26.928084667798785 13.357289863476497 1 rotate no_reflect no_shear #
lump $-1 $-1 $39 $6 #
transform $-1 1 0 0 0 1 0 0 0 1 49.278847621082186 26.928084667798785 13.357289863476497 1 rotate no_reflect no_shear #
lump $-1 $-1 $40 $7 #
transform $-1 1 0 0 0 1 0 0 0 1 49.278847621082186 26.928084667798785 13.357289863476497 1 rotate no_reflect no_shear #
lump $-1 $-1 $41 $8 #
transform $-1 1 0 0 0 1 0 0 0 1 49.278847621082186 26.928084667798785 13.357289863476497 1 rotate no_reflect no_shear #
lump $-1 $-1 $42 $9 #
transform $-1 1 0 0 0 1 0 0 0 1 49.278847621082186 26.928084667798785 13.357289863476497 1 rotate no_reflect no_shear #
lump $-1 $-1 $43 $10 #
transform $-1 1 0 0 0 1 0 0 0 1 49.278847621082186 26.928084667798785 13.357289863476497 1 rotate no_reflect no_shear #
shell $-1 $-1 $-1 $44 $-1 $11 #
shell $-1 $-1 $-1 $45 $-1 $13 #
shell $-1 $-1 $-1 $46 $-1 $15 #
shell $-1 $-1 $-1 $47 $-1 $17 #
shell $-1 $-1 $-1 $48 $-1 $19 #
shell $-1 $-1 $-1 $49 $-1 $21 #
shell $-1 $-1 $-1 $50 $-1 $23 #
shell $-1 $-1 $-1 $51 $-1 $25 #
shell $-1 $-1 $-1 $52 $-1 $27 #
shell $-1 $-1 $-1 $53 $-1 $29 #
shell $-1 $-1 $-1 $54 $-1 $31 #
face $-1 $55 $56 $33 $-1 $57 forward single #
face $-1 $58 $59 $34 $-1 $60 forward single #
face $-1 $61 $62 $35 $-1 $63 reversed single #
face $-1 $64 $65 $36 $-1 $66 reversed single #
face $-1 $67 $68 $37 $-1 $69 forward single #
face $-1 $70 $71 $38 $-1 $72 forward single #
face $-1 $73 $74 $39 $-1 $75 forward single #
face $-1 $76 $77 $40 $-1 $78 reversed single #
face $-1 $79 $80 $41 $-1 $81 forward single #
face $-1 $82 $83 $42 $-1 $84 forward single #
face $-1 $85 $86 $43 $-1 $87 forward single #
face $-1 $88 $89 $33 $-1 $90 reversed single #
loop $-1 $-1 $91 $44 #
plane-surface $-1 0 0 13.357289863476497 0 0 1 1 0 0 forward_v I I I I #
face $-1 $92 $93 $34 $-1 $94 reversed single #
loop $-1 $-1 $95 $45 #
plane-surface $-1 0 -21.933256426940872 1.2335070097737564 0 0 1 1 0 0 forward_v I I I I #
face $-1 $96 $97 $35 $-1 $98 reversed single #
loop $-1 $-1 $99 $46 #
plane-surface $-1 -26.556453532728526 11.633390574812484 0 0 1 0 0 0 1 forward_v I I I I #
face $-1 $100 $101 $36 $-1 $102 reversed single #
loop $-1 $-1 $103 $47 #
plane-surface $-1 -113.93851424751153 1.2324811010676768 81.94802750449152 0 1 0 -0.6560590369687036 0 0.75470957328743171 forward_v I I I I #
face $-1 $104 $105 $37 $-1 $106 forward single #
loop $-1 $107 $108 $48 #
cone-surface $-1 -45.619524696300608 2.590178289868696 10.084085837136985 0.6560590369687036 0 -0.75470957328743171 0.37735478664371586 0 0.3280295184843518 1 I I 0 1 0.5 forward I I I I #
face $-1 $109 $110 $38 $-1 $111 forward single #
loop $-1 $112 $113 $49 #
cone-surface $-1 -45.619524696300608 4.6267240730702248 10.084085837136985 0.6560590369687036 0 -0.75470957328743171 0.37735478664371586 0 0.3280295184843518 1 I I 0 1 0.5 forward I I I I #
face $-1 $114 $115 $39 $-1 $116 forward single #
loop $-1 $117 $118 $50 #
cone-surface $-1 -45.619524696300608 6.6632698562717536 10.084085837136985 0.6560590369687036 0 -0.75470957328743171 0.37735478664371586 0 0.3280295184843518 1 I I 0 1 0.5 forward I I I I #
face $-1 $119 $120 $40 $-1 $121 reversed single #
loop $-1 $-1 $122 $51 #
plane-surface $-1 39.556078127104918 8.0209670450727728 146.60769413092086 0 -1 0 -0.6560590369687036 0 -0.75470957328743171 forward_v I I I I #
face $-1 $123 $124 $41 $-1 $125 forward single #
loop $-1 $126 $127 $52 #
cone-surface $-1 45.619524696300616 2.590178289868696 10.084085837136993 -0.6560590369687036 0 -0.75470957328743171 0.37735478664371586 0 -0.3280295184843518 1 I I 0 1 0.5 forward I I I I #
face $-1 $128 $129 $42 $-1 $130 forward single #
loop $-1 $131 $132 $53 #
cone-surface $-1 45.619524696300616 4.6267240730702248 10.084085837136993 -0.6560590369687036 0 -0.75470957328743171 0.37735478664371586 0 -0.3280295184843518 1 I I 0 1 0.5 forward I I I I #
face $-1 $133 $134 $43 $-1 $135 forward single #
loop $-1 $136 $137 $54 #
cone-surface $-1 45.619524696300616 6.6632698562717536 10.084085837136993 -0.6560590369687036 0 -0.75470957328743171 0.37735478664371586 0 -0.3280295184843518 1 I I 0 1 0.5 forward I I I I #
face $-1 $138 $139 $33 $-1 $140 reversed single #
loop $-1 $-1 $141 $55 #
plane-surface $-1 0 0 -13.357289863476497 0 0 1 1 0 0 forward_v I I I I #
coedge $-1 $142 $143 $144 $145 forward $56 $-1 #
face $-1 $146 $147 $34 $-1 $148 reversed single #
loop $-1 $-1 $149 $58 #
plane-surface $-1 0 -21.933256426940872 -3.8154971954036228 0 0 1 1 0 0 forward_v I I I I #
coedge $-1 $150 $151 $152 $153 reversed $59 $-1 #
face $-1 $154 $155 $35 $-1 $156 reversed single #
loop $-1 $-1 $157 $61 #
plane-surface $-1 -30.54863917132786 19.280737621305633 0 1 0 0 0 0 -1 forward_v I I I I #
coedge $-1 $158 $159 $160 $161 forward $62 $-1 #
face $-1 $162 $163 $36 $-1 $164 reversed single #
loop $-1 $-1 $165 $64 #
plane-surface $-1 -49.278847621082193 4.6267240730702248 7.5655913840849109 -0.6560590369687036 0 0.75470957328743171 0.75470957328743171 0 0.6560590369687036 forward_v I I I I #
coedge $-1 $166 $167 $168 $169 reversed $65 $-1 #
face $-1 $-1 $170 $37 $-1 $171 forward single #
loop $-1 $172 $173 $67 #
cone-surface $-1 -45.127480418574081 2.590178289868696 9.5180536571714125 0.6560590369687036 0 -0.75470957328743171 0.18867739332185793 0 0.1640147592421759 1 I I -0.70710678118654746 0.70710678118654746 0.25 forward I I I I #
loop $-1 $-1 $174 $48 #
coedge $-1 $108 $108 $175 $176 reversed $68 $-1 #
face $-1 $-1 $177 $38 $-1 $178 forward single #
loop $-1 $179 $180 $70 #
cone-surface $-1 -45.127480418574081 4.6267240730702248 9.5180536571714125 0.6560590369687036 0 -0.75470957328743171 0.18867739332185793 0 0.1640147592421759 1 I I -0.70710678118654746 0.70710678118654746 0.25 forward I I I I #
loop $-1 $-1 $181 $49 #
coedge $-1 $113 $113 $182 $183 reversed $71 $-1 #
face $-1 $-1 $184 $39 $-1 $185 forward single #
loop $-1 $186 $187 $73 #
cone-surface $-1 -45.127480418574081 6.6632698562717536 9.5180536571714125 0.6560590369687036 0 -0.75470957328743171 0.18867739332185793 0 0.1640147592421759 1 I I -0.70710678118654746 0.70710678118654746 0.25 forward I I I I #
loop $-1 $-1 $188 $50 #
coedge $-1 $118 $118 $189 $190 reversed $74 $-1 #
face $-1 $191 $192 $40 $-1 $193 reversed single #
loop $-1 $-1 $194 $76 #
plane-surface $-1 -25.103588499324424 4.6267240730702248 72.225258010514253 0.6560590369687036 0 0.75470957328743171 0.75470957328743171 0 -0.6560590369687036 forward_v I I I I #
coedge $-1 $195 $196 $197 $198 reversed $77 $-1 #
face $-1 $-1 $199 $41 $-1 $200 forward single #
loop $-1 $201 $202 $79 #
cone-surface $-1 45.127480418574088 2.590178289868696 9.5180536571714196 -0.6560590369687036 0 -0.75470957328743171 0.18867739332185793 0 -0.1640147592421759 1 I I -0.70710678118654746 0.70710678118654746 0.25 forward I I I I #
loop $-1 $-1 $203 $52 #
coedge $-1 $127 $127 $204 $205 reversed $80 $-1 #
face $-1 $-1 $206 $42 $-1 $207 forward single #
loop $-1 $208 $209 $82 #
cone-surface $-1 45.127480418574088 4.6267240730702248 9.5180536571714196 -0.6560590369687036 0 -0.75470957328743171 0.18867739332185793 0 -0.1640147592421759 1 I I -0.70710678118654746 0.70710678118654746 0.25 forward I I I I #
loop $-1 $-1 $210 $53 #
coedge $-1 $132 $132 $211 $212 reversed $83 $-1 #
face $-1 $-1 $213 $43 $-1 $214 forward single #
loop $-1 $215 $216 $85 #
cone-surface $-1 45.127480418574088 6.6632698562717536 9.5180536571714196 -0.6560590369687036 0 -0.75470957328743171 0.18867739332185793 0 -0.1640147592421759 1 I I -0.70710678118654746 0.70710678118654746 0.25 forward I I I I #
loop $-1 $-1 $217 $54 #
coedge $-1 $137 $137 $218 $219 reversed $86 $-1 #
face $-1 $220 $221 $33 $-1 $222 reversed single #
loop $-1 $-1 $223 $88 #
plane-surface $-1 0 -26.928084667798785 0 0 1 0 0 0 1 forward_v I I I I #
coedge $-1 $224 $225 $226 $227 forward $89 $-1 #
coedge $-1 $228 $91 $229 $230 forward $56 $-1 #
coedge $-1 $91 $228 $231 $232 forward $56 $-1 #
coedge $-1 $233 $234 $91 $145 reversed $235 $-1 #
edge $-1 $236 -26.928084667798785 $237 26.928084667798785 $144 $238 forward 7 unknown #
face $-1 $239 $240 $34 $-1 $241 reversed single #
loop $-1 $-1 $242 $92 #
plane-surface $-1 0 -16.938428186082959 -1.2909950928149332 0 -1 0 0 0 -1 forward_v I I I I #
coedge $-1 $243 $244 $245 $246 reversed $93 $-1 #
coedge $-1 $247 $95 $248 $249 forward $59 $-1 #
coedge $-1 $95 $247 $250 $251 reversed $59 $-1 #
coedge $-1 $252 $253 $95 $153 forward $254 $-1 #
edge $-1 $255 5.9717999726125228 $256 15.961456454328349 $152 $257 forward 7 unknown #
face $-1 $258 $259 $35 $-1 $260 reversed single #
loop $-1 $-1 $261 $96 #
plane-surface $-1 -22.564267894129191 19.280737621305633 0 -1 0 0 0 0 1 forward_v I I I I #
coedge $-1 $262 $263 $264 $265 reversed $97 $-1 #
coedge $-1 $266 $99 $267 $268 reversed $62 $-1 #
coedge $-1 $99 $266 $269 $270 reversed $62 $-1 #
coedge $-1 $263 $262 $99 $161 reversed $97 $-1 #
edge $-1 $271 -13.357289863476497 $272 13.357289863476497 $160 $273 forward 7 unknown #
face $-1 $274 $275 $36 $-1 $276 reversed single #
loop $-1 $-1 $277 $100 #
plane-surface $-1 -113.93851424751153 8.0209670450727728 81.94802750449152 0 -1 0 0.6560590369687036 0 -0.75470957328743171 forward_v I I I I #
coedge $-1 $278 $279 $280 $281 reversed $101 $-1 #
coedge $-1 $167 $103 $282 $283 reversed $65 $-1 #
coedge $-1 $103 $166 $278 $284 reversed $65 $-1 #
coedge $-1 $280 $285 $103 $169 forward $286 $-1 #
edge $-1 $287 7.6904095026735817 $288 14.352996315268015 $168 $289 forward 7 unknown #
loop $-1 $-1 $175 $104 #
plane-surface $-1 -49.278847621082193 4.6267240730702248 7.5655913840849109 -0.6560590369687036 0 0.75470957328743171 0.75470957328743171 0 0.6560590369687036 forward_v I I I I #
loop $-1 $-1 $290 $67 #
coedge $-1 $173 $173 $174 $291 reversed $105 $-1 #
coedge $-1 $174 $174 $173 $291 forward $107 $-1 #
coedge $-1 $175 $175 $108 $176 forward $170 $-1 #
edge $-1 $292 0 $292 6.2831853071796004 $175 $293 forward 7 unknown #
loop $-1 $-1 $182 $109 #
plane-surface $-1 -49.278847621082193 4.6267240730702248 7.5655913840849109 -0.6560590369687036 0 0.75470957328743171 0.75470957328743171 0 0.6560590369687036 forward_v I I I I #
loop $-1 $-1 $294 $70 #
coedge $-1 $180 $180 $181 $295 reversed $110 $-1 #
coedge $-1 $181 $181 $180 $295 forward $112 $-1 #
coedge $-1 $182 $182 $113 $183 forward $177 $-1 #
edge $-1 $296 0 $296 6.2831853071796004 $182 $297 forward 7 unknown #
loop $-1 $-1 $189 $114 #
plane-surface $-1 -49.278847621082193 4.6267240730702248 7.5655913840849109 -0.6560590369687036 0 0.75470957328743171 0.75470957328743171 0 0.6560590369687036 forward_v I I I I #
loop $-1 $-1 $298 $73 #
coedge $-1 $187 $187 $188 $299 reversed $115 $-1 #
coedge $-1 $188 $188 $187 $299 forward $117 $-1 #
coedge $-1 $189 $189 $118 $190 forward $184 $-1 #
edge $-1 $300 0 $300 6.2831853071796004 $189 $301 forward 7 unknown #
face $-1 $302 $303 $40 $-1 $304 forward single #
loop $-1 $-1 $305 $119 #
plane-surface $-1 39.556078127104918 1.2324811010676768 146.60769413092086 0 1 0 0.6560590369687036 0 0.75470957328743171 forward_v I I I I #
coedge $-1 $306 $307 $308 $309 reversed $120 $-1 #
coedge $-1 $196 $122 $310 $311 reversed $77 $-1 #
coedge $-1 $122 $195 $306 $312 reversed $77 $-1 #
coedge $-1 $308 $313 $122 $198 forward $303 $-1 #
edge $-1 $314 -29.500808557529727 $315 -22.8382217449353 $197 $316 forward 7 unknown #
loop $-1 $-1 $204 $123 #
plane-surface $-1 -25.103588499324424 4.6267240730702248 72.225258010514253 0.6560590369687036 0 0.75470957328743171 0.75470957328743171 0 -0.6560590369687036 forward_v I I I I #
loop $-1 $-1 $317 $79 #
coedge $-1 $202 $202 $203 $318 reversed $124 $-1 #
coedge $-1 $203 $203 $202 $318 forward $126 $-1 #
coedge $-1 $204 $204 $127 $205 forward $199 $-1 #
edge $-1 $319 0 $319 6.2831853071796004 $204 $320 forward 7 unknown #
loop $-1 $-1 $211 $128 #
plane-surface $-1 -25.103588499324424 4.6267240730702248 72.225258010514253 0.6560590369687036 0 0.75470957328743171 0.75470957328743171 0 -0.6560590369687036 forward_v I I I I #
loop $-1 $-1 $321 $82 #
coedge $-1 $209 $209 $210 $322 reversed $129 $-1 #
coedge $-1 $210 $210 $209 $322 forward $131 $-1 #
coedge $-1 $211 $211 $132 $212 forward $206 $-1 #
edge $-1 $323 0 $323 6.2831853071796004 $211 $324 forward 7 unknown #
loop $-1 $-1 $218 $133 #
plane-surface $-1 -25.103588499324424 4.6267240730702248 72.225258010514253 0.6560590369687036 0 0.75470957328743171 0.75470957328743171 0 -0.6560590369687036 forward_v I I I I #
loop $-1 $-1 $325 $85 #
coedge $-1 $216 $216 $217 $326 reversed $134 $-1 #
coedge $-1 $217 $217 $216 $326 forward $136 $-1 #
coedge $-1 $218 $218 $137 $219 forward $213 $-1 #
edge $-1 $327 0 $327 6.2831853071796004 $218 $328 forward 7 unknown #
face $-1 $329 $330 $33 $-1 $331 reversed single #
loop $-1 $-1 $332 $138 #
plane-surface $-1 -49.278847621082186 0 0 1 0 0 0 0 -1 forward_v I I I I #
coedge $-1 $333 $231 $334 $335 forward $139 $-1 #
coedge $-1 $336 $141 $333 $337 forward $89 $-1 #
coedge $-1 $141 $336 $338 $339 forward $89 $-1 #
coedge $-1 $234 $233 $141 $227 reversed $235 $-1 #
edge $-1 $340 -26.928084667798785 $341 26.928084667798785 $226 $342 forward 7 unknown #
coedge $-1 $143 $142 $343 $344 forward $56 $-1 #
coedge $-1 $345 $346 $142 $230 reversed $330 $-1 #
edge $-1 $237 -49.278847621082186 $347 49.278847621082186 $229 $348 forward 7 unknown #
coedge $-1 $223 $349 $143 $232 reversed $139 $-1 #
edge $-1 $350 -49.278847621082186 $236 49.278847621082186 $231 $351 forward 7 unknown #
coedge $-1 $226 $144 $349 $352 forward $235 $-1 #
coedge $-1 $144 $226 $345 $353 reversed $235 $-1 #
loop $-1 $-1 $233 $329 #
vertex $-1 $145 $354 #
vertex $-1 $145 $355 #
straight-curve $-1 49.278847621082186 0 13.357289863476497 0 1 0 I I #
face $-1 $356 $357 $34 $-1 $358 reversed single #
loop $-1 $-1 $359 $146 #
plane-surface $-1 -49.278847621082186 0 0 1 0 0 0 0 -1 forward_v I I I I #
coedge $-1 $360 $248 $253 $361 reversed $147 $-1 #
coedge $-1 $362 $149 $363 $364 reversed $93 $-1 #
coedge $-1 $149 $362 $360 $365 forward $93 $-1 #
coedge $-1 $253 $252 $149 $246 forward $254 $-1 #
edge $-1 $366 -15.961456454328349 $367 -5.9717999726125228 $245 $368 forward 7 unknown #
coedge $-1 $151 $150 $359 $369 reversed $59 $-1 #
coedge $-1 $242 $370 $150 $249 reversed $147 $-1 #
edge $-1 $255 -49.278847621082186 $371 49.278847621082186 $248 $372 forward 7 unknown #
coedge $-1 $373 $374 $151 $251 forward $357 $-1 #
edge $-1 $256 -49.278847621082186 $375 49.278847621082186 $250 $376 forward 7 unknown #
coedge $-1 $245 $152 $374 $377 forward $254 $-1 #
coedge $-1 $152 $245 $242 $361 forward $254 $-1 #
loop $-1 $-1 $152 $356 #
vertex $-1 $153 $378 #
vertex $-1 $377 $379 #
straight-curve $-1 49.278847621082186 -10.966628213470436 1.2335070097737564 0 -1 0 I I #
face $-1 $380 $381 $35 $-1 $382 reversed single #
loop $-1 $-1 $383 $154 #
plane-surface $-1 0 26.928084667798785 0 0 -1 0 0 0 -1 forward_v I I I I #
coedge $-1 $384 $385 $266 $386 forward $155 $-1 #
coedge $-1 $160 $157 $387 $388 reversed $97 $-1 #
coedge $-1 $157 $160 $389 $390 reversed $97 $-1 #
coedge $-1 $391 $392 $157 $265 forward $259 $-1 #
edge $-1 $393 -13.357289863476497 $394 13.357289863476497 $264 $395 forward 7 unknown #
coedge $-1 $159 $158 $261 $386 reversed $62 $-1 #
coedge $-1 $387 $396 $158 $268 forward $381 $-1 #
edge $-1 $397 9.2860411277649284 $272 17.270412404963597 $267 $398 forward 7 unknown #
coedge $-1 $399 $389 $159 $270 forward $400 $-1 #
edge $-1 $271 -17.270412404963597 $401 -9.2860411277649284 $269 $402 forward 7 unknown #
vertex $-1 $270 $403 #
vertex $-1 $268 $404 #
straight-curve $-1 -30.54863917132786 11.633390574812484 0 0 0 -1 I I #
face $-1 $-1 $286 $36 $-1 $405 forward single #
loop $-1 $-1 $406 $162 #
plane-surface $-1 -49.278847621082186 0 0 1 0 0 0 0 -1 forward_v I I I I #
coedge $-1 $407 $408 $409 $410 reversed $163 $-1 #
coedge $-1 $411 $165 $167 $284 forward $101 $-1 #
coedge $-1 $165 $411 $407 $412 forward $101 $-1 #
coedge $-1 $409 $168 $165 $281 forward $286 $-1 #
edge $-1 $288 -1.0808809354674356 $413 5.7076050085376604 $280 $414 forward 7 unknown #
coedge $-1 $415 $416 $166 $283 forward $275 $-1 #
edge $-1 $417 -33.408422368160842 $287 -27.616723888769265 $282 $418 forward 7 unknown #
edge $-1 $288 -8.82801417712637 $417 -9.44141639987384e-015 $167 $419 forward 7 unknown #
coedge $-1 $168 $409 $415 $420 forward $286 $-1 #
loop $-1 $-1 $409 $274 #
vertex $-1 $283 $421 #
vertex $-1 $169 $422 #
straight-curve $-1 -56.969257123755767 1.2324811010676768 13.357289863476495 1 0 0 I I #
coedge $-1 $290 $290 $-1 $423 reversed $172 $-1 #
edge $-1 $424 0 $424 6.2831853071796004 $173 $425 forward 7 unknown #
vertex $-1 $176 $426 #
ellipse-curve $-1 -45.947554214784965 2.590178289868696 10.46144062378071 -0.6560590369687036 0 0.75470957328743171 0.37735478664371586 0 0.3280295184843518 1 I I #
coedge $-1 $294 $294 $-1 $427 reversed $179 $-1 #
edge $-1 $428 0 $428 6.2831853071796004 $180 $429 forward 7 unknown #
vertex $-1 $183 $430 #
ellipse-curve $-1 -45.947554214784965 4.6267240730702248 10.46144062378071 -0.6560590369687036 0 0.75470957328743171 0.37735478664371586 0 0.3280295184843518 1 I I #
coedge $-1 $298 $298 $-1 $431 reversed $186 $-1 #
edge $-1 $432 0 $432 6.2831853071796004 $187 $433 forward 7 unknown #
vertex $-1 $190 $434 #
ellipse-curve $-1 -45.947554214784965 6.6632698562717536 10.46144062378071 -0.6560590369687036 0 0.75470957328743171 0.37735478664371586 0 0.3280295184843518 1 I I #
face $-1 $-1 $435 $40 $-1 $436 reversed single #
loop $-1 $-1 $197 $191 #
plane-surface $-1 0 0 13.357289863476497 0 0 1 1 0 0 forward_v I I I I #
coedge $-1 $437 $438 $439 $440 reversed $192 $-1 #
coedge $-1 $441 $194 $196 $312 forward $120 $-1 #
coedge $-1 $194 $441 $437 $442 forward $120 $-1 #
coedge $-1 $439 $197 $194 $309 forward $303 $-1 #
edge $-1 $315 -5.7076050085376604 $443 1.0808809354674356 $308 $444 forward 7 unknown #
coedge $-1 $445 $446 $195 $311 forward $435 $-1 #
edge $-1 $447 -65.73825568137552 $314 -59.946557201983936 $310 $448 forward 7 unknown #
edge $-1 $315 89.729681065038022 $447 98.557695242164385 $196 $449 forward 7 unknown #
coedge $-1 $197 $439 $445 $450 forward $303 $-1 #
vertex $-1 $311 $451 #
vertex $-1 $198 $452 #
straight-curve $-1 19.778039063552459 8.0209670450727728 13.357289863476495 -1 0 0 I I #
coedge $-1 $317 $317 $-1 $453 reversed $201 $-1 #
edge $-1 $454 0 $454 6.2831853071796004 $202 $455 forward 7 unknown #
vertex $-1 $205 $456 #
ellipse-curve $-1 45.947554214784965 2.590178289868696 10.461440623780703 0.6560590369687036 0 0.75470957328743171 0.37735478664371586 0 -0.3280295184843518 1 I I #
coedge $-1 $321 $321 $-1 $457 reversed $208 $-1 #
edge $-1 $458 0 $458 6.2831853071796004 $209 $459 forward 7 unknown #
vertex $-1 $212 $460 #
ellipse-curve $-1 45.947554214784965 4.6267240730702248 10.461440623780703 0.6560590369687036 0 0.75470957328743171 0.37735478664371586 0 -0.3280295184843518 1 I I #
coedge $-1 $325 $325 $-1 $461 reversed $215 $-1 #
edge $-1 $462 0 $462 6.2831853071796004 $216 $463 forward 7 unknown #
vertex $-1 $219 $464 #
ellipse-curve $-1 45.947554214784965 6.6632698562717536 10.461440623780703 0.6560590369687036 0 0.75470957328743171 0.37735478664371586 0 -0.3280295184843518 1 I I #
face $-1 $-1 $235 $33 $-1 $465 reversed single #
loop $-1 $-1 $345 $220 #
plane-surface $-1 0 26.928084667798785 0 0 -1 0 0 0 -1 forward_v I I I I #
coedge $-1 $466 $343 $346 $467 forward $221 $-1 #
coedge $-1 $349 $223 $224 $337 reversed $139 $-1 #
coedge $-1 $343 $466 $223 $335 reversed $221 $-1 #
edge $-1 $350 -13.357289863476497 $468 13.357289863476497 $334 $469 forward 7 unknown #
coedge $-1 $225 $224 $466 $470 forward $89 $-1 #
edge $-1 $341 -49.278847621082186 $468 49.278847621082186 $333 $471 forward 7 unknown #
coedge $-1 $346 $345 $225 $339 reversed $330 $-1 #
edge $-1 $472 -49.278847621082186 $340 49.278847621082186 $338 $473 forward 7 unknown #
vertex $-1 $227 $474 #
vertex $-1 $352 $475 #
straight-curve $-1 49.278847621082186 0 -13.357289863476497 0 -1 0 I I #
coedge $-1 $332 $334 $228 $344 reversed $221 $-1 #
edge $-1 $347 -26.928084667798785 $350 26.928084667798785 $343 $476 forward 7 unknown #
coedge $-1 $338 $229 $234 $353 forward $330 $-1 #
coedge $-1 $229 $338 $332 $467 reversed $330 $-1 #
vertex $-1 $230 $477 #
straight-curve $-1 0 26.928084667798785 13.357289863476497 -1 0 0 I I #
coedge $-1 $231 $333 $233 $352 reversed $139 $-1 #
vertex $-1 $344 $478 #
straight-curve $-1 0 -26.928084667798785 13.357289863476497 1 0 0 I I #
edge $-1 $236 -13.357289863476497 $341 13.357289863476497 $233 $479 forward 7 unknown #
edge $-1 $237 -13.357289863476497 $340 13.357289863476497 $234 $480 forward 7 unknown #
point $-1 49.278847621082186 -26.928084667798785 13.357289863476497 #
point $-1 49.278847621082186 26.928084667798785 13.357289863476497 #
face $-1 $-1 $254 $34 $-1 $481 reversed single #
loop $-1 $-1 $250 $239 #
plane-surface $-1 0 -26.928084667798785 0 0 1 0 0 0 1 forward_v I I I I #
coedge $-1 $482 $483 $247 $369 forward $240 $-1 #
coedge $-1 $370 $242 $244 $365 reversed $147 $-1 #
edge $-1 $367 -3.1699996489961562 $255 1.879004556181223 $253 $484 forward 7 unknown #
coedge $-1 $244 $243 $485 $486 reversed $93 $-1 #
coedge $-1 $374 $373 $243 $364 forward $357 $-1 #
edge $-1 $487 -49.278847621082186 $366 49.278847621082186 $363 $488 forward 7 unknown #
edge $-1 $489 -49.278847621082186 $367 49.278847621082186 $360 $490 forward 7 unknown #
vertex $-1 $364 $491 #
vertex $-1 $246 $492 #
straight-curve $-1 49.278847621082186 -10.966628213470436 -3.8154971954036228 0 1 0 I I #
edge $-1 $375 -15.961456454328349 $371 -5.9717999726125228 $359 $493 forward 7 unknown #
coedge $-1 $248 $360 $482 $494 reversed $147 $-1 #
vertex $-1 $369 $495 #
straight-curve $-1 0 -16.938428186082959 1.2335070097737564 -1 0 0 I I #
coedge $-1 $363 $250 $483 $496 forward $357 $-1 #
coedge $-1 $250 $363 $252 $377 reversed $357 $-1 #
vertex $-1 $496 $497 #
straight-curve $-1 0 -26.928084667798785 1.2335070097737564 -1 0 0 I I #
edge $-1 $256 -1.2335070097737564 $366 3.8154971954036228 $252 $498 forward 7 unknown #
point $-1 49.278847621082186 -16.938428186082959 1.2335070097737564 #
point $-1 49.278847621082186 -26.928084667798785 1.2335070097737564 #
face $-1 $-1 $400 $35 $-1 $499 forward single #
loop $-1 $-1 $396 $258 #
plane-surface $-1 0 0 -13.357289863476497 0 0 1 1 0 0 forward_v I I I I #
coedge $-1 $392 $391 $500 $501 forward $259 $-1 #
coedge $-1 $500 $261 $396 $502 reversed $155 $-1 #
coedge $-1 $261 $500 $399 $503 reversed $155 $-1 #
edge $-1 $401 -13.357289863476497 $397 13.357289863476497 $261 $504 forward 7 unknown #
coedge $-1 $505 $267 $262 $388 forward $381 $-1 #
edge $-1 $272 1.9930217641596677 $393 17.287715857145965 $387 $506 forward 7 unknown #
coedge $-1 $269 $507 $263 $390 forward $400 $-1 #
edge $-1 $394 -17.287715857145965 $271 -1.9930217641596677 $389 $508 forward 7 unknown #
coedge $-1 $383 $264 $507 $509 reversed $259 $-1 #
coedge $-1 $264 $383 $505 $510 reversed $259 $-1 #
vertex $-1 $510 $511 #
vertex $-1 $265 $512 #
straight-curve $-1 -30.54863917132786 26.928084667798785 0 0 0 1 I I #
coedge $-1 $267 $505 $384 $502 forward $381 $-1 #
vertex $-1 $268 $513 #
straight-curve $-1 -13.278226766364263 11.633390574812484 -13.357289863476497 -1 0 0 I I #
coedge $-1 $507 $269 $385 $503 forward $400 $-1 #
loop $-1 $-1 $399 $380 #
vertex $-1 $270 $514 #
straight-curve $-1 -13.278226766364263 11.633390574812484 13.357289863476497 1 0 0 I I #
point $-1 -30.54863917132786 11.633390574812484 13.357289863476497 #
point $-1 -30.54863917132786 11.633390574812484 -13.357289863476497 #
plane-surface $-1 0 0 13.357289863476497 0 0 1 1 0 0 forward_v I I I I #
coedge $-1 $416 $415 $408 $515 forward $275 $-1 #
coedge $-1 $408 $277 $279 $412 reversed $163 $-1 #
coedge $-1 $277 $407 $406 $515 reversed $163 $-1 #
coedge $-1 $285 $280 $277 $410 forward $286 $-1 #
edge $-1 $413 -14.352996315268015 $516 -7.6904095026735817 $409 $517 forward 7 unknown #
coedge $-1 $279 $278 $416 $518 reversed $101 $-1 #
edge $-1 $519 9.44141639987384e-015 $413 8.82801417712637 $407 $520 forward 7 unknown #
vertex $-1 $281 $521 #
straight-curve $-1 -42.616260808487752 2.3133620365351124 13.357289863476499 0 1 0 I I #
coedge $-1 $406 $282 $285 $420 reversed $275 $-1 #
coedge $-1 $282 $406 $411 $518 forward $275 $-1 #
vertex $-1 $283 $522 #
straight-curve $-1 -49.278847621082186 1.2324811010676768 40.97401375224576 0 0 1 I I #
straight-curve $-1 -49.278847621082193 1.2324811010676768 7.5655913840849109 -0.75470957328743171 0 -0.6560590369687036 I I #
edge $-1 $516 -8.0209670450727728 $287 -1.2324811010676768 $415 $523 forward 7 unknown #
point $-1 -49.278847621082186 1.2324811010676768 13.357289863476497 #
point $-1 -42.616260808487752 1.2324811010676768 13.357289863476497 #
edge $-1 $524 1 $524 0 $290 $-1 forward 7 unknown #
vertex $-1 $291 $525 #
ellipse-curve $-1 -45.291495177816259 2.590178289868696 9.7067310504932696 -0.6560590369687036 0 0.75470957328743171 0.37735478664371586 0 0.3280295184843518 1 I I #
point $-1 -45.570199428141244 2.590178289868696 10.789470142265055 #
edge $-1 $526 1 $526 0 $294 $-1 forward 7 unknown #
vertex $-1 $295 $527 #
ellipse-curve $-1 -45.291495177816259 4.6267240730702248 9.7067310504932696 -0.6560590369687036 0 0.75470957328743171 0.37735478664371586 0 0.3280295184843518 1 I I #
point $-1 -45.570199428141244 4.6267240730702248 10.789470142265055 #
edge $-1 $528 1 $528 0 $298 $-1 forward 7 unknown #
vertex $-1 $299 $529 #
ellipse-curve $-1 -45.291495177816259 6.6632698562717536 9.7067310504932696 -0.6560590369687036 0 0.75470957328743171 0.37735478664371586 0 0.3280295184843518 1 I I #
point $-1 -45.570199428141244 6.6632698562717536 10.789470142265055 #
loop $-1 $-1 $310 $302 #
plane-surface $-1 49.278847621082186 0 0 -1 0 0 0 0 1 forward_v I I I I #
coedge $-1 $438 $305 $307 $442 reversed $192 $-1 #
coedge $-1 $305 $437 $530 $531 reversed $192 $-1 #
coedge $-1 $313 $308 $305 $440 forward $303 $-1 #
edge $-1 $443 22.8382217449353 $532 29.500808557529727 $439 $533 forward 7 unknown #
coedge $-1 $307 $306 $446 $534 reversed $120 $-1 #
edge $-1 $535 -98.557695242164385 $443 -89.729681065038022 $437 $536 forward 7 unknown #
vertex $-1 $309 $537 #
straight-curve $-1 42.616260808487745 2.3133620365351124 13.357289863476502 0 -1 0 I I #
coedge $-1 $530 $310 $313 $450 reversed $435 $-1 #
coedge $-1 $310 $530 $441 $534 forward $435 $-1 #
vertex $-1 $311 $538 #
straight-curve $-1 49.278847621082186 8.0209670450727728 73.303847065460431 0 0 1 I I #
straight-curve $-1 -25.103588499324424 8.0209670450727728 72.225258010514253 0.75470957328743171 0 -0.6560590369687036 I I #
edge $-1 $532 1.2324811010676768 $314 8.0209670450727728 $445 $539 forward 7 unknown #
point $-1 49.278847621082186 8.0209670450727728 13.357289863476497 #
point $-1 42.616260808487759 8.0209670450727728 13.357289863476495 #
edge $-1 $540 1 $540 0 $317 $-1 forward 7 unknown #
vertex $-1 $318 $541 #
ellipse-curve $-1 45.291495177816266 2.590178289868696 9.7067310504932767 0.6560590369687036 0 0.75470957328743171 0.37735478664371586 0 -0.3280295184843518 1 I I #
point $-1 46.324909001428686 2.590178289868696 10.133411105296357 #
edge $-1 $542 1 $542 0 $321 $-1 forward 7 unknown #
vertex $-1 $322 $543 #
ellipse-curve $-1 45.291495177816266 4.6267240730702248 9.7067310504932767 0.6560590369687036 0 0.75470957328743171 0.37735478664371586 0 -0.3280295184843518 1 I I #
point $-1 46.324909001428686 4.6267240730702248 10.133411105296357 #
edge $-1 $544 1 $544 0 $325 $-1 forward 7 unknown #
vertex $-1 $326 $545 #
ellipse-curve $-1 45.291495177816266 6.6632698562717536 9.7067310504932767 0.6560590369687036 0 0.75470957328743171 0.37735478664371586 0 -0.3280295184843518 1 I I #
point $-1 46.324909001428686 6.6632698562717536 10.133411105296357 #
plane-surface $-1 49.278847621082186 0 0 -1 0 0 0 0 1 forward_v I I I I #
coedge $-1 $334 $332 $336 $470 reversed $221 $-1 #
edge $-1 $347 -13.357289863476497 $472 13.357289863476497 $346 $546 forward 7 unknown #
vertex $-1 $470 $547 #
straight-curve $-1 -49.278847621082186 -26.928084667798785 0 0 0 -1 I I #
edge $-1 $468 -26.928084667798785 $472 26.928084667798785 $466 $548 forward 7 unknown #
straight-curve $-1 0 -26.928084667798785 -13.357289863476497 -1 0 0 I I #
vertex $-1 $339 $549 #
straight-curve $-1 0 26.928084667798785 -13.357289863476497 1 0 0 I I #
point $-1 49.278847621082186 26.928084667798785 -13.357289863476497 #
point $-1 49.278847621082186 -26.928084667798785 -13.357289863476497 #
straight-curve $-1 -49.278847621082186 0 13.357289863476497 0 -1 0 I I #
point $-1 -49.278847621082186 26.928084667798785 13.357289863476497 #
point $-1 -49.278847621082186 -26.928084667798785 13.357289863476497 #
straight-curve $-1 49.278847621082186 -26.928084667798785 0 0 0 -1 I I #
straight-curve $-1 49.278847621082186 26.928084667798785 0 0 0 -1 I I #
plane-surface $-1 49.278847621082186 0 0 -1 0 0 0 0 1 forward_v I I I I #
coedge $-1 $485 $359 $370 $494 forward $240 $-1 #
coedge $-1 $359 $485 $373 $496 reversed $240 $-1 #
straight-curve $-1 49.278847621082186 -16.938428186082959 -0.64549754640746659 0 0 1 I I #
coedge $-1 $483 $482 $362 $486 forward $240 $-1 #
edge $-1 $489 5.9717999726125228 $487 15.961456454328349 $485 $550 forward 7 unknown #
vertex $-1 $364 $551 #
straight-curve $-1 0 -26.928084667798785 -3.8154971954036228 1 0 0 I I #
vertex $-1 $486 $552 #
straight-curve $-1 0 -16.938428186082959 -3.8154971954036228 1 0 0 I I #
point $-1 49.278847621082186 -26.928084667798785 -3.8154971954036228 #
point $-1 49.278847621082186 -16.938428186082959 -3.8154971954036228 #
straight-curve $-1 -49.278847621082186 -10.966628213470436 1.2335070097737564 0 1 0 I I #
edge $-1 $371 -1.879004556181223 $489 3.1699996489961562 $482 $553 forward 7 unknown #
point $-1 -49.278847621082186 -16.938428186082959 1.2335070097737564 #
edge $-1 $375 -1.2335070097737564 $487 3.8154971954036228 $483 $554 forward 7 unknown #
point $-1 -49.278847621082186 -26.928084667798785 1.2335070097737564 #
straight-curve $-1 49.278847621082186 -26.928084667798785 0 0 0 -1 I I #
plane-surface $-1 0 0 13.357289863476497 0 0 1 1 0 0 forward_v I I I I #
coedge $-1 $385 $384 $383 $501 reversed $155 $-1 #
edge $-1 $555 -13.357289863476497 $556 13.357289863476497 $383 $557 forward 7 unknown #
edge $-1 $556 -17.287715857145965 $397 -1.9930217641596677 $396 $558 forward 7 unknown #
edge $-1 $401 1.9930217641596677 $555 17.287715857145965 $399 $559 forward 7 unknown #
straight-curve $-1 -22.564267894129191 11.633390574812484 0 0 0 -1 I I #
coedge $-1 $396 $387 $392 $510 forward $381 $-1 #
straight-curve $-1 -30.54863917132786 9.6403688106528165 -13.357289863476497 0 1 0 I I #
coedge $-1 $389 $399 $391 $509 forward $400 $-1 #
straight-curve $-1 -30.54863917132786 9.6403688106528165 13.357289863476497 0 -1 0 I I #
edge $-1 $555 22.564267894129191 $394 30.54863917132786 $391 $560 forward 7 unknown #
edge $-1 $393 -30.54863917132786 $556 -22.564267894129191 $392 $561 forward 7 unknown #
point $-1 -30.54863917132786 26.928084667798782 -13.357289863476497 #
point $-1 -30.54863917132786 26.928084667798782 13.357289863476497 #
point $-1 -22.564267894129191 11.633390574812484 -13.357289863476497 #
point $-1 -22.564267894129191 11.633390574812484 13.357289863476497 #
edge $-1 $516 27.616723888769265 $519 33.408422368160842 $406 $562 forward 7 unknown #
vertex $-1 $420 $563 #
straight-curve $-1 -56.969257123755767 8.0209670450727728 13.357289863476495 -1 0 0 I I #
edge $-1 $519 -5.7076050085376604 $417 1.0808809354674356 $416 $564 forward 7 unknown #
vertex $-1 $518 $565 #
straight-curve $-1 -49.278847621082193 8.0209670450727728 7.5655913840849109 0.75470957328743171 0 0.6560590369687036 I I #
point $-1 -42.616260808487752 8.0209670450727728 13.357289863476497 #
point $-1 -49.278847621082186 1.2324811010676768 7.5655913840849172 #
straight-curve $-1 -49.278847621082186 0 13.357289863476497 0 -1 0 I I #
vertex $-1 $423 $566 #
point $-1 -44.914140391172538 2.590178289868696 10.034760568977623 #
vertex $-1 $427 $567 #
point $-1 -44.914140391172538 4.6267240730702248 10.034760568977623 #
vertex $-1 $431 $568 #
point $-1 -44.914140391172538 6.6632698562717536 10.034760568977623 #
coedge $-1 $446 $445 $438 $531 forward $435 $-1 #
edge $-1 $532 59.946557201983936 $535 65.73825568137552 $530 $569 forward 7 unknown #
vertex $-1 $450 $570 #
straight-curve $-1 19.778039063552459 1.2324811010676768 13.357289863476495 1 0 0 I I #
edge $-1 $535 -1.0808809354674356 $447 5.7076050085376604 $446 $571 forward 7 unknown #
vertex $-1 $534 $572 #
straight-curve $-1 -25.103588499324424 1.2324811010676768 72.225258010514253 -0.75470957328743171 0 0.6560590369687036 I I #
point $-1 42.616260808487759 1.2324811010676768 13.357289863476495 #
point $-1 49.278847621082186 8.0209670450727728 7.5655913840849109 #
straight-curve $-1 49.278847621082186 0 13.357289863476497 0 1 0 I I #
vertex $-1 $453 $573 #
point $-1 45.66884996445998 2.590178289868696 9.3787015320089253 #
vertex $-1 $457 $574 #
point $-1 45.66884996445998 4.6267240730702248 9.3787015320089253 #
vertex $-1 $461 $575 #
point $-1 45.66884996445998 6.6632698562717536 9.3787015320089253 #
straight-curve $-1 -49.278847621082186 26.928084667798785 0 0 0 -1 I I #
point $-1 -49.278847621082186 -26.928084667798785 -13.357289863476497 #
straight-curve $-1 -49.278847621082186 0 -13.357289863476497 0 1 0 I I #
point $-1 -49.278847621082186 26.928084667798785 -13.357289863476497 #
straight-curve $-1 -49.278847621082186 -10.966628213470436 -3.8154971954036228 0 -1 0 I I #
point $-1 -49.278847621082186 -26.928084667798785 -3.8154971954036228 #
point $-1 -49.278847621082186 -16.938428186082959 -3.8154971954036228 #
straight-curve $-1 -49.278847621082186 -16.938428186082959 -0.64549754640746659 0 0 -1 I I #
straight-curve $-1 -49.278847621082186 -26.928084667798785 0 0 0 -1 I I #
vertex $-1 $509 $576 #
vertex $-1 $501 $577 #
straight-curve $-1 -22.564267894129191 26.928084667798785 0 0 0 -1 I I #
straight-curve $-1 -22.564267894129191 9.6403688106528165 -13.357289863476497 0 -1 0 I I #
straight-curve $-1 -22.564267894129191 9.6403688106528165 13.357289863476497 0 1 0 I I #
straight-curve $-1 0 26.928084667798785 13.357289863476497 -1 0 0 I I #
straight-curve $-1 0 26.928084667798785 -13.357289863476497 1 0 0 I I #
straight-curve $-1 -49.278847621082186 8.0209670450727728 40.97401375224576 0 0 -1 I I #
point $-1 -49.278847621082186 8.0209670450727728 13.357289863476497 #
straight-curve $-1 -49.278847621082186 2.3133620365351124 7.5655913840849234 0 -1 0 I I #
point $-1 -49.278847621082186 8.0209670450727728 7.5655913840849172 #
point $-1 -44.963465659331902 2.590178289868696 9.3293762638495554 #
point $-1 -44.963465659331902 4.6267240730702248 9.3293762638495554 #
point $-1 -44.963465659331902 6.6632698562717536 9.3293762638495554 #
straight-curve $-1 49.278847621082186 1.2324811010676768 73.303847065460431 0 0 -1 I I #
point $-1 49.278847621082186 1.2324811010676768 13.357289863476497 #
straight-curve $-1 49.278847621082193 2.3133620365351124 7.5655913840849109 0 1 0 I I #
point $-1 49.278847621082186 1.2324811010676768 7.5655913840849109 #
point $-1 44.963465659331909 2.590178289868696 9.3293762638495625 #
point $-1 44.963465659331909 4.6267240730702248 9.3293762638495625 #
point $-1 44.963465659331909 6.6632698562717536 9.3293762638495625 #
point $-1 -22.564267894129191 26.928084667798782 13.357289863476497 #
point $-1 -22.564267894129191 26.928084667798782 -13.357289863476497 #
End-of-ACIS-data 