500 0 9 0           
7 Unknown 11 ACIS 5.0 NT 24 Fri Mar 26 20:08:44 1999 
-1 9.9999999999999995e-007 1e-010 
body $-1 $9 $-1 $10 #
body $-1 $11 $-1 $12 #
body $-1 $13 $-1 $14 #
body $-1 $15 $-1 $16 #
body $-1 $17 $-1 $18 #
body $-1 $19 $-1 $20 #
body $-1 $21 $-1 $22 #
body $-1 $23 $-1 $24 #
body $-1 $25 $-1 $26 #
lump $-1 $-1 $27 $0 #
transform $-1 1 0 0 0 1 0 0 0 1 75.394146549882507 37.545672937925893 16.280295121208493 1 rotate no_reflect no_shear #
lump $-1 $-1 $28 $1 #
transform $-1 1 0 0 0 1 0 0 0 1 75.394146549882507 37.545672937925893 16.280295121208493 1 rotate no_reflect no_shear #
lump $-1 $-1 $29 $2 #
transform $-1 1 0 0 0 1 0 0 0 1 75.394146549882507 37.545672937925893 16.280295121208493 1 rotate no_reflect no_shear #
lump $-1 $-1 $30 $3 #
transform $-1 1 0 0 0 1 0 0 0 1 75.394146549882507 37.545672937925893 16.280295121208493 1 rotate no_reflect no_shear #
lump $-1 $-1 $31 $4 #
transform $-1 1 0 0 0 1 0 0 0 1 75.394146549882507 37.545672937925893 16.280295121208493 1 rotate no_reflect no_shear #
lump $-1 $-1 $32 $5 #
transform $-1 1 0 0 0 1 0 0 0 1 75.394146549882507 37.545672937925893 16.280295121208493 1 rotate no_reflect no_shear #
lump $-1 $-1 $33 $6 #
transform $-1 1 0 0 0 1 0 0 0 1 75.394146549882507 37.545672937925893 16.280295121208493 1 rotate no_reflect no_shear #
lump $-1 $-1 $34 $7 #
transform $-1 1 0 0 0 1 0 0 0 1 75.394146549882507 37.545672937925893 16.280295121208493 1 rotate no_reflect no_shear #
lump $-1 $-1 $35 $8 #
transform $-1 1 0 0 0 1 0 0 0 1 75.394146549882507 37.545672937925893 16.280295121208493 1 rotate no_reflect no_shear #
shell $-1 $-1 $-1 $36 $-1 $9 #
shell $-1 $-1 $-1 $37 $-1 $11 #
shell $-1 $-1 $-1 $38 $-1 $13 #
shell $-1 $-1 $-1 $39 $-1 $15 #
shell $-1 $-1 $-1 $40 $-1 $17 #
shell $-1 $-1 $-1 $41 $-1 $19 #
shell $-1 $-1 $-1 $42 $-1 $21 #
shell $-1 $-1 $-1 $43 $-1 $23 #
shell $-1 $-1 $-1 $44 $-1 $25 #
face $-1 $45 $46 $27 $-1 $47 reversed single #
face $-1 $48 $49 $28 $-1 $50 forward single #
face $-1 $51 $52 $29 $-1 $53 reversed single #
face $-1 $54 $55 $30 $-1 $56 forward single #
face $-1 $57 $58 $31 $-1 $59 forward single #
face $-1 $60 $61 $32 $-1 $62 forward single #
face $-1 $63 $64 $33 $-1 $65 reversed single #
face $-1 $66 $67 $34 $-1 $68 forward single #
face $-1 $69 $70 $35 $-1 $71 forward single #
face $-1 $72 $73 $27 $-1 $74 forward single #
loop $-1 $-1 $75 $36 #
plane-surface $-1 -75.394146549882507 0 0 1 0 0 0 0 -1 forward_v I I I I #
face $-1 $76 $77 $28 $-1 $78 reversed single #
loop $-1 $-1 $79 $37 #
plane-surface $-1 -75.394146549882507 0 0 1 0 0 0 0 -1 forward_v I I I I #
face $-1 $80 $81 $29 $-1 $82 reversed single #
loop $-1 $-1 $83 $38 #
plane-surface $-1 -8.9797964901234337 91.071499488246587 171.6954590659231 1 0 0 0 -0.70710678939079041 -0.70710677298230451 forward_v I I I I #
face $-1 $84 $85 $30 $-1 $86 forward single #
loop $-1 $87 $88 $39 #
cone-surface $-1 -1.6256939478153924 34.10156155891093 12.836183722196578 0 -0.70710678939079041 -0.70710677298230451 1.5 0 0 1 I I 0 1 1.5 forward I I I I #
face $-1 $89 $90 $31 $-1 $91 forward single #
loop $-1 $92 $93 $40 #
cone-surface $-1 9.4054598656466766 34.10156155891093 12.836183722196578 0 -0.70710678939079041 -0.70710677298230451 1.5 0 0 1 I I 0 1 1.5 forward I I I I #
face $-1 $94 $95 $32 $-1 $96 forward single #
loop $-1 $97 $98 $41 #
cone-surface $-1 20.436613679108746 34.10156155891093 12.836183722196578 0 -0.70710678939079041 -0.70710677298230451 1.5 0 0 1 I I 0 1 1.5 forward I I I I #
face $-1 $99 $100 $33 $-1 $101 reversed single #
loop $-1 $-1 $102 $42 #
plane-surface $-1 66.927850228877205 -37.5456729379259 11.96430286501888 0 -0.5877852598018023 0.80901698891910034 1 0 0 forward_v I I I I #
face $-1 $103 $104 $34 $-1 $105 forward single #
loop $-1 $106 $107 $43 #
cone-surface $-1 63.299437519874928 -33.586775081632936 12.76151004861844 0 0.5877852598018023 -0.80901698891910034 1 0 0 1 I I 0 1 1 forward I I I I #
face $-1 $108 $109 $35 $-1 $110 forward single #
loop $-1 $111 $112 $44 #
cone-surface $-1 70.556262937879481 -33.586775081632936 12.76151004861844 0 0.5877852598018023 -0.80901698891910034 1 0 0 1 I I 0 1 1 forward I I I I #
face $-1 $113 $114 $27 $-1 $115 reversed single #
loop $-1 $-1 $116 $45 #
plane-surface $-1 0 0 16.280295121208493 0 0 1 1 0 0 forward_v I I I I #
coedge $-1 $117 $118 $119 $120 reversed $46 $-1 #
face $-1 $121 $122 $28 $-1 $123 reversed single #
loop $-1 $-1 $124 $48 #
plane-surface $-1 0 0 -16.280295121208493 0 0 1 1 0 0 forward_v I I I I #
coedge $-1 $125 $126 $127 $128 forward $49 $-1 #
face $-1 $129 $130 $29 $-1 $131 reversed single #
loop $-1 $-1 $132 $51 #
plane-surface $-1 9.4054598656466766 -15.551926323245723 65.072035728638369 0 0.70710678939079041 0.70710677298230451 1 0 0 forward_v I I I I #
coedge $-1 $133 $134 $135 $136 reversed $52 $-1 #
face $-1 $-1 $137 $30 $-1 $138 forward single #
loop $-1 $139 $140 $54 #
cone-surface $-1 -1.6256939478153924 32.280049980832437 11.014672186386452 0 -0.70710678939079041 -0.70710677298230451 0.75 0 0 1 I I -0.70710678118654757 0.70710678118654757 0.75 forward I I I I #
loop $-1 $-1 $141 $39 #
coedge $-1 $88 $88 $142 $143 reversed $55 $-1 #
face $-1 $-1 $144 $31 $-1 $145 forward single #
loop $-1 $146 $147 $57 #
cone-surface $-1 9.4054598656466766 32.280049980832437 11.014672186386452 0 -0.70710678939079041 -0.70710677298230451 0.75 0 0 1 I I -0.70710678118654757 0.70710678118654757 0.75 forward I I I I #
loop $-1 $-1 $148 $40 #
coedge $-1 $93 $93 $149 $150 reversed $58 $-1 #
face $-1 $-1 $151 $32 $-1 $152 forward single #
loop $-1 $153 $154 $60 #
cone-surface $-1 20.436613679108746 32.280049980832437 11.014672186386452 0 -0.70710678939079041 -0.70710677298230451 0.75 0 0 1 I I -0.70710678118654757 0.70710678118654757 0.75 forward I I I I #
loop $-1 $-1 $155 $41 #
coedge $-1 $98 $98 $156 $157 reversed $61 $-1 #
face $-1 $158 $159 $33 $-1 $160 reversed single #
loop $-1 $-1 $161 $63 #
plane-surface $-1 58.461553907871902 -126.1768089726416 133.95459371284153 1 0 0 0 0.5877852598018023 -0.80901698891910034 forward_v I I I I #
coedge $-1 $162 $163 $164 $165 reversed $64 $-1 #
face $-1 $-1 $166 $34 $-1 $167 forward single #
loop $-1 $168 $169 $66 #
cone-surface $-1 63.299437519874928 -32.304211392618406 10.99621260966363 0 0.5877852598018023 -0.80901698891910034 0.5 0 0 1 I I -0.70710678118654746 0.70710678118654746 0.5 forward I I I I #
loop $-1 $-1 $170 $43 #
coedge $-1 $107 $107 $171 $172 reversed $67 $-1 #
face $-1 $-1 $173 $35 $-1 $174 forward single #
loop $-1 $175 $176 $69 #
cone-surface $-1 70.556262937879481 -32.304211392618406 10.99621260966363 0 0.5877852598018023 -0.80901698891910034 0.5 0 0 1 I I -0.70710678118654746 0.70710678118654746 0.5 forward I I I I #
loop $-1 $-1 $177 $44 #
coedge $-1 $112 $112 $178 $179 reversed $70 $-1 #
face $-1 $180 $181 $27 $-1 $182 reversed single #
loop $-1 $-1 $183 $72 #
plane-surface $-1 0 0 -16.280295121208493 0 0 1 1 0 0 forward_v I I I I #
coedge $-1 $184 $185 $186 $187 forward $73 $-1 #
coedge $-1 $188 $75 $189 $190 reversed $46 $-1 #
coedge $-1 $75 $188 $191 $192 forward $46 $-1 #
coedge $-1 $193 $194 $75 $120 forward $114 $-1 #
edge $-1 $195 -37.545672937925893 $196 37.545672937925893 $75 $197 forward 7 unknown #
face $-1 $198 $199 $28 $-1 $200 reversed single #
loop $-1 $-1 $201 $76 #
plane-surface $-1 -85.179151943654858 -9.7306990418546473 0 0 1 0 0 0 1 forward_v I I I I #
coedge $-1 $202 $203 $126 $204 forward $77 $-1 #
coedge $-1 $205 $79 $206 $207 reversed $49 $-1 #
coedge $-1 $79 $205 $124 $204 reversed $49 $-1 #
coedge $-1 $208 $209 $79 $128 reversed $210 $-1 #
edge $-1 $211 -16.280295121208493 $212 16.280295121208493 $127 $213 forward 7 unknown #
face $-1 $214 $215 $29 $-1 $216 forward single #
loop $-1 $-1 $217 $80 #
plane-surface $-1 27.790716221416787 91.071499488246587 171.6954590659231 -1 0 0 0 0.70710678939079041 0.70710677298230451 forward_v I I I I #
coedge $-1 $218 $219 $220 $221 reversed $81 $-1 #
coedge $-1 $134 $83 $222 $223 reversed $52 $-1 #
coedge $-1 $83 $133 $218 $224 reversed $52 $-1 #
coedge $-1 $220 $225 $83 $136 forward $215 $-1 #
edge $-1 $226 7.9900768061974006 $227 12.295936592156515 $135 $228 forward 7 unknown #
loop $-1 $-1 $142 $84 #
plane-surface $-1 9.4054598656466766 -15.551926323245723 65.072035728638369 0 0.70710678939079041 0.70710677298230451 1 0 0 forward_v I I I I #
loop $-1 $-1 $229 $54 #
coedge $-1 $140 $140 $141 $230 reversed $85 $-1 #
coedge $-1 $141 $141 $140 $230 forward $87 $-1 #
coedge $-1 $142 $142 $88 $143 forward $137 $-1 #
edge $-1 $231 -2.5121478075889599e-015 $231 6.2831853071795978 $142 $232 forward 7 unknown #
loop $-1 $-1 $149 $89 #
plane-surface $-1 9.4054598656466766 -15.551926323245723 65.072035728638369 0 0.70710678939079041 0.70710677298230451 1 0 0 forward_v I I I I #
loop $-1 $-1 $233 $57 #
coedge $-1 $147 $147 $148 $234 reversed $90 $-1 #
coedge $-1 $148 $148 $147 $234 forward $92 $-1 #
coedge $-1 $149 $149 $93 $150 forward $144 $-1 #
edge $-1 $235 -2.5121478075889599e-015 $235 6.2831853071795978 $149 $236 forward 7 unknown #
loop $-1 $-1 $156 $94 #
plane-surface $-1 9.4054598656466766 -15.551926323245723 65.072035728638369 0 0.70710678939079041 0.70710677298230451 1 0 0 forward_v I I I I #
loop $-1 $-1 $237 $60 #
coedge $-1 $154 $154 $155 $238 reversed $95 $-1 #
coedge $-1 $155 $155 $154 $238 forward $97 $-1 #
coedge $-1 $156 $156 $98 $157 forward $151 $-1 #
edge $-1 $239 -2.5121478075889599e-015 $239 6.2831853071795978 $156 $240 forward 7 unknown #
face $-1 $241 $242 $33 $-1 $243 forward single #
loop $-1 $-1 $244 $99 #
plane-surface $-1 0 -37.545672937925893 0 0 1 0 0 0 1 forward_v I I I I #
coedge $-1 $245 $246 $247 $248 reversed $100 $-1 #
coedge $-1 $249 $102 $250 $251 reversed $64 $-1 #
coedge $-1 $102 $249 $245 $252 forward $64 $-1 #
coedge $-1 $247 $253 $102 $165 forward $242 $-1 #
edge $-1 $254 -41.930221435443904 $255 -24.9976287934333 $164 $256 forward 7 unknown #
loop $-1 $-1 $171 $103 #
plane-surface $-1 66.927850228877205 -37.5456729379259 11.96430286501888 0 -0.5877852598018023 0.80901698891910034 1 0 0 forward_v I I I I #
loop $-1 $-1 $257 $66 #
coedge $-1 $169 $169 $170 $258 reversed $104 $-1 #
coedge $-1 $170 $170 $169 $258 forward $106 $-1 #
coedge $-1 $171 $171 $107 $172 forward $166 $-1 #
edge $-1 $259 3.648635851298499e-015 $259 6.283185307179604 $171 $260 forward 7 unknown #
loop $-1 $-1 $178 $108 #
plane-surface $-1 66.927850228877205 -37.5456729379259 11.96430286501888 0 -0.5877852598018023 0.80901698891910034 1 0 0 forward_v I I I I #
loop $-1 $-1 $261 $69 #
coedge $-1 $176 $176 $177 $262 reversed $109 $-1 #
coedge $-1 $177 $177 $176 $262 forward $111 $-1 #
coedge $-1 $178 $178 $112 $179 forward $173 $-1 #
edge $-1 $263 3.648635851298499e-015 $263 6.283185307179604 $178 $264 forward 7 unknown #
face $-1 $265 $266 $27 $-1 $267 reversed single #
loop $-1 $-1 $189 $113 #
plane-surface $-1 0 -37.545672937925893 0 0 1 0 0 0 1 forward_v I I I I #
coedge $-1 $194 $193 $268 $269 forward $114 $-1 #
coedge $-1 $270 $116 $271 $272 forward $73 $-1 #
coedge $-1 $116 $270 $273 $274 forward $73 $-1 #
coedge $-1 $275 $276 $116 $187 reversed $277 $-1 #
edge $-1 $278 -37.545672937925893 $279 37.545672937925893 $186 $280 forward 7 unknown #
coedge $-1 $118 $117 $270 $281 reversed $46 $-1 #
coedge $-1 $282 $273 $117 $190 forward $181 $-1 #
edge $-1 $283 -16.280295121208493 $195 16.280295121208493 $117 $284 forward 7 unknown #
coedge $-1 $271 $285 $118 $192 reversed $266 $-1 #
edge $-1 $286 -16.280295121208493 $196 16.280295121208493 $191 $287 forward 7 unknown #
coedge $-1 $183 $119 $285 $288 forward $114 $-1 #
coedge $-1 $119 $183 $282 $289 forward $114 $-1 #
vertex $-1 $120 $290 #
vertex $-1 $288 $291 #
straight-curve $-1 -75.394146549882507 0 -16.280295121208493 0 1 0 I I #
face $-1 $292 $210 $28 $-1 $293 reversed single #
loop $-1 $-1 $294 $121 #
plane-surface $-1 -94.96415733742721 -7.3578908686817783 0 1 0 0 0 0 -1 forward_v I I I I #
coedge $-1 $295 $296 $297 $298 forward $122 $-1 #
coedge $-1 $299 $124 $295 $300 forward $77 $-1 #
coedge $-1 $124 $299 $208 $301 forward $77 $-1 #
edge $-1 $211 4.9850826955089094 $302 9.7306990418546473 $124 $303 forward 7 unknown #
coedge $-1 $126 $125 $304 $305 forward $49 $-1 #
coedge $-1 $306 $307 $125 $207 forward $308 $-1 #
edge $-1 $309 -9.7306990418546473 $212 -4.9850826955089094 $206 $310 forward 7 unknown #
coedge $-1 $311 $127 $203 $301 reversed $210 $-1 #
coedge $-1 $127 $311 $306 $312 reversed $210 $-1 #
loop $-1 $-1 $127 $198 #
vertex $-1 $204 $313 #
vertex $-1 $312 $314 #
straight-curve $-1 -75.394146549882507 -4.9850826955089094 0 0 0 1 I I #
face $-1 $-1 $315 $29 $-1 $316 reversed single #
loop $-1 $-1 $135 $129 #
plane-surface $-1 0 0 16.280295121208493 0 0 1 1 0 0 forward_v I I I I #
coedge $-1 $317 $318 $319 $320 reversed $130 $-1 #
coedge $-1 $321 $132 $134 $224 forward $81 $-1 #
coedge $-1 $132 $321 $317 $322 forward $81 $-1 #
coedge $-1 $319 $135 $132 $221 forward $215 $-1 #
edge $-1 $227 -13.682526422946772 $323 23.087986288593449 $220 $324 forward 7 unknown #
coedge $-1 $325 $326 $133 $223 forward $315 $-1 #
edge $-1 $327 -73.873294297630082 $226 -69.567434411753055 $222 $328 forward 7 unknown #
edge $-1 $227 69.001940498218843 $327 75.091345875851786 $134 $329 forward 7 unknown #
coedge $-1 $135 $319 $325 $330 forward $215 $-1 #
vertex $-1 $223 $331 #
vertex $-1 $136 $332 #
straight-curve $-1 -8.9797964901234337 45.535749744123294 16.280295121208496 0 -1 0 I I #
coedge $-1 $229 $229 $-1 $333 reversed $139 $-1 #
edge $-1 $334 0 $334 6.2831853071796004 $140 $335 forward 7 unknown #
vertex $-1 $143 $336 #
ellipse-curve $-1 -1.6256939478153924 35.392743044946336 14.127365178269983 0 0.70710678939079041 0.70710677298230451 1.5 0 0 1 I I #
coedge $-1 $233 $233 $-1 $337 reversed $146 $-1 #
edge $-1 $338 0 $338 6.2831853071796004 $147 $339 forward 7 unknown #
vertex $-1 $150 $340 #
ellipse-curve $-1 9.4054598656466766 35.392743044946336 14.127365178269983 0 0.70710678939079041 0.70710677298230451 1.5 0 0 1 I I #
coedge $-1 $237 $237 $-1 $341 reversed $153 $-1 #
edge $-1 $342 0 $342 6.2831853071796004 $154 $343 forward 7 unknown #
vertex $-1 $157 $344 #
ellipse-curve $-1 20.436613679108746 35.392743044946336 14.127365178269983 0 0.70710678939079041 0.70710677298230451 1.5 0 0 1 I I #
face $-1 $-1 $345 $33 $-1 $346 reversed single #
loop $-1 $-1 $247 $158 #
plane-surface $-1 0 0 16.280295121208493 0 0 1 1 0 0 forward_v I I I I #
coedge $-1 $347 $348 $246 $349 forward $159 $-1 #
coedge $-1 $246 $161 $163 $252 reversed $100 $-1 #
coedge $-1 $161 $245 $244 $349 reversed $100 $-1 #
coedge $-1 $350 $164 $161 $248 forward $242 $-1 #
edge $-1 $255 -31.483185142753591 $351 -25.542731548394904 $247 $352 forward 7 unknown #
coedge $-1 $163 $162 $347 $353 reversed $64 $-1 #
coedge $-1 $354 $355 $162 $251 forward $345 $-1 #
edge $-1 $356 -11.671323199659788 $254 -4.3285186903311006 $250 $357 forward 7 unknown #
edge $-1 $358 8.8807605448725156e-015 $255 7.3428045093286958 $245 $359 forward 7 unknown #
coedge $-1 $164 $350 $354 $360 forward $242 $-1 #
vertex $-1 $251 $361 #
vertex $-1 $165 $362 #
straight-curve $-1 33.463925114438602 -31.605219343567203 16.280295121208493 -1 0 0 I I #
coedge $-1 $257 $257 $-1 $363 reversed $168 $-1 #
edge $-1 $364 0 $364 6.2831853071796004 $169 $365 forward 7 unknown #
vertex $-1 $172 $366 #
ellipse-curve $-1 63.299437519874928 -34.575446140746557 14.122298993113684 0 -0.5877852598018023 0.80901698891910034 1 0 0 1 I I #
coedge $-1 $261 $261 $-1 $367 reversed $175 $-1 #
edge $-1 $368 0 $368 6.2831853071796004 $176 $369 forward 7 unknown #
vertex $-1 $179 $370 #
ellipse-curve $-1 70.556262937879481 -34.575446140746557 14.122298993113684 0 -0.5877852598018023 0.80901698891910034 1 0 0 1 I I #
face $-1 $-1 $277 $27 $-1 $371 reversed single #
loop $-1 $-1 $372 $180 #
plane-surface $-1 0 37.545672937925893 0 0 -1 0 0 0 -1 forward_v I I I I #
coedge $-1 $276 $275 $183 $269 reversed $277 $-1 #
edge $-1 $373 -37.545672937925893 $374 37.545672937925893 $268 $375 forward 7 unknown #
coedge $-1 $185 $184 $188 $281 forward $73 $-1 #
coedge $-1 $372 $191 $184 $272 reversed $266 $-1 #
edge $-1 $279 -75.394146549882507 $286 75.394146549882507 $271 $376 forward 7 unknown #
coedge $-1 $189 $377 $185 $274 reversed $181 $-1 #
edge $-1 $283 -75.394146549882507 $278 75.394146549882507 $273 $378 forward 7 unknown #
coedge $-1 $268 $186 $377 $379 forward $277 $-1 #
coedge $-1 $186 $268 $372 $380 reversed $277 $-1 #
loop $-1 $-1 $275 $265 #
vertex $-1 $187 $381 #
vertex $-1 $187 $382 #
straight-curve $-1 75.394146549882507 0 16.280295121208493 0 1 0 I I #
edge $-1 $286 -37.545672937925893 $283 37.545672937925893 $188 $383 forward 7 unknown #
coedge $-1 $377 $189 $194 $289 reversed $181 $-1 #
vertex $-1 $281 $384 #
straight-curve $-1 -75.394146549882507 -37.545672937925893 0 0 0 -1 I I #
coedge $-1 $191 $372 $193 $288 reversed $266 $-1 #
vertex $-1 $272 $385 #
straight-curve $-1 -75.394146549882507 37.545672937925893 0 0 0 -1 I I #
edge $-1 $196 -75.394146549882507 $373 75.394146549882507 $285 $386 forward 7 unknown #
edge $-1 $374 -75.394146549882507 $195 75.394146549882507 $282 $387 forward 7 unknown #
point $-1 -75.394146549882507 -37.545672937925893 -16.280295121208493 #
point $-1 -75.394146549882507 37.545672937925893 -16.280295121208493 #
face $-1 $-1 $308 $28 $-1 $388 forward single #
plane-surface $-1 -85.179151943654858 -4.9850826955089094 0 0 -1 0 0 0 -1 forward_v I I I I #
coedge $-1 $389 $390 $311 $391 forward $199 $-1 #
coedge $-1 $304 $201 $202 $300 reversed $122 $-1 #
coedge $-1 $201 $304 $307 $392 reversed $122 $-1 #
coedge $-1 $390 $389 $201 $298 reversed $199 $-1 #
edge $-1 $393 -16.280295121208493 $394 16.280295121208493 $297 $395 forward 7 unknown #
coedge $-1 $203 $202 $389 $396 forward $77 $-1 #
edge $-1 $302 -9.7850053937723516 $394 9.7850053937723516 $295 $397 forward 7 unknown #
edge $-1 $398 -9.7850053937723516 $211 9.7850053937723516 $208 $399 forward 7 unknown #
vertex $-1 $300 $400 #
straight-curve $-1 -75.394146549882507 0 -16.280295121208493 0 -1 0 I I #
coedge $-1 $296 $295 $205 $305 reversed $122 $-1 #
edge $-1 $309 -16.280295121208493 $302 16.280295121208493 $304 $401 forward 7 unknown #
coedge $-1 $402 $206 $209 $312 forward $308 $-1 #
coedge $-1 $206 $402 $296 $392 forward $308 $-1 #
loop $-1 $-1 $206 $292 #
vertex $-1 $207 $403 #
straight-curve $-1 -75.394146549882507 0 16.280295121208493 0 1 0 I I #
coedge $-1 $209 $208 $294 $391 reversed $210 $-1 #
edge $-1 $212 -9.7850053937723516 $404 9.7850053937723516 $209 $405 forward 7 unknown #
point $-1 -75.394146549882507 -4.9850826955089094 -16.280295121208493 #
point $-1 -75.394146549882507 -4.9850826955089094 16.280295121208493 #
loop $-1 $-1 $222 $214 #
plane-surface $-1 0 37.545672937925893 0 0 -1 0 0 0 -1 forward_v I I I I #
coedge $-1 $318 $217 $219 $322 reversed $130 $-1 #
coedge $-1 $217 $317 $406 $407 reversed $130 $-1 #
coedge $-1 $225 $220 $217 $320 forward $215 $-1 #
edge $-1 $323 -12.295936592156515 $408 -7.9900768061974006 $319 $409 forward 7 unknown #
coedge $-1 $219 $218 $326 $410 reversed $81 $-1 #
edge $-1 $411 -75.091345875851786 $323 -69.001940498218843 $317 $412 forward 7 unknown #
vertex $-1 $221 $413 #
straight-curve $-1 4.7027299328233383 33.239813151966786 16.280295121208489 1 0 0 I I #
coedge $-1 $406 $222 $225 $330 reversed $315 $-1 #
coedge $-1 $222 $406 $321 $410 forward $315 $-1 #
vertex $-1 $223 $414 #
straight-curve $-1 -8.9797964901234337 37.545672937925893 85.847729532961552 0 0 1 I I #
straight-curve $-1 -8.9797964901234337 -15.551926323245723 65.072035728638369 0 0.70710677298230451 -0.70710678939079041 I I #
edge $-1 $408 -27.790716221416787 $226 8.9797964901234337 $325 $415 forward 7 unknown #
point $-1 -8.9797964901234337 37.545672937925893 16.280295121208493 #
point $-1 -8.9797964901234337 33.239813151966779 16.280295121208496 #
edge $-1 $416 1 $416 0 $229 $-1 forward 7 unknown #
vertex $-1 $230 $417 #
ellipse-curve $-1 -1.6256939478153924 32.810380072875532 11.545002266123181 0 0.70710678939079041 0.70710677298230451 1.5 0 0 1 I I #
point $-1 -0.12569394781539245 35.392743044946322 14.127365178269974 #
edge $-1 $418 1 $418 0 $233 $-1 forward 7 unknown #
vertex $-1 $234 $419 #
ellipse-curve $-1 9.4054598656466766 32.810380072875532 11.545002266123181 0 0.70710678939079041 0.70710677298230451 1.5 0 0 1 I I #
point $-1 10.905459865646677 35.392743044946322 14.127365178269974 #
edge $-1 $420 1 $420 0 $237 $-1 forward 7 unknown #
vertex $-1 $238 $421 #
ellipse-curve $-1 20.436613679108746 32.810380072875532 11.545002266123181 0 0.70710678939079041 0.70710677298230451 1.5 0 0 1 I I #
point $-1 21.936613679108746 35.392743044946322 14.127365178269974 #
loop $-1 $-1 $250 $241 #
plane-surface $-1 75.394146549882507 0 0 -1 0 0 0 0 1 forward_v I I I I #
coedge $-1 $422 $244 $249 $353 forward $159 $-1 #
coedge $-1 $244 $422 $350 $423 reversed $159 $-1 #
edge $-1 $351 50.697001735212268 $358 55.012993991401878 $244 $424 forward 7 unknown #
coedge $-1 $253 $247 $348 $423 forward $242 $-1 #
vertex $-1 $423 $425 #
straight-curve $-1 58.461553907871902 -63.088404486320798 16.280295121208496 0 -1 0 I I #
edge $-1 $358 24.9976287934333 $356 41.930221435443904 $347 $426 forward 7 unknown #
coedge $-1 $355 $250 $253 $360 reversed $345 $-1 #
coedge $-1 $250 $354 $422 $427 forward $345 $-1 #
vertex $-1 $353 $428 #
straight-curve $-1 75.394146549882507 -28.103374186235492 18.824534604161716 0 0.80901698891910034 0.5877852598018023 I I #
vertex $-1 $353 $429 #
straight-curve $-1 58.461553907871902 -37.5456729379259 11.96430286501888 0 0.80901698891910034 0.5877852598018023 I I #
edge $-1 $430 -37.545672937925893 $254 -31.605219343567207 $354 $431 forward 7 unknown #
point $-1 75.394146549882507 -31.605219343567207 16.280295121208493 #
point $-1 58.461553907871902 -31.605219343567207 16.280295121208493 #
edge $-1 $432 1 $432 0 $257 $-1 forward 7 unknown #
vertex $-1 $258 $433 #
ellipse-curve $-1 63.299437519874928 -32.598104022519308 11.40072110412318 0 -0.5877852598018023 0.80901698891910034 1 0 0 1 I I #
point $-1 64.299437519874928 -34.575446140746564 14.1222989931137 #
edge $-1 $434 1 $434 0 $261 $-1 forward 7 unknown #
vertex $-1 $262 $435 #
ellipse-curve $-1 70.556262937879481 -32.598104022519308 11.40072110412318 0 -0.5877852598018023 0.80901698891910034 1 0 0 1 I I #
point $-1 71.556262937879481 -34.575446140746564 14.1222989931137 #
plane-surface $-1 75.394146549882507 0 0 -1 0 0 0 0 1 forward_v I I I I #
coedge $-1 $285 $271 $276 $380 forward $266 $-1 #
vertex $-1 $269 $436 #
vertex $-1 $379 $437 #
straight-curve $-1 75.394146549882507 0 -16.280295121208493 0 -1 0 I I #
straight-curve $-1 0 37.545672937925893 16.280295121208493 -1 0 0 I I #
coedge $-1 $273 $282 $275 $379 reversed $181 $-1 #
straight-curve $-1 0 -37.545672937925893 16.280295121208493 1 0 0 I I #
edge $-1 $278 -16.280295121208493 $374 16.280295121208493 $275 $438 forward 7 unknown #
edge $-1 $279 -16.280295121208493 $373 16.280295121208493 $276 $439 forward 7 unknown #
point $-1 75.394146549882507 -37.545672937925893 16.280295121208493 #
point $-1 75.394146549882507 37.545672937925893 16.280295121208493 #
straight-curve $-1 -75.394146549882507 0 16.280295121208493 0 -1 0 I I #
point $-1 -75.394146549882507 -37.545672937925893 16.280295121208493 #
point $-1 -75.394146549882507 37.545672937925893 16.280295121208493 #
straight-curve $-1 0 37.545672937925893 -16.280295121208493 1 0 0 I I #
straight-curve $-1 0 -37.545672937925893 -16.280295121208493 -1 0 0 I I #
plane-surface $-1 0 0 16.280295121208493 0 0 1 1 0 0 forward_v I I I I #
coedge $-1 $297 $294 $299 $396 reversed $199 $-1 #
coedge $-1 $294 $297 $402 $440 reversed $199 $-1 #
edge $-1 $404 -16.280295121208493 $398 16.280295121208493 $311 $441 forward 7 unknown #
edge $-1 $393 -9.7850053937723516 $309 9.7850053937723516 $296 $442 forward 7 unknown #
vertex $-1 $440 $443 #
vertex $-1 $396 $444 #
straight-curve $-1 -94.96415733742721 -9.7306990418546473 0 0 0 -1 I I #
edge $-1 $394 -2.372808173172869 $398 2.372808173172869 $389 $445 forward 7 unknown #
straight-curve $-1 -85.179151943654858 -9.7306990418546473 -16.280295121208493 -1 0 0 I I #
vertex $-1 $301 $446 #
straight-curve $-1 -85.179151943654858 -4.9850826955089094 -16.280295121208493 1 0 0 I I #
point $-1 -75.394146549882507 -9.7306990418546473 -16.280295121208493 #
straight-curve $-1 -75.394146549882507 -9.7306990418546473 0 0 0 -1 I I #
coedge $-1 $307 $306 $390 $440 forward $308 $-1 #
point $-1 -75.394146549882507 -9.7306990418546473 16.280295121208493 #
vertex $-1 $312 $447 #
straight-curve $-1 -85.179151943654858 -4.9850826955089094 16.280295121208493 -1 0 0 I I #
coedge $-1 $326 $325 $318 $407 forward $315 $-1 #
edge $-1 $408 69.567434411753055 $411 73.873294297630082 $406 $448 forward 7 unknown #
vertex $-1 $330 $449 #
straight-curve $-1 27.790716221416787 45.535749744123294 16.280295121208496 0 1 0 I I #
edge $-1 $411 -23.087986288593449 $327 13.682526422946772 $326 $450 forward 7 unknown #
vertex $-1 $410 $451 #
straight-curve $-1 27.790716221416787 -15.551926323245723 65.072035728638369 0 -0.70710677298230451 0.70710678939079041 I I #
point $-1 27.790716221416787 33.239813151966779 16.280295121208496 #
point $-1 -8.9797964901234337 37.545672937925893 11.974435235331462 #
straight-curve $-1 0 37.545672937925893 16.280295121208493 -1 0 0 I I #
vertex $-1 $333 $452 #
point $-1 -0.12569394781539245 32.810380072875532 11.545002266123181 #
vertex $-1 $337 $453 #
point $-1 10.905459865646677 32.810380072875532 11.545002266123181 #
vertex $-1 $341 $454 #
point $-1 21.936613679108746 32.810380072875532 11.545002266123181 #
coedge $-1 $348 $347 $355 $427 reversed $159 $-1 #
edge $-1 $351 58.461553907871902 $430 75.394146549882507 $348 $455 forward 7 unknown #
straight-curve $-1 58.461553907871902 -37.545672937925893 66.977296856420764 0 0 -1 I I #
point $-1 58.461553907871902 -37.545672937925893 16.280295121208493 #
straight-curve $-1 33.463925114438602 -37.545672937925893 11.964302865018887 1 0 0 I I #
edge $-1 $430 -16.280295121208493 $356 -11.964302865018885 $355 $456 forward 7 unknown #
point $-1 75.394146549882507 -37.545672937925893 11.964302865018885 #
point $-1 58.461553907871902 -37.545672937925893 11.964302865018885 #
vertex $-1 $360 $457 #
straight-curve $-1 75.394146549882507 0 16.280295121208493 0 1 0 I I #
vertex $-1 $363 $458 #
point $-1 64.299437519874928 -32.598104022519308 11.40072110412318 #
vertex $-1 $367 $459 #
point $-1 71.556262937879481 -32.598104022519308 11.40072110412318 #
point $-1 75.394146549882507 37.545672937925893 -16.280295121208493 #
point $-1 75.394146549882507 -37.545672937925893 -16.280295121208493 #
straight-curve $-1 75.394146549882507 -37.545672937925893 0 0 0 -1 I I #
straight-curve $-1 75.394146549882507 37.545672937925893 0 0 0 -1 I I #
edge $-1 $404 -2.372808173172869 $393 2.372808173172869 $390 $460 forward 7 unknown #
straight-curve $-1 -94.96415733742721 -4.9850826955089094 0 0 0 -1 I I #
straight-curve $-1 -85.179151943654858 -9.7306990418546473 16.280295121208493 1 0 0 I I #
point $-1 -94.96415733742721 -9.7306990418546473 16.280295121208493 #
point $-1 -94.96415733742721 -9.7306990418546473 -16.280295121208493 #
straight-curve $-1 -94.96415733742721 -7.3578908686817783 -16.280295121208493 0 1 0 I I #
point $-1 -94.96415733742721 -4.9850826955089094 -16.280295121208493 #
point $-1 -94.96415733742721 -4.9850826955089094 16.280295121208493 #
straight-curve $-1 27.790716221416787 37.545672937925893 85.847729532961552 0 0 -1 I I #
point $-1 27.790716221416787 37.545672937925893 16.280295121208493 #
straight-curve $-1 4.7027299328233383 37.545672937925893 11.97443523533147 -1 0 0 I I #
point $-1 27.790716221416787 37.545672937925893 11.974435235331462 #
point $-1 -1.6256939478153924 31.749719888789343 10.484342106649724 #
point $-1 9.4054598656466766 31.749719888789343 10.484342106649724 #
point $-1 20.436613679108746 31.749719888789343 10.484342106649724 #
straight-curve $-1 0 -37.545672937925893 16.280295121208493 1 0 0 I I #
straight-curve $-1 75.394146549882507 -37.545672937925893 0 0 0 -1 I I #
point $-1 75.394146549882507 -37.545672937925893 16.280295121208493 #
point $-1 63.299437519874928 -32.010318762717503 10.591704115204079 #
point $-1 70.556262937879481 -32.010318762717503 10.591704115204079 #
straight-curve $-1 -94.96415733742721 -7.3578908686817783 16.280295121208493 0 -1 0 I I #
End-of-ACIS-data 