500 0 6 0           
7 Unknown 11 ACIS 5.0 NT 24 Thu Mar 25 15:58:01 1999 
-1 9.9999999999999995e-007 1e-010 
body $-1 $6 $-1 $7 #
body $-1 $8 $-1 $9 #
body $-1 $10 $-1 $11 #
body $-1 $12 $-1 $13 #
body $-1 $14 $-1 $15 #
body $-1 $16 $-1 $17 #
lump $-1 $-1 $18 $0 #
transform $-1 1 0 0 0 1 0 0 0 1 60.733054597613453 33.463510877625424 16.283219595511429 1 rotate no_reflect no_shear #
lump $-1 $-1 $19 $1 #
transform $-1 1 0 0 0 1 0 0 0 1 60.733054597613453 33.463510877625424 16.283219595511429 1 rotate no_reflect no_shear #
lump $-1 $-1 $20 $2 #
transform $-1 1 0 0 0 1 0 0 0 1 60.733054597613453 33.463510877625424 16.283219595511429 1 rotate no_reflect no_shear #
lump $-1 $-1 $21 $3 #
transform $-1 1 0 0 0 1 0 0 0 1 60.733054597613453 33.463510877625424 16.283219595511429 1 rotate no_reflect no_shear #
lump $-1 $-1 $22 $4 #
transform $-1 1 0 0 0 1 0 0 0 1 60.733054597613453 33.463510877625424 16.283219595511429 1 rotate no_reflect no_shear #
lump $-1 $-1 $23 $5 #
transform $-1 1 0 0 0 1 0 0 0 1 60.733054597613453 33.463510877625424 16.283219595511429 1 rotate no_reflect no_shear #
shell $-1 $-1 $-1 $24 $-1 $6 #
shell $-1 $-1 $-1 $25 $-1 $8 #
shell $-1 $-1 $-1 $26 $-1 $10 #
shell $-1 $-1 $-1 $27 $-1 $12 #
shell $-1 $-1 $-1 $28 $-1 $14 #
shell $-1 $-1 $-1 $29 $-1 $16 #
face $-1 $30 $31 $18 $-1 $32 forward single #
face $-1 $33 $34 $19 $-1 $35 forward single #
face $-1 $36 $37 $20 $-1 $38 reversed single #
face $-1 $39 $40 $21 $-1 $41 forward single #
face $-1 $42 $43 $22 $-1 $44 forward single #
face $-1 $45 $46 $23 $-1 $47 forward single #
face $-1 $48 $49 $18 $-1 $50 reversed single #
loop $-1 $-1 $51 $24 #
plane-surface $-1 0 0 16.283219595511429 0 0 1 1 0 0 forward_v I I I I #
face $-1 $52 $53 $19 $-1 $54 reversed single #
loop $-1 $-1 $55 $25 #
plane-surface $-1 0 -33.463510877625424 0 0 1 0 0 0 1 forward_v I I I I #
face $-1 $56 $57 $20 $-1 $58 reversed single #
loop $-1 $-1 $59 $26 #
plane-surface $-1 25.688523316174305 69.697691409174894 141.7791083410516 1 0 0 0 -0.69465837861970381 -0.71933979245794832 forward_v I I I I #
face $-1 $60 $61 $21 $-1 $62 forward single #
loop $-1 $63 $64 $27 #
cone-surface $-1 32.697429572462134 27.170379504244949 10.069196872717106 0 -0.69465837861970381 -0.71933979245794832 1.5 0 0 1 I I 0 1 1.5 forward I I I I #
face $-1 $65 $66 $22 $-1 $67 forward single #
loop $-1 $68 $69 $28 #
cone-surface $-1 43.210788956893872 27.170379504244949 10.069196872717106 0 -0.69465837861970381 -0.71933979245794832 1.5 0 0 1 I I 0 1 1.5 forward I I I I #
face $-1 $70 $71 $23 $-1 $72 forward single #
loop $-1 $73 $74 $29 #
cone-surface $-1 53.724148341325609 27.170379504244949 10.069196872717106 0 -0.69465837861970381 -0.71933979245794832 1.5 0 0 1 I I 0 1 1.5 forward I I I I #
face $-1 $75 $76 $18 $-1 $77 reversed single #
loop $-1 $-1 $78 $30 #
plane-surface $-1 0 0 -16.283219595511429 0 0 1 1 0 0 forward_v I I I I #
coedge $-1 $79 $80 $81 $82 forward $31 $-1 #
face $-1 $83 $84 $19 $-1 $85 reversed single #
loop $-1 $-1 $86 $33 #
plane-surface $-1 0 0 -16.283219595511429 0 0 1 1 0 0 forward_v I I I I #
coedge $-1 $87 $88 $89 $90 forward $34 $-1 #
face $-1 $91 $92 $20 $-1 $93 forward single #
loop $-1 $-1 $94 $36 #
plane-surface $-1 43.210788956893872 -14.679759061625319 54.403702561882582 0 0.69465837861970381 0.71933979245794832 1 0 0 forward_v I I I I #
coedge $-1 $95 $96 $97 $98 reversed $37 $-1 #
face $-1 $-1 $99 $21 $-1 $100 forward single #
loop $-1 $101 $102 $39 #
cone-surface $-1 32.697429572462134 24.690431920622572 7.5011360315678282 0 -0.69465837861970381 -0.71933979245794832 0.75 0 0 1 I I -0.70710678118654757 0.70710678118654757 0.75 forward I I I I #
loop $-1 $-1 $103 $27 #
coedge $-1 $64 $64 $104 $105 reversed $40 $-1 #
face $-1 $-1 $106 $22 $-1 $107 forward single #
loop $-1 $108 $109 $42 #
cone-surface $-1 43.210788956893872 24.690431920622572 7.5011360315678282 0 -0.69465837861970381 -0.71933979245794832 0.75 0 0 1 I I -0.70710678118654757 0.70710678118654757 0.75 forward I I I I #
loop $-1 $-1 $110 $28 #
coedge $-1 $69 $69 $111 $112 reversed $43 $-1 #
face $-1 $-1 $113 $23 $-1 $114 forward single #
loop $-1 $115 $116 $45 #
cone-surface $-1 53.724148341325609 24.690431920622572 7.5011360315678282 0 -0.69465837861970381 -0.71933979245794832 0.75 0 0 1 I I -0.70710678118654757 0.70710678118654757 0.75 forward I I I I #
loop $-1 $-1 $117 $29 #
coedge $-1 $74 $74 $118 $119 reversed $46 $-1 #
face $-1 $120 $121 $18 $-1 $122 reversed single #
loop $-1 $-1 $123 $48 #
plane-surface $-1 0 -33.463510877625424 0 0 1 0 0 0 1 forward_v I I I I #
coedge $-1 $124 $125 $126 $127 forward $49 $-1 #
coedge $-1 $128 $51 $129 $130 forward $31 $-1 #
coedge $-1 $51 $128 $131 $132 forward $31 $-1 #
coedge $-1 $133 $134 $51 $82 reversed $135 $-1 #
edge $-1 $136 -33.463510877625424 $137 33.463510877625424 $81 $138 forward 7 unknown #
face $-1 $139 $140 $19 $-1 $141 reversed single #
loop $-1 $-1 $142 $52 #
plane-surface $-1 -31.5990268592154 -53.351242045098729 0 0 1 0 0 0 1 forward_v I I I I #
coedge $-1 $143 $144 $88 $145 forward $53 $-1 #
coedge $-1 $146 $55 $147 $148 reversed $34 $-1 #
coedge $-1 $55 $146 $86 $145 reversed $34 $-1 #
coedge $-1 $149 $150 $55 $90 reversed $140 $-1 #
edge $-1 $151 -16.283219595511429 $152 16.283219595511429 $89 $153 forward 7 unknown #
face $-1 $154 $155 $20 $-1 $156 reversed single #
loop $-1 $-1 $97 $56 #
plane-surface $-1 0 0 16.283219595511429 0 0 1 1 0 0 forward_v I I I I #
coedge $-1 $157 $158 $159 $160 reversed $57 $-1 #
coedge $-1 $96 $59 $161 $162 reversed $37 $-1 #
coedge $-1 $59 $95 $157 $163 reversed $37 $-1 #
coedge $-1 $159 $164 $59 $98 forward $92 $-1 #
edge $-1 $165 1.3853348269620227 $166 10.053689974407831 $97 $167 forward 7 unknown #
loop $-1 $-1 $104 $60 #
plane-surface $-1 43.210788956893872 -14.679759061625319 54.403702561882582 0 0.69465837861970381 0.71933979245794832 1 0 0 forward_v I I I I #
loop $-1 $-1 $168 $39 #
coedge $-1 $102 $102 $103 $169 reversed $61 $-1 #
coedge $-1 $103 $103 $102 $169 forward $63 $-1 #
coedge $-1 $104 $104 $64 $105 forward $99 $-1 #
edge $-1 $170 -2.2340929996682203e-015 $170 6.2831853071795978 $104 $171 forward 7 unknown #
loop $-1 $-1 $111 $65 #
plane-surface $-1 43.210788956893872 -14.679759061625319 54.403702561882582 0 0.69465837861970381 0.71933979245794832 1 0 0 forward_v I I I I #
loop $-1 $-1 $172 $42 #
coedge $-1 $109 $109 $110 $173 reversed $66 $-1 #
coedge $-1 $110 $110 $109 $173 forward $68 $-1 #
coedge $-1 $111 $111 $69 $112 forward $106 $-1 #
edge $-1 $174 -2.2340929996682203e-015 $174 6.2831853071795978 $111 $175 forward 7 unknown #
loop $-1 $-1 $118 $70 #
plane-surface $-1 43.210788956893872 -14.679759061625319 54.403702561882582 0 0.69465837861970381 0.71933979245794832 1 0 0 forward_v I I I I #
loop $-1 $-1 $176 $45 #
coedge $-1 $116 $116 $117 $177 reversed $71 $-1 #
coedge $-1 $117 $117 $116 $177 forward $73 $-1 #
coedge $-1 $118 $118 $74 $119 forward $113 $-1 #
edge $-1 $178 -2.2340929996682203e-015 $178 6.2831853071795978 $118 $179 forward 7 unknown #
face $-1 $180 $181 $18 $-1 $182 reversed single #
loop $-1 $-1 $183 $75 #
plane-surface $-1 -60.733054597613453 0 0 1 0 0 0 0 -1 forward_v I I I I #
coedge $-1 $184 $131 $185 $186 forward $76 $-1 #
coedge $-1 $187 $78 $184 $188 forward $49 $-1 #
coedge $-1 $78 $187 $189 $190 forward $49 $-1 #
coedge $-1 $134 $133 $78 $127 reversed $135 $-1 #
edge $-1 $191 -33.463510877625424 $192 33.463510877625424 $126 $193 forward 7 unknown #
coedge $-1 $80 $79 $194 $195 forward $31 $-1 #
coedge $-1 $196 $197 $79 $130 reversed $181 $-1 #
edge $-1 $137 -60.733054597613453 $198 60.733054597613453 $129 $199 forward 7 unknown #
coedge $-1 $123 $200 $80 $132 reversed $76 $-1 #
edge $-1 $201 -60.733054597613453 $136 60.733054597613453 $131 $202 forward 7 unknown #
coedge $-1 $126 $81 $200 $203 forward $135 $-1 #
coedge $-1 $81 $126 $196 $204 reversed $135 $-1 #
loop $-1 $-1 $133 $180 #
vertex $-1 $82 $205 #
vertex $-1 $82 $206 #
straight-curve $-1 60.733054597613453 0 16.283219595511429 0 1 0 I I #
face $-1 $207 $208 $19 $-1 $209 reversed single #
loop $-1 $-1 $89 $83 #
plane-surface $-1 -35.031438311840205 -43.407376461362077 0 1 0 0 0 0 -1 forward_v I I I I #
coedge $-1 $210 $211 $212 $213 forward $84 $-1 #
coedge $-1 $214 $86 $215 $216 forward $53 $-1 #
coedge $-1 $86 $214 $149 $217 forward $53 $-1 #
edge $-1 $151 -35.031438311840205 $218 -28.166615406590594 $86 $219 forward 7 unknown #
coedge $-1 $88 $87 $220 $221 forward $34 $-1 #
coedge $-1 $222 $223 $87 $148 forward $224 $-1 #
edge $-1 $225 28.166615406590594 $152 35.031438311840205 $147 $226 forward 7 unknown #
coedge $-1 $212 $89 $144 $217 reversed $140 $-1 #
coedge $-1 $89 $212 $222 $227 reversed $140 $-1 #
vertex $-1 $145 $228 #
vertex $-1 $227 $229 #
straight-curve $-1 -35.031438311840205 -33.463510877625424 0 0 0 1 I I #
face $-1 $-1 $230 $20 $-1 $231 reversed single #
loop $-1 $-1 $232 $91 #
plane-surface $-1 60.733054597613453 0 0 -1 0 0 0 0 1 forward_v I I I I #
coedge $-1 $233 $94 $96 $163 forward $57 $-1 #
coedge $-1 $94 $233 $232 $234 reversed $57 $-1 #
coedge $-1 $235 $97 $94 $160 forward $92 $-1 #
edge $-1 $166 4.0831288377273687 $236 39.127660119166507 $159 $237 forward 7 unknown #
coedge $-1 $238 $239 $95 $162 forward $230 $-1 #
edge $-1 $240 -62.977268026991425 $165 -54.606334575014372 $161 $241 forward 7 unknown #
edge $-1 $166 54.876589903251585 $240 66.927021755250848 $96 $242 forward 7 unknown #
coedge $-1 $97 $235 $238 $243 forward $92 $-1 #
vertex $-1 $162 $244 #
vertex $-1 $98 $245 #
straight-curve $-1 25.688523316174305 34.848845704587447 16.283219595511426 0 -1 0 I I #
coedge $-1 $168 $168 $-1 $246 reversed $101 $-1 #
edge $-1 $247 0 $247 6.2831853071796004 $102 $248 forward 7 unknown #
vertex $-1 $105 $249 #
ellipse-curve $-1 32.697429572462134 29.129333303902527 12.097752869522902 0 0.69465837861970381 0.71933979245794832 1.5 0 0 1 I I #
coedge $-1 $172 $172 $-1 $250 reversed $108 $-1 #
edge $-1 $251 0 $251 6.2831853071796004 $109 $252 forward 7 unknown #
vertex $-1 $112 $253 #
ellipse-curve $-1 43.210788956893872 29.129333303902527 12.097752869522902 0 0.69465837861970381 0.71933979245794832 1.5 0 0 1 I I #
coedge $-1 $176 $176 $-1 $254 reversed $115 $-1 #
edge $-1 $255 0 $255 6.2831853071796004 $116 $256 forward 7 unknown #
vertex $-1 $119 $257 #
ellipse-curve $-1 53.724148341325609 29.129333303902527 12.097752869522902 0 0.69465837861970381 0.71933979245794832 1.5 0 0 1 I I #
face $-1 $-1 $135 $18 $-1 $258 reversed single #
loop $-1 $-1 $196 $120 #
plane-surface $-1 0 33.463510877625424 0 0 -1 0 0 0 -1 forward_v I I I I #
coedge $-1 $259 $194 $197 $260 forward $121 $-1 #
coedge $-1 $200 $123 $124 $188 reversed $76 $-1 #
coedge $-1 $194 $259 $123 $186 reversed $121 $-1 #
edge $-1 $201 -16.283219595511429 $261 16.283219595511429 $185 $262 forward 7 unknown #
coedge $-1 $125 $124 $259 $263 forward $49 $-1 #
edge $-1 $192 -60.733054597613453 $261 60.733054597613453 $184 $264 forward 7 unknown #
coedge $-1 $197 $196 $125 $190 reversed $181 $-1 #
edge $-1 $265 -60.733054597613453 $191 60.733054597613453 $189 $266 forward 7 unknown #
vertex $-1 $127 $267 #
vertex $-1 $203 $268 #
straight-curve $-1 60.733054597613453 0 -16.283219595511429 0 -1 0 I I #
coedge $-1 $183 $185 $128 $195 reversed $121 $-1 #
edge $-1 $198 -33.463510877625424 $201 33.463510877625424 $194 $269 forward 7 unknown #
coedge $-1 $189 $129 $134 $204 forward $181 $-1 #
coedge $-1 $129 $189 $183 $260 reversed $181 $-1 #
vertex $-1 $130 $270 #
straight-curve $-1 0 33.463510877625424 16.283219595511429 -1 0 0 I I #
coedge $-1 $131 $184 $133 $203 reversed $76 $-1 #
vertex $-1 $195 $271 #
straight-curve $-1 0 -33.463510877625424 16.283219595511429 1 0 0 I I #
edge $-1 $136 -16.283219595511429 $192 16.283219595511429 $133 $272 forward 7 unknown #
edge $-1 $137 -16.283219595511429 $191 16.283219595511429 $134 $273 forward 7 unknown #
point $-1 60.733054597613453 -33.463510877625424 16.283219595511429 #
point $-1 60.733054597613453 33.463510877625424 16.283219595511429 #
face $-1 $-1 $224 $19 $-1 $274 forward single #
loop $-1 $-1 $275 $139 #
plane-surface $-1 -28.166615406590594 -43.407376461362077 0 -1 0 0 0 0 1 forward_v I I I I #
coedge $-1 $276 $142 $214 $277 reversed $84 $-1 #
coedge $-1 $142 $276 $278 $279 reversed $84 $-1 #
coedge $-1 $150 $149 $142 $213 reversed $140 $-1 #
edge $-1 $280 -16.283219595511429 $281 16.283219595511429 $212 $282 forward 7 unknown #
coedge $-1 $144 $143 $210 $277 forward $53 $-1 #
coedge $-1 $220 $275 $143 $216 reversed $208 $-1 #
edge $-1 $218 -9.9438655837366525 $283 9.9438655837366525 $215 $284 forward 7 unknown #
edge $-1 $281 -9.9438655837366525 $151 9.9438655837366525 $149 $285 forward 7 unknown #
vertex $-1 $216 $286 #
straight-curve $-1 0 -33.463510877625424 -16.283219595511429 1 0 0 I I #
coedge $-1 $287 $215 $146 $221 reversed $208 $-1 #
edge $-1 $225 -16.283219595511429 $218 16.283219595511429 $220 $288 forward 7 unknown #
coedge $-1 $278 $147 $150 $227 forward $224 $-1 #
coedge $-1 $147 $278 $287 $289 forward $224 $-1 #
loop $-1 $-1 $147 $207 #
vertex $-1 $148 $290 #
straight-curve $-1 0 -33.463510877625424 16.283219595511429 -1 0 0 I I #
edge $-1 $152 -9.9438655837366525 $280 9.9438655837366525 $150 $291 forward 7 unknown #
point $-1 -35.031438311840205 -33.463510877625424 -16.283219595511429 #
point $-1 -35.031438311840205 -33.463510877625424 16.283219595511429 #
loop $-1 $-1 $161 $154 #
plane-surface $-1 0 33.463510877625424 0 0 -1 0 0 0 -1 forward_v I I I I #
coedge $-1 $292 $293 $158 $234 forward $155 $-1 #
coedge $-1 $158 $157 $239 $294 reversed $57 $-1 #
edge $-1 $236 30.700728578617468 $295 42.75116043061675 $232 $296 forward 7 unknown #
coedge $-1 $164 $159 $293 $297 forward $92 $-1 #
vertex $-1 $297 $298 #
straight-curve $-1 21.605394478446936 24.795155730179619 16.283219595511433 1 0 0 I I #
coedge $-1 $299 $161 $164 $243 reversed $230 $-1 #
coedge $-1 $161 $299 $233 $294 forward $230 $-1 #
vertex $-1 $162 $300 #
straight-curve $-1 25.688523316174305 33.463510877625424 70.889554170525798 0 0 1 I I #
straight-curve $-1 25.688523316174305 -14.679759061625319 54.403702561882582 0 0.71933979245794832 -0.69465837861970381 I I #
edge $-1 $301 -60.733054597613453 $165 -25.688523316174305 $238 $302 forward 7 unknown #
point $-1 25.688523316174305 33.463510877625424 16.283219595511429 #
point $-1 25.688523316174305 24.795155730179616 16.283219595511426 #
edge $-1 $303 1 $303 0 $168 $-1 forward 7 unknown #
vertex $-1 $169 $304 #
ellipse-curve $-1 32.697429572462134 25.211425704587349 8.04064087591129 0 0.69465837861970381 0.71933979245794832 1.5 0 0 1 I I #
point $-1 34.197429572462134 29.129333303902541 12.097752869522921 #
edge $-1 $305 1 $305 0 $172 $-1 forward 7 unknown #
vertex $-1 $173 $306 #
ellipse-curve $-1 43.210788956893872 25.211425704587349 8.04064087591129 0 0.69465837861970381 0.71933979245794832 1.5 0 0 1 I I #
point $-1 44.710788956893872 29.129333303902541 12.097752869522921 #
edge $-1 $307 1 $307 0 $176 $-1 forward 7 unknown #
vertex $-1 $177 $308 #
ellipse-curve $-1 53.724148341325609 25.211425704587349 8.04064087591129 0 0.69465837861970381 0.71933979245794832 1.5 0 0 1 I I #
point $-1 55.224148341325609 29.129333303902541 12.097752869522921 #
plane-surface $-1 60.733054597613453 0 0 -1 0 0 0 0 1 forward_v I I I I #
coedge $-1 $185 $183 $187 $263 reversed $121 $-1 #
edge $-1 $198 -16.283219595511429 $265 16.283219595511429 $197 $309 forward 7 unknown #
vertex $-1 $263 $310 #
straight-curve $-1 -60.733054597613453 -33.463510877625424 0 0 0 -1 I I #
edge $-1 $261 -33.463510877625424 $265 33.463510877625424 $259 $311 forward 7 unknown #
straight-curve $-1 0 -33.463510877625424 -16.283219595511429 -1 0 0 I I #
vertex $-1 $190 $312 #
straight-curve $-1 0 33.463510877625424 -16.283219595511429 1 0 0 I I #
point $-1 60.733054597613453 33.463510877625424 -16.283219595511429 #
point $-1 60.733054597613453 -33.463510877625424 -16.283219595511429 #
straight-curve $-1 -60.733054597613453 0 16.283219595511429 0 -1 0 I I #
point $-1 -60.733054597613453 33.463510877625424 16.283219595511429 #
point $-1 -60.733054597613453 -33.463510877625424 16.283219595511429 #
straight-curve $-1 60.733054597613453 -33.463510877625424 0 0 0 -1 I I #
straight-curve $-1 60.733054597613453 33.463510877625424 0 0 0 -1 I I #
plane-surface $-1 0 0 16.283219595511429 0 0 1 1 0 0 forward_v I I I I #
coedge $-1 $215 $287 $276 $313 forward $208 $-1 #
coedge $-1 $211 $210 $275 $313 reversed $84 $-1 #
edge $-1 $283 -3.4324114526248053 $281 3.4324114526248053 $210 $314 forward 7 unknown #
coedge $-1 $223 $222 $211 $279 forward $224 $-1 #
edge $-1 $280 -3.4324114526248053 $315 3.4324114526248053 $211 $316 forward 7 unknown #
vertex $-1 $227 $317 #
vertex $-1 $217 $318 #
straight-curve $-1 -35.031438311840205 -53.351242045098729 0 0 0 -1 I I #
vertex $-1 $313 $319 #
straight-curve $-1 -28.166615406590594 -43.407376461362077 -16.283219595511429 0 -1 0 I I #
straight-curve $-1 -35.031438311840205 -43.407376461362077 -16.283219595511429 0 1 0 I I #
point $-1 -28.166615406590594 -33.463510877625424 -16.283219595511429 #
coedge $-1 $275 $220 $223 $289 reversed $208 $-1 #
straight-curve $-1 -28.166615406590594 -33.463510877625424 0 0 0 -1 I I #
edge $-1 $315 -9.9438655837366525 $225 9.9438655837366525 $287 $320 forward 7 unknown #
point $-1 -28.166615406590594 -33.463510877625424 16.283219595511429 #
straight-curve $-1 -35.031438311840205 -43.407376461362077 16.283219595511429 0 -1 0 I I #
coedge $-1 $293 $232 $299 $321 reversed $155 $-1 #
coedge $-1 $232 $292 $235 $297 reversed $155 $-1 #
edge $-1 $295 -39.127660119166507 $240 -4.0831288377273687 $239 $322 forward 7 unknown #
vertex $-1 $234 $323 #
straight-curve $-1 60.733054597613453 2.7109000061291244 37.609737932377442 0 0.71933979245794832 -0.69465837861970381 I I #
edge $-1 $236 24.795155730179616 $301 33.463510877625424 $293 $324 forward 7 unknown #
point $-1 60.733054597613439 24.795155730179616 16.283219595511426 #
coedge $-1 $239 $238 $292 $321 forward $230 $-1 #
point $-1 25.688523316174305 33.463510877625431 7.9122861435343737 #
vertex $-1 $297 $325 #
straight-curve $-1 0 33.463510877625424 16.283219595511429 -1 0 0 I I #
vertex $-1 $246 $326 #
point $-1 34.197429572462134 25.211425704587349 8.04064087591129 #
vertex $-1 $250 $327 #
point $-1 44.710788956893872 25.211425704587349 8.04064087591129 #
vertex $-1 $254 $328 #
point $-1 55.224148341325609 25.211425704587349 8.04064087591129 #
straight-curve $-1 -60.733054597613453 33.463510877625424 0 0 0 -1 I I #
point $-1 -60.733054597613453 -33.463510877625424 -16.283219595511429 #
straight-curve $-1 -60.733054597613453 0 -16.283219595511429 0 1 0 I I #
point $-1 -60.733054597613453 33.463510877625424 -16.283219595511429 #
edge $-1 $315 -16.283219595511429 $283 16.283219595511429 $275 $329 forward 7 unknown #
straight-curve $-1 -31.5990268592154 -53.351242045098729 -16.283219595511429 -1 0 0 I I #
vertex $-1 $289 $330 #
straight-curve $-1 -31.5990268592154 -53.351242045098729 16.283219595511429 1 0 0 I I #
point $-1 -35.031438311840205 -53.351242045098729 16.283219595511429 #
point $-1 -35.031438311840205 -53.351242045098729 -16.283219595511429 #
point $-1 -28.166615406590594 -53.351242045098729 -16.283219595511429 #
straight-curve $-1 -28.166615406590594 -43.407376461362077 16.283219595511429 0 1 0 I I #
edge $-1 $301 -16.283219595511429 $295 -7.9122861435343737 $292 $331 forward 7 unknown #
straight-curve $-1 21.605394478446936 33.463510877625424 7.9122861435343879 -1 0 0 I I #
point $-1 60.733054597613439 33.463510877625431 7.9122861435343737 #
straight-curve $-1 60.733054597613453 0 16.283219595511429 0 1 0 I I #
point $-1 60.733054597613453 33.463510877625424 16.283219595511429 #
point $-1 32.697429572462134 24.169438136657796 6.9616311872243672 #
point $-1 43.210788956893872 24.169438136657796 6.9616311872243672 #
point $-1 53.724148341325609 24.169438136657796 6.9616311872243672 #
straight-curve $-1 -28.166615406590594 -53.351242045098729 0 0 0 -1 I I #
point $-1 -28.166615406590594 -53.351242045098729 16.283219595511429 #
straight-curve $-1 60.733054597613453 33.463510877625424 0 0 0 -1 I I #
End-of-ACIS-data 