500 0 9 0           
7 Unknown 11 ACIS 5.0 NT 24 Fri Mar 26 00:15:37 1999 
-1 9.9999999999999995e-007 1e-010 
body $-1 $9 $-1 $10 #
body $-1 $11 $-1 $12 #
body $-1 $13 $-1 $14 #
body $-1 $15 $-1 $16 #
body $-1 $17 $-1 $18 #
body $-1 $19 $-1 $20 #
body $-1 $21 $-1 $22 #
body $-1 $23 $-1 $24 #
body $-1 $25 $-1 $26 #
lump $-1 $-1 $27 $0 #
transform $-1 1 0 0 0 1 0 0 0 1 62.428662984099859 31.500496999426616 11.789301579426509 1 rotate no_reflect no_shear #
lump $-1 $-1 $28 $1 #
transform $-1 1 0 0 0 1 0 0 0 1 62.428662984099859 31.500496999426616 11.789301579426509 1 rotate no_reflect no_shear #
lump $-1 $-1 $29 $2 #
transform $-1 1 0 0 0 1 0 0 0 1 62.428662984099859 31.500496999426616 11.789301579426509 1 rotate no_reflect no_shear #
lump $-1 $-1 $30 $3 #
transform $-1 1 0 0 0 1 0 0 0 1 62.428662984099859 31.500496999426616 11.789301579426509 1 rotate no_reflect no_shear #
lump $-1 $-1 $31 $4 #
transform $-1 1 0 0 0 1 0 0 0 1 62.428662984099859 31.500496999426616 11.789301579426509 1 rotate no_reflect no_shear #
lump $-1 $-1 $32 $5 #
transform $-1 1 0 0 0 1 0 0 0 1 62.428662984099859 31.500496999426616 11.789301579426509 1 rotate no_reflect no_shear #
lump $-1 $-1 $33 $6 #
transform $-1 1 0 0 0 1 0 0 0 1 62.428662984099859 31.500496999426616 11.789301579426509 1 rotate no_reflect no_shear #
lump $-1 $-1 $34 $7 #
transform $-1 1 0 0 0 1 0 0 0 1 62.428662984099859 31.500496999426616 11.789301579426509 1 rotate no_reflect no_shear #
lump $-1 $-1 $35 $8 #
transform $-1 1 0 0 0 1 0 0 0 1 62.428662984099859 31.500496999426616 11.789301579426509 1 rotate no_reflect no_shear #
shell $-1 $-1 $-1 $36 $-1 $9 #
shell $-1 $-1 $-1 $37 $-1 $11 #
shell $-1 $-1 $-1 $38 $-1 $13 #
shell $-1 $-1 $-1 $39 $-1 $15 #
shell $-1 $-1 $-1 $40 $-1 $17 #
shell $-1 $-1 $-1 $41 $-1 $19 #
shell $-1 $-1 $-1 $42 $-1 $21 #
shell $-1 $-1 $-1 $43 $-1 $23 #
shell $-1 $-1 $-1 $44 $-1 $25 #
face $-1 $45 $46 $27 $-1 $47 forward single #
face $-1 $48 $49 $28 $-1 $50 reversed single #
face $-1 $51 $52 $29 $-1 $53 forward single #
face $-1 $54 $55 $30 $-1 $56 reversed single #
face $-1 $57 $58 $31 $-1 $59 forward single #
face $-1 $60 $61 $32 $-1 $62 reversed single #
face $-1 $63 $64 $33 $-1 $65 forward single #
face $-1 $66 $67 $34 $-1 $68 reversed single #
face $-1 $69 $70 $35 $-1 $71 forward single #
face $-1 $72 $73 $27 $-1 $74 reversed single #
loop $-1 $-1 $75 $36 #
plane-surface $-1 0 0 11.789301579426509 0 0 1 1 0 0 forward_v I I I I #
face $-1 $76 $77 $28 $-1 $78 reversed single #
loop $-1 $-1 $79 $37 #
plane-surface $-1 -61.581454094217001 -26.458689762001974 0 1 0 0 0 0 -1 forward_v I I I I #
face $-1 $80 $81 $29 $-1 $82 reversed single #
loop $-1 $-1 $83 $38 #
plane-surface $-1 0 24.374123784527775 -7.588299256916061 0 0 1 1 0 0 forward_v I I I I #
face $-1 $84 $85 $30 $-1 $86 reversed single #
loop $-1 $-1 $87 $39 #
plane-surface $-1 68.591041091583477 -4.2118747075714733 177.38687332131033 0 -1 0 -0.73135370988377701 0 -0.68199835119979291 forward_v I I I I #
face $-1 $88 $89 $31 $-1 $90 forward single #
loop $-1 $91 $92 $40 #
cone-surface $-1 54.677856065967987 -9.0363945893673474 3.8527621542379271 -0.73135370988377701 0 -0.68199835119979291 1.3639967023995858 0 -1.462707419767554 1 I I 0 1 2 forward I I I I #
face $-1 $93 $94 $32 $-1 $95 reversed single #
loop $-1 $-1 $96 $41 #
plane-surface $-1 68.591041091583477 15.12044183953166 177.38687332131033 0 -1 0 -0.73135370988377701 0 -0.68199835119979291 forward_v I I I I #
face $-1 $97 $98 $33 $-1 $99 forward single #
loop $-1 $100 $101 $42 #
cone-surface $-1 54.677856065967987 10.295921957735786 3.8527621542379271 -0.73135370988377701 0 -0.68199835119979291 1.3639967023995858 0 -1.462707419767554 1 I I 0 1 2 forward I I I I #
face $-1 $102 $103 $34 $-1 $104 reversed single #
loop $-1 $-1 $105 $43 #
plane-surface $-1 -144.34244001728445 2.6789930945141869 102.8628660255588 0 1 0 -0.6560590369687036 0 0.75470957328743171 forward_v I I I I #
face $-1 $106 $107 $35 $-1 $108 forward single #
loop $-1 $109 $110 $44 #
cone-surface $-1 -60.182243314841827 8.0925733229992787 9.7155688358775549 0.6560590369687036 0 -0.75470957328743171 0.37735478664371586 0 0.3280295184843518 1 I I 0 1 0.5 forward I I I I #
face $-1 $111 $112 $27 $-1 $113 reversed single #
loop $-1 $-1 $114 $45 #
plane-surface $-1 0 0 -11.789301579426509 0 0 1 1 0 0 forward_v I I I I #
coedge $-1 $115 $116 $117 $118 forward $46 $-1 #
face $-1 $119 $120 $28 $-1 $121 reversed single #
loop $-1 $-1 $122 $48 #
plane-surface $-1 -58.189156052235042 -21.416882524577332 0 0 -1 0 0 0 -1 forward_v I I I I #
coedge $-1 $123 $124 $125 $126 forward $49 $-1 #
face $-1 $127 $128 $29 $-1 $129 reversed single #
loop $-1 $-1 $130 $51 #
plane-surface $-1 0 17.247750569628934 -9.6888004181712848 0 1 0 0 0 1 forward_v I I I I #
coedge $-1 $131 $132 $133 $134 reversed $52 $-1 #
face $-1 $135 $136 $30 $-1 $137 reversed single #
loop $-1 $-1 $138 $54 #
plane-surface $-1 -22.723827461427433 -9.0363945893673474 92.234382875783041 0.73135370988377701 0 0.68199835119979291 0.68199835119979291 0 -0.73135370988377701 forward_v I I I I #
coedge $-1 $139 $140 $141 $142 reversed $55 $-1 #
face $-1 $-1 $143 $31 $-1 $144 forward single #
loop $-1 $145 $146 $57 #
cone-surface $-1 51.26381561478776 -9.0363945893673474 0.66911800617675787 -0.73135370988377701 0 -0.68199835119979291 0.68199835119979291 0 -0.73135370988377701 1 I I -0.70710678118654735 0.70710678118654768 1 forward I I I I #
loop $-1 $-1 $147 $40 #
coedge $-1 $92 $92 $148 $149 reversed $58 $-1 #
face $-1 $150 $151 $32 $-1 $152 reversed single #
loop $-1 $-1 $153 $60 #
plane-surface $-1 -22.723827461427433 10.295921957735786 92.234382875783041 0.73135370988377701 0 0.68199835119979291 0.68199835119979291 0 -0.73135370988377701 forward_v I I I I #
coedge $-1 $154 $155 $156 $157 reversed $61 $-1 #
face $-1 $-1 $158 $33 $-1 $159 forward single #
loop $-1 $160 $161 $63 #
cone-surface $-1 51.26381561478776 10.295921957735786 0.66911800617675787 -0.73135370988377701 0 -0.68199835119979291 0.68199835119979291 0 -0.73135370988377701 1 I I -0.70710678118654735 0.70710678118654768 1 forward I I I I #
loop $-1 $-1 $162 $42 #
coedge $-1 $101 $101 $163 $164 reversed $64 $-1 #
face $-1 $165 $166 $34 $-1 $167 reversed single #
loop $-1 $-1 $168 $66 #
plane-surface $-1 -62.428662984099844 8.0925733229992716 8.6318468222890345 -0.6560590369687036 0 0.75470957328743171 0.75470957328743171 0 0.6560590369687036 forward_v I I I I #
coedge $-1 $169 $170 $171 $172 reversed $67 $-1 #
face $-1 $-1 $173 $35 $-1 $174 forward single #
loop $-1 $175 $176 $69 #
cone-surface $-1 -59.587926947487439 8.0925733229992787 9.0318860775754768 0.6560590369687036 0 -0.75470957328743171 0.18867739332185793 0 0.1640147592421759 1 I I -0.70710678118654746 0.70710678118654746 0.25 forward I I I I #
loop $-1 $-1 $177 $44 #
coedge $-1 $110 $110 $178 $179 reversed $70 $-1 #
face $-1 $180 $181 $27 $-1 $182 reversed single #
loop $-1 $-1 $183 $72 #
plane-surface $-1 0 -31.500496999426616 0 0 1 0 0 0 1 forward_v I I I I #
coedge $-1 $184 $185 $186 $187 forward $73 $-1 #
coedge $-1 $188 $75 $189 $190 forward $46 $-1 #
coedge $-1 $75 $188 $191 $192 forward $46 $-1 #
coedge $-1 $193 $194 $75 $118 reversed $195 $-1 #
edge $-1 $196 -31.500496999426616 $197 31.500496999426616 $117 $198 forward 7 unknown #
face $-1 $199 $200 $28 $-1 $201 forward single #
loop $-1 $-1 $202 $76 #
plane-surface $-1 -54.796858010253082 -26.458689762001974 0 -1 0 0 0 0 1 forward_v I I I I #
coedge $-1 $203 $204 $205 $206 forward $77 $-1 #
coedge $-1 $207 $79 $208 $209 reversed $49 $-1 #
coedge $-1 $79 $207 $210 $211 reversed $49 $-1 #
coedge $-1 $204 $203 $79 $126 reversed $77 $-1 #
edge $-1 $212 -11.789301579426509 $213 11.789301579426509 $125 $214 forward 7 unknown #
face $-1 $215 $216 $29 $-1 $217 reversed single #
loop $-1 $-1 $218 $80 #
plane-surface $-1 0 31.500496999426616 0 0 -1 0 0 0 -1 forward_v I I I I #
coedge $-1 $219 $220 $221 $222 reversed $81 $-1 #
coedge $-1 $223 $83 $218 $224 reversed $52 $-1 #
coedge $-1 $83 $223 $220 $225 forward $52 $-1 #
coedge $-1 $226 $227 $83 $134 forward $216 $-1 #
edge $-1 $228 -19.313435107162729 $229 -5.0606886773650466 $133 $230 forward 7 unknown #
face $-1 $231 $232 $30 $-1 $233 reversed single #
loop $-1 $-1 $234 $84 #
plane-surface $-1 68.591041091583477 -13.860914471163222 177.38687332131033 0 1 0 0.73135370988377701 0 0.68199835119979291 forward_v I I I I #
coedge $-1 $235 $236 $237 $238 reversed $85 $-1 #
coedge $-1 $140 $87 $239 $240 reversed $55 $-1 #
coedge $-1 $87 $139 $235 $241 reversed $55 $-1 #
coedge $-1 $237 $242 $87 $142 forward $243 $-1 #
edge $-1 $244 -28.13314243830812 $245 -17.996902084637291 $141 $246 forward 7 unknown #
loop $-1 $-1 $148 $88 #
plane-surface $-1 -22.723827461427433 -9.0363945893673474 92.234382875783041 0.73135370988377701 0 0.68199835119979291 0.68199835119979291 0 -0.73135370988377701 forward_v I I I I #
loop $-1 $-1 $247 $57 #
coedge $-1 $146 $146 $147 $248 reversed $89 $-1 #
coedge $-1 $147 $147 $146 $248 forward $91 $-1 #
coedge $-1 $148 $148 $92 $149 forward $143 $-1 #
edge $-1 $249 0 $249 6.2831853071796004 $148 $250 forward 7 unknown #
face $-1 $251 $252 $32 $-1 $253 reversed single #
loop $-1 $-1 $254 $93 #
plane-surface $-1 68.591041091583477 5.4714020759399116 177.38687332131033 0 1 0 0.73135370988377701 0 0.68199835119979291 forward_v I I I I #
coedge $-1 $255 $256 $257 $258 reversed $94 $-1 #
coedge $-1 $155 $96 $259 $260 reversed $61 $-1 #
coedge $-1 $96 $154 $255 $261 reversed $61 $-1 #
coedge $-1 $257 $262 $96 $157 forward $263 $-1 #
edge $-1 $264 -28.13314243830812 $265 -17.996902084637291 $156 $266 forward 7 unknown #
loop $-1 $-1 $163 $97 #
plane-surface $-1 -22.723827461427433 10.295921957735786 92.234382875783041 0.73135370988377701 0 0.68199835119979291 0.68199835119979291 0 -0.73135370988377701 forward_v I I I I #
loop $-1 $-1 $267 $63 #
coedge $-1 $161 $161 $162 $268 reversed $98 $-1 #
coedge $-1 $162 $162 $161 $268 forward $100 $-1 #
coedge $-1 $163 $163 $101 $164 forward $158 $-1 #
edge $-1 $269 0 $269 6.2831853071796004 $163 $270 forward 7 unknown #
face $-1 $271 $272 $34 $-1 $273 forward single #
loop $-1 $-1 $274 $102 #
plane-surface $-1 -144.34244001728445 13.506153551484356 102.8628660255588 0 -1 0 0.6560590369687036 0 -0.75470957328743171 forward_v I I I I #
coedge $-1 $275 $276 $277 $278 reversed $103 $-1 #
coedge $-1 $170 $105 $279 $280 reversed $67 $-1 #
coedge $-1 $105 $169 $275 $281 reversed $67 $-1 #
coedge $-1 $277 $282 $105 $172 forward $272 $-1 #
edge $-1 $283 9.7425570245423643 $284 13.374793146834023 $171 $285 forward 7 unknown #
loop $-1 $-1 $178 $106 #
plane-surface $-1 -62.428662984099844 8.0925733229992716 8.6318468222890345 -0.6560590369687036 0 0.75470957328743171 0.75470957328743171 0 0.6560590369687036 forward_v I I I I #
loop $-1 $-1 $286 $69 #
coedge $-1 $176 $176 $177 $287 reversed $107 $-1 #
coedge $-1 $177 $177 $176 $287 forward $109 $-1 #
coedge $-1 $178 $178 $110 $179 forward $173 $-1 #
edge $-1 $288 0 $288 6.2831853071796004 $178 $289 forward 7 unknown #
face $-1 $290 $291 $27 $-1 $292 reversed single #
loop $-1 $-1 $293 $111 #
plane-surface $-1 -62.428662984099859 0 0 1 0 0 0 0 -1 forward_v I I I I #
coedge $-1 $294 $191 $295 $296 forward $112 $-1 #
coedge $-1 $297 $114 $294 $298 forward $73 $-1 #
coedge $-1 $114 $297 $299 $300 forward $73 $-1 #
coedge $-1 $194 $193 $114 $187 reversed $195 $-1 #
edge $-1 $301 -31.500496999426616 $302 31.500496999426616 $186 $303 forward 7 unknown #
coedge $-1 $116 $115 $304 $305 forward $46 $-1 #
coedge $-1 $306 $307 $115 $190 reversed $291 $-1 #
edge $-1 $197 -62.428662984099859 $308 62.428662984099859 $189 $309 forward 7 unknown #
coedge $-1 $183 $310 $116 $192 reversed $112 $-1 #
edge $-1 $311 -62.428662984099859 $196 62.428662984099859 $191 $312 forward 7 unknown #
coedge $-1 $186 $117 $310 $313 forward $195 $-1 #
coedge $-1 $117 $186 $306 $314 reversed $195 $-1 #
loop $-1 $-1 $193 $290 #
vertex $-1 $118 $315 #
vertex $-1 $118 $316 #
straight-curve $-1 62.428662984099859 0 11.789301579426509 0 1 0 I I #
face $-1 $317 $318 $28 $-1 $319 reversed single #
loop $-1 $-1 $320 $119 #
plane-surface $-1 0 0 11.789301579426509 0 0 1 1 0 0 forward_v I I I I #
coedge $-1 $321 $322 $323 $324 reversed $120 $-1 #
coedge $-1 $125 $122 $325 $326 reversed $77 $-1 #
coedge $-1 $122 $125 $327 $328 reversed $77 $-1 #
coedge $-1 $322 $321 $122 $206 reversed $120 $-1 #
edge $-1 $329 -11.789301579426509 $330 11.789301579426509 $205 $331 forward 7 unknown #
coedge $-1 $124 $123 $332 $333 reversed $49 $-1 #
coedge $-1 $325 $334 $123 $209 forward $318 $-1 #
edge $-1 $335 -18.271152118425629 $213 -8.1875376435763449 $208 $336 forward 7 unknown #
coedge $-1 $337 $327 $124 $211 forward $200 $-1 #
edge $-1 $212 8.1875376435763449 $338 18.271152118425629 $210 $339 forward 7 unknown #
vertex $-1 $211 $340 #
vertex $-1 $209 $341 #
straight-curve $-1 -61.581454094217001 -21.416882524577332 0 0 0 -1 I I #
face $-1 $342 $343 $29 $-1 $344 reversed single #
loop $-1 $-1 $133 $127 #
plane-surface $-1 62.428662984099859 0 0 -1 0 0 0 0 1 forward_v I I I I #
coedge $-1 $345 $346 $131 $224 forward $128 $-1 #
coedge $-1 $347 $130 $348 $349 reversed $81 $-1 #
coedge $-1 $130 $347 $132 $225 reversed $81 $-1 #
coedge $-1 $350 $351 $130 $222 forward $352 $-1 #
edge $-1 $353 -6.9449013703408662 $354 -2.7438990478304186 $221 $355 forward 7 unknown #
coedge $-1 $132 $131 $350 $356 reversed $52 $-1 #
edge $-1 $357 -62.428662984099859 $228 62.428662984099859 $218 $358 forward 7 unknown #
edge $-1 $354 -62.428662984099859 $229 62.428662984099859 $220 $359 forward 7 unknown #
coedge $-1 $360 $133 $347 $361 forward $216 $-1 #
coedge $-1 $133 $360 $345 $362 reversed $216 $-1 #
vertex $-1 $362 $363 #
vertex $-1 $134 $364 #
straight-curve $-1 62.428662984099859 12.187061892263888 -7.588299256916061 0 -1 0 I I #
face $-1 $-1 $243 $30 $-1 $365 forward single #
loop $-1 $-1 $366 $135 #
plane-surface $-1 62.428662984099859 0 0 -1 0 0 0 0 1 forward_v I I I I #
coedge $-1 $367 $368 $369 $370 reversed $136 $-1 #
coedge $-1 $371 $138 $140 $241 forward $85 $-1 #
coedge $-1 $138 $371 $367 $372 forward $85 $-1 #
coedge $-1 $369 $141 $138 $238 forward $243 $-1 #
edge $-1 $245 -0.3063225871122004 $373 9.3427171764795478 $237 $374 forward 7 unknown #
coedge $-1 $375 $376 $139 $240 forward $232 $-1 #
edge $-1 $377 -87.773922337883036 $244 -76.904135081228659 $239 $378 forward 7 unknown #
edge $-1 $245 109.99476752382981 $377 124.85732596819972 $140 $379 forward 7 unknown #
coedge $-1 $141 $369 $375 $380 forward $243 $-1 #
loop $-1 $-1 $369 $231 #
vertex $-1 $240 $381 #
vertex $-1 $142 $382 #
straight-curve $-1 34.295520545791739 -4.2118747075714733 11.789301579426507 -1 0 0 I I #
coedge $-1 $247 $247 $-1 $383 reversed $145 $-1 #
edge $-1 $384 0 $384 6.2831853071796004 $146 $385 forward 7 unknown #
vertex $-1 $149 $386 #
ellipse-curve $-1 57.360542807264451 -9.0363945893673474 6.354407951099315 0.73135370988377701 0 0.68199835119979291 1.3639967023995858 0 -1.462707419767554 1 I I #
face $-1 $-1 $263 $32 $-1 $387 forward single #
loop $-1 $-1 $388 $150 #
plane-surface $-1 62.428662984099859 0 0 -1 0 0 0 0 1 forward_v I I I I #
coedge $-1 $389 $390 $391 $392 reversed $151 $-1 #
coedge $-1 $393 $153 $155 $261 forward $94 $-1 #
coedge $-1 $153 $393 $389 $394 forward $94 $-1 #
coedge $-1 $391 $156 $153 $258 forward $263 $-1 #
edge $-1 $265 -9.9724808606637669 $395 -0.32344109707201874 $257 $396 forward 7 unknown #
coedge $-1 $397 $398 $154 $260 forward $252 $-1 #
edge $-1 $399 -87.773922337883036 $264 -76.904135081228659 $259 $400 forward 7 unknown #
edge $-1 $265 109.99476752382981 $399 124.85732596819972 $155 $401 forward 7 unknown #
coedge $-1 $156 $391 $397 $402 forward $263 $-1 #
loop $-1 $-1 $391 $251 #
vertex $-1 $260 $403 #
vertex $-1 $157 $404 #
straight-curve $-1 34.295520545791739 15.12044183953166 11.789301579426507 -1 0 0 I I #
coedge $-1 $267 $267 $-1 $405 reversed $160 $-1 #
edge $-1 $406 0 $406 6.2831853071796004 $161 $407 forward 7 unknown #
vertex $-1 $164 $408 #
ellipse-curve $-1 57.360542807264451 10.295921957735786 6.354407951099315 0.73135370988377701 0 0.68199835119979291 1.3639967023995858 0 -1.462707419767554 1 I I #
face $-1 $-1 $409 $34 $-1 $410 reversed single #
loop $-1 $-1 $171 $165 #
plane-surface $-1 0 0 11.789301579426509 0 0 1 1 0 0 forward_v I I I I #
coedge $-1 $411 $412 $413 $414 reversed $166 $-1 #
coedge $-1 $415 $168 $170 $281 forward $103 $-1 #
coedge $-1 $168 $415 $411 $416 forward $103 $-1 #
coedge $-1 $413 $171 $168 $278 forward $272 $-1 #
edge $-1 $284 -1.3672935669854489 $417 9.4598668899847205 $277 $418 forward 7 unknown #
coedge $-1 $419 $420 $169 $280 forward $409 $-1 #
edge $-1 $421 -42.79958619049038 $283 -39.642131433352894 $279 $422 forward 7 unknown #
edge $-1 $284 -4.8127601011737848 $421 1.888283279974768e-014 $170 $423 forward 7 unknown #
coedge $-1 $171 $413 $419 $424 forward $272 $-1 #
vertex $-1 $172 $425 #
vertex $-1 $172 $426 #
straight-curve $-1 -72.171220008642223 2.6789930945141869 11.789301579426507 1 0 0 I I #
coedge $-1 $286 $286 $-1 $427 reversed $175 $-1 #
edge $-1 $428 0 $428 6.2831853071796004 $176 $429 forward 7 unknown #
vertex $-1 $179 $430 #
ellipse-curve $-1 -60.612544922954029 8.0925733229992787 10.210574200857764 -0.6560590369687036 0 0.75470957328743171 0.37735478664371586 0 0.3280295184843518 1 I I #
face $-1 $-1 $195 $27 $-1 $431 reversed single #
loop $-1 $-1 $306 $180 #
plane-surface $-1 0 31.500496999426616 0 0 -1 0 0 0 -1 forward_v I I I I #
coedge $-1 $432 $304 $307 $433 forward $181 $-1 #
coedge $-1 $310 $183 $184 $298 reversed $112 $-1 #
coedge $-1 $304 $432 $183 $296 reversed $181 $-1 #
edge $-1 $311 -11.789301579426509 $434 11.789301579426509 $295 $435 forward 7 unknown #
coedge $-1 $185 $184 $432 $436 forward $73 $-1 #
edge $-1 $302 -62.428662984099859 $434 62.428662984099859 $294 $437 forward 7 unknown #
coedge $-1 $307 $306 $185 $300 reversed $291 $-1 #
edge $-1 $438 -62.428662984099859 $301 62.428662984099859 $299 $439 forward 7 unknown #
vertex $-1 $187 $440 #
vertex $-1 $313 $441 #
straight-curve $-1 62.428662984099859 0 -11.789301579426509 0 -1 0 I I #
coedge $-1 $293 $295 $188 $305 reversed $181 $-1 #
edge $-1 $308 -31.500496999426616 $311 31.500496999426616 $304 $442 forward 7 unknown #
coedge $-1 $299 $189 $194 $314 forward $291 $-1 #
coedge $-1 $189 $299 $293 $433 reversed $291 $-1 #
vertex $-1 $190 $443 #
straight-curve $-1 0 31.500496999426616 11.789301579426509 -1 0 0 I I #
coedge $-1 $191 $294 $193 $313 reversed $112 $-1 #
vertex $-1 $305 $444 #
straight-curve $-1 0 -31.500496999426616 11.789301579426509 1 0 0 I I #
edge $-1 $196 -11.789301579426509 $302 11.789301579426509 $193 $445 forward 7 unknown #
edge $-1 $197 -11.789301579426509 $301 11.789301579426509 $194 $446 forward 7 unknown #
point $-1 62.428662984099859 -31.500496999426616 11.789301579426509 #
point $-1 62.428662984099859 31.500496999426616 11.789301579426509 #
face $-1 $-1 $447 $28 $-1 $448 reversed single #
loop $-1 $-1 $449 $199 #
plane-surface $-1 0 0 -11.789301579426509 0 0 1 1 0 0 forward_v I I I I #
coedge $-1 $327 $337 $322 $450 forward $200 $-1 #
coedge $-1 $205 $202 $449 $451 reversed $120 $-1 #
coedge $-1 $202 $205 $320 $450 reversed $120 $-1 #
coedge $-1 $452 $453 $202 $324 forward $447 $-1 #
edge $-1 $454 -11.789301579426509 $455 11.789301579426509 $323 $456 forward 7 unknown #
coedge $-1 $449 $208 $203 $326 forward $318 $-1 #
edge $-1 $213 -32.486876068099477 $330 -25.702279984135561 $325 $457 forward 7 unknown #
coedge $-1 $210 $320 $204 $328 forward $200 $-1 #
edge $-1 $329 25.702279984135561 $212 32.486876068099477 $327 $458 forward 7 unknown #
vertex $-1 $328 $459 #
vertex $-1 $326 $460 #
straight-curve $-1 -54.796858010253082 -21.416882524577332 0 0 0 -1 I I #
coedge $-1 $453 $452 $207 $333 forward $447 $-1 #
edge $-1 $338 -11.789301579426509 $335 11.789301579426509 $332 $461 forward 7 unknown #
coedge $-1 $208 $449 $453 $462 forward $318 $-1 #
vertex $-1 $209 $463 #
straight-curve $-1 -61.581454094217001 -13.229344881000987 -11.789301579426509 0 1 0 I I #
coedge $-1 $320 $210 $452 $464 forward $200 $-1 #
vertex $-1 $464 $465 #
straight-curve $-1 -61.581454094217001 -13.229344881000987 11.789301579426509 0 -1 0 I I #
point $-1 -61.581454094217001 -21.416882524577332 11.789301579426509 #
point $-1 -61.581454094217001 -21.416882524577332 -11.789301579426509 #
face $-1 $-1 $352 $29 $-1 $466 reversed single #
loop $-1 $-1 $348 $215 #
plane-surface $-1 0 0 -11.789301579426509 0 0 1 1 0 0 forward_v I I I I #
coedge $-1 $467 $218 $227 $362 forward $128 $-1 #
coedge $-1 $218 $467 $468 $469 reversed $128 $-1 #
coedge $-1 $220 $219 $226 $361 reversed $81 $-1 #
coedge $-1 $470 $471 $219 $349 forward $343 $-1 #
edge $-1 $472 -62.428662984099859 $353 62.428662984099859 $348 $473 forward 7 unknown #
coedge $-1 $468 $221 $223 $356 forward $352 $-1 #
coedge $-1 $221 $468 $470 $474 reversed $352 $-1 #
loop $-1 $-1 $350 $342 #
vertex $-1 $474 $475 #
vertex $-1 $356 $476 #
straight-curve $-1 -62.428662984099859 17.247750569628934 -4.8444002090856424 0 0 1 I I #
edge $-1 $354 5.0606886773650466 $357 19.313435107162729 $350 $477 forward 7 unknown #
vertex $-1 $469 $478 #
straight-curve $-1 0 31.500496999426616 -7.588299256916061 1 0 0 I I #
straight-curve $-1 0 17.247750569628934 -7.588299256916061 1 0 0 I I #
coedge $-1 $227 $226 $471 $479 reversed $216 $-1 #
edge $-1 $229 2.7438990478304186 $472 6.9449013703408662 $226 $480 forward 7 unknown #
edge $-1 $228 7.588299256916061 $481 11.789301579426509 $227 $482 forward 7 unknown #
point $-1 62.428662984099859 31.500496999426616 -7.588299256916061 #
point $-1 62.428662984099859 17.247750569628934 -7.588299256916061 #
plane-surface $-1 0 0 11.789301579426509 0 0 1 1 0 0 forward_v I I I I #
coedge $-1 $376 $375 $368 $483 forward $232 $-1 #
coedge $-1 $368 $234 $236 $372 reversed $136 $-1 #
coedge $-1 $234 $367 $366 $483 reversed $136 $-1 #
coedge $-1 $242 $237 $234 $370 forward $243 $-1 #
edge $-1 $373 17.996902084637291 $484 28.13314243830812 $369 $485 forward 7 unknown #
coedge $-1 $236 $235 $376 $486 reversed $85 $-1 #
edge $-1 $487 -124.85732596819972 $373 -109.99476752382981 $367 $488 forward 7 unknown #
vertex $-1 $238 $489 #
straight-curve $-1 52.29242263042903 -4.5181972946836737 11.789301579426507 0 -1 0 I I #
coedge $-1 $366 $239 $242 $380 reversed $232 $-1 #
coedge $-1 $239 $366 $371 $486 forward $232 $-1 #
vertex $-1 $240 $490 #
straight-curve $-1 62.428662984099859 -4.2118747075714733 88.693436660655166 0 0 1 I I #
straight-curve $-1 -22.723827461427433 -4.2118747075714733 92.234382875783041 0.68199835119979291 0 -0.73135370988377701 I I #
edge $-1 $484 -13.860914471163222 $244 -4.2118747075714733 $375 $491 forward 7 unknown #
point $-1 62.428662984099859 -4.2118747075714733 11.789301579426509 #
point $-1 52.29242263042903 -4.2118747075714733 11.789301579426507 #
edge $-1 $492 1 $492 0 $247 $-1 forward 7 unknown #
vertex $-1 $248 $493 #
ellipse-curve $-1 51.995169324671537 -9.0363945893673474 1.3511163573765512 0.73135370988377701 0 0.68199835119979291 1.3639967023995858 0 -1.462707419767554 1 I I #
point $-1 58.724539509664027 -9.0363945893673474 4.8917005313317494 #
plane-surface $-1 0 0 11.789301579426509 0 0 1 1 0 0 forward_v I I I I #
coedge $-1 $398 $397 $390 $494 forward $252 $-1 #
coedge $-1 $390 $254 $256 $394 reversed $151 $-1 #
coedge $-1 $254 $389 $388 $494 reversed $151 $-1 #
coedge $-1 $262 $257 $254 $392 forward $263 $-1 #
edge $-1 $395 17.996902084637291 $495 28.13314243830812 $391 $496 forward 7 unknown #
coedge $-1 $256 $255 $398 $497 reversed $94 $-1 #
edge $-1 $498 -124.85732596819972 $395 -109.99476752382981 $389 $499 forward 7 unknown #
vertex $-1 $258 $500 #
straight-curve $-1 52.29242263042903 5.1479609788678928 11.789301579426507 0 -1 0 I I #
coedge $-1 $388 $259 $262 $402 reversed $252 $-1 #
coedge $-1 $259 $388 $393 $497 forward $252 $-1 #
vertex $-1 $260 $501 #
straight-curve $-1 62.428662984099859 15.12044183953166 88.693436660655166 0 0 1 I I #
straight-curve $-1 -22.723827461427433 15.12044183953166 92.234382875783041 0.68199835119979291 0 -0.73135370988377701 I I #
edge $-1 $495 5.4714020759399116 $264 15.12044183953166 $397 $502 forward 7 unknown #
point $-1 62.428662984099859 15.12044183953166 11.789301579426509 #
point $-1 52.29242263042903 15.12044183953166 11.789301579426507 #
edge $-1 $503 1 $503 0 $267 $-1 forward 7 unknown #
vertex $-1 $268 $504 #
ellipse-curve $-1 51.995169324671537 10.295921957735786 1.3511163573765512 0.73135370988377701 0 0.68199835119979291 1.3639967023995858 0 -1.462707419767554 1 I I #
point $-1 58.724539509664027 10.295921957735786 4.8917005313317494 #
loop $-1 $-1 $279 $271 #
plane-surface $-1 -62.428662984099859 0 0 1 0 0 0 0 -1 forward_v I I I I #
coedge $-1 $412 $274 $276 $416 reversed $166 $-1 #
coedge $-1 $274 $411 $505 $506 reversed $166 $-1 #
coedge $-1 $282 $277 $274 $414 forward $272 $-1 #
edge $-1 $417 -13.374793146834023 $507 -9.7425570245423643 $413 $508 forward 7 unknown #
coedge $-1 $276 $275 $420 $509 reversed $103 $-1 #
edge $-1 $510 -1.888283279974768e-014 $417 4.8127601011737848 $411 $511 forward 7 unknown #
vertex $-1 $278 $512 #
straight-curve $-1 -58.796426861808193 4.0462866614996358 11.789301579426512 0 1 0 I I #
coedge $-1 $505 $279 $282 $424 reversed $409 $-1 #
coedge $-1 $279 $505 $415 $509 forward $409 $-1 #
vertex $-1 $280 $513 #
straight-curve $-1 -62.428662984099859 2.6789930945141869 51.431433012779401 0 0 1 I I #
straight-curve $-1 -62.428662984099844 2.6789930945141869 8.6318468222890345 -0.75470957328743171 0 -0.6560590369687036 I I #
edge $-1 $507 -13.506153551484356 $283 -2.6789930945141869 $419 $514 forward 7 unknown #
point $-1 -62.428662984099859 2.6789930945141869 11.789301579426509 #
point $-1 -58.7964268618082 2.6789930945141869 11.789301579426509 #
edge $-1 $515 1 $515 0 $286 $-1 forward 7 unknown #
vertex $-1 $287 $516 #
ellipse-curve $-1 -59.751941706729617 8.0925733229992787 9.2205634708973339 -0.6560590369687036 0 0.75470957328743171 0.37735478664371586 0 0.3280295184843518 1 I I #
point $-1 -60.235190136310329 8.0925733229992787 10.538603719342127 #
plane-surface $-1 62.428662984099859 0 0 -1 0 0 0 0 1 forward_v I I I I #
coedge $-1 $295 $293 $297 $436 reversed $181 $-1 #
edge $-1 $308 -11.789301579426509 $438 11.789301579426509 $307 $517 forward 7 unknown #
vertex $-1 $436 $518 #
straight-curve $-1 -62.428662984099859 -31.500496999426616 0 0 0 -1 I I #
edge $-1 $434 -31.500496999426616 $438 31.500496999426616 $432 $519 forward 7 unknown #
straight-curve $-1 0 -31.500496999426616 -11.789301579426509 -1 0 0 I I #
vertex $-1 $300 $520 #
straight-curve $-1 0 31.500496999426616 -11.789301579426509 1 0 0 I I #
point $-1 62.428662984099859 31.500496999426616 -11.789301579426509 #
point $-1 62.428662984099859 -31.500496999426616 -11.789301579426509 #
straight-curve $-1 -62.428662984099859 0 11.789301579426509 0 -1 0 I I #
point $-1 -62.428662984099859 31.500496999426616 11.789301579426509 #
point $-1 -62.428662984099859 -31.500496999426616 11.789301579426509 #
straight-curve $-1 62.428662984099859 -31.500496999426616 0 0 0 -1 I I #
straight-curve $-1 62.428662984099859 31.500496999426616 0 0 0 -1 I I #
loop $-1 $-1 $323 $317 #
plane-surface $-1 0 -31.500496999426616 0 0 1 0 0 0 1 forward_v I I I I #
coedge $-1 $334 $325 $321 $451 forward $318 $-1 #
edge $-1 $455 -18.271152118425629 $329 -8.1875376435763449 $320 $521 forward 7 unknown #
edge $-1 $330 8.1875376435763449 $454 18.271152118425629 $449 $522 forward 7 unknown #
coedge $-1 $332 $323 $337 $464 reversed $447 $-1 #
coedge $-1 $323 $332 $334 $462 reversed $447 $-1 #
vertex $-1 $462 $523 #
vertex $-1 $324 $524 #
straight-curve $-1 -54.796858010253082 -31.500496999426616 0 0 0 1 I I #
straight-curve $-1 -29.094578026117521 -21.416882524577332 -11.789301579426509 1 0 0 I I #
straight-curve $-1 -29.094578026117521 -21.416882524577332 11.789301579426509 -1 0 0 I I #
point $-1 -54.796858010253082 -21.416882524577332 11.789301579426509 #
point $-1 -54.796858010253082 -21.416882524577332 -11.789301579426509 #
straight-curve $-1 -61.581454094217001 -31.500496999426616 0 0 0 -1 I I #
edge $-1 $454 54.796858010253082 $335 61.581454094217001 $453 $525 forward 7 unknown #
point $-1 -61.581454094217001 -31.500496999426616 -11.789301579426509 #
edge $-1 $338 -61.581454094217001 $455 -54.796858010253082 $452 $526 forward 7 unknown #
point $-1 -61.581454094217001 -31.500496999426616 11.789301579426509 #
plane-surface $-1 -62.428662984099859 0 0 1 0 0 0 0 -1 forward_v I I I I #
coedge $-1 $346 $345 $527 $528 reversed $128 $-1 #
coedge $-1 $351 $350 $346 $469 forward $352 $-1 #
edge $-1 $357 7.588299256916061 $529 11.789301579426509 $346 $530 forward 7 unknown #
coedge $-1 $527 $348 $351 $474 forward $343 $-1 #
coedge $-1 $348 $527 $360 $479 forward $343 $-1 #
vertex $-1 $361 $531 #
straight-curve $-1 0 17.247750569628934 -11.789301579426509 -1 0 0 I I #
edge $-1 $353 17.247750569628934 $529 31.500496999426616 $351 $532 forward 7 unknown #
point $-1 -62.428662984099859 17.247750569628934 -11.789301579426509 #
point $-1 -62.428662984099859 17.247750569628934 -7.588299256916061 #
straight-curve $-1 -62.428662984099859 12.187061892263888 -7.588299256916061 0 1 0 I I #
point $-1 -62.428662984099859 31.500496999426616 -7.588299256916061 #
edge $-1 $481 -31.500496999426616 $472 -17.247750569628934 $360 $533 forward 7 unknown #
straight-curve $-1 62.428662984099859 17.247750569628934 -4.8444002090856424 0 0 -1 I I #
vertex $-1 $479 $534 #
straight-curve $-1 62.428662984099859 31.500496999426616 0 0 0 -1 I I #
edge $-1 $484 76.904135081228659 $487 87.773922337883036 $366 $535 forward 7 unknown #
vertex $-1 $380 $536 #
straight-curve $-1 34.295520545791739 -13.860914471163222 11.789301579426507 1 0 0 I I #
edge $-1 $487 -9.3427171764795478 $377 0.3063225871122004 $376 $537 forward 7 unknown #
vertex $-1 $486 $538 #
straight-curve $-1 -22.723827461427433 -13.860914471163222 92.234382875783041 -0.68199835119979291 0 0.73135370988377701 I I #
point $-1 52.29242263042903 -13.860914471163222 11.789301579426507 #
point $-1 62.428662984099859 -4.2118747075714733 0.9195143227721303 #
straight-curve $-1 62.428662984099859 0 11.789301579426509 0 1 0 I I #
vertex $-1 $383 $539 #
point $-1 53.359166027071126 -9.0363945893673474 -0.11159106239100292 #
edge $-1 $495 76.904135081228659 $498 87.773922337883036 $388 $540 forward 7 unknown #
vertex $-1 $402 $541 #
straight-curve $-1 34.295520545791739 5.4714020759399116 11.789301579426507 1 0 0 I I #
edge $-1 $498 0.32344109707201874 $399 9.9724808606637669 $398 $542 forward 7 unknown #
vertex $-1 $497 $543 #
straight-curve $-1 -22.723827461427433 5.4714020759399116 92.234382875783041 -0.68199835119979291 0 0.73135370988377701 I I #
point $-1 52.29242263042903 5.4714020759399116 11.789301579426507 #
point $-1 62.428662984099859 15.12044183953166 0.9195143227721303 #
straight-curve $-1 62.428662984099859 0 11.789301579426509 0 1 0 I I #
vertex $-1 $405 $544 #
point $-1 53.359166027071126 10.295921957735786 -0.11159106239100292 #
coedge $-1 $420 $419 $412 $506 forward $409 $-1 #
edge $-1 $507 39.642131433352894 $510 42.79958619049038 $505 $545 forward 7 unknown #
vertex $-1 $424 $546 #
straight-curve $-1 -72.171220008642223 13.506153551484356 11.789301579426507 -1 0 0 I I #
edge $-1 $510 -9.4598668899847205 $421 1.3672935669854489 $420 $547 forward 7 unknown #
vertex $-1 $509 $548 #
straight-curve $-1 -62.428662984099844 13.506153551484356 8.6318468222890345 0.75470957328743171 0 0.6560590369687036 I I #
point $-1 -58.7964268618082 13.506153551484356 11.789301579426509 #
point $-1 -62.428662984099859 2.6789930945141869 8.6318468222890221 #
straight-curve $-1 -62.428662984099859 0 11.789301579426509 0 -1 0 I I #
vertex $-1 $427 $549 #
point $-1 -59.374586920085896 8.0925733229992787 9.548592989381687 #
straight-curve $-1 -62.428662984099859 31.500496999426616 0 0 0 -1 I I #
point $-1 -62.428662984099859 -31.500496999426616 -11.789301579426509 #
straight-curve $-1 -62.428662984099859 0 -11.789301579426509 0 1 0 I I #
point $-1 -62.428662984099859 31.500496999426616 -11.789301579426509 #
straight-curve $-1 -54.796858010253082 -13.229344881000987 11.789301579426509 0 1 0 I I #
straight-curve $-1 -54.796858010253082 -13.229344881000987 -11.789301579426509 0 -1 0 I I #
point $-1 -54.796858010253082 -31.500496999426616 -11.789301579426509 #
point $-1 -54.796858010253082 -31.500496999426616 11.789301579426509 #
straight-curve $-1 0 -31.500496999426616 -11.789301579426509 -1 0 0 I I #
straight-curve $-1 0 -31.500496999426616 11.789301579426509 1 0 0 I I #
coedge $-1 $471 $470 $467 $528 forward $343 $-1 #
edge $-1 $529 -62.428662984099859 $481 62.428662984099859 $467 $550 forward 7 unknown #
vertex $-1 $528 $551 #
straight-curve $-1 -62.428662984099859 31.500496999426616 0 0 0 -1 I I #
point $-1 62.428662984099859 17.247750569628934 -11.789301579426509 #
straight-curve $-1 -62.428662984099859 0 -11.789301579426509 0 1 0 I I #
straight-curve $-1 62.428662984099859 0 -11.789301579426509 0 -1 0 I I #
point $-1 62.428662984099859 31.500496999426616 -11.789301579426509 #
straight-curve $-1 62.428662984099859 -13.860914471163222 88.693436660655166 0 0 -1 I I #
point $-1 62.428662984099859 -13.860914471163222 11.789301579426509 #
straight-curve $-1 62.428662984099851 -4.5181972946836737 0.9195143227721303 0 1 0 I I #
point $-1 62.428662984099859 -13.860914471163222 0.9195143227721303 #
point $-1 50.532461904903982 -9.0363945893673474 -0.012880345023035367 #
straight-curve $-1 62.428662984099859 5.4714020759399116 88.693436660655166 0 0 -1 I I #
point $-1 62.428662984099859 5.4714020759399116 11.789301579426509 #
straight-curve $-1 62.428662984099851 5.1479609788678928 0.9195143227721303 0 1 0 I I #
point $-1 62.428662984099859 5.4714020759399116 0.9195143227721303 #
point $-1 50.532461904903982 10.295921957735786 -0.012880345023035367 #
straight-curve $-1 -62.428662984099859 13.506153551484356 51.431433012779401 0 0 -1 I I #
point $-1 -62.428662984099859 13.506153551484356 11.789301579426509 #
straight-curve $-1 -62.428662984099859 4.0462866614996358 8.6318468222890186 0 -1 0 I I #
point $-1 -62.428662984099859 13.506153551484356 8.6318468222890221 #
point $-1 -59.423912188245261 8.0925733229992787 8.8432086842536197 #
straight-curve $-1 0 31.500496999426616 -11.789301579426509 1 0 0 I I #
point $-1 -62.428662984099859 31.500496999426616 -11.789301579426509 #
End-of-ACIS-data 