500 0 12 0           
7 Unknown 11 ACIS 5.0 NT 24 Thu Mar 25 22:20:14 1999 
-1 9.9999999999999995e-007 1e-010 
body $-1 $12 $-1 $13 #
body $-1 $14 $-1 $15 #
body $-1 $16 $-1 $17 #
body $-1 $18 $-1 $19 #
body $-1 $20 $-1 $21 #
body $-1 $22 $-1 $23 #
body $-1 $24 $-1 $25 #
body $-1 $26 $-1 $27 #
body $-1 $28 $-1 $29 #
body $-1 $30 $-1 $31 #
body $-1 $32 $-1 $33 #
body $-1 $34 $-1 $35 #
lump $-1 $-1 $36 $0 #
transform $-1 1 0 0 0 1 0 0 0 1 75.362407300027456 35.126651027309777 12.710000912808317 1 rotate no_reflect no_shear #
lump $-1 $-1 $37 $1 #
transform $-1 1 0 0 0 1 0 0 0 1 75.362407300027456 35.126651027309777 12.710000912808317 1 rotate no_reflect no_shear #
lump $-1 $-1 $38 $2 #
transform $-1 1 0 0 0 1 0 0 0 1 75.362407300027456 35.126651027309777 12.710000912808317 1 rotate no_reflect no_shear #
lump $-1 $-1 $39 $3 #
transform $-1 1 0 0 0 1 0 0 0 1 75.362407300027456 35.126651027309777 12.710000912808317 1 rotate no_reflect no_shear #
lump $-1 $-1 $40 $4 #
transform $-1 1 0 0 0 1 0 0 0 1 75.362407300027456 35.126651027309777 12.710000912808317 1 rotate no_reflect no_shear #
lump $-1 $-1 $41 $5 #
transform $-1 1 0 0 0 1 0 0 0 1 75.362407300027456 35.126651027309777 12.710000912808317 1 rotate no_reflect no_shear #
lump $-1 $-1 $42 $6 #
transform $-1 1 0 0 0 1 0 0 0 1 75.362407300027456 35.126651027309777 12.710000912808317 1 rotate no_reflect no_shear #
lump $-1 $-1 $43 $7 #
transform $-1 1 0 0 0 1 0 0 0 1 75.362407300027456 35.126651027309777 12.710000912808317 1 rotate no_reflect no_shear #
lump $-1 $-1 $44 $8 #
transform $-1 1 0 0 0 1 0 0 0 1 75.362407300027456 35.126651027309777 12.710000912808317 1 rotate no_reflect no_shear #
lump $-1 $-1 $45 $9 #
transform $-1 1 0 0 0 1 0 0 0 1 75.362407300027456 35.126651027309777 12.710000912808317 1 rotate no_reflect no_shear #
lump $-1 $-1 $46 $10 #
transform $-1 1 0 0 0 1 0 0 0 1 75.362407300027456 35.126651027309777 12.710000912808317 1 rotate no_reflect no_shear #
lump $-1 $-1 $47 $11 #
transform $-1 1 0 0 0 1 0 0 0 1 75.362407300027456 35.126651027309777 12.710000912808317 1 rotate no_reflect no_shear #
shell $-1 $-1 $-1 $48 $-1 $12 #
shell $-1 $-1 $-1 $49 $-1 $14 #
shell $-1 $-1 $-1 $50 $-1 $16 #
shell $-1 $-1 $-1 $51 $-1 $18 #
shell $-1 $-1 $-1 $52 $-1 $20 #
shell $-1 $-1 $-1 $53 $-1 $22 #
shell $-1 $-1 $-1 $54 $-1 $24 #
shell $-1 $-1 $-1 $55 $-1 $26 #
shell $-1 $-1 $-1 $56 $-1 $28 #
shell $-1 $-1 $-1 $57 $-1 $30 #
shell $-1 $-1 $-1 $58 $-1 $32 #
shell $-1 $-1 $-1 $59 $-1 $34 #
face $-1 $60 $61 $36 $-1 $62 forward single #
face $-1 $63 $64 $37 $-1 $65 forward single #
face $-1 $66 $67 $38 $-1 $68 forward single #
face $-1 $69 $70 $39 $-1 $71 reversed single #
face $-1 $72 $73 $40 $-1 $74 forward single #
face $-1 $75 $76 $41 $-1 $77 forward single #
face $-1 $78 $79 $42 $-1 $80 reversed single #
face $-1 $81 $82 $43 $-1 $83 forward single #
face $-1 $84 $85 $44 $-1 $86 forward single #
face $-1 $87 $88 $45 $-1 $89 reversed single #
face $-1 $90 $91 $46 $-1 $92 forward single #
face $-1 $93 $94 $47 $-1 $95 forward single #
face $-1 $96 $97 $36 $-1 $98 reversed single #
loop $-1 $-1 $99 $48 #
plane-surface $-1 0 0 12.710000912808317 0 0 1 1 0 0 forward_v I I I I #
face $-1 $100 $101 $37 $-1 $102 reversed single #
loop $-1 $-1 $103 $49 #
plane-surface $-1 -75.362407300027456 0 0 1 0 0 0 0 -1 forward_v I I I I #
face $-1 $104 $105 $38 $-1 $106 reversed single #
loop $-1 $-1 $107 $50 #
plane-surface $-1 67.829000041868397 0 3.973013773331771 0 0 1 1 0 0 forward_v I I I I #
face $-1 $108 $109 $39 $-1 $110 reversed single #
loop $-1 $-1 $111 $51 #
plane-surface $-1 -45.432171649705111 -145.3598033566044 104.89093976758836 -1 0 0 0 -0.73135370988377701 0.68199835119979291 forward_v I I I I #
face $-1 $112 $113 $40 $-1 $114 forward single #
loop $-1 $115 $116 $52 #
cone-surface $-1 -56.278027821480535 -29.221122243189107 6.5109468027302988 0 0.73135370988377701 -0.68199835119979291 2 0 0 1 I I 0 1 2 forward I I I I #
face $-1 $117 $118 $41 $-1 $119 forward single #
loop $-1 $120 $121 $53 #
cone-surface $-1 -49.770514118415278 -29.221122243189107 6.5109468027302988 0 0.73135370988377701 -0.68199835119979291 2 0 0 1 I I 0 1 2 forward I I I I #
face $-1 $122 $123 $42 $-1 $124 reversed single #
loop $-1 $-1 $125 $54 #
plane-surface $-1 -45.176079179648667 102.78980137309554 158.10750117876128 1 0 0 0 -0.75470958851134928 -0.65605901945558964 forward_v I I I I #
face $-1 $126 $127 $43 $-1 $128 forward single #
loop $-1 $129 $130 $55 #
cone-surface $-1 -40.994142238468477 31.851145284978344 9.0675978324527371 0 -0.75470958851134928 -0.65605901945558964 1 0 0 1 I I 0 1 1 forward I I I I #
face $-1 $131 $132 $44 $-1 $133 forward single #
loop $-1 $134 $135 $56 #
cone-surface $-1 -34.721236826698203 31.851145284978344 9.0675978324527371 0 -0.75470958851134928 -0.65605901945558964 1 0 0 1 I I 0 1 1 forward I I I I #
face $-1 $136 $137 $45 $-1 $138 reversed single #
loop $-1 $-1 $139 $57 #
plane-surface $-1 30.218522379036688 102.78980137309554 158.10750117876128 1 0 0 0 -0.75470958851134928 -0.65605901945558964 forward_v I I I I #
face $-1 $140 $141 $46 $-1 $142 forward single #
loop $-1 $143 $144 $58 #
cone-surface $-1 34.400459320216868 31.851145284978344 9.0675978324527371 0 -0.75470958851134928 -0.65605901945558964 1 0 0 1 I I 0 1 1 forward I I I I #
face $-1 $145 $146 $47 $-1 $147 forward single #
loop $-1 $148 $149 $59 #
cone-surface $-1 40.673364731987149 31.851145284978344 9.0675978324527371 0 -0.75470958851134928 -0.65605901945558964 1 0 0 1 I I 0 1 1 forward I I I I #
face $-1 $150 $151 $36 $-1 $152 reversed single #
loop $-1 $-1 $153 $60 #
plane-surface $-1 0 0 -12.710000912808317 0 0 1 1 0 0 forward_v I I I I #
coedge $-1 $154 $155 $156 $157 forward $61 $-1 #
face $-1 $158 $159 $37 $-1 $160 reversed single #
loop $-1 $-1 $161 $63 #
plane-surface $-1 0 35.126651027309777 0 0 -1 0 0 0 -1 forward_v I I I I #
coedge $-1 $162 $163 $164 $165 forward $64 $-1 #
face $-1 $166 $167 $38 $-1 $168 reversed single #
loop $-1 $-1 $169 $66 #
plane-surface $-1 67.829000041868397 0 0.7027107948507707 0 0 1 1 0 0 forward_v I I I I #
coedge $-1 $170 $171 $172 $173 reversed $67 $-1 #
face $-1 $174 $175 $39 $-1 $176 reversed single #
loop $-1 $-1 $177 $69 #
plane-surface $-1 -53.024270969947906 -35.126651027309762 2.0968647254564416 0 -0.73135370988377701 0.68199835119979291 1 0 0 forward_v I I I I #
coedge $-1 $178 $179 $180 $181 reversed $70 $-1 #
face $-1 $-1 $182 $40 $-1 $183 forward single #
loop $-1 $184 $185 $72 #
cone-surface $-1 -56.278027821480535 -27.532694431928448 4.936462435128421 0 0.73135370988377701 -0.68199835119979291 1 0 0 1 I I -0.70710678118654746 0.70710678118654746 1 forward I I I I #
loop $-1 $-1 $186 $52 #
coedge $-1 $116 $116 $187 $188 reversed $73 $-1 #
face $-1 $-1 $189 $41 $-1 $190 forward single #
loop $-1 $191 $192 $75 #
cone-surface $-1 -49.770514118415278 -27.532694431928448 4.936462435128421 0 0.73135370988377701 -0.68199835119979291 1 0 0 1 I I -0.70710678118654746 0.70710678118654746 1 forward I I I I #
loop $-1 $-1 $193 $53 #
coedge $-1 $121 $121 $194 $195 reversed $76 $-1 #
face $-1 $196 $197 $42 $-1 $198 reversed single #
loop $-1 $-1 $199 $78 #
plane-surface $-1 -37.85768953258335 -10.963661432161317 59.223127104623714 0 0.75470958851134928 0.65605901945558964 1 0 0 forward_v I I I I #
coedge $-1 $200 $201 $202 $203 reversed $79 $-1 #
face $-1 $-1 $204 $43 $-1 $205 forward single #
loop $-1 $206 $207 $81 #
cone-surface $-1 -40.994142238468477 31.02681962751727 8.3510224890643929 0 -0.75470958851134928 -0.65605901945558964 0.5 0 0 1 I I -0.70710678118654746 0.70710678118654746 0.5 forward I I I I #
loop $-1 $-1 $208 $55 #
coedge $-1 $130 $130 $209 $210 reversed $82 $-1 #
face $-1 $-1 $211 $44 $-1 $212 forward single #
loop $-1 $213 $214 $84 #
cone-surface $-1 -34.721236826698203 31.02681962751727 8.3510224890643929 0 -0.75470958851134928 -0.65605901945558964 0.5 0 0 1 I I -0.70710678118654746 0.70710678118654746 0.5 forward I I I I #
loop $-1 $-1 $215 $56 #
coedge $-1 $135 $135 $216 $217 reversed $85 $-1 #
face $-1 $218 $219 $45 $-1 $220 reversed single #
loop $-1 $-1 $221 $87 #
plane-surface $-1 37.536912026102002 -10.963661432161317 59.223127104623714 0 0.75470958851134928 0.65605901945558964 1 0 0 forward_v I I I I #
coedge $-1 $222 $223 $224 $225 reversed $88 $-1 #
face $-1 $-1 $226 $46 $-1 $227 forward single #
loop $-1 $228 $229 $90 #
cone-surface $-1 34.400459320216868 31.02681962751727 8.3510224890643929 0 -0.75470958851134928 -0.65605901945558964 0.5 0 0 1 I I -0.70710678118654746 0.70710678118654746 0.5 forward I I I I #
loop $-1 $-1 $230 $58 #
coedge $-1 $144 $144 $231 $232 reversed $91 $-1 #
face $-1 $-1 $233 $47 $-1 $234 forward single #
loop $-1 $235 $236 $93 #
cone-surface $-1 40.673364731987149 31.02681962751727 8.3510224890643929 0 -0.75470958851134928 -0.65605901945558964 0.5 0 0 1 I I -0.70710678118654746 0.70710678118654746 0.5 forward I I I I #
loop $-1 $-1 $237 $59 #
coedge $-1 $149 $149 $238 $239 reversed $94 $-1 #
face $-1 $240 $241 $36 $-1 $242 reversed single #
loop $-1 $-1 $243 $96 #
plane-surface $-1 0 -35.126651027309777 0 0 1 0 0 0 1 forward_v I I I I #
coedge $-1 $244 $245 $246 $247 forward $97 $-1 #
coedge $-1 $248 $99 $249 $250 forward $61 $-1 #
coedge $-1 $99 $248 $251 $252 forward $61 $-1 #
coedge $-1 $253 $254 $99 $157 reversed $255 $-1 #
edge $-1 $256 -35.126651027309777 $257 35.126651027309777 $156 $258 forward 7 unknown #
face $-1 $259 $260 $37 $-1 $261 reversed single #
loop $-1 $-1 $164 $100 #
plane-surface $-1 -82.735425804945834 0 9.0338095418848408 0 0 1 1 0 0 forward_v I I I I #
coedge $-1 $262 $263 $162 $264 forward $101 $-1 #
coedge $-1 $265 $103 $161 $264 reversed $64 $-1 #
coedge $-1 $103 $265 $266 $267 reversed $64 $-1 #
coedge $-1 $268 $269 $103 $165 reversed $159 $-1 #
edge $-1 $270 -35.126651027309777 $271 35.126651027309777 $164 $272 forward 7 unknown #
face $-1 $273 $274 $38 $-1 $275 reversed single #
loop $-1 $-1 $276 $104 #
plane-surface $-1 60.295592783709353 0 2.3378622840912708 1 0 0 0 0 -1 forward_v I I I I #
coedge $-1 $277 $278 $279 $280 reversed $105 $-1 #
coedge $-1 $281 $107 $282 $283 reversed $67 $-1 #
coedge $-1 $107 $281 $284 $285 reversed $67 $-1 #
coedge $-1 $286 $287 $107 $173 forward $288 $-1 #
edge $-1 $289 -35.126651027309777 $290 35.126651027309777 $172 $291 forward 7 unknown #
face $-1 $292 $293 $39 $-1 $294 forward single #
loop $-1 $-1 $295 $108 #
plane-surface $-1 -60.616370290190702 -145.3598033566044 104.89093976758836 1 0 0 0 0.73135370988377701 -0.68199835119979291 forward_v I I I I #
coedge $-1 $296 $297 $298 $299 reversed $109 $-1 #
coedge $-1 $179 $111 $300 $301 reversed $70 $-1 #
coedge $-1 $111 $178 $296 $302 reversed $70 $-1 #
coedge $-1 $298 $303 $111 $181 forward $293 $-1 #
edge $-1 $304 37.553250650992425 $305 47.450160016480012 $180 $306 forward 7 unknown #
loop $-1 $-1 $187 $112 #
plane-surface $-1 -53.024270969947906 -35.126651027309762 2.0968647254564416 0 -0.73135370988377701 0.68199835119979291 1 0 0 forward_v I I I I #
loop $-1 $-1 $307 $72 #
coedge $-1 $185 $185 $186 $308 reversed $113 $-1 #
coedge $-1 $186 $186 $185 $308 forward $115 $-1 #
coedge $-1 $187 $187 $116 $188 forward $182 $-1 #
edge $-1 $309 -9.484542487354028e-016 $309 6.2831853071795996 $187 $310 forward 7 unknown #
loop $-1 $-1 $194 $117 #
plane-surface $-1 -53.024270969947906 -35.126651027309762 2.0968647254564416 0 -0.73135370988377701 0.68199835119979291 1 0 0 forward_v I I I I #
loop $-1 $-1 $311 $75 #
coedge $-1 $192 $192 $193 $312 reversed $118 $-1 #
coedge $-1 $193 $193 $192 $312 forward $120 $-1 #
coedge $-1 $194 $194 $121 $195 forward $189 $-1 #
edge $-1 $313 -9.484542487354028e-016 $313 6.2831853071795996 $194 $314 forward 7 unknown #
face $-1 $315 $316 $42 $-1 $317 reversed single #
loop $-1 $-1 $318 $122 #
plane-surface $-1 -30.539299885518037 102.78980137309554 158.10750117876128 -1 0 0 0 0.75470958851134928 0.65605901945558964 forward_v I I I I #
coedge $-1 $319 $320 $321 $322 reversed $123 $-1 #
coedge $-1 $201 $125 $323 $324 reversed $79 $-1 #
coedge $-1 $125 $200 $319 $325 reversed $79 $-1 #
coedge $-1 $321 $326 $125 $203 forward $327 $-1 #
edge $-1 $328 16.268249659237995 $329 21.92531941749008 $202 $330 forward 7 unknown #
loop $-1 $-1 $209 $126 #
plane-surface $-1 -37.85768953258335 -10.963661432161317 59.223127104623714 0 0.75470958851134928 0.65605901945558964 1 0 0 forward_v I I I I #
loop $-1 $-1 $331 $81 #
coedge $-1 $207 $207 $208 $332 reversed $127 $-1 #
coedge $-1 $208 $208 $207 $332 forward $129 $-1 #
coedge $-1 $209 $209 $130 $210 forward $204 $-1 #
edge $-1 $333 6.39679087101383e-016 $333 6.2831853071796013 $209 $334 forward 7 unknown #
loop $-1 $-1 $216 $131 #
plane-surface $-1 -37.85768953258335 -10.963661432161317 59.223127104623714 0 0.75470958851134928 0.65605901945558964 1 0 0 forward_v I I I I #
loop $-1 $-1 $335 $84 #
coedge $-1 $214 $214 $215 $336 reversed $132 $-1 #
coedge $-1 $215 $215 $214 $336 forward $134 $-1 #
coedge $-1 $216 $216 $135 $217 forward $211 $-1 #
edge $-1 $337 6.39679087101383e-016 $337 6.2831853071796013 $216 $338 forward 7 unknown #
face $-1 $339 $340 $45 $-1 $341 reversed single #
loop $-1 $-1 $342 $136 #
plane-surface $-1 44.855301673167318 102.78980137309554 158.10750117876128 -1 0 0 0 0.75470958851134928 0.65605901945558964 forward_v I I I I #
coedge $-1 $343 $344 $345 $346 reversed $137 $-1 #
coedge $-1 $223 $139 $347 $348 reversed $88 $-1 #
coedge $-1 $139 $222 $343 $349 reversed $88 $-1 #
coedge $-1 $345 $350 $139 $225 forward $351 $-1 #
edge $-1 $352 16.268249659237995 $353 21.92531941749008 $224 $354 forward 7 unknown #
loop $-1 $-1 $231 $140 #
plane-surface $-1 37.536912026102002 -10.963661432161317 59.223127104623714 0 0.75470958851134928 0.65605901945558964 1 0 0 forward_v I I I I #
loop $-1 $-1 $355 $90 #
coedge $-1 $229 $229 $230 $356 reversed $141 $-1 #
coedge $-1 $230 $230 $229 $356 forward $143 $-1 #
coedge $-1 $231 $231 $144 $232 forward $226 $-1 #
edge $-1 $357 6.39679087101383e-016 $357 6.2831853071796013 $231 $358 forward 7 unknown #
loop $-1 $-1 $238 $145 #
plane-surface $-1 37.536912026102002 -10.963661432161317 59.223127104623714 0 0.75470958851134928 0.65605901945558964 1 0 0 forward_v I I I I #
loop $-1 $-1 $359 $93 #
coedge $-1 $236 $236 $237 $360 reversed $146 $-1 #
coedge $-1 $237 $237 $236 $360 forward $148 $-1 #
coedge $-1 $238 $238 $149 $239 forward $233 $-1 #
edge $-1 $361 6.39679087101383e-016 $361 6.2831853071796013 $238 $362 forward 7 unknown #
face $-1 $363 $364 $36 $-1 $365 reversed single #
loop $-1 $-1 $366 $150 #
plane-surface $-1 -75.362407300027456 0 0 1 0 0 0 0 -1 forward_v I I I I #
coedge $-1 $367 $251 $368 $369 forward $151 $-1 #
coedge $-1 $370 $153 $367 $371 forward $97 $-1 #
coedge $-1 $153 $370 $372 $373 forward $97 $-1 #
coedge $-1 $254 $253 $153 $247 reversed $255 $-1 #
edge $-1 $374 -35.126651027309777 $375 35.126651027309777 $246 $376 forward 7 unknown #
coedge $-1 $155 $154 $377 $378 forward $61 $-1 #
coedge $-1 $379 $380 $154 $250 reversed $364 $-1 #
edge $-1 $257 -75.362407300027456 $381 75.362407300027456 $249 $382 forward 7 unknown #
coedge $-1 $243 $383 $155 $252 reversed $151 $-1 #
edge $-1 $384 -75.362407300027456 $256 75.362407300027456 $251 $385 forward 7 unknown #
coedge $-1 $246 $156 $383 $386 forward $255 $-1 #
coedge $-1 $156 $246 $379 $387 reversed $255 $-1 #
loop $-1 $-1 $253 $363 #
vertex $-1 $157 $388 #
vertex $-1 $157 $389 #
straight-curve $-1 75.362407300027456 0 12.710000912808317 0 1 0 I I #
face $-1 $390 $391 $37 $-1 $392 forward single #
loop $-1 $-1 $393 $158 #
plane-surface $-1 -90.108444309864211 0 10.871905227346579 1 0 0 0 0 -1 forward_v I I I I #
coedge $-1 $394 $161 $269 $395 reversed $101 $-1 #
coedge $-1 $161 $394 $396 $397 reversed $101 $-1 #
edge $-1 $398 -12.710000912808317 $271 -9.0338095418848408 $161 $399 forward 7 unknown #
coedge $-1 $163 $162 $400 $401 reversed $64 $-1 #
coedge $-1 $402 $403 $163 $267 forward $404 $-1 #
edge $-1 $270 9.0338095418848408 $405 12.710000912808317 $266 $406 forward 7 unknown #
coedge $-1 $407 $164 $403 $408 forward $159 $-1 #
coedge $-1 $164 $407 $262 $395 forward $159 $-1 #
vertex $-1 $267 $409 #
vertex $-1 $264 $410 #
straight-curve $-1 -75.362407300027456 0 9.0338095418848408 0 1 0 I I #
face $-1 $411 $412 $38 $-1 $413 reversed single #
loop $-1 $-1 $284 $166 #
plane-surface $-1 0 -35.126651027309777 0 0 1 0 0 0 1 forward_v I I I I #
coedge $-1 $414 $415 $416 $417 reversed $167 $-1 #
coedge $-1 $418 $169 $419 $420 reversed $105 $-1 #
coedge $-1 $169 $418 $421 $422 reversed $105 $-1 #
coedge $-1 $287 $286 $169 $280 forward $288 $-1 #
edge $-1 $423 -35.126651027309777 $424 35.126651027309777 $279 $425 forward 7 unknown #
coedge $-1 $171 $170 $415 $426 forward $67 $-1 #
coedge $-1 $427 $416 $170 $283 forward $412 $-1 #
edge $-1 $428 26.381092762775154 $289 41.447907279093243 $282 $429 forward 7 unknown #
coedge $-1 $430 $431 $171 $285 forward $274 $-1 #
edge $-1 $290 -41.447907279093243 $432 -26.381092762775154 $284 $433 forward 7 unknown #
coedge $-1 $279 $172 $431 $434 forward $288 $-1 #
coedge $-1 $172 $279 $427 $435 reversed $288 $-1 #
loop $-1 $-1 $172 $411 #
vertex $-1 $435 $436 #
vertex $-1 $434 $437 #
straight-curve $-1 75.362407300027456 0 3.973013773331771 0 -1 0 I I #
face $-1 $-1 $438 $39 $-1 $439 reversed single #
loop $-1 $-1 $180 $174 #
plane-surface $-1 0 0 12.710000912808317 0 0 1 1 0 0 forward_v I I I I #
coedge $-1 $440 $441 $442 $443 reversed $175 $-1 #
coedge $-1 $444 $177 $179 $302 forward $109 $-1 #
coedge $-1 $177 $444 $440 $445 forward $109 $-1 #
coedge $-1 $442 $180 $177 $299 forward $293 $-1 #
edge $-1 $305 18.920036164731158 $446 34.104234805216748 $298 $447 forward 7 unknown #
coedge $-1 $448 $449 $178 $301 forward $438 $-1 #
edge $-1 $450 -50.348605158337755 $304 -39.735468970985863 $300 $451 forward 7 unknown #
edge $-1 $305 -14.511632393357871 $450 2.0734513383776317e-014 $179 $452 forward 7 unknown #
coedge $-1 $180 $442 $448 $453 forward $293 $-1 #
vertex $-1 $301 $454 #
vertex $-1 $181 $455 #
straight-curve $-1 -45.432171649705111 -72.679901678302201 12.710000912808319 0 1 0 I I #
coedge $-1 $307 $307 $-1 $456 reversed $184 $-1 #
edge $-1 $457 0 $457 6.2831853071796004 $185 $458 forward 7 unknown #
vertex $-1 $188 $459 #
ellipse-curve $-1 -56.278027821480535 -30.178196344565979 7.4034328191323731 0 -0.73135370988377701 0.68199835119979291 2 0 0 1 I I #
coedge $-1 $311 $311 $-1 $460 reversed $191 $-1 #
edge $-1 $461 0 $461 6.2831853071796004 $192 $462 forward 7 unknown #
vertex $-1 $195 $463 #
ellipse-curve $-1 -49.770514118415278 -30.178196344565979 7.4034328191323731 0 -0.73135370988377701 0.68199835119979291 2 0 0 1 I I #
face $-1 $-1 $327 $42 $-1 $464 forward single #
loop $-1 $-1 $465 $196 #
plane-surface $-1 0 35.126651027309777 0 0 -1 0 0 0 -1 forward_v I I I I #
coedge $-1 $466 $467 $468 $469 reversed $197 $-1 #
coedge $-1 $470 $199 $201 $325 forward $123 $-1 #
coedge $-1 $199 $470 $466 $471 forward $123 $-1 #
coedge $-1 $468 $202 $199 $322 forward $327 $-1 #
edge $-1 $329 -26.247234413356992 $472 -11.610455119226362 $321 $473 forward 7 unknown #
coedge $-1 $474 $475 $200 $324 forward $316 $-1 #
edge $-1 $476 -72.851464169962412 $328 -66.34374967657233 $323 $477 forward 7 unknown #
edge $-1 $329 61.630495888573094 $476 70.25330205461961 $201 $478 forward 7 unknown #
coedge $-1 $202 $468 $474 $479 forward $327 $-1 #
loop $-1 $-1 $468 $315 #
vertex $-1 $324 $480 #
vertex $-1 $203 $481 #
straight-curve $-1 -45.176079179648667 51.394900686547771 12.710000912808312 0 -1 0 I I #
coedge $-1 $331 $331 $-1 $482 reversed $206 $-1 #
edge $-1 $483 0 $483 6.2831853071796004 $207 $484 forward 7 unknown #
vertex $-1 $210 $485 #
ellipse-curve $-1 -40.994142238468477 32.29811614818373 9.4561436661132792 0 0.75470958851134928 0.65605901945558964 1 0 0 1 I I #
coedge $-1 $335 $335 $-1 $486 reversed $213 $-1 #
edge $-1 $487 0 $487 6.2831853071796004 $214 $488 forward 7 unknown #
vertex $-1 $217 $489 #
ellipse-curve $-1 -34.721236826698203 32.29811614818373 9.4561436661132792 0 0.75470958851134928 0.65605901945558964 1 0 0 1 I I #
face $-1 $-1 $351 $45 $-1 $490 forward single #
loop $-1 $-1 $491 $218 #
plane-surface $-1 0 35.126651027309777 0 0 -1 0 0 0 -1 forward_v I I I I #
coedge $-1 $492 $493 $494 $495 reversed $219 $-1 #
coedge $-1 $496 $221 $223 $349 forward $137 $-1 #
coedge $-1 $221 $496 $492 $497 forward $137 $-1 #
coedge $-1 $494 $224 $221 $346 forward $351 $-1 #
edge $-1 $353 11.450066365985688 $498 26.086845660116317 $345 $499 forward 7 unknown #
coedge $-1 $500 $501 $222 $348 forward $340 $-1 #
edge $-1 $502 -72.851464169962412 $352 -66.34374967657233 $347 $503 forward 7 unknown #
edge $-1 $353 61.630495888573094 $502 70.25330205461961 $223 $504 forward 7 unknown #
coedge $-1 $224 $494 $500 $505 forward $351 $-1 #
loop $-1 $-1 $494 $339 #
vertex $-1 $348 $506 #
vertex $-1 $225 $507 #
straight-curve $-1 30.218522379036688 51.394900686547771 12.710000912808312 0 -1 0 I I #
coedge $-1 $355 $355 $-1 $508 reversed $228 $-1 #
edge $-1 $509 0 $509 6.2831853071796004 $229 $510 forward 7 unknown #
vertex $-1 $232 $511 #
ellipse-curve $-1 34.400459320216868 32.29811614818373 9.4561436661132792 0 0.75470958851134928 0.65605901945558964 1 0 0 1 I I #
coedge $-1 $359 $359 $-1 $512 reversed $235 $-1 #
edge $-1 $513 0 $513 6.2831853071796004 $236 $514 forward 7 unknown #
vertex $-1 $239 $515 #
ellipse-curve $-1 40.673364731987149 32.29811614818373 9.4561436661132792 0 0.75470958851134928 0.65605901945558964 1 0 0 1 I I #
face $-1 $-1 $255 $36 $-1 $516 reversed single #
loop $-1 $-1 $379 $240 #
plane-surface $-1 0 35.126651027309777 0 0 -1 0 0 0 -1 forward_v I I I I #
coedge $-1 $517 $377 $380 $518 forward $241 $-1 #
coedge $-1 $383 $243 $244 $371 reversed $151 $-1 #
coedge $-1 $377 $517 $243 $369 reversed $241 $-1 #
edge $-1 $384 -12.710000912808317 $519 12.710000912808317 $368 $520 forward 7 unknown #
coedge $-1 $245 $244 $517 $521 forward $97 $-1 #
edge $-1 $375 -75.362407300027456 $519 75.362407300027456 $367 $522 forward 7 unknown #
coedge $-1 $380 $379 $245 $373 reversed $364 $-1 #
edge $-1 $523 -75.362407300027456 $374 75.362407300027456 $372 $524 forward 7 unknown #
vertex $-1 $247 $525 #
vertex $-1 $386 $526 #
straight-curve $-1 75.362407300027456 0 -12.710000912808317 0 -1 0 I I #
coedge $-1 $366 $368 $248 $378 reversed $241 $-1 #
edge $-1 $381 -35.126651027309777 $384 35.126651027309777 $377 $527 forward 7 unknown #
coedge $-1 $372 $249 $254 $387 forward $364 $-1 #
coedge $-1 $249 $372 $366 $518 reversed $364 $-1 #
vertex $-1 $250 $528 #
straight-curve $-1 0 35.126651027309777 12.710000912808317 -1 0 0 I I #
coedge $-1 $251 $367 $253 $386 reversed $151 $-1 #
vertex $-1 $378 $529 #
straight-curve $-1 0 -35.126651027309777 12.710000912808317 1 0 0 I I #
edge $-1 $256 -12.710000912808317 $375 12.710000912808317 $253 $530 forward 7 unknown #
edge $-1 $257 -12.710000912808317 $374 12.710000912808317 $254 $531 forward 7 unknown #
point $-1 75.362407300027456 -35.126651027309777 12.710000912808317 #
point $-1 75.362407300027456 35.126651027309777 12.710000912808317 #
face $-1 $-1 $404 $37 $-1 $532 reversed single #
loop $-1 $-1 $400 $259 #
plane-surface $-1 0 0 12.710000912808317 0 0 1 1 0 0 forward_v I I I I #
coedge $-1 $533 $534 $394 $535 forward $260 $-1 #
coedge $-1 $263 $262 $393 $535 reversed $101 $-1 #
edge $-1 $536 -7.3730185049183774 $271 7.3730185049183774 $262 $537 forward 7 unknown #
coedge $-1 $538 $400 $263 $397 forward $391 $-1 #
edge $-1 $398 75.362407300027456 $539 90.108444309864211 $263 $540 forward 7 unknown #
vertex $-1 $397 $541 #
straight-curve $-1 -75.362407300027456 35.126651027309777 0 0 0 -1 I I #
coedge $-1 $396 $542 $265 $401 forward $391 $-1 #
edge $-1 $405 -35.126651027309777 $398 35.126651027309777 $400 $543 forward 7 unknown #
coedge $-1 $544 $266 $542 $545 reversed $404 $-1 #
coedge $-1 $266 $544 $268 $408 reversed $404 $-1 #
loop $-1 $-1 $266 $390 #
vertex $-1 $267 $546 #
straight-curve $-1 -75.362407300027456 -35.126651027309777 0 0 0 1 I I #
coedge $-1 $269 $268 $533 $547 forward $159 $-1 #
edge $-1 $270 -7.3730185049183774 $548 7.3730185049183774 $403 $549 forward 7 unknown #
point $-1 -75.362407300027456 -35.126651027309777 9.0338095418848408 #
point $-1 -75.362407300027456 35.126651027309777 9.0338095418848408 #
face $-1 $-1 $288 $38 $-1 $550 reversed single #
loop $-1 $-1 $282 $273 #
plane-surface $-1 0 35.126651027309777 0 0 -1 0 0 0 -1 forward_v I I I I #
coedge $-1 $551 $276 $418 $552 reversed $167 $-1 #
coedge $-1 $276 $551 $281 $426 reversed $167 $-1 #
coedge $-1 $282 $421 $276 $417 forward $412 $-1 #
edge $-1 $553 -0.46622034719486471 $428 2.8040826312861356 $416 $554 forward 7 unknown #
coedge $-1 $278 $277 $414 $552 forward $105 $-1 #
coedge $-1 $431 $430 $277 $420 forward $274 $-1 #
edge $-1 $555 26.381092762775154 $423 41.447907279093243 $419 $556 forward 7 unknown #
coedge $-1 $416 $427 $278 $422 forward $412 $-1 #
edge $-1 $424 -41.447907279093243 $553 -26.381092762775154 $421 $557 forward 7 unknown #
vertex $-1 $280 $558 #
vertex $-1 $280 $559 #
straight-curve $-1 75.362407300027456 0 0.7027107948507707 0 1 0 I I #
edge $-1 $428 -35.126651027309777 $432 35.126651027309777 $415 $560 forward 7 unknown #
coedge $-1 $421 $282 $287 $435 forward $412 $-1 #
vertex $-1 $283 $561 #
straight-curve $-1 33.914500020934199 35.126651027309777 3.973013773331771 1 0 0 I I #
coedge $-1 $419 $284 $551 $562 forward $274 $-1 #
coedge $-1 $284 $419 $286 $434 reversed $274 $-1 #
vertex $-1 $285 $563 #
straight-curve $-1 33.914500020934199 -35.126651027309777 3.973013773331771 -1 0 0 I I #
edge $-1 $290 -3.973013773331771 $423 -0.7027107948507707 $286 $564 forward 7 unknown #
edge $-1 $289 -3.973013773331771 $424 -0.7027107948507707 $287 $565 forward 7 unknown #
point $-1 75.362407300027442 35.126651027309777 3.973013773331771 #
point $-1 75.362407300027442 -35.126651027309777 3.973013773331771 #
loop $-1 $-1 $300 $292 #
plane-surface $-1 0 -35.126651027309777 0 0 1 0 0 0 1 forward_v I I I I #
coedge $-1 $441 $295 $297 $445 reversed $175 $-1 #
coedge $-1 $295 $440 $566 $567 reversed $175 $-1 #
coedge $-1 $303 $298 $295 $443 forward $293 $-1 #
edge $-1 $446 -47.450160016480012 $568 -37.553250650992425 $442 $569 forward 7 unknown #
coedge $-1 $297 $296 $449 $570 reversed $109 $-1 #
edge $-1 $571 -2.0734513383776317e-014 $446 14.511632393357871 $440 $572 forward 7 unknown #
vertex $-1 $299 $573 #
straight-curve $-1 -26.512135484973953 -25.229741661822185 12.710000912808317 -1 0 0 I I #
coedge $-1 $566 $300 $303 $453 reversed $438 $-1 #
coedge $-1 $300 $566 $444 $570 forward $438 $-1 #
vertex $-1 $301 $574 #
straight-curve $-1 -45.432171649705111 -35.126651027309777 52.445469883794182 0 0 1 I I #
straight-curve $-1 -45.432171649705111 -35.126651027309762 2.0968647254564416 0 -0.68199835119979291 -0.73135370988377701 I I #
edge $-1 $568 -60.616370290190702 $304 -45.432171649705111 $448 $575 forward 7 unknown #
point $-1 -45.432171649705111 -35.126651027309777 12.710000912808317 #
point $-1 -45.432171649705111 -25.229741661822189 12.710000912808317 #
edge $-1 $576 1 $576 0 $307 $-1 forward 7 unknown #
vertex $-1 $308 $577 #
ellipse-curve $-1 -56.278027821480535 -28.264048141812225 5.6184607863282139 0 -0.73135370988377701 0.68199835119979291 2 0 0 1 I I #
point $-1 -54.278027821480535 -30.178196344565993 7.4034328191323837 #
edge $-1 $578 1 $578 0 $311 $-1 forward 7 unknown #
vertex $-1 $312 $579 #
ellipse-curve $-1 -49.770514118415278 -28.264048141812225 5.6184607863282139 0 -0.73135370988377701 0.68199835119979291 2 0 0 1 I I #
point $-1 -47.770514118415278 -30.178196344565993 7.4034328191323837 #
plane-surface $-1 0 0 12.710000912808317 0 0 1 1 0 0 forward_v I I I I #
coedge $-1 $475 $474 $467 $580 forward $316 $-1 #
coedge $-1 $467 $318 $320 $471 reversed $197 $-1 #
coedge $-1 $318 $466 $465 $580 reversed $197 $-1 #
coedge $-1 $326 $321 $318 $469 forward $327 $-1 #
edge $-1 $472 -21.92531941749008 $581 -16.268249659237995 $468 $582 forward 7 unknown #
coedge $-1 $320 $319 $475 $583 reversed $123 $-1 #
edge $-1 $584 -70.25330205461961 $472 -61.630495888573094 $466 $585 forward 7 unknown #
vertex $-1 $322 $586 #
straight-curve $-1 -18.928844766291675 29.469581269057691 12.710000912808312 1 0 0 I I #
coedge $-1 $465 $323 $326 $479 reversed $316 $-1 #
coedge $-1 $323 $465 $470 $583 forward $316 $-1 #
vertex $-1 $324 $587 #
straight-curve $-1 -45.176079179648667 35.126651027309777 79.053750589380641 0 0 1 I I #
straight-curve $-1 -45.176079179648667 -10.963661432161317 59.223127104623714 0 0.65605901945558964 -0.75470958851134928 I I #
edge $-1 $581 30.539299885518037 $328 45.176079179648667 $474 $588 forward 7 unknown #
point $-1 -45.176079179648667 35.126651027309777 12.710000912808317 #
point $-1 -45.176079179648667 29.469581269057691 12.710000912808319 #
edge $-1 $589 1 $589 0 $331 $-1 forward 7 unknown #
vertex $-1 $332 $590 #
ellipse-curve $-1 -40.994142238468477 31.404174421772943 8.6790519987921879 0 0.75470958851134928 0.65605901945558964 1 0 0 1 I I #
point $-1 -39.994142238468477 32.298116148183738 9.4561436661132845 #
edge $-1 $591 1 $591 0 $335 $-1 forward 7 unknown #
vertex $-1 $336 $592 #
ellipse-curve $-1 -34.721236826698203 31.404174421772943 8.6790519987921879 0 0.75470958851134928 0.65605901945558964 1 0 0 1 I I #
point $-1 -33.721236826698203 32.298116148183738 9.4561436661132845 #
plane-surface $-1 0 0 12.710000912808317 0 0 1 1 0 0 forward_v I I I I #
coedge $-1 $501 $500 $493 $593 forward $340 $-1 #
coedge $-1 $493 $342 $344 $497 reversed $219 $-1 #
coedge $-1 $342 $492 $491 $593 reversed $219 $-1 #
coedge $-1 $350 $345 $342 $495 forward $351 $-1 #
edge $-1 $498 -21.92531941749008 $594 -16.268249659237995 $494 $595 forward 7 unknown #
coedge $-1 $344 $343 $501 $596 reversed $137 $-1 #
edge $-1 $597 -70.25330205461961 $498 -61.630495888573094 $492 $598 forward 7 unknown #
vertex $-1 $346 $599 #
straight-curve $-1 18.768456013051001 29.469581269057691 12.710000912808312 1 0 0 I I #
coedge $-1 $491 $347 $350 $505 reversed $340 $-1 #
coedge $-1 $347 $491 $496 $596 forward $340 $-1 #
vertex $-1 $348 $600 #
straight-curve $-1 30.218522379036688 35.126651027309777 79.053750589380641 0 0 1 I I #
straight-curve $-1 30.218522379036688 -10.963661432161317 59.223127104623714 0 0.65605901945558964 -0.75470958851134928 I I #
edge $-1 $594 -44.855301673167318 $352 -30.218522379036688 $500 $601 forward 7 unknown #
point $-1 30.218522379036688 35.126651027309777 12.710000912808317 #
point $-1 30.218522379036688 29.469581269057691 12.710000912808319 #
edge $-1 $602 1 $602 0 $355 $-1 forward 7 unknown #
vertex $-1 $356 $603 #
ellipse-curve $-1 34.400459320216868 31.404174421772943 8.6790519987921879 0 0.75470958851134928 0.65605901945558964 1 0 0 1 I I #
point $-1 35.400459320216868 32.298116148183738 9.4561436661132845 #
edge $-1 $604 1 $604 0 $359 $-1 forward 7 unknown #
vertex $-1 $360 $605 #
ellipse-curve $-1 40.673364731987149 31.404174421772943 8.6790519987921879 0 0.75470958851134928 0.65605901945558964 1 0 0 1 I I #
point $-1 41.673364731987149 32.298116148183738 9.4561436661132845 #
plane-surface $-1 75.362407300027456 0 0 -1 0 0 0 0 1 forward_v I I I I #
coedge $-1 $368 $366 $370 $521 reversed $241 $-1 #
edge $-1 $381 -12.710000912808317 $523 12.710000912808317 $380 $606 forward 7 unknown #
vertex $-1 $521 $607 #
straight-curve $-1 -75.362407300027456 -35.126651027309777 0 0 0 -1 I I #
edge $-1 $519 -35.126651027309777 $523 35.126651027309777 $517 $608 forward 7 unknown #
straight-curve $-1 0 -35.126651027309777 -12.710000912808317 -1 0 0 I I #
vertex $-1 $373 $609 #
straight-curve $-1 0 35.126651027309777 -12.710000912808317 1 0 0 I I #
point $-1 75.362407300027456 35.126651027309777 -12.710000912808317 #
point $-1 75.362407300027456 -35.126651027309777 -12.710000912808317 #
straight-curve $-1 -75.362407300027456 0 12.710000912808317 0 -1 0 I I #
point $-1 -75.362407300027456 35.126651027309777 12.710000912808317 #
point $-1 -75.362407300027456 -35.126651027309777 12.710000912808317 #
straight-curve $-1 75.362407300027456 -35.126651027309777 0 0 0 -1 I I #
straight-curve $-1 75.362407300027456 35.126651027309777 0 0 0 -1 I I #
plane-surface $-1 0 -35.126651027309777 0 0 1 0 0 0 1 forward_v I I I I #
coedge $-1 $610 $393 $407 $547 reversed $260 $-1 #
coedge $-1 $393 $610 $538 $611 reversed $260 $-1 #
edge $-1 $539 -1.8380956854617381 $536 1.8380956854617381 $394 $612 forward 7 unknown #
vertex $-1 $395 $613 #
straight-curve $-1 -82.735425804945834 35.126651027309777 9.0338095418848408 1 0 0 I I #
coedge $-1 $542 $396 $534 $611 forward $391 $-1 #
vertex $-1 $397 $614 #
straight-curve $-1 0 35.126651027309777 12.710000912808317 -1 0 0 I I #
point $-1 -75.362407300027456 35.126651027309777 12.710000912808317 #
coedge $-1 $400 $538 $402 $545 forward $391 $-1 #
straight-curve $-1 -75.362407300027456 0 12.710000912808317 0 1 0 I I #
coedge $-1 $403 $402 $610 $615 forward $404 $-1 #
edge $-1 $616 -90.108444309864211 $405 -75.362407300027456 $402 $617 forward 7 unknown #
point $-1 -75.362407300027456 -35.126651027309777 12.710000912808317 #
edge $-1 $548 -35.126651027309777 $536 35.126651027309777 $533 $618 forward 7 unknown #
vertex $-1 $547 $619 #
straight-curve $-1 -82.735425804945834 -35.126651027309777 9.0338095418848408 -1 0 0 I I #
plane-surface $-1 75.362407300027456 0 0 -1 0 0 0 0 1 forward_v I I I I #
coedge $-1 $415 $414 $430 $562 reversed $167 $-1 #
edge $-1 $555 -35.126651027309777 $553 35.126651027309777 $414 $620 forward 7 unknown #
vertex $-1 $422 $621 #
straight-curve $-1 60.295592783709353 35.126651027309777 1.1689311420456354 0 0 1 I I #
vertex $-1 $420 $622 #
straight-curve $-1 33.914500020934199 -35.126651027309777 0.7027107948507707 1 0 0 I I #
straight-curve $-1 33.914500020934199 35.126651027309777 0.7027107948507707 -1 0 0 I I #
point $-1 75.362407300027442 -35.126651027309777 0.7027107948507707 #
point $-1 75.362407300027442 35.126651027309777 0.7027107948507707 #
straight-curve $-1 60.295592783709353 0 3.973013773331771 0 -1 0 I I #
point $-1 60.295592783709353 35.126651027309777 3.973013773331771 #
edge $-1 $432 -2.8040826312861356 $555 0.46622034719486471 $430 $623 forward 7 unknown #
point $-1 60.295592783709353 -35.126651027309777 3.973013773331771 #
straight-curve $-1 75.362407300027456 -35.126651027309777 0 0 0 -1 I I #
straight-curve $-1 75.362407300027456 35.126651027309777 0 0 0 -1 I I #
coedge $-1 $449 $448 $441 $567 forward $438 $-1 #
edge $-1 $568 39.735468970985863 $571 50.348605158337755 $566 $624 forward 7 unknown #
vertex $-1 $453 $625 #
straight-curve $-1 -60.616370290190702 -72.679901678302201 12.710000912808319 0 -1 0 I I #
edge $-1 $571 -34.104234805216748 $450 -18.920036164731158 $449 $626 forward 7 unknown #
vertex $-1 $570 $627 #
straight-curve $-1 -60.616370290190702 -35.126651027309762 2.0968647254564416 0 0.68199835119979291 0.73135370988377701 I I #
point $-1 -60.616370290190702 -25.229741661822189 12.710000912808317 #
point $-1 -45.432171649705111 -35.126651027309777 2.0968647254564265 #
straight-curve $-1 0 -35.126651027309777 12.710000912808317 1 0 0 I I #
vertex $-1 $456 $628 #
point $-1 -54.278027821480535 -28.264048141812225 5.6184607863282139 #
vertex $-1 $460 $629 #
point $-1 -47.770514118415278 -28.264048141812225 5.6184607863282139 #
edge $-1 $581 66.34374967657233 $584 72.851464169962412 $465 $630 forward 7 unknown #
vertex $-1 $479 $631 #
straight-curve $-1 -30.539299885518037 51.394900686547771 12.710000912808312 0 1 0 I I #
edge $-1 $584 11.610455119226362 $476 26.247234413356992 $475 $632 forward 7 unknown #
vertex $-1 $583 $633 #
straight-curve $-1 -30.539299885518037 -10.963661432161317 59.223127104623714 0 -0.65605901945558964 0.75470958851134928 I I #
point $-1 -30.539299885518037 29.469581269057691 12.710000912808319 #
point $-1 -45.176079179648667 35.126651027309777 6.2022864194182361 #
straight-curve $-1 0 35.126651027309777 12.710000912808317 -1 0 0 I I #
vertex $-1 $482 $634 #
point $-1 -39.994142238468477 31.404174421772943 8.6790519987921879 #
vertex $-1 $486 $635 #
point $-1 -33.721236826698203 31.404174421772943 8.6790519987921879 #
edge $-1 $594 66.34374967657233 $597 72.851464169962412 $491 $636 forward 7 unknown #
vertex $-1 $505 $637 #
straight-curve $-1 44.855301673167318 51.394900686547771 12.710000912808312 0 1 0 I I #
edge $-1 $597 -26.086845660116317 $502 -11.450066365985688 $501 $638 forward 7 unknown #
vertex $-1 $596 $639 #
straight-curve $-1 44.855301673167318 -10.963661432161317 59.223127104623714 0 -0.65605901945558964 0.75470958851134928 I I #
point $-1 44.855301673167318 29.469581269057691 12.710000912808319 #
point $-1 30.218522379036688 35.126651027309777 6.2022864194182361 #
straight-curve $-1 0 35.126651027309777 12.710000912808317 -1 0 0 I I #
vertex $-1 $508 $640 #
point $-1 35.400459320216868 31.404174421772943 8.6790519987921879 #
vertex $-1 $512 $641 #
point $-1 41.673364731987149 31.404174421772943 8.6790519987921879 #
straight-curve $-1 -75.362407300027456 35.126651027309777 0 0 0 -1 I I #
point $-1 -75.362407300027456 -35.126651027309777 -12.710000912808317 #
straight-curve $-1 -75.362407300027456 0 -12.710000912808317 0 1 0 I I #
point $-1 -75.362407300027456 35.126651027309777 -12.710000912808317 #
coedge $-1 $534 $533 $544 $615 reversed $260 $-1 #
edge $-1 $539 -35.126651027309777 $616 35.126651027309777 $534 $642 forward 7 unknown #
straight-curve $-1 -90.108444309864211 35.126651027309777 10.871905227346579 0 0 -1 I I #
point $-1 -90.108444309864211 35.126651027309777 9.0338095418848408 #
point $-1 -90.108444309864211 35.126651027309777 12.710000912808317 #
edge $-1 $616 -1.8380956854617381 $548 1.8380956854617381 $610 $643 forward 7 unknown #
vertex $-1 $611 $644 #
straight-curve $-1 0 -35.126651027309777 12.710000912808317 1 0 0 I I #
straight-curve $-1 -90.108444309864211 0 9.0338095418848408 0 1 0 I I #
point $-1 -90.108444309864211 -35.126651027309777 9.0338095418848408 #
straight-curve $-1 60.295592783709353 0 0.7027107948507707 0 1 0 I I #
point $-1 60.295592783709353 35.126651027309777 0.7027107948507707 #
point $-1 60.295592783709353 -35.126651027309777 0.7027107948507707 #
straight-curve $-1 60.295592783709353 -35.126651027309777 1.1689311420456354 0 0 -1 I I #
straight-curve $-1 -60.616370290190702 -35.126651027309777 52.445469883794182 0 0 -1 I I #
point $-1 -60.616370290190702 -35.126651027309777 12.710000912808317 #
straight-curve $-1 -26.512135484973953 -35.126651027309777 2.0968647254564248 1 0 0 I I #
point $-1 -60.616370290190702 -35.126651027309777 2.0968647254564265 #
point $-1 -56.278027821480535 -26.801340722044671 4.2544640839286281 #
point $-1 -49.770514118415278 -26.801340722044671 4.2544640839286281 #
straight-curve $-1 -30.539299885518037 35.126651027309777 79.053750589380641 0 0 -1 I I #
point $-1 -30.539299885518037 35.126651027309777 12.710000912808317 #
straight-curve $-1 -18.928844766291675 35.126651027309777 6.202286419418229 -1 0 0 I I #
point $-1 -30.539299885518037 35.126651027309777 6.2022864194182361 #
point $-1 -40.994142238468477 30.649464833261597 8.0229929793365979 #
point $-1 -34.721236826698203 30.649464833261597 8.0229929793365979 #
straight-curve $-1 44.855301673167318 35.126651027309777 79.053750589380641 0 0 -1 I I #
point $-1 44.855301673167318 35.126651027309777 12.710000912808317 #
straight-curve $-1 18.768456013051001 35.126651027309777 6.202286419418229 -1 0 0 I I #
point $-1 44.855301673167318 35.126651027309777 6.2022864194182361 #
point $-1 34.400459320216868 30.649464833261597 8.0229929793365979 #
point $-1 40.673364731987149 30.649464833261597 8.0229929793365979 #
straight-curve $-1 -90.108444309864211 0 12.710000912808317 0 -1 0 I I #
straight-curve $-1 -90.108444309864211 -35.126651027309777 10.871905227346579 0 0 -1 I I #
point $-1 -90.108444309864211 -35.126651027309777 12.710000912808317 #
End-of-ACIS-data 