500 0 8 0           
7 Unknown 11 ACIS 5.0 NT 24 Thu Mar 25 20:20:30 1999 
-1 9.9999999999999995e-007 1e-010 
body $-1 $8 $-1 $9 #
body $-1 $10 $-1 $11 #
body $-1 $12 $-1 $13 #
body $-1 $14 $-1 $15 #
body $-1 $16 $-1 $17 #
body $-1 $18 $-1 $19 #
body $-1 $20 $-1 $21 #
body $-1 $22 $-1 $23 #
lump $-1 $-1 $24 $0 #
transform $-1 1 0 0 0 1 0 0 0 1 53.152256843775746 35.163185584700933 17.196876399878917 1 rotate no_reflect no_shear #
lump $-1 $-1 $25 $1 #
transform $-1 1 0 0 0 1 0 0 0 1 53.152256843775746 35.163185584700933 17.196876399878917 1 rotate no_reflect no_shear #
lump $-1 $-1 $26 $2 #
transform $-1 1 0 0 0 1 0 0 0 1 53.152256843775746 35.163185584700933 17.196876399878917 1 rotate no_reflect no_shear #
lump $-1 $-1 $27 $3 #
transform $-1 1 0 0 0 1 0 0 0 1 53.152256843775746 35.163185584700933 17.196876399878917 1 rotate no_reflect no_shear #
lump $-1 $-1 $28 $4 #
transform $-1 1 0 0 0 1 0 0 0 1 53.152256843775746 35.163185584700933 17.196876399878917 1 rotate no_reflect no_shear #
lump $-1 $-1 $29 $5 #
transform $-1 1 0 0 0 1 0 0 0 1 53.152256843775746 35.163185584700933 17.196876399878917 1 rotate no_reflect no_shear #
lump $-1 $-1 $30 $6 #
transform $-1 1 0 0 0 1 0 0 0 1 53.152256843775746 35.163185584700933 17.196876399878917 1 rotate no_reflect no_shear #
lump $-1 $-1 $31 $7 #
transform $-1 1 0 0 0 1 0 0 0 1 53.152256843775746 35.163185584700933 17.196876399878917 1 rotate no_reflect no_shear #
shell $-1 $-1 $-1 $32 $-1 $8 #
shell $-1 $-1 $-1 $33 $-1 $10 #
shell $-1 $-1 $-1 $34 $-1 $12 #
shell $-1 $-1 $-1 $35 $-1 $14 #
shell $-1 $-1 $-1 $36 $-1 $16 #
shell $-1 $-1 $-1 $37 $-1 $18 #
shell $-1 $-1 $-1 $38 $-1 $20 #
shell $-1 $-1 $-1 $39 $-1 $22 #
face $-1 $40 $41 $24 $-1 $42 forward single #
face $-1 $43 $44 $25 $-1 $45 reversed single #
face $-1 $46 $47 $26 $-1 $48 reversed single #
face $-1 $49 $50 $27 $-1 $51 forward single #
face $-1 $52 $53 $28 $-1 $54 forward single #
face $-1 $55 $56 $29 $-1 $57 reversed single #
face $-1 $58 $59 $30 $-1 $60 forward single #
face $-1 $61 $62 $31 $-1 $63 forward single #
face $-1 $64 $65 $24 $-1 $66 reversed single #
loop $-1 $-1 $67 $32 #
plane-surface $-1 0 0 17.196876399878917 0 0 1 1 0 0 forward_v I I I I #
face $-1 $68 $69 $25 $-1 $70 reversed single #
loop $-1 $-1 $71 $33 #
plane-surface $-1 0 -27.774831857407762 7.3494118580689207 0 0 1 1 0 0 forward_v I I I I #
face $-1 $72 $73 $26 $-1 $74 reversed single #
loop $-1 $-1 $75 $34 #
plane-surface $-1 68.866784182530395 32.91759592980933 150.89411169161002 0 -1 0 -0.77714596973225614 0 -0.62932038083071107 forward_v I I I I #
face $-1 $76 $77 $27 $-1 $78 forward single #
loop $-1 $79 $80 $35 #
cone-surface $-1 45.7248968368094 23.467959337025555 8.4599074932025609 -0.77714596973225614 0 -0.62932038083071107 0.62932038083071107 0 -0.77714596973225614 1 I I 0 1 1 forward I I I I #
face $-1 $81 $82 $28 $-1 $83 forward single #
loop $-1 $84 $85 $36 #
cone-surface $-1 45.7248968368094 29.137741292695829 8.4599074932025609 -0.77714596973225614 0 -0.62932038083071107 0.62932038083071107 0 -0.77714596973225614 1 I I 0 1 1 forward I I I I #
face $-1 $86 $87 $29 $-1 $88 reversed single #
loop $-1 $-1 $89 $37 #
plane-surface $-1 -53.152256843775746 -16.481978034315713 0.71489138644977857 -0.77714596973225614 0 0.62932038083071107 0.62932038083071107 0 0.77714596973225614 forward_v I I I I #
face $-1 $90 $91 $30 $-1 $92 forward single #
loop $-1 $93 $94 $38 #
cone-surface $-1 -45.786262926315999 -18.155335218229517 8.3950518230743967 0.77714596973225614 0 -0.62932038083071107 0.62932038083071107 0 0.77714596973225614 1 I I 0 1 1 forward I I I I #
face $-1 $95 $96 $31 $-1 $97 forward single #
loop $-1 $98 $99 $39 #
cone-surface $-1 -45.786262926315999 -14.808620850401912 8.3950518230743967 0.77714596973225614 0 -0.62932038083071107 0.62932038083071107 0 0.77714596973225614 1 I I 0 1 1 forward I I I I #
face $-1 $100 $101 $24 $-1 $102 reversed single #
loop $-1 $-1 $103 $40 #
plane-surface $-1 0 0 -17.196876399878917 0 0 1 1 0 0 forward_v I I I I #
coedge $-1 $104 $105 $106 $107 forward $41 $-1 #
face $-1 $108 $109 $25 $-1 $110 reversed single #
loop $-1 $-1 $111 $43 #
plane-surface $-1 0 -20.38647813011459 12.273144128973918 0 -1 0 0 0 -1 forward_v I I I I #
coedge $-1 $112 $113 $114 $115 reversed $44 $-1 #
face $-1 $116 $117 $26 $-1 $118 reversed single #
loop $-1 $-1 $119 $46 #
plane-surface $-1 -13.747340194097703 26.302850314860684 83.994514653736573 0.77714596973225614 0 0.62932038083071107 0.62932038083071107 0 -0.77714596973225614 forward_v I I I I #
coedge $-1 $120 $121 $122 $123 reversed $47 $-1 #
face $-1 $-1 $124 $27 $-1 $125 forward single #
loop $-1 $126 $127 $49 #
cone-surface $-1 44.312932634530569 23.467959337025555 7.3165214574960658 -0.77714596973225614 0 -0.62932038083071107 0.31466019041535553 0 -0.38857298486612807 1 I I -0.70710678118654746 0.70710678118654746 0.5 forward I I I I #
loop $-1 $-1 $128 $35 #
coedge $-1 $80 $80 $129 $130 reversed $50 $-1 #
face $-1 $-1 $131 $28 $-1 $132 forward single #
loop $-1 $133 $134 $52 #
cone-surface $-1 44.312932634530569 29.137741292695829 7.3165214574960658 -0.77714596973225614 0 -0.62932038083071107 0.31466019041535553 0 -0.38857298486612807 1 I I -0.70710678118654746 0.70710678118654746 0.5 forward I I I I #
loop $-1 $-1 $135 $36 #
coedge $-1 $85 $85 $136 $137 reversed $53 $-1 #
face $-1 $138 $139 $29 $-1 $140 forward single #
loop $-1 $-1 $141 $55 #
plane-surface $-1 -135.76638122040384 -12.577477938516839 67.614488424323227 0 -1 0 0.77714596973225614 0 -0.62932038083071107 forward_v I I I I #
coedge $-1 $142 $143 $144 $145 reversed $56 $-1 #
face $-1 $-1 $146 $30 $-1 $147 forward single #
loop $-1 $148 $149 $58 #
cone-surface $-1 -44.705119994181231 -18.155335218229517 7.5195595625690856 0.77714596973225614 0 -0.62932038083071107 0.31466019041535553 0 0.38857298486612807 1 I I -0.70710678118654746 0.70710678118654746 0.5 forward I I I I #
loop $-1 $-1 $150 $38 #
coedge $-1 $94 $94 $151 $152 reversed $59 $-1 #
face $-1 $-1 $153 $31 $-1 $154 forward single #
loop $-1 $155 $156 $61 #
cone-surface $-1 -44.705119994181231 -14.808620850401912 7.5195595625690856 0.77714596973225614 0 -0.62932038083071107 0.31466019041535553 0 0.38857298486612807 1 I I -0.70710678118654746 0.70710678118654746 0.5 forward I I I I #
loop $-1 $-1 $157 $39 #
coedge $-1 $99 $99 $158 $159 reversed $62 $-1 #
face $-1 $160 $161 $24 $-1 $162 reversed single #
loop $-1 $-1 $163 $64 #
plane-surface $-1 0 -35.163185584700933 0 0 1 0 0 0 1 forward_v I I I I #
coedge $-1 $164 $165 $166 $167 forward $65 $-1 #
coedge $-1 $168 $67 $169 $170 forward $41 $-1 #
coedge $-1 $67 $168 $171 $172 forward $41 $-1 #
coedge $-1 $173 $174 $67 $107 reversed $175 $-1 #
edge $-1 $176 -35.163185584700933 $177 35.163185584700933 $106 $178 forward 7 unknown #
face $-1 $179 $180 $25 $-1 $181 reversed single #
loop $-1 $-1 $182 $68 #
plane-surface $-1 -53.152256843775746 0 0 1 0 0 0 0 -1 forward_v I I I I #
coedge $-1 $183 $184 $185 $186 reversed $69 $-1 #
coedge $-1 $187 $71 $188 $189 reversed $44 $-1 #
coedge $-1 $71 $187 $190 $191 forward $44 $-1 #
coedge $-1 $192 $193 $71 $115 forward $194 $-1 #
edge $-1 $195 -21.275769655997053 $196 -6.4990622014107089 $114 $197 forward 7 unknown #
face $-1 $198 $199 $26 $-1 $200 reversed single #
loop $-1 $-1 $201 $72 #
plane-surface $-1 68.866784182530395 19.688104699912039 150.89411169161002 0 1 0 0.77714596973225614 0 0.62932038083071107 forward_v I I I I #
coedge $-1 $202 $203 $204 $205 reversed $73 $-1 #
coedge $-1 $121 $75 $206 $207 reversed $47 $-1 #
coedge $-1 $75 $120 $202 $208 reversed $47 $-1 #
coedge $-1 $204 $209 $75 $123 forward $210 $-1 #
edge $-1 $211 -18.718864752510548 $212 -5.9109271734032376 $122 $213 forward 7 unknown #
loop $-1 $-1 $129 $76 #
plane-surface $-1 -13.747340194097703 26.302850314860684 83.994514653736573 0.77714596973225614 0 0.62932038083071107 0.62932038083071107 0 -0.77714596973225614 forward_v I I I I #
loop $-1 $-1 $214 $49 #
coedge $-1 $127 $127 $128 $215 reversed $77 $-1 #
coedge $-1 $128 $128 $127 $215 forward $79 $-1 #
coedge $-1 $129 $129 $80 $130 forward $124 $-1 #
edge $-1 $216 0 $216 6.2831853071796004 $129 $217 forward 7 unknown #
loop $-1 $-1 $136 $81 #
plane-surface $-1 -13.747340194097703 26.302850314860684 83.994514653736573 0.77714596973225614 0 0.62932038083071107 0.62932038083071107 0 -0.77714596973225614 forward_v I I I I #
loop $-1 $-1 $218 $52 #
coedge $-1 $134 $134 $135 $219 reversed $82 $-1 #
coedge $-1 $135 $135 $134 $219 forward $84 $-1 #
coedge $-1 $136 $136 $85 $137 forward $131 $-1 #
edge $-1 $220 0 $220 6.2831853071796004 $136 $221 forward 7 unknown #
face $-1 $222 $223 $29 $-1 $224 reversed single #
loop $-1 $-1 $144 $86 #
plane-surface $-1 0 0 17.196876399878917 0 0 1 1 0 0 forward_v I I I I #
coedge $-1 $225 $226 $227 $228 reversed $87 $-1 #
coedge $-1 $229 $89 $230 $231 reversed $56 $-1 #
coedge $-1 $89 $229 $225 $232 forward $56 $-1 #
coedge $-1 $227 $233 $89 $145 forward $139 $-1 #
edge $-1 $234 -12.14548911295673 $235 -4.336488921358983 $144 $236 forward 7 unknown #
loop $-1 $-1 $151 $90 #
plane-surface $-1 -53.152256843775746 -16.481978034315713 0.71489138644977857 -0.77714596973225614 0 0.62932038083071107 0.62932038083071107 0 0.77714596973225614 forward_v I I I I #
loop $-1 $-1 $237 $58 #
coedge $-1 $149 $149 $150 $238 reversed $91 $-1 #
coedge $-1 $150 $150 $149 $238 forward $93 $-1 #
coedge $-1 $151 $151 $94 $152 forward $146 $-1 #
edge $-1 $239 0 $239 6.2831853071796004 $151 $240 forward 7 unknown #
loop $-1 $-1 $158 $95 #
plane-surface $-1 -53.152256843775746 -16.481978034315713 0.71489138644977857 -0.77714596973225614 0 0.62932038083071107 0.62932038083071107 0 0.77714596973225614 forward_v I I I I #
loop $-1 $-1 $241 $61 #
coedge $-1 $156 $156 $157 $242 reversed $96 $-1 #
coedge $-1 $157 $157 $156 $242 forward $98 $-1 #
coedge $-1 $158 $158 $99 $159 forward $153 $-1 #
edge $-1 $243 0 $243 6.2831853071796004 $158 $244 forward 7 unknown #
face $-1 $245 $246 $24 $-1 $247 reversed single #
loop $-1 $-1 $248 $100 #
plane-surface $-1 -53.152256843775746 0 0 1 0 0 0 0 -1 forward_v I I I I #
coedge $-1 $249 $171 $250 $251 forward $101 $-1 #
coedge $-1 $252 $103 $249 $253 forward $65 $-1 #
coedge $-1 $103 $252 $254 $255 forward $65 $-1 #
coedge $-1 $174 $173 $103 $167 reversed $175 $-1 #
edge $-1 $256 -35.163185584700933 $257 35.163185584700933 $166 $258 forward 7 unknown #
coedge $-1 $105 $104 $259 $260 forward $41 $-1 #
coedge $-1 $261 $262 $104 $170 reversed $246 $-1 #
edge $-1 $177 -53.152256843775746 $263 53.152256843775746 $169 $264 forward 7 unknown #
coedge $-1 $163 $265 $105 $172 reversed $101 $-1 #
edge $-1 $266 -53.152256843775746 $176 53.152256843775746 $171 $267 forward 7 unknown #
coedge $-1 $166 $106 $265 $268 forward $175 $-1 #
coedge $-1 $106 $166 $261 $269 reversed $175 $-1 #
loop $-1 $-1 $173 $245 #
vertex $-1 $107 $270 #
vertex $-1 $107 $271 #
straight-curve $-1 53.152256843775746 0 17.196876399878917 0 1 0 I I #
face $-1 $272 $273 $25 $-1 $274 forward single #
loop $-1 $-1 $188 $108 #
plane-surface $-1 0 -35.163185584700933 0 0 1 0 0 0 1 forward_v I I I I #
coedge $-1 $275 $276 $184 $277 forward $109 $-1 #
coedge $-1 $190 $111 $192 $278 reversed $69 $-1 #
coedge $-1 $111 $190 $182 $277 reversed $69 $-1 #
coedge $-1 $279 $280 $111 $186 forward $273 $-1 #
edge $-1 $281 -53.152256843775746 $282 53.152256843775746 $185 $283 forward 7 unknown #
coedge $-1 $113 $112 $275 $284 reversed $44 $-1 #
coedge $-1 $285 $286 $112 $189 forward $180 $-1 #
edge $-1 $287 -53.152256843775746 $195 53.152256843775746 $188 $288 forward 7 unknown #
coedge $-1 $184 $183 $113 $191 reversed $69 $-1 #
edge $-1 $289 -53.152256843775746 $196 53.152256843775746 $190 $290 forward 7 unknown #
coedge $-1 $291 $114 $183 $278 forward $194 $-1 #
coedge $-1 $114 $291 $285 $292 forward $194 $-1 #
loop $-1 $-1 $192 $272 #
vertex $-1 $189 $293 #
vertex $-1 $115 $294 #
straight-curve $-1 53.152256843775746 -13.887415928703881 7.3494118580689207 0 1 0 I I #
face $-1 $-1 $210 $26 $-1 $295 forward single #
loop $-1 $-1 $296 $116 #
plane-surface $-1 53.152256843775746 0 0 -1 0 0 0 0 1 forward_v I I I I #
coedge $-1 $297 $298 $299 $300 reversed $117 $-1 #
coedge $-1 $301 $119 $121 $208 forward $73 $-1 #
coedge $-1 $119 $301 $297 $302 forward $73 $-1 #
coedge $-1 $299 $122 $119 $205 forward $210 $-1 #
edge $-1 $212 -19.766170772378988 $303 -6.5366795424816964 $204 $304 forward 7 unknown #
coedge $-1 $305 $306 $120 $207 forward $199 $-1 #
edge $-1 $307 -74.06666556869655 $211 -58.250179445926094 $206 $308 forward 7 unknown #
edge $-1 $212 85.952499086974498 $307 106.30451368755151 $121 $309 forward 7 unknown #
coedge $-1 $122 $299 $305 $310 forward $210 $-1 #
loop $-1 $-1 $299 $198 #
vertex $-1 $207 $311 #
vertex $-1 $123 $312 #
straight-curve $-1 34.433392091265198 32.91759592980933 17.196876399878917 -1 0 0 I I #
coedge $-1 $214 $214 $-1 $313 reversed $126 $-1 #
edge $-1 $314 0 $314 6.2831853071796004 $127 $315 forward 7 unknown #
vertex $-1 $130 $316 #
ellipse-curve $-1 46.748288054222087 23.467959337025555 9.2886333384936908 0.77714596973225614 0 0.62932038083071107 0.62932038083071107 0 -0.77714596973225614 1 I I #
coedge $-1 $218 $218 $-1 $317 reversed $133 $-1 #
edge $-1 $318 0 $318 6.2831853071796004 $134 $319 forward 7 unknown #
vertex $-1 $137 $320 #
ellipse-curve $-1 46.748288054222087 29.137741292695829 9.2886333384936908 0.77714596973225614 0 0.62932038083071107 0.62932038083071107 0 -0.77714596973225614 1 I I #
face $-1 $-1 $321 $29 $-1 $322 forward single #
loop $-1 $-1 $323 $138 #
plane-surface $-1 -53.152256843775746 0 0 1 0 0 0 0 -1 forward_v I I I I #
coedge $-1 $226 $141 $143 $232 reversed $87 $-1 #
coedge $-1 $141 $225 $323 $324 reversed $87 $-1 #
coedge $-1 $325 $144 $141 $228 forward $139 $-1 #
edge $-1 $235 -28.077781706808388 $326 -14.730933766426176 $227 $327 forward 7 unknown #
coedge $-1 $143 $142 $328 $329 reversed $56 $-1 #
coedge $-1 $330 $331 $142 $231 forward $321 $-1 #
edge $-1 $332 -21.216124027468073 $234 -0.0077723723632474222 $230 $333 forward 7 unknown #
edge $-1 $334 0 $235 21.208351655104824 $225 $335 forward 7 unknown #
coedge $-1 $144 $325 $330 $336 forward $139 $-1 #
vertex $-1 $231 $337 #
vertex $-1 $145 $338 #
straight-curve $-1 -39.805408903393534 -8.2409890171578564 17.196876399878917 0 1 0 I I #
coedge $-1 $237 $237 $-1 $339 reversed $148 $-1 #
edge $-1 $340 0 $340 6.2831853071796004 $149 $341 forward 7 unknown #
vertex $-1 $152 $342 #
ellipse-curve $-1 -46.478832873584636 -18.155335218229517 8.9558838931643514 -0.77714596973225614 0 0.62932038083071107 0.62932038083071107 0 0.77714596973225614 1 I I #
coedge $-1 $241 $241 $-1 $343 reversed $155 $-1 #
edge $-1 $344 0 $344 6.2831853071796004 $156 $345 forward 7 unknown #
vertex $-1 $159 $346 #
ellipse-curve $-1 -46.478832873584636 -14.808620850401912 8.9558838931643514 -0.77714596973225614 0 0.62932038083071107 0.62932038083071107 0 0.77714596973225614 1 I I #
face $-1 $-1 $175 $24 $-1 $347 reversed single #
loop $-1 $-1 $261 $160 #
plane-surface $-1 0 35.163185584700933 0 0 -1 0 0 0 -1 forward_v I I I I #
coedge $-1 $348 $259 $262 $349 forward $161 $-1 #
coedge $-1 $265 $163 $164 $253 reversed $101 $-1 #
coedge $-1 $259 $348 $163 $251 reversed $161 $-1 #
edge $-1 $266 -17.196876399878917 $350 17.196876399878917 $250 $351 forward 7 unknown #
coedge $-1 $165 $164 $348 $352 forward $65 $-1 #
edge $-1 $257 -53.152256843775746 $350 53.152256843775746 $249 $353 forward 7 unknown #
coedge $-1 $262 $261 $165 $255 reversed $246 $-1 #
edge $-1 $354 -53.152256843775746 $256 53.152256843775746 $254 $355 forward 7 unknown #
vertex $-1 $167 $356 #
vertex $-1 $268 $357 #
straight-curve $-1 53.152256843775746 0 -17.196876399878917 0 -1 0 I I #
coedge $-1 $248 $250 $168 $260 reversed $161 $-1 #
edge $-1 $263 -35.163185584700933 $266 35.163185584700933 $259 $358 forward 7 unknown #
coedge $-1 $254 $169 $174 $269 forward $246 $-1 #
coedge $-1 $169 $254 $248 $349 reversed $246 $-1 #
vertex $-1 $170 $359 #
straight-curve $-1 0 35.163185584700933 17.196876399878917 -1 0 0 I I #
coedge $-1 $171 $249 $173 $268 reversed $101 $-1 #
vertex $-1 $260 $360 #
straight-curve $-1 0 -35.163185584700933 17.196876399878917 1 0 0 I I #
edge $-1 $176 -17.196876399878917 $257 17.196876399878917 $173 $361 forward 7 unknown #
edge $-1 $177 -17.196876399878917 $256 17.196876399878917 $174 $362 forward 7 unknown #
point $-1 53.152256843775746 -35.163185584700933 17.196876399878917 #
point $-1 53.152256843775746 35.163185584700933 17.196876399878917 #
face $-1 $-1 $194 $25 $-1 $363 reversed single #
loop $-1 $-1 $185 $179 #
plane-surface $-1 0 0 17.196876399878917 0 0 1 1 0 0 forward_v I I I I #
coedge $-1 $364 $182 $187 $284 forward $109 $-1 #
coedge $-1 $182 $364 $279 $365 reversed $109 $-1 #
edge $-1 $282 -11.060304335391958 $289 -1.2128397935819617 $182 $366 forward 7 unknown #
edge $-1 $196 1.2128397935819617 $281 11.060304335391958 $192 $367 forward 7 unknown #
coedge $-1 $368 $185 $276 $365 forward $273 $-1 #
coedge $-1 $185 $368 $291 $369 forward $273 $-1 #
vertex $-1 $278 $370 #
vertex $-1 $365 $371 #
straight-curve $-1 0 -20.38647813011459 17.196876399878917 -1 0 0 I I #
edge $-1 $289 6.4990622014107089 $287 21.275769655997053 $275 $372 forward 7 unknown #
coedge $-1 $373 $188 $193 $292 reversed $180 $-1 #
coedge $-1 $188 $373 $364 $374 forward $180 $-1 #
vertex $-1 $189 $375 #
straight-curve $-1 0 -35.163185584700933 7.3494118580689207 1 0 0 I I #
vertex $-1 $284 $376 #
straight-curve $-1 0 -20.38647813011459 7.3494118580689207 1 0 0 I I #
coedge $-1 $193 $192 $280 $369 reversed $194 $-1 #
edge $-1 $377 -17.196876399878917 $195 -7.3494118580689207 $193 $378 forward 7 unknown #
point $-1 53.152256843775746 -35.163185584700933 7.3494118580689207 #
point $-1 53.152256843775746 -20.38647813011459 7.3494118580689207 #
plane-surface $-1 0 0 17.196876399878917 0 0 1 1 0 0 forward_v I I I I #
coedge $-1 $306 $305 $298 $379 forward $199 $-1 #
coedge $-1 $298 $201 $203 $302 reversed $117 $-1 #
coedge $-1 $201 $297 $296 $379 reversed $117 $-1 #
coedge $-1 $209 $204 $201 $300 forward $210 $-1 #
edge $-1 $303 5.9109271734032376 $380 18.718864752510548 $299 $381 forward 7 unknown #
coedge $-1 $203 $202 $306 $382 reversed $73 $-1 #
edge $-1 $383 -106.30451368755151 $303 -85.952499086974498 $297 $384 forward 7 unknown #
vertex $-1 $205 $385 #
straight-curve $-1 40.344319264668435 13.151425157430342 17.196876399878924 0 -1 0 I I #
coedge $-1 $296 $206 $209 $310 reversed $199 $-1 #
coedge $-1 $206 $296 $301 $382 forward $199 $-1 #
vertex $-1 $207 $386 #
straight-curve $-1 53.152256843775746 32.91759592980933 75.447055845805011 0 0 1 I I #
straight-curve $-1 -13.747340194097703 32.91759592980933 83.994514653736573 0.62932038083071107 0 -0.77714596973225614 I I #
edge $-1 $380 19.688104699912039 $211 32.91759592980933 $305 $387 forward 7 unknown #
point $-1 53.152256843775746 32.91759592980933 17.196876399878917 #
point $-1 40.344319264668435 32.91759592980933 17.196876399878917 #
edge $-1 $388 1 $388 0 $214 $-1 forward 7 unknown #
vertex $-1 $215 $389 #
ellipse-curve $-1 44.701505619396698 23.467959337025555 7.6311816479114212 0.77714596973225614 0 0.62932038083071107 0.62932038083071107 0 -0.77714596973225614 1 I I #
point $-1 47.377608435052814 23.467959337025555 8.5114873687614452 #
edge $-1 $390 1 $390 0 $218 $-1 forward 7 unknown #
vertex $-1 $219 $391 #
ellipse-curve $-1 44.701505619396698 29.137741292695829 7.6311816479114212 0.77714596973225614 0 0.62932038083071107 0.62932038083071107 0 -0.77714596973225614 1 I I #
point $-1 47.377608435052814 29.137741292695829 8.5114873687614452 #
loop $-1 $-1 $230 $222 #
plane-surface $-1 0 -20.38647813011459 12.273144128973918 0 -1 0 0 0 -1 forward_v I I I I #
coedge $-1 $328 $392 $226 $324 forward $223 $-1 #
edge $-1 $326 16.610367812282696 $334 33.092352825711835 $323 $393 forward 7 unknown #
coedge $-1 $233 $227 $392 $394 forward $139 $-1 #
vertex $-1 $394 $395 #
straight-curve $-1 -67.883190610201922 -12.577477938516839 17.196876399878917 -1 0 0 I I #
coedge $-1 $396 $323 $229 $329 forward $223 $-1 #
edge $-1 $334 4.336488921358983 $332 12.14548911295673 $328 $397 forward 7 unknown #
coedge $-1 $331 $230 $233 $336 reversed $321 $-1 #
coedge $-1 $230 $330 $396 $398 reversed $321 $-1 #
vertex $-1 $398 $399 #
straight-curve $-1 -39.80051759105794 -20.38647813011459 17.202916667736275 0.62932038083071107 0 0.77714596973225614 I I #
vertex $-1 $329 $400 #
straight-curve $-1 -53.152256843775746 -12.577477938516839 0.71489138644977857 0.62932038083071107 0 0.77714596973225614 I I #
edge $-1 $401 -53.152256843775746 $234 -39.805408903393534 $233 $402 forward 7 unknown #
point $-1 -39.805408903393534 -20.386478130114586 17.196876399878917 #
point $-1 -39.805408903393534 -12.577477938516839 17.196876399878917 #
edge $-1 $403 1 $403 0 $237 $-1 forward 7 unknown #
vertex $-1 $238 $404 #
ellipse-curve $-1 -45.093692979047361 -18.155335218229517 7.8342197529844411 -0.77714596973225614 0 0.62932038083071107 0.62932038083071107 0 0.77714596973225614 1 I I #
point $-1 -45.849512492753931 -18.155335218229517 9.7330298628966094 #
edge $-1 $405 1 $405 0 $241 $-1 forward 7 unknown #
vertex $-1 $242 $406 #
ellipse-curve $-1 -45.093692979047361 -14.808620850401912 7.8342197529844411 -0.77714596973225614 0 0.62932038083071107 0.62932038083071107 0 0.77714596973225614 1 I I #
point $-1 -45.849512492753931 -14.808620850401912 9.7330298628966094 #
plane-surface $-1 53.152256843775746 0 0 -1 0 0 0 0 1 forward_v I I I I #
coedge $-1 $250 $248 $252 $352 reversed $161 $-1 #
edge $-1 $263 -17.196876399878917 $354 17.196876399878917 $262 $407 forward 7 unknown #
vertex $-1 $352 $408 #
straight-curve $-1 -53.152256843775746 -35.163185584700933 0 0 0 -1 I I #
edge $-1 $350 -35.163185584700933 $354 35.163185584700933 $348 $409 forward 7 unknown #
straight-curve $-1 0 -35.163185584700933 -17.196876399878917 -1 0 0 I I #
vertex $-1 $255 $410 #
straight-curve $-1 0 35.163185584700933 -17.196876399878917 1 0 0 I I #
point $-1 53.152256843775746 35.163185584700933 -17.196876399878917 #
point $-1 53.152256843775746 -35.163185584700933 -17.196876399878917 #
straight-curve $-1 -53.152256843775746 0 17.196876399878917 0 -1 0 I I #
point $-1 -53.152256843775746 35.163185584700933 17.196876399878917 #
point $-1 -53.152256843775746 -35.163185584700933 17.196876399878917 #
straight-curve $-1 53.152256843775746 -35.163185584700933 0 0 0 -1 I I #
straight-curve $-1 53.152256843775746 35.163185584700933 0 0 0 -1 I I #
plane-surface $-1 53.152256843775746 0 0 -1 0 0 0 0 1 forward_v I I I I #
coedge $-1 $276 $275 $286 $374 reversed $109 $-1 #
edge $-1 $282 20.38647813011459 $411 35.163185584700933 $276 $412 forward 7 unknown #
straight-curve $-1 -53.152256843775746 -20.38647813011459 6.136572064486959 0 0 -1 I I #
straight-curve $-1 53.152256843775746 -20.38647813011459 6.136572064486959 0 0 1 I I #
coedge $-1 $280 $279 $373 $413 forward $273 $-1 #
edge $-1 $377 -35.163185584700933 $281 -20.38647813011459 $291 $414 forward 7 unknown #
point $-1 53.152256843775746 -20.38647813011459 17.196876399878917 #
point $-1 -53.152256843775746 -20.38647813011459 17.196876399878917 #
straight-curve $-1 -53.152256843775746 -13.887415928703881 7.3494118580689207 0 -1 0 I I #
coedge $-1 $286 $285 $368 $413 reversed $180 $-1 #
edge $-1 $411 -17.196876399878917 $287 -7.3494118580689207 $364 $415 forward 7 unknown #
point $-1 -53.152256843775746 -35.163185584700933 7.3494118580689207 #
point $-1 -53.152256843775746 -20.38647813011459 7.3494118580689207 #
vertex $-1 $369 $416 #
straight-curve $-1 53.152256843775746 -35.163185584700933 0 0 0 -1 I I #
edge $-1 $380 58.250179445926094 $383 74.06666556869655 $296 $417 forward 7 unknown #
vertex $-1 $310 $418 #
straight-curve $-1 34.433392091265198 19.688104699912039 17.196876399878917 1 0 0 I I #
edge $-1 $383 6.5366795424816964 $307 19.766170772378988 $306 $419 forward 7 unknown #
vertex $-1 $382 $420 #
straight-curve $-1 -13.747340194097703 19.688104699912039 83.994514653736573 -0.62932038083071107 0 0.77714596973225614 I I #
point $-1 40.344319264668435 19.688104699912039 17.196876399878917 #
point $-1 53.152256843775746 32.91759592980933 1.3803902771084609 #
straight-curve $-1 53.152256843775746 0 17.196876399878917 0 1 0 I I #
vertex $-1 $313 $421 #
point $-1 45.330826000227411 23.467959337025555 6.8540356781791649 #
vertex $-1 $317 $422 #
point $-1 45.330826000227411 29.137741292695829 6.8540356781791649 #
coedge $-1 $323 $396 $325 $394 reversed $223 $-1 #
straight-curve $-1 -53.152256843775746 -12.577477938516839 33.807244212161613 0 0 -1 I I #
edge $-1 $326 12.577477938516839 $401 20.38647813011459 $392 $423 forward 7 unknown #
point $-1 -53.152256843775746 -12.577477938516839 17.196876399878917 #
coedge $-1 $392 $328 $331 $398 forward $223 $-1 #
straight-curve $-1 -53.152256843775746 -8.2409890171578564 0.71489138644977657 0 -1 0 I I #
edge $-1 $332 -33.092352825711835 $401 -16.610367812282696 $396 $424 forward 7 unknown #
point $-1 -53.152256843775746 -20.386478130114586 0.71489138644977857 #
point $-1 -53.152256843775746 -12.577477938516839 0.71489138644977857 #
vertex $-1 $398 $425 #
straight-curve $-1 0 -20.38647813011459 17.196876399878917 1 0 0 I I #
vertex $-1 $339 $426 #
point $-1 -44.464372598216649 -18.155335218229517 8.6113657227166982 #
vertex $-1 $343 $427 #
point $-1 -44.464372598216649 -14.808620850401912 8.6113657227166982 #
straight-curve $-1 -53.152256843775746 35.163185584700933 0 0 0 -1 I I #
point $-1 -53.152256843775746 -35.163185584700933 -17.196876399878917 #
straight-curve $-1 -53.152256843775746 0 -17.196876399878917 0 1 0 I I #
point $-1 -53.152256843775746 35.163185584700933 -17.196876399878917 #
vertex $-1 $365 $428 #
straight-curve $-1 -53.152256843775746 0 17.196876399878917 0 -1 0 I I #
edge $-1 $411 -53.152256843775746 $377 53.152256843775746 $373 $429 forward 7 unknown #
straight-curve $-1 53.152256843775746 0 17.196876399878917 0 1 0 I I #
straight-curve $-1 -53.152256843775746 -35.163185584700933 0 0 0 -1 I I #
point $-1 53.152256843775746 -35.163185584700933 17.196876399878917 #
straight-curve $-1 53.152256843775746 19.688104699912039 75.447055845805011 0 0 -1 I I #
point $-1 53.152256843775746 19.688104699912039 17.196876399878917 #
straight-curve $-1 53.152256843775746 13.151425157430342 1.3803902771084537 0 1 0 I I #
point $-1 53.152256843775746 19.688104699912039 1.3803902771084609 #
point $-1 43.924359649664439 23.467959337025555 7.0018612670807103 #
point $-1 43.924359649664439 29.137741292695829 7.0018612670807103 #
straight-curve $-1 -53.152256843775746 0 17.196876399878917 0 -1 0 I I #
straight-curve $-1 -53.152256843775746 -20.386478130114586 33.807244212161613 0 0 1 I I #
point $-1 -53.152256843775746 -20.38647813011459 17.196876399878917 #
point $-1 -44.316547009315101 -18.155335218229517 7.2048993721537302 #
point $-1 -44.316547009315101 -14.808620850401912 7.2048993721537302 #
point $-1 -53.152256843775746 -35.163185584700933 17.196876399878917 #
straight-curve $-1 0 -35.163185584700933 17.196876399878917 1 0 0 I I #
End-of-ACIS-data 