500 0 6 0           
7 Unknown 11 ACIS 5.0 NT 24 Fri Mar 26 16:54:02 1999 
-1 9.9999999999999995e-007 1e-010 
body $-1 $6 $-1 $7 #
body $-1 $8 $-1 $9 #
body $-1 $10 $-1 $11 #
body $-1 $12 $-1 $13 #
body $-1 $14 $-1 $15 #
body $-1 $16 $-1 $17 #
lump $-1 $-1 $18 $0 #
transform $-1 1 0 0 0 1 0 0 0 1 56.987823114719077 31.657138361188114 14.750949254202588 1 rotate no_reflect no_shear #
lump $-1 $-1 $19 $1 #
transform $-1 1 0 0 0 1 0 0 0 1 56.987823114719077 31.657138361188114 14.750949254202588 1 rotate no_reflect no_shear #
lump $-1 $-1 $20 $2 #
transform $-1 1 0 0 0 1 0 0 0 1 56.987823114719077 31.657138361188114 14.750949254202588 1 rotate no_reflect no_shear #
lump $-1 $-1 $21 $3 #
transform $-1 1 0 0 0 1 0 0 0 1 56.987823114719077 31.657138361188114 14.750949254202588 1 rotate no_reflect no_shear #
lump $-1 $-1 $22 $4 #
transform $-1 1 0 0 0 1 0 0 0 1 56.987823114719077 31.657138361188114 14.750949254202588 1 rotate no_reflect no_shear #
lump $-1 $-1 $23 $5 #
transform $-1 1 0 0 0 1 0 0 0 1 56.987823114719077 31.657138361188114 14.750949254202588 1 rotate no_reflect no_shear #
shell $-1 $-1 $-1 $24 $-1 $6 #
shell $-1 $-1 $-1 $25 $-1 $8 #
shell $-1 $-1 $-1 $26 $-1 $10 #
shell $-1 $-1 $-1 $27 $-1 $12 #
shell $-1 $-1 $-1 $28 $-1 $14 #
shell $-1 $-1 $-1 $29 $-1 $16 #
face $-1 $30 $31 $18 $-1 $32 forward single #
face $-1 $33 $34 $19 $-1 $35 forward single #
face $-1 $36 $37 $20 $-1 $38 forward single #
face $-1 $39 $40 $21 $-1 $41 reversed single #
face $-1 $42 $43 $22 $-1 $44 forward single #
face $-1 $45 $46 $23 $-1 $47 forward single #
face $-1 $48 $49 $18 $-1 $50 reversed single #
loop $-1 $-1 $51 $24 #
plane-surface $-1 0 0 14.750949254202588 0 0 1 1 0 0 forward_v I I I I #
face $-1 $52 $53 $19 $-1 $54 reversed single #
loop $-1 $-1 $55 $25 #
plane-surface $-1 0 -22.112557962136549 -8.1042661474610647 0 0 1 1 0 0 forward_v I I I I #
face $-1 $56 $57 $20 $-1 $58 reversed single #
loop $-1 $-1 $59 $26 #
plane-surface $-1 0 22.112557962136552 -8.1042661474610647 0 0 1 1 0 0 forward_v I I I I #
face $-1 $60 $61 $21 $-1 $62 reversed single #
loop $-1 $-1 $63 $27 #
plane-surface $-1 -128.71502226066409 3.9310895384725821 93.788275315778037 0 -1 0 0.62932039886446345 0 -0.77714595512881146 forward_v I I I I #
face $-1 $64 $65 $22 $-1 $66 forward single #
loop $-1 $67 $68 $28 #
cone-surface $-1 -50.783699921630287 -0.71199581226650466 9.5931830822257922 0.62932039886446345 0 -0.77714595512881146 0.19428648878220287 0 0.15733009971611586 1 I I 0 1 0.25 forward I I I I #
face $-1 $69 $70 $23 $-1 $71 forward single #
loop $-1 $72 $73 $29 #
cone-surface $-1 -50.783699921630287 2.0738553981769421 9.5931830822257922 0.62932039886446345 0 -0.77714595512881146 0.19428648878220287 0 0.15733009971611586 1 I I 0 1 0.25 forward I I I I #
face $-1 $74 $75 $18 $-1 $76 reversed single #
loop $-1 $-1 $77 $30 #
plane-surface $-1 0 0 -14.750949254202588 0 0 1 1 0 0 forward_v I I I I #
coedge $-1 $78 $79 $80 $81 forward $31 $-1 #
face $-1 $82 $83 $19 $-1 $84 reversed single #
loop $-1 $-1 $85 $33 #
plane-surface $-1 0 -12.567977563084986 -11.427607700831826 0 -1 0 0 0 -1 forward_v I I I I #
coedge $-1 $86 $87 $88 $89 reversed $34 $-1 #
face $-1 $90 $91 $20 $-1 $92 reversed single #
loop $-1 $-1 $93 $36 #
plane-surface $-1 0 12.567977563084987 -11.427607700831826 0 1 0 0 0 1 forward_v I I I I #
coedge $-1 $94 $95 $96 $97 reversed $37 $-1 #
face $-1 $98 $99 $21 $-1 $100 reversed single #
loop $-1 $-1 $101 $39 #
plane-surface $-1 -56.987823114719092 0.68092979295522227 5.2125628653778051 -0.62932039886446345 0 0.77714595512881146 0.77714595512881146 0 0.62932039886446345 forward_v I I I I #
coedge $-1 $102 $103 $104 $105 reversed $40 $-1 #
face $-1 $-1 $106 $22 $-1 $107 forward single #
loop $-1 $108 $109 $42 #
cone-surface $-1 -50.390374672339995 -0.71199581226650466 9.1074668602702857 0.62932039886446345 0 -0.77714595512881146 0.097143244391101433 0 0.078665049858057931 1 I I -0.70710678118654746 0.70710678118654746 0.125 forward I I I I #
loop $-1 $-1 $110 $28 #
coedge $-1 $68 $68 $111 $112 reversed $43 $-1 #
face $-1 $-1 $113 $23 $-1 $114 forward single #
loop $-1 $115 $116 $45 #
cone-surface $-1 -50.390374672339995 2.0738553981769421 9.1074668602702857 0.62932039886446345 0 -0.77714595512881146 0.097143244391101433 0 0.078665049858057931 1 I I -0.70710678118654746 0.70710678118654746 0.125 forward I I I I #
loop $-1 $-1 $117 $29 #
coedge $-1 $73 $73 $118 $119 reversed $46 $-1 #
face $-1 $120 $121 $18 $-1 $122 reversed single #
loop $-1 $-1 $123 $48 #
plane-surface $-1 0 -31.657138361188114 0 0 1 0 0 0 1 forward_v I I I I #
coedge $-1 $124 $125 $126 $127 forward $49 $-1 #
coedge $-1 $128 $51 $129 $130 forward $31 $-1 #
coedge $-1 $51 $128 $131 $132 forward $31 $-1 #
coedge $-1 $133 $134 $51 $81 reversed $135 $-1 #
edge $-1 $136 -31.657138361188114 $137 31.657138361188114 $80 $138 forward 7 unknown #
face $-1 $139 $140 $19 $-1 $141 reversed single #
loop $-1 $-1 $142 $52 #
plane-surface $-1 0 0 -14.750949254202588 0 0 1 1 0 0 forward_v I I I I #
coedge $-1 $143 $144 $145 $146 reversed $53 $-1 #
coedge $-1 $147 $55 $144 $148 forward $34 $-1 #
coedge $-1 $55 $147 $149 $150 reversed $34 $-1 #
coedge $-1 $151 $145 $55 $89 forward $140 $-1 #
edge $-1 $152 1.5116985820167113 $153 20.600859380119836 $88 $154 forward 7 unknown #
face $-1 $155 $156 $20 $-1 $157 reversed single #
loop $-1 $-1 $96 $56 #
plane-surface $-1 56.987823114719077 0 0 -1 0 0 0 0 1 forward_v I I I I #
coedge $-1 $158 $159 $160 $161 reversed $57 $-1 #
coedge $-1 $162 $59 $163 $164 reversed $37 $-1 #
coedge $-1 $59 $162 $159 $165 forward $37 $-1 #
coedge $-1 $166 $167 $59 $97 forward $91 $-1 #
edge $-1 $168 -20.600859380119843 $169 -1.5116985820167113 $96 $170 forward 7 unknown #
face $-1 $171 $172 $21 $-1 $173 reversed single #
loop $-1 $-1 $174 $60 #
plane-surface $-1 -128.71502226066409 -2.5692299525621376 93.788275315778037 0 1 0 -0.62932039886446345 0 0.77714595512881146 forward_v I I I I #
coedge $-1 $175 $176 $177 $178 reversed $61 $-1 #
coedge $-1 $103 $63 $179 $180 reversed $40 $-1 #
coedge $-1 $63 $102 $175 $181 reversed $40 $-1 #
coedge $-1 $177 $182 $63 $105 forward $172 $-1 #
edge $-1 $183 32.14318840368643 $184 41.681574792511199 $104 $185 forward 7 unknown #
loop $-1 $-1 $111 $64 #
plane-surface $-1 -56.987823114719092 0.68092979295522227 5.2125628653778051 -0.62932039886446345 0 0.77714595512881146 0.77714595512881146 0 0.62932039886446345 forward_v I I I I #
loop $-1 $-1 $186 $42 #
coedge $-1 $109 $109 $110 $187 reversed $65 $-1 #
coedge $-1 $110 $110 $109 $187 forward $67 $-1 #
coedge $-1 $111 $111 $68 $112 forward $106 $-1 #
edge $-1 $188 0 $188 6.2831853071796004 $111 $189 forward 7 unknown #
loop $-1 $-1 $118 $69 #
plane-surface $-1 -56.987823114719092 0.68092979295522227 5.2125628653778051 -0.62932039886446345 0 0.77714595512881146 0.77714595512881146 0 0.62932039886446345 forward_v I I I I #
loop $-1 $-1 $190 $45 #
coedge $-1 $116 $116 $117 $191 reversed $70 $-1 #
coedge $-1 $117 $117 $116 $191 forward $72 $-1 #
coedge $-1 $118 $118 $73 $119 forward $113 $-1 #
edge $-1 $192 0 $192 6.2831853071796004 $118 $193 forward 7 unknown #
face $-1 $194 $195 $18 $-1 $196 reversed single #
loop $-1 $-1 $197 $74 #
plane-surface $-1 -56.987823114719077 0 0 1 0 0 0 0 -1 forward_v I I I I #
coedge $-1 $198 $131 $199 $200 forward $75 $-1 #
coedge $-1 $201 $77 $198 $202 forward $49 $-1 #
coedge $-1 $77 $201 $203 $204 forward $49 $-1 #
coedge $-1 $134 $133 $77 $127 reversed $135 $-1 #
edge $-1 $205 -31.657138361188114 $206 31.657138361188114 $126 $207 forward 7 unknown #
coedge $-1 $79 $78 $208 $209 forward $31 $-1 #
coedge $-1 $210 $211 $78 $130 reversed $195 $-1 #
edge $-1 $137 -56.987823114719077 $212 56.987823114719077 $129 $213 forward 7 unknown #
coedge $-1 $123 $214 $79 $132 reversed $75 $-1 #
edge $-1 $215 -56.987823114719077 $136 56.987823114719077 $131 $216 forward 7 unknown #
coedge $-1 $126 $80 $214 $217 forward $135 $-1 #
coedge $-1 $80 $126 $210 $218 reversed $135 $-1 #
loop $-1 $-1 $133 $194 #
vertex $-1 $81 $219 #
vertex $-1 $81 $220 #
straight-curve $-1 56.987823114719077 0 14.750949254202588 0 1 0 I I #
face $-1 $221 $222 $19 $-1 $223 reversed single #
loop $-1 $-1 $145 $82 #
plane-surface $-1 56.987823114719077 0 0 -1 0 0 0 0 1 forward_v I I I I #
coedge $-1 $224 $225 $143 $226 forward $83 $-1 #
coedge $-1 $227 $85 $142 $226 reversed $53 $-1 #
coedge $-1 $85 $227 $86 $148 reversed $53 $-1 #
coedge $-1 $88 $228 $85 $146 forward $140 $-1 #
edge $-1 $229 -9.0371454037866741 $152 -2.3904622970451515 $145 $230 forward 7 unknown #
coedge $-1 $87 $86 $231 $232 reversed $34 $-1 #
edge $-1 $152 -56.987823114719077 $233 56.987823114719077 $144 $234 forward 7 unknown #
coedge $-1 $235 $236 $87 $150 forward $222 $-1 #
edge $-1 $153 -56.987823114719077 $237 56.987823114719077 $149 $238 forward 7 unknown #
coedge $-1 $228 $88 $236 $239 forward $140 $-1 #
vertex $-1 $89 $240 #
vertex $-1 $239 $241 #
straight-curve $-1 56.987823114719077 -11.056278981068274 -8.1042661474610647 0 -1 0 I I #
face $-1 $242 $243 $20 $-1 $244 reversed single #
loop $-1 $-1 $245 $90 #
plane-surface $-1 0 0 -14.750949254202588 0 0 1 1 0 0 forward_v I I I I #
coedge $-1 $246 $93 $245 $247 reversed $57 $-1 #
coedge $-1 $93 $246 $95 $165 reversed $57 $-1 #
coedge $-1 $248 $249 $93 $161 forward $243 $-1 #
edge $-1 $250 -9.0371454037866741 $251 -2.3904622970451515 $160 $252 forward 7 unknown #
coedge $-1 $95 $94 $248 $253 reversed $37 $-1 #
coedge $-1 $254 $255 $94 $164 forward $256 $-1 #
edge $-1 $257 -56.987823114719077 $168 56.987823114719077 $163 $258 forward 7 unknown #
edge $-1 $251 -56.987823114719077 $169 56.987823114719077 $159 $259 forward 7 unknown #
coedge $-1 $260 $96 $246 $261 forward $91 $-1 #
coedge $-1 $96 $260 $254 $262 reversed $91 $-1 #
vertex $-1 $262 $263 #
vertex $-1 $97 $264 #
straight-curve $-1 56.987823114719077 11.056278981068276 -8.1042661474610647 0 -1 0 I I #
face $-1 $-1 $265 $21 $-1 $266 forward single #
loop $-1 $-1 $104 $98 #
plane-surface $-1 -56.987823114719077 0 0 1 0 0 0 0 -1 forward_v I I I I #
coedge $-1 $267 $268 $269 $270 reversed $99 $-1 #
coedge $-1 $271 $101 $103 $181 forward $61 $-1 #
coedge $-1 $101 $271 $267 $272 forward $61 $-1 #
coedge $-1 $269 $104 $101 $178 forward $172 $-1 #
edge $-1 $184 -3.590624641994971 $273 2.9096948490397487 $177 $274 forward 7 unknown #
coedge $-1 $275 $276 $102 $180 forward $265 $-1 #
edge $-1 $277 -19.148614002926081 $183 -7.3696880156129652 $179 $278 forward 7 unknown #
edge $-1 $184 1.8310242626372826e-014 $277 15.156645813540621 $103 $279 forward 7 unknown #
coedge $-1 $104 $269 $275 $280 reversed $172 $-1 #
vertex $-1 $280 $281 #
vertex $-1 $105 $282 #
straight-curve $-1 -56.987823114719077 3.9310895384725821 46.894137657889019 0 0 -1 I I #
coedge $-1 $186 $186 $-1 $283 reversed $108 $-1 #
edge $-1 $284 0 $284 6.2831853071796004 $109 $285 forward 7 unknown #
vertex $-1 $112 $286 #
ellipse-curve $-1 -51.09836012106252 -0.71199581226650466 9.981756059790202 -0.62932039886446345 0 0.77714595512881146 0.19428648878220287 0 0.15733009971611586 1 I I #
coedge $-1 $190 $190 $-1 $287 reversed $115 $-1 #
edge $-1 $288 0 $288 6.2831853071796004 $116 $289 forward 7 unknown #
vertex $-1 $119 $290 #
ellipse-curve $-1 -51.09836012106252 2.0738553981769421 9.981756059790202 -0.62932039886446345 0 0.77714595512881146 0.19428648878220287 0 0.15733009971611586 1 I I #
face $-1 $-1 $135 $18 $-1 $291 reversed single #
loop $-1 $-1 $210 $120 #
plane-surface $-1 0 31.657138361188114 0 0 -1 0 0 0 -1 forward_v I I I I #
coedge $-1 $292 $208 $211 $293 forward $121 $-1 #
coedge $-1 $214 $123 $124 $202 reversed $75 $-1 #
coedge $-1 $208 $292 $123 $200 reversed $121 $-1 #
edge $-1 $215 -14.750949254202588 $294 14.750949254202588 $199 $295 forward 7 unknown #
coedge $-1 $125 $124 $292 $296 forward $49 $-1 #
edge $-1 $206 -56.987823114719077 $294 56.987823114719077 $198 $297 forward 7 unknown #
coedge $-1 $211 $210 $125 $204 reversed $195 $-1 #
edge $-1 $298 -56.987823114719077 $205 56.987823114719077 $203 $299 forward 7 unknown #
vertex $-1 $127 $300 #
vertex $-1 $217 $301 #
straight-curve $-1 56.987823114719077 0 -14.750949254202588 0 -1 0 I I #
coedge $-1 $197 $199 $128 $209 reversed $121 $-1 #
edge $-1 $212 -31.657138361188114 $215 31.657138361188114 $208 $302 forward 7 unknown #
coedge $-1 $203 $129 $134 $218 forward $195 $-1 #
coedge $-1 $129 $203 $197 $293 reversed $195 $-1 #
vertex $-1 $130 $303 #
straight-curve $-1 0 31.657138361188114 14.750949254202588 -1 0 0 I I #
coedge $-1 $131 $198 $133 $217 reversed $75 $-1 #
vertex $-1 $209 $304 #
straight-curve $-1 0 -31.657138361188114 14.750949254202588 1 0 0 I I #
edge $-1 $136 -14.750949254202588 $206 14.750949254202588 $133 $305 forward 7 unknown #
edge $-1 $137 -14.750949254202588 $205 14.750949254202588 $134 $306 forward 7 unknown #
point $-1 56.987823114719077 -31.657138361188114 14.750949254202588 #
point $-1 56.987823114719077 31.657138361188114 14.750949254202588 #
face $-1 $-1 $307 $19 $-1 $308 reversed single #
loop $-1 $-1 $149 $139 #
plane-surface $-1 0 -31.657138361188114 0 0 1 0 0 0 1 forward_v I I I I #
coedge $-1 $309 $142 $228 $310 forward $83 $-1 #
coedge $-1 $142 $309 $311 $312 forward $83 $-1 #
edge $-1 $313 -56.987823114719077 $229 56.987823114719077 $142 $314 forward 7 unknown #
coedge $-1 $144 $143 $315 $316 reversed $53 $-1 #
coedge $-1 $145 $151 $224 $310 reversed $140 $-1 #
vertex $-1 $310 $317 #
straight-curve $-1 56.987823114719077 -12.567977563084986 -5.7138038504159132 0 0 1 I I #
coedge $-1 $315 $318 $147 $232 forward $307 $-1 #
edge $-1 $237 -20.600859380119836 $233 -1.5116985820167113 $231 $319 forward 7 unknown #
vertex $-1 $232 $320 #
straight-curve $-1 0 -12.567977563084986 -8.1042661474610647 -1 0 0 I I #
coedge $-1 $321 $149 $318 $322 forward $222 $-1 #
coedge $-1 $149 $321 $151 $239 reversed $222 $-1 #
vertex $-1 $322 $323 #
straight-curve $-1 0 -31.657138361188114 -8.1042661474610647 -1 0 0 I I #
edge $-1 $153 8.1042661474610647 $324 14.750949254202588 $151 $325 forward 7 unknown #
point $-1 56.987823114719077 -12.567977563084986 -8.1042661474610647 #
point $-1 56.987823114719077 -31.65713836118811 -8.1042661474610647 #
face $-1 $-1 $256 $20 $-1 $326 reversed single #
loop $-1 $-1 $248 $155 #
plane-surface $-1 -56.987823114719077 0 0 1 0 0 0 0 -1 forward_v I I I I #
coedge $-1 $327 $328 $158 $247 forward $156 $-1 #
coedge $-1 $159 $158 $166 $261 reversed $57 $-1 #
edge $-1 $329 -56.987823114719077 $250 56.987823114719077 $245 $330 forward 7 unknown #
coedge $-1 $331 $160 $162 $253 forward $243 $-1 #
coedge $-1 $160 $331 $327 $332 reversed $243 $-1 #
vertex $-1 $332 $333 #
vertex $-1 $253 $334 #
straight-curve $-1 -56.987823114719077 12.567977563084987 -5.7138038504159132 0 0 1 I I #
edge $-1 $251 1.5116985820167113 $257 20.600859380119843 $248 $335 forward 7 unknown #
coedge $-1 $336 $163 $167 $262 forward $256 $-1 #
coedge $-1 $163 $336 $331 $337 reversed $256 $-1 #
loop $-1 $-1 $163 $242 #
vertex $-1 $337 $338 #
straight-curve $-1 0 31.657138361188114 -8.1042661474610647 1 0 0 I I #
straight-curve $-1 0 12.567977563084987 -8.1042661474610647 1 0 0 I I #
coedge $-1 $167 $166 $328 $339 reversed $91 $-1 #
edge $-1 $169 2.3904622970451515 $329 9.0371454037866741 $166 $340 forward 7 unknown #
edge $-1 $168 8.1042661474610647 $341 14.750949254202588 $167 $342 forward 7 unknown #
point $-1 56.987823114719077 31.657138361188117 -8.1042661474610647 #
point $-1 56.987823114719077 12.567977563084987 -8.1042661474610647 #
loop $-1 $-1 $179 $171 #
plane-surface $-1 0 0 14.750949254202588 0 0 1 1 0 0 forward_v I I I I #
coedge $-1 $268 $174 $176 $272 reversed $99 $-1 #
coedge $-1 $174 $267 $343 $344 reversed $99 $-1 #
coedge $-1 $182 $177 $174 $270 forward $172 $-1 #
edge $-1 $273 -41.681574792511199 $345 -32.14318840368643 $269 $346 forward 7 unknown #
coedge $-1 $176 $175 $276 $347 reversed $61 $-1 #
edge $-1 $348 -15.156645813540621 $273 -1.8310242626372826e-014 $267 $349 forward 7 unknown #
vertex $-1 $178 $350 #
straight-curve $-1 -56.987823114719077 0.34046489647761113 5.2125628653778167 0 -1 0 I I #
coedge $-1 $343 $179 $182 $280 forward $265 $-1 #
coedge $-1 $179 $343 $271 $347 forward $265 $-1 #
vertex $-1 $180 $351 #
straight-curve $-1 -64.357511130332043 3.9310895384725821 14.750949254202588 -1 0 0 I I #
straight-curve $-1 -56.987823114719092 3.9310895384725821 5.2125628653778051 0.77714595512881146 0 0.62932039886446345 I I #
edge $-1 $183 -3.9310895384725821 $345 2.5692299525621376 $182 $352 forward 7 unknown #
point $-1 -56.987823114719077 3.9310895384725821 14.750949254202588 #
point $-1 -56.987823114719077 3.9310895384725821 5.2125628653778167 #
edge $-1 $353 1 $353 0 $186 $-1 forward 7 unknown #
vertex $-1 $187 $354 #
ellipse-curve $-1 -50.469039722198055 -0.71199581226650466 9.2046101046613877 -0.62932039886446345 0 0.77714595512881146 0.19428648878220287 0 0.15733009971611586 1 I I #
point $-1 -50.904073632280316 -0.71199581226650466 10.139086159506315 #
edge $-1 $355 1 $355 0 $190 $-1 forward 7 unknown #
vertex $-1 $191 $356 #
ellipse-curve $-1 -50.469039722198055 2.0738553981769421 9.2046101046613877 -0.62932039886446345 0 0.77714595512881146 0.19428648878220287 0 0.15733009971611586 1 I I #
point $-1 -50.904073632280316 2.0738553981769421 10.139086159506315 #
plane-surface $-1 56.987823114719077 0 0 -1 0 0 0 0 1 forward_v I I I I #
coedge $-1 $199 $197 $201 $296 reversed $121 $-1 #
edge $-1 $212 -14.750949254202588 $298 14.750949254202588 $211 $357 forward 7 unknown #
vertex $-1 $296 $358 #
straight-curve $-1 -56.987823114719077 -31.657138361188114 0 0 0 -1 I I #
edge $-1 $294 -31.657138361188114 $298 31.657138361188114 $292 $359 forward 7 unknown #
straight-curve $-1 0 -31.657138361188114 -14.750949254202588 -1 0 0 I I #
vertex $-1 $204 $360 #
straight-curve $-1 0 31.657138361188114 -14.750949254202588 1 0 0 I I #
point $-1 56.987823114719077 31.657138361188114 -14.750949254202588 #
point $-1 56.987823114719077 -31.657138361188114 -14.750949254202588 #
straight-curve $-1 -56.987823114719077 0 14.750949254202588 0 -1 0 I I #
point $-1 -56.987823114719077 31.657138361188114 14.750949254202588 #
point $-1 -56.987823114719077 -31.657138361188114 14.750949254202588 #
straight-curve $-1 56.987823114719077 -31.657138361188114 0 0 0 -1 I I #
straight-curve $-1 56.987823114719077 31.657138361188114 0 0 0 -1 I I #
loop $-1 $-1 $315 $221 #
plane-surface $-1 -56.987823114719077 0 0 1 0 0 0 0 -1 forward_v I I I I #
coedge $-1 $225 $224 $321 $361 forward $83 $-1 #
edge $-1 $229 12.567977563084986 $324 31.657138361188114 $228 $362 forward 7 unknown #
coedge $-1 $318 $315 $225 $312 reversed $307 $-1 #
edge $-1 $363 -31.657138361188114 $313 -12.567977563084986 $311 $364 forward 7 unknown #
vertex $-1 $316 $365 #
straight-curve $-1 0 -12.567977563084986 -14.750949254202588 1 0 0 I I #
coedge $-1 $311 $231 $227 $316 forward $307 $-1 #
edge $-1 $233 2.3904622970451515 $313 9.0371454037866741 $315 $366 forward 7 unknown #
point $-1 56.987823114719077 -12.567977563084986 -14.750949254202588 #
coedge $-1 $231 $311 $235 $322 reversed $307 $-1 #
straight-curve $-1 -56.987823114719077 -11.056278981068274 -8.1042661474610647 0 1 0 I I #
point $-1 -56.987823114719077 -12.567977563084986 -8.1042661474610647 #
coedge $-1 $236 $235 $309 $361 reversed $222 $-1 #
edge $-1 $237 8.1042661474610647 $363 14.750949254202588 $318 $367 forward 7 unknown #
point $-1 -56.987823114719077 -31.65713836118811 -8.1042661474610647 #
vertex $-1 $239 $368 #
straight-curve $-1 56.987823114719077 -31.657138361188114 0 0 0 -1 I I #
plane-surface $-1 0 31.657138361188114 0 0 -1 0 0 0 -1 forward_v I I I I #
coedge $-1 $369 $245 $249 $332 forward $156 $-1 #
coedge $-1 $245 $369 $260 $339 forward $156 $-1 #
vertex $-1 $247 $370 #
straight-curve $-1 0 12.567977563084987 -14.750949254202588 -1 0 0 I I #
coedge $-1 $249 $248 $255 $337 forward $243 $-1 #
edge $-1 $250 12.567977563084987 $371 31.657138361188114 $249 $372 forward 7 unknown #
point $-1 -56.987823114719077 12.567977563084987 -14.750949254202588 #
point $-1 -56.987823114719077 12.567977563084987 -8.1042661474610647 #
straight-curve $-1 -56.987823114719077 11.056278981068276 -8.1042661474610647 0 1 0 I I #
coedge $-1 $255 $254 $369 $373 reversed $256 $-1 #
edge $-1 $257 8.1042661474610647 $371 14.750949254202588 $255 $374 forward 7 unknown #
point $-1 -56.987823114719077 31.657138361188117 -8.1042661474610647 #
edge $-1 $341 -31.657138361188114 $329 -12.567977563084987 $260 $375 forward 7 unknown #
straight-curve $-1 56.987823114719077 12.567977563084987 -5.7138038504159132 0 0 -1 I I #
vertex $-1 $339 $376 #
straight-curve $-1 56.987823114719077 31.657138361188114 0 0 0 -1 I I #
coedge $-1 $276 $275 $268 $344 forward $265 $-1 #
edge $-1 $345 7.3696880156129652 $348 19.148614002926081 $343 $377 forward 7 unknown #
vertex $-1 $344 $378 #
straight-curve $-1 -56.987823114719077 -2.5692299525621376 46.894137657889019 0 0 1 I I #
edge $-1 $348 -2.9096948490397487 $277 3.590624641994971 $276 $379 forward 7 unknown #
vertex $-1 $347 $380 #
straight-curve $-1 -56.987823114719092 -2.5692299525621376 5.2125628653778051 -0.77714595512881146 0 -0.62932039886446345 I I #
point $-1 -56.987823114719077 -2.5692299525621376 5.2125628653778167 #
point $-1 -45.208897127405962 3.9310895384725821 14.750949254202588 #
straight-curve $-1 -56.987823114719077 0 14.750949254202588 0 -1 0 I I #
vertex $-1 $283 $381 #
point $-1 -50.274753233415851 -0.71199581226650466 9.3619402043775022 #
vertex $-1 $287 $382 #
point $-1 -50.274753233415851 2.0738553981769421 9.3619402043775022 #
straight-curve $-1 -56.987823114719077 31.657138361188114 0 0 0 -1 I I #
point $-1 -56.987823114719077 -31.657138361188114 -14.750949254202588 #
straight-curve $-1 -56.987823114719077 0 -14.750949254202588 0 1 0 I I #
point $-1 -56.987823114719077 31.657138361188114 -14.750949254202588 #
edge $-1 $324 -56.987823114719077 $363 56.987823114719077 $321 $383 forward 7 unknown #
straight-curve $-1 56.987823114719077 0 -14.750949254202588 0 -1 0 I I #
vertex $-1 $312 $384 #
straight-curve $-1 -56.987823114719077 0 -14.750949254202588 0 1 0 I I #
point $-1 -56.987823114719077 -12.567977563084986 -14.750949254202588 #
straight-curve $-1 -56.987823114719077 -12.567977563084986 -5.7138038504159132 0 0 -1 I I #
straight-curve $-1 -56.987823114719077 -31.657138361188114 0 0 0 -1 I I #
point $-1 56.987823114719077 -31.657138361188114 -14.750949254202588 #
coedge $-1 $328 $327 $336 $373 forward $156 $-1 #
point $-1 56.987823114719077 12.567977563084987 -14.750949254202588 #
vertex $-1 $373 $385 #
straight-curve $-1 -56.987823114719077 0 -14.750949254202588 0 1 0 I I #
edge $-1 $371 -56.987823114719077 $341 56.987823114719077 $336 $386 forward 7 unknown #
straight-curve $-1 -56.987823114719077 31.657138361188114 0 0 0 -1 I I #
straight-curve $-1 56.987823114719077 0 -14.750949254202588 0 -1 0 I I #
point $-1 56.987823114719077 31.657138361188114 -14.750949254202588 #
straight-curve $-1 -64.357511130332043 -2.5692299525621376 14.750949254202588 1 0 0 I I #
point $-1 -56.987823114719077 -2.5692299525621376 14.750949254202588 #
straight-curve $-1 -45.208897127405962 0.34046489647761113 14.750949254202588 0 1 0 I I #
point $-1 -45.208897127405962 -2.5692299525621376 14.750949254202588 #
point $-1 -50.311709622481935 -0.71199581226650466 9.0103236158791837 #
point $-1 -50.311709622481935 2.0738553981769421 9.0103236158791837 #
straight-curve $-1 0 -31.657138361188114 -14.750949254202588 -1 0 0 I I #
point $-1 -56.987823114719077 -31.657138361188114 -14.750949254202588 #
point $-1 -56.987823114719077 31.657138361188114 -14.750949254202588 #
straight-curve $-1 0 31.657138361188114 -14.750949254202588 1 0 0 I I #
End-of-ACIS-data 