500 0 9 0           
7 Unknown 11 ACIS 5.0 NT 24 Fri Mar 26 14:42:32 1999 
-1 9.9999999999999995e-007 1e-010 
body $-1 $9 $-1 $10 #
body $-1 $11 $-1 $12 #
body $-1 $13 $-1 $14 #
body $-1 $15 $-1 $16 #
body $-1 $17 $-1 $18 #
body $-1 $19 $-1 $20 #
body $-1 $21 $-1 $22 #
body $-1 $23 $-1 $24 #
body $-1 $25 $-1 $26 #
lump $-1 $-1 $27 $0 #
transform $-1 1 0 0 0 1 0 0 0 1 76.837061677907656 30.945166918927839 6.8038380245589689 1 rotate no_reflect no_shear #
lump $-1 $-1 $28 $1 #
transform $-1 1 0 0 0 1 0 0 0 1 76.837061677907656 30.945166918927839 6.8038380245589689 1 rotate no_reflect no_shear #
lump $-1 $-1 $29 $2 #
transform $-1 1 0 0 0 1 0 0 0 1 76.837061677907656 30.945166918927839 6.8038380245589689 1 rotate no_reflect no_shear #
lump $-1 $-1 $30 $3 #
transform $-1 1 0 0 0 1 0 0 0 1 76.837061677907656 30.945166918927839 6.8038380245589689 1 rotate no_reflect no_shear #
lump $-1 $-1 $31 $4 #
transform $-1 1 0 0 0 1 0 0 0 1 76.837061677907656 30.945166918927839 6.8038380245589689 1 rotate no_reflect no_shear #
lump $-1 $-1 $32 $5 #
transform $-1 1 0 0 0 1 0 0 0 1 76.837061677907656 30.945166918927839 6.8038380245589689 1 rotate no_reflect no_shear #
lump $-1 $-1 $33 $6 #
transform $-1 1 0 0 0 1 0 0 0 1 76.837061677907656 30.945166918927839 6.8038380245589689 1 rotate no_reflect no_shear #
lump $-1 $-1 $34 $7 #
transform $-1 1 0 0 0 1 0 0 0 1 76.837061677907656 30.945166918927839 6.8038380245589689 1 rotate no_reflect no_shear #
lump $-1 $-1 $35 $8 #
transform $-1 1 0 0 0 1 0 0 0 1 76.837061677907656 30.945166918927839 6.8038380245589689 1 rotate no_reflect no_shear #
shell $-1 $-1 $-1 $36 $-1 $9 #
shell $-1 $-1 $-1 $37 $-1 $11 #
shell $-1 $-1 $-1 $38 $-1 $13 #
shell $-1 $-1 $-1 $39 $-1 $15 #
shell $-1 $-1 $-1 $40 $-1 $17 #
shell $-1 $-1 $-1 $41 $-1 $19 #
shell $-1 $-1 $-1 $42 $-1 $21 #
shell $-1 $-1 $-1 $43 $-1 $23 #
shell $-1 $-1 $-1 $44 $-1 $25 #
face $-1 $45 $46 $27 $-1 $47 forward single #
face $-1 $48 $49 $28 $-1 $50 forward single #
face $-1 $51 $52 $29 $-1 $53 reversed single #
face $-1 $54 $55 $30 $-1 $56 forward single #
face $-1 $57 $58 $31 $-1 $59 forward single #
face $-1 $60 $61 $32 $-1 $62 forward single #
face $-1 $63 $64 $33 $-1 $65 reversed single #
face $-1 $66 $67 $34 $-1 $68 forward single #
face $-1 $69 $70 $35 $-1 $71 forward single #
face $-1 $72 $73 $27 $-1 $74 reversed single #
loop $-1 $-1 $75 $36 #
plane-surface $-1 0 0 6.8038380245589689 0 0 1 1 0 0 forward_v I I I I #
face $-1 $76 $77 $28 $-1 $78 reversed single #
loop $-1 $-1 $79 $37 #
plane-surface $-1 0 -26.981569451703059 -2.0155509523421813 0 0 1 1 0 0 forward_v I I I I #
face $-1 $80 $81 $29 $-1 $82 reversed single #
loop $-1 $-1 $83 $38 #
plane-surface $-1 76.837064199467335 -23.01797198447828 218.19148801363099 0 1 0 0.70710678939079041 0 0.70710677298230451 forward_v I I I I #
face $-1 $84 $85 $30 $-1 $86 forward single #
loop $-1 $87 $88 $39 #
cone-surface $-1 72.587996444292116 -20.205689426897536 2.5547727516963006 -0.70710678939079041 0 -0.70710677298230451 0.70710677298230451 0 -0.70710678939079041 1 I I 0 1 1 forward I I I I #
face $-1 $89 $90 $31 $-1 $91 forward single #
loop $-1 $92 $93 $40 #
cone-surface $-1 72.587996444292116 -15.98726559052642 2.5547727516963006 -0.70710678939079041 0 -0.70710677298230451 0.70710677298230451 0 -0.70710678939079041 1 I I 0 1 1 forward I I I I #
face $-1 $94 $95 $32 $-1 $96 forward single #
loop $-1 $97 $98 $41 #
cone-surface $-1 72.587996444292116 -11.768841754155304 2.5547727516963006 -0.70710678939079041 0 -0.70710677298230451 0.70710677298230451 0 -0.70710678939079041 1 I I 0 1 1 forward I I I I #
face $-1 $99 $100 $33 $-1 $101 reversed single #
loop $-1 $-1 $102 $42 #
plane-surface $-1 -164.98091884769673 19.043621950687736 127.22014738571583 0 1 0 -0.57357644374324357 0 0.81915203911291934 forward_v I I I I #
face $-1 $103 $104 $34 $-1 $105 forward single #
loop $-1 $106 $107 $43 #
cone-surface $-1 -72.495394797717154 22.444063370184907 3.4446245027691331 0.57357644374324357 0 -0.81915203911291934 0.81915203911291934 0 0.57357644374324357 1 I I 0 1 1 forward I I I I #
face $-1 $108 $109 $35 $-1 $110 forward single #
loop $-1 $111 $112 $44 #
cone-surface $-1 -72.495394797717154 27.544725499430662 3.4446245027691331 0.57357644374324357 0 -0.81915203911291934 0.81915203911291934 0 0.57357644374324357 1 I I 0 1 1 forward I I I I #
face $-1 $113 $114 $27 $-1 $115 reversed single #
loop $-1 $-1 $116 $45 #
plane-surface $-1 0 0 -6.8038380245589689 0 0 1 1 0 0 forward_v I I I I #
coedge $-1 $117 $118 $119 $120 forward $46 $-1 #
face $-1 $121 $122 $28 $-1 $123 reversed single #
loop $-1 $-1 $124 $48 #
plane-surface $-1 0 -26.981569451703059 -5.0155509523421813 0 0 1 1 0 0 forward_v I I I I #
coedge $-1 $125 $126 $127 $128 reversed $49 $-1 #
face $-1 $129 $130 $29 $-1 $131 reversed single #
loop $-1 $-1 $132 $51 #
plane-surface $-1 -31.826951779107503 -15.98726559052642 109.52747455661583 0.70710678939079041 0 0.70710677298230451 0.70710677298230451 0 -0.70710678939079041 forward_v I I I I #
coedge $-1 $133 $134 $135 $136 reversed $52 $-1 #
face $-1 $-1 $137 $30 $-1 $138 forward single #
loop $-1 $139 $140 $54 #
cone-surface $-1 70.955567470316595 -20.205689426897536 0.92234381560146694 -0.70710678939079041 0 -0.70710677298230451 0.35355338649115226 0 -0.35355339469539521 1 I I -0.70710678118654746 0.70710678118654746 0.5 forward I I I I #
loop $-1 $-1 $141 $39 #
coedge $-1 $88 $88 $142 $143 reversed $55 $-1 #
face $-1 $-1 $144 $31 $-1 $145 forward single #
loop $-1 $146 $147 $57 #
cone-surface $-1 70.955567470316595 -15.98726559052642 0.92234381560146694 -0.70710678939079041 0 -0.70710677298230451 0.35355338649115226 0 -0.35355339469539521 1 I I -0.70710678118654746 0.70710678118654746 0.5 forward I I I I #
loop $-1 $-1 $148 $40 #
coedge $-1 $93 $93 $149 $150 reversed $58 $-1 #
face $-1 $-1 $151 $32 $-1 $152 forward single #
loop $-1 $153 $154 $60 #
cone-surface $-1 70.955567470316595 -11.768841754155304 0.92234381560146694 -0.70710678939079041 0 -0.70710677298230451 0.35355338649115226 0 -0.35355339469539521 1 I I -0.70710678118654746 0.70710678118654746 0.5 forward I I I I #
loop $-1 $-1 $155 $41 #
coedge $-1 $98 $98 $156 $157 reversed $61 $-1 #
face $-1 $158 $159 $33 $-1 $160 forward single #
loop $-1 $-1 $161 $63 #
plane-surface $-1 -76.837061677907656 24.994394434807788 1.3376758799094119 -0.57357644374324357 0 0.81915203911291934 0.81915203911291934 0 0.57357644374324357 forward_v I I I I #
coedge $-1 $162 $163 $164 $165 reversed $64 $-1 #
face $-1 $-1 $166 $34 $-1 $167 forward single #
loop $-1 $168 $169 $66 #
cone-surface $-1 -71.770183906391708 22.444063370184907 2.4089160337475963 0.57357644374324357 0 -0.81915203911291934 0.40957601955645967 0 0.28678822187162178 1 I I -0.70710678118654746 0.70710678118654746 0.5 forward I I I I #
loop $-1 $-1 $170 $43 #
coedge $-1 $107 $107 $171 $172 reversed $67 $-1 #
face $-1 $-1 $173 $35 $-1 $174 forward single #
loop $-1 $175 $176 $69 #
cone-surface $-1 -71.770183906391708 27.544725499430662 2.4089160337475963 0.57357644374324357 0 -0.81915203911291934 0.40957601955645967 0 0.28678822187162178 1 I I -0.70710678118654746 0.70710678118654746 0.5 forward I I I I #
loop $-1 $-1 $177 $44 #
coedge $-1 $112 $112 $178 $179 reversed $70 $-1 #
face $-1 $180 $181 $27 $-1 $182 reversed single #
loop $-1 $-1 $183 $72 #
plane-surface $-1 0 -30.945166918927839 0 0 1 0 0 0 1 forward_v I I I I #
coedge $-1 $184 $185 $186 $187 forward $73 $-1 #
coedge $-1 $188 $75 $189 $190 forward $46 $-1 #
coedge $-1 $75 $188 $191 $192 forward $46 $-1 #
coedge $-1 $193 $194 $75 $120 reversed $195 $-1 #
edge $-1 $196 -30.945166918927839 $197 30.945166918927839 $119 $198 forward 7 unknown #
face $-1 $199 $200 $28 $-1 $201 reversed single #
loop $-1 $-1 $202 $76 #
plane-surface $-1 0 -23.01797198447828 -3.5155509523421813 0 -1 0 0 0 -1 forward_v I I I I #
coedge $-1 $203 $204 $205 $206 reversed $77 $-1 #
coedge $-1 $207 $79 $208 $209 forward $49 $-1 #
coedge $-1 $79 $207 $210 $211 reversed $49 $-1 #
coedge $-1 $212 $213 $79 $128 forward $214 $-1 #
edge $-1 $215 9.5271872586267499 $216 17.454382193076309 $127 $217 forward 7 unknown #
face $-1 $218 $219 $29 $-1 $220 forward single #
loop $-1 $-1 $221 $80 #
plane-surface $-1 76.837064199467335 -8.9565591965745597 218.19148801363099 0 -1 0 -0.70710678939079041 0 -0.70710677298230451 forward_v I I I I #
coedge $-1 $222 $223 $224 $225 reversed $81 $-1 #
coedge $-1 $134 $83 $226 $227 reversed $52 $-1 #
coedge $-1 $83 $133 $222 $228 reversed $52 $-1 #
coedge $-1 $224 $229 $83 $136 forward $230 $-1 #
edge $-1 $231 102.29190598225652 $232 108.2322854287745 $135 $233 forward 7 unknown #
loop $-1 $-1 $142 $84 #
plane-surface $-1 -31.826951779107503 -15.98726559052642 109.52747455661583 0.70710678939079041 0 0.70710677298230451 0.70710677298230451 0 -0.70710678939079041 forward_v I I I I #
loop $-1 $-1 $234 $54 #
coedge $-1 $140 $140 $141 $235 reversed $85 $-1 #
coedge $-1 $141 $141 $140 $235 forward $87 $-1 #
coedge $-1 $142 $142 $88 $143 forward $137 $-1 #
edge $-1 $236 0 $236 6.2831853071796004 $142 $237 forward 7 unknown #
loop $-1 $-1 $149 $89 #
plane-surface $-1 -31.826951779107503 -15.98726559052642 109.52747455661583 0.70710678939079041 0 0.70710677298230451 0.70710677298230451 0 -0.70710678939079041 forward_v I I I I #
loop $-1 $-1 $238 $57 #
coedge $-1 $147 $147 $148 $239 reversed $90 $-1 #
coedge $-1 $148 $148 $147 $239 forward $92 $-1 #
coedge $-1 $149 $149 $93 $150 forward $144 $-1 #
edge $-1 $240 0 $240 6.2831853071796004 $149 $241 forward 7 unknown #
loop $-1 $-1 $156 $94 #
plane-surface $-1 -31.826951779107503 -15.98726559052642 109.52747455661583 0.70710678939079041 0 0.70710677298230451 0.70710677298230451 0 -0.70710678939079041 forward_v I I I I #
loop $-1 $-1 $242 $60 #
coedge $-1 $154 $154 $155 $243 reversed $95 $-1 #
coedge $-1 $155 $155 $154 $243 forward $97 $-1 #
coedge $-1 $156 $156 $98 $157 forward $151 $-1 #
edge $-1 $244 0 $244 6.2831853071796004 $156 $245 forward 7 unknown #
face $-1 $246 $247 $33 $-1 $248 reversed single #
loop $-1 $-1 $164 $99 #
plane-surface $-1 0 0 6.8038380245589689 0 0 1 1 0 0 forward_v I I I I #
coedge $-1 $249 $250 $251 $252 reversed $100 $-1 #
coedge $-1 $163 $102 $253 $254 reversed $64 $-1 #
coedge $-1 $102 $162 $249 $255 reversed $64 $-1 #
coedge $-1 $251 $256 $102 $165 forward $159 $-1 #
edge $-1 $257 5.6533977459407083 $258 13.459886167414126 $164 $259 forward 7 unknown #
loop $-1 $-1 $171 $103 #
plane-surface $-1 -76.837061677907656 24.994394434807788 1.3376758799094119 -0.57357644374324357 0 0.81915203911291934 0.81915203911291934 0 0.57357644374324357 forward_v I I I I #
loop $-1 $-1 $260 $66 #
coedge $-1 $169 $169 $170 $261 reversed $104 $-1 #
coedge $-1 $170 $170 $169 $261 forward $106 $-1 #
coedge $-1 $171 $171 $107 $172 forward $166 $-1 #
edge $-1 $262 0 $262 6.2831853071796004 $171 $263 forward 7 unknown #
loop $-1 $-1 $178 $108 #
plane-surface $-1 -76.837061677907656 24.994394434807788 1.3376758799094119 -0.57357644374324357 0 0.81915203911291934 0.81915203911291934 0 0.57357644374324357 forward_v I I I I #
loop $-1 $-1 $264 $69 #
coedge $-1 $176 $176 $177 $265 reversed $109 $-1 #
coedge $-1 $177 $177 $176 $265 forward $111 $-1 #
coedge $-1 $178 $178 $112 $179 forward $173 $-1 #
edge $-1 $266 0 $266 6.2831853071796004 $178 $267 forward 7 unknown #
face $-1 $268 $269 $27 $-1 $270 reversed single #
loop $-1 $-1 $271 $113 #
plane-surface $-1 -76.837061677907656 0 0 1 0 0 0 0 -1 forward_v I I I I #
coedge $-1 $272 $191 $273 $274 forward $114 $-1 #
coedge $-1 $275 $116 $272 $276 forward $73 $-1 #
coedge $-1 $116 $275 $277 $278 forward $73 $-1 #
coedge $-1 $194 $193 $116 $187 reversed $195 $-1 #
edge $-1 $279 -30.945166918927839 $280 30.945166918927839 $186 $281 forward 7 unknown #
coedge $-1 $118 $117 $282 $283 forward $46 $-1 #
coedge $-1 $284 $285 $117 $190 reversed $269 $-1 #
edge $-1 $197 -76.837061677907656 $286 76.837061677907656 $189 $287 forward 7 unknown #
coedge $-1 $183 $288 $118 $192 reversed $114 $-1 #
edge $-1 $289 -76.837061677907656 $196 76.837061677907656 $191 $290 forward 7 unknown #
coedge $-1 $186 $119 $288 $291 forward $195 $-1 #
coedge $-1 $119 $186 $284 $292 reversed $195 $-1 #
loop $-1 $-1 $193 $268 #
vertex $-1 $120 $293 #
vertex $-1 $120 $294 #
straight-curve $-1 76.837061677907656 0 6.8038380245589689 0 1 0 I I #
face $-1 $295 $296 $28 $-1 $297 reversed single #
loop $-1 $-1 $298 $121 #
plane-surface $-1 -76.837061677907656 0 0 1 0 0 0 0 -1 forward_v I I I I #
coedge $-1 $299 $208 $213 $300 reversed $122 $-1 #
coedge $-1 $301 $124 $302 $303 reversed $77 $-1 #
coedge $-1 $124 $301 $299 $304 forward $77 $-1 #
coedge $-1 $213 $212 $124 $206 forward $214 $-1 #
edge $-1 $305 -17.454382193076309 $306 -9.5271872586267499 $205 $307 forward 7 unknown #
coedge $-1 $126 $125 $298 $308 reversed $49 $-1 #
coedge $-1 $202 $309 $125 $209 reversed $122 $-1 #
edge $-1 $215 -76.837061677907656 $310 76.837061677907656 $208 $311 forward 7 unknown #
coedge $-1 $312 $313 $126 $211 forward $296 $-1 #
edge $-1 $216 -76.837061677907656 $314 76.837061677907656 $210 $315 forward 7 unknown #
coedge $-1 $205 $127 $313 $316 forward $214 $-1 #
coedge $-1 $127 $205 $202 $300 forward $214 $-1 #
loop $-1 $-1 $127 $295 #
vertex $-1 $128 $317 #
vertex $-1 $316 $318 #
straight-curve $-1 76.837061677907656 -13.49078472585153 -2.0155509523421813 0 -1 0 I I #
face $-1 $-1 $230 $29 $-1 $319 reversed single #
loop $-1 $-1 $320 $129 #
plane-surface $-1 0 0 6.8038380245589689 0 0 1 1 0 0 forward_v I I I I #
coedge $-1 $321 $322 $323 $324 reversed $130 $-1 #
coedge $-1 $325 $132 $134 $228 forward $81 $-1 #
coedge $-1 $132 $325 $321 $326 forward $81 $-1 #
coedge $-1 $323 $135 $132 $225 forward $230 $-1 #
edge $-1 $232 -15.02433918921507 $327 -0.96292640131134988 $224 $328 forward 7 unknown #
coedge $-1 $329 $330 $133 $227 forward $219 $-1 #
edge $-1 $331 32.478150269503118 $231 38.418529578173988 $226 $332 forward 7 unknown #
edge $-1 $232 -153.67412335581534 $331 -145.27315827437988 $134 $333 forward 7 unknown #
coedge $-1 $135 $323 $329 $334 reversed $230 $-1 #
loop $-1 $-1 $323 $218 #
vertex $-1 $334 $335 #
vertex $-1 $136 $336 #
straight-curve $-1 76.837061677907656 -23.01797198447828 109.09574400681549 0 0 -1 I I #
coedge $-1 $234 $234 $-1 $337 reversed $139 $-1 #
edge $-1 $338 0 $338 6.2831853071796004 $140 $339 forward 7 unknown #
vertex $-1 $143 $340 #
ellipse-curve $-1 73.866872023572228 -20.205689426897536 3.8336483012999656 0.70710678939079041 0 0.70710677298230451 0.70710677298230451 0 -0.70710678939079041 1 I I #
coedge $-1 $238 $238 $-1 $341 reversed $146 $-1 #
edge $-1 $342 0 $342 6.2831853071796004 $147 $343 forward 7 unknown #
vertex $-1 $150 $344 #
ellipse-curve $-1 73.866872023572228 -15.98726559052642 3.8336483012999656 0.70710678939079041 0 0.70710677298230451 0.70710677298230451 0 -0.70710678939079041 1 I I #
coedge $-1 $242 $242 $-1 $345 reversed $153 $-1 #
edge $-1 $346 0 $346 6.2831853071796004 $154 $347 forward 7 unknown #
vertex $-1 $157 $348 #
ellipse-curve $-1 73.866872023572228 -11.768841754155304 3.8336483012999656 0.70710678939079041 0 0.70710677298230451 0.70710677298230451 0 -0.70710678939079041 1 I I #
face $-1 $-1 $349 $33 $-1 $350 reversed single #
loop $-1 $-1 $351 $158 #
plane-surface $-1 0 30.945166918927839 0 0 -1 0 0 0 -1 forward_v I I I I #
coedge $-1 $352 $161 $163 $255 forward $100 $-1 #
coedge $-1 $161 $352 $351 $353 reversed $100 $-1 #
coedge $-1 $354 $164 $161 $252 forward $159 $-1 #
edge $-1 $258 6.5464247332838426 $355 18.447969701523945 $251 $356 forward 7 unknown #
coedge $-1 $357 $358 $162 $254 forward $349 $-1 #
edge $-1 $359 -62.272397812948505 $257 -56.806235668298946 $253 $360 forward 7 unknown #
edge $-1 $258 -9.529962752613379 $359 0 $163 $361 forward 7 unknown #
coedge $-1 $164 $354 $357 $362 forward $159 $-1 #
vertex $-1 $254 $363 #
vertex $-1 $165 $364 #
straight-curve $-1 -82.490459423848364 19.043621950687736 6.8038380245589707 1 0 0 I I #
coedge $-1 $260 $260 $-1 $365 reversed $168 $-1 #
edge $-1 $366 0 $366 6.2831853071796004 $169 $367 forward 7 unknown #
vertex $-1 $172 $368 #
ellipse-curve $-1 -72.933817467170954 22.444063370184907 4.0707569522341842 -0.57357644374324357 0 0.81915203911291934 0.81915203911291934 0 0.57357644374324357 1 I I #
coedge $-1 $264 $264 $-1 $369 reversed $175 $-1 #
edge $-1 $370 0 $370 6.2831853071796004 $176 $371 forward 7 unknown #
vertex $-1 $179 $372 #
ellipse-curve $-1 -72.933817467170954 27.544725499430662 4.0707569522341842 -0.57357644374324357 0 0.81915203911291934 0.81915203911291934 0 0.57357644374324357 1 I I #
face $-1 $-1 $195 $27 $-1 $373 reversed single #
loop $-1 $-1 $284 $180 #
plane-surface $-1 0 30.945166918927839 0 0 -1 0 0 0 -1 forward_v I I I I #
coedge $-1 $374 $282 $285 $375 forward $181 $-1 #
coedge $-1 $288 $183 $184 $276 reversed $114 $-1 #
coedge $-1 $282 $374 $183 $274 reversed $181 $-1 #
edge $-1 $289 -6.8038380245589689 $376 6.8038380245589689 $273 $377 forward 7 unknown #
coedge $-1 $185 $184 $374 $378 forward $73 $-1 #
edge $-1 $280 -76.837061677907656 $376 76.837061677907656 $272 $379 forward 7 unknown #
coedge $-1 $285 $284 $185 $278 reversed $269 $-1 #
edge $-1 $380 -76.837061677907656 $279 76.837061677907656 $277 $381 forward 7 unknown #
vertex $-1 $187 $382 #
vertex $-1 $291 $383 #
straight-curve $-1 76.837061677907656 0 -6.8038380245589689 0 -1 0 I I #
coedge $-1 $271 $273 $188 $283 reversed $181 $-1 #
edge $-1 $286 -30.945166918927839 $289 30.945166918927839 $282 $384 forward 7 unknown #
coedge $-1 $277 $189 $194 $292 forward $269 $-1 #
coedge $-1 $189 $277 $271 $375 reversed $269 $-1 #
vertex $-1 $190 $385 #
straight-curve $-1 0 30.945166918927839 6.8038380245589689 -1 0 0 I I #
coedge $-1 $191 $272 $193 $291 reversed $114 $-1 #
vertex $-1 $283 $386 #
straight-curve $-1 0 -30.945166918927839 6.8038380245589689 1 0 0 I I #
edge $-1 $196 -6.8038380245589689 $280 6.8038380245589689 $193 $387 forward 7 unknown #
edge $-1 $197 -6.8038380245589689 $279 6.8038380245589689 $194 $388 forward 7 unknown #
point $-1 76.837061677907656 -30.945166918927839 6.8038380245589689 #
point $-1 76.837061677907656 30.945166918927839 6.8038380245589689 #
face $-1 $-1 $214 $28 $-1 $389 reversed single #
loop $-1 $-1 $210 $199 #
plane-surface $-1 0 -30.945166918927839 0 0 1 0 0 0 1 forward_v I I I I #
coedge $-1 $390 $391 $207 $308 forward $200 $-1 #
coedge $-1 $309 $202 $204 $304 reversed $122 $-1 #
edge $-1 $306 -3.2577754761710906 $215 -0.25777547617109065 $213 $392 forward 7 unknown #
coedge $-1 $204 $203 $393 $394 reversed $77 $-1 #
coedge $-1 $313 $312 $203 $303 forward $296 $-1 #
edge $-1 $395 -76.837061677907656 $305 76.837061677907656 $302 $396 forward 7 unknown #
edge $-1 $397 -76.837061677907656 $306 76.837061677907656 $299 $398 forward 7 unknown #
vertex $-1 $303 $399 #
vertex $-1 $206 $400 #
straight-curve $-1 76.837061677907656 -13.49078472585153 -5.0155509523421813 0 1 0 I I #
edge $-1 $314 -17.454382193076309 $310 -9.5271872586267499 $298 $401 forward 7 unknown #
coedge $-1 $208 $299 $390 $402 reversed $122 $-1 #
vertex $-1 $308 $403 #
straight-curve $-1 0 -23.01797198447828 -2.0155509523421813 -1 0 0 I I #
coedge $-1 $302 $210 $391 $404 forward $296 $-1 #
coedge $-1 $210 $302 $212 $316 reversed $296 $-1 #
vertex $-1 $404 $405 #
straight-curve $-1 0 -30.945166918927839 -2.0155509523421813 -1 0 0 I I #
edge $-1 $216 2.0155509523421813 $305 5.0155509523421813 $212 $406 forward 7 unknown #
point $-1 76.837061677907656 -23.01797198447828 -2.0155509523421813 #
point $-1 76.837061677907656 -30.945166918927839 -2.0155509523421813 #
plane-surface $-1 76.837061677907656 0 0 -1 0 0 0 0 1 forward_v I I I I #
coedge $-1 $330 $329 $322 $407 forward $219 $-1 #
coedge $-1 $322 $221 $223 $326 reversed $130 $-1 #
coedge $-1 $221 $321 $320 $407 reversed $130 $-1 #
coedge $-1 $229 $224 $221 $324 forward $230 $-1 #
edge $-1 $327 -108.2322854287745 $408 -102.29190598225652 $323 $409 forward 7 unknown #
coedge $-1 $223 $222 $330 $410 reversed $81 $-1 #
edge $-1 $411 145.27315827437988 $327 153.67412335581534 $321 $412 forward 7 unknown #
vertex $-1 $225 $413 #
straight-curve $-1 76.837061677907656 -7.9936327952632098 0.86345857804098358 0 1 0 I I #
coedge $-1 $320 $226 $229 $334 forward $219 $-1 #
coedge $-1 $226 $320 $325 $410 forward $219 $-1 #
vertex $-1 $227 $414 #
straight-curve $-1 38.418532099733667 -23.01797198447828 6.8038380245589707 1 0 0 I I #
straight-curve $-1 -31.826951779107503 -23.01797198447828 109.52747455661583 -0.70710677298230451 0 0.70710678939079041 I I #
edge $-1 $231 -23.01797198447828 $408 -8.9565591965745597 $229 $415 forward 7 unknown #
point $-1 76.837061677907656 -23.01797198447828 6.8038380245589689 #
point $-1 76.837061677907656 -23.01797198447828 0.86345857804099069 #
edge $-1 $416 1 $416 0 $234 $-1 forward 7 unknown #
vertex $-1 $235 $417 #
ellipse-curve $-1 71.309120865011991 -20.205689426897536 1.2758972020926191 0.70710678939079041 0 0.70710677298230451 0.70710677298230451 0 -0.70710678939079041 1 I I #
point $-1 74.573978796554542 -20.205689426897536 3.1265415119091911 #
edge $-1 $418 1 $418 0 $238 $-1 forward 7 unknown #
vertex $-1 $239 $419 #
ellipse-curve $-1 71.309120865011991 -15.98726559052642 1.2758972020926191 0.70710678939079041 0 0.70710677298230451 0.70710677298230451 0 -0.70710678939079041 1 I I #
point $-1 74.573978796554542 -15.98726559052642 3.1265415119091911 #
edge $-1 $420 1 $420 0 $242 $-1 forward 7 unknown #
vertex $-1 $243 $421 #
ellipse-curve $-1 71.309120865011991 -11.768841754155304 1.2758972020926191 0.70710678939079041 0 0.70710677298230451 0.70710677298230451 0 -0.70710678939079041 1 I I #
point $-1 74.573978796554542 -11.768841754155304 3.1265415119091911 #
loop $-1 $-1 $253 $246 #
plane-surface $-1 -76.837061677907656 0 0 1 0 0 0 0 -1 forward_v I I I I #
coedge $-1 $422 $423 $250 $353 forward $247 $-1 #
coedge $-1 $250 $249 $358 $424 reversed $100 $-1 #
edge $-1 $355 21.55702543679844 $425 31.086988189411823 $351 $426 forward 7 unknown #
coedge $-1 $256 $251 $423 $427 forward $159 $-1 #
vertex $-1 $427 $428 #
straight-curve $-1 -69.030573256434224 12.497197217403894 6.8038380245589707 0 1 0 I I #
coedge $-1 $429 $253 $256 $362 reversed $349 $-1 #
coedge $-1 $253 $429 $352 $424 forward $349 $-1 #
vertex $-1 $254 $430 #
straight-curve $-1 -76.837061677907656 19.043621950687736 63.610073692857917 0 0 1 I I #
straight-curve $-1 -76.837061677907656 19.043621950687736 1.3376758799094119 -0.81915203911291934 0 -0.57357644374324357 I I #
edge $-1 $431 -30.945166918927839 $257 -19.043621950687736 $357 $432 forward 7 unknown #
point $-1 -76.837061677907656 19.043621950687736 6.8038380245589689 #
point $-1 -69.030573256434238 19.043621950687736 6.8038380245589698 #
edge $-1 $433 1 $433 0 $260 $-1 forward 7 unknown #
vertex $-1 $261 $434 #
ellipse-curve $-1 -72.056972128263325 22.444063370184907 2.8184920533040558 -0.57357644374324357 0 0.81915203911291934 0.81915203911291934 0 0.57357644374324357 1 I I #
point $-1 -72.114665428058046 22.444063370184907 4.644333395977454 #
edge $-1 $435 1 $435 0 $264 $-1 forward 7 unknown #
vertex $-1 $265 $436 #
ellipse-curve $-1 -72.056972128263325 27.544725499430662 2.8184920533040558 -0.57357644374324357 0 0.81915203911291934 0.81915203911291934 0 0.57357644374324357 1 I I #
point $-1 -72.114665428058046 27.544725499430662 4.644333395977454 #
plane-surface $-1 76.837061677907656 0 0 -1 0 0 0 0 1 forward_v I I I I #
coedge $-1 $273 $271 $275 $378 reversed $181 $-1 #
edge $-1 $286 -6.8038380245589689 $380 6.8038380245589689 $285 $437 forward 7 unknown #
vertex $-1 $378 $438 #
straight-curve $-1 -76.837061677907656 -30.945166918927839 0 0 0 -1 I I #
edge $-1 $376 -30.945166918927839 $380 30.945166918927839 $374 $439 forward 7 unknown #
straight-curve $-1 0 -30.945166918927839 -6.8038380245589689 -1 0 0 I I #
vertex $-1 $278 $440 #
straight-curve $-1 0 30.945166918927839 -6.8038380245589689 1 0 0 I I #
point $-1 76.837061677907656 30.945166918927839 -6.8038380245589689 #
point $-1 76.837061677907656 -30.945166918927839 -6.8038380245589689 #
straight-curve $-1 -76.837061677907656 0 6.8038380245589689 0 -1 0 I I #
point $-1 -76.837061677907656 30.945166918927839 6.8038380245589689 #
point $-1 -76.837061677907656 -30.945166918927839 6.8038380245589689 #
straight-curve $-1 76.837061677907656 -30.945166918927839 0 0 0 -1 I I #
straight-curve $-1 76.837061677907656 30.945166918927839 0 0 0 -1 I I #
plane-surface $-1 76.837061677907656 0 0 -1 0 0 0 0 1 forward_v I I I I #
coedge $-1 $393 $298 $309 $402 forward $200 $-1 #
coedge $-1 $298 $393 $312 $404 reversed $200 $-1 #
straight-curve $-1 76.837061677907656 -23.01797198447828 -1.7577754761710906 0 0 1 I I #
coedge $-1 $391 $390 $301 $394 forward $200 $-1 #
edge $-1 $397 9.5271872586267499 $395 17.454382193076309 $393 $441 forward 7 unknown #
vertex $-1 $303 $442 #
straight-curve $-1 0 -30.945166918927839 -5.0155509523421813 1 0 0 I I #
vertex $-1 $394 $443 #
straight-curve $-1 0 -23.01797198447828 -5.0155509523421813 1 0 0 I I #
point $-1 76.837061677907656 -30.945166918927839 -5.0155509523421813 #
point $-1 76.837061677907656 -23.01797198447828 -5.0155509523421813 #
straight-curve $-1 -76.837061677907656 -13.49078472585153 -2.0155509523421813 0 1 0 I I #
edge $-1 $310 0.25777547617109065 $397 3.2577754761710906 $390 $444 forward 7 unknown #
point $-1 -76.837061677907656 -23.01797198447828 -2.0155509523421813 #
edge $-1 $314 2.0155509523421813 $395 5.0155509523421813 $391 $445 forward 7 unknown #
point $-1 -76.837061677907656 -30.945166918927839 -2.0155509523421813 #
straight-curve $-1 76.837061677907656 -30.945166918927839 0 0 0 -1 I I #
edge $-1 $408 -38.418529578173988 $411 -32.478150269503118 $320 $446 forward 7 unknown #
vertex $-1 $407 $447 #
straight-curve $-1 76.837061677907656 -8.9565591965745597 109.09574400681549 0 0 1 I I #
edge $-1 $411 0.96292640131134988 $331 15.02433918921507 $330 $448 forward 7 unknown #
vertex $-1 $410 $449 #
straight-curve $-1 -31.826951779107503 -8.9565591965745597 109.52747455661583 0.70710677298230451 0 -0.70710678939079041 I I #
point $-1 76.837061677907656 -8.9565591965745597 0.86345857804099069 #
point $-1 70.896682369236785 -23.01797198447828 6.8038380245589707 #
straight-curve $-1 76.837061677907656 0 6.8038380245589689 0 1 0 I I #
vertex $-1 $337 $450 #
point $-1 72.016227637994291 -20.205689426897536 0.56879041270182884 #
vertex $-1 $341 $451 #
point $-1 72.016227637994291 -15.98726559052642 0.56879041270182884 #
vertex $-1 $345 $452 #
point $-1 72.016227637994291 -11.768841754155304 0.56879041270182884 #
coedge $-1 $423 $351 $429 $453 reversed $247 $-1 #
coedge $-1 $351 $422 $354 $427 reversed $247 $-1 #
edge $-1 $425 -18.447969701523945 $359 -6.5464247332838426 $358 $454 forward 7 unknown #
vertex $-1 $353 $455 #
straight-curve $-1 -51.372091912671721 30.945166918927839 19.16844001228046 -0.81915203911291934 0 -0.57357644374324357 I I #
edge $-1 $355 69.030573256434238 $431 76.837061677907656 $423 $456 forward 7 unknown #
point $-1 -69.030573256434238 30.945166918927839 6.8038380245589698 #
coedge $-1 $358 $357 $422 $453 forward $349 $-1 #
point $-1 -76.837061677907656 19.043621950687736 1.3376758799094119 #
vertex $-1 $427 $457 #
straight-curve $-1 -76.837061677907656 0 6.8038380245589689 0 -1 0 I I #
vertex $-1 $365 $458 #
point $-1 -71.237820089150404 22.444063370184907 3.3920684970472994 #
vertex $-1 $369 $459 #
point $-1 -71.237820089150404 27.544725499430662 3.3920684970472994 #
straight-curve $-1 -76.837061677907656 30.945166918927839 0 0 0 -1 I I #
point $-1 -76.837061677907656 -30.945166918927839 -6.8038380245589689 #
straight-curve $-1 -76.837061677907656 0 -6.8038380245589689 0 1 0 I I #
point $-1 -76.837061677907656 30.945166918927839 -6.8038380245589689 #
straight-curve $-1 -76.837061677907656 -13.49078472585153 -5.0155509523421813 0 -1 0 I I #
point $-1 -76.837061677907656 -30.945166918927839 -5.0155509523421813 #
point $-1 -76.837061677907656 -23.01797198447828 -5.0155509523421813 #
straight-curve $-1 -76.837061677907656 -23.01797198447828 -1.7577754761710906 0 0 -1 I I #
straight-curve $-1 -76.837061677907656 -30.945166918927839 0 0 0 -1 I I #
straight-curve $-1 38.418532099733667 -8.9565591965745597 6.8038380245589707 -1 0 0 I I #
point $-1 76.837061677907656 -8.9565591965745597 6.8038380245589689 #
straight-curve $-1 70.896682369236771 -7.9936327952632098 6.8038380245589707 0 -1 0 I I #
point $-1 70.896682369236785 -8.9565591965745597 6.8038380245589707 #
point $-1 70.602014075621199 -20.205689426897536 0.56879042911031474 #
point $-1 70.602014075621199 -15.98726559052642 0.56879042911031474 #
point $-1 70.602014075621199 -11.768841754155304 0.56879042911031474 #
edge $-1 $431 -6.8038380245589689 $425 -1.3376758799094119 $422 $460 forward 7 unknown #
straight-curve $-1 -76.837061677907656 12.497197217403894 1.3376758799094084 0 -1 0 I I #
point $-1 -76.837061677907656 30.945166918927839 1.3376758799094119 #
straight-curve $-1 0 30.945166918927839 6.8038380245589689 -1 0 0 I I #
point $-1 -76.837061677907656 30.945166918927839 6.8038380245589689 #
point $-1 -71.48339568452009 22.444063370184907 1.9993400141911366 #
point $-1 -71.48339568452009 27.544725499430662 1.9993400141911366 #
straight-curve $-1 -76.837061677907656 30.945166918927839 0 0 0 -1 I I #
End-of-ACIS-data 