500 0 18 0           
7 Unknown 11 ACIS 5.0 NT 24 Fri Mar 26 14:27:31 1999 
-1 9.9999999999999995e-007 1e-010 
body $-1 $18 $-1 $19 #
body $-1 $20 $-1 $21 #
body $-1 $22 $-1 $23 #
body $-1 $24 $-1 $25 #
body $-1 $26 $-1 $27 #
body $-1 $28 $-1 $29 #
body $-1 $30 $-1 $31 #
body $-1 $32 $-1 $33 #
body $-1 $34 $-1 $35 #
body $-1 $36 $-1 $37 #
body $-1 $38 $-1 $39 #
body $-1 $40 $-1 $41 #
body $-1 $42 $-1 $43 #
body $-1 $44 $-1 $45 #
body $-1 $46 $-1 $47 #
body $-1 $48 $-1 $49 #
body $-1 $50 $-1 $51 #
body $-1 $52 $-1 $53 #
lump $-1 $-1 $54 $0 #
transform $-1 1 0 0 0 1 0 0 0 1 51.263771477401043 25.34918169176408 8.5615667856252919 1 rotate no_reflect no_shear #
lump $-1 $-1 $55 $1 #
transform $-1 1 0 0 0 1 0 0 0 1 51.263771477401043 25.34918169176408 8.5615667856252919 1 rotate no_reflect no_shear #
lump $-1 $-1 $56 $2 #
transform $-1 1 0 0 0 1 0 0 0 1 51.263771477401043 25.34918169176408 8.5615667856252919 1 rotate no_reflect no_shear #
lump $-1 $-1 $57 $3 #
transform $-1 1 0 0 0 1 0 0 0 1 51.263771477401043 25.34918169176408 8.5615667856252919 1 rotate no_reflect no_shear #
lump $-1 $-1 $58 $4 #
transform $-1 1 0 0 0 1 0 0 0 1 51.263771477401043 25.34918169176408 8.5615667856252919 1 rotate no_reflect no_shear #
lump $-1 $-1 $59 $5 #
transform $-1 1 0 0 0 1 0 0 0 1 51.263771477401043 25.34918169176408 8.5615667856252919 1 rotate no_reflect no_shear #
lump $-1 $-1 $60 $6 #
transform $-1 1 0 0 0 1 0 0 0 1 51.263771477401043 25.34918169176408 8.5615667856252919 1 rotate no_reflect no_shear #
lump $-1 $-1 $61 $7 #
transform $-1 1 0 0 0 1 0 0 0 1 51.263771477401043 25.34918169176408 8.5615667856252919 1 rotate no_reflect no_shear #
lump $-1 $-1 $62 $8 #
transform $-1 1 0 0 0 1 0 0 0 1 51.263771477401043 25.34918169176408 8.5615667856252919 1 rotate no_reflect no_shear #
lump $-1 $-1 $63 $9 #
transform $-1 1 0 0 0 1 0 0 0 1 51.263771477401043 25.34918169176408 8.5615667856252919 1 rotate no_reflect no_shear #
lump $-1 $-1 $64 $10 #
transform $-1 1 0 0 0 1 0 0 0 1 51.263771477401043 25.34918169176408 8.5615667856252919 1 rotate no_reflect no_shear #
lump $-1 $-1 $65 $11 #
transform $-1 1 0 0 0 1 0 0 0 1 51.263771477401043 25.34918169176408 8.5615667856252919 1 rotate no_reflect no_shear #
lump $-1 $-1 $66 $12 #
transform $-1 1 0 0 0 1 0 0 0 1 51.263771477401043 25.34918169176408 8.5615667856252919 1 rotate no_reflect no_shear #
lump $-1 $-1 $67 $13 #
transform $-1 1 0 0 0 1 0 0 0 1 51.263771477401043 25.34918169176408 8.5615667856252919 1 rotate no_reflect no_shear #
lump $-1 $-1 $68 $14 #
transform $-1 1 0 0 0 1 0 0 0 1 51.263771477401043 25.34918169176408 8.5615667856252919 1 rotate no_reflect no_shear #
lump $-1 $-1 $69 $15 #
transform $-1 1 0 0 0 1 0 0 0 1 51.263771477401043 25.34918169176408 8.5615667856252919 1 rotate no_reflect no_shear #
lump $-1 $-1 $70 $16 #
transform $-1 1 0 0 0 1 0 0 0 1 51.263771477401043 25.34918169176408 8.5615667856252919 1 rotate no_reflect no_shear #
lump $-1 $-1 $71 $17 #
transform $-1 1 0 0 0 1 0 0 0 1 51.263771477401043 25.34918169176408 8.5615667856252919 1 rotate no_reflect no_shear #
shell $-1 $-1 $-1 $72 $-1 $18 #
shell $-1 $-1 $-1 $73 $-1 $20 #
shell $-1 $-1 $-1 $74 $-1 $22 #
shell $-1 $-1 $-1 $75 $-1 $24 #
shell $-1 $-1 $-1 $76 $-1 $26 #
shell $-1 $-1 $-1 $77 $-1 $28 #
shell $-1 $-1 $-1 $78 $-1 $30 #
shell $-1 $-1 $-1 $79 $-1 $32 #
shell $-1 $-1 $-1 $80 $-1 $34 #
shell $-1 $-1 $-1 $81 $-1 $36 #
shell $-1 $-1 $-1 $82 $-1 $38 #
shell $-1 $-1 $-1 $83 $-1 $40 #
shell $-1 $-1 $-1 $84 $-1 $42 #
shell $-1 $-1 $-1 $85 $-1 $44 #
shell $-1 $-1 $-1 $86 $-1 $46 #
shell $-1 $-1 $-1 $87 $-1 $48 #
shell $-1 $-1 $-1 $88 $-1 $50 #
shell $-1 $-1 $-1 $89 $-1 $52 #
face $-1 $90 $91 $54 $-1 $92 forward single #
face $-1 $93 $94 $55 $-1 $95 forward single #
face $-1 $96 $97 $56 $-1 $98 reversed single #
face $-1 $99 $100 $57 $-1 $101 forward single #
face $-1 $102 $103 $58 $-1 $104 reversed single #
face $-1 $105 $106 $59 $-1 $107 forward single #
face $-1 $108 $109 $60 $-1 $110 reversed single #
face $-1 $111 $112 $61 $-1 $113 forward single #
face $-1 $114 $115 $62 $-1 $116 reversed single #
face $-1 $117 $118 $63 $-1 $119 forward single #
face $-1 $120 $121 $64 $-1 $122 reversed single #
face $-1 $123 $124 $65 $-1 $125 forward single #
face $-1 $126 $127 $66 $-1 $128 forward single #
face $-1 $129 $130 $67 $-1 $131 forward single #
face $-1 $132 $133 $68 $-1 $134 reversed single #
face $-1 $135 $136 $69 $-1 $137 forward single #
face $-1 $138 $139 $70 $-1 $140 forward single #
face $-1 $141 $142 $71 $-1 $143 forward single #
face $-1 $144 $145 $54 $-1 $146 reversed single #
loop $-1 $-1 $147 $72 #
plane-surface $-1 0 0 8.5615667856252919 0 0 1 1 0 0 forward_v I I I I #
face $-1 $148 $149 $55 $-1 $150 forward single #
loop $-1 $-1 $151 $73 #
plane-surface $-1 0 -25.34918169176408 0 0 1 0 0 0 1 forward_v I I I I #
face $-1 $152 $153 $56 $-1 $154 reversed single #
loop $-1 $-1 $155 $74 #
plane-surface $-1 -130.94263827127625 -16.697418890195983 68.037795768263507 0 1 0 -0.77714596973225614 0 0.62932038083071107 forward_v I I I I #
face $-1 $156 $157 $57 $-1 $158 forward single #
loop $-1 $159 $160 $75 #
cone-surface $-1 -47.60564087211646 -13.544222089225418 4.7306524066115436 0.77714596973225614 0 -0.62932038083071107 0.9439805712460666 0 1.1657189545983841 1 I I 0 1 1.5 forward I I I I #
face $-1 $161 $162 $58 $-1 $163 reversed single #
loop $-1 $-1 $164 $76 #
plane-surface $-1 -130.94263827127625 -4.7840165635230081 68.037795768263507 0 1 0 -0.77714596973225614 0 0.62932038083071107 forward_v I I I I #
face $-1 $165 $166 $59 $-1 $167 forward single #
loop $-1 $168 $169 $77 #
cone-surface $-1 -47.60564087211646 -1.6308197625524414 4.7306524066115436 0.77714596973225614 0 -0.62932038083071107 0.9439805712460666 0 1.1657189545983841 1 I I 0 1 1.5 forward I I I I #
face $-1 $170 $171 $60 $-1 $172 reversed single #
loop $-1 $-1 $173 $78 #
plane-surface $-1 -130.94263827127625 7.1293857631499717 68.037795768263507 0 1 0 -0.77714596973225614 0 0.62932038083071107 forward_v I I I I #
face $-1 $174 $175 $61 $-1 $176 forward single #
loop $-1 $177 $178 $79 #
cone-surface $-1 -47.60564087211646 10.282582564120538 4.7306524066115436 0.77714596973225614 0 -0.62932038083071107 0.9439805712460666 0 1.1657189545983841 1 I I 0 1 1.5 forward I I I I #
face $-1 $179 $180 $62 $-1 $181 reversed single #
loop $-1 $-1 $182 $80 #
plane-surface $-1 -130.94263827127625 19.042788089822952 68.037795768263507 0 1 0 -0.77714596973225614 0 0.62932038083071107 forward_v I I I I #
face $-1 $183 $184 $63 $-1 $185 forward single #
loop $-1 $186 $187 $81 #
cone-surface $-1 -47.60564087211646 22.195984890793518 4.7306524066115436 0.77714596973225614 0 -0.62932038083071107 0.9439805712460666 0 1.1657189545983841 1 I I 0 1 1.5 forward I I I I #
face $-1 $188 $189 $64 $-1 $190 reversed single #
loop $-1 $-1 $191 $82 #
plane-surface $-1 21.117442061556709 0.99840432835937953 147.12938349534079 0 -1 0 -0.54463904215088732 0 -0.83867056331134215 forward_v I I I I #
face $-1 $192 $193 $65 $-1 $194 forward single #
loop $-1 $195 $196 $83 #
cone-surface $-1 48.481843000771313 -3.8638310262889419 6.5124723619178457 -0.54463904215088732 0 -0.83867056331134215 0.41933528165567108 0 -0.27231952107544366 1 I I 0 1 0.5 forward I I I I #
face $-1 $197 $198 $66 $-1 $199 forward single #
loop $-1 $200 $201 $84 #
cone-surface $-1 48.481843000771313 -2.0404927682958203 6.5124723619178457 -0.54463904215088732 0 -0.83867056331134215 0.41933528165567108 0 -0.27231952107544366 1 I I 0 1 0.5 forward I I I I #
face $-1 $202 $203 $67 $-1 $204 forward single #
loop $-1 $205 $206 $85 #
cone-surface $-1 48.481843000771313 -0.21715451030269861 6.5124723619178457 -0.54463904215088732 0 -0.83867056331134215 0.41933528165567108 0 -0.27231952107544366 1 I I 0 1 0.5 forward I I I I #
face $-1 $207 $208 $68 $-1 $209 reversed single #
loop $-1 $-1 $210 $86 #
plane-surface $-1 21.117442061556709 13.731152666519124 147.12938349534079 0 -1 0 -0.54463904215088732 0 -0.83867056331134215 forward_v I I I I #
face $-1 $211 $212 $69 $-1 $213 forward single #
loop $-1 $214 $215 $87 #
cone-surface $-1 48.481843000771313 8.8689173118707956 6.5124723619178457 -0.54463904215088732 0 -0.83867056331134215 0.41933528165567108 0 -0.27231952107544366 1 I I 0 1 0.5 forward I I I I #
face $-1 $216 $217 $70 $-1 $218 forward single #
loop $-1 $219 $220 $88 #
cone-surface $-1 48.481843000771313 10.692255569863924 6.5124723619178457 -0.54463904215088732 0 -0.83867056331134215 0.41933528165567108 0 -0.27231952107544366 1 I I 0 1 0.5 forward I I I I #
face $-1 $221 $222 $71 $-1 $223 forward single #
loop $-1 $224 $225 $89 #
cone-surface $-1 48.481843000771313 12.515593827857039 6.5124723619178457 -0.54463904215088732 0 -0.83867056331134215 0.41933528165567108 0 -0.27231952107544366 1 I I 0 1 0.5 forward I I I I #
face $-1 $226 $227 $54 $-1 $228 reversed single #
loop $-1 $-1 $229 $90 #
plane-surface $-1 0 0 -8.5615667856252919 0 0 1 1 0 0 forward_v I I I I #
coedge $-1 $230 $231 $232 $233 forward $91 $-1 #
face $-1 $234 $235 $55 $-1 $236 reversed single #
loop $-1 $-1 $237 $93 #
plane-surface $-1 0 0 8.5615667856252919 0 0 1 1 0 0 forward_v I I I I #
coedge $-1 $238 $239 $240 $241 forward $94 $-1 #
face $-1 $242 $243 $56 $-1 $244 reversed single #
loop $-1 $-1 $245 $96 #
plane-surface $-1 -51.263771477401036 -13.544222089225418 3.5151233903103645 -0.77714596973225614 0 0.62932038083071107 0.62932038083071107 0 0.77714596973225614 forward_v I I I I #
coedge $-1 $246 $247 $248 $249 reversed $97 $-1 #
face $-1 $-1 $250 $57 $-1 $251 forward single #
loop $-1 $252 $253 $99 #
cone-surface $-1 -45.407915377570347 -13.544222089225418 2.9509694396322228 0.77714596973225614 0 -0.62932038083071107 0.4719902856230333 0 0.58285947729919207 1 I I -0.70710678118654757 0.70710678118654757 0.75 forward I I I I #
loop $-1 $-1 $254 $75 #
coedge $-1 $160 $160 $255 $256 reversed $100 $-1 #
face $-1 $257 $258 $58 $-1 $259 reversed single #
loop $-1 $-1 $260 $102 #
plane-surface $-1 -51.263771477401036 -1.6308197625524414 3.5151233903103645 -0.77714596973225614 0 0.62932038083071107 0.62932038083071107 0 0.77714596973225614 forward_v I I I I #
coedge $-1 $261 $262 $263 $264 reversed $103 $-1 #
face $-1 $-1 $265 $59 $-1 $266 forward single #
loop $-1 $267 $268 $105 #
cone-surface $-1 -45.407915377570347 -1.6308197625524414 2.9509694396322228 0.77714596973225614 0 -0.62932038083071107 0.4719902856230333 0 0.58285947729919207 1 I I -0.70710678118654757 0.70710678118654757 0.75 forward I I I I #
loop $-1 $-1 $269 $77 #
coedge $-1 $169 $169 $270 $271 reversed $106 $-1 #
face $-1 $272 $273 $60 $-1 $274 reversed single #
loop $-1 $-1 $275 $108 #
plane-surface $-1 -51.263771477401036 10.282582564120538 3.5151233903103645 -0.77714596973225614 0 0.62932038083071107 0.62932038083071107 0 0.77714596973225614 forward_v I I I I #
coedge $-1 $276 $277 $278 $279 reversed $109 $-1 #
face $-1 $-1 $280 $61 $-1 $281 forward single #
loop $-1 $282 $283 $111 #
cone-surface $-1 -45.407915377570347 10.282582564120538 2.9509694396322228 0.77714596973225614 0 -0.62932038083071107 0.4719902856230333 0 0.58285947729919207 1 I I -0.70710678118654757 0.70710678118654757 0.75 forward I I I I #
loop $-1 $-1 $284 $79 #
coedge $-1 $178 $178 $285 $286 reversed $112 $-1 #
face $-1 $287 $288 $62 $-1 $289 forward single #
loop $-1 $-1 $290 $114 #
plane-surface $-1 -51.263771477401036 22.195984890793518 3.5151233903103645 -0.77714596973225614 0 0.62932038083071107 0.62932038083071107 0 0.77714596973225614 forward_v I I I I #
coedge $-1 $291 $292 $293 $294 reversed $115 $-1 #
face $-1 $-1 $295 $63 $-1 $296 forward single #
loop $-1 $297 $298 $117 #
cone-surface $-1 -45.407915377570347 22.195984890793518 2.9509694396322228 0.77714596973225614 0 -0.62932038083071107 0.4719902856230333 0 0.58285947729919207 1 I I -0.70710678118654757 0.70710678118654757 0.75 forward I I I I #
loop $-1 $-1 $299 $81 #
coedge $-1 $187 $187 $300 $301 reversed $118 $-1 #
face $-1 $302 $303 $64 $-1 $304 reversed single #
loop $-1 $-1 $305 $120 #
plane-surface $-1 -34.723060727430656 -2.0404927682958203 61.14255129050909 0.54463904215088732 0 0.83867056331134215 0.83867056331134215 0 -0.54463904215088732 forward_v I I I I #
coedge $-1 $306 $307 $308 $309 reversed $121 $-1 #
face $-1 $-1 $310 $65 $-1 $311 forward single #
loop $-1 $312 $313 $123 #
cone-surface $-1 48.073363719158145 -3.8638310262889419 5.8834694394343394 -0.54463904215088732 0 -0.83867056331134215 0.20966764082783554 0 -0.13615976053772183 1 I I -0.70710678118654746 0.70710678118654746 0.25 forward I I I I #
loop $-1 $-1 $314 $83 #
coedge $-1 $196 $196 $315 $316 reversed $124 $-1 #
face $-1 $-1 $317 $66 $-1 $318 forward single #
loop $-1 $319 $320 $126 #
cone-surface $-1 48.073363719158145 -2.0404927682958203 5.8834694394343394 -0.54463904215088732 0 -0.83867056331134215 0.20966764082783554 0 -0.13615976053772183 1 I I -0.70710678118654746 0.70710678118654746 0.25 forward I I I I #
loop $-1 $-1 $321 $84 #
coedge $-1 $201 $201 $322 $323 reversed $127 $-1 #
face $-1 $-1 $324 $67 $-1 $325 forward single #
loop $-1 $326 $327 $129 #
cone-surface $-1 48.073363719158145 -0.21715451030269861 5.8834694394343394 -0.54463904215088732 0 -0.83867056331134215 0.20966764082783554 0 -0.13615976053772183 1 I I -0.70710678118654746 0.70710678118654746 0.25 forward I I I I #
loop $-1 $-1 $328 $85 #
coedge $-1 $206 $206 $329 $330 reversed $130 $-1 #
face $-1 $331 $332 $68 $-1 $333 reversed single #
loop $-1 $-1 $334 $132 #
plane-surface $-1 -34.723060727430656 10.692255569863924 61.14255129050909 0.54463904215088732 0 0.83867056331134215 0.83867056331134215 0 -0.54463904215088732 forward_v I I I I #
coedge $-1 $335 $336 $337 $338 reversed $133 $-1 #
face $-1 $-1 $339 $69 $-1 $340 forward single #
loop $-1 $341 $342 $135 #
cone-surface $-1 48.073363719158145 8.8689173118707956 5.8834694394343394 -0.54463904215088732 0 -0.83867056331134215 0.20966764082783554 0 -0.13615976053772183 1 I I -0.70710678118654746 0.70710678118654746 0.25 forward I I I I #
loop $-1 $-1 $343 $87 #
coedge $-1 $215 $215 $344 $345 reversed $136 $-1 #
face $-1 $-1 $346 $70 $-1 $347 forward single #
loop $-1 $348 $349 $138 #
cone-surface $-1 48.073363719158145 10.692255569863924 5.8834694394343394 -0.54463904215088732 0 -0.83867056331134215 0.20966764082783554 0 -0.13615976053772183 1 I I -0.70710678118654746 0.70710678118654746 0.25 forward I I I I #
loop $-1 $-1 $350 $88 #
coedge $-1 $220 $220 $351 $352 reversed $139 $-1 #
face $-1 $-1 $353 $71 $-1 $354 forward single #
loop $-1 $355 $356 $141 #
cone-surface $-1 48.073363719158145 12.515593827857039 5.8834694394343394 -0.54463904215088732 0 -0.83867056331134215 0.20966764082783554 0 -0.13615976053772183 1 I I -0.70710678118654746 0.70710678118654746 0.25 forward I I I I #
loop $-1 $-1 $357 $89 #
coedge $-1 $225 $225 $358 $359 reversed $142 $-1 #
face $-1 $360 $361 $54 $-1 $362 reversed single #
loop $-1 $-1 $363 $144 #
plane-surface $-1 0 -25.34918169176408 0 0 1 0 0 0 1 forward_v I I I I #
coedge $-1 $364 $365 $366 $367 forward $145 $-1 #
coedge $-1 $368 $147 $369 $370 forward $91 $-1 #
coedge $-1 $147 $368 $371 $372 forward $91 $-1 #
coedge $-1 $373 $374 $147 $233 reversed $375 $-1 #
edge $-1 $376 -25.34918169176408 $377 25.34918169176408 $232 $378 forward 7 unknown #
face $-1 $379 $380 $55 $-1 $381 reversed single #
loop $-1 $-1 $382 $148 #
plane-surface $-1 -51.263771477401043 0 0 1 0 0 0 0 -1 forward_v I I I I #
coedge $-1 $383 $384 $239 $385 forward $149 $-1 #
coedge $-1 $386 $151 $387 $388 reversed $94 $-1 #
coedge $-1 $151 $386 $237 $385 reversed $94 $-1 #
coedge $-1 $389 $390 $151 $241 reversed $391 $-1 #
edge $-1 $392 -8.5615667856252919 $393 8.5615667856252919 $240 $394 forward 7 unknown #
face $-1 $395 $396 $56 $-1 $397 reversed single #
loop $-1 $-1 $398 $152 #
plane-surface $-1 -130.94263827127625 -10.391025288254852 68.037795768263507 0 -1 0 0.77714596973225614 0 -0.62932038083071107 forward_v I I I I #
coedge $-1 $399 $400 $401 $402 reversed $153 $-1 #
coedge $-1 $247 $155 $403 $404 reversed $97 $-1 #
coedge $-1 $155 $246 $399 $405 reversed $97 $-1 #
coedge $-1 $401 $406 $155 $249 forward $407 $-1 #
edge $-1 $408 14.207547658237083 $409 18.294076834312413 $248 $410 forward 7 unknown #
loop $-1 $-1 $255 $156 #
plane-surface $-1 -51.263771477401036 -13.544222089225418 3.5151233903103645 -0.77714596973225614 0 0.62932038083071107 0.62932038083071107 0 0.77714596973225614 forward_v I I I I #
loop $-1 $-1 $411 $99 #
coedge $-1 $253 $253 $254 $412 reversed $157 $-1 #
coedge $-1 $254 $254 $253 $412 forward $159 $-1 #
coedge $-1 $255 $255 $160 $256 forward $250 $-1 #
edge $-1 $413 0 $413 6.2831853071796004 $255 $414 forward 7 unknown #
face $-1 $415 $416 $58 $-1 $417 forward single #
loop $-1 $-1 $418 $161 #
plane-surface $-1 -130.94263827127625 1.5223770384181252 68.037795768263507 0 -1 0 0.77714596973225614 0 -0.62932038083071107 forward_v I I I I #
coedge $-1 $419 $420 $421 $422 reversed $162 $-1 #
coedge $-1 $262 $164 $423 $424 reversed $103 $-1 #
coedge $-1 $164 $261 $419 $425 reversed $103 $-1 #
coedge $-1 $421 $426 $164 $264 forward $416 $-1 #
edge $-1 $427 14.207547658237083 $428 18.294076834312413 $263 $429 forward 7 unknown #
loop $-1 $-1 $270 $165 #
plane-surface $-1 -51.263771477401036 -1.6308197625524414 3.5151233903103645 -0.77714596973225614 0 0.62932038083071107 0.62932038083071107 0 0.77714596973225614 forward_v I I I I #
loop $-1 $-1 $430 $105 #
coedge $-1 $268 $268 $269 $431 reversed $166 $-1 #
coedge $-1 $269 $269 $268 $431 forward $168 $-1 #
coedge $-1 $270 $270 $169 $271 forward $265 $-1 #
edge $-1 $432 0 $432 6.2831853071796004 $270 $433 forward 7 unknown #
face $-1 $434 $435 $60 $-1 $436 forward single #
loop $-1 $-1 $437 $170 #
plane-surface $-1 -130.94263827127625 13.435779365091104 68.037795768263507 0 -1 0 0.77714596973225614 0 -0.62932038083071107 forward_v I I I I #
coedge $-1 $438 $439 $440 $441 reversed $171 $-1 #
coedge $-1 $277 $173 $442 $443 reversed $109 $-1 #
coedge $-1 $173 $276 $438 $444 reversed $109 $-1 #
coedge $-1 $440 $445 $173 $279 forward $435 $-1 #
edge $-1 $446 14.207547658237083 $447 18.294076834312413 $278 $448 forward 7 unknown #
loop $-1 $-1 $285 $174 #
plane-surface $-1 -51.263771477401036 10.282582564120538 3.5151233903103645 -0.77714596973225614 0 0.62932038083071107 0.62932038083071107 0 0.77714596973225614 forward_v I I I I #
loop $-1 $-1 $449 $111 #
coedge $-1 $283 $283 $284 $450 reversed $175 $-1 #
coedge $-1 $284 $284 $283 $450 forward $177 $-1 #
coedge $-1 $285 $285 $178 $286 forward $280 $-1 #
edge $-1 $451 0 $451 6.2831853071796004 $285 $452 forward 7 unknown #
face $-1 $453 $454 $62 $-1 $455 reversed single #
loop $-1 $-1 $293 $179 #
plane-surface $-1 0 0 8.5615667856252919 0 0 1 1 0 0 forward_v I I I I #
coedge $-1 $456 $457 $458 $459 reversed $180 $-1 #
coedge $-1 $292 $182 $460 $461 reversed $115 $-1 #
coedge $-1 $182 $291 $456 $462 reversed $115 $-1 #
coedge $-1 $458 $463 $182 $294 forward $288 $-1 #
edge $-1 $464 14.207547658237083 $465 18.294076834312413 $293 $466 forward 7 unknown #
loop $-1 $-1 $300 $183 #
plane-surface $-1 -51.263771477401036 22.195984890793518 3.5151233903103645 -0.77714596973225614 0 0.62932038083071107 0.62932038083071107 0 0.77714596973225614 forward_v I I I I #
loop $-1 $-1 $467 $117 #
coedge $-1 $298 $298 $299 $468 reversed $184 $-1 #
coedge $-1 $299 $299 $298 $468 forward $186 $-1 #
coedge $-1 $300 $300 $187 $301 forward $295 $-1 #
edge $-1 $469 0 $469 6.2831853071796004 $300 $470 forward 7 unknown #
face $-1 $471 $472 $64 $-1 $473 forward single #
loop $-1 $-1 $474 $188 #
plane-surface $-1 21.117442061556709 -5.0793898649510201 147.12938349534079 0 1 0 0.54463904215088732 0 0.83867056331134215 forward_v I I I I #
coedge $-1 $475 $476 $477 $478 reversed $189 $-1 #
coedge $-1 $307 $191 $479 $480 reversed $121 $-1 #
coedge $-1 $191 $306 $475 $481 reversed $121 $-1 #
coedge $-1 $477 $482 $191 $309 forward $472 $-1 #
edge $-1 $483 -40.705050446622693 $484 -35.685832535514109 $308 $485 forward 7 unknown #
loop $-1 $-1 $315 $192 #
plane-surface $-1 -34.723060727430656 -2.0404927682958203 61.14255129050909 0.54463904215088732 0 0.83867056331134215 0.83867056331134215 0 -0.54463904215088732 forward_v I I I I #
loop $-1 $-1 $486 $123 #
coedge $-1 $313 $313 $314 $487 reversed $193 $-1 #
coedge $-1 $314 $314 $313 $487 forward $195 $-1 #
coedge $-1 $315 $315 $196 $316 forward $310 $-1 #
edge $-1 $488 0 $488 6.2831853071796004 $315 $489 forward 7 unknown #
loop $-1 $-1 $322 $197 #
plane-surface $-1 -34.723060727430656 -2.0404927682958203 61.14255129050909 0.54463904215088732 0 0.83867056331134215 0.83867056331134215 0 -0.54463904215088732 forward_v I I I I #
loop $-1 $-1 $490 $126 #
coedge $-1 $320 $320 $321 $491 reversed $198 $-1 #
coedge $-1 $321 $321 $320 $491 forward $200 $-1 #
coedge $-1 $322 $322 $201 $323 forward $317 $-1 #
edge $-1 $492 0 $492 6.2831853071796004 $322 $493 forward 7 unknown #
loop $-1 $-1 $329 $202 #
plane-surface $-1 -34.723060727430656 -2.0404927682958203 61.14255129050909 0.54463904215088732 0 0.83867056331134215 0.83867056331134215 0 -0.54463904215088732 forward_v I I I I #
loop $-1 $-1 $494 $129 #
coedge $-1 $327 $327 $328 $495 reversed $203 $-1 #
coedge $-1 $328 $328 $327 $495 forward $205 $-1 #
coedge $-1 $329 $329 $206 $330 forward $324 $-1 #
edge $-1 $496 0 $496 6.2831853071796004 $329 $497 forward 7 unknown #
face $-1 $498 $499 $68 $-1 $500 reversed single #
loop $-1 $-1 $501 $207 #
plane-surface $-1 21.117442061556709 7.6533584732087245 147.12938349534079 0 1 0 0.54463904215088732 0 0.83867056331134215 forward_v I I I I #
coedge $-1 $502 $503 $504 $505 reversed $208 $-1 #
coedge $-1 $336 $210 $506 $507 reversed $133 $-1 #
coedge $-1 $210 $335 $502 $508 reversed $133 $-1 #
coedge $-1 $504 $509 $210 $338 forward $510 $-1 #
edge $-1 $511 -40.705050446622693 $512 -35.685832535514109 $337 $513 forward 7 unknown #
loop $-1 $-1 $344 $211 #
plane-surface $-1 -34.723060727430656 10.692255569863924 61.14255129050909 0.54463904215088732 0 0.83867056331134215 0.83867056331134215 0 -0.54463904215088732 forward_v I I I I #
loop $-1 $-1 $514 $135 #
coedge $-1 $342 $342 $343 $515 reversed $212 $-1 #
coedge $-1 $343 $343 $342 $515 forward $214 $-1 #
coedge $-1 $344 $344 $215 $345 forward $339 $-1 #
edge $-1 $516 0 $516 6.2831853071796004 $344 $517 forward 7 unknown #
loop $-1 $-1 $351 $216 #
plane-surface $-1 -34.723060727430656 10.692255569863924 61.14255129050909 0.54463904215088732 0 0.83867056331134215 0.83867056331134215 0 -0.54463904215088732 forward_v I I I I #
loop $-1 $-1 $518 $138 #
coedge $-1 $349 $349 $350 $519 reversed $217 $-1 #
coedge $-1 $350 $350 $349 $519 forward $219 $-1 #
coedge $-1 $351 $351 $220 $352 forward $346 $-1 #
edge $-1 $520 0 $520 6.2831853071796004 $351 $521 forward 7 unknown #
loop $-1 $-1 $358 $221 #
plane-surface $-1 -34.723060727430656 10.692255569863924 61.14255129050909 0.54463904215088732 0 0.83867056331134215 0.83867056331134215 0 -0.54463904215088732 forward_v I I I I #
loop $-1 $-1 $522 $141 #
coedge $-1 $356 $356 $357 $523 reversed $222 $-1 #
coedge $-1 $357 $357 $356 $523 forward $224 $-1 #
coedge $-1 $358 $358 $225 $359 forward $353 $-1 #
edge $-1 $524 0 $524 6.2831853071796004 $358 $525 forward 7 unknown #
face $-1 $526 $527 $54 $-1 $528 reversed single #
loop $-1 $-1 $529 $226 #
plane-surface $-1 -51.263771477401043 0 0 1 0 0 0 0 -1 forward_v I I I I #
coedge $-1 $530 $371 $531 $532 forward $227 $-1 #
coedge $-1 $533 $229 $530 $534 forward $145 $-1 #
coedge $-1 $229 $533 $535 $536 forward $145 $-1 #
coedge $-1 $374 $373 $229 $367 reversed $375 $-1 #
edge $-1 $537 -25.34918169176408 $538 25.34918169176408 $366 $539 forward 7 unknown #
coedge $-1 $231 $230 $540 $541 forward $91 $-1 #
coedge $-1 $542 $543 $230 $370 reversed $527 $-1 #
edge $-1 $377 -51.263771477401043 $544 51.263771477401043 $369 $545 forward 7 unknown #
coedge $-1 $363 $546 $231 $372 reversed $227 $-1 #
edge $-1 $547 -51.263771477401043 $376 51.263771477401043 $371 $548 forward 7 unknown #
coedge $-1 $366 $232 $546 $549 forward $375 $-1 #
coedge $-1 $232 $366 $542 $550 reversed $375 $-1 #
loop $-1 $-1 $373 $526 #
vertex $-1 $233 $551 #
vertex $-1 $233 $552 #
straight-curve $-1 51.263771477401043 0 8.5615667856252919 0 1 0 I I #
face $-1 $553 $391 $55 $-1 $554 reversed single #
loop $-1 $-1 $555 $234 #
plane-surface $-1 -49.649518852556788 -34.000944493332177 0 0 1 0 0 0 1 forward_v I I I I #
coedge $-1 $556 $557 $386 $558 forward $235 $-1 #
coedge $-1 $559 $237 $557 $560 forward $149 $-1 #
coedge $-1 $237 $559 $389 $561 forward $149 $-1 #
edge $-1 $392 48.035266227712533 $562 51.263771477401043 $237 $563 forward 7 unknown #
coedge $-1 $239 $238 $382 $558 reversed $94 $-1 #
coedge $-1 $564 $565 $238 $388 forward $566 $-1 #
edge $-1 $567 -51.263771477401043 $393 -48.035266227712533 $387 $568 forward 7 unknown #
coedge $-1 $569 $240 $384 $561 reversed $391 $-1 #
coedge $-1 $240 $569 $564 $570 reversed $391 $-1 #
loop $-1 $-1 $569 $379 #
vertex $-1 $385 $571 #
vertex $-1 $570 $572 #
straight-curve $-1 -48.035266227712533 -25.34918169176408 0 0 0 -1 I I #
face $-1 $-1 $407 $56 $-1 $573 forward single #
loop $-1 $-1 $574 $242 #
plane-surface $-1 -51.263771477401043 0 0 1 0 0 0 0 -1 forward_v I I I I #
coedge $-1 $575 $576 $577 $578 reversed $243 $-1 #
coedge $-1 $579 $245 $247 $405 forward $153 $-1 #
coedge $-1 $245 $579 $575 $580 forward $153 $-1 #
coedge $-1 $577 $248 $245 $402 forward $407 $-1 #
edge $-1 $409 -9.9253078455832746 $581 -3.6189142436421431 $401 $582 forward 7 unknown #
coedge $-1 $583 $584 $246 $404 forward $396 $-1 #
edge $-1 $585 -30.503774493821396 $408 -25.457331098506462 $403 $586 forward 7 unknown #
edge $-1 $409 -6.4935592435144933 $585 1.1374033043381581e-014 $247 $587 forward 7 unknown #
coedge $-1 $248 $577 $583 $588 forward $407 $-1 #
loop $-1 $-1 $577 $395 #
vertex $-1 $404 $589 #
vertex $-1 $249 $590 #
straight-curve $-1 -65.471319135638126 -16.697418890195983 8.5615667856252919 1 0 0 I I #
coedge $-1 $411 $411 $-1 $591 reversed $252 $-1 #
edge $-1 $592 0 $592 6.2831853071796004 $253 $593 forward 7 unknown #
vertex $-1 $256 $594 #
ellipse-curve $-1 -49.220506889363378 -13.544222089225418 6.0383450879678255 -0.77714596973225614 0 0.62932038083071107 0.9439805712460666 0 1.1657189545983841 1 I I #
face $-1 $-1 $595 $58 $-1 $596 reversed single #
loop $-1 $-1 $263 $257 #
plane-surface $-1 0 0 8.5615667856252919 0 0 1 1 0 0 forward_v I I I I #
coedge $-1 $597 $598 $599 $600 reversed $258 $-1 #
coedge $-1 $601 $260 $262 $425 forward $162 $-1 #
coedge $-1 $260 $601 $597 $602 forward $162 $-1 #
coedge $-1 $599 $263 $260 $422 forward $416 $-1 #
edge $-1 $428 -3.9686066822467874 $603 2.3377869196943459 $421 $604 forward 7 unknown #
coedge $-1 $605 $606 $261 $424 forward $595 $-1 #
edge $-1 $607 -30.503774493821396 $427 -25.457331098506462 $423 $608 forward 7 unknown #
edge $-1 $428 -6.4935592435144933 $607 1.1374033043381581e-014 $262 $609 forward 7 unknown #
coedge $-1 $263 $599 $605 $610 forward $416 $-1 #
vertex $-1 $424 $611 #
vertex $-1 $264 $612 #
straight-curve $-1 -65.471319135638126 -4.7840165635230081 8.5615667856252919 1 0 0 I I #
coedge $-1 $430 $430 $-1 $613 reversed $267 $-1 #
edge $-1 $614 0 $614 6.2831853071796004 $268 $615 forward 7 unknown #
vertex $-1 $271 $616 #
ellipse-curve $-1 -49.220506889363378 -1.6308197625524414 6.0383450879678255 -0.77714596973225614 0 0.62932038083071107 0.9439805712460666 0 1.1657189545983841 1 I I #
face $-1 $-1 $617 $60 $-1 $618 reversed single #
loop $-1 $-1 $278 $272 #
plane-surface $-1 0 0 8.5615667856252919 0 0 1 1 0 0 forward_v I I I I #
coedge $-1 $619 $620 $621 $622 reversed $273 $-1 #
coedge $-1 $623 $275 $277 $444 forward $171 $-1 #
coedge $-1 $275 $623 $619 $624 forward $171 $-1 #
coedge $-1 $621 $278 $275 $441 forward $435 $-1 #
edge $-1 $447 1.9880944810897025 $625 8.294488083030835 $440 $626 forward 7 unknown #
coedge $-1 $627 $628 $276 $443 forward $617 $-1 #
edge $-1 $629 -30.503774493821396 $446 -25.457331098506462 $442 $630 forward 7 unknown #
edge $-1 $447 -6.4935592435144933 $629 1.1374033043381581e-014 $277 $631 forward 7 unknown #
coedge $-1 $278 $621 $627 $632 forward $435 $-1 #
vertex $-1 $279 $633 #
vertex $-1 $279 $634 #
straight-curve $-1 -65.471319135638126 7.1293857631499717 8.5615667856252919 1 0 0 I I #
coedge $-1 $449 $449 $-1 $635 reversed $282 $-1 #
edge $-1 $636 0 $636 6.2831853071796004 $283 $637 forward 7 unknown #
vertex $-1 $286 $638 #
ellipse-curve $-1 -49.220506889363378 10.282582564120538 6.0383450879678255 -0.77714596973225614 0 0.62932038083071107 0.9439805712460666 0 1.1657189545983841 1 I I #
face $-1 $-1 $639 $62 $-1 $640 reversed single #
loop $-1 $-1 $641 $287 #
plane-surface $-1 0 25.34918169176408 0 0 -1 0 0 0 -1 forward_v I I I I #
coedge $-1 $642 $290 $292 $462 forward $180 $-1 #
coedge $-1 $290 $642 $641 $643 reversed $180 $-1 #
coedge $-1 $644 $293 $290 $459 forward $288 $-1 #
edge $-1 $465 7.9447956444261933 $645 14.251189246367325 $458 $646 forward 7 unknown #
coedge $-1 $647 $648 $291 $461 forward $639 $-1 #
edge $-1 $649 -30.503774493821396 $464 -25.457331098506462 $460 $650 forward 7 unknown #
edge $-1 $465 -6.4935592435144933 $649 1.1374033043381581e-014 $292 $651 forward 7 unknown #
coedge $-1 $293 $644 $647 $652 forward $288 $-1 #
vertex $-1 $461 $653 #
vertex $-1 $294 $654 #
straight-curve $-1 -65.471319135638126 19.042788089822952 8.5615667856252919 1 0 0 I I #
coedge $-1 $467 $467 $-1 $655 reversed $297 $-1 #
edge $-1 $656 0 $656 6.2831853071796004 $298 $657 forward 7 unknown #
vertex $-1 $301 $658 #
ellipse-curve $-1 -49.220506889363378 22.195984890793518 6.0383450879678255 -0.77714596973225614 0 0.62932038083071107 0.9439805712460666 0 1.1657189545983841 1 I I #
face $-1 $-1 $659 $64 $-1 $660 reversed single #
loop $-1 $-1 $308 $302 #
plane-surface $-1 0 0 8.5615667856252919 0 0 1 1 0 0 forward_v I I I I #
coedge $-1 $661 $662 $663 $664 reversed $303 $-1 #
coedge $-1 $665 $305 $307 $481 forward $189 $-1 #
coedge $-1 $305 $665 $661 $666 forward $189 $-1 #
coedge $-1 $663 $308 $305 $478 forward $472 $-1 #
edge $-1 $484 -2.0186507125072897 $667 4.0591434808031099 $477 $668 forward 7 unknown #
coedge $-1 $669 $670 $306 $480 forward $659 $-1 #
edge $-1 $671 -68.26264324614867 $483 -65.003124962045106 $479 $672 forward 7 unknown #
edge $-1 $484 96.542811725782798 $671 102.5275429548021 $307 $673 forward 7 unknown #
coedge $-1 $308 $663 $669 $674 forward $472 $-1 #
vertex $-1 $480 $675 #
vertex $-1 $309 $676 #
straight-curve $-1 10.558721030778354 0.99840432835937953 8.5615667856252884 -1 0 0 I I #
coedge $-1 $486 $486 $-1 $677 reversed $312 $-1 #
edge $-1 $678 0 $678 6.2831853071796004 $313 $679 forward 7 unknown #
vertex $-1 $316 $680 #
ellipse-curve $-1 48.754162521846752 -3.8638310262889419 6.9318076435735048 0.54463904215088732 0 0.83867056331134215 0.41933528165567108 0 -0.27231952107544366 1 I I #
coedge $-1 $490 $490 $-1 $681 reversed $319 $-1 #
edge $-1 $682 0 $682 6.2831853071796004 $320 $683 forward 7 unknown #
vertex $-1 $323 $684 #
ellipse-curve $-1 48.754162521846752 -2.0404927682958203 6.9318076435735048 0.54463904215088732 0 0.83867056331134215 0.41933528165567108 0 -0.27231952107544366 1 I I #
coedge $-1 $494 $494 $-1 $685 reversed $326 $-1 #
edge $-1 $686 0 $686 6.2831853071796004 $327 $687 forward 7 unknown #
vertex $-1 $330 $688 #
ellipse-curve $-1 48.754162521846752 -0.21715451030269861 6.9318076435735048 0.54463904215088732 0 0.83867056331134215 0.41933528165567108 0 -0.27231952107544366 1 I I #
face $-1 $-1 $510 $68 $-1 $689 forward single #
loop $-1 $-1 $690 $331 #
plane-surface $-1 51.263771477401043 0 0 -1 0 0 0 0 1 forward_v I I I I #
coedge $-1 $691 $692 $693 $694 reversed $332 $-1 #
coedge $-1 $695 $334 $336 $508 forward $208 $-1 #
coedge $-1 $334 $695 $691 $696 forward $208 $-1 #
coedge $-1 $693 $337 $334 $505 forward $510 $-1 #
edge $-1 $512 -8.385024881587162 $697 -2.3072306882767624 $504 $698 forward 7 unknown #
coedge $-1 $699 $700 $335 $507 forward $499 $-1 #
edge $-1 $701 -68.26264324614867 $511 -65.003124962045106 $506 $702 forward 7 unknown #
edge $-1 $512 96.542811725782798 $701 102.5275429548021 $336 $703 forward 7 unknown #
coedge $-1 $337 $693 $699 $704 forward $510 $-1 #
loop $-1 $-1 $693 $498 #
vertex $-1 $507 $705 #
vertex $-1 $338 $706 #
straight-curve $-1 10.558721030778354 13.731152666519124 8.5615667856252884 -1 0 0 I I #
coedge $-1 $514 $514 $-1 $707 reversed $341 $-1 #
edge $-1 $708 0 $708 6.2831853071796004 $342 $709 forward 7 unknown #
vertex $-1 $345 $710 #
ellipse-curve $-1 48.754162521846752 8.8689173118707956 6.9318076435735048 0.54463904215088732 0 0.83867056331134215 0.41933528165567108 0 -0.27231952107544366 1 I I #
coedge $-1 $518 $518 $-1 $711 reversed $348 $-1 #
edge $-1 $712 0 $712 6.2831853071796004 $349 $713 forward 7 unknown #
vertex $-1 $352 $714 #
ellipse-curve $-1 48.754162521846752 10.692255569863924 6.9318076435735048 0.54463904215088732 0 0.83867056331134215 0.41933528165567108 0 -0.27231952107544366 1 I I #
coedge $-1 $522 $522 $-1 $715 reversed $355 $-1 #
edge $-1 $716 0 $716 6.2831853071796004 $356 $717 forward 7 unknown #
vertex $-1 $359 $718 #
ellipse-curve $-1 48.754162521846752 12.515593827857039 6.9318076435735048 0.54463904215088732 0 0.83867056331134215 0.41933528165567108 0 -0.27231952107544366 1 I I #
face $-1 $-1 $375 $54 $-1 $719 reversed single #
loop $-1 $-1 $542 $360 #
plane-surface $-1 0 25.34918169176408 0 0 -1 0 0 0 -1 forward_v I I I I #
coedge $-1 $720 $540 $543 $721 forward $361 $-1 #
coedge $-1 $546 $363 $364 $534 reversed $227 $-1 #
coedge $-1 $540 $720 $363 $532 reversed $361 $-1 #
edge $-1 $547 -8.5615667856252919 $722 8.5615667856252919 $531 $723 forward 7 unknown #
coedge $-1 $365 $364 $720 $724 forward $145 $-1 #
edge $-1 $538 -51.263771477401043 $722 51.263771477401043 $530 $725 forward 7 unknown #
coedge $-1 $543 $542 $365 $536 reversed $527 $-1 #
edge $-1 $726 -51.263771477401043 $537 51.263771477401043 $535 $727 forward 7 unknown #
vertex $-1 $367 $728 #
vertex $-1 $549 $729 #
straight-curve $-1 51.263771477401043 0 -8.5615667856252919 0 -1 0 I I #
coedge $-1 $529 $531 $368 $541 reversed $361 $-1 #
edge $-1 $544 -25.34918169176408 $547 25.34918169176408 $540 $730 forward 7 unknown #
coedge $-1 $535 $369 $374 $550 forward $527 $-1 #
coedge $-1 $369 $535 $529 $721 reversed $527 $-1 #
vertex $-1 $370 $731 #
straight-curve $-1 0 25.34918169176408 8.5615667856252919 -1 0 0 I I #
coedge $-1 $371 $530 $373 $549 reversed $227 $-1 #
vertex $-1 $541 $732 #
straight-curve $-1 0 -25.34918169176408 8.5615667856252919 1 0 0 I I #
edge $-1 $376 -8.5615667856252919 $538 8.5615667856252919 $373 $733 forward 7 unknown #
edge $-1 $377 -8.5615667856252919 $537 8.5615667856252919 $374 $734 forward 7 unknown #
point $-1 51.263771477401043 -25.34918169176408 8.5615667856252919 #
point $-1 51.263771477401043 25.34918169176408 8.5615667856252919 #
face $-1 $-1 $566 $55 $-1 $735 reversed single #
plane-surface $-1 -48.035266227712533 -29.675063092548129 0 -1 0 0 0 0 1 forward_v I I I I #
coedge $-1 $736 $737 $738 $739 forward $380 $-1 #
coedge $-1 $738 $382 $565 $740 reversed $235 $-1 #
coedge $-1 $382 $738 $383 $560 reversed $235 $-1 #
edge $-1 $562 -8.5615667856252919 $567 8.5615667856252919 $382 $741 forward 7 unknown #
coedge $-1 $384 $383 $737 $742 forward $149 $-1 #
edge $-1 $562 25.34918169176408 $743 34.000944493332177 $557 $744 forward 7 unknown #
edge $-1 $745 -4.3258814007840485 $392 4.3258814007840485 $389 $746 forward 7 unknown #
vertex $-1 $560 $747 #
straight-curve $-1 0 -25.34918169176408 8.5615667856252919 -1 0 0 I I #
coedge $-1 $748 $387 $390 $570 forward $566 $-1 #
coedge $-1 $387 $748 $556 $740 forward $566 $-1 #
loop $-1 $-1 $387 $553 #
vertex $-1 $558 $749 #
straight-curve $-1 0 -25.34918169176408 -8.5615667856252919 1 0 0 I I #
coedge $-1 $390 $389 $750 $751 forward $391 $-1 #
edge $-1 $393 -4.3258814007840485 $752 4.3258814007840485 $390 $753 forward 7 unknown #
point $-1 -48.035266227712533 -25.34918169176408 8.5615667856252919 #
point $-1 -48.035266227712533 -25.34918169176408 -8.5615667856252919 #
plane-surface $-1 0 0 8.5615667856252919 0 0 1 1 0 0 forward_v I I I I #
coedge $-1 $584 $583 $576 $754 forward $396 $-1 #
coedge $-1 $576 $398 $400 $580 reversed $243 $-1 #
coedge $-1 $398 $575 $574 $754 reversed $243 $-1 #
coedge $-1 $406 $401 $398 $578 forward $407 $-1 #
edge $-1 $581 -18.294076834312413 $755 -14.207547658237083 $577 $756 forward 7 unknown #
coedge $-1 $400 $399 $584 $757 reversed $153 $-1 #
edge $-1 $758 -1.1374033043381581e-014 $581 6.4935592435144933 $575 $759 forward 7 unknown #
vertex $-1 $402 $760 #
straight-curve $-1 -47.177242301325705 -6.7721110446127089 8.5615667856252919 0 1 0 I I #
coedge $-1 $574 $403 $406 $588 reversed $396 $-1 #
coedge $-1 $403 $574 $579 $757 forward $396 $-1 #
vertex $-1 $404 $761 #
straight-curve $-1 -51.263771477401043 -16.697418890195983 34.018897884131754 0 0 1 I I #
straight-curve $-1 -51.263771477401036 -16.697418890195983 3.5151233903103645 -0.62932038083071107 0 -0.77714596973225614 I I #
edge $-1 $755 10.391025288254852 $408 16.697418890195983 $583 $762 forward 7 unknown #
point $-1 -51.263771477401043 -16.697418890195983 8.5615667856252919 #
point $-1 -47.177242301325713 -16.697418890195983 8.5615667856252919 #
edge $-1 $763 1 $763 0 $411 $-1 forward 7 unknown #
vertex $-1 $412 $764 #
ellipse-curve $-1 -45.990774854869542 -13.544222089225418 3.4229597252552559 -0.77714596973225614 0 0.62932038083071107 0.9439805712460666 0 1.1657189545983841 1 I I #
point $-1 -48.276526318117313 -13.544222089225418 7.2040640425662144 #
loop $-1 $-1 $423 $415 #
plane-surface $-1 -51.263771477401043 0 0 1 0 0 0 0 -1 forward_v I I I I #
coedge $-1 $598 $418 $420 $602 reversed $258 $-1 #
coedge $-1 $418 $597 $765 $766 reversed $258 $-1 #
coedge $-1 $426 $421 $418 $600 forward $416 $-1 #
edge $-1 $603 -18.294076834312413 $767 -14.207547658237083 $599 $768 forward 7 unknown #
coedge $-1 $420 $419 $606 $769 reversed $162 $-1 #
edge $-1 $770 -1.1374033043381581e-014 $603 6.4935592435144933 $597 $771 forward 7 unknown #
vertex $-1 $422 $772 #
straight-curve $-1 -47.177242301325705 -0.81540988127622072 8.5615667856252919 0 1 0 I I #
coedge $-1 $765 $423 $426 $610 reversed $595 $-1 #
coedge $-1 $423 $765 $601 $769 forward $595 $-1 #
vertex $-1 $424 $773 #
straight-curve $-1 -51.263771477401043 -4.7840165635230081 34.018897884131754 0 0 1 I I #
straight-curve $-1 -51.263771477401036 -4.7840165635230081 3.5151233903103645 -0.62932038083071107 0 -0.77714596973225614 I I #
edge $-1 $767 -1.5223770384181252 $427 4.7840165635230081 $605 $774 forward 7 unknown #
point $-1 -51.263771477401043 -4.7840165635230081 8.5615667856252919 #
point $-1 -47.177242301325713 -4.7840165635230081 8.5615667856252919 #
edge $-1 $775 1 $775 0 $430 $-1 forward 7 unknown #
vertex $-1 $431 $776 #
ellipse-curve $-1 -45.990774854869542 -1.6308197625524414 3.4229597252552559 -0.77714596973225614 0 0.62932038083071107 0.9439805712460666 0 1.1657189545983841 1 I I #
point $-1 -48.276526318117313 -1.6308197625524414 7.2040640425662144 #
loop $-1 $-1 $442 $434 #
plane-surface $-1 -51.263771477401043 0 0 1 0 0 0 0 -1 forward_v I I I I #
coedge $-1 $620 $437 $439 $624 reversed $273 $-1 #
coedge $-1 $437 $619 $777 $778 reversed $273 $-1 #
coedge $-1 $445 $440 $437 $622 forward $435 $-1 #
edge $-1 $625 -18.294076834312413 $779 -14.207547658237083 $621 $780 forward 7 unknown #
coedge $-1 $439 $438 $628 $781 reversed $171 $-1 #
edge $-1 $782 -1.1374033043381581e-014 $625 6.4935592435144933 $619 $783 forward 7 unknown #
vertex $-1 $441 $784 #
straight-curve $-1 -47.177242301325705 5.1412912820602692 8.5615667856252919 0 1 0 I I #
coedge $-1 $777 $442 $445 $632 reversed $617 $-1 #
coedge $-1 $442 $777 $623 $781 forward $617 $-1 #
vertex $-1 $443 $785 #
straight-curve $-1 -51.263771477401043 7.1293857631499717 34.018897884131754 0 0 1 I I #
straight-curve $-1 -51.263771477401036 7.1293857631499717 3.5151233903103645 -0.62932038083071107 0 -0.77714596973225614 I I #
edge $-1 $779 -13.435779365091104 $446 -7.1293857631499717 $627 $786 forward 7 unknown #
point $-1 -51.263771477401043 7.1293857631499717 8.5615667856252919 #
point $-1 -47.177242301325713 7.1293857631499717 8.5615667856252919 #
edge $-1 $787 1 $787 0 $449 $-1 forward 7 unknown #
vertex $-1 $450 $788 #
ellipse-curve $-1 -45.990774854869542 10.282582564120538 3.4229597252552559 -0.77714596973225614 0 0.62932038083071107 0.9439805712460666 0 1.1657189545983841 1 I I #
point $-1 -48.276526318117313 10.282582564120538 7.2040640425662144 #
loop $-1 $-1 $460 $453 #
plane-surface $-1 -51.263771477401043 0 0 1 0 0 0 0 -1 forward_v I I I I #
coedge $-1 $789 $790 $457 $643 forward $454 $-1 #
coedge $-1 $457 $456 $648 $791 reversed $180 $-1 #
edge $-1 $645 8.2712268630281471 $792 14.764786106542651 $641 $793 forward 7 unknown #
coedge $-1 $463 $458 $790 $794 forward $288 $-1 #
vertex $-1 $794 $795 #
straight-curve $-1 -47.177242301325705 11.097992445396759 8.5615667856252919 0 1 0 I I #
coedge $-1 $796 $460 $463 $652 reversed $639 $-1 #
coedge $-1 $460 $796 $642 $791 forward $639 $-1 #
vertex $-1 $461 $797 #
straight-curve $-1 -51.263771477401043 19.042788089822952 34.018897884131754 0 0 1 I I #
straight-curve $-1 -51.263771477401036 19.042788089822952 3.5151233903103645 -0.62932038083071107 0 -0.77714596973225614 I I #
edge $-1 $798 -25.34918169176408 $464 -19.042788089822952 $647 $799 forward 7 unknown #
point $-1 -51.263771477401043 19.042788089822952 8.5615667856252919 #
point $-1 -47.177242301325713 19.042788089822952 8.5615667856252919 #
edge $-1 $800 1 $800 0 $467 $-1 forward 7 unknown #
vertex $-1 $468 $801 #
ellipse-curve $-1 -45.990774854869542 22.195984890793518 3.4229597252552559 -0.77714596973225614 0 0.62932038083071107 0.9439805712460666 0 1.1657189545983841 1 I I #
point $-1 -48.276526318117313 22.195984890793518 7.2040640425662144 #
loop $-1 $-1 $479 $471 #
plane-surface $-1 51.263771477401043 0 0 -1 0 0 0 0 1 forward_v I I I I #
coedge $-1 $662 $474 $476 $666 reversed $303 $-1 #
coedge $-1 $474 $661 $802 $803 reversed $303 $-1 #
coedge $-1 $482 $477 $474 $664 forward $472 $-1 #
edge $-1 $667 35.685832535514109 $804 40.705050446622693 $663 $805 forward 7 unknown #
coedge $-1 $476 $475 $670 $806 reversed $189 $-1 #
edge $-1 $807 -102.5275429548021 $667 -96.542811725782798 $661 $808 forward 7 unknown #
vertex $-1 $478 $809 #
straight-curve $-1 46.244553566292453 -1.0202463841479101 8.5615667856252884 0 -1 0 I I #
coedge $-1 $802 $479 $482 $674 reversed $659 $-1 #
coedge $-1 $479 $802 $665 $806 forward $659 $-1 #
vertex $-1 $480 $810 #
straight-curve $-1 51.263771477401043 0.99840432835937953 73.564691747670395 0 0 1 I I #
straight-curve $-1 -34.723060727430656 0.99840432835937953 61.14255129050909 0.83867056331134215 0 -0.54463904215088732 I I #
edge $-1 $804 -5.0793898649510201 $483 0.99840432835937953 $669 $811 forward 7 unknown #
point $-1 51.263771477401043 0.99840432835937953 8.5615667856252919 #
point $-1 46.24455356629246 0.99840432835937953 8.5615667856252884 #
edge $-1 $812 1 $812 0 $486 $-1 forward 7 unknown #
vertex $-1 $487 $813 #
ellipse-curve $-1 48.209523479695868 -3.8638310262889419 6.0931370802621752 0.54463904215088732 0 0.83867056331134215 0.41933528165567108 0 -0.27231952107544366 1 I I #
point $-1 49.173497803502428 -3.8638310262889419 6.6594881224980735 #
edge $-1 $814 1 $814 0 $490 $-1 forward 7 unknown #
vertex $-1 $491 $815 #
ellipse-curve $-1 48.209523479695868 -2.0404927682958203 6.0931370802621752 0.54463904215088732 0 0.83867056331134215 0.41933528165567108 0 -0.27231952107544366 1 I I #
point $-1 49.173497803502428 -2.0404927682958203 6.6594881224980735 #
edge $-1 $816 1 $816 0 $494 $-1 forward 7 unknown #
vertex $-1 $495 $817 #
ellipse-curve $-1 48.209523479695868 -0.21715451030269861 6.0931370802621752 0.54463904215088732 0 0.83867056331134215 0.41933528165567108 0 -0.27231952107544366 1 I I #
point $-1 49.173497803502428 -0.21715451030269861 6.6594881224980735 #
plane-surface $-1 0 0 8.5615667856252919 0 0 1 1 0 0 forward_v I I I I #
coedge $-1 $700 $699 $692 $818 forward $499 $-1 #
coedge $-1 $692 $501 $503 $696 reversed $332 $-1 #
coedge $-1 $501 $691 $690 $818 reversed $332 $-1 #
coedge $-1 $509 $504 $501 $694 forward $510 $-1 #
edge $-1 $697 35.685832535514109 $819 40.705050446622693 $693 $820 forward 7 unknown #
coedge $-1 $503 $502 $700 $821 reversed $208 $-1 #
edge $-1 $822 -102.5275429548021 $697 -96.542811725782798 $691 $823 forward 7 unknown #
vertex $-1 $505 $824 #
straight-curve $-1 46.244553566292453 5.3461277849319622 8.5615667856252884 0 -1 0 I I #
coedge $-1 $690 $506 $509 $704 reversed $499 $-1 #
coedge $-1 $506 $690 $695 $821 forward $499 $-1 #
vertex $-1 $507 $825 #
straight-curve $-1 51.263771477401043 13.731152666519124 73.564691747670395 0 0 1 I I #
straight-curve $-1 -34.723060727430656 13.731152666519124 61.14255129050909 0.83867056331134215 0 -0.54463904215088732 I I #
edge $-1 $819 7.6533584732087245 $511 13.731152666519124 $699 $826 forward 7 unknown #
point $-1 51.263771477401043 13.731152666519124 8.5615667856252919 #
point $-1 46.24455356629246 13.731152666519124 8.5615667856252884 #
edge $-1 $827 1 $827 0 $514 $-1 forward 7 unknown #
vertex $-1 $515 $828 #
ellipse-curve $-1 48.209523479695868 8.8689173118707956 6.0931370802621752 0.54463904215088732 0 0.83867056331134215 0.41933528165567108 0 -0.27231952107544366 1 I I #
point $-1 49.173497803502428 8.8689173118707956 6.6594881224980735 #
edge $-1 $829 1 $829 0 $518 $-1 forward 7 unknown #
vertex $-1 $519 $830 #
ellipse-curve $-1 48.209523479695868 10.692255569863924 6.0931370802621752 0.54463904215088732 0 0.83867056331134215 0.41933528165567108 0 -0.27231952107544366 1 I I #
point $-1 49.173497803502428 10.692255569863924 6.6594881224980735 #
edge $-1 $831 1 $831 0 $522 $-1 forward 7 unknown #
vertex $-1 $523 $832 #
ellipse-curve $-1 48.209523479695868 12.515593827857039 6.0931370802621752 0.54463904215088732 0 0.83867056331134215 0.41933528165567108 0 -0.27231952107544366 1 I I #
point $-1 49.173497803502428 12.515593827857039 6.6594881224980735 #
plane-surface $-1 51.263771477401043 0 0 -1 0 0 0 0 1 forward_v I I I I #
coedge $-1 $531 $529 $533 $724 reversed $361 $-1 #
edge $-1 $544 -8.5615667856252919 $726 8.5615667856252919 $543 $833 forward 7 unknown #
vertex $-1 $724 $834 #
straight-curve $-1 -51.263771477401043 -25.34918169176408 0 0 0 -1 I I #
edge $-1 $722 -25.34918169176408 $726 25.34918169176408 $720 $835 forward 7 unknown #
straight-curve $-1 0 -25.34918169176408 -8.5615667856252919 -1 0 0 I I #
vertex $-1 $536 $836 #
straight-curve $-1 0 25.34918169176408 -8.5615667856252919 1 0 0 I I #
point $-1 51.263771477401043 25.34918169176408 -8.5615667856252919 #
point $-1 51.263771477401043 -25.34918169176408 -8.5615667856252919 #
straight-curve $-1 -51.263771477401043 0 8.5615667856252919 0 -1 0 I I #
point $-1 -51.263771477401043 25.34918169176408 8.5615667856252919 #
point $-1 -51.263771477401043 -25.34918169176408 8.5615667856252919 #
straight-curve $-1 51.263771477401043 -25.34918169176408 0 0 0 -1 I I #
straight-curve $-1 51.263771477401043 25.34918169176408 0 0 0 -1 I I #
plane-surface $-1 0 0 -8.5615667856252919 0 0 1 1 0 0 forward_v I I I I #
coedge $-1 $750 $555 $748 $837 reversed $380 $-1 #
coedge $-1 $555 $750 $559 $742 reversed $380 $-1 #
coedge $-1 $557 $556 $555 $739 reversed $235 $-1 #
edge $-1 $743 -8.5615667856252919 $838 8.5615667856252919 $738 $839 forward 7 unknown #
edge $-1 $838 -34.000944493332177 $567 -25.34918169176408 $556 $840 forward 7 unknown #
straight-curve $-1 -51.263771477401043 -25.34918169176408 0 0 0 -1 I I #
edge $-1 $743 -1.614252624844255 $745 1.614252624844255 $737 $841 forward 7 unknown #
vertex $-1 $560 $842 #
straight-curve $-1 -51.263771477401043 0 8.5615667856252919 0 -1 0 I I #
vertex $-1 $561 $843 #
straight-curve $-1 -48.035266227712533 -29.675063092548129 8.5615667856252919 0 1 0 I I #
point $-1 -51.263771477401043 -25.34918169176408 8.5615667856252919 #
coedge $-1 $565 $564 $736 $837 forward $566 $-1 #
point $-1 -51.263771477401043 -25.34918169176408 -8.5615667856252919 #
coedge $-1 $737 $736 $569 $751 reversed $380 $-1 #
edge $-1 $745 -8.5615667856252919 $752 8.5615667856252919 $569 $844 forward 7 unknown #
vertex $-1 $751 $845 #
straight-curve $-1 -48.035266227712533 -29.675063092548129 -8.5615667856252919 0 -1 0 I I #
edge $-1 $755 25.457331098506462 $758 30.503774493821396 $574 $846 forward 7 unknown #
vertex $-1 $588 $847 #
straight-curve $-1 -65.471319135638126 -10.391025288254852 8.5615667856252919 -1 0 0 I I #
edge $-1 $758 3.6189142436421431 $585 9.9253078455832746 $584 $848 forward 7 unknown #
vertex $-1 $757 $849 #
straight-curve $-1 -51.263771477401036 -10.391025288254852 3.5151233903103645 0.62932038083071107 0 0.77714596973225614 I I #
point $-1 -47.177242301325713 -10.391025288254852 8.5615667856252919 #
point $-1 -51.263771477401043 -16.697418890195983 3.5151233903103556 #
straight-curve $-1 -51.263771477401043 0 8.5615667856252919 0 -1 0 I I #
vertex $-1 $591 $850 #
point $-1 -45.04679428362347 -13.544222089225418 4.5886786798536399 #
coedge $-1 $606 $605 $598 $766 forward $595 $-1 #
edge $-1 $767 25.457331098506462 $770 30.503774493821396 $765 $851 forward 7 unknown #
vertex $-1 $610 $852 #
straight-curve $-1 -65.471319135638126 1.5223770384181252 8.5615667856252919 -1 0 0 I I #
edge $-1 $770 -2.3377869196943459 $607 3.9686066822467874 $606 $853 forward 7 unknown #
vertex $-1 $769 $854 #
straight-curve $-1 -51.263771477401036 1.5223770384181252 3.5151233903103645 0.62932038083071107 0 0.77714596973225614 I I #
point $-1 -47.177242301325713 1.5223770384181252 8.5615667856252919 #
point $-1 -51.263771477401043 -4.7840165635230081 3.5151233903103556 #
straight-curve $-1 -51.263771477401043 0 8.5615667856252919 0 -1 0 I I #
vertex $-1 $613 $855 #
point $-1 -45.04679428362347 -1.6308197625524414 4.5886786798536399 #
coedge $-1 $628 $627 $620 $778 forward $617 $-1 #
edge $-1 $779 25.457331098506462 $782 30.503774493821396 $777 $856 forward 7 unknown #
vertex $-1 $632 $857 #
straight-curve $-1 -65.471319135638126 13.435779365091104 8.5615667856252919 -1 0 0 I I #
edge $-1 $782 -8.294488083030835 $629 -1.9880944810897025 $628 $858 forward 7 unknown #
vertex $-1 $781 $859 #
straight-curve $-1 -51.263771477401036 13.435779365091104 3.5151233903103645 0.62932038083071107 0 0.77714596973225614 I I #
point $-1 -47.177242301325713 13.435779365091104 8.5615667856252919 #
point $-1 -51.263771477401043 7.1293857631499717 3.5151233903103556 #
straight-curve $-1 -51.263771477401043 0 8.5615667856252919 0 -1 0 I I #
vertex $-1 $635 $860 #
point $-1 -45.04679428362347 10.282582564120538 4.5886786798536399 #
coedge $-1 $790 $641 $796 $861 reversed $454 $-1 #
coedge $-1 $641 $789 $644 $794 reversed $454 $-1 #
edge $-1 $792 -14.251189246367325 $649 -7.9447956444261933 $648 $862 forward 7 unknown #
vertex $-1 $643 $863 #
straight-curve $-1 -41.971990661947629 25.34918169176408 14.989517406968787 -0.62932038083071107 0 -0.77714596973225614 I I #
edge $-1 $645 47.177242301325713 $798 51.263771477401043 $790 $864 forward 7 unknown #
point $-1 -47.177242301325713 25.349181691764084 8.5615667856252919 #
coedge $-1 $648 $647 $789 $861 forward $639 $-1 #
point $-1 -51.263771477401043 19.042788089822952 3.5151233903103556 #
vertex $-1 $794 $865 #
straight-curve $-1 -51.263771477401043 0 8.5615667856252919 0 -1 0 I I #
vertex $-1 $655 $866 #
point $-1 -45.04679428362347 22.195984890793518 4.5886786798536399 #
coedge $-1 $670 $669 $662 $803 forward $659 $-1 #
edge $-1 $804 65.003124962045106 $807 68.26264324614867 $802 $867 forward 7 unknown #
vertex $-1 $674 $868 #
straight-curve $-1 10.558721030778354 -5.0793898649510201 8.5615667856252884 1 0 0 I I #
edge $-1 $807 -4.0591434808031099 $671 2.0186507125072897 $670 $869 forward 7 unknown #
vertex $-1 $806 $870 #
straight-curve $-1 -34.723060727430656 -5.0793898649510201 61.14255129050909 -0.83867056331134215 0 0.54463904215088732 I I #
point $-1 46.24455356629246 -5.0793898649510201 8.5615667856252884 #
point $-1 51.263771477401043 0.99840432835937953 5.3020485015217247 #
straight-curve $-1 51.263771477401043 0 8.5615667856252919 0 1 0 I I #
vertex $-1 $677 $871 #
point $-1 48.628858761351538 -3.8638310262889419 5.8208175591867315 #
vertex $-1 $681 $872 #
point $-1 48.628858761351538 -2.0404927682958203 5.8208175591867315 #
vertex $-1 $685 $873 #
point $-1 48.628858761351538 -0.21715451030269861 5.8208175591867315 #
edge $-1 $819 65.003124962045106 $822 68.26264324614867 $690 $874 forward 7 unknown #
vertex $-1 $704 $875 #
straight-curve $-1 10.558721030778354 7.6533584732087245 8.5615667856252884 1 0 0 I I #
edge $-1 $822 2.3072306882767624 $701 8.385024881587162 $700 $876 forward 7 unknown #
vertex $-1 $821 $877 #
straight-curve $-1 -34.723060727430656 7.6533584732087245 61.14255129050909 -0.83867056331134215 0 0.54463904215088732 I I #
point $-1 46.24455356629246 7.6533584732087245 8.5615667856252884 #
point $-1 51.263771477401043 13.731152666519124 5.3020485015217247 #
straight-curve $-1 51.263771477401043 0 8.5615667856252919 0 1 0 I I #
vertex $-1 $707 $878 #
point $-1 48.628858761351538 8.8689173118707956 5.8208175591867315 #
vertex $-1 $711 $879 #
point $-1 48.628858761351538 10.692255569863924 5.8208175591867315 #
vertex $-1 $715 $880 #
point $-1 48.628858761351538 12.515593827857039 5.8208175591867315 #
straight-curve $-1 -51.263771477401043 25.34918169176408 0 0 0 -1 I I #
point $-1 -51.263771477401043 -25.34918169176408 -8.5615667856252919 #
straight-curve $-1 -51.263771477401043 0 -8.5615667856252919 0 1 0 I I #
point $-1 -51.263771477401043 25.34918169176408 -8.5615667856252919 #
edge $-1 $752 -1.614252624844255 $838 1.614252624844255 $736 $881 forward 7 unknown #
vertex $-1 $740 $882 #
straight-curve $-1 -51.263771477401043 -34.000944493332177 0 0 0 -1 I I #
straight-curve $-1 -51.263771477401043 0 -8.5615667856252919 0 1 0 I I #
straight-curve $-1 -49.649518852556788 -34.000944493332177 8.5615667856252919 1 0 0 I I #
point $-1 -51.263771477401043 -34.000944493332177 8.5615667856252919 #
point $-1 -48.035266227712533 -34.000944493332177 8.5615667856252919 #
straight-curve $-1 -48.035266227712533 -34.000944493332177 0 0 0 -1 I I #
point $-1 -48.035266227712533 -34.000944493332177 -8.5615667856252919 #
straight-curve $-1 -51.263771477401043 -10.391025288254852 34.018897884131754 0 0 -1 I I #
point $-1 -51.263771477401043 -10.391025288254852 8.5615667856252919 #
straight-curve $-1 -51.263771477401043 -6.7721110446127089 3.5151233903103507 0 -1 0 I I #
point $-1 -51.263771477401043 -10.391025288254852 3.5151233903103556 #
point $-1 -44.825055900271153 -13.544222089225418 2.4789791540091897 #
straight-curve $-1 -51.263771477401043 1.5223770384181252 34.018897884131754 0 0 -1 I I #
point $-1 -51.263771477401043 1.5223770384181252 8.5615667856252919 #
straight-curve $-1 -51.263771477401043 -0.81540988127622072 3.5151233903103507 0 -1 0 I I #
point $-1 -51.263771477401043 1.5223770384181252 3.5151233903103556 #
point $-1 -44.825055900271153 -1.6308197625524414 2.4789791540091897 #
straight-curve $-1 -51.263771477401043 13.435779365091104 34.018897884131754 0 0 -1 I I #
point $-1 -51.263771477401043 13.435779365091104 8.5615667856252919 #
straight-curve $-1 -51.263771477401043 5.1412912820602692 3.5151233903103507 0 -1 0 I I #
point $-1 -51.263771477401043 13.435779365091104 3.5151233903103556 #
point $-1 -44.825055900271153 10.282582564120538 2.4789791540091897 #
edge $-1 $798 -8.5615667856252919 $792 -3.5151233903103556 $789 $883 forward 7 unknown #
straight-curve $-1 -51.263771477401043 11.097992445396759 3.5151233903103507 0 -1 0 I I #
point $-1 -51.263771477401043 25.349181691764084 3.5151233903103556 #
straight-curve $-1 0 25.34918169176408 8.5615667856252919 -1 0 0 I I #
point $-1 -51.263771477401043 25.34918169176408 8.5615667856252919 #
point $-1 -44.825055900271153 22.195984890793518 2.4789791540091897 #
straight-curve $-1 51.263771477401043 -5.0793898649510201 73.564691747670395 0 0 -1 I I #
point $-1 51.263771477401043 -5.0793898649510201 8.5615667856252919 #
straight-curve $-1 51.263771477401043 -1.0202463841479101 5.3020485015217211 0 1 0 I I #
point $-1 51.263771477401043 -5.0793898649510201 5.3020485015217247 #
point $-1 47.937203958620422 -3.8638310262889419 5.6738017986065037 #
point $-1 47.937203958620422 -2.0404927682958203 5.6738017986065037 #
point $-1 47.937203958620422 -0.21715451030269861 5.6738017986065037 #
straight-curve $-1 51.263771477401043 7.6533584732087245 73.564691747670395 0 0 -1 I I #
point $-1 51.263771477401043 7.6533584732087245 8.5615667856252919 #
straight-curve $-1 51.263771477401043 5.3461277849319622 5.3020485015217211 0 1 0 I I #
point $-1 51.263771477401043 7.6533584732087245 5.3020485015217247 #
point $-1 47.937203958620422 8.8689173118707956 5.6738017986065037 #
point $-1 47.937203958620422 10.692255569863924 5.6738017986065037 #
point $-1 47.937203958620422 12.515593827857039 5.6738017986065037 #
straight-curve $-1 -49.649518852556788 -34.000944493332177 -8.5615667856252919 -1 0 0 I I #
point $-1 -51.263771477401043 -34.000944493332177 -8.5615667856252919 #
straight-curve $-1 -51.263771477401043 25.34918169176408 0 0 0 -1 I I #
End-of-ACIS-data 