500 0 5 0           
7 Unknown 11 ACIS 5.0 NT 24 Fri Mar 26 17:18:06 1999 
-1 9.9999999999999995e-007 1e-010 
body $-1 $5 $-1 $6 #
body $-1 $7 $-1 $8 #
body $-1 $9 $-1 $10 #
body $-1 $11 $-1 $12 #
body $-1 $13 $-1 $14 #
lump $-1 $-1 $15 $0 #
transform $-1 1 0 0 0 1 0 0 0 1 60.964995269631032 33.192776531549164 15.211827977578489 1 rotate no_reflect no_shear #
lump $-1 $-1 $16 $1 #
transform $-1 1 0 0 0 1 0 0 0 1 60.964995269631032 33.192776531549164 15.211827977578489 1 rotate no_reflect no_shear #
lump $-1 $-1 $17 $2 #
transform $-1 1 0 0 0 1 0 0 0 1 60.964995269631032 33.192776531549164 15.211827977578489 1 rotate no_reflect no_shear #
lump $-1 $-1 $18 $3 #
transform $-1 1 0 0 0 1 0 0 0 1 60.964995269631032 33.192776531549164 15.211827977578489 1 rotate no_reflect no_shear #
lump $-1 $-1 $19 $4 #
transform $-1 1 0 0 0 1 0 0 0 1 60.964995269631032 33.192776531549164 15.211827977578489 1 rotate no_reflect no_shear #
shell $-1 $-1 $-1 $20 $-1 $5 #
shell $-1 $-1 $-1 $21 $-1 $7 #
shell $-1 $-1 $-1 $22 $-1 $9 #
shell $-1 $-1 $-1 $23 $-1 $11 #
shell $-1 $-1 $-1 $24 $-1 $13 #
face $-1 $25 $26 $15 $-1 $27 forward single #
face $-1 $28 $29 $16 $-1 $30 reversed single #
face $-1 $31 $32 $17 $-1 $33 forward single #
face $-1 $34 $35 $18 $-1 $36 reversed single #
face $-1 $37 $38 $19 $-1 $39 reversed single #
face $-1 $40 $41 $15 $-1 $42 reversed single #
loop $-1 $-1 $43 $20 #
plane-surface $-1 0 0 15.211827977578489 0 0 1 1 0 0 forward_v I I I I #
face $-1 $44 $45 $16 $-1 $46 forward single #
loop $-1 $-1 $47 $21 #
plane-surface $-1 -51.29960951735616 0 -7.2165539581243978 0 0 1 1 0 0 forward_v I I I I #
face $-1 $48 $49 $17 $-1 $50 forward single #
loop $-1 $-1 $51 $22 #
plane-surface $-1 43.117609528612441 -114.77986601565325 99.728677547497085 1 0 0 0 0.66913061440640931 -0.74314481823134659 forward_v I I I I #
face $-1 $52 $53 $18 $-1 $54 reversed single #
loop $-1 $55 $56 $23 #
cone-surface $-1 48.216862597474886 -28.018922331566635 10.177126159883013 0 0.66913061440640931 -0.74314481823134659 2 0 0 1 I I 0 1 2 forward I I I I #
face $-1 $57 $58 $19 $-1 $59 reversed single #
loop $-1 $60 $61 $24 #
cone-surface $-1 55.86574220076858 -28.018922331566635 10.177126159883013 0 0.66913061440640931 -0.74314481823134659 2 0 0 1 I I 0 1 2 forward I I I I #
face $-1 $62 $63 $15 $-1 $64 reversed single #
loop $-1 $-1 $65 $25 #
plane-surface $-1 0 0 -15.211827977578489 0 0 1 1 0 0 forward_v I I I I #
coedge $-1 $66 $67 $68 $69 forward $26 $-1 #
face $-1 $70 $71 $16 $-1 $72 reversed single #
loop $-1 $-1 $73 $28 #
plane-surface $-1 -41.634223765081288 0 -11.214190967851444 -1 0 0 0 0 1 forward_v I I I I #
coedge $-1 $74 $75 $76 $77 reversed $29 $-1 #
face $-1 $78 $79 $17 $-1 $80 reversed single #
loop $-1 $-1 $81 $31 #
plane-surface $-1 52.041302399121747 -33.192776531549157 9.1170368912473663 0 -0.66913061440640931 0.74314481823134659 1 0 0 forward_v I I I I #
coedge $-1 $82 $83 $84 $85 reversed $32 $-1 #
face $-1 $86 $87 $18 $-1 $88 forward single #
loop $-1 $89 $90 $34 #
cone-surface $-1 48.216862597474886 -25.560413071347011 7.4466750671217508 0 0.66913061440640931 -0.74314481823134659 1 0 0 1 I I -0.70710678118654746 0.70710678118654746 1 forward I I I I #
loop $-1 $-1 $91 $23 #
coedge $-1 $56 $56 $92 $93 reversed $35 $-1 #
face $-1 $94 $95 $19 $-1 $96 reversed single #
loop $-1 $97 $98 $37 #
cone-surface $-1 55.86574220076858 -25.560413071347011 7.4466750671217508 0 0.66913061440640931 -0.74314481823134659 1 0 0 1 I I -0.70710678118654746 0.70710678118654746 1 forward I I I I #
loop $-1 $-1 $99 $24 #
coedge $-1 $61 $61 $100 $101 reversed $38 $-1 #
face $-1 $102 $103 $15 $-1 $104 reversed single #
loop $-1 $-1 $105 $40 #
plane-surface $-1 0 -33.192776531549164 0 0 1 0 0 0 1 forward_v I I I I #
coedge $-1 $106 $107 $108 $109 forward $41 $-1 #
coedge $-1 $110 $43 $111 $112 forward $26 $-1 #
coedge $-1 $43 $110 $113 $114 forward $26 $-1 #
coedge $-1 $115 $116 $43 $69 reversed $117 $-1 #
edge $-1 $118 -33.192776531549164 $119 33.192776531549164 $68 $120 forward 7 unknown #
face $-1 $121 $122 $16 $-1 $123 reversed single #
loop $-1 $-1 $124 $44 #
plane-surface $-1 -60.964995269631032 0 0 1 0 0 0 0 -1 forward_v I I I I #
coedge $-1 $76 $125 $126 $127 reversed $45 $-1 #
coedge $-1 $128 $47 $129 $130 reversed $29 $-1 #
coedge $-1 $47 $128 $131 $132 reversed $29 $-1 #
coedge $-1 $133 $73 $47 $77 forward $45 $-1 #
edge $-1 $134 -33.192776531549164 $135 33.192776531549164 $76 $136 forward 7 unknown #
face $-1 $137 $138 $17 $-1 $139 forward single #
loop $-1 $-1 $140 $48 #
plane-surface $-1 0 -33.192776531549164 0 0 1 0 0 0 1 forward_v I I I I #
coedge $-1 $141 $142 $140 $143 reversed $49 $-1 #
coedge $-1 $83 $51 $142 $144 forward $32 $-1 #
coedge $-1 $51 $82 $145 $146 reversed $32 $-1 #
coedge $-1 $147 $140 $51 $85 forward $79 $-1 #
edge $-1 $148 -40.747301882501183 $149 -34.652510796170056 $84 $150 forward 7 unknown #
face $-1 $151 $152 $18 $-1 $153 forward single #
loop $-1 $-1 $154 $52 #
plane-surface $-1 43.117609528612441 -114.77986601565325 99.728677547497085 1 0 0 0 0.66913061440640931 -0.74314481823134659 forward_v I I I I #
loop $-1 $-1 $155 $34 #
coedge $-1 $90 $90 $91 $156 forward $53 $-1 #
coedge $-1 $91 $91 $90 $156 reversed $55 $-1 #
coedge $-1 $92 $92 $56 $93 forward $152 $-1 #
edge $-1 $157 1.3147563717719145e-016 $157 6.2831853071796004 $92 $158 forward 7 unknown #
face $-1 $159 $160 $19 $-1 $161 reversed single #
loop $-1 $162 $163 $57 #
cone-surface $-1 48.216862597474886 -28.018922331566635 10.177126159883013 0 0.66913061440640931 -0.74314481823134659 2 0 0 1 I I 0 1 2 forward I I I I #
loop $-1 $-1 $164 $37 #
coedge $-1 $98 $98 $99 $165 forward $58 $-1 #
coedge $-1 $99 $99 $98 $165 reversed $60 $-1 #
coedge $-1 $100 $100 $61 $101 forward $166 $-1 #
edge $-1 $167 1.3147563717719145e-016 $167 6.2831853071796004 $100 $168 forward 7 unknown #
face $-1 $169 $170 $15 $-1 $171 reversed single #
loop $-1 $-1 $172 $62 #
plane-surface $-1 -60.964995269631032 0 0 1 0 0 0 0 -1 forward_v I I I I #
coedge $-1 $173 $113 $174 $175 forward $63 $-1 #
coedge $-1 $176 $65 $173 $177 forward $41 $-1 #
coedge $-1 $65 $176 $178 $179 forward $41 $-1 #
coedge $-1 $116 $115 $65 $109 reversed $117 $-1 #
edge $-1 $180 -33.192776531549164 $181 33.192776531549164 $108 $182 forward 7 unknown #
coedge $-1 $67 $66 $183 $184 forward $26 $-1 #
coedge $-1 $185 $186 $66 $112 reversed $170 $-1 #
edge $-1 $119 -60.964995269631032 $187 60.964995269631032 $111 $188 forward 7 unknown #
coedge $-1 $105 $189 $67 $114 reversed $63 $-1 #
edge $-1 $190 -60.964995269631032 $118 60.964995269631032 $113 $191 forward 7 unknown #
coedge $-1 $108 $68 $189 $192 forward $117 $-1 #
coedge $-1 $68 $108 $185 $193 reversed $117 $-1 #
loop $-1 $-1 $115 $169 #
vertex $-1 $69 $194 #
vertex $-1 $69 $195 #
straight-curve $-1 60.964995269631032 0 15.211827977578489 0 1 0 I I #
face $-1 $196 $197 $16 $-1 $198 forward single #
loop $-1 $-1 $129 $70 #
plane-surface $-1 0 -33.192776531549164 0 0 1 0 0 0 1 forward_v I I I I #
coedge $-1 $199 $200 $128 $201 forward $71 $-1 #
coedge $-1 $73 $133 $202 $203 reversed $45 $-1 #
coedge $-1 $204 $129 $73 $127 forward $122 $-1 #
edge $-1 $134 1.6094584741986759 $205 9.6047324936527687 $126 $206 forward 7 unknown #
coedge $-1 $75 $74 $124 $201 reversed $29 $-1 #
coedge $-1 $126 $207 $74 $130 forward $122 $-1 #
edge $-1 $208 -35.315190510952952 $134 -15.984419006403208 $129 $209 forward 7 unknown #
coedge $-1 $210 $211 $75 $132 forward $212 $-1 #
edge $-1 $135 15.984419006403208 $213 35.315190510952952 $131 $214 forward 7 unknown #
coedge $-1 $125 $76 $211 $215 reversed $45 $-1 #
vertex $-1 $130 $216 #
vertex $-1 $132 $217 #
straight-curve $-1 -41.634223765081288 0 -7.2165539581243978 0 1 0 I I #
face $-1 $218 $219 $17 $-1 $220 reversed single #
loop $-1 $-1 $145 $78 #
plane-surface $-1 0 0 15.211827977578489 0 0 1 1 0 0 forward_v I I I I #
coedge $-1 $84 $221 $81 $143 forward $79 $-1 #
coedge $-1 $222 $81 $223 $224 reversed $49 $-1 #
coedge $-1 $81 $222 $82 $144 reversed $49 $-1 #
edge $-1 $225 -34.94434407007018 $148 -17.096958329051567 $140 $226 forward 7 unknown #
edge $-1 $148 -1.0034820495532102e-014 $227 9.1085222452986372 $82 $228 forward 7 unknown #
coedge $-1 $229 $230 $83 $146 forward $138 $-1 #
edge $-1 $149 24.197156476277463 $227 30.966107584616104 $145 $231 forward 7 unknown #
coedge $-1 $232 $84 $230 $233 reversed $79 $-1 #
vertex $-1 $143 $234 #
vertex $-1 $146 $235 #
straight-curve $-1 43.117609528612441 -33.192776531549164 49.864338773748543 0 0 1 I I #
face $-1 $236 $237 $18 $-1 $238 reversed single #
loop $-1 $239 $92 $86 #
plane-surface $-1 52.041302399121747 -33.192776531549157 9.1170368912473663 0 -0.66913061440640931 0.74314481823134659 1 0 0 forward_v I I I I #
coedge $-1 $240 $241 $242 $243 reversed $87 $-1 #
coedge $-1 $155 $155 $-1 $244 forward $89 $-1 #
edge $-1 $245 0 $245 6.2831853071796004 $90 $246 forward 7 unknown #
vertex $-1 $93 $247 #
ellipse-curve $-1 48.216862597474886 -29.808300977379847 12.164432434412923 0 0.66913061440640931 -0.74314481823134659 2 0 0 1 I I #
face $-1 $248 $249 $19 $-1 $250 forward single #
loop $-1 $251 $252 $94 #
cone-surface $-1 48.216862597474886 -25.560413071347011 7.4466750671217508 0 0.66913061440640931 -0.74314481823134659 1 0 0 1 I I -0.70710678118654746 0.70710678118654746 1 forward I I I I #
loop $-1 $-1 $253 $57 #
coedge $-1 $163 $163 $254 $255 reversed $95 $-1 #
coedge $-1 $164 $164 $-1 $256 forward $97 $-1 #
edge $-1 $257 0 $257 6.2831853071796004 $98 $258 forward 7 unknown #
loop $-1 $259 $100 $248 #
vertex $-1 $101 $260 #
ellipse-curve $-1 55.86574220076858 -29.808300977379847 12.164432434412923 0 0.66913061440640931 -0.74314481823134659 2 0 0 1 I I #
face $-1 $-1 $117 $15 $-1 $261 reversed single #
loop $-1 $-1 $185 $102 #
plane-surface $-1 0 33.192776531549164 0 0 -1 0 0 0 -1 forward_v I I I I #
coedge $-1 $262 $183 $186 $263 forward $103 $-1 #
coedge $-1 $189 $105 $106 $177 reversed $63 $-1 #
coedge $-1 $183 $262 $105 $175 reversed $103 $-1 #
edge $-1 $190 -15.211827977578489 $264 15.211827977578489 $174 $265 forward 7 unknown #
coedge $-1 $107 $106 $262 $266 forward $41 $-1 #
edge $-1 $181 -60.964995269631032 $264 60.964995269631032 $173 $267 forward 7 unknown #
coedge $-1 $186 $185 $107 $179 reversed $170 $-1 #
edge $-1 $268 -60.964995269631032 $180 60.964995269631032 $178 $269 forward 7 unknown #
vertex $-1 $109 $270 #
vertex $-1 $192 $271 #
straight-curve $-1 60.964995269631032 0 -15.211827977578489 0 -1 0 I I #
coedge $-1 $172 $174 $110 $184 reversed $103 $-1 #
edge $-1 $187 -33.192776531549164 $190 33.192776531549164 $183 $272 forward 7 unknown #
coedge $-1 $178 $111 $116 $193 forward $170 $-1 #
coedge $-1 $111 $178 $172 $263 reversed $170 $-1 #
vertex $-1 $112 $273 #
straight-curve $-1 0 33.192776531549164 15.211827977578489 -1 0 0 I I #
coedge $-1 $113 $173 $115 $192 reversed $63 $-1 #
vertex $-1 $184 $274 #
straight-curve $-1 0 -33.192776531549164 15.211827977578489 1 0 0 I I #
edge $-1 $118 -15.211827977578489 $181 15.211827977578489 $115 $275 forward 7 unknown #
edge $-1 $119 -15.211827977578489 $180 15.211827977578489 $116 $276 forward 7 unknown #
point $-1 60.964995269631032 -33.192776531549164 15.211827977578489 #
point $-1 60.964995269631032 33.192776531549164 15.211827977578489 #
face $-1 $277 $278 $16 $-1 $279 reversed single #
loop $-1 $-1 $280 $121 #
plane-surface $-1 0 0 15.211827977578489 0 0 1 1 0 0 forward_v I I I I #
coedge $-1 $281 $124 $207 $282 reversed $71 $-1 #
coedge $-1 $124 $281 $210 $283 forward $71 $-1 #
edge $-1 $213 -33.192776531549164 $208 33.192776531549164 $124 $284 forward 7 unknown #
coedge $-1 $285 $286 $125 $203 forward $278 $-1 #
edge $-1 $205 -33.192776531549164 $287 33.192776531549164 $202 $288 forward 7 unknown #
coedge $-1 $289 $126 $286 $290 reversed $122 $-1 #
vertex $-1 $127 $291 #
straight-curve $-1 -41.634223765081288 -33.192776531549164 -5.6070954839257219 0 0 -1 I I #
coedge $-1 $129 $292 $199 $282 forward $122 $-1 #
vertex $-1 $130 $293 #
straight-curve $-1 -25.64980475867808 -33.192776531549164 -7.2165539581243978 1 0 0 I I #
coedge $-1 $294 $131 $200 $283 reversed $212 $-1 #
coedge $-1 $131 $295 $133 $215 forward $212 $-1 #
loop $-1 $-1 $131 $277 #
vertex $-1 $201 $296 #
straight-curve $-1 -25.64980475867808 33.192776531549164 -7.2165539581243978 -1 0 0 I I #
edge $-1 $287 -9.6047324936527687 $135 -1.6094584741986759 $211 $297 forward 7 unknown #
point $-1 -41.634223765081288 -33.192776531549164 -7.2165539581243978 #
point $-1 -41.634223765081288 33.192776531549164 -7.2165539581243978 #
face $-1 $298 $299 $17 $-1 $300 forward single #
loop $-1 $-1 $301 $137 #
plane-surface $-1 -51.29960951735616 0 -7.2165539581243978 0 0 1 1 0 0 forward_v I I I I #
coedge $-1 $140 $302 $303 $304 reversed $79 $-1 #
coedge $-1 $142 $141 $229 $305 reversed $49 $-1 #
coedge $-1 $303 $306 $141 $224 forward $307 $-1 #
edge $-1 $308 0.1747534474641412 $225 9.2832756927627891 $223 $309 forward 7 unknown #
vertex $-1 $304 $310 #
straight-curve $-1 26.020651199560874 -33.192776531549164 9.1170368912473574 -1 0 0 I I #
vertex $-1 $305 $311 #
straight-curve $-1 43.117609528612441 -33.192776531549157 9.1170368912473663 0 0.74314481823134659 0.66913061440640931 I I #
coedge $-1 $312 $145 $222 $305 forward $138 $-1 #
coedge $-1 $145 $313 $147 $233 forward $138 $-1 #
straight-curve $-1 43.117609528612441 -57.389933007826627 15.211827977578487 0 1 0 I I #
coedge $-1 $314 $147 $315 $316 forward $79 $-1 #
edge $-1 $317 -60.964995269631032 $149 43.117609528612441 $147 $318 forward 7 unknown #
point $-1 43.117609528612441 -33.192776531549164 9.1170368912473592 #
point $-1 43.117609528612441 -33.192776531549164 15.211827977578489 #
face $-1 $319 $320 $18 $-1 $321 forward single #
loop $-1 $-1 $322 $151 #
plane-surface $-1 0 -33.192776531549164 0 0 1 0 0 0 1 forward_v I I I I #
loop $-1 $-1 $323 $86 #
coedge $-1 $241 $154 $324 $325 forward $87 $-1 #
coedge $-1 $154 $240 $326 $327 reversed $87 $-1 #
coedge $-1 $328 $322 $154 $243 forward $237 $-1 #
edge $-1 $329 -40.747301882501183 $330 -34.652510796170056 $242 $331 forward 7 unknown #
edge $-1 $332 1 $332 0 $155 $-1 forward 7 unknown #
vertex $-1 $156 $333 #
ellipse-curve $-1 48.216862597474886 -26.22954368575342 8.1898198853530975 0 -0.66913061440640931 0.74314481823134659 2 0 0 1 I I #
point $-1 50.216862597474886 -29.808300977379851 12.164432434412927 #
face $-1 $334 $166 $19 $-1 $335 forward single #
loop $-1 $-1 $336 $159 #
plane-surface $-1 43.117609528612441 -114.77986601565325 99.728677547497085 1 0 0 0 0.66913061440640931 -0.74314481823134659 forward_v I I I I #
loop $-1 $-1 $337 $94 #
coedge $-1 $252 $252 $253 $338 forward $160 $-1 #
coedge $-1 $253 $253 $252 $338 reversed $162 $-1 #
coedge $-1 $254 $254 $163 $255 forward $259 $-1 #
edge $-1 $339 1.3147563717719145e-016 $339 6.2831853071796004 $254 $340 forward 7 unknown #
edge $-1 $341 1 $341 0 $164 $-1 forward 7 unknown #
vertex $-1 $165 $342 #
ellipse-curve $-1 55.86574220076858 -26.22954368575342 8.1898198853530975 0 -0.66913061440640931 0.74314481823134659 2 0 0 1 I I #
loop $-1 $343 $254 $248 #
point $-1 57.86574220076858 -29.808300977379851 12.164432434412927 #
plane-surface $-1 60.964995269631032 0 0 -1 0 0 0 0 1 forward_v I I I I #
coedge $-1 $174 $172 $176 $266 reversed $103 $-1 #
edge $-1 $187 -15.211827977578489 $268 15.211827977578489 $186 $344 forward 7 unknown #
vertex $-1 $266 $345 #
straight-curve $-1 -60.964995269631032 -33.192776531549164 0 0 0 -1 I I #
edge $-1 $264 -33.192776531549164 $268 33.192776531549164 $262 $346 forward 7 unknown #
straight-curve $-1 0 -33.192776531549164 -15.211827977578489 -1 0 0 I I #
vertex $-1 $179 $347 #
straight-curve $-1 0 33.192776531549164 -15.211827977578489 1 0 0 I I #
point $-1 60.964995269631032 33.192776531549164 -15.211827977578489 #
point $-1 60.964995269631032 -33.192776531549164 -15.211827977578489 #
straight-curve $-1 -60.964995269631032 0 15.211827977578489 0 -1 0 I I #
point $-1 -60.964995269631032 33.192776531549164 15.211827977578489 #
point $-1 -60.964995269631032 -33.192776531549164 15.211827977578489 #
straight-curve $-1 60.964995269631032 -33.192776531549164 0 0 0 -1 I I #
straight-curve $-1 60.964995269631032 33.192776531549164 0 0 0 -1 I I #
face $-1 $348 $212 $16 $-1 $349 reversed single #
loop $-1 $-1 $202 $196 #
plane-surface $-1 0 0 -15.211827977578489 0 0 1 1 0 0 forward_v I I I I #
coedge $-1 $350 $351 $352 $353 forward $197 $-1 #
coedge $-1 $200 $199 $354 $355 reversed $71 $-1 #
edge $-1 $356 -15.211827977578489 $208 7.2165539581243978 $199 $357 forward 7 unknown #
edge $-1 $358 -15.211827977578489 $213 7.2165539581243978 $210 $359 forward 7 unknown #
straight-curve $-1 -60.964995269631032 0 -7.2165539581243978 0 -1 0 I I #
coedge $-1 $360 $202 $295 $361 forward $278 $-1 #
coedge $-1 $202 $360 $204 $290 forward $278 $-1 #
vertex $-1 $361 $362 #
straight-curve $-1 -41.634223765081288 0 -15.211827977578489 0 1 0 I I #
coedge $-1 $292 $204 $363 $364 reversed $122 $-1 #
edge $-1 $365 -60.964995269631032 $205 41.634223765081288 $204 $366 forward 7 unknown #
point $-1 -41.634223765081288 -33.192776531549164 -15.211827977578491 #
coedge $-1 $207 $289 $351 $367 reversed $122 $-1 #
point $-1 -60.964995269631032 -33.192776531549164 -7.2165539581243978 #
coedge $-1 $368 $210 $350 $369 reversed $212 $-1 #
coedge $-1 $211 $368 $285 $361 reversed $212 $-1 #
point $-1 -60.964995269631032 33.192776531549164 -7.2165539581243978 #
straight-curve $-1 -41.634223765081288 33.192776531549164 -5.6070954839257219 0 0 1 I I #
face $-1 $370 $371 $17 $-1 $372 reversed single #
loop $-1 $-1 $373 $218 #
plane-surface $-1 -41.634223765081288 0 -11.214190967851444 -1 0 0 0 0 1 forward_v I I I I #
coedge $-1 $374 $375 $376 $377 reversed $219 $-1 #
coedge $-1 $221 $378 $379 $380 reversed $79 $-1 #
coedge $-1 $381 $223 $221 $304 forward $307 $-1 #
edge $-1 $225 -9.1170368912473592 $382 15.211827977578489 $303 $383 forward 7 unknown #
edge $-1 $227 17.096958329051567 $308 34.94434407007018 $229 $384 forward 7 unknown #
coedge $-1 $223 $385 $312 $386 reversed $307 $-1 #
loop $-1 $-1 $223 $387 #
vertex $-1 $386 $388 #
straight-curve $-1 60.964995269631032 -26.293958304259483 15.328760859249808 0 -0.74314481823134659 -0.66913061440640931 I I #
point $-1 60.964995269631054 -33.192776531549164 9.1170368912473592 #
point $-1 43.117609528612441 -26.423825423210523 15.211827977578489 #
coedge $-1 $389 $229 $306 $386 forward $138 $-1 #
coedge $-1 $230 $389 $390 $391 forward $138 $-1 #
coedge $-1 $378 $232 $374 $392 forward $79 $-1 #
coedge $-1 $390 $393 $232 $316 reversed $371 $-1 #
edge $-1 $317 -15.211827977578489 $394 7.2165539581243978 $315 $395 forward 7 unknown #
vertex $-1 $391 $396 #
straight-curve $-1 0 -33.192776531549164 15.211827977578489 1 0 0 I I #
face $-1 $397 $398 $18 $-1 $399 reversed single #
loop $-1 $-1 $326 $236 #
plane-surface $-1 0 0 15.211827977578489 0 0 1 1 0 0 forward_v I I I I #
coedge $-1 $242 $400 $323 $401 forward $237 $-1 #
coedge $-1 $402 $324 $322 $401 reversed $239 $-1 #
coedge $-1 $323 $403 $240 $325 reversed $239 $-1 #
edge $-1 $329 -1.0034820495532102e-014 $404 9.1085222452986372 $240 $405 forward 7 unknown #
coedge $-1 $406 $407 $241 $327 forward $320 $-1 #
edge $-1 $330 24.197156476277463 $404 30.966107584616104 $326 $408 forward 7 unknown #
coedge $-1 $409 $242 $407 $410 reversed $237 $-1 #
vertex $-1 $401 $411 #
vertex $-1 $327 $412 #
straight-curve $-1 43.117609528612441 -33.192776531549164 49.864338773748543 0 0 1 I I #
vertex $-1 $244 $413 #
point $-1 50.216862597474886 -26.22954368575342 8.1898198853530975 #
face $-1 $414 $415 $19 $-1 $416 reversed single #
plane-surface $-1 52.041302399121747 -33.192776531549157 9.1170368912473663 0 -0.66913061440640931 0.74314481823134659 1 0 0 forward_v I I I I #
coedge $-1 $417 $418 $419 $420 reversed $249 $-1 #
coedge $-1 $337 $337 $-1 $421 forward $251 $-1 #
edge $-1 $422 0 $422 6.2831853071796004 $252 $423 forward 7 unknown #
vertex $-1 $255 $424 #
ellipse-curve $-1 48.216862597474886 -29.808300977379847 12.164432434412923 0 0.66913061440640931 -0.74314481823134659 2 0 0 1 I I #
vertex $-1 $256 $425 #
point $-1 57.86574220076858 -26.22954368575342 8.1898198853530975 #
loop $-1 $-1 $426 $248 #
straight-curve $-1 -60.964995269631032 33.192776531549164 0 0 0 -1 I I #
point $-1 -60.964995269631032 -33.192776531549164 -15.211827977578489 #
straight-curve $-1 -60.964995269631032 0 -15.211827977578489 0 1 0 I I #
point $-1 -60.964995269631032 33.192776531549164 -15.211827977578489 #
face $-1 $-1 $427 $16 $-1 $428 reversed single #
plane-surface $-1 0 33.192776531549164 0 0 -1 0 0 0 -1 forward_v I I I I #
coedge $-1 $354 $280 $294 $369 forward $197 $-1 #
coedge $-1 $280 $354 $292 $367 forward $197 $-1 #
coedge $-1 $363 $429 $280 $353 reversed $427 $-1 #
edge $-1 $430 -33.192776531549164 $431 33.192776531549164 $352 $432 forward 7 unknown #
coedge $-1 $351 $350 $281 $355 forward $197 $-1 #
edge $-1 $358 -33.192776531549164 $356 33.192776531549164 $281 $433 forward 7 unknown #
vertex $-1 $355 $434 #
straight-curve $-1 -60.964995269631032 -33.192776531549164 0 0 0 -1 I I #
vertex $-1 $369 $435 #
straight-curve $-1 -60.964995269631032 33.192776531549164 0 0 0 -1 I I #
coedge $-1 $286 $285 $436 $437 forward $278 $-1 #
edge $-1 $287 -41.634223765081288 $438 60.964995269631032 $295 $439 forward 7 unknown #
point $-1 -41.634223765081288 33.192776531549164 -15.211827977578491 #
coedge $-1 $436 $352 $289 $364 forward $427 $-1 #
edge $-1 $430 -15.211827977578489 $365 15.211827977578489 $363 $440 forward 7 unknown #
vertex $-1 $364 $441 #
straight-curve $-1 0 -33.192776531549164 -15.211827977578489 -1 0 0 I I #
edge $-1 $356 -60.964995269631032 $430 60.964995269631032 $292 $442 forward 7 unknown #
coedge $-1 $295 $294 $429 $443 forward $212 $-1 #
edge $-1 $431 -60.964995269631032 $358 60.964995269631032 $294 $444 forward 7 unknown #
face $-1 $445 $446 $17 $-1 $447 reversed single #
loop $-1 $-1 $393 $298 #
plane-surface $-1 -60.964995269631032 0 0 1 0 0 0 0 -1 forward_v I I I I #
coedge $-1 $376 $448 $378 $449 reversed $299 $-1 #
coedge $-1 $450 $301 $314 $392 reversed $219 $-1 #
coedge $-1 $301 $450 $451 $452 reversed $219 $-1 #
coedge $-1 $453 $373 $301 $377 forward $299 $-1 #
edge $-1 $454 -33.192776531549164 $455 33.192776531549164 $376 $456 forward 7 unknown #
coedge $-1 $302 $314 $373 $449 forward $79 $-1 #
coedge $-1 $457 $458 $302 $380 forward $446 $-1 #
edge $-1 $382 -60.964995269631032 $459 41.634223765081288 $302 $460 forward 7 unknown #
coedge $-1 $385 $303 $458 $461 reversed $307 $-1 #
vertex $-1 $304 $462 #
straight-curve $-1 60.964995269631032 -33.192776531549164 0 0 0 -1 I I #
straight-curve $-1 26.020651199560874 -26.423825423210527 15.211827977578489 1 0 0 I I #
coedge $-1 $306 $381 $463 $464 reversed $307 $-1 #
edge $-1 $308 -26.423825423210523 $465 33.192776531549164 $306 $466 forward 7 unknown #
face $-1 $-1 $307 $17 $-1 $467 reversed single #
point $-1 60.964995269631054 -26.423825423210523 15.211827977578489 #
coedge $-1 $313 $312 $468 $469 forward $138 $-1 #
coedge $-1 $470 $315 $313 $391 reversed $371 $-1 #
edge $-1 $471 -33.192776531549164 $317 33.192776531549164 $390 $472 forward 7 unknown #
edge $-1 $394 -35.315190510952952 $454 -15.984419006403208 $314 $473 forward 7 unknown #
coedge $-1 $315 $470 $450 $474 forward $371 $-1 #
vertex $-1 $392 $475 #
straight-curve $-1 -60.964995269631032 -33.192776531549164 0 0 0 -1 I I #
point $-1 -60.964995269631032 -33.192776531549164 15.211827977578489 #
face $-1 $476 $477 $18 $-1 $478 forward single #
loop $-1 $-1 $479 $319 #
plane-surface $-1 -51.29960951735616 0 -7.2165539581243978 0 0 1 1 0 0 forward_v I I I I #
coedge $-1 $322 $480 $481 $482 reversed $237 $-1 #
edge $-1 $483 -34.94434407007018 $329 -17.096958329051567 $322 $484 forward 7 unknown #
coedge $-1 $403 $323 $485 $486 reversed $239 $-1 #
coedge $-1 $324 $402 $406 $487 reversed $239 $-1 #
vertex $-1 $487 $488 #
straight-curve $-1 43.117609528612441 -33.192776531549157 9.1170368912473663 0 0.74314481823134659 0.66913061440640931 I I #
coedge $-1 $489 $326 $403 $487 forward $320 $-1 #
coedge $-1 $326 $490 $328 $410 forward $320 $-1 #
straight-curve $-1 43.117609528612441 -57.389933007826627 15.211827977578487 0 1 0 I I #
coedge $-1 $491 $328 $492 $493 forward $237 $-1 #
edge $-1 $494 -60.964995269631032 $330 43.117609528612441 $328 $495 forward 7 unknown #
point $-1 43.117609528612441 -33.192776531549164 9.1170368912473592 #
point $-1 43.117609528612441 -33.192776531549164 15.211827977578489 #
point $-1 48.216862597474886 -24.891282456940601 6.7035302488904041 #
face $-1 $496 $497 $19 $-1 $498 forward single #
loop $-1 $-1 $499 $334 #
plane-surface $-1 0 -33.192776531549164 0 0 1 0 0 0 1 forward_v I I I I #
coedge $-1 $418 $336 $500 $501 forward $249 $-1 #
coedge $-1 $336 $417 $502 $503 reversed $249 $-1 #
coedge $-1 $504 $499 $336 $420 forward $415 $-1 #
edge $-1 $505 -40.747301882501183 $506 -34.652510796170056 $419 $507 forward 7 unknown #
edge $-1 $508 1 $508 0 $337 $-1 forward 7 unknown #
vertex $-1 $338 $509 #
ellipse-curve $-1 48.216862597474886 -26.22954368575342 8.1898198853530975 0 -0.66913061440640931 0.74314481823134659 2 0 0 1 I I #
point $-1 50.216862597474886 -29.808300977379851 12.164432434412927 #
point $-1 55.86574220076858 -24.891282456940601 6.7035302488904041 #
coedge $-1 $510 $500 $499 $511 reversed $343 $-1 #
loop $-1 $-1 $363 $348 #
plane-surface $-1 60.964995269631032 0 0 -1 0 0 0 0 1 forward_v I I I I #
coedge $-1 $352 $436 $368 $443 reversed $427 $-1 #
vertex $-1 $353 $512 #
vertex $-1 $353 $513 #
straight-curve $-1 60.964995269631032 0 15.211827977578489 0 1 0 I I #
straight-curve $-1 -60.964995269631032 0 15.211827977578489 0 -1 0 I I #
point $-1 -60.964995269631032 -33.192776531549164 15.211827977578489 #
point $-1 -60.964995269631032 33.192776531549164 15.211827977578489 #
coedge $-1 $429 $363 $360 $437 reversed $427 $-1 #
edge $-1 $438 -33.192776531549164 $365 33.192776531549164 $436 $514 forward 7 unknown #
vertex $-1 $437 $515 #
straight-curve $-1 0 33.192776531549164 -15.211827977578489 1 0 0 I I #
straight-curve $-1 60.964995269631032 -33.192776531549164 0 0 0 -1 I I #
point $-1 60.964995269631032 -33.192776531549164 -15.211827977578489 #
straight-curve $-1 0 -33.192776531549164 15.211827977578489 1 0 0 I I #
edge $-1 $431 -15.211827977578489 $438 15.211827977578489 $429 $516 forward 7 unknown #
straight-curve $-1 0 33.192776531549164 15.211827977578489 -1 0 0 I I #
face $-1 $387 $517 $17 $-1 $518 reversed single #
loop $-1 $-1 $457 $370 #
plane-surface $-1 0 0 -15.211827977578489 0 0 1 1 0 0 forward_v I I I I #
coedge $-1 $373 $453 $457 $519 reversed $299 $-1 #
edge $-1 $454 1.6094584741986759 $459 9.6047324936527687 $378 $520 forward 7 unknown #
coedge $-1 $375 $374 $393 $474 reversed $219 $-1 #
coedge $-1 $521 $522 $375 $452 forward $517 $-1 #
edge $-1 $455 15.984419006403208 $523 35.315190510952952 $451 $524 forward 7 unknown #
coedge $-1 $448 $376 $522 $525 reversed $299 $-1 #
vertex $-1 $392 $526 #
vertex $-1 $452 $527 #
straight-curve $-1 -41.634223765081288 0 -7.2165539581243978 0 1 0 I I #
coedge $-1 $528 $379 $448 $519 forward $446 $-1 #
coedge $-1 $379 $528 $381 $461 forward $446 $-1 #
vertex $-1 $449 $529 #
straight-curve $-1 0 -33.192776531549164 -15.211827977578489 -1 0 0 I I #
edge $-1 $530 -33.192776531549164 $382 33.192776531549164 $381 $531 forward 7 unknown #
point $-1 60.964995269631032 -33.192776531549164 -15.211827977578489 #
coedge $-1 $532 $468 $385 $464 forward $517 $-1 #
edge $-1 $465 -15.211827977578489 $530 15.211827977578489 $385 $533 forward 7 unknown #
vertex $-1 $386 $534 #
straight-curve $-1 60.964995269631032 0 15.211827977578489 0 1 0 I I #
plane-surface $-1 60.964995269631032 0 0 -1 0 0 0 0 1 forward_v I I I I #
coedge $-1 $463 $521 $389 $469 reversed $517 $-1 #
edge $-1 $465 -60.964995269631032 $471 60.964995269631032 $468 $535 forward 7 unknown #
coedge $-1 $393 $390 $521 $536 forward $371 $-1 #
vertex $-1 $469 $537 #
straight-curve $-1 -60.964995269631032 0 15.211827977578489 0 -1 0 I I #
straight-curve $-1 -25.64980475867808 -33.192776531549164 -7.2165539581243978 1 0 0 I I #
edge $-1 $523 -33.192776531549164 $394 33.192776531549164 $393 $538 forward 7 unknown #
point $-1 -60.964995269631032 -33.192776531549164 -7.2165539581243978 #
face $-1 $539 $540 $18 $-1 $541 reversed single #
loop $-1 $-1 $542 $397 #
plane-surface $-1 -41.634223765081288 0 -11.214190967851444 -1 0 0 0 0 1 forward_v I I I I #
coedge $-1 $543 $544 $545 $546 reversed $398 $-1 #
coedge $-1 $400 $547 $548 $549 reversed $237 $-1 #
coedge $-1 $550 $485 $400 $482 forward $551 $-1 #
edge $-1 $483 -9.1170368912473592 $552 15.211827977578489 $481 $553 forward 7 unknown #
vertex $-1 $482 $554 #
straight-curve $-1 26.020651199560874 -33.192776531549164 9.1170368912473574 -1 0 0 I I #
coedge $-1 $481 $555 $402 $486 forward $551 $-1 #
edge $-1 $556 0.1747534474641412 $483 9.2832756927627891 $485 $557 forward 7 unknown #
edge $-1 $404 17.096958329051567 $556 34.94434407007018 $406 $558 forward 7 unknown #
point $-1 43.117609528612441 -26.423825423210523 15.211827977578489 #
coedge $-1 $559 $406 $555 $560 forward $320 $-1 #
coedge $-1 $407 $559 $561 $562 forward $320 $-1 #
coedge $-1 $547 $409 $543 $563 forward $237 $-1 #
coedge $-1 $561 $564 $409 $493 reversed $540 $-1 #
edge $-1 $494 -15.211827977578489 $565 7.2165539581243978 $492 $566 forward 7 unknown #
vertex $-1 $562 $567 #
straight-curve $-1 0 -33.192776531549164 15.211827977578489 1 0 0 I I #
face $-1 $568 $569 $19 $-1 $570 reversed single #
loop $-1 $-1 $502 $414 #
plane-surface $-1 0 0 15.211827977578489 0 0 1 1 0 0 forward_v I I I I #
coedge $-1 $419 $571 $426 $511 forward $415 $-1 #
coedge $-1 $426 $572 $417 $501 reversed $343 $-1 #
edge $-1 $505 -1.0034820495532102e-014 $573 9.1085222452986372 $417 $574 forward 7 unknown #
coedge $-1 $575 $576 $418 $503 forward $497 $-1 #
edge $-1 $506 24.197156476277463 $573 30.966107584616104 $502 $577 forward 7 unknown #
coedge $-1 $578 $419 $576 $579 reversed $415 $-1 #
vertex $-1 $511 $580 #
vertex $-1 $503 $581 #
straight-curve $-1 43.117609528612441 -33.192776531549164 49.864338773748543 0 0 1 I I #
vertex $-1 $421 $582 #
point $-1 50.216862597474886 -26.22954368575342 8.1898198853530975 #
coedge $-1 $572 $426 $583 $584 reversed $343 $-1 #
edge $-1 $585 -34.94434407007018 $505 -17.096958329051567 $499 $586 forward 7 unknown #
point $-1 60.964995269631032 -33.192776531549164 15.211827977578489 #
point $-1 60.964995269631032 33.192776531549164 15.211827977578489 #
straight-curve $-1 60.964995269631032 0 -15.211827977578489 0 -1 0 I I #
point $-1 60.964995269631032 33.192776531549164 -15.211827977578489 #
straight-curve $-1 60.964995269631032 33.192776531549164 0 0 0 -1 I I #
loop $-1 $-1 $451 $445 #
plane-surface $-1 0 33.192776531549164 0 0 -1 0 0 0 -1 forward_v I I I I #
edge $-1 $459 -33.192776531549164 $587 33.192776531549164 $457 $588 forward 7 unknown #
straight-curve $-1 -41.634223765081288 -33.192776531549164 -5.6070954839257219 0 0 -1 I I #
coedge $-1 $468 $451 $470 $536 reversed $517 $-1 #
coedge $-1 $451 $532 $453 $525 forward $517 $-1 #
vertex $-1 $474 $589 #
straight-curve $-1 -25.64980475867808 33.192776531549164 -7.2165539581243978 -1 0 0 I I #
edge $-1 $587 -9.6047324936527687 $455 -1.6094584741986759 $522 $590 forward 7 unknown #
point $-1 -41.634223765081288 -33.192776531549164 -7.2165539581243978 #
point $-1 -41.634223765081288 33.192776531549164 -7.2165539581243978 #
coedge $-1 $458 $457 $532 $591 forward $446 $-1 #
point $-1 -41.634223765081288 -33.192776531549164 -15.211827977578491 #
vertex $-1 $461 $592 #
straight-curve $-1 60.964995269631032 0 -15.211827977578489 0 -1 0 I I #
coedge $-1 $522 $463 $528 $591 reversed $517 $-1 #
straight-curve $-1 60.964995269631032 33.192776531549164 0 0 0 -1 I I #
point $-1 60.964995269631032 33.192776531549164 15.211827977578489 #
straight-curve $-1 0 33.192776531549164 15.211827977578489 -1 0 0 I I #
edge $-1 $471 -15.211827977578489 $523 7.2165539581243978 $521 $593 forward 7 unknown #
point $-1 -60.964995269631032 33.192776531549164 15.211827977578489 #
straight-curve $-1 -60.964995269631032 0 -7.2165539581243978 0 -1 0 I I #
face $-1 $594 $595 $18 $-1 $596 reversed single #
loop $-1 $-1 $564 $476 #
plane-surface $-1 -60.964995269631032 0 0 1 0 0 0 0 -1 forward_v I I I I #
coedge $-1 $545 $597 $547 $598 reversed $477 $-1 #
coedge $-1 $599 $479 $491 $563 reversed $398 $-1 #
coedge $-1 $479 $599 $600 $601 reversed $398 $-1 #
coedge $-1 $602 $542 $479 $546 forward $477 $-1 #
edge $-1 $603 -33.192776531549164 $604 33.192776531549164 $545 $605 forward 7 unknown #
coedge $-1 $480 $491 $542 $598 forward $237 $-1 #
coedge $-1 $606 $607 $480 $549 forward $595 $-1 #
edge $-1 $552 -60.964995269631032 $608 41.634223765081288 $480 $609 forward 7 unknown #
coedge $-1 $610 $481 $607 $611 reversed $551 $-1 #
loop $-1 $-1 $485 $612 #
vertex $-1 $482 $613 #
straight-curve $-1 60.964995269631032 -33.192776531549164 0 0 0 -1 I I #
point $-1 60.964995269631054 -33.192776531549164 9.1170368912473592 #
coedge $-1 $485 $610 $489 $560 reversed $551 $-1 #
vertex $-1 $560 $614 #
straight-curve $-1 60.964995269631032 -26.293958304259483 15.328760859249808 0 -0.74314481823134659 -0.66913061440640931 I I #
straight-curve $-1 26.020651199560874 -26.423825423210527 15.211827977578489 1 0 0 I I #
coedge $-1 $490 $489 $615 $616 forward $320 $-1 #
edge $-1 $556 -26.423825423210523 $617 33.192776531549164 $555 $618 forward 7 unknown #
coedge $-1 $619 $492 $490 $562 reversed $540 $-1 #
edge $-1 $620 -33.192776531549164 $494 33.192776531549164 $561 $621 forward 7 unknown #
edge $-1 $565 -35.315190510952952 $603 -15.984419006403208 $491 $622 forward 7 unknown #
coedge $-1 $492 $619 $599 $623 forward $540 $-1 #
vertex $-1 $563 $624 #
straight-curve $-1 -60.964995269631032 -33.192776531549164 0 0 0 -1 I I #
point $-1 -60.964995269631032 -33.192776531549164 15.211827977578489 #
face $-1 $625 $626 $19 $-1 $627 forward single #
loop $-1 $-1 $628 $496 #
plane-surface $-1 -51.29960951735616 0 -7.2165539581243978 0 0 1 1 0 0 forward_v I I I I #
coedge $-1 $499 $629 $630 $631 reversed $415 $-1 #
coedge $-1 $500 $510 $575 $632 reversed $343 $-1 #
vertex $-1 $632 $633 #
straight-curve $-1 43.117609528612441 -33.192776531549157 9.1170368912473663 0 0.74314481823134659 0.66913061440640931 I I #
coedge $-1 $634 $502 $572 $632 forward $497 $-1 #
coedge $-1 $502 $635 $504 $579 forward $497 $-1 #
straight-curve $-1 43.117609528612441 -57.389933007826627 15.211827977578487 0 1 0 I I #
coedge $-1 $636 $504 $637 $638 forward $415 $-1 #
edge $-1 $639 -60.964995269631032 $506 43.117609528612441 $504 $640 forward 7 unknown #
point $-1 43.117609528612441 -33.192776531549164 9.1170368912473592 #
point $-1 43.117609528612441 -33.192776531549164 15.211827977578489 #
point $-1 48.216862597474886 -24.891282456940601 6.7035302488904041 #
coedge $-1 $630 $641 $510 $584 forward $642 $-1 #
edge $-1 $643 0.1747534474641412 $585 9.2832756927627891 $583 $644 forward 7 unknown #
vertex $-1 $631 $645 #
straight-curve $-1 26.020651199560874 -33.192776531549164 9.1170368912473574 -1 0 0 I I #
vertex $-1 $591 $646 #
straight-curve $-1 -41.634223765081288 0 -15.211827977578489 0 1 0 I I #
point $-1 -60.964995269631032 33.192776531549164 -7.2165539581243978 #
straight-curve $-1 -41.634223765081288 33.192776531549164 -5.6070954839257219 0 0 1 I I #
edge $-1 $587 -41.634223765081288 $530 60.964995269631032 $532 $647 forward 7 unknown #
point $-1 60.964995269631032 33.192776531549164 -15.211827977578489 #
straight-curve $-1 -60.964995269631032 33.192776531549164 0 0 0 -1 I I #
face $-1 $612 $648 $18 $-1 $649 reversed single #
loop $-1 $-1 $606 $539 #
plane-surface $-1 0 0 -15.211827977578489 0 0 1 1 0 0 forward_v I I I I #
coedge $-1 $542 $602 $606 $650 reversed $477 $-1 #
edge $-1 $603 1.6094584741986759 $608 9.6047324936527687 $547 $651 forward 7 unknown #
coedge $-1 $544 $543 $564 $623 reversed $398 $-1 #
coedge $-1 $652 $653 $544 $601 forward $648 $-1 #
edge $-1 $604 15.984419006403208 $654 35.315190510952952 $600 $655 forward 7 unknown #
coedge $-1 $597 $545 $653 $656 reversed $477 $-1 #
vertex $-1 $563 $657 #
vertex $-1 $601 $658 #
straight-curve $-1 -41.634223765081288 0 -7.2165539581243978 0 1 0 I I #
coedge $-1 $659 $548 $597 $650 forward $595 $-1 #
coedge $-1 $548 $659 $550 $611 forward $595 $-1 #
vertex $-1 $598 $660 #
straight-curve $-1 0 -33.192776531549164 -15.211827977578489 -1 0 0 I I #
coedge $-1 $555 $550 $661 $662 reversed $551 $-1 #
edge $-1 $663 -33.192776531549164 $552 33.192776531549164 $550 $664 forward 7 unknown #
face $-1 $-1 $551 $18 $-1 $665 reversed single #
point $-1 60.964995269631032 -33.192776531549164 -15.211827977578489 #
point $-1 60.964995269631054 -26.423825423210523 15.211827977578489 #
coedge $-1 $661 $652 $559 $616 reversed $648 $-1 #
edge $-1 $617 -60.964995269631032 $620 60.964995269631032 $615 $666 forward 7 unknown #
vertex $-1 $560 $667 #
straight-curve $-1 60.964995269631032 0 15.211827977578489 0 1 0 I I #
coedge $-1 $564 $561 $652 $668 forward $540 $-1 #
vertex $-1 $616 $669 #
straight-curve $-1 -60.964995269631032 0 15.211827977578489 0 -1 0 I I #
straight-curve $-1 -25.64980475867808 -33.192776531549164 -7.2165539581243978 1 0 0 I I #
edge $-1 $654 -33.192776531549164 $565 33.192776531549164 $564 $670 forward 7 unknown #
point $-1 -60.964995269631032 -33.192776531549164 -7.2165539581243978 #
face $-1 $671 $672 $19 $-1 $673 reversed single #
loop $-1 $-1 $674 $568 #
plane-surface $-1 -41.634223765081288 0 -11.214190967851444 -1 0 0 0 0 1 forward_v I I I I #
coedge $-1 $675 $676 $677 $678 reversed $569 $-1 #
coedge $-1 $571 $679 $680 $681 reversed $415 $-1 #
coedge $-1 $682 $583 $571 $631 forward $642 $-1 #
edge $-1 $585 -9.1170368912473592 $683 15.211827977578489 $630 $684 forward 7 unknown #
edge $-1 $573 17.096958329051567 $643 34.94434407007018 $575 $685 forward 7 unknown #
point $-1 43.117609528612441 -26.423825423210523 15.211827977578489 #
coedge $-1 $686 $575 $641 $687 forward $497 $-1 #
coedge $-1 $576 $686 $688 $689 forward $497 $-1 #
coedge $-1 $679 $578 $675 $690 forward $415 $-1 #
coedge $-1 $688 $691 $578 $638 reversed $672 $-1 #
edge $-1 $639 -15.211827977578489 $692 7.2165539581243978 $637 $693 forward 7 unknown #
vertex $-1 $689 $694 #
straight-curve $-1 0 -33.192776531549164 15.211827977578489 1 0 0 I I #
coedge $-1 $583 $695 $634 $687 reversed $642 $-1 #
loop $-1 $-1 $583 $696 #
vertex $-1 $687 $697 #
straight-curve $-1 60.964995269631032 -26.293958304259483 15.328760859249808 0 -0.74314481823134659 -0.66913061440640931 I I #
point $-1 60.964995269631054 -33.192776531549164 9.1170368912473592 #
point $-1 -41.634223765081288 33.192776531549164 -15.211827977578491 #
straight-curve $-1 0 33.192776531549164 -15.211827977578489 1 0 0 I I #
loop $-1 $-1 $600 $594 #
plane-surface $-1 0 33.192776531549164 0 0 -1 0 0 0 -1 forward_v I I I I #
edge $-1 $608 -33.192776531549164 $698 33.192776531549164 $606 $699 forward 7 unknown #
straight-curve $-1 -41.634223765081288 -33.192776531549164 -5.6070954839257219 0 0 -1 I I #
coedge $-1 $615 $600 $619 $668 reversed $648 $-1 #
coedge $-1 $600 $700 $602 $656 forward $648 $-1 #
vertex $-1 $623 $701 #
straight-curve $-1 -25.64980475867808 33.192776531549164 -7.2165539581243978 -1 0 0 I I #
edge $-1 $698 -9.6047324936527687 $604 -1.6094584741986759 $653 $702 forward 7 unknown #
point $-1 -41.634223765081288 -33.192776531549164 -7.2165539581243978 #
point $-1 -41.634223765081288 33.192776531549164 -7.2165539581243978 #
coedge $-1 $607 $606 $700 $703 forward $595 $-1 #
point $-1 -41.634223765081288 -33.192776531549164 -15.211827977578491 #
coedge $-1 $700 $615 $610 $662 forward $648 $-1 #
edge $-1 $617 -15.211827977578489 $663 15.211827977578489 $610 $704 forward 7 unknown #
vertex $-1 $611 $705 #
straight-curve $-1 60.964995269631032 0 -15.211827977578489 0 -1 0 I I #
plane-surface $-1 60.964995269631032 0 0 -1 0 0 0 0 1 forward_v I I I I #
straight-curve $-1 0 33.192776531549164 15.211827977578489 -1 0 0 I I #
point $-1 60.964995269631032 33.192776531549164 15.211827977578489 #
edge $-1 $620 -15.211827977578489 $654 7.2165539581243978 $652 $706 forward 7 unknown #
point $-1 -60.964995269631032 33.192776531549164 15.211827977578489 #
straight-curve $-1 -60.964995269631032 0 -7.2165539581243978 0 -1 0 I I #
face $-1 $707 $708 $19 $-1 $709 reversed single #
loop $-1 $-1 $691 $625 #
plane-surface $-1 -60.964995269631032 0 0 1 0 0 0 0 -1 forward_v I I I I #
coedge $-1 $677 $710 $679 $711 reversed $626 $-1 #
coedge $-1 $712 $628 $636 $690 reversed $569 $-1 #
coedge $-1 $628 $712 $713 $714 reversed $569 $-1 #
coedge $-1 $715 $674 $628 $678 forward $626 $-1 #
edge $-1 $716 -33.192776531549164 $717 33.192776531549164 $677 $718 forward 7 unknown #
coedge $-1 $629 $636 $674 $711 forward $415 $-1 #
coedge $-1 $719 $720 $629 $681 forward $708 $-1 #
edge $-1 $683 -60.964995269631032 $721 41.634223765081288 $629 $722 forward 7 unknown #
coedge $-1 $695 $630 $720 $723 reversed $642 $-1 #
vertex $-1 $631 $724 #
straight-curve $-1 60.964995269631032 -33.192776531549164 0 0 0 -1 I I #
straight-curve $-1 26.020651199560874 -26.423825423210527 15.211827977578489 1 0 0 I I #
coedge $-1 $635 $634 $725 $726 forward $497 $-1 #
edge $-1 $643 -26.423825423210523 $727 33.192776531549164 $641 $728 forward 7 unknown #
coedge $-1 $729 $637 $635 $689 reversed $672 $-1 #
edge $-1 $730 -33.192776531549164 $639 33.192776531549164 $688 $731 forward 7 unknown #
edge $-1 $692 -35.315190510952952 $716 -15.984419006403208 $636 $732 forward 7 unknown #
coedge $-1 $637 $729 $712 $733 forward $672 $-1 #
vertex $-1 $690 $734 #
straight-curve $-1 -60.964995269631032 -33.192776531549164 0 0 0 -1 I I #
point $-1 -60.964995269631032 -33.192776531549164 15.211827977578489 #
coedge $-1 $641 $682 $735 $736 reversed $642 $-1 #
face $-1 $-1 $642 $19 $-1 $737 reversed single #
point $-1 60.964995269631054 -26.423825423210523 15.211827977578489 #
vertex $-1 $703 $738 #
straight-curve $-1 -41.634223765081288 0 -15.211827977578489 0 1 0 I I #
coedge $-1 $653 $661 $659 $703 reversed $648 $-1 #
point $-1 -60.964995269631032 33.192776531549164 -7.2165539581243978 #
straight-curve $-1 -41.634223765081288 33.192776531549164 -5.6070954839257219 0 0 1 I I #
edge $-1 $698 -41.634223765081288 $663 60.964995269631032 $700 $739 forward 7 unknown #
straight-curve $-1 60.964995269631032 33.192776531549164 0 0 0 -1 I I #
point $-1 60.964995269631032 33.192776531549164 -15.211827977578489 #
straight-curve $-1 -60.964995269631032 33.192776531549164 0 0 0 -1 I I #
face $-1 $696 $740 $19 $-1 $741 reversed single #
loop $-1 $-1 $719 $671 #
plane-surface $-1 0 0 -15.211827977578489 0 0 1 1 0 0 forward_v I I I I #
coedge $-1 $674 $715 $719 $742 reversed $626 $-1 #
edge $-1 $716 1.6094584741986759 $721 9.6047324936527687 $679 $743 forward 7 unknown #
coedge $-1 $676 $675 $691 $733 reversed $569 $-1 #
coedge $-1 $744 $745 $676 $714 forward $740 $-1 #
edge $-1 $717 15.984419006403208 $746 35.315190510952952 $713 $747 forward 7 unknown #
coedge $-1 $710 $677 $745 $748 reversed $626 $-1 #
vertex $-1 $690 $749 #
vertex $-1 $714 $750 #
straight-curve $-1 -41.634223765081288 0 -7.2165539581243978 0 1 0 I I #
coedge $-1 $751 $680 $710 $742 forward $708 $-1 #
coedge $-1 $680 $751 $682 $723 forward $708 $-1 #
vertex $-1 $711 $752 #
straight-curve $-1 0 -33.192776531549164 -15.211827977578489 -1 0 0 I I #
edge $-1 $753 -33.192776531549164 $683 33.192776531549164 $682 $754 forward 7 unknown #
point $-1 60.964995269631032 -33.192776531549164 -15.211827977578489 #
coedge $-1 $735 $744 $686 $726 reversed $740 $-1 #
edge $-1 $727 -60.964995269631032 $730 60.964995269631032 $725 $755 forward 7 unknown #
vertex $-1 $687 $756 #
straight-curve $-1 60.964995269631032 0 15.211827977578489 0 1 0 I I #
coedge $-1 $691 $688 $744 $757 forward $672 $-1 #
vertex $-1 $726 $758 #
straight-curve $-1 -60.964995269631032 0 15.211827977578489 0 -1 0 I I #
straight-curve $-1 -25.64980475867808 -33.192776531549164 -7.2165539581243978 1 0 0 I I #
edge $-1 $746 -33.192776531549164 $692 33.192776531549164 $691 $759 forward 7 unknown #
point $-1 -60.964995269631032 -33.192776531549164 -7.2165539581243978 #
coedge $-1 $760 $725 $695 $736 forward $740 $-1 #
edge $-1 $727 -15.211827977578489 $753 15.211827977578489 $695 $761 forward 7 unknown #
plane-surface $-1 60.964995269631032 0 0 -1 0 0 0 0 1 forward_v I I I I #
point $-1 -41.634223765081288 33.192776531549164 -15.211827977578491 #
straight-curve $-1 0 33.192776531549164 -15.211827977578489 1 0 0 I I #
loop $-1 $-1 $713 $707 #
plane-surface $-1 0 33.192776531549164 0 0 -1 0 0 0 -1 forward_v I I I I #
edge $-1 $721 -33.192776531549164 $762 33.192776531549164 $719 $763 forward 7 unknown #
straight-curve $-1 -41.634223765081288 -33.192776531549164 -5.6070954839257219 0 0 -1 I I #
coedge $-1 $725 $713 $729 $757 reversed $740 $-1 #
coedge $-1 $713 $760 $715 $748 forward $740 $-1 #
vertex $-1 $733 $764 #
straight-curve $-1 -25.64980475867808 33.192776531549164 -7.2165539581243978 -1 0 0 I I #
edge $-1 $762 -9.6047324936527687 $717 -1.6094584741986759 $745 $765 forward 7 unknown #
point $-1 -41.634223765081288 -33.192776531549164 -7.2165539581243978 #
point $-1 -41.634223765081288 33.192776531549164 -7.2165539581243978 #
coedge $-1 $720 $719 $760 $766 forward $708 $-1 #
point $-1 -41.634223765081288 -33.192776531549164 -15.211827977578491 #
vertex $-1 $723 $767 #
straight-curve $-1 60.964995269631032 0 -15.211827977578489 0 -1 0 I I #
straight-curve $-1 0 33.192776531549164 15.211827977578489 -1 0 0 I I #
point $-1 60.964995269631032 33.192776531549164 15.211827977578489 #
edge $-1 $730 -15.211827977578489 $746 7.2165539581243978 $744 $768 forward 7 unknown #
point $-1 -60.964995269631032 33.192776531549164 15.211827977578489 #
straight-curve $-1 -60.964995269631032 0 -7.2165539581243978 0 -1 0 I I #
coedge $-1 $745 $735 $751 $766 reversed $740 $-1 #
straight-curve $-1 60.964995269631032 33.192776531549164 0 0 0 -1 I I #
vertex $-1 $766 $769 #
straight-curve $-1 -41.634223765081288 0 -15.211827977578489 0 1 0 I I #
point $-1 -60.964995269631032 33.192776531549164 -7.2165539581243978 #
straight-curve $-1 -41.634223765081288 33.192776531549164 -5.6070954839257219 0 0 1 I I #
edge $-1 $762 -41.634223765081288 $753 60.964995269631032 $760 $770 forward 7 unknown #
point $-1 60.964995269631032 33.192776531549164 -15.211827977578489 #
straight-curve $-1 -60.964995269631032 33.192776531549164 0 0 0 -1 I I #
point $-1 -41.634223765081288 33.192776531549164 -15.211827977578491 #
straight-curve $-1 0 33.192776531549164 -15.211827977578489 1 0 0 I I #
End-of-ACIS-data 