500 0 11 0           
7 Unknown 11 ACIS 5.0 NT 24 Fri Mar 26 16:35:45 1999 
-1 9.9999999999999995e-007 1e-010 
body $-1 $11 $-1 $12 #
body $-1 $13 $-1 $14 #
body $-1 $15 $-1 $16 #
body $-1 $17 $-1 $18 #
body $-1 $19 $-1 $20 #
body $-1 $21 $-1 $22 #
body $-1 $23 $-1 $24 #
body $-1 $25 $-1 $26 #
body $-1 $27 $-1 $28 #
body $-1 $29 $-1 $30 #
body $-1 $31 $-1 $32 #
lump $-1 $-1 $33 $0 #
transform $-1 1 0 0 0 1 0 0 0 1 48.829615161595505 24.662330975626116 7.8206391329214853 1 rotate no_reflect no_shear #
lump $-1 $-1 $34 $1 #
transform $-1 1 0 0 0 1 0 0 0 1 48.829615161595505 24.662330975626116 7.8206391329214853 1 rotate no_reflect no_shear #
lump $-1 $-1 $35 $2 #
transform $-1 1 0 0 0 1 0 0 0 1 48.829615161595505 24.662330975626116 7.8206391329214853 1 rotate no_reflect no_shear #
lump $-1 $-1 $36 $3 #
transform $-1 1 0 0 0 1 0 0 0 1 48.829615161595505 24.662330975626116 7.8206391329214853 1 rotate no_reflect no_shear #
lump $-1 $-1 $37 $4 #
transform $-1 1 0 0 0 1 0 0 0 1 48.829615161595505 24.662330975626116 7.8206391329214853 1 rotate no_reflect no_shear #
lump $-1 $-1 $38 $5 #
transform $-1 1 0 0 0 1 0 0 0 1 48.829615161595505 24.662330975626116 7.8206391329214853 1 rotate no_reflect no_shear #
lump $-1 $-1 $39 $6 #
transform $-1 1 0 0 0 1 0 0 0 1 48.829615161595505 24.662330975626116 7.8206391329214853 1 rotate no_reflect no_shear #
lump $-1 $-1 $40 $7 #
transform $-1 1 0 0 0 1 0 0 0 1 48.829615161595505 24.662330975626116 7.8206391329214853 1 rotate no_reflect no_shear #
lump $-1 $-1 $41 $8 #
transform $-1 1 0 0 0 1 0 0 0 1 48.829615161595505 24.662330975626116 7.8206391329214853 1 rotate no_reflect no_shear #
lump $-1 $-1 $42 $9 #
transform $-1 1 0 0 0 1 0 0 0 1 48.829615161595505 24.662330975626116 7.8206391329214853 1 rotate no_reflect no_shear #
lump $-1 $-1 $43 $10 #
transform $-1 1 0 0 0 1 0 0 0 1 48.829615161595505 24.662330975626116 7.8206391329214853 1 rotate no_reflect no_shear #
shell $-1 $-1 $-1 $44 $-1 $11 #
shell $-1 $-1 $-1 $45 $-1 $13 #
shell $-1 $-1 $-1 $46 $-1 $15 #
shell $-1 $-1 $-1 $47 $-1 $17 #
shell $-1 $-1 $-1 $48 $-1 $19 #
shell $-1 $-1 $-1 $49 $-1 $21 #
shell $-1 $-1 $-1 $50 $-1 $23 #
shell $-1 $-1 $-1 $51 $-1 $25 #
shell $-1 $-1 $-1 $52 $-1 $27 #
shell $-1 $-1 $-1 $53 $-1 $29 #
shell $-1 $-1 $-1 $54 $-1 $31 #
face $-1 $55 $56 $33 $-1 $57 forward single #
face $-1 $58 $59 $34 $-1 $60 forward single #
face $-1 $61 $62 $35 $-1 $63 reversed single #
face $-1 $64 $65 $36 $-1 $66 forward single #
face $-1 $67 $68 $37 $-1 $69 forward single #
face $-1 $70 $71 $38 $-1 $72 reversed single #
face $-1 $73 $74 $39 $-1 $75 forward single #
face $-1 $76 $77 $40 $-1 $78 forward single #
face $-1 $79 $80 $41 $-1 $81 reversed single #
face $-1 $82 $83 $42 $-1 $84 forward single #
face $-1 $85 $86 $43 $-1 $87 forward single #
face $-1 $88 $89 $33 $-1 $90 reversed single #
loop $-1 $-1 $91 $44 #
plane-surface $-1 0 0 7.8206391329214853 0 0 1 1 0 0 forward_v I I I I #
face $-1 $92 $93 $34 $-1 $94 reversed single #
loop $-1 $-1 $95 $45 #
plane-surface $-1 0 -21.839246604593352 4.2301253730782165 0 0 1 1 0 0 forward_v I I I I #
face $-1 $96 $97 $35 $-1 $98 reversed single #
loop $-1 $-1 $99 $46 #
plane-surface $-1 -132.53991477151936 -1.2099220219138793 54.194660036665638 0 1 0 -0.85716730853699208 0 0.51503806187062418 forward_v I I I I #
face $-1 $100 $101 $36 $-1 $102 forward single #
loop $-1 $103 $104 $47 #
cone-surface $-1 -47.222082985733955 0.66769924318984053 5.6010201991416526 0.85716730853699208 0 -0.51503806187062418 0.12875951546765604 0 0.21429182713424802 1 I I 0 1 0.25 forward I I I I #
face $-1 $105 $106 $37 $-1 $107 forward single #
loop $-1 $108 $109 $48 #
cone-surface $-1 -47.222082985733955 3.4841311408454203 5.6010201991416526 0.85716730853699208 0 -0.51503806187062418 0.12875951546765604 0 0.21429182713424802 1 I I 0 1 0.25 forward I I I I #
face $-1 $110 $111 $38 $-1 $112 reversed single #
loop $-1 $-1 $113 $49 #
plane-surface $-1 56.057788540610694 -9.1059272628579091 138.86476259000887 0 -1 0 -0.74314483375859142 0 -0.66913059716165679 forward_v I I I I #
face $-1 $114 $115 $39 $-1 $116 forward single #
loop $-1 $117 $118 $50 #
cone-surface $-1 44.989011993334806 -16.184666527645536 3.7116732164336099 -0.74314483375859142 0 -0.66913059716165679 0.66913059716165679 0 -0.74314483375859142 1 I I 0 1 1 forward I I I I #
face $-1 $119 $120 $40 $-1 $121 forward single #
loop $-1 $122 $123 $51 #
cone-surface $-1 44.989011993334806 -11.93742296877296 3.7116732164336099 -0.74314483375859142 0 -0.66913059716165679 0.66913059716165679 0 -0.74314483375859142 1 I I 0 1 1 forward I I I I #
face $-1 $124 $125 $41 $-1 $126 reversed single #
loop $-1 $-1 $127 $52 #
plane-surface $-1 56.057788540610694 12.733319341735443 138.86476259000887 0 -1 0 -0.74314483375859142 0 -0.66913059716165679 forward_v I I I I #
face $-1 $128 $129 $42 $-1 $130 forward single #
loop $-1 $131 $132 $53 #
cone-surface $-1 44.989011993334806 5.6545800769478163 3.7116732164336099 -0.74314483375859142 0 -0.66913059716165679 0.66913059716165679 0 -0.74314483375859142 1 I I 0 1 1 forward I I I I #
face $-1 $133 $134 $43 $-1 $135 forward single #
loop $-1 $136 $137 $54 #
cone-surface $-1 44.989011993334806 9.9018236358203957 3.7116732164336099 -0.74314483375859142 0 -0.66913059716165679 0.66913059716165679 0 -0.74314483375859142 1 I I 0 1 1 forward I I I I #
face $-1 $138 $139 $33 $-1 $140 reversed single #
loop $-1 $-1 $141 $55 #
plane-surface $-1 0 0 -7.8206391329214853 0 0 1 1 0 0 forward_v I I I I #
coedge $-1 $142 $143 $144 $145 forward $56 $-1 #
face $-1 $146 $147 $34 $-1 $148 reversed single #
loop $-1 $-1 $149 $58 #
plane-surface $-1 0 -21.839246604593352 0.22817876223963651 0 0 1 1 0 0 forward_v I I I I #
coedge $-1 $150 $151 $152 $153 reversed $59 $-1 #
face $-1 $154 $155 $35 $-1 $156 reversed single #
loop $-1 $-1 $157 $61 #
plane-surface $-1 -48.829615161595527 2.0759151920176322 3.89643932723245 -0.85716730853699208 0 0.51503806187062418 0.51503806187062418 0 0.85716730853699208 forward_v I I I I #
coedge $-1 $158 $159 $160 $161 reversed $62 $-1 #
face $-1 $-1 $162 $36 $-1 $163 forward single #
loop $-1 $164 $165 $64 #
cone-surface $-1 -46.686353417898339 0.66769924318984053 5.2791214104725128 0.85716730853699208 0 -0.51503806187062418 0.064379757733828022 0 0.10714591356712401 1 I I -0.70710678118654746 0.70710678118654746 0.125 forward I I I I #
loop $-1 $-1 $166 $47 #
coedge $-1 $104 $104 $167 $168 reversed $65 $-1 #
face $-1 $-1 $169 $37 $-1 $170 forward single #
loop $-1 $171 $172 $67 #
cone-surface $-1 -46.686353417898339 3.4841311408454203 5.2791214104725128 0.85716730853699208 0 -0.51503806187062418 0.064379757733828022 0 0.10714591356712401 1 I I -0.70710678118654746 0.70710678118654746 0.125 forward I I I I #
loop $-1 $-1 $173 $48 #
coedge $-1 $109 $109 $174 $175 reversed $68 $-1 #
face $-1 $176 $177 $38 $-1 $178 reversed single #
loop $-1 $-1 $179 $70 #
plane-surface $-1 -16.517163942909086 -14.061044748209248 73.517983485504288 0.74314483375859142 0 0.66913059716165679 0.66913059716165679 0 -0.74314483375859142 forward_v I I I I #
coedge $-1 $180 $181 $182 $183 reversed $71 $-1 #
face $-1 $-1 $184 $39 $-1 $185 forward single #
loop $-1 $186 $187 $73 #
cone-surface $-1 43.873149419228035 -16.184666527645536 2.7069460668333818 -0.74314483375859142 0 -0.66913059716165679 0.3345652985808284 0 -0.37157241687929571 1 I I -0.70710678118654746 0.70710678118654746 0.5 forward I I I I #
loop $-1 $-1 $188 $50 #
coedge $-1 $118 $118 $189 $190 reversed $74 $-1 #
face $-1 $-1 $191 $40 $-1 $192 forward single #
loop $-1 $193 $194 $76 #
cone-surface $-1 43.873149419228035 -11.93742296877296 2.7069460668333818 -0.74314483375859142 0 -0.66913059716165679 0.3345652985808284 0 -0.37157241687929571 1 I I -0.70710678118654746 0.70710678118654746 0.5 forward I I I I #
loop $-1 $-1 $195 $51 #
coedge $-1 $123 $123 $196 $197 reversed $77 $-1 #
face $-1 $198 $199 $41 $-1 $200 reversed single #
loop $-1 $-1 $201 $79 #
plane-surface $-1 -16.517163942909086 7.7782018563841042 73.517983485504288 0.74314483375859142 0 0.66913059716165679 0.66913059716165679 0 -0.74314483375859142 forward_v I I I I #
coedge $-1 $202 $203 $204 $205 reversed $80 $-1 #
face $-1 $-1 $206 $42 $-1 $207 forward single #
loop $-1 $208 $209 $82 #
cone-surface $-1 43.873149419228035 5.6545800769478163 2.7069460668333818 -0.74314483375859142 0 -0.66913059716165679 0.3345652985808284 0 -0.37157241687929571 1 I I -0.70710678118654746 0.70710678118654746 0.5 forward I I I I #
loop $-1 $-1 $210 $53 #
coedge $-1 $132 $132 $211 $212 reversed $83 $-1 #
face $-1 $-1 $213 $43 $-1 $214 forward single #
loop $-1 $215 $216 $85 #
cone-surface $-1 43.873149419228035 9.9018236358203957 2.7069460668333818 -0.74314483375859142 0 -0.66913059716165679 0.3345652985808284 0 -0.37157241687929571 1 I I -0.70710678118654746 0.70710678118654746 0.5 forward I I I I #
loop $-1 $-1 $217 $54 #
coedge $-1 $137 $137 $218 $219 reversed $86 $-1 #
face $-1 $220 $221 $33 $-1 $222 reversed single #
loop $-1 $-1 $223 $88 #
plane-surface $-1 0 -24.662330975626116 0 0 1 0 0 0 1 forward_v I I I I #
coedge $-1 $224 $225 $226 $227 forward $89 $-1 #
coedge $-1 $228 $91 $229 $230 forward $56 $-1 #
coedge $-1 $91 $228 $231 $232 forward $56 $-1 #
coedge $-1 $233 $234 $91 $145 reversed $235 $-1 #
edge $-1 $236 -24.662330975626116 $237 24.662330975626116 $144 $238 forward 7 unknown #
face $-1 $239 $240 $34 $-1 $241 reversed single #
loop $-1 $-1 $242 $92 #
plane-surface $-1 0 -19.016162233560589 2.2291520676589265 0 -1 0 0 0 -1 forward_v I I I I #
coedge $-1 $243 $244 $245 $246 reversed $93 $-1 #
coedge $-1 $247 $95 $248 $249 forward $59 $-1 #
coedge $-1 $95 $247 $250 $251 reversed $59 $-1 #
coedge $-1 $252 $253 $95 $153 forward $254 $-1 #
edge $-1 $255 8.0965389312639129 $256 13.74270767332944 $152 $257 forward 7 unknown #
face $-1 $258 $259 $35 $-1 $260 reversed single #
loop $-1 $-1 $261 $96 #
plane-surface $-1 -132.53991477151936 5.3617524059491437 54.194660036665638 0 -1 0 0.85716730853699208 0 -0.51503806187062418 forward_v I I I I #
coedge $-1 $262 $263 $264 $265 reversed $97 $-1 #
coedge $-1 $159 $99 $266 $267 reversed $62 $-1 #
coedge $-1 $99 $158 $262 $268 reversed $62 $-1 #
coedge $-1 $264 $269 $99 $161 forward $270 $-1 #
edge $-1 $271 17.440342224164176 $272 19.798239267350255 $160 $273 forward 7 unknown #
loop $-1 $-1 $167 $100 #
plane-surface $-1 -48.829615161595527 2.0759151920176322 3.89643932723245 -0.85716730853699208 0 0.51503806187062418 0.51503806187062418 0 0.85716730853699208 forward_v I I I I #
loop $-1 $-1 $274 $64 #
coedge $-1 $165 $165 $166 $275 reversed $101 $-1 #
coedge $-1 $166 $166 $165 $275 forward $103 $-1 #
coedge $-1 $167 $167 $104 $168 forward $162 $-1 #
edge $-1 $276 0 $276 6.2831853071796004 $167 $277 forward 7 unknown #
loop $-1 $-1 $174 $105 #
plane-surface $-1 -48.829615161595527 2.0759151920176322 3.89643932723245 -0.85716730853699208 0 0.51503806187062418 0.51503806187062418 0 0.85716730853699208 forward_v I I I I #
loop $-1 $-1 $278 $67 #
coedge $-1 $172 $172 $173 $279 reversed $106 $-1 #
coedge $-1 $173 $173 $172 $279 forward $108 $-1 #
coedge $-1 $174 $174 $109 $175 forward $169 $-1 #
edge $-1 $280 0 $280 6.2831853071796004 $174 $281 forward 7 unknown #
face $-1 $282 $283 $38 $-1 $284 forward single #
loop $-1 $-1 $285 $110 #
plane-surface $-1 48.829615161595505 0 0 -1 0 0 0 0 1 forward_v I I I I #
coedge $-1 $286 $287 $288 $289 reversed $111 $-1 #
coedge $-1 $181 $113 $290 $291 reversed $71 $-1 #
coedge $-1 $113 $180 $286 $292 reversed $71 $-1 #
coedge $-1 $288 $293 $113 $183 forward $294 $-1 #
edge $-1 $295 -20.800720891290158 $296 -14.608094869223667 $182 $297 forward 7 unknown #
loop $-1 $-1 $189 $114 #
plane-surface $-1 -16.517163942909086 -14.061044748209248 73.517983485504288 0.74314483375859142 0 0.66913059716165679 0.66913059716165679 0 -0.74314483375859142 forward_v I I I I #
loop $-1 $-1 $298 $73 #
coedge $-1 $187 $187 $188 $299 reversed $115 $-1 #
coedge $-1 $188 $188 $187 $299 forward $117 $-1 #
coedge $-1 $189 $189 $118 $190 forward $184 $-1 #
edge $-1 $300 0 $300 6.2831853071796004 $189 $301 forward 7 unknown #
loop $-1 $-1 $196 $119 #
plane-surface $-1 -16.517163942909086 -14.061044748209248 73.517983485504288 0.74314483375859142 0 0.66913059716165679 0.66913059716165679 0 -0.74314483375859142 forward_v I I I I #
loop $-1 $-1 $302 $76 #
coedge $-1 $194 $194 $195 $303 reversed $120 $-1 #
coedge $-1 $195 $195 $194 $303 forward $122 $-1 #
coedge $-1 $196 $196 $123 $197 forward $191 $-1 #
edge $-1 $304 0 $304 6.2831853071796004 $196 $305 forward 7 unknown #
face $-1 $306 $307 $41 $-1 $308 forward single #
loop $-1 $-1 $309 $124 #
plane-surface $-1 56.057788540610694 2.8230843710327651 138.86476259000887 0 1 0 0.74314483375859142 0 0.66913059716165679 forward_v I I I I #
coedge $-1 $310 $311 $312 $313 reversed $125 $-1 #
coedge $-1 $203 $127 $314 $315 reversed $80 $-1 #
coedge $-1 $127 $202 $310 $316 reversed $80 $-1 #
coedge $-1 $312 $317 $127 $205 forward $307 $-1 #
edge $-1 $318 -20.800720891290158 $319 -14.608094869223667 $204 $320 forward 7 unknown #
loop $-1 $-1 $211 $128 #
plane-surface $-1 -16.517163942909086 7.7782018563841042 73.517983485504288 0.74314483375859142 0 0.66913059716165679 0.66913059716165679 0 -0.74314483375859142 forward_v I I I I #
loop $-1 $-1 $321 $82 #
coedge $-1 $209 $209 $210 $322 reversed $129 $-1 #
coedge $-1 $210 $210 $209 $322 forward $131 $-1 #
coedge $-1 $211 $211 $132 $212 forward $206 $-1 #
edge $-1 $323 0 $323 6.2831853071796004 $211 $324 forward 7 unknown #
loop $-1 $-1 $218 $133 #
plane-surface $-1 -16.517163942909086 7.7782018563841042 73.517983485504288 0.74314483375859142 0 0.66913059716165679 0.66913059716165679 0 -0.74314483375859142 forward_v I I I I #
loop $-1 $-1 $325 $85 #
coedge $-1 $216 $216 $217 $326 reversed $134 $-1 #
coedge $-1 $217 $217 $216 $326 forward $136 $-1 #
coedge $-1 $218 $218 $137 $219 forward $213 $-1 #
edge $-1 $327 0 $327 6.2831853071796004 $218 $328 forward 7 unknown #
face $-1 $329 $330 $33 $-1 $331 reversed single #
loop $-1 $-1 $332 $138 #
plane-surface $-1 -48.829615161595505 0 0 1 0 0 0 0 -1 forward_v I I I I #
coedge $-1 $333 $231 $334 $335 forward $139 $-1 #
coedge $-1 $336 $141 $333 $337 forward $89 $-1 #
coedge $-1 $141 $336 $338 $339 forward $89 $-1 #
coedge $-1 $234 $233 $141 $227 reversed $235 $-1 #
edge $-1 $340 -24.662330975626116 $341 24.662330975626116 $226 $342 forward 7 unknown #
coedge $-1 $143 $142 $343 $344 forward $56 $-1 #
coedge $-1 $345 $346 $142 $230 reversed $330 $-1 #
edge $-1 $237 -48.829615161595505 $347 48.829615161595505 $229 $348 forward 7 unknown #
coedge $-1 $223 $349 $143 $232 reversed $139 $-1 #
edge $-1 $350 -48.829615161595505 $236 48.829615161595505 $231 $351 forward 7 unknown #
coedge $-1 $226 $144 $349 $352 forward $235 $-1 #
coedge $-1 $144 $226 $345 $353 reversed $235 $-1 #
loop $-1 $-1 $233 $329 #
vertex $-1 $145 $354 #
vertex $-1 $145 $355 #
straight-curve $-1 48.829615161595505 0 7.8206391329214853 0 1 0 I I #
face $-1 $356 $357 $34 $-1 $358 reversed single #
loop $-1 $-1 $359 $146 #
plane-surface $-1 -48.829615161595505 0 0 1 0 0 0 0 -1 forward_v I I I I #
coedge $-1 $360 $248 $253 $361 reversed $147 $-1 #
coedge $-1 $362 $149 $363 $364 reversed $93 $-1 #
coedge $-1 $149 $362 $360 $365 forward $93 $-1 #
coedge $-1 $253 $252 $149 $246 forward $254 $-1 #
edge $-1 $366 -13.74270767332944 $367 -8.0965389312639129 $245 $368 forward 7 unknown #
coedge $-1 $151 $150 $359 $369 reversed $59 $-1 #
coedge $-1 $242 $370 $150 $249 reversed $147 $-1 #
edge $-1 $255 -48.829615161595505 $371 48.829615161595505 $248 $372 forward 7 unknown #
coedge $-1 $373 $374 $151 $251 forward $357 $-1 #
edge $-1 $256 -48.829615161595505 $375 48.829615161595505 $250 $376 forward 7 unknown #
coedge $-1 $245 $152 $374 $377 forward $254 $-1 #
coedge $-1 $152 $245 $242 $361 forward $254 $-1 #
loop $-1 $-1 $152 $356 #
vertex $-1 $153 $378 #
vertex $-1 $377 $379 #
straight-curve $-1 48.829615161595505 -10.919623302296676 4.2301253730782165 0 -1 0 I I #
face $-1 $-1 $270 $35 $-1 $380 forward single #
loop $-1 $-1 $381 $154 #
plane-surface $-1 -48.829615161595505 0 0 1 0 0 0 0 -1 forward_v I I I I #
coedge $-1 $382 $383 $384 $385 reversed $155 $-1 #
coedge $-1 $386 $157 $159 $268 forward $97 $-1 #
coedge $-1 $157 $386 $382 $387 forward $97 $-1 #
coedge $-1 $384 $160 $157 $265 forward $270 $-1 #
edge $-1 $272 -2.2478796179226954 $388 4.3237948099403276 $264 $389 forward 7 unknown #
coedge $-1 $390 $391 $158 $267 forward $259 $-1 #
edge $-1 $392 -23.200890691100334 $271 -19.276690885411334 $266 $393 forward 7 unknown #
edge $-1 $272 -4.5781025088169036 $392 -4.1431396825663817e-014 $159 $394 forward 7 unknown #
coedge $-1 $160 $384 $390 $395 forward $270 $-1 #
loop $-1 $-1 $384 $258 #
vertex $-1 $267 $396 #
vertex $-1 $161 $397 #
straight-curve $-1 -66.269957385759682 -1.2099220219138793 7.8206391329214853 1 0 0 I I #
coedge $-1 $274 $274 $-1 $398 reversed $164 $-1 #
edge $-1 $399 0 $399 6.2831853071796004 $165 $400 forward 7 unknown #
vertex $-1 $168 $401 #
ellipse-curve $-1 -47.65066664000247 0.66769924318984053 5.8585392300769765 -0.85716730853699208 0 0.51503806187062418 0.12875951546765604 0 0.21429182713424802 1 I I #
coedge $-1 $278 $278 $-1 $402 reversed $171 $-1 #
edge $-1 $403 0 $403 6.2831853071796004 $172 $404 forward 7 unknown #
vertex $-1 $175 $405 #
ellipse-curve $-1 -47.65066664000247 3.4841311408454203 5.8585392300769765 -0.85716730853699208 0 0.51503806187062418 0.12875951546765604 0 0.21429182713424802 1 I I #
face $-1 $-1 $294 $38 $-1 $406 forward single #
loop $-1 $-1 $407 $176 #
plane-surface $-1 0 -19.016162233560589 2.2291520676589265 0 -1 0 0 0 -1 forward_v I I I I #
coedge $-1 $408 $409 $410 $411 forward $177 $-1 #
coedge $-1 $412 $179 $181 $292 forward $111 $-1 #
coedge $-1 $179 $412 $407 $413 reversed $111 $-1 #
coedge $-1 $414 $182 $179 $289 forward $294 $-1 #
edge $-1 $296 2.075404888753285 $415 11.985639859455961 $288 $416 forward 7 unknown #
coedge $-1 $409 $408 $180 $291 forward $177 $-1 #
edge $-1 $417 -68.489350293019925 $295 -61.611742162082948 $290 $418 forward 7 unknown #
edge $-1 $296 88.404495823924947 $417 97.659230323191011 $181 $419 forward 7 unknown #
coedge $-1 $182 $414 $409 $420 forward $294 $-1 #
loop $-1 $-1 $414 $282 #
vertex $-1 $291 $421 #
vertex $-1 $183 $422 #
straight-curve $-1 28.028894270305347 -9.1059272628579091 7.8206391329214853 -1 0 0 I I #
coedge $-1 $298 $298 $-1 $423 reversed $186 $-1 #
edge $-1 $424 0 $424 6.2831853071796004 $187 $425 forward 7 unknown #
vertex $-1 $190 $426 #
ellipse-curve $-1 45.73330215056226 -16.184666527645536 4.3818350674529905 0.74314483375859142 0 0.66913059716165679 0.66913059716165679 0 -0.74314483375859142 1 I I #
coedge $-1 $302 $302 $-1 $427 reversed $193 $-1 #
edge $-1 $428 0 $428 6.2831853071796004 $194 $429 forward 7 unknown #
vertex $-1 $197 $430 #
ellipse-curve $-1 45.73330215056226 -11.93742296877296 4.3818350674529905 0.74314483375859142 0 0.66913059716165679 0.66913059716165679 0 -0.74314483375859142 1 I I #
face $-1 $-1 $431 $41 $-1 $432 reversed single #
loop $-1 $-1 $204 $198 #
plane-surface $-1 0 0 7.8206391329214853 0 0 1 1 0 0 forward_v I I I I #
coedge $-1 $433 $434 $435 $436 reversed $199 $-1 #
coedge $-1 $437 $201 $203 $316 forward $125 $-1 #
coedge $-1 $201 $437 $433 $438 forward $125 $-1 #
coedge $-1 $435 $204 $201 $313 forward $307 $-1 #
edge $-1 $319 -8.8442184135433912 $439 1.066016557159287 $312 $440 forward 7 unknown #
coedge $-1 $441 $442 $202 $315 forward $431 $-1 #
edge $-1 $443 -68.489350293019925 $318 -61.611742162082948 $314 $444 forward 7 unknown #
edge $-1 $319 88.404495823924947 $443 97.659230323191011 $203 $445 forward 7 unknown #
coedge $-1 $204 $435 $441 $446 forward $307 $-1 #
vertex $-1 $315 $447 #
vertex $-1 $205 $448 #
straight-curve $-1 28.028894270305347 12.733319341735443 7.8206391329214853 -1 0 0 I I #
coedge $-1 $321 $321 $-1 $449 reversed $208 $-1 #
edge $-1 $450 0 $450 6.2831853071796004 $209 $451 forward 7 unknown #
vertex $-1 $212 $452 #
ellipse-curve $-1 45.73330215056226 5.6545800769478163 4.3818350674529905 0.74314483375859142 0 0.66913059716165679 0.66913059716165679 0 -0.74314483375859142 1 I I #
coedge $-1 $325 $325 $-1 $453 reversed $215 $-1 #
edge $-1 $454 0 $454 6.2831853071796004 $216 $455 forward 7 unknown #
vertex $-1 $219 $456 #
ellipse-curve $-1 45.73330215056226 9.9018236358203957 4.3818350674529905 0.74314483375859142 0 0.66913059716165679 0.66913059716165679 0 -0.74314483375859142 1 I I #
face $-1 $-1 $235 $33 $-1 $457 reversed single #
loop $-1 $-1 $345 $220 #
plane-surface $-1 0 24.662330975626116 0 0 -1 0 0 0 -1 forward_v I I I I #
coedge $-1 $458 $343 $346 $459 forward $221 $-1 #
coedge $-1 $349 $223 $224 $337 reversed $139 $-1 #
coedge $-1 $343 $458 $223 $335 reversed $221 $-1 #
edge $-1 $350 -7.8206391329214853 $460 7.8206391329214853 $334 $461 forward 7 unknown #
coedge $-1 $225 $224 $458 $462 forward $89 $-1 #
edge $-1 $341 -48.829615161595505 $460 48.829615161595505 $333 $463 forward 7 unknown #
coedge $-1 $346 $345 $225 $339 reversed $330 $-1 #
edge $-1 $464 -48.829615161595505 $340 48.829615161595505 $338 $465 forward 7 unknown #
vertex $-1 $227 $466 #
vertex $-1 $352 $467 #
straight-curve $-1 48.829615161595505 0 -7.8206391329214853 0 -1 0 I I #
coedge $-1 $332 $334 $228 $344 reversed $221 $-1 #
edge $-1 $347 -24.662330975626116 $350 24.662330975626116 $343 $468 forward 7 unknown #
coedge $-1 $338 $229 $234 $353 forward $330 $-1 #
coedge $-1 $229 $338 $332 $459 reversed $330 $-1 #
vertex $-1 $230 $469 #
straight-curve $-1 0 24.662330975626116 7.8206391329214853 -1 0 0 I I #
coedge $-1 $231 $333 $233 $352 reversed $139 $-1 #
vertex $-1 $344 $470 #
straight-curve $-1 0 -24.662330975626116 7.8206391329214853 1 0 0 I I #
edge $-1 $236 -7.8206391329214853 $341 7.8206391329214853 $233 $471 forward 7 unknown #
edge $-1 $237 -7.8206391329214853 $340 7.8206391329214853 $234 $472 forward 7 unknown #
point $-1 48.829615161595505 -24.662330975626116 7.8206391329214853 #
point $-1 48.829615161595505 24.662330975626116 7.8206391329214853 #
face $-1 $-1 $254 $34 $-1 $473 reversed single #
loop $-1 $-1 $250 $239 #
plane-surface $-1 0 -24.662330975626116 0 0 1 0 0 0 1 forward_v I I I I #
coedge $-1 $474 $475 $247 $369 forward $240 $-1 #
coedge $-1 $370 $242 $244 $365 reversed $147 $-1 #
edge $-1 $367 -0.88639727158982673 $255 3.1155493392487532 $253 $476 forward 7 unknown #
coedge $-1 $244 $243 $477 $478 reversed $93 $-1 #
coedge $-1 $374 $373 $243 $364 forward $357 $-1 #
edge $-1 $479 -48.829615161595505 $366 48.829615161595505 $363 $480 forward 7 unknown #
edge $-1 $481 -48.829615161595505 $367 48.829615161595505 $360 $482 forward 7 unknown #
vertex $-1 $364 $483 #
vertex $-1 $246 $484 #
straight-curve $-1 48.829615161595505 -10.919623302296676 0.22817876223963651 0 1 0 I I #
edge $-1 $375 -13.74270767332944 $371 -8.0965389312639129 $359 $485 forward 7 unknown #
coedge $-1 $248 $360 $474 $486 reversed $147 $-1 #
vertex $-1 $369 $487 #
straight-curve $-1 0 -19.016162233560589 4.2301253730782165 -1 0 0 I I #
coedge $-1 $363 $250 $475 $488 forward $357 $-1 #
coedge $-1 $250 $363 $252 $377 reversed $357 $-1 #
vertex $-1 $488 $489 #
straight-curve $-1 0 -24.662330975626116 4.2301253730782165 -1 0 0 I I #
edge $-1 $256 -4.2301253730782165 $366 -0.22817876223963651 $252 $490 forward 7 unknown #
point $-1 48.829615161595505 -19.016162233560589 4.2301253730782165 #
point $-1 48.829615161595505 -24.662330975626116 4.2301253730782165 #
plane-surface $-1 0 0 7.8206391329214853 0 0 1 1 0 0 forward_v I I I I #
coedge $-1 $391 $390 $383 $491 forward $259 $-1 #
coedge $-1 $383 $261 $263 $387 reversed $155 $-1 #
coedge $-1 $261 $382 $381 $491 reversed $155 $-1 #
coedge $-1 $269 $264 $261 $385 forward $270 $-1 #
edge $-1 $388 -19.798239267350255 $492 -17.440342224164176 $384 $493 forward 7 unknown #
coedge $-1 $263 $262 $391 $494 reversed $97 $-1 #
edge $-1 $495 4.1431396825663817e-014 $388 4.5781025088169036 $382 $496 forward 7 unknown #
vertex $-1 $265 $497 #
straight-curve $-1 -46.47171811840942 1.0379575960088161 7.8206391329214853 0 1 0 I I #
coedge $-1 $381 $266 $269 $395 reversed $259 $-1 #
coedge $-1 $266 $381 $386 $494 forward $259 $-1 #
vertex $-1 $267 $498 #
straight-curve $-1 -48.829615161595505 -1.2099220219138793 27.097330018332819 0 0 1 I I #
straight-curve $-1 -48.829615161595527 -1.2099220219138793 3.89643932723245 -0.51503806187062418 0 -0.85716730853699208 I I #
edge $-1 $492 -5.3617524059491437 $271 1.2099220219138793 $390 $499 forward 7 unknown #
point $-1 -48.829615161595505 -1.2099220219138793 7.8206391329214853 #
point $-1 -46.471718118409427 -1.2099220219138793 7.8206391329214853 #
edge $-1 $500 1 $500 0 $274 $-1 forward 7 unknown #
vertex $-1 $275 $501 #
ellipse-curve $-1 -46.793499331465462 0.66769924318984053 5.3435011682063411 -0.85716730853699208 0 0.51503806187062418 0.12875951546765604 0 0.21429182713424802 1 I I #
point $-1 -47.521907124534799 0.66769924318984053 6.0728310572112125 #
edge $-1 $502 1 $502 0 $278 $-1 forward 7 unknown #
vertex $-1 $279 $503 #
ellipse-curve $-1 -46.793499331465462 3.4841311408454203 5.3435011682063411 -0.85716730853699208 0 0.51503806187062418 0.12875951546765604 0 0.21429182713424802 1 I I #
point $-1 -47.521907124534799 3.4841311408454203 6.0728310572112125 #
plane-surface $-1 0 0 7.8206391329214853 0 0 1 1 0 0 forward_v I I I I #
coedge $-1 $410 $504 $287 $413 forward $283 $-1 #
coedge $-1 $290 $285 $412 $505 forward $177 $-1 #
coedge $-1 $285 $290 $293 $420 reversed $177 $-1 #
coedge $-1 $504 $407 $285 $411 reversed $283 $-1 #
edge $-1 $506 61.611742162082948 $507 68.489350293019925 $285 $508 forward 7 unknown #
coedge $-1 $287 $286 $408 $505 reversed $111 $-1 #
edge $-1 $415 56.389462551227609 $507 65.644197050493673 $407 $509 forward 7 unknown #
coedge $-1 $293 $288 $504 $510 forward $294 $-1 #
vertex $-1 $289 $511 #
straight-curve $-1 42.636989139529007 -7.0305223741046241 7.8206391329214853 0 -1 0 I I #
vertex $-1 $291 $512 #
straight-curve $-1 48.829615161595505 -9.1059272628579091 69.432381295004433 0 0 1 I I #
straight-curve $-1 -16.517163942909086 -9.1059272628579091 73.517983485504288 0.66913059716165679 0 -0.74314483375859142 I I #
edge $-1 $506 -19.016162233560586 $295 -9.1059272628579091 $409 $513 forward 7 unknown #
point $-1 48.829615161595505 -9.1059272628579091 7.8206391329214853 #
point $-1 42.636989139529014 -9.1059272628579091 7.8206391329214853 #
edge $-1 $514 1 $514 0 $298 $-1 forward 7 unknown #
vertex $-1 $299 $515 #
ellipse-curve $-1 44.244721836107331 -16.184666527645536 3.0415113654142103 0.74314483375859142 0 0.66913059716165679 0.66913059716165679 0 -0.74314483375859142 1 I I #
point $-1 46.402432747723935 -16.184666527645536 3.638690233694418 #
edge $-1 $516 1 $516 0 $302 $-1 forward 7 unknown #
vertex $-1 $303 $517 #
ellipse-curve $-1 44.244721836107331 -11.93742296877296 3.0415113654142103 0.74314483375859142 0 0.66913059716165679 0.66913059716165679 0 -0.74314483375859142 1 I I #
point $-1 46.402432747723935 -11.93742296877296 3.638690233694418 #
loop $-1 $-1 $314 $306 #
plane-surface $-1 48.829615161595505 0 0 -1 0 0 0 0 1 forward_v I I I I #
coedge $-1 $434 $309 $311 $438 reversed $199 $-1 #
coedge $-1 $309 $433 $518 $519 reversed $199 $-1 #
coedge $-1 $317 $312 $309 $436 forward $307 $-1 #
edge $-1 $439 14.608094869223667 $520 20.800720891290158 $435 $521 forward 7 unknown #
coedge $-1 $311 $310 $442 $522 reversed $125 $-1 #
edge $-1 $523 -97.659230323191011 $439 -88.404495823924947 $433 $524 forward 7 unknown #
vertex $-1 $313 $525 #
straight-curve $-1 42.636989139529007 3.8891009281920521 7.8206391329214853 0 -1 0 I I #
coedge $-1 $518 $314 $317 $446 reversed $431 $-1 #
coedge $-1 $314 $518 $437 $522 forward $431 $-1 #
vertex $-1 $315 $526 #
straight-curve $-1 48.829615161595505 12.733319341735443 69.432381295004433 0 0 1 I I #
straight-curve $-1 -16.517163942909086 12.733319341735443 73.517983485504288 0.66913059716165679 0 -0.74314483375859142 I I #
edge $-1 $520 2.8230843710327651 $318 12.733319341735443 $441 $527 forward 7 unknown #
point $-1 48.829615161595505 12.733319341735443 7.8206391329214853 #
point $-1 42.636989139529014 12.733319341735443 7.8206391329214853 #
edge $-1 $528 1 $528 0 $321 $-1 forward 7 unknown #
vertex $-1 $322 $529 #
ellipse-curve $-1 44.244721836107331 5.6545800769478163 3.0415113654142103 0.74314483375859142 0 0.66913059716165679 0.66913059716165679 0 -0.74314483375859142 1 I I #
point $-1 46.402432747723935 5.6545800769478163 3.638690233694418 #
edge $-1 $530 1 $530 0 $325 $-1 forward 7 unknown #
vertex $-1 $326 $531 #
ellipse-curve $-1 44.244721836107331 9.9018236358203957 3.0415113654142103 0.74314483375859142 0 0.66913059716165679 0.66913059716165679 0 -0.74314483375859142 1 I I #
point $-1 46.402432747723935 9.9018236358203957 3.638690233694418 #
plane-surface $-1 48.829615161595505 0 0 -1 0 0 0 0 1 forward_v I I I I #
coedge $-1 $334 $332 $336 $462 reversed $221 $-1 #
edge $-1 $347 -7.8206391329214853 $464 7.8206391329214853 $346 $532 forward 7 unknown #
vertex $-1 $462 $533 #
straight-curve $-1 -48.829615161595505 -24.662330975626116 0 0 0 -1 I I #
edge $-1 $460 -24.662330975626116 $464 24.662330975626116 $458 $534 forward 7 unknown #
straight-curve $-1 0 -24.662330975626116 -7.8206391329214853 -1 0 0 I I #
vertex $-1 $339 $535 #
straight-curve $-1 0 24.662330975626116 -7.8206391329214853 1 0 0 I I #
point $-1 48.829615161595505 24.662330975626116 -7.8206391329214853 #
point $-1 48.829615161595505 -24.662330975626116 -7.8206391329214853 #
straight-curve $-1 -48.829615161595505 0 7.8206391329214853 0 -1 0 I I #
point $-1 -48.829615161595505 24.662330975626116 7.8206391329214853 #
point $-1 -48.829615161595505 -24.662330975626116 7.8206391329214853 #
straight-curve $-1 48.829615161595505 -24.662330975626116 0 0 0 -1 I I #
straight-curve $-1 48.829615161595505 24.662330975626116 0 0 0 -1 I I #
plane-surface $-1 48.829615161595505 0 0 -1 0 0 0 0 1 forward_v I I I I #
coedge $-1 $477 $359 $370 $486 forward $240 $-1 #
coedge $-1 $359 $477 $373 $488 reversed $240 $-1 #
straight-curve $-1 48.829615161595505 -19.016162233560589 1.1145760338294632 0 0 1 I I #
coedge $-1 $475 $474 $362 $478 forward $240 $-1 #
edge $-1 $481 8.0965389312639129 $479 13.74270767332944 $477 $536 forward 7 unknown #
vertex $-1 $364 $537 #
straight-curve $-1 0 -24.662330975626116 0.22817876223963651 1 0 0 I I #
vertex $-1 $478 $538 #
straight-curve $-1 0 -19.016162233560589 0.22817876223963651 1 0 0 I I #
point $-1 48.829615161595505 -24.662330975626116 0.22817876223963651 #
point $-1 48.829615161595505 -19.016162233560589 0.22817876223963651 #
straight-curve $-1 -48.829615161595505 -10.919623302296676 4.2301253730782165 0 1 0 I I #
edge $-1 $371 -3.1155493392487532 $481 0.88639727158982673 $474 $539 forward 7 unknown #
point $-1 -48.829615161595505 -19.016162233560589 4.2301253730782165 #
edge $-1 $375 -4.2301253730782165 $479 -0.22817876223963651 $475 $540 forward 7 unknown #
point $-1 -48.829615161595505 -24.662330975626116 4.2301253730782165 #
straight-curve $-1 48.829615161595505 -24.662330975626116 0 0 0 -1 I I #
edge $-1 $492 19.276690885411334 $495 23.200890691100334 $381 $541 forward 7 unknown #
vertex $-1 $395 $542 #
straight-curve $-1 -66.269957385759682 5.3617524059491437 7.8206391329214853 -1 0 0 I I #
edge $-1 $495 -4.3237948099403276 $392 2.2478796179226954 $391 $543 forward 7 unknown #
vertex $-1 $494 $544 #
straight-curve $-1 -48.829615161595527 5.3617524059491437 3.89643932723245 0.51503806187062418 0 0.85716730853699208 I I #
point $-1 -46.471718118409427 5.3617524059491437 7.8206391329214853 #
point $-1 -48.829615161595505 -1.2099220219138793 3.8964393272324855 #
straight-curve $-1 -48.829615161595505 0 7.8206391329214853 0 -1 0 I I #
vertex $-1 $398 $545 #
point $-1 -46.664739815997805 0.66769924318984053 5.5577929953405887 #
vertex $-1 $402 $546 #
point $-1 -46.664739815997805 3.4841311408454203 5.5577929953405887 #
coedge $-1 $407 $410 $414 $510 reversed $283 $-1 #
edge $-1 $507 -11.985639859455965 $417 -2.075404888753285 $408 $547 forward 7 unknown #
vertex $-1 $420 $548 #
vertex $-1 $413 $549 #
straight-curve $-1 48.829615161595505 -19.016162233560586 69.432381295004433 0 0 -1 I I #
straight-curve $-1 4.9050743890011947 -19.016162233560589 49.726176906289844 0.66913059716165679 0 -0.74314483375859142 I I #
edge $-1 $415 14.608094869223667 $506 20.800720891290158 $414 $550 forward 7 unknown #
point $-1 42.636989139529014 -19.016162233560586 7.8206391329214853 #
point $-1 48.829615161595505 -9.1059272628579091 0.94303100198450807 #
straight-curve $-1 48.829615161595505 0 7.8206391329214853 0 1 0 I I #
vertex $-1 $423 $551 #
point $-1 44.913852433268985 -16.184666527645536 2.2983665316556188 #
vertex $-1 $427 $552 #
point $-1 44.913852433268985 -11.93742296877296 2.2983665316556188 #
coedge $-1 $442 $441 $434 $519 forward $431 $-1 #
edge $-1 $520 61.611742162082948 $523 68.489350293019925 $518 $553 forward 7 unknown #
vertex $-1 $446 $554 #
straight-curve $-1 28.028894270305347 2.8230843710327651 7.8206391329214853 1 0 0 I I #
edge $-1 $523 -1.066016557159287 $443 8.8442184135433912 $442 $555 forward 7 unknown #
vertex $-1 $522 $556 #
straight-curve $-1 -16.517163942909086 2.8230843710327651 73.517983485504288 -0.66913059716165679 0 0.74314483375859142 I I #
point $-1 42.636989139529014 2.8230843710327651 7.8206391329214853 #
point $-1 48.829615161595505 12.733319341735443 0.94303100198450807 #
straight-curve $-1 48.829615161595505 0 7.8206391329214853 0 1 0 I I #
vertex $-1 $449 $557 #
point $-1 44.913852433268985 5.6545800769478163 2.2983665316556188 #
vertex $-1 $453 $558 #
point $-1 44.913852433268985 9.9018236358203957 2.2983665316556188 #
straight-curve $-1 -48.829615161595505 24.662330975626116 0 0 0 -1 I I #
point $-1 -48.829615161595505 -24.662330975626116 -7.8206391329214853 #
straight-curve $-1 -48.829615161595505 0 -7.8206391329214853 0 1 0 I I #
point $-1 -48.829615161595505 24.662330975626116 -7.8206391329214853 #
straight-curve $-1 -48.829615161595505 -10.919623302296676 0.22817876223963651 0 -1 0 I I #
point $-1 -48.829615161595505 -24.662330975626116 0.22817876223963651 #
point $-1 -48.829615161595505 -19.016162233560589 0.22817876223963651 #
straight-curve $-1 -48.829615161595505 -19.016162233560589 1.1145760338294632 0 0 -1 I I #
straight-curve $-1 -48.829615161595505 -24.662330975626116 0 0 0 -1 I I #
straight-curve $-1 -48.829615161595505 5.3617524059491437 27.097330018332819 0 0 -1 I I #
point $-1 -48.829615161595505 5.3617524059491437 7.8206391329214853 #
straight-curve $-1 -48.829615161595505 1.0379575960088161 3.896439327232482 0 -1 0 I I #
point $-1 -48.829615161595505 5.3617524059491437 3.8964393272324855 #
point $-1 -46.579207504331215 0.66769924318984053 5.2147416527386845 #
point $-1 -46.579207504331215 3.4841311408454203 5.2147416527386845 #
straight-curve $-1 48.829615161595505 -7.0305223741046241 0.94303100198449386 0 1 0 I I #
point $-1 48.829615161595505 -19.016162233560586 7.8206391329214853 #
point $-1 48.829615161595505 -19.016162233560589 0.94303100198450263 #
straight-curve $-1 28.028894270305347 -19.016162233560586 7.8206391329214853 1 0 0 I I #
point $-1 43.501577002348739 -16.184666527645536 2.3723807682525533 #
point $-1 43.501577002348739 -11.93742296877296 2.3723807682525533 #
straight-curve $-1 48.829615161595505 2.8230843710327651 69.432381295004433 0 0 -1 I I #
point $-1 48.829615161595505 2.8230843710327651 7.8206391329214853 #
straight-curve $-1 48.829615161595505 3.8891009281920521 0.94303100198449386 0 1 0 I I #
point $-1 48.829615161595505 2.8230843710327651 0.94303100198450807 #
point $-1 43.501577002348739 5.6545800769478163 2.3723807682525533 #
point $-1 43.501577002348739 9.9018236358203957 2.3723807682525533 #
End-of-ACIS-data 