500 0 9 0           
7 Unknown 11 ACIS 5.0 NT 24 Fri Mar 26 20:44:07 1999 
-1 9.9999999999999995e-007 1e-010 
body $-1 $9 $-1 $10 #
body $-1 $11 $-1 $12 #
body $-1 $13 $-1 $14 #
body $-1 $15 $-1 $16 #
body $-1 $17 $-1 $18 #
body $-1 $19 $-1 $20 #
body $-1 $21 $-1 $22 #
body $-1 $23 $-1 $24 #
body $-1 $25 $-1 $26 #
lump $-1 $-1 $27 $0 #
transform $-1 1 0 0 0 1 0 0 0 1 64.948271126438186 32.564322224684986 7.1842855727484292 1 rotate no_reflect no_shear #
lump $-1 $-1 $28 $1 #
transform $-1 1 0 0 0 1 0 0 0 1 64.948271126438186 32.564322224684986 7.1842855727484292 1 rotate no_reflect no_shear #
lump $-1 $-1 $29 $2 #
transform $-1 1 0 0 0 1 0 0 0 1 64.948271126438186 32.564322224684986 7.1842855727484292 1 rotate no_reflect no_shear #
lump $-1 $-1 $30 $3 #
transform $-1 1 0 0 0 1 0 0 0 1 64.948271126438186 32.564322224684986 7.1842855727484292 1 rotate no_reflect no_shear #
lump $-1 $-1 $31 $4 #
transform $-1 1 0 0 0 1 0 0 0 1 64.948271126438186 32.564322224684986 7.1842855727484292 1 rotate no_reflect no_shear #
lump $-1 $-1 $32 $5 #
transform $-1 1 0 0 0 1 0 0 0 1 64.948271126438186 32.564322224684986 7.1842855727484292 1 rotate no_reflect no_shear #
lump $-1 $-1 $33 $6 #
transform $-1 1 0 0 0 1 0 0 0 1 64.948271126438186 32.564322224684986 7.1842855727484292 1 rotate no_reflect no_shear #
lump $-1 $-1 $34 $7 #
transform $-1 1 0 0 0 1 0 0 0 1 64.948271126438186 32.564322224684986 7.1842855727484292 1 rotate no_reflect no_shear #
lump $-1 $-1 $35 $8 #
transform $-1 1 0 0 0 1 0 0 0 1 64.948271126438186 32.564322224684986 7.1842855727484292 1 rotate no_reflect no_shear #
shell $-1 $-1 $-1 $36 $-1 $9 #
shell $-1 $-1 $-1 $37 $-1 $11 #
shell $-1 $-1 $-1 $38 $-1 $13 #
shell $-1 $-1 $-1 $39 $-1 $15 #
shell $-1 $-1 $-1 $40 $-1 $17 #
shell $-1 $-1 $-1 $41 $-1 $19 #
shell $-1 $-1 $-1 $42 $-1 $21 #
shell $-1 $-1 $-1 $43 $-1 $23 #
shell $-1 $-1 $-1 $44 $-1 $25 #
face $-1 $45 $46 $27 $-1 $47 forward single #
face $-1 $48 $49 $28 $-1 $50 reversed single #
face $-1 $51 $52 $29 $-1 $53 reversed single #
face $-1 $54 $55 $30 $-1 $56 reversed single #
face $-1 $57 $58 $31 $-1 $59 forward single #
face $-1 $60 $61 $32 $-1 $62 reversed single #
face $-1 $63 $64 $33 $-1 $65 forward single #
face $-1 $66 $67 $34 $-1 $68 forward single #
face $-1 $69 $70 $35 $-1 $71 forward single #
face $-1 $72 $73 $27 $-1 $74 reversed single #
loop $-1 $-1 $75 $36 #
plane-surface $-1 0 0 7.1842855727484292 0 0 1 1 0 0 forward_v I I I I #
face $-1 $76 $77 $28 $-1 $78 reversed single #
loop $-1 $-1 $79 $37 #
plane-surface $-1 0 -27.285539753007036 5.3531884030103249 0 -1 0 0 0 -1 forward_v I I I I #
face $-1 $80 $81 $29 $-1 $82 reversed single #
loop $-1 $-1 $83 $38 #
plane-surface $-1 0 29.924930988846015 3.5220912332722198 0 0 1 1 0 0 forward_v I I I I #
face $-1 $84 $85 $30 $-1 $86 reversed single #
loop $-1 $-1 $87 $39 #
plane-surface $-1 -64.948271126438186 -19.956690280696467 0.47184469714363786 -0.80901700255871778 0 0.5877852410284794 0.5877852410284794 0 0.80901700255871778 forward_v I I I I #
face $-1 $88 $89 $31 $-1 $90 forward single #
loop $-1 $91 $92 $40 #
cone-surface $-1 -61.204857078281343 -19.956690280696467 2.8799437011272562 0.80901700255871778 0 -0.5877852410284794 0.5877852410284794 0 0.80901700255871778 1 I I 0 1 1 forward I I I I #
face $-1 $93 $94 $32 $-1 $95 reversed single #
loop $-1 $-1 $96 $41 #
plane-surface $-1 26.754593214341654 -21.108290039667075 180.9259344542445 0 -1 0 -0.54463904215088732 0 -0.83867056331134215 forward_v I I I I #
face $-1 $97 $98 $33 $-1 $99 forward single #
loop $-1 $100 $101 $42 #
cone-surface $-1 60.098329103896006 -26.050089810339045 3.792207424473665 -0.54463904215088732 0 -0.83867056331134215 0.41933528165567108 0 -0.27231952107544366 1 I I 0 1 0.5 forward I I I I #
face $-1 $102 $103 $34 $-1 $104 forward single #
loop $-1 $105 $106 $43 #
cone-surface $-1 60.098329103896006 -24.196914896337056 3.792207424473665 -0.54463904215088732 0 -0.83867056331134215 0.41933528165567108 0 -0.27231952107544366 1 I I 0 1 0.5 forward I I I I #
face $-1 $107 $108 $35 $-1 $109 forward single #
loop $-1 $110 $111 $44 #
cone-surface $-1 60.098329103896006 -22.34373998233507 3.792207424473665 -0.54463904215088732 0 -0.83867056331134215 0.41933528165567108 0 -0.27231952107544366 1 I I 0 1 0.5 forward I I I I #
face $-1 $112 $113 $27 $-1 $114 reversed single #
loop $-1 $-1 $115 $45 #
plane-surface $-1 0 0 -7.1842855727484292 0 0 1 1 0 0 forward_v I I I I #
coedge $-1 $116 $117 $118 $119 forward $46 $-1 #
face $-1 $120 $121 $28 $-1 $122 reversed single #
loop $-1 $-1 $123 $48 #
plane-surface $-1 0 -29.924930988846011 3.5220912332722198 0 0 1 1 0 0 forward_v I I I I #
coedge $-1 $124 $125 $126 $127 reversed $49 $-1 #
face $-1 $128 $129 $29 $-1 $130 forward single #
loop $-1 $-1 $131 $51 #
plane-surface $-1 0 27.28553975300704 5.3531884030103249 0 1 0 0 0 1 forward_v I I I I #
coedge $-1 $132 $133 $134 $135 reversed $52 $-1 #
face $-1 $136 $137 $30 $-1 $138 reversed single #
loop $-1 $-1 $139 $54 #
plane-surface $-1 -170.03678238260207 -12.627840808385898 76.823115094016629 0 -1 0 0.80901700255871778 0 -0.5877852410284794 forward_v I I I I #
coedge $-1 $140 $141 $142 $143 reversed $55 $-1 #
face $-1 $-1 $144 $31 $-1 $145 forward single #
loop $-1 $146 $147 $57 #
cone-surface $-1 -59.495371338873994 -19.956690280696467 1.6379296467942428 0.80901700255871778 0 -0.5877852410284794 0.2938926205142397 0 0.40450850127935889 1 I I -0.70710678118654746 0.70710678118654746 0.5 forward I I I I #
loop $-1 $-1 $148 $40 #
coedge $-1 $92 $92 $149 $150 reversed $58 $-1 #
face $-1 $151 $152 $32 $-1 $153 forward single #
loop $-1 $-1 $154 $60 #
plane-surface $-1 -43.992135136977197 -24.196914896337056 71.985528190829115 0.54463904215088732 0 0.83867056331134215 0.83867056331134215 0 -0.54463904215088732 forward_v I I I I #
coedge $-1 $155 $156 $157 $158 reversed $61 $-1 #
face $-1 $-1 $159 $33 $-1 $160 forward single #
loop $-1 $161 $162 $63 #
cone-surface $-1 59.689849822282838 -26.050089810339045 3.1632045019901582 -0.54463904215088732 0 -0.83867056331134215 0.20966764082783554 0 -0.13615976053772183 1 I I -0.70710678118654746 0.70710678118654746 0.25 forward I I I I #
loop $-1 $-1 $163 $42 #
coedge $-1 $101 $101 $164 $165 reversed $64 $-1 #
face $-1 $-1 $166 $34 $-1 $167 forward single #
loop $-1 $168 $169 $66 #
cone-surface $-1 59.689849822282838 -24.196914896337056 3.1632045019901582 -0.54463904215088732 0 -0.83867056331134215 0.20966764082783554 0 -0.13615976053772183 1 I I -0.70710678118654746 0.70710678118654746 0.25 forward I I I I #
loop $-1 $-1 $170 $43 #
coedge $-1 $106 $106 $171 $172 reversed $67 $-1 #
face $-1 $-1 $173 $35 $-1 $174 forward single #
loop $-1 $175 $176 $69 #
cone-surface $-1 59.689849822282838 -22.34373998233507 3.1632045019901582 -0.54463904215088732 0 -0.83867056331134215 0.20966764082783554 0 -0.13615976053772183 1 I I -0.70710678118654746 0.70710678118654746 0.25 forward I I I I #
loop $-1 $-1 $177 $44 #
coedge $-1 $111 $111 $178 $179 reversed $70 $-1 #
face $-1 $180 $181 $27 $-1 $182 reversed single #
loop $-1 $-1 $183 $72 #
plane-surface $-1 0 -32.564322224684986 0 0 1 0 0 0 1 forward_v I I I I #
coedge $-1 $184 $185 $186 $187 forward $73 $-1 #
coedge $-1 $188 $75 $189 $190 forward $46 $-1 #
coedge $-1 $75 $188 $191 $192 forward $46 $-1 #
coedge $-1 $193 $194 $75 $119 reversed $195 $-1 #
edge $-1 $196 -32.564322224684986 $197 32.564322224684986 $118 $198 forward 7 unknown #
face $-1 $199 $200 $28 $-1 $201 reversed single #
loop $-1 $-1 $202 $76 #
plane-surface $-1 -64.948271126438186 0 0 1 0 0 0 0 -1 forward_v I I I I #
coedge $-1 $203 $126 $204 $205 reversed $77 $-1 #
coedge $-1 $206 $79 $202 $207 reversed $49 $-1 #
coedge $-1 $79 $206 $208 $209 reversed $49 $-1 #
coedge $-1 $123 $210 $79 $127 forward $77 $-1 #
edge $-1 $211 -64.948271126438186 $212 64.948271126438186 $79 $213 forward 7 unknown #
face $-1 $214 $215 $29 $-1 $216 reversed single #
loop $-1 $-1 $217 $80 #
plane-surface $-1 0 0 7.1842855727484292 0 0 1 1 0 0 forward_v I I I I #
coedge $-1 $218 $219 $220 $221 reversed $81 $-1 #
coedge $-1 $222 $83 $218 $223 forward $52 $-1 #
coedge $-1 $83 $222 $224 $225 reversed $52 $-1 #
coedge $-1 $226 $227 $83 $135 forward $215 $-1 #
edge $-1 $228 12.323074258584032 $229 17.601856730261979 $134 $230 forward 7 unknown #
face $-1 $231 $232 $30 $-1 $233 forward single #
loop $-1 $-1 $234 $84 #
plane-surface $-1 -64.948271126438186 0 0 1 0 0 0 0 -1 forward_v I I I I #
coedge $-1 $235 $236 $237 $238 reversed $85 $-1 #
coedge $-1 $239 $87 $240 $241 reversed $55 $-1 #
coedge $-1 $87 $239 $235 $242 forward $55 $-1 #
coedge $-1 $237 $243 $87 $143 forward $232 $-1 #
edge $-1 $244 -17.307194612658805 $245 -2.6494956680376642 $142 $246 forward 7 unknown #
loop $-1 $-1 $149 $88 #
plane-surface $-1 -64.948271126438186 -19.956690280696467 0.47184469714363786 -0.80901700255871778 0 0.5877852410284794 0.5877852410284794 0 0.80901700255871778 forward_v I I I I #
loop $-1 $-1 $247 $57 #
coedge $-1 $147 $147 $148 $248 reversed $89 $-1 #
coedge $-1 $148 $148 $147 $248 forward $91 $-1 #
coedge $-1 $149 $149 $92 $150 forward $144 $-1 #
edge $-1 $249 0 $249 6.2831853071796004 $149 $250 forward 7 unknown #
face $-1 $251 $252 $32 $-1 $253 forward single #
loop $-1 $-1 $157 $93 #
plane-surface $-1 0 0 7.1842855727484292 0 0 1 1 0 0 forward_v I I I I #
coedge $-1 $254 $255 $256 $257 reversed $94 $-1 #
coedge $-1 $156 $96 $258 $259 reversed $61 $-1 #
coedge $-1 $96 $155 $254 $260 reversed $61 $-1 #
coedge $-1 $256 $261 $96 $158 forward $152 $-1 #
edge $-1 $262 -51.570974519267359 $263 -42.415729516333876 $157 $264 forward 7 unknown #
loop $-1 $-1 $164 $97 #
plane-surface $-1 -43.992135136977197 -24.196914896337056 71.985528190829115 0.54463904215088732 0 0.83867056331134215 0.83867056331134215 0 -0.54463904215088732 forward_v I I I I #
loop $-1 $-1 $265 $63 #
coedge $-1 $162 $162 $163 $266 reversed $98 $-1 #
coedge $-1 $163 $163 $162 $266 forward $100 $-1 #
coedge $-1 $164 $164 $101 $165 forward $159 $-1 #
edge $-1 $267 0 $267 6.2831853071796004 $164 $268 forward 7 unknown #
loop $-1 $-1 $171 $102 #
plane-surface $-1 -43.992135136977197 -24.196914896337056 71.985528190829115 0.54463904215088732 0 0.83867056331134215 0.83867056331134215 0 -0.54463904215088732 forward_v I I I I #
loop $-1 $-1 $269 $66 #
coedge $-1 $169 $169 $170 $270 reversed $103 $-1 #
coedge $-1 $170 $170 $169 $270 forward $105 $-1 #
coedge $-1 $171 $171 $106 $172 forward $166 $-1 #
edge $-1 $271 0 $271 6.2831853071796004 $171 $272 forward 7 unknown #
loop $-1 $-1 $178 $107 #
plane-surface $-1 -43.992135136977197 -24.196914896337056 71.985528190829115 0.54463904215088732 0 0.83867056331134215 0.83867056331134215 0 -0.54463904215088732 forward_v I I I I #
loop $-1 $-1 $273 $69 #
coedge $-1 $176 $176 $177 $274 reversed $108 $-1 #
coedge $-1 $177 $177 $176 $274 forward $110 $-1 #
coedge $-1 $178 $178 $111 $179 forward $173 $-1 #
edge $-1 $275 0 $275 6.2831853071796004 $178 $276 forward 7 unknown #
face $-1 $277 $278 $27 $-1 $279 reversed single #
loop $-1 $-1 $280 $112 #
plane-surface $-1 -64.948271126438186 0 0 1 0 0 0 0 -1 forward_v I I I I #
coedge $-1 $281 $191 $282 $283 forward $113 $-1 #
coedge $-1 $284 $115 $281 $285 forward $73 $-1 #
coedge $-1 $115 $284 $286 $287 forward $73 $-1 #
coedge $-1 $194 $193 $115 $187 reversed $195 $-1 #
edge $-1 $288 -32.564322224684986 $289 32.564322224684986 $186 $290 forward 7 unknown #
coedge $-1 $117 $116 $291 $292 forward $46 $-1 #
coedge $-1 $293 $294 $116 $190 reversed $278 $-1 #
edge $-1 $197 -64.948271126438186 $295 64.948271126438186 $189 $296 forward 7 unknown #
coedge $-1 $183 $297 $117 $192 reversed $113 $-1 #
edge $-1 $298 -64.948271126438186 $196 64.948271126438186 $191 $299 forward 7 unknown #
coedge $-1 $186 $118 $297 $300 forward $195 $-1 #
coedge $-1 $118 $186 $293 $301 reversed $195 $-1 #
loop $-1 $-1 $193 $277 #
vertex $-1 $119 $302 #
vertex $-1 $119 $303 #
straight-curve $-1 64.948271126438186 0 7.1842855727484292 0 1 0 I I #
face $-1 $304 $305 $28 $-1 $306 forward single #
loop $-1 $-1 $307 $120 #
plane-surface $-1 0 -32.564322224684986 0 0 1 0 0 0 1 forward_v I I I I #
coedge $-1 $308 $309 $124 $207 forward $121 $-1 #
coedge $-1 $210 $123 $307 $310 reversed $77 $-1 #
coedge $-1 $208 $311 $123 $205 forward $312 $-1 #
edge $-1 $313 -17.601856730261979 $212 -12.323074258584031 $204 $314 forward 7 unknown #
coedge $-1 $125 $124 $315 $316 reversed $49 $-1 #
edge $-1 $317 -4.5076913712432676 $211 -0.84549703176705737 $202 $318 forward 7 unknown #
coedge $-1 $319 $204 $125 $209 forward $312 $-1 #
edge $-1 $212 0.84549703176705737 $320 4.5076913712432676 $208 $321 forward 7 unknown #
coedge $-1 $126 $203 $308 $322 reversed $77 $-1 #
vertex $-1 $322 $323 #
vertex $-1 $205 $324 #
straight-curve $-1 0 -27.285539753007036 3.5220912332722198 1 0 0 I I #
face $-1 $325 $326 $29 $-1 $327 reversed single #
loop $-1 $-1 $227 $128 #
plane-surface $-1 64.948271126438186 0 0 -1 0 0 0 0 1 forward_v I I I I #
coedge $-1 $328 $329 $219 $330 forward $129 $-1 #
coedge $-1 $331 $131 $132 $223 reversed $81 $-1 #
coedge $-1 $131 $331 $217 $330 reversed $81 $-1 #
coedge $-1 $332 $333 $131 $221 forward $326 $-1 #
edge $-1 $334 0.84549703176705737 $335 4.5076913712432676 $220 $336 forward 7 unknown #
coedge $-1 $133 $132 $333 $337 reversed $52 $-1 #
edge $-1 $228 -64.948271126438186 $334 64.948271126438186 $218 $338 forward 7 unknown #
coedge $-1 $339 $340 $133 $225 forward $341 $-1 #
edge $-1 $229 -64.948271126438186 $342 64.948271126438186 $224 $343 forward 7 unknown #
coedge $-1 $344 $134 $340 $345 reversed $215 $-1 #
coedge $-1 $134 $344 $331 $346 forward $215 $-1 #
vertex $-1 $135 $347 #
vertex $-1 $225 $348 #
straight-curve $-1 64.948271126438186 14.962465494423007 3.5220912332722198 0 1 0 I I #
face $-1 $-1 $349 $30 $-1 $350 forward single #
loop $-1 $-1 $237 $136 #
plane-surface $-1 0 0 7.1842855727484292 0 0 1 1 0 0 forward_v I I I I #
coedge $-1 $351 $352 $236 $353 forward $137 $-1 #
coedge $-1 $236 $139 $141 $242 reversed $85 $-1 #
coedge $-1 $139 $235 $234 $353 reversed $85 $-1 #
coedge $-1 $354 $142 $139 $238 forward $232 $-1 #
edge $-1 $245 -24.946993684920571 $355 -20.070120064862849 $237 $356 forward 7 unknown #
coedge $-1 $141 $140 $351 $357 reversed $55 $-1 #
coedge $-1 $358 $359 $140 $241 forward $349 $-1 #
edge $-1 $360 -21.062362625907816 $244 -12.765329492642351 $240 $361 forward 7 unknown #
edge $-1 $362 0 $245 8.2970331332654634 $235 $363 forward 7 unknown #
coedge $-1 $142 $354 $358 $364 forward $232 $-1 #
vertex $-1 $241 $365 #
vertex $-1 $143 $366 #
straight-curve $-1 -60.071397506380471 -9.9783451403482335 7.1842855727484292 0 1 0 I I #
coedge $-1 $247 $247 $-1 $367 reversed $146 $-1 #
edge $-1 $368 0 $368 6.2831853071796004 $147 $369 forward 7 unknown #
vertex $-1 $150 $370 #
ellipse-curve $-1 -62.509834316409332 -19.956690280696467 3.8280651349460295 -0.80901700255871778 0 0.5877852410284794 0.5877852410284794 0 0.80901700255871778 1 I I #
face $-1 $-1 $371 $32 $-1 $372 reversed single #
loop $-1 $-1 $373 $151 #
plane-surface $-1 0 -27.285539753007036 5.3531884030103249 0 -1 0 0 0 -1 forward_v I I I I #
coedge $-1 $374 $154 $156 $260 forward $94 $-1 #
coedge $-1 $154 $374 $373 $375 forward $94 $-1 #
coedge $-1 $376 $157 $154 $257 forward $152 $-1 #
edge $-1 $263 9.0098325914985473 $377 15.187082304838508 $256 $378 forward 7 unknown #
coedge $-1 $379 $380 $155 $259 forward $371 $-1 #
edge $-1 $381 -89.224167387611985 $262 -83.278681654373827 $258 $382 forward 7 unknown #
edge $-1 $263 118.98016411414019 $381 129.89654225287637 $156 $383 forward 7 unknown #
coedge $-1 $157 $376 $379 $384 forward $152 $-1 #
vertex $-1 $259 $385 #
vertex $-1 $158 $386 #
straight-curve $-1 13.377296607170827 -21.108290039667075 7.1842855727484221 -1 0 0 I I #
coedge $-1 $265 $265 $-1 $387 reversed $161 $-1 #
edge $-1 $388 0 $388 6.2831853071796004 $162 $389 forward 7 unknown #
vertex $-1 $165 $390 #
ellipse-curve $-1 60.370648624971452 -26.050089810339045 4.2115427061293422 0.54463904215088732 0 0.83867056331134215 0.41933528165567108 0 -0.27231952107544366 1 I I #
coedge $-1 $269 $269 $-1 $391 reversed $168 $-1 #
edge $-1 $392 0 $392 6.2831853071796004 $169 $393 forward 7 unknown #
vertex $-1 $172 $394 #
ellipse-curve $-1 60.370648624971452 -24.196914896337056 4.2115427061293422 0.54463904215088732 0 0.83867056331134215 0.41933528165567108 0 -0.27231952107544366 1 I I #
coedge $-1 $273 $273 $-1 $395 reversed $175 $-1 #
edge $-1 $396 0 $396 6.2831853071796004 $176 $397 forward 7 unknown #
vertex $-1 $179 $398 #
ellipse-curve $-1 60.370648624971452 -22.34373998233507 4.2115427061293422 0.54463904215088732 0 0.83867056331134215 0.41933528165567108 0 -0.27231952107544366 1 I I #
face $-1 $-1 $195 $27 $-1 $399 reversed single #
loop $-1 $-1 $293 $180 #
plane-surface $-1 0 32.564322224684986 0 0 -1 0 0 0 -1 forward_v I I I I #
coedge $-1 $400 $291 $294 $401 forward $181 $-1 #
coedge $-1 $297 $183 $184 $285 reversed $113 $-1 #
coedge $-1 $291 $400 $183 $283 reversed $181 $-1 #
edge $-1 $298 -7.1842855727484292 $402 7.1842855727484292 $282 $403 forward 7 unknown #
coedge $-1 $185 $184 $400 $404 forward $73 $-1 #
edge $-1 $289 -64.948271126438186 $402 64.948271126438186 $281 $405 forward 7 unknown #
coedge $-1 $294 $293 $185 $287 reversed $278 $-1 #
edge $-1 $406 -64.948271126438186 $288 64.948271126438186 $286 $407 forward 7 unknown #
vertex $-1 $187 $408 #
vertex $-1 $300 $409 #
straight-curve $-1 64.948271126438186 0 -7.1842855727484292 0 -1 0 I I #
coedge $-1 $280 $282 $188 $292 reversed $181 $-1 #
edge $-1 $295 -32.564322224684986 $298 32.564322224684986 $291 $410 forward 7 unknown #
coedge $-1 $286 $189 $194 $301 forward $278 $-1 #
coedge $-1 $189 $286 $280 $401 reversed $278 $-1 #
vertex $-1 $190 $411 #
straight-curve $-1 0 32.564322224684986 7.1842855727484292 -1 0 0 I I #
coedge $-1 $191 $281 $193 $300 reversed $113 $-1 #
vertex $-1 $292 $412 #
straight-curve $-1 0 -32.564322224684986 7.1842855727484292 1 0 0 I I #
edge $-1 $196 -7.1842855727484292 $289 7.1842855727484292 $193 $413 forward 7 unknown #
edge $-1 $197 -7.1842855727484292 $288 7.1842855727484292 $194 $414 forward 7 unknown #
point $-1 64.948271126438186 -32.564322224684986 7.1842855727484292 #
point $-1 64.948271126438186 32.564322224684986 7.1842855727484292 #
face $-1 $-1 $312 $28 $-1 $415 reversed single #
loop $-1 $-1 $315 $199 #
plane-surface $-1 0 0 7.1842855727484292 0 0 1 1 0 0 forward_v I I I I #
coedge $-1 $416 $417 $203 $310 forward $200 $-1 #
coedge $-1 $418 $202 $210 $322 forward $121 $-1 #
coedge $-1 $202 $418 $419 $420 reversed $121 $-1 #
edge $-1 $421 -64.948271126438186 $313 64.948271126438186 $307 $422 forward 7 unknown #
coedge $-1 $204 $319 $416 $423 forward $312 $-1 #
loop $-1 $-1 $208 $304 #
vertex $-1 $310 $424 #
straight-curve $-1 64.948271126438186 -14.962465494423006 3.5220912332722198 0 1 0 I I #
coedge $-1 $419 $425 $206 $316 forward $305 $-1 #
edge $-1 $320 -64.948271126438186 $317 64.948271126438186 $315 $426 forward 7 unknown #
vertex $-1 $420 $427 #
straight-curve $-1 -64.948271126438186 -27.285539753007036 2.6765942015051625 0 0 -1 I I #
coedge $-1 $311 $208 $425 $428 reversed $312 $-1 #
vertex $-1 $209 $429 #
straight-curve $-1 64.948271126438186 -27.285539753007036 2.6765942015051625 0 0 1 I I #
edge $-1 $211 12.323074258584031 $421 17.601856730261979 $308 $430 forward 7 unknown #
point $-1 -64.948271126438186 -27.285539753007036 3.5220912332722198 #
point $-1 64.948271126438186 -27.285539753007036 3.5220912332722198 #
face $-1 $-1 $341 $29 $-1 $431 reversed single #
loop $-1 $-1 $220 $214 #
plane-surface $-1 -64.948271126438186 0 0 1 0 0 0 0 -1 forward_v I I I I #
coedge $-1 $432 $217 $344 $433 forward $129 $-1 #
coedge $-1 $217 $432 $332 $434 forward $129 $-1 #
edge $-1 $335 -64.948271126438186 $435 64.948271126438186 $217 $436 forward 7 unknown #
coedge $-1 $219 $218 $227 $346 reversed $81 $-1 #
coedge $-1 $437 $220 $329 $434 reversed $326 $-1 #
coedge $-1 $220 $437 $222 $337 forward $326 $-1 #
vertex $-1 $337 $438 #
vertex $-1 $221 $439 #
straight-curve $-1 -64.948271126438186 27.28553975300704 2.6765942015051625 0 0 1 I I #
edge $-1 $342 -17.601856730261979 $334 -12.323074258584032 $333 $440 forward 7 unknown #
straight-curve $-1 0 27.28553975300704 3.5220912332722198 -1 0 0 I I #
coedge $-1 $441 $224 $437 $442 reversed $341 $-1 #
coedge $-1 $224 $441 $226 $345 forward $341 $-1 #
loop $-1 $-1 $224 $325 #
vertex $-1 $225 $443 #
straight-curve $-1 0 32.564322224684986 3.5220912332722198 -1 0 0 I I #
coedge $-1 $227 $226 $328 $433 reversed $215 $-1 #
edge $-1 $444 -7.1842855727484292 $229 -3.5220912332722198 $226 $445 forward 7 unknown #
edge $-1 $435 -4.5076913712432676 $228 -0.84549703176705737 $227 $446 forward 7 unknown #
point $-1 64.948271126438186 27.28553975300704 3.5220912332722198 #
point $-1 64.948271126438186 32.564322224684986 3.5220912332722198 #
loop $-1 $-1 $240 $231 #
plane-surface $-1 0 -27.285539753007036 5.3531884030103249 0 -1 0 0 0 -1 forward_v I I I I #
coedge $-1 $447 $234 $239 $357 forward $137 $-1 #
coedge $-1 $234 $447 $354 $448 reversed $137 $-1 #
edge $-1 $355 31.227271974259885 $362 37.939712849864677 $234 $449 forward 7 unknown #
coedge $-1 $243 $237 $352 $448 forward $232 $-1 #
vertex $-1 $448 $450 #
straight-curve $-1 -85.018391191301035 -12.627840808385898 7.1842855727484292 -1 0 0 I I #
edge $-1 $362 2.6494956680376642 $360 17.307194612658805 $351 $451 forward 7 unknown #
coedge $-1 $359 $240 $243 $364 reversed $349 $-1 #
coedge $-1 $240 $358 $447 $452 reversed $349 $-1 #
vertex $-1 $452 $453 #
straight-curve $-1 -52.568125233739721 -27.285539753007036 17.511654175560341 0.5877852410284794 0 0.80901700255871778 I I #
vertex $-1 $357 $454 #
straight-curve $-1 -64.948271126438186 -12.627840808385898 0.47184469714363786 0.5877852410284794 0 0.80901700255871778 I I #
edge $-1 $455 -64.948271126438186 $244 -60.071397506380464 $243 $456 forward 7 unknown #
point $-1 -60.071397506380464 -27.285539753007036 7.1842855727484292 #
point $-1 -60.071397506380464 -12.627840808385898 7.1842855727484292 #
edge $-1 $457 1 $457 0 $247 $-1 forward 7 unknown #
vertex $-1 $248 $458 #
ellipse-curve $-1 -59.899879840153353 -19.956690280696467 1.9318222673084824 -0.80901700255871778 0 0.5877852410284794 0.5877852410284794 0 0.80901700255871778 1 I I #
point $-1 -61.922049075380848 -19.956690280696467 4.6370821375047475 #
loop $-1 $-1 $258 $251 #
plane-surface $-1 64.948271126438186 0 0 -1 0 0 0 0 1 forward_v I I I I #
coedge $-1 $459 $460 $255 $375 reversed $252 $-1 #
coedge $-1 $255 $254 $380 $461 reversed $94 $-1 #
edge $-1 $462 -129.89654225287637 $377 -118.98016411414019 $373 $463 forward 7 unknown #
coedge $-1 $261 $256 $460 $464 forward $152 $-1 #
vertex $-1 $464 $465 #
straight-curve $-1 55.793026123504696 -12.098457448168528 7.1842855727484292 0 -1 0 I I #
coedge $-1 $466 $258 $261 $384 reversed $371 $-1 #
coedge $-1 $258 $466 $374 $461 forward $371 $-1 #
vertex $-1 $259 $467 #
straight-curve $-1 64.948271126438186 -21.108290039667075 90.462967227122249 0 0 1 I I #
straight-curve $-1 -43.992135136977197 -21.108290039667075 71.985528190829115 0.83867056331134215 0 -0.54463904215088732 I I #
edge $-1 $468 -27.285539753007036 $262 -21.108290039667075 $379 $469 forward 7 unknown #
point $-1 64.948271126438186 -21.108290039667075 7.1842855727484292 #
point $-1 55.793026123504703 -21.108290039667075 7.1842855727484221 #
edge $-1 $470 1 $470 0 $265 $-1 forward 7 unknown #
vertex $-1 $266 $471 #
ellipse-curve $-1 59.826009582820561 -26.050089810339045 3.372872142817994 0.54463904215088732 0 0.83867056331134215 0.41933528165567108 0 -0.27231952107544366 1 I I #
point $-1 60.789983906627121 -26.050089810339045 3.9392231850538924 #
edge $-1 $472 1 $472 0 $269 $-1 forward 7 unknown #
vertex $-1 $270 $473 #
ellipse-curve $-1 59.826009582820561 -24.196914896337056 3.372872142817994 0.54463904215088732 0 0.83867056331134215 0.41933528165567108 0 -0.27231952107544366 1 I I #
point $-1 60.789983906627121 -24.196914896337056 3.9392231850538924 #
edge $-1 $474 1 $474 0 $273 $-1 forward 7 unknown #
vertex $-1 $274 $475 #
ellipse-curve $-1 59.826009582820561 -22.34373998233507 3.372872142817994 0.54463904215088732 0 0.83867056331134215 0.41933528165567108 0 -0.27231952107544366 1 I I #
point $-1 60.789983906627121 -22.34373998233507 3.9392231850538924 #
plane-surface $-1 64.948271126438186 0 0 -1 0 0 0 0 1 forward_v I I I I #
coedge $-1 $282 $280 $284 $404 reversed $181 $-1 #
edge $-1 $295 -7.1842855727484292 $406 7.1842855727484292 $294 $476 forward 7 unknown #
vertex $-1 $404 $477 #
straight-curve $-1 -64.948271126438186 -32.564322224684986 0 0 0 -1 I I #
edge $-1 $402 -32.564322224684986 $406 32.564322224684986 $400 $478 forward 7 unknown #
straight-curve $-1 0 -32.564322224684986 -7.1842855727484292 -1 0 0 I I #
vertex $-1 $287 $479 #
straight-curve $-1 0 32.564322224684986 -7.1842855727484292 1 0 0 I I #
point $-1 64.948271126438186 32.564322224684986 -7.1842855727484292 #
point $-1 64.948271126438186 -32.564322224684986 -7.1842855727484292 #
straight-curve $-1 -64.948271126438186 0 7.1842855727484292 0 -1 0 I I #
point $-1 -64.948271126438186 32.564322224684986 7.1842855727484292 #
point $-1 -64.948271126438186 -32.564322224684986 7.1842855727484292 #
straight-curve $-1 64.948271126438186 -32.564322224684986 0 0 0 -1 I I #
straight-curve $-1 64.948271126438186 32.564322224684986 0 0 0 -1 I I #
plane-surface $-1 64.948271126438186 0 0 -1 0 0 0 0 1 forward_v I I I I #
coedge $-1 $480 $307 $311 $423 reversed $200 $-1 #
coedge $-1 $307 $480 $418 $481 forward $200 $-1 #
coedge $-1 $309 $308 $417 $481 reversed $121 $-1 #
coedge $-1 $482 $315 $309 $420 forward $305 $-1 #
edge $-1 $317 27.285539753007036 $483 32.564322224684986 $309 $484 forward 7 unknown #
vertex $-1 $310 $485 #
straight-curve $-1 0 -32.564322224684986 3.5220912332722198 1 0 0 I I #
edge $-1 $486 -7.1842855727484292 $313 -3.5220912332722198 $311 $487 forward 7 unknown #
point $-1 64.948271126438186 -32.564322224684986 3.5220912332722198 #
coedge $-1 $315 $482 $319 $428 forward $305 $-1 #
straight-curve $-1 0 -27.285539753007036 7.1842855727484292 -1 0 0 I I #
point $-1 -64.948271126438186 -27.285539753007036 7.18428557274843 #
edge $-1 $486 -32.564322224684986 $320 -27.285539753007036 $319 $488 forward 7 unknown #
point $-1 64.948271126438186 -27.285539753007036 7.18428557274843 #
straight-curve $-1 -64.948271126438186 -14.962465494423006 3.5220912332722198 0 -1 0 I I #
plane-surface $-1 0 32.564322224684986 0 0 -1 0 0 0 -1 forward_v I I I I #
coedge $-1 $329 $328 $441 $489 forward $129 $-1 #
edge $-1 $435 27.28553975300704 $444 32.564322224684986 $344 $490 forward 7 unknown #
edge $-1 $491 -32.564322224684986 $335 -27.28553975300704 $332 $492 forward 7 unknown #
vertex $-1 $433 $493 #
straight-curve $-1 0 27.28553975300704 7.1842855727484292 1 0 0 I I #
coedge $-1 $333 $332 $339 $442 forward $326 $-1 #
point $-1 -64.948271126438186 27.28553975300704 3.5220912332722198 #
point $-1 -64.948271126438186 27.28553975300704 7.18428557274843 #
straight-curve $-1 -64.948271126438186 14.962465494423007 3.5220912332722198 0 -1 0 I I #
coedge $-1 $340 $339 $432 $489 reversed $341 $-1 #
edge $-1 $491 -7.1842855727484292 $342 -3.5220912332722198 $339 $494 forward 7 unknown #
point $-1 -64.948271126438186 32.564322224684986 3.5220912332722198 #
vertex $-1 $433 $495 #
straight-curve $-1 64.948271126438186 32.564322224684986 0 0 0 -1 I I #
straight-curve $-1 64.948271126438186 27.28553975300704 2.6765942015051625 0 0 -1 I I #
coedge $-1 $352 $351 $359 $452 forward $137 $-1 #
edge $-1 $355 12.627840808385898 $455 27.285539753007036 $352 $496 forward 7 unknown #
straight-curve $-1 -64.948271126438186 -12.627840808385898 38.411557547008314 0 0 -1 I I #
point $-1 -64.948271126438186 -12.627840808385898 7.1842855727484292 #
straight-curve $-1 -64.948271126438186 -9.9783451403482335 0.47184469714364097 0 -1 0 I I #
edge $-1 $360 -37.939712849864677 $455 -31.227271974259885 $447 $497 forward 7 unknown #
point $-1 -64.948271126438186 -27.285539753007036 0.47184469714363786 #
point $-1 -64.948271126438186 -12.627840808385898 0.47184469714363786 #
vertex $-1 $452 $498 #
straight-curve $-1 0 -27.285539753007036 7.1842855727484292 1 0 0 I I #
vertex $-1 $367 $499 #
point $-1 -59.312094599124876 -19.956690280696467 2.7408392698672004 #
coedge $-1 $460 $373 $466 $500 reversed $252 $-1 #
coedge $-1 $373 $459 $376 $464 reversed $252 $-1 #
edge $-1 $462 -15.187082304838508 $381 -9.0098325914985473 $380 $501 forward 7 unknown #
vertex $-1 $500 $502 #
straight-curve $-1 -43.992135136977197 -27.285539753007036 71.985528190829115 -0.83867056331134215 0 0.54463904215088732 I I #
edge $-1 $377 55.793026123504696 $468 64.948271126438186 $376 $503 forward 7 unknown #
point $-1 55.793026123504696 -27.285539753007036 7.1842855727484292 #
coedge $-1 $380 $379 $459 $500 forward $371 $-1 #
point $-1 64.948271126438186 -21.108290039667075 1.2387998395102642 #
vertex $-1 $384 $504 #
straight-curve $-1 64.948271126438186 0 7.1842855727484292 0 1 0 I I #
vertex $-1 $387 $505 #
point $-1 60.24534486447623 -26.050089810339045 3.1005526217425503 #
vertex $-1 $391 $506 #
point $-1 60.24534486447623 -24.196914896337056 3.1005526217425503 #
vertex $-1 $395 $507 #
point $-1 60.24534486447623 -22.34373998233507 3.1005526217425503 #
straight-curve $-1 -64.948271126438186 32.564322224684986 0 0 0 -1 I I #
point $-1 -64.948271126438186 -32.564322224684986 -7.1842855727484292 #
straight-curve $-1 -64.948271126438186 0 -7.1842855727484292 0 1 0 I I #
point $-1 -64.948271126438186 32.564322224684986 -7.1842855727484292 #
coedge $-1 $417 $416 $482 $508 reversed $200 $-1 #
edge $-1 $483 -7.1842855727484292 $421 -3.5220912332722198 $418 $509 forward 7 unknown #
coedge $-1 $425 $419 $480 $508 forward $305 $-1 #
vertex $-1 $420 $510 #
straight-curve $-1 -64.948271126438186 0 7.1842855727484292 0 -1 0 I I #
point $-1 -64.948271126438186 -32.564322224684986 3.5220912332722198 #
vertex $-1 $428 $511 #
straight-curve $-1 64.948271126438186 -32.564322224684986 0 0 0 -1 I I #
straight-curve $-1 64.948271126438186 0 7.1842855727484292 0 1 0 I I #
edge $-1 $444 -64.948271126438186 $491 64.948271126438186 $441 $512 forward 7 unknown #
straight-curve $-1 64.948271126438186 0 7.1842855727484292 0 1 0 I I #
vertex $-1 $489 $513 #
straight-curve $-1 -64.948271126438186 0 7.1842855727484292 0 -1 0 I I #
point $-1 64.948271126438186 27.28553975300704 7.18428557274843 #
straight-curve $-1 -64.948271126438186 32.564322224684986 0 0 0 -1 I I #
point $-1 64.948271126438186 32.564322224684986 7.1842855727484292 #
straight-curve $-1 -64.948271126438186 0 7.1842855727484292 0 -1 0 I I #
straight-curve $-1 -64.948271126438186 -27.285539753007036 38.411557547008314 0 0 1 I I #
point $-1 -64.948271126438186 -27.285539753007036 7.18428557274843 #
point $-1 -59.090862837594635 -19.956690280696467 1.3440370262800032 #
edge $-1 $468 83.278681654373813 $462 89.224167387611985 $466 $514 forward 7 unknown #
straight-curve $-1 64.948271126438186 -12.098457448168528 1.2387998395102642 0 1 0 I I #
point $-1 64.948271126438186 -27.285539753007036 1.2387998395102642 #
straight-curve $-1 0 -27.285539753007036 7.1842855727484292 1 0 0 I I #
point $-1 64.948271126438186 -27.285539753007036 7.18428557274843 #
point $-1 59.553690061745115 -26.050089810339045 2.9535368611623225 #
point $-1 59.553690061745115 -24.196914896337056 2.9535368611623225 #
point $-1 59.553690061745115 -22.34373998233507 2.9535368611623225 #
edge $-1 $483 -64.948271126438186 $486 64.948271126438186 $480 $515 forward 7 unknown #
straight-curve $-1 -64.948271126438186 -32.564322224684986 0 0 0 -1 I I #
point $-1 -64.948271126438186 -32.564322224684986 7.1842855727484292 #
point $-1 64.948271126438186 -32.564322224684986 7.1842855727484292 #
straight-curve $-1 0 32.564322224684986 7.1842855727484292 -1 0 0 I I #
point $-1 -64.948271126438186 32.564322224684986 7.1842855727484292 #
straight-curve $-1 64.948271126438186 -27.285539753007036 90.462967227122249 0 0 -1 I I #
straight-curve $-1 0 -32.564322224684986 7.1842855727484292 1 0 0 I I #
End-of-ACIS-data 