500 0 11 0           
7 Unknown 11 ACIS 5.0 NT 24 Fri Mar 26 16:48:00 1999 
-1 9.9999999999999995e-007 1e-010 
body $-1 $11 $-1 $12 #
body $-1 $13 $-1 $14 #
body $-1 $15 $-1 $16 #
body $-1 $17 $-1 $18 #
body $-1 $19 $-1 $20 #
body $-1 $21 $-1 $22 #
body $-1 $23 $-1 $24 #
body $-1 $25 $-1 $26 #
body $-1 $27 $-1 $28 #
body $-1 $29 $-1 $30 #
body $-1 $31 $-1 $32 #
lump $-1 $-1 $33 $0 #
transform $-1 1 0 0 0 1 0 0 0 1 55.454573198644979 33.751182831606705 13.751183844676529 1 rotate no_reflect no_shear #
lump $-1 $-1 $34 $1 #
transform $-1 1 0 0 0 1 0 0 0 1 55.454573198644979 33.751182831606705 13.751183844676529 1 rotate no_reflect no_shear #
lump $-1 $-1 $35 $2 #
transform $-1 1 0 0 0 1 0 0 0 1 55.454573198644979 33.751182831606705 13.751183844676529 1 rotate no_reflect no_shear #
lump $-1 $-1 $36 $3 #
transform $-1 1 0 0 0 1 0 0 0 1 55.454573198644979 33.751182831606705 13.751183844676529 1 rotate no_reflect no_shear #
lump $-1 $-1 $37 $4 #
transform $-1 1 0 0 0 1 0 0 0 1 55.454573198644979 33.751182831606705 13.751183844676529 1 rotate no_reflect no_shear #
lump $-1 $-1 $38 $5 #
transform $-1 1 0 0 0 1 0 0 0 1 55.454573198644979 33.751182831606705 13.751183844676529 1 rotate no_reflect no_shear #
lump $-1 $-1 $39 $6 #
transform $-1 1 0 0 0 1 0 0 0 1 55.454573198644979 33.751182831606705 13.751183844676529 1 rotate no_reflect no_shear #
lump $-1 $-1 $40 $7 #
transform $-1 1 0 0 0 1 0 0 0 1 55.454573198644979 33.751182831606705 13.751183844676529 1 rotate no_reflect no_shear #
lump $-1 $-1 $41 $8 #
transform $-1 1 0 0 0 1 0 0 0 1 55.454573198644979 33.751182831606705 13.751183844676529 1 rotate no_reflect no_shear #
lump $-1 $-1 $42 $9 #
transform $-1 1 0 0 0 1 0 0 0 1 55.454573198644979 33.751182831606705 13.751183844676529 1 rotate no_reflect no_shear #
lump $-1 $-1 $43 $10 #
transform $-1 1 0 0 0 1 0 0 0 1 55.454573198644979 33.751182831606705 13.751183844676529 1 rotate no_reflect no_shear #
shell $-1 $-1 $-1 $44 $-1 $11 #
shell $-1 $-1 $-1 $45 $-1 $13 #
shell $-1 $-1 $-1 $46 $-1 $15 #
shell $-1 $-1 $-1 $47 $-1 $17 #
shell $-1 $-1 $-1 $48 $-1 $19 #
shell $-1 $-1 $-1 $49 $-1 $21 #
shell $-1 $-1 $-1 $50 $-1 $23 #
shell $-1 $-1 $-1 $51 $-1 $25 #
shell $-1 $-1 $-1 $52 $-1 $27 #
shell $-1 $-1 $-1 $53 $-1 $29 #
shell $-1 $-1 $-1 $54 $-1 $31 #
face $-1 $55 $56 $33 $-1 $57 forward single #
face $-1 $58 $59 $34 $-1 $60 reversed single #
face $-1 $61 $62 $35 $-1 $63 reversed single #
face $-1 $64 $65 $36 $-1 $66 reversed single #
face $-1 $67 $68 $37 $-1 $69 forward single #
face $-1 $70 $71 $38 $-1 $72 forward single #
face $-1 $73 $74 $39 $-1 $75 forward single #
face $-1 $76 $77 $40 $-1 $78 reversed single #
face $-1 $79 $80 $41 $-1 $81 forward single #
face $-1 $82 $83 $42 $-1 $84 forward single #
face $-1 $85 $86 $43 $-1 $87 forward single #
face $-1 $88 $89 $33 $-1 $90 reversed single #
loop $-1 $-1 $91 $44 #
plane-surface $-1 0 0 13.751183844676529 0 0 1 1 0 0 forward_v I I I I #
face $-1 $92 $93 $34 $-1 $94 reversed single #
loop $-1 $-1 $95 $45 #
plane-surface $-1 0 -26.471889355533737 5.6099223353403751 0 0 1 1 0 0 forward_v I I I I #
face $-1 $96 $97 $35 $-1 $98 reversed single #
loop $-1 $-1 $99 $46 #
plane-surface $-1 0 26.47188935553374 5.6099223353403751 0 0 1 1 0 0 forward_v I I I I #
face $-1 $100 $101 $36 $-1 $102 reversed single #
loop $-1 $-1 $103 $47 #
plane-surface $-1 52.717178657967011 7.6221116014512358 165.21051203155963 0 -1 0 -0.69465837861970381 0 -0.71933979245794832 forward_v I I I I #
face $-1 $104 $105 $37 $-1 $106 forward single #
loop $-1 $107 $108 $48 #
cone-surface $-1 51.798651761106584 -1.2901744370676056 10.159409089570159 -0.69465837861970381 0 -0.71933979245794832 0.71933979245794832 0 -0.69465837861970381 1 I I 0 1 1 forward I I I I #
face $-1 $109 $110 $38 $-1 $111 forward single #
loop $-1 $112 $113 $49 #
cone-surface $-1 51.798651761106584 2.0519328273769588 10.159409089570159 -0.69465837861970381 0 -0.71933979245794832 0.71933979245794832 0 -0.69465837861970381 1 I I 0 1 1 forward I I I I #
face $-1 $114 $115 $39 $-1 $116 forward single #
loop $-1 $117 $118 $50 #
cone-surface $-1 51.798651761106584 5.3940400918215232 10.159409089570159 -0.69465837861970381 0 -0.71933979245794832 0.71933979245794832 0 -0.69465837861970381 1 I I 0 1 1 forward I I I I #
face $-1 $119 $120 $40 $-1 $121 reversed single #
loop $-1 $-1 $122 $51 #
plane-surface $-1 -132.49854100908178 -3.5182459466973182 88.166544221122791 0 1 0 -0.69465837861970381 0 0.71933979245794832 forward_v I I I I #
face $-1 $123 $124 $41 $-1 $125 forward single #
loop $-1 $126 $127 $52 #
cone-surface $-1 -51.798651761106584 -1.2901744370676056 10.159409089570159 0.69465837861970381 0 -0.71933979245794832 0.71933979245794832 0 0.69465837861970381 1 I I 0 1 1 forward I I I I #
face $-1 $128 $129 $42 $-1 $130 forward single #
loop $-1 $131 $132 $53 #
cone-surface $-1 -51.798651761106584 2.0519328273769588 10.159409089570159 0.69465837861970381 0 -0.71933979245794832 0.71933979245794832 0 0.69465837861970381 1 I I 0 1 1 forward I I I I #
face $-1 $133 $134 $43 $-1 $135 forward single #
loop $-1 $136 $137 $54 #
cone-surface $-1 -51.798651761106584 5.3940400918215232 10.159409089570159 0.69465837861970381 0 -0.71933979245794832 0.71933979245794832 0 0.69465837861970381 1 I I 0 1 1 forward I I I I #
face $-1 $138 $139 $33 $-1 $140 reversed single #
loop $-1 $-1 $141 $55 #
plane-surface $-1 0 0 -13.751183844676529 0 0 1 1 0 0 forward_v I I I I #
coedge $-1 $142 $143 $144 $145 forward $56 $-1 #
face $-1 $146 $147 $34 $-1 $148 reversed single #
loop $-1 $-1 $149 $58 #
plane-surface $-1 0 -19.192595879460768 9.680553090008452 0 -1 0 0 0 -1 forward_v I I I I #
coedge $-1 $150 $151 $152 $153 reversed $59 $-1 #
face $-1 $154 $155 $35 $-1 $156 forward single #
loop $-1 $-1 $157 $61 #
plane-surface $-1 0 19.192595879460772 9.680553090008452 0 1 0 0 0 1 forward_v I I I I #
coedge $-1 $158 $159 $160 $161 reversed $62 $-1 #
face $-1 $162 $163 $36 $-1 $164 reversed single #
loop $-1 $-1 $165 $64 #
plane-surface $-1 -24.3267891524698 2.0519328273769588 85.429149680444866 0.69465837861970381 0 0.71933979245794832 0.71933979245794832 0 -0.69465837861970381 forward_v I I I I #
coedge $-1 $166 $167 $168 $169 reversed $65 $-1 #
face $-1 $-1 $170 $37 $-1 $171 forward single #
loop $-1 $172 $173 $67 #
cone-surface $-1 50.57372992549584 -1.2901744370676056 8.8909654255690604 -0.69465837861970381 0 -0.71933979245794832 0.35966989622897416 0 -0.3473291893098519 1 I I -0.70710678118654746 0.70710678118654746 0.5 forward I I I I #
loop $-1 $-1 $174 $48 #
coedge $-1 $108 $108 $175 $176 reversed $68 $-1 #
face $-1 $-1 $177 $38 $-1 $178 forward single #
loop $-1 $179 $180 $70 #
cone-surface $-1 50.57372992549584 2.0519328273769588 8.8909654255690604 -0.69465837861970381 0 -0.71933979245794832 0.35966989622897416 0 -0.3473291893098519 1 I I -0.70710678118654746 0.70710678118654746 0.5 forward I I I I #
loop $-1 $-1 $181 $49 #
coedge $-1 $113 $113 $182 $183 reversed $71 $-1 #
face $-1 $-1 $184 $39 $-1 $185 forward single #
loop $-1 $186 $187 $73 #
cone-surface $-1 50.57372992549584 5.3940400918215232 8.8909654255690604 -0.69465837861970381 0 -0.71933979245794832 0.35966989622897416 0 -0.3473291893098519 1 I I -0.70710678118654746 0.70710678118654746 0.5 forward I I I I #
loop $-1 $-1 $188 $50 #
coedge $-1 $118 $118 $189 $190 reversed $74 $-1 #
face $-1 $191 $192 $40 $-1 $193 reversed single #
loop $-1 $-1 $194 $76 #
plane-surface $-1 -55.454573198644965 2.0519328273769588 8.3851818700080258 -0.69465837861970381 0 0.71933979245794832 0.71933979245794832 0 0.69465837861970381 forward_v I I I I #
coedge $-1 $195 $196 $197 $198 reversed $77 $-1 #
face $-1 $-1 $199 $41 $-1 $200 forward single #
loop $-1 $201 $202 $79 #
cone-surface $-1 -50.57372992549584 -1.2901744370676056 8.8909654255690604 0.69465837861970381 0 -0.71933979245794832 0.35966989622897416 0 0.3473291893098519 1 I I -0.70710678118654746 0.70710678118654746 0.5 forward I I I I #
loop $-1 $-1 $203 $52 #
coedge $-1 $127 $127 $204 $205 reversed $80 $-1 #
face $-1 $-1 $206 $42 $-1 $207 forward single #
loop $-1 $208 $209 $82 #
cone-surface $-1 -50.57372992549584 2.0519328273769588 8.8909654255690604 0.69465837861970381 0 -0.71933979245794832 0.35966989622897416 0 0.3473291893098519 1 I I -0.70710678118654746 0.70710678118654746 0.5 forward I I I I #
loop $-1 $-1 $210 $53 #
coedge $-1 $132 $132 $211 $212 reversed $83 $-1 #
face $-1 $-1 $213 $43 $-1 $214 forward single #
loop $-1 $215 $216 $85 #
cone-surface $-1 -50.57372992549584 5.3940400918215232 8.8909654255690604 0.69465837861970381 0 -0.71933979245794832 0.35966989622897416 0 0.3473291893098519 1 I I -0.70710678118654746 0.70710678118654746 0.5 forward I I I I #
loop $-1 $-1 $217 $54 #
coedge $-1 $137 $137 $218 $219 reversed $86 $-1 #
face $-1 $220 $221 $33 $-1 $222 reversed single #
loop $-1 $-1 $223 $88 #
plane-surface $-1 0 -33.751182831606705 0 0 1 0 0 0 1 forward_v I I I I #
coedge $-1 $224 $225 $226 $227 forward $89 $-1 #
coedge $-1 $228 $91 $229 $230 forward $56 $-1 #
coedge $-1 $91 $228 $231 $232 forward $56 $-1 #
coedge $-1 $233 $234 $91 $145 reversed $235 $-1 #
edge $-1 $236 -33.751182831606705 $237 33.751182831606705 $144 $238 forward 7 unknown #
face $-1 $239 $240 $34 $-1 $241 reversed single #
loop $-1 $-1 $242 $92 #
plane-surface $-1 -55.454573198644979 0 0 1 0 0 0 0 -1 forward_v I I I I #
coedge $-1 $243 $244 $245 $246 reversed $93 $-1 #
coedge $-1 $247 $95 $248 $249 reversed $59 $-1 #
coedge $-1 $95 $247 $243 $250 forward $59 $-1 #
coedge $-1 $245 $251 $95 $153 forward $252 $-1 #
edge $-1 $253 -20.515238153839839 $254 -5.9566512016938997 $152 $255 forward 7 unknown #
face $-1 $256 $257 $35 $-1 $258 reversed single #
loop $-1 $-1 $259 $96 #
plane-surface $-1 0 0 13.751183844676529 0 0 1 1 0 0 forward_v I I I I #
coedge $-1 $260 $261 $262 $263 reversed $97 $-1 #
coedge $-1 $264 $99 $260 $265 forward $62 $-1 #
coedge $-1 $99 $264 $266 $267 reversed $62 $-1 #
coedge $-1 $268 $269 $99 $161 forward $257 $-1 #
edge $-1 $270 5.9566512016939015 $271 20.515238153839842 $160 $272 forward 7 unknown #
face $-1 $273 $274 $36 $-1 $275 forward single #
loop $-1 $-1 $276 $100 #
plane-surface $-1 52.717178657967011 -3.5182459466973182 165.21051203155963 0 1 0 0.69465837861970381 0 0.71933979245794832 forward_v I I I I #
coedge $-1 $277 $278 $279 $280 reversed $101 $-1 #
coedge $-1 $167 $103 $281 $282 reversed $65 $-1 #
coedge $-1 $103 $166 $277 $283 reversed $65 $-1 #
coedge $-1 $279 $284 $103 $169 forward $274 $-1 #
edge $-1 $285 -29.095983869661474 $286 -23.539326287186462 $168 $287 forward 7 unknown #
loop $-1 $-1 $175 $104 #
plane-surface $-1 -24.3267891524698 2.0519328273769588 85.429149680444866 0.69465837861970381 0 0.71933979245794832 0.71933979245794832 0 -0.69465837861970381 forward_v I I I I #
loop $-1 $-1 $288 $67 #
coedge $-1 $173 $173 $174 $289 reversed $105 $-1 #
coedge $-1 $174 $174 $173 $289 forward $107 $-1 #
coedge $-1 $175 $175 $108 $176 forward $170 $-1 #
edge $-1 $290 0 $290 6.2831853071796004 $175 $291 forward 7 unknown #
loop $-1 $-1 $182 $109 #
plane-surface $-1 -24.3267891524698 2.0519328273769588 85.429149680444866 0.69465837861970381 0 0.71933979245794832 0.71933979245794832 0 -0.69465837861970381 forward_v I I I I #
loop $-1 $-1 $292 $70 #
coedge $-1 $180 $180 $181 $293 reversed $110 $-1 #
coedge $-1 $181 $181 $180 $293 forward $112 $-1 #
coedge $-1 $182 $182 $113 $183 forward $177 $-1 #
edge $-1 $294 0 $294 6.2831853071796004 $182 $295 forward 7 unknown #
loop $-1 $-1 $189 $114 #
plane-surface $-1 -24.3267891524698 2.0519328273769588 85.429149680444866 0.69465837861970381 0 0.71933979245794832 0.71933979245794832 0 -0.69465837861970381 forward_v I I I I #
loop $-1 $-1 $296 $73 #
coedge $-1 $187 $187 $188 $297 reversed $115 $-1 #
coedge $-1 $188 $188 $187 $297 forward $117 $-1 #
coedge $-1 $189 $189 $118 $190 forward $184 $-1 #
edge $-1 $298 0 $298 6.2831853071796004 $189 $299 forward 7 unknown #
face $-1 $300 $301 $40 $-1 $302 reversed single #
loop $-1 $-1 $303 $119 #
plane-surface $-1 -132.49854100908178 7.6221116014512358 88.166544221122791 0 -1 0 0.69465837861970381 0 -0.71933979245794832 forward_v I I I I #
coedge $-1 $304 $305 $306 $307 reversed $120 $-1 #
coedge $-1 $196 $122 $308 $309 reversed $77 $-1 #
coedge $-1 $122 $195 $304 $310 reversed $77 $-1 #
coedge $-1 $306 $311 $122 $198 forward $312 $-1 #
edge $-1 $313 10.794697305895909 $314 16.351354888370942 $197 $315 forward 7 unknown #
loop $-1 $-1 $204 $123 #
plane-surface $-1 -55.454573198644965 2.0519328273769588 8.3851818700080258 -0.69465837861970381 0 0.71933979245794832 0.71933979245794832 0 0.69465837861970381 forward_v I I I I #
loop $-1 $-1 $316 $79 #
coedge $-1 $202 $202 $203 $317 reversed $124 $-1 #
coedge $-1 $203 $203 $202 $317 forward $126 $-1 #
coedge $-1 $204 $204 $127 $205 forward $199 $-1 #
edge $-1 $318 0 $318 6.2831853071796004 $204 $319 forward 7 unknown #
loop $-1 $-1 $211 $128 #
plane-surface $-1 -55.454573198644965 2.0519328273769588 8.3851818700080258 -0.69465837861970381 0 0.71933979245794832 0.71933979245794832 0 0.69465837861970381 forward_v I I I I #
loop $-1 $-1 $320 $82 #
coedge $-1 $209 $209 $210 $321 reversed $129 $-1 #
coedge $-1 $210 $210 $209 $321 forward $131 $-1 #
coedge $-1 $211 $211 $132 $212 forward $206 $-1 #
edge $-1 $322 0 $322 6.2831853071796004 $211 $323 forward 7 unknown #
loop $-1 $-1 $218 $133 #
plane-surface $-1 -55.454573198644965 2.0519328273769588 8.3851818700080258 -0.69465837861970381 0 0.71933979245794832 0.71933979245794832 0 0.69465837861970381 forward_v I I I I #
loop $-1 $-1 $324 $85 #
coedge $-1 $216 $216 $217 $325 reversed $134 $-1 #
coedge $-1 $217 $217 $216 $325 forward $136 $-1 #
coedge $-1 $218 $218 $137 $219 forward $213 $-1 #
edge $-1 $326 0 $326 6.2831853071796004 $218 $327 forward 7 unknown #
face $-1 $328 $329 $33 $-1 $330 reversed single #
loop $-1 $-1 $331 $138 #
plane-surface $-1 -55.454573198644979 0 0 1 0 0 0 0 -1 forward_v I I I I #
coedge $-1 $332 $231 $333 $334 forward $139 $-1 #
coedge $-1 $335 $141 $332 $336 forward $89 $-1 #
coedge $-1 $141 $335 $337 $338 forward $89 $-1 #
coedge $-1 $234 $233 $141 $227 reversed $235 $-1 #
edge $-1 $339 -33.751182831606705 $340 33.751182831606705 $226 $341 forward 7 unknown #
coedge $-1 $143 $142 $342 $343 forward $56 $-1 #
coedge $-1 $344 $345 $142 $230 reversed $329 $-1 #
edge $-1 $237 -55.454573198644979 $346 55.454573198644979 $229 $347 forward 7 unknown #
coedge $-1 $223 $348 $143 $232 reversed $139 $-1 #
edge $-1 $349 -55.454573198644979 $236 55.454573198644979 $231 $350 forward 7 unknown #
coedge $-1 $226 $144 $348 $351 forward $235 $-1 #
coedge $-1 $144 $226 $344 $352 reversed $235 $-1 #
loop $-1 $-1 $233 $328 #
vertex $-1 $145 $353 #
vertex $-1 $145 $354 #
straight-curve $-1 55.454573198644979 0 13.751183844676529 0 1 0 I I #
face $-1 $355 $356 $34 $-1 $357 forward single #
loop $-1 $-1 $248 $146 #
plane-surface $-1 0 -33.751182831606705 0 0 1 0 0 0 1 forward_v I I I I #
coedge $-1 $358 $359 $360 $361 forward $147 $-1 #
coedge $-1 $360 $149 $151 $250 reversed $93 $-1 #
coedge $-1 $149 $360 $362 $363 reversed $93 $-1 #
coedge $-1 $364 $152 $149 $246 forward $252 $-1 #
edge $-1 $254 0.7696457903361491 $365 8.9109072996723029 $245 $366 forward 7 unknown #
coedge $-1 $151 $150 $358 $367 reversed $59 $-1 #
coedge $-1 $368 $369 $150 $249 forward $240 $-1 #
edge $-1 $370 -55.454573198644979 $253 55.454573198644979 $248 $371 forward 7 unknown #
edge $-1 $372 -55.454573198644979 $254 55.454573198644979 $243 $373 forward 7 unknown #
coedge $-1 $152 $364 $368 $374 forward $252 $-1 #
loop $-1 $-1 $245 $355 #
vertex $-1 $249 $375 #
vertex $-1 $153 $376 #
straight-curve $-1 55.454573198644979 -13.235944677766868 5.6099223353403751 0 1 0 I I #
face $-1 $377 $378 $35 $-1 $379 reversed single #
loop $-1 $-1 $269 $154 #
plane-surface $-1 55.454573198644979 0 0 -1 0 0 0 0 1 forward_v I I I I #
coedge $-1 $380 $381 $261 $382 forward $155 $-1 #
coedge $-1 $383 $157 $158 $265 reversed $97 $-1 #
coedge $-1 $157 $383 $259 $382 reversed $97 $-1 #
coedge $-1 $384 $385 $157 $263 forward $378 $-1 #
edge $-1 $386 0.7696457903361491 $387 8.9109072996723029 $262 $388 forward 7 unknown #
coedge $-1 $159 $158 $385 $389 reversed $62 $-1 #
edge $-1 $270 -55.454573198644979 $386 55.454573198644979 $260 $390 forward 7 unknown #
coedge $-1 $391 $392 $159 $267 forward $393 $-1 #
edge $-1 $271 -55.454573198644979 $394 55.454573198644979 $266 $395 forward 7 unknown #
coedge $-1 $396 $160 $392 $397 reversed $257 $-1 #
coedge $-1 $160 $396 $383 $398 forward $257 $-1 #
vertex $-1 $161 $399 #
vertex $-1 $267 $400 #
straight-curve $-1 55.454573198644979 13.23594467776687 5.6099223353403751 0 1 0 I I #
face $-1 $-1 $401 $36 $-1 $402 reversed single #
loop $-1 $-1 $168 $162 #
plane-surface $-1 0 0 13.751183844676529 0 0 1 1 0 0 forward_v I I I I #
coedge $-1 $403 $404 $405 $406 reversed $163 $-1 #
coedge $-1 $407 $165 $167 $283 forward $101 $-1 #
coedge $-1 $165 $407 $403 $408 forward $101 $-1 #
coedge $-1 $405 $168 $165 $280 forward $274 $-1 #
edge $-1 $286 -6.5961451877627564 $409 4.5442123603857976 $279 $410 forward 7 unknown #
coedge $-1 $411 $412 $166 $282 forward $401 $-1 #
edge $-1 $413 -74.220074145771761 $285 -68.854072171103283 $281 $414 forward 7 unknown #
edge $-1 $286 103.18448325375917 $413 110.90914639728996 $167 $415 forward 7 unknown #
coedge $-1 $168 $405 $411 $416 forward $274 $-1 #
vertex $-1 $282 $417 #
vertex $-1 $169 $418 #
straight-curve $-1 26.358589328983506 7.6221116014512358 13.751183844676532 -1 0 0 I I #
coedge $-1 $288 $288 $-1 $419 reversed $172 $-1 #
edge $-1 $420 0 $420 6.2831853071796004 $173 $421 forward 7 unknown #
vertex $-1 $176 $422 #
ellipse-curve $-1 52.676244407407481 -1.2901744370676056 11.06818285734229 0.69465837861970381 0 0.71933979245794832 0.71933979245794832 0 -0.69465837861970381 1 I I #
coedge $-1 $292 $292 $-1 $423 reversed $179 $-1 #
edge $-1 $424 0 $424 6.2831853071796004 $180 $425 forward 7 unknown #
vertex $-1 $183 $426 #
ellipse-curve $-1 52.676244407407481 2.0519328273769588 11.06818285734229 0.69465837861970381 0 0.71933979245794832 0.71933979245794832 0 -0.69465837861970381 1 I I #
coedge $-1 $296 $296 $-1 $427 reversed $186 $-1 #
edge $-1 $428 0 $428 6.2831853071796004 $187 $429 forward 7 unknown #
vertex $-1 $190 $430 #
ellipse-curve $-1 52.676244407407481 5.3940400918215232 11.06818285734229 0.69465837861970381 0 0.71933979245794832 0.71933979245794832 0 -0.69465837861970381 1 I I #
face $-1 $-1 $312 $40 $-1 $431 forward single #
loop $-1 $-1 $432 $191 #
plane-surface $-1 -55.454573198644979 0 0 1 0 0 0 0 -1 forward_v I I I I #
coedge $-1 $433 $434 $435 $436 reversed $192 $-1 #
coedge $-1 $437 $194 $196 $310 forward $120 $-1 #
coedge $-1 $194 $437 $433 $438 forward $120 $-1 #
coedge $-1 $435 $197 $194 $307 forward $312 $-1 #
edge $-1 $314 -4.5442123603857976 $439 6.5961451877627564 $306 $440 forward 7 unknown #
coedge $-1 $441 $442 $195 $309 forward $301 $-1 #
edge $-1 $443 -35.698090240553384 $313 -30.332088265884867 $308 $444 forward 7 unknown #
edge $-1 $314 -7.7246631435308162 $443 2.0094122576745862e-014 $196 $445 forward 7 unknown #
coedge $-1 $197 $435 $441 $446 forward $312 $-1 #
loop $-1 $-1 $435 $300 #
vertex $-1 $309 $447 #
vertex $-1 $198 $448 #
straight-curve $-1 -66.249270504540888 -3.5182459466973182 13.751183844676525 1 0 0 I I #
coedge $-1 $316 $316 $-1 $449 reversed $201 $-1 #
edge $-1 $450 0 $450 6.2831853071796004 $202 $451 forward 7 unknown #
vertex $-1 $205 $452 #
ellipse-curve $-1 -52.676244407407459 -1.2901744370676056 11.068182857342272 -0.69465837861970381 0 0.71933979245794832 0.71933979245794832 0 0.69465837861970381 1 I I #
coedge $-1 $320 $320 $-1 $453 reversed $208 $-1 #
edge $-1 $454 0 $454 6.2831853071796004 $209 $455 forward 7 unknown #
vertex $-1 $212 $456 #
ellipse-curve $-1 -52.676244407407459 2.0519328273769588 11.068182857342272 -0.69465837861970381 0 0.71933979245794832 0.71933979245794832 0 0.69465837861970381 1 I I #
coedge $-1 $324 $324 $-1 $457 reversed $215 $-1 #
edge $-1 $458 0 $458 6.2831853071796004 $216 $459 forward 7 unknown #
vertex $-1 $219 $460 #
ellipse-curve $-1 -52.676244407407459 5.3940400918215232 11.068182857342272 -0.69465837861970381 0 0.71933979245794832 0.71933979245794832 0 0.69465837861970381 1 I I #
face $-1 $-1 $235 $33 $-1 $461 reversed single #
loop $-1 $-1 $344 $220 #
plane-surface $-1 0 33.751182831606705 0 0 -1 0 0 0 -1 forward_v I I I I #
coedge $-1 $462 $342 $345 $463 forward $221 $-1 #
coedge $-1 $348 $223 $224 $336 reversed $139 $-1 #
coedge $-1 $342 $462 $223 $334 reversed $221 $-1 #
edge $-1 $349 -13.751183844676529 $464 13.751183844676529 $333 $465 forward 7 unknown #
coedge $-1 $225 $224 $462 $466 forward $89 $-1 #
edge $-1 $340 -55.454573198644979 $464 55.454573198644979 $332 $467 forward 7 unknown #
coedge $-1 $345 $344 $225 $338 reversed $329 $-1 #
edge $-1 $468 -55.454573198644979 $339 55.454573198644979 $337 $469 forward 7 unknown #
vertex $-1 $227 $470 #
vertex $-1 $351 $471 #
straight-curve $-1 55.454573198644979 0 -13.751183844676529 0 -1 0 I I #
coedge $-1 $331 $333 $228 $343 reversed $221 $-1 #
edge $-1 $346 -33.751182831606705 $349 33.751182831606705 $342 $472 forward 7 unknown #
coedge $-1 $337 $229 $234 $352 forward $329 $-1 #
coedge $-1 $229 $337 $331 $463 reversed $329 $-1 #
vertex $-1 $230 $473 #
straight-curve $-1 0 33.751182831606705 13.751183844676529 -1 0 0 I I #
coedge $-1 $231 $332 $233 $351 reversed $139 $-1 #
vertex $-1 $343 $474 #
straight-curve $-1 0 -33.751182831606705 13.751183844676529 1 0 0 I I #
edge $-1 $236 -13.751183844676529 $340 13.751183844676529 $233 $475 forward 7 unknown #
edge $-1 $237 -13.751183844676529 $339 13.751183844676529 $234 $476 forward 7 unknown #
point $-1 55.454573198644979 -33.751182831606705 13.751183844676529 #
point $-1 55.454573198644979 33.751182831606705 13.751183844676529 #
face $-1 $-1 $252 $34 $-1 $477 reversed single #
loop $-1 $-1 $362 $239 #
plane-surface $-1 0 0 13.751183844676529 0 0 1 1 0 0 forward_v I I I I #
coedge $-1 $478 $242 $247 $367 forward $147 $-1 #
coedge $-1 $242 $478 $479 $480 reversed $147 $-1 #
coedge $-1 $244 $243 $242 $361 reversed $93 $-1 #
edge $-1 $481 -8.9109072996723029 $372 -0.7696457903361491 $242 $482 forward 7 unknown #
coedge $-1 $479 $483 $244 $363 forward $356 $-1 #
edge $-1 $365 -55.454573198644979 $481 55.454573198644979 $362 $484 forward 7 unknown #
coedge $-1 $251 $245 $483 $485 reversed $252 $-1 #
vertex $-1 $246 $486 #
straight-curve $-1 55.454573198644979 -19.192595879460768 4.840276545004226 0 0 1 I I #
edge $-1 $372 5.9566512016938997 $370 20.515238153839839 $358 $487 forward 7 unknown #
coedge $-1 $488 $248 $251 $374 reversed $240 $-1 #
coedge $-1 $248 $488 $478 $489 forward $240 $-1 #
vertex $-1 $249 $490 #
straight-curve $-1 0 -33.751182831606705 5.6099223353403751 1 0 0 I I #
vertex $-1 $367 $491 #
straight-curve $-1 0 -19.192595879460768 5.6099223353403751 1 0 0 I I #
edge $-1 $492 -13.751183844676529 $253 -5.6099223353403751 $251 $493 forward 7 unknown #
point $-1 55.454573198644979 -33.751182831606705 5.6099223353403751 #
point $-1 55.454573198644979 -19.192595879460768 5.6099223353403751 #
face $-1 $-1 $393 $35 $-1 $494 reversed single #
loop $-1 $-1 $262 $256 #
plane-surface $-1 -55.454573198644979 0 0 1 0 0 0 0 -1 forward_v I I I I #
coedge $-1 $495 $259 $396 $496 forward $155 $-1 #
coedge $-1 $259 $495 $384 $497 forward $155 $-1 #
edge $-1 $387 -55.454573198644979 $498 55.454573198644979 $259 $499 forward 7 unknown #
coedge $-1 $261 $260 $269 $398 reversed $97 $-1 #
coedge $-1 $500 $262 $381 $497 reversed $378 $-1 #
coedge $-1 $262 $500 $264 $389 forward $378 $-1 #
vertex $-1 $389 $501 #
vertex $-1 $263 $502 #
straight-curve $-1 -55.454573198644979 19.192595879460772 4.840276545004226 0 0 1 I I #
edge $-1 $394 -20.515238153839842 $386 -5.9566512016939015 $385 $503 forward 7 unknown #
straight-curve $-1 0 19.192595879460772 5.6099223353403751 -1 0 0 I I #
coedge $-1 $504 $266 $500 $505 reversed $393 $-1 #
coedge $-1 $266 $504 $268 $397 forward $393 $-1 #
loop $-1 $-1 $266 $377 #
vertex $-1 $267 $506 #
straight-curve $-1 0 33.751182831606705 5.6099223353403751 -1 0 0 I I #
coedge $-1 $269 $268 $380 $496 reversed $257 $-1 #
edge $-1 $507 -13.751183844676529 $271 -5.6099223353403751 $268 $508 forward 7 unknown #
edge $-1 $498 -8.9109072996723029 $270 -0.7696457903361491 $269 $509 forward 7 unknown #
point $-1 55.454573198644979 19.192595879460772 5.6099223353403751 #
point $-1 55.454573198644979 33.751182831606712 5.6099223353403751 #
loop $-1 $-1 $281 $273 #
plane-surface $-1 55.454573198644979 0 0 -1 0 0 0 0 1 forward_v I I I I #
coedge $-1 $404 $276 $278 $408 reversed $163 $-1 #
coedge $-1 $276 $403 $510 $511 reversed $163 $-1 #
coedge $-1 $284 $279 $276 $406 forward $274 $-1 #
edge $-1 $409 23.539326287186462 $512 29.095983869661474 $405 $513 forward 7 unknown #
coedge $-1 $278 $277 $412 $514 reversed $101 $-1 #
edge $-1 $515 -110.90914639728996 $409 -103.18448325375917 $403 $516 forward 7 unknown #
vertex $-1 $280 $517 #
straight-curve $-1 49.897915616169975 1.0259664136884794 13.751183844676532 0 -1 0 I I #
coedge $-1 $510 $281 $284 $416 reversed $401 $-1 #
coedge $-1 $281 $510 $407 $514 forward $401 $-1 #
vertex $-1 $282 $518 #
straight-curve $-1 55.454573198644979 7.6221116014512358 82.605256015779815 0 0 1 I I #
straight-curve $-1 -24.3267891524698 7.6221116014512358 85.429149680444866 0.71933979245794832 0 -0.69465837861970381 I I #
edge $-1 $512 -3.5182459466973182 $285 7.6221116014512358 $411 $519 forward 7 unknown #
point $-1 55.454573198644979 7.6221116014512358 13.751183844676529 #
point $-1 49.897915616169968 7.6221116014512358 13.751183844676532 #
edge $-1 $520 1 $520 0 $288 $-1 forward 7 unknown #
vertex $-1 $289 $521 #
ellipse-curve $-1 50.921059114805693 -1.2901744370676056 9.2506353217980344 0.69465837861970381 0 0.71933979245794832 0.71933979245794832 0 -0.69465837861970381 1 I I #
point $-1 53.395584199865418 -1.2901744370676056 10.373524478722581 #
edge $-1 $522 1 $522 0 $292 $-1 forward 7 unknown #
vertex $-1 $293 $523 #
ellipse-curve $-1 50.921059114805693 2.0519328273769588 9.2506353217980344 0.69465837861970381 0 0.71933979245794832 0.71933979245794832 0 -0.69465837861970381 1 I I #
point $-1 53.395584199865418 2.0519328273769588 10.373524478722581 #
edge $-1 $524 1 $524 0 $296 $-1 forward 7 unknown #
vertex $-1 $297 $525 #
ellipse-curve $-1 50.921059114805693 5.3940400918215232 9.2506353217980344 0.69465837861970381 0 0.71933979245794832 0.71933979245794832 0 -0.69465837861970381 1 I I #
point $-1 53.395584199865418 5.3940400918215232 10.373524478722581 #
plane-surface $-1 0 0 13.751183844676529 0 0 1 1 0 0 forward_v I I I I #
coedge $-1 $442 $441 $434 $526 forward $301 $-1 #
coedge $-1 $434 $303 $305 $438 reversed $192 $-1 #
coedge $-1 $303 $433 $432 $526 reversed $192 $-1 #
coedge $-1 $311 $306 $303 $436 forward $312 $-1 #
edge $-1 $439 -16.351354888370942 $527 -10.794697305895909 $435 $528 forward 7 unknown #
coedge $-1 $305 $304 $442 $529 reversed $120 $-1 #
edge $-1 $530 -2.0094122576745862e-014 $439 7.7246631435308162 $433 $531 forward 7 unknown #
vertex $-1 $307 $532 #
straight-curve $-1 -49.897915616169939 1.0259664136884794 13.751183844676529 0 1 0 I I #
coedge $-1 $432 $308 $311 $446 reversed $301 $-1 #
coedge $-1 $308 $432 $437 $529 forward $301 $-1 #
vertex $-1 $309 $533 #
straight-curve $-1 -55.454573198644979 -3.5182459466973182 44.083272110561396 0 0 1 I I #
straight-curve $-1 -55.454573198644965 -3.5182459466973182 8.3851818700080258 -0.71933979245794832 0 -0.69465837861970381 I I #
edge $-1 $527 -7.6221116014512358 $313 3.5182459466973182 $441 $534 forward 7 unknown #
point $-1 -55.454573198644979 -3.5182459466973182 13.751183844676529 #
point $-1 -49.897915616169946 -3.5182459466973182 13.751183844676529 #
edge $-1 $535 1 $535 0 $316 $-1 forward 7 unknown #
vertex $-1 $317 $536 #
ellipse-curve $-1 -50.921059114805693 -1.2901744370676056 9.2506353217980344 -0.69465837861970381 0 0.71933979245794832 0.71933979245794832 0 0.69465837861970381 1 I I #
point $-1 -51.956904614949522 -1.2901744370676056 11.762841235961989 #
edge $-1 $537 1 $537 0 $320 $-1 forward 7 unknown #
vertex $-1 $321 $538 #
ellipse-curve $-1 -50.921059114805693 2.0519328273769588 9.2506353217980344 -0.69465837861970381 0 0.71933979245794832 0.71933979245794832 0 0.69465837861970381 1 I I #
point $-1 -51.956904614949522 2.0519328273769588 11.762841235961989 #
edge $-1 $539 1 $539 0 $324 $-1 forward 7 unknown #
vertex $-1 $325 $540 #
ellipse-curve $-1 -50.921059114805693 5.3940400918215232 9.2506353217980344 -0.69465837861970381 0 0.71933979245794832 0.71933979245794832 0 0.69465837861970381 1 I I #
point $-1 -51.956904614949522 5.3940400918215232 11.762841235961989 #
plane-surface $-1 55.454573198644979 0 0 -1 0 0 0 0 1 forward_v I I I I #
coedge $-1 $333 $331 $335 $466 reversed $221 $-1 #
edge $-1 $346 -13.751183844676529 $468 13.751183844676529 $345 $541 forward 7 unknown #
vertex $-1 $466 $542 #
straight-curve $-1 -55.454573198644979 -33.751182831606705 0 0 0 -1 I I #
edge $-1 $464 -33.751182831606705 $468 33.751182831606705 $462 $543 forward 7 unknown #
straight-curve $-1 0 -33.751182831606705 -13.751183844676529 -1 0 0 I I #
vertex $-1 $338 $544 #
straight-curve $-1 0 33.751182831606705 -13.751183844676529 1 0 0 I I #
point $-1 55.454573198644979 33.751182831606705 -13.751183844676529 #
point $-1 55.454573198644979 -33.751182831606705 -13.751183844676529 #
straight-curve $-1 -55.454573198644979 0 13.751183844676529 0 -1 0 I I #
point $-1 -55.454573198644979 33.751182831606705 13.751183844676529 #
point $-1 -55.454573198644979 -33.751182831606705 13.751183844676529 #
straight-curve $-1 55.454573198644979 -33.751182831606705 0 0 0 -1 I I #
straight-curve $-1 55.454573198644979 33.751182831606705 0 0 0 -1 I I #
plane-surface $-1 55.454573198644979 0 0 -1 0 0 0 0 1 forward_v I I I I #
coedge $-1 $359 $358 $369 $489 reversed $147 $-1 #
coedge $-1 $545 $362 $359 $480 forward $356 $-1 #
edge $-1 $481 19.192595879460768 $546 33.751182831606705 $359 $547 forward 7 unknown #
vertex $-1 $480 $548 #
straight-curve $-1 -55.454573198644979 -19.192595879460768 4.840276545004226 0 0 -1 I I #
coedge $-1 $362 $545 $364 $485 forward $356 $-1 #
straight-curve $-1 0 -19.192595879460768 13.751183844676529 -1 0 0 I I #
edge $-1 $492 -33.751182831606705 $365 -19.192595879460768 $364 $549 forward 7 unknown #
point $-1 55.454573198644979 -19.192595879460768 13.751183844676529 #
straight-curve $-1 -55.454573198644979 -13.235944677766868 5.6099223353403751 0 -1 0 I I #
coedge $-1 $369 $368 $545 $550 reversed $240 $-1 #
edge $-1 $546 -13.751183844676529 $370 -5.6099223353403751 $478 $551 forward 7 unknown #
point $-1 -55.454573198644979 -33.751182831606705 5.6099223353403751 #
point $-1 -55.454573198644979 -19.192595879460768 5.6099223353403751 #
vertex $-1 $485 $552 #
straight-curve $-1 55.454573198644979 -33.751182831606705 0 0 0 -1 I I #
plane-surface $-1 0 33.751182831606705 0 0 -1 0 0 0 -1 forward_v I I I I #
coedge $-1 $381 $380 $504 $553 forward $155 $-1 #
edge $-1 $498 19.192595879460772 $507 33.751182831606705 $396 $554 forward 7 unknown #
edge $-1 $555 -33.751182831606705 $387 -19.192595879460772 $384 $556 forward 7 unknown #
vertex $-1 $496 $557 #
straight-curve $-1 0 19.192595879460772 13.751183844676529 1 0 0 I I #
coedge $-1 $385 $384 $391 $505 forward $378 $-1 #
point $-1 -55.454573198644979 19.192595879460772 5.6099223353403751 #
point $-1 -55.454573198644979 19.192595879460772 13.751183844676529 #
straight-curve $-1 -55.454573198644979 13.23594467776687 5.6099223353403751 0 -1 0 I I #
coedge $-1 $392 $391 $495 $553 reversed $393 $-1 #
edge $-1 $555 -13.751183844676529 $394 -5.6099223353403751 $391 $558 forward 7 unknown #
point $-1 -55.454573198644979 33.751182831606712 5.6099223353403751 #
vertex $-1 $496 $559 #
straight-curve $-1 55.454573198644979 33.751182831606705 0 0 0 -1 I I #
straight-curve $-1 55.454573198644979 19.192595879460772 4.840276545004226 0 0 -1 I I #
coedge $-1 $412 $411 $404 $511 forward $401 $-1 #
edge $-1 $512 68.854072171103283 $515 74.220074145771761 $510 $560 forward 7 unknown #
vertex $-1 $416 $561 #
straight-curve $-1 26.358589328983506 -3.5182459466973182 13.751183844676532 1 0 0 I I #
edge $-1 $515 -4.5442123603857976 $413 6.5961451877627564 $412 $562 forward 7 unknown #
vertex $-1 $514 $563 #
straight-curve $-1 -24.3267891524698 -3.5182459466973182 85.429149680444866 -0.71933979245794832 0 0.69465837861970381 I I #
point $-1 49.897915616169968 -3.5182459466973182 13.751183844676532 #
point $-1 55.454573198644979 7.6221116014512358 8.3851818700080543 #
straight-curve $-1 55.454573198644979 0 13.751183844676529 0 1 0 I I #
vertex $-1 $419 $564 #
point $-1 51.640398907263638 -1.2901744370676056 8.5559769431783312 #
vertex $-1 $423 $565 #
point $-1 51.640398907263638 2.0519328273769588 8.5559769431783312 #
vertex $-1 $427 $566 #
point $-1 51.640398907263638 5.3940400918215232 8.5559769431783312 #
edge $-1 $527 30.332088265884867 $530 35.698090240553384 $432 $567 forward 7 unknown #
vertex $-1 $446 $568 #
straight-curve $-1 -66.249270504540888 7.6221116014512358 13.751183844676525 -1 0 0 I I #
edge $-1 $530 -6.5961451877627564 $443 4.5442123603857976 $442 $569 forward 7 unknown #
vertex $-1 $529 $570 #
straight-curve $-1 -55.454573198644965 7.6221116014512358 8.3851818700080258 0.71933979245794832 0 0.69465837861970381 I I #
point $-1 -49.897915616169946 7.6221116014512358 13.751183844676529 #
point $-1 -55.454573198644979 -3.5182459466973182 8.3851818700080116 #
straight-curve $-1 -55.454573198644979 0 13.751183844676529 0 -1 0 I I #
vertex $-1 $449 $571 #
point $-1 -50.201719322347742 -1.2901744370676056 9.9452937004177393 #
vertex $-1 $453 $572 #
point $-1 -50.201719322347742 2.0519328273769588 9.9452937004177393 #
vertex $-1 $457 $573 #
point $-1 -50.201719322347742 5.3940400918215232 9.9452937004177393 #
straight-curve $-1 -55.454573198644979 33.751182831606705 0 0 0 -1 I I #
point $-1 -55.454573198644979 -33.751182831606705 -13.751183844676529 #
straight-curve $-1 -55.454573198644979 0 -13.751183844676529 0 1 0 I I #
point $-1 -55.454573198644979 33.751182831606705 -13.751183844676529 #
coedge $-1 $483 $479 $488 $550 forward $356 $-1 #
vertex $-1 $480 $574 #
straight-curve $-1 -55.454573198644979 0 13.751183844676529 0 -1 0 I I #
point $-1 -55.454573198644979 -19.192595879460768 13.751183844676529 #
straight-curve $-1 55.454573198644979 0 13.751183844676529 0 1 0 I I #
edge $-1 $546 -55.454573198644979 $492 55.454573198644979 $488 $575 forward 7 unknown #
straight-curve $-1 -55.454573198644979 -33.751182831606705 0 0 0 -1 I I #
point $-1 55.454573198644979 -33.751182831606705 13.751183844676529 #
edge $-1 $507 -55.454573198644979 $555 55.454573198644979 $504 $576 forward 7 unknown #
straight-curve $-1 55.454573198644979 0 13.751183844676529 0 1 0 I I #
vertex $-1 $553 $577 #
straight-curve $-1 -55.454573198644979 0 13.751183844676529 0 -1 0 I I #
point $-1 55.454573198644979 19.192595879460772 13.751183844676529 #
straight-curve $-1 -55.454573198644979 33.751182831606705 0 0 0 -1 I I #
point $-1 55.454573198644979 33.751182831606705 13.751183844676529 #
straight-curve $-1 55.454573198644979 -3.5182459466973182 82.605256015779815 0 0 -1 I I #
point $-1 55.454573198644979 -3.5182459466973182 13.751183844676529 #
straight-curve $-1 55.454573198644979 1.0259664136884794 8.3851818700080472 0 1 0 I I #
point $-1 55.454573198644979 -3.5182459466973182 8.3851818700080543 #
point $-1 50.226400736185987 -1.2901744370676056 8.5312955293400865 #
point $-1 50.226400736185987 2.0519328273769588 8.5312955293400865 #
point $-1 50.226400736185987 5.3940400918215232 8.5312955293400865 #
straight-curve $-1 -55.454573198644979 7.6221116014512358 44.083272110561396 0 0 -1 I I #
point $-1 -55.454573198644979 7.6221116014512358 13.751183844676529 #
straight-curve $-1 -55.454573198644979 1.0259664136884794 8.3851818700080099 0 -1 0 I I #
point $-1 -55.454573198644979 7.6221116014512358 8.3851818700080116 #
point $-1 -50.226400736185987 -1.2901744370676056 8.5312955293400865 #
point $-1 -50.226400736185987 2.0519328273769588 8.5312955293400865 #
point $-1 -50.226400736185987 5.3940400918215232 8.5312955293400865 #
point $-1 -55.454573198644979 -33.751182831606705 13.751183844676529 #
straight-curve $-1 0 -33.751182831606705 13.751183844676529 1 0 0 I I #
straight-curve $-1 0 33.751182831606705 13.751183844676529 -1 0 0 I I #
point $-1 -55.454573198644979 33.751182831606705 13.751183844676529 #
End-of-ACIS-data 