500 0 6 0           
7 Unknown 11 ACIS 5.0 NT 24 Thu Mar 25 17:49:49 1999 
-1 9.9999999999999995e-007 1e-010 
body $-1 $6 $-1 $7 #
body $-1 $8 $-1 $9 #
body $-1 $10 $-1 $11 #
body $-1 $12 $-1 $13 #
body $-1 $14 $-1 $15 #
body $-1 $16 $-1 $17 #
lump $-1 $-1 $18 $0 #
transform $-1 1 0 0 0 1 0 0 0 1 51.271095919675282 24.762748579241467 7.8295840443242675 1 rotate no_reflect no_shear #
lump $-1 $-1 $19 $1 #
transform $-1 1 0 0 0 1 0 0 0 1 51.271095919675282 24.762748579241467 7.8295840443242675 1 rotate no_reflect no_shear #
lump $-1 $-1 $20 $2 #
transform $-1 1 0 0 0 1 0 0 0 1 51.271095919675282 24.762748579241467 7.8295840443242675 1 rotate no_reflect no_shear #
lump $-1 $-1 $21 $3 #
transform $-1 1 0 0 0 1 0 0 0 1 51.271095919675282 24.762748579241467 7.8295840443242675 1 rotate no_reflect no_shear #
lump $-1 $-1 $22 $4 #
transform $-1 1 0 0 0 1 0 0 0 1 51.271095919675282 24.762748579241467 7.8295840443242675 1 rotate no_reflect no_shear #
lump $-1 $-1 $23 $5 #
transform $-1 1 0 0 0 1 0 0 0 1 51.271095919675282 24.762748579241467 7.8295840443242675 1 rotate no_reflect no_shear #
shell $-1 $-1 $-1 $24 $-1 $6 #
shell $-1 $-1 $-1 $25 $-1 $8 #
shell $-1 $-1 $-1 $26 $-1 $10 #
shell $-1 $-1 $-1 $27 $-1 $12 #
shell $-1 $-1 $-1 $28 $-1 $14 #
shell $-1 $-1 $-1 $29 $-1 $16 #
face $-1 $30 $31 $18 $-1 $32 forward single #
face $-1 $33 $34 $19 $-1 $35 forward single #
face $-1 $36 $37 $20 $-1 $38 reversed single #
face $-1 $39 $40 $21 $-1 $41 forward single #
face $-1 $42 $43 $22 $-1 $44 forward single #
face $-1 $45 $46 $23 $-1 $47 forward single #
face $-1 $48 $49 $18 $-1 $50 reversed single #
loop $-1 $-1 $51 $24 #
plane-surface $-1 0 0 7.8295840443242675 0 0 1 1 0 0 forward_v I I I I #
face $-1 $52 $53 $19 $-1 $54 reversed single #
loop $-1 $-1 $55 $25 #
plane-surface $-1 0 -21.897008991712877 3.1493912231087444 0 0 1 1 0 0 forward_v I I I I #
face $-1 $56 $57 $20 $-1 $58 reversed single #
loop $-1 $-1 $59 $26 #
plane-surface $-1 28.84963402595919 64.122128498334746 106.86968616888828 1 0 0 0 -0.71933980857756763 -0.69465836192734942 forward_v I I I I #
face $-1 $60 $61 $21 $-1 $62 forward single #
loop $-1 $63 $64 $27 #
cone-surface $-1 33.333926404702417 20.198913180223588 3.1587180141860092 0 -0.71933980857756763 -0.69465836192734942 1 0 0 1 I I 0 1 1 forward I I I I #
face $-1 $65 $66 $22 $-1 $67 forward single #
loop $-1 $68 $69 $28 #
cone-surface $-1 40.060364972817247 20.198913180223588 3.1587180141860092 0 -0.71933980857756763 -0.69465836192734942 1 0 0 1 I I 0 1 1 forward I I I I #
face $-1 $70 $71 $23 $-1 $72 forward single #
loop $-1 $73 $74 $29 #
cone-surface $-1 46.786803540932077 20.198913180223588 3.1587180141860092 0 -0.71933980857756763 -0.69465836192734942 1 0 0 1 I I 0 1 1 forward I I I I #
face $-1 $75 $76 $18 $-1 $77 reversed single #
loop $-1 $-1 $78 $30 #
plane-surface $-1 0 0 -7.8295840443242675 0 0 1 1 0 0 forward_v I I I I #
coedge $-1 $79 $80 $81 $82 forward $31 $-1 #
face $-1 $83 $84 $19 $-1 $85 reversed single #
loop $-1 $-1 $86 $33 #
plane-surface $-1 0 -21.897008991712877 0.025442864129082032 0 0 1 1 0 0 forward_v I I I I #
coedge $-1 $87 $88 $89 $90 reversed $34 $-1 #
face $-1 $91 $92 $20 $-1 $93 forward single #
loop $-1 $-1 $94 $36 #
plane-surface $-1 40.060364972817233 -9.6405521505079008 35.637895157325005 0 0.71933980857756763 0.69465836192734942 1 0 0 forward_v I I I I #
coedge $-1 $95 $96 $97 $98 reversed $37 $-1 #
face $-1 $-1 $99 $21 $-1 $100 forward single #
loop $-1 $101 $102 $39 #
cone-surface $-1 33.333926404702417 19.049971616402807 2.0491980694297069 0 -0.71933980857756763 -0.69465836192734942 0.5 0 0 1 I I -0.70710678118654746 0.70710678118654746 0.5 forward I I I I #
loop $-1 $-1 $103 $27 #
coedge $-1 $64 $64 $104 $105 reversed $40 $-1 #
face $-1 $-1 $106 $22 $-1 $107 forward single #
loop $-1 $108 $109 $42 #
cone-surface $-1 40.060364972817247 19.049971616402807 2.0491980694297069 0 -0.71933980857756763 -0.69465836192734942 0.5 0 0 1 I I -0.70710678118654746 0.70710678118654746 0.5 forward I I I I #
loop $-1 $-1 $110 $28 #
coedge $-1 $69 $69 $111 $112 reversed $43 $-1 #
face $-1 $-1 $113 $23 $-1 $114 forward single #
loop $-1 $115 $116 $45 #
cone-surface $-1 46.786803540932077 19.049971616402807 2.0491980694297069 0 -0.71933980857756763 -0.69465836192734942 0.5 0 0 1 I I -0.70710678118654746 0.70710678118654746 0.5 forward I I I I #
loop $-1 $-1 $117 $29 #
coedge $-1 $74 $74 $118 $119 reversed $46 $-1 #
face $-1 $120 $121 $18 $-1 $122 reversed single #
loop $-1 $-1 $123 $48 #
plane-surface $-1 0 -24.762748579241467 0 0 1 0 0 0 1 forward_v I I I I #
coedge $-1 $124 $125 $126 $127 forward $49 $-1 #
coedge $-1 $128 $51 $129 $130 forward $31 $-1 #
coedge $-1 $51 $128 $131 $132 forward $31 $-1 #
coedge $-1 $133 $134 $51 $82 reversed $135 $-1 #
edge $-1 $136 -24.762748579241467 $137 24.762748579241467 $81 $138 forward 7 unknown #
face $-1 $139 $140 $19 $-1 $141 reversed single #
loop $-1 $-1 $142 $52 #
plane-surface $-1 0 -19.031269404184286 1.5874170436189132 0 -1 0 0 0 -1 forward_v I I I I #
coedge $-1 $143 $144 $145 $146 reversed $53 $-1 #
coedge $-1 $147 $55 $148 $149 forward $34 $-1 #
coedge $-1 $55 $147 $150 $151 reversed $34 $-1 #
coedge $-1 $152 $153 $55 $90 forward $154 $-1 #
edge $-1 $155 8.0827649083278477 $156 13.814244083385029 $89 $157 forward 7 unknown #
face $-1 $158 $159 $20 $-1 $160 reversed single #
loop $-1 $-1 $97 $56 #
plane-surface $-1 0 0 7.8295840443242675 0 0 1 1 0 0 forward_v I I I I #
coedge $-1 $161 $162 $163 $164 reversed $57 $-1 #
coedge $-1 $96 $59 $165 $166 reversed $37 $-1 #
coedge $-1 $59 $95 $161 $167 reversed $37 $-1 #
coedge $-1 $163 $168 $59 $98 forward $92 $-1 #
edge $-1 $169 7.2983156699259055 $170 14.847443148897668 $97 $171 forward 7 unknown #
loop $-1 $-1 $104 $60 #
plane-surface $-1 40.060364972817233 -9.6405521505079008 35.637895157325005 0 0.71933980857756763 0.69465836192734942 1 0 0 forward_v I I I I #
loop $-1 $-1 $172 $39 #
coedge $-1 $102 $102 $103 $173 reversed $61 $-1 #
coedge $-1 $103 $103 $102 $173 forward $63 $-1 #
coedge $-1 $104 $104 $64 $105 forward $99 $-1 #
edge $-1 $174 2.7873733117173509e-015 $174 6.2831853071796031 $104 $175 forward 7 unknown #
loop $-1 $-1 $111 $65 #
plane-surface $-1 40.060364972817233 -9.6405521505079008 35.637895157325005 0 0.71933980857756763 0.69465836192734942 1 0 0 forward_v I I I I #
loop $-1 $-1 $176 $42 #
coedge $-1 $109 $109 $110 $177 reversed $66 $-1 #
coedge $-1 $110 $110 $109 $177 forward $68 $-1 #
coedge $-1 $111 $111 $69 $112 forward $106 $-1 #
edge $-1 $178 2.7873733117173509e-015 $178 6.2831853071796031 $111 $179 forward 7 unknown #
loop $-1 $-1 $118 $70 #
plane-surface $-1 40.060364972817233 -9.6405521505079008 35.637895157325005 0 0.71933980857756763 0.69465836192734942 1 0 0 forward_v I I I I #
loop $-1 $-1 $180 $45 #
coedge $-1 $116 $116 $117 $181 reversed $71 $-1 #
coedge $-1 $117 $117 $116 $181 forward $73 $-1 #
coedge $-1 $118 $118 $74 $119 forward $113 $-1 #
edge $-1 $182 2.7873733117173509e-015 $182 6.2831853071796031 $118 $183 forward 7 unknown #
face $-1 $184 $185 $18 $-1 $186 reversed single #
loop $-1 $-1 $187 $75 #
plane-surface $-1 -51.271095919675282 0 0 1 0 0 0 0 -1 forward_v I I I I #
coedge $-1 $188 $131 $189 $190 forward $76 $-1 #
coedge $-1 $191 $78 $188 $192 forward $49 $-1 #
coedge $-1 $78 $191 $193 $194 forward $49 $-1 #
coedge $-1 $134 $133 $78 $127 reversed $135 $-1 #
edge $-1 $195 -24.762748579241467 $196 24.762748579241467 $126 $197 forward 7 unknown #
coedge $-1 $80 $79 $198 $199 forward $31 $-1 #
coedge $-1 $200 $201 $79 $130 reversed $185 $-1 #
edge $-1 $137 -51.271095919675282 $202 51.271095919675282 $129 $203 forward 7 unknown #
coedge $-1 $123 $204 $80 $132 reversed $76 $-1 #
edge $-1 $205 -51.271095919675282 $136 51.271095919675282 $131 $206 forward 7 unknown #
coedge $-1 $126 $81 $204 $207 forward $135 $-1 #
coedge $-1 $81 $126 $200 $208 reversed $135 $-1 #
loop $-1 $-1 $133 $184 #
vertex $-1 $82 $209 #
vertex $-1 $82 $210 #
straight-curve $-1 51.271095919675282 0 7.8295840443242675 0 1 0 I I #
face $-1 $211 $212 $19 $-1 $213 reversed single #
loop $-1 $-1 $214 $83 #
plane-surface $-1 -51.271095919675282 0 0 1 0 0 0 0 -1 forward_v I I I I #
coedge $-1 $215 $148 $153 $216 reversed $84 $-1 #
coedge $-1 $217 $86 $218 $219 reversed $53 $-1 #
coedge $-1 $86 $217 $215 $220 forward $53 $-1 #
coedge $-1 $153 $152 $86 $146 forward $154 $-1 #
edge $-1 $221 -13.814244083385029 $222 -8.0827649083278477 $145 $223 forward 7 unknown #
coedge $-1 $88 $87 $214 $224 reversed $34 $-1 #
coedge $-1 $142 $225 $87 $149 reversed $84 $-1 #
edge $-1 $155 -51.271095919675282 $226 51.271095919675282 $148 $227 forward 7 unknown #
coedge $-1 $228 $229 $88 $151 forward $212 $-1 #
edge $-1 $156 -51.271095919675282 $230 51.271095919675282 $150 $231 forward 7 unknown #
coedge $-1 $145 $89 $229 $232 forward $154 $-1 #
coedge $-1 $89 $145 $142 $216 forward $154 $-1 #
loop $-1 $-1 $89 $211 #
vertex $-1 $90 $233 #
vertex $-1 $232 $234 #
straight-curve $-1 51.271095919675282 -10.948504495856438 3.1493912231087444 0 -1 0 I I #
face $-1 $-1 $235 $20 $-1 $236 reversed single #
loop $-1 $-1 $237 $91 #
plane-surface $-1 51.271095919675282 0 0 -1 0 0 0 0 1 forward_v I I I I #
coedge $-1 $238 $94 $96 $167 forward $57 $-1 #
coedge $-1 $94 $238 $237 $239 reversed $57 $-1 #
coedge $-1 $240 $97 $94 $164 forward $92 $-1 #
edge $-1 $170 8.8194515395505739 $241 31.240913433266666 $163 $242 forward 7 unknown #
coedge $-1 $243 $244 $95 $166 forward $235 $-1 #
edge $-1 $245 -53.422609572811133 $169 -45.605259040119876 $165 $246 forward 7 unknown #
edge $-1 $170 38.658101194189811 $245 49.525497158482956 $96 $247 forward 7 unknown #
coedge $-1 $97 $240 $243 $248 forward $92 $-1 #
vertex $-1 $166 $249 #
vertex $-1 $98 $250 #
straight-curve $-1 28.84963402595919 32.061064249167373 7.8295840443242639 0 -1 0 I I #
coedge $-1 $172 $172 $-1 $251 reversed $101 $-1 #
edge $-1 $252 0 $252 6.2831853071796004 $102 $253 forward 7 unknown #
vertex $-1 $105 $254 #
ellipse-curve $-1 33.333926404702417 20.988184839755586 3.9209087779786373 0 0.71933980857756763 0.69465836192734942 1 0 0 1 I I #
coedge $-1 $176 $176 $-1 $255 reversed $108 $-1 #
edge $-1 $256 0 $256 6.2831853071796004 $109 $257 forward 7 unknown #
vertex $-1 $112 $258 #
ellipse-curve $-1 40.060364972817247 20.988184839755586 3.9209087779786373 0 0.71933980857756763 0.69465836192734942 1 0 0 1 I I #
coedge $-1 $180 $180 $-1 $259 reversed $115 $-1 #
edge $-1 $260 0 $260 6.2831853071796004 $116 $261 forward 7 unknown #
vertex $-1 $119 $262 #
ellipse-curve $-1 46.786803540932077 20.988184839755586 3.9209087779786373 0 0.71933980857756763 0.69465836192734942 1 0 0 1 I I #
face $-1 $-1 $135 $18 $-1 $263 reversed single #
loop $-1 $-1 $200 $120 #
plane-surface $-1 0 24.762748579241467 0 0 -1 0 0 0 -1 forward_v I I I I #
coedge $-1 $264 $198 $201 $265 forward $121 $-1 #
coedge $-1 $204 $123 $124 $192 reversed $76 $-1 #
coedge $-1 $198 $264 $123 $190 reversed $121 $-1 #
edge $-1 $205 -7.8295840443242675 $266 7.8295840443242675 $189 $267 forward 7 unknown #
coedge $-1 $125 $124 $264 $268 forward $49 $-1 #
edge $-1 $196 -51.271095919675282 $266 51.271095919675282 $188 $269 forward 7 unknown #
coedge $-1 $201 $200 $125 $194 reversed $185 $-1 #
edge $-1 $270 -51.271095919675282 $195 51.271095919675282 $193 $271 forward 7 unknown #
vertex $-1 $127 $272 #
vertex $-1 $207 $273 #
straight-curve $-1 51.271095919675282 0 -7.8295840443242675 0 -1 0 I I #
coedge $-1 $187 $189 $128 $199 reversed $121 $-1 #
edge $-1 $202 -24.762748579241467 $205 24.762748579241467 $198 $274 forward 7 unknown #
coedge $-1 $193 $129 $134 $208 forward $185 $-1 #
coedge $-1 $129 $193 $187 $265 reversed $185 $-1 #
vertex $-1 $130 $275 #
straight-curve $-1 0 24.762748579241467 7.8295840443242675 -1 0 0 I I #
coedge $-1 $131 $188 $133 $207 reversed $76 $-1 #
vertex $-1 $199 $276 #
straight-curve $-1 0 -24.762748579241467 7.8295840443242675 1 0 0 I I #
edge $-1 $136 -7.8295840443242675 $196 7.8295840443242675 $133 $277 forward 7 unknown #
edge $-1 $137 -7.8295840443242675 $195 7.8295840443242675 $134 $278 forward 7 unknown #
point $-1 51.271095919675282 -24.762748579241467 7.8295840443242675 #
point $-1 51.271095919675282 24.762748579241467 7.8295840443242675 #
face $-1 $-1 $154 $19 $-1 $279 reversed single #
loop $-1 $-1 $150 $139 #
plane-surface $-1 0 -24.762748579241467 0 0 1 0 0 0 1 forward_v I I I I #
coedge $-1 $280 $281 $147 $224 forward $140 $-1 #
coedge $-1 $225 $142 $144 $220 reversed $84 $-1 #
edge $-1 $222 -0.76826565768037458 $155 2.3556827012992878 $153 $282 forward 7 unknown #
coedge $-1 $144 $143 $283 $284 reversed $53 $-1 #
coedge $-1 $229 $228 $143 $219 forward $212 $-1 #
edge $-1 $285 -51.271095919675282 $221 51.271095919675282 $218 $286 forward 7 unknown #
edge $-1 $287 -51.271095919675282 $222 51.271095919675282 $215 $288 forward 7 unknown #
vertex $-1 $219 $289 #
vertex $-1 $146 $290 #
straight-curve $-1 51.271095919675282 -10.948504495856438 0.025442864129082032 0 1 0 I I #
edge $-1 $230 -13.814244083385029 $226 -8.0827649083278477 $214 $291 forward 7 unknown #
coedge $-1 $148 $215 $280 $292 reversed $84 $-1 #
vertex $-1 $224 $293 #
straight-curve $-1 0 -19.031269404184286 3.1493912231087444 -1 0 0 I I #
coedge $-1 $218 $150 $281 $294 forward $212 $-1 #
coedge $-1 $150 $218 $152 $232 reversed $212 $-1 #
vertex $-1 $294 $295 #
straight-curve $-1 0 -24.762748579241467 3.1493912231087444 -1 0 0 I I #
edge $-1 $156 -3.1493912231087444 $221 -0.025442864129082032 $152 $296 forward 7 unknown #
point $-1 51.271095919675282 -19.031269404184286 3.1493912231087444 #
point $-1 51.271095919675282 -24.762748579241467 3.1493912231087444 #
loop $-1 $-1 $165 $158 #
plane-surface $-1 0 24.762748579241467 0 0 -1 0 0 0 -1 forward_v I I I I #
coedge $-1 $297 $298 $162 $239 forward $159 $-1 #
coedge $-1 $162 $161 $244 $299 reversed $57 $-1 #
edge $-1 $241 22.491777771427515 $300 33.35917373572066 $237 $301 forward 7 unknown #
coedge $-1 $168 $163 $298 $302 forward $92 $-1 #
vertex $-1 $302 $303 #
straight-curve $-1 20.030182486408616 17.213621100269705 7.8295840443242675 1 0 0 I I #
coedge $-1 $304 $165 $168 $248 reversed $235 $-1 #
coedge $-1 $165 $304 $238 $299 forward $235 $-1 #
vertex $-1 $166 $305 #
straight-curve $-1 28.84963402595919 24.762748579241467 53.43484308444414 0 0 1 I I #
straight-curve $-1 28.84963402595919 -9.6405521505079008 35.637895157325005 0 0.69465836192734942 -0.71933980857756763 I I #
edge $-1 $306 -51.271095919675282 $169 -28.84963402595919 $243 $307 forward 7 unknown #
point $-1 28.84963402595919 24.762748579241467 7.8295840443242675 #
point $-1 28.84963402595919 17.213621100269705 7.8295840443242675 #
edge $-1 $308 1 $308 0 $172 $-1 forward 7 unknown #
vertex $-1 $173 $309 #
ellipse-curve $-1 33.333926404702417 19.40964152069159 2.3965272503933814 0 0.71933980857756763 0.69465836192734942 1 0 0 1 I I #
point $-1 34.333926404702417 20.98818483975559 3.9209087779786369 #
edge $-1 $310 1 $310 0 $176 $-1 forward 7 unknown #
vertex $-1 $177 $311 #
ellipse-curve $-1 40.060364972817247 19.40964152069159 2.3965272503933814 0 0.71933980857756763 0.69465836192734942 1 0 0 1 I I #
point $-1 41.060364972817247 20.98818483975559 3.9209087779786369 #
edge $-1 $312 1 $312 0 $180 $-1 forward 7 unknown #
vertex $-1 $181 $313 #
ellipse-curve $-1 46.786803540932077 19.40964152069159 2.3965272503933814 0 0.71933980857756763 0.69465836192734942 1 0 0 1 I I #
point $-1 47.786803540932077 20.98818483975559 3.9209087779786369 #
plane-surface $-1 51.271095919675282 0 0 -1 0 0 0 0 1 forward_v I I I I #
coedge $-1 $189 $187 $191 $268 reversed $121 $-1 #
edge $-1 $202 -7.8295840443242675 $270 7.8295840443242675 $201 $314 forward 7 unknown #
vertex $-1 $268 $315 #
straight-curve $-1 -51.271095919675282 -24.762748579241467 0 0 0 -1 I I #
edge $-1 $266 -24.762748579241467 $270 24.762748579241467 $264 $316 forward 7 unknown #
straight-curve $-1 0 -24.762748579241467 -7.8295840443242675 -1 0 0 I I #
vertex $-1 $194 $317 #
straight-curve $-1 0 24.762748579241467 -7.8295840443242675 1 0 0 I I #
point $-1 51.271095919675282 24.762748579241467 -7.8295840443242675 #
point $-1 51.271095919675282 -24.762748579241467 -7.8295840443242675 #
straight-curve $-1 -51.271095919675282 0 7.8295840443242675 0 -1 0 I I #
point $-1 -51.271095919675282 24.762748579241467 7.8295840443242675 #
point $-1 -51.271095919675282 -24.762748579241467 7.8295840443242675 #
straight-curve $-1 51.271095919675282 -24.762748579241467 0 0 0 -1 I I #
straight-curve $-1 51.271095919675282 24.762748579241467 0 0 0 -1 I I #
plane-surface $-1 51.271095919675282 0 0 -1 0 0 0 0 1 forward_v I I I I #
coedge $-1 $283 $214 $225 $292 forward $140 $-1 #
coedge $-1 $214 $283 $228 $294 reversed $140 $-1 #
straight-curve $-1 51.271095919675282 -19.031269404184286 0.79370852180945661 0 0 1 I I #
coedge $-1 $281 $280 $217 $284 forward $140 $-1 #
edge $-1 $287 8.0827649083278477 $285 13.814244083385029 $283 $318 forward 7 unknown #
vertex $-1 $219 $319 #
straight-curve $-1 0 -24.762748579241467 0.025442864129082032 1 0 0 I I #
vertex $-1 $284 $320 #
straight-curve $-1 0 -19.031269404184286 0.025442864129082032 1 0 0 I I #
point $-1 51.271095919675282 -24.762748579241467 0.025442864129082032 #
point $-1 51.271095919675282 -19.031269404184286 0.025442864129082032 #
straight-curve $-1 -51.271095919675282 -10.948504495856438 3.1493912231087444 0 1 0 I I #
edge $-1 $226 -2.3556827012992878 $287 0.76826565768037458 $280 $321 forward 7 unknown #
point $-1 -51.271095919675282 -19.031269404184286 3.1493912231087444 #
edge $-1 $230 -3.1493912231087444 $285 -0.025442864129082032 $281 $322 forward 7 unknown #
point $-1 -51.271095919675282 -24.762748579241467 3.1493912231087444 #
straight-curve $-1 51.271095919675282 -24.762748579241467 0 0 0 -1 I I #
coedge $-1 $298 $237 $304 $323 reversed $159 $-1 #
coedge $-1 $237 $297 $240 $302 reversed $159 $-1 #
edge $-1 $300 -31.240913433266666 $245 -8.8194515395505739 $244 $324 forward 7 unknown #
vertex $-1 $239 $325 #
straight-curve $-1 51.271095919675282 1.5895195967358982 24.008815160992125 0 0.69465836192734942 -0.71933980857756763 I I #
edge $-1 $241 17.213621100269702 $306 24.762748579241467 $298 $326 forward 7 unknown #
point $-1 51.271095919675282 17.213621100269702 7.8295840443242675 #
coedge $-1 $244 $243 $297 $323 forward $235 $-1 #
point $-1 28.84963402595919 24.762748579241467 0.012233511633006344 #
vertex $-1 $302 $327 #
straight-curve $-1 0 24.762748579241467 7.8295840443242675 -1 0 0 I I #
vertex $-1 $251 $328 #
point $-1 34.333926404702417 19.40964152069159 2.3965272503933814 #
vertex $-1 $255 $329 #
point $-1 41.060364972817247 19.40964152069159 2.3965272503933814 #
vertex $-1 $259 $330 #
point $-1 47.786803540932077 19.40964152069159 2.3965272503933814 #
straight-curve $-1 -51.271095919675282 24.762748579241467 0 0 0 -1 I I #
point $-1 -51.271095919675282 -24.762748579241467 -7.8295840443242675 #
straight-curve $-1 -51.271095919675282 0 -7.8295840443242675 0 1 0 I I #
point $-1 -51.271095919675282 24.762748579241467 -7.8295840443242675 #
straight-curve $-1 -51.271095919675282 -10.948504495856438 0.025442864129082032 0 -1 0 I I #
point $-1 -51.271095919675282 -24.762748579241467 0.025442864129082032 #
point $-1 -51.271095919675282 -19.031269404184286 0.025442864129082032 #
straight-curve $-1 -51.271095919675282 -19.031269404184286 0.79370852180945661 0 0 -1 I I #
straight-curve $-1 -51.271095919675282 -24.762748579241467 0 0 0 -1 I I #
edge $-1 $306 -7.8295840443242675 $300 -0.01223351163300572 $297 $331 forward 7 unknown #
straight-curve $-1 20.030182486408616 24.762748579241467 0.012233511633006344 -1 0 0 I I #
point $-1 51.271095919675282 24.762748579241467 0.01223351163300572 #
straight-curve $-1 51.271095919675282 0 7.8295840443242675 0 1 0 I I #
point $-1 51.271095919675282 24.762748579241467 7.8295840443242675 #
point $-1 33.333926404702417 18.690301712114024 1.7018688884660322 #
point $-1 40.060364972817247 18.690301712114024 1.7018688884660322 #
point $-1 46.786803540932077 18.690301712114024 1.7018688884660322 #
straight-curve $-1 51.271095919675282 24.762748579241467 0 0 0 -1 I I #
End-of-ACIS-data 