500 0 10 0           
7 Unknown 11 ACIS 5.0 NT 24 Fri Mar 26 20:30:32 1999 
-1 9.9999999999999995e-007 1e-010 
body $-1 $10 $-1 $11 #
body $-1 $12 $-1 $13 #
body $-1 $14 $-1 $15 #
body $-1 $16 $-1 $17 #
body $-1 $18 $-1 $19 #
body $-1 $20 $-1 $21 #
body $-1 $22 $-1 $23 #
body $-1 $24 $-1 $25 #
body $-1 $26 $-1 $27 #
body $-1 $28 $-1 $29 #
lump $-1 $-1 $30 $0 #
transform $-1 1 0 0 0 1 0 0 0 1 72.044434949797051 37.931558803381563 12.982763912955248 1 rotate no_reflect no_shear #
lump $-1 $-1 $31 $1 #
transform $-1 1 0 0 0 1 0 0 0 1 72.044434949797051 37.931558803381563 12.982763912955248 1 rotate no_reflect no_shear #
lump $-1 $-1 $32 $2 #
transform $-1 1 0 0 0 1 0 0 0 1 72.044434949797051 37.931558803381563 12.982763912955248 1 rotate no_reflect no_shear #
lump $-1 $-1 $33 $3 #
transform $-1 1 0 0 0 1 0 0 0 1 72.044434949797051 37.931558803381563 12.982763912955248 1 rotate no_reflect no_shear #
lump $-1 $-1 $34 $4 #
transform $-1 1 0 0 0 1 0 0 0 1 72.044434949797051 37.931558803381563 12.982763912955248 1 rotate no_reflect no_shear #
lump $-1 $-1 $35 $5 #
transform $-1 1 0 0 0 1 0 0 0 1 72.044434949797051 37.931558803381563 12.982763912955248 1 rotate no_reflect no_shear #
lump $-1 $-1 $36 $6 #
transform $-1 1 0 0 0 1 0 0 0 1 72.044434949797051 37.931558803381563 12.982763912955248 1 rotate no_reflect no_shear #
lump $-1 $-1 $37 $7 #
transform $-1 1 0 0 0 1 0 0 0 1 72.044434949797051 37.931558803381563 12.982763912955248 1 rotate no_reflect no_shear #
lump $-1 $-1 $38 $8 #
transform $-1 1 0 0 0 1 0 0 0 1 72.044434949797051 37.931558803381563 12.982763912955248 1 rotate no_reflect no_shear #
lump $-1 $-1 $39 $9 #
transform $-1 1 0 0 0 1 0 0 0 1 72.044434949797051 37.931558803381563 12.982763912955248 1 rotate no_reflect no_shear #
shell $-1 $-1 $-1 $40 $-1 $10 #
shell $-1 $-1 $-1 $41 $-1 $12 #
shell $-1 $-1 $-1 $42 $-1 $14 #
shell $-1 $-1 $-1 $43 $-1 $16 #
shell $-1 $-1 $-1 $44 $-1 $18 #
shell $-1 $-1 $-1 $45 $-1 $20 #
shell $-1 $-1 $-1 $46 $-1 $22 #
shell $-1 $-1 $-1 $47 $-1 $24 #
shell $-1 $-1 $-1 $48 $-1 $26 #
shell $-1 $-1 $-1 $49 $-1 $28 #
face $-1 $50 $51 $30 $-1 $52 forward single #
face $-1 $53 $54 $31 $-1 $55 reversed single #
face $-1 $56 $57 $32 $-1 $58 reversed single #
face $-1 $59 $60 $33 $-1 $61 forward single #
face $-1 $62 $63 $34 $-1 $64 reversed single #
face $-1 $65 $66 $35 $-1 $67 forward single #
face $-1 $68 $69 $36 $-1 $70 reversed single #
face $-1 $71 $72 $37 $-1 $73 forward single #
face $-1 $74 $75 $38 $-1 $76 reversed single #
face $-1 $77 $78 $39 $-1 $79 forward single #
face $-1 $80 $81 $30 $-1 $82 reversed single #
loop $-1 $-1 $83 $40 #
plane-surface $-1 0 0 12.982763912955248 0 0 1 1 0 0 forward_v I I I I #
face $-1 $84 $85 $31 $-1 $86 reversed single #
loop $-1 $-1 $87 $41 #
plane-surface $-1 -50.992051027011875 -30.229289548556849 0 1 0 0 0 0 -1 forward_v I I I I #
face $-1 $88 $89 $32 $-1 $90 reversed single #
loop $-1 $-1 $91 $42 #
plane-surface $-1 75.600756705114122 -10.373493432720199 208.17022740250025 0 -1 0 -0.71933980857756763 0 -0.69465836192734942 forward_v I I I I #
face $-1 $92 $93 $33 $-1 $94 forward single #
loop $-1 $95 $96 $43 #
cone-surface $-1 66.293955725498407 -16.450256863226169 7.1411297342624778 -0.71933980857756763 0 -0.69465836192734942 1.0419875428910241 0 -1.0790097128663514 1 I I 0 1 1.5 forward I I I I #
face $-1 $97 $98 $34 $-1 $99 reversed single #
loop $-1 $-1 $100 $44 #
plane-surface $-1 75.600756705114122 19.855796115836647 208.17022740250025 0 -1 0 -0.71933980857756763 0 -0.69465836192734942 forward_v I I I I #
face $-1 $101 $102 $35 $-1 $103 forward single #
loop $-1 $104 $105 $45 #
cone-surface $-1 66.293955725498407 13.779032685330677 7.1411297342624778 -0.71933980857756763 0 -0.69465836192734942 1.0419875428910241 0 -1.0790097128663514 1 I I 0 1 1.5 forward I I I I #
face $-1 $106 $107 $36 $-1 $108 reversed single #
loop $-1 $-1 $109 $46 #
plane-surface $-1 -187.1189242391755 -14.437103557289888 88.829788301222479 0 1 0 -0.79863551827123203 0 0.60181501223851219 forward_v I I I I #
face $-1 $110 $111 $37 $-1 $112 forward single #
loop $-1 $113 $114 $47 #
cone-surface $-1 -66.258088665731478 -10.608094041410869 6.2741406459735449 0.79863551827123203 0 -0.60181501223851219 0.90272251835776829 0 1.197953277406848 1 I I 0 1 1.5 forward I I I I #
face $-1 $115 $116 $38 $-1 $117 reversed single #
loop $-1 $-1 $118 $48 #
plane-surface $-1 -187.1189242391755 15.792185991266965 88.829788301222479 0 1 0 -0.79863551827123203 0 0.60181501223851219 forward_v I I I I #
face $-1 $119 $120 $39 $-1 $121 forward single #
loop $-1 $122 $123 $49 #
cone-surface $-1 -66.258088665731478 19.621195507145984 6.2741406459735449 0.79863551827123203 0 -0.60181501223851219 0.90272251835776829 0 1.197953277406848 1 I I 0 1 1.5 forward I I I I #
face $-1 $124 $125 $30 $-1 $126 reversed single #
loop $-1 $-1 $127 $50 #
plane-surface $-1 0 0 -12.982763912955248 0 0 1 1 0 0 forward_v I I I I #
coedge $-1 $128 $129 $130 $131 forward $51 $-1 #
face $-1 $132 $133 $31 $-1 $134 reversed single #
loop $-1 $-1 $135 $53 #
plane-surface $-1 -49.431718296960021 -22.527020293732136 0 0 -1 0 0 0 -1 forward_v I I I I #
coedge $-1 $136 $137 $138 $139 forward $54 $-1 #
face $-1 $140 $141 $32 $-1 $142 reversed single #
loop $-1 $-1 $143 $56 #
plane-surface $-1 -28.048103386617939 -16.450256863226169 108.07768906608524 0.71933980857756763 0 0.69465836192734942 0.69465836192734942 0 -0.71933980857756763 forward_v I I I I #
coedge $-1 $144 $145 $146 $147 reversed $57 $-1 #
face $-1 $-1 $148 $33 $-1 $149 forward single #
loop $-1 $150 $151 $59 #
cone-surface $-1 64.134191022053926 -16.450256863226169 5.0554692534252457 -0.71933980857756763 0 -0.69465836192734942 0.52099377144551207 0 -0.53950485643317569 1 I I -0.70710678118654757 0.70710678118654757 0.75 forward I I I I #
loop $-1 $-1 $152 $43 #
coedge $-1 $96 $96 $153 $154 reversed $60 $-1 #
face $-1 $155 $156 $34 $-1 $157 reversed single #
loop $-1 $-1 $158 $62 #
plane-surface $-1 -28.048103386617939 13.779032685330677 108.07768906608524 0.71933980857756763 0 0.69465836192734942 0.69465836192734942 0 -0.71933980857756763 forward_v I I I I #
coedge $-1 $159 $160 $161 $162 reversed $63 $-1 #
face $-1 $-1 $163 $35 $-1 $164 forward single #
loop $-1 $165 $166 $65 #
cone-surface $-1 64.134191022053926 13.779032685330677 5.0554692534252457 -0.71933980857756763 0 -0.69465836192734942 0.52099377144551207 0 -0.53950485643317569 1 I I -0.70710678118654757 0.70710678118654757 0.75 forward I I I I #
loop $-1 $-1 $167 $45 #
coedge $-1 $105 $105 $168 $169 reversed $66 $-1 #
face $-1 $170 $171 $36 $-1 $172 reversed single #
loop $-1 $-1 $173 $68 #
plane-surface $-1 -72.044434949797036 -10.608094041410869 2.1149432991648638 -0.79863551827123203 0 0.60181501223851219 0.60181501223851219 0 0.79863551827123203 forward_v I I I I #
coedge $-1 $174 $175 $176 $177 reversed $69 $-1 #
face $-1 $-1 $178 $37 $-1 $179 forward single #
loop $-1 $180 $181 $71 #
cone-surface $-1 -63.967510746197455 -10.608094041410869 4.5480664267081483 0.79863551827123203 0 -0.60181501223851219 0.45136125917888414 0 0.59897663870342399 1 I I -0.70710678118654757 0.70710678118654757 0.75 forward I I I I #
loop $-1 $-1 $182 $47 #
coedge $-1 $114 $114 $183 $184 reversed $72 $-1 #
face $-1 $185 $186 $38 $-1 $187 reversed single #
loop $-1 $-1 $188 $74 #
plane-surface $-1 -72.044434949797036 19.621195507145984 2.1149432991648638 -0.79863551827123203 0 0.60181501223851219 0.60181501223851219 0 0.79863551827123203 forward_v I I I I #
coedge $-1 $189 $190 $191 $192 reversed $75 $-1 #
face $-1 $-1 $193 $39 $-1 $194 forward single #
loop $-1 $195 $196 $77 #
cone-surface $-1 -63.967510746197455 19.621195507145984 4.5480664267081483 0.79863551827123203 0 -0.60181501223851219 0.45136125917888414 0 0.59897663870342399 1 I I -0.70710678118654757 0.70710678118654757 0.75 forward I I I I #
loop $-1 $-1 $197 $49 #
coedge $-1 $123 $123 $198 $199 reversed $78 $-1 #
face $-1 $200 $201 $30 $-1 $202 reversed single #
loop $-1 $-1 $203 $80 #
plane-surface $-1 0 -37.931558803381563 0 0 1 0 0 0 1 forward_v I I I I #
coedge $-1 $204 $205 $206 $207 forward $81 $-1 #
coedge $-1 $208 $83 $209 $210 forward $51 $-1 #
coedge $-1 $83 $208 $211 $212 forward $51 $-1 #
coedge $-1 $213 $214 $83 $131 reversed $215 $-1 #
edge $-1 $216 -37.931558803381563 $217 37.931558803381563 $130 $218 forward 7 unknown #
face $-1 $219 $220 $31 $-1 $221 forward single #
loop $-1 $-1 $222 $84 #
plane-surface $-1 -47.871385566908167 -30.229289548556849 0 -1 0 0 0 0 1 forward_v I I I I #
coedge $-1 $223 $224 $225 $226 forward $85 $-1 #
coedge $-1 $227 $87 $228 $229 reversed $54 $-1 #
coedge $-1 $87 $227 $230 $231 reversed $54 $-1 #
coedge $-1 $224 $223 $87 $139 reversed $85 $-1 #
edge $-1 $232 -12.982763912955248 $233 12.982763912955248 $138 $234 forward 7 unknown #
face $-1 $235 $236 $32 $-1 $237 reversed single #
loop $-1 $-1 $238 $88 #
plane-surface $-1 75.600756705114122 -22.527020293732139 208.17022740250025 0 1 0 0.71933980857756763 0 0.69465836192734942 forward_v I I I I #
coedge $-1 $239 $240 $241 $242 reversed $89 $-1 #
coedge $-1 $145 $91 $243 $244 reversed $57 $-1 #
coedge $-1 $91 $144 $239 $245 reversed $57 $-1 #
coedge $-1 $241 $246 $91 $147 forward $247 $-1 #
edge $-1 $248 -34.24405659723999 $249 -25.983617842665367 $146 $250 forward 7 unknown #
loop $-1 $-1 $153 $92 #
plane-surface $-1 -28.048103386617939 -16.450256863226169 108.07768906608524 0.71933980857756763 0 0.69465836192734942 0.69465836192734942 0 -0.71933980857756763 forward_v I I I I #
loop $-1 $-1 $251 $59 #
coedge $-1 $151 $151 $152 $252 reversed $93 $-1 #
coedge $-1 $152 $152 $151 $252 forward $95 $-1 #
coedge $-1 $153 $153 $96 $154 forward $148 $-1 #
edge $-1 $253 0 $253 6.2831853071796004 $153 $254 forward 7 unknown #
face $-1 $255 $256 $34 $-1 $257 reversed single #
loop $-1 $-1 $258 $97 #
plane-surface $-1 75.600756705114122 7.7022692548247074 208.17022740250025 0 1 0 0.71933980857756763 0 0.69465836192734942 forward_v I I I I #
coedge $-1 $259 $260 $261 $262 reversed $98 $-1 #
coedge $-1 $160 $100 $263 $264 reversed $63 $-1 #
coedge $-1 $100 $159 $259 $265 reversed $63 $-1 #
coedge $-1 $261 $266 $100 $162 forward $267 $-1 #
edge $-1 $268 -34.24405659723999 $269 -25.983617842665367 $161 $270 forward 7 unknown #
loop $-1 $-1 $168 $101 #
plane-surface $-1 -28.048103386617939 13.779032685330677 108.07768906608524 0.71933980857756763 0 0.69465836192734942 0.69465836192734942 0 -0.71933980857756763 forward_v I I I I #
loop $-1 $-1 $271 $65 #
coedge $-1 $166 $166 $167 $272 reversed $102 $-1 #
coedge $-1 $167 $167 $166 $272 forward $104 $-1 #
coedge $-1 $168 $168 $105 $169 forward $163 $-1 #
edge $-1 $273 0 $273 6.2831853071796004 $168 $274 forward 7 unknown #
face $-1 $275 $276 $36 $-1 $277 reversed single #
loop $-1 $-1 $278 $106 #
plane-surface $-1 -187.1189242391755 -6.7790845255318501 88.829788301222479 0 -1 0 0.79863551827123203 0 -0.60181501223851219 forward_v I I I I #
coedge $-1 $279 $280 $281 $282 reversed $107 $-1 #
coedge $-1 $175 $109 $283 $284 reversed $69 $-1 #
coedge $-1 $109 $174 $279 $285 reversed $69 $-1 #
coedge $-1 $281 $286 $109 $177 forward $287 $-1 #
edge $-1 $288 21.515027169790699 $289 29.70451717626068 $176 $290 forward 7 unknown #
loop $-1 $-1 $183 $110 #
plane-surface $-1 -72.044434949797036 -10.608094041410869 2.1149432991648638 -0.79863551827123203 0 0.60181501223851219 0.60181501223851219 0 0.79863551827123203 forward_v I I I I #
loop $-1 $-1 $291 $71 #
coedge $-1 $181 $181 $182 $292 reversed $111 $-1 #
coedge $-1 $182 $182 $181 $292 forward $113 $-1 #
coedge $-1 $183 $183 $114 $184 forward $178 $-1 #
edge $-1 $293 0 $293 6.2831853071796004 $183 $294 forward 7 unknown #
face $-1 $295 $296 $38 $-1 $297 forward single #
loop $-1 $-1 $298 $115 #
plane-surface $-1 -187.1189242391755 23.450205023025003 88.829788301222479 0 -1 0 0.79863551827123203 0 -0.60181501223851219 forward_v I I I I #
coedge $-1 $299 $300 $301 $302 reversed $116 $-1 #
coedge $-1 $190 $118 $303 $304 reversed $75 $-1 #
coedge $-1 $118 $189 $299 $305 reversed $75 $-1 #
coedge $-1 $301 $306 $118 $192 forward $296 $-1 #
edge $-1 $307 21.515027169790699 $308 29.70451717626068 $191 $309 forward 7 unknown #
loop $-1 $-1 $198 $119 #
plane-surface $-1 -72.044434949797036 19.621195507145984 2.1149432991648638 -0.79863551827123203 0 0.60181501223851219 0.60181501223851219 0 0.79863551827123203 forward_v I I I I #
loop $-1 $-1 $310 $77 #
coedge $-1 $196 $196 $197 $311 reversed $120 $-1 #
coedge $-1 $197 $197 $196 $311 forward $122 $-1 #
coedge $-1 $198 $198 $123 $199 forward $193 $-1 #
edge $-1 $312 0 $312 6.2831853071796004 $198 $313 forward 7 unknown #
face $-1 $314 $315 $30 $-1 $316 reversed single #
loop $-1 $-1 $317 $124 #
plane-surface $-1 -72.044434949797051 0 0 1 0 0 0 0 -1 forward_v I I I I #
coedge $-1 $318 $211 $319 $320 forward $125 $-1 #
coedge $-1 $321 $127 $318 $322 forward $81 $-1 #
coedge $-1 $127 $321 $323 $324 forward $81 $-1 #
coedge $-1 $214 $213 $127 $207 reversed $215 $-1 #
edge $-1 $325 -37.931558803381563 $326 37.931558803381563 $206 $327 forward 7 unknown #
coedge $-1 $129 $128 $328 $329 forward $51 $-1 #
coedge $-1 $330 $331 $128 $210 reversed $315 $-1 #
edge $-1 $217 -72.044434949797051 $332 72.044434949797051 $209 $333 forward 7 unknown #
coedge $-1 $203 $334 $129 $212 reversed $125 $-1 #
edge $-1 $335 -72.044434949797051 $216 72.044434949797051 $211 $336 forward 7 unknown #
coedge $-1 $206 $130 $334 $337 forward $215 $-1 #
coedge $-1 $130 $206 $330 $338 reversed $215 $-1 #
loop $-1 $-1 $213 $314 #
vertex $-1 $131 $339 #
vertex $-1 $131 $340 #
straight-curve $-1 72.044434949797051 0 12.982763912955248 0 1 0 I I #
face $-1 $341 $342 $31 $-1 $343 reversed single #
loop $-1 $-1 $344 $132 #
plane-surface $-1 0 0 12.982763912955248 0 0 1 1 0 0 forward_v I I I I #
coedge $-1 $345 $346 $347 $348 reversed $133 $-1 #
coedge $-1 $138 $135 $349 $350 reversed $85 $-1 #
coedge $-1 $135 $138 $351 $352 reversed $85 $-1 #
coedge $-1 $346 $345 $135 $226 reversed $133 $-1 #
edge $-1 $353 -12.982763912955248 $354 12.982763912955248 $225 $355 forward 7 unknown #
coedge $-1 $137 $136 $356 $357 reversed $54 $-1 #
coedge $-1 $349 $358 $136 $229 forward $342 $-1 #
edge $-1 $359 -22.816914029103138 $233 -7.4123755194537111 $228 $360 forward 7 unknown #
coedge $-1 $361 $351 $137 $231 forward $220 $-1 #
edge $-1 $232 7.4123755194537111 $362 22.816914029103138 $230 $363 forward 7 unknown #
vertex $-1 $231 $364 #
vertex $-1 $229 $365 #
straight-curve $-1 -50.992051027011875 -22.527020293732136 0 0 0 -1 I I #
face $-1 $-1 $247 $32 $-1 $366 forward single #
loop $-1 $-1 $367 $140 #
plane-surface $-1 72.044434949797051 0 0 -1 0 0 0 0 1 forward_v I I I I #
coedge $-1 $368 $369 $370 $371 reversed $141 $-1 #
coedge $-1 $372 $143 $145 $245 forward $89 $-1 #
coedge $-1 $143 $372 $368 $373 forward $89 $-1 #
coedge $-1 $370 $146 $143 $242 forward $247 $-1 #
edge $-1 $249 2.1483650011071145 $374 14.301891862119055 $241 $375 forward 7 unknown #
coedge $-1 $376 $377 $144 $244 forward $236 $-1 #
edge $-1 $378 -99.656284726896928 $248 -91.102349788294873 $243 $379 forward 7 unknown #
edge $-1 $249 132.19750112422111 $378 144.0888698995941 $145 $380 forward 7 unknown #
coedge $-1 $146 $370 $376 $381 forward $247 $-1 #
loop $-1 $-1 $370 $235 #
vertex $-1 $244 $382 #
vertex $-1 $147 $383 #
straight-curve $-1 37.800378352557061 -10.373493432720199 12.982763912955249 -1 0 0 I I #
coedge $-1 $251 $251 $-1 $384 reversed $150 $-1 #
edge $-1 $385 0 $385 6.2831853071796004 $151 $386 forward 7 unknown #
vertex $-1 $154 $387 #
ellipse-curve $-1 67.914215572509747 -16.450256863226169 8.7057964436542274 0.71933980857756763 0 0.69465836192734942 1.0419875428910241 0 -1.0790097128663514 1 I I #
face $-1 $-1 $267 $34 $-1 $388 forward single #
loop $-1 $-1 $389 $155 #
plane-surface $-1 72.044434949797051 0 0 -1 0 0 0 0 1 forward_v I I I I #
coedge $-1 $390 $391 $392 $393 reversed $156 $-1 #
coedge $-1 $394 $158 $160 $265 forward $98 $-1 #
coedge $-1 $158 $394 $390 $395 forward $98 $-1 #
coedge $-1 $392 $161 $158 $262 forward $267 $-1 #
edge $-1 $269 -12.966279773171308 $396 -0.81275291215936907 $261 $397 forward 7 unknown #
coedge $-1 $398 $399 $159 $264 forward $256 $-1 #
edge $-1 $400 -99.656284726896928 $268 -91.102349788294873 $263 $401 forward 7 unknown #
edge $-1 $269 132.19750112422111 $400 144.0888698995941 $160 $402 forward 7 unknown #
coedge $-1 $161 $392 $398 $403 forward $267 $-1 #
loop $-1 $-1 $392 $255 #
vertex $-1 $264 $404 #
vertex $-1 $162 $405 #
straight-curve $-1 37.800378352557061 19.855796115836647 12.982763912955249 -1 0 0 I I #
coedge $-1 $271 $271 $-1 $406 reversed $165 $-1 #
edge $-1 $407 0 $407 6.2831853071796004 $166 $408 forward 7 unknown #
vertex $-1 $169 $409 #
ellipse-curve $-1 67.914215572509747 13.779032685330677 8.7057964436542274 0.71933980857756763 0 0.69465836192734942 1.0419875428910241 0 -1.0790097128663514 1 I I #
face $-1 $-1 $287 $36 $-1 $410 forward single #
loop $-1 $-1 $411 $170 #
plane-surface $-1 -72.044434949797051 0 0 1 0 0 0 0 -1 forward_v I I I I #
coedge $-1 $412 $413 $414 $415 reversed $171 $-1 #
coedge $-1 $416 $173 $175 $285 forward $107 $-1 #
coedge $-1 $173 $416 $412 $417 forward $107 $-1 #
coedge $-1 $414 $176 $173 $282 forward $287 $-1 #
edge $-1 $289 -9.1330565365844532 $418 -1.4750375048264157 $281 $419 forward 7 unknown #
coedge $-1 $420 $421 $174 $284 forward $276 $-1 #
edge $-1 $422 -42.299950851446397 $288 -31.43213023765599 $283 $423 forward 7 unknown #
edge $-1 $289 -13.607985576844158 $422 2.3448253187574213e-014 $175 $424 forward 7 unknown #
coedge $-1 $176 $414 $420 $425 forward $287 $-1 #
loop $-1 $-1 $414 $275 #
vertex $-1 $284 $426 #
vertex $-1 $177 $427 #
straight-curve $-1 -93.559462119587749 -14.437103557289888 12.982763912955249 1 0 0 I I #
coedge $-1 $291 $291 $-1 $428 reversed $180 $-1 #
edge $-1 $429 0 $429 6.2831853071796004 $181 $430 forward 7 unknown #
vertex $-1 $184 $431 #
ellipse-curve $-1 -67.94968994656206 -10.608094041410869 7.5488536060600477 -0.79863551827123203 0 0.60181501223851219 0.90272251835776829 0 1.197953277406848 1 I I #
face $-1 $-1 $432 $38 $-1 $433 reversed single #
loop $-1 $-1 $191 $185 #
plane-surface $-1 0 0 12.982763912955248 0 0 1 1 0 0 forward_v I I I I #
coedge $-1 $434 $435 $436 $437 reversed $186 $-1 #
coedge $-1 $438 $188 $190 $305 forward $116 $-1 #
coedge $-1 $188 $438 $434 $439 forward $116 $-1 #
coedge $-1 $436 $191 $188 $302 forward $296 $-1 #
edge $-1 $308 5.9815882376939733 $440 13.639607269452011 $301 $441 forward 7 unknown #
coedge $-1 $442 $443 $189 $304 forward $432 $-1 #
edge $-1 $444 -42.299950851446397 $307 -31.43213023765599 $303 $445 forward 7 unknown #
edge $-1 $308 -13.607985576844158 $444 2.3448253187574213e-014 $190 $446 forward 7 unknown #
coedge $-1 $191 $436 $442 $447 forward $296 $-1 #
vertex $-1 $304 $448 #
vertex $-1 $192 $449 #
straight-curve $-1 -93.559462119587749 15.792185991266965 12.982763912955249 1 0 0 I I #
coedge $-1 $310 $310 $-1 $450 reversed $195 $-1 #
edge $-1 $451 0 $451 6.2831853071796004 $196 $452 forward 7 unknown #
vertex $-1 $199 $453 #
ellipse-curve $-1 -67.94968994656206 19.621195507145984 7.5488536060600477 -0.79863551827123203 0 0.60181501223851219 0.90272251835776829 0 1.197953277406848 1 I I #
face $-1 $-1 $215 $30 $-1 $454 reversed single #
loop $-1 $-1 $330 $200 #
plane-surface $-1 0 37.931558803381563 0 0 -1 0 0 0 -1 forward_v I I I I #
coedge $-1 $455 $328 $331 $456 forward $201 $-1 #
coedge $-1 $334 $203 $204 $322 reversed $125 $-1 #
coedge $-1 $328 $455 $203 $320 reversed $201 $-1 #
edge $-1 $335 -12.982763912955248 $457 12.982763912955248 $319 $458 forward 7 unknown #
coedge $-1 $205 $204 $455 $459 forward $81 $-1 #
edge $-1 $326 -72.044434949797051 $457 72.044434949797051 $318 $460 forward 7 unknown #
coedge $-1 $331 $330 $205 $324 reversed $315 $-1 #
edge $-1 $461 -72.044434949797051 $325 72.044434949797051 $323 $462 forward 7 unknown #
vertex $-1 $207 $463 #
vertex $-1 $337 $464 #
straight-curve $-1 72.044434949797051 0 -12.982763912955248 0 -1 0 I I #
coedge $-1 $317 $319 $208 $329 reversed $201 $-1 #
edge $-1 $332 -37.931558803381563 $335 37.931558803381563 $328 $465 forward 7 unknown #
coedge $-1 $323 $209 $214 $338 forward $315 $-1 #
coedge $-1 $209 $323 $317 $456 reversed $315 $-1 #
vertex $-1 $210 $466 #
straight-curve $-1 0 37.931558803381563 12.982763912955248 -1 0 0 I I #
coedge $-1 $211 $318 $213 $337 reversed $125 $-1 #
vertex $-1 $329 $467 #
straight-curve $-1 0 -37.931558803381563 12.982763912955248 1 0 0 I I #
edge $-1 $216 -12.982763912955248 $326 12.982763912955248 $213 $468 forward 7 unknown #
edge $-1 $217 -12.982763912955248 $325 12.982763912955248 $214 $469 forward 7 unknown #
point $-1 72.044434949797051 -37.931558803381563 12.982763912955248 #
point $-1 72.044434949797051 37.931558803381563 12.982763912955248 #
face $-1 $-1 $470 $31 $-1 $471 reversed single #
loop $-1 $-1 $472 $219 #
plane-surface $-1 0 0 -12.982763912955248 0 0 1 1 0 0 forward_v I I I I #
coedge $-1 $351 $361 $346 $473 forward $220 $-1 #
coedge $-1 $225 $222 $472 $474 reversed $133 $-1 #
coedge $-1 $222 $225 $344 $473 reversed $133 $-1 #
coedge $-1 $475 $476 $222 $348 forward $470 $-1 #
edge $-1 $477 -12.982763912955248 $478 12.982763912955248 $347 $479 forward 7 unknown #
coedge $-1 $472 $228 $223 $350 forward $342 $-1 #
edge $-1 $233 -26.276191878531865 $354 -23.155526418428156 $349 $480 forward 7 unknown #
coedge $-1 $230 $344 $224 $352 forward $220 $-1 #
edge $-1 $353 23.155526418428156 $232 26.276191878531865 $351 $481 forward 7 unknown #
vertex $-1 $352 $482 #
vertex $-1 $350 $483 #
straight-curve $-1 -47.871385566908167 -22.527020293732136 0 0 0 -1 I I #
coedge $-1 $476 $475 $227 $357 forward $470 $-1 #
edge $-1 $362 -12.982763912955248 $359 12.982763912955248 $356 $484 forward 7 unknown #
coedge $-1 $228 $472 $476 $485 forward $342 $-1 #
vertex $-1 $229 $486 #
straight-curve $-1 -50.992051027011875 -15.114644774278425 -12.982763912955248 0 1 0 I I #
coedge $-1 $344 $230 $475 $487 forward $220 $-1 #
vertex $-1 $487 $488 #
straight-curve $-1 -50.992051027011875 -15.114644774278425 12.982763912955248 0 -1 0 I I #
point $-1 -50.992051027011875 -22.527020293732136 12.982763912955248 #
point $-1 -50.992051027011875 -22.527020293732136 -12.982763912955248 #
plane-surface $-1 0 0 12.982763912955248 0 0 1 1 0 0 forward_v I I I I #
coedge $-1 $377 $376 $369 $489 forward $236 $-1 #
coedge $-1 $369 $238 $240 $373 reversed $141 $-1 #
coedge $-1 $238 $368 $367 $489 reversed $141 $-1 #
coedge $-1 $246 $241 $238 $371 forward $247 $-1 #
edge $-1 $374 25.983617842665367 $490 34.24405659723999 $370 $491 forward 7 unknown #
coedge $-1 $240 $239 $377 $492 reversed $89 $-1 #
edge $-1 $493 -144.0888698995941 $374 -132.19750112422111 $368 $494 forward 7 unknown #
vertex $-1 $242 $495 #
straight-curve $-1 63.783996195222421 -8.2251284316130846 12.982763912955264 0 -1 0 I I #
coedge $-1 $367 $243 $246 $381 reversed $236 $-1 #
coedge $-1 $243 $367 $372 $492 forward $236 $-1 #
vertex $-1 $244 $496 #
straight-curve $-1 72.044434949797051 -10.373493432720199 104.08511370125012 0 0 1 I I #
straight-curve $-1 -28.048103386617939 -10.373493432720199 108.07768906608524 0.69465836192734942 0 -0.71933980857756763 I I #
edge $-1 $490 -22.527020293732139 $248 -10.373493432720199 $376 $497 forward 7 unknown #
point $-1 72.044434949797051 -10.373493432720199 12.982763912955248 #
point $-1 63.783996195222429 -10.373493432720199 12.982763912955249 #
edge $-1 $498 1 $498 0 $251 $-1 forward 7 unknown #
vertex $-1 $252 $499 #
ellipse-curve $-1 64.673695878487095 -16.450256863226169 5.5764630248707574 0.71933980857756763 0 0.69465836192734942 1.0419875428910241 0 -1.0790097128663514 1 I I #
point $-1 68.95620311540074 -16.450256863226169 7.6267867307878472 #
plane-surface $-1 0 0 12.982763912955248 0 0 1 1 0 0 forward_v I I I I #
coedge $-1 $399 $398 $391 $500 forward $256 $-1 #
coedge $-1 $391 $258 $260 $395 reversed $156 $-1 #
coedge $-1 $258 $390 $389 $500 reversed $156 $-1 #
coedge $-1 $266 $261 $258 $393 forward $267 $-1 #
edge $-1 $396 25.983617842665367 $501 34.24405659723999 $392 $502 forward 7 unknown #
coedge $-1 $260 $259 $399 $503 reversed $98 $-1 #
edge $-1 $504 -144.0888698995941 $396 -132.19750112422111 $390 $505 forward 7 unknown #
vertex $-1 $262 $506 #
straight-curve $-1 63.783996195222421 6.8895163426653383 12.982763912955264 0 -1 0 I I #
coedge $-1 $389 $263 $266 $403 reversed $256 $-1 #
coedge $-1 $263 $389 $394 $503 forward $256 $-1 #
vertex $-1 $264 $507 #
straight-curve $-1 72.044434949797051 19.855796115836647 104.08511370125012 0 0 1 I I #
straight-curve $-1 -28.048103386617939 19.855796115836647 108.07768906608524 0.69465836192734942 0 -0.71933980857756763 I I #
edge $-1 $501 7.7022692548247074 $268 19.855796115836647 $398 $508 forward 7 unknown #
point $-1 72.044434949797051 19.855796115836647 12.982763912955248 #
point $-1 63.783996195222429 19.855796115836647 12.982763912955249 #
edge $-1 $509 1 $509 0 $271 $-1 forward 7 unknown #
vertex $-1 $272 $510 #
ellipse-curve $-1 64.673695878487095 13.779032685330677 5.5764630248707574 0.71933980857756763 0 0.69465836192734942 1.0419875428910241 0 -1.0790097128663514 1 I I #
point $-1 68.95620311540074 13.779032685330677 7.6267867307878472 #
plane-surface $-1 0 0 12.982763912955248 0 0 1 1 0 0 forward_v I I I I #
coedge $-1 $421 $420 $413 $511 forward $276 $-1 #
coedge $-1 $413 $278 $280 $417 reversed $171 $-1 #
coedge $-1 $278 $412 $411 $511 reversed $171 $-1 #
coedge $-1 $286 $281 $278 $415 forward $287 $-1 #
edge $-1 $418 -29.70451717626068 $512 -21.515027169790699 $414 $513 forward 7 unknown #
coedge $-1 $280 $279 $421 $514 reversed $107 $-1 #
edge $-1 $515 -2.3448253187574213e-014 $418 13.607985576844158 $412 $516 forward 7 unknown #
vertex $-1 $282 $517 #
straight-curve $-1 -63.854944943327069 -5.3040470207054344 12.982763912955249 0 1 0 I I #
coedge $-1 $411 $283 $286 $425 reversed $276 $-1 #
coedge $-1 $283 $411 $416 $514 forward $276 $-1 #
vertex $-1 $284 $518 #
straight-curve $-1 -72.044434949797051 -14.437103557289888 44.414894150611239 0 0 1 I I #
straight-curve $-1 -72.044434949797036 -14.437103557289888 2.1149432991648638 -0.60181501223851219 0 -0.79863551827123203 I I #
edge $-1 $512 6.7790845255318501 $288 14.437103557289888 $420 $519 forward 7 unknown #
point $-1 -72.044434949797051 -14.437103557289888 12.982763912955248 #
point $-1 -63.854944943327069 -14.437103557289888 12.982763912955248 #
edge $-1 $520 1 $520 0 $291 $-1 forward 7 unknown #
vertex $-1 $292 $521 #
ellipse-curve $-1 -64.566487384900881 -10.608094041410869 4.9994276858870323 -0.79863551827123203 0 0.60181501223851219 0.90272251835776829 0 1.197953277406848 1 I I #
point $-1 -67.046967428204297 -10.608094041410869 8.7468068834669062 #
loop $-1 $-1 $303 $295 #
plane-surface $-1 -72.044434949797051 0 0 1 0 0 0 0 -1 forward_v I I I I #
coedge $-1 $435 $298 $300 $439 reversed $186 $-1 #
coedge $-1 $298 $434 $522 $523 reversed $186 $-1 #
coedge $-1 $306 $301 $298 $437 forward $296 $-1 #
edge $-1 $440 -29.70451717626068 $524 -21.515027169790699 $436 $525 forward 7 unknown #
coedge $-1 $300 $299 $443 $526 reversed $116 $-1 #
edge $-1 $527 -2.3448253187574213e-014 $440 13.607985576844158 $434 $528 forward 7 unknown #
vertex $-1 $302 $529 #
straight-curve $-1 -63.854944943327069 9.810597753572992 12.982763912955249 0 1 0 I I #
coedge $-1 $522 $303 $306 $447 reversed $432 $-1 #
coedge $-1 $303 $522 $438 $526 forward $432 $-1 #
vertex $-1 $304 $530 #
straight-curve $-1 -72.044434949797051 15.792185991266965 44.414894150611239 0 0 1 I I #
straight-curve $-1 -72.044434949797036 15.792185991266965 2.1149432991648638 -0.60181501223851219 0 -0.79863551827123203 I I #
edge $-1 $524 -23.450205023025003 $307 -15.792185991266965 $442 $531 forward 7 unknown #
point $-1 -72.044434949797051 15.792185991266965 12.982763912955248 #
point $-1 -63.854944943327069 15.792185991266965 12.982763912955248 #
edge $-1 $532 1 $532 0 $310 $-1 forward 7 unknown #
vertex $-1 $311 $533 #
ellipse-curve $-1 -64.566487384900881 19.621195507145984 4.9994276858870323 -0.79863551827123203 0 0.60181501223851219 0.90272251835776829 0 1.197953277406848 1 I I #
point $-1 -67.046967428204297 19.621195507145984 8.7468068834669062 #
plane-surface $-1 72.044434949797051 0 0 -1 0 0 0 0 1 forward_v I I I I #
coedge $-1 $319 $317 $321 $459 reversed $201 $-1 #
edge $-1 $332 -12.982763912955248 $461 12.982763912955248 $331 $534 forward 7 unknown #
vertex $-1 $459 $535 #
straight-curve $-1 -72.044434949797051 -37.931558803381563 0 0 0 -1 I I #
edge $-1 $457 -37.931558803381563 $461 37.931558803381563 $455 $536 forward 7 unknown #
straight-curve $-1 0 -37.931558803381563 -12.982763912955248 -1 0 0 I I #
vertex $-1 $324 $537 #
straight-curve $-1 0 37.931558803381563 -12.982763912955248 1 0 0 I I #
point $-1 72.044434949797051 37.931558803381563 -12.982763912955248 #
point $-1 72.044434949797051 -37.931558803381563 -12.982763912955248 #
straight-curve $-1 -72.044434949797051 0 12.982763912955248 0 -1 0 I I #
point $-1 -72.044434949797051 37.931558803381563 12.982763912955248 #
point $-1 -72.044434949797051 -37.931558803381563 12.982763912955248 #
straight-curve $-1 72.044434949797051 -37.931558803381563 0 0 0 -1 I I #
straight-curve $-1 72.044434949797051 37.931558803381563 0 0 0 -1 I I #
loop $-1 $-1 $347 $341 #
plane-surface $-1 0 -37.931558803381563 0 0 1 0 0 0 1 forward_v I I I I #
coedge $-1 $358 $349 $345 $474 forward $342 $-1 #
edge $-1 $478 -22.816914029103138 $353 -7.4123755194537111 $344 $538 forward 7 unknown #
edge $-1 $354 7.4123755194537111 $477 22.816914029103138 $472 $539 forward 7 unknown #
coedge $-1 $356 $347 $361 $487 reversed $470 $-1 #
coedge $-1 $347 $356 $358 $485 reversed $470 $-1 #
vertex $-1 $485 $540 #
vertex $-1 $348 $541 #
straight-curve $-1 -47.871385566908167 -37.931558803381563 0 0 0 1 I I #
straight-curve $-1 -24.715859148480011 -22.527020293732136 -12.982763912955248 1 0 0 I I #
straight-curve $-1 -24.715859148480011 -22.527020293732136 12.982763912955248 -1 0 0 I I #
point $-1 -47.871385566908167 -22.527020293732136 12.982763912955248 #
point $-1 -47.871385566908167 -22.527020293732136 -12.982763912955248 #
straight-curve $-1 -50.992051027011875 -37.931558803381563 0 0 0 -1 I I #
edge $-1 $477 47.871385566908167 $359 50.992051027011875 $476 $542 forward 7 unknown #
point $-1 -50.992051027011875 -37.931558803381563 -12.982763912955248 #
edge $-1 $362 -50.992051027011875 $478 -47.871385566908167 $475 $543 forward 7 unknown #
point $-1 -50.992051027011875 -37.931558803381563 12.982763912955248 #
edge $-1 $490 91.102349788294873 $493 99.656284726896928 $367 $544 forward 7 unknown #
vertex $-1 $381 $545 #
straight-curve $-1 37.800378352557061 -22.527020293732139 12.982763912955249 1 0 0 I I #
edge $-1 $493 -14.301891862119055 $378 -2.1483650011071145 $377 $546 forward 7 unknown #
vertex $-1 $492 $547 #
straight-curve $-1 -28.048103386617939 -22.527020293732139 108.07768906608524 -0.69465836192734942 0 0.71933980857756763 I I #
point $-1 63.783996195222429 -22.527020293732139 12.982763912955249 #
point $-1 72.044434949797051 -10.373493432720199 4.4288289743531948 #
straight-curve $-1 72.044434949797051 0 12.982763912955248 0 1 0 I I #
vertex $-1 $384 $548 #
point $-1 65.715683421378131 -16.450256863226169 4.4974533120044065 #
edge $-1 $501 91.102349788294873 $504 99.656284726896928 $389 $549 forward 7 unknown #
vertex $-1 $403 $550 #
straight-curve $-1 37.800378352557061 7.7022692548247074 12.982763912955249 1 0 0 I I #
edge $-1 $504 0.81275291215936907 $400 12.966279773171308 $399 $551 forward 7 unknown #
vertex $-1 $503 $552 #
straight-curve $-1 -28.048103386617939 7.7022692548247074 108.07768906608524 -0.69465836192734942 0 0.71933980857756763 I I #
point $-1 63.783996195222429 7.7022692548247074 12.982763912955249 #
point $-1 72.044434949797051 19.855796115836647 4.4288289743531948 #
straight-curve $-1 72.044434949797051 0 12.982763912955248 0 1 0 I I #
vertex $-1 $406 $553 #
point $-1 65.715683421378131 13.779032685330677 4.4974533120044065 #
edge $-1 $512 31.43213023765599 $515 42.299950851446397 $411 $554 forward 7 unknown #
vertex $-1 $425 $555 #
straight-curve $-1 -93.559462119587749 -6.7790845255318501 12.982763912955249 -1 0 0 I I #
edge $-1 $515 1.4750375048264157 $422 9.1330565365844532 $421 $556 forward 7 unknown #
vertex $-1 $514 $557 #
straight-curve $-1 -72.044434949797036 -6.7790845255318501 2.1149432991648638 0.60181501223851219 0 0.79863551827123203 I I #
point $-1 -63.854944943327069 -6.7790845255318501 12.982763912955248 #
point $-1 -72.044434949797051 -14.437103557289888 2.1149432991648451 #
straight-curve $-1 -72.044434949797051 0 12.982763912955248 0 -1 0 I I #
vertex $-1 $428 $558 #
point $-1 -63.663764866543112 -10.608094041410869 6.197380963293881 #
coedge $-1 $443 $442 $435 $523 forward $432 $-1 #
edge $-1 $524 31.43213023765599 $527 42.299950851446397 $522 $559 forward 7 unknown #
vertex $-1 $447 $560 #
straight-curve $-1 -93.559462119587749 23.450205023025003 12.982763912955249 -1 0 0 I I #
edge $-1 $527 -13.639607269452011 $444 -5.9815882376939733 $443 $561 forward 7 unknown #
vertex $-1 $526 $562 #
straight-curve $-1 -72.044434949797036 23.450205023025003 2.1149432991648638 0.60181501223851219 0 0.79863551827123203 I I #
point $-1 -63.854944943327069 23.450205023025003 12.982763912955248 #
point $-1 -72.044434949797051 15.792185991266965 2.1149432991648451 #
straight-curve $-1 -72.044434949797051 0 12.982763912955248 0 -1 0 I I #
vertex $-1 $450 $563 #
point $-1 -63.663764866543112 19.621195507145984 6.197380963293881 #
straight-curve $-1 -72.044434949797051 37.931558803381563 0 0 0 -1 I I #
point $-1 -72.044434949797051 -37.931558803381563 -12.982763912955248 #
straight-curve $-1 -72.044434949797051 0 -12.982763912955248 0 1 0 I I #
point $-1 -72.044434949797051 37.931558803381563 -12.982763912955248 #
straight-curve $-1 -47.871385566908167 -15.114644774278425 12.982763912955248 0 1 0 I I #
straight-curve $-1 -47.871385566908167 -15.114644774278425 -12.982763912955248 0 -1 0 I I #
point $-1 -47.871385566908167 -37.931558803381563 -12.982763912955248 #
point $-1 -47.871385566908167 -37.931558803381563 12.982763912955248 #
straight-curve $-1 0 -37.931558803381563 -12.982763912955248 -1 0 0 I I #
straight-curve $-1 0 -37.931558803381563 12.982763912955248 1 0 0 I I #
straight-curve $-1 72.044434949797051 -22.527020293732139 104.08511370125012 0 0 -1 I I #
point $-1 72.044434949797051 -22.527020293732139 12.982763912955248 #
straight-curve $-1 72.044434949797051 -8.2251284316130846 4.4288289743531948 0 1 0 I I #
point $-1 72.044434949797051 -22.527020293732139 4.4288289743531948 #
point $-1 63.59468616562075 -16.450256863226169 4.5344754819797339 #
straight-curve $-1 72.044434949797051 7.7022692548247074 104.08511370125012 0 0 -1 I I #
point $-1 72.044434949797051 7.7022692548247074 12.982763912955248 #
straight-curve $-1 72.044434949797051 6.8895163426653383 4.4288289743531948 0 1 0 I I #
point $-1 72.044434949797051 7.7022692548247074 4.4288289743531948 #
point $-1 63.59468616562075 13.779032685330677 4.5344754819797339 #
straight-curve $-1 -72.044434949797051 -6.7790845255318501 44.414894150611239 0 0 -1 I I #
point $-1 -72.044434949797051 -6.7790845255318501 12.982763912955248 #
straight-curve $-1 -72.044434949797051 -5.3040470207054344 2.1149432991648496 0 -1 0 I I #
point $-1 -72.044434949797051 -6.7790845255318501 2.1149432991648451 #
point $-1 -63.368534107494028 -10.608094041410869 4.0967051675292643 #
straight-curve $-1 -72.044434949797051 23.450205023025003 44.414894150611239 0 0 -1 I I #
point $-1 -72.044434949797051 23.450205023025003 12.982763912955248 #
straight-curve $-1 -72.044434949797051 9.810597753572992 2.1149432991648496 0 -1 0 I I #
point $-1 -72.044434949797051 23.450205023025003 2.1149432991648451 #
point $-1 -63.368534107494028 19.621195507145984 4.0967051675292643 #
End-of-ACIS-data 