500 0 6 0           
7 Unknown 11 ACIS 5.0 NT 24 Fri Mar 26 15:59:49 1999 
-1 9.9999999999999995e-007 1e-010 
body $-1 $6 $-1 $7 #
body $-1 $8 $-1 $9 #
body $-1 $10 $-1 $11 #
body $-1 $12 $-1 $13 #
body $-1 $14 $-1 $15 #
body $-1 $16 $-1 $17 #
lump $-1 $-1 $18 $0 #
transform $-1 1 0 0 0 1 0 0 0 1 69.416180913724176 30.228567932918189 11.939301838161379 1 rotate no_reflect no_shear #
lump $-1 $-1 $19 $1 #
transform $-1 1 0 0 0 1 0 0 0 1 69.416180913724176 30.228567932918189 11.939301838161379 1 rotate no_reflect no_shear #
lump $-1 $-1 $20 $2 #
transform $-1 1 0 0 0 1 0 0 0 1 69.416180913724176 30.228567932918189 11.939301838161379 1 rotate no_reflect no_shear #
lump $-1 $-1 $21 $3 #
transform $-1 1 0 0 0 1 0 0 0 1 69.416180913724176 30.228567932918189 11.939301838161379 1 rotate no_reflect no_shear #
lump $-1 $-1 $22 $4 #
transform $-1 1 0 0 0 1 0 0 0 1 69.416180913724176 30.228567932918189 11.939301838161379 1 rotate no_reflect no_shear #
lump $-1 $-1 $23 $5 #
transform $-1 1 0 0 0 1 0 0 0 1 69.416180913724176 30.228567932918189 11.939301838161379 1 rotate no_reflect no_shear #
shell $-1 $-1 $-1 $24 $-1 $6 #
shell $-1 $-1 $-1 $25 $-1 $8 #
shell $-1 $-1 $-1 $26 $-1 $10 #
shell $-1 $-1 $-1 $27 $-1 $12 #
shell $-1 $-1 $-1 $28 $-1 $14 #
shell $-1 $-1 $-1 $29 $-1 $16 #
face $-1 $30 $31 $18 $-1 $32 forward single #
face $-1 $33 $34 $19 $-1 $35 reversed single #
face $-1 $36 $37 $20 $-1 $38 forward single #
face $-1 $39 $40 $21 $-1 $41 reversed single #
face $-1 $42 $43 $22 $-1 $44 forward single #
face $-1 $45 $46 $23 $-1 $47 forward single #
face $-1 $48 $49 $18 $-1 $50 reversed single #
loop $-1 $-1 $51 $24 #
plane-surface $-1 0 0 11.939301838161379 0 0 1 1 0 0 forward_v I I I I #
face $-1 $52 $53 $19 $-1 $54 reversed single #
loop $-1 $-1 $55 $25 #
plane-surface $-1 28.595090379300871 -3.2512622082339027 192.55284587545199 0 -1 0 -0.54463904215088732 0 -0.83867056331134215 forward_v I I I I #
face $-1 $56 $57 $20 $-1 $58 forward single #
loop $-1 $59 $60 $26 #
cone-surface $-1 58.629327731362672 -9.1442969413094985 3.1684722532317959 -0.54463904215088732 0 -0.83867056331134215 1.6773411266226843 0 -1.0892780843017746 1 I I 0 1 2 forward I I I I #
face $-1 $61 $62 $21 $-1 $63 reversed single #
loop $-1 $-1 $64 $27 #
plane-surface $-1 -170.9517437881554 16.896336784111551 95.875639773026748 0 1 0 -0.73135370988377701 0 0.68199835119979291 forward_v I I I I #
face $-1 $65 $66 $22 $-1 $67 forward single #
loop $-1 $68 $69 $28 #
cone-surface $-1 -63.802811624637016 20.705545683770595 6.0039551129460271 0.73135370988377701 0 -0.68199835119979291 1.0229975267996894 0 1.0970305648256655 1 I I 0 1 1.5 forward I I I I #
face $-1 $70 $71 $23 $-1 $72 forward single #
loop $-1 $73 $74 $29 #
cone-surface $-1 -63.802811624637016 26.419359033259155 6.0039551129460271 0.73135370988377701 0 -0.68199835119979291 1.0229975267996894 0 1.0970305648256655 1 I I 0 1 1.5 forward I I I I #
face $-1 $75 $76 $18 $-1 $77 reversed single #
loop $-1 $-1 $78 $30 #
plane-surface $-1 0 0 -11.939301838161379 0 0 1 1 0 0 forward_v I I I I #
coedge $-1 $79 $80 $81 $82 forward $31 $-1 #
face $-1 $83 $84 $19 $-1 $85 reversed single #
loop $-1 $-1 $86 $33 #
plane-surface $-1 -47.018434185946006 -9.1442969413094985 76.118230775781811 0.54463904215088732 0 0.83867056331134215 0.83867056331134215 0 -0.54463904215088732 forward_v I I I I #
coedge $-1 $87 $88 $89 $90 reversed $34 $-1 #
face $-1 $-1 $91 $20 $-1 $92 forward single #
loop $-1 $93 $94 $36 #
cone-surface $-1 56.101701934040875 -9.1442969413094985 -0.72373008119590487 -0.54463904215088732 0 -0.83867056331134215 0.83867056331134215 0 -0.54463904215088732 1 I I -0.70710678118654768 0.70710678118654735 1 forward I I I I #
loop $-1 $-1 $95 $26 #
coedge $-1 $60 $60 $96 $97 reversed $37 $-1 #
face $-1 $98 $99 $21 $-1 $100 forward single #
loop $-1 $-1 $101 $39 #
plane-surface $-1 -69.416180913724176 23.562452358514868 1.1921979135339029 -0.73135370988377701 0 0.68199835119979291 0.68199835119979291 0 0.73135370988377701 forward_v I I I I #
coedge $-1 $102 $103 $104 $105 reversed $40 $-1 #
face $-1 $-1 $106 $22 $-1 $107 forward single #
loop $-1 $108 $109 $42 #
cone-surface $-1 -62.651845202395833 20.705545683770595 4.9306615866445735 0.73135370988377701 0 -0.68199835119979291 0.51149876339984468 0 0.54851528241283276 1 I I -0.70710678118654757 0.70710678118654757 0.75 forward I I I I #
loop $-1 $-1 $110 $28 #
coedge $-1 $69 $69 $111 $112 reversed $43 $-1 #
face $-1 $-1 $113 $23 $-1 $114 forward single #
loop $-1 $115 $116 $45 #
cone-surface $-1 -62.651845202395833 26.419359033259155 4.9306615866445735 0.73135370988377701 0 -0.68199835119979291 0.51149876339984468 0 0.54851528241283276 1 I I -0.70710678118654757 0.70710678118654757 0.75 forward I I I I #
loop $-1 $-1 $117 $29 #
coedge $-1 $74 $74 $118 $119 reversed $46 $-1 #
face $-1 $120 $121 $18 $-1 $122 reversed single #
loop $-1 $-1 $123 $48 #
plane-surface $-1 0 -30.228567932918189 0 0 1 0 0 0 1 forward_v I I I I #
coedge $-1 $124 $125 $126 $127 forward $49 $-1 #
coedge $-1 $128 $51 $129 $130 forward $31 $-1 #
coedge $-1 $51 $128 $131 $132 forward $31 $-1 #
coedge $-1 $133 $134 $51 $82 reversed $135 $-1 #
edge $-1 $136 -30.228567932918189 $137 30.228567932918189 $81 $138 forward 7 unknown #
face $-1 $139 $140 $19 $-1 $141 forward single #
loop $-1 $-1 $142 $52 #
plane-surface $-1 28.595090379300871 -15.037331674385094 192.55284587545199 0 1 0 0.54463904215088732 0 0.83867056331134215 forward_v I I I I #
coedge $-1 $143 $144 $145 $146 reversed $53 $-1 #
coedge $-1 $88 $55 $147 $148 reversed $34 $-1 #
coedge $-1 $55 $87 $143 $149 reversed $34 $-1 #
coedge $-1 $145 $150 $55 $90 forward $140 $-1 #
edge $-1 $151 -55.118635724073741 $152 -37.510902869692529 $89 $153 forward 7 unknown #
loop $-1 $-1 $96 $56 #
plane-surface $-1 -47.018434185946006 -9.1442969413094985 76.118230775781811 0.54463904215088732 0 0.83867056331134215 0.83867056331134215 0 -0.54463904215088732 forward_v I I I I #
loop $-1 $-1 $154 $36 #
coedge $-1 $94 $94 $95 $155 reversed $57 $-1 #
coedge $-1 $95 $95 $94 $155 forward $59 $-1 #
coedge $-1 $96 $96 $60 $97 forward $91 $-1 #
edge $-1 $156 0 $156 6.2831853071796004 $96 $157 forward 7 unknown #
face $-1 $158 $159 $21 $-1 $160 reversed single #
loop $-1 $-1 $104 $61 #
plane-surface $-1 0 0 11.939301838161379 0 0 1 1 0 0 forward_v I I I I #
coedge $-1 $161 $162 $163 $164 reversed $62 $-1 #
coedge $-1 $103 $64 $165 $166 reversed $40 $-1 #
coedge $-1 $64 $102 $161 $167 reversed $40 $-1 #
coedge $-1 $163 $168 $64 $105 forward $99 $-1 #
edge $-1 $169 16.059690980353523 $170 26.081527278871143 $104 $171 forward 7 unknown #
loop $-1 $-1 $111 $65 #
plane-surface $-1 -69.416180913724176 23.562452358514868 1.1921979135339029 -0.73135370988377701 0 0.68199835119979291 0.68199835119979291 0 0.73135370988377701 forward_v I I I I #
loop $-1 $-1 $172 $42 #
coedge $-1 $109 $109 $110 $173 reversed $66 $-1 #
coedge $-1 $110 $110 $109 $173 forward $68 $-1 #
coedge $-1 $111 $111 $69 $112 forward $106 $-1 #
edge $-1 $174 0 $174 6.2831853071796004 $111 $175 forward 7 unknown #
loop $-1 $-1 $118 $70 #
plane-surface $-1 -69.416180913724176 23.562452358514868 1.1921979135339029 -0.73135370988377701 0 0.68199835119979291 0.68199835119979291 0 0.73135370988377701 forward_v I I I I #
loop $-1 $-1 $176 $45 #
coedge $-1 $116 $116 $117 $177 reversed $71 $-1 #
coedge $-1 $117 $117 $116 $177 forward $73 $-1 #
coedge $-1 $118 $118 $74 $119 forward $113 $-1 #
edge $-1 $178 0 $178 6.2831853071796004 $118 $179 forward 7 unknown #
face $-1 $180 $181 $18 $-1 $182 reversed single #
loop $-1 $-1 $183 $75 #
plane-surface $-1 -69.416180913724176 0 0 1 0 0 0 0 -1 forward_v I I I I #
coedge $-1 $184 $131 $185 $186 forward $76 $-1 #
coedge $-1 $187 $78 $184 $188 forward $49 $-1 #
coedge $-1 $78 $187 $189 $190 forward $49 $-1 #
coedge $-1 $134 $133 $78 $127 reversed $135 $-1 #
edge $-1 $191 -30.228567932918189 $192 30.228567932918189 $126 $193 forward 7 unknown #
coedge $-1 $80 $79 $194 $195 forward $31 $-1 #
coedge $-1 $196 $197 $79 $130 reversed $181 $-1 #
edge $-1 $137 -69.416180913724176 $198 69.416180913724176 $129 $199 forward 7 unknown #
coedge $-1 $123 $200 $80 $132 reversed $76 $-1 #
edge $-1 $201 -69.416180913724176 $136 69.416180913724176 $131 $202 forward 7 unknown #
coedge $-1 $126 $81 $200 $203 forward $135 $-1 #
coedge $-1 $81 $126 $196 $204 reversed $135 $-1 #
loop $-1 $-1 $133 $180 #
vertex $-1 $82 $205 #
vertex $-1 $82 $206 #
straight-curve $-1 69.416180913724176 0 11.939301838161379 0 1 0 I I #
face $-1 $-1 $207 $19 $-1 $208 reversed single #
loop $-1 $-1 $89 $83 #
plane-surface $-1 0 0 11.939301838161379 0 0 1 1 0 0 forward_v I I I I #
coedge $-1 $209 $210 $211 $212 reversed $84 $-1 #
coedge $-1 $213 $86 $88 $149 forward $53 $-1 #
coedge $-1 $86 $213 $209 $214 forward $53 $-1 #
coedge $-1 $211 $89 $86 $146 forward $140 $-1 #
edge $-1 $152 -1.3208862624208466 $215 10.465183203730344 $145 $216 forward 7 unknown #
coedge $-1 $217 $218 $87 $148 forward $207 $-1 #
edge $-1 $219 -95.771716727191063 $151 -84.337121099564612 $147 $220 forward 7 unknown #
edge $-1 $152 117.83754738581563 $219 138.83236182744835 $88 $221 forward 7 unknown #
coedge $-1 $89 $211 $217 $222 forward $140 $-1 #
vertex $-1 $148 $223 #
vertex $-1 $90 $224 #
straight-curve $-1 14.297545189650435 -3.2512622082339027 11.939301838161384 -1 0 0 I I #
coedge $-1 $154 $154 $-1 $225 reversed $93 $-1 #
edge $-1 $226 0 $226 6.2831853071796004 $94 $227 forward 7 unknown #
vertex $-1 $97 $228 #
ellipse-curve $-1 60.612314486533577 -9.1442969413094985 6.2220040243481458 0.54463904215088732 0 0.83867056331134215 1.6773411266226843 0 -1.0892780843017746 1 I I #
face $-1 $-1 $229 $21 $-1 $230 reversed single #
loop $-1 $-1 $231 $98 #
plane-surface $-1 0 30.228567932918189 0 0 -1 0 0 0 -1 forward_v I I I I #
coedge $-1 $232 $101 $103 $167 forward $62 $-1 #
coedge $-1 $101 $232 $231 $233 reversed $62 $-1 #
coedge $-1 $234 $104 $101 $164 forward $99 $-1 #
edge $-1 $170 5.1151106048541166 $235 18.447341753660751 $163 $236 forward 7 unknown #
coedge $-1 $237 $238 $102 $166 forward $229 $-1 #
edge $-1 $239 -46.745621972979471 $169 -35.998518048351997 $165 $240 forward 7 unknown #
edge $-1 $170 -14.694810157366057 $239 0 $103 $241 forward 7 unknown #
coedge $-1 $104 $234 $237 $242 forward $99 $-1 #
vertex $-1 $166 $243 #
vertex $-1 $105 $244 #
straight-curve $-1 -85.475871894077699 16.896336784111551 11.939301838161377 1 0 0 I I #
coedge $-1 $172 $172 $-1 $245 reversed $108 $-1 #
edge $-1 $246 0 $246 6.2831853071796004 $109 $247 forward 7 unknown #
vertex $-1 $112 $248 #
ellipse-curve $-1 -64.405262764465363 20.705545683770595 6.5657498758476391 -0.73135370988377701 0 0.68199835119979291 1.0229975267996894 0 1.0970305648256655 1 I I #
coedge $-1 $176 $176 $-1 $249 reversed $115 $-1 #
edge $-1 $250 0 $250 6.2831853071796004 $116 $251 forward 7 unknown #
vertex $-1 $119 $252 #
ellipse-curve $-1 -64.405262764465363 26.419359033259155 6.5657498758476391 -0.73135370988377701 0 0.68199835119979291 1.0229975267996894 0 1.0970305648256655 1 I I #
face $-1 $-1 $135 $18 $-1 $253 reversed single #
loop $-1 $-1 $196 $120 #
plane-surface $-1 0 30.228567932918189 0 0 -1 0 0 0 -1 forward_v I I I I #
coedge $-1 $254 $194 $197 $255 forward $121 $-1 #
coedge $-1 $200 $123 $124 $188 reversed $76 $-1 #
coedge $-1 $194 $254 $123 $186 reversed $121 $-1 #
edge $-1 $201 -11.939301838161379 $256 11.939301838161379 $185 $257 forward 7 unknown #
coedge $-1 $125 $124 $254 $258 forward $49 $-1 #
edge $-1 $192 -69.416180913724176 $256 69.416180913724176 $184 $259 forward 7 unknown #
coedge $-1 $197 $196 $125 $190 reversed $181 $-1 #
edge $-1 $260 -69.416180913724176 $191 69.416180913724176 $189 $261 forward 7 unknown #
vertex $-1 $127 $262 #
vertex $-1 $203 $263 #
straight-curve $-1 69.416180913724176 0 -11.939301838161379 0 -1 0 I I #
coedge $-1 $183 $185 $128 $195 reversed $121 $-1 #
edge $-1 $198 -30.228567932918189 $201 30.228567932918189 $194 $264 forward 7 unknown #
coedge $-1 $189 $129 $134 $204 forward $181 $-1 #
coedge $-1 $129 $189 $183 $255 reversed $181 $-1 #
vertex $-1 $130 $265 #
straight-curve $-1 0 30.228567932918189 11.939301838161379 -1 0 0 I I #
coedge $-1 $131 $184 $133 $203 reversed $76 $-1 #
vertex $-1 $195 $266 #
straight-curve $-1 0 -30.228567932918189 11.939301838161379 1 0 0 I I #
edge $-1 $136 -11.939301838161379 $192 11.939301838161379 $133 $267 forward 7 unknown #
edge $-1 $137 -11.939301838161379 $191 11.939301838161379 $134 $268 forward 7 unknown #
point $-1 69.416180913724176 -30.228567932918189 11.939301838161379 #
point $-1 69.416180913724176 30.228567932918189 11.939301838161379 #
loop $-1 $-1 $147 $139 #
plane-surface $-1 69.416180913724176 0 0 -1 0 0 0 0 1 forward_v I I I I #
coedge $-1 $210 $142 $144 $214 reversed $84 $-1 #
coedge $-1 $142 $209 $269 $270 reversed $84 $-1 #
coedge $-1 $150 $145 $142 $212 forward $140 $-1 #
edge $-1 $215 37.510902869692529 $271 55.118635724073741 $211 $272 forward 7 unknown #
coedge $-1 $144 $143 $218 $273 reversed $53 $-1 #
edge $-1 $274 -138.83236182744835 $215 -117.83754738581563 $209 $275 forward 7 unknown #
vertex $-1 $146 $276 #
straight-curve $-1 51.808448059342986 -4.5721484706547493 11.93930183816137 0 -1 0 I I #
coedge $-1 $269 $147 $150 $222 reversed $207 $-1 #
coedge $-1 $147 $269 $213 $273 forward $207 $-1 #
vertex $-1 $148 $277 #
straight-curve $-1 69.416180913724176 -3.2512622082339027 96.276422937725997 0 0 1 I I #
straight-curve $-1 -47.018434185946006 -3.2512622082339027 76.118230775781811 0.83867056331134215 0 -0.54463904215088732 I I #
edge $-1 $271 -15.037331674385094 $151 -3.2512622082339027 $217 $278 forward 7 unknown #
point $-1 69.416180913724176 -3.2512622082339027 11.939301838161379 #
point $-1 51.808448059342965 -3.2512622082339027 11.939301838161384 #
edge $-1 $279 1 $279 0 $154 $-1 forward 7 unknown #
vertex $-1 $155 $280 #
ellipse-curve $-1 56.646340976191759 -9.1442969413094985 0.11494048211543695 0.54463904215088732 0 0.83867056331134215 1.6773411266226843 0 -1.0892780843017746 1 I I #
point $-1 62.289655613156263 -9.1442969413094985 5.1327259400463801 #
loop $-1 $-1 $165 $158 #
plane-surface $-1 -69.416180913724176 0 0 1 0 0 0 0 -1 forward_v I I I I #
coedge $-1 $281 $282 $162 $233 forward $159 $-1 #
coedge $-1 $162 $161 $238 $283 reversed $62 $-1 #
edge $-1 $235 8.5400911240177919 $284 23.234901281383848 $231 $285 forward 7 unknown #
coedge $-1 $168 $163 $282 $286 forward $99 $-1 #
vertex $-1 $286 $287 #
straight-curve $-1 -59.394344615206549 11.781226179257434 11.939301838161379 0 1 0 I I #
coedge $-1 $288 $165 $168 $242 reversed $229 $-1 #
coedge $-1 $165 $288 $232 $283 forward $229 $-1 #
vertex $-1 $166 $289 #
straight-curve $-1 -69.416180913724176 16.896336784111551 47.937819886513374 0 0 1 I I #
straight-curve $-1 -69.416180913724176 16.896336784111551 1.1921979135339029 -0.68199835119979291 0 -0.73135370988377701 I I #
edge $-1 $290 -30.228567932918189 $169 -16.896336784111551 $237 $291 forward 7 unknown #
point $-1 -69.416180913724176 16.896336784111551 11.939301838161379 #
point $-1 -59.394344615206556 16.896336784111551 11.939301838161379 #
edge $-1 $292 1 $292 0 $172 $-1 forward 7 unknown #
vertex $-1 $173 $293 #
ellipse-curve $-1 -63.20036048480867 20.705545683770595 5.4421603500444178 -0.73135370988377701 0 0.68199835119979291 1.0229975267996894 0 1.0970305648256655 1 I I #
point $-1 -63.382265237665671 20.705545683770595 7.6627804406733002 #
edge $-1 $294 1 $294 0 $176 $-1 forward 7 unknown #
vertex $-1 $177 $295 #
ellipse-curve $-1 -63.20036048480867 26.419359033259155 5.4421603500444178 -0.73135370988377701 0 0.68199835119979291 1.0229975267996894 0 1.0970305648256655 1 I I #
point $-1 -63.382265237665671 26.419359033259155 7.6627804406733002 #
plane-surface $-1 69.416180913724176 0 0 -1 0 0 0 0 1 forward_v I I I I #
coedge $-1 $185 $183 $187 $258 reversed $121 $-1 #
edge $-1 $198 -11.939301838161379 $260 11.939301838161379 $197 $296 forward 7 unknown #
vertex $-1 $258 $297 #
straight-curve $-1 -69.416180913724176 -30.228567932918189 0 0 0 -1 I I #
edge $-1 $256 -30.228567932918189 $260 30.228567932918189 $254 $298 forward 7 unknown #
straight-curve $-1 0 -30.228567932918189 -11.939301838161379 -1 0 0 I I #
vertex $-1 $190 $299 #
straight-curve $-1 0 30.228567932918189 -11.939301838161379 1 0 0 I I #
point $-1 69.416180913724176 30.228567932918189 -11.939301838161379 #
point $-1 69.416180913724176 -30.228567932918189 -11.939301838161379 #
straight-curve $-1 -69.416180913724176 0 11.939301838161379 0 -1 0 I I #
point $-1 -69.416180913724176 30.228567932918189 11.939301838161379 #
point $-1 -69.416180913724176 -30.228567932918189 11.939301838161379 #
straight-curve $-1 69.416180913724176 -30.228567932918189 0 0 0 -1 I I #
straight-curve $-1 69.416180913724176 30.228567932918189 0 0 0 -1 I I #
coedge $-1 $218 $217 $210 $270 forward $207 $-1 #
edge $-1 $271 84.337121099564612 $274 95.771716727191063 $269 $300 forward 7 unknown #
vertex $-1 $222 $301 #
straight-curve $-1 14.297545189650435 -15.037331674385094 11.939301838161384 1 0 0 I I #
edge $-1 $274 -10.465183203730344 $219 1.3208862624208466 $218 $302 forward 7 unknown #
vertex $-1 $273 $303 #
straight-curve $-1 -47.018434185946006 -15.037331674385094 76.118230775781811 -0.83867056331134215 0 0.54463904215088732 I I #
point $-1 51.808448059342965 -15.037331674385094 11.939301838161384 #
point $-1 69.416180913724176 -3.2512622082339027 0.50470621053493403 #
straight-curve $-1 69.416180913724176 0 11.939301838161379 0 1 0 I I #
vertex $-1 $225 $304 #
point $-1 58.323682102814445 -9.1442969413094985 -0.97433760218633769 #
coedge $-1 $282 $231 $288 $305 reversed $159 $-1 #
coedge $-1 $231 $281 $234 $286 reversed $159 $-1 #
edge $-1 $284 -18.447341753660751 $239 -5.1151106048541166 $238 $306 forward 7 unknown #
vertex $-1 $233 $307 #
straight-curve $-1 -53.570016549530436 30.228567932918189 18.185129164457308 -0.68199835119979291 0 -0.73135370988377701 I I #
edge $-1 $235 59.394344615206556 $290 69.416180913724176 $282 $308 forward 7 unknown #
point $-1 -59.394344615206556 30.228567932918185 11.939301838161379 #
coedge $-1 $238 $237 $281 $305 forward $229 $-1 #
point $-1 -69.416180913724176 16.896336784111551 1.1921979135339029 #
vertex $-1 $286 $309 #
straight-curve $-1 -69.416180913724176 0 11.939301838161379 0 -1 0 I I #
vertex $-1 $245 $310 #
point $-1 -62.177362958008978 20.705545683770595 6.5391909148700833 #
vertex $-1 $249 $311 #
point $-1 -62.177362958008978 26.419359033259155 6.5391909148700833 #
straight-curve $-1 -69.416180913724176 30.228567932918189 0 0 0 -1 I I #
point $-1 -69.416180913724176 -30.228567932918189 -11.939301838161379 #
straight-curve $-1 -69.416180913724176 0 -11.939301838161379 0 1 0 I I #
point $-1 -69.416180913724176 30.228567932918189 -11.939301838161379 #
straight-curve $-1 69.416180913724176 -15.037331674385094 96.276422937725997 0 0 -1 I I #
point $-1 69.416180913724176 -15.037331674385094 11.939301838161379 #
straight-curve $-1 69.416180913724176 -4.5721484706547493 0.50470621053492692 0 1 0 I I #
point $-1 69.416180913724176 -15.037331674385094 0.50470621053493403 #
point $-1 55.557062891889991 -9.1442969413094985 -1.5624006445072467 #
edge $-1 $290 -11.939301838161379 $284 -1.1921979135339029 $281 $312 forward 7 unknown #
straight-curve $-1 -69.416180913724176 11.781226179257434 1.192197913533898 0 -1 0 I I #
point $-1 -69.416180913724176 30.228567932918185 1.1921979135339029 #
straight-curve $-1 0 30.228567932918189 11.939301838161379 -1 0 0 I I #
point $-1 -69.416180913724176 30.228567932918189 11.939301838161379 #
point $-1 -62.103329919982997 20.705545683770595 4.4191628232447293 #
point $-1 -62.103329919982997 26.419359033259155 4.4191628232447293 #
straight-curve $-1 -69.416180913724176 30.228567932918189 0 0 0 -1 I I #
End-of-ACIS-data 