500 0 6 0           
7 Unknown 11 ACIS 5.0 NT 24 Fri Mar 26 15:15:04 1999 
-1 9.9999999999999995e-007 1e-010 
body $-1 $6 $-1 $7 #
body $-1 $8 $-1 $9 #
body $-1 $10 $-1 $11 #
body $-1 $12 $-1 $13 #
body $-1 $14 $-1 $15 #
body $-1 $16 $-1 $17 #
lump $-1 $-1 $18 $0 #
transform $-1 1 0 0 0 1 0 0 0 1 49.287392803735464 25.346598671138207 7.3409758613534564 1 rotate no_reflect no_shear #
lump $-1 $-1 $19 $1 #
transform $-1 1 0 0 0 1 0 0 0 1 49.287392803735464 25.346598671138207 7.3409758613534564 1 rotate no_reflect no_shear #
lump $-1 $-1 $20 $2 #
transform $-1 1 0 0 0 1 0 0 0 1 49.287392803735464 25.346598671138207 7.3409758613534564 1 rotate no_reflect no_shear #
lump $-1 $-1 $21 $3 #
transform $-1 1 0 0 0 1 0 0 0 1 49.287392803735464 25.346598671138207 7.3409758613534564 1 rotate no_reflect no_shear #
lump $-1 $-1 $22 $4 #
transform $-1 1 0 0 0 1 0 0 0 1 49.287392803735464 25.346598671138207 7.3409758613534564 1 rotate no_reflect no_shear #
lump $-1 $-1 $23 $5 #
transform $-1 1 0 0 0 1 0 0 0 1 49.287392803735464 25.346598671138207 7.3409758613534564 1 rotate no_reflect no_shear #
shell $-1 $-1 $-1 $24 $-1 $6 #
shell $-1 $-1 $-1 $25 $-1 $8 #
shell $-1 $-1 $-1 $26 $-1 $10 #
shell $-1 $-1 $-1 $27 $-1 $12 #
shell $-1 $-1 $-1 $28 $-1 $14 #
shell $-1 $-1 $-1 $29 $-1 $16 #
face $-1 $30 $31 $18 $-1 $32 forward single #
face $-1 $33 $34 $19 $-1 $35 forward single #
face $-1 $36 $37 $20 $-1 $38 reversed single #
face $-1 $39 $40 $21 $-1 $41 forward single #
face $-1 $42 $43 $22 $-1 $44 reversed single #
face $-1 $45 $46 $23 $-1 $47 forward single #
face $-1 $48 $49 $18 $-1 $50 reversed single #
loop $-1 $-1 $51 $24 #
plane-surface $-1 0 0 7.3409758613534564 0 0 1 1 0 0 forward_v I I I I #
face $-1 $52 $53 $19 $-1 $54 reversed single #
loop $-1 $-1 $55 $25 #
plane-surface $-1 -46.614685688038257 0 -0.30093933308676313 0 0 1 1 0 0 forward_v I I I I #
face $-1 $56 $57 $20 $-1 $58 reversed single #
loop $-1 $-1 $59 $26 #
plane-surface $-1 -43.941978572341057 38.442354939201749 114.40992300929379 1 0 0 0 -0.55919291073839883 -0.82903756765294845 forward_v I I I I #
face $-1 $60 $61 $21 $-1 $62 forward single #
loop $-1 $63 $64 $27 #
cone-surface $-1 -35.669710587078768 22.323500359664767 4.6563462177753108 0 -0.55919291073839883 -0.82903756765294845 1 0 0 1 I I 0 1 1 forward I I I I #
face $-1 $65 $66 $22 $-1 $67 reversed single #
loop $-1 $-1 $68 $28 #
plane-surface $-1 32.742856833210894 38.442354939201749 114.40992300929379 1 0 0 0 -0.55919291073839883 -0.82903756765294845 forward_v I I I I #
face $-1 $69 $70 $23 $-1 $71 forward single #
loop $-1 $72 $73 $29 #
cone-surface $-1 41.015124818473176 22.323500359664767 4.6563462177753108 0 -0.55919291073839883 -0.82903756765294845 1 0 0 1 I I 0 1 1 forward I I I I #
face $-1 $74 $75 $18 $-1 $76 reversed single #
loop $-1 $-1 $77 $30 #
plane-surface $-1 0 0 -7.3409758613534564 0 0 1 1 0 0 forward_v I I I I #
coedge $-1 $78 $79 $80 $81 forward $31 $-1 #
face $-1 $82 $83 $19 $-1 $84 reversed single #
loop $-1 $-1 $85 $33 #
plane-surface $-1 -46.614685688038257 0 -3.3009393330867631 0 0 1 1 0 0 forward_v I I I I #
coedge $-1 $86 $87 $88 $89 forward $34 $-1 #
face $-1 $90 $91 $20 $-1 $92 reversed single #
loop $-1 $-1 $93 $36 #
plane-surface $-1 -35.669710587078768 -16.67996635005354 32.687722517365216 0 0.55919291073839883 0.82903756765294845 1 0 0 forward_v I I I I #
coedge $-1 $94 $95 $96 $97 reversed $37 $-1 #
face $-1 $-1 $98 $21 $-1 $99 forward single #
loop $-1 $100 $101 $39 #
cone-surface $-1 -35.669710587078768 21.245039823220853 3.057462750596617 0 -0.55919291073839883 -0.82903756765294845 0.5 0 0 1 I I -0.70710678118654779 0.70710678118654713 0.5 forward I I I I #
loop $-1 $-1 $102 $27 #
coedge $-1 $64 $64 $103 $104 reversed $40 $-1 #
face $-1 $105 $106 $22 $-1 $107 forward single #
loop $-1 $-1 $108 $42 #
plane-surface $-1 41.015124818473176 -16.67996635005354 32.687722517365216 0 0.55919291073839883 0.82903756765294845 1 0 0 forward_v I I I I #
coedge $-1 $109 $110 $111 $112 reversed $43 $-1 #
face $-1 $-1 $113 $23 $-1 $114 forward single #
loop $-1 $115 $116 $45 #
cone-surface $-1 41.015124818473176 21.245039823220853 3.057462750596617 0 -0.55919291073839883 -0.82903756765294845 0.5 0 0 1 I I -0.70710678118654779 0.70710678118654713 0.5 forward I I I I #
loop $-1 $-1 $117 $29 #
coedge $-1 $73 $73 $118 $119 reversed $46 $-1 #
face $-1 $120 $121 $18 $-1 $122 reversed single #
loop $-1 $-1 $123 $48 #
plane-surface $-1 0 -25.346598671138207 0 0 1 0 0 0 1 forward_v I I I I #
coedge $-1 $124 $125 $126 $127 forward $49 $-1 #
coedge $-1 $128 $51 $129 $130 forward $31 $-1 #
coedge $-1 $51 $128 $131 $132 forward $31 $-1 #
coedge $-1 $133 $134 $51 $81 reversed $135 $-1 #
edge $-1 $136 -25.346598671138207 $137 25.346598671138207 $80 $138 forward 7 unknown #
face $-1 $139 $140 $19 $-1 $141 reversed single #
loop $-1 $-1 $142 $52 #
plane-surface $-1 -43.94197857234105 0 -1.8009393330867631 -1 0 0 0 0 1 forward_v I I I I #
coedge $-1 $143 $144 $145 $146 forward $53 $-1 #
coedge $-1 $147 $55 $148 $149 reversed $34 $-1 #
coedge $-1 $55 $147 $150 $151 reversed $34 $-1 #
coedge $-1 $142 $152 $55 $89 reversed $83 $-1 #
edge $-1 $153 -25.346598671138207 $154 25.346598671138207 $88 $155 forward 7 unknown #
face $-1 $156 $157 $20 $-1 $158 forward single #
loop $-1 $-1 $159 $56 #
plane-surface $-1 -27.397442601816483 38.442354939201749 114.40992300929379 -1 0 0 0 0.55919291073839883 0.82903756765294845 forward_v I I I I #
coedge $-1 $160 $161 $162 $163 reversed $57 $-1 #
coedge $-1 $95 $59 $164 $165 reversed $37 $-1 #
coedge $-1 $59 $94 $160 $166 reversed $37 $-1 #
coedge $-1 $162 $167 $59 $97 forward $157 $-1 #
edge $-1 $168 -6.1254212015373319 $169 -1.6769527407398712 $96 $170 forward 7 unknown #
loop $-1 $-1 $103 $60 #
plane-surface $-1 -35.669710587078768 -16.67996635005354 32.687722517365216 0 0.55919291073839883 0.82903756765294845 1 0 0 forward_v I I I I #
loop $-1 $-1 $171 $39 #
coedge $-1 $101 $101 $102 $172 reversed $61 $-1 #
coedge $-1 $102 $102 $101 $172 forward $63 $-1 #
coedge $-1 $103 $103 $64 $104 forward $98 $-1 #
edge $-1 $173 4.6201772800440444e-016 $173 6.2831853071796013 $103 $174 forward 7 unknown #
face $-1 $175 $176 $22 $-1 $177 reversed single #
loop $-1 $-1 $111 $65 #
plane-surface $-1 0 0 7.3409758613534564 0 0 1 1 0 0 forward_v I I I I #
coedge $-1 $178 $179 $180 $181 reversed $66 $-1 #
coedge $-1 $110 $68 $182 $183 reversed $43 $-1 #
coedge $-1 $68 $109 $178 $184 reversed $43 $-1 #
coedge $-1 $180 $185 $68 $112 forward $106 $-1 #
edge $-1 $186 -6.1254212015373319 $187 -1.6769527407398712 $111 $188 forward 7 unknown #
loop $-1 $-1 $118 $69 #
plane-surface $-1 41.015124818473176 -16.67996635005354 32.687722517365216 0 0.55919291073839883 0.82903756765294845 1 0 0 forward_v I I I I #
loop $-1 $-1 $189 $45 #
coedge $-1 $116 $116 $117 $190 reversed $70 $-1 #
coedge $-1 $117 $117 $116 $190 forward $72 $-1 #
coedge $-1 $118 $118 $73 $119 forward $113 $-1 #
edge $-1 $191 4.6201772800440444e-016 $191 6.2831853071796013 $118 $192 forward 7 unknown #
face $-1 $193 $194 $18 $-1 $195 reversed single #
loop $-1 $-1 $196 $74 #
plane-surface $-1 -49.287392803735464 0 0 1 0 0 0 0 -1 forward_v I I I I #
coedge $-1 $197 $131 $198 $199 forward $75 $-1 #
coedge $-1 $200 $77 $197 $201 forward $49 $-1 #
coedge $-1 $77 $200 $202 $203 forward $49 $-1 #
coedge $-1 $134 $133 $77 $127 reversed $135 $-1 #
edge $-1 $204 -25.346598671138207 $205 25.346598671138207 $126 $206 forward 7 unknown #
coedge $-1 $79 $78 $207 $208 forward $31 $-1 #
coedge $-1 $209 $210 $78 $130 reversed $194 $-1 #
edge $-1 $137 -49.287392803735464 $211 49.287392803735464 $129 $212 forward 7 unknown #
coedge $-1 $123 $213 $79 $132 reversed $75 $-1 #
edge $-1 $214 -49.287392803735464 $136 49.287392803735464 $131 $215 forward 7 unknown #
coedge $-1 $126 $80 $213 $216 forward $135 $-1 #
coedge $-1 $80 $126 $209 $217 reversed $135 $-1 #
loop $-1 $-1 $133 $193 #
vertex $-1 $81 $218 #
vertex $-1 $81 $219 #
straight-curve $-1 49.287392803735464 0 7.3409758613534564 0 1 0 I I #
face $-1 $220 $221 $19 $-1 $222 reversed single #
loop $-1 $-1 $223 $82 #
plane-surface $-1 0 -25.346598671138207 0 0 1 0 0 0 1 forward_v I I I I #
coedge $-1 $145 $88 $224 $225 reversed $83 $-1 #
coedge $-1 $226 $85 $223 $227 reversed $53 $-1 #
coedge $-1 $85 $226 $228 $229 reversed $53 $-1 #
coedge $-1 $152 $142 $85 $146 reversed $83 $-1 #
edge $-1 $230 -25.346598671138207 $231 25.346598671138207 $145 $232 forward 7 unknown #
coedge $-1 $87 $86 $233 $234 reversed $34 $-1 #
coedge $-1 $235 $236 $86 $149 forward $237 $-1 #
edge $-1 $238 -25.980049959716336 $154 -20.634635728321921 $148 $239 forward 7 unknown #
coedge $-1 $240 $224 $87 $151 forward $140 $-1 #
edge $-1 $153 20.634635728321921 $241 25.980049959716336 $150 $242 forward 7 unknown #
coedge $-1 $88 $145 $235 $243 reversed $83 $-1 #
vertex $-1 $151 $244 #
vertex $-1 $149 $245 #
straight-curve $-1 -43.94197857234105 0 -0.30093933308676313 0 1 0 I I #
face $-1 $-1 $246 $20 $-1 $247 reversed single #
loop $-1 $-1 $96 $90 #
plane-surface $-1 0 0 7.3409758613534564 0 0 1 1 0 0 forward_v I I I I #
coedge $-1 $248 $249 $250 $251 reversed $91 $-1 #
coedge $-1 $252 $93 $95 $166 forward $57 $-1 #
coedge $-1 $93 $252 $248 $253 forward $57 $-1 #
coedge $-1 $250 $96 $93 $163 forward $157 $-1 #
edge $-1 $169 -26.107123278801673 $254 -9.5625873082770987 $162 $255 forward 7 unknown #
coedge $-1 $256 $257 $94 $165 forward $246 $-1 #
edge $-1 $258 -52.864515563745286 $168 -49.863985643293439 $164 $259 forward 7 unknown #
edge $-1 $169 45.327374809780899 $258 50.693197342276406 $95 $260 forward 7 unknown #
coedge $-1 $96 $250 $256 $261 forward $157 $-1 #
vertex $-1 $165 $262 #
vertex $-1 $97 $263 #
straight-curve $-1 -43.941978572341057 19.221177469600875 7.3409758613534564 0 -1 0 I I #
coedge $-1 $171 $171 $-1 $264 reversed $100 $-1 #
edge $-1 $265 0 $265 6.2831853071796004 $101 $266 forward 7 unknown #
vertex $-1 $104 $267 #
ellipse-curve $-1 -35.669710587078768 23.122364440739478 5.840710901127526 0 0.55919291073839883 0.82903756765294845 1 0 0 1 I I #
face $-1 $-1 $268 $22 $-1 $269 reversed single #
loop $-1 $-1 $270 $105 #
plane-surface $-1 49.287392803735464 0 0 -1 0 0 0 0 1 forward_v I I I I #
coedge $-1 $271 $108 $110 $184 forward $66 $-1 #
coedge $-1 $108 $271 $270 $272 reversed $66 $-1 #
coedge $-1 $273 $111 $108 $181 forward $106 $-1 #
edge $-1 $187 12.235294423974306 $274 28.77983039449887 $180 $275 forward 7 unknown #
coedge $-1 $276 $277 $109 $183 forward $268 $-1 #
edge $-1 $278 -52.864515563745286 $186 -49.863985643293439 $182 $279 forward 7 unknown #
edge $-1 $187 45.327374809780899 $278 50.693197342276406 $110 $280 forward 7 unknown #
coedge $-1 $111 $273 $276 $281 forward $106 $-1 #
vertex $-1 $183 $282 #
vertex $-1 $112 $283 #
straight-curve $-1 32.742856833210894 19.221177469600875 7.3409758613534564 0 -1 0 I I #
coedge $-1 $189 $189 $-1 $284 reversed $115 $-1 #
edge $-1 $285 0 $285 6.2831853071796004 $116 $286 forward 7 unknown #
vertex $-1 $119 $287 #
ellipse-curve $-1 41.015124818473176 23.122364440739478 5.840710901127526 0 0.55919291073839883 0.82903756765294845 1 0 0 1 I I #
face $-1 $-1 $135 $18 $-1 $288 reversed single #
loop $-1 $-1 $209 $120 #
plane-surface $-1 0 25.346598671138207 0 0 -1 0 0 0 -1 forward_v I I I I #
coedge $-1 $289 $207 $210 $290 forward $121 $-1 #
coedge $-1 $213 $123 $124 $201 reversed $75 $-1 #
coedge $-1 $207 $289 $123 $199 reversed $121 $-1 #
edge $-1 $214 -7.3409758613534564 $291 7.3409758613534564 $198 $292 forward 7 unknown #
coedge $-1 $125 $124 $289 $293 forward $49 $-1 #
edge $-1 $205 -49.287392803735464 $291 49.287392803735464 $197 $294 forward 7 unknown #
coedge $-1 $210 $209 $125 $203 reversed $194 $-1 #
edge $-1 $295 -49.287392803735464 $204 49.287392803735464 $202 $296 forward 7 unknown #
vertex $-1 $127 $297 #
vertex $-1 $216 $298 #
straight-curve $-1 49.287392803735464 0 -7.3409758613534564 0 -1 0 I I #
coedge $-1 $196 $198 $128 $208 reversed $121 $-1 #
edge $-1 $211 -25.346598671138207 $214 25.346598671138207 $207 $299 forward 7 unknown #
coedge $-1 $202 $129 $134 $217 forward $194 $-1 #
coedge $-1 $129 $202 $196 $290 reversed $194 $-1 #
vertex $-1 $130 $300 #
straight-curve $-1 0 25.346598671138207 7.3409758613534564 -1 0 0 I I #
coedge $-1 $131 $197 $133 $216 reversed $75 $-1 #
vertex $-1 $208 $301 #
straight-curve $-1 0 -25.346598671138207 7.3409758613534564 1 0 0 I I #
edge $-1 $136 -7.3409758613534564 $205 7.3409758613534564 $133 $302 forward 7 unknown #
edge $-1 $137 -7.3409758613534564 $204 7.3409758613534564 $134 $303 forward 7 unknown #
point $-1 49.287392803735464 -25.346598671138207 7.3409758613534564 #
point $-1 49.287392803735464 25.346598671138207 7.3409758613534564 #
face $-1 $-1 $237 $19 $-1 $304 reversed single #
loop $-1 $-1 $305 $139 #
plane-surface $-1 -49.287392803735464 0 0 1 0 0 0 0 -1 forward_v I I I I #
coedge $-1 $224 $240 $143 $227 forward $140 $-1 #
coedge $-1 $150 $223 $142 $225 forward $140 $-1 #
edge $-1 $231 -2.4004696665433816 $153 0.59953033345661844 $224 $306 forward 7 unknown #
coedge $-1 $144 $143 $305 $307 reversed $53 $-1 #
edge $-1 $308 -25.980049959716336 $231 -20.634635728321921 $223 $309 forward 7 unknown #
coedge $-1 $236 $235 $144 $229 forward $237 $-1 #
edge $-1 $230 20.634635728321921 $310 25.980049959716336 $228 $311 forward 7 unknown #
vertex $-1 $229 $312 #
vertex $-1 $227 $313 #
straight-curve $-1 -43.94197857234105 0 -3.3009393330867631 0 -1 0 I I #
coedge $-1 $314 $315 $147 $234 forward $221 $-1 #
edge $-1 $241 -25.346598671138207 $238 25.346598671138207 $233 $316 forward 7 unknown #
coedge $-1 $228 $148 $152 $243 forward $237 $-1 #
coedge $-1 $148 $228 $314 $317 reversed $237 $-1 #
loop $-1 $-1 $228 $220 #
vertex $-1 $317 $318 #
straight-curve $-1 -23.307342844019129 25.346598671138207 -0.30093933308676313 1 0 0 I I #
coedge $-1 $223 $150 $315 $319 forward $140 $-1 #
vertex $-1 $319 $320 #
straight-curve $-1 -23.307342844019129 -25.346598671138207 -0.30093933308676313 -1 0 0 I I #
edge $-1 $154 -0.59953033345661844 $230 2.4004696665433816 $235 $321 forward 7 unknown #
point $-1 -43.94197857234105 -25.346598671138207 -0.30093933308676313 #
point $-1 -43.94197857234105 25.346598671138207 -0.30093933308676313 #
loop $-1 $-1 $164 $156 #
plane-surface $-1 0 25.346598671138207 0 0 -1 0 0 0 -1 forward_v I I I I #
coedge $-1 $249 $159 $161 $253 reversed $91 $-1 #
coedge $-1 $159 $248 $322 $323 reversed $91 $-1 #
coedge $-1 $167 $162 $159 $251 forward $157 $-1 #
edge $-1 $254 1.6769527407398712 $324 6.1254212015373319 $250 $325 forward 7 unknown #
coedge $-1 $161 $160 $257 $326 reversed $57 $-1 #
edge $-1 $327 -50.693197342276406 $254 -45.327374809780899 $248 $328 forward 7 unknown #
vertex $-1 $163 $329 #
straight-curve $-1 -17.834855293539384 20.898130210340742 7.3409758613534564 1 0 0 I I #
coedge $-1 $322 $164 $167 $261 reversed $246 $-1 #
coedge $-1 $164 $322 $252 $326 forward $246 $-1 #
vertex $-1 $165 $330 #
straight-curve $-1 -43.941978572341057 25.346598671138207 57.204961504646896 0 0 1 I I #
straight-curve $-1 -43.941978572341057 -16.67996635005354 32.687722517365216 0 0.82903756765294845 -0.55919291073839883 I I #
edge $-1 $324 27.397442601816483 $168 43.941978572341057 $256 $331 forward 7 unknown #
point $-1 -43.941978572341057 25.346598671138207 7.3409758613534564 #
point $-1 -43.941978572341057 20.898130210340746 7.3409758613534528 #
edge $-1 $332 1 $332 0 $171 $-1 forward 7 unknown #
vertex $-1 $172 $333 #
ellipse-curve $-1 -35.669710587078768 21.524636278590052 3.4719815344230907 0 0.55919291073839883 0.82903756765294845 1 0 0 1 I I #
point $-1 -34.669710587078768 23.122364440739481 5.8407109011275304 #
loop $-1 $-1 $182 $175 #
plane-surface $-1 0 25.346598671138207 0 0 -1 0 0 0 -1 forward_v I I I I #
coedge $-1 $334 $335 $179 $272 forward $176 $-1 #
coedge $-1 $179 $178 $277 $336 reversed $66 $-1 #
edge $-1 $274 29.273844094142916 $337 34.639666626638416 $270 $338 forward 7 unknown #
coedge $-1 $185 $180 $335 $339 forward $106 $-1 #
vertex $-1 $339 $340 #
straight-curve $-1 20.507562409236588 20.898130210340742 7.3409758613534564 1 0 0 I I #
coedge $-1 $341 $182 $185 $281 reversed $268 $-1 #
coedge $-1 $182 $341 $271 $336 forward $268 $-1 #
vertex $-1 $183 $342 #
straight-curve $-1 32.742856833210894 25.346598671138207 57.204961504646896 0 0 1 I I #
straight-curve $-1 32.742856833210894 -16.67996635005354 32.687722517365216 0 0.82903756765294845 -0.55919291073839883 I I #
edge $-1 $343 -49.287392803735464 $186 -32.742856833210894 $276 $344 forward 7 unknown #
point $-1 32.742856833210894 25.346598671138207 7.3409758613534564 #
point $-1 32.742856833210894 20.898130210340746 7.3409758613534528 #
edge $-1 $345 1 $345 0 $189 $-1 forward 7 unknown #
vertex $-1 $190 $346 #
ellipse-curve $-1 41.015124818473176 21.524636278590052 3.4719815344230907 0 0.55919291073839883 0.82903756765294845 1 0 0 1 I I #
point $-1 42.015124818473176 23.122364440739481 5.8407109011275304 #
plane-surface $-1 49.287392803735464 0 0 -1 0 0 0 0 1 forward_v I I I I #
coedge $-1 $198 $196 $200 $293 reversed $121 $-1 #
edge $-1 $211 -7.3409758613534564 $295 7.3409758613534564 $210 $347 forward 7 unknown #
vertex $-1 $293 $348 #
straight-curve $-1 -49.287392803735464 -25.346598671138207 0 0 0 -1 I I #
edge $-1 $291 -25.346598671138207 $295 25.346598671138207 $289 $349 forward 7 unknown #
straight-curve $-1 0 -25.346598671138207 -7.3409758613534564 -1 0 0 I I #
vertex $-1 $203 $350 #
straight-curve $-1 0 25.346598671138207 -7.3409758613534564 1 0 0 I I #
point $-1 49.287392803735464 25.346598671138207 -7.3409758613534564 #
point $-1 49.287392803735464 -25.346598671138207 -7.3409758613534564 #
straight-curve $-1 -49.287392803735464 0 7.3409758613534564 0 -1 0 I I #
point $-1 -49.287392803735464 25.346598671138207 7.3409758613534564 #
point $-1 -49.287392803735464 -25.346598671138207 7.3409758613534564 #
straight-curve $-1 49.287392803735464 -25.346598671138207 0 0 0 -1 I I #
straight-curve $-1 49.287392803735464 25.346598671138207 0 0 0 -1 I I #
plane-surface $-1 0 25.346598671138207 0 0 -1 0 0 0 -1 forward_v I I I I #
coedge $-1 $315 $314 $226 $307 forward $221 $-1 #
straight-curve $-1 -43.94197857234105 -25.346598671138207 -0.90046966654338156 0 0 1 I I #
edge $-1 $310 -25.346598671138207 $308 25.346598671138207 $305 $351 forward 7 unknown #
vertex $-1 $227 $352 #
straight-curve $-1 -23.307342844019129 -25.346598671138207 -3.3009393330867631 1 0 0 I I #
vertex $-1 $229 $353 #
straight-curve $-1 -23.307342844019129 25.346598671138207 -3.3009393330867631 -1 0 0 I I #
point $-1 -43.94197857234105 25.346598671138207 -3.3009393330867631 #
point $-1 -43.94197857234105 -25.346598671138207 -3.3009393330867631 #
coedge $-1 $305 $233 $236 $317 forward $221 $-1 #
coedge $-1 $233 $305 $240 $319 reversed $221 $-1 #
straight-curve $-1 -49.287392803735464 0 -0.30093933308676313 0 1 0 I I #
edge $-1 $238 0.30093933308676313 $310 3.3009393330867631 $236 $354 forward 7 unknown #
point $-1 -49.287392803735464 25.346598671138207 -0.30093933308676313 #
edge $-1 $241 0.30093933308676313 $308 3.3009393330867631 $315 $355 forward 7 unknown #
point $-1 -49.287392803735464 -25.346598671138207 -0.30093933308676313 #
straight-curve $-1 -43.94197857234105 25.346598671138207 -0.90046966654338156 0 0 -1 I I #
coedge $-1 $257 $256 $249 $323 forward $246 $-1 #
edge $-1 $324 49.863985643293439 $327 52.864515563745286 $322 $356 forward 7 unknown #
vertex $-1 $261 $357 #
straight-curve $-1 -27.397442601816483 19.221177469600875 7.3409758613534564 0 1 0 I I #
edge $-1 $327 9.5625873082770987 $258 26.107123278801673 $257 $358 forward 7 unknown #
vertex $-1 $326 $359 #
straight-curve $-1 -27.397442601816483 -16.67996635005354 32.687722517365216 0 -0.82903756765294845 0.55919291073839883 I I #
point $-1 -27.397442601816483 20.898130210340746 7.3409758613534528 #
point $-1 -43.941978572341057 25.346598671138203 4.3404459409016098 #
straight-curve $-1 0 25.346598671138207 7.3409758613534564 -1 0 0 I I #
vertex $-1 $264 $360 #
point $-1 -34.669710587078768 21.524636278590052 3.4719815344230907 #
coedge $-1 $335 $270 $341 $361 reversed $176 $-1 #
coedge $-1 $270 $334 $273 $339 reversed $176 $-1 #
edge $-1 $337 -28.77983039449887 $278 -12.235294423974306 $277 $362 forward 7 unknown #
vertex $-1 $272 $363 #
straight-curve $-1 49.287392803735464 -3.3709862933191275 23.710701948859317 0 0.82903756765294845 -0.55919291073839883 I I #
edge $-1 $274 20.898130210340746 $343 25.346598671138207 $335 $364 forward 7 unknown #
point $-1 49.287392803735457 20.898130210340746 7.3409758613534528 #
coedge $-1 $277 $276 $334 $361 forward $268 $-1 #
point $-1 32.742856833210894 25.346598671138203 4.3404459409016098 #
vertex $-1 $339 $365 #
straight-curve $-1 0 25.346598671138207 7.3409758613534564 -1 0 0 I I #
vertex $-1 $284 $366 #
point $-1 42.015124818473176 21.524636278590052 3.4719815344230907 #
straight-curve $-1 -49.287392803735464 25.346598671138207 0 0 0 -1 I I #
point $-1 -49.287392803735464 -25.346598671138207 -7.3409758613534564 #
straight-curve $-1 -49.287392803735464 0 -7.3409758613534564 0 1 0 I I #
point $-1 -49.287392803735464 25.346598671138207 -7.3409758613534564 #
straight-curve $-1 -49.287392803735464 0 -3.3009393330867631 0 -1 0 I I #
point $-1 -49.287392803735464 -25.346598671138207 -3.3009393330867631 #
point $-1 -49.287392803735464 25.346598671138207 -3.3009393330867631 #
straight-curve $-1 -49.287392803735464 25.346598671138207 0 0 0 -1 I I #
straight-curve $-1 -49.287392803735464 -25.346598671138207 0 0 0 -1 I I #
straight-curve $-1 -27.397442601816483 25.346598671138207 57.204961504646896 0 0 -1 I I #
point $-1 -27.397442601816483 25.346598671138207 7.3409758613534564 #
straight-curve $-1 -17.834855293539384 25.346598671138203 4.3404459409016081 -1 0 0 I I #
point $-1 -27.397442601816483 25.346598671138203 4.3404459409016098 #
point $-1 -35.669710587078768 20.965443367851655 2.6429439667701433 #
edge $-1 $343 -7.3409758613534564 $337 -4.3404459409016098 $334 $367 forward 7 unknown #
straight-curve $-1 20.507562409236588 25.346598671138203 4.3404459409016081 -1 0 0 I I #
point $-1 49.287392803735457 25.346598671138203 4.3404459409016098 #
straight-curve $-1 49.287392803735464 0 7.3409758613534564 0 1 0 I I #
point $-1 49.287392803735464 25.346598671138207 7.3409758613534564 #
point $-1 41.015124818473176 20.965443367851655 2.6429439667701433 #
straight-curve $-1 49.287392803735464 25.346598671138207 0 0 0 -1 I I #
End-of-ACIS-data 