500 0 7 0           
7 Unknown 11 ACIS 5.0 NT 24 Fri Mar 26 17:43:09 1999 
-1 9.9999999999999995e-007 1e-010 
body $-1 $7 $-1 $8 #
body $-1 $9 $-1 $10 #
body $-1 $11 $-1 $12 #
body $-1 $13 $-1 $14 #
body $-1 $15 $-1 $16 #
body $-1 $17 $-1 $18 #
body $-1 $19 $-1 $20 #
lump $-1 $-1 $21 $0 #
transform $-1 1 0 0 0 1 0 0 0 1 44.765770439771721 29.727766809237973 14.273265520991743 1 rotate no_reflect no_shear #
lump $-1 $-1 $22 $1 #
transform $-1 1 0 0 0 1 0 0 0 1 44.765770439771721 29.727766809237973 14.273265520991743 1 rotate no_reflect no_shear #
lump $-1 $-1 $23 $2 #
transform $-1 1 0 0 0 1 0 0 0 1 44.765770439771721 29.727766809237973 14.273265520991743 1 rotate no_reflect no_shear #
lump $-1 $-1 $24 $3 #
transform $-1 1 0 0 0 1 0 0 0 1 44.765770439771721 29.727766809237973 14.273265520991743 1 rotate no_reflect no_shear #
lump $-1 $-1 $25 $4 #
transform $-1 1 0 0 0 1 0 0 0 1 44.765770439771721 29.727766809237973 14.273265520991743 1 rotate no_reflect no_shear #
lump $-1 $-1 $26 $5 #
transform $-1 1 0 0 0 1 0 0 0 1 44.765770439771721 29.727766809237973 14.273265520991743 1 rotate no_reflect no_shear #
lump $-1 $-1 $27 $6 #
transform $-1 1 0 0 0 1 0 0 0 1 44.765770439771721 29.727766809237973 14.273265520991743 1 rotate no_reflect no_shear #
shell $-1 $-1 $-1 $28 $-1 $7 #
shell $-1 $-1 $-1 $29 $-1 $9 #
shell $-1 $-1 $-1 $30 $-1 $11 #
shell $-1 $-1 $-1 $31 $-1 $13 #
shell $-1 $-1 $-1 $32 $-1 $15 #
shell $-1 $-1 $-1 $33 $-1 $17 #
shell $-1 $-1 $-1 $34 $-1 $19 #
face $-1 $35 $36 $21 $-1 $37 forward single #
face $-1 $38 $39 $22 $-1 $40 reversed single #
face $-1 $41 $42 $23 $-1 $43 reversed single #
face $-1 $44 $45 $24 $-1 $46 reversed single #
face $-1 $47 $48 $25 $-1 $49 forward single #
face $-1 $50 $51 $26 $-1 $52 reversed single #
face $-1 $53 $54 $27 $-1 $55 forward single #
face $-1 $56 $57 $21 $-1 $58 reversed single #
loop $-1 $-1 $59 $28 #
plane-surface $-1 0 0 14.273265520991743 0 0 1 1 0 0 forward_v I I I I #
face $-1 $60 $61 $22 $-1 $62 reversed single #
loop $-1 $-1 $63 $29 #
plane-surface $-1 -38.123050078222562 -11.641717115894279 0 0 1 0 0 0 1 forward_v I I I I #
face $-1 $64 $65 $23 $-1 $66 reversed single #
loop $-1 $-1 $67 $30 #
plane-surface $-1 38.123050078222555 -11.641717115894279 0 0 1 0 0 0 1 forward_v I I I I #
face $-1 $68 $69 $24 $-1 $70 reversed single #
loop $-1 $-1 $71 $31 #
plane-surface $-1 0 -87.277532670096946 73.601977607596169 -1 0 0 0 -0.64278761758704617 0.76604443648966558 forward_v I I I I #
face $-1 $72 $73 $25 $-1 $74 forward single #
loop $-1 $75 $76 $32 #
cone-surface $-1 -7.4224770452455573 -21.069240479475063 5.8995654891961866 0 0.64278761758704617 -0.76604443648966558 3 0 0 1 I I 0 1 3 forward I I I I #
face $-1 $77 $78 $26 $-1 $79 reversed single #
loop $-1 $-1 $80 $33 #
plane-surface $-1 14.844954090491115 -87.277532670096946 73.601977607596169 -1 0 0 0 -0.64278761758704617 0.76604443648966558 forward_v I I I I #
face $-1 $81 $82 $27 $-1 $83 forward single #
loop $-1 $84 $85 $34 #
cone-surface $-1 7.4224770452455573 -21.069240479475063 5.8995654891961866 0 0.64278761758704617 -0.76604443648966558 3 0 0 1 I I 0 1 3 forward I I I I #
face $-1 $86 $87 $21 $-1 $88 reversed single #
loop $-1 $-1 $89 $35 #
plane-surface $-1 0 0 -14.273265520991743 0 0 1 1 0 0 forward_v I I I I #
coedge $-1 $90 $91 $92 $93 forward $36 $-1 #
face $-1 $94 $95 $22 $-1 $96 reversed single #
loop $-1 $-1 $97 $38 #
plane-surface $-1 -38.123050078222562 -6.0616095083315376 0 0 -1 0 0 0 -1 forward_v I I I I #
coedge $-1 $98 $99 $100 $101 reversed $39 $-1 #
face $-1 $102 $103 $23 $-1 $104 reversed single #
loop $-1 $-1 $105 $41 #
plane-surface $-1 31.480329716673396 -8.8516633121129082 0 1 0 0 0 0 -1 forward_v I I I I #
coedge $-1 $106 $107 $108 $109 forward $42 $-1 #
face $-1 $110 $111 $24 $-1 $112 reversed single #
loop $-1 $-1 $113 $44 #
plane-surface $-1 -7.4224770452455573 -29.727766809237984 5.0168388264748529 0 -0.64278761758704617 0.76604443648966558 1 0 0 forward_v I I I I #
coedge $-1 $114 $115 $116 $117 reversed $45 $-1 #
face $-1 $-1 $118 $25 $-1 $119 forward single #
loop $-1 $120 $121 $47 #
cone-surface $-1 -7.4224770452455573 -16.962222491693403 1.0050121499245748 0 0.64278761758704617 -0.76604443648966558 1.5 0 0 1 I I -0.70710678118654757 0.70710678118654757 1.5 forward I I I I #
loop $-1 $-1 $122 $32 #
coedge $-1 $76 $76 $123 $124 reversed $48 $-1 #
face $-1 $125 $126 $26 $-1 $127 forward single #
loop $-1 $-1 $128 $50 #
plane-surface $-1 -7.4224770452455573 -29.727766809237984 5.0168388264748529 0 -0.64278761758704617 0.76604443648966558 1 0 0 forward_v I I I I #
coedge $-1 $129 $130 $131 $132 reversed $51 $-1 #
face $-1 $-1 $133 $27 $-1 $134 forward single #
loop $-1 $135 $136 $53 #
cone-surface $-1 7.4224770452455573 -16.962222491693403 1.0050121499245748 0 0.64278761758704617 -0.76604443648966558 1.5 0 0 1 I I -0.70710678118654757 0.70710678118654757 1.5 forward I I I I #
loop $-1 $-1 $137 $34 #
coedge $-1 $85 $85 $138 $139 reversed $54 $-1 #
face $-1 $140 $141 $21 $-1 $142 reversed single #
loop $-1 $-1 $143 $56 #
plane-surface $-1 0 -29.727766809237973 0 0 1 0 0 0 1 forward_v I I I I #
coedge $-1 $144 $145 $146 $147 forward $57 $-1 #
coedge $-1 $148 $59 $149 $150 forward $36 $-1 #
coedge $-1 $59 $148 $151 $152 forward $36 $-1 #
coedge $-1 $153 $154 $59 $93 reversed $155 $-1 #
edge $-1 $156 -29.727766809237973 $157 29.727766809237973 $92 $158 forward 7 unknown #
face $-1 $159 $160 $22 $-1 $161 reversed single #
loop $-1 $-1 $162 $60 #
plane-surface $-1 -31.480329716673403 -8.8516633121129082 0 -1 0 0 0 0 1 forward_v I I I I #
coedge $-1 $163 $164 $165 $166 forward $61 $-1 #
coedge $-1 $167 $63 $168 $169 reversed $39 $-1 #
coedge $-1 $63 $167 $170 $171 reversed $39 $-1 #
coedge $-1 $172 $173 $63 $101 forward $174 $-1 #
edge $-1 $175 -14.273265520991743 $176 14.273265520991743 $100 $177 forward 7 unknown #
face $-1 $178 $179 $23 $-1 $180 reversed single #
loop $-1 $-1 $181 $64 #
plane-surface $-1 38.123050078222555 -6.0616095083315376 0 0 -1 0 0 0 -1 forward_v I I I I #
coedge $-1 $182 $183 $184 $185 forward $65 $-1 #
coedge $-1 $186 $67 $187 $188 reversed $42 $-1 #
coedge $-1 $67 $186 $189 $190 reversed $42 $-1 #
coedge $-1 $183 $182 $67 $109 reversed $65 $-1 #
edge $-1 $191 -14.273265520991743 $192 14.273265520991743 $108 $193 forward 7 unknown #
face $-1 $194 $195 $24 $-1 $196 forward single #
loop $-1 $-1 $197 $68 #
plane-surface $-1 -14.844954090491115 -87.277532670096946 73.601977607596169 1 0 0 0 0.64278761758704617 -0.76604443648966558 forward_v I I I I #
coedge $-1 $198 $199 $200 $201 reversed $69 $-1 #
coedge $-1 $115 $71 $202 $203 reversed $45 $-1 #
coedge $-1 $71 $114 $198 $204 reversed $45 $-1 #
coedge $-1 $200 $205 $71 $117 forward $195 $-1 #
edge $-1 $206 13.910999525810499 $207 24.94237906253414 $116 $208 forward 7 unknown #
loop $-1 $-1 $123 $72 #
plane-surface $-1 -7.4224770452455573 -29.727766809237984 5.0168388264748529 0 -0.64278761758704617 0.76604443648966558 1 0 0 forward_v I I I I #
loop $-1 $-1 $209 $47 #
coedge $-1 $121 $121 $122 $210 reversed $73 $-1 #
coedge $-1 $122 $122 $121 $210 forward $75 $-1 #
coedge $-1 $123 $123 $76 $124 forward $118 $-1 #
edge $-1 $211 9.0717884936195203e-016 $211 6.2831853071796013 $123 $212 forward 7 unknown #
face $-1 $213 $214 $26 $-1 $215 forward single #
loop $-1 $-1 $216 $77 #
plane-surface $-1 0 0 14.273265520991743 0 0 1 1 0 0 forward_v I I I I #
coedge $-1 $217 $218 $219 $220 reversed $78 $-1 #
coedge $-1 $130 $80 $221 $222 reversed $51 $-1 #
coedge $-1 $80 $129 $216 $223 reversed $51 $-1 #
coedge $-1 $224 $225 $80 $132 forward $226 $-1 #
edge $-1 $227 -31.784149977323224 $228 -22.527723282806342 $131 $229 forward 7 unknown #
loop $-1 $-1 $138 $81 #
plane-surface $-1 -7.4224770452455573 -29.727766809237984 5.0168388264748529 0 -0.64278761758704617 0.76604443648966558 1 0 0 forward_v I I I I #
loop $-1 $-1 $230 $53 #
coedge $-1 $136 $136 $137 $231 reversed $82 $-1 #
coedge $-1 $137 $137 $136 $231 forward $84 $-1 #
coedge $-1 $138 $138 $85 $139 forward $133 $-1 #
edge $-1 $232 9.0717884936195203e-016 $232 6.2831853071796013 $138 $233 forward 7 unknown #
face $-1 $234 $235 $21 $-1 $236 reversed single #
loop $-1 $-1 $237 $86 #
plane-surface $-1 -44.765770439771721 0 0 1 0 0 0 0 -1 forward_v I I I I #
coedge $-1 $238 $151 $239 $240 forward $87 $-1 #
coedge $-1 $241 $89 $238 $242 forward $57 $-1 #
coedge $-1 $89 $241 $243 $244 forward $57 $-1 #
coedge $-1 $154 $153 $89 $147 reversed $155 $-1 #
edge $-1 $245 -29.727766809237973 $246 29.727766809237973 $146 $247 forward 7 unknown #
coedge $-1 $91 $90 $248 $249 forward $36 $-1 #
coedge $-1 $250 $251 $90 $150 reversed $235 $-1 #
edge $-1 $157 -44.765770439771721 $252 44.765770439771721 $149 $253 forward 7 unknown #
coedge $-1 $143 $254 $91 $152 reversed $87 $-1 #
edge $-1 $255 -44.765770439771721 $156 44.765770439771721 $151 $256 forward 7 unknown #
coedge $-1 $146 $92 $254 $257 forward $155 $-1 #
coedge $-1 $92 $146 $250 $258 reversed $155 $-1 #
loop $-1 $-1 $153 $234 #
vertex $-1 $93 $259 #
vertex $-1 $93 $260 #
straight-curve $-1 44.765770439771721 0 14.273265520991743 0 1 0 I I #
face $-1 $261 $262 $22 $-1 $263 forward single #
loop $-1 $-1 $264 $94 #
plane-surface $-1 0 0 -14.273265520991743 0 0 1 1 0 0 forward_v I I I I #
coedge $-1 $265 $266 $167 $267 forward $95 $-1 #
coedge $-1 $268 $97 $264 $269 reversed $61 $-1 #
coedge $-1 $97 $268 $270 $271 reversed $61 $-1 #
coedge $-1 $266 $265 $97 $166 reversed $95 $-1 #
edge $-1 $272 -14.273265520991743 $273 14.273265520991743 $165 $274 forward 7 unknown #
coedge $-1 $99 $98 $162 $267 reversed $39 $-1 #
coedge $-1 $275 $276 $98 $169 forward $160 $-1 #
edge $-1 $277 12.418804677562122 $175 25.70424540066044 $168 $278 forward 7 unknown #
coedge $-1 $279 $280 $99 $171 forward $262 $-1 #
edge $-1 $176 -25.70424540066044 $281 -12.418804677562122 $170 $282 forward 7 unknown #
coedge $-1 $283 $100 $280 $284 reversed $174 $-1 #
coedge $-1 $100 $283 $275 $285 reversed $174 $-1 #
loop $-1 $-1 $283 $261 #
vertex $-1 $285 $286 #
vertex $-1 $101 $287 #
straight-curve $-1 -44.765770439771721 -11.641717115894279 0 0 0 1 I I #
face $-1 $288 $289 $23 $-1 $290 forward single #
loop $-1 $-1 $187 $102 #
plane-surface $-1 0 0 -14.273265520991743 0 0 1 1 0 0 forward_v I I I I #
coedge $-1 $291 $292 $293 $294 reversed $103 $-1 #
coedge $-1 $108 $105 $295 $296 reversed $65 $-1 #
coedge $-1 $105 $108 $297 $298 reversed $65 $-1 #
coedge $-1 $292 $291 $105 $185 reversed $103 $-1 #
edge $-1 $299 -14.273265520991743 $300 14.273265520991743 $184 $301 forward 7 unknown #
coedge $-1 $107 $106 $302 $303 reversed $42 $-1 #
coedge $-1 $295 $304 $106 $188 forward $179 $-1 #
edge $-1 $305 -25.704245400660437 $192 -12.418804677562118 $187 $306 forward 7 unknown #
coedge $-1 $307 $297 $107 $190 forward $289 $-1 #
edge $-1 $191 12.418804677562118 $308 25.704245400660437 $189 $309 forward 7 unknown #
vertex $-1 $190 $310 #
vertex $-1 $188 $311 #
straight-curve $-1 31.480329716673396 -11.641717115894279 0 0 0 -1 I I #
face $-1 $-1 $312 $24 $-1 $313 reversed single #
loop $-1 $-1 $116 $110 #
plane-surface $-1 0 0 14.273265520991743 0 0 1 1 0 0 forward_v I I I I #
coedge $-1 $314 $315 $316 $317 reversed $111 $-1 #
coedge $-1 $318 $113 $115 $204 forward $69 $-1 #
coedge $-1 $113 $318 $314 $319 forward $69 $-1 #
coedge $-1 $316 $116 $113 $201 forward $195 $-1 #
edge $-1 $207 -3.7112385226227786 $320 11.133715567868336 $200 $321 forward 7 unknown #
coedge $-1 $322 $323 $114 $203 forward $312 $-1 #
edge $-1 $324 -31.784149977323224 $206 -22.527723282806342 $202 $325 forward 7 unknown #
edge $-1 $207 -14.400443383250746 $324 -1.3873710548170279e-014 $115 $326 forward 7 unknown #
coedge $-1 $116 $316 $322 $327 forward $195 $-1 #
vertex $-1 $117 $328 #
vertex $-1 $117 $329 #
straight-curve $-1 0 -43.638766335048473 14.273265520991743 0 1 0 I I #
coedge $-1 $209 $209 $-1 $330 reversed $120 $-1 #
edge $-1 $331 0 $331 6.2831853071796004 $121 $332 forward 7 unknown #
vertex $-1 $124 $333 #
ellipse-curve $-1 -7.4224770452455573 -24.212077040876153 9.6450521737333013 0 -0.64278761758704617 0.76604443648966558 3 0 0 1 I I #
face $-1 $-1 $226 $26 $-1 $334 reversed single #
loop $-1 $-1 $335 $125 #
plane-surface $-1 0 -87.277532670096946 73.601977607596169 -1 0 0 0 -0.64278761758704617 0.76604443648966558 forward_v I I I I #
coedge $-1 $336 $337 $130 $223 forward $126 $-1 #
coedge $-1 $221 $128 $336 $338 reversed $78 $-1 #
coedge $-1 $128 $221 $225 $339 reversed $78 $-1 #
coedge $-1 $340 $335 $128 $220 forward $214 $-1 #
edge $-1 $341 -14.400443383250746 $342 -1.3873710548170279e-014 $219 $343 forward 7 unknown #
coedge $-1 $218 $217 $129 $222 forward $78 $-1 #
edge $-1 $344 -14.400443383250746 $227 -1.3873710548170279e-014 $129 $345 forward 7 unknown #
edge $-1 $228 13.910999525810499 $344 24.94237906253414 $216 $346 forward 7 unknown #
coedge $-1 $347 $131 $337 $348 reversed $226 $-1 #
coedge $-1 $131 $347 $218 $339 forward $226 $-1 #
loop $-1 $-1 $131 $213 #
vertex $-1 $132 $349 #
vertex $-1 $132 $350 #
straight-curve $-1 14.844954090491115 -29.727766809237973 36.800988803798084 0 0 1 I I #
coedge $-1 $230 $230 $-1 $351 reversed $135 $-1 #
edge $-1 $352 0 $352 6.2831853071796004 $136 $353 forward 7 unknown #
vertex $-1 $139 $354 #
ellipse-curve $-1 7.4224770452455573 -24.212077040876153 9.6450521737333013 0 -0.64278761758704617 0.76604443648966558 3 0 0 1 I I #
face $-1 $-1 $155 $21 $-1 $355 reversed single #
loop $-1 $-1 $250 $140 #
plane-surface $-1 0 29.727766809237973 0 0 -1 0 0 0 -1 forward_v I I I I #
coedge $-1 $356 $248 $251 $357 forward $141 $-1 #
coedge $-1 $254 $143 $144 $242 reversed $87 $-1 #
coedge $-1 $248 $356 $143 $240 reversed $141 $-1 #
edge $-1 $255 -14.273265520991743 $358 14.273265520991743 $239 $359 forward 7 unknown #
coedge $-1 $145 $144 $356 $360 forward $57 $-1 #
edge $-1 $246 -44.765770439771721 $358 44.765770439771721 $238 $361 forward 7 unknown #
coedge $-1 $251 $250 $145 $244 reversed $235 $-1 #
edge $-1 $362 -44.765770439771721 $245 44.765770439771721 $243 $363 forward 7 unknown #
vertex $-1 $147 $364 #
vertex $-1 $257 $365 #
straight-curve $-1 44.765770439771721 0 -14.273265520991743 0 -1 0 I I #
coedge $-1 $237 $239 $148 $249 reversed $141 $-1 #
edge $-1 $252 -29.727766809237973 $255 29.727766809237973 $248 $366 forward 7 unknown #
coedge $-1 $243 $149 $154 $258 forward $235 $-1 #
coedge $-1 $149 $243 $237 $357 reversed $235 $-1 #
vertex $-1 $150 $367 #
straight-curve $-1 0 29.727766809237973 14.273265520991743 -1 0 0 I I #
coedge $-1 $151 $238 $153 $257 reversed $87 $-1 #
vertex $-1 $249 $368 #
straight-curve $-1 0 -29.727766809237973 14.273265520991743 1 0 0 I I #
edge $-1 $156 -14.273265520991743 $246 14.273265520991743 $153 $369 forward 7 unknown #
edge $-1 $157 -14.273265520991743 $245 14.273265520991743 $154 $370 forward 7 unknown #
point $-1 44.765770439771721 -29.727766809237973 14.273265520991743 #
point $-1 44.765770439771721 29.727766809237973 14.273265520991743 #
face $-1 $-1 $174 $22 $-1 $371 reversed single #
loop $-1 $-1 $270 $159 #
plane-surface $-1 0 0 14.273265520991743 0 0 1 1 0 0 forward_v I I I I #
coedge $-1 $276 $275 $163 $269 forward $160 $-1 #
coedge $-1 $165 $162 $276 $372 reversed $95 $-1 #
coedge $-1 $162 $165 $279 $373 reversed $95 $-1 #
edge $-1 $281 -14.273265520991743 $277 14.273265520991743 $162 $374 forward 7 unknown #
coedge $-1 $164 $163 $283 $375 reversed $61 $-1 #
edge $-1 $376 -25.70424540066044 $273 -12.418804677562122 $264 $377 forward 7 unknown #
coedge $-1 $280 $279 $164 $271 forward $262 $-1 #
edge $-1 $272 12.418804677562122 $378 25.70424540066044 $270 $379 forward 7 unknown #
vertex $-1 $271 $380 #
vertex $-1 $269 $381 #
straight-curve $-1 -31.480329716673403 -6.0616095083315376 0 0 0 -1 I I #
coedge $-1 $264 $168 $173 $285 forward $160 $-1 #
coedge $-1 $168 $264 $265 $372 forward $160 $-1 #
vertex $-1 $169 $382 #
straight-curve $-1 -19.061525039111281 -11.641717115894279 -14.273265520991743 -1 0 0 I I #
coedge $-1 $270 $170 $266 $373 forward $262 $-1 #
coedge $-1 $170 $270 $172 $284 forward $262 $-1 #
vertex $-1 $171 $383 #
straight-curve $-1 -19.061525039111281 -11.641717115894279 14.273265520991743 1 0 0 I I #
coedge $-1 $173 $172 $268 $375 forward $174 $-1 #
edge $-1 $378 6.0616095083315376 $176 11.641717115894279 $172 $384 forward 7 unknown #
edge $-1 $175 -11.641717115894279 $376 -6.0616095083315376 $173 $385 forward 7 unknown #
point $-1 -44.765770439771721 -11.641717115894279 -14.273265520991743 #
point $-1 -44.765770439771721 -11.641717115894279 14.273265520991743 #
face $-1 $-1 $386 $23 $-1 $387 reversed single #
loop $-1 $-1 $189 $178 #
plane-surface $-1 0 0 14.273265520991743 0 0 1 1 0 0 forward_v I I I I #
coedge $-1 $184 $181 $388 $389 reversed $103 $-1 #
coedge $-1 $181 $184 $390 $391 reversed $103 $-1 #
coedge $-1 $392 $393 $181 $294 forward $386 $-1 #
edge $-1 $394 -14.273265520991743 $395 14.273265520991743 $293 $396 forward 7 unknown #
coedge $-1 $388 $187 $182 $296 forward $179 $-1 #
edge $-1 $192 -7.2158854598378248 $300 -1.6357778522750834 $295 $397 forward 7 unknown #
coedge $-1 $189 $390 $183 $298 forward $289 $-1 #
edge $-1 $299 1.6357778522750834 $191 7.2158854598378248 $297 $398 forward 7 unknown #
vertex $-1 $298 $399 #
vertex $-1 $296 $400 #
straight-curve $-1 31.480329716673396 -6.0616095083315376 0 0 0 -1 I I #
coedge $-1 $393 $392 $186 $303 forward $386 $-1 #
edge $-1 $308 -14.273265520991743 $305 14.273265520991743 $302 $401 forward 7 unknown #
coedge $-1 $187 $388 $393 $402 forward $179 $-1 #
vertex $-1 $303 $403 #
straight-curve $-1 19.061525039111277 -11.641717115894279 -14.273265520991743 -1 0 0 I I #
coedge $-1 $390 $189 $392 $404 forward $289 $-1 #
vertex $-1 $404 $405 #
straight-curve $-1 19.061525039111277 -11.641717115894279 14.273265520991743 1 0 0 I I #
point $-1 31.480329716673396 -11.641717115894279 14.273265520991743 #
point $-1 31.480329716673396 -11.641717115894279 -14.273265520991743 #
loop $-1 $-1 $202 $194 #
plane-surface $-1 0 -29.727766809237973 0 0 1 0 0 0 1 forward_v I I I I #
coedge $-1 $315 $197 $199 $319 reversed $111 $-1 #
coedge $-1 $197 $314 $406 $407 reversed $111 $-1 #
coedge $-1 $205 $200 $197 $317 forward $195 $-1 #
edge $-1 $320 -24.94237906253414 $408 -13.910999525810499 $316 $409 forward 7 unknown #
coedge $-1 $199 $198 $323 $410 reversed $69 $-1 #
edge $-1 $411 1.3873710548170279e-014 $320 14.400443383250746 $314 $412 forward 7 unknown #
vertex $-1 $201 $413 #
straight-curve $-1 -3.7112385226227786 -18.696387272514333 14.273265520991743 -1 0 0 I I #
coedge $-1 $406 $202 $205 $327 reversed $312 $-1 #
coedge $-1 $202 $406 $318 $410 forward $312 $-1 #
vertex $-1 $203 $414 #
straight-curve $-1 0 -29.727766809237973 36.800988803798084 0 0 1 I I #
straight-curve $-1 0 -29.727766809237984 5.0168388264748529 0 -0.76604443648966558 -0.64278761758704617 I I #
edge $-1 $408 -14.844954090491115 $206 0 $322 $415 forward 7 unknown #
point $-1 0 -29.727766809237973 14.273265520991743 #
point $-1 0 -18.696387272514333 14.273265520991743 #
edge $-1 $416 1 $416 0 $209 $-1 forward 7 unknown #
vertex $-1 $210 $417 #
ellipse-curve $-1 -7.4224770452455573 -17.926403918073973 2.1540788046590729 0 -0.64278761758704617 0.76604443648966558 3 0 0 1 I I #
point $-1 -4.4224770452455573 -24.212077040876149 9.6450521737333013 #
plane-surface $-1 0 -29.727766809237973 0 0 1 0 0 0 1 forward_v I I I I #
coedge $-1 $219 $340 $418 $419 reversed $214 $-1 #
coedge $-1 $418 $216 $217 $338 forward $126 $-1 #
coedge $-1 $216 $418 $224 $348 forward $126 $-1 #
edge $-1 $344 -18.556192613113893 $341 -3.7112385226227786 $336 $420 forward 7 unknown #
edge $-1 $342 3.7112385226227786 $227 18.556192613113893 $225 $421 forward 7 unknown #
coedge $-1 $335 $219 $347 $422 reversed $214 $-1 #
vertex $-1 $338 $423 #
vertex $-1 $339 $424 #
straight-curve $-1 0 -29.727766809237984 5.0168388264748529 0 -0.76604443648966558 -0.64278761758704617 I I #
vertex $-1 $223 $425 #
straight-curve $-1 14.844954090491115 -29.727766809237984 5.0168388264748529 0 -0.76604443648966558 -0.64278761758704617 I I #
straight-curve $-1 14.844954090491115 -43.638766335048473 14.273265520991743 0 1 0 I I #
coedge $-1 $225 $224 $340 $422 forward $226 $-1 #
edge $-1 $426 0 $228 14.844954090491115 $224 $427 forward 7 unknown #
point $-1 14.844954090491115 -29.727766809237973 5.0168388264748618 #
point $-1 14.844954090491115 -29.727766809237973 14.273265520991743 #
edge $-1 $428 1 $428 0 $230 $-1 forward 7 unknown #
vertex $-1 $231 $429 #
ellipse-curve $-1 7.4224770452455573 -17.926403918073973 2.1540788046590729 0 -0.64278761758704617 0.76604443648966558 3 0 0 1 I I #
point $-1 10.422477045245557 -24.212077040876149 9.6450521737333013 #
plane-surface $-1 44.765770439771721 0 0 -1 0 0 0 0 1 forward_v I I I I #
coedge $-1 $239 $237 $241 $360 reversed $141 $-1 #
edge $-1 $252 -14.273265520991743 $362 14.273265520991743 $251 $430 forward 7 unknown #
vertex $-1 $360 $431 #
straight-curve $-1 -44.765770439771721 -29.727766809237973 0 0 0 -1 I I #
edge $-1 $358 -29.727766809237973 $362 29.727766809237973 $356 $432 forward 7 unknown #
straight-curve $-1 0 -29.727766809237973 -14.273265520991743 -1 0 0 I I #
vertex $-1 $244 $433 #
straight-curve $-1 0 29.727766809237973 -14.273265520991743 1 0 0 I I #
point $-1 44.765770439771721 29.727766809237973 -14.273265520991743 #
point $-1 44.765770439771721 -29.727766809237973 -14.273265520991743 #
straight-curve $-1 -44.765770439771721 0 14.273265520991743 0 -1 0 I I #
point $-1 -44.765770439771721 29.727766809237973 14.273265520991743 #
point $-1 -44.765770439771721 -29.727766809237973 14.273265520991743 #
straight-curve $-1 44.765770439771721 -29.727766809237973 0 0 0 -1 I I #
straight-curve $-1 44.765770439771721 29.727766809237973 0 0 0 -1 I I #
plane-surface $-1 -44.765770439771721 0 0 1 0 0 0 0 -1 forward_v I I I I #
edge $-1 $273 1.6357778522750834 $277 7.2158854598378248 $276 $434 forward 7 unknown #
edge $-1 $281 -7.2158854598378248 $272 -1.6357778522750834 $279 $435 forward 7 unknown #
straight-curve $-1 -31.480329716673403 -11.641717115894279 0 0 0 -1 I I #
edge $-1 $378 -14.273265520991743 $376 14.273265520991743 $283 $436 forward 7 unknown #
vertex $-1 $375 $437 #
straight-curve $-1 -19.061525039111281 -6.0616095083315376 -14.273265520991743 1 0 0 I I #
vertex $-1 $284 $438 #
straight-curve $-1 -19.061525039111281 -6.0616095083315376 14.273265520991743 -1 0 0 I I #
point $-1 -31.480329716673403 -6.0616095083315376 14.273265520991743 #
point $-1 -31.480329716673403 -6.0616095083315376 -14.273265520991743 #
point $-1 -31.480329716673403 -11.641717115894279 -14.273265520991743 #
point $-1 -31.480329716673403 -11.641717115894279 14.273265520991743 #
straight-curve $-1 -44.765770439771721 0 14.273265520991743 0 -1 0 I I #
straight-curve $-1 -44.765770439771721 0 -14.273265520991743 0 1 0 I I #
loop $-1 $-1 $302 $288 #
plane-surface $-1 44.765770439771721 0 0 -1 0 0 0 0 1 forward_v I I I I #
coedge $-1 $304 $295 $291 $389 forward $179 $-1 #
edge $-1 $300 12.418804677562118 $394 25.704245400660437 $388 $439 forward 7 unknown #
coedge $-1 $297 $307 $292 $391 forward $289 $-1 #
edge $-1 $395 -25.704245400660437 $299 -12.418804677562118 $390 $440 forward 7 unknown #
coedge $-1 $302 $293 $307 $404 reversed $386 $-1 #
coedge $-1 $293 $302 $304 $402 reversed $386 $-1 #
vertex $-1 $402 $441 #
vertex $-1 $294 $442 #
straight-curve $-1 44.765770439771721 -6.0616095083315376 0 0 0 1 I I #
straight-curve $-1 31.480329716673396 -4.4258316560564541 -14.273265520991743 0 1 0 I I #
straight-curve $-1 31.480329716673396 -4.4258316560564541 14.273265520991743 0 -1 0 I I #
point $-1 31.480329716673396 -6.0616095083315376 14.273265520991743 #
point $-1 31.480329716673396 -6.0616095083315376 -14.273265520991743 #
straight-curve $-1 44.765770439771721 -11.641717115894279 0 0 0 -1 I I #
edge $-1 $394 6.0616095083315376 $305 11.641717115894279 $393 $443 forward 7 unknown #
point $-1 44.765770439771714 -11.641717115894279 -14.273265520991743 #
edge $-1 $308 -11.641717115894279 $395 -6.0616095083315376 $392 $444 forward 7 unknown #
point $-1 44.765770439771714 -11.641717115894279 14.273265520991743 #
coedge $-1 $323 $322 $315 $407 forward $312 $-1 #
edge $-1 $408 22.527723282806342 $411 31.784149977323224 $406 $445 forward 7 unknown #
vertex $-1 $327 $446 #
straight-curve $-1 -14.844954090491115 -43.638766335048473 14.273265520991743 0 -1 0 I I #
edge $-1 $411 -11.133715567868336 $324 3.7112385226227786 $323 $447 forward 7 unknown #
vertex $-1 $410 $448 #
straight-curve $-1 -14.844954090491115 -29.727766809237984 5.0168388264748529 0 0.76604443648966558 0.64278761758704617 I I #
point $-1 -14.844954090491115 -18.696387272514333 14.273265520991743 #
point $-1 0 -29.727766809237973 5.0168388264748618 #
straight-curve $-1 0 -29.727766809237973 14.273265520991743 1 0 0 I I #
vertex $-1 $330 $449 #
point $-1 -4.4224770452455573 -17.926403918073973 2.1540788046590729 #
coedge $-1 $337 $336 $335 $419 forward $126 $-1 #
edge $-1 $341 -24.94237906253414 $426 -13.910999525810499 $418 $450 forward 7 unknown #
straight-curve $-1 -3.7112385226227786 -18.696387272514333 14.273265520991743 -1 0 0 I I #
straight-curve $-1 -3.7112385226227786 -29.727766809237973 5.0168388264748609 1 0 0 I I #
edge $-1 $426 22.527723282806342 $342 31.784149977323224 $347 $451 forward 7 unknown #
point $-1 0 -18.696387272514333 14.273265520991743 #
point $-1 0 -29.727766809237973 5.0168388264748618 #
point $-1 14.844954090491115 -18.696387272514333 14.273265520991743 #
vertex $-1 $348 $452 #
straight-curve $-1 0 -29.727766809237973 14.273265520991743 1 0 0 I I #
vertex $-1 $351 $453 #
point $-1 10.422477045245557 -17.926403918073973 2.1540788046590729 #
straight-curve $-1 -44.765770439771721 29.727766809237973 0 0 0 -1 I I #
point $-1 -44.765770439771721 -29.727766809237973 -14.273265520991743 #
straight-curve $-1 -44.765770439771721 0 -14.273265520991743 0 1 0 I I #
point $-1 -44.765770439771721 29.727766809237973 -14.273265520991743 #
straight-curve $-1 -31.480329716673403 -4.4258316560564541 -14.273265520991743 0 -1 0 I I #
straight-curve $-1 -31.480329716673403 -4.4258316560564541 14.273265520991743 0 1 0 I I #
straight-curve $-1 -44.765770439771721 -6.0616095083315376 0 0 0 -1 I I #
point $-1 -44.765770439771721 -6.0616095083315376 -14.273265520991743 #
point $-1 -44.765770439771721 -6.0616095083315376 14.273265520991743 #
straight-curve $-1 19.061525039111277 -6.0616095083315376 -14.273265520991743 1 0 0 I I #
straight-curve $-1 19.061525039111277 -6.0616095083315376 14.273265520991743 -1 0 0 I I #
point $-1 44.765770439771714 -6.0616095083315376 -14.273265520991743 #
point $-1 44.765770439771714 -6.0616095083315376 14.273265520991743 #
straight-curve $-1 44.765770439771721 0 -14.273265520991743 0 -1 0 I I #
straight-curve $-1 44.765770439771721 0 14.273265520991743 0 1 0 I I #
straight-curve $-1 -14.844954090491115 -29.727766809237973 36.800988803798084 0 0 -1 I I #
point $-1 -14.844954090491115 -29.727766809237973 14.273265520991743 #
straight-curve $-1 -3.7112385226227786 -29.727766809237973 5.0168388264748609 1 0 0 I I #
point $-1 -14.844954090491115 -29.727766809237973 5.0168388264748618 #
point $-1 -7.4224770452455573 -15.998041065312833 -0.14405450480992354 #
straight-curve $-1 0 -43.638766335048473 14.273265520991743 0 -1 0 I I #
straight-curve $-1 0 -29.727766809237973 36.800988803798084 0 0 -1 I I #
point $-1 0 -29.727766809237973 14.273265520991743 #
point $-1 7.4224770452455573 -15.998041065312833 -0.14405450480992354 #
End-of-ACIS-data 