500 0 5 0           
7 Unknown 11 ACIS 5.0 NT 24 Fri Mar 26 02:03:34 1999 
-1 9.9999999999999995e-007 1e-010 
body $-1 $5 $-1 $6 #
body $-1 $7 $-1 $8 #
body $-1 $9 $-1 $10 #
body $-1 $11 $-1 $12 #
body $-1 $13 $-1 $14 #
lump $-1 $-1 $15 $0 #
transform $-1 1 0 0 0 1 0 0 0 1 45.157628101443528 30.668102959289623 8.6078842407479073 1 rotate no_reflect no_shear #
lump $-1 $-1 $16 $1 #
transform $-1 1 0 0 0 1 0 0 0 1 45.157628101443528 30.668102959289623 8.6078842407479073 1 rotate no_reflect no_shear #
lump $-1 $-1 $17 $2 #
transform $-1 1 0 0 0 1 0 0 0 1 45.157628101443528 30.668102959289623 8.6078842407479073 1 rotate no_reflect no_shear #
lump $-1 $-1 $18 $3 #
transform $-1 1 0 0 0 1 0 0 0 1 45.157628101443528 30.668102959289623 8.6078842407479073 1 rotate no_reflect no_shear #
lump $-1 $-1 $19 $4 #
transform $-1 1 0 0 0 1 0 0 0 1 45.157628101443528 30.668102959289623 8.6078842407479073 1 rotate no_reflect no_shear #
shell $-1 $-1 $-1 $20 $-1 $5 #
shell $-1 $-1 $-1 $21 $-1 $7 #
shell $-1 $-1 $-1 $22 $-1 $9 #
shell $-1 $-1 $-1 $23 $-1 $11 #
shell $-1 $-1 $-1 $24 $-1 $13 #
face $-1 $25 $26 $15 $-1 $27 forward single #
face $-1 $28 $29 $16 $-1 $30 forward single #
face $-1 $31 $32 $17 $-1 $33 reversed single #
face $-1 $34 $35 $18 $-1 $36 forward single #
face $-1 $37 $38 $19 $-1 $39 forward single #
face $-1 $40 $41 $15 $-1 $42 reversed single #
loop $-1 $-1 $43 $20 #
plane-surface $-1 0 0 8.6078842407479073 0 0 1 1 0 0 forward_v I I I I #
face $-1 $44 $45 $16 $-1 $46 reversed single #
loop $-1 $-1 $47 $21 #
plane-surface $-1 -45.157628101443528 0 0 1 0 0 0 0 -1 forward_v I I I I #
face $-1 $48 $49 $17 $-1 $50 reversed single #
loop $-1 $-1 $51 $22 #
plane-surface $-1 -8.5064282014681183 62.256115855308238 108.64302735375135 1 0 0 0 -0.77714596973225614 -0.62932038083071107 forward_v I I I I #
face $-1 $52 $53 $18 $-1 $54 forward single #
loop $-1 $55 $56 $23 #
cone-surface $-1 -5.9024985127593226 27.855523663534129 5.5610291118456185 0 -0.77714596973225614 -0.62932038083071107 1 0 0 1 I I 0 1 1 forward I I I I #
face $-1 $57 $58 $19 $-1 $59 forward single #
loop $-1 $60 $61 $24 #
cone-surface $-1 -1.9966039796961326 27.855523663534129 5.5610291118456185 0 -0.77714596973225614 -0.62932038083071107 1 0 0 1 I I 0 1 1 forward I I I I #
face $-1 $62 $63 $15 $-1 $64 reversed single #
loop $-1 $-1 $65 $25 #
plane-surface $-1 0 0 -8.6078842407479073 0 0 1 1 0 0 forward_v I I I I #
coedge $-1 $66 $67 $68 $69 forward $26 $-1 #
face $-1 $70 $71 $16 $-1 $72 forward single #
loop $-1 $-1 $73 $28 #
plane-surface $-1 0 30.668102959289623 0 0 -1 0 0 0 -1 forward_v I I I I #
coedge $-1 $74 $75 $76 $77 forward $29 $-1 #
face $-1 $78 $79 $17 $-1 $80 reversed single #
loop $-1 $-1 $81 $31 #
plane-surface $-1 -3.9495512462277276 -7.9320215081015846 51.805795925327224 0 0.77714596973225614 0.62932038083071107 1 0 0 forward_v I I I I #
coedge $-1 $82 $83 $84 $85 reversed $32 $-1 #
face $-1 $-1 $86 $18 $-1 $87 forward single #
loop $-1 $88 $89 $34 #
cone-surface $-1 -5.9024985127593226 26.463944512098674 4.4341505643841259 0 -0.77714596973225614 -0.62932038083071107 0.5 0 0 1 I I -0.70710678118654746 0.70710678118654746 0.5 forward I I I I #
loop $-1 $-1 $90 $23 #
coedge $-1 $56 $56 $91 $92 reversed $35 $-1 #
face $-1 $-1 $93 $19 $-1 $94 forward single #
loop $-1 $95 $96 $37 #
cone-surface $-1 -1.9966039796961326 26.463944512098674 4.4341505643841259 0 -0.77714596973225614 -0.62932038083071107 0.5 0 0 1 I I -0.70710678118654746 0.70710678118654746 0.5 forward I I I I #
loop $-1 $-1 $97 $24 #
coedge $-1 $61 $61 $98 $99 reversed $38 $-1 #
face $-1 $100 $101 $15 $-1 $102 reversed single #
loop $-1 $-1 $103 $40 #
plane-surface $-1 0 -30.668102959289623 0 0 1 0 0 0 1 forward_v I I I I #
coedge $-1 $104 $105 $106 $107 forward $41 $-1 #
coedge $-1 $108 $43 $109 $110 forward $26 $-1 #
coedge $-1 $43 $108 $111 $112 forward $26 $-1 #
coedge $-1 $113 $114 $43 $69 reversed $115 $-1 #
edge $-1 $116 -30.668102959289623 $117 30.668102959289623 $68 $118 forward 7 unknown #
face $-1 $119 $120 $16 $-1 $121 reversed single #
loop $-1 $-1 $76 $44 #
plane-surface $-1 -49.376702425473113 0 -3.9300940395912041 0 0 1 1 0 0 forward_v I I I I #
coedge $-1 $122 $123 $75 $124 forward $45 $-1 #
coedge $-1 $125 $47 $126 $127 reversed $29 $-1 #
coedge $-1 $47 $125 $73 $124 reversed $29 $-1 #
coedge $-1 $128 $129 $47 $77 reversed $71 $-1 #
edge $-1 $130 -30.668102959289623 $131 30.668102959289623 $76 $132 forward 7 unknown #
face $-1 $133 $134 $17 $-1 $135 forward single #
loop $-1 $-1 $136 $48 #
plane-surface $-1 0.60732570901266314 62.256115855308238 108.64302735375135 -1 0 0 0 0.77714596973225614 0.62932038083071107 forward_v I I I I #
coedge $-1 $137 $138 $139 $140 reversed $49 $-1 #
coedge $-1 $83 $51 $141 $142 reversed $32 $-1 #
coedge $-1 $51 $82 $137 $143 reversed $32 $-1 #
coedge $-1 $139 $144 $51 $85 forward $134 $-1 #
edge $-1 $145 0.4599549683644959 $146 4.0791012267368458 $84 $147 forward 7 unknown #
loop $-1 $-1 $91 $52 #
plane-surface $-1 -3.9495512462277276 -7.9320215081015846 51.805795925327224 0 0.77714596973225614 0.62932038083071107 1 0 0 forward_v I I I I #
loop $-1 $-1 $148 $34 #
coedge $-1 $89 $89 $90 $149 reversed $53 $-1 #
coedge $-1 $90 $90 $89 $149 forward $55 $-1 #
coedge $-1 $91 $91 $56 $92 forward $86 $-1 #
edge $-1 $150 3.3012457501171635e-016 $150 6.2831853071796004 $91 $151 forward 7 unknown #
loop $-1 $-1 $98 $57 #
plane-surface $-1 -3.9495512462277276 -7.9320215081015846 51.805795925327224 0 0.77714596973225614 0.62932038083071107 1 0 0 forward_v I I I I #
loop $-1 $-1 $152 $37 #
coedge $-1 $96 $96 $97 $153 reversed $58 $-1 #
coedge $-1 $97 $97 $96 $153 forward $60 $-1 #
coedge $-1 $98 $98 $61 $99 forward $93 $-1 #
edge $-1 $154 3.3012457501171635e-016 $154 6.2831853071796004 $98 $155 forward 7 unknown #
face $-1 $156 $157 $15 $-1 $158 reversed single #
loop $-1 $-1 $159 $62 #
plane-surface $-1 -45.157628101443528 0 0 1 0 0 0 0 -1 forward_v I I I I #
coedge $-1 $160 $111 $159 $161 forward $63 $-1 #
coedge $-1 $162 $65 $160 $163 forward $41 $-1 #
coedge $-1 $65 $162 $164 $165 forward $41 $-1 #
coedge $-1 $114 $113 $65 $107 reversed $115 $-1 #
edge $-1 $166 -30.668102959289623 $167 30.668102959289623 $106 $168 forward 7 unknown #
coedge $-1 $67 $66 $169 $170 forward $26 $-1 #
coedge $-1 $171 $172 $66 $110 reversed $157 $-1 #
edge $-1 $117 -45.157628101443528 $173 45.157628101443528 $109 $174 forward 7 unknown #
coedge $-1 $103 $175 $67 $112 reversed $63 $-1 #
edge $-1 $176 -45.157628101443528 $116 45.157628101443528 $111 $177 forward 7 unknown #
coedge $-1 $106 $68 $175 $178 forward $115 $-1 #
coedge $-1 $68 $106 $171 $179 reversed $115 $-1 #
loop $-1 $-1 $113 $156 #
vertex $-1 $69 $180 #
vertex $-1 $69 $181 #
straight-curve $-1 45.157628101443528 0 8.6078842407479073 0 1 0 I I #
face $-1 $182 $183 $16 $-1 $184 reversed single #
loop $-1 $-1 $185 $70 #
plane-surface $-1 -53.595776749502697 0 -6.2689891401695554 1 0 0 0 0 -1 forward_v I I I I #
coedge $-1 $186 $73 $187 $188 reversed $45 $-1 #
coedge $-1 $73 $186 $128 $189 reversed $45 $-1 #
edge $-1 $130 3.9300940395912041 $190 8.6078842407479073 $73 $191 forward 7 unknown #
coedge $-1 $75 $74 $192 $193 reversed $29 $-1 #
coedge $-1 $194 $195 $74 $127 forward $196 $-1 #
edge $-1 $197 -8.6078842407479073 $131 -3.9300940395912041 $126 $198 forward 7 unknown #
coedge $-1 $199 $76 $123 $189 forward $71 $-1 #
coedge $-1 $76 $199 $194 $200 forward $71 $-1 #
vertex $-1 $124 $201 #
vertex $-1 $200 $202 #
straight-curve $-1 -45.157628101443528 0 -3.9300940395912041 0 -1 0 I I #
face $-1 $-1 $203 $17 $-1 $204 reversed single #
loop $-1 $-1 $84 $78 #
plane-surface $-1 0 0 8.6078842407479073 0 0 1 1 0 0 forward_v I I I I #
coedge $-1 $205 $206 $207 $208 reversed $79 $-1 #
coedge $-1 $209 $81 $83 $143 forward $49 $-1 #
coedge $-1 $81 $209 $205 $210 forward $49 $-1 #
coedge $-1 $207 $84 $81 $140 forward $134 $-1 #
edge $-1 $146 -6.5316525783542545 $211 2.5821013321265269 $139 $212 forward 7 unknown #
coedge $-1 $213 $214 $82 $142 forward $203 $-1 #
edge $-1 $215 -50.182902979840073 $145 -45.713629436127768 $141 $216 forward 7 unknown #
edge $-1 $146 55.585325494851304 $215 61.336205918579253 $83 $217 forward 7 unknown #
coedge $-1 $84 $207 $213 $218 forward $134 $-1 #
vertex $-1 $142 $219 #
vertex $-1 $85 $220 #
straight-curve $-1 -8.5064282014681183 31.128057927654119 8.6078842407479073 0 -1 0 I I #
coedge $-1 $148 $148 $-1 $221 reversed $88 $-1 #
edge $-1 $222 0 $222 6.2831853071796004 $89 $223 forward 7 unknown #
vertex $-1 $92 $224 #
ellipse-curve $-1 -5.9024985127593226 28.85852983010345 6.3732474688917504 0 0.77714596973225614 0.62932038083071107 1 0 0 1 I I #
coedge $-1 $152 $152 $-1 $225 reversed $95 $-1 #
edge $-1 $226 0 $226 6.2831853071796004 $96 $227 forward 7 unknown #
vertex $-1 $99 $228 #
ellipse-curve $-1 -1.9966039796961326 28.85852983010345 6.3732474688917504 0 0.77714596973225614 0.62932038083071107 1 0 0 1 I I #
face $-1 $-1 $115 $15 $-1 $229 reversed single #
loop $-1 $-1 $171 $100 #
plane-surface $-1 0 30.668102959289623 0 0 -1 0 0 0 -1 forward_v I I I I #
coedge $-1 $169 $230 $103 $161 reversed $101 $-1 #
coedge $-1 $175 $103 $104 $163 reversed $63 $-1 #
edge $-1 $176 -8.6078842407479073 $231 8.6078842407479073 $159 $232 forward 7 unknown #
coedge $-1 $105 $104 $230 $233 forward $41 $-1 #
edge $-1 $167 -45.157628101443528 $231 45.157628101443528 $160 $234 forward 7 unknown #
coedge $-1 $172 $171 $105 $165 reversed $157 $-1 #
edge $-1 $235 -45.157628101443528 $166 45.157628101443528 $164 $236 forward 7 unknown #
vertex $-1 $107 $237 #
vertex $-1 $178 $238 #
straight-curve $-1 45.157628101443528 0 -8.6078842407479073 0 -1 0 I I #
coedge $-1 $239 $159 $108 $170 reversed $101 $-1 #
edge $-1 $173 -30.668102959289623 $176 30.668102959289623 $169 $240 forward 7 unknown #
coedge $-1 $164 $109 $114 $179 forward $157 $-1 #
coedge $-1 $109 $164 $239 $241 reversed $157 $-1 #
vertex $-1 $110 $242 #
straight-curve $-1 0 30.668102959289623 8.6078842407479073 -1 0 0 I I #
coedge $-1 $111 $160 $113 $178 reversed $63 $-1 #
vertex $-1 $170 $243 #
straight-curve $-1 0 -30.668102959289623 8.6078842407479073 1 0 0 I I #
edge $-1 $116 -8.6078842407479073 $167 8.6078842407479073 $113 $244 forward 7 unknown #
edge $-1 $117 -8.6078842407479073 $166 8.6078842407479073 $114 $245 forward 7 unknown #
point $-1 45.157628101443528 -30.668102959289623 8.6078842407479073 #
point $-1 45.157628101443528 30.668102959289623 8.6078842407479073 #
face $-1 $-1 $196 $16 $-1 $246 reversed single #
loop $-1 $-1 $192 $119 #
plane-surface $-1 0 0 -8.6078842407479073 0 0 1 1 0 0 forward_v I I I I #
coedge $-1 $247 $248 $186 $249 forward $120 $-1 #
coedge $-1 $123 $122 $185 $249 reversed $45 $-1 #
coedge $-1 $192 $250 $122 $188 forward $183 $-1 #
edge $-1 $251 -53.595776749502697 $190 -45.157628101443528 $122 $252 forward 7 unknown #
edge $-1 $130 -4.2190743240295845 $253 4.2190743240295845 $123 $254 forward 7 unknown #
vertex $-1 $124 $255 #
straight-curve $-1 -45.157628101443528 30.668102959289623 0 0 0 -1 I I #
coedge $-1 $256 $187 $125 $193 forward $183 $-1 #
edge $-1 $190 -30.668102959289623 $197 30.668102959289623 $192 $257 forward 7 unknown #
coedge $-1 $258 $126 $129 $200 reversed $196 $-1 #
coedge $-1 $126 $258 $256 $259 reversed $196 $-1 #
loop $-1 $-1 $126 $182 #
vertex $-1 $259 $260 #
straight-curve $-1 -45.157628101443528 -30.668102959289623 0 0 0 1 I I #
coedge $-1 $129 $128 $248 $261 forward $71 $-1 #
edge $-1 $262 -4.2190743240295845 $131 4.2190743240295845 $194 $263 forward 7 unknown #
point $-1 -45.157628101443528 30.668102959289623 -3.9300940395912041 #
point $-1 -45.157628101443528 -30.668102959289623 -3.9300940395912041 #
loop $-1 $-1 $141 $133 #
plane-surface $-1 0 30.668102959289623 0 0 -1 0 0 0 -1 forward_v I I I I #
coedge $-1 $206 $136 $138 $210 reversed $79 $-1 #
coedge $-1 $136 $205 $264 $265 reversed $79 $-1 #
coedge $-1 $144 $139 $136 $208 forward $134 $-1 #
edge $-1 $211 -4.0791012267368458 $266 -0.4599549683644959 $207 $267 forward 7 unknown #
coedge $-1 $138 $137 $214 $268 reversed $49 $-1 #
edge $-1 $269 -61.336205918579253 $211 -55.585325494851304 $205 $270 forward 7 unknown #
vertex $-1 $140 $271 #
straight-curve $-1 -1.9747756231138638 27.04895670091727 8.6078842407479073 1 0 0 I I #
coedge $-1 $264 $141 $144 $218 reversed $203 $-1 #
coedge $-1 $141 $264 $209 $268 forward $203 $-1 #
vertex $-1 $142 $272 #
straight-curve $-1 -8.5064282014681183 30.668102959289623 54.321513676875675 0 0 1 I I #
straight-curve $-1 -8.5064282014681183 -7.9320215081015846 51.805795925327224 0 0.62932038083071107 -0.77714596973225614 I I #
edge $-1 $266 -0.60732570901266314 $145 8.5064282014681183 $213 $273 forward 7 unknown #
point $-1 -8.5064282014681183 30.668102959289623 8.6078842407479073 #
point $-1 -8.5064282014681183 27.048956700917273 8.6078842407479073 #
edge $-1 $274 1 $274 0 $148 $-1 forward 7 unknown #
vertex $-1 $149 $275 #
ellipse-curve $-1 -5.9024985127593226 26.852517496964801 4.7488107547994813 0 0.77714596973225614 0.62932038083071107 1 0 0 1 I I #
point $-1 -4.9024985127593226 28.858529830103457 6.3732474688917558 #
edge $-1 $276 1 $276 0 $152 $-1 forward 7 unknown #
vertex $-1 $153 $277 #
ellipse-curve $-1 -1.9966039796961326 26.852517496964801 4.7488107547994813 0 0.77714596973225614 0.62932038083071107 1 0 0 1 I I #
point $-1 -0.99660397969613257 28.858529830103457 6.3732474688917558 #
plane-surface $-1 45.157628101443528 0 0 -1 0 0 0 0 1 forward_v I I I I #
coedge $-1 $159 $239 $162 $233 reversed $101 $-1 #
vertex $-1 $233 $278 #
straight-curve $-1 -45.157628101443528 -30.668102959289623 0 0 0 -1 I I #
edge $-1 $231 -30.668102959289623 $235 30.668102959289623 $230 $279 forward 7 unknown #
straight-curve $-1 0 -30.668102959289623 -8.6078842407479073 -1 0 0 I I #
vertex $-1 $165 $280 #
straight-curve $-1 0 30.668102959289623 -8.6078842407479073 1 0 0 I I #
point $-1 45.157628101443528 30.668102959289623 -8.6078842407479073 #
point $-1 45.157628101443528 -30.668102959289623 -8.6078842407479073 #
coedge $-1 $230 $169 $172 $241 forward $101 $-1 #
straight-curve $-1 -45.157628101443528 0 8.6078842407479073 0 -1 0 I I #
edge $-1 $173 -8.6078842407479073 $235 8.6078842407479073 $172 $281 forward 7 unknown #
point $-1 -45.157628101443528 30.668102959289623 8.6078842407479073 #
point $-1 -45.157628101443528 -30.668102959289623 8.6078842407479073 #
straight-curve $-1 45.157628101443528 -30.668102959289623 0 0 0 -1 I I #
straight-curve $-1 45.157628101443528 30.668102959289623 0 0 0 -1 I I #
plane-surface $-1 0 -30.668102959289623 0 0 1 0 0 0 1 forward_v I I I I #
coedge $-1 $282 $185 $250 $283 reversed $120 $-1 #
coedge $-1 $185 $282 $199 $261 reversed $120 $-1 #
edge $-1 $253 -2.3388951005783514 $251 2.3388951005783518 $186 $284 forward 7 unknown #
coedge $-1 $187 $256 $247 $283 forward $183 $-1 #
vertex $-1 $188 $285 #
straight-curve $-1 0 30.668102959289623 -8.6078842407479073 1 0 0 I I #
vertex $-1 $189 $286 #
straight-curve $-1 -49.376702425473113 30.668102959289623 -3.9300940395912041 -1 0 0 I I #
point $-1 -45.157628101443528 30.668102959289623 -8.6078842407479073 #
coedge $-1 $250 $192 $195 $259 forward $183 $-1 #
straight-curve $-1 -45.157628101443528 0 -8.6078842407479073 0 -1 0 I I #
coedge $-1 $195 $194 $282 $287 forward $196 $-1 #
edge $-1 $197 -4.2190743240295845 $288 4.2190743240295845 $195 $289 forward 7 unknown #
point $-1 -45.157628101443528 -30.668102959289623 -8.6078842407479073 #
edge $-1 $253 -30.668102959289623 $262 30.668102959289623 $248 $290 forward 7 unknown #
vertex $-1 $261 $291 #
straight-curve $-1 -49.376702425473113 -30.668102959289623 -3.9300940395912041 1 0 0 I I #
coedge $-1 $214 $213 $206 $265 forward $203 $-1 #
edge $-1 $266 45.713629436127768 $269 50.182902979840073 $264 $292 forward 7 unknown #
vertex $-1 $218 $293 #
straight-curve $-1 0.60732570901266314 31.128057927654119 8.6078842407479073 0 1 0 I I #
edge $-1 $269 -2.5821013321265269 $215 6.5316525783542545 $214 $294 forward 7 unknown #
vertex $-1 $268 $295 #
straight-curve $-1 0.60732570901266314 -7.9320215081015846 51.805795925327224 0 -0.62932038083071107 0.77714596973225614 I I #
point $-1 0.60732570901266314 27.048956700917273 8.6078842407479073 #
point $-1 -8.5064282014681183 30.668102959289627 4.1386106970356025 #
straight-curve $-1 0 30.668102959289623 8.6078842407479073 -1 0 0 I I #
vertex $-1 $221 $296 #
point $-1 -4.9024985127593226 26.852517496964801 4.7488107547994813 #
vertex $-1 $225 $297 #
point $-1 -0.99660397969613257 26.852517496964801 4.7488107547994813 #
point $-1 -45.157628101443528 -30.668102959289623 -8.6078842407479073 #
straight-curve $-1 -45.157628101443528 0 -8.6078842407479073 0 1 0 I I #
point $-1 -45.157628101443528 30.668102959289623 -8.6078842407479073 #
straight-curve $-1 -45.157628101443528 30.668102959289623 0 0 0 -1 I I #
coedge $-1 $248 $247 $258 $287 reversed $120 $-1 #
edge $-1 $288 -30.668102959289623 $251 30.668102959289623 $247 $298 forward 7 unknown #
straight-curve $-1 -53.595776749502697 30.668102959289623 -6.2689891401695554 0 0 -1 I I #
point $-1 -53.595776749502697 30.668102959289623 -8.6078842407479073 #
point $-1 -53.595776749502697 30.668102959289623 -3.9300940395912041 #
edge $-1 $262 -2.3388951005783514 $288 2.3388951005783518 $282 $299 forward 7 unknown #
vertex $-1 $283 $300 #
straight-curve $-1 -49.376702425473113 -30.668102959289623 -8.6078842407479073 -1 0 0 I I #
straight-curve $-1 -53.595776749502697 0 -3.9300940395912041 0 -1 0 I I #
point $-1 -53.595776749502697 -30.668102959289623 -3.9300940395912041 #
straight-curve $-1 0.60732570901266314 30.668102959289623 54.321513676875675 0 0 -1 I I #
point $-1 0.60732570901266314 30.668102959289623 8.6078842407479073 #
straight-curve $-1 -1.9747756231138638 30.668102959289623 4.1386106970356025 -1 0 0 I I #
point $-1 0.60732570901266314 30.668102959289627 4.1386106970356025 #
point $-1 -5.9024985127593226 26.075371527232548 4.1194903739687705 #
point $-1 -1.9966039796961326 26.075371527232548 4.1194903739687705 #
straight-curve $-1 -53.595776749502697 0 -8.6078842407479073 0 1 0 I I #
straight-curve $-1 -53.595776749502697 -30.668102959289623 -6.2689891401695554 0 0 -1 I I #
point $-1 -53.595776749502697 -30.668102959289623 -8.6078842407479073 #
End-of-ACIS-data 