500 0 17 0           
7 Unknown 11 ACIS 5.0 NT 24 Thu Mar 25 19:32:41 1999 
-1 9.9999999999999995e-007 1e-010 
body $-1 $17 $-1 $18 #
body $-1 $19 $-1 $20 #
body $-1 $21 $-1 $22 #
body $-1 $23 $-1 $24 #
body $-1 $25 $-1 $26 #
body $-1 $27 $-1 $28 #
body $-1 $29 $-1 $30 #
body $-1 $31 $-1 $32 #
body $-1 $33 $-1 $34 #
body $-1 $35 $-1 $36 #
body $-1 $37 $-1 $38 #
body $-1 $39 $-1 $40 #
body $-1 $41 $-1 $42 #
body $-1 $43 $-1 $44 #
body $-1 $45 $-1 $46 #
body $-1 $47 $-1 $48 #
body $-1 $49 $-1 $50 #
lump $-1 $-1 $51 $0 #
transform $-1 1 0 0 0 1 0 0 0 1 46.573686941129793 20.425078240691221 9.6992162060962368 1 rotate no_reflect no_shear #
lump $-1 $-1 $52 $1 #
transform $-1 1 0 0 0 1 0 0 0 1 46.573686941129793 20.425078240691221 9.6992162060962368 1 rotate no_reflect no_shear #
lump $-1 $-1 $53 $2 #
transform $-1 1 0 0 0 1 0 0 0 1 46.573686941129793 20.425078240691221 9.6992162060962368 1 rotate no_reflect no_shear #
lump $-1 $-1 $54 $3 #
transform $-1 1 0 0 0 1 0 0 0 1 46.573686941129793 20.425078240691221 9.6992162060962368 1 rotate no_reflect no_shear #
lump $-1 $-1 $55 $4 #
transform $-1 1 0 0 0 1 0 0 0 1 46.573686941129793 20.425078240691221 9.6992162060962368 1 rotate no_reflect no_shear #
lump $-1 $-1 $56 $5 #
transform $-1 1 0 0 0 1 0 0 0 1 46.573686941129793 20.425078240691221 9.6992162060962368 1 rotate no_reflect no_shear #
lump $-1 $-1 $57 $6 #
transform $-1 1 0 0 0 1 0 0 0 1 46.573686941129793 20.425078240691221 9.6992162060962368 1 rotate no_reflect no_shear #
lump $-1 $-1 $58 $7 #
transform $-1 1 0 0 0 1 0 0 0 1 46.573686941129793 20.425078240691221 9.6992162060962368 1 rotate no_reflect no_shear #
lump $-1 $-1 $59 $8 #
transform $-1 1 0 0 0 1 0 0 0 1 46.573686941129793 20.425078240691221 9.6992162060962368 1 rotate no_reflect no_shear #
lump $-1 $-1 $60 $9 #
transform $-1 1 0 0 0 1 0 0 0 1 46.573686941129793 20.425078240691221 9.6992162060962368 1 rotate no_reflect no_shear #
lump $-1 $-1 $61 $10 #
transform $-1 1 0 0 0 1 0 0 0 1 46.573686941129793 20.425078240691221 9.6992162060962368 1 rotate no_reflect no_shear #
lump $-1 $-1 $62 $11 #
transform $-1 1 0 0 0 1 0 0 0 1 46.573686941129793 20.425078240691221 9.6992162060962368 1 rotate no_reflect no_shear #
lump $-1 $-1 $63 $12 #
transform $-1 1 0 0 0 1 0 0 0 1 46.573686941129793 20.425078240691221 9.6992162060962368 1 rotate no_reflect no_shear #
lump $-1 $-1 $64 $13 #
transform $-1 1 0 0 0 1 0 0 0 1 46.573686941129793 20.425078240691221 9.6992162060962368 1 rotate no_reflect no_shear #
lump $-1 $-1 $65 $14 #
transform $-1 1 0 0 0 1 0 0 0 1 46.573686941129793 20.425078240691221 9.6992162060962368 1 rotate no_reflect no_shear #
lump $-1 $-1 $66 $15 #
transform $-1 1 0 0 0 1 0 0 0 1 46.573686941129793 20.425078240691221 9.6992162060962368 1 rotate no_reflect no_shear #
lump $-1 $-1 $67 $16 #
transform $-1 1 0 0 0 1 0 0 0 1 46.573686941129793 20.425078240691221 9.6992162060962368 1 rotate no_reflect no_shear #
shell $-1 $-1 $-1 $68 $-1 $17 #
shell $-1 $-1 $-1 $69 $-1 $19 #
shell $-1 $-1 $-1 $70 $-1 $21 #
shell $-1 $-1 $-1 $71 $-1 $23 #
shell $-1 $-1 $-1 $72 $-1 $25 #
shell $-1 $-1 $-1 $73 $-1 $27 #
shell $-1 $-1 $-1 $74 $-1 $29 #
shell $-1 $-1 $-1 $75 $-1 $31 #
shell $-1 $-1 $-1 $76 $-1 $33 #
shell $-1 $-1 $-1 $77 $-1 $35 #
shell $-1 $-1 $-1 $78 $-1 $37 #
shell $-1 $-1 $-1 $79 $-1 $39 #
shell $-1 $-1 $-1 $80 $-1 $41 #
shell $-1 $-1 $-1 $81 $-1 $43 #
shell $-1 $-1 $-1 $82 $-1 $45 #
shell $-1 $-1 $-1 $83 $-1 $47 #
shell $-1 $-1 $-1 $84 $-1 $49 #
face $-1 $85 $86 $51 $-1 $87 forward single #
face $-1 $88 $89 $52 $-1 $90 forward single #
face $-1 $91 $92 $53 $-1 $93 reversed single #
face $-1 $94 $95 $54 $-1 $96 forward single #
face $-1 $97 $98 $55 $-1 $99 forward single #
face $-1 $100 $101 $56 $-1 $102 reversed single #
face $-1 $103 $104 $57 $-1 $105 forward single #
face $-1 $106 $107 $58 $-1 $108 forward single #
face $-1 $109 $110 $59 $-1 $111 forward single #
face $-1 $112 $113 $60 $-1 $114 reversed single #
face $-1 $115 $116 $61 $-1 $117 forward single #
face $-1 $118 $119 $62 $-1 $120 forward single #
face $-1 $121 $122 $63 $-1 $123 forward single #
face $-1 $124 $125 $64 $-1 $126 reversed single #
face $-1 $127 $128 $65 $-1 $129 forward single #
face $-1 $130 $131 $66 $-1 $132 forward single #
face $-1 $133 $134 $67 $-1 $135 forward single #
face $-1 $136 $137 $51 $-1 $138 reversed single #
loop $-1 $-1 $139 $68 #
plane-surface $-1 0 0 9.6992162060962368 0 0 1 1 0 0 forward_v I I I I #
face $-1 $140 $141 $52 $-1 $142 forward single #
loop $-1 $-1 $143 $69 #
plane-surface $-1 0 -20.425078240691221 0 0 1 0 0 0 1 forward_v I I I I #
face $-1 $144 $145 $53 $-1 $146 reversed single #
loop $-1 $-1 $147 $70 #
plane-surface $-1 -126.41657070907516 -5.0668279471007835 51.724057623183363 0 1 0 -0.85716730853699208 0 0.51503806187062418 forward_v I I I I #
face $-1 $148 $149 $54 $-1 $150 forward single #
loop $-1 $151 $152 $71 #
cone-surface $-1 -44.16130975813229 -2.3560523595364664 6.3489156634242345 0.85716730853699208 0 -0.51503806187062418 0.51503806187062418 0 0.85716730853699208 1 I I 0 1 1 forward I I I I #
face $-1 $153 $154 $55 $-1 $155 forward single #
loop $-1 $156 $157 $72 #
cone-surface $-1 -44.16130975813229 1.7101110218100075 6.3489156634242345 0.85716730853699208 0 -0.51503806187062418 0.51503806187062418 0 0.85716730853699208 1 I I 0 1 1 forward I I I I #
face $-1 $158 $159 $56 $-1 $160 reversed single #
loop $-1 $-1 $161 $73 #
plane-surface $-1 80.667994046281478 -3.3086174477459025 130.81628392222146 0 -1 0 -0.86602541151947299 0 -0.49999998660252726 forward_v I I I I #
face $-1 $162 $163 $57 $-1 $164 forward single #
loop $-1 $165 $166 $74 #
cone-surface $-1 44.173978616464254 -8.2781644988855767 6.2722070102993079 -0.86602541151947299 0 -0.49999998660252726 0.24999999330126363 0 -0.43301270575973649 1 I I 0 1 0.5 forward I I I I #
face $-1 $167 $168 $58 $-1 $169 forward single #
loop $-1 $170 $171 $75 #
cone-surface $-1 44.173978616464254 -6.4145843547082002 6.2722070102993079 -0.86602541151947299 0 -0.49999998660252726 0.24999999330126363 0 -0.43301270575973649 1 I I 0 1 0.5 forward I I I I #
face $-1 $172 $173 $59 $-1 $174 forward single #
loop $-1 $175 $176 $76 #
cone-surface $-1 44.173978616464254 -4.5510042105308237 6.2722070102993079 -0.86602541151947299 0 -0.49999998660252726 0.24999999330126363 0 -0.43301270575973649 1 I I 0 1 0.5 forward I I I I #
face $-1 $177 $178 $60 $-1 $179 reversed single #
loop $-1 $-1 $180 $77 #
plane-surface $-1 80.667994046281478 7.3882417553001805 130.81628392222146 0 -1 0 -0.86602541151947299 0 -0.49999998660252726 forward_v I I I I #
face $-1 $181 $182 $61 $-1 $183 forward single #
loop $-1 $184 $185 $78 #
cone-surface $-1 44.173978616464254 2.418694704160508 6.2722070102993079 -0.86602541151947299 0 -0.49999998660252726 0.24999999330126363 0 -0.43301270575973649 1 I I 0 1 0.5 forward I I I I #
face $-1 $186 $187 $62 $-1 $188 forward single #
loop $-1 $189 $190 $79 #
cone-surface $-1 44.173978616464254 4.2822748483378845 6.2722070102993079 -0.86602541151947299 0 -0.49999998660252726 0.24999999330126363 0 -0.43301270575973649 1 I I 0 1 0.5 forward I I I I #
face $-1 $191 $192 $63 $-1 $193 forward single #
loop $-1 $194 $195 $80 #
cone-surface $-1 44.173978616464254 6.145854992515261 6.2722070102993079 -0.86602541151947299 0 -0.49999998660252726 0.24999999330126363 0 -0.43301270575973649 1 I I 0 1 0.5 forward I I I I #
face $-1 $196 $197 $64 $-1 $198 reversed single #
loop $-1 $-1 $199 $81 #
plane-surface $-1 80.667994046281478 18.08510095834626 130.81628392222146 0 -1 0 -0.86602541151947299 0 -0.49999998660252726 forward_v I I I I #
face $-1 $200 $201 $65 $-1 $202 forward single #
loop $-1 $203 $204 $82 #
cone-surface $-1 44.173978616464254 13.115553907206589 6.2722070102993079 -0.86602541151947299 0 -0.49999998660252726 0.24999999330126363 0 -0.43301270575973649 1 I I 0 1 0.5 forward I I I I #
face $-1 $205 $206 $66 $-1 $207 forward single #
loop $-1 $208 $209 $83 #
cone-surface $-1 44.173978616464254 14.979134051383966 6.2722070102993079 -0.86602541151947299 0 -0.49999998660252726 0.24999999330126363 0 -0.43301270575973649 1 I I 0 1 0.5 forward I I I I #
face $-1 $210 $211 $67 $-1 $212 forward single #
loop $-1 $213 $214 $84 #
cone-surface $-1 44.173978616464254 16.842714195561342 6.2722070102993079 -0.86602541151947299 0 -0.49999998660252726 0.24999999330126363 0 -0.43301270575973649 1 I I 0 1 0.5 forward I I I I #
face $-1 $215 $216 $51 $-1 $217 reversed single #
loop $-1 $-1 $218 $85 #
plane-surface $-1 0 0 -9.6992162060962368 0 0 1 1 0 0 forward_v I I I I #
coedge $-1 $219 $220 $221 $222 forward $86 $-1 #
face $-1 $223 $224 $52 $-1 $225 reversed single #
loop $-1 $-1 $226 $88 #
plane-surface $-1 0 0 9.6992162060962368 0 0 1 1 0 0 forward_v I I I I #
coedge $-1 $227 $228 $229 $230 forward $89 $-1 #
face $-1 $231 $232 $53 $-1 $233 reversed single #
loop $-1 $-1 $234 $91 #
plane-surface $-1 -46.573686941129793 -0.32297066886322767 3.7496147105259894 -0.85716730853699208 0 0.51503806187062418 0.51503806187062418 0 0.85716730853699208 forward_v I I I I #
coedge $-1 $235 $236 $237 $238 reversed $92 $-1 #
face $-1 $-1 $239 $54 $-1 $240 forward single #
loop $-1 $241 $242 $94 #
cone-surface $-1 -43.107789478072775 -2.3560523595364664 5.7158968376020471 0.85716730853699208 0 -0.51503806187062418 0.25751903093531209 0 0.42858365426849604 1 I I -0.70710678118654746 0.70710678118654746 0.5 forward I I I I #
loop $-1 $-1 $243 $71 #
coedge $-1 $152 $152 $244 $245 reversed $95 $-1 #
face $-1 $-1 $246 $55 $-1 $247 forward single #
loop $-1 $248 $249 $97 #
cone-surface $-1 -43.107789478072775 1.7101110218100075 5.7158968376020471 0.85716730853699208 0 -0.51503806187062418 0.25751903093531209 0 0.42858365426849604 1 I I -0.70710678118654746 0.70710678118654746 0.5 forward I I I I #
loop $-1 $-1 $250 $72 #
coedge $-1 $157 $157 $251 $252 reversed $98 $-1 #
face $-1 $253 $254 $56 $-1 $255 reversed single #
loop $-1 $-1 $256 $100 #
plane-surface $-1 1.2479394086994944e-006 -6.4145843547081984 84.242598229031074 0.86602541151947299 0 0.49999998660252726 0.49999998660252726 0 -0.86602541151947299 forward_v I I I I #
coedge $-1 $257 $258 $259 $260 reversed $101 $-1 #
face $-1 $-1 $261 $57 $-1 $262 forward single #
loop $-1 $263 $264 $103 #
cone-surface $-1 43.325786715684941 -8.2781644988855767 5.7825032055553596 -0.86602541151947299 0 -0.49999998660252726 0.12499999665063181 0 -0.21650635287986825 1 I I -0.70710678118654746 0.70710678118654746 0.25 forward I I I I #
loop $-1 $-1 $265 $74 #
coedge $-1 $166 $166 $266 $267 reversed $104 $-1 #
face $-1 $-1 $268 $58 $-1 $269 forward single #
loop $-1 $270 $271 $106 #
cone-surface $-1 43.325786715684941 -6.4145843547082002 5.7825032055553596 -0.86602541151947299 0 -0.49999998660252726 0.12499999665063181 0 -0.21650635287986825 1 I I -0.70710678118654746 0.70710678118654746 0.25 forward I I I I #
loop $-1 $-1 $272 $75 #
coedge $-1 $171 $171 $273 $274 reversed $107 $-1 #
face $-1 $-1 $275 $59 $-1 $276 forward single #
loop $-1 $277 $278 $109 #
cone-surface $-1 43.325786715684941 -4.5510042105308237 5.7825032055553596 -0.86602541151947299 0 -0.49999998660252726 0.12499999665063181 0 -0.21650635287986825 1 I I -0.70710678118654746 0.70710678118654746 0.25 forward I I I I #
loop $-1 $-1 $279 $76 #
coedge $-1 $176 $176 $280 $281 reversed $110 $-1 #
face $-1 $282 $283 $60 $-1 $284 reversed single #
loop $-1 $-1 $285 $112 #
plane-surface $-1 1.2479394086994944e-006 4.2822748483378845 84.242598229031074 0.86602541151947299 0 0.49999998660252726 0.49999998660252726 0 -0.86602541151947299 forward_v I I I I #
coedge $-1 $286 $287 $288 $289 reversed $113 $-1 #
face $-1 $-1 $290 $61 $-1 $291 forward single #
loop $-1 $292 $293 $115 #
cone-surface $-1 43.325786715684941 2.418694704160508 5.7825032055553596 -0.86602541151947299 0 -0.49999998660252726 0.12499999665063181 0 -0.21650635287986825 1 I I -0.70710678118654746 0.70710678118654746 0.25 forward I I I I #
loop $-1 $-1 $294 $78 #
coedge $-1 $185 $185 $295 $296 reversed $116 $-1 #
face $-1 $-1 $297 $62 $-1 $298 forward single #
loop $-1 $299 $300 $118 #
cone-surface $-1 43.325786715684941 4.2822748483378845 5.7825032055553596 -0.86602541151947299 0 -0.49999998660252726 0.12499999665063181 0 -0.21650635287986825 1 I I -0.70710678118654746 0.70710678118654746 0.25 forward I I I I #
loop $-1 $-1 $301 $79 #
coedge $-1 $190 $190 $302 $303 reversed $119 $-1 #
face $-1 $-1 $304 $63 $-1 $305 forward single #
loop $-1 $306 $307 $121 #
cone-surface $-1 43.325786715684941 6.145854992515261 5.7825032055553596 -0.86602541151947299 0 -0.49999998660252726 0.12499999665063181 0 -0.21650635287986825 1 I I -0.70710678118654746 0.70710678118654746 0.25 forward I I I I #
loop $-1 $-1 $308 $80 #
coedge $-1 $195 $195 $309 $310 reversed $122 $-1 #
face $-1 $311 $312 $64 $-1 $313 reversed single #
loop $-1 $-1 $314 $124 #
plane-surface $-1 1.2479394086994944e-006 14.979134051383966 84.242598229031074 0.86602541151947299 0 0.49999998660252726 0.49999998660252726 0 -0.86602541151947299 forward_v I I I I #
coedge $-1 $315 $316 $317 $318 reversed $125 $-1 #
face $-1 $-1 $319 $65 $-1 $320 forward single #
loop $-1 $321 $322 $127 #
cone-surface $-1 43.325786715684941 13.115553907206589 5.7825032055553596 -0.86602541151947299 0 -0.49999998660252726 0.12499999665063181 0 -0.21650635287986825 1 I I -0.70710678118654746 0.70710678118654746 0.25 forward I I I I #
loop $-1 $-1 $323 $82 #
coedge $-1 $204 $204 $324 $325 reversed $128 $-1 #
face $-1 $-1 $326 $66 $-1 $327 forward single #
loop $-1 $328 $329 $130 #
cone-surface $-1 43.325786715684941 14.979134051383966 5.7825032055553596 -0.86602541151947299 0 -0.49999998660252726 0.12499999665063181 0 -0.21650635287986825 1 I I -0.70710678118654746 0.70710678118654746 0.25 forward I I I I #
loop $-1 $-1 $330 $83 #
coedge $-1 $209 $209 $331 $332 reversed $131 $-1 #
face $-1 $-1 $333 $67 $-1 $334 forward single #
loop $-1 $335 $336 $133 #
cone-surface $-1 43.325786715684941 16.842714195561342 5.7825032055553596 -0.86602541151947299 0 -0.49999998660252726 0.12499999665063181 0 -0.21650635287986825 1 I I -0.70710678118654746 0.70710678118654746 0.25 forward I I I I #
loop $-1 $-1 $337 $84 #
coedge $-1 $214 $214 $338 $339 reversed $134 $-1 #
face $-1 $340 $341 $51 $-1 $342 reversed single #
loop $-1 $-1 $343 $136 #
plane-surface $-1 0 -20.425078240691221 0 0 1 0 0 0 1 forward_v I I I I #
coedge $-1 $344 $345 $346 $347 forward $137 $-1 #
coedge $-1 $348 $139 $349 $350 forward $86 $-1 #
coedge $-1 $139 $348 $351 $352 forward $86 $-1 #
coedge $-1 $353 $354 $139 $222 reversed $355 $-1 #
edge $-1 $356 -20.425078240691221 $357 20.425078240691221 $221 $358 forward 7 unknown #
face $-1 $359 $360 $52 $-1 $361 reversed single #
loop $-1 $-1 $362 $140 #
plane-surface $-1 -46.573686941129793 0 0 1 0 0 0 0 -1 forward_v I I I I #
coedge $-1 $363 $364 $365 $366 forward $141 $-1 #
coedge $-1 $365 $143 $362 $367 reversed $89 $-1 #
coedge $-1 $143 $365 $368 $369 reversed $89 $-1 #
coedge $-1 $370 $371 $143 $230 reversed $360 $-1 #
edge $-1 $372 -46.573686941129793 $373 46.573686941129793 $229 $374 forward 7 unknown #
face $-1 $375 $376 $53 $-1 $377 forward single #
loop $-1 $-1 $378 $144 #
plane-surface $-1 -126.41657070907516 4.4208866093743282 51.724057623183363 0 -1 0 0.85716730853699208 0 -0.51503806187062418 forward_v I I I I #
coedge $-1 $379 $380 $381 $382 reversed $145 $-1 #
coedge $-1 $236 $147 $383 $384 reversed $92 $-1 #
coedge $-1 $147 $235 $379 $385 reversed $92 $-1 #
coedge $-1 $381 $386 $147 $238 forward $376 $-1 #
edge $-1 $387 16.634598413407787 $388 20.209479527820733 $237 $389 forward 7 unknown #
loop $-1 $-1 $244 $148 #
plane-surface $-1 -46.573686941129793 -0.32297066886322767 3.7496147105259894 -0.85716730853699208 0 0.51503806187062418 0.51503806187062418 0 0.85716730853699208 forward_v I I I I #
loop $-1 $-1 $390 $94 #
coedge $-1 $242 $242 $243 $391 reversed $149 $-1 #
coedge $-1 $243 $243 $242 $391 forward $151 $-1 #
coedge $-1 $244 $244 $152 $245 forward $239 $-1 #
edge $-1 $392 0 $392 6.2831853071796004 $244 $393 forward 7 unknown #
loop $-1 $-1 $251 $153 #
plane-surface $-1 -46.573686941129793 -0.32297066886322767 3.7496147105259894 -0.85716730853699208 0 0.51503806187062418 0.51503806187062418 0 0.85716730853699208 forward_v I I I I #
loop $-1 $-1 $394 $97 #
coedge $-1 $249 $249 $250 $395 reversed $154 $-1 #
coedge $-1 $250 $250 $249 $395 forward $156 $-1 #
coedge $-1 $251 $251 $157 $252 forward $246 $-1 #
edge $-1 $396 0 $396 6.2831853071796004 $251 $397 forward 7 unknown #
face $-1 $398 $399 $56 $-1 $400 reversed single #
loop $-1 $-1 $401 $158 #
plane-surface $-1 80.667994046281478 -9.5205512616704944 130.81628392222146 0 1 0 0.86602541151947299 0 0.49999998660252726 forward_v I I I I #
coedge $-1 $402 $403 $404 $405 reversed $159 $-1 #
coedge $-1 $258 $161 $406 $407 reversed $101 $-1 #
coedge $-1 $161 $257 $402 $408 reversed $101 $-1 #
coedge $-1 $404 $409 $161 $260 forward $410 $-1 #
edge $-1 $411 -6.2396899179890539 $412 -2.7036443644568777 $259 $413 forward 7 unknown #
loop $-1 $-1 $266 $162 #
plane-surface $-1 1.2479394086994944e-006 -6.4145843547081984 84.242598229031074 0.86602541151947299 0 0.49999998660252726 0.49999998660252726 0 -0.86602541151947299 forward_v I I I I #
loop $-1 $-1 $414 $103 #
coedge $-1 $264 $264 $265 $415 reversed $163 $-1 #
coedge $-1 $265 $265 $264 $415 forward $165 $-1 #
coedge $-1 $266 $266 $166 $267 forward $261 $-1 #
edge $-1 $416 0 $416 6.2831853071796004 $266 $417 forward 7 unknown #
loop $-1 $-1 $273 $167 #
plane-surface $-1 1.2479394086994944e-006 -6.4145843547081984 84.242598229031074 0.86602541151947299 0 0.49999998660252726 0.49999998660252726 0 -0.86602541151947299 forward_v I I I I #
loop $-1 $-1 $418 $106 #
coedge $-1 $271 $271 $272 $419 reversed $168 $-1 #
coedge $-1 $272 $272 $271 $419 forward $170 $-1 #
coedge $-1 $273 $273 $171 $274 forward $268 $-1 #
edge $-1 $420 0 $420 6.2831853071796004 $273 $421 forward 7 unknown #
loop $-1 $-1 $280 $172 #
plane-surface $-1 1.2479394086994944e-006 -6.4145843547081984 84.242598229031074 0.86602541151947299 0 0.49999998660252726 0.49999998660252726 0 -0.86602541151947299 forward_v I I I I #
loop $-1 $-1 $422 $109 #
coedge $-1 $278 $278 $279 $423 reversed $173 $-1 #
coedge $-1 $279 $279 $278 $423 forward $175 $-1 #
coedge $-1 $280 $280 $176 $281 forward $275 $-1 #
edge $-1 $424 0 $424 6.2831853071796004 $280 $425 forward 7 unknown #
face $-1 $426 $427 $60 $-1 $428 reversed single #
loop $-1 $-1 $429 $177 #
plane-surface $-1 80.667994046281478 1.1763079413755886 130.81628392222146 0 1 0 0.86602541151947299 0 0.49999998660252726 forward_v I I I I #
coedge $-1 $430 $431 $432 $433 reversed $178 $-1 #
coedge $-1 $287 $180 $434 $435 reversed $113 $-1 #
coedge $-1 $180 $286 $430 $436 reversed $113 $-1 #
coedge $-1 $432 $437 $180 $289 forward $438 $-1 #
edge $-1 $439 -6.2396899179890539 $440 -2.7036443644568777 $288 $441 forward 7 unknown #
loop $-1 $-1 $295 $181 #
plane-surface $-1 1.2479394086994944e-006 4.2822748483378845 84.242598229031074 0.86602541151947299 0 0.49999998660252726 0.49999998660252726 0 -0.86602541151947299 forward_v I I I I #
loop $-1 $-1 $442 $115 #
coedge $-1 $293 $293 $294 $443 reversed $182 $-1 #
coedge $-1 $294 $294 $293 $443 forward $184 $-1 #
coedge $-1 $295 $295 $185 $296 forward $290 $-1 #
edge $-1 $444 0 $444 6.2831853071796004 $295 $445 forward 7 unknown #
loop $-1 $-1 $302 $186 #
plane-surface $-1 1.2479394086994944e-006 4.2822748483378845 84.242598229031074 0.86602541151947299 0 0.49999998660252726 0.49999998660252726 0 -0.86602541151947299 forward_v I I I I #
loop $-1 $-1 $446 $118 #
coedge $-1 $300 $300 $301 $447 reversed $187 $-1 #
coedge $-1 $301 $301 $300 $447 forward $189 $-1 #
coedge $-1 $302 $302 $190 $303 forward $297 $-1 #
edge $-1 $448 0 $448 6.2831853071796004 $302 $449 forward 7 unknown #
loop $-1 $-1 $309 $191 #
plane-surface $-1 1.2479394086994944e-006 4.2822748483378845 84.242598229031074 0.86602541151947299 0 0.49999998660252726 0.49999998660252726 0 -0.86602541151947299 forward_v I I I I #
loop $-1 $-1 $450 $121 #
coedge $-1 $307 $307 $308 $451 reversed $192 $-1 #
coedge $-1 $308 $308 $307 $451 forward $194 $-1 #
coedge $-1 $309 $309 $195 $310 forward $304 $-1 #
edge $-1 $452 0 $452 6.2831853071796004 $309 $453 forward 7 unknown #
face $-1 $454 $455 $64 $-1 $456 reversed single #
loop $-1 $-1 $457 $196 #
plane-surface $-1 80.667994046281478 11.87316714442167 130.81628392222146 0 1 0 0.86602541151947299 0 0.49999998660252726 forward_v I I I I #
coedge $-1 $458 $459 $460 $461 reversed $197 $-1 #
coedge $-1 $316 $199 $462 $463 reversed $125 $-1 #
coedge $-1 $199 $315 $458 $464 reversed $125 $-1 #
coedge $-1 $460 $465 $199 $318 forward $466 $-1 #
edge $-1 $467 -6.2396899179890539 $468 -2.7036443644568777 $317 $469 forward 7 unknown #
loop $-1 $-1 $324 $200 #
plane-surface $-1 1.2479394086994944e-006 14.979134051383966 84.242598229031074 0.86602541151947299 0 0.49999998660252726 0.49999998660252726 0 -0.86602541151947299 forward_v I I I I #
loop $-1 $-1 $470 $127 #
coedge $-1 $322 $322 $323 $471 reversed $201 $-1 #
coedge $-1 $323 $323 $322 $471 forward $203 $-1 #
coedge $-1 $324 $324 $204 $325 forward $319 $-1 #
edge $-1 $472 0 $472 6.2831853071796004 $324 $473 forward 7 unknown #
loop $-1 $-1 $331 $205 #
plane-surface $-1 1.2479394086994944e-006 14.979134051383966 84.242598229031074 0.86602541151947299 0 0.49999998660252726 0.49999998660252726 0 -0.86602541151947299 forward_v I I I I #
loop $-1 $-1 $474 $130 #
coedge $-1 $329 $329 $330 $475 reversed $206 $-1 #
coedge $-1 $330 $330 $329 $475 forward $208 $-1 #
coedge $-1 $331 $331 $209 $332 forward $326 $-1 #
edge $-1 $476 0 $476 6.2831853071796004 $331 $477 forward 7 unknown #
loop $-1 $-1 $338 $210 #
plane-surface $-1 1.2479394086994944e-006 14.979134051383966 84.242598229031074 0.86602541151947299 0 0.49999998660252726 0.49999998660252726 0 -0.86602541151947299 forward_v I I I I #
loop $-1 $-1 $478 $133 #
coedge $-1 $336 $336 $337 $479 reversed $211 $-1 #
coedge $-1 $337 $337 $336 $479 forward $213 $-1 #
coedge $-1 $338 $338 $214 $339 forward $333 $-1 #
edge $-1 $480 0 $480 6.2831853071796004 $338 $481 forward 7 unknown #
face $-1 $482 $483 $51 $-1 $484 reversed single #
loop $-1 $-1 $485 $215 #
plane-surface $-1 -46.573686941129793 0 0 1 0 0 0 0 -1 forward_v I I I I #
coedge $-1 $486 $351 $487 $488 forward $216 $-1 #
coedge $-1 $489 $218 $486 $490 forward $137 $-1 #
coedge $-1 $218 $489 $491 $492 forward $137 $-1 #
coedge $-1 $354 $353 $218 $347 reversed $355 $-1 #
edge $-1 $493 -20.425078240691221 $494 20.425078240691221 $346 $495 forward 7 unknown #
coedge $-1 $220 $219 $496 $497 forward $86 $-1 #
coedge $-1 $498 $499 $219 $350 reversed $483 $-1 #
edge $-1 $357 -46.573686941129793 $500 46.573686941129793 $349 $501 forward 7 unknown #
coedge $-1 $343 $502 $220 $352 reversed $216 $-1 #
edge $-1 $503 -46.573686941129793 $356 46.573686941129793 $351 $504 forward 7 unknown #
coedge $-1 $346 $221 $502 $505 forward $355 $-1 #
coedge $-1 $221 $346 $498 $506 reversed $355 $-1 #
loop $-1 $-1 $353 $482 #
vertex $-1 $222 $507 #
vertex $-1 $222 $508 #
straight-curve $-1 46.573686941129793 0 9.6992162060962368 0 1 0 I I #
face $-1 $509 $510 $52 $-1 $511 reversed single #
loop $-1 $-1 $370 $223 #
plane-surface $-1 0 -24.707353089029105 6.6992162060962368 0 0 1 1 0 0 forward_v I I I I #
coedge $-1 $512 $513 $227 $367 forward $224 $-1 #
coedge $-1 $514 $226 $513 $515 forward $141 $-1 #
coedge $-1 $226 $514 $516 $517 forward $141 $-1 #
coedge $-1 $228 $227 $226 $366 reversed $89 $-1 #
edge $-1 $518 -46.573686941129793 $519 46.573686941129793 $226 $520 forward 7 unknown #
edge $-1 $519 -9.6992162060962368 $373 -6.6992162060962368 $362 $521 forward 7 unknown #
coedge $-1 $516 $522 $228 $369 forward $523 $-1 #
edge $-1 $372 6.6992162060962368 $518 9.6992162060962368 $368 $524 forward 7 unknown #
coedge $-1 $525 $229 $522 $526 forward $360 $-1 #
coedge $-1 $229 $525 $512 $527 forward $360 $-1 #
vertex $-1 $369 $528 #
vertex $-1 $367 $529 #
straight-curve $-1 0 -20.425078240691221 6.6992162060962368 -1 0 0 I I #
face $-1 $-1 $530 $53 $-1 $531 reversed single #
loop $-1 $-1 $237 $231 #
plane-surface $-1 0 0 9.6992162060962368 0 0 1 1 0 0 forward_v I I I I #
coedge $-1 $532 $533 $534 $535 reversed $232 $-1 #
coedge $-1 $536 $234 $236 $385 forward $145 $-1 #
coedge $-1 $234 $536 $532 $537 forward $145 $-1 #
coedge $-1 $534 $237 $234 $382 forward $376 $-1 #
edge $-1 $388 -4.9053426126691697 $538 4.582371943805942 $381 $539 forward 7 unknown #
coedge $-1 $540 $541 $235 $384 forward $530 $-1 #
edge $-1 $542 -22.112414101065692 $387 -16.162812605495446 $383 $543 forward 7 unknown #
edge $-1 $388 -6.9410037414107553 $542 0 $236 $544 forward 7 unknown #
coedge $-1 $237 $534 $540 $545 forward $376 $-1 #
vertex $-1 $384 $546 #
vertex $-1 $238 $547 #
straight-curve $-1 -63.20828535453758 -5.0668279471007835 9.699216206096235 1 0 0 I I #
coedge $-1 $390 $390 $-1 $548 reversed $241 $-1 #
edge $-1 $549 0 $549 6.2831853071796004 $242 $550 forward 7 unknown #
vertex $-1 $245 $551 #
ellipse-curve $-1 -44.78624638392332 -2.3560523595364664 6.724415458311114 -0.85716730853699208 0 0.51503806187062418 0.51503806187062418 0 0.85716730853699208 1 I I #
coedge $-1 $394 $394 $-1 $552 reversed $248 $-1 #
edge $-1 $553 0 $553 6.2831853071796004 $249 $554 forward 7 unknown #
vertex $-1 $252 $555 #
ellipse-curve $-1 -44.78624638392332 1.7101110218100075 6.724415458311114 -0.85716730853699208 0 0.51503806187062418 0.51503806187062418 0 0.85716730853699208 1 I I #
face $-1 $-1 $410 $56 $-1 $556 forward single #
loop $-1 $-1 $557 $253 #
plane-surface $-1 46.573686941129793 0 0 -1 0 0 0 0 1 forward_v I I I I #
coedge $-1 $558 $559 $560 $561 reversed $254 $-1 #
coedge $-1 $562 $256 $258 $408 forward $159 $-1 #
coedge $-1 $256 $562 $558 $563 forward $159 $-1 #
coedge $-1 $560 $259 $256 $405 forward $410 $-1 #
edge $-1 $412 0.10132527039180328 $564 6.3132590843163952 $404 $565 forward 7 unknown #
coedge $-1 $566 $567 $257 $407 forward $399 $-1 #
edge $-1 $568 -61.833536530421711 $411 -55.708925755014491 $406 $569 forward 7 unknown #
edge $-1 $412 86.075282585698915 $568 93.147373882259572 $258 $570 forward 7 unknown #
coedge $-1 $259 $560 $566 $571 forward $410 $-1 #
loop $-1 $-1 $560 $398 #
vertex $-1 $407 $572 #
vertex $-1 $260 $573 #
straight-curve $-1 40.333997023140739 -3.3086174477459025 9.6992162060962386 -1 0 0 I I #
coedge $-1 $414 $414 $-1 $574 reversed $263 $-1 #
edge $-1 $575 0 $575 6.2831853071796004 $264 $576 forward 7 unknown #
vertex $-1 $267 $577 #
ellipse-curve $-1 44.805664164363698 -8.2781644988855767 6.6369108183926251 0.86602541151947299 0 0.49999998660252726 0.24999999330126363 0 -0.43301270575973649 1 I I #
coedge $-1 $418 $418 $-1 $578 reversed $270 $-1 #
edge $-1 $579 0 $579 6.2831853071796004 $271 $580 forward 7 unknown #
vertex $-1 $274 $581 #
ellipse-curve $-1 44.805664164363698 -6.4145843547082002 6.6369108183926251 0.86602541151947299 0 0.49999998660252726 0.24999999330126363 0 -0.43301270575973649 1 I I #
coedge $-1 $422 $422 $-1 $582 reversed $277 $-1 #
edge $-1 $583 0 $583 6.2831853071796004 $278 $584 forward 7 unknown #
vertex $-1 $281 $585 #
ellipse-curve $-1 44.805664164363698 -4.5510042105308237 6.6369108183926251 0.86602541151947299 0 0.49999998660252726 0.24999999330126363 0 -0.43301270575973649 1 I I #
face $-1 $-1 $438 $60 $-1 $586 forward single #
loop $-1 $-1 $587 $282 #
plane-surface $-1 46.573686941129793 0 0 -1 0 0 0 0 1 forward_v I I I I #
coedge $-1 $588 $589 $590 $591 reversed $283 $-1 #
coedge $-1 $592 $285 $287 $436 forward $178 $-1 #
coedge $-1 $285 $592 $588 $593 forward $178 $-1 #
coedge $-1 $590 $288 $285 $433 forward $438 $-1 #
edge $-1 $440 -5.2471043311312382 $594 0.96482948279335368 $432 $595 forward 7 unknown #
coedge $-1 $596 $597 $286 $435 forward $427 $-1 #
edge $-1 $598 -61.833536530421711 $439 -55.708925755014491 $434 $599 forward 7 unknown #
edge $-1 $440 86.075282585698915 $598 93.147373882259572 $287 $600 forward 7 unknown #
coedge $-1 $288 $590 $596 $601 forward $438 $-1 #
loop $-1 $-1 $590 $426 #
vertex $-1 $435 $602 #
vertex $-1 $289 $603 #
straight-curve $-1 40.333997023140739 7.3882417553001805 9.6992162060962386 -1 0 0 I I #
coedge $-1 $442 $442 $-1 $604 reversed $292 $-1 #
edge $-1 $605 0 $605 6.2831853071796004 $293 $606 forward 7 unknown #
vertex $-1 $296 $607 #
ellipse-curve $-1 44.805664164363698 2.418694704160508 6.6369108183926251 0.86602541151947299 0 0.49999998660252726 0.24999999330126363 0 -0.43301270575973649 1 I I #
coedge $-1 $446 $446 $-1 $608 reversed $299 $-1 #
edge $-1 $609 0 $609 6.2831853071796004 $300 $610 forward 7 unknown #
vertex $-1 $303 $611 #
ellipse-curve $-1 44.805664164363698 4.2822748483378845 6.6369108183926251 0.86602541151947299 0 0.49999998660252726 0.24999999330126363 0 -0.43301270575973649 1 I I #
coedge $-1 $450 $450 $-1 $612 reversed $306 $-1 #
edge $-1 $613 0 $613 6.2831853071796004 $307 $614 forward 7 unknown #
vertex $-1 $310 $615 #
ellipse-curve $-1 44.805664164363698 6.145854992515261 6.6369108183926251 0.86602541151947299 0 0.49999998660252726 0.24999999330126363 0 -0.43301270575973649 1 I I #
face $-1 $-1 $466 $64 $-1 $616 forward single #
loop $-1 $-1 $617 $311 #
plane-surface $-1 46.573686941129793 0 0 -1 0 0 0 0 1 forward_v I I I I #
coedge $-1 $618 $619 $620 $621 reversed $312 $-1 #
coedge $-1 $622 $314 $316 $464 forward $197 $-1 #
coedge $-1 $314 $622 $618 $623 forward $197 $-1 #
coedge $-1 $620 $317 $314 $461 forward $466 $-1 #
edge $-1 $468 -10.595533932654277 $624 -4.3836001187296869 $460 $625 forward 7 unknown #
coedge $-1 $626 $627 $315 $463 forward $455 $-1 #
edge $-1 $628 -61.833536530421711 $467 -55.708925755014491 $462 $629 forward 7 unknown #
edge $-1 $468 86.075282585698915 $628 93.147373882259572 $316 $630 forward 7 unknown #
coedge $-1 $317 $620 $626 $631 forward $466 $-1 #
loop $-1 $-1 $620 $454 #
vertex $-1 $463 $632 #
vertex $-1 $318 $633 #
straight-curve $-1 40.333997023140739 18.08510095834626 9.6992162060962386 -1 0 0 I I #
coedge $-1 $470 $470 $-1 $634 reversed $321 $-1 #
edge $-1 $635 0 $635 6.2831853071796004 $322 $636 forward 7 unknown #
vertex $-1 $325 $637 #
ellipse-curve $-1 44.805664164363698 13.115553907206589 6.6369108183926251 0.86602541151947299 0 0.49999998660252726 0.24999999330126363 0 -0.43301270575973649 1 I I #
coedge $-1 $474 $474 $-1 $638 reversed $328 $-1 #
edge $-1 $639 0 $639 6.2831853071796004 $329 $640 forward 7 unknown #
vertex $-1 $332 $641 #
ellipse-curve $-1 44.805664164363698 14.979134051383966 6.6369108183926251 0.86602541151947299 0 0.49999998660252726 0.24999999330126363 0 -0.43301270575973649 1 I I #
coedge $-1 $478 $478 $-1 $642 reversed $335 $-1 #
edge $-1 $643 0 $643 6.2831853071796004 $336 $644 forward 7 unknown #
vertex $-1 $339 $645 #
ellipse-curve $-1 44.805664164363698 16.842714195561342 6.6369108183926251 0.86602541151947299 0 0.49999998660252726 0.24999999330126363 0 -0.43301270575973649 1 I I #
face $-1 $-1 $355 $51 $-1 $646 reversed single #
loop $-1 $-1 $498 $340 #
plane-surface $-1 0 20.425078240691221 0 0 -1 0 0 0 -1 forward_v I I I I #
coedge $-1 $647 $496 $499 $648 forward $341 $-1 #
coedge $-1 $502 $343 $344 $490 reversed $216 $-1 #
coedge $-1 $496 $647 $343 $488 reversed $341 $-1 #
edge $-1 $503 -9.6992162060962368 $649 9.6992162060962368 $487 $650 forward 7 unknown #
coedge $-1 $345 $344 $647 $651 forward $137 $-1 #
edge $-1 $494 -46.573686941129793 $649 46.573686941129793 $486 $652 forward 7 unknown #
coedge $-1 $499 $498 $345 $492 reversed $483 $-1 #
edge $-1 $653 -46.573686941129793 $493 46.573686941129793 $491 $654 forward 7 unknown #
vertex $-1 $347 $655 #
vertex $-1 $505 $656 #
straight-curve $-1 46.573686941129793 0 -9.6992162060962368 0 -1 0 I I #
coedge $-1 $485 $487 $348 $497 reversed $341 $-1 #
edge $-1 $500 -20.425078240691221 $503 20.425078240691221 $496 $657 forward 7 unknown #
coedge $-1 $491 $349 $354 $506 forward $483 $-1 #
coedge $-1 $349 $491 $485 $648 reversed $483 $-1 #
vertex $-1 $350 $658 #
straight-curve $-1 0 20.425078240691221 9.6992162060962368 -1 0 0 I I #
coedge $-1 $351 $486 $353 $505 reversed $216 $-1 #
vertex $-1 $497 $659 #
straight-curve $-1 0 -20.425078240691221 9.6992162060962368 1 0 0 I I #
edge $-1 $356 -9.6992162060962368 $494 9.6992162060962368 $353 $660 forward 7 unknown #
edge $-1 $357 -9.6992162060962368 $493 9.6992162060962368 $354 $661 forward 7 unknown #
point $-1 46.573686941129793 -20.425078240691221 9.6992162060962368 #
point $-1 46.573686941129793 20.425078240691221 9.6992162060962368 #
face $-1 $-1 $523 $52 $-1 $662 reversed single #
loop $-1 $-1 $663 $359 #
plane-surface $-1 0 -28.98962793736699 8.1992162060962368 0 1 0 0 0 1 forward_v I I I I #
coedge $-1 $664 $362 $371 $527 reversed $224 $-1 #
coedge $-1 $362 $664 $363 $515 reversed $224 $-1 #
coedge $-1 $364 $363 $665 $666 forward $141 $-1 #
edge $-1 $519 20.425078240691221 $667 28.98962793736699 $513 $668 forward 7 unknown #
coedge $-1 $669 $368 $364 $517 reversed $523 $-1 #
edge $-1 $670 -28.98962793736699 $518 -20.425078240691221 $516 $671 forward 7 unknown #
vertex $-1 $369 $672 #
vertex $-1 $515 $673 #
straight-curve $-1 0 -20.425078240691221 9.6992162060962368 -1 0 0 I I #
straight-curve $-1 -46.573686941129793 -20.425078240691221 0 0 0 -1 I I #
coedge $-1 $368 $669 $370 $526 reversed $523 $-1 #
loop $-1 $-1 $368 $509 #
straight-curve $-1 46.573686941129793 -20.425078240691221 0 0 0 1 I I #
coedge $-1 $371 $370 $674 $675 forward $360 $-1 #
edge $-1 $372 -4.2822748483378845 $676 4.2822748483378845 $522 $677 forward 7 unknown #
edge $-1 $678 -4.2822748483378845 $373 4.2822748483378845 $512 $679 forward 7 unknown #
point $-1 46.573686941129793 -20.425078240691221 6.6992162060962368 #
point $-1 -46.573686941129793 -20.425078240691221 6.6992162060962368 #
loop $-1 $-1 $383 $375 #
plane-surface $-1 -46.573686941129793 0 0 1 0 0 0 0 -1 forward_v I I I I #
coedge $-1 $533 $378 $380 $537 reversed $232 $-1 #
coedge $-1 $378 $532 $680 $681 reversed $232 $-1 #
coedge $-1 $386 $381 $378 $535 forward $376 $-1 #
edge $-1 $538 -20.209479527820733 $682 -16.634598413407787 $534 $683 forward 7 unknown #
coedge $-1 $380 $379 $541 $684 reversed $145 $-1 #
edge $-1 $685 0 $538 6.9410037414107553 $532 $686 forward 7 unknown #
vertex $-1 $382 $687 #
straight-curve $-1 -42.998805826716847 -0.16148533443161384 9.6992162060962368 0 1 0 I I #
coedge $-1 $680 $383 $386 $545 reversed $530 $-1 #
coedge $-1 $383 $680 $536 $684 forward $530 $-1 #
vertex $-1 $384 $688 #
straight-curve $-1 -46.573686941129793 -5.0668279471007835 25.862028811591681 0 0 1 I I #
straight-curve $-1 -46.573686941129793 -5.0668279471007835 3.7496147105259894 -0.51503806187062418 0 -0.85716730853699208 I I #
edge $-1 $682 -4.4208866093743282 $387 5.0668279471007835 $540 $689 forward 7 unknown #
point $-1 -46.573686941129793 -5.0668279471007835 9.6992162060962368 #
point $-1 -42.998805826716847 -5.0668279471007835 9.6992162060962368 #
edge $-1 $690 1 $690 0 $390 $-1 forward 7 unknown #
vertex $-1 $391 $691 #
ellipse-curve $-1 -43.536373132341268 -2.3560523595364664 5.9734158685373595 -0.85716730853699208 0 0.51503806187062418 0.51503806187062418 0 0.85716730853699208 1 I I #
point $-1 -44.271208322052694 -2.3560523595364664 7.5815827668481033 #
edge $-1 $692 1 $692 0 $394 $-1 forward 7 unknown #
vertex $-1 $395 $693 #
ellipse-curve $-1 -43.536373132341268 1.7101110218100075 5.9734158685373595 -0.85716730853699208 0 0.51503806187062418 0.51503806187062418 0 0.85716730853699208 1 I I #
point $-1 -44.271208322052694 1.7101110218100075 7.5815827668481033 #
plane-surface $-1 0 0 9.6992162060962368 0 0 1 1 0 0 forward_v I I I I #
coedge $-1 $567 $566 $559 $694 forward $399 $-1 #
coedge $-1 $559 $401 $403 $563 reversed $254 $-1 #
coedge $-1 $401 $558 $557 $694 reversed $254 $-1 #
coedge $-1 $409 $404 $401 $561 forward $410 $-1 #
edge $-1 $564 2.7036443644568777 $695 6.2396899179890539 $560 $696 forward 7 unknown #
coedge $-1 $403 $402 $567 $697 reversed $159 $-1 #
edge $-1 $698 -93.147373882259572 $564 -86.075282585698915 $558 $699 forward 7 unknown #
vertex $-1 $405 $700 #
straight-curve $-1 43.037641387597617 -3.2072921773540992 9.6992162060962386 0 -1 0 I I #
coedge $-1 $557 $406 $409 $571 reversed $399 $-1 #
coedge $-1 $406 $557 $562 $697 forward $399 $-1 #
vertex $-1 $407 $701 #
straight-curve $-1 46.573686941129793 -3.3086174477459025 65.408141961110729 0 0 1 I I #
straight-curve $-1 1.2479394086994944e-006 -3.3086174477459025 84.242598229031074 0.49999998660252726 0 -0.86602541151947299 I I #
edge $-1 $695 -9.5205512616704944 $411 -3.3086174477459025 $566 $702 forward 7 unknown #
point $-1 46.573686941129793 -3.3086174477459025 9.6992162060962368 #
point $-1 43.037641387597617 -3.3086174477459025 9.6992162060962386 #
edge $-1 $703 1 $703 0 $414 $-1 forward 7 unknown #
vertex $-1 $415 $704 #
ellipse-curve $-1 43.54229306856481 -8.2781644988855767 5.9075032022059917 0.86602541151947299 0 0.49999998660252726 0.24999999330126363 0 -0.43301270575973649 1 I I #
point $-1 45.055664157664964 -8.2781644988855767 6.2038981126328885 #
edge $-1 $705 1 $705 0 $418 $-1 forward 7 unknown #
vertex $-1 $419 $706 #
ellipse-curve $-1 43.54229306856481 -6.4145843547082002 5.9075032022059917 0.86602541151947299 0 0.49999998660252726 0.24999999330126363 0 -0.43301270575973649 1 I I #
point $-1 45.055664157664964 -6.4145843547082002 6.2038981126328885 #
edge $-1 $707 1 $707 0 $422 $-1 forward 7 unknown #
vertex $-1 $423 $708 #
ellipse-curve $-1 43.54229306856481 -4.5510042105308237 5.9075032022059917 0.86602541151947299 0 0.49999998660252726 0.24999999330126363 0 -0.43301270575973649 1 I I #
point $-1 45.055664157664964 -4.5510042105308237 6.2038981126328885 #
plane-surface $-1 0 0 9.6992162060962368 0 0 1 1 0 0 forward_v I I I I #
coedge $-1 $597 $596 $589 $709 forward $427 $-1 #
coedge $-1 $589 $429 $431 $593 reversed $283 $-1 #
coedge $-1 $429 $588 $587 $709 reversed $283 $-1 #
coedge $-1 $437 $432 $429 $591 forward $438 $-1 #
edge $-1 $594 2.7036443644568777 $710 6.2396899179890539 $590 $711 forward 7 unknown #
coedge $-1 $431 $430 $597 $712 reversed $178 $-1 #
edge $-1 $713 -93.147373882259572 $594 -86.075282585698915 $588 $714 forward 7 unknown #
vertex $-1 $433 $715 #
straight-curve $-1 43.037641387597617 2.1411374241689423 9.6992162060962386 0 -1 0 I I #
coedge $-1 $587 $434 $437 $601 reversed $427 $-1 #
coedge $-1 $434 $587 $592 $712 forward $427 $-1 #
vertex $-1 $435 $716 #
straight-curve $-1 46.573686941129793 7.3882417553001805 65.408141961110729 0 0 1 I I #
straight-curve $-1 1.2479394086994944e-006 7.3882417553001805 84.242598229031074 0.49999998660252726 0 -0.86602541151947299 I I #
edge $-1 $710 1.1763079413755886 $439 7.3882417553001805 $596 $717 forward 7 unknown #
point $-1 46.573686941129793 7.3882417553001805 9.6992162060962368 #
point $-1 43.037641387597617 7.3882417553001805 9.6992162060962386 #
edge $-1 $718 1 $718 0 $442 $-1 forward 7 unknown #
vertex $-1 $443 $719 #
ellipse-curve $-1 43.54229306856481 2.418694704160508 5.9075032022059917 0.86602541151947299 0 0.49999998660252726 0.24999999330126363 0 -0.43301270575973649 1 I I #
point $-1 45.055664157664964 2.418694704160508 6.2038981126328885 #
edge $-1 $720 1 $720 0 $446 $-1 forward 7 unknown #
vertex $-1 $447 $721 #
ellipse-curve $-1 43.54229306856481 4.2822748483378845 5.9075032022059917 0.86602541151947299 0 0.49999998660252726 0.24999999330126363 0 -0.43301270575973649 1 I I #
point $-1 45.055664157664964 4.2822748483378845 6.2038981126328885 #
edge $-1 $722 1 $722 0 $450 $-1 forward 7 unknown #
vertex $-1 $451 $723 #
ellipse-curve $-1 43.54229306856481 6.145854992515261 5.9075032022059917 0.86602541151947299 0 0.49999998660252726 0.24999999330126363 0 -0.43301270575973649 1 I I #
point $-1 45.055664157664964 6.145854992515261 6.2038981126328885 #
plane-surface $-1 0 0 9.6992162060962368 0 0 1 1 0 0 forward_v I I I I #
coedge $-1 $627 $626 $619 $724 forward $455 $-1 #
coedge $-1 $619 $457 $459 $623 reversed $312 $-1 #
coedge $-1 $457 $618 $617 $724 reversed $312 $-1 #
coedge $-1 $465 $460 $457 $621 forward $466 $-1 #
edge $-1 $624 2.7036443644568777 $725 6.2396899179890539 $620 $726 forward 7 unknown #
coedge $-1 $459 $458 $627 $727 reversed $197 $-1 #
edge $-1 $728 -93.147373882259572 $624 -86.075282585698915 $618 $729 forward 7 unknown #
vertex $-1 $461 $730 #
straight-curve $-1 43.037641387597617 7.4895670256919828 9.6992162060962386 0 -1 0 I I #
coedge $-1 $617 $462 $465 $631 reversed $455 $-1 #
coedge $-1 $462 $617 $622 $727 forward $455 $-1 #
vertex $-1 $463 $731 #
straight-curve $-1 46.573686941129793 18.08510095834626 65.408141961110729 0 0 1 I I #
straight-curve $-1 1.2479394086994944e-006 18.08510095834626 84.242598229031074 0.49999998660252726 0 -0.86602541151947299 I I #
edge $-1 $725 11.87316714442167 $467 18.08510095834626 $626 $732 forward 7 unknown #
point $-1 46.573686941129793 18.08510095834626 9.6992162060962368 #
point $-1 43.037641387597617 18.08510095834626 9.6992162060962386 #
edge $-1 $733 1 $733 0 $470 $-1 forward 7 unknown #
vertex $-1 $471 $734 #
ellipse-curve $-1 43.54229306856481 13.115553907206589 5.9075032022059917 0.86602541151947299 0 0.49999998660252726 0.24999999330126363 0 -0.43301270575973649 1 I I #
point $-1 45.055664157664964 13.115553907206589 6.2038981126328885 #
edge $-1 $735 1 $735 0 $474 $-1 forward 7 unknown #
vertex $-1 $475 $736 #
ellipse-curve $-1 43.54229306856481 14.979134051383966 5.9075032022059917 0.86602541151947299 0 0.49999998660252726 0.24999999330126363 0 -0.43301270575973649 1 I I #
point $-1 45.055664157664964 14.979134051383966 6.2038981126328885 #
edge $-1 $737 1 $737 0 $478 $-1 forward 7 unknown #
vertex $-1 $479 $738 #
ellipse-curve $-1 43.54229306856481 16.842714195561342 5.9075032022059917 0.86602541151947299 0 0.49999998660252726 0.24999999330126363 0 -0.43301270575973649 1 I I #
point $-1 45.055664157664964 16.842714195561342 6.2038981126328885 #
plane-surface $-1 46.573686941129793 0 0 -1 0 0 0 0 1 forward_v I I I I #
coedge $-1 $487 $485 $489 $651 reversed $341 $-1 #
edge $-1 $500 -9.6992162060962368 $653 9.6992162060962368 $499 $739 forward 7 unknown #
vertex $-1 $651 $740 #
straight-curve $-1 -46.573686941129793 -20.425078240691221 0 0 0 -1 I I #
edge $-1 $649 -20.425078240691221 $653 20.425078240691221 $647 $741 forward 7 unknown #
straight-curve $-1 0 -20.425078240691221 -9.6992162060962368 -1 0 0 I I #
vertex $-1 $492 $742 #
straight-curve $-1 0 20.425078240691221 -9.6992162060962368 1 0 0 I I #
point $-1 46.573686941129793 20.425078240691221 -9.6992162060962368 #
point $-1 46.573686941129793 -20.425078240691221 -9.6992162060962368 #
straight-curve $-1 -46.573686941129793 0 9.6992162060962368 0 -1 0 I I #
point $-1 -46.573686941129793 20.425078240691221 9.6992162060962368 #
point $-1 -46.573686941129793 -20.425078240691221 9.6992162060962368 #
straight-curve $-1 46.573686941129793 -20.425078240691221 0 0 0 -1 I I #
straight-curve $-1 46.573686941129793 20.425078240691221 0 0 0 -1 I I #
plane-surface $-1 46.573686941129793 0 0 -1 0 0 0 0 1 forward_v I I I I #
coedge $-1 $674 $665 $664 $743 forward $510 $-1 #
coedge $-1 $513 $512 $663 $743 reversed $224 $-1 #
coedge $-1 $663 $744 $514 $666 reversed $510 $-1 #
edge $-1 $667 -46.573686941129793 $670 46.573686941129793 $665 $745 forward 7 unknown #
vertex $-1 $515 $746 #
straight-curve $-1 -46.573686941129793 0 9.6992162060962368 0 -1 0 I I #
coedge $-1 $522 $516 $744 $747 forward $523 $-1 #
vertex $-1 $517 $748 #
straight-curve $-1 46.573686941129793 0 9.6992162060962368 0 1 0 I I #
point $-1 46.573686941129793 -20.425078240691221 9.6992162060962368 #
point $-1 -46.573686941129793 -20.425078240691221 9.6992162060962368 #
coedge $-1 $744 $663 $525 $675 reversed $510 $-1 #
edge $-1 $676 -46.573686941129793 $678 46.573686941129793 $674 $749 forward 7 unknown #
vertex $-1 $747 $750 #
straight-curve $-1 46.573686941129793 -24.707353089029105 6.6992162060962368 0 -1 0 I I #
vertex $-1 $527 $751 #
straight-curve $-1 -46.573686941129793 -24.707353089029105 6.6992162060962368 0 1 0 I I #
coedge $-1 $541 $540 $533 $681 forward $530 $-1 #
edge $-1 $682 16.162812605495446 $685 22.112414101065692 $680 $752 forward 7 unknown #
vertex $-1 $545 $753 #
straight-curve $-1 -63.20828535453758 4.4208866093743282 9.699216206096235 -1 0 0 I I #
edge $-1 $685 -4.582371943805942 $542 4.9053426126691697 $541 $754 forward 7 unknown #
vertex $-1 $684 $755 #
straight-curve $-1 -46.573686941129793 4.4208866093743282 3.7496147105259894 0.51503806187062418 0 0.85716730853699208 I I #
point $-1 -42.998805826716847 4.4208866093743282 9.6992162060962368 #
point $-1 -46.573686941129793 -5.0668279471007835 3.7496147105259894 #
straight-curve $-1 -46.573686941129793 0 9.6992162060962368 0 -1 0 I I #
vertex $-1 $548 $756 #
point $-1 -43.021335070470649 -2.3560523595364664 6.8305831770743515 #
vertex $-1 $552 $757 #
point $-1 -43.021335070470649 1.7101110218100075 6.8305831770743515 #
edge $-1 $695 55.708925755014491 $698 61.833536530421711 $557 $758 forward 7 unknown #
vertex $-1 $571 $759 #
straight-curve $-1 40.333997023140739 -9.5205512616704944 9.6992162060962386 1 0 0 I I #
edge $-1 $698 -6.3132590843163952 $568 -0.10132527039180328 $567 $760 forward 7 unknown #
vertex $-1 $697 $761 #
straight-curve $-1 1.2479394086994944e-006 -9.5205512616704944 84.242598229031074 -0.49999998660252726 0 0.86602541151947299 I I #
point $-1 43.037641387597617 -9.5205512616704944 9.6992162060962386 #
point $-1 46.573686941129793 -3.3086174477459025 3.5746054306890187 #
straight-curve $-1 46.573686941129793 0 9.6992162060962368 0 1 0 I I #
vertex $-1 $574 $762 #
point $-1 43.792293061866076 -8.2781644988855767 5.4744904964462551 #
vertex $-1 $578 $763 #
point $-1 43.792293061866076 -6.4145843547082002 5.4744904964462551 #
vertex $-1 $582 $764 #
point $-1 43.792293061866076 -4.5510042105308237 5.4744904964462551 #
edge $-1 $710 55.708925755014491 $713 61.833536530421711 $587 $765 forward 7 unknown #
vertex $-1 $601 $766 #
straight-curve $-1 40.333997023140739 1.1763079413755886 9.6992162060962386 1 0 0 I I #
edge $-1 $713 -0.96482948279335368 $598 5.2471043311312382 $597 $767 forward 7 unknown #
vertex $-1 $712 $768 #
straight-curve $-1 1.2479394086994944e-006 1.1763079413755886 84.242598229031074 -0.49999998660252726 0 0.86602541151947299 I I #
point $-1 43.037641387597617 1.1763079413755886 9.6992162060962386 #
point $-1 46.573686941129793 7.3882417553001805 3.5746054306890187 #
straight-curve $-1 46.573686941129793 0 9.6992162060962368 0 1 0 I I #
vertex $-1 $604 $769 #
point $-1 43.792293061866076 2.418694704160508 5.4744904964462551 #
vertex $-1 $608 $770 #
point $-1 43.792293061866076 4.2822748483378845 5.4744904964462551 #
vertex $-1 $612 $771 #
point $-1 43.792293061866076 6.145854992515261 5.4744904964462551 #
edge $-1 $725 55.708925755014491 $728 61.833536530421711 $617 $772 forward 7 unknown #
vertex $-1 $631 $773 #
straight-curve $-1 40.333997023140739 11.87316714442167 9.6992162060962386 1 0 0 I I #
edge $-1 $728 4.3836001187296869 $628 10.595533932654277 $627 $774 forward 7 unknown #
vertex $-1 $727 $775 #
straight-curve $-1 1.2479394086994944e-006 11.87316714442167 84.242598229031074 -0.49999998660252726 0 0.86602541151947299 I I #
point $-1 43.037641387597617 11.87316714442167 9.6992162060962386 #
point $-1 46.573686941129793 18.08510095834626 3.5746054306890187 #
straight-curve $-1 46.573686941129793 0 9.6992162060962368 0 1 0 I I #
vertex $-1 $634 $776 #
point $-1 43.792293061866076 13.115553907206589 5.4744904964462551 #
vertex $-1 $638 $777 #
point $-1 43.792293061866076 14.979134051383966 5.4744904964462551 #
vertex $-1 $642 $778 #
point $-1 43.792293061866076 16.842714195561342 5.4744904964462551 #
straight-curve $-1 -46.573686941129793 20.425078240691221 0 0 0 -1 I I #
point $-1 -46.573686941129793 -20.425078240691221 -9.6992162060962368 #
straight-curve $-1 -46.573686941129793 0 -9.6992162060962368 0 1 0 I I #
point $-1 -46.573686941129793 20.425078240691221 -9.6992162060962368 #
edge $-1 $667 -1.5 $678 1.5 $664 $779 forward 7 unknown #
coedge $-1 $665 $674 $669 $747 reversed $510 $-1 #
straight-curve $-1 0 -28.98962793736699 9.6992162060962368 1 0 0 I I #
point $-1 -46.573686941129793 -28.98962793736699 9.6992162060962368 #
edge $-1 $670 -1.5 $676 1.5 $669 $780 forward 7 unknown #
point $-1 46.573686941129793 -28.98962793736699 9.6992162060962368 #
straight-curve $-1 0 -28.98962793736699 6.6992162060962368 -1 0 0 I I #
point $-1 46.573686941129793 -28.98962793736699 6.6992162060962368 #
point $-1 -46.573686941129793 -28.98962793736699 6.6992162060962368 #
straight-curve $-1 -46.573686941129793 4.4208866093743282 25.862028811591681 0 0 -1 I I #
point $-1 -46.573686941129793 4.4208866093743282 9.6992162060962368 #
straight-curve $-1 -46.573686941129793 -0.16148533443161384 3.7496147105259903 0 -1 0 I I #
point $-1 -46.573686941129793 4.4208866093743282 3.7496147105259894 #
point $-1 -42.679205823804281 -2.3560523595364664 5.4583778066667348 #
point $-1 -42.679205823804281 1.7101110218100075 5.4583778066667348 #
straight-curve $-1 46.573686941129793 -9.5205512616704944 65.408141961110729 0 0 -1 I I #
point $-1 46.573686941129793 -9.5205512616704944 9.6992162060962368 #
straight-curve $-1 46.573686941129793 -3.2072921773540992 3.5746054306890116 0 1 0 I I #
point $-1 46.573686941129793 -9.5205512616704944 3.5746054306890187 #
point $-1 43.109280362805073 -8.2781644988855767 5.6575032089047275 #
point $-1 43.109280362805073 -6.4145843547082002 5.6575032089047275 #
point $-1 43.109280362805073 -4.5510042105308237 5.6575032089047275 #
straight-curve $-1 46.573686941129793 1.1763079413755886 65.408141961110729 0 0 -1 I I #
point $-1 46.573686941129793 1.1763079413755886 9.6992162060962368 #
straight-curve $-1 46.573686941129793 2.1411374241689423 3.5746054306890116 0 1 0 I I #
point $-1 46.573686941129793 1.1763079413755886 3.5746054306890187 #
point $-1 43.109280362805073 2.418694704160508 5.6575032089047275 #
point $-1 43.109280362805073 4.2822748483378845 5.6575032089047275 #
point $-1 43.109280362805073 6.145854992515261 5.6575032089047275 #
straight-curve $-1 46.573686941129793 11.87316714442167 65.408141961110729 0 0 -1 I I #
point $-1 46.573686941129793 11.87316714442167 9.6992162060962368 #
straight-curve $-1 46.573686941129793 7.4895670256919828 3.5746054306890116 0 1 0 I I #
point $-1 46.573686941129793 11.87316714442167 3.5746054306890187 #
point $-1 43.109280362805073 13.115553907206589 5.6575032089047275 #
point $-1 43.109280362805073 14.979134051383966 5.6575032089047275 #
point $-1 43.109280362805073 16.842714195561342 5.6575032089047275 #
straight-curve $-1 -46.573686941129793 -28.98962793736699 8.1992162060962368 0 0 -1 I I #
straight-curve $-1 46.573686941129793 -28.98962793736699 8.1992162060962368 0 0 -1 I I #
End-of-ACIS-data 