500 0 4 0           
7 Unknown 11 ACIS 5.0 NT 24 Thu Mar 25 23:02:44 1999 
-1 9.9999999999999995e-007 1e-010 
body $-1 $4 $-1 $5 #
body $-1 $6 $-1 $7 #
body $-1 $8 $-1 $9 #
body $-1 $10 $-1 $11 #
lump $-1 $-1 $12 $0 #
transform $-1 1 0 0 0 1 0 0 0 1 54.811243018890963 34.456628668270795 11.37256976178722 1 rotate no_reflect no_shear #
lump $-1 $-1 $13 $1 #
transform $-1 1 0 0 0 1 0 0 0 1 54.811243018890963 34.456628668270795 11.37256976178722 1 rotate no_reflect no_shear #
lump $-1 $-1 $14 $2 #
transform $-1 1 0 0 0 1 0 0 0 1 54.811243018890963 34.456628668270795 11.37256976178722 1 rotate no_reflect no_shear #
lump $-1 $-1 $15 $3 #
transform $-1 1 0 0 0 1 0 0 0 1 54.811243018890963 34.456628668270795 11.37256976178722 1 rotate no_reflect no_shear #
shell $-1 $-1 $-1 $16 $-1 $4 #
shell $-1 $-1 $-1 $17 $-1 $6 #
shell $-1 $-1 $-1 $18 $-1 $8 #
shell $-1 $-1 $-1 $19 $-1 $10 #
face $-1 $20 $21 $12 $-1 $22 forward single #
face $-1 $23 $24 $13 $-1 $25 reversed single #
face $-1 $26 $27 $14 $-1 $28 forward single #
face $-1 $29 $30 $15 $-1 $31 reversed single #
face $-1 $32 $33 $12 $-1 $34 reversed single #
loop $-1 $-1 $35 $16 #
plane-surface $-1 0 0 11.37256976178722 0 0 1 1 0 0 forward_v I I I I #
face $-1 $36 $37 $13 $-1 $38 forward single #
loop $-1 $-1 $39 $17 #
plane-surface $-1 0 -27.533941687197114 -4.6557878296004676 0 0 1 1 0 0 forward_v I I I I #
face $-1 $40 $41 $14 $-1 $42 forward single #
loop $-1 $-1 $43 $18 #
plane-surface $-1 -31.735554141495996 45.392514449942936 132.54146428885934 -1 0 0 0 0.6018150307709319 0.79863550430605224 forward_v I I I I #
face $-1 $44 $45 $15 $-1 $46 reversed single #
loop $-1 $47 $48 $19 #
cone-surface $-1 -43.273398580193479 27.763816313208309 5.4789908702616614 0 -0.6018150307709319 -0.79863550430605224 2 0 0 1 I I 0 1 2 forward I I I I #
face $-1 $49 $50 $12 $-1 $51 reversed single #
loop $-1 $-1 $52 $20 #
plane-surface $-1 0 0 -11.37256976178722 0 0 1 1 0 0 forward_v I I I I #
coedge $-1 $53 $54 $55 $56 forward $21 $-1 #
face $-1 $57 $58 $13 $-1 $59 reversed single #
loop $-1 $-1 $60 $23 #
plane-surface $-1 0 -20.611254706123432 -8.0141787956938444 0 -1 0 0 0 -1 forward_v I I I I #
coedge $-1 $61 $62 $63 $64 reversed $24 $-1 #
face $-1 $65 $66 $14 $-1 $67 reversed single #
loop $-1 $-1 $68 $26 #
plane-surface $-1 -43.273398580193479 -20.579945358070844 44.9930548687922 0 0.6018150307709319 0.79863550430605224 1 0 0 forward_v I I I I #
coedge $-1 $69 $70 $71 $72 reversed $27 $-1 #
face $-1 $73 $74 $15 $-1 $75 forward single #
loop $-1 $76 $77 $29 #
cone-surface $-1 -43.273398580193479 25.679531052519884 2.7130509631855251 0 -0.6018150307709319 -0.79863550430605224 1 0 0 1 I I -0.70710678118654746 0.70710678118654746 1 forward I I I I #
loop $-1 $-1 $78 $19 #
coedge $-1 $48 $48 $79 $80 reversed $30 $-1 #
face $-1 $81 $82 $12 $-1 $83 reversed single #
loop $-1 $-1 $84 $32 #
plane-surface $-1 0 -34.456628668270795 0 0 1 0 0 0 1 forward_v I I I I #
coedge $-1 $85 $86 $87 $88 forward $33 $-1 #
coedge $-1 $89 $35 $90 $91 forward $21 $-1 #
coedge $-1 $35 $89 $92 $93 forward $21 $-1 #
coedge $-1 $94 $95 $35 $56 reversed $96 $-1 #
edge $-1 $97 -34.456628668270795 $98 34.456628668270795 $55 $99 forward 7 unknown #
face $-1 $100 $101 $13 $-1 $102 reversed single #
loop $-1 $-1 $103 $36 #
plane-surface $-1 0 -34.456628668270795 0 0 1 0 0 0 1 forward_v I I I I #
coedge $-1 $104 $105 $106 $107 reversed $37 $-1 #
coedge $-1 $108 $39 $103 $109 reversed $24 $-1 #
coedge $-1 $39 $108 $104 $110 reversed $24 $-1 #
coedge $-1 $106 $111 $39 $64 forward $112 $-1 #
edge $-1 $113 -20.689657824672238 $114 -6.8442838625248754 $63 $115 forward 7 unknown #
face $-1 $116 $117 $14 $-1 $118 forward single #
loop $-1 $-1 $119 $40 #
plane-surface $-1 0 34.456628668270795 0 0 -1 0 0 0 -1 forward_v I I I I #
coedge $-1 $120 $121 $119 $122 reversed $41 $-1 #
coedge $-1 $70 $43 $121 $123 forward $27 $-1 #
coedge $-1 $43 $69 $124 $125 reversed $27 $-1 #
coedge $-1 $126 $119 $43 $72 forward $66 $-1 #
edge $-1 $127 -62.750711360153389 $128 -54.898162382642454 $71 $129 forward 7 unknown #
face $-1 $130 $131 $15 $-1 $132 forward single #
loop $-1 $-1 $133 $44 #
plane-surface $-1 -31.735554141495996 45.392514449942936 132.54146428885934 -1 0 0 0 0.6018150307709319 0.79863550430605224 forward_v I I I I #
loop $-1 $-1 $134 $29 #
coedge $-1 $77 $77 $78 $135 forward $45 $-1 #
coedge $-1 $78 $78 $77 $135 reversed $47 $-1 #
coedge $-1 $79 $79 $48 $80 forward $131 $-1 #
edge $-1 $136 -7.1941485166571027e-016 $136 6.2831853071795996 $79 $137 forward 7 unknown #
face $-1 $138 $139 $12 $-1 $140 reversed single #
loop $-1 $-1 $141 $49 #
plane-surface $-1 -54.811243018890963 0 0 1 0 0 0 0 -1 forward_v I I I I #
coedge $-1 $142 $92 $143 $144 forward $50 $-1 #
coedge $-1 $145 $52 $142 $146 forward $33 $-1 #
coedge $-1 $52 $145 $147 $148 forward $33 $-1 #
coedge $-1 $95 $94 $52 $88 reversed $96 $-1 #
edge $-1 $149 -34.456628668270795 $150 34.456628668270795 $87 $151 forward 7 unknown #
coedge $-1 $54 $53 $152 $153 forward $21 $-1 #
coedge $-1 $154 $155 $53 $91 reversed $139 $-1 #
edge $-1 $98 -54.811243018890963 $156 54.811243018890963 $90 $157 forward 7 unknown #
coedge $-1 $84 $158 $54 $93 reversed $50 $-1 #
edge $-1 $159 -54.811243018890963 $97 54.811243018890963 $92 $160 forward 7 unknown #
coedge $-1 $87 $55 $158 $161 forward $96 $-1 #
coedge $-1 $55 $87 $154 $162 reversed $96 $-1 #
loop $-1 $-1 $94 $138 #
vertex $-1 $56 $163 #
vertex $-1 $56 $164 #
straight-curve $-1 54.811243018890963 0 11.37256976178722 0 1 0 I I #
face $-1 $165 $166 $13 $-1 $167 forward single #
loop $-1 $-1 $168 $57 #
plane-surface $-1 0 0 -11.37256976178722 0 0 1 1 0 0 forward_v I I I I #
coedge $-1 $169 $170 $61 $109 forward $58 $-1 #
coedge $-1 $171 $60 $62 $110 forward $37 $-1 #
coedge $-1 $60 $171 $168 $172 reversed $37 $-1 #
coedge $-1 $173 $63 $60 $107 forward $112 $-1 #
edge $-1 $114 0.64869843175354536 $174 7.3654803639402999 $106 $175 forward 7 unknown #
coedge $-1 $62 $61 $176 $177 reversed $24 $-1 #
edge $-1 $178 -54.811243018890963 $113 54.811243018890963 $103 $179 forward 7 unknown #
edge $-1 $114 -54.811243018890963 $180 54.811243018890963 $104 $181 forward 7 unknown #
coedge $-1 $63 $182 $169 $183 forward $112 $-1 #
loop $-1 $-1 $106 $184 #
vertex $-1 $109 $185 #
vertex $-1 $64 $186 #
straight-curve $-1 54.811243018890963 -13.766970843598557 -4.6557878296004676 0 1 0 I I #
face $-1 $187 $188 $14 $-1 $189 reversed single #
loop $-1 $-1 $124 $65 #
plane-surface $-1 0 0 11.37256976178722 0 0 1 1 0 0 forward_v I I I I #
coedge $-1 $71 $190 $68 $122 forward $66 $-1 #
coedge $-1 $191 $68 $192 $193 reversed $41 $-1 #
coedge $-1 $68 $191 $69 $123 reversed $41 $-1 #
edge $-1 $194 -33.17454372879422 $127 -10.098854851399256 $119 $195 forward 7 unknown #
edge $-1 $127 -68.913257336541577 $196 -55.865146910566125 $69 $197 forward 7 unknown #
coedge $-1 $198 $199 $70 $125 forward $117 $-1 #
edge $-1 $128 -11.760371443299327 $196 -1.3396871930093539 $124 $200 forward 7 unknown #
coedge $-1 $201 $71 $199 $202 reversed $66 $-1 #
vertex $-1 $122 $203 #
vertex $-1 $125 $204 #
straight-curve $-1 -31.735554141495996 34.456628668270795 66.270732144429672 0 0 1 I I #
face $-1 $205 $206 $15 $-1 $207 reversed single #
loop $-1 $208 $79 $73 #
plane-surface $-1 -43.273398580193479 -20.579945358070844 44.9930548687922 0 0.6018150307709319 0.79863550430605224 1 0 0 forward_v I I I I #
coedge $-1 $209 $210 $211 $212 reversed $74 $-1 #
coedge $-1 $134 $134 $-1 $213 forward $76 $-1 #
edge $-1 $214 0 $214 6.2831853071796004 $77 $215 forward 7 unknown #
vertex $-1 $80 $216 #
ellipse-curve $-1 -43.273398580193479 29.246286543125809 7.4462952730317511 0 -0.6018150307709319 -0.79863550430605224 2 0 0 1 I I #
face $-1 $-1 $96 $12 $-1 $217 reversed single #
loop $-1 $-1 $154 $81 #
plane-surface $-1 0 34.456628668270795 0 0 -1 0 0 0 -1 forward_v I I I I #
coedge $-1 $218 $152 $155 $219 forward $82 $-1 #
coedge $-1 $158 $84 $85 $146 reversed $50 $-1 #
coedge $-1 $152 $218 $84 $144 reversed $82 $-1 #
edge $-1 $159 -11.37256976178722 $220 11.37256976178722 $143 $221 forward 7 unknown #
coedge $-1 $86 $85 $218 $222 forward $33 $-1 #
edge $-1 $150 -54.811243018890963 $220 54.811243018890963 $142 $223 forward 7 unknown #
coedge $-1 $155 $154 $86 $148 reversed $139 $-1 #
edge $-1 $224 -54.811243018890963 $149 54.811243018890963 $147 $225 forward 7 unknown #
vertex $-1 $88 $226 #
vertex $-1 $161 $227 #
straight-curve $-1 54.811243018890963 0 -11.37256976178722 0 -1 0 I I #
coedge $-1 $141 $143 $89 $153 reversed $82 $-1 #
edge $-1 $156 -34.456628668270795 $159 34.456628668270795 $152 $228 forward 7 unknown #
coedge $-1 $147 $90 $95 $162 forward $139 $-1 #
coedge $-1 $90 $147 $141 $219 reversed $139 $-1 #
vertex $-1 $91 $229 #
straight-curve $-1 0 34.456628668270795 11.37256976178722 -1 0 0 I I #
coedge $-1 $92 $142 $94 $161 reversed $50 $-1 #
vertex $-1 $153 $230 #
straight-curve $-1 0 -34.456628668270795 11.37256976178722 1 0 0 I I #
edge $-1 $97 -11.37256976178722 $150 11.37256976178722 $94 $231 forward 7 unknown #
edge $-1 $98 -11.37256976178722 $149 11.37256976178722 $95 $232 forward 7 unknown #
point $-1 54.811243018890963 -34.456628668270795 11.37256976178722 #
point $-1 54.811243018890963 34.456628668270795 11.37256976178722 #
face $-1 $233 $234 $13 $-1 $235 reversed single #
loop $-1 $-1 $236 $100 #
plane-surface $-1 0 0 11.37256976178722 0 0 1 1 0 0 forward_v I I I I #
coedge $-1 $237 $238 $105 $172 forward $101 $-1 #
coedge $-1 $239 $103 $111 $183 reversed $58 $-1 #
coedge $-1 $103 $239 $240 $241 forward $58 $-1 #
coedge $-1 $105 $104 $242 $243 reversed $37 $-1 #
edge $-1 $174 -54.811243018890963 $244 54.811243018890963 $168 $245 forward 7 unknown #
coedge $-1 $246 $106 $238 $247 reversed $112 $-1 #
vertex $-1 $172 $248 #
straight-curve $-1 54.811243018890963 -20.611254706123432 -4.0070893978469222 0 0 -1 I I #
coedge $-1 $240 $242 $108 $177 forward $234 $-1 #
edge $-1 $180 6.8442838625248754 $178 20.689657824672238 $176 $249 forward 7 unknown #
vertex $-1 $109 $250 #
straight-curve $-1 0 -34.456628668270795 -4.6557878296004676 1 0 0 I I #
vertex $-1 $177 $251 #
straight-curve $-1 0 -20.611254706123432 -4.6557878296004676 -1 0 0 I I #
coedge $-1 $111 $246 $236 $252 reversed $112 $-1 #
edge $-1 $253 -11.37256976178722 $113 4.6557878296004676 $111 $254 forward 7 unknown #
face $-1 $-1 $112 $13 $-1 $255 reversed single #
point $-1 54.811243018890963 -34.456628668270795 -4.6557878296004676 #
point $-1 54.811243018890963 -20.611254706123432 -4.6557878296004676 #
face $-1 $256 $257 $14 $-1 $258 forward single #
loop $-1 $-1 $259 $116 #
plane-surface $-1 0 -27.533941687197114 -4.6557878296004676 0 0 1 1 0 0 forward_v I I I I #
coedge $-1 $119 $260 $261 $262 reversed $66 $-1 #
coedge $-1 $121 $120 $198 $263 reversed $41 $-1 #
coedge $-1 $261 $264 $120 $193 forward $265 $-1 #
edge $-1 $266 34.108461040578966 $194 47.156571466554425 $192 $267 forward 7 unknown #
vertex $-1 $262 $268 #
straight-curve $-1 -21.63669929009674 34.456628668270795 3.5200207842762801 1 0 0 I I #
vertex $-1 $263 $269 #
straight-curve $-1 -31.735554141495996 -20.579945358070844 44.9930548687922 0 -0.79863550430605224 0.6018150307709319 I I #
coedge $-1 $270 $124 $191 $263 forward $117 $-1 #
coedge $-1 $124 $271 $126 $202 forward $117 $-1 #
straight-curve $-1 -31.735554141495996 22.696257224971468 11.372569761787219 0 -1 0 I I #
coedge $-1 $260 $126 $272 $273 forward $66 $-1 #
edge $-1 $274 -54.811243018890963 $128 31.735554141495996 $126 $275 forward 7 unknown #
point $-1 -31.735554141495996 34.456628668270788 3.5200207842762836 #
point $-1 -31.735554141495996 34.456628668270795 11.37256976178722 #
face $-1 $276 $277 $15 $-1 $278 forward single #
loop $-1 $-1 $279 $130 #
plane-surface $-1 0 34.456628668270795 0 0 -1 0 0 0 -1 forward_v I I I I #
loop $-1 $-1 $280 $73 #
coedge $-1 $210 $133 $281 $282 forward $74 $-1 #
coedge $-1 $133 $209 $283 $284 reversed $74 $-1 #
coedge $-1 $285 $279 $133 $212 forward $206 $-1 #
edge $-1 $286 -62.750711360153389 $287 -54.898162382642454 $211 $288 forward 7 unknown #
edge $-1 $289 1 $289 0 $134 $-1 forward 7 unknown #
vertex $-1 $135 $290 #
ellipse-curve $-1 -43.273398580193479 26.281346083290817 3.5116864674915771 0 0.6018150307709319 0.79863550430605224 2 0 0 1 I I #
point $-1 -41.273398580193479 29.246286543125805 7.446295273031744 #
plane-surface $-1 54.811243018890963 0 0 -1 0 0 0 0 1 forward_v I I I I #
coedge $-1 $143 $141 $145 $222 reversed $82 $-1 #
edge $-1 $156 -11.37256976178722 $224 11.37256976178722 $155 $291 forward 7 unknown #
vertex $-1 $222 $292 #
straight-curve $-1 -54.811243018890963 -34.456628668270795 0 0 0 -1 I I #
edge $-1 $220 -34.456628668270795 $224 34.456628668270795 $218 $293 forward 7 unknown #
straight-curve $-1 0 -34.456628668270795 -11.37256976178722 -1 0 0 I I #
vertex $-1 $148 $294 #
straight-curve $-1 0 34.456628668270795 -11.37256976178722 1 0 0 I I #
point $-1 54.811243018890963 34.456628668270795 -11.37256976178722 #
point $-1 54.811243018890963 -34.456628668270795 -11.37256976178722 #
straight-curve $-1 -54.811243018890963 0 11.37256976178722 0 -1 0 I I #
point $-1 -54.811243018890963 34.456628668270795 11.37256976178722 #
point $-1 -54.811243018890963 -34.456628668270795 11.37256976178722 #
straight-curve $-1 54.811243018890963 -34.456628668270795 0 0 0 -1 I I #
straight-curve $-1 54.811243018890963 34.456628668270795 0 0 0 -1 I I #
face $-1 $184 $295 $13 $-1 $296 reversed single #
loop $-1 $-1 $176 $165 #
plane-surface $-1 -54.811243018890963 0 0 1 0 0 0 0 -1 forward_v I I I I #
coedge $-1 $297 $298 $182 $252 forward $166 $-1 #
coedge $-1 $299 $168 $300 $301 forward $101 $-1 #
coedge $-1 $168 $299 $173 $247 forward $101 $-1 #
coedge $-1 $170 $169 $298 $302 reversed $58 $-1 #
coedge $-1 $303 $176 $170 $241 reversed $234 $-1 #
edge $-1 $304 -11.37256976178722 $178 4.6557878296004676 $240 $305 forward 7 unknown #
coedge $-1 $176 $300 $171 $243 forward $234 $-1 #
edge $-1 $244 -7.3654803639402999 $180 -0.64869843175354536 $242 $306 forward 7 unknown #
vertex $-1 $301 $307 #
straight-curve $-1 0 -20.611254706123432 -11.37256976178722 -1 0 0 I I #
coedge $-1 $182 $173 $308 $309 reversed $112 $-1 #
edge $-1 $310 -34.456628668270795 $174 20.611254706123432 $173 $311 forward 7 unknown #
point $-1 54.811243018890963 -20.611254706123432 -11.372569761787222 #
straight-curve $-1 -54.811243018890963 -13.766970843598557 -4.6557878296004676 0 -1 0 I I #
point $-1 -54.811243018890963 -34.456628668270795 -4.6557878296004676 #
point $-1 -54.811243018890963 -20.611254706123432 -4.6557878296004676 #
edge $-1 $253 -34.456628668270795 $312 34.456628668270795 $182 $313 forward 7 unknown #
vertex $-1 $252 $314 #
straight-curve $-1 54.811243018890963 -34.456628668270795 0 0 0 -1 I I #
plane-surface $-1 54.811243018890963 0 0 -1 0 0 0 0 1 forward_v I I I I #
face $-1 $315 $316 $14 $-1 $317 reversed single #
loop $-1 $-1 $318 $187 #
plane-surface $-1 0 -20.611254706123432 -8.0141787956938444 0 -1 0 0 0 -1 forward_v I I I I #
coedge $-1 $319 $320 $321 $322 reversed $188 $-1 #
coedge $-1 $190 $201 $323 $324 reversed $66 $-1 #
coedge $-1 $325 $192 $190 $262 forward $265 $-1 #
edge $-1 $194 -3.5200207842762792 $326 11.37256976178722 $190 $327 forward 7 unknown #
edge $-1 $196 10.098854851399256 $266 33.17454372879422 $198 $328 forward 7 unknown #
coedge $-1 $192 $329 $270 $330 reversed $265 $-1 #
loop $-1 $-1 $192 $331 #
vertex $-1 $330 $332 #
straight-curve $-1 -54.811243018890963 -3.2042835662652918 31.899554292472381 0 0.79863550430605224 -0.6018150307709319 I I #
point $-1 -54.811243018890963 34.456628668270795 3.5200207842762792 #
point $-1 -31.735554141495996 24.035944417980822 11.372569761787219 #
coedge $-1 $333 $198 $264 $330 forward $117 $-1 #
coedge $-1 $199 $333 $334 $335 forward $117 $-1 #
coedge $-1 $334 $336 $201 $273 reversed $337 $-1 #
edge $-1 $274 -11.37256976178722 $338 11.37256976178722 $272 $339 forward 7 unknown #
vertex $-1 $335 $340 #
straight-curve $-1 0 34.456628668270795 11.37256976178722 -1 0 0 I I #
face $-1 $341 $342 $15 $-1 $343 reversed single #
loop $-1 $-1 $283 $205 #
plane-surface $-1 0 0 11.37256976178722 0 0 1 1 0 0 forward_v I I I I #
coedge $-1 $211 $344 $280 $345 forward $206 $-1 #
coedge $-1 $346 $281 $279 $345 reversed $208 $-1 #
coedge $-1 $280 $347 $209 $282 reversed $208 $-1 #
edge $-1 $286 -68.913257336541577 $348 -55.865146910566125 $209 $349 forward 7 unknown #
coedge $-1 $350 $351 $210 $284 forward $277 $-1 #
edge $-1 $287 -11.760371443299327 $348 -1.3396871930093539 $283 $352 forward 7 unknown #
coedge $-1 $353 $211 $351 $354 reversed $206 $-1 #
vertex $-1 $345 $355 #
vertex $-1 $284 $356 #
straight-curve $-1 -31.735554141495996 34.456628668270795 66.270732144429672 0 0 1 I I #
vertex $-1 $213 $357 #
point $-1 -41.273398580193479 26.281346083290817 3.5116864674915771 #
straight-curve $-1 -54.811243018890963 34.456628668270795 0 0 0 -1 I I #
point $-1 -54.811243018890963 -34.456628668270795 -11.37256976178722 #
straight-curve $-1 -54.811243018890963 0 -11.37256976178722 0 1 0 I I #
point $-1 -54.811243018890963 34.456628668270795 -11.37256976178722 #
loop $-1 $-1 $308 $233 #
plane-surface $-1 0 34.456628668270795 0 0 -1 0 0 0 -1 forward_v I I I I #
coedge $-1 $358 $236 $359 $360 forward $166 $-1 #
coedge $-1 $236 $358 $239 $302 forward $166 $-1 #
coedge $-1 $238 $237 $361 $362 forward $101 $-1 #
coedge $-1 $242 $363 $237 $301 reversed $234 $-1 #
edge $-1 $244 -20.611254706123432 $364 34.456628668270795 $300 $365 forward 7 unknown #
edge $-1 $304 -54.811243018890963 $253 54.811243018890963 $239 $366 forward 7 unknown #
coedge $-1 $363 $240 $358 $367 reversed $234 $-1 #
vertex $-1 $367 $368 #
straight-curve $-1 -54.811243018890963 -34.456628668270795 0 0 0 -1 I I #
straight-curve $-1 -54.811243018890963 -20.611254706123432 -4.0070893978469222 0 0 1 I I #
point $-1 -54.811243018890963 -20.611254706123432 -11.372569761787222 #
coedge $-1 $361 $359 $246 $309 forward $295 $-1 #
edge $-1 $312 -11.37256976178722 $310 11.37256976178722 $246 $369 forward 7 unknown #
vertex $-1 $247 $370 #
straight-curve $-1 54.811243018890963 0 -11.37256976178722 0 -1 0 I I #
vertex $-1 $252 $371 #
straight-curve $-1 54.811243018890963 0 11.37256976178722 0 1 0 I I #
point $-1 54.811243018890963 -34.456628668270795 11.37256976178722 #
face $-1 $331 $372 $14 $-1 $373 reversed single #
loop $-1 $-1 $374 $256 #
plane-surface $-1 0 -34.456628668270795 0 0 1 0 0 0 1 forward_v I I I I #
coedge $-1 $375 $376 $377 $378 reversed $257 $-1 #
coedge $-1 $379 $259 $374 $380 reversed $188 $-1 #
coedge $-1 $259 $379 $375 $381 reversed $188 $-1 #
coedge $-1 $377 $382 $259 $322 forward $337 $-1 #
edge $-1 $383 -20.689657824672238 $384 -6.8442838625248754 $321 $385 forward 7 unknown #
coedge $-1 $386 $387 $260 $324 forward $372 $-1 #
edge $-1 $326 -54.811243018890963 $338 54.811243018890963 $260 $388 forward 7 unknown #
coedge $-1 $389 $261 $387 $390 reversed $265 $-1 #
vertex $-1 $324 $391 #
straight-curve $-1 -54.811243018890963 34.456628668270795 0 0 0 -1 I I #
straight-curve $-1 -21.63669929009674 24.035944417980826 11.372569761787215 -1 0 0 I I #
coedge $-1 $264 $392 $393 $394 reversed $265 $-1 #
edge $-1 $266 -24.035944417980822 $395 34.456628668270795 $264 $396 forward 7 unknown #
face $-1 $397 $265 $14 $-1 $398 reversed single #
point $-1 -54.811243018890963 24.035944417980822 11.372569761787219 #
coedge $-1 $271 $270 $399 $400 forward $117 $-1 #
coedge $-1 $382 $272 $271 $335 reversed $337 $-1 #
edge $-1 $401 -34.456628668270795 $274 34.456628668270795 $334 $402 forward 7 unknown #
coedge $-1 $272 $377 $386 $403 reversed $337 $-1 #
loop $-1 $-1 $377 $397 #
vertex $-1 $403 $404 #
straight-curve $-1 54.811243018890963 34.456628668270795 0 0 0 -1 I I #
point $-1 54.811243018890963 34.456628668270795 11.37256976178722 #
face $-1 $405 $406 $15 $-1 $407 forward single #
loop $-1 $-1 $408 $276 #
plane-surface $-1 0 -27.533941687197114 -4.6557878296004676 0 0 1 1 0 0 forward_v I I I I #
coedge $-1 $279 $409 $410 $411 reversed $206 $-1 #
edge $-1 $412 -33.17454372879422 $286 -10.098854851399256 $279 $413 forward 7 unknown #
coedge $-1 $347 $280 $414 $415 reversed $208 $-1 #
coedge $-1 $281 $346 $350 $416 reversed $208 $-1 #
vertex $-1 $416 $417 #
straight-curve $-1 -31.735554141495996 -20.579945358070844 44.9930548687922 0 -0.79863550430605224 0.6018150307709319 I I #
coedge $-1 $418 $283 $347 $416 forward $277 $-1 #
coedge $-1 $283 $419 $285 $354 forward $277 $-1 #
straight-curve $-1 -31.735554141495996 22.696257224971468 11.372569761787219 0 -1 0 I I #
coedge $-1 $409 $285 $420 $421 forward $206 $-1 #
edge $-1 $422 -54.811243018890963 $287 31.735554141495996 $285 $423 forward 7 unknown #
point $-1 -31.735554141495996 34.456628668270788 3.5200207842762836 #
point $-1 -31.735554141495996 34.456628668270795 11.37256976178722 #
point $-1 -43.273398580193479 25.077716021748952 1.9144154588794728 #
coedge $-1 $298 $297 $303 $367 forward $166 $-1 #
coedge $-1 $308 $424 $297 $360 reversed $295 $-1 #
edge $-1 $312 -54.811243018890963 $425 54.811243018890963 $359 $426 forward 7 unknown #
coedge $-1 $424 $308 $299 $362 reversed $295 $-1 #
edge $-1 $364 -54.811243018890963 $310 54.811243018890963 $361 $427 forward 7 unknown #
coedge $-1 $300 $303 $424 $428 forward $234 $-1 #
vertex $-1 $362 $429 #
straight-curve $-1 -54.811243018890963 0 -11.37256976178722 0 1 0 I I #
straight-curve $-1 0 -34.456628668270795 11.37256976178722 1 0 0 I I #
edge $-1 $425 -34.456628668270795 $304 34.456628668270795 $303 $430 forward 7 unknown #
point $-1 -54.811243018890963 -34.456628668270795 11.37256976178722 #
straight-curve $-1 54.811243018890963 34.456628668270795 0 0 0 -1 I I #
point $-1 54.811243018890963 34.456628668270795 -11.37256976178722 #
point $-1 54.811243018890963 34.456628668270795 11.37256976178722 #
loop $-1 $-1 $431 $315 #
plane-surface $-1 0 0 -11.37256976178722 0 0 1 1 0 0 forward_v I I I I #
coedge $-1 $432 $393 $319 $380 forward $316 $-1 #
coedge $-1 $433 $318 $320 $381 forward $257 $-1 #
coedge $-1 $318 $433 $431 $434 reversed $257 $-1 #
coedge $-1 $336 $321 $318 $378 forward $337 $-1 #
edge $-1 $384 0.64869843175354536 $435 7.3654803639402999 $377 $436 forward 7 unknown #
coedge $-1 $320 $319 $392 $437 reversed $188 $-1 #
edge $-1 $438 -54.811243018890963 $383 54.811243018890963 $374 $439 forward 7 unknown #
edge $-1 $384 -54.811243018890963 $440 54.811243018890963 $375 $441 forward 7 unknown #
coedge $-1 $321 $334 $432 $442 forward $337 $-1 #
vertex $-1 $380 $443 #
vertex $-1 $322 $444 #
straight-curve $-1 54.811243018890963 -13.766970843598557 -4.6557878296004676 0 1 0 I I #
coedge $-1 $431 $323 $336 $403 forward $372 $-1 #
coedge $-1 $323 $431 $325 $390 forward $372 $-1 #
straight-curve $-1 0 34.456628668270795 -11.37256976178722 1 0 0 I I #
coedge $-1 $392 $325 $433 $445 forward $265 $-1 #
edge $-1 $446 -20.611254706123432 $326 34.456628668270795 $325 $447 forward 7 unknown #
point $-1 -54.811243018890963 34.456628668270795 -11.37256976178722 #
coedge $-1 $329 $389 $379 $437 forward $265 $-1 #
coedge $-1 $374 $399 $329 $394 forward $316 $-1 #
edge $-1 $395 -11.37256976178722 $438 4.6557878296004676 $329 $448 forward 7 unknown #
vertex $-1 $330 $449 #
straight-curve $-1 -54.811243018890963 0 11.37256976178722 0 -1 0 I I #
face $-1 $-1 $337 $14 $-1 $450 reversed single #
plane-surface $-1 -54.811243018890963 0 0 1 0 0 0 0 -1 forward_v I I I I #
coedge $-1 $393 $432 $333 $400 reversed $316 $-1 #
edge $-1 $395 -54.811243018890963 $401 54.811243018890963 $399 $451 forward 7 unknown #
vertex $-1 $335 $452 #
straight-curve $-1 54.811243018890963 0 11.37256976178722 0 1 0 I I #
edge $-1 $338 -34.456628668270795 $435 20.611254706123432 $336 $453 forward 7 unknown #
point $-1 54.811243018890963 34.456628668270795 -11.37256976178722 #
face $-1 $454 $455 $15 $-1 $456 reversed single #
loop $-1 $-1 $457 $341 #
plane-surface $-1 0 -20.611254706123432 -8.0141787956938444 0 -1 0 0 0 -1 forward_v I I I I #
coedge $-1 $458 $459 $460 $461 reversed $342 $-1 #
coedge $-1 $344 $353 $462 $463 reversed $206 $-1 #
coedge $-1 $464 $414 $344 $411 forward $465 $-1 #
edge $-1 $412 -3.5200207842762792 $466 11.37256976178722 $344 $467 forward 7 unknown #
vertex $-1 $411 $468 #
straight-curve $-1 -21.63669929009674 34.456628668270795 3.5200207842762801 1 0 0 I I #
coedge $-1 $410 $469 $346 $415 forward $465 $-1 #
edge $-1 $470 34.108461040578966 $412 47.156571466554425 $414 $471 forward 7 unknown #
edge $-1 $348 10.098854851399256 $470 33.17454372879422 $350 $472 forward 7 unknown #
point $-1 -31.735554141495996 24.035944417980822 11.372569761787219 #
coedge $-1 $473 $350 $469 $474 forward $277 $-1 #
coedge $-1 $351 $473 $475 $476 forward $277 $-1 #
coedge $-1 $475 $477 $353 $421 reversed $478 $-1 #
edge $-1 $422 -11.37256976178722 $479 11.37256976178722 $420 $480 forward 7 unknown #
vertex $-1 $476 $481 #
straight-curve $-1 0 34.456628668270795 11.37256976178722 -1 0 0 I I #
coedge $-1 $359 $361 $363 $428 reversed $295 $-1 #
vertex $-1 $360 $482 #
straight-curve $-1 0 34.456628668270795 11.37256976178722 -1 0 0 I I #
straight-curve $-1 0 34.456628668270795 -11.37256976178722 1 0 0 I I #
edge $-1 $425 -11.37256976178722 $364 11.37256976178722 $424 $483 forward 7 unknown #
point $-1 -54.811243018890963 34.456628668270795 -11.37256976178722 #
straight-curve $-1 -54.811243018890963 0 11.37256976178722 0 -1 0 I I #
coedge $-1 $387 $386 $376 $434 forward $372 $-1 #
coedge $-1 $399 $374 $382 $442 reversed $316 $-1 #
coedge $-1 $376 $375 $389 $445 reversed $257 $-1 #
edge $-1 $435 -54.811243018890963 $446 54.811243018890963 $431 $484 forward 7 unknown #
vertex $-1 $434 $485 #
straight-curve $-1 54.811243018890963 -20.611254706123432 -4.0070893978469222 0 0 -1 I I #
edge $-1 $440 6.8442838625248754 $438 20.689657824672238 $392 $486 forward 7 unknown #
vertex $-1 $380 $487 #
straight-curve $-1 0 -34.456628668270795 -4.6557878296004676 1 0 0 I I #
vertex $-1 $437 $488 #
straight-curve $-1 0 -20.611254706123432 -4.6557878296004676 -1 0 0 I I #
edge $-1 $401 -11.37256976178722 $383 4.6557878296004676 $382 $489 forward 7 unknown #
point $-1 54.811243018890963 -34.456628668270795 -4.6557878296004676 #
point $-1 54.811243018890963 -20.611254706123432 -4.6557878296004676 #
edge $-1 $446 -7.3654803639402999 $440 -0.64869843175354536 $389 $490 forward 7 unknown #
vertex $-1 $390 $491 #
straight-curve $-1 -54.811243018890963 0 -11.37256976178722 0 1 0 I I #
straight-curve $-1 -54.811243018890963 -34.456628668270795 0 0 0 -1 I I #
point $-1 -54.811243018890963 -34.456628668270795 11.37256976178722 #
plane-surface $-1 54.811243018890963 0 0 -1 0 0 0 0 1 forward_v I I I I #
straight-curve $-1 0 -34.456628668270795 11.37256976178722 1 0 0 I I #
point $-1 54.811243018890963 -34.456628668270795 11.37256976178722 #
straight-curve $-1 54.811243018890963 0 -11.37256976178722 0 -1 0 I I #
face $-1 $492 $493 $15 $-1 $494 reversed single #
loop $-1 $-1 $495 $405 #
plane-surface $-1 0 -34.456628668270795 0 0 1 0 0 0 1 forward_v I I I I #
coedge $-1 $496 $497 $498 $499 reversed $406 $-1 #
coedge $-1 $500 $408 $495 $501 reversed $342 $-1 #
coedge $-1 $408 $500 $496 $502 reversed $342 $-1 #
coedge $-1 $498 $503 $408 $461 forward $478 $-1 #
edge $-1 $504 -20.689657824672238 $505 -6.8442838625248754 $460 $506 forward 7 unknown #
coedge $-1 $507 $508 $409 $463 forward $493 $-1 #
edge $-1 $466 -54.811243018890963 $479 54.811243018890963 $409 $509 forward 7 unknown #
coedge $-1 $510 $410 $508 $511 reversed $465 $-1 #
loop $-1 $-1 $414 $492 #
vertex $-1 $463 $512 #
straight-curve $-1 -54.811243018890963 34.456628668270795 0 0 0 -1 I I #
point $-1 -54.811243018890963 34.456628668270795 3.5200207842762792 #
coedge $-1 $414 $513 $418 $474 reversed $465 $-1 #
vertex $-1 $474 $514 #
straight-curve $-1 -54.811243018890963 -3.2042835662652918 31.899554292472381 0 0.79863550430605224 -0.6018150307709319 I I #
straight-curve $-1 -21.63669929009674 24.035944417980826 11.372569761787215 -1 0 0 I I #
coedge $-1 $419 $418 $515 $516 forward $277 $-1 #
edge $-1 $470 -24.035944417980822 $517 34.456628668270795 $469 $518 forward 7 unknown #
coedge $-1 $503 $420 $419 $476 reversed $478 $-1 #
edge $-1 $519 -34.456628668270795 $422 34.456628668270795 $475 $520 forward 7 unknown #
coedge $-1 $420 $498 $507 $521 reversed $478 $-1 #
loop $-1 $-1 $498 $522 #
vertex $-1 $521 $523 #
straight-curve $-1 54.811243018890963 34.456628668270795 0 0 0 -1 I I #
point $-1 54.811243018890963 34.456628668270795 11.37256976178722 #
point $-1 -54.811243018890963 34.456628668270795 11.37256976178722 #
straight-curve $-1 -54.811243018890963 34.456628668270795 0 0 0 -1 I I #
straight-curve $-1 0 -20.611254706123432 -11.37256976178722 -1 0 0 I I #
point $-1 54.811243018890963 -20.611254706123432 -11.372569761787222 #
straight-curve $-1 -54.811243018890963 -13.766970843598557 -4.6557878296004676 0 -1 0 I I #
point $-1 -54.811243018890963 -34.456628668270795 -4.6557878296004676 #
point $-1 -54.811243018890963 -20.611254706123432 -4.6557878296004676 #
straight-curve $-1 54.811243018890963 -34.456628668270795 0 0 0 -1 I I #
straight-curve $-1 -54.811243018890963 -20.611254706123432 -4.0070893978469222 0 0 1 I I #
point $-1 -54.811243018890963 -20.611254706123432 -11.372569761787222 #
face $-1 $522 $465 $15 $-1 $524 reversed single #
loop $-1 $-1 $525 $454 #
plane-surface $-1 0 0 -11.37256976178722 0 0 1 1 0 0 forward_v I I I I #
coedge $-1 $526 $527 $458 $501 forward $455 $-1 #
coedge $-1 $528 $457 $459 $502 forward $406 $-1 #
coedge $-1 $457 $528 $525 $529 reversed $406 $-1 #
coedge $-1 $477 $460 $457 $499 forward $478 $-1 #
edge $-1 $505 0.64869843175354536 $530 7.3654803639402999 $498 $531 forward 7 unknown #
coedge $-1 $459 $458 $532 $533 reversed $342 $-1 #
edge $-1 $534 -54.811243018890963 $504 54.811243018890963 $495 $535 forward 7 unknown #
edge $-1 $505 -54.811243018890963 $536 54.811243018890963 $496 $537 forward 7 unknown #
coedge $-1 $460 $475 $526 $538 forward $478 $-1 #
vertex $-1 $501 $539 #
vertex $-1 $461 $540 #
straight-curve $-1 54.811243018890963 -13.766970843598557 -4.6557878296004676 0 1 0 I I #
coedge $-1 $525 $462 $477 $521 forward $493 $-1 #
coedge $-1 $462 $525 $464 $511 forward $493 $-1 #
straight-curve $-1 0 34.456628668270795 -11.37256976178722 1 0 0 I I #
coedge $-1 $532 $464 $528 $541 forward $465 $-1 #
edge $-1 $542 -20.611254706123432 $466 34.456628668270795 $464 $543 forward 7 unknown #
point $-1 -54.811243018890963 34.456628668270795 -11.37256976178722 #
coedge $-1 $469 $532 $527 $544 reversed $465 $-1 #
point $-1 -54.811243018890963 24.035944417980822 11.372569761787219 #
coedge $-1 $527 $526 $473 $516 reversed $455 $-1 #
edge $-1 $517 -54.811243018890963 $519 54.811243018890963 $515 $545 forward 7 unknown #
vertex $-1 $474 $546 #
straight-curve $-1 -54.811243018890963 0 11.37256976178722 0 -1 0 I I #
vertex $-1 $476 $547 #
straight-curve $-1 54.811243018890963 0 11.37256976178722 0 1 0 I I #
edge $-1 $479 -34.456628668270795 $530 20.611254706123432 $477 $548 forward 7 unknown #
face $-1 $-1 $478 $15 $-1 $549 reversed single #
point $-1 54.811243018890963 34.456628668270795 -11.37256976178722 #
plane-surface $-1 -54.811243018890963 0 0 1 0 0 0 0 -1 forward_v I I I I #
coedge $-1 $508 $507 $497 $529 forward $493 $-1 #
coedge $-1 $515 $495 $503 $538 reversed $455 $-1 #
coedge $-1 $495 $515 $513 $544 forward $455 $-1 #
coedge $-1 $497 $496 $510 $541 reversed $406 $-1 #
edge $-1 $530 -54.811243018890963 $542 54.811243018890963 $525 $550 forward 7 unknown #
vertex $-1 $529 $551 #
straight-curve $-1 54.811243018890963 -20.611254706123432 -4.0070893978469222 0 0 -1 I I #
coedge $-1 $513 $510 $500 $533 forward $465 $-1 #
edge $-1 $536 6.8442838625248754 $534 20.689657824672238 $532 $552 forward 7 unknown #
vertex $-1 $501 $553 #
straight-curve $-1 0 -34.456628668270795 -4.6557878296004676 1 0 0 I I #
vertex $-1 $533 $554 #
straight-curve $-1 0 -20.611254706123432 -4.6557878296004676 -1 0 0 I I #
edge $-1 $519 -11.37256976178722 $504 4.6557878296004676 $503 $555 forward 7 unknown #
point $-1 54.811243018890963 -34.456628668270795 -4.6557878296004676 #
point $-1 54.811243018890963 -20.611254706123432 -4.6557878296004676 #
edge $-1 $542 -7.3654803639402999 $536 -0.64869843175354536 $510 $556 forward 7 unknown #
vertex $-1 $511 $557 #
straight-curve $-1 -54.811243018890963 0 -11.37256976178722 0 1 0 I I #
edge $-1 $517 -11.37256976178722 $534 4.6557878296004676 $513 $558 forward 7 unknown #
straight-curve $-1 0 -34.456628668270795 11.37256976178722 1 0 0 I I #
point $-1 -54.811243018890963 -34.456628668270795 11.37256976178722 #
point $-1 54.811243018890963 -34.456628668270795 11.37256976178722 #
straight-curve $-1 54.811243018890963 0 -11.37256976178722 0 -1 0 I I #
plane-surface $-1 54.811243018890963 0 0 -1 0 0 0 0 1 forward_v I I I I #
straight-curve $-1 0 -20.611254706123432 -11.37256976178722 -1 0 0 I I #
point $-1 54.811243018890963 -20.611254706123432 -11.372569761787222 #
straight-curve $-1 -54.811243018890963 -13.766970843598557 -4.6557878296004676 0 -1 0 I I #
point $-1 -54.811243018890963 -34.456628668270795 -4.6557878296004676 #
point $-1 -54.811243018890963 -20.611254706123432 -4.6557878296004676 #
straight-curve $-1 54.811243018890963 -34.456628668270795 0 0 0 -1 I I #
straight-curve $-1 -54.811243018890963 -20.611254706123432 -4.0070893978469222 0 0 1 I I #
point $-1 -54.811243018890963 -20.611254706123432 -11.372569761787222 #
straight-curve $-1 -54.811243018890963 -34.456628668270795 0 0 0 -1 I I #
End-of-ACIS-data 